<svg version="1.1" xmlns="http://www.w3.org/2000/svg" xmlns:xlink="http://www.w3.org/1999/xlink" width="501" height="381.47936" viewBox="0,0,501,381.47936"><defs><radialGradient cx="238.07256" cy="173.24417" r="34.955" gradientUnits="userSpaceOnUse" id="color-1"><stop offset="0" stop-color="#33266a"/><stop offset="1" stop-color="#949074"/></radialGradient><linearGradient x1="239.02412" y1="140.05255" x2="238.95429" y2="150.66204" gradientUnits="userSpaceOnUse" id="color-2"><stop offset="0" stop-color="#694444"/><stop offset="1" stop-color="#98a1b9"/></linearGradient><radialGradient cx="233.00482" cy="104.93236" r="20.31544" gradientUnits="userSpaceOnUse" id="color-3"><stop offset="0" stop-color="#dcdcdc"/><stop offset="1" stop-color="#a0a0a0"/></radialGradient><radialGradient cx="224.77629" cy="105.3709" r="15.59586" gradientUnits="userSpaceOnUse" id="color-4"><stop offset="0" stop-color="#1c2f30"/><stop offset="1" stop-color="#142913"/></radialGradient><radialGradient cx="250.24914" cy="100.61418" r="4.10509" gradientUnits="userSpaceOnUse" id="color-5"><stop offset="0" stop-color="#786c41"/><stop offset="1" stop-color="#141a29"/></radialGradient><radialGradient cx="232.9567" cy="103.85326" r="6.46263" gradientUnits="userSpaceOnUse" id="color-6"><stop offset="0" stop-color="#7ba676"/><stop offset="1" stop-color="#291616"/></radialGradient><radialGradient cx="237.49869" cy="118.47408" r="15.25953" gradientUnits="userSpaceOnUse" id="color-7"><stop offset="0" stop-color="#d1ffc4"/><stop offset="1" stop-color="#2188ff"/></radialGradient><radialGradient cx="237.49869" cy="118.47408" r="15.25953" gradientUnits="userSpaceOnUse" id="color-8"><stop offset="0" stop-color="#ceffc4"/><stop offset="1" stop-color="#ff21cc"/></radialGradient><radialGradient cx="237.49869" cy="118.47408" r="15.25953" gradientUnits="userSpaceOnUse" id="color-9"><stop offset="0" stop-color="#ffe9c4"/><stop offset="1" stop-color="#4fff21"/></radialGradient><radialGradient cx="237.49869" cy="118.47408" r="15.25953" gradientUnits="userSpaceOnUse" id="color-10"><stop offset="0" stop-color="#ffe9c4"/><stop offset="1" stop-color="#4fff21"/></radialGradient><radialGradient cx="237.49868" cy="118.47408" r="15.25953" gradientUnits="userSpaceOnUse" id="color-11"><stop offset="0" stop-color="#ffe9c4"/><stop offset="1" stop-color="#ffa321"/></radialGradient><radialGradient cx="237.49866" cy="118.47408" r="15.25953" gradientUnits="userSpaceOnUse" id="color-12"><stop offset="0" stop-color="#c4f0ff"/><stop offset="1" stop-color="#3d21ff"/></radialGradient></defs><g transform="translate(10.5,10.73968)"><g data-paper-data="{&quot;isPaintingLayer&quot;:true}" fill-rule="nonzero" stroke-linejoin="miter" stroke-miterlimit="10" stroke-dasharray="" stroke-dashoffset="0" style="mix-blend-mode: normal"><path d="M-10.5,370.73968v-381.47936h501v381.47936z" fill="#000000" stroke="none" stroke-width="0" stroke-linecap="butt"/><path d="M214.66372,208.046l0.45996,-69.90847l46.35778,0.30507l-0.45996,69.90847z" fill="url(#color-1)" stroke="#ed6b00" stroke-width="0" stroke-linecap="butt"/><g stroke-linecap="butt"><path d="M233.02613,150.62313l0.0698,-10.60953l11.85635,0.07795l-0.0698,10.60953z" fill="url(#color-2)" stroke="#000000" stroke-width="0"/><path d="M259.37783,120.94806c-0.07891,11.97208 -9.028,21.61892 -19.98874,21.5468c-10.96078,-0.07208 -19.78239,-9.83577 -19.7035,-21.80807c0.07891,-11.97208 9.028,-21.61892 19.98882,-21.5468c10.96078,0.07208 19.78239,9.83577 19.7035,21.80807z" fill="url(#color-3)" stroke="none" stroke-width="0"/><path d="M228.94263,105.41307c-0.2632,0.02223 -0.94003,0.09014 -1.67234,0.21173c-0.81029,0.31595 -1.7559,0.63537 -2.48048,0.98679c-0.45672,1.37949 1.2004,2.80622 -1.03832,3.82646c-3.81838,1.73965 -2.63745,-3.17483 -1.3592,-4.71198c1.97907,-1.70066 4.88084,-1.88715 7.38044,-2.35024c3.44302,-0.63779 6.80058,-1.633 10.20167,-1.8182c0.12869,-0.13273 0.30405,-0.22104 0.50259,-0.23764l0.90825,-0.07582c0.45827,-0.11732 0.95608,-0.23948 1.47903,-0.35439c1.35991,-0.41522 2.99454,-0.62505 4.51702,-0.75803c0.74713,-0.14163 1.4468,-0.20576 2.02457,-0.14994c0.42428,-0.0286 0.81902,-0.05543 1.17152,-0.08507l0.95738,-0.08007c0.43604,-0.03642 0.819,0.28734 0.85557,0.72357c0.03238,0.38817 -0.22058,0.73422 -0.58393,0.83147l-0.5116,0.14777c0.22322,0.19018 0.42563,0.40734 0.60355,0.65389l0.36377,-0.18224l0.45496,0.90934c0.0485,0.0917 0.07988,0.19455 0.08916,0.30455c0.03642,0.43604 -0.28734,0.819 -0.72357,0.85557c-0.13253,0.01113 -0.26058,-0.01104 -0.37499,-0.05967l-0.7831,-0.31302l0.00927,-0.02304l-0.07404,-0.00628c-0.55837,-0.35021 -1.12719,-0.61536 -1.69585,-0.79592c-0.86623,-0.03673 -1.77693,-0.13756 -2.70544,-0.21944c-1.57306,0.25992 -3.00229,1.22296 -4.03062,2.87108c0,0 -0.42094,0.6712 -1.09219,0.25037c-0.6712,-0.42094 -0.25037,-1.09219 -0.25037,-1.09219c0.09003,-0.14286 0.18287,-0.282 0.27848,-0.41683l-0.44066,0.13728c-0.05888,0.01961 -0.12135,0.03281 -0.18599,0.03829c-0.43604,0.03642 -0.819,-0.28734 -0.85557,-0.72357c-0.01848,-0.22074 0.05529,-0.42779 0.18936,-0.58332c-0.37965,-0.0018 -0.73816,0.01662 -1.04355,0.08982c-2.133,0.51139 -5.40563,0.66438 -8.49482,1.11782c0.01493,0.37357 -0.23374,0.7021 -0.58622,0.79633l-0.92734,0.2676l-0.00865,-0.03001l-0.01161,0.00294z" fill="url(#color-4)" stroke="none" stroke-width="0.5"/><path d="M252.35504,99.78898c4.19798,-0.41241 4.16129,-0.34974 4.47541,2.48664c0.31418,2.83627 -1.24515,5.19814 -3.48257,5.27523c-2.23745,0.07696 -4.3059,-2.16026 -4.61999,-4.9966c-0.31418,-2.83627 -0.30937,-2.37851 3.62724,-2.76535z" data-paper-data="{&quot;index&quot;:null}" fill="url(#color-5)" stroke="#000000" stroke-width="0"/><path d="M242.0761,103.87316c0.53345,3.08757 -1.85876,6.07855 -5.3432,6.68028c-3.48434,0.60203 -6.74145,-1.41299 -7.27475,-4.50047c-0.53345,-3.08757 -0.61265,-3.14263 6.021,-3.98912c6.22057,-0.79388 6.06333,-1.27828 6.59686,1.8093z" fill="url(#color-6)" stroke="#000000" stroke-width="0"/><path d="M242.61756,137.17454c-16.67248,0.71662 -18.19433,-8.76577 -18.15623,-14.56512c0.03822,-5.79929 9.92591,-10.5765 18.34995,-10.5211c8.42404,0.0554 16.20123,5.79353 16.16306,11.59279c0,0 2.08664,12.87479 -16.35681,13.4933z" data-paper-data="{&quot;index&quot;:null}" fill="url(#color-7)" stroke="#ed6b00" stroke-width="0"/><path d="M242.61756,137.17454c-13.28593,0.57106 -16.95099,-5.3344 -17.87247,-10.69166c1.77383,2.79212 4.89395,4.64495 8.44683,4.64495c5.52285,0 10,-4.47715 10,-10c0,-3.68017 -1.98798,-6.89603 -4.94864,-8.63227c1.52655,-0.27421 3.07041,-0.41709 4.568,-0.40724c2.56772,0.01689 5.07535,0.56175 7.31987,1.47538c1.23175,3.36681 4.22184,5.88643 7.85835,6.44693c0.64112,1.18361 0.99304,2.42563 0.98484,3.67048c0,0 0.08449,0.52132 0.06919,1.35919c-0.90367,-0.26838 -1.86082,-0.41247 -2.85161,-0.41247c-5.52285,0 -10,4.47715 -10,10c0,0.75949 0.08467,1.4992 0.24508,2.21021c-1.16363,0.17422 -2.43359,0.2899 -3.81947,0.33637z" data-paper-data="{&quot;index&quot;:null}" fill="url(#color-8)" stroke="#ed6b00" stroke-width="0"/><path d="M242.81128,112.08832c2.86891,0.01887 5.66281,0.69684 8.09852,1.81186c-0.42457,1.05622 -0.67408,2.20163 -0.71263,3.40034c-1.82414,-2.43232 -4.73092,-4.00602 -8.00526,-4.00602c-5.52284,0 -10,4.47716 -10,10c0,3.70258 2.01226,6.93517 5.00283,8.66381c-1.48997,1.11834 -2.65743,2.64307 -3.33786,4.40966c-1.71586,-0.47875 -3.12312,-1.13968 -4.27621,-1.92721c1.323,-1.69565 2.11124,-3.82891 2.11124,-6.14626c0,-4.1031 -2.47116,-7.62904 -6.00637,-9.17069c2.90545,-4.10823 10.47213,-7.07924 17.12573,-7.03548z" data-paper-data="{&quot;index&quot;:null}" fill="url(#color-9)" stroke="#ed6b00" stroke-width="0"/><path d="M252.18664,123.6218c1.54723,2.0631 3.87337,3.50847 6.54203,3.89974c-0.60274,2.52934 -2.2775,5.7335 -6.70516,7.74472c-0.88149,-1.65473 -2.21442,-3.03248 -3.83444,-3.96891c2.34917,-1.76324 3.89664,-4.5367 3.99757,-7.67555z" data-paper-data="{&quot;index&quot;:null}" fill="url(#color-10)" stroke="#ed6b00" stroke-width="0"/><path d="M240.57918,129.8212c0.03289,-0.14802 -0.42016,-0.843 -0.52988,-1.05976c-1.33879,-2.64478 -2.33275,-5.48765 -3.97706,-7.95412c-0.15533,-0.233 -1.16319,-0.08163 -1.62223,-0.11188c-2.81115,-0.18521 -5.6188,-0.73777 -8.43171,-0.5815c-0.36017,0.02001 -0.72577,0.143 -1.09189,0.34992c0.87208,-2.03285 2.90269,-3.85863 5.51417,-5.28277c1.81852,2.49328 4.76239,4.11339 8.08467,4.11339c4.28852,0 7.94653,-2.69955 9.36741,-6.49202c3.82311,1.0549 7.14102,3.18194 9.12555,5.73166c-1.43095,-0.79003 -3.07611,-1.23964 -4.82629,-1.23964c-5.52285,0 -10,4.47715 -10,10c0,1.37016 0.27556,2.67596 0.77429,3.86501c-1.42359,0.48486 -2.70282,1.28175 -3.75615,2.30916c0.68179,-1.41454 1.16215,-2.71603 1.36914,-3.64746z" data-paper-data="{&quot;index&quot;:null}" fill="url(#color-11)" stroke="#ed6b00" stroke-width="0"/><path d="M242.61753,137.17454c-16.67248,0.71662 -18.19433,-8.76577 -18.15623,-14.56512c0.00166,-0.25209 0.02193,-0.50225 0.05989,-0.75017c0.05028,1.85851 0.71661,3.82514 1.40096,5.22438c0.07073,0.14461 0.14518,0.2886 0.22325,0.43192c1.00141,4.08759 4.51575,7.1886 8.81225,7.57224c3.27032,1.48162 6.84743,2.15897 9.9009,1.54003c5.26603,-1.06744 10,-1.70851 10,-10c0,-3.35928 -2.62464,-6.37464 -5,-8.75c-1.38466,-1.38466 -4.05591,-0.25092 -5.74007,-1.25c-0.84258,-1.83582 -2.22474,-3.37254 -3.94343,-4.40709c0.88602,-0.09259 1.76887,-0.13812 2.6362,-0.13241c3.11732,0.0205 6.14607,0.81919 8.72298,2.11118c-0.00599,0.14203 -0.00901,0.28483 -0.00901,0.42833c0,4.66215 3.19042,8.57914 7.50709,9.68678c0.03224,0.63214 0.02253,1.68633 -0.24072,2.92746c-2.5808,1.45358 -4.45128,4.01985 -4.96071,7.04806c-2.44301,1.56047 -6.01167,2.70984 -11.21338,2.88428z" data-paper-data="{&quot;index&quot;:null}" fill="url(#color-12)" stroke="#ed6b00" stroke-width="0"/></g><path d="M255.03985,112.96915c0,0 -3.21097,-0.41613 -4.31665,-1.08671c-0.98218,-0.59576 -1.99088,-2.73974 -1.99088,-2.73974" data-paper-data="{&quot;index&quot;:null}" fill="none" stroke="#191412" stroke-width="1.5" stroke-linecap="round"/><path d="M233.5701,112.25662c0,0 -1.8264,1.10191 -2.92455,0.97332c-1.23619,-0.14482 -4.12795,-1.79866 -4.12795,-1.79866" data-paper-data="{&quot;index&quot;:null}" fill="none" stroke="#191412" stroke-width="1.5" stroke-linecap="round"/><g><path d="M259.95012,247.90469c0,0 -11.47242,-38.27214 -14.36716,-44.59367c-0.94656,-2.067 -5.64989,-1.1581 -5.64989,-1.1581c0,0 -5.99918,-5.39586 -0.51447,-6.61918c4.63549,-1.03391 15.58164,-0.01225 15.58164,-0.01225l17.04628,49.68512z" data-paper-data="{&quot;index&quot;:null}" fill="#4a433c" stroke="#000000" stroke-width="0" stroke-linecap="butt"/><path d="M283.11231,253.85316c-0.89599,0.19996 -3.99206,0.91204 -7.13307,1.48483c-1.90987,0.34819 -3.08327,-0.29257 -4.54228,-0.19381c-1.83666,0.12416 -4.36731,1.32393 -5.71545,1.32077c-2.48433,-0.00585 -3.85146,-0.37523 -3.85146,-0.37523c0,0 -0.75243,-1.45927 -0.96626,-2.30066c-0.28807,-1.13373 -0.60692,-3.89004 -0.60692,-3.89004c0,0 8.92926,-2.18144 12.49581,-2.659c2.11039,-0.28257 6.62776,-0.45204 6.62776,-0.45204c0,0 2.41405,0.43833 2.88086,1.01217c0.572,0.70263 1.99004,2.7114 1.99004,2.7114c0,0 0.0711,3.0625 -1.17873,3.34131z" data-paper-data="{&quot;index&quot;:null}" fill="#140d0d" stroke="#000000" stroke-width="0" stroke-linecap="butt"/><path d="M281.83488,250.05283c-0.37516,0.08368 1.60149,2.18406 -3.50775,2.89755c-4.825,0.67391 -4.59707,-0.85996 -6.29376,-0.60942c-3.5475,0.52386 -3.71057,1.77175 -5.27322,1.87761c-0.54427,0.03684 -0.8135,-0.00023 -3.02443,-0.86505c-1.5206,-0.59471 -1.5965,-2.42262 -2.71479,-3.16978c-1.63354,-1.09133 -1.85775,-2.5779 -1.85775,-2.5779l-1.14289,-4.58086c0,0 1.47902,3.17164 3.02512,4.13476c1.38325,0.86187 3.49565,-0.8095 4.22669,-0.97279c1.2801,-0.28589 -2.14306,-4.70743 -0.91286,-4.9528c0.66143,-0.13207 5.54801,-1.6089 5.54801,-1.6089c0,0 1.39286,5.36955 1.7517,5.32142c2.11039,-0.28257 7.17761,-0.57455 7.17761,-0.57455c0,0 2.41405,0.43833 2.88084,1.01204c0.572,0.70263 1.95067,4.25942 1.95067,4.25942c0,0 -0.58302,0.13019 -1.8328,0.40888z" data-paper-data="{&quot;index&quot;:null}" fill="#1f261f" stroke="#000000" stroke-width="0" stroke-linecap="butt"/><path d="M269.55303,248.12937l3.6643,-2.54893" fill="none" stroke="#ffb5b5" stroke-width="0.5" stroke-linecap="round"/><path d="M275.96676,244.96744l-3.35849,3.05785" fill="none" stroke="#bffdff" stroke-width="0.5" stroke-linecap="round"/><path d="M277.69784,244.96614l-1.70873,2.68976" fill="none" stroke="#eaffc1" stroke-width="0.5" stroke-linecap="round"/><path d="M266.41232,242.67323l3.21729,-1.10239" fill="none" stroke="#8d967b" stroke-width="0.5" stroke-linecap="round"/><path d="M267.43139,243.79279l2.80986,-1.20399" fill="none" stroke="#767796" stroke-width="0.5" stroke-linecap="round"/></g><g><path d="M210.17796,247.0045l13.9228,-50.64915c0,0 10.8615,-1.70063 15.55221,-0.95701c5.55031,0.87977 -0.10161,6.63852 -0.10161,6.63852c0,0 -4.7508,-0.61468 -5.56696,1.50734c-2.49576,6.48926 -11.56556,45.40085 -11.56556,45.40085z" fill="#413a4a" stroke="#000000" stroke-width="0" stroke-linecap="butt"/><path d="M232.53216,258.47682c0,0 -1.06037,2.87408 -2.32515,2.67352c-0.90665,-0.14365 -4.04746,-0.62023 -7.17936,-1.243c-1.90396,-0.37861 -2.75964,-1.40606 -4.1525,-1.85095c-1.75376,-0.55999 -4.54799,-0.37533 -5.80057,-0.87413c-2.30799,-0.91906 -3.44333,-1.76542 -3.44333,-1.76542c0,0 -0.16302,-1.63358 -0.05246,-2.49478c0.14902,-1.16038 0.86648,-3.84042 0.86648,-3.84042c0,0 9.10552,1.25586 12.59788,2.12357c2.06649,0.5135 6.32932,2.01731 6.32932,2.01731c0,0 2.08345,1.29547 2.30658,2.00084c0.27329,0.86379 0.85318,3.25346 0.85318,3.25346z" data-paper-data="{&quot;index&quot;:null}" fill="#12140d" stroke="#000000" stroke-width="0" stroke-linecap="butt"/><path d="M232.27164,257.44051c0,0 -0.58994,-0.09349 -1.85477,-0.29392c-0.3798,-0.0601 0.686,2.62012 -4.32785,1.40417c-4.73474,-1.14823 -3.9585,-2.4907 -5.62834,-2.88164c-3.49137,-0.81755 -4.10219,0.28265 -5.59409,-0.19356c-0.51962,-0.16586 -0.75634,-0.29968 -2.49431,-1.91696c-1.19515,-1.11224 -0.5935,-2.84005 -1.35866,-3.94609c-1.11752,-1.61579 -0.77942,-3.08052 -0.77942,-3.08052l0.62209,-4.68006c0,0 0.20873,3.4933 1.2921,4.95773c0.9693,1.31024 3.54821,0.53307 4.28808,0.65004c1.29548,0.20504 -0.26123,-5.16552 0.97285,-4.94137c0.66364,0.12056 5.75089,0.5446 5.75089,0.5446c0,0 -0.67982,5.50537 -0.32835,5.59275c2.06645,0.51338 6.88562,2.10562 6.88562,2.10562c0,0 2.08345,1.29547 2.30658,2.00084c0.27329,0.86379 0.24708,4.67837 0.24708,4.67837z" data-paper-data="{&quot;index&quot;:null}" fill="#1e1e26" stroke="#000000" stroke-width="0" stroke-linecap="butt"/><path d="M224.04848,249.81816l-4.34487,1.02243" fill="none" stroke="#c1ffce" stroke-width="0.5" stroke-linecap="round"/><path d="M226.83048,250.25924l-4.24765,1.60821" fill="none" stroke="#eaffc1" stroke-width="0.5" stroke-linecap="round"/><path d="M228.44097,250.89471l-2.57841,1.87282" fill="none" stroke="#ffb5b5" stroke-width="0.5" stroke-linecap="round"/><path d="M222.18697,244.76993l-3.39714,-0.1582" fill="none" stroke="#7d967f" stroke-width="0.5" stroke-linecap="round"/><path d="M222.38143,245.94153l-3.0556,0.086" fill="none" stroke="#966262" stroke-width="0.5" stroke-linecap="round"/></g><g stroke-width="0" stroke-linecap="butt"><path d="M222.98843,197.85772c0,0 0.3155,-8.60806 -0.43464,-16.95108c-0.50969,-5.669 -2.10443,-10.79137 -2.32187,-14.65545c-0.40821,-7.25262 -0.18967,-20.72585 -0.18967,-20.72585c0,0 5.72303,-0.868 8.47206,-0.28269c3.4995,0.74495 10.82192,4.38998 10.82192,4.38998c0,0 5.71608,-3.3239 8.6834,-3.94914c3.13099,-0.65958 9.63788,0.0894 9.63788,0.0894c0,0 -0.20081,14.2729 -0.48024,19.5971c-0.24729,4.71078 -1.44256,9.8525 -1.94339,16.82565c-0.51636,7.18696 -0.33504,16.13726 -0.33504,16.13726c0,0 -4.26158,-1.21938 -8.62006,-1.35376c-1.97935,-0.06103 -2.78423,1.53986 -4.65532,1.77401c-1.49557,0.18732 -4.07608,-0.97609 -5.50809,-1.04227c-1.08243,-0.05009 -3.15958,-0.84255 -3.92499,-0.8539c-1.54535,-0.02303 -2.51087,1.32358 -4.30538,1.55838c-2.08441,0.27294 -4.8963,-0.55787 -4.8963,-0.55787z" fill="#d1b0b0" stroke="#292e32"/><path d="M243.50422,162.24281l-0.12837,-9.01465l11.82648,0.64128l-0.05317,8.07457z" fill="#f200ff" stroke="none"/><path d="M243.37584,153.22816l6.20638,0.33653c0.52022,0.98535 1.20021,1.87331 2.00548,2.62938c-0.5613,-0.09777 -1.13867,-0.14874 -1.72795,-0.14874c-2.43949,0 -4.67496,0.87352 -6.41068,2.32484z" fill="#eeff00" stroke="none"/><path d="M250.3867,162.06621c0.14662,-3.35428 -1.46616,-6.63094 -4.11524,-8.68104l7.75672,0.4206c-0.83443,1.46039 -1.31129,3.15143 -1.31129,4.95385c0,1.13142 0.1879,2.21895 0.53419,3.23309z" fill="#00ff5f" stroke="none"/><path d="M253.33492,161.99055l-8.32325,0.21358c2.18959,-0.76378 4.03223,-2.26749 5.22838,-4.21156c1.07527,1.02687 2.37916,1.81638 3.82757,2.28444c-0.29499,0.54278 -0.54119,1.11592 -0.7327,1.71354z" fill="#004fff" stroke="none"/><path d="M243.5042,162.24281l-0.12837,-9.01466l2.93237,0.159c-0.83091,1.45811 -1.3056,3.14556 -1.3056,4.94388c0,1.36577 0.2738,2.6676 0.7695,3.85357z" fill="#ff0000" stroke="none"/><path d="M255.18085,157.12771l-0.03172,4.81629l-4.33037,0.11112c0.27277,-0.65951 0.47701,-1.35455 0.60387,-2.07625c1.47049,-0.64085 2.75697,-1.62497 3.75822,-2.85115z" fill="#00efff" stroke="none"/><path d="M255.20231,153.86943l-0.05318,8.07457l-0.29214,0.0075c-0.0827,-3.56058 -2.02645,-6.66101 -4.89628,-8.36628z" fill="#9c00ff" stroke="none"/></g><g data-paper-data="{&quot;index&quot;:null}" stroke="#000000" stroke-width="0" stroke-linecap="butt"><path d="M265.10857,112.11067c0,0 0.78411,3.29978 2.92095,8.41694c1.28339,3.07351 3.60015,8.00809 3.98302,9.20954c0.85394,2.68047 3.03731,8.48161 3.52522,10.229c0.11221,3.41198 -4.39309,9.51318 -9.18665,12.72364c-4.10172,2.7471 -8.92638,3.55333 -8.92638,3.55333l0.05475,-8.7501c0,0 7.68817,-3.79509 8.29424,-6.86036c0.84358,-4.26652 -0.56913,-7.51627 -0.93523,-8.95209c-0.33154,-1.30096 -1.68718,-5.3527 -2.02168,-6.61628c-1.39074,-5.25432 -3.95279,-9.17021 -3.95279,-9.17021z" data-paper-data="{&quot;index&quot;:null}" fill="#a3bda9"/><path d="M262.33583,105.49303c0.5919,-0.34261 2.81307,6.59827 2.81307,6.59827c0,0 -1.59638,2.20343 -2.62278,2.82535c-1.05428,0.63859 -3.62166,0.95785 -3.62166,0.95785c0,0 -0.77534,-1.65595 -1.86314,-2.50307c-1.86185,-1.45012 -2.30618,-1.61657 -2.35099,-3.61612c-0.02437,-1.08493 0.90482,1.00978 1.02748,0.48009c0.02176,-0.09434 -1.37361,-2.99503 -1.01867,-3.48385c0.57987,-0.79855 2.35325,2.10574 2.14519,1.03973c-0.42682,-2.18839 -1.24114,-2.38394 -0.69925,-2.89538c0.91267,-0.86148 2.27102,3.37924 2.31435,2.61904c0.0809,-1.42022 -1.34863,-3.32424 -0.89607,-3.79928c1.31856,-1.38408 2.18384,2.94006 2.36027,2.11937c0.33323,-1.55014 -0.62742,-2.84746 -0.02359,-3.13831c1.22759,-0.59129 2.1563,2.95735 2.43573,2.79572z" data-paper-data="{&quot;index&quot;:null}" fill="#6c7378"/></g><g stroke="#000000" stroke-width="0" stroke-linecap="butt"><path d="M184.80936,177.27824c0,0 2.59724,-2.22007 6.01127,-6.58988c2.05053,-2.62465 5.17217,-7.09634 6.05291,-8.00292c1.96477,-2.02203 2.18731,-3.70677 3.51412,-4.95559c3.26018,-3.06843 8.76668,-8.33262 8.76668,-8.33262c0,0 6.43446,-10.47717 14.21497,-1.53058c1.24215,1.42831 -6.7556,9.07725 -6.7556,9.07725c0,0 -3.78325,3.75414 -6.84978,6.64013c-1.42577,1.34187 -3.88412,3.35693 -6.27176,5.48188c-1.00887,0.89786 -3.93627,4.01936 -4.90808,4.90387c-4.04109,3.67801 -6.03586,7.95539 -6.03586,7.95539z" fill="#b8bda6"/><path d="M180.35524,183.13136c-0.71915,-0.44551 4.3498,-5.70353 4.3498,-5.70353c0,0 3.14873,0.64422 4.42272,1.40516c1.30854,0.78132 3.32736,3.223 3.32736,3.223c0,0 -1.04516,1.50117 -1.11741,2.96417c-0.12382,2.50363 -0.02602,5.34429 -1.88436,6.26081c-1.00836,0.49738 0.39038,-3.67118 -0.19215,-3.56368c-0.10366,0.01908 -4.24722,5.51228 -4.94615,5.36844c-1.14194,-0.23505 2.75223,-6.10937 1.88444,-5.43574c-1.78102,1.38289 -4.02269,5.75624 -4.86816,5.43456c-1.42417,-0.54205 4.27375,-7.2253 3.52686,-6.93753c-1.39523,0.53775 -4.14967,5.11673 -4.9011,4.86883c-2.18904,-0.72209 3.22834,-5.78884 2.3352,-5.60858c-1.68704,0.3404 -3.3288,3.8012 -4.00743,3.32089c-1.37972,-0.97649 2.40984,-5.38621 2.0703,-5.59664z" data-paper-data="{&quot;index&quot;:null}" fill="#786274"/></g></g></g></svg>