<svg version="1.1" xmlns="http://www.w3.org/2000/svg" xmlns:xlink="http://www.w3.org/1999/xlink" width="65.42289" height="64.90928" viewBox="0,0,65.42289,64.90928"><defs><linearGradient x1="240.00005" y1="149.04536" x2="240.00005" y2="210.95464" gradientUnits="userSpaceOnUse" id="color-1"><stop offset="0" stop-color="#06261d"/><stop offset="1" stop-color="#00110e"/></linearGradient><linearGradient x1="240.00005" y1="149.04536" x2="240.00005" y2="210.95464" gradientUnits="userSpaceOnUse" id="color-2"><stop offset="0" stop-color="#c5ffd7"/><stop offset="1" stop-color="#6fb696"/></linearGradient><radialGradient cx="240.00004" cy="180" r="29.92177" gradientUnits="userSpaceOnUse" id="color-3"><stop offset="0" stop-color="#b9ffd7" stop-opacity="0.31373"/><stop offset="1" stop-color="#b9ffd7" stop-opacity="0"/></radialGradient><linearGradient x1="240.00004" y1="150.69895" x2="240.00004" y2="209.30106" gradientUnits="userSpaceOnUse" id="color-4"><stop offset="0" stop-color="#cccccc"/><stop offset="1" stop-color="#898989"/></linearGradient></defs><g transform="translate(-207.28861,-147.54536)"><g data-paper-data="{&quot;isPaintingLayer&quot;:true}" fill-rule="nonzero" stroke-linecap="butt" stroke-linejoin="miter" stroke-miterlimit="10" stroke-dasharray="" stroke-dashoffset="0" style="mix-blend-mode: normal"><path d="M208.78862,210.95464v-61.90928h62.42289v61.90928z" fill="url(#color-1)" stroke="url(#color-2)" stroke-width="3"/><path d="M269.92179,180c0,16.18252 -13.39645,29.30105 -29.92178,29.30105c-16.52534,0 -29.92177,-13.11853 -29.92177,-29.30105c0,-16.18252 13.39645,-29.30105 29.92177,-29.30105c16.52534,0 29.92178,13.11853 29.92178,29.30105z" fill="url(#color-3)" stroke="url(#color-4)" stroke-width="0"/><path d="M235.625,184.375v-8.625h8.75v8.625z" fill="#d6fff5" stroke="none" stroke-width="0"/><path d="M252.75,184.25v-8.625h8.75v8.625z" fill="#d6fff5" stroke="none" stroke-width="0"/><path d="M218.5,184.375v-8.625h8.75v8.625z" fill="#d6fff5" stroke="none" stroke-width="0"/></g></g></svg>