<svg version="1.1" xmlns="http://www.w3.org/2000/svg" xmlns:xlink="http://www.w3.org/1999/xlink" width="59" height="59.94511" viewBox="0,0,59,59.94511"><defs><linearGradient x1="240.00011" y1="169.35814" x2="240.00011" y2="208.35332" gradientUnits="userSpaceOnUse" id="color-1"><stop offset="0" stop-color="#181818"/><stop offset="1" stop-color="#050505"/></linearGradient><linearGradient x1="240.00011" y1="169.35814" x2="240.00011" y2="208.35332" gradientUnits="userSpaceOnUse" id="color-2"><stop offset="0" stop-color="#cccccc"/><stop offset="1" stop-color="#898989"/></linearGradient><radialGradient cx="240.20364" cy="189.1611" r="26.44994" gradientUnits="userSpaceOnUse" id="color-3"><stop offset="0" stop-color="#ffffff" stop-opacity="0.14029"/><stop offset="1" stop-color="#ffffff" stop-opacity="0"/></radialGradient><linearGradient x1="240.20364" y1="171.76585" x2="240.20364" y2="206.55635" gradientUnits="userSpaceOnUse" id="color-4"><stop offset="0" stop-color="#cccccc"/><stop offset="1" stop-color="#898989"/></linearGradient><linearGradient x1="240.00006" y1="151.82983" x2="240.00006" y2="167.09832" gradientUnits="userSpaceOnUse" id="color-5"><stop offset="0" stop-color="#6c737c"/><stop offset="1" stop-color="#374137" stop-opacity="0.22992"/></linearGradient><linearGradient x1="240.00006" y1="151.82983" x2="240.00006" y2="167.09832" gradientUnits="userSpaceOnUse" id="color-6"><stop offset="0" stop-color="#ccdae5"/><stop offset="1" stop-color="#9fc7a4" stop-opacity="0.06998"/></linearGradient><linearGradient x1="250.88809" y1="150.67936" x2="250.88809" y2="169.52611" gradientTransform="translate(-567.68802,-403.58018) scale(2.4487,2.4487)" gradientUnits="userSpaceOnUse" id="color-7"><stop offset="0" stop-color="#e1e1e1"/><stop offset="1" stop-color="#555555"/></linearGradient><linearGradient x1="250.88809" y1="150.67936" x2="250.88809" y2="169.52611" gradientTransform="translate(-567.68802,-403.58018) scale(2.4487,2.4487)" gradientUnits="userSpaceOnUse" id="color-8"><stop offset="0" stop-color="#676767"/><stop offset="1" stop-color="#ffffff"/></linearGradient><radialGradient cx="252.28825" cy="190.16799" r="14.77127" gradientUnits="userSpaceOnUse" id="color-9"><stop offset="0" stop-color="#d8e0ff"/><stop offset="1" stop-color="#d8e0ff" stop-opacity="0"/></radialGradient><linearGradient x1="252.28825" y1="173.19147" x2="252.28825" y2="207.1445" gradientUnits="userSpaceOnUse" id="color-10"><stop offset="0" stop-color="#272727"/><stop offset="1" stop-color="#2c2c2c"/></linearGradient><linearGradient x1="252.28825" y1="175.24602" x2="252.28825" y2="200.64595" gradientUnits="userSpaceOnUse" id="color-11"><stop offset="0" stop-color="#d4eaff"/><stop offset="1" stop-color="#edf9ff"/></linearGradient><linearGradient x1="252.28825" y1="183.40365" x2="252.28825" y2="200.64595" gradientUnits="userSpaceOnUse" id="color-12"><stop offset="0" stop-color="#f9fcff"/><stop offset="1" stop-color="#fcfbff"/></linearGradient></defs><g transform="translate(-210.50011,-149.90821)"><g data-paper-data="{&quot;isPaintingLayer&quot;:true}" fill-rule="nonzero" stroke-linejoin="miter" stroke-miterlimit="10" stroke-dasharray="" stroke-dashoffset="0" style="mix-blend-mode: normal"><path d="M212.00011,208.35332v-38.99518h56v38.99518z" fill="url(#color-1)" stroke="url(#color-2)" stroke-width="3" stroke-linecap="butt"/><path d="M266.65358,189.1611c0,9.60713 -11.84205,17.39525 -26.44994,17.39525c-14.6079,0 -26.44994,-7.78812 -26.44994,-17.39525c0,-9.60713 11.84205,-17.39525 26.44994,-17.39525c14.6079,0 26.44994,7.78812 26.44994,17.39525z" fill="url(#color-3)" stroke="url(#color-4)" stroke-width="0" stroke-linecap="butt"/><path d="M215.06977,181.05045v-8.69862h22.23299v8.69862z" fill-opacity="0.53453" fill="#000000" stroke="#a60000" stroke-width="0" stroke-linecap="butt"/><text transform="translate(215.50361,179.32668) scale(0.21839,0.21839)" font-size="40" xml:space="preserve" fill="#ffffff" fill-rule="nonzero" stroke="#000000" stroke-width="0" stroke-linecap="butt" stroke-linejoin="miter" stroke-miterlimit="10" stroke-dasharray="" stroke-dashoffset="0" font-family="Serif" font-weight="normal" text-anchor="start" style="mix-blend-mode: normal"><tspan x="0" dy="0">1 unit</tspan></text><path d="M228.45985,167.09832v-15.26848h23.08039v15.26848z" fill="url(#color-5)" stroke="url(#color-6)" stroke-width="1" stroke-linecap="butt"/><text transform="translate(231.83244,164.81408) scale(0.40838,0.40838)" font-size="40" xml:space="preserve" fill="url(#color-7)" fill-rule="nonzero" stroke="url(#color-8)" stroke-width="1" stroke-linecap="butt" stroke-linejoin="miter" stroke-miterlimit="10" stroke-dasharray="" stroke-dashoffset="0" font-family="Serif" font-weight="normal" text-anchor="start" style="mix-blend-mode: normal"><tspan x="0" dy="0">$5</tspan></text><path d="M267.05951,190.16799c0,9.37587 -6.61333,16.97651 -14.77126,16.97651c-8.15794,0 -14.77125,-7.60065 -14.77125,-16.97651c0,-9.37587 6.61332,-16.9765 14.77125,-16.9765c8.15795,0 14.77127,7.60064 14.77127,16.9765z" fill="url(#color-9)" stroke="url(#color-10)" stroke-width="0" stroke-linecap="butt"/><path d="M261.07014,192.0248c0,4.76132 -3.93179,8.62115 -8.7819,8.62115c-4.85011,0 -8.78189,-3.85983 -8.78189,-8.62115c0,-4.76132 8.78189,-16.77878 8.78189,-16.77878c0,0 8.7819,12.01746 8.7819,16.77879z" fill="url(#color-11)" stroke="url(#color-12)" stroke-width="1.5" stroke-linecap="butt"/><path d="M250.76844,180.75918l-3.83577,7.87341" fill="none" stroke="#ffffff" stroke-width="1.5" stroke-linecap="round"/></g></g></svg>