<svg version="1.1" xmlns="http://www.w3.org/2000/svg" xmlns:xlink="http://www.w3.org/1999/xlink" width="96.78693" height="96.69299" viewBox="0,0,96.78693,96.69299"><defs><radialGradient cx="242.4" cy="182.8" r="48.39346" gradientUnits="userSpaceOnUse" id="color-1"><stop offset="0" stop-color="#ffffff" stop-opacity="0.1451"/><stop offset="1" stop-color="#ffffff" stop-opacity="0"/></radialGradient><radialGradient cx="232.04357" cy="174.24467" r="32.81875" gradientUnits="userSpaceOnUse" id="color-2"><stop offset="0" stop-color="#9084ab"/><stop offset="1" stop-color="#373245"/></radialGradient><radialGradient cx="250.83506" cy="191.8131" r="22.19203" gradientUnits="userSpaceOnUse" id="color-3"><stop offset="0" stop-color="#675c78"/><stop offset="1" stop-color="#453d4f"/></radialGradient><radialGradient cx="216.4921" cy="198.93659" r="22.72913" gradientUnits="userSpaceOnUse" id="color-4"><stop offset="0" stop-color="#8b85ab"/><stop offset="1" stop-color="#615969"/></radialGradient><radialGradient cx="234.62089" cy="157.82617" r="22.47699" gradientUnits="userSpaceOnUse" id="color-5"><stop offset="0" stop-color="#9a89b3"/><stop offset="1" stop-color="#685e73"/></radialGradient><radialGradient cx="213.11164" cy="190.15619" r="4.80911" gradientUnits="userSpaceOnUse" id="color-6"><stop offset="0" stop-color="#581bff"/><stop offset="1" stop-color="#32009d"/></radialGradient><radialGradient cx="236.55242" cy="191.03872" r="3.36142" gradientUnits="userSpaceOnUse" id="color-7"><stop offset="0" stop-color="#581bff"/><stop offset="1" stop-color="#32009d"/></radialGradient><radialGradient cx="226.30242" cy="203.28872" r="4.251" gradientUnits="userSpaceOnUse" id="color-8"><stop offset="0" stop-color="#581bff"/><stop offset="1" stop-color="#32009d"/></radialGradient><radialGradient cx="264.05242" cy="181.53872" r="4.0002" gradientUnits="userSpaceOnUse" id="color-9"><stop offset="0" stop-color="#3f14b5"/><stop offset="1" stop-color="#23006e"/></radialGradient><radialGradient cx="266.80242" cy="200.03872" r="2.68945" gradientUnits="userSpaceOnUse" id="color-10"><stop offset="0" stop-color="#3f14b5"/><stop offset="1" stop-color="#23006e"/></radialGradient><radialGradient cx="251.55242" cy="192.78872" r="3.38406" gradientUnits="userSpaceOnUse" id="color-11"><stop offset="0" stop-color="#3f14b5"/><stop offset="1" stop-color="#23006e"/></radialGradient><radialGradient cx="241.05242" cy="171.78872" r="5.17084" gradientUnits="userSpaceOnUse" id="color-12"><stop offset="0" stop-color="#642cff"/><stop offset="1" stop-color="#481da4"/></radialGradient><radialGradient cx="229.30242" cy="157.78872" r="3.45036" gradientUnits="userSpaceOnUse" id="color-13"><stop offset="0" stop-color="#642cff"/><stop offset="1" stop-color="#481da4"/></radialGradient><radialGradient cx="252.30242" cy="153.28872" r="4.31795" gradientUnits="userSpaceOnUse" id="color-14"><stop offset="0" stop-color="#642cff"/><stop offset="1" stop-color="#481da4"/></radialGradient><radialGradient cx="230.7367" cy="173.29933" r="38.20934" gradientUnits="userSpaceOnUse" id="color-15"><stop offset="0" stop-color="#6600ff" stop-opacity="0.04314"/><stop offset="1" stop-color="#d400ff" stop-opacity="0.04706"/></radialGradient><radialGradient cx="252.61475" cy="193.75343" r="25.83714" gradientUnits="userSpaceOnUse" id="color-16"><stop offset="0" stop-color="#6600ff" stop-opacity="0.04314"/><stop offset="1" stop-color="#d400ff" stop-opacity="0.04706"/></radialGradient><radialGradient cx="212.63085" cy="202.04697" r="26.46247" gradientUnits="userSpaceOnUse" id="color-17"><stop offset="0" stop-color="#6600ff" stop-opacity="0.04314"/><stop offset="1" stop-color="#d400ff" stop-opacity="0.04706"/></radialGradient><radialGradient cx="233.73735" cy="154.18403" r="26.16891" gradientUnits="userSpaceOnUse" id="color-18"><stop offset="0" stop-color="#6600ff" stop-opacity="0.04314"/><stop offset="1" stop-color="#d400ff" stop-opacity="0.04706"/></radialGradient><radialGradient cx="208.69514" cy="191.82437" r="5.59903" gradientUnits="userSpaceOnUse" id="color-19"><stop offset="0" stop-color="#6600ff" stop-opacity="0.04314"/><stop offset="1" stop-color="#d400ff" stop-opacity="0.04706"/></radialGradient><radialGradient cx="235.98614" cy="192.85185" r="3.91354" gradientUnits="userSpaceOnUse" id="color-20"><stop offset="0" stop-color="#6600ff" stop-opacity="0.04314"/><stop offset="1" stop-color="#d400ff" stop-opacity="0.04706"/></radialGradient><radialGradient cx="224.05255" cy="207.11396" r="4.94924" gradientUnits="userSpaceOnUse" id="color-21"><stop offset="0" stop-color="#6600ff" stop-opacity="0.04314"/><stop offset="1" stop-color="#d400ff" stop-opacity="0.04706"/></radialGradient><radialGradient cx="268.00311" cy="181.79145" r="4.65724" gradientUnits="userSpaceOnUse" id="color-22"><stop offset="0" stop-color="#6600ff" stop-opacity="0.04314"/><stop offset="1" stop-color="#d400ff" stop-opacity="0.04706"/></radialGradient><radialGradient cx="271.2048" cy="203.33013" r="3.1312" gradientUnits="userSpaceOnUse" id="color-23"><stop offset="0" stop-color="#6600ff" stop-opacity="0.04314"/><stop offset="1" stop-color="#d400ff" stop-opacity="0.04706"/></radialGradient><radialGradient cx="253.44994" cy="194.8893" r="3.9399" gradientUnits="userSpaceOnUse" id="color-24"><stop offset="0" stop-color="#6600ff" stop-opacity="0.04314"/><stop offset="1" stop-color="#d400ff" stop-opacity="0.04706"/></radialGradient><radialGradient cx="241.22528" cy="170.43998" r="6.02016" gradientUnits="userSpaceOnUse" id="color-25"><stop offset="0" stop-color="#6600ff" stop-opacity="0.04314"/><stop offset="1" stop-color="#d400ff" stop-opacity="0.04706"/></radialGradient><radialGradient cx="227.54531" cy="154.14043" r="4.01709" gradientUnits="userSpaceOnUse" id="color-26"><stop offset="0" stop-color="#6600ff" stop-opacity="0.04314"/><stop offset="1" stop-color="#d400ff" stop-opacity="0.04706"/></radialGradient><radialGradient cx="254.32313" cy="148.90129" r="5.02719" gradientUnits="userSpaceOnUse" id="color-27"><stop offset="0" stop-color="#6600ff" stop-opacity="0.04314"/><stop offset="1" stop-color="#d400ff" stop-opacity="0.04706"/></radialGradient></defs><g transform="translate(-194.00654,-134.45351)"><g data-paper-data="{&quot;isPaintingLayer&quot;:true}" fill-rule="nonzero" stroke-width="0" stroke-linecap="butt" stroke-linejoin="miter" stroke-miterlimit="10" stroke-dasharray="" stroke-dashoffset="0" style="mix-blend-mode: normal"><path d="M290.79346,182.8c0,26.70103 -21.66649,48.34649 -48.39346,48.34649c-26.72697,0 -48.39346,-21.64546 -48.39346,-48.34649c0,-26.70103 21.66649,-48.34649 48.39346,-48.34649c26.72697,0 48.39346,21.64546 48.39346,48.34649z" fill="url(#color-1)" stroke="none"/><path d="M272.21857,182.79258c0,3.84279 0.1644,9.93039 -1.00291,13.35414c-1.96895,5.775 -4.41798,12.69727 -9.09531,15.90469c-2.16491,1.48456 -5.93275,-0.87784 -8.69639,-0.40834c-4.32039,0.73396 -7.7193,4.16827 -12.20539,4.16827c-4.44271,0 -7.48184,-1.39739 -11.32703,-3.18662c-11.06857,-5.1504 -21.27297,-17.06203 -21.27297,-30.43213c0,-4.81453 5.79771,-6.58544 7.58876,-10.69906c2.13619,-4.90632 2.02246,-10.06492 5.64137,-13.64988c2.73374,-2.7081 6.55915,-3.66059 10.51778,-4.98768c2.84756,-0.95461 5.66753,-2.68213 8.65209,-2.68213c8.8133,0 17.9731,2.02042 23.64691,8.16361c2.7461,2.97328 2.84857,7.35285 4.05727,11.70053c1.17663,4.23229 3.49582,8.4134 3.49582,12.75461z" fill="url(#color-2)" stroke="#000000"/><path d="M239.4466,203.89348c-8.5531,-4.30485 -10.7935,-14.67045 0.69918,-23.49368c13.52883,-1.96128 9.58597,-15.21451 16.20361,-9.64475c2.88397,2.4273 9.75284,2.33859 12.68959,3.98368c4.52323,2.5338 5.47737,6.32735 3.44202,13.65127c-1.42217,5.11749 6.63443,9.26899 2.50488,14.20249c-7.58078,9.05664 -7.92922,0.63091 -14.33024,5.21356c-4.93357,3.53207 -3.79869,7.44353 -9.45694,6.6388c-7.82785,-1.1133 -8.6232,-8.97655 -11.75211,-10.55136z" fill="url(#color-3)" stroke="#cccccc"/><path d="M243.17539,204.57118c0,9.57534 -8.25175,16.2367 -21.29986,9.93769c-7.83415,-11.20277 -17.89986,-1.7225 -15.89986,-10.13769c0.8716,-3.66735 -2.29573,-9.76301 -2.14656,-13.12584c0.22975,-5.17948 3.18935,-7.73724 10.64643,-9.21185c5.21053,-1.03036 5.29676,-10.09327 11.56012,-8.62258c11.49791,2.69981 4.12835,6.79907 11.09951,10.45647c5.37301,2.81894 8.35668,0.04671 10.18168,5.46268c2.52478,7.49268 -4.14144,11.73825 -4.14144,15.24112z" fill="url(#color-4)" stroke="#cccccc"/><path d="M226.6137,176.89134c-8.3647,-4.66037 -10.16767,-15.11094 1.68553,-23.44357c13.59928,-1.3912 10.21667,-14.79837 16.59449,-8.95552c2.77946,2.54632 9.64598,2.74624 12.51103,4.51325c4.4128,2.72158 5.20672,6.55187 2.86549,13.78381c-1.6359,5.05323 6.23918,9.53952 1.90603,14.29518c-7.95455,8.73018 -7.94873,0.29725 -14.53661,4.60695c-5.0776,3.32169 -4.10804,7.27738 -9.72749,6.23565c-7.77418,-1.44116 -8.23848,-9.33089 -11.29847,-11.03575z" fill="url(#color-5)" stroke="#cccccc"/><path d="M218.67444,190.66822c0.57262,2.02967 3.50898,2.76874 -1.58564,4.22917c-2.42166,2.44136 -5.20422,2.70279 -6.4982,1.32508c-0.7168,-0.76318 -0.45697,-2.97248 -0.6611,-3.69601c-0.37607,-1.333 0.68728,-1.75209 1.8415,-2.77325c0.60324,-0.53369 0.86787,-1.9587 1.74414,-2.20592c1.22069,-0.34439 1.187,0.21858 2.18663,0.59998c1.09097,0.41625 2.67385,1.46177 2.97267,2.52095z" fill="url(#color-6)" stroke="#cccccc"/><path d="M238.70758,189.30108c1.38498,0.37863 2.84708,-1.07467 1.91016,2.40984c0.57378,2.26977 -0.25072,3.98464 -1.50868,4.2557c-0.69685,0.15015 -1.89432,-0.77713 -2.38803,-0.9121c-0.90959,-0.24867 -0.78069,-1.01607 -0.97108,-2.04789c-0.0995,-0.53926 -0.8378,-1.19396 -0.67434,-1.7919c0.22772,-0.83296 0.54427,-0.61564 1.11773,-1.06481c0.62585,-0.49022 1.79149,-1.04642 2.51423,-0.84884z" fill="url(#color-7)" stroke="#cccccc"/><path d="M227.30419,208.96208c-1.70758,-0.59397 -3.66853,1.1069 -2.19387,-3.1906c-0.52696,-2.90048 0.65533,-4.98442 2.25884,-5.21749c0.88826,-0.12911 2.31341,1.1381 2.92213,1.34983c1.12146,0.39009 0.89398,1.34316 1.04503,2.65567c0.07894,0.68596 0.95053,1.57151 0.69409,2.30872c-0.35722,1.02698 -0.73634,0.72694 -1.49513,1.24224c-0.82812,0.56239 -2.33999,1.16158 -3.23109,0.85162z" fill="url(#color-8)" stroke="#cccccc"/><path d="M266.78075,186.34083c-1.65946,0.24509 -2.54144,2.48627 -3.17486,-1.68144c-1.67939,-2.15895 -1.60233,-4.38066 -0.38375,-5.26119c0.67503,-0.48777 2.39145,-0.05787 2.98301,-0.14524c1.08986,-0.16096 1.31221,0.72055 2.00027,1.73506c0.35961,0.53021 1.45682,0.88406 1.56263,1.6005c0.1474,0.99804 -0.29328,0.91414 -0.69593,1.6639c-0.43944,0.81826 -1.42538,1.96051 -2.29137,2.08842z" fill="url(#color-9)" stroke="#cccccc"/><path d="M270.06971,201.53372c-0.4397,1.05403 0.55792,2.3554 -2.09554,1.26154c-1.84899,0.22156 -3.11787,-0.60346 -3.20363,-1.62343c-0.0475,-0.56501 0.80591,-1.41526 0.96266,-1.791c0.28877,-0.69224 0.88104,-0.51242 1.7144,-0.55757c0.43554,-0.0236 1.02718,-0.53937 1.48224,-0.34954c0.63392,0.26444 0.43025,0.49204 0.72621,0.99016c0.323,0.54363 0.64311,1.5198 0.41366,2.06984z" fill="url(#color-10)" stroke="#cccccc"/><path d="M249.72055,193.28617c0.64242,-1.2866 -0.49972,-3.00671 2.74034,-1.40586c2.34177,-0.12041 3.86538,1.02444 3.88599,2.31314c0.01142,0.71388 -1.13335,1.70913 -1.36235,2.16778c-0.42191,0.84498 -1.1506,0.56849 -2.20139,0.55403c-0.54918,-0.00756 -1.3365,0.58985 -1.89197,0.31251c-0.77379,-0.38636 -0.4985,-0.65489 -0.82776,-1.30595c-0.35935,-0.71054 -0.67811,-1.96422 -0.34287,-2.63564z" fill="url(#color-11)" stroke="#cccccc"/><path d="M240.8403,170.38712c1.89934,-0.95545 2.0686,-4.00342 4.48972,0.75964c2.88021,1.9295 3.67181,4.63364 2.55593,6.17826c-0.61814,0.85564 -2.85469,1.02152 -3.53177,1.36212c-1.24741,0.62749 -1.86584,-0.34477 -3.09763,-1.29169c-0.64377,-0.49489 -2.10493,-0.48396 -2.51743,-1.30396c-0.57463,-1.1423 -0.01095,-1.21676 0.17515,-2.27924c0.2031,-1.15956 0.93486,-2.92653 1.92603,-3.42513z" fill="url(#color-12)" stroke="#cccccc"/><path d="M227.33525,159.41402c0.10957,-1.44337 -1.6089,-2.61228 2.01951,-2.35216c2.13677,-1.00257 3.99205,-0.51486 4.50124,0.67838c0.28206,0.66099 -0.40646,2.02383 -0.44552,2.53836c-0.07196,0.94794 -0.85623,0.96731 -1.84108,1.35334c-0.51471,0.20175 -1.02137,1.0579 -1.64451,1.01059c-0.86807,-0.06589 -0.71359,-0.42084 -1.268,-0.90244c-0.60506,-0.52561 -1.37882,-1.57285 -1.32165,-2.32607z" fill="url(#color-13)" stroke="#cccccc"/><path d="M258.35505,155.23893c-0.26093,1.80392 1.79811,3.4192 -2.73799,2.78249c-2.77002,1.077 -5.05913,0.30582 -5.59689,-1.23672c-0.29789,-0.85449 0.68351,-2.50777 0.77653,-3.15084c0.17137,-1.18474 1.15828,-1.14207 2.4285,-1.54292c0.66385,-0.20949 1.37349,-1.24177 2.1523,-1.12913c1.08492,0.15693 0.86053,0.58964 1.51589,1.24203c0.71524,0.71199 1.59783,2.09371 1.46167,3.03509z" fill="url(#color-14)" stroke="#cccccc"/><g><path d="M277.51057,183.25126c0,4.47398 0.19141,11.56149 -1.16764,15.5476c-2.29235,6.72356 -5.14365,14.78284 -10.58925,18.51709c-2.52051,1.72841 -6.90723,-1.02203 -10.1248,-0.47541c-5.03003,0.85451 -8.98722,4.85292 -14.21016,4.85292c-5.17244,0 -8.71076,-1.62692 -13.18753,-3.71004c-12.88662,-5.99637 -24.76712,-19.86452 -24.76712,-35.4307c0,-5.60533 6.75,-7.66712 8.83524,-12.45641c2.48707,-5.7122 2.35465,-11.71812 6.56798,-15.89192c3.18276,-3.15292 7.63651,-4.26185 12.24536,-5.80693c3.31528,-1.11141 6.59844,-3.12268 10.07323,-3.12268c10.26092,0 20.92524,2.35228 27.53099,9.50451c3.19716,3.46165 3.31645,8.56058 4.72369,13.62238c1.36989,4.92746 4.07002,9.79533 4.07002,14.8496z" fill="url(#color-15)" stroke="#000000"/><path d="M239.3557,207.81805c-9.95798,-5.01193 -12.56637,-17.08012 0.81402,-27.35259c15.75098,-2.28342 11.16049,-17.71354 18.86511,-11.22893c3.35767,2.82599 11.35477,2.72271 14.77389,4.63801c5.26619,2.94998 6.37705,7.36663 4.00738,15.89353c-1.65576,5.95806 7.72415,10.79145 2.91631,16.5353c-8.82595,10.54422 -9.23162,0.73454 -16.68403,6.0699c-5.74392,4.11222 -4.42264,8.66616 -11.01027,7.72925c-9.1136,-1.29617 -10.03959,-10.45097 -13.68243,-12.28446z" fill="url(#color-16)" stroke="#cccccc"/><path d="M243.69696,208.60706c0,11.14812 -9.60712,18.90364 -24.79843,11.56999c-9.12094,-13.04286 -20.83997,-2.00543 -18.51147,-11.80284c1.01477,-4.26972 -2.67281,-11.36661 -2.49914,-15.2818c0.26748,-6.03023 3.71321,-9.0081 12.39514,-10.72493c6.06637,-1.1996 6.16678,-11.75112 13.45891,-10.03887c13.38648,3.14327 4.80644,7.91584 12.92264,12.17398c6.25555,3.28196 9.72929,0.05438 11.85405,6.35994c2.93948,8.72338 -4.82169,13.66629 -4.82169,17.74452z" fill="url(#color-17)" stroke="#cccccc"/><path d="M224.41496,176.38072c-9.73863,-5.42585 -11.83775,-17.59296 1.96238,-27.29425c15.833,-1.61971 11.89479,-17.22905 19.32019,-10.42649c3.236,2.96456 11.23036,3.19732 14.56601,5.25456c5.13761,3.16861 6.06194,7.62804 3.33616,16.04785c-1.9046,5.88324 7.26398,11.10641 2.2191,16.64321c-9.26111,10.16414 -9.25433,0.34607 -16.92429,5.36365c-5.91161,3.86729 -4.7828,8.47272 -11.32526,7.25988c-9.05112,-1.67788 -9.59168,-10.86352 -13.15428,-12.84841z" fill="url(#color-18)" stroke="#cccccc"/><path d="M215.17165,192.4205c0.66667,2.36305 4.08534,3.22352 -1.84609,4.92383c-2.81942,2.84236 -6.05903,3.14673 -7.56555,1.54273c-0.83453,-0.88853 -0.53203,-3.46072 -0.76969,-4.30309c-0.43784,-1.55195 0.80016,-2.03988 2.14397,-3.22877c0.70233,-0.62135 1.01042,-2.28043 2.03062,-2.56825c1.42119,-0.40096 1.38198,0.25449 2.54579,0.69853c1.27016,0.48462 3.11304,1.70187 3.46094,2.93502z" fill="url(#color-19)" stroke="#cccccc"/><path d="M238.49529,190.8288c1.61246,0.44082 3.31472,-1.25119 2.22391,2.80566c0.66803,2.64258 -0.2919,4.63914 -1.75648,4.95472c-0.81131,0.17481 -2.20547,-0.90478 -2.78027,-1.06191c-1.059,-0.28951 -0.90892,-1.18296 -1.13058,-2.38426c-0.11585,-0.62784 -0.97541,-1.39007 -0.7851,-2.08623c0.26513,-0.96977 0.63367,-0.71675 1.30132,-1.2397c0.72865,-0.57074 2.08575,-1.2183 2.9272,-0.98827z" fill="url(#color-20)" stroke="#cccccc"/><path d="M225.21886,213.71918c-1.98806,-0.69153 -4.2711,1.28871 -2.55422,-3.71466c-0.61352,-3.37689 0.76297,-5.80312 2.62986,-6.07448c1.03416,-0.15032 2.69339,1.32504 3.4021,1.57154c1.30567,0.45416 1.04082,1.56377 1.21668,3.09187c0.0919,0.79863 1.10666,1.82963 0.8081,2.68794c-0.4159,1.19566 -0.85729,0.84634 -1.74071,1.44628c-0.96414,0.65476 -2.72434,1.35237 -3.7618,0.9915z" fill="url(#color-21)" stroke="#cccccc"/><path d="M271.17957,187.38232c-1.93203,0.28535 -2.95888,2.89465 -3.69634,-1.95762c-1.95524,-2.51356 -1.86552,-5.1002 -0.44678,-6.12536c0.78591,-0.56789 2.78425,-0.06738 3.47298,-0.1691c1.26887,-0.1874 1.52775,0.83891 2.32882,2.02005c0.41868,0.6173 1.6961,1.02927 1.8193,1.86339c0.17161,1.16197 -0.34145,1.06429 -0.81024,1.9372c-0.51162,0.95266 -1.6595,2.28253 -2.66773,2.43145z" fill="url(#color-22)" stroke="#cccccc"/><path d="M275.00876,205.07069c-0.51192,1.22716 0.64956,2.74228 -2.43974,1.46875c-2.15269,0.25795 -3.62999,-0.70258 -3.72984,-1.89008c-0.0553,-0.65781 0.93828,-1.64772 1.12078,-2.08518c0.3362,-0.80595 1.02576,-0.59659 1.996,-0.64915c0.50708,-0.02748 1.19589,-0.62796 1.7257,-0.40695c0.73804,0.30787 0.50093,0.57286 0.8455,1.15279c0.37606,0.63293 0.74874,1.76944 0.48161,2.40982z" fill="url(#color-23)" stroke="#cccccc"/><path d="M251.31718,195.46845c0.74794,-1.49793 -0.5818,-3.50057 3.19045,-1.63677c2.72641,-0.14019 4.50028,1.19271 4.52427,2.69308c0.0133,0.83113 -1.3195,1.98986 -1.58612,2.52384c-0.49121,0.98377 -1.33959,0.66187 -2.56297,0.64503c-0.63939,-0.0088 -1.55603,0.68674 -2.20274,0.36384c-0.90089,-0.44982 -0.58038,-0.76246 -0.96372,-1.52046c-0.41837,-0.82725 -0.7895,-2.28684 -0.39919,-3.06855z" fill="url(#color-24)" stroke="#cccccc"/><path d="M240.97832,168.80816c2.21132,-1.11238 2.40838,-4.661 5.22717,0.88441c3.3533,2.24642 4.27491,5.39473 2.97575,7.19306c-0.71967,0.99618 -3.32358,1.18931 -4.11187,1.58586c-1.4523,0.73056 -2.17231,-0.4014 -3.60643,-1.50385c-0.74951,-0.57618 -2.45067,-0.56345 -2.93093,-1.51814c-0.66902,-1.32993 -0.01275,-1.41661 0.20392,-2.65361c0.23646,-1.35002 1.08841,-3.40723 2.24239,-3.98772z" fill="url(#color-25)" stroke="#cccccc"/><path d="M225.25502,156.03269c0.12757,-1.68045 -1.87317,-3.04135 2.35122,-2.73851c2.48774,-1.16725 4.64776,-0.59943 5.24058,0.78981c0.32839,0.76956 -0.47322,2.35625 -0.5187,2.95529c-0.08378,1.10364 -0.99687,1.1262 -2.14348,1.57563c-0.59925,0.23489 -1.18913,1.23166 -1.91463,1.17658c-1.01066,-0.07672 -0.83079,-0.48996 -1.47627,-1.05067c-0.70444,-0.61194 -1.6053,-1.8312 -1.53874,-2.70813z" fill="url(#color-26)" stroke="#cccccc"/><path d="M261.36992,151.17183c-0.30379,2.10022 2.09346,3.98081 -3.18771,3.23952c-3.22501,1.2539 -5.89011,0.35605 -6.5162,-1.43985c-0.34682,-0.99484 0.79578,-2.91968 0.90408,-3.66838c0.19952,-1.37933 1.34853,-1.32966 2.82739,-1.79635c0.77289,-0.2439 1.59909,-1.44573 2.50582,-1.31459c1.26312,0.1827 1.00187,0.68649 1.76488,1.44603c0.83272,0.82894 1.86028,2.43761 1.70175,3.53361z" fill="url(#color-27)" stroke="#cccccc"/></g></g></g></svg>