<svg version="1.1" xmlns="http://www.w3.org/2000/svg" xmlns:xlink="http://www.w3.org/1999/xlink" width="140.4073" height="201.05592" viewBox="0,0,140.4073,201.05592"><defs><linearGradient x1="313.38744" y1="51.9756" x2="280.60837" y2="128.19226" gradientUnits="userSpaceOnUse" id="color-1"><stop offset="0" stop-color="#4a4a4a" stop-opacity="0"/><stop offset="1" stop-color="#4a4a4a" stop-opacity="0.22353"/></linearGradient><linearGradient x1="320.70708" y1="51.31536" x2="279.97997" y2="131.26773" gradientUnits="userSpaceOnUse" id="color-2"><stop offset="0" stop-color="#292929" stop-opacity="0"/><stop offset="1" stop-color="#292929" stop-opacity="0.25882"/></linearGradient><linearGradient x1="322.90989" y1="59.23085" x2="278.88939" y2="129.34709" gradientUnits="userSpaceOnUse" id="color-3"><stop offset="0" stop-color="#383838" stop-opacity="0"/><stop offset="1" stop-color="#383838" stop-opacity="0.22745"/></linearGradient><radialGradient cx="297.5703" cy="93.16379" r="35.53768" gradientUnits="userSpaceOnUse" id="color-4"><stop offset="0" stop-color="#4a4a4a" stop-opacity="0"/><stop offset="1" stop-color="#4a4a4a" stop-opacity="0.25098"/></radialGradient><linearGradient x1="234.5053" y1="147.8915" x2="291.71803" y2="177.11565" gradientUnits="userSpaceOnUse" id="color-5"><stop offset="0" stop-color="#fefefe"/><stop offset="1" stop-color="#b6b6b6"/></linearGradient><linearGradient x1="262.48442" y1="120.95066" x2="296.37543" y2="138.26212" gradientUnits="userSpaceOnUse" id="color-6"><stop offset="0" stop-color="#008572"/><stop offset="1" stop-color="#004861"/></linearGradient><linearGradient x1="281.07749" y1="126.38092" x2="277.78236" y2="132.83186" gradientUnits="userSpaceOnUse" id="color-7"><stop offset="0" stop-color="#348317"/><stop offset="1" stop-color="#3c5b0d"/></linearGradient><linearGradient x1="256.60918" y1="132.02358" x2="290.50019" y2="149.33504" gradientUnits="userSpaceOnUse" id="color-8"><stop offset="0" stop-color="#008572"/><stop offset="1" stop-color="#004861"/></linearGradient><linearGradient x1="275.20225" y1="137.45383" x2="271.90713" y2="143.90477" gradientUnits="userSpaceOnUse" id="color-9"><stop offset="0" stop-color="#348317"/><stop offset="1" stop-color="#3c5b0d"/></linearGradient><radialGradient cx="231.55571" cy="201.68744" r="27.13216" gradientUnits="userSpaceOnUse" id="color-10"><stop offset="0" stop-color="#cf50e5"/><stop offset="1" stop-color="#a23dba"/></radialGradient><linearGradient x1="242.27348" y1="190.72123" x2="242.27348" y2="244.98073" gradientUnits="userSpaceOnUse" id="color-11"><stop offset="0" stop-color="#348317"/><stop offset="1" stop-color="#3c5b0d"/></linearGradient><radialGradient cx="261.28017" cy="202.84645" r="27.13216" gradientUnits="userSpaceOnUse" id="color-12"><stop offset="0" stop-color="#cf50e5"/><stop offset="1" stop-color="#a23dba"/></radialGradient><linearGradient x1="272.02022" y1="190.82574" x2="272.02022" y2="245.08524" gradientUnits="userSpaceOnUse" id="color-13"><stop offset="0" stop-color="#348317"/><stop offset="1" stop-color="#3c5b0d"/></linearGradient><linearGradient x1="242.55649" y1="179.70993" x2="242.55649" y2="191.78861" gradientUnits="userSpaceOnUse" id="color-14"><stop offset="0" stop-color="#348317"/><stop offset="1" stop-color="#3c5b0d"/></linearGradient><linearGradient x1="271.36134" y1="179.98948" x2="271.36134" y2="192.06815" gradientUnits="userSpaceOnUse" id="color-15"><stop offset="0" stop-color="#348317"/><stop offset="1" stop-color="#3c5b0d"/></linearGradient><linearGradient x1="186.22599" y1="206.50508" x2="232.84012" y2="206.50508" gradientUnits="userSpaceOnUse" id="color-16"><stop offset="0" stop-color="#c4c4c4"/><stop offset="1" stop-color="#919191"/></linearGradient><linearGradient x1="209.53306" y1="168.71137" x2="209.53306" y2="244.29878" gradientUnits="userSpaceOnUse" id="color-17"><stop offset="0" stop-color="#348317"/><stop offset="1" stop-color="#3c5b0d"/></linearGradient><linearGradient x1="180.476" y1="206.5356" x2="237.59012" y2="206.5356" gradientUnits="userSpaceOnUse" id="color-18"><stop offset="0" stop-color="#d8d8d8"/><stop offset="1" stop-color="#ababab"/></linearGradient><linearGradient x1="209.03307" y1="190.78038" x2="209.03307" y2="222.29081" gradientUnits="userSpaceOnUse" id="color-19"><stop offset="0" stop-color="#348317"/><stop offset="1" stop-color="#3c5b0d"/></linearGradient><linearGradient x1="188.833" y1="179.78592" x2="229.44712" y2="179.78592" gradientUnits="userSpaceOnUse" id="color-20"><stop offset="0" stop-color="#60ff44"/><stop offset="1" stop-color="#acff01"/></linearGradient><linearGradient x1="209.14006" y1="172.35337" x2="209.14006" y2="187.21847" gradientUnits="userSpaceOnUse" id="color-21"><stop offset="0" stop-color="#348317"/><stop offset="1" stop-color="#3c5b0d"/></linearGradient><linearGradient x1="183.226" y1="206.6296" x2="233.59012" y2="206.6296" gradientUnits="userSpaceOnUse" id="color-22"><stop offset="0" stop-color="#60ff44"/><stop offset="1" stop-color="#acff01"/></linearGradient><linearGradient x1="208.40807" y1="199.19704" x2="208.40807" y2="214.06215" gradientUnits="userSpaceOnUse" id="color-23"><stop offset="0" stop-color="#348317"/><stop offset="1" stop-color="#3c5b0d"/></linearGradient><linearGradient x1="188.833" y1="233.23383" x2="229.44712" y2="233.23383" gradientUnits="userSpaceOnUse" id="color-24"><stop offset="0" stop-color="#60ff44"/><stop offset="1" stop-color="#acff01"/></linearGradient><linearGradient x1="209.14006" y1="225.80128" x2="209.14006" y2="240.66638" gradientUnits="userSpaceOnUse" id="color-25"><stop offset="0" stop-color="#348317"/><stop offset="1" stop-color="#3c5b0d"/></linearGradient></defs><g transform="translate(-180.476,-44.03134)"><g data-paper-data="{&quot;isPaintingLayer&quot;:true}" fill-rule="nonzero" stroke-linecap="butt" stroke-linejoin="miter" stroke-miterlimit="10" stroke-dasharray="" stroke-dashoffset="0" style="mix-blend-mode: normal"><path d="M263.68116,115.50294l-0.02029,-0.02997l0.01444,-0.07546c-0.01461,-0.40607 0.06099,-0.83132 0.23779,-1.24242l0.34576,-0.80397l0.18752,-0.26132l0.1277,-0.29692l0.23119,-0.32217l0.76673,-1.78281l0.29044,-1.00657l0.09004,-0.16604l0.03523,-0.18404l0.00923,-0.02146l0.00796,-0.07883l-0.03595,-0.336l0.04333,-0.35934l-0.01713,-1.72463l0.0396,-0.18346l-0.01937,-0.18105l0.08921,-0.73981l-0.03398,-0.26649l0.03472,-0.3436l-0.03595,-0.33599l0.1961,-1.62622l0.13998,-0.39762l0.07867,-0.41106l0.07976,-0.18547l0.07427,-0.38808l0.1277,-0.29691l0.06025,-0.31479l0.03914,-0.09098l0.01506,-0.12481l0.13996,-0.39762l0.07867,-0.41106l1.31392,-3.05509l0.18752,-0.26132l0.12771,-0.29692l0.23119,-0.32218l0.28722,-0.66784l0.18751,-0.26132l0.12771,-0.29692l0.38246,-0.53298l0.45372,-0.69217l0.1169,-0.11353l0.07568,-0.14762l0.59589,-0.72056l0.39852,-0.60797l0.1169,-0.11353l0.07568,-0.14762l0.56902,-0.68808l0.44925,-0.72995l0.26905,-0.27708l0.22035,-0.32271l0.66638,-0.62242l0.62116,-0.8135l0.18384,-0.15371l0.1381,-0.20224l2.38995,-2.23224l1.28039,-1.54829l0.2224,-0.17116l0.17763,-0.22539l0.61292,-0.4961l0.48937,-0.5318l0.16913,-0.11588l0.13061,-0.16574l0.77206,-0.62491l0.11763,-0.0563l0.0936,-0.09844l0.42401,-0.27996l1.02784,-1.11699l0.08864,-0.06072l0.06259,-0.09167l2.95076,-2.75606l0.81301,-0.9831l0.94526,-1.49212l0.15583,-0.15625l0.10704,-0.19708l1.10803,-1.27553l0.74368,-1.40784l0.09136,-0.10773l0.0508,-0.13322l0.95259,-1.45326l1.03115,-1.67548l0.94214,-1.83762l2.39225,-5.56238l0.38271,-1.20071l0.22797,-1.19113l0.19302,-1.20219l0.01653,-0.04174l-0.0015,-0.04361l0.1013,-0.52933l0.04994,-0.7488l0.02225,-0.0755l-0.00809,-0.07564l0.0892,-0.73981l-0.03397,-0.26651l0.01853,-0.18338l-0.03071,-0.02199l-0.03458,-0.32322l-0.1212,-0.28903l0.07016,-0.18795l-0.0531,-0.49627l0.00863,-0.07164l-0.00034,-0.00422l-0.08758,-0.22758l-0.07673,-0.60177l0.03473,-0.3436l-0.02194,-0.20506l-0.13098,-0.39589l-0.03329,-0.40651l-0.09639,-0.38805l-0.00378,-0.38128l0.02183,-0.10111l-0.16833,-0.40142l0.04577,-0.12263l-0.04895,-0.19708l-0.00379,-0.38128l0.28359,-1.31358l0.56216,-0.41507l0.31716,-0.64824l1.18198,-0.45863l0.19869,-0.02328l0.022,-0.01853l0.06662,0.00814l0.06605,-0.00774l0.52979,0.08059l0.53294,0.06517l0.05939,0.02495l0.06622,0.01008l0.01346,0.0234l3.57947,1.50358l1.18946,0.33213l1.02858,0.24849l0.14491,0.08199l0.16695,0.02041l0.73228,0.30759l0.352,0.04305l0.2624,0.11021l0.28553,0.03492l0.2842,0.11936l0.22358,0.17894l0.2624,0.11021l0.49923,0.39955l0.15334,0.21202l0.20436,0.15387l0.23988,0.31252l0.16712,0.01644l0.16626,0.2581l0.23337,0.18677l0.01199,0.19411l0.2543,0.39477l0.13648,0.12989l0.1658,0.27385l0.22151,0.22097l0.28798,0.50065l0.06636,0.23775l0.12889,0.20006l0.06928,0.2094l0.16934,0.29441l0.06636,0.23775l0.12889,0.20006l0.14589,0.44096l0.02063,0.25187l0.08758,0.22758l0.01289,0.10106l0.04838,0.08409l0.06636,0.23775l0.12888,0.20005l0.14588,0.44097l0.02063,0.25188l0.0876,0.22758l0.1446,1.13403l0.43655,2.39827l-0.01702,0.33921l0.05372,0.32723l-0.03889,0.58318l0.09029,0.496l-0.01702,0.33921l0.05371,0.32722l-0.05444,0.81637l0.00554,0.55794l0.07255,0.88592l-0.04094,0.28282l0.02965,0.27703l-0.04333,0.35934l0.00577,0.58078l-0.0606,0.28069l0.00966,0.28077l-0.6538,3.41613l-0.05346,0.44331l-0.03414,0.09699l0.00344,0.09996l-0.25024,1.30754l-0.05346,0.44332l-0.13998,0.39761l-0.07867,0.41106l-0.14892,0.34624l-0.07427,0.38808l-0.02529,0.05881l-0.0006,0.06249l-0.20368,0.86367l-0.01884,0.03918l-0.00167,0.04253l-0.20011,0.75137l-0.04304,0.64534l-0.06844,0.23227l-0.00232,0.23713l-0.20368,0.86365l-0.01883,0.0392l-0.00168,0.04253l-0.22004,0.82624l-0.10641,0.8824l-0.06907,0.1962l-0.00804,0.20376l-0.22004,0.82623l-0.10641,0.8824l-0.05502,0.15629l-0.00158,0.16195l-0.16637,0.70549l-0.11144,0.92407l-0.03414,0.09698l0.00343,0.09998l-0.10131,0.52933l-0.02726,0.40864l0.32549,1.78809l0.20624,0.41207l0.06836,0.30904l0.13531,0.27571l0.19373,0.90744l1.06923,3.23201l0.28397,0.56739l0.07663,0.34641l0.14219,0.31504l0.11777,0.64694l0.30972,0.93622l0.02064,0.25188l0.08758,0.22758l0.02206,0.17294l0.17544,0.35055l0.09126,0.41253l0.14889,0.38687l0.15345,1.20353l-0.01643,0.16256l0.03788,0.15253l0.00529,0.53194l0.10919,0.59982l-0.01171,0.23363l0.05449,0.21941l0.00757,0.76256l-0.02334,0.10815l0.01727,0.10521l-0.05444,0.81636l0.01408,1.41873l-0.02334,0.10815l0.01727,0.10522l-0.05444,0.81637l0.00651,0.65617l-0.02334,0.10815l0.01727,0.10521l-0.06158,0.92335l-0.0509,0.17272l0.00603,0.17539l-0.0617,0.32236l0.0497,0.60673l-0.04094,0.28283l0.02966,0.27702l-0.13074,1.08415l-0.06906,0.19619l-0.00804,0.20376l-0.19179,0.72017l-0.04408,0.99513l-0.09625,0.35477l-0.02782,0.36163l-0.35214,1.15289l-0.16812,1.04711l-0.06686,0.16893l-0.01082,0.17801l-0.67554,2.34126l-0.265,0.99508l-0.10064,0.19499l-0.0409,0.21373l-1.52139,3.53748l-0.15173,0.21144l-0.0931,0.2442l-0.48786,0.74428l-0.1169,0.11353l-0.07569,0.14763l-0.43005,0.52003l-0.17744,0.41258l-0.06127,0.08539l0.00086,0.08667l-0.38153,0.44382l-0.34313,0.47816l-0.08014,0.01421l-0.06815,0.07926l-0.13736,0.10143l-0.15485,0.2158l-0.32828,0.29209l-0.28985,0.33718l-0.21774,0.16077l-0.1275,0.15418l-0.26974,0.20758l-0.22623,0.26316l-0.36431,0.26899l-0.1633,0.15253l-0.34958,0.20072l-0.31926,0.2584l-1.89063,0.90488l-0.65343,0.48245l-0.4437,0.41442l-0.17755,0.10194l-0.05757,0.11768l-0.2158,0.08372l-0.04074,0.05967l-0.05241,0.04895l-0.04376,0.06097l-0.02657,0.00471l-0.9989,0.93298l-0.17755,0.10194l-0.05757,0.11767l-0.45461,0.17639l-0.16276,0.09345l-0.01638,0.03348l-0.12932,0.05019l-0.12262,0.0704l-0.03102,-0.01079l-0.17165,0.06661l-0.16276,0.09345l-0.01637,0.03347l-0.12932,0.05019l-0.12263,0.07041l-0.03102,-0.01079l-0.17165,0.06661l-0.43108,0.2475l-0.10904,-0.03794l-0.18725,0.07265l-0.35334,0.0414l-0.16596,-0.02524l-0.16951,0.03883l-0.99089,-0.03654l-0.28971,-0.09299l-0.01237,0.00145l-0.52978,-0.08061l-0.53294,-0.06517l-0.05939,-0.02495l-0.06623,-0.01007l-0.01346,-0.0234l-0.07616,-0.032l-0.40974,-0.07235l-0.34913,-0.01288l-0.35441,-0.11377l-0.37284,-0.04559l-0.6488,-0.27253l-0.11407,-0.00421l-0.35441,-0.11377l-0.37284,-0.04559l-0.08041,-0.03377l-0.11407,-0.00421l-0.08645,-0.02775l-0.09288,0.01353l-0.63754,-0.07796l-0.2624,-0.11021l-0.28554,-0.03491l-0.50669,-0.21283l-0.11407,-0.00422l-0.08644,-0.02776l-0.09289,0.01354l-0.63754,-0.07795l-0.26239,-0.11022l-0.28553,-0.03492l-1.20989,-0.50823l-0.55254,-0.09756l-0.20713,-0.1005l-0.23102,-0.02824l-17.47778,-7.34168l-0.29195,-0.23366l-0.32883,-0.17324l-0.71427,-0.67973l-0.0355,-0.05862l-0.13017,-0.05468l-0.02638,0.00666l-0.0533,-0.04013l-0.05939,-0.02495l-0.41732,-0.334l-0.42637,-0.32104l-0.0402,-0.05236l-0.05216,-0.04175l-0.00177,-0.02851l-0.12093,-0.15754l-0.48613,-1.15933l0.45101,-1.20824l-0.00027,-0.00446l0.00283,-0.00239l0.28118,-0.75326c-0.44801,-0.39392 -0.71747,-0.97356 -0.76508,-1.60816z" fill="url(#color-1)" stroke="none" stroke-width="0.5"/><path d="M262.7908,116.00982l-0.01951,-0.03433l0.02103,-0.08073c0.01434,-0.44242 0.12667,-0.89785 0.34635,-1.32909l0.42961,-0.84338l0.2201,-0.26759l0.15866,-0.31147l0.27134,-0.3299l0.95265,-1.87018l0.38531,-1.0683l0.10869,-0.17257l0.05131,-0.19689l0.01146,-0.02251l0.01435,-0.08495l-0.01369,-0.36816l0.07293,-0.38662l0.10898,-1.87514l0.05594,-0.19585l-0.00739,-0.19838l0.15014,-0.79598l-0.01671,-0.29248l0.06255,-0.37028l-0.0137,-0.36817l0.33004,-1.74969l0.17925,-0.41981l0.11459,-0.43973l0.09911,-0.19456l0.10818,-0.41515l0.15866,-0.31147l0.08776,-0.33675l0.04862,-0.09545l0.02533,-0.13428l0.17924,-0.4198l0.11459,-0.43973l1.63253,-3.20484l0.2201,-0.26759l0.15866,-0.31147l0.27135,-0.32989l0.35687,-0.70058l0.22009,-0.2676l0.15866,-0.31147l0.4489,-0.54579l0.53695,-0.71254l0.13355,-0.11317l0.09194,-0.15379l0.69128,-0.73101l0.47162,-0.62585l0.13355,-0.11317l0.09194,-0.15379l0.66011,-0.69805l0.53496,-0.75397l0.30857,-0.27764l0.25976,-0.33142l0.75953,-0.61824l0.72519,-0.82979l0.20822,-0.15101l0.1628,-0.20773l2.724,-2.2173l1.48538,-1.57074l0.25078,-0.16661l0.20686,-0.22943l0.69295,-0.48568l0.56327,-0.5352l0.18967,-0.11119l0.15208,-0.16869l0.87286,-0.61177l0.13011,-0.05093l0.10751,-0.09882l0.4747,-0.26728l1.1831,-1.12413l0.0994,-0.05826l0.07379,-0.09415l3.36319,-2.7376l0.94315,-0.99736l1.12236,-1.53884l0.17841,-0.15621l0.12917,-0.2048l1.28066,-1.28939l0.90028,-1.46483l0.10579,-0.10908l0.06422,-0.14031l1.12733,-1.49601l1.22787,-1.73059l1.14453,-1.9145l2.97232,-5.83503l0.49846,-1.27118l0.33205,-1.27424l0.29545,-1.2893l0.02077,-0.04391l0.00162,-0.04751l0.14756,-0.56625l0.10875,-0.80917l0.0294,-0.08009l-0.00308,-0.08288l0.15014,-0.79598l-0.01671,-0.29248l0.03339,-0.19763l-0.03126,-0.02655l-0.01317,-0.35416l-0.10844,-0.32455l0.089,-0.19808l-0.02023,-0.54377l0.01454,-0.07708l-0.00007,-0.0046l-0.07699,-0.25487l-0.03774,-0.66043l0.06255,-0.37028l-0.00836,-0.22468l-0.11102,-0.44149l-0.00564,-0.44453l-0.07455,-0.42996l0.0241,-0.41455l0.03084,-0.10795l-0.1506,-0.45076l0.05807,-0.12924l-0.03787,-0.21838l0.02409,-0.41456l0.40065,-1.40243l0.63263,-0.40206l0.38747,-0.67668l1.29955,-0.39547l0.21448,-0.00803l0.02492,-0.01822l0.07073,0.01465l0.0713,-0.00267l0.56135,0.13364l0.56586,0.11716l0.06175,0.03227l0.07016,0.0167l0.01268,0.02658l3.72195,1.94479l1.24918,0.46427l1.08306,0.35943l0.14913,0.10166l0.17726,0.03669l0.76142,0.39786l0.37376,0.07738l0.27283,0.14257l0.30318,0.06276l0.2955,0.15441l0.22621,0.21385l0.27283,0.14257l0.50508,0.47749l0.14856,0.24366l0.20747,0.18494l0.23379,0.3604l0.17774,0.0324l0.15899,0.29486l0.23611,0.22321l-0.00149,0.21191l0.24318,0.45098l0.13656,0.15298l0.15733,0.31193l0.22088,0.25934l0.27141,0.56897l0.05351,0.26406l0.12324,0.22855l0.05873,0.23352l0.1596,0.33458l0.0535,0.26406l0.12325,0.22856l0.12366,0.49176l0.0035,0.27543l0.07699,0.25487l0.00634,0.11092l0.04558,0.09555l0.05351,0.26406l0.12324,0.22855l0.12365,0.49176l0.0035,0.27543l0.07699,0.25486l0.07111,1.24461l0.29041,2.64347l-0.04326,0.36704l0.03335,0.36017l-0.0847,0.6302l0.06006,0.54671l-0.04326,0.36704l0.03335,0.36017l-0.11857,0.8822l-0.03525,0.60663l0.01229,0.96878l-0.06472,0.30371l0.01129,0.30355l-0.07293,0.38662l-0.03669,0.63147l-0.08561,0.29967l-0.01038,0.30588l-0.95231,3.65448l-0.08997,0.47698l-0.04373,0.10239l-0.0037,0.10891l-0.36449,1.39876l-0.08997,0.47698l-0.17924,0.4198l-0.11459,0.43973l-0.18502,0.36322l-0.10818,0.41515l-0.03143,0.0617l-0.00526,0.06784l-0.28186,0.92058l-0.02307,0.04093l-0.00493,0.04605l-0.26975,0.79889l-0.09373,0.69735l-0.09043,0.24641l-0.01998,0.25741l-0.28186,0.92058l-0.02306,0.04093l-0.00493,0.04605l-0.29663,0.87851l-0.17908,0.9494l-0.08845,0.20714l-0.02365,0.22066l-0.29663,0.87851l-0.17908,0.9494l-0.07046,0.16502l-0.01365,0.17582l-0.23024,0.75198l-0.18755,0.99423l-0.04373,0.10239l-0.0037,0.10891l-0.14756,0.56625l-0.05935,0.44158l0.21653,1.97091l0.19042,0.46563l0.05039,0.34169l0.12452,0.31132l0.14045,1.00271l0.90635,3.60429l0.26219,0.64111l0.05649,0.38301l0.129,0.35464l0.07834,0.71308l0.26254,1.04405l0.00351,0.27544l0.07699,0.25487l0.01085,0.1898l0.16199,0.39611l0.06726,0.45613l0.13087,0.43325l0.07548,1.32087l-0.02959,0.17517l0.02931,0.16902l-0.03361,0.57835l0.07263,0.66115l-0.0298,0.25281l0.04216,0.24313l-0.04819,0.82911l-0.03299,0.11547l0.01073,0.11581l-0.11857,0.88219l-0.08965,1.54255l-0.03299,0.11547l0.01073,0.11581l-0.11857,0.8822l-0.04146,0.71344l-0.03299,0.11547l0.01073,0.11581l-0.1341,0.99778l-0.06725,0.18321l-0.00648,0.19105l-0.08987,0.34486l0.00843,0.66349l-0.06472,0.30371l0.01129,0.30355l-0.22003,1.16646l-0.08845,0.20714l-0.02365,0.22066l-0.25854,0.76572l-0.12067,1.07729l-0.12926,0.37707l-0.05649,0.39047l-0.4622,1.2219l-0.25733,1.12297l-0.08406,0.17773l-0.02474,0.19246l-0.89621,2.48484l-0.35724,1.05803l-0.12215,0.20308l-0.05958,0.22863l-1.89029,3.71088l-0.17807,0.2165l-0.11772,0.2572l-0.57736,0.76618l-0.13355,0.11317l-0.09194,0.15379l-0.49889,0.52756l-0.22046,0.4328l-0.07193,0.08745l-0.00548,0.09421l-0.44132,0.44899l-0.40273,0.48964l-0.08687,0.00847l-0.07883,0.08019l-0.15458,0.09824l-0.18175,0.22098l-0.3731,0.28879l-0.33528,0.3411l-0.24502,0.15572l-0.14793,0.15642l-0.30416,0.20206l-0.26169,0.26624l-0.40997,0.26054l-0.18612,0.15149l-0.38917,0.18766l-0.36096,0.25298l-2.09132,0.81866l-0.73532,0.46732l-0.50572,0.41165l-0.19765,0.09532l-0.07034,0.12282l-0.23725,0.0722l-0.04803,0.06128l-0.05974,0.04862l-0.05135,0.06244l-0.0288,0.0028l-1.1385,0.92673l-0.19765,0.09532l-0.07034,0.12282l-0.49983,0.15211l-0.18119,0.08737l-0.02001,0.03494l-0.14218,0.04327l-0.13651,0.06583l-0.03243,-0.01441l-0.18872,0.05744l-0.18119,0.08737l-0.02001,0.03494l-0.14218,0.04327l-0.13651,0.06583l-0.03243,-0.01441l-0.18872,0.05744l-0.47988,0.23141l-0.11396,-0.05069l-0.20587,0.06265l-0.38143,0.01428l-0.17584,-0.04185l-0.18438,0.02745l-1.05835,-0.12587l-0.30336,-0.12622l-0.01335,0.0005l-0.56135,-0.13364l-0.56585,-0.11715l-0.06175,-0.03227l-0.07017,-0.0167l-0.01268,-0.02658l-0.0792,-0.04137l-0.43342,-0.11423l-0.37291,-0.04434l-0.37111,-0.15442l-0.39588,-0.08195l-0.67461,-0.3525l-0.12184,-0.01449l-0.37111,-0.15442l-0.39588,-0.08195l-0.0836,-0.04369l-0.12184,-0.01449l-0.09052,-0.03766l-0.10046,0.00661l-0.67693,-0.14014l-0.27283,-0.14257l-0.30318,-0.06276l-0.52686,-0.2753l-0.12185,-0.01449l-0.09052,-0.03767l-0.10046,0.00661l-0.67693,-0.14014l-0.27283,-0.14257l-0.30318,-0.06276l-1.25807,-0.65736l-0.58446,-0.15404l-0.21438,-0.1272l-0.24529,-0.05077l-18.17352,-9.49602l-0.29538,-0.27924l-0.33933,-0.2168l-0.71466,-0.80058l-0.03368,-0.06677l-0.13535,-0.07072l-0.02874,0.00494l-0.0541,-0.04824l-0.06175,-0.03227l-0.42221,-0.39915l-0.43287,-0.38587l-0.03918,-0.06039l-0.05278,-0.0499l0.00023,-0.03114l-0.11785,-0.18168l-0.43497,-1.30179l0.57216,-1.27343l0.00005,-0.00489l0.00321,-0.00235l0.35671,-0.79391c-0.45067,-0.46693 -0.6964,-1.12009 -0.70054,-1.81367z" fill="url(#color-2)" stroke="none" stroke-width="0.5"/><path d="M264.55834,113.41725l-0.0148,-0.03389l0.02615,-0.07285c0.05141,-0.40955 0.19319,-0.82117 0.43063,-1.19935l0.46435,-0.73961l0.22363,-0.22611l0.17149,-0.27316l0.27571,-0.27876l1.02969,-1.6401l0.4435,-0.95308l0.11394,-0.14922l0.06379,-0.17767l0.01239,-0.01974l0.02044,-0.07746l0.01945,-0.34342l0.09993,-0.35172l0.2618,-1.73088l0.06794,-0.17625l0.01048,-0.18506l0.20574,-0.72412l0.01013,-0.27341l0.08907,-0.33761l0.01944,-0.34341l0.45225,-1.59174l0.19963,-0.37169l0.14247,-0.3968l0.10712,-0.17062l0.13452,-0.37463l0.17149,-0.27316l0.10911,-0.30388l0.05255,-0.08371l0.03471,-0.12216l0.19962,-0.37169l0.14247,-0.3968l1.76454,-2.81057l0.22363,-0.22611l0.17149,-0.27316l0.27571,-0.27876l0.38573,-0.61439l0.22362,-0.22612l0.17149,-0.27316l0.45612,-0.46118l0.55076,-0.60712l0.13143,-0.09149l0.09707,-0.13348l0.69291,-0.60851l0.48375,-0.53325l0.13143,-0.09149l0.09707,-0.13348l0.66166,-0.58109l0.55253,-0.64581l0.30508,-0.22641l0.26529,-0.28137l0.74529,-0.49679l0.73235,-0.69681l0.20271,-0.11903l0.16627,-0.17634l2.67291,-1.7817l1.48886,-1.30752l0.24283,-0.12917l0.20826,-0.192l0.67315,-0.38041l0.55937,-0.43969l0.18236,-0.0839l0.15312,-0.14118l0.84794,-0.47919l0.12291,-0.03403l0.10647,-0.08082l0.45546,-0.19982l1.17488,-0.92349l0.09557,-0.04397l0.07536,-0.07992l3.30011,-2.19977l0.94538,-0.83022l1.15551,-1.31496l0.17601,-0.12689l0.13538,-0.17707l1.27806,-1.06707l0.94686,-1.26888l0.10579,-0.09054l0.07066,-0.1238l1.15633,-1.27466l1.26822,-1.48231l1.20826,-1.66167l3.21267,-5.11718l0.56414,-1.13002l0.41286,-1.14986l0.38082,-1.16758l0.02272,-0.03867l0.00558,-0.04396l0.18347,-0.51099l0.16919,-0.7406l0.03372,-0.0714l0.00437,-0.07731l0.20573,-0.72412l0.01014,-0.27342l0.04754,-0.18018l-0.02616,-0.02786l0.0187,-0.33034l-0.07062,-0.31259l0.09823,-0.17493l0.02872,-0.50723l0.01993,-0.07013l0.00035,-0.00428l-0.04801,-0.24463l0.02289,-0.6174l0.08906,-0.3376l0.01187,-0.20958l-0.06283,-0.42148l0.03341,-0.41354l-0.03063,-0.40704l0.05788,-0.38265l0.03745,-0.09715l-0.09808,-0.43412l0.06408,-0.11414l-0.01555,-0.20674l0.05788,-0.38266l0.48645,-1.26194l0.61098,-0.30891l0.41153,-0.58907l1.21775,-0.23468l0.19603,0.01444l0.02427,-0.01438l0.06314,0.02084l0.06516,0.0048l0.49963,0.18147l0.50517,0.16662l0.05344,0.03629l0.06245,0.02268l0.00925,0.02599l3.22091,2.18678l1.09734,0.55887l0.95517,0.4445l0.12699,0.10966l0.15824,0.05219l0.65893,0.44737l0.33367,0.11005l0.23611,0.1603l0.27065,0.08927l0.25572,0.17362l0.18746,0.22177l0.23611,0.1603l0.41857,0.49517l0.11417,0.24154l0.17291,0.193l0.18167,0.35868l0.15906,0.04824l0.11922,0.29016l0.19567,0.23147l-0.01972,0.19672l0.18236,0.44379l0.1111,0.15606l0.11624,0.30585l0.17867,0.26347l0.19784,0.55629l0.02583,0.25077l0.09242,0.22491l0.03323,0.22294l0.11634,0.32713l0.02583,0.25077l0.09242,0.22491l0.06999,0.46947l-0.02069,0.25624l0.04801,0.24463l-0.00384,0.10369l0.03324,0.09342l0.02583,0.25077l0.09242,0.2249l0.06999,0.46948l-0.02069,0.25624l0.04802,0.24463l-0.04313,1.16348l0.0353,2.48544l-0.07121,0.33655l-0.00085,0.33801l-0.13176,0.57679l0.0073,0.51402l-0.07121,0.33655l-0.00084,0.33799l-0.18445,0.80744l-0.08469,0.55995l-0.0728,0.90125l-0.08526,0.27552l-0.01603,0.28315l-0.09993,0.35173l-0.08816,0.58289l-0.10395,0.26965l-0.03597,0.28309l-1.18406,3.29774l-0.12329,0.43392l-0.0487,0.09067l-0.01281,0.1008l-0.4532,1.26222l-0.12329,0.43392l-0.19963,0.37169l-0.14248,0.39681l-0.19999,0.31854l-0.13451,0.37463l-0.03397,0.0541l-0.01067,0.06249l-0.33649,0.82643l-0.02455,0.03566l-0.00849,0.04229l-0.31491,0.71463l-0.14581,0.63827l-0.10372,0.21967l-0.04051,0.23708l-0.33649,0.82642l-0.02454,0.03567l-0.0085,0.04228l-0.34629,0.78583l-0.24539,0.86369l-0.09851,0.18341l-0.04067,0.2026l-0.34629,0.78583l-0.24539,0.86369l-0.07847,0.1461l-0.02767,0.16194l-0.27486,0.67507l-0.25698,0.90448l-0.0487,0.09067l-0.01281,0.1008l-0.18347,0.51099l-0.09233,0.40417l0.02633,1.85308l0.13305,0.452l0.01627,0.32257l0.08642,0.30193l0.04099,0.94585l0.51293,3.44091l0.18319,0.62237l0.01823,0.36159l0.08674,0.34262l0.00952,0.67045l0.14858,0.99672l-0.02069,0.25624l0.04801,0.24463l-0.00658,0.17744l0.11319,0.38453l0.02172,0.43061l0.08162,0.41584l-0.04577,1.23479l-0.04214,0.15972l0.01204,0.16001l-0.08075,0.53386l0.00883,0.62163l-0.04904,0.2318l0.01731,0.23016l-0.11576,0.76531l-0.04005,0.10391l-0.00028,0.10868l-0.18445,0.80743l-0.21537,1.42387l-0.04005,0.10391l-0.00028,0.10868l-0.18445,0.80744l-0.09961,0.65855l-0.04005,0.10391l-0.00027,0.10867l-0.20863,0.91325l-0.07713,0.16334l-0.02247,0.17683l-0.11174,0.3112l-0.04985,0.61723l-0.08526,0.27552l-0.01602,0.28314l-0.3015,1.06116l-0.09851,0.1834l-0.04067,0.2026l-0.30183,0.68495l-0.20328,0.98846l-0.1504,0.3371l-0.0853,0.35698l-0.52684,1.08794l-0.3317,1.01696l-0.09195,0.15652l-0.03921,0.17627l-1.03157,2.21688l-0.41704,0.94641l-0.12885,0.17618l-0.07408,0.20631l-2.04314,3.25434l-0.18094,0.18296l-0.12951,0.22693l-0.59221,0.65282l-0.13143,0.09149l-0.09707,0.13348l-0.50006,0.43915l-0.23829,0.37956l-0.07309,0.0739l-0.01316,0.08696l-0.44081,0.37204l-0.40921,0.41375l-0.07984,-0.00101l-0.07873,0.06644l-0.14928,0.07547l-0.18468,0.18673l-0.36481,0.23018l-0.3349,0.28266l-0.23664,0.11965l-0.14827,0.13021l-0.29451,0.15666l-0.26138,0.22061l-0.39594,0.20018l-0.18263,0.12174l-0.37067,0.13459l-0.35064,0.19815l-1.9755,0.54697l-0.71015,0.35905l-0.49623,0.33078l-0.18827,0.06836l-0.0747,0.10693l-0.22232,0.04285l-0.04905,0.05202l-0.05862,0.03907l-0.05218,0.05275l-0.02647,-0.00033l-1.11714,0.74466l-0.18827,0.06836l-0.0747,0.10692l-0.46837,0.09026l-0.17258,0.06267l-0.02125,0.03041l-0.13323,0.02567l-0.13002,0.04721l-0.02827,-0.0167l-0.17684,0.03408l-0.17258,0.06267l-0.02125,0.03041l-0.13323,0.02567l-0.13002,0.04721l-0.02827,-0.0167l-0.17684,0.03408l-0.45709,0.16597l-0.0994,-0.05872l-0.19291,0.03718l-0.34859,-0.02568l-0.15651,-0.05684l-0.17029,0.00667l-0.95291,-0.22501l-0.26532,-0.14824l-0.0122,-0.0009l-0.49963,-0.18147l-0.50516,-0.16662l-0.05344,-0.03629l-0.06246,-0.02268l-0.00925,-0.02599l-0.06854,-0.04654l-0.38481,-0.15037l-0.33575,-0.07928l-0.32457,-0.18136l-0.35341,-0.11656l-0.5838,-0.39636l-0.1097,-0.0259l-0.32457,-0.18136l-0.35341,-0.11656l-0.07235,-0.04912l-0.1097,-0.0259l-0.07917,-0.04424l-0.09207,-0.0041l-0.60432,-0.19931l-0.23611,-0.1603l-0.27065,-0.08927l-0.45593,-0.30955l-0.1097,-0.0259l-0.07917,-0.04424l-0.09207,-0.0041l-0.60432,-0.19931l-0.23611,-0.1603l-0.27065,-0.08927l-1.0887,-0.73917l-0.51891,-0.20278l-0.1842,-0.14007l-0.21898,-0.07222l-15.72699,-10.67761l-0.24479,-0.28957l-0.29023,-0.23605l-0.58143,-0.81672l-0.02488,-0.06547l-0.11713,-0.07952l-0.0266,0.00166l-0.04509,-0.05033l-0.05344,-0.03629l-0.3499,-0.41393l-0.36076,-0.40266l-0.03044,-0.06011l-0.04374,-0.05174l0.0029,-0.0289l-0.09157,-0.18082l-0.28326,-1.25378l0.63145,-1.12457l0.00045,-0.00452l0.00313,-0.00186l0.39367,-0.70111c-0.36993,-0.47979 -0.5371,-1.11167 -0.48073,-1.75642z" fill="url(#color-3)" stroke="none" stroke-width="0.5"/><path d="M266.14665,114.84812l-0.01695,-0.02906l0.01729,-0.06901c0.00855,-0.37717 0.10068,-0.7664 0.28468,-1.13608l0.35984,-0.72297l0.18573,-0.23021l0.13289,-0.267l0.22897,-0.28382l0.79792,-1.60316l0.32012,-0.9142l0.09137,-0.14812l0.04216,-0.16829l0.0096,-0.01929l0.01155,-0.07255l-0.01476,-0.31362l0.05905,-0.3302l0.07741,-1.5991l0.04615,-0.16746l-0.00795,-0.169l0.12158,-0.67983l-0.01672,-0.24908l0.05032,-0.31618l-0.01477,-0.3136l0.26724,-1.49436l0.14957,-0.35953l0.09418,-0.37585l0.08301,-0.16678l0.08892,-0.35487l0.13289,-0.26699l0.07212,-0.28785l0.04073,-0.08182l0.02051,-0.11469l0.14956,-0.35952l0.09419,-0.37586l1.36738,-2.74727l0.18573,-0.23021l0.13289,-0.267l0.22897,-0.28382l0.29891,-0.60054l0.18572,-0.23023l0.13289,-0.267l0.37879,-0.46952l0.45259,-0.61252l0.11311,-0.09775l0.07723,-0.13198l0.58424,-0.62978l0.39753,-0.53799l0.11312,-0.09776l0.07723,-0.13196l0.55788,-0.60138l0.45054,-0.6478l0.26119,-0.23963l0.21907,-0.285l0.64346,-0.53435l0.61237,-0.71429l0.17656,-0.13074l0.1373,-0.17862l2.30773,-1.91641l1.25536,-1.35322l0.21277,-0.14447l0.17473,-0.19756l0.58771,-0.42071l0.47656,-0.46164l0.16104,-0.09661l0.12847,-0.14525l0.7403,-0.52994l0.11068,-0.04469l0.09098,-0.08527l0.40315,-0.23246l1.00096,-0.96964l0.08439,-0.05062l0.06223,-0.08096l2.84924,-2.36611l0.79711,-0.85924l0.94561,-1.32246l0.15106,-0.13487l0.10859,-0.17581l1.0829,-1.11144l0.75659,-1.2572l0.08942,-0.094l0.05368,-0.12021l0.95023,-1.28602l1.03413,-1.48692l0.96141,-1.64281l2.48958,-5.00193l0.41506,-1.08822l0.27293,-1.0892l0.24154,-1.10168l0.01737,-0.03762l0.00099,-0.0405l0.12129,-0.48403l0.08612,-0.69065l0.02444,-0.06854l-0.00332,-0.07061l0.12157,-0.67982l-0.01671,-0.24909l0.02687,-0.16875l-0.02692,-0.02232l-0.01421,-0.30169l-0.09532,-0.27552l0.07434,-0.16968l-0.02181,-0.46323l0.01177,-0.06583l-0.00009,-0.00393l-0.06787,-0.21645l-0.03774,-0.56246l0.05032,-0.31618l-0.00901,-0.19139l-0.09849,-0.37515l-0.00852,-0.37879l-0.06726,-0.36569l0.01711,-0.35353l0.02544,-0.09231l-0.13237,-0.38266l0.04851,-0.11071l-0.03416,-0.18574l0.0171,-0.35353l0.33044,-1.1991l0.5369,-0.34886l0.32524,-0.5805l1.10648,-0.34981l0.18309,-0.00894l0.02112,-0.01577l0.06053,0.01178l0.06086,-0.00298l0.48051,0.10836l0.48421,0.09427l0.05301,0.02688l0.06006,0.01355l0.01105,0.02253l3.19471,1.62079l1.07065,0.38337l0.92791,0.29565l0.1282,0.08518l0.15168,0.02953l0.65357,0.33157l0.31983,0.06226l0.23418,0.11882l0.25942,0.0505l0.25365,0.12868l0.19496,0.18002l0.23418,0.11882l0.43532,0.40196l0.1289,0.20618l0.17872,0.15556l0.20266,0.30484l0.15206,0.02586l0.13824,0.24971l0.20349,0.1879l0.0005,0.18061l0.21143,0.38194l0.1179,0.12903l0.13696,0.26428l0.19078,0.21883l0.23653,0.48221l0.0479,0.22451l0.10715,0.19357l0.0521,0.19843l0.13909,0.28357l0.0479,0.22451l0.10716,0.19357l0.10971,0.41787l0.00528,0.2347l0.06787,0.21645l0.00633,0.09448l0.03973,0.08098l0.0479,0.22451l0.10715,0.19356l0.10971,0.41787l0.00528,0.2347l0.06789,0.21644l0.07112,1.05998l0.27008,2.24996l-0.03388,0.31321l0.03149,0.30662l-0.06707,0.5379l0.05586,0.46531l-0.03388,0.31323l0.03149,0.3066l-0.0939,0.75298l-0.02504,0.51732l0.01858,0.82549l-0.05274,0.25945l0.01217,0.25859l-0.05905,0.3302l-0.02607,0.53853l-0.07061,0.25623l-0.00631,0.26077l-0.78273,3.12378l-0.07286,0.40738l-0.03648,0.0877l-0.00225,0.09284l-0.29959,1.19562l-0.07285,0.40737l-0.14957,0.35952l-0.09418,0.37587l-0.15497,0.31137l-0.08892,0.35487l-0.02632,0.05288l-0.00393,0.05787l-0.23301,0.78731l-0.01935,0.03509l-0.00383,0.0393l-0.22368,0.68348l-0.07421,0.59522l-0.07517,0.21087l-0.01492,0.21956l-0.23301,0.7873l-0.01934,0.03511l-0.00383,0.0393l-0.24597,0.7516l-0.145,0.81085l-0.0738,0.1774l-0.01836,0.18828l-0.24597,0.7516l-0.145,0.81085l-0.05879,0.14133l-0.01019,0.14996l-0.19034,0.64312l-0.15185,0.84915l-0.03648,0.0877l-0.00225,0.09284l-0.12128,0.48402l-0.04699,0.3769l0.20137,1.67751l0.1665,0.39493l0.04588,0.29069l0.10894,0.26409l0.12832,0.85314l0.80409,3.06272l0.22925,0.5438l0.05144,0.32586l0.11313,0.30094l0.07286,0.60694l0.23293,0.88717l0.00529,0.2347l0.06787,0.21645l0.01084,0.16165l0.14165,0.33598l0.06125,0.38806l0.11538,0.36793l0.07549,1.12493l-0.02381,0.14958l0.02643,0.14376l-0.02387,0.49322l0.06755,0.56272l-0.02333,0.21574l0.03804,0.20677l-0.03423,0.70705l-0.02721,0.09873l0.01012,0.09859l-0.09388,0.75297l-0.06368,1.31546l-0.02721,0.09873l0.01012,0.09859l-0.09388,0.75297l-0.02945,0.60841l-0.02721,0.09873l0.01012,0.09859l-0.10619,0.85166l-0.0559,0.15679l-0.00394,0.16289l-0.07387,0.29478l0.01273,0.56535l-0.05274,0.25945l0.01217,0.25858l-0.17816,0.99625l-0.0738,0.1774l-0.01836,0.18828l-0.2144,0.6551l-0.09406,0.91927l-0.10724,0.32262l-0.04498,0.33332l-0.3845,1.04587l-0.21038,0.95954l-0.0703,0.15229l-0.01952,0.16426l-0.7446,2.12644l-0.29624,0.90519l-0.10262,0.17427l-0.04897,0.19543l-1.58329,3.18105l-0.15026,0.18626l-0.0984,0.22035l-0.48666,0.65863l-0.11312,0.09776l-0.07724,0.13198l-0.42163,0.4545l-0.18466,0.37101l-0.06069,0.07523l-0.00389,0.08035l-0.37312,0.38698l-0.33984,0.42125l-0.07411,0.00807l-0.06665,0.06912l-0.13119,0.08524l-0.15337,0.19011l-0.31621,0.24978l-0.28347,0.294l-0.20795,0.13512l-0.12501,0.13477l-0.25806,0.17519l-0.22124,0.22946l-0.34793,0.22607l-0.15767,0.13093l-0.33077,0.16376l-0.30613,0.21915l-1.77912,0.71825l-0.62404,0.40548l-0.42844,0.35579l-0.16801,0.08318l-0.05904,0.10537l-0.20201,0.06386l-0.04051,0.0527l-0.05061,0.04203l-0.04334,0.05371l-0.02456,0.00268l-0.96452,0.80096l-0.168,0.08318l-0.05904,0.10536l-0.42557,0.13455l-0.15401,0.07625l-0.0168,0.02997l-0.12105,0.03826l-0.11603,0.05743l-0.02781,-0.01196l-0.16068,0.0508l-0.15401,0.07625l-0.0168,0.02997l-0.12105,0.03826l-0.11603,0.05743l-0.02781,-0.01196l-0.16068,0.0508l-0.40789,0.20194l-0.09775,-0.04208l-0.17529,0.05542l-0.32561,0.01591l-0.15052,-0.03394l-0.15723,0.0252l-0.90487,-0.09686l-0.26012,-0.10459l-0.0114,0.00056l-0.48049,-0.10837l-0.48421,-0.09426l-0.053,-0.02689l-0.06007,-0.01355l-0.01105,-0.02253l-0.06797,-0.0345l-0.3711,-0.09307l-0.31882,-0.03412l-0.31821,-0.12795l-0.33875,-0.06596l-0.57905,-0.29378l-0.10417,-0.01115l-0.3182,-0.12795l-0.33875,-0.06595l-0.07176,-0.03641l-0.10417,-0.01115l-0.07762,-0.0312l-0.08573,0.00663l-0.57926,-0.11277l-0.23418,-0.11882l-0.25942,-0.0505l-0.45222,-0.22943l-0.10418,-0.01115l-0.07762,-0.0312l-0.08573,0.00663l-0.57925,-0.11276l-0.23418,-0.11882l-0.25942,-0.0505l-1.07985,-0.54785l-0.50041,-0.12552l-0.18414,-0.10629l-0.2099,-0.04086l-15.59908,-7.91393l-0.25458,-0.23507l-0.2916,-0.18142l-0.617,-0.67523l-0.02931,-0.05657l-0.11618,-0.05895l-0.02451,0.0045l-0.04661,-0.04057l-0.05301,-0.02688l-0.3639,-0.33601l-0.37288,-0.32458l-0.03396,-0.05108l-0.04549,-0.042l-0.00007,-0.02654l-0.10216,-0.15367l-0.38232,-1.10513l0.47798,-1.09086l-0.00001,-0.00415l0.00273,-0.00204l0.29799,-0.6801c-0.38876,-0.39349 -0.60407,-0.9477 -0.61339,-1.53873z" fill="url(#color-4)" stroke="none" stroke-width="0.5"/><path d="M214.5453,186.96762c0,0 18.88478,-18.19982 27.46741,-30.26738c8.49872,-11.94957 23.7791,-41.7875 23.7791,-41.7875l33.7322,16.91854c0,0 -16.07374,29.22186 -20.78051,43.52233c-4.54272,13.80201 -6.98547,40.83816 -6.98547,40.83816z" fill="url(#color-5)" stroke="none" stroke-width="0"/><path d="M260.83686,124.17613l3.29513,-6.45094l33.89101,17.31146l-3.29513,6.45094z" fill="url(#color-6)" stroke="url(#color-7)" stroke-width="0"/><path d="M254.96162,135.24904l3.29513,-6.45094l33.891,17.31146l-3.29513,6.45094z" fill="url(#color-8)" stroke="url(#color-9)" stroke-width="0"/><path d="M260.08259,217.85098c0,14.98335 0.01372,26.93128 -17.8091,27.12975c-16.49564,0.18369 -17.8091,-12.1464 -17.8091,-27.12975c0,-14.98335 2.64508,-26.92288 17.8091,-27.12975c15.82517,-0.21589 17.8091,12.1464 17.8091,27.12975z" fill="url(#color-10)" stroke="url(#color-11)" stroke-width="0"/><path d="M289.82932,217.95549c0,14.98335 0.01372,26.93128 -17.8091,27.12975c-16.49563,0.18369 -17.8091,-12.1464 -17.8091,-27.12975c0,-14.98335 2.64508,-26.92288 17.8091,-27.12975c15.82517,-0.2159 17.8091,12.1464 17.8091,27.12975z" fill="url(#color-12)" stroke="url(#color-13)" stroke-width="0"/><path d="M240.5167,191.78861v-12.07868h4.07958v12.07868z" fill="#312d29" stroke="url(#color-14)" stroke-width="0"/><path d="M269.32155,192.06815v-12.07868h4.07958v12.07868z" fill="#312d29" stroke="url(#color-15)" stroke-width="0"/><path d="M238.91773,184.49552v-3.56521h35.48265v3.56521z" fill="#36322e" stroke="none" stroke-width="0"/><path d="M186.22599,244.29878v-75.58741h46.61412v75.58741z" fill="url(#color-16)" stroke="url(#color-17)" stroke-width="0"/><path d="M180.476,222.29081v-31.51043h57.11412v31.51043z" fill="url(#color-18)" stroke="url(#color-19)" stroke-width="0"/><path d="M188.833,187.21847v-14.86511h40.61412v14.86511z" fill="url(#color-20)" stroke="url(#color-21)" stroke-width="0"/><path d="M183.226,214.06215v-14.86511h50.36412v14.86511z" fill="url(#color-22)" stroke="url(#color-23)" stroke-width="0"/><path d="M188.833,240.66638v-14.86511h40.61412v14.86511z" fill="url(#color-24)" stroke="url(#color-25)" stroke-width="0"/></g></g></svg>