<svg version="1.1" xmlns="http://www.w3.org/2000/svg" xmlns:xlink="http://www.w3.org/1999/xlink" width="552.45558" height="377.38539" viewBox="0,0,552.45558,377.38539"><defs><radialGradient cx="313.49443" cy="201.99327" r="11.33425" gradientUnits="userSpaceOnUse" id="color-1"><stop offset="0" stop-color="#303030"/><stop offset="1" stop-color="#292929"/></radialGradient><radialGradient cx="326.18057" cy="208.67946" r="13.99806" gradientUnits="userSpaceOnUse" id="color-2"><stop offset="0" stop-color="#c1c1c1"/><stop offset="1" stop-color="#777777"/></radialGradient><linearGradient x1="326.70449" y1="264.09299" x2="326.70449" y2="299.98573" gradientUnits="userSpaceOnUse" id="color-3"><stop offset="0" stop-color="#505050"/><stop offset="1" stop-color="#363636"/></linearGradient><linearGradient x1="326.74792" y1="228.81842" x2="326.74792" y2="235.66947" gradientUnits="userSpaceOnUse" id="color-4"><stop offset="0" stop-color="#696969"/><stop offset="1" stop-color="#a0a0a0"/></linearGradient><radialGradient cx="311.18057" cy="238.17946" r="16.33162" gradientUnits="userSpaceOnUse" id="color-5"><stop offset="0" stop-color="#dcdcdc"/><stop offset="1" stop-color="#777777"/></radialGradient><radialGradient cx="311.68057" cy="264.17942" r="5.72077" gradientUnits="userSpaceOnUse" id="color-6"><stop offset="0" stop-color="#505050"/><stop offset="1" stop-color="#363636"/></radialGradient><radialGradient cx="341.93058" cy="239.17946" r="16.33162" gradientUnits="userSpaceOnUse" id="color-7"><stop offset="0" stop-color="#dcdcdc"/><stop offset="1" stop-color="#777777"/></radialGradient><radialGradient cx="341.68058" cy="264.67942" r="5.72077" gradientUnits="userSpaceOnUse" id="color-8"><stop offset="0" stop-color="#505050"/><stop offset="1" stop-color="#363636"/></radialGradient><radialGradient cx="322.39716" cy="245.64008" r="20.60445" gradientUnits="userSpaceOnUse" id="color-9"><stop offset="0" stop-color="#939393"/><stop offset="1" stop-color="#646464"/></radialGradient><linearGradient x1="326.68397" y1="304.05174" x2="326.68397" y2="320.31528" gradientUnits="userSpaceOnUse" id="color-10"><stop offset="0" stop-color="#000000" stop-opacity="0.21961"/><stop offset="1" stop-color="#000000" stop-opacity="0.07451"/></linearGradient><linearGradient x1="326.72749" y1="333.19441" x2="326.72749" y2="336.29872" gradientUnits="userSpaceOnUse" id="color-11"><stop offset="0" stop-color="#000000" stop-opacity="0.21961"/><stop offset="1" stop-color="#000000" stop-opacity="0.07451"/></linearGradient><linearGradient x1="325.01232" y1="347.50593" x2="325.01232" y2="348.94336" gradientUnits="userSpaceOnUse" id="color-12"><stop offset="0" stop-color="#000000" stop-opacity="0.21961"/><stop offset="1" stop-color="#000000" stop-opacity="0.07451"/></linearGradient><linearGradient x1="333.98097" y1="346.48565" x2="333.98097" y2="348.83527" gradientUnits="userSpaceOnUse" id="color-13"><stop offset="0" stop-color="#000000" stop-opacity="0.21961"/><stop offset="1" stop-color="#000000" stop-opacity="0.07451"/></linearGradient><linearGradient x1="321.42841" y1="346.39946" x2="321.42841" y2="348.93242" gradientUnits="userSpaceOnUse" id="color-14"><stop offset="0" stop-color="#000000" stop-opacity="0.21961"/><stop offset="1" stop-color="#000000" stop-opacity="0.07451"/></linearGradient><linearGradient x1="326.63399" y1="319.06364" x2="326.63399" y2="334.75609" gradientUnits="userSpaceOnUse" id="color-15"><stop offset="0" stop-color="#000000" stop-opacity="0.21961"/><stop offset="1" stop-color="#000000" stop-opacity="0.07451"/></linearGradient><linearGradient x1="326.97346" y1="335.58485" x2="326.97346" y2="348.27031" gradientUnits="userSpaceOnUse" id="color-16"><stop offset="0" stop-color="#000000" stop-opacity="0.21961"/><stop offset="1" stop-color="#000000" stop-opacity="0.07451"/></linearGradient><linearGradient x1="339.45788" y1="301.71669" x2="339.45788" y2="304.93245" gradientUnits="userSpaceOnUse" id="color-17"><stop offset="0" stop-color="#000000" stop-opacity="0.21961"/><stop offset="1" stop-color="#000000" stop-opacity="0.07451"/></linearGradient><linearGradient x1="339.37325" y1="302.43391" x2="339.37325" y2="305.96997" gradientUnits="userSpaceOnUse" id="color-18"><stop offset="0" stop-color="#000000" stop-opacity="0.21961"/><stop offset="1" stop-color="#000000" stop-opacity="0.07451"/></linearGradient><linearGradient x1="341.66472" y1="304.64362" x2="341.66472" y2="305.17912" gradientUnits="userSpaceOnUse" id="color-19"><stop offset="0" stop-color="#000000" stop-opacity="0.21961"/><stop offset="1" stop-color="#000000" stop-opacity="0.07451"/></linearGradient><linearGradient x1="343.07383" y1="304.74979" x2="343.07383" y2="305.15533" gradientUnits="userSpaceOnUse" id="color-20"><stop offset="0" stop-color="#000000" stop-opacity="0.21961"/><stop offset="1" stop-color="#000000" stop-opacity="0.07451"/></linearGradient><linearGradient x1="314.35643" y1="301.84026" x2="314.35643" y2="305.05603" gradientUnits="userSpaceOnUse" id="color-21"><stop offset="0" stop-color="#000000" stop-opacity="0.21961"/><stop offset="1" stop-color="#000000" stop-opacity="0.07451"/></linearGradient><linearGradient x1="314.44104" y1="302.55746" x2="314.44104" y2="306.09352" gradientUnits="userSpaceOnUse" id="color-22"><stop offset="0" stop-color="#000000" stop-opacity="0.21961"/><stop offset="1" stop-color="#000000" stop-opacity="0.07451"/></linearGradient><linearGradient x1="312.14969" y1="304.7672" x2="312.14969" y2="305.3027" gradientUnits="userSpaceOnUse" id="color-23"><stop offset="0" stop-color="#000000" stop-opacity="0.21961"/><stop offset="1" stop-color="#000000" stop-opacity="0.07451"/></linearGradient><linearGradient x1="310.74058" y1="304.87337" x2="310.74058" y2="305.27892" gradientUnits="userSpaceOnUse" id="color-24"><stop offset="0" stop-color="#000000" stop-opacity="0.21961"/><stop offset="1" stop-color="#000000" stop-opacity="0.07451"/></linearGradient><linearGradient x1="310.63008" y1="320.00932" x2="310.63008" y2="334.80952" gradientUnits="userSpaceOnUse" id="color-25"><stop offset="0" stop-color="#000000" stop-opacity="0.21961"/><stop offset="1" stop-color="#000000" stop-opacity="0.07451"/></linearGradient><linearGradient x1="313.64421" y1="315.71789" x2="313.64421" y2="320.90222" gradientUnits="userSpaceOnUse" id="color-26"><stop offset="0" stop-color="#000000" stop-opacity="0.21961"/><stop offset="1" stop-color="#000000" stop-opacity="0.07451"/></linearGradient><linearGradient x1="342.74881" y1="320.13878" x2="342.74881" y2="334.93898" gradientUnits="userSpaceOnUse" id="color-27"><stop offset="0" stop-color="#000000" stop-opacity="0.21961"/><stop offset="1" stop-color="#000000" stop-opacity="0.07451"/></linearGradient><linearGradient x1="339.73456" y1="315.84735" x2="339.73456" y2="321.03169" gradientUnits="userSpaceOnUse" id="color-28"><stop offset="0" stop-color="#000000" stop-opacity="0.21961"/><stop offset="1" stop-color="#000000" stop-opacity="0.07451"/></linearGradient><linearGradient x1="326.53175" y1="315.17022" x2="326.53175" y2="336.17289" gradientUnits="userSpaceOnUse" id="color-29"><stop offset="0" stop-color="#000000" stop-opacity="0.21961"/><stop offset="1" stop-color="#000000" stop-opacity="0.07451"/></linearGradient><linearGradient x1="270.00003" y1="-2" x2="270.00003" y2="362" gradientUnits="userSpaceOnUse" id="color-30"><stop offset="0" stop-color="#ff5233" stop-opacity="0.03922"/><stop offset="1" stop-color="#222873" stop-opacity="0.12549"/></linearGradient><linearGradient x1="-9.38845" y1="179.13769" x2="254.91528" y2="179.13769" gradientUnits="userSpaceOnUse" id="color-31"><stop offset="0" stop-color="#000000" stop-opacity="0.21961"/><stop offset="1" stop-color="#000000" stop-opacity="0"/></linearGradient><linearGradient x1="31.09937" y1="179.13769" x2="206.62164" y2="179.13769" gradientUnits="userSpaceOnUse" id="color-32"><stop offset="0" stop-color="#000000"/><stop offset="1" stop-color="#000000" stop-opacity="0"/></linearGradient><linearGradient x1="27.13097" y1="350.22808" x2="27.13097" y2="359.31658" gradientTransform="translate(-18.56152,-1813.03169) scale(5.07769,5.07795)" gradientUnits="userSpaceOnUse" id="color-33"><stop offset="0" stop-color="#ffffff"/><stop offset="1" stop-color="#a7a7a7"/></linearGradient></defs><g transform="translate(11.45556,9.555)"><g data-paper-data="{&quot;isPaintingLayer&quot;:true}" fill-rule="nonzero" stroke-linejoin="miter" stroke-miterlimit="10" stroke-dasharray="" stroke-dashoffset="0" style="mix-blend-mode: normal"><g data-paper-data="{&quot;index&quot;:null}" stroke-linecap="butt"><path d="M316.48761,202.44844c-0.19197,-0.01282 -1.01887,-1.17534 0.8336,-1.21356c2.5516,-0.05265 5.08327,-0.34194 7.55222,-0.11037c0.10795,-0.07136 0.24442,-0.10975 0.38927,-0.09993l0.66236,0.04494c0.34337,-0.02772 0.71581,-0.05429 1.10546,-0.07383c1.0269,-0.12494 2.22743,-0.09056 3.33848,-0.0189c0.55404,-0.01348 1.06493,0.01766 1.47431,0.1126c0.30867,0.02541 0.59579,0.04881 0.85289,0.06624l0.69824,0.04737c0.31803,0.02158 0.55609,0.26746 0.53173,0.5492c-0.02169,0.25075 -0.24393,0.44539 -0.51677,0.46995l-0.38523,0.04148c0.13863,0.14415 0.25903,0.30333 0.35837,0.47892l0.28292,-0.07864l0.22189,0.62645c0.02433,0.06348 0.03487,0.13227 0.02873,0.20332c-0.02436,0.28174 -0.30191,0.49263 -0.61992,0.47105c-0.09671,-0.00657 -0.18603,-0.03386 -0.26283,-0.07662l-0.52724,-0.28004l0.0093,-0.01374l-0.05258,-0.01165c-0.36123,-0.28064 -0.73975,-0.50809 -1.12794,-0.68176c-0.61905,-0.11248 -1.26276,-0.27031 -1.9214,-0.418c-1.16213,0.00398 -2.30235,0.47104 -3.23356,1.41591c0,0 -0.38077,0.38467 -0.81497,0.04733c-0.4342,-0.33732 -0.05343,-0.72199 -0.05343,-0.72199c0.08134,-0.08184 0.16427,-0.16088 0.2487,-0.23711l-0.33299,0.04224c-0.04474,0.00651 -0.09108,0.00844 -0.1383,0.00523c-0.31803,-0.02158 -0.55609,-0.26746 -0.53172,-0.5492c0.01232,-0.14259 0.0895,-0.26702 0.20396,-0.35236c-0.27294,-0.04013 -0.53314,-0.06532 -0.76141,-0.05004c-1.59437,0.10669 -3.96697,-0.13211 -6.24272,-0.16069c-0.03264,0.23978 -0.24966,0.42356 -0.51426,0.44738l-0.69832,0.07519z" fill="url(#color-1)" stroke="none" stroke-width="0.5"/><path d="M333.98808,201.26988c3.06876,0.16859 3.03513,0.20484 2.932,2.04536c-0.10313,1.84052 -1.49922,3.18584 -3.11824,3.00485c-1.61904,-0.18098 -2.84793,-1.81973 -2.7448,-3.66026c0.10313,-1.84052 0.05341,-1.54805 2.93104,-1.38996z" data-paper-data="{&quot;index&quot;:null}" fill="#292929" stroke="#000000" stroke-width="0"/><path d="M326.11729,202.81683c0.02557,2.02314 -2.04295,3.68395 -4.62017,3.70951c-2.57721,0.02556 -4.6872,-1.59379 -4.71277,-3.61694c-0.02557,-2.02314 -0.07613,-2.06635 4.79576,-1.92409c4.56846,0.1334 4.51161,-0.19162 4.53718,1.83152z" fill="#292929" stroke="#000000" stroke-width="0"/></g><path d="M339.80954,216.39583c0,7.73092 -5.73774,13.99807 -12.8156,13.99807c-7.07786,0 -12.8156,-6.26715 -12.8156,-13.99807c0,-4.30366 1.7781,-8.15371 4.57564,-10.72149c2.22785,-2.04488 5.10222,-3.27657 8.23997,-3.27657c7.07786,0 12.8156,6.26714 12.8156,13.99806z" fill="url(#color-2)" stroke="none" stroke-width="0" stroke-linecap="butt"/><path d="M313.12344,299.98573l3.75904,-33.71008c0,0 6.75518,-2.18267 9.822,-2.18267c3.62872,0 10.54956,2.18267 10.54956,2.18267l3.03149,33.71008h-7.63934c0,0 -1.32697,-25.53818 -2.03751,-29.57011c-0.20138,-1.1427 -3.2979,-2.07857 -3.2979,-2.07857c0,0 -3.09204,0.08829 -3.39803,1.52409c-0.93579,4.39099 -2.78619,30.12458 -2.78619,30.12458z" fill="url(#color-3)" stroke="#000000" stroke-width="0" stroke-linecap="butt"/><path d="M322.91984,235.66947v-6.85104h7.65615v6.85104z" fill="url(#color-4)" stroke="#000000" stroke-width="0" stroke-linecap="butt"/><path d="M316.63985,266.34148c0,0 0.16709,-5.5597 -0.35268,-10.94382c-0.35317,-3.65847 -1.40473,-6.95919 -1.56162,-9.45339c-0.29447,-4.68133 -0.2105,-13.38223 -0.2105,-13.38223c0,0 3.69178,-0.58477 5.4694,-0.21857c2.26281,0.46615 7.00656,2.78867 7.00656,2.78867c0,0 3.67689,-2.17061 5.59031,-2.58687c2.01891,-0.43921 6.22369,0.01677 6.22369,0.01677c0,0 -0.06905,9.21711 -0.22689,12.65629c-0.13965,3.04285 -0.88957,6.36811 -1.18346,10.87293c-0.3029,4.64296 -0.14784,10.42155 -0.14784,10.42155c0,0 -2.75697,-0.76932 -5.57187,-0.83754c-1.27833,-0.03098 -1.79126,1.00612 -2.99851,1.16532c-0.96496,0.12724 -2.63623,-0.61291 -3.56107,-0.64966c-0.69915,-0.02778 -2.04377,-0.5306 -2.53801,-0.53471c-0.99795,-0.0083 -1.61572,0.86529 -2.77345,1.02464c-1.34484,0.1851 -3.1641,-0.33939 -3.1641,-0.33939z" fill="#d0d0d0" stroke="#292e32" stroke-width="0" stroke-linecap="butt"/><g><path d="M344.07637,304.78837c-1.20233,-0.09724 -2.40545,-0.08663 -3.51009,-0.03124c-1.77622,0.08907 -3.29781,0.29393 -4.15205,0.35243c-2.79698,0.19155 -3.77022,-0.52358 -3.87045,-2.9182c-0.1125,-2.68783 0.03862,-4.14932 0.03862,-4.14932c0,0 2.71995,2.52413 3.14347,2.94031c0.75062,0.73761 3.3169,-0.10966 3.80058,-0.1098c0.84696,-0.00024 1.05759,-1.35854 1.29055,-1.33839c1.36979,0.11854 -0.20863,-0.64669 3.91409,0.32599c1.80707,0.34143 1.53964,1.32237 1.53964,1.32237c0,0 1.12616,3.87437 -2.19435,3.60584z" data-paper-data="{&quot;index&quot;:null}" fill="#111112" stroke="#000000" stroke-width="0" stroke-linecap="butt"/><path d="M343.53089,303.152c-3.13563,-0.25358 -1.86739,-0.09732 -2.97181,-0.17792c-2.30937,-0.16854 -3.49675,0.59503 -4.49642,0.44205c-0.34815,-0.05328 -0.4218,0.52182 -1.69368,-0.33399c-0.87472,-0.58857 -0.48384,-1.29667 -1.0836,-1.92475c-0.87609,-0.91745 -0.80847,-1.8858 -0.80847,-1.8858l-0.07637,-3.04773c0,0 1.8378,-0.39027 2.51019,0.23366c0.68548,0.63607 0.20976,2.29047 0.63328,2.70665c0.75062,0.73761 3.3169,-0.10966 3.80058,-0.1098c0.84696,-0.00024 -0.87067,-3.17713 -0.06091,-3.15889c0.43542,0.00981 1.08639,-0.14318 1.08639,-0.14318c0,0 0.03211,1.94353 0.26507,1.96369c1.36979,0.11854 -0.20863,-0.64669 3.91408,0.32599c1.80707,0.34143 1.81237,2.59509 1.81237,2.59509c0,0 0.4898,2.78346 -2.83071,2.51493z" data-paper-data="{&quot;index&quot;:null}" fill="#252527" stroke="#000000" stroke-width="0" stroke-linecap="butt"/><path d="M340.95797,297.49769l1.45455,1.18182" fill="none" stroke="#ffffff" stroke-width="0.5" stroke-linecap="round"/><path d="M342.68524,297.58858l0.81818,0.81818" fill="none" stroke="#ffffff" stroke-width="0.5" stroke-linecap="round"/></g><g data-paper-data="{&quot;index&quot;:null}"><path d="M307.58451,300.90979c0,0 -0.26743,-0.98094 1.53964,-1.32237c4.12271,-0.97269 2.54429,-0.20745 3.91409,-0.32599c0.23296,-0.02016 0.44359,1.33814 1.29055,1.33839c0.48368,0.00014 3.04996,0.84741 3.80058,0.1098c0.42352,-0.41618 3.14347,-2.94031 3.14347,-2.94031c0,0 0.15112,1.46149 0.03862,4.14932c-0.10023,2.39462 -1.07348,3.10975 -3.87046,2.9182c-0.85424,-0.05851 -2.37583,-0.26336 -4.15206,-0.35243c-1.10464,-0.05539 -2.30776,-0.066 -3.51009,0.03124c-3.32051,0.26854 -2.19435,-3.60584 -2.19435,-3.60584z" data-paper-data="{&quot;index&quot;:null}" fill="#111112" stroke="#000000" stroke-width="0" stroke-linecap="butt"/><path d="M307.49362,300.3644c0,0 0.0053,-2.25366 1.81237,-2.59509c4.12271,-0.97268 2.54429,-0.20745 3.91408,-0.32599c0.23296,-0.02016 0.26507,-1.96369 0.26507,-1.96369c0,0 0.65097,0.15299 1.08639,0.14318c0.80976,-0.01824 -0.90787,3.15865 -0.06091,3.15889c0.48368,0.00014 3.04996,0.84741 3.80058,0.1098c0.42352,-0.41618 -0.0522,-2.07058 0.63328,-2.70665c0.67239,-0.62393 2.51019,-0.23366 2.51019,-0.23366l-0.07637,3.04773c0,0 0.06762,0.96835 -0.80847,1.8858c-0.59976,0.62808 -0.20888,1.33618 -1.0836,1.92475c-1.27188,0.85581 -1.34553,0.28071 -1.69368,0.33399c-0.99967,0.15298 -2.18705,-0.61059 -4.49642,-0.44205c-1.10442,0.0806 0.16382,-0.07566 -2.97181,0.17792c-3.32051,0.26854 -2.83071,-2.51493 -2.83071,-2.51493z" data-paper-data="{&quot;index&quot;:null}" fill="#252527" stroke="#000000" stroke-width="0" stroke-linecap="butt"/><path d="M312.8973,297.22493l-1.45454,1.18182" fill="none" stroke="#ffffff" stroke-width="0.5" stroke-linecap="round"/><path d="M311.17005,297.31586l-0.81818,0.81818" fill="none" stroke="#ffffff" stroke-width="0.5" stroke-linecap="round"/></g><path d="M308.63523,264.76822c0,0 0.00323,-2.49507 -0.79746,-6.46456c-0.4809,-2.38412 -1.47706,-6.23997 -1.56107,-7.15904c-0.18746,-2.05026 -1.01597,-2.97422 -1.07791,-4.30335c-0.15221,-3.26584 1.28279,-8.90209 1.28279,-8.90209c0,0 4.70832,-10.05078 9.18808,-3.76843c1.77188,2.74124 -2.33362,7.18591 -2.33362,7.18591c0,0 -0.53598,0.62332 -0.39283,3.69502c0.06655,1.42816 -0.02726,3.12132 0.01644,5.45511c0.01846,0.98607 0.35817,4.09261 0.38682,5.05171c0.11918,3.98841 1.54284,7.12706 1.54284,7.12706z" fill="url(#color-5)" stroke="#000000" stroke-width="0" stroke-linecap="butt"/><path d="M309.7641,270.01921c-0.58886,0.18706 -1.09556,-5.12209 -1.09556,-5.12209c0,0 1.85348,-1.43975 2.88071,-1.78462c1.05501,-0.35422 3.36821,-0.31344 3.36821,-0.31344c0,0 0.3358,1.29283 1.11246,2.02805c1.32931,1.25838 2.95097,2.55392 2.57609,4.01987c-0.20338,0.79541 -1.85007,-1.96099 -2.06721,-1.58689c-0.03863,0.06656 1.03821,4.97434 0.62627,5.29357c-0.67297,0.5215 -2.07975,-4.4292 -2.1185,-3.62794c-0.07954,1.64468 1.28017,4.9658 0.7,5.28168c-0.97733,0.53209 -1.97546,-5.80303 -2.1708,-5.25215c-0.36487,1.02908 0.86527,4.73222 0.37071,5.03114c-1.44056,0.87065 -1.6757,-4.54073 -2.0001,-3.95995c-0.61283,1.09718 0.52582,3.65203 -0.06289,3.8001c-1.19698,0.301 -1.84144,-3.8956 -2.1194,-3.80732z" data-paper-data="{&quot;index&quot;:null}" fill="url(#color-6)" stroke="#000000" stroke-width="0" stroke-linecap="butt"/><path d="M338.53046,262.39986c0,0 1.42366,-3.13865 1.54284,-7.12706c0.02865,-0.9591 0.36836,-4.06563 0.38682,-5.05171c0.0437,-2.33378 -0.05012,-4.02695 0.01644,-5.45511c0.14315,-3.0717 -0.39283,-3.69502 -0.39283,-3.69502c0,0 -4.1055,-4.44468 -2.33362,-7.18591c4.47976,-6.28234 9.18809,3.76843 9.18809,3.76843c0,0 1.435,5.63625 1.28279,8.90209c-0.06194,1.32913 -0.89044,2.25309 -1.07791,4.30335c-0.08401,0.91907 -1.08017,4.77492 -1.56107,7.15904c-0.80069,3.96948 -0.79746,6.46456 -0.79746,6.46456z" data-paper-data="{&quot;index&quot;:null}" fill="url(#color-7)" stroke="#000000" stroke-width="0" stroke-linecap="butt"/><path d="M343.65564,269.7335c-0.27796,-0.08828 -0.92242,4.10831 -2.1194,3.80731c-0.58871,-0.14806 0.54994,-2.70292 -0.06289,-3.8001c-0.3244,-0.58078 -0.55954,4.8306 -2.0001,3.95995c-0.49455,-0.29892 0.73559,-4.00206 0.37072,-5.03114c-0.19534,-0.55088 -1.19348,5.78425 -2.1708,5.25215c-0.58017,-0.31588 0.77955,-3.637 0.7,-5.28168c-0.03875,-0.80126 -1.44553,4.14944 -2.1185,3.62794c-0.41194,-0.31923 0.6649,-5.22701 0.62626,-5.29357c-0.21714,-0.3741 -1.86383,2.38229 -2.06721,1.58689c-0.37488,-1.46596 1.24679,-2.76149 2.5761,-4.01987c0.77666,-0.73522 1.11245,-2.02805 1.11245,-2.02805c0,0 2.3132,-0.04079 3.36821,0.31343c1.02723,0.34487 2.88071,1.78463 2.88071,1.78463c0,0 -0.50671,5.30915 -1.09556,5.1221z" data-paper-data="{&quot;index&quot;:null}" fill="url(#color-8)" stroke="#000000" stroke-width="0" stroke-linecap="butt"/><path d="M312.88901,275.44784v-46.35175h27.32646v46.35175z" fill="url(#color-9)" stroke="#ed6b00" stroke-width="0" stroke-linecap="butt"/><g data-paper-data="{&quot;index&quot;:null}" stroke-opacity="0.15686" stroke="#000000"><path d="M321.10607,304.05174c0,0 1.8504,11.66028 2.78619,13.6499c0.30599,0.65058 3.39803,0.69059 3.39803,0.69059c0,0 3.09652,-0.42406 3.2979,-0.94183c0.71054,-1.82693 2.03751,-13.39866 2.03751,-13.39866h7.63934l-3.03149,15.27455c0,0 -6.92084,0.989 -10.54956,0.989c-3.06682,0 -9.822,-0.989 -9.822,-0.989l-3.75904,-15.27455z" fill="url(#color-10)" stroke-width="0" stroke-linecap="butt"/><path d="M330.55557,333.19441v3.10431h-7.65615v-3.10431z" fill="url(#color-11)" stroke-width="0" stroke-linecap="butt"/><g data-paper-data="{&quot;index&quot;:null}" stroke-linecap="butt"><path d="M316.52396,348.249l0.69832,0.03407c0.2646,0.01079 0.48162,0.09407 0.51426,0.20272c2.27575,-0.01295 4.64835,-0.12115 6.24272,-0.07281c0.22827,0.00692 0.48847,-0.00449 0.76141,-0.02268c-0.11446,-0.03867 -0.19164,-0.09505 -0.20396,-0.15966c-0.02437,-0.12766 0.21369,-0.23908 0.53172,-0.24885c0.04722,-0.00145 0.09356,-0.00059 0.1383,0.00237l0.33299,0.01914c-0.08443,-0.03454 -0.16736,-0.07036 -0.2487,-0.10744c0,0 -0.38077,-0.1743 0.05343,-0.32714c0.4342,-0.15285 0.81497,0.02144 0.81497,0.02144c0.93121,0.42814 2.07143,0.63976 3.23356,0.64157c0.65864,-0.06692 1.30235,-0.13843 1.9214,-0.1894c0.38819,-0.07869 0.76671,-0.18175 1.12794,-0.30892l0.05258,-0.00528l-0.0093,-0.00622l0.52724,-0.12689c0.0768,-0.01937 0.16612,-0.03174 0.26283,-0.03472c0.31801,-0.00978 0.59556,0.08578 0.61992,0.21344c0.00614,0.03219 -0.0044,0.06336 -0.02873,0.09213l-0.22189,0.28386l-0.28292,-0.03564c-0.09934,0.07956 -0.21974,0.15169 -0.35837,0.217l0.38523,0.0188c0.27284,0.01113 0.49508,0.09932 0.51677,0.21294c0.02436,0.12766 -0.2137,0.23908 -0.53173,0.24885l-0.69824,0.02146c-0.2571,0.0079 -0.54422,0.01851 -0.85289,0.03002c-0.40938,0.04302 -0.92027,0.05713 -1.47431,0.05102c-1.11105,0.03247 -2.31158,0.04805 -3.33848,-0.00856c-0.38965,-0.00885 -0.76209,-0.02089 -1.10546,-0.03345l-0.66236,0.02036c-0.14485,0.00445 -0.28132,-0.01295 -0.38927,-0.04528c-2.46895,0.10493 -5.00062,-0.02615 -7.55222,-0.05001c-1.85247,-0.01732 -1.02557,-0.54408 -0.8336,-0.54988z" fill="url(#color-12)" stroke-width="0.5"/><path d="M333.96755,348.78138c-2.87763,0.07164 -2.82791,0.20415 -2.93104,-0.62982c-0.10313,-0.83397 1.12576,-1.57651 2.7448,-1.65852c1.61902,-0.08201 3.01511,0.52757 3.11824,1.36154c0.10313,0.83397 0.13676,0.85039 -2.932,0.92679z" data-paper-data="{&quot;index&quot;:null}" fill="url(#color-13)" stroke-width="0"/><path d="M321.55958,348.91032c-4.87189,0.06446 -4.82133,0.04488 -4.79576,-0.87184c0.02557,-0.91672 2.13556,-1.65047 4.71277,-1.63889c2.57722,0.01158 4.64574,0.76412 4.62017,1.68083c-0.02557,0.91672 0.03128,0.76945 -4.53718,0.82989z" fill="url(#color-14)" stroke-width="0"/></g><path d="M316.61931,319.29646c0,0 1.81926,-0.23765 3.1641,-0.15378c1.15773,0.0722 1.7755,0.46804 2.77345,0.46428c0.49424,-0.00186 1.83886,-0.2297 2.53801,-0.24229c0.92484,-0.01665 2.59611,-0.35202 3.56107,-0.29437c1.20725,0.07214 1.72018,0.54207 2.99851,0.52803c2.8149,-0.03091 5.57187,-0.3795 5.57187,-0.3795c0,0 -0.15506,2.61837 0.14784,4.72216c0.29389,2.0412 1.04381,3.54793 1.18346,4.92668c0.15784,1.55834 0.22689,5.73475 0.22689,5.73475c0,0 -4.20478,0.20661 -6.22369,0.0076c-1.91342,-0.18861 -5.59031,-1.17215 -5.59031,-1.17215c0,0 -4.74375,1.05237 -7.00656,1.26359c-1.77762,0.16593 -5.4694,-0.09904 -5.4694,-0.09904c0,0 -0.08397,-3.94251 0.2105,-6.06369c0.15689,-1.13016 1.20845,-2.62577 1.56162,-4.28347c0.51977,-2.43963 0.35268,-4.95881 0.35268,-4.95881z" fill="url(#color-15)" stroke-width="0" stroke-linecap="butt"/><path d="M339.78909,341.92758c0,3.503 -5.73774,6.34273 -12.8156,6.34273c-3.13775,0 -6.01212,-0.5581 -8.23997,-1.48466c-2.79754,-1.1635 -4.57564,-2.90801 -4.57564,-4.85807c0,-3.503 5.73774,-6.34274 12.8156,-6.34274c7.07786,0 12.8156,2.83974 12.8156,6.34274z" fill="url(#color-16)" stroke-width="0" stroke-linecap="butt"/><g><path d="M344.05584,301.8756c3.32051,-0.12168 2.19435,1.63386 2.19435,1.63386c0,0 0.26743,0.44448 -1.53964,0.59919c-4.12272,0.44074 -2.5443,0.094 -3.91409,0.14771c-0.23296,0.00913 -0.44359,-0.60633 -1.29055,-0.60644c-0.48368,-0.00007 -3.04996,-0.38398 -3.80058,-0.04975c-0.42352,0.18858 -3.14347,1.3323 -3.14347,1.3323c0,0 -0.15112,-0.66222 -0.03862,-1.88011c0.10023,-1.08504 1.07347,-1.40908 3.87045,-1.32229c0.85424,0.02651 2.37583,0.11934 4.15205,0.1597c1.10464,0.0251 2.30776,0.02991 3.51009,-0.01416z" data-paper-data="{&quot;index&quot;:null}" fill="url(#color-17)" stroke-width="0" stroke-linecap="butt"/><path d="M343.51034,302.61705c3.32051,-0.12168 2.83071,1.13955 2.83071,1.13955c0,0 -0.0053,1.02116 -1.81237,1.17587c-4.12271,0.44074 -2.54429,0.094 -3.91408,0.14771c-0.23296,0.00913 -0.26507,0.88978 -0.26507,0.88978c0,0 -0.65097,-0.06932 -1.08639,-0.06488c-0.80976,0.00827 0.90787,-1.43123 0.06091,-1.43134c-0.48368,-0.00007 -3.04996,-0.38397 -3.80058,-0.04975c-0.42352,0.18858 0.0522,0.93821 -0.63328,1.22642c-0.67239,0.28271 -2.51019,0.10588 -2.51019,0.10588l0.07637,-1.38098c0,0 -0.06762,-0.43877 0.80847,-0.85448c0.59976,-0.28459 0.20888,-0.60544 1.0836,-0.87214c1.27188,-0.38778 1.34553,-0.12719 1.69368,-0.15133c0.99967,-0.06931 2.18705,0.27667 4.49642,0.2003c1.10442,-0.03652 -0.16382,0.03429 2.97181,-0.08062z" data-paper-data="{&quot;index&quot;:null}" fill="url(#color-18)" stroke-width="0" stroke-linecap="butt"/><path d="M342.39201,304.64362l-1.45455,0.5355" fill="url(#color-19)" stroke-width="0.5" stroke-linecap="round"/><path d="M343.4829,304.7672l-0.81818,0.37073" fill="url(#color-20)" stroke-width="0.5" stroke-linecap="round"/></g><g data-paper-data="{&quot;index&quot;:null}"><path d="M307.56414,303.63303c0,0 -1.12616,-1.75555 2.19435,-1.63386c1.20233,0.04406 2.40545,0.03925 3.51009,0.01416c1.77623,-0.04036 3.29782,-0.13318 4.15206,-0.15969c2.79698,-0.0868 3.77023,0.23724 3.87046,1.32228c0.1125,1.2179 -0.03862,1.88011 -0.03862,1.88011c0,0 -2.71995,-1.14372 -3.14347,-1.3323c-0.75062,-0.33422 -3.3169,0.04969 -3.80058,0.04975c-0.84696,0.00011 -1.05759,0.61557 -1.29055,0.60644c-1.3698,-0.05371 0.20862,0.29303 -3.91409,-0.14771c-1.80707,-0.15471 -1.53964,-0.59919 -1.53964,-0.59919z" data-paper-data="{&quot;index&quot;:null}" fill="url(#color-21)" stroke-width="0" stroke-linecap="butt"/><path d="M307.47323,303.88015c0,0 -0.4898,-1.26123 2.83071,-1.13955c3.13563,0.1149 1.86739,0.0441 2.97181,0.08062c2.30937,0.07637 3.49675,-0.26961 4.49642,-0.2003c0.34815,0.02414 0.4218,-0.23645 1.69368,0.15133c0.87472,0.26669 0.48384,0.58754 1.0836,0.87213c0.87609,0.41571 0.80847,0.85449 0.80847,0.85449l0.07637,1.38097c0,0 -1.8378,0.17684 -2.51019,-0.10588c-0.68548,-0.28822 -0.20976,-1.03784 -0.63328,-1.22642c-0.75062,-0.33422 -3.3169,0.04969 -3.80058,0.04975c-0.84696,0.00011 0.87067,1.43961 0.06091,1.43134c-0.43542,-0.00445 -1.08639,0.06488 -1.08639,0.06488c0,0 -0.03211,-0.88064 -0.26507,-0.88978c-1.36979,-0.05371 0.20863,0.29302 -3.91408,-0.14772c-1.80707,-0.15471 -1.81237,-1.17587 -1.81237,-1.17587z" data-paper-data="{&quot;index&quot;:null}" fill="url(#color-22)" stroke-width="0" stroke-linecap="butt"/><path d="M311.42244,304.7672l1.45454,0.5355" fill="url(#color-23)" stroke-width="0.5" stroke-linecap="round"/><path d="M311.14968,305.26151l-0.81818,-0.37073" fill="url(#color-24)" stroke-width="0.5" stroke-linecap="round"/></g><path d="M314.86886,320.953c0,0 -1.42366,1.42217 -1.54284,3.22938c-0.02865,0.43458 -0.36836,1.8422 -0.38682,2.289c-0.0437,1.05748 0.05011,1.82467 -0.01644,2.47179c-0.14315,1.39184 0.39283,1.67427 0.39283,1.67427c0,0 4.1055,2.01394 2.33362,3.25604c-4.47976,2.84663 -9.18808,-1.70753 -9.18808,-1.70753c0,0 -1.435,-2.55387 -1.28279,-4.03367c0.06194,-0.60225 0.89045,-1.02091 1.07791,-1.94991c0.08401,-0.41644 1.08017,-2.16359 1.56107,-3.24387c0.80069,-1.79864 0.79746,-2.92919 0.79746,-2.92919z" fill="url(#color-25)" stroke-width="0" stroke-linecap="butt"/><path d="M309.74367,317.63001c0.27796,0.04 0.92242,-1.86154 2.1194,-1.72515c0.58871,0.06709 -0.54994,1.22473 0.06289,1.72188c0.3244,0.26316 0.55954,-2.18881 2.0001,-1.79431c0.49456,0.13544 -0.73558,1.81339 -0.37071,2.27968c0.19534,0.24962 1.19347,-2.62092 2.1708,-2.37983c0.58017,0.14313 -0.77954,1.64798 -0.7,2.39321c0.03875,0.36306 1.44553,-1.88017 2.1185,-1.64388c0.41194,0.14465 -0.6649,2.36844 -0.62627,2.3986c0.21714,0.16951 1.86383,-1.07946 2.06721,-0.71904c0.37488,0.66425 -1.24678,1.25128 -2.57609,1.82146c-0.77666,0.33314 -1.11246,0.91894 -1.11246,0.91894c0,0 -2.3132,0.01848 -3.36821,-0.14203c-1.02723,-0.15627 -2.88071,-0.80864 -2.88071,-0.80864c0,0 0.5067,-2.40566 1.09556,-2.3209z" data-paper-data="{&quot;index&quot;:null}" fill="url(#color-26)" stroke-width="0" stroke-linecap="butt"/><path d="M344.7641,320.13878c0,0 -0.00323,1.13055 0.79746,2.92918c0.4809,1.08028 1.47706,2.82743 1.56107,3.24387c0.18747,0.929 1.01597,1.34766 1.07791,1.94991c0.15221,1.4798 -1.28279,4.03367 -1.28279,4.03367c0,0 -4.70833,4.55416 -9.18809,1.70753c-1.77188,-1.24209 2.33362,-3.25604 2.33362,-3.25604c0,0 0.53598,-0.28243 0.39283,-1.67427c-0.06656,-0.64712 0.02726,-1.41432 -0.01644,-2.47179c-0.01846,-0.44681 -0.35817,-1.85442 -0.38682,-2.289c-0.11918,-1.80721 -1.54284,-3.22938 -1.54284,-3.22938z" data-paper-data="{&quot;index&quot;:null}" fill="url(#color-27)" stroke-width="0" stroke-linecap="butt"/><path d="M343.63516,317.75948c0.58885,-0.08476 1.09556,2.3209 1.09556,2.3209c0,0 -1.85348,0.65238 -2.88071,0.80864c-1.05501,0.1605 -3.36821,0.14202 -3.36821,0.14202c0,0 -0.33579,-0.5858 -1.11245,-0.91894c-1.32931,-0.57019 -2.95098,-1.15722 -2.5761,-1.82146c0.20338,-0.36041 1.85007,0.88856 2.06721,0.71904c0.03864,-0.03016 -1.0382,-2.25395 -0.62626,-2.39859c0.67297,-0.2363 2.07975,2.00694 2.1185,1.64388c0.07955,-0.74523 -1.28017,-2.25008 -0.7,-2.39321c0.97732,-0.2411 1.97546,2.62944 2.1708,2.37983c0.36487,-0.46629 -0.86527,-2.14425 -0.37072,-2.27969c1.44056,-0.3945 1.6757,2.05748 2.0001,1.79432c0.61283,-0.49715 -0.52582,-1.6548 0.06289,-1.72189c1.19698,-0.13639 1.84144,1.76515 2.1194,1.72515z" data-paper-data="{&quot;index&quot;:null}" fill="url(#color-28)" stroke-width="0" stroke-linecap="butt"/><path d="M340.19498,315.17022v21.00267h-27.32646v-21.00267z" fill="url(#color-29)" stroke-width="0" stroke-linecap="butt"/></g><g fill-opacity="0.39216" fill="#000000" stroke-opacity="0.22353" stroke="#000000" stroke-width="0" stroke-linecap="butt"><path d="M314.88248,275.48374v-44.68508h23.37873v44.68508z"/><path d="M310.35099,264.97236c0,0 0.00293,-2.40684 -0.72263,-6.23597c-0.43577,-2.29981 -1.33845,-6.01932 -1.41458,-6.90589c-0.16987,-1.97777 -0.92064,-2.86906 -0.97677,-4.15118c-0.13792,-3.15036 1.16242,-8.5873 1.16242,-8.5873c0,0 3.14599,-6.31586 6.35252,-5.56605c0.3029,0.07083 0.10413,3.91672 0.12061,8.45897c0.02521,6.94923 -0.048,15.66243 -0.001,16.03121c0.16681,1.30883 -0.01868,2.49938 0.0219,3.42731c0.04884,1.11689 0.18416,1.85333 -0.11016,1.95767c-1.02085,0.36188 -4.4323,1.57124 -4.4323,1.57124z"/><path d="M311.37391,270.03767c-0.5336,0.18044 -0.99275,-4.94097 -0.99275,-4.94097c0,0 1.67955,-1.38884 2.61039,-1.72152c0.44059,-0.15747 1.12336,-0.23402 1.73148,-0.27078c0.30959,-0.01871 0.18881,0.99689 0.18111,2.19392c-0.01001,1.55363 0.02375,3.41287 -0.07623,3.71302c-0.33063,0.99269 0.78408,4.56488 0.33593,4.85323c-1.30538,0.83987 -1.51846,-4.38017 -1.81242,-3.81992c-0.55532,1.05838 0.47647,3.52289 -0.05699,3.66572c-1.08466,0.29036 -1.66864,-3.75785 -1.92051,-3.67269z" data-paper-data="{&quot;index&quot;:null}"/><path d="M338.24978,260.10729c0.09107,-0.37597 0.00367,-3.22098 -0.01313,-6.91964c-0.0163,-3.58859 0.03974,-7.98078 0.01294,-11.70112c-0.03153,-4.37752 -0.10571,-7.82488 0.08941,-7.93848c3.50443,-2.04025 6.72063,5.26835 6.72063,5.26835c0,0 1.30034,5.43695 1.16242,8.58731c-0.05613,1.28213 -0.80689,2.17342 -0.97677,4.15118c-0.07613,0.88657 -0.97881,4.60607 -1.41458,6.90589c-0.72555,3.82912 -0.72262,6.23597 -0.72262,6.23597l-4.82627,-1.71091c0,0 -0.15107,-0.69598 -0.11985,-1.68931c0.01141,-0.36316 -0.01469,-0.76607 0.08782,-1.18924z" data-paper-data="{&quot;index&quot;:null}"/><path d="M342.08511,269.76206c-0.25187,-0.08516 -0.83586,3.96304 -1.92052,3.67268c-0.53346,-0.14282 0.49833,-2.60735 -0.05698,-3.66573c-0.29395,-0.56025 -0.50703,4.65979 -1.81241,3.81992c-0.44814,-0.28835 0.38084,-3.93197 0.05021,-4.92466c-0.06047,-0.18153 -0.55419,-5.87411 -0.04818,-5.8563c0.68892,0.02425 1.61907,0.09459 2.17024,0.29159c0.93084,0.33267 2.61039,1.72152 2.61039,1.72152c0,0 -0.45916,5.12141 -0.99275,4.94098z" data-paper-data="{&quot;index&quot;:null}"/><path d="M315.80967,299.85495l2.1925,-24.36565l17.87499,-0.00467l1.76126,24.37032l-4.80601,-0.16667l-1.91932,-24.10709l-7.60417,-0.19037l-2.4009,24.63079z"/><path d="M337.8291,217.76504c0,6.08601 -3.66606,11.16937 -8.55333,12.38726c-0.19774,0.04927 1.32886,0.71515 1.32886,0.71515l-7.51744,-0.03491c0,0 1.67336,-0.6703 1.31436,-0.77455c-4.71143,-1.36812 -8.20365,-6.35298 -8.20365,-12.29295c0,-3.89373 1.50061,-7.37706 3.86157,-9.70025c1.88017,-1.8501 4.30597,-2.96447 6.95404,-2.96447c5.97329,0 10.8156,5.67019 10.8156,12.66473z"/><g><path d="M341.24782,304.82426c-0.87276,-0.09724 -1.74609,-0.08663 -2.54794,-0.03124c-1.28934,0.08907 -2.39384,0.29393 -3.01393,0.35243c-2.0303,0.19155 -2.73676,-0.52358 -2.80952,-2.9182c-0.08166,-2.68783 0.02803,-4.14932 0.02803,-4.14932c0,0 1.97438,2.52413 2.28181,2.94031c0.54487,0.73761 2.40771,-0.10966 2.7588,-0.1098c0.6148,-0.00024 0.76769,-1.35854 0.9368,-1.33839c0.99431,0.11854 -0.15144,-0.64669 2.8412,0.32599c1.31173,0.34143 1.11761,1.32237 1.11761,1.32237c0,0 0.81747,3.87437 -1.59286,3.60584z" data-paper-data="{&quot;index&quot;:null}"/><path d="M340.85186,303.1879c-2.27612,-0.25358 -1.35552,-0.09732 -2.1572,-0.17792c-1.67635,-0.16854 -2.53826,0.59503 -3.26391,0.44205c-0.25272,-0.05328 -0.30618,0.52182 -1.22942,-0.33399c-0.63495,-0.58857 -0.35121,-1.29667 -0.78657,-1.92475c-0.63594,-0.91745 -0.58686,-1.8858 -0.58686,-1.8858l-0.05543,-3.04773c0,0 1.33404,-0.39027 1.82212,0.23366c0.49759,0.63607 0.15226,2.29047 0.45969,2.70665c0.54487,0.73761 2.40771,-0.10966 2.75881,-0.1098c0.6148,-0.00024 0.76769,-1.35854 0.93679,-1.33838c0.99431,0.11854 -0.15145,-0.64669 2.84119,0.32599c1.31173,0.34143 1.31559,2.59509 1.31559,2.59509c0,0 0.35554,2.78346 -2.05479,2.51493z" data-paper-data="{&quot;index&quot;:null}"/></g><g data-paper-data="{&quot;index&quot;:null}"><path d="M311.05378,300.94569c0,0 -0.19413,-0.98094 1.1176,-1.32237c2.99263,-0.97269 1.84687,-0.20745 2.8412,-0.32599c0.16911,-0.02016 0.322,1.33814 0.9368,1.33839c0.3511,0.00014 2.21394,0.84741 2.7588,0.1098c0.30743,-0.41618 2.28181,-2.94031 2.28181,-2.94031c0,0 0.1097,1.46149 0.02803,4.14932c-0.07275,2.39462 -0.77922,3.10975 -2.80953,2.9182c-0.62009,-0.05851 -1.72459,-0.26336 -3.01394,-0.35243c-0.80185,-0.05539 -1.67518,-0.066 -2.54794,0.03124c-2.41033,0.26854 -1.59285,-3.60584 -1.59285,-3.60584z" data-paper-data="{&quot;index&quot;:null}"/><path d="M310.98779,300.4003c0,0 0.00385,-2.25366 1.31558,-2.59509c2.99264,-0.97268 1.84688,-0.20745 2.84119,-0.32599c0.16911,-0.02016 0.322,1.33814 0.9368,1.33838c0.3511,0.00014 2.21393,0.84741 2.7588,0.1098c0.30743,-0.41618 -0.03789,-2.07058 0.45969,-2.70665c0.48808,-0.62393 1.82212,-0.23366 1.82212,-0.23366l-0.05543,3.04773c0,0 0.04908,0.96835 -0.58686,1.8858c-0.43536,0.62808 -0.15163,1.33618 -0.78658,1.92475c-0.92325,0.85581 -0.9767,0.28071 -1.22942,0.33399c-0.72565,0.15298 -1.58756,-0.61059 -3.26391,-0.44205c-0.80169,0.0806 0.11892,-0.07566 -2.1572,0.17792c-2.41033,0.26854 -2.05478,-2.51493 -2.05478,-2.51493z" data-paper-data="{&quot;index&quot;:null}"/></g></g><path d="M-0.99998,362v-364h542v364z" fill="url(#color-30)" stroke="none" stroke-width="NaN" stroke-linecap="butt"/><path d="M-11.45556,367.45286v-375.63451h42.94936v375.63452z" fill="#000000" stroke="none" stroke-width="0" stroke-linecap="butt"/><path d="M-9.38845,367.83039v-377.38539h264.30372v377.38539z" fill="url(#color-31)" stroke="none" stroke-width="0" stroke-linecap="butt"/><path d="M31.09937,367.83039v-377.38539h175.52229v377.38539z" fill="url(#color-32)" stroke="none" stroke-width="0" stroke-linecap="butt"/><text transform="translate(3.6555,357.04033) scale(0.19694,0.19693)" font-size="40" xml:space="preserve" fill="url(#color-33)" fill-rule="nonzero" stroke-opacity="0.37647" stroke="#ffffff" stroke-width="2" stroke-linecap="butt" stroke-linejoin="miter" stroke-miterlimit="10" stroke-dasharray="" stroke-dashoffset="0" font-family="Sans Serif" font-weight="normal" text-anchor="start" style="mix-blend-mode: normal"><tspan x="0" dy="0">v1.2.0 - Part A - Minor Update</tspan></text></g></g></svg>