<svg version="1.1" xmlns="http://www.w3.org/2000/svg" xmlns:xlink="http://www.w3.org/1999/xlink" width="85.67552" height="104.93674" viewBox="0,0,85.67552,104.93674"><defs><radialGradient cx="238.29993" cy="177.52204" r="22.57159" gradientUnits="userSpaceOnUse" id="color-1"><stop offset="0" stop-color="#3c3c3c"/><stop offset="1" stop-color="#939393"/></radialGradient><linearGradient x1="238.98571" y1="155.81195" x2="239.15543" y2="162.66089" gradientUnits="userSpaceOnUse" id="color-2"><stop offset="0" stop-color="#696969"/><stop offset="1" stop-color="#a0a0a0"/></linearGradient><radialGradient cx="234.38976" cy="133.26669" r="13.11833" gradientUnits="userSpaceOnUse" id="color-3"><stop offset="0" stop-color="#dcdcdc"/><stop offset="1" stop-color="#a0a0a0"/></radialGradient><radialGradient cx="240.14628" cy="140.01075" r="9.85359" gradientUnits="userSpaceOnUse" id="color-4"><stop offset="0" stop-color="#c5dfff"/><stop offset="1" stop-color="#219cff"/></radialGradient><radialGradient cx="229.17432" cy="134.01045" r="10.07074" gradientUnits="userSpaceOnUse" id="color-5"><stop offset="0" stop-color="#303030"/><stop offset="1" stop-color="#292929"/></radialGradient><radialGradient cx="245.51861" cy="130.42461" r="2.65078" gradientUnits="userSpaceOnUse" id="color-6"><stop offset="0" stop-color="#787878"/><stop offset="1" stop-color="#292929"/></radialGradient><radialGradient cx="234.42337" cy="132.86525" r="4.17314" gradientUnits="userSpaceOnUse" id="color-7"><stop offset="0" stop-color="#a7a7a7"/><stop offset="1" stop-color="#292929"/></radialGradient><linearGradient x1="257.0477" y1="195.51521" x2="263.71148" y2="185.58268" gradientUnits="userSpaceOnUse" id="color-8"><stop offset="0" stop-color="#242424"/><stop offset="1" stop-color="#373737"/></linearGradient><radialGradient cx="253.59812" cy="194.7859" r="3.52256" gradientUnits="userSpaceOnUse" id="color-9"><stop offset="0" stop-color="#bfbfbf"/><stop offset="1" stop-color="#9a9a9a"/></radialGradient><linearGradient x1="265.36524" y1="185.93651" x2="299.08654" y2="155.48397" gradientUnits="userSpaceOnUse" id="color-10"><stop offset="0" stop-color="#b2b2b2"/><stop offset="1" stop-color="#c4c4c4"/></linearGradient><linearGradient x1="265.82845" y1="186.00243" x2="287.89963" y2="166.07072" gradientUnits="userSpaceOnUse" id="color-11"><stop offset="0" stop-color="#cccccc"/><stop offset="1" stop-color="#d8d8d8"/></linearGradient><linearGradient x1="263.22481" y1="187.32855" x2="265.06456" y2="185.72527" gradientUnits="userSpaceOnUse" id="color-12"><stop offset="0" stop-color="#b5b5b5"/><stop offset="1" stop-color="#c5c5c5"/></linearGradient></defs><g transform="translate(-218.71487,-129.38964)"><g data-paper-data="{&quot;isPaintingLayer&quot;:true}" fill-rule="nonzero" stroke-linejoin="miter" stroke-miterlimit="10" stroke-dasharray="" stroke-dashoffset="0" style="mix-blend-mode: normal"><path d="M223.89598,200.4575l-1.11831,-45.12934l29.92619,-0.74158l1.11831,45.12934z" fill="url(#color-1)" stroke="#ed6b00" stroke-width="0" stroke-linecap="butt"/><g><path d="M226.12337,227.23573l3.75904,-33.71008c0,0 6.75518,-2.18267 9.822,-2.18267c3.62872,0 0.6063,4.24407 0.6063,4.24407c0,0 -3.09204,0.08829 -3.39803,1.52409c-0.93579,4.39099 -2.78619,30.12458 -2.78619,30.12458z" fill="#494949" stroke="#000000" stroke-width="0" stroke-linecap="butt"/><path d="M218.71488,232.15169c0,0 0.61145,-1.46541 0.87307,-1.98866c0.21362,-0.42723 1.67337,-1.04283 1.67337,-1.04283c0,0 2.87078,-0.52826 4.24057,-0.6468c2.3149,-0.20032 8.24914,-0.08075 8.24914,-0.08075c0,0 0.18654,1.78201 0.16433,2.53701c-0.01648,0.56041 -0.2856,1.5858 -0.2856,1.5858c0,0 -0.80978,0.42493 -2.37463,0.77781c-0.84924,0.19151 -2.6127,-0.20879 -3.78777,-0.02896c-0.93338,0.14284 -1.58295,0.71166 -2.83553,0.76063c-2.06025,0.08055 -4.1116,0.06689 -4.70436,0.06689c-0.8269,0 -1.2126,-1.94015 -1.2126,-1.94015z" data-paper-data="{&quot;index&quot;:null}" fill="#141415" stroke="#000000" stroke-width="0" stroke-linecap="butt"/><path d="M218.98577,231.51703c0,0 0.36892,-2.43548 0.63055,-2.95873c0.21362,-0.42723 1.67337,-1.04283 1.67337,-1.04283c0,0 3.23456,-0.52826 4.60434,-0.6468c0.23296,-0.02016 0.35598,-3.60004 0.35598,-3.60004c0,0 3.28733,0.24389 3.72275,0.23408c0.80976,-0.01824 -0.72604,3.24957 0.12091,3.24981c0.48368,0.00014 2.04996,0.7565 2.80058,0.01889c0.83894,-0.82441 1.32529,-3.03123 1.32529,-3.03123l-0.07637,3.04773c0,0 0.06762,0.96834 -0.80847,1.8858c-0.59976,0.62808 -0.39071,1.79073 -1.26542,2.3793c-1.27187,0.85581 -1.43643,0.91707 -1.78458,0.97035c-0.99967,0.15299 -1.27796,-0.61058 -3.58733,-0.44204c-1.10442,0.0806 -0.74527,1.01524 -3.8809,1.26883c-3.3205,0.26854 -2.36989,-1.33311 -2.61811,-1.33311c-0.8269,0 -1.21259,0 -1.21259,0z" data-paper-data="{&quot;index&quot;:null}" fill="#252527" stroke="#000000" stroke-width="0" stroke-linecap="butt"/><path d="M225.00075,227.48709l2.66771,1.09134" data-paper-data="{&quot;index&quot;:null}" fill="none" stroke="#ffffff" stroke-width="0.5" stroke-linecap="round"/><path d="M225.72831,228.94221l-2.54644,-1.45511" data-paper-data="{&quot;index&quot;:null}" fill="none" stroke="#ffffff" stroke-width="0.5" stroke-linecap="round"/><path d="M223.54565,229.18473l-1.45512,-1.45512" data-paper-data="{&quot;index&quot;:null}" fill="none" stroke="#ffffff" stroke-width="0.5" stroke-linecap="round"/><path d="M226.69839,224.45562l2.18267,0.24252" data-paper-data="{&quot;index&quot;:null}" fill="none" stroke="#969696" stroke-width="0.5" stroke-linecap="round"/><path d="M228.39602,225.54695l-1.94015,-0.36378" data-paper-data="{&quot;index&quot;:null}" fill="none" stroke="#969696" stroke-width="0.5" stroke-linecap="round"/></g><g><path d="M245.93091,227.32045c0,0 -1.8504,-25.73359 -2.78619,-30.12458c-0.30599,-1.4358 -3.39803,-1.52409 -3.39803,-1.52409c0,0 -3.02242,-4.24407 0.6063,-4.24407c3.06682,0 9.822,2.18267 9.822,2.18267l3.75904,33.71008z" data-paper-data="{&quot;index&quot;:null}" fill="#494949" stroke="#000000" stroke-width="0" stroke-linecap="butt"/><path d="M259.69259,234.32551c-0.59276,0 -2.64411,0.01365 -4.70436,-0.0669c-1.25258,-0.04897 -1.90215,-0.61779 -2.83553,-0.76063c-1.17507,-0.17982 -2.93854,0.22047 -3.78778,0.02896c-1.56485,-0.35288 -2.37463,-0.77782 -2.37463,-0.77782c0,0 -0.26911,-1.0254 -0.2856,-1.5858c-0.02221,-0.75501 0.16433,-2.53701 0.16433,-2.53701c0,0 5.93425,-0.11957 8.24914,0.08076c1.36979,0.11854 4.24057,0.6468 4.24057,0.6468c0,0 1.45976,0.6156 1.67337,1.04283c0.26162,0.52325 0.87307,1.98865 0.87307,1.98865c0,0 -0.3857,1.94015 -1.21259,1.94015z" data-paper-data="{&quot;index&quot;:null}" fill="#141415" stroke="#000000" stroke-width="0" stroke-linecap="butt"/><path d="M259.4217,231.7507c-0.24822,0 0.7024,1.60165 -2.61811,1.33311c-3.13563,-0.25358 -2.77648,-1.18823 -3.8809,-1.26883c-2.30937,-0.16854 -2.58765,0.59503 -3.58732,0.44205c-0.34815,-0.05328 -0.51271,-0.11454 -1.78459,-0.97035c-0.87472,-0.58857 -0.66566,-1.75122 -1.26542,-2.3793c-0.87609,-0.91745 -0.80847,-1.8858 -0.80847,-1.8858l-0.07637,-3.04773c0,0 0.48635,2.20681 1.32529,3.03122c0.75062,0.73761 2.3169,-0.01875 2.80058,-0.01889c0.84696,-0.00024 -0.68885,-3.26804 0.12091,-3.2498c0.43542,0.00981 3.72275,-0.23409 3.72275,-0.23409c0,0 0.12302,3.57989 0.35598,3.60005c1.36979,0.11854 4.60434,0.6468 4.60434,0.6468c0,0 1.45976,0.6156 1.67338,1.04283c0.26162,0.52325 0.63055,2.95873 0.63055,2.95873c0,0 -0.3857,0 -1.2126,0z" data-paper-data="{&quot;index&quot;:null}" fill="#252527" stroke="#000000" stroke-width="0" stroke-linecap="butt"/><path d="M254.6193,227.72077l-2.6677,1.09133" fill="none" stroke="#ffffff" stroke-width="0.5" stroke-linecap="round"/><path d="M256.4382,227.72077l-2.54645,1.45511" fill="none" stroke="#ffffff" stroke-width="0.5" stroke-linecap="round"/><path d="M256.07442,229.4184l1.45512,-1.45511" fill="none" stroke="#ffffff" stroke-width="0.5" stroke-linecap="round"/><path d="M252.92167,224.68929l-2.18266,0.24252" fill="none" stroke="#969696" stroke-width="0.5" stroke-linecap="round"/><path d="M253.1642,225.41684l-1.94015,0.36378" fill="none" stroke="#969696" stroke-width="0.5" stroke-linecap="round"/></g><g stroke="#000000" stroke-width="0" stroke-linecap="butt"><path d="M258.31056,187.20053c0,0 -0.21244,-3.01428 -1.55,-6.25913c-0.32164,-0.7803 -1.20749,-3.39321 -1.54515,-4.19163c-0.79911,-1.88967 -1.65333,-3.73597 -2.11719,-4.90615c-0.99769,-2.51685 -2.19348,-5.73292 -2.19348,-5.73292c0,0 -2.19711,-6.35613 -1.29547,-6.85043c5.27312,-2.89085 6.37297,4.61411 6.37297,4.61411c0,0 1.77674,4.56623 2.83746,7.24214c0.43169,1.08902 0.23559,2.11824 0.84345,3.82999c0.27249,0.76732 1.00908,4.20955 1.54982,6.29114c0.9003,3.46578 1.78619,5.46874 1.78619,5.46874z" data-paper-data="{&quot;index&quot;:null}" fill="#bdbdbd"/><path d="M264.12953,191.08905c-0.20678,0.02602 0.8798,3.61777 0.01759,3.79337c-0.42408,0.08636 -0.61476,-2.36034 -1.39172,-3.02712c-0.41126,-0.35295 1.36572,4.07085 0.14717,3.87427c-0.41833,-0.0675 -0.95985,-3.46741 -1.55619,-4.16596c-0.31923,-0.37395 1.3051,5.05692 0.49925,4.97055c-0.47838,-0.05127 -0.80225,-3.18981 -1.4376,-4.48173c-0.30953,-0.62939 0.56443,3.83304 -0.04568,3.64913c-0.37346,-0.11258 -1.44029,-4.42562 -1.48835,-4.46555c-0.27007,-0.22449 -0.32818,2.56094 -0.73949,1.99361c-0.75805,-1.04558 -0.19598,-2.65016 0.19487,-4.12305c0.22839,-0.86055 -0.01975,-2.01488 -0.01975,-2.01488c0,0 1.44477,-0.8388 2.23635,-0.92223c0.77074,-0.08123 2.45226,0.42808 2.45226,0.42808c0,0 1.56932,4.4364 1.13127,4.49152z" data-paper-data="{&quot;index&quot;:null}" fill="#777777"/></g><g stroke-linecap="butt"><path d="M235.32852,162.75573l-0.16971,-6.84894l7.6538,-0.18966l0.16971,6.84894z" fill="url(#color-2)" stroke="#000000" stroke-width="0"/><path d="M251.73554,143.0696c0.19151,7.72855 -5.38921,14.13592 -12.4649,14.31124c-7.07568,0.17534 -12.96692,-5.94776 -13.15843,-13.6763c-0.19151,-7.72855 5.38921,-14.13591 12.4649,-14.31123c7.07568,-0.17534 12.96692,5.94775 13.15843,13.67629z" fill="url(#color-3)" stroke="none" stroke-width="0"/><path d="M253.00821,142.41853c0.09277,3.74371 0.24186,8.21029 -9.37722,8.9265c-10.7462,0.80013 -10.22328,-4.69478 -10.31604,-8.4385c-0.09277,-3.74371 4.24052,-6.88784 9.67868,-7.02259c5.43815,-0.13476 9.92185,2.79087 10.01462,6.53459z" data-paper-data="{&quot;index&quot;:null}" fill="url(#color-4)" stroke="#ed6b00" stroke-width="0"/><path d="M231.86413,133.95333c-0.1694,0.01973 -0.60489,0.07722 -1.07513,0.17049c-0.51655,0.22029 -1.12036,0.44561 -1.58099,0.68709c-0.26688,0.89965 0.83161,1.78697 -0.5927,2.49065c-2.42914,1.20012 -1.76653,-1.99573 -0.97265,-3.01368c1.24289,-1.13767 3.11192,-1.3169 4.71583,-1.66633c2.20924,-0.48133 4.35616,-1.19162 6.54754,-1.37999c0.08033,-0.08824 0.19172,-0.1489 0.31957,-0.16366l0.58463,-0.0674c0.29337,-0.08503 0.61225,-0.17383 0.94743,-0.25862c0.86939,-0.29557 1.92009,-0.46395 2.90003,-0.58068c0.47931,-0.10652 0.92957,-0.16197 1.30367,-0.1377c0.2733,-0.02703 0.52747,-0.0524 0.75439,-0.07857l0.6163,-0.07106c0.28071,-0.03237 0.53449,0.16895 0.56685,0.44965c0.0288,0.24984 -0.1275,0.47835 -0.36014,0.5484l-0.32716,0.10559c0.14797,0.11818 0.28294,0.25419 0.40271,0.40985l0.23112,-0.12484l0.31206,0.57766c0.03322,0.05823 0.05547,0.12398 0.06364,0.19478c0.03237,0.28071 -0.16895,0.53449 -0.44964,0.56684c-0.08537,0.00984 -0.16824,-0.00192 -0.24316,-0.03097l-0.51179,-0.18616l0.00548,-0.01506l-0.04795,-0.00258c-0.36752,-0.2147 -0.73997,-0.37427 -1.1106,-0.47941c-0.5598,-0.00619 -1.14966,-0.05275 -1.75058,-0.08686c-1.01001,0.19958 -1.91293,0.85012 -2.54326,1.93457c0,0 -0.25807,0.44177 -0.69982,0.18369c-0.44176,-0.25807 -0.1837,-0.69983 -0.1837,-0.69983c0.05519,-0.09405 0.1123,-0.18561 0.17124,-0.27466l-0.28159,0.09754c-0.03767,0.01393 -0.0776,0.02362 -0.11929,0.02843c-0.28071,0.03237 -0.53449,-0.16895 -0.56684,-0.44965c-0.01638,-0.14207 0.02709,-0.27723 0.11042,-0.38028c-0.24502,0.00656 -0.47611,0.02564 -0.67175,0.07907c-1.36642,0.3732 -3.47537,0.53825 -5.46012,0.89339c0.01718,0.2409 -0.13664,0.45788 -0.36224,0.52582l-0.59307,0.1914l-0.00619,-0.01916l-0.00742,0.00212z" fill="url(#color-5)" stroke="none" stroke-width="0.5"/><path d="M246.86111,129.84953c2.70108,-0.3512 2.67873,-0.30995 2.93885,1.51439c0.26012,1.82433 -0.69842,3.3802 -2.14096,3.47512c-1.44255,0.09493 -2.82284,-1.30703 -3.08296,-3.13137c-0.26012,-1.82433 -0.24778,-1.52882 2.28508,-1.85815z" data-paper-data="{&quot;index&quot;:null}" fill="url(#color-6)" stroke="#000000" stroke-width="0"/><path d="M240.30954,132.69356c0.40677,1.98195 -1.07665,3.96079 -3.31333,4.41983c-2.23666,0.45904 -4.3796,-0.77552 -4.78637,-2.75747c-0.40677,-1.98195 -0.45895,-2.01587 3.80538,-2.69652c3.99876,-0.63827 3.88754,-0.94778 4.29431,1.03417z" fill="url(#color-7)" stroke="#000000" stroke-width="0"/></g><path d="M229.81028,193.57392c0,0 0.02931,-5.56213 -0.62368,-10.93172c-0.44369,-3.6486 -1.5767,-6.92226 -1.79532,-9.4118c-0.41035,-4.6726 -0.54195,-13.37291 -0.54195,-13.37291c0,0 3.67616,-0.67604 5.46231,-0.35399c2.27366,0.40995 7.07349,2.61424 7.07349,2.61424c0,0 3.62199,-2.26103 5.52452,-2.72456c2.00741,-0.48909 6.2222,-0.13742 6.2222,-0.13742c0,0 0.1593,9.21599 0.08671,12.65802c-0.06423,3.04537 -0.73154,6.38819 -0.91375,10.89891c-0.18779,4.64904 0.11037,10.42201 0.11037,10.42201c0,0 -2.77519,-0.70079 -5.5909,-0.69925c-1.27871,0.0007 -1.76578,1.05018 -2.96872,1.23925c-0.96151,0.15111 -2.6506,-0.54742 -3.57607,-0.56125c-0.69962,-0.01046 -2.05628,-0.47981 -2.55048,-0.47167c-0.99785,0.01642 -1.59379,0.90505 -2.74721,1.09303c-1.33984,0.21836 -3.17154,-0.2609 -3.17154,-0.2609z" fill="#d0d0d0" stroke="#292e32" stroke-width="0" stroke-linecap="butt"/><path d="M242.3305,170.17228l-0.26541,-5.81566l7.64601,0.17442l0.12917,5.21255z" fill="#f200ff" stroke="none" stroke-width="0" stroke-linecap="butt"/><g stroke="none" stroke-width="0" stroke-linecap="butt"><path d="M257.95987,196.1272l-3.37414,-3.73343l8.21354,-7.42304l3.37414,3.73344z" fill="url(#color-8)"/><path d="M257.23481,192.07502c1.61553,1.08389 2.04655,3.2722 0.96267,4.88772c-1.08388,1.61555 -3.2722,2.04655 -4.88773,0.96267c-1.61555,-1.08389 -2.04656,-3.27219 -0.96267,-4.88773c1.08388,-1.61555 3.2722,-2.04655 4.88774,-0.96267z" fill="url(#color-9)"/><path d="M268.48241,189.38825l-6.23439,-6.90358l34.75301,-28.82542l7.38935,-3.48694l-4.00798,7.00762z" fill="url(#color-10)"/><path d="M267.86869,188.26171l-4.37058,-4.72786l29.09352,-23.99251l8.34805,-5.92485l-6.50568,7.5203z" fill="url(#color-11)"/><path d="M258.92763,175.35057c0,0 3.69584,7.10226 6.25027,10.11285c2.80468,3.30549 9.89724,8.91813 9.89724,8.91813c0,0 -9.08862,-4.19602 -11.8088,-7.40194c-2.66102,-3.13617 -4.33868,-11.62906 -4.33868,-11.62906z" fill="url(#color-12)"/></g><g stroke="#000000" stroke-width="0" stroke-linecap="butt"><path d="M245.30528,191.81805c0,0 -1.51111,-2.18503 -4.62025,-5.17233c-1.86739,-1.7942 -5.07859,-4.56347 -5.70977,-5.31664c-1.40806,-1.68015 -2.6936,-1.98586 -3.55426,-3.1112c-2.1148,-2.76513 -5.74956,-7.44178 -5.74956,-7.44178c0,0 -7.5933,-5.80796 -0.05605,-11.11632c1.20327,-0.84744 6.48501,5.94538 6.48501,5.94538c0,0 2.60347,3.22411 4.59254,5.82487c0.92479,1.20919 2.28831,3.27053 3.74262,5.28598c0.61447,0.85157 2.79664,3.36352 3.40367,4.18531c2.52432,3.41738 5.6744,5.29971 5.6744,5.29971z" fill="#bdbdbd"/><path d="M249.47914,195.7275c-0.40173,0.52097 -4.0665,-3.81686 -4.0665,-3.81686c0,0 0.74814,-2.38436 1.43765,-3.3094c0.70816,-0.95008 2.75686,-2.31796 2.75686,-2.31796c0,0 1.07826,0.9274 2.20392,1.09944c1.92664,0.29444 4.13161,0.44402 4.69311,1.95412c0.30468,0.81936 -2.8086,-0.59321 -2.7716,-0.13415c0.00659,0.08168 3.92667,3.72237 3.75993,4.25164c-0.2724,0.86463 -4.50719,-2.61341 -4.05492,-1.88884c0.92835,1.4873 4.1332,3.56812 3.81724,4.19651c-0.53225,1.05857 -5.24956,-3.87876 -5.08619,-3.27824c0.30516,1.12181 3.62845,3.61548 3.3771,4.1771c-0.73214,1.63587 -4.22135,-2.95617 -4.15278,-2.25119c0.12954,1.33182 2.67603,2.87631 2.25075,3.36308c-0.86467,0.98966 -3.97492,-2.29115 -4.16456,-2.04524z" data-paper-data="{&quot;index&quot;:null}" fill="#777777"/></g></g></g></svg>