<svg version="1.1" xmlns="http://www.w3.org/2000/svg" xmlns:xlink="http://www.w3.org/1999/xlink" width="65.42289" height="64.90928" viewBox="0,0,65.42289,64.90928"><defs><linearGradient x1="240.00006" y1="149.04536" x2="240.00006" y2="210.95464" gradientUnits="userSpaceOnUse" id="color-1"><stop offset="0" stop-color="#06261d"/><stop offset="1" stop-color="#00110e"/></linearGradient><linearGradient x1="240.00006" y1="149.04536" x2="240.00006" y2="210.95464" gradientUnits="userSpaceOnUse" id="color-2"><stop offset="0" stop-color="#c5ffd7"/><stop offset="1" stop-color="#6fb696"/></linearGradient><radialGradient cx="240" cy="180" r="29.8557" gradientUnits="userSpaceOnUse" id="color-3"><stop offset="0" stop-color="#ffffff" stop-opacity="0.35484"/><stop offset="1" stop-color="#ffffff" stop-opacity="0"/></radialGradient><linearGradient x1="240" y1="150.31016" x2="240" y2="209.68984" gradientUnits="userSpaceOnUse" id="color-4"><stop offset="0" stop-color="#cccccc"/><stop offset="1" stop-color="#898989"/></linearGradient><radialGradient cx="240" cy="180" r="24.7601" gradientUnits="userSpaceOnUse" id="color-5"><stop offset="0" stop-color="#000000"/><stop offset="1" stop-color="#474747"/></radialGradient><linearGradient x1="240" y1="154.78497" x2="240" y2="205.21503" gradientUnits="userSpaceOnUse" id="color-6"><stop offset="0" stop-color="#1c1c1c"/><stop offset="1" stop-color="#050505"/></linearGradient><radialGradient cx="259.39822" cy="193.03224" r="3.24305" gradientUnits="userSpaceOnUse" id="color-7"><stop offset="0" stop-color="#b4fdff"/><stop offset="1" stop-color="#66ebff"/></radialGradient><radialGradient cx="259.39822" cy="163.6046" r="3.24305" gradientUnits="userSpaceOnUse" id="color-8"><stop offset="0" stop-color="#b4fdff"/><stop offset="1" stop-color="#66ebff"/></radialGradient><radialGradient cx="247.38899" cy="175.736" r="13.81297" gradientUnits="userSpaceOnUse" id="color-9"><stop offset="0" stop-color="#a27db7"/><stop offset="1" stop-color="#6f6696"/></radialGradient><radialGradient cx="222.16528" cy="170.93149" r="14.47365" gradientUnits="userSpaceOnUse" id="color-10"><stop offset="0" stop-color="#433c50"/><stop offset="1" stop-color="#2b2633"/></radialGradient><radialGradient cx="231.89442" cy="192.91213" r="11.59089" gradientUnits="userSpaceOnUse" id="color-11"><stop offset="0" stop-color="#26222a"/><stop offset="1" stop-color="#141217"/></radialGradient><radialGradient cx="250.3918" cy="193.03224" r="6.4861" gradientUnits="userSpaceOnUse" id="color-12"><stop offset="0" stop-color="#6a6777"/><stop offset="1" stop-color="#3d3648"/></radialGradient><radialGradient cx="232.97544" cy="163.6046" r="11.59089" gradientUnits="userSpaceOnUse" id="color-13"><stop offset="0" stop-color="#26222a"/><stop offset="1" stop-color="#141217"/></radialGradient><radialGradient cx="250.87226" cy="160.84201" r="6.4861" gradientUnits="userSpaceOnUse" id="color-14"><stop offset="0" stop-color="#6a6777"/><stop offset="1" stop-color="#3d3648"/></radialGradient><radialGradient cx="226.72957" cy="169.85047" r="7.3165" gradientUnits="userSpaceOnUse" id="color-15"><stop offset="0" stop-color="#655dff"/><stop offset="1" stop-color="#6200ff"/></radialGradient><radialGradient cx="243.42526" cy="180.06006" r="7.3165" gradientUnits="userSpaceOnUse" id="color-16"><stop offset="0" stop-color="#8d87ff"/><stop offset="1" stop-color="#6200ff"/></radialGradient><radialGradient cx="225.04799" cy="189.7892" r="7.3165" gradientUnits="userSpaceOnUse" id="color-17"><stop offset="0" stop-color="#8d87ff"/><stop offset="1" stop-color="#6200ff"/></radialGradient><radialGradient cx="256.73046" cy="186.72227" r="3.66227" gradientUnits="userSpaceOnUse" id="color-18"><stop offset="0" stop-color="#ffcaca"/><stop offset="1" stop-color="#ff0000"/></radialGradient><radialGradient cx="255.76957" cy="185.88149" r="3.66227" gradientUnits="userSpaceOnUse" id="color-19"><stop offset="0" stop-color="#ff4a4a"/><stop offset="1" stop-color="#750000"/></radialGradient><radialGradient cx="256.61036" cy="172.66908" r="3.66229" gradientUnits="userSpaceOnUse" id="color-20"><stop offset="0" stop-color="#ffcaca"/><stop offset="1" stop-color="#ff0000"/></radialGradient><radialGradient cx="255.76957" cy="171.10761" r="3.66229" gradientUnits="userSpaceOnUse" id="color-21"><stop offset="0" stop-color="#ff4a4a"/><stop offset="1" stop-color="#750000"/></radialGradient><radialGradient cx="254.87673" cy="179.39323" r="3.80254" gradientUnits="userSpaceOnUse" id="color-22"><stop offset="0" stop-color="#ffcaca"/><stop offset="1" stop-color="#ff0000"/></radialGradient><radialGradient cx="254.15606" cy="178.67254" r="3.80254" gradientUnits="userSpaceOnUse" id="color-23"><stop offset="0" stop-color="#ff4a4a"/><stop offset="1" stop-color="#750000"/></radialGradient></defs><g transform="translate(-207.28861,-147.54536)"><g data-paper-data="{&quot;isPaintingLayer&quot;:true}" fill-rule="nonzero" stroke-linecap="butt" stroke-linejoin="miter" stroke-miterlimit="10" stroke-dasharray="" stroke-dashoffset="0" style="mix-blend-mode: normal"><path d="M208.78862,210.95464v-61.90928h62.42289v61.90928z" fill="url(#color-1)" stroke="url(#color-2)" stroke-width="3"/><path d="M269.8557,180c0,16.39724 -13.36685,29.68983 -29.8557,29.68983c-16.48885,0 -29.8557,-13.29259 -29.8557,-29.68983c0,-16.39724 13.36685,-29.68983 29.8557,-29.68983c16.48885,0 29.8557,13.29259 29.8557,29.68983z" fill="url(#color-3)" stroke="url(#color-4)" stroke-width="0"/><path d="M215.70833,205.21503v-50.43007h48.58333v50.43007z" fill="url(#color-5)" stroke="url(#color-6)" stroke-width="2.5"/><path d="M258.67755,197.95687v-6.4861h2.28214v6.4861z" fill="url(#color-7)" stroke="none" stroke-width="NaN"/><path d="M258.67755,168.52922v-6.4861h2.28214v6.4861z" fill="url(#color-8)" stroke="none" stroke-width="NaN"/><path d="M250.12014,180.29418c0,7.6287 6.14223,13.57275 2.16203,13.57275c-3.9802,0 -7.20677,-6.18429 -7.20677,-13.81297c0,-7.6287 3.22658,-13.81297 7.20677,-13.81297c3.9802,0 -2.16203,6.42451 -2.16203,14.0532z" fill="url(#color-9)" stroke="none" stroke-width="0"/><path d="M223.75538,192.78592c0,0 -5.19344,-0.14518 -5.16486,-12.84597c0.02608,-11.58547 5.6453,-12.73806 5.6453,-12.73806h23.3019c0,0 -1.32124,8.27446 -1.32124,12.49784c0,4.34143 1.32124,13.20631 1.32124,13.20631z" fill="url(#color-10)" stroke="none" stroke-width="0"/><path d="M224.08709,195.55461v-2.76259h23.18177v5.52519z" fill="url(#color-11)" stroke="#000000" stroke-width="0"/><path d="M247.14875,198.1971c0,-2.23574 0,-8.16767 0,-8.16767c0,0 5.69275,0 8.04756,0c1.84209,0 4.92462,1.28602 4.92462,2.04192c0,0.77513 0,1.02996 0,1.8017c0,2.23836 -2.05947,8.28778 -4.32406,8.28778c-1.9039,0 -3.95277,0 -5.04473,0c-1.48271,0 -3.60338,-2.40623 -3.60338,-3.96372z" fill="url(#color-12)" stroke="none" stroke-width="0"/><path d="M247.38899,161.68279v5.52519h-23.18177v-2.76259z" data-paper-data="{&quot;index&quot;:null}" fill="url(#color-13)" stroke="#000000" stroke-width="0"/><path d="M250.87226,157.83918c1.09196,0 3.14085,0 5.04473,0c2.2646,0 4.32406,6.04943 4.32406,8.28778c0,0.77174 0,1.02656 0,1.8017c0,0.75589 -3.08254,2.04192 -4.92462,2.04192c-2.35481,0 -8.04756,0 -8.04756,0c0,0 0,-5.93193 0,-8.16767c0,-1.55749 2.12068,-3.96372 3.60338,-3.96372z" data-paper-data="{&quot;index&quot;:null}" fill="url(#color-14)" stroke="none" stroke-width="0"/><path d="M229.68303,183.78319c-4.04049,-0.04974 -7.27561,-3.36555 -7.22586,-7.40602c0.04974,-4.04049 3.36555,-7.27561 7.40602,-7.22586c4.04049,0.04974 7.27561,3.36555 7.22586,7.40602c-0.04974,4.04049 -3.36555,7.27561 -7.40602,7.22586z" fill="none" stroke="url(#color-15)" stroke-width="1"/><path d="M236.06578,187.63117c-4.04049,-0.04974 -7.27561,-3.36555 -7.22586,-7.40602c0.04974,-4.04049 3.36555,-7.27561 7.40602,-7.22586c4.04049,0.04974 7.27561,3.36555 7.22586,7.40602c-0.04974,4.04049 -3.36555,7.27561 -7.40602,7.22586z" fill="none" stroke="url(#color-16)" stroke-width="1"/><path d="M229.59568,190.87744c-4.04049,-0.04974 -7.27561,-3.36555 -7.22586,-7.40602c0.04974,-4.04049 3.36555,-7.27561 7.40602,-7.22586c4.04049,0.04974 7.27561,3.36555 7.22586,7.40602c-0.04974,4.04049 -3.36555,7.27561 -7.40602,7.22586z" fill="none" stroke="url(#color-17)" stroke-width="1"/><path d="M255.5423,185.99175l2.90186,-0.78746l2.60508,0.8203l-1.83306,2.02466l-2.90186,0.78746l-2.58965,-0.76341z" fill="url(#color-18)" stroke="url(#color-19)" stroke-width="0.5"/><path d="M254.08503,172.03461l2.58963,-0.76341l2.90186,0.78746l1.83306,2.02466l-2.60509,0.8203l-2.90186,-0.78746z" data-paper-data="{&quot;index&quot;:null}" fill="url(#color-20)" stroke="url(#color-21)" stroke-width="0.5"/><path d="M252.08302,180.07304l2.2698,-1.46185l3.00618,-0.0617l2.32909,1.42643l-2.26861,1.5208l-3.00618,0.0617z" data-paper-data="{&quot;index&quot;:null}" fill="url(#color-22)" stroke="url(#color-23)" stroke-width="0.5"/><path d="M211.15777,160.00635v-8.5h34.6v8.5z" fill-opacity="0.4902" fill="#08130e" stroke="none" stroke-width="0"/><text transform="translate(211.90777,158.35305) scale(0.17331,0.17331)" font-size="40" xml:space="preserve" fill="#c1ffe1" fill-rule="nonzero" stroke="none" stroke-width="1" stroke-linecap="butt" stroke-linejoin="miter" stroke-miterlimit="10" stroke-dasharray="" stroke-dashoffset="0" font-family="Pixel" font-weight="normal" text-anchor="start" style="mix-blend-mode: normal"><tspan x="0" dy="0">Wormhole</tspan></text><path d="M211.15777,168.33968v-8.5h40.6v8.5z" fill-opacity="0.4902" fill="#08130e" stroke="none" stroke-width="0"/><text transform="translate(211.90777,166.68638) scale(0.17331,0.17331)" font-size="40" xml:space="preserve" fill="#c1ffe1" fill-rule="nonzero" stroke="none" stroke-width="1" stroke-linecap="butt" stroke-linejoin="miter" stroke-miterlimit="10" stroke-dasharray="" stroke-dashoffset="0" font-family="Pixel" font-weight="normal" text-anchor="start" style="mix-blend-mode: normal"><tspan x="0" dy="0">Generator</tspan></text></g></g></svg>