<svg version="1.1" xmlns="http://www.w3.org/2000/svg" xmlns:xlink="http://www.w3.org/1999/xlink" width="41.10586" height="41.91635" viewBox="0,0,41.10586,41.91635"><defs><linearGradient x1="240" y1="159.04182" x2="240" y2="200.95818" gradientUnits="userSpaceOnUse" id="color-1"><stop offset="0" stop-color="#d7b5ff" stop-opacity="0.48235"/><stop offset="1" stop-color="#493b61" stop-opacity="0.75686"/></linearGradient></defs><g transform="translate(-219.44707,-159.04183)"><g data-paper-data="{&quot;isPaintingLayer&quot;:true}" fill-rule="nonzero" stroke="none" stroke-linecap="butt" stroke-linejoin="miter" stroke-miterlimit="10" stroke-dasharray="" stroke-dashoffset="0" style="mix-blend-mode: normal"><path d="M219.44707,200.95818v-41.91635h41.10586v41.91635z" fill="url(#color-1)" stroke-width="0"/><path d="M236.16793,180c0,-2.1164 1.71567,-3.83207 3.83207,-3.83207c2.1164,0 3.83207,1.71567 3.83207,3.83207c0,2.1164 -1.71567,3.83207 -3.83207,3.83207c-2.1164,0 -3.83207,-1.71567 -3.83207,-3.83207z" fill="#ffffff" stroke-width="0.5"/><path d="M247.61514,180c0,-2.11639 1.71568,-3.83207 3.83207,-3.83207c2.11639,0 3.83207,1.71568 3.83207,3.83207c0,2.11639 -1.71568,3.83207 -3.83207,3.83207c-2.11639,0 -3.83207,-1.71568 -3.83207,-3.83207z" fill="#ffffff" stroke-width="0.5"/><path d="M224.72073,180c0,-2.11639 1.71568,-3.83207 3.83207,-3.83207c2.11639,0 3.83207,1.71568 3.83207,3.83207c0,2.11639 -1.71568,3.83207 -3.83207,3.83207c-2.11639,0 -3.83207,-1.71568 -3.83207,-3.83207z" fill="#ffffff" stroke-width="0.5"/></g></g></svg>