<svg version="1.1" xmlns="http://www.w3.org/2000/svg" xmlns:xlink="http://www.w3.org/1999/xlink" width="59" height="59.70662" viewBox="0,0,59,59.70662"><defs><linearGradient x1="240" y1="151.64669" x2="240" y2="208.35331" gradientUnits="userSpaceOnUse" id="color-1"><stop offset="0" stop-color="#191919"/><stop offset="1" stop-color="#050505"/></linearGradient><linearGradient x1="240" y1="151.64669" x2="240" y2="208.35331" gradientUnits="userSpaceOnUse" id="color-2"><stop offset="0" stop-color="#cccccc"/><stop offset="1" stop-color="#898989"/></linearGradient><radialGradient cx="240" cy="180" r="26.8571" gradientUnits="userSpaceOnUse" id="color-3"><stop offset="0" stop-color="#ffffff" stop-opacity="0.35484"/><stop offset="1" stop-color="#ffffff" stop-opacity="0"/></radialGradient><linearGradient x1="240" y1="153.2921" x2="240" y2="206.70789" gradientUnits="userSpaceOnUse" id="color-4"><stop offset="0" stop-color="#cccccc"/><stop offset="1" stop-color="#898989"/></linearGradient><radialGradient cx="240" cy="180" r="21.78719" gradientUnits="userSpaceOnUse" id="color-5"><stop offset="0" stop-color="#000000"/><stop offset="1" stop-color="#474747"/></radialGradient><linearGradient x1="240" y1="157.8125" x2="240" y2="202.1875" gradientUnits="userSpaceOnUse" id="color-6"><stop offset="0" stop-color="#1c1c1c"/><stop offset="1" stop-color="#050505"/></linearGradient><radialGradient cx="257.0691" cy="191.46748" r="2.85366" gradientUnits="userSpaceOnUse" id="color-7"><stop offset="0" stop-color="#b4fdff"/><stop offset="1" stop-color="#66ebff"/></radialGradient><radialGradient cx="257.0691" cy="165.57317" r="2.85366" gradientUnits="userSpaceOnUse" id="color-8"><stop offset="0" stop-color="#b4fdff"/><stop offset="1" stop-color="#66ebff"/></radialGradient><radialGradient cx="246.5018" cy="176.24797" r="12.15447" gradientUnits="userSpaceOnUse" id="color-9"><stop offset="0" stop-color="#a27db7"/><stop offset="1" stop-color="#6f6696"/></radialGradient><radialGradient cx="224.30667" cy="172.02033" r="12.73582" gradientUnits="userSpaceOnUse" id="color-10"><stop offset="0" stop-color="#433c50"/><stop offset="1" stop-color="#2b2633"/></radialGradient><radialGradient cx="232.86765" cy="191.36179" r="10.19919" gradientUnits="userSpaceOnUse" id="color-11"><stop offset="0" stop-color="#26222a"/><stop offset="1" stop-color="#141217"/></radialGradient><radialGradient cx="249.14407" cy="191.46748" r="5.70732" gradientUnits="userSpaceOnUse" id="color-12"><stop offset="0" stop-color="#6a6777"/><stop offset="1" stop-color="#3d3648"/></radialGradient><radialGradient cx="233.81887" cy="165.57317" r="10.19919" gradientUnits="userSpaceOnUse" id="color-13"><stop offset="0" stop-color="#26222a"/><stop offset="1" stop-color="#141217"/></radialGradient><radialGradient cx="249.56684" cy="163.14228" r="5.70732" gradientUnits="userSpaceOnUse" id="color-14"><stop offset="0" stop-color="#6a6777"/><stop offset="1" stop-color="#3d3648"/></radialGradient><radialGradient cx="228.32293" cy="171.06911" r="6.43802" gradientUnits="userSpaceOnUse" id="color-15"><stop offset="0" stop-color="#655dff"/><stop offset="1" stop-color="#6200ff"/></radialGradient><radialGradient cx="243.01399" cy="180.05285" r="6.43802" gradientUnits="userSpaceOnUse" id="color-16"><stop offset="0" stop-color="#8d87ff"/><stop offset="1" stop-color="#6200ff"/></radialGradient><radialGradient cx="226.84326" cy="188.61382" r="6.43802" gradientUnits="userSpaceOnUse" id="color-17"><stop offset="0" stop-color="#8d87ff"/><stop offset="1" stop-color="#6200ff"/></radialGradient><radialGradient cx="254.72167" cy="185.91514" r="3.22255" gradientUnits="userSpaceOnUse" id="color-18"><stop offset="0" stop-color="#ffcaca"/><stop offset="1" stop-color="#ff0000"/></radialGradient><radialGradient cx="253.87614" cy="185.17531" r="3.22255" gradientUnits="userSpaceOnUse" id="color-19"><stop offset="0" stop-color="#ff4a4a"/><stop offset="1" stop-color="#750000"/></radialGradient><radialGradient cx="254.61598" cy="173.54929" r="3.22256" gradientUnits="userSpaceOnUse" id="color-20"><stop offset="0" stop-color="#ffcaca"/><stop offset="1" stop-color="#ff0000"/></radialGradient><radialGradient cx="253.87614" cy="172.17531" r="3.22256" gradientUnits="userSpaceOnUse" id="color-21"><stop offset="0" stop-color="#ff4a4a"/><stop offset="1" stop-color="#750000"/></radialGradient><radialGradient cx="253.0905" cy="179.46608" r="3.34597" gradientUnits="userSpaceOnUse" id="color-22"><stop offset="0" stop-color="#ffcaca"/><stop offset="1" stop-color="#ff0000"/></radialGradient><radialGradient cx="252.45636" cy="178.83193" r="3.34597" gradientUnits="userSpaceOnUse" id="color-23"><stop offset="0" stop-color="#ff4a4a"/><stop offset="1" stop-color="#750000"/></radialGradient></defs><g transform="translate(-210.5,-150.14669)"><g data-paper-data="{&quot;isPaintingLayer&quot;:true}" fill-rule="nonzero" stroke-linecap="butt" stroke-linejoin="miter" stroke-miterlimit="10" stroke-dasharray="" stroke-dashoffset="0" style="mix-blend-mode: normal"><path d="M212,208.35331v-56.70662h56v56.70662z" fill="url(#color-1)" stroke="url(#color-2)" stroke-width="3"/><path d="M266.8571,180c0,14.75036 -12.02433,26.70789 -26.8571,26.70789c-14.83277,0 -26.8571,-11.95753 -26.8571,-26.70789c0,-14.75036 12.02433,-26.70789 26.8571,-26.70789c14.83277,0 26.8571,11.95753 26.8571,26.70789z" fill="url(#color-3)" stroke="url(#color-4)" stroke-width="0"/><path d="M218.625,202.1875v-44.375h42.75v44.375z" fill="url(#color-5)" stroke="url(#color-6)" stroke-width="2.5"/><path d="M256.43496,195.80081v-5.70732h2.00813v5.70732z" fill="url(#color-7)" stroke="none" stroke-width="NaN"/><path d="M256.43496,169.9065v-5.70732h2.00813v5.70732z" fill="url(#color-8)" stroke="none" stroke-width="NaN"/><path d="M248.90503,180.25886c0,6.71273 5.40474,11.94309 1.90244,11.94309c-3.5023,0 -6.34146,-5.44175 -6.34146,-12.15447c0,-6.71273 2.83917,-12.15447 6.34146,-12.15447c3.5023,0 -1.90244,5.65313 -1.90244,12.36585z" fill="url(#color-9)" stroke="none" stroke-width="0"/><path d="M225.70585,191.25073c0,0 -4.56987,-0.12775 -4.54472,-11.30357c0.02295,-10.19442 4.96748,-11.20862 4.96748,-11.20862h20.50407c0,0 -1.1626,7.28096 -1.1626,10.99724c0,3.82016 1.1626,11.62065 1.1626,11.62065z" fill="url(#color-10)" stroke="none" stroke-width="0"/><path d="M225.99773,193.68699v-2.43089h20.39837v4.86179z" fill="url(#color-11)" stroke="#000000" stroke-width="0"/><path d="M246.29041,196.0122c0,-1.9673 0,-7.18699 0,-7.18699c0,0 5.00923,0 7.0813,0c1.62091,0 4.33333,1.13161 4.33333,1.79675c0,0.68206 0,0.90629 0,1.58537c0,1.9696 -1.81219,7.29268 -3.80488,7.29268c-1.6753,0 -3.47817,0 -4.43902,0c-1.30468,0 -3.17073,-2.11732 -3.17073,-3.4878z" fill="url(#color-12)" stroke="none" stroke-width="0"/><path d="M246.5018,163.88211v4.86179h-20.39837v-2.43089z" data-paper-data="{&quot;index&quot;:null}" fill="url(#color-13)" stroke="#000000" stroke-width="0"/><path d="M249.56684,160.5c0.96085,0 2.76373,0 4.43902,0c1.99269,0 3.80488,5.32308 3.80488,7.29268c0,0.67908 0,0.9033 0,1.58537c0,0.66513 -2.71242,1.79675 -4.33333,1.79675c-2.07207,0 -7.0813,0 -7.0813,0c0,0 0,-5.21969 0,-7.18699c0,-1.37048 1.86605,-3.4878 3.17073,-3.4878z" data-paper-data="{&quot;index&quot;:null}" fill="url(#color-14)" stroke="none" stroke-width="0"/><path d="M230.92177,183.32895c-3.55535,-0.04377 -6.40204,-2.96145 -6.35826,-6.51679c0.04377,-3.55535 2.96145,-6.40204 6.51679,-6.35826c3.55535,0.04377 6.40204,2.96145 6.35826,6.51679c-0.04377,3.55535 -2.96145,6.40204 -6.51679,6.35826z" fill="none" stroke="url(#color-15)" stroke-width="1"/><path d="M236.53816,186.71491c-3.55535,-0.04377 -6.40204,-2.96145 -6.35826,-6.51679c0.04377,-3.55535 2.96145,-6.40204 6.51679,-6.35826c3.55535,0.04377 6.40204,2.96145 6.35826,6.51679c-0.04377,3.55535 -2.96145,6.40204 -6.51679,6.35826z" fill="none" stroke="url(#color-16)" stroke-width="1"/><path d="M230.84491,189.5714c-3.55535,-0.04377 -6.40204,-2.96145 -6.35826,-6.51679c0.04377,-3.55535 2.96145,-6.40204 6.51679,-6.35826c3.55535,0.04377 6.40204,2.96145 6.35826,6.51679c-0.04377,3.55535 -2.96145,6.40204 -6.51679,6.35826z" fill="none" stroke="url(#color-17)" stroke-width="1"/><path d="M253.67616,185.27233l2.55344,-0.69291l2.29229,0.72181l-1.61297,1.78156l-2.55344,0.69291l-2.27871,-0.67175z" fill="url(#color-18)" stroke="url(#color-19)" stroke-width="0.5"/><path d="M252.39386,172.991l2.2787,-0.67175l2.55344,0.69291l1.61297,1.78156l-2.2923,0.72181l-2.55344,-0.69291z" data-paper-data="{&quot;index&quot;:null}" fill="url(#color-20)" stroke="url(#color-21)" stroke-width="0.5"/><path d="M250.63223,180.06427l1.99727,-1.28633l2.64523,-0.05429l2.04944,1.25516l-1.99622,1.3382l-2.64523,0.05429z" data-paper-data="{&quot;index&quot;:null}" fill="url(#color-22)" stroke="url(#color-23)" stroke-width="0.5"/><path d="M215.27327,163.339v-8.69862h37.91677v8.69862z" fill-opacity="0.53453" fill="#000000" stroke="#a60000" stroke-width="0"/><text transform="translate(215.70712,161.61518) scale(0.21839,0.21839)" font-size="40" xml:space="preserve" fill="#ffffff" fill-rule="nonzero" stroke="none" stroke-width="1" stroke-linecap="butt" stroke-linejoin="miter" stroke-miterlimit="10" stroke-dasharray="" stroke-dashoffset="0" font-family="Serif" font-weight="normal" text-anchor="start" style="mix-blend-mode: normal"><tspan x="0" dy="0">Wormhole</tspan></text><path d="M215.27327,171.964v-8.69862h36.29177v8.69862z" fill-opacity="0.53453" fill="#000000" stroke="#a60000" stroke-width="0"/><text transform="translate(215.70712,170.24018) scale(0.21839,0.21839)" font-size="40" xml:space="preserve" fill="#ffffff" fill-rule="nonzero" stroke="none" stroke-width="1" stroke-linecap="butt" stroke-linejoin="miter" stroke-miterlimit="10" stroke-dasharray="" stroke-dashoffset="0" font-family="Serif" font-weight="normal" text-anchor="start" style="mix-blend-mode: normal"><tspan x="0" dy="0">Generator</tspan></text></g></g></svg>