<svg version="1.1" xmlns="http://www.w3.org/2000/svg" xmlns:xlink="http://www.w3.org/1999/xlink" width="14.01383" height="14.33262" viewBox="0,0,14.01383,14.33262"><defs><radialGradient cx="239.99999" cy="180.00001" r="6.49146" gradientUnits="userSpaceOnUse" id="color-1"><stop offset="0" stop-color="#734545" stop-opacity="0.30998"/><stop offset="1" stop-color="#734545" stop-opacity="0"/></radialGradient><radialGradient cx="239.99999" cy="180.00001" r="5.27013" gradientUnits="userSpaceOnUse" id="color-2"><stop offset="0" stop-color="#eb7373" stop-opacity="0.62996"/><stop offset="1" stop-color="#eb7373" stop-opacity="0"/></radialGradient><radialGradient cx="239.99999" cy="180.00001" r="4.46159" gradientUnits="userSpaceOnUse" id="color-3"><stop offset="0" stop-color="#ff4f4f"/><stop offset="1" stop-color="#ff4f4f" stop-opacity="0"/></radialGradient><radialGradient cx="239.99999" cy="180.00001" r="3.66879" gradientUnits="userSpaceOnUse" id="color-4"><stop offset="0" stop-color="#ea3939"/><stop offset="1" stop-color="#bd4b4b"/></radialGradient><linearGradient x1="233.03843" y1="182.31773" x2="232.87846" y2="181.73899" gradientUnits="userSpaceOnUse" id="color-5"><stop offset="0" stop-color="#7b6f80"/><stop offset="1" stop-color="#382c3f"/></linearGradient><linearGradient x1="233.4831" y1="182.31998" x2="233.25743" y2="181.50354" gradientUnits="userSpaceOnUse" id="color-6"><stop offset="0" stop-color="#ababab"/><stop offset="1" stop-color="#7e7e7e"/></linearGradient><linearGradient x1="233.38933" y1="181.98077" x2="233.35034" y2="181.83967" gradientUnits="userSpaceOnUse" id="color-7"><stop offset="0" stop-color="#323232"/><stop offset="1" stop-color="#232323"/></linearGradient><linearGradient x1="233.32972" y1="181.76511" x2="233.2992" y2="181.65468" gradientUnits="userSpaceOnUse" id="color-8"><stop offset="0" stop-color="#272727"/><stop offset="1" stop-color="#191919"/></linearGradient><linearGradient x1="233.44132" y1="182.16884" x2="233.4108" y2="182.05843" gradientUnits="userSpaceOnUse" id="color-9"><stop offset="0" stop-color="#393939"/><stop offset="1" stop-color="#323232"/></linearGradient><linearGradient x1="233.2834" y1="181.59748" x2="233.26574" y2="181.53359" gradientUnits="userSpaceOnUse" id="color-10"><stop offset="0" stop-color="#1f1f1f"/><stop offset="1" stop-color="#191919"/></linearGradient><linearGradient x1="233.47479" y1="182.28993" x2="233.45712" y2="182.22603" gradientUnits="userSpaceOnUse" id="color-11"><stop offset="0" stop-color="#515151"/><stop offset="1" stop-color="#3d3d3d"/></linearGradient><linearGradient x1="233.32518" y1="182.27185" x2="233.14664" y2="181.62594" gradientUnits="userSpaceOnUse" id="color-12"><stop offset="0" stop-color="#4b00bb"/><stop offset="1" stop-color="#30004f"/></linearGradient><linearGradient x1="232.68013" y1="182.43348" x2="232.51016" y2="181.81856" gradientUnits="userSpaceOnUse" id="color-13"><stop offset="0" stop-color="#4b00ba"/><stop offset="1" stop-color="#300050"/></linearGradient><linearGradient x1="233.13974" y1="182.0259" x2="233.11327" y2="181.93012" gradientUnits="userSpaceOnUse" id="color-14"><stop offset="0" stop-color="#806f89"/><stop offset="1" stop-color="#685473"/></linearGradient><linearGradient x1="233.09927" y1="181.87948" x2="233.07855" y2="181.80452" gradientUnits="userSpaceOnUse" id="color-15"><stop offset="0" stop-color="#6a5675"/><stop offset="1" stop-color="#5c4768"/></linearGradient><linearGradient x1="233.17503" y1="182.15361" x2="233.1543" y2="182.0786" gradientUnits="userSpaceOnUse" id="color-16"><stop offset="0" stop-color="#97899e"/><stop offset="1" stop-color="#7f6e88"/></linearGradient><linearGradient x1="233.06781" y1="181.76569" x2="233.05583" y2="181.72232" gradientUnits="userSpaceOnUse" id="color-17"><stop offset="0" stop-color="#544c58"/><stop offset="1" stop-color="#4d3b58"/></linearGradient><linearGradient x1="233.19774" y1="182.2358" x2="233.18576" y2="182.19239" gradientUnits="userSpaceOnUse" id="color-18"><stop offset="0" stop-color="#a594ac"/><stop offset="1" stop-color="#96889d"/></linearGradient><linearGradient x1="232.99717" y1="182.06529" x2="232.9707" y2="181.96951" gradientUnits="userSpaceOnUse" id="color-19"><stop offset="0" stop-color="#806f89"/><stop offset="1" stop-color="#685473"/></linearGradient><linearGradient x1="232.95671" y1="181.91888" x2="232.93599" y2="181.84393" gradientUnits="userSpaceOnUse" id="color-20"><stop offset="0" stop-color="#6a5675"/><stop offset="1" stop-color="#5c4768"/></linearGradient><linearGradient x1="233.03247" y1="182.193" x2="233.01174" y2="182.11803" gradientUnits="userSpaceOnUse" id="color-21"><stop offset="0" stop-color="#97899e"/><stop offset="1" stop-color="#7f6e88"/></linearGradient><linearGradient x1="232.92526" y1="181.80512" x2="232.91326" y2="181.76171" gradientUnits="userSpaceOnUse" id="color-22"><stop offset="0" stop-color="#544c58"/><stop offset="1" stop-color="#4d3b58"/></linearGradient><linearGradient x1="233.05519" y1="182.27519" x2="233.0432" y2="182.23182" gradientUnits="userSpaceOnUse" id="color-23"><stop offset="0" stop-color="#a594ac"/><stop offset="1" stop-color="#96889d"/></linearGradient><linearGradient x1="232.8546" y1="182.10472" x2="232.82814" y2="182.00894" gradientUnits="userSpaceOnUse" id="color-24"><stop offset="0" stop-color="#806f89"/><stop offset="1" stop-color="#685473"/></linearGradient><linearGradient x1="232.81414" y1="181.9583" x2="232.79342" y2="181.88334" gradientUnits="userSpaceOnUse" id="color-25"><stop offset="0" stop-color="#6a5675"/><stop offset="1" stop-color="#5c4768"/></linearGradient><linearGradient x1="232.8899" y1="182.23239" x2="232.86919" y2="182.15743" gradientUnits="userSpaceOnUse" id="color-26"><stop offset="0" stop-color="#97899e"/><stop offset="1" stop-color="#7f6e88"/></linearGradient><linearGradient x1="232.78269" y1="181.84451" x2="232.7707" y2="181.80111" gradientUnits="userSpaceOnUse" id="color-27"><stop offset="0" stop-color="#544c58"/><stop offset="1" stop-color="#4d3b58"/></linearGradient><linearGradient x1="232.91262" y1="182.3146" x2="232.90063" y2="182.27122" gradientUnits="userSpaceOnUse" id="color-28"><stop offset="0" stop-color="#a594ac"/><stop offset="1" stop-color="#96889d"/></linearGradient><linearGradient x1="232.71204" y1="182.14412" x2="232.68557" y2="182.04834" gradientUnits="userSpaceOnUse" id="color-29"><stop offset="0" stop-color="#806f89"/><stop offset="1" stop-color="#685473"/></linearGradient><linearGradient x1="232.67157" y1="181.9977" x2="232.65085" y2="181.92275" gradientUnits="userSpaceOnUse" id="color-30"><stop offset="0" stop-color="#6a5675"/><stop offset="1" stop-color="#5c4768"/></linearGradient><linearGradient x1="232.74733" y1="182.27179" x2="232.72661" y2="182.19682" gradientUnits="userSpaceOnUse" id="color-31"><stop offset="0" stop-color="#97899e"/><stop offset="1" stop-color="#7f6e88"/></linearGradient><linearGradient x1="232.64012" y1="181.88391" x2="232.62813" y2="181.84053" gradientUnits="userSpaceOnUse" id="color-32"><stop offset="0" stop-color="#544c58"/><stop offset="1" stop-color="#4d3b58"/></linearGradient><linearGradient x1="232.77006" y1="182.35402" x2="232.75807" y2="182.31062" gradientUnits="userSpaceOnUse" id="color-33"><stop offset="0" stop-color="#a594ac"/><stop offset="1" stop-color="#96889d"/></linearGradient><linearGradient x1="234.79444" y1="185.05067" x2="234.36431" y2="184.63169" gradientUnits="userSpaceOnUse" id="color-34"><stop offset="0" stop-color="#7b6f80"/><stop offset="1" stop-color="#382c3f"/></linearGradient><linearGradient x1="235.17949" y1="184.82823" x2="234.57271" y2="184.2372" gradientUnits="userSpaceOnUse" id="color-35"><stop offset="0" stop-color="#ababab"/><stop offset="1" stop-color="#7e7e7e"/></linearGradient><linearGradient x1="234.92739" y1="184.58268" x2="234.82253" y2="184.48055" gradientUnits="userSpaceOnUse" id="color-36"><stop offset="0" stop-color="#323232"/><stop offset="1" stop-color="#232323"/></linearGradient><linearGradient x1="234.7671" y1="184.42656" x2="234.68503" y2="184.34661" gradientUnits="userSpaceOnUse" id="color-37"><stop offset="0" stop-color="#272727"/><stop offset="1" stop-color="#191919"/></linearGradient><linearGradient x1="235.06716" y1="184.71881" x2="234.9851" y2="184.63887" gradientUnits="userSpaceOnUse" id="color-38"><stop offset="0" stop-color="#393939"/><stop offset="1" stop-color="#323232"/></linearGradient><linearGradient x1="234.64254" y1="184.3052" x2="234.59505" y2="184.25894" gradientUnits="userSpaceOnUse" id="color-39"><stop offset="0" stop-color="#1f1f1f"/><stop offset="1" stop-color="#191919"/></linearGradient><linearGradient x1="235.15716" y1="184.80649" x2="235.10966" y2="184.76023" gradientUnits="userSpaceOnUse" id="color-40"><stop offset="0" stop-color="#515151"/><stop offset="1" stop-color="#3d3d3d"/></linearGradient><linearGradient x1="235.01886" y1="184.86638" x2="234.53881" y2="184.39878" gradientUnits="userSpaceOnUse" id="color-41"><stop offset="0" stop-color="#4b00bb"/><stop offset="1" stop-color="#30004f"/></linearGradient><linearGradient x1="234.54349" y1="185.33137" x2="234.08647" y2="184.88619" gradientUnits="userSpaceOnUse" id="color-42"><stop offset="0" stop-color="#4b00ba"/><stop offset="1" stop-color="#300050"/></linearGradient><linearGradient x1="234.73466" y1="184.74759" x2="234.66347" y2="184.67825" gradientUnits="userSpaceOnUse" id="color-43"><stop offset="0" stop-color="#806f89"/><stop offset="1" stop-color="#685473"/></linearGradient><linearGradient x1="234.62584" y1="184.64159" x2="234.57014" y2="184.58732" gradientUnits="userSpaceOnUse" id="color-44"><stop offset="0" stop-color="#6a5675"/><stop offset="1" stop-color="#5c4768"/></linearGradient><linearGradient x1="234.82956" y1="184.84003" x2="234.77384" y2="184.78575" gradientUnits="userSpaceOnUse" id="color-45"><stop offset="0" stop-color="#97899e"/><stop offset="1" stop-color="#7f6e88"/></linearGradient><linearGradient x1="234.54128" y1="184.55921" x2="234.50904" y2="184.5278" gradientUnits="userSpaceOnUse" id="color-46"><stop offset="0" stop-color="#544c58"/><stop offset="1" stop-color="#4d3b58"/></linearGradient><linearGradient x1="234.89065" y1="184.89955" x2="234.8584" y2="184.8681" gradientUnits="userSpaceOnUse" id="color-47"><stop offset="0" stop-color="#a594ac"/><stop offset="1" stop-color="#96889d"/></linearGradient><linearGradient x1="234.63146" y1="184.85354" x2="234.56027" y2="184.78419" gradientUnits="userSpaceOnUse" id="color-48"><stop offset="0" stop-color="#806f89"/><stop offset="1" stop-color="#685473"/></linearGradient><linearGradient x1="234.52264" y1="184.74754" x2="234.46694" y2="184.69327" gradientUnits="userSpaceOnUse" id="color-49"><stop offset="0" stop-color="#6a5675"/><stop offset="1" stop-color="#5c4768"/></linearGradient><linearGradient x1="234.72635" y1="184.94597" x2="234.67063" y2="184.8917" gradientUnits="userSpaceOnUse" id="color-50"><stop offset="0" stop-color="#97899e"/><stop offset="1" stop-color="#7f6e88"/></linearGradient><linearGradient x1="234.43808" y1="184.66515" x2="234.40583" y2="184.63375" gradientUnits="userSpaceOnUse" id="color-51"><stop offset="0" stop-color="#544c58"/><stop offset="1" stop-color="#4d3b58"/></linearGradient><linearGradient x1="234.78745" y1="185.00549" x2="234.7552" y2="184.97406" gradientUnits="userSpaceOnUse" id="color-52"><stop offset="0" stop-color="#a594ac"/><stop offset="1" stop-color="#96889d"/></linearGradient><linearGradient x1="234.52825" y1="184.95949" x2="234.45707" y2="184.89014" gradientUnits="userSpaceOnUse" id="color-53"><stop offset="0" stop-color="#806f89"/><stop offset="1" stop-color="#685473"/></linearGradient><linearGradient x1="234.41944" y1="184.85349" x2="234.36373" y2="184.79922" gradientUnits="userSpaceOnUse" id="color-54"><stop offset="0" stop-color="#6a5675"/><stop offset="1" stop-color="#5c4768"/></linearGradient><linearGradient x1="234.62315" y1="185.05192" x2="234.56743" y2="184.99765" gradientUnits="userSpaceOnUse" id="color-55"><stop offset="0" stop-color="#97899e"/><stop offset="1" stop-color="#7f6e88"/></linearGradient><linearGradient x1="234.33487" y1="184.77111" x2="234.30263" y2="184.7397" gradientUnits="userSpaceOnUse" id="color-56"><stop offset="0" stop-color="#544c58"/><stop offset="1" stop-color="#4d3b58"/></linearGradient><linearGradient x1="234.68424" y1="185.11144" x2="234.65199" y2="185.08003" gradientUnits="userSpaceOnUse" id="color-57"><stop offset="0" stop-color="#a594ac"/><stop offset="1" stop-color="#96889d"/></linearGradient><linearGradient x1="234.42505" y1="185.06544" x2="234.35386" y2="184.99609" gradientUnits="userSpaceOnUse" id="color-58"><stop offset="0" stop-color="#806f89"/><stop offset="1" stop-color="#685473"/></linearGradient><linearGradient x1="234.31623" y1="184.95943" x2="234.26051" y2="184.90518" gradientUnits="userSpaceOnUse" id="color-59"><stop offset="0" stop-color="#6a5675"/><stop offset="1" stop-color="#5c4768"/></linearGradient><linearGradient x1="234.51994" y1="185.15787" x2="234.46422" y2="185.1036" gradientUnits="userSpaceOnUse" id="color-60"><stop offset="0" stop-color="#97899e"/><stop offset="1" stop-color="#7f6e88"/></linearGradient><linearGradient x1="234.23166" y1="184.87708" x2="234.19942" y2="184.84566" gradientUnits="userSpaceOnUse" id="color-61"><stop offset="0" stop-color="#544c58"/><stop offset="1" stop-color="#4d3b58"/></linearGradient><linearGradient x1="234.58103" y1="185.21739" x2="234.54879" y2="185.18598" gradientUnits="userSpaceOnUse" id="color-62"><stop offset="0" stop-color="#a594ac"/><stop offset="1" stop-color="#96889d"/></linearGradient><linearGradient x1="237.40544" y1="186.79228" x2="236.86193" y2="186.53703" gradientUnits="userSpaceOnUse" id="color-63"><stop offset="0" stop-color="#7b6f80"/><stop offset="1" stop-color="#382c3f"/></linearGradient><linearGradient x1="237.69657" y1="186.45616" x2="236.92985" y2="186.09607" gradientUnits="userSpaceOnUse" id="color-64"><stop offset="0" stop-color="#ababab"/><stop offset="1" stop-color="#7e7e7e"/></linearGradient><linearGradient x1="237.37801" y1="186.30653" x2="237.24552" y2="186.24433" gradientUnits="userSpaceOnUse" id="color-65"><stop offset="0" stop-color="#323232"/><stop offset="1" stop-color="#232323"/></linearGradient><linearGradient x1="237.17548" y1="186.21144" x2="237.07178" y2="186.16271" gradientUnits="userSpaceOnUse" id="color-66"><stop offset="0" stop-color="#272727"/><stop offset="1" stop-color="#191919"/></linearGradient><linearGradient x1="237.55462" y1="186.38948" x2="237.45093" y2="186.3408" gradientUnits="userSpaceOnUse" id="color-67"><stop offset="0" stop-color="#393939"/><stop offset="1" stop-color="#323232"/></linearGradient><linearGradient x1="237.01808" y1="186.13751" x2="236.95807" y2="186.10932" gradientUnits="userSpaceOnUse" id="color-68"><stop offset="0" stop-color="#1f1f1f"/><stop offset="1" stop-color="#191919"/></linearGradient><linearGradient x1="237.66834" y1="186.4429" x2="237.60832" y2="186.41472" gradientUnits="userSpaceOnUse" id="color-69"><stop offset="0" stop-color="#515151"/><stop offset="1" stop-color="#3d3d3d"/></linearGradient><linearGradient x1="237.55725" y1="186.5447" x2="236.95066" y2="186.25984" gradientUnits="userSpaceOnUse" id="color-70"><stop offset="0" stop-color="#4b00bb"/><stop offset="1" stop-color="#30004f"/></linearGradient><linearGradient x1="237.26008" y1="187.13961" x2="236.68262" y2="186.86841" gradientUnits="userSpaceOnUse" id="color-71"><stop offset="0" stop-color="#4b00ba"/><stop offset="1" stop-color="#300050"/></linearGradient><linearGradient x1="237.24982" y1="186.5254" x2="237.15987" y2="186.48317" gradientUnits="userSpaceOnUse" id="color-72"><stop offset="0" stop-color="#806f89"/><stop offset="1" stop-color="#685473"/></linearGradient><linearGradient x1="237.11232" y1="186.46082" x2="237.04192" y2="186.42777" gradientUnits="userSpaceOnUse" id="color-73"><stop offset="0" stop-color="#6a5675"/><stop offset="1" stop-color="#5c4768"/></linearGradient><linearGradient x1="237.36973" y1="186.58172" x2="237.29932" y2="186.54866" gradientUnits="userSpaceOnUse" id="color-74"><stop offset="0" stop-color="#97899e"/><stop offset="1" stop-color="#7f6e88"/></linearGradient><linearGradient x1="237.00546" y1="186.41064" x2="236.96472" y2="186.39152" gradientUnits="userSpaceOnUse" id="color-75"><stop offset="0" stop-color="#544c58"/><stop offset="1" stop-color="#4d3b58"/></linearGradient><linearGradient x1="237.44693" y1="186.618" x2="237.40618" y2="186.59884" gradientUnits="userSpaceOnUse" id="color-76"><stop offset="0" stop-color="#a594ac"/><stop offset="1" stop-color="#96889d"/></linearGradient><linearGradient x1="237.18694" y1="186.6593" x2="237.097" y2="186.61705" gradientUnits="userSpaceOnUse" id="color-77"><stop offset="0" stop-color="#806f89"/><stop offset="1" stop-color="#685473"/></linearGradient><linearGradient x1="237.04944" y1="186.59472" x2="236.97906" y2="186.56163" gradientUnits="userSpaceOnUse" id="color-78"><stop offset="0" stop-color="#6a5675"/><stop offset="1" stop-color="#5c4768"/></linearGradient><linearGradient x1="237.30685" y1="186.71561" x2="237.23645" y2="186.68253" gradientUnits="userSpaceOnUse" id="color-79"><stop offset="0" stop-color="#97899e"/><stop offset="1" stop-color="#7f6e88"/></linearGradient><linearGradient x1="236.94259" y1="186.54452" x2="236.90184" y2="186.52538" gradientUnits="userSpaceOnUse" id="color-80"><stop offset="0" stop-color="#544c58"/><stop offset="1" stop-color="#4d3b58"/></linearGradient><linearGradient x1="237.38405" y1="186.75186" x2="237.3433" y2="186.73271" gradientUnits="userSpaceOnUse" id="color-81"><stop offset="0" stop-color="#a594ac"/><stop offset="1" stop-color="#96889d"/></linearGradient><linearGradient x1="237.12406" y1="186.79318" x2="237.03412" y2="186.75093" gradientUnits="userSpaceOnUse" id="color-82"><stop offset="0" stop-color="#806f89"/><stop offset="1" stop-color="#685473"/></linearGradient><linearGradient x1="236.98657" y1="186.7286" x2="236.91617" y2="186.69554" gradientUnits="userSpaceOnUse" id="color-83"><stop offset="0" stop-color="#6a5675"/><stop offset="1" stop-color="#5c4768"/></linearGradient><linearGradient x1="237.24397" y1="186.84948" x2="237.17357" y2="186.8164" gradientUnits="userSpaceOnUse" id="color-84"><stop offset="0" stop-color="#97899e"/><stop offset="1" stop-color="#7f6e88"/></linearGradient><linearGradient x1="236.87971" y1="186.67841" x2="236.83897" y2="186.65927" gradientUnits="userSpaceOnUse" id="color-85"><stop offset="0" stop-color="#544c58"/><stop offset="1" stop-color="#4d3b58"/></linearGradient><linearGradient x1="237.32117" y1="186.88574" x2="237.28042" y2="186.86661" gradientUnits="userSpaceOnUse" id="color-86"><stop offset="0" stop-color="#a594ac"/><stop offset="1" stop-color="#96889d"/></linearGradient><linearGradient x1="237.06118" y1="186.92704" x2="236.97123" y2="186.88479" gradientUnits="userSpaceOnUse" id="color-87"><stop offset="0" stop-color="#806f89"/><stop offset="1" stop-color="#685473"/></linearGradient><linearGradient x1="236.92369" y1="186.86247" x2="236.8533" y2="186.82942" gradientUnits="userSpaceOnUse" id="color-88"><stop offset="0" stop-color="#6a5675"/><stop offset="1" stop-color="#5c4768"/></linearGradient><linearGradient x1="237.18109" y1="186.98336" x2="237.1107" y2="186.95031" gradientUnits="userSpaceOnUse" id="color-89"><stop offset="0" stop-color="#97899e"/><stop offset="1" stop-color="#7f6e88"/></linearGradient><linearGradient x1="236.81683" y1="186.81229" x2="236.77609" y2="186.79316" gradientUnits="userSpaceOnUse" id="color-90"><stop offset="0" stop-color="#544c58"/><stop offset="1" stop-color="#4d3b58"/></linearGradient><linearGradient x1="237.25829" y1="187.01961" x2="237.21755" y2="187.00049" gradientUnits="userSpaceOnUse" id="color-91"><stop offset="0" stop-color="#a594ac"/><stop offset="1" stop-color="#96889d"/></linearGradient><radialGradient cx="235.81738" cy="183.96509" r="2.72067" gradientUnits="userSpaceOnUse" id="color-92"><stop offset="0" stop-color="#d699ff"/><stop offset="1" stop-color="#9966ff"/></radialGradient><linearGradient x1="234.79444" y1="174.95268" x2="234.36431" y2="175.37162" gradientUnits="userSpaceOnUse" id="color-93"><stop offset="0" stop-color="#7b6f80"/><stop offset="1" stop-color="#382c3f"/></linearGradient><linearGradient x1="235.17949" y1="175.17509" x2="234.57271" y2="175.76613" gradientUnits="userSpaceOnUse" id="color-94"><stop offset="0" stop-color="#ababab"/><stop offset="1" stop-color="#7e7e7e"/></linearGradient><linearGradient x1="234.92739" y1="175.42064" x2="234.82253" y2="175.5228" gradientUnits="userSpaceOnUse" id="color-95"><stop offset="0" stop-color="#323232"/><stop offset="1" stop-color="#232323"/></linearGradient><linearGradient x1="234.7671" y1="175.57677" x2="234.68503" y2="175.65673" gradientUnits="userSpaceOnUse" id="color-96"><stop offset="0" stop-color="#272727"/><stop offset="1" stop-color="#191919"/></linearGradient><linearGradient x1="235.06716" y1="175.28451" x2="234.9851" y2="175.36444" gradientUnits="userSpaceOnUse" id="color-97"><stop offset="0" stop-color="#393939"/><stop offset="1" stop-color="#323232"/></linearGradient><linearGradient x1="234.64254" y1="175.69811" x2="234.59505" y2="175.7444" gradientUnits="userSpaceOnUse" id="color-98"><stop offset="0" stop-color="#1f1f1f"/><stop offset="1" stop-color="#191919"/></linearGradient><linearGradient x1="235.15716" y1="175.19685" x2="235.10966" y2="175.24312" gradientUnits="userSpaceOnUse" id="color-99"><stop offset="0" stop-color="#515151"/><stop offset="1" stop-color="#3d3d3d"/></linearGradient><linearGradient x1="235.01886" y1="175.13697" x2="234.53881" y2="175.60457" gradientUnits="userSpaceOnUse" id="color-100"><stop offset="0" stop-color="#4b00bb"/><stop offset="1" stop-color="#30004f"/></linearGradient><linearGradient x1="234.54349" y1="174.67198" x2="234.08647" y2="175.11713" gradientUnits="userSpaceOnUse" id="color-101"><stop offset="0" stop-color="#4b00ba"/><stop offset="1" stop-color="#300050"/></linearGradient><linearGradient x1="234.73466" y1="175.25576" x2="234.66347" y2="175.32508" gradientUnits="userSpaceOnUse" id="color-102"><stop offset="0" stop-color="#806f89"/><stop offset="1" stop-color="#685473"/></linearGradient><linearGradient x1="234.62584" y1="175.36173" x2="234.57014" y2="175.41601" gradientUnits="userSpaceOnUse" id="color-103"><stop offset="0" stop-color="#6a5675"/><stop offset="1" stop-color="#5c4768"/></linearGradient><linearGradient x1="234.82956" y1="175.1633" x2="234.77384" y2="175.2176" gradientUnits="userSpaceOnUse" id="color-104"><stop offset="0" stop-color="#97899e"/><stop offset="1" stop-color="#7f6e88"/></linearGradient><linearGradient x1="234.54128" y1="175.44411" x2="234.50904" y2="175.47552" gradientUnits="userSpaceOnUse" id="color-105"><stop offset="0" stop-color="#544c58"/><stop offset="1" stop-color="#4d3b58"/></linearGradient><linearGradient x1="234.89065" y1="175.1038" x2="234.8584" y2="175.13522" gradientUnits="userSpaceOnUse" id="color-106"><stop offset="0" stop-color="#a594ac"/><stop offset="1" stop-color="#96889d"/></linearGradient><linearGradient x1="234.63146" y1="175.14981" x2="234.56027" y2="175.21912" gradientUnits="userSpaceOnUse" id="color-107"><stop offset="0" stop-color="#806f89"/><stop offset="1" stop-color="#685473"/></linearGradient><linearGradient x1="234.52264" y1="175.25578" x2="234.46694" y2="175.31005" gradientUnits="userSpaceOnUse" id="color-108"><stop offset="0" stop-color="#6a5675"/><stop offset="1" stop-color="#5c4768"/></linearGradient><linearGradient x1="234.72635" y1="175.05738" x2="234.67063" y2="175.11164" gradientUnits="userSpaceOnUse" id="color-109"><stop offset="0" stop-color="#97899e"/><stop offset="1" stop-color="#7f6e88"/></linearGradient><linearGradient x1="234.43808" y1="175.33817" x2="234.40583" y2="175.36957" gradientUnits="userSpaceOnUse" id="color-110"><stop offset="0" stop-color="#544c58"/><stop offset="1" stop-color="#4d3b58"/></linearGradient><linearGradient x1="234.78745" y1="174.99786" x2="234.7552" y2="175.02927" gradientUnits="userSpaceOnUse" id="color-111"><stop offset="0" stop-color="#a594ac"/><stop offset="1" stop-color="#96889d"/></linearGradient><linearGradient x1="234.52825" y1="175.04384" x2="234.45707" y2="175.11318" gradientUnits="userSpaceOnUse" id="color-112"><stop offset="0" stop-color="#806f89"/><stop offset="1" stop-color="#685473"/></linearGradient><linearGradient x1="234.41944" y1="175.14983" x2="234.36373" y2="175.2041" gradientUnits="userSpaceOnUse" id="color-113"><stop offset="0" stop-color="#6a5675"/><stop offset="1" stop-color="#5c4768"/></linearGradient><linearGradient x1="234.62315" y1="174.95141" x2="234.56743" y2="175.0057" gradientUnits="userSpaceOnUse" id="color-114"><stop offset="0" stop-color="#97899e"/><stop offset="1" stop-color="#7f6e88"/></linearGradient><linearGradient x1="234.33487" y1="175.23222" x2="234.30263" y2="175.26362" gradientUnits="userSpaceOnUse" id="color-115"><stop offset="0" stop-color="#544c58"/><stop offset="1" stop-color="#4d3b58"/></linearGradient><linearGradient x1="234.68424" y1="174.89191" x2="234.65199" y2="174.92332" gradientUnits="userSpaceOnUse" id="color-116"><stop offset="0" stop-color="#a594ac"/><stop offset="1" stop-color="#96889d"/></linearGradient><linearGradient x1="234.42505" y1="174.93787" x2="234.35386" y2="175.00723" gradientUnits="userSpaceOnUse" id="color-117"><stop offset="0" stop-color="#806f89"/><stop offset="1" stop-color="#685473"/></linearGradient><linearGradient x1="234.31623" y1="175.04389" x2="234.26051" y2="175.09815" gradientUnits="userSpaceOnUse" id="color-118"><stop offset="0" stop-color="#6a5675"/><stop offset="1" stop-color="#5c4768"/></linearGradient><linearGradient x1="234.51994" y1="174.84545" x2="234.46422" y2="174.89972" gradientUnits="userSpaceOnUse" id="color-119"><stop offset="0" stop-color="#97899e"/><stop offset="1" stop-color="#7f6e88"/></linearGradient><linearGradient x1="234.23166" y1="175.12627" x2="234.19942" y2="175.15768" gradientUnits="userSpaceOnUse" id="color-120"><stop offset="0" stop-color="#544c58"/><stop offset="1" stop-color="#4d3b58"/></linearGradient><linearGradient x1="234.58103" y1="174.78594" x2="234.54879" y2="174.81737" gradientUnits="userSpaceOnUse" id="color-121"><stop offset="0" stop-color="#a594ac"/><stop offset="1" stop-color="#96889d"/></linearGradient><linearGradient x1="233.03843" y1="177.68559" x2="232.87846" y2="178.26433" gradientUnits="userSpaceOnUse" id="color-122"><stop offset="0" stop-color="#7b6f80"/><stop offset="1" stop-color="#382c3f"/></linearGradient><linearGradient x1="233.4831" y1="177.68334" x2="233.25743" y2="178.49979" gradientUnits="userSpaceOnUse" id="color-123"><stop offset="0" stop-color="#ababab"/><stop offset="1" stop-color="#7e7e7e"/></linearGradient><linearGradient x1="233.38933" y1="178.02255" x2="233.35034" y2="178.16364" gradientUnits="userSpaceOnUse" id="color-124"><stop offset="0" stop-color="#323232"/><stop offset="1" stop-color="#232323"/></linearGradient><linearGradient x1="233.32972" y1="178.23823" x2="233.2992" y2="178.34864" gradientUnits="userSpaceOnUse" id="color-125"><stop offset="0" stop-color="#272727"/><stop offset="1" stop-color="#191919"/></linearGradient><linearGradient x1="233.44132" y1="177.83448" x2="233.4108" y2="177.94491" gradientUnits="userSpaceOnUse" id="color-126"><stop offset="0" stop-color="#393939"/><stop offset="1" stop-color="#323232"/></linearGradient><linearGradient x1="233.2834" y1="178.40584" x2="233.26574" y2="178.46973" gradientUnits="userSpaceOnUse" id="color-127"><stop offset="0" stop-color="#1f1f1f"/><stop offset="1" stop-color="#191919"/></linearGradient><linearGradient x1="233.47479" y1="177.71339" x2="233.45712" y2="177.77732" gradientUnits="userSpaceOnUse" id="color-128"><stop offset="0" stop-color="#515151"/><stop offset="1" stop-color="#3d3d3d"/></linearGradient><linearGradient x1="233.32518" y1="177.73147" x2="233.14664" y2="178.37739" gradientUnits="userSpaceOnUse" id="color-129"><stop offset="0" stop-color="#4b00bb"/><stop offset="1" stop-color="#30004f"/></linearGradient><linearGradient x1="232.68013" y1="177.56987" x2="232.51016" y2="178.18479" gradientUnits="userSpaceOnUse" id="color-130"><stop offset="0" stop-color="#4b00ba"/><stop offset="1" stop-color="#300050"/></linearGradient><linearGradient x1="233.13974" y1="177.97742" x2="233.11327" y2="178.0732" gradientUnits="userSpaceOnUse" id="color-131"><stop offset="0" stop-color="#806f89"/><stop offset="1" stop-color="#685473"/></linearGradient><linearGradient x1="233.09927" y1="178.12384" x2="233.07855" y2="178.1988" gradientUnits="userSpaceOnUse" id="color-132"><stop offset="0" stop-color="#6a5675"/><stop offset="1" stop-color="#5c4768"/></linearGradient><linearGradient x1="233.17503" y1="177.84974" x2="233.1543" y2="177.92472" gradientUnits="userSpaceOnUse" id="color-133"><stop offset="0" stop-color="#97899e"/><stop offset="1" stop-color="#7f6e88"/></linearGradient><linearGradient x1="233.06781" y1="178.23764" x2="233.05583" y2="178.28101" gradientUnits="userSpaceOnUse" id="color-134"><stop offset="0" stop-color="#544c58"/><stop offset="1" stop-color="#4d3b58"/></linearGradient><linearGradient x1="233.19774" y1="177.76751" x2="233.18576" y2="177.81093" gradientUnits="userSpaceOnUse" id="color-135"><stop offset="0" stop-color="#a594ac"/><stop offset="1" stop-color="#96889d"/></linearGradient><linearGradient x1="232.99717" y1="177.93803" x2="232.9707" y2="178.03381" gradientUnits="userSpaceOnUse" id="color-136"><stop offset="0" stop-color="#806f89"/><stop offset="1" stop-color="#685473"/></linearGradient><linearGradient x1="232.95671" y1="178.08445" x2="232.93599" y2="178.1594" gradientUnits="userSpaceOnUse" id="color-137"><stop offset="0" stop-color="#6a5675"/><stop offset="1" stop-color="#5c4768"/></linearGradient><linearGradient x1="233.03247" y1="177.81033" x2="233.01174" y2="177.88531" gradientUnits="userSpaceOnUse" id="color-138"><stop offset="0" stop-color="#97899e"/><stop offset="1" stop-color="#7f6e88"/></linearGradient><linearGradient x1="232.92526" y1="178.19823" x2="232.91326" y2="178.2416" gradientUnits="userSpaceOnUse" id="color-139"><stop offset="0" stop-color="#544c58"/><stop offset="1" stop-color="#4d3b58"/></linearGradient><linearGradient x1="233.05519" y1="177.72812" x2="233.0432" y2="177.77152" gradientUnits="userSpaceOnUse" id="color-140"><stop offset="0" stop-color="#a594ac"/><stop offset="1" stop-color="#96889d"/></linearGradient><linearGradient x1="232.8546" y1="177.89862" x2="232.82814" y2="177.99441" gradientUnits="userSpaceOnUse" id="color-141"><stop offset="0" stop-color="#806f89"/><stop offset="1" stop-color="#685473"/></linearGradient><linearGradient x1="232.81414" y1="178.04504" x2="232.79342" y2="178.12001" gradientUnits="userSpaceOnUse" id="color-142"><stop offset="0" stop-color="#6a5675"/><stop offset="1" stop-color="#5c4768"/></linearGradient><linearGradient x1="232.8899" y1="177.77093" x2="232.86919" y2="177.84588" gradientUnits="userSpaceOnUse" id="color-143"><stop offset="0" stop-color="#97899e"/><stop offset="1" stop-color="#7f6e88"/></linearGradient><linearGradient x1="232.78269" y1="178.15882" x2="232.7707" y2="178.20221" gradientUnits="userSpaceOnUse" id="color-144"><stop offset="0" stop-color="#544c58"/><stop offset="1" stop-color="#4d3b58"/></linearGradient><linearGradient x1="232.91262" y1="177.68873" x2="232.90063" y2="177.73212" gradientUnits="userSpaceOnUse" id="color-145"><stop offset="0" stop-color="#a594ac"/><stop offset="1" stop-color="#96889d"/></linearGradient><linearGradient x1="232.71204" y1="177.85919" x2="232.68557" y2="177.95501" gradientUnits="userSpaceOnUse" id="color-146"><stop offset="0" stop-color="#806f89"/><stop offset="1" stop-color="#685473"/></linearGradient><linearGradient x1="232.67157" y1="178.00561" x2="232.65085" y2="178.08057" gradientUnits="userSpaceOnUse" id="color-147"><stop offset="0" stop-color="#6a5675"/><stop offset="1" stop-color="#5c4768"/></linearGradient><linearGradient x1="232.74733" y1="177.73154" x2="232.72661" y2="177.80649" gradientUnits="userSpaceOnUse" id="color-148"><stop offset="0" stop-color="#97899e"/><stop offset="1" stop-color="#7f6e88"/></linearGradient><linearGradient x1="232.64012" y1="178.11941" x2="232.62813" y2="178.16281" gradientUnits="userSpaceOnUse" id="color-149"><stop offset="0" stop-color="#544c58"/><stop offset="1" stop-color="#4d3b58"/></linearGradient><linearGradient x1="232.77006" y1="177.64933" x2="232.75807" y2="177.69269" gradientUnits="userSpaceOnUse" id="color-150"><stop offset="0" stop-color="#a594ac"/><stop offset="1" stop-color="#96889d"/></linearGradient><linearGradient x1="237.40544" y1="173.21105" x2="236.86193" y2="173.46632" gradientUnits="userSpaceOnUse" id="color-151"><stop offset="0" stop-color="#7b6f80"/><stop offset="1" stop-color="#382c3f"/></linearGradient><linearGradient x1="237.69657" y1="173.54717" x2="236.92985" y2="173.90728" gradientUnits="userSpaceOnUse" id="color-152"><stop offset="0" stop-color="#ababab"/><stop offset="1" stop-color="#7e7e7e"/></linearGradient><linearGradient x1="237.37801" y1="173.69679" x2="237.24552" y2="173.75902" gradientUnits="userSpaceOnUse" id="color-153"><stop offset="0" stop-color="#323232"/><stop offset="1" stop-color="#232323"/></linearGradient><linearGradient x1="237.17548" y1="173.79188" x2="237.07178" y2="173.84061" gradientUnits="userSpaceOnUse" id="color-154"><stop offset="0" stop-color="#272727"/><stop offset="1" stop-color="#191919"/></linearGradient><linearGradient x1="237.55462" y1="173.61384" x2="237.45093" y2="173.66252" gradientUnits="userSpaceOnUse" id="color-155"><stop offset="0" stop-color="#393939"/><stop offset="1" stop-color="#323232"/></linearGradient><linearGradient x1="237.01808" y1="173.86582" x2="236.95807" y2="173.89402" gradientUnits="userSpaceOnUse" id="color-156"><stop offset="0" stop-color="#1f1f1f"/><stop offset="1" stop-color="#191919"/></linearGradient><linearGradient x1="237.66834" y1="173.56044" x2="237.60832" y2="173.58863" gradientUnits="userSpaceOnUse" id="color-157"><stop offset="0" stop-color="#515151"/><stop offset="1" stop-color="#3d3d3d"/></linearGradient><linearGradient x1="237.55725" y1="173.45862" x2="236.95066" y2="173.74348" gradientUnits="userSpaceOnUse" id="color-158"><stop offset="0" stop-color="#4b00bb"/><stop offset="1" stop-color="#30004f"/></linearGradient><linearGradient x1="237.26008" y1="172.86371" x2="236.68262" y2="173.13491" gradientUnits="userSpaceOnUse" id="color-159"><stop offset="0" stop-color="#4b00ba"/><stop offset="1" stop-color="#300050"/></linearGradient><linearGradient x1="237.24982" y1="173.47793" x2="237.15987" y2="173.52018" gradientUnits="userSpaceOnUse" id="color-160"><stop offset="0" stop-color="#806f89"/><stop offset="1" stop-color="#685473"/></linearGradient><linearGradient x1="237.11232" y1="173.54251" x2="237.04192" y2="173.57555" gradientUnits="userSpaceOnUse" id="color-161"><stop offset="0" stop-color="#6a5675"/><stop offset="1" stop-color="#5c4768"/></linearGradient><linearGradient x1="237.36973" y1="173.42161" x2="237.29932" y2="173.45466" gradientUnits="userSpaceOnUse" id="color-162"><stop offset="0" stop-color="#97899e"/><stop offset="1" stop-color="#7f6e88"/></linearGradient><linearGradient x1="237.00546" y1="173.59268" x2="236.96472" y2="173.61181" gradientUnits="userSpaceOnUse" id="color-163"><stop offset="0" stop-color="#544c58"/><stop offset="1" stop-color="#4d3b58"/></linearGradient><linearGradient x1="237.44693" y1="173.38535" x2="237.40618" y2="173.40448" gradientUnits="userSpaceOnUse" id="color-164"><stop offset="0" stop-color="#a594ac"/><stop offset="1" stop-color="#96889d"/></linearGradient><linearGradient x1="237.18694" y1="173.34405" x2="237.097" y2="173.3863" gradientUnits="userSpaceOnUse" id="color-165"><stop offset="0" stop-color="#806f89"/><stop offset="1" stop-color="#685473"/></linearGradient><linearGradient x1="237.04944" y1="173.40863" x2="236.97906" y2="173.44168" gradientUnits="userSpaceOnUse" id="color-166"><stop offset="0" stop-color="#6a5675"/><stop offset="1" stop-color="#5c4768"/></linearGradient><linearGradient x1="237.30685" y1="173.28774" x2="237.23645" y2="173.32079" gradientUnits="userSpaceOnUse" id="color-167"><stop offset="0" stop-color="#97899e"/><stop offset="1" stop-color="#7f6e88"/></linearGradient><linearGradient x1="236.94259" y1="173.45881" x2="236.90184" y2="173.47793" gradientUnits="userSpaceOnUse" id="color-168"><stop offset="0" stop-color="#544c58"/><stop offset="1" stop-color="#4d3b58"/></linearGradient><linearGradient x1="237.38405" y1="173.25148" x2="237.3433" y2="173.27062" gradientUnits="userSpaceOnUse" id="color-169"><stop offset="0" stop-color="#a594ac"/><stop offset="1" stop-color="#96889d"/></linearGradient><linearGradient x1="237.12406" y1="173.21015" x2="237.03412" y2="173.25239" gradientUnits="userSpaceOnUse" id="color-170"><stop offset="0" stop-color="#806f89"/><stop offset="1" stop-color="#685473"/></linearGradient><linearGradient x1="236.98657" y1="173.27473" x2="236.91617" y2="173.30781" gradientUnits="userSpaceOnUse" id="color-171"><stop offset="0" stop-color="#6a5675"/><stop offset="1" stop-color="#5c4768"/></linearGradient><linearGradient x1="237.24397" y1="173.15386" x2="237.17357" y2="173.18693" gradientUnits="userSpaceOnUse" id="color-172"><stop offset="0" stop-color="#97899e"/><stop offset="1" stop-color="#7f6e88"/></linearGradient><linearGradient x1="236.87971" y1="173.32494" x2="236.83897" y2="173.34406" gradientUnits="userSpaceOnUse" id="color-173"><stop offset="0" stop-color="#544c58"/><stop offset="1" stop-color="#4d3b58"/></linearGradient><linearGradient x1="237.32117" y1="173.11757" x2="237.28042" y2="173.13673" gradientUnits="userSpaceOnUse" id="color-174"><stop offset="0" stop-color="#a594ac"/><stop offset="1" stop-color="#96889d"/></linearGradient><linearGradient x1="237.06118" y1="173.07628" x2="236.97123" y2="173.11853" gradientUnits="userSpaceOnUse" id="color-175"><stop offset="0" stop-color="#806f89"/><stop offset="1" stop-color="#685473"/></linearGradient><linearGradient x1="236.92369" y1="173.14085" x2="236.8533" y2="173.1739" gradientUnits="userSpaceOnUse" id="color-176"><stop offset="0" stop-color="#6a5675"/><stop offset="1" stop-color="#5c4768"/></linearGradient><linearGradient x1="237.18109" y1="173.01995" x2="237.1107" y2="173.05302" gradientUnits="userSpaceOnUse" id="color-177"><stop offset="0" stop-color="#97899e"/><stop offset="1" stop-color="#7f6e88"/></linearGradient><linearGradient x1="236.81683" y1="173.19103" x2="236.77609" y2="173.21019" gradientUnits="userSpaceOnUse" id="color-178"><stop offset="0" stop-color="#544c58"/><stop offset="1" stop-color="#4d3b58"/></linearGradient><linearGradient x1="237.25829" y1="172.98371" x2="237.21755" y2="173.00283" gradientUnits="userSpaceOnUse" id="color-179"><stop offset="0" stop-color="#a594ac"/><stop offset="1" stop-color="#96889d"/></linearGradient><radialGradient cx="235.81738" cy="175.89676" r="2.77933" gradientUnits="userSpaceOnUse" id="color-180"><stop offset="0" stop-color="#d699ff"/><stop offset="1" stop-color="#9966ff"/></radialGradient></defs><g transform="translate(-232.47763,-172.83369)"><g data-paper-data="{&quot;isPaintingLayer&quot;:true}" fill-rule="nonzero" stroke-linejoin="miter" stroke-miterlimit="10" stroke-dasharray="" stroke-dashoffset="0" style="mix-blend-mode: normal"><path d="M233.50854,180.00001c0,-3.58512 2.90632,-6.49146 6.49146,-6.49146c3.58512,0 6.49146,2.90632 6.49146,6.49146c0,3.58512 -2.90632,6.49146 -6.49146,6.49146c-3.58512,0 -6.49146,-2.90632 -6.49146,-6.49146z" fill="url(#color-1)" stroke="none" stroke-width="0.5" stroke-linecap="butt"/><path d="M234.72987,180.00001c0,-2.9106 2.35951,-5.27013 5.27013,-5.27013c2.9106,0 5.27013,2.35951 5.27013,5.27013c0,2.9106 -2.35951,5.27013 -5.27013,5.27013c-2.9106,0 -5.27013,-2.35951 -5.27013,-5.27013z" fill="url(#color-2)" stroke="none" stroke-width="0.5" stroke-linecap="butt"/><path d="M235.5384,180.00001c0,-2.46406 1.99752,-4.46159 4.46159,-4.46159c2.46406,0 4.46159,1.99752 4.46159,4.46159c0,2.46406 -1.99752,4.46159 -4.46159,4.46159c-2.46406,0 -4.46159,-1.99752 -4.46159,-4.46159z" fill="url(#color-3)" stroke="none" stroke-width="0.5" stroke-linecap="butt"/><path d="M236.33121,180.00001c0,-2.02621 1.64257,-3.66879 3.66879,-3.66879c2.02621,0 3.66879,1.64257 3.66879,3.66879c0,2.02621 -1.64257,3.66879 -3.66879,3.66879c-2.02621,0 -3.66879,-1.64257 -3.66879,-3.66879z" fill="url(#color-4)" stroke="none" stroke-width="0.5" stroke-linecap="butt"/><g><g data-paper-data="{&quot;index&quot;:null}" stroke-width="0" stroke-linecap="butt"><path d="M233.39756,182.21847l-0.71828,0.19853l-0.15997,-0.57875l0.71828,-0.19853z" fill="url(#color-5)" stroke="#000000"/><path d="M233.5787,182.29355l-0.19119,0.05285l-0.22567,-0.81645l0.19119,-0.05284z" fill="url(#color-6)" stroke="none"/><path d="M233.45651,181.96221l-0.13436,0.03713l-0.03899,-0.14109l0.13435,-0.03713z" fill="url(#color-7)" stroke="#000000"/><path d="M233.3969,181.74654l-0.13436,0.03713l-0.03052,-0.11042l0.13435,-0.03713z" fill="url(#color-8)" stroke="#000000"/><path d="M233.5085,182.15027l-0.13435,0.03713l-0.03052,-0.11042l0.13436,-0.03713z" fill="url(#color-9)" stroke="#000000"/><path d="M233.35057,181.57892l-0.13436,0.03713l-0.01766,-0.06391l0.13435,-0.03713z" fill="url(#color-10)" stroke="#000000"/><path d="M233.54197,182.27137l-0.13435,0.03713l-0.01767,-0.06391l0.13435,-0.03713z" fill="url(#color-11)" stroke="#000000"/><path d="M233.36392,182.26113l-0.07751,0.02141l-0.17853,-0.64592l0.07751,-0.02142z" fill="url(#color-12)" stroke="#000000"/><path d="M232.70854,182.42562l-0.05684,0.01571l-0.16996,-0.61493l0.05684,-0.01571z" fill="url(#color-13)" stroke="#000000"/><path d="M233.19201,182.01146l-0.10455,0.02889l-0.02648,-0.09579l0.10455,-0.02889z" fill="url(#color-14)" stroke="#000000"/><path d="M233.15154,181.86505l-0.10455,0.02889l-0.02071,-0.07497l0.10455,-0.02889z" fill="url(#color-15)" stroke="#000000"/><path d="M233.2273,182.13914l-0.10455,0.02889l-0.02071,-0.07496l0.10455,-0.02889z" fill="url(#color-16)" stroke="#000000"/><path d="M233.12009,181.75126l-0.10455,0.02889l-0.012,-0.04339l0.10455,-0.02889z" fill="url(#color-17)" stroke="#000000"/><path d="M233.25003,182.22133l-0.10455,0.02889l-0.012,-0.04339l0.10455,-0.02889z" fill="url(#color-18)" stroke="#000000"/><path d="M233.04944,182.05087l-0.10455,0.02889l-0.02648,-0.09579l0.10455,-0.02889z" fill="url(#color-19)" stroke="#000000"/><path d="M233.00898,181.90445l-0.10455,0.02889l-0.02071,-0.07496l0.10455,-0.02889z" fill="url(#color-20)" stroke="#000000"/><path d="M233.08473,182.17854l-0.10455,0.02889l-0.02071,-0.07496l0.10455,-0.02889z" fill="url(#color-21)" stroke="#000000"/><path d="M232.97752,181.79066l-0.10455,0.02889l-0.012,-0.04339l0.10455,-0.02889z" fill="url(#color-22)" stroke="#000000"/><path d="M233.10746,182.26076l-0.10455,0.02889l-0.012,-0.04339l0.10455,-0.02889z" fill="url(#color-23)" stroke="#000000"/><path d="M232.90688,182.09027l-0.10455,0.02889l-0.02648,-0.0958l0.10455,-0.02889z" fill="url(#color-24)" stroke="#000000"/><path d="M232.86641,181.94384l-0.10455,0.02889l-0.02071,-0.07496l0.10455,-0.02889z" fill="url(#color-25)" stroke="#000000"/><path d="M232.94218,182.21794l-0.10455,0.02889l-0.02071,-0.07496l0.10455,-0.02889z" fill="url(#color-26)" stroke="#000000"/><path d="M232.83497,181.83005l-0.10455,0.02889l-0.01199,-0.04339l0.10455,-0.02889z" fill="url(#color-27)" stroke="#000000"/><path d="M232.9649,182.30017l-0.10455,0.02889l-0.012,-0.04339l0.10455,-0.02889z" fill="url(#color-28)" stroke="#000000"/><path d="M232.76431,182.12966l-0.10455,0.02889l-0.02648,-0.09579l0.10455,-0.02889z" fill="url(#color-29)" stroke="#000000"/><path d="M232.72384,181.98323l-0.10455,0.02889l-0.02071,-0.07496l0.10455,-0.02889z" fill="url(#color-30)" stroke="#000000"/><path d="M232.79961,182.25736l-0.10455,0.02889l-0.02071,-0.07496l0.10455,-0.02889z" fill="url(#color-31)" stroke="#000000"/><path d="M232.6924,181.86946l-0.10455,0.02889l-0.012,-0.04339l0.10455,-0.02889z" fill="url(#color-32)" stroke="#000000"/><path d="M232.82233,182.33956l-0.10455,0.02889l-0.012,-0.04339l0.10455,-0.02889z" fill="url(#color-33)" stroke="#000000"/></g><path d="M233.39346,182.21515l-0.71828,0.19853l-0.15997,-0.57875l0.71828,-0.19853z" fill-opacity="0.68627" fill="#000000" stroke="#000000" stroke-width="0" stroke-linecap="butt"/><path d="M233.57459,182.29024l-0.19119,0.05285l-0.22567,-0.81645l0.19119,-0.05284z" fill-opacity="0.68627" fill="#000000" stroke="none" stroke-width="0" stroke-linecap="butt"/><path d="M233.45241,181.95889l-0.13436,0.03713l-0.03899,-0.14109l0.13435,-0.03713z" fill-opacity="0.68627" fill="#000000" stroke="#000000" stroke-width="0" stroke-linecap="butt"/><path d="M233.3928,181.74321l-0.13436,0.03713l-0.03052,-0.11042l0.13435,-0.03713z" fill-opacity="0.68627" fill="#000000" stroke="#000000" stroke-width="0" stroke-linecap="butt"/><path d="M233.5044,182.14696l-0.13435,0.03713l-0.03052,-0.11042l0.13436,-0.03713z" fill-opacity="0.68627" fill="#000000" stroke="#000000" stroke-width="0" stroke-linecap="butt"/><path d="M233.34647,181.5756l-0.13436,0.03713l-0.01766,-0.06391l0.13435,-0.03713z" fill-opacity="0.68627" fill="#000000" stroke="#000000" stroke-width="0" stroke-linecap="butt"/><path d="M233.53786,182.26805l-0.13435,0.03713l-0.01767,-0.06391l0.13435,-0.03713z" fill-opacity="0.68627" fill="#000000" stroke="#000000" stroke-width="0" stroke-linecap="butt"/><path d="M233.35982,182.25781l-0.07751,0.02141l-0.17853,-0.64592l0.07751,-0.02142z" fill-opacity="0.68627" fill="#000000" stroke="#000000" stroke-width="0" stroke-linecap="butt"/><path d="M232.70444,182.42229l-0.05684,0.01571l-0.16996,-0.61493l0.05684,-0.01571z" fill-opacity="0.68627" fill="#000000" stroke="#000000" stroke-width="0" stroke-linecap="butt"/><path d="M233.18791,182.00814l-0.10455,0.02889l-0.02648,-0.09579l0.10455,-0.02889z" fill-opacity="0.68627" fill="#000000" stroke="#000000" stroke-width="0" stroke-linecap="butt"/><path d="M233.14744,181.86172l-0.10455,0.02889l-0.02071,-0.07497l0.10455,-0.02889z" fill-opacity="0.68627" fill="#000000" stroke="#000000" stroke-width="0" stroke-linecap="butt"/><path d="M233.2232,182.13583l-0.10455,0.02889l-0.02071,-0.07496l0.10455,-0.02889z" fill-opacity="0.68627" fill="#000000" stroke="#000000" stroke-width="0" stroke-linecap="butt"/><path d="M233.11599,181.74793l-0.10455,0.02889l-0.012,-0.04339l0.10455,-0.02889z" fill-opacity="0.68627" fill="#000000" stroke="#000000" stroke-width="0" stroke-linecap="butt"/><path d="M233.24593,182.21802l-0.10455,0.02889l-0.012,-0.04339l0.10455,-0.02889z" fill-opacity="0.68627" fill="#000000" stroke="#000000" stroke-width="0" stroke-linecap="butt"/><path d="M233.04534,182.04754l-0.10455,0.02889l-0.02648,-0.09579l0.10455,-0.02889z" fill-opacity="0.68627" fill="#000000" stroke="#000000" stroke-width="0" stroke-linecap="butt"/><path d="M233.00487,181.90112l-0.10455,0.02889l-0.02071,-0.07496l0.10455,-0.02889z" fill-opacity="0.68627" fill="#000000" stroke="#000000" stroke-width="0" stroke-linecap="butt"/><path d="M233.08063,182.17522l-0.10455,0.02889l-0.02071,-0.07496l0.10455,-0.02889z" fill-opacity="0.68627" fill="#000000" stroke="#000000" stroke-width="0" stroke-linecap="butt"/><path d="M232.97342,181.78734l-0.10455,0.02889l-0.012,-0.04339l0.10455,-0.02889z" fill-opacity="0.68627" fill="#000000" stroke="#000000" stroke-width="0" stroke-linecap="butt"/><path d="M233.10336,182.25744l-0.10455,0.02889l-0.012,-0.04339l0.10455,-0.02889z" fill-opacity="0.68627" fill="#000000" stroke="#000000" stroke-width="0" stroke-linecap="butt"/><path d="M232.90278,182.08695l-0.10455,0.02889l-0.02648,-0.0958l0.10455,-0.02889z" fill-opacity="0.68627" fill="#000000" stroke="#000000" stroke-width="0" stroke-linecap="butt"/><path d="M232.86231,181.94053l-0.10455,0.02889l-0.02071,-0.07496l0.10455,-0.02889z" fill-opacity="0.68627" fill="#000000" stroke="#000000" stroke-width="0" stroke-linecap="butt"/><path d="M232.93808,182.21462l-0.10455,0.02889l-0.02071,-0.07496l0.10455,-0.02889z" fill-opacity="0.68627" fill="#000000" stroke="#000000" stroke-width="0" stroke-linecap="butt"/><path d="M232.83087,181.82674l-0.10455,0.02889l-0.01199,-0.04339l0.10455,-0.02889z" fill-opacity="0.68627" fill="#000000" stroke="#000000" stroke-width="0" stroke-linecap="butt"/><path d="M232.96079,182.29684l-0.10455,0.02889l-0.012,-0.04339l0.10455,-0.02889z" fill-opacity="0.68627" fill="#000000" stroke="#000000" stroke-width="0" stroke-linecap="butt"/><path d="M232.76021,182.12634l-0.10455,0.02889l-0.02648,-0.09579l0.10455,-0.02889z" fill-opacity="0.68627" fill="#000000" stroke="#000000" stroke-width="0" stroke-linecap="butt"/><path d="M232.71974,181.97992l-0.10455,0.02889l-0.02071,-0.07496l0.10455,-0.02889z" fill-opacity="0.68627" fill="#000000" stroke="#000000" stroke-width="0" stroke-linecap="butt"/><path d="M232.79551,182.25403l-0.10455,0.02889l-0.02071,-0.07496l0.10455,-0.02889z" fill-opacity="0.68627" fill="#000000" stroke="#000000" stroke-width="0" stroke-linecap="butt"/><path d="M232.6883,181.86613l-0.10455,0.02889l-0.012,-0.04339l0.10455,-0.02889z" fill-opacity="0.68627" fill="#000000" stroke="#000000" stroke-width="0" stroke-linecap="butt"/><path d="M232.81823,182.33624l-0.10455,0.02889l-0.012,-0.04339l0.10455,-0.02889z" fill-opacity="0.68627" fill="#000000" stroke="#000000" stroke-width="0" stroke-linecap="butt"/><path d="M240.09164,186.66333c0,0 -1.98537,0.43625 -4.55825,-1.7756c-2.39093,-1.79464 -2.2063,-4.91478 -2.2063,-4.91478h0.66795c0,0 -0.04057,2.66177 2.02062,4.37971c2.1049,1.7544 4.02873,1.63184 4.02873,1.63184z" fill="#000000" stroke="#000000" stroke-width="0.25" stroke-linecap="butt"/><g data-paper-data="{&quot;index&quot;:null}" stroke-width="0" stroke-linecap="butt"><path d="M235.05443,184.78377l-0.51998,0.53382l-0.43012,-0.41897l0.51997,-0.53382z" fill="url(#color-34)" stroke="#000000"/><path d="M235.2487,184.75718l-0.13841,0.14209l-0.60679,-0.59104l0.13841,-0.1421z" fill="url(#color-35)" stroke="none"/><path d="M234.97602,184.53276l-0.09726,0.09985l-0.10486,-0.10213l0.09726,-0.09985z" fill="url(#color-36)" stroke="#000000"/><path d="M234.81573,184.37661l-0.09726,0.09985l-0.08206,-0.07993l0.09726,-0.09985z" fill="url(#color-37)" stroke="#000000"/><path d="M235.11579,184.6689l-0.09727,0.09985l-0.08206,-0.07993l0.09726,-0.09985z" fill="url(#color-38)" stroke="#000000"/><path d="M234.69117,184.25529l-0.09726,0.09985l-0.0475,-0.04627l0.09726,-0.09985z" fill="url(#color-39)" stroke="#000000"/><path d="M235.20579,184.75655l-0.09727,0.09985l-0.0475,-0.04627l0.09727,-0.09985z" fill="url(#color-40)" stroke="#000000"/><path d="M235.04691,184.83757l-0.05612,0.0576l-0.48004,-0.46759l0.05611,-0.0576z" fill="url(#color-41)" stroke="#000000"/><path d="M234.56406,185.31023l-0.04115,0.04224l-0.45701,-0.44516l0.04116,-0.04224z" fill="url(#color-42)" stroke="#000000"/><path d="M234.77251,184.70872l-0.07569,0.0777l-0.07119,-0.06935l0.07569,-0.07769z" fill="url(#color-43)" stroke="#000000"/><path d="M234.66369,184.60274l-0.07569,0.07769l-0.05571,-0.05427l0.07569,-0.0777z" fill="url(#color-44)" stroke="#000000"/><path d="M234.8674,184.80117l-0.07569,0.0777l-0.05571,-0.05427l0.07569,-0.0777z" fill="url(#color-45)" stroke="#000000"/><path d="M234.57913,184.52036l-0.07569,0.0777l-0.03225,-0.03141l0.07569,-0.0777z" fill="url(#color-46)" stroke="#000000"/><path d="M234.92849,184.86066l-0.07569,0.07769l-0.03225,-0.0314l0.07569,-0.0777z" fill="url(#color-47)" stroke="#000000"/><path d="M234.6693,184.81469l-0.07569,0.0777l-0.0712,-0.06934l0.07569,-0.07769z" fill="url(#color-48)" stroke="#000000"/><path d="M234.56048,184.7087l-0.07569,0.07769l-0.05571,-0.05426l0.07569,-0.0777z" fill="url(#color-49)" stroke="#000000"/><path d="M234.76419,184.90713l-0.07569,0.0777l-0.05571,-0.05427l0.07569,-0.0777z" fill="url(#color-50)" stroke="#000000"/><path d="M234.47592,184.62631l-0.07569,0.07769l-0.03225,-0.03141l0.07569,-0.0777z" fill="url(#color-51)" stroke="#000000"/><path d="M234.82529,184.96662l-0.07569,0.0777l-0.03225,-0.03141l0.07569,-0.07769z" fill="url(#color-52)" stroke="#000000"/><path d="M234.5661,184.92064l-0.07569,0.0777l-0.0712,-0.06935l0.07569,-0.07769z" fill="url(#color-53)" stroke="#000000"/><path d="M234.45728,184.81464l-0.07569,0.07769l-0.05571,-0.05426l0.07569,-0.0777z" fill="url(#color-54)" stroke="#000000"/><path d="M234.66099,185.01307l-0.07569,0.0777l-0.05571,-0.05427l0.07569,-0.07769z" fill="url(#color-55)" stroke="#000000"/><path d="M234.37272,184.73225l-0.07569,0.07769l-0.03225,-0.0314l0.07569,-0.0777z" fill="url(#color-56)" stroke="#000000"/><path d="M234.72209,185.07259l-0.07569,0.0777l-0.03225,-0.03141l0.07569,-0.0777z" fill="url(#color-57)" stroke="#000000"/><path d="M234.46288,185.02659l-0.07569,0.07769l-0.0712,-0.06934l0.07569,-0.0777z" fill="url(#color-58)" stroke="#000000"/><path d="M234.35407,184.92059l-0.07569,0.0777l-0.05571,-0.05427l0.07569,-0.0777z" fill="url(#color-59)" stroke="#000000"/><path d="M234.55778,185.11902l-0.07569,0.07769l-0.05571,-0.05427l0.07569,-0.07769z" fill="url(#color-60)" stroke="#000000"/><path d="M234.2695,184.83822l-0.07569,0.0777l-0.03225,-0.03141l0.07569,-0.07769z" fill="url(#color-61)" stroke="#000000"/><path d="M234.61888,185.17854l-0.07569,0.07769l-0.03225,-0.0314l0.07569,-0.0777z" fill="url(#color-62)" stroke="#000000"/></g><g data-paper-data="{&quot;index&quot;:null}" stroke-width="0" stroke-linecap="butt"><path d="M237.56383,186.45501l-0.31678,0.67452l-0.5435,-0.25525l0.31679,-0.67453z" fill="url(#color-63)" stroke="#000000"/><path d="M237.73873,186.36638l-0.08432,0.17954l-0.76672,-0.36009l0.08432,-0.17954z" fill="url(#color-64)" stroke="none"/><path d="M237.40764,186.24346l-0.05926,0.12617l-0.13249,-0.06223l0.05925,-0.12617z" fill="url(#color-65)" stroke="#000000"/><path d="M237.2051,186.14835l-0.05926,0.12617l-0.1037,-0.04871l0.05926,-0.12617z" fill="url(#color-66)" stroke="#000000"/><path d="M237.58426,186.3264l-0.05925,0.12617l-0.1037,-0.0487l0.05926,-0.12617z" fill="url(#color-67)" stroke="#000000"/><path d="M237.04771,186.07443l-0.05926,0.12617l-0.06002,-0.02818l0.05925,-0.12617z" fill="url(#color-68)" stroke="#000000"/><path d="M237.69797,186.3798l-0.05926,0.12617l-0.06002,-0.02818l0.05926,-0.12617z" fill="url(#color-69)" stroke="#000000"/><path d="M237.57433,186.50832l-0.03419,0.07278l-0.60657,-0.28488l0.03418,-0.07278z" fill="url(#color-70)" stroke="#000000"/><path d="M237.27262,187.11293l-0.02507,0.05338l-0.57747,-0.27121l0.02507,-0.05338z" fill="url(#color-71)" stroke="#000000"/><path d="M237.27288,186.4763l-0.04612,0.09818l-0.08996,-0.04225l0.04612,-0.09818z" fill="url(#color-72)" stroke="#000000"/><path d="M237.13538,186.41173l-0.04611,0.09818l-0.0704,-0.03306l0.04611,-0.09818z" fill="url(#color-73)" stroke="#000000"/><path d="M237.39278,186.53262l-0.04611,0.09818l-0.0704,-0.03306l0.04611,-0.09818z" fill="url(#color-74)" stroke="#000000"/><path d="M237.02853,186.36155l-0.04612,0.09818l-0.04075,-0.01913l0.04611,-0.09818z" fill="url(#color-75)" stroke="#000000"/><path d="M237.46998,186.56887l-0.04611,0.09818l-0.04076,-0.01913l0.04612,-0.09818z" fill="url(#color-76)" stroke="#000000"/><path d="M237.20999,186.61021l-0.04611,0.09818l-0.08996,-0.04224l0.04611,-0.09818z" fill="url(#color-77)" stroke="#000000"/><path d="M237.0725,186.54564l-0.04611,0.09818l-0.0704,-0.03306l0.04612,-0.09818z" fill="url(#color-78)" stroke="#000000"/><path d="M237.3299,186.66653l-0.04611,0.09818l-0.0704,-0.03306l0.04612,-0.09818z" fill="url(#color-79)" stroke="#000000"/><path d="M236.96565,186.49544l-0.04612,0.09818l-0.04075,-0.01914l0.04612,-0.09818z" fill="url(#color-80)" stroke="#000000"/><path d="M237.4071,186.70278l-0.04611,0.09817l-0.04075,-0.01913l0.04611,-0.09818z" fill="url(#color-81)" stroke="#000000"/><path d="M237.14713,186.74409l-0.04611,0.09818l-0.08997,-0.04225l0.04612,-0.09818z" fill="url(#color-82)" stroke="#000000"/><path d="M237.00963,186.67951l-0.04612,0.09818l-0.0704,-0.03306l0.04612,-0.09818z" fill="url(#color-83)" stroke="#000000"/><path d="M237.26702,186.8004l-0.04611,0.09818l-0.0704,-0.03306l0.04611,-0.09818z" fill="url(#color-84)" stroke="#000000"/><path d="M236.90277,186.62932l-0.04611,0.09818l-0.04075,-0.01914l0.04611,-0.09818z" fill="url(#color-85)" stroke="#000000"/><path d="M237.34423,186.83666l-0.04611,0.09818l-0.04075,-0.01914l0.04612,-0.09818z" fill="url(#color-86)" stroke="#000000"/><path d="M237.08424,186.87796l-0.04611,0.09818l-0.08996,-0.04224l0.04611,-0.09818z" fill="url(#color-87)" stroke="#000000"/><path d="M236.94674,186.81339l-0.04611,0.09818l-0.0704,-0.03306l0.04611,-0.09817z" fill="url(#color-88)" stroke="#000000"/><path d="M237.20414,186.93427l-0.04611,0.09818l-0.0704,-0.03306l0.04612,-0.09818z" fill="url(#color-89)" stroke="#000000"/><path d="M236.83989,186.76321l-0.04612,0.09818l-0.04075,-0.01913l0.04612,-0.09818z" fill="url(#color-90)" stroke="#000000"/><path d="M237.28135,186.97052l-0.04611,0.09818l-0.04075,-0.01914l0.04612,-0.09818z" fill="url(#color-91)" stroke="#000000"/></g><path d="M240.15645,186.042c-3.40233,-0.19903 -5.96545,-2.17695 -6.18723,-5.86875" fill="none" stroke="#ffffff" stroke-width="0.5" stroke-linecap="butt"/><path d="M239.63808,185.81363c0,0 -2.3287,-0.25852 -3.76311,-1.73662c-1.42406,-1.46745 -1.67823,-3.62988 -1.67823,-3.62988" fill="none" stroke="url(#color-92)" stroke-width="0.25" stroke-linecap="round"/><g data-paper-data="{&quot;index&quot;:null}" fill-opacity="0.68627" fill="#000000" stroke-width="0" stroke-linecap="butt"><path d="M235.05033,184.78044l-0.51998,0.53382l-0.43012,-0.41897l0.51997,-0.53382z" stroke="#000000"/><path d="M235.2446,184.75386l-0.13841,0.14209l-0.60679,-0.59104l0.13841,-0.1421z" stroke="none"/><path d="M234.97192,184.52944l-0.09726,0.09985l-0.10486,-0.10213l0.09726,-0.09985z" stroke="#000000"/><path d="M234.81163,184.37329l-0.09726,0.09985l-0.08206,-0.07993l0.09726,-0.09985z" stroke="#000000"/><path d="M235.11169,184.66559l-0.09727,0.09985l-0.08206,-0.07993l0.09726,-0.09985z" stroke="#000000"/><path d="M234.68707,184.25197l-0.09726,0.09985l-0.0475,-0.04627l0.09726,-0.09985z" stroke="#000000"/><path d="M235.20169,184.75323l-0.09727,0.09985l-0.0475,-0.04627l0.09727,-0.09985z" stroke="#000000"/><path d="M235.04281,184.83424l-0.05612,0.0576l-0.48004,-0.46759l0.05611,-0.0576z" stroke="#000000"/><path d="M234.55995,185.30692l-0.04115,0.04224l-0.45701,-0.44516l0.04116,-0.04224z" stroke="#000000"/><path d="M234.76841,184.7054l-0.07569,0.0777l-0.07119,-0.06935l0.07569,-0.07769z" stroke="#000000"/><path d="M234.65959,184.59941l-0.07569,0.07769l-0.05571,-0.05427l0.07569,-0.0777z" stroke="#000000"/><path d="M234.8633,184.79785l-0.07569,0.0777l-0.05571,-0.05427l0.07569,-0.0777z" stroke="#000000"/><path d="M234.57503,184.51705l-0.07569,0.0777l-0.03225,-0.03141l0.07569,-0.0777z" stroke="#000000"/><path d="M234.92439,184.85734l-0.07569,0.07769l-0.03225,-0.0314l0.07569,-0.0777z" stroke="#000000"/><path d="M234.6652,184.81136l-0.07569,0.0777l-0.0712,-0.06934l0.07569,-0.07769z" stroke="#000000"/><path d="M234.55638,184.70537l-0.07569,0.07769l-0.05571,-0.05426l0.07569,-0.0777z" stroke="#000000"/><path d="M234.76009,184.90379l-0.07569,0.0777l-0.05571,-0.05427l0.07569,-0.0777z" stroke="#000000"/><path d="M234.47182,184.62299l-0.07569,0.07769l-0.03225,-0.03141l0.07569,-0.0777z" stroke="#000000"/><path d="M234.82118,184.9633l-0.07569,0.0777l-0.03225,-0.03141l0.07569,-0.07769z" stroke="#000000"/><path d="M234.562,184.91731l-0.07569,0.0777l-0.0712,-0.06935l0.07569,-0.07769z" stroke="#000000"/><path d="M234.45318,184.81132l-0.07569,0.07769l-0.05571,-0.05426l0.07569,-0.0777z" stroke="#000000"/><path d="M234.65689,185.00974l-0.07569,0.0777l-0.05571,-0.05427l0.07569,-0.07769z" stroke="#000000"/><path d="M234.36862,184.72894l-0.07569,0.07769l-0.03225,-0.0314l0.07569,-0.0777z" stroke="#000000"/><path d="M234.71798,185.06926l-0.07569,0.0777l-0.03225,-0.03141l0.07569,-0.0777z" stroke="#000000"/><path d="M234.45878,185.02328l-0.07569,0.07769l-0.0712,-0.06934l0.07569,-0.0777z" stroke="#000000"/><path d="M234.34997,184.91727l-0.07569,0.0777l-0.05571,-0.05427l0.07569,-0.0777z" stroke="#000000"/><path d="M234.55368,185.11571l-0.07569,0.07769l-0.05571,-0.05427l0.07569,-0.07769z" stroke="#000000"/><path d="M234.2654,184.83489l-0.07569,0.0777l-0.03225,-0.03141l0.07569,-0.07769z" stroke="#000000"/><path d="M234.61478,185.17521l-0.07569,0.07769l-0.03225,-0.0314l0.07569,-0.0777z" stroke="#000000"/></g><g data-paper-data="{&quot;index&quot;:null}" fill-opacity="0.68627" fill="#000000" stroke-width="0" stroke-linecap="butt"><path d="M237.55973,186.45169l-0.31678,0.67452l-0.5435,-0.25525l0.31679,-0.67453z" stroke="#000000"/><path d="M237.73462,186.36305l-0.08432,0.17954l-0.76672,-0.36009l0.08432,-0.17954z" stroke="none"/><path d="M237.40354,186.24014l-0.05926,0.12617l-0.13249,-0.06223l0.05925,-0.12617z" stroke="#000000"/><path d="M237.201,186.14502l-0.05926,0.12617l-0.1037,-0.04871l0.05926,-0.12617z" stroke="#000000"/><path d="M237.58015,186.32308l-0.05925,0.12617l-0.1037,-0.0487l0.05926,-0.12617z" stroke="#000000"/><path d="M237.0436,186.0711l-0.05926,0.12617l-0.06002,-0.02818l0.05925,-0.12617z" stroke="#000000"/><path d="M237.69387,186.37648l-0.05926,0.12617l-0.06002,-0.02818l0.05926,-0.12617z" stroke="#000000"/><path d="M237.57023,186.505l-0.03419,0.07278l-0.60657,-0.28488l0.03418,-0.07278z" stroke="#000000"/><path d="M237.26852,187.10961l-0.02507,0.05338l-0.57747,-0.27121l0.02507,-0.05338z" stroke="#000000"/><path d="M237.26878,186.47298l-0.04612,0.09818l-0.08996,-0.04225l0.04612,-0.09818z" stroke="#000000"/><path d="M237.13128,186.40841l-0.04611,0.09818l-0.0704,-0.03306l0.04611,-0.09818z" stroke="#000000"/><path d="M237.38868,186.5293l-0.04611,0.09818l-0.0704,-0.03306l0.04611,-0.09818z" stroke="#000000"/><path d="M237.02442,186.35823l-0.04612,0.09818l-0.04075,-0.01913l0.04611,-0.09818z" stroke="#000000"/><path d="M237.46588,186.56556l-0.04611,0.09818l-0.04076,-0.01913l0.04612,-0.09818z" stroke="#000000"/><path d="M237.20589,186.60689l-0.04611,0.09818l-0.08996,-0.04224l0.04611,-0.09818z" stroke="#000000"/><path d="M237.0684,186.54231l-0.04611,0.09818l-0.0704,-0.03306l0.04612,-0.09818z" stroke="#000000"/><path d="M237.3258,186.6632l-0.04611,0.09818l-0.0704,-0.03306l0.04612,-0.09818z" stroke="#000000"/><path d="M236.96154,186.49211l-0.04612,0.09818l-0.04075,-0.01914l0.04612,-0.09818z" stroke="#000000"/><path d="M237.403,186.69945l-0.04611,0.09817l-0.04075,-0.01913l0.04611,-0.09818z" stroke="#000000"/><path d="M237.14302,186.74076l-0.04611,0.09818l-0.08997,-0.04225l0.04612,-0.09818z" stroke="#000000"/><path d="M237.00552,186.67618l-0.04612,0.09818l-0.0704,-0.03306l0.04612,-0.09818z" stroke="#000000"/><path d="M237.26292,186.79706l-0.04611,0.09818l-0.0704,-0.03306l0.04611,-0.09818z" stroke="#000000"/><path d="M236.89866,186.626l-0.04611,0.09818l-0.04075,-0.01914l0.04611,-0.09818z" stroke="#000000"/><path d="M237.34013,186.83334l-0.04611,0.09818l-0.04075,-0.01914l0.04612,-0.09818z" stroke="#000000"/><path d="M237.08014,186.87464l-0.04611,0.09818l-0.08996,-0.04224l0.04611,-0.09818z" stroke="#000000"/><path d="M236.94264,186.81007l-0.04611,0.09818l-0.0704,-0.03306l0.04611,-0.09817z" stroke="#000000"/><path d="M237.20004,186.93096l-0.04611,0.09818l-0.0704,-0.03306l0.04612,-0.09818z" stroke="#000000"/><path d="M236.83579,186.75988l-0.04612,0.09818l-0.04075,-0.01913l0.04612,-0.09818z" stroke="#000000"/><path d="M237.27725,186.96721l-0.04611,0.09818l-0.04075,-0.01914l0.04612,-0.09818z" stroke="#000000"/></g></g><g><path d="M240.04437,174.01886c0,0 -1.92382,-0.12254 -4.02873,1.63184c-2.06119,1.71795 -2.02062,4.37971 -2.02062,4.37971h-0.66794c0,0 -0.18463,-3.12012 2.2063,-4.91478c2.57288,-2.21185 4.55825,-1.77561 4.55825,-1.77561z" data-paper-data="{&quot;index&quot;:null}" fill="#000000" stroke="#000000" stroke-width="0.25" stroke-linecap="butt"/><g data-paper-data="{&quot;index&quot;:null}" stroke-width="0" stroke-linecap="butt"><path d="M234.6243,175.63853l-0.51997,-0.53382l0.43012,-0.41897l0.51998,0.53382z" fill="url(#color-93)" stroke="#000000"/><path d="M234.64192,175.83717l-0.13841,-0.1421l0.60679,-0.59104l0.13841,0.14209z" fill="url(#color-94)" stroke="none"/><path d="M234.87116,175.57271l-0.09726,-0.09985l0.10486,-0.10213l0.09726,0.09985z" fill="url(#color-95)" stroke="#000000"/><path d="M234.73367,175.70665l-0.09726,-0.09985l0.08206,-0.07993l0.09726,0.09985z" fill="url(#color-96)" stroke="#000000"/><path d="M235.03373,175.41435l-0.09726,-0.09985l0.08206,-0.07993l0.09726,0.09985z" fill="url(#color-97)" stroke="#000000"/><path d="M234.64367,175.7943l-0.09726,-0.09985l0.0475,-0.04627l0.09726,0.09985z" fill="url(#color-98)" stroke="#000000"/><path d="M235.15829,175.29304l-0.09726,-0.09985l0.0475,-0.04627l0.09726,0.09985z" fill="url(#color-99)" stroke="#000000"/><path d="M234.56687,175.63334l-0.05611,-0.0576l0.48004,-0.46759l0.05611,0.0576z" fill="url(#color-100)" stroke="#000000"/><path d="M234.10705,175.13823l-0.04115,-0.04224l0.45701,-0.44516l0.04115,0.04224z" fill="url(#color-101)" stroke="#000000"/><path d="M234.70131,175.36396l-0.07569,-0.07769l0.07119,-0.06935l0.07569,0.0777z" fill="url(#color-102)" stroke="#000000"/><path d="M234.60798,175.45487l-0.07569,-0.0777l0.05571,-0.05427l0.07569,0.07769z" fill="url(#color-103)" stroke="#000000"/><path d="M234.81169,175.25645l-0.07569,-0.0777l0.05571,-0.05427l0.07569,0.0777z" fill="url(#color-104)" stroke="#000000"/><path d="M234.54688,175.51435l-0.07569,-0.0777l0.03225,-0.03141l0.07569,0.0777z" fill="url(#color-105)" stroke="#000000"/><path d="M234.89625,175.17407l-0.07569,-0.0777l0.03225,-0.0314l0.07569,0.07769z" fill="url(#color-106)" stroke="#000000"/><path d="M234.5981,175.258l-0.07569,-0.07769l0.07119,-0.06934l0.07569,0.0777z" fill="url(#color-107)" stroke="#000000"/><path d="M234.50477,175.34891l-0.07569,-0.0777l0.05571,-0.05426l0.07569,0.07769z" fill="url(#color-108)" stroke="#000000"/><path d="M234.70848,175.15049l-0.07569,-0.0777l0.05571,-0.05427l0.07569,0.0777z" fill="url(#color-109)" stroke="#000000"/><path d="M234.44366,175.40841l-0.07569,-0.0777l0.03225,-0.03141l0.07569,0.07769z" fill="url(#color-110)" stroke="#000000"/><path d="M234.79304,175.06811l-0.07569,-0.07769l0.03225,-0.03141l0.07569,0.0777z" fill="url(#color-111)" stroke="#000000"/><path d="M234.4949,175.15203l-0.07568,-0.07769l0.07119,-0.06935l0.07569,0.0777z" fill="url(#color-112)" stroke="#000000"/><path d="M234.40157,175.24295l-0.07569,-0.0777l0.05571,-0.05426l0.07569,0.07769z" fill="url(#color-113)" stroke="#000000"/><path d="M234.60528,175.04454l-0.07569,-0.07769l0.05571,-0.05427l0.07569,0.0777z" fill="url(#color-114)" stroke="#000000"/><path d="M234.34046,175.30247l-0.07569,-0.0777l0.03225,-0.0314l0.07569,0.07769z" fill="url(#color-115)" stroke="#000000"/><path d="M234.68984,174.96217l-0.07569,-0.0777l0.03225,-0.03141l0.07569,0.0777z" fill="url(#color-116)" stroke="#000000"/><path d="M234.39169,175.04607l-0.07569,-0.0777l0.0712,-0.06934l0.07569,0.07769z" fill="url(#color-117)" stroke="#000000"/><path d="M234.29836,175.137l-0.07569,-0.0777l0.05571,-0.05427l0.07569,0.0777z" fill="url(#color-118)" stroke="#000000"/><path d="M234.50207,174.93857l-0.07569,-0.07769l0.05571,-0.05427l0.07569,0.07769z" fill="url(#color-119)" stroke="#000000"/><path d="M234.23725,175.19652l-0.07569,-0.07769l0.03225,-0.03141l0.07569,0.0777z" fill="url(#color-120)" stroke="#000000"/><path d="M234.58663,174.85622l-0.07569,-0.0777l0.03225,-0.0314l0.07569,0.07769z" fill="url(#color-121)" stroke="#000000"/></g><g data-paper-data="{&quot;index&quot;:null}" stroke-width="0" stroke-linecap="butt"><path d="M233.23759,178.36359l-0.71827,-0.19853l0.15997,-0.57875l0.71827,0.19853z" fill="url(#color-122)" stroke="#000000"/><path d="M233.35302,178.5262l-0.19119,-0.05284l0.22567,-0.81645l0.19119,0.05285z" fill="url(#color-123)" stroke="none"/><path d="M233.41752,178.18221l-0.13435,-0.03713l0.03899,-0.14109l0.13435,0.03713z" fill="url(#color-124)" stroke="#000000"/><path d="M233.36638,178.36721l-0.13435,-0.03713l0.03052,-0.11042l0.13436,0.03713z" fill="url(#color-125)" stroke="#000000"/><path d="M233.47797,177.96349l-0.13435,-0.03713l0.03052,-0.11042l0.13435,0.03713z" fill="url(#color-126)" stroke="#000000"/><path d="M233.3329,178.4883l-0.13435,-0.03713l0.01767,-0.06391l0.13435,0.03713z" fill="url(#color-127)" stroke="#000000"/><path d="M233.52429,177.79589l-0.13436,-0.03713l0.01767,-0.06391l0.13435,0.03713z" fill="url(#color-128)" stroke="#000000"/><path d="M233.18539,178.38809l-0.07751,-0.02142l0.17853,-0.64592l0.07751,0.02141z" fill="url(#color-129)" stroke="#000000"/><path d="M232.53858,178.19265l-0.05684,-0.01571l0.16997,-0.61493l0.05684,0.01571z" fill="url(#color-130)" stroke="#000000"/><path d="M233.16553,178.08767l-0.10455,-0.02889l0.02648,-0.09579l0.10455,0.02889z" fill="url(#color-131)" stroke="#000000"/><path d="M233.13082,178.21327l-0.10455,-0.02889l0.02071,-0.07497l0.10455,0.02889z" fill="url(#color-132)" stroke="#000000"/><path d="M233.20659,177.93914l-0.10455,-0.02889l0.02071,-0.07496l0.10455,0.02889z" fill="url(#color-133)" stroke="#000000"/><path d="M233.1081,178.29546l-0.10455,-0.02889l0.01199,-0.04339l0.10455,0.02889z" fill="url(#color-134)" stroke="#000000"/><path d="M233.23803,177.82538l-0.10455,-0.02889l0.012,-0.04339l0.10455,0.02889z" fill="url(#color-135)" stroke="#000000"/><path d="M233.02296,178.04828l-0.10455,-0.02889l0.02648,-0.09579l0.10455,0.02889z" fill="url(#color-136)" stroke="#000000"/><path d="M232.98825,178.17386l-0.10455,-0.02889l0.02071,-0.07496l0.10455,0.02889z" fill="url(#color-137)" stroke="#000000"/><path d="M233.06402,177.89974l-0.10455,-0.02889l0.02071,-0.07496l0.10455,0.02889z" fill="url(#color-138)" stroke="#000000"/><path d="M232.96553,178.25606l-0.10455,-0.02889l0.012,-0.04339l0.10455,0.02889z" fill="url(#color-139)" stroke="#000000"/><path d="M233.09547,177.78595l-0.10455,-0.02889l0.012,-0.04339l0.10455,0.02889z" fill="url(#color-140)" stroke="#000000"/><path d="M232.8804,178.00885l-0.10455,-0.02889l0.02648,-0.0958l0.10455,0.02889z" fill="url(#color-141)" stroke="#000000"/><path d="M232.8457,178.13444l-0.10455,-0.02889l0.02071,-0.07496l0.10455,0.02889z" fill="url(#color-142)" stroke="#000000"/><path d="M232.92146,177.86035l-0.10455,-0.02889l0.02071,-0.07496l0.10455,0.02889z" fill="url(#color-143)" stroke="#000000"/><path d="M232.82297,178.21667l-0.10455,-0.02889l0.012,-0.04339l0.10455,0.02889z" fill="url(#color-144)" stroke="#000000"/><path d="M232.9529,177.74656l-0.10455,-0.02889l0.012,-0.04339l0.10455,0.02889z" fill="url(#color-145)" stroke="#000000"/><path d="M232.73783,177.96944l-0.10455,-0.02889l0.02648,-0.09579l0.10455,0.02889z" fill="url(#color-146)" stroke="#000000"/><path d="M232.70313,178.09504l-0.10455,-0.02889l0.02071,-0.07496l0.10455,0.02889z" fill="url(#color-147)" stroke="#000000"/><path d="M232.77889,177.82095l-0.10455,-0.02889l0.02071,-0.07496l0.10455,0.02889z" fill="url(#color-148)" stroke="#000000"/><path d="M232.6804,178.17724l-0.10455,-0.02889l0.01199,-0.04339l0.10455,0.02889z" fill="url(#color-149)" stroke="#000000"/><path d="M232.81033,177.70716l-0.10455,-0.02889l0.012,-0.04339l0.10455,0.02889z" fill="url(#color-150)" stroke="#000000"/></g><g data-paper-data="{&quot;index&quot;:null}" stroke-width="0" stroke-linecap="butt"><path d="M237.02033,173.80355l-0.31678,-0.67453l0.5435,-0.25525l0.31678,0.67452z" fill="url(#color-151)" stroke="#000000"/><path d="M236.97201,173.99705l-0.08432,-0.17954l0.76672,-0.36009l0.08432,0.17954z" fill="url(#color-152)" stroke="none"/><path d="M237.27514,173.82211l-0.05926,-0.12617l0.13249,-0.06223l0.05926,0.12617z" fill="url(#color-153)" stroke="#000000"/><path d="M237.10141,173.90369l-0.05926,-0.12617l0.10369,-0.04871l0.05927,0.12617z" fill="url(#color-154)" stroke="#000000"/><path d="M237.48056,173.72563l-0.05926,-0.12617l0.1037,-0.0487l0.05926,0.12617z" fill="url(#color-155)" stroke="#000000"/><path d="M236.98769,173.95709l-0.05926,-0.12617l0.06002,-0.02818l0.05925,0.12617z" fill="url(#color-156)" stroke="#000000"/><path d="M237.63795,173.65171l-0.05926,-0.12617l0.06002,-0.02818l0.05926,0.12617z" fill="url(#color-157)" stroke="#000000"/><path d="M236.96775,173.77987l-0.03419,-0.07278l0.60658,-0.28488l0.03418,0.07278z" fill="url(#color-158)" stroke="#000000"/><path d="M236.69515,173.1616l-0.02507,-0.05338l0.57747,-0.27121l0.02507,0.05338z" fill="url(#color-159)" stroke="#000000"/><path d="M237.18292,173.56927l-0.04612,-0.09818l0.08996,-0.04225l0.04612,0.09818z" fill="url(#color-160)" stroke="#000000"/><path d="M237.06498,173.62464l-0.04611,-0.09818l0.0704,-0.03306l0.04611,0.09818z" fill="url(#color-161)" stroke="#000000"/><path d="M237.32239,173.50375l-0.04611,-0.09818l0.0704,-0.03306l0.04611,0.09818z" fill="url(#color-162)" stroke="#000000"/><path d="M236.98778,173.66089l-0.04611,-0.09818l0.04074,-0.01913l0.04612,0.09818z" fill="url(#color-163)" stroke="#000000"/><path d="M237.42923,173.45356l-0.04612,-0.09818l0.04075,-0.01913l0.04611,0.09818z" fill="url(#color-164)" stroke="#000000"/><path d="M237.12003,173.43539l-0.04611,-0.09818l0.08996,-0.04224l0.04611,0.09818z" fill="url(#color-165)" stroke="#000000"/><path d="M237.0021,173.49076l-0.04611,-0.09818l0.0704,-0.03306l0.04611,0.09818z" fill="url(#color-166)" stroke="#000000"/><path d="M237.25951,173.36987l-0.04612,-0.09818l0.0704,-0.03306l0.04611,0.09818z" fill="url(#color-167)" stroke="#000000"/><path d="M236.9249,173.52702l-0.04612,-0.09818l0.04075,-0.01914l0.04612,0.09818z" fill="url(#color-168)" stroke="#000000"/><path d="M237.36635,173.3197l-0.04611,-0.09818l0.04075,-0.01913l0.04611,0.09817z" fill="url(#color-169)" stroke="#000000"/><path d="M237.05717,173.30149l-0.04612,-0.09818l0.08996,-0.04225l0.04611,0.09818z" fill="url(#color-170)" stroke="#000000"/><path d="M236.93922,173.3569l-0.04612,-0.09818l0.0704,-0.03306l0.04612,0.09818z" fill="url(#color-171)" stroke="#000000"/><path d="M237.19663,173.23601l-0.04611,-0.09818l0.0704,-0.03306l0.04611,0.09818z" fill="url(#color-172)" stroke="#000000"/><path d="M236.86202,173.39314l-0.04611,-0.09818l0.04075,-0.01914l0.04611,0.09818z" fill="url(#color-173)" stroke="#000000"/><path d="M237.30348,173.18582l-0.04612,-0.09818l0.04075,-0.01914l0.04611,0.09818z" fill="url(#color-174)" stroke="#000000"/><path d="M236.99428,173.16761l-0.04611,-0.09818l0.08996,-0.04224l0.04611,0.09818z" fill="url(#color-175)" stroke="#000000"/><path d="M236.87634,173.22302l-0.04611,-0.09817l0.0704,-0.03306l0.04611,0.09818z" fill="url(#color-176)" stroke="#000000"/><path d="M237.13375,173.10214l-0.04612,-0.09818l0.0704,-0.03306l0.04611,0.09818z" fill="url(#color-177)" stroke="#000000"/><path d="M236.79914,173.25927l-0.04612,-0.09818l0.04075,-0.01913l0.04612,0.09818z" fill="url(#color-178)" stroke="#000000"/><path d="M237.2406,173.05191l-0.04612,-0.09818l0.04075,-0.01914l0.04611,0.09818z" fill="url(#color-179)" stroke="#000000"/></g><path d="M233.96034,180.19228c0,-3.42169 2.52154,-6.12371 6.03651,-6.2515" fill="none" stroke="#ffffff" stroke-width="0.5" stroke-linecap="butt"/><path d="M234.18301,179.78016c0,0 0.16499,-2.16999 1.52761,-3.68768c1.37251,-1.52871 3.68885,-1.87097 3.68885,-1.87097" data-paper-data="{&quot;index&quot;:null}" fill="none" stroke="url(#color-180)" stroke-width="0.25" stroke-linecap="round"/><g data-paper-data="{&quot;index&quot;:null}" fill-opacity="0.68627" fill="#000000" stroke-width="0" stroke-linecap="butt"><path d="M234.6202,175.63521l-0.51997,-0.53382l0.43012,-0.41897l0.51998,0.53382z" stroke="#000000"/><path d="M234.63781,175.83385l-0.13841,-0.1421l0.60679,-0.59104l0.13841,0.14209z" stroke="none"/><path d="M234.86706,175.5694l-0.09726,-0.09985l0.10486,-0.10213l0.09726,0.09985z" stroke="#000000"/><path d="M234.72956,175.70333l-0.09726,-0.09985l0.08206,-0.07993l0.09726,0.09985z" stroke="#000000"/><path d="M235.02963,175.41104l-0.09726,-0.09985l0.08206,-0.07993l0.09726,0.09985z" stroke="#000000"/><path d="M234.63957,175.79098l-0.09726,-0.09985l0.0475,-0.04627l0.09726,0.09985z" stroke="#000000"/><path d="M235.15418,175.28971l-0.09726,-0.09985l0.0475,-0.04627l0.09726,0.09985z" stroke="#000000"/><path d="M234.56277,175.63003l-0.05611,-0.0576l0.48004,-0.46759l0.05611,0.0576z" stroke="#000000"/><path d="M234.10295,175.13491l-0.04115,-0.04224l0.45701,-0.44516l0.04115,0.04224z" stroke="#000000"/><path d="M234.69721,175.36062l-0.07569,-0.07769l0.07119,-0.06935l0.07569,0.0777z" stroke="#000000"/><path d="M234.60388,175.45155l-0.07569,-0.0777l0.05571,-0.05427l0.07569,0.07769z" stroke="#000000"/><path d="M234.80759,175.25312l-0.07569,-0.0777l0.05571,-0.05427l0.07569,0.0777z" stroke="#000000"/><path d="M234.54278,175.51104l-0.07569,-0.0777l0.03225,-0.03141l0.07569,0.0777z" stroke="#000000"/><path d="M234.89215,175.17075l-0.07569,-0.0777l0.03225,-0.0314l0.07569,0.07769z" stroke="#000000"/><path d="M234.594,175.25468l-0.07569,-0.07769l0.07119,-0.06934l0.07569,0.0777z" stroke="#000000"/><path d="M234.50067,175.34558l-0.07569,-0.0777l0.05571,-0.05426l0.07569,0.07769z" stroke="#000000"/><path d="M234.70438,175.14716l-0.07569,-0.0777l0.05571,-0.05427l0.07569,0.0777z" stroke="#000000"/><path d="M234.43956,175.40509l-0.07569,-0.0777l0.03225,-0.03141l0.07569,0.07769z" stroke="#000000"/><path d="M234.78894,175.0648l-0.07569,-0.07769l0.03225,-0.03141l0.07569,0.0777z" stroke="#000000"/><path d="M234.4908,175.14871l-0.07568,-0.07769l0.07119,-0.06935l0.07569,0.0777z" stroke="#000000"/><path d="M234.39746,175.23963l-0.07569,-0.0777l0.05571,-0.05426l0.07569,0.07769z" stroke="#000000"/><path d="M234.60117,175.04122l-0.07569,-0.07769l0.05571,-0.05427l0.07569,0.0777z" stroke="#000000"/><path d="M234.33636,175.29915l-0.07569,-0.0777l0.03225,-0.0314l0.07569,0.07769z" stroke="#000000"/><path d="M234.68574,174.95884l-0.07569,-0.0777l0.03225,-0.03141l0.07569,0.0777z" stroke="#000000"/><path d="M234.38759,175.04276l-0.07569,-0.0777l0.0712,-0.06934l0.07569,0.07769z" stroke="#000000"/><path d="M234.29426,175.13368l-0.07569,-0.0777l0.05571,-0.05427l0.07569,0.0777z" stroke="#000000"/><path d="M234.49797,174.93525l-0.07569,-0.07769l0.05571,-0.05427l0.07569,0.07769z" stroke="#000000"/><path d="M234.23315,175.1932l-0.07569,-0.07769l0.03225,-0.03141l0.07569,0.0777z" stroke="#000000"/><path d="M234.58253,174.85288l-0.07569,-0.0777l0.03225,-0.0314l0.07569,0.07769z" stroke="#000000"/></g><g data-paper-data="{&quot;index&quot;:null}" fill-opacity="0.68627" fill="#000000" stroke-width="0" stroke-linecap="butt"><path d="M233.23349,178.36027l-0.71827,-0.19853l0.15997,-0.57875l0.71827,0.19853z" stroke="#000000"/><path d="M233.34892,178.52288l-0.19119,-0.05284l0.22567,-0.81645l0.19119,0.05285z" stroke="none"/><path d="M233.41342,178.1789l-0.13435,-0.03713l0.03899,-0.14109l0.13435,0.03713z" stroke="#000000"/><path d="M233.36228,178.36389l-0.13435,-0.03713l0.03052,-0.11042l0.13436,0.03713z" stroke="#000000"/><path d="M233.47387,177.96015l-0.13435,-0.03713l0.03052,-0.11042l0.13435,0.03713z" stroke="#000000"/><path d="M233.3288,178.48499l-0.13435,-0.03713l0.01767,-0.06391l0.13435,0.03713z" stroke="#000000"/><path d="M233.52019,177.79256l-0.13436,-0.03713l0.01767,-0.06391l0.13435,0.03713z" stroke="#000000"/><path d="M233.18129,178.38477l-0.07751,-0.02142l0.17853,-0.64592l0.07751,0.02141z" stroke="#000000"/><path d="M232.53447,178.18932l-0.05684,-0.01571l0.16997,-0.61493l0.05684,0.01571z" stroke="#000000"/><path d="M233.16143,178.08435l-0.10455,-0.02889l0.02648,-0.09579l0.10455,0.02889z" stroke="#000000"/><path d="M233.12672,178.20993l-0.10455,-0.02889l0.02071,-0.07497l0.10455,0.02889z" stroke="#000000"/><path d="M233.20249,177.93582l-0.10455,-0.02889l0.02071,-0.07496l0.10455,0.02889z" stroke="#000000"/><path d="M233.104,178.29214l-0.10455,-0.02889l0.01199,-0.04339l0.10455,0.02889z" stroke="#000000"/><path d="M233.23393,177.82205l-0.10455,-0.02889l0.012,-0.04339l0.10455,0.02889z" stroke="#000000"/><path d="M233.01886,178.04494l-0.10455,-0.02889l0.02648,-0.09579l0.10455,0.02889z" stroke="#000000"/><path d="M232.98415,178.17053l-0.10455,-0.02889l0.02071,-0.07496l0.10455,0.02889z" stroke="#000000"/><path d="M233.05992,177.89642l-0.10455,-0.02889l0.02071,-0.07496l0.10455,0.02889z" stroke="#000000"/><path d="M232.96143,178.25273l-0.10455,-0.02889l0.012,-0.04339l0.10455,0.02889z" stroke="#000000"/><path d="M233.09136,177.78264l-0.10455,-0.02889l0.012,-0.04339l0.10455,0.02889z" stroke="#000000"/><path d="M232.8763,178.00552l-0.10455,-0.02889l0.02648,-0.0958l0.10455,0.02889z" stroke="#000000"/><path d="M232.8416,178.13112l-0.10455,-0.02889l0.02071,-0.07496l0.10455,0.02889z" stroke="#000000"/><path d="M232.91735,177.85703l-0.10455,-0.02889l0.02071,-0.07496l0.10455,0.02889z" stroke="#000000"/><path d="M232.81887,178.21333l-0.10455,-0.02889l0.012,-0.04339l0.10455,0.02889z" stroke="#000000"/><path d="M232.9488,177.74324l-0.10455,-0.02889l0.012,-0.04339l0.10455,0.02889z" stroke="#000000"/><path d="M232.73373,177.96612l-0.10455,-0.02889l0.02648,-0.09579l0.10455,0.02889z" stroke="#000000"/><path d="M232.69903,178.09172l-0.10455,-0.02889l0.02071,-0.07496l0.10455,0.02889z" stroke="#000000"/><path d="M232.77479,177.81762l-0.10455,-0.02889l0.02071,-0.07496l0.10455,0.02889z" stroke="#000000"/><path d="M232.6763,178.17392l-0.10455,-0.02889l0.01199,-0.04339l0.10455,0.02889z" stroke="#000000"/><path d="M232.80623,177.70383l-0.10455,-0.02889l0.012,-0.04339l0.10455,0.02889z" stroke="#000000"/></g><g data-paper-data="{&quot;index&quot;:null}" fill-opacity="0.68627" fill="#000000" stroke-width="0" stroke-linecap="butt"><path d="M237.01623,173.80023l-0.31678,-0.67453l0.5435,-0.25525l0.31678,0.67452z" stroke="#000000"/><path d="M236.96791,173.99373l-0.08432,-0.17954l0.76672,-0.36009l0.08432,0.17954z" stroke="none"/><path d="M237.27104,173.81878l-0.05926,-0.12617l0.13249,-0.06223l0.05926,0.12617z" stroke="#000000"/><path d="M237.09731,173.90037l-0.05926,-0.12617l0.10369,-0.04871l0.05927,0.12617z" stroke="#000000"/><path d="M237.47646,173.72231l-0.05926,-0.12617l0.1037,-0.0487l0.05926,0.12617z" stroke="#000000"/><path d="M236.98358,173.95377l-0.05926,-0.12617l0.06002,-0.02818l0.05925,0.12617z" stroke="#000000"/><path d="M237.63385,173.64838l-0.05926,-0.12617l0.06002,-0.02818l0.05926,0.12617z" stroke="#000000"/><path d="M236.96365,173.77655l-0.03419,-0.07278l0.60658,-0.28488l0.03418,0.07278z" stroke="#000000"/><path d="M236.69105,173.15828l-0.02507,-0.05338l0.57747,-0.27121l0.02507,0.05338z" stroke="#000000"/><path d="M237.17882,173.56595l-0.04612,-0.09818l0.08996,-0.04225l0.04612,0.09818z" stroke="#000000"/><path d="M237.06088,173.62132l-0.04611,-0.09818l0.0704,-0.03306l0.04611,0.09818z" stroke="#000000"/><path d="M237.31828,173.50043l-0.04611,-0.09818l0.0704,-0.03306l0.04611,0.09818z" stroke="#000000"/><path d="M236.98368,173.65757l-0.04611,-0.09818l0.04074,-0.01913l0.04612,0.09818z" stroke="#000000"/><path d="M237.42513,173.45025l-0.04612,-0.09818l0.04075,-0.01913l0.04611,0.09818z" stroke="#000000"/><path d="M237.11593,173.43206l-0.04611,-0.09818l0.08996,-0.04224l0.04611,0.09818z" stroke="#000000"/><path d="M236.998,173.48745l-0.04611,-0.09818l0.0704,-0.03306l0.04611,0.09818z" stroke="#000000"/><path d="M237.2554,173.36655l-0.04612,-0.09818l0.0704,-0.03306l0.04611,0.09818z" stroke="#000000"/><path d="M236.9208,173.5237l-0.04612,-0.09818l0.04075,-0.01914l0.04612,0.09818z" stroke="#000000"/><path d="M237.36225,173.31637l-0.04611,-0.09818l0.04075,-0.01913l0.04611,0.09817z" stroke="#000000"/><path d="M237.05307,173.29817l-0.04612,-0.09818l0.08996,-0.04225l0.04611,0.09818z" stroke="#000000"/><path d="M236.93512,173.35358l-0.04612,-0.09818l0.0704,-0.03306l0.04612,0.09818z" stroke="#000000"/><path d="M237.19252,173.23269l-0.04611,-0.09818l0.0704,-0.03306l0.04611,0.09818z" stroke="#000000"/><path d="M236.85792,173.38983l-0.04611,-0.09818l0.04075,-0.01914l0.04611,0.09818z" stroke="#000000"/><path d="M237.29938,173.18249l-0.04612,-0.09818l0.04075,-0.01914l0.04611,0.09818z" stroke="#000000"/><path d="M236.99018,173.16429l-0.04611,-0.09818l0.08996,-0.04224l0.04611,0.09818z" stroke="#000000"/><path d="M236.87224,173.21969l-0.04611,-0.09817l0.0704,-0.03306l0.04611,0.09818z" stroke="#000000"/><path d="M237.12965,173.0988l-0.04612,-0.09818l0.0704,-0.03306l0.04611,0.09818z" stroke="#000000"/><path d="M236.79504,173.25594l-0.04612,-0.09818l0.04075,-0.01913l0.04612,0.09818z" stroke="#000000"/><path d="M237.2365,173.0486l-0.04612,-0.09818l0.04075,-0.01914l0.04611,0.09818z" stroke="#000000"/></g></g></g></g></svg>