<svg version="1.1" xmlns="http://www.w3.org/2000/svg" xmlns:xlink="http://www.w3.org/1999/xlink" width="72.80963" height="104.95436" viewBox="0,0,72.80963,104.95436"><defs><radialGradient cx="238.27653" cy="177.34873" r="22.57159" gradientUnits="userSpaceOnUse" id="color-1"><stop offset="0" stop-color="#3c3c3c"/><stop offset="1" stop-color="#939393"/></radialGradient><linearGradient x1="239.33807" y1="155.79414" x2="239.39102" y2="162.64499" gradientUnits="userSpaceOnUse" id="color-2"><stop offset="0" stop-color="#696969"/><stop offset="1" stop-color="#a0a0a0"/></linearGradient><radialGradient cx="235.12714" cy="133.17382" r="13.11833" gradientUnits="userSpaceOnUse" id="color-3"><stop offset="0" stop-color="#dcdcdc"/><stop offset="1" stop-color="#a0a0a0"/></radialGradient><radialGradient cx="240.76785" cy="140.01502" r="9.85359" gradientUnits="userSpaceOnUse" id="color-4"><stop offset="0" stop-color="#c5dfff"/><stop offset="1" stop-color="#219cff"/></radialGradient><radialGradient cx="229.89978" cy="133.82855" r="10.07074" gradientUnits="userSpaceOnUse" id="color-5"><stop offset="0" stop-color="#303030"/><stop offset="1" stop-color="#292929"/></radialGradient><radialGradient cx="246.30282" cy="130.52186" r="2.65078" gradientUnits="userSpaceOnUse" id="color-6"><stop offset="0" stop-color="#787878"/><stop offset="1" stop-color="#292929"/></radialGradient><radialGradient cx="235.16759" cy="132.773" r="4.17314" gradientUnits="userSpaceOnUse" id="color-7"><stop offset="0" stop-color="#a7a7a7"/><stop offset="1" stop-color="#292929"/></radialGradient><radialGradient cx="283.6242" cy="169.37628" r="0.96706" gradientUnits="userSpaceOnUse" id="color-8"><stop offset="0" stop-color="#c6beb6"/><stop offset="1" stop-color="#a9a4a1"/></radialGradient><radialGradient cx="285.44306" cy="169.96508" r="3.98079" gradientUnits="userSpaceOnUse" id="color-9"><stop offset="0" stop-color="#d9d0c7"/><stop offset="1" stop-color="#b7b1ad"/></radialGradient></defs><g transform="translate(-218.71489,-129.37202)"><g data-paper-data="{&quot;isPaintingLayer&quot;:true}" fill-rule="nonzero" stroke-linejoin="miter" stroke-miterlimit="10" stroke-dasharray="" stroke-dashoffset="0" style="mix-blend-mode: normal"><path d="M223.48368,200.0353l-0.34879,-45.14185l29.93449,-0.2313l0.34879,45.14185z" fill="url(#color-1)" stroke="#ed6b00" stroke-width="0" stroke-linecap="butt"/><g><path d="M226.12339,227.23573l3.75904,-33.71008c0,0 6.75518,-2.18267 9.822,-2.18267c3.62872,0 0.6063,4.24407 0.6063,4.24407c0,0 -3.09204,0.08829 -3.39803,1.52409c-0.93579,4.39099 -2.78619,30.12458 -2.78619,30.12458z" fill="#494949" stroke="#000000" stroke-width="0" stroke-linecap="butt"/><path d="M218.7149,232.15169c0,0 0.61145,-1.46541 0.87307,-1.98866c0.21362,-0.42723 1.67337,-1.04283 1.67337,-1.04283c0,0 2.87078,-0.52826 4.24057,-0.6468c2.3149,-0.20032 8.24914,-0.08075 8.24914,-0.08075c0,0 0.18654,1.78201 0.16433,2.53701c-0.01648,0.56041 -0.2856,1.5858 -0.2856,1.5858c0,0 -0.80978,0.42493 -2.37463,0.77781c-0.84924,0.19151 -2.6127,-0.20879 -3.78777,-0.02896c-0.93338,0.14284 -1.58295,0.71166 -2.83553,0.76063c-2.06025,0.08055 -4.1116,0.06689 -4.70436,0.06689c-0.8269,0 -1.2126,-1.94015 -1.2126,-1.94015z" data-paper-data="{&quot;index&quot;:null}" fill="#141415" stroke="#000000" stroke-width="0" stroke-linecap="butt"/><path d="M218.98579,231.51703c0,0 0.36892,-2.43548 0.63055,-2.95873c0.21362,-0.42723 1.67337,-1.04283 1.67337,-1.04283c0,0 3.23456,-0.52826 4.60434,-0.6468c0.23296,-0.02016 0.35598,-3.60004 0.35598,-3.60004c0,0 3.28733,0.24389 3.72275,0.23408c0.80976,-0.01824 -0.72604,3.24957 0.12091,3.24981c0.48368,0.00014 2.04996,0.7565 2.80058,0.01889c0.83894,-0.82441 1.32529,-3.03123 1.32529,-3.03123l-0.07637,3.04773c0,0 0.06762,0.96834 -0.80847,1.8858c-0.59976,0.62808 -0.39071,1.79073 -1.26542,2.3793c-1.27187,0.85581 -1.43643,0.91707 -1.78458,0.97035c-0.99967,0.15299 -1.27796,-0.61058 -3.58733,-0.44204c-1.10442,0.0806 -0.74527,1.01524 -3.8809,1.26883c-3.3205,0.26854 -2.36989,-1.33311 -2.61811,-1.33311c-0.8269,0 -1.21259,0 -1.21259,0z" data-paper-data="{&quot;index&quot;:null}" fill="#252527" stroke="#000000" stroke-width="0" stroke-linecap="butt"/><path d="M225.00077,227.48709l2.66771,1.09134" data-paper-data="{&quot;index&quot;:null}" fill="none" stroke="#ffffff" stroke-width="0.5" stroke-linecap="round"/><path d="M223.18189,227.4871l2.54644,1.45511" data-paper-data="{&quot;index&quot;:null}" fill="none" stroke="#ffffff" stroke-width="0.5" stroke-linecap="round"/><path d="M222.09055,227.72961l1.45512,1.45512" data-paper-data="{&quot;index&quot;:null}" fill="none" stroke="#ffffff" stroke-width="0.5" stroke-linecap="round"/><path d="M226.69841,224.45562l2.18267,0.24252" data-paper-data="{&quot;index&quot;:null}" fill="none" stroke="#969696" stroke-width="0.5" stroke-linecap="round"/><path d="M226.45589,225.18317l1.94015,0.36378" data-paper-data="{&quot;index&quot;:null}" fill="none" stroke="#969696" stroke-width="0.5" stroke-linecap="round"/></g><g><path d="M245.93093,227.32045c0,0 -1.8504,-25.73359 -2.78619,-30.12458c-0.30599,-1.4358 -3.39803,-1.52409 -3.39803,-1.52409c0,0 -3.02242,-4.24407 0.6063,-4.24407c3.06682,0 9.822,2.18267 9.822,2.18267l3.75904,33.71008z" data-paper-data="{&quot;index&quot;:null}" fill="#494949" stroke="#000000" stroke-width="0" stroke-linecap="butt"/><path d="M259.69261,234.32551c-0.59276,0 -2.64411,0.01365 -4.70436,-0.0669c-1.25258,-0.04897 -1.90215,-0.61779 -2.83553,-0.76063c-1.17507,-0.17982 -2.93854,0.22047 -3.78778,0.02896c-1.56485,-0.35288 -2.37463,-0.77782 -2.37463,-0.77782c0,0 -0.26911,-1.0254 -0.2856,-1.5858c-0.02221,-0.75501 0.16433,-2.53701 0.16433,-2.53701c0,0 5.93425,-0.11957 8.24914,0.08076c1.36979,0.11854 4.24057,0.6468 4.24057,0.6468c0,0 1.45976,0.6156 1.67337,1.04283c0.26162,0.52325 0.87307,1.98865 0.87307,1.98865c0,0 -0.3857,1.94015 -1.21259,1.94015z" data-paper-data="{&quot;index&quot;:null}" fill="#141415" stroke="#000000" stroke-width="0" stroke-linecap="butt"/><path d="M259.4217,231.7507c-0.24822,0 0.7024,1.60165 -2.61811,1.33311c-3.13563,-0.25358 -2.77648,-1.18823 -3.8809,-1.26883c-2.30937,-0.16854 -2.58765,0.59503 -3.58732,0.44205c-0.34815,-0.05328 -0.51271,-0.11454 -1.78459,-0.97035c-0.87472,-0.58857 -0.66566,-1.75122 -1.26542,-2.3793c-0.87609,-0.91745 -0.80847,-1.8858 -0.80847,-1.8858l-0.07637,-3.04773c0,0 0.48635,2.20681 1.32529,3.03122c0.75062,0.73761 2.3169,-0.01875 2.80058,-0.01889c0.84696,-0.00024 -0.68885,-3.26804 0.12091,-3.2498c0.43542,0.00981 3.72275,-0.23409 3.72275,-0.23409c0,0 0.12302,3.57989 0.35598,3.60005c1.36979,0.11854 4.60434,0.6468 4.60434,0.6468c0,0 1.45976,0.6156 1.67338,1.04283c0.26162,0.52325 0.63055,2.95873 0.63055,2.95873c0,0 -0.3857,0 -1.2126,0z" data-paper-data="{&quot;index&quot;:null}" fill="#252527" stroke="#000000" stroke-width="0" stroke-linecap="butt"/><path d="M254.61932,227.72077l-2.6677,1.09133" fill="none" stroke="#ffffff" stroke-width="0.5" stroke-linecap="round"/><path d="M253.89177,229.17588l2.54645,-1.45511" fill="none" stroke="#ffffff" stroke-width="0.5" stroke-linecap="round"/><path d="M257.52956,227.96329l-1.45512,1.45511" fill="none" stroke="#ffffff" stroke-width="0.5" stroke-linecap="round"/><path d="M252.92169,224.68929l-2.18266,0.24252" fill="none" stroke="#969696" stroke-width="0.5" stroke-linecap="round"/><path d="M251.22407,225.78062l1.94015,-0.36378" fill="none" stroke="#969696" stroke-width="0.5" stroke-linecap="round"/></g><g stroke="#000000" stroke-width="0" stroke-linecap="butt"><path d="M273.51539,173.94832c0,0 -2.2482,-1.78895 -5.38121,-2.93794c-0.7534,-0.2763 -3.15333,-1.33548 -3.92971,-1.61223c-1.8375,-0.65499 -3.68005,-1.24351 -4.79801,-1.67081c-2.40451,-0.91908 -5.42623,-2.14888 -5.42623,-2.14888c0,0 -5.86516,-2.54698 -5.63178,-3.49638c1.36475,-5.55245 7.32932,-1.49825 7.32932,-1.49825c0,0 4.34101,1.6908 6.89747,2.66798c1.04042,0.39768 1.63536,1.19671 3.22527,1.87131c0.7127,0.30239 3.59765,1.99926 5.4035,2.95865c3.0067,1.59734 4.97934,2.26436 4.97934,2.26436z" data-paper-data="{&quot;index&quot;:null}" fill="#bdbdbd"/><path d="M279.98026,172.37171c-0.1147,0.16159 3.09997,1.70941 2.6687,2.42631c-0.21212,0.35262 -2.04873,-1.08672 -3.01531,-0.97108c-0.51163,0.0612 3.72976,1.66027 2.80867,2.38752c-0.31622,0.24966 -3.0461,-1.55667 -3.91882,-1.58797c-0.46718,-0.01677 4.38156,2.33663 3.80298,2.84565c-0.34344,0.30216 -2.75032,-1.4886 -4.0638,-1.87404c-0.6399,-0.18778 3.04806,2.06872 2.52697,2.37789c-0.31894,0.18925 -4.02622,-1.8361 -4.08509,-1.82812c-0.33088,0.04489 1.58306,1.87623 0.92121,1.79966c-1.2198,-0.14112 -1.98251,-1.56642 -2.76308,-2.78707c-0.45603,-0.71321 -1.42419,-1.28145 -1.42419,-1.28145c0,0 0.34118,-1.55136 0.79161,-2.15952c0.43857,-0.59215 1.87636,-1.4427 1.87636,-1.4427c0,0 4.11673,1.75263 3.87371,2.09494z" data-paper-data="{&quot;index&quot;:null}" fill="#777777"/></g><path d="M235.56304,162.67457l-0.05294,-6.85084l7.65593,-0.05915l0.05294,6.85084z" fill="url(#color-2)" stroke="#000000" stroke-width="0" stroke-linecap="butt"/><path d="M252.30328,143.271c0.05972,7.73069 -5.62941,14.04199 -12.70706,14.09667c-7.07765,0.0547 -12.86365,-6.16796 -12.92337,-13.89863c-0.05972,-7.73069 5.62941,-14.04198 12.70706,-14.09666c7.07765,-0.0547 12.86365,6.16795 12.92337,13.89862z" fill="url(#color-3)" stroke="none" stroke-width="0" stroke-linecap="butt"/><path d="M244.05882,151.40706c-10.75828,0.61683 -10.14176,-4.86838 -10.17067,-8.61314c-0.02894,-3.74474 4.35732,-6.81455 9.79699,-6.85657c3.54108,-0.00854 -0.43023,4.98081 2.83691,5.36656c3.96691,0.46838 6.87939,0.78985 6.90245,3.77396c0,0 0.26421,5.77707 -9.36568,6.32919z" data-paper-data="{&quot;index&quot;:null}" fill="url(#color-4)" stroke="#ed6b00" stroke-width="0" stroke-linecap="butt"/><path d="M232.59016,133.81729c-0.16972,0.01683 -0.60611,0.06689 -1.07788,0.15214c-0.52023,0.21145 -1.12779,0.42645 -1.59248,0.66004c-0.28218,0.89498 0.80102,1.80087 -0.63507,2.48018c-2.44925,1.15853 -1.73225,-2.02555 -0.92113,-3.02983c1.26211,-1.11632 3.13391,-1.26366 4.74355,-1.58569c2.21712,-0.4436 4.37584,-1.11719 6.57012,-1.26817c0.08181,-0.08687 0.19423,-0.14561 0.32232,-0.15819l0.58569,-0.05742c0.29479,-0.08001 0.61512,-0.16336 0.9517,-0.24244c0.8743,-0.28072 1.92772,-0.43115 2.90952,-0.53117c0.48105,-0.09834 0.9322,-0.1461 1.30584,-0.11546c0.27372,-0.02236 0.52829,-0.04339 0.75563,-0.0657l0.61742,-0.06055c0.28122,-0.02758 0.53154,0.17804 0.5591,0.45924c0.02454,0.25031 -0.13564,0.4761 -0.36944,0.54218l-0.32892,0.1c0.14592,0.12069 0.27857,0.25898 0.39566,0.41665l0.23321,-0.12088l0.30217,0.5829c0.03222,0.05879 0.05335,0.1249 0.06031,0.19584c0.02758,0.28122 -0.17804,0.53154 -0.45923,0.55909c-0.08553,0.00838 -0.16818,-0.00479 -0.2426,-0.03511l-0.50855,-0.19486l0.00574,-0.01496l-0.04789,-0.0034c-0.3638,-0.22094 -0.73349,-0.38682 -1.10227,-0.49828c-0.55962,-0.01573 -1.14859,-0.07234 -1.74885,-0.11669c-1.01327,0.18233 -1.92715,0.81739 -2.57588,1.89093c0,0 -0.26556,0.43731 -0.70285,0.17173c-0.4373,-0.26556 -0.17174,-0.70286 -0.17174,-0.70286c0.05679,-0.09311 0.11545,-0.18367 0.1759,-0.27169l-0.28321,0.09272c-0.0379,0.01328 -0.07799,0.02231 -0.11976,0.02639c-0.28122,0.02758 -0.53154,-0.17804 -0.55909,-0.45924c-0.01396,-0.14233 0.03181,-0.27672 0.11688,-0.37834c-0.2451,0.00238 -0.47647,0.01752 -0.673,0.06761c-1.37258,0.34985 -3.48404,0.47893 -5.47456,0.80018c0.01307,0.24116 -0.14443,0.45548 -0.37116,0.51957l-0.59625,0.18126l-0.00586,-0.01926l-0.00745,0.002z" fill="url(#color-5)" stroke="none" stroke-width="0.5" stroke-linecap="butt"/><path d="M247.65493,129.96976c2.70667,-0.3051 2.68362,-0.26423 2.91262,1.56427c0.22899,1.82849 -0.75594,3.3678 -2.19989,3.43811c-1.44397,0.07033 -2.80014,-1.35496 -3.02913,-3.18348c-0.22899,-1.82849 -0.22168,-1.53282 2.31643,-1.81893z" data-paper-data="{&quot;index&quot;:null}" fill="url(#color-6)" stroke="#000000" stroke-width="0" stroke-linecap="butt"/><path d="M241.05583,132.70169c0.37292,1.98859 -1.14401,3.94187 -3.3882,4.36271c-2.24416,0.42085 -4.36574,-0.85007 -4.73866,-2.83866c-0.37292,-1.98859 -0.42452,-2.0234 3.8508,-2.63125c4.00906,-0.57 3.90313,-0.88137 4.27605,1.10724z" fill="url(#color-7)" stroke="#000000" stroke-width="0" stroke-linecap="butt"/><path d="M229.51446,193.25353c0,0 0.12414,-5.56083 -0.43722,-10.94077c-0.38142,-3.65563 -1.45846,-6.94813 -1.6346,-9.44104c-0.33063,-4.67892 -0.31389,-13.38021 -0.31389,-13.38021c0,0 3.68715,-0.61327 5.46755,-0.26082c2.26634,0.44864 7.0279,2.73446 7.0279,2.73446c0,0 3.66001,-2.19895 5.57016,-2.62998c2.01546,-0.4548 6.22364,-0.03133 6.22364,-0.03133c0,0 0.00217,9.21737 -0.12909,12.65767c-0.11614,3.04385 -0.84034,6.37479 -1.09942,10.88174c-0.26702,4.64516 -0.06731,10.42237 -0.06731,10.42237c0,0 -2.76284,-0.748 -5.57816,-0.79446c-1.27854,-0.02111 -1.78343,1.01992 -2.98942,1.18846c-0.96395,0.13469 -2.64089,-0.59252 -3.56599,-0.62212c-0.69934,-0.02239 -2.0478,-0.5148 -2.54207,-0.51508c-0.99799,-0.0006 -1.60899,0.87775 -2.76544,1.04604c-1.34336,0.19549 -3.16663,-0.31493 -3.16663,-0.31493z" fill="#d0d0d0" stroke="#292e32" stroke-width="0" stroke-linecap="butt"/><path d="M242.4318,170.06874l-0.16623,-5.81934l7.64192,0.30474l0.04029,5.214z" fill="#f200ff" stroke="none" stroke-width="0" stroke-linecap="butt"/><path d="M263.50861,202.12714c0,0 -6.22271,-22.21872 -6.16822,-33.09809c0.05299,-10.58113 6.49079,-31.3083 6.49079,-31.3083l0.79977,0.00394c0,0 -5.78612,20.8101 -5.83867,31.30349c-0.05486,10.95549 5.51613,33.10291 5.51613,33.10291z" fill="#2e2c2a" stroke="none" stroke-width="0" stroke-linecap="butt"/><g stroke="none" stroke-width="0" stroke-linecap="butt"><path d="M264.77862,130.24866c0,0 -1.63623,4.2582 1.95869,10.54878c4.03728,7.06473 12.31186,17.3962 14.20831,24.51862c0.25741,0.96681 -1.66127,2.49165 -1.66545,3.324c-0.00538,1.07417 1.88966,1.60379 1.59744,2.80705c-2.11373,8.7038 -10.95789,20.36084 -15.33817,28.8374c-2.81899,5.45528 -1.15779,9.23355 -1.15779,9.23355c0,0 -2.79799,-3.83675 -1.39116,-8.89499c2.72022,-9.78041 15.50672,-23.04857 15.55152,-31.99735c0.03567,-7.12243 -12.78179,-20.12987 -15.21979,-27.95341c-1.9436,-6.23699 1.45642,-10.42369 1.45642,-10.42369z" fill="#403c36"/><path d="M268.7894,192.06763l4.43678,-7.79023l2.24487,0.80016l-4.43678,7.79023z" fill="#7d6239"/><path d="M270.56075,144.84208l4.35855,7.83349l-2.25275,0.77801l-4.35858,-7.83349z" data-paper-data="{&quot;index&quot;:null}" fill="#7d6239"/></g><g stroke="none" stroke-width="0" stroke-linecap="butt"><path d="M283.11006,168.2294l-0.08597,1.58266l-19.76284,0.06315l0.08595,-1.58266z" fill="#8c7463"/><path d="M283.62861,170.24666c-0.5422,0.0017 -0.95001,-0.5815 -0.91086,-1.30265c0.03915,-0.72115 0.51042,-1.3072 1.05268,-1.30892c0.5422,-0.0017 0.95001,0.58145 0.91084,1.30261c-0.03915,0.72115 -0.51041,1.30726 -1.05266,1.30897z" fill="url(#color-8)"/><path d="M291.52452,168.91586l-8.21352,2.42919l1.45315,-2.4076l-1.19216,-2.39913z" fill="url(#color-9)"/><path d="M265.59179,168.55078l-1.69785,0.23216l-1.63009,-3.91807z" fill="#d7d7d7"/><path d="M264.57548,168.49353l-1.90361,0.26033l-1.82765,-4.39297z" fill="#e2e2e2"/><path d="M267.36091,168.53168l-1.28309,0.17541l-1.23192,-2.96098z" fill="#d7d7d7"/><path d="M266.59292,168.48846l-1.43865,0.1967l-1.38126,-3.31992z" fill="#e2e2e2"/><path d="M268.77369,168.36066l-1.0757,0.14708l-1.03285,-2.48246z" fill="#d7d7d7"/><path d="M268.12987,168.32442l-1.20615,0.16494l-1.15801,-2.7834z" fill="#e2e2e2"/><path d="M261.61996,173.47701l2.05616,-3.92986l1.6732,0.22138z" fill="#d7d7d7"/><path d="M260.14509,173.99027l2.30538,-4.4062l1.87608,0.24824z" fill="#e2e2e2"/><path d="M264.29859,172.57896l1.55396,-2.96986l1.26451,0.1673z" fill="#d7d7d7"/><path d="M263.18392,172.96679l1.74235,-3.32989l1.41778,0.18765z" fill="#e2e2e2"/><path d="M266.14887,172.28811l1.30278,-2.48993l1.06013,0.1402z" fill="#d7d7d7"/><path d="M265.21432,172.61327l1.46073,-2.79173l1.18866,0.15727z" fill="#e2e2e2"/><path d="M268.97132,168.19928l-0.0931,1.7146l-6.61337,0.02116l0.09312,-1.7146z" fill="#7c6352"/></g><g stroke="#000000" stroke-width="0" stroke-linecap="butt"><path d="M245.2409,178.39719c0,0 -11.51853,-0.23544 -15.01988,-0.91886c-2.79279,-0.54512 -5.81754,-0.98682 -7.2768,-2.88346c-2.24832,-2.29988 -1.54045,-7.57542 -1.54045,-7.57542c0,0 -1.49744,-7.51785 3.59009,-7.90761c4.89046,0.42471 3.69563,4.64782 3.69563,4.64782c0,0 -1.38914,4.72365 1.3063,6.68097c1.1696,0.84932 4.20783,0.98015 6.16651,1.08736c4.3336,0.2372 9.34624,-0.14427 9.34624,-0.14427z" fill="#bdbdbd"/><path d="M250.89731,179.23963c-0.0342,0.65698 -5.51547,-0.82733 -5.51547,-0.82733c0,0 -0.74042,-2.38675 -0.69925,-3.53976c0.04226,-1.18421 0.94966,-3.47439 0.94966,-3.47439c0,0 1.41433,0.14974 2.43811,-0.34883c1.75225,-0.85335 3.65109,-1.98416 4.97169,-1.06126c0.71654,0.50073 -2.64764,1.1091 -2.35616,1.4657c0.05186,0.06344 5.34672,0.82913 5.51053,1.3593c0.2676,0.86612 -5.19365,0.41321 -4.4096,0.75205c1.60938,0.69553 5.42888,0.58478 5.5263,1.28136c0.16411,1.17344 -6.52383,-0.20551 -6.04797,0.19558c0.88893,0.74924 5.04061,0.91076 5.15322,1.51566c0.32797,1.76197 -5.15342,-0.03128 -4.69613,0.50964c0.86389,1.02188 3.83685,0.84434 3.76381,1.48656c-0.14851,1.30576 -4.57255,0.37561 -4.58871,0.68573z" data-paper-data="{&quot;index&quot;:null}" fill="#777777"/></g></g></g></svg>