<svg version="1.1" xmlns="http://www.w3.org/2000/svg" xmlns:xlink="http://www.w3.org/1999/xlink" width="166.70531" height="84.34093" viewBox="0,0,166.70531,84.34093"><defs><radialGradient cx="231.48074" cy="189.13486" r="34.955" gradientUnits="userSpaceOnUse" id="color-1"><stop offset="0" stop-color="#33266a"/><stop offset="1" stop-color="#949074"/></radialGradient><linearGradient x1="266.40287" y1="180.3179" x2="258.83498" y2="187.75383" gradientUnits="userSpaceOnUse" id="color-2"><stop offset="0" stop-color="#694444"/><stop offset="1" stop-color="#98a1b9"/></linearGradient><radialGradient cx="283.68227" cy="148.98334" r="20.31544" gradientUnits="userSpaceOnUse" id="color-3"><stop offset="0" stop-color="#dcdcdc"/><stop offset="1" stop-color="#a0a0a0"/></radialGradient><radialGradient cx="276.61312" cy="144.74918" r="15.59586" gradientUnits="userSpaceOnUse" id="color-4"><stop offset="0" stop-color="#1c2f30"/><stop offset="1" stop-color="#142913"/></radialGradient><radialGradient cx="300.39625" cy="155.03778" r="4.10509" gradientUnits="userSpaceOnUse" id="color-5"><stop offset="0" stop-color="#786c41"/><stop offset="1" stop-color="#141a29"/></radialGradient><radialGradient cx="284.24535" cy="148.06154" r="6.46263" gradientUnits="userSpaceOnUse" id="color-6"><stop offset="0" stop-color="#7ba676"/><stop offset="1" stop-color="#291616"/></radialGradient><radialGradient cx="283.04418" cy="163.18803" r="15.25953" gradientUnits="userSpaceOnUse" id="color-7"><stop offset="0" stop-color="#d1ffc4"/><stop offset="1" stop-color="#2188ff"/></radialGradient><radialGradient cx="283.04418" cy="163.18803" r="15.25953" gradientUnits="userSpaceOnUse" id="color-8"><stop offset="0" stop-color="#ceffc4"/><stop offset="1" stop-color="#ff21cc"/></radialGradient><radialGradient cx="283.04418" cy="163.18803" r="15.25953" gradientUnits="userSpaceOnUse" id="color-9"><stop offset="0" stop-color="#ffe9c4"/><stop offset="1" stop-color="#4fff21"/></radialGradient><radialGradient cx="283.04418" cy="163.18803" r="15.25953" gradientUnits="userSpaceOnUse" id="color-10"><stop offset="0" stop-color="#ffe9c4"/><stop offset="1" stop-color="#4fff21"/></radialGradient><radialGradient cx="283.04417" cy="163.18803" r="15.25953" gradientUnits="userSpaceOnUse" id="color-11"><stop offset="0" stop-color="#ffe9c4"/><stop offset="1" stop-color="#ffa321"/></radialGradient><radialGradient cx="283.04414" cy="163.18802" r="15.25953" gradientUnits="userSpaceOnUse" id="color-12"><stop offset="0" stop-color="#c4f0ff"/><stop offset="1" stop-color="#3d21ff"/></radialGradient></defs><g transform="translate(-149.04676,-143.67081)"><g data-paper-data="{&quot;isPaintingLayer&quot;:true}" fill-rule="nonzero" stroke-linejoin="miter" stroke-miterlimit="10" stroke-dasharray="" stroke-dashoffset="0" style="mix-blend-mode: normal"><path d="M191.61501,176.10165l67.38526,-18.61805l12.34597,44.68461l-67.38526,18.61805z" fill="url(#color-1)" stroke="#ed6b00" stroke-width="0" stroke-linecap="butt"/><path d="M254.68,183.52527l7.5679,-7.43598l8.30989,8.45724l-7.5679,7.43598z" fill="url(#color-2)" stroke="#000000" stroke-width="0" stroke-linecap="butt"/><g><path d="M162.42689,205.08823c0,0 39.92369,-1.5723 46.76719,-2.80027c2.23769,-0.40157 2.52962,-5.18299 2.52962,-5.18299c0,0 6.72071,-4.46514 6.53856,1.15137c-0.15396,4.7469 -3.87137,15.09305 -3.87137,15.09305l-52.36568,4.12597z" data-paper-data="{&quot;index&quot;:null}" fill="#4a433c" stroke="#000000" stroke-width="0" stroke-linecap="butt"/><path d="M150.89366,226.03712c0.02964,-0.91755 0.11163,-4.0934 0.33971,-7.27805c0.13878,-1.93639 1.05174,-2.91306 1.31972,-4.35066c0.33749,-1.80966 -0.19373,-4.55946 0.14531,-5.86427c0.6248,-2.40449 1.32323,-3.63642 1.32323,-3.63642c0,0 1.60074,-0.36501 2.46887,-0.36239c1.16975,0.00357 3.91856,0.3817 3.91856,0.3817c0,0 -0.11273,9.19117 -0.53909,12.7642c-0.25231,2.11422 -1.21398,6.53129 -1.21398,6.53129c0,0 -1.02612,2.22863 -1.69819,2.53769c-0.82302,0.37886 -3.12181,1.25152 -3.12181,1.25152c0,0 -2.9836,-0.69438 -2.94211,-1.97425z" data-paper-data="{&quot;index&quot;:null}" fill="#140d0d" stroke="#000000" stroke-width="0" stroke-linecap="butt"/><path d="M154.89244,225.7471c0.01246,-0.38418 -2.51426,1.00666 -1.93192,-4.11919c0.54984,-4.84071 1.97851,-4.2377 2.15872,-5.9433c0.37677,-3.56612 -0.79111,-4.03505 -0.50418,-5.57477c0.09996,-0.53629 0.20296,-0.78776 1.5915,-2.71341c0.9549,-1.3244 2.74406,-0.94236 3.74634,-1.83915c1.46401,-1.31002 2.95954,-1.15667 2.95954,-1.15667l4.72115,0.03481c0,0 -3.44017,0.64192 -4.75821,1.89921c-1.17941,1.12482 -0.08722,3.58709 -0.11127,4.33578c-0.04216,1.31096 5.09298,-0.90227 5.02403,0.35027c-0.03695,0.67348 0.17546,5.77391 0.17546,5.77391c0,0 -5.54726,0.01073 -5.59008,0.37023c-0.25231,2.11422 -1.23236,7.09431 -1.23236,7.09431c0,0 -1.02612,2.22863 -1.69806,2.53771c-0.82302,0.37886 -4.61117,0.82759 -4.61117,0.82759c0,0 0.01921,-0.59707 0.06079,-1.87687z" data-paper-data="{&quot;index&quot;:null}" fill="#1f261f" stroke="#000000" stroke-width="0" stroke-linecap="butt"/><path d="M161.37137,218.51606l-1.55528,-4.18393" fill="none" stroke="#ffb5b5" stroke-width="0.5" stroke-linecap="round"/><path d="M161.27982,221.33152l-2.12437,-4.01459" fill="none" stroke="#bffdff" stroke-width="0.5" stroke-linecap="round"/><path d="M158.67063,220.68315l2.17903,2.32515" fill="none" stroke="#eaffc1" stroke-width="0.5" stroke-linecap="round"/><path d="M166.14858,216.0408l-0.26579,-3.39052" fill="none" stroke="#8d967b" stroke-width="0.5" stroke-linecap="round"/><path d="M164.54458,213.35818l0.46573,3.02126" fill="none" stroke="#767796" stroke-width="0.5" stroke-linecap="round"/></g><g data-paper-data="{&quot;index&quot;:null}" stroke="#000000" stroke-width="0" stroke-linecap="butt"><path d="M290.43088,186.99163c0,0 -3.84262,-3.3328 -9.43564,-5.17653c-1.34502,-0.44341 -5.59752,-2.22889 -6.9849,-2.66912c-3.28342,-1.04197 -6.58813,-1.9447 -8.58087,-2.63871c-1.58495,-0.55196 -5.39722,-3.59609 -7.9302,-2.77554c-4.31656,1.39834 -7.77408,6.87972 -10.86535,3.2867c-9.0246,-12.22322 13.16142,-14.74016 13.16142,-14.74016c0,0 7.73212,2.76076 12.28879,4.34778c1.85447,0.64593 2.81378,2.20607 5.63583,3.33256c1.26511,0.50513 6.30205,3.53396 9.47331,5.21581c5.27992,2.8001 8.81141,3.84356 8.81141,3.84356z" fill="#b8bda6"/><path d="M302.96008,182.82086c-0.24167,0.35629 5.42535,3.03061 4.49666,4.59788c-0.45677,0.77088 -3.59319,-1.91345 -5.40298,-1.50711c-0.95814,0.21507 6.59951,2.82069 4.76261,4.49321c-0.63055,0.57416 -5.35328,-2.7216 -6.96262,-2.63771c-0.86147,0.04502 7.68258,4.11814 6.51927,5.27739c-0.69065,0.68808 -4.81844,-2.63065 -7.1788,-3.20892c-1.15001,-0.28159 5.26355,3.78811 4.24306,4.52121c-0.62462,0.44868 -7.11609,-3.13636 -7.2265,-3.10958c-0.62049,0.15019 2.58775,3.63781 1.37687,3.59144c-2.23153,-0.08533 -3.38354,-2.92379 -4.60554,-5.33317c-0.71397,-1.40797 -2.40217,-2.426 -2.40217,-2.426c0,0 0.91378,-3.28996 1.85817,-4.63385c0.91935,-1.30865 3.73491,-3.32625 3.73491,-3.32625c0,0 7.29882,2.94697 6.78688,3.70139z" data-paper-data="{&quot;index&quot;:null}" fill="#786274"/></g><g><path d="M157.66651,189.88663l52.38593,-3.85936c0,0 5.24286,9.66318 6.11449,14.33179c1.03149,5.52412 -6.28855,2.12939 -6.28855,2.12939c0,0 -1.01327,-4.68201 -3.2861,-4.73969c-6.95041,-0.17628 -46.65112,4.32111 -46.65112,4.32111z" fill="#413a4a" stroke="#000000" stroke-width="0" stroke-linecap="butt"/><path d="M154.3506,214.79304c0,0 -3.06324,-0.03569 -3.29823,-1.29452c-0.16856,-0.90235 -0.77231,-4.02123 -1.2353,-7.18068c-0.28149,-1.92073 0.39974,-3.0713 0.35203,-4.53271c-0.06024,-1.84001 -1.1708,-4.41072 -1.12069,-5.75801c0.09229,-2.48253 0.50915,-3.83589 0.50915,-3.83589c0,0 1.48444,-0.70115 2.33287,-0.88563c1.1432,-0.24855 3.9087,-0.4709 3.9087,-0.4709c0,0 1.86881,8.99973 2.22187,12.5809c0.20887,2.11907 0.22086,6.63935 0.22086,6.63935c0,0 -0.52219,2.39714 -1.11197,2.8438c-0.72222,0.54702 -2.77928,1.89433 -2.77928,1.89433z" data-paper-data="{&quot;index&quot;:null}" fill="#12140d" stroke="#000000" stroke-width="0" stroke-linecap="butt"/><path d="M155.23964,214.20024c0,0 -0.10967,-0.58715 -0.34477,-1.84598c-0.07068,-0.37796 -2.23862,1.52453 -2.77358,-3.60684c-0.50519,-4.84571 1.0198,-4.56435 0.82842,-6.26864c-0.4,-3.56343 -1.64128,-3.77016 -1.69269,-5.33537c-0.0179,-0.54516 0.02883,-0.81302 0.97004,-2.99255c0.64731,-1.49882 2.47683,-1.5111 3.26242,-2.60273c1.14775,-1.59445 2.64107,-1.76687 2.64107,-1.76687l4.61784,-0.98257c0,0 -3.22125,1.36755 -4.23785,2.87911c-0.90955,1.35241 0.68707,3.52163 0.82486,4.25791c0.24104,1.28926 4.77916,-1.97752 4.98161,-0.73969c0.10885,0.66566 1.4145,5.60076 1.4145,5.60076c0,0 -5.41476,1.20482 -5.37927,1.56525c0.20897,2.11899 0.32415,7.19307 0.32415,7.19307c0,0 -0.52219,2.39714 -1.11197,2.8438c-0.72222,0.54702 -4.32493,1.8009 -4.32493,1.8009z" data-paper-data="{&quot;index&quot;:null}" fill="#1e1e26" stroke="#000000" stroke-width="0" stroke-linecap="butt"/><path d="M159.66478,203.89788l-2.41961,-3.75083" fill="none" stroke="#c1ffce" stroke-width="0.5" stroke-linecap="round"/><path d="M157.24279,203.20389l2.93892,3.4629" fill="none" stroke="#eaffc1" stroke-width="0.5" stroke-linecap="round"/><path d="M157.49407,206.59559l2.62873,1.80152" fill="none" stroke="#ffb5b5" stroke-width="0.5" stroke-linecap="round"/><path d="M163.79707,200.45197l-0.98963,-3.25365" fill="none" stroke="#7d967f" stroke-width="0.5" stroke-linecap="round"/><path d="M162.75841,201.02787l-1.10521,-2.85002" fill="none" stroke="#966262" stroke-width="0.5" stroke-linecap="round"/></g><path d="M207.48449,182.00893c0,0 8.42826,-1.77839 16.34132,-4.52652c5.37685,-1.8673 9.96059,-4.655 13.65701,-5.80168c6.93791,-2.15233 20.06306,-5.20292 20.06306,-5.20292c0,0 2.22803,5.34251 2.32584,8.15145c0.12465,3.57574 -1.63872,11.56289 -1.63872,11.56289c0,0 4.60916,4.74105 5.93434,7.46865c1.39814,2.87808 2.24714,9.37268 2.24714,9.37268c0,0 -13.89673,3.26144 -19.13013,4.27962c-4.63046,0.90082 -9.90859,0.98622 -16.79548,2.18889c-7.0981,1.23938 -15.7381,3.58267 -15.7381,3.58267c0,0 0.15112,-4.43002 -0.77393,-8.69132c-0.4201,-1.93522 -2.16825,-2.32848 -2.84853,-4.08718c-0.54391,-1.4057 -0.04001,-4.19113 -0.32257,-5.59655c-0.21352,-1.06234 0.05236,-3.26957 -0.12198,-4.01495c-0.35187,-1.50493 -1.89221,-2.11563 -2.55457,-3.79987c-0.76957,-1.95628 -0.6444,-4.88566 -0.6444,-4.88566z" fill="#d1b0b0" stroke="#292e32" stroke-width="0" stroke-linecap="butt"/><g stroke="none" stroke-width="0" stroke-linecap="butt"><path d="M247.00744,193.28973l8.71526,-2.3075l2.24166,11.62978l-7.84712,1.90372z" fill="#f200ff"/><path d="M255.7227,190.98222l1.1764,6.10315c-0.83005,0.74335 -1.52692,1.61812 -2.06548,2.58251c-0.04106,-0.56827 -0.13142,-1.1408 -0.27412,-1.71254c-0.59074,-2.36688 -1.97959,-4.32429 -3.80803,-5.65691z" fill="#eeff00"/><path d="M248.84542,199.92461c3.28995,-0.67 6.07854,-3.02825 7.42614,-6.09493l1.47026,7.62771c-1.61899,-0.45595 -3.37517,-0.50912 -5.12395,-0.07266c-1.09775,0.27398 -2.10741,0.71964 -3.00751,1.3012z" fill="#00ff5f"/><path d="M249.63275,202.76676l-2.22275,-8.02381c1.27127,1.93947 3.17643,3.36313 5.3523,4.05291c-0.73592,1.29193 -1.18619,2.7482 -1.28958,4.26684c-0.59806,-0.15477 -1.21376,-0.25486 -1.83997,-0.29595z" fill="#004fff"/><path d="M247.00743,193.28971l8.71527,-2.30751l0.55582,2.8836c-1.61592,-0.45309 -3.3681,-0.50502 -5.1129,-0.06955c-1.32512,0.33073 -2.5219,0.91163 -3.55254,1.67976z" fill="#ff0000"/><path d="M254.79787,203.38018l-4.68063,1.13552l-1.15644,-4.17458c0.70593,0.10495 1.42975,0.1348 2.16069,0.08312c0.97787,1.27154 2.24422,2.28142 3.67637,2.95594z" fill="#00efff"/><path d="M257.96437,202.61199l-7.84713,1.90371l-0.07802,-0.28163c3.43458,-0.94246 5.97204,-3.57914 6.93161,-6.7765z" fill="#9c00ff"/></g><g data-paper-data="{&quot;index&quot;:null}" stroke="#000000" stroke-width="0" stroke-linecap="butt"><path d="M304.88972,205.65699c0,0 -3.13695,0.4349 -7.98589,2.13964c-2.91239,1.02395 -7.58401,2.95435 -8.72462,3.22183c-2.54427,0.59641 -5.46083,1.60515 -7.12067,1.91684c-1.84648,0.34671 -9.83606,3.35527 -15.32684,1.01885c-6.63704,-2.82416 -15.59232,-16.43998 -7.87562,-19.03171c5.36335,-2.00476 11.3144,9.41717 11.3144,9.41717c0,0 5.52666,0.02575 9.36274,-0.69442c1.78359,-0.33486 4.74262,-0.44979 7.66842,-0.9152c1.23625,-0.19664 5.08144,-1.17018 6.2821,-1.37492c4.99267,-0.85134 8.68756,-3.19326 8.68756,-3.19326z" fill="#b8bda6"/><path d="M311.29189,203.56422c0.3387,0.70719 -6.24598,2.27815 -6.24598,2.27815c0,0 -2.1359,-2.07657 -2.75006,-3.30728c-0.63094,-1.26388 -0.98649,-4.17883 -0.98649,-4.17883c0,0 1.56612,-0.64944 2.3537,-1.75534c1.34794,-1.89242 2.69132,-4.1587 4.59999,-3.94535c1.03571,0.11572 -2.13954,2.67059 -1.63109,2.87781c0.09045,0.03691 6.07032,-2.18013 6.544,-1.71854c0.77391,0.7542 -5.20176,3.39339 -4.1877,3.30127c2.0814,-0.18933 6.01698,-2.48278 6.51617,-1.80911c0.84079,1.1349 -6.94716,3.50404 -6.22033,3.6527c1.35786,0.27757 5.79647,-1.92012 6.25915,-1.35105c1.34785,1.65771 -5.41321,2.90523 -4.62593,3.2109c1.48703,0.57744 4.49823,-1.30349 4.7879,-0.5894c0.58896,1.4518 -4.57306,3.00002 -4.41319,3.33398z" data-paper-data="{&quot;index&quot;:null}" fill="#786274"/></g><g><path d="M296.60494,177.00196c-6.75508,9.88462 -19.56713,12.8845 -28.61681,6.70017c-9.04976,-6.18433 -10.91006,-19.21082 -4.15489,-29.09564c6.75508,-9.88462 19.56713,-12.8845 28.61688,-6.70012c9.04976,6.18433 10.91006,19.21082 4.15489,29.09564z" fill="url(#color-3)" stroke="none" stroke-width="0" stroke-linecap="butt"/><path d="M280.04482,147.11218c-0.23069,-0.12864 -0.82995,-0.45051 -1.50522,-0.75886c-0.84853,-0.19074 -1.81124,-0.45421 -2.60851,-0.56765c-1.14958,0.88884 -0.57251,2.99801 -2.9992,2.59319c-4.13874,-0.69086 -0.41331,-4.10669 1.50569,-4.66724c2.59155,-0.30455 5.10228,1.1622 7.43401,2.17484c3.21175,1.39494 6.55235,2.44568 9.47642,4.1925c0.1809,-0.03816 0.37566,-0.01342 0.5496,0.08376l0.7956,0.44463c0.4456,0.15877 0.92671,0.33561 1.42461,0.53254c1.35982,0.41553 2.8327,1.15489 4.16964,1.89532c0.69874,0.30002 1.31484,0.63779 1.76281,1.00692c0.36784,0.21336 0.7102,0.41168 1.0191,0.58406l0.83872,0.46855c0.38197,0.21346 0.51865,0.69592 0.30525,1.07814c-0.19005,0.34 -0.59319,0.48565 -0.94887,0.36328l-0.50685,-0.16332c0.07885,0.28245 0.12537,0.57564 0.13515,0.87953l0.40351,0.05212l-0.13081,1.00835c-0.01101,0.10315 -0.04245,0.20598 -0.09623,0.30239c-0.21346,0.38197 -0.69592,0.51865 -1.07814,0.30525c-0.11614,-0.06482 -0.20993,-0.15475 -0.27764,-0.25902l-0.47454,-0.69717l0.02056,-0.01392l-0.0579,-0.04658c-0.26739,-0.60244 -0.59097,-1.14017 -0.96167,-1.60766c-0.69786,-0.51447 -1.39678,-1.10698 -2.12106,-1.69371c-1.44982,-0.66341 -3.17323,-0.66337 -4.94695,0.12886c0,0 -0.72413,0.32143 -1.04567,-0.40265c-0.32143,-0.72413 0.40265,-1.04567 0.40265,-1.04567c0.15449,-0.06818 0.30922,-0.13169 0.46387,-0.19008l-0.44215,-0.13237c-0.05979,-0.01663 -0.11896,-0.0406 -0.17565,-0.07217c-0.38197,-0.21346 -0.51865,-0.69592 -0.30525,-1.07814c0.10803,-0.19339 0.28489,-0.32388 0.48298,-0.37794c-0.31385,-0.21362 -0.62146,-0.39867 -0.91562,-0.50861c-2.05469,-0.76773 -4.85426,-2.46952 -7.66956,-3.81961c-0.19635,0.31816 -0.58615,0.45166 -0.93113,0.33286l-0.91858,-0.29625l0.0096,-0.02971l-0.01127,-0.00406z" fill="url(#color-4)" stroke="none" stroke-width="0.5" stroke-linecap="butt"/><path d="M302.60382,155.53013c3.71192,2.00369 3.64649,2.03516 2.32211,4.56294c-1.32427,2.52774 -3.93719,3.61518 -5.83581,2.42891c-1.89857,-1.1864 -2.36389,-4.19755 -1.03951,-6.7253c1.32427,-2.52774 1.07247,-2.14542 4.55335,-0.26657z" data-paper-data="{&quot;index&quot;:null}" fill="url(#color-5)" stroke="#000000" stroke-width="0" stroke-linecap="butt"/><path d="M291.79715,153.1737c-1.28284,2.85868 -4.93802,4.00246 -8.16398,2.55449c-3.22603,-1.44767 -4.80131,-4.93874 -3.5184,-7.79725c1.28284,-2.85868 1.24792,-2.94859 7.22234,0.05608c5.60246,2.81748 5.74271,2.32789 4.45995,5.18661z" fill="url(#color-6)" stroke="#000000" stroke-width="0" stroke-linecap="butt"/><path d="M280.55569,182.41607c-15.65929,-5.76818 -13.40675,-15.10402 -11.1352,-20.44012c2.27163,-5.33599 13.23679,-5.93074 20.9879,-2.63107c7.75111,3.29967 12.714,11.59308 10.44241,16.92907c0,0 -3.03964,12.68364 -20.29507,6.142z" data-paper-data="{&quot;index&quot;:null}" fill="url(#color-7)" stroke="#ed6b00" stroke-width="0" stroke-linecap="butt"/><path d="M280.55569,182.41607c-12.47853,-4.59654 -13.58282,-11.45858 -12.3671,-16.75684c0.55993,3.26019 2.72419,6.17293 6.00228,7.54301c5.09568,2.12977 10.95305,-0.27458 13.08282,-5.37026c1.41918,-3.39552 0.82508,-7.12927 -1.23703,-9.87294c1.51422,0.33568 2.99377,0.7992 4.37172,1.38581c2.36261,1.00577 4.46618,2.4755 6.18476,4.18402c-0.16186,3.58142 1.62533,7.0592 4.76441,8.97868c0.1351,1.3393 -0.01916,2.62095 -0.50677,3.76636c0,0 -0.12308,0.51357 -0.46031,1.28074c-0.73029,-0.5961 -1.55783,-1.09815 -2.47199,-1.48022c-5.09568,-2.12977 -10.95305,0.27458 -13.08282,5.37026c-0.29289,0.70075 -0.50001,1.4159 -0.62619,2.13378c-1.14083,-0.28798 -2.35716,-0.67097 -3.65376,-1.16254z" data-paper-data="{&quot;index&quot;:null}" fill="url(#color-8)" stroke="#ed6b00" stroke-width="0" stroke-linecap="butt"/><path d="M290.40839,159.34488c2.63974,1.12373 4.9561,2.82668 6.77342,4.79474c-0.79905,0.81079 -1.47095,1.7714 -1.96878,2.86252c-0.74507,-2.94763 -2.82017,-5.52055 -5.84126,-6.78323c-5.09567,-2.12977 -10.95305,0.27459 -13.08282,5.37026c-1.42781,3.4162 -0.81778,7.17477 1.27487,9.92294c-1.806,0.45727 -3.47114,1.41386 -4.78018,2.78142c-1.39852,-1.1034 -2.44206,-2.25589 -3.20228,-3.42717c1.87457,-1.05431 3.42449,-2.7186 4.31811,-4.85671c1.58228,-3.78574 0.66194,-7.99193 -2.00533,-10.7776c4.26498,-2.67006 12.3921,-2.49334 18.5142,0.11285z" data-paper-data="{&quot;index&quot;:null}" fill="url(#color-9)" stroke="#ed6b00" stroke-width="0" stroke-linecap="butt"/><path d="M294.61097,173.60168c0.63196,2.50018 2.22082,4.73077 4.53218,6.1209c-1.5315,2.10128 -4.31235,4.41177 -9.17313,4.56c-0.17519,-1.86667 -0.87374,-3.65188 -2.00734,-5.1406c2.84743,-0.72096 5.34474,-2.68314 6.64829,-5.54032z" data-paper-data="{&quot;index&quot;:null}" fill="url(#color-10)" stroke="#ed6b00" stroke-width="0" stroke-linecap="butt"/><path d="M281.51064,174.84543c0.08743,-0.12389 -0.06257,-0.93981 -0.08023,-1.18213c-0.21533,-2.95649 -0.03613,-5.96278 -0.60211,-8.87257c-0.05345,-0.27488 -1.04174,-0.52387 -1.45362,-0.7288c-2.52231,-1.25494 -4.89969,-2.84746 -7.55532,-3.78802c-0.34002,-0.12043 -0.72478,-0.14793 -1.14238,-0.09821c1.58855,-1.53932 4.16618,-2.44082 7.12486,-2.74776c0.71639,3.00172 2.8078,5.63175 5.87312,6.91291c3.95682,1.65378 8.37292,0.57365 11.14638,-2.37755c3.12062,2.44761 5.36165,5.68961 6.20943,8.80741c-1.01561,-1.28074 -2.36014,-2.32999 -3.97495,-3.0049c-5.09568,-2.12977 -10.95305,0.27458 -13.08282,5.37026c-0.52837,1.26419 -0.77768,2.57525 -0.77605,3.86465c-1.50044,-0.10163 -2.98804,0.14034 -4.35611,0.68208c1.17455,-1.04221 2.11965,-2.0578 2.66981,-2.83736z" data-paper-data="{&quot;index&quot;:null}" fill="url(#color-11)" stroke="#ed6b00" stroke-width="0" stroke-linecap="butt"/><path d="M280.55567,182.41606c-15.65929,-5.76818 -13.40675,-15.10402 -11.1352,-20.44012c0.09875,-0.23195 0.21391,-0.45493 0.34454,-0.66906c-0.67029,1.73416 -0.81391,3.80562 -0.72206,5.36055c0.00949,0.16071 0.02267,0.32227 0.03942,0.48461c-0.65234,4.15762 1.39436,8.37399 5.2106,10.38481c2.44601,2.62816 5.48525,4.63255 8.54124,5.23899c5.27036,1.04585 9.8854,2.27992 13.08282,-5.37026c1.29544,-3.09944 0.03661,-6.89372 -1.23902,-10.00137c-0.7436,-1.81153 -3.64543,-1.79559 -4.81406,-3.36686c-0.06947,-2.01875 -0.75212,-3.9696 -1.93893,-5.58692c0.85319,0.25625 1.68533,0.55469 2.48337,0.89442c2.86831,1.22104 5.35479,3.12592 7.23416,5.31172c-0.0603,0.12873 -0.11815,0.25933 -0.17349,0.39172c-1.79787,4.30155 -0.3647,9.14589 3.19095,11.83249c-0.21401,0.59568 -0.62951,1.5646 -1.35101,2.60821c-2.94173,0.34593 -5.65715,1.99239 -7.29495,4.58994c-2.85582,0.49768 -6.59167,0.18197 -11.45833,-1.663z" data-paper-data="{&quot;index&quot;:null}" fill="url(#color-12)" stroke="#ed6b00" stroke-width="0" stroke-linecap="butt"/><path d="M302.12868,166.76712c0,0 -2.76029,-1.69245 -3.49521,-2.75642c-0.6528,-0.94523 -0.69689,-3.31423 -0.69689,-3.31423" data-paper-data="{&quot;index&quot;:null}" fill="none" stroke="#191412" stroke-width="1.5" stroke-linecap="round"/><path d="M281.35087,155.06867c0,0 -1.21889,1.7505 -2.27413,2.08053c-1.18792,0.37148 -4.50262,0.03948 -4.50262,0.03948" data-paper-data="{&quot;index&quot;:null}" fill="none" stroke="#191412" stroke-width="1.5" stroke-linecap="round"/></g></g></g></svg>