<svg version="1.1" xmlns="http://www.w3.org/2000/svg" xmlns:xlink="http://www.w3.org/1999/xlink" width="139.04284" height="195.27798" viewBox="0,0,139.04284,195.27798"><defs><linearGradient x1="311.87473" y1="57.6218" x2="280.82218" y2="127.77443" gradientUnits="userSpaceOnUse" id="color-1"><stop offset="0" stop-color="#4a4a4a" stop-opacity="0"/><stop offset="1" stop-color="#4a4a4a" stop-opacity="0.43529"/></linearGradient><linearGradient x1="319.08187" y1="57.30669" x2="280.25381" y2="130.63408" gradientUnits="userSpaceOnUse" id="color-2"><stop offset="0" stop-color="#292929" stop-opacity="0"/><stop offset="1" stop-color="#292929" stop-opacity="0.43529"/></linearGradient><linearGradient x1="321.38624" y1="64.82559" x2="279.1463" y2="128.78655" gradientUnits="userSpaceOnUse" id="color-3"><stop offset="0" stop-color="#383838" stop-opacity="0"/><stop offset="1" stop-color="#383838" stop-opacity="0.34118"/></linearGradient><radialGradient cx="296.96431" cy="95.61182" r="35.53768" gradientUnits="userSpaceOnUse" id="color-4"><stop offset="0" stop-color="#4a4a4a" stop-opacity="0"/><stop offset="1" stop-color="#4a4a4a" stop-opacity="0.41176"/></radialGradient><linearGradient x1="234.5053" y1="147.8915" x2="291.71803" y2="177.11565" gradientUnits="userSpaceOnUse" id="color-5"><stop offset="0" stop-color="#fefefe"/><stop offset="1" stop-color="#b6b6b6"/></linearGradient><linearGradient x1="262.48442" y1="120.95066" x2="296.37543" y2="138.26212" gradientUnits="userSpaceOnUse" id="color-6"><stop offset="0" stop-color="#008572"/><stop offset="1" stop-color="#004861"/></linearGradient><linearGradient x1="281.07749" y1="126.38092" x2="277.78236" y2="132.83186" gradientUnits="userSpaceOnUse" id="color-7"><stop offset="0" stop-color="#348317"/><stop offset="1" stop-color="#3c5b0d"/></linearGradient><linearGradient x1="256.60918" y1="132.02358" x2="290.50019" y2="149.33504" gradientUnits="userSpaceOnUse" id="color-8"><stop offset="0" stop-color="#008572"/><stop offset="1" stop-color="#004861"/></linearGradient><linearGradient x1="275.20225" y1="137.45383" x2="271.90713" y2="143.90477" gradientUnits="userSpaceOnUse" id="color-9"><stop offset="0" stop-color="#348317"/><stop offset="1" stop-color="#3c5b0d"/></linearGradient><radialGradient cx="231.55571" cy="201.68744" r="27.13216" gradientUnits="userSpaceOnUse" id="color-10"><stop offset="0" stop-color="#cf50e5"/><stop offset="1" stop-color="#a23dba"/></radialGradient><linearGradient x1="242.27348" y1="190.72123" x2="242.27348" y2="244.98073" gradientUnits="userSpaceOnUse" id="color-11"><stop offset="0" stop-color="#348317"/><stop offset="1" stop-color="#3c5b0d"/></linearGradient><radialGradient cx="261.28017" cy="202.84645" r="27.13216" gradientUnits="userSpaceOnUse" id="color-12"><stop offset="0" stop-color="#cf50e5"/><stop offset="1" stop-color="#a23dba"/></radialGradient><linearGradient x1="272.02022" y1="190.82574" x2="272.02022" y2="245.08524" gradientUnits="userSpaceOnUse" id="color-13"><stop offset="0" stop-color="#348317"/><stop offset="1" stop-color="#3c5b0d"/></linearGradient><linearGradient x1="242.55649" y1="179.70993" x2="242.55649" y2="191.78861" gradientUnits="userSpaceOnUse" id="color-14"><stop offset="0" stop-color="#348317"/><stop offset="1" stop-color="#3c5b0d"/></linearGradient><linearGradient x1="271.36134" y1="179.98948" x2="271.36134" y2="192.06815" gradientUnits="userSpaceOnUse" id="color-15"><stop offset="0" stop-color="#348317"/><stop offset="1" stop-color="#3c5b0d"/></linearGradient><linearGradient x1="186.22599" y1="206.50508" x2="232.84012" y2="206.50508" gradientUnits="userSpaceOnUse" id="color-16"><stop offset="0" stop-color="#c4c4c4"/><stop offset="1" stop-color="#919191"/></linearGradient><linearGradient x1="209.53306" y1="168.71137" x2="209.53306" y2="244.29878" gradientUnits="userSpaceOnUse" id="color-17"><stop offset="0" stop-color="#348317"/><stop offset="1" stop-color="#3c5b0d"/></linearGradient><linearGradient x1="180.476" y1="206.5356" x2="237.59012" y2="206.5356" gradientUnits="userSpaceOnUse" id="color-18"><stop offset="0" stop-color="#d8d8d8"/><stop offset="1" stop-color="#ababab"/></linearGradient><linearGradient x1="209.03307" y1="190.78038" x2="209.03307" y2="222.29081" gradientUnits="userSpaceOnUse" id="color-19"><stop offset="0" stop-color="#348317"/><stop offset="1" stop-color="#3c5b0d"/></linearGradient><linearGradient x1="188.833" y1="179.78592" x2="229.44712" y2="179.78592" gradientUnits="userSpaceOnUse" id="color-20"><stop offset="0" stop-color="#60ff44"/><stop offset="1" stop-color="#acff01"/></linearGradient><linearGradient x1="209.14006" y1="172.35337" x2="209.14006" y2="187.21847" gradientUnits="userSpaceOnUse" id="color-21"><stop offset="0" stop-color="#348317"/><stop offset="1" stop-color="#3c5b0d"/></linearGradient><linearGradient x1="183.226" y1="206.6296" x2="233.59012" y2="206.6296" gradientUnits="userSpaceOnUse" id="color-22"><stop offset="0" stop-color="#60ff44"/><stop offset="1" stop-color="#acff01"/></linearGradient><linearGradient x1="208.40807" y1="199.19704" x2="208.40807" y2="214.06215" gradientUnits="userSpaceOnUse" id="color-23"><stop offset="0" stop-color="#348317"/><stop offset="1" stop-color="#3c5b0d"/></linearGradient><linearGradient x1="188.833" y1="233.23383" x2="229.44712" y2="233.23383" gradientUnits="userSpaceOnUse" id="color-24"><stop offset="0" stop-color="#60ff44"/><stop offset="1" stop-color="#acff01"/></linearGradient><linearGradient x1="209.14006" y1="225.80128" x2="209.14006" y2="240.66638" gradientUnits="userSpaceOnUse" id="color-25"><stop offset="0" stop-color="#348317"/><stop offset="1" stop-color="#3c5b0d"/></linearGradient></defs><g transform="translate(-180.476,-49.80929)"><g data-paper-data="{&quot;isPaintingLayer&quot;:true}" fill-rule="nonzero" stroke-linecap="butt" stroke-linejoin="miter" stroke-miterlimit="10" stroke-dasharray="" stroke-dashoffset="0" style="mix-blend-mode: normal"><path d="M263.91789,115.16376l-0.02051,-0.02897l0.01298,-0.0702c-0.02118,-0.38163 0.04627,-0.77751 0.21376,-1.1559l0.32755,-0.74l0.18056,-0.23741l0.12097,-0.2733l0.22261,-0.29268l0.72635,-1.64096l0.26962,-0.93241l0.08602,-0.15206l0.03167,-0.17122l0.00875,-0.01975l0.00653,-0.07364l-0.04106,-0.31677l0.03673,-0.33537l-0.04567,-1.61897l0.03599,-0.1705l-0.02213,-0.17069l0.07563,-0.69047l-0.03796,-0.25147l0.02851,-0.32097l-0.04106,-0.31676l0.16624,-1.51777l0.13141,-0.36727l0.07072,-0.38243l0.07555,-0.17071l0.06676,-0.36105l0.12098,-0.27329l0.05416,-0.29287l0.03708,-0.08375l0.01277,-0.11649l0.13138,-0.36727l0.07072,-0.38243l1.24471,-2.81202l0.18056,-0.23741l0.12098,-0.2733l0.2226,-0.2927l0.27209,-0.6147l0.18055,-0.23741l0.12098,-0.2733l0.36826,-0.4842l0.43588,-0.63061l0.11338,-0.10166l0.07217,-0.13537l0.5756,-0.65134l0.38285,-0.5539l0.11338,-0.10166l0.07217,-0.13537l0.54965,-0.62198l0.43084,-0.66625l0.26069,-0.24881l0.21191,-0.29365l0.64675,-0.55631l0.59897,-0.73749l0.17873,-0.13659l0.13281,-0.18403l2.31956,-1.99517l1.2368,-1.39955l0.21646,-0.15135l0.1714,-0.2041l0.59614,-0.44002l0.47371,-0.47865l0.16485,-0.10169l0.12603,-0.15008l0.75093,-0.55426l0.11506,-0.04793l0.09067,-0.08848l0.41346,-0.24506l0.99495,-1.00535l0.0864,-0.05329l0.0602,-0.08341l2.86385,-2.46335l0.78533,-0.88865l0.90725,-1.36078l0.15107,-0.14014l0.10227,-0.18048l1.07138,-1.15077l0.70988,-1.29008l0.08829,-0.09728l0.04787,-0.12289l0.91513,-1.32401l0.98889,-1.52925l0.89841,-1.6851l2.26625,-5.11982l0.35737,-1.11074l0.20492,-1.10818l0.17028,-1.12002l0.0156,-0.03848l-0.0022,-0.04099l0.09106,-0.49247l0.03675,-0.70053l0.02068,-0.06992l-0.00924,-0.07131l0.07562,-0.69047l-0.03795,-0.25148l0.01522,-0.1713l-0.03065,-0.02191l-0.03949,-0.30473l-0.12435,-0.27624l0.06605,-0.17344l-0.06065,-0.46787l0.00732,-0.06687l-0.00041,-0.00397l-0.09017,-0.21719l-0.08571,-0.56784l0.02851,-0.32096l-0.02506,-0.19332l-0.13576,-0.37692l-0.03962,-0.38282l-0.10153,-0.36812l-0.01009,-0.35792l0.01984,-0.09397l-0.17269,-0.38366l0.04309,-0.11316l-0.05156,-0.18697l-0.0101,-0.35792l0.25774,-1.22077l0.54744,-0.36609l0.30194,-0.59507l1.15793,-0.38119l0.19554,-0.01358l0.02138,-0.01647l0.06584,0.01041l0.065,-0.00452l0.52379,0.09766l0.52663,0.08331l0.05898,0.02587l0.06547,0.01221l0.01366,0.02252l3.55493,1.55971l1.17851,0.36112l1.01846,0.27594l0.14427,0.08295l0.16498,0.02609l0.72726,0.31908l0.34784,0.05504l0.2606,0.11433l0.28216,0.04464l0.28225,0.12382l0.22346,0.17721l0.2606,0.11433l0.49898,0.39566l0.15476,0.20531l0.20409,0.15288l0.24177,0.30323l0.16508,0.02238l0.16826,0.2491l0.23325,0.18496l0.01506,0.18263l0.25737,0.38099l0.13675,0.12755l0.16807,0.26385l0.22212,0.21656l0.29234,0.48175l0.0694,0.22584l0.13044,0.19307l0.07181,0.19936l0.17191,0.2833l0.0694,0.22584l0.13044,0.19307l0.15122,0.41983l0.02455,0.23719l0.09017,0.21719l0.0144,0.09536l0.04911,0.08091l0.0694,0.22584l0.13043,0.19307l0.15122,0.41984l0.02455,0.2372l0.09018,0.21718l0.16152,1.0701l0.47052,2.2685l-0.01112,0.31758l0.05843,0.30928l-0.02861,0.54559l0.09731,0.46916l-0.01112,0.31758l0.05843,0.30927l-0.04006,0.76376l0.01478,0.52376l0.08633,0.8343l-0.03566,0.26367l0.03386,0.26118l-0.03673,0.33537l0.01538,0.5452l-0.05508,0.26086l0.01421,0.26386l-0.58772,3.17825l-0.04531,0.41375l-0.03205,0.08959l0.00506,0.09394l-0.22495,1.21649l-0.04532,0.41376l-0.1314,0.36726l-0.07072,0.38243l-0.14108,0.31869l-0.06676,0.36105l-0.02396,0.05413l0.00045,0.05861l-0.18644,0.80193l-0.01793,0.03598l-0.00094,0.03984l-0.18479,0.6967l-0.03167,0.60374l-0.06362,0.2151l0.00167,0.2224l-0.18644,0.80192l-0.01791,0.03599l-0.00095,0.03983l-0.20319,0.76613l-0.09021,0.82355l-0.06483,0.18123l-0.00453,0.19086l-0.2032,0.76612l-0.09021,0.82355l-0.05165,0.14437l0.00114,0.1519l-0.15229,0.65506l-0.09447,0.86245l-0.03205,0.08958l0.00505,0.09396l-0.09107,0.49247l-0.02006,0.3823l0.35082,1.69135l0.21026,0.39523l0.07258,0.29282l0.13803,0.26434l0.20619,0.85953l1.10835,3.07714l0.2895,0.5442l0.08135,0.32823l0.14547,0.30153l0.12693,0.61194l0.32105,0.89136l0.02456,0.2372l0.09017,0.21719l0.02464,0.16319l0.17886,0.33623l0.09688,0.39089l0.15328,0.3692l0.17141,1.13568l-0.01349,0.15185l0.0399,0.1447l0.01409,0.49935l0.11769,0.56737l-0.00765,0.21873l0.0574,0.20815l0.02019,0.71584l-0.02121,0.10051l0.01878,0.09944l-0.04006,0.76375l0.03757,1.33181l-0.02121,0.10051l0.01879,0.09945l-0.04006,0.76376l0.01738,0.61597l-0.02121,0.10051l0.01878,0.09944l-0.04531,0.86383l-0.04731,0.15995l0.00887,0.16482l-0.05547,0.29992l0.05913,0.57137l-0.03565,0.26369l0.03387,0.26117l-0.11083,1.01184l-0.06483,0.18122l-0.00453,0.19086l-0.17711,0.66777l-0.02686,0.93192l-0.089,0.32889l-0.0214,0.33817l-0.32802,1.06714l-0.14831,0.97554l-0.06311,0.15573l-0.0077,0.16659l-0.62709,2.16877l-0.24472,0.92268l-0.09599,0.17877l-0.03677,0.19884l-1.44125,3.25603l-0.14609,0.19209l-0.08773,0.22526l-0.46868,0.67809l-0.11338,0.10166l-0.07217,0.13537l-0.4154,0.47006l-0.1681,0.37976l-0.059,0.07758l0.00229,0.08135l-0.36883,0.40058l-0.33039,0.4344l-0.07879,0.01l-0.06588,0.07154l-0.13377,0.08946l-0.1491,0.19606l-0.31886,0.26042l-0.28021,0.30433l-0.21204,0.1418l-0.12316,0.13937l-0.26253,0.18356l-0.2187,0.23751l-0.35477,0.23725l-0.15849,0.13632l-0.34139,0.17381l-0.31053,0.22919l-1.84931,0.77044l-0.63632,0.42552l-0.43063,0.37041l-0.17339,0.08827l-0.05481,0.10803l-0.21141,0.06959l-0.03918,0.05429l-0.05086,0.04376l-0.04213,0.05539l-0.02612,0.00332l-0.96948,0.83389l-0.17339,0.08827l-0.05481,0.10802l-0.44536,0.1466l-0.15894,0.08092l-0.01559,0.03073l-0.12669,0.04172l-0.11975,0.06096l-0.03077,-0.01142l-0.16816,0.05536l-0.15894,0.08092l-0.01559,0.03072l-0.12669,0.04172l-0.11975,0.06097l-0.03077,-0.01142l-0.16816,0.05536l-0.42097,0.21431l-0.10816,-0.04013l-0.18344,0.06038l-0.34775,0.02416l-0.16408,-0.03059l-0.16651,0.02939l-0.97776,-0.0755l-0.28724,-0.0993l-0.01217,0.00085l-0.52378,-0.09766l-0.52663,-0.08331l-0.05898,-0.02587l-0.06548,-0.01221l-0.01366,-0.02252l-0.07564,-0.03319l-0.40527,-0.08492l-0.34451,-0.0266l-0.35139,-0.1215l-0.36843,-0.05828l-0.64435,-0.2827l-0.11255,-0.0087l-0.35139,-0.1215l-0.36843,-0.05828l-0.07985,-0.03504l-0.11255,-0.0087l-0.08572,-0.02963l-0.09137,0.00883l-0.63,-0.09967l-0.2606,-0.11433l-0.28216,-0.04463l-0.50321,-0.22078l-0.11256,-0.0087l-0.0857,-0.02964l-0.09137,0.00884l-0.63001,-0.09966l-0.26059,-0.11434l-0.28216,-0.04464l-1.2016,-0.5272l-0.54651,-0.11452l-0.20593,-0.10292l-0.22829,-0.03611l-17.35798,-7.61574l-0.2918,-0.23138l-0.32716,-0.17623l-0.71571,-0.66751l-0.03598,-0.05648l-0.12928,-0.05672l-0.0259,0.00515l-0.05323,-0.03987l-0.05898,-0.02587l-0.41711,-0.33075l-0.42582,-0.31897l-0.04051,-0.0508l-0.05213,-0.04134l-0.00222,-0.02682l-0.12188,-0.15286l-0.49874,-1.10805l0.42459,-1.11497l-0.00035,-0.00419l0.00275,-0.00213l0.26471,-0.69512c-0.44838,-0.38826 -0.72377,-0.94335 -0.78132,-1.54079z" fill="url(#color-1)" stroke="none" stroke-width="0.5"/><path d="M263.04833,115.60236l-0.01981,-0.03302l0.01939,-0.07487c0.00676,-0.41454 0.10993,-0.83721 0.31936,-1.23272l0.40957,-0.7735l0.21258,-0.24193l0.15127,-0.28566l0.26207,-0.29827l0.90823,-1.71522l0.36213,-0.98638l0.1043,-0.15741l0.04731,-0.18261l0.01093,-0.02064l0.01273,-0.07912l-0.01964,-0.34602l0.06547,-0.35975l0.07617,-1.75495l0.0519,-0.18145l-0.01059,-0.18646l0.13477,-0.74064l-0.02136,-0.27514l0.0555,-0.34484l-0.01965,-0.34603l0.29627,-1.62805l0.16976,-0.38646l0.10566,-0.40784l0.09449,-0.17844l0.09976,-0.38505l0.15127,-0.28566l0.08092,-0.31233l0.04636,-0.08754l0.02274,-0.12495l0.16975,-0.38645l0.10566,-0.40784l1.5564,-2.93928l0.21258,-0.24193l0.15127,-0.28566l0.26208,-0.29826l0.34023,-0.64252l0.21257,-0.24194l0.15127,-0.28566l0.43356,-0.49345l0.51761,-0.64626l0.12981,-0.10064l0.0881,-0.14048l0.66949,-0.65718l0.45463,-0.56763l0.12981,-0.10064l0.0881,-0.14048l0.6393,-0.62754l0.51496,-0.68522l0.29966,-0.24768l0.25063,-0.30018l0.73868,-0.54853l0.70129,-0.74845l0.20281,-0.13304l0.15708,-0.18815l2.64923,-1.96726l1.43857,-1.41209l0.24452,-0.14591l0.20016,-0.20667l0.67523,-0.4269l0.54653,-0.47876l0.18519,-0.09644l0.14715,-0.15196l0.85055,-0.53774l0.12746,-0.04238l0.10437,-0.08825l0.46366,-0.23105l1.14793,-1.00559l0.09705,-0.05054l0.0712,-0.08527l3.27087,-2.42888l0.91343,-0.89662l1.08111,-1.39726l0.17333,-0.13916l0.12396,-0.1868l1.24139,-1.15661l0.86335,-1.33705l0.1025,-0.09795l0.06099,-0.12899l1.08673,-1.35685l1.18197,-1.57279l1.0967,-1.74882l2.83372,-5.35153l0.47034,-1.17205l0.30618,-1.18184l0.26983,-1.1975l0.01975,-0.04034l0.0008,-0.04451l0.13606,-0.5252l0.09374,-0.75474l0.02766,-0.07393l-0.00442,-0.0779l0.13477,-0.74064l-0.02136,-0.27514l0.02963,-0.18405l-0.03127,-0.02621l-0.0189,-0.33286l-0.11235,-0.30904l0.08446,-0.18216l-0.02903,-0.51107l0.01305,-0.07172l-0.00014,-0.00432l-0.08017,-0.24235l-0.04824,-0.62127l0.0555,-0.34484l-0.01199,-0.21117l-0.11685,-0.41888l-0.01298,-0.41736l-0.08069,-0.40654l0.01684,-0.38798l0.02861,-0.10001l-0.15604,-0.42922l0.0551,-0.11885l-0.04099,-0.20648l0.01683,-0.38799l0.37169,-1.29927l0.61715,-0.35095l0.37081,-0.61883l1.27493,-0.31703l0.21137,0.00139l0.02427,-0.01606l0.06999,0.01669l0.07026,0.00046l0.5558,0.14874l0.55997,0.13346l0.06143,0.03285l0.06947,0.01859l0.01295,0.02547l3.7028,1.97963l1.23961,0.48758l1.07404,0.38231l0.14876,0.10159l0.17542,0.0418l0.75751,0.40499l0.36987,0.08815l0.27143,0.14512l0.30002,0.07149l0.29398,0.15718l0.22664,0.21007l0.27143,0.14512l0.50605,0.46904l0.15057,0.23481l0.20768,0.18217l0.23656,0.34789l0.17581,0.03779l0.16171,0.28328l0.23656,0.21926l0.00207,0.19878l0.24733,0.43328l0.13722,0.14923l0.16035,0.29923l0.22214,0.25253l0.27714,0.54516l0.05717,0.25l0.12535,0.21958l0.06181,0.22156l0.16297,0.32059l0.05716,0.25l0.12535,0.21959l0.13015,0.46657l0.00804,0.25859l0.08017,0.24235l0.0081,0.10434l0.04654,0.09155l0.05717,0.25l0.12535,0.21958l0.13015,0.46658l0.00804,0.25859l0.08018,0.24234l0.0909,1.1708l0.3305,2.49251l-0.03654,0.3426l0.0389,0.33934l-0.07301,0.58781l0.06835,0.51548l-0.03654,0.3426l0.0389,0.33934l-0.1022,0.82285l-0.02464,0.56775l0.02829,0.90954l-0.05876,0.28228l0.0162,0.2853l-0.06547,0.35975l-0.02564,0.59099l-0.07942,0.27763l-0.00513,0.28658l-0.87811,3.38948l-0.08077,0.44382l-0.04141,0.09426l-0.00183,0.10204l-0.3361,1.29733l-0.08077,0.44382l-0.16975,0.38645l-0.10566,0.40784l-0.17639,0.33312l-0.09975,0.38504l-0.02996,0.05659l-0.00406,0.06344l-0.26259,0.85208l-0.02206,0.03745l-0.0041,0.043l-0.25267,0.7384l-0.08079,0.65044l-0.08507,0.22744l-0.01541,0.2407l-0.26259,0.85208l-0.02205,0.03745l-0.0041,0.043l-0.27785,0.81199l-0.16075,0.8834l-0.08376,0.19069l-0.01964,0.20607l-0.27785,0.81199l-0.16075,0.8834l-0.06673,0.15191l-0.01052,0.16441l-0.21449,0.69602l-0.16835,0.9251l-0.04141,0.09426l-0.00183,0.10204l-0.13606,0.5252l-0.05116,0.41187l0.24642,1.85836l0.19555,0.44483l0.05539,0.32271l0.12799,0.29729l0.15524,0.9467l0.95394,3.41968l0.26925,0.61247l0.0621,0.36174l0.13313,0.33813l0.08916,0.67236l0.27633,0.99058l0.00805,0.2586l0.08017,0.24235l0.01387,0.17855l0.16636,0.37842l0.07395,0.43079l0.13628,0.41197l0.09647,1.24254l-0.02626,0.16314l0.03172,0.15981l-0.02349,0.54128l0.08266,0.62339l-0.02516,0.23597l0.04563,0.22988l-0.03369,0.77597l-0.03061,0.10698l0.01251,0.10912l-0.1022,0.82284l-0.06266,1.44368l-0.03061,0.10698l0.01251,0.10912l-0.1022,0.82285l-0.02897,0.66771l-0.03061,0.10698l0.01251,0.10912l-0.11559,0.93067l-0.06326,0.16911l-0.0032,0.179l-0.08286,0.31985l0.01938,0.62291l-0.05876,0.28228l0.0162,0.2853l-0.19751,1.08536l-0.08376,0.19069l-0.01964,0.20607l-0.24218,0.70774l-0.10102,1.00583l-0.12117,0.34844l-0.04919,0.36405l-0.43539,1.12731l-0.23502,1.04301l-0.07993,0.16327l-0.02119,0.17956l-0.84232,2.29431l-0.33463,0.97792l-0.11707,0.18548l-0.05494,0.21205l-1.80214,3.40339l-0.17199,0.19575l-0.1118,0.23645l-0.55657,0.69491l-0.12981,0.10064l-0.0881,0.14048l-0.48317,0.47428l-0.21018,0.39693l-0.06947,0.07907l-0.00383,0.08817l-0.4277,0.40295l-0.38898,0.44269l-0.08552,0.00434l-0.0764,0.07197l-0.15079,0.08575l-0.17554,0.19979l-0.36311,0.25546l-0.32494,0.30612l-0.23902,0.13593l-0.14327,0.14063l-0.29657,0.17695l-0.25361,0.23893l-0.39994,0.22743l-0.18101,0.13441l-0.38064,0.1599l-0.35173,0.22236l-2.04867,0.68119l-0.71732,0.40792l-0.49184,0.36523l-0.19332,0.08122l-0.06731,0.11232l-0.23275,0.05788l-0.04634,0.0555l-0.0581,0.04314l-0.0496,0.05645l-0.02835,0.00143l-1.10725,0.82223l-0.19332,0.08122l-0.06731,0.11232l-0.49036,0.12194l-0.17722,0.07445l-0.01915,0.03196l-0.13948,0.03469l-0.13352,0.05609l-0.03222,-0.01487l-0.18515,0.04605l-0.17722,0.07445l-0.01915,0.03196l-0.13948,0.03469l-0.13352,0.05609l-0.03222,-0.01487l-0.18515,0.04605l-0.46937,0.19718l-0.11323,-0.0523l-0.20197,0.05023l-0.3759,-0.00246l-0.1741,-0.04658l-0.18137,0.01809l-1.04578,-0.16212l-0.30125,-0.13106l-0.01315,-0.00009l-0.5558,-0.14874l-0.55996,-0.13346l-0.06143,-0.03285l-0.06948,-0.01859l-0.01295,-0.02547l-0.07879,-0.04212l-0.42932,-0.12521l-0.36848,-0.05712l-0.36855,-0.16033l-0.39176,-0.09336l-0.67114,-0.35882l-0.12039,-0.01866l-0.36855,-0.16033l-0.39176,-0.09336l-0.08317,-0.04447l-0.12039,-0.01866l-0.0899,-0.0391l-0.09896,0.00203l-0.66989,-0.15964l-0.27143,-0.14512l-0.30002,-0.07149l-0.52415,-0.28023l-0.1204,-0.01866l-0.08989,-0.03911l-0.09896,0.00203l-0.66989,-0.15964l-0.27143,-0.14512l-0.30002,-0.07149l-1.2516,-0.66914l-0.57893,-0.16884l-0.21353,-0.12827l-0.24274,-0.05784l-18.08002,-9.66615l-0.29595,-0.2743l-0.33824,-0.21754l-0.71812,-0.78092l-0.03433,-0.06405l-0.13465,-0.07199l-0.02826,0.00344l-0.05416,-0.04751l-0.06143,-0.03285l-0.42302,-0.39209l-0.4333,-0.38008l-0.03964,-0.05829l-0.05288,-0.04902l-0.0003,-0.02921l-0.11925,-0.17537l-0.45067,-1.23959l0.54297,-1.17109l-0.00004,-0.00458l0.00313,-0.00207l0.33852,-0.73011c-0.45221,-0.45687 -0.70544,-1.07997 -0.7211,-1.73094z" fill="url(#color-2)" stroke="none" stroke-width="0.5"/><path d="M264.74809,113.2432l-0.01516,-0.03241l0.02458,-0.06726c0.04386,-0.38214 0.17681,-0.76249 0.40464,-1.10747l0.44557,-0.67469l0.21676,-0.20287l0.16456,-0.24919l0.26723,-0.2501l0.98804,-1.49612l0.42145,-0.87586l0.10987,-0.13528l0.05994,-0.16406l0.01189,-0.01801l0.01886,-0.07183l0.01345,-0.32143l0.09267,-0.32587l0.22928,-1.61323l0.06405,-0.16255l0.00725,-0.17321l0.1908,-0.67091l0.00543,-0.25613l0.08219,-0.31308l0.01344,-0.32142l0.41941,-1.47476l0.19066,-0.34046l0.13387,-0.3664l0.10278,-0.15564l0.1264,-0.34593l0.16455,-0.24918l0.10252,-0.2806l0.05042,-0.07636l0.03219,-0.11318l0.19065,-0.34047l0.13387,-0.3664l1.69316,-2.56383l0.21676,-0.20287l0.16455,-0.24918l0.26723,-0.2501l0.37013,-0.56045l0.21675,-0.20288l0.16455,-0.24918l0.4421,-0.41377l0.53299,-0.54676l0.12808,-0.08038l0.09349,-0.12121l0.67315,-0.54216l0.46814,-0.48024l0.12808,-0.08038l0.09349,-0.12121l0.64279,-0.51773l0.53409,-0.583l0.29707,-0.19976l0.25692,-0.25298l0.72666,-0.43515l0.71057,-0.62338l0.19791,-0.10326l0.16102,-0.15855l2.60611,-1.56065l1.4464,-1.16496l0.2373,-0.11111l0.20217,-0.1715l0.65747,-0.32896l0.54427,-0.3893l0.17843,-0.07115l0.14864,-0.1261l0.82819,-0.41437l0.12064,-0.02683l0.10365,-0.07141l0.44581,-0.16855l1.14317,-0.81767l0.09352,-0.03729l0.07298,-0.07186l3.21764,-1.92685l0.91841,-0.7397l1.11755,-1.1858l0.17145,-0.11174l0.13055,-0.16051l1.24253,-0.9481l0.91255,-1.15124l0.10281,-0.08056l0.06761,-0.11322l1.11902,-1.14795l1.2259,-1.33814l1.16378,-1.50893l3.08272,-4.66796l0.53745,-1.03687l0.38794,-1.06177l0.35606,-1.07973l0.02176,-0.03534l0.00477,-0.04102l0.1724,-0.47184l0.15448,-0.68788l0.03206,-0.06559l0.00302,-0.07236l0.19079,-0.6709l0.00543,-0.25614l0.04387,-0.16709l-0.02626,-0.02723l0.01293,-0.30919l-0.07486,-0.29625l0.09394,-0.16006l0.01986,-0.47475l0.01848,-0.06497l0.00027,-0.00401l-0.05143,-0.23154l0.01226,-0.57836l0.08219,-0.31307l0.00821,-0.19616l-0.06899,-0.3981l0.02604,-0.38664l-0.037,-0.38321l0.05069,-0.35664l0.03531,-0.0896l-0.10396,-0.41143l0.06129,-0.10444l-0.01879,-0.19463l0.05069,-0.35666l0.45864,-1.16387l0.59735,-0.26444l0.39599,-0.53562l1.19694,-0.16956l0.19355,0.0217l0.02369,-0.01248l0.06262,0.02217l0.06434,0.00721l0.49573,0.19105l0.50094,0.17735l0.05331,0.03627l0.06196,0.02388l0.00956,0.02477l3.21275,2.18586l1.09146,0.57004l0.94934,0.45681l0.12707,0.10818l0.15692,0.05555l0.65726,0.44718l0.33087,0.11714l0.23551,0.16023l0.26839,0.09502l0.25507,0.17355l0.18857,0.21588l0.23551,0.16023l0.42103,0.48203l0.11662,0.23139l0.17373,0.18829l0.18514,0.34411l0.15765,0.05188l0.12241,0.27722l0.19682,0.22533l-0.01616,0.18377l0.18723,0.424l0.11217,0.15106l0.11973,0.29182l0.18059,0.25465l0.20438,0.5302l0.02966,0.23638l0.09489,0.21488l0.03649,0.21057l0.12019,0.31179l0.02966,0.23638l0.09489,0.21488l0.07685,0.44343l-0.01613,0.23957l0.05143,0.23154l-0.00206,0.09714l0.03434,0.08904l0.02966,0.23638l0.09489,0.21488l0.07685,0.44344l-0.01613,0.23957l0.05144,0.23154l-0.02311,1.08993l0.0763,2.33361l-0.06461,0.31283l0.0048,0.31712l-0.12031,0.53574l0.01578,0.48262l-0.06461,0.31283l0.00481,0.31711l-0.16842,0.74996l-0.07418,0.5219l-0.05675,0.84264l-0.07948,0.25498l-0.01108,0.26502l-0.09268,0.32587l-0.07721,0.54327l-0.09801,0.2487l-0.03074,0.26414l-1.1126,3.0451l-0.11434,0.40203l-0.04651,0.08305l-0.01095,0.09405l-0.42585,1.16552l-0.11434,0.40203l-0.19066,0.34046l-0.13388,0.36641l-0.1919,0.29058l-0.12639,0.34593l-0.03259,0.04935l-0.00948,0.05819l-0.31803,0.76147l-0.02362,0.03244l-0.00766,0.03932l-0.29862,0.65746l-0.13314,0.59284l-0.09861,0.20181l-0.036,0.22078l-0.31803,0.76146l-0.02361,0.03244l-0.00767,0.03932l-0.32837,0.72296l-0.22757,0.80022l-0.09408,0.168l-0.03673,0.18841l-0.32837,0.72296l-0.22757,0.80022l-0.07495,0.13383l-0.02459,0.1508l-0.25978,0.62201l-0.23832,0.83801l-0.04651,0.08305l-0.01095,0.09405l-0.1724,0.47184l-0.0843,0.3754l0.05689,1.73988l0.13875,0.42966l0.02143,0.30335l0.09026,0.2869l0.05621,0.88922l0.56325,3.25002l0.19104,0.59161l0.02401,0.34005l0.09125,0.32509l0.02058,0.62949l0.16316,0.94143l-0.01613,0.23957l0.05143,0.23154l-0.00353,0.16622l0.11804,0.36552l0.0286,0.40495l0.08743,0.39359l-0.02453,1.15673l-0.03889,0.14811l0.01454,0.15064l-0.07072,0.49757l0.01908,0.58365l-0.0445,0.21547l0.02091,0.21669l-0.10138,0.71329l-0.03776,0.09583l0.00154,0.10197l-0.16842,0.74996l-0.18862,1.32709l-0.03776,0.09583l0.00154,0.10197l-0.16842,0.74996l-0.08724,0.61379l-0.03776,0.09583l0.00155,0.10196l-0.1905,0.84825l-0.07333,0.15005l-0.01921,0.16499l-0.105,0.28736l-0.03886,0.57709l-0.07948,0.25499l-0.01108,0.26501l-0.27961,0.98318l-0.09408,0.16799l-0.03673,0.18841l-0.28622,0.63015l-0.18397,0.91905l-0.14269,0.31005l-0.07816,0.33141l-0.50137,0.99893l-0.31013,0.94044l-0.08807,0.14304l-0.03573,0.16377l-0.98027,2.03725l-0.39546,0.8707l-0.12412,0.15996l-0.06961,0.19051l-1.9605,2.96865l-0.17537,0.16414l-0.12393,0.20754l-0.57311,0.58792l-0.12808,0.08038l-0.09349,0.12121l-0.4858,0.39127l-0.22865,0.34624l-0.07084,0.06631l-0.01152,0.08106l-0.42849,0.33076l-0.39663,0.37121l-0.07875,-0.00427l-0.07653,0.05907l-0.14595,0.06461l-0.179,0.16754l-0.35591,0.20081l-0.32554,0.25129l-0.23137,0.10243l-0.14405,0.11602l-0.28781,0.13475l-0.25408,0.19613l-0.38711,0.17137l-0.17806,0.10664l-0.36328,0.11088l-0.34247,0.17135l-1.93898,0.43108l-0.69431,0.30737l-0.48383,0.28974l-0.18452,0.05631l-0.07188,0.09723l-0.21853,0.03096l-0.0475,0.04677l-0.05716,0.03423l-0.05058,0.04733l-0.02611,-0.00142l-1.08923,0.65227l-0.18452,0.05631l-0.07188,0.09722l-0.46037,0.06521l-0.16914,0.05162l-0.02045,0.02765l-0.13095,0.01855l-0.12743,0.0389l-0.02816,-0.01685l-0.17382,0.02463l-0.16914,0.05162l-0.02045,0.02765l-0.13095,0.01855l-0.12743,0.0389l-0.02816,-0.01685l-0.17382,0.02463l-0.44798,0.13672l-0.099,-0.05924l-0.18961,0.02686l-0.34419,-0.0386l-0.15529,-0.05985l-0.16782,-0.00083l-0.94345,-0.25077l-0.26411,-0.15013l-0.01204,-0.00135l-0.49573,-0.19105l-0.50093,-0.17735l-0.05331,-0.03627l-0.06197,-0.02388l-0.00956,-0.02477l-0.06836,-0.04652l-0.38198,-0.1571l-0.33241,-0.08835l-0.3231,-0.18366l-0.35045,-0.12407l-0.58232,-0.39619l-0.10861,-0.02887l-0.3231,-0.18366l-0.35045,-0.12407l-0.07217,-0.0491l-0.10861,-0.02887l-0.07881,-0.0448l-0.09086,-0.00768l-0.59927,-0.21215l-0.23551,-0.16023l-0.26839,-0.09502l-0.45477,-0.30942l-0.10861,-0.02887l-0.07881,-0.0448l-0.09086,-0.00768l-0.59927,-0.21215l-0.23551,-0.16023l-0.26839,-0.09502l-1.08595,-0.73885l-0.5151,-0.21185l-0.18398,-0.13909l-0.21715,-0.07687l-15.68714,-10.67311l-0.24623,-0.28189l-0.29014,-0.23356l-0.587,-0.79052l-0.02562,-0.06247l-0.11683,-0.07949l-0.0262,0.00045l-0.0453,-0.0491l-0.05331,-0.03627l-0.35196,-0.40295l-0.36247,-0.39283l-0.03102,-0.05767l-0.044,-0.05037l0.00238,-0.027l-0.09332,-0.17347l-0.30026,-1.18823l0.60392,-1.02895l0.00037,-0.00423l0.00305,-0.00162l0.37651,-0.6415c-0.37281,-0.46558 -0.5482,-1.06545 -0.50338,-1.66809z" fill="url(#color-3)" stroke="none" stroke-width="0.5"/><path d="M266.33826,114.65187l-0.01721,-0.02797l0.01589,-0.06403c0.00214,-0.35356 0.08649,-0.71495 0.26177,-1.05418l0.34279,-0.66342l0.17931,-0.20829l0.1266,-0.24501l0.22106,-0.25679l0.7601,-1.4711l0.30043,-0.84451l0.08763,-0.13519l0.03877,-0.15616l0.00915,-0.0177l0.01017,-0.06759l-0.01979,-0.29488l0.05272,-0.30738l0.04965,-1.49725l0.04271,-0.15522l-0.01066,-0.15891l0.10854,-0.63284l-0.02064,-0.23441l0.04434,-0.29458l-0.0198,-0.29487l0.2386,-1.39108l0.1415,-0.33113l0.0866,-0.34876l0.07907,-0.15304l0.08176,-0.32928l0.12659,-0.245l0.06632,-0.26709l0.0388,-0.07507l0.01831,-0.10677l0.14149,-0.33113l0.08661,-0.34877l1.30257,-2.52097l0.17931,-0.20829l0.1266,-0.24501l0.22106,-0.25679l0.28474,-0.55107l0.1793,-0.2083l0.1266,-0.24501l0.36571,-0.42481l0.43609,-0.55592l0.10991,-0.08702l0.07396,-0.12062l0.56563,-0.56664l0.38304,-0.48827l0.10992,-0.08703l0.07396,-0.12061l0.54011,-0.54108l0.43348,-0.58911l0.25357,-0.21399l0.21127,-0.25832l0.62562,-0.47463l0.59196,-0.64477l0.17193,-0.11533l0.13241,-0.16189l2.24375,-1.70224l1.21537,-1.21755l0.20741,-0.12671l0.16901,-0.1781l0.57254,-0.37032l0.46225,-0.41335l0.1572,-0.08396l0.12426,-0.13095l0.72119,-0.46647l0.1084,-0.03733l0.0883,-0.07623l0.39368,-0.20135l0.97089,-0.86821l0.08238,-0.04399l0.06002,-0.07338l2.77024,-2.10168l0.77172,-0.77309l0.91043,-1.20157l0.14671,-0.12027l0.10415,-0.16045l1.04933,-0.99786l0.72512,-1.1482l0.08661,-0.08449l0.05093,-0.11057l0.91559,-1.16718l0.99498,-1.3522l0.92066,-1.50151l2.37158,-4.58989l0.39114,-1.00384l0.25097,-1.01067l0.21981,-1.02368l0.0165,-0.03458l0.0003,-0.03796l0.11153,-0.44913l0.0734,-0.64448l0.02296,-0.0633l-0.00445,-0.06639l0.10854,-0.63283l-0.02063,-0.23442l0.02368,-0.15722l-0.02691,-0.02207l-0.01905,-0.28367l-0.09859,-0.26249l0.07048,-0.15613l-0.02924,-0.43556l0.01051,-0.06128l-0.00015,-0.00369l-0.07054,-0.20592l-0.0466,-0.52935l0.04434,-0.29458l-0.01208,-0.17996l-0.10339,-0.35611l-0.01473,-0.35578l-0.07243,-0.34592l0.01098,-0.33101l0.02354,-0.08556l-0.13693,-0.36456l0.04599,-0.10186l-0.03679,-0.1757l0.01097,-0.33101l0.30585,-1.11141l0.52364,-0.30502l0.31104,-0.53117l1.0853,-0.28222l0.18041,-0.00078l0.02057,-0.01392l0.05989,0.01357l0.05997,-0.00026l0.47565,0.12166l0.47907,0.1086l0.05272,0.02743l0.05945,0.01521l0.01127,0.0216l3.17746,1.65368l1.0622,0.40425l0.91999,0.316l0.12784,0.08525l0.15007,0.03401l0.65004,0.33831l0.31643,0.07172l0.23292,0.12123l0.25667,0.05818l0.25228,0.13129l0.19526,0.17703l0.23292,0.12123l0.43599,0.39527l0.13056,0.19883l0.17884,0.1534l0.20493,0.29446l0.15038,0.03059l0.14049,0.24006l0.20381,0.18478l0.00351,0.16949l0.21488,0.36718l0.11842,0.12597l0.13947,0.25368l0.19179,0.21327l0.2413,0.46231l0.05098,0.21265l0.1089,0.18609l0.05469,0.18835l0.1419,0.27187l0.05098,0.21265l0.1089,0.18609l0.11516,0.39666l0.00913,0.22044l0.07054,0.20592l0.00782,0.08891l0.04053,0.07764l0.05098,0.21265l0.10889,0.18608l0.11516,0.39666l0.00913,0.22044l0.07056,0.20591l0.08782,0.99756l0.30388,2.12242l-0.02818,0.29249l0.03617,0.28901l-0.05716,0.50193l0.06285,0.43893l-0.02819,0.2925l0.03617,0.289l-0.08003,0.70263l-0.01606,0.48438l0.0321,0.77535l-0.04768,0.24126l0.01632,0.24314l-0.05272,0.30738l-0.01672,0.50423l-0.06535,0.23748l-0.00188,0.24442l-0.71974,2.89856l-0.06505,0.37922l-0.03451,0.08077l-0.00067,0.08702l-0.27548,1.10942l-0.06504,0.37922l-0.14149,0.33112l-0.0866,0.34877l-0.14763,0.28572l-0.08176,0.32928l-0.02507,0.04853l-0.00291,0.05414l-0.21664,0.72906l-0.01849,0.03213l-0.00312,0.03671l-0.20917,0.63202l-0.06325,0.55543l-0.07061,0.19474l-0.01105,0.2054l-0.21664,0.72905l-0.01849,0.03214l-0.00312,0.03671l-0.23002,0.69501l-0.12946,0.75481l-0.06982,0.1634l-0.01496,0.17591l-0.23002,0.69501l-0.12946,0.75481l-0.05562,0.13017l-0.00755,0.14029l-0.17697,0.59554l-0.13557,0.79045l-0.03451,0.08077l-0.00067,0.08702l-0.11152,0.44913l-0.04005,0.3517l0.22657,1.58242l0.17079,0.3775l0.0501,0.27467l0.11184,0.25233l0.14078,0.80586l0.84406,2.90726l0.23515,0.51979l0.05617,0.3079l0.11658,0.28709l0.08198,0.57253l0.2445,0.84214l0.00914,0.22045l0.07054,0.20592l0.01339,0.15213l0.14529,0.32115l0.06688,0.36667l0.11992,0.35004l0.09322,1.05869l-0.02099,0.13937l0.02847,0.13599l-0.01531,0.4618l0.07601,0.53083l-0.0194,0.20146l0.04096,0.19561l-0.02195,0.66202l-0.02518,0.09151l0.01163,0.09292l-0.08001,0.70263l-0.04084,1.23168l-0.02518,0.09151l0.01163,0.09292l-0.08001,0.70263l-0.01889,0.56966l-0.02518,0.09151l0.01163,0.09292l-0.09051,0.79471l-0.05251,0.1448l-0.00116,0.15267l-0.06793,0.27353l0.02199,0.531l-0.04768,0.24126l0.01632,0.24313l-0.15907,0.9274l-0.06981,0.16339l-0.01496,0.17591l-0.20049,0.60578l-0.07741,0.85866l-0.10037,0.29826l-0.03879,0.31089l-0.36172,0.96538l-0.19145,0.89161l-0.06678,0.13997l-0.01651,0.15332l-0.69879,1.96432l-0.27703,0.83703l-0.09829,0.15926l-0.04504,0.18134l-1.50824,2.919l-0.14507,0.16852l-0.09335,0.20266l-0.46892,0.59777l-0.10992,0.08703l-0.07396,0.12062l-0.4082,0.40893l-0.17591,0.34045l-0.0586,0.06807l-0.0025,0.07523l-0.36149,0.3476l-0.32809,0.38113l-0.07294,0.00448l-0.06457,0.06209l-0.12795,0.07452l-0.14807,0.172l-0.30766,0.22122l-0.27463,0.26408l-0.20281,0.11813l-0.12103,0.12125l-0.25156,0.15365l-0.21435,0.20611l-0.33934,0.19766l-0.1533,0.1163l-0.32345,0.1399l-0.29823,0.1929l-1.74246,0.59996l-0.60862,0.35452l-0.41656,0.31603l-0.16429,0.07106l-0.05646,0.09641l-0.19815,0.05152l-0.03907,0.04777l-0.0492,0.03733l-0.04184,0.0486l-0.02418,0.0015l-0.93778,0.71145l-0.16428,0.07106l-0.05646,0.0964l-0.41743,0.10855l-0.1506,0.06514l-0.01607,0.02743l-0.11874,0.03087l-0.11346,0.04907l-0.02762,-0.01239l-0.1576,0.04099l-0.1506,0.06514l-0.01607,0.02743l-0.11874,0.03087l-0.11346,0.04907l-0.02762,-0.01239l-0.1576,0.04099l-0.39886,0.17252l-0.0971,-0.04355l-0.17193,0.04471l-0.32083,0.00139l-0.149,-0.03811l-0.15463,0.01711l-0.89394,-0.12852l-0.25826,-0.10895l-0.01123,0.00006l-0.47564,-0.12167l-0.47907,-0.10858l-0.05271,-0.02744l-0.05946,-0.01521l-0.01127,-0.0216l-0.06761,-0.03519l-0.3675,-0.10277l-0.31497,-0.04528l-0.31594,-0.13329l-0.33516,-0.07598l-0.57592,-0.29974l-0.10291,-0.01479l-0.31593,-0.13329l-0.33515,-0.07597l-0.07137,-0.03715l-0.10291,-0.01479l-0.07707,-0.03251l-0.08443,0.00265l-0.57311,-0.1299l-0.23292,-0.12123l-0.25667,-0.05818l-0.44978,-0.23409l-0.10292,-0.01479l-0.07707,-0.03251l-0.08443,0.00265l-0.5731,-0.1299l-0.23292,-0.12123l-0.25667,-0.05818l-1.07402,-0.55897l-0.49556,-0.13859l-0.18336,-0.10739l-0.20767,-0.04707l-15.51488,-8.07456l-0.25497,-0.23116l-0.29058,-0.18236l-0.61971,-0.65925l-0.02985,-0.05431l-0.11555,-0.06014l-0.02409,0.0032l-0.04664,-0.04001l-0.05272,-0.02743l-0.36446,-0.33042l-0.37313,-0.32007l-0.03434,-0.04934l-0.04556,-0.0413l-0.00052,-0.0249l-0.10331,-0.14844l-0.39546,-1.05286l0.45315,-1.0037l-0.00008,-0.0039l0.00265,-0.0018l0.28251,-0.62576c-0.38993,-0.38539 -0.61151,-0.91437 -0.63057,-1.46934z" fill="url(#color-4)" stroke="none" stroke-width="0.5"/><path d="M214.5453,186.96762c0,0 18.88478,-18.19982 27.46741,-30.26738c8.49872,-11.94957 23.7791,-41.7875 23.7791,-41.7875l33.7322,16.91854c0,0 -16.07374,29.22186 -20.78051,43.52233c-4.54272,13.80201 -6.98547,40.83816 -6.98547,40.83816z" fill="url(#color-5)" stroke="none" stroke-width="0"/><path d="M260.83686,124.17613l3.29513,-6.45094l33.89101,17.31146l-3.29513,6.45094z" fill="url(#color-6)" stroke="url(#color-7)" stroke-width="0"/><path d="M254.96162,135.24904l3.29513,-6.45094l33.891,17.31146l-3.29513,6.45094z" fill="url(#color-8)" stroke="url(#color-9)" stroke-width="0"/><path d="M260.08259,217.85098c0,14.98335 0.01372,26.93128 -17.8091,27.12975c-16.49564,0.18369 -17.8091,-12.1464 -17.8091,-27.12975c0,-14.98335 2.64508,-26.92288 17.8091,-27.12975c15.82517,-0.21589 17.8091,12.1464 17.8091,27.12975z" fill="url(#color-10)" stroke="url(#color-11)" stroke-width="0"/><path d="M289.82932,217.95549c0,14.98335 0.01372,26.93128 -17.8091,27.12975c-16.49563,0.18369 -17.8091,-12.1464 -17.8091,-27.12975c0,-14.98335 2.64508,-26.92288 17.8091,-27.12975c15.82517,-0.2159 17.8091,12.1464 17.8091,27.12975z" fill="url(#color-12)" stroke="url(#color-13)" stroke-width="0"/><path d="M240.5167,191.78861v-12.07868h4.07958v12.07868z" fill="#312d29" stroke="url(#color-14)" stroke-width="0"/><path d="M269.32155,192.06815v-12.07868h4.07958v12.07868z" fill="#312d29" stroke="url(#color-15)" stroke-width="0"/><path d="M238.91773,184.49552v-3.56521h35.48265v3.56521z" fill="#36322e" stroke="none" stroke-width="0"/><path d="M186.22599,244.29878v-75.58741h46.61412v75.58741z" fill="url(#color-16)" stroke="url(#color-17)" stroke-width="0"/><path d="M180.476,222.29081v-31.51043h57.11412v31.51043z" fill="url(#color-18)" stroke="url(#color-19)" stroke-width="0"/><path d="M188.833,187.21847v-14.86511h40.61412v14.86511z" fill="url(#color-20)" stroke="url(#color-21)" stroke-width="0"/><path d="M183.226,214.06215v-14.86511h50.36412v14.86511z" fill="url(#color-22)" stroke="url(#color-23)" stroke-width="0"/><path d="M188.833,240.66638v-14.86511h40.61412v14.86511z" fill="url(#color-24)" stroke="url(#color-25)" stroke-width="0"/></g></g></svg>