<svg version="1.1" xmlns="http://www.w3.org/2000/svg" xmlns:xlink="http://www.w3.org/1999/xlink" width="11.80744" height="12.90416" viewBox="0,0,11.80744,12.90416"><defs><radialGradient cx="270.47141" cy="180.00001" r="5.98068" gradientUnits="userSpaceOnUse" id="color-1"><stop offset="0" stop-color="#6899ff"/><stop offset="1" stop-color="#6899ff" stop-opacity="0"/></radialGradient><radialGradient cx="270.47141" cy="180.00001" r="5.70813" gradientUnits="userSpaceOnUse" id="color-2"><stop offset="0" stop-color="#ff782e" stop-opacity="0.64516"/><stop offset="1" stop-color="#ff782e" stop-opacity="0"/></radialGradient><radialGradient cx="270.47141" cy="180.00001" r="5.40476" gradientUnits="userSpaceOnUse" id="color-3"><stop offset="0" stop-color="#ff6d2e"/><stop offset="1" stop-color="#ff6d2e" stop-opacity="0"/></radialGradient><radialGradient cx="271.37501" cy="178.1389" r="5.22319" gradientUnits="userSpaceOnUse" id="color-4"><stop offset="0" stop-color="#ffdc7b"/><stop offset="1" stop-color="#e8b556"/></radialGradient><linearGradient x1="264.64465" y1="180" x2="275.35535" y2="180" gradientUnits="userSpaceOnUse" id="color-5"><stop offset="0" stop-color="#0a0d0c"/><stop offset="1" stop-color="#0a0d0c" stop-opacity="0"/></linearGradient></defs><g transform="translate(-264.64465,-173.54792)"><g data-paper-data="{&quot;isPaintingLayer&quot;:true}" fill-rule="nonzero" stroke-linecap="butt" stroke-linejoin="miter" stroke-miterlimit="10" stroke-dasharray="" stroke-dashoffset="0" style="mix-blend-mode: normal"><path d="M270.47141,186.45209c-3.30304,0 -5.75609,-2.84466 -5.75609,-6.40803c0,-3.56339 2.45306,-6.49613 5.75609,-6.49613c3.30304,0 5.98068,2.88871 5.98068,6.45208c0,3.56339 -2.67765,6.45208 -5.98068,6.45208z" data-paper-data="{&quot;index&quot;:null}" fill="url(#color-1)" stroke="none" stroke-width="0.5"/><path d="M270.47141,186.15805c-3.15251,0 -5.5652,-2.80111 -5.5652,-6.20209c0,-3.40099 2.4127,-6.11399 5.5652,-6.11399c3.15251,0 5.70813,2.75706 5.70813,6.15804c0,3.40099 -2.55563,6.15804 -5.70813,6.15804z" data-paper-data="{&quot;index&quot;:null}" fill="url(#color-2)" stroke="none" stroke-width="0.5"/><path d="M270.47141,185.83078c-2.98497,0 -5.32309,-2.61053 -5.32309,-5.83077c0,-3.22025 2.33813,-5.83077 5.32309,-5.83077c2.98497,0 5.40476,2.61053 5.40476,5.83077c0,3.22025 -2.4198,5.83077 -5.40476,5.83077z" data-paper-data="{&quot;index&quot;:null}" fill="url(#color-3)" stroke="none" stroke-width="0.5"/><path d="M270.00001,185.2232c-2.88469,0 -5.22319,-2.33851 -5.22319,-5.22319c0,-2.88469 2.33851,-5.22319 5.22319,-5.22319c2.88469,0 5.22319,2.33851 5.22319,5.22319c0,2.88469 -2.33851,5.22319 -5.22319,5.22319z" data-paper-data="{&quot;index&quot;:null}" fill="url(#color-4)" stroke-opacity="0.60392" stroke="#946216" stroke-width="0.25"/><path d="M270,185.35535c-2.95768,0 -5.35535,-2.39768 -5.35535,-5.35535c0,-2.95768 2.39768,-5.35535 5.35535,-5.35535c2.95768,0 5.35535,2.39768 5.35535,5.35535c0,2.95768 -2.39768,5.35535 -5.35535,5.35535z" data-paper-data="{&quot;index&quot;:null}" fill="url(#color-5)" stroke="none" stroke-width="0"/></g></g></svg>