<svg version="1.1" xmlns="http://www.w3.org/2000/svg" xmlns:xlink="http://www.w3.org/1999/xlink" width="45.875" height="46.18734" viewBox="0,0,45.875,46.18734"><defs><linearGradient x1="240" y1="231.92857" x2="240" y2="192.45357" gradientUnits="userSpaceOnUse" id="color-1"><stop offset="0" stop-color="#696658"/><stop offset="1" stop-color="#423e2f"/></linearGradient><linearGradient x1="240" y1="231.92857" x2="240" y2="192.45357" gradientUnits="userSpaceOnUse" id="color-2"><stop offset="0" stop-color="#ccc9a5"/><stop offset="1" stop-color="#877e67"/></linearGradient><linearGradient x1="240" y1="230.81446" x2="240" y2="193.6716" gradientUnits="userSpaceOnUse" id="color-3"><stop offset="0" stop-color="#171412"/><stop offset="1" stop-color="#0f0e0b"/></linearGradient><linearGradient x1="239.86341" y1="213.82974" x2="239.86341" y2="217.68368" gradientUnits="userSpaceOnUse" id="color-4"><stop offset="0" stop-color="#736b4f"/><stop offset="1" stop-color="#bec286"/></linearGradient><radialGradient cx="237.44809" cy="199.80166" r="7.37946" gradientUnits="userSpaceOnUse" id="color-5"><stop offset="0" stop-color="#ccbe7a"/><stop offset="1" stop-color="#948f62"/></radialGradient><linearGradient x1="240" y1="230.81447" x2="240" y2="193.67161" gradientUnits="userSpaceOnUse" id="color-6"><stop offset="0" stop-color="#ccc4a3"/><stop offset="1" stop-color="#877f6b"/></linearGradient></defs><g transform="translate(-217.0625,-185.99122)"><g data-paper-data="{&quot;isPaintingLayer&quot;:true}" fill-rule="nonzero" stroke-linejoin="miter" stroke-miterlimit="10" stroke-dasharray="" stroke-dashoffset="0" style="mix-blend-mode: normal"><path d="M236.07143,192.45357l3.94805,-6l3.76623,6h18.90179v39.475h-45.375v-39.475z" data-paper-data="{&quot;index&quot;:null}" fill="url(#color-1)" stroke="url(#color-2)" stroke-width="0.5" stroke-linecap="butt"/><path d="M260.57143,193.6716v37.14286h-41.14286v-37.14286z" data-paper-data="{&quot;index&quot;:null}" fill="url(#color-3)" stroke="none" stroke-width="0" stroke-linecap="butt"/><path d="" data-paper-data="{&quot;index&quot;:null}" fill="#777777" stroke="#000000" stroke-width="0" stroke-linecap="butt"/><path d="" data-paper-data="{&quot;index&quot;:null}" fill="#777777" stroke="#000000" stroke-width="0" stroke-linecap="butt"/><path d="" data-paper-data="{&quot;index&quot;:null}" fill="#494949" stroke="#000000" stroke-width="0" stroke-linecap="butt"/><path d="" data-paper-data="{&quot;index&quot;:null}" fill="#141415" stroke="#000000" stroke-width="0" stroke-linecap="butt"/><path d="" data-paper-data="{&quot;index&quot;:null}" fill="#252527" stroke="#000000" stroke-width="0" stroke-linecap="butt"/><path d="" data-paper-data="{&quot;index&quot;:null}" fill="#141415" stroke="#000000" stroke-width="0" stroke-linecap="butt"/><path d="" data-paper-data="{&quot;index&quot;:null}" fill="#252527" stroke="#000000" stroke-width="0" stroke-linecap="butt"/><g stroke="#000000" stroke-width="0" stroke-linecap="butt"><path d="M249.50259,229.1269c-0.44362,-1.46391 -2.08348,-8.58443 -2.08348,-8.58443l3.04019,-1.2837c0,0 0.62057,3.65433 1.60774,7.47004c0.38254,1.47863 0.86138,2.98925 1.28216,4.3024c-0.54361,-0.1253 -1.10981,-0.19153 -1.69148,-0.19153c-0.02398,0 -0.04793,0.00011 -0.07186,0.00034c-0.50043,-0.38447 -1.08016,-0.5685 -1.70567,-0.59218c-0.15198,-0.4311 -0.2852,-0.81604 -0.3776,-1.12094z" data-paper-data="{&quot;index&quot;:null}" fill="#8b8560"/><path d="M246.42168,216.58773c3.27886,-1.179 4.03399,0.71247 4.33786,1.78308c0.30388,1.07062 1.28531,0.59689 -1.72442,1.66453c-2.54389,0.9024 -2.22699,0.6139 -2.53087,-0.45672c-0.30388,-1.07062 -1.79017,-2.37687 -0.08257,-2.99087z" data-paper-data="{&quot;index&quot;:null}" fill="#42352d"/></g><g stroke="#000000" stroke-width="0" stroke-linecap="butt"><path d="M247.56565,222.98267l3.22997,-0.67671c0,0 -0.09191,3.7055 0.145,7.63972c0.01076,0.17875 0.02274,0.6582 0.03576,0.83791c-0.90437,-0.38441 -3.09578,-0.15858 -3.09578,-0.15858z" data-paper-data="{&quot;index&quot;:null}" fill="#979068"/><path d="M247.34534,218.91005c3.44413,-0.52818 3.82242,1.47303 3.91529,2.58205c0.09287,1.10903 1.14694,0.83235 -2.01168,1.30285c-2.66976,0.39767 -2.3034,0.17533 -2.39627,-0.9337c-0.09287,-1.10903 -1.30099,-2.67613 0.49267,-2.95119z" data-paper-data="{&quot;index&quot;:null}" fill="#4a3c33"/></g><path d="M237.70999,218.13299v-4.30323h4.30683l-0.06419,4.43161z" fill="url(#color-4)" stroke="#000000" stroke-width="0" stroke-linecap="butt"/><path d="M234.07474,228.61403c-0.33498,-1.23243 -1.42548,-1.5626 -1.4733,-2.32276c-0.09445,-1.50151 -0.60192,-3.82166 -0.23427,-6.39667c0.27713,-1.9411 1.94553,-3.54308 1.94553,-3.54308c0,0 2.24307,-0.16261 3.24303,0.04339c1.2729,0.26223 2.61075,1.40238 2.61075,1.40238c0,0 1.7357,-1.13787 2.81205,-1.37203c1.1357,-0.24707 3.08518,0.00943 3.08518,0.00943c0,0 1.47446,1.98117 1.60202,4.41078c0.12038,2.2931 -0.35587,4.76341 -0.39898,5.70278c-0.0437,0.95211 -0.84103,1.19893 -1.19947,2.40472c-0.14147,0.47591 -0.21828,1.19556 -0.26866,1.93747c-3.27975,-0.45071 -7.63464,-0.31012 -10.26589,-0.05075c-0.37566,0.03703 -0.77487,0.05463 -1.1745,0.08392c-0.05434,-0.85996 -0.13302,-1.75606 -0.28348,-2.30958z" fill="#4f4037" stroke="#292e32" stroke-width="0" stroke-linecap="butt"/><g stroke="#000000" stroke-width="0" stroke-linecap="butt"><path d="M227.67293,226.63769c0.84753,-3.84915 1.3346,-7.52365 1.3346,-7.52365l3.08492,1.17213c0,0 -1.37941,7.17554 -1.76943,8.65462c-0.1318,0.49986 -0.36336,1.21422 -0.60568,1.99499c-1.08246,-0.04843 -2.15498,-0.03746 -3.18576,0.10774c0.37669,-1.34138 0.80799,-2.89187 1.14135,-4.40582z" data-paper-data="{&quot;index&quot;:null}" fill="#a0986e"/><path d="M232.93059,219.43505c-0.26469,1.08097 0.06251,1.35773 -2.51256,0.54859c-3.04662,-0.95731 -2.04859,-0.51964 -1.78391,-1.60062c0.26469,-1.08097 0.95041,-2.99868 4.27004,-1.93989c1.72881,0.5514 0.29111,1.91093 0.02643,2.99191z" fill="#615046"/></g><g stroke="#000000" stroke-width="0" stroke-linecap="butt"><path d="M228.84752,229.67161c0.13372,-3.93908 -0.05526,-7.6409 -0.05526,-7.6409l3.24659,0.59182c0,0 -0.04228,5.93054 -0.1345,8.22114c-0.08188,-0.00265 -0.16411,-0.00398 -0.24663,-0.00398c-0.47049,0 -0.93087,0.04333 -1.37735,0.1262c-0.49919,-0.03071 -0.99743,-0.05161 -1.49164,-0.05537c0.0246,-0.4134 0.04485,-0.82804 0.0588,-1.2389z" data-paper-data="{&quot;index&quot;:null}" fill="#ada477"/><path d="M232.70312,221.56097c-0.06378,1.11108 0.30828,1.32375 -2.37097,0.99618c-3.16988,-0.38755 -2.10892,-0.1386 -2.04514,-1.24968c0.06378,-1.11108 0.38948,-3.12149 3.84628,-2.68376c1.80025,0.22797 0.63362,1.82618 0.56984,2.93726z" fill="#615046"/></g><g stroke-width="1"><path d="M246.71915,196.04378c0,0 -0.18242,1.82511 -0.40767,2.57236c-0.18449,0.61201 -0.84616,1.58696 -0.84616,1.58696" data-paper-data="{&quot;index&quot;:null}" fill="none" stroke="#3b2c16" stroke-linecap="round"/><path d="M247.69175,198.37168c0,0 -0.13096,1.28173 -0.40776,1.82001c-0.29276,0.56931 -1.3036,1.508 -1.3036,1.508" data-paper-data="{&quot;index&quot;:null}" fill="none" stroke="#3b2c16" stroke-linecap="round"/><path d="M245.15856,195.05147c0,0 0.08075,1.84005 -0.02105,2.63998c-0.08337,0.65515 -0.54558,1.81253 -0.54558,1.81253" data-paper-data="{&quot;index&quot;:null}" fill="none" stroke="#3b2c16" stroke-linecap="round"/><path d="M247.06603,205.30352c0,4.15797 -4.60463,9.73997 -6.41217,9.77477c-3.76415,0.07246 -8.00618,-5.61679 -8.00618,-9.77477c0,-4.15797 3.22766,-7.52867 7.20918,-7.52867c3.98152,0 7.20917,3.3707 7.20917,7.52867z" fill="url(#color-5)" stroke="none" stroke-linecap="butt"/><path d="M240.07797,205.91284c0,1.16046 -0.51118,2.10119 -1.14174,2.10119c-0.63056,0 -1.14173,-0.94073 -1.14173,-2.10119c0,-1.16046 0.51118,-2.10118 1.14173,-2.10118c0.63056,0 1.14174,0.94073 1.14174,2.10118z" fill="none" stroke="#191412" stroke-linecap="butt"/><path d="M242.91951,202.78422c0,1.16046 -0.51118,2.10119 -1.14173,2.10119c-0.63056,0 -1.14173,-0.94073 -1.14173,-2.10119c0,-1.16046 0.51117,-2.10119 1.14173,-2.10119c0.63056,0 1.14173,0.94073 1.14173,2.10119z" fill="none" stroke="#191412" stroke-linecap="butt"/><path d="M245.73837,205.8867c0,1.16046 -0.51117,2.10118 -1.14173,2.10118c-0.63056,0 -1.14173,-0.94073 -1.14173,-2.10118c0,-1.16046 0.51117,-2.10119 1.14173,-2.10119c0.63056,0 1.14173,0.94074 1.14173,2.10119z" fill="none" stroke="#191412" stroke-linecap="butt"/><path d="M242.88516,208.7718c0,1.16046 -0.51118,2.10119 -1.14173,2.10119c-0.63056,0 -1.14173,-0.94073 -1.14173,-2.10119c0,-1.16046 0.51117,-2.10118 1.14173,-2.10118c0.63056,0 1.14173,0.94074 1.14173,2.10118z" fill="none" stroke="#191412" stroke-linecap="butt"/><path d="M235.04194,200.38391c0,0 -0.96435,-0.97444 -1.23357,-1.58629c-0.32871,-0.74707 -0.5961,-2.57203 -0.5961,-2.57203" fill="none" stroke="#47341a" stroke-linecap="round"/><path d="M234.29345,201.88093c0,0 -1.47271,-0.93789 -1.89952,-1.50698c-0.40355,-0.53806 -0.59547,-1.81969 -0.59547,-1.81969" fill="none" stroke="#47341a" stroke-linecap="round"/><path d="M236.31292,199.6841c0,0 -0.67412,-1.15702 -0.79615,-1.8121c-0.149,-0.79985 -0.03322,-2.63995 -0.03322,-2.63995" fill="none" stroke="#47341a" stroke-linecap="round"/></g><path d="M260.57143,193.67161v37.14286h-41.14286v-37.14286z" data-paper-data="{&quot;index&quot;:null}" fill="none" stroke="url(#color-6)" stroke-width="0.5" stroke-linecap="butt"/></g></g></svg>