<svg version="1.1" xmlns="http://www.w3.org/2000/svg" xmlns:xlink="http://www.w3.org/1999/xlink" width="42.45746" height="104.67871" viewBox="0,0,42.45746,104.67871"><defs><linearGradient x1="239.74787" y1="156.06832" x2="239.74787" y2="162.91937" gradientUnits="userSpaceOnUse" id="color-1"><stop offset="0" stop-color="#c28b5f"/><stop offset="1" stop-color="#ffb87d"/></linearGradient><radialGradient cx="235.71182" cy="133.41612" r="13.11833" gradientUnits="userSpaceOnUse" id="color-2"><stop offset="0" stop-color="#ffd9ba"/><stop offset="1" stop-color="#ffb87d"/></radialGradient><radialGradient cx="229.21564" cy="134.03046" r="10.07074" gradientUnits="userSpaceOnUse" id="color-3"><stop offset="0" stop-color="#303030"/><stop offset="1" stop-color="#292929"/></radialGradient><radialGradient cx="245.64374" cy="130.85061" r="2.65078" gradientUnits="userSpaceOnUse" id="color-4"><stop offset="0" stop-color="#787878"/><stop offset="1" stop-color="#292929"/></radialGradient><radialGradient cx="234.49144" cy="133.01564" r="4.17314" gradientUnits="userSpaceOnUse" id="color-5"><stop offset="0" stop-color="#a7a7a7"/><stop offset="1" stop-color="#292929"/></radialGradient></defs><g transform="translate(-218.44771,-129.64767)"><g data-paper-data="{&quot;isPaintingLayer&quot;:true}" fill-rule="nonzero" stroke-linejoin="miter" stroke-miterlimit="10" stroke-dasharray="" stroke-dashoffset="0" style="mix-blend-mode: normal"><path d="M254.92666,192.91405c-0.20522,-0.04834 -0.25799,3.54359 -1.1341,3.40212c-0.43091,-0.06959 0.12943,-2.32606 -0.40975,-3.19214c-0.28541,-0.45845 0.06827,4.11754 -1.03498,3.51943c-0.37876,-0.20535 0.13597,-3.43672 -0.22119,-4.26866c-0.19119,-0.44536 -0.28874,4.97933 -1.03159,4.62284c-0.44097,-0.21161 0.20217,-3.13359 -0.01221,-4.51028c-0.10444,-0.67069 -0.62427,3.62706 -1.1507,3.25107c-0.32224,-0.23016 -0.0318,-4.46097 -0.06554,-4.51338c-0.18963,-0.29453 -1.09016,2.17901 -1.31056,1.52862c-0.40621,-1.19866 0.61701,-2.44046 1.43689,-3.62367c0.47903,-0.6913 0.59244,-1.81067 0.59244,-1.81067c0,0 0.71177,-2.77213 0.41977,-6.14044c-0.07022,-0.80999 -0.12286,-3.45607 -0.20284,-4.28782c-0.1893,-1.96855 -0.44434,-3.91737 -0.53199,-5.12566c-0.18852,-2.59883 -0.35396,-5.89225 -0.35396,-5.89225l5.52407,-0.24318c0,0 0.31021,4.70341 0.51065,7.46647c0.08157,1.12449 -0.41783,1.97797 -0.35707,3.72099c0.02724,0.78134 -0.31416,4.11816 -0.42966,6.16904c-0.19231,3.41462 0.04543,5.51466 0.04543,5.51466c0,0 0.15166,4.51533 -0.28309,4.41293z" data-paper-data="{&quot;index&quot;:null}" fill="#ffb77d" stroke="#000000" stroke-width="0" stroke-linecap="butt"/><path d="M251.61966,159.79735c4.9639,-0.59789 5.42991,2.83702 5.52057,4.73043c0.09066,1.89341 1.61428,1.51486 -2.93761,2.03959c-3.84737,0.44351 -3.31295,0.09743 -3.40361,-1.79598c-0.09066,-1.89341 -1.76449,-4.66265 0.82065,-4.97403z" data-paper-data="{&quot;index&quot;:null}" fill="#ffffff" stroke="#000000" stroke-width="0" stroke-linecap="butt"/><path d="M226.12337,227.23573l3.75904,-33.71008c0,0 6.75518,-2.18267 9.822,-2.18267c3.62872,0 10.54956,2.18267 10.54956,2.18267l3.03149,33.71008h-7.63934c0,0 -1.32697,-25.53818 -2.03751,-29.57011c-0.20138,-1.1427 -3.2979,-2.07857 -3.2979,-2.07857c0,0 -3.09204,0.08829 -3.39803,1.52409c-0.93579,4.39099 -2.78619,30.12458 -2.78619,30.12458z" fill="#726f7c" stroke="#000000" stroke-width="0" stroke-linecap="butt"/><path d="M235.91979,162.91937v-6.85104h7.65615v6.85104z" fill="url(#color-1)" stroke="#000000" stroke-width="0" stroke-linecap="butt"/><path d="M229.63979,193.59141c0,0 0.16709,-5.5597 -0.35268,-10.94382c-0.35317,-3.65847 -1.40473,-6.95919 -1.56162,-9.45339c-0.29447,-4.68133 -0.2105,-13.38223 -0.2105,-13.38223c0,0 3.69178,-0.58477 5.4694,-0.21857c2.26281,0.46615 7.00656,2.78867 7.00656,2.78867c0,0 3.67689,-2.17061 5.59031,-2.58687c2.01891,-0.43921 6.22369,0.01677 6.22369,0.01677c0,0 -0.06905,9.21711 -0.22689,12.65629c-0.13965,3.04285 -0.88957,6.36811 -1.18346,10.87293c-0.3029,4.64296 -0.14784,10.42155 -0.14784,10.42155c0,0 -2.75697,-0.76932 -5.57187,-0.83754c-1.27833,-0.03098 -1.79126,1.00612 -2.99851,1.16532c-0.96496,0.12724 -2.63623,-0.61291 -3.56107,-0.64966c-0.69915,-0.02778 -2.04377,-0.5306 -2.53801,-0.53471c-0.99795,-0.0083 -1.61572,0.86529 -2.77345,1.02464c-1.34484,0.1851 -3.1641,-0.33939 -3.1641,-0.33939z" fill="#ffffff" stroke="#292e32" stroke-width="0" stroke-linecap="butt"/><path d="M252.80944,143.64573c0,7.73092 -5.73774,13.99807 -12.8156,13.99807c-7.07786,0 -12.8156,-6.26715 -12.8156,-13.99807c0,-7.73092 5.73774,-13.99806 12.8156,-13.99806c7.07786,0 12.8156,6.26714 12.8156,13.99806z" fill="url(#color-2)" stroke="none" stroke-width="0" stroke-linecap="butt"/><path d="M239.06144,145.38273c-0.53859,0.91349 -1.46548,0.38383 -1.46548,0.38383c-0.93492,-0.55722 -2.50725,-1.17574 -2.3549,-2.6961c0.1245,-1.24248 2.18888,-2.33997 3.28046,-2.10706c1.98018,0.42253 3.68416,3.95074 0.53992,4.41932z" fill="#191412" stroke="none" stroke-width="0.5" stroke-linecap="butt"/><path d="M243.21157,150.26576c0.14754,-0.46863 0.48625,-0.57039 0.73618,-0.57602c0.07938,-0.00492 0.16056,0.00165 0.24129,0.02089c-0.28805,-1.08168 -0.10647,-2.4792 -0.45483,-3.52597c0,0 -0.25584,-0.78449 0.52864,-1.04033c0.78448,-0.25584 1.04033,0.52865 1.04033,0.52865c0.41952,1.30859 0.72828,2.9192 0.70047,4.31641c-0.01042,0.5236 0.25831,1.23107 -0.14568,1.56432c-0.41921,0.34581 -1.08472,-0.06797 -1.62708,-0.10196l-0.48004,-0.15113c-0.09948,-0.03132 -0.18883,-0.07973 -0.26585,-0.14099c-0.20163,-0.14779 -0.42096,-0.42524 -0.27343,-0.89386z" fill="#191412" stroke="none" stroke-width="0.5" stroke-linecap="butt"/><path d="M250.29227,145.33439c-0.35576,0.9868 -0.96803,0.41464 -0.96803,0.41464c-0.61756,-0.60194 -1.65617,-1.27009 -1.55553,-2.91248c0.08224,-1.3422 1.44586,-2.52778 2.16691,-2.27617c1.30801,0.45643 2.43357,4.26783 0.35665,4.77401z" fill="#191412" stroke="none" stroke-width="0.5" stroke-linecap="butt"/><g stroke-linecap="butt"><path d="M231.90604,134.03999c-0.16984,0.01553 -0.60661,0.06221 -1.07903,0.1438c-0.52185,0.20742 -1.13106,0.41772 -1.59752,0.64771c-0.28909,0.89276 0.78709,1.80702 -0.65422,2.4752c-2.45813,1.13958 -1.71655,-2.03888 -0.89769,-3.03685c1.27069,-1.10653 3.14359,-1.2394 4.75566,-1.549c2.22048,-0.42645 4.38435,-1.08334 6.57971,-1.21737c0.08249,-0.08622 0.19535,-0.14411 0.32353,-0.15569l0.58612,-0.0529c0.29539,-0.07774 0.61637,-0.15861 0.95355,-0.23507c0.87645,-0.27394 1.93099,-0.41625 2.91353,-0.50866c0.4818,-0.09462 0.9333,-0.1389 1.30669,-0.10536c0.27388,-0.02025 0.5286,-0.03932 0.7561,-0.05986l0.61787,-0.05577c0.28142,-0.0254 0.53014,0.18214 0.55554,0.46356c0.0226,0.25047 -0.13931,0.47504 -0.37361,0.53931l-0.32968,0.09745c0.145,0.12181 0.27656,0.26112 0.39244,0.4197l0.23414,-0.11908l0.29765,0.58522c0.03177,0.05903 0.05238,0.12532 0.05879,0.19629c0.0254,0.28142 -0.18214,0.53014 -0.46355,0.55553c-0.08558,0.00772 -0.16814,-0.00609 -0.24232,-0.03698l-0.50702,-0.19878l0.00585,-0.01492l-0.04787,-0.00377c-0.36209,-0.22374 -0.73047,-0.39249 -1.09838,-0.50678c-0.55947,-0.02006 -1.148,-0.08122 -1.74789,-0.1302c-1.01464,0.1745 -1.9334,0.80247 -2.5904,1.87097c0,0 -0.26893,0.43524 -0.70416,0.1663c-0.43523,-0.26893 -0.1663,-0.70417 -0.1663,-0.70417c0.0575,-0.09265 0.11686,-0.18277 0.17799,-0.27034l-0.28392,0.09053c-0.03801,0.01299 -0.07817,0.02169 -0.11996,0.02546c-0.28142,0.0254 -0.53014,-0.18214 -0.55553,-0.46356c-0.01286,-0.14243 0.03395,-0.27647 0.11981,-0.37743c-0.2451,0.00049 -0.4766,0.01384 -0.6735,0.06241c-1.37524,0.33924 -3.48763,0.45199 -5.48058,0.75785c0.01121,0.24126 -0.14794,0.45435 -0.37516,0.51668l-0.59763,0.17665l-0.00571,-0.01931l-0.00747,0.00194z" fill="url(#color-3)" stroke="none" stroke-width="0.5"/><path d="M247.00008,130.30896c2.70896,-0.28418 2.68558,-0.24349 2.90043,1.58673c0.21485,1.83022 -0.78194,3.36186 -2.22639,3.42102c-1.44446,0.05917 -2.7896,-1.37656 -3.00445,-3.20678c-0.21485,-1.83022 -0.20983,-1.53449 2.33041,-1.80097z" data-paper-data="{&quot;index&quot;:null}" fill="url(#color-4)" stroke="#000000" stroke-width="0"/><path d="M240.38006,132.98982c0.35755,1.99142 -1.17444,3.9329 -3.4218,4.33639c-2.24735,0.40349 -4.35904,-0.88377 -4.71659,-2.8752c-0.35755,-1.99142 -0.40888,-2.02662 3.87102,-2.60142c4.01334,-0.53901 3.90982,-0.85119 4.26737,1.14023z" fill="url(#color-5)" stroke="#000000" stroke-width="0"/></g><g><path d="M259.69259,234.32551c-0.59276,0 -2.64411,0.01365 -4.70436,-0.0669c-1.25258,-0.04897 -1.90215,-0.61779 -2.83553,-0.76063c-1.17507,-0.17982 -2.93854,0.22047 -3.78778,0.02896c-1.56485,-0.35288 -2.37463,-0.77782 -2.37463,-0.77782c0,0 -0.26911,-1.0254 -0.2856,-1.5858c-0.02221,-0.75501 0.16433,-2.53701 0.16433,-2.53701c0,0 5.93425,-0.11957 8.24914,0.08076c1.36979,0.11854 4.24057,0.6468 4.24057,0.6468c0,0 1.45976,0.6156 1.67337,1.04283c0.26162,0.52325 0.87307,1.98865 0.87307,1.98865c0,0 -0.3857,1.94015 -1.21259,1.94015z" data-paper-data="{&quot;index&quot;:null}" fill="#141415" stroke="#000000" stroke-width="0" stroke-linecap="butt"/><path d="M259.4217,231.7507c-0.24822,0 0.7024,1.60165 -2.61811,1.33311c-3.13563,-0.25358 -2.77648,-1.18823 -3.8809,-1.26883c-2.30937,-0.16854 -2.58765,0.59503 -3.58732,0.44205c-0.34815,-0.05328 -0.51271,-0.11454 -1.78459,-0.97035c-0.87472,-0.58857 -0.66566,-1.75122 -1.26542,-2.3793c-0.87609,-0.91745 -0.80847,-1.8858 -0.80847,-1.8858l-0.07637,-3.04773c0,0 0.48635,2.20681 1.32529,3.03122c0.75062,0.73761 2.3169,-0.01875 2.80058,-0.01889c0.84696,-0.00024 -0.68885,-3.26804 0.12091,-3.2498c0.43542,0.00981 3.72275,-0.23409 3.72275,-0.23409c0,0 0.12302,3.57989 0.35598,3.60005c1.36979,0.11854 4.60434,0.6468 4.60434,0.6468c0,0 1.45976,0.6156 1.67338,1.04283c0.26162,0.52325 0.63055,2.95873 0.63055,2.95873c0,0 -0.3857,0 -1.2126,0z" data-paper-data="{&quot;index&quot;:null}" fill="#252527" stroke="#000000" stroke-width="0" stroke-linecap="butt"/><path d="M251.9516,228.8121l2.6677,-1.09133" fill="none" stroke="#ffffff" stroke-width="0.5" stroke-linecap="round"/><path d="M253.89175,229.17588l2.54645,-1.45511" fill="none" stroke="#ffffff" stroke-width="0.5" stroke-linecap="round"/><path d="M256.07442,229.4184l1.45512,-1.45511" fill="none" stroke="#ffffff" stroke-width="0.5" stroke-linecap="round"/><path d="M252.92167,224.68929l-2.18266,0.24252" fill="none" stroke="#969696" stroke-width="0.5" stroke-linecap="round"/><path d="M253.1642,225.41684l-1.94015,0.36378" fill="none" stroke="#969696" stroke-width="0.5" stroke-linecap="round"/></g><g data-paper-data="{&quot;index&quot;:null}"><path d="M241.37814,232.29246c0,0 -0.3857,1.94015 -1.2126,1.94015c-0.59276,0 -2.64411,0.01366 -4.70436,-0.06689c-1.25258,-0.04897 -1.90215,-0.61779 -2.83553,-0.76063c-1.17507,-0.17983 -2.93853,0.22047 -3.78777,0.02896c-1.56485,-0.35288 -2.37463,-0.77781 -2.37463,-0.77781c0,0 -0.26912,-1.02539 -0.2856,-1.5858c-0.02221,-0.755 0.16433,-2.53701 0.16433,-2.53701c0,0 5.93424,-0.11957 8.24914,0.08075c1.36979,0.11854 4.24057,0.6468 4.24057,0.6468c0,0 1.45975,0.6156 1.67337,1.04283c0.26162,0.52325 0.87307,1.98866 0.87307,1.98866z" data-paper-data="{&quot;index&quot;:null}" fill="#141415" stroke="#000000" stroke-width="0" stroke-linecap="butt"/><path d="M241.10724,231.65782c0,0 -0.38569,0 -1.21259,0c-0.24822,0 0.70239,1.60165 -2.61811,1.33311c-3.13563,-0.25359 -2.77648,-1.18823 -3.8809,-1.26883c-2.30937,-0.16854 -2.58766,0.59503 -3.58733,0.44204c-0.34815,-0.05328 -0.51271,-0.11454 -1.78458,-0.97035c-0.87471,-0.58857 -0.66566,-1.75122 -1.26542,-2.3793c-0.87609,-0.91746 -0.80847,-1.8858 -0.80847,-1.8858l-0.07637,-3.04773c0,0 0.48635,2.20682 1.32529,3.03123c0.75062,0.73761 2.3169,-0.01875 2.80058,-0.01889c0.84695,-0.00024 -0.68885,-3.26805 0.12091,-3.24981c0.43542,0.00981 3.72275,-0.23408 3.72275,-0.23408c0,0 0.12302,3.57988 0.35598,3.60004c1.36978,0.11854 4.60434,0.6468 4.60434,0.6468c0,0 1.45975,0.6156 1.67337,1.04283c0.26163,0.52325 0.63055,2.95873 0.63055,2.95873z" data-paper-data="{&quot;index&quot;:null}" fill="#252527" stroke="#000000" stroke-width="0" stroke-linecap="butt"/><path d="M235.09226,227.62787l-2.66771,1.09134" fill="none" stroke="#ffffff" stroke-width="0.5" stroke-linecap="round"/><path d="M234.3647,229.08299l2.54644,-1.45511" fill="none" stroke="#ffffff" stroke-width="0.5" stroke-linecap="round"/><path d="M238.00248,227.87039l-1.45512,1.45512" fill="none" stroke="#ffffff" stroke-width="0.5" stroke-linecap="round"/><path d="M233.39462,224.5964l-2.18267,0.24252" fill="none" stroke="#969696" stroke-width="0.5" stroke-linecap="round"/><path d="M233.63714,225.32395l-1.94015,0.36378" fill="none" stroke="#969696" stroke-width="0.5" stroke-linecap="round"/></g><path d="M223.11962,189.36688c0,0 -0.26498,-2.19037 -1.39385,-5.58861c-0.67802,-2.04102 -2.27285,-4.62076 -2.44525,-5.41844c-0.16223,-0.75063 -1.07989,-3.67799 -0.769,-6.43562c0.42612,-3.77978 2.15892,-7.52681 2.15892,-7.52681l6.54885,2.15061c0,0 -1.0773,2.65222 -1.75101,5.48382c-0.45309,1.90432 -0.63446,4.06811 -0.51831,4.88991c0.12205,0.86353 1.18827,3.01696 1.31637,3.85574c0.5327,3.488 2.1192,6.09009 2.1192,6.09009c0,0 0.4308,1.09978 1.19004,1.66363c1.29948,0.96506 2.85954,1.93198 2.68458,3.25852c-0.09492,0.71977 -1.8306,-1.52717 -1.9819,-1.17589c-0.02692,0.06251 1.4347,4.2583 1.10657,4.5819c-0.53604,0.52864 -2.29184,-3.67011 -2.2416,-2.96253c0.10313,1.45241 1.64623,4.22537 1.17007,4.56371c-0.80213,0.56997 -2.34475,-4.88732 -2.45831,-4.3831c-0.21214,0.94192 1.25739,4.06391 0.8546,4.37837c-1.17325,0.91594 -1.94882,-3.81052 -2.17255,-3.26648c-0.42267,1.02778 0.84577,3.1512 0.34442,3.3431c-1.01931,0.39017 -2.0265,-3.22669 -2.26126,-3.11993c-0.49736,0.22617 -1.50058,-4.38198 -1.50058,-4.38198z" fill="#ffb77d" stroke="#000000" stroke-width="0" stroke-linecap="butt"/><path d="M227.83127,165.38983c-0.44587,1.9275 0.14204,2.41201 -4.45366,1.03236c-5.43727,-1.63228 -3.65328,-0.87703 -3.20741,-2.80453c0.44587,-1.9275 1.62111,-5.35192 7.54598,-3.54545c3.08559,0.94078 0.56097,3.39012 0.11509,5.31762z" fill="#ffffff" stroke="#000000" stroke-width="0" stroke-linecap="butt"/><path d="M240.19616,139.72247l-6.26342,0.24562" fill="none" stroke="#000000" stroke-width="1" stroke-linecap="round"/><path d="M246.7052,136.65216c0,0 2.09406,-0.48916 2.93521,-0.20878c0.74327,0.24776 1.85446,1.80534 1.85446,1.80534" fill="none" stroke="#000000" stroke-width="1" stroke-linecap="round"/></g></g></svg>