<svg version="1.1" xmlns="http://www.w3.org/2000/svg" xmlns:xlink="http://www.w3.org/1999/xlink" width="687.50541" height="471.58013" viewBox="0,0,687.50541,471.58013"><defs><radialGradient cx="240" cy="180.00002" r="250.5" gradientUnits="userSpaceOnUse" id="color-1"><stop offset="0" stop-color="#949494"/><stop offset="1" stop-color="#7d7d7d"/></radialGradient><radialGradient cx="243.51172" cy="115.5508" r="114.5" gradientUnits="userSpaceOnUse" id="color-2"><stop offset="0" stop-color="#484848"/><stop offset="1" stop-color="#3a3a3a"/></radialGradient><radialGradient cx="313.80117" cy="294.91332" r="270.53072" gradientUnits="userSpaceOnUse" id="color-3"><stop offset="0" stop-color="#4d4d4d"/><stop offset="1" stop-color="#3c3c3c"/></radialGradient><radialGradient cx="228.97824" cy="289.72909" r="66" gradientUnits="userSpaceOnUse" id="color-4"><stop offset="0" stop-color="#2a2a2a"/><stop offset="1" stop-color="#2a2a2a"/></radialGradient><radialGradient cx="222.20341" cy="294.86247" r="66" gradientUnits="userSpaceOnUse" id="color-5"><stop offset="0" stop-color="#1d1d1d"/><stop offset="1" stop-color="#1b1b1b"/></radialGradient><radialGradient cx="349.5834" cy="454.23877" r="249.95744" gradientUnits="userSpaceOnUse" id="color-6"><stop offset="0" stop-color="#222222"/><stop offset="1" stop-color="#202020"/></radialGradient><radialGradient cx="308.17227" cy="315.18154" r="65" gradientUnits="userSpaceOnUse" id="color-7"><stop offset="0" stop-color="#090909"/><stop offset="1" stop-color="#080808"/></radialGradient><radialGradient cx="465.65055" cy="218.71995" r="26.5" gradientUnits="userSpaceOnUse" id="color-8"><stop offset="0" stop-color="#525252"/><stop offset="1" stop-color="#424242"/></radialGradient><radialGradient cx="389.18019" cy="263.01041" r="84" gradientUnits="userSpaceOnUse" id="color-9"><stop offset="0" stop-color="#1d1d1d"/><stop offset="1" stop-color="#1b1b1b"/></radialGradient><radialGradient cx="423.82281" cy="229.41892" r="44.75" gradientUnits="userSpaceOnUse" id="color-10"><stop offset="0" stop-color="#3a3a3a"/><stop offset="1" stop-color="#2f2f2f"/></radialGradient><radialGradient cx="376.45226" cy="269.17481" r="48.5" gradientUnits="userSpaceOnUse" id="color-11"><stop offset="0" stop-color="#343434"/><stop offset="1" stop-color="#262626"/></radialGradient><radialGradient cx="333.55169" cy="245.02495" r="26.25" gradientUnits="userSpaceOnUse" id="color-12"><stop offset="0" stop-color="#121212"/><stop offset="1" stop-color="#161616"/></radialGradient><radialGradient cx="315.50967" cy="312.64928" r="65" gradientUnits="userSpaceOnUse" id="color-13"><stop offset="0" stop-color="#101010"/><stop offset="1" stop-color="#111111"/></radialGradient><radialGradient cx="483.58941" cy="200.60374" r="36.25" gradientUnits="userSpaceOnUse" id="color-14"><stop offset="0" stop-color="#313131"/><stop offset="1" stop-color="#1b1b1b"/></radialGradient><radialGradient cx="374.11467" cy="343.70192" r="26.25" gradientUnits="userSpaceOnUse" id="color-15"><stop offset="0" stop-color="#121212"/><stop offset="1" stop-color="#161616"/></radialGradient><radialGradient cx="-5.39251" cy="179.86669" r="57.27136" gradientUnits="userSpaceOnUse" id="color-16"><stop offset="0" stop-color="#33266a"/><stop offset="1" stop-color="#949074"/></radialGradient><linearGradient x1="7.28511" y1="120.68091" x2="4.60061" y2="137.85568" gradientUnits="userSpaceOnUse" id="color-17"><stop offset="0" stop-color="#694444"/><stop offset="1" stop-color="#98a1b9"/></linearGradient><radialGradient cx="7.94839" cy="62.21702" r="33.28545" gradientUnits="userSpaceOnUse" id="color-18"><stop offset="0" stop-color="#dcdcdc"/><stop offset="1" stop-color="#a0a0a0"/></radialGradient><radialGradient cx="-5.16991" cy="59.02519" r="25.55275" gradientUnits="userSpaceOnUse" id="color-19"><stop offset="0" stop-color="#1c2f30"/><stop offset="1" stop-color="#142913"/></radialGradient><radialGradient cx="37.04281" cy="63.57245" r="6.72592" gradientUnits="userSpaceOnUse" id="color-20"><stop offset="0" stop-color="#786c41"/><stop offset="1" stop-color="#141a29"/></radialGradient><radialGradient cx="8.38175" cy="60.50111" r="10.58856" gradientUnits="userSpaceOnUse" id="color-21"><stop offset="0" stop-color="#7ba676"/><stop offset="1" stop-color="#291616"/></radialGradient><radialGradient cx="13.84954" cy="84.75412" r="25.00169" gradientUnits="userSpaceOnUse" id="color-22"><stop offset="0" stop-color="#d1ffc4"/><stop offset="1" stop-color="#2188ff"/></radialGradient><radialGradient cx="13.84954" cy="84.75412" r="25.00169" gradientUnits="userSpaceOnUse" id="color-23"><stop offset="0" stop-color="#ceffc4"/><stop offset="1" stop-color="#ff21cc"/></radialGradient><radialGradient cx="13.84954" cy="84.75412" r="25.00169" gradientUnits="userSpaceOnUse" id="color-24"><stop offset="0" stop-color="#ffe9c4"/><stop offset="1" stop-color="#4fff21"/></radialGradient><radialGradient cx="13.84954" cy="84.75412" r="25.00169" gradientUnits="userSpaceOnUse" id="color-25"><stop offset="0" stop-color="#ffe9c4"/><stop offset="1" stop-color="#4fff21"/></radialGradient><radialGradient cx="13.84948" cy="84.75414" r="25.00169" gradientUnits="userSpaceOnUse" id="color-26"><stop offset="0" stop-color="#ffe9c4"/><stop offset="1" stop-color="#ffa321"/></radialGradient><radialGradient cx="13.84944" cy="84.75413" r="25.00169" gradientUnits="userSpaceOnUse" id="color-27"><stop offset="0" stop-color="#c4f0ff"/><stop offset="1" stop-color="#3d21ff"/></radialGradient><linearGradient x1="-11.98828" y1="179.28453" x2="150.92969" y2="179.28453" gradientUnits="userSpaceOnUse" id="color-28"><stop offset="0" stop-color="#7d7d7d"/><stop offset="1" stop-color="#818181"/></linearGradient></defs><g transform="translate(80.43069,8.48174)"><g data-paper-data="{&quot;isPaintingLayer&quot;:true}" fill-rule="nonzero" stroke-linejoin="miter" stroke-miterlimit="10" stroke-dasharray="" stroke-dashoffset="0" style="mix-blend-mode: normal"><path d="M-10.5,368.00001v-376h501v376z" fill="url(#color-1)" stroke="none" stroke-width="0" stroke-linecap="butt"/><path d="M55.63703,350.09234c-3.89444,-35.12313 -28.86024,-260.28391 -28.86024,-260.28391c0,0 6.13498,-58.73673 90.38049,-83.32369c88.94305,-19.99889 123.11201,33.7383 123.11201,33.7383c0,0 65.07454,148.36123 76.16367,173.64299c3.0985,7.06417 1.47154,14.99796 -6.00481,17.45295c-24.82515,8.15175 -82.74364,27.48408 -119.81421,42.36863c-36.09995,14.49483 -99.11668,64.98273 -123.29164,84.94994c-6.18411,5.10773 -10.69693,0.36836 -11.68526,-8.54521z" fill="#000000" stroke="none" stroke-width="NaN" stroke-linecap="butt"/><path d="M165.01172,165.0508l-2,-164c0,0 26.59426,3.29414 40.84201,7.29545c21.80408,6.12342 42.158,33.70455 42.158,33.70455c0,0 56.32326,135.7535 68.65762,165.48248c4.54989,10.96641 3.54663,20.14819 -2.69066,17.59835c-21.79808,-8.91117 -146.96696,-60.08083 -146.96696,-60.08083z" fill="url(#color-2)" stroke="none" stroke-width="0" stroke-linecap="butt"/><path d="M605.69258,270.32998c14.79035,54.92892 -90.81001,131.12039 -235.86501,170.17842c-145.055,39.05803 -274.63528,26.19214 -289.42563,-28.73678c-14.79036,-54.92892 90.81,-131.1204 235.86501,-170.17843c145.05501,-39.05803 274.63528,-26.19213 289.42564,28.73679z" fill="url(#color-3)" stroke="none" stroke-width="NaN" stroke-linecap="butt"/><g data-paper-data="{&quot;index&quot;:null}"><path d="M221.7213,237.51416l18.63568,7.20842l33.462,93.83653l-22.25925,-11.99065z" fill="url(#color-4)" stroke="none" stroke-width="0" stroke-linecap="butt"/><path d="M252.45332,325.26405l21.46221,12.59458l-6.87139,5.83387l-22.95973,-12.08721z" fill="url(#color-5)" stroke="none" stroke-width="0" stroke-linecap="butt"/><path d="M243.98785,332.30577l-29.01224,-87.79835l7.58732,-5.8825l30.00994,86.54853z" data-paper-data="{&quot;index&quot;:null}" fill="url(#color-6)" stroke="none" stroke-width="0" stroke-linecap="butt"/><path d="M226.6818,241.06679l49.6744,5.71874l-37.99309,0.88027" fill="none" stroke="#747474" stroke-width="1.5" stroke-linecap="round"/><path d="M255.92492,322.04882l55.24453,10.40635l-43.1397,-2.28397" fill="none" stroke="#747474" stroke-width="1.5" stroke-linecap="round"/><path d="M261.55145,288.70273c-6.53341,-17.0944 -5.97747,-42.56344 -2.56125,-48.30337c2.17588,-3.65591 19.20595,5.0226 28.79083,9.47131c7.94194,3.68615 20.28707,15.94247 20.28707,15.94247l45.54771,97.12701c0,0 -20.99459,-3.76071 -30.44393,-7.83954c-9.80806,-4.23367 -25.97957,-9.11744 -30.68559,-14.8801c-4.67276,-5.72192 -24.85768,-35.61715 -30.93484,-51.51779z" fill="url(#color-7)" stroke="none" stroke-width="0" stroke-linecap="butt"/><path d="M447.24607,198.56369l11.4751,-7.12896l27.95706,45.07108l-12.43968,8.3818z" fill="url(#color-8)" stroke="none" stroke-width="0" stroke-linecap="butt"/><path d="M314.43797,263.93278l123.01751,-82.28573l54.9052,82.38124l-141.83002,91.94697z" fill="url(#color-9)" stroke="none" stroke-width="0" stroke-linecap="butt"/><path d="M386.04112,216.89274l43.80938,-30.72438l47.9381,75.62035l-47.68542,32.13022z" fill="url(#color-10)" stroke="none" stroke-width="0" stroke-linecap="butt"/><path d="M321.12863,270.87993l69.10339,-47.76737l35.25675,63.06316l-75.46736,50.84956z" fill="url(#color-11)" stroke="none" stroke-width="0" stroke-linecap="butt"/><path d="M299.11864,250.7414c0,0 17.84291,-8.94866 28.21866,-11.42355c8.73093,-2.08255 31.61593,-3.57052 31.61593,-3.57052l-43.12421,29.0569z" fill="url(#color-12)" stroke="none" stroke-width="0" stroke-linecap="butt"/><path d="M268.88886,286.17044c-6.53341,-17.0944 -10.41229,-41.98691 -6.99608,-47.72684c2.17588,-3.65591 23.64077,4.44607 33.22565,8.89478c7.94194,3.68615 20.28707,15.94247 20.28707,15.94247l42.23047,99.36215c0,0 -17.67735,-5.99585 -27.12668,-10.07468c-9.80806,-4.23367 -25.97957,-9.11744 -30.68559,-14.8801c-4.67276,-5.72192 -24.85768,-35.61715 -30.93484,-51.51779z" fill="url(#color-13)" stroke="none" stroke-width="0" stroke-linecap="butt"/><path d="M449.82493,187.1795l31.23445,-21.64854l44.65857,57.33116l-34.41643,23.18963z" fill="url(#color-14)" stroke="none" stroke-width="0" stroke-linecap="butt"/><path d="M335.68806,355.12375c0,0 20.54692,-17.4247 32.57751,-22.08748c10.09842,-3.91392 30.79164,-7.34635 30.79164,-7.34635l-43.07987,38.07066z" fill="url(#color-15)" stroke="none" stroke-width="0" stroke-linecap="butt"/></g><path d="M-49.23151,232.78623l12.151,-113.89634l75.52708,8.05767l-12.151,113.89634z" fill="url(#color-16)" stroke="#ed6b00" stroke-width="0" stroke-linecap="butt"/><path d="M-4.99599,136.35582l2.68449,-17.17483l19.19321,2.99987l-2.68449,17.17483z" fill="url(#color-17)" stroke="#000000" stroke-width="0" stroke-linecap="butt"/><g><path d="M27.54692,294.27225c0,0 -19.89735,-62.36576 -24.82171,-72.63812c-1.61026,-3.35884 -9.28888,-1.7343 -9.28888,-1.7343c0,0 -9.98329,-8.6664 -1.03366,-10.82858c7.56394,-1.82738 25.52515,-0.46933 25.52515,-0.46933l29.35743,80.90156z" data-paper-data="{&quot;index&quot;:null}" fill="#4a433c" stroke="#000000" stroke-width="0" stroke-linecap="butt"/><path d="M65.66217,303.34905c-1.46204,0.35339 -6.5134,1.60917 -11.64242,2.6381c-3.11869,0.62544 -5.05934,-0.39037 -7.44666,-0.18654c-3.0052,0.25638 -7.11628,2.29472 -9.32484,2.32844c-4.06993,0.06208 -6.32017,-0.50361 -6.32017,-0.50361c0,0 -1.27468,-2.36884 -1.64918,-3.74103c-0.5046,-1.84895 -1.1064,-6.35507 -1.1064,-6.35507c0,0 14.56483,-3.83102 20.39367,-4.71618c3.44904,-0.52372 10.84441,-0.93162 10.84441,-0.93162c0,0 3.96725,0.64845 4.74852,1.57505c0.95734,1.13456 3.33821,4.38438 3.33821,4.38438c0,0 0.20475,5.01489 -1.83463,5.50762z" data-paper-data="{&quot;index&quot;:null}" fill="#140d0d" stroke="#000000" stroke-width="0" stroke-linecap="butt"/><path d="M63.45997,297.16028c-0.6122,0.14789 2.68649,3.53168 -5.66278,4.84783c-7.8848,1.24309 -7.55563,-1.27625 -10.32787,-0.81689c-5.79631,0.96048 -6.02751,3.00943 -8.58435,3.22789c-0.89055,0.07605 -1.33263,0.02308 -4.97947,-1.32991c-2.50815,-0.93037 -2.68519,-3.92264 -4.53869,-5.1144c-2.70752,-1.74071 -3.11765,-4.16949 -3.11765,-4.16949l-2.00434,-7.4713c0,0 2.51432,5.15307 5.07489,6.68625c2.29086,1.372 5.70314,-1.42691 6.89605,-1.71547c2.0888,-0.50522 -3.64642,-7.64979 -1.63824,-8.08724c1.07973,-0.2354 9.04224,-2.79563 9.04224,-2.79563c0,0 2.43658,8.75612 3.02304,8.66692c3.44904,-0.52372 11.74157,-1.14817 11.74157,-1.14817c0,0 3.96725,0.64845 4.74847,1.57482c0.95734,1.13456 3.31837,6.92146 3.31837,6.92146c0,0 -0.95135,0.2301 -2.9907,0.72265z" data-paper-data="{&quot;index&quot;:null}" fill="#1f261f" stroke="#000000" stroke-width="0" stroke-linecap="butt"/><path d="M49.21391,290.08219l-5.92931,4.28126" fill="none" stroke="#ffb5b5" stroke-width="0.5" stroke-linecap="round"/><path d="M48.28671,294.10483l5.41361,-5.10612" fill="none" stroke="#bffdff" stroke-width="0.5" stroke-linecap="round"/><path d="M56.53613,288.94667l-2.72167,4.45556" fill="none" stroke="#eaffc1" stroke-width="0.5" stroke-linecap="round"/><path d="M43.22097,283.61723l-5.23871,1.89866" fill="none" stroke="#8d967b" stroke-width="0.5" stroke-linecap="round"/><path d="M39.68397,287.32051l4.5683,-2.05336" fill="none" stroke="#767796" stroke-width="0.5" stroke-linecap="round"/></g><g data-paper-data="{&quot;index&quot;:null}" stroke="#000000" stroke-width="0" stroke-linecap="butt"><path d="M-72.98029,182.09579c0,0 3.48962,-4.92184 7.45045,-13.87704c2.37895,-5.37877 5.79516,-14.38226 6.91223,-16.31451c2.49207,-4.30986 2.14636,-7.29065 3.87957,-10.00137c1.41604,-2.21459 7.98149,-13.89282 15.98342,-16.06555c16.06407,-4.36182 22.50105,10.34078 16.05858,14.96503c-5.17452,7.50013 -9.61328,-0.08555 -13.0709,2.61429c-4.79174,3.74162 -7.61657,13.76973 -9.45893,16.48152c-1.34023,1.9726 -4.31254,8.65676 -5.595,10.59051c-5.33305,8.04108 -6.90354,16.22577 -6.90354,16.22577z" fill="#b8bda6"/><path d="M-77.60776,193.5487c2.04019,-4.88714 4.51353,-11.15177 4.51353,-11.15177c0,0 5.66949,-0.25516 8.1792,0.49822c2.57765,0.7734 7.08777,4.08343 7.08777,4.08343c0,0 -1.14208,3.02135 -0.63468,5.55762c0.47846,2.39265 1.60003,9.16631 -2.17869,7.79187c-1.44464,-0.52547 0.21326,-2.47319 -0.21353,-2.27782c-0.04722,0.02158 -2.90968,10.0939 -5.68835,8.38522c-3.07482,-1.89077 0.68181,-7.51855 0.41672,-7.17974c-2.45309,3.13622 -2.43508,7.13166 -4.85443,5.61649c-4.6228,-1.43741 3.06416,-8.42634 1.90935,-7.61143c-2.15709,1.52266 -3.48647,6.01963 -6.34289,5.07658c-5.38151,-1.55316 3.08173,-5.93036 1.63018,-5.23643c-2.74192,1.31062 -3.27706,3.55035 -6.38627,1.61862c-1.08782,-0.41376 1.51238,-2.65632 2.5621,-5.17086z" data-paper-data="{&quot;index&quot;:null}" fill="#786274"/></g><g data-paper-data="{&quot;index&quot;:null}" stroke="#000000" stroke-width="0" stroke-linecap="butt"><path d="M44.29768,222.99738c0,0 1.53845,-7.16639 -0.01889,-15.50834c-0.3745,-2.00611 -1.07426,-8.61515 -1.48215,-10.67252c-0.96528,-4.86911 -2.50077,-9.58721 -3.00881,-12.58509c-1.09274,-6.44776 -4.33853,-15.12042 -4.33853,-15.12042c0,0 -13.8902,-33.18511 0.57299,-35.15191c10.38137,-5.01203 11.52614,9.99491 14.92952,23.99837c2.85429,11.7442 4.66425,23.43998 4.90413,24.85563c0.4727,2.78994 0.57853,7.95966 1.11661,12.30499c0.24106,1.9481 -0.084,10.41118 -0.0045,15.58317c0.1325,8.61096 1.2682,13.79429 1.2682,13.79429z" fill="#b8bda6"/><path d="M58.65953,235.77342c-0.61769,-0.05762 -0.0576,8.95469 -2.6813,8.87089c-1.29051,-0.04119 -0.0802,-5.86549 -1.85033,-7.86812c-0.93707,-1.06027 1.02311,10.29124 -2.36443,9.13393c-1.16291,-0.39727 -0.28253,-8.64909 -1.50638,-10.6226c-0.65522,-1.05631 0.1374,12.5599 -2.13423,11.89645c-1.34849,-0.39398 -0.02585,-7.91063 -0.93537,-11.29229c-0.44331,-1.64748 -1.12626,9.27659 -2.76066,8.49746c-1.00032,-0.47691 -0.9834,-11.16272 -1.09388,-11.2835c-0.62061,-0.67908 -2.79518,5.79398 -3.57776,4.23301c-1.44236,-2.87659 1.34098,-6.30268 3.53399,-9.51911c1.28165,-1.87943 1.39421,-4.71793 1.39421,-4.71793c0,0 4.78834,-1.13168 7.14102,-0.87289c2.2908,0.25164 6.79381,2.40481 6.79381,2.40481c0,0 1.34946,11.26186 0.04137,11.13958z" data-paper-data="{&quot;index&quot;:null}" fill="#786274"/></g><g><path d="M-31.95264,299.60743l2.82466,-86.01695c0,0 16.65492,-6.86067 24.41252,-7.46863c9.17916,-0.71958 2.3753,10.61554 2.3753,10.61554c0,0 -7.80403,0.83636 -8.29335,4.52917c-1.49617,11.29274 -1.07485,76.75429 -1.07485,76.75429z" fill="#413a4a" stroke="#000000" stroke-width="0" stroke-linecap="butt"/><path d="M8.0474,309.34199c0,0 -0.59099,4.98435 -2.6827,5.14819c-1.49941,0.11764 -6.68562,0.55875 -11.91343,0.76348c-3.17816,0.12452 -4.93413,-1.18546 -7.32333,-1.36195c-3.00819,-0.22191 -7.38946,1.14023 -9.57572,0.82421c-4.0284,-0.58218 -6.16077,-1.49672 -6.16077,-1.49672c0,0 -0.88408,-2.54038 -1.03704,-3.9547c-0.20607,-1.90569 -0.08732,-6.44986 -0.08732,-6.44986c0,0 14.98719,-1.47916 20.88293,-1.43144c3.48864,0.02832 10.85505,0.79507 10.85505,0.79507c0,0 3.81453,1.2677 4.43963,2.30626c0.76558,1.27177 2.60277,4.85745 2.60277,4.85745z" data-paper-data="{&quot;index&quot;:null}" fill="#12140d" stroke="#000000" stroke-width="0" stroke-linecap="butt"/><path d="M7.23627,307.79045c0,0 -0.97565,0.07657 -3.06738,0.2406c-0.62806,0.04941 2.09434,3.91227 -6.3586,3.89127c-7.98238,-0.01982 -7.25871,-2.45536 -10.06859,-2.44003c-5.87501,0.03182 -6.42775,2.01812 -8.98665,1.82963c-0.89128,-0.06566 -1.31952,-0.18839 -4.70667,-2.10087c-2.32925,-1.31528 -2.03104,-4.29801 -3.67283,-5.76778c-2.39798,-2.14722 -2.41912,-4.61009 -2.41912,-4.61009l-0.79756,-7.69417c0,0 1.66766,5.48586 3.9534,7.405c2.04511,1.71705 5.85685,-0.50681 7.08034,-0.60318c2.14232,-0.16845 -2.39041,-8.13005 -0.33857,-8.24455c1.1034,-0.06155 9.37067,-1.33026 9.37067,-1.33026c0,0 1.02099,9.03114 1.61437,9.03601c3.48856,0.02815 11.77513,0.72309 11.77513,0.72309c0,0 3.81453,1.2677 4.43963,2.30626c0.76558,1.27177 2.18169,7.35931 2.18169,7.35931z" data-paper-data="{&quot;index&quot;:null}" fill="#1e1e26" stroke="#000000" stroke-width="0" stroke-linecap="butt"/><path d="M-15.30994,302.07865l6.53164,-3.28954" fill="none" stroke="#c1ffce" stroke-width="0.5" stroke-linecap="round"/><path d="M-10.3302,302.61428l6.15286,-4.18567" fill="none" stroke="#eaffc1" stroke-width="0.5" stroke-linecap="round"/><path d="M-1.36863,298.82552l-3.39223,3.96931" fill="none" stroke="#ffb5b5" stroke-width="0.5" stroke-linecap="round"/><path d="M-19.1464,292.50386l5.47289,-1.04632" fill="none" stroke="#7d967f" stroke-width="0.5" stroke-linecap="round"/><path d="M-12.91593,293.24983l-4.83541,1.30484" fill="none" stroke="#966262" stroke-width="0.5" stroke-linecap="round"/></g><path d="M-30.68442,212.15285c0,0 2.35845,-13.91471 2.92911,-27.62747c0.3878,-9.31766 -1.10412,-17.98012 -0.62869,-24.30331c0.89224,-11.86824 4.1365,-33.70642 4.1365,-33.70642c0,0 9.48227,-0.18263 13.8221,1.35761c5.52463,1.96051 16.63701,9.45153 16.63701,9.45153c0,0 9.99764,-4.17333 14.95164,-4.55259c5.22723,-0.39994 15.636,2.21203 15.636,2.21203c0,0 -3.38698,23.14093 -4.98261,31.7293c-1.41189,7.59887 -4.45604,15.69441 -6.76494,26.91377c-2.37995,11.56332 -4.0048,26.14047 -4.0048,26.14047c0,0 -6.66075,-2.89456 -13.71156,-4.0475c-3.20204,-0.52359 -4.85275,1.90418 -7.94225,1.88326c-2.46948,-0.01645 -6.4116,-2.45959 -8.72348,-2.87419c-1.74749,-0.31348 -4.95153,-2.04614 -6.19239,-2.22872c-2.50523,-0.3688 -4.36234,1.61148 -7.32758,1.60805c-3.44432,-0.00364 -7.83359,-1.95618 -7.83359,-1.95618z" fill="#d1b0b0" stroke="#292e32" stroke-width="0" stroke-linecap="butt"/><g stroke="none" stroke-width="0" stroke-linecap="butt"><path d="M10.27765,158.70181l1.72466,-14.67034l19.07265,3.57782l-1.81794,13.1044z" fill="#f200ff"/><path d="M12.00228,144.03147l10.00907,1.87758c0.6337,1.7121 1.54782,3.30027 2.69372,4.70106c-0.89078,-0.27918 -1.81768,-0.48579 -2.77487,-0.61217c-3.96255,-0.52313 -7.78104,0.41635 -10.91166,2.40156z" fill="#eeff00"/><path d="M21.49499,159.89089c0.95747,-5.41703 -0.95955,-11.08528 -4.8229,-14.98344l12.50933,2.3466c-1.66856,2.19323 -2.8058,4.83778 -3.19233,7.76552c-0.24264,1.83782 -0.17063,3.64463 0.17437,5.36619z" fill="#00ff5f"/><path d="M26.30012,160.40026l-13.56557,-1.43798c3.72043,-0.77108 7.03595,-2.81846 9.39581,-5.71979c1.52639,1.89856 3.47503,3.46063 5.72737,4.53151c-0.59556,0.81839 -1.1184,1.69656 -1.55762,2.62623z" fill="#004fff"/><path d="M10.27761,158.70183l1.72465,-14.67038l4.72905,0.88713c-1.66236,2.19028 -2.79529,4.82946 -3.18094,7.75055c-0.29289,2.21846 -0.12731,4.39179 0.42353,6.42451z" fill="#ff0000"/><path d="M30.34136,152.89721l-1.08437,7.81649l-7.05781,-0.74815c0.5845,-1.01277 1.0653,-2.09796 1.42614,-3.24303c2.52601,-0.72561 4.82671,-2.04827 6.71604,-3.82529z" fill="#00efff"/><path d="M31.07495,147.60926l-1.81796,13.10441l-0.47614,-0.05047c0.62923,-5.80132 -1.86321,-11.25428 -6.15908,-14.63965z" fill="#9c00ff"/></g><g data-paper-data="{&quot;index&quot;:null}" stroke-linecap="butt"><path d="M41.77886,99.78302c-5.76895,18.74835 -24.35984,29.66564 -41.52445,24.38421c-17.16475,-5.28138 -26.40301,-24.76134 -20.63399,-43.51004c5.76897,-18.74836 24.35984,-29.66564 41.52459,-24.38417c17.16475,5.28138 26.40301,24.76134 20.63399,43.51004z" fill="url(#color-18)" stroke="none" stroke-width="0"/><path d="M1.34771,61.05581c-0.42347,-0.08925 -1.51752,-0.30183 -2.72394,-0.45633c-1.42041,0.11368 -3.05482,0.16903 -4.35746,0.37877c-1.3671,1.94923 0.56037,4.96931 -3.43349,5.51457c-6.81179,0.92924 -2.64147,-6.22531 0.08906,-8.03455c3.90728,-1.73534 8.54843,-0.65973 12.68894,-0.20775c5.70322,0.62275 11.4409,0.6443 16.86488,1.95739c0.26454,-0.14757 0.58129,-0.20348 0.90068,-0.13589l1.46092,0.30931c0.77437,0.03199 1.61311,0.07503 2.48787,0.14133c2.32965,-0.01029 4.99352,0.43123 7.44518,0.94045c1.23909,0.13006 2.36722,0.35936 3.24748,0.71935c0.67922,0.1552 1.31127,0.29922 1.87835,0.41891l1.54001,0.3258c0.70137,0.14849 1.1496,0.83704 1.00133,1.53879c-0.13223,0.62433 -0.69232,1.04806 -1.30832,1.02935l-0.87244,-0.00937c0.26059,0.40367 0.47579,0.83985 0.6387,1.31062l0.65671,-0.11443l0.28509,1.64137c0.03289,0.16675 0.03364,0.34292 -0.0037,0.51991c-0.14847,0.70137 -0.83704,1.1496 -1.53879,1.00133c-0.21322,-0.045 -0.40368,-0.14017 -0.56026,-0.27044l-1.08118,-0.86042l0.0254,-0.03176l-0.11322,-0.04476c-0.71102,-0.81281 -1.47854,-1.49706 -2.28567,-2.04852c-1.34188,-0.46606 -2.72333,-1.05372 -4.14165,-1.62002c-2.59086,-0.33387 -5.2876,0.5033 -7.67827,2.6045c0,0 -0.97698,0.8547 -1.83182,-0.12214c-0.8547,-0.97698 0.12214,-1.83182 0.12214,-1.83182c0.20862,-0.18174 0.4199,-0.35626 0.63352,-0.52275l-0.75617,0.00764c-0.10164,0.00301 -0.20588,-0.00575 -0.30991,-0.02762c-0.70137,-0.14849 -1.1496,-0.83704 -1.00133,-1.53879c0.0751,-0.35507 0.28849,-0.64517 0.57219,-0.82598c-0.59488,-0.18181 -1.16611,-0.32197 -1.67979,-0.35111c-3.58804,-0.20329 -8.79534,-1.5064 -13.85643,-2.25152c-0.1527,0.59322 -0.69781,0.99146 -1.29533,0.97313l-1.58126,-0.0174l0.00059,-0.05114l-0.01961,-0.00087z" fill="url(#color-19)" stroke="none" stroke-width="0.5"/><path d="M40.73637,63.27058c6.78158,1.33233 6.69448,1.41338 5.84993,6.01207c-0.8444,4.59857 -4.40484,7.56935 -7.95196,6.63531c-3.5471,-0.93427 -5.73782,-5.42002 -4.89326,-10.01868c0.84438,-4.59858 0.63609,-3.87803 6.99549,-2.62882z" data-paper-data="{&quot;index&quot;:null}" fill="url(#color-20)" stroke="#000000" stroke-width="0"/><path d="M22.68173,64.83239c-0.61882,5.0963 -5.7828,8.66148 -11.53403,7.96267c-5.75119,-0.69832 -9.91186,-5.3959 -9.29284,-10.49197c0.61882,-5.0963 0.52052,-5.22002 11.3286,-3.42032c10.13511,1.68745 10.11678,0.85324 9.4981,5.94956z" fill="url(#color-21)" stroke="#000000" stroke-width="0"/><path d="M19.29515,116.05042c-27.30504,-1.41979 -28.31501,-17.1224 -27.35241,-26.57555c0.96275,-9.45301 17.8319,-15.70973 31.56339,-14.31141c13.73149,1.39833 25.52564,11.96506 24.56294,21.41805c0,0 1.40442,21.32348 -28.77392,19.46871z" data-paper-data="{&quot;index&quot;:null}" fill="url(#color-22)" stroke="#ed6b00" stroke-width="0"/><path d="M19.29516,116.05044c-21.75877,-1.13139 -26.81982,-11.33258 -27.49099,-20.21366c2.45974,4.82949 7.2611,8.33604 13.05607,8.88765c9.00808,0.85749 17.0057,-5.74985 17.86322,-14.75793c0.5714,-6.00258 -2.1718,-11.55648 -6.73122,-14.84809c2.53248,-0.21025 5.07278,-0.20361 7.51389,0.045c4.18548,0.42623 8.19099,1.70427 11.71006,3.54296c1.48631,5.68274 5.97211,10.2566 11.81641,11.73543c0.86192,2.03008 1.24307,4.1105 1.03643,6.13966c0,0 0.05688,0.8634 -0.09819,2.22766c-1.43229,-0.57804 -2.97105,-0.96168 -4.58709,-1.1155c-9.00808,-0.85749 -17.0057,5.74985 -17.86322,14.75793c-0.11794,1.23879 -0.09468,2.45842 0.05658,3.64305c-1.92502,0.10353 -4.01432,0.09502 -6.28199,-0.04438z" data-paper-data="{&quot;index&quot;:null}" fill="url(#color-23)" stroke="#ed6b00" stroke-width="0"/><path d="M23.50612,75.16347c4.67641,0.4762 9.12818,2.01581 12.92782,4.21267c-0.85652,1.65683 -1.4413,3.48632 -1.6903,5.4355c-2.59761,-4.25048 -7.09441,-7.2686 -12.43506,-7.77699c-9.00807,-0.85749 -17.00569,5.74987 -17.86322,14.75793c-0.57485,6.03911 2.20533,11.6241 6.81472,14.90793c-2.60387,1.59276 -4.7448,3.8984 -6.1289,6.67417c-2.72432,-1.04728 -4.91701,-2.3438 -6.67552,-3.80733c2.42118,-2.56029 4.03807,-5.91738 4.39784,-9.69709c0.63708,-6.6924 -2.8461,-12.82712 -8.37286,-15.8905c5.37682,-6.24967 18.17978,-9.92069 29.02541,-8.81625z" data-paper-data="{&quot;index&quot;:null}" fill="url(#color-24)" stroke="#ed6b00" stroke-width="0"/><path d="M37.00719,95.43085c2.20328,3.60528 5.77294,6.32388 10.06493,7.37644c-1.37579,4.03193 -4.60495,8.99806 -12.13898,11.59102c-1.18083,-2.83582 -3.14102,-5.28999 -5.63798,-7.06887c4.1054,-2.51122 7.06003,-6.79461 7.71199,-11.89862z" data-paper-data="{&quot;index&quot;:null}" fill="url(#color-25)" stroke="#ed6b00" stroke-width="0"/><path d="M17.11217,103.74023c0.07662,-0.23633 -0.55438,-1.4402 -0.69973,-1.8108c-1.77298,-4.52166 -2.95282,-9.31288 -5.25181,-13.59114c-0.21716,-0.40417 -1.88455,-0.31373 -2.62859,-0.43434c-4.55642,-0.73855 -9.05003,-2.07572 -13.66234,-2.25759c-0.59055,-0.02329 -1.20597,0.12057 -1.83527,0.40121c1.73804,-3.18029 5.33358,-5.84295 9.81416,-7.76035c2.57902,4.34906 7.12906,7.44861 12.5479,7.96442c6.99481,0.66587 13.38039,-3.16931 16.28675,-9.13442c6.07196,2.3142 11.1534,6.29866 13.99437,10.76554c-2.2113,-1.51076 -4.82484,-2.49953 -7.67946,-2.77126c-9.00808,-0.85749 -17.0057,5.74985 -17.86322,14.75793c-0.21273,2.23479 0.03397,4.40744 0.66281,6.42426c-2.39722,0.56977 -4.60745,1.67096 -6.48504,3.18318c1.33168,-2.20133 2.31725,-4.24957 2.79947,-5.73664z" data-paper-data="{&quot;index&quot;:null}" fill="url(#color-26)" stroke="#ed6b00" stroke-width="0"/><path d="M19.29515,116.05047c-27.30506,-1.41978 -28.31501,-17.1224 -27.35241,-26.57555c0.04185,-0.4109 0.11375,-0.81576 0.21415,-1.21428c-0.20653,3.03914 0.57489,6.35027 1.47389,8.73878c0.09292,0.24687 0.19199,0.49326 0.29706,0.73915c0.9987,6.8226 6.24934,12.42616 13.19761,13.71898c5.10402,2.92439 10.83334,4.58458 15.90985,4.04915c8.75494,-0.92344 16.57586,-1.23404 17.86322,-14.75793c0.5216,-5.47916 -3.2912,-10.80492 -6.79673,-15.04809c-2.04349,-2.47346 -6.57644,-1.03903 -9.1683,-2.93007c-1.08927,-3.12516 -3.10505,-5.84622 -5.74771,-7.80049c1.45951,-0.01346 2.9066,0.04935 4.32037,0.19332c5.08136,0.51744 9.89738,2.2904 13.89989,4.79784c-0.03182,0.23073 -0.0589,0.46317 -0.08119,0.69723c-0.72389,7.60426 3.87173,14.48841 10.74049,16.96527c-0.04554,1.03605 -0.22509,2.75402 -0.84715,4.73749c-4.43513,1.97018 -7.88443,5.86547 -9.18551,10.72557c-4.22699,2.1659 -10.22612,3.48649 -18.73749,2.9634z" data-paper-data="{&quot;index&quot;:null}" fill="url(#color-27)" stroke="#ed6b00" stroke-width="0"/></g><path d="M-11.98828,369.0508l1,-377l160.91797,-0.53253l0.08203,9.53253c0,0 -39.46962,6.29142 -75.5582,25.97667c-26.80308,14.62028 -51.53474,44.21584 -49.36246,61.1415c8.78971,68.48644 35.92067,279.88184 35.92067,279.88184z" fill="url(#color-28)" stroke="none" stroke-width="0" stroke-linecap="butt"/></g></g></svg>