<svg version="1.1" xmlns="http://www.w3.org/2000/svg" xmlns:xlink="http://www.w3.org/1999/xlink" width="217.35317" height="118.17152" viewBox="0,0,217.35317,118.17152"><defs><radialGradient cx="137.65675" cy="145.55873" r="53.5" gradientUnits="userSpaceOnUse" id="color-1"><stop offset="0" stop-color="#fbff00"/><stop offset="1" stop-color="#e7c800"/></radialGradient><radialGradient cx="258.84878" cy="141.55555" r="105.00199" gradientUnits="userSpaceOnUse" id="color-2"><stop offset="0" stop-color="#b5adc7"/><stop offset="1" stop-color="#736e7d"/></radialGradient><radialGradient cx="283.94402" cy="226.33651" r="97.66667" gradientUnits="userSpaceOnUse" id="color-3"><stop offset="0" stop-color="#7c20fa"/><stop offset="1" stop-color="#5c00dc"/></radialGradient><linearGradient x1="333.18522" y1="237.00244" x2="137.84642" y2="237.00244" gradientUnits="userSpaceOnUse" id="color-4"><stop offset="0" stop-color="#212121"/><stop offset="1" stop-color="#161616"/></linearGradient><radialGradient cx="274.51545" cy="172.92129" r="40" gradientUnits="userSpaceOnUse" id="color-5"><stop offset="0" stop-color="#1d1d1d"/><stop offset="1" stop-color="#0c0c0c"/></radialGradient><radialGradient cx="343.18212" cy="197.55555" r="31.7013" gradientUnits="userSpaceOnUse" id="color-6"><stop offset="0" stop-color="#757575"/><stop offset="1" stop-color="#333333"/></radialGradient><radialGradient cx="207.01156" cy="166.55555" r="59.26355" gradientUnits="userSpaceOnUse" id="color-7"><stop offset="0" stop-color="#b0b9ff"/><stop offset="1" stop-color="#6600ff"/></radialGradient><radialGradient cx="258.84878" cy="141.55556" r="105.00199" gradientUnits="userSpaceOnUse" id="color-8"><stop offset="0" stop-color="#9c93ab"/><stop offset="1" stop-color="#605966"/></radialGradient><radialGradient cx="308.18212" cy="154.88889" r="25.60099" gradientUnits="userSpaceOnUse" id="color-9"><stop offset="0" stop-color="#afb7ff"/><stop offset="1" stop-color="#6600ff"/></radialGradient></defs><g transform="translate(-131.32342,-120.91424)"><g data-paper-data="{&quot;isPaintingLayer&quot;:true}" fill-rule="nonzero" stroke-linecap="butt" stroke-linejoin="miter" stroke-miterlimit="10" stroke-dasharray="" stroke-dashoffset="0" style="mix-blend-mode: normal"><path d="M131.32342,232.55873v-107h9.33333v107z" data-paper-data="{&quot;index&quot;:null}" fill="url(#color-1)" stroke="#000000" stroke-width="0"/><path d="M138.18049,235.75728v-114.33333c0,0 63.43819,-2.01042 102.41147,1.95415c9.47568,0.96392 23.15048,5.41732 27.58853,6.71251c21.1659,6.17699 77,43.84839 77.66667,79.72222c0.29902,16.09019 -14,25.94445 -14,25.94445z" data-paper-data="{&quot;index&quot;:null}" fill="url(#color-2)" stroke="#000000" stroke-width="0"/><path d="M138.27736,229.33651v-3.33333h195.33333v3.33333z" data-paper-data="{&quot;index&quot;:null}" fill="url(#color-3)" stroke="#000000" stroke-width="0"/><path d="M137.84644,239.08576v-4.16666h195.33878v4.16666z" data-paper-data="{&quot;index&quot;:null}" fill="url(#color-4)" stroke="#000000" stroke-width="0"/><path d="M244.51545,235v-76.66667h37v76.66667z" data-paper-data="{&quot;index&quot;:null}" fill="url(#color-5)" stroke="#000000" stroke-width="0"/><path d="M329.84879,171.55555c0,0 22.40433,23.82513 18.33333,41.16667c-10.11849,29.81662 -21.33333,22.16666 -21.33333,22.16666c0,0 9.3424,-9.35799 10.33333,-27.83333c1.04397,-19.46432 -7.33333,-35.5 -7.33333,-35.5z" data-paper-data="{&quot;index&quot;:null}" fill="url(#color-6)" stroke="#000000" stroke-width="0"/><path d="M159.84878,199.22221c-7.9197,-0.39106 -15.33333,-4.66666 -15.33333,-4.66666c0,0 -2.33976,-14.29634 -2.66666,-30.33333c-0.17534,-8.60149 2.66666,-20.33334 2.66666,-20.33334c0,0 16.80538,-2.76643 32.42437,-1.26922c17.96836,1.72242 38.30128,4.96614 50.14021,8.90805c6.41617,2.13634 10.10209,6.36117 10.10209,6.36117c0,0 2.83181,6.66727 2.66666,19c-0.16805,12.54921 -2.66666,17.66667 -2.66666,17.66667c0,0 -23.32899,7.33332 -77.33334,4.66666z" data-paper-data="{&quot;index&quot;:null}" fill="url(#color-7)" stroke-opacity="0.72673" stroke="#320080" stroke-width="2"/><path d="M237.08257,130.73153c-26.38419,-2.3764 -98.90208,0.02576 -98.90208,0.02576v-9.33333c0,0 63.43819,-2.01042 102.41147,1.95415c9.47568,0.96392 23.15048,5.41732 27.58853,6.71251c21.1659,6.17699 17,13.66667 17,13.66667c0,0 -28.26872,-11.23976 -48.09792,-13.02576z" data-paper-data="{&quot;index&quot;:null}" fill="url(#color-8)" stroke="#000000" stroke-width="0"/><path d="M280.74778,135.5713c0,0 14.87544,5.42872 28.83038,17.29414c13.95494,11.86543 22.37161,22.67437 22.37161,22.67437c0,0 -15.5421,-2.42872 -29.49704,-14.29414c-13.95495,-11.86543 -21.70495,-25.67437 -21.70495,-25.67437z" data-paper-data="{&quot;index&quot;:null}" fill="url(#color-9)" stroke-opacity="0.72673" stroke="#320080" stroke-width="2"/></g></g></svg>