<svg version="1.1" xmlns="http://www.w3.org/2000/svg" xmlns:xlink="http://www.w3.org/1999/xlink" width="869.40751" height="687.28555" viewBox="0,0,869.40751,687.28555"><g transform="translate(195.38318,148.19347)"><g data-paper-data="{&quot;isPaintingLayer&quot;:true}" fill-rule="nonzero" stroke="none" stroke-linecap="butt" stroke-linejoin="miter" stroke-miterlimit="10" stroke-dasharray="" stroke-dashoffset="0" style="mix-blend-mode: normal"><path d="M-137.1748,474.64709c0,0 -58.20838,-194.3514 -58.20838,-291.02136c0,-89.62057 58.20838,-269.45307 58.20838,-269.45307c0,0 238.93106,-62.36612 363.0355,-62.36612c126.16558,0 387.87639,62.36612 387.87639,62.36612c0,0 60.28724,192.39182 60.28724,286.08405c0,93.12919 -60.28724,274.39039 -60.28724,274.39039c0,0 -252.33884,64.44499 -377.48203,64.44499c-125.16078,0 -373.42986,-64.44499 -373.42986,-64.44499z" fill="#000000" stroke-width="NaN"/><g fill-opacity="0.17162" fill="#ffffff" stroke-width="0.5"><path d="M-50.21458,23.21297c0,-0.61501 0.49858,-1.11359 1.11359,-1.11359c0.61501,0 1.11359,0.49858 1.11359,1.11359c0,0.61502 -0.49858,1.11359 -1.11359,1.11359c-0.61501,0 -1.11359,-0.49858 -1.11359,-1.11359z"/><path d="M112.37054,-30.23967c0,1.11359 -1.11359,1.11359 -1.11359,1.11359h-2.2272c0,0 -1.11359,0 -1.11359,-1.11359c0,-1.11359 1.11359,-1.11359 1.11359,-1.11359h2.2272c0,0 1.11359,0 1.11359,1.11359z"/><path d="M243.77496,67.75686c0,-0.61501 0.49858,-1.11359 1.1136,-1.11359c0.61501,0 1.11359,0.49858 1.11359,1.11359c0,0.61501 -0.49857,1.11359 -1.11359,1.11359c-0.61501,0 -1.1136,-0.49858 -1.1136,-1.11359z"/><path d="M67.82667,125.66387c0,-0.61501 0.49858,-1.11359 1.11359,-1.11359c0.61501,0 1.11359,0.49857 1.11359,1.11359c0,0.61501 -0.49858,1.11359 -1.11359,1.11359c-0.61501,0 -1.11359,-0.49858 -1.11359,-1.11359z"/><path d="M-101.44003,241.47795c0,-0.61501 0.49858,-1.11359 1.1136,-1.11359c0.61501,0 1.11359,0.49858 1.11359,1.11359c0,0.61501 -0.49857,1.11359 -1.11359,1.11359c-0.61501,0 -1.1136,-0.49857 -1.1136,-1.11359z"/><path d="M210.36706,343.92883c0,-0.61502 0.49858,-1.11359 1.1136,-1.11359c0.61501,0 1.11359,0.49857 1.11359,1.11359c0,0.61502 -0.49858,1.11359 -1.11359,1.11359c-0.61501,0 -1.1136,-0.49858 -1.1136,-1.11359z"/><path d="M-45.76018,408.51745c0,-0.61502 0.49858,-1.11359 1.11359,-1.11359c0.61501,0 1.1136,0.49858 1.1136,1.11359c0,0.61502 -0.49858,1.11359 -1.1136,1.11359c-0.61501,0 -1.11359,-0.49857 -1.11359,-1.11359z"/><path d="M270.50128,515.4227c0,-0.61502 0.49858,-1.11359 1.11359,-1.11359c0.61502,0 1.11359,0.49857 1.11359,1.11359c0,0.61502 -0.49858,1.11359 -1.11359,1.11359c-0.61502,0 -1.11359,-0.49858 -1.11359,-1.11359z"/><path d="M506.58381,372.88236c0,-0.61502 0.49857,-1.11359 1.11359,-1.11359c0.61502,0 1.11359,0.49857 1.11359,1.11359c0,0.61502 -0.49858,1.1136 -1.11359,1.1136c-0.61502,0 -1.11359,-0.49858 -1.11359,-1.1136z"/><path d="M379.63377,201.38846c0,-0.61501 0.49857,-1.1136 1.11359,-1.1136c0.61502,0 1.11359,0.49858 1.11359,1.1136c0,0.61501 -0.49858,1.11359 -1.11359,1.11359c-0.61502,0 -1.11359,-0.49858 -1.11359,-1.11359z"/><path d="M568.94521,98.93754c0,-0.61501 0.49858,-1.11359 1.11359,-1.11359c0.61501,0 1.11359,0.49858 1.11359,1.11359c0,0.61501 -0.49858,1.11359 -1.11359,1.11359c-0.61501,0 -1.11359,-0.49858 -1.11359,-1.11359z"/><path d="M337.3171,-81.46513c0,-0.61501 0.49857,-1.11359 1.11359,-1.11359c0.61502,0 1.11359,0.49858 1.11359,1.11359c0,0.61501 -0.49857,1.11359 -1.11359,1.11359c-0.61502,0 -1.11359,-0.49858 -1.11359,-1.11359z"/><path d="M199.2311,-134.91777c0,-0.61501 0.49858,-1.1136 1.11359,-1.1136c0.61501,0 1.11359,0.49858 1.11359,1.1136c0,0.61501 -0.49858,1.11359 -1.11359,1.11359c-0.61501,0 -1.11359,-0.49857 -1.11359,-1.11359z"/><path d="M-108.1216,-79.23796c0,-0.61501 0.49858,-1.11359 1.11359,-1.11359c0.61501,0 1.1136,0.49858 1.1136,1.11359c0,0.61501 -0.49858,1.1136 -1.1136,1.1136c-0.61501,0 -1.11359,-0.49858 -1.11359,-1.1136z"/><path d="M613.48907,-65.87478c0,-0.61501 0.49858,-1.11359 1.1136,-1.11359c0.61501,0 1.11359,0.49857 1.11359,1.11359c0,0.61501 -0.49858,1.11359 -1.11359,1.11359c-0.61501,0 -1.1136,-0.49858 -1.1136,-1.11359z"/><path d="M622.39784,268.20427c0,-0.61501 0.49858,-1.1136 1.1136,-1.1136c0.61501,0 1.11359,0.49858 1.11359,1.1136c0,0.61501 -0.49858,1.11359 -1.11359,1.11359c-0.61501,0 -1.1136,-0.49857 -1.1136,-1.11359z"/><path d="M57.24751,52.16648c0,-0.30751 0.24929,-0.5568 0.5568,-0.5568c0.30751,0 0.55679,0.24929 0.55679,0.5568c0,0.30751 -0.24928,0.5568 -0.55679,0.5568c-0.30751,0 -0.5568,-0.24929 -0.5568,-0.5568z"/><path d="M-136.51835,114.52791c0,-0.30751 0.24928,-0.5568 0.55679,-0.5568c0.30751,0 0.55679,0.24929 0.55679,0.5568c0,0.30751 -0.24928,0.5568 -0.55679,0.5568c-0.30751,0 -0.55679,-0.24929 -0.55679,-0.5568z"/><path d="M21.61241,214.75162c0,-0.30751 0.24929,-0.55679 0.5568,-0.55679c0.30751,0 0.55679,0.24928 0.55679,0.55679c0,0.30751 -0.24928,0.5568 -0.55679,0.5568c-0.30751,0 -0.5568,-0.24929 -0.5568,-0.5568z"/><path d="M-140.97271,326.11127c0,-0.30751 0.24929,-0.5568 0.5568,-0.5568c0.30751,0 0.55679,0.24929 0.55679,0.5568c0,0.30751 -0.24928,0.55679 -0.55679,0.55679c-0.30751,0 -0.5568,-0.24928 -0.5568,-0.55679z"/><path d="M110.70016,437.47098c0,-0.30751 0.24929,-0.55679 0.55679,-0.55679c0.30751,0 0.55679,0.24928 0.55679,0.55679c0,0.30751 -0.24929,0.5568 -0.55679,0.5568c-0.30751,0 -0.55679,-0.24929 -0.55679,-0.5568z"/><path d="M8.24926,493.15083c0,-0.30751 0.24929,-0.5568 0.5568,-0.5568c0.30751,0 0.55679,0.24929 0.55679,0.5568c0,0.30751 -0.24928,0.5568 -0.55679,0.5568c-0.30751,0 -0.5568,-0.24929 -0.5568,-0.5568z"/><path d="M230.9686,203.61565c0,-0.30751 0.24928,-0.55679 0.55679,-0.55679c0.30751,0 0.55679,0.24928 0.55679,0.55679c0,0.30751 -0.24928,0.5568 -0.55679,0.5568c-0.30751,0 -0.55679,-0.24929 -0.55679,-0.5568z"/><path d="M355.69144,335.02006c0,-0.30751 0.24928,-0.5568 0.55679,-0.5568c0.30751,0 0.5568,0.24929 0.5568,0.5568c0,0.30751 -0.24929,0.55679 -0.5568,0.55679c-0.30751,0 -0.55679,-0.24928 -0.55679,-0.55679z"/><path d="M337.87389,459.74291c0,-0.30751 0.24929,-0.55679 0.5568,-0.55679c0.30751,0 0.55679,0.24928 0.55679,0.55679c0,0.30751 -0.24928,0.5568 -0.55679,0.5568c-0.30751,0 -0.5568,-0.24929 -0.5568,-0.5568z"/><path d="M529.41252,473.10607c0,-0.30751 0.24929,-0.55679 0.5568,-0.55679c0.30751,0 0.55679,0.24928 0.55679,0.55679c0,0.30751 -0.24928,0.5568 -0.55679,0.5568c-0.30751,0 -0.5568,-0.24929 -0.5568,-0.5568z"/><path d="M475.95989,261.52267c0,-0.30751 0.24928,-0.55679 0.55679,-0.55679c0.30751,0 0.5568,0.24928 0.5568,0.55679c0,0.30751 -0.24929,0.5568 -0.5568,0.5568c-0.30751,0 -0.55679,-0.24929 -0.55679,-0.5568z"/><path d="M602.90991,165.75335c0,-0.30751 0.24929,-0.55679 0.5568,-0.55679c0.30751,0 0.55679,0.24928 0.55679,0.55679c0,0.30751 -0.24928,0.55679 -0.55679,0.55679c-0.30751,0 -0.5568,-0.24928 -0.5568,-0.55679z"/><path d="M391.32654,47.7121c0,-0.30751 0.24929,-0.5568 0.5568,-0.5568c0.30751,0 0.55679,0.24929 0.55679,0.5568c0,0.30751 -0.24928,0.5568 -0.55679,0.5568c-0.30751,0 -0.5568,-0.24929 -0.5568,-0.5568z"/><path d="M251.01335,-79.23796c0,-0.30751 0.24928,-0.55679 0.55679,-0.55679c0.30751,0 0.55679,0.24929 0.55679,0.55679c0,0.30751 -0.24928,0.5568 -0.55679,0.5568c-0.30751,0 -0.55679,-0.24929 -0.55679,-0.5568z"/><path d="M424.73444,-110.41864c0,-0.30751 0.24929,-0.55679 0.5568,-0.55679c0.30751,0 0.55679,0.24929 0.55679,0.55679c0,0.30751 -0.24928,0.5568 -0.55679,0.5568c-0.30751,0 -0.5568,-0.24929 -0.5568,-0.5568z"/><path d="M10.47644,-110.41864c0,-0.30751 0.24928,-0.55679 0.55679,-0.55679c0.30751,0 0.5568,0.24929 0.5568,0.55679c0,0.30751 -0.24929,0.5568 -0.5568,0.5568c-0.30751,0 -0.55679,-0.24929 -0.55679,-0.5568z"/><path d="M618.50027,-19.10371c0,-0.30751 0.24929,-0.5568 0.5568,-0.5568c0.30751,0 0.55679,0.24929 0.55679,0.5568c0,0.30751 -0.24928,0.55679 -0.55679,0.55679c-0.30751,0 -0.5568,-0.24928 -0.5568,-0.55679z"/><path d="M-152.1087,43.25771c0,-0.30751 0.24928,-0.5568 0.55679,-0.5568c0.30751,0 0.55679,0.24929 0.55679,0.5568c0,0.30751 -0.24928,0.5568 -0.55679,0.5568c-0.30751,0 -0.55679,-0.24929 -0.55679,-0.5568z"/><path d="M-58.56656,161.29896c0,-0.30751 0.24929,-0.55679 0.5568,-0.55679c0.30751,0 0.55679,0.24928 0.55679,0.55679c0,0.30751 -0.24928,0.5568 -0.55679,0.5568c-0.30751,0 -0.5568,-0.24929 -0.5568,-0.5568z"/><path d="M108.47296,192.47966c0,-0.30751 0.24929,-0.55679 0.5568,-0.55679c0.30751,0 0.55679,0.24928 0.55679,0.55679c0,0.30751 -0.24929,0.55679 -0.55679,0.55679c-0.30751,0 -0.5568,-0.24928 -0.5568,-0.55679z"/><path d="M199.7879,112.30072c0,-0.30751 0.24929,-0.5568 0.5568,-0.5568c0.30751,0 0.55679,0.24929 0.55679,0.5568c0,0.30751 -0.24928,0.55679 -0.55679,0.55679c-0.30751,0 -0.5568,-0.24929 -0.5568,-0.55679z"/><path d="M159.69841,12.077c0,-0.30751 0.24928,-0.55679 0.55679,-0.55679c0.30751,0 0.55679,0.24928 0.55679,0.55679c0,0.30751 -0.24928,0.5568 -0.55679,0.5568c-0.30751,0 -0.55679,-0.24928 -0.55679,-0.5568z"/><path d="M266.6037,-21.3309c0,-0.30751 0.24929,-0.5568 0.5568,-0.5568c0.30751,0 0.55679,0.24929 0.55679,0.5568c0,0.30751 -0.24928,0.5568 -0.55679,0.5568c-0.30751,0 -0.5568,-0.24929 -0.5568,-0.5568z"/><path d="M-25.15866,-52.51161c0,-0.30751 0.24929,-0.55679 0.5568,-0.55679c0.30751,0 0.55679,0.24929 0.55679,0.55679c0,0.30751 -0.24928,0.55679 -0.55679,0.55679c-0.30751,0 -0.5568,-0.24929 -0.5568,-0.55679z"/><path d="M112.92735,-92.60109c0,-0.30751 0.24929,-0.5568 0.55679,-0.5568c0.30751,0 0.5568,0.24929 0.5568,0.5568c0,0.30751 -0.24929,0.5568 -0.5568,0.5568c-0.30751,0 -0.55679,-0.24929 -0.55679,-0.5568z"/><path d="M275.51247,-128.23618c0,-0.30751 0.24929,-0.5568 0.5568,-0.5568c0.30751,0 0.5568,0.24929 0.5568,0.5568c0,0.30751 -0.24929,0.55679 -0.5568,0.55679c-0.30751,0 -0.5568,-0.24928 -0.5568,-0.55679z"/><path d="M464.82393,69.98401c0,-0.30751 0.24929,-0.5568 0.5568,-0.5568c0.30751,0 0.5568,0.24929 0.5568,0.5568c0,0.30751 -0.24929,0.5568 -0.5568,0.5568c-0.30751,0 -0.5568,-0.24929 -0.5568,-0.5568z"/><path d="M337.87389,143.48142c0,-0.30751 0.24929,-0.5568 0.5568,-0.5568c0.30751,0 0.55679,0.24929 0.55679,0.5568c0,0.30751 -0.24928,0.55679 -0.55679,0.55679c-0.30751,0 -0.5568,-0.24928 -0.5568,-0.55679z"/><path d="M520.50375,234.79635c0,-0.55679 0.55679,-0.5568 0.55679,-0.5568c0.37119,0 1.85601,0 2.2272,0c0,0 0.55679,0.00001 0.55679,0.5568c0,0.55679 -0.55679,0.55679 -0.55679,0.55679c-0.37119,0 -0.7424,0 -1.1136,0h-1.11359c0,0 -0.55679,0 -0.55679,-0.55679z"/><path d="M433.64321,335.02006c0,-0.30751 0.24929,-0.5568 0.5568,-0.5568c0.30751,0 0.5568,0.24929 0.5568,0.5568c0,0.30751 -0.24929,0.55679 -0.5568,0.55679c-0.30751,0 -0.5568,-0.24928 -0.5568,-0.55679z"/><path d="M199.7879,281.56743c0,-0.30751 0.24929,-0.5568 0.5568,-0.5568c0.30751,0 0.55679,0.24929 0.55679,0.5568c0,0.30751 -0.24928,0.5568 -0.55679,0.5568c-0.30751,0 -0.5568,-0.24929 -0.5568,-0.5568z"/><path d="M46.11154,301.61215c0,-0.30751 0.24929,-0.5568 0.5568,-0.5568c0.30751,0 0.5568,0.24929 0.5568,0.5568c0,0.30751 -0.24929,0.55679 -0.5568,0.55679c-0.30751,0 -0.5568,-0.24928 -0.5568,-0.55679z"/><path d="M75.06506,473.10607c0,-0.30751 0.24929,-0.55679 0.5568,-0.55679c0.30751,0 0.55679,0.24928 0.55679,0.55679c0,0.30751 -0.24929,0.5568 -0.55679,0.5568c-0.30751,0 -0.5568,-0.24929 -0.5568,-0.5568z"/><path d="M-109.792,424.10782c0,-0.30751 0.24929,-0.5568 0.5568,-0.5568c0.30751,0 0.55679,0.24929 0.55679,0.5568c0,0.30751 -0.24929,0.5568 -0.55679,0.5568c-0.30751,0 -0.5568,-0.24929 -0.5568,-0.5568z"/><path d="M413.59847,473.10607c0,-0.30751 0.24929,-0.55679 0.5568,-0.55679c0.30751,0 0.55679,0.24928 0.55679,0.55679c0,0.30751 -0.24928,0.5568 -0.55679,0.5568c-0.30751,0 -0.5568,-0.24929 -0.5568,-0.5568z"/><path d="M-169.92623,208.07004c0,-0.30751 0.24928,-0.55679 0.55679,-0.55679c0.30751,0 0.5568,0.24928 0.5568,0.55679c0,0.30751 -0.24929,0.55679 -0.5568,0.55679c-0.30751,0 -0.55679,-0.24928 -0.55679,-0.55679z"/><path d="M625.18184,47.7121c0,-0.30751 0.24929,-0.5568 0.5568,-0.5568c0.30751,0 0.55679,0.24929 0.55679,0.5568c0,0.30751 -0.24928,0.5568 -0.55679,0.5568c-0.30751,0 -0.5568,-0.24929 -0.5568,-0.5568z"/></g><g data-paper-data="{&quot;index&quot;:null}" fill-opacity="0.17162" fill="#ffffff" stroke-width="0.5"><path d="M-37.96502,361.37525c0.61501,0 1.11359,0.49857 1.11359,1.11359c0,0.61501 -0.49858,1.11359 -1.11359,1.11359c-0.61501,0 -1.11359,-0.49858 -1.11359,-1.11359c0,-0.61501 0.49858,-1.11359 1.11359,-1.11359z"/><path d="M122.39292,417.05506h-2.2272c0,0 -1.11359,0 -1.11359,-1.11359c0,-1.11359 1.11359,-1.11359 1.11359,-1.11359h2.2272c0,0 1.11359,0 1.11359,1.11359c0,1.11359 -1.11359,1.11359 -1.11359,1.11359z"/><path d="M256.02452,316.83134c0.61502,0 1.11359,0.49858 1.11359,1.11359c0,0.61501 -0.49858,1.11359 -1.11359,1.11359c-0.61502,0 -1.1136,-0.49858 -1.1136,-1.11359c0,-0.61501 0.49859,-1.11359 1.1136,-1.11359z"/><path d="M80.07622,258.92431c0.61501,0 1.11359,0.49858 1.11359,1.11359c0,0.61502 -0.49858,1.11359 -1.11359,1.11359c-0.61501,0 -1.11359,-0.49858 -1.11359,-1.11359c0,-0.61501 0.49858,-1.11359 1.11359,-1.11359z"/><path d="M-89.19046,143.11023c0.61502,0 1.11359,0.49858 1.11359,1.11359c0,0.61501 -0.49858,1.11359 -1.11359,1.11359c-0.61502,0 -1.1136,-0.49858 -1.1136,-1.11359c0,-0.61502 0.49859,-1.11359 1.1136,-1.11359z"/><path d="M222.61663,40.65937c0.61501,0 1.11359,0.49857 1.11359,1.11359c0,0.61502 -0.49858,1.11359 -1.11359,1.11359c-0.61502,0 -1.1136,-0.49857 -1.1136,-1.11359c0,-0.61501 0.49859,-1.11359 1.1136,-1.11359z"/><path d="M-33.51062,-23.92926c0.61502,0 1.1136,0.49857 1.1136,1.11359c0,0.61501 -0.49859,1.11359 -1.1136,1.11359c-0.61501,0 -1.11359,-0.49857 -1.11359,-1.11359c0,-0.61502 0.49858,-1.11359 1.11359,-1.11359z"/><path d="M282.75084,-130.83456c0.61501,0 1.11359,0.49857 1.11359,1.11359c0,0.61502 -0.49857,1.11359 -1.11359,1.11359c-0.61501,0 -1.11359,-0.49857 -1.11359,-1.11359c0,-0.61501 0.49857,-1.11359 1.11359,-1.11359z"/><path d="M518.83336,11.70583c0.61501,0 1.11359,0.49858 1.11359,1.1136c0,0.61502 -0.49857,1.11359 -1.11359,1.11359c-0.61502,0 -1.11359,-0.49857 -1.11359,-1.11359c0,-0.61502 0.49857,-1.1136 1.11359,-1.1136z"/><path d="M391.88333,183.19974c0.61501,0 1.11359,0.49858 1.11359,1.11359c0,0.61502 -0.49857,1.1136 -1.11359,1.1136c-0.61502,0 -1.11359,-0.49859 -1.11359,-1.1136c0,-0.61501 0.49857,-1.11359 1.11359,-1.11359z"/><path d="M581.19476,285.65064c0.61501,0 1.11359,0.49858 1.11359,1.11359c0,0.61501 -0.49858,1.11359 -1.11359,1.11359c-0.61501,0 -1.11359,-0.49858 -1.11359,-1.11359c0,-0.61501 0.49858,-1.11359 1.11359,-1.11359z"/><path d="M349.56666,466.05334c0.61502,0 1.11359,0.49858 1.11359,1.11359c0,0.61501 -0.49857,1.11359 -1.11359,1.11359c-0.61502,0 -1.11359,-0.49858 -1.11359,-1.11359c0,-0.61501 0.49857,-1.11359 1.11359,-1.11359z"/><path d="M211.48066,519.50596c0.61501,0 1.11359,0.49858 1.11359,1.11359c0,0.61502 -0.49858,1.1136 -1.11359,1.1136c-0.61501,0 -1.11359,-0.49859 -1.11359,-1.1136c0,-0.61502 0.49858,-1.11359 1.11359,-1.11359z"/><path d="M-95.87204,463.82614c0.61502,0 1.1136,0.49859 1.1136,1.1136c0,0.61501 -0.49859,1.11359 -1.1136,1.11359c-0.61501,0 -1.11359,-0.49858 -1.11359,-1.11359c0,-0.61502 0.49858,-1.1136 1.11359,-1.1136z"/><path d="M625.73865,450.46297c0.61501,0 1.11359,0.49858 1.11359,1.11359c0,0.61502 -0.49858,1.11359 -1.11359,1.11359c-0.61502,0 -1.1136,-0.49858 -1.1136,-1.11359c0,-0.61501 0.49859,-1.11359 1.1136,-1.11359z"/><path d="M634.64742,116.38393c0.61501,0 1.11359,0.49858 1.11359,1.11359c0,0.61502 -0.49858,1.1136 -1.11359,1.1136c-0.61502,0 -1.1136,-0.49859 -1.1136,-1.1136c0,-0.61502 0.49859,-1.11359 1.1136,-1.11359z"/><path d="M68.94028,332.97848c0.30751,0 0.55679,0.24929 0.55679,0.5568c0,0.30751 -0.24928,0.5568 -0.55679,0.5568c-0.30751,0 -0.5568,-0.24929 -0.5568,-0.5568c0,-0.30751 0.24929,-0.5568 0.5568,-0.5568z"/><path d="M-124.82557,270.61708c0.30751,0 0.55679,0.24929 0.55679,0.5568c0,0.30751 -0.24928,0.5568 -0.55679,0.5568c-0.30751,0 -0.55679,-0.24929 -0.55679,-0.5568c0,-0.30751 0.24928,-0.5568 0.55679,-0.5568z"/><path d="M33.30518,170.39339c0.30751,0 0.55679,0.24929 0.55679,0.5568c0,0.30751 -0.24928,0.55679 -0.55679,0.55679c-0.30751,0 -0.5568,-0.24928 -0.5568,-0.55679c0,-0.30751 0.24929,-0.5568 0.5568,-0.5568z"/><path d="M-129.27994,59.0337c0.30751,0 0.55679,0.24928 0.55679,0.55679c0,0.30751 -0.24928,0.5568 -0.55679,0.5568c-0.30751,0 -0.5568,-0.24929 -0.5568,-0.5568c0,-0.30751 0.24929,-0.55679 0.5568,-0.55679z"/><path d="M122.39292,-52.32599c0.3075,0 0.55679,0.24929 0.55679,0.5568c0,0.30751 -0.24928,0.55679 -0.55679,0.55679c-0.3075,0 -0.55679,-0.24928 -0.55679,-0.55679c0,-0.30751 0.24928,-0.5568 0.55679,-0.5568z"/><path d="M19.94203,-108.00581c0.30751,0 0.55679,0.24929 0.55679,0.5568c0,0.30751 -0.24928,0.5568 -0.55679,0.5568c-0.30751,0 -0.5568,-0.24929 -0.5568,-0.5568c0,-0.30751 0.24929,-0.5568 0.5568,-0.5568z"/><path d="M242.66136,181.52934c0.30751,0 0.55679,0.24929 0.55679,0.5568c0,0.30751 -0.24928,0.55679 -0.55679,0.55679c-0.30751,0 -0.55679,-0.24928 -0.55679,-0.55679c0,-0.30751 0.24928,-0.5568 0.55679,-0.5568z"/><path d="M367.3842,50.12494c0.30751,0 0.5568,0.24928 0.5568,0.55679c0,0.30751 -0.24929,0.5568 -0.5568,0.5568c-0.30751,0 -0.55679,-0.24929 -0.55679,-0.5568c0,-0.30751 0.24928,-0.55679 0.55679,-0.55679z"/><path d="M349.56666,-74.59792c0.30751,0 0.55679,0.24929 0.55679,0.5568c0,0.30751 -0.24928,0.55679 -0.55679,0.55679c-0.30751,0 -0.5568,-0.24928 -0.5568,-0.55679c0,-0.30751 0.24929,-0.5568 0.5568,-0.5568z"/><path d="M541.10529,-87.96106c0.30751,0 0.55679,0.24929 0.55679,0.5568c0,0.30751 -0.24928,0.55679 -0.55679,0.55679c-0.30751,0 -0.5568,-0.24928 -0.5568,-0.55679c0,-0.30751 0.24929,-0.5568 0.5568,-0.5568z"/><path d="M487.65265,123.62231c0.30751,0 0.5568,0.24929 0.5568,0.5568c0,0.30751 -0.24929,0.55679 -0.5568,0.55679c-0.30751,0 -0.55679,-0.24928 -0.55679,-0.55679c0,-0.30751 0.24928,-0.5568 0.55679,-0.5568z"/><path d="M614.60268,219.39163c0.30751,0 0.55679,0.24928 0.55679,0.55679c0,0.30751 -0.24928,0.55679 -0.55679,0.55679c-0.30751,0 -0.5568,-0.24928 -0.5568,-0.55679c0,-0.30751 0.24929,-0.55679 0.5568,-0.55679z"/><path d="M403.01931,337.43289c0.30751,0 0.55679,0.24929 0.55679,0.5568c0,0.30751 -0.24928,0.5568 -0.55679,0.5568c-0.30751,0 -0.5568,-0.24929 -0.5568,-0.5568c0,-0.30751 0.24929,-0.5568 0.5568,-0.5568z"/><path d="M262.7061,464.38295c0.30751,0 0.55679,0.24929 0.55679,0.5568c0,0.3075 -0.24928,0.55679 -0.55679,0.55679c-0.30751,0 -0.55679,-0.24928 -0.55679,-0.55679c0,-0.30751 0.24928,-0.5568 0.55679,-0.5568z"/><path d="M436.42721,495.56365c0.30751,0 0.55679,0.24929 0.55679,0.5568c0,0.3075 -0.24928,0.55679 -0.55679,0.55679c-0.30751,0 -0.5568,-0.24928 -0.5568,-0.55679c0,-0.30751 0.24929,-0.5568 0.5568,-0.5568z"/><path d="M22.1692,495.56365c0.30751,0 0.5568,0.24929 0.5568,0.5568c0,0.3075 -0.24929,0.55679 -0.5568,0.55679c-0.30751,0 -0.55679,-0.24928 -0.55679,-0.55679c0,-0.30751 0.24928,-0.5568 0.55679,-0.5568z"/><path d="M630.19301,404.24872c0.30751,0 0.55679,0.24928 0.55679,0.55679c0,0.30751 -0.24928,0.5568 -0.55679,0.5568c-0.30751,0 -0.5568,-0.24929 -0.5568,-0.5568c0,-0.30751 0.24929,-0.55679 0.5568,-0.55679z"/><path d="M-140.41592,341.88729c0.30751,0 0.55679,0.24929 0.55679,0.5568c0,0.30751 -0.24928,0.5568 -0.55679,0.5568c-0.30751,0 -0.55679,-0.24929 -0.55679,-0.5568c0,-0.30751 0.24928,-0.5568 0.55679,-0.5568z"/><path d="M-46.87379,223.84604c0.30751,0 0.55679,0.24929 0.55679,0.5568c0,0.30751 -0.24928,0.55679 -0.55679,0.55679c-0.30751,0 -0.5568,-0.24928 -0.5568,-0.55679c0,-0.30751 0.24929,-0.5568 0.5568,-0.5568z"/><path d="M120.16573,192.66534c0.3075,0 0.55679,0.24928 0.55679,0.55679c0,0.30751 -0.24928,0.55679 -0.55679,0.55679c-0.30751,0 -0.5568,-0.24928 -0.5568,-0.55679c0,-0.30751 0.24929,-0.55679 0.5568,-0.55679z"/><path d="M211.48067,272.84425c0.30751,0 0.55679,0.24928 0.55679,0.55679c0,0.30751 -0.24928,0.5568 -0.55679,0.5568c-0.30751,0 -0.5568,-0.24929 -0.5568,-0.5568c0,-0.3075 0.24929,-0.55679 0.5568,-0.55679z"/><path d="M171.39117,373.06799c0.30751,0 0.55679,0.24929 0.55679,0.5568c0,0.30751 -0.24928,0.55679 -0.55679,0.55679c-0.30751,0 -0.55679,-0.24928 -0.55679,-0.55679c0,-0.30752 0.24928,-0.5568 0.55679,-0.5568z"/><path d="M278.29645,406.4759c0.30751,0 0.55679,0.24929 0.55679,0.5568c0,0.30751 -0.24928,0.5568 -0.55679,0.5568c-0.30751,0 -0.5568,-0.24929 -0.5568,-0.5568c0,-0.30751 0.24929,-0.5568 0.5568,-0.5568z"/><path d="M-13.46589,437.65663c0.30751,0 0.55679,0.24928 0.55679,0.55679c0,0.3075 -0.24928,0.55679 -0.55679,0.55679c-0.30751,0 -0.5568,-0.24928 -0.5568,-0.55679c0,-0.3075 0.24929,-0.55679 0.5568,-0.55679z"/><path d="M124.62011,477.74611c0.30751,0 0.5568,0.24929 0.5568,0.5568c0,0.30751 -0.24929,0.5568 -0.5568,0.5568c-0.3075,0 -0.55679,-0.24929 -0.55679,-0.5568c0,-0.30751 0.24928,-0.5568 0.55679,-0.5568z"/><path d="M287.20524,513.38118c0.30751,0 0.5568,0.24928 0.5568,0.55679c0,0.30751 -0.24929,0.5568 -0.5568,0.5568c-0.30751,0 -0.5568,-0.24929 -0.5568,-0.5568c0,-0.30751 0.24929,-0.55679 0.5568,-0.55679z"/><path d="M476.5167,315.16095c0.30751,0 0.5568,0.24929 0.5568,0.5568c0,0.30751 -0.24929,0.5568 -0.5568,0.5568c-0.30751,0 -0.5568,-0.24929 -0.5568,-0.5568c0,-0.30751 0.24929,-0.5568 0.5568,-0.5568z"/><path d="M349.56666,241.66358c0.30751,0 0.55679,0.24928 0.55679,0.55679c0,0.30751 -0.24928,0.5568 -0.55679,0.5568c-0.30751,0 -0.5568,-0.24929 -0.5568,-0.5568c0,-0.30751 0.24929,-0.55679 0.5568,-0.55679z"/><path d="M531.63973,150.90541c0,-0.55679 0.55679,-0.55679 0.55679,-0.55679h1.11359c0.3712,0 0.74241,0 1.1136,0c0,0 0.55679,0 0.55679,0.55679c0,0.55679 -0.55679,0.5568 -0.55679,0.5568c-0.37119,0 -1.85601,0 -2.2272,0c0,0 -0.55679,-0.00001 -0.55679,-0.5568z"/><path d="M445.33598,50.12494c0.30751,0 0.5568,0.24928 0.5568,0.55679c0,0.30751 -0.24929,0.5568 -0.5568,0.5568c-0.30751,0 -0.5568,-0.24929 -0.5568,-0.5568c0,-0.30751 0.24929,-0.55679 0.5568,-0.55679z"/><path d="M211.48067,103.57758c0.30751,0 0.55679,0.24929 0.55679,0.5568c0,0.30751 -0.24928,0.5568 -0.55679,0.5568c-0.30751,0 -0.5568,-0.24929 -0.5568,-0.5568c0,-0.30751 0.24929,-0.5568 0.5568,-0.5568z"/><path d="M57.80431,83.53282c0.30751,0 0.5568,0.24928 0.5568,0.55679c0,0.30751 -0.24929,0.5568 -0.5568,0.5568c-0.30751,0 -0.5568,-0.24929 -0.5568,-0.5568c0,-0.30751 0.24929,-0.55679 0.5568,-0.55679z"/><path d="M86.75783,-87.96106c0.3075,0 0.55679,0.24929 0.55679,0.5568c0,0.30751 -0.24928,0.55679 -0.55679,0.55679c-0.30751,0 -0.5568,-0.24928 -0.5568,-0.55679c0,-0.30751 0.24929,-0.5568 0.5568,-0.5568z"/><path d="M-98.09923,-38.96281c0.3075,0 0.55679,0.24929 0.55679,0.5568c0,0.30751 -0.24928,0.5568 -0.55679,0.5568c-0.30751,0 -0.5568,-0.24929 -0.5568,-0.5568c0,-0.30751 0.24929,-0.5568 0.5568,-0.5568z"/><path d="M425.29124,-87.96106c0.30751,0 0.55679,0.24929 0.55679,0.5568c0,0.30751 -0.24928,0.55679 -0.55679,0.55679c-0.30751,0 -0.5568,-0.24928 -0.5568,-0.55679c0,-0.30751 0.24929,-0.5568 0.5568,-0.5568z"/><path d="M-158.23347,177.07497c0.30751,0 0.5568,0.24928 0.5568,0.55679c0,0.30751 -0.24929,0.55679 -0.5568,0.55679c-0.30751,0 -0.55679,-0.24928 -0.55679,-0.55679c0,-0.30751 0.24928,-0.55679 0.55679,-0.55679z"/><path d="M636.87461,337.43289c0.30751,0 0.55679,0.24929 0.55679,0.5568c0,0.30751 -0.24928,0.5568 -0.55679,0.5568c-0.30751,0 -0.5568,-0.24929 -0.5568,-0.5568c0,-0.30751 0.24929,-0.5568 0.5568,-0.5568z"/></g><g data-paper-data="{&quot;index&quot;:null}" fill-opacity="0.17162" fill="#ffffff" stroke-width="0.5"><path d="M517.71975,362.48883c0,0.61501 -0.49858,1.11359 -1.11359,1.11359c-0.61501,0 -1.11359,-0.49858 -1.11359,-1.11359c0,-0.61502 0.49858,-1.11359 1.11359,-1.11359c0.61501,0 1.11359,0.49858 1.11359,1.11359z"/><path d="M355.13464,415.94146c0,-1.11359 1.11359,-1.11359 1.11359,-1.11359h2.2272c0,0 1.11359,0 1.11359,1.11359c0,1.11359 -1.11359,1.11359 -1.11359,1.11359h-2.2272c0,0 -1.11359,0 -1.11359,-1.11359z"/><path d="M223.73022,317.94495c0,0.61501 -0.49858,1.11359 -1.1136,1.11359c-0.61501,0 -1.11359,-0.49858 -1.11359,-1.11359c0,-0.61501 0.49857,-1.11359 1.11359,-1.11359c0.61501,0 1.1136,0.49858 1.1136,1.11359z"/><path d="M399.6785,260.03792c0,0.61501 -0.49858,1.11359 -1.11359,1.11359c-0.61501,0 -1.11359,-0.49857 -1.11359,-1.11359c0,-0.61501 0.49858,-1.11359 1.11359,-1.11359c0.61501,0 1.11359,0.49858 1.11359,1.11359z"/><path d="M568.94521,144.22385c0,0.61501 -0.49858,1.11359 -1.1136,1.11359c-0.61501,0 -1.11359,-0.49858 -1.11359,-1.11359c0,-0.61501 0.49857,-1.11359 1.11359,-1.11359c0.61501,0 1.1136,0.49857 1.1136,1.11359z"/><path d="M257.13812,41.77295c0,0.61502 -0.49858,1.11359 -1.1136,1.11359c-0.61501,0 -1.11359,-0.49857 -1.11359,-1.11359c0,-0.61502 0.49858,-1.11359 1.11359,-1.11359c0.61501,0 1.1136,0.49858 1.1136,1.11359z"/><path d="M513.26535,-22.81567c0,0.61502 -0.49858,1.11359 -1.11359,1.11359c-0.61501,0 -1.1136,-0.49858 -1.1136,-1.11359c0,-0.61502 0.49858,-1.11359 1.1136,-1.11359c0.61501,0 1.11359,0.49857 1.11359,1.11359z"/><path d="M197.0039,-129.72098c0,0.61502 -0.49858,1.11359 -1.11359,1.11359c-0.61502,0 -1.11359,-0.49857 -1.11359,-1.11359c0,-0.61502 0.49858,-1.11359 1.11359,-1.11359c0.61502,0 1.11359,0.49858 1.11359,1.11359z"/><path d="M-39.07864,12.81944c0,0.61502 -0.49857,1.11359 -1.11359,1.11359c-0.61502,0 -1.11359,-0.49857 -1.11359,-1.11359c0,-0.61502 0.49858,-1.1136 1.11359,-1.1136c0.61502,0 1.11359,0.49858 1.11359,1.1136z"/><path d="M87.87141,184.31335c0,0.61501 -0.49857,1.1136 -1.11359,1.1136c-0.61502,0 -1.11359,-0.49858 -1.11359,-1.1136c0,-0.61501 0.49858,-1.11359 1.11359,-1.11359c0.61502,0 1.11359,0.49858 1.11359,1.11359z"/><path d="M-101.44004,286.76425c0,0.61501 -0.49858,1.11359 -1.11359,1.11359c-0.61501,0 -1.11359,-0.49858 -1.11359,-1.11359c0,-0.61501 0.49858,-1.11359 1.11359,-1.11359c0.61501,0 1.11359,0.49858 1.11359,1.11359z"/><path d="M130.18807,467.16692c0,0.61501 -0.49857,1.11359 -1.11359,1.11359c-0.61502,0 -1.11359,-0.49858 -1.11359,-1.11359c0,-0.61501 0.49857,-1.11359 1.11359,-1.11359c0.61502,0 1.11359,0.49858 1.11359,1.11359z"/><path d="M268.27407,520.61952c0,0.61501 -0.49858,1.1136 -1.11359,1.1136c-0.61501,0 -1.11359,-0.49858 -1.11359,-1.1136c0,-0.61501 0.49858,-1.11359 1.11359,-1.11359c0.61501,0 1.11359,0.49857 1.11359,1.11359z"/><path d="M575.62677,464.93973c0,0.61501 -0.49858,1.11359 -1.11359,1.11359c-0.61501,0 -1.1136,-0.49858 -1.1136,-1.11359c0,-0.61501 0.49858,-1.1136 1.1136,-1.1136c0.61501,0 1.11359,0.49858 1.11359,1.1136z"/><path d="M-145.98391,451.57657c0,0.61501 -0.49858,1.11359 -1.1136,1.11359c-0.61501,0 -1.11359,-0.49857 -1.11359,-1.11359c0,-0.61501 0.49858,-1.11359 1.11359,-1.11359c0.61501,0 1.1136,0.49858 1.1136,1.11359z"/><path d="M-154.89269,117.49754c0,0.61501 -0.49858,1.1136 -1.1136,1.1136c-0.61501,0 -1.11359,-0.49858 -1.11359,-1.1136c0,-0.61501 0.49858,-1.11359 1.11359,-1.11359c0.61501,0 1.1136,0.49857 1.1136,1.11359z"/><path d="M410.25767,333.53526c0,0.30751 -0.24929,0.5568 -0.5568,0.5568c-0.30751,0 -0.55679,-0.24929 -0.55679,-0.5568c0,-0.30751 0.24928,-0.5568 0.55679,-0.5568c0.30751,0 0.5568,0.24929 0.5568,0.5568z"/><path d="M604.02351,271.17386c0,0.30751 -0.24928,0.5568 -0.55679,0.5568c-0.30751,0 -0.55679,-0.24929 -0.55679,-0.5568c0,-0.30751 0.24928,-0.5568 0.55679,-0.5568c0.30751,0 0.55679,0.24929 0.55679,0.5568z"/><path d="M445.89277,170.95019c0,0.30751 -0.24929,0.55679 -0.5568,0.55679c-0.30751,0 -0.55679,-0.24928 -0.55679,-0.55679c0,-0.30751 0.24928,-0.5568 0.55679,-0.5568c0.30751,0 0.5568,0.24929 0.5568,0.5568z"/><path d="M608.47786,59.5905c0,0.30751 -0.24929,0.5568 -0.5568,0.5568c-0.30751,0 -0.55679,-0.24929 -0.55679,-0.5568c0,-0.30751 0.24928,-0.55679 0.55679,-0.55679c0.30751,0 0.5568,0.24928 0.5568,0.55679z"/><path d="M356.80502,-51.76918c0,0.30751 -0.24929,0.55679 -0.55679,0.55679c-0.30751,0 -0.55679,-0.24928 -0.55679,-0.55679c0,-0.30751 0.24929,-0.5568 0.55679,-0.5568c0.30751,0 0.55679,0.24929 0.55679,0.5568z"/><path d="M459.25592,-107.44901c0,0.30751 -0.24929,0.5568 -0.5568,0.5568c-0.30751,0 -0.55679,-0.24929 -0.55679,-0.5568c0,-0.30751 0.24928,-0.5568 0.55679,-0.5568c0.30751,0 0.5568,0.24929 0.5568,0.5568z"/><path d="M236.53658,182.08616c0,0.30751 -0.24928,0.55679 -0.55679,0.55679c-0.30751,0 -0.55679,-0.24928 -0.55679,-0.55679c0,-0.30751 0.24928,-0.5568 0.55679,-0.5568c0.30751,0 0.55679,0.24929 0.55679,0.5568z"/><path d="M111.81374,50.68173c0,0.30751 -0.24928,0.5568 -0.55679,0.5568c-0.30751,0 -0.5568,-0.24929 -0.5568,-0.5568c0,-0.30751 0.24929,-0.55679 0.5568,-0.55679c0.30751,0 0.55679,0.24928 0.55679,0.55679z"/><path d="M129.63127,-74.04112c0,0.30751 -0.24929,0.55679 -0.5568,0.55679c-0.30751,0 -0.55679,-0.24928 -0.55679,-0.55679c0,-0.30751 0.24928,-0.5568 0.55679,-0.5568c0.30751,0 0.5568,0.24929 0.5568,0.5568z"/><path d="M-61.90736,-87.40426c0,0.30751 -0.24929,0.55679 -0.5568,0.55679c-0.30751,0 -0.55679,-0.24928 -0.55679,-0.55679c0,-0.30751 0.24928,-0.5568 0.55679,-0.5568c0.30751,0 0.5568,0.24929 0.5568,0.5568z"/><path d="M-8.45471,124.17912c0,0.30751 -0.24928,0.55679 -0.55679,0.55679c-0.30751,0 -0.5568,-0.24928 -0.5568,-0.55679c0,-0.30751 0.24929,-0.5568 0.5568,-0.5568c0.30751,0 0.55679,0.24929 0.55679,0.5568z"/><path d="M-135.40475,219.94844c0,0.30751 -0.24929,0.55679 -0.5568,0.55679c-0.30751,0 -0.55679,-0.24928 -0.55679,-0.55679c0,-0.30751 0.24928,-0.55679 0.55679,-0.55679c0.30751,0 0.5568,0.24928 0.5568,0.55679z"/><path d="M76.17864,337.98971c0,0.30751 -0.24929,0.5568 -0.5568,0.5568c-0.30751,0 -0.55679,-0.24929 -0.55679,-0.5568c0,-0.30751 0.24928,-0.5568 0.55679,-0.5568c0.30751,0 0.5568,0.24929 0.5568,0.5568z"/><path d="M216.49183,464.93973c0,0.30751 -0.24928,0.55679 -0.55679,0.55679c-0.30751,0 -0.55679,-0.24929 -0.55679,-0.55679c0,-0.30751 0.24928,-0.5568 0.55679,-0.5568c0.30751,0 0.55679,0.24929 0.55679,0.5568z"/><path d="M42.77074,496.12044c0,0.30751 -0.24929,0.55679 -0.5568,0.55679c-0.30751,0 -0.55679,-0.24929 -0.55679,-0.55679c0,-0.30751 0.24928,-0.5568 0.55679,-0.5568c0.30751,0 0.5568,0.24929 0.5568,0.5568z"/><path d="M457.02874,496.12044c0,0.30751 -0.24928,0.55679 -0.55679,0.55679c-0.30751,0 -0.5568,-0.24929 -0.5568,-0.55679c0,-0.30751 0.24929,-0.5568 0.5568,-0.5568c0.30751,0 0.55679,0.24929 0.55679,0.5568z"/><path d="M-150.99509,404.8055c0,0.30751 -0.24929,0.5568 -0.5568,0.5568c-0.30751,0 -0.55679,-0.24929 -0.55679,-0.5568c0,-0.30751 0.24928,-0.55679 0.55679,-0.55679c0.30751,0 0.5568,0.24928 0.5568,0.55679z"/><path d="M619.61385,342.44409c0,0.30751 -0.24928,0.5568 -0.55679,0.5568c-0.30751,0 -0.55679,-0.24929 -0.55679,-0.5568c0,-0.30751 0.24928,-0.5568 0.55679,-0.5568c0.30751,0 0.55679,0.24929 0.55679,0.5568z"/><path d="M526.07174,224.40285c0,0.30751 -0.24929,0.55679 -0.5568,0.55679c-0.30751,0 -0.55679,-0.24928 -0.55679,-0.55679c0,-0.30751 0.24928,-0.5568 0.55679,-0.5568c0.30751,0 0.5568,0.24929 0.5568,0.5568z"/><path d="M359.03222,193.22212c0,0.30751 -0.24929,0.55679 -0.5568,0.55679c-0.30751,0 -0.55679,-0.24928 -0.55679,-0.55679c0,-0.30751 0.24929,-0.55679 0.55679,-0.55679c0.30751,0 0.5568,0.24928 0.5568,0.55679z"/><path d="M267.71727,273.40103c0,0.30751 -0.24929,0.5568 -0.5568,0.5568c-0.30751,0 -0.55679,-0.24929 -0.55679,-0.5568c0,-0.30751 0.24928,-0.55679 0.55679,-0.55679c0.30751,0 0.5568,0.24929 0.5568,0.55679z"/><path d="M307.80676,373.6248c0,0.30751 -0.24928,0.55679 -0.55679,0.55679c-0.30751,0 -0.55679,-0.24928 -0.55679,-0.55679c0,-0.30751 0.24928,-0.5568 0.55679,-0.5568c0.30751,0 0.55679,0.24928 0.55679,0.5568z"/><path d="M200.90148,407.03271c0,0.30751 -0.24929,0.5568 -0.5568,0.5568c-0.30751,0 -0.55679,-0.24929 -0.55679,-0.5568c0,-0.30751 0.24928,-0.5568 0.55679,-0.5568c0.30751,0 0.5568,0.24929 0.5568,0.5568z"/><path d="M492.66384,438.21342c0,0.30751 -0.24929,0.55679 -0.5568,0.55679c-0.30751,0 -0.55679,-0.24929 -0.55679,-0.55679c0,-0.30751 0.24928,-0.55679 0.55679,-0.55679c0.30751,0 0.5568,0.24929 0.5568,0.55679z"/><path d="M354.57783,478.30289c0,0.30751 -0.24929,0.5568 -0.55679,0.5568c-0.30751,0 -0.5568,-0.24929 -0.5568,-0.5568c0,-0.30751 0.24929,-0.5568 0.5568,-0.5568c0.30751,0 0.55679,0.24929 0.55679,0.5568z"/><path d="M191.99271,513.93798c0,0.30751 -0.24929,0.5568 -0.5568,0.5568c-0.30751,0 -0.5568,-0.24929 -0.5568,-0.5568c0,-0.30751 0.24929,-0.55679 0.5568,-0.55679c0.30751,0 0.5568,0.24928 0.5568,0.55679z"/><path d="M2.68125,315.71772c0,0.30751 -0.24929,0.5568 -0.5568,0.5568c-0.30751,0 -0.5568,-0.24929 -0.5568,-0.5568c0,-0.30751 0.24929,-0.5568 0.5568,-0.5568c0.30751,0 0.5568,0.24929 0.5568,0.5568z"/><path d="M129.63127,242.22039c0,0.30751 -0.24929,0.5568 -0.5568,0.5568c-0.30751,0 -0.55679,-0.24929 -0.55679,-0.5568c0,-0.30751 0.24928,-0.55679 0.55679,-0.55679c0.30751,0 0.5568,0.24928 0.5568,0.55679z"/><path d="M-52.99859,150.90541c0,0.55679 -0.55679,0.5568 -0.55679,0.5568c-0.37119,0 -1.85601,0 -2.2272,0c0,0 -0.55679,-0.00001 -0.55679,-0.5568c0,-0.55679 0.55679,-0.55679 0.55679,-0.55679c0.37119,0 0.7424,0 1.1136,0h1.11359c0,0 0.55679,0 0.55679,0.55679z"/><path d="M33.86197,50.68173c0,0.30751 -0.24929,0.5568 -0.5568,0.5568c-0.30751,0 -0.5568,-0.24929 -0.5568,-0.5568c0,-0.30751 0.24929,-0.55679 0.5568,-0.55679c0.30751,0 0.5568,0.24928 0.5568,0.55679z"/><path d="M267.71727,104.13438c0,0.30751 -0.24929,0.5568 -0.5568,0.5568c-0.30751,0 -0.55679,-0.24929 -0.55679,-0.5568c0,-0.30751 0.24928,-0.5568 0.55679,-0.5568c0.30751,0 0.5568,0.24929 0.5568,0.5568z"/><path d="M421.39364,84.08962c0,0.30751 -0.24929,0.5568 -0.5568,0.5568c-0.30751,0 -0.5568,-0.24929 -0.5568,-0.5568c0,-0.30751 0.24929,-0.55679 0.5568,-0.55679c0.30751,0 0.5568,0.24928 0.5568,0.55679z"/><path d="M392.44012,-87.40426c0,0.30751 -0.24929,0.55679 -0.5568,0.55679c-0.30751,0 -0.55679,-0.24928 -0.55679,-0.55679c0,-0.30751 0.24929,-0.5568 0.55679,-0.5568c0.30751,0 0.5568,0.24929 0.5568,0.5568z"/><path d="M577.29716,-38.40602c0,0.30751 -0.24929,0.5568 -0.5568,0.5568c-0.30751,0 -0.55679,-0.24929 -0.55679,-0.5568c0,-0.30751 0.24929,-0.5568 0.55679,-0.5568c0.30751,0 0.5568,0.24929 0.5568,0.5568z"/><path d="M53.90671,-87.40426c0,0.30751 -0.24929,0.55679 -0.5568,0.55679c-0.30751,0 -0.55679,-0.24928 -0.55679,-0.55679c0,-0.30751 0.24928,-0.5568 0.55679,-0.5568c0.30751,0 0.5568,0.24929 0.5568,0.5568z"/><path d="M637.43139,177.63177c0,0.30751 -0.24928,0.55679 -0.55679,0.55679c-0.30751,0 -0.5568,-0.24928 -0.5568,-0.55679c0,-0.30751 0.24929,-0.55679 0.5568,-0.55679c0.30751,0 0.55679,0.24928 0.55679,0.55679z"/><path d="M-157.67667,337.98971c0,0.30751 -0.24929,0.5568 -0.5568,0.5568c-0.30751,0 -0.55679,-0.24929 -0.55679,-0.5568c0,-0.30751 0.24928,-0.5568 0.55679,-0.5568c0.30751,0 0.5568,0.24929 0.5568,0.5568z"/></g></g></g></svg>