<svg version="1.1" xmlns="http://www.w3.org/2000/svg" xmlns:xlink="http://www.w3.org/1999/xlink" width="93.23329" height="118.81801" viewBox="0,0,93.23329,118.81801"><defs><radialGradient cx="276.62183" cy="66.40972" r="41.17727" gradientUnits="userSpaceOnUse" id="color-1"><stop offset="0" stop-color="#ffa5a5"/><stop offset="1" stop-color="#9c4b4b"/></radialGradient><linearGradient x1="270.54571" y1="125.89219" x2="270.54571" y2="176.86498" gradientUnits="userSpaceOnUse" id="color-2"><stop offset="0" stop-color="#3b3d45"/><stop offset="1" stop-color="#575666"/></linearGradient><linearGradient x1="229.1932" y1="151.37858" x2="311.89826" y2="151.37858" gradientUnits="userSpaceOnUse" id="color-3"><stop offset="0" stop-color="#160000"/><stop offset="1" stop-color="#000000"/></linearGradient><linearGradient x1="224.39012" y1="177.33915" x2="315.89009" y2="177.33915" gradientUnits="userSpaceOnUse" id="color-4"><stop offset="0" stop-color="#948357"/><stop offset="1" stop-color="#6b653a"/></linearGradient><linearGradient x1="224.39012" y1="177.33914" x2="315.89009" y2="177.33914" gradientUnits="userSpaceOnUse" id="color-5"><stop offset="0" stop-color="#453e00" stop-opacity="0.50196"/><stop offset="1" stop-color="#3d2c00" stop-opacity="0.50196"/></linearGradient><linearGradient x1="235.51512" y1="150.21415" x2="238.45128" y2="150.21415" gradientUnits="userSpaceOnUse" id="color-6"><stop offset="0" stop-color="#848594"/><stop offset="1" stop-color="#5a607d"/></linearGradient><linearGradient x1="243.77309" y1="150.2141" x2="246.70925" y2="150.2141" gradientUnits="userSpaceOnUse" id="color-7"><stop offset="0" stop-color="#848594"/><stop offset="1" stop-color="#5a607d"/></linearGradient><linearGradient x1="252.03106" y1="150.21409" x2="254.96723" y2="150.21409" gradientUnits="userSpaceOnUse" id="color-8"><stop offset="0" stop-color="#848594"/><stop offset="1" stop-color="#5a607d"/></linearGradient><linearGradient x1="260.289" y1="150.21415" x2="263.22517" y2="150.21415" gradientUnits="userSpaceOnUse" id="color-9"><stop offset="0" stop-color="#848594"/><stop offset="1" stop-color="#5a607d"/></linearGradient><linearGradient x1="268.54699" y1="150.2141" x2="271.4832" y2="150.2141" gradientUnits="userSpaceOnUse" id="color-10"><stop offset="0" stop-color="#848594"/><stop offset="1" stop-color="#5a607d"/></linearGradient><linearGradient x1="276.93002" y1="150.21409" x2="279.86617" y2="150.21409" gradientUnits="userSpaceOnUse" id="color-11"><stop offset="0" stop-color="#848594"/><stop offset="1" stop-color="#5a607d"/></linearGradient><linearGradient x1="285.18799" y1="150.21415" x2="288.12414" y2="150.21415" gradientUnits="userSpaceOnUse" id="color-12"><stop offset="0" stop-color="#848594"/><stop offset="1" stop-color="#5a607d"/></linearGradient><linearGradient x1="293.44596" y1="150.3391" x2="296.38212" y2="150.3391" gradientUnits="userSpaceOnUse" id="color-13"><stop offset="0" stop-color="#848594"/><stop offset="1" stop-color="#5a607d"/></linearGradient><linearGradient x1="301.70393" y1="150.33909" x2="304.64009" y2="150.33909" gradientUnits="userSpaceOnUse" id="color-14"><stop offset="0" stop-color="#848594"/><stop offset="1" stop-color="#5a607d"/></linearGradient><linearGradient x1="224.39012" y1="125.83914" x2="315.89009" y2="125.83914" gradientUnits="userSpaceOnUse" id="color-15"><stop offset="0" stop-color="#948357"/><stop offset="1" stop-color="#6b653a"/></linearGradient><linearGradient x1="224.39012" y1="125.83914" x2="315.89009" y2="125.83914" gradientUnits="userSpaceOnUse" id="color-16"><stop offset="0" stop-color="#453e00" stop-opacity="0.50196"/><stop offset="1" stop-color="#3d2c00" stop-opacity="0.50196"/></linearGradient><linearGradient x1="309.92341" y1="151.93911" x2="316.25676" y2="151.93911" gradientUnits="userSpaceOnUse" id="color-17"><stop offset="0" stop-color="#717787"/><stop offset="1" stop-color="#59606f"/></linearGradient><linearGradient x1="309.92341" y1="151.93911" x2="316.25676" y2="151.93911" gradientUnits="userSpaceOnUse" id="color-18"><stop offset="0" stop-color="#2d3552" stop-opacity="0.50196"/><stop offset="1" stop-color="#2b2d4f" stop-opacity="0.50196"/></linearGradient><linearGradient x1="224.02345" y1="151.93911" x2="230.3568" y2="151.93911" gradientUnits="userSpaceOnUse" id="color-19"><stop offset="0" stop-color="#717787"/><stop offset="1" stop-color="#59606f"/></linearGradient><linearGradient x1="224.02345" y1="151.93911" x2="230.3568" y2="151.93911" gradientUnits="userSpaceOnUse" id="color-20"><stop offset="0" stop-color="#2d3552" stop-opacity="0.50196"/><stop offset="1" stop-color="#2b2d4f" stop-opacity="0.50196"/></linearGradient></defs><g transform="translate(-223.52345,-62.0378)"><g data-paper-data="{&quot;isPaintingLayer&quot;:true}" fill-rule="nonzero" stroke-linejoin="miter" stroke-miterlimit="10" stroke-dasharray="" stroke-dashoffset="0" style="mix-blend-mode: normal"><g fill="none" stroke="#a5a5a5" stroke-width="1" stroke-linecap="round"><path d="M269.92616,134.625l-37.23861,-46.75"/><path d="M307.31253,87.87503l-37.23861,46.75" data-paper-data="{&quot;index&quot;:null}"/><path d="M269.94987,134.62501l-25.29276,-46.75"/><path d="M295.34298,87.87502l-25.29276,46.75" data-paper-data="{&quot;index&quot;:null}"/><path d="M257.95657,87.875l12.01959,46.75"/><path d="M270.02387,134.625l12.01959,-46.75" data-paper-data="{&quot;index&quot;:null}"/><path d="M270.07392,134.75v-48.25"/></g><path d="M228.93755,91.0538c0,0 8.74769,-28.38319 41.18433,-28.6162c31.31744,0.02261 40.94067,28.6162 40.94067,28.6162c0,0 0.7123,2.62051 -0.69308,2.97127c-0.51382,0.12825 -2.28533,-2.10444 -3.09288,-1.95491c-1.02033,0.18893 -1.79774,3.01438 -3.3894,3.21252c-1.58812,0.1977 -3.98912,-2.23189 -6.25975,-2.05252c-1.63367,0.12905 -2.58369,2.37481 -4.6212,2.48216c-1.69003,0.08904 -4.40126,-1.95616 -6.39576,-1.88849c-1.96479,0.06665 -3.58317,2.49653 -5.86667,2.53682c-1.54726,0.0273 -3.67032,-2.32709 -5.37279,-2.31404c-1.63385,0.01252 -3.34084,2.26808 -5.12413,2.2659c-1.78154,-0.00217 -3.48846,-2.26178 -5.12375,-2.27806c-1.74529,-0.01739 -4.03401,2.33262 -5.61977,2.30094c-2.23729,-0.0447 -3.69442,-2.47772 -5.63163,-2.54647c-2.12052,-0.07526 -4.69238,2.33662 -6.479,2.23901c-2.30418,-0.12588 -3.71683,-2.76754 -5.51672,-2.91771c-1.74671,-0.14574 -3.74432,2.0434 -5.29121,1.85659c-1.50493,-0.18174 -2.5699,-2.73938 -3.50926,-2.88681c-1.13932,-0.17882 -2.46578,2.15989 -3.06503,2.02097c-1.47078,-0.34095 -1.07296,-3.04716 -1.07296,-3.04716z" fill="url(#color-1)" stroke="none" stroke-width="0" stroke-linecap="butt"/><g fill="none" stroke-opacity="0.44706" stroke="#572222" stroke-width="1" stroke-linecap="round"><path d="M269.99683,96.40972l0.125,-33.625"/><path d="M270.99683,62.65972c0,0 4.95278,7.76505 6.79082,13.68565c1.85142,5.96369 2.95918,19.93935 2.95918,19.93935"/><path d="M259.37183,96.28473c0,0 1.10777,-13.97566 2.95918,-19.93935c1.83803,-5.9206 6.79082,-13.68565 6.79082,-13.68565" data-paper-data="{&quot;index&quot;:null}"/><path d="M272.08239,62.65973c0,0 10.68758,7.76505 14.65387,13.68565c3.99517,5.96369 6.2606,19.06435 6.2606,19.06435"/><path d="M247.12186,95.78473c0,0 2.26544,-13.47566 6.2606,-19.43935c3.96629,-5.9206 14.65387,-13.68565 14.65387,-13.68565" data-paper-data="{&quot;index&quot;:null}"/><path d="M273.08018,62.65973c0,0 11.95896,3.14005 21.88153,13.68565c5.96569,5.96369 9.03514,18.68935 9.03514,18.68935"/><path d="M235.99685,94.40973c0,0 3.19446,-12.10066 9.16014,-18.06435c8.92256,-9.2956 21.88153,-13.68565 21.88153,-13.68565" data-paper-data="{&quot;index&quot;:null}"/><path d="M273.70518,62.65972c0,0 9.51082,-2.10995 26.40875,13.68565c7.19997,5.96369 10.63292,17.31435 10.63292,17.31435"/><path d="M229.37185,93.65972c0,0 3.43296,-11.35066 10.63292,-17.31435c18.14791,-16.0456 26.40875,-13.68565 26.40875,-13.68565" data-paper-data="{&quot;index&quot;:null}"/></g><path d="M229.1932,176.86498v-50.97279h82.70512v50.97279z" fill="url(#color-2)" stroke="url(#color-3)" stroke-width="1" stroke-linecap="butt"/><path d="M224.39012,179.97248v-5.26667h91.5v5.26667z" fill="url(#color-4)" stroke="url(#color-5)" stroke-width="1" stroke-linecap="butt"/><path d="M235.51512,174.21415v-48h2.93617v48z" fill="url(#color-6)" stroke="none" stroke-width="0" stroke-linecap="butt"/><path d="M243.77309,174.21414v-48h2.93617v48z" fill="url(#color-7)" stroke="none" stroke-width="0" stroke-linecap="butt"/><path d="M252.03106,174.21413v-48h2.93618v48z" fill="url(#color-8)" stroke="none" stroke-width="0" stroke-linecap="butt"/><path d="M260.289,174.21415v-48h2.93617v48z" fill="url(#color-9)" stroke="none" stroke-width="0" stroke-linecap="butt"/><path d="M268.54699,174.21414v-48h2.93617v48z" fill="url(#color-10)" stroke="none" stroke-width="0" stroke-linecap="butt"/><path d="M276.93002,174.21413v-48h2.93617v48z" fill="url(#color-11)" stroke="none" stroke-width="0" stroke-linecap="butt"/><path d="M285.18799,174.21415v-48h2.93617v48z" fill="url(#color-12)" stroke="none" stroke-width="0" stroke-linecap="butt"/><path d="M293.44596,174.33914v-48h2.93617v48z" fill="url(#color-13)" stroke="none" stroke-width="0" stroke-linecap="butt"/><path d="M301.70393,174.33913v-48h2.93617v48z" fill="url(#color-14)" stroke="none" stroke-width="0" stroke-linecap="butt"/><path d="M224.39012,127.56137v-3.44445h91.5v3.44445z" fill="url(#color-15)" stroke="url(#color-16)" stroke-width="1" stroke-linecap="butt"/><path d="M309.92341,180.35581v-56.83333h6.33333v56.83333z" fill="url(#color-17)" stroke="url(#color-18)" stroke-width="1" stroke-linecap="butt"/><path d="M224.02345,180.35581v-56.83334h6.33334v56.83334z" fill="url(#color-19)" stroke="url(#color-20)" stroke-width="1" stroke-linecap="butt"/></g></g></svg>