<svg version="1.1" xmlns="http://www.w3.org/2000/svg" xmlns:xlink="http://www.w3.org/1999/xlink" width="66.37336" height="119.60422" viewBox="0,0,66.37336,119.60422"><defs><linearGradient x1="239.74789" y1="149.41535" x2="239.74789" y2="156.26644" gradientUnits="userSpaceOnUse" id="color-1"><stop offset="0" stop-color="#736b4f"/><stop offset="1" stop-color="#bec286"/></linearGradient><radialGradient cx="235.45423" cy="124.47792" r="13.11833" gradientUnits="userSpaceOnUse" id="color-2"><stop offset="0" stop-color="#ccbe7a"/><stop offset="1" stop-color="#948f62"/></radialGradient></defs><g transform="translate(-206.07893,-115.40861)"><g data-paper-data="{&quot;isPaintingLayer&quot;:true}" fill-rule="nonzero" stroke-linejoin="miter" stroke-miterlimit="10" stroke-dasharray="" stroke-dashoffset="0" style="mix-blend-mode: normal"><g><path d="M221.32073,225.86225l9.40989,-32.58764c0,0 7.02714,-1.00794 10.04971,-0.48892c3.57637,0.61412 -0.12071,4.28546 -0.12071,4.28546c0,0 -3.06238,-0.43627 -3.60695,0.92703c-1.66542,4.16928 -7.84426,29.2185 -7.84426,29.2185z" fill="#a69b98" stroke="#000000" stroke-width="0" stroke-linecap="butt"/><path d="M235.61938,233.29832c0,0 -0.70849,1.84689 -1.52345,1.70695c-0.5842,-0.10032 -2.60828,-0.43403 -4.62518,-0.86209c-1.22622,-0.26025 -1.77015,-0.9308 -2.66591,-1.22954c-1.12769,-0.3761 -2.93345,-0.28003 -3.73803,-0.6125c-1.48255,-0.61262 -2.20873,-1.16847 -2.20873,-1.16847c0,0 -0.09171,-1.05614 -0.0131,-1.61126c0.10589,-0.74787 0.59133,-2.4726 0.59133,-2.4726c0,0 5.86888,0.88646 8.11649,1.47566c1.32997,0.34866 4.06993,1.35514 4.06993,1.35514c0,0 1.33451,0.85377 1.47275,1.31099c0.16929,0.55997 0.52391,2.10774 0.52391,2.10774z" data-paper-data="{&quot;index&quot;:null}" fill="#141415" stroke="#000000" stroke-width="0" stroke-linecap="butt"/><path d="M235.45981,232.62692c0,0 -0.38013,-0.06527 -1.19509,-0.20522c-0.24464,-0.04202 0.4212,1.69741 -2.80596,0.87079c-3.04748,-0.7806 -2.53534,-1.64098 -3.61018,-1.90733c-2.24754,-0.55694 -2.65103,0.14851 -3.61039,-0.17145c-0.33411,-0.11142 -0.48593,-0.19967 -1.59461,-1.25838c-0.76249,-0.72812 -0.35968,-1.83862 -0.84449,-2.55913c-0.70819,-1.0525 -0.47766,-1.99542 -0.47766,-1.99542l0.44052,-3.01669c0,0 0.10585,2.2573 0.79317,3.21179c0.61496,0.85401 2.28666,0.37363 2.76337,0.45535c0.83477,0.14309 -0.12583,-3.33749 0.66916,-3.18247c0.42748,0.08335 3.70867,0.39934 3.70867,0.39934c0,0 -0.48461,3.54906 -0.25842,3.60836c1.32996,0.34866 4.42847,1.41671 4.42847,1.41671c0,0 1.33451,0.85377 1.47275,1.31099c0.1693,0.55997 0.12073,3.02276 0.12073,3.02276z" data-paper-data="{&quot;index&quot;:null}" fill="#252527" stroke="#000000" stroke-width="0" stroke-linecap="butt"/><path d="M230.2136,227.63722l-2.81392,0.62412" data-paper-data="{&quot;index&quot;:null}" fill="none" stroke="#ffffff" stroke-width="0.5" stroke-linecap="round"/><path d="M229.25027,228.94818l2.75596,-1.00316" data-paper-data="{&quot;index&quot;:null}" fill="none" stroke="#ffffff" stroke-width="0.5" stroke-linecap="round"/><path d="M233.04082,228.36873l-1.6804,1.18786" data-paper-data="{&quot;index&quot;:null}" fill="none" stroke="#ffffff" stroke-width="0.5" stroke-linecap="round"/><path d="M229.0535,224.36215l-2.19222,-0.13037" data-paper-data="{&quot;index&quot;:null}" fill="none" stroke="#969696" stroke-width="0.5" stroke-linecap="round"/><path d="M229.16939,225.12023l-1.97373,0.03018" data-paper-data="{&quot;index&quot;:null}" fill="none" stroke="#969696" stroke-width="0.5" stroke-linecap="round"/></g><g stroke="#000000" stroke-width="0" stroke-linecap="butt"><path d="M272.21146,199.60607c-0.49747,0.12999 -1.71057,-3.56517 -3.13607,-3.64311c-0.48939,-0.02677 0.82088,5.08218 -0.12224,5.07493c-0.55983,-0.00431 -1.22924,-2.84673 -1.96194,-4.09473c-0.35697,-0.608 -2.09587,-5.13739 -2.09587,-5.13739c0,0 -0.22211,-3.03857 -1.75998,-6.19893c-0.36981,-0.75998 -1.38421,-3.32393 -1.77258,-4.10071c-0.91921,-1.83844 -1.90335,-3.62737 -2.43626,-4.76894c-1.14623,-2.4553 -5.85046,-14.53359 -5.85046,-14.53359l4.76188,-3.05052c0,0 2.04257,6.25654 4.74576,12.70064c2.03347,4.84757 4.71024,9.81183 5.67232,12.24001c1.13863,2.87378 2.13523,6.74249 2.13523,6.74249c0,0 0.87084,2.65126 1.46649,4.92213c0.53596,2.04331 0.8327,3.72255 0.35365,3.84772z" data-paper-data="{&quot;index&quot;:null}" fill="#8b8560"/><path d="M250.31765,155.51797c5.19191,-2.92908 6.97885,0.19572 7.78256,1.99678c0.80372,1.80105 2.32471,0.71207 -2.44502,3.37511c-4.03149,2.25086 -3.57739,1.66118 -4.3811,-0.13988c-0.80371,-1.80105 -3.66031,-3.70655 -0.95645,-5.23199z" data-paper-data="{&quot;index&quot;:null}" fill="#42352d"/></g><g stroke="#000000" stroke-width="0" stroke-linecap="butt"><path d="M251.92356,207.84496c-0.49928,-0.12285 -0.08474,-3.87057 -0.3967,-4.77478c-0.16699,-0.48405 -1.76928,4.66602 -2.59888,4.20912c-0.49246,-0.27121 0.22658,-3.10069 0.15475,-4.55263c-0.03501,-0.70736 0.51709,-5.53723 0.51709,-5.53723c0,0 1.2045,-2.78904 1.30308,-6.31408c0.0237,-0.84768 0.30969,-3.59607 0.32474,-4.46746c0.03562,-2.06234 -0.00893,-4.11197 0.0466,-5.37448c0.11944,-2.71542 1.53235,-15.62712 1.53235,-15.62712l5.6118,-0.41894c0,0 -1.08004,6.49993 -1.66309,13.48102c-0.43859,5.25153 -0.36283,10.91335 -0.63245,13.51688c-0.31908,3.08131 -1.2222,6.97328 -1.2222,6.97328c0,0 -0.45301,2.75693 -0.97371,5.04652c-0.46853,2.06016 -1.52262,3.95816 -2.0034,3.83988z" data-paper-data="{&quot;index&quot;:null}" fill="#979068"/><path d="M253.45215,158.18553c5.93562,-0.10633 6.07341,3.50631 5.95303,5.48048c-0.12039,1.97416 1.72492,1.73914 -3.71518,1.81221c-4.59812,0.06175 -3.92523,-0.24202 -3.80485,-2.21618c0.12039,-1.97416 -1.52417,-5.02112 1.56701,-5.07649z" data-paper-data="{&quot;index&quot;:null}" fill="#4a3c33"/></g><g><path d="M239.18994,193.01674c3.57758,-0.60707 10.76603,0.38702 10.76603,0.38702l8.62827,32.72785l-7.53168,1.27801c0,0 -5.58067,-24.95628 -6.95571,-28.81252c-0.38971,-1.09291 -3.59915,-1.49755 -3.59915,-1.49755c0,0 -4.33136,-3.56976 -1.30777,-4.08282z" fill="#a69b98" stroke="#000000" stroke-width="0" stroke-linecap="butt"/><path d="M266.08715,232.04963c-0.5844,0.09917 -2.60457,0.45581 -4.64925,0.72106c-1.24312,0.16127 -1.97869,-0.29087 -2.92282,-0.27554c-1.18859,0.0193 -2.86024,0.70897 -3.72955,0.66222c-1.60183,-0.08612 -2.47128,-0.3696 -2.47128,-0.3696c0,0 -0.43686,-0.96593 -0.54688,-1.51568c-0.1482,-0.74065 -0.26241,-2.52874 -0.26241,-2.52874c0,0 5.83061,-1.11064 8.1464,-1.30042c1.37032,-0.11229 4.28901,-0.07174 4.28901,-0.07174c0,0 1.54217,0.36272 1.82425,0.74818c0.34547,0.47211 1.19346,1.81456 1.19346,1.81456c0,0 -0.05568,1.97733 -0.87092,2.11567z" data-paper-data="{&quot;index&quot;:null}" fill="#141415" stroke="#000000" stroke-width="0" stroke-linecap="butt"/><path d="M265.38932,229.55649c-0.24473,0.04152 0.96046,1.46157 -2.35819,1.75231c-3.13387,0.27456 -2.93614,-0.70699 -4.03847,-0.6017c-2.30502,0.22018 -2.45164,1.01954 -3.46281,1.03595c-0.35216,0.00571 -0.52464,-0.02715 -1.92177,-0.65812c-0.96086,-0.43394 -0.94925,-1.61518 -1.64563,-2.13407c-1.01723,-0.75795 -1.11256,-1.72397 -1.11256,-1.72397l-0.58515,-2.992c0,0 0.84868,2.09434 1.81372,2.76679c0.86344,0.60164 2.28112,-0.40609 2.75796,-0.48715c0.83498,-0.14193 -1.22587,-3.10674 -0.42446,-3.22423c0.43092,-0.06317 3.63113,-0.85358 3.63113,-0.85358c0,0 0.72017,3.50886 0.95323,3.48976c1.37032,-0.11229 4.64766,-0.13261 4.64766,-0.13261c0,0 1.54217,0.36272 1.82426,0.74818c0.34547,0.47211 1.11665,2.81154 1.11665,2.81154c0,0 -0.38027,0.06452 -1.19551,0.20286z" data-paper-data="{&quot;index&quot;:null}" fill="#252527" stroke="#000000" stroke-width="0" stroke-linecap="butt"/><path d="M259.98043,226.38668l-2.44753,1.52224" fill="none" stroke="#ffffff" stroke-width="0.5" stroke-linecap="round"/><path d="M259.50657,227.94299l2.26712,-1.86061" fill="none" stroke="#ffffff" stroke-width="0.5" stroke-linecap="round"/><path d="M261.69906,227.81702l1.19118,-1.67804" fill="none" stroke="#ffffff" stroke-width="0.5" stroke-linecap="round"/><path d="M255.68825,224.2862l2.11132,-0.60426" fill="none" stroke="#969696" stroke-width="0.5" stroke-linecap="round"/><path d="M258.16041,224.35869l-1.85195,0.68323" fill="none" stroke="#969696" stroke-width="0.5" stroke-linecap="round"/></g><path d="M235.91981,157.06516v-7.64977h7.65615l-0.1141,7.87798z" fill="url(#color-1)" stroke="#000000" stroke-width="0" stroke-linecap="butt"/><path d="M229.63981,193.59147c0,0 1.05415,-4.96832 0.53438,-10.35244c-0.16183,-1.6764 -0.21302,-5.68895 -0.71668,-7.54193c-0.59549,-2.19087 -2.53406,-2.77781 -2.61907,-4.12911c-0.1679,-2.66921 -1.07001,-6.79369 -0.41646,-11.37123c0.49266,-3.45066 3.45852,-6.29847 3.45852,-6.29847c0,0 3.98746,-0.28908 5.76508,0.07712c2.26281,0.46615 4.64106,2.49298 4.64106,2.49298c0,0 3.08552,-2.02276 4.99894,-2.43902c2.01891,-0.43921 5.48447,0.01677 5.48447,0.01677c0,0 2.62113,3.52189 2.84787,7.84095c0.214,4.0764 -0.63262,8.46783 -0.70926,10.13771c-0.07768,1.69256 -1.49509,2.1313 -2.13228,4.27482c-0.50833,1.71005 -0.54704,5.19044 -0.67745,7.18949c-0.3029,4.64296 0.14784,10.27371 0.14784,10.27371c0,0 -2.75697,-0.76932 -5.57187,-0.83754c-1.27833,-0.03098 -1.79126,1.00612 -2.99851,1.16532c-0.96496,0.12724 -2.63623,-0.61291 -3.56107,-0.64966c-0.69915,-0.02778 -2.04377,-0.5306 -2.53801,-0.53471c-0.99795,-0.0083 -1.61572,0.86529 -2.77345,1.02464c-1.34484,0.1851 -3.1641,-0.33939 -3.1641,-0.33939z" fill="#4f4037" stroke="#292e32" stroke-width="0" stroke-linecap="butt"/><g stroke="#000000" stroke-width="0" stroke-linecap="butt"><path d="M206.70589,195.04804c0.6262,-2.26379 1.54029,-4.90397 1.54029,-4.90397c0,0 1.04783,-3.85695 2.24178,-6.71563c1.00883,-2.41542 3.81189,-7.34225 5.94358,-12.16253c2.83373,-6.40785 4.97784,-12.63846 4.97784,-12.63846l4.96184,3.12986c0,0 -4.93319,12.01613 -6.13421,14.45574c-0.55839,1.13427 -1.58888,2.90939 -2.55175,4.73513c-0.40683,0.7714 -1.4705,3.3219 -1.85793,4.07679c-1.61107,3.13918 -1.84914,6.17747 -1.84914,6.17747c0,0 -1.82367,4.50647 -2.19736,5.10943c-0.76704,1.23764 -1.47137,4.07243 -2.05547,4.06779c-0.98398,-0.0078 0.41931,-6.15248 0.03196,-5.81028c-0.72362,0.63923 -2.90967,4.46295 -3.42841,4.32488c-0.49953,-0.13297 -0.18644,-1.80924 0.37701,-3.84619z" data-paper-data="{&quot;index&quot;:null}" fill="#a0986e"/><path d="M228.13161,160.56982c-0.84228,1.79015 -0.36974,2.38772 -4.5712,0.07004c-4.97084,-2.74209 -3.3862,-1.62764 -2.54394,-3.41778c0.84228,-1.79015 2.71316,-4.88977 8.12391,-1.8746c2.81784,1.57025 -0.16649,3.43218 -1.00876,5.22234z" fill="#615046"/></g><g stroke="#000000" stroke-width="0" stroke-linecap="butt"><path d="M226.8023,203.5501c-0.61935,-2.26566 -1.18372,-5.00203 -1.18372,-5.00203c0,0 -1.07157,-3.85044 -1.50716,-6.91763c-0.36804,-2.59164 -0.47821,-8.25897 -1.1109,-13.49147c-0.84106,-6.95578 -2.1842,-13.40668 -2.1842,-13.40668l5.86451,0.15277c0,0 1.90435,12.84902 2.1196,15.55969c0.10008,1.2603 0.12211,3.31273 0.22812,5.37408c0.04481,0.87096 0.43476,3.60673 0.4878,4.45356c0.22053,3.52154 1.56944,6.25438 1.56944,6.25438c0,0 0.64417,9.8691 0.21503,10.14651c-1.25002,0.80801 -1.87774,-5.50773 -2.14894,-4.98574c-0.51236,0.98613 -0.19062,5.21414 -0.70703,5.36071c-0.49728,0.14114 -1.08531,-1.45953 -1.6426,-3.49816z" data-paper-data="{&quot;index&quot;:null}" fill="#ada477"/><path d="M227.55772,162.83888c0.19146,1.9691 0.9031,2.24107 -3.89267,2.3975c-5.67397,0.18508 -3.74233,0.33259 -3.93379,-1.63651c-0.19146,-1.9691 -0.16848,-5.58951 6.02318,-5.76483c3.22453,-0.0913 1.61183,3.03473 1.80329,5.00385z" fill="#615046"/></g><g><path d="M251.22502,117.79763c0,0 -0.26338,3.24445 -0.58861,4.57283c-0.26638,1.08795 -1.2217,2.82111 -1.2217,2.82111" data-paper-data="{&quot;index&quot;:null}" fill="none" stroke="#3b2c16" stroke-width="1.25" stroke-linecap="round"/><path d="M252.62927,121.93589c0,0 -0.18908,2.27851 -0.58872,3.23539c-0.42269,1.01206 -1.88216,2.68074 -1.88216,2.68074" data-paper-data="{&quot;index&quot;:null}" fill="none" stroke="#3b2c16" stroke-width="1.25" stroke-linecap="round"/><path d="M248.9718,116.03361c0,0 0.11659,3.27103 -0.03039,4.69304c-0.12038,1.16464 -0.78772,3.22209 -0.78772,3.22209" data-paper-data="{&quot;index&quot;:null}" fill="none" stroke="#3b2c16" stroke-width="1.25" stroke-linecap="round"/><path d="M252.55185,134.25847c0,7.39154 -8.18556,17.31455 -11.39879,17.3764c-6.69145,0.1288 -14.23242,-9.98486 -14.23242,-17.3764c0,-7.39154 5.73774,-13.38356 12.8156,-13.38356c7.07786,0 12.8156,5.99202 12.8156,13.38356z" fill="url(#color-2)" stroke="none" stroke-width="0" stroke-linecap="butt"/><path d="M241.64846,135.34165c0,2.06292 -0.85162,3.73524 -1.90215,3.73524c-1.05053,0 -1.90214,-1.67233 -1.90214,-3.73524c0,-2.06292 0.85162,-3.73523 1.90214,-3.73523c1.05053,0 1.90215,1.67232 1.90215,3.73523z" fill="none" stroke="#191412" stroke-width="1.5" stroke-linecap="butt"/><path d="M246.3825,129.77996c0,2.06292 -0.85162,3.73524 -1.90214,3.73524c-1.05053,0 -1.90215,-1.67233 -1.90215,-3.73524c0,-2.06292 0.85162,-3.73524 1.90215,-3.73524c1.05053,0 1.90214,1.67232 1.90214,3.73524z" fill="none" stroke="#191412" stroke-width="1.5" stroke-linecap="butt"/><path d="M251.07875,135.29518c0,2.06292 -0.85161,3.73524 -1.90214,3.73524c-1.05053,0 -1.90215,-1.67233 -1.90215,-3.73524c0,-2.06292 0.85162,-3.73523 1.90215,-3.73523c1.05053,0 1.90214,1.67232 1.90214,3.73523z" fill="none" stroke="#191412" stroke-width="1.5" stroke-linecap="butt"/><path d="M246.32528,140.42395c0,2.06292 -0.85162,3.73524 -1.90214,3.73524c-1.05053,0 -1.90215,-1.67233 -1.90215,-3.73524c0,-2.06292 0.85162,-3.73523 1.90215,-3.73523c1.05053,0 1.90214,1.67232 1.90214,3.73523z" fill="none" stroke="#191412" stroke-width="1.5" stroke-linecap="butt"/><path d="M232.27206,125.51299c0,0 -1.55639,-1.73224 -1.99089,-2.81993c-0.53052,-1.32806 -0.96207,-4.57226 -0.96207,-4.57226" fill="none" stroke="#47341a" stroke-width="1.5" stroke-linecap="round"/><path d="M231.06403,128.17421c0,0 -2.37686,-1.66727 -3.06571,-2.67893c-0.6513,-0.9565 -0.96105,-3.23482 -0.96105,-3.23482" fill="none" stroke="#47341a" stroke-width="1.5" stroke-linecap="round"/><path d="M234.32334,124.26894c0,0 -1.08798,-2.05681 -1.28494,-3.22133c-0.24048,-1.42187 -0.05363,-4.693 -0.05363,-4.693" fill="none" stroke="#47341a" stroke-width="1.5" stroke-linecap="round"/></g></g></g></svg>