<svg version="1.1" xmlns="http://www.w3.org/2000/svg" xmlns:xlink="http://www.w3.org/1999/xlink" width="1101.22149" height="154.98717" viewBox="0,0,1101.22149,154.98717"><defs><linearGradient x1="272.04866" y1="210.05838" x2="272.04866" y2="370.52525" gradientUnits="userSpaceOnUse" id="color-1"><stop offset="0" stop-color="#90a642"/><stop offset="1" stop-color="#808a51"/></linearGradient><linearGradient x1="813.29866" y1="210.05838" x2="813.29866" y2="370.52525" gradientUnits="userSpaceOnUse" id="color-2"><stop offset="0" stop-color="#90a642"/><stop offset="1" stop-color="#808a51"/></linearGradient></defs><g transform="translate(7.9371,-210.05838)"><g data-paper-data="{&quot;isPaintingLayer&quot;:true}" fill-rule="nonzero" stroke="none" stroke-width="0.25" stroke-linecap="butt" stroke-linejoin="miter" stroke-miterlimit="10" stroke-dasharray="" stroke-dashoffset="0" style="mix-blend-mode: normal"><path d="M-7.9371,223.19512c1.6091,-2.96376 4.09885,-5.46455 6.49394,-7.43298c1.46596,-1.20481 2.67229,-2.82295 4.20263,-3.91496c2.86939,-2.04753 6.88692,-1.62732 10.08325,-1.62732c1.61056,0 3.24319,-0.34056 4.83167,-0.03251c1.79413,0.34793 3.37685,1.69789 5.17714,2.00006c4.2333,0.71054 9.00286,0.0316 13.2886,0.0316c4.33772,0 8.38925,0.18126 12.5975,0.96717c2.64958,0.49482 5.10729,2.47293 7.76572,3.00006c2.03185,0.40289 4.07291,0.75336 6.12204,1.01335c4.39854,0.55807 8.48809,-0.17311 12.68942,-1.01459c2.04283,-0.40916 3.3185,0.7116 5.45685,-0.0754c1.75041,-0.64422 3.08222,-2.60579 4.89788,-2.92595c2.31603,-0.4084 5.07479,0.03167 7.42039,0.03167c3.38689,0 7.51506,-0.80039 10.80957,-0.04609c1.39606,0.31963 2.58012,1.44658 3.96073,1.84634c3.53195,1.0227 7.23069,0.47917 10.77058,1.16565c1.79413,0.34793 3.38432,1.64351 5.1772,1.99989c0.85044,0.16905 1.73729,-0.16281 2.58868,-0.00029c6.33042,1.20841 11.8059,5.78357 18.12025,6.99949c3.74535,0.72121 8.13539,0.08496 11.93064,-0.03631c1.15048,0.66667 2.21053,1.60759 3.45143,2.00002c0.99197,0.31371 2.05619,0.05588 3.08439,0.0664c3.08295,0.03155 6.70202,0.41366 9.7558,-0.02044c1.17707,-0.16732 2.27554,-0.82709 3.45191,-1.00095c2.48064,-0.36663 5.00223,0.01719 7.50296,0.01719c2.53761,0 5.08257,-0.2165 7.6138,-0.00802c4.04554,0.3332 8.03335,1.6938 12.08162,1.99749c1.39829,0.1049 2.81147,-0.18914 4.20448,-0.01365c2.35789,0.29704 4.55555,1.61396 6.904,1.99849c5.80466,0.95044 11.95916,-1.64343 17.5803,-2.96237c4.16525,-0.03532 7.52341,-1.40127 11.50401,-2.06016c1.14279,-0.18916 2.32322,0.19304 3.46512,-0.00325c0.14479,-0.02489 5.28628,-1.99589 5.57743,-2.12199c0.2222,-0.09624 8.19044,-3.79455 8.29939,-3.86273c1.18376,-0.74079 2.04794,-2.10828 3.28438,-2.72272c0.88787,-0.44121 1.95383,-0.04376 2.88507,-0.34162c1.35511,-0.43343 2.53727,-1.49489 3.91271,-1.83156c0.41641,-0.10193 8.0047,-0.09026 8.19833,-0.09048c2.00086,-0.00232 4.03371,-0.42052 6.00632,-0.03224c2.0913,0.41164 4.02147,1.70638 6.12597,2.01471c1.97034,0.28867 3.99801,-0.35841 5.96143,-0.01219c1.89543,0.33422 3.34282,1.7777 4.90076,2.92663c1.24367,0.025 2.50863,-0.17899 3.73285,0.0761c2.68554,0.55958 5.08216,2.45727 7.76983,3.00298c1.13322,0.23009 2.31385,-0.18743 3.45276,0.00113c0.90039,0.14907 1.68894,0.85545 2.58974,1.00107c1.99403,0.32235 4.058,-0.39542 6.04194,0.00194c2.87848,0.57653 5.7454,1.53666 8.63131,2.00319c5.35051,0.86495 11.33931,0.03681 16.743,0.03681c9.49146,0 18.98598,0.00581 28.47744,0.00581c5.46478,0 10.93061,0.00251 16.39539,0.00251c2.81792,0 6.16941,0.47087 8.92824,-0.023c6.5293,-1.16884 12.13756,-4.73688 17.82623,-8.19124c1.36527,-0.82904 3.1343,-0.52278 4.65464,-0.81644c0.89716,-0.17329 1.69234,-0.82044 2.5886,-0.99995c3.75276,-0.75164 9.26851,-0.50189 12.8576,0.93402c3.71386,1.07587 7.75111,2.44861 11.51777,3.07651c2.78805,0.46477 6.0922,0.02547 8.9318,0.02547c5.17716,0 10.3546,0.00105 15.53175,0.00105c2.1858,0 4.39361,-0.39019 6.55744,-0.03188c3.73209,0.618 7.50415,2.28391 11.21746,3.00116c4.02251,0.77697 8.15458,0.48441 12.08025,2.00094c10.7557,0.11833 21.5154,0.03363 32.27162,0.03363c2.58043,0 5.18741,0.11303 7.76579,0.00028c1.36767,-0.05981 2.55168,-0.9035 3.18427,1.45703c0.26013,0.97067 -0.14044,2.02769 -0.16412,3.04373c-0.09312,3.9941 0.00026,8.00587 0.00026,12.00177c0,8.19892 0.51113,16.65179 0.0058,24.82653c-0.39817,6.44102 -0.88401,13.24418 -1.69394,19.61327c-0.13997,1.10075 -0.75799,2.07652 -0.87401,3.181c-0.41635,3.9634 -0.02595,8.37253 -0.02595,12.38838c0,9 -0.00027,18.00417 -0.00027,27.00417c0,10 -0.00063,20.00449 -0.00063,30.00449c0,2 -0.29436,4.03015 -0.00016,6.00087c0.07028,0.47079 0.92329,0.89453 0.63178,1.23238c-0.29152,0.33785 -0.65495,-0.66607 -1.06323,-0.73229c-2.27875,-0.36959 -4.60197,0.00027 -6.90293,0.00027c-8.79409,0 -539.16447,-6.05147 -540.65082,-7.48792c-2.16576,-2.09305 -1.47099,-5.6619 -1.7572,-8.32c-0.14684,-1.36379 -0.72996,-2.63493 -0.86295,-4.00063c-0.33027,-3.39144 0.01595,-7.25381 0.01595,-10.69617c0,-6.27566 -0.46948,-12.59719 0.84643,-18.69743c0.0304,-9.97957 0.93271,-20.65321 0.00554,-30.55662c-0.75379,-8.05155 -1.58481,-16.08312 -2.59406,-24.06285c-0.3747,-2.9626 0.4013,-6.12965 -0.01156,-9.0964c-0.59545,-4.27876 -1.73145,-8.52104 -1.7138,-12.90691c-0.86175,-3.99483 -1.75312,-8.6047 -1.70927,-12.69637l-1.36485,-2.52781z" data-paper-data="{&quot;noHover&quot;:false,&quot;origItem&quot;:[&quot;Path&quot;,{&quot;applyMatrix&quot;:true,&quot;segments&quot;:[[-55.88814,244.20523],[[-54.30629,246.73272],[0,0],[-0.05081,4.09167]],[[-52.32502,259.42726],[-0.99871,-3.99483],[-0.02046,4.38587]],[[-50.33857,272.33226],[-0.69009,-4.27876],[0.47848,2.96675]],[[-50.32502,281.42726],[-0.43425,-2.9626],[1.16965,7.97973]],[[-47.31846,305.48637],[-0.87359,-8.05155],[1.07453,9.90341]],[[-47.32502,336.03817],[0.03523,-9.97957],[-1.52506,6.10024]],[[-48.30629,354.73271],[0,-6.27566],[0,3.44236]],[[-48.32502,365.42725],[-0.38276,-3.39144],[0.15413,1.3657]],[[-47.32502,369.42725],[-0.17018,-1.36379],[0.3317,2.6581]],[[-45.2888,377.74594],[-2.50998,-2.09305],[1.72259,1.43645]],[[-35.50083,378.25144],[-1.38434,-0.15156],[6.19426,0.67813]],[[-16.93569,380.42895],[-6.23924,-0.22122],[1.53406,0.61629]],[[-12.33352,382.27782],[-1.62187,-0.32045],[3.21542,0.63529]],[[-2.50083,382.25144],[-3.25726,-0.36438],[5.04842,0.56476]],[[12.59417,385.26499],[-4.9673,-0.72838],[5.2132,0.76443]],[[28.59417,385.26499],[-5.2333,-0.72999],[1.04398,0.14562]],[[31.59417,386.26499],[-1.04567,-0.13298],[2.98624,0.37975]],[[40.62502,386.28104],[-2.99154,-0.3354],[4.92296,0.55193]],[[55.39991,388.24123],[-4.95466,-0.41242],[6.08707,0.50668]],[[73.49061,389.32984],[-6.09534,-0.93765],[7.64552,0.31653]],[[96.37093,391.239],[-7.61909,-0.60866],[7.49654,0.59887]],[[119.19371,391.23271],[-7.5269,0],[16.33333,0]],[[168.19371,391.23271],[-16.33333,0],[12.31423,0]],[[205.14825,391.23312],[-12.3128,0.16924],[4.35752,-0.05989]],[[218.01648,390.239],[-4.32021,0.33772],[4.65808,-0.36414]],[[232.15326,390.23304],[-4.67143,0.06761],[10.63902,-0.15398]],[[264.03876,388.94825],[-10.66541,0.22957],[9.29053,-1.32377]],[[292.02641,387.9493],[-9.33563,0.81868],[9.30907,-0.81635]],[[320.02641,386.9493],[-9.31769,0.81711],[5.9879,-0.5251]],[[338.03835,385.23754],[-6.00934,0.37413],[7.97584,-0.49656]],[[362.07024,385.05894],[-7.9925,0.35442],[5.06762,-0.83173]],[[377.01901,384.06652],[-5.0708,0.49861],[8.74046,-0.85944]],[[403.19369,383.23272],[-8.81993,0],[17.66667,0]],[[456.19369,383.23272],[-17.66667,0],[21.95732,0]],[[522.39989,384.24124],[-21.81024,-2.29793],[9.28767,0.97855]],[[550.50035,384.69585],[-9.3234,-1.02732],[10.12817,1.13342]],[[581.19369,385.23272],[-10.19179,0],[2.66667,0]],[[589.19369,385.23272],[-2.64093,-0.36959],[0.47318,0.06622]],[[590.42592,385.96495],[-0.33785,0.33785],[0.33785,-0.33785]],[[589.69369,384.73272],[0.08145,0.47079],[-0.34096,-1.97072]],[[589.69369,378.73272],[0,2],[0,-10]],[[589.69369,348.73272],[0,10],[0,-9]],[[589.69369,321.73272],[0,9],[0,-4.01585]],[[589.72374,309.34627],[-0.48252,3.9634],[0.13446,-1.10448]],[[590.73667,306.16576],[-0.16222,1.10075],[0.93866,-6.36909]],[[592.69998,286.5555],[-0.46145,6.44102],[0.58565,-8.17474]],[[592.69369,261.73272],[0,8.19892],[0,-3.9959]],[[592.69369,249.73272],[-0.10792,3.9941],[0.02745,-1.01604]],[[592.88399,246.68943],[0.30147,0.97067],[-0.73313,-2.36053]],[[589.19369,245.23272],[1.58504,-0.05981],[-2.98818,0.11275]],[[580.19369,245.23272],[2.99055,0],[-12.46578,0]],[[542.79323,245.20044],[12.46517,0.11833],[-4.5496,-1.51653]],[[528.79323,243.20044],[4.66183,0.77697],[-4.30348,-0.71725]],[[515.79323,240.20044],[4.32526,0.618],[-2.50774,-0.35831]],[[508.19369,240.23272],[2.5332,0],[-6,0]],[[490.19369,240.23272],[6,0],[-3.29092,0]],[[479.84252,240.20793],[3.23117,0.46477],[-4.36533,-0.6279]],[[466.49472,237.13302],[4.30413,1.07587],[-4.15952,-1.43591]],[[451.59414,236.20044],[4.34921,-0.75164],[-1.0387,0.17951]],[[448.59414,237.20044],[1.03975,-0.17329],[-1.76198,0.29366]],[[443.29206,237.97851],[1.58226,-0.82904],[-6.59281,3.45436]],[[422.54043,246.20856],[7.56704,-1.16884],[-3.1973,0.49387]],[[412.19368,246.23272],[3.26579,0],[-6.33333,0]],[[393.19368,246.23272],[6.33333,0],[-11,0]],[[360.19368,246.23272],[11,0],[-6.26254,0]],[[340.79322,246.20044],[6.2009,0.86495],[-3.34459,-0.46653]],[[330.79322,244.20044],[3.33598,0.57653],[-2.29925,-0.39736]],[[323.79322,244.20044],[2.31096,0.32235],[-1.04398,-0.14562]],[[320.79322,243.20044],[1.0435,0.14907],[-1.31993,-0.18856]],[[316.79322,243.20044],[1.31333,0.23009],[-3.11484,-0.54571]],[[307.79322,240.20044],[3.11237,0.55958],[-1.4188,-0.25509]],[[303.46922,240.12545],[1.44133,0.025],[-1.80555,-1.14893]],[[297.79322,237.20044],[2.19668,0.33422],[-2.27548,-0.34622]],[[290.88822,237.21399],[2.2835,0.28867],[-2.43898,-0.30833]],[[283.79322,235.20044],[2.42369,0.41164],[-2.28613,-0.38828]],[[276.83669,235.23336],[2.31887,-0.00232],[-0.22441,0.00022]],[[267.34155,235.32413],[0.48259,-0.10193],[-1.59404,0.33667]],[[262.81003,237.15555],[1.57049,-0.43343],[-1.07924,0.29786]],[[259.46867,237.49694],[1.02898,-0.44121],[-1.43296,0.61444]],[[255.66509,240.21923],[1.3719,-0.74079],[-0.12627,0.06818]],[[246.05357,244.08018],[0.25752,-0.09624],[-0.33743,0.1261]],[[239.59413,246.20044],[0.1678,-0.02489],[-1.32338,0.19629]],[[235.58055,246.20261],[1.32442,-0.18916],[-4.61326,0.65889]],[[222.25513,248.25846],[4.82726,-0.03532],[-6.51454,1.31894]],[[201.88822,251.214],[6.72723,0.95044],[-2.72171,-0.38453]],[[193.88822,249.214],[2.73264,0.29704],[-1.61442,-0.17549]],[[189.01646,249.22644],[1.62053,0.1049],[-4.69169,-0.30369]],[[175.01646,247.22644],[4.68853,0.3332],[-2.93353,-0.20848]],[[166.19368,247.23273],[2.94093,0],[-2.89819,0]],[[157.49914,247.214],[2.8749,-0.36663],[-1.36333,0.17386]],[[153.49914,248.214],[1.36415,-0.16732],[-3.53914,0.4341]],[[142.19368,248.23273],[3.57294,0.03155],[-1.19162,-0.01052]],[[138.6193,248.16585],[1.14963,0.31371],[-1.43813,-0.39243]],[[134.6193,246.16585],[1.33333,0.66667],[-4.39846,0.12127]],[[120.79323,246.20045],[4.34062,0.72121],[-7.31793,-1.21592]],[[99.79323,239.20045],[7.33656,1.20841],[-0.98671,-0.16252]],[[96.79323,239.20045],[0.98561,0.16905],[-2.07784,-0.35638]],[[90.79323,237.20045],[2.07928,0.34793],[-4.10251,-0.68648]],[[78.31115,236.03396],[4.09331,1.0227],[-1.60003,-0.39976]],[[73.72092,234.18763],[1.61794,0.31963],[-3.81813,-0.7543]],[[61.19369,234.23274],[3.92519,0],[-2.7184,0]],[[52.59415,234.20046],[2.68413,-0.4084],[-2.10423,0.32016]],[[46.91815,237.12547],[2.02862,-0.64422],[-2.47821,0.787]],[[40.59415,237.20046],[2.36751,-0.40916],[-4.86907,0.84148]],[[25.88824,238.21401],[5.09763,0.55807],[-2.37482,-0.25999]],[[18.79324,237.20046],[2.35479,0.40289],[-3.08096,-0.52713]],[[9.79324,234.20046],[3.07069,0.49482],[-4.87709,-0.78591]],[[-4.8063,233.23274],[5.02714,0],[-4.96691,0]],[[-20.20676,233.20046],[4.90613,0.71054],[-2.08642,-0.30217]],[[-26.20676,231.20046],[2.07928,0.34793],[-1.84095,-0.30805]],[[-31.8063,231.23274],[1.86654,0],[-3.70435,0]],[[-43.49197,232.85937],[3.32544,-2.04753],[-1.77356,1.09201]],[[-48.36237,236.77359],[1.69895,-1.20481],[-2.77576,1.96843]],[[-55.88815,244.20525],[1.86484,-2.96376],[0,0]]],&quot;closed&quot;:true,&quot;fillColor&quot;:[0.51373,0.58039,0.27843],&quot;strokeWidth&quot;:0.5}]}" fill="url(#color-1)"/><path d="M533.3129,223.19512c1.6091,-2.96376 4.09885,-5.46455 6.49394,-7.43298c1.46596,-1.20481 2.67229,-2.82295 4.20263,-3.91496c2.86939,-2.04753 6.88692,-1.62732 10.08325,-1.62732c1.61056,0 3.24319,-0.34056 4.83167,-0.03251c1.79413,0.34793 3.37685,1.69789 5.17714,2.00006c4.2333,0.71054 9.00286,0.0316 13.2886,0.0316c4.33772,0 8.38925,0.18126 12.5975,0.96717c2.64958,0.49482 5.10729,2.47293 7.76572,3.00006c2.03185,0.40289 4.07291,0.75336 6.12204,1.01335c4.39854,0.55807 8.48809,-0.17311 12.68942,-1.01459c2.04283,-0.40916 3.3185,0.7116 5.45685,-0.0754c1.75041,-0.64422 3.08222,-2.60579 4.89788,-2.92595c2.31603,-0.4084 5.07479,0.03167 7.42039,0.03167c3.38689,0 7.51506,-0.80039 10.80957,-0.04609c1.39606,0.31963 2.58012,1.44658 3.96073,1.84634c3.53195,1.0227 7.23069,0.47917 10.77058,1.16565c1.79413,0.34793 3.38432,1.64351 5.1772,1.99989c0.85044,0.16905 1.73729,-0.16281 2.58868,-0.00029c6.33042,1.20841 11.8059,5.78357 18.12025,6.99949c3.74535,0.72121 8.13539,0.08496 11.93064,-0.03631c1.15048,0.66667 2.21053,1.60759 3.45143,2.00002c0.99197,0.31371 2.05619,0.05588 3.08439,0.0664c3.08295,0.03155 6.70202,0.41366 9.7558,-0.02044c1.17707,-0.16732 2.27554,-0.82709 3.45191,-1.00095c2.48064,-0.36663 5.00223,0.01719 7.50296,0.01719c2.53761,0 5.08257,-0.2165 7.6138,-0.00802c4.04554,0.3332 8.03335,1.6938 12.08162,1.99749c1.39829,0.1049 2.81147,-0.18914 4.20448,-0.01365c2.35789,0.29704 4.55555,1.61396 6.904,1.99849c5.80466,0.95044 11.95916,-1.64343 17.5803,-2.96237c4.16525,-0.03532 7.52341,-1.40127 11.50401,-2.06016c1.14279,-0.18916 2.32322,0.19304 3.46512,-0.00325c0.14479,-0.02489 5.28628,-1.99589 5.57743,-2.12199c0.2222,-0.09624 8.19044,-3.79455 8.29939,-3.86273c1.18376,-0.74079 2.04794,-2.10828 3.28438,-2.72272c0.88787,-0.44121 1.95383,-0.04376 2.88507,-0.34162c1.35511,-0.43343 2.53727,-1.49489 3.91271,-1.83156c0.41641,-0.10193 8.0047,-0.09026 8.19833,-0.09048c2.00086,-0.00232 4.03371,-0.42052 6.00632,-0.03224c2.0913,0.41164 4.02147,1.70638 6.12597,2.01471c1.97034,0.28867 3.99801,-0.35841 5.96143,-0.01219c1.89543,0.33422 3.34282,1.7777 4.90076,2.92663c1.24367,0.025 2.50863,-0.17899 3.73285,0.0761c2.68554,0.55958 5.08216,2.45727 7.76983,3.00298c1.13322,0.23009 2.31385,-0.18743 3.45276,0.00113c0.90039,0.14907 1.68894,0.85545 2.58974,1.00107c1.99403,0.32235 4.058,-0.39542 6.04194,0.00194c2.87848,0.57653 5.7454,1.53666 8.63131,2.00319c5.35051,0.86495 11.33931,0.03681 16.743,0.03681c9.49146,0 18.98598,0.00581 28.47744,0.00581c5.46478,0 10.93061,0.00251 16.39539,0.00251c2.81792,0 6.16941,0.47087 8.92824,-0.023c6.5293,-1.16884 12.13756,-4.73688 17.82623,-8.19124c1.36527,-0.82904 3.1343,-0.52278 4.65464,-0.81644c0.89716,-0.17329 1.69234,-0.82044 2.5886,-0.99995c3.75276,-0.75164 9.26851,-0.50189 12.8576,0.93402c3.71386,1.07587 7.75111,2.44861 11.51777,3.07651c2.78805,0.46477 6.0922,0.02547 8.9318,0.02547c5.17716,0 10.3546,0.00105 15.53175,0.00105c2.1858,0 4.39361,-0.39019 6.55744,-0.03188c3.73209,0.618 7.50415,2.28391 11.21746,3.00116c4.02251,0.77697 8.15458,0.48441 12.08025,2.00094c10.7557,0.11833 21.5154,0.03363 32.27162,0.03363c2.58043,0 5.18741,0.11303 7.76579,0.00028c1.36767,-0.05981 2.55168,-0.9035 3.18427,1.45703c0.26013,0.97067 -0.14044,2.02769 -0.16412,3.04373c-0.09312,3.9941 0.00026,8.00587 0.00026,12.00177c0,8.19892 0.51113,16.65179 0.0058,24.82653c-0.39817,6.44102 -0.88401,13.24418 -1.69394,19.61327c-0.13997,1.10075 -0.75799,2.07652 -0.87401,3.181c-0.41635,3.9634 -0.02595,8.37253 -0.02595,12.38838c0,9 -0.00027,18.00417 -0.00027,27.00417c0,10 -0.00063,20.00449 -0.00063,30.00449c0,2 -0.29436,4.03015 -0.00016,6.00087c0.07028,0.47079 0.92329,0.89453 0.63178,1.23238c-0.29152,0.33785 -0.65495,-0.66607 -1.06323,-0.73229c-2.27875,-0.36959 -4.60197,0.00027 -6.90293,0.00027c-8.79409,0 -526.86033,-3.30089 -532.2051,-3.97902c-1.19449,-0.15156 -6.95937,-2.07245 -8.44572,-3.5089c-2.16576,-2.09305 -1.47099,-5.6619 -1.7572,-8.32c-0.14684,-1.36379 -1.31648,-27.29399 -0.00057,-33.39423c0.0304,-9.97957 0.93271,-20.65321 0.00554,-30.55662c-0.75379,-8.05155 -1.58481,-16.08312 -2.59406,-24.06285c-0.3747,-2.9626 0.4013,-6.12965 -0.01156,-9.0964c-0.59545,-4.27876 -1.73145,-8.52104 -1.7138,-12.90691c-0.86175,-3.99483 -1.75312,-8.6047 -1.70927,-12.69637l-1.36485,-2.52781z" data-paper-data="{&quot;noHover&quot;:false,&quot;origItem&quot;:[&quot;Path&quot;,{&quot;applyMatrix&quot;:true,&quot;segments&quot;:[[-55.88814,244.20523],[[-54.30629,246.73272],[0,0],[-0.05081,4.09167]],[[-52.32502,259.42726],[-0.99871,-3.99483],[-0.02046,4.38587]],[[-50.33857,272.33226],[-0.69009,-4.27876],[0.47848,2.96675]],[[-50.32502,281.42726],[-0.43425,-2.9626],[1.16965,7.97973]],[[-47.31846,305.48637],[-0.87359,-8.05155],[1.07453,9.90341]],[[-47.32502,336.03817],[0.03523,-9.97957],[-1.52506,6.10024]],[[-48.30629,354.73271],[0,-6.27566],[0,3.44236]],[[-48.32502,365.42725],[-0.38276,-3.39144],[0.15413,1.3657]],[[-47.32502,369.42725],[-0.17018,-1.36379],[0.3317,2.6581]],[[-45.2888,377.74594],[-2.50998,-2.09305],[1.72259,1.43645]],[[-35.50083,378.25144],[-1.38434,-0.15156],[6.19426,0.67813]],[[-16.93569,380.42895],[-6.23924,-0.22122],[1.53406,0.61629]],[[-12.33352,382.27782],[-1.62187,-0.32045],[3.21542,0.63529]],[[-2.50083,382.25144],[-3.25726,-0.36438],[5.04842,0.56476]],[[12.59417,385.26499],[-4.9673,-0.72838],[5.2132,0.76443]],[[28.59417,385.26499],[-5.2333,-0.72999],[1.04398,0.14562]],[[31.59417,386.26499],[-1.04567,-0.13298],[2.98624,0.37975]],[[40.62502,386.28104],[-2.99154,-0.3354],[4.92296,0.55193]],[[55.39991,388.24123],[-4.95466,-0.41242],[6.08707,0.50668]],[[73.49061,389.32984],[-6.09534,-0.93765],[7.64552,0.31653]],[[96.37093,391.239],[-7.61909,-0.60866],[7.49654,0.59887]],[[119.19371,391.23271],[-7.5269,0],[16.33333,0]],[[168.19371,391.23271],[-16.33333,0],[12.31423,0]],[[205.14825,391.23312],[-12.3128,0.16924],[4.35752,-0.05989]],[[218.01648,390.239],[-4.32021,0.33772],[4.65808,-0.36414]],[[232.15326,390.23304],[-4.67143,0.06761],[10.63902,-0.15398]],[[264.03876,388.94825],[-10.66541,0.22957],[9.29053,-1.32377]],[[292.02641,387.9493],[-9.33563,0.81868],[9.30907,-0.81635]],[[320.02641,386.9493],[-9.31769,0.81711],[5.9879,-0.5251]],[[338.03835,385.23754],[-6.00934,0.37413],[7.97584,-0.49656]],[[362.07024,385.05894],[-7.9925,0.35442],[5.06762,-0.83173]],[[377.01901,384.06652],[-5.0708,0.49861],[8.74046,-0.85944]],[[403.19369,383.23272],[-8.81993,0],[17.66667,0]],[[456.19369,383.23272],[-17.66667,0],[21.95732,0]],[[522.39989,384.24124],[-21.81024,-2.29793],[9.28767,0.97855]],[[550.50035,384.69585],[-9.3234,-1.02732],[10.12817,1.13342]],[[581.19369,385.23272],[-10.19179,0],[2.66667,0]],[[589.19369,385.23272],[-2.64093,-0.36959],[0.47318,0.06622]],[[590.42592,385.96495],[-0.33785,0.33785],[0.33785,-0.33785]],[[589.69369,384.73272],[0.08145,0.47079],[-0.34096,-1.97072]],[[589.69369,378.73272],[0,2],[0,-10]],[[589.69369,348.73272],[0,10],[0,-9]],[[589.69369,321.73272],[0,9],[0,-4.01585]],[[589.72374,309.34627],[-0.48252,3.9634],[0.13446,-1.10448]],[[590.73667,306.16576],[-0.16222,1.10075],[0.93866,-6.36909]],[[592.69998,286.5555],[-0.46145,6.44102],[0.58565,-8.17474]],[[592.69369,261.73272],[0,8.19892],[0,-3.9959]],[[592.69369,249.73272],[-0.10792,3.9941],[0.02745,-1.01604]],[[592.88399,246.68943],[0.30147,0.97067],[-0.73313,-2.36053]],[[589.19369,245.23272],[1.58504,-0.05981],[-2.98818,0.11275]],[[580.19369,245.23272],[2.99055,0],[-12.46578,0]],[[542.79323,245.20044],[12.46517,0.11833],[-4.5496,-1.51653]],[[528.79323,243.20044],[4.66183,0.77697],[-4.30348,-0.71725]],[[515.79323,240.20044],[4.32526,0.618],[-2.50774,-0.35831]],[[508.19369,240.23272],[2.5332,0],[-6,0]],[[490.19369,240.23272],[6,0],[-3.29092,0]],[[479.84252,240.20793],[3.23117,0.46477],[-4.36533,-0.6279]],[[466.49472,237.13302],[4.30413,1.07587],[-4.15952,-1.43591]],[[451.59414,236.20044],[4.34921,-0.75164],[-1.0387,0.17951]],[[448.59414,237.20044],[1.03975,-0.17329],[-1.76198,0.29366]],[[443.29206,237.97851],[1.58226,-0.82904],[-6.59281,3.45436]],[[422.54043,246.20856],[7.56704,-1.16884],[-3.1973,0.49387]],[[412.19368,246.23272],[3.26579,0],[-6.33333,0]],[[393.19368,246.23272],[6.33333,0],[-11,0]],[[360.19368,246.23272],[11,0],[-6.26254,0]],[[340.79322,246.20044],[6.2009,0.86495],[-3.34459,-0.46653]],[[330.79322,244.20044],[3.33598,0.57653],[-2.29925,-0.39736]],[[323.79322,244.20044],[2.31096,0.32235],[-1.04398,-0.14562]],[[320.79322,243.20044],[1.0435,0.14907],[-1.31993,-0.18856]],[[316.79322,243.20044],[1.31333,0.23009],[-3.11484,-0.54571]],[[307.79322,240.20044],[3.11237,0.55958],[-1.4188,-0.25509]],[[303.46922,240.12545],[1.44133,0.025],[-1.80555,-1.14893]],[[297.79322,237.20044],[2.19668,0.33422],[-2.27548,-0.34622]],[[290.88822,237.21399],[2.2835,0.28867],[-2.43898,-0.30833]],[[283.79322,235.20044],[2.42369,0.41164],[-2.28613,-0.38828]],[[276.83669,235.23336],[2.31887,-0.00232],[-0.22441,0.00022]],[[267.34155,235.32413],[0.48259,-0.10193],[-1.59404,0.33667]],[[262.81003,237.15555],[1.57049,-0.43343],[-1.07924,0.29786]],[[259.46867,237.49694],[1.02898,-0.44121],[-1.43296,0.61444]],[[255.66509,240.21923],[1.3719,-0.74079],[-0.12627,0.06818]],[[246.05357,244.08018],[0.25752,-0.09624],[-0.33743,0.1261]],[[239.59413,246.20044],[0.1678,-0.02489],[-1.32338,0.19629]],[[235.58055,246.20261],[1.32442,-0.18916],[-4.61326,0.65889]],[[222.25513,248.25846],[4.82726,-0.03532],[-6.51454,1.31894]],[[201.88822,251.214],[6.72723,0.95044],[-2.72171,-0.38453]],[[193.88822,249.214],[2.73264,0.29704],[-1.61442,-0.17549]],[[189.01646,249.22644],[1.62053,0.1049],[-4.69169,-0.30369]],[[175.01646,247.22644],[4.68853,0.3332],[-2.93353,-0.20848]],[[166.19368,247.23273],[2.94093,0],[-2.89819,0]],[[157.49914,247.214],[2.8749,-0.36663],[-1.36333,0.17386]],[[153.49914,248.214],[1.36415,-0.16732],[-3.53914,0.4341]],[[142.19368,248.23273],[3.57294,0.03155],[-1.19162,-0.01052]],[[138.6193,248.16585],[1.14963,0.31371],[-1.43813,-0.39243]],[[134.6193,246.16585],[1.33333,0.66667],[-4.39846,0.12127]],[[120.79323,246.20045],[4.34062,0.72121],[-7.31793,-1.21592]],[[99.79323,239.20045],[7.33656,1.20841],[-0.98671,-0.16252]],[[96.79323,239.20045],[0.98561,0.16905],[-2.07784,-0.35638]],[[90.79323,237.20045],[2.07928,0.34793],[-4.10251,-0.68648]],[[78.31115,236.03396],[4.09331,1.0227],[-1.60003,-0.39976]],[[73.72092,234.18763],[1.61794,0.31963],[-3.81813,-0.7543]],[[61.19369,234.23274],[3.92519,0],[-2.7184,0]],[[52.59415,234.20046],[2.68413,-0.4084],[-2.10423,0.32016]],[[46.91815,237.12547],[2.02862,-0.64422],[-2.47821,0.787]],[[40.59415,237.20046],[2.36751,-0.40916],[-4.86907,0.84148]],[[25.88824,238.21401],[5.09763,0.55807],[-2.37482,-0.25999]],[[18.79324,237.20046],[2.35479,0.40289],[-3.08096,-0.52713]],[[9.79324,234.20046],[3.07069,0.49482],[-4.87709,-0.78591]],[[-4.8063,233.23274],[5.02714,0],[-4.96691,0]],[[-20.20676,233.20046],[4.90613,0.71054],[-2.08642,-0.30217]],[[-26.20676,231.20046],[2.07928,0.34793],[-1.84095,-0.30805]],[[-31.8063,231.23274],[1.86654,0],[-3.70435,0]],[[-43.49197,232.85937],[3.32544,-2.04753],[-1.77356,1.09201]],[[-48.36237,236.77359],[1.69895,-1.20481],[-2.77576,1.96843]],[[-55.88815,244.20525],[1.86484,-2.96376],[0,0]]],&quot;closed&quot;:true,&quot;fillColor&quot;:[0.51373,0.58039,0.27843],&quot;strokeWidth&quot;:0.5}]}" fill="url(#color-2)"/></g></g></svg>