<svg version="1.1" xmlns="http://www.w3.org/2000/svg" xmlns:xlink="http://www.w3.org/1999/xlink" width="97.30873" height="105.86851" viewBox="0,0,97.30873,105.86851"><defs><linearGradient x1="239.03939" y1="203.31054" x2="239.03939" y2="223.26017" gradientUnits="userSpaceOnUse" id="color-1"><stop offset="0" stop-color="#fd0101"/><stop offset="1" stop-color="#fd0101" stop-opacity="0"/></linearGradient><linearGradient x1="238.97354" y1="204.26673" x2="238.97354" y2="222.58054" gradientUnits="userSpaceOnUse" id="color-2"><stop offset="0" stop-color="#fc531d"/><stop offset="1" stop-color="#fc531d" stop-opacity="0"/></linearGradient><linearGradient x1="238.86564" y1="203.2839" x2="238.86564" y2="218.71604" gradientUnits="userSpaceOnUse" id="color-3"><stop offset="0" stop-color="#fe7a1b"/><stop offset="1" stop-color="#fe7a1b" stop-opacity="0"/></linearGradient><linearGradient x1="238.90204" y1="204.20218" x2="238.90204" y2="217.91052" gradientUnits="userSpaceOnUse" id="color-4"><stop offset="0" stop-color="#ff9f1c"/><stop offset="1" stop-color="#ff9f1c" stop-opacity="0"/></linearGradient><linearGradient x1="238.97469" y1="203.19422" x2="238.97469" y2="214.17413" gradientUnits="userSpaceOnUse" id="color-5"><stop offset="0" stop-color="#fafa01"/><stop offset="1" stop-color="#fafa01" stop-opacity="0"/></linearGradient><linearGradient x1="238.67849" y1="204.14801" x2="238.67849" y2="213.35331" gradientUnits="userSpaceOnUse" id="color-6"><stop offset="0" stop-color="#fdf977"/><stop offset="1" stop-color="#fdf977" stop-opacity="0"/></linearGradient><linearGradient x1="232.05331" y1="202.54262" x2="245.28718" y2="202.54262" gradientUnits="userSpaceOnUse" id="color-7"><stop offset="0" stop-color="#515151"/><stop offset="1" stop-color="#242424"/></linearGradient><linearGradient x1="224.58993" y1="177.30136" x2="252.01047" y2="177.30136" gradientUnits="userSpaceOnUse" id="color-8"><stop offset="0" stop-color="#ffa000"/><stop offset="1" stop-color="#de6b00"/></linearGradient><radialGradient cx="219.42651" cy="194.9533" r="12.35841" gradientUnits="userSpaceOnUse" id="color-9"><stop offset="0" stop-color="#dedede"/><stop offset="1" stop-color="#9c9c9c"/></radialGradient><radialGradient cx="257.5695" cy="195.31889" r="12.35841" gradientUnits="userSpaceOnUse" id="color-10"><stop offset="0" stop-color="#dedede"/><stop offset="1" stop-color="#9c9c9c"/></radialGradient><radialGradient cx="238.52449" cy="177.75476" r="22.57159" gradientUnits="userSpaceOnUse" id="color-11"><stop offset="0" stop-color="#3c3c3c"/><stop offset="1" stop-color="#939393"/></radialGradient><linearGradient x1="239.74788" y1="156.06832" x2="239.74788" y2="162.91937" gradientUnits="userSpaceOnUse" id="color-12"><stop offset="0" stop-color="#696969"/><stop offset="1" stop-color="#a0a0a0"/></linearGradient><radialGradient cx="235.71183" cy="133.41612" r="13.11833" gradientUnits="userSpaceOnUse" id="color-13"><stop offset="0" stop-color="#dcdcdc"/><stop offset="1" stop-color="#a0a0a0"/></radialGradient><radialGradient cx="240.22191" cy="140.53847" r="9.85359" gradientUnits="userSpaceOnUse" id="color-14"><stop offset="0" stop-color="#c5dfff"/><stop offset="1" stop-color="#219cff"/></radialGradient><radialGradient cx="230.94677" cy="133.70646" r="10.07074" gradientUnits="userSpaceOnUse" id="color-15"><stop offset="0" stop-color="#303030"/><stop offset="1" stop-color="#292929"/></radialGradient><radialGradient cx="247.37487" cy="130.52661" r="2.65078" gradientUnits="userSpaceOnUse" id="color-16"><stop offset="0" stop-color="#787878"/><stop offset="1" stop-color="#292929"/></radialGradient><radialGradient cx="236.22257" cy="132.69164" r="4.17314" gradientUnits="userSpaceOnUse" id="color-17"><stop offset="0" stop-color="#a7a7a7"/><stop offset="1" stop-color="#292929"/></radialGradient></defs><g transform="translate(-190.3704,-129.64767)"><g data-paper-data="{&quot;isPaintingLayer&quot;:true}" fill-rule="nonzero" stroke-linejoin="miter" stroke-miterlimit="10" stroke-dasharray="" stroke-dashoffset="0" style="mix-blend-mode: normal"><g data-paper-data="{&quot;index&quot;:null}" stroke="none" stroke-width="0.5" stroke-linecap="butt"><path d="M243.27819,204.82414c-0.12688,0.25933 -0.44964,0.25933 -0.44964,0.25933l-0.38331,-0.03576c-1.15531,-0.46212 -2.15566,-0.91137 -3.42093,-0.65832c-1.53105,0.0058 -3.22433,-0.21432 -4.28453,1.17377c-0.27159,0.35559 -0.14841,1.15146 -0.53481,1.53265c-0.53015,0.523 -1.18111,0.38469 -1.73068,0.83858c-0.45504,0.37582 -1.20978,1.02636 -1.43204,1.57342c-0.14504,0.35697 -0.21634,1.85022 0.38873,1.21394c3.48656,0.15215 -0.84834,6.41157 0.00036,8.4357c0.19857,0.47356 5.42748,-2.52903 3.5935,0.5507c-0.2604,0.45913 -0.56278,0.89715 -0.90251,1.3011c-0.83368,0.99128 -0.73871,1.33263 0.72763,0.79162c1.34313,-0.49555 2.04483,-2.10825 3.2519,-2.71144c0.39063,-0.1952 0.89778,-0.48558 1.28071,-0.27569c0.13287,0.07283 0.09965,5.51431 2.20313,3.10279c0.61516,-0.60918 1.21046,-2.49811 2.10944,-2.61613c0.54376,-0.07138 0.83435,1.55119 1.19128,1.13481c0.77647,-0.90581 -0.23099,-3.00534 0.51052,-3.90505c0.37353,-0.45322 1.21661,-0.44055 1.60708,-0.04164c-0.01937,-0.09588 -0.03184,-0.18411 -0.03153,-0.24571c0.00373,-0.75279 -0.11213,-1.24189 -0.50336,-1.88833c-0.94905,-1.217 -1.60654,-4.1139 0.02612,-4.95273c0.67508,-0.34685 -1.14657,-1.0332 -1.52407,-1.69163c-0.20696,-0.36098 0.0878,-0.83565 0.22869,-1.22718c0.04809,-0.13364 -1.66834,-1.49358 -1.9217,-1.65877zM243.08073,204.14709c0.00343,-0.00612 0.00701,-0.01227 0.01072,-0.01846c0.25725,-0.42874 0.68599,-0.1715 0.68599,-0.1715c1.16094,0.70588 2.67643,1.95867 1.90596,3.12521c-0.49786,0.75381 1.58468,1.15907 1.78393,2.04019c0.09969,0.44086 -0.42171,0.81057 -0.72434,1.14628c-0.70455,0.78157 0.00132,2.85342 0.54718,3.51479c0.25994,0.43599 1.44559,3.68896 0.44519,4.07023c-0.96748,0.36873 -1.21984,-0.23854 -1.54909,-0.726c-0.24045,-0.356 0.00932,0.85916 0.00768,1.28875c-0.00236,0.61476 -0.2085,2.63829 -0.87816,2.92176c-0.37962,0.1607 -0.8454,-0.06134 -1.21066,-0.25245c-0.25605,-0.13397 -0.23975,-1.04709 -0.36468,-0.78651c-0.41478,0.86511 -0.75604,1.627 -1.44764,2.32426c-0.87286,0.80973 -2.48215,0.93484 -3.31422,-0.14156c-0.14232,-0.18412 -0.40132,-1.65615 -0.40423,-2.4354c-0.41338,0.47902 -1.26663,1.14813 -1.30898,1.18482c-1.10455,0.95704 -2.31468,2.02218 -3.91814,1.62837c-1.9942,-0.48978 0.00005,-2.49249 0.73397,-3.53007c-0.68396,0.4178 -2.79524,1.19933 -3.37174,0.51967c-0.98053,-1.15598 0.28737,-4.96565 0.68191,-6.05122c0.1574,-0.43309 1.14361,-2.23829 0.30654,-2.11278c-1.51842,0.65043 -2.05062,-1.31377 -1.58742,-2.54075c0.65705,-1.74048 2.35753,-1.69476 3.35859,-2.72601c0.29793,-0.30692 0.21287,-1.10812 0.45327,-1.43158c1.22532,-1.64873 3.18901,-1.60098 5.0034,-1.59286c1.42349,-0.28469 2.59445,0.20643 3.89085,0.72499l0.01192,-0.03576c0,0 0.12647,0 0.25219,0.0636z" fill="url(#color-1)"/><path d="M242.84952,205.03812c0,0 0.32417,0.00066 0.45105,-0.25866c0.25337,0.16519 1.9808,1.53262 1.93271,1.66627c-0.14089,0.39152 -0.43284,0.86893 -0.22588,1.22991c0.3775,0.65844 2.20704,1.35569 1.53195,1.70254c-1.63267,0.83883 -0.96965,3.76545 -0.02059,4.98246c0.39123,0.64645 0.50463,1.146 0.5009,1.89879c-0.0003,0.06159 0.01173,0.15104 0.03109,0.24692c-0.39047,-0.39892 -1.23525,-0.40765 -1.60878,0.04557c-0.74151,0.8997 0.25317,3.0157 -0.5233,3.92151c-0.35693,0.41638 -0.64844,-1.20544 -1.1922,-1.13406c-0.89898,0.11802 -1.5109,2.01577 -2.12605,2.62495c-2.10348,2.41152 -2.08117,-3.02789 -2.21405,-3.10072c-0.38293,-0.20988 -0.90147,0.08005 -1.29209,0.27525c-1.20707,0.6032 -1.92326,2.21134 -3.26639,2.70689c-1.46634,0.54101 -1.56617,0.19692 -0.73249,-0.79436c0.33973,-0.40395 0.64245,-0.84176 0.90285,-1.30088c1.83398,-3.07973 -3.40814,-0.08922 -3.6067,-0.56278c-0.84871,-2.02413 3.47893,-8.33068 -0.00763,-8.48283c-0.60507,0.63627 -0.53154,-0.86224 -0.3865,-1.21922c0.22226,-0.54705 0.98363,-1.20773 1.43868,-1.58354c0.54957,-0.45389 1.20863,-0.32325 1.73878,-0.84625c0.3864,-0.38119 0.2696,-1.18116 0.54119,-1.53674c1.0602,-1.38809 2.77746,-1.17394 4.30851,-1.17974c1.26528,-0.25305 2.28449,0.20002 3.43979,0.66214l0.38514,0.03657z" data-paper-data="{&quot;noHover&quot;:false,&quot;origItem&quot;:[&quot;Path&quot;,{&quot;applyMatrix&quot;:true,&quot;segments&quot;:[[[234.50421,204.82417],[0.12688,0.25932],[-0.25336,0.16519]],[[232.58251,206.48294],[-0.04809,-0.13365],[0.14089,0.39153]],[[232.8112,207.71012],[0.20696,-0.36098],[-0.3775,0.65843]],[[231.28713,209.40175],[-0.67509,-0.34685],[1.63266,0.83883]],[[231.31325,214.35448],[0.94906,-1.21701],[-0.39123,0.64644]],[[230.80989,216.24281],[-0.00373,-0.75279],[0.00031,0.0616]],[[230.77836,216.48853],[0.01936,-0.09588],[0.39047,-0.39891]],[[232.38544,216.53016],[-0.37353,-0.45322],[0.74151,0.89971]],[[232.89596,220.43522],[-0.77647,-0.90581],[0.35693,0.41638]],[[234.08724,219.30041],[-0.54376,-0.07138],[0.89898,0.11802]],[[236.19668,221.91654],[-0.61515,-0.60918],[2.10348,2.41152]],[[238.39981,218.81375],[-0.13288,0.07283],[0.38293,-0.20989]],[[239.68052,219.08944],[-0.39062,-0.1952],[1.20707,0.60319]],[[242.93242,221.80088],[-1.34313,-0.49555],[1.46634,0.54101]],[[243.66006,221.00926],[0.83368,0.99128],[-0.33973,-0.40395]],[[242.75755,219.70816],[0.26039,0.45912],[-1.83398,-3.07973]],[[246.35104,219.15746],[-0.19856,0.47356],[0.8487,-2.02413]],[[246.35141,210.72176],[-3.48656,0.15215],[0.60507,0.63628]],[[246.74014,209.50782],[0.14504,0.35698],[-0.22226,-0.54706]],[[245.3081,207.9344],[0.45504,0.37581],[-0.54957,-0.45389]],[[243.57742,207.09582],[0.53015,0.523],[-0.3864,-0.38119]],[[243.04261,205.56317],[0.27159,0.35558],[-1.0602,-1.38809]],[[238.75809,204.38941],[1.53105,0.0058],[-1.26527,-0.25305]],[[235.33716,205.04773],[1.1553,-0.46212],[0,0]],[234.95385,205.0835]],&quot;closed&quot;:true}]}" fill="url(#color-2)"/><path d="M241.98661,205.19961c-1.3611,-0.66495 -4.33574,-1.58385 -5.17494,-0.32376c-0.66034,0.99152 -0.56525,3.44653 -2.27041,3.79255c-0.00021,0.01332 -0.00043,0.02659 -0.00066,0.03979l0.01176,0.01411l-0.01222,0.01018c-0.01478,0.75065 -0.08746,1.32459 -0.20991,2.05929c-0.06398,0.38387 -0.54574,1.11845 -0.15846,1.1567c0.58045,0.05735 1.40799,-0.08245 1.69775,0.42377c0.38944,0.68037 -0.73881,2.86689 -0.94915,3.47712c1.61542,2.47511 1.9657,-1.18391 3.6815,-0.45093c0.46696,0.19948 0.49286,1.07146 0.73485,1.40714c0.2244,0.31127 0.55575,-0.70048 0.93804,-0.66729c0.68729,0.05967 1.04507,2.24873 1.30224,1.60858c0.2026,-0.50431 0.39335,-1.81564 0.85597,-1.56776c0.14115,-0.80019 0.41134,-1.30406 0.86233,-1.9822c0.89264,-1.43831 -0.66536,-2.09571 -0.57084,-3.51353c0.02912,-0.43684 0.49932,-0.81521 0.91964,-0.93773c0.60349,-0.17592 -0.94302,-0.92776 -1.08997,-1.53896c-0.08706,-0.3621 -0.17851,-0.80534 0.0254,-1.11697c0.15406,-0.23546 1.01578,0.19704 0.84377,-0.02565c-0.44171,-0.57184 -0.95768,-1.18013 -1.39687,-1.79471c0,0 -0.01863,-0.02607 -0.03985,-0.06974zM243.20775,205.14548c0.52603,0.63799 1.34015,1.64456 1.19978,2.09547c-0.09424,0.30273 -0.6248,0.70088 -0.92884,0.70747c0.1609,0.22079 0.36974,0.55101 0.46619,0.71766c0.17566,0.3035 0.72732,1.12558 0.6371,1.42652c-0.10273,0.34261 -0.91618,0.29014 -0.8589,0.6432c0.26574,1.63798 1.42312,2.27804 0.41723,3.99586c-0.35907,0.53722 -0.61037,0.90798 -0.71297,1.54177v0.75986c0,0.27614 -0.22386,0.5 -0.5,0.5c-0.10668,0 -0.20555,-0.03341 -0.28673,-0.09034c0.02288,0.34801 0.02531,0.94043 -0.7343,1.24814c-0.7028,0.2847 -1.02764,-1.9687 -1.66199,-1.55327c-0.42503,0.27835 -1.00248,0.78765 -1.43334,0.51841c-0.42578,-0.26607 -0.49538,-0.88132 -0.64847,-1.35948c-0.10832,-0.33833 -0.45799,0.54458 -0.71128,0.79367c-0.36816,0.36203 -0.75187,0.86909 -1.40245,0.71313c-0.53501,-0.12825 -1.83954,-1.3578 -2.10941,-1.76012c0.12089,-0.80219 1.17402,-2.50267 1.02701,-3.2418c-0.08238,-0.41416 -0.90601,0.24845 -1.26649,0.02853c-0.91499,-0.55821 -0.47501,-2.61043 -0.04177,-3.48427l-0.1077,-0.02154c-0.23369,-0.04198 -0.41102,-0.24633 -0.41102,-0.49211c0,-0.15574 0.07121,-0.29485 0.18284,-0.38655l0.58992,-0.4916l0.10473,0.12566c0.72651,-0.69067 1.62951,-1.53442 1.71538,-1.8703c0.23538,-0.92068 -0.36463,-1.76955 0.83306,-2.46202c1.73939,-1.00566 4.57715,-0.19615 6.20543,0.73403c0.11952,0.01277 0.45896,0.08529 0.45896,0.49727c0,0.06324 -0.00799,0.11848 -0.02197,0.16674z" fill="url(#color-3)"/><path d="M236.79562,204.82847c0.8392,-1.26009 3.85316,-0.33806 5.21426,0.32688c0.02122,0.04366 0.0403,0.06998 0.0403,0.06998c0.43919,0.61457 0.96889,1.23377 1.4106,1.80561c0.17201,0.22269 -0.76117,-0.14004 -0.91524,0.09542c-0.20391,0.31164 -0.03906,0.68744 0.048,1.04954c0.14695,0.61119 1.70224,1.38048 1.09874,1.5564c-0.42032,0.12253 -0.88895,0.50936 -0.91807,0.9462c-0.09452,1.41782 1.45439,2.10916 0.56175,3.54747c-0.45099,0.67814 -0.73348,1.1941 -0.87464,1.99429c-0.46262,-0.24788 -0.66318,1.06871 -0.86578,1.57302c-0.25717,0.64015 -0.62048,-1.54707 -1.30777,-1.60674c-0.38228,-0.03319 -0.72291,0.98015 -0.94731,0.66888c-0.242,-0.33568 -0.27511,-1.20764 -0.74207,-1.40712c-1.7158,-0.73298 -2.09457,2.91462 -3.70999,0.43951c0.21033,-0.61023 1.32466,-2.81532 0.93523,-3.49568c-0.28975,-0.50622 -1.12055,-0.37706 -1.70101,-0.4344c-0.38728,-0.03826 0.0937,-0.78498 0.15768,-1.16885c0.12245,-0.7347 0.20092,-1.32926 0.2157,-2.07991l0.01229,-0.01031l-0.01173,-0.01417c0.00023,-0.0132 0.00062,-0.02678 0.00082,-0.0401c1.70516,-0.34602 1.63791,-2.82438 2.29824,-3.8159z" data-paper-data="{&quot;noHover&quot;:false,&quot;origItem&quot;:[&quot;Path&quot;,{&quot;applyMatrix&quot;:true,&quot;segments&quot;:[[[235.7958,205.19961],[1.3611,-0.66494],[-0.02122,0.04367]],[[235.75595,205.26935],[0,0],[-0.43919,0.61458]],[[234.35908,207.06406],[0.44171,-0.57184],[-0.17201,0.22269]],[[235.20285,207.08971],[-0.15407,-0.23546],[0.20391,0.31163]],[[235.22826,208.20668],[0.08706,-0.3621],[-0.14695,0.6112]],[[234.13829,209.74564],[-0.6035,-0.17592],[0.42032,0.12252]],[[235.05793,210.68337],[-0.02912,-0.43684],[0.09452,1.41782]],[[234.48709,214.1969],[-0.89264,-1.43831],[0.45099,0.67814]],[[235.34942,216.1791],[-0.14116,-0.80019],[0.46262,-0.24788]],[[236.20539,217.74686],[-0.2026,-0.50431],[0.25717,0.64015]],[[237.50764,216.13828],[-0.68729,0.05967],[0.38229,-0.03319]],[[238.44568,216.80557],[-0.2244,0.31127],[0.24199,-0.33568]],[[239.18053,215.39843],[-0.46696,0.19948],[1.7158,-0.73298]],[[242.86202,215.84936],[-1.61542,2.47511],[-0.21034,-0.61023]],[[241.91287,212.37224],[-0.38943,0.68036],[0.28976,-0.50622]],[[243.61062,211.94847],[-0.58045,0.05734],[0.38728,-0.03825]],[[243.45216,210.79178],[0.06398,0.38387],[-0.12245,-0.7347]],[[243.24225,208.73248],[0.01478,0.75065],[0,0]],[243.23004,208.7223],[[243.2418,208.70819],[0,0],[-0.00023,-0.0132]],[[243.24114,208.6684],[0.0002,0.01332],[-1.70516,-0.34602]],[[240.97074,204.87585],[0.66033,0.99152],[-0.8392,-1.26009]]],&quot;closed&quot;:true}]}" fill="url(#color-4)"/><path d="M239.17827,204.19772c-0.43142,0.01953 -1.24891,0.13183 -1.09633,0.68255c0.06589,0.2378 0.42378,0.37416 0.40426,0.62015c-0.02907,0.3663 -1.14773,1.62179 -1.37224,1.9361c-0.43382,0.65057 -1.26951,2.89812 -0.0839,3.42132c0.28048,0.12378 0.72429,-0.14884 0.91522,0.09103c0.40604,0.51015 0.05835,1.18325 0.13742,1.74112c0.02313,0.16318 0.06207,0.64375 0.10187,0.48382c0.09389,-0.37728 -0.03743,-0.76422 0.74119,-0.78803c0.5109,-0.01563 1.12322,1.29424 1.29929,0.81438c0.13958,-0.38042 0.39335,-0.88248 0.71681,-0.97597c-0.8709,-1.20187 -2.34853,-3.84657 -1.61511,-5.11389c0.18712,-0.32333 1.0009,-0.54738 1.48998,-0.60479c-0.41954,-0.3759 -1.05713,-1.45647 -1.30849,-1.59208c0,0 -0.40004,-0.24003 -0.19544,-0.64279c-0.05472,-0.02114 -0.10075,-0.04898 -0.13454,-0.07293zM239.92524,204.01265c0.05977,0.02065 0.09749,0.04328 0.09749,0.04328c0.49451,0.31575 2.32462,2.2854 1.96213,3.03606c-0.41839,0.86642 -1.43708,-0.26536 -1.78064,0.49791c-0.47084,1.04605 1.14753,3.56763 1.74341,4.30665l0.00748,0.02107l0.00494,-0.00329l0.39144,0.58716c0.05536,0.08048 0.08777,0.17798 0.08777,0.28304c0,0.27614 -0.22386,0.5 -0.5,0.5c-0.03125,0 -0.06183,-0.00287 -0.09149,-0.00835l-0.10291,-0.01715c-0.66943,0.35777 -1.08797,1.01886 -1.80115,0.9006c-0.39621,-0.0657 -0.52208,-0.72012 -0.91941,-0.77872c-0.38085,-0.05617 -0.45524,0.81218 -0.83973,0.7929c-1.76727,-0.08863 -0.5236,-2.15575 -0.9464,-2.51783c-0.17011,-0.14568 -0.47534,0.20903 -0.6657,0.09103c-1.64874,-1.02199 -1.08219,-3.67725 -0.28152,-4.87853c1.08227,-1.51518 0.69578,-3.65138 3.07931,-3.67425l0.45236,0.24525c0,0 0.26949,0.26948 0.10263,0.57318z" fill="url(#color-5)"/><path d="M238.07427,204.83084c-0.15258,-0.55072 0.67798,-0.66331 1.10941,-0.68284c0.03379,0.02396 0.08137,0.05199 0.13609,0.07313c-0.2046,0.40277 0.19899,0.64342 0.19899,0.64342c0.25136,0.13561 0.91287,1.22881 1.33241,1.60472c-0.48908,0.05741 -1.31902,0.27117 -1.50614,0.5945c-0.73341,1.26732 0.7532,4.00045 1.6241,5.20232c-0.32346,0.09349 -0.58811,0.60088 -0.72769,0.9813c-0.17607,0.47986 -0.80143,-0.82735 -1.31233,-0.81173c-0.77862,0.02381 -0.65624,0.41055 -0.75013,0.78783c-0.0398,0.15993 -0.08067,-0.3209 -0.1038,-0.48408c-0.07907,-0.55787 0.26025,-1.233 -0.1458,-1.74314c-0.19092,-0.23987 -0.64971,0.02469 -0.93019,-0.09909c-1.18561,-0.52321 -0.35737,-2.84224 0.07645,-3.49281c0.22451,-0.31431 1.37847,-1.58757 1.40754,-1.95387c0.01952,-0.24598 -0.34303,-0.38185 -0.40891,-0.61965z" data-paper-data="{&quot;noHover&quot;:false,&quot;origItem&quot;:[&quot;Path&quot;,{&quot;applyMatrix&quot;:true,&quot;segments&quot;:[[[238.60412,204.19771],[0.43143,0.01953],[-0.03379,0.02395]],[[238.46958,204.27065],[0.05472,-0.02114],[0.2046,0.40276]],[[238.27414,204.91343],[0,0],[-0.25136,0.13561]],[[236.96565,206.50552],[0.41954,-0.37591],[0.48908,0.05741]],[[238.45563,207.11031],[-0.18712,-0.32333],[0.73342,1.26732]],[[236.84052,212.22419],[0.8709,-1.20187],[0.32346,0.09349]],[[237.55733,213.20016],[-0.13958,-0.38042],[0.17607,0.47986]],[[238.85662,212.38578],[-0.5109,-0.01562],[0.77862,0.02381]],[[239.59782,213.17381],[-0.09389,-0.37728],[0.0398,0.15993]],[[239.69969,212.68999],[-0.02313,0.16318],[0.07907,-0.55787]],[[239.83711,210.94887],[-0.40605,0.51014],[0.19093,-0.23987]],[[240.75234,210.85784],[-0.28048,0.12378],[1.18561,-0.5232]],[[240.66843,207.43652],[0.43382,0.65057],[-0.22451,-0.31431]],[[239.2962,205.50041],[0.02907,0.3663],[-0.01952,-0.24599]],[[239.70045,204.88026],[-0.06588,0.2378],[0.15258,-0.55072]]],&quot;closed&quot;:true}]}" fill="url(#color-6)"/></g><path d="M232.05331,204.99334l2.6141,-4.90143h7.51553l3.10424,4.90143z" fill="url(#color-7)" stroke="#000000" stroke-width="0" stroke-linecap="butt"/><path d="M238.28455,201.2444c-14.02176,0.20134 -13.69397,-10.72028 -13.69397,-23.94441c0,-13.22413 0.5759,-23.94441 13.69397,-23.94441c13.63483,0 13.69397,10.72028 13.69397,23.94441c0,13.22413 1.36161,23.72823 -13.69397,23.94441z" fill="url(#color-8)" stroke="#000000" stroke-width="0" stroke-linecap="butt"/><path d="M215.00276,207.3117c0,0 4.51981,-6.93576 5.97062,-10.98881c1.49692,-4.18186 2.87688,-13.728 2.87688,-13.728l-0.28088,17.27368z" fill="url(#color-9)" stroke="#000000" stroke-width="0" stroke-linecap="butt"/><path d="M253.42663,200.23416l-0.28088,-17.27367c0,0 1.37996,9.54614 2.87688,13.728c1.45081,4.05304 5.97062,10.98881 5.97062,10.98881z" data-paper-data="{&quot;index&quot;:null}" fill="url(#color-10)" stroke="#000000" stroke-width="0" stroke-linecap="butt"/><path d="M223.5568,200.32636v-45.14319h29.93538v45.14319z" fill="url(#color-11)" stroke="#ed6b00" stroke-width="0" stroke-linecap="butt"/><g stroke="#000000" stroke-width="0" stroke-linecap="butt"><path d="M277.75637,163.72435c0,0 -2.9756,-0.52609 -6.44817,-0.01678c-0.83507,0.12247 -3.58489,0.34711 -4.44143,0.48071c-2.02718,0.31616 -4.02568,0.69634 -5.27349,0.86205c-2.68382,0.35646 -6.09403,0.73526 -6.09403,0.73526c0,0 -6.69945,0.58739 -6.95994,-0.40731c-1.52341,-5.81739 6.02393,-5.06133 6.02393,-5.06133c0,0 4.86104,-0.61437 7.71447,-0.99334c1.16127,-0.15425 2.11203,0.286 3.92015,0.11213c0.81054,-0.07794 4.32858,0.04365 6.47917,0.02473c3.58067,-0.03149 5.73882,-0.40432 5.73882,-0.40432z" data-paper-data="{&quot;index&quot;:null}" fill="#bdbdbd"/><path d="M282.94187,159.02418c-0.02499,0.20691 3.72312,0.02532 3.68403,0.90436c-0.01924,0.43235 -2.43897,0.02301 -3.27452,0.61474c-0.44228,0.31322 4.28067,-0.33599 3.79398,0.79831c-0.16709,0.38942 -3.59671,0.08886 -4.4192,0.49766c-0.44029,0.21885 5.22249,-0.03766 4.94294,0.72306c-0.16592,0.45161 -3.28915,0.00341 -4.6967,0.30591c-0.68572,0.14738 3.85534,0.38353 3.52874,0.93069c-0.19993,0.33493 -4.64292,0.32216 -4.69334,0.35907c-0.28336,0.20746 2.40452,0.94041 1.75428,1.2016c-1.19839,0.48138 -2.6184,-0.45362 -3.95223,-1.19055c-0.77931,-0.43057 -1.95933,-0.47025 -1.95933,-0.47025c0,0 -0.46274,-1.60525 -0.3514,-2.39339c0.10842,-0.76739 1.01092,-2.27483 1.01092,-2.27483c0,0 4.68472,-0.4447 4.63179,-0.00639z" data-paper-data="{&quot;index&quot;:null}" fill="#777777"/></g><g><path d="M251.94173,227.20601c0,0 -6.41594,-24.98955 -8.12079,-29.14285c-0.55746,-1.35808 -3.61557,-0.8928 -3.61557,-0.8928c0,0 -3.73171,-3.63614 -0.16131,-4.28412c3.01753,-0.54765 10.05389,0.39366 10.05389,0.39366l9.71827,32.497z" data-paper-data="{&quot;index&quot;:null}" fill="#494949" stroke="#000000" stroke-width="0" stroke-linecap="butt"/><path d="M266.73312,231.64103c-0.58323,0.10585 -2.59917,0.48559 -4.64069,0.77424c-1.24119,0.17549 -1.9819,-0.26819 -2.92578,-0.24206c-1.18829,0.0329 -2.85194,0.74167 -3.72173,0.70488c-1.60271,-0.06777 -2.47536,-0.34128 -2.47536,-0.34128c0,0 -0.44789,-0.96086 -0.56419,-1.50931c-0.15668,-0.73891 -0.29135,-2.52558 -0.29135,-2.52558c0,0 5.81752,-1.17733 8.13097,-1.3936c1.36894,-0.12797 4.28791,-0.12084 4.28791,-0.12084c0,0 1.54623,0.34503 1.83269,0.72725c0.35085,0.46812 1.21415,1.80078 1.21415,1.80078c0,0 -0.03305,1.97784 -0.84665,2.1255z" data-paper-data="{&quot;index&quot;:null}" fill="#141415" stroke="#000000" stroke-width="0" stroke-linecap="butt"/><path d="M266.00678,229.15598c-0.24423,0.04432 0.97712,1.45048 -2.33797,1.7792c-3.13051,0.31043 -2.94404,-0.67333 -4.0451,-0.55542c-2.30235,0.24656 -2.4398,1.04755 -3.45072,1.07554c-0.35207,0.00975 -0.52492,-0.02114 -1.92918,-0.63608c-0.96576,-0.42291 -0.96768,-1.6042 -1.66996,-2.11509c-1.02584,-0.74626 -1.13223,-1.71112 -1.13223,-1.71112l-0.61938,-2.98511c0,0 0.87261,2.08449 1.84528,2.74584c0.87027,0.59172 2.27631,-0.43218 2.75219,-0.51869c0.8333,-0.15148 -1.26136,-3.0925 -0.46135,-3.21916c0.43017,-0.0681 3.62111,-0.8951 3.62111,-0.8951c0,0 0.76031,3.50038 0.99312,3.47862c1.36894,-0.12797 4.64583,-0.1858 4.64583,-0.1858c0,0 1.54623,0.34503 1.8327,0.72725c0.35085,0.46812 1.14876,2.79858 1.14876,2.79858c0,0 -0.3795,0.06887 -1.19311,0.21654z" data-paper-data="{&quot;index&quot;:null}" fill="#252527" stroke="#000000" stroke-width="0" stroke-linecap="butt"/><path d="M260.56195,226.04839l-2.42994,1.55016" fill="none" stroke="#ffffff" stroke-width="0.5" stroke-linecap="round"/><path d="M262.35162,225.72359l-2.24568,1.88644" fill="none" stroke="#ffffff" stroke-width="0.5" stroke-linecap="round"/><path d="M263.46872,225.76733l-1.17189,1.69156" fill="none" stroke="#ffffff" stroke-width="0.5" stroke-linecap="round"/><path d="M258.35027,223.36879l-2.10427,0.62838" fill="none" stroke="#969696" stroke-width="0.5" stroke-linecap="round"/><path d="M258.71883,224.04133l-1.84401,0.70439" fill="none" stroke="#969696" stroke-width="0.5" stroke-linecap="round"/></g><g><path d="M229.10953,229.28119l1.33811,-33.89261c0,0 6.58175,-2.66028 9.64071,-2.87965c3.61942,-0.25956 0.90833,4.18983 0.90833,4.18983c0,0 -3.0778,0.30924 -3.28031,1.76325c-0.6193,4.44668 -0.62423,30.24671 -0.62423,30.24671z" fill="#494949" stroke="#000000" stroke-width="0" stroke-linecap="butt"/><path d="M244.84839,233.2222c0,0 -0.24593,1.96277 -1.07071,2.02192c-0.59124,0.0424 -2.63636,0.20276 -4.69709,0.26979c-1.25287,0.04075 -1.94147,-0.48015 -2.88267,-0.55585c-1.18492,-0.09532 -2.91523,0.4301 -3.776,0.29983c-1.58608,-0.24004 -2.42418,-0.60596 -2.42418,-0.60596c0,0 -0.34178,-1.00351 -0.3983,-1.56131c-0.07616,-0.75148 -0.01756,-2.54227 -0.01756,-2.54227c0,0 5.91049,-0.54374 8.23379,-0.50952c1.37476,0.02025 4.27597,0.34181 4.27597,0.34181c0,0 1.50004,0.50961 1.74368,0.92046c0.29838,0.5032 1.01308,1.92111 1.01308,1.92111z" data-paper-data="{&quot;index&quot;:null}" fill="#141415" stroke="#000000" stroke-width="0" stroke-linecap="butt"/><path d="M244.53278,232.60857c0,0 -0.3847,0.02759 -1.20948,0.08674c-0.24758,0.01776 0.81516,1.5473 -2.51605,1.51697c-3.14574,-0.02865 -2.85436,-0.98658 -3.96172,-0.98798c-2.31551,-0.00292 -2.53847,0.7786 -3.54652,0.69751c-0.35107,-0.02824 -0.51959,-0.07757 -1.84942,-0.84021c-0.91457,-0.52449 -0.78922,-1.69912 -1.43237,-2.28269c-0.93947,-0.85244 -0.94129,-1.82314 -0.94129,-1.82314l-0.29418,-3.03446c0,0 0.64296,2.16638 1.53872,2.92867c0.80146,0.68203 2.30962,-0.18443 2.79205,-0.21917c0.84476,-0.06082 -0.92085,-3.2104 -0.11186,-3.25013c0.43501,-0.02136 3.69647,-0.49977 3.69647,-0.49977c0,0 0.37878,3.56191 0.61258,3.56535c1.37475,0.02026 4.63881,0.31579 4.63881,0.31579c0,0 1.50004,0.50961 1.74368,0.92046c0.29839,0.5032 0.84057,2.90605 0.84057,2.90605z" data-paper-data="{&quot;index&quot;:null}" fill="#252527" stroke="#000000" stroke-width="0" stroke-linecap="butt"/><path d="M238.24495,229.01919l-2.58281,1.27937" fill="none" stroke="#ffffff" stroke-width="0.5" stroke-linecap="round"/><path d="M240.05917,228.8891l-2.43583,1.63353" fill="none" stroke="#ffffff" stroke-width="0.5" stroke-linecap="round"/><path d="M241.16506,229.05292l-1.34731,1.55548" fill="none" stroke="#ffffff" stroke-width="0.5" stroke-linecap="round"/><path d="M234.17508,226.51495l2.15973,-0.39803" fill="none" stroke="#969696" stroke-width="0.5" stroke-linecap="round"/><path d="M234.7196,227.32689l1.90916,-0.50163" fill="none" stroke="#969696" stroke-width="0.5" stroke-linecap="round"/></g><path d="M235.9198,162.91937v-6.85104h7.65615v6.85104z" fill="url(#color-12)" stroke="#000000" stroke-width="0" stroke-linecap="butt"/><path d="M252.80945,143.64573c0,7.73092 -5.73774,13.99807 -12.8156,13.99807c-7.07786,0 -12.8156,-6.26715 -12.8156,-13.99807c0,-7.73092 5.73774,-13.99806 12.8156,-13.99806c7.07786,0 12.8156,6.26714 12.8156,13.99806z" fill="url(#color-13)" stroke="none" stroke-width="0" stroke-linecap="butt"/><path d="M229.82836,194.84552c0,0 0.01297,-5.5622 -0.6558,-10.92984c-0.45441,-3.64728 -1.59703,-6.91759 -1.82297,-9.40649c-0.42408,-4.67137 -0.58124,-13.37126 -0.58124,-13.37126c0,0 3.67416,-0.68684 5.46124,-0.37004c2.27486,0.40327 7.08114,2.59345 7.08114,2.59345c0,0 3.61533,-2.27166 5.51648,-2.74078c2.00596,-0.49499 6.22176,-0.15569 6.22176,-0.15569c0,0 0.18638,9.21548 0.1239,12.65772c-0.05528,3.04555 -0.71277,6.39031 -0.88172,10.90155c-0.17413,4.64957 0.141,10.42164 0.141,10.42164c0,0 -2.77723,-0.69263 -5.59294,-0.68282c-1.2787,0.00445 -1.76269,1.05537 -2.96507,1.24796c-0.96106,0.15393 -2.6522,-0.53962 -3.5777,-0.55073c-0.69965,-0.0084 -2.05769,-0.47376 -2.55185,-0.46418c-0.9978,0.01936 -1.59112,0.90973 -2.74399,1.1011c-1.33919,0.22229 -3.17229,-0.25158 -3.17229,-0.25158z" fill="#d0d0d0" stroke="#292e32" stroke-width="0" stroke-linecap="butt"/><path d="M242.7359,170.5071l-0.12126,-5.82045l7.63934,0.36378v5.21415z" fill="#f200ff" stroke="none" stroke-width="0" stroke-linecap="butt"/><g stroke="#000000" stroke-width="0" stroke-linecap="butt"><path d="M197.96417,168.40999c0,0 2.18752,-0.28758 5.5739,-1.4515c2.0339,-0.69907 5.29794,-2.02108 6.0938,-2.2017c1.77541,-0.40296 2.48891,-1.23677 3.64678,-1.44577c2.84508,-0.51356 7.67895,-1.42499 7.67895,-1.42499c0,0 7.17126,-3.4069 8.23407,4.17524c0.16967,1.21043 -6.85239,2.53596 -6.85239,2.53596c0,0 -3.36953,0.70048 -6.0455,1.18351c-1.24416,0.22457 -3.28428,0.45005 -5.32497,0.75999c-0.86223,0.13097 -3.54582,0.79033 -4.38321,0.92707c-3.48231,0.5687 -6.06787,2.182 -6.06787,2.182z" fill="#bdbdbd"/><path d="M193.49262,170.01072c-0.2325,-0.49442 4.36242,-1.55655 4.36242,-1.55655c0,0 1.47779,1.45716 1.89967,2.31746c0.43331,0.88359 0.6668,2.91605 0.6668,2.91605c0,0 -1.09418,0.44485 -1.64825,1.21124c-0.94835,1.31173 -1.89524,2.88404 -3.22391,2.72606c-0.72093,-0.08571 1.50362,-1.84999 1.15043,-1.99678c-0.06284,-0.02612 -4.23959,1.48908 -4.56736,1.16513c-0.53545,-0.52923 3.64048,-2.33861 2.93361,-2.27933c-1.45097,0.12171 -4.20395,1.70018 -4.54836,1.22838c-0.58019,-0.79477 4.85693,-2.4071 4.35128,-2.51421c-0.94455,-0.20008 -4.04749,1.3093 -4.36707,0.91057c-0.93087,-1.16143 3.78528,-1.99743 3.23843,-2.21417c-1.0331,-0.40948 -3.14012,0.88603 -3.33842,0.38718c-0.40318,-1.01422 3.2005,-2.06761 3.09075,-2.30101z" data-paper-data="{&quot;index&quot;:null}" fill="#777777"/></g><g stroke-linecap="butt"><path d="M253.02025,143.26413c0,3.74486 0.0384,8.21376 -9.59547,8.69146c-10.76272,0.53367 -10.10384,-4.9466 -10.10384,-8.69146c0,-3.74486 4.40985,-6.78067 9.84967,-6.78067c5.43982,0 9.84967,3.03581 9.84967,6.78067z" data-paper-data="{&quot;index&quot;:null}" fill="url(#color-14)" stroke="#ed6b00" stroke-width="0"/><path d="M233.63717,133.71599c-0.16984,0.01553 -0.60661,0.06221 -1.07903,0.1438c-0.52185,0.20742 -1.13106,0.41772 -1.59752,0.64771c-0.28909,0.89276 0.78709,1.80702 -0.65422,2.4752c-2.45813,1.13958 -1.71655,-2.03888 -0.89769,-3.03685c1.27069,-1.10653 3.14359,-1.2394 4.75566,-1.549c2.22048,-0.42645 4.38435,-1.08334 6.57971,-1.21737c0.08249,-0.08622 0.19535,-0.14411 0.32353,-0.15569l0.58612,-0.0529c0.29539,-0.07774 0.61637,-0.15861 0.95355,-0.23507c0.87645,-0.27394 1.93099,-0.41625 2.91353,-0.50866c0.4818,-0.09462 0.9333,-0.1389 1.30669,-0.10536c0.27388,-0.02025 0.5286,-0.03932 0.7561,-0.05986l0.61787,-0.05577c0.28142,-0.0254 0.53014,0.18214 0.55554,0.46356c0.0226,0.25047 -0.13931,0.47504 -0.37361,0.53931l-0.32968,0.09745c0.145,0.12181 0.27656,0.26112 0.39244,0.4197l0.23414,-0.11908l0.29765,0.58522c0.03177,0.05903 0.05238,0.12532 0.05879,0.19629c0.0254,0.28142 -0.18214,0.53014 -0.46355,0.55553c-0.08558,0.00772 -0.16814,-0.00609 -0.24232,-0.03698l-0.50702,-0.19878l0.00585,-0.01492l-0.04787,-0.00377c-0.36209,-0.22374 -0.73047,-0.39249 -1.09838,-0.50678c-0.55947,-0.02006 -1.148,-0.08122 -1.74789,-0.1302c-1.01464,0.1745 -1.9334,0.80247 -2.5904,1.87097c0,0 -0.26893,0.43524 -0.70416,0.1663c-0.43523,-0.26893 -0.1663,-0.70417 -0.1663,-0.70417c0.0575,-0.09265 0.11686,-0.18277 0.17799,-0.27034l-0.28392,0.09053c-0.03801,0.01299 -0.07817,0.02169 -0.11996,0.02546c-0.28142,0.0254 -0.53014,-0.18214 -0.55553,-0.46356c-0.01286,-0.14243 0.03395,-0.27647 0.11981,-0.37743c-0.2451,0.00049 -0.4766,0.01384 -0.6735,0.06241c-1.37524,0.33924 -3.48763,0.45199 -5.48058,0.75785c0.01121,0.24126 -0.14794,0.45435 -0.37516,0.51668l-0.59763,0.17665l-0.00571,-0.01931l-0.00747,0.00194z" fill="url(#color-15)" stroke="none" stroke-width="0.5"/><path d="M248.73121,129.98496c2.70896,-0.28418 2.68558,-0.24349 2.90043,1.58673c0.21485,1.83022 -0.78194,3.36186 -2.22639,3.42102c-1.44446,0.05917 -2.7896,-1.37656 -3.00445,-3.20678c-0.21485,-1.83022 -0.20983,-1.53449 2.33041,-1.80097z" data-paper-data="{&quot;index&quot;:null}" fill="url(#color-16)" stroke="#000000" stroke-width="0"/><path d="M242.11119,132.66582c0.35755,1.99142 -1.17444,3.9329 -3.4218,4.33639c-2.24735,0.40349 -4.35904,-0.88377 -4.71659,-2.8752c-0.35755,-1.99142 -0.40888,-2.02662 3.87102,-2.60142c4.01334,-0.53901 3.90982,-0.85119 4.26737,1.14023z" fill="url(#color-17)" stroke="#000000" stroke-width="0"/></g></g></g></svg>