<svg version="1.1" xmlns="http://www.w3.org/2000/svg" xmlns:xlink="http://www.w3.org/1999/xlink" width="168.06271" height="84.72192" viewBox="0,0,168.06271,84.72192"><defs><radialGradient cx="231.48074" cy="189.13486" r="34.955" gradientUnits="userSpaceOnUse" id="color-1"><stop offset="0" stop-color="#33266a"/><stop offset="1" stop-color="#949074"/></radialGradient><linearGradient x1="266.40287" y1="180.3179" x2="258.83498" y2="187.75383" gradientUnits="userSpaceOnUse" id="color-2"><stop offset="0" stop-color="#694444"/><stop offset="1" stop-color="#98a1b9"/></linearGradient><radialGradient cx="284.29594" cy="148.99512" r="20.31544" gradientUnits="userSpaceOnUse" id="color-3"><stop offset="0" stop-color="#dcdcdc"/><stop offset="1" stop-color="#a0a0a0"/></radialGradient><radialGradient cx="277.5013" cy="144.33315" r="15.59586" gradientUnits="userSpaceOnUse" id="color-4"><stop offset="0" stop-color="#1c2f30"/><stop offset="1" stop-color="#142913"/></radialGradient><radialGradient cx="300.60481" cy="156.06858" r="4.10509" gradientUnits="userSpaceOnUse" id="color-5"><stop offset="0" stop-color="#786c41"/><stop offset="1" stop-color="#141a29"/></radialGradient><radialGradient cx="284.91476" cy="148.10978" r="6.46263" gradientUnits="userSpaceOnUse" id="color-6"><stop offset="0" stop-color="#7ba676"/><stop offset="1" stop-color="#291616"/></radialGradient><radialGradient cx="282.78322" cy="163.13343" r="15.25953" gradientUnits="userSpaceOnUse" id="color-7"><stop offset="0" stop-color="#d1ffc4"/><stop offset="1" stop-color="#2188ff"/></radialGradient><radialGradient cx="282.78322" cy="163.13343" r="15.25953" gradientUnits="userSpaceOnUse" id="color-8"><stop offset="0" stop-color="#ceffc4"/><stop offset="1" stop-color="#ff21cc"/></radialGradient><radialGradient cx="282.78322" cy="163.13343" r="15.25953" gradientUnits="userSpaceOnUse" id="color-9"><stop offset="0" stop-color="#ffe9c4"/><stop offset="1" stop-color="#4fff21"/></radialGradient><radialGradient cx="282.78322" cy="163.13343" r="15.25953" gradientUnits="userSpaceOnUse" id="color-10"><stop offset="0" stop-color="#ffe9c4"/><stop offset="1" stop-color="#4fff21"/></radialGradient><radialGradient cx="282.78321" cy="163.13343" r="15.25953" gradientUnits="userSpaceOnUse" id="color-11"><stop offset="0" stop-color="#ffe9c4"/><stop offset="1" stop-color="#ffa321"/></radialGradient><radialGradient cx="282.78319" cy="163.13342" r="15.25953" gradientUnits="userSpaceOnUse" id="color-12"><stop offset="0" stop-color="#c4f0ff"/><stop offset="1" stop-color="#3d21ff"/></radialGradient></defs><g transform="translate(-148.98922,-143.15443)"><g data-paper-data="{&quot;isPaintingLayer&quot;:true}" fill-rule="nonzero" stroke-linejoin="miter" stroke-miterlimit="10" stroke-dasharray="" stroke-dashoffset="0" style="mix-blend-mode: normal"><path d="M191.61501,176.10165l67.38526,-18.61805l12.34597,44.68461l-67.38526,18.61805z" fill="url(#color-1)" stroke="#ed6b00" stroke-width="0" stroke-linecap="butt"/><path d="M254.68,183.52527l7.5679,-7.43598l8.30989,8.45724l-7.5679,7.43598z" fill="url(#color-2)" stroke="#000000" stroke-width="0" stroke-linecap="butt"/><g><path d="M161.86347,204.79052c0,0 39.88568,-2.3464 46.70407,-3.70687c2.22947,-0.44489 2.42861,-5.23109 2.42861,-5.23109c0,0 6.63284,-4.59466 6.55965,1.02434c-0.06186,4.74899 -3.57788,15.1653 -3.57788,15.1653l-52.27579,5.14092z" data-paper-data="{&quot;index&quot;:null}" fill="#4a433c" stroke="#000000" stroke-width="0" stroke-linecap="butt"/><path d="M150.73875,225.95917c0.01184,-0.91796 0.03221,-4.09479 0.19848,-7.28327c0.10119,-1.93871 0.99504,-2.93292 1.23508,-4.37544c0.30232,-1.81586 -0.28214,-4.55484 0.03152,-5.86599c0.57805,-2.41615 1.25246,-3.6614 1.25246,-3.6614c0,0 1.59336,-0.39599 2.46138,-0.41022c1.1696,-0.01912 3.92522,0.30562 3.92522,0.30562c0,0 0.06557,9.19163 -0.2914,12.77226c-0.21124,2.11872 -1.08707,6.55361 -1.08707,6.55361c0,0 -0.9827,2.24812 -1.64865,2.57017c-0.81551,0.39474 -3.09694,1.31184 -3.09694,1.31184c0,0 -2.9965,-0.63637 -2.97986,-1.91682z" data-paper-data="{&quot;index&quot;:null}" fill="#140d0d" stroke="#000000" stroke-width="0" stroke-linecap="butt"/><path d="M154.73115,225.59165c0.005,-0.38435 -2.49427,1.05523 -2.01146,-4.08095c0.45584,-4.85046 1.89593,-4.27528 2.04303,-5.98405c0.30753,-3.57276 -0.86922,-4.01894 -0.61222,-5.56394c0.08954,-0.53812 0.18764,-0.79156 1.53857,-2.74377c0.92904,-1.34268 2.72526,-0.99541 3.70996,-1.91148c1.43832,-1.33817 2.93655,-1.21386 2.93655,-1.21386l4.72094,-0.05678c0,0 -3.42707,0.70853 -4.72048,1.99115c-1.15737,1.14748 -0.01763,3.58811 -0.02715,4.33711c-0.01672,1.31153 5.07453,-1.00088 5.02988,0.25276c-0.02387,0.67406 0.28743,5.76943 0.28743,5.76943c0,0 -5.546,0.11832 -5.58184,0.47859c-0.21124,2.11872 -1.09453,7.11689 -1.09453,7.11689c0,0 -0.9827,2.24812 -1.64852,2.57018c-0.81551,0.39474 -4.59425,0.91688 -4.59425,0.91688c0,0 0.00763,-0.59733 0.02437,-1.8777z" data-paper-data="{&quot;index&quot;:null}" fill="#1f261f" stroke="#000000" stroke-width="0" stroke-linecap="butt"/><path d="M159.43245,214.08334l1.63615,4.15297" fill="none" stroke="#ffb5b5" stroke-width="0.5" stroke-linecap="round"/><path d="M161.03168,221.053l-2.20184,-3.97263" fill="none" stroke="#bffdff" stroke-width="0.5" stroke-linecap="round"/><path d="M160.63413,222.73781l-2.22373,-2.28245" fill="none" stroke="#eaffc1" stroke-width="0.5" stroke-linecap="round"/><path d="M165.46539,212.28414l0.33151,3.38472" fill="none" stroke="#8d967b" stroke-width="0.5" stroke-linecap="round"/><path d="M164.14117,213.01786l0.52425,3.01166" fill="none" stroke="#767796" stroke-width="0.5" stroke-linecap="round"/></g><g data-paper-data="{&quot;index&quot;:null}" stroke="#000000" stroke-width="0" stroke-linecap="butt"><path d="M304.0471,204.53318c0,0 -3.41674,-0.01682 -8.85656,1.05981c-3.2673,0.64669 -8.55238,1.99151 -9.81149,2.10218c-2.80858,0.24659 -4.07799,1.3764 -5.89839,1.45462c-4.47293,0.19211 -12.08109,0.57833 -12.08109,0.57833c0,0 -11.71719,3.72569 -11.76004,-8.13078c-0.00684,-1.89287 11.04544,-2.45618 11.04544,-2.45618c0,0 5.31697,-0.36933 9.5241,-0.54989c1.95611,-0.08398 5.13375,-0.00275 8.32967,-0.0509c1.35039,-0.02034 5.60611,-0.47009 6.91973,-0.50454c5.46239,-0.14321 9.76752,-2.07735 9.76752,-2.07735z" fill="#b8bda6"/><path d="M311.24354,203.01347c0.25321,0.80718 -7.01972,1.47466 -7.01972,1.47466c0,0 -1.9624,-2.54529 -2.42946,-3.95382c-0.4799,-1.44653 -0.4124,-4.614 -0.4124,-4.614c0,0 1.77212,-0.45329 2.78286,-1.51347c1.72982,-1.81417 3.51213,-4.02828 5.51771,-3.50762c1.0883,0.28247 -2.69457,2.52374 -2.18338,2.82304c0.09093,0.0533 6.81709,-1.39693 7.25214,-0.83131c0.71077,0.92416 -6.07567,2.82585 -4.9786,2.88304c2.25182,0.11712 6.80656,-1.72832 7.23631,-0.93232c0.72378,1.34098 -7.95661,2.67624 -7.20321,2.9465c1.40751,0.50473 6.48476,-1.16127 6.89155,-0.48257c1.18508,1.97709 -6.22659,2.27209 -5.43274,2.71931c1.49943,0.8448 5.00373,-0.70193 5.20353,0.10511c0.40623,1.64077 -5.34392,2.50221 -5.22443,2.88338z" data-paper-data="{&quot;index&quot;:null}" fill="#786274"/></g><g><path d="M157.58194,188.71407l52.36874,-4.08603c0,0 5.28462,9.64039 6.17646,14.30519c1.05539,5.51961 -6.27928,2.15659 -6.27928,2.15659c0,0 -1.03352,-4.67758 -3.30658,-4.72543c-6.95111,-0.14621 -46.63199,4.52294 -46.63199,4.52294z" fill="#413a4a" stroke="#000000" stroke-width="0" stroke-linecap="butt"/><path d="M154.37384,213.63459c0,0 -3.06337,-0.02243 -3.30379,-1.28024c-0.17246,-0.90161 -0.78969,-4.01784 -1.26637,-7.17527c-0.28978,-1.91949 0.38644,-3.07299 0.33241,-4.53418c-0.0682,-1.83973 -1.18987,-4.4056 -1.1456,-5.75311c0.08155,-2.48291 0.49254,-3.83805 0.49254,-3.83805c0,0 1.48139,-0.70756 2.32903,-0.89572c1.14212,-0.25349 3.90662,-0.4878 3.90662,-0.4878c0,0 1.90774,8.99156 2.2763,12.57118c0.21803,2.11814 0.2496,6.63834 0.2496,6.63834c0,0 -0.51181,2.39939 -1.09965,2.84859c-0.71985,0.55013 -2.77106,1.90634 -2.77106,1.90634z" data-paper-data="{&quot;index&quot;:null}" fill="#12140d" stroke="#000000" stroke-width="0" stroke-linecap="butt"/><path d="M155.26031,213.03795c0,0 -0.1122,-0.58667 -0.35276,-1.84448c-0.07231,-0.37766 -2.232,1.53421 -2.78915,-3.5948c-0.52616,-4.84348 1.00003,-4.56872 0.80128,-6.27216c-0.41541,-3.56167 -1.65759,-3.76301 -1.71576,-5.32799c-0.02026,-0.54507 0.02531,-0.81315 0.95706,-2.99672c0.64081,-1.50161 2.47027,-1.52181 3.25113,-2.61682c1.14084,-1.59941 2.6334,-1.77829 2.6334,-1.77829l4.61355,-1.00255c0,0 -3.21531,1.38148 -4.22535,2.89742c-0.90369,1.35632 0.7023,3.51863 0.84328,4.2543c0.24662,1.28821 4.77055,-1.99818 4.97836,-0.76124c0.11174,0.66518 1.43873,5.59458 1.43873,5.59458c0,0 -5.4095,1.22824 -5.37246,1.58851c0.21813,2.11806 0.35526,7.19161 0.35526,7.19161c0,0 -0.51181,2.39939 -1.09965,2.84859c-0.71985,0.55013 -4.31709,1.8196 -4.31709,1.8196z" data-paper-data="{&quot;index&quot;:null}" fill="#1e1e26" stroke="#000000" stroke-width="0" stroke-linecap="butt"/><path d="M159.64083,202.71653l-2.43582,-3.74032" fill="none" stroke="#c1ffce" stroke-width="0.5" stroke-linecap="round"/><path d="M160.16973,205.48318l-2.95388,-3.45014" fill="none" stroke="#eaffc1" stroke-width="0.5" stroke-linecap="round"/><path d="M160.11832,207.21375l-2.6365,-1.79012" fill="none" stroke="#ffb5b5" stroke-width="0.5" stroke-linecap="round"/><path d="M163.75814,199.25277l-1.00369,-3.24934" fill="none" stroke="#7d967f" stroke-width="0.5" stroke-linecap="round"/><path d="M162.72199,199.83317l-1.11754,-2.84521" fill="none" stroke="#966262" stroke-width="0.5" stroke-linecap="round"/></g><g stroke-width="0" stroke-linecap="butt"><path d="M207.48449,182.00893c0,0 8.42826,-1.77839 16.34132,-4.52652c5.37685,-1.8673 9.96059,-4.655 13.65701,-5.80168c6.93791,-2.15233 20.06306,-5.20292 20.06306,-5.20292c0,0 2.22803,5.34251 2.32584,8.15145c0.12465,3.57574 -1.63872,11.56289 -1.63872,11.56289c0,0 4.60916,4.74105 5.93434,7.46865c1.39814,2.87808 2.24714,9.37268 2.24714,9.37268c0,0 -13.89673,3.26144 -19.13013,4.27962c-4.63046,0.90082 -9.90859,0.98622 -16.79548,2.18889c-7.0981,1.23938 -15.7381,3.58267 -15.7381,3.58267c0,0 0.15112,-4.43002 -0.77393,-8.69132c-0.4201,-1.93522 -2.16825,-2.32848 -2.84853,-4.08718c-0.54391,-1.4057 -0.04001,-4.19113 -0.32257,-5.59655c-0.21352,-1.06234 0.05236,-3.26957 -0.12198,-4.01495c-0.35187,-1.50493 -1.89221,-2.11563 -2.55457,-3.79987c-0.76957,-1.95628 -0.6444,-4.88566 -0.6444,-4.88566z" fill="#d1b0b0" stroke="#292e32"/><path d="M247.00744,193.28973l8.71526,-2.3075l2.24166,11.62978l-7.84712,1.90372z" fill="#f200ff" stroke="none"/><path d="M255.7227,190.98222l1.1764,6.10315c-0.83005,0.74335 -1.52692,1.61812 -2.06548,2.58251c-0.04106,-0.56827 -0.13142,-1.1408 -0.27412,-1.71254c-0.59074,-2.36688 -1.97959,-4.32429 -3.80803,-5.65691z" fill="#eeff00" stroke="none"/><path d="M248.84542,199.92461c3.28995,-0.67 6.07854,-3.02825 7.42614,-6.09493l1.47026,7.62771c-1.61899,-0.45595 -3.37517,-0.50912 -5.12395,-0.07266c-1.09775,0.27398 -2.10741,0.71964 -3.00751,1.3012z" fill="#00ff5f" stroke="none"/><path d="M249.63275,202.76676l-2.22275,-8.02381c1.27127,1.93947 3.17643,3.36313 5.3523,4.05291c-0.73592,1.29193 -1.18619,2.7482 -1.28958,4.26684c-0.59806,-0.15477 -1.21376,-0.25486 -1.83997,-0.29595z" fill="#004fff" stroke="none"/><path d="M247.00743,193.28971l8.71527,-2.30751l0.55582,2.8836c-1.61592,-0.45309 -3.3681,-0.50502 -5.1129,-0.06955c-1.32512,0.33073 -2.5219,0.91163 -3.55254,1.67976z" fill="#ff0000" stroke="none"/><path d="M254.79787,203.38018l-4.68063,1.13552l-1.15644,-4.17458c0.70593,0.10495 1.42975,0.1348 2.16069,0.08312c0.97787,1.27154 2.24422,2.28142 3.67637,2.95594z" fill="#00efff" stroke="none"/><path d="M257.96437,202.61199l-7.84713,1.90371l-0.07802,-0.28163c3.43458,-0.94246 5.97204,-3.57914 6.93161,-6.7765z" fill="#9c00ff" stroke="none"/></g><g><path d="M295.46645,177.75721c-7.35168,9.44932 -20.32432,11.65352 -28.97548,4.92297c-8.65122,-6.73055 -9.70481,-19.84696 -2.35301,-29.29647c7.35168,-9.44932 20.32432,-11.65352 28.97555,-4.92292c8.65122,6.73055 9.70481,19.84696 2.35301,29.29647z" fill="url(#color-3)" stroke="none" stroke-width="0" stroke-linecap="butt"/><path d="M280.78076,146.90324c-0.22233,-0.14261 -0.8006,-0.50082 -1.45557,-0.85022c-0.83516,-0.2427 -1.77978,-0.56503 -2.56854,-0.7274c-1.2022,0.81627 -0.75627,2.95701 -3.15339,2.40333c-4.08826,-0.94473 -0.15931,-4.12436 1.7906,-4.56552c2.60541,-0.14418 5.02091,1.47459 7.28577,2.62908c3.11964,1.5903 6.38909,2.84502 9.1999,4.76882c0.1829,-0.02694 0.37578,0.00977 0.54339,0.11748l0.76667,0.49283c0.43497,0.18594 0.90426,0.39212 1.38907,0.61936c1.33161,0.49858 2.7561,1.32735 4.04484,2.1488c0.67892,0.34253 1.27301,0.71764 1.69737,1.11369c0.35399,0.23563 0.68347,0.45468 0.98115,0.64578l0.80823,0.51937c0.36808,0.23659 0.47476,0.72658 0.23818,1.09491c-0.21065,0.32765 -0.62201,0.44815 -0.96946,0.30408l-0.49582,-0.19426c0.06129,0.28677 0.08964,0.58228 0.08068,0.88619l0.39953,0.07691l-0.19273,0.99837c-0.01736,0.10227 -0.05508,0.20297 -0.11469,0.29588c-0.23659,0.36808 -0.72658,0.47476 -1.09491,0.23818c-0.11191,-0.07186 -0.19999,-0.16741 -0.26115,-0.27564l-0.43065,-0.7251l0.02138,-0.01263l-0.05491,-0.05006c-0.22973,-0.61778 -0.51954,-1.17444 -0.86072,-1.6639c-0.66481,-0.55653 -1.32587,-1.19099 -2.0126,-1.82126c-1.40615,-0.75155 -3.12628,-0.85775 -4.94549,-0.1764c0,0 -0.74258,0.27617 -1.01886,-0.46635c-0.27617,-0.74258 0.46635,-1.01886 0.46635,-1.01886c0.1584,-0.05852 0.31676,-0.11237 0.4747,-0.16112l-0.43315,-0.15939c-0.05865,-0.02029 -0.11624,-0.04785 -0.17086,-0.08286c-0.36808,-0.23659 -0.47476,-0.72658 -0.23818,-1.09491c0.11974,-0.18636 0.30432,-0.3057 0.50537,-0.34745c-0.30008,-0.23257 -0.5957,-0.43624 -0.88253,-0.5641c-2.00345,-0.89297 -4.69275,-2.76412 -7.41945,-4.28523c-0.2156,0.30544 -0.61289,0.41466 -0.94988,0.27481l-0.89858,-0.35232l0.01141,-0.02907l-0.011,-0.00474z" fill="url(#color-4)" stroke="none" stroke-width="0.5" stroke-linecap="butt"/><path d="M302.77783,156.69611c3.58132,2.22874 3.51406,2.25612 2.03634,4.69744c-1.4776,2.44128 -4.15261,3.36555 -5.97447,2.06447c-1.82181,-1.3012 -2.10059,-4.33532 -0.62287,-6.7766c1.4776,-2.44128 1.20271,-2.07521 4.56112,0.01468z" data-paper-data="{&quot;index&quot;:null}" fill="url(#color-5)" stroke="#000000" stroke-width="0" stroke-linecap="butt"/><path d="M292.137,153.67783c-1.45666,2.77413 -5.17541,3.69038 -8.30595,2.04626c-3.13064,-1.64382 -4.48766,-5.22538 -3.03094,-7.99935c1.45666,-2.77413 1.42735,-2.86603 7.20515,0.50129c5.41808,3.15755 5.58826,2.67755 4.13167,5.45174z" fill="url(#color-6)" stroke="#000000" stroke-width="0" stroke-linecap="butt"/><path d="M279.11392,182.17146c-15.27384,-6.72272 -12.44997,-15.90191 -9.85373,-21.0878c2.59632,-5.18579 13.57727,-5.10331 21.11019,-1.33201c7.53292,3.7713 11.975,12.35493 9.37874,17.54071c0,0 -3.81589,12.4721 -20.63516,4.87898z" data-paper-data="{&quot;index&quot;:null}" fill="url(#color-7)" stroke="#ed6b00" stroke-width="0" stroke-linecap="butt"/><path d="M279.11392,182.17146c-12.17138,-5.35719 -12.85046,-12.27427 -11.31039,-17.48748c0.35783,3.28852 2.33841,6.32915 5.52578,7.89875c4.95467,2.4399 10.94915,0.40128 13.38905,-4.55339c1.62584,-3.30156 1.26309,-7.06484 -0.62594,-9.93042c1.49064,0.4284 2.9388,0.98227 4.27796,1.65272c2.2961,1.14953 4.30504,2.74616 5.91502,4.55739c-0.38237,3.56461 1.18698,7.14598 4.20175,9.25537c0.05226,1.34508 -0.18072,2.61479 -0.73803,3.72795c0,0 -0.15451,0.50501 -0.5384,1.24993c-0.69214,-0.64 -1.48716,-1.19211 -2.37602,-1.62983c-4.95467,-2.4399 -10.94915,-0.40128 -13.38905,4.55339c-0.33553,0.68136 -0.58636,1.38237 -0.75657,2.0911c-1.12089,-0.35778 -2.3113,-0.81504 -3.57513,-1.38561z" data-paper-data="{&quot;index&quot;:null}" fill="url(#color-8)" stroke="#ed6b00" stroke-width="0" stroke-linecap="butt"/><path d="M290.37038,159.75164c2.56543,1.28436 4.77238,3.12688 6.46491,5.20325c-0.84751,0.75999 -1.57737,1.67733 -2.14153,2.73569c-0.56192,-2.98796 -2.47442,-5.68393 -5.4119,-7.13048c-4.95466,-2.4399 -10.94915,-0.40127 -13.38905,4.55339c-1.63574,3.32167 -1.2586,7.11068 0.66062,9.98266c-1.83075,0.34504 -3.5517,1.19715 -4.94258,2.48139c-1.32783,-1.18753 -2.29833,-2.40217 -2.98487,-3.6181c1.936,-0.93673 3.58559,-2.50229 4.60935,-4.58123c1.81268,-3.68098 1.15345,-7.9359 -1.33699,-10.88074c4.42149,-2.40201 12.52227,-1.72453 18.47202,1.25417z" data-paper-data="{&quot;index&quot;:null}" fill="url(#color-9)" stroke="#ed6b00" stroke-width="0" stroke-linecap="butt"/><path d="M293.68593,174.24045c0.47661,2.53439 1.9249,4.85871 4.14616,6.3887c-1.65815,2.00285 -4.57616,4.13749 -9.43683,3.98573c-0.05977,-1.87392 -0.64691,-3.6988 -1.68656,-5.25459c2.88646,-0.54402 5.5,-2.3485 6.97724,-5.11985z" data-paper-data="{&quot;index&quot;:null}" fill="url(#color-10)" stroke="#ed6b00" stroke-width="0" stroke-linecap="butt"/><path d="M280.53383,174.67409c0.0949,-0.11826 -0.00451,-0.94189 -0.00718,-1.18483c-0.03264,-2.96414 0.33159,-5.95366 -0.05391,-8.89281c-0.03641,-0.27765 -1.00746,-0.58711 -1.40591,-0.81704c-2.44012,-1.40807 -4.71481,-3.14416 -7.30738,-4.24666c-0.33196,-0.14117 -0.71428,-0.19234 -1.13415,-0.16846c1.68044,-1.43844 4.30874,-2.1793 7.28072,-2.30322c0.52995,3.04017 2.45522,5.79416 5.43571,7.26188c3.84733,1.8946 8.32162,1.08882 11.27177,-1.68577c2.96376,2.63536 5.00064,6.00937 5.65458,9.17351c-0.93471,-1.34092 -2.21199,-2.47108 -3.78212,-3.24428c-4.95467,-2.4399 -10.94915,-0.40128 -13.38905,4.55339c-0.60531,1.2292 -0.93498,2.5224 -1.01286,3.80945c-1.49134,-0.19394 -2.99101,-0.04417 -4.38987,0.4122c1.23657,-0.96781 2.24249,-1.92319 2.83967,-2.66735z" data-paper-data="{&quot;index&quot;:null}" fill="url(#color-11)" stroke="#ed6b00" stroke-width="0" stroke-linecap="butt"/><path d="M279.1139,182.17144c-15.27384,-6.72272 -12.44997,-15.90191 -9.85373,-21.0878c0.11286,-0.22542 0.24156,-0.44089 0.38514,-0.64654c-0.77595,1.68952 -1.047,3.7482 -1.05121,5.30583c-0.00043,0.16098 0.00275,0.32305 0.00947,0.48611c-0.90744,4.10947 0.87538,8.44403 4.56038,10.68632c2.27932,2.77397 5.18918,4.96194 8.20196,5.75564c5.19585,1.36882 9.72601,2.88509 13.38905,-4.55339c1.48407,-3.01368 0.46159,-6.87835 -0.62001,-10.05873c-0.63049,-1.85393 -3.52779,-2.01694 -4.59731,-3.65727c0.05514,-2.01919 -0.50593,-4.00843 -1.59076,-5.69584c0.83577,0.30836 1.64791,0.65755 2.42349,1.04584c2.78756,1.39557 5.15187,3.45014 6.89289,5.74765c-0.06812,0.12477 -0.13392,0.25155 -0.19731,0.38028c-2.05966,4.18252 -0.92792,9.10601 2.45532,12.00673c-0.25035,0.58135 -0.72478,1.5228 -1.50926,2.51994c-2.95746,0.16389 -5.76924,1.6398 -7.56407,4.13141c-2.88107,0.32065 -6.59036,-0.2248 -11.334,-2.36633z" data-paper-data="{&quot;index&quot;:null}" fill="url(#color-12)" stroke="#ed6b00" stroke-width="0" stroke-linecap="butt"/><path d="M301.61073,167.88242c0,0 -2.65068,-1.85941 -3.3186,-2.96669c-0.59328,-0.98368 -0.49122,-3.35089 -0.49122,-3.35089" data-paper-data="{&quot;index&quot;:null}" fill="none" stroke="#191412" stroke-width="1.5" stroke-linecap="round"/><path d="M281.59375,154.92512c0,0 -1.3245,1.67201 -2.39809,1.93636c-1.20856,0.29752 -4.49649,-0.23821 -4.49649,-0.23821" data-paper-data="{&quot;index&quot;:null}" fill="none" stroke="#191412" stroke-width="1.5" stroke-linecap="round"/></g><g data-paper-data="{&quot;index&quot;:null}" stroke="#000000" stroke-width="0" stroke-linecap="butt"><path d="M290.24551,159.26403c0,0 -4.71861,0.09918 -9.71452,2.31256c-1.20144,0.53227 -5.23878,1.9512 -6.46738,2.512c-2.90772,1.32718 -5.74342,2.76341 -7.54651,3.52649c-3.87799,1.64126 -8.83952,3.58799 -8.83952,3.58799c0,0 -10.22577,4.2313 -11.03142,2.51842c-5.04637,-10.72902 7.13636,-12.38872 7.13636,-12.38872c0,0 7.03854,-2.91414 11.16159,-4.65897c1.67802,-0.71008 3.30931,-0.23389 5.95223,-1.21569c1.18489,-0.44004 6.53599,-1.49188 9.76489,-2.30898c5.37587,-1.36047 8.4552,-2.84106 8.4552,-2.84106z" fill="#b8bda6"/><path d="M296.26934,148.59446c0.05553,0.39558 5.61944,-1.29239 5.95617,0.36405c0.16564,0.81474 -3.66338,0.92043 -4.65558,2.32667c-0.52533,0.74446 6.2966,-2.1678 6.07399,0.12648c-0.07639,0.78757 -5.37749,1.46013 -6.43251,2.51975c-0.56468,0.56727 7.8495,-1.94941 7.77079,-0.4276c-0.04683,0.90338 -4.95288,1.18975 -6.93685,2.26133c-0.96652,0.52219 5.97968,-0.67051 5.73396,0.46918c-0.15042,0.69755 -6.84853,2.27222 -6.90782,2.35937c-0.33342,0.48962 4.04512,0.89188 3.18314,1.6138c-1.58846,1.33051 -4.14813,0.09478 -6.48884,-0.80217c-1.36776,-0.52423 -3.16303,-0.17368 -3.16303,-0.17368c0,0 -1.41945,-2.83242 -1.60633,-4.34497c-0.18217,-1.47272 0.49894,-4.61367 0.49894,-4.61367c0,0 6.85634,-2.51628 6.97378,-1.67851z" data-paper-data="{&quot;index&quot;:null}" fill="#786274"/></g></g></g></svg>