<svg version="1.1" xmlns="http://www.w3.org/2000/svg" xmlns:xlink="http://www.w3.org/1999/xlink" width="25.40895" height="22.67522" viewBox="0,0,25.40895,22.67522"><defs><radialGradient cx="236.92308" cy="178.07697" r="9.41454" gradientUnits="userSpaceOnUse" id="color-1"><stop offset="0" stop-color="#735545" stop-opacity="0.30645"/><stop offset="1" stop-color="#735545" stop-opacity="0"/></radialGradient><radialGradient cx="236.92307" cy="178.07697" r="7.64324" gradientUnits="userSpaceOnUse" id="color-2"><stop offset="0" stop-color="#ea9d73" stop-opacity="0.62903"/><stop offset="1" stop-color="#ea9d73" stop-opacity="0"/></radialGradient><radialGradient cx="236.92308" cy="178.07697" r="6.47063" gradientUnits="userSpaceOnUse" id="color-3"><stop offset="0" stop-color="#ff8c4e"/><stop offset="1" stop-color="#ff8c4e" stop-opacity="0"/></radialGradient><radialGradient cx="245.99998" cy="184.84619" r="6.49146" gradientUnits="userSpaceOnUse" id="color-4"><stop offset="0" stop-color="#734545" stop-opacity="0.30998"/><stop offset="1" stop-color="#734545" stop-opacity="0"/></radialGradient><radialGradient cx="245.99998" cy="184.84619" r="5.27013" gradientUnits="userSpaceOnUse" id="color-5"><stop offset="0" stop-color="#eb7373" stop-opacity="0.62996"/><stop offset="1" stop-color="#eb7373" stop-opacity="0"/></radialGradient><radialGradient cx="245.99998" cy="184.84619" r="4.46159" gradientUnits="userSpaceOnUse" id="color-6"><stop offset="0" stop-color="#ff4f4f"/><stop offset="1" stop-color="#ff4f4f" stop-opacity="0"/></radialGradient><radialGradient cx="236.92308" cy="178.07697" r="5.32083" gradientUnits="userSpaceOnUse" id="color-7"><stop offset="0" stop-color="#ff631f"/><stop offset="1" stop-color="#ff8340"/></radialGradient><radialGradient cx="245.99998" cy="184.77476" r="3.66879" gradientUnits="userSpaceOnUse" id="color-8"><stop offset="0" stop-color="#ea3939"/><stop offset="1" stop-color="#bd4b4b"/></radialGradient><linearGradient x1="230.12149" y1="171.52008" x2="229.55728" y2="172.06962" gradientUnits="userSpaceOnUse" id="color-9"><stop offset="0" stop-color="#7b6f80"/><stop offset="1" stop-color="#382c3f"/></linearGradient><linearGradient x1="230.62656" y1="171.81182" x2="229.83064" y2="172.5871" gradientUnits="userSpaceOnUse" id="color-10"><stop offset="0" stop-color="#ababab"/><stop offset="1" stop-color="#7e7e7e"/></linearGradient><linearGradient x1="230.29588" y1="172.13391" x2="230.15834" y2="172.26792" gradientUnits="userSpaceOnUse" id="color-11"><stop offset="0" stop-color="#323232"/><stop offset="1" stop-color="#232323"/></linearGradient><linearGradient x1="230.08563" y1="172.33871" x2="229.97798" y2="172.4436" gradientUnits="userSpaceOnUse" id="color-12"><stop offset="0" stop-color="#272727"/><stop offset="1" stop-color="#191919"/></linearGradient><linearGradient x1="230.47922" y1="171.95535" x2="230.37158" y2="172.0602" gradientUnits="userSpaceOnUse" id="color-13"><stop offset="0" stop-color="#393939"/><stop offset="1" stop-color="#323232"/></linearGradient><linearGradient x1="229.92224" y1="172.49788" x2="229.85994" y2="172.55859" gradientUnits="userSpaceOnUse" id="color-14"><stop offset="0" stop-color="#1f1f1f"/><stop offset="1" stop-color="#191919"/></linearGradient><linearGradient x1="230.59727" y1="171.84037" x2="230.53497" y2="171.90106" gradientUnits="userSpaceOnUse" id="color-15"><stop offset="0" stop-color="#515151"/><stop offset="1" stop-color="#3d3d3d"/></linearGradient><linearGradient x1="230.41587" y1="171.76182" x2="229.78618" y2="172.37518" gradientUnits="userSpaceOnUse" id="color-16"><stop offset="0" stop-color="#4b00bb"/><stop offset="1" stop-color="#30004f"/></linearGradient><linearGradient x1="229.79231" y1="171.15188" x2="229.19284" y2="171.73579" gradientUnits="userSpaceOnUse" id="color-17"><stop offset="0" stop-color="#4b00ba"/><stop offset="1" stop-color="#300050"/></linearGradient><linearGradient x1="230.04308" y1="171.91764" x2="229.9497" y2="172.00857" gradientUnits="userSpaceOnUse" id="color-18"><stop offset="0" stop-color="#806f89"/><stop offset="1" stop-color="#685473"/></linearGradient><linearGradient x1="229.90034" y1="172.05664" x2="229.82727" y2="172.12784" gradientUnits="userSpaceOnUse" id="color-19"><stop offset="0" stop-color="#6a5675"/><stop offset="1" stop-color="#5c4768"/></linearGradient><linearGradient x1="230.16755" y1="171.79636" x2="230.09447" y2="171.86758" gradientUnits="userSpaceOnUse" id="color-20"><stop offset="0" stop-color="#97899e"/><stop offset="1" stop-color="#7f6e88"/></linearGradient><linearGradient x1="229.78942" y1="172.1647" x2="229.74712" y2="172.2059" gradientUnits="userSpaceOnUse" id="color-21"><stop offset="0" stop-color="#544c58"/><stop offset="1" stop-color="#4d3b58"/></linearGradient><linearGradient x1="230.24769" y1="171.71831" x2="230.20539" y2="171.75952" gradientUnits="userSpaceOnUse" id="color-22"><stop offset="0" stop-color="#a594ac"/><stop offset="1" stop-color="#96889d"/></linearGradient><linearGradient x1="229.90771" y1="171.77866" x2="229.81433" y2="171.86958" gradientUnits="userSpaceOnUse" id="color-23"><stop offset="0" stop-color="#806f89"/><stop offset="1" stop-color="#685473"/></linearGradient><linearGradient x1="229.76497" y1="171.91767" x2="229.6919" y2="171.98885" gradientUnits="userSpaceOnUse" id="color-24"><stop offset="0" stop-color="#6a5675"/><stop offset="1" stop-color="#5c4768"/></linearGradient><linearGradient x1="230.03218" y1="171.65742" x2="229.95909" y2="171.7286" gradientUnits="userSpaceOnUse" id="color-25"><stop offset="0" stop-color="#97899e"/><stop offset="1" stop-color="#7f6e88"/></linearGradient><linearGradient x1="229.65405" y1="172.02574" x2="229.61174" y2="172.06692" gradientUnits="userSpaceOnUse" id="color-26"><stop offset="0" stop-color="#544c58"/><stop offset="1" stop-color="#4d3b58"/></linearGradient><linearGradient x1="230.11232" y1="171.57935" x2="230.07002" y2="171.62055" gradientUnits="userSpaceOnUse" id="color-27"><stop offset="0" stop-color="#a594ac"/><stop offset="1" stop-color="#96889d"/></linearGradient><linearGradient x1="229.77233" y1="171.63966" x2="229.67895" y2="171.73061" gradientUnits="userSpaceOnUse" id="color-28"><stop offset="0" stop-color="#806f89"/><stop offset="1" stop-color="#685473"/></linearGradient><linearGradient x1="229.62959" y1="171.77869" x2="229.55652" y2="171.84988" gradientUnits="userSpaceOnUse" id="color-29"><stop offset="0" stop-color="#6a5675"/><stop offset="1" stop-color="#5c4768"/></linearGradient><linearGradient x1="229.8968" y1="171.51842" x2="229.82372" y2="171.58963" gradientUnits="userSpaceOnUse" id="color-30"><stop offset="0" stop-color="#97899e"/><stop offset="1" stop-color="#7f6e88"/></linearGradient><linearGradient x1="229.51867" y1="171.88676" x2="229.47637" y2="171.92795" gradientUnits="userSpaceOnUse" id="color-31"><stop offset="0" stop-color="#544c58"/><stop offset="1" stop-color="#4d3b58"/></linearGradient><linearGradient x1="229.97694" y1="171.44037" x2="229.93464" y2="171.48157" gradientUnits="userSpaceOnUse" id="color-32"><stop offset="0" stop-color="#a594ac"/><stop offset="1" stop-color="#96889d"/></linearGradient><linearGradient x1="229.63695" y1="171.50066" x2="229.54357" y2="171.59164" gradientUnits="userSpaceOnUse" id="color-33"><stop offset="0" stop-color="#806f89"/><stop offset="1" stop-color="#685473"/></linearGradient><linearGradient x1="229.49421" y1="171.63972" x2="229.42113" y2="171.7109" gradientUnits="userSpaceOnUse" id="color-34"><stop offset="0" stop-color="#6a5675"/><stop offset="1" stop-color="#5c4768"/></linearGradient><linearGradient x1="229.76142" y1="171.37943" x2="229.68834" y2="171.45061" gradientUnits="userSpaceOnUse" id="color-35"><stop offset="0" stop-color="#97899e"/><stop offset="1" stop-color="#7f6e88"/></linearGradient><linearGradient x1="229.38328" y1="171.74778" x2="229.34099" y2="171.78898" gradientUnits="userSpaceOnUse" id="color-36"><stop offset="0" stop-color="#544c58"/><stop offset="1" stop-color="#4d3b58"/></linearGradient><linearGradient x1="229.84156" y1="171.30137" x2="229.79927" y2="171.34259" gradientUnits="userSpaceOnUse" id="color-37"><stop offset="0" stop-color="#a594ac"/><stop offset="1" stop-color="#96889d"/></linearGradient><linearGradient x1="227.8181" y1="175.10488" x2="227.60827" y2="175.86402" gradientUnits="userSpaceOnUse" id="color-38"><stop offset="0" stop-color="#7b6f80"/><stop offset="1" stop-color="#382c3f"/></linearGradient><linearGradient x1="228.40138" y1="175.10193" x2="228.10537" y2="176.17288" gradientUnits="userSpaceOnUse" id="color-39"><stop offset="0" stop-color="#ababab"/><stop offset="1" stop-color="#7e7e7e"/></linearGradient><linearGradient x1="228.27839" y1="175.54687" x2="228.22724" y2="175.73195" gradientUnits="userSpaceOnUse" id="color-40"><stop offset="0" stop-color="#323232"/><stop offset="1" stop-color="#232323"/></linearGradient><linearGradient x1="228.20019" y1="175.82979" x2="228.16016" y2="175.97461" gradientUnits="userSpaceOnUse" id="color-41"><stop offset="0" stop-color="#272727"/><stop offset="1" stop-color="#191919"/></linearGradient><linearGradient x1="228.34658" y1="175.30018" x2="228.30655" y2="175.44504" gradientUnits="userSpaceOnUse" id="color-42"><stop offset="0" stop-color="#393939"/><stop offset="1" stop-color="#323232"/></linearGradient><linearGradient x1="228.13943" y1="176.04964" x2="228.11627" y2="176.13345" gradientUnits="userSpaceOnUse" id="color-43"><stop offset="0" stop-color="#1f1f1f"/><stop offset="1" stop-color="#191919"/></linearGradient><linearGradient x1="228.39048" y1="175.14134" x2="228.36731" y2="175.2252" gradientUnits="userSpaceOnUse" id="color-44"><stop offset="0" stop-color="#515151"/><stop offset="1" stop-color="#3d3d3d"/></linearGradient><linearGradient x1="228.19424" y1="175.16506" x2="227.96004" y2="176.01233" gradientUnits="userSpaceOnUse" id="color-45"><stop offset="0" stop-color="#4b00bb"/><stop offset="1" stop-color="#30004f"/></linearGradient><linearGradient x1="227.34812" y1="174.95309" x2="227.12517" y2="175.75969" gradientUnits="userSpaceOnUse" id="color-46"><stop offset="0" stop-color="#4b00ba"/><stop offset="1" stop-color="#300050"/></linearGradient><linearGradient x1="227.95099" y1="175.48768" x2="227.91627" y2="175.61331" gradientUnits="userSpaceOnUse" id="color-47"><stop offset="0" stop-color="#806f89"/><stop offset="1" stop-color="#685473"/></linearGradient><linearGradient x1="227.89791" y1="175.67974" x2="227.87073" y2="175.77806" gradientUnits="userSpaceOnUse" id="color-48"><stop offset="0" stop-color="#6a5675"/><stop offset="1" stop-color="#5c4768"/></linearGradient><linearGradient x1="227.99728" y1="175.3202" x2="227.9701" y2="175.41855" gradientUnits="userSpaceOnUse" id="color-49"><stop offset="0" stop-color="#97899e"/><stop offset="1" stop-color="#7f6e88"/></linearGradient><linearGradient x1="227.85665" y1="175.82901" x2="227.84093" y2="175.8859" gradientUnits="userSpaceOnUse" id="color-50"><stop offset="0" stop-color="#544c58"/><stop offset="1" stop-color="#4d3b58"/></linearGradient><linearGradient x1="228.02708" y1="175.21234" x2="228.01136" y2="175.26929" gradientUnits="userSpaceOnUse" id="color-51"><stop offset="0" stop-color="#a594ac"/><stop offset="1" stop-color="#96889d"/></linearGradient><linearGradient x1="227.76399" y1="175.43601" x2="227.72927" y2="175.56164" gradientUnits="userSpaceOnUse" id="color-52"><stop offset="0" stop-color="#806f89"/><stop offset="1" stop-color="#685473"/></linearGradient><linearGradient x1="227.71091" y1="175.62807" x2="227.68373" y2="175.72639" gradientUnits="userSpaceOnUse" id="color-53"><stop offset="0" stop-color="#6a5675"/><stop offset="1" stop-color="#5c4768"/></linearGradient><linearGradient x1="227.81029" y1="175.26851" x2="227.7831" y2="175.36686" gradientUnits="userSpaceOnUse" id="color-54"><stop offset="0" stop-color="#97899e"/><stop offset="1" stop-color="#7f6e88"/></linearGradient><linearGradient x1="227.66966" y1="175.77732" x2="227.65392" y2="175.83421" gradientUnits="userSpaceOnUse" id="color-55"><stop offset="0" stop-color="#544c58"/><stop offset="1" stop-color="#4d3b58"/></linearGradient><linearGradient x1="227.84009" y1="175.16067" x2="227.82436" y2="175.2176" gradientUnits="userSpaceOnUse" id="color-56"><stop offset="0" stop-color="#a594ac"/><stop offset="1" stop-color="#96889d"/></linearGradient><linearGradient x1="227.57698" y1="175.38432" x2="227.54226" y2="175.50996" gradientUnits="userSpaceOnUse" id="color-57"><stop offset="0" stop-color="#806f89"/><stop offset="1" stop-color="#685473"/></linearGradient><linearGradient x1="227.5239" y1="175.57638" x2="227.49672" y2="175.67471" gradientUnits="userSpaceOnUse" id="color-58"><stop offset="0" stop-color="#6a5675"/><stop offset="1" stop-color="#5c4768"/></linearGradient><linearGradient x1="227.62328" y1="175.21682" x2="227.59611" y2="175.31514" gradientUnits="userSpaceOnUse" id="color-59"><stop offset="0" stop-color="#97899e"/><stop offset="1" stop-color="#7f6e88"/></linearGradient><linearGradient x1="227.48265" y1="175.72562" x2="227.46692" y2="175.78254" gradientUnits="userSpaceOnUse" id="color-60"><stop offset="0" stop-color="#544c58"/><stop offset="1" stop-color="#4d3b58"/></linearGradient><linearGradient x1="227.65308" y1="175.109" x2="227.63735" y2="175.16592" gradientUnits="userSpaceOnUse" id="color-61"><stop offset="0" stop-color="#a594ac"/><stop offset="1" stop-color="#96889d"/></linearGradient><linearGradient x1="227.38997" y1="175.3326" x2="227.35525" y2="175.45828" gradientUnits="userSpaceOnUse" id="color-62"><stop offset="0" stop-color="#806f89"/><stop offset="1" stop-color="#685473"/></linearGradient><linearGradient x1="227.33689" y1="175.52466" x2="227.30971" y2="175.62298" gradientUnits="userSpaceOnUse" id="color-63"><stop offset="0" stop-color="#6a5675"/><stop offset="1" stop-color="#5c4768"/></linearGradient><linearGradient x1="227.43627" y1="175.16515" x2="227.40909" y2="175.26347" gradientUnits="userSpaceOnUse" id="color-64"><stop offset="0" stop-color="#97899e"/><stop offset="1" stop-color="#7f6e88"/></linearGradient><linearGradient x1="227.29564" y1="175.67393" x2="227.27991" y2="175.73086" gradientUnits="userSpaceOnUse" id="color-65"><stop offset="0" stop-color="#544c58"/><stop offset="1" stop-color="#4d3b58"/></linearGradient><linearGradient x1="227.46608" y1="175.05732" x2="227.45035" y2="175.1142" gradientUnits="userSpaceOnUse" id="color-66"><stop offset="0" stop-color="#a594ac"/><stop offset="1" stop-color="#96889d"/></linearGradient><linearGradient x1="233.54637" y1="169.23556" x2="232.83345" y2="169.5704" gradientUnits="userSpaceOnUse" id="color-67"><stop offset="0" stop-color="#7b6f80"/><stop offset="1" stop-color="#382c3f"/></linearGradient><linearGradient x1="233.92825" y1="169.67646" x2="232.92253" y2="170.14882" gradientUnits="userSpaceOnUse" id="color-68"><stop offset="0" stop-color="#ababab"/><stop offset="1" stop-color="#7e7e7e"/></linearGradient><linearGradient x1="233.51039" y1="169.87271" x2="233.3366" y2="169.95434" gradientUnits="userSpaceOnUse" id="color-69"><stop offset="0" stop-color="#323232"/><stop offset="1" stop-color="#232323"/></linearGradient><linearGradient x1="233.24473" y1="169.99745" x2="233.10871" y2="170.06137" gradientUnits="userSpaceOnUse" id="color-70"><stop offset="0" stop-color="#272727"/><stop offset="1" stop-color="#191919"/></linearGradient><linearGradient x1="233.74206" y1="169.76391" x2="233.60605" y2="169.82777" gradientUnits="userSpaceOnUse" id="color-71"><stop offset="0" stop-color="#393939"/><stop offset="1" stop-color="#323232"/></linearGradient><linearGradient x1="233.03827" y1="170.09444" x2="232.95955" y2="170.13142" gradientUnits="userSpaceOnUse" id="color-72"><stop offset="0" stop-color="#1f1f1f"/><stop offset="1" stop-color="#191919"/></linearGradient><linearGradient x1="233.89122" y1="169.69387" x2="233.8125" y2="169.73084" gradientUnits="userSpaceOnUse" id="color-73"><stop offset="0" stop-color="#515151"/><stop offset="1" stop-color="#3d3d3d"/></linearGradient><linearGradient x1="233.7455" y1="169.5603" x2="232.94983" y2="169.93396" gradientUnits="userSpaceOnUse" id="color-74"><stop offset="0" stop-color="#4b00bb"/><stop offset="1" stop-color="#30004f"/></linearGradient><linearGradient x1="233.35571" y1="168.77995" x2="232.59824" y2="169.13569" gradientUnits="userSpaceOnUse" id="color-75"><stop offset="0" stop-color="#4b00ba"/><stop offset="1" stop-color="#300050"/></linearGradient><linearGradient x1="233.34224" y1="169.58563" x2="233.22426" y2="169.64105" gradientUnits="userSpaceOnUse" id="color-76"><stop offset="0" stop-color="#806f89"/><stop offset="1" stop-color="#685473"/></linearGradient><linearGradient x1="233.16189" y1="169.67034" x2="233.06954" y2="169.71368" gradientUnits="userSpaceOnUse" id="color-77"><stop offset="0" stop-color="#6a5675"/><stop offset="1" stop-color="#5c4768"/></linearGradient><linearGradient x1="233.49953" y1="169.51176" x2="233.40718" y2="169.55511" gradientUnits="userSpaceOnUse" id="color-78"><stop offset="0" stop-color="#97899e"/><stop offset="1" stop-color="#7f6e88"/></linearGradient><linearGradient x1="233.02172" y1="169.73615" x2="232.96828" y2="169.76124" gradientUnits="userSpaceOnUse" id="color-79"><stop offset="0" stop-color="#544c58"/><stop offset="1" stop-color="#4d3b58"/></linearGradient><linearGradient x1="233.6008" y1="169.46419" x2="233.54734" y2="169.48929" gradientUnits="userSpaceOnUse" id="color-80"><stop offset="0" stop-color="#a594ac"/><stop offset="1" stop-color="#96889d"/></linearGradient><linearGradient x1="233.25977" y1="169.41002" x2="233.14179" y2="169.46544" gradientUnits="userSpaceOnUse" id="color-81"><stop offset="0" stop-color="#806f89"/><stop offset="1" stop-color="#685473"/></linearGradient><linearGradient x1="233.07941" y1="169.49473" x2="232.98708" y2="169.53809" gradientUnits="userSpaceOnUse" id="color-82"><stop offset="0" stop-color="#6a5675"/><stop offset="1" stop-color="#5c4768"/></linearGradient><linearGradient x1="233.41705" y1="169.33616" x2="233.32471" y2="169.37951" gradientUnits="userSpaceOnUse" id="color-83"><stop offset="0" stop-color="#97899e"/><stop offset="1" stop-color="#7f6e88"/></linearGradient><linearGradient x1="232.93925" y1="169.56056" x2="232.8858" y2="169.58564" gradientUnits="userSpaceOnUse" id="color-84"><stop offset="0" stop-color="#544c58"/><stop offset="1" stop-color="#4d3b58"/></linearGradient><linearGradient x1="233.51832" y1="169.2886" x2="233.46487" y2="169.3137" gradientUnits="userSpaceOnUse" id="color-85"><stop offset="0" stop-color="#a594ac"/><stop offset="1" stop-color="#96889d"/></linearGradient><linearGradient x1="233.17729" y1="169.23438" x2="233.05931" y2="169.28979" gradientUnits="userSpaceOnUse" id="color-86"><stop offset="0" stop-color="#806f89"/><stop offset="1" stop-color="#685473"/></linearGradient><linearGradient x1="232.99693" y1="169.3191" x2="232.90459" y2="169.36248" gradientUnits="userSpaceOnUse" id="color-87"><stop offset="0" stop-color="#6a5675"/><stop offset="1" stop-color="#5c4768"/></linearGradient><linearGradient x1="233.33457" y1="169.16055" x2="233.24223" y2="169.20392" gradientUnits="userSpaceOnUse" id="color-88"><stop offset="0" stop-color="#97899e"/><stop offset="1" stop-color="#7f6e88"/></linearGradient><linearGradient x1="232.85677" y1="169.38495" x2="232.80333" y2="169.41004" gradientUnits="userSpaceOnUse" id="color-89"><stop offset="0" stop-color="#544c58"/><stop offset="1" stop-color="#4d3b58"/></linearGradient><linearGradient x1="233.43584" y1="169.11295" x2="233.38239" y2="169.13808" gradientUnits="userSpaceOnUse" id="color-90"><stop offset="0" stop-color="#a594ac"/><stop offset="1" stop-color="#96889d"/></linearGradient><linearGradient x1="233.09481" y1="169.05878" x2="232.97682" y2="169.1142" gradientUnits="userSpaceOnUse" id="color-91"><stop offset="0" stop-color="#806f89"/><stop offset="1" stop-color="#685473"/></linearGradient><linearGradient x1="232.91445" y1="169.14348" x2="232.82212" y2="169.18683" gradientUnits="userSpaceOnUse" id="color-92"><stop offset="0" stop-color="#6a5675"/><stop offset="1" stop-color="#5c4768"/></linearGradient><linearGradient x1="233.25209" y1="168.9849" x2="233.15976" y2="169.02827" gradientUnits="userSpaceOnUse" id="color-93"><stop offset="0" stop-color="#97899e"/><stop offset="1" stop-color="#7f6e88"/></linearGradient><linearGradient x1="232.77429" y1="169.2093" x2="232.72085" y2="169.23443" gradientUnits="userSpaceOnUse" id="color-94"><stop offset="0" stop-color="#544c58"/><stop offset="1" stop-color="#4d3b58"/></linearGradient><linearGradient x1="233.35336" y1="168.93736" x2="233.29992" y2="168.96244" gradientUnits="userSpaceOnUse" id="color-95"><stop offset="0" stop-color="#a594ac"/><stop offset="1" stop-color="#96889d"/></linearGradient><radialGradient cx="231.46329" cy="172.75845" r="3.64568" gradientUnits="userSpaceOnUse" id="color-96"><stop offset="0" stop-color="#d699ff"/><stop offset="1" stop-color="#9966ff"/></radialGradient></defs><g transform="translate(-227.0825,-168.66243)"><g data-paper-data="{&quot;isPaintingLayer&quot;:true}" fill-rule="nonzero" stroke-linejoin="miter" stroke-miterlimit="10" stroke-dasharray="" stroke-dashoffset="0" style="mix-blend-mode: normal"><path d="M227.50855,178.07697c0,-5.19949 4.21503,-9.41454 9.41454,-9.41454c5.19949,0 9.41454,4.21503 9.41454,9.41454c0,5.19949 -4.21503,9.41454 -9.41454,9.41454c-5.19949,0 -9.41454,-4.21503 -9.41454,-9.41454z" fill="url(#color-1)" stroke="none" stroke-width="0.5" stroke-linecap="butt"/><path d="M229.27983,178.07697c0,-4.22123 3.42199,-7.64324 7.64324,-7.64324c4.22123,0 7.64324,3.42199 7.64324,7.64324c0,4.22123 -3.42199,7.64324 -7.64324,7.64324c-4.22123,0 -7.64324,-3.42199 -7.64324,-7.64324z" fill="url(#color-2)" stroke="none" stroke-width="0.5" stroke-linecap="butt"/><path d="M230.45245,178.07697c0,-3.57362 2.897,-6.47063 6.47063,-6.47063c3.57362,0 6.47063,2.897 6.47063,6.47063c0,3.57362 -2.897,6.47063 -6.47063,6.47063c-3.57362,0 -6.47063,-2.897 -6.47063,-6.47063z" fill="url(#color-3)" stroke="none" stroke-width="0.5" stroke-linecap="butt"/><path d="M239.50853,184.84619c0,-3.58512 2.90632,-6.49146 6.49146,-6.49146c3.58512,0 6.49146,2.90632 6.49146,6.49146c0,3.58512 -2.90632,6.49146 -6.49146,6.49146c-3.58512,0 -6.49146,-2.90632 -6.49146,-6.49146z" fill="url(#color-4)" stroke="none" stroke-width="0.5" stroke-linecap="butt"/><path d="M240.72986,184.84619c0,-2.9106 2.35951,-5.27013 5.27013,-5.27013c2.9106,0 5.27013,2.35951 5.27013,5.27013c0,2.9106 -2.35951,5.27013 -5.27013,5.27013c-2.9106,0 -5.27013,-2.35951 -5.27013,-5.27013z" fill="url(#color-5)" stroke="none" stroke-width="0.5" stroke-linecap="butt"/><path d="M241.53839,184.84619c0,-2.46406 1.99752,-4.46159 4.46159,-4.46159c2.46406,0 4.46159,1.99752 4.46159,4.46159c0,2.46406 -1.99752,4.46159 -4.46159,4.46159c-2.46406,0 -4.46159,-1.99752 -4.46159,-4.46159z" fill="url(#color-6)" stroke="none" stroke-width="0.5" stroke-linecap="butt"/><path d="M231.60226,178.07697c0,-2.9386 2.38221,-5.32083 5.32083,-5.32083c2.9386,0 5.32083,2.38221 5.32083,5.32083c0,2.9386 -2.38221,5.32083 -5.32083,5.32083c-2.9386,0 -5.32083,-2.38221 -5.32083,-5.32083z" fill="url(#color-7)" stroke="none" stroke-width="0.5" stroke-linecap="butt"/><path d="M242.3312,184.77476c0,-2.02621 1.64257,-3.66879 3.66879,-3.66879c2.02621,0 3.66879,1.64257 3.66879,3.66879c0,2.02621 -1.64257,3.66879 -3.66879,3.66879c-2.02621,0 -3.66879,-1.64257 -3.66879,-3.66879z" fill="url(#color-8)" stroke="none" stroke-width="0.5" stroke-linecap="butt"/><g><path d="M237.0079,170.29518c0,0 -2.5235,-0.16074 -5.28454,2.14051c-2.70369,2.25346 -2.65047,5.74493 -2.65047,5.74493h-0.87615c0,0 -0.24218,-4.09271 2.89404,-6.44678c3.37488,-2.90131 5.97912,-2.32909 5.97912,-2.32909z" data-paper-data="{&quot;index&quot;:null}" fill="#000000" stroke="#000000" stroke-width="0.25" stroke-linecap="butt"/><g data-paper-data="{&quot;index&quot;:null}" stroke-width="0" stroke-linecap="butt"><path d="M229.89831,172.41972l-0.68205,-0.70022l0.5642,-0.54957l0.68206,0.70022z" fill="url(#color-9)" stroke="#000000"/><path d="M229.92142,172.68028l-0.18155,-0.18639l0.79593,-0.77528l0.18156,0.18638z" fill="url(#color-10)" stroke="none"/><path d="M230.22213,172.33339l-0.12758,-0.13098l0.13754,-0.13397l0.12758,0.13098z" fill="url(#color-11)" stroke="#000000"/><path d="M230.04177,172.50908l-0.12758,-0.13098l0.10764,-0.10485l0.12758,0.13097z" fill="url(#color-12)" stroke="#000000"/><path d="M230.43537,172.12567l-0.12758,-0.13098l0.10764,-0.10485l0.12758,0.13098z" fill="url(#color-13)" stroke="#000000"/><path d="M229.92372,172.62405l-0.12758,-0.13098l0.06231,-0.06069l0.12758,0.13098z" fill="url(#color-14)" stroke="#000000"/><path d="M230.59875,171.96654l-0.12758,-0.13098l0.06231,-0.06069l0.12758,0.13098z" fill="url(#color-15)" stroke="#000000"/><path d="M229.82298,172.41292l-0.0736,-0.07555l0.62968,-0.61335l0.0736,0.07555z" fill="url(#color-16)" stroke="#000000"/><path d="M229.21983,171.76347l-0.05398,-0.05541l0.59946,-0.58392l0.05398,0.05541z" fill="url(#color-17)" stroke="#000000"/><path d="M229.99933,172.05956l-0.09928,-0.10191l0.09338,-0.09097l0.09928,0.10192z" fill="url(#color-18)" stroke="#000000"/><path d="M229.87691,172.17882l-0.09928,-0.10192l0.07307,-0.07119l0.09928,0.10191z" fill="url(#color-19)" stroke="#000000"/><path d="M230.14412,171.91854l-0.09928,-0.10192l0.07308,-0.07119l0.09928,0.10192z" fill="url(#color-20)" stroke="#000000"/><path d="M229.79676,172.25684l-0.09928,-0.10192l0.0423,-0.0412l0.09928,0.10192z" fill="url(#color-21)" stroke="#000000"/><path d="M230.25503,171.81048l-0.09928,-0.10192l0.0423,-0.04119l0.09928,0.10191z" fill="url(#color-22)" stroke="#000000"/><path d="M229.86395,171.92058l-0.09928,-0.10191l0.09338,-0.09096l0.09928,0.10192z" fill="url(#color-23)" stroke="#000000"/><path d="M229.74153,172.03982l-0.09928,-0.10192l0.07307,-0.07118l0.09928,0.10191z" fill="url(#color-24)" stroke="#000000"/><path d="M230.00873,171.77956l-0.09928,-0.10192l0.07308,-0.07119l0.09928,0.10192z" fill="url(#color-25)" stroke="#000000"/><path d="M229.66137,172.11787l-0.09928,-0.10192l0.0423,-0.0412l0.09928,0.10191z" fill="url(#color-26)" stroke="#000000"/><path d="M230.11965,171.6715l-0.09928,-0.10191l0.0423,-0.0412l0.09928,0.10192z" fill="url(#color-27)" stroke="#000000"/><path d="M229.72858,171.78157l-0.09927,-0.10191l0.09338,-0.09097l0.09928,0.10192z" fill="url(#color-28)" stroke="#000000"/><path d="M229.60615,171.90083l-0.09928,-0.10192l0.07308,-0.07118l0.09928,0.10191z" fill="url(#color-29)" stroke="#000000"/><path d="M229.87336,171.64058l-0.09928,-0.10191l0.07307,-0.07119l0.09928,0.10192z" fill="url(#color-30)" stroke="#000000"/><path d="M229.526,171.97891l-0.09928,-0.10192l0.0423,-0.04119l0.09928,0.10191z" fill="url(#color-31)" stroke="#000000"/><path d="M229.98428,171.53253l-0.09928,-0.10192l0.0423,-0.0412l0.09928,0.10192z" fill="url(#color-32)" stroke="#000000"/><path d="M229.5932,171.64259l-0.09928,-0.10192l0.09339,-0.09096l0.09928,0.10191z" fill="url(#color-33)" stroke="#000000"/><path d="M229.47077,171.76186l-0.09928,-0.10192l0.07308,-0.07119l0.09928,0.10192z" fill="url(#color-34)" stroke="#000000"/><path d="M229.73798,171.50157l-0.09928,-0.10191l0.07307,-0.07119l0.09928,0.10191z" fill="url(#color-35)" stroke="#000000"/><path d="M229.39062,171.83993l-0.09928,-0.10191l0.0423,-0.0412l0.09928,0.10192z" fill="url(#color-36)" stroke="#000000"/><path d="M229.8489,171.39355l-0.09928,-0.10192l0.0423,-0.04119l0.09928,0.10191z" fill="url(#color-37)" stroke="#000000"/></g><g data-paper-data="{&quot;index&quot;:null}" stroke-width="0" stroke-linecap="butt"><path d="M228.07935,175.99422l-0.94217,-0.26042l0.20983,-0.75916l0.94217,0.26042z" fill="url(#color-38)" stroke="#000000"/><path d="M228.23076,176.20752l-0.25079,-0.06931l0.29602,-1.07095l0.25079,0.06932z" fill="url(#color-39)" stroke="none"/><path d="M228.31536,175.75631l-0.17623,-0.04871l0.05115,-0.18507l0.17623,0.04871z" fill="url(#color-40)" stroke="#000000"/><path d="M228.24828,175.99897l-0.17623,-0.04871l0.04003,-0.14484l0.17624,0.0487z" fill="url(#color-41)" stroke="#000000"/><path d="M228.39466,175.4694l-0.17623,-0.04871l0.04003,-0.14484l0.17623,0.04871z" fill="url(#color-42)" stroke="#000000"/><path d="M228.20437,176.15781l-0.17623,-0.04871l0.02318,-0.08383l0.17623,0.04871z" fill="url(#color-43)" stroke="#000000"/><path d="M228.45542,175.24956l-0.17624,-0.04871l0.02318,-0.08383l0.17623,0.04871z" fill="url(#color-44)" stroke="#000000"/><path d="M228.01088,176.02636l-0.10167,-0.0281l0.23418,-0.84726l0.10167,0.02809z" fill="url(#color-45)" stroke="#000000"/><path d="M227.16244,175.77l-0.07456,-0.02061l0.22295,-0.80661l0.07456,0.02061z" fill="url(#color-46)" stroke="#000000"/><path d="M227.98483,175.63229l-0.13714,-0.0379l0.03473,-0.12565l0.13714,0.0379z" fill="url(#color-47)" stroke="#000000"/><path d="M227.9393,175.79704l-0.13714,-0.0379l0.02717,-0.09834l0.13714,0.0379z" fill="url(#color-48)" stroke="#000000"/><path d="M228.03868,175.43746l-0.13714,-0.0379l0.02717,-0.09833l0.13714,0.0379z" fill="url(#color-49)" stroke="#000000"/><path d="M227.90949,175.90485l-0.13714,-0.0379l0.01573,-0.05691l0.13714,0.0379z" fill="url(#color-50)" stroke="#000000"/><path d="M228.07993,175.28825l-0.13714,-0.0379l0.01574,-0.05692l0.13714,0.0379z" fill="url(#color-51)" stroke="#000000"/><path d="M227.79782,175.58062l-0.13714,-0.0379l0.03474,-0.12565l0.13714,0.0379z" fill="url(#color-52)" stroke="#000000"/><path d="M227.75229,175.74535l-0.13714,-0.0379l0.02717,-0.09833l0.13714,0.0379z" fill="url(#color-53)" stroke="#000000"/><path d="M227.85167,175.38578l-0.13714,-0.0379l0.02717,-0.09833l0.13714,0.0379z" fill="url(#color-54)" stroke="#000000"/><path d="M227.72248,175.85318l-0.13714,-0.0379l0.01574,-0.05692l0.13714,0.0379z" fill="url(#color-55)" stroke="#000000"/><path d="M227.89292,175.23653l-0.13714,-0.0379l0.01574,-0.05692l0.13714,0.0379z" fill="url(#color-56)" stroke="#000000"/><path d="M227.61082,175.5289l-0.13714,-0.0379l0.03473,-0.12566l0.13714,0.0379z" fill="url(#color-57)" stroke="#000000"/><path d="M227.5653,175.69364l-0.13714,-0.0379l0.02717,-0.09833l0.13714,0.0379z" fill="url(#color-58)" stroke="#000000"/><path d="M227.66467,175.33411l-0.13714,-0.0379l0.02717,-0.09833l0.13714,0.0379z" fill="url(#color-59)" stroke="#000000"/><path d="M227.53548,175.8015l-0.13714,-0.0379l0.01574,-0.05692l0.13714,0.0379z" fill="url(#color-60)" stroke="#000000"/><path d="M227.70592,175.18485l-0.13714,-0.0379l0.01574,-0.05692l0.13714,0.0379z" fill="url(#color-61)" stroke="#000000"/><path d="M227.42381,175.47721l-0.13714,-0.0379l0.03474,-0.12565l0.13714,0.0379z" fill="url(#color-62)" stroke="#000000"/><path d="M227.37829,175.64196l-0.13714,-0.0379l0.02717,-0.09833l0.13714,0.0379z" fill="url(#color-63)" stroke="#000000"/><path d="M227.47767,175.28244l-0.13714,-0.0379l0.02717,-0.09833l0.13714,0.0379z" fill="url(#color-64)" stroke="#000000"/><path d="M227.34847,175.74978l-0.13714,-0.0379l0.01573,-0.05692l0.13714,0.0379z" fill="url(#color-65)" stroke="#000000"/><path d="M227.51891,175.13318l-0.13714,-0.0379l0.01574,-0.05691l0.13714,0.0379z" fill="url(#color-66)" stroke="#000000"/></g><g data-paper-data="{&quot;index&quot;:null}" stroke-width="0" stroke-linecap="butt"><path d="M233.04122,170.01275l-0.41553,-0.88479l0.71292,-0.33482l0.41553,0.88478z" fill="url(#color-67)" stroke="#000000"/><path d="M232.97784,170.26657l-0.11061,-0.23551l1.00572,-0.47233l0.1106,0.23551z" fill="url(#color-68)" stroke="none"/><path d="M233.37546,170.0371l-0.07773,-0.1655l0.17379,-0.08163l0.07773,0.1655z" fill="url(#color-69)" stroke="#000000"/><path d="M233.14757,170.14411l-0.07773,-0.1655l0.13601,-0.06389l0.07774,0.1655z" fill="url(#color-70)" stroke="#000000"/><path d="M233.64491,169.91055l-0.07773,-0.1655l0.13602,-0.06388l0.07773,0.1655z" fill="url(#color-71)" stroke="#000000"/><path d="M232.9984,170.21416l-0.07773,-0.1655l0.07873,-0.03697l0.07772,0.1655z" fill="url(#color-72)" stroke="#000000"/><path d="M233.85136,169.81359l-0.07773,-0.1655l0.07873,-0.03697l0.07773,0.1655z" fill="url(#color-73)" stroke="#000000"/><path d="M232.97225,169.98169l-0.04485,-0.09547l0.79566,-0.37368l0.04484,0.09547z" fill="url(#color-74)" stroke="#000000"/><path d="M232.61468,169.1707l-0.03289,-0.07002l0.75747,-0.35575l0.03288,0.07002z" fill="url(#color-75)" stroke="#000000"/><path d="M233.25449,169.70544l-0.06049,-0.12878l0.118,-0.05542l0.06049,0.12878z" fill="url(#color-76)" stroke="#000000"/><path d="M233.09979,169.77807l-0.06048,-0.12878l0.09234,-0.04337l0.06048,0.12878z" fill="url(#color-77)" stroke="#000000"/><path d="M233.43743,169.6195l-0.06048,-0.12878l0.09234,-0.04337l0.06048,0.12878z" fill="url(#color-78)" stroke="#000000"/><path d="M232.99852,169.82562l-0.06048,-0.12878l0.05344,-0.02509l0.06049,0.12878z" fill="url(#color-79)" stroke="#000000"/><path d="M233.57758,169.55367l-0.06049,-0.12879l0.05345,-0.02509l0.06048,0.12878z" fill="url(#color-80)" stroke="#000000"/><path d="M233.172,169.52983l-0.06048,-0.12879l0.118,-0.05541l0.06048,0.12878z" fill="url(#color-81)" stroke="#000000"/><path d="M233.01731,169.60247l-0.06048,-0.12878l0.09234,-0.04337l0.06048,0.12878z" fill="url(#color-82)" stroke="#000000"/><path d="M233.35495,169.44389l-0.06049,-0.12878l0.09234,-0.04337l0.06048,0.12878z" fill="url(#color-83)" stroke="#000000"/><path d="M232.91604,169.65002l-0.06049,-0.12878l0.05345,-0.0251l0.06049,0.12879z" fill="url(#color-84)" stroke="#000000"/><path d="M233.4951,169.37808l-0.06048,-0.12878l0.05345,-0.02509l0.06048,0.12877z" fill="url(#color-85)" stroke="#000000"/><path d="M233.08954,169.3542l-0.06049,-0.12878l0.118,-0.05542l0.06048,0.12878z" fill="url(#color-86)" stroke="#000000"/><path d="M232.93483,169.42688l-0.06049,-0.12878l0.09234,-0.04337l0.06049,0.12878z" fill="url(#color-87)" stroke="#000000"/><path d="M233.27247,169.2683l-0.06048,-0.12878l0.09234,-0.04337l0.06048,0.12878z" fill="url(#color-88)" stroke="#000000"/><path d="M232.83356,169.47442l-0.06048,-0.12878l0.05345,-0.0251l0.06048,0.12879z" fill="url(#color-89)" stroke="#000000"/><path d="M233.41263,169.20247l-0.06049,-0.12878l0.05345,-0.0251l0.06048,0.12878z" fill="url(#color-90)" stroke="#000000"/><path d="M233.00705,169.17858l-0.06048,-0.12879l0.118,-0.05541l0.06048,0.12878z" fill="url(#color-91)" stroke="#000000"/><path d="M232.85235,169.25126l-0.06048,-0.12877l0.09234,-0.04337l0.06048,0.12878z" fill="url(#color-92)" stroke="#000000"/><path d="M233.19,169.0927l-0.06049,-0.12879l0.09234,-0.04337l0.06048,0.12878z" fill="url(#color-93)" stroke="#000000"/><path d="M232.75108,169.29882l-0.06049,-0.12879l0.05345,-0.02509l0.06049,0.12878z" fill="url(#color-94)" stroke="#000000"/><path d="M233.33015,169.02682l-0.06049,-0.12878l0.05345,-0.0251l0.06048,0.12878z" fill="url(#color-95)" stroke="#000000"/></g><path d="M229.02739,178.39294c0,-4.48828 3.30754,-8.03256 7.91818,-8.20018" fill="none" stroke="#ffffff" stroke-width="0.5" stroke-linecap="butt"/><path d="M229.31947,177.85236c0,0 0.21642,-2.84641 2.00379,-4.83718c1.80034,-2.00523 4.83872,-2.45418 4.83872,-2.45418" data-paper-data="{&quot;index&quot;:null}" fill="none" stroke="url(#color-96)" stroke-width="0.25" stroke-linecap="round"/><g data-paper-data="{&quot;index&quot;:null}" fill-opacity="0.68627" fill="#000000" stroke-width="0" stroke-linecap="butt"><path d="M229.89293,172.41537l-0.68205,-0.70022l0.5642,-0.54957l0.68206,0.70022z" stroke="#000000"/><path d="M229.91604,172.67593l-0.18155,-0.18639l0.79593,-0.77528l0.18156,0.18638z" stroke="none"/><path d="M230.21675,172.32904l-0.12758,-0.13098l0.13754,-0.13397l0.12758,0.13098z" stroke="#000000"/><path d="M230.03639,172.50472l-0.12758,-0.13098l0.10764,-0.10485l0.12758,0.13097z" stroke="#000000"/><path d="M230.42999,172.12132l-0.12758,-0.13098l0.10764,-0.10485l0.12758,0.13098z" stroke="#000000"/><path d="M229.91834,172.6197l-0.12758,-0.13098l0.06231,-0.06069l0.12758,0.13098z" stroke="#000000"/><path d="M230.59337,171.96217l-0.12758,-0.13098l0.06231,-0.06069l0.12758,0.13098z" stroke="#000000"/><path d="M229.8176,172.40857l-0.0736,-0.07555l0.62968,-0.61335l0.0736,0.07555z" stroke="#000000"/><path d="M229.21445,171.75912l-0.05398,-0.05541l0.59946,-0.58392l0.05398,0.05541z" stroke="#000000"/><path d="M229.99395,172.05519l-0.09928,-0.10191l0.09338,-0.09097l0.09928,0.10192z" stroke="#000000"/><path d="M229.87153,172.17446l-0.09928,-0.10192l0.07307,-0.07119l0.09928,0.10191z" stroke="#000000"/><path d="M230.13874,171.91417l-0.09928,-0.10192l0.07308,-0.07119l0.09928,0.10192z" stroke="#000000"/><path d="M229.79138,172.25249l-0.09928,-0.10192l0.0423,-0.0412l0.09928,0.10192z" stroke="#000000"/><path d="M230.24965,171.80613l-0.09928,-0.10192l0.0423,-0.04119l0.09928,0.10191z" stroke="#000000"/><path d="M229.85857,171.91622l-0.09928,-0.10191l0.09338,-0.09096l0.09928,0.10192z" stroke="#000000"/><path d="M229.73615,172.03546l-0.09928,-0.10192l0.07307,-0.07118l0.09928,0.10191z" stroke="#000000"/><path d="M230.00335,171.77519l-0.09928,-0.10192l0.07308,-0.07119l0.09928,0.10192z" stroke="#000000"/><path d="M229.65599,172.11352l-0.09928,-0.10192l0.0423,-0.0412l0.09928,0.10191z" stroke="#000000"/><path d="M230.11427,171.66715l-0.09928,-0.10191l0.0423,-0.0412l0.09928,0.10192z" stroke="#000000"/><path d="M229.7232,171.77722l-0.09927,-0.10191l0.09338,-0.09097l0.09928,0.10192z" stroke="#000000"/><path d="M229.60077,171.89648l-0.09928,-0.10192l0.07308,-0.07118l0.09928,0.10191z" stroke="#000000"/><path d="M229.86798,171.63622l-0.09928,-0.10191l0.07307,-0.07119l0.09928,0.10192z" stroke="#000000"/><path d="M229.52062,171.97456l-0.09928,-0.10192l0.0423,-0.04119l0.09928,0.10191z" stroke="#000000"/><path d="M229.9789,171.52816l-0.09928,-0.10192l0.0423,-0.0412l0.09928,0.10192z" stroke="#000000"/><path d="M229.58782,171.63824l-0.09928,-0.10192l0.09339,-0.09096l0.09928,0.10191z" stroke="#000000"/><path d="M229.46539,171.75751l-0.09928,-0.10192l0.07308,-0.07119l0.09928,0.10192z" stroke="#000000"/><path d="M229.7326,171.49722l-0.09928,-0.10191l0.07307,-0.07119l0.09928,0.10191z" stroke="#000000"/><path d="M229.38524,171.83558l-0.09928,-0.10191l0.0423,-0.0412l0.09928,0.10192z" stroke="#000000"/><path d="M229.84352,171.38918l-0.09928,-0.10192l0.0423,-0.04119l0.09928,0.10191z" stroke="#000000"/></g><g data-paper-data="{&quot;index&quot;:null}" fill-opacity="0.68627" fill="#000000" stroke-width="0" stroke-linecap="butt"><path d="M228.07397,175.98987l-0.94217,-0.26042l0.20983,-0.75916l0.94217,0.26042z" stroke="#000000"/><path d="M228.22538,176.20317l-0.25079,-0.06931l0.29602,-1.07095l0.25079,0.06932z" stroke="none"/><path d="M228.30998,175.75196l-0.17623,-0.04871l0.05115,-0.18507l0.17623,0.04871z" stroke="#000000"/><path d="M228.2429,175.99462l-0.17623,-0.04871l0.04003,-0.14484l0.17624,0.0487z" stroke="#000000"/><path d="M228.38928,175.46503l-0.17623,-0.04871l0.04003,-0.14484l0.17623,0.04871z" stroke="#000000"/><path d="M228.19899,176.15346l-0.17623,-0.04871l0.02318,-0.08383l0.17623,0.04871z" stroke="#000000"/><path d="M228.45004,175.2452l-0.17624,-0.04871l0.02318,-0.08383l0.17623,0.04871z" stroke="#000000"/><path d="M228.0055,176.02201l-0.10167,-0.0281l0.23418,-0.84726l0.10167,0.02809z" stroke="#000000"/><path d="M227.15706,175.76563l-0.07456,-0.02061l0.22295,-0.80661l0.07456,0.02061z" stroke="#000000"/><path d="M227.97945,175.62794l-0.13714,-0.0379l0.03473,-0.12565l0.13714,0.0379z" stroke="#000000"/><path d="M227.93392,175.79267l-0.13714,-0.0379l0.02717,-0.09834l0.13714,0.0379z" stroke="#000000"/><path d="M228.0333,175.43311l-0.13714,-0.0379l0.02717,-0.09833l0.13714,0.0379z" stroke="#000000"/><path d="M227.90411,175.9005l-0.13714,-0.0379l0.01573,-0.05691l0.13714,0.0379z" stroke="#000000"/><path d="M228.07455,175.28388l-0.13714,-0.0379l0.01574,-0.05692l0.13714,0.0379z" stroke="#000000"/><path d="M227.79244,175.57625l-0.13714,-0.0379l0.03474,-0.12565l0.13714,0.0379z" stroke="#000000"/><path d="M227.74691,175.74099l-0.13714,-0.0379l0.02717,-0.09833l0.13714,0.0379z" stroke="#000000"/><path d="M227.84629,175.38143l-0.13714,-0.0379l0.02717,-0.09833l0.13714,0.0379z" stroke="#000000"/><path d="M227.7171,175.84881l-0.13714,-0.0379l0.01574,-0.05692l0.13714,0.0379z" stroke="#000000"/><path d="M227.88754,175.23218l-0.13714,-0.0379l0.01574,-0.05692l0.13714,0.0379z" stroke="#000000"/><path d="M227.60544,175.52454l-0.13714,-0.0379l0.03473,-0.12566l0.13714,0.0379z" stroke="#000000"/><path d="M227.55992,175.68929l-0.13714,-0.0379l0.02717,-0.09833l0.13714,0.0379z" stroke="#000000"/><path d="M227.65929,175.32976l-0.13714,-0.0379l0.02717,-0.09833l0.13714,0.0379z" stroke="#000000"/><path d="M227.5301,175.79713l-0.13714,-0.0379l0.01574,-0.05692l0.13714,0.0379z" stroke="#000000"/><path d="M227.70054,175.1805l-0.13714,-0.0379l0.01574,-0.05692l0.13714,0.0379z" stroke="#000000"/><path d="M227.41843,175.47286l-0.13714,-0.0379l0.03474,-0.12565l0.13714,0.0379z" stroke="#000000"/><path d="M227.37291,175.63761l-0.13714,-0.0379l0.02717,-0.09833l0.13714,0.0379z" stroke="#000000"/><path d="M227.47229,175.27807l-0.13714,-0.0379l0.02717,-0.09833l0.13714,0.0379z" stroke="#000000"/><path d="M227.34309,175.74543l-0.13714,-0.0379l0.01573,-0.05692l0.13714,0.0379z" stroke="#000000"/><path d="M227.51353,175.12881l-0.13714,-0.0379l0.01574,-0.05691l0.13714,0.0379z" stroke="#000000"/></g><g data-paper-data="{&quot;index&quot;:null}" fill-opacity="0.68627" fill="#000000" stroke-width="0" stroke-linecap="butt"><path d="M233.03584,170.0084l-0.41553,-0.88479l0.71292,-0.33482l0.41553,0.88478z" stroke="#000000"/><path d="M232.97246,170.26221l-0.11061,-0.23551l1.00572,-0.47233l0.1106,0.23551z" stroke="none"/><path d="M233.37008,170.03273l-0.07773,-0.1655l0.17379,-0.08163l0.07773,0.1655z" stroke="#000000"/><path d="M233.14219,170.13976l-0.07773,-0.1655l0.13601,-0.06389l0.07774,0.1655z" stroke="#000000"/><path d="M233.63953,169.90619l-0.07773,-0.1655l0.13602,-0.06388l0.07773,0.1655z" stroke="#000000"/><path d="M232.99302,170.2098l-0.07773,-0.1655l0.07873,-0.03697l0.07772,0.1655z" stroke="#000000"/><path d="M233.84598,169.80922l-0.07773,-0.1655l0.07873,-0.03697l0.07773,0.1655z" stroke="#000000"/><path d="M232.96687,169.97734l-0.04485,-0.09547l0.79566,-0.37368l0.04484,0.09547z" stroke="#000000"/><path d="M232.6093,169.16635l-0.03289,-0.07002l0.75747,-0.35575l0.03288,0.07002z" stroke="#000000"/><path d="M233.24911,169.70109l-0.06049,-0.12878l0.118,-0.05542l0.06049,0.12878z" stroke="#000000"/><path d="M233.09441,169.77372l-0.06048,-0.12878l0.09234,-0.04337l0.06048,0.12878z" stroke="#000000"/><path d="M233.43205,169.61515l-0.06048,-0.12878l0.09234,-0.04337l0.06048,0.12878z" stroke="#000000"/><path d="M232.99314,169.82127l-0.06048,-0.12878l0.05344,-0.02509l0.06049,0.12878z" stroke="#000000"/><path d="M233.5722,169.54932l-0.06049,-0.12879l0.05345,-0.02509l0.06048,0.12878z" stroke="#000000"/><path d="M233.16662,169.52546l-0.06048,-0.12879l0.118,-0.05541l0.06048,0.12878z" stroke="#000000"/><path d="M233.01193,169.59812l-0.06048,-0.12878l0.09234,-0.04337l0.06048,0.12878z" stroke="#000000"/><path d="M233.34957,169.43954l-0.06049,-0.12878l0.09234,-0.04337l0.06048,0.12878z" stroke="#000000"/><path d="M232.91066,169.64567l-0.06049,-0.12878l0.05345,-0.0251l0.06049,0.12879z" stroke="#000000"/><path d="M233.48972,169.37372l-0.06048,-0.12878l0.05345,-0.02509l0.06048,0.12877z" stroke="#000000"/><path d="M233.08416,169.34984l-0.06049,-0.12878l0.118,-0.05542l0.06048,0.12878z" stroke="#000000"/><path d="M232.92945,169.42252l-0.06049,-0.12878l0.09234,-0.04337l0.06049,0.12878z" stroke="#000000"/><path d="M233.26709,169.26395l-0.06048,-0.12878l0.09234,-0.04337l0.06048,0.12878z" stroke="#000000"/><path d="M232.82818,169.47007l-0.06048,-0.12878l0.05345,-0.0251l0.06048,0.12879z" stroke="#000000"/><path d="M233.40725,169.1981l-0.06049,-0.12878l0.05345,-0.0251l0.06048,0.12878z" stroke="#000000"/><path d="M233.00167,169.17423l-0.06048,-0.12879l0.118,-0.05541l0.06048,0.12878z" stroke="#000000"/><path d="M232.84697,169.2469l-0.06048,-0.12877l0.09234,-0.04337l0.06048,0.12878z" stroke="#000000"/><path d="M233.18462,169.08833l-0.06049,-0.12879l0.09234,-0.04337l0.06048,0.12878z" stroke="#000000"/><path d="M232.7457,169.29445l-0.06049,-0.12879l0.05345,-0.02509l0.06049,0.12878z" stroke="#000000"/><path d="M233.32477,169.02247l-0.06049,-0.12878l0.05345,-0.0251l0.06048,0.12878z" stroke="#000000"/></g></g></g></g></svg>