<svg version="1.1" xmlns="http://www.w3.org/2000/svg" xmlns:xlink="http://www.w3.org/1999/xlink" width="62.17399" height="65.47224" viewBox="0,0,62.17399,65.47224"><defs><linearGradient x1="240.00002" y1="148.82816" x2="240.00002" y2="210.80044" gradientUnits="userSpaceOnUse" id="color-1"><stop offset="0" stop-color="#000000"/><stop offset="1" stop-color="#171717"/></linearGradient><linearGradient x1="240.00002" y1="148.82816" x2="240.00002" y2="210.80044" gradientUnits="userSpaceOnUse" id="color-2"><stop offset="0" stop-color="#a2a2a2"/><stop offset="1" stop-color="#8b8b8b"/></linearGradient><linearGradient x1="240.00002" y1="148.82816" x2="240.00002" y2="210.80044" gradientUnits="userSpaceOnUse" id="color-3"><stop offset="0" stop-color="#cccccc"/><stop offset="1" stop-color="#898989"/></linearGradient><radialGradient cx="240" cy="180.00001" r="29.69285" gradientUnits="userSpaceOnUse" id="color-4"><stop offset="0" stop-color="#ffffff" stop-opacity="0.35484"/><stop offset="1" stop-color="#ffffff" stop-opacity="0"/></radialGradient><linearGradient x1="240" y1="150.47211" x2="240" y2="209.5279" gradientUnits="userSpaceOnUse" id="color-5"><stop offset="0" stop-color="#cccccc"/><stop offset="1" stop-color="#898989"/></linearGradient><radialGradient cx="217.66938" cy="181.78701" r="12.09642" gradientUnits="userSpaceOnUse" id="color-6"><stop offset="0" stop-color="#fbff00"/><stop offset="1" stop-color="#e7c800"/></radialGradient><radialGradient cx="239.65997" cy="165.41369" r="23.74111" gradientUnits="userSpaceOnUse" id="color-7"><stop offset="0" stop-color="#b5adc7"/><stop offset="1" stop-color="#736e7d"/></radialGradient><radialGradient cx="255.25449" cy="177.92208" r="22.08256" gradientUnits="userSpaceOnUse" id="color-8"><stop offset="0" stop-color="#7c20fa"/><stop offset="1" stop-color="#5c00dc"/></radialGradient><linearGradient x1="265.77476" y1="173.55235" x2="229.49792" y2="198.74479" gradientUnits="userSpaceOnUse" id="color-9"><stop offset="0" stop-color="#212121"/><stop offset="1" stop-color="#161616"/></linearGradient><radialGradient cx="246.61464" cy="169.2182" r="9.04405" gradientUnits="userSpaceOnUse" id="color-10"><stop offset="0" stop-color="#1d1d1d"/><stop offset="1" stop-color="#0c0c0c"/></radialGradient><radialGradient cx="262.54393" cy="164.9373" r="7.1677" gradientUnits="userSpaceOnUse" id="color-11"><stop offset="0" stop-color="#757575"/><stop offset="1" stop-color="#333333"/></radialGradient><radialGradient cx="233.25736" cy="176.74185" r="13.39957" gradientUnits="userSpaceOnUse" id="color-12"><stop offset="0" stop-color="#b0b9ff"/><stop offset="1" stop-color="#6600ff"/></radialGradient><radialGradient cx="239.65997" cy="165.41369" r="23.74109" gradientUnits="userSpaceOnUse" id="color-13"><stop offset="0" stop-color="#9c93ab"/><stop offset="1" stop-color="#605966"/></radialGradient><radialGradient cx="250.54136" cy="161.52744" r="5.78842" gradientUnits="userSpaceOnUse" id="color-14"><stop offset="0" stop-color="#afb7ff"/><stop offset="1" stop-color="#6600ff"/></radialGradient></defs><g transform="translate(-208.91301,-147.07819)"><g data-paper-data="{&quot;isPaintingLayer&quot;:true}" fill-rule="nonzero" stroke-linecap="butt" stroke-linejoin="miter" stroke-miterlimit="10" stroke-dasharray="" stroke-dashoffset="0" style="mix-blend-mode: normal"><path d="M210.66301,210.80044v-61.97223h58.67399v61.97223z" fill="url(#color-1)" stroke="url(#color-2)" stroke-width="0"/><path d="" fill="#494949" stroke="#000000" stroke-width="0"/><g stroke="#000000" stroke-width="0"><path d="" data-paper-data="{&quot;index&quot;:null}" fill="#141415"/><path d="" data-paper-data="{&quot;index&quot;:null}" fill="#252527"/></g><g data-paper-data="{&quot;index&quot;:null}" stroke="#000000" stroke-width="0"><path d="" data-paper-data="{&quot;index&quot;:null}" fill="#141415"/><path d="" data-paper-data="{&quot;index&quot;:null}" fill="#252527"/></g><path d="M210.66301,210.80044v-61.97224h58.67399v61.97224z" fill="none" stroke="url(#color-3)" stroke-width="3.5"/><path d="M269.69285,180.00001c0,16.3078 -13.29394,29.52789 -29.69285,29.52789c-16.39891,0 -29.69285,-13.22009 -29.69285,-29.52789c0,-16.3078 13.29394,-29.52789 29.69285,-29.52789c16.39891,0 29.69285,13.22009 29.69285,29.52789z" fill="url(#color-4)" stroke="url(#color-5)" stroke-width="0"/><path d="M227.71342,198.7608l-13.79957,-19.87124l1.73332,-1.2037l13.79957,19.87123z" data-paper-data="{&quot;index&quot;:null}" fill="url(#color-6)" stroke="#000000" stroke-width="0.5"/><path d="M229.39937,198.47047l-14.74533,-21.23311c0,0 11.52199,-8.55485 19.27111,-12.84489c1.88406,-1.04305 4.998,-1.97961 5.98923,-2.31144c4.72741,-1.58258 19.95489,-1.78734 24.70527,4.7889c2.13064,2.94958 0.74602,6.62376 0.74602,6.62376z" data-paper-data="{&quot;index&quot;:null}" fill="url(#color-7)" stroke="#000000" stroke-width="0"/><path d="M228.58928,197.26555l-0.42989,-0.61904l36.27583,-25.19173l0.42989,0.61904z" data-paper-data="{&quot;index&quot;:null}" fill="url(#color-8)" stroke="#000000" stroke-width="0"/><path d="M229.7666,199.13169l-0.53736,-0.77381l36.27684,-25.19244l0.53737,0.77379z" data-paper-data="{&quot;index&quot;:null}" fill="url(#color-9)" stroke="#000000" stroke-width="0"/><path d="M249.04942,184.61604l-9.88753,-14.23796l6.87136,-4.77182l9.88753,14.23796z" data-paper-data="{&quot;index&quot;:null}" fill="url(#color-10)" stroke="#000000" stroke-width="0.5"/><path d="M256.71459,161.82833c0,0 7.23343,1.53518 8.7139,5.28075c1.96625,6.84228 -1.10308,6.86794 -1.10308,6.86794c0,0 0.52811,-2.94278 -1.67057,-6.50167c-2.3164,-3.7494 -5.94025,-5.64703 -5.94025,-5.64703z" data-paper-data="{&quot;index&quot;:null}" fill="url(#color-11)" stroke="#000000" stroke-width="0"/><path d="M228.71159,188.89093c-1.52122,0.94876 -3.44944,1.11086 -3.44944,1.11086c0,0 -2.2783,-2.35326 -4.40726,-5.28937c-1.14188,-1.57479 -2.12711,-4.12007 -2.12711,-4.12007c0,0 2.76419,-2.68111 5.85793,-4.41741c3.55909,-1.99746 7.7535,-4.01737 10.46051,-4.81215c1.46709,-0.43073 2.69648,-0.1215 2.69648,-0.1215c0,0 1.38577,0.87298 2.94563,3.18462c1.58723,2.35222 1.7832,3.62483 1.7832,3.62483c0,0 -3.38671,4.37058 -13.75991,10.84017z" data-paper-data="{&quot;index&quot;:null}" fill="url(#color-12)" stroke-opacity="0.72673" stroke="#320080" stroke-width="0.5"/><path d="M234.22177,166.21068c-5.20635,2.96138 -18.36403,12.75998 -18.36403,12.75998l-1.20369,-1.73331c0,0 11.52199,-8.55485 19.27111,-12.84488c1.88406,-1.04305 4.99799,-1.97962 5.98923,-2.31144c4.72741,-1.58258 4.91967,0.34562 4.91967,0.34562c0,0 -6.69942,1.55839 -10.61229,3.78404z" data-paper-data="{&quot;index&quot;:null}" fill="url(#color-13)" stroke="#000000" stroke-width="0"/><path d="M242.95511,161.47808c0,0 3.46269,-0.91027 7.58456,-0.50646c4.12186,0.40381 7.07894,1.32569 7.07894,1.32569c0,0 -3.19959,1.55338 -7.32145,1.14957c-4.12187,-0.40381 -7.34205,-1.96881 -7.34205,-1.96881z" data-paper-data="{&quot;index&quot;:null}" fill="url(#color-14)" stroke-opacity="0.72673" stroke="#320080" stroke-width="0.5"/><path d="M214.22299,161.65855v-8.69862h43.61693v8.69862z" fill-opacity="0.53453" fill="#000000" stroke="#a60000" stroke-width="0"/><text transform="translate(214.65684,159.93473) scale(0.21839,0.21839)" font-size="40" xml:space="preserve" fill="#ffffff" fill-rule="nonzero" stroke="none" stroke-width="1" stroke-linecap="butt" stroke-linejoin="miter" stroke-miterlimit="10" stroke-dasharray="" stroke-dashoffset="0" font-family="Serif" font-weight="normal" text-anchor="start" style="mix-blend-mode: normal"><tspan x="0" dy="0">Hover Train</tspan></text></g></g></svg>