<svg version="1.1" xmlns="http://www.w3.org/2000/svg" xmlns:xlink="http://www.w3.org/1999/xlink" width="93.51728" height="121.26994" viewBox="0,0,93.51728,121.26994"><defs><linearGradient x1="286.24076" y1="184.19721" x2="289.15842" y2="172.59771" gradientUnits="userSpaceOnUse" id="color-1"><stop offset="0" stop-color="#242424"/><stop offset="1" stop-color="#373737"/></linearGradient><radialGradient cx="282.74757" cy="184.67584" r="3.52256" gradientUnits="userSpaceOnUse" id="color-2"><stop offset="0" stop-color="#bfbfbf"/><stop offset="1" stop-color="#9a9a9a"/></radialGradient><linearGradient x1="290.83447" y1="172.3722" x2="312.28933" y2="132.32007" gradientUnits="userSpaceOnUse" id="color-3"><stop offset="0" stop-color="#b2b2b2"/><stop offset="1" stop-color="#c4c4c4"/></linearGradient><linearGradient x1="291.29274" y1="172.27782" x2="305.33533" y2="146.06305" gradientUnits="userSpaceOnUse" id="color-4"><stop offset="0" stop-color="#cccccc"/><stop offset="1" stop-color="#d8d8d8"/></linearGradient><linearGradient x1="289.28999" y1="174.40536" x2="290.48012" y2="172.27494" gradientUnits="userSpaceOnUse" id="color-5"><stop offset="0" stop-color="#b5b5b5"/><stop offset="1" stop-color="#c5c5c5"/></linearGradient><linearGradient x1="257.33946" y1="187.80029" x2="260.10708" y2="176.16408" gradientUnits="userSpaceOnUse" id="color-6"><stop offset="0" stop-color="#242424"/><stop offset="1" stop-color="#373737"/></linearGradient><radialGradient cx="253.85275" cy="188.32399" r="3.52256" gradientUnits="userSpaceOnUse" id="color-7"><stop offset="0" stop-color="#bfbfbf"/><stop offset="1" stop-color="#9a9a9a"/></radialGradient><linearGradient x1="261.78008" y1="175.91693" x2="282.71585" y2="135.59107" gradientUnits="userSpaceOnUse" id="color-8"><stop offset="0" stop-color="#b2b2b2"/><stop offset="1" stop-color="#c4c4c4"/></linearGradient><linearGradient x1="262.23707" y1="175.81665" x2="275.93994" y2="149.42271" gradientUnits="userSpaceOnUse" id="color-9"><stop offset="0" stop-color="#cccccc"/><stop offset="1" stop-color="#d8d8d8"/></linearGradient><linearGradient x1="260.26197" y1="177.96988" x2="261.42449" y2="175.82426" gradientUnits="userSpaceOnUse" id="color-10"><stop offset="0" stop-color="#b5b5b5"/><stop offset="1" stop-color="#c5c5c5"/></linearGradient><linearGradient x1="240.22112" y1="147.48626" x2="240.26321" y2="155.35939" gradientUnits="userSpaceOnUse" id="color-11"><stop offset="0" stop-color="#505050"/><stop offset="1" stop-color="#767676"/></linearGradient><radialGradient cx="235.04766" cy="124.19394" r="13.11833" gradientUnits="userSpaceOnUse" id="color-12"><stop offset="0" stop-color="#ccbe7a"/><stop offset="1" stop-color="#948f62"/></radialGradient><linearGradient x1="251.01932" y1="114.8886" x2="251.06872" y2="124.13092" gradientUnits="userSpaceOnUse" id="color-13"><stop offset="0" stop-color="#464646"/><stop offset="1" stop-color="#343434"/></linearGradient><linearGradient x1="251.01933" y1="114.8886" x2="251.06873" y2="124.13092" gradientUnits="userSpaceOnUse" id="color-14"><stop offset="0" stop-color="#131313"/><stop offset="1" stop-color="#202020"/></linearGradient><linearGradient x1="239.44338" y1="115.97745" x2="239.63066" y2="151.00698" gradientUnits="userSpaceOnUse" id="color-15"><stop offset="0" stop-color="#ffe8b5" stop-opacity="0.32941"/><stop offset="1" stop-color="#c2a53e" stop-opacity="0.63529"/></linearGradient><linearGradient x1="239.44338" y1="115.97745" x2="239.63066" y2="151.00698" gradientUnits="userSpaceOnUse" id="color-16"><stop offset="0" stop-color="#444444"/><stop offset="1" stop-color="#545454"/></linearGradient><linearGradient x1="228.11346" y1="113.58251" x2="228.17711" y2="125.48787" gradientUnits="userSpaceOnUse" id="color-17"><stop offset="0" stop-color="#464646"/><stop offset="1" stop-color="#343434"/></linearGradient><linearGradient x1="228.11346" y1="113.58251" x2="228.17711" y2="125.48787" gradientUnits="userSpaceOnUse" id="color-18"><stop offset="0" stop-color="#131313"/><stop offset="1" stop-color="#202020"/></linearGradient></defs><g transform="translate(-221.9703,-113.05657)"><g data-paper-data="{&quot;isPaintingLayer&quot;:true}" fill-rule="nonzero" stroke-linejoin="miter" stroke-miterlimit="10" stroke-dasharray="" stroke-dashoffset="0" style="mix-blend-mode: normal"><path d="M226.24048,195.73067l-0.24345,-45.53522l25.5766,-0.13674l0.53913,45.53364z" fill="#747474" stroke="none" stroke-width="NaN" stroke-linecap="butt"/><g><path d="M226.1234,227.23587l3.75904,-33.71008c0,0 6.75518,-2.18267 9.822,-2.18267c3.62872,0 0.6063,4.24407 0.6063,4.24407c0,0 -3.09204,0.08829 -3.39803,1.52409c-0.93579,4.39099 -2.78619,30.12458 -2.78619,30.12458z" fill="#ffefeb" stroke="#000000" stroke-width="0" stroke-linecap="butt"/><path d="M241.47427,232.29258c0,0 -0.3857,1.94015 -1.2126,1.94015c-0.59276,0 -2.64411,0.01366 -4.70436,-0.06689c-1.25258,-0.04897 -1.90215,-0.61779 -2.83553,-0.76063c-1.17507,-0.17983 -2.93853,0.22047 -3.78777,0.02896c-1.56485,-0.35288 -2.37463,-0.77781 -2.37463,-0.77781c0,0 -0.26912,-1.02539 -0.2856,-1.5858c-0.02221,-0.755 0.16433,-2.53701 0.16433,-2.53701c0,0 5.93424,-0.11957 8.24914,0.08075c1.36979,0.11854 4.24057,0.6468 4.24057,0.6468c0,0 1.45975,0.6156 1.67337,1.04283c0.26162,0.52325 0.87307,1.98866 0.87307,1.98866z" data-paper-data="{&quot;index&quot;:null}" fill="#141415" stroke="#000000" stroke-width="0" stroke-linecap="butt"/><path d="M241.20337,231.65797c0,0 -0.38569,0 -1.21259,0c-0.24822,0 0.70239,1.60165 -2.61811,1.33311c-3.13563,-0.25359 -2.77648,-1.18823 -3.8809,-1.26883c-2.30937,-0.16854 -2.58766,0.59503 -3.58733,0.44204c-0.34815,-0.05328 -0.51271,-0.11454 -1.78458,-0.97035c-0.87471,-0.58857 -0.66566,-1.75122 -1.26542,-2.3793c-0.87609,-0.91746 -0.80847,-1.8858 -0.80847,-1.8858l-0.07637,-3.04773c0,0 0.48635,2.20682 1.32529,3.03123c0.75062,0.73761 2.3169,-0.01875 2.80058,-0.01889c0.84695,-0.00024 -0.68885,-3.26805 0.12091,-3.24981c0.43542,0.00981 3.72275,-0.23408 3.72275,-0.23408c0,0 0.12302,3.57988 0.35598,3.60004c1.36978,0.11854 4.60434,0.6468 4.60434,0.6468c0,0 1.45975,0.6156 1.67337,1.04283c0.26163,0.52325 0.63055,2.95873 0.63055,2.95873z" data-paper-data="{&quot;index&quot;:null}" fill="#252527" stroke="#000000" stroke-width="0" stroke-linecap="butt"/><path d="M235.18839,227.628l-2.66771,1.09134" data-paper-data="{&quot;index&quot;:null}" fill="none" stroke="#ffffff" stroke-width="0.5" stroke-linecap="round"/><path d="M237.00727,227.62802l-2.54644,1.45511" data-paper-data="{&quot;index&quot;:null}" fill="none" stroke="#ffffff" stroke-width="0.5" stroke-linecap="round"/><path d="M238.09861,227.87055l-1.45512,1.45512" data-paper-data="{&quot;index&quot;:null}" fill="none" stroke="#ffffff" stroke-width="0.5" stroke-linecap="round"/><path d="M233.49075,224.59653l-2.18267,0.24252" data-paper-data="{&quot;index&quot;:null}" fill="none" stroke="#969696" stroke-width="0.5" stroke-linecap="round"/><path d="M231.79312,225.6879l1.94015,-0.36378" data-paper-data="{&quot;index&quot;:null}" fill="none" stroke="#969696" stroke-width="0.5" stroke-linecap="round"/></g><path d="M293.32245,176.96197c-0.28139,0.42155 -3.63431,-1.54624 -4.73998,-0.67461c-0.37959,0.29924 3.9849,3.25928 3.28285,3.86903c-0.41675,0.36196 -2.80093,-1.32377 -4.17214,-1.77768c-0.66802,-0.22114 -4.96418,-2.46885 -4.96418,-2.46885c0,0 -2.18389,-2.12393 -5.42147,-3.48057c-0.77855,-0.32622 -3.23269,-1.57899 -4.03614,-1.90566c-1.90154,-0.77313 -3.81818,-1.46693 -4.97093,-1.97169c-2.4794,-1.08563 -13.98542,-7.03568 -13.98542,-7.03568c0,0 -6.84047,-1.98852 -5.74002,-3.86092c3.39399,-5.77487 7.23281,-1.52291 7.23281,-1.52291c0,0 5.66867,3.33926 11.95042,6.38764c4.72543,2.29314 10.00399,4.25381 12.32923,5.43933c2.75192,1.40307 6.06018,3.64166 6.06018,3.64166c0,0 2.40607,1.41158 4.35582,2.71865c1.75437,1.17609 3.08991,2.23636 2.81896,2.64231z" data-paper-data="{&quot;index&quot;:null}" fill="#8c8c8c" stroke="#000000" stroke-width="0" stroke-linecap="butt"/><g stroke="none" stroke-width="0" stroke-linecap="butt"><path d="M287.30605,184.46516l-4.43678,-2.37449l5.22387,-9.76088l4.43678,2.37451z" fill="url(#color-1)"/><path d="M285.25504,180.89597c1.88667,0.47457 3.03144,2.38873 2.55688,4.2754c-0.47457,1.88669 -2.38874,3.03145 -4.27541,2.55689c-1.88668,-0.47456 -3.03145,-2.38874 -2.55688,-4.2754c0.47457,-1.88669 2.38874,-3.03145 4.27541,-2.55689z" fill="url(#color-2)"/><path d="M294.93428,174.56836l-8.19965,-4.39232l22.97547,-38.86904l5.7775,-5.77773l-1.40573,7.94949z" fill="url(#color-3)"/><path d="M293.97615,173.71524l-5.71058,-2.97395l19.28081,-32.40872l5.85648,-8.39615l-3.58353,9.27562z" fill="url(#color-4)"/><path d="M281.19986,164.58252c0,0 5.87737,5.43672 9.29851,7.40767c3.75626,2.16402 12.32765,5.05141 12.32765,5.05141c0,0 -9.97173,-0.87986 -13.61482,-2.97872c-3.56387,-2.05318 -8.01134,-9.48038 -8.01134,-9.48038z" fill="url(#color-5)"/></g><g><path d="M239.70443,191.3431c3.62872,0 10.54956,2.18267 10.54956,2.18267l3.03149,33.71008h-7.63934c0,0 -1.32697,-25.53818 -2.03751,-29.57011c-0.20138,-1.1427 -3.2979,-2.07857 -3.2979,-2.07857c0,0 -3.67312,-4.24407 -0.6063,-4.24407z" fill="#ffefeb" stroke="#000000" stroke-width="0" stroke-linecap="butt"/><path d="M259.69261,234.32563c-0.59276,0 -2.64411,0.01365 -4.70436,-0.0669c-1.25258,-0.04897 -1.90215,-0.61779 -2.83553,-0.76063c-1.17507,-0.17982 -2.93854,0.22047 -3.78778,0.02896c-1.56485,-0.35288 -2.37463,-0.77782 -2.37463,-0.77782c0,0 -0.26911,-1.0254 -0.2856,-1.5858c-0.02221,-0.75501 0.16433,-2.53701 0.16433,-2.53701c0,0 5.93425,-0.11957 8.24914,0.08076c1.36979,0.11854 4.24057,0.6468 4.24057,0.6468c0,0 1.45976,0.6156 1.67337,1.04283c0.26162,0.52325 0.87307,1.98865 0.87307,1.98865c0,0 -0.3857,1.94015 -1.21259,1.94015z" data-paper-data="{&quot;index&quot;:null}" fill="#141415" stroke="#000000" stroke-width="0" stroke-linecap="butt"/><path d="M259.4217,231.75086c-0.24822,0 0.7024,1.60165 -2.61811,1.33311c-3.13563,-0.25358 -2.77648,-1.18823 -3.8809,-1.26883c-2.30937,-0.16854 -2.58765,0.59503 -3.58732,0.44205c-0.34815,-0.05328 -0.51271,-0.11454 -1.78459,-0.97035c-0.87472,-0.58857 -0.66566,-1.75122 -1.26542,-2.3793c-0.87609,-0.91745 -0.80847,-1.8858 -0.80847,-1.8858l-0.07637,-3.04773c0,0 0.48635,2.20681 1.32529,3.03122c0.75062,0.73761 2.3169,-0.01875 2.80058,-0.01889c0.84696,-0.00024 -0.68885,-3.26804 0.12091,-3.2498c0.43542,0.00981 3.72275,-0.23409 3.72275,-0.23409c0,0 0.12302,3.57989 0.35598,3.60005c1.36979,0.11854 4.60434,0.6468 4.60434,0.6468c0,0 1.45976,0.6156 1.67338,1.04283c0.26162,0.52325 0.63055,2.95873 0.63055,2.95873c0,0 -0.3857,0 -1.2126,0z" data-paper-data="{&quot;index&quot;:null}" fill="#252527" stroke="#000000" stroke-width="0" stroke-linecap="butt"/><path d="M254.61932,227.7209l-2.6677,1.09133" fill="none" stroke="#ffffff" stroke-width="0.5" stroke-linecap="round"/><path d="M253.89177,229.17601l2.54645,-1.45511" fill="none" stroke="#ffffff" stroke-width="0.5" stroke-linecap="round"/><path d="M257.52956,227.96345l-1.45512,1.45511" fill="none" stroke="#ffffff" stroke-width="0.5" stroke-linecap="round"/><path d="M252.92169,224.6894l-2.18266,0.24252" fill="none" stroke="#969696" stroke-width="0.5" stroke-linecap="round"/><path d="M253.16422,225.41701l-1.94015,0.36378" fill="none" stroke="#969696" stroke-width="0.5" stroke-linecap="round"/></g><path d="M291.55609,183.2615c-0.30834,0.36223 -3.28191,-1.55676 -4.16875,-1.67825c-0.47475,-0.06504 3.1869,3.42803 2.4625,3.92366c-0.43002,0.29421 -2.50805,-1.49121 -3.75564,-2.04198c-0.60781,-0.26831 -4.43264,-2.75621 -4.43264,-2.75621c0,0 -1.8445,-2.17085 -4.76118,-3.73434c-0.70139,-0.37598 -2.88945,-1.76834 -3.6143,-2.1471c-1.71548,-0.89644 -3.45327,-1.72107 -4.48956,-2.29781c-2.22889,-1.24045 -12.47974,-7.83915 -12.47974,-7.83915c0,0 -9.2937,-2.26563 -6.97111,-5.91409c2.0444,-3.21146 8.92708,1.08608 8.92708,1.08608c0,0 5.0088,3.62755 10.62561,7.0454c4.22524,2.57106 9.00618,4.88822 11.07947,6.20613c2.45375,1.55973 5.34745,3.94439 5.34745,3.94439c0,0 2.12656,1.5344 3.83324,2.92847c1.53566,1.25439 2.69449,2.926 2.39758,3.27482z" data-paper-data="{&quot;index&quot;:null}" fill="#969696" stroke="#000000" stroke-width="0" stroke-linecap="butt"/><g><path d="M229.60281,193.33762c0,0 1.02757,-4.97388 0.47903,-10.35514c-0.17079,-1.67551 -0.24343,-5.68772 -0.75699,-7.53799c-0.6072,-2.18766 -2.54888,-2.76422 -2.6411,-4.11506c-0.18216,-2.66827 -1.10632,-6.78787 -0.47725,-11.36884c0.47421,-3.45325 3.4248,-6.31687 3.4248,-6.31687c0,0 3.98586,-0.31039 5.76541,0.04629c2.26527,0.45405 7.72898,0.42891 9.64015,0.00242c2.01653,-0.45 5.48448,-0.01256 5.48448,-0.01256c0,0 2.63992,3.50782 2.88975,7.82562c0.23579,4.0752 -0.58734,8.4711 -0.65505,10.14136c-0.06863,1.69296 -1.48368,2.13926 -2.1094,4.28615c-0.49918,1.71274 -0.51928,5.1933 -0.63901,7.19301c-0.27807,4.64451 0.20276,10.27278 0.20276,10.27278c0,0 -2.76104,-0.75458 -5.57627,-0.80773c-1.27848,-0.02414 -1.78585,1.01567 -2.99223,1.18134c-0.96427,0.13239 -2.63947,-0.59881 -3.56449,-0.63061c-0.69928,-0.02404 -2.04658,-0.51967 -2.54083,-0.52113c-0.99798,-0.00296 -1.61107,0.87391 -2.76793,1.03946c-1.34383,0.19228 -3.16587,-0.32247 -3.16587,-0.32247z" fill="#9d9d9d" stroke="#292e32" stroke-width="0" stroke-linecap="butt"/><path d="M236.12299,159.71081l-2.18265,9.0507" fill="#ff0000" stroke="#ff0000" stroke-width="1" stroke-linecap="round"/><path d="M231.67091,159.20932l-3.94033,8.13058" fill="#ff0000" stroke="#ff0000" stroke-width="1" stroke-linecap="round"/><path d="M230.70304,168.25664l3.11314,-8.84772" fill="#ff0000" stroke="#ff0000" stroke-width="1" stroke-linecap="round"/><path d="M247.86554,168.77098l-1.65612,-9.03017" data-paper-data="{&quot;index&quot;:null}" fill="#ff0000" stroke="#ff0000" stroke-width="1" stroke-linecap="round"/><path d="M249.41305,159.19838l2.91428,8.09394" data-paper-data="{&quot;index&quot;:null}" fill="#ff0000" stroke="#ff0000" stroke-width="1" stroke-linecap="round"/><path d="M247.86898,159.41772l2.32478,8.81866" data-paper-data="{&quot;index&quot;:null}" fill="#ff0000" stroke="#ff0000" stroke-width="1" stroke-linecap="round"/><path d="M231.79993,189.93681c-0.00176,-0.41421 0.33262,-0.7514 0.74683,-0.75316c0.41421,-0.00176 0.7514,0.33262 0.75316,0.74683c0.00176,0.41421 -0.33261,0.7514 -0.74683,0.75316c-0.41421,0.00176 -0.7514,-0.33262 -0.75316,-0.74683z" fill="#002dff" stroke="none" stroke-width="0.5" stroke-linecap="butt"/><path d="M235.48695,189.92124c-0.00176,-0.41421 0.33262,-0.7514 0.74683,-0.75316c0.41421,-0.00176 0.7514,0.33262 0.75316,0.74683c0.00176,0.41421 -0.33261,0.7514 -0.74683,0.75316c-0.41421,0.00176 -0.7514,-0.33262 -0.75316,-0.74683z" fill="#002dff" stroke="none" stroke-width="0.5" stroke-linecap="butt"/><path d="M239.27639,189.90521c-0.00176,-0.41421 0.33261,-0.7514 0.74683,-0.75316c0.41421,-0.00176 0.7514,0.33262 0.75316,0.74683c0.00176,0.41421 -0.33262,0.7514 -0.74683,0.75316c-0.41421,0.00176 -0.7514,-0.33262 -0.75316,-0.74683z" fill="#002dff" stroke="none" stroke-width="0.5" stroke-linecap="butt"/><path d="M243.16824,189.88881c-0.00176,-0.41421 0.33262,-0.75141 0.74683,-0.75316c0.41421,-0.00176 0.7514,0.33262 0.75316,0.74683c0.00176,0.41421 -0.33262,0.7514 -0.74683,0.75316c-0.41421,0.00176 -0.7514,-0.33261 -0.75316,-0.74683z" fill="#002dff" stroke="none" stroke-width="0.5" stroke-linecap="butt"/><path d="M246.85526,189.87328c-0.00176,-0.41421 0.33262,-0.75141 0.74683,-0.75316c0.41421,-0.00176 0.7514,0.33262 0.75316,0.74684c0.00176,0.41421 -0.33262,0.7514 -0.74683,0.75315c-0.41421,0.00176 -0.7514,-0.33261 -0.75316,-0.74683z" fill="#002dff" stroke="none" stroke-width="0.5" stroke-linecap="butt"/><path d="M238.89289,177.31059c-0.00737,-1.38069 1.10591,-2.50595 2.4866,-2.51332c1.38069,-0.00737 2.50595,1.10591 2.51332,2.4866c0.00737,1.38069 -1.10591,2.50595 -2.4866,2.51332c-1.38069,0.00737 -2.50595,-1.10591 -2.51332,-2.4866z" fill="#797979" stroke="#00ff35" stroke-width="1" stroke-linecap="butt"/><path d="M237.39697,177.01133l-5.73533,0.03066" fill="none" stroke="#00ff35" stroke-width="1" stroke-linecap="round"/><path d="M245.2836,177.07158l3.5846,-0.01917" fill="none" stroke="#00ff35" stroke-width="1" stroke-linecap="round"/></g><path d="M259.293,183.45753c-2.09343,-1.0651 -4.49826,-2.48738 -4.49826,-2.48738c0,0 -3.57049,-1.796 -6.13364,-3.53609c-2.1657,-1.47027 -6.43453,-5.19963 -10.73285,-8.24982c-5.71398,-4.05476 -11.39183,-7.39838 -11.39183,-7.39838c0,0 -4.95892,-2.98006 -2.01625,-7.34138c2.67667,-3.96708 6.51086,2.72939 6.51086,2.72939c0,0 10.35282,7.60456 12.5039,9.26799c1.00013,0.77339 2.53408,2.1372 4.1311,3.44483c0.67478,0.5525 2.96189,2.10347 3.62435,2.63366c2.75481,2.20475 5.68458,3.044 5.68458,3.044c0,0 4.05225,2.68576 4.56856,3.17222c1.05981,0.99846 3.69718,2.25399 3.57613,2.82545c-0.20387,0.96266 -5.94527,-1.63791 -5.68719,-1.19009c0.48207,0.83655 3.79301,3.7413 3.55424,4.22208c-0.22992,0.46298 -1.81009,-0.17814 -3.69372,-1.13649z" data-paper-data="{&quot;index&quot;:null}" fill="#a1a1a1" stroke="#000000" stroke-width="0" stroke-linecap="butt"/><g stroke="none" stroke-width="0" stroke-linecap="butt"><path d="M258.40811,188.05446l-4.46709,-2.31699l5.09736,-9.82754l4.46709,2.31701z" fill="url(#color-6)"/><path d="M256.31119,184.51207c1.89264,0.45015 3.06204,2.34938 2.61188,4.24204c-0.45015,1.89266 -2.34939,3.06205 -4.24204,2.61189c-1.89265,-0.45015 -3.06205,-2.34939 -2.61188,-4.24204c0.45015,-1.89266 2.34939,-3.06205 4.24204,-2.61189z" fill="url(#color-7)"/><path d="M265.90789,178.05998l-8.25569,-4.28606l22.47154,-39.16255l5.7024,-5.85186l-1.30296,7.96699z" fill="url(#color-8)"/><path d="M264.93884,177.2193c0,0 -0.31477,-0.15879 -0.62254,-0.31406c-0.88315,-0.44553 -5.12597,-2.5859 -5.12597,-2.5859l18.86064,-32.65503l5.74755,-8.47107l-3.46343,9.32112z" fill="url(#color-9)"/><path d="M252.04566,168.25235c0,0 5.94709,5.36036 9.39341,7.28696c3.78388,2.11533 12.39186,4.89178 12.39186,4.89178c0,0 -9.98224,-0.75102 -13.65216,-2.80264c-3.59009,-2.00697 -8.13312,-9.37611 -8.13312,-9.37611z" fill="url(#color-10)"/></g><path d="M258.58925,187.59822c-2.0171,-1.08294 -4.32999,-2.52068 -4.32999,-2.52068c0,0 -3.44077,-1.827 -5.90106,-3.57781c-2.07882,-1.47936 -6.1585,-5.20539 -10.28154,-8.27024c-5.48095,-4.07424 -10.94202,-7.4547 -10.94202,-7.4547c0,0 -7.2354,-5.24081 -2.72674,-9.61246c2.45071,-2.37623 6.77097,5.56988 6.77097,5.56988c0,0 10.36002,7.27821 12.42042,8.94547c0.95797,0.77517 2.42344,2.13718 3.95158,3.44582c0.64568,0.55292 2.84109,2.11353 3.47525,2.64444c2.6371,2.20777 5.47408,3.08861 5.47408,3.08861c0,0 7.40795,6.1688 7.316,6.65831c-0.2679,1.42586 -5.15326,-2.36958 -4.96634,-1.82752c0.35311,1.02403 3.55747,3.63444 3.31445,4.09782c-0.23402,0.44622 -1.76007,-0.21252 -3.57505,-1.18695z" data-paper-data="{&quot;index&quot;:null}" fill="#adadad" stroke="#000000" stroke-width="0" stroke-linecap="butt"/><g><path d="M230.62152,155.41094l-0.0421,-7.87309c0,0 6.38291,3.38907 9.47808,3.37251c3.31723,-0.01773 9.80531,-3.47561 9.80531,-3.47561l0.0421,7.87309c0,0 -6.37366,0.71872 -9.5774,0.73584c-3.22393,0.01724 -9.706,-0.63275 -9.706,-0.63275z" fill="url(#color-11)" stroke="none" stroke-width="0" stroke-linecap="butt"/><path d="M250.7825,117.42942c0,0 -0.24603,3.24582 -0.56414,4.57591c-0.26056,1.08937 -1.2066,2.82761 -1.2066,2.82761" data-paper-data="{&quot;index&quot;:null}" fill="none" stroke="#3b2c16" stroke-width="1.25" stroke-linecap="round"/><path d="M252.20886,121.56012c0,0 -0.17689,2.27948 -0.57141,3.2385c-0.41728,1.0143 -1.8678,2.69076 -1.8678,2.69076" data-paper-data="{&quot;index&quot;:null}" fill="none" stroke="#3b2c16" stroke-width="1.25" stroke-linecap="round"/><path d="M248.51988,115.67747c0,0 0.13408,3.27037 -0.0053,4.69314c-0.11415,1.16527 -0.77048,3.22626 -0.77048,3.22626" data-paper-data="{&quot;index&quot;:null}" fill="none" stroke="#3b2c16" stroke-width="1.25" stroke-linecap="round"/><path d="M252.19732,133.88291c0.03952,7.39143 -8.09288,17.35806 -11.30573,17.43709c-6.69066,0.16457 -14.2856,-9.90862 -14.32512,-17.30006c-0.03952,-7.39143 5.66611,-13.41404 12.74387,-13.45189c7.07776,-0.03785 12.84745,5.92341 12.88697,13.31485z" fill="url(#color-12)" stroke="none" stroke-width="0" stroke-linecap="butt"/><path d="M241.29988,135.02436c0.01103,2.06289 -0.83164,3.73974 -1.88216,3.74536c-1.05051,0.00562 -1.91105,-1.66213 -1.92208,-3.72502c-0.01103,-2.06289 0.83164,-3.73973 1.88215,-3.74535c1.05051,-0.00562 1.91106,1.66212 1.92209,3.72501z" fill="none" stroke="#191412" stroke-width="1.5" stroke-linecap="butt"/><path d="M246.00412,129.43743c0.01103,2.06289 -0.83164,3.73974 -1.88215,3.74536c-1.05051,0.00562 -1.91106,-1.66213 -1.92209,-3.72502c-0.01103,-2.06289 0.83164,-3.73974 1.88216,-3.74536c1.05051,-0.00562 1.91105,1.66212 1.92208,3.72502z" fill="none" stroke="#191412" stroke-width="1.5" stroke-linecap="butt"/><path d="M250.72979,134.92747c0.01103,2.06289 -0.83163,3.73974 -1.88215,3.74536c-1.05051,0.00562 -1.91106,-1.66213 -1.92209,-3.72502c-0.01103,-2.06289 0.83164,-3.73973 1.88216,-3.74535c1.05051,-0.00562 1.91105,1.66212 1.92208,3.72501z" fill="none" stroke="#191412" stroke-width="1.5" stroke-linecap="butt"/><path d="M246.00381,140.0816c0.01103,2.06289 -0.83164,3.73974 -1.88215,3.74536c-1.05051,0.00562 -1.91106,-1.66213 -1.92209,-3.72502c-0.01103,-2.06289 0.83164,-3.73973 1.88216,-3.74535c1.05051,-0.00562 1.91105,1.66212 1.92208,3.72501z" fill="none" stroke="#191412" stroke-width="1.5" stroke-linecap="butt"/><path d="M231.87107,125.24599c0,0 -1.56563,-1.72389 -2.00594,-2.80925c-0.53761,-1.3252 -0.9865,-4.56705 -0.9865,-4.56705" fill="none" stroke="#47341a" stroke-width="1.5" stroke-linecap="round"/><path d="M230.67728,127.91361c0,0 -2.38574,-1.65454 -3.08,-2.6625c-0.65641,-0.95301 -0.97832,-3.22963 -0.97832,-3.22963" fill="none" stroke="#47341a" stroke-width="1.5" stroke-linecap="round"/><path d="M233.91566,123.99101c0,0 -1.09896,-2.05096 -1.30215,-3.21441c-0.24808,-1.42056 -0.07873,-4.69265 -0.07873,-4.69265" fill="none" stroke="#47341a" stroke-width="1.5" stroke-linecap="round"/><path d="M247.78569,118.32906l-0.13241,-3.42247l6.73208,-0.03599l0.04941,9.24232c0,0 -2.62789,-3.0124 -3.85155,-4.07683c-0.86875,-0.75568 -2.79754,-1.70705 -2.79754,-1.70705z" fill="url(#color-13)" stroke="url(#color-14)" stroke-width="1" stroke-linecap="butt"/><path d="M239.63065,151.00698c-9.01147,0.04818 -16.35863,-7.7544 -16.41035,-17.42756c-0.05172,-9.67315 7.2116,-17.55383 16.22306,-17.60202c9.01148,-0.04818 16.35864,7.75439 16.41036,17.42755c0.05172,9.67316 -7.2116,17.55384 -16.22307,17.60203z" fill="url(#color-15)" stroke="url(#color-16)" stroke-width="2.5" stroke-linecap="butt"/><path d="M228.74607,120.2068c-1.56149,1.3879 -4.90486,5.30425 -4.90486,5.30425l-0.06365,-11.90537l8.67183,-0.04636l-0.12341,4.41018c0,0 -2.47132,1.25198 -3.5799,2.23731z" data-paper-data="{&quot;index&quot;:null}" fill="url(#color-17)" stroke="url(#color-18)" stroke-width="1" stroke-linecap="butt"/></g></g></g></svg>