<svg version="1.1" xmlns="http://www.w3.org/2000/svg" xmlns:xlink="http://www.w3.org/1999/xlink" width="488" height="440.13803" viewBox="0,0,488,440.13803"><defs><radialGradient cx="239.76178" cy="177.81005" r="244" gradientUnits="userSpaceOnUse" id="color-1"><stop offset="0" stop-color="#121212"/><stop offset="1" stop-color="#868686"/></radialGradient><radialGradient cx="240.00006" cy="180.00006" r="173.5" gradientUnits="userSpaceOnUse" id="color-2"><stop offset="0" stop-color="#000000"/><stop offset="1" stop-color="#000000" stop-opacity="0"/></radialGradient><radialGradient cx="237.93829" cy="318.16659" r="116.49049" gradientUnits="userSpaceOnUse" id="color-3"><stop offset="0" stop-color="#33266a"/><stop offset="1" stop-color="#949074"/></radialGradient><linearGradient x1="242.7439" y1="206.71002" x2="247.12426" y2="240.06434" gradientUnits="userSpaceOnUse" id="color-4"><stop offset="0" stop-color="#5fa5c2"/><stop offset="1" stop-color="#7fff7d"/></linearGradient><radialGradient cx="217.12983" cy="96.6309" r="64.41492" gradientUnits="userSpaceOnUse" id="color-5"><stop offset="0" stop-color="#ffa8a8"/><stop offset="1" stop-color="#ffed7d"/></radialGradient><radialGradient cx="232.39258" cy="141.3901" r="13.70696" gradientUnits="userSpaceOnUse" id="color-6"><stop offset="0" stop-color="#daffe3"/><stop offset="1" stop-color="#0c1a0f"/></radialGradient><radialGradient cx="266.89257" cy="159.8901" r="16.12716" gradientUnits="userSpaceOnUse" id="color-7"><stop offset="0" stop-color="#5f6471"/><stop offset="1" stop-color="#171d2c"/></radialGradient><radialGradient cx="291.89257" cy="138.3901" r="13.22358" gradientUnits="userSpaceOnUse" id="color-8"><stop offset="0" stop-color="#ffd0d0"/><stop offset="1" stop-color="#2a0000"/></radialGradient><linearGradient x1="243.4011" y1="168.57474" x2="246.81047" y2="202.58811" gradientUnits="userSpaceOnUse" id="color-9"><stop offset="0" stop-color="#694444"/><stop offset="1" stop-color="#98a1b9"/></linearGradient><radialGradient cx="212.09063" cy="58.12189" r="65.45502" gradientUnits="userSpaceOnUse" id="color-10"><stop offset="0" stop-color="#dcdcdc"/><stop offset="1" stop-color="#a0a0a0"/></radialGradient><radialGradient cx="242.42078" cy="86.28475" r="46.28026" gradientUnits="userSpaceOnUse" id="color-11"><stop offset="0" stop-color="#d1ffc4"/><stop offset="1" stop-color="#2188ff"/></radialGradient><radialGradient cx="242.42078" cy="86.28475" r="46.28026" gradientUnits="userSpaceOnUse" id="color-12"><stop offset="0" stop-color="#ceffc4"/><stop offset="1" stop-color="#ff21cc"/></radialGradient><radialGradient cx="242.42078" cy="86.28475" r="46.28026" gradientUnits="userSpaceOnUse" id="color-13"><stop offset="0" stop-color="#ffe9c4"/><stop offset="1" stop-color="#4fff21"/></radialGradient><radialGradient cx="242.42078" cy="86.28475" r="46.28026" gradientUnits="userSpaceOnUse" id="color-14"><stop offset="0" stop-color="#ffe9c4"/><stop offset="1" stop-color="#4fff21"/></radialGradient><radialGradient cx="242.42071" cy="86.28475" r="46.28024" gradientUnits="userSpaceOnUse" id="color-15"><stop offset="0" stop-color="#ffe9c4"/><stop offset="1" stop-color="#ffa321"/></radialGradient><radialGradient cx="242.42066" cy="86.28475" r="46.28024" gradientUnits="userSpaceOnUse" id="color-16"><stop offset="0" stop-color="#c4f0ff"/><stop offset="1" stop-color="#3d21ff"/></radialGradient><radialGradient cx="198.3805" cy="52.68726" r="50.24886" gradientUnits="userSpaceOnUse" id="color-17"><stop offset="0" stop-color="#1c2f30"/><stop offset="1" stop-color="#142913"/></radialGradient><radialGradient cx="281.31471" cy="43.06554" r="13.22632" gradientUnits="userSpaceOnUse" id="color-18"><stop offset="0" stop-color="#786c41"/><stop offset="1" stop-color="#141a29"/></radialGradient><radialGradient cx="225.01198" cy="49.62931" r="20.82216" gradientUnits="userSpaceOnUse" id="color-19"><stop offset="0" stop-color="#7ba676"/><stop offset="1" stop-color="#291616"/></radialGradient></defs><g transform="translate(4.23828,5.18995)"><g data-paper-data="{&quot;isPaintingLayer&quot;:true}" fill-rule="nonzero" stroke-linecap="butt" stroke-linejoin="miter" stroke-miterlimit="10" stroke-dasharray="" stroke-dashoffset="0" style="mix-blend-mode: normal"><path d="M-4.23828,360.81006v-366h488v366z" fill="url(#color-1)" stroke="none" stroke-width="0"/><path d="M413.50001,180.00006c0,97.7544 -77.6786,177 -173.5,177c-95.8214,0 -173.5,-79.2456 -173.5,-177c0,-97.7544 77.6786,-177 173.5,-177c95.8214,0 173.5,79.2456 173.5,177z" fill="url(#color-2)" stroke="none" stroke-width="0"/><path d="M160.25243,434.36545l0.87834,-232.97929l154.49348,0.58264l-0.87834,232.97929z" data-paper-data="{&quot;index&quot;:null}" fill="url(#color-3)" stroke="#ed6b00" stroke-width="0"/><path d="M316.31462,87.06388c0,0 0.51963,11.29106 4.34063,29.37222c2.29479,10.86 11.52869,47.43692 12.03671,51.60842c2.37994,19.42803 -26.58866,25.44009 -27.55467,9.17946c-0.27819,-4.46549 -4.05431,-44.82351 -4.36537,-49.16843c-1.2929,-18.06731 -7.2517,-32.47902 -7.2517,-32.47902z" data-paper-data="{&quot;index&quot;:null}" fill="#a3bda9" stroke="#000000" stroke-width="0"/><path d="M333.0562,177.90909c-2.07735,13.81712 -5.08408,31.26855 -5.08408,31.26855c0,0 -6.6843,34.0585 -11.98932,33.92491c-31.02612,-0.77968 -16.46577,-37.11782 -16.46577,-37.11782c0,0 4.01622,-26.55976 6.22429,-41.25044c2.02306,-8.76021 28.86315,-0.02532 27.31486,13.17477z" data-paper-data="{&quot;index&quot;:null}" fill="#a3bda9" stroke="#000000" stroke-width="0"/><g><path d="M228.48725,242.51189l-4.38035,-33.35423l37.2739,-4.89511l4.38035,33.35423z" fill="url(#color-4)" stroke="#000000" stroke-width="0"/><path d="M302.57782,144.27642c1.15825,37.94343 -26.06368,69.56234 -60.80191,70.62275c-34.73819,1.06041 -63.8381,-28.83915 -64.99636,-66.78266c-1.15825,-37.94348 26.06372,-69.56234 60.80196,-70.62275c34.73815,-1.06041 63.83806,28.83915 64.99631,66.78267z" fill="url(#color-5)" stroke="none" stroke-width="0"/><path d="M234.24021,154.93525c-2.50656,4.56413 -7.13506,2.1034 -7.13506,2.1034c-4.67209,-2.5948 -12.48175,-5.39491 -11.96181,-12.87968c0.42489,-6.11682 10.39255,-11.81263 15.78488,-10.83296c9.78211,1.7772 18.67383,18.83841 3.31207,21.60924z" data-paper-data="{&quot;index&quot;:null}" fill="url(#color-6)" stroke="none" stroke-width="0.5"/><path d="M257.0938,176.41598c0.6539,-2.32212 2.30108,-2.87228 3.52687,-2.93738c0.38889,-0.03601 0.78833,-0.01594 1.18741,0.06639c-1.57584,-5.26582 -0.89405,-12.15203 -2.76053,-17.23739c0,0 -1.37318,-3.81193 2.43876,-5.18519c3.8119,-1.37313 5.18515,2.4388 5.18515,2.4388c2.25503,6.35973 4.01183,14.21829 4.0846,21.08007c0.02731,2.57134 1.45218,6.00343 -0.48065,7.6995c-2.00564,1.75997 -5.33394,-0.17113 -8.00098,-0.25671l-2.37873,-0.66982c-0.49303,-0.13881 -0.93874,-0.36294 -1.32595,-0.65208c-1.01167,-0.69505 -2.12977,-2.02393 -1.47587,-4.34605z" data-paper-data="{&quot;index&quot;:null}" fill="url(#color-7)" stroke="none" stroke-width="0.5"/><path d="M291.1509,132.11764c7.90861,2.00089 15.22634,20.50137 2.85304,23.36571c-1.98457,4.90829 -5.7402,2.21218 -5.7402,2.21218c-3.79187,-2.84138 -10.11739,-5.93054 -9.76022,-14.00987c0.29187,-6.60261 8.28781,-12.67099 12.64741,-11.56801z" data-paper-data="{&quot;index&quot;:null}" fill="url(#color-8)" stroke="none" stroke-width="0.5"/></g><path d="M316.65202,88.49716c2.1507,-0.75448 5.11597,23.35045 5.11597,23.35045c0,0 -6.59441,6.22399 -10.34113,7.62332c-3.84835,1.43667 -12.45283,0.88871 -12.45283,0.88871c0,0 -1.51101,-5.90322 -4.54711,-9.35202c-5.19633,-5.90354 -11.4871,-12.02043 -10.39294,-18.59536c0.59347,-3.56747 7.27526,9.16399 8.00557,7.50572c0.12974,-0.29541 -4.87244,-22.67266 -3.40692,-24.05296c2.39426,-2.25484 8.63193,20.36885 8.61224,16.74928c-0.03946,-7.43032 -5.77007,-22.67234 -3.67836,-24.01066c3.52298,-2.25432 8.52452,26.57041 9.13816,24.10816c1.14628,-4.6 -4.18022,-21.55081 -2.40361,-22.82539c5.17632,-3.71361 7.15339,20.81122 8.24038,18.23351c2.05309,-4.86877 -2.69922,-16.6087 -0.54156,-17.18631c4.38644,-1.17421 7.63701,17.91731 8.65222,17.56153z" data-paper-data="{&quot;index&quot;:null}" fill="#6c7378" stroke="#000000" stroke-width="0"/><g><path d="M220.30518,185.99345l1.5905,-15.51349l40.5107,-3.81034l0.9095,15.0135c0,0 -9.19846,21.42621 -17.20967,22.97709c-7.03062,1.36105 -25.80103,-18.66676 -25.80103,-18.66676z" data-paper-data="{&quot;index&quot;:null}" fill="url(#color-9)" stroke="#000000" stroke-width="0"/><path d="M302.06579,100.4c3.84689,38.3818 -21.51972,72.35178 -56.65919,75.8741c-35.13958,3.52247 -66.74471,-24.73648 -70.59174,-63.11896c-3.84691,-38.38182 21.51972,-72.35176 56.65943,-75.8741c35.13958,-3.52247 66.74471,24.73648 70.59175,63.11896z" data-paper-data="{&quot;index&quot;:null}" fill="url(#color-10)" stroke="none" stroke-width="0"/><g data-paper-data="{&quot;index&quot;:null}" stroke="#ed6b00" stroke-width="0"><path d="M260.86932,145.61798c-50.38272,5.04201 -56.48536,-25.22017 -57.28332,-43.88724c-0.79759,-18.66691 28.39666,-35.66136 53.9191,-36.86558c25.52243,-1.20419 49.98078,15.98334 50.77852,34.65014c0,0 8.34751,41.08535 -47.41437,46.10229z" data-paper-data="{&quot;index&quot;:null}" fill="url(#color-11)"/><path d="M260.86938,145.61792c-40.14887,4.01783 -52.17924,-14.38294 -55.81386,-31.47002c5.81211,8.69326 15.55373,14.14313 26.31428,13.56008c16.72695,-0.90634 29.58166,-16.04741 28.71183,-33.81853c-0.5796,-11.84186 -7.10705,-21.86341 -16.34739,-26.9643c4.58022,-1.13287 9.2336,-1.84596 13.77087,-2.06004c7.77945,-0.36705 15.46007,0.97466 22.40191,3.54615c4.26084,10.63141 13.71367,18.24822 24.81579,19.45497c2.12816,3.70336 3.38965,7.6421 3.56086,11.64906c0,0 0.338,1.6636 0.4236,4.36217c-2.77921,-0.71528 -5.70078,-1.02186 -8.70156,-0.85924c-16.72694,0.90634 -29.58166,16.04741 -28.71183,33.81853c0.1196,2.44384 0.49257,4.81015 1.09036,7.07167c-3.49686,0.75155 -7.32493,1.33218 -11.51499,1.70915z" data-paper-data="{&quot;index&quot;:null}" fill="url(#color-12)"/><path d="M257.50514,64.86512c8.69201,-0.41009 17.26061,1.31292 24.81319,4.50107c-1.11952,3.46832 -1.69484,7.19492 -1.6228,11.05838c-5.90784,-7.52722 -14.95938,-12.11397 -24.87628,-11.57662c-16.72692,0.90634 -29.58168,16.04743 -28.71185,33.81853c0.58315,11.91396 7.18677,21.98536 16.51649,27.05692c-4.33652,3.84302 -7.63223,8.94081 -9.41481,14.73692c-5.27219,-1.25891 -9.6384,-3.15468 -13.25477,-5.49951c3.73988,-5.67328 5.7912,-12.66689 5.42623,-20.12355c-0.64622,-13.20273 -8.6859,-24.14276 -19.63573,-28.52325c8.15266,-13.69603 30.60177,-24.49773 50.76028,-25.44884z" data-paper-data="{&quot;index&quot;:null}" fill="url(#color-13)"/><path d="M276.81807,125.79235c6.83717,-6.05917 11.08717,-15.23742 10.89849,-25.35397c5.01097,6.38462 12.28377,10.65367 20.42789,11.47473c-1.42715,8.23768 -5.99479,18.82269 -19.088,26.02089c-2.93034,-5.17985 -7.18437,-9.39437 -12.23839,-12.14167z" data-paper-data="{&quot;index&quot;:null}" fill="url(#color-14)"/><path d="M253.53765,122.29127c0.07632,-0.48169 -1.40531,-2.6436 -1.77173,-3.32307c-4.47132,-8.29053 -7.92943,-17.27505 -13.29799,-24.94167c-0.50713,-0.72425 -3.53578,-0.07178 -4.93082,-0.09378c-8.54322,-0.13462 -17.13372,-1.45186 -25.6285,-0.4874c-1.0877,0.12351 -2.1756,0.57925 -3.25187,1.30515c2.32107,-6.68431 8.1836,-12.89243 15.86864,-17.90351c5.90038,7.7243 15.07159,12.45431 25.1337,11.90907c12.98854,-0.70379 23.64232,-9.99054 27.3484,-22.42692c11.74513,2.76701 22.12901,9.06676 28.54107,16.94545c-4.45832,-2.30728 -9.51179,-3.48403 -14.81252,-3.1968c-16.72694,0.90634 -29.58167,16.04741 -28.71183,33.81853c0.2158,4.40881 1.25604,8.56534 2.9538,12.30956c-4.23524,1.79378 -7.9841,4.5679 -11.01247,8.04671c1.84215,-4.66352 3.09204,-8.93022 3.57223,-11.96129z" data-paper-data="{&quot;index&quot;:null}" fill="url(#color-15)"/><path d="M260.86923,145.61801c-50.38272,5.04201 -56.48535,-25.22017 -57.28332,-43.88724c-0.03469,-0.81141 -0.01267,-1.6197 0.06322,-2.42368c0.44501,5.97197 2.77282,12.19071 5.06589,16.58081c0.237,0.45372 0.48514,0.90482 0.74418,1.35316c3.67675,12.98848 14.80893,22.39001 27.88206,22.91938c10.13811,4.2308 21.0787,5.82331 30.22919,3.33061c15.78099,-4.29896 30.01771,-7.13863 28.71183,-33.81853c-0.52907,-10.80932 -8.95318,-20.08124 -16.52148,-27.33472c-4.41177,-4.22824 -12.32357,-0.14178 -17.58169,-3.0802c-2.84105,-5.76892 -7.26919,-10.48686 -12.63747,-13.53372c2.66887,-0.44332 5.33556,-0.73474 7.96333,-0.85869c9.4446,-0.44563 18.74351,1.62732 26.75161,5.36172c0.00422,0.45801 0.01755,0.91802 0.04015,1.37973c0.73425,15.0016 11.01393,27.0819 24.26219,29.9376c0.19721,2.02879 0.33382,5.42247 -0.268,9.45933c-7.58749,5.10079 -12.84838,13.66535 -13.91435,23.49295c-7.15331,5.42213 -17.78061,9.70615 -33.50746,11.12109z" data-paper-data="{&quot;index&quot;:null}" fill="url(#color-16)"/></g><g data-paper-data="{&quot;index&quot;:null}"><path d="M211.76271,53.7498c-0.85095,0.0129 -3.04157,0.08058 -5.42243,0.30848c-2.67477,0.83525 -5.78525,1.65156 -8.19242,2.61989c-1.77493,4.3324 3.234,9.28695 -4.18879,12.06816c-12.66027,4.7421 -7.77104,-10.7915 -3.32042,-15.44787c6.7396,-5.026 16.10809,-4.97981 24.24545,-5.91215c11.20862,-1.28396 22.22206,-3.73576 33.19521,-3.57431c0.44319,-0.39799 1.02648,-0.64285 1.66833,-0.65203l2.93622,-0.04163c1.49908,-0.27512 3.12635,-0.557 4.83281,-0.81003c4.46346,-1.03204 9.76424,-1.34279 14.68745,-1.43148c2.43298,-0.289 4.69616,-0.33947 6.54082,-0.03148c1.37012,0.00248 2.64489,0.00408 3.78451,-0.01277l3.09507,-0.04436c1.40963,-0.02006 2.56853,1.1058 2.58902,2.51609c0.01772,1.2549 -0.87237,2.31088 -2.06189,2.54263l-1.6773,0.36116c0.67516,0.66097 1.27743,1.40398 1.79447,2.23604l1.20977,-0.50484l1.26003,3.02407c0.1355,0.30552 0.21345,0.6431 0.21884,0.99873c0.02006,1.40963 -1.1058,2.56854 -2.51608,2.58904c-0.42846,0.00628 -0.8351,-0.09349 -1.19201,-0.27523l-2.44743,-1.18034l0.03494,-0.07199l-0.23657,-0.03666c-1.71683,-1.2499 -3.48615,-2.22871 -5.27378,-2.93559c-2.7761,-0.31079 -5.68091,-0.83751 -8.64712,-1.30728c-5.11405,0.48544 -9.92222,3.2629 -13.59421,8.33155c0,0 -1.50232,2.06375 -3.56626,0.56174c-2.06376,-1.50232 -0.56174,-3.56627 -0.56174,-3.56627c0.32119,-0.43916 0.65055,-0.86572 0.98786,-1.27783l-1.44694,0.34319c-0.19362,0.04993 -0.39735,0.07846 -0.60635,0.0817c-1.40963,0.02006 -2.56853,-1.1058 -2.58902,-2.51609c-0.01028,-0.71363 0.2729,-1.36271 0.73843,-1.83282c-1.2199,-0.09025 -2.37635,-0.1108 -3.37422,0.05652c-6.96975,1.16914 -17.52283,0.93273 -27.55311,1.7029c-0.03511,1.20406 -0.90753,2.20473 -2.06143,2.42917l-3.04022,0.65381l-0.02113,-0.09839l-0.03796,0.00685z" fill="url(#color-17)" stroke="none" stroke-width="0.5"/><path d="M288.26721,40.88167c13.58507,-0.39154 13.4532,-0.19827 13.83178,8.98844c0.37879,9.18636 -5.15876,16.43105 -12.36753,16.18101c-7.20884,-0.25044 -13.35958,-7.90164 -13.73808,-17.08821c-0.37882,-9.18638 -0.46518,-7.71392 12.2741,-8.08146z" data-paper-data="{&quot;index&quot;:null}" fill="url(#color-18)" stroke="#000000" stroke-width="0"/><path d="M254.31954,51.72227c1.02766,10.04289 -7.32697,19.12438 -18.66069,20.28322c-11.33348,1.15982 -21.35429,-6.04162 -22.38151,-16.0842c-1.02767,-10.04291 -1.26996,-10.2375 20.24053,-11.48238c20.17106,-1.16768 19.77343,-2.75967 20.80136,7.28329z" fill="url(#color-19)" stroke="#000000" stroke-width="0"/></g></g><g data-paper-data="{&quot;index&quot;:null}" stroke-width="0"><path d="M294.72218,399.95811c0,0 -9.41683,2.60817 -16.34674,1.57997c-5.9661,-0.88459 -9.1066,-5.42662 -14.25718,-5.43791c-2.55107,-0.00579 -9.51747,2.51646 -13.12708,2.62171c-4.77536,0.13895 -13.44016,3.86856 -18.41287,3.1592c-6.2213,-0.88678 -8.81206,-6.26697 -15.41093,-6.17634c-14.53055,0.1995 -28.8,4.01986 -28.8,4.01986c0,0 1.11399,-29.81294 -0.1972,-53.79c-1.27161,-23.26373 -4.96149,-40.46454 -5.51716,-56.1754c-0.62782,-17.75666 -0.48394,-65.32681 -0.48394,-65.32681c0,0 21.72426,-2.12502 32.11946,0.2511c9.85177,2.2524 28.70899,13.65354 28.70899,13.65354c0,0 24.60665,-11.7285 36.30975,-14.01141c9.19337,-1.79373 28.21364,1.42453 28.21364,1.42453c0,0 -0.03925,44.90658 -1.81256,69.04977c-0.94465,12.86311 -6.55024,29.8405 -8.57149,48.70113c-2.97476,27.75704 -2.41381,56.45789 -2.41381,56.45789z" fill="#d1b0b0" stroke="#292e32"/><path d="M189.6061,278.45896l0.28277,-26.90828l39.44353,-1.46317l-0.94123,30.03037z" fill="#f200ff" stroke="none"/><path d="M228.79555,267.217c-5.70093,-4.93481 -13.09998,-7.9728 -21.22859,-8.11176c-1.96355,-0.03357 -3.8903,0.10339 -5.76618,0.39718c2.72632,-2.47342 5.04269,-5.39345 6.83222,-8.64713l20.69945,-0.76782z" fill="#eeff00" stroke="none"/><path d="M195.9279,278.72934c1.21163,-3.35948 1.89967,-6.97254 1.96412,-10.74253c0.10265,-6.00583 -1.38994,-11.66769 -4.08716,-16.5814l25.87009,-0.95964c-8.94377,6.68024 -14.50435,17.50653 -14.20686,28.69167z" fill="#00ff5f" stroke="none"/><path d="M195.64873,278.71736c-0.60408,-2.00222 -1.3918,-3.92601 -2.34383,-5.75142c4.8529,-1.47712 9.24257,-4.03358 12.88397,-7.39396c3.87495,6.54599 9.92914,11.66143 17.18158,14.33114l-27.72174,-1.18576z" fill="#004fff" stroke="none"/><path d="M220.83774,279.79474c1.71925,-3.92352 2.70575,-8.24577 2.78355,-12.79665c0.10243,-5.99217 -1.38316,-11.64197 -4.06879,-16.54786l9.78,-0.36276l-0.94123,30.03043z" fill="#ff0000" stroke="none"/><path d="M189.77485,262.4088c3.26643,4.14278 7.49704,7.49525 12.36035,9.71437c0.38161,2.41201 1.02256,4.73956 1.8939,6.95266l-14.42288,-0.61693l0.16865,-16.05015z" fill="#00efff" stroke="none"/><path d="M207.37067,250.9022c-9.65968,5.51866 -16.31304,15.73888 -16.79144,27.59837l-0.97301,-0.04163l0.28275,-26.90829z" fill="#9c00ff" stroke="none"/></g><path d="M183.95487,160.03136c3.14342,14.86265 8.68905,40.10979 8.68905,40.10979c0,0 19.01926,37.13248 -20.63811,43.90381c-6.33125,1.08104 -14.39495,-35.59396 -14.39495,-35.59396c0,0 -4.20836,-17.58841 -7.16451,-31.56793c-3.16206,-15.81673 29.37814,-31.04744 33.50854,-16.85173z" fill="#b8bda6" stroke="#000000" stroke-width="0"/><path d="M194.53818,95.86242c0,0 -6.71694,14.53789 -7.3988,33.06655c-0.16402,4.45583 -3.25184,41.29617 -3.3693,45.87727c-1.13998,17.4569 -35.94727,6.99441 -34.14795,-9.14112c0.42069,-4.26812 9.69829,-38.60727 12.00971,-49.66997c3.8481,-18.41864 3.91361,-30.01219 3.91361,-30.01219z" data-paper-data="{&quot;index&quot;:null}" fill="#b8bda6" stroke="#000000" stroke-width="0"/><path d="M164.43177,86.48217c1.289,0.41913 4.4181,-19.06016 9.97064,-17.62295c2.73109,0.70687 -2.64264,12.54143 0.16996,17.65928c1.4889,2.70955 2.75571,-22.42759 9.42145,-18.3357c2.28817,1.40456 -3.54665,18.57184 -1.88458,23.36561c0.88996,2.56597 5.73186,-26.83854 10.25582,-24.33466c2.6854,1.48669 -3.73953,16.87461 -3.42291,24.51923c0.15471,3.72437 6.85054,-19.23366 9.96069,-16.7889c1.90354,1.4964 -3.2583,24.2661 -3.08074,24.57656c0.99722,1.74516 8.73749,-11.00966 9.65685,-7.30692c1.69464,6.82358 -5.88172,12.79151 -12.09923,18.59569c-3.63344,3.39138 -5.23502,9.38788 -5.23502,9.38788c0,0 -10.74966,0.11538 -15.64044,-1.5648c-4.76235,-1.63531 -13.32811,-8.38496 -13.32811,-8.38496c0,0 2.52563,-24.65299 5.25529,-23.76489z" data-paper-data="{&quot;index&quot;:null}" fill="#786274" stroke="#000000" stroke-width="0"/></g></g></svg>