<svg version="1.1" xmlns="http://www.w3.org/2000/svg" xmlns:xlink="http://www.w3.org/1999/xlink" width="131.81846" height="263.79943" viewBox="0,0,131.81846,263.79943"><defs><linearGradient x1="240.33639" y1="-83.41029" x2="240.33639" y2="-34.82195" gradientUnits="userSpaceOnUse" id="color-1"><stop offset="0" stop-color="#ff0000" stop-opacity="0"/><stop offset="1" stop-color="#ff0000" stop-opacity="0.3629"/></linearGradient><radialGradient cx="217.55085" cy="37.59674" r="54.61033" gradientUnits="userSpaceOnUse" id="color-2"><stop offset="0" stop-color="#989898"/><stop offset="1" stop-color="#717171"/></radialGradient><radialGradient cx="222.01297" cy="-28.74841" r="60.26823" gradientUnits="userSpaceOnUse" id="color-3"><stop offset="0" stop-color="#87859e"/><stop offset="1" stop-color="#595761"/></radialGradient><linearGradient x1="179.49818" y1="-15.66694" x2="299.56743" y2="-15.66694" gradientUnits="userSpaceOnUse" id="color-4"><stop offset="0" stop-color="#272727"/><stop offset="1" stop-color="#101010"/></linearGradient><radialGradient cx="210.22702" cy="108.35026" r="62.41181" gradientUnits="userSpaceOnUse" id="color-5"><stop offset="0" stop-color="#fff831"/><stop offset="1" stop-color="#d5a500"/></radialGradient><linearGradient x1="226.09066" y1="-16.1697" x2="239.31913" y2="-16.1697" gradientUnits="userSpaceOnUse" id="color-6"><stop offset="0" stop-color="#272727"/><stop offset="1" stop-color="#101010"/></linearGradient><linearGradient x1="253.46233" y1="-16.98275" x2="240.23386" y2="-16.98275" gradientUnits="userSpaceOnUse" id="color-7"><stop offset="0" stop-color="#101010"/><stop offset="1" stop-color="#272727"/></linearGradient><linearGradient x1="226.09066" y1="28.31624" x2="239.31912" y2="28.31624" gradientUnits="userSpaceOnUse" id="color-8"><stop offset="0" stop-color="#272727"/><stop offset="1" stop-color="#101010"/></linearGradient><linearGradient x1="253.46233" y1="28.06377" x2="240.23386" y2="28.06377" gradientUnits="userSpaceOnUse" id="color-9"><stop offset="0" stop-color="#101010"/><stop offset="1" stop-color="#272727"/></linearGradient><linearGradient x1="238.7664" y1="-13.99479" x2="240.7664" y2="-13.99479" gradientUnits="userSpaceOnUse" id="color-10"><stop offset="0" stop-color="#272727"/><stop offset="1" stop-color="#101010"/></linearGradient><linearGradient x1="238.7664" y1="28.99162" x2="240.7664" y2="28.99162" gradientUnits="userSpaceOnUse" id="color-11"><stop offset="0" stop-color="#272727"/><stop offset="1" stop-color="#101010"/></linearGradient><radialGradient cx="206.50603" cy="-14.71892" r="64.18856" gradientUnits="userSpaceOnUse" id="color-12"><stop offset="0" stop-color="#a9a7c7"/><stop offset="1" stop-color="#878593"/></radialGradient><linearGradient x1="176.01281" y1="-10.61578" x2="303.98719" y2="-10.61578" gradientUnits="userSpaceOnUse" id="color-13"><stop offset="0" stop-color="#272727"/><stop offset="1" stop-color="#101010"/></linearGradient><radialGradient cx="209.5886" cy="143.89454" r="58.63359" gradientUnits="userSpaceOnUse" id="color-14"><stop offset="0" stop-color="#989898"/><stop offset="1" stop-color="#717171"/></radialGradient><radialGradient cx="206.70741" cy="172.3098" r="64.18856" gradientUnits="userSpaceOnUse" id="color-15"><stop offset="0" stop-color="#c4c4c4"/><stop offset="1" stop-color="#a4a4a4"/></radialGradient><radialGradient cx="217.71007" cy="132.27714" r="54.76955" gradientUnits="userSpaceOnUse" id="color-16"><stop offset="0" stop-color="#555555"/><stop offset="1" stop-color="#4b4b4b"/></radialGradient><radialGradient cx="217.55085" cy="71.25698" r="54.61033" gradientUnits="userSpaceOnUse" id="color-17"><stop offset="0" stop-color="#989898"/><stop offset="1" stop-color="#717171"/></radialGradient><radialGradient cx="240" cy="106.44323" r="37.57446" gradientUnits="userSpaceOnUse" id="color-18"><stop offset="0" stop-color="#191919"/><stop offset="1" stop-color="#0f0f0f"/></radialGradient><radialGradient cx="217.71007" cy="45.34641" r="54.76955" gradientUnits="userSpaceOnUse" id="color-19"><stop offset="0" stop-color="#555555"/><stop offset="1" stop-color="#4b4b4b"/></radialGradient><radialGradient cx="240.09897" cy="-36.55203" r="4.10963" gradientUnits="userSpaceOnUse" id="color-20"><stop offset="0" stop-color="#c4c4c4"/><stop offset="1" stop-color="#a4a4a4"/></radialGradient><linearGradient x1="236.11388" y1="-36.55203" x2="244.08406" y2="-36.55203" gradientUnits="userSpaceOnUse" id="color-21"><stop offset="0" stop-color="#272727"/><stop offset="1" stop-color="#101010"/></linearGradient><radialGradient cx="240.58201" cy="-36.43127" r="13.88744" gradientUnits="userSpaceOnUse" id="color-22"><stop offset="0" stop-color="#ff3c3c"/><stop offset="1" stop-color="#e70000" stop-opacity="0.0184"/></radialGradient><linearGradient x1="226.69457" y1="-36.43127" x2="254.46945" y2="-36.43127" gradientUnits="userSpaceOnUse" id="color-23"><stop offset="0" stop-color="#000000" stop-opacity="0"/><stop offset="1" stop-color="#000000" stop-opacity="0"/></linearGradient><radialGradient cx="240.7516" cy="-36.4633" r="9.29855" gradientUnits="userSpaceOnUse" id="color-24"><stop offset="0" stop-color="#ff6a6a"/><stop offset="1" stop-color="#e70000" stop-opacity="0.11122"/></radialGradient><linearGradient x1="231.45305" y1="-36.4633" x2="250.05015" y2="-36.4633" gradientUnits="userSpaceOnUse" id="color-25"><stop offset="0" stop-color="#000000" stop-opacity="0"/><stop offset="1" stop-color="#000000" stop-opacity="0"/></linearGradient><radialGradient cx="240.60436" cy="-36.34254" r="6.25306" gradientUnits="userSpaceOnUse" id="color-26"><stop offset="0" stop-color="#ffb1b1"/><stop offset="1" stop-color="#e70000" stop-opacity="0.31284"/></radialGradient><linearGradient x1="234.3513" y1="-36.34254" x2="246.85742" y2="-36.34254" gradientUnits="userSpaceOnUse" id="color-27"><stop offset="0" stop-color="#000000" stop-opacity="0"/><stop offset="1" stop-color="#000000" stop-opacity="0"/></linearGradient><radialGradient cx="240" cy="152.48787" r="37.57446" gradientUnits="userSpaceOnUse" id="color-28"><stop offset="0" stop-color="#626262"/><stop offset="1" stop-color="#515151"/></radialGradient><radialGradient cx="240" cy="159.74801" r="37.57446" gradientUnits="userSpaceOnUse" id="color-29"><stop offset="0" stop-color="#626262"/><stop offset="1" stop-color="#515151"/></radialGradient><linearGradient x1="218.7426" y1="106.22926" x2="261.2574" y2="106.22926" gradientUnits="userSpaceOnUse" id="color-30"><stop offset="0" stop-color="#272727"/><stop offset="1" stop-color="#101010"/></linearGradient><radialGradient cx="240" cy="106.22926" r="24.12324" gradientUnits="userSpaceOnUse" id="color-31"><stop offset="0" stop-color="#ffffff"/><stop offset="1" stop-color="#ffffff" stop-opacity="0"/></radialGradient><linearGradient x1="215.87676" y1="106.22926" x2="264.12324" y2="106.22926" gradientUnits="userSpaceOnUse" id="color-32"><stop offset="0" stop-color="#272727"/><stop offset="1" stop-color="#101010"/></linearGradient><radialGradient cx="240" cy="106.22926" r="28.74045" gradientUnits="userSpaceOnUse" id="color-33"><stop offset="0" stop-color="#ffffff" stop-opacity="0.77419"/><stop offset="1" stop-color="#ffffff" stop-opacity="0"/></radialGradient><linearGradient x1="211.25955" y1="106.22926" x2="268.74045" y2="106.22926" gradientUnits="userSpaceOnUse" id="color-34"><stop offset="0" stop-color="#272727"/><stop offset="1" stop-color="#101010"/></linearGradient><radialGradient cx="240" cy="106.22926" r="32.24315" gradientUnits="userSpaceOnUse" id="color-35"><stop offset="0" stop-color="#ffffff" stop-opacity="0.51999"/><stop offset="1" stop-color="#ffffff" stop-opacity="0"/></radialGradient><linearGradient x1="207.75685" y1="106.22926" x2="272.24315" y2="106.22926" gradientUnits="userSpaceOnUse" id="color-36"><stop offset="0" stop-color="#272727"/><stop offset="1" stop-color="#101010"/></linearGradient><radialGradient cx="240" cy="106.22926" r="37.17878" gradientUnits="userSpaceOnUse" id="color-37"><stop offset="0" stop-color="#ffffff" stop-opacity="0.35064"/><stop offset="1" stop-color="#ffffff" stop-opacity="0"/></radialGradient><linearGradient x1="202.82122" y1="106.22926" x2="277.17878" y2="106.22926" gradientUnits="userSpaceOnUse" id="color-38"><stop offset="0" stop-color="#272727"/><stop offset="1" stop-color="#101010"/></linearGradient><radialGradient cx="221.37199" cy="45.30376" r="38.37052" gradientUnits="userSpaceOnUse" id="color-39"><stop offset="0" stop-color="#191919"/><stop offset="1" stop-color="#000000"/></radialGradient><linearGradient x1="240" y1="40.52872" x2="240" y2="61.54494" gradientUnits="userSpaceOnUse" id="color-40"><stop offset="0" stop-color="#262626"/><stop offset="1" stop-color="#050505"/></linearGradient></defs><g transform="translate(-174.01358,83.87749)"><g data-paper-data="{&quot;isPaintingLayer&quot;:true}" fill-rule="nonzero" stroke-linejoin="miter" stroke-miterlimit="10" stroke-dasharray="" stroke-dashoffset="0" style="mix-blend-mode: normal"><path d="M235.11582,-34.82195l-15.88465,-48.58834l42.21045,-0.4672l-15.88465,49.05553z" fill="url(#color-1)" stroke="#000000" stroke-width="0" stroke-linecap="butt"/><path d="M185.38967,43.58614v-8.14687h109.22066v8.14687z" fill="url(#color-2)" stroke="#000000" stroke-width="2" stroke-linecap="butt"/><path d="M179.96537,-19.8717l-0.4672,-19.62221c0,0 39.45147,5.60635 59.80103,5.60635c19.64898,0 60.73542,-5.13915 60.73542,-5.13915v18.22063c0,0 -6.36112,38.17215 -59.31576,36.89558c-53.41739,-1.28772 -60.7535,-35.96119 -60.7535,-35.96119z" fill="url(#color-3)" stroke="url(#color-4)" stroke-width="2" stroke-linecap="butt"/><path d="M177.58819,173.79066v-92.66243h124.82362v92.66243z" fill="url(#color-5)" stroke="#000000" stroke-width="2" stroke-linecap="butt"/><path d="M239.31913,-38.4094l-13.22847,44.47939" fill="none" stroke="url(#color-6)" stroke-width="4" stroke-linecap="round"/><path d="M240.23387,-39.22245l13.22846,44.47939" data-paper-data="{&quot;index&quot;:null}" fill="none" stroke="url(#color-7)" stroke-width="4" stroke-linecap="round"/><path d="M239.31912,21.41021l-13.22846,13.81207" fill="none" stroke="url(#color-8)" stroke-width="2" stroke-linecap="round"/><path d="M253.46233,34.9698l-13.22846,-13.81207" data-paper-data="{&quot;index&quot;:null}" fill="none" stroke="url(#color-9)" stroke-width="2" stroke-linecap="round"/><path d="M239.7664,6.31627v-40.62211" fill="none" stroke="url(#color-10)" stroke-width="4" stroke-linecap="round"/><path d="M239.7664,35.29876v-12.61428" fill="none" stroke="url(#color-11)" stroke-width="2" stroke-linecap="round"/><path d="M303.98719,-41.64526c0,0 -0.37315,12.95361 -1.03472,18.3257c-0.67212,5.45782 -2.96685,14.16813 -2.96685,14.16813c0,0 -0.80594,23.19783 -42.11607,27.36787c-4.61547,0.4659 -18.16537,2.99984 -18.16537,2.99984c0,0 -12.62825,-2.39552 -18.37616,-3.1763c-39.92087,-5.42276 -40.91749,-27.19141 -40.91749,-27.19141c0,0 -3.09873,-7.39096 -3.80773,-12.19015c-0.86132,-5.83019 -0.52554,-20.30369 -0.52554,-20.30369c0,0 2.92206,-2.65851 5.32036,1.70153c0.96123,1.7475 0.26975,9.32819 1.6819,11.43053c4.00069,5.95604 6.4568,20.512 14.52197,27.03474c5.75358,4.65324 15.96773,1.77676 24.32424,4.43622c5.23506,1.66606 17.77845,5.38689 17.77845,5.38689c0,0 12.65511,-3.50346 18.25525,-5.36113c6.36495,-2.11137 19.44444,-0.37411 24.34294,-3.71984c11.20263,-7.65152 11.23845,-22.1248 15.71251,-29.14479c1.31121,-2.05735 0.51223,-7.70015 1.36502,-9.35204c1.91826,-3.71575 4.60729,-2.41212 4.60729,-2.41212z" data-paper-data="{&quot;index&quot;:null}" fill="url(#color-12)" stroke="url(#color-13)" stroke-width="2" stroke-linecap="butt"/><path d="M181.36641,178.92194l4.38503,-42.26993h109.22687l3.65527,42.26993z" fill="url(#color-14)" stroke="#000000" stroke-width="2" stroke-linecap="butt"/><path d="M175.81144,178.71739l4.80047,-7.73247h119.57509l4.00157,7.73247z" fill="url(#color-15)" stroke="#000000" stroke-width="2" stroke-linecap="butt"/><path d="M185.23045,136.53463v-6.05012h109.53909v6.05012z" fill="url(#color-16)" stroke="#000000" stroke-width="2" stroke-linecap="butt"/><path d="M185.38967,130.48451v-80.56218h109.22066v80.56218z" fill="url(#color-17)" stroke="#000000" stroke-width="2" stroke-linecap="butt"/><path d="M206.40589,145.92825v-78.97004h67.18822v78.97004z" fill="url(#color-18)" stroke="#000000" stroke-width="2" stroke-linecap="butt"/><path d="M185.23046,49.6039v-6.05013h109.53909v6.05013z" fill="url(#color-19)" stroke="#000000" stroke-width="2" stroke-linecap="butt"/><path d="M244.08406,-36.55203c0,2.20091 -1.78419,3.98509 -3.98509,3.98509c-2.20091,0 -3.98509,-1.78419 -3.98509,-3.98509c0,-2.20091 1.78419,-3.98509 3.98509,-3.98509c2.20091,0 3.98509,1.78419 3.98509,3.98509z" fill="url(#color-20)" stroke="url(#color-21)" stroke-width="3" stroke-linecap="butt"/><path d="M240.58201,-22.66459c-7.66982,0 -13.88744,-6.16355 -13.88744,-13.76668c0,-7.60313 6.21762,-13.76668 13.88744,-13.76668c7.66982,0 13.88744,6.16355 13.88744,13.76668c0,7.60313 -6.21762,13.76668 -13.88744,13.76668z" fill="url(#color-22)" stroke="url(#color-23)" stroke-width="0" stroke-linecap="butt"/><path d="M240.7516,-27.24561c-5.13545,0 -9.29855,-4.1269 -9.29855,-9.21769c0,-5.09079 4.16311,-9.21769 9.29855,-9.21769c5.13544,0 9.29855,4.1269 9.29855,9.21769c0,5.09079 -4.16311,9.21769 -9.29855,9.21769z" fill="url(#color-24)" stroke="url(#color-25)" stroke-width="0" stroke-linecap="butt"/><path d="M240.60436,-30.14385c-3.45347,0 -6.25306,-2.77525 -6.25306,-6.19869c0,-3.42344 2.79959,-6.19868 6.25306,-6.19868c3.45347,0 6.25306,2.77524 6.25306,6.19868c0,3.42344 -2.79959,6.19869 -6.25306,6.19869z" fill="url(#color-26)" stroke="url(#color-27)" stroke-width="0" stroke-linecap="butt"/><path d="M206.40589,154.58948v-4.20324h67.18822v4.20324z" fill="url(#color-28)" stroke="#000000" stroke-width="1" stroke-linecap="butt"/><path d="M206.40589,161.84963v-4.20324h67.18822v4.20324z" fill="url(#color-29)" stroke="#000000" stroke-width="1" stroke-linecap="butt"/><g stroke-width="0" stroke-linecap="butt"><path d="M261.2574,106.22926c0,11.57004 -9.51726,20.94942 -21.2574,20.94942c-11.74014,0 -21.2574,-9.37937 -21.2574,-20.94942c0,-11.57004 9.51726,-20.94942 21.2574,-20.94942c11.74014,0 21.2574,9.37937 21.2574,20.94942z" fill="#ffffff" stroke="url(#color-30)"/><path d="M264.12324,106.22926c0,13.12988 -10.80034,23.77374 -24.12324,23.77374c-13.3229,0 -24.12324,-10.64386 -24.12324,-23.77374c0,-13.12988 10.80034,-23.77374 24.12324,-23.77374c13.3229,0 24.12324,10.64386 24.12324,23.77374z" fill="url(#color-31)" stroke="url(#color-32)"/><path d="M268.74045,106.22926c0,15.64295 -12.86754,28.32405 -28.74045,28.32405c-15.87291,0 -28.74045,-12.68111 -28.74045,-28.32405c0,-15.64295 12.86754,-28.32405 28.74045,-28.32405c15.87291,0 28.74045,12.68111 28.74045,28.32405z" fill="url(#color-33)" stroke="url(#color-34)"/><path d="M272.24315,106.22926c0,17.54941 -14.43575,31.77601 -32.24315,31.77601c-17.8074,0 -32.24315,-14.2266 -32.24315,-31.77601c0,-17.54941 14.43575,-31.77601 32.24315,-31.77601c17.8074,0 32.24315,14.2266 32.24315,31.77601z" fill="url(#color-35)" stroke="url(#color-36)"/><path d="M277.17878,106.22926c0,20.23579 -16.64551,36.64012 -37.17878,36.64012c-20.53327,0 -37.17878,-16.40433 -37.17878,-36.64012c0,-20.23579 16.64551,-36.64012 37.17878,-36.64012c20.53327,0 37.17878,16.40433 37.17878,36.64012z" fill="url(#color-37)" stroke="url(#color-38)"/></g><path d="M201.62948,61.54494v-21.01622h76.74105v21.01622z" fill="url(#color-39)" stroke="url(#color-40)" stroke-width="2" stroke-linecap="butt"/><text transform="translate(204.52925,53.69379) scale(0.20269,0.20269)" font-size="40" xml:space="preserve" fill="#00ff3d" fill-rule="nonzero" stroke="none" stroke-width="1" stroke-linecap="butt" stroke-linejoin="miter" stroke-miterlimit="10" stroke-dasharray="" stroke-dashoffset="0" font-family="Pixel" font-weight="normal" text-anchor="start" style="mix-blend-mode: normal"><tspan x="0" dy="0">Wormhole active.</tspan></text></g></g></svg>