<svg version="1.1" xmlns="http://www.w3.org/2000/svg" xmlns:xlink="http://www.w3.org/1999/xlink" width="11.30067" height="12.09916" viewBox="0,0,11.30067,12.09916"><defs><radialGradient cx="270.39577" cy="179.96774" r="5.64168" gradientUnits="userSpaceOnUse" id="color-1"><stop offset="0" stop-color="#ad5e40"/><stop offset="1" stop-color="#ad5e40" stop-opacity="0"/></radialGradient><radialGradient cx="271.99512" cy="179.24693" r="5.22319" gradientUnits="userSpaceOnUse" id="color-2"><stop offset="0" stop-color="#ff955c"/><stop offset="1" stop-color="#a66744"/></radialGradient><radialGradient cx="268.556" cy="183.89776" r="4.05234" gradientUnits="userSpaceOnUse" id="color-3"><stop offset="0" stop-color="#0f0605" stop-opacity="0.21569"/><stop offset="1" stop-color="#0f0605" stop-opacity="0.00392"/></radialGradient><radialGradient cx="270.11945" cy="179.96774" r="5.25573" gradientUnits="userSpaceOnUse" id="color-4"><stop offset="0" stop-color="#f2825c" stop-opacity="0.07059"/><stop offset="1" stop-color="#e07034" stop-opacity="0.07843"/></radialGradient><radialGradient cx="270.11945" cy="179.96774" r="5.38268" gradientUnits="userSpaceOnUse" id="color-5"><stop offset="0" stop-color="#ff5638" stop-opacity="0.12549"/><stop offset="1" stop-color="#ff5638" stop-opacity="0"/></radialGradient></defs><g transform="translate(-264.73677,-173.91816)"><g data-paper-data="{&quot;isPaintingLayer&quot;:true}" fill-rule="nonzero" stroke="none" stroke-width="0.5" stroke-linecap="butt" stroke-linejoin="miter" stroke-miterlimit="10" stroke-dasharray="" stroke-dashoffset="0" style="mix-blend-mode: normal"><path d="M264.75408,179.96774c0,-3.34108 2.52587,-6.04958 5.64168,-6.04958c3.11581,0 5.64168,2.70849 5.64168,6.04958c0,3.34108 -2.52587,6.04958 -5.64168,6.04958c-3.11581,0 -5.64168,-2.70849 -5.64168,-6.04958z" fill="url(#color-1)"/><path d="M264.76466,179.96774c0,-2.88468 2.3385,-5.22319 5.22319,-5.22319c2.88468,0 5.22319,2.3385 5.22319,5.22319c0,2.88468 -2.3385,5.22319 -5.22319,5.22319c-2.88468,0 -5.22319,-2.3385 -5.22319,-5.22319z" fill="url(#color-2)"/><path d="M273.46873,180.79314c-0.29459,0.09325 -1.38907,-0.87286 -1.98965,-1.87136l-0.20047,-0.06682c-1.86677,0.02264 -1.61374,-1.71997 -0.06077,-2.07874c2.11885,-0.01013 3.04782,0.95463 2.7749,2.53214l0.09514,0.09447c0.04564,0.0453 0.0739,0.10807 0.0739,0.17745c0,0.13807 -0.11193,0.25 -0.25,0.25c-0.0154,0 -0.03048,-0.00139 -0.04512,-0.00406c-0.09411,0.30461 -0.22673,0.62761 -0.39794,0.96693zM270.44221,177.94465c0.0145,-0.02801 0.0315,-0.05659 0.05117,-0.0857c-0.01957,-0.00992 -0.03765,-0.02233 -0.05383,-0.03682c-0.00759,0.04138 -0.00668,0.08251 0.00267,0.12253zM272.73789,177.46905c0.00608,0.00977 0.01211,0.01953 0.0181,0.02929c0.04555,0.02884 0.08955,0.06012 0.13196,0.09367l0.03349,0.02131c0.05533,0.01023 0.11271,0.02605 0.17026,0.04666c-0.09753,-0.07505 -0.21481,-0.13851 -0.35382,-0.19093z" fill-opacity="0.18824" fill="#c76136"/><path d="M265.49573,177.95519c-0.00846,-0.07695 0.02096,-0.14312 0.02096,-0.14312c0.22777,-0.51248 1.70964,-2.88411 2.59967,-1.90858c0.51969,0.56961 0.85614,1.8751 -0.20456,1.899c-1.01623,0 -1.29948,0.49233 -2.17528,0.89469l-0.00108,0.00015l0.00013,0.00028l-0.24504,0.10891c-0.03231,0.01523 -0.0684,0.02375 -0.10649,0.02375c-0.13807,0 -0.25,-0.11193 -0.25,-0.25c0,-0.02702 0.00428,-0.05303 0.01221,-0.0774l0.08166,-0.27222l0.1044,0.03132c0.04399,-0.1081 0.09921,-0.20999 0.16343,-0.30678zM267.76282,176.25704c0.00074,-0.00684 -0.02233,0.00784 -0.06376,0.03966c0.00125,0.00176 0.00247,0.00353 0.00368,0.00532l0.05743,0.08297c-0.00274,-0.04141 -0.00208,-0.08407 0.00265,-0.12795zM267.37433,177.35024c0.01767,-0.0034 0.03556,-0.00663 0.05367,-0.00969c-0.00392,-0.00725 -0.00775,-0.0146 -0.01146,-0.02205c-0.01385,0.01073 -0.02793,0.02131 -0.04221,0.03174zM268.16819,177.21378c-0.00272,0.01565 -0.00594,0.03171 -0.00966,0.04818c0.01083,-0.01306 0.01345,-0.02915 0.00966,-0.04818z" fill-opacity="0.25098" fill="#c76135"/><path d="M271.7442,176.07841c-0.09199,0.11596 -0.37385,0.19643 -0.92611,0.19608c-0.02443,-0.00206 -0.04825,-0.00418 -0.07148,-0.00635c-0.05308,0.05805 -0.12408,0.07935 -0.12408,0.07935c-0.90859,0.27222 -2.01932,-0.57404 -1.26722,-0.95385c-0.0881,-0.01785 -0.16237,-0.03064 -0.21938,-0.03695l-0.27402,-0.0274c-0.12771,-0.0112 -0.22787,-0.11842 -0.22787,-0.24904c0,-0.13062 0.10017,-0.23783 0.22787,-0.24903l0.27503,-0.0275l0.00511,0.05109l0.04465,0.00446l-0.00036,0.00356c0.00032,-0.00009 0.00063,-0.00017 0.00095,-0.00026l0.00077,-0.00316c0.00263,0.00029 0.00525,0.00059 0.00788,0.00088c1.1381,-0.29758 2.45254,0.1572 3.46657,0.66302l0.11111,0.05555c0,0 0.1686,0.0843 0.1398,0.2529l0.13889,0.09723c0.0661,0.04499 0.1095,0.12083 0.1095,0.20681c0,0.13807 -0.11193,0.25 -0.25,0.25c-0.03809,0 -0.07418,-0.00851 -0.10649,-0.02375l-0.23408,-0.10404c-0.14022,-0.04133 -0.46631,-0.10801 -0.82703,-0.17962zM270.24965,175.87337c0.00146,0.00019 0.00293,0.00038 0.00439,0.00056c0.00039,-0.00013 0.00078,-0.00025 0.00117,-0.00038c-0.00185,-0.00006 -0.0037,-0.00012 -0.00555,-0.00018z" fill-opacity="0.25098" fill="#c76135"/><path d="M264.88809,180.85402c-0.04485,-0.29048 0.11852,-0.28774 0.11852,-0.28774c1.19312,-0.2552 3.98908,0.29255 5.07727,1.00437c1.15941,0.4573 6.17289,0.26375 2.88268,2.71167c-1.06624,0.90577 -4.45006,0.57291 -5.65404,0.1022c-1.00736,-0.41519 -1.97415,-1.84781 -2.30374,-3.00793l-0.07617,-0.20669c0,0 -0.02069,-0.16159 -0.04451,-0.31587z" fill-opacity="0.17647" fill="#914727"/><path d="M268.18958,181.35804c0.12115,0 0.22217,0.08618 0.24511,0.20058l0.02102,0.09458c0.67851,0.1952 1.3199,0.4449 1.83341,0.71209c0.93252,0.52438 1.64556,-0.5374 2.56502,-0.07271c1.973,0.99714 -0.00895,2.24149 -1.14957,2.22947c-1.61076,-0.60346 -4.22743,0.39844 -5.5993,-1.01839c-0.38337,-0.36494 -0.59936,-0.86164 -0.90915,-1.31029l-0.09947,-0.26495c0,0 -0.03678,-0.11484 -0.007,-0.2298c-0.00455,-0.02066 -0.00793,-0.04327 -0.00991,-0.06802c-0.02528,-0.31574 0.22755,-0.34732 0.22755,-0.34732c0.76286,-0.09526 1.71895,0.01387 2.64788,0.23765c0.03537,-0.09511 0.12697,-0.16288 0.2344,-0.16288z" fill-opacity="0.20784" fill="#914727"/><path d="M265.37809,182.09042c0.05857,-0.06807 0.14615,-0.08753 0.14615,-0.08753c1.38376,-0.30554 3.7178,0.28472 4.9891,0.84893c0.8167,0.36488 1.98227,-0.28979 2.6213,0.15988c1.42872,1.00534 -1.29749,1.73489 -2.15769,1.35258c-1.62782,-0.72348 -4.39958,0.05813 -5.41602,-1.56818c-0.04629,-0.07407 -0.0926,-0.14814 -0.13889,-0.22222l-0.09494,-0.18736c0,0 -0.08917,-0.17832 0.051,-0.2961z" fill-opacity="0.22745" fill="#7a3c21"/><path d="M268.90245,178.70763c0.43463,-0.04055 0.87942,0.13535 1.45955,0.5576c0.43877,0.31936 1.17255,1.26441 0.39941,1.69682c-0.55515,0.3105 -1.5767,0.09511 -2.22621,0.30944c-0.49625,0.00426 -2.52832,-0.21924 -2.53991,-0.92176c-0.00698,-0.42318 2.27868,-2.00294 2.69414,-1.96238c0,0 0.24847,0.02761 0.22087,0.27608c-0.00176,0.01583 -0.00442,0.03053 -0.00785,0.0442zM270.60742,180.32832c0.0019,0.03824 0.00254,0.07756 0.00187,0.11799c0.01382,-0.03396 0.01196,-0.07399 -0.00187,-0.11799zM268.66362,179.24041c0.10534,-0.02185 0.21154,-0.038 0.31709,-0.0479c-0.11066,-0.0099 -0.21166,0.00612 -0.31709,0.0479zM268.57334,180.10874c-0.02973,-0.01985 -0.05332,-0.04001 -0.07124,-0.06034c-0.15958,0.01418 -0.32625,0.02415 -0.50731,0.0423c0.19064,-0.00054 0.38788,0.00366 0.57855,0.01803zM268.33664,178.878c-0.19823,0.02424 -0.31322,0.11359 -0.3945,0.2361c0.13689,-0.09454 0.26745,-0.17346 0.3945,-0.2361z" fill-opacity="0.15294" fill="#c76136"/><path d="M271.9783,184.1244l0.03566,-0.09451l0.34362,0.12964c0.08823,0.03119 0.15525,0.11088 0.1655,0.21014c0.01155,0.11187 -0.05255,0.21411 -0.15094,0.25585l-0.22692,0.1026c-1.17,0.65595 -3.08677,0.5627 -4.24261,-0.00336c0,0 -0.22449,-0.11002 -0.11446,-0.33451c0.11003,-0.22449 0.33452,-0.11446 0.33452,-0.11446c0.10123,0.04966 0.21,0.09544 0.3248,0.13702c0.03948,-0.06313 0.10661,-0.10806 0.18641,-0.1163c0.01688,-0.00174 0.03355,-0.00177 0.04982,-0.00021l0.28765,0.02219c0.99896,-0.11386 2.06921,-0.48619 3.00695,-0.19408z" fill-opacity="0.35686" fill="#e9f0f2"/><path d="M270.80785,174.89191c0.143,0.00256 0.28811,0.01091 0.43569,0.02565c0.42833,0.04278 1.28884,0.29595 1.29833,0.6124c0.00413,0.1377 -0.195,0.33514 -0.5906,0.45265c-0.18438,0.01181 -0.52238,0.06399 -0.85562,0.16403c-0.25468,0.07646 -0.47057,0.20177 -0.82759,0.23399c-0.34068,0.03074 -0.82464,0.00123 -1.21176,-0.00515c-0.27626,-0.00455 -0.61188,0.29224 -0.86854,0.32534c-0.24056,0.06503 -0.51171,-0.02424 -0.76704,-0.04572c-0.22723,0.0072 -0.52989,0.19941 -0.70028,0.16954c-0.18257,-0.03201 -0.19318,-0.18006 -0.28589,-0.26663c-0.06467,-0.03475 -0.09917,-0.0836 -0.09751,-0.14883c-0.01871,-0.05539 -0.02468,-0.11817 -0.01657,-0.18901c1.20156,-0.96037 2.94092,-1.65518 4.4874,-1.32826zM271.82872,175.37875c-0.00776,-0.0001 -0.05114,-0.00248 -0.11895,-0.00613c-0.00473,0.00511 -0.00968,0.01001 -0.01483,0.01471c0.04598,-0.00306 0.09062,-0.00592 0.13378,-0.00857z" fill-opacity="0.35686" fill="#e9f0f2"/><path d="M271.99057,175.3107c-1.02226,0.51255 -2.1587,0.72446 -3.10098,0.46761c-0.22497,0.04217 -0.44774,0.09313 -0.66886,0.13034c-0.34987,0.17553 -0.78002,0.40797 -1.19903,0.30241c0,0 -0.24149,-0.06466 -0.17684,-0.30615c0.02438,-0.09106 0.0739,-0.11228 0.12614,-0.13614c0.01009,-0.08852 0.41298,-0.31522 0.41298,-0.31522c0.27921,-0.13386 0.79008,-0.40957 1.30927,-0.53705c1.31244,-0.32227 3.19344,-0.13605 3.29734,0.39419z" fill-opacity="0.67059" fill="#e9f0f2"/><path d="M268.84936,184.77658c0.07029,-0.05854 0.18864,-0.06598 0.18864,-0.06598l0.16623,-0.00944c0.73922,0.0085 1.53127,-0.13415 2.21407,-0.03866l0.03548,-0.07537l0.30401,0.0532c0.10005,0.0158 0.17498,0.02042 0.17955,0.09309c0.00503,0.07997 -0.07679,0.12574 -0.19001,0.14805l-0.24245,0.13028c-0.35644,0.07416 -0.84123,0.18246 -1.32666,0.19881c-0.53311,0.01797 -1.067,-0.0641 -1.43255,-0.16852c0,0 -0.22315,-0.0138 -0.11104,-0.16566c0.05741,-0.07779 0.14396,-0.09831 0.21473,-0.09981z" fill-opacity="0.67059" fill="#e9f0f2"/><path d="M269.4919,177.90133c0.08209,0.46239 -0.95765,0.9108 -1.63478,1.19828l-0.15743,0.15743l-0.06324,-0.06325c-0.09378,0.04064 -0.17313,0.07649 -0.23149,0.10689l-0.02815,-0.24964l-0.09903,-0.01981l0.05556,-0.27778l0.01013,0.00203l-0.00324,-0.02874c0.1508,-0.34194 0.26272,-0.53368 0.56047,-0.76314c0,0 0.17661,-0.13245 0.32238,0.01753l0.03992,-0.04657c0.24891,-0.46828 1.07622,-0.89332 1.22892,-0.03323z" fill-opacity="0.18431" fill="#914727"/><path d="M272.4219,176.93127c0.17678,0.17677 0,0.35355 0,0.35355l-0.04265,0.0423c0.06703,0.10483 0.04519,0.27378 -0.13215,0.54669c-0.38031,0.58528 -1.96296,0.25346 -1.37453,-0.35886l-0.08549,-0.05129c-0.0749,-0.04318 -0.12531,-0.12407 -0.12531,-0.21673c0,-0.13807 0.11193,-0.25 0.25,-0.25c0.03691,0 0.07195,0.008 0.10348,0.02236l0.2344,0.10036c0.10341,0.03705 0.30076,0.03105 0.50402,0.03469c0.07517,-0.02851 0.15568,-0.07419 0.24347,-0.15111l0.07118,-0.07197c0,0 0.17678,-0.17677 0.35355,0z" fill-opacity="0.1451" fill="#914727"/><path d="M270.48231,179.65932c-0.07905,0.23717 -0.31622,0.15812 -0.31622,0.15812l0.04995,-0.0209c-0.08333,0.01852 -0.16667,0.03704 -0.25,0.05555c0,0 -0.24404,0.05423 -0.29828,-0.18982c-0.05424,-0.24404 0.18982,-0.29827 0.18982,-0.29827c0.08333,-0.01852 0.16667,-0.03704 0.25,-0.05556l0.21662,0.03465c0,0 0.23717,0.07906 0.15812,0.31623z" fill-opacity="0.15294" fill="#914727"/><path d="M273.44969,176.68127c0.17678,0.17677 0,0.35355 0,0.35355l-0.00455,0.001c-0.05556,0.07407 -0.11111,0.14815 -0.16666,0.22223c0,0 -0.15,0.2 -0.35,0.05c-0.2,-0.15 -0.05,-0.35 -0.05,-0.35c0.05556,-0.07407 0.11111,-0.14815 0.16667,-0.22222l0.051,-0.05455c0,0 0.17678,-0.17677 0.35355,0z" fill-opacity="0.13333" fill="#914727"/><path d="M266.53081,177.18862c0.63536,-0.1078 -0.03438,2.85442 -0.97055,1.63419c-0.14254,-0.18579 0.09614,-0.62981 0.34397,-0.99926l0.03856,-0.08605c0.08847,-0.12409 0.1691,-0.22451 0.24227,-0.30393c0.04818,-0.06312 0.08765,-0.11337 0.11275,-0.14567c0,0 0.09564,-0.12298 0.233,-0.09927z" fill-opacity="0.20784" fill="#914727"/><path d="M265.71599,181.46846l0.17955,-0.18321c0.37912,-0.11336 0.73153,-0.17664 1.12739,-0.17721c0,0 0.11834,0 0.19218,0.08142c0.4475,0.0496 0.82575,0.09961 1.27238,0.3021c0,0 0.06398,0.02908 0.10868,0.09033l0.11693,0.03898c0.13024,0.05048 0.25174,0.13208 0.35426,0.23219c0.84689,0.10744 2.46135,0.75824 3.06668,0.75498h0.02778c0,0 0.25,0 0.25,0.25c0,0.25 -0.25,0.25 -0.25,0.25h-0.02778c-0.83951,-0.00563 -2.02779,-0.14539 -2.93099,-0.58443c-0.03824,-0.0029 -0.06474,-0.01174 -0.06474,-0.01174l-0.21099,-0.07373c-0.14445,0.00196 -0.28722,-0.00056 -0.42922,0.00053c-0.03414,0.00385 -0.05834,0.00116 -0.05834,0.00116c-0.00127,-0.00014 -0.00254,-0.00028 -0.00381,-0.00043c-0.18656,0.00307 -0.37202,0.01446 -0.55844,0.05266c0,0 -0.20929,0.04186 -0.27979,-0.14516c-0.06989,-0.00248 -0.14026,-0.00244 -0.21142,0.00105c-0.05383,0.05332 -0.14741,0.1059 -0.28073,0.03924c-0.09598,-0.04799 -0.13016,-0.11657 -0.13792,-0.17923c-0.35224,-0.04725 -0.66546,-0.07419 -1.13276,0.10563l-0.22419,0.08408c0,0 -0.23408,0.08778 -0.32186,-0.1463c-0.08778,-0.23408 0.1463,-0.32186 0.1463,-0.32186l0.22026,-0.08259c0.05242,-0.02015 0.10327,-0.03796 0.15274,-0.05366c-0.1972,-0.11472 -0.09215,-0.32481 -0.09215,-0.32481zM267.01248,181.66988c-0.03991,0.01626 -0.17878,0.06139 -0.27861,-0.04862c-0.15147,0.0143 -0.2981,0.03994 -0.44695,0.07557c0.46228,-0.03855 0.84294,0.08401 1.40266,0.07787c0,0 0.13194,0 0.20412,0.09585c0.09168,0.00935 0.18334,0.02068 0.27568,0.0324c-0.00105,-0.00175 -0.00207,-0.0035 -0.00307,-0.00528c-0.3963,-0.1596 -0.72887,-0.18293 -1.15383,-0.2278z" fill-opacity="0.20784" fill="#914727"/><path d="M265.33786,182.13624c-0.05168,-0.17286 0.05435,-0.32864 0.05435,-0.32864c1.5957,-2.3065 3.15119,-0.05822 4.91861,-0.03515c0.76673,0.31769 1.514,-0.37853 2.2083,0.02597c2.40208,1.39942 -0.59493,2.39292 -1.66391,2.39257c-2.00648,-0.28284 -3.69873,0.37384 -5.35115,-1.43757l-0.15466,-0.37774c0,0 -0.03956,-0.11866 -0.01153,-0.23944z" fill="url(#color-3)"/><g><path d="M270.11945,185.35195c-2.90266,0 -5.25573,-2.4106 -5.25573,-5.38421c0,-2.97362 2.35308,-5.38421 5.25573,-5.38421c2.90266,0 5.25573,2.4106 5.25573,5.38421c0,2.97362 -2.35308,5.38421 -5.25573,5.38421z" data-paper-data="{&quot;index&quot;:null}" fill="url(#color-4)"/><path d="M270.11945,185.482c-2.97278,0 -5.38268,-2.46883 -5.38268,-5.51426c0,-3.04545 2.40992,-5.51426 5.38268,-5.51426c2.97278,0 5.38268,2.46883 5.38268,5.51426c0,3.04545 -2.40992,5.51426 -5.38268,5.51426z" data-paper-data="{&quot;index&quot;:null}" fill="url(#color-5)"/></g></g></g></svg>