<svg version="1.1" xmlns="http://www.w3.org/2000/svg" xmlns:xlink="http://www.w3.org/1999/xlink" width="110.59566" height="289.19136" viewBox="0,0,110.59566,289.19136"><defs><linearGradient x1="271.82285" y1="188.00127" x2="303.62907" y2="188.00127" gradientUnits="userSpaceOnUse" id="color-1"><stop offset="0" stop-color="#2c2f36"/><stop offset="1" stop-color="#191d1f"/></linearGradient><linearGradient x1="271.82285" y1="189.09395" x2="293.57785" y2="189.09395" gradientUnits="userSpaceOnUse" id="color-2"><stop offset="0" stop-color="#272727"/><stop offset="1" stop-color="#000000"/></linearGradient><linearGradient x1="208.57785" y1="187.66794" x2="176.77164" y2="187.66794" gradientUnits="userSpaceOnUse" id="color-3"><stop offset="0" stop-color="#575e6b"/><stop offset="1" stop-color="#696d82"/></linearGradient><linearGradient x1="186.82285" y1="188.76061" x2="208.57785" y2="188.76061" gradientUnits="userSpaceOnUse" id="color-4"><stop offset="0" stop-color="#272727"/><stop offset="1" stop-color="#000000"/></linearGradient><linearGradient x1="208.48951" y1="162.26061" x2="271.89896" y2="162.26061" gradientUnits="userSpaceOnUse" id="color-5"><stop offset="0" stop-color="#535863"/><stop offset="1" stop-color="#1a1b21"/></linearGradient><linearGradient x1="208.48951" y1="162.26061" x2="271.89897" y2="162.26061" gradientUnits="userSpaceOnUse" id="color-6"><stop offset="0" stop-color="#272727"/><stop offset="1" stop-color="#000000"/></linearGradient><linearGradient x1="242.46088" y1="164.93702" x2="267.33232" y2="164.93702" gradientUnits="userSpaceOnUse" id="color-7"><stop offset="0" stop-color="#4a382c"/><stop offset="1" stop-color="#301f1b"/></linearGradient><linearGradient x1="242.46088" y1="164.93702" x2="267.33232" y2="164.93702" gradientUnits="userSpaceOnUse" id="color-8"><stop offset="0" stop-color="#351c12"/><stop offset="1" stop-color="#1a1310"/></linearGradient><linearGradient x1="242.39399" y1="164.94639" x2="267.2079" y2="164.94639" gradientUnits="userSpaceOnUse" id="color-9"><stop offset="0" stop-color="#351c12"/><stop offset="1" stop-color="#1a1310"/></linearGradient><linearGradient x1="242.39399" y1="164.75746" x2="267.2079" y2="164.75746" gradientUnits="userSpaceOnUse" id="color-10"><stop offset="0" stop-color="#351c12"/><stop offset="1" stop-color="#1a1310"/></linearGradient><linearGradient x1="212.73457" y1="165.06298" x2="237.60601" y2="165.06298" gradientUnits="userSpaceOnUse" id="color-11"><stop offset="0" stop-color="#4a382c"/><stop offset="1" stop-color="#301f1b"/></linearGradient><linearGradient x1="212.73457" y1="165.06298" x2="237.60601" y2="165.06298" gradientUnits="userSpaceOnUse" id="color-12"><stop offset="0" stop-color="#351c12"/><stop offset="1" stop-color="#1a1310"/></linearGradient><linearGradient x1="212.66769" y1="165.07235" x2="237.48159" y2="165.07235" gradientUnits="userSpaceOnUse" id="color-13"><stop offset="0" stop-color="#351c12"/><stop offset="1" stop-color="#1a1310"/></linearGradient><linearGradient x1="212.66769" y1="164.88341" x2="237.48159" y2="164.88341" gradientUnits="userSpaceOnUse" id="color-14"><stop offset="0" stop-color="#351c12"/><stop offset="1" stop-color="#1a1310"/></linearGradient><linearGradient x1="242.46088" y1="194.93702" x2="267.33232" y2="194.93702" gradientUnits="userSpaceOnUse" id="color-15"><stop offset="0" stop-color="#4a382c"/><stop offset="1" stop-color="#301f1b"/></linearGradient><linearGradient x1="242.46088" y1="194.93702" x2="267.33232" y2="194.93702" gradientUnits="userSpaceOnUse" id="color-16"><stop offset="0" stop-color="#351c12"/><stop offset="1" stop-color="#1a1310"/></linearGradient><linearGradient x1="242.39399" y1="194.94639" x2="267.2079" y2="194.94639" gradientUnits="userSpaceOnUse" id="color-17"><stop offset="0" stop-color="#351c12"/><stop offset="1" stop-color="#1a1310"/></linearGradient><linearGradient x1="242.39399" y1="194.75746" x2="267.2079" y2="194.75746" gradientUnits="userSpaceOnUse" id="color-18"><stop offset="0" stop-color="#351c12"/><stop offset="1" stop-color="#1a1310"/></linearGradient><linearGradient x1="212.73457" y1="195.06298" x2="237.60601" y2="195.06298" gradientUnits="userSpaceOnUse" id="color-19"><stop offset="0" stop-color="#4a382c"/><stop offset="1" stop-color="#301f1b"/></linearGradient><linearGradient x1="212.73457" y1="195.06298" x2="237.60601" y2="195.06298" gradientUnits="userSpaceOnUse" id="color-20"><stop offset="0" stop-color="#351c12"/><stop offset="1" stop-color="#1a1310"/></linearGradient><linearGradient x1="212.66769" y1="195.07235" x2="237.48159" y2="195.07235" gradientUnits="userSpaceOnUse" id="color-21"><stop offset="0" stop-color="#351c12"/><stop offset="1" stop-color="#1a1310"/></linearGradient><linearGradient x1="212.66769" y1="194.88341" x2="237.48159" y2="194.88341" gradientUnits="userSpaceOnUse" id="color-22"><stop offset="0" stop-color="#351c12"/><stop offset="1" stop-color="#1a1310"/></linearGradient><linearGradient x1="211.7" y1="130.8" x2="268.3" y2="130.8" gradientUnits="userSpaceOnUse" id="color-23"><stop offset="0" stop-color="#515151"/><stop offset="1" stop-color="#131313"/></linearGradient><linearGradient x1="211.7" y1="130.8" x2="268.3" y2="130.8" gradientUnits="userSpaceOnUse" id="color-24"><stop offset="0" stop-color="#272727"/><stop offset="1" stop-color="#000000"/></linearGradient><linearGradient x1="214.64792" y1="118.48421" x2="264.95903" y2="118.48421" gradientUnits="userSpaceOnUse" id="color-25"><stop offset="0" stop-color="#272727"/><stop offset="1" stop-color="#000000"/></linearGradient><linearGradient x1="214.84445" y1="143.29825" x2="264.36945" y2="143.29825" gradientUnits="userSpaceOnUse" id="color-26"><stop offset="0" stop-color="#272727"/><stop offset="1" stop-color="#000000"/></linearGradient><linearGradient x1="253.65" y1="241.06666" x2="258.85" y2="241.06666" gradientUnits="userSpaceOnUse" id="color-27"><stop offset="0" stop-color="#525252"/><stop offset="1" stop-color="#363636"/></linearGradient><linearGradient x1="253.65" y1="241.06666" x2="258.85" y2="241.06666" gradientUnits="userSpaceOnUse" id="color-28"><stop offset="0" stop-color="#1f1f1f"/><stop offset="1" stop-color="#000000"/></linearGradient><linearGradient x1="222.79623" y1="234.03374" x2="227.25789" y2="234.64709" gradientUnits="userSpaceOnUse" id="color-29"><stop offset="0" stop-color="#525252"/><stop offset="1" stop-color="#2e2e2e"/></linearGradient><linearGradient x1="222.79623" y1="234.03374" x2="227.25789" y2="234.64709" gradientUnits="userSpaceOnUse" id="color-30"><stop offset="0" stop-color="#1f1f1f"/><stop offset="1" stop-color="#000000"/></linearGradient><linearGradient x1="207.34164" y1="247.34992" x2="271.51049" y2="247.34992" gradientUnits="userSpaceOnUse" id="color-31"><stop offset="0" stop-color="#b8b8b8"/><stop offset="1" stop-color="#4a4a4a"/></linearGradient><linearGradient x1="207.34164" y1="247.34992" x2="271.51049" y2="247.34992" gradientUnits="userSpaceOnUse" id="color-32"><stop offset="0" stop-color="#1f1f1f"/><stop offset="1" stop-color="#000000"/></linearGradient><linearGradient x1="229.3" y1="229.73333" x2="249.7" y2="229.73333" gradientUnits="userSpaceOnUse" id="color-33"><stop offset="0" stop-color="#5d5d5d"/><stop offset="1" stop-color="#232323"/></linearGradient><linearGradient x1="222.7" y1="242.80392" x2="255.5" y2="242.80392" gradientUnits="userSpaceOnUse" id="color-34"><stop offset="0" stop-color="#5d5d5d"/><stop offset="1" stop-color="#232323"/></linearGradient><linearGradient x1="217.16342" y1="257.23292" x2="261.19756" y2="257.23292" gradientUnits="userSpaceOnUse" id="color-35"><stop offset="0" stop-color="#5d5d5d"/><stop offset="1" stop-color="#232323"/></linearGradient><linearGradient x1="211.3" y1="271.60392" x2="267.3" y2="271.60392" gradientUnits="userSpaceOnUse" id="color-36"><stop offset="0" stop-color="#5d5d5d"/><stop offset="1" stop-color="#232323"/></linearGradient><linearGradient x1="251.39335" y1="224.01766" x2="261.23388" y2="224.01766" gradientUnits="userSpaceOnUse" id="color-37"><stop offset="0" stop-color="#aaaaaa"/><stop offset="1" stop-color="#4e4e4e"/></linearGradient><linearGradient x1="251.39335" y1="224.01766" x2="261.23388" y2="224.01766" gradientUnits="userSpaceOnUse" id="color-38"><stop offset="0" stop-color="#1f1f1f"/><stop offset="1" stop-color="#000000"/></linearGradient><linearGradient x1="261.26238" y1="224.01766" x2="271.10291" y2="224.01766" gradientUnits="userSpaceOnUse" id="color-39"><stop offset="0" stop-color="#aaaaaa"/><stop offset="1" stop-color="#4e4e4e"/></linearGradient><linearGradient x1="261.26238" y1="224.01766" x2="271.10291" y2="224.01766" gradientUnits="userSpaceOnUse" id="color-40"><stop offset="0" stop-color="#1f1f1f"/><stop offset="1" stop-color="#000000"/></linearGradient><linearGradient x1="263.65" y1="241.31666" x2="268.85" y2="241.31666" gradientUnits="userSpaceOnUse" id="color-41"><stop offset="0" stop-color="#525252"/><stop offset="1" stop-color="#363636"/></linearGradient><linearGradient x1="263.65" y1="241.31666" x2="268.85" y2="241.31666" gradientUnits="userSpaceOnUse" id="color-42"><stop offset="0" stop-color="#1f1f1f"/><stop offset="1" stop-color="#000000"/></linearGradient><linearGradient x1="207.875" y1="218.75" x2="271.875" y2="218.75" gradientUnits="userSpaceOnUse" id="color-43"><stop offset="0" stop-color="#525252"/><stop offset="1" stop-color="#2e2e2e"/></linearGradient><linearGradient x1="207.875" y1="218.75" x2="271.875" y2="218.75" gradientUnits="userSpaceOnUse" id="color-44"><stop offset="0" stop-color="#1f1f1f"/><stop offset="1" stop-color="#000000"/></linearGradient><linearGradient x1="208.28916" y1="23.87021" x2="272.45799" y2="23.87021" gradientUnits="userSpaceOnUse" id="color-45"><stop offset="0" stop-color="#89959f"/><stop offset="1" stop-color="#2a3542"/></linearGradient><linearGradient x1="208.28916" y1="23.8501" x2="272.458" y2="23.8501" gradientUnits="userSpaceOnUse" id="color-46"><stop offset="0" stop-color="#272727"/><stop offset="1" stop-color="#000000"/></linearGradient><linearGradient x1="224.28916" y1="-4.04512" x2="255.958" y2="-4.04512" gradientUnits="userSpaceOnUse" id="color-47"><stop offset="0" stop-color="#f1f5f8"/><stop offset="1" stop-color="#6d7680"/></linearGradient><linearGradient x1="224.28916" y1="-4.04766" x2="255.958" y2="-4.04766" gradientUnits="userSpaceOnUse" id="color-48"><stop offset="0" stop-color="#272727"/><stop offset="1" stop-color="#000000"/></linearGradient><linearGradient x1="217.06948" y1="12.26018" x2="264.25323" y2="12.26018" gradientUnits="userSpaceOnUse" id="color-49"><stop offset="0" stop-color="#3b4145"/><stop offset="1" stop-color="#171e25"/></linearGradient><linearGradient x1="208.29528" y1="83.16666" x2="271.70474" y2="83.16666" gradientUnits="userSpaceOnUse" id="color-50"><stop offset="0" stop-color="#301630"/><stop offset="1" stop-color="#140e17"/></linearGradient><linearGradient x1="208.29528" y1="83.16666" x2="271.70474" y2="83.16666" gradientUnits="userSpaceOnUse" id="color-51"><stop offset="0" stop-color="#272727"/><stop offset="1" stop-color="#000000"/></linearGradient><linearGradient x1="209.18751" y1="83.11234" x2="213.43751" y2="83.11234" gradientUnits="userSpaceOnUse" id="color-52"><stop offset="0" stop-color="#9d9d9d"/><stop offset="1" stop-color="#4c4c4c"/></linearGradient><linearGradient x1="209.18751" y1="83.11234" x2="213.43751" y2="83.11234" gradientUnits="userSpaceOnUse" id="color-53"><stop offset="0" stop-color="#272727"/><stop offset="1" stop-color="#000000"/></linearGradient><linearGradient x1="266.68751" y1="83.11234" x2="270.93751" y2="83.11234" gradientUnits="userSpaceOnUse" id="color-54"><stop offset="0" stop-color="#9d9d9d"/><stop offset="1" stop-color="#4c4c4c"/></linearGradient><linearGradient x1="266.68751" y1="83.11234" x2="270.93751" y2="83.11234" gradientUnits="userSpaceOnUse" id="color-55"><stop offset="0" stop-color="#272727"/><stop offset="1" stop-color="#000000"/></linearGradient><radialGradient cx="240" cy="83.16668" r="26.30533" gradientUnits="userSpaceOnUse" id="color-56"><stop offset="0" stop-color="#654573" stop-opacity="0.40995"/><stop offset="1" stop-color="#654573" stop-opacity="0"/></radialGradient><radialGradient cx="240" cy="83.07313" r="21.35612" gradientUnits="userSpaceOnUse" id="color-57"><stop offset="0" stop-color="#eb73e5" stop-opacity="0.60996"/><stop offset="1" stop-color="#eb73e5" stop-opacity="0"/></radialGradient><radialGradient cx="240" cy="83.07313" r="18.07971" gradientUnits="userSpaceOnUse" id="color-58"><stop offset="0" stop-color="#ff26ff" stop-opacity="0.44355"/><stop offset="1" stop-color="#eda3ff" stop-opacity="0.14516"/></radialGradient><radialGradient cx="240" cy="83.07313" r="14.86702" gradientUnits="userSpaceOnUse" id="color-59"><stop offset="0" stop-color="#f7e3ff" stop-opacity="0.25546"/><stop offset="1" stop-color="#9f07ff"/></radialGradient><linearGradient x1="209.07144" y1="93.35865" x2="270.92858" y2="93.35865" gradientUnits="userSpaceOnUse" id="color-60"><stop offset="0" stop-color="#9a66a2"/><stop offset="1" stop-color="#4d0069"/></linearGradient><linearGradient x1="209.07144" y1="93.45578" x2="270.92858" y2="93.45578" gradientUnits="userSpaceOnUse" id="color-61"><stop offset="0" stop-color="#9a66a2"/><stop offset="1" stop-color="#4d0069"/></linearGradient><linearGradient x1="209.2143" y1="71.94657" x2="271.07144" y2="71.94657" gradientUnits="userSpaceOnUse" id="color-62"><stop offset="0" stop-color="#9a66a2"/><stop offset="1" stop-color="#4d0069"/></linearGradient><linearGradient x1="209.2143" y1="72.0437" x2="271.07144" y2="72.0437" gradientUnits="userSpaceOnUse" id="color-63"><stop offset="0" stop-color="#9a66a2"/><stop offset="1" stop-color="#4d0069"/></linearGradient><linearGradient x1="208.45975" y1="107.06395" x2="270.95975" y2="107.06395" gradientUnits="userSpaceOnUse" id="color-64"><stop offset="0" stop-color="#b695c7"/><stop offset="1" stop-color="#312833"/></linearGradient><linearGradient x1="208.45975" y1="107.06395" x2="270.95975" y2="107.06395" gradientUnits="userSpaceOnUse" id="color-65"><stop offset="0" stop-color="#272727"/><stop offset="1" stop-color="#000000"/></linearGradient><linearGradient x1="208.74547" y1="59.3988" x2="271.24547" y2="59.3988" gradientUnits="userSpaceOnUse" id="color-66"><stop offset="0" stop-color="#b695c7"/><stop offset="1" stop-color="#312833"/></linearGradient><linearGradient x1="208.74547" y1="59.3988" x2="271.24547" y2="59.3988" gradientUnits="userSpaceOnUse" id="color-67"><stop offset="0" stop-color="#272727"/><stop offset="1" stop-color="#000000"/></linearGradient></defs><g transform="translate(-184.90252,9.00573)"><g data-paper-data="{&quot;isPaintingLayer&quot;:true}" fill-rule="nonzero" stroke-linejoin="miter" stroke-miterlimit="10" stroke-dasharray="" stroke-dashoffset="0" style="mix-blend-mode: normal"><path d="M271.82285,214.0938v-64.85172c0,0 8.16113,43.53356 11.01446,54.04444c2.25749,8.31596 10.74054,25.65929 10.74054,25.65929z" fill="url(#color-1)" stroke="url(#color-2)" stroke-width="1.5" stroke-linecap="butt"/><path d="M186.82285,228.61247c0,0 8.48305,-17.34332 10.74054,-25.65928c2.85333,-10.51089 11.01446,-54.04444 11.01446,-54.04444v64.85172z" data-paper-data="{&quot;index&quot;:null}" fill="url(#color-3)" stroke="url(#color-4)" stroke-width="1.5" stroke-linecap="butt"/><path d="M208.48951,214.27914v-104.03706h63.40946v104.03706z" fill="url(#color-5)" stroke="url(#color-6)" stroke-width="1.5" stroke-linecap="butt"/><g stroke-width="3"><path d="M242.46088,177.88443v-25.89482h24.87144v25.89482z" fill="url(#color-7)" stroke="url(#color-8)" stroke-linecap="butt"/><path d="M242.39399,177.54229l24.81391,-25.19178" fill="none" stroke="url(#color-9)" stroke-linecap="round"/><path d="M242.64591,152.09858l24.56199,25.56966" fill="none" stroke="url(#color-10)" stroke-linecap="round"/></g><g stroke-width="3"><path d="M212.73457,178.01039v-25.89482h24.87144v25.89482z" fill="url(#color-11)" stroke="url(#color-12)" stroke-linecap="butt"/><path d="M212.66769,177.66825l24.81391,-25.19179" fill="none" stroke="url(#color-13)" stroke-linecap="round"/><path d="M212.9196,152.22454l24.56199,25.56966" fill="none" stroke="url(#color-14)" stroke-linecap="round"/></g><g stroke-width="3"><path d="M242.46088,207.88443v-25.89482h24.87144v25.89482z" fill="url(#color-15)" stroke="url(#color-16)" stroke-linecap="butt"/><path d="M267.2079,182.35051l-24.81391,25.19178" fill="none" stroke="url(#color-17)" stroke-linecap="round"/><path d="M242.64591,182.09859l24.56199,25.56965" fill="none" stroke="url(#color-18)" stroke-linecap="round"/></g><g stroke-width="3"><path d="M212.73457,208.01039v-25.89482h24.87144v25.89482z" fill="url(#color-19)" stroke="url(#color-20)" stroke-linecap="butt"/><path d="M212.66769,207.66825l24.81391,-25.19179" fill="none" stroke="url(#color-21)" stroke-linecap="round"/><path d="M212.9196,182.22454l24.56199,25.56966" fill="none" stroke="url(#color-22)" stroke-linecap="round"/></g><g stroke-width="1.5"><path d="M211.7,146.4v-31.2h56.6v31.2z" fill="url(#color-23)" stroke="url(#color-24)" stroke-linecap="butt"/><path d="M264.95903,118.48421h-50.31111" fill="none" stroke="url(#color-25)" stroke-linecap="round"/><path d="M214.84445,143.29825h49.525" fill="none" stroke="url(#color-26)" stroke-linecap="round"/></g><g><path d="M253.65,249.66666v-17.2h5.2v17.2z" fill="url(#color-27)" stroke="url(#color-28)" stroke-width="1.5" stroke-linecap="butt"/><path d="M220.21849,252.78474l0.67217,-34.95989l11.11297,-2.53071l-7.32347,38.10396z" fill="url(#color-29)" stroke="url(#color-30)" stroke-width="1.5" stroke-linecap="butt"/><path d="M207.34164,279.43563c0,0 23.96029,-64.63938 32.08881,-64.16885c9.29886,0.53827 32.08004,64.16885 32.08004,64.16885z" fill="url(#color-31)" stroke="url(#color-32)" stroke-width="1.5" stroke-linecap="butt"/><path d="M249.7,229.73333h-20.4" fill="none" stroke="url(#color-33)" stroke-width="4.5" stroke-linecap="round"/><path d="M255.5,242.80392h-32.8" fill="none" stroke="url(#color-34)" stroke-width="4.5" stroke-linecap="round"/><path d="M261.19757,257.23292h-44.03415" fill="none" stroke="url(#color-35)" stroke-width="4.5" stroke-linecap="round"/><path d="M267.3,271.60392h-56" fill="none" stroke="url(#color-36)" stroke-width="4.5" stroke-linecap="round"/><path d="M261.23388,224.01766c-0.03682,7.61853 -0.15339,8.43369 -4.92026,8.35295c-4.76839,-0.08077 -4.97941,-1.11312 -4.92026,-8.35295c0.06531,-7.99323 0.05143,-8.54885 4.92026,-8.35295c4.66499,0.18771 4.9607,-0.01299 4.92026,8.35295z" fill="url(#color-37)" stroke="url(#color-38)" stroke-width="1.5" stroke-linecap="butt"/><path d="M271.10291,224.01766c-0.03682,7.61853 -0.15339,8.43369 -4.92026,8.35295c-4.76839,-0.08077 -4.97941,-1.11312 -4.92026,-8.35295c0.06531,-7.99323 0.05143,-8.54885 4.92026,-8.35295c4.66499,0.18771 4.9607,-0.01299 4.92026,8.35295z" fill="url(#color-39)" stroke="url(#color-40)" stroke-width="1.5" stroke-linecap="butt"/><path d="M259.15,246.66666c0,0 4.5,-1.13327 4.5,-3.66666c0,-3.08903 0,-10.28334 0,-10.28334h5.2c0,0 0,6.74766 0,9.78334c0,1.13514 -0.97555,3.53211 -2.65925,5.32718c-2.23671,2.38466 -5.34075,4.08948 -5.34075,4.08948z" fill="url(#color-41)" stroke="url(#color-42)" stroke-width="1.5" stroke-linecap="butt"/><path d="M207.875,214.75h64c0,0 -0.14445,3.94065 -0.98682,5.35939c-0.72248,1.2168 -3.76318,2.64061 -3.76318,2.64061h-55c0,0 -2.31812,-1.51057 -2.93964,-2.6805c-0.76509,-1.44017 -1.31036,-5.3195 -1.31036,-5.3195z" fill="url(#color-43)" stroke="url(#color-44)" stroke-width="1.5" stroke-linecap="butt"/></g><path d="M208.28916,55.95592c0,0 4.12696,-65.63938 31.75548,-64.16885c27.79886,-1.96173 32.41336,64.16885 32.41336,64.16885z" fill="url(#color-45)" stroke="url(#color-46)" stroke-width="1.5" stroke-linecap="butt"/><path d="M224.28916,0.01442c0,0 2.03675,-8.30482 15.67208,-8.11876c13.71939,-0.2482 15.99676,8.11876 15.99676,8.11876z" fill="url(#color-47)" stroke="url(#color-48)" stroke-width="1.5" stroke-linecap="butt"/><path d="M215.45647,20.36212c0,0 0.7828,-2.53863 1.93278,-5.5597c1.34953,-3.54527 3.58493,-7.75493 11.30928,-9.30593c0.29969,-0.06018 5.92996,-0.94176 5.92996,-0.94176l12.24886,0.03774c0,0 4.23426,0.30224 4.48292,0.36119c7.31017,1.7329 10.0553,6.08425 11.59197,9.72249c1.31027,3.10221 2.10749,5.68597 2.10749,5.68597z" data-paper-data="{&quot;index&quot;:null}" fill="url(#color-49)" stroke="#000000" stroke-width="0" stroke-linecap="butt"/><path d="M228.52647,12.84356c0,-3.11773 2.52742,-5.64516 5.64516,-5.64516c3.11774,0 5.64516,2.52743 5.64516,5.64516c0,3.11773 -2.52742,5.64516 -5.64516,5.64516c-3.11774,0 -5.64516,-2.52742 -5.64516,-5.64516z" fill="#ff0000" stroke="none" stroke-width="0.5" stroke-linecap="butt"/><path d="M241.57485,12.96722c0,-3.11773 2.52742,-5.64516 5.64516,-5.64516c3.11774,0 5.64516,2.52743 5.64516,5.64516c0,3.11773 -2.52743,5.64516 -5.64516,5.64516c-3.11774,0 -5.64516,-2.52743 -5.64516,-5.64516z" fill="#4bff00" stroke="none" stroke-width="0.5" stroke-linecap="butt"/><g><path d="M208.29528,110.23519v-54.13706h63.40946v54.13706z" fill="url(#color-50)" stroke="url(#color-51)" stroke-width="1.5" stroke-linecap="butt"/><path d="M209.18751,104.29167v-42.35867h4.25v42.35867z" fill="url(#color-52)" stroke="url(#color-53)" stroke-width="0" stroke-linecap="butt"/><path d="M266.68751,104.29167v-42.35867h4.25v42.35867z" fill="url(#color-54)" stroke="url(#color-55)" stroke-width="0" stroke-linecap="butt"/><path d="M213.69468,83.16668c0,-14.528 11.7773,-26.30534 26.30534,-26.30534c14.528,0 26.30534,11.7773 26.30534,26.30534c0,14.528 -11.7773,26.30534 -26.30534,26.30534c-14.528,0 -26.30534,-11.7773 -26.30534,-26.30534z" fill="url(#color-56)" stroke="none" stroke-width="0.5" stroke-linecap="butt"/><path d="M218.64388,83.07313c0,-11.7946 9.56145,-21.35611 21.35612,-21.35611c11.7946,0 21.35612,9.56145 21.35612,21.35611c0,11.7946 -9.56145,21.35612 -21.35612,21.35612c-11.7946,0 -21.35612,-9.56145 -21.35612,-21.35612z" fill="url(#color-57)" stroke="none" stroke-width="0.5" stroke-linecap="butt"/><path d="M221.92028,83.07313c0,-9.98512 8.09456,-18.07971 18.07972,-18.07971c9.98512,0 18.07971,8.09455 18.07971,18.07971c0,9.98512 -8.09456,18.07972 -18.07971,18.07972c-9.98512,0 -18.07972,-8.09456 -18.07972,-18.07972z" fill="url(#color-58)" stroke="none" stroke-width="0.5" stroke-linecap="butt"/><path d="M225.13298,83.07313c0,-8.2108 6.65619,-14.86702 14.86703,-14.86702c8.2108,0 14.86703,6.65618 14.86703,14.86702c0,8.2108 -6.65619,14.86703 -14.86703,14.86703c-8.2108,0 -14.86703,-6.65619 -14.86703,-14.86703z" fill="url(#color-59)" stroke="none" stroke-width="0.5" stroke-linecap="butt"/><path d="M209.07144,104.48159l3.42857,-22.24589l3.28572,22.24589l4.42857,-22.0516l4.42857,21.95446l7.71429,-21.95446l7.42857,22.0516l6.57143,-21.95446l7.42857,21.85731l5,-21.85731l5.42857,22.0516l3.42857,-21.95446l3.28571,21.76017" fill="none" stroke="url(#color-60)" stroke-width="1" stroke-linecap="round"/><path d="M270.92858,82.42997l-3.28571,21.76017l-3.42857,-21.95446l-5.42857,22.0516l-5,-21.85731l-7.42857,21.85731l-6.57143,-21.95446l-7.42857,22.0516l-7.71429,-21.95446l-4.42857,21.95446l-4.42857,-22.0516l-3.28572,22.24589l-3.42857,-22.24589" data-paper-data="{&quot;index&quot;:null}" fill="none" stroke="url(#color-61)" stroke-width="1" stroke-linecap="round"/><path d="M209.2143,83.0695l3.42857,-22.24589l3.28572,22.24589l4.42857,-22.0516l4.42857,21.95446l7.71429,-21.95446l7.42857,22.0516l6.57143,-21.95446l7.42857,21.85732l5,-21.85732l5.42857,22.05161l3.42857,-21.95446l3.28571,21.76017" fill="none" stroke="url(#color-62)" stroke-width="1" stroke-linecap="round"/><path d="M271.07144,61.01791l-3.28571,21.76017l-3.42857,-21.95446l-5.42857,22.0516l-5,-21.85731l-7.42857,21.85731l-6.57143,-21.95446l-7.42857,22.0516l-7.71429,-21.95446l-4.42857,21.95446l-4.42857,-22.0516l-3.28572,22.24589l-3.42857,-22.24589" data-paper-data="{&quot;index&quot;:null}" fill="none" stroke="url(#color-63)" stroke-width="1" stroke-linecap="round"/><path d="M208.45975,109.45341v-4.77892h62.5v4.77892z" fill="url(#color-64)" stroke="url(#color-65)" stroke-width="0.5" stroke-linecap="butt"/><path d="M208.74547,61.78827v-4.77892h62.5v4.77892z" fill="url(#color-66)" stroke="url(#color-67)" stroke-width="0.5" stroke-linecap="butt"/></g></g></g></svg>