<svg version="1.1" xmlns="http://www.w3.org/2000/svg" xmlns:xlink="http://www.w3.org/1999/xlink" width="59" height="59.70662" viewBox="0,0,59,59.70662"><defs><linearGradient x1="240" y1="151.64669" x2="240" y2="208.35331" gradientUnits="userSpaceOnUse" id="color-1"><stop offset="0" stop-color="#191919"/><stop offset="1" stop-color="#050505"/></linearGradient><linearGradient x1="240" y1="151.64669" x2="240" y2="208.35331" gradientUnits="userSpaceOnUse" id="color-2"><stop offset="0" stop-color="#cccccc"/><stop offset="1" stop-color="#898989"/></linearGradient><radialGradient cx="240" cy="180" r="26.8571" gradientUnits="userSpaceOnUse" id="color-3"><stop offset="0" stop-color="#ffffff" stop-opacity="0.35484"/><stop offset="1" stop-color="#ffffff" stop-opacity="0"/></radialGradient><linearGradient x1="240" y1="153.29211" x2="240" y2="206.70789" gradientUnits="userSpaceOnUse" id="color-4"><stop offset="0" stop-color="#cccccc"/><stop offset="1" stop-color="#898989"/></linearGradient><linearGradient x1="242.27336" y1="197.96907" x2="243.15231" y2="197.96907" gradientUnits="userSpaceOnUse" id="color-5"><stop offset="0" stop-color="#525252"/><stop offset="1" stop-color="#363636"/></linearGradient><linearGradient x1="242.27336" y1="197.96907" x2="243.15231" y2="197.96907" gradientUnits="userSpaceOnUse" id="color-6"><stop offset="0" stop-color="#1f1f1f"/><stop offset="1" stop-color="#000000"/></linearGradient><linearGradient x1="237.05822" y1="196.78031" x2="237.81237" y2="196.88398" gradientUnits="userSpaceOnUse" id="color-7"><stop offset="0" stop-color="#525252"/><stop offset="1" stop-color="#2e2e2e"/></linearGradient><linearGradient x1="237.05822" y1="196.78031" x2="237.81237" y2="196.88398" gradientUnits="userSpaceOnUse" id="color-8"><stop offset="0" stop-color="#1f1f1f"/><stop offset="1" stop-color="#000000"/></linearGradient><linearGradient x1="234.44596" y1="199.0311" x2="245.29228" y2="199.0311" gradientUnits="userSpaceOnUse" id="color-9"><stop offset="0" stop-color="#b8b8b8"/><stop offset="1" stop-color="#4a4a4a"/></linearGradient><linearGradient x1="234.44596" y1="199.0311" x2="245.29228" y2="199.0311" gradientUnits="userSpaceOnUse" id="color-10"><stop offset="0" stop-color="#1f1f1f"/><stop offset="1" stop-color="#000000"/></linearGradient><linearGradient x1="238.15753" y1="196.05341" x2="241.6057" y2="196.05341" gradientUnits="userSpaceOnUse" id="color-11"><stop offset="0" stop-color="#5d5d5d"/><stop offset="1" stop-color="#232323"/></linearGradient><linearGradient x1="237.04196" y1="198.2627" x2="242.58606" y2="198.2627" gradientUnits="userSpaceOnUse" id="color-12"><stop offset="0" stop-color="#5d5d5d"/><stop offset="1" stop-color="#232323"/></linearGradient><linearGradient x1="236.10611" y1="200.70161" x2="243.54911" y2="200.70161" gradientUnits="userSpaceOnUse" id="color-13"><stop offset="0" stop-color="#5d5d5d"/><stop offset="1" stop-color="#232323"/></linearGradient><linearGradient x1="235.11503" y1="203.13071" x2="244.58059" y2="203.13071" gradientUnits="userSpaceOnUse" id="color-14"><stop offset="0" stop-color="#5d5d5d"/><stop offset="1" stop-color="#232323"/></linearGradient><linearGradient x1="241.89193" y1="195.08731" x2="243.55524" y2="195.08731" gradientUnits="userSpaceOnUse" id="color-15"><stop offset="0" stop-color="#aaaaaa"/><stop offset="1" stop-color="#4e4e4e"/></linearGradient><linearGradient x1="241.89193" y1="195.08731" x2="243.55524" y2="195.08731" gradientUnits="userSpaceOnUse" id="color-16"><stop offset="0" stop-color="#1f1f1f"/><stop offset="1" stop-color="#000000"/></linearGradient><linearGradient x1="243.56007" y1="195.08731" x2="245.22339" y2="195.08731" gradientUnits="userSpaceOnUse" id="color-17"><stop offset="0" stop-color="#aaaaaa"/><stop offset="1" stop-color="#4e4e4e"/></linearGradient><linearGradient x1="243.56007" y1="195.08731" x2="245.22339" y2="195.08731" gradientUnits="userSpaceOnUse" id="color-18"><stop offset="0" stop-color="#1f1f1f"/><stop offset="1" stop-color="#000000"/></linearGradient><linearGradient x1="243.96364" y1="198.01132" x2="244.84258" y2="198.01132" gradientUnits="userSpaceOnUse" id="color-19"><stop offset="0" stop-color="#525252"/><stop offset="1" stop-color="#363636"/></linearGradient><linearGradient x1="243.96364" y1="198.01132" x2="244.84258" y2="198.01132" gradientUnits="userSpaceOnUse" id="color-20"><stop offset="0" stop-color="#1f1f1f"/><stop offset="1" stop-color="#000000"/></linearGradient><linearGradient x1="234.53611" y1="194.19692" x2="245.35389" y2="194.19692" gradientUnits="userSpaceOnUse" id="color-21"><stop offset="0" stop-color="#525252"/><stop offset="1" stop-color="#2e2e2e"/></linearGradient><linearGradient x1="234.53611" y1="194.19692" x2="245.35389" y2="194.19692" gradientUnits="userSpaceOnUse" id="color-22"><stop offset="0" stop-color="#1f1f1f"/><stop offset="1" stop-color="#000000"/></linearGradient><linearGradient x1="245.34508" y1="188.99954" x2="250.72121" y2="188.99954" gradientUnits="userSpaceOnUse" id="color-23"><stop offset="0" stop-color="#353535"/><stop offset="1" stop-color="#1f1f1f"/></linearGradient><linearGradient x1="245.34508" y1="189.18423" x2="249.02227" y2="189.18423" gradientUnits="userSpaceOnUse" id="color-24"><stop offset="0" stop-color="#272727"/><stop offset="1" stop-color="#000000"/></linearGradient><linearGradient x1="234.65491" y1="188.9432" x2="229.27878" y2="188.9432" gradientUnits="userSpaceOnUse" id="color-25"><stop offset="0" stop-color="#6b6b6b"/><stop offset="1" stop-color="#838383"/></linearGradient><linearGradient x1="230.97772" y1="189.12789" x2="234.65491" y2="189.12789" gradientUnits="userSpaceOnUse" id="color-26"><stop offset="0" stop-color="#272727"/><stop offset="1" stop-color="#000000"/></linearGradient><linearGradient x1="234.63999" y1="184.64865" x2="245.35794" y2="184.64865" gradientUnits="userSpaceOnUse" id="color-27"><stop offset="0" stop-color="#646464"/><stop offset="1" stop-color="#222222"/></linearGradient><linearGradient x1="234.63999" y1="184.64865" x2="245.35794" y2="184.64865" gradientUnits="userSpaceOnUse" id="color-28"><stop offset="0" stop-color="#272727"/><stop offset="1" stop-color="#000000"/></linearGradient><linearGradient x1="240.38209" y1="185.10104" x2="244.58605" y2="185.10104" gradientUnits="userSpaceOnUse" id="color-29"><stop offset="0" stop-color="#4a382c"/><stop offset="1" stop-color="#301f1b"/></linearGradient><linearGradient x1="240.38209" y1="185.10104" x2="244.58605" y2="185.10104" gradientUnits="userSpaceOnUse" id="color-30"><stop offset="0" stop-color="#351c12"/><stop offset="1" stop-color="#1a1310"/></linearGradient><linearGradient x1="240.37078" y1="185.10262" x2="244.56503" y2="185.10262" gradientUnits="userSpaceOnUse" id="color-31"><stop offset="0" stop-color="#351c12"/><stop offset="1" stop-color="#1a1310"/></linearGradient><linearGradient x1="240.37078" y1="185.07069" x2="244.56503" y2="185.07069" gradientUnits="userSpaceOnUse" id="color-32"><stop offset="0" stop-color="#351c12"/><stop offset="1" stop-color="#1a1310"/></linearGradient><linearGradient x1="235.35751" y1="185.12233" x2="239.56148" y2="185.12233" gradientUnits="userSpaceOnUse" id="color-33"><stop offset="0" stop-color="#4a382c"/><stop offset="1" stop-color="#301f1b"/></linearGradient><linearGradient x1="235.35751" y1="185.12233" x2="239.56148" y2="185.12233" gradientUnits="userSpaceOnUse" id="color-34"><stop offset="0" stop-color="#351c12"/><stop offset="1" stop-color="#1a1310"/></linearGradient><linearGradient x1="235.34622" y1="185.12391" x2="239.54045" y2="185.12391" gradientUnits="userSpaceOnUse" id="color-35"><stop offset="0" stop-color="#351c12"/><stop offset="1" stop-color="#1a1310"/></linearGradient><linearGradient x1="235.34622" y1="185.09198" x2="239.54045" y2="185.09198" gradientUnits="userSpaceOnUse" id="color-36"><stop offset="0" stop-color="#351c12"/><stop offset="1" stop-color="#1a1310"/></linearGradient><linearGradient x1="240.38209" y1="190.17188" x2="244.58605" y2="190.17188" gradientUnits="userSpaceOnUse" id="color-37"><stop offset="0" stop-color="#4a382c"/><stop offset="1" stop-color="#301f1b"/></linearGradient><linearGradient x1="240.38209" y1="190.17188" x2="244.58605" y2="190.17188" gradientUnits="userSpaceOnUse" id="color-38"><stop offset="0" stop-color="#351c12"/><stop offset="1" stop-color="#1a1310"/></linearGradient><linearGradient x1="240.37078" y1="190.17346" x2="244.56503" y2="190.17346" gradientUnits="userSpaceOnUse" id="color-39"><stop offset="0" stop-color="#351c12"/><stop offset="1" stop-color="#1a1310"/></linearGradient><linearGradient x1="240.37078" y1="190.14152" x2="244.56503" y2="190.14152" gradientUnits="userSpaceOnUse" id="color-40"><stop offset="0" stop-color="#351c12"/><stop offset="1" stop-color="#1a1310"/></linearGradient><linearGradient x1="235.35751" y1="190.19317" x2="239.56148" y2="190.19317" gradientUnits="userSpaceOnUse" id="color-41"><stop offset="0" stop-color="#4a382c"/><stop offset="1" stop-color="#301f1b"/></linearGradient><linearGradient x1="235.35751" y1="190.19317" x2="239.56148" y2="190.19317" gradientUnits="userSpaceOnUse" id="color-42"><stop offset="0" stop-color="#351c12"/><stop offset="1" stop-color="#1a1310"/></linearGradient><linearGradient x1="235.34622" y1="190.19475" x2="239.54045" y2="190.19475" gradientUnits="userSpaceOnUse" id="color-43"><stop offset="0" stop-color="#351c12"/><stop offset="1" stop-color="#1a1310"/></linearGradient><linearGradient x1="235.34622" y1="190.16281" x2="239.54045" y2="190.16281" gradientUnits="userSpaceOnUse" id="color-44"><stop offset="0" stop-color="#351c12"/><stop offset="1" stop-color="#1a1310"/></linearGradient><linearGradient x1="235.18265" y1="179.33094" x2="244.74961" y2="179.33094" gradientUnits="userSpaceOnUse" id="color-45"><stop offset="0" stop-color="#515151"/><stop offset="1" stop-color="#131313"/></linearGradient><linearGradient x1="235.18265" y1="179.33094" x2="244.74961" y2="179.33094" gradientUnits="userSpaceOnUse" id="color-46"><stop offset="0" stop-color="#272727"/><stop offset="1" stop-color="#000000"/></linearGradient><linearGradient x1="235.68093" y1="177.24923" x2="244.1849" y2="177.24923" gradientUnits="userSpaceOnUse" id="color-47"><stop offset="0" stop-color="#272727"/><stop offset="1" stop-color="#000000"/></linearGradient><linearGradient x1="235.71415" y1="181.44349" x2="244.08524" y2="181.44349" gradientUnits="userSpaceOnUse" id="color-48"><stop offset="0" stop-color="#272727"/><stop offset="1" stop-color="#000000"/></linearGradient><linearGradient x1="234.54297" y1="161.2506" x2="245.38929" y2="161.2506" gradientUnits="userSpaceOnUse" id="color-49"><stop offset="0" stop-color="#c9c9c9"/><stop offset="1" stop-color="#3e3e3e"/></linearGradient><linearGradient x1="234.54297" y1="161.25061" x2="245.38929" y2="161.25061" gradientUnits="userSpaceOnUse" id="color-50"><stop offset="0" stop-color="#272727"/><stop offset="1" stop-color="#000000"/></linearGradient><linearGradient x1="237.65319" y1="157.74114" x2="242.26134" y2="157.74114" gradientUnits="userSpaceOnUse" id="color-51"><stop offset="0" stop-color="#8c8c8c"/><stop offset="1" stop-color="#222222"/></linearGradient><linearGradient x1="237.65319" y1="157.74114" x2="242.26134" y2="157.74114" gradientUnits="userSpaceOnUse" id="color-52"><stop offset="0" stop-color="#272727"/><stop offset="1" stop-color="#000000"/></linearGradient><linearGradient x1="237.7545" y1="157.16564" x2="242.12142" y2="157.16564" gradientUnits="userSpaceOnUse" id="color-53"><stop offset="0" stop-color="#ffffff"/><stop offset="1" stop-color="#606060"/></linearGradient><linearGradient x1="237.7545" y1="157.16564" x2="242.12142" y2="157.16564" gradientUnits="userSpaceOnUse" id="color-54"><stop offset="0" stop-color="#272727"/><stop offset="1" stop-color="#000000"/></linearGradient><radialGradient cx="239.45226" cy="161.27277" r="2.02329" gradientUnits="userSpaceOnUse" id="color-55"><stop offset="0" stop-color="#9cd7f7"/><stop offset="1" stop-color="#0087f6"/></radialGradient><linearGradient x1="237.94284" y1="162.34929" x2="241.98942" y2="162.34929" gradientUnits="userSpaceOnUse" id="color-56"><stop offset="0" stop-color="#272727"/><stop offset="1" stop-color="#000000"/></linearGradient><linearGradient x1="238.05611" y1="165.39179" x2="241.87615" y2="165.39179" gradientUnits="userSpaceOnUse" id="color-57"><stop offset="0" stop-color="#272727"/><stop offset="1" stop-color="#000000"/></linearGradient><linearGradient x1="238.05611" y1="164.8847" x2="241.87615" y2="164.8847" gradientUnits="userSpaceOnUse" id="color-58"><stop offset="0" stop-color="#272727"/><stop offset="1" stop-color="#000000"/></linearGradient><linearGradient x1="238.05611" y1="165.89887" x2="241.87615" y2="165.89887" gradientUnits="userSpaceOnUse" id="color-59"><stop offset="0" stop-color="#272727"/><stop offset="1" stop-color="#000000"/></linearGradient><linearGradient x1="234.60715" y1="171.27958" x2="245.32511" y2="171.27958" gradientUnits="userSpaceOnUse" id="color-60"><stop offset="0" stop-color="#301630"/><stop offset="1" stop-color="#140e17"/></linearGradient><linearGradient x1="234.60715" y1="171.27958" x2="245.32511" y2="171.27958" gradientUnits="userSpaceOnUse" id="color-61"><stop offset="0" stop-color="#272727"/><stop offset="1" stop-color="#000000"/></linearGradient><linearGradient x1="234.75797" y1="171.2704" x2="235.47633" y2="171.2704" gradientUnits="userSpaceOnUse" id="color-62"><stop offset="0" stop-color="#9d9d9d"/><stop offset="1" stop-color="#4c4c4c"/></linearGradient><linearGradient x1="234.75797" y1="171.2704" x2="235.47633" y2="171.2704" gradientUnits="userSpaceOnUse" id="color-63"><stop offset="0" stop-color="#272727"/><stop offset="1" stop-color="#000000"/></linearGradient><linearGradient x1="244.47706" y1="171.2704" x2="245.19542" y2="171.2704" gradientUnits="userSpaceOnUse" id="color-64"><stop offset="0" stop-color="#9d9d9d"/><stop offset="1" stop-color="#4c4c4c"/></linearGradient><linearGradient x1="244.47706" y1="171.2704" x2="245.19542" y2="171.2704" gradientUnits="userSpaceOnUse" id="color-65"><stop offset="0" stop-color="#272727"/><stop offset="1" stop-color="#000000"/></linearGradient><radialGradient cx="239.96613" cy="171.27959" r="4.44633" gradientUnits="userSpaceOnUse" id="color-66"><stop offset="0" stop-color="#654573" stop-opacity="0.40995"/><stop offset="1" stop-color="#654573" stop-opacity="0"/></radialGradient><radialGradient cx="239.96613" cy="171.26377" r="3.60978" gradientUnits="userSpaceOnUse" id="color-67"><stop offset="0" stop-color="#eb73e5" stop-opacity="0.60996"/><stop offset="1" stop-color="#eb73e5" stop-opacity="0"/></radialGradient><radialGradient cx="239.96613" cy="171.26377" r="3.05598" gradientUnits="userSpaceOnUse" id="color-68"><stop offset="0" stop-color="#ff26ff" stop-opacity="0.44355"/><stop offset="1" stop-color="#eda3ff" stop-opacity="0.14516"/></radialGradient><radialGradient cx="239.96613" cy="171.26377" r="2.51294" gradientUnits="userSpaceOnUse" id="color-69"><stop offset="0" stop-color="#f7e3ff" stop-opacity="0.25546"/><stop offset="1" stop-color="#9f07ff"/></radialGradient><linearGradient x1="234.73835" y1="173.00231" x2="245.19392" y2="173.00231" gradientUnits="userSpaceOnUse" id="color-70"><stop offset="0" stop-color="#9a66a2"/><stop offset="1" stop-color="#4d0069"/></linearGradient><linearGradient x1="234.73835" y1="173.01873" x2="245.19392" y2="173.01873" gradientUnits="userSpaceOnUse" id="color-71"><stop offset="0" stop-color="#9a66a2"/><stop offset="1" stop-color="#4d0069"/></linearGradient><linearGradient x1="234.76249" y1="169.38308" x2="245.21807" y2="169.38308" gradientUnits="userSpaceOnUse" id="color-72"><stop offset="0" stop-color="#9a66a2"/><stop offset="1" stop-color="#4d0069"/></linearGradient><linearGradient x1="234.76249" y1="169.3995" x2="245.21807" y2="169.3995" gradientUnits="userSpaceOnUse" id="color-73"><stop offset="0" stop-color="#9a66a2"/><stop offset="1" stop-color="#4d0069"/></linearGradient><linearGradient x1="234.63495" y1="175.31889" x2="245.19919" y2="175.31889" gradientUnits="userSpaceOnUse" id="color-74"><stop offset="0" stop-color="#b695c7"/><stop offset="1" stop-color="#312833"/></linearGradient><linearGradient x1="234.63495" y1="175.31889" x2="245.19919" y2="175.31889" gradientUnits="userSpaceOnUse" id="color-75"><stop offset="0" stop-color="#272727"/><stop offset="1" stop-color="#000000"/></linearGradient><linearGradient x1="234.68325" y1="167.26215" x2="245.24748" y2="167.26215" gradientUnits="userSpaceOnUse" id="color-76"><stop offset="0" stop-color="#b695c7"/><stop offset="1" stop-color="#312833"/></linearGradient><linearGradient x1="234.68325" y1="167.26215" x2="245.24748" y2="167.26215" gradientUnits="userSpaceOnUse" id="color-77"><stop offset="0" stop-color="#272727"/><stop offset="1" stop-color="#000000"/></linearGradient></defs><g transform="translate(-210.5,-150.14669)"><g data-paper-data="{&quot;isPaintingLayer&quot;:true}" fill-rule="nonzero" stroke-linejoin="miter" stroke-miterlimit="10" stroke-dasharray="" stroke-dashoffset="0" style="mix-blend-mode: normal"><path d="M212,208.35331v-56.70662h56v56.70662z" fill="url(#color-1)" stroke="url(#color-2)" stroke-width="3" stroke-linecap="butt"/><path d="M266.8571,180c0,14.75036 -12.02433,26.70789 -26.8571,26.70789c-14.83277,0 -26.8571,-11.95753 -26.8571,-26.70789c0,-14.75036 12.02433,-26.70789 26.8571,-26.70789c14.83277,0 26.8571,11.95753 26.8571,26.70789z" fill="url(#color-3)" stroke="url(#color-4)" stroke-width="0" stroke-linecap="butt"/><g stroke-width="0.25"><path d="M242.27336,199.4227v-2.90727h0.87894v2.90727z" fill="url(#color-5)" stroke="url(#color-6)" stroke-linecap="butt"/><path d="M236.62251,199.94975l0.11362,-5.90919l1.8784,-0.42777l-1.23787,6.44062z" fill="url(#color-7)" stroke="url(#color-8)" stroke-linecap="butt"/><path d="M234.44596,204.45448c0,0 4.04995,-10.92585 5.4239,-10.84632c1.57176,0.09098 5.42241,10.84632 5.42241,10.84632z" fill="url(#color-9)" stroke="url(#color-10)" stroke-linecap="butt"/><path d="M238.15753,196.05341h3.44817" fill="none" stroke="url(#color-11)" stroke-linecap="round"/><path d="M237.04196,198.2627h5.54411" fill="none" stroke="url(#color-12)" stroke-linecap="round"/><path d="M243.5491,200.70161h-7.44299" fill="none" stroke="url(#color-13)" stroke-linecap="round"/><path d="M235.11503,203.13071h9.46556" fill="none" stroke="url(#color-14)" stroke-linecap="round"/><path d="M243.55524,195.08731c-0.00623,1.28774 -0.02593,1.42552 -0.83166,1.41188c-0.80599,-0.01365 -0.84166,-0.18815 -0.83166,-1.41188c0.01104,-1.35108 0.00869,-1.44499 0.83166,-1.41188c0.78852,0.03173 0.83849,-0.0022 0.83166,1.41188z" fill="url(#color-15)" stroke="url(#color-16)" stroke-linecap="butt"/><path d="M245.22339,195.08731c-0.00623,1.28774 -0.02593,1.42552 -0.83166,1.41188c-0.80599,-0.01365 -0.84166,-0.18815 -0.83166,-1.41188c0.01104,-1.35108 0.00869,-1.44499 0.83166,-1.41188c0.78852,0.03173 0.83849,-0.0022 0.83166,1.41188z" fill="url(#color-17)" stroke="url(#color-18)" stroke-linecap="butt"/><path d="M243.20302,198.91562c0,0 0.76062,-0.19155 0.76062,-0.61977c0,-0.52213 0,-1.73817 0,-1.73817h0.87894c0,0 0,1.14054 0,1.65366c0,0.19187 -0.16489,0.59702 -0.44949,0.90044c-0.37807,0.40307 -0.90273,0.69123 -0.90273,0.69123z" fill="url(#color-19)" stroke="url(#color-20)" stroke-linecap="butt"/><path d="M234.53611,193.52081h10.81778c0,0 -0.02442,0.66608 -0.1668,0.90588c-0.12212,0.20567 -0.63608,0.44634 -0.63608,0.44634h-9.29652c0,0 -0.39183,-0.25533 -0.49688,-0.45308c-0.12932,-0.24343 -0.22148,-0.89914 -0.22148,-0.89914z" fill="url(#color-21)" stroke="url(#color-22)" stroke-linecap="butt"/></g><path d="M245.34508,193.4099v-10.96173c0,0 1.37946,7.35838 1.86175,9.135c0.38158,1.40562 1.81545,4.33713 1.81545,4.33713z" fill="url(#color-23)" stroke="url(#color-24)" stroke-width="0.25" stroke-linecap="butt"/><path d="M230.97772,195.86396c0,0 1.43387,-2.9315 1.81545,-4.33713c0.48229,-1.77663 1.86175,-9.135 1.86175,-9.135v10.96173z" data-paper-data="{&quot;index&quot;:null}" fill="url(#color-25)" stroke="url(#color-26)" stroke-width="0.25" stroke-linecap="butt"/><path d="M234.63999,193.44123v-17.58515h10.71796v17.58515z" fill="url(#color-27)" stroke="url(#color-28)" stroke-width="0.25" stroke-linecap="butt"/><g stroke-width="0.25"><path d="M240.38209,187.28951v-4.37694h4.20397v4.37694z" fill="url(#color-29)" stroke="url(#color-30)" stroke-linecap="butt"/><path d="M240.37078,187.23168l4.19424,-4.25811" fill="none" stroke="url(#color-31)" stroke-linecap="round"/><path d="M240.41337,182.93099l4.15165,4.32198" fill="none" stroke="url(#color-32)" stroke-linecap="round"/></g><g stroke-width="0.25"><path d="M235.35751,187.31081v-4.37694h4.20397v4.37694z" fill="url(#color-33)" stroke="url(#color-34)" stroke-linecap="butt"/><path d="M239.54045,182.99487l-4.19424,4.25811" fill="none" stroke="url(#color-35)" stroke-linecap="round"/><path d="M239.54045,187.27426l-4.15165,-4.32198" fill="none" stroke="url(#color-36)" stroke-linecap="round"/></g><g stroke-width="0.25"><path d="M240.38209,192.36035v-4.37694h4.20397v4.37694z" fill="url(#color-37)" stroke="url(#color-38)" stroke-linecap="butt"/><path d="M240.37078,192.30251l4.19424,-4.25811" fill="none" stroke="url(#color-39)" stroke-linecap="round"/><path d="M244.56503,192.3238l-4.15165,-4.32198" fill="none" stroke="url(#color-40)" stroke-linecap="round"/></g><g stroke-width="0.25"><path d="M235.35751,192.38164v-4.37694h4.20397v4.37694z" fill="url(#color-41)" stroke="url(#color-42)" stroke-linecap="butt"/><path d="M239.54046,188.06569l-4.19424,4.25811" fill="none" stroke="url(#color-43)" stroke-linecap="round"/><path d="M235.38879,188.02312l4.15165,4.32198" fill="none" stroke="url(#color-44)" stroke-linecap="round"/></g><g stroke-width="0.25"><path d="M235.18265,181.96777v-5.27366h9.56697v5.27366z" fill="url(#color-45)" stroke="url(#color-46)" stroke-linecap="butt"/><path d="M235.68093,177.24923h8.50397" fill="none" stroke="url(#color-47)" stroke-linecap="round"/><path d="M235.71415,181.44349h8.3711" fill="none" stroke="url(#color-48)" stroke-linecap="round"/></g><path d="M234.54297,166.67398c0,0 3.99361,-10.92585 5.36756,-10.84632c1.57176,0.09098 5.47876,10.84632 5.47876,10.84632z" fill="url(#color-49)" stroke="url(#color-50)" stroke-width="0.25" stroke-linecap="butt"/><path d="M237.69629,159.29324l0.18692,-0.41677l4.1508,-0.01161l0.18424,0.42838z" fill="url(#color-51)" stroke="url(#color-52)" stroke-width="0.25" stroke-linecap="butt"/><path d="M237.7545,158.78576c0,0 1.60789,-3.26387 2.16108,-3.24011c0.63282,0.02718 2.20584,3.24011 2.20584,3.24011z" fill="url(#color-53)" stroke="url(#color-54)" stroke-width="0.25" stroke-linecap="butt"/><path d="M241.98942,162.34929c0,1.09511 -0.90586,1.98287 -2.02329,1.98287c-1.11743,0 -2.02329,-0.88776 -2.02329,-1.98287c0,-1.09511 0.90586,-1.98287 2.02329,-1.98287c1.11743,0 2.02329,0.88776 2.02329,1.98287z" fill="url(#color-55)" stroke="url(#color-56)" stroke-width="0.25" stroke-linecap="butt"/><path d="M238.05612,165.39179h3.82003" fill="none" stroke="url(#color-57)" stroke-width="0.25" stroke-linecap="round"/><path d="M241.87614,164.8847h-3.82003" fill="none" stroke="url(#color-58)" stroke-width="0.25" stroke-linecap="round"/><path d="M241.87614,165.89887h-3.82003" fill="none" stroke="url(#color-59)" stroke-width="0.25" stroke-linecap="round"/><g stroke-width="0.25"><path d="M234.60715,175.85492v-9.15067h10.71796v9.15067z" fill="url(#color-60)" stroke="url(#color-61)" stroke-linecap="butt"/><path d="M234.75797,174.85029v-7.15979h0.71837v7.15979z" fill="url(#color-62)" stroke="url(#color-63)" stroke-linecap="butt"/><path d="M244.47706,174.85029v-7.15979h0.71837v7.15979z" fill="url(#color-64)" stroke="url(#color-65)" stroke-linecap="butt"/><path d="M235.5198,171.27959c0,-2.45564 1.99069,-4.44633 4.44633,-4.44633c2.45564,0 4.44633,1.99069 4.44633,4.44633c0,2.45564 -1.99069,4.44633 -4.44633,4.44633c-2.45564,0 -4.44633,-1.99069 -4.44633,-4.44633z" fill="url(#color-66)" stroke="none" stroke-linecap="butt"/><path d="M236.35635,171.26377c0,-1.99362 1.61615,-3.60978 3.60978,-3.60978c1.99362,0 3.60978,1.61615 3.60978,3.60978c0,1.99362 -1.61615,3.60978 -3.60978,3.60978c-1.99362,0 -3.60978,-1.61615 -3.60978,-3.60978z" fill="url(#color-67)" stroke="none" stroke-linecap="butt"/><path d="M236.91015,171.26377c0,-1.68776 1.36821,-3.05598 3.05598,-3.05598c1.68776,0 3.05598,1.3682 3.05598,3.05598c0,1.68776 -1.36821,3.05598 -3.05598,3.05598c-1.68776,0 -3.05598,-1.36821 -3.05598,-3.05598z" fill="url(#color-68)" stroke="none" stroke-linecap="butt"/><path d="M237.4532,171.26377c0,-1.38785 1.12508,-2.51294 2.51294,-2.51294c1.38785,0 2.51294,1.12508 2.51294,2.51294c0,1.38785 -1.12508,2.51294 -2.51294,2.51294c-1.38785,0 -2.51294,-1.12508 -2.51294,-2.51294z" fill="url(#color-69)" stroke="none" stroke-linecap="butt"/><path d="M234.73835,174.88239l0.57953,-3.76018l0.55538,3.76018l0.74855,-3.72733l0.74855,3.71091l1.30393,-3.71091l1.25564,3.72733l1.11075,-3.71091l1.25564,3.6945l0.84513,-3.6945l0.91758,3.72733l0.57953,-3.71091l0.55538,3.67807" fill="none" stroke="url(#color-70)" stroke-linecap="round"/><path d="M245.19392,171.15506l-0.55538,3.67807l-0.57953,-3.71091l-0.91758,3.72733l-0.84513,-3.6945l-1.25564,3.6945l-1.11075,-3.71091l-1.25564,3.72733l-1.30393,-3.71091l-0.74855,3.71091l-0.74855,-3.72733l-0.55538,3.76018l-0.57953,-3.76018" data-paper-data="{&quot;index&quot;:null}" fill="none" stroke="url(#color-71)" stroke-linecap="round"/><path d="M234.76249,171.26316l0.57953,-3.76018l0.55538,3.76018l0.74855,-3.72733l0.74855,3.71091l1.30393,-3.71091l1.25564,3.72733l1.11075,-3.71091l1.25564,3.6945l0.84513,-3.6945l0.91758,3.72733l0.57953,-3.71091l0.55538,3.67807" fill="none" stroke="url(#color-72)" stroke-linecap="round"/><path d="M245.21807,167.53583l-0.55538,3.67807l-0.57953,-3.71091l-0.91758,3.72733l-0.84513,-3.6945l-1.25564,3.6945l-1.11075,-3.71091l-1.25564,3.72733l-1.30393,-3.71091l-0.74855,3.71091l-0.74855,-3.72733l-0.55538,3.76018l-0.57953,-3.76018" data-paper-data="{&quot;index&quot;:null}" fill="none" stroke="url(#color-73)" stroke-linecap="round"/><path d="M234.63495,175.72277v-0.80777h10.56424v0.80777z" fill="url(#color-74)" stroke="url(#color-75)" stroke-linecap="butt"/><path d="M234.68325,167.66605v-0.80777h10.56424v0.80777z" fill="url(#color-76)" stroke="url(#color-77)" stroke-linecap="butt"/></g><path d="M215.27327,167.03273v-12.39235h25.93332v8.69862h-15.56684v3.69373z" fill-opacity="0.53453" fill="#000000" stroke="#a60000" stroke-width="0" stroke-linecap="butt"/><text transform="translate(215.70712,161.61518) scale(0.21839,0.21839)" font-size="40" xml:space="preserve" fill="#ffffff" fill-rule="nonzero" stroke="#000000" stroke-width="0" stroke-linecap="butt" stroke-linejoin="miter" stroke-miterlimit="10" stroke-dasharray="" stroke-dashoffset="0" font-family="Serif" font-weight="normal" text-anchor="start" style="mix-blend-mode: normal"><tspan x="0" dy="0">Rocket</tspan></text><text transform="translate(215.56527,166.16681) scale(0.11601,0.11601)" font-size="40" xml:space="preserve" fill="#ffffff" fill-rule="nonzero" stroke="#000000" stroke-width="0" stroke-linecap="butt" stroke-linejoin="miter" stroke-miterlimit="10" stroke-dasharray="" stroke-dashoffset="0" font-family="Serif" font-weight="normal" text-anchor="start" style="mix-blend-mode: normal"><tspan x="0" dy="0">1-3-3</tspan></text></g></g></svg>