<svg version="1.1" xmlns="http://www.w3.org/2000/svg" xmlns:xlink="http://www.w3.org/1999/xlink" width="253.93783" height="185.31876" viewBox="0,0,253.93783,185.31876"><defs><linearGradient x1="310.06247" y1="200.34215" x2="310.06247" y2="275.57656" gradientUnits="userSpaceOnUse" id="color-1"><stop offset="0" stop-color="#636363"/><stop offset="1" stop-color="#424242"/></linearGradient><radialGradient cx="312.38027" cy="237.75" r="34.42529" gradientUnits="userSpaceOnUse" id="color-2"><stop offset="0" stop-color="#8c8aff" stop-opacity="0.6549"/><stop offset="1" stop-color="#8c8aff" stop-opacity="0"/></radialGradient><radialGradient cx="312.38027" cy="237.75" r="34.42529" gradientUnits="userSpaceOnUse" id="color-3"><stop offset="0" stop-color="#7d94ff"/><stop offset="1" stop-color="#7d94ff" stop-opacity="0"/></radialGradient><radialGradient cx="312.41829" cy="237.82449" r="32.64406" gradientUnits="userSpaceOnUse" id="color-4"><stop offset="0" stop-color="#35348c" stop-opacity="0.52549"/><stop offset="1" stop-color="#35348c" stop-opacity="0"/></radialGradient><radialGradient cx="313.75916" cy="237.82449" r="32.64406" gradientUnits="userSpaceOnUse" id="color-5"><stop offset="0" stop-color="#3662ff"/><stop offset="1" stop-color="#3662ff" stop-opacity="0"/></radialGradient><radialGradient cx="312.49433" cy="237.82449" r="30.89056" gradientUnits="userSpaceOnUse" id="color-6"><stop offset="0" stop-color="#e7cd73" stop-opacity="0.74118"/><stop offset="1" stop-color="#e7cd73" stop-opacity="0"/></radialGradient><radialGradient cx="317.08713" cy="227.45047" r="28.90601" gradientUnits="userSpaceOnUse" id="color-7"><stop offset="0" stop-color="#fff2d9"/><stop offset="1" stop-color="#d5bea6"/></radialGradient><radialGradient cx="308.02531" cy="231.20685" r="17.22167" gradientUnits="userSpaceOnUse" id="color-8"><stop offset="0" stop-color="#6279af"/><stop offset="1" stop-color="#5b6ec2"/></radialGradient><radialGradient cx="321.55602" cy="222.79585" r="6.21493" gradientUnits="userSpaceOnUse" id="color-9"><stop offset="0" stop-color="#6279af"/><stop offset="1" stop-color="#5b6ec2"/></radialGradient><radialGradient cx="322.04359" cy="234.13237" r="6.28388" gradientUnits="userSpaceOnUse" id="color-10"><stop offset="0" stop-color="#6279af"/><stop offset="1" stop-color="#5b6ec2"/></radialGradient><radialGradient cx="315.82678" cy="256.07401" r="16.37417" gradientUnits="userSpaceOnUse" id="color-11"><stop offset="0" stop-color="#6279af"/><stop offset="1" stop-color="#5b6ec2"/></radialGradient><radialGradient cx="287.30262" cy="245.59076" r="8.98096" gradientUnits="userSpaceOnUse" id="color-12"><stop offset="0" stop-color="#6279af"/><stop offset="1" stop-color="#5b6ec2"/></radialGradient><radialGradient cx="336.06186" cy="235.22947" r="10.73618" gradientUnits="userSpaceOnUse" id="color-13"><stop offset="0" stop-color="#6279af"/><stop offset="1" stop-color="#5b6ec2"/></radialGradient><radialGradient cx="292.67177" cy="237.43339" r="7.74518" gradientUnits="userSpaceOnUse" id="color-14"><stop offset="0" stop-color="#ffffff" stop-opacity="0.54902"/><stop offset="1" stop-color="#ffffff" stop-opacity="0.43529"/></radialGradient><radialGradient cx="324.23147" cy="254.93337" r="11.41046" gradientUnits="userSpaceOnUse" id="color-15"><stop offset="0" stop-color="#ffffff" stop-opacity="0.54902"/><stop offset="1" stop-color="#ffffff" stop-opacity="0.43529"/></radialGradient><radialGradient cx="316.9024" cy="225.76681" r="10.58038" gradientUnits="userSpaceOnUse" id="color-16"><stop offset="0" stop-color="#ffffff" stop-opacity="0.54902"/><stop offset="1" stop-color="#ffffff" stop-opacity="0.43529"/></radialGradient><radialGradient cx="334.40238" cy="221.27965" r="9.75956" gradientUnits="userSpaceOnUse" id="color-17"><stop offset="0" stop-color="#ffffff" stop-opacity="0.54902"/><stop offset="1" stop-color="#ffffff" stop-opacity="0.43529"/></radialGradient><radialGradient cx="285.941" cy="219.18564" r="8.03949" gradientUnits="userSpaceOnUse" id="color-18"><stop offset="0" stop-color="#ffffff" stop-opacity="0.54902"/><stop offset="1" stop-color="#ffffff" stop-opacity="0.43529"/></radialGradient><radialGradient cx="312.41524" cy="210.21132" r="9.23614" gradientUnits="userSpaceOnUse" id="color-19"><stop offset="0" stop-color="#ffffff" stop-opacity="0.54902"/><stop offset="1" stop-color="#ffffff" stop-opacity="0.43529"/></radialGradient><radialGradient cx="294.01784" cy="261.36496" r="13.48937" gradientUnits="userSpaceOnUse" id="color-20"><stop offset="0" stop-color="#ffffff" stop-opacity="0.54902"/><stop offset="1" stop-color="#ffffff" stop-opacity="0.43529"/></radialGradient><radialGradient cx="294.01784" cy="261.36496" r="13.48937" gradientUnits="userSpaceOnUse" id="color-21"><stop offset="0" stop-color="#ffffff" stop-opacity="0.54902"/><stop offset="1" stop-color="#ffffff" stop-opacity="0.43529"/></radialGradient><radialGradient cx="294.01784" cy="261.36496" r="13.48937" gradientUnits="userSpaceOnUse" id="color-22"><stop offset="0" stop-color="#ffffff" stop-opacity="0.54902"/><stop offset="1" stop-color="#ffffff" stop-opacity="0.43529"/></radialGradient><radialGradient cx="279.95812" cy="241.17272" r="4.75806" gradientUnits="userSpaceOnUse" id="color-23"><stop offset="0" stop-color="#ffffff" stop-opacity="0.54902"/><stop offset="1" stop-color="#ffffff" stop-opacity="0.43529"/></radialGradient><radialGradient cx="311.66735" cy="237.43339" r="3.4028" gradientUnits="userSpaceOnUse" id="color-24"><stop offset="0" stop-color="#ffffff" stop-opacity="0.54902"/><stop offset="1" stop-color="#ffffff" stop-opacity="0.43529"/></radialGradient><radialGradient cx="325.12889" cy="239.82659" r="3.92627" gradientUnits="userSpaceOnUse" id="color-25"><stop offset="0" stop-color="#ffffff" stop-opacity="0.54902"/><stop offset="1" stop-color="#ffffff" stop-opacity="0.43529"/></radialGradient><radialGradient cx="332.37876" cy="234.00658" r="2.29435" gradientUnits="userSpaceOnUse" id="color-26"><stop offset="0" stop-color="#ffffff" stop-opacity="0.54902"/><stop offset="1" stop-color="#ffffff" stop-opacity="0.43529"/></radialGradient><radialGradient cx="299.10335" cy="225.91635" r="2.35579" gradientUnits="userSpaceOnUse" id="color-27"><stop offset="0" stop-color="#ffffff" stop-opacity="0.54902"/><stop offset="1" stop-color="#ffffff" stop-opacity="0.43529"/></radialGradient><radialGradient cx="300.15036" cy="215.5959" r="3.10362" gradientUnits="userSpaceOnUse" id="color-28"><stop offset="0" stop-color="#ffffff" stop-opacity="0.54902"/><stop offset="1" stop-color="#ffffff" stop-opacity="0.43529"/></radialGradient><radialGradient cx="323.33404" cy="217.98904" r="2.3601" gradientUnits="userSpaceOnUse" id="color-29"><stop offset="0" stop-color="#ffffff" stop-opacity="0.54902"/><stop offset="1" stop-color="#ffffff" stop-opacity="0.43529"/></radialGradient><radialGradient cx="284.59487" cy="230.86528" r="2.87926" gradientUnits="userSpaceOnUse" id="color-30"><stop offset="0" stop-color="#ffffff" stop-opacity="0.54902"/><stop offset="1" stop-color="#ffffff" stop-opacity="0.43529"/></radialGradient><radialGradient cx="300.88464" cy="247.45322" r="3.64076" gradientUnits="userSpaceOnUse" id="color-31"><stop offset="0" stop-color="#ffffff" stop-opacity="0.54902"/><stop offset="1" stop-color="#ffffff" stop-opacity="0.43529"/></radialGradient><radialGradient cx="288.33414" cy="248.20261" r="2.72973" gradientUnits="userSpaceOnUse" id="color-32"><stop offset="0" stop-color="#ffffff" stop-opacity="0.54902"/><stop offset="1" stop-color="#ffffff" stop-opacity="0.43529"/></radialGradient><radialGradient cx="311.06911" cy="257.4761" r="1.90702" gradientUnits="userSpaceOnUse" id="color-33"><stop offset="0" stop-color="#ffffff" stop-opacity="0.54902"/><stop offset="1" stop-color="#ffffff" stop-opacity="0.43529"/></radialGradient><radialGradient cx="316.75287" cy="264.50599" r="2.26995" gradientUnits="userSpaceOnUse" id="color-34"><stop offset="0" stop-color="#ffffff" stop-opacity="0.54902"/><stop offset="1" stop-color="#ffffff" stop-opacity="0.43529"/></radialGradient><radialGradient cx="324.82971" cy="262.26238" r="2.16945" gradientUnits="userSpaceOnUse" id="color-35"><stop offset="0" stop-color="#ffffff" stop-opacity="0.54902"/><stop offset="1" stop-color="#ffffff" stop-opacity="0.43529"/></radialGradient><radialGradient cx="338.29118" cy="244.31375" r="5.12287" gradientUnits="userSpaceOnUse" id="color-36"><stop offset="0" stop-color="#ffffff" stop-opacity="0.54902"/><stop offset="1" stop-color="#ffffff" stop-opacity="0.43529"/></radialGradient><radialGradient cx="310.39522" cy="238.23767" r="28.89112" gradientUnits="userSpaceOnUse" id="color-37"><stop offset="0" stop-color="#acb5f2" stop-opacity="0.30588"/><stop offset="1" stop-color="#94a1e0" stop-opacity="0.0902"/></radialGradient><radialGradient cx="309.90904" cy="237.75" r="29.84903" gradientUnits="userSpaceOnUse" id="color-38"><stop offset="0" stop-color="#8cabff" stop-opacity="0.23529"/><stop offset="1" stop-color="#8cabff" stop-opacity="0"/></radialGradient><linearGradient x1="279.78197" y1="237.66522" x2="338.44022" y2="237.66522" gradientUnits="userSpaceOnUse" id="color-39"><stop offset="0" stop-color="#060603"/><stop offset="1" stop-color="#060603" stop-opacity="0"/></linearGradient></defs><g transform="translate(-269.7193,-160.0288)"><g data-paper-data="{&quot;isPaintingLayer&quot;:true}" fill-rule="nonzero" stroke-linecap="butt" stroke-linejoin="miter" stroke-miterlimit="10" stroke-dasharray="" stroke-dashoffset="0" style="mix-blend-mode: normal"><text transform="translate(270.03135,187.4892) scale(0.6241,0.6241)" font-size="40" xml:space="preserve" fill="#ffffff" fill-rule="nonzero" stroke="none" stroke-width="1" stroke-linecap="butt" stroke-linejoin="miter" stroke-miterlimit="10" stroke-dasharray="" stroke-dashoffset="0" font-family="Malgun Gothic" font-weight="normal" text-anchor="start" style="mix-blend-mode: normal"><tspan x="0" dy="0">Primitive</tspan></text><text transform="translate(354.45435,215.62294) scale(0.45565,0.45565)" font-size="40" xml:space="preserve" fill="#d8d8d8" fill-rule="nonzero" stroke="none" stroke-width="1" stroke-linecap="butt" stroke-linejoin="miter" stroke-miterlimit="10" stroke-dasharray="" stroke-dashoffset="0" font-family="Malgun Gothic" font-weight="normal" text-anchor="start" style="mix-blend-mode: normal"><tspan x="0" dy="0">Common Resources:</tspan></text><text transform="translate(354.45435,256.62748) scale(0.45566,0.45566)" font-size="40" xml:space="preserve" fill="#d8d8d8" fill-rule="nonzero" stroke="none" stroke-width="1" stroke-linecap="butt" stroke-linejoin="miter" stroke-miterlimit="10" stroke-dasharray="" stroke-dashoffset="0" font-family="Malgun Gothic" font-weight="normal" text-anchor="start" style="mix-blend-mode: normal"><tspan x="0" dy="0">Rare Resources:</tspan></text><text transform="translate(271.38373,318.32071) scale(0.45566,0.45566)" font-size="40" xml:space="preserve" fill="#d8d8d8" fill-rule="nonzero" stroke="none" stroke-width="1" stroke-linecap="butt" stroke-linejoin="miter" stroke-miterlimit="10" stroke-dasharray="" stroke-dashoffset="0" font-family="Malgun Gothic" font-weight="normal" text-anchor="start" style="mix-blend-mode: normal"><tspan x="0" dy="0">Has water:</tspan></text><text transform="translate(271.38373,296.92705) scale(0.45566,0.45566)" font-size="40" xml:space="preserve" fill="#d8d8d8" fill-rule="nonzero" stroke="none" stroke-width="1" stroke-linecap="butt" stroke-linejoin="miter" stroke-miterlimit="10" stroke-dasharray="" stroke-dashoffset="0" font-family="Malgun Gothic" font-weight="normal" text-anchor="start" style="mix-blend-mode: normal"><tspan x="0" dy="0">Has fossil fuels:</tspan></text><text transform="translate(355.17562,233.72207) scale(0.37382,0.37382)" font-size="40" xml:space="preserve" fill="#9f9f9f" fill-rule="nonzero" stroke="none" stroke-width="1" stroke-linecap="butt" stroke-linejoin="miter" stroke-miterlimit="10" stroke-dasharray="" stroke-dashoffset="0" font-family="Malgun Gothic" font-weight="normal" text-anchor="start" style="mix-blend-mode: normal"><tspan x="0" dy="0">Stone, Copper</tspan></text><text transform="translate(355.17562,275.43973) scale(0.37383,0.37383)" font-size="40" xml:space="preserve" fill="#9f9f9f" fill-rule="nonzero" stroke="none" stroke-width="1" stroke-linecap="butt" stroke-linejoin="miter" stroke-miterlimit="10" stroke-dasharray="" stroke-dashoffset="0" font-family="Malgun Gothic" font-weight="normal" text-anchor="start" style="mix-blend-mode: normal"><tspan x="0" dy="0">Iron</tspan></text><text transform="translate(401.89328,297.19811) scale(0.37383,0.37383)" font-size="40" xml:space="preserve" fill="#9f9f9f" fill-rule="nonzero" stroke="none" stroke-width="1" stroke-linecap="butt" stroke-linejoin="miter" stroke-miterlimit="10" stroke-dasharray="" stroke-dashoffset="0" font-family="Malgun Gothic" font-weight="normal" text-anchor="start" style="mix-blend-mode: normal"><tspan x="0" dy="0">True</tspan></text><text transform="translate(361.25344,318.59993) scale(0.37383,0.37383)" font-size="40" xml:space="preserve" fill="#9f9f9f" fill-rule="nonzero" stroke="none" stroke-width="1" stroke-linecap="butt" stroke-linejoin="miter" stroke-miterlimit="10" stroke-dasharray="" stroke-dashoffset="0" font-family="Malgun Gothic" font-weight="normal" text-anchor="start" style="mix-blend-mode: normal"><tspan x="0" dy="0">True</tspan></text><path d="M271.73214,275.57656v-75.23442h76.66066v75.23442z" fill="#0a0a0a" stroke="url(#color-1)" stroke-width="3.5"/><text transform="translate(271.38373,340.67705) scale(0.45566,0.45566)" font-size="40" xml:space="preserve" fill="#d8d8d8" fill-rule="nonzero" stroke="none" stroke-width="1" stroke-linecap="butt" stroke-linejoin="miter" stroke-miterlimit="10" stroke-dasharray="" stroke-dashoffset="0" font-family="Malgun Gothic" font-weight="normal" text-anchor="start" style="mix-blend-mode: normal"><tspan x="0" dy="0">Wind data:</tspan></text><text transform="translate(364.50344,340.84993) scale(0.37383,0.37383)" font-size="40" xml:space="preserve" fill="#9f9f9f" fill-rule="nonzero" stroke="none" stroke-width="1" stroke-linecap="butt" stroke-linejoin="miter" stroke-miterlimit="10" stroke-dasharray="" stroke-dashoffset="0" font-family="Malgun Gothic" font-weight="normal" text-anchor="start" style="mix-blend-mode: normal"><tspan x="0" dy="0">FRQ: 3/10, STR: 1/5</tspan></text><g stroke="none" stroke-width="0.5"><path d="M312.38027,275.69917c-9.15562,0 -17.01691,-3.93999 -22.7073,-10.36582c0.00288,0 0.00587,0 0.00875,0c0.09231,0 0.1824,-0.00903 0.26962,-0.02623c0.05086,0.02524 0.10199,0.05019 0.15352,0.07504c1.23141,1.47502 3.93408,2.75148 6.17275,3.35083c0.24306,0.22513 0.56715,0.36409 0.9236,0.36824c0.18429,0.5476 0.70184,0.94209 1.31165,0.94209c0.7641,0 1.38355,-0.61944 1.38355,-1.38355c0,-0.43742 -0.203,-0.82746 -0.51994,-1.08093c-0.04007,-0.05113 -0.08318,-0.10366 -0.12944,-0.15767l-0.05993,-0.00332c-0.39099,-0.43012 -1.91482,-1.56008 -3.6251,-2.63681c-2.12977,-1.6053 -5.11241,-3.76666 -6.77488,-4.44709c-0.3698,-0.39525 -0.76311,-0.764 -1.11414,-1.09345c-0.07477,-0.07023 -0.14832,-0.13891 -0.22048,-0.20609c-0.02767,-0.06912 -0.06215,-0.14217 -0.10382,-0.21937c-0.0834,-0.25867 -0.2409,-0.48413 -0.4475,-0.65126c-0.03204,-0.03957 -0.06536,-0.07991 -0.1,-0.12092c-0.05268,-0.09186 -0.11556,-0.17715 -0.18711,-0.25424c-0.09613,-0.13188 -0.20532,-0.26703 -0.32547,-0.403c0.13099,0.07477 -0.22989,-0.33243 -0.78956,-0.92675c-0.16719,-0.20814 -0.32579,-0.40516 -0.47621,-0.59161c-0.30538,-0.4051 -0.58325,-0.77257 -0.83533,-1.10478c-0.03663,-0.31816 -0.18119,-0.6034 -0.39608,-0.81834v0l-0.00896,-0.00896c-0.08711,-0.11611 -0.17261,-0.23011 -0.25656,-0.34201c-0.50953,-1.10805 -1.1909,-2.37399 -1.9099,-3.37346c-0.18202,-0.64866 -0.34987,-1.30529 -0.50328,-1.96944c-0.29895,-1.68543 -0.46797,-2.50742 -0.54395,-2.74445c-0.416,-2.50377 -0.63205,-5.09786 -0.63205,-7.75581c0,-4.11333 0.51734,-8.0738 1.49262,-11.78296c2.14443,-2.51744 4.58948,-8.46694 4.44399,-9.81191c0.20062,-0.57893 0.3476,-1.08846 0.42752,-1.49511c5.72958,-9.03497 14.9479,-14.85918 26.07949,-14.85918c19.01263,0 34.42529,16.9905 34.42529,37.94917c0,20.95878 -15.41277,37.94917 -34.42529,37.94917z" data-paper-data="{&quot;index&quot;:null}" fill="url(#color-2)"/><path d="M284.36487,255.43897c0.19807,0.25635 0.39846,0.51269 0.59243,0.75746c-0.19624,-0.13979 -0.39862,-0.27063 -0.60366,-0.38845v-0.06137c-0.00254,-0.01019 -0.00521,-0.02053 -0.00792,-0.03104c-0.01555,-0.14522 -0.05352,-0.28374 -0.11046,-0.41197c0.0425,0.04439 0.08567,0.08948 0.12961,0.13531z" data-paper-data="{&quot;index&quot;:null}" fill="url(#color-3)"/><path d="M312.41829,273.81009c-5.31402,0 -10.20517,-1.39971 -14.46112,-3.88294c0.17007,0.07466 0.35806,0.11611 0.55568,0.11611c0.7641,0 1.38355,-0.61944 1.38355,-1.38354c0,-0.43742 -0.203,-0.82747 -0.51994,-1.08094c-0.04007,-0.05113 -0.08318,-0.10365 -0.12944,-0.15767l-0.05993,-0.00332c-0.39099,-0.43012 -1.91482,-1.56008 -3.6251,-2.63681c-2.12977,-1.6053 -5.11241,-3.76667 -6.77488,-4.44709c-0.3698,-0.39525 -0.76311,-0.76399 -1.11414,-1.09344c-0.07477,-0.07023 -0.14826,-0.13891 -0.22048,-0.20609c-0.02767,-0.06912 -0.06221,-0.14218 -0.10382,-0.21938c-0.0834,-0.25867 -0.2409,-0.48413 -0.4475,-0.65126c-0.03204,-0.03957 -0.06536,-0.07991 -0.1,-0.12092c-0.05263,-0.09186 -0.11556,-0.17714 -0.18711,-0.25423c-0.09613,-0.13188 -0.20532,-0.26703 -0.32547,-0.403c0.12313,0.07023 -0.18889,-0.28589 -0.69216,-0.82304c-2.79863,-5.45785 -4.36889,-11.87351 -4.36889,-18.73803c0,-19.8743 13.16213,-35.98559 31.19085,-35.98559c18.02882,0 32.64407,16.1114 32.64407,35.98559c0,19.87431 -14.61535,35.9856 -32.64407,35.9856z" data-paper-data="{&quot;index&quot;:null}" fill="url(#color-4)"/><path d="M299.01309,269.75874c-0.5885,-0.35242 -1.16461,-0.72569 -1.72765,-1.11895c0.11201,0.03265 0.22302,0.0637 0.33304,0.09314c0.24306,0.22513 0.56714,0.36409 0.9236,0.36824c0.08871,0.26365 0.25468,0.49182 0.47107,0.65757z" data-paper-data="{&quot;index&quot;:null}" fill="url(#color-5)"/><path d="M312.49433,271.87711c-4.56364,0 -8.82047,-1.09089 -12.60811,-3.0491c0.00669,-0.05518 0.01013,-0.11135 0.01013,-0.1683c0,-0.43742 -0.20299,-0.82747 -0.51993,-1.08094c-0.04007,-0.05113 -0.08318,-0.10365 -0.12945,-0.15767l-0.05993,-0.00332c-0.39099,-0.43012 -1.91482,-1.56008 -3.6251,-2.63681c-1.43795,-1.08381 -3.26466,-2.42114 -4.81135,-3.38503c-5.0677,-6.11808 -8.08985,-14.42354 -8.08985,-23.57141c0,-18.80676 12.7733,-34.05262 29.83365,-34.05262c17.0604,0 30.89056,15.24591 30.89056,34.05262c0,18.80676 -13.83016,34.05262 -30.89056,34.05262z" data-paper-data="{&quot;index&quot;:null}" fill="url(#color-6)"/><path d="M309.47765,266.65601c-15.96436,0 -28.90601,-12.9417 -28.90601,-28.90601c0,-15.96436 12.9417,-28.90601 28.90601,-28.90601c15.96436,0 28.90601,12.94171 28.90601,28.90601c0,15.96436 -12.94171,28.90601 -28.90601,28.90601z" data-paper-data="{&quot;index&quot;:null}" fill="url(#color-7)"/><path d="M312.35835,211.65657c-0.42264,0.42264 -0.84529,0.48009 -1.18902,0.40903c-0.65087,0.83533 -1.67275,0.32441 -1.67275,0.32441l0.14975,-0.02048c-1.81338,-0.23005 -5.99555,1.22776 -9.12883,1.78959c-0.82437,0.30122 -1.67066,0.61269 -2.54019,0.98801c-0.57738,0.44528 -1.07567,0.98403 -1.45687,1.64647c-0.49979,8.00341 23.63023,-1.16942 14.54551,18.13564c-5.05928,10.36478 -20.28106,12.23898 -21.93495,-2.35822c0.01599,-6.76768 -1.91992,-15.2204 4.36674,-19.69455c0.13636,-0.1901 0.31971,-0.34422 0.53305,-0.44533l1.55405,-0.77705l0.12203,0.24406l-0.00475,-0.03066c0.16868,-0.03044 0.33841,-0.05251 0.50892,-0.06679c4.21842,-2.71318 9.88552,-3.51603 14.84751,-2.97174l1.29981,0.87103c0,0 0.97833,0.97833 0,1.95666z" fill="url(#color-8)"/><path d="M317.68421,229.2519c-1.04429,-0.2611 -1.07297,-1.13152 -1.03428,-1.50508c-0.49326,-0.53007 -0.28114,-1.30778 -0.28114,-1.30778c1.02571,-3.7246 -2.30692,-3.4122 -1.77802,-6.75528c0.84391,-5.33438 9.44837,-2.07438 10.42012,1.58697c0.9676,3.64558 -4.03114,3.43019 -5.5956,6.62539l-0.05335,0.34921c0,0 -0.33554,1.3422 -1.6778,1.00667z" fill="url(#color-9)"/><path d="M317.80497,241.36271c-8.80652,0.19712 -1.08342,-10.52986 3.22443,-11.75114c9.50488,-2.69464 1.58288,9.67887 -0.57943,11.40509l-0.92803,0.56853c0,0 -1.00212,0.60128 -1.71697,-0.22248z" fill="url(#color-10)"/><path d="M298.7562,257.87406c1.74127,-3.34651 6.95689,-6.08681 12.76207,-5.50262c3.24989,1.94543 8.28072,1.34701 10.82533,3.37368c10.22659,8.14502 -9.96344,11.44781 -14.67606,11.48728c-5.2693,-0.57799 -8.6545,-2.20879 -13.20945,-4.73857l-1.21774,-0.60887c-0.46797,-0.22186 -0.79161,-0.69858 -0.79161,-1.25089c0,-0.72287 0.55436,-1.31619 1.26113,-1.37817l1.56567,-0.15656l0.03476,0.34722c0.9542,-0.28352 1.89938,-0.59985 2.63863,-1.06837c0.13852,-0.17488 0.27024,-0.27366 0.27024,-0.27366l0.0622,0.04106c0.15402,-0.11942 0.29541,-0.24787 0.42192,-0.38683zM298.24274,261.39977c0.02269,0.01184 0.04538,0.02362 0.06807,0.03542c-0.00576,-0.02009 -0.01146,-0.04017 -0.01693,-0.06032c-0.01704,0.00841 -0.03409,0.01666 -0.05114,0.0249z" fill="url(#color-11)"/><path d="M280.82112,237.7479c0,0 0.43753,-1.31253 1.75007,-0.875c0.9672,0.32242 0.98409,1.11995 0.92603,1.5173c0.06027,0.05058 0.11616,0.10625 0.16702,0.16635l0.94269,1.09981c0.73987,0.88978 1.31525,1.9363 1.6965,3.02891c0.60461,2.29519 2.30149,3.53473 2.72818,5.86527c0.54976,3.00289 -0.03044,4.18173 -1.10352,4.13441c0.07499,0.26597 0.06304,0.59249 -0.13044,0.97949c-0.02977,0.05949 -0.06093,0.11478 -0.09336,0.16597c-0.19198,0.53355 -0.70256,0.91502 -1.30219,0.91502c-0.62237,0 -1.14878,-0.41091 -1.32267,-0.97628l-0.02933,-0.0881l-0.64789,-0.4377c-0.8232,-1.49367 -2.3067,-3.77348 -2.14615,-5.47927c-0.10144,-0.19912 -0.20371,-0.39104 -0.30814,-0.5719l-0.0078,0.00288l-0.01588,-0.04361c-0.03099,-0.05301 -0.06221,-0.10498 -0.09364,-0.1559l0.00775,-0.08024l-0.03066,-0.0844l-0.03802,0.01268l-0.46404,-1.39212c-0.05257,-0.14622 -0.08124,-0.30388 -0.08124,-0.46819c0,-0.12081 0.01544,-0.23802 0.0446,-0.34971c-0.81291,-2.28019 -1.12443,-4.72773 -0.44788,-6.88562z" fill="url(#color-12)"/><path d="M338.36562,233.2919c0.02729,5.20007 -0.02014,10.02781 -1.71326,14.98675c-8.88096,13.32146 -7.51369,-13.75883 -1.50192,-17.58991c0,0 0.75901,-0.47433 1.43761,-0.04959c0.0285,-0.00177 0.05717,-0.0026 0.08612,-0.0026c0.67046,0 1.22953,0.47693 1.35648,1.11004l0.31025,1.39622l-0.04699,0.0104zM331.98267,248.68236c0.11251,0.25916 0.30101,0.34312 0.57904,0.20466c-0.21113,-0.02435 -0.40782,-0.09624 -0.57904,-0.20466z" fill="url(#color-13)"/><g><path d="M295.55501,243.01095c-0.12396,-0.03686 -0.21418,-0.09209 -0.27909,-0.15628c-1.01734,-0.46725 -8.67597,-7.73018 -8.59616,-7.98835c0.20028,-0.648 1.74155,-1.07246 2.29048,-1.35742c1.29384,-0.09823 3.31569,0.28733 4.50675,-0.26929c1.23058,-0.57516 1.63745,-2.9734 3.20876,-2.98226c2.78357,-0.01572 2.28661,5.2869 3.87802,5.76633c5.00261,1.56279 -3.18408,4.50437 -4.25378,6.55876l0.00786,0.01516c0,0 -0.17471,0.58811 -0.76283,0.4134z" fill="url(#color-14)"/><path d="M320.99066,258.66467c-0.00586,0.02955 -0.01312,0.05989 -0.02181,0.09104c-0.23813,0.85415 -1.09233,0.61606 -1.09233,0.61606c-3.75277,-1.04933 -2.05799,-3.81714 -2.91634,-4.48887c-4.91329,-3.84525 -10.66661,-1.91039 -6.11542,-10.26644c5.15325,-5.17339 4.17929,2.06175 5.7811,3.62848c0.86836,0.84933 2.58535,0.11102 3.63894,0.79974c1.38659,0.9065 3.46671,6.01138 6.066,2.09955c1.49893,-7.8878 7.45557,-0.66294 5.15712,4.32263c-1.91809,4.16053 -7.43676,1.68764 -10.49732,3.1978z" fill="url(#color-15)"/><path d="M311.45977,221.05945c1.92401,-0.16027 4.39839,-1.79667 6.11775,-1.28692c1.87514,0.55596 1.99706,3.59843 3.11314,5.03167l0.25191,0.07659c0,0 0.24007,0.14406 0.38103,0.40605c2.08821,1.26163 3.73218,2.5968 4.03883,3.62792c1.25885,4.23319 -3.16731,5.90629 -6.12588,3.65925c-0.92332,-0.86898 -1.76097,-0.85353 -2.96637,-0.49979l-0.67832,0.52701c0,0 -0.52868,0.39652 -1.03428,0.08601c-5.42836,1.72661 -17.59057,-11.1669 -3.74851,-11.31842c0.25789,-0.2766 0.65076,-0.3093 0.65076,-0.3093z" fill="url(#color-16)"/><path d="M338.22798,229.1457l0.36908,-0.07908l0.44257,2.06524c0.02413,0.10227 0.03686,0.20902 0.03686,0.31866c0,0.76411 -0.61944,1.38354 -1.38354,1.38354c-0.418,0 -0.79271,-0.18534 -1.0464,-0.47832l-1.04187,-1.19073c-2.81971,-3.22487 -9.22927,-5.53849 -6.84078,-9.99836c-0.89449,-1.17739 -1.56451,-2.37753 -1.74188,-3.6215c-0.25148,-0.24102 -0.49846,-0.45452 -0.73991,-0.63566l-0.04981,-0.14771l-0.05063,0.04427l-1.04258,-1.19156c-0.21578,-0.244 -0.34677,-0.56476 -0.34677,-0.91607c0,-0.76411 0.61944,-1.38354 1.38354,-1.38354c0.35784,0 0.68391,0.13581 0.92952,0.35867l1.49179,1.34259l-0.10266,0.11406c5.11938,3.8877 8.98356,7.99123 9.73344,14.01545z" fill="url(#color-17)"/><path d="M287.1065,217.47071c0.03985,-0.0539 0.08013,-0.10797 0.12086,-0.16226c0,0 0.17798,-0.2373 0.47898,-0.40975c0.13138,-0.25053 0.33731,-0.45585 0.58828,-0.58651l1.62057,-0.88397l0.08274,0.15163c0.42037,-0.37815 0.86681,-0.72232 1.35017,-1.0127l0.38047,-0.23775c0.50228,-0.36913 1.00335,-0.67356 1.47879,-0.85691c0.19541,-0.31722 0.45031,-0.63881 0.77921,-0.96438l0.19674,-0.02158l-0.03631,-0.07261l1.47082,-0.73543c0.19225,-0.10122 0.41124,-0.1585 0.64362,-0.1585c0.7641,0 1.38355,0.61944 1.38355,1.38354c0,0.41799 -0.18534,0.79272 -0.47832,1.0464l-1.19073,1.04186l-0.24262,-0.27731l-0.15535,0.0777c-0.19552,0.22115 -0.39646,0.43532 -0.60222,0.64401c-0.88286,1.7167 1.46821,4.55164 -0.89145,6.98561c-4.68174,4.82912 -9.01206,5.45608 -9.87644,2.90472l-0.09525,0.14289c-0.24633,0.38147 -0.67523,0.63394 -1.16312,0.63394c-0.45042,0 -0.85066,-0.21528 -1.1033,-0.54855c1.24098,-1.60159 2.54047,-4.21925 3.35388,-6.33884c0.5035,-0.51961 1.08719,-1.05902 1.76612,-1.66252z" fill="url(#color-18)"/><path d="M305.23582,212.10174c0,0 -1.38354,0 -1.38354,-1.22167c0,-0.0497 0.00233,-0.09745 0.0067,-0.14323c-0.00443,-0.03979 -0.0067,-0.08014 -0.0067,-0.12092c0,-0.60057 0.49066,-1.09986 1.13733,-1.20241l1.4706,-0.25971l0.07914,0.34948l0.27959,0.02469c0.15457,0.00094 0.30975,0.00232 0.46548,0.0042c1.10916,-0.13708 2.18854,-0.05092 3.3723,0.13093c3.06322,0.21268 6.17275,0.71867 8.90243,1.81648l0.10045,-0.32524l1.61631,0.38927c0.60223,0.13226 1.0485,0.61291 1.0485,1.18564c0,0.67472 -0.61944,1.22167 -1.38354,1.22167h-1.07402c-0.25291,0.2435 -0.61629,0.39624 -1.01995,0.39624h-1.64531c-0.71253,-0.01744 -1.44868,-0.04322 -2.19192,-0.0897c-0.35673,0.01223 -0.74197,0.03215 -1.15293,0.10083c-0.06132,0.04167 -0.12662,0.07886 -0.19547,0.11112l-1.09853,0.53887c-0.26686,1.07202 -1.53972,0.91147 -1.53972,0.91147l-1.76241,-0.42209c-0.11638,-0.0902 -0.22701,-0.19381 -0.32873,-0.30732c-0.5579,-0.16896 -1.0971,-0.37355 -1.51056,-0.52098l-0.07686,-0.46924l-0.22713,0.0912l-0.73549,-1.42898c-0.08733,-0.16016 -0.13631,-0.33974 -0.13631,-0.5294c0,-0.07145 0.00698,-0.14151 0.02031,-0.20964c-0.39049,-0.01683 -0.73749,-0.02441 -1.02991,-0.02147z" fill="url(#color-19)"/><path d="M301.69732,254.22932c0.67157,0.7216 0.81529,1.58233 0.87734,2.44416c0.01583,0.00841 0.03149,0.01716 0.04693,0.02629l1.31093,0.73543l-0.09994,0.22424c0.22203,0.10665 0.42762,0.228 0.63012,0.37267c0.78607,0.3916 1.51354,1.06611 2.06446,1.87526l0.04743,0.02369l0.92039,-0.3098l0.09718,0.36353c1.74099,-0.18716 3.39809,-0.11737 3.76578,1.86873c0.93561,5.05413 -4.0281,3.26654 -6.2172,2.1208c-0.6206,1.05808 -2.16485,1.73712 -4.95839,1.73513c-0.31108,0.55087 -0.94468,0.62193 -0.94468,0.62193c-0.34411,0.03719 -0.77656,0.00344 -1.26035,-0.08959c-0.63781,-0.4652 -1.43263,-1.00666 -2.27233,-1.53535c-1.26162,-0.95094 -2.82254,-2.09701 -4.23098,-3.01474c-0.06752,-0.83085 0.48657,-1.65737 2.01167,-2.36923c2.1731,-1.0143 -3.89335,-0.38956 -6.80471,-1.70995c-0.07648,-0.0994 -0.15994,-0.20017 -0.24942,-0.30145c0.13094,0.07471 -0.22989,-0.33243 -0.78956,-0.92675c-0.16719,-0.20814 -0.32579,-0.40516 -0.47621,-0.59161c-0.14954,-0.19834 -0.29242,-0.38761 -0.42901,-0.56825c-1.41669,-3.84447 3.75587,-3.55836 6.24613,-3.32005c1.55111,-0.13924 3.29327,0.25424 5.01734,0.98641c2.06225,-0.04798 4.30763,-0.15451 5.69698,1.33844z" fill="url(#color-20)"/><path d="" fill="url(#color-21)"/><path d="" fill="url(#color-22)"/><path d="M280.32232,243.71545c0,-0.23045 0.04892,-0.44771 0.13542,-0.63881c-0.12817,-0.11179 -0.22546,-0.24085 -0.29176,-0.3445c-0.10564,-0.94618 -0.3222,-2.00044 -0.43676,-2.60067c0.15783,-1.13545 0.18629,-2.37643 0.00499,-3.49704c0.10852,-0.19741 0.17023,-0.42425 0.17023,-0.66548c0,-0.10526 -0.01173,-0.20775 -0.03404,-0.30626c1.12,-0.40842 1.49433,0.88458 1.49433,0.88458c0.24975,0.8786 0.39647,1.71581 0.50223,2.57001c0.03254,-0.03315 0.06752,-0.06596 0.10498,-0.09834c0.96118,-0.83013 1.68205,0.27671 1.68205,0.27671l0.44733,0.69514c0.2165,0.39884 0.43294,0.79775 0.64943,1.1966c0,0 0.63682,1.17325 -0.38208,1.90653c-0.12341,0.08883 -0.24124,0.14964 -0.35297,0.188c-0.07067,0.68646 -0.57788,1.2189 -1.19306,1.2189c-0.09879,0 -0.1948,-0.01372 -0.28667,-0.03963c-0.21357,0.38363 -0.58712,0.63787 -1.01226,0.63787c-0.6636,0 -1.20152,-0.61944 -1.20152,-1.38354z" fill="url(#color-23)"/><path d="M310.76999,239.86394c-0.40654,0 -0.77213,-0.17532 -1.02532,-0.45452c-0.44334,-0.04062 -0.82608,-0.29038 -1.04889,-0.64971c-0.39348,-0.24394 -0.65552,-0.67971 -0.65552,-1.17673c0,-0.76411 0.61944,-1.38354 1.38354,-1.38354c0.49703,0 0.93278,0.26205 1.17673,0.65553c0.11041,0.0684 0.21046,0.15197 0.2973,0.24776c0.30427,0.02784 0.58009,0.15423 0.79515,0.34699c0.06298,-0.03863 0.12928,-0.07238 0.1984,-0.10066c-0.34008,-0.25208 -0.56055,-0.65641 -0.56055,-1.1122c0,-0.76411 0.61944,-1.38354 1.38354,-1.38354c0.7641,0 1.38355,0.61944 1.38355,1.38354c0,0.57871 -0.35535,1.07446 -0.85974,1.28093c0.12358,0.09159 0.23138,0.20322 0.31849,0.33017c0.72005,0.04853 1.28907,0.64799 1.28907,1.38038c0,0.76411 -0.61944,1.38354 -1.38354,1.38354c-0.47384,0 -0.89211,-0.23825 -1.14143,-0.60145c-0.3175,-0.02136 -0.60561,-0.14987 -0.82858,-0.34971c-0.21024,0.12894 -0.45762,0.20327 -0.72232,0.20327z" fill="url(#color-24)"/><path d="M322.54631,242.55626c-0.73909,0 -1.34021,-0.60179 -1.35731,-1.35078c-0.4362,-0.23016 -0.73428,-0.69431 -0.73428,-1.22941c0,-0.76411 0.60782,-1.38354 1.35764,-1.38354c0.259,0 0.50107,0.07394 0.70699,0.20216c0.23227,-0.25949 0.50294,-0.38208 0.50294,-0.38208c1.15825,-0.4791 2.49392,-0.58685 3.72981,-0.39608l0.19746,-0.0223c0,0 1.35764,0 1.35764,1.38354c0,0.79343 -0.4465,1.13185 -0.82736,1.27618c0.23946,0.24943 0.38706,0.59083 0.38706,0.96737c0,0.76411 -0.60782,1.38354 -1.35764,1.38354c-0.55934,0 -1.03965,-0.34462 -1.24762,-0.83688c-0.20797,0.49227 -0.68828,0.83688 -1.24762,0.83688c-0.42635,0 -0.80683,-0.20028 -1.05575,-0.51357c-0.12994,0.04211 -0.26841,0.06486 -0.41202,0.06486z" fill="url(#color-25)"/><path d="M333.3707,231.71228c0.67307,0 1.21868,0.61944 1.21868,1.38354c0,0.62038 -0.35966,1.14535 -0.85514,1.32095c0.13459,0.3595 0.17128,0.85541 -0.23687,1.38498c-0.80251,1.0412 -1.71957,0.13017 -1.71957,0.13017c-0.35131,-0.34898 -0.70262,-0.69797 -1.05399,-1.04695l-0.41926,-0.72165c0,0 -0.54501,-1.23744 0.54501,-1.85622c0.67494,-0.38313 1.14087,-0.05452 1.39787,0.25125c0.18478,-0.49713 0.61811,-0.846 1.12327,-0.846z" fill="url(#color-26)"/><path d="M299.65943,224.83198c0.64805,0 1.17878,0.54451 1.22444,1.23462c0.46686,0.18844 0.79952,0.67617 0.79952,1.24812c0,0.73527 -0.5496,1.33136 -1.22764,1.33136c-0.53305,0 -0.98668,-0.36835 -1.15636,-0.88314c-0.20094,0.43814 -0.61795,0.73925 -1.09986,0.73925c-0.67804,0 -1.22764,-0.59608 -1.22764,-1.33136c0,-0.31517 0.10101,-0.60483 0.2698,-0.83284c0.05296,-0.68231 0.58042,-1.21812 1.22327,-1.21812c0.12773,0 0.25087,0.02115 0.36664,0.06038c0.21832,-0.21633 0.50887,-0.34827 0.82785,-0.34827z" fill="url(#color-27)"/><path d="M302.00885,215.39988c0.72902,0 1.3199,0.4631 1.3199,1.03439c0,0.56504 -0.57816,1.02432 -1.29622,1.03428c-0.087,0.50527 -0.63941,0.89476 -1.308,0.89476c-0.45939,0 -0.86394,-0.1839 -1.10036,-0.46288c-0.21594,0.34063 -0.66449,0.57473 -1.18276,0.57473c-0.72902,0 -1.31995,-0.4631 -1.31995,-1.03439c0,-0.504 0.46,-0.92387 1.06887,-1.01574c0.12264,-0.2347 0.31661,-0.38667 0.31661,-0.38667l0.01256,0.08766c0.19027,-0.33548 0.38052,-0.67096 0.57079,-1.00644c0,0 0.53605,-0.94529 1.74222,-0.52514c0.61059,0.21268 0.77473,0.55989 0.78795,0.85093c0.12275,-0.02961 0.25319,-0.04549 0.38839,-0.04549z" fill="url(#color-28)"/><path d="M323.7827,216.90467c0.7641,0 1.38355,0.54545 1.38355,1.21835c0,0.34478 -0.1626,0.65613 -0.42403,0.87778c-0.00128,0.16038 -0.04339,0.33985 -0.14394,0.53908c-0.00548,0.01079 -0.01096,0.02137 -0.01655,0.03188c0.087,0.15949 0.13581,0.33825 0.13581,0.52696c0,0.6729 -0.61944,1.21835 -1.38355,1.21835c-0.75453,0 -1.36804,-0.5319 -1.38326,-1.19312c-0.06049,-0.10459 -0.10431,-0.21794 -0.12839,-0.33731c-0.1321,-0.05169 -0.26426,-0.10343 -0.39642,-0.15512l-0.82514,-0.8319c0,0 -0.61872,-1.08973 0.61877,-1.63457c0.70865,-0.31202 1.21442,-0.08799 1.51725,0.16049c0.25369,-0.25772 0.62818,-0.42082 1.0459,-0.42082z" fill="url(#color-29)"/><path d="M283.64499,232.98365c-0.2041,0 -0.39526,-0.07012 -0.55901,-0.19237c-0.087,0.02795 -0.1782,0.04278 -0.27212,0.04278c-0.60654,0 -1.09825,-0.61944 -1.09825,-1.38354c0,-0.74988 0.4735,-1.36041 1.06444,-1.38293c0.0041,-0.07432 0.0124,-0.15247 0.02541,-0.23454c0.21539,-1.3567 1.29234,-1.08531 1.29234,-1.08531l1.16738,0.29414c0.08002,0.01815 0.15711,0.04715 0.23011,0.08584c0.20022,-0.33775 0.5201,-0.55641 0.88049,-0.55641c0.60654,0 1.09832,0.61944 1.09832,1.38354c0,0.41954 -0.14826,0.79543 -0.38236,1.04917c-0.10919,0.61922 -0.54772,1.0822 -1.07219,1.0822c-0.03343,0 -0.06653,-0.00187 -0.09918,-0.00553c-0.04084,0.1813 -0.12042,0.37273 -0.25424,0.56941c-0.63421,0.93212 -1.36223,0.32817 -1.51824,0.1803c-0.15069,0.09801 -0.3217,0.1533 -0.503,0.1533z" fill="url(#color-30)"/><path d="M300.00077,245.56264c0.1834,0 0.35845,0.03281 0.51861,0.09248c0.20925,-0.45845 0.70184,-0.78043 1.27623,-0.78043c0.7641,0 1.38354,0.56985 1.38354,1.2728c0,0.19956 -0.04991,0.38833 -0.13885,0.55646c0.10858,0.02579 0.21196,0.06348 0.30847,0.11135c0.66593,0.09193 1.17656,0.62043 1.17656,1.25863c0,0.45823 -0.2632,0.85984 -0.65807,1.08397c-0.28933,0.97833 -1.46141,0.87053 -1.46141,0.87053c-0.99714,-0.0917 -1.99429,-0.18351 -2.99144,-0.27521l-1.37851,-0.54085c0,0 -1.23749,-0.56919 -0.61877,-1.70762c0.32032,-0.58934 0.80638,-0.72105 1.20086,-0.71098c0.02402,-0.68364 0.63389,-1.23102 1.38283,-1.23102z" fill="url(#color-31)"/><path d="M290.12904,250.03486c-0.40903,0 -0.7765,-0.17742 -1.0298,-0.45955c-0.18263,-0.01932 -0.30515,-0.0601 -0.30515,-0.0601l-1.31586,-0.43864c-0.56531,-0.17389 -0.97623,-0.70029 -0.97623,-1.32267c0,-0.68009 0.49066,-1.24558 1.13733,-1.36168l1.22404,-0.24478c0.21483,-0.48534 0.70074,-0.82404 1.26572,-0.82404c0.7641,0 1.38354,0.61944 1.38354,1.38354c0,0.05667 -0.00343,0.11256 -0.01002,0.16746c0.28163,0.25324 0.45873,0.62049 0.45873,1.02908c0,0.41954 -0.18672,0.79543 -0.48164,1.04917c-0.13752,0.61922 -0.69,1.0822 -1.35062,1.0822z" fill="url(#color-32)"/><path d="M311.36823,255.49426c0.7641,0 1.38354,0.54036 1.38354,1.20695c0,0.11301 -0.01782,0.22242 -0.05108,0.32619c0.03332,0.10377 0.05108,0.21317 0.05108,0.32618c0,0.66654 -0.61944,1.20695 -1.38354,1.20695c-0.40383,0 -0.76726,-0.15092 -1.02017,-0.39166c-0.00891,0.00011 -0.01788,0.00022 -0.02684,0.00022c-0.7641,0 -1.38354,-0.54036 -1.38354,-1.20695c0,-0.66654 0.61944,-1.20694 1.38354,-1.20694c0.05899,0 0.1171,0.00321 0.17422,0.00946c0.23808,-0.16907 0.54191,-0.27045 0.87285,-0.27045z" fill="url(#color-33)"/><path d="M318.50792,263.68295c0.10144,0.57511 -0.4263,1.14895 -1.17878,1.28171c-0.33825,0.05966 -0.66432,0.02004 -0.93007,-0.09386c-0.22458,0.20062 -0.95088,0.73892 -1.85478,0.27068c-1.09333,-0.56637 -0.25983,-1.4727 -0.25983,-1.4727l0.31212,-0.30532c0.17361,-0.13083 0.34728,-0.26171 0.52083,-0.39259c-0.07648,-0.5641 0.44544,-1.11907 1.18381,-1.24934c0.74124,-0.13077 1.42405,0.21522 1.54127,0.77534c0.21306,0.20626 0.28274,0.41351 0.2745,0.6035c0.20615,0.14427 0.34887,0.34489 0.39088,0.58247z" fill="url(#color-34)"/><path d="M322.98285,261.18798c-0.18877,-0.62918 0.25153,-1.31718 0.98342,-1.53678c0.7319,-0.21954 1.47823,0.11251 1.66694,0.74163c0.07803,0.26011 0.04859,0.53023 -0.06453,0.77318c0.12247,0.11926 0.22485,0.28175 0.29076,0.50134c0.34179,1.13921 -0.98342,1.53679 -0.98342,1.53679c-0.47755,0.14322 -1.09836,0.3295 -1.57591,0.47278c0,0 -1.32521,0.39758 -1.66695,-0.74163c-0.34179,-1.13921 0.98342,-1.53673 0.98342,-1.53673c0.13277,-0.03979 0.26548,-0.07969 0.39824,-0.11948c-0.01196,-0.02961 -0.02263,-0.06 -0.03199,-0.09109z" fill="url(#color-35)"/><path d="M337.84253,239.63959c1.38354,0 1.38354,1.38354 1.38354,1.38354l-0.00687,0.28722c-0.16409,1.55997 -0.26658,4.01593 -1.26306,5.18026c-0.02529,0.24185 -0.05755,0.49382 -0.09729,0.7563l-0.02026,0.0275l0.0145,0.00293l-0.29414,1.4706c-0.11611,0.64667 -0.68159,1.13733 -1.36168,1.13733c-0.7641,0 -1.38354,-0.61944 -1.38354,-1.38354c0,-0.09397 0.00935,-0.18568 0.02723,-0.27433l0.29425,-1.61841l0.02059,0.00377c0.03708,-0.28346 0.06221,-0.604 0.09043,-0.93174c-0.05213,-0.02617 -0.08136,-0.04444 -0.08136,-0.04444c-2.79138,-2.14676 -0.53161,-4.73072 1.24662,-4.08881c0.0197,-0.16619 0.03792,-0.33692 0.05441,-0.51269l-0.00687,-0.01189c0,0 0,-1.38354 1.38354,-1.38354z" fill="url(#color-36)"/></g><path d="M310.39522,268.78528c-4.93969,0 -9.58977,-1.31077 -13.65628,-3.62128c-1.50673,-1.17429 -3.44386,-2.63681 -4.99968,-3.60042c-6.26058,-5.60345 -10.23516,-13.97388 -10.23516,-23.32591c0,-16.87102 12.93507,-30.54761 28.89112,-30.54761c15.95617,0 28.89112,13.6767 28.89112,30.54761c0,16.87102 -12.935,30.54761 -28.89112,30.54761z" data-paper-data="{&quot;index&quot;:null}" fill="url(#color-37)"/><path d="M309.90904,268.60885c-3.70457,0 -7.25159,-0.69769 -10.52466,-1.97298c-0.61888,-0.5335 -1.85555,-1.43269 -3.21269,-2.29707c-2.07642,-1.58338 -4.9844,-3.71526 -6.60525,-4.38644c-0.36055,-0.38988 -0.74401,-0.75358 -1.08625,-1.07849c-0.07288,-0.06929 -0.14455,-0.13692 -0.21495,-0.20327c-0.027,-0.06818 -0.0606,-0.14029 -0.10122,-0.21639c-0.0813,-0.25518 -0.23487,-0.47754 -0.43631,-0.64235c-0.03121,-0.03902 -0.0637,-0.07886 -0.09751,-0.11931c-0.05136,-0.09065 -0.11268,-0.17472 -0.18241,-0.25076c-0.0937,-0.13011 -0.20023,-0.26342 -0.31733,-0.39752c0.12773,0.07377 -0.22413,-0.32789 -0.76975,-0.91407c-0.16298,-0.20526 -0.31766,-0.39963 -0.46431,-0.58358c-0.29774,-0.39956 -0.56869,-0.76205 -0.81441,-1.08973c-0.03569,-0.31378 -0.17665,-0.59515 -0.38617,-0.80716v0l-0.00874,-0.00886c-0.08495,-0.1145 -0.1683,-0.22696 -0.25015,-0.33736c-0.54019,-1.1884 -1.2785,-2.56094 -2.04659,-3.57956c-0.00913,-0.02241 -0.01826,-0.04482 -0.02733,-0.06729c-0.90877,-5.37932 -0.97435,-5.0299 -0.74612,-3.15525c-0.20427,-0.69736 -0.45181,-1.38747 -0.66349,-2.08284c0.36836,-0.73001 -0.15612,-3.25237 -0.35745,-4.31958c0.15385,-1.12 0.18152,-2.34411 0.00487,-3.44945c0.10582,-0.19475 0.16597,-0.41844 0.16597,-0.65641c0,-0.40577 -0.17499,-0.77014 -0.45286,-1.02006c0.04543,-0.16558 0.02452,-0.3538 -0.08091,-0.56493c0.29575,-2.83942 0.9641,-5.5635 1.95334,-8.11879c1.38083,-1.50242 2.93389,-4.63072 3.82041,-7.02585c5.44441,-7.51174 14.12435,-12.3724 23.90234,-12.3724c16.48523,0 29.84904,13.81605 29.84904,30.85885c0,17.04297 -13.36391,30.8588 -29.84904,30.8588z" data-paper-data="{&quot;index&quot;:null}" fill="url(#color-38)"/><path d="M300.51745,265.7923c-0.64312,-0.19469 -0.50865,0.90029 -2.46238,0.5528c-0.65193,-0.47854 -1.47884,-1.04352 -2.3544,-1.59467c-1.29699,-0.97739 -2.90931,-2.16032 -4.3492,-3.09161c-0.02662,-0.27616 -0.08644,-0.52143 -0.46365,-0.7936c-0.82454,-0.66942 -1.71648,-1.38398 -2.46658,-2.1394c-0.1321,-0.13304 -0.46194,-0.47583 -0.96616,-0.75774c-0.27843,-0.15567 -0.53632,-0.22695 -0.77362,-0.28882c-0.08545,-0.1135 -0.18025,-0.22917 -0.28296,-0.34539c0.13133,0.07488 -0.23056,-0.33338 -0.79194,-0.92941c-0.16769,-0.20869 -0.3268,-0.40631 -0.47771,-0.59331c-0.18556,-0.2461 -0.36105,-0.47832 -0.52669,-0.69725c-0.2461,-0.67024 -0.47217,-1.37447 -0.72841,-1.79335c-1.30811,-2.13846 -2.29956,-4.45766 -2.98801,-6.88793c-0.18556,-0.94889 -0.26591,-1.2121 -0.27366,-1.0365c-0.03846,-0.15695 -0.07571,-0.31428 -0.11174,-0.472c-0.06968,-0.30516 -0.23653,-0.61175 -0.29469,-0.91972c-0.05628,-0.29769 0.01063,-0.62226 -0.05545,-0.91104c-0.08146,-1.03268 -0.34411,-2.30437 -0.47472,-2.98834c0.15834,-1.13882 0.18678,-2.38334 0.00498,-3.50723c0.10886,-0.19796 0.17078,-0.42541 0.17078,-0.66736c0,-0.13493 -0.01926,-0.26537 -0.05517,-0.38867c0.03902,-0.05424 0.06525,-0.12894 0.07344,-0.23442c0.26608,-3.42405 1.03012,-6.3219 2.39369,-9.31013c0.08157,-0.1455 -0.25191,-0.18982 -0.52785,-0.42945c1.30723,-1.65261 2.68977,-4.46148 3.5116,-6.65904c0.51175,-0.51545 1.06704,-1.02221 1.67862,-1.55875c0.28158,-0.24705 1.03893,-1.03013 1.19189,-1.17042c0.82265,-0.75403 1.30623,-0.56864 1.91095,-0.98397c0.32812,-0.22535 0.55834,-0.34434 0.89587,-0.56211c0.53333,-0.34411 1.69528,-1.09095 2.25086,-1.41658c0.46404,-0.27195 -0.10216,-0.39802 1.51565,-1.27535c1.86491,-1.01131 1.51249,-0.261 2.20564,-0.57362c1.46738,-0.66183 2.60875,-1.37928 4.1141,-1.80668c2.4824,-0.70483 5.37777,-0.91004 8.1008,-0.91004c3.87325,0 7.58995,0.79039 11.1254,2.28838c0.3792,0.16065 1.17684,0.40228 1.55189,0.57295c0.16442,0.07482 0.52857,0.12264 0.68192,0.20177c1.00279,0.51739 1.51188,1.2302 2.546,1.78527c0.2921,0.15679 1.33655,-0.43958 1.61913,-0.27538c0.78934,0.45862 1.05077,0.94866 1.79008,1.46871c3.65686,2.57251 6.65783,5.87984 8.56927,9.75182c0.61462,1.24502 0.9371,3.09398 1.27303,4.52396c0.19314,0.8221 0.42154,-1.28475 0.89272,1.65937c0.42741,2.67051 -1.23894,1.55936 -1.16378,1.98278c0.29149,1.64144 0.44351,3.33035 0.44351,5.05446c0,0.32519 -0.54705,1.30701 -0.43548,1.65633c0.16929,0.53007 1.0335,0.42524 1.13533,0.85027c0.23227,0.96926 0.11738,1.63806 0.05921,2.67306c-0.09193,1.63684 -1.13129,3.62018 -1.39256,5.25464c-0.46936,2.93609 -1.92185,1.3231 -2.16989,1.84631c-1.709,3.6049 -4.0514,6.56397 -6.93963,9.29254c-0.68352,0.64567 -1.26843,1.51315 -2.0042,2.09579c-0.79039,0.62586 -0.6128,1.21425 -1.48514,1.76258c-0.66892,0.42043 -1.59268,0.80151 -2.14521,0.7936c-0.46492,-0.00664 -0.59337,-0.38694 -0.81773,-0.2756c-3.95117,1.96092 -8.5799,3.56921 -13.30154,3.56921c0,0 -0.97218,0.09994 -2.30509,-0.03807c-1.89706,-0.19641 -4.52485,-0.87041 -6.12107,-1.3536z" data-paper-data="{&quot;index&quot;:null}" fill="url(#color-39)"/></g></g></g></svg>