<svg version="1.1" xmlns="http://www.w3.org/2000/svg" xmlns:xlink="http://www.w3.org/1999/xlink" width="17.21391" height="17.36326" viewBox="0,0,17.21391,17.36326"><defs><radialGradient cx="240.00954" cy="180.01715" r="6.50012" gradientUnits="userSpaceOnUse" id="color-1"><stop offset="0" stop-color="#dcb094"/><stop offset="1" stop-color="#50402f"/></radialGradient><radialGradient cx="240.03288" cy="179.9785" r="6.56947" gradientUnits="userSpaceOnUse" id="color-2"><stop offset="0" stop-color="#cca288"/><stop offset="1" stop-color="#3d3124"/></radialGradient><radialGradient cx="239.99357" cy="179.95509" r="6.50012" gradientUnits="userSpaceOnUse" id="color-3"><stop offset="0" stop-color="#ffcbab"/><stop offset="1" stop-color="#544331"/></radialGradient><radialGradient cx="240.03344" cy="179.93231" r="6.56946" gradientUnits="userSpaceOnUse" id="color-4"><stop offset="0" stop-color="#bc957e"/><stop offset="1" stop-color="#33291e"/></radialGradient><radialGradient cx="239.99999" cy="180.00001" r="6.49146" gradientUnits="userSpaceOnUse" id="color-5"><stop offset="0" stop-color="#734545" stop-opacity="0.30998"/><stop offset="1" stop-color="#734545" stop-opacity="0"/></radialGradient><radialGradient cx="239.99999" cy="180.00001" r="5.27013" gradientUnits="userSpaceOnUse" id="color-6"><stop offset="0" stop-color="#eb7373" stop-opacity="0.62996"/><stop offset="1" stop-color="#eb7373" stop-opacity="0"/></radialGradient><radialGradient cx="239.99999" cy="180.00001" r="4.46159" gradientUnits="userSpaceOnUse" id="color-7"><stop offset="0" stop-color="#ff4f4f"/><stop offset="1" stop-color="#ff4f4f" stop-opacity="0"/></radialGradient><radialGradient cx="239.99999" cy="180.00001" r="3.66879" gradientUnits="userSpaceOnUse" id="color-8"><stop offset="0" stop-color="#ea3939"/><stop offset="1" stop-color="#bd4b4b"/></radialGradient><radialGradient cx="240.00569" cy="180.02503" r="6.62699" gradientUnits="userSpaceOnUse" id="color-9"><stop offset="0" stop-color="#080504"/><stop offset="1" stop-color="#21150d"/></radialGradient><radialGradient cx="240.01409" cy="180.0071" r="6.55702" gradientUnits="userSpaceOnUse" id="color-10"><stop offset="0" stop-color="#110b08"/><stop offset="1" stop-color="#26180e"/></radialGradient><radialGradient cx="239.94021" cy="180.00442" r="6.62698" gradientUnits="userSpaceOnUse" id="color-11"><stop offset="0" stop-color="#170e0b"/><stop offset="1" stop-color="#332014"/></radialGradient><radialGradient cx="239.95711" cy="179.99724" r="6.55703" gradientUnits="userSpaceOnUse" id="color-12"><stop offset="0" stop-color="#231511"/><stop offset="1" stop-color="#312014"/></radialGradient><radialGradient cx="240.00001" cy="180" r="8.60373" gradientUnits="userSpaceOnUse" id="color-13"><stop offset="0" stop-color="#ffffff" stop-opacity="0.26479"/><stop offset="1" stop-color="#ffffff" stop-opacity="0"/></radialGradient><linearGradient x1="248.49694" y1="181.35144" x2="231.50308" y2="178.64858" gradientUnits="userSpaceOnUse" id="color-14"><stop offset="0" stop-color="#080808"/><stop offset="1" stop-color="#414141"/></linearGradient></defs><g transform="translate(-231.39304,-171.31837)"><g data-paper-data="{&quot;isPaintingLayer&quot;:true}" fill-rule="nonzero" stroke-linecap="butt" stroke-linejoin="miter" stroke-miterlimit="10" stroke-dasharray="" stroke-dashoffset="0" style="mix-blend-mode: normal"><path d="M242.88287,186.67801c0,0 -1.70959,-1.25506 -4.39478,-6.63815c-2.30905,-4.62902 -1.995,-6.18213 -1.995,-6.18213l0.49927,-0.50903c0,0 0.86669,3.96077 2.14541,6.36365c1.59847,3.00374 4.39137,6.50837 4.39137,6.50837z" data-paper-data="{&quot;index&quot;:null}" fill="url(#color-1)" stroke="#676767" stroke-width="0"/><path d="M247.00072,178.59908c0,0 -4.47719,0.19355 -7.79248,0.95937c-2.65211,0.61263 -6.20901,2.55871 -6.20901,2.55871l0.05628,-0.7108c0,0 0.96552,-1.25641 5.97334,-2.55303c5.8236,-1.50785 7.89261,-1.04198 7.89261,-1.04198z" data-paper-data="{&quot;index&quot;:null}" fill="url(#color-2)" stroke="#676767" stroke-width="0"/><path d="M233.25408,177.62031c0,0 3.95347,2.11016 7.19751,3.1367c2.5951,0.82119 6.6474,0.95435 6.6474,0.95435l-0.40992,0.58339c0,0 -1.47028,0.59081 -6.4416,-0.83939c-5.78115,-1.66318 -7.32574,-3.1165 -7.32574,-3.1165z" data-paper-data="{&quot;index&quot;:null}" fill="url(#color-3)" stroke="#676767" stroke-width="0"/><path d="M243.492,173.59294c0,0 0.0569,2.12006 -2.54882,7.54206c-2.2407,4.66249 -3.66013,5.36677 -3.66013,5.36677l-0.70826,-0.08226c0,0 2.59728,-3.11336 3.71128,-5.59689c1.39257,-3.10456 2.44839,-7.45978 2.44839,-7.45978z" data-paper-data="{&quot;index&quot;:null}" fill="url(#color-4)" stroke="#676767" stroke-width="0"/><path d="M233.50854,180.00001c0,-3.58512 2.90632,-6.49146 6.49146,-6.49146c3.58512,0 6.49146,2.90632 6.49146,6.49146c0,3.58512 -2.90632,6.49146 -6.49146,6.49146c-3.58512,0 -6.49146,-2.90632 -6.49146,-6.49146z" fill="url(#color-5)" stroke="none" stroke-width="0.5"/><path d="M234.72987,180.00001c0,-2.9106 2.35951,-5.27013 5.27013,-5.27013c2.9106,0 5.27013,2.35951 5.27013,5.27013c0,2.9106 -2.35951,5.27013 -5.27013,5.27013c-2.9106,0 -5.27013,-2.35951 -5.27013,-5.27013z" fill="url(#color-6)" stroke="none" stroke-width="0.5"/><path d="M235.5384,180.00001c0,-2.46406 1.99752,-4.46159 4.46159,-4.46159c2.46406,0 4.46159,1.99752 4.46159,4.46159c0,2.46406 -1.99752,4.46159 -4.46159,4.46159c-2.46406,0 -4.46159,-1.99752 -4.46159,-4.46159z" fill="url(#color-7)" stroke="none" stroke-width="0.5"/><path d="M236.33121,180.00001c0,-2.02621 1.64257,-3.66879 3.66879,-3.66879c2.02621,0 3.66879,1.64257 3.66879,3.66879c0,2.02621 -1.64257,3.66879 -3.66879,3.66879c-2.02621,0 -3.66879,-1.64257 -3.66879,-3.66879z" fill="url(#color-8)" stroke="none" stroke-width="0.5"/><path d="M236.52161,186.41991c0,0 -0.29133,-2.19711 2.3372,-7.66659c2.26032,-4.70331 3.92611,-5.35528 3.92611,-5.35528l0.71446,0.08298c0,0 -2.29837,3.34533 -3.42213,5.85061c-1.40476,3.13175 -2.79147,7.32039 -2.79147,7.32039z" fill="url(#color-9)" stroke="#676767" stroke-width="0"/><path d="M246.79079,182.43967c0,0 -4.03158,-1.79281 -7.29348,-2.86107c-2.6094,-0.85457 -6.63061,-1.40553 -6.63061,-1.40553l0.41939,-0.58433c0,0 1.6032,-0.7935 6.60334,0.6994c5.81466,1.73611 7.24388,3.43007 7.24388,3.43007z" data-paper-data="{&quot;index&quot;:null}" fill="url(#color-10)" stroke="#676767" stroke-width="0"/><path d="M232.91605,181.41015c0,0 4.37627,-0.56218 7.71849,-1.3437c2.67365,-0.62518 6.39599,-2.24315 6.39599,-2.24315l-0.05483,0.71717c0,0 -0.95778,1.51081 -6.00591,2.83237c-5.87047,1.53684 -7.97166,0.83171 -7.97166,0.83171z" data-paper-data="{&quot;index&quot;:null}" fill="url(#color-11)" stroke="#676767" stroke-width="0"/><path d="M236.99026,173.30329c0,0 1.92392,1.10031 4.6801,6.50659c2.37008,4.64896 1.87869,6.36898 1.87869,6.36898l-0.49913,0.51788c0,0 -1.26705,-3.85593 -2.57816,-6.26845c-1.63896,-3.01579 -4.12938,-6.65799 -4.12938,-6.65799z" data-paper-data="{&quot;index&quot;:null}" fill="url(#color-12)" stroke="#676767" stroke-width="0"/><path d="M241.36378,171.42548c4.69273,0.74638 7.88635,5.19038 7.13315,9.92595c-0.75319,4.73558 -5.16797,7.96946 -9.8607,7.22309c-4.69273,-0.74638 -7.88635,-5.19038 -7.13315,-9.92595c0.75319,-4.73558 5.16797,-7.96947 9.8607,-7.22309z" fill="url(#color-13)" stroke="url(#color-14)" stroke-width="0"/></g></g></svg>