<svg version="1.1" xmlns="http://www.w3.org/2000/svg" xmlns:xlink="http://www.w3.org/1999/xlink" width="99.42995" height="103.13363" viewBox="0,0,99.42995,103.13363"><defs><linearGradient x1="242.94252" y1="156.31766" x2="242.36127" y2="163.14403" gradientUnits="userSpaceOnUse" id="color-1"><stop offset="0" stop-color="#4f6d73"/><stop offset="1" stop-color="#86b9c2"/></linearGradient><radialGradient cx="240.75261" cy="134.46448" r="13.11833" gradientUnits="userSpaceOnUse" id="color-2"><stop offset="0" stop-color="#7bccb1"/><stop offset="1" stop-color="#618c94"/></radialGradient><linearGradient x1="257.98734" y1="198.29328" x2="269.78928" y2="196.35026" gradientUnits="userSpaceOnUse" id="color-3"><stop offset="0" stop-color="#242424"/><stop offset="1" stop-color="#373737"/></linearGradient><radialGradient cx="256.15718" cy="195.27965" r="3.52256" gradientUnits="userSpaceOnUse" id="color-4"><stop offset="0" stop-color="#bfbfbf"/><stop offset="1" stop-color="#9a9a9a"/></radialGradient><linearGradient x1="270.6636" y1="197.79787" x2="315.94684" y2="201.52785" gradientUnits="userSpaceOnUse" id="color-5"><stop offset="0" stop-color="#b2b2b2"/><stop offset="1" stop-color="#c4c4c4"/></linearGradient><linearGradient x1="270.93267" y1="198.18065" x2="300.5713" y2="200.62202" gradientUnits="userSpaceOnUse" id="color-6"><stop offset="0" stop-color="#cccccc"/><stop offset="1" stop-color="#d8d8d8"/></linearGradient><linearGradient x1="268.18354" y1="197.19083" x2="270.61171" y2="197.4341" gradientUnits="userSpaceOnUse" id="color-7"><stop offset="0" stop-color="#b5b5b5"/><stop offset="1" stop-color="#c5c5c5"/></linearGradient></defs><g transform="translate(-224.01969,-131.19277)"><g data-paper-data="{&quot;isPaintingLayer&quot;:true}" fill-rule="nonzero" stroke-linejoin="miter" stroke-miterlimit="10" stroke-dasharray="" stroke-dashoffset="0" style="mix-blend-mode: normal"><path d="M270.86323,198.66475c-0.43713,0.16757 -1.39087,-2.3009 -2.26395,-2.72157c-0.46216,-0.22267 2.30442,3.36629 1.00945,3.45552c-0.44459,0.03062 -1.82603,-2.92153 -2.51248,-3.40912c-0.36746,-0.26104 1.81111,4.17899 0.95853,4.27647c-0.5061,0.05789 -1.37825,-2.33549 -2.15756,-3.33805c-0.37967,-0.48842 -2.37664,-4.22826 -2.37664,-4.22826c0,0 -0.48657,-2.61283 -2.17312,-5.18656c-0.40557,-0.61891 -1.56314,-2.73262 -1.98707,-3.36407c-1.00333,-1.49448 -2.2353,-5.50895 -2.82413,-6.44109c-1.26644,-2.00488 -1.73541,-11.0987 -1.73541,-11.0987l5.25379,-0.9193c0,0 0.43495,5.12961 1.65317,10.47209c1.70764,4.48811 3.02519,7.47265 4.12273,9.47428c1.29897,2.36894 2.56327,5.61704 2.56327,5.61704c0,0 1.03613,2.20528 1.78789,4.11068c0.67642,1.71446 1.10249,3.13925 0.68155,3.30064z" data-paper-data="{&quot;index&quot;:null}" fill="#669093" stroke="#000000" stroke-width="0" stroke-linecap="butt"/><path d="M254.96371,160.80236c5.37433,-0.54395 5.80092,2.58445 5.85656,4.30888c0.05563,1.72443 1.70959,1.37984 -3.21815,1.85721c-4.16503,0.40348 -3.58015,0.08834 -3.63577,-1.63608c-0.05563,-1.72443 -1.80152,-4.2467 0.99737,-4.52998z" data-paper-data="{&quot;index&quot;:null}" fill="#314247" stroke="#000000" stroke-width="0" stroke-linecap="butt"/><g><path d="M226.1234,227.23575l3.75904,-33.71008c0,0 6.75518,-2.18267 9.822,-2.18267c3.62872,0 0.6063,4.24407 0.6063,4.24407c0,0 -3.09204,0.08829 -3.39803,1.52409c-0.93579,4.39099 -2.78619,30.12458 -2.78619,30.12458z" fill="#453d36" stroke="#000000" stroke-width="0" stroke-linecap="butt"/><path d="M241.62211,232.14463c0,0 -0.3857,1.94015 -1.2126,1.94015c-0.59276,0 -2.64411,0.01366 -4.70436,-0.06689c-1.25258,-0.04897 -1.90215,-0.61779 -2.83553,-0.76063c-1.17507,-0.17983 -2.93853,0.22047 -3.78777,0.02896c-1.56485,-0.35288 -2.37463,-0.77781 -2.37463,-0.77781c0,0 -0.26912,-1.02539 -0.2856,-1.5858c-0.02221,-0.755 0.16433,-2.53701 0.16433,-2.53701c0,0 5.93424,-0.11957 8.24914,0.08075c1.36979,0.11854 4.24057,0.6468 4.24057,0.6468c0,0 1.45975,0.6156 1.67337,1.04283c0.26162,0.52325 0.87307,1.98866 0.87307,1.98866z" data-paper-data="{&quot;index&quot;:null}" fill="#141415" stroke="#000000" stroke-width="0" stroke-linecap="butt"/><path d="M241.35122,231.50999c0,0 -0.38569,0 -1.21259,0c-0.24822,0 0.70239,1.60165 -2.61811,1.33311c-3.13563,-0.25359 -2.77648,-1.18823 -3.8809,-1.26883c-2.30937,-0.16854 -2.58766,0.59503 -3.58733,0.44204c-0.34815,-0.05328 -0.51271,-0.11454 -1.78458,-0.97035c-0.87471,-0.58857 -0.66566,-1.75122 -1.26542,-2.3793c-0.87609,-0.91746 -0.80847,-1.8858 -0.80847,-1.8858l-0.07637,-3.04773c0,0 0.48635,2.20682 1.32529,3.03123c0.75062,0.73761 2.3169,-0.01875 2.80058,-0.01889c0.84695,-0.00024 -0.68885,-3.26805 0.12091,-3.24981c0.43542,0.00981 3.72275,-0.23408 3.72275,-0.23408c0,0 0.12302,3.57988 0.35598,3.60004c1.36978,0.11854 4.60434,0.6468 4.60434,0.6468c0,0 1.45975,0.6156 1.67337,1.04283c0.26163,0.52325 0.63055,2.95873 0.63055,2.95873z" data-paper-data="{&quot;index&quot;:null}" fill="#252527" stroke="#000000" stroke-width="0" stroke-linecap="butt"/><path d="M235.33624,227.48004l-2.66771,1.09134" data-paper-data="{&quot;index&quot;:null}" fill="none" stroke="#ffffff" stroke-width="0.5" stroke-linecap="round"/><path d="M234.60867,228.93516l2.54644,-1.45511" data-paper-data="{&quot;index&quot;:null}" fill="none" stroke="#ffffff" stroke-width="0.5" stroke-linecap="round"/><path d="M238.24645,227.72256l-1.45512,1.45512" data-paper-data="{&quot;index&quot;:null}" fill="none" stroke="#ffffff" stroke-width="0.5" stroke-linecap="round"/><path d="M231.45592,224.69109l2.18267,-0.24252" data-paper-data="{&quot;index&quot;:null}" fill="none" stroke="#969696" stroke-width="0.5" stroke-linecap="round"/><path d="M233.88112,225.17612l-1.94015,0.36378" data-paper-data="{&quot;index&quot;:null}" fill="none" stroke="#969696" stroke-width="0.5" stroke-linecap="round"/></g><g><path d="M239.70443,191.343c3.62872,0 10.54956,2.18267 10.54956,2.18267l3.03149,33.71008h-7.63934c0,0 -1.32697,-25.53818 -2.03751,-29.57011c-0.20138,-1.1427 -3.2979,-2.07857 -3.2979,-2.07857c0,0 -3.67312,-4.24407 -0.6063,-4.24407z" fill="#453d36" stroke="#000000" stroke-width="0" stroke-linecap="butt"/><path d="M259.69261,234.32553c-0.59276,0 -2.64411,0.01365 -4.70436,-0.0669c-1.25258,-0.04897 -1.90215,-0.61779 -2.83553,-0.76063c-1.17507,-0.17982 -2.93854,0.22047 -3.78778,0.02896c-1.56485,-0.35288 -2.37463,-0.77782 -2.37463,-0.77782c0,0 -0.26911,-1.0254 -0.2856,-1.5858c-0.02221,-0.75501 0.16433,-2.53701 0.16433,-2.53701c0,0 5.93425,-0.11957 8.24914,0.08076c1.36979,0.11854 4.24057,0.6468 4.24057,0.6468c0,0 1.45976,0.6156 1.67337,1.04283c0.26162,0.52325 0.87307,1.98865 0.87307,1.98865c0,0 -0.3857,1.94015 -1.21259,1.94015z" data-paper-data="{&quot;index&quot;:null}" fill="#141415" stroke="#000000" stroke-width="0" stroke-linecap="butt"/><path d="M259.4217,231.75072c-0.24822,0 0.7024,1.60165 -2.61811,1.33311c-3.13563,-0.25358 -2.77648,-1.18823 -3.8809,-1.26883c-2.30937,-0.16854 -2.58765,0.59503 -3.58732,0.44205c-0.34815,-0.05328 -0.51271,-0.11454 -1.78459,-0.97035c-0.87472,-0.58857 -0.66566,-1.75122 -1.26542,-2.3793c-0.87609,-0.91745 -0.80847,-1.8858 -0.80847,-1.8858l-0.07637,-3.04773c0,0 0.48635,2.20681 1.32529,3.03122c0.75062,0.73761 2.3169,-0.01875 2.80058,-0.01889c0.84696,-0.00024 -0.68885,-3.26804 0.12091,-3.2498c0.43542,0.00981 3.72275,-0.23409 3.72275,-0.23409c0,0 0.12302,3.57989 0.35598,3.60005c1.36979,0.11854 4.60434,0.6468 4.60434,0.6468c0,0 1.45976,0.6156 1.67338,1.04283c0.26162,0.52325 0.63055,2.95873 0.63055,2.95873c0,0 -0.3857,0 -1.2126,0z" data-paper-data="{&quot;index&quot;:null}" fill="#252527" stroke="#000000" stroke-width="0" stroke-linecap="butt"/><path d="M251.95162,228.81212l2.6677,-1.09133" fill="none" stroke="#ffffff" stroke-width="0.5" stroke-linecap="round"/><path d="M256.43822,227.72079l-2.54645,1.45511" fill="none" stroke="#ffffff" stroke-width="0.5" stroke-linecap="round"/><path d="M256.07444,229.41842l1.45512,-1.45511" fill="none" stroke="#ffffff" stroke-width="0.5" stroke-linecap="round"/><path d="M250.73903,224.93183l2.18266,-0.24252" fill="none" stroke="#969696" stroke-width="0.5" stroke-linecap="round"/><path d="M251.22407,225.78064l1.94015,-0.36378" fill="none" stroke="#969696" stroke-width="0.5" stroke-linecap="round"/></g><path d="M238.54699,162.81925l0.58125,-6.82634l7.62855,0.64955l-0.58125,6.82634z" fill="url(#color-1)" stroke="#000000" stroke-width="0" stroke-linecap="butt"/><path d="M229.68738,192.8479c0,0 0.63817,-5.52547 0.57708,-10.93429c-0.04151,-3.67524 -0.80923,-7.05328 -0.75396,-9.5518c0.10376,-4.68943 0.92562,-13.35184 0.92562,-13.35184c0,0 3.72809,-0.26945 5.46823,0.24625c2.21511,0.65645 6.74471,3.37306 6.74471,3.37306c0,0 3.84779,-1.85084 5.78963,-2.10326c2.0489,-0.26634 6.19983,0.54473 6.19983,0.54473c0,0 -0.85079,9.17802 -1.29985,12.59141c-0.39731,3.02003 -1.42664,6.26968 -2.10167,10.73333c-0.69572,4.60052 -1.03149,10.37143 -1.03149,10.37143c0,0 -2.68176,-1.00045 -5.48072,-1.30724c-1.27109,-0.13932 -1.87016,0.85052 -3.08657,0.90673c-0.97228,0.04492 -2.57473,-0.83436 -3.49311,-0.94944c-0.69428,-0.087 -1.99138,-0.70209 -2.48349,-0.74811c-0.99365,-0.09294 -1.68331,0.72509 -2.85039,0.78565c-1.3557,0.07034 -3.1239,-0.60661 -3.1239,-0.60661z" fill="#374a50" stroke="#292e32" stroke-width="0" stroke-linecap="butt"/><g stroke="none" stroke-linecap="butt"><path d="M256.9588,145.66034c-0.62711,7.36489 -6.85253,12.84851 -13.90487,12.24801c-7.05234,-0.60049 -12.26103,-7.05771 -11.63392,-14.4226c0.62711,-7.36489 6.85253,-12.84851 13.90487,-12.24801c7.05234,0.60049 12.26103,7.05771 11.63392,14.4226z" fill="url(#color-2)" stroke-width="0"/><path d="M249.45841,150.4465c-0.99798,0.06358 -1.06155,-0.93439 -1.06155,-0.93439l-0.01954,-0.30663c-0.07973,-1.26387 -0.05655,-2.51003 -0.03186,-3.77571c0,0 0.01951,-0.99981 1.01932,-0.98029c0.99981,0.01951 0.9803,1.01932 0.9803,1.01932c-0.02362,1.21021 -0.04963,2.40122 0.02818,3.60951l0.01954,0.30663c0,0 0.06359,0.99798 -0.93439,1.06156z" fill="#191412" stroke-width="0.5"/><path d="M252.63588,146.03521c-0.2478,-1.33656 2.07695,-3.96191 2.07695,-3.96191c0,0 1.80607,2.61707 1.69402,4.25482c-0.11921,1.74252 -3.46777,1.34257 -3.77097,-0.29291z" fill="#191412" stroke-width="0.5"/><path d="M240.10856,144.86319c-0.14882,-1.40381 2.95398,-3.80246 2.95398,-3.80246c0,0 2.11524,2.69669 1.76119,4.34719c-0.37671,1.75606 -4.53307,1.17305 -4.71517,-0.54473z" data-paper-data="{&quot;index&quot;:null}" fill="#191412" stroke-width="0.5"/><path d="M239.15626,153.77611c0.03479,-0.40854 0.38492,-0.71233 0.78205,-0.67852c0.39712,0.03381 0.69086,0.39243 0.65607,0.80097c-0.03479,0.40854 -0.38491,0.71233 -0.78205,0.67852c-0.39712,-0.03381 -0.69086,-0.39243 -0.65607,-0.80097z" fill="#00ffcc" stroke-width="0.5"/><path d="M238.67142,150.75865c0.03479,-0.40854 0.38491,-0.71233 0.78204,-0.67852c0.39712,0.03381 0.69086,0.39242 0.65607,0.80097c-0.03479,0.40854 -0.38492,0.71233 -0.78205,0.67852c-0.39712,-0.03381 -0.69085,-0.39242 -0.65606,-0.80097z" fill="#00ffcc" stroke-width="0.5"/><path d="M236.35887,151.78273c0.03479,-0.40854 0.38491,-0.71233 0.78204,-0.67852c0.39712,0.03381 0.69086,0.39243 0.65607,0.80097c-0.03479,0.40854 -0.38492,0.71233 -0.78205,0.67852c-0.39712,-0.03381 -0.69085,-0.39241 -0.65606,-0.80097z" fill="#00ffcc" stroke-width="0.5"/><path d="M235.87402,148.76526c0.03479,-0.40854 0.38492,-0.71232 0.78204,-0.67851c0.39712,0.03381 0.69086,0.39242 0.65607,0.80096c-0.03479,0.40854 -0.38492,0.71233 -0.78205,0.67852c-0.39712,-0.03381 -0.69086,-0.39243 -0.65607,-0.80097z" fill="#00ffcc" stroke-width="0.5"/><path d="M252.57599,154.77742c-0.21157,-0.01801 -0.35489,-0.36381 -0.32011,-0.77236c0.03479,-0.40854 0.23451,-0.72514 0.44608,-0.70712c0.21157,0.01801 0.35488,0.36381 0.3201,0.77236c-0.03479,0.40854 -0.2345,0.72514 -0.44607,0.70712z" fill="#00ffcc" stroke-width="0.5"/><path d="M253.21994,151.85607c-0.21157,-0.01801 -0.35489,-0.36381 -0.32011,-0.77236c0.03479,-0.40854 0.23451,-0.72514 0.44608,-0.70712c0.21157,0.01801 0.35489,0.36381 0.32011,0.77236c-0.03479,0.40854 -0.23451,0.72514 -0.44608,0.70712z" fill="#00ffcc" stroke-width="0.5"/><path d="M254.29378,153.16851c-0.21157,-0.01801 -0.35489,-0.36382 -0.32011,-0.77236c0.03479,-0.40854 0.23451,-0.72513 0.44608,-0.70711c0.21157,0.01801 0.35489,0.36381 0.32011,0.77235c-0.03479,0.40854 -0.23451,0.72514 -0.44608,0.70712z" fill="#00ffcc" stroke-width="0.5"/><path d="M254.93771,150.24716c-0.21157,-0.01801 -0.35489,-0.36381 -0.32011,-0.77235c0.03479,-0.40854 0.2345,-0.72514 0.44608,-0.70712c0.21157,0.01801 0.35489,0.36382 0.32011,0.77236c-0.03479,0.40854 -0.23451,0.72513 -0.44608,0.70711z" fill="#00ffcc" stroke-width="0.5"/><path d="M246.46076,137.90657c0.03347,-0.39313 0.3793,-0.68467 0.77243,-0.6512c0.39313,0.03347 0.68467,0.3793 0.6512,0.77243c-0.03347,0.39313 -0.3793,0.68467 -0.77243,0.6512c-0.39313,-0.03347 -0.68467,-0.3793 -0.6512,-0.77243z" fill="#00ffcc" stroke-width="0.5"/><path d="M248.67123,135.23096c0.03347,-0.39313 0.3793,-0.68468 0.77243,-0.65121c0.39313,0.03347 0.68467,0.37931 0.6512,0.77244c-0.03347,0.39313 -0.3793,0.68467 -0.77243,0.6512c-0.39313,-0.03347 -0.68467,-0.3793 -0.6512,-0.77243z" fill="#00ffcc" stroke-width="0.5"/><path d="M250.39131,138.31469c0.03347,-0.39313 0.3793,-0.68467 0.77243,-0.6512c0.39313,0.03347 0.68467,0.3793 0.6512,0.77243c-0.03347,0.39313 -0.3793,0.68467 -0.77243,0.6512c-0.39313,-0.03347 -0.68467,-0.3793 -0.6512,-0.77243z" fill="#00ffcc" stroke-width="0.5"/></g><g stroke="none" stroke-width="0" stroke-linecap="butt"><path d="M258.16579,199.37715l0.41119,-5.01539l11.03385,0.90462l-0.41119,5.0154z" fill="url(#color-3)"/><path d="M260.62296,196.07443c0.31603,1.9196 -0.98393,3.73198 -2.90351,4.04799c-1.91961,0.31604 -3.73198,-0.98392 -4.048,-2.90352c-0.31605,-1.91961 0.98392,-3.73198 2.90351,-4.04799c1.91961,-0.31604 3.73198,0.98392 4.048,2.90352z" fill="url(#color-4)"/><path d="M270.2818,202.43315l0.76361,-9.27057l44.80359,5.59595l7.60063,2.99871l-7.85175,1.87632z" fill="url(#color-5)"/><path d="M270.68278,201.21454l0.45379,-6.42255l37.40627,4.77965l10.03391,2.02839l-9.93544,0.40678z" fill="url(#color-6)"/><path d="M273.97211,185.85807c0,0 -2.64642,7.55632 -3.09193,11.47937c-0.48915,4.30734 0.27574,13.3196 0.27574,13.3196c0,0 -3.16399,-9.49728 -2.68958,-13.67487c0.46409,-4.08672 5.50579,-11.12411 5.50579,-11.12411z" fill="url(#color-7)"/></g><path d="M253.55193,199.35731c-2.08925,-1.41879 -4.46246,-3.26063 -4.46246,-3.26063c0,0 -3.56615,-2.39788 -6.0653,-4.60008c-2.11165,-1.86075 -4.64592,-4.94823 -8.33223,-8.89305c-4.14854,-6.04549 -8.19631,-14.72295 -8.19631,-14.72295l5.58948,-2.82504c0,0 4.88516,11.95874 6.95512,14.02354c0.9624,0.96001 2.41453,2.6219 3.94151,4.2324c0.64518,0.68046 2.87544,2.64369 3.51051,3.29868c2.64085,2.72376 5.65275,4.01454 5.65275,4.01454c0,0 3.95989,3.41205 4.44497,4.00065c0.99568,1.20817 3.63945,2.90352 3.43319,3.49674c-0.34746,0.99934 -5.10064,-2.82022 -4.88583,-2.30766c0.40126,0.95744 3.57974,3.41634 3.42288,3.94291c-0.45695,1.53375 -4.02756,-2.76337 -3.88446,-2.1473c0.27034,1.16389 2.98244,2.97767 2.66283,3.4583c-0.30777,0.46281 -1.90676,-0.4344 -3.78666,-1.711z" data-paper-data="{&quot;index&quot;:null}" fill="#72a2a6" stroke="#000000" stroke-width="0" stroke-linecap="butt"/><path d="M232.40403,163.21906c0.9815,1.88721 1.80052,1.87278 -2.92021,3.95416c-5.58518,2.46254 -3.59926,1.83417 -4.58075,-0.05305c-0.9815,-1.88721 -2.41206,-5.50761 3.69339,-8.16823c3.17964,-1.38563 2.82606,2.37989 3.80757,4.26711z" fill="#3e5359" stroke="#000000" stroke-width="0" stroke-linecap="butt"/></g></g></svg>