<svg version="1.1" xmlns="http://www.w3.org/2000/svg" xmlns:xlink="http://www.w3.org/1999/xlink" width="102.55318" height="49.3413" viewBox="0,0,102.55318,49.3413"><defs><radialGradient cx="245.26282" cy="179.78341" r="22.57159" gradientUnits="userSpaceOnUse" id="color-1"><stop offset="0" stop-color="#3c3c3c"/><stop offset="1" stop-color="#939393"/></radialGradient><linearGradient x1="266.18167" y1="175.14695" x2="260.30493" y2="178.66843" gradientUnits="userSpaceOnUse" id="color-2"><stop offset="0" stop-color="#696969"/><stop offset="1" stop-color="#a0a0a0"/></linearGradient><radialGradient cx="283.53784" cy="160.04149" r="13.11833" gradientUnits="userSpaceOnUse" id="color-3"><stop offset="0" stop-color="#dcdcdc"/><stop offset="1" stop-color="#a0a0a0"/></radialGradient><radialGradient cx="279.32756" cy="165.33557" r="10.94378" gradientUnits="userSpaceOnUse" id="color-4"><stop offset="0" stop-color="#ffc4c4"/><stop offset="1" stop-color="#ff2121"/></radialGradient></defs><g transform="translate(-188.72341,-155.32935)"><g data-paper-data="{&quot;isPaintingLayer&quot;:true}" fill-rule="nonzero" stroke-linejoin="miter" stroke-miterlimit="10" stroke-dasharray="" stroke-dashoffset="0" style="mix-blend-mode: normal"><path d="M221.121,167.50817l44.84425,-5.18668l3.43939,29.73714l-44.84425,5.18668z" fill="url(#color-1)" stroke="#ed6b00" stroke-width="0" stroke-linecap="butt"/><g stroke-width="0" stroke-linecap="butt"><path d="M258.33727,175.38477l5.87673,-3.52149l3.93531,6.56733l-5.87673,3.52149z" fill="url(#color-2)" stroke="#000000"/><path d="M283.55133,179.96567c-6.63147,3.97375 -14.95659,2.27336 -18.59466,-3.79793c-3.63808,-6.07129 -1.21143,-14.2144 5.42004,-18.18815c6.63147,-3.97375 14.95658,-2.27335 18.59465,3.79794c3.63808,6.07129 1.21145,14.21439 -5.42003,18.18815z" fill="url(#color-3)" stroke="none"/></g><path d="M196.30088,168.21557l33.76342,3.24515c0,0 2.28531,6.72115 2.33202,9.78761c0.05527,3.6283 -4.23435,0.67088 -4.23435,0.67088c0,0 -0.13538,-3.09034 -1.57567,-3.37442c-4.40473,-0.8688 -30.16352,-2.32702 -30.16352,-2.32702z" fill="#494949" stroke="#000000" stroke-width="0" stroke-linecap="butt"/><g data-paper-data="{&quot;index&quot;:null}"><path d="M190.48186,182.76822c0,0 -1.86798,-0.65086 -1.75338,-1.46978c0.08216,-0.58705 0.35291,-2.6205 0.7182,-4.6497c0.22208,-1.23371 0.87543,-1.79819 1.14624,-2.70276c0.34094,-1.13881 0.18888,-2.94073 0.49624,-3.75523c0.56634,-1.50085 1.09939,-2.24393 1.09939,-2.24393c0,0 1.05279,-0.12442 1.61008,-0.06308c0.7508,0.08263 2.48976,0.51433 2.48976,0.51433c0,0 -0.70397,5.89354 -1.22316,8.15836c-0.30723,1.34015 -1.22823,4.11001 -1.22823,4.11001c0,0 -0.81196,1.36035 -1.26467,1.51271c-0.55446,0.18658 -2.09047,0.58905 -2.09047,0.58905z" data-paper-data="{&quot;index&quot;:null}" fill="#141415" stroke="#000000" stroke-width="0" stroke-linecap="butt"/><path d="M191.14792,182.58788c0,0 0.05345,-0.38197 0.16805,-1.20089c0.0344,-0.24582 -1.68353,0.47365 -0.95742,-2.77759c0.68568,-3.07023 1.56154,-2.58503 1.79441,-3.66762c0.48695,-2.26373 -0.23068,-2.64515 0.05937,-3.61397c0.10101,-0.3374 0.18449,-0.49189 1.2083,-1.63289c0.70411,-0.78471 1.82657,-0.41655 2.53171,-0.92348c1.03001,-0.7405 1.97965,-0.53933 1.97965,-0.53933l3.0289,0.34673c0,0 -2.25292,0.17583 -3.18564,0.89242c-0.83452,0.64115 -0.30251,2.29714 -0.36941,2.77617c-0.11713,0.8388 3.33197,-0.22931 3.20169,0.57011c-0.07006,0.42985 -0.28409,3.71927 -0.28409,3.71927c0,0 -3.56238,-0.37428 -3.61463,-0.14637c-0.30722,1.34014 -1.27864,4.47028 -1.27864,4.47028c0,0 -0.81195,1.36035 -1.26466,1.5127c-0.55446,0.18658 -3.01757,0.21444 -3.01757,0.21444z" data-paper-data="{&quot;index&quot;:null}" fill="#252527" stroke="#000000" stroke-width="0" stroke-linecap="butt"/><path d="M195.26144,174.39621l0.71111,2.79321" fill="none" stroke="#ffffff" stroke-width="0.5" stroke-linecap="round"/><path d="M194.6323,176.26723l1.08817,2.72352" fill="none" stroke="#ffffff" stroke-width="0.5" stroke-linecap="round"/><path d="M195.32907,180.03796l-1.23943,-1.64273" fill="none" stroke="#ffffff" stroke-width="0.5" stroke-linecap="round"/><path d="M199.27233,173.73306l-0.0623,2.19522" fill="none" stroke="#969696" stroke-width="0.5" stroke-linecap="round"/><path d="M198.4559,176.06763l-0.09141,-1.97184" fill="none" stroke="#969696" stroke-width="0.5" stroke-linecap="round"/></g><path d="M196.84528,189.32607c0,0 25.69485,-2.32733 30.06773,-3.34441c1.42987,-0.33257 1.46081,-3.42571 1.46081,-3.42571c0,0 4.18728,-3.10061 4.25459,0.52749c0.05688,3.0663 -2.00013,9.86079 -2.00013,9.86079l-33.63457,4.38358z" data-paper-data="{&quot;index&quot;:null}" fill="#494949" stroke="#000000" stroke-width="0" stroke-linecap="butt"/><g data-paper-data="{&quot;index&quot;:null}"><path d="M192.0723,204.67064c0,0 -1.94697,-0.34964 -1.9623,-1.17641c-0.01099,-0.59265 -0.0627,-2.6434 -0.02037,-4.7048c0.02573,-1.25326 0.58241,-1.91328 0.70791,-2.84914c0.15801,-1.1782 -0.27492,-2.93394 -0.0992,-3.78658c0.3238,-1.57112 0.73364,-2.38864 0.73364,-2.38864c0,0 1.02022,-0.28808 1.58022,-0.31495c0.75445,-0.03621 2.53963,0.11725 2.53963,0.11725c0,0 0.22961,5.93101 0.07225,8.24922c-0.09311,1.37176 -0.56804,4.25184 -0.56804,4.25184c0,0 -0.58842,1.47092 -1.01162,1.69243c-0.5183,0.27128 -1.97213,0.9098 -1.97213,0.9098z" data-paper-data="{&quot;index&quot;:null}" fill="#141415" stroke="#000000" stroke-width="0" stroke-linecap="butt"/><path d="M192.70181,204.38801c0,0 -0.00714,-0.38562 -0.02248,-1.21238c-0.0046,-0.24818 -1.58835,0.73197 -1.38143,-2.59294c0.19539,-3.13979 1.13653,-2.79804 1.19664,-3.90376c0.12568,-2.3121 -0.64293,-2.57618 -0.5085,-3.57852c0.04681,-0.34907 0.10502,-0.51475 0.9371,-1.80227c0.57225,-0.88548 1.73857,-0.69802 2.35542,-1.30932c0.90105,-0.89296 1.87049,-0.84331 1.87049,-0.84331l3.04579,-0.13289c0,0 -2.19741,0.5272 -3.00613,1.38129c-0.72356,0.76417 0.06171,2.31615 0.07082,2.79974c0.01595,0.84681 3.25471,-0.74934 3.2515,0.06062c-0.00173,0.43553 0.30308,3.71777 0.30308,3.71777c0,0 -3.57698,0.18938 -3.59281,0.42268c-0.09311,1.37174 -0.5613,4.61555 -0.5613,4.61555c0,0 -0.58842,1.47092 -1.01162,1.69243c-0.51831,0.27129 -2.94653,0.68532 -2.94653,0.68532z" data-paper-data="{&quot;index&quot;:null}" fill="#252527" stroke="#000000" stroke-width="0" stroke-linecap="butt"/><path d="M195.47889,195.65231l1.14063,2.64701" fill="none" stroke="#ffffff" stroke-width="0.5" stroke-linecap="round"/><path d="M195.15116,197.59888l1.50208,2.51901" fill="none" stroke="#ffffff" stroke-width="0.5" stroke-linecap="round"/><path d="M196.43101,201.21354l-1.48186,-1.42788" fill="none" stroke="#ffffff" stroke-width="0.5" stroke-linecap="round"/><path d="M199.33602,194.36797l0.28295,2.17779" fill="none" stroke="#969696" stroke-width="0.5" stroke-linecap="round"/><path d="M198.49635,194.86865l0.3997,1.93307" fill="none" stroke="#969696" stroke-width="0.5" stroke-linecap="round"/></g><g data-paper-data="{&quot;index&quot;:null}" stroke="#000000" stroke-width="0" stroke-linecap="butt"><path d="M236.53282,195.37928c0,0 3.0409,-0.17662 6.23041,-1.63971c0.767,-0.35182 3.34984,-1.31047 4.134,-1.68024c1.85591,-0.87519 3.66369,-1.81461 4.81531,-2.321c2.47695,-1.08916 5.64799,-2.39015 5.64799,-2.39015c0,0 6.27979,-2.38039 6.84937,-1.33431c3.33121,6.11787 -4.19677,7.21301 -4.19677,7.21301c0,0 -4.49635,1.93774 -7.12983,3.09574c-1.07175,0.47126 -2.13039,0.2232 -3.82037,0.8828c-0.75756,0.29568 -4.19277,1.06446 -6.2629,1.63878c-3.4467,0.9562 -5.41093,1.92848 -5.41093,1.92848z" data-paper-data="{&quot;index&quot;:null}" fill="#bdbdbd"/><path d="M233.02996,201.97251c-0.04205,-0.23795 -3.60239,0.92926 -3.84578,-0.06444c-0.11971,-0.48876 2.34721,-0.65306 2.96458,-1.53012c0.32679,-0.46425 -4.02509,1.47698 -3.91801,0.08251c0.03677,-0.47874 3.44383,-1.02452 4.10712,-1.6935c0.35507,-0.35811 -5.02973,1.3854 -5.00316,0.46223c0.01577,-0.54802 3.17425,-0.84979 4.43634,-1.55033c0.61487,-0.34129 -3.8446,0.56243 -3.7043,-0.13384c0.08589,-0.42621 4.37924,-1.55467 4.41611,-1.60893c0.20721,-0.30504 -2.62209,-0.43387 -2.07788,-0.8934c1.00298,-0.84689 2.67287,-0.16587 4.19624,0.31571c0.89004,0.28138 2.04192,0.02227 2.04192,0.02227c0,0 0.96013,1.67727 1.1047,2.58784c0.14075,0.88659 -0.2484,2.80556 -0.2484,2.80556c0,0 -4.38041,1.70255 -4.46947,1.19846z" data-paper-data="{&quot;index&quot;:null}" fill="#5c4747"/></g><g stroke-width="0" stroke-linecap="butt"><path d="M227.87813,172.47356c0,0 5.49559,-0.85827 10.69228,-2.35941c3.53112,-1.02 6.58212,-2.66068 9.00493,-3.27361c4.54732,-1.15042 13.11524,-2.66814 13.11524,-2.66814c0,0 1.25378,3.52126 1.22076,5.33591c-0.04203,2.30995 -1.45248,7.39992 -1.45248,7.39992c0,0 2.80984,3.21495 3.5709,5.01917c0.80302,1.9037 1.12816,6.12061 1.12816,6.12061c0,0 -9.07259,1.62731 -12.48213,2.10469c-3.01663,0.42236 -6.42309,0.29681 -10.90512,0.83644c-4.61946,0.55619 -10.27097,1.77139 -10.27097,1.77139c0,0 0.24914,-2.85142 -0.20152,-5.63085c-0.20465,-1.26223 -1.3184,-1.57566 -1.69692,-2.73304c-0.30254,-0.92511 0.11761,-2.70399 -0.01635,-3.61981c-0.10128,-0.69233 0.14567,-2.10649 0.0588,-2.59306c-0.17538,-0.98244 -1.14768,-1.42902 -1.51724,-2.53769c-0.42928,-1.28785 -0.24833,-3.17255 -0.24833,-3.17255z" fill="#d0d0d0" stroke="#292e32"/><path d="M252.97726,181.10067l5.69885,-1.18967l1.04743,7.57594l-5.12521,0.95897z" fill="#ff0000" stroke="none"/></g><path d="M290.53214,174.77784c-2.14785,4.3896 -4.67267,9.64666 -14.55757,5.50396c-11.04318,-4.62814 -7.24268,-10.73031 -5.09483,-15.11993c2.14785,-4.3896 8.28837,-5.79548 13.71523,-3.1401c5.42686,2.65538 8.08503,8.36647 5.93718,12.75608z" data-paper-data="{&quot;index&quot;:null}" fill="url(#color-4)" stroke="#ed6b00" stroke-width="0" stroke-linecap="butt"/><g data-paper-data="{&quot;index&quot;:null}" stroke="#000000" stroke-width="0" stroke-linecap="butt"><path d="M231.81119,155.97472c0,0 2.09755,0.68424 5.65473,1.09509c2.13648,0.24675 5.65148,0.4622 6.44738,0.64258c1.77554,0.40238 2.77895,-0.04205 3.91369,0.2689c2.78828,0.76405 7.54239,2.02714 7.54239,2.02714c0,0 7.93937,0.0201 5.62725,7.31893c-0.36911,1.1652 -7.27597,-0.66828 -7.27597,-0.66828c0,0 -3.34205,-0.82167 -5.96458,-1.54032c-1.2193,-0.33413 -3.1571,-1.01084 -5.13183,-1.61155c-0.83438,-0.25381 -3.53984,-0.81667 -4.35432,-1.05454c-3.38694,-0.98921 -6.41552,-0.64917 -6.41552,-0.64917z" fill="#bdbdbd"/><path d="M227.08655,155.48981c0.00353,-0.54634 4.60711,0.4777 4.60711,0.4777c0,0 0.70459,1.95212 0.71407,2.91024c0.00974,0.98406 -0.65644,2.91839 -0.65644,2.91839c0,0 -1.17903,-0.07071 -2.00952,0.38167c-1.42145,0.77428 -2.95399,1.78423 -4.0845,1.06854c-0.61341,-0.38832 2.1546,-1.02031 1.89929,-1.30511c-0.04543,-0.05068 -4.46717,-0.48558 -4.62312,-0.91923c-0.25476,-0.70846 4.29318,-0.53929 3.62989,-0.79075c-1.36152,-0.51615 -4.52611,-0.27977 -4.63329,-0.85398c-0.18057,-0.96731 5.42015,-0.07633 5.01019,-0.39106c-0.76583,-0.58798 -4.21631,-0.5649 -4.33262,-1.06249c-0.33875,-1.44938 4.27661,-0.16902 3.87678,-0.60047c-0.75538,-0.81511 -3.21512,-0.5553 -3.17884,-1.09089c0.0738,-1.08892 3.77932,-0.48464 3.781,-0.74253z" data-paper-data="{&quot;index&quot;:null}" fill="#5c4747"/></g></g></g></svg>