<svg version="1.1" xmlns="http://www.w3.org/2000/svg" xmlns:xlink="http://www.w3.org/1999/xlink" width="544.88959" height="192.65964" viewBox="0,0,544.88959,192.65964"><defs><linearGradient x1="268.61602" y1="142.48346" x2="268.61602" y2="292.54961" gradientUnits="userSpaceOnUse" id="color-1"><stop offset="0" stop-color="#6c58fc" stop-opacity="0"/><stop offset="1" stop-color="#6c58fc" stop-opacity="0.27451"/></linearGradient><linearGradient x1="268.17278" y1="208.17149" x2="268.17278" y2="292.93093" gradientUnits="userSpaceOnUse" id="color-2"><stop offset="0" stop-color="#42a2fc" stop-opacity="0"/><stop offset="1" stop-color="#42a2fc" stop-opacity="0.25098"/></linearGradient><radialGradient cx="325.37851" cy="182.61541" r="65.11023" gradientUnits="userSpaceOnUse" id="color-3"><stop offset="0" stop-color="#93a0db"/><stop offset="1" stop-color="#2f364f"/></radialGradient><radialGradient cx="325.61241" cy="182.22823" r="65.80491" gradientUnits="userSpaceOnUse" id="color-4"><stop offset="0" stop-color="#899bcc"/><stop offset="1" stop-color="#242a3d"/></radialGradient><radialGradient cx="325.21852" cy="181.99372" r="65.11023" gradientUnits="userSpaceOnUse" id="color-5"><stop offset="0" stop-color="#abbaff"/><stop offset="1" stop-color="#313754"/></radialGradient><radialGradient cx="325.61795" cy="181.76558" r="65.8049" gradientUnits="userSpaceOnUse" id="color-6"><stop offset="0" stop-color="#7e8cbd"/><stop offset="1" stop-color="#1e2233"/></radialGradient><radialGradient cx="325.28334" cy="182.44392" r="66.59934" gradientUnits="userSpaceOnUse" id="color-7"><stop offset="0" stop-color="#455173" stop-opacity="0.30588"/><stop offset="1" stop-color="#455173" stop-opacity="0"/></radialGradient><radialGradient cx="325.28334" cy="182.44392" r="54.069" gradientUnits="userSpaceOnUse" id="color-8"><stop offset="0" stop-color="#7399eb" stop-opacity="0.62745"/><stop offset="1" stop-color="#7399eb" stop-opacity="0"/></radialGradient><radialGradient cx="325.28334" cy="182.44392" r="45.77384" gradientUnits="userSpaceOnUse" id="color-9"><stop offset="0" stop-color="#4f90ff"/><stop offset="1" stop-color="#4f90ff" stop-opacity="0"/></radialGradient><radialGradient cx="325.28334" cy="182.44392" r="37.64005" gradientUnits="userSpaceOnUse" id="color-10"><stop offset="0" stop-color="#4681ff"/><stop offset="1" stop-color="#406bff"/></radialGradient><radialGradient cx="325.34001" cy="182.69434" r="66.38109" gradientUnits="userSpaceOnUse" id="color-11"><stop offset="0" stop-color="#040408"/><stop offset="1" stop-color="#0d0f21"/></radialGradient><radialGradient cx="325.4241" cy="182.51468" r="65.68033" gradientUnits="userSpaceOnUse" id="color-12"><stop offset="0" stop-color="#080b12"/><stop offset="1" stop-color="#0e1226"/></radialGradient><radialGradient cx="324.68412" cy="182.48784" r="66.38109" gradientUnits="userSpaceOnUse" id="color-13"><stop offset="0" stop-color="#0b0d17"/><stop offset="1" stop-color="#141533"/></radialGradient><radialGradient cx="324.85336" cy="182.41591" r="65.68033" gradientUnits="userSpaceOnUse" id="color-14"><stop offset="0" stop-color="#111424"/><stop offset="1" stop-color="#141930"/></radialGradient><radialGradient cx="325.28307" cy="182.44378" r="81.43505" gradientUnits="userSpaceOnUse" id="color-15"><stop offset="0" stop-color="#ffffff" stop-opacity="0.26479"/><stop offset="1" stop-color="#ffffff" stop-opacity="0"/></radialGradient><linearGradient x1="405.70737" y1="195.23523" x2="244.85906" y2="169.65242" gradientUnits="userSpaceOnUse" id="color-16"><stop offset="0" stop-color="#080808"/><stop offset="1" stop-color="#414141"/></linearGradient></defs><g transform="translate(4.05032,-100.27129)"><g data-paper-data="{&quot;isPaintingLayer&quot;:true}" fill-rule="nonzero" stroke-linecap="butt" stroke-linejoin="miter" stroke-miterlimit="10" stroke-dasharray="" stroke-dashoffset="0" style="mix-blend-mode: normal"><path d="M-3.60696,292.54961v-150.06611h544.44623v150.06612z" fill="url(#color-1)" stroke="none" stroke-width="0"/><path d="M-4.05032,292.93093v-84.75957h544.44623v84.75957z" fill="url(#color-2)" stroke="none" stroke-width="0"/><path d="M354.16003,249.33576c0,0 -17.1246,-12.57165 -44.02158,-66.49286c-23.12924,-46.36784 -19.98353,-61.92512 -19.98353,-61.92512l5.0011,-5.09887c0,0 8.68147,39.67413 21.49018,63.74331c16.0115,30.08782 43.98742,65.19293 43.98742,65.19293z" data-paper-data="{&quot;index&quot;:null}" fill="url(#color-3)" stroke="#676767" stroke-width="0"/><path d="M395.40777,168.41084c0,0 -44.84706,1.93873 -78.05554,9.60981c-26.56555,6.13656 -62.19429,25.63 -62.19429,25.63l0.56373,-7.11986c0,0 9.67149,-12.58516 59.83374,-25.5732c58.33368,-15.10382 79.05857,-10.43733 79.05857,-10.43733z" data-paper-data="{&quot;index&quot;:null}" fill="url(#color-4)" stroke="#676767" stroke-width="0"/><path d="M257.71064,158.60676c0,0 39.60105,21.13703 72.0959,31.41965c25.9946,8.22568 66.58561,9.5595 66.58561,9.5595l-4.10609,5.84377c0,0 -14.72755,5.91804 -64.52414,-8.40806c-57.90852,-16.65977 -73.38041,-31.21726 -73.38041,-31.21726z" data-paper-data="{&quot;index&quot;:null}" fill="url(#color-5)" stroke="#676767" stroke-width="0"/><path d="M360.26148,118.26549c0,0 0.56996,21.23615 -25.53097,75.54714c-22.44468,46.70309 -36.66276,53.75779 -36.66276,53.75779l-7.09446,-0.82391c0,0 26.01632,-31.18586 37.17506,-56.06282c13.94905,-31.09771 24.52503,-74.723 24.52503,-74.723z" data-paper-data="{&quot;index&quot;:null}" fill="url(#color-6)" stroke="#676767" stroke-width="0"/><path d="M258.68384,182.44392c0,-36.78167 29.81751,-66.59933 66.59933,-66.59933c36.78167,0 66.59933,29.81752 66.59933,66.59933c0,36.78167 -29.81752,66.59933 -66.59933,66.59933c-36.78167,0 -66.59933,-29.81752 -66.59933,-66.59933z" fill="url(#color-7)" stroke="none" stroke-width="0.5"/><path d="M271.21422,182.44392c0,-29.86137 24.20748,-54.06899 54.06899,-54.06899c29.86137,0 54.06899,24.20748 54.06899,54.06899c0,29.86138 -24.20747,54.06899 -54.06899,54.06899c-29.86138,0 -54.06899,-24.20747 -54.06899,-54.06898z" fill="url(#color-8)" stroke="none" stroke-width="0.5"/><path d="M279.50965,182.44392c0,-25.28012 20.49364,-45.77384 45.77383,-45.77384c25.28012,0 45.77384,20.49365 45.77384,45.77384c0,25.28012 -20.49365,45.77383 -45.77384,45.77383c-25.28012,0 -45.77383,-20.49364 -45.77383,-45.77383z" fill="url(#color-9)" stroke="none" stroke-width="0.5"/><path d="M287.64339,182.44392c0,-20.78793 16.85197,-37.64004 37.64004,-37.64004c20.78793,0 37.64005,16.85197 37.64005,37.64005c0,20.78793 -16.85198,37.64004 -37.64005,37.64004c-20.78793,0 -37.64004,-16.85197 -37.64004,-37.64004z" fill="url(#color-10)" stroke="none" stroke-width="0.5"/><path d="M290.44076,246.75041c0,0 -2.91821,-22.008 23.41121,-76.79458c22.6412,-47.11205 39.32701,-53.64263 39.32701,-53.64263l7.15657,0.8312c0,0 -23.02228,33.50941 -34.27872,58.60426c-14.07122,31.37007 -27.96162,73.32679 -27.96162,73.32679z" fill="url(#color-11)" stroke="#676767" stroke-width="0"/><path d="M393.30506,206.88122c0,0 -40.38344,-17.95815 -73.0572,-28.6587c-26.13779,-8.56001 -66.41738,-14.07886 -66.41738,-14.07886l4.20088,-5.85317c0,0 16.05897,-7.94831 66.14425,7.00575c58.24419,17.39017 72.56031,34.35823 72.56031,34.35823z" data-paper-data="{&quot;index&quot;:null}" fill="url(#color-12)" stroke="#676767" stroke-width="0"/><path d="M254.32463,196.56876c0,0 43.8361,-5.63118 77.31438,-13.45952c26.78138,-6.26234 64.0673,-22.46916 64.0673,-22.46916l-0.5493,7.18367c0,0 -9.59388,15.13347 -60.15992,28.37129c-58.80326,15.39422 -79.85037,8.33109 -79.85037,8.33109z" data-paper-data="{&quot;index&quot;:null}" fill="url(#color-13)" stroke="#676767" stroke-width="0"/><path d="M295.13519,115.36405c0,0 19.27153,11.02158 46.87952,65.1751c23.74066,46.56762 18.8185,63.79665 18.8185,63.79665l-4.99969,5.18758c0,0 -12.69184,-38.62405 -25.82489,-62.78979c-16.41706,-30.20857 -41.36307,-66.69165 -41.36307,-66.69165z" data-paper-data="{&quot;index&quot;:null}" fill="url(#color-14)" stroke="#676767" stroke-width="0"/><path d="M338.19119,101.2851c44.41709,7.06455 74.64497,49.12739 67.51584,93.94997c-7.12899,44.82266 -48.9153,75.43161 -93.33239,68.36714c-44.41709,-7.06455 -74.64498,-49.12738 -67.51585,-93.94996c7.12899,-44.82265 48.91531,-75.43176 93.3324,-68.36715z" fill="url(#color-15)" stroke="url(#color-16)" stroke-width="0"/></g></g></svg>