<svg version="1.1" xmlns="http://www.w3.org/2000/svg" xmlns:xlink="http://www.w3.org/1999/xlink" width="59" height="59.70662" viewBox="0,0,59,59.70662"><defs><linearGradient x1="240" y1="151.64669" x2="240" y2="208.35331" gradientUnits="userSpaceOnUse" id="color-1"><stop offset="0" stop-color="#191919"/><stop offset="1" stop-color="#050505"/></linearGradient><linearGradient x1="240" y1="151.64669" x2="240" y2="208.35331" gradientUnits="userSpaceOnUse" id="color-2"><stop offset="0" stop-color="#cccccc"/><stop offset="1" stop-color="#898989"/></linearGradient><radialGradient cx="240" cy="180" r="26.8571" gradientUnits="userSpaceOnUse" id="color-3"><stop offset="0" stop-color="#ffffff" stop-opacity="0.35484"/><stop offset="1" stop-color="#ffffff" stop-opacity="0"/></radialGradient><linearGradient x1="240" y1="153.29211" x2="240" y2="206.70789" gradientUnits="userSpaceOnUse" id="color-4"><stop offset="0" stop-color="#cccccc"/><stop offset="1" stop-color="#898989"/></linearGradient><linearGradient x1="242.72467" y1="195.83049" x2="243.77809" y2="195.83049" gradientUnits="userSpaceOnUse" id="color-5"><stop offset="0" stop-color="#525252"/><stop offset="1" stop-color="#363636"/></linearGradient><linearGradient x1="242.72467" y1="195.83049" x2="243.77809" y2="195.83049" gradientUnits="userSpaceOnUse" id="color-6"><stop offset="0" stop-color="#1f1f1f"/><stop offset="1" stop-color="#000000"/></linearGradient><linearGradient x1="236.47423" y1="194.40574" x2="237.37808" y2="194.53" gradientUnits="userSpaceOnUse" id="color-7"><stop offset="0" stop-color="#525252"/><stop offset="1" stop-color="#2e2e2e"/></linearGradient><linearGradient x1="236.47423" y1="194.40574" x2="237.37808" y2="194.53" gradientUnits="userSpaceOnUse" id="color-8"><stop offset="0" stop-color="#1f1f1f"/><stop offset="1" stop-color="#000000"/></linearGradient><linearGradient x1="233.3434" y1="197.10337" x2="246.34289" y2="197.10337" gradientUnits="userSpaceOnUse" id="color-9"><stop offset="0" stop-color="#b8b8b8"/><stop offset="1" stop-color="#4a4a4a"/></linearGradient><linearGradient x1="233.3434" y1="197.10337" x2="246.34289" y2="197.10337" gradientUnits="userSpaceOnUse" id="color-10"><stop offset="0" stop-color="#1f1f1f"/><stop offset="1" stop-color="#000000"/></linearGradient><linearGradient x1="237.79178" y1="193.53456" x2="241.92446" y2="193.53456" gradientUnits="userSpaceOnUse" id="color-11"><stop offset="0" stop-color="#5d5d5d"/><stop offset="1" stop-color="#232323"/></linearGradient><linearGradient x1="236.45473" y1="196.18243" x2="243.09944" y2="196.18243" gradientUnits="userSpaceOnUse" id="color-12"><stop offset="0" stop-color="#5d5d5d"/><stop offset="1" stop-color="#232323"/></linearGradient><linearGradient x1="235.33312" y1="199.10549" x2="244.25367" y2="199.10549" gradientUnits="userSpaceOnUse" id="color-13"><stop offset="0" stop-color="#5d5d5d"/><stop offset="1" stop-color="#232323"/></linearGradient><linearGradient x1="234.14529" y1="202.01681" x2="245.48992" y2="202.01681" gradientUnits="userSpaceOnUse" id="color-14"><stop offset="0" stop-color="#5d5d5d"/><stop offset="1" stop-color="#232323"/></linearGradient><linearGradient x1="242.26751" y1="192.37666" x2="244.26103" y2="192.37666" gradientUnits="userSpaceOnUse" id="color-15"><stop offset="0" stop-color="#aaaaaa"/><stop offset="1" stop-color="#4e4e4e"/></linearGradient><linearGradient x1="242.26751" y1="192.37666" x2="244.26103" y2="192.37666" gradientUnits="userSpaceOnUse" id="color-16"><stop offset="0" stop-color="#1f1f1f"/><stop offset="1" stop-color="#000000"/></linearGradient><linearGradient x1="244.2668" y1="192.37666" x2="246.26032" y2="192.37666" gradientUnits="userSpaceOnUse" id="color-17"><stop offset="0" stop-color="#aaaaaa"/><stop offset="1" stop-color="#4e4e4e"/></linearGradient><linearGradient x1="244.2668" y1="192.37666" x2="246.26032" y2="192.37666" gradientUnits="userSpaceOnUse" id="color-18"><stop offset="0" stop-color="#1f1f1f"/><stop offset="1" stop-color="#000000"/></linearGradient><linearGradient x1="244.75049" y1="195.88114" x2="245.80392" y2="195.88114" gradientUnits="userSpaceOnUse" id="color-19"><stop offset="0" stop-color="#525252"/><stop offset="1" stop-color="#363636"/></linearGradient><linearGradient x1="244.75049" y1="195.88114" x2="245.80392" y2="195.88114" gradientUnits="userSpaceOnUse" id="color-20"><stop offset="0" stop-color="#1f1f1f"/><stop offset="1" stop-color="#000000"/></linearGradient><linearGradient x1="233.45145" y1="191.30952" x2="246.41673" y2="191.30952" gradientUnits="userSpaceOnUse" id="color-21"><stop offset="0" stop-color="#525252"/><stop offset="1" stop-color="#2e2e2e"/></linearGradient><linearGradient x1="233.45145" y1="191.30952" x2="246.41673" y2="191.30952" gradientUnits="userSpaceOnUse" id="color-22"><stop offset="0" stop-color="#1f1f1f"/><stop offset="1" stop-color="#000000"/></linearGradient><linearGradient x1="233.53535" y1="162.90478" x2="246.53484" y2="162.90478" gradientUnits="userSpaceOnUse" id="color-23"><stop offset="0" stop-color="#9c8f73"/><stop offset="1" stop-color="#443a22"/></linearGradient><linearGradient x1="233.53535" y1="162.90071" x2="246.53484" y2="162.90071" gradientUnits="userSpaceOnUse" id="color-24"><stop offset="0" stop-color="#272727"/><stop offset="1" stop-color="#000000"/></linearGradient><linearGradient x1="236.77667" y1="157.24962" x2="243.19223" y2="157.24962" gradientUnits="userSpaceOnUse" id="color-25"><stop offset="0" stop-color="#f1f5f8"/><stop offset="1" stop-color="#6d7680"/></linearGradient><linearGradient x1="236.77667" y1="157.2491" x2="243.19223" y2="157.2491" gradientUnits="userSpaceOnUse" id="color-26"><stop offset="0" stop-color="#272727"/><stop offset="1" stop-color="#000000"/></linearGradient><linearGradient x1="235.31409" y1="160.55279" x2="244.8727" y2="160.55279" gradientUnits="userSpaceOnUse" id="color-27"><stop offset="0" stop-color="#45423b"/><stop offset="1" stop-color="#262018"/></linearGradient><linearGradient x1="246.40617" y1="185.18166" x2="252.84956" y2="185.18166" gradientUnits="userSpaceOnUse" id="color-28"><stop offset="0" stop-color="#36322b"/><stop offset="1" stop-color="#1f1c19"/></linearGradient><linearGradient x1="246.40617" y1="185.40301" x2="250.81335" y2="185.40301" gradientUnits="userSpaceOnUse" id="color-29"><stop offset="0" stop-color="#272727"/><stop offset="1" stop-color="#000000"/></linearGradient><linearGradient x1="233.59383" y1="185.11413" x2="227.15045" y2="185.11413" gradientUnits="userSpaceOnUse" id="color-30"><stop offset="0" stop-color="#6b6757"/><stop offset="1" stop-color="#827969"/></linearGradient><linearGradient x1="229.18665" y1="185.33549" x2="233.59383" y2="185.33549" gradientUnits="userSpaceOnUse" id="color-31"><stop offset="0" stop-color="#272727"/><stop offset="1" stop-color="#000000"/></linearGradient><linearGradient x1="233.57593" y1="179.9164" x2="246.42159" y2="179.9164" gradientUnits="userSpaceOnUse" id="color-32"><stop offset="0" stop-color="#635f54"/><stop offset="1" stop-color="#211f1a"/></linearGradient><linearGradient x1="233.57593" y1="179.9164" x2="246.42159" y2="179.9164" gradientUnits="userSpaceOnUse" id="color-33"><stop offset="0" stop-color="#272727"/><stop offset="1" stop-color="#000000"/></linearGradient><linearGradient x1="240.45794" y1="180.50924" x2="245.49647" y2="180.50924" gradientUnits="userSpaceOnUse" id="color-34"><stop offset="0" stop-color="#4a382c"/><stop offset="1" stop-color="#301f1b"/></linearGradient><linearGradient x1="240.45794" y1="180.50924" x2="245.49647" y2="180.50924" gradientUnits="userSpaceOnUse" id="color-35"><stop offset="0" stop-color="#351c12"/><stop offset="1" stop-color="#1a1310"/></linearGradient><linearGradient x1="240.44439" y1="180.51114" x2="245.47126" y2="180.51114" gradientUnits="userSpaceOnUse" id="color-36"><stop offset="0" stop-color="#351c12"/><stop offset="1" stop-color="#1a1310"/></linearGradient><linearGradient x1="240.44439" y1="180.47286" x2="245.47126" y2="180.47286" gradientUnits="userSpaceOnUse" id="color-37"><stop offset="0" stop-color="#351c12"/><stop offset="1" stop-color="#1a1310"/></linearGradient><linearGradient x1="234.43591" y1="180.53476" x2="239.47443" y2="180.53476" gradientUnits="userSpaceOnUse" id="color-38"><stop offset="0" stop-color="#4a382c"/><stop offset="1" stop-color="#301f1b"/></linearGradient><linearGradient x1="234.43591" y1="180.53476" x2="239.47443" y2="180.53476" gradientUnits="userSpaceOnUse" id="color-39"><stop offset="0" stop-color="#351c12"/><stop offset="1" stop-color="#1a1310"/></linearGradient><linearGradient x1="234.42236" y1="180.53666" x2="239.44923" y2="180.53666" gradientUnits="userSpaceOnUse" id="color-40"><stop offset="0" stop-color="#351c12"/><stop offset="1" stop-color="#1a1310"/></linearGradient><linearGradient x1="234.42236" y1="180.49838" x2="239.44923" y2="180.49838" gradientUnits="userSpaceOnUse" id="color-41"><stop offset="0" stop-color="#351c12"/><stop offset="1" stop-color="#1a1310"/></linearGradient><linearGradient x1="240.45794" y1="186.58672" x2="245.49647" y2="186.58672" gradientUnits="userSpaceOnUse" id="color-42"><stop offset="0" stop-color="#4a382c"/><stop offset="1" stop-color="#301f1b"/></linearGradient><linearGradient x1="240.45794" y1="186.58672" x2="245.49647" y2="186.58672" gradientUnits="userSpaceOnUse" id="color-43"><stop offset="0" stop-color="#351c12"/><stop offset="1" stop-color="#1a1310"/></linearGradient><linearGradient x1="240.44439" y1="186.58862" x2="245.47126" y2="186.58862" gradientUnits="userSpaceOnUse" id="color-44"><stop offset="0" stop-color="#351c12"/><stop offset="1" stop-color="#1a1310"/></linearGradient><linearGradient x1="240.44439" y1="186.55034" x2="245.47126" y2="186.55034" gradientUnits="userSpaceOnUse" id="color-45"><stop offset="0" stop-color="#351c12"/><stop offset="1" stop-color="#1a1310"/></linearGradient><linearGradient x1="234.43591" y1="186.61224" x2="239.47443" y2="186.61224" gradientUnits="userSpaceOnUse" id="color-46"><stop offset="0" stop-color="#4a382c"/><stop offset="1" stop-color="#301f1b"/></linearGradient><linearGradient x1="234.43591" y1="186.61224" x2="239.47443" y2="186.61224" gradientUnits="userSpaceOnUse" id="color-47"><stop offset="0" stop-color="#351c12"/><stop offset="1" stop-color="#1a1310"/></linearGradient><linearGradient x1="234.42236" y1="186.61413" x2="239.44923" y2="186.61413" gradientUnits="userSpaceOnUse" id="color-48"><stop offset="0" stop-color="#351c12"/><stop offset="1" stop-color="#1a1310"/></linearGradient><linearGradient x1="234.42236" y1="186.57586" x2="239.44923" y2="186.57586" gradientUnits="userSpaceOnUse" id="color-49"><stop offset="0" stop-color="#351c12"/><stop offset="1" stop-color="#1a1310"/></linearGradient><linearGradient x1="234.22632" y1="173.59367" x2="245.6925" y2="173.59367" gradientUnits="userSpaceOnUse" id="color-50"><stop offset="0" stop-color="#515151"/><stop offset="1" stop-color="#131313"/></linearGradient><linearGradient x1="234.22632" y1="173.59367" x2="245.6925" y2="173.59367" gradientUnits="userSpaceOnUse" id="color-51"><stop offset="0" stop-color="#272727"/><stop offset="1" stop-color="#000000"/></linearGradient><linearGradient x1="234.82352" y1="171.09871" x2="245.01568" y2="171.09871" gradientUnits="userSpaceOnUse" id="color-52"><stop offset="0" stop-color="#272727"/><stop offset="1" stop-color="#000000"/></linearGradient><linearGradient x1="234.86334" y1="176.1256" x2="244.89624" y2="176.1256" gradientUnits="userSpaceOnUse" id="color-53"><stop offset="0" stop-color="#272727"/><stop offset="1" stop-color="#000000"/></linearGradient></defs><g transform="translate(-210.5,-150.14669)"><g data-paper-data="{&quot;isPaintingLayer&quot;:true}" fill-rule="nonzero" stroke-linejoin="miter" stroke-miterlimit="10" stroke-dasharray="" stroke-dashoffset="0" style="mix-blend-mode: normal"><path d="M212,208.35331v-56.70662h56v56.70662z" fill="url(#color-1)" stroke="url(#color-2)" stroke-width="3" stroke-linecap="butt"/><path d="M266.8571,180c0,14.75036 -12.02433,26.70789 -26.8571,26.70789c-14.83277,0 -26.8571,-11.95753 -26.8571,-26.70789c0,-14.75036 12.02433,-26.70789 26.8571,-26.70789c14.83277,0 26.8571,11.95753 26.8571,26.70789z" fill="url(#color-3)" stroke="url(#color-4)" stroke-width="0" stroke-linecap="butt"/><g stroke-width="0.5"><path d="M242.72467,197.5727v-3.48442h1.05343v3.48442z" fill="url(#color-5)" stroke="url(#color-6)" stroke-linecap="butt"/><path d="M235.95202,198.20437l0.13617,-7.08227l2.25129,-0.51268l-1.48361,7.7192z" fill="url(#color-7)" stroke="url(#color-8)" stroke-linecap="butt"/><path d="M233.3434,203.60338c0,0 4.85394,-13.09482 6.50064,-12.99949c1.88379,0.10904 6.49886,12.99949 6.49886,12.99949z" fill="url(#color-9)" stroke="url(#color-10)" stroke-linecap="butt"/><path d="M241.92446,193.53456h-4.13269" fill="none" stroke="url(#color-11)" stroke-linecap="round"/><path d="M243.09944,196.18243h-6.64471" fill="none" stroke="url(#color-12)" stroke-linecap="round"/><path d="M235.33312,199.10549h8.92055" fill="none" stroke="url(#color-13)" stroke-linecap="round"/><path d="M234.14529,202.01681h11.34463" fill="none" stroke="url(#color-14)" stroke-linecap="round"/><path d="M244.26103,192.37666c-0.00746,1.54338 -0.03107,1.70852 -0.99676,1.69216c-0.96599,-0.01636 -1.00874,-0.2255 -0.99676,-1.69216c0.01323,-1.61929 0.01042,-1.73185 0.99676,-1.69216c0.94505,0.03803 1.00495,-0.00263 0.99676,1.69216z" fill="url(#color-15)" stroke="url(#color-16)" stroke-linecap="butt"/><path d="M246.26032,192.37666c-0.00746,1.54338 -0.03107,1.70852 -0.99676,1.69216c-0.96599,-0.01636 -1.00874,-0.2255 -0.99676,-1.69216c0.01323,-1.61929 0.01042,-1.73185 0.99676,-1.69216c0.94505,0.03803 1.00495,-0.00263 0.99676,1.69216z" fill="url(#color-17)" stroke="url(#color-18)" stroke-linecap="butt"/><path d="M243.83887,196.96495c0,0 0.91162,-0.22958 0.91162,-0.7428c0,-0.62578 0,-2.08323 0,-2.08323h1.05343c0,0 0,1.36696 0,1.98193c0,0.22996 -0.19763,0.71554 -0.53872,1.07919c-0.45312,0.48309 -1.08194,0.82846 -1.08194,0.82846z" fill="url(#color-19)" stroke="url(#color-20)" stroke-linecap="butt"/><path d="M233.45145,190.49919h12.96529c0,0 -0.02926,0.79831 -0.19991,1.08572c-0.14636,0.2465 -0.76235,0.53494 -0.76235,0.53494h-11.14204c0,0 -0.46961,-0.30602 -0.59552,-0.54302c-0.15499,-0.29175 -0.26546,-1.07764 -0.26546,-1.07764z" fill="url(#color-21)" stroke="url(#color-22)" stroke-linecap="butt"/></g><path d="M233.53535,169.40479c0,0 0.83605,-13.2974 6.43311,-12.99949c5.63157,-0.39741 6.56638,12.99949 6.56638,12.99949z" fill="url(#color-23)" stroke="url(#color-24)" stroke-width="0.5" stroke-linecap="butt"/><path d="M236.77667,158.07201c0,0 0.41261,-1.68241 3.17489,-1.64472c2.77931,-0.05028 3.24067,1.64472 3.24067,1.64472z" fill="url(#color-25)" stroke="url(#color-26)" stroke-width="0.5" stroke-linecap="butt"/><path d="M234.98732,162.1941c0,0 0.15858,-0.51428 0.39155,-1.1263c0.27339,-0.71821 0.72624,-1.57101 2.29106,-1.88522c0.06071,-0.01219 1.20131,-0.19078 1.20131,-0.19078l2.48141,0.00765c0,0 0.85779,0.06123 0.90816,0.07317c1.48091,0.35106 2.03703,1.23256 2.34833,1.96961c0.26544,0.62845 0.42694,1.15188 0.42694,1.15188z" data-paper-data="{&quot;index&quot;:null}" fill="url(#color-27)" stroke="#000000" stroke-width="0.5" stroke-linecap="butt"/><path d="M237.63507,160.62033c0,-0.6316 0.51201,-1.14361 1.14361,-1.14361c0.6316,0 1.14361,0.51201 1.14361,1.14361c0,0.6316 -0.51201,1.14361 -1.14361,1.14361c-0.6316,0 -1.14361,-0.51201 -1.14361,-1.14361z" fill="#caff00" stroke="none" stroke-width="0.5" stroke-linecap="butt"/><path d="M240.27845,160.64538c0,-0.6316 0.51201,-1.14361 1.14361,-1.14361c0.6316,0 1.14361,0.51201 1.14361,1.14361c0,0.6316 -0.51201,1.14361 -1.14361,1.14361c-0.6316,0 -1.14361,-0.51201 -1.14361,-1.14361z" fill="#00fcff" stroke="none" stroke-width="0.5" stroke-linecap="butt"/><path d="M246.40617,190.46755v-13.13783c0,0 1.6533,8.81914 2.23134,10.94846c0.45733,1.68467 2.17585,5.19813 2.17585,5.19813z" fill="url(#color-28)" stroke="url(#color-29)" stroke-width="0.5" stroke-linecap="butt"/><path d="M229.18665,193.40878c0,0 1.71852,-3.51346 2.17585,-5.19812c0.57804,-2.12932 2.23134,-10.94846 2.23134,-10.94846v13.13783z" data-paper-data="{&quot;index&quot;:null}" fill="url(#color-30)" stroke="url(#color-31)" stroke-width="0.5" stroke-linecap="butt"/><path d="M233.57593,190.45445v-21.0761h12.84566v21.0761z" fill="url(#color-32)" stroke="url(#color-33)" stroke-width="0.5" stroke-linecap="butt"/><g stroke-width="0.5"><path d="M240.45794,183.13216v-5.24584h5.03852v5.24584z" fill="url(#color-34)" stroke="url(#color-35)" stroke-linecap="butt"/><path d="M245.47126,177.95943l-5.02687,5.10342" fill="none" stroke="url(#color-36)" stroke-linecap="round"/><path d="M245.47126,183.08836l-4.97583,-5.17997" fill="none" stroke="url(#color-37)" stroke-linecap="round"/></g><g stroke-width="0.5"><path d="M234.43591,183.15768v-5.24584h5.03852v5.24584z" fill="url(#color-38)" stroke="url(#color-39)" stroke-linecap="butt"/><path d="M234.42236,183.08837l5.02687,-5.10342" fill="none" stroke="url(#color-40)" stroke-linecap="round"/><path d="M234.47339,177.93391l4.97583,5.17997" fill="none" stroke="url(#color-41)" stroke-linecap="round"/></g><g stroke-width="0.5"><path d="M240.45794,189.20964v-5.24584h5.03852v5.24584z" fill="url(#color-42)" stroke="url(#color-43)" stroke-linecap="butt"/><path d="M245.47126,184.03691l-5.02687,5.10342" fill="none" stroke="url(#color-44)" stroke-linecap="round"/><path d="M245.47126,189.16584l-4.97583,-5.17997" fill="none" stroke="url(#color-45)" stroke-linecap="round"/></g><g stroke-width="0.5"><path d="M234.43591,189.23516v-5.24584h5.03852v5.24584z" fill="url(#color-46)" stroke="url(#color-47)" stroke-linecap="butt"/><path d="M234.42236,189.16584l5.02687,-5.10342" fill="none" stroke="url(#color-48)" stroke-linecap="round"/><path d="M239.44923,189.19136l-4.97583,-5.17997" fill="none" stroke="url(#color-49)" stroke-linecap="round"/></g><g stroke-width="0.5"><path d="M234.22632,176.75396v-6.32058h11.46618v6.32058z" fill="url(#color-50)" stroke="url(#color-51)" stroke-linecap="butt"/><path d="M245.01568,171.09871h-10.19216" fill="none" stroke="url(#color-52)" stroke-linecap="round"/><path d="M234.86334,176.1256h10.0329" fill="none" stroke="url(#color-53)" stroke-linecap="round"/></g><path d="M215.27327,167.03273v-12.39235h25.93332v8.69862h-15.56684v3.69373z" fill-opacity="0.53453" fill="#000000" stroke="#a60000" stroke-width="0" stroke-linecap="butt"/><text transform="translate(215.70712,161.61518) scale(0.21839,0.21839)" font-size="40" xml:space="preserve" fill="#ffffff" fill-rule="nonzero" stroke="#000000" stroke-width="0" stroke-linecap="butt" stroke-linejoin="miter" stroke-miterlimit="10" stroke-dasharray="" stroke-dashoffset="0" font-family="Serif" font-weight="normal" text-anchor="start" style="mix-blend-mode: normal"><tspan x="0" dy="0">Rocket</tspan></text><text transform="translate(215.56527,166.16682) scale(0.11601,0.11601)" font-size="40" xml:space="preserve" fill="#ffffff" fill-rule="nonzero" stroke="#000000" stroke-width="0" stroke-linecap="butt" stroke-linejoin="miter" stroke-miterlimit="10" stroke-dasharray="" stroke-dashoffset="0" font-family="Serif" font-weight="normal" text-anchor="start" style="mix-blend-mode: normal"><tspan x="0" dy="0">3-3-1</tspan></text></g></g></svg>