<svg version="1.1" xmlns="http://www.w3.org/2000/svg" xmlns:xlink="http://www.w3.org/1999/xlink" width="92" height="92.00001" viewBox="0,0,92,92.00001"><defs><radialGradient cx="240.00004" cy="180" r="46" gradientUnits="userSpaceOnUse" id="color-1"><stop offset="0" stop-color="#000000"/><stop offset="1" stop-color="#000000" stop-opacity="0"/></radialGradient><linearGradient x1="240.00004" y1="134" x2="240.00004" y2="225.99998" gradientUnits="userSpaceOnUse" id="color-2"><stop offset="0" stop-color="#7f8782"/><stop offset="1" stop-color="#404543"/></linearGradient><radialGradient cx="240.00004" cy="180.00004" r="36.03334" gradientUnits="userSpaceOnUse" id="color-3"><stop offset="0" stop-color="#344848"/><stop offset="1" stop-color="#0f241d"/></radialGradient><linearGradient x1="240.00004" y1="143.96666" x2="240.00004" y2="216.03336" gradientUnits="userSpaceOnUse" id="color-4"><stop offset="0" stop-color="#6fa08f"/><stop offset="1" stop-color="#456b5a"/></linearGradient><linearGradient x1="239.30688" y1="149.72204" x2="239.30688" y2="210.27797" gradientUnits="userSpaceOnUse" id="color-5"><stop offset="0" stop-color="#b0ffe3"/><stop offset="1" stop-color="#8fffc7"/></linearGradient></defs><g transform="translate(-194,-134)"><g data-paper-data="{&quot;isPaintingLayer&quot;:true}" fill-rule="nonzero" stroke-linejoin="miter" stroke-miterlimit="10" stroke-dasharray="" stroke-dashoffset="0" style="mix-blend-mode: normal"><path d="M286,180c0,25.4051 -20.5949,46 -46,46c-25.4051,0 -46,-20.5949 -46,-46c0,-25.4051 20.5949,-46 46,-46c25.4051,0 46,20.5949 46,46z" fill="url(#color-1)" stroke="url(#color-2)" stroke-width="0" stroke-linecap="butt"/><path d="M276.03335,180.00004c0,19.90067 -16.13267,36.03333 -36.03334,36.03333c-19.90067,0 -36.03333,-16.13267 -36.03333,-36.03333c0,-19.90067 16.13267,-36.03334 36.03333,-36.03334c19.90067,0 36.03334,16.13268 36.03334,36.03334z" fill="url(#color-3)" stroke="url(#color-4)" stroke-width="3" stroke-linecap="butt"/><path d="M232.30685,210.09992l-1.16953,-10.03496l-2.18367,-6.07774l-2.04766,-3.99278c0,0 -3.5559,-6.83597 -3.91572,-10.37785c-0.35982,-3.54188 1.86817,-7.42741 3.46689,-8.76188c1.59872,-1.33446 2.39253,12.09312 2.39253,12.09312l-1.65896,-28.65017c0,0 1.65984,-4.52749 4.2857,-4.57523c2.62585,-0.04773 2.35251,4.29394 2.35251,4.29394c0,0 0.06893,5.32568 0.23877,8.1948c0.21511,3.63378 0.81804,18.90315 0.81804,18.90315c0,0 1.65948,-11.40709 4.71282,-11.42222c3.10277,-0.01537 2.91246,10.58264 2.91246,10.58264c0,0 1.51745,-10.40023 3.97947,-10.36549c2.70842,0.03821 3.01585,10.43104 3.01585,10.43104c0,0 0.85465,-10.29726 3.43673,-10.28831c4.04845,0.01404 4.10534,7.15321 4.10534,7.15321l-2.89304,14.02642l-4.41165,10.41218l-0.72382,8.63418z" fill="none" stroke="url(#color-5)" stroke-width="2" stroke-linecap="round"/></g></g></svg>