<svg version="1.1" xmlns="http://www.w3.org/2000/svg" xmlns:xlink="http://www.w3.org/1999/xlink" width="103.98146" height="47.52609" viewBox="0,0,103.98146,47.52609"><defs><linearGradient x1="240" y1="157.48689" x2="240" y2="202.51304" gradientUnits="userSpaceOnUse" id="color-1"><stop offset="0" stop-color="#6b4c85"/><stop offset="1" stop-color="#b33636"/></linearGradient><linearGradient x1="240" y1="157.48689" x2="240" y2="202.51304" gradientUnits="userSpaceOnUse" id="color-2"><stop offset="0" stop-color="#d6c4ff"/><stop offset="1" stop-color="#ffadad"/></linearGradient><radialGradient cx="271.14999" cy="187.68081" r="12.42517" gradientUnits="userSpaceOnUse" id="color-3"><stop offset="0" stop-color="#494949"/><stop offset="1" stop-color="#1b1b1b"/></radialGradient><linearGradient x1="271.14999" y1="185.12132" x2="271.14999" y2="190.24031" gradientUnits="userSpaceOnUse" id="color-4"><stop offset="0" stop-color="#353535"/><stop offset="1" stop-color="#191919"/></linearGradient><linearGradient x1="276.61964" y1="184.6236" x2="277.78769" y2="184.42704" gradientUnits="userSpaceOnUse" id="color-5"><stop offset="0" stop-color="#8a8a8a"/><stop offset="1" stop-color="#535353"/></linearGradient><linearGradient x1="277.0587" y1="183.4921" x2="277.34863" y2="185.55854" gradientUnits="userSpaceOnUse" id="color-6"><stop offset="0" stop-color="#353535"/><stop offset="1" stop-color="#191919"/></linearGradient><linearGradient x1="265.7373" y1="184.49086" x2="264.56926" y2="184.29429" gradientUnits="userSpaceOnUse" id="color-7"><stop offset="0" stop-color="#8a8a8a"/><stop offset="1" stop-color="#535353"/></linearGradient><linearGradient x1="265.29824" y1="183.35936" x2="265.00832" y2="185.42579" gradientUnits="userSpaceOnUse" id="color-8"><stop offset="0" stop-color="#353535"/><stop offset="1" stop-color="#191919"/></linearGradient><radialGradient cx="271.2809" cy="178.53933" r="13.38519" gradientUnits="userSpaceOnUse" id="color-9"><stop offset="0" stop-color="#73455f" stop-opacity="0.40995"/><stop offset="1" stop-color="#73455f" stop-opacity="0"/></radialGradient><radialGradient cx="271.2809" cy="178.49172" r="10.86683" gradientUnits="userSpaceOnUse" id="color-10"><stop offset="0" stop-color="#eb73bd" stop-opacity="0.60996"/><stop offset="1" stop-color="#eb73bd" stop-opacity="0"/></radialGradient><radialGradient cx="271.2809" cy="178.49172" r="9.19967" gradientUnits="userSpaceOnUse" id="color-11"><stop offset="0" stop-color="#ff4faa" stop-opacity="0"/><stop offset="1" stop-color="#ff4faa" stop-opacity="0.08997"/></radialGradient><radialGradient cx="271.2809" cy="178.49172" r="7.56493" gradientUnits="userSpaceOnUse" id="color-12"><stop offset="0" stop-color="#ff82f8" stop-opacity="0.11996"/><stop offset="1" stop-color="#ff8fc4"/></radialGradient><radialGradient cx="267.71614" cy="189.42981" r="12.50853" gradientUnits="userSpaceOnUse" id="color-13"><stop offset="0" stop-color="#8a8a8a"/><stop offset="1" stop-color="#535353"/></radialGradient><linearGradient x1="271.18543" y1="187.53874" x2="271.18543" y2="194.88055" gradientUnits="userSpaceOnUse" id="color-14"><stop offset="0" stop-color="#353535"/><stop offset="1" stop-color="#191919"/></linearGradient><linearGradient x1="270.25738" y1="188.96284" x2="272.11402" y2="188.96284" gradientUnits="userSpaceOnUse" id="color-15"><stop offset="0" stop-color="#8a8a8a"/><stop offset="1" stop-color="#535353"/></linearGradient><linearGradient x1="271.1857" y1="187.46325" x2="271.1857" y2="190.46243" gradientUnits="userSpaceOnUse" id="color-16"><stop offset="0" stop-color="#353535"/><stop offset="1" stop-color="#191919"/></linearGradient><linearGradient x1="279.72698" y1="186.81589" x2="281.56208" y2="186.53392" gradientUnits="userSpaceOnUse" id="color-17"><stop offset="0" stop-color="#8a8a8a"/><stop offset="1" stop-color="#535353"/></linearGradient><linearGradient x1="280.41678" y1="185.19271" x2="280.87228" y2="188.1571" gradientUnits="userSpaceOnUse" id="color-18"><stop offset="0" stop-color="#353535"/><stop offset="1" stop-color="#191919"/></linearGradient><linearGradient x1="262.62996" y1="186.62547" x2="260.79486" y2="186.34349" gradientUnits="userSpaceOnUse" id="color-19"><stop offset="0" stop-color="#8a8a8a"/><stop offset="1" stop-color="#535353"/></linearGradient><linearGradient x1="261.94016" y1="185.00229" x2="261.48465" y2="187.96667" gradientUnits="userSpaceOnUse" id="color-20"><stop offset="0" stop-color="#353535"/><stop offset="1" stop-color="#191919"/></linearGradient><radialGradient cx="267.7335" cy="193.44281" r="0.71141" gradientUnits="userSpaceOnUse" id="color-21"><stop offset="0" stop-color="#ff00b6"/><stop offset="1" stop-color="#ff2e2e"/></radialGradient><radialGradient cx="271.24309" cy="193.71819" r="0.7114" gradientUnits="userSpaceOnUse" id="color-22"><stop offset="0" stop-color="#ff00b6"/><stop offset="1" stop-color="#ff2e2e"/></radialGradient><radialGradient cx="274.51094" cy="193.48871" r="0.71141" gradientUnits="userSpaceOnUse" id="color-23"><stop offset="0" stop-color="#ff00b6"/><stop offset="1" stop-color="#ff2e2e"/></radialGradient><radialGradient cx="277.96765" cy="192.98075" r="0.71159" gradientUnits="userSpaceOnUse" id="color-24"><stop offset="0" stop-color="#ff00b6"/><stop offset="1" stop-color="#ff2e2e"/></radialGradient><radialGradient cx="280.90493" cy="192.01363" r="0.71159" gradientUnits="userSpaceOnUse" id="color-25"><stop offset="0" stop-color="#ff00b6"/><stop offset="1" stop-color="#ff2e2e"/></radialGradient><radialGradient cx="283.52468" cy="191.15106" r="0.71159" gradientUnits="userSpaceOnUse" id="color-26"><stop offset="0" stop-color="#ff00b6"/><stop offset="1" stop-color="#ff2e2e"/></radialGradient><radialGradient cx="264.51483" cy="192.88896" r="0.71158" gradientUnits="userSpaceOnUse" id="color-27"><stop offset="0" stop-color="#ff00b6"/><stop offset="1" stop-color="#ff2e2e"/></radialGradient><radialGradient cx="261.57755" cy="191.92183" r="0.71159" gradientUnits="userSpaceOnUse" id="color-28"><stop offset="0" stop-color="#ff00b6"/><stop offset="1" stop-color="#ff2e2e"/></radialGradient><radialGradient cx="258.95781" cy="191.05926" r="0.71159" gradientUnits="userSpaceOnUse" id="color-29"><stop offset="0" stop-color="#ff00b6"/><stop offset="1" stop-color="#ff2e2e"/></radialGradient><radialGradient cx="256.43618" cy="189.74754" r="6.90732" gradientUnits="userSpaceOnUse" id="color-30"><stop offset="0" stop-color="#afafaf"/><stop offset="1" stop-color="#6f6f6f"/></radialGradient><linearGradient x1="257.85602" y1="186.59841" x2="257.85602" y2="198.16666" gradientUnits="userSpaceOnUse" id="color-31"><stop offset="0" stop-color="#353535"/><stop offset="1" stop-color="#191919"/></linearGradient><radialGradient cx="257.10623" cy="189.63329" r="3.39193" gradientUnits="userSpaceOnUse" id="color-32"><stop offset="0" stop-color="#373737"/><stop offset="1" stop-color="#171717"/></radialGradient><linearGradient x1="257.92743" y1="187.63384" x2="257.92743" y2="193.77501" gradientUnits="userSpaceOnUse" id="color-33"><stop offset="0" stop-color="#353535"/><stop offset="1" stop-color="#191919"/></linearGradient></defs><g transform="translate(-188.00927,-156.23695)"><g data-paper-data="{&quot;isPaintingLayer&quot;:true}" fill-rule="nonzero" stroke-linecap="butt" stroke-linejoin="miter" stroke-miterlimit="10" stroke-dasharray="" stroke-dashoffset="0" style="mix-blend-mode: normal"><path d="M189.25927,202.51304v-45.02609h101.48146v45.02609z" fill="url(#color-1)" stroke="url(#color-2)" stroke-width="2.5"/><path d="M271.2214,190.52594c-6.86223,0 -12.49658,-1.43156 -12.49658,-2.84512c0,-1.41357 5.56293,-2.55949 12.42516,-2.55949c6.86223,0 12.42517,1.14593 12.42517,2.55949c0,1.41357 -5.49153,2.84512 -12.35376,2.84512z" fill="url(#color-3)" stroke="url(#color-4)" stroke-width="0.5"/><path d="M277.39348,185.98746l-0.91881,-2.39708l0.56218,-0.36321l1.269,2.27099z" fill="url(#color-5)" stroke="url(#color-6)" stroke-width="0.5"/><path d="M264.05109,185.36543l1.269,-2.271l0.56218,0.36321l-0.91881,2.39708z" data-paper-data="{&quot;index&quot;:null}" fill="url(#color-7)" stroke="url(#color-8)" stroke-width="0.5"/><path d="M257.89572,178.53933c0,-7.39242 5.99276,-13.38519 13.38519,-13.38519c7.39242,0 13.38519,5.99275 13.38519,13.38519c0,7.39242 -5.99275,13.38519 -13.38519,13.38519c-7.39242,0 -13.38519,-5.99275 -13.38519,-13.38519z" fill="url(#color-9)" stroke="none" stroke-width="0.5"/><path d="M260.41407,178.49172c0,-6.00156 4.86524,-10.86683 10.86683,-10.86683c6.00156,0 10.86683,4.86524 10.86683,10.86683c0,6.00156 -4.86524,10.86684 -10.86683,10.86684c-6.00156,0 -10.86683,-4.86525 -10.86683,-10.86684z" fill="url(#color-10)" stroke="none" stroke-width="0.5"/><path d="M262.08123,178.49172c0,-5.08082 4.11883,-9.19967 9.19967,-9.19967c5.08082,0 9.19967,4.11883 9.19967,9.19967c0,5.08082 -4.11883,9.19967 -9.19967,9.19967c-5.08082,0 -9.19967,-4.11883 -9.19967,-9.19967z" fill="url(#color-11)" stroke="none" stroke-width="0.5"/><path d="M263.71598,178.49172c0,-4.17798 3.38693,-7.56492 7.56493,-7.56492c4.17798,0 7.56493,3.38693 7.56493,7.56493c0,4.17798 -3.38693,7.56493 -7.56493,7.56493c-4.17798,0 -7.56493,-3.38693 -7.56493,-7.56493z" fill="url(#color-12)" stroke="none" stroke-width="0.5"/><path d="M257.40376,194.88055l1.27314,-7.34181c0,0 5.8299,2.94785 12.79498,2.94785c6.72107,0 12.22208,-2.94785 12.22208,-2.94785l1.4641,7.28619c0,0 -0.90887,2.63264 -13.37747,2.74121c-12.73044,0.11085 -14.37683,-2.68559 -14.37683,-2.68559z" fill="url(#color-13)" stroke="url(#color-14)" stroke-width="0.5"/><path d="M270.25738,190.46243v-2.99918h1.85663v2.99918z" fill="url(#color-15)" stroke="url(#color-16)" stroke-width="0.5"/><path d="M280.94275,188.77241l-1.44351,-3.43871l0.88324,-0.52103l1.9937,3.25784z" fill="url(#color-17)" stroke="url(#color-18)" stroke-width="0.5"/><path d="M259.98077,187.88008l1.9937,-3.25784l0.88324,0.52103l-1.44351,3.43871z" data-paper-data="{&quot;index&quot;:null}" fill="url(#color-19)" stroke="url(#color-20)" stroke-width="0.5"/><g stroke="none" stroke-width="0.5"><path d="M267.02211,193.44281c0,-0.3929 0.3185,-0.7114 0.7114,-0.7114c0.3929,0 0.7114,0.3185 0.7114,0.7114c0,0.3929 -0.31851,0.71141 -0.7114,0.71141c-0.3929,0 -0.7114,-0.31851 -0.7114,-0.71141z" fill="url(#color-21)"/><path d="M270.53169,193.71819c0,-0.3929 0.31851,-0.7114 0.7114,-0.7114c0.3929,0 0.7114,0.31851 0.7114,0.7114c0,0.3929 -0.3185,0.7114 -0.7114,0.7114c-0.3929,0 -0.7114,-0.3185 -0.7114,-0.7114z" fill="url(#color-22)"/><path d="M273.79954,193.48871c0,-0.3929 0.31851,-0.7114 0.7114,-0.7114c0.3929,0 0.7114,0.3185 0.7114,0.7114c0,0.3929 -0.3185,0.7114 -0.7114,0.7114c-0.3929,0 -0.7114,-0.3185 -0.7114,-0.7114z" fill="url(#color-23)"/><path d="M277.37225,193.17679c-0.09427,-0.37769 0.09589,-0.77163 0.42471,-0.8799c0.32883,-0.10827 0.67181,0.11013 0.76608,0.48782c0.09427,0.37769 -0.09589,0.77163 -0.42471,0.8799c-0.32883,0.10827 -0.67181,-0.11013 -0.76608,-0.48782z" fill="url(#color-24)"/><path d="M280.30954,192.20967c-0.09427,-0.37769 0.09589,-0.77163 0.42471,-0.8799c0.32883,-0.10827 0.67181,0.11013 0.76608,0.48782c0.09427,0.37769 -0.09589,0.77163 -0.42471,0.8799c-0.32883,0.10827 -0.67181,-0.11013 -0.76608,-0.48782z" fill="url(#color-25)"/><path d="M282.92928,191.34709c-0.09427,-0.37769 0.09589,-0.77163 0.42471,-0.8799c0.32883,-0.10827 0.67181,0.11013 0.76608,0.48782c0.09427,0.37769 -0.09589,0.77163 -0.42471,0.8799c-0.32883,0.10827 -0.67181,-0.11013 -0.76608,-0.48782z" fill="url(#color-26)"/><path d="M264.34415,193.57282c-0.32883,-0.10827 -0.51898,-0.50221 -0.42471,-0.8799c0.09427,-0.37769 0.43725,-0.59609 0.76608,-0.48782c0.32883,0.10827 0.51898,0.50221 0.42471,0.8799c-0.09427,0.37769 -0.43725,0.59609 -0.76608,0.48782z" data-paper-data="{&quot;index&quot;:null}" fill="url(#color-27)"/><path d="M261.40687,192.60569c-0.32883,-0.10827 -0.51898,-0.50222 -0.42471,-0.8799c0.09427,-0.37769 0.43725,-0.59608 0.76608,-0.48781c0.32883,0.10827 0.51898,0.50221 0.42471,0.8799c-0.09427,0.37769 -0.43725,0.59609 -0.76608,0.48782z" data-paper-data="{&quot;index&quot;:null}" fill="url(#color-28)"/><path d="M258.78712,191.74312c-0.32883,-0.10827 -0.51898,-0.50221 -0.42471,-0.8799c0.09427,-0.37769 0.43725,-0.59609 0.76608,-0.48782c0.32883,0.10827 0.51898,0.50221 0.42472,0.8799c-0.09427,0.37769 -0.43725,0.59609 -0.76608,0.48782z" data-paper-data="{&quot;index&quot;:null}" fill="url(#color-29)"/></g><path d="M253.75,198.16666v-11.56826h8.21204v11.56826z" fill="url(#color-30)" stroke="url(#color-31)" stroke-width="0.5"/><path d="M254.5355,193.77501v-6.14118h6.78385v6.14118z" fill="url(#color-32)" stroke="url(#color-33)" stroke-width="0.5"/><text transform="translate(255.321,189.61186) scale(0.0279,0.0279)" font-size="40" xml:space="preserve" fill="#ffde00" fill-rule="nonzero" stroke="none" stroke-width="1" stroke-linecap="butt" stroke-linejoin="miter" stroke-miterlimit="10" stroke-dasharray="" stroke-dashoffset="0" font-family="Pixel" font-weight="normal" text-anchor="start" style="mix-blend-mode: normal"><tspan x="0" dy="0">LEVEL 3</tspan></text><text transform="translate(255.17818,191.18286) scale(0.0279,0.0279)" font-size="40" xml:space="preserve" fill="#01ff00" fill-rule="nonzero" stroke="none" stroke-width="1" stroke-linecap="butt" stroke-linejoin="miter" stroke-miterlimit="10" stroke-dasharray="" stroke-dashoffset="0" font-family="Pixel" font-weight="normal" text-anchor="start" style="mix-blend-mode: normal"><tspan x="0" dy="0">STATUS: </tspan><tspan x="0" dy="48px">READY</tspan></text><text transform="translate(192.41375,168.46872) scale(0.26492,0.26492)" font-size="40" xml:space="preserve" fill="#ffffff" fill-rule="nonzero" stroke="none" stroke-width="1" stroke-linecap="butt" stroke-linejoin="miter" stroke-miterlimit="10" stroke-dasharray="" stroke-dashoffset="0" font-family="Serif" font-weight="normal" text-anchor="start" style="mix-blend-mode: normal"><tspan x="0" dy="0">Warp Gate Upgrade</tspan></text><text transform="translate(192.65829,175.44392) scale(0.15979,0.15979)" font-size="40" xml:space="preserve" fill="#ffffff" fill-rule="nonzero" stroke="none" stroke-width="1" stroke-linecap="butt" stroke-linejoin="miter" stroke-miterlimit="10" stroke-dasharray="" stroke-dashoffset="0" font-family="Serif" font-weight="normal" text-anchor="start" style="mix-blend-mode: normal"><tspan x="0" dy="0">(Level 3)</tspan></text><text transform="translate(192.3,198.77146) scale(0.15,0.15)" font-size="40" xml:space="preserve" fill="#26ff00" fill-rule="nonzero" stroke="none" stroke-width="1" stroke-linecap="butt" stroke-linejoin="miter" stroke-miterlimit="10" stroke-dasharray="" stroke-dashoffset="0" font-family="Serif" font-weight="normal" text-anchor="start" style="mix-blend-mode: normal"><tspan x="0" dy="0">200k R</tspan></text></g></g></svg>