<svg version="1.1" xmlns="http://www.w3.org/2000/svg" xmlns:xlink="http://www.w3.org/1999/xlink" width="1151.59055" height="531.38302" viewBox="0,0,1151.59055,531.38302"><defs><linearGradient x1="539.95198" y1="26.06732" x2="539.95198" y2="226.10546" gradientUnits="userSpaceOnUse" id="color-1"><stop offset="0" stop-color="#6175cc"/><stop offset="1" stop-color="#2b51ba"/></linearGradient><linearGradient x1="539.80709" y1="-171.08224" x2="539.80709" y2="26.59024" gradientUnits="userSpaceOnUse" id="color-2"><stop offset="0" stop-color="#223499" stop-opacity="0"/><stop offset="1" stop-color="#223499" stop-opacity="0.18994"/></linearGradient><linearGradient x1="540.87928" y1="-101.30389" x2="540.87928" y2="26.91609" gradientUnits="userSpaceOnUse" id="color-3"><stop offset="0" stop-color="#435ac4" stop-opacity="0"/><stop offset="1" stop-color="#435ac4" stop-opacity="0.63802"/></linearGradient><linearGradient x1="539.99827" y1="-45.17859" x2="539.99827" y2="27.24195" gradientUnits="userSpaceOnUse" id="color-4"><stop offset="0" stop-color="#6175cc" stop-opacity="0"/><stop offset="1" stop-color="#6175cc"/></linearGradient><linearGradient x1="270.67766" y1="213.55065" x2="270.67766" y2="298.11023" gradientUnits="userSpaceOnUse" id="color-5"><stop offset="0" stop-color="#2a2a29"/><stop offset="1" stop-color="#181717"/></linearGradient><linearGradient x1="811.17768" y1="213.55065" x2="811.17768" y2="298.11023" gradientUnits="userSpaceOnUse" id="color-6"><stop offset="0" stop-color="#2a2a29"/><stop offset="1" stop-color="#181717"/></linearGradient></defs><g transform="translate(69.42475,171.08224)"><g data-paper-data="{&quot;isPaintingLayer&quot;:true}" fill-rule="nonzero" stroke-linecap="butt" stroke-linejoin="miter" stroke-miterlimit="10" stroke-dasharray="" stroke-dashoffset="0" style="mix-blend-mode: normal"><path d="M-1.53245,226.10546v-200.03814h1082.96884v200.03814z" fill="url(#color-1)" stroke="#963d17" stroke-width="0"/><path d="M-1.23685,26.59024v-197.67248h1082.08787v197.67248z" fill="url(#color-2)" stroke="none" stroke-width="0"/><path d="M-0.16465,26.91609v-128.21998h1082.08787v128.21998z" fill="url(#color-3)" stroke="none" stroke-width="0"/><path d="M-1.04567,27.24195v-72.42054h1082.08787v72.42055z" fill="url(#color-4)" stroke="none" stroke-width="0"/><path d="M541.66203,297.36048c0,0 -540.09584,1.48488 -541.39872,0.27528c-1.13716,-1.05575 -0.17243,-62.46997 -0.51318,-64.11221c-0.05489,-0.26454 -0.04486,-6.47485 -0.04486,-7.47277c0,0 0,-2.5 2.48624,-2.5c0.20269,0 0.38886,0.01661 0.55986,0.04714c0.2585,-0.04714 0.43464,-0.04714 0.43464,-0.04714c4.01277,0.02045 6.71663,-1.3364 10.54122,-1.96771c3.8875,-0.6417 8.04744,0.55838 11.93397,0c2.42029,-0.34773 4.63566,-1.66593 7.05596,-2.01355c5.22381,-0.75028 10.69412,-0.23628 15.91196,-1c6.1221,-0.89607 12.03936,-2.95988 18.20474,-3.01873c4.97249,0 9.94498,0 14.91746,0c1.85627,0 3.73958,0.35015 5.56873,0.03229c1.03298,-0.17951 1.94302,-0.87143 2.98349,-1c4.60546,-0.56907 9.42412,0.57547 14.01744,-0.01355c2.7516,-0.35285 5.48588,-1.01311 8.25976,-1.01873c4.97307,-0.01006 9.19037,0.4927 14.07533,0.99314c0.60968,0.06246 8.4531,-0.06415 9.19741,0.03931c1.03807,0.14429 1.94981,0.82038 2.98245,0.99983c1.82916,0.31787 3.71246,-0.03229 5.56873,-0.03229c7.62448,0 15.24897,0 22.87344,0c0.57235,0 10.00135,-0.00996 10.34323,0.03229c1.04047,0.12857 1.94629,0.84707 2.98349,1c3.88568,0.57292 8.03059,-0.54749 11.93397,0c3.00177,0.42103 5.95829,1.48003 8.95048,2c1.95994,0.3406 4.00337,-0.31845 5.96699,0c4.59819,0.74571 9.22943,1.80618 13.82849,2.98645c4.20972,-0.02943 8.64839,-0.43905 12.82976,-0.01021c5.32797,0.54644 10.98578,1.70428 16.39761,1.01021c1.35582,-0.17389 2.62428,-0.81018 3.97799,-1c6.48131,-0.90881 13.65856,-0.01873 20.19373,-0.01873c9.78265,0 19.87282,0.81359 29.51874,-0.80947c7.22278,-0.26195 14.81089,0.57869 21.99007,-0.18201c4.61394,-0.48889 9.20139,-1.36938 13.819,-1.8187c4.16207,-0.405 8.74528,0.54443 12.83907,-0.15751c1.03343,-0.1772 1.94314,-0.87145 2.98367,-1.00002c2.6322,-0.32524 5.34272,0.45413 7.95598,0c1.03298,-0.17951 1.94857,-0.83216 2.98349,-1c6.46182,-1.04794 13.95888,-0.03707 20.49327,-0.02376c4.5618,0.75993 8.48733,0.50705 13.02719,1.01021c1.35858,0.15058 2.6198,0.84587 3.97799,1c3.37278,0.38276 7.21228,-0.01873 10.63569,-0.01873c7.62448,0 15.24897,0 22.87344,0c10.07132,0 19.76906,1 29.83493,1c11.93397,0 23.86794,0 35.80191,0c5.5473,0 11.63121,-0.67883 17.15145,0.01217c2.76193,0.34573 5.36146,1.54606 8.10461,2.01936c2.62822,0.45347 5.88657,-0.03153 8.55685,-0.03153c0,0 2.42155,0.30154 2.7894,0.69517c0.39147,0.36989 0.69134,0.9366 0.69134,1.80483c0,0.17434 -0.01209,0.33652 -0.03459,0.4874c1.10401,3.27114 0.98466,72.8223 0.98466,72.8223z" fill="url(#color-5)" stroke="none" stroke-width="0.5"/><path d="M1082.16204,297.36048c0,0 -540.09584,1.48488 -541.39872,0.27528c-1.13716,-1.05575 -0.17243,-62.46997 -0.51318,-64.11221c-0.05489,-0.26454 -0.04486,-6.47485 -0.04486,-7.47277c0,0 0,-2.5 2.48624,-2.5c0.2027,0 0.38887,0.01661 0.55985,0.04714c0.25851,-0.04714 0.43465,-0.04714 0.43465,-0.04714c4.01278,0.02045 6.71663,-1.3364 10.54122,-1.96771c3.8875,-0.6417 8.04744,0.55838 11.93397,0c2.42028,-0.34773 4.63566,-1.66593 7.05596,-2.01355c5.2238,-0.75028 10.69412,-0.23628 15.91196,-1c6.1221,-0.89607 12.03937,-2.95988 18.20474,-3.01873c4.97249,0 9.94497,0 14.91746,0c1.85627,0 3.73958,0.35015 5.56874,0.03229c1.03298,-0.17951 1.94302,-0.87143 2.98349,-1c4.60546,-0.56907 9.42412,0.57547 14.01744,-0.01355c2.7516,-0.35285 5.48588,-1.01311 8.25976,-1.01873c4.97307,-0.01006 9.19038,0.4927 14.07533,0.99314c0.60968,0.06246 8.45311,-0.06415 9.19741,0.03931c1.03807,0.14429 1.94981,0.82038 2.98244,0.99983c1.82916,0.31787 3.71247,-0.03229 5.56874,-0.03229c7.62448,0 15.24896,0 22.87344,0c0.57235,0 10.00135,-0.00996 10.34323,0.03229c1.04047,0.12857 1.94629,0.84707 2.98349,1c3.88567,0.57292 8.03059,-0.54749 11.93397,0c3.00177,0.42103 5.95829,1.48003 8.95048,2c1.95994,0.3406 4.00337,-0.31845 5.96699,0c4.59819,0.74571 9.22943,1.80618 13.82849,2.98645c4.20972,-0.02943 8.6484,-0.43905 12.82976,-0.01021c5.32798,0.54644 10.98577,1.70428 16.39761,1.01021c1.35583,-0.17389 2.62428,-0.81018 3.97799,-1c6.48131,-0.90881 13.65855,-0.01873 20.19373,-0.01873c9.78265,0 19.87282,0.81359 29.51874,-0.80947c7.22279,-0.26195 14.81089,0.57869 21.99007,-0.18201c4.61394,-0.48889 9.2014,-1.36938 13.81901,-1.8187c4.16207,-0.405 8.74527,0.54443 12.83907,-0.15751c1.03343,-0.1772 1.94314,-0.87145 2.98366,-1.00002c2.6322,-0.32524 5.34273,0.45413 7.95598,0c1.03298,-0.17951 1.94858,-0.83216 2.98349,-1c6.46182,-1.04794 13.95888,-0.03707 20.49326,-0.02376c4.5618,0.75993 8.48733,0.50705 13.02719,1.01021c1.35858,0.15058 2.6198,0.84587 3.97799,1c3.37278,0.38276 7.21228,-0.01873 10.6357,-0.01873c7.62448,0 15.24896,0 22.87345,0c10.07131,0 19.76906,1 29.83493,1c11.93397,0 23.86794,0 35.80191,0c5.5473,0 11.63122,-0.67883 17.15145,0.01217c2.76193,0.34573 5.36146,1.54606 8.10461,2.01936c2.62822,0.45347 5.88657,-0.03153 8.55686,-0.03153c0,0 2.42155,0.30154 2.7894,0.69517c0.39146,0.36989 0.69133,0.9366 0.69133,1.80483c0,0.17434 -0.01209,0.33652 -0.03459,0.4874c1.10401,3.27114 0.98466,72.8223 0.98466,72.8223z" fill="url(#color-6)" stroke="none" stroke-width="0.5"/><path d="M-69.42475,357.80078c0,-1.38071 1.11929,-2.5 2.5,-2.5c1.38071,0 2.5,1.11929 2.5,2.5c0,1.38071 -1.11929,2.5 -2.5,2.5c-1.38071,0 -2.5,-1.11929 -2.5,-2.5z" fill="#2a2a29" stroke="none" stroke-width="0.5"/></g></g></svg>