<svg version="1.1" xmlns="http://www.w3.org/2000/svg" xmlns:xlink="http://www.w3.org/1999/xlink" width="59" height="59.70663" viewBox="0,0,59,59.70663"><defs><linearGradient x1="240" y1="151.64675" x2="240" y2="208.35338" gradientUnits="userSpaceOnUse" id="color-1"><stop offset="0" stop-color="#191919"/><stop offset="1" stop-color="#050505"/></linearGradient><linearGradient x1="240" y1="151.64675" x2="240" y2="208.35338" gradientUnits="userSpaceOnUse" id="color-2"><stop offset="0" stop-color="#cccccc"/><stop offset="1" stop-color="#898989"/></linearGradient><linearGradient x1="240" y1="151.64675" x2="240" y2="208.35337" gradientUnits="userSpaceOnUse" id="color-3"><stop offset="0" stop-color="#191919"/><stop offset="1" stop-color="#050505"/></linearGradient><linearGradient x1="240" y1="151.64675" x2="240" y2="208.35337" gradientUnits="userSpaceOnUse" id="color-4"><stop offset="0" stop-color="#cccccc"/><stop offset="1" stop-color="#898989"/></linearGradient><radialGradient cx="240" cy="180.00006" r="26.8571" gradientUnits="userSpaceOnUse" id="color-5"><stop offset="0" stop-color="#ffffff" stop-opacity="0.35484"/><stop offset="1" stop-color="#ffffff" stop-opacity="0"/></radialGradient><linearGradient x1="240" y1="153.29216" x2="240" y2="206.70795" gradientUnits="userSpaceOnUse" id="color-6"><stop offset="0" stop-color="#cccccc"/><stop offset="1" stop-color="#898989"/></linearGradient><linearGradient x1="217.94001" y1="180.00002" x2="262.05998" y2="180.00002" gradientUnits="userSpaceOnUse" id="color-7"><stop offset="0" stop-color="#303030"/><stop offset="1" stop-color="#171717"/></linearGradient><linearGradient x1="217.94001" y1="180.00002" x2="262.05998" y2="180.00002" gradientUnits="userSpaceOnUse" id="color-8"><stop offset="0" stop-color="#272727"/><stop offset="1" stop-color="#000000"/></linearGradient><radialGradient cx="239.99998" cy="180.00002" r="18.30312" gradientUnits="userSpaceOnUse" id="color-9"><stop offset="0" stop-color="#734c45" stop-opacity="0.40995"/><stop offset="1" stop-color="#734c45" stop-opacity="0"/></radialGradient><radialGradient cx="239.99998" cy="179.93493" r="14.85948" gradientUnits="userSpaceOnUse" id="color-10"><stop offset="0" stop-color="#eb8c73" stop-opacity="0.60996"/><stop offset="1" stop-color="#eb8c73" stop-opacity="0"/></radialGradient><radialGradient cx="239.99998" cy="179.93493" r="12.57977" gradientUnits="userSpaceOnUse" id="color-11"><stop offset="0" stop-color="#ff734f" stop-opacity="0"/><stop offset="1" stop-color="#ff734f" stop-opacity="0.08997"/></radialGradient><radialGradient cx="239.99998" cy="179.93493" r="10.34439" gradientUnits="userSpaceOnUse" id="color-12"><stop offset="0" stop-color="#ffa282" stop-opacity="0.11996"/><stop offset="1" stop-color="#ffab8f"/></radialGradient><linearGradient x1="218.56082" y1="179.97101" x2="221.51795" y2="179.97101" gradientUnits="userSpaceOnUse" id="color-13"><stop offset="0" stop-color="#9d9d9d"/><stop offset="1" stop-color="#4c4c4c"/></linearGradient><linearGradient x1="218.56082" y1="179.97101" x2="221.51795" y2="179.97101" gradientUnits="userSpaceOnUse" id="color-14"><stop offset="0" stop-color="#272727"/><stop offset="1" stop-color="#000000"/></linearGradient><linearGradient x1="258.56902" y1="179.97101" x2="261.52616" y2="179.97101" gradientUnits="userSpaceOnUse" id="color-15"><stop offset="0" stop-color="#9d9d9d"/><stop offset="1" stop-color="#4c4c4c"/></linearGradient><linearGradient x1="258.56902" y1="179.97101" x2="261.52616" y2="179.97101" gradientUnits="userSpaceOnUse" id="color-16"><stop offset="0" stop-color="#272727"/><stop offset="1" stop-color="#000000"/></linearGradient><linearGradient x1="218.48005" y1="185.44104" x2="261.51994" y2="185.44104" gradientUnits="userSpaceOnUse" id="color-17"><stop offset="0" stop-color="#272727"/><stop offset="1" stop-color="#000000"/></linearGradient><linearGradient x1="218.48005" y1="185.49289" x2="261.51994" y2="185.49289" gradientUnits="userSpaceOnUse" id="color-18"><stop offset="0" stop-color="#272727"/><stop offset="1" stop-color="#000000"/></linearGradient><linearGradient x1="218.57945" y1="174.01013" x2="261.61934" y2="174.01013" gradientUnits="userSpaceOnUse" id="color-19"><stop offset="0" stop-color="#272727"/><stop offset="1" stop-color="#000000"/></linearGradient><linearGradient x1="218.57945" y1="174.06198" x2="261.61934" y2="174.06198" gradientUnits="userSpaceOnUse" id="color-20"><stop offset="0" stop-color="#272727"/><stop offset="1" stop-color="#000000"/></linearGradient><linearGradient x1="218.05444" y1="192.75767" x2="261.54162" y2="192.75767" gradientUnits="userSpaceOnUse" id="color-21"><stop offset="0" stop-color="#c7a895"/><stop offset="1" stop-color="#322c27"/></linearGradient><linearGradient x1="218.05444" y1="192.75767" x2="261.54162" y2="192.75767" gradientUnits="userSpaceOnUse" id="color-22"><stop offset="0" stop-color="#272727"/><stop offset="1" stop-color="#000000"/></linearGradient><linearGradient x1="218.25325" y1="167.31145" x2="261.74043" y2="167.31145" gradientUnits="userSpaceOnUse" id="color-23"><stop offset="0" stop-color="#c7a895"/><stop offset="1" stop-color="#322c27"/></linearGradient><linearGradient x1="218.25325" y1="167.31145" x2="261.74043" y2="167.31145" gradientUnits="userSpaceOnUse" id="color-24"><stop offset="0" stop-color="#272727"/><stop offset="1" stop-color="#000000"/></linearGradient></defs><g transform="translate(-210.5,-150.14675)"><g data-paper-data="{&quot;isPaintingLayer&quot;:true}" fill-rule="nonzero" stroke-linejoin="miter" stroke-miterlimit="10" stroke-dasharray="" stroke-dashoffset="0" style="mix-blend-mode: normal"><path d="M212,208.35338v-56.70662h56v56.70662z" fill="url(#color-1)" stroke="url(#color-2)" stroke-width="3" stroke-linecap="butt"/><path d="M212,208.35337v-56.70662h56v56.70662z" fill="url(#color-3)" stroke="url(#color-4)" stroke-width="3" stroke-linecap="butt"/><path d="M266.8571,180.00006c0,14.75036 -12.02433,26.70789 -26.8571,26.70789c-14.83277,0 -26.8571,-11.95753 -26.8571,-26.70789c0,-14.75036 12.02433,-26.70789 26.8571,-26.70789c14.83277,0 26.8571,11.95753 26.8571,26.70789z" fill="url(#color-5)" stroke="url(#color-6)" stroke-width="0" stroke-linecap="butt"/><path d="M217.94001,194.45066v-28.90127h44.11998v28.90127z" fill="url(#color-7)" stroke="url(#color-8)" stroke-width="1.5" stroke-linecap="butt"/><path d="M221.69688,180.00002c0,-10.10851 8.19459,-18.30312 18.30312,-18.30312c10.10851,0 18.30312,8.19459 18.30312,18.30312c0,10.10851 -8.19459,18.30312 -18.30312,18.30312c-10.10851,0 -18.30312,-8.19459 -18.30312,-18.30312z" fill="url(#color-9)" stroke="none" stroke-width="0.5" stroke-linecap="butt"/><path d="M225.1405,179.93493c0,-8.20662 6.6528,-14.85947 14.85948,-14.85947c8.20662,0 14.85948,6.6528 14.85948,14.85947c0,8.20662 -6.6528,14.85948 -14.85948,14.85948c-8.20662,0 -14.85948,-6.6528 -14.85948,-14.85948z" fill="url(#color-10)" stroke="none" stroke-width="0.5" stroke-linecap="butt"/><path d="M227.42021,179.93493c0,-6.94759 5.63215,-12.57977 12.57978,-12.57977c6.94759,0 12.57977,5.63214 12.57977,12.57977c0,6.94759 -5.63215,12.57978 -12.57977,12.57978c-6.94759,0 -12.57978,-5.63215 -12.57978,-12.57978z" fill="url(#color-11)" stroke="none" stroke-width="0.5" stroke-linecap="butt"/><path d="M229.65559,179.93493c0,-5.71304 4.63135,-10.34439 10.3444,-10.34439c5.71304,0 10.3444,4.63134 10.3444,10.34439c0,5.71304 -4.63135,10.3444 -10.3444,10.3444c-5.71304,0 -10.3444,-4.63135 -10.3444,-10.3444z" fill="url(#color-12)" stroke="none" stroke-width="0.5" stroke-linecap="butt"/><path d="M218.56082,191.27768v-22.61333h2.95712v22.61333z" fill="url(#color-13)" stroke="url(#color-14)" stroke-width="0" stroke-linecap="butt"/><path d="M258.56902,191.27768v-22.61333h2.95712v22.61333z" fill="url(#color-15)" stroke="url(#color-16)" stroke-width="0" stroke-linecap="butt"/><path d="M218.48005,191.37908l2.38558,-11.87605l2.28618,11.87605l3.08138,-11.77233l3.08138,11.72047l5.36756,-11.72047l5.16877,11.77233l4.57237,-11.72047l5.16877,11.66861l3.47897,-11.66861l3.77717,11.77233l2.38558,-11.72047l2.28618,11.61675" fill="none" stroke="url(#color-17)" stroke-width="0.5" stroke-linecap="round"/><path d="M261.51994,179.60673l-2.28618,11.61675l-2.38558,-11.72047l-3.77717,11.77233l-3.47897,-11.66861l-5.16877,11.66861l-4.57237,-11.72047l-5.16877,11.77233l-5.36756,-11.72047l-3.08138,11.72047l-3.08138,-11.77233l-2.28618,11.87605l-2.38558,-11.87605" data-paper-data="{&quot;index&quot;:null}" fill="none" stroke="url(#color-18)" stroke-width="0.5" stroke-linecap="round"/><path d="M218.57945,179.94814l2.38558,-11.87605l2.28618,11.87605l3.08138,-11.77233l3.08138,11.72047l5.36756,-11.72047l5.16877,11.77233l4.57237,-11.72047l5.16877,11.66861l3.47897,-11.66861l3.77717,11.77233l2.38558,-11.72047l2.28618,11.61675" fill="none" stroke="url(#color-19)" stroke-width="0.5" stroke-linecap="round"/><path d="M261.61934,168.17583l-2.28618,11.61675l-2.38558,-11.72047l-3.77717,11.77233l-3.47897,-11.66861l-5.16877,11.66861l-4.57237,-11.72047l-5.16877,11.77233l-5.36756,-11.72047l-3.08138,11.72047l-3.08138,-11.77233l-2.28618,11.87605l-2.38558,-11.87605" data-paper-data="{&quot;index&quot;:null}" fill="none" stroke="url(#color-20)" stroke-width="0.5" stroke-linecap="round"/><path d="M218.05444,194.03329v-2.55124h43.48718v2.55124z" fill="url(#color-21)" stroke="url(#color-22)" stroke-width="0.5" stroke-linecap="butt"/><path d="M218.25325,168.58709v-2.55124h43.48718v2.55124z" fill="url(#color-23)" stroke="url(#color-24)" stroke-width="0.5" stroke-linecap="butt"/><path d="M215.27327,163.339v-8.69862h38.82554v8.69862z" fill-opacity="0.53453" fill="#000000" stroke="#a60000" stroke-width="0" stroke-linecap="butt"/><text transform="translate(215.70712,161.61523) scale(0.21839,0.21839)" font-size="40" xml:space="preserve" fill="#ffffff" fill-rule="nonzero" stroke="#000000" stroke-width="0" stroke-linecap="butt" stroke-linejoin="miter" stroke-miterlimit="10" stroke-dasharray="" stroke-dashoffset="0" font-family="Serif" font-weight="normal" text-anchor="start" style="mix-blend-mode: normal"><tspan x="0" dy="0">Interstellar</tspan></text></g></g></svg>