<svg version="1.1" xmlns="http://www.w3.org/2000/svg" xmlns:xlink="http://www.w3.org/1999/xlink" width="20.18586" height="15.27657" viewBox="0,0,20.18586,15.27657"><defs><radialGradient cx="262.71468" cy="178.1969" r="5.22911" gradientUnits="userSpaceOnUse" id="color-1"><stop offset="0" stop-color="#97a89b"/><stop offset="1" stop-color="#687365"/></radialGradient><linearGradient x1="266.18585" y1="174.78145" x2="257.4542" y2="183.80415" gradientUnits="userSpaceOnUse" id="color-2"><stop offset="0" stop-color="#cccccc"/><stop offset="1" stop-color="#898989"/></linearGradient><radialGradient cx="257.43221" cy="181.11543" r="3.64526" gradientUnits="userSpaceOnUse" id="color-3"><stop offset="0" stop-color="#c4d9ca"/><stop offset="1" stop-color="#89948b"/></radialGradient><linearGradient x1="259.05233" y1="178.68526" x2="259.05233" y2="185.84078" gradientUnits="userSpaceOnUse" id="color-4"><stop offset="0" stop-color="#cccccc"/><stop offset="1" stop-color="#898989"/></linearGradient><radialGradient cx="266.65466" cy="172.38203" r="5.22911" gradientUnits="userSpaceOnUse" id="color-5"><stop offset="0" stop-color="#97a89b"/><stop offset="1" stop-color="#687365"/></radialGradient><linearGradient x1="270.12583" y1="168.96659" x2="261.39419" y2="177.98929" gradientUnits="userSpaceOnUse" id="color-6"><stop offset="0" stop-color="#cccccc"/><stop offset="1" stop-color="#898989"/></linearGradient><radialGradient cx="261.37219" cy="175.30057" r="3.64526" gradientUnits="userSpaceOnUse" id="color-7"><stop offset="0" stop-color="#c4d9ca"/><stop offset="1" stop-color="#89948b"/></radialGradient><linearGradient x1="262.99231" y1="172.8704" x2="262.99231" y2="180.02591" gradientUnits="userSpaceOnUse" id="color-8"><stop offset="0" stop-color="#cccccc"/><stop offset="1" stop-color="#898989"/></linearGradient><radialGradient cx="269.81793" cy="178.61338" r="5.22911" gradientUnits="userSpaceOnUse" id="color-9"><stop offset="0" stop-color="#97a89b"/><stop offset="1" stop-color="#687365"/></radialGradient><linearGradient x1="273.28909" y1="175.19793" x2="264.55745" y2="184.22064" gradientUnits="userSpaceOnUse" id="color-10"><stop offset="0" stop-color="#cccccc"/><stop offset="1" stop-color="#898989"/></linearGradient><radialGradient cx="264.53546" cy="181.53191" r="3.64526" gradientUnits="userSpaceOnUse" id="color-11"><stop offset="0" stop-color="#c4d9ca"/><stop offset="1" stop-color="#89948b"/></radialGradient><linearGradient x1="266.15557" y1="179.10174" x2="266.15557" y2="186.25726" gradientUnits="userSpaceOnUse" id="color-12"><stop offset="0" stop-color="#cccccc"/><stop offset="1" stop-color="#898989"/></linearGradient></defs><g transform="translate(-255.40707,-171.02435)"><g data-paper-data="{&quot;isPaintingLayer&quot;:true}" fill-rule="nonzero" stroke-width="0" stroke-linecap="butt" stroke-linejoin="miter" stroke-miterlimit="10" stroke-dasharray="" stroke-dashoffset="0" style="mix-blend-mode: normal"><path d="M257.87651,178.88866l6.84151,-2.0022c0,0 2.86435,-0.64263 3.68891,2.8124c0.6982,3.48286 -3.25093,4.31839 -3.25093,4.31839l-5.76144,1.86719z" fill="url(#color-1)" stroke="url(#color-2)"/><path d="M262.69759,182.26302c0,1.97594 -1.63204,3.57776 -3.64526,3.57776c-2.01322,0 -3.64526,-1.60182 -3.64526,-3.57776c0,-1.97594 1.63204,-3.57775 3.64526,-3.57775c2.01322,0 3.64526,1.60182 3.64526,3.57775z" fill="url(#color-3)" stroke="url(#color-4)"/><path d="M261.81649,173.07379l6.84151,-2.0022c0,0 2.86435,-0.64263 3.68891,2.8124c0.6982,3.48286 -3.25092,4.31839 -3.25092,4.31839l-5.76144,1.86719z" fill="url(#color-5)" stroke="url(#color-6)"/><path d="M266.63757,176.44816c0,1.97594 -1.63205,3.57776 -3.64526,3.57776c-2.01322,0 -3.64526,-1.60182 -3.64526,-3.57776c0,-1.97594 1.63204,-3.57776 3.64526,-3.57776c2.01322,0 3.64526,1.60182 3.64526,3.57776z" fill="url(#color-7)" stroke="url(#color-8)"/><path d="M264.97976,179.30514l6.84151,-2.0022c0,0 2.86435,-0.64263 3.68891,2.8124c0.6982,3.48286 -3.25092,4.31839 -3.25092,4.31839l-5.76144,1.86718z" fill="url(#color-9)" stroke="url(#color-10)"/><path d="M269.80084,182.6795c0,1.97594 -1.63204,3.57775 -3.64526,3.57775c-2.01322,0 -3.64526,-1.60181 -3.64526,-3.57775c0,-1.97594 1.63204,-3.57775 3.64526,-3.57775c2.01322,0 3.64526,1.60182 3.64526,3.57775z" fill="url(#color-11)" stroke="url(#color-12)"/></g></g></svg>