<svg version="1.1" xmlns="http://www.w3.org/2000/svg" xmlns:xlink="http://www.w3.org/1999/xlink" width="97.67679" height="104.40042" viewBox="0,0,97.67679,104.40042"><defs><linearGradient x1="232.05331" y1="202.54262" x2="245.28718" y2="202.54262" gradientUnits="userSpaceOnUse" id="color-1"><stop offset="0" stop-color="#515151"/><stop offset="1" stop-color="#242424"/></linearGradient><linearGradient x1="224.58993" y1="177.30136" x2="252.01047" y2="177.30136" gradientUnits="userSpaceOnUse" id="color-2"><stop offset="0" stop-color="#ffa000"/><stop offset="1" stop-color="#de6b00"/></linearGradient><radialGradient cx="238.21976" cy="177.62112" r="23.84227" gradientUnits="userSpaceOnUse" id="color-3"><stop offset="0" stop-color="#010101"/><stop offset="1" stop-color="#dedede"/></radialGradient><linearGradient x1="238.76759" y1="156.39508" x2="238.76759" y2="163.24613" gradientUnits="userSpaceOnUse" id="color-4"><stop offset="0" stop-color="#c28b5f"/><stop offset="1" stop-color="#ffb87d"/></linearGradient><radialGradient cx="234.73154" cy="133.74288" r="13.11833" gradientUnits="userSpaceOnUse" id="color-5"><stop offset="0" stop-color="#ffd9ba"/><stop offset="1" stop-color="#ffb87d"/></radialGradient><radialGradient cx="229.61138" cy="134.97569" r="10.07074" gradientUnits="userSpaceOnUse" id="color-6"><stop offset="0" stop-color="#303030"/><stop offset="1" stop-color="#292929"/></radialGradient><radialGradient cx="246.08398" cy="132.03505" r="2.65078" gradientUnits="userSpaceOnUse" id="color-7"><stop offset="0" stop-color="#787878"/><stop offset="1" stop-color="#292929"/></radialGradient><radialGradient cx="234.90138" cy="134.03769" r="4.17314" gradientUnits="userSpaceOnUse" id="color-8"><stop offset="0" stop-color="#a7a7a7"/><stop offset="1" stop-color="#292929"/></radialGradient><radialGradient cx="218.30302" cy="192.42544" r="12.35841" gradientUnits="userSpaceOnUse" id="color-9"><stop offset="0" stop-color="#dedede"/><stop offset="1" stop-color="#9c9c9c"/></radialGradient><radialGradient cx="258.13125" cy="192.51016" r="12.35841" gradientUnits="userSpaceOnUse" id="color-10"><stop offset="0" stop-color="#dedede"/><stop offset="1" stop-color="#9c9c9c"/></radialGradient></defs><g transform="translate(-190.10708,-129.97443)"><g data-paper-data="{&quot;isPaintingLayer&quot;:true}" fill-rule="nonzero" stroke-linejoin="miter" stroke-miterlimit="10" stroke-dasharray="" stroke-dashoffset="0" style="mix-blend-mode: normal"><path d="M232.05331,204.99334l2.6141,-4.90143h7.51553l3.10424,4.90143z" fill="url(#color-1)" stroke="#000000" stroke-width="0" stroke-linecap="butt"/><path d="M238.28455,201.2444c-14.02176,0.20134 -13.69397,-10.72028 -13.69397,-23.94441c0,-13.22413 0.5759,-23.94441 13.69397,-23.94441c13.63483,0 13.69397,10.72028 13.69397,23.94441c0,13.22413 1.36161,23.72823 -13.69397,23.94441z" fill="url(#color-2)" stroke="#000000" stroke-width="0" stroke-linecap="butt"/><path d="M222.40945,197.38399v-39.52573h31.62062v39.52573z" fill="url(#color-3)" stroke="#ed6b00" stroke-width="0" stroke-linecap="butt"/><g><path d="M252.49165,225.28213c0,0 -7.10119,-24.80352 -8.91969,-28.90834c-0.59463,-1.34222 -3.63877,-0.79297 -3.63877,-0.79297c0,0 -3.83036,-3.53207 -0.27915,-4.27807c3.00131,-0.63047 10.06092,0.11684 10.06092,0.11684l10.60887,32.21726z" data-paper-data="{&quot;index&quot;:null}" fill="#726f7c" stroke="#000000" stroke-width="0" stroke-linecap="butt"/><path d="M267.73553,229.36887c-0.5801,0.12186 -2.58483,0.55694 -4.61763,0.90166c-1.2359,0.20958 -1.98853,-0.21355 -2.93134,-0.16146c-1.18694,0.06559 -2.83045,0.81987 -3.70092,0.80704c-1.60397,-0.02365 -2.48381,-0.27303 -2.48381,-0.27303c0,0 -0.47417,-0.94817 -0.60551,-1.49321c-0.17695,-0.73432 -0.36074,-2.51661 -0.36074,-2.51661c0,0 5.78291,-1.33698 8.08954,-1.61683c1.3649,-0.16559 4.28296,-0.23879 4.28296,-0.23879c0,0 1.55514,0.30235 1.85201,0.67654c0.3636,0.45829 1.26324,1.76669 1.26324,1.76669c0,0 0.0214,1.978 -0.78784,2.14799z" data-paper-data="{&quot;index&quot;:null}" fill="#141415" stroke="#000000" stroke-width="0" stroke-linecap="butt"/><path d="M266.94109,226.90474c-0.24291,0.05103 1.01667,1.42304 -2.28813,1.84287c-3.12079,0.39646 -2.96145,-0.59206 -4.05885,-0.4439c-2.29469,0.30982 -2.41006,1.11429 -3.41982,1.17009c-0.35167,0.01943 -0.52531,-0.00669 -1.94596,-0.58275c-0.97704,-0.39618 -1.01146,-1.57697 -1.72753,-2.06833c-1.04598,-0.71775 -1.17888,-1.67931 -1.17888,-1.67931l-0.70129,-2.96693c0,0 0.92964,2.05969 1.92014,2.69402c0.88622,0.56754 2.26355,-0.49465 2.73688,-0.59423c0.82882,-0.17435 -1.34598,-3.05662 -0.54976,-3.20524c0.42813,-0.07991 3.59511,-0.99441 3.59511,-0.99441c0,0 0.85635,3.47814 1.08847,3.44997c1.3649,-0.16559 4.63896,-0.31358 4.63896,-0.31358c0,0 1.55514,0.30235 1.85202,0.67654c0.3636,0.45829 1.22534,2.76591 1.22534,2.76591c0,0 -0.37747,0.07929 -1.1867,0.24929z" data-paper-data="{&quot;index&quot;:null}" fill="#252527" stroke="#000000" stroke-width="0" stroke-linecap="butt"/><path d="M261.4128,223.94817l-2.38637,1.61645" fill="none" stroke="#ffffff" stroke-width="0.5" stroke-linecap="round"/><path d="M263.19285,223.57424l-2.19291,1.94753" fill="none" stroke="#ffffff" stroke-width="0.5" stroke-linecap="round"/><path d="M263.18583,225.3104l1.12489,-1.72317" fill="none" stroke="#ffffff" stroke-width="0.5" stroke-linecap="round"/><path d="M259.12822,221.33044l-2.08619,0.68605" fill="none" stroke="#969696" stroke-width="0.5" stroke-linecap="round"/><path d="M259.51514,221.99259l-1.82392,0.75487" fill="none" stroke="#969696" stroke-width="0.5" stroke-linecap="round"/></g><g><path d="M232.91901,228.78291l-2.47825,-33.82837c0,0 6.24119,-3.38291 9.25614,-3.94457c3.56735,-0.66457 1.3733,4.06125 1.3733,4.06125c0,0 -3.02357,0.65308 -3.06143,2.12063c-0.11579,4.48811 2.778,30.12534 2.778,30.12534z" fill="#726f7c" stroke="#000000" stroke-width="0" stroke-linecap="butt"/><path d="M248.87132,230.95485c0,0 -0.02385,1.97797 -0.83677,2.12941c-0.58274,0.10856 -2.59688,0.49768 -4.63704,0.7958c-1.24036,0.18125 -1.98312,-0.25897 -2.92688,-0.22846c-1.18813,0.03842 -2.84845,0.7549 -3.71841,0.72216c-1.60301,-0.06032 -2.47691,-0.32976 -2.47691,-0.32976c0,0 -0.45236,-0.95877 -0.57119,-1.50668c-0.1601,-0.73816 -0.30308,-2.52419 -0.30308,-2.52419c0,0 5.81197,-1.20436 8.12441,-1.43137c1.36833,-0.13433 4.2873,-0.14076 4.2873,-0.14076c0,0 1.54781,0.33785 1.83605,0.71873c0.35303,0.46648 1.22251,1.79513 1.22251,1.79513z" data-paper-data="{&quot;index&quot;:null}" fill="#141415" stroke="#000000" stroke-width="0" stroke-linecap="butt"/><path d="M248.48878,230.38054c0,0 -0.37916,0.07064 -1.19209,0.22208c-0.24403,0.04545 0.98384,1.44593 -2.32968,1.79004c-3.12904,0.32496 -2.94714,-0.65964 -4.04763,-0.53662c-2.30118,0.25725 -2.43491,1.05888 -3.4457,1.09155c-0.35202,0.01137 -0.52502,-0.01871 -1.9321,-0.62711c-0.96771,-0.41842 -0.97512,-1.5997 -1.67977,-2.1073c-1.02929,-0.7415 -1.14016,-1.70584 -1.14016,-1.70584l-0.63325,-2.9822c0,0 0.88229,2.08043 1.85802,2.73724c0.87301,0.58767 2.27428,-0.44275 2.74975,-0.53147c0.83258,-0.15536 -1.27572,-3.08662 -0.47632,-3.21699c0.42985,-0.0701 3.61692,-0.91192 3.61692,-0.91192c0,0 0.77657,3.49681 1.00928,3.47396c1.36832,-0.13432 4.64492,-0.20738 4.64492,-0.20738c0,0 1.54781,0.33785 1.83605,0.71873c0.35304,0.46648 1.16175,2.79321 1.16175,2.79321z" data-paper-data="{&quot;index&quot;:null}" fill="#252527" stroke="#000000" stroke-width="0" stroke-linecap="butt"/><path d="M241.83748,227.52035l-2.42271,1.56145" fill="none" stroke="#ffffff" stroke-width="0.5" stroke-linecap="round"/><path d="M241.38871,229.0841l2.23688,-1.89686" fill="none" stroke="#ffffff" stroke-width="0.5" stroke-linecap="round"/><path d="M243.57887,228.92278l1.16401,-1.697" fill="none" stroke="#ffffff" stroke-width="0.5" stroke-linecap="round"/><path d="M237.51203,225.48923l2.10134,-0.63816" fill="none" stroke="#969696" stroke-width="0.5" stroke-linecap="round"/><path d="M239.98502,225.52189l-1.84072,0.71295" fill="none" stroke="#969696" stroke-width="0.5" stroke-linecap="round"/></g><path d="M234.93951,163.24613v-6.85104h7.65615v6.85104z" fill="url(#color-4)" stroke="#000000" stroke-width="0" stroke-linecap="butt"/><path d="M230.49813,194.56428c0,0 -0.11293,-5.56106 -0.90302,-10.9122c-0.53685,-3.63606 -1.7532,-6.87967 -2.03542,-9.36282c-0.5297,-4.66058 -0.88374,-13.35468 -0.88374,-13.35468c0,0 3.65767,-0.76983 5.45147,-0.49356c2.2834,0.35167 7.13803,2.4325 7.13803,2.4325c0,0 3.56299,-2.35291 5.45303,-2.86495c1.99425,-0.54026 6.21665,-0.29648 6.21665,-0.29648c0,0 0.39492,9.2089 0.41037,12.65167c0.01367,3.04602 -0.56794,6.40481 -0.63474,10.91871c-0.06884,4.65232 0.37685,10.41578 0.37685,10.41578c0,0 -2.7922,-0.62959 -5.60696,-0.55605c-1.27827,0.0334 -1.73835,1.095 -2.93606,1.31475c-0.95733,0.17564 -2.66374,-0.47946 -3.58925,-0.46961c-0.69966,0.00744 -2.06788,-0.42707 -2.5617,-0.4063c-0.9971,0.04194 -1.57012,0.94551 -2.71837,1.16293c-1.33382,0.25255 -3.17717,-0.17971 -3.17717,-0.17971z" fill="#ffffff" stroke="#292e32" stroke-width="0" stroke-linecap="butt"/><path d="M251.82916,143.97249c0,7.73092 -5.73774,13.99807 -12.8156,13.99807c-7.07786,0 -12.8156,-6.26715 -12.8156,-13.99807c0,-7.73092 5.73774,-13.99806 12.8156,-13.99806c7.07786,0 12.8156,6.26714 12.8156,13.99806z" fill="url(#color-5)" stroke="none" stroke-width="0" stroke-linecap="butt"/><path d="M238.03342,145.97599c-0.5265,0.91349 -1.43258,0.38383 -1.43258,0.38383c-0.91393,-0.55722 -2.45095,-1.17574 -2.30203,-2.6961c0.1217,-1.24248 2.13973,-2.33997 3.2068,-2.10706c1.93572,0.42253 3.60144,3.95074 0.5278,4.41932z" fill="#191412" stroke="none" stroke-width="0.5" stroke-linecap="butt"/><path d="M242.45053,150.49059c0.14423,-0.46863 0.47533,-0.57039 0.71965,-0.57602c0.0776,-0.00492 0.15695,0.00165 0.23587,0.02089c-0.28158,-1.08168 -0.10408,-2.4792 -0.44462,-3.52597c0,0 -0.2501,-0.78449 0.51677,-1.04033c0.76687,-0.25584 1.01697,0.52865 1.01697,0.52865c0.4101,1.30859 0.71193,2.9192 0.68474,4.31641c-0.01019,0.5236 0.25251,1.23107 -0.14241,1.56432c-0.4098,0.34581 -1.06036,-0.06797 -1.59055,-0.10196l-0.46926,-0.15113c-0.09725,-0.03132 -0.18459,-0.07973 -0.25988,-0.14099c-0.1971,-0.14779 -0.41151,-0.42524 -0.26729,-0.89386z" fill="#191412" stroke="none" stroke-width="0.5" stroke-linecap="butt"/><path d="M249.92236,146.45889c-0.42472,0.9868 -1.15568,0.41464 -1.15568,0.41464c-0.73728,-0.60194 -1.97722,-1.27009 -1.85707,-2.91248c0.09818,-1.3422 1.72614,-2.52778 2.58696,-2.27617c1.56156,0.45643 2.90532,4.26783 0.42578,4.77401z" fill="#191412" stroke="none" stroke-width="0.5" stroke-linecap="butt"/><g stroke-linecap="butt"><path d="M232.30136,135.02434c-0.17005,0.01306 -0.60745,0.05338 -1.08101,0.12809c-0.52481,0.19981 -1.13701,0.40123 -1.60677,0.62441c-0.30204,0.88846 0.76073,1.81827 -0.69014,2.46543c-2.47444,1.10372 -1.68672,-2.06362 -0.85344,-3.04958c1.28665,-1.08794 3.16128,-1.19356 4.77768,-1.47968c2.22645,-0.39412 4.39964,-1.01947 6.59672,-1.12157c0.08373,-0.08501 0.19742,-0.14125 0.32576,-0.15097l0.58683,-0.04437c0.29649,-0.07344 0.61861,-0.14963 0.95687,-0.22118c0.88034,-0.26117 1.93684,-0.38813 2.92062,-0.46624c0.48312,-0.0876 0.93522,-0.12531 1.30808,-0.08635c0.27415,-0.01627 0.52912,-0.03163 0.75689,-0.04886l0.61862,-0.04678c0.28176,-0.02131 0.52744,0.18983 0.54874,0.47159c0.01896,0.25077 -0.1462,0.47296 -0.38141,0.53382l-0.33106,0.09265c0.14321,0.12391 0.27273,0.26511 0.3863,0.42536l0.23585,-0.11566l0.28911,0.58949c0.03091,0.05949 0.05055,0.12607 0.05593,0.19712c0.02131,0.28176 -0.18983,0.52744 -0.47158,0.54873c-0.08568,0.00647 -0.16803,-0.00853 -0.24176,-0.0405l-0.50408,-0.20613l0.00607,-0.01483l-0.04781,-0.00447c-0.3588,-0.22898 -0.72469,-0.40307 -1.09089,-0.5227c-0.55912,-0.02819 -1.1467,-0.0979 -1.74581,-0.1556c-1.01707,0.15973 -1.94486,0.77427 -2.61733,1.83311c0,0 -0.27523,0.43128 -0.7065,0.15604c-0.43127,-0.27523 -0.15604,-0.70651 -0.15604,-0.70651c0.05884,-0.0918 0.11951,-0.18105 0.1819,-0.26772l-0.28521,0.08639c-0.03819,0.01244 -0.07848,0.02055 -0.12032,0.02371c-0.28176,0.02131 -0.52744,-0.18983 -0.54873,-0.47159c-0.01079,-0.1426 0.03797,-0.27595 0.12529,-0.37565c-0.24508,-0.00307 -0.47675,0.00691 -0.67434,0.05261c-1.38003,0.31921 -3.49383,0.40123 -5.49102,0.67808c0.0077,0.2414 -0.15453,0.45215 -0.38263,0.51117l-0.60014,0.16794l-0.00543,-0.01939l-0.0075,0.00183z" fill="url(#color-6)" stroke="none" stroke-width="0.5"/><path d="M247.44805,131.51318c2.71281,-0.24476 2.68884,-0.20441 2.87705,1.62874c0.18821,1.83315 -0.83074,3.35013 -2.2759,3.38828c-1.44517,0.03816 -2.76929,-1.41698 -2.9575,-3.25013c-0.18821,-1.83315 -0.18749,-1.53738 2.35635,-1.76689z" data-paper-data="{&quot;index&quot;:null}" fill="url(#color-7)" stroke="#000000" stroke-width="0"/><path d="M240.78975,134.0975c0.32856,1.99641 -1.2315,3.91541 -3.48449,4.28618c-2.25298,0.37077 -4.34573,-0.94706 -4.67428,-2.94348c-0.32856,-1.99641 -0.37937,-2.03235 3.90844,-2.54486c4.02075,-0.4806 3.92178,-0.79425 4.25034,1.20216z" fill="url(#color-8)" stroke="#000000" stroke-width="0"/></g><path d="M283.54198,161.09003c-0.0521,0.2164 3.69104,0.48867 3.53622,1.41639c-0.07616,0.4563 -2.42318,-0.27811 -3.33037,0.24601c-0.4802,0.27743 4.29197,0.17452 3.65931,1.31754c-0.2172,0.39241 -3.58068,-0.35186 -4.45076,-0.0202c-0.46577,0.17756 5.18713,0.60783 4.80935,1.38022c-0.22426,0.45852 -3.26421,-0.40436 -4.70081,-0.25803c-0.69988,0.07128 3.77495,0.88512 3.37865,1.42506c-0.24259,0.33051 -4.6496,-0.23416 -4.7045,-0.20126c-0.30856,0.18494 2.26184,1.29593 1.58213,1.49237c-1.25269,0.36204 -2.5383,-0.80603 -3.76457,-1.75329c-0.71647,-0.55345 -1.88213,-0.74192 -1.88213,-0.74192c0,0 -2.88318,-0.92723 -6.39617,-0.81762c-0.84479,0.02636 -3.60303,-0.07643 -4.47057,-0.04094c-2.05326,0.08396 -4.08651,0.2394 -5.34656,0.26041c-2.71014,0.04525 -6.14401,0.02412 -6.14401,0.02412l-0.20696,-5.91771c0,0 4.9046,-0.0488 7.78601,-0.09693c1.17266,-0.01958 2.05797,0.56538 3.87509,0.60522c0.81455,0.01785 4.2894,0.58324 6.42588,0.82993c3.55717,0.41073 5.74788,0.2829 5.74788,0.2829c0,0 4.70724,0.10931 4.59686,0.56775z" data-paper-data="{&quot;index&quot;:null}" fill="#ffb77d" stroke="#000000" stroke-width="0" stroke-linecap="butt"/><path d="M248.81859,164.01549c-0.58138,-5.34044 3.00248,-5.63196 4.9766,-5.61505c1.97412,0.01693 1.59241,-1.63401 2.10099,3.26177c0.42986,4.13801 0.07367,3.54611 -1.90045,3.52919c-1.97412,-0.01693 -4.87437,1.60531 -5.17713,-1.17593z" data-paper-data="{&quot;index&quot;:null}" fill="#ffffff" stroke="#000000" stroke-width="0" stroke-linecap="butt"/><path d="M193.56461,168.22974c-0.18668,-0.43301 4.43354,-1.34061 4.43354,-1.34061c0,0 2.18057,-0.24627 5.61621,-1.25548c2.06349,-0.60613 5.39173,-1.75376 6.19141,-1.90976c1.78393,-0.34803 2.55697,-1.07492 3.7159,-1.25489c2.84769,-0.44219 7.68926,-1.22751 7.68926,-1.22751l0.80159,5.86683c0,0 -3.38035,0.60432 -6.05876,1.02024c-1.2453,0.1934 -3.2754,0.38572 -5.31306,0.65187c-0.86095,0.11245 -3.56161,0.68243 -4.39859,0.8c-3.48053,0.48892 -6.16423,1.89258 -6.16423,1.89258c0,0 -1.11668,0.3838 -1.72868,1.05094c-1.04747,1.14185 -2.11592,2.51139 -3.41191,2.36747c-0.7032,-0.07808 1.64103,-1.60967 1.30553,-1.7395c-0.0597,-0.0231 -4.30666,1.28221 -4.60188,0.99773c-0.48228,-0.46475 3.78919,-2.02713 3.08738,-1.97845c-1.44058,0.09991 -4.2897,1.46681 -4.58861,1.05306c-0.50353,-0.69696 4.99405,-2.08155 4.50488,-2.17738c-0.91378,-0.17899 -4.10188,1.12599 -4.3826,0.7762c-0.81768,-1.01889 3.90258,-1.72837 3.38222,-1.92018c-0.98305,-0.36235 -3.17116,0.76019 -3.32374,0.32347c-0.3102,-0.88792 3.33223,-1.79227 3.24411,-1.99667z" data-paper-data="{&quot;index&quot;:null}" fill="#ffb77d" stroke="#000000" stroke-width="0" stroke-linecap="butt"/><path d="M228.28008,165.21233c0.17424,2.79224 -2.9595,1.68641 -4.90203,2.03853c-1.94254,0.35213 -2.19298,0.99594 -2.47251,-3.15493c-0.33072,-4.91099 -0.42634,-3.21921 1.51619,-3.57134c1.94253,-0.35212 5.52381,-0.67381 5.85835,4.68775z" data-paper-data="{&quot;index&quot;:null}" fill="#ffffff" stroke="#000000" stroke-width="0" stroke-linecap="butt"/><path d="M213.87927,204.78384c0,0 4.51981,-6.93576 5.97062,-10.98881c1.49692,-4.18186 2.87688,-13.728 2.87688,-13.728l-0.28088,17.27368z" fill="url(#color-9)" stroke="#000000" stroke-width="0" stroke-linecap="butt"/><path d="M253.98838,197.42543l-0.28088,-17.27367c0,0 1.37996,9.54614 2.87688,13.728c1.45081,4.05304 5.97062,10.98881 5.97062,10.98881z" data-paper-data="{&quot;index&quot;:null}" fill="url(#color-10)" stroke="#000000" stroke-width="0" stroke-linecap="butt"/></g></g></svg>