<svg version="1.1" xmlns="http://www.w3.org/2000/svg" xmlns:xlink="http://www.w3.org/1999/xlink" width="59" height="59.70662" viewBox="0,0,59,59.70662"><defs><linearGradient x1="270" y1="151.64669" x2="270" y2="208.35331" gradientUnits="userSpaceOnUse" id="color-1"><stop offset="0" stop-color="#191919"/><stop offset="1" stop-color="#050505"/></linearGradient><linearGradient x1="270" y1="151.64669" x2="270" y2="208.35331" gradientUnits="userSpaceOnUse" id="color-2"><stop offset="0" stop-color="#cccccc"/><stop offset="1" stop-color="#898989"/></linearGradient><radialGradient cx="270" cy="180.00001" r="26.8571" gradientUnits="userSpaceOnUse" id="color-3"><stop offset="0" stop-color="#ffffff" stop-opacity="0.35484"/><stop offset="1" stop-color="#ffffff" stop-opacity="0"/></radialGradient><linearGradient x1="270" y1="153.29212" x2="270" y2="206.7079" gradientUnits="userSpaceOnUse" id="color-4"><stop offset="0" stop-color="#cccccc"/><stop offset="1" stop-color="#898989"/></linearGradient><linearGradient x1="284.86247" y1="180.85271" x2="282.65105" y2="179.6329" gradientUnits="userSpaceOnUse" id="color-5"><stop offset="0" stop-color="#fff4c2"/><stop offset="1" stop-color="#fef7d3"/></linearGradient><linearGradient x1="284.44847" y1="178.4005" x2="282.49818" y2="180.0136" gradientUnits="userSpaceOnUse" id="color-6"><stop offset="0" stop-color="#fff4c2"/><stop offset="1" stop-color="#fef7d3"/></linearGradient><linearGradient x1="287.02642" y1="178.66737" x2="284.7836" y2="178.44293" gradientUnits="userSpaceOnUse" id="color-7"><stop offset="0" stop-color="#fff4c2"/><stop offset="1" stop-color="#f5eaa6"/></linearGradient><linearGradient x1="287.25329" y1="181.86307" x2="285.40957" y2="180.57484" gradientUnits="userSpaceOnUse" id="color-8"><stop offset="0" stop-color="#fff4c2"/><stop offset="1" stop-color="#f5eaa6"/></linearGradient><linearGradient x1="287.55136" y1="180.17328" x2="285.39403" y2="180.80938" gradientUnits="userSpaceOnUse" id="color-9"><stop offset="0" stop-color="#fff4c2"/><stop offset="1" stop-color="#f5eaa6"/></linearGradient><radialGradient cx="288.70508" cy="182.74364" r="1.30224" gradientUnits="userSpaceOnUse" id="color-10"><stop offset="0" stop-color="#7aff61"/><stop offset="1" stop-color="#7ac149"/></radialGradient><radialGradient cx="287.94241" cy="183.12519" r="1.08004" gradientUnits="userSpaceOnUse" id="color-11"><stop offset="0" stop-color="#7aff61"/><stop offset="1" stop-color="#7ac149"/></radialGradient><radialGradient cx="289.06377" cy="180.8566" r="1.35875" gradientUnits="userSpaceOnUse" id="color-12"><stop offset="0" stop-color="#7aff61"/><stop offset="1" stop-color="#7ac149"/></radialGradient><linearGradient x1="278.58221" y1="178.5262" x2="275.43925" y2="179.93841" gradientUnits="userSpaceOnUse" id="color-13"><stop offset="0" stop-color="#fff4c2"/><stop offset="1" stop-color="#def57d"/></linearGradient><linearGradient x1="273.57159" y1="179.09664" x2="276.61314" y2="181.65702" gradientUnits="userSpaceOnUse" id="color-14"><stop offset="0" stop-color="#6fd62b"/><stop offset="1" stop-color="#ffea82"/></linearGradient><linearGradient x1="280.09164" y1="181.07734" x2="276.94739" y2="180.20036" gradientUnits="userSpaceOnUse" id="color-15"><stop offset="0" stop-color="#fff4c2"/><stop offset="1" stop-color="#f5e87c"/></linearGradient><linearGradient x1="281.64375" y1="176.74665" x2="278.72755" y2="177.70173" gradientUnits="userSpaceOnUse" id="color-16"><stop offset="0" stop-color="#fff4c2"/><stop offset="1" stop-color="#f5eaa6"/></linearGradient><linearGradient x1="280.04499" y1="175.03654" x2="278.9706" y2="177.91093" gradientUnits="userSpaceOnUse" id="color-17"><stop offset="0" stop-color="#fff4c2"/><stop offset="1" stop-color="#f5eaa6"/></linearGradient><linearGradient x1="281.05931" y1="182.45566" x2="277.78253" y2="181.39018" gradientUnits="userSpaceOnUse" id="color-18"><stop offset="0" stop-color="#fff4c2"/><stop offset="1" stop-color="#f5ed93"/></linearGradient><linearGradient x1="284.29474" y1="183.89511" x2="281.29263" y2="183.25969" gradientUnits="userSpaceOnUse" id="color-19"><stop offset="0" stop-color="#fff4c2"/><stop offset="1" stop-color="#f5eaa6"/></linearGradient><linearGradient x1="282.88945" y1="185.76747" x2="281.51173" y2="183.02552" gradientUnits="userSpaceOnUse" id="color-20"><stop offset="0" stop-color="#fff4c2"/><stop offset="1" stop-color="#f5eaa6"/></linearGradient><linearGradient x1="282.3641" y1="180.27717" x2="279.97059" y2="179.91328" gradientUnits="userSpaceOnUse" id="color-21"><stop offset="0" stop-color="#fff8d6"/><stop offset="1" stop-color="#fef3bb"/></linearGradient><radialGradient cx="284.51419" cy="187.13033" r="2.14935" gradientUnits="userSpaceOnUse" id="color-22"><stop offset="0" stop-color="#7aff61"/><stop offset="1" stop-color="#7ac149"/></radialGradient><radialGradient cx="286.82266" cy="185.14993" r="2.09679" gradientUnits="userSpaceOnUse" id="color-23"><stop offset="0" stop-color="#7aff61"/><stop offset="1" stop-color="#7ac149"/></radialGradient><radialGradient cx="283.7941" cy="175.8849" r="1.77669" gradientUnits="userSpaceOnUse" id="color-24"><stop offset="0" stop-color="#7aff61"/><stop offset="1" stop-color="#7ac149"/></radialGradient><radialGradient cx="283.58515" cy="177.02947" r="1.47354" gradientUnits="userSpaceOnUse" id="color-25"><stop offset="0" stop-color="#7aff61"/><stop offset="1" stop-color="#7ac149"/></radialGradient><radialGradient cx="282.02988" cy="173.94703" r="1.85378" gradientUnits="userSpaceOnUse" id="color-26"><stop offset="0" stop-color="#7aff61"/><stop offset="1" stop-color="#7ac149"/></radialGradient><linearGradient x1="286.61444" y1="176.96018" x2="285.03898" y2="178.57216" gradientUnits="userSpaceOnUse" id="color-27"><stop offset="0" stop-color="#fff4c2"/><stop offset="1" stop-color="#f5eaa6"/></linearGradient><radialGradient cx="288.74116" cy="178.25838" r="1.57878" gradientUnits="userSpaceOnUse" id="color-28"><stop offset="0" stop-color="#7aff61"/><stop offset="1" stop-color="#7ac149"/></radialGradient><radialGradient cx="288.6194" cy="176.1919" r="1.54017" gradientUnits="userSpaceOnUse" id="color-29"><stop offset="0" stop-color="#7aff61"/><stop offset="1" stop-color="#7ac149"/></radialGradient><linearGradient x1="272.2403" y1="161.92372" x2="273.88139" y2="163.97219" gradientUnits="userSpaceOnUse" id="color-30"><stop offset="0" stop-color="#fff4c2"/><stop offset="1" stop-color="#fef7d3"/></linearGradient><linearGradient x1="274.82491" y1="161.91309" x2="273.5186" y2="164.19621" gradientUnits="userSpaceOnUse" id="color-31"><stop offset="0" stop-color="#fff4c2"/><stop offset="1" stop-color="#fef7d3"/></linearGradient><linearGradient x1="274.09473" y1="159.32041" x2="274.72206" y2="161.57742" gradientUnits="userSpaceOnUse" id="color-32"><stop offset="0" stop-color="#fff4c2"/><stop offset="1" stop-color="#f5eaa6"/></linearGradient><linearGradient x1="270.78189" y1="159.65443" x2="272.42787" y2="161.3142" gradientUnits="userSpaceOnUse" id="color-33"><stop offset="0" stop-color="#fff4c2"/><stop offset="1" stop-color="#f5eaa6"/></linearGradient><linearGradient x1="272.45954" y1="159.0497" x2="272.19047" y2="161.3717" gradientUnits="userSpaceOnUse" id="color-34"><stop offset="0" stop-color="#fff4c2"/><stop offset="1" stop-color="#f5eaa6"/></linearGradient><radialGradient cx="269.62282" cy="158.32375" r="1.35342" gradientUnits="userSpaceOnUse" id="color-35"><stop offset="0" stop-color="#7aff61"/><stop offset="1" stop-color="#7ac149"/></radialGradient><radialGradient cx="269.36726" cy="159.17241" r="1.12249" gradientUnits="userSpaceOnUse" id="color-36"><stop offset="0" stop-color="#7aff61"/><stop offset="1" stop-color="#7ac149"/></radialGradient><radialGradient cx="271.49172" cy="157.622" r="1.41214" gradientUnits="userSpaceOnUse" id="color-37"><stop offset="0" stop-color="#7aff61"/><stop offset="1" stop-color="#7ac149"/></radialGradient><linearGradient x1="275.73582" y1="167.94284" x2="274.84664" y2="171.41174" gradientUnits="userSpaceOnUse" id="color-38"><stop offset="0" stop-color="#fff4c2"/><stop offset="1" stop-color="#def57d"/></linearGradient><linearGradient x1="276.03967" y1="173.17518" x2="272.87861" y2="170.51419" gradientUnits="userSpaceOnUse" id="color-39"><stop offset="0" stop-color="#6fd62b"/><stop offset="1" stop-color="#ffea82"/></linearGradient><linearGradient x1="272.85577" y1="166.84921" x2="274.31111" y2="169.91372" gradientUnits="userSpaceOnUse" id="color-40"><stop offset="0" stop-color="#fff4c2"/><stop offset="1" stop-color="#f5e87c"/></linearGradient><linearGradient x1="277.01563" y1="164.49222" x2="276.5544" y2="167.64788" gradientUnits="userSpaceOnUse" id="color-41"><stop offset="0" stop-color="#fff4c2"/><stop offset="1" stop-color="#f5eaa6"/></linearGradient><linearGradient x1="279.05025" y1="165.82639" x2="276.29708" y2="167.43605" gradientUnits="userSpaceOnUse" id="color-42"><stop offset="0" stop-color="#fff4c2"/><stop offset="1" stop-color="#f5eaa6"/></linearGradient><linearGradient x1="271.27277" y1="166.10253" x2="272.94462" y2="169.26934" gradientUnits="userSpaceOnUse" id="color-43"><stop offset="0" stop-color="#fff4c2"/><stop offset="1" stop-color="#f5ed93"/></linearGradient><linearGradient x1="269.22526" y1="163.04435" x2="270.40806" y2="166.00608" gradientUnits="userSpaceOnUse" id="color-44"><stop offset="0" stop-color="#fff4c2"/><stop offset="1" stop-color="#f5eaa6"/></linearGradient><linearGradient x1="267.5569" y1="164.81528" x2="270.60901" y2="165.74022" gradientUnits="userSpaceOnUse" id="color-45"><stop offset="0" stop-color="#fff4c2"/><stop offset="1" stop-color="#f5eaa6"/></linearGradient><linearGradient x1="273.27245" y1="164.38024" x2="274.06931" y2="166.76688" gradientUnits="userSpaceOnUse" id="color-46"><stop offset="0" stop-color="#fff8d6"/><stop offset="1" stop-color="#fef3bb"/></linearGradient><radialGradient cx="265.87329" cy="163.39297" r="2.2338" gradientUnits="userSpaceOnUse" id="color-47"><stop offset="0" stop-color="#7aff61"/><stop offset="1" stop-color="#7ac149"/></radialGradient><radialGradient cx="267.49225" cy="160.67794" r="2.17918" gradientUnits="userSpaceOnUse" id="color-48"><stop offset="0" stop-color="#7aff61"/><stop offset="1" stop-color="#7ac149"/></radialGradient><radialGradient cx="277.51703" cy="162.13739" r="1.8465" gradientUnits="userSpaceOnUse" id="color-49"><stop offset="0" stop-color="#7aff61"/><stop offset="1" stop-color="#7ac149"/></radialGradient><radialGradient cx="276.38194" cy="162.55423" r="1.53144" gradientUnits="userSpaceOnUse" id="color-50"><stop offset="0" stop-color="#7aff61"/><stop offset="1" stop-color="#7ac149"/></radialGradient><radialGradient cx="279.81422" cy="163.60063" r="1.92662" gradientUnits="userSpaceOnUse" id="color-51"><stop offset="0" stop-color="#7aff61"/><stop offset="1" stop-color="#7ac149"/></radialGradient><linearGradient x1="275.91602" y1="159.43973" x2="274.54446" y2="161.3388" gradientUnits="userSpaceOnUse" id="color-52"><stop offset="0" stop-color="#fff4c2"/><stop offset="1" stop-color="#f5eaa6"/></linearGradient><radialGradient cx="274.20966" cy="157.49189" r="1.64081" gradientUnits="userSpaceOnUse" id="color-53"><stop offset="0" stop-color="#7aff61"/><stop offset="1" stop-color="#7ac149"/></radialGradient><radialGradient cx="276.34747" cy="157.25035" r="1.60069" gradientUnits="userSpaceOnUse" id="color-54"><stop offset="0" stop-color="#7aff61"/><stop offset="1" stop-color="#7ac149"/></radialGradient><radialGradient cx="265.75389" cy="187.97" r="1.85741" gradientUnits="userSpaceOnUse" id="color-55"><stop offset="0" stop-color="#74b95d"/><stop offset="1" stop-color="#58a227"/></radialGradient><radialGradient cx="262.27456" cy="192.56933" r="7.92985" gradientUnits="userSpaceOnUse" id="color-56"><stop offset="0" stop-color="#9fff80"/><stop offset="1" stop-color="#8aff3d"/></radialGradient><radialGradient cx="274.56775" cy="177.96593" r="7.92985" gradientUnits="userSpaceOnUse" id="color-57"><stop offset="0" stop-color="#9fff80"/><stop offset="1" stop-color="#8aff3d"/></radialGradient></defs><g transform="translate(-240.5,-150.14669)"><g data-paper-data="{&quot;isPaintingLayer&quot;:true}" fill-rule="nonzero" stroke-linecap="butt" stroke-linejoin="miter" stroke-miterlimit="10" stroke-dasharray="" stroke-dashoffset="0" style="mix-blend-mode: normal"><path d="M242,208.35331v-56.70662h56v56.70662z" fill="url(#color-1)" stroke="url(#color-2)" stroke-width="3"/><path d="M296.8571,180.00001c0,14.75036 -12.02433,26.70789 -26.8571,26.70789c-14.83277,0 -26.8571,-11.95753 -26.8571,-26.70789c0,-14.75036 12.02433,-26.70789 26.8571,-26.70789c14.83277,0 26.8571,11.95753 26.8571,26.70789z" fill="url(#color-3)" stroke="url(#color-4)" stroke-width="0"/><g stroke="none"><g><path d="M284.93316,180.70138l-2.49256,-0.7467c0,0 -0.05236,-0.01183 -0.08057,-0.01574c-0.029,-0.00403 -0.09117,-0.00811 -0.09117,-0.00811c0,0 0.07719,-0.06146 0.10279,-0.09704c0.02637,-0.03665 0.05322,-0.11973 0.05322,-0.11973c0,0 0.04346,0.02726 0.06633,0.03867c0.02247,0.01121 0.0697,0.02919 0.0697,0.02919l2.49256,0.7467c0,0 0.05537,0.01459 0.08192,0.01708c0.03212,0.003 0.09586,0.00174 0.09586,0.00174c0,0 -0.09782,0.06863 -0.12563,0.10793c-0.02681,0.0379 -0.03833,0.12382 -0.03833,0.12382c0,0 -0.03111,-0.03057 -0.05424,-0.04399c-0.02145,-0.01245 -0.0799,-0.03382 -0.0799,-0.03382z" data-paper-data="{&quot;index&quot;:null}" fill="url(#color-5)" stroke-width="NaN"/><path d="M284.61868,178.48814c0.02029,-0.01753 0.04521,-0.05342 0.04521,-0.05342c0,0 0.02736,0.08247 0.06084,0.11478c0.0347,0.03353 0.14381,0.08288 0.14381,0.08288c0,0 -0.06299,0.01064 -0.09408,0.01958c-0.02568,0.00738 -0.07749,0.03207 -0.07749,0.03207l-2.31524,1.19962c0,0 -0.04317,0.0265 -0.0632,0.04172c-0.02039,0.0155 -0.05812,0.05044 -0.05812,0.05044c0,0 -0.04192,-0.07681 -0.07471,-0.10798c-0.03183,-0.03026 -0.11929,-0.07642 -0.11929,-0.07642c0,0 0.06044,-0.01559 0.08825,-0.02498c0.02704,-0.00912 0.0764,-0.03051 0.0764,-0.03051l2.31524,-1.19962c0,0 0.05358,-0.03192 0.07238,-0.04818z" data-paper-data="{&quot;index&quot;:null}" fill="url(#color-6)" stroke-width="NaN"/><path d="M287.07463,178.5369l-2.45039,0.20131c0,0 -0.051,0.00703 -0.07817,0.01257c-0.02794,0.00571 -0.08725,0.02125 -0.08725,0.02125c0,0 0.06545,-0.06741 0.08527,-0.10075c0.02043,-0.03435 0.03558,-0.10242 0.03558,-0.10242c0,0 0.04449,0.0068 0.06753,0.00824c0.02263,0.00143 0.06956,0.00037 0.06956,0.00037l2.4504,-0.20132c0,0 0.0542,-0.00592 0.07961,-0.01202c0.03078,-0.00738 0.0909,-0.02726 0.0909,-0.02726c0,0 -0.08406,0.07874 -0.10554,0.11542c-0.02069,0.03538 -0.02098,0.10096 -0.02098,0.10096c0,0 -0.0332,-0.01286 -0.05674,-0.01568c-0.02184,-0.00262 -0.07978,-0.0007 -0.07978,-0.0007z" data-paper-data="{&quot;index&quot;:null}" fill="url(#color-7)" stroke-width="NaN"/><path d="M287.35884,181.77295l-2.23192,-1.01861c0,0 -0.04783,-0.01873 -0.07421,-0.02713c-0.02713,-0.00863 -0.08634,-0.02402 -0.08634,-0.02402c0,0 0.08984,-0.02682 0.12333,-0.04618c0.03453,-0.01995 0.08088,-0.07184 0.08088,-0.07184c0,0 0.03543,0.0276 0.05479,0.04009c0.01903,0.01227 0.0604,0.03421 0.0604,0.03421l2.23192,1.01861c0,0 0.05007,0.02126 0.07518,0.02833c0.03039,0.00855 0.09245,0.02056 0.09245,0.02056c0,0 -0.11158,0.02759 -0.14814,0.04909c-0.03525,0.02073 -0.06746,0.07769 -0.06746,0.07769c0,0 -0.02265,-0.02739 -0.04178,-0.04131c-0.01775,-0.01292 -0.06913,-0.03947 -0.06913,-0.03947z" data-paper-data="{&quot;index&quot;:null}" fill="url(#color-8)" stroke-width="NaN"/><path d="M287.70093,180.27677c0.02256,-0.00713 0.05273,-0.0259 0.05273,-0.0259c0,0 0.01246,0.06424 0.03931,0.09509c0.02785,0.032 0.12489,0.09359 0.12489,0.09359c0,0 -0.06265,-0.00833 -0.0942,-0.00985c-0.02605,-0.00128 -0.08029,0.00299 -0.08029,0.00299l-2.43986,0.25716c0,0 -0.04619,0.00768 -0.06812,0.01328c-0.02234,0.0057 -0.06468,0.02061 -0.06468,0.02061c0,0 -0.02748,-0.06393 -0.05389,-0.09381c-0.02562,-0.02902 -0.10228,-0.08298 -0.10228,-0.08298c0,0 0.06103,0.00422 0.08949,0.00464c0.02767,0.00039 0.07897,-0.00217 0.07897,-0.00217l2.43986,-0.25717c0,0 0.05716,-0.00885 0.07808,-0.01546z" data-paper-data="{&quot;index&quot;:null}" fill="url(#color-9)" stroke-width="NaN"/><path d="M289.74939,183.51225c0,0 -1.72746,-1.0944 -2.07416,-1.39219c-0.3467,-0.29779 -0.56982,-0.558 -0.3209,-0.69791c0.25675,-0.14429 0.58792,0.0827 0.93462,0.3805c0.3467,0.29779 1.46044,1.7096 1.46044,1.7096z" fill="url(#color-10)" stroke-width="0"/><path d="M288.30647,183.86861c0,0 -0.87847,-1.30827 -1.0305,-1.62596c-0.15205,-0.31769 -0.2286,-0.57049 -0.0096,-0.59186c0.22589,-0.02205 0.38894,0.2409 0.54099,0.55858c0.15205,0.31769 0.49911,1.65923 0.49911,1.65923z" fill="url(#color-11)" stroke-width="0"/><path d="M290.30079,181.25337c0,0 -1.76624,-0.38859 -2.14432,-0.53156c-0.37808,-0.14294 -0.64205,-0.29196 -0.47732,-0.48336c0.1699,-0.19742 0.51371,-0.10862 0.89176,0.03434c0.37808,0.14294 1.72988,0.98058 1.72988,0.98058z" fill="url(#color-12)" stroke-width="0"/><path d="M278.47511,178.32505l-2.85734,2.10661c0,0 -0.0558,0.04742 -0.0832,0.07497c-0.02817,0.02834 -0.08357,0.09278 -0.08357,0.09278c0,0 -0.00378,-0.13458 -0.0216,-0.19164c-0.01835,-0.05881 -0.08696,-0.15618 -0.08696,-0.15618c0,0 0.06536,-0.02505 0.09655,-0.04065c0.03064,-0.01532 0.08895,-0.05212 0.08895,-0.05212l2.85734,-2.10661c0,0 0.0613,-0.04843 0.08577,-0.07535c0.02961,-0.03258 0.08047,-0.10314 0.08047,-0.10314c0,0 -0.00531,0.16294 0.01476,0.22548c0.01935,0.06031 0.10363,0.14331 0.10363,0.14331c0,0 -0.05884,0.00887 -0.09245,0.0231c-0.03115,0.0132 -0.10238,0.05944 -0.10238,0.05944z" data-paper-data="{&quot;index&quot;:null}" fill="url(#color-13)" stroke-width="NaN"/><path d="M273.47388,179.5989l3.42973,0.95799c0,0 0.07205,0.00827 0.11088,0.0052c0.03994,-0.00316 0.12549,-0.02387 0.12549,-0.02387c0,0 -0.10641,0.22994 -0.14175,0.3528c-0.0364,0.12659 -0.07356,0.39593 -0.07356,0.39593c0,0 -0.05977,-0.06043 -0.09123,-0.0832c-0.03091,-0.02237 -0.09591,-0.05225 -0.09591,-0.05225l-3.42973,-0.95799c0,0 -0.0762,-0.01516 -0.11274,-0.00855c-0.04422,0.00798 -0.13198,0.04595 -0.13198,0.04595c0,0 0.13484,-0.26296 0.17321,-0.39846c0.037,-0.13064 0.05309,-0.40053 0.05309,-0.40053c0,0 0.04277,0.07719 0.07458,0.10599c0.0295,0.02672 0.10992,0.06101 0.10992,0.06101z" fill="url(#color-14)" stroke-width="NaN"/><path d="M279.99359,180.66885l-2.88854,0.45233c0,0 -0.05664,0.01836 -0.08461,0.03387c-0.02874,0.01596 -0.08561,0.06057 -0.08561,0.06057c0,0 0.00118,-0.20802 -0.01426,-0.31185c-0.01592,-0.10697 -0.07987,-0.32083 -0.07987,-0.32083c0,0 0.06524,0.02478 0.09648,0.03109c0.0307,0.00618 0.08945,0.00637 0.08945,0.00637l2.88855,-0.45231c0,0 0.06209,-0.01464 0.08714,-0.032c0.03032,-0.02103 0.08296,-0.07926 0.08296,-0.07926c0,0 -0.01119,0.24237 0.00628,0.35667c0.01684,0.11021 0.09676,0.31731 0.09676,0.31731c0,0 -0.05823,-0.04312 -0.09181,-0.0538c-0.03114,-0.00991 -0.1029,-0.00815 -0.1029,-0.00815z" data-paper-data="{&quot;index&quot;:null}" fill="url(#color-15)" stroke-width="NaN"/><path d="M281.63198,176.55765l-2.9403,1.59951c0,0 -0.05963,0.03682 -0.09041,0.05869c-0.03164,0.0225 -0.09694,0.07447 -0.09694,0.07447c0,0 0.04438,-0.11995 0.05072,-0.17239c0.00653,-0.05401 -0.01208,-0.14711 -0.01208,-0.14711c0,0 0.05913,-0.01603 0.08862,-0.02691c0.02898,-0.0107 0.08681,-0.03783 0.08681,-0.03783l2.9403,-1.5995c0,0 0.06423,-0.0372 0.09252,-0.05879c0.03424,-0.02613 0.0982,-0.08397 0.0982,-0.08397c0,0 -0.06135,0.14431 -0.06787,0.20181c-0.00628,0.05544 0.02943,0.13726 0.02943,0.13726c0,0 -0.04843,0.00227 -0.07929,0.0117c-0.02863,0.00876 -0.0997,0.04305 -0.0997,0.04305z" data-paper-data="{&quot;index&quot;:null}" fill="url(#color-16)" stroke-width="NaN"/><path d="M280.28048,174.95825c0.01071,-0.03045 0.01497,-0.07874 0.01497,-0.07874c0,0 0.08027,0.03906 0.13593,0.03506c0.05772,-0.00414 0.20443,-0.0595 0.20443,-0.0595c0,0 -0.06043,0.06153 -0.08795,0.09465c-0.02273,0.02738 -0.06255,0.09001 -0.06255,0.09001l-1.71923,2.87193c0,0 -0.0295,0.05666 -0.04137,0.08518c-0.0121,0.02902 -0.03054,0.08744 -0.03054,0.08744c0,0 -0.09225,-0.02243 -0.14649,-0.01812c-0.05265,0.00419 -0.17433,0.04357 -0.17433,0.04357c0,0 0.05463,-0.06309 0.07842,-0.09378c0.02313,-0.02985 0.06237,-0.08791 0.06237,-0.08791l1.71924,-2.87193c0,0 0.0372,-0.06961 0.04712,-0.09785z" data-paper-data="{&quot;index&quot;:null}" fill="url(#color-17)" stroke-width="NaN"/><path d="M281.08268,182.71524c0.03494,0.01053 0.09439,0.01302 0.09439,0.01302c0,0 -0.07484,0.0916 -0.0876,0.15364c-0.01323,0.06434 0.00962,0.22576 0.00962,0.22576c0,0 -0.05818,-0.06466 -0.09113,-0.09387c-0.02721,-0.02412 -0.09337,-0.06568 -0.09337,-0.06568l-3.06762,-1.78659c0,0 -0.06196,-0.03029 -0.09407,-0.04224c-0.03269,-0.01215 -0.10036,-0.03002 -0.10036,-0.03002c0,0 0.05772,-0.1042 0.06963,-0.16464c0.01156,-0.05867 0.00084,-0.19286 0.00084,-0.19286c0,0 0.06202,0.05809 0.09307,0.08323c0.0302,0.02445 0.09079,0.06559 0.09079,0.06559l3.06763,1.78659c0,0 0.07578,0.0383 0.10817,0.04807z" data-paper-data="{&quot;index&quot;:null}" fill="url(#color-18)" stroke-width="NaN"/><path d="M284.40714,184.11635c0.03171,0.00606 0.0801,0.0031 0.0801,0.0031c0,0 -0.0267,0.08519 -0.01449,0.13963c0.01268,0.05647 0.08923,0.19332 0.08923,0.19332c0,0 -0.06982,-0.05061 -0.10668,-0.07292c-0.03045,-0.01841 -0.0983,-0.04848 -0.0983,-0.04848l-3.09548,-1.2735c0,0 -0.06042,-0.02075 -0.09038,-0.02824c-0.03049,-0.00764 -0.09101,-0.01721 -0.09101,-0.01721c0,0 0.00847,-0.09456 -0.00384,-0.14756c-0.01195,-0.05145 -0.06898,-0.16593 -0.06898,-0.16593c0,0 0.07051,0.04464 0.10441,0.0636c0.03295,0.01843 0.0962,0.04862 0.0962,0.04862l3.09548,1.2735c0,0 0.07435,0.02644 0.10375,0.03206z" data-paper-data="{&quot;index&quot;:null}" fill="url(#color-19)" stroke-width="NaN"/><path d="M283.0746,185.72774l-2.01857,-2.67004c0,0 -0.04527,-0.0535 -0.07147,-0.08069c-0.02695,-0.02795 -0.08806,-0.0848 -0.08806,-0.0848c0,0 0.12521,0.02606 0.17801,0.02454c0.05438,-0.00156 0.14368,-0.03379 0.14368,-0.03379c0,0 0.02463,0.0561 0.03978,0.08365c0.01488,0.02707 0.0503,0.08023 0.0503,0.08023l2.01857,2.67004c0,0 0.04633,0.05799 0.07188,0.08275c0.03093,0.02998 0.09764,0.08463 0.09764,0.08463c0,0 -0.15181,-0.03923 -0.20964,-0.03714c-0.05576,0.00202 -0.13136,0.04949 -0.13136,0.04949c0,0 -0.00944,-0.04755 -0.02337,-0.07667c-0.01292,-0.02701 -0.05738,-0.0922 -0.05738,-0.0922z" data-paper-data="{&quot;index&quot;:null}" fill="url(#color-20)" stroke-width="NaN"/><path d="M282.25531,179.98521l-2.08614,0.59188c0,0 -0.04006,0.0186 -0.05925,0.03253c-0.01975,0.01432 -0.05761,0.05228 -0.05761,0.05228c0,0 -0.01777,-0.15327 -0.03845,-0.22833c-0.02131,-0.07733 -0.08756,-0.22906 -0.08756,-0.22906c0,0 0.05025,0.0124 0.07384,0.01425c0.02317,0.0018 0.06643,-0.00333 0.06643,-0.00333l2.08614,-0.59188c0,0 0.0444,-0.01634 0.06129,-0.03137c0.02044,-0.0182 0.05396,-0.0658 0.05396,-0.0658c0,0 0.0135,0.17945 0.0366,0.26203c0.02228,0.07963 0.09967,0.22495 0.09967,0.22495c0,0 -0.04672,-0.02652 -0.07241,-0.03137c-0.02382,-0.00451 -0.07649,0.00323 -0.07649,0.00323z" data-paper-data="{&quot;index&quot;:null}" fill="url(#color-21)" stroke-width="NaN"/><path d="M285.63329,188.97369c0,0 -2.0167,-1.94062 -2.40005,-2.4349c-0.38334,-0.49427 -0.61127,-0.9043 -0.23918,-1.02373c0.3838,-0.12319 0.76572,0.27192 1.14906,0.76619c0.38334,0.49427 1.49017,2.69242 1.49017,2.69242z" fill="url(#color-22)" stroke-width="0"/><path d="M288.42427,185.63828c0,0 -2.84873,-0.50847 -3.46233,-0.71289c-0.61359,-0.20441 -1.04516,-0.42577 -0.79405,-0.74231c0.25903,-0.3265 0.81437,-0.20647 1.42796,-0.00207c0.61359,0.20441 2.82839,1.45727 2.82839,1.45727z" fill="url(#color-23)" stroke-width="0"/><path d="M285.48834,175.37583c0,0 -2.60949,0.98716 -3.21847,1.12124c-0.60896,0.13409 -1.07564,0.16415 -1.02423,-0.22201c0.05304,-0.3983 0.57206,-0.57345 1.18104,-0.70752c0.60896,-0.13409 3.06165,-0.19172 3.06165,-0.19172z" fill="url(#color-24)" stroke-width="0"/><path d="M284.69437,177.2417c0,0 -2.14692,-0.11414 -2.61805,-0.20867c-0.47111,-0.09455 -0.8096,-0.21825 -0.65341,-0.47462c0.16109,-0.26444 0.58154,-0.22678 1.05265,-0.13223c0.47111,0.09455 2.2188,0.81553 2.2188,0.81553z" fill="url(#color-25)" stroke-width="0"/><path d="M283.47654,172.923c0,0 -1.87147,1.60795 -2.33727,1.90313c-0.46579,0.29519 -0.84466,0.46099 -0.91843,0.12447c-0.07607,-0.34712 0.30257,-0.64932 0.76835,-0.94451c0.46579,-0.29519 2.48735,-1.08309 2.48735,-1.08309z" fill="url(#color-26)" stroke-width="0"/><path d="M286.79588,176.97751c0.01625,-0.01728 0.03343,-0.04846 0.03343,-0.04846c0,0 0.04233,0.05009 0.0809,0.06393c0.04,0.01436 0.15503,0.02074 0.15503,0.02074c0,0 -0.05886,0.02339 -0.0872,0.03747c-0.0234,0.01164 -0.06876,0.04189 -0.06876,0.04189l-2.00796,1.41881c0,0 -0.03665,0.0293 -0.05308,0.04494c-0.01674,0.01591 -0.04649,0.04968 -0.04649,0.04968c0,0 -0.05531,-0.04245 -0.09304,-0.05569c-0.03662,-0.01283 -0.13006,-0.02251 -0.13006,-0.02251c0,0 0.05543,-0.02617 0.08054,-0.03971c0.02441,-0.01317 0.06802,-0.04053 0.06802,-0.04053l2.00796,-1.41881c0,0 0.04566,-0.03571 0.06073,-0.05173z" data-paper-data="{&quot;index&quot;:null}" fill="url(#color-27)" stroke-width="NaN"/><path d="M290.28197,178.62584c0,0 -2.05517,0.05115 -2.51133,-0.00388c-0.45616,-0.05504 -0.78803,-0.14774 -0.65825,-0.40378c0.13388,-0.26408 0.53748,-0.25953 0.99364,-0.20448c0.45616,0.05504 2.17593,0.61214 2.17593,0.61214z" fill="url(#color-28)" stroke-width="0"/><path d="M289.74626,175.69905c0,0 -1.83221,1.07752 -2.27219,1.25669c-0.43998,0.17916 -0.78653,0.26189 -0.79768,-0.0347c-0.01149,-0.30592 0.35565,-0.50432 0.79564,-0.68348c0.43998,-0.17916 2.27422,-0.53851 2.27422,-0.53851z" fill="url(#color-29)" stroke-width="0"/></g><g data-paper-data="{&quot;index&quot;:null}"><path d="M272.33395,161.74867c-0.01784,-0.02131 -0.05467,-0.04775 -0.05467,-0.04775c0,0 0.08596,-0.02704 0.12001,-0.0612c0.03533,-0.03544 0.08827,-0.14778 0.08827,-0.14778c0,0 0.01001,0.06549 0.01877,0.09786c0.00725,0.02675 0.032,0.08087 0.032,0.08087l1.20642,2.42021c0,0 0.02677,0.0452 0.04223,0.06622c0.01574,0.0214 0.05136,0.06108 0.05136,0.06108c0,0 -0.08033,0.04222 -0.11318,0.07573c-0.0319,0.03252 -0.08116,0.12246 -0.08116,0.12246c0,0 -0.0152,-0.06292 -0.02446,-0.09192c-0.00901,-0.02819 -0.03039,-0.07971 -0.03039,-0.07971l-1.20642,-2.42021c0,0 -0.03224,-0.05607 -0.04878,-0.07584z" data-paper-data="{&quot;index&quot;:null}" fill="url(#color-30)" stroke-width="NaN"/><path d="M274.66848,161.837l-0.81819,2.58358c0,0 -0.01316,0.05433 -0.01771,0.08364c-0.00467,0.03015 -0.00993,0.0948 -0.00993,0.0948c0,0 -0.06275,-0.08138 -0.09939,-0.10862c-0.03773,-0.02807 -0.12383,-0.05737 -0.12383,-0.05737c0,0 0.0291,-0.04482 0.04136,-0.06844c0.01204,-0.02322 0.03152,-0.07212 0.03152,-0.07212l0.81819,-2.58358c0,0 0.01609,-0.05743 0.01911,-0.08504c0.00365,-0.03341 0.00337,-0.09981 0.00337,-0.09981c0,0 0.06988,0.103 0.11036,0.13258c0.03904,0.02853 0.12834,0.04194 0.12834,0.04194c0,0 -0.03235,0.0319 -0.0467,0.05578c-0.01331,0.02214 -0.03652,0.08266 -0.03652,0.08266z" data-paper-data="{&quot;index&quot;:null}" fill="url(#color-31)" stroke-width="NaN"/><path d="M274.20495,159.16633c-0.00706,-0.02361 -0.02613,-0.05533 -0.02613,-0.05533c0,0 0.0671,-0.01193 0.09965,-0.0394c0.03378,-0.02849 0.0995,-0.12852 0.0995,-0.12852c0,0 -0.00969,0.06512 -0.01181,0.09793c-0.00174,0.02711 0.0018,0.08367 0.0018,0.08367l0.22811,2.54505c0,0 0.00723,0.04823 0.0127,0.07117c0.00557,0.02335 0.02041,0.06769 0.02041,0.06769c0,0 -0.06703,0.02757 -0.09857,0.05458c-0.03063,0.02622 -0.08806,0.10517 -0.08806,0.10517c0,0 0.00538,-0.0635 0.00629,-0.09312c0.00088,-0.02881 -0.00098,-0.08228 -0.00098,-0.08228l-0.22811,-2.54505c0,0 -0.00829,-0.05968 -0.01483,-0.08157z" data-paper-data="{&quot;index&quot;:null}" fill="url(#color-32)" stroke-width="NaN"/><path d="M270.8028,159.46655c-0.01765,-0.01712 -0.04972,-0.03546 -0.04972,-0.03546c0,0 0.05262,-0.04308 0.0676,-0.08286c0.01553,-0.04126 0.02402,-0.1604 0.02402,-0.1604c0,0 0.02328,0.06142 0.03744,0.09103c0.01169,0.02445 0.04234,0.07197 0.04234,0.07197l1.43869,2.10511c0,0 0.02979,0.03847 0.04574,0.05578c0.01621,0.01761 0.05076,0.04901 0.05076,0.04901c0,0 -0.04492,0.05667 -0.05924,0.09556c-0.0139,0.03775 -0.02545,0.1345 -0.02545,0.1345c0,0 -0.02623,-0.05791 -0.03989,-0.08414c-0.01328,-0.02552 -0.04093,-0.07118 -0.04093,-0.07118l-1.43869,-2.10511c0,0 -0.03629,-0.04792 -0.05267,-0.0638z" data-paper-data="{&quot;index&quot;:null}" fill="url(#color-33)" stroke-width="NaN"/><path d="M272.32503,158.99757l0.16906,2.54416c0,0 0.00646,0.05299 0.01178,0.08126c0.00547,0.02906 0.02061,0.09082 0.02061,0.09082c0,0 -0.06884,-0.06895 -0.10308,-0.09006c-0.0353,-0.02174 -0.10563,-0.03855 -0.10563,-0.03855c0,0 0.00777,-0.04602 0.00964,-0.06989c0.00184,-0.02346 0.00151,-0.07212 0.00151,-0.07212l-0.16906,-2.54416c0,0 -0.00526,-0.0563 -0.01117,-0.08276c-0.00717,-0.03203 -0.02679,-0.09472 -0.02679,-0.09472c0,0 0.08028,0.08846 0.11798,0.1113c0.03635,0.02203 0.10434,0.02341 0.10434,0.02341c0,0 -0.01388,0.03422 -0.01719,0.05859c-0.00307,0.02259 -0.00202,0.08271 -0.00202,0.08271z" data-paper-data="{&quot;index&quot;:null}" fill="url(#color-34)" stroke-width="NaN"/><path d="M270.6602,158.58314c0.36641,0.30226 0.65757,0.60118 0.5553,0.88968c-0.09916,0.27971 -0.40517,0.09733 -0.77157,-0.20494c-0.36641,-0.30226 -1.79331,-1.87736 -1.79331,-1.87736c0,0 1.64317,0.89035 2.00957,1.19261z" fill="url(#color-35)" stroke-width="0"/><path d="M270.32903,159.14841c0.35228,0.0994 0.65045,0.2198 0.66791,0.45503c0.01694,0.22806 -0.25551,0.19445 -0.6078,0.09505c-0.35228,-0.0994 -1.84773,-0.76714 -1.84773,-0.76714c0,0 1.43534,0.11765 1.78762,0.21707z" fill="url(#color-36)" stroke-width="0"/><path d="M272.17692,158.02325c0.21341,0.36183 0.36527,0.69816 0.19321,0.90714c-0.16682,0.20261 -0.36618,-0.04133 -0.57958,-0.40316c-0.21341,-0.36183 -0.92439,-2.10173 -0.92439,-2.10173c0,0 1.09736,1.23591 1.31076,1.59773z" fill="url(#color-37)" stroke-width="0"/><path d="M276.00353,167.90151c0.00863,-0.03693 0.00727,-0.09876 0.00727,-0.09876c0,0 0.09995,0.0716 0.16513,0.08074c0.06761,0.00948 0.23353,-0.02485 0.23353,-0.02485c0,0 -0.06324,0.0646 -0.09136,0.10069c-0.02324,0.02981 -0.06198,0.10117 -0.06198,0.10117l-1.65092,3.29947c0,0 -0.02734,0.06623 -0.0376,0.10034c-0.01044,0.03471 -0.02452,0.10607 -0.02452,0.10607c0,0 -0.11188,-0.05299 -0.17535,-0.06138c-0.06161,-0.00814 -0.20008,0.01184 -0.20008,0.01184c0,0 0.05618,-0.06815 0.08019,-0.10202c0.02337,-0.03294 0.06203,-0.09849 0.06203,-0.09849l1.65093,-3.29948c0,0 0.03473,-0.08112 0.04273,-0.11537z" data-paper-data="{&quot;index&quot;:null}" fill="url(#color-38)" stroke-width="NaN"/><path d="M275.6246,173.46601c0.03514,0.02747 0.12176,0.05758 0.12176,0.05758c0,0 -0.27353,0.06429 -0.40077,0.12534c-0.13197,0.06332 -0.37735,0.24801 -0.37735,0.24801c0,0 0.02331,-0.09659 0.02367,-0.14331c0.00028,-0.03859 -0.02875,-0.11394 -0.02875,-0.11394l-1.5889,-3.34251c0,0 -0.04212,-0.06127 -0.07051,-0.08895c-0.02889,-0.02818 -0.10137,-0.07868 -0.10137,-0.07868c0,0 0.26921,-0.08579 0.39241,-0.14551c0.11957,-0.05796 0.33618,-0.20768 0.33618,-0.20768c0,0 -0.00605,0.09129 -0.00221,0.13273c0.00374,0.0403 0.02498,0.11263 0.02498,0.11263l1.5889,3.34251c0,0 0.04938,0.07628 0.08196,0.10175z" fill="url(#color-39)" stroke-width="NaN"/><path d="M273.26489,166.7733c-0.01689,-0.03249 -0.07135,-0.08449 -0.07135,-0.08449c0,0 0.22626,0.04513 0.34209,0.04285c0.12015,-0.00236 0.36638,-0.05677 0.36638,-0.05677c0,0 -0.05033,0.06423 -0.06648,0.099c-0.01333,0.02873 -0.01732,0.0949 -0.01732,0.0949l0.04872,3.03824c0,0 0.0106,0.06011 0.02239,0.09047c0.01198,0.0309 0.04894,0.0933 0.04894,0.0933c0,0 -0.23035,-0.02759 -0.34272,-0.02494c-0.10908,0.00258 -0.32188,0.04068 -0.32188,0.04068c0,0 0.03561,-0.06614 0.04685,-0.09841c0.01094,-0.03139 0.01971,-0.09264 0.01971,-0.09264l-0.04872,-3.03824c0,0 -0.01092,-0.0738 -0.02658,-0.10393z" data-paper-data="{&quot;index&quot;:null}" fill="url(#color-40)" stroke-width="NaN"/><path d="M277.23769,164.36104c0.0042,-0.03328 -0.00206,-0.08328 -0.00206,-0.08328c0,0 0.09011,0.02207 0.14578,0.00582c0.05773,-0.01686 0.19464,-0.10527 0.19464,-0.10527c0,0 -0.04789,0.07575 -0.06859,0.11544c-0.0171,0.0328 -0.04382,0.10517 -0.04382,0.10517l-1.1169,3.29455c0,0 -0.01754,0.06403 -0.02336,0.0956c-0.00592,0.03214 -0.01185,0.09553 -0.01185,0.09553c0,0 -0.09863,-0.00257 -0.15279,0.0137c-0.05256,0.01579 -0.16755,0.08249 -0.16755,0.08249c0,0 0.04167,-0.07608 0.0591,-0.11246c0.01695,-0.03539 0.04408,-0.10299 0.04408,-0.10299l1.1169,-3.29454c0,0 0.02253,-0.07886 0.02642,-0.10974z" data-paper-data="{&quot;index&quot;:null}" fill="url(#color-41)" stroke-width="NaN"/><path d="M278.99683,165.63697l-2.63636,2.2696c0,0 -0.05251,0.05048 -0.07897,0.07946c-0.02721,0.0298 -0.08216,0.09691 -0.08216,0.09691c0,0 0.01879,-0.13158 0.01372,-0.18625c-0.00521,-0.05631 -0.04453,-0.1468 -0.04453,-0.1468c0,0 0.05656,-0.02926 0.08415,-0.04677c0.02709,-0.01722 0.0799,-0.05746 0.0799,-0.05746l2.63637,-2.2696c0,0 0.05708,-0.05188 0.0811,-0.08002c0.02906,-0.03405 0.08135,-0.10685 0.08135,-0.10685c0,0 -0.03068,0.16006 -0.02471,0.21991c0.00577,0.0577 0.06,0.13299 0.06,0.13299c0,0 -0.04871,0.01292 -0.07799,0.02928c-0.02716,0.01517 -0.09185,0.0656 -0.09185,0.0656z" data-paper-data="{&quot;index&quot;:null}" fill="url(#color-42)" stroke-width="NaN"/><path d="M271.0712,166.22688l2.37327,2.82483c0,0 0.05287,0.05476 0.08325,0.08136c0.03125,0.02736 0.10174,0.08056 0.10174,0.08056c0,0 -0.13932,0.0128 -0.19736,0.03503c-0.05978,0.02292 -0.15626,0.10048 -0.15626,0.10048c0,0 -0.03029,-0.06614 -0.04853,-0.09747c-0.0179,-0.03078 -0.05992,-0.08884 -0.05992,-0.08884l-2.37327,-2.82483c0,0 -0.05429,-0.06039 -0.08381,-0.08399c-0.03574,-0.02857 -0.11227,-0.07668 -0.11227,-0.07668c0,0 0.16936,-0.00521 0.2329,-0.03017c0.06128,-0.02406 0.14181,-0.11693 0.14181,-0.11693c0,0 0.01308,0.06045 0.03006,0.09436c0.01575,0.03145 0.06841,0.10226 0.06841,0.10226z" data-paper-data="{&quot;index&quot;:null}" fill="url(#color-43)" stroke-width="NaN"/><path d="M269.03001,163.06902l1.85275,2.94428c0,0 0.04211,0.05942 0.06683,0.08991c0.02541,0.03134 0.08362,0.09564 0.08362,0.09564c0,0 -0.12735,-0.03812 -0.18214,-0.04125c-0.05646,-0.00321 -0.15179,0.02222 -0.15179,0.02222c0,0 -0.02052,-0.06029 -0.03375,-0.09015c-0.01301,-0.02935 -0.04495,-0.08755 -0.04495,-0.08755l-1.85275,-2.94427c0,0 -0.04281,-0.06417 -0.06708,-0.09208c-0.02936,-0.0338 -0.09358,-0.09632 -0.09358,-0.09632c0,0 0.15372,0.05412 0.21378,0.0571c0.05791,0.00286 0.14041,-0.03957 0.14041,-0.03957c0,0 0.00554,0.05008 0.01738,0.08148c0.01097,0.02913 0.05122,0.10058 0.05122,0.10058z" data-paper-data="{&quot;index&quot;:null}" fill="url(#color-44)" stroke-width="NaN"/><path d="M267.46018,164.57619c-0.0323,-0.0091 -0.08267,-0.01033 -0.08267,-0.01033c0,0 0.03522,-0.08583 0.02742,-0.14329c-0.0081,-0.0596 -0.07519,-0.20812 -0.07519,-0.20812c0,0 0.0678,0.05861 0.10398,0.08498c0.02989,0.02178 0.09749,0.05896 0.09749,0.05896l3.09205,1.59396c0,0 0.06072,0.02685 0.09107,0.03729c0.0309,0.01062 0.09271,0.02592 0.09271,0.02592c0,0 -0.01718,0.09717 -0.00914,0.15312c0.0078,0.05433 0.05668,0.17794 0.05668,0.17794c0,0 -0.06906,-0.05249 -0.10245,-0.07514c-0.03247,-0.02202 -0.09529,-0.05888 -0.09529,-0.05888l-3.09206,-1.59396c0,0 -0.07464,-0.03399 -0.10459,-0.04244z" data-paper-data="{&quot;index&quot;:null}" fill="url(#color-45)" stroke-width="NaN"/><path d="M273.58049,164.36101c-0.00952,-0.02544 -0.04497,-0.06858 -0.04497,-0.06858c0,0 0.16254,0.05349 0.24804,0.0622c0.08868,0.00903 0.27483,-0.00896 0.27483,-0.00896c0,0 -0.0428,0.04277 -0.05781,0.06694c-0.0124,0.01995 -0.02127,0.06832 -0.02127,0.06832l-0.2364,2.24125c0,0 0.00242,0.0452 0.00837,0.06861c0.00605,0.02382 0.02766,0.07309 0.02766,0.07309c0,0 -0.16711,-0.04095 -0.25008,-0.04908c-0.08053,-0.00787 -0.24063,0.0011 -0.24063,0.0011c0,0 0.03214,-0.04552 0.04333,-0.06826c0.01086,-0.02212 0.02281,-0.06645 0.02281,-0.06645l0.23641,-2.24125c0,0 -0.00142,-0.05531 -0.01026,-0.0789z" data-paper-data="{&quot;index&quot;:null}" fill="url(#color-46)" stroke-width="NaN"/><path d="M266.80856,163.62249c0.57411,0.30498 1.04641,0.62606 0.98828,1.04094c-0.05635,0.40222 -0.51664,0.24147 -1.09076,-0.06351c-0.57411,-0.30498 -2.91886,-2.02631 -2.91886,-2.02631c0,0 2.44723,0.74389 3.02133,1.04886z" fill="url(#color-47)" stroke-width="0"/><path d="M268.70189,161.76253c0.31807,0.59213 0.53939,1.13958 0.25095,1.46269c-0.27965,0.31327 -0.58281,-0.08947 -0.9009,-0.6816c-0.31807,-0.59213 -1.34366,-3.41931 -1.34366,-3.41931c0,0 1.67554,2.0461 1.99362,2.63822z" fill="url(#color-48)" stroke-width="0"/><path d="M278.08436,163.48146c-0.02938,0.64739 -0.11676,1.20994 -0.51525,1.33487c-0.38633,0.1211 -0.43824,-0.36213 -0.40885,-1.00953c0.02938,-0.64739 0.57783,-3.49466 0.57783,-3.49466c0,0 0.37566,2.52194 0.34629,3.16932z" fill="url(#color-49)" stroke-width="0"/><path d="M277.19642,163.58356c0.18032,0.4657 0.29339,0.8896 0.05113,1.10144c-0.23486,0.20539 -0.42153,-0.11933 -0.60186,-0.58502c-0.18032,-0.4657 -0.67769,-2.64408 -0.67769,-2.64408c0,0 1.04809,1.66198 1.2284,2.12768z" fill="url(#color-50)" stroke-width="0"/><path d="M279.93817,164.67684c-0.21975,0.52932 -0.46212,0.97063 -0.83107,0.95424c-0.3577,-0.01589 -0.25505,-0.43327 -0.0353,-0.96259c0.21975,-0.52932 1.53471,-2.73081 1.53471,-2.73081c0,0 -0.4486,2.20986 -0.66834,2.73917z" fill="url(#color-51)" stroke-width="0"/><path d="M275.82388,159.32834l-1.0971,2.30774c0,0 -0.02029,0.04951 -0.02947,0.07684c-0.00944,0.0281 -0.02641,0.08951 -0.02641,0.08951c0,0 -0.02647,-0.09397 -0.04609,-0.1292c-0.02022,-0.03628 -0.07351,-0.0854 -0.07351,-0.0854c0,0 0.02931,-0.03646 0.04264,-0.05641c0.01309,-0.01961 0.03662,-0.06234 0.03662,-0.06234l1.0971,-2.30774c0,0 0.02295,-0.05181 0.03072,-0.07785c0.0094,-0.03151 0.02291,-0.09595 0.02291,-0.09595c0,0 0.02692,0.11665 0.04871,0.15507c0.02101,0.03706 0.0798,0.07153 0.0798,0.07153c0,0 -0.02888,0.02314 -0.0437,0.04283c-0.01373,0.01827 -0.04222,0.07135 -0.04222,0.07135z" data-paper-data="{&quot;index&quot;:null}" fill="url(#color-52)" stroke-width="NaN"/><path d="M274.57279,158.09894c0.1372,0.45739 0.21341,0.8699 -0.03332,1.05381c-0.2392,0.17829 -0.39296,-0.14514 -0.53016,-0.60253c-0.1372,-0.45739 -0.44906,-2.57109 -0.44906,-2.57109c0,0 0.87531,1.66245 1.0125,2.11982z" fill="url(#color-53)" stroke-width="0"/><path d="M276.50406,158.43343c-0.10549,0.48233 -0.24359,0.89349 -0.55892,0.93593c-0.3057,0.04115 -0.28239,-0.32841 -0.17691,-0.81072c0.10549,-0.48233 0.88424,-2.5496 0.88424,-2.5496c0,0 -0.04293,1.94208 -0.14843,2.42441z" fill="url(#color-54)" stroke-width="0"/></g><g><path d="M263.30157,186.70113l0.60096,-0.7139l2.84192,2.39235l-0.60096,0.71389z" fill="url(#color-55)" stroke-width="0"/><path d="M252.27448,200.10223l10.71933,-12.73378c0,0 0.16775,-0.29641 0.22169,-0.47442c0.05548,-0.18308 0.10674,-0.60932 0.10674,-0.60932c0,0 0.92529,1.02714 1.45791,1.48148c0.54871,0.46806 1.78754,1.28692 1.78754,1.28692c0,0 -0.39864,0.11548 -0.56471,0.19824c-0.16316,0.08131 -0.42312,0.29407 -0.42312,0.29407l-10.71933,12.73377c0,0 -0.20845,0.29787 -0.24125,0.47441c-0.03971,0.2137 -0.01132,0.69158 -0.01132,0.69158c0,0 -1.03486,-1.2324 -1.62328,-1.73085c-0.56731,-0.48057 -1.84623,-1.20818 -1.84623,-1.20818c0,0 0.44973,0.00011 0.64564,-0.06956c0.18168,-0.0646 0.49037,-0.33436 0.49037,-0.33436z" fill="url(#color-56)" stroke-width="NaN"/></g><path d="M264.56766,185.49883l10.71933,-12.73378c0,0 0.16775,-0.29641 0.22169,-0.47442c0.05548,-0.18307 0.10674,-0.60932 0.10674,-0.60932c0,0 0.92529,1.02714 1.45791,1.48148c0.54871,0.46806 1.78754,1.28692 1.78754,1.28692c0,0 -0.39864,0.11548 -0.56471,0.19824c-0.16316,0.08131 -0.42312,0.29407 -0.42312,0.29407l-10.71933,12.73377c0,0 -0.20846,0.29787 -0.24126,0.47442c-0.03971,0.2137 -0.01132,0.69158 -0.01132,0.69158c0,0 -1.03486,-1.2324 -1.62329,-1.73085c-0.56731,-0.48057 -1.84622,-1.20818 -1.84622,-1.20818c0,0 0.44973,0.00011 0.64564,-0.06956c0.18168,-0.0646 0.49037,-0.33436 0.49037,-0.33436z" fill="url(#color-57)" stroke-width="NaN"/></g><path d="M245.27327,163.339v-8.69862h30.5982v8.69862z" fill-opacity="0.53453" fill="#000000" stroke="#a60000" stroke-width="0"/><text transform="translate(245.70712,161.61518) scale(0.21839,0.21839)" font-size="40" xml:space="preserve" fill="#ffffff" fill-rule="nonzero" stroke="none" stroke-width="1" stroke-linecap="butt" stroke-linejoin="miter" stroke-miterlimit="10" stroke-dasharray="" stroke-dashoffset="0" font-family="Serif" font-weight="normal" text-anchor="start" style="mix-blend-mode: normal"><tspan x="0" dy="0">Bamboo</tspan></text></g></g></svg>