<svg version="1.1" xmlns="http://www.w3.org/2000/svg" xmlns:xlink="http://www.w3.org/1999/xlink" width="110.59566" height="220.02471" viewBox="0,0,110.59566,220.02471"><defs><linearGradient x1="254.90001" y1="242.06667" x2="260.10001" y2="242.06667" gradientUnits="userSpaceOnUse" id="color-1"><stop offset="0" stop-color="#525252"/><stop offset="1" stop-color="#363636"/></linearGradient><linearGradient x1="254.90001" y1="242.06667" x2="260.10001" y2="242.06667" gradientUnits="userSpaceOnUse" id="color-2"><stop offset="0" stop-color="#1f1f1f"/><stop offset="1" stop-color="#000000"/></linearGradient><linearGradient x1="207.34165" y1="247.34993" x2="271.5105" y2="247.34993" gradientUnits="userSpaceOnUse" id="color-3"><stop offset="0" stop-color="#2f2f2f"/><stop offset="1" stop-color="#040404"/></linearGradient><linearGradient x1="207.34165" y1="247.34993" x2="271.5105" y2="247.34993" gradientUnits="userSpaceOnUse" id="color-4"><stop offset="0" stop-color="#1f1f1f"/><stop offset="1" stop-color="#000000"/></linearGradient><linearGradient x1="229.30001" y1="229.73334" x2="249.70001" y2="229.73334" gradientUnits="userSpaceOnUse" id="color-5"><stop offset="0" stop-color="#444444"/><stop offset="1" stop-color="#252525"/></linearGradient><linearGradient x1="222.70001" y1="242.80393" x2="255.50001" y2="242.80393" gradientUnits="userSpaceOnUse" id="color-6"><stop offset="0" stop-color="#444444"/><stop offset="1" stop-color="#252525"/></linearGradient><linearGradient x1="217.16343" y1="257.23293" x2="261.19757" y2="257.23293" gradientUnits="userSpaceOnUse" id="color-7"><stop offset="0" stop-color="#444444"/><stop offset="1" stop-color="#252525"/></linearGradient><linearGradient x1="211.30001" y1="271.60393" x2="267.30001" y2="271.60393" gradientUnits="userSpaceOnUse" id="color-8"><stop offset="0" stop-color="#444444"/><stop offset="1" stop-color="#252525"/></linearGradient><linearGradient x1="249.89788" y1="225.01767" x2="266.10094" y2="225.01767" gradientUnits="userSpaceOnUse" id="color-9"><stop offset="0" stop-color="#b2b2b2"/><stop offset="1" stop-color="#363636"/></linearGradient><linearGradient x1="249.89788" y1="225.01767" x2="266.10094" y2="225.01767" gradientUnits="userSpaceOnUse" id="color-10"><stop offset="0" stop-color="#1f1f1f"/><stop offset="1" stop-color="#000000"/></linearGradient><linearGradient x1="208.28916" y1="93.03687" x2="272.45799" y2="93.03687" gradientUnits="userSpaceOnUse" id="color-11"><stop offset="0" stop-color="#9c8f73"/><stop offset="1" stop-color="#443a22"/></linearGradient><linearGradient x1="208.28916" y1="93.01676" x2="272.458" y2="93.01676" gradientUnits="userSpaceOnUse" id="color-12"><stop offset="0" stop-color="#272727"/><stop offset="1" stop-color="#000000"/></linearGradient><linearGradient x1="224.28916" y1="65.12154" x2="255.958" y2="65.12154" gradientUnits="userSpaceOnUse" id="color-13"><stop offset="0" stop-color="#f1f5f8"/><stop offset="1" stop-color="#6d7680"/></linearGradient><linearGradient x1="224.28916" y1="65.119" x2="255.958" y2="65.119" gradientUnits="userSpaceOnUse" id="color-14"><stop offset="0" stop-color="#272727"/><stop offset="1" stop-color="#000000"/></linearGradient><linearGradient x1="217.06948" y1="81.42684" x2="264.25323" y2="81.42684" gradientUnits="userSpaceOnUse" id="color-15"><stop offset="0" stop-color="#45423b"/><stop offset="1" stop-color="#262018"/></linearGradient><linearGradient x1="271.82285" y1="203.00127" x2="303.62907" y2="203.00127" gradientUnits="userSpaceOnUse" id="color-16"><stop offset="0" stop-color="#36322b"/><stop offset="1" stop-color="#1f1c19"/></linearGradient><linearGradient x1="271.82285" y1="204.09395" x2="293.57785" y2="204.09395" gradientUnits="userSpaceOnUse" id="color-17"><stop offset="0" stop-color="#272727"/><stop offset="1" stop-color="#000000"/></linearGradient><linearGradient x1="208.57785" y1="202.66794" x2="176.77164" y2="202.66794" gradientUnits="userSpaceOnUse" id="color-18"><stop offset="0" stop-color="#6b6757"/><stop offset="1" stop-color="#827969"/></linearGradient><linearGradient x1="186.82285" y1="203.76061" x2="208.57785" y2="203.76061" gradientUnits="userSpaceOnUse" id="color-19"><stop offset="0" stop-color="#272727"/><stop offset="1" stop-color="#000000"/></linearGradient><linearGradient x1="208.48951" y1="177.01061" x2="271.89896" y2="177.01061" gradientUnits="userSpaceOnUse" id="color-20"><stop offset="0" stop-color="#635f54"/><stop offset="1" stop-color="#211f1a"/></linearGradient><linearGradient x1="208.48951" y1="177.01061" x2="271.89897" y2="177.01061" gradientUnits="userSpaceOnUse" id="color-21"><stop offset="0" stop-color="#272727"/><stop offset="1" stop-color="#000000"/></linearGradient><linearGradient x1="242.46088" y1="179.93702" x2="267.33232" y2="179.93702" gradientUnits="userSpaceOnUse" id="color-22"><stop offset="0" stop-color="#4a382c"/><stop offset="1" stop-color="#301f1b"/></linearGradient><linearGradient x1="242.46088" y1="179.93702" x2="267.33232" y2="179.93702" gradientUnits="userSpaceOnUse" id="color-23"><stop offset="0" stop-color="#351c12"/><stop offset="1" stop-color="#1a1310"/></linearGradient><linearGradient x1="242.39399" y1="179.94639" x2="267.2079" y2="179.94639" gradientUnits="userSpaceOnUse" id="color-24"><stop offset="0" stop-color="#351c12"/><stop offset="1" stop-color="#1a1310"/></linearGradient><linearGradient x1="242.39399" y1="179.75746" x2="267.2079" y2="179.75746" gradientUnits="userSpaceOnUse" id="color-25"><stop offset="0" stop-color="#351c12"/><stop offset="1" stop-color="#1a1310"/></linearGradient><linearGradient x1="212.73457" y1="180.06298" x2="237.60601" y2="180.06298" gradientUnits="userSpaceOnUse" id="color-26"><stop offset="0" stop-color="#4a382c"/><stop offset="1" stop-color="#301f1b"/></linearGradient><linearGradient x1="212.73457" y1="180.06298" x2="237.60601" y2="180.06298" gradientUnits="userSpaceOnUse" id="color-27"><stop offset="0" stop-color="#351c12"/><stop offset="1" stop-color="#1a1310"/></linearGradient><linearGradient x1="212.66769" y1="180.07235" x2="237.48159" y2="180.07235" gradientUnits="userSpaceOnUse" id="color-28"><stop offset="0" stop-color="#351c12"/><stop offset="1" stop-color="#1a1310"/></linearGradient><linearGradient x1="212.66769" y1="179.88341" x2="237.48159" y2="179.88341" gradientUnits="userSpaceOnUse" id="color-29"><stop offset="0" stop-color="#351c12"/><stop offset="1" stop-color="#1a1310"/></linearGradient><linearGradient x1="242.46088" y1="209.93702" x2="267.33232" y2="209.93702" gradientUnits="userSpaceOnUse" id="color-30"><stop offset="0" stop-color="#4a382c"/><stop offset="1" stop-color="#301f1b"/></linearGradient><linearGradient x1="242.46088" y1="209.93702" x2="267.33232" y2="209.93702" gradientUnits="userSpaceOnUse" id="color-31"><stop offset="0" stop-color="#351c12"/><stop offset="1" stop-color="#1a1310"/></linearGradient><linearGradient x1="242.39399" y1="209.94639" x2="267.2079" y2="209.94639" gradientUnits="userSpaceOnUse" id="color-32"><stop offset="0" stop-color="#351c12"/><stop offset="1" stop-color="#1a1310"/></linearGradient><linearGradient x1="242.39399" y1="209.75746" x2="267.2079" y2="209.75746" gradientUnits="userSpaceOnUse" id="color-33"><stop offset="0" stop-color="#351c12"/><stop offset="1" stop-color="#1a1310"/></linearGradient><linearGradient x1="212.73457" y1="210.06298" x2="237.60601" y2="210.06298" gradientUnits="userSpaceOnUse" id="color-34"><stop offset="0" stop-color="#4a382c"/><stop offset="1" stop-color="#301f1b"/></linearGradient><linearGradient x1="212.73457" y1="210.06298" x2="237.60601" y2="210.06298" gradientUnits="userSpaceOnUse" id="color-35"><stop offset="0" stop-color="#351c12"/><stop offset="1" stop-color="#1a1310"/></linearGradient><linearGradient x1="212.66769" y1="210.07235" x2="237.48159" y2="210.07235" gradientUnits="userSpaceOnUse" id="color-36"><stop offset="0" stop-color="#351c12"/><stop offset="1" stop-color="#1a1310"/></linearGradient><linearGradient x1="212.66769" y1="209.88341" x2="237.48159" y2="209.88341" gradientUnits="userSpaceOnUse" id="color-37"><stop offset="0" stop-color="#351c12"/><stop offset="1" stop-color="#1a1310"/></linearGradient><linearGradient x1="211.7" y1="145.8" x2="268.3" y2="145.8" gradientUnits="userSpaceOnUse" id="color-38"><stop offset="0" stop-color="#515151"/><stop offset="1" stop-color="#131313"/></linearGradient><linearGradient x1="211.7" y1="145.8" x2="268.3" y2="145.8" gradientUnits="userSpaceOnUse" id="color-39"><stop offset="0" stop-color="#272727"/><stop offset="1" stop-color="#000000"/></linearGradient><linearGradient x1="214.64792" y1="133.48421" x2="264.95903" y2="133.48421" gradientUnits="userSpaceOnUse" id="color-40"><stop offset="0" stop-color="#272727"/><stop offset="1" stop-color="#000000"/></linearGradient><linearGradient x1="214.84445" y1="158.29825" x2="264.36945" y2="158.29825" gradientUnits="userSpaceOnUse" id="color-41"><stop offset="0" stop-color="#272727"/><stop offset="1" stop-color="#000000"/></linearGradient></defs><g transform="translate(-184.90252,-60.16094)"><g data-paper-data="{&quot;isPaintingLayer&quot;:true}" fill-rule="nonzero" stroke-linejoin="miter" stroke-miterlimit="10" stroke-dasharray="" stroke-dashoffset="0" style="mix-blend-mode: normal"><g><path d="M254.90001,250.66667v-17.2h5.2v17.2z" fill="url(#color-1)" stroke="url(#color-2)" stroke-width="1.5" stroke-linecap="butt"/><path d="M207.34165,279.43564c0,0 23.96029,-64.63938 32.08881,-64.16885c9.29886,0.53827 32.08004,64.16885 32.08004,64.16885z" fill="url(#color-3)" stroke="url(#color-4)" stroke-width="1.5" stroke-linecap="butt"/><path d="M229.30001,229.73334h20.4" fill="none" stroke="url(#color-5)" stroke-width="4.5" stroke-linecap="round"/><path d="M255.50001,242.80393h-32.8" fill="none" stroke="url(#color-6)" stroke-width="4.5" stroke-linecap="round"/><path d="M217.16343,257.23293h44.03415" fill="none" stroke="url(#color-7)" stroke-width="4.5" stroke-linecap="round"/><path d="M211.30001,271.60393h56" fill="none" stroke="url(#color-8)" stroke-width="4.5" stroke-linecap="round"/><path d="M266.10094,225.01767c-0.06063,7.61853 -0.25257,8.43369 -8.10153,8.35295c-7.85147,-0.08077 -8.19893,-1.11312 -8.10153,-8.35295c0.10754,-7.99323 0.08469,-8.54885 8.10153,-8.35295c7.68121,0.18771 8.16811,-0.01299 8.10153,8.35295z" fill="url(#color-9)" stroke="url(#color-10)" stroke-width="1.5" stroke-linecap="butt"/></g><path d="M208.28916,125.12258c0,0 4.12696,-65.63938 31.75548,-64.16885c27.79886,-1.96173 32.41336,64.16885 32.41336,64.16885z" fill="url(#color-11)" stroke="url(#color-12)" stroke-width="1.5" stroke-linecap="butt"/><path d="M224.28916,69.18108c0,0 2.03675,-8.30482 15.67208,-8.11876c13.71939,-0.2482 15.99676,8.11876 15.99676,8.11876z" fill="url(#color-13)" stroke="url(#color-14)" stroke-width="1.5" stroke-linecap="butt"/><path d="M215.45647,89.52878c0,0 0.7828,-2.53863 1.93278,-5.5597c1.34953,-3.54527 3.58493,-7.75493 11.30928,-9.30593c0.29969,-0.06018 5.92996,-0.94176 5.92996,-0.94176l12.24886,0.03774c0,0 4.23426,0.30224 4.48292,0.36119c7.31017,1.7329 10.0553,6.08425 11.59197,9.72249c1.31027,3.10221 2.10749,5.68597 2.10749,5.68597z" data-paper-data="{&quot;index&quot;:null}" fill="url(#color-15)" stroke="#000000" stroke-width="0" stroke-linecap="butt"/><path d="M228.52647,81.76022c0,-3.11773 2.52742,-5.64516 5.64516,-5.64516c3.11774,0 5.64516,2.52743 5.64516,5.64516c0,3.11773 -2.52742,5.64516 -5.64516,5.64516c-3.11774,0 -5.64516,-2.52742 -5.64516,-5.64516z" fill="#caff00" stroke="none" stroke-width="0.5" stroke-linecap="butt"/><path d="M241.57485,81.88388c0,-3.11773 2.52742,-5.64516 5.64516,-5.64516c3.11774,0 5.64516,2.52743 5.64516,5.64516c0,3.11773 -2.52743,5.64516 -5.64516,5.64516c-3.11774,0 -5.64516,-2.52743 -5.64516,-5.64516z" fill="#00fcff" stroke="none" stroke-width="0.5" stroke-linecap="butt"/><path d="M271.82285,229.0938v-64.85172c0,0 8.16113,43.53356 11.01446,54.04444c2.25749,8.31596 10.74054,25.65929 10.74054,25.65929z" fill="url(#color-16)" stroke="url(#color-17)" stroke-width="1.5" stroke-linecap="butt"/><path d="M186.82285,243.61247c0,0 8.48305,-17.34332 10.74054,-25.65928c2.85333,-10.51089 11.01446,-54.04444 11.01446,-54.04444v64.85172z" data-paper-data="{&quot;index&quot;:null}" fill="url(#color-18)" stroke="url(#color-19)" stroke-width="1.5" stroke-linecap="butt"/><path d="M208.48951,229.02914v-104.03706h63.40946v104.03706z" fill="url(#color-20)" stroke="url(#color-21)" stroke-width="1.5" stroke-linecap="butt"/><g stroke-width="3"><path d="M242.46088,192.88443v-25.89482h24.87144v25.89482z" fill="url(#color-22)" stroke="url(#color-23)" stroke-linecap="butt"/><path d="M242.39399,192.54229l24.81391,-25.19178" fill="none" stroke="url(#color-24)" stroke-linecap="round"/><path d="M267.2079,192.66824l-24.56199,-25.56966" fill="none" stroke="url(#color-25)" stroke-linecap="round"/></g><g stroke-width="3"><path d="M212.73457,193.01039v-25.89482h24.87144v25.89482z" fill="url(#color-26)" stroke="url(#color-27)" stroke-linecap="butt"/><path d="M237.4816,167.47646l-24.81391,25.19179" fill="none" stroke="url(#color-28)" stroke-linecap="round"/><path d="M212.9196,167.22454l24.56199,25.56966" fill="none" stroke="url(#color-29)" stroke-linecap="round"/></g><g stroke-width="3"><path d="M242.46088,222.88443v-25.89482h24.87144v25.89482z" fill="url(#color-30)" stroke="url(#color-31)" stroke-linecap="butt"/><path d="M242.39399,222.54229l24.81391,-25.19178" fill="none" stroke="url(#color-32)" stroke-linecap="round"/><path d="M267.2079,222.66824l-24.56199,-25.56965" fill="none" stroke="url(#color-33)" stroke-linecap="round"/></g><g stroke-width="3"><path d="M212.73457,223.01039v-25.89482h24.87144v25.89482z" fill="url(#color-34)" stroke="url(#color-35)" stroke-linecap="butt"/><path d="M212.66769,222.66825l24.81391,-25.19179" fill="none" stroke="url(#color-36)" stroke-linecap="round"/><path d="M212.9196,197.22454l24.56199,25.56966" fill="none" stroke="url(#color-37)" stroke-linecap="round"/></g><g stroke-width="1.5"><path d="M211.7,161.4v-31.2h56.6v31.2z" fill="url(#color-38)" stroke="url(#color-39)" stroke-linecap="butt"/><path d="M214.64792,133.48421h50.31111" fill="none" stroke="url(#color-40)" stroke-linecap="round"/><path d="M214.84445,158.29825h49.525" fill="none" stroke="url(#color-41)" stroke-linecap="round"/></g></g></g></svg>