<svg version="1.1" xmlns="http://www.w3.org/2000/svg" xmlns:xlink="http://www.w3.org/1999/xlink" width="97.67679" height="104.40042" viewBox="0,0,97.67679,104.40042"><defs><linearGradient x1="239.03939" y1="203.31054" x2="239.03939" y2="223.26017" gradientUnits="userSpaceOnUse" id="color-1"><stop offset="0" stop-color="#fd0101"/><stop offset="1" stop-color="#fd0101" stop-opacity="0"/></linearGradient><linearGradient x1="238.97354" y1="204.26673" x2="238.97354" y2="222.58054" gradientUnits="userSpaceOnUse" id="color-2"><stop offset="0" stop-color="#fc531d"/><stop offset="1" stop-color="#fc531d" stop-opacity="0"/></linearGradient><linearGradient x1="238.86564" y1="203.2839" x2="238.86564" y2="218.71604" gradientUnits="userSpaceOnUse" id="color-3"><stop offset="0" stop-color="#fe7a1b"/><stop offset="1" stop-color="#fe7a1b" stop-opacity="0"/></linearGradient><linearGradient x1="238.90204" y1="204.20218" x2="238.90204" y2="217.91052" gradientUnits="userSpaceOnUse" id="color-4"><stop offset="0" stop-color="#ff9f1c"/><stop offset="1" stop-color="#ff9f1c" stop-opacity="0"/></linearGradient><linearGradient x1="238.97469" y1="203.19422" x2="238.97469" y2="214.17413" gradientUnits="userSpaceOnUse" id="color-5"><stop offset="0" stop-color="#fafa01"/><stop offset="1" stop-color="#fafa01" stop-opacity="0"/></linearGradient><linearGradient x1="238.67849" y1="204.14801" x2="238.67849" y2="213.35331" gradientUnits="userSpaceOnUse" id="color-6"><stop offset="0" stop-color="#fdf977"/><stop offset="1" stop-color="#fdf977" stop-opacity="0"/></linearGradient><linearGradient x1="232.05332" y1="202.54262" x2="245.28719" y2="202.54262" gradientUnits="userSpaceOnUse" id="color-7"><stop offset="0" stop-color="#515151"/><stop offset="1" stop-color="#242424"/></linearGradient><linearGradient x1="224.58994" y1="177.30136" x2="252.01048" y2="177.30136" gradientUnits="userSpaceOnUse" id="color-8"><stop offset="0" stop-color="#ffa000"/><stop offset="1" stop-color="#de6b00"/></linearGradient><radialGradient cx="238.21976" cy="177.62112" r="23.84227" gradientUnits="userSpaceOnUse" id="color-9"><stop offset="0" stop-color="#010101"/><stop offset="1" stop-color="#dedede"/></radialGradient><linearGradient x1="238.7676" y1="156.39508" x2="238.7676" y2="163.24613" gradientUnits="userSpaceOnUse" id="color-10"><stop offset="0" stop-color="#c28b5f"/><stop offset="1" stop-color="#ffb87d"/></linearGradient><radialGradient cx="234.73155" cy="133.74288" r="13.11833" gradientUnits="userSpaceOnUse" id="color-11"><stop offset="0" stop-color="#ffd9ba"/><stop offset="1" stop-color="#ffb87d"/></radialGradient><radialGradient cx="229.61139" cy="134.97569" r="10.07074" gradientUnits="userSpaceOnUse" id="color-12"><stop offset="0" stop-color="#303030"/><stop offset="1" stop-color="#292929"/></radialGradient><radialGradient cx="246.08399" cy="132.03505" r="2.65078" gradientUnits="userSpaceOnUse" id="color-13"><stop offset="0" stop-color="#787878"/><stop offset="1" stop-color="#292929"/></radialGradient><radialGradient cx="234.90139" cy="134.03769" r="4.17314" gradientUnits="userSpaceOnUse" id="color-14"><stop offset="0" stop-color="#a7a7a7"/><stop offset="1" stop-color="#292929"/></radialGradient><radialGradient cx="218.30303" cy="192.42544" r="12.35841" gradientUnits="userSpaceOnUse" id="color-15"><stop offset="0" stop-color="#dedede"/><stop offset="1" stop-color="#9c9c9c"/></radialGradient><radialGradient cx="258.13126" cy="192.51016" r="12.35841" gradientUnits="userSpaceOnUse" id="color-16"><stop offset="0" stop-color="#dedede"/><stop offset="1" stop-color="#9c9c9c"/></radialGradient></defs><g transform="translate(-190.10708,-129.97443)"><g data-paper-data="{&quot;isPaintingLayer&quot;:true}" fill-rule="nonzero" stroke-linejoin="miter" stroke-miterlimit="10" stroke-dasharray="" stroke-dashoffset="0" style="mix-blend-mode: normal"><g data-paper-data="{&quot;index&quot;:null}" stroke="none" stroke-width="0.5" stroke-linecap="butt"><path d="M243.27819,204.82414c-0.12688,0.25933 -0.44964,0.25933 -0.44964,0.25933l-0.38331,-0.03576c-1.15531,-0.46212 -2.15566,-0.91137 -3.42093,-0.65832c-1.53105,0.0058 -3.22433,-0.21432 -4.28453,1.17377c-0.27159,0.35559 -0.14841,1.15146 -0.53481,1.53265c-0.53015,0.523 -1.18111,0.38469 -1.73068,0.83858c-0.45504,0.37582 -1.20978,1.02636 -1.43204,1.57342c-0.14504,0.35697 -0.21634,1.85022 0.38873,1.21394c3.48656,0.15215 -0.84834,6.41157 0.00036,8.4357c0.19857,0.47356 5.42748,-2.52903 3.5935,0.5507c-0.2604,0.45913 -0.56278,0.89715 -0.90251,1.3011c-0.83368,0.99128 -0.73871,1.33263 0.72763,0.79162c1.34313,-0.49555 2.04483,-2.10825 3.2519,-2.71144c0.39063,-0.1952 0.89778,-0.48558 1.28071,-0.27569c0.13287,0.07283 0.09965,5.51431 2.20313,3.10279c0.61516,-0.60918 1.21046,-2.49811 2.10944,-2.61613c0.54376,-0.07138 0.83435,1.55119 1.19128,1.13481c0.77647,-0.90581 -0.23099,-3.00534 0.51052,-3.90505c0.37353,-0.45322 1.21661,-0.44055 1.60708,-0.04164c-0.01937,-0.09588 -0.03184,-0.18411 -0.03153,-0.24571c0.00373,-0.75279 -0.11213,-1.24189 -0.50336,-1.88833c-0.94905,-1.217 -1.60654,-4.1139 0.02612,-4.95273c0.67508,-0.34685 -1.14657,-1.0332 -1.52407,-1.69163c-0.20696,-0.36098 0.0878,-0.83565 0.22869,-1.22718c0.04809,-0.13364 -1.66834,-1.49358 -1.9217,-1.65877zM243.08073,204.14709c0.00343,-0.00612 0.00701,-0.01227 0.01072,-0.01846c0.25725,-0.42874 0.68599,-0.1715 0.68599,-0.1715c1.16094,0.70588 2.67643,1.95867 1.90596,3.12521c-0.49786,0.75381 1.58468,1.15907 1.78393,2.04019c0.09969,0.44086 -0.42171,0.81057 -0.72434,1.14628c-0.70455,0.78157 0.00132,2.85342 0.54718,3.51479c0.25994,0.43599 1.44559,3.68896 0.44519,4.07023c-0.96748,0.36873 -1.21984,-0.23854 -1.54909,-0.726c-0.24045,-0.356 0.00932,0.85916 0.00768,1.28875c-0.00236,0.61476 -0.2085,2.63829 -0.87816,2.92176c-0.37962,0.1607 -0.8454,-0.06134 -1.21066,-0.25245c-0.25605,-0.13397 -0.23975,-1.04709 -0.36468,-0.78651c-0.41478,0.86511 -0.75604,1.627 -1.44764,2.32426c-0.87286,0.80973 -2.48215,0.93484 -3.31422,-0.14156c-0.14232,-0.18412 -0.40132,-1.65615 -0.40423,-2.4354c-0.41338,0.47902 -1.26663,1.14813 -1.30898,1.18482c-1.10455,0.95704 -2.31468,2.02218 -3.91814,1.62837c-1.9942,-0.48978 0.00005,-2.49249 0.73397,-3.53007c-0.68396,0.4178 -2.79524,1.19933 -3.37174,0.51967c-0.98053,-1.15598 0.28737,-4.96565 0.68191,-6.05122c0.1574,-0.43309 1.14361,-2.23829 0.30654,-2.11278c-1.51842,0.65043 -2.05062,-1.31377 -1.58742,-2.54075c0.65705,-1.74048 2.35753,-1.69476 3.35859,-2.72601c0.29793,-0.30692 0.21287,-1.10812 0.45327,-1.43158c1.22532,-1.64873 3.18901,-1.60098 5.0034,-1.59286c1.42349,-0.28469 2.59445,0.20643 3.89085,0.72499l0.01192,-0.03576c0,0 0.12647,0 0.25219,0.0636z" fill="url(#color-1)"/><path d="M242.84952,205.03812c0,0 0.32417,0.00066 0.45105,-0.25866c0.25337,0.16519 1.9808,1.53262 1.93271,1.66627c-0.14089,0.39152 -0.43284,0.86893 -0.22588,1.22991c0.3775,0.65844 2.20704,1.35569 1.53195,1.70254c-1.63267,0.83883 -0.96965,3.76545 -0.02059,4.98246c0.39123,0.64645 0.50463,1.146 0.5009,1.89879c-0.0003,0.06159 0.01173,0.15104 0.03109,0.24692c-0.39047,-0.39892 -1.23525,-0.40765 -1.60878,0.04557c-0.74151,0.8997 0.25317,3.0157 -0.5233,3.92151c-0.35693,0.41638 -0.64844,-1.20544 -1.1922,-1.13406c-0.89898,0.11802 -1.5109,2.01577 -2.12605,2.62495c-2.10348,2.41152 -2.08117,-3.02789 -2.21405,-3.10072c-0.38293,-0.20988 -0.90147,0.08005 -1.29209,0.27525c-1.20707,0.6032 -1.92326,2.21134 -3.26639,2.70689c-1.46634,0.54101 -1.56617,0.19692 -0.73249,-0.79436c0.33973,-0.40395 0.64245,-0.84176 0.90285,-1.30088c1.83398,-3.07973 -3.40814,-0.08922 -3.6067,-0.56278c-0.84871,-2.02413 3.47893,-8.33068 -0.00763,-8.48283c-0.60507,0.63627 -0.53154,-0.86224 -0.3865,-1.21922c0.22226,-0.54705 0.98363,-1.20773 1.43868,-1.58354c0.54957,-0.45389 1.20863,-0.32325 1.73878,-0.84625c0.3864,-0.38119 0.2696,-1.18116 0.54119,-1.53674c1.0602,-1.38809 2.77746,-1.17394 4.30851,-1.17974c1.26528,-0.25305 2.28449,0.20002 3.43979,0.66214l0.38514,0.03657z" data-paper-data="{&quot;noHover&quot;:false,&quot;origItem&quot;:[&quot;Path&quot;,{&quot;applyMatrix&quot;:true,&quot;segments&quot;:[[[234.50421,204.82417],[0.12688,0.25932],[-0.25336,0.16519]],[[232.58251,206.48294],[-0.04809,-0.13365],[0.14089,0.39153]],[[232.8112,207.71012],[0.20696,-0.36098],[-0.3775,0.65843]],[[231.28713,209.40175],[-0.67509,-0.34685],[1.63266,0.83883]],[[231.31325,214.35448],[0.94906,-1.21701],[-0.39123,0.64644]],[[230.80989,216.24281],[-0.00373,-0.75279],[0.00031,0.0616]],[[230.77836,216.48853],[0.01936,-0.09588],[0.39047,-0.39891]],[[232.38544,216.53016],[-0.37353,-0.45322],[0.74151,0.89971]],[[232.89596,220.43522],[-0.77647,-0.90581],[0.35693,0.41638]],[[234.08724,219.30041],[-0.54376,-0.07138],[0.89898,0.11802]],[[236.19668,221.91654],[-0.61515,-0.60918],[2.10348,2.41152]],[[238.39981,218.81375],[-0.13288,0.07283],[0.38293,-0.20989]],[[239.68052,219.08944],[-0.39062,-0.1952],[1.20707,0.60319]],[[242.93242,221.80088],[-1.34313,-0.49555],[1.46634,0.54101]],[[243.66006,221.00926],[0.83368,0.99128],[-0.33973,-0.40395]],[[242.75755,219.70816],[0.26039,0.45912],[-1.83398,-3.07973]],[[246.35104,219.15746],[-0.19856,0.47356],[0.8487,-2.02413]],[[246.35141,210.72176],[-3.48656,0.15215],[0.60507,0.63628]],[[246.74014,209.50782],[0.14504,0.35698],[-0.22226,-0.54706]],[[245.3081,207.9344],[0.45504,0.37581],[-0.54957,-0.45389]],[[243.57742,207.09582],[0.53015,0.523],[-0.3864,-0.38119]],[[243.04261,205.56317],[0.27159,0.35558],[-1.0602,-1.38809]],[[238.75809,204.38941],[1.53105,0.0058],[-1.26527,-0.25305]],[[235.33716,205.04773],[1.1553,-0.46212],[0,0]],[234.95385,205.0835]],&quot;closed&quot;:true}]}" fill="url(#color-2)"/><path d="M241.98661,205.19961c-1.3611,-0.66495 -4.33574,-1.58385 -5.17494,-0.32376c-0.66034,0.99152 -0.56525,3.44653 -2.27041,3.79255c-0.00021,0.01332 -0.00043,0.02659 -0.00066,0.03979l0.01176,0.01411l-0.01222,0.01018c-0.01478,0.75065 -0.08746,1.32459 -0.20991,2.05929c-0.06398,0.38387 -0.54574,1.11845 -0.15846,1.1567c0.58045,0.05735 1.40799,-0.08245 1.69775,0.42377c0.38944,0.68037 -0.73881,2.86689 -0.94915,3.47712c1.61542,2.47511 1.9657,-1.18391 3.6815,-0.45093c0.46696,0.19948 0.49286,1.07146 0.73485,1.40714c0.2244,0.31127 0.55575,-0.70048 0.93804,-0.66729c0.68729,0.05967 1.04507,2.24873 1.30224,1.60858c0.2026,-0.50431 0.39335,-1.81564 0.85597,-1.56776c0.14115,-0.80019 0.41134,-1.30406 0.86233,-1.9822c0.89264,-1.43831 -0.66536,-2.09571 -0.57084,-3.51353c0.02912,-0.43684 0.49932,-0.81521 0.91964,-0.93773c0.60349,-0.17592 -0.94302,-0.92776 -1.08997,-1.53896c-0.08706,-0.3621 -0.17851,-0.80534 0.0254,-1.11697c0.15406,-0.23546 1.01578,0.19704 0.84377,-0.02565c-0.44171,-0.57184 -0.95768,-1.18013 -1.39687,-1.79471c0,0 -0.01863,-0.02607 -0.03985,-0.06974zM243.20775,205.14548c0.52603,0.63799 1.34015,1.64456 1.19978,2.09547c-0.09424,0.30273 -0.6248,0.70088 -0.92884,0.70747c0.1609,0.22079 0.36974,0.55101 0.46619,0.71766c0.17566,0.3035 0.72732,1.12558 0.6371,1.42652c-0.10273,0.34261 -0.91618,0.29014 -0.8589,0.6432c0.26574,1.63798 1.42312,2.27804 0.41723,3.99586c-0.35907,0.53722 -0.61037,0.90798 -0.71297,1.54177v0.75986c0,0.27614 -0.22386,0.5 -0.5,0.5c-0.10668,0 -0.20555,-0.03341 -0.28673,-0.09034c0.02288,0.34801 0.02531,0.94043 -0.7343,1.24814c-0.7028,0.2847 -1.02764,-1.9687 -1.66199,-1.55327c-0.42503,0.27835 -1.00248,0.78765 -1.43334,0.51841c-0.42578,-0.26607 -0.49538,-0.88132 -0.64847,-1.35948c-0.10832,-0.33833 -0.45799,0.54458 -0.71128,0.79367c-0.36816,0.36203 -0.75187,0.86909 -1.40245,0.71313c-0.53501,-0.12825 -1.83954,-1.3578 -2.10941,-1.76012c0.12089,-0.80219 1.17402,-2.50267 1.02701,-3.2418c-0.08238,-0.41416 -0.90601,0.24845 -1.26649,0.02853c-0.91499,-0.55821 -0.47501,-2.61043 -0.04177,-3.48427l-0.1077,-0.02154c-0.23369,-0.04198 -0.41102,-0.24633 -0.41102,-0.49211c0,-0.15574 0.07121,-0.29485 0.18284,-0.38655l0.58992,-0.4916l0.10473,0.12566c0.72651,-0.69067 1.62951,-1.53442 1.71538,-1.8703c0.23538,-0.92068 -0.36463,-1.76955 0.83306,-2.46202c1.73939,-1.00566 4.57715,-0.19615 6.20543,0.73403c0.11952,0.01277 0.45896,0.08529 0.45896,0.49727c0,0.06324 -0.00799,0.11848 -0.02197,0.16674z" fill="url(#color-3)"/><path d="M236.79562,204.82847c0.8392,-1.26009 3.85316,-0.33806 5.21426,0.32688c0.02122,0.04366 0.0403,0.06998 0.0403,0.06998c0.43919,0.61457 0.96889,1.23377 1.4106,1.80561c0.17201,0.22269 -0.76117,-0.14004 -0.91524,0.09542c-0.20391,0.31164 -0.03906,0.68744 0.048,1.04954c0.14695,0.61119 1.70224,1.38048 1.09874,1.5564c-0.42032,0.12253 -0.88895,0.50936 -0.91807,0.9462c-0.09452,1.41782 1.45439,2.10916 0.56175,3.54747c-0.45099,0.67814 -0.73348,1.1941 -0.87464,1.99429c-0.46262,-0.24788 -0.66318,1.06871 -0.86578,1.57302c-0.25717,0.64015 -0.62048,-1.54707 -1.30777,-1.60674c-0.38228,-0.03319 -0.72291,0.98015 -0.94731,0.66888c-0.242,-0.33568 -0.27511,-1.20764 -0.74207,-1.40712c-1.7158,-0.73298 -2.09457,2.91462 -3.70999,0.43951c0.21033,-0.61023 1.32466,-2.81532 0.93523,-3.49568c-0.28975,-0.50622 -1.12055,-0.37706 -1.70101,-0.4344c-0.38728,-0.03826 0.0937,-0.78498 0.15768,-1.16885c0.12245,-0.7347 0.20092,-1.32926 0.2157,-2.07991l0.01229,-0.01031l-0.01173,-0.01417c0.00023,-0.0132 0.00062,-0.02678 0.00082,-0.0401c1.70516,-0.34602 1.63791,-2.82438 2.29824,-3.8159z" data-paper-data="{&quot;noHover&quot;:false,&quot;origItem&quot;:[&quot;Path&quot;,{&quot;applyMatrix&quot;:true,&quot;segments&quot;:[[[235.7958,205.19961],[1.3611,-0.66494],[-0.02122,0.04367]],[[235.75595,205.26935],[0,0],[-0.43919,0.61458]],[[234.35908,207.06406],[0.44171,-0.57184],[-0.17201,0.22269]],[[235.20285,207.08971],[-0.15407,-0.23546],[0.20391,0.31163]],[[235.22826,208.20668],[0.08706,-0.3621],[-0.14695,0.6112]],[[234.13829,209.74564],[-0.6035,-0.17592],[0.42032,0.12252]],[[235.05793,210.68337],[-0.02912,-0.43684],[0.09452,1.41782]],[[234.48709,214.1969],[-0.89264,-1.43831],[0.45099,0.67814]],[[235.34942,216.1791],[-0.14116,-0.80019],[0.46262,-0.24788]],[[236.20539,217.74686],[-0.2026,-0.50431],[0.25717,0.64015]],[[237.50764,216.13828],[-0.68729,0.05967],[0.38229,-0.03319]],[[238.44568,216.80557],[-0.2244,0.31127],[0.24199,-0.33568]],[[239.18053,215.39843],[-0.46696,0.19948],[1.7158,-0.73298]],[[242.86202,215.84936],[-1.61542,2.47511],[-0.21034,-0.61023]],[[241.91287,212.37224],[-0.38943,0.68036],[0.28976,-0.50622]],[[243.61062,211.94847],[-0.58045,0.05734],[0.38728,-0.03825]],[[243.45216,210.79178],[0.06398,0.38387],[-0.12245,-0.7347]],[[243.24225,208.73248],[0.01478,0.75065],[0,0]],[243.23004,208.7223],[[243.2418,208.70819],[0,0],[-0.00023,-0.0132]],[[243.24114,208.6684],[0.0002,0.01332],[-1.70516,-0.34602]],[[240.97074,204.87585],[0.66033,0.99152],[-0.8392,-1.26009]]],&quot;closed&quot;:true}]}" fill="url(#color-4)"/><path d="M239.17827,204.19772c-0.43142,0.01953 -1.24891,0.13183 -1.09633,0.68255c0.06589,0.2378 0.42378,0.37416 0.40426,0.62015c-0.02907,0.3663 -1.14773,1.62179 -1.37224,1.9361c-0.43382,0.65057 -1.26951,2.89812 -0.0839,3.42132c0.28048,0.12378 0.72429,-0.14884 0.91522,0.09103c0.40604,0.51015 0.05835,1.18325 0.13742,1.74112c0.02313,0.16318 0.06207,0.64375 0.10187,0.48382c0.09389,-0.37728 -0.03743,-0.76422 0.74119,-0.78803c0.5109,-0.01563 1.12322,1.29424 1.29929,0.81438c0.13958,-0.38042 0.39335,-0.88248 0.71681,-0.97597c-0.8709,-1.20187 -2.34853,-3.84657 -1.61511,-5.11389c0.18712,-0.32333 1.0009,-0.54738 1.48998,-0.60479c-0.41954,-0.3759 -1.05713,-1.45647 -1.30849,-1.59208c0,0 -0.40004,-0.24003 -0.19544,-0.64279c-0.05472,-0.02114 -0.10075,-0.04898 -0.13454,-0.07293zM239.92524,204.01265c0.05977,0.02065 0.09749,0.04328 0.09749,0.04328c0.49451,0.31575 2.32462,2.2854 1.96213,3.03606c-0.41839,0.86642 -1.43708,-0.26536 -1.78064,0.49791c-0.47084,1.04605 1.14753,3.56763 1.74341,4.30665l0.00748,0.02107l0.00494,-0.00329l0.39144,0.58716c0.05536,0.08048 0.08777,0.17798 0.08777,0.28304c0,0.27614 -0.22386,0.5 -0.5,0.5c-0.03125,0 -0.06183,-0.00287 -0.09149,-0.00835l-0.10291,-0.01715c-0.66943,0.35777 -1.08797,1.01886 -1.80115,0.9006c-0.39621,-0.0657 -0.52208,-0.72012 -0.91941,-0.77872c-0.38085,-0.05617 -0.45524,0.81218 -0.83973,0.7929c-1.76727,-0.08863 -0.5236,-2.15575 -0.9464,-2.51783c-0.17011,-0.14568 -0.47534,0.20903 -0.6657,0.09103c-1.64874,-1.02199 -1.08219,-3.67725 -0.28152,-4.87853c1.08227,-1.51518 0.69578,-3.65138 3.07931,-3.67425l0.45236,0.24525c0,0 0.26949,0.26948 0.10263,0.57318z" fill="url(#color-5)"/><path d="M238.07427,204.83084c-0.15258,-0.55072 0.67798,-0.66331 1.10941,-0.68284c0.03379,0.02396 0.08137,0.05199 0.13609,0.07313c-0.2046,0.40277 0.19899,0.64342 0.19899,0.64342c0.25136,0.13561 0.91287,1.22881 1.33241,1.60472c-0.48908,0.05741 -1.31902,0.27117 -1.50614,0.5945c-0.73341,1.26732 0.7532,4.00045 1.6241,5.20232c-0.32346,0.09349 -0.58811,0.60088 -0.72769,0.9813c-0.17607,0.47986 -0.80143,-0.82735 -1.31233,-0.81173c-0.77862,0.02381 -0.65624,0.41055 -0.75013,0.78783c-0.0398,0.15993 -0.08067,-0.3209 -0.1038,-0.48408c-0.07907,-0.55787 0.26025,-1.233 -0.1458,-1.74314c-0.19092,-0.23987 -0.64971,0.02469 -0.93019,-0.09909c-1.18561,-0.52321 -0.35737,-2.84224 0.07645,-3.49281c0.22451,-0.31431 1.37847,-1.58757 1.40754,-1.95387c0.01952,-0.24598 -0.34303,-0.38185 -0.40891,-0.61965z" data-paper-data="{&quot;noHover&quot;:false,&quot;origItem&quot;:[&quot;Path&quot;,{&quot;applyMatrix&quot;:true,&quot;segments&quot;:[[[238.60412,204.19771],[0.43143,0.01953],[-0.03379,0.02395]],[[238.46958,204.27065],[0.05472,-0.02114],[0.2046,0.40276]],[[238.27414,204.91343],[0,0],[-0.25136,0.13561]],[[236.96565,206.50552],[0.41954,-0.37591],[0.48908,0.05741]],[[238.45563,207.11031],[-0.18712,-0.32333],[0.73342,1.26732]],[[236.84052,212.22419],[0.8709,-1.20187],[0.32346,0.09349]],[[237.55733,213.20016],[-0.13958,-0.38042],[0.17607,0.47986]],[[238.85662,212.38578],[-0.5109,-0.01562],[0.77862,0.02381]],[[239.59782,213.17381],[-0.09389,-0.37728],[0.0398,0.15993]],[[239.69969,212.68999],[-0.02313,0.16318],[0.07907,-0.55787]],[[239.83711,210.94887],[-0.40605,0.51014],[0.19093,-0.23987]],[[240.75234,210.85784],[-0.28048,0.12378],[1.18561,-0.5232]],[[240.66843,207.43652],[0.43382,0.65057],[-0.22451,-0.31431]],[[239.2962,205.50041],[0.02907,0.3663],[-0.01952,-0.24599]],[[239.70045,204.88026],[-0.06588,0.2378],[0.15258,-0.55072]]],&quot;closed&quot;:true}]}" fill="url(#color-6)"/></g><path d="M232.05332,204.99334l2.6141,-4.90143h7.51553l3.10424,4.90143z" fill="url(#color-7)" stroke="#000000" stroke-width="0" stroke-linecap="butt"/><path d="M238.28456,201.2444c-14.02176,0.20134 -13.69397,-10.72028 -13.69397,-23.94441c0,-13.22413 0.5759,-23.94441 13.69397,-23.94441c13.63483,0 13.69397,10.72028 13.69397,23.94441c0,13.22413 1.36161,23.72823 -13.69397,23.94441z" fill="url(#color-8)" stroke="#000000" stroke-width="0" stroke-linecap="butt"/><path d="M222.40945,197.38399v-39.52573h31.62062v39.52573z" fill="url(#color-9)" stroke="#ed6b00" stroke-width="0" stroke-linecap="butt"/><g><path d="M252.49166,225.28213c0,0 -7.10119,-24.80352 -8.91969,-28.90834c-0.59463,-1.34222 -3.63877,-0.79297 -3.63877,-0.79297c0,0 -3.83036,-3.53207 -0.27915,-4.27807c3.00131,-0.63047 10.06092,0.11684 10.06092,0.11684l10.60887,32.21726z" data-paper-data="{&quot;index&quot;:null}" fill="#726f7c" stroke="#000000" stroke-width="0" stroke-linecap="butt"/><path d="M267.73554,229.36887c-0.5801,0.12186 -2.58483,0.55694 -4.61763,0.90166c-1.2359,0.20958 -1.98853,-0.21355 -2.93134,-0.16146c-1.18694,0.06559 -2.83045,0.81987 -3.70092,0.80704c-1.60397,-0.02365 -2.48381,-0.27303 -2.48381,-0.27303c0,0 -0.47417,-0.94817 -0.60551,-1.49321c-0.17695,-0.73432 -0.36074,-2.51661 -0.36074,-2.51661c0,0 5.78291,-1.33698 8.08954,-1.61683c1.3649,-0.16559 4.28296,-0.23879 4.28296,-0.23879c0,0 1.55514,0.30235 1.85201,0.67654c0.3636,0.45829 1.26324,1.76669 1.26324,1.76669c0,0 0.0214,1.978 -0.78784,2.14799z" data-paper-data="{&quot;index&quot;:null}" fill="#141415" stroke="#000000" stroke-width="0" stroke-linecap="butt"/><path d="M266.9411,226.90474c-0.24291,0.05103 1.01667,1.42304 -2.28813,1.84287c-3.12079,0.39646 -2.96145,-0.59206 -4.05885,-0.4439c-2.29469,0.30982 -2.41006,1.11429 -3.41982,1.17009c-0.35167,0.01943 -0.52531,-0.00669 -1.94596,-0.58275c-0.97704,-0.39618 -1.01146,-1.57697 -1.72753,-2.06833c-1.04598,-0.71775 -1.17888,-1.67931 -1.17888,-1.67931l-0.70129,-2.96693c0,0 0.92964,2.05969 1.92014,2.69402c0.88622,0.56754 2.26355,-0.49465 2.73688,-0.59423c0.82882,-0.17435 -1.34598,-3.05662 -0.54976,-3.20524c0.42813,-0.07991 3.59511,-0.99441 3.59511,-0.99441c0,0 0.85635,3.47814 1.08847,3.44997c1.3649,-0.16559 4.63896,-0.31358 4.63896,-0.31358c0,0 1.55514,0.30235 1.85202,0.67654c0.3636,0.45829 1.22534,2.76591 1.22534,2.76591c0,0 -0.37747,0.07929 -1.1867,0.24929z" data-paper-data="{&quot;index&quot;:null}" fill="#252527" stroke="#000000" stroke-width="0" stroke-linecap="butt"/><path d="M261.41281,223.94817l-2.38637,1.61645" fill="none" stroke="#ffffff" stroke-width="0.5" stroke-linecap="round"/><path d="M260.99995,225.52177l2.19291,-1.94753" fill="none" stroke="#ffffff" stroke-width="0.5" stroke-linecap="round"/><path d="M264.31073,223.58723l-1.12489,1.72317" fill="none" stroke="#ffffff" stroke-width="0.5" stroke-linecap="round"/><path d="M257.04204,222.01649l2.08619,-0.68605" fill="none" stroke="#969696" stroke-width="0.5" stroke-linecap="round"/><path d="M259.51515,221.99259l-1.82392,0.75487" fill="none" stroke="#969696" stroke-width="0.5" stroke-linecap="round"/></g><g><path d="M232.91902,228.78291l-2.47825,-33.82837c0,0 6.24119,-3.38291 9.25614,-3.94457c3.56735,-0.66457 1.3733,4.06125 1.3733,4.06125c0,0 -3.02357,0.65308 -3.06143,2.12063c-0.11579,4.48811 2.778,30.12534 2.778,30.12534z" fill="#726f7c" stroke="#000000" stroke-width="0" stroke-linecap="butt"/><path d="M248.87133,230.95485c0,0 -0.02385,1.97797 -0.83677,2.12941c-0.58274,0.10856 -2.59688,0.49768 -4.63704,0.7958c-1.24036,0.18125 -1.98312,-0.25897 -2.92688,-0.22846c-1.18813,0.03842 -2.84845,0.7549 -3.71841,0.72216c-1.60301,-0.06032 -2.47691,-0.32976 -2.47691,-0.32976c0,0 -0.45236,-0.95877 -0.57119,-1.50668c-0.1601,-0.73816 -0.30308,-2.52419 -0.30308,-2.52419c0,0 5.81197,-1.20436 8.12441,-1.43137c1.36833,-0.13433 4.2873,-0.14076 4.2873,-0.14076c0,0 1.54781,0.33785 1.83605,0.71873c0.35303,0.46648 1.22251,1.79513 1.22251,1.79513z" data-paper-data="{&quot;index&quot;:null}" fill="#141415" stroke="#000000" stroke-width="0" stroke-linecap="butt"/><path d="M248.48879,230.38054c0,0 -0.37916,0.07064 -1.19209,0.22208c-0.24403,0.04545 0.98384,1.44593 -2.32968,1.79004c-3.12904,0.32496 -2.94714,-0.65964 -4.04763,-0.53662c-2.30118,0.25725 -2.43491,1.05888 -3.4457,1.09155c-0.35202,0.01137 -0.52502,-0.01871 -1.9321,-0.62711c-0.96771,-0.41842 -0.97512,-1.5997 -1.67977,-2.1073c-1.02929,-0.7415 -1.14016,-1.70584 -1.14016,-1.70584l-0.63325,-2.9822c0,0 0.88229,2.08043 1.85802,2.73724c0.87301,0.58767 2.27428,-0.44275 2.74975,-0.53147c0.83258,-0.15536 -1.27572,-3.08662 -0.47632,-3.21699c0.42985,-0.0701 3.61692,-0.91192 3.61692,-0.91192c0,0 0.77657,3.49681 1.00928,3.47396c1.36832,-0.13432 4.64492,-0.20738 4.64492,-0.20738c0,0 1.54781,0.33785 1.83605,0.71873c0.35304,0.46648 1.16175,2.79321 1.16175,2.79321z" data-paper-data="{&quot;index&quot;:null}" fill="#252527" stroke="#000000" stroke-width="0" stroke-linecap="butt"/><path d="M241.83749,227.52035l-2.42271,1.56145" fill="none" stroke="#ffffff" stroke-width="0.5" stroke-linecap="round"/><path d="M241.38872,229.0841l2.23688,-1.89686" fill="none" stroke="#ffffff" stroke-width="0.5" stroke-linecap="round"/><path d="M243.57888,228.92278l1.16401,-1.697" fill="none" stroke="#ffffff" stroke-width="0.5" stroke-linecap="round"/><path d="M239.61338,224.85107l-2.10134,0.63816" fill="none" stroke="#969696" stroke-width="0.5" stroke-linecap="round"/><path d="M239.98503,225.52189l-1.84072,0.71295" fill="none" stroke="#969696" stroke-width="0.5" stroke-linecap="round"/></g><path d="M234.93952,163.24613v-6.85104h7.65615v6.85104z" fill="url(#color-10)" stroke="#000000" stroke-width="0" stroke-linecap="butt"/><path d="M230.49814,194.56428c0,0 -0.11293,-5.56106 -0.90302,-10.9122c-0.53685,-3.63606 -1.7532,-6.87967 -2.03542,-9.36282c-0.5297,-4.66058 -0.88374,-13.35468 -0.88374,-13.35468c0,0 3.65767,-0.76983 5.45147,-0.49356c2.2834,0.35167 7.13803,2.4325 7.13803,2.4325c0,0 3.56299,-2.35291 5.45303,-2.86495c1.99425,-0.54026 6.21665,-0.29648 6.21665,-0.29648c0,0 0.39492,9.2089 0.41037,12.65167c0.01367,3.04602 -0.56794,6.40481 -0.63474,10.91871c-0.06884,4.65232 0.37685,10.41578 0.37685,10.41578c0,0 -2.7922,-0.62959 -5.60696,-0.55605c-1.27827,0.0334 -1.73835,1.095 -2.93606,1.31475c-0.95733,0.17564 -2.66374,-0.47946 -3.58925,-0.46961c-0.69966,0.00744 -2.06788,-0.42707 -2.5617,-0.4063c-0.9971,0.04194 -1.57012,0.94551 -2.71837,1.16293c-1.33382,0.25255 -3.17717,-0.17971 -3.17717,-0.17971z" fill="#ffffff" stroke="#292e32" stroke-width="0" stroke-linecap="butt"/><path d="M251.82917,143.97249c0,7.73092 -5.73774,13.99807 -12.8156,13.99807c-7.07786,0 -12.8156,-6.26715 -12.8156,-13.99807c0,-7.73092 5.73774,-13.99806 12.8156,-13.99806c7.07786,0 12.8156,6.26714 12.8156,13.99806z" fill="url(#color-11)" stroke="none" stroke-width="0" stroke-linecap="butt"/><path d="M238.03343,145.97599c-0.5265,0.91349 -1.43258,0.38383 -1.43258,0.38383c-0.91393,-0.55722 -2.45095,-1.17574 -2.30203,-2.6961c0.1217,-1.24248 2.13973,-2.33997 3.2068,-2.10706c1.93572,0.42253 3.60144,3.95074 0.5278,4.41932z" fill="#191412" stroke="none" stroke-width="0.5" stroke-linecap="butt"/><path d="M242.45054,150.49059c0.14423,-0.46863 0.47533,-0.57039 0.71965,-0.57602c0.0776,-0.00492 0.15695,0.00165 0.23587,0.02089c-0.28158,-1.08168 -0.10408,-2.4792 -0.44462,-3.52597c0,0 -0.2501,-0.78449 0.51677,-1.04033c0.76687,-0.25584 1.01697,0.52865 1.01697,0.52865c0.4101,1.30859 0.71193,2.9192 0.68474,4.31641c-0.01019,0.5236 0.25251,1.23107 -0.14241,1.56432c-0.4098,0.34581 -1.06036,-0.06797 -1.59055,-0.10196l-0.46926,-0.15113c-0.09725,-0.03132 -0.18459,-0.07973 -0.25988,-0.14099c-0.1971,-0.14779 -0.41151,-0.42524 -0.26729,-0.89386z" fill="#191412" stroke="none" stroke-width="0.5" stroke-linecap="butt"/><path d="M249.92237,146.45889c-0.42472,0.9868 -1.15568,0.41464 -1.15568,0.41464c-0.73728,-0.60194 -1.97722,-1.27009 -1.85707,-2.91248c0.09818,-1.3422 1.72614,-2.52778 2.58696,-2.27617c1.56156,0.45643 2.90532,4.26783 0.42578,4.77401z" fill="#191412" stroke="none" stroke-width="0.5" stroke-linecap="butt"/><g stroke-linecap="butt"><path d="M232.30137,135.02434c-0.17005,0.01306 -0.60745,0.05338 -1.08101,0.12809c-0.52481,0.19981 -1.13701,0.40123 -1.60677,0.62441c-0.30204,0.88846 0.76073,1.81827 -0.69014,2.46543c-2.47444,1.10372 -1.68672,-2.06362 -0.85344,-3.04958c1.28665,-1.08794 3.16128,-1.19356 4.77768,-1.47968c2.22645,-0.39412 4.39964,-1.01947 6.59672,-1.12157c0.08373,-0.08501 0.19742,-0.14125 0.32576,-0.15097l0.58683,-0.04437c0.29649,-0.07344 0.61861,-0.14963 0.95687,-0.22118c0.88034,-0.26117 1.93684,-0.38813 2.92062,-0.46624c0.48312,-0.0876 0.93522,-0.12531 1.30808,-0.08635c0.27415,-0.01627 0.52912,-0.03163 0.75689,-0.04886l0.61862,-0.04678c0.28176,-0.02131 0.52744,0.18983 0.54874,0.47159c0.01896,0.25077 -0.1462,0.47296 -0.38141,0.53382l-0.33106,0.09265c0.14321,0.12391 0.27273,0.26511 0.3863,0.42536l0.23585,-0.11566l0.28911,0.58949c0.03091,0.05949 0.05055,0.12607 0.05593,0.19712c0.02131,0.28176 -0.18983,0.52744 -0.47158,0.54873c-0.08568,0.00647 -0.16803,-0.00853 -0.24176,-0.0405l-0.50408,-0.20613l0.00607,-0.01483l-0.04781,-0.00447c-0.3588,-0.22898 -0.72469,-0.40307 -1.09089,-0.5227c-0.55912,-0.02819 -1.1467,-0.0979 -1.74581,-0.1556c-1.01707,0.15973 -1.94486,0.77427 -2.61733,1.83311c0,0 -0.27523,0.43128 -0.7065,0.15604c-0.43127,-0.27523 -0.15604,-0.70651 -0.15604,-0.70651c0.05884,-0.0918 0.11951,-0.18105 0.1819,-0.26772l-0.28521,0.08639c-0.03819,0.01244 -0.07848,0.02055 -0.12032,0.02371c-0.28176,0.02131 -0.52744,-0.18983 -0.54873,-0.47159c-0.01079,-0.1426 0.03797,-0.27595 0.12529,-0.37565c-0.24508,-0.00307 -0.47675,0.00691 -0.67434,0.05261c-1.38003,0.31921 -3.49383,0.40123 -5.49102,0.67808c0.0077,0.2414 -0.15453,0.45215 -0.38263,0.51117l-0.60014,0.16794l-0.00543,-0.01939l-0.0075,0.00183z" fill="url(#color-12)" stroke="none" stroke-width="0.5"/><path d="M247.44806,131.51318c2.71281,-0.24476 2.68884,-0.20441 2.87705,1.62874c0.18821,1.83315 -0.83074,3.35013 -2.2759,3.38828c-1.44517,0.03816 -2.76929,-1.41698 -2.9575,-3.25013c-0.18821,-1.83315 -0.18749,-1.53738 2.35635,-1.76689z" data-paper-data="{&quot;index&quot;:null}" fill="url(#color-13)" stroke="#000000" stroke-width="0"/><path d="M240.78976,134.0975c0.32856,1.99641 -1.2315,3.91541 -3.48449,4.28618c-2.25298,0.37077 -4.34573,-0.94706 -4.67428,-2.94348c-0.32856,-1.99641 -0.37937,-2.03235 3.90844,-2.54486c4.02075,-0.4806 3.92178,-0.79425 4.25034,1.20216z" fill="url(#color-14)" stroke="#000000" stroke-width="0"/></g><path d="M283.54199,161.09003c-0.0521,0.2164 3.69104,0.48867 3.53622,1.41639c-0.07616,0.4563 -2.42318,-0.27811 -3.33037,0.24601c-0.4802,0.27743 4.29197,0.17452 3.65931,1.31754c-0.2172,0.39241 -3.58068,-0.35186 -4.45076,-0.0202c-0.46577,0.17756 5.18713,0.60783 4.80935,1.38022c-0.22426,0.45852 -3.26421,-0.40436 -4.70081,-0.25803c-0.69988,0.07128 3.77495,0.88512 3.37865,1.42506c-0.24259,0.33051 -4.6496,-0.23416 -4.7045,-0.20126c-0.30856,0.18494 2.26184,1.29593 1.58213,1.49237c-1.25269,0.36204 -2.5383,-0.80603 -3.76457,-1.75329c-0.71647,-0.55345 -1.88213,-0.74192 -1.88213,-0.74192c0,0 -2.88318,-0.92723 -6.39617,-0.81762c-0.84479,0.02636 -3.60303,-0.07643 -4.47057,-0.04094c-2.05326,0.08396 -4.08651,0.2394 -5.34656,0.26041c-2.71014,0.04525 -6.14401,0.02412 -6.14401,0.02412l-0.20696,-5.91771c0,0 4.9046,-0.0488 7.78601,-0.09693c1.17266,-0.01958 2.05797,0.56538 3.87509,0.60522c0.81455,0.01785 4.2894,0.58324 6.42588,0.82993c3.55717,0.41073 5.74788,0.2829 5.74788,0.2829c0,0 4.70724,0.10931 4.59686,0.56775z" data-paper-data="{&quot;index&quot;:null}" fill="#ffb77d" stroke="#000000" stroke-width="0" stroke-linecap="butt"/><path d="M248.8186,164.01549c-0.58138,-5.34044 3.00248,-5.63196 4.9766,-5.61505c1.97412,0.01693 1.59241,-1.63401 2.10099,3.26177c0.42986,4.13801 0.07367,3.54611 -1.90045,3.52919c-1.97412,-0.01693 -4.87437,1.60531 -5.17713,-1.17593z" data-paper-data="{&quot;index&quot;:null}" fill="#ffffff" stroke="#000000" stroke-width="0" stroke-linecap="butt"/><path d="M193.56462,168.22974c-0.18668,-0.43301 4.43354,-1.34061 4.43354,-1.34061c0,0 2.18057,-0.24627 5.61621,-1.25548c2.06349,-0.60613 5.39173,-1.75376 6.19141,-1.90976c1.78393,-0.34803 2.55697,-1.07492 3.7159,-1.25489c2.84769,-0.44219 7.68926,-1.22751 7.68926,-1.22751l0.80159,5.86683c0,0 -3.38035,0.60432 -6.05876,1.02024c-1.2453,0.1934 -3.2754,0.38572 -5.31306,0.65187c-0.86095,0.11245 -3.56161,0.68243 -4.39859,0.8c-3.48053,0.48892 -6.16423,1.89258 -6.16423,1.89258c0,0 -1.11668,0.3838 -1.72868,1.05094c-1.04747,1.14185 -2.11592,2.51139 -3.41191,2.36747c-0.7032,-0.07808 1.64103,-1.60967 1.30553,-1.7395c-0.0597,-0.0231 -4.30666,1.28221 -4.60188,0.99773c-0.48228,-0.46475 3.78919,-2.02713 3.08738,-1.97845c-1.44058,0.09991 -4.2897,1.46681 -4.58861,1.05306c-0.50353,-0.69696 4.99405,-2.08155 4.50488,-2.17738c-0.91378,-0.17899 -4.10188,1.12599 -4.3826,0.7762c-0.81768,-1.01889 3.90258,-1.72837 3.38222,-1.92018c-0.98305,-0.36235 -3.17116,0.76019 -3.32374,0.32347c-0.3102,-0.88792 3.33223,-1.79227 3.24411,-1.99667z" data-paper-data="{&quot;index&quot;:null}" fill="#ffb77d" stroke="#000000" stroke-width="0" stroke-linecap="butt"/><path d="M228.28009,165.21233c0.17424,2.79224 -2.9595,1.68641 -4.90203,2.03853c-1.94254,0.35213 -2.19298,0.99594 -2.47251,-3.15493c-0.33072,-4.91099 -0.42634,-3.21921 1.51619,-3.57134c1.94253,-0.35212 5.52381,-0.67381 5.85835,4.68775z" data-paper-data="{&quot;index&quot;:null}" fill="#ffffff" stroke="#000000" stroke-width="0" stroke-linecap="butt"/><path d="M213.87928,204.78384c0,0 4.51981,-6.93576 5.97062,-10.98881c1.49692,-4.18186 2.87688,-13.728 2.87688,-13.728l-0.28088,17.27368z" fill="url(#color-15)" stroke="#000000" stroke-width="0" stroke-linecap="butt"/><path d="M253.98839,197.42543l-0.28088,-17.27367c0,0 1.37996,9.54614 2.87688,13.728c1.45081,4.05304 5.97062,10.98881 5.97062,10.98881z" data-paper-data="{&quot;index&quot;:null}" fill="url(#color-16)" stroke="#000000" stroke-width="0" stroke-linecap="butt"/></g></g></svg>