<svg version="1.1" xmlns="http://www.w3.org/2000/svg" xmlns:xlink="http://www.w3.org/1999/xlink" width="59" height="59.70662" viewBox="0,0,59,59.70662"><defs><linearGradient x1="270" y1="151.64669" x2="270" y2="208.35331" gradientUnits="userSpaceOnUse" id="color-1"><stop offset="0" stop-color="#191919"/><stop offset="1" stop-color="#050505"/></linearGradient><linearGradient x1="270" y1="151.64669" x2="270" y2="208.35331" gradientUnits="userSpaceOnUse" id="color-2"><stop offset="0" stop-color="#cccccc"/><stop offset="1" stop-color="#898989"/></linearGradient><radialGradient cx="270" cy="180" r="26.8571" gradientUnits="userSpaceOnUse" id="color-3"><stop offset="0" stop-color="#ffe6ca" stop-opacity="0.35294"/><stop offset="1" stop-color="#ffe6ca" stop-opacity="0"/></radialGradient><linearGradient x1="270" y1="153.2921" x2="270" y2="206.70789" gradientUnits="userSpaceOnUse" id="color-4"><stop offset="0" stop-color="#cccccc"/><stop offset="1" stop-color="#898989"/></linearGradient><linearGradient x1="274.67875" y1="172.83231" x2="277.53284" y2="172.37645" gradientUnits="userSpaceOnUse" id="color-5"><stop offset="0" stop-color="#7d8c96"/><stop offset="1" stop-color="#526369"/></linearGradient><linearGradient x1="275.85963" y1="171.06317" x2="276.35195" y2="174.14558" gradientUnits="userSpaceOnUse" id="color-6"><stop offset="0" stop-color="#2c2c2c"/><stop offset="1" stop-color="#232323"/></linearGradient><linearGradient x1="277.90736" y1="195.19461" x2="278.37268" y2="198.10795" gradientUnits="userSpaceOnUse" id="color-7"><stop offset="0" stop-color="#464646"/><stop offset="1" stop-color="#353535"/></linearGradient><linearGradient x1="259.94869" y1="181.00265" x2="261.76098" y2="192.34933" gradientUnits="userSpaceOnUse" id="color-8"><stop offset="0" stop-color="#191919"/><stop offset="1" stop-color="#000000"/></linearGradient><linearGradient x1="290.55018" y1="176.11499" x2="292.36247" y2="187.46167" gradientUnits="userSpaceOnUse" id="color-9"><stop offset="0" stop-color="#191919"/><stop offset="1" stop-color="#000000"/></linearGradient><linearGradient x1="274.61581" y1="174.59166" x2="274.90346" y2="176.39263" gradientUnits="userSpaceOnUse" id="color-10"><stop offset="0" stop-color="#2c2c2c"/><stop offset="1" stop-color="#1f1f1f"/></linearGradient><linearGradient x1="274.61581" y1="174.59166" x2="274.90346" y2="176.39263" gradientUnits="userSpaceOnUse" id="color-11"><stop offset="0" stop-color="#464646"/><stop offset="1" stop-color="#353535"/></linearGradient><linearGradient x1="277.73767" y1="194.13751" x2="278.20687" y2="197.07517" gradientUnits="userSpaceOnUse" id="color-12"><stop offset="0" stop-color="#2c2c2c"/><stop offset="1" stop-color="#1f1f1f"/></linearGradient><linearGradient x1="277.73767" y1="194.13751" x2="278.20687" y2="197.07517" gradientUnits="userSpaceOnUse" id="color-13"><stop offset="0" stop-color="#464646"/><stop offset="1" stop-color="#353535"/></linearGradient><linearGradient x1="262.12663" y1="184.22079" x2="263.66881" y2="193.87627" gradientUnits="userSpaceOnUse" id="color-14"><stop offset="0" stop-color="#494949"/><stop offset="1" stop-color="#272727"/></linearGradient><linearGradient x1="262.12663" y1="184.22079" x2="263.66881" y2="193.87627" gradientUnits="userSpaceOnUse" id="color-15"><stop offset="0" stop-color="#464646"/><stop offset="1" stop-color="#353535"/></linearGradient><linearGradient x1="289.48302" y1="179.85144" x2="291.02519" y2="189.50692" gradientUnits="userSpaceOnUse" id="color-16"><stop offset="0" stop-color="#494949"/><stop offset="1" stop-color="#272727"/></linearGradient><linearGradient x1="289.48302" y1="179.85144" x2="291.02519" y2="189.50692" gradientUnits="userSpaceOnUse" id="color-17"><stop offset="0" stop-color="#464646"/><stop offset="1" stop-color="#353535"/></linearGradient><linearGradient x1="275.34983" y1="178.18932" x2="275.59615" y2="179.73152" gradientUnits="userSpaceOnUse" id="color-18"><stop offset="0" stop-color="#6b6b6b"/><stop offset="1" stop-color="#494949"/></linearGradient><linearGradient x1="276.84366" y1="188.54015" x2="277.72593" y2="194.06399" gradientUnits="userSpaceOnUse" id="color-19"><stop offset="0" stop-color="#535353"/><stop offset="1" stop-color="#848484"/></linearGradient><linearGradient x1="276.84366" y1="188.54015" x2="277.72593" y2="194.06399" gradientUnits="userSpaceOnUse" id="color-20"><stop offset="0" stop-color="#464646"/><stop offset="1" stop-color="#353535"/></linearGradient><linearGradient x1="275.43276" y1="179.20752" x2="276.96421" y2="188.79594" gradientUnits="userSpaceOnUse" id="color-21"><stop offset="0" stop-color="#a0a0a0"/><stop offset="1" stop-color="#717171"/></linearGradient><linearGradient x1="275.50497" y1="180.15865" x2="275.82625" y2="182.17021" gradientUnits="userSpaceOnUse" id="color-22"><stop offset="0" stop-color="#ababab"/><stop offset="1" stop-color="#a3a3a3"/></linearGradient><linearGradient x1="275.50497" y1="180.15865" x2="275.82625" y2="182.17021" gradientUnits="userSpaceOnUse" id="color-23"><stop offset="0" stop-color="#464646"/><stop offset="1" stop-color="#353535"/></linearGradient><linearGradient x1="283.95865" y1="181.74409" x2="284.28577" y2="183.79217" gradientUnits="userSpaceOnUse" id="color-24"><stop offset="0" stop-color="#5f5f5f"/><stop offset="1" stop-color="#404040"/></linearGradient><linearGradient x1="283.95865" y1="181.74409" x2="284.28577" y2="183.79217" gradientUnits="userSpaceOnUse" id="color-25"><stop offset="0" stop-color="#464646"/><stop offset="1" stop-color="#353535"/></linearGradient><linearGradient x1="287.15419" y1="181.2337" x2="287.48131" y2="183.28178" gradientUnits="userSpaceOnUse" id="color-26"><stop offset="0" stop-color="#5f5f5f"/><stop offset="1" stop-color="#404040"/></linearGradient><linearGradient x1="287.15419" y1="181.2337" x2="287.48131" y2="183.28178" gradientUnits="userSpaceOnUse" id="color-27"><stop offset="0" stop-color="#464646"/><stop offset="1" stop-color="#353535"/></linearGradient><linearGradient x1="277.55234" y1="182.76731" x2="277.87946" y2="184.81538" gradientUnits="userSpaceOnUse" id="color-28"><stop offset="0" stop-color="#5f5f5f"/><stop offset="1" stop-color="#404040"/></linearGradient><linearGradient x1="277.55234" y1="182.76731" x2="277.87946" y2="184.81538" gradientUnits="userSpaceOnUse" id="color-29"><stop offset="0" stop-color="#464646"/><stop offset="1" stop-color="#353535"/></linearGradient><linearGradient x1="280.74788" y1="182.25692" x2="281.075" y2="184.30499" gradientUnits="userSpaceOnUse" id="color-30"><stop offset="0" stop-color="#5f5f5f"/><stop offset="1" stop-color="#404040"/></linearGradient><linearGradient x1="280.74788" y1="182.25692" x2="281.075" y2="184.30499" gradientUnits="userSpaceOnUse" id="color-31"><stop offset="0" stop-color="#464646"/><stop offset="1" stop-color="#353535"/></linearGradient><linearGradient x1="271.17648" y1="183.78566" x2="271.5036" y2="185.83373" gradientUnits="userSpaceOnUse" id="color-32"><stop offset="0" stop-color="#5f5f5f"/><stop offset="1" stop-color="#404040"/></linearGradient><linearGradient x1="271.17648" y1="183.78566" x2="271.5036" y2="185.83373" gradientUnits="userSpaceOnUse" id="color-33"><stop offset="0" stop-color="#464646"/><stop offset="1" stop-color="#353535"/></linearGradient><linearGradient x1="274.37202" y1="183.27527" x2="274.69914" y2="185.32334" gradientUnits="userSpaceOnUse" id="color-34"><stop offset="0" stop-color="#5f5f5f"/><stop offset="1" stop-color="#404040"/></linearGradient><linearGradient x1="274.37202" y1="183.27527" x2="274.69914" y2="185.32334" gradientUnits="userSpaceOnUse" id="color-35"><stop offset="0" stop-color="#464646"/><stop offset="1" stop-color="#353535"/></linearGradient><linearGradient x1="264.77018" y1="184.80887" x2="265.0973" y2="186.85694" gradientUnits="userSpaceOnUse" id="color-36"><stop offset="0" stop-color="#5f5f5f"/><stop offset="1" stop-color="#404040"/></linearGradient><linearGradient x1="264.77018" y1="184.80887" x2="265.0973" y2="186.85694" gradientUnits="userSpaceOnUse" id="color-37"><stop offset="0" stop-color="#464646"/><stop offset="1" stop-color="#353535"/></linearGradient><linearGradient x1="267.96572" y1="184.29848" x2="268.29284" y2="186.34655" gradientUnits="userSpaceOnUse" id="color-38"><stop offset="0" stop-color="#5f5f5f"/><stop offset="1" stop-color="#404040"/></linearGradient><linearGradient x1="267.96572" y1="184.29848" x2="268.29284" y2="186.34655" gradientUnits="userSpaceOnUse" id="color-39"><stop offset="0" stop-color="#464646"/><stop offset="1" stop-color="#353535"/></linearGradient><linearGradient x1="274.79348" y1="175.70402" x2="275.23341" y2="178.45845" gradientUnits="userSpaceOnUse" id="color-40"><stop offset="0" stop-color="#5a74a3"/><stop offset="1" stop-color="#314785"/></linearGradient><linearGradient x1="274.79348" y1="175.70402" x2="275.23341" y2="178.45845" gradientUnits="userSpaceOnUse" id="color-41"><stop offset="0" stop-color="#464646"/><stop offset="1" stop-color="#353535"/></linearGradient><linearGradient x1="277.06084" y1="189.89992" x2="277.88995" y2="195.09096" gradientUnits="userSpaceOnUse" id="color-42"><stop offset="0" stop-color="#5a74a3"/><stop offset="1" stop-color="#314785"/></linearGradient><linearGradient x1="277.06084" y1="189.89992" x2="277.88995" y2="195.09096" gradientUnits="userSpaceOnUse" id="color-43"><stop offset="0" stop-color="#464646"/><stop offset="1" stop-color="#353535"/></linearGradient><radialGradient cx="255.03439" cy="184.95362" r="10.36866" gradientUnits="userSpaceOnUse" id="color-44"><stop offset="0" stop-color="#ffe2a3"/><stop offset="1" stop-color="#b87344"/></radialGradient><linearGradient x1="255.40863" y1="179.92934" x2="258.44903" y2="198.9652" gradientUnits="userSpaceOnUse" id="color-45"><stop offset="0" stop-color="#464646"/><stop offset="1" stop-color="#353535"/></linearGradient><radialGradient cx="248.60238" cy="185.90429" r="10.36866" gradientUnits="userSpaceOnUse" id="color-46"><stop offset="0" stop-color="#ffe2a3"/><stop offset="1" stop-color="#b87344"/></radialGradient><linearGradient x1="248.97665" y1="180.88001" x2="252.01705" y2="199.91587" gradientUnits="userSpaceOnUse" id="color-47"><stop offset="0" stop-color="#464646"/><stop offset="1" stop-color="#353535"/></linearGradient><linearGradient x1="246.15581" y1="185.15076" x2="259.57623" y2="183.00726" gradientUnits="userSpaceOnUse" id="color-48"><stop offset="0" stop-color="#4f4f4f"/><stop offset="1" stop-color="#353535"/></linearGradient><linearGradient x1="252.71175" y1="183.11315" x2="253.02029" y2="185.04487" gradientUnits="userSpaceOnUse" id="color-49"><stop offset="0" stop-color="#2c2c2c"/><stop offset="1" stop-color="#232323"/></linearGradient><linearGradient x1="247.86088" y1="195.8261" x2="261.28129" y2="193.6826" gradientUnits="userSpaceOnUse" id="color-50"><stop offset="0" stop-color="#4f4f4f"/><stop offset="1" stop-color="#353535"/></linearGradient><linearGradient x1="254.41682" y1="193.78849" x2="254.72535" y2="195.72021" gradientUnits="userSpaceOnUse" id="color-51"><stop offset="0" stop-color="#2c2c2c"/><stop offset="1" stop-color="#232323"/></linearGradient><linearGradient x1="272.38166" y1="171.79094" x2="281.22694" y2="170.37817" gradientUnits="userSpaceOnUse" id="color-52"><stop offset="0" stop-color="#4f4f4f"/><stop offset="1" stop-color="#353535"/></linearGradient><linearGradient x1="276.29883" y1="167.91988" x2="277.30975" y2="174.24923" gradientUnits="userSpaceOnUse" id="color-53"><stop offset="0" stop-color="#2c2c2c"/><stop offset="1" stop-color="#232323"/></linearGradient><linearGradient x1="267.629" y1="171.7618" x2="272.22826" y2="171.0272" gradientUnits="userSpaceOnUse" id="color-54"><stop offset="0" stop-color="#ffca6e"/><stop offset="1" stop-color="#a66f18"/></linearGradient><linearGradient x1="269.85282" y1="170.91991" x2="270.00443" y2="171.86908" gradientUnits="userSpaceOnUse" id="color-55"><stop offset="0" stop-color="#2c2c2c"/><stop offset="1" stop-color="#232323"/></linearGradient><linearGradient x1="267.42227" y1="170.46748" x2="272.02153" y2="169.73288" gradientUnits="userSpaceOnUse" id="color-56"><stop offset="0" stop-color="#ffca6e"/><stop offset="1" stop-color="#a66f18"/></linearGradient><linearGradient x1="269.6461" y1="169.62559" x2="269.7977" y2="170.57476" gradientUnits="userSpaceOnUse" id="color-57"><stop offset="0" stop-color="#2c2c2c"/><stop offset="1" stop-color="#232323"/></linearGradient><linearGradient x1="266.95204" y1="167.93061" x2="271.5513" y2="167.19601" gradientUnits="userSpaceOnUse" id="color-58"><stop offset="0" stop-color="#ffca6e"/><stop offset="1" stop-color="#a66f18"/></linearGradient><linearGradient x1="269.32745" y1="168.03789" x2="269.17585" y2="167.08873" gradientUnits="userSpaceOnUse" id="color-59"><stop offset="0" stop-color="#2c2c2c"/><stop offset="1" stop-color="#232323"/></linearGradient><linearGradient x1="267.15876" y1="169.22493" x2="271.75802" y2="168.49033" gradientUnits="userSpaceOnUse" id="color-60"><stop offset="0" stop-color="#ffca6e"/><stop offset="1" stop-color="#a66f18"/></linearGradient><linearGradient x1="269.53419" y1="169.33221" x2="269.38259" y2="168.38304" gradientUnits="userSpaceOnUse" id="color-61"><stop offset="0" stop-color="#2c2c2c"/><stop offset="1" stop-color="#232323"/></linearGradient><linearGradient x1="275.33698" y1="170.35638" x2="276.01164" y2="174.58043" gradientUnits="userSpaceOnUse" id="color-62"><stop offset="0" stop-color="#171717"/><stop offset="1" stop-color="#111111"/></linearGradient><linearGradient x1="275.91613" y1="169.03458" x2="276.8096" y2="174.6286" gradientUnits="userSpaceOnUse" id="color-63"><stop offset="0" stop-color="#171717"/><stop offset="1" stop-color="#111111"/></linearGradient><linearGradient x1="276.45762" y1="167.66026" x2="277.52432" y2="174.33883" gradientUnits="userSpaceOnUse" id="color-64"><stop offset="0" stop-color="#171717"/><stop offset="1" stop-color="#111111"/></linearGradient><linearGradient x1="277.06529" y1="166.33391" x2="278.33257" y2="174.26828" gradientUnits="userSpaceOnUse" id="color-65"><stop offset="0" stop-color="#171717"/><stop offset="1" stop-color="#111111"/></linearGradient><linearGradient x1="273.50784" y1="174.82424" x2="284.51035" y2="173.06692" gradientUnits="userSpaceOnUse" id="color-66"><stop offset="0" stop-color="#979797"/><stop offset="1" stop-color="#696969"/></linearGradient><linearGradient x1="278.91679" y1="173.36764" x2="279.10141" y2="174.52354" gradientUnits="userSpaceOnUse" id="color-67"><stop offset="0" stop-color="#2c2c2c"/><stop offset="1" stop-color="#232323"/></linearGradient><linearGradient x1="267.35149" y1="169.81471" x2="268.20773" y2="169.67795" gradientUnits="userSpaceOnUse" id="color-68"><stop offset="0" stop-color="#045c96"/><stop offset="1" stop-color="#004e69"/></linearGradient><linearGradient x1="267.56421" y1="168.39778" x2="267.995" y2="171.0949" gradientUnits="userSpaceOnUse" id="color-69"><stop offset="0" stop-color="#2c2c2c"/><stop offset="1" stop-color="#232323"/></linearGradient></defs><g transform="translate(-240.5,-150.14669)"><g data-paper-data="{&quot;isPaintingLayer&quot;:true}" fill-rule="nonzero" stroke-linejoin="miter" stroke-miterlimit="10" stroke-dasharray="" stroke-dashoffset="0" style="mix-blend-mode: normal"><path d="M242,208.35331v-56.70662h56v56.70662z" fill="url(#color-1)" stroke="url(#color-2)" stroke-width="3" stroke-linecap="butt"/><path d="M296.8571,180c0,14.75036 -12.02433,26.70789 -26.8571,26.70789c-14.83277,0 -26.8571,-11.95753 -26.8571,-26.70789c0,-14.75036 12.02433,-26.70789 26.8571,-26.70789c14.83277,0 26.8571,11.95753 26.8571,26.70789z" fill="url(#color-3)" stroke="url(#color-4)" stroke-width="0" stroke-linecap="butt"/><path d="M274.92491,174.37351l-0.49232,-3.08241l2.85409,-0.45585l0.49232,3.08241z" fill="url(#color-5)" stroke="url(#color-6)" stroke-width="0.5" stroke-linecap="butt"/><path d="M293.55909,192.69473l0.46532,2.91334l-31.36485,4.96629l-0.45857,-2.87112" fill="none" stroke="url(#color-7)" stroke-width="0.25" stroke-linecap="round"/><path d="M259.9827,180.99722l1.74429,11.35754" fill="none" stroke="url(#color-8)" stroke-width="0.5" stroke-linecap="round"/><path d="M290.58419,176.10956l1.74429,11.35754" fill="none" stroke="url(#color-9)" stroke-width="0.5" stroke-linecap="round"/><path d="M259.17144,178.90534l-0.28765,-1.80097l31.46404,-5.02542l0.28765,1.80097z" fill="url(#color-10)" stroke="url(#color-11)" stroke-width="0.25" stroke-linecap="butt"/><path d="M263.64018,199.40176l-0.4692,-2.93766l29.13338,-4.65317l0.4692,2.93766z" fill="url(#color-12)" stroke="url(#color-13)" stroke-width="0.5" stroke-linecap="butt"/><path d="M263.04706,193.97558l-1.54217,-9.65548l1.24347,-0.19861l1.54217,9.65548z" fill="url(#color-14)" stroke="url(#color-15)" stroke-width="0.5" stroke-linecap="butt"/><path d="M290.40346,189.60622l-1.54217,-9.65548l1.24347,-0.19861l1.54217,9.65548z" fill="url(#color-16)" stroke="url(#color-17)" stroke-width="0.5" stroke-linecap="butt"/><path d="M262.38425,181.84172l-0.24632,-1.5422l26.42379,-4.2204l0.24632,1.5422z" fill="url(#color-18)" stroke="none" stroke-width="0.5" stroke-linecap="butt"/><path d="M264.66947,196.14937l-0.88227,-5.52384l26.11292,-4.17075l0.88227,5.52384z" fill="url(#color-19)" stroke="url(#color-20)" stroke-width="0.5" stroke-linecap="butt"/><path d="M263.28601,190.98062l-1.53146,-9.58844l27.35639,-4.36935l1.53146,9.58844z" fill="url(#color-21)" stroke="none" stroke-width="0.5" stroke-linecap="butt"/><path d="M262.7698,184.25558l-0.32129,-2.01156l26.11292,-4.17075l0.32129,2.01156z" fill="url(#color-22)" stroke="url(#color-23)" stroke-width="0.5" stroke-linecap="butt"/><path d="M283.05319,183.98903l-0.32712,-2.04807l2.46513,-0.39373l0.32712,2.04807z" fill="url(#color-24)" stroke="url(#color-25)" stroke-width="0.3" stroke-linecap="butt"/><path d="M286.24875,183.47864l-0.32712,-2.04807l2.46513,-0.39373l0.32712,2.04807z" fill="url(#color-26)" stroke="url(#color-27)" stroke-width="0.3" stroke-linecap="butt"/><path d="M276.6469,185.01224l-0.32712,-2.04807l2.46513,-0.39373l0.32712,2.04807z" fill="url(#color-28)" stroke="url(#color-29)" stroke-width="0.3" stroke-linecap="butt"/><path d="M279.84244,184.50185l-0.32712,-2.04807l2.46513,-0.39373l0.32712,2.04807z" fill="url(#color-30)" stroke="url(#color-31)" stroke-width="0.3" stroke-linecap="butt"/><path d="M270.27102,186.0306l-0.32712,-2.04807l2.46513,-0.39373l0.32712,2.04807z" fill="url(#color-32)" stroke="url(#color-33)" stroke-width="0.3" stroke-linecap="butt"/><path d="M273.46657,185.5202l-0.32712,-2.04807l2.46513,-0.39373l0.32712,2.04807z" fill="url(#color-34)" stroke="url(#color-35)" stroke-width="0.3" stroke-linecap="butt"/><path d="M263.86472,187.05381l-0.32712,-2.04807l2.46513,-0.39373l0.32712,2.04807z" fill="url(#color-36)" stroke="url(#color-37)" stroke-width="0.3" stroke-linecap="butt"/><path d="M267.06026,186.54342l-0.32712,-2.04807l2.46513,-0.39373l0.32712,2.04807z" fill="url(#color-38)" stroke="url(#color-39)" stroke-width="0.3" stroke-linecap="butt"/><path d="M259.26303,181.00923l-0.43994,-2.75443l31.94077,-5.10157l0.43994,2.75443z" fill="url(#color-40)" stroke="url(#color-41)" stroke-width="0.5" stroke-linecap="butt"/><path d="M261.91957,197.64174l-0.82911,-5.19103l31.94077,-5.10157l0.82911,5.19103z" fill="url(#color-42)" stroke="url(#color-43)" stroke-width="0.5" stroke-linecap="butt"/><path d="M255.44798,199.44453l-3.0404,-19.03586c0,0 0.11186,-2.42579 2.72238,-2.79087c2.58337,-0.36126 3.27974,1.83221 3.27974,1.83221l3.0404,19.03586c0,0 -0.07455,2.0532 -2.67341,2.5306c-2.65013,0.48681 -3.32867,-1.57195 -3.32867,-1.57195z" fill="url(#color-44)" stroke="url(#color-45)" stroke-width="0.5" stroke-linecap="butt"/><path d="M249.01599,200.3952l-3.0404,-19.03586c0,0 0.11186,-2.4258 2.72238,-2.79087c2.58337,-0.36126 3.27974,1.83221 3.27974,1.83221l3.0404,19.03586c0,0 -0.07455,2.0532 -2.67343,2.5306c-2.65011,0.48682 -3.32869,-1.57195 -3.32869,-1.57195z" fill="url(#color-46)" stroke="url(#color-47)" stroke-width="0.5" stroke-linecap="butt"/><path d="M246.31008,186.11663l-0.30853,-1.93173l13.42041,-2.1435l0.30853,1.93173z" fill="url(#color-48)" stroke="url(#color-49)" stroke-width="0.5" stroke-linecap="butt"/><path d="M248.01514,196.79197l-0.30853,-1.93173l13.42043,-2.14351l0.30853,1.93173z" fill="url(#color-50)" stroke="url(#color-51)" stroke-width="0.5" stroke-linecap="butt"/><path d="M275.42715,174.54992l1.35631,-2.67329l-4.42707,-0.24394l-0.81448,-5.10291l12.44565,0.24319l-0.32343,6.46134z" fill="url(#color-52)" stroke="url(#color-53)" stroke-width="0.25" stroke-linecap="butt"/><path d="M267.44299,170.59722l4.70946,-0.04461l0.1516,0.94917z" fill="url(#color-54)" stroke="url(#color-55)" stroke-width="0.25" stroke-linecap="butt"/><path d="M267.4527,170.32988l-0.10623,-0.33699l4.59926,-0.73459l0.1516,0.94917z" fill="url(#color-56)" stroke="url(#color-57)" stroke-width="0.25" stroke-linecap="butt"/><path d="M271.4755,166.72144l0.1516,0.94917l-4.48906,1.42458z" data-paper-data="{&quot;index&quot;:null}" fill="url(#color-58)" stroke="url(#color-59)" stroke-width="0.25" stroke-linecap="butt"/><path d="M271.68222,168.01574l0.1516,0.94917l-4.59926,0.73459l-0.00403,-0.35331z" data-paper-data="{&quot;index&quot;:null}" fill="url(#color-60)" stroke="url(#color-61)" stroke-width="0.25" stroke-linecap="butt"/><path d="M272.19747,170.85782l6.06176,0.20258l-1.50554,3.40151" fill="none" stroke="url(#color-62)" stroke-width="0.5" stroke-linecap="round"/><path d="M272.06311,169.64998l7.94308,0.25332l-1.50117,4.16181" fill="none" stroke="url(#color-63)" stroke-width="0.5" stroke-linecap="round"/><path d="M271.80544,168.4033l9.58696,0.28345l-0.70005,5.14607" fill="none" stroke="url(#color-64)" stroke-width="0.5" stroke-linecap="round"/><path d="M271.67107,167.19547l11.12578,0.38889l-0.38295,6.03204" fill="none" stroke="url(#color-65)" stroke-width="0.5" stroke-linecap="round"/><path d="M273.60015,175.4022l-0.18462,-1.1559l11.00251,-1.75732l0.18462,1.1559z" fill="url(#color-66)" stroke="url(#color-67)" stroke-width="0.5" stroke-linecap="butt"/><path d="M267.56688,171.16327l-0.43078,-2.69712l0.85622,-0.13676l0.43078,2.69712z" fill="url(#color-68)" stroke="url(#color-69)" stroke-width="0.25" stroke-linecap="butt"/><path d="M245.27327,171.92113v-8.69862h25.42737v8.69862z" fill-opacity="0.53453" fill="#000000" stroke="#a60000" stroke-width="0" stroke-linecap="butt"/><text transform="translate(245.70712,170.19731) scale(0.21839,0.21839)" font-size="40" xml:space="preserve" fill="#ffffff" fill-rule="nonzero" stroke="none" stroke-width="1" stroke-linecap="butt" stroke-linejoin="miter" stroke-miterlimit="10" stroke-dasharray="" stroke-dashoffset="0" font-family="Serif" font-weight="normal" text-anchor="start" style="mix-blend-mode: normal"><tspan x="0" dy="0">Burner</tspan></text><path d="M245.27327,163.339v-8.69862h35.99v8.69862z" fill-opacity="0.53453" fill="#000000" stroke="#a60000" stroke-width="0" stroke-linecap="butt"/><text transform="translate(245.70712,161.61518) scale(0.21839,0.21839)" font-size="40" xml:space="preserve" fill="#ffffff" fill-rule="nonzero" stroke="none" stroke-width="1" stroke-linecap="butt" stroke-linejoin="miter" stroke-miterlimit="10" stroke-dasharray="" stroke-dashoffset="0" font-family="Serif" font-weight="normal" text-anchor="start" style="mix-blend-mode: normal"><tspan x="0" dy="0">Hydrogen</tspan></text></g></g></svg>