<svg version="1.1" xmlns="http://www.w3.org/2000/svg" xmlns:xlink="http://www.w3.org/1999/xlink" width="37.75228" height="104.75866" viewBox="0,0,37.75228,104.75866"><defs><radialGradient cx="235.52448" cy="177.50476" r="21.06357" gradientUnits="userSpaceOnUse" id="color-1"><stop offset="0" stop-color="#353535"/><stop offset="1" stop-color="#8c8c8c"/></radialGradient><linearGradient x1="239.74787" y1="156.06832" x2="239.74787" y2="162.91937" gradientUnits="userSpaceOnUse" id="color-2"><stop offset="0" stop-color="#696969"/><stop offset="1" stop-color="#a0a0a0"/></linearGradient><radialGradient cx="235.71182" cy="133.41612" r="13.11833" gradientUnits="userSpaceOnUse" id="color-3"><stop offset="0" stop-color="#dcdcdc"/><stop offset="1" stop-color="#a0a0a0"/></radialGradient><radialGradient cx="242.43512" cy="138.9174" r="8.83664" gradientUnits="userSpaceOnUse" id="color-4"><stop offset="0" stop-color="#ffc4c4"/><stop offset="1" stop-color="#ff2121"/></radialGradient></defs><g transform="translate(-221.55679,-129.64767)"><g data-paper-data="{&quot;isPaintingLayer&quot;:true}" fill-rule="nonzero" stroke-linejoin="miter" stroke-miterlimit="10" stroke-dasharray="" stroke-dashoffset="0" style="mix-blend-mode: normal"><path d="M221.55679,200.07636v-45.14319h27.93538v45.14319z" fill="url(#color-1)" stroke="#ed6b00" stroke-width="0" stroke-linecap="butt"/><g><path d="M244.11466,227.01294c0,0 -0.38059,-25.79723 -1.06458,-30.23442c-0.04386,-0.28458 -2.15745,-0.99922 -3.4623,-1.98444c-1.59323,-1.20297 -2.35533,-2.7078 -1.35062,-3.05748c1.83268,-0.63783 12.03614,1.86298 12.03614,1.86298l1.83148,33.86954z" data-paper-data="{&quot;index&quot;:null}" fill="#494949" stroke="#000000" stroke-width="0" stroke-linecap="butt"/><path d="M257.98787,234.40551c-0.5918,-0.03378 -2.64059,-0.13708 -4.6929,-0.33494c-1.24775,-0.12028 -1.86385,-0.7252 -2.78756,-0.92101c-1.16291,-0.2465 -2.94633,0.05262 -3.78327,-0.18699c-1.54219,-0.44151 -2.32644,-0.91191 -2.32644,-0.91191c0,0 -0.21023,-1.03907 -0.19474,-1.59951c0.02087,-0.75505 0.30867,-2.52352 0.30867,-2.52352c0,0 5.93141,0.21887 8.23112,0.55082c1.3608,0.19642 4.19681,0.88745 4.19681,0.88745c0,0 1.4223,0.69781 1.61121,1.13651c0.23137,0.53731 0.7583,2.03518 0.7583,2.03518c0,0 -0.49566,1.91501 -1.32121,1.86788z" data-paper-data="{&quot;index&quot;:null}" fill="#141415" stroke="#000000" stroke-width="0" stroke-linecap="butt"/><path d="M257.86419,231.81944c-0.24782,-0.01414 0.60996,1.63908 -2.68984,1.18172c-3.11607,-0.4319 -2.70424,-1.34455 -3.80227,-1.48797c-2.29601,-0.2999 -2.61736,0.44657 -3.60668,0.23685c-0.34455,-0.07304 -0.50535,-0.14358 -1.72638,-1.0705c-0.83975,-0.63747 -0.56476,-1.78632 -1.12774,-2.44756c-0.82237,-0.9659 -0.69967,-1.92882 -0.69967,-1.92882l0.09747,-3.04713c0,0 0.35977,2.23094 1.15036,3.10184c0.70735,0.7792 2.3142,0.11334 2.7971,0.14077c0.8456,0.04803 -0.50145,-3.30199 0.30595,-3.23762c0.43415,0.03461 3.73004,-0.02151 3.73004,-0.02151c0,0 -0.08123,3.58108 0.1502,3.61449c1.3608,0.19642 4.55999,0.90819 4.55999,0.90819c0,0 1.4223,0.69781 1.61122,1.13651c0.23137,0.53731 0.46088,2.98987 0.46088,2.98987c0,0 -0.38507,-0.02198 -1.21063,-0.06912z" data-paper-data="{&quot;index&quot;:null}" fill="#252527" stroke="#000000" stroke-width="0" stroke-linecap="butt"/><path d="M253.2993,227.52233l-2.72556,0.9375" fill="none" stroke="#ffffff" stroke-width="0.5" stroke-linecap="round"/><path d="M255.11525,227.62601l-2.62525,1.3076" fill="none" stroke="#ffffff" stroke-width="0.5" stroke-linecap="round"/><path d="M254.65529,229.30014l1.53569,-1.36981" fill="none" stroke="#ffffff" stroke-width="0.5" stroke-linecap="round"/><path d="M251.77722,224.39902l-2.19293,0.11772" fill="none" stroke="#969696" stroke-width="0.5" stroke-linecap="round"/><path d="M250.02016,225.39181l1.95773,-0.2526" fill="none" stroke="#969696" stroke-width="0.5" stroke-linecap="round"/></g><g><path d="M229.13678,227.73353l1.25509,-33.89579c0,0 10.15944,-2.67401 12.0027,-2.06744c1.01051,0.33253 0.27412,1.85013 -1.29842,3.08001c-1.28792,1.00728 -3.38903,1.75777 -3.42804,2.04305c-0.60841,4.44818 -0.55014,30.24815 -0.55014,30.24815z" fill="#494949" stroke="#000000" stroke-width="0" stroke-linecap="butt"/><path d="M243.4722,231.7408c0,0 -0.20368,1.96059 -0.94804,2.01581c-0.53359,0.03958 -2.37917,0.19018 -4.23973,0.24741c-1.13116,0.0348 -1.75797,-0.48909 -2.60874,-0.56922c-1.07107,-0.10087 -2.62889,0.41607 -3.40752,0.2818c-1.43475,-0.24742 -2.19514,-0.61712 -2.19514,-0.61712c0,0 -0.3181,-1.00462 -0.3744,-1.56239c-0.07584,-0.75145 -0.03975,-2.54104 -0.03975,-2.54104c0,0 5.33303,-0.51548 7.43167,-0.47028c1.24183,0.02675 3.86512,0.36187 3.86512,0.36187c0,0 1.35957,0.51645 1.58349,0.92823c0.27421,0.50434 0.93301,1.92492 0.93301,1.92492z" data-paper-data="{&quot;index&quot;:null}" fill="#141415" stroke="#000000" stroke-width="0" stroke-linecap="butt"/><path d="M243.1814,231.12599c0,0 -0.34719,0.02575 -1.09155,0.08097c-0.22346,0.01657 0.75077,1.55036 -2.25815,1.50427c-2.8414,-0.04352 -2.58723,-0.99958 -3.58737,-1.00621c-2.0913,-0.01388 -2.28532,0.76618 -3.19654,0.68036c-0.31733,-0.02989 -0.47001,-0.07999 -1.67821,-0.84853c-0.83094,-0.52855 -0.72876,-1.70198 -1.31511,-2.28829c-0.85652,-0.85645 -0.86727,-1.82665 -0.86727,-1.82665l-0.29421,-3.03428c0,0 0.60105,2.1683 1.41724,2.93444c0.73024,0.68547 2.08423,-0.17341 2.51962,-0.20584c0.7624,-0.05679 -0.86184,-3.2131 -0.13155,-3.24898c0.39267,-0.01929 3.33382,-0.48201 3.33382,-0.48201c0,0 0.37555,3.56186 0.58676,3.5664c1.24181,0.02675 4.19257,0.33759 4.19257,0.33759c0,0 1.35957,0.51645 1.58349,0.92823c0.27422,0.50434 0.78647,2.90852 0.78647,2.90852z" data-paper-data="{&quot;index&quot;:null}" fill="#252527" stroke="#000000" stroke-width="0" stroke-linecap="butt"/><path d="M235.14802,228.77519l2.32069,-1.26648" fill="none" stroke="#ffffff" stroke-width="0.5" stroke-linecap="round"/><path d="M236.92141,229.00842l2.18462,-1.62115" fill="none" stroke="#ffffff" stroke-width="0.5" stroke-linecap="round"/><path d="M238.90415,229.10454l1.20223,-1.5483" fill="none" stroke="#ffffff" stroke-width="0.5" stroke-linecap="round"/><path d="M235.71629,224.59891l-1.94686,0.38759" fill="none" stroke="#969696" stroke-width="0.5" stroke-linecap="round"/><path d="M235.98841,225.30827l-1.71956,0.49233" fill="none" stroke="#969696" stroke-width="0.5" stroke-linecap="round"/></g><g stroke="#000000" stroke-width="0" stroke-linecap="butt"><path d="M252.07704,189.00476c0,0 0.46142,-2.98542 -0.11276,-6.44721c-0.13807,-0.83247 -0.41575,-3.57729 -0.56527,-4.431c-0.35386,-2.02051 -0.77052,-4.01109 -0.95972,-5.25536c-0.40693,-2.67622 -0.85056,-6.07824 -0.85056,-6.07824c0,0 -0.71625,-6.68648 0.26383,-6.9666c5.73182,-1.63827 5.13433,5.92252 5.13433,5.92252c0,0 0.70608,4.84791 1.13874,7.69325c0.17608,1.15798 -0.24091,2.11726 -0.03242,3.92159c0.09346,0.80883 0.0436,4.32858 0.10549,6.47837c0.10304,3.57932 0.51564,5.72966 0.51564,5.72966z" data-paper-data="{&quot;index&quot;:null}" fill="#bdbdbd"/><path d="M256.8368,194.09616c-0.20544,-0.02089 0.04962,3.72288 -0.82189,3.70119c-0.42865,-0.01067 -0.07172,-2.43802 -0.67464,-3.26168c-0.31913,-0.43599 0.4187,4.27315 -0.71464,3.80902c-0.38909,-0.15935 -0.16018,-3.59423 -0.58161,-4.40845c-0.22559,-0.43587 0.1421,5.22069 -0.61705,4.95627c-0.45065,-0.15695 -0.06936,-3.28842 -0.39726,-4.6897c-0.15974,-0.68267 -0.30255,3.86215 -0.85109,3.54646c-0.33577,-0.19325 -0.41226,-4.63561 -0.44984,-4.68529c-0.21118,-0.2792 -0.88328,2.42266 -1.15504,1.77771c-0.50087,-1.18863 0.3968,-2.62685 1.10001,-3.975c0.41086,-0.78768 0.42649,-1.96824 0.42649,-1.96824c0,0 1.58079,-0.49442 2.36371,-0.39871c0.7623,0.0932 2.27361,0.96568 2.27361,0.96568c0,0 0.53449,4.67498 0.09926,4.63073z" data-paper-data="{&quot;index&quot;:null}" fill="#5c4747"/></g><g stroke-width="0" stroke-linecap="butt"><path d="M235.91979,162.91937v-6.85104h7.65615v6.85104z" fill="url(#color-2)" stroke="#000000"/><path d="M252.80944,143.64573c0,7.73092 -5.73774,13.99807 -12.8156,13.99807c-7.07786,0 -12.8156,-6.26715 -12.8156,-13.99807c0,-7.73092 5.73774,-13.99806 12.8156,-13.99806c7.07786,0 12.8156,6.26714 12.8156,13.99806z" fill="url(#color-3)" stroke="none"/><path d="M253.91261,142.47429c0,4.88691 0.03443,10.71868 -8.60517,11.34206c-9.65195,0.69642 -9.06107,-6.45514 -9.06107,-11.34206c0,-4.88691 3.95473,-8.84854 8.83313,-8.84854c4.8784,0 8.83313,3.96163 8.83313,8.84854z" data-paper-data="{&quot;index&quot;:null}" fill="url(#color-4)" stroke="#ed6b00"/></g><g stroke-width="0" stroke-linecap="butt"><path d="M229.63979,193.59141c0,0 0.16709,-5.5597 -0.35268,-10.94382c-0.35317,-3.65847 -1.40473,-6.95919 -1.56162,-9.45339c-0.29447,-4.68133 -0.2105,-13.38223 -0.2105,-13.38223c0,0 3.69178,-0.58477 5.4694,-0.21857c2.26281,0.46615 7.00656,2.78867 7.00656,2.78867c0,0 3.67689,-2.17061 5.59031,-2.58687c2.01891,-0.43921 6.22369,0.01677 6.22369,0.01677c0,0 -0.06905,9.21711 -0.22689,12.65629c-0.13965,3.04285 -0.88957,6.36811 -1.18346,10.87293c-0.3029,4.64296 -0.14784,10.42155 -0.14784,10.42155c0,0 -2.75697,-0.76932 -5.57187,-0.83754c-1.27833,-0.03098 -1.79126,1.00612 -2.99851,1.16532c-0.96496,0.12724 -2.63623,-0.61291 -3.56107,-0.64966c-0.69915,-0.02778 -2.04377,-0.5306 -2.53801,-0.53471c-0.99795,-0.0083 -1.61572,0.86529 -2.77345,1.02464c-1.34484,0.1851 -3.1641,-0.33939 -3.1641,-0.33939z" fill="#d0d0d0" stroke="#292e32"/><path d="M245.9343,170.5071l-0.06967,-5.82045l4.38934,0.36378v5.21415z" fill="#ff0000" stroke="none"/></g><g stroke="#000000" stroke-width="0" stroke-linecap="butt"><path d="M224.4367,189.66881c0,0 0.35003,-2.17839 0.20321,-5.75622c-0.08819,-2.14888 -0.42151,-5.65466 -0.36699,-6.46894c0.12161,-1.8165 -0.47331,-2.73865 -0.34244,-3.90794c0.32155,-2.87312 0.83063,-7.76576 0.83063,-7.76576c0,0 -1.2137,-7.84607 6.35571,-6.69608c1.2084,0.18359 0.47033,7.29143 0.47033,7.29143c0,0 -0.29242,3.42914 -0.59488,6.13146c-0.14063,1.25641 -0.50803,3.27583 -0.79464,5.31991c-0.12109,0.86366 -0.25675,3.62374 -0.36519,4.46528c-0.45096,3.49951 0.35551,6.43847 0.35551,6.43847z" fill="#bdbdbd"/><path d="M224.69176,194.4114c-0.54026,0.08141 -0.24392,-4.62538 -0.24392,-4.62538c0,0 1.81893,-0.99934 2.76396,-1.15756c0.9706,-0.16251 2.98494,0.19502 2.98494,0.19502c0,0 0.11333,1.1757 0.68926,1.92582c0.98572,1.28388 2.22156,2.64089 1.69019,3.86888c-0.2883,0.6663 -1.3427,-1.9699 -1.58437,-1.67344c-0.043,0.05275 0.21441,4.48836 -0.18976,4.70981c-0.66026,0.36175 -1.1998,-4.15725 -1.34515,-3.46294c-0.29834,1.42518 0.42687,4.5146 -0.12372,4.7097c-0.9275,0.32866 -0.91754,-5.34247 -1.16477,-4.88858c-0.46185,0.84789 0.09707,4.25288 -0.3764,4.44508c-1.37914,0.55984 -0.83144,-4.19842 -1.19554,-3.7364c-0.68783,0.87284 -0.04902,3.26235 -0.58375,3.30972c-1.08716,0.09628 -1.06595,-3.65813 -1.32097,-3.61971z" data-paper-data="{&quot;index&quot;:null}" fill="#5c4747"/></g></g></g></svg>