<svg version="1.1" xmlns="http://www.w3.org/2000/svg" xmlns:xlink="http://www.w3.org/1999/xlink" width="59" height="59.70662" viewBox="0,0,59,59.70662"><defs><linearGradient x1="270" y1="151.64669" x2="270" y2="208.35331" gradientUnits="userSpaceOnUse" id="color-1"><stop offset="0" stop-color="#191919"/><stop offset="1" stop-color="#050505"/></linearGradient><linearGradient x1="270" y1="151.64669" x2="270" y2="208.35331" gradientUnits="userSpaceOnUse" id="color-2"><stop offset="0" stop-color="#cccccc"/><stop offset="1" stop-color="#898989"/></linearGradient><radialGradient cx="255.01406" cy="176.08388" r="14.58764" gradientUnits="userSpaceOnUse" id="color-3"><stop offset="0" stop-color="#240038" stop-opacity="0.65882"/><stop offset="1" stop-color="#0b0029" stop-opacity="0.81569"/></radialGradient><linearGradient x1="256.44678" y1="171.96885" x2="256.44678" y2="199.27476" gradientUnits="userSpaceOnUse" id="color-4"><stop offset="0" stop-color="#348317"/><stop offset="1" stop-color="#3c5b0d"/></linearGradient><radialGradient cx="274.81157" cy="175.19304" r="14.51304" gradientUnits="userSpaceOnUse" id="color-5"><stop offset="0" stop-color="#240038" stop-opacity="0.65882"/><stop offset="1" stop-color="#0b0029" stop-opacity="0.81569"/></radialGradient><linearGradient x1="287.05474" y1="181.285" x2="287.05474" y2="197.02604" gradientUnits="userSpaceOnUse" id="color-6"><stop offset="0" stop-color="#cccccc"/><stop offset="1" stop-color="#898989"/></linearGradient><radialGradient cx="260.48442" cy="166.58147" r="22.40243" gradientUnits="userSpaceOnUse" id="color-7"><stop offset="0" stop-color="#240038" stop-opacity="0.65882"/><stop offset="1" stop-color="#0b0029" stop-opacity="0.81569"/></radialGradient><linearGradient x1="269.3412" y1="152.37285" x2="269.3412" y2="159.11901" gradientUnits="userSpaceOnUse" id="color-8"><stop offset="0" stop-color="#cccccc"/><stop offset="1" stop-color="#898989"/></linearGradient><radialGradient cx="270" cy="180.00001" r="26.8571" gradientUnits="userSpaceOnUse" id="color-9"><stop offset="0" stop-color="#6a01ff" stop-opacity="0.81569"/><stop offset="1" stop-color="#6a01ff" stop-opacity="0"/></radialGradient><linearGradient x1="270" y1="153.29212" x2="270" y2="206.7079" gradientUnits="userSpaceOnUse" id="color-10"><stop offset="0" stop-color="#cccccc"/><stop offset="1" stop-color="#898989"/></linearGradient><radialGradient cx="257.29532" cy="177.02032" r="12.36703" gradientUnits="userSpaceOnUse" id="color-11"><stop offset="0" stop-color="#bd78ff"/><stop offset="1" stop-color="#6a00ff"/></radialGradient><linearGradient x1="258.50994" y1="173.8893" x2="258.50994" y2="194.6657" gradientUnits="userSpaceOnUse" id="color-12"><stop offset="0" stop-color="#348317"/><stop offset="1" stop-color="#3c5b0d"/></linearGradient><radialGradient cx="274.07914" cy="176.3425" r="12.30379" gradientUnits="userSpaceOnUse" id="color-13"><stop offset="0" stop-color="#6b00ff"/><stop offset="1" stop-color="#5000d9"/></radialGradient><linearGradient x1="284.4586" y1="180.97772" x2="284.4586" y2="192.9547" gradientUnits="userSpaceOnUse" id="color-14"><stop offset="0" stop-color="#cccccc"/><stop offset="1" stop-color="#898989"/></linearGradient><radialGradient cx="261.93295" cy="169.79017" r="18.99221" gradientUnits="userSpaceOnUse" id="color-15"><stop offset="0" stop-color="#9e66ff"/><stop offset="1" stop-color="#6a00ff"/></radialGradient><linearGradient x1="269.4415" y1="158.97917" x2="269.4415" y2="164.11216" gradientUnits="userSpaceOnUse" id="color-16"><stop offset="0" stop-color="#cccccc"/><stop offset="1" stop-color="#898989"/></linearGradient><radialGradient cx="261.10522" cy="168.07806" r="20.94091" gradientUnits="userSpaceOnUse" id="color-17"><stop offset="0" stop-color="#9900ff" stop-opacity="0.24706"/><stop offset="1" stop-color="#4400ff" stop-opacity="0.26667"/></radialGradient><linearGradient x1="269.38418" y1="155.45415" x2="269.38418" y2="161.4479" gradientUnits="userSpaceOnUse" id="color-18"><stop offset="0" stop-color="#cccccc"/><stop offset="1" stop-color="#898989"/></linearGradient><radialGradient cx="274.49767" cy="175.72917" r="13.56622" gradientUnits="userSpaceOnUse" id="color-19"><stop offset="0" stop-color="#9900ff" stop-opacity="0.24706"/><stop offset="1" stop-color="#4400ff" stop-opacity="0.26667"/></radialGradient><linearGradient x1="285.94211" y1="181.14168" x2="285.94211" y2="195.1271" gradientUnits="userSpaceOnUse" id="color-20"><stop offset="0" stop-color="#cccccc"/><stop offset="1" stop-color="#898989"/></linearGradient><radialGradient cx="255.99174" cy="176.52065" r="13.63595" gradientUnits="userSpaceOnUse" id="color-21"><stop offset="0" stop-color="#9900ff" stop-opacity="0.24706"/><stop offset="1" stop-color="#4400ff" stop-opacity="0.26667"/></radialGradient><linearGradient x1="257.33099" y1="172.86458" x2="257.33099" y2="197.12502" gradientUnits="userSpaceOnUse" id="color-22"><stop offset="0" stop-color="#348317"/><stop offset="1" stop-color="#3c5b0d"/></linearGradient></defs><g transform="translate(-240.5,-150.14669)"><g data-paper-data="{&quot;isPaintingLayer&quot;:true}" fill-rule="nonzero" stroke-linecap="butt" stroke-linejoin="miter" stroke-miterlimit="10" stroke-dasharray="" stroke-dashoffset="0" style="mix-blend-mode: normal"><path d="M242,208.35331v-56.70662h56v56.70662z" fill="url(#color-1)" stroke="url(#color-2)" stroke-width="3"/><path d="M244.13375,192.84984l4.10748,-26.02093l21.36046,2.89121l1.56295,27.94841z" fill="url(#color-3)" stroke="url(#color-4)" stroke-width="0"/><path d="M271.16466,197.66854l-1.82344,-28.26965l22.66294,-4.8187l3.8621,25.0572z" fill="url(#color-5)" stroke="url(#color-6)" stroke-width="0"/><path d="M247.72023,167.15016l25.26787,-4.81869l19.53701,2.24872l-22.92341,5.13994z" fill="url(#color-7)" stroke="url(#color-8)" stroke-width="0"/><path d="M296.8571,180.00001c0,14.75036 -12.02433,26.70789 -26.8571,26.70789c-14.83277,0 -26.8571,-11.95753 -26.8571,-26.70789c0,-14.75036 12.02433,-26.70789 26.8571,-26.70789c14.83277,0 26.8571,11.95753 26.8571,26.70789z" fill="url(#color-9)" stroke="url(#color-10)" stroke-width="0"/><path d="M245.27327,163.339v-8.69862h32.1917v8.69862z" fill-opacity="0.53453" fill="#000000" stroke="#a60000" stroke-width="0"/><text transform="translate(245.70712,161.61518) scale(0.21839,0.21839)" font-size="40" xml:space="preserve" fill="#ffffff" fill-rule="nonzero" stroke="none" stroke-width="1" stroke-linecap="butt" stroke-linejoin="miter" stroke-miterlimit="10" stroke-dasharray="" stroke-dashoffset="0" font-family="Serif" font-weight="normal" text-anchor="start" style="mix-blend-mode: normal"><tspan x="0" dy="0">Gravitite</tspan></text><path d="M248.07126,189.77713l3.48222,-19.79869l18.10886,2.19985l1.32503,21.26527z" fill="url(#color-11)" stroke="url(#color-12)" stroke-width="0"/><path d="M270.98738,193.44356l-1.54587,-21.50969l19.21306,-3.66643l3.27419,19.06541z" fill="url(#color-13)" stroke="url(#color-14)" stroke-width="0"/><path d="M251.1118,170.22287l21.42146,-3.66643l16.56298,1.711l-19.43389,3.91085z" fill="url(#color-15)" stroke="url(#color-16)" stroke-width="0"/><path d="M249.17376,168.58332l23.61941,-4.28126l18.26243,1.99792l-21.4279,4.56667z" fill="url(#color-17)" stroke="url(#color-18)" stroke-width="0"/><path d="M271.08868,195.69794l-1.70448,-25.11669l21.18442,-4.28126l3.61014,22.26253z" fill="url(#color-19)" stroke="url(#color-20)" stroke-width="0"/><path d="M245.82125,191.41668l3.83951,-23.11877l19.96692,2.56875l1.46098,24.83128z" fill="url(#color-21)" stroke="url(#color-22)" stroke-width="0"/></g></g></svg>