<svg version="1.1" xmlns="http://www.w3.org/2000/svg" xmlns:xlink="http://www.w3.org/1999/xlink" width="59" height="59.70662" viewBox="0,0,59,59.70662"><defs><linearGradient x1="240" y1="151.64669" x2="240" y2="208.35331" gradientUnits="userSpaceOnUse" id="color-1"><stop offset="0" stop-color="#191919"/><stop offset="1" stop-color="#050505"/></linearGradient><linearGradient x1="240" y1="151.64669" x2="240" y2="208.35331" gradientUnits="userSpaceOnUse" id="color-2"><stop offset="0" stop-color="#cccccc"/><stop offset="1" stop-color="#898989"/></linearGradient><radialGradient cx="240" cy="180" r="26.8571" gradientUnits="userSpaceOnUse" id="color-3"><stop offset="0" stop-color="#ffffff" stop-opacity="0.35484"/><stop offset="1" stop-color="#ffffff" stop-opacity="0"/></radialGradient><linearGradient x1="240" y1="153.29211" x2="240" y2="206.70789" gradientUnits="userSpaceOnUse" id="color-4"><stop offset="0" stop-color="#cccccc"/><stop offset="1" stop-color="#898989"/></linearGradient><linearGradient x1="242.65165" y1="196.69828" x2="243.58967" y2="196.69828" gradientUnits="userSpaceOnUse" id="color-5"><stop offset="0" stop-color="#525252"/><stop offset="1" stop-color="#363636"/></linearGradient><linearGradient x1="242.65165" y1="196.69828" x2="243.58967" y2="196.69828" gradientUnits="userSpaceOnUse" id="color-6"><stop offset="0" stop-color="#1f1f1f"/><stop offset="1" stop-color="#000000"/></linearGradient><linearGradient x1="234.07267" y1="197.65132" x2="245.64799" y2="197.65132" gradientUnits="userSpaceOnUse" id="color-7"><stop offset="0" stop-color="#2f2f2f"/><stop offset="1" stop-color="#040404"/></linearGradient><linearGradient x1="234.07267" y1="197.65132" x2="245.64799" y2="197.65132" gradientUnits="userSpaceOnUse" id="color-8"><stop offset="0" stop-color="#1f1f1f"/><stop offset="1" stop-color="#000000"/></linearGradient><linearGradient x1="238.0337" y1="194.47349" x2="241.71363" y2="194.47349" gradientUnits="userSpaceOnUse" id="color-9"><stop offset="0" stop-color="#444444"/><stop offset="1" stop-color="#252525"/></linearGradient><linearGradient x1="236.84314" y1="196.83127" x2="242.75988" y2="196.83127" gradientUnits="userSpaceOnUse" id="color-10"><stop offset="0" stop-color="#444444"/><stop offset="1" stop-color="#252525"/></linearGradient><linearGradient x1="235.84441" y1="199.4341" x2="243.78765" y2="199.4341" gradientUnits="userSpaceOnUse" id="color-11"><stop offset="0" stop-color="#444444"/><stop offset="1" stop-color="#252525"/></linearGradient><linearGradient x1="234.78671" y1="202.02646" x2="244.88846" y2="202.02646" gradientUnits="userSpaceOnUse" id="color-12"><stop offset="0" stop-color="#444444"/><stop offset="1" stop-color="#252525"/></linearGradient><linearGradient x1="241.74932" y1="193.62283" x2="244.67217" y2="193.62283" gradientUnits="userSpaceOnUse" id="color-13"><stop offset="0" stop-color="#b2b2b2"/><stop offset="1" stop-color="#363636"/></linearGradient><linearGradient x1="241.74932" y1="193.62283" x2="244.67217" y2="193.62283" gradientUnits="userSpaceOnUse" id="color-14"><stop offset="0" stop-color="#1f1f1f"/><stop offset="1" stop-color="#000000"/></linearGradient><linearGradient x1="234.1762" y1="162.35594" x2="245.75152" y2="162.35594" gradientUnits="userSpaceOnUse" id="color-15"><stop offset="0" stop-color="#9c8f73"/><stop offset="1" stop-color="#443a22"/></linearGradient><linearGradient x1="234.1762" y1="162.35231" x2="245.75152" y2="162.35231" gradientUnits="userSpaceOnUse" id="color-16"><stop offset="0" stop-color="#272727"/><stop offset="1" stop-color="#000000"/></linearGradient><linearGradient x1="237.06241" y1="157.32034" x2="242.77511" y2="157.32034" gradientUnits="userSpaceOnUse" id="color-17"><stop offset="0" stop-color="#f1f5f8"/><stop offset="1" stop-color="#6d7680"/></linearGradient><linearGradient x1="237.06241" y1="157.31988" x2="242.77511" y2="157.31988" gradientUnits="userSpaceOnUse" id="color-18"><stop offset="0" stop-color="#272727"/><stop offset="1" stop-color="#000000"/></linearGradient><linearGradient x1="235.76007" y1="160.26162" x2="244.27147" y2="160.26162" gradientUnits="userSpaceOnUse" id="color-19"><stop offset="0" stop-color="#45423b"/><stop offset="1" stop-color="#262018"/></linearGradient><linearGradient x1="245.70433" y1="189.65133" x2="251.44181" y2="189.65133" gradientUnits="userSpaceOnUse" id="color-20"><stop offset="0" stop-color="#36322b"/><stop offset="1" stop-color="#1f1c19"/></linearGradient><linearGradient x1="245.70433" y1="189.84844" x2="249.62869" y2="189.84844" gradientUnits="userSpaceOnUse" id="color-21"><stop offset="0" stop-color="#272727"/><stop offset="1" stop-color="#000000"/></linearGradient><linearGradient x1="234.29567" y1="189.5912" x2="228.55819" y2="189.5912" gradientUnits="userSpaceOnUse" id="color-22"><stop offset="0" stop-color="#6b6757"/><stop offset="1" stop-color="#827969"/></linearGradient><linearGradient x1="230.37131" y1="189.78831" x2="234.29567" y2="189.78831" gradientUnits="userSpaceOnUse" id="color-23"><stop offset="0" stop-color="#272727"/><stop offset="1" stop-color="#000000"/></linearGradient><linearGradient x1="234.27973" y1="184.96291" x2="245.71806" y2="184.96291" gradientUnits="userSpaceOnUse" id="color-24"><stop offset="0" stop-color="#635f54"/><stop offset="1" stop-color="#211f1a"/></linearGradient><linearGradient x1="234.27973" y1="184.96291" x2="245.71807" y2="184.96291" gradientUnits="userSpaceOnUse" id="color-25"><stop offset="0" stop-color="#272727"/><stop offset="1" stop-color="#000000"/></linearGradient><linearGradient x1="240.40777" y1="185.4908" x2="244.89429" y2="185.4908" gradientUnits="userSpaceOnUse" id="color-26"><stop offset="0" stop-color="#4a382c"/><stop offset="1" stop-color="#301f1b"/></linearGradient><linearGradient x1="240.40777" y1="185.4908" x2="244.89429" y2="185.4908" gradientUnits="userSpaceOnUse" id="color-27"><stop offset="0" stop-color="#351c12"/><stop offset="1" stop-color="#1a1310"/></linearGradient><linearGradient x1="240.39571" y1="185.4925" x2="244.87185" y2="185.4925" gradientUnits="userSpaceOnUse" id="color-28"><stop offset="0" stop-color="#351c12"/><stop offset="1" stop-color="#1a1310"/></linearGradient><linearGradient x1="240.39571" y1="185.45841" x2="244.87185" y2="185.45841" gradientUnits="userSpaceOnUse" id="color-29"><stop offset="0" stop-color="#351c12"/><stop offset="1" stop-color="#1a1310"/></linearGradient><linearGradient x1="235.04549" y1="185.51353" x2="239.53201" y2="185.51353" gradientUnits="userSpaceOnUse" id="color-30"><stop offset="0" stop-color="#4a382c"/><stop offset="1" stop-color="#301f1b"/></linearGradient><linearGradient x1="235.04549" y1="185.51353" x2="239.53201" y2="185.51353" gradientUnits="userSpaceOnUse" id="color-31"><stop offset="0" stop-color="#351c12"/><stop offset="1" stop-color="#1a1310"/></linearGradient><linearGradient x1="235.03343" y1="185.51522" x2="239.50957" y2="185.51522" gradientUnits="userSpaceOnUse" id="color-32"><stop offset="0" stop-color="#351c12"/><stop offset="1" stop-color="#1a1310"/></linearGradient><linearGradient x1="235.03343" y1="185.48113" x2="239.50957" y2="185.48113" gradientUnits="userSpaceOnUse" id="color-33"><stop offset="0" stop-color="#351c12"/><stop offset="1" stop-color="#1a1310"/></linearGradient><linearGradient x1="240.40777" y1="190.90246" x2="244.89429" y2="190.90246" gradientUnits="userSpaceOnUse" id="color-34"><stop offset="0" stop-color="#4a382c"/><stop offset="1" stop-color="#301f1b"/></linearGradient><linearGradient x1="240.40777" y1="190.90246" x2="244.89429" y2="190.90246" gradientUnits="userSpaceOnUse" id="color-35"><stop offset="0" stop-color="#351c12"/><stop offset="1" stop-color="#1a1310"/></linearGradient><linearGradient x1="240.39571" y1="190.90415" x2="244.87185" y2="190.90415" gradientUnits="userSpaceOnUse" id="color-36"><stop offset="0" stop-color="#351c12"/><stop offset="1" stop-color="#1a1310"/></linearGradient><linearGradient x1="240.39571" y1="190.87007" x2="244.87185" y2="190.87007" gradientUnits="userSpaceOnUse" id="color-37"><stop offset="0" stop-color="#351c12"/><stop offset="1" stop-color="#1a1310"/></linearGradient><linearGradient x1="235.04549" y1="190.92518" x2="239.53201" y2="190.92518" gradientUnits="userSpaceOnUse" id="color-38"><stop offset="0" stop-color="#4a382c"/><stop offset="1" stop-color="#301f1b"/></linearGradient><linearGradient x1="235.04549" y1="190.92518" x2="239.53201" y2="190.92518" gradientUnits="userSpaceOnUse" id="color-39"><stop offset="0" stop-color="#351c12"/><stop offset="1" stop-color="#1a1310"/></linearGradient><linearGradient x1="235.03343" y1="190.92687" x2="239.50957" y2="190.92687" gradientUnits="userSpaceOnUse" id="color-40"><stop offset="0" stop-color="#351c12"/><stop offset="1" stop-color="#1a1310"/></linearGradient><linearGradient x1="235.03343" y1="190.89279" x2="239.50957" y2="190.89279" gradientUnits="userSpaceOnUse" id="color-41"><stop offset="0" stop-color="#351c12"/><stop offset="1" stop-color="#1a1310"/></linearGradient><linearGradient x1="234.85887" y1="179.33288" x2="245.06885" y2="179.33288" gradientUnits="userSpaceOnUse" id="color-42"><stop offset="0" stop-color="#515151"/><stop offset="1" stop-color="#131313"/></linearGradient><linearGradient x1="234.85887" y1="179.33288" x2="245.06885" y2="179.33288" gradientUnits="userSpaceOnUse" id="color-43"><stop offset="0" stop-color="#272727"/><stop offset="1" stop-color="#000000"/></linearGradient><linearGradient x1="235.39064" y1="177.11125" x2="244.46618" y2="177.11125" gradientUnits="userSpaceOnUse" id="color-44"><stop offset="0" stop-color="#272727"/><stop offset="1" stop-color="#000000"/></linearGradient><linearGradient x1="235.42609" y1="181.58742" x2="244.35983" y2="181.58742" gradientUnits="userSpaceOnUse" id="color-45"><stop offset="0" stop-color="#272727"/><stop offset="1" stop-color="#000000"/></linearGradient><linearGradient x1="234.24469" y1="171.88284" x2="245.68303" y2="171.88284" gradientUnits="userSpaceOnUse" id="color-46"><stop offset="0" stop-color="#303030"/><stop offset="1" stop-color="#171717"/></linearGradient><linearGradient x1="234.24469" y1="171.88284" x2="245.68303" y2="171.88284" gradientUnits="userSpaceOnUse" id="color-47"><stop offset="0" stop-color="#272727"/><stop offset="1" stop-color="#000000"/></linearGradient><radialGradient cx="239.96386" cy="171.88284" r="4.74518" gradientUnits="userSpaceOnUse" id="color-48"><stop offset="0" stop-color="#734c45" stop-opacity="0.40995"/><stop offset="1" stop-color="#734c45" stop-opacity="0"/></radialGradient><radialGradient cx="239.96386" cy="171.86597" r="3.8524" gradientUnits="userSpaceOnUse" id="color-49"><stop offset="0" stop-color="#eb8c73" stop-opacity="0.60996"/><stop offset="1" stop-color="#eb8c73" stop-opacity="0"/></radialGradient><radialGradient cx="239.96386" cy="171.86597" r="3.26137" gradientUnits="userSpaceOnUse" id="color-50"><stop offset="0" stop-color="#ff734f" stop-opacity="0"/><stop offset="1" stop-color="#ff734f" stop-opacity="0.08997"/></radialGradient><radialGradient cx="239.96386" cy="171.86597" r="2.68184" gradientUnits="userSpaceOnUse" id="color-51"><stop offset="0" stop-color="#ffa282" stop-opacity="0.11996"/><stop offset="1" stop-color="#ffab8f"/></radialGradient><linearGradient x1="234.40564" y1="171.87532" x2="235.17229" y2="171.87532" gradientUnits="userSpaceOnUse" id="color-52"><stop offset="0" stop-color="#9d9d9d"/><stop offset="1" stop-color="#4c4c4c"/></linearGradient><linearGradient x1="234.40564" y1="171.87532" x2="235.17229" y2="171.87532" gradientUnits="userSpaceOnUse" id="color-53"><stop offset="0" stop-color="#272727"/><stop offset="1" stop-color="#000000"/></linearGradient><linearGradient x1="244.77798" y1="171.87532" x2="245.54463" y2="171.87532" gradientUnits="userSpaceOnUse" id="color-54"><stop offset="0" stop-color="#9d9d9d"/><stop offset="1" stop-color="#4c4c4c"/></linearGradient><linearGradient x1="244.77798" y1="171.87532" x2="245.54463" y2="171.87532" gradientUnits="userSpaceOnUse" id="color-55"><stop offset="0" stop-color="#272727"/><stop offset="1" stop-color="#000000"/></linearGradient><linearGradient x1="234.3847" y1="173.29346" x2="245.54302" y2="173.29346" gradientUnits="userSpaceOnUse" id="color-56"><stop offset="0" stop-color="#272727"/><stop offset="1" stop-color="#000000"/></linearGradient><linearGradient x1="234.3847" y1="173.3069" x2="245.54302" y2="173.3069" gradientUnits="userSpaceOnUse" id="color-57"><stop offset="0" stop-color="#272727"/><stop offset="1" stop-color="#000000"/></linearGradient><linearGradient x1="234.41047" y1="170.32993" x2="245.56878" y2="170.32993" gradientUnits="userSpaceOnUse" id="color-58"><stop offset="0" stop-color="#272727"/><stop offset="1" stop-color="#000000"/></linearGradient><linearGradient x1="234.41047" y1="170.34337" x2="245.56878" y2="170.34337" gradientUnits="userSpaceOnUse" id="color-59"><stop offset="0" stop-color="#272727"/><stop offset="1" stop-color="#000000"/></linearGradient><linearGradient x1="234.27436" y1="175.19033" x2="245.54864" y2="175.19033" gradientUnits="userSpaceOnUse" id="color-60"><stop offset="0" stop-color="#c7a895"/><stop offset="1" stop-color="#322c27"/></linearGradient><linearGradient x1="234.27436" y1="175.19033" x2="245.54864" y2="175.19033" gradientUnits="userSpaceOnUse" id="color-61"><stop offset="0" stop-color="#272727"/><stop offset="1" stop-color="#000000"/></linearGradient><linearGradient x1="234.3259" y1="168.59326" x2="245.60018" y2="168.59326" gradientUnits="userSpaceOnUse" id="color-62"><stop offset="0" stop-color="#c7a895"/><stop offset="1" stop-color="#322c27"/></linearGradient><linearGradient x1="234.3259" y1="168.59326" x2="245.60018" y2="168.59326" gradientUnits="userSpaceOnUse" id="color-63"><stop offset="0" stop-color="#272727"/><stop offset="1" stop-color="#000000"/></linearGradient></defs><g transform="translate(-210.5,-150.14669)"><g data-paper-data="{&quot;isPaintingLayer&quot;:true}" fill-rule="nonzero" stroke-linejoin="miter" stroke-miterlimit="10" stroke-dasharray="" stroke-dashoffset="0" style="mix-blend-mode: normal"><path d="M212,208.35331v-56.70662h56v56.70662z" fill="url(#color-1)" stroke="url(#color-2)" stroke-width="3" stroke-linecap="butt"/><path d="M266.8571,180c0,14.75036 -12.02433,26.70789 -26.8571,26.70789c-14.83277,0 -26.8571,-11.95753 -26.8571,-26.70789c0,-14.75036 12.02433,-26.70789 26.8571,-26.70789c14.83277,0 26.8571,11.95753 26.8571,26.70789z" fill="url(#color-3)" stroke="url(#color-4)" stroke-width="0" stroke-linecap="butt"/><g stroke-width="0.375"><path d="M242.65165,198.24962v-3.10268h0.93802v3.10268z" fill="url(#color-5)" stroke="url(#color-6)" stroke-linecap="butt"/><path d="M234.07267,203.43921c0,0 4.32216,-11.6602 5.78845,-11.57532c1.67741,0.0971 5.78687,11.57532 5.78687,11.57532z" fill="url(#color-7)" stroke="url(#color-8)" stroke-linecap="butt"/><path d="M238.0337,194.47349h3.67992" fill="none" stroke="url(#color-9)" stroke-linecap="round"/><path d="M242.75988,196.83127h-5.91674" fill="none" stroke="url(#color-10)" stroke-linecap="round"/><path d="M243.78766,199.4341h-7.94325" fill="none" stroke="url(#color-11)" stroke-linecap="round"/><path d="M234.78671,202.02646h10.10175" fill="none" stroke="url(#color-12)" stroke-linecap="round"/><path d="M244.67217,193.62283c-0.01094,1.37429 -0.04556,1.52134 -1.46142,1.50678c-1.41631,-0.01457 -1.47899,-0.20079 -1.46142,-1.50678c0.0194,-1.44189 0.01528,-1.54211 1.46142,-1.50678c1.3856,0.03386 1.47343,-0.00234 1.46142,1.50678z" fill="url(#color-13)" stroke="url(#color-14)" stroke-linecap="butt"/></g><path d="M234.1762,168.14383c0,0 0.74446,-11.84059 5.72832,-11.57532c5.01459,-0.35387 5.847,11.57532 5.847,11.57532z" fill="url(#color-15)" stroke="url(#color-16)" stroke-width="0.375" stroke-linecap="butt"/><path d="M237.06241,158.05263c0,0 0.36741,-1.49809 2.82706,-1.46453c2.47482,-0.04477 2.88563,1.46453 2.88563,1.46453z" fill="url(#color-17)" stroke="url(#color-18)" stroke-width="0.375" stroke-linecap="butt"/><path d="M235.4691,161.72312c0,0 0.14121,-0.45794 0.34865,-1.00291c0.24344,-0.63953 0.64668,-1.3989 2.04006,-1.67868c0.05406,-0.01086 1.0697,-0.16988 1.0697,-0.16988l2.20955,0.00681c0,0 0.76381,0.05452 0.80867,0.06515c1.31867,0.3126 1.81386,1.09753 2.09106,1.75383c0.23636,0.5596 0.38017,1.02568 0.38017,1.02568z" data-paper-data="{&quot;index&quot;:null}" fill="url(#color-19)" stroke="#000000" stroke-width="0.375" stroke-linecap="butt"/><path d="M237.82678,160.32176c0,-0.5624 0.45592,-1.01832 1.01832,-1.01832c0.5624,0 1.01832,0.45592 1.01832,1.01832c0,0.5624 -0.45592,1.01832 -1.01832,1.01832c-0.5624,0 -1.01832,-0.45592 -1.01832,-1.01832z" fill="#caff00" stroke="none" stroke-width="0.375" stroke-linecap="butt"/><path d="M240.18055,160.34407c0,-0.5624 0.45592,-1.01832 1.01832,-1.01832c0.5624,0 1.01832,0.45592 1.01832,1.01832c0,0.5624 -0.45592,1.01832 -1.01832,1.01832c-0.5624,0 -1.01832,-0.45592 -1.01832,-1.01832z" fill="#00fcff" stroke="none" stroke-width="0.375" stroke-linecap="butt"/><path d="M245.70433,194.35812v-11.6985c0,0 1.47217,7.85295 1.98688,9.74899c0.40723,1.5001 1.93747,4.62864 1.93747,4.62864z" fill="url(#color-20)" stroke="url(#color-21)" stroke-width="0.375" stroke-linecap="butt"/><path d="M230.37131,196.97712c0,0 1.53024,-3.12854 1.93747,-4.62864c0.51471,-1.89604 1.98688,-9.74899 1.98688,-9.74899v11.6985z" data-paper-data="{&quot;index&quot;:null}" fill="url(#color-22)" stroke="url(#color-23)" stroke-width="0.375" stroke-linecap="butt"/><path d="M234.27973,194.34646v-18.76709h11.43834v18.76709z" fill="url(#color-24)" stroke="url(#color-25)" stroke-width="0.375" stroke-linecap="butt"/><g stroke-width="0.375"><path d="M240.40777,187.82637v-4.67113h4.48652v4.67113z" fill="url(#color-26)" stroke="url(#color-27)" stroke-linecap="butt"/><path d="M240.39571,187.76465l4.47614,-4.54431" fill="none" stroke="url(#color-28)" stroke-linecap="round"/><path d="M244.87185,187.78737l-4.4307,-4.61247" fill="none" stroke="url(#color-29)" stroke-linecap="round"/></g><g stroke-width="0.375"><path d="M235.04549,187.84909v-4.67113h4.48652v4.67113z" fill="url(#color-30)" stroke="url(#color-31)" stroke-linecap="butt"/><path d="M235.03343,187.78737l4.47614,-4.54431" fill="none" stroke="url(#color-32)" stroke-linecap="round"/><path d="M239.50957,187.81009l-4.4307,-4.61247" fill="none" stroke="url(#color-33)" stroke-linecap="round"/></g><g stroke-width="0.375"><path d="M240.40777,193.23802v-4.67113h4.48652v4.67113z" fill="url(#color-34)" stroke="url(#color-35)" stroke-linecap="butt"/><path d="M244.87185,188.632l-4.47614,4.54431" fill="none" stroke="url(#color-36)" stroke-linecap="round"/><path d="M244.87185,193.19902l-4.4307,-4.61247" fill="none" stroke="url(#color-37)" stroke-linecap="round"/></g><g stroke-width="0.375"><path d="M235.04549,193.26074v-4.67113h4.48652v4.67113z" fill="url(#color-38)" stroke="url(#color-39)" stroke-linecap="butt"/><path d="M235.03343,193.19903l4.47614,-4.54431" fill="none" stroke="url(#color-40)" stroke-linecap="round"/><path d="M239.50957,193.22175l-4.4307,-4.61247" fill="none" stroke="url(#color-41)" stroke-linecap="round"/></g><g stroke-width="0.375"><path d="M234.85887,182.14694v-5.62812h10.20999v5.62812z" fill="url(#color-42)" stroke="url(#color-43)" stroke-linecap="butt"/><path d="M244.46618,177.11125h-9.07554" fill="none" stroke="url(#color-44)" stroke-linecap="round"/><path d="M235.42609,181.58742h8.93374" fill="none" stroke="url(#color-45)" stroke-linecap="round"/></g><g stroke-width="0.375"><path d="M234.24469,175.62924v-7.49281h11.43834v7.49281z" fill="url(#color-46)" stroke="url(#color-47)" stroke-linecap="butt"/><path d="M235.21868,171.88284c0,-2.62068 2.12449,-4.74518 4.74518,-4.74518c2.62068,0 4.74518,2.12449 4.74518,4.74518c0,2.62068 -2.12449,4.74518 -4.74518,4.74518c-2.62068,0 -4.74518,-2.12449 -4.74518,-4.74518z" fill="url(#color-48)" stroke="none" stroke-linecap="butt"/><path d="M236.11146,171.86597c0,-2.12761 1.72478,-3.8524 3.8524,-3.8524c2.12761,0 3.8524,1.72478 3.8524,3.8524c0,2.12761 -1.72478,3.8524 -3.8524,3.8524c-2.12761,0 -3.8524,-1.72478 -3.8524,-3.8524z" fill="url(#color-49)" stroke="none" stroke-linecap="butt"/><path d="M236.70248,171.86597c0,-1.8012 1.46017,-3.26137 3.26137,-3.26137c1.8012,0 3.26137,1.46016 3.26137,3.26137c0,1.8012 -1.46017,3.26137 -3.26137,3.26137c-1.8012,0 -3.26137,-1.46017 -3.26137,-3.26137z" fill="url(#color-50)" stroke="none" stroke-linecap="butt"/><path d="M237.28202,171.86597c0,-1.48113 1.2007,-2.68184 2.68184,-2.68184c1.48113,0 2.68184,1.2007 2.68184,2.68184c0,1.48113 -1.2007,2.68184 -2.68184,2.68184c-1.48113,0 -2.68184,-1.2007 -2.68184,-2.68184z" fill="url(#color-51)" stroke="none" stroke-linecap="butt"/><path d="M234.40564,174.80663v-5.86263h0.76665v5.86263z" fill="url(#color-52)" stroke="url(#color-53)" stroke-linecap="butt"/><path d="M244.77798,174.80663v-5.86263h0.76665v5.86263z" fill="url(#color-54)" stroke="url(#color-55)" stroke-linecap="butt"/><path d="M234.3847,174.83292l0.61847,-3.07893l0.59271,3.07893l0.79886,-3.05204l0.79886,3.03859l1.39157,-3.03859l1.34003,3.05204l1.18541,-3.03859l1.34003,3.02515l0.90194,-3.02515l0.97925,3.05204l0.61847,-3.03859l0.5927,3.0117" fill="none" stroke="url(#color-56)" stroke-linecap="round"/><path d="M245.54302,171.78088l-0.5927,3.0117l-0.61847,-3.03859l-0.97925,3.05204l-0.90194,-3.02515l-1.34003,3.02515l-1.18541,-3.03859l-1.34003,3.05204l-1.39157,-3.03859l-0.79886,3.03859l-0.79886,-3.05204l-0.59271,3.07893l-0.61847,-3.07893" data-paper-data="{&quot;index&quot;:null}" fill="none" stroke="url(#color-57)" stroke-linecap="round"/><path d="M234.41047,171.86939l0.61847,-3.07893l0.59271,3.07893l0.79886,-3.05204l0.79886,3.03859l1.39157,-3.03859l1.34003,3.05204l1.18541,-3.03859l1.34003,3.02515l0.90194,-3.02515l0.97925,3.05204l0.61847,-3.03859l0.5927,3.0117" fill="none" stroke="url(#color-58)" stroke-linecap="round"/><path d="M245.56878,168.81736l-0.5927,3.0117l-0.61847,-3.03859l-0.97925,3.05204l-0.90194,-3.02515l-1.34003,3.02515l-1.18541,-3.03859l-1.34003,3.05204l-1.39157,-3.03859l-0.79886,3.03859l-0.79886,-3.05204l-0.59271,3.07893l-0.61847,-3.07893" data-paper-data="{&quot;index&quot;:null}" fill="none" stroke="url(#color-59)" stroke-linecap="round"/><path d="M234.27436,175.52104v-0.66142h11.27428v0.66142z" fill="url(#color-60)" stroke="url(#color-61)" stroke-linecap="butt"/><path d="M234.3259,168.92398v-0.66142h11.27428v0.66142z" fill="url(#color-62)" stroke="url(#color-63)" stroke-linecap="butt"/></g><path d="M215.27327,167.03273v-12.39235h25.93332v8.69862h-15.56684v3.69373z" fill-opacity="0.53453" fill="#000000" stroke="#a60000" stroke-width="0" stroke-linecap="butt"/><text transform="translate(215.70712,161.61518) scale(0.21839,0.21839)" font-size="40" xml:space="preserve" fill="#ffffff" fill-rule="nonzero" stroke="#000000" stroke-width="0" stroke-linecap="butt" stroke-linejoin="miter" stroke-miterlimit="10" stroke-dasharray="" stroke-dashoffset="0" font-family="Serif" font-weight="normal" text-anchor="start" style="mix-blend-mode: normal"><tspan x="0" dy="0">Rocket</tspan></text><text transform="translate(215.56527,166.16682) scale(0.11601,0.11601)" font-size="40" xml:space="preserve" fill="#ffffff" fill-rule="nonzero" stroke="#000000" stroke-width="0" stroke-linecap="butt" stroke-linejoin="miter" stroke-miterlimit="10" stroke-dasharray="" stroke-dashoffset="0" font-family="Serif" font-weight="normal" text-anchor="start" style="mix-blend-mode: normal"><tspan x="0" dy="0">3-1-2</tspan></text></g></g></svg>