<svg version="1.1" xmlns="http://www.w3.org/2000/svg" xmlns:xlink="http://www.w3.org/1999/xlink" width="280.46671" height="132.46896" viewBox="0,0,280.46671,132.46896"><defs><linearGradient x1="68.5" y1="178.22222" x2="133.16667" y2="178.22222" gradientUnits="userSpaceOnUse" id="color-1"><stop offset="0" stop-color="#ffffff" stop-opacity="0"/><stop offset="1" stop-color="#ffffff" stop-opacity="0.15549"/></linearGradient><radialGradient cx="138.52746" cy="144.99677" r="53.5" gradientUnits="userSpaceOnUse" id="color-2"><stop offset="0" stop-color="#fbff00"/><stop offset="1" stop-color="#e7c800"/></radialGradient><radialGradient cx="259.751" cy="142.10055" r="105.00199" gradientUnits="userSpaceOnUse" id="color-3"><stop offset="0" stop-color="#b5adc7"/><stop offset="1" stop-color="#736e7d"/></radialGradient><radialGradient cx="284.07094" cy="227.10715" r="97.66667" gradientUnits="userSpaceOnUse" id="color-4"><stop offset="0" stop-color="#7c20fa"/><stop offset="1" stop-color="#5c00dc"/></radialGradient><linearGradient x1="333.21269" y1="238.22233" x2="137.88202" y2="236.43841" gradientUnits="userSpaceOnUse" id="color-5"><stop offset="0" stop-color="#212121"/><stop offset="1" stop-color="#161616"/></linearGradient><radialGradient cx="275.13057" cy="173.60805" r="40" gradientUnits="userSpaceOnUse" id="color-6"><stop offset="0" stop-color="#757575"/><stop offset="1" stop-color="#333333"/></radialGradient><radialGradient cx="343.56941" cy="198.86838" r="31.7013" gradientUnits="userSpaceOnUse" id="color-7"><stop offset="0" stop-color="#757575"/><stop offset="1" stop-color="#333333"/></radialGradient><radialGradient cx="207.68763" cy="166.62611" r="59.26355" gradientUnits="userSpaceOnUse" id="color-8"><stop offset="0" stop-color="#b0b9ff"/><stop offset="1" stop-color="#6600ff"/></radialGradient><radialGradient cx="269.41456" cy="227.47807" r="18.6" gradientUnits="userSpaceOnUse" id="color-9"><stop offset="0" stop-color="#fbff00"/><stop offset="1" stop-color="#e7c800"/></radialGradient><radialGradient cx="269.97555" cy="166.05206" r="18.6" gradientUnits="userSpaceOnUse" id="color-10"><stop offset="0" stop-color="#fbff00"/><stop offset="1" stop-color="#e7c800"/></radialGradient><radialGradient cx="259.751" cy="142.10055" r="105.00199" gradientUnits="userSpaceOnUse" id="color-11"><stop offset="0" stop-color="#9c93ab"/><stop offset="1" stop-color="#605966"/></radialGradient><radialGradient cx="308.96052" cy="155.88385" r="25.60099" gradientUnits="userSpaceOnUse" id="color-12"><stop offset="0" stop-color="#afb7ff"/><stop offset="1" stop-color="#6600ff"/></radialGradient><linearGradient x1="235.50741" y1="238.88636" x2="235.38564" y2="252.21912" gradientUnits="userSpaceOnUse" id="color-13"><stop offset="0" stop-color="#583095" stop-opacity="0.67742"/><stop offset="1" stop-color="#583095" stop-opacity="0"/></linearGradient><linearGradient x1="235.50741" y1="238.88635" x2="235.40949" y2="249.60811" gradientUnits="userSpaceOnUse" id="color-14"><stop offset="0" stop-color="#9272c0" stop-opacity="0.58065"/><stop offset="1" stop-color="#9272c0" stop-opacity="0"/></linearGradient><linearGradient x1="235.5074" y1="238.88636" x2="235.44245" y2="245.99716" gradientUnits="userSpaceOnUse" id="color-15"><stop offset="0" stop-color="#ab8cd9" stop-opacity="0.91129"/><stop offset="1" stop-color="#ab8cd9" stop-opacity="0"/></linearGradient><linearGradient x1="235.5074" y1="238.88635" x2="235.47695" y2="242.21954" gradientUnits="userSpaceOnUse" id="color-16"><stop offset="0" stop-color="#d4bafa"/><stop offset="1" stop-color="#d4bafa" stop-opacity="0"/></linearGradient></defs><g transform="translate(-68.5,-120.64058)"><g data-paper-data="{&quot;isPaintingLayer&quot;:true}" fill-rule="nonzero" stroke-linecap="butt" stroke-linejoin="miter" stroke-miterlimit="10" stroke-dasharray="" stroke-dashoffset="0" style="mix-blend-mode: normal"><path d="M68.5,231.55555v-106.66667h64.66667v106.66667z" fill="url(#color-1)" stroke="#000000" stroke-width="0"/><path d="M131.39987,231.93531l0.97717,-106.99553l9.33294,0.08524l-0.97717,106.99553z" data-paper-data="{&quot;index&quot;:null}" fill="url(#color-2)" stroke="#000000" stroke-width="0"/><path d="M138.22745,235.19635l1.04414,-114.32856c0,0 63.45391,-1.43099 102.38936,2.88934c9.46648,1.05041 23.10004,5.62851 27.52607,6.96418c21.10861,6.37002 76.59636,44.54975 76.93538,80.42817c0.15206,16.09225 -14.23635,25.81552 -14.23635,25.81552z" data-paper-data="{&quot;index&quot;:null}" fill="url(#color-3)" stroke="#000000" stroke-width="0"/><path d="M138.38295,228.77673l0.03045,-3.33319l195.32519,1.78387l-0.03045,3.33319z" data-paper-data="{&quot;index&quot;:null}" fill="url(#color-4)" stroke="#000000" stroke-width="0"/><path d="M137.86303,238.52163l0.03805,-4.16649l195.33064,1.78391l-0.03805,4.16649z" data-paper-data="{&quot;index&quot;:null}" fill="url(#color-5)" stroke="#000000" stroke-width="0"/><path d="M244.56489,235.4102l0.70015,-76.66347l36.99846,0.3379l-0.70015,76.66347z" data-paper-data="{&quot;index&quot;:null}" fill="url(#color-6)" stroke="#000000" stroke-width="0"/><path d="M330.47408,172.7477c0,0 22.18581,24.02874 17.95661,41.33238c-10.39036,29.72297 -21.53487,21.97091 -21.53487,21.97091c0,0 9.42748,-9.27228 10.58709,-27.7378c1.22168,-19.45397 -7.00883,-35.56549 -7.00883,-35.56549z" data-paper-data="{&quot;index&quot;:null}" fill="url(#color-7)" stroke="#000000" stroke-width="0"/><path d="M237.60123,194.90047c0,0 -23.395,7.11997 -77.37273,3.96023c-7.91581,-0.46336 -15.29008,-4.8065 -15.29008,-4.8065c0,0 -2.2091,-14.31711 -2.38953,-30.35642c-0.09677,-8.60273 2.85225,-20.30814 2.85225,-20.30814c0,0 16.82995,-2.61284 32.43461,-0.97305c17.95188,1.88644 38.25434,5.31571 50.05676,9.36557c6.39639,2.19485 10.04358,6.45315 10.04358,6.45315c0,0 2.77081,6.69285 2.49303,19.02356c-0.28265,12.54716 -2.82789,17.64158 -2.82789,17.64158z" data-paper-data="{&quot;index&quot;:null}" fill="url(#color-8)" stroke-opacity="0.72673" stroke="#320080" stroke-width="2"/><path d="M244.4419,230.10725l0.03654,-3.99983l37.19844,0.33973l-0.03654,3.99983z" data-paper-data="{&quot;index&quot;:null}" fill="url(#color-9)" stroke="#000000" stroke-width="0"/><path d="M245.00289,168.68125l0.03654,-3.99983l37.19844,0.33973l-0.03654,3.99983z" data-paper-data="{&quot;index&quot;:null}" fill="url(#color-10)" stroke="#000000" stroke-width="0"/><path d="M238.08455,131.0782c-26.36138,-2.61726 -98.89819,-0.87745 -98.89819,-0.87745l0.08524,-9.33294c0,0 63.45391,-1.43099 102.38936,2.88934c9.46648,1.05041 23.10004,5.62851 27.52607,6.96418c21.1086,6.37003 16.87448,13.82135 16.87448,13.82135c0,0 -28.1649,-11.49746 -47.97696,-13.46446z" data-paper-data="{&quot;index&quot;:null}" fill="url(#color-11)" stroke="#000000" stroke-width="0"/><path d="M303.17332,162.18804c-13.84602,-11.99237 -21.46958,-25.87152 -21.46958,-25.87152c0,0 14.82525,5.56435 28.67124,17.55671c13.846,11.99238 22.16361,22.87774 22.16361,22.87774c0,0 -15.51927,-2.57055 -29.36526,-14.56292z" data-paper-data="{&quot;index&quot;:null}" fill="url(#color-12)" stroke-opacity="0.72673" stroke="#320080" stroke-width="2"/><path d="M137.88971,251.3287l0.12176,-13.33278l194.99187,1.78083l-0.12176,13.33278z" data-paper-data="{&quot;index&quot;:null}" fill="url(#color-13)" stroke="#000000" stroke-width="0"/><path d="M137.91355,248.7177l0.09792,-10.72177l194.99187,1.78083l-0.09792,10.72177z" data-paper-data="{&quot;index&quot;:null}" fill="url(#color-14)" stroke="#000000" stroke-width="0"/><path d="M137.94653,245.10674l0.06494,-7.11081l194.99187,1.78083l-0.06494,7.11081z" data-paper-data="{&quot;index&quot;:null}" fill="url(#color-15)" stroke="#000000" stroke-width="0"/><path d="M137.98104,241.32913l0.03045,-3.33319l194.99187,1.78083l-0.03045,3.33319z" data-paper-data="{&quot;index&quot;:null}" fill="url(#color-16)" stroke="#000000" stroke-width="0"/></g></g></svg>