<svg version="1.1" xmlns="http://www.w3.org/2000/svg" xmlns:xlink="http://www.w3.org/1999/xlink" width="1082.53199" height="150.53184" viewBox="0,0,1082.53199,150.53184"><defs><linearGradient x1="269.33194" y1="202.05764" x2="269.33194" y2="318.58949" gradientUnits="userSpaceOnUse" id="color-1"><stop offset="0" stop-color="#493f32"/><stop offset="1" stop-color="#272519"/></linearGradient><linearGradient x1="809.83194" y1="202.05764" x2="809.83194" y2="318.58949" gradientUnits="userSpaceOnUse" id="color-2"><stop offset="0" stop-color="#493f32"/><stop offset="1" stop-color="#272519"/></linearGradient></defs><g transform="translate(2.15805,-202.05764)"><g data-paper-data="{&quot;isPaintingLayer&quot;:true}" fill-rule="nonzero" stroke="none" stroke-width="0.5" stroke-linecap="butt" stroke-linejoin="miter" stroke-miterlimit="10" stroke-dasharray="" stroke-dashoffset="0" style="mix-blend-mode: normal"><path d="M539.55694,352.58949l-540.24643,-1.09845c0,0 -3.65278,-140.77127 0.56346,-142.50375l1.23133,-0.06978c0.32504,-0.08836 0.55924,-0.08836 0.55924,-0.08836c6,0 12,0 18,0c3.19987,0 6.42531,0.53807 9.59954,0.03979c3.00303,-0.47139 6.00543,-1.87008 9,-2.46545c5.56489,-1.1064 11.52882,0.98905 17.095,-0.0167c1.35984,-0.24571 2.63379,-1.04835 4,-1.23273c4.36561,-0.58916 9.20806,-0.02361 13.61092,0c4.21148,1.27459 8.5402,2.998 12.85159,3.66711c8.89513,1.38048 18.17295,-1.16959 27.0893,0.02297c1.65953,0.22196 3.25479,0.94995 4.9107,1.20976c4.13584,0.64889 8.66277,0.00798 12.84295,0.00798c7.33333,0 14.66667,0 22,0c5.66667,0 11.33333,0 17,0c0.48002,0 6.14144,-0.0117 6.40046,0.03979c1.04064,0.2069 1.95706,1.04421 3,1.23273c7.119,1.28683 14.89192,-0.40918 22.001,1.23292c1.35517,0.31303 2.71424,0.81307 3.91287,1.653c0.70975,0.49734 0.88259,1.87154 1.64238,2.23978c0.85899,0.41632 1.89212,-0.46216 2.76775,-0.10235c1.216,0.49966 2.03398,2.00684 3.23225,2.5678c1.42508,0.66715 3.00402,0.64795 4.4933,1.0489c3.55045,0.95587 6.90344,2.39323 10.34056,3.80556c1.87339,0.76979 3.66224,1.94534 5.60989,2.3471c2.84967,0.58781 5.28544,-0.35076 7.95787,-1.16928c2.68509,-0.8224 5.50366,-0.73934 8.23348,-1.29461c3.3512,-0.68167 6.64105,-3.09296 10.00773,-3.69974c2.45202,-0.44193 5.12285,0.22685 7.38907,-1.00907c1.19006,-0.64902 2.04598,-2.11368 3.28692,-2.59666c1.66775,-0.6491 4.61918,0.20786 6.419,-0.10915c3.78893,-0.66736 7.19512,-3.02822 11,-3.69818c3.29657,-0.58045 6.97111,-0.02309 10.30546,-0.02309c8.37832,0 17.39369,1.17796 25.69454,0.02309c1.3657,-0.19 2.6388,-0.99873 4,-1.23273c5.92572,-1.01864 12.1623,0.57184 18.12824,-0.01534c4.36417,-0.42953 8.55196,-1.59751 12.78264,-2.43457c2.30191,-0.45544 4.68742,0.41813 6.99413,0.00117c1.04294,-0.18852 1.9565,-1.04896 3,-1.23273c2.59127,-0.45632 5.25784,-0.38255 7.79412,-1.18051c3.79179,-1.16856 7.44616,-1.74343 11.20588,-2.51767c1.03969,-0.2141 1.95602,-1.05322 3,-1.23273c10.30413,-1.77181 21.29344,0.58759 31.5558,1.19889c1.74636,0.10403 3.51014,-0.23268 5.24511,0.03384c1.046,0.16069 1.9613,1.01144 3,1.23273c2.38973,0.50912 3.81396,-0.88449 6.324,0.09244c1.24094,0.48298 2.09686,1.94766 3.28692,2.59666c1.96353,1.07083 4.27273,0.5627 6.38907,1.00907c0.31311,0.06604 5.66581,2.29119 6.24121,2.5289c3.74637,0.93051 7.10362,0.41976 10.75879,1.16928c2.07961,0.42644 3.92072,2.03655 6,2.46545c5.78882,1.19409 12.69725,-0.03979 18.59954,-0.03979c3.66735,0 7.99238,0.78387 11.59954,0.03979c2.07928,-0.4289 3.92033,-2.03948 6,-2.46545c3.75658,-0.76944 8.18621,-0.05838 12,0c4.93535,-2.02798 22.60989,-3.57982 22.60989,-3.57982z" fill="url(#color-1)"/><path d="M1080.05694,352.58949l-540.24643,-1.09845c0,0 -3.65278,-140.77127 0.56346,-142.50375l1.23133,-0.06978c0.32504,-0.08836 0.55924,-0.08836 0.55924,-0.08836c6,0 12,0 18,0c3.19987,0 6.42531,0.53807 9.59954,0.03979c3.00303,-0.47139 6.00543,-1.87008 9,-2.46545c5.56489,-1.1064 11.52882,0.98905 17.095,-0.0167c1.35984,-0.24571 2.63379,-1.04835 4,-1.23273c4.36561,-0.58916 9.20806,-0.02361 13.61092,0c4.21148,1.27459 8.5402,2.998 12.85159,3.66711c8.89513,1.38048 18.17295,-1.16959 27.0893,0.02297c1.65953,0.22196 3.25479,0.94995 4.9107,1.20976c4.13584,0.64889 8.66277,0.00798 12.84295,0.00798c7.33333,0 14.66667,0 22,0c5.66667,0 11.33333,0 17,0c0.48002,0 6.14144,-0.0117 6.40046,0.03979c1.04064,0.2069 1.95706,1.04421 3,1.23273c7.119,1.28683 14.89192,-0.40918 22.001,1.23292c1.35517,0.31303 2.71424,0.81307 3.91287,1.653c0.70975,0.49734 0.88259,1.87154 1.64238,2.23978c0.85899,0.41632 1.89212,-0.46216 2.76775,-0.10235c1.216,0.49966 2.03398,2.00684 3.23225,2.5678c1.42508,0.66715 3.00402,0.64795 4.4933,1.0489c3.55045,0.95587 6.90344,2.39323 10.34056,3.80556c1.87339,0.76979 3.66224,1.94534 5.60989,2.3471c2.84967,0.58781 5.28544,-0.35076 7.95787,-1.16928c2.68509,-0.8224 5.50366,-0.73934 8.23348,-1.29461c3.3512,-0.68167 6.64105,-3.09296 10.00773,-3.69974c2.45202,-0.44193 5.12285,0.22685 7.38907,-1.00907c1.19006,-0.64902 2.04598,-2.11368 3.28692,-2.59666c1.66775,-0.6491 4.61918,0.20786 6.419,-0.10915c3.78893,-0.66736 7.19512,-3.02822 11,-3.69818c3.29657,-0.58045 6.97111,-0.02309 10.30546,-0.02309c8.37832,0 17.39369,1.17796 25.69454,0.02309c1.3657,-0.19 2.6388,-0.99873 4,-1.23273c5.92572,-1.01864 12.1623,0.57184 18.12824,-0.01534c4.36417,-0.42953 8.55196,-1.59751 12.78264,-2.43457c2.30191,-0.45544 4.68742,0.41813 6.99413,0.00117c1.04294,-0.18852 1.9565,-1.04896 3,-1.23273c2.59127,-0.45632 5.25784,-0.38255 7.79412,-1.18051c3.79179,-1.16856 7.44616,-1.74343 11.20588,-2.51767c1.03969,-0.2141 1.95602,-1.05322 3,-1.23273c10.30413,-1.77181 21.29344,0.58759 31.5558,1.19889c1.74636,0.10403 3.51014,-0.23268 5.24511,0.03384c1.046,0.16069 1.9613,1.01144 3,1.23273c2.38973,0.50912 3.81396,-0.88449 6.324,0.09244c1.24094,0.48298 2.09686,1.94766 3.28692,2.59666c1.96353,1.07083 4.27273,0.5627 6.38907,1.00907c0.31311,0.06604 5.66581,2.29119 6.24121,2.5289c3.74637,0.93051 7.10362,0.41976 10.75879,1.16928c2.07961,0.42644 3.92072,2.03655 6,2.46545c5.78882,1.19409 12.69725,-0.03979 18.59954,-0.03979c3.66735,0 7.99238,0.78387 11.59954,0.03979c2.07928,-0.4289 3.92033,-2.03948 6,-2.46545c3.75658,-0.76944 8.18621,-0.05838 12,0c4.93535,-2.02798 22.60989,-3.57982 22.60989,-3.57982z" fill="url(#color-2)"/></g></g></svg>