<svg version="1.1" xmlns="http://www.w3.org/2000/svg" xmlns:xlink="http://www.w3.org/1999/xlink" width="74.46667" height="84.09444" viewBox="0,0,74.46667,84.09444"><defs><linearGradient x1="223.5" y1="106.45833" x2="223.5" y2="145.25833" gradientUnits="userSpaceOnUse" id="color-1"><stop offset="0" stop-color="#95979c" stop-opacity="0.30066"/><stop offset="1" stop-color="#969697" stop-opacity="0.20388"/></linearGradient><linearGradient x1="223.5" y1="106.45833" x2="223.5" y2="145.25833" gradientUnits="userSpaceOnUse" id="color-2"><stop offset="0" stop-color="#131313"/><stop offset="1" stop-color="#080808"/></linearGradient><linearGradient x1="223.4" y1="139.40277" x2="223.4" y2="144.50277" gradientUnits="userSpaceOnUse" id="color-3"><stop offset="0" stop-color="#40a4ff" stop-opacity="0.74194"/><stop offset="1" stop-color="#245e96" stop-opacity="0.66129"/></linearGradient><linearGradient x1="223.4" y1="139.40277" x2="223.4" y2="144.50277" gradientUnits="userSpaceOnUse" id="color-4"><stop offset="0" stop-color="#000000" stop-opacity="0"/><stop offset="1" stop-color="#000000" stop-opacity="0"/></linearGradient><linearGradient x1="256.5" y1="106.45833" x2="256.5" y2="145.25833" gradientUnits="userSpaceOnUse" id="color-5"><stop offset="0" stop-color="#95979c" stop-opacity="0.30066"/><stop offset="1" stop-color="#969697" stop-opacity="0.20388"/></linearGradient><linearGradient x1="256.5" y1="106.45833" x2="256.5" y2="145.25833" gradientUnits="userSpaceOnUse" id="color-6"><stop offset="0" stop-color="#131313"/><stop offset="1" stop-color="#080808"/></linearGradient><linearGradient x1="256.4" y1="119.15991" x2="256.4" y2="144.50277" gradientUnits="userSpaceOnUse" id="color-7"><stop offset="0" stop-color="#9a69ff" stop-opacity="0.81452"/><stop offset="1" stop-color="#752496" stop-opacity="0.65995"/></linearGradient><linearGradient x1="256.4" y1="119.15991" x2="256.4" y2="144.50277" gradientUnits="userSpaceOnUse" id="color-8"><stop offset="0" stop-color="#000000" stop-opacity="0"/><stop offset="1" stop-color="#000000" stop-opacity="0"/></linearGradient><linearGradient x1="223.5" y1="145.45833" x2="223.5" y2="149.05833" gradientUnits="userSpaceOnUse" id="color-9"><stop offset="0" stop-color="#353538"/><stop offset="1" stop-color="#2e2d31"/></linearGradient><linearGradient x1="223.5" y1="145.45833" x2="223.5" y2="149.05833" gradientUnits="userSpaceOnUse" id="color-10"><stop offset="0" stop-color="#131313"/><stop offset="1" stop-color="#080808"/></linearGradient><linearGradient x1="256.5" y1="145.45833" x2="256.5" y2="149.05833" gradientUnits="userSpaceOnUse" id="color-11"><stop offset="0" stop-color="#353538"/><stop offset="1" stop-color="#2e2d31"/></linearGradient><linearGradient x1="256.5" y1="145.45833" x2="256.5" y2="149.05833" gradientUnits="userSpaceOnUse" id="color-12"><stop offset="0" stop-color="#131313"/><stop offset="1" stop-color="#080808"/></linearGradient><linearGradient x1="230.2" y1="96.70278" x2="230.2" y2="148.50278" gradientUnits="userSpaceOnUse" id="color-13"><stop offset="0" stop-color="#beffb5"/><stop offset="1" stop-color="#099219"/></linearGradient><linearGradient x1="249.6" y1="96.70278" x2="249.6" y2="148.50278" gradientUnits="userSpaceOnUse" id="color-14"><stop offset="0" stop-color="#ffdcb5"/><stop offset="1" stop-color="#d66400"/></linearGradient><linearGradient x1="223.3" y1="103.45833" x2="223.3" y2="106.25833" gradientUnits="userSpaceOnUse" id="color-15"><stop offset="0" stop-color="#3a3b3f"/><stop offset="1" stop-color="#29272a"/></linearGradient><linearGradient x1="223.3" y1="103.45833" x2="223.3" y2="106.25833" gradientUnits="userSpaceOnUse" id="color-16"><stop offset="0" stop-color="#131313"/><stop offset="1" stop-color="#080808"/></linearGradient><linearGradient x1="256.5" y1="103.45833" x2="256.5" y2="106.25833" gradientUnits="userSpaceOnUse" id="color-17"><stop offset="0" stop-color="#3a3b3f"/><stop offset="1" stop-color="#29272a"/></linearGradient><linearGradient x1="256.5" y1="103.45833" x2="256.5" y2="106.25833" gradientUnits="userSpaceOnUse" id="color-18"><stop offset="0" stop-color="#131313"/><stop offset="1" stop-color="#080808"/></linearGradient><linearGradient x1="240" y1="149.08056" x2="240" y2="175.08056" gradientUnits="userSpaceOnUse" id="color-19"><stop offset="0" stop-color="#393c42"/><stop offset="1" stop-color="#252126"/></linearGradient><linearGradient x1="240" y1="149.08056" x2="240" y2="175.08056" gradientUnits="userSpaceOnUse" id="color-20"><stop offset="0" stop-color="#131313"/><stop offset="1" stop-color="#080808"/></linearGradient><linearGradient x1="240" y1="151.01071" x2="240" y2="172.7504" gradientUnits="userSpaceOnUse" id="color-21"><stop offset="0" stop-color="#eaeff8"/><stop offset="1" stop-color="#bdbabe"/></linearGradient><linearGradient x1="240" y1="151.01071" x2="240" y2="172.7504" gradientUnits="userSpaceOnUse" id="color-22"><stop offset="0" stop-color="#131313"/><stop offset="1" stop-color="#080808"/></linearGradient><radialGradient cx="239.4" cy="156.68056" r="3.8" gradientUnits="userSpaceOnUse" id="color-23"><stop offset="0" stop-color="#f2d1a3"/><stop offset="1" stop-color="#a95f38"/></radialGradient><linearGradient x1="240" y1="153.88056" x2="240" y2="161.48056" gradientUnits="userSpaceOnUse" id="color-24"><stop offset="0" stop-color="#131313"/><stop offset="1" stop-color="#080808"/></linearGradient><radialGradient cx="242.07014" cy="157.19167" r="3.37014" gradientUnits="userSpaceOnUse" id="color-25"><stop offset="0" stop-color="#e8c189"/><stop offset="1" stop-color="#d68b62"/></radialGradient><linearGradient x1="242.95701" y1="156.19167" x2="242.95701" y2="159.19167" gradientUnits="userSpaceOnUse" id="color-26"><stop offset="0" stop-color="#131313"/><stop offset="1" stop-color="#080808"/></linearGradient><linearGradient x1="240" y1="175.13056" x2="240" y2="179.29722" gradientUnits="userSpaceOnUse" id="color-27"><stop offset="0" stop-color="#6a6d73"/><stop offset="1" stop-color="#504b51"/></linearGradient><linearGradient x1="240" y1="175.13056" x2="240" y2="179.29722" gradientUnits="userSpaceOnUse" id="color-28"><stop offset="0" stop-color="#131313"/><stop offset="1" stop-color="#080808"/></linearGradient></defs><g transform="translate(-202.76666,-95.95278)"><g data-paper-data="{&quot;isPaintingLayer&quot;:true}" fill-rule="nonzero" stroke-linejoin="miter" stroke-miterlimit="10" stroke-dasharray="" stroke-dashoffset="0" style="mix-blend-mode: normal"><path d="M212.8,145.25833v-38.8h21.4v38.8z" data-paper-data="{&quot;index&quot;:null}" fill="url(#color-1)" stroke="url(#color-2)" stroke-width="1.5" stroke-linecap="butt"/><path d="M213.4,144.50277v-5.1h20v5.1z" data-paper-data="{&quot;index&quot;:null}" fill="url(#color-3)" stroke="url(#color-4)" stroke-width="0" stroke-linecap="butt"/><path d="M245.8,145.25833v-38.8h21.4v38.8z" data-paper-data="{&quot;index&quot;:null}" fill="url(#color-5)" stroke="url(#color-6)" stroke-width="1.5" stroke-linecap="butt"/><path d="M246.4,144.50277v-25.34286h20v25.34286z" data-paper-data="{&quot;index&quot;:null}" fill="url(#color-7)" stroke="url(#color-8)" stroke-width="0" stroke-linecap="butt"/><path d="M209.3,149.05833v-3.6h28.4v3.6z" data-paper-data="{&quot;index&quot;:null}" fill="url(#color-9)" stroke="url(#color-10)" stroke-width="1.5" stroke-linecap="butt"/><path d="M242.3,149.05833v-3.6h28.4v3.6z" data-paper-data="{&quot;index&quot;:null}" fill="url(#color-11)" stroke="url(#color-12)" stroke-width="1.5" stroke-linecap="butt"/><path d="M223,103.10278v-6.4h14.19429l0.20571,51.8" data-paper-data="{&quot;index&quot;:null}" fill="none" stroke="url(#color-13)" stroke-width="1.5" stroke-linecap="round"/><path d="M242.4,148.50278l0.20571,-51.8h14.19429v6.4" data-paper-data="{&quot;index&quot;:null}" fill="none" stroke="url(#color-14)" stroke-width="1.5" stroke-linecap="round"/><path d="M211.5,106.25833v-2.8h23.6v2.8z" data-paper-data="{&quot;index&quot;:null}" fill="url(#color-15)" stroke="url(#color-16)" stroke-width="1.5" stroke-linecap="butt"/><path d="M244.7,106.25833v-2.8h23.6v2.8z" data-paper-data="{&quot;index&quot;:null}" fill="url(#color-17)" stroke="url(#color-18)" stroke-width="1.5" stroke-linecap="butt"/><path d="M205.1,175.08056v-26h69.8v26z" fill="url(#color-19)" stroke="url(#color-20)" stroke-width="1.5" stroke-linecap="butt"/><path d="M250.7,161.88056c0,6.00325 -4.79055,10.86984 -10.7,10.86984c-5.90945,0 -10.7,-4.86659 -10.7,-10.86984c0,-6.00325 4.79055,-10.86984 10.7,-10.86984c5.90945,0 10.7,4.86659 10.7,10.86984z" fill="url(#color-21)" stroke="url(#color-22)" stroke-width="1.5" stroke-linecap="butt"/><path d="M243.8,157.68056c0,2.09868 -1.70132,3.8 -3.8,3.8c-2.09868,0 -3.8,-1.70132 -3.8,-3.8c0,-2.09868 1.70132,-3.8 3.8,-3.8c2.09868,0 3.8,1.70132 3.8,3.8z" fill="url(#color-23)" stroke="url(#color-24)" stroke-width="1" stroke-linecap="butt"/><path d="M239.58688,159.19167c0,0 -0.88688,-1.04664 -0.88688,-1.55556c0,-0.4904 0.88688,-1.44444 0.88688,-1.44444h6.74027c0,0 1.08396,1.08634 1.08396,1.55556c0,0.5246 -1.08396,1.44444 -1.08396,1.44444z" fill="url(#color-25)" stroke="url(#color-26)" stroke-width="0.75" stroke-linecap="butt"/><path d="M203.51667,179.29722v-4.16667h72.96667v4.16667z" fill="url(#color-27)" stroke="url(#color-28)" stroke-width="1.5" stroke-linecap="butt"/></g></g></svg>