<svg version="1.1" xmlns="http://www.w3.org/2000/svg" xmlns:xlink="http://www.w3.org/1999/xlink" width="59" height="59.70662" viewBox="0,0,59,59.70662"><defs><linearGradient x1="240" y1="151.64671" x2="240" y2="208.35333" gradientUnits="userSpaceOnUse" id="color-1"><stop offset="0" stop-color="#191919"/><stop offset="1" stop-color="#050505"/></linearGradient><linearGradient x1="240" y1="151.64671" x2="240" y2="208.35333" gradientUnits="userSpaceOnUse" id="color-2"><stop offset="0" stop-color="#cccccc"/><stop offset="1" stop-color="#898989"/></linearGradient><radialGradient cx="240" cy="180.00002" r="26.8571" gradientUnits="userSpaceOnUse" id="color-3"><stop offset="0" stop-color="#ffffff" stop-opacity="0.35484"/><stop offset="1" stop-color="#ffffff" stop-opacity="0"/></radialGradient><linearGradient x1="240" y1="153.29213" x2="240" y2="206.70791" gradientUnits="userSpaceOnUse" id="color-4"><stop offset="0" stop-color="#cccccc"/><stop offset="1" stop-color="#898989"/></linearGradient><linearGradient x1="242.37597" y1="197.63182" x2="243.29458" y2="197.63182" gradientUnits="userSpaceOnUse" id="color-5"><stop offset="0" stop-color="#525252"/><stop offset="1" stop-color="#363636"/></linearGradient><linearGradient x1="242.37597" y1="197.63182" x2="243.29458" y2="197.63182" gradientUnits="userSpaceOnUse" id="color-6"><stop offset="0" stop-color="#1f1f1f"/><stop offset="1" stop-color="#000000"/></linearGradient><linearGradient x1="236.92545" y1="196.38941" x2="237.71363" y2="196.49776" gradientUnits="userSpaceOnUse" id="color-7"><stop offset="0" stop-color="#525252"/><stop offset="1" stop-color="#2e2e2e"/></linearGradient><linearGradient x1="236.92545" y1="196.38941" x2="237.71363" y2="196.49776" gradientUnits="userSpaceOnUse" id="color-8"><stop offset="0" stop-color="#1f1f1f"/><stop offset="1" stop-color="#000000"/></linearGradient><linearGradient x1="234.19529" y1="198.74179" x2="245.53114" y2="198.74179" gradientUnits="userSpaceOnUse" id="color-9"><stop offset="0" stop-color="#b8b8b8"/><stop offset="1" stop-color="#4a4a4a"/></linearGradient><linearGradient x1="234.19529" y1="198.74179" x2="245.53114" y2="198.74179" gradientUnits="userSpaceOnUse" id="color-10"><stop offset="0" stop-color="#1f1f1f"/><stop offset="1" stop-color="#000000"/></linearGradient><linearGradient x1="238.07439" y1="195.62971" x2="241.67817" y2="195.62971" gradientUnits="userSpaceOnUse" id="color-11"><stop offset="0" stop-color="#5d5d5d"/><stop offset="1" stop-color="#232323"/></linearGradient><linearGradient x1="236.90845" y1="197.93871" x2="242.70279" y2="197.93871" gradientUnits="userSpaceOnUse" id="color-12"><stop offset="0" stop-color="#5d5d5d"/><stop offset="1" stop-color="#232323"/></linearGradient><linearGradient x1="235.93038" y1="200.48769" x2="243.7093" y2="200.48769" gradientUnits="userSpaceOnUse" id="color-13"><stop offset="0" stop-color="#5d5d5d"/><stop offset="1" stop-color="#232323"/></linearGradient><linearGradient x1="234.89456" y1="203.02642" x2="244.78734" y2="203.02642" gradientUnits="userSpaceOnUse" id="color-14"><stop offset="0" stop-color="#5d5d5d"/><stop offset="1" stop-color="#232323"/></linearGradient><linearGradient x1="241.97732" y1="194.61999" x2="243.71571" y2="194.61999" gradientUnits="userSpaceOnUse" id="color-15"><stop offset="0" stop-color="#aaaaaa"/><stop offset="1" stop-color="#4e4e4e"/></linearGradient><linearGradient x1="241.97732" y1="194.61999" x2="243.71571" y2="194.61999" gradientUnits="userSpaceOnUse" id="color-16"><stop offset="0" stop-color="#1f1f1f"/><stop offset="1" stop-color="#000000"/></linearGradient><linearGradient x1="243.72075" y1="194.61999" x2="245.45914" y2="194.61999" gradientUnits="userSpaceOnUse" id="color-17"><stop offset="0" stop-color="#aaaaaa"/><stop offset="1" stop-color="#4e4e4e"/></linearGradient><linearGradient x1="243.72075" y1="194.61999" x2="245.45914" y2="194.61999" gradientUnits="userSpaceOnUse" id="color-18"><stop offset="0" stop-color="#1f1f1f"/><stop offset="1" stop-color="#000000"/></linearGradient><linearGradient x1="244.14253" y1="197.67598" x2="245.06115" y2="197.67598" gradientUnits="userSpaceOnUse" id="color-19"><stop offset="0" stop-color="#525252"/><stop offset="1" stop-color="#363636"/></linearGradient><linearGradient x1="244.14253" y1="197.67598" x2="245.06115" y2="197.67598" gradientUnits="userSpaceOnUse" id="color-20"><stop offset="0" stop-color="#1f1f1f"/><stop offset="1" stop-color="#000000"/></linearGradient><linearGradient x1="234.28952" y1="193.68943" x2="245.59553" y2="193.68943" gradientUnits="userSpaceOnUse" id="color-21"><stop offset="0" stop-color="#525252"/><stop offset="1" stop-color="#2e2e2e"/></linearGradient><linearGradient x1="234.28952" y1="193.68943" x2="245.59553" y2="193.68943" gradientUnits="userSpaceOnUse" id="color-22"><stop offset="0" stop-color="#1f1f1f"/><stop offset="1" stop-color="#000000"/></linearGradient><linearGradient x1="245.58632" y1="188.25746" x2="251.2051" y2="188.25746" gradientUnits="userSpaceOnUse" id="color-23"><stop offset="0" stop-color="#353535"/><stop offset="1" stop-color="#1f1f1f"/></linearGradient><linearGradient x1="245.58632" y1="188.45049" x2="249.42949" y2="188.45049" gradientUnits="userSpaceOnUse" id="color-24"><stop offset="0" stop-color="#272727"/><stop offset="1" stop-color="#000000"/></linearGradient><linearGradient x1="234.41368" y1="188.19857" x2="228.7949" y2="188.19857" gradientUnits="userSpaceOnUse" id="color-25"><stop offset="0" stop-color="#6b6b6b"/><stop offset="1" stop-color="#838383"/></linearGradient><linearGradient x1="230.57052" y1="188.39161" x2="234.41368" y2="188.39161" gradientUnits="userSpaceOnUse" id="color-26"><stop offset="0" stop-color="#272727"/><stop offset="1" stop-color="#000000"/></linearGradient><linearGradient x1="234.39807" y1="183.7102" x2="245.59977" y2="183.7102" gradientUnits="userSpaceOnUse" id="color-27"><stop offset="0" stop-color="#646464"/><stop offset="1" stop-color="#222222"/></linearGradient><linearGradient x1="234.39807" y1="183.7102" x2="245.59977" y2="183.7102" gradientUnits="userSpaceOnUse" id="color-28"><stop offset="0" stop-color="#272727"/><stop offset="1" stop-color="#000000"/></linearGradient><linearGradient x1="240.39933" y1="184.183" x2="244.79304" y2="184.183" gradientUnits="userSpaceOnUse" id="color-29"><stop offset="0" stop-color="#4a382c"/><stop offset="1" stop-color="#301f1b"/></linearGradient><linearGradient x1="240.39933" y1="184.183" x2="244.79304" y2="184.183" gradientUnits="userSpaceOnUse" id="color-30"><stop offset="0" stop-color="#351c12"/><stop offset="1" stop-color="#1a1310"/></linearGradient><linearGradient x1="240.38752" y1="184.18467" x2="244.77106" y2="184.18467" gradientUnits="userSpaceOnUse" id="color-31"><stop offset="0" stop-color="#351c12"/><stop offset="1" stop-color="#1a1310"/></linearGradient><linearGradient x1="240.38752" y1="184.15129" x2="244.77106" y2="184.15129" gradientUnits="userSpaceOnUse" id="color-32"><stop offset="0" stop-color="#351c12"/><stop offset="1" stop-color="#1a1310"/></linearGradient><linearGradient x1="235.14798" y1="184.20526" x2="239.54169" y2="184.20526" gradientUnits="userSpaceOnUse" id="color-33"><stop offset="0" stop-color="#4a382c"/><stop offset="1" stop-color="#301f1b"/></linearGradient><linearGradient x1="235.14798" y1="184.20526" x2="239.54169" y2="184.20526" gradientUnits="userSpaceOnUse" id="color-34"><stop offset="0" stop-color="#351c12"/><stop offset="1" stop-color="#1a1310"/></linearGradient><linearGradient x1="235.13617" y1="184.20691" x2="239.51971" y2="184.20691" gradientUnits="userSpaceOnUse" id="color-35"><stop offset="0" stop-color="#351c12"/><stop offset="1" stop-color="#1a1310"/></linearGradient><linearGradient x1="235.13617" y1="184.17354" x2="239.51971" y2="184.17354" gradientUnits="userSpaceOnUse" id="color-36"><stop offset="0" stop-color="#351c12"/><stop offset="1" stop-color="#1a1310"/></linearGradient><linearGradient x1="240.39933" y1="189.48271" x2="244.79304" y2="189.48271" gradientUnits="userSpaceOnUse" id="color-37"><stop offset="0" stop-color="#4a382c"/><stop offset="1" stop-color="#301f1b"/></linearGradient><linearGradient x1="240.39933" y1="189.48271" x2="244.79304" y2="189.48271" gradientUnits="userSpaceOnUse" id="color-38"><stop offset="0" stop-color="#351c12"/><stop offset="1" stop-color="#1a1310"/></linearGradient><linearGradient x1="240.38752" y1="189.48437" x2="244.77106" y2="189.48437" gradientUnits="userSpaceOnUse" id="color-39"><stop offset="0" stop-color="#351c12"/><stop offset="1" stop-color="#1a1310"/></linearGradient><linearGradient x1="240.38752" y1="189.45098" x2="244.77106" y2="189.45098" gradientUnits="userSpaceOnUse" id="color-40"><stop offset="0" stop-color="#351c12"/><stop offset="1" stop-color="#1a1310"/></linearGradient><linearGradient x1="235.14798" y1="189.50496" x2="239.54169" y2="189.50496" gradientUnits="userSpaceOnUse" id="color-41"><stop offset="0" stop-color="#4a382c"/><stop offset="1" stop-color="#301f1b"/></linearGradient><linearGradient x1="235.14798" y1="189.50496" x2="239.54169" y2="189.50496" gradientUnits="userSpaceOnUse" id="color-42"><stop offset="0" stop-color="#351c12"/><stop offset="1" stop-color="#1a1310"/></linearGradient><linearGradient x1="235.13617" y1="189.50662" x2="239.51971" y2="189.50662" gradientUnits="userSpaceOnUse" id="color-43"><stop offset="0" stop-color="#351c12"/><stop offset="1" stop-color="#1a1310"/></linearGradient><linearGradient x1="235.13617" y1="189.47324" x2="239.51971" y2="189.47324" gradientUnits="userSpaceOnUse" id="color-44"><stop offset="0" stop-color="#351c12"/><stop offset="1" stop-color="#1a1310"/></linearGradient><linearGradient x1="234.96523" y1="178.15247" x2="244.96398" y2="178.15247" gradientUnits="userSpaceOnUse" id="color-45"><stop offset="0" stop-color="#515151"/><stop offset="1" stop-color="#131313"/></linearGradient><linearGradient x1="234.96523" y1="178.15247" x2="244.96398" y2="178.15247" gradientUnits="userSpaceOnUse" id="color-46"><stop offset="0" stop-color="#272727"/><stop offset="1" stop-color="#000000"/></linearGradient><linearGradient x1="235.486" y1="175.97682" x2="244.37378" y2="175.97682" gradientUnits="userSpaceOnUse" id="color-47"><stop offset="0" stop-color="#272727"/><stop offset="1" stop-color="#000000"/></linearGradient><linearGradient x1="235.52071" y1="180.36038" x2="244.26962" y2="180.36038" gradientUnits="userSpaceOnUse" id="color-48"><stop offset="0" stop-color="#272727"/><stop offset="1" stop-color="#000000"/></linearGradient><linearGradient x1="234.29669" y1="161.55265" x2="245.63252" y2="161.55265" gradientUnits="userSpaceOnUse" id="color-49"><stop offset="0" stop-color="#c9c9c9"/><stop offset="1" stop-color="#3e3e3e"/></linearGradient><linearGradient x1="234.29669" y1="161.55265" x2="245.63252" y2="161.55265" gradientUnits="userSpaceOnUse" id="color-50"><stop offset="0" stop-color="#272727"/><stop offset="1" stop-color="#000000"/></linearGradient><linearGradient x1="237.54728" y1="157.8848" x2="242.3634" y2="157.8848" gradientUnits="userSpaceOnUse" id="color-51"><stop offset="0" stop-color="#8c8c8c"/><stop offset="1" stop-color="#222222"/></linearGradient><linearGradient x1="237.54728" y1="157.8848" x2="242.3634" y2="157.8848" gradientUnits="userSpaceOnUse" id="color-52"><stop offset="0" stop-color="#272727"/><stop offset="1" stop-color="#000000"/></linearGradient><linearGradient x1="237.65316" y1="157.28331" x2="242.21717" y2="157.28331" gradientUnits="userSpaceOnUse" id="color-53"><stop offset="0" stop-color="#ffffff"/><stop offset="1" stop-color="#606060"/></linearGradient><linearGradient x1="237.65316" y1="157.28333" x2="242.21717" y2="157.28333" gradientUnits="userSpaceOnUse" id="color-54"><stop offset="0" stop-color="#272727"/><stop offset="1" stop-color="#000000"/></linearGradient><radialGradient cx="239.42754" cy="161.57582" r="2.11461" gradientUnits="userSpaceOnUse" id="color-55"><stop offset="0" stop-color="#9cd7f7"/><stop offset="1" stop-color="#0087f6"/></radialGradient><linearGradient x1="237.85" y1="162.70091" x2="242.07921" y2="162.70091" gradientUnits="userSpaceOnUse" id="color-56"><stop offset="0" stop-color="#272727"/><stop offset="1" stop-color="#000000"/></linearGradient><linearGradient x1="237.96839" y1="165.88073" x2="241.96083" y2="165.88073" gradientUnits="userSpaceOnUse" id="color-57"><stop offset="0" stop-color="#272727"/><stop offset="1" stop-color="#000000"/></linearGradient><linearGradient x1="237.96839" y1="165.35077" x2="241.96083" y2="165.35077" gradientUnits="userSpaceOnUse" id="color-58"><stop offset="0" stop-color="#272727"/><stop offset="1" stop-color="#000000"/></linearGradient><linearGradient x1="237.96839" y1="166.4107" x2="241.96083" y2="166.4107" gradientUnits="userSpaceOnUse" id="color-59"><stop offset="0" stop-color="#272727"/><stop offset="1" stop-color="#000000"/></linearGradient><linearGradient x1="234.36376" y1="170.9449" x2="245.56546" y2="170.9449" gradientUnits="userSpaceOnUse" id="color-60"><stop offset="0" stop-color="#303030"/><stop offset="1" stop-color="#171717"/></linearGradient><linearGradient x1="234.36376" y1="170.9449" x2="245.56546" y2="170.9449" gradientUnits="userSpaceOnUse" id="color-61"><stop offset="0" stop-color="#272727"/><stop offset="1" stop-color="#000000"/></linearGradient><radialGradient cx="239.96461" cy="170.9449" r="4.64701" gradientUnits="userSpaceOnUse" id="color-62"><stop offset="0" stop-color="#734c45" stop-opacity="0.40995"/><stop offset="1" stop-color="#734c45" stop-opacity="0"/></radialGradient><radialGradient cx="239.96461" cy="170.92838" r="3.7727" gradientUnits="userSpaceOnUse" id="color-63"><stop offset="0" stop-color="#eb8c73" stop-opacity="0.60996"/><stop offset="1" stop-color="#eb8c73" stop-opacity="0"/></radialGradient><radialGradient cx="239.96461" cy="170.92838" r="3.19391" gradientUnits="userSpaceOnUse" id="color-64"><stop offset="0" stop-color="#ff734f" stop-opacity="0"/><stop offset="1" stop-color="#ff734f" stop-opacity="0.08997"/></radialGradient><radialGradient cx="239.96461" cy="170.92838" r="2.62636" gradientUnits="userSpaceOnUse" id="color-65"><stop offset="0" stop-color="#ffa282" stop-opacity="0.11996"/><stop offset="1" stop-color="#ffab8f"/></radialGradient><linearGradient x1="234.52138" y1="170.93754" x2="235.27217" y2="170.93754" gradientUnits="userSpaceOnUse" id="color-66"><stop offset="0" stop-color="#9d9d9d"/><stop offset="1" stop-color="#4c4c4c"/></linearGradient><linearGradient x1="234.52138" y1="170.93754" x2="235.27217" y2="170.93754" gradientUnits="userSpaceOnUse" id="color-67"><stop offset="0" stop-color="#272727"/><stop offset="1" stop-color="#000000"/></linearGradient><linearGradient x1="244.67913" y1="170.93754" x2="245.42992" y2="170.93754" gradientUnits="userSpaceOnUse" id="color-68"><stop offset="0" stop-color="#9d9d9d"/><stop offset="1" stop-color="#4c4c4c"/></linearGradient><linearGradient x1="244.67913" y1="170.93754" x2="245.42992" y2="170.93754" gradientUnits="userSpaceOnUse" id="color-69"><stop offset="0" stop-color="#272727"/><stop offset="1" stop-color="#000000"/></linearGradient><linearGradient x1="234.50087" y1="172.32633" x2="245.42835" y2="172.32633" gradientUnits="userSpaceOnUse" id="color-70"><stop offset="0" stop-color="#272727"/><stop offset="1" stop-color="#000000"/></linearGradient><linearGradient x1="234.50087" y1="172.3395" x2="245.42835" y2="172.3395" gradientUnits="userSpaceOnUse" id="color-71"><stop offset="0" stop-color="#272727"/><stop offset="1" stop-color="#000000"/></linearGradient><linearGradient x1="234.52611" y1="169.42412" x2="245.45357" y2="169.42412" gradientUnits="userSpaceOnUse" id="color-72"><stop offset="0" stop-color="#272727"/><stop offset="1" stop-color="#000000"/></linearGradient><linearGradient x1="234.52611" y1="169.43728" x2="245.45357" y2="169.43728" gradientUnits="userSpaceOnUse" id="color-73"><stop offset="0" stop-color="#272727"/><stop offset="1" stop-color="#000000"/></linearGradient><linearGradient x1="234.39281" y1="174.18397" x2="245.43385" y2="174.18397" gradientUnits="userSpaceOnUse" id="color-74"><stop offset="0" stop-color="#c7a895"/><stop offset="1" stop-color="#322c27"/></linearGradient><linearGradient x1="234.39281" y1="174.18397" x2="245.43385" y2="174.18397" gradientUnits="userSpaceOnUse" id="color-75"><stop offset="0" stop-color="#272727"/><stop offset="1" stop-color="#000000"/></linearGradient><linearGradient x1="234.44329" y1="167.72337" x2="245.48432" y2="167.72337" gradientUnits="userSpaceOnUse" id="color-76"><stop offset="0" stop-color="#c7a895"/><stop offset="1" stop-color="#322c27"/></linearGradient><linearGradient x1="234.44329" y1="167.72337" x2="245.48432" y2="167.72337" gradientUnits="userSpaceOnUse" id="color-77"><stop offset="0" stop-color="#272727"/><stop offset="1" stop-color="#000000"/></linearGradient></defs><g transform="translate(-210.5,-150.1467)"><g data-paper-data="{&quot;isPaintingLayer&quot;:true}" fill-rule="nonzero" stroke-linejoin="miter" stroke-miterlimit="10" stroke-dasharray="" stroke-dashoffset="0" style="mix-blend-mode: normal"><path d="M212,208.35333v-56.70662h56v56.70662z" fill="url(#color-1)" stroke="url(#color-2)" stroke-width="3" stroke-linecap="butt"/><path d="M266.8571,180.00002c0,14.75036 -12.02433,26.70789 -26.8571,26.70789c-14.83277,0 -26.8571,-11.95753 -26.8571,-26.70789c0,-14.75036 12.02433,-26.70789 26.8571,-26.70789c14.83277,0 26.8571,11.95753 26.8571,26.70789z" fill="url(#color-3)" stroke="url(#color-4)" stroke-width="0" stroke-linecap="butt"/><g stroke-width="0.375"><path d="M242.37597,199.15107v-3.0385h0.91862v3.0385z" fill="url(#color-5)" stroke="url(#color-6)" stroke-linecap="butt"/><path d="M236.47008,199.70188l0.11874,-6.1759l1.96318,-0.44707l-1.29375,6.73131z" fill="url(#color-7)" stroke="url(#color-8)" stroke-linecap="butt"/><path d="M234.19529,204.40994c0,0 4.23274,-11.41898 5.6687,-11.33585c1.6427,0.09509 5.66715,11.33585 5.66715,11.33585z" fill="url(#color-9)" stroke="url(#color-10)" stroke-linecap="butt"/><path d="M238.07439,195.62971h3.60379" fill="none" stroke="url(#color-11)" stroke-linecap="round"/><path d="M236.90845,197.93871h5.79433" fill="none" stroke="url(#color-12)" stroke-linecap="round"/><path d="M243.7093,200.48769h-7.77892" fill="none" stroke="url(#color-13)" stroke-linecap="round"/><path d="M234.89456,203.02642h9.89277" fill="none" stroke="url(#color-14)" stroke-linecap="round"/><path d="M243.71571,194.61999c-0.00651,1.34587 -0.0271,1.48986 -0.8692,1.4756c-0.84237,-0.01426 -0.87965,-0.19663 -0.8692,-1.4756c0.01154,-1.41206 0.00908,-1.51021 0.8692,-1.4756c0.82411,0.03316 0.87634,-0.00229 0.8692,1.4756z" fill="url(#color-15)" stroke="url(#color-16)" stroke-linecap="butt"/><path d="M245.45914,194.61999c-0.00651,1.34587 -0.0271,1.48986 -0.8692,1.4756c-0.84237,-0.01426 -0.87965,-0.19663 -0.8692,-1.4756c0.01154,-1.41206 0.00908,-1.51021 0.8692,-1.4756c0.82411,0.03316 0.87634,-0.00229 0.8692,1.4756z" fill="url(#color-17)" stroke="url(#color-18)" stroke-linecap="butt"/><path d="M243.34758,198.62109c0,0 0.79495,-0.20019 0.79495,-0.64773c0,-0.5457 0,-1.81663 0,-1.81663h0.91862c0,0 0,1.19202 0,1.7283c0,0.20053 -0.17234,0.62397 -0.46977,0.94109c-0.39513,0.42127 -0.94348,0.72243 -0.94348,0.72243z" fill="url(#color-19)" stroke="url(#color-20)" stroke-linecap="butt"/><path d="M234.28952,192.9828h11.30602c0,0 -0.02552,0.69614 -0.17433,0.94677c-0.12763,0.21496 -0.66479,0.46648 -0.66479,0.46648h-9.71612c0,0 -0.4095,-0.26685 -0.51931,-0.47353c-0.13516,-0.25441 -0.23149,-0.93973 -0.23149,-0.93973z" fill="url(#color-21)" stroke="url(#color-22)" stroke-linecap="butt"/></g><path d="M245.58632,192.86688v-11.45649c0,0 1.44172,7.69049 1.94578,9.5473c0.39881,1.46907 1.89738,4.53289 1.89738,4.53289z" fill="url(#color-23)" stroke="url(#color-24)" stroke-width="0.375" stroke-linecap="butt"/><path d="M230.57052,195.4317c0,0 1.49859,-3.06381 1.89738,-4.53288c0.50406,-1.85682 1.94577,-9.5473 1.94577,-9.5473v11.45648z" data-paper-data="{&quot;index&quot;:null}" fill="url(#color-25)" stroke="url(#color-26)" stroke-width="0.375" stroke-linecap="butt"/><path d="M234.39807,192.89963v-18.37883h11.2017v18.37883z" fill="url(#color-27)" stroke="url(#color-28)" stroke-width="0.375" stroke-linecap="butt"/><g stroke-width="0.375"><path d="M240.39933,186.47025v-4.57449h4.39371v4.57449z" fill="url(#color-29)" stroke="url(#color-30)" stroke-linecap="butt"/><path d="M240.38752,186.40981l4.38354,-4.45029" fill="none" stroke="url(#color-31)" stroke-linecap="round"/><path d="M244.77106,186.43207l-4.33904,-4.51704" fill="none" stroke="url(#color-32)" stroke-linecap="round"/></g><g stroke-width="0.375"><path d="M235.14798,186.49251v-4.5745h4.39371v4.5745z" fill="url(#color-33)" stroke="url(#color-34)" stroke-linecap="butt"/><path d="M235.13617,186.43207l4.38354,-4.45029" fill="none" stroke="url(#color-35)" stroke-linecap="round"/><path d="M235.18067,181.93728l4.33904,4.51704" fill="none" stroke="url(#color-36)" stroke-linecap="round"/></g><g stroke-width="0.375"><path d="M240.39933,191.76996v-4.5745h4.39371v4.5745z" fill="url(#color-37)" stroke="url(#color-38)" stroke-linecap="butt"/><path d="M244.77106,187.25922l-4.38354,4.45029" fill="none" stroke="url(#color-39)" stroke-linecap="round"/><path d="M244.77106,191.73176l-4.33904,-4.51704" fill="none" stroke="url(#color-40)" stroke-linecap="round"/></g><g stroke-width="0.375"><path d="M235.14798,191.79221v-4.57449h4.39371v4.57449z" fill="url(#color-41)" stroke="url(#color-42)" stroke-linecap="butt"/><path d="M239.51971,187.28147l-4.38354,4.45029" fill="none" stroke="url(#color-43)" stroke-linecap="round"/><path d="M239.51971,191.75401l-4.33904,-4.51704" fill="none" stroke="url(#color-44)" stroke-linecap="round"/></g><g stroke-width="0.375"><path d="M234.96523,180.90832v-5.51168h9.99875v5.51169z" fill="url(#color-45)" stroke="url(#color-46)" stroke-linecap="butt"/><path d="M235.486,175.97682h8.88779" fill="none" stroke="url(#color-47)" stroke-linecap="round"/><path d="M244.26962,180.36038h-8.74891" fill="none" stroke="url(#color-48)" stroke-linecap="round"/></g><path d="M234.29669,167.2208c0,0 4.17386,-11.41898 5.60981,-11.33585c1.6427,0.09509 5.72603,11.33585 5.72603,11.33585z" fill="url(#color-49)" stroke="url(#color-50)" stroke-width="0.375" stroke-linecap="butt"/><path d="M237.59231,159.50695l0.19537,-0.43559l4.33814,-0.01214l0.19255,0.44772z" fill="url(#color-51)" stroke="url(#color-52)" stroke-width="0.375" stroke-linecap="butt"/><path d="M237.65316,158.97655c0,0 1.68046,-3.41117 2.25861,-3.38635c0.66138,0.02841 2.30541,3.38635 2.30541,3.38635z" fill="url(#color-53)" stroke="url(#color-54)" stroke-width="0.375" stroke-linecap="butt"/><path d="M242.07921,162.70091c0,1.14453 -0.94673,2.07236 -2.11461,2.07236c-1.16787,0 -2.11461,-0.92783 -2.11461,-2.07236c0,-1.14453 0.94674,-2.07235 2.11461,-2.07235c1.16787,0 2.11461,0.92782 2.11461,2.07235z" fill="url(#color-55)" stroke="url(#color-56)" stroke-width="0.375" stroke-linecap="butt"/><path d="M237.96839,165.88073h3.99244" fill="none" stroke="url(#color-57)" stroke-width="0.375" stroke-linecap="round"/><path d="M237.96839,165.35077h3.99244" fill="none" stroke="url(#color-58)" stroke-width="0.375" stroke-linecap="round"/><path d="M241.96083,166.4107h-3.99244" fill="none" stroke="url(#color-59)" stroke-width="0.375" stroke-linecap="round"/><g stroke-width="0.375"><path d="M234.36376,174.61381v-7.33779h11.2017v7.3378z" fill="url(#color-60)" stroke="url(#color-61)" stroke-linecap="butt"/><path d="M235.3176,170.9449c0,-2.56646 2.08054,-4.64702 4.64701,-4.64702c2.56646,0 4.64701,2.08055 4.64701,4.64702c0,2.56646 -2.08054,4.64701 -4.64701,4.64701c-2.56646,0 -4.64701,-2.08054 -4.64701,-4.64701z" fill="url(#color-62)" stroke="none" stroke-linecap="butt"/><path d="M236.19191,170.92838c0,-2.08359 1.6891,-3.7727 3.77269,-3.7727c2.08359,0 3.7727,1.6891 3.7727,3.7727c0,2.08359 -1.6891,3.77269 -3.7727,3.77269c-2.08359,0 -3.77269,-1.6891 -3.77269,-3.77269z" fill="url(#color-63)" stroke="none" stroke-linecap="butt"/><path d="M236.77071,170.92838c0,-1.76394 1.42995,-3.1939 3.1939,-3.1939c1.76394,0 3.19391,1.42995 3.19391,3.1939c0,1.76394 -1.42996,3.1939 -3.19391,3.1939c-1.76394,0 -3.1939,-1.42995 -3.1939,-3.1939z" fill="url(#color-64)" stroke="none" stroke-linecap="butt"/><path d="M237.33825,170.92838c0,-1.45049 1.17586,-2.62636 2.62636,-2.62636c1.45049,0 2.62636,1.17586 2.62636,2.62636c0,1.45049 -1.17586,2.62636 -2.62636,2.62636c-1.45049,0 -2.62636,-1.17586 -2.62636,-2.62636z" fill="url(#color-65)" stroke="none" stroke-linecap="butt"/><path d="M234.52138,173.80821v-5.74134h0.75079v5.74134z" fill="url(#color-66)" stroke="url(#color-67)" stroke-linecap="butt"/><path d="M244.67913,173.80821v-5.74134h0.75079v5.74134z" fill="url(#color-68)" stroke="url(#color-69)" stroke-linecap="butt"/><path d="M234.50087,173.83395l0.60568,-3.01523l0.58044,3.01523l0.78234,-2.9889l0.78234,2.97574l1.36277,-2.97574l1.3123,2.9889l1.16089,-2.97573l1.31231,2.96256l0.88329,-2.96256l0.95899,2.9889l0.60568,-2.97573l0.58044,2.9494" fill="none" stroke="url(#color-70)" stroke-linecap="round"/><path d="M245.42835,170.84505l-0.58044,2.9494l-0.60568,-2.97573l-0.95899,2.9889l-0.88329,-2.96256l-1.31231,2.96256l-1.16089,-2.97573l-1.3123,2.9889l-1.36277,-2.97574l-0.78234,2.97574l-0.78234,-2.9889l-0.58044,3.01523l-0.60568,-3.01523" data-paper-data="{&quot;index&quot;:null}" fill="none" stroke="url(#color-71)" stroke-linecap="round"/><path d="M234.52611,170.93173l0.60568,-3.01523l0.58044,3.01523l0.78234,-2.9889l0.78234,2.97574l1.36277,-2.97574l1.31231,2.9889l1.16088,-2.97573l1.31231,2.96257l0.88328,-2.96257l0.95899,2.9889l0.60568,-2.97574l0.58044,2.9494" fill="none" stroke="url(#color-72)" stroke-linecap="round"/><path d="M245.45357,167.94283l-0.58044,2.9494l-0.60568,-2.97573l-0.95899,2.9889l-0.88329,-2.96256l-1.31231,2.96256l-1.16089,-2.97574l-1.3123,2.9889l-1.36278,-2.97573l-0.78234,2.97573l-0.78234,-2.9889l-0.58044,3.01524l-0.60568,-3.01524" data-paper-data="{&quot;index&quot;:null}" fill="none" stroke="url(#color-73)" stroke-linecap="round"/><path d="M234.39281,174.50784v-0.64774h11.04104v0.64774z" fill="url(#color-74)" stroke="url(#color-75)" stroke-linecap="butt"/><path d="M234.44329,168.04724v-0.64774h11.04104v0.64774z" fill="url(#color-76)" stroke="url(#color-77)" stroke-linecap="butt"/></g><path d="M215.27327,167.03273v-12.39235h25.93332v8.69862h-15.56684v3.69373z" fill-opacity="0.53453" fill="#000000" stroke="#a60000" stroke-width="0" stroke-linecap="butt"/><text transform="translate(215.70712,161.6152) scale(0.21839,0.21839)" font-size="40" xml:space="preserve" fill="#ffffff" fill-rule="nonzero" stroke="#000000" stroke-width="0" stroke-linecap="butt" stroke-linejoin="miter" stroke-miterlimit="10" stroke-dasharray="" stroke-dashoffset="0" font-family="Serif" font-weight="normal" text-anchor="start" style="mix-blend-mode: normal"><tspan x="0" dy="0">Rocket</tspan></text><text transform="translate(215.56527,166.16682) scale(0.11601,0.11601)" font-size="40" xml:space="preserve" fill="#ffffff" fill-rule="nonzero" stroke="#000000" stroke-width="0" stroke-linecap="butt" stroke-linejoin="miter" stroke-miterlimit="10" stroke-dasharray="" stroke-dashoffset="0" font-family="Serif" font-weight="normal" text-anchor="start" style="mix-blend-mode: normal"><tspan x="0" dy="0">1-3-2</tspan></text></g></g></svg>