<svg version="1.1" xmlns="http://www.w3.org/2000/svg" xmlns:xlink="http://www.w3.org/1999/xlink" width="59" height="59.70662" viewBox="0,0,59,59.70662"><defs><linearGradient x1="240" y1="151.64669" x2="240" y2="208.35331" gradientUnits="userSpaceOnUse" id="color-1"><stop offset="0" stop-color="#191919"/><stop offset="1" stop-color="#050505"/></linearGradient><linearGradient x1="240" y1="151.64669" x2="240" y2="208.35331" gradientUnits="userSpaceOnUse" id="color-2"><stop offset="0" stop-color="#cccccc"/><stop offset="1" stop-color="#898989"/></linearGradient><radialGradient cx="240" cy="180" r="26.8571" gradientUnits="userSpaceOnUse" id="color-3"><stop offset="0" stop-color="#ffffff" stop-opacity="0.35484"/><stop offset="1" stop-color="#ffffff" stop-opacity="0"/></radialGradient><linearGradient x1="240" y1="153.29211" x2="240" y2="206.70789" gradientUnits="userSpaceOnUse" id="color-4"><stop offset="0" stop-color="#cccccc"/><stop offset="1" stop-color="#898989"/></linearGradient><linearGradient x1="242.20652" y1="197.29199" x2="243.05962" y2="197.29199" gradientUnits="userSpaceOnUse" id="color-5"><stop offset="0" stop-color="#525252"/><stop offset="1" stop-color="#363636"/></linearGradient><linearGradient x1="242.20652" y1="197.29199" x2="243.05962" y2="197.29199" gradientUnits="userSpaceOnUse" id="color-6"><stop offset="0" stop-color="#1f1f1f"/><stop offset="1" stop-color="#000000"/></linearGradient><linearGradient x1="237.14471" y1="196.13818" x2="237.87668" y2="196.23881" gradientUnits="userSpaceOnUse" id="color-7"><stop offset="0" stop-color="#525252"/><stop offset="1" stop-color="#2e2e2e"/></linearGradient><linearGradient x1="237.14471" y1="196.13818" x2="237.87668" y2="196.23881" gradientUnits="userSpaceOnUse" id="color-8"><stop offset="0" stop-color="#1f1f1f"/><stop offset="1" stop-color="#000000"/></linearGradient><linearGradient x1="234.60926" y1="198.3228" x2="245.13667" y2="198.3228" gradientUnits="userSpaceOnUse" id="color-9"><stop offset="0" stop-color="#b8b8b8"/><stop offset="1" stop-color="#4a4a4a"/></linearGradient><linearGradient x1="234.60926" y1="198.3228" x2="245.13667" y2="198.3228" gradientUnits="userSpaceOnUse" id="color-10"><stop offset="0" stop-color="#1f1f1f"/><stop offset="1" stop-color="#000000"/></linearGradient><linearGradient x1="238.21171" y1="195.43267" x2="241.55849" y2="195.43267" gradientUnits="userSpaceOnUse" id="color-11"><stop offset="0" stop-color="#5d5d5d"/><stop offset="1" stop-color="#232323"/></linearGradient><linearGradient x1="237.12892" y1="197.577" x2="242.51002" y2="197.577" gradientUnits="userSpaceOnUse" id="color-12"><stop offset="0" stop-color="#5d5d5d"/><stop offset="1" stop-color="#232323"/></linearGradient><linearGradient x1="236.22061" y1="199.94419" x2="243.44475" y2="199.94419" gradientUnits="userSpaceOnUse" id="color-13"><stop offset="0" stop-color="#5d5d5d"/><stop offset="1" stop-color="#232323"/></linearGradient><linearGradient x1="235.25866" y1="202.30187" x2="244.44591" y2="202.30187" gradientUnits="userSpaceOnUse" id="color-14"><stop offset="0" stop-color="#5d5d5d"/><stop offset="1" stop-color="#232323"/></linearGradient><linearGradient x1="241.8363" y1="194.49497" x2="243.45071" y2="194.49497" gradientUnits="userSpaceOnUse" id="color-15"><stop offset="0" stop-color="#aaaaaa"/><stop offset="1" stop-color="#4e4e4e"/></linearGradient><linearGradient x1="241.8363" y1="194.49497" x2="243.45071" y2="194.49497" gradientUnits="userSpaceOnUse" id="color-16"><stop offset="0" stop-color="#1f1f1f"/><stop offset="1" stop-color="#000000"/></linearGradient><linearGradient x1="243.45539" y1="194.49497" x2="245.0698" y2="194.49497" gradientUnits="userSpaceOnUse" id="color-17"><stop offset="0" stop-color="#aaaaaa"/><stop offset="1" stop-color="#4e4e4e"/></linearGradient><linearGradient x1="243.45539" y1="194.49497" x2="245.0698" y2="194.49497" gradientUnits="userSpaceOnUse" id="color-18"><stop offset="0" stop-color="#1f1f1f"/><stop offset="1" stop-color="#000000"/></linearGradient><linearGradient x1="243.8471" y1="197.333" x2="244.7002" y2="197.333" gradientUnits="userSpaceOnUse" id="color-19"><stop offset="0" stop-color="#525252"/><stop offset="1" stop-color="#363636"/></linearGradient><linearGradient x1="243.8471" y1="197.333" x2="244.7002" y2="197.333" gradientUnits="userSpaceOnUse" id="color-20"><stop offset="0" stop-color="#1f1f1f"/><stop offset="1" stop-color="#000000"/></linearGradient><linearGradient x1="234.69677" y1="193.63077" x2="245.19647" y2="193.63077" gradientUnits="userSpaceOnUse" id="color-21"><stop offset="0" stop-color="#525252"/><stop offset="1" stop-color="#2e2e2e"/></linearGradient><linearGradient x1="234.69677" y1="193.63077" x2="245.19647" y2="193.63077" gradientUnits="userSpaceOnUse" id="color-22"><stop offset="0" stop-color="#1f1f1f"/><stop offset="1" stop-color="#000000"/></linearGradient><linearGradient x1="245.18792" y1="188.66822" x2="250.40598" y2="188.66822" gradientUnits="userSpaceOnUse" id="color-23"><stop offset="0" stop-color="#36322b"/><stop offset="1" stop-color="#1f1c19"/></linearGradient><linearGradient x1="245.18792" y1="188.84748" x2="248.75699" y2="188.84748" gradientUnits="userSpaceOnUse" id="color-24"><stop offset="0" stop-color="#272727"/><stop offset="1" stop-color="#000000"/></linearGradient><linearGradient x1="234.81207" y1="188.61354" x2="229.59401" y2="188.61354" gradientUnits="userSpaceOnUse" id="color-25"><stop offset="0" stop-color="#6b6757"/><stop offset="1" stop-color="#827969"/></linearGradient><linearGradient x1="231.243" y1="188.7928" x2="234.81207" y2="188.7928" gradientUnits="userSpaceOnUse" id="color-26"><stop offset="0" stop-color="#272727"/><stop offset="1" stop-color="#000000"/></linearGradient><linearGradient x1="234.79758" y1="184.40425" x2="245.20041" y2="184.40425" gradientUnits="userSpaceOnUse" id="color-27"><stop offset="0" stop-color="#635f54"/><stop offset="1" stop-color="#211f1a"/></linearGradient><linearGradient x1="234.79758" y1="184.40425" x2="245.20041" y2="184.40425" gradientUnits="userSpaceOnUse" id="color-28"><stop offset="0" stop-color="#272727"/><stop offset="1" stop-color="#000000"/></linearGradient><linearGradient x1="240.37085" y1="184.88435" x2="244.45121" y2="184.88435" gradientUnits="userSpaceOnUse" id="color-29"><stop offset="0" stop-color="#4a382c"/><stop offset="1" stop-color="#301f1b"/></linearGradient><linearGradient x1="240.37085" y1="184.88435" x2="244.45121" y2="184.88435" gradientUnits="userSpaceOnUse" id="color-30"><stop offset="0" stop-color="#351c12"/><stop offset="1" stop-color="#1a1310"/></linearGradient><linearGradient x1="240.35988" y1="184.88589" x2="244.4308" y2="184.88589" gradientUnits="userSpaceOnUse" id="color-31"><stop offset="0" stop-color="#351c12"/><stop offset="1" stop-color="#1a1310"/></linearGradient><linearGradient x1="240.35988" y1="184.8549" x2="244.4308" y2="184.8549" gradientUnits="userSpaceOnUse" id="color-32"><stop offset="0" stop-color="#351c12"/><stop offset="1" stop-color="#1a1310"/></linearGradient><linearGradient x1="235.49401" y1="184.90502" x2="239.57437" y2="184.90502" gradientUnits="userSpaceOnUse" id="color-33"><stop offset="0" stop-color="#4a382c"/><stop offset="1" stop-color="#301f1b"/></linearGradient><linearGradient x1="235.49401" y1="184.90502" x2="239.57437" y2="184.90502" gradientUnits="userSpaceOnUse" id="color-34"><stop offset="0" stop-color="#351c12"/><stop offset="1" stop-color="#1a1310"/></linearGradient><linearGradient x1="235.48304" y1="184.90656" x2="239.55397" y2="184.90656" gradientUnits="userSpaceOnUse" id="color-35"><stop offset="0" stop-color="#351c12"/><stop offset="1" stop-color="#1a1310"/></linearGradient><linearGradient x1="235.48304" y1="184.87555" x2="239.55397" y2="184.87555" gradientUnits="userSpaceOnUse" id="color-36"><stop offset="0" stop-color="#351c12"/><stop offset="1" stop-color="#1a1310"/></linearGradient><linearGradient x1="240.37085" y1="189.80609" x2="244.45121" y2="189.80609" gradientUnits="userSpaceOnUse" id="color-37"><stop offset="0" stop-color="#4a382c"/><stop offset="1" stop-color="#301f1b"/></linearGradient><linearGradient x1="240.37085" y1="189.80609" x2="244.45121" y2="189.80609" gradientUnits="userSpaceOnUse" id="color-38"><stop offset="0" stop-color="#351c12"/><stop offset="1" stop-color="#1a1310"/></linearGradient><linearGradient x1="240.35988" y1="189.80763" x2="244.4308" y2="189.80763" gradientUnits="userSpaceOnUse" id="color-39"><stop offset="0" stop-color="#351c12"/><stop offset="1" stop-color="#1a1310"/></linearGradient><linearGradient x1="240.35988" y1="189.77663" x2="244.4308" y2="189.77663" gradientUnits="userSpaceOnUse" id="color-40"><stop offset="0" stop-color="#351c12"/><stop offset="1" stop-color="#1a1310"/></linearGradient><linearGradient x1="235.49401" y1="189.82676" x2="239.57437" y2="189.82676" gradientUnits="userSpaceOnUse" id="color-41"><stop offset="0" stop-color="#4a382c"/><stop offset="1" stop-color="#301f1b"/></linearGradient><linearGradient x1="235.49401" y1="189.82676" x2="239.57437" y2="189.82676" gradientUnits="userSpaceOnUse" id="color-42"><stop offset="0" stop-color="#351c12"/><stop offset="1" stop-color="#1a1310"/></linearGradient><linearGradient x1="235.48304" y1="189.82828" x2="239.55397" y2="189.82828" gradientUnits="userSpaceOnUse" id="color-43"><stop offset="0" stop-color="#351c12"/><stop offset="1" stop-color="#1a1310"/></linearGradient><linearGradient x1="235.48304" y1="189.79729" x2="239.55397" y2="189.79729" gradientUnits="userSpaceOnUse" id="color-44"><stop offset="0" stop-color="#351c12"/><stop offset="1" stop-color="#1a1310"/></linearGradient><linearGradient x1="235.32429" y1="179.2839" x2="244.60996" y2="179.2839" gradientUnits="userSpaceOnUse" id="color-45"><stop offset="0" stop-color="#515151"/><stop offset="1" stop-color="#131313"/></linearGradient><linearGradient x1="235.32429" y1="179.2839" x2="244.60996" y2="179.2839" gradientUnits="userSpaceOnUse" id="color-46"><stop offset="0" stop-color="#272727"/><stop offset="1" stop-color="#000000"/></linearGradient><linearGradient x1="235.80792" y1="177.2634" x2="244.06185" y2="177.2634" gradientUnits="userSpaceOnUse" id="color-47"><stop offset="0" stop-color="#272727"/><stop offset="1" stop-color="#000000"/></linearGradient><linearGradient x1="235.84016" y1="181.33434" x2="243.96513" y2="181.33434" gradientUnits="userSpaceOnUse" id="color-48"><stop offset="0" stop-color="#272727"/><stop offset="1" stop-color="#000000"/></linearGradient><linearGradient x1="234.70342" y1="161.68379" x2="245.23083" y2="161.68379" gradientUnits="userSpaceOnUse" id="color-49"><stop offset="0" stop-color="#9c8f73"/><stop offset="1" stop-color="#443a22"/></linearGradient><linearGradient x1="234.70342" y1="161.68049" x2="245.23083" y2="161.68049" gradientUnits="userSpaceOnUse" id="color-50"><stop offset="0" stop-color="#272727"/><stop offset="1" stop-color="#000000"/></linearGradient><linearGradient x1="237.32835" y1="157.10405" x2="242.52388" y2="157.10405" gradientUnits="userSpaceOnUse" id="color-51"><stop offset="0" stop-color="#f1f5f8"/><stop offset="1" stop-color="#6d7680"/></linearGradient><linearGradient x1="237.32835" y1="157.10364" x2="242.52388" y2="157.10364" gradientUnits="userSpaceOnUse" id="color-52"><stop offset="0" stop-color="#272727"/><stop offset="1" stop-color="#000000"/></linearGradient><linearGradient x1="236.14391" y1="159.77907" x2="243.88477" y2="159.77907" gradientUnits="userSpaceOnUse" id="color-53"><stop offset="0" stop-color="#45423b"/><stop offset="1" stop-color="#262018"/></linearGradient><linearGradient x1="234.76572" y1="171.38724" x2="245.16854" y2="171.38724" gradientUnits="userSpaceOnUse" id="color-54"><stop offset="0" stop-color="#301630"/><stop offset="1" stop-color="#140e17"/></linearGradient><linearGradient x1="234.76572" y1="171.38724" x2="245.16854" y2="171.38724" gradientUnits="userSpaceOnUse" id="color-55"><stop offset="0" stop-color="#272727"/><stop offset="1" stop-color="#000000"/></linearGradient><linearGradient x1="234.91209" y1="171.37833" x2="235.60934" y2="171.37833" gradientUnits="userSpaceOnUse" id="color-56"><stop offset="0" stop-color="#9d9d9d"/><stop offset="1" stop-color="#4c4c4c"/></linearGradient><linearGradient x1="234.91209" y1="171.37833" x2="235.60934" y2="171.37833" gradientUnits="userSpaceOnUse" id="color-57"><stop offset="0" stop-color="#272727"/><stop offset="1" stop-color="#000000"/></linearGradient><linearGradient x1="244.34542" y1="171.37833" x2="245.04266" y2="171.37833" gradientUnits="userSpaceOnUse" id="color-58"><stop offset="0" stop-color="#9d9d9d"/><stop offset="1" stop-color="#4c4c4c"/></linearGradient><linearGradient x1="244.34542" y1="171.37833" x2="245.04266" y2="171.37833" gradientUnits="userSpaceOnUse" id="color-59"><stop offset="0" stop-color="#272727"/><stop offset="1" stop-color="#000000"/></linearGradient><radialGradient cx="239.96713" cy="171.38725" r="4.3156" gradientUnits="userSpaceOnUse" id="color-60"><stop offset="0" stop-color="#654573" stop-opacity="0.40995"/><stop offset="1" stop-color="#654573" stop-opacity="0"/></radialGradient><radialGradient cx="239.96713" cy="171.3719" r="3.50364" gradientUnits="userSpaceOnUse" id="color-61"><stop offset="0" stop-color="#eb73e5" stop-opacity="0.60996"/><stop offset="1" stop-color="#eb73e5" stop-opacity="0"/></radialGradient><radialGradient cx="239.96713" cy="171.3719" r="2.96612" gradientUnits="userSpaceOnUse" id="color-62"><stop offset="0" stop-color="#ff26ff" stop-opacity="0.44355"/><stop offset="1" stop-color="#eda3ff" stop-opacity="0.14516"/></radialGradient><radialGradient cx="239.96713" cy="171.3719" r="2.43905" gradientUnits="userSpaceOnUse" id="color-63"><stop offset="0" stop-color="#f7e3ff" stop-opacity="0.25546"/><stop offset="1" stop-color="#9f07ff"/></radialGradient><linearGradient x1="234.89305" y1="173.05933" x2="245.04121" y2="173.05933" gradientUnits="userSpaceOnUse" id="color-64"><stop offset="0" stop-color="#9a66a2"/><stop offset="1" stop-color="#4d0069"/></linearGradient><linearGradient x1="234.89305" y1="173.07526" x2="245.04121" y2="173.07526" gradientUnits="userSpaceOnUse" id="color-65"><stop offset="0" stop-color="#9a66a2"/><stop offset="1" stop-color="#4d0069"/></linearGradient><linearGradient x1="234.91649" y1="169.5465" x2="245.06464" y2="169.5465" gradientUnits="userSpaceOnUse" id="color-66"><stop offset="0" stop-color="#9a66a2"/><stop offset="1" stop-color="#4d0069"/></linearGradient><linearGradient x1="234.91649" y1="169.56243" x2="245.06464" y2="169.56243" gradientUnits="userSpaceOnUse" id="color-67"><stop offset="0" stop-color="#9a66a2"/><stop offset="1" stop-color="#4d0069"/></linearGradient><linearGradient x1="234.7927" y1="175.30778" x2="245.04632" y2="175.30778" gradientUnits="userSpaceOnUse" id="color-68"><stop offset="0" stop-color="#b695c7"/><stop offset="1" stop-color="#312833"/></linearGradient><linearGradient x1="234.7927" y1="175.30778" x2="245.04632" y2="175.30778" gradientUnits="userSpaceOnUse" id="color-69"><stop offset="0" stop-color="#272727"/><stop offset="1" stop-color="#000000"/></linearGradient><linearGradient x1="234.83957" y1="167.48794" x2="245.09319" y2="167.48794" gradientUnits="userSpaceOnUse" id="color-70"><stop offset="0" stop-color="#b695c7"/><stop offset="1" stop-color="#312833"/></linearGradient><linearGradient x1="234.83957" y1="167.48794" x2="245.09319" y2="167.48794" gradientUnits="userSpaceOnUse" id="color-71"><stop offset="0" stop-color="#272727"/><stop offset="1" stop-color="#000000"/></linearGradient></defs><g transform="translate(-210.5,-150.14669)"><g data-paper-data="{&quot;isPaintingLayer&quot;:true}" fill-rule="nonzero" stroke-linejoin="miter" stroke-miterlimit="10" stroke-dasharray="" stroke-dashoffset="0" style="mix-blend-mode: normal"><path d="M212,208.35331v-56.70662h56v56.70662z" fill="url(#color-1)" stroke="url(#color-2)" stroke-width="3" stroke-linecap="butt"/><path d="M266.8571,180c0,14.75036 -12.02433,26.70789 -26.8571,26.70789c-14.83277,0 -26.8571,-11.95753 -26.8571,-26.70789c0,-14.75036 12.02433,-26.70789 26.8571,-26.70789c14.83277,0 26.8571,11.95753 26.8571,26.70789z" fill="url(#color-3)" stroke="url(#color-4)" stroke-width="0" stroke-linecap="butt"/><g stroke-width="0.25"><path d="M242.20652,198.70289v-2.82179h0.8531v2.82179z" fill="url(#color-5)" stroke="url(#color-6)" stroke-linecap="butt"/><path d="M236.72181,199.21444l0.11027,-5.73545l1.82317,-0.41518l-1.20147,6.25125z" fill="url(#color-7)" stroke="url(#color-8)" stroke-linecap="butt"/><path d="M234.60926,203.58673c0,0 3.93088,-10.6046 5.26442,-10.52741c1.52555,0.08831 5.26298,10.52741 5.26298,10.52741z" fill="url(#color-9)" stroke="url(#color-10)" stroke-linecap="butt"/><path d="M241.55849,195.43267h-3.34678" fill="none" stroke="url(#color-11)" stroke-linecap="round"/><path d="M242.51002,197.577h-5.3811" fill="none" stroke="url(#color-12)" stroke-linecap="round"/><path d="M236.22061,199.94419h7.22415" fill="none" stroke="url(#color-13)" stroke-linecap="round"/><path d="M235.25866,202.30187h9.18725" fill="none" stroke="url(#color-14)" stroke-linecap="round"/><path d="M243.45071,194.49497c-0.00604,1.24988 -0.02516,1.38361 -0.80721,1.37037c-0.78229,-0.01325 -0.81691,-0.18262 -0.80721,-1.37037c0.01072,-1.31135 0.00844,-1.40251 0.80721,-1.37037c0.76533,0.0308 0.81384,-0.00214 0.80721,1.37037z" fill="url(#color-15)" stroke="url(#color-16)" stroke-linecap="butt"/><path d="M245.0698,194.49497c-0.00604,1.24988 -0.02516,1.38361 -0.80721,1.37037c-0.78229,-0.01325 -0.81691,-0.18262 -0.80721,-1.37037c0.01072,-1.31135 0.00844,-1.40251 0.80721,-1.37037c0.76533,0.0308 0.81384,-0.00214 0.80721,1.37037z" fill="url(#color-17)" stroke="url(#color-18)" stroke-linecap="butt"/><path d="M243.10883,198.21072c0,0 0.73826,-0.18592 0.73826,-0.60154c0,-0.50678 0,-1.68706 0,-1.68706h0.8531c0,0 0,1.10701 0,1.60503c0,0.18623 -0.16005,0.57947 -0.43627,0.87396c-0.36695,0.39122 -0.87619,0.67091 -0.87619,0.67091z" fill="url(#color-19)" stroke="url(#color-20)" stroke-linecap="butt"/><path d="M234.69677,192.97453h10.49971c0,0 -0.02369,0.64649 -0.16189,0.87926c-0.11853,0.19962 -0.61737,0.43322 -0.61737,0.43322h-9.02319c0,0 -0.3803,-0.24782 -0.48227,-0.43975c-0.12552,-0.23627 -0.21498,-0.87271 -0.21498,-0.87271z" fill="url(#color-21)" stroke="url(#color-22)" stroke-linecap="butt"/></g><path d="M245.18792,192.94891v-10.63943c0,0 1.3389,7.14203 1.80701,8.86642c0.37036,1.3643 1.76207,4.20961 1.76207,4.20961z" fill="url(#color-23)" stroke="url(#color-24)" stroke-width="0.25" stroke-linecap="butt"/><path d="M231.243,195.33081c0,0 1.39171,-2.84531 1.76207,-4.20961c0.46811,-1.72439 1.80701,-8.86642 1.80701,-8.86642v10.63943z" data-paper-data="{&quot;index&quot;:null}" fill="url(#color-25)" stroke="url(#color-26)" stroke-width="0.25" stroke-linecap="butt"/><path d="M234.79758,192.93831v-17.06811h10.40283v17.06811z" fill="url(#color-27)" stroke="url(#color-28)" stroke-width="0.25" stroke-linecap="butt"/><g stroke-width="0.25"><path d="M240.37085,187.00848v-4.24825h4.08036v4.24825z" fill="url(#color-29)" stroke="url(#color-30)" stroke-linecap="butt"/><path d="M244.4308,182.81943l-4.07091,4.13291" fill="none" stroke="url(#color-31)" stroke-linecap="round"/><path d="M244.4308,186.97301l-4.02959,-4.1949" fill="none" stroke="url(#color-32)" stroke-linecap="round"/></g><g stroke-width="0.25"><path d="M235.49401,187.02914v-4.24825h4.08036v4.24825z" fill="url(#color-33)" stroke="url(#color-34)" stroke-linecap="butt"/><path d="M235.48305,186.973l4.07091,-4.13291" fill="none" stroke="url(#color-35)" stroke-linecap="round"/><path d="M235.52438,182.79877l4.02959,4.1949" fill="none" stroke="url(#color-36)" stroke-linecap="round"/></g><g stroke-width="0.25"><path d="M240.37085,191.93021v-4.24825h4.08036v4.24825z" fill="url(#color-37)" stroke="url(#color-38)" stroke-linecap="butt"/><path d="M244.4308,187.74117l-4.07091,4.13291" fill="none" stroke="url(#color-39)" stroke-linecap="round"/><path d="M240.40121,187.69985l4.02959,4.1949" fill="none" stroke="url(#color-40)" stroke-linecap="round"/></g><g stroke-width="0.25"><path d="M235.49401,191.95087v-4.24825h4.08036v4.24825z" fill="url(#color-41)" stroke="url(#color-42)" stroke-linecap="butt"/><path d="M235.48305,191.89474l4.07091,-4.13291" fill="none" stroke="url(#color-43)" stroke-linecap="round"/><path d="M235.52438,187.72051l4.02959,4.1949" fill="none" stroke="url(#color-44)" stroke-linecap="round"/></g><g stroke-width="0.25"><path d="M235.32429,181.84321v-5.11861h9.28568v5.11861z" fill="url(#color-45)" stroke="url(#color-46)" stroke-linecap="butt"/><path d="M244.06185,177.2634h-8.25393" fill="none" stroke="url(#color-47)" stroke-linecap="round"/><path d="M235.84016,181.33434h8.12497" fill="none" stroke="url(#color-48)" stroke-linecap="round"/></g><path d="M234.70342,166.9477c0,0 0.67706,-10.76866 5.20973,-10.52741c4.56062,-0.32184 5.31767,10.52741 5.31767,10.52741z" fill="url(#color-49)" stroke="url(#color-50)" stroke-width="0.25" stroke-linecap="butt"/><path d="M237.32835,157.77005c0,0 0.33415,-1.36247 2.57113,-1.33194c2.25077,-0.04072 2.6244,1.33194 2.6244,1.33194z" fill="url(#color-51)" stroke="url(#color-52)" stroke-width="0.25" stroke-linecap="butt"/><path d="M235.87927,161.10826c0,0 0.12842,-0.41649 0.31708,-0.91211c0.22141,-0.58163 0.58813,-1.27226 1.85537,-1.52671c0.04917,-0.00987 0.97286,-0.1545 0.97286,-0.1545l2.00952,0.00619c0,0 0.69466,0.04958 0.73546,0.05926c1.19929,0.2843 1.64966,0.99817 1.90176,1.59505c0.21496,0.50894 0.34575,0.93283 0.34575,0.93283z" data-paper-data="{&quot;index&quot;:null}" fill="url(#color-53)" stroke="#000000" stroke-width="0.25" stroke-linecap="butt"/><path d="M238.02351,159.83376c0,-0.51148 0.41464,-0.92614 0.92614,-0.92614c0.51149,0 0.92614,0.41464 0.92614,0.92614c0,0.51148 -0.41464,0.92614 -0.92614,0.92614c-0.51149,0 -0.92614,-0.41464 -0.92614,-0.92614z" fill="#caff00" stroke="none" stroke-width="0.25" stroke-linecap="butt"/><path d="M240.1642,159.85405c0,-0.51148 0.41464,-0.92614 0.92614,-0.92614c0.51149,0 0.92614,0.41464 0.92614,0.92614c0,0.51148 -0.41464,0.92614 -0.92614,0.92614c-0.51149,0 -0.92614,-0.41464 -0.92614,-0.92614z" fill="#00fcff" stroke="none" stroke-width="0.25" stroke-linecap="butt"/><g stroke-width="0.25"><path d="M234.76572,175.82805v-8.88161h10.40283v8.88161z" fill="url(#color-54)" stroke="url(#color-55)" stroke-linecap="butt"/><path d="M234.91209,174.85297v-6.94928h0.69724v6.94928z" fill="url(#color-56)" stroke="url(#color-57)" stroke-linecap="butt"/><path d="M244.34542,174.85297v-6.94928h0.69724v6.94928z" fill="url(#color-58)" stroke="url(#color-59)" stroke-linecap="butt"/><path d="M235.65153,171.38725c0,-2.38344 1.93216,-4.3156 4.3156,-4.3156c2.38344,0 4.3156,1.93216 4.3156,4.3156c0,2.38344 -1.93216,4.3156 -4.3156,4.3156c-2.38344,0 -4.3156,-1.93216 -4.3156,-4.3156z" fill="url(#color-60)" stroke="none" stroke-linecap="butt"/><path d="M236.46349,171.3719c0,-1.935 1.56863,-3.50364 3.50364,-3.50364c1.935,0 3.50364,1.56863 3.50364,3.50364c0,1.935 -1.56863,3.50364 -3.50364,3.50364c-1.935,0 -3.50364,-1.56863 -3.50364,-3.50364z" fill="url(#color-61)" stroke="none" stroke-linecap="butt"/><path d="M237.00101,171.3719c0,-1.63814 1.32798,-2.96612 2.96612,-2.96612c1.63814,0 2.96612,1.32798 2.96612,2.96612c0,1.63814 -1.32798,2.96612 -2.96612,2.96612c-1.63814,0 -2.96612,-1.32798 -2.96612,-2.96612z" fill="url(#color-62)" stroke="none" stroke-linecap="butt"/><path d="M237.52808,171.3719c0,-1.34705 1.092,-2.43905 2.43905,-2.43905c1.34705,0 2.43905,1.092 2.43905,2.43905c0,1.34705 -1.092,2.43905 -2.43905,2.43905c-1.34705,0 -2.43905,-1.092 -2.43905,-2.43905z" fill="url(#color-63)" stroke="none" stroke-linecap="butt"/><path d="M234.89305,174.88413l0.56249,-3.64961l0.53905,3.64961l0.72654,-3.61774l0.72654,3.6018l1.26559,-3.6018l1.21872,3.61774l1.07809,-3.6018l1.21872,3.58587l0.82029,-3.58587l0.8906,3.61774l0.56249,-3.6018l0.53905,3.56993" fill="none" stroke="url(#color-64)" stroke-linecap="round"/><path d="M245.04121,171.26638l-0.53905,3.56993l-0.56249,-3.6018l-0.8906,3.61774l-0.82029,-3.58587l-1.21872,3.58587l-1.07809,-3.6018l-1.21872,3.61774l-1.26559,-3.6018l-0.72654,3.6018l-0.72654,-3.61774l-0.53905,3.64961l-0.56249,-3.64961" data-paper-data="{&quot;index&quot;:null}" fill="none" stroke="url(#color-65)" stroke-linecap="round"/><path d="M234.91649,171.37131l0.56249,-3.64961l0.53905,3.64961l0.72654,-3.61774l0.72654,3.6018l1.26559,-3.6018l1.21872,3.61774l1.07809,-3.6018l1.21872,3.58587l0.82029,-3.58587l0.8906,3.61774l0.56249,-3.6018l0.53905,3.56993" fill="none" stroke="url(#color-66)" stroke-linecap="round"/><path d="M245.06464,167.75357l-0.53905,3.56993l-0.56249,-3.6018l-0.8906,3.61774l-0.82029,-3.58587l-1.21872,3.58587l-1.07809,-3.6018l-1.21872,3.61774l-1.26559,-3.6018l-0.72654,3.6018l-0.72654,-3.61774l-0.53905,3.64961l-0.56249,-3.64961" data-paper-data="{&quot;index&quot;:null}" fill="none" stroke="url(#color-67)" stroke-linecap="round"/><path d="M234.7927,175.69979v-0.78402h10.25362v0.78402z" fill="url(#color-68)" stroke="url(#color-69)" stroke-linecap="butt"/><path d="M234.83957,167.87996v-0.78402h10.25362v0.78402z" fill="url(#color-70)" stroke="url(#color-71)" stroke-linecap="butt"/></g><path d="M215.27327,167.03273v-12.39235h25.93332v8.69862h-15.56684v3.69373z" fill-opacity="0.53453" fill="#000000" stroke="#a60000" stroke-width="0" stroke-linecap="butt"/><text transform="translate(215.70712,161.61518) scale(0.21839,0.21839)" font-size="40" xml:space="preserve" fill="#ffffff" fill-rule="nonzero" stroke="#000000" stroke-width="0" stroke-linecap="butt" stroke-linejoin="miter" stroke-miterlimit="10" stroke-dasharray="" stroke-dashoffset="0" font-family="Serif" font-weight="normal" text-anchor="start" style="mix-blend-mode: normal"><tspan x="0" dy="0">Rocket</tspan></text><text transform="translate(215.56527,166.16682) scale(0.11601,0.11601)" font-size="40" xml:space="preserve" fill="#ffffff" fill-rule="nonzero" stroke="#000000" stroke-width="0" stroke-linecap="butt" stroke-linejoin="miter" stroke-miterlimit="10" stroke-dasharray="" stroke-dashoffset="0" font-family="Serif" font-weight="normal" text-anchor="start" style="mix-blend-mode: normal"><tspan x="0" dy="0">3-3-3</tspan></text></g></g></svg>