<svg version="1.1" xmlns="http://www.w3.org/2000/svg" xmlns:xlink="http://www.w3.org/1999/xlink" width="318.65831" height="111.54677" viewBox="0,0,318.65831,111.54677"><defs><radialGradient cx="159.18115" cy="119.74998" r="157.7189" gradientUnits="userSpaceOnUse" id="color-1"><stop offset="0" stop-color="#c8c8c8"/><stop offset="1" stop-color="#8a8a8a"/></radialGradient><radialGradient cx="144.90076" cy="141.15617" r="42.08645" gradientUnits="userSpaceOnUse" id="color-2"><stop offset="0" stop-color="#a2a2a2"/><stop offset="1" stop-color="#9e9e9e"/></radialGradient><linearGradient x1="82.21028" y1="176.19836" x2="398.61902" y2="176.19836" gradientUnits="userSpaceOnUse" id="color-3"><stop offset="0" stop-color="#696969"/><stop offset="1" stop-color="#4f4f4f"/></linearGradient><radialGradient cx="242" cy="105.60864" r="147.25" gradientUnits="userSpaceOnUse" id="color-4"><stop offset="0" stop-color="#1d003f"/><stop offset="1" stop-color="#0e002e"/></radialGradient><radialGradient cx="111.47579" cy="123.89656" r="32.04919" gradientUnits="userSpaceOnUse" id="color-5"><stop offset="0" stop-color="#696969"/><stop offset="1" stop-color="#4f4f4f"/></radialGradient><linearGradient x1="101.95543" y1="121.70232" x2="185.49143" y2="121.70232" gradientUnits="userSpaceOnUse" id="color-6"><stop offset="0" stop-color="#2f2f2f"/><stop offset="1" stop-color="#1b1b1b"/></linearGradient><linearGradient x1="101.24853" y1="90.09543" x2="103.24853" y2="90.09543" gradientUnits="userSpaceOnUse" id="color-7"><stop offset="0" stop-color="#2f2f2f"/><stop offset="1" stop-color="#1b1b1b"/></linearGradient><linearGradient x1="164.26692" y1="143.09926" x2="166.26692" y2="143.09926" gradientUnits="userSpaceOnUse" id="color-8"><stop offset="0" stop-color="#2f2f2f"/><stop offset="1" stop-color="#1b1b1b"/></linearGradient><linearGradient x1="143.16309" y1="123.31442" x2="145.16309" y2="123.31442" gradientUnits="userSpaceOnUse" id="color-9"><stop offset="0" stop-color="#2f2f2f"/><stop offset="1" stop-color="#1b1b1b"/></linearGradient><linearGradient x1="122.79203" y1="101.03815" x2="124.79203" y2="101.03815" gradientUnits="userSpaceOnUse" id="color-10"><stop offset="0" stop-color="#2f2f2f"/><stop offset="1" stop-color="#1b1b1b"/></linearGradient><radialGradient cx="125.43812" cy="94.49206" r="43.96632" gradientUnits="userSpaceOnUse" id="color-11"><stop offset="0" stop-color="#929292"/><stop offset="1" stop-color="#7a7a7a"/></radialGradient></defs><g transform="translate(-81.21027,-68.70713)"><g data-paper-data="{&quot;isPaintingLayer&quot;:true}" fill-rule="nonzero" stroke-linejoin="miter" stroke-miterlimit="10" stroke-dasharray="" stroke-dashoffset="0" style="mix-blend-mode: normal"><path d="M83.26609,172.98428l11.79533,-64.24143h293.81014l9.83233,64.24143z" fill="url(#color-1)" stroke="#000000" stroke-width="2" stroke-linecap="butt"/><path d="M102.81431,173.08382v-63.8553l51.00132,0.41464l60.95279,63.85531z" fill="url(#color-2)" stroke="#808080" stroke-width="2" stroke-linecap="butt"/><path d="M82.21028,179.2539v-6.1111h316.40874v6.1111z" fill="url(#color-3)" stroke="#000000" stroke-width="2" stroke-linecap="butt"/><path d="M94.75,107.55864v-3.9h294.5v3.9z" fill="url(#color-4)" stroke="#ffffff" stroke-width="1" stroke-linecap="butt"/><path d="M102.53927,172.94606v-64.09837h21.24709l0.14325,23.63374l20.4375,-0.13672l0.17247,20.27246l20.89612,0.27252l0.11536,20.05638z" fill="url(#color-5)" stroke="#000000" stroke-width="2" stroke-linecap="butt"/><g fill="none" stroke-width="2" stroke-linecap="round"><path d="M185.49143,171.67737v-18.17275l-83.536,-81.77735" stroke="url(#color-6)"/><path d="M101.95542,71.92268l0.58622,36.34549" stroke="url(#color-7)"/><path d="M165.26692,152.6253v-19.05207" stroke="url(#color-8)"/><path d="M144.16309,132.6939v-18.75896" stroke="url(#color-9)"/><path d="M123.93858,108.65898l-0.29311,-15.24166" stroke="url(#color-10)"/></g><path d="M187.74875,156.28797l-87.51799,-85.83083" fill="none" stroke="url(#color-11)" stroke-width="3.5" stroke-linecap="round"/></g></g></svg>