<svg version="1.1" xmlns="http://www.w3.org/2000/svg" xmlns:xlink="http://www.w3.org/1999/xlink" width="85.26142" height="40.02283" viewBox="0,0,85.26142,40.02283"><defs><linearGradient x1="240" y1="161.58696" x2="240" y2="198.41312" gradientUnits="userSpaceOnUse" id="color-1"><stop offset="0" stop-color="#4b8455"/><stop offset="1" stop-color="#72b235"/></linearGradient><linearGradient x1="240" y1="161.58696" x2="240" y2="198.41312" gradientUnits="userSpaceOnUse" id="color-2"><stop offset="0" stop-color="#246037"/><stop offset="1" stop-color="#a0ff67"/></linearGradient><radialGradient cx="263" cy="180" r="19.41784" gradientUnits="userSpaceOnUse" id="color-3"><stop offset="0" stop-color="#ffffff" stop-opacity="0.35484"/><stop offset="1" stop-color="#ffffff" stop-opacity="0"/></radialGradient><linearGradient x1="263" y1="160.69003" x2="263" y2="199.30996" gradientUnits="userSpaceOnUse" id="color-4"><stop offset="0" stop-color="#cccccc"/><stop offset="1" stop-color="#898989"/></linearGradient><radialGradient cx="263.00001" cy="180" r="15.37464" gradientUnits="userSpaceOnUse" id="color-5"><stop offset="0" stop-color="#000000"/><stop offset="1" stop-color="#474747"/></radialGradient><linearGradient x1="263.00001" y1="164.86845" x2="263.00001" y2="195.13155" gradientUnits="userSpaceOnUse" id="color-6"><stop offset="0" stop-color="#1c1c1c"/><stop offset="1" stop-color="#050505"/></linearGradient><radialGradient cx="263" cy="180" r="13.68442" gradientUnits="userSpaceOnUse" id="color-7"><stop offset="0" stop-color="#000000"/><stop offset="1" stop-color="#000000" stop-opacity="0"/></radialGradient><radialGradient cx="262.99998" cy="180" r="20.01142" gradientUnits="userSpaceOnUse" id="color-8"><stop offset="0" stop-color="#101a18" stop-opacity="0.41961"/><stop offset="1" stop-color="#101a18" stop-opacity="0"/></radialGradient><radialGradient cx="263" cy="180" r="16.24637" gradientUnits="userSpaceOnUse" id="color-9"><stop offset="0" stop-color="#73ebd4" stop-opacity="0.61176"/><stop offset="1" stop-color="#73ebd4" stop-opacity="0"/></radialGradient><radialGradient cx="262.99998" cy="179.92883" r="13.75389" gradientUnits="userSpaceOnUse" id="color-10"><stop offset="0" stop-color="#4fffee" stop-opacity="0"/><stop offset="1" stop-color="#4fffee" stop-opacity="0.0902"/></radialGradient><radialGradient cx="262.99998" cy="179.92883" r="11.30989" gradientUnits="userSpaceOnUse" id="color-11"><stop offset="0" stop-color="#82fff4" stop-opacity="0.11373"/><stop offset="1" stop-color="#8ffffa"/></radialGradient><radialGradient cx="262.99998" cy="180" r="18.03429" gradientUnits="userSpaceOnUse" id="color-12"><stop offset="0" stop-color="#101a12" stop-opacity="0.41961"/><stop offset="1" stop-color="#101a12" stop-opacity="0"/></radialGradient><radialGradient cx="263" cy="180" r="14.64123" gradientUnits="userSpaceOnUse" id="color-13"><stop offset="0" stop-color="#73eb77" stop-opacity="0.61176"/><stop offset="1" stop-color="#73eb77" stop-opacity="0"/></radialGradient><radialGradient cx="262.99998" cy="179.93586" r="12.39501" gradientUnits="userSpaceOnUse" id="color-14"><stop offset="0" stop-color="#51ff4f" stop-opacity="0"/><stop offset="1" stop-color="#51ff4f" stop-opacity="0.0902"/></radialGradient><radialGradient cx="262.99998" cy="179.93586" r="10.19248" gradientUnits="userSpaceOnUse" id="color-15"><stop offset="0" stop-color="#82ff8c" stop-opacity="0.11373"/><stop offset="1" stop-color="#8fffa8"/></radialGradient><radialGradient cx="262.99998" cy="180" r="16.52544" gradientUnits="userSpaceOnUse" id="color-16"><stop offset="0" stop-color="#1a1810" stop-opacity="0.41961"/><stop offset="1" stop-color="#1a1810" stop-opacity="0"/></radialGradient><radialGradient cx="263" cy="180" r="13.41625" gradientUnits="userSpaceOnUse" id="color-17"><stop offset="0" stop-color="#eba273" stop-opacity="0.61176"/><stop offset="1" stop-color="#eba273" stop-opacity="0"/></radialGradient><radialGradient cx="262.99998" cy="179.94122" r="11.35796" gradientUnits="userSpaceOnUse" id="color-18"><stop offset="0" stop-color="#ff8b4f" stop-opacity="0"/><stop offset="1" stop-color="#ff8b4f" stop-opacity="0.0902"/></radialGradient><radialGradient cx="262.99998" cy="179.94122" r="9.33972" gradientUnits="userSpaceOnUse" id="color-19"><stop offset="0" stop-color="#ffad82" stop-opacity="0.11373"/><stop offset="1" stop-color="#ffc58f"/></radialGradient><radialGradient cx="262.99998" cy="180" r="14.28817" gradientUnits="userSpaceOnUse" id="color-20"><stop offset="0" stop-color="#16101a" stop-opacity="0.41961"/><stop offset="1" stop-color="#16101a" stop-opacity="0"/></radialGradient><radialGradient cx="263" cy="180" r="11.59992" gradientUnits="userSpaceOnUse" id="color-21"><stop offset="0" stop-color="#b573eb" stop-opacity="0.61176"/><stop offset="1" stop-color="#b573eb" stop-opacity="0"/></radialGradient><radialGradient cx="262.99998" cy="179.94919" r="9.82029" gradientUnits="userSpaceOnUse" id="color-22"><stop offset="0" stop-color="#964fff" stop-opacity="0"/><stop offset="1" stop-color="#964fff" stop-opacity="0.0902"/></radialGradient><radialGradient cx="262.99998" cy="179.94919" r="8.07528" gradientUnits="userSpaceOnUse" id="color-23"><stop offset="0" stop-color="#ae82ff" stop-opacity="0.11373"/><stop offset="1" stop-color="#ac8fff"/></radialGradient><radialGradient cx="262.99998" cy="180" r="12.83134" gradientUnits="userSpaceOnUse" id="color-24"><stop offset="0" stop-color="#191a10" stop-opacity="0.41961"/><stop offset="1" stop-color="#191a10" stop-opacity="0"/></radialGradient><radialGradient cx="263" cy="180" r="10.41719" gradientUnits="userSpaceOnUse" id="color-25"><stop offset="0" stop-color="#ebc473" stop-opacity="0.61176"/><stop offset="1" stop-color="#ebc473" stop-opacity="0"/></radialGradient><radialGradient cx="262.99998" cy="179.95436" r="8.81901" gradientUnits="userSpaceOnUse" id="color-26"><stop offset="0" stop-color="#ffad4f" stop-opacity="0"/><stop offset="1" stop-color="#ffad4f" stop-opacity="0.0902"/></radialGradient><radialGradient cx="262.99998" cy="179.95436" r="7.25191" gradientUnits="userSpaceOnUse" id="color-27"><stop offset="0" stop-color="#ffef82" stop-opacity="0.11373"/><stop offset="1" stop-color="#ffe18f"/></radialGradient><radialGradient cx="262.99998" cy="180" r="11.11437" gradientUnits="userSpaceOnUse" id="color-28"><stop offset="0" stop-color="#10101a" stop-opacity="0.41961"/><stop offset="1" stop-color="#10101a" stop-opacity="0"/></radialGradient><radialGradient cx="263" cy="180" r="9.02326" gradientUnits="userSpaceOnUse" id="color-29"><stop offset="0" stop-color="#7377eb" stop-opacity="0.61176"/><stop offset="1" stop-color="#7377eb" stop-opacity="0"/></radialGradient><radialGradient cx="262.99998" cy="179.96048" r="7.63893" gradientUnits="userSpaceOnUse" id="color-30"><stop offset="0" stop-color="#4f54ff" stop-opacity="0"/><stop offset="1" stop-color="#4f54ff" stop-opacity="0.0902"/></radialGradient><radialGradient cx="262.99998" cy="179.96048" r="6.28153" gradientUnits="userSpaceOnUse" id="color-31"><stop offset="0" stop-color="#829eff" stop-opacity="0.11373"/><stop offset="1" stop-color="#8f98ff"/></radialGradient><radialGradient cx="262.99998" cy="180" r="9.29333" gradientUnits="userSpaceOnUse" id="color-32"><stop offset="0" stop-color="#ffffff" stop-opacity="0.41961"/><stop offset="1" stop-color="#ffffff" stop-opacity="0"/></radialGradient><radialGradient cx="263" cy="180" r="7.54485" gradientUnits="userSpaceOnUse" id="color-33"><stop offset="0" stop-color="#ffffff" stop-opacity="0.61176"/><stop offset="1" stop-color="#ffffff" stop-opacity="0"/></radialGradient><radialGradient cx="262.99998" cy="179.96694" r="6.38733" gradientUnits="userSpaceOnUse" id="color-34"><stop offset="0" stop-color="#ffffff" stop-opacity="0"/><stop offset="1" stop-color="#ffffff" stop-opacity="0.0902"/></radialGradient><radialGradient cx="262.99998" cy="179.96694" r="5.25234" gradientUnits="userSpaceOnUse" id="color-35"><stop offset="0" stop-color="#ffffff" stop-opacity="0.11373"/><stop offset="1" stop-color="#ffffff"/></radialGradient></defs><g transform="translate(-197.75,-159.98858)"><g data-paper-data="{&quot;isPaintingLayer&quot;:true}" fill-rule="nonzero" stroke-linecap="butt" stroke-linejoin="miter" stroke-miterlimit="10" stroke-dasharray="" stroke-dashoffset="0" style="mix-blend-mode: normal"><path d="M198.5,198.41312v-36.82609h83v36.82609z" fill="url(#color-1)" stroke="url(#color-2)" stroke-width="1.5"/><text transform="translate(201.08,170.56885) scale(0.21667,0.21667)" font-size="40" xml:space="preserve" fill="#ffffff" fill-rule="nonzero" stroke="none" stroke-width="1" stroke-linecap="butt" stroke-linejoin="miter" stroke-miterlimit="10" stroke-dasharray="" stroke-dashoffset="0" font-family="Serif" font-weight="normal" text-anchor="start" style="mix-blend-mode: normal"><tspan x="0" dy="0">Warp Core</tspan></text><text transform="translate(201.08,178.86889) scale(0.21667,0.21667)" font-size="40" xml:space="preserve" fill="#ffffff" fill-rule="nonzero" stroke="none" stroke-width="1" stroke-linecap="butt" stroke-linejoin="miter" stroke-miterlimit="10" stroke-dasharray="" stroke-dashoffset="0" font-family="Serif" font-weight="normal" text-anchor="start" style="mix-blend-mode: normal"><tspan x="0" dy="0">3.0</tspan></text><path d="M282.41785,180c0,10.6646 -8.69367,19.30996 -19.41784,19.30996c-10.72419,0 -19.41784,-8.64537 -19.41784,-19.30996c0,-10.6646 8.69366,-19.30996 19.41785,-19.30996c10.72419,0 19.41784,8.64536 19.41784,19.30996z" fill="url(#color-3)" stroke="url(#color-4)" stroke-width="0"/><path d="M277.89606,180c0,8.35692 -6.66919,15.13155 -14.89605,15.13155c-8.22685,0 -14.89604,-6.77463 -14.89604,-15.13155c0,-8.35692 6.66918,-15.13155 14.89604,-15.13155c8.22685,0 14.89605,6.77463 14.89605,15.13155z" fill="url(#color-5)" stroke="url(#color-6)" stroke-width="2.5"/><path d="M276.49611,180c0,7.25404 -6.04241,13.13459 -13.49611,13.13459c-7.45369,0 -13.4961,-5.88056 -13.4961,-13.13459c0,-7.25404 6.04242,-13.1346 13.49611,-13.1346c7.45369,0 13.49611,5.88056 13.49611,13.1346z" fill="url(#color-7)" stroke="none" stroke-width="NaN"/><g stroke="none" stroke-width="0.5"><path d="M242.98859,180c0,-11.05199 8.95941,-20.01141 20.01142,-20.01141c11.05199,0 20.01141,8.9594 20.01141,20.01142c0,11.05199 -8.95941,20.01142 -20.01141,20.01142c-11.05199,0 -20.01141,-8.9594 -20.01141,-20.01142z" fill="url(#color-8)"/><path d="M246.75364,180c0,-8.97259 7.27374,-16.24635 16.24636,-16.24635c8.97258,0 16.24637,7.27374 16.24637,16.24635c0,8.97259 -7.27373,16.24637 -16.24637,16.24637c-8.97259,0 -16.24636,-7.27375 -16.24636,-16.24637z" fill="url(#color-9)"/><path d="M249.2461,179.92883c0,-7.59605 6.15781,-13.75388 13.75387,-13.75388c7.59603,0 13.75388,6.15783 13.75388,13.75388c0,7.59604 -6.15782,13.75388 -13.75388,13.75388c-7.59603,0 -13.75387,-6.15782 -13.75387,-13.75388z" fill="url(#color-10)"/><path d="M251.69012,179.92883c0,-6.24626 5.06361,-11.30988 11.30989,-11.30988c6.24626,0 11.30989,5.06359 11.30989,11.30988c0,6.24626 -5.06362,11.30987 -11.30989,11.30987c-6.24625,0 -11.30989,-5.0636 -11.30989,-11.30987z" fill="url(#color-11)"/></g><g stroke="none" stroke-width="0.5"><path d="M244.96571,180c0,-9.96004 8.07423,-18.03429 18.03429,-18.03429c9.96004,0 18.03429,8.07422 18.03429,18.03429c0,9.96004 -8.07421,18.03429 -18.03429,18.03429c-9.96004,0 -18.03429,-8.07422 -18.03429,-18.03429z" fill="url(#color-12)"/><path d="M248.35877,180c0,-8.08609 6.5551,-14.64122 14.64123,-14.64122c8.0861,0 14.64123,6.55509 14.64123,14.64122c0,8.0861 -6.5551,14.64123 -14.64123,14.64123c-8.08609,0 -14.64123,-6.5551 -14.64123,-14.64123z" fill="url(#color-13)"/><path d="M250.60498,179.93586c0,-6.84554 5.54943,-12.395 12.395,-12.395c6.84555,0 12.395,5.54942 12.395,12.395c0,6.84554 -5.54942,12.395 -12.395,12.395c-6.84555,0 -12.395,-5.54944 -12.395,-12.395z" fill="url(#color-14)"/><path d="M252.80752,179.93586c0,-5.62912 4.56333,-10.19246 10.19248,-10.19246c5.62912,0 10.19248,4.56332 10.19248,10.19246c0,5.62912 -4.56332,10.19246 -10.19248,10.19246c-5.62912,0 -10.19248,-4.56332 -10.19248,-10.19246z" fill="url(#color-15)"/></g><g stroke="none" stroke-width="0.5"><path d="M246.47458,180c0,-9.12672 7.39868,-16.52543 16.52543,-16.52543c9.12673,0 16.52544,7.39868 16.52544,16.52543c0,9.12671 -7.39868,16.52543 -16.52544,16.52543c-9.12672,0 -16.52543,-7.39868 -16.52543,-16.52543z" fill="url(#color-16)"/><path d="M249.58376,180c0,-7.40956 6.00665,-13.41626 13.41625,-13.41626c7.40956,0 13.41626,6.00665 13.41626,13.41626c0,7.40957 -6.00666,13.41626 -13.41626,13.41626c-7.40956,0 -13.41625,-6.00665 -13.41625,-13.41626z" fill="url(#color-17)"/><path d="M251.64203,179.94122c0,-6.2728 5.08513,-11.35796 11.35795,-11.35796c6.2728,0 11.35796,5.08512 11.35796,11.35796c0,6.2728 -5.08513,11.35796 -11.35796,11.35796c-6.2728,0 -11.35795,-5.08513 -11.35795,-11.35796z" fill="url(#color-18)"/><path d="M253.66029,179.94122c0,-5.15816 4.18152,-9.3397 9.33971,-9.3397c5.15816,0 9.33971,4.18151 9.33971,9.3397c0,5.15816 -4.18153,9.33971 -9.33971,9.33971c-5.15816,0 -9.33971,-4.18153 -9.33971,-9.33971z" fill="url(#color-19)"/></g><g stroke="none" stroke-width="0.5"><path d="M248.71183,180c0,-7.89113 6.39703,-14.28817 14.28817,-14.28817c7.89113,0 14.28817,6.39702 14.28817,14.28817c0,7.89112 -6.39702,14.28817 -14.28817,14.28817c-7.89113,0 -14.28817,-6.39702 -14.28817,-14.28817z" fill="url(#color-20)"/><path d="M251.40008,180c0,-6.40643 5.19346,-11.59992 11.59992,-11.59992c6.40644,0 11.59993,5.19346 11.59993,11.59992c0,6.40644 -5.19346,11.59993 -11.59993,11.59993c-6.40643,0 -11.59992,-5.19347 -11.59992,-11.59993z" fill="url(#color-21)"/><path d="M253.1797,179.94919c0,-5.42357 4.39668,-9.82029 9.82028,-9.82029c5.42357,0 9.8203,4.39669 9.8203,9.82029c0,5.42358 -4.3967,9.82029 -9.8203,9.82029c-5.42357,0 -9.82028,-4.39669 -9.82028,-9.82029z" fill="url(#color-22)"/><path d="M254.92473,179.94919c0,-4.45982 3.6154,-8.07527 8.07526,-8.07527c4.45983,0 8.07528,3.61542 8.07528,8.07527c0,4.45982 -3.61543,8.07526 -8.07528,8.07526c-4.45983,0 -8.07526,-3.61541 -8.07526,-8.07526z" fill="url(#color-23)"/></g><g stroke="none" stroke-width="0.5"><path d="M250.16866,180c0,-7.08655 5.74479,-12.83134 12.83135,-12.83134c7.08655,0 12.83134,5.74479 12.83134,12.83135c0,7.08655 -5.74478,12.83134 -12.83134,12.83134c-7.08655,0 -12.83134,-5.74479 -12.83134,-12.83134z" fill="url(#color-24)"/><path d="M252.58282,180c0,-5.75323 4.66392,-10.41719 10.41718,-10.41719c5.75323,0 10.4172,4.66393 10.4172,10.41719c0,5.75323 -4.66393,10.41718 -10.4172,10.41718c-5.75323,0 -10.41718,-4.66392 -10.41718,-10.41718z" fill="url(#color-25)"/><path d="M254.18098,179.95436c0,-4.8706 3.9484,-8.81901 8.819,-8.81901c4.87059,0 8.81902,3.94841 8.81902,8.81901c0,4.8706 -3.9484,8.81901 -8.81902,8.81901c-4.87059,0 -8.819,-3.9484 -8.819,-8.81901z" fill="url(#color-26)"/><path d="M255.74809,179.95436c0,-4.0051 3.24678,-7.2519 7.25191,-7.2519c4.0051,0 7.25191,3.24679 7.25191,7.2519c0,4.0051 -3.2468,7.2519 -7.25191,7.2519c-4.0051,0 -7.25191,-3.24679 -7.25191,-7.2519z" fill="url(#color-27)"/></g><g stroke="none" stroke-width="0.5"><path d="M251.88563,180c0,-6.13829 4.97608,-11.11436 11.11437,-11.11436c6.13829,0 11.11437,4.97607 11.11437,11.11436c0,6.13829 -4.97607,11.11437 -11.11437,11.11437c-6.13829,0 -11.11437,-4.97607 -11.11437,-11.11437z" fill="url(#color-28)"/><path d="M253.97674,180c0,-4.98339 4.03984,-9.02326 9.02325,-9.02326c4.98339,0 9.02327,4.03984 9.02327,9.02326c0,4.98339 -4.03985,9.02326 -9.02327,9.02326c-4.98339,0 -9.02325,-4.03985 -9.02325,-9.02326z" fill="url(#color-29)"/><path d="M255.36106,179.96048c0,-4.21884 3.42005,-7.63894 7.63893,-7.63894c4.21884,0 7.63893,3.42005 7.63893,7.63894c0,4.21884 -3.42005,7.63893 -7.63893,7.63893c-4.21884,0 -7.63893,-3.42005 -7.63893,-7.63893z" fill="url(#color-30)"/><path d="M256.71846,179.96048c0,-3.46918 2.81234,-6.28153 6.28153,-6.28153c3.46918,0 6.28153,2.81233 6.28153,6.28153c0,3.46918 -2.81233,6.28152 -6.28153,6.28152c-3.46918,0 -6.28153,-2.81233 -6.28153,-6.28152z" fill="url(#color-31)"/></g><g stroke="none" stroke-width="0.5"><path d="M253.70666,180c0,-5.13256 4.16077,-9.29334 9.29334,-9.29334c5.13256,0 9.29334,4.16077 9.29334,9.29334c0,5.13256 -4.16076,9.29334 -9.29334,9.29334c-5.13256,0 -9.29334,-4.16076 -9.29334,-9.29334z" fill="url(#color-32)"/><path d="M255.45516,180c0,-4.16689 3.37792,-7.54485 7.54483,-7.54485c4.16688,0 7.54486,3.37793 7.54486,7.54485c0,4.16689 -3.37795,7.54485 -7.54486,7.54485c-4.16688,0 -7.54483,-3.37794 -7.54483,-7.54485z" fill="url(#color-33)"/><path d="M256.61266,179.96694c0,-3.52761 2.8597,-6.38733 6.38733,-6.38733c3.52761,0 6.38734,2.85971 6.38734,6.38733c0,3.52761 -2.85971,6.38733 -6.38734,6.38733c-3.52761,0 -6.38733,-2.85971 -6.38733,-6.38733z" fill="url(#color-34)"/><path d="M257.74767,179.96694c0,-2.90077 2.35155,-5.25234 5.25233,-5.25234c2.90077,0 5.25234,2.35155 5.25234,5.25234c0,2.90077 -2.35156,5.25233 -5.25234,5.25233c-2.90077,0 -5.25233,-2.35156 -5.25233,-5.25233z" fill="url(#color-35)"/></g></g></g></svg>