<svg version="1.1" xmlns="http://www.w3.org/2000/svg" xmlns:xlink="http://www.w3.org/1999/xlink" width="97.38556" height="103.13363" viewBox="0,0,97.38556,103.13363"><defs><linearGradient x1="242.94252" y1="156.31766" x2="242.36127" y2="163.14403" gradientUnits="userSpaceOnUse" id="color-1"><stop offset="0" stop-color="#4f6d73"/><stop offset="1" stop-color="#86b9c2"/></linearGradient><radialGradient cx="240.75261" cy="134.46448" r="13.11833" gradientUnits="userSpaceOnUse" id="color-2"><stop offset="0" stop-color="#7bccb1"/><stop offset="1" stop-color="#618c94"/></radialGradient><linearGradient x1="256.16795" y1="199.31861" x2="268.10608" y2="198.5823" gradientUnits="userSpaceOnUse" id="color-3"><stop offset="0" stop-color="#242424"/><stop offset="1" stop-color="#373737"/></linearGradient><radialGradient cx="254.6528" cy="196.13494" r="3.52256" gradientUnits="userSpaceOnUse" id="color-4"><stop offset="0" stop-color="#bfbfbf"/><stop offset="1" stop-color="#9a9a9a"/></radialGradient><linearGradient x1="268.82911" y1="200.11109" x2="313.50075" y2="208.41347" gradientUnits="userSpaceOnUse" id="color-5"><stop offset="0" stop-color="#b2b2b2"/><stop offset="1" stop-color="#c4c4c4"/></linearGradient><linearGradient x1="269.05799" y1="200.51919" x2="298.29631" y2="205.95327" gradientUnits="userSpaceOnUse" id="color-6"><stop offset="0" stop-color="#cccccc"/><stop offset="1" stop-color="#d8d8d8"/></linearGradient><linearGradient x1="266.42339" y1="199.25572" x2="268.81437" y2="199.74394" gradientUnits="userSpaceOnUse" id="color-7"><stop offset="0" stop-color="#b5b5b5"/><stop offset="1" stop-color="#c5c5c5"/></linearGradient></defs><g transform="translate(-223.55604,-131.19277)"><g data-paper-data="{&quot;isPaintingLayer&quot;:true}" fill-rule="nonzero" stroke-linejoin="miter" stroke-miterlimit="10" stroke-dasharray="" stroke-dashoffset="0" style="mix-blend-mode: normal"><path d="M266.16907,200.56003c-0.45332,0.11687 -1.12073,-2.4439 -1.94042,-2.96095c-0.4339,-0.27369 1.90745,3.60609 0.61072,3.54776c-0.44519,-0.02004 -1.48263,-3.10991 -2.1093,-3.67226c-0.33546,-0.30106 1.32508,4.35755 0.46695,4.35763c-0.5094,0.00007 -1.10426,-2.47683 -1.76474,-3.56137c-0.32178,-0.52836 -1.88137,-4.47069 -1.88137,-4.47069c0,0 -0.18686,-2.65117 -1.57039,-5.3997c-0.3327,-0.66094 -1.24288,-2.89238 -1.5924,-3.56787c-0.82722,-1.5987 -1.59558,-5.72706 -2.0748,-6.72001c-1.0307,-2.13567 -0.46447,-11.22395 -0.46447,-11.22395l5.32418,-0.31704c0,0 -0.15008,5.14583 0.45389,10.59205c1.1872,4.65293 2.15748,7.76772 3.02074,9.88099c1.0217,2.50107 1.90916,5.87168 1.90916,5.87168c0,0 0.77913,2.30863 1.30977,4.28704c0.47745,1.78016 0.73905,3.2441 0.30252,3.35667z" data-paper-data="{&quot;index&quot;:null}" fill="#669093" stroke="#000000" stroke-width="0" stroke-linecap="butt"/><path d="M254.66975,161.13769c5.40134,0.06956 5.47009,3.22616 5.32965,4.94577c-0.14046,1.7196 1.54193,1.56496 -3.40815,1.47994c-4.18391,-0.07187 -3.56704,-0.31858 -3.42658,-2.03817c0.14046,-1.7196 -1.30787,-4.42373 1.50509,-4.3875z" data-paper-data="{&quot;index&quot;:null}" fill="#314247" stroke="#000000" stroke-width="0" stroke-linecap="butt"/><g><path d="M226.1234,227.23575l3.75904,-33.71008c0,0 6.75518,-2.18267 9.822,-2.18267c3.62872,0 0.6063,4.24407 0.6063,4.24407c0,0 -3.09204,0.08829 -3.39803,1.52409c-0.93579,4.39099 -2.78619,30.12458 -2.78619,30.12458z" fill="#453d36" stroke="#000000" stroke-width="0" stroke-linecap="butt"/><path d="M241.62211,232.14463c0,0 -0.3857,1.94015 -1.2126,1.94015c-0.59276,0 -2.64411,0.01366 -4.70436,-0.06689c-1.25258,-0.04897 -1.90215,-0.61779 -2.83553,-0.76063c-1.17507,-0.17983 -2.93853,0.22047 -3.78777,0.02896c-1.56485,-0.35288 -2.37463,-0.77781 -2.37463,-0.77781c0,0 -0.26912,-1.02539 -0.2856,-1.5858c-0.02221,-0.755 0.16433,-2.53701 0.16433,-2.53701c0,0 5.93424,-0.11957 8.24914,0.08075c1.36979,0.11854 4.24057,0.6468 4.24057,0.6468c0,0 1.45975,0.6156 1.67337,1.04283c0.26162,0.52325 0.87307,1.98866 0.87307,1.98866z" data-paper-data="{&quot;index&quot;:null}" fill="#141415" stroke="#000000" stroke-width="0" stroke-linecap="butt"/><path d="M241.35122,231.50999c0,0 -0.38569,0 -1.21259,0c-0.24822,0 0.70239,1.60165 -2.61811,1.33311c-3.13563,-0.25359 -2.77648,-1.18823 -3.8809,-1.26883c-2.30937,-0.16854 -2.58766,0.59503 -3.58733,0.44204c-0.34815,-0.05328 -0.51271,-0.11454 -1.78458,-0.97035c-0.87471,-0.58857 -0.66566,-1.75122 -1.26542,-2.3793c-0.87609,-0.91746 -0.80847,-1.8858 -0.80847,-1.8858l-0.07637,-3.04773c0,0 0.48635,2.20682 1.32529,3.03123c0.75062,0.73761 2.3169,-0.01875 2.80058,-0.01889c0.84695,-0.00024 -0.68885,-3.26805 0.12091,-3.24981c0.43542,0.00981 3.72275,-0.23408 3.72275,-0.23408c0,0 0.12302,3.57988 0.35598,3.60004c1.36978,0.11854 4.60434,0.6468 4.60434,0.6468c0,0 1.45975,0.6156 1.67337,1.04283c0.26163,0.52325 0.63055,2.95873 0.63055,2.95873z" data-paper-data="{&quot;index&quot;:null}" fill="#252527" stroke="#000000" stroke-width="0" stroke-linecap="butt"/><path d="M232.66853,228.57138l2.66771,-1.09134" data-paper-data="{&quot;index&quot;:null}" fill="none" stroke="#ffffff" stroke-width="0.5" stroke-linecap="round"/><path d="M234.60867,228.93516l2.54644,-1.45511" data-paper-data="{&quot;index&quot;:null}" fill="none" stroke="#ffffff" stroke-width="0.5" stroke-linecap="round"/><path d="M238.24645,227.72256l-1.45512,1.45512" data-paper-data="{&quot;index&quot;:null}" fill="none" stroke="#ffffff" stroke-width="0.5" stroke-linecap="round"/><path d="M231.45592,224.69109l2.18267,-0.24252" data-paper-data="{&quot;index&quot;:null}" fill="none" stroke="#969696" stroke-width="0.5" stroke-linecap="round"/><path d="M233.88112,225.17612l-1.94015,0.36378" data-paper-data="{&quot;index&quot;:null}" fill="none" stroke="#969696" stroke-width="0.5" stroke-linecap="round"/></g><g><path d="M239.70443,191.343c3.62872,0 10.54956,2.18267 10.54956,2.18267l3.03149,33.71008h-7.63934c0,0 -1.32697,-25.53818 -2.03751,-29.57011c-0.20138,-1.1427 -3.2979,-2.07857 -3.2979,-2.07857c0,0 -3.67312,-4.24407 -0.6063,-4.24407z" fill="#453d36" stroke="#000000" stroke-width="0" stroke-linecap="butt"/><path d="M259.69261,234.32553c-0.59276,0 -2.64411,0.01365 -4.70436,-0.0669c-1.25258,-0.04897 -1.90215,-0.61779 -2.83553,-0.76063c-1.17507,-0.17982 -2.93854,0.22047 -3.78778,0.02896c-1.56485,-0.35288 -2.37463,-0.77782 -2.37463,-0.77782c0,0 -0.26911,-1.0254 -0.2856,-1.5858c-0.02221,-0.75501 0.16433,-2.53701 0.16433,-2.53701c0,0 5.93425,-0.11957 8.24914,0.08076c1.36979,0.11854 4.24057,0.6468 4.24057,0.6468c0,0 1.45976,0.6156 1.67337,1.04283c0.26162,0.52325 0.87307,1.98865 0.87307,1.98865c0,0 -0.3857,1.94015 -1.21259,1.94015z" data-paper-data="{&quot;index&quot;:null}" fill="#141415" stroke="#000000" stroke-width="0" stroke-linecap="butt"/><path d="M259.4217,231.75072c-0.24822,0 0.7024,1.60165 -2.61811,1.33311c-3.13563,-0.25358 -2.77648,-1.18823 -3.8809,-1.26883c-2.30937,-0.16854 -2.58765,0.59503 -3.58732,0.44205c-0.34815,-0.05328 -0.51271,-0.11454 -1.78459,-0.97035c-0.87472,-0.58857 -0.66566,-1.75122 -1.26542,-2.3793c-0.87609,-0.91745 -0.80847,-1.8858 -0.80847,-1.8858l-0.07637,-3.04773c0,0 0.48635,2.20681 1.32529,3.03122c0.75062,0.73761 2.3169,-0.01875 2.80058,-0.01889c0.84696,-0.00024 -0.68885,-3.26804 0.12091,-3.2498c0.43542,0.00981 3.72275,-0.23409 3.72275,-0.23409c0,0 0.12302,3.57989 0.35598,3.60005c1.36979,0.11854 4.60434,0.6468 4.60434,0.6468c0,0 1.45976,0.6156 1.67338,1.04283c0.26162,0.52325 0.63055,2.95873 0.63055,2.95873c0,0 -0.3857,0 -1.2126,0z" data-paper-data="{&quot;index&quot;:null}" fill="#252527" stroke="#000000" stroke-width="0" stroke-linecap="butt"/><path d="M251.95162,228.81212l2.6677,-1.09133" fill="none" stroke="#ffffff" stroke-width="0.5" stroke-linecap="round"/><path d="M256.43822,227.72079l-2.54645,1.45511" fill="none" stroke="#ffffff" stroke-width="0.5" stroke-linecap="round"/><path d="M257.52956,227.96331l-1.45512,1.45511" fill="none" stroke="#ffffff" stroke-width="0.5" stroke-linecap="round"/><path d="M250.73903,224.93183l2.18266,-0.24252" fill="none" stroke="#969696" stroke-width="0.5" stroke-linecap="round"/><path d="M253.16422,225.41686l-1.94015,0.36378" fill="none" stroke="#969696" stroke-width="0.5" stroke-linecap="round"/></g><path d="M238.54699,162.81925l0.58125,-6.82634l7.62855,0.64955l-0.58125,6.82634z" fill="url(#color-1)" stroke="#000000" stroke-width="0" stroke-linecap="butt"/><path d="M229.68738,192.8479c0,0 0.63817,-5.52547 0.57708,-10.93429c-0.04151,-3.67524 -0.80923,-7.05328 -0.75396,-9.5518c0.10376,-4.68943 0.92562,-13.35184 0.92562,-13.35184c0,0 3.72809,-0.26945 5.46823,0.24625c2.21511,0.65645 6.74471,3.37306 6.74471,3.37306c0,0 3.84779,-1.85084 5.78963,-2.10326c2.0489,-0.26634 6.19983,0.54473 6.19983,0.54473c0,0 -0.85079,9.17802 -1.29985,12.59141c-0.39731,3.02003 -1.42664,6.26968 -2.10167,10.73333c-0.69572,4.60052 -1.03149,10.37143 -1.03149,10.37143c0,0 -2.68176,-1.00045 -5.48072,-1.30724c-1.27109,-0.13932 -1.87016,0.85052 -3.08657,0.90673c-0.97228,0.04492 -2.57473,-0.83436 -3.49311,-0.94944c-0.69428,-0.087 -1.99138,-0.70209 -2.48349,-0.74811c-0.99365,-0.09294 -1.68331,0.72509 -2.85039,0.78565c-1.3557,0.07034 -3.1239,-0.60661 -3.1239,-0.60661z" fill="#374a50" stroke="#292e32" stroke-width="0" stroke-linecap="butt"/><g stroke="none" stroke-linecap="butt"><path d="M256.9588,145.66034c-0.62711,7.36489 -6.85253,12.84851 -13.90487,12.24801c-7.05234,-0.60049 -12.26103,-7.05771 -11.63392,-14.4226c0.62711,-7.36489 6.85253,-12.84851 13.90487,-12.24801c7.05234,0.60049 12.26103,7.05771 11.63392,14.4226z" fill="url(#color-2)" stroke-width="0"/><path d="M249.45841,150.4465c-0.99798,0.06358 -1.06155,-0.93439 -1.06155,-0.93439l-0.01954,-0.30663c-0.07973,-1.26387 -0.05655,-2.51003 -0.03186,-3.77571c0,0 0.01951,-0.99981 1.01932,-0.98029c0.99981,0.01951 0.9803,1.01932 0.9803,1.01932c-0.02362,1.21021 -0.04963,2.40122 0.02818,3.60951l0.01954,0.30663c0,0 0.06359,0.99798 -0.93439,1.06156z" fill="#191412" stroke-width="0.5"/><path d="M252.63588,146.03521c-0.2478,-1.33656 2.07695,-3.96191 2.07695,-3.96191c0,0 1.80607,2.61707 1.69402,4.25482c-0.11921,1.74252 -3.46777,1.34257 -3.77097,-0.29291z" fill="#191412" stroke-width="0.5"/><path d="M240.10856,144.86319c-0.14882,-1.40381 2.95398,-3.80246 2.95398,-3.80246c0,0 2.11524,2.69669 1.76119,4.34719c-0.37671,1.75606 -4.53307,1.17305 -4.71517,-0.54473z" data-paper-data="{&quot;index&quot;:null}" fill="#191412" stroke-width="0.5"/><path d="M239.15626,153.77611c0.03479,-0.40854 0.38492,-0.71233 0.78205,-0.67852c0.39712,0.03381 0.69086,0.39243 0.65607,0.80097c-0.03479,0.40854 -0.38491,0.71233 -0.78205,0.67852c-0.39712,-0.03381 -0.69086,-0.39243 -0.65607,-0.80097z" fill="#00ffcc" stroke-width="0.5"/><path d="M238.67142,150.75865c0.03479,-0.40854 0.38491,-0.71233 0.78204,-0.67852c0.39712,0.03381 0.69086,0.39242 0.65607,0.80097c-0.03479,0.40854 -0.38492,0.71233 -0.78205,0.67852c-0.39712,-0.03381 -0.69085,-0.39242 -0.65606,-0.80097z" fill="#00ffcc" stroke-width="0.5"/><path d="M236.35887,151.78273c0.03479,-0.40854 0.38491,-0.71233 0.78204,-0.67852c0.39712,0.03381 0.69086,0.39243 0.65607,0.80097c-0.03479,0.40854 -0.38492,0.71233 -0.78205,0.67852c-0.39712,-0.03381 -0.69085,-0.39241 -0.65606,-0.80097z" fill="#00ffcc" stroke-width="0.5"/><path d="M235.87402,148.76526c0.03479,-0.40854 0.38492,-0.71232 0.78204,-0.67851c0.39712,0.03381 0.69086,0.39242 0.65607,0.80096c-0.03479,0.40854 -0.38492,0.71233 -0.78205,0.67852c-0.39712,-0.03381 -0.69086,-0.39243 -0.65607,-0.80097z" fill="#00ffcc" stroke-width="0.5"/><path d="M252.57599,154.77742c-0.21157,-0.01801 -0.35489,-0.36381 -0.32011,-0.77236c0.03479,-0.40854 0.23451,-0.72514 0.44608,-0.70712c0.21157,0.01801 0.35488,0.36381 0.3201,0.77236c-0.03479,0.40854 -0.2345,0.72514 -0.44607,0.70712z" fill="#00ffcc" stroke-width="0.5"/><path d="M253.21994,151.85607c-0.21157,-0.01801 -0.35489,-0.36381 -0.32011,-0.77236c0.03479,-0.40854 0.23451,-0.72514 0.44608,-0.70712c0.21157,0.01801 0.35489,0.36381 0.32011,0.77236c-0.03479,0.40854 -0.23451,0.72514 -0.44608,0.70712z" fill="#00ffcc" stroke-width="0.5"/><path d="M254.29378,153.16851c-0.21157,-0.01801 -0.35489,-0.36382 -0.32011,-0.77236c0.03479,-0.40854 0.23451,-0.72513 0.44608,-0.70711c0.21157,0.01801 0.35489,0.36381 0.32011,0.77235c-0.03479,0.40854 -0.23451,0.72514 -0.44608,0.70712z" fill="#00ffcc" stroke-width="0.5"/><path d="M254.93771,150.24716c-0.21157,-0.01801 -0.35489,-0.36381 -0.32011,-0.77235c0.03479,-0.40854 0.2345,-0.72514 0.44608,-0.70712c0.21157,0.01801 0.35489,0.36382 0.32011,0.77236c-0.03479,0.40854 -0.23451,0.72513 -0.44608,0.70711z" fill="#00ffcc" stroke-width="0.5"/><path d="M246.46076,137.90657c0.03347,-0.39313 0.3793,-0.68467 0.77243,-0.6512c0.39313,0.03347 0.68467,0.3793 0.6512,0.77243c-0.03347,0.39313 -0.3793,0.68467 -0.77243,0.6512c-0.39313,-0.03347 -0.68467,-0.3793 -0.6512,-0.77243z" fill="#00ffcc" stroke-width="0.5"/><path d="M248.67123,135.23096c0.03347,-0.39313 0.3793,-0.68468 0.77243,-0.65121c0.39313,0.03347 0.68467,0.37931 0.6512,0.77244c-0.03347,0.39313 -0.3793,0.68467 -0.77243,0.6512c-0.39313,-0.03347 -0.68467,-0.3793 -0.6512,-0.77243z" fill="#00ffcc" stroke-width="0.5"/><path d="M250.39131,138.31469c0.03347,-0.39313 0.3793,-0.68467 0.77243,-0.6512c0.39313,0.03347 0.68467,0.3793 0.6512,0.77243c-0.03347,0.39313 -0.3793,0.68467 -0.77243,0.6512c-0.39313,-0.03347 -0.68467,-0.3793 -0.6512,-0.77243z" fill="#00ffcc" stroke-width="0.5"/></g><g stroke="none" stroke-width="0" stroke-linecap="butt"><path d="M256.23558,200.41498l0.91762,-4.94784l10.88525,2.01877l-0.91762,4.94785z" fill="url(#color-3)"/><path d="M259.01498,197.37844c0.11976,1.94175 -1.35727,3.61298 -3.299,3.73272c-1.94176,0.11977 -3.61298,-1.35726 -3.73273,-3.29901c-0.11978,-1.94176 1.35726,-3.61298 3.299,-3.73272c1.94176,-0.11977 3.61298,1.35726 3.73273,3.29901z" fill="url(#color-4)"/><path d="M267.97927,204.68377l1.69969,-9.14536l44.00525,10.11009l7.25739,3.75394l-8.00153,1.0705z" fill="url(#color-5)"/><path d="M268.50175,203.5121l1.10269,-6.34344l36.72883,8.54792l9.77653,3.03535l-9.92548,-0.60275z" fill="url(#color-6)"/><path d="M273.33124,188.56831c0,0 -3.39897,7.24903 -4.23998,11.10669c-0.92338,4.23554 -1.07625,13.27891 -1.07625,13.27891c0,0 -2.18468,-9.76915 -1.28912,-13.87711c0.87608,-4.0186 6.60537,-10.5085 6.60537,-10.5085z" fill="url(#color-7)"/></g><path d="M250.68882,201.11086c-1.99031,-1.55454 -4.23583,-3.55007 -4.23583,-3.55007c0,0 -3.39886,-2.62964 -5.74608,-4.99311c-1.98328,-1.99701 -4.3067,-5.24613 -7.72261,-9.42728c-3.73747,-6.3079 -7.19944,-15.23525 -7.19944,-15.23525l5.76492,-2.44722c0,0 4.07937,12.25704 6.00749,14.45488c0.89645,1.02186 2.23489,2.77661 3.65143,4.48506c0.59852,0.72184 2.69333,2.82899 3.28346,3.52475c2.45394,2.89329 5.37337,4.38144 5.37337,4.38144c0,0 3.72431,3.66775 4.16918,4.28729c0.91316,1.27169 3.43838,3.13904 3.19314,3.71723c-0.41312,0.97403 -4.90188,-3.15306 -4.72162,-2.62735c0.33672,0.982 3.34471,3.64675 3.15319,4.16173c-0.5579,1.49998 -3.83495,-3.025 -3.73312,-2.40078c0.19237,1.17929 2.77789,3.16935 2.42704,3.62767c-0.33786,0.44133 -1.87366,-0.5602 -3.66454,-1.95894z" data-paper-data="{&quot;index&quot;:null}" fill="#72a2a6" stroke="#000000" stroke-width="0" stroke-linecap="butt"/><path d="M231.99007,163.6467c0.85387,1.94828 1.67204,1.98833 -3.17661,3.75129c-5.73653,2.0858 -3.71323,1.59084 -4.56709,-0.35745c-0.85387,-1.94828 -2.04059,-5.65577 4.22822,-7.90463c3.26472,-1.17119 2.6616,2.56249 3.51548,4.51079z" fill="#3e5359" stroke="#000000" stroke-width="0" stroke-linecap="butt"/></g></g></svg>