<svg version="1.1" xmlns="http://www.w3.org/2000/svg" xmlns:xlink="http://www.w3.org/1999/xlink" width="246.53908" height="177.47528" viewBox="0,0,246.53908,177.47528"><defs><radialGradient cx="280.06247" cy="237.95935" r="38.33033" gradientUnits="userSpaceOnUse" id="color-1"><stop offset="0" stop-color="#696969"/><stop offset="1" stop-color="#0a0a0a"/></radialGradient><linearGradient x1="280.06247" y1="200.34215" x2="280.06247" y2="275.57656" gradientUnits="userSpaceOnUse" id="color-2"><stop offset="0" stop-color="#636363"/><stop offset="1" stop-color="#424242"/></linearGradient><linearGradient x1="289.17755" y1="229.13163" x2="289.17755" y2="263.86226" gradientUnits="userSpaceOnUse" id="color-3"><stop offset="0" stop-color="#000000" stop-opacity="0"/><stop offset="1" stop-color="#000000" stop-opacity="0"/></linearGradient><linearGradient x1="290.85504" y1="224.26973" x2="290.85504" y2="264.59456" gradientUnits="userSpaceOnUse" id="color-4"><stop offset="0" stop-color="#5d5d5d"/><stop offset="1" stop-color="#474747"/></linearGradient><radialGradient cx="298.15155" cy="229.24038" r="5.402" gradientUnits="userSpaceOnUse" id="color-5"><stop offset="0" stop-color="#939393"/><stop offset="1" stop-color="#393939"/></radialGradient><linearGradient x1="298.15155" y1="223.92693" x2="298.15155" y2="234.55383" gradientUnits="userSpaceOnUse" id="color-6"><stop offset="0" stop-color="#666666"/><stop offset="1" stop-color="#4f4f4f"/></linearGradient><linearGradient x1="280.27547" y1="263.44994" x2="280.27547" y2="266.67853" gradientUnits="userSpaceOnUse" id="color-7"><stop offset="0" stop-color="#348317"/><stop offset="1" stop-color="#3c5b0d"/></linearGradient><radialGradient cx="260.60152" cy="235.29952" r="17.1815" gradientUnits="userSpaceOnUse" id="color-8"><stop offset="0" stop-color="#939393"/><stop offset="1" stop-color="#535353"/></radialGradient><radialGradient cx="260.42393" cy="222.63314" r="17.1815" gradientUnits="userSpaceOnUse" id="color-9"><stop offset="0" stop-color="#393939"/><stop offset="1" stop-color="#1b1b1b"/></radialGradient><radialGradient cx="260.33514" cy="220.11587" r="14.65089" gradientUnits="userSpaceOnUse" id="color-10"><stop offset="0" stop-color="#373737"/><stop offset="1" stop-color="#1b1b1b"/></radialGradient><linearGradient x1="252.73172" y1="215.95895" x2="263.76586" y2="215.95895" gradientUnits="userSpaceOnUse" id="color-11"><stop offset="0" stop-color="#535353"/><stop offset="1" stop-color="#232323"/></linearGradient><radialGradient cx="270.29102" cy="225.8918" r="7.92787" gradientUnits="userSpaceOnUse" id="color-12"><stop offset="0" stop-color="#939393"/><stop offset="1" stop-color="#535353"/></radialGradient><radialGradient cx="278.35452" cy="229.49818" r="4.44769" gradientUnits="userSpaceOnUse" id="color-13"><stop offset="0" stop-color="#1d1d1d"/><stop offset="1" stop-color="#080808"/></radialGradient><linearGradient x1="278.35452" y1="225.0505" x2="278.35452" y2="233.94587" gradientUnits="userSpaceOnUse" id="color-14"><stop offset="0" stop-color="#ffffff"/><stop offset="1" stop-color="#a0a0a0"/></linearGradient><radialGradient cx="255.45285" cy="243.7836" r="23.17815" gradientUnits="userSpaceOnUse" id="color-15"><stop offset="0" stop-color="#adadad"/><stop offset="1" stop-color="#666666"/></radialGradient><radialGradient cx="258.38665" cy="250.60403" r="16.43192" gradientUnits="userSpaceOnUse" id="color-16"><stop offset="0" stop-color="#1e1e1e"/><stop offset="1" stop-color="#171717"/></radialGradient><linearGradient x1="296.30302" y1="229.25289" x2="300.14982" y2="229.3174" gradientUnits="userSpaceOnUse" id="color-17"><stop offset="0" stop-color="#644520"/><stop offset="1" stop-color="#5c401f"/></linearGradient><linearGradient x1="298.24777" y1="227.33522" x2="298.20507" y2="231.23509" gradientUnits="userSpaceOnUse" id="color-18"><stop offset="0" stop-color="#644520"/><stop offset="1" stop-color="#5c401f"/></linearGradient><linearGradient x1="296.8724" y1="227.89998" x2="299.58044" y2="230.67031" gradientUnits="userSpaceOnUse" id="color-19"><stop offset="0" stop-color="#644520"/><stop offset="1" stop-color="#5c401f"/></linearGradient><linearGradient x1="296.84747" y1="230.64481" x2="299.60536" y2="227.92548" gradientUnits="userSpaceOnUse" id="color-20"><stop offset="0" stop-color="#644520"/><stop offset="1" stop-color="#5c401f"/></linearGradient><linearGradient x1="283.50284" y1="229.28515" x2="312.95" y2="229.28515" gradientUnits="userSpaceOnUse" id="color-21"><stop offset="0" stop-color="#e08200"/><stop offset="1" stop-color="#82491d"/></linearGradient><linearGradient x1="295.03721" y1="229.28515" x2="301.41563" y2="229.28515" gradientUnits="userSpaceOnUse" id="color-22"><stop offset="0" stop-color="#636363"/><stop offset="1" stop-color="#3a3a3a"/></linearGradient><linearGradient x1="295.03721" y1="229.28515" x2="301.41563" y2="229.28515" gradientUnits="userSpaceOnUse" id="color-23"><stop offset="0" stop-color="#adadad"/><stop offset="1" stop-color="#7e7e7e"/></linearGradient><radialGradient cx="291.27731" cy="228.46452" r="9.3584" gradientUnits="userSpaceOnUse" id="color-24"><stop offset="0" stop-color="#454545"/><stop offset="1" stop-color="#2f2f2f"/></radialGradient><radialGradient cx="307.30452" cy="228.112" r="2.81513" gradientUnits="userSpaceOnUse" id="color-25"><stop offset="0" stop-color="#939393"/><stop offset="1" stop-color="#454545"/></radialGradient><radialGradient cx="307.9132" cy="229.3674" r="2.81513" gradientUnits="userSpaceOnUse" id="color-26"><stop offset="0" stop-color="#636363"/><stop offset="1" stop-color="#232323"/></radialGradient></defs><g transform="translate(-239.7193,-160.0288)"><g data-paper-data="{&quot;isPaintingLayer&quot;:true}" fill-rule="nonzero" stroke-linejoin="miter" stroke-miterlimit="10" stroke-dasharray="" stroke-dashoffset="0" style="mix-blend-mode: normal"><text transform="translate(240.03135,187.4892) scale(0.6241,0.6241)" font-size="40" xml:space="preserve" fill="#ffffff" fill-rule="nonzero" stroke="none" stroke-width="1" stroke-linecap="butt" stroke-linejoin="miter" stroke-miterlimit="10" stroke-dasharray="" stroke-dashoffset="0" font-family="Malgun Gothic" font-weight="normal" text-anchor="start" style="mix-blend-mode: normal"><tspan x="0" dy="0">Steam Engine</tspan></text><text transform="translate(324.45435,215.62294) scale(0.45565,0.45565)" font-size="40" xml:space="preserve" fill="#d8d8d8" fill-rule="nonzero" stroke="none" stroke-width="1" stroke-linecap="butt" stroke-linejoin="miter" stroke-miterlimit="10" stroke-dasharray="" stroke-dashoffset="0" font-family="Malgun Gothic" font-weight="normal" text-anchor="start" style="mix-blend-mode: normal"><tspan x="0" dy="0">Obtained by:</tspan></text><text transform="translate(324.45435,256.62748) scale(0.45566,0.45566)" font-size="40" xml:space="preserve" fill="#d8d8d8" fill-rule="nonzero" stroke="none" stroke-width="1" stroke-linecap="butt" stroke-linejoin="miter" stroke-miterlimit="10" stroke-dasharray="" stroke-dashoffset="0" font-family="Malgun Gothic" font-weight="normal" text-anchor="start" style="mix-blend-mode: normal"><tspan x="0" dy="0">Materials:</tspan></text><text transform="translate(241.38373,296.92705) scale(0.45566,0.45566)" font-size="40" xml:space="preserve" fill="#d8d8d8" fill-rule="nonzero" stroke="none" stroke-width="1" stroke-linecap="butt" stroke-linejoin="miter" stroke-miterlimit="10" stroke-dasharray="" stroke-dashoffset="0" font-family="Malgun Gothic" font-weight="normal" text-anchor="start" style="mix-blend-mode: normal"><tspan x="0" dy="0">Description:</tspan></text><text transform="translate(325.17562,233.72207) scale(0.37382,0.37382)" font-size="40" xml:space="preserve" fill="#9f9f9f" fill-rule="nonzero" stroke="none" stroke-width="1" stroke-linecap="butt" stroke-linejoin="miter" stroke-miterlimit="10" stroke-dasharray="" stroke-dashoffset="0" font-family="Malgun Gothic" font-weight="normal" text-anchor="start" style="mix-blend-mode: normal"><tspan x="0" dy="0">Factory</tspan></text><text transform="translate(325.17562,275.43973) scale(0.37383,0.37383)" font-size="40" xml:space="preserve" fill="#9f9f9f" fill-rule="nonzero" stroke="none" stroke-width="1" stroke-linecap="butt" stroke-linejoin="miter" stroke-miterlimit="10" stroke-dasharray="" stroke-dashoffset="0" font-family="Malgun Gothic" font-weight="normal" text-anchor="start" style="mix-blend-mode: normal"><tspan x="0" dy="0">Iron (x25), Copper (x25)</tspan></text><path d="M241.73214,275.57656v-75.23442h76.66066v75.23442z" fill="url(#color-1)" stroke="url(#color-2)" stroke-width="3.5" stroke-linecap="butt"/><text transform="translate(241.64328,315.44811) scale(0.37383,0.37383)" font-size="40" xml:space="preserve" fill="#9f9f9f" fill-rule="nonzero" stroke="none" stroke-width="1" stroke-linecap="butt" stroke-linejoin="miter" stroke-miterlimit="10" stroke-dasharray="" stroke-dashoffset="0" font-family="Malgun Gothic" font-weight="normal" text-anchor="start" style="mix-blend-mode: normal"><tspan x="0" dy="0">Input coal and water, output</tspan><tspan x="0" dy="48px">some energy.</tspan></text><g><path d="M278.70062,263.86226v-34.73063h20.18183l6.63958,35.03944z" fill-opacity="0.00392" fill="#ffffff" stroke="url(#color-3)" stroke-width="1.5" stroke-linecap="butt"/><path d="M294.07274,240.91551l6.15077,0.08024" fill="none" stroke="#666666" stroke-width="1.5" stroke-linecap="round"/><path d="M291.47905,246.77354l9.78195,0.08024" fill="none" stroke="#666666" stroke-width="1.5" stroke-linecap="round"/><path d="M302.29848,253.11306h-13.11671" fill="none" stroke="#666666" stroke-width="1.5" stroke-linecap="round"/><path d="M286.88449,259.61307l16.52557,-0.08024" fill="none" stroke="#666666" stroke-width="1.5" stroke-linecap="round"/><path d="M283.65363,263.59024l14.866,-35.21195l7.11484,36.21626" fill="none" stroke="url(#color-4)" stroke-width="1.5" stroke-linecap="round"/><path d="M303.55355,229.24038c0,2.93454 -2.41856,5.31345 -5.402,5.31345c-2.98345,0 -5.402,-2.37891 -5.402,-5.31345c0,-2.93454 2.41856,-5.31345 5.402,-5.31345c2.98345,0 5.402,2.37891 5.402,5.31345z" fill="url(#color-5)" stroke="url(#color-6)" stroke-width="1.5" stroke-linecap="butt"/><path d="M248.83367,266.67853v-3.22854h62.8836v3.22854z" fill="#312d29" stroke="url(#color-7)" stroke-width="0" stroke-linecap="butt"/><path d="M250.12391,262.85503v-34.363c0,0 9.48689,0 14.29572,0c4.89761,0 14.82848,0 14.82848,0v34.363c0,0 -4.39318,1.63978 -14.55959,1.82955c-10.67537,0.19927 -14.56461,-1.82955 -14.56461,-1.82955z" fill="url(#color-8)" stroke="none" stroke-width="1.5" stroke-linecap="butt"/><path d="M249.94632,228.74921v-7.62702h29.1242v7.62702c0,0 -3.95172,1.81235 -14.11813,1.85447c-10.67537,0.04423 -15.00606,-1.85447 -15.00606,-1.85447z" fill="url(#color-9)" stroke="none" stroke-width="1.5" stroke-linecap="butt"/><path d="M279.3369,221.25538c0,1.39762 -6.55943,2.2567 -14.65089,2.2567c-8.09147,0 -14.65089,-0.85909 -14.65089,-2.2567c0,-1.39762 6.55943,-2.53061 14.65089,-2.53061c8.09147,0 14.65089,1.13299 14.65089,2.53061z" fill="url(#color-10)" stroke="none" stroke-width="1.5" stroke-linecap="butt"/><path d="M252.73172,221.21498c0,0 0.12377,-2.98635 0.49369,-4.74131c0.13548,-0.64272 1.64681,-1.21369 1.93313,-2.15843c0.1342,-0.44281 -0.30331,-0.70639 -0.31023,-1.15515c-0.01824,-1.18256 0.26958,-1.02641 0.26958,-1.02641l6.22792,0.01438c0,0 0.14496,-0.37414 0.21023,1.012c0.01543,0.32787 -0.49411,0.85594 -0.39942,1.1893c0.22816,0.80319 1.78053,1.53465 1.90589,2.09684c0.3835,1.71985 0.70336,4.76879 0.70336,4.76879c0,0 -2.68881,0.78265 -5.4902,0.72699c-2.72532,-0.05415 -5.54393,-0.72699 -5.54393,-0.72699z" fill="url(#color-11)" stroke="none" stroke-width="1.5" stroke-linecap="butt"/><path d="M270.67022,225.23465c2.74227,0.00286 5.8541,-0.01617 5.8541,-0.01617c0,0 3.97299,-0.14366 4.00779,4.03771c-0.14838,4.09062 -4.03119,4.32046 -4.03119,4.32046c0,0 -3.55404,0.07795 -5.84798,0.07555c-3.30531,-0.00345 -5.93786,-0.6313 -5.97614,-4.21502c-0.03995,-3.73997 2.68812,-4.20598 5.99341,-4.20253z" fill="url(#color-12)" stroke="none" stroke-width="1.5" stroke-linecap="butt"/><path d="M276.18009,229.49818c0,-2.45639 0.97353,-4.44769 2.17443,-4.44769c1.2009,0 2.17443,1.99129 2.17443,4.44769c0,2.45639 -0.97353,4.44769 -2.17443,4.44769c-1.2009,0 -2.17443,-1.99129 -2.17443,-4.44769z" fill="url(#color-13)" stroke="url(#color-14)" stroke-width="1.5" stroke-linecap="butt"/><path d="M279.84149,250.68099c0,5.67487 0.08054,12.11442 0.08054,12.11442c0,0 0.05133,2.03543 -15.06318,2.12521c-14.7872,-0.28969 -15.14969,-2.13812 -15.14969,-2.13812c0,0 -0.29518,-7.35441 -0.29518,-12.10151c0,-6.84001 2.25961,-12.2905 15.21375,-12.38494c13.51894,-0.09856 15.21375,5.54492 15.21375,12.38494z" fill="url(#color-15)" stroke="none" stroke-width="1.5" stroke-linecap="butt"/><path d="M275.67674,255.43077c0,3.97123 0.0571,8.7883 0.0571,8.7883c0,0 -0.02882,0.77567 -10.74411,0.83849c-10.48323,-0.20272 -10.76699,-0.86888 -10.76699,-0.86888c0,0 -0.11727,-5.43593 -0.11727,-8.75791c0,-4.78659 1.60193,-8.6008 10.78564,-8.66689c9.58412,-0.06897 10.78564,3.8803 10.78564,8.66689z" fill="url(#color-16)" stroke="none" stroke-width="1.5" stroke-linecap="butt"/><g stroke-width="1.5"><path d="M298.32182,215.0158l-0.19081,28.53869" fill="none" stroke="url(#color-17)" stroke-linecap="round"/><path d="M312.30292,229.30424l-28.15301,-0.03819" fill="none" stroke="url(#color-18)" stroke-linecap="round"/><path d="M308.1281,219.1426l-19.80336,20.28509" fill="none" stroke="url(#color-19)" stroke-linecap="round"/><path d="M288.31363,219.15377l19.82558,20.26276" fill="none" stroke="url(#color-20)" stroke-linecap="round"/><path d="M312.95,229.28515c0,8.12463 -6.59197,14.71095 -14.72358,14.71095c-8.13161,0 -14.72358,-6.58632 -14.72358,-14.71095c0,-8.12463 6.59198,-14.71095 14.72358,-14.71095c8.13161,0 14.72358,6.58632 14.72358,14.71095z" fill="none" stroke="url(#color-21)" stroke-linecap="butt"/><path d="M301.41563,229.28515c0,1.74348 -1.42786,3.15686 -3.18921,3.15686c-1.76136,0 -3.18921,-1.41337 -3.18921,-3.15686c0,-1.74348 1.42786,-3.15686 3.18921,-3.15686c1.76136,0 3.18921,1.41337 3.18921,3.15686z" fill="url(#color-22)" stroke="url(#color-23)" stroke-linecap="butt"/></g><path d="M305.31491,229.26341l-26.20353,-0.03804" fill="none" stroke="url(#color-24)" stroke-width="1.5" stroke-linecap="round"/><path d="M310.72833,229.3674c-0.01401,2.89851 -1.26038,1.94016 -2.81513,1.94016c-1.55476,0 -2.69951,-0.86937 -2.73905,-1.94016c-0.07609,-2.06062 1.41254,-1.63582 2.9673,-1.63582c1.55476,0 2.60088,-1.26091 2.58688,1.63582z" fill="url(#color-25)" stroke="url(#color-26)" stroke-width="1.5" stroke-linecap="butt"/></g></g></g></svg>