<svg version="1.1" xmlns="http://www.w3.org/2000/svg" xmlns:xlink="http://www.w3.org/1999/xlink" width="97.30873" height="105.86851" viewBox="0,0,97.30873,105.86851"><defs><linearGradient x1="240.27732" y1="203.11467" x2="237.40783" y2="224.79604" gradientUnits="userSpaceOnUse" id="color-1"><stop offset="0" stop-color="#fd0101"/><stop offset="1" stop-color="#fd0101" stop-opacity="0"/></linearGradient><linearGradient x1="240.16601" y1="203.97543" x2="237.52811" y2="223.90692" gradientUnits="userSpaceOnUse" id="color-2"><stop offset="0" stop-color="#fc531e"/><stop offset="1" stop-color="#fc531e" stop-opacity="0"/></linearGradient><linearGradient x1="239.93412" y1="203.3952" x2="237.82186" y2="219.35498" gradientUnits="userSpaceOnUse" id="color-3"><stop offset="0" stop-color="#fe761a"/><stop offset="1" stop-color="#fe761a" stop-opacity="0"/></linearGradient><linearGradient x1="239.83201" y1="204.25633" x2="237.93618" y2="218.58094" gradientUnits="userSpaceOnUse" id="color-4"><stop offset="0" stop-color="#fe9a1c"/><stop offset="1" stop-color="#fe9a1c" stop-opacity="0"/></linearGradient><linearGradient x1="240.08818" y1="203.44152" x2="238.69679" y2="213.95463" gradientUnits="userSpaceOnUse" id="color-5"><stop offset="0" stop-color="#faf302"/><stop offset="1" stop-color="#faf302" stop-opacity="0"/></linearGradient><linearGradient x1="239.97616" y1="205.21666" x2="239.03697" y2="212.31305" gradientUnits="userSpaceOnUse" id="color-6"><stop offset="0" stop-color="#fdf775"/><stop offset="1" stop-color="#fdf775" stop-opacity="0"/></linearGradient><linearGradient x1="232.05331" y1="202.54262" x2="245.28718" y2="202.54262" gradientUnits="userSpaceOnUse" id="color-7"><stop offset="0" stop-color="#515151"/><stop offset="1" stop-color="#242424"/></linearGradient><linearGradient x1="224.58993" y1="177.30136" x2="252.01047" y2="177.30136" gradientUnits="userSpaceOnUse" id="color-8"><stop offset="0" stop-color="#ffa000"/><stop offset="1" stop-color="#de6b00"/></linearGradient><radialGradient cx="219.42651" cy="194.9533" r="12.35841" gradientUnits="userSpaceOnUse" id="color-9"><stop offset="0" stop-color="#dedede"/><stop offset="1" stop-color="#9c9c9c"/></radialGradient><radialGradient cx="257.5695" cy="195.31889" r="12.35841" gradientUnits="userSpaceOnUse" id="color-10"><stop offset="0" stop-color="#dedede"/><stop offset="1" stop-color="#9c9c9c"/></radialGradient><radialGradient cx="238.52449" cy="177.75476" r="22.57159" gradientUnits="userSpaceOnUse" id="color-11"><stop offset="0" stop-color="#3c3c3c"/><stop offset="1" stop-color="#939393"/></radialGradient><linearGradient x1="239.74788" y1="156.06832" x2="239.74788" y2="162.91937" gradientUnits="userSpaceOnUse" id="color-12"><stop offset="0" stop-color="#696969"/><stop offset="1" stop-color="#a0a0a0"/></linearGradient><radialGradient cx="235.71183" cy="133.41612" r="13.11833" gradientUnits="userSpaceOnUse" id="color-13"><stop offset="0" stop-color="#dcdcdc"/><stop offset="1" stop-color="#a0a0a0"/></radialGradient><radialGradient cx="240.22191" cy="140.53847" r="9.85359" gradientUnits="userSpaceOnUse" id="color-14"><stop offset="0" stop-color="#c5dfff"/><stop offset="1" stop-color="#219cff"/></radialGradient><radialGradient cx="230.94677" cy="133.70646" r="10.07074" gradientUnits="userSpaceOnUse" id="color-15"><stop offset="0" stop-color="#303030"/><stop offset="1" stop-color="#292929"/></radialGradient><radialGradient cx="247.37487" cy="130.52661" r="2.65078" gradientUnits="userSpaceOnUse" id="color-16"><stop offset="0" stop-color="#787878"/><stop offset="1" stop-color="#292929"/></radialGradient><radialGradient cx="236.22257" cy="132.69164" r="4.17314" gradientUnits="userSpaceOnUse" id="color-17"><stop offset="0" stop-color="#a7a7a7"/><stop offset="1" stop-color="#292929"/></radialGradient></defs><g transform="translate(-190.3704,-129.64767)"><g data-paper-data="{&quot;isPaintingLayer&quot;:true}" fill-rule="nonzero" stroke-linejoin="miter" stroke-miterlimit="10" stroke-dasharray="" stroke-dashoffset="0" style="mix-blend-mode: normal"><g data-paper-data="{&quot;index&quot;:null}" stroke="none" stroke-width="0.5" stroke-linecap="butt"><path d="M243.95648,205.56912c-0.11463,-0.02231 -0.19703,-0.07811 -0.19703,-0.07811l-0.04584,-0.05613c-1.0278,-0.33208 -1.70189,-1.13872 -2.82296,-1.31631c-1.15288,0.42714 -3.43502,1.86967 -4.56878,1.34626c-0.45512,-0.2101 -0.5933,-0.82272 -0.98282,-1.13823c-0.19069,-0.15445 -0.97936,1.22212 -0.98679,1.23171c-0.95491,1.2328 -2.2029,2.69962 -3.32312,3.83238c0.47302,-0.17877 1.37611,0.00209 1.53036,0.27671c0.23895,0.42541 -0.17545,0.96113 -0.30318,1.43205c-0.16346,0.60266 -0.60935,3.57034 -1.07491,4.75971c0.10581,-0.10332 0.21318,-0.19466 0.2917,-0.24042c0.32996,-0.19228 1.50146,-0.78558 1.93774,-0.41265c0.70527,0.60287 -0.43366,2.9119 -0.71893,3.46683c-1.95994,2.89995 2.29622,-0.90428 3.24719,-0.25715c0.41522,0.28254 0.22384,0.98767 0.22439,1.4899c0.00106,0.97503 0.58057,3.61521 0.60963,3.85405c0.14403,-1.12434 0.2023,-3.83814 1.95422,-3.81738c0.19723,0.00234 1.5055,2.09795 1.81896,2.77295c0.04754,-0.17938 0.14717,-0.42282 0.19545,-0.55134c0.18282,-0.48667 0.46362,-1.70805 0.93582,-1.90157c0.41459,-0.16992 1.63394,1.02549 2.1408,1.85162c0.20424,-1.90951 0.5315,-5.95596 2.38056,-5.37135c1.38437,0.88376 -0.73576,-2.36573 -0.56124,-3.34342c0.08312,-0.46567 0.1935,-1.02524 0.58284,-1.29388c0.35287,-0.24347 0.80609,0.42266 1.23162,0.37046c0.06443,-0.0079 -0.18259,-0.86423 -0.1896,-0.87813c-0.48997,-0.97061 -1.13914,-1.79894 -1.58363,-2.77033l-0.09167,0.05535l-0.30529,-0.50569c-0.05465,-0.08879 -0.08023,-0.19624 -0.06549,-0.30765c0.01291,-0.0975 0.05485,-0.18405 0.11598,-0.25207c-0.53205,-0.74826 -0.85988,-1.55747 -1.37596,-2.24816zM244.17501,204.64705c0.24122,-0.01994 0.40485,0.19362 0.40485,0.19362c0.70876,0.96403 0.99755,1.89573 1.85651,2.85517l0.00602,0.0181l0.00522,-0.00399l0.31941,0.41686c0.07313,0.09544 0.10984,0.21876 0.09282,0.34737c-0.01752,0.13229 -0.08848,0.24441 -0.18829,0.31747c0.84344,0.84612 1.88757,2.94517 1.72741,3.61813c-0.44087,1.85242 -1.25778,0.23871 -1.79876,0.55504c-0.32746,0.19148 0.04636,0.76172 0.13975,1.12937c0.34826,1.37094 1.94046,4.86625 -0.96807,3.4854c-0.00855,-0.01228 -0.94675,4.14565 -1.07613,5.12324l-0.07308,0.5522l-0.1616,-0.02138l-0.18286,0.4136c-0.12185,-0.09399 -0.23693,-0.18741 -0.34737,-0.28062l-0.14681,0.11249l-0.39927,-0.52107l0.04656,-0.03568c-0.32673,-0.30271 -0.63952,-0.60949 -1.00932,-0.93283c-0.2466,-0.21561 -0.57497,-1.13254 -0.56335,-0.80518c0.01889,0.53166 -0.3496,2.62141 -1.1331,2.66864c-0.65197,0.0393 -1.6264,-1.68621 -1.96445,-2.18144c-0.15873,-0.23255 -0.11238,-1.06491 -0.23484,-0.81138c-0.51532,1.06687 -0.67468,1.91022 -0.83465,3.1031c-1.2592,2.51483 -2.57863,-1.91064 -2.57709,-3.21195c0.00006,-0.05407 -0.02672,-0.80672 0.05484,-1.25664c-0.15982,0.10631 -0.35136,0.21313 -0.46119,0.28132c-0.85388,0.53022 -1.3786,1.04392 -2.4571,0.71501c-1.65265,-0.50401 -1.21017,-1.05505 -0.36769,-2.29664c0.29837,-0.58396 0.51083,-0.95406 0.59328,-1.60372c0.01339,-0.1055 0.02922,-0.27058 0.05884,-0.41624c-0.19755,0.08606 -0.44755,0.17085 -0.57899,0.25001c-0.27545,0.16589 -1.18872,1.1198 -1.64679,0.66638c-0.30013,-0.2971 -0.08037,-0.84259 -0.07299,-1.26484c0.02009,-1.14856 0.45669,-5.12614 1.50494,-5.69606c0.51567,-0.28036 -1.18138,0.19175 -1.75876,0.08615c0.52508,-2.1993 1.72233,-3.17093 3.21171,-4.76061c0.52102,-0.5561 0.86229,-1.57187 1.59189,-1.87779c1.4159,-0.59369 1.39735,1.4244 2.38758,1.10884c1.19861,-0.38197 2.38402,-1.09921 3.62256,-1.50274c1.31212,0.15439 2.03341,1.02672 3.19171,1.35264l0.18663,0.11066z" fill="url(#color-1)"/><path d="M243.78307,205.4504c0,0 0.08326,0.05631 0.19789,0.07862c0.5161,0.69069 0.8536,1.50775 1.38565,2.25602c-0.06112,0.06803 -0.10268,0.15498 -0.11559,0.25249c-0.01475,0.11141 0.01184,0.21997 0.06648,0.30876l0.30733,0.50822l0.09171,-0.0553c0.44449,0.97139 1.10131,1.81527 1.59128,2.78588c0.00701,0.01391 0.25509,0.87495 0.19066,0.88285c-0.42552,0.0522 -0.87948,-0.6174 -1.23235,-0.37393c-0.38935,0.26865 -0.49848,0.83583 -0.5816,1.3015c-0.17453,0.97769 1.94268,4.24764 0.55831,3.36388c-1.84905,-0.58462 -2.1958,3.48524 -2.40003,5.39476c-0.50686,-0.82614 -1.73142,-2.0188 -2.14601,-1.84889c-0.47221,0.19353 -0.76166,1.41781 -0.94448,1.90447c-0.04828,0.12851 -0.14952,0.3723 -0.19706,0.55168c-0.31347,-0.675 -1.63161,-2.76975 -1.82883,-2.77209c-1.75193,-0.02077 -1.81896,2.69203 -1.96299,3.81638c-0.02906,-0.23883 -0.61813,-2.88213 -0.6192,-3.85717c-0.00056,-0.50223 0.1845,-1.2108 -0.23071,-1.49335c-0.95096,-0.64712 -5.21877,3.14635 -3.25883,0.24639c0.28527,-0.55494 1.41569,-2.88195 0.71042,-3.48482c-0.43627,-0.37293 -1.51621,0.1993 -1.84618,0.39157c-0.07852,0.04576 -0.27728,0.15893 -0.38308,0.26225c0.46556,-1.18938 0.91389,-4.18706 1.07735,-4.78971c0.12773,-0.47093 0.54642,-1.01445 0.30747,-1.43987c-0.15425,-0.27463 -1.0591,-0.4527 -1.53211,-0.27393c1.12021,-1.13276 2.38661,-2.61734 3.34152,-3.85014c0.00743,-0.0096 0.8022,-1.38889 0.99289,-1.23444c0.38954,0.31552 0.5304,0.92725 0.98552,1.13735c1.13376,0.52341 3.43888,-0.92009 4.59176,-1.34723c1.12105,0.17759 1.80891,0.98945 2.83671,1.32152l0.04612,0.05629z" data-paper-data="{&quot;noHover&quot;:false,&quot;origItem&quot;:[&quot;Path&quot;,{&quot;applyMatrix&quot;:true,&quot;segments&quot;:[[[234.62979,205.92019],[0.122,-0.02374],[-0.54928,0.73512]],[[233.16532,208.31298],[0.56627,-0.7964],[0.06506,0.0724]],[[233.28876,208.58126],[-0.01374,-0.10378],[0.01569,0.11858]],[[233.21906,208.9087],[0.05816,-0.0945],[0,0]],[232.89413,209.44691],[[232.79656,209.38801],[0,0],[-0.47308,1.03388]],[[231.11107,212.33655],[0.52149,-1.03305],[-0.00746,0.01479]],[[230.90927,213.27116],[-0.06857,-0.00841],[0.4529,0.05556]],[[232.22012,212.87687],[-0.37557,-0.25913],[0.41439,0.28592]],[[232.84045,214.25398],[-0.08847,-0.49563],[0.18575,1.04058]],[[232.24311,217.81247],[-1.47342,0.94061],[1.968,-0.62222]],[[234.77679,223.52935],[-0.21737,-2.03235],[0.53946,-0.87927]],[[237.0553,221.55862],[-0.44126,-0.18084],[0.50258,0.20597]],[[238.05133,223.58251],[-0.19458,-0.51797],[0.05139,0.13679]],[[238.25935,224.16932],[-0.0506,-0.19092],[0.33362,-0.71842]],[[240.19531,221.218],[-0.20991,0.00249],[1.86462,-0.0221]],[[242.27524,225.28094],[-0.1533,-1.19668],[0.03093,-0.2542]],[[242.92409,221.17897],[-0.00114,1.03776],[0.00059,-0.53454]],[[243.16291,219.59323],[-0.44192,0.30073],[1.01214,-0.68876]],[[246.61897,219.86692],[2.08602,3.0865],[-0.30362,-0.59063]],[[245.8538,216.17708],[-0.75064,0.64165],[0.46434,-0.39692]],[[247.91619,216.61626],[-0.3512,-0.20464],[0.08357,0.0487]],[[248.22664,216.87215],[-0.11261,-0.10997],[-0.49551,-1.26588]],[[247.08258,211.80627],[0.17398,0.64142],[-0.13595,-0.50121]],[[246.7599,210.2821],[-0.25432,0.45279],[0.16417,-0.29229]],[[248.3887,209.98759],[-0.50344,-0.19027],[-1.19228,-1.20563]],[[244.85182,205.90869],[1.01634,1.3121],[-0.00791,-0.01021]],[[243.80155,204.59775],[0.20296,-0.16439],[-0.41458,0.33581]],[[242.7555,205.8092],[0.4844,-0.22362],[-1.20669,0.55708]],[[237.89283,204.37634],[1.22704,0.45462],[-1.19318,0.18901]],[[234.88828,205.77732],[1.09391,-0.35343],[0,0]],[234.8395,205.83706]],&quot;closed&quot;:true}]}" fill="url(#color-2)"/><path d="M242.65415,205.40378c-0.17835,-0.03736 -0.29264,-0.18652 -0.29264,-0.18652l-0.20573,-0.27321c-1.09701,-1.15495 -3.23614,0.0616 -4.41607,0.88799c-0.00639,-0.00055 -1.28229,-0.26297 -1.36502,-0.15819c-0.39277,0.49746 0.09366,0.97902 -0.49876,1.62371c-0.29887,0.32525 -0.95428,0.61929 -1.19437,1.02574c-0.39473,0.66827 0.5487,1.18584 0.62979,1.69753c0.09325,0.5884 -0.5863,1.31974 -0.47502,2.02897c0.07444,0.47448 0.73537,0.37258 1.03204,0.85376c0.3458,0.5609 0.26523,1.60513 0.2723,2.23621c-0.00232,0.31611 0.11842,0.9407 0.07267,1.25057c0.38042,-0.19262 1.15376,-0.4589 1.60845,-0.15927c0.49478,0.32605 1.11749,1.72247 1.13853,2.34546c0.01564,0.46349 0.32712,-0.87732 0.58718,-1.2613c0.39924,-0.58948 1.02703,-2.27642 1.8571,-2.34832c0.36834,-0.03191 0.68611,0.16172 0.90313,0.43789c-0.03091,-0.95466 0.01299,-1.80821 0.40905,-2.7801c2.11876,0.03516 -1.21697,-2.37709 -0.18186,-3.49027c0.10876,-0.11697 0.36864,-0.15577 0.60932,-0.13714c-0.14936,-0.29773 -0.2888,-0.69003 -0.38781,-0.91097c-0.43251,-0.96511 0.1007,-1.66444 0.21123,-2.07934c0.06196,-0.23254 -0.11396,-0.41735 -0.31351,-0.60322zM242.82134,204.28079c0.18584,0.06836 0.27299,0.2599 0.27299,0.2599c0.06688,0.14749 0.77537,1.69854 0.77109,1.74339c-0.03237,0.33876 -0.52866,0.5927 -0.43995,0.92123c0.1327,0.49142 1.33711,2.15524 0.93984,2.6705c-0.25487,0.33054 -0.45348,0.49714 -0.60584,0.55881c0.50864,1.24044 1.12647,3.51092 -0.52555,2.97449c0.07224,0.9938 0.02185,2.02023 0.04369,3.02667l-0.04854,0.07292l0.02846,0.00972l-0.15012,0.43975c-0.06791,0.2125 -0.28012,0.35248 -0.50904,0.32218c-0.14506,-0.01921 -0.26586,-0.10268 -0.33751,-0.21796l-0.38517,-0.61007l0.22206,-0.1402c-0.1641,-0.24988 -0.35294,-0.43349 -0.62663,-0.40803c-0.58092,0.05406 -1.51455,3.79445 -2.44428,3.60962c-1.231,-0.24472 -1.0669,-1.87101 -1.77408,-2.53501c-0.50656,-0.47563 -1.06164,0.82461 -1.81322,0.32709c-0.38972,-0.25798 -0.24112,-1.78692 -0.23843,-2.16459c-0.00449,-0.48083 0.0899,-1.31276 -0.13644,-1.75099c-0.24459,-0.47353 -0.98903,-0.60885 -1.14158,-1.11953c-0.21382,-0.71577 0.56734,-1.72075 0.4534,-2.15584c-0.22169,-0.84657 -1.12802,-1.03142 -0.5396,-2.20306c0.33573,-0.66849 0.86491,-0.80206 1.35549,-1.25887c0.52582,-0.48961 -0.0624,-1.07708 0.49194,-1.6164c0.63111,-0.61399 1.13913,-0.27147 1.81284,-0.11219c1.38429,-1.19764 3.95936,-2.03369 5.32418,-0.64351z" fill="url(#color-3)"/><path d="M242.38451,205.17631c0,0 0.11626,0.15032 0.29461,0.18769c0.19957,0.18587 0.37882,0.37298 0.31687,0.60552c-0.11053,0.4149 -0.63642,1.12109 -0.20392,2.08621c0.09901,0.22094 0.24369,0.62068 0.39305,0.9184c-0.24068,-0.01864 -0.50159,0.01847 -0.61034,0.13543c-1.03512,1.11318 2.30559,3.56444 0.18683,3.52928c-0.39606,0.97189 -0.45416,1.84696 -0.42324,2.80162c-0.21702,-0.27616 -0.53819,-0.46714 -0.90654,-0.43523c-0.83008,0.0719 -1.4798,1.76722 -1.87905,2.3567c-0.26006,0.38398 -0.57628,1.72509 -0.59193,1.26159c-0.02104,-0.62299 -0.65438,-2.0205 -1.14915,-2.34655c-0.45468,-0.29964 -1.24012,-0.03783 -1.62056,0.15477c0.04574,-0.30987 -0.08063,-0.93803 -0.07831,-1.25414c-0.00707,-0.63109 0.05922,-1.69237 -0.28659,-2.25327c-0.29667,-0.48118 -0.96189,-0.3928 -1.03633,-0.86728c-0.11127,-0.70923 0.57094,-1.46494 0.47769,-2.05334c-0.08109,-0.51168 -1.0186,-1.04001 -0.62386,-1.70828c0.24008,-0.40646 0.90563,-0.71058 1.2045,-1.03583c0.59242,-0.6447 0.11489,-1.13136 0.50765,-1.62882c0.08273,-0.10478 1.36801,0.15466 1.37441,0.15522c1.17993,-0.8264 3.34968,-2.03885 4.44669,-0.88389l0.20751,0.27416z" data-paper-data="{&quot;noHover&quot;:false,&quot;origItem&quot;:[&quot;Path&quot;,{&quot;applyMatrix&quot;:true,&quot;segments&quot;:[[[236.01592,205.74418],[0.18982,-0.03977],[-0.21239,0.19783]],[[235.68224,206.3862],[-0.06594,-0.2475],[0.11764,0.44159]],[[235.90706,208.5993],[0.46032,-1.0272],[-0.10538,0.23515]],[[235.4943,209.56887],[0.15897,-0.31687],[0.25616,-0.01983]],[[236.14281,209.71483],[-0.11575,-0.12448],[1.1017,1.18479]],[[235.94926,213.42962],[-2.25505,0.03742],[0.42154,1.03441]],[[236.38461,216.38855],[0.03291,-1.01607],[0.23098,-0.29393]],[[237.34584,215.92249],[-0.39204,-0.03396],[0.88347,0.07653]],[[239.3224,218.42187],[-0.42493,-0.6274],[0.27679,0.40868]],[[239.94736,219.7643],[-0.01666,0.49331],[0.02239,-0.66307]],[[241.15912,217.26797],[-0.5266,0.34702],[0.48394,-0.3189]],[[242.87104,217.43747],[-0.40491,-0.20499],[-0.04869,-0.3298]],[[242.94838,216.10646],[0.00247,0.33644],[0.00752,-0.67168]],[[243.23821,213.7264],[-0.36806,0.59698],[0.31575,-0.51213]],[[244.33664,212.81772],[-0.07923,0.505],[0.11844,-0.75485]],[[243.83106,210.65823],[-0.09925,0.62625],[0.08631,-0.5446]],[[244.50136,208.8515],[0.42013,0.71126],[-0.25553,-0.4326]],[[243.23016,207.75978],[0.3181,0.34617],[-0.63053,-0.68616]],[[242.69931,206.03162],[0.41803,0.52946],[-0.08805,-0.11152]],[[241.24648,206.19999],[0.00681,-0.0006],[-1.25583,-0.87955]],[[236.54634,205.25488],[1.16758,-1.22925],[0,0]],[236.32738,205.54566]],&quot;closed&quot;:true}]}" fill="url(#color-4)"/><path d="M240.5371,205.39304c-0.14513,0.07692 -0.30591,0.05564 -0.30591,0.05564l-0.53669,-0.10492c-1.98368,-1.16949 -2.192,3.35873 -2.29957,4.31607c-0.02826,0.25146 0.56635,-0.01548 0.74023,0.16836c0.37881,0.40054 0.1011,0.77373 0.20926,1.18756c0.09731,0.37232 0.36713,0.80865 0.48177,1.22212c0.14304,-0.41026 0.25121,-0.85276 0.61075,-1.04475c0.55337,-0.2955 1.89148,1.53443 1.61067,0.97346c-0.2652,-0.52981 -1.14657,-3.78956 -0.24983,-3.79198c-0.33006,-1.48056 -0.14404,-2.13826 -0.26069,-2.98156zM240.31461,204.51872c-0.03895,-0.10687 -0.08359,-0.21887 -0.13479,-0.33702c0,0 -0.18676,-0.43106 0.2443,-0.61782c0.43106,-0.18676 0.61782,0.2443 0.61782,0.2443c0.80025,1.84745 0.19848,2.33056 0.66104,4.32923l0.1994,0.46024c0.0351,0.07732 0.04968,0.16509 0.03772,0.25548c-0.03404,0.25722 -0.27015,0.43813 -0.52736,0.40409c-0.02909,-0.00385 -0.05722,-0.01028 -0.08418,-0.01905l-0.017,-0.0052c-0.4591,0.59844 1.18211,2.95334 0.35142,3.64359c-0.31881,0.26492 -0.84285,0.00457 -1.23752,-0.12214c-0.30136,-0.09675 -0.6239,-0.9942 -0.66262,-0.68008c-0.04386,0.35581 -0.12012,0.72129 -0.29493,1.0343l-0.00411,0.00423l0.0012,0.00071l-0.35583,0.59839c-0.09149,0.16213 -0.27511,0.26084 -0.47096,0.23492c-0.18591,-0.0246 -0.33196,-0.15478 -0.38579,-0.32219l-0.1997,-0.57912l0.05604,-0.01933c-0.29135,-0.56578 -0.52081,-1.15916 -0.67759,-1.7896c-0.05687,-0.22868 0.31716,-0.66304 0.08473,-0.70183c-0.39579,-0.06606 -0.92782,-0.23873 -1.02735,-0.62745c-0.27366,-1.06882 0.60443,-1.89009 0.30692,-2.6858c-0.67256,-1.79877 1.95936,-3.45751 3.3594,-2.69685l0.15972,-0.00599z" fill="url(#color-5)"/><path d="M240.24116,205.40276c0,0 0.16449,0.02224 0.30961,-0.05467c0.11665,0.8433 -0.03809,1.5323 0.29197,3.01287c-0.89674,0.00242 -0.04099,3.31861 0.22421,3.84842c0.2808,0.56097 -1.07808,-1.26482 -1.63145,-0.96932c-0.35954,0.19199 -0.47537,0.63362 -0.61841,1.04389c-0.11463,-0.41347 -0.39699,-0.85418 -0.4943,-1.2265c-0.10816,-0.41384 0.15399,-0.8 -0.22481,-1.20054c-0.17387,-0.18384 -0.77457,0.07267 -0.74632,-0.17879c0.10757,-0.95734 0.36166,-5.55078 2.34534,-4.38129l0.54415,0.10593z" data-paper-data="{&quot;noHover&quot;:false,&quot;origItem&quot;:[&quot;Path&quot;,{&quot;applyMatrix&quot;:true,&quot;segments&quot;:[[[238.26916,205.73277],[0.15446,0.08186],[-0.12415,0.89755]],[[237.99171,208.90612],[0.35129,-1.57581],[0.95442,0.00258]],[[237.7258,212.94202],[0.28226,-0.56389],[-0.29887,0.59706]],[[239.44008,211.90594],[-0.58897,-0.31451],[0.38267,0.20434]],[[240.09012,213.0179],[-0.15224,-0.43666],[0.12201,-0.44007]],[[240.60289,211.71717],[-0.10357,0.39627],[0.11512,-0.44045]],[[240.8256,210.45321],[-0.40317,0.4263],[0.18506,-0.19567]],[[241.61345,210.27402],[0.03007,0.26764],[-0.11449,-1.01892]],[[239.16596,205.68031],[2.11128,-1.24472],[0,0]],[238.59475,205.79198]],&quot;closed&quot;:true}]}" fill="url(#color-6)"/></g><path d="M232.05331,204.99334l2.6141,-4.90143h7.51553l3.10424,4.90143z" fill="url(#color-7)" stroke="#000000" stroke-width="0" stroke-linecap="butt"/><path d="M238.28455,201.2444c-14.02176,0.20134 -13.69397,-10.72028 -13.69397,-23.94441c0,-13.22413 0.5759,-23.94441 13.69397,-23.94441c13.63483,0 13.69397,10.72028 13.69397,23.94441c0,13.22413 1.36161,23.72823 -13.69397,23.94441z" fill="url(#color-8)" stroke="#000000" stroke-width="0" stroke-linecap="butt"/><path d="M215.00276,207.3117c0,0 4.51981,-6.93576 5.97062,-10.98881c1.49692,-4.18186 2.87688,-13.728 2.87688,-13.728l-0.28088,17.27368z" fill="url(#color-9)" stroke="#000000" stroke-width="0" stroke-linecap="butt"/><path d="M253.42663,200.23416l-0.28088,-17.27367c0,0 1.37996,9.54614 2.87688,13.728c1.45081,4.05304 5.97062,10.98881 5.97062,10.98881z" data-paper-data="{&quot;index&quot;:null}" fill="url(#color-10)" stroke="#000000" stroke-width="0" stroke-linecap="butt"/><path d="M223.5568,200.32636v-45.14319h29.93538v45.14319z" fill="url(#color-11)" stroke="#ed6b00" stroke-width="0" stroke-linecap="butt"/><g stroke="#000000" stroke-width="0" stroke-linecap="butt"><path d="M277.75637,163.72435c0,0 -2.9756,-0.52609 -6.44817,-0.01678c-0.83507,0.12247 -3.58489,0.34711 -4.44143,0.48071c-2.02718,0.31616 -4.02568,0.69634 -5.27349,0.86205c-2.68382,0.35646 -6.09403,0.73526 -6.09403,0.73526c0,0 -6.69945,0.58739 -6.95994,-0.40731c-1.52341,-5.81739 6.02393,-5.06133 6.02393,-5.06133c0,0 4.86104,-0.61437 7.71447,-0.99334c1.16127,-0.15425 2.11203,0.286 3.92015,0.11213c0.81054,-0.07794 4.32858,0.04365 6.47917,0.02473c3.58067,-0.03149 5.73882,-0.40432 5.73882,-0.40432z" data-paper-data="{&quot;index&quot;:null}" fill="#bdbdbd"/><path d="M282.94187,159.02418c-0.02499,0.20691 3.72312,0.02532 3.68403,0.90436c-0.01924,0.43235 -2.43897,0.02301 -3.27452,0.61474c-0.44228,0.31322 4.28067,-0.33599 3.79398,0.79831c-0.16709,0.38942 -3.59671,0.08886 -4.4192,0.49766c-0.44029,0.21885 5.22249,-0.03766 4.94294,0.72306c-0.16592,0.45161 -3.28915,0.00341 -4.6967,0.30591c-0.68572,0.14738 3.85534,0.38353 3.52874,0.93069c-0.19993,0.33493 -4.64292,0.32216 -4.69334,0.35907c-0.28336,0.20746 2.40452,0.94041 1.75428,1.2016c-1.19839,0.48138 -2.6184,-0.45362 -3.95223,-1.19055c-0.77931,-0.43057 -1.95933,-0.47025 -1.95933,-0.47025c0,0 -0.46274,-1.60525 -0.3514,-2.39339c0.10842,-0.76739 1.01092,-2.27483 1.01092,-2.27483c0,0 4.68472,-0.4447 4.63179,-0.00639z" data-paper-data="{&quot;index&quot;:null}" fill="#777777"/></g><g><path d="M251.94173,227.20601c0,0 -6.41594,-24.98955 -8.12079,-29.14285c-0.55746,-1.35808 -3.61557,-0.8928 -3.61557,-0.8928c0,0 -3.73171,-3.63614 -0.16131,-4.28412c3.01753,-0.54765 10.05389,0.39366 10.05389,0.39366l9.71827,32.497z" data-paper-data="{&quot;index&quot;:null}" fill="#494949" stroke="#000000" stroke-width="0" stroke-linecap="butt"/><path d="M266.73312,231.64103c-0.58323,0.10585 -2.59917,0.48559 -4.64069,0.77424c-1.24119,0.17549 -1.9819,-0.26819 -2.92578,-0.24206c-1.18829,0.0329 -2.85194,0.74167 -3.72173,0.70488c-1.60271,-0.06777 -2.47536,-0.34128 -2.47536,-0.34128c0,0 -0.44789,-0.96086 -0.56419,-1.50931c-0.15668,-0.73891 -0.29135,-2.52558 -0.29135,-2.52558c0,0 5.81752,-1.17733 8.13097,-1.3936c1.36894,-0.12797 4.28791,-0.12084 4.28791,-0.12084c0,0 1.54623,0.34503 1.83269,0.72725c0.35085,0.46812 1.21415,1.80078 1.21415,1.80078c0,0 -0.03305,1.97784 -0.84665,2.1255z" data-paper-data="{&quot;index&quot;:null}" fill="#141415" stroke="#000000" stroke-width="0" stroke-linecap="butt"/><path d="M266.00678,229.15598c-0.24423,0.04432 0.97712,1.45048 -2.33797,1.7792c-3.13051,0.31043 -2.94404,-0.67333 -4.0451,-0.55542c-2.30235,0.24656 -2.4398,1.04755 -3.45072,1.07554c-0.35207,0.00975 -0.52492,-0.02114 -1.92918,-0.63608c-0.96576,-0.42291 -0.96768,-1.6042 -1.66996,-2.11509c-1.02584,-0.74626 -1.13223,-1.71112 -1.13223,-1.71112l-0.61938,-2.98511c0,0 0.87261,2.08449 1.84528,2.74584c0.87027,0.59172 2.27631,-0.43218 2.75219,-0.51869c0.8333,-0.15148 -1.26136,-3.0925 -0.46135,-3.21916c0.43017,-0.0681 3.62111,-0.8951 3.62111,-0.8951c0,0 0.76031,3.50038 0.99312,3.47862c1.36894,-0.12797 4.64583,-0.1858 4.64583,-0.1858c0,0 1.54623,0.34503 1.8327,0.72725c0.35085,0.46812 1.14876,2.79858 1.14876,2.79858c0,0 -0.3795,0.06887 -1.19311,0.21654z" data-paper-data="{&quot;index&quot;:null}" fill="#252527" stroke="#000000" stroke-width="0" stroke-linecap="butt"/><path d="M260.56195,226.04839l-2.42994,1.55016" fill="none" stroke="#ffffff" stroke-width="0.5" stroke-linecap="round"/><path d="M262.35162,225.72359l-2.24568,1.88644" fill="none" stroke="#ffffff" stroke-width="0.5" stroke-linecap="round"/><path d="M263.46872,225.76733l-1.17189,1.69156" fill="none" stroke="#ffffff" stroke-width="0.5" stroke-linecap="round"/><path d="M258.35027,223.36879l-2.10427,0.62838" fill="none" stroke="#969696" stroke-width="0.5" stroke-linecap="round"/><path d="M258.71883,224.04133l-1.84401,0.70439" fill="none" stroke="#969696" stroke-width="0.5" stroke-linecap="round"/></g><g><path d="M229.10953,229.28119l1.33811,-33.89261c0,0 6.58175,-2.66028 9.64071,-2.87965c3.61942,-0.25956 0.90833,4.18983 0.90833,4.18983c0,0 -3.0778,0.30924 -3.28031,1.76325c-0.6193,4.44668 -0.62423,30.24671 -0.62423,30.24671z" fill="#494949" stroke="#000000" stroke-width="0" stroke-linecap="butt"/><path d="M244.84839,233.2222c0,0 -0.24593,1.96277 -1.07071,2.02192c-0.59124,0.0424 -2.63636,0.20276 -4.69709,0.26979c-1.25287,0.04075 -1.94147,-0.48015 -2.88267,-0.55585c-1.18492,-0.09532 -2.91523,0.4301 -3.776,0.29983c-1.58608,-0.24004 -2.42418,-0.60596 -2.42418,-0.60596c0,0 -0.34178,-1.00351 -0.3983,-1.56131c-0.07616,-0.75148 -0.01756,-2.54227 -0.01756,-2.54227c0,0 5.91049,-0.54374 8.23379,-0.50952c1.37476,0.02025 4.27597,0.34181 4.27597,0.34181c0,0 1.50004,0.50961 1.74368,0.92046c0.29838,0.5032 1.01308,1.92111 1.01308,1.92111z" data-paper-data="{&quot;index&quot;:null}" fill="#141415" stroke="#000000" stroke-width="0" stroke-linecap="butt"/><path d="M244.53278,232.60857c0,0 -0.3847,0.02759 -1.20948,0.08674c-0.24758,0.01776 0.81516,1.5473 -2.51605,1.51697c-3.14574,-0.02865 -2.85436,-0.98658 -3.96172,-0.98798c-2.31551,-0.00292 -2.53847,0.7786 -3.54652,0.69751c-0.35107,-0.02824 -0.51959,-0.07757 -1.84942,-0.84021c-0.91457,-0.52449 -0.78922,-1.69912 -1.43237,-2.28269c-0.93947,-0.85244 -0.94129,-1.82314 -0.94129,-1.82314l-0.29418,-3.03446c0,0 0.64296,2.16638 1.53872,2.92867c0.80146,0.68203 2.30962,-0.18443 2.79205,-0.21917c0.84476,-0.06082 -0.92085,-3.2104 -0.11186,-3.25013c0.43501,-0.02136 3.69647,-0.49977 3.69647,-0.49977c0,0 0.37878,3.56191 0.61258,3.56535c1.37475,0.02026 4.63881,0.31579 4.63881,0.31579c0,0 1.50004,0.50961 1.74368,0.92046c0.29839,0.5032 0.84057,2.90605 0.84057,2.90605z" data-paper-data="{&quot;index&quot;:null}" fill="#252527" stroke="#000000" stroke-width="0" stroke-linecap="butt"/><path d="M238.24495,229.01919l-2.58281,1.27937" fill="none" stroke="#ffffff" stroke-width="0.5" stroke-linecap="round"/><path d="M240.05917,228.8891l-2.43583,1.63353" fill="none" stroke="#ffffff" stroke-width="0.5" stroke-linecap="round"/><path d="M241.16506,229.05292l-1.34731,1.55548" fill="none" stroke="#ffffff" stroke-width="0.5" stroke-linecap="round"/><path d="M234.17508,226.51495l2.15973,-0.39803" fill="none" stroke="#969696" stroke-width="0.5" stroke-linecap="round"/><path d="M234.7196,227.32689l1.90916,-0.50163" fill="none" stroke="#969696" stroke-width="0.5" stroke-linecap="round"/></g><path d="M235.9198,162.91937v-6.85104h7.65615v6.85104z" fill="url(#color-12)" stroke="#000000" stroke-width="0" stroke-linecap="butt"/><path d="M252.80945,143.64573c0,7.73092 -5.73774,13.99807 -12.8156,13.99807c-7.07786,0 -12.8156,-6.26715 -12.8156,-13.99807c0,-7.73092 5.73774,-13.99806 12.8156,-13.99806c7.07786,0 12.8156,6.26714 12.8156,13.99806z" fill="url(#color-13)" stroke="none" stroke-width="0" stroke-linecap="butt"/><path d="M229.82836,194.84552c0,0 0.01297,-5.5622 -0.6558,-10.92984c-0.45441,-3.64728 -1.59703,-6.91759 -1.82297,-9.40649c-0.42408,-4.67137 -0.58124,-13.37126 -0.58124,-13.37126c0,0 3.67416,-0.68684 5.46124,-0.37004c2.27486,0.40327 7.08114,2.59345 7.08114,2.59345c0,0 3.61533,-2.27166 5.51648,-2.74078c2.00596,-0.49499 6.22176,-0.15569 6.22176,-0.15569c0,0 0.18638,9.21548 0.1239,12.65772c-0.05528,3.04555 -0.71277,6.39031 -0.88172,10.90155c-0.17413,4.64957 0.141,10.42164 0.141,10.42164c0,0 -2.77723,-0.69263 -5.59294,-0.68282c-1.2787,0.00445 -1.76269,1.05537 -2.96507,1.24796c-0.96106,0.15393 -2.6522,-0.53962 -3.5777,-0.55073c-0.69965,-0.0084 -2.05769,-0.47376 -2.55185,-0.46418c-0.9978,0.01936 -1.59112,0.90973 -2.74399,1.1011c-1.33919,0.22229 -3.17229,-0.25158 -3.17229,-0.25158z" fill="#d0d0d0" stroke="#292e32" stroke-width="0" stroke-linecap="butt"/><path d="M242.7359,170.5071l-0.12126,-5.82045l7.63934,0.36378v5.21415z" fill="#f200ff" stroke="none" stroke-width="0" stroke-linecap="butt"/><g stroke="#000000" stroke-width="0" stroke-linecap="butt"><path d="M197.96417,168.40999c0,0 2.18752,-0.28758 5.5739,-1.4515c2.0339,-0.69907 5.29794,-2.02108 6.0938,-2.2017c1.77541,-0.40296 2.48891,-1.23677 3.64678,-1.44577c2.84508,-0.51356 7.67895,-1.42499 7.67895,-1.42499c0,0 7.17126,-3.4069 8.23407,4.17524c0.16967,1.21043 -6.85239,2.53596 -6.85239,2.53596c0,0 -3.36953,0.70048 -6.0455,1.18351c-1.24416,0.22457 -3.28428,0.45005 -5.32497,0.75999c-0.86223,0.13097 -3.54582,0.79033 -4.38321,0.92707c-3.48231,0.5687 -6.06787,2.182 -6.06787,2.182z" fill="#bdbdbd"/><path d="M193.49262,170.01072c-0.2325,-0.49442 4.36242,-1.55655 4.36242,-1.55655c0,0 1.47779,1.45716 1.89967,2.31746c0.43331,0.88359 0.6668,2.91605 0.6668,2.91605c0,0 -1.09418,0.44485 -1.64825,1.21124c-0.94835,1.31173 -1.89524,2.88404 -3.22391,2.72606c-0.72093,-0.08571 1.50362,-1.84999 1.15043,-1.99678c-0.06284,-0.02612 -4.23959,1.48908 -4.56736,1.16513c-0.53545,-0.52923 3.64048,-2.33861 2.93361,-2.27933c-1.45097,0.12171 -4.20395,1.70018 -4.54836,1.22838c-0.58019,-0.79477 4.85693,-2.4071 4.35128,-2.51421c-0.94455,-0.20008 -4.04749,1.3093 -4.36707,0.91057c-0.93087,-1.16143 3.78528,-1.99743 3.23843,-2.21417c-1.0331,-0.40948 -3.14012,0.88603 -3.33842,0.38718c-0.40318,-1.01422 3.2005,-2.06761 3.09075,-2.30101z" data-paper-data="{&quot;index&quot;:null}" fill="#777777"/></g><g stroke-linecap="butt"><path d="M253.02025,143.26413c0,3.74486 0.0384,8.21376 -9.59547,8.69146c-10.76272,0.53367 -10.10384,-4.9466 -10.10384,-8.69146c0,-3.74486 4.40985,-6.78067 9.84967,-6.78067c5.43982,0 9.84967,3.03581 9.84967,6.78067z" data-paper-data="{&quot;index&quot;:null}" fill="url(#color-14)" stroke="#ed6b00" stroke-width="0"/><path d="M233.63717,133.71599c-0.16984,0.01553 -0.60661,0.06221 -1.07903,0.1438c-0.52185,0.20742 -1.13106,0.41772 -1.59752,0.64771c-0.28909,0.89276 0.78709,1.80702 -0.65422,2.4752c-2.45813,1.13958 -1.71655,-2.03888 -0.89769,-3.03685c1.27069,-1.10653 3.14359,-1.2394 4.75566,-1.549c2.22048,-0.42645 4.38435,-1.08334 6.57971,-1.21737c0.08249,-0.08622 0.19535,-0.14411 0.32353,-0.15569l0.58612,-0.0529c0.29539,-0.07774 0.61637,-0.15861 0.95355,-0.23507c0.87645,-0.27394 1.93099,-0.41625 2.91353,-0.50866c0.4818,-0.09462 0.9333,-0.1389 1.30669,-0.10536c0.27388,-0.02025 0.5286,-0.03932 0.7561,-0.05986l0.61787,-0.05577c0.28142,-0.0254 0.53014,0.18214 0.55554,0.46356c0.0226,0.25047 -0.13931,0.47504 -0.37361,0.53931l-0.32968,0.09745c0.145,0.12181 0.27656,0.26112 0.39244,0.4197l0.23414,-0.11908l0.29765,0.58522c0.03177,0.05903 0.05238,0.12532 0.05879,0.19629c0.0254,0.28142 -0.18214,0.53014 -0.46355,0.55553c-0.08558,0.00772 -0.16814,-0.00609 -0.24232,-0.03698l-0.50702,-0.19878l0.00585,-0.01492l-0.04787,-0.00377c-0.36209,-0.22374 -0.73047,-0.39249 -1.09838,-0.50678c-0.55947,-0.02006 -1.148,-0.08122 -1.74789,-0.1302c-1.01464,0.1745 -1.9334,0.80247 -2.5904,1.87097c0,0 -0.26893,0.43524 -0.70416,0.1663c-0.43523,-0.26893 -0.1663,-0.70417 -0.1663,-0.70417c0.0575,-0.09265 0.11686,-0.18277 0.17799,-0.27034l-0.28392,0.09053c-0.03801,0.01299 -0.07817,0.02169 -0.11996,0.02546c-0.28142,0.0254 -0.53014,-0.18214 -0.55553,-0.46356c-0.01286,-0.14243 0.03395,-0.27647 0.11981,-0.37743c-0.2451,0.00049 -0.4766,0.01384 -0.6735,0.06241c-1.37524,0.33924 -3.48763,0.45199 -5.48058,0.75785c0.01121,0.24126 -0.14794,0.45435 -0.37516,0.51668l-0.59763,0.17665l-0.00571,-0.01931l-0.00747,0.00194z" fill="url(#color-15)" stroke="none" stroke-width="0.5"/><path d="M248.73121,129.98496c2.70896,-0.28418 2.68558,-0.24349 2.90043,1.58673c0.21485,1.83022 -0.78194,3.36186 -2.22639,3.42102c-1.44446,0.05917 -2.7896,-1.37656 -3.00445,-3.20678c-0.21485,-1.83022 -0.20983,-1.53449 2.33041,-1.80097z" data-paper-data="{&quot;index&quot;:null}" fill="url(#color-16)" stroke="#000000" stroke-width="0"/><path d="M242.11119,132.66582c0.35755,1.99142 -1.17444,3.9329 -3.4218,4.33639c-2.24735,0.40349 -4.35904,-0.88377 -4.71659,-2.8752c-0.35755,-1.99142 -0.40888,-2.02662 3.87102,-2.60142c4.01334,-0.53901 3.90982,-0.85119 4.26737,1.14023z" fill="url(#color-17)" stroke="#000000" stroke-width="0"/></g></g></g></svg>