<svg version="1.1" xmlns="http://www.w3.org/2000/svg" xmlns:xlink="http://www.w3.org/1999/xlink" width="241.60468" height="465.71584" viewBox="0,0,241.60468,465.71584"><defs><linearGradient x1="342.41221" y1="-14.04298" x2="348.78305" y2="-29.27228" gradientUnits="userSpaceOnUse" id="color-1"><stop offset="0" stop-color="#353535"/><stop offset="1" stop-color="#252525"/></linearGradient><linearGradient x1="342.42932" y1="-14.37473" x2="348.70364" y2="-29.37328" gradientUnits="userSpaceOnUse" id="color-2"><stop offset="0" stop-color="#353535"/><stop offset="1" stop-color="#252525"/></linearGradient><linearGradient x1="342.38106" y1="-14.25935" x2="348.65538" y2="-29.2579" gradientUnits="userSpaceOnUse" id="color-3"><stop offset="0" stop-color="#353535"/><stop offset="1" stop-color="#252525"/></linearGradient><linearGradient x1="249.56995" y1="-34.42038" x2="249.73211" y2="-51.50346" gradientUnits="userSpaceOnUse" id="color-4"><stop offset="0" stop-color="#353535"/><stop offset="1" stop-color="#252525"/></linearGradient><linearGradient x1="249.45685" y1="-34.74502" x2="249.61656" y2="-51.56927" gradientUnits="userSpaceOnUse" id="color-5"><stop offset="0" stop-color="#353535"/><stop offset="1" stop-color="#252525"/></linearGradient><linearGradient x1="249.45562" y1="-34.6156" x2="249.61534" y2="-51.43985" gradientUnits="userSpaceOnUse" id="color-6"><stop offset="0" stop-color="#353535"/><stop offset="1" stop-color="#252525"/></linearGradient><linearGradient x1="268.6948" y1="-33.83323" x2="269.63598" y2="-50.89115" gradientUnits="userSpaceOnUse" id="color-7"><stop offset="0" stop-color="#353535"/><stop offset="1" stop-color="#252525"/></linearGradient><linearGradient x1="268.59663" y1="-34.16269" x2="269.52355" y2="-50.96216" gradientUnits="userSpaceOnUse" id="color-8"><stop offset="0" stop-color="#353535"/><stop offset="1" stop-color="#252525"/></linearGradient><linearGradient x1="268.58951" y1="-34.03347" x2="269.51643" y2="-50.83295" gradientUnits="userSpaceOnUse" id="color-9"><stop offset="0" stop-color="#353535"/><stop offset="1" stop-color="#252525"/></linearGradient><linearGradient x1="287.43757" y1="-31.26012" x2="290.76539" y2="-48.01672" gradientUnits="userSpaceOnUse" id="color-10"><stop offset="0" stop-color="#353535"/><stop offset="1" stop-color="#252525"/></linearGradient><linearGradient x1="287.38666" y1="-31.60011" x2="290.66406" y2="-48.10283" gradientUnits="userSpaceOnUse" id="color-11"><stop offset="0" stop-color="#353535"/><stop offset="1" stop-color="#252525"/></linearGradient><linearGradient x1="287.36145" y1="-31.47317" x2="290.63885" y2="-47.97589" gradientUnits="userSpaceOnUse" id="color-12"><stop offset="0" stop-color="#353535"/><stop offset="1" stop-color="#252525"/></linearGradient><linearGradient x1="305.86475" y1="-26.6532" x2="310.52416" y2="-43.08939" gradientUnits="userSpaceOnUse" id="color-13"><stop offset="0" stop-color="#353535"/><stop offset="1" stop-color="#252525"/></linearGradient><linearGradient x1="305.84122" y1="-26.99617" x2="310.43005" y2="-43.18334" gradientUnits="userSpaceOnUse" id="color-14"><stop offset="0" stop-color="#353535"/><stop offset="1" stop-color="#252525"/></linearGradient><linearGradient x1="305.80592" y1="-26.87167" x2="310.39476" y2="-43.05882" gradientUnits="userSpaceOnUse" id="color-15"><stop offset="0" stop-color="#353535"/><stop offset="1" stop-color="#252525"/></linearGradient><linearGradient x1="324.78702" y1="-20.69069" x2="330.27674" y2="-36.86848" gradientUnits="userSpaceOnUse" id="color-16"><stop offset="0" stop-color="#353535"/><stop offset="1" stop-color="#252525"/></linearGradient><linearGradient x1="324.78099" y1="-21.03442" x2="330.18753" y2="-36.9671" gradientUnits="userSpaceOnUse" id="color-17"><stop offset="0" stop-color="#353535"/><stop offset="1" stop-color="#252525"/></linearGradient><linearGradient x1="324.7394" y1="-20.91185" x2="330.14593" y2="-36.84454" gradientUnits="userSpaceOnUse" id="color-18"><stop offset="0" stop-color="#353535"/><stop offset="1" stop-color="#252525"/></linearGradient><linearGradient x1="230.43007" y1="-34.42038" x2="230.26789" y2="-51.50346" gradientUnits="userSpaceOnUse" id="color-19"><stop offset="0" stop-color="#353535"/><stop offset="1" stop-color="#252525"/></linearGradient><linearGradient x1="230.54316" y1="-34.74503" x2="230.38345" y2="-51.56927" gradientUnits="userSpaceOnUse" id="color-20"><stop offset="0" stop-color="#353535"/><stop offset="1" stop-color="#252525"/></linearGradient><linearGradient x1="230.54438" y1="-34.6156" x2="230.38468" y2="-51.43986" gradientUnits="userSpaceOnUse" id="color-21"><stop offset="0" stop-color="#353535"/><stop offset="1" stop-color="#252525"/></linearGradient><linearGradient x1="211.30522" y1="-33.83323" x2="210.36402" y2="-50.89115" gradientUnits="userSpaceOnUse" id="color-22"><stop offset="0" stop-color="#353535"/><stop offset="1" stop-color="#252525"/></linearGradient><linearGradient x1="211.40337" y1="-34.16269" x2="210.47645" y2="-50.96217" gradientUnits="userSpaceOnUse" id="color-23"><stop offset="0" stop-color="#353535"/><stop offset="1" stop-color="#252525"/></linearGradient><linearGradient x1="211.41049" y1="-34.03347" x2="210.48359" y2="-50.83295" gradientUnits="userSpaceOnUse" id="color-24"><stop offset="0" stop-color="#353535"/><stop offset="1" stop-color="#252525"/></linearGradient><linearGradient x1="192.56243" y1="-31.26012" x2="189.23461" y2="-48.01672" gradientUnits="userSpaceOnUse" id="color-25"><stop offset="0" stop-color="#353535"/><stop offset="1" stop-color="#252525"/></linearGradient><linearGradient x1="192.61336" y1="-31.60012" x2="189.33595" y2="-48.10283" gradientUnits="userSpaceOnUse" id="color-26"><stop offset="0" stop-color="#353535"/><stop offset="1" stop-color="#252525"/></linearGradient><linearGradient x1="192.63856" y1="-31.47317" x2="189.36116" y2="-47.9759" gradientUnits="userSpaceOnUse" id="color-27"><stop offset="0" stop-color="#353535"/><stop offset="1" stop-color="#252525"/></linearGradient><linearGradient x1="174.13527" y1="-26.6532" x2="169.47584" y2="-43.08939" gradientUnits="userSpaceOnUse" id="color-28"><stop offset="0" stop-color="#353535"/><stop offset="1" stop-color="#252525"/></linearGradient><linearGradient x1="174.15878" y1="-26.99619" x2="169.56996" y2="-43.18334" gradientUnits="userSpaceOnUse" id="color-29"><stop offset="0" stop-color="#353535"/><stop offset="1" stop-color="#252525"/></linearGradient><linearGradient x1="174.19409" y1="-26.87167" x2="169.60526" y2="-43.05882" gradientUnits="userSpaceOnUse" id="color-30"><stop offset="0" stop-color="#353535"/><stop offset="1" stop-color="#252525"/></linearGradient><linearGradient x1="155.21299" y1="-20.69069" x2="149.72326" y2="-36.86848" gradientUnits="userSpaceOnUse" id="color-31"><stop offset="0" stop-color="#353535"/><stop offset="1" stop-color="#252525"/></linearGradient><linearGradient x1="155.21902" y1="-21.03442" x2="149.81248" y2="-36.9671" gradientUnits="userSpaceOnUse" id="color-32"><stop offset="0" stop-color="#353535"/><stop offset="1" stop-color="#252525"/></linearGradient><linearGradient x1="155.26061" y1="-20.91187" x2="149.85407" y2="-36.84454" gradientUnits="userSpaceOnUse" id="color-33"><stop offset="0" stop-color="#353535"/><stop offset="1" stop-color="#252525"/></linearGradient><linearGradient x1="137.5878" y1="-14.04296" x2="131.21696" y2="-29.27227" gradientUnits="userSpaceOnUse" id="color-34"><stop offset="0" stop-color="#353535"/><stop offset="1" stop-color="#252525"/></linearGradient><linearGradient x1="137.57069" y1="-14.37473" x2="131.29638" y2="-29.37328" gradientUnits="userSpaceOnUse" id="color-35"><stop offset="0" stop-color="#353535"/><stop offset="1" stop-color="#252525"/></linearGradient><linearGradient x1="137.61895" y1="-14.25935" x2="131.34463" y2="-29.2579" gradientUnits="userSpaceOnUse" id="color-36"><stop offset="0" stop-color="#353535"/><stop offset="1" stop-color="#252525"/></linearGradient><linearGradient x1="342.4122" y1="374.04298" x2="348.78305" y2="389.27228" gradientUnits="userSpaceOnUse" id="color-37"><stop offset="0" stop-color="#353535"/><stop offset="1" stop-color="#252525"/></linearGradient><linearGradient x1="342.42931" y1="374.37473" x2="348.70363" y2="389.37328" gradientUnits="userSpaceOnUse" id="color-38"><stop offset="0" stop-color="#353535"/><stop offset="1" stop-color="#252525"/></linearGradient><linearGradient x1="342.38105" y1="374.25935" x2="348.65538" y2="389.25791" gradientUnits="userSpaceOnUse" id="color-39"><stop offset="0" stop-color="#353535"/><stop offset="1" stop-color="#252525"/></linearGradient><linearGradient x1="249.56995" y1="394.42038" x2="249.73211" y2="411.50347" gradientUnits="userSpaceOnUse" id="color-40"><stop offset="0" stop-color="#353535"/><stop offset="1" stop-color="#252525"/></linearGradient><linearGradient x1="249.45685" y1="394.74502" x2="249.61656" y2="411.56928" gradientUnits="userSpaceOnUse" id="color-41"><stop offset="0" stop-color="#353535"/><stop offset="1" stop-color="#252525"/></linearGradient><linearGradient x1="249.45562" y1="394.6156" x2="249.61533" y2="411.43985" gradientUnits="userSpaceOnUse" id="color-42"><stop offset="0" stop-color="#353535"/><stop offset="1" stop-color="#252525"/></linearGradient><linearGradient x1="268.6948" y1="393.83323" x2="269.63598" y2="410.89115" gradientUnits="userSpaceOnUse" id="color-43"><stop offset="0" stop-color="#353535"/><stop offset="1" stop-color="#252525"/></linearGradient><linearGradient x1="268.59663" y1="394.1627" x2="269.52355" y2="410.96216" gradientUnits="userSpaceOnUse" id="color-44"><stop offset="0" stop-color="#353535"/><stop offset="1" stop-color="#252525"/></linearGradient><linearGradient x1="268.58951" y1="394.03347" x2="269.51642" y2="410.83295" gradientUnits="userSpaceOnUse" id="color-45"><stop offset="0" stop-color="#353535"/><stop offset="1" stop-color="#252525"/></linearGradient><linearGradient x1="287.43758" y1="391.26013" x2="290.76539" y2="408.01672" gradientUnits="userSpaceOnUse" id="color-46"><stop offset="0" stop-color="#353535"/><stop offset="1" stop-color="#252525"/></linearGradient><linearGradient x1="287.38666" y1="391.60011" x2="290.66406" y2="408.10283" gradientUnits="userSpaceOnUse" id="color-47"><stop offset="0" stop-color="#353535"/><stop offset="1" stop-color="#252525"/></linearGradient><linearGradient x1="287.36144" y1="391.47317" x2="290.63885" y2="407.97589" gradientUnits="userSpaceOnUse" id="color-48"><stop offset="0" stop-color="#353535"/><stop offset="1" stop-color="#252525"/></linearGradient><linearGradient x1="305.86474" y1="386.6532" x2="310.52416" y2="403.08939" gradientUnits="userSpaceOnUse" id="color-49"><stop offset="0" stop-color="#353535"/><stop offset="1" stop-color="#252525"/></linearGradient><linearGradient x1="305.84122" y1="386.99617" x2="310.43005" y2="403.18334" gradientUnits="userSpaceOnUse" id="color-50"><stop offset="0" stop-color="#353535"/><stop offset="1" stop-color="#252525"/></linearGradient><linearGradient x1="305.80592" y1="386.87167" x2="310.39476" y2="403.05883" gradientUnits="userSpaceOnUse" id="color-51"><stop offset="0" stop-color="#353535"/><stop offset="1" stop-color="#252525"/></linearGradient><linearGradient x1="324.78702" y1="380.69069" x2="330.27674" y2="396.86848" gradientUnits="userSpaceOnUse" id="color-52"><stop offset="0" stop-color="#353535"/><stop offset="1" stop-color="#252525"/></linearGradient><linearGradient x1="324.78098" y1="381.03442" x2="330.18753" y2="396.9671" gradientUnits="userSpaceOnUse" id="color-53"><stop offset="0" stop-color="#353535"/><stop offset="1" stop-color="#252525"/></linearGradient><linearGradient x1="324.7394" y1="380.91186" x2="330.14593" y2="396.84454" gradientUnits="userSpaceOnUse" id="color-54"><stop offset="0" stop-color="#353535"/><stop offset="1" stop-color="#252525"/></linearGradient><linearGradient x1="230.43006" y1="394.42038" x2="230.26789" y2="411.50347" gradientUnits="userSpaceOnUse" id="color-55"><stop offset="0" stop-color="#353535"/><stop offset="1" stop-color="#252525"/></linearGradient><linearGradient x1="230.54315" y1="394.74503" x2="230.38345" y2="411.56928" gradientUnits="userSpaceOnUse" id="color-56"><stop offset="0" stop-color="#353535"/><stop offset="1" stop-color="#252525"/></linearGradient><linearGradient x1="230.54438" y1="394.6156" x2="230.38468" y2="411.43987" gradientUnits="userSpaceOnUse" id="color-57"><stop offset="0" stop-color="#353535"/><stop offset="1" stop-color="#252525"/></linearGradient><linearGradient x1="211.30521" y1="393.83323" x2="210.36402" y2="410.89115" gradientUnits="userSpaceOnUse" id="color-58"><stop offset="0" stop-color="#353535"/><stop offset="1" stop-color="#252525"/></linearGradient><linearGradient x1="211.40337" y1="394.1627" x2="210.47645" y2="410.96218" gradientUnits="userSpaceOnUse" id="color-59"><stop offset="0" stop-color="#353535"/><stop offset="1" stop-color="#252525"/></linearGradient><linearGradient x1="211.41049" y1="394.03347" x2="210.48359" y2="410.83295" gradientUnits="userSpaceOnUse" id="color-60"><stop offset="0" stop-color="#353535"/><stop offset="1" stop-color="#252525"/></linearGradient><linearGradient x1="192.56242" y1="391.26013" x2="189.23461" y2="408.01672" gradientUnits="userSpaceOnUse" id="color-61"><stop offset="0" stop-color="#353535"/><stop offset="1" stop-color="#252525"/></linearGradient><linearGradient x1="192.61335" y1="391.60012" x2="189.33595" y2="408.10283" gradientUnits="userSpaceOnUse" id="color-62"><stop offset="0" stop-color="#353535"/><stop offset="1" stop-color="#252525"/></linearGradient><linearGradient x1="192.63856" y1="391.47317" x2="189.36115" y2="407.9759" gradientUnits="userSpaceOnUse" id="color-63"><stop offset="0" stop-color="#353535"/><stop offset="1" stop-color="#252525"/></linearGradient><linearGradient x1="174.13527" y1="386.6532" x2="169.47584" y2="403.08939" gradientUnits="userSpaceOnUse" id="color-64"><stop offset="0" stop-color="#353535"/><stop offset="1" stop-color="#252525"/></linearGradient><linearGradient x1="174.15878" y1="386.99619" x2="169.56995" y2="403.18334" gradientUnits="userSpaceOnUse" id="color-65"><stop offset="0" stop-color="#353535"/><stop offset="1" stop-color="#252525"/></linearGradient><linearGradient x1="174.19408" y1="386.87167" x2="169.60526" y2="403.05883" gradientUnits="userSpaceOnUse" id="color-66"><stop offset="0" stop-color="#353535"/><stop offset="1" stop-color="#252525"/></linearGradient><linearGradient x1="155.21298" y1="380.69069" x2="149.72326" y2="396.86848" gradientUnits="userSpaceOnUse" id="color-67"><stop offset="0" stop-color="#353535"/><stop offset="1" stop-color="#252525"/></linearGradient><linearGradient x1="155.21902" y1="381.03442" x2="149.81247" y2="396.9671" gradientUnits="userSpaceOnUse" id="color-68"><stop offset="0" stop-color="#353535"/><stop offset="1" stop-color="#252525"/></linearGradient><linearGradient x1="155.26061" y1="380.91187" x2="149.85407" y2="396.84455" gradientUnits="userSpaceOnUse" id="color-69"><stop offset="0" stop-color="#353535"/><stop offset="1" stop-color="#252525"/></linearGradient><linearGradient x1="137.5878" y1="374.04296" x2="131.21695" y2="389.27227" gradientUnits="userSpaceOnUse" id="color-70"><stop offset="0" stop-color="#353535"/><stop offset="1" stop-color="#252525"/></linearGradient><linearGradient x1="137.57069" y1="374.37473" x2="131.29638" y2="389.37328" gradientUnits="userSpaceOnUse" id="color-71"><stop offset="0" stop-color="#353535"/><stop offset="1" stop-color="#252525"/></linearGradient><linearGradient x1="137.61895" y1="374.25935" x2="131.34463" y2="389.25791" gradientUnits="userSpaceOnUse" id="color-72"><stop offset="0" stop-color="#353535"/><stop offset="1" stop-color="#252525"/></linearGradient><linearGradient x1="120.84619" y1="79.33096" x2="358.80233" y2="79.33096" gradientUnits="userSpaceOnUse" id="color-73"><stop offset="0" stop-color="#9e9e9e"/><stop offset="1" stop-color="#7a7a7a"/></linearGradient><linearGradient x1="239.82427" y1="70.54082" x2="239.82427" y2="88.12111" gradientUnits="userSpaceOnUse" id="color-74"><stop offset="0" stop-color="#353535"/><stop offset="1" stop-color="#000000"/></linearGradient><linearGradient x1="120.19766" y1="237.95643" x2="359.3694" y2="237.95643" gradientUnits="userSpaceOnUse" id="color-75"><stop offset="0" stop-color="#f3f3f3"/><stop offset="1" stop-color="#cccccc"/></linearGradient><linearGradient x1="239.78356" y1="89.06518" x2="239.78356" y2="386.84768" gradientUnits="userSpaceOnUse" id="color-76"><stop offset="0" stop-color="#353535"/><stop offset="1" stop-color="#000000"/></linearGradient><linearGradient x1="121.31026" y1="22.08596" x2="359.03092" y2="22.08596" gradientUnits="userSpaceOnUse" id="color-77"><stop offset="0" stop-color="#c0c0c0"/><stop offset="1" stop-color="#878787"/></linearGradient><linearGradient x1="240.17058" y1="-28.27109" x2="240.17058" y2="72.443" gradientUnits="userSpaceOnUse" id="color-78"><stop offset="0" stop-color="#353535"/><stop offset="1" stop-color="#000000"/></linearGradient><linearGradient x1="143.5097" y1="9.99189" x2="234.23334" y2="9.99189" gradientUnits="userSpaceOnUse" id="color-79"><stop offset="0" stop-color="#00a5ff"/><stop offset="1" stop-color="#0080ff"/></linearGradient><linearGradient x1="188.87152" y1="-3.7381" x2="188.87152" y2="23.72193" gradientUnits="userSpaceOnUse" id="color-80"><stop offset="0" stop-color="#353535"/><stop offset="1" stop-color="#000000"/></linearGradient><linearGradient x1="245.87134" y1="9.99189" x2="336.59498" y2="9.99189" gradientUnits="userSpaceOnUse" id="color-81"><stop offset="0" stop-color="#00a5ff"/><stop offset="1" stop-color="#0080ff"/></linearGradient><linearGradient x1="291.23317" y1="-3.73811" x2="291.23317" y2="23.72193" gradientUnits="userSpaceOnUse" id="color-82"><stop offset="0" stop-color="#353535"/><stop offset="1" stop-color="#000000"/></linearGradient><linearGradient x1="122.20131" y1="-18.50808" x2="357.9034" y2="-18.50808" gradientUnits="userSpaceOnUse" id="color-83"><stop offset="0" stop-color="#7c7c7c"/><stop offset="1" stop-color="#5e5e5e"/></linearGradient><linearGradient x1="240.05234" y1="-22.34433" x2="240.05234" y2="-14.67183" gradientUnits="userSpaceOnUse" id="color-84"><stop offset="0" stop-color="#353535"/><stop offset="1" stop-color="#000000"/></linearGradient><linearGradient x1="143.5097" y1="45.49189" x2="234.23334" y2="45.49189" gradientUnits="userSpaceOnUse" id="color-85"><stop offset="0" stop-color="#00a5ff"/><stop offset="1" stop-color="#0080ff"/></linearGradient><linearGradient x1="188.87152" y1="31.7619" x2="188.87152" y2="59.22193" gradientUnits="userSpaceOnUse" id="color-86"><stop offset="0" stop-color="#353535"/><stop offset="1" stop-color="#000000"/></linearGradient><linearGradient x1="245.87134" y1="45.49189" x2="336.59498" y2="45.49189" gradientUnits="userSpaceOnUse" id="color-87"><stop offset="0" stop-color="#00a5ff"/><stop offset="1" stop-color="#0080ff"/></linearGradient><linearGradient x1="291.23317" y1="31.76189" x2="291.23317" y2="59.22192" gradientUnits="userSpaceOnUse" id="color-88"><stop offset="0" stop-color="#353535"/><stop offset="1" stop-color="#000000"/></linearGradient><linearGradient x1="120.80234" y1="98.87415" x2="358.30234" y2="98.87415" gradientUnits="userSpaceOnUse" id="color-89"><stop offset="0" stop-color="#c9a2ff"/><stop offset="1" stop-color="#6e3e8d"/></linearGradient><linearGradient x1="239.55234" y1="93.87415" x2="239.55234" y2="103.87415" gradientUnits="userSpaceOnUse" id="color-90"><stop offset="0" stop-color="#353535"/><stop offset="1" stop-color="#000000"/></linearGradient><linearGradient x1="146.94832" y1="249.57401" x2="214.33958" y2="249.57401" gradientUnits="userSpaceOnUse" id="color-91"><stop offset="0" stop-color="#272727"/><stop offset="1" stop-color="#1d1d1d"/></linearGradient><linearGradient x1="181.0451" y1="113.38702" x2="181.0451" y2="385.76101" gradientUnits="userSpaceOnUse" id="color-92"><stop offset="0" stop-color="#353535"/><stop offset="1" stop-color="#000000"/></linearGradient><linearGradient x1="128.09481" y1="182.35433" x2="146.05409" y2="182.35433" gradientUnits="userSpaceOnUse" id="color-93"><stop offset="0" stop-color="#5d5d5d"/><stop offset="1" stop-color="#3a3a3a"/></linearGradient><linearGradient x1="180.00092" y1="108.18678" x2="180.00092" y2="257.29183" gradientUnits="userSpaceOnUse" id="color-94"><stop offset="0" stop-color="#353535"/><stop offset="1" stop-color="#000000"/></linearGradient><linearGradient x1="266.94833" y1="249.57402" x2="334.33958" y2="249.57402" gradientUnits="userSpaceOnUse" id="color-95"><stop offset="0" stop-color="#272727"/><stop offset="1" stop-color="#1d1d1d"/></linearGradient><linearGradient x1="301.0451" y1="113.38703" x2="301.0451" y2="385.76102" gradientUnits="userSpaceOnUse" id="color-96"><stop offset="0" stop-color="#353535"/><stop offset="1" stop-color="#000000"/></linearGradient><linearGradient x1="248.09481" y1="182.35434" x2="266.05409" y2="182.35434" gradientUnits="userSpaceOnUse" id="color-97"><stop offset="0" stop-color="#5d5d5d"/><stop offset="1" stop-color="#3a3a3a"/></linearGradient><linearGradient x1="300.00092" y1="108.18679" x2="300.00092" y2="257.29184" gradientUnits="userSpaceOnUse" id="color-98"><stop offset="0" stop-color="#353535"/><stop offset="1" stop-color="#000000"/></linearGradient><linearGradient x1="121.30234" y1="382.20748" x2="359.80234" y2="382.20748" gradientUnits="userSpaceOnUse" id="color-99"><stop offset="0" stop-color="#c9a2ff"/><stop offset="1" stop-color="#6e3e8d"/></linearGradient><linearGradient x1="240.55234" y1="377.70748" x2="240.55234" y2="386.70748" gradientUnits="userSpaceOnUse" id="color-100"><stop offset="0" stop-color="#353535"/><stop offset="1" stop-color="#000000"/></linearGradient><linearGradient x1="272.25" y1="80.16666" x2="325.75" y2="80.16666" gradientUnits="userSpaceOnUse" id="color-101"><stop offset="0" stop-color="#009714"/><stop offset="1" stop-color="#008100"/></linearGradient><linearGradient x1="272.25" y1="80.16666" x2="325.75" y2="80.16666" gradientUnits="userSpaceOnUse" id="color-102"><stop offset="0" stop-color="#353535"/><stop offset="1" stop-color="#000000"/></linearGradient><radialGradient cx="299.75" cy="79.66667" r="35.5" gradientUnits="userSpaceOnUse" id="color-103"><stop offset="0" stop-color="#00ff22"/><stop offset="1" stop-color="#00ff22" stop-opacity="0"/></radialGradient><linearGradient x1="264.25" y1="79.66667" x2="335.25" y2="79.66667" gradientUnits="userSpaceOnUse" id="color-104"><stop offset="0" stop-color="#353535"/><stop offset="1" stop-color="#000000"/></linearGradient><linearGradient x1="152.25" y1="80.66666" x2="205.75" y2="80.66666" gradientUnits="userSpaceOnUse" id="color-105"><stop offset="0" stop-color="#009714"/><stop offset="1" stop-color="#008100"/></linearGradient><linearGradient x1="152.25" y1="80.66666" x2="205.75" y2="80.66666" gradientUnits="userSpaceOnUse" id="color-106"><stop offset="0" stop-color="#353535"/><stop offset="1" stop-color="#000000"/></linearGradient><radialGradient cx="179.75" cy="80.16666" r="35.5" gradientUnits="userSpaceOnUse" id="color-107"><stop offset="0" stop-color="#00ff22"/><stop offset="1" stop-color="#00ff22" stop-opacity="0"/></radialGradient><linearGradient x1="144.25" y1="80.16666" x2="215.25" y2="80.16666" gradientUnits="userSpaceOnUse" id="color-108"><stop offset="0" stop-color="#353535"/><stop offset="1" stop-color="#000000"/></linearGradient></defs><g transform="translate(-119.19766,52.85792)"><g data-paper-data="{&quot;isPaintingLayer&quot;:true}" fill-rule="nonzero" stroke-linejoin="miter" stroke-miterlimit="10" stroke-dasharray="" stroke-dashoffset="0" style="mix-blend-mode: normal"><g data-paper-data="{&quot;index&quot;:null}" fill="none" stroke-width="2.5"><path d="M340.08396,-32.91136l17.3982,7.27817l-6.37085,15.2293l-17.39821,-7.27817z" stroke="url(#color-1)" stroke-linecap="butt"/><path d="M333.97875,-17.90984l23.17544,-7.92834" stroke="url(#color-2)" stroke-linecap="round"/><path d="M339.95627,-32.897l11.12389,22.27673" stroke="url(#color-3)" stroke-linecap="round"/></g><g data-paper-data="{&quot;index&quot;:null}" fill="none" stroke-width="2.5"><path d="M239.97411,-51.59611l19.51604,0.18527l-0.16218,17.0831l-19.51604,-0.18527z" stroke="url(#color-4)" stroke-linecap="butt"/><path d="M239.97764,-34.83501l19.11814,-16.64429" stroke="url(#color-5)" stroke-linecap="round"/><path d="M259.21363,-34.52296l-19.35631,-17.00954" stroke="url(#color-6)" stroke-linecap="round"/></g><g data-paper-data="{&quot;index&quot;:null}" fill="none" stroke-width="2.5"><path d="M259.89234,-51.42876l19.48726,1.07522l-0.94118,17.05792l-19.48726,-1.07522z" stroke="url(#color-7)" stroke-linecap="butt"/><path d="M259.13138,-34.68495l19.85741,-15.75497" stroke="url(#color-8)" stroke-linecap="round"/><path d="M278.33313,-33.49586l-18.56035,-17.8747" stroke="url(#color-9)" stroke-linecap="round"/></g><g data-paper-data="{&quot;index&quot;:null}" fill="none" stroke-width="2.5"><path d="M281.19387,-49.91763l19.14306,3.80177l-3.32783,16.75663l-19.14305,-3.80178z" stroke="url(#color-10)" stroke-linecap="butt"/><path d="M278.0886,-33.44667l21.8735,-12.8096" stroke="url(#color-11)" stroke-linecap="round"/><path d="M281.06733,-49.87677l15.86564,20.30449" stroke="url(#color-12)" stroke-linecap="round"/></g><g data-paper-data="{&quot;index&quot;:null}" fill="none" stroke-width="2.5"><path d="M301.13568,-45.75089l18.77699,5.32301l-4.65943,16.43618l-18.77699,-5.32301z" stroke="url(#color-13)" stroke-linecap="butt"/><path d="M319.5503,-40.59787l-22.82932,11.01624" stroke="url(#color-14)" stroke-linecap="round"/><path d="M301.00626,-45.72032l14.18816,21.51016" stroke="url(#color-15)" stroke-linecap="round"/></g><g data-paper-data="{&quot;index&quot;:null}" fill="none" stroke-width="2.5"><path d="M321.03584,-40.00427l18.48181,6.27156l-5.48972,16.17781l-18.48182,-6.27156z" stroke="url(#color-16)" stroke-linecap="butt"/><path d="M339.1644,-33.92093l-23.3603,9.84033" stroke="url(#color-17)" stroke-linecap="round"/><path d="M320.90504,-39.98032l13.07526,22.20425" stroke="url(#color-18)" stroke-linecap="round"/></g><g data-paper-data="{&quot;index&quot;:null}" fill="none" stroke-width="2.5"><path d="M240.18809,-34.51301l-19.51604,0.18527l-0.16217,-17.0831l19.51603,-0.18527z" stroke="url(#color-19)" stroke-linecap="butt"/><path d="M220.90423,-51.4793l19.11813,16.64429" stroke="url(#color-20)" stroke-linecap="round"/><path d="M240.14269,-51.5325l-19.35631,17.00953" stroke="url(#color-21)" stroke-linecap="round"/></g><g data-paper-data="{&quot;index&quot;:null}" fill="none" stroke-width="2.5"><path d="M221.04884,-34.37083l-19.48727,1.07522l-0.94116,-17.05793l19.48727,-1.07522z" stroke="url(#color-22)" stroke-linecap="butt"/><path d="M201.01122,-50.43992l19.85741,15.75497" stroke="url(#color-23)" stroke-linecap="round"/><path d="M201.66687,-33.49586l18.56035,-17.87468" stroke="url(#color-24)" stroke-linecap="round"/></g><g data-paper-data="{&quot;index&quot;:null}" fill="none" stroke-width="2.5"><path d="M202.13396,-33.16102l-19.14306,3.80177l-3.32782,-16.75662l19.14306,-3.80176z" stroke="url(#color-25)" stroke-linecap="butt"/><path d="M180.03791,-46.25628l21.8735,12.8096" stroke="url(#color-26)" stroke-linecap="round"/><path d="M198.93268,-49.87678l-15.86564,20.30449" stroke="url(#color-27)" stroke-linecap="round"/></g><g data-paper-data="{&quot;index&quot;:null}" fill="none" stroke-width="2.5"><path d="M183.52376,-29.3147l-18.77698,5.323l-4.65942,-16.43618l18.77698,-5.32301z" stroke="url(#color-28)" stroke-linecap="butt"/><path d="M160.44971,-40.59787l22.82933,11.01624" stroke="url(#color-29)" stroke-linecap="round"/><path d="M178.99376,-45.72034l-14.18816,21.51017" stroke="url(#color-30)" stroke-linecap="round"/></g><g data-paper-data="{&quot;index&quot;:null}" fill="none" stroke-width="2.5"><path d="M164.45389,-23.82648l-18.48182,6.27156l-5.48972,-16.1778l18.48181,-6.27156z" stroke="url(#color-31)" stroke-linecap="butt"/><path d="M140.8356,-33.92093l23.36031,9.84032" stroke="url(#color-32)" stroke-linecap="round"/><path d="M159.09498,-39.98033l-13.07526,22.20426" stroke="url(#color-33)" stroke-linecap="round"/></g><g data-paper-data="{&quot;index&quot;:null}" fill="none" stroke-width="2.5"><path d="M146.28689,-17.68206l-17.3982,7.27817l-6.37085,-15.2293l17.39821,-7.27817z" stroke="url(#color-34)" stroke-linecap="butt"/><path d="M146.02127,-17.90984l-23.17544,-7.92834" stroke="url(#color-35)" stroke-linecap="round"/><path d="M128.91986,-10.62027l11.12389,-22.27674" stroke="url(#color-36)" stroke-linecap="round"/></g><g fill="none" stroke-width="2.5"><path d="M333.7131,377.68206l17.39821,-7.27817l6.37085,15.2293l-17.3982,7.27817z" stroke="url(#color-37)" stroke-linecap="butt"/><path d="M333.97875,377.90984l23.17544,7.92834" stroke="url(#color-38)" stroke-linecap="round"/><path d="M339.95626,392.897l11.12389,-22.27672" stroke="url(#color-39)" stroke-linecap="round"/></g><g fill="none" stroke-width="2.5"><path d="M239.81193,394.51301l19.51603,-0.18527l0.16218,17.0831l-19.51604,0.18527z" stroke="url(#color-40)" stroke-linecap="butt"/><path d="M259.09578,411.47931l-19.11814,-16.64429" stroke="url(#color-41)" stroke-linecap="round"/><path d="M259.21362,394.52296l-19.35631,17.00954" stroke="url(#color-42)" stroke-linecap="round"/></g><g fill="none" stroke-width="2.5"><path d="M258.95117,394.37084l19.48726,-1.07522l0.94118,17.05792l-19.48726,1.07522z" stroke="url(#color-43)" stroke-linecap="butt"/><path d="M278.98878,410.43992l-19.8574,-15.75497" stroke="url(#color-44)" stroke-linecap="round"/><path d="M278.33313,393.49586l-18.56035,17.8747" stroke="url(#color-45)" stroke-linecap="round"/></g><g fill="none" stroke-width="2.5"><path d="M277.86604,393.16101l19.14305,-3.80177l3.32782,16.75662l-19.14305,3.80177z" stroke="url(#color-46)" stroke-linecap="butt"/><path d="M299.9621,406.25627l-21.8735,-12.8096" stroke="url(#color-47)" stroke-linecap="round"/><path d="M296.93296,389.57229l-15.86564,20.30449" stroke="url(#color-48)" stroke-linecap="round"/></g><g fill="none" stroke-width="2.5"><path d="M296.47625,389.31471l18.77699,-5.32301l4.65943,16.43618l-18.77698,5.32301z" stroke="url(#color-49)" stroke-linecap="butt"/><path d="M319.5503,400.59788l-22.82932,-11.01624" stroke="url(#color-50)" stroke-linecap="round"/><path d="M315.19442,384.21016l-14.18817,21.51016" stroke="url(#color-51)" stroke-linecap="round"/></g><g fill="none" stroke-width="2.5"><path d="M315.54611,383.82647l18.48181,-6.27156l5.48973,16.17781l-18.48181,6.27156z" stroke="url(#color-52)" stroke-linecap="butt"/><path d="M339.1644,393.92093l-23.36031,-9.84033" stroke="url(#color-53)" stroke-linecap="round"/><path d="M333.98029,377.77608l-13.07526,22.20424" stroke="url(#color-54)" stroke-linecap="round"/></g><g data-paper-data="{&quot;index&quot;:null}" fill="none" stroke-width="2.5"><path d="M240.0259,411.59611l-19.51603,-0.18527l0.16217,-17.0831l19.51604,0.18527z" stroke="url(#color-55)" stroke-linecap="butt"/><path d="M220.90423,411.47931l19.11813,-16.64429" stroke="url(#color-56)" stroke-linecap="round"/><path d="M240.14269,411.5325l-19.35631,-17.00953" stroke="url(#color-57)" stroke-linecap="round"/></g><g data-paper-data="{&quot;index&quot;:null}" fill="none" stroke-width="2.5"><path d="M220.10767,411.42876l-19.48726,-1.07522l0.94116,-17.05794l19.48726,1.07522z" stroke="url(#color-58)" stroke-linecap="butt"/><path d="M201.01122,410.43992l19.8574,-15.75497" stroke="url(#color-59)" stroke-linecap="round"/><path d="M201.66687,393.49586l18.56035,17.87469" stroke="url(#color-60)" stroke-linecap="round"/></g><g data-paper-data="{&quot;index&quot;:null}" fill="none" stroke-width="2.5"><path d="M198.80613,409.91764l-19.14305,-3.80176l3.32782,-16.75662l19.14306,3.80177z" stroke="url(#color-61)" stroke-linecap="butt"/><path d="M201.9114,393.44668l-21.8735,12.8096" stroke="url(#color-62)" stroke-linecap="round"/><path d="M183.06703,389.5723l15.86564,20.30449" stroke="url(#color-63)" stroke-linecap="round"/></g><g data-paper-data="{&quot;index&quot;:null}" fill="none" stroke-width="2.5"><path d="M178.86435,405.7509l-18.77699,-5.32301l4.65942,-16.43618l18.77698,5.323z" stroke="url(#color-64)" stroke-linecap="butt"/><path d="M160.44971,400.59788l22.82933,-11.01624" stroke="url(#color-65)" stroke-linecap="round"/><path d="M164.80559,384.21017l14.18817,21.51017" stroke="url(#color-66)" stroke-linecap="round"/></g><g data-paper-data="{&quot;index&quot;:null}" fill="none" stroke-width="2.5"><path d="M158.96416,400.00429l-18.48181,-6.27156l5.48972,-16.17781l18.48181,6.27156z" stroke="url(#color-67)" stroke-linecap="butt"/><path d="M140.8356,393.92093l23.36031,-9.84032" stroke="url(#color-68)" stroke-linecap="round"/><path d="M159.09498,399.98033l-13.07526,-22.20425" stroke="url(#color-69)" stroke-linecap="round"/></g><g data-paper-data="{&quot;index&quot;:null}" fill="none" stroke-width="2.5"><path d="M139.91605,392.91136l-17.39821,-7.27817l6.37085,-15.2293l17.3982,7.27817z" stroke="url(#color-70)" stroke-linecap="butt"/><path d="M146.02126,377.90984l-23.17544,7.92834" stroke="url(#color-71)" stroke-linecap="round"/><path d="M140.04375,392.89701l-11.12389,-22.27674" stroke="url(#color-72)" stroke-linecap="round"/></g><path d="M120.84619,88.12111v-17.58029h237.95615v17.58029z" fill="url(#color-73)" stroke="url(#color-74)" stroke-width="2" stroke-linecap="butt"/><path d="M120.19766,386.84768v-297.78251h239.17179v297.78251z" fill="url(#color-75)" stroke="url(#color-76)" stroke-width="2" stroke-linecap="butt"/><path d="M121.31026,72.443v-100.7141h237.72067v100.7141z" fill="url(#color-77)" stroke="url(#color-78)" stroke-width="2" stroke-linecap="butt"/><path d="M143.5097,23.72193v-27.46003h90.72365v27.46003z" fill="url(#color-79)" stroke="url(#color-80)" stroke-width="2" stroke-linecap="butt"/><path d="M245.87134,23.72193v-27.46003h90.72365v27.46003z" fill="url(#color-81)" stroke="url(#color-82)" stroke-width="2" stroke-linecap="butt"/><path d="M122.20131,-14.67183v-7.67251h235.70206v7.67251z" fill="url(#color-83)" stroke="url(#color-84)" stroke-width="2" stroke-linecap="butt"/><path d="M143.5097,59.22193v-27.46004h90.72365v27.46004z" fill="url(#color-85)" stroke="url(#color-86)" stroke-width="2" stroke-linecap="butt"/><path d="M245.87134,59.22192v-27.46003h90.72365v27.46003z" fill="url(#color-87)" stroke="url(#color-88)" stroke-width="2" stroke-linecap="butt"/><path d="M120.80234,103.87415v-10h237.5v10z" fill="url(#color-89)" stroke="url(#color-90)" stroke-width="2" stroke-linecap="butt"/><path d="M123.14744,385.76101l7.87542,-104.9295c0,0 0.81718,-9.65838 5.12384,-16.97989c2.40448,-4.08773 9.29274,-4.69389 9.54423,-9.12315c0.59542,-10.48681 -7.07666,-32.95206 -8.0022,-56.5069c-1.58494,-40.33654 2.84136,-84.83454 2.84136,-84.83454h80.22767c0,0 1.89684,45.58423 0.38085,85.82784c-0.9043,24.00556 -5.84823,45.46664 -5.32526,55.99902c0.21533,4.33672 7.5532,4.57978 9.81386,8.84429c3.8886,7.33546 3.49354,17.755 3.49354,17.755l9.82198,103.94783z" fill="url(#color-91)" stroke="url(#color-92)" stroke-width="2" stroke-linecap="butt"/><path d="M128.09481,256.5219v-148.33512l103.76456,1.023l0.04765,148.08205l-18.34646,-0.02655c0,0 7.45265,-41.50394 7.34232,-63.0648c-0.10904,-21.30902 -8.00047,-65.5537 -8.00047,-65.5537h-66.84834c0,0 -8.22349,44.17906 -8.22349,66.0607c0,20.6749 8.22349,61.81443 8.22349,61.81443z" fill="url(#color-93)" stroke="url(#color-94)" stroke-width="2" stroke-linecap="butt"/><path d="M243.14744,385.76102l7.87542,-104.9295c0,0 0.81718,-9.65839 5.12384,-16.97989c2.40448,-4.08773 9.29275,-4.69389 9.54423,-9.12315c0.59542,-10.48681 -7.07666,-32.95206 -8.0022,-56.5069c-1.58495,-40.33654 2.84136,-84.83453 2.84136,-84.83453h80.22767c0,0 1.89684,45.58423 0.38085,85.82785c-0.90429,24.00556 -5.84823,45.46664 -5.32526,55.99902c0.21534,4.33672 7.5532,4.57978 9.81386,8.84429c3.8886,7.33546 3.49354,17.755 3.49354,17.755l9.82198,103.94783z" fill="url(#color-95)" stroke="url(#color-96)" stroke-width="2" stroke-linecap="butt"/><path d="M248.09481,256.52191v-148.33512l103.76456,1.023l0.04766,148.08205l-18.34647,-0.02655c0,0 7.45265,-41.50394 7.34233,-63.0648c-0.10904,-21.30901 -8.00047,-65.5537 -8.00047,-65.5537h-66.84833c0,0 -8.2235,44.17906 -8.2235,66.0607c0,20.6749 8.2235,61.81443 8.2235,61.81443z" fill="url(#color-97)" stroke="url(#color-98)" stroke-width="2" stroke-linecap="butt"/><path d="M121.30234,386.70748v-9h238.5v9z" fill="url(#color-99)" stroke="url(#color-100)" stroke-width="2" stroke-linecap="butt"/><path d="M325.75,80.16666c0,5.52285 -11.97639,10 -26.75,10c-14.77362,0 -26.75,-4.47715 -26.75,-10c0,-5.52285 11.97638,-10 26.75,-10c14.77361,0 26.75,4.47715 26.75,10z" fill="url(#color-101)" stroke="url(#color-102)" stroke-width="2.5" stroke-linecap="butt"/><path d="M335.25,79.66667c0,-17.94925 -15.89389,-32.5 -35.5,-32.5c-19.60611,0 -35.5,14.55075 -35.5,32.5c0,17.94925 15.89389,32.5 35.5,32.5c19.60611,0 35.5,-14.55075 35.5,-32.5z" fill="url(#color-103)" stroke="url(#color-104)" stroke-width="0" stroke-linecap="butt"/><path d="M205.75,80.66666c0,5.52285 -11.97638,10 -26.75,10c-14.77362,0 -26.75,-4.47715 -26.75,-10c0,-5.52285 11.97638,-10 26.75,-10c14.77362,0 26.75,4.47715 26.75,10z" fill="url(#color-105)" stroke="url(#color-106)" stroke-width="2.5" stroke-linecap="butt"/><path d="M215.25,80.16666c0,-17.94925 -15.89389,-32.5 -35.5,-32.5c-19.60611,0 -35.5,14.55075 -35.5,32.5c0,17.94925 15.89389,32.5 35.5,32.5c19.60611,0 35.5,-14.55075 35.5,-32.5z" fill="url(#color-107)" stroke="url(#color-108)" stroke-width="0" stroke-linecap="butt"/></g></g></svg>