<svg version="1.1" xmlns="http://www.w3.org/2000/svg" xmlns:xlink="http://www.w3.org/1999/xlink" width="619.063" height="471.58011" viewBox="0,0,619.063,471.58011"><defs><radialGradient cx="240" cy="180.00003" r="250.5" gradientUnits="userSpaceOnUse" id="color-1"><stop offset="0" stop-color="#949494"/><stop offset="1" stop-color="#7d7d7d"/></radialGradient><radialGradient cx="243.51172" cy="115.5508" r="114.5" gradientUnits="userSpaceOnUse" id="color-2"><stop offset="0" stop-color="#484848"/><stop offset="1" stop-color="#3a3a3a"/></radialGradient><radialGradient cx="313.80117" cy="294.91333" r="270.53072" gradientUnits="userSpaceOnUse" id="color-3"><stop offset="0" stop-color="#4d4d4d"/><stop offset="1" stop-color="#3c3c3c"/></radialGradient><radialGradient cx="228.97824" cy="289.72909" r="66" gradientUnits="userSpaceOnUse" id="color-4"><stop offset="0" stop-color="#2a2a2a"/><stop offset="1" stop-color="#2a2a2a"/></radialGradient><radialGradient cx="222.20341" cy="294.86247" r="66" gradientUnits="userSpaceOnUse" id="color-5"><stop offset="0" stop-color="#1d1d1d"/><stop offset="1" stop-color="#1b1b1b"/></radialGradient><radialGradient cx="349.5834" cy="454.2388" r="249.95744" gradientUnits="userSpaceOnUse" id="color-6"><stop offset="0" stop-color="#222222"/><stop offset="1" stop-color="#202020"/></radialGradient><radialGradient cx="308.17227" cy="315.18154" r="65" gradientUnits="userSpaceOnUse" id="color-7"><stop offset="0" stop-color="#090909"/><stop offset="1" stop-color="#080808"/></radialGradient><radialGradient cx="465.65055" cy="218.71996" r="26.5" gradientUnits="userSpaceOnUse" id="color-8"><stop offset="0" stop-color="#525252"/><stop offset="1" stop-color="#424242"/></radialGradient><radialGradient cx="389.18019" cy="263.01041" r="84" gradientUnits="userSpaceOnUse" id="color-9"><stop offset="0" stop-color="#1d1d1d"/><stop offset="1" stop-color="#1b1b1b"/></radialGradient><radialGradient cx="423.82281" cy="229.41893" r="44.75" gradientUnits="userSpaceOnUse" id="color-10"><stop offset="0" stop-color="#3a3a3a"/><stop offset="1" stop-color="#2f2f2f"/></radialGradient><radialGradient cx="376.45226" cy="269.17481" r="48.5" gradientUnits="userSpaceOnUse" id="color-11"><stop offset="0" stop-color="#343434"/><stop offset="1" stop-color="#262626"/></radialGradient><radialGradient cx="333.55169" cy="245.02495" r="26.25" gradientUnits="userSpaceOnUse" id="color-12"><stop offset="0" stop-color="#121212"/><stop offset="1" stop-color="#161616"/></radialGradient><radialGradient cx="315.50967" cy="312.64928" r="65" gradientUnits="userSpaceOnUse" id="color-13"><stop offset="0" stop-color="#101010"/><stop offset="1" stop-color="#111111"/></radialGradient><radialGradient cx="483.58941" cy="200.60374" r="36.25" gradientUnits="userSpaceOnUse" id="color-14"><stop offset="0" stop-color="#313131"/><stop offset="1" stop-color="#1b1b1b"/></radialGradient><radialGradient cx="374.11467" cy="343.70192" r="26.25" gradientUnits="userSpaceOnUse" id="color-15"><stop offset="0" stop-color="#121212"/><stop offset="1" stop-color="#161616"/></radialGradient><radialGradient cx="220.83039" cy="190.07464" r="57.27136" gradientUnits="userSpaceOnUse" id="color-16"><stop offset="0" stop-color="#33266a"/><stop offset="1" stop-color="#949074"/></radialGradient><linearGradient x1="234.51813" y1="131.11426" x2="231.54037" y2="148.24063" gradientUnits="userSpaceOnUse" id="color-17"><stop offset="0" stop-color="#694444"/><stop offset="1" stop-color="#98a1b9"/></linearGradient><radialGradient cx="236.18092" cy="72.67027" r="33.28545" gradientUnits="userSpaceOnUse" id="color-18"><stop offset="0" stop-color="#dcdcdc"/><stop offset="1" stop-color="#a0a0a0"/></radialGradient><radialGradient cx="223.11913" cy="69.2546" r="25.55275" gradientUnits="userSpaceOnUse" id="color-19"><stop offset="0" stop-color="#1c2f30"/><stop offset="1" stop-color="#142913"/></radialGradient><radialGradient cx="265.24792" cy="74.52296" r="6.72592" gradientUnits="userSpaceOnUse" id="color-20"><stop offset="0" stop-color="#786c41"/><stop offset="1" stop-color="#141a29"/></radialGradient><radialGradient cx="236.64357" cy="70.96201" r="10.58856" gradientUnits="userSpaceOnUse" id="color-21"><stop offset="0" stop-color="#7ba676"/><stop offset="1" stop-color="#291616"/></radialGradient><radialGradient cx="241.69587" cy="95.30497" r="25.00169" gradientUnits="userSpaceOnUse" id="color-22"><stop offset="0" stop-color="#d1ffc4"/><stop offset="1" stop-color="#2188ff"/></radialGradient><radialGradient cx="241.69587" cy="95.30497" r="25.00169" gradientUnits="userSpaceOnUse" id="color-23"><stop offset="0" stop-color="#ceffc4"/><stop offset="1" stop-color="#ff21cc"/></radialGradient><radialGradient cx="241.69587" cy="95.30497" r="25.00169" gradientUnits="userSpaceOnUse" id="color-24"><stop offset="0" stop-color="#ffe9c4"/><stop offset="1" stop-color="#4fff21"/></radialGradient><radialGradient cx="241.69587" cy="95.30497" r="25.00169" gradientUnits="userSpaceOnUse" id="color-25"><stop offset="0" stop-color="#ffe9c4"/><stop offset="1" stop-color="#4fff21"/></radialGradient><radialGradient cx="241.69582" cy="95.30499" r="25.00169" gradientUnits="userSpaceOnUse" id="color-26"><stop offset="0" stop-color="#ffe9c4"/><stop offset="1" stop-color="#ffa321"/></radialGradient><radialGradient cx="241.69578" cy="95.30498" r="25.00169" gradientUnits="userSpaceOnUse" id="color-27"><stop offset="0" stop-color="#c4f0ff"/><stop offset="1" stop-color="#3d21ff"/></radialGradient><linearGradient x1="-11.98828" y1="179.28453" x2="150.92969" y2="179.28453" gradientUnits="userSpaceOnUse" id="color-28"><stop offset="0" stop-color="#7d7d7d"/><stop offset="1" stop-color="#818181"/></linearGradient></defs><g transform="translate(11.98828,8.48171)"><g data-paper-data="{&quot;isPaintingLayer&quot;:true}" fill-rule="nonzero" stroke-linejoin="miter" stroke-miterlimit="10" stroke-dasharray="" stroke-dashoffset="0" style="mix-blend-mode: normal"><path d="M-10.5,368.00001v-376h501v376z" fill="url(#color-1)" stroke="none" stroke-width="0" stroke-linecap="butt"/><path d="M55.63703,350.09237c-3.89444,-35.12313 -28.86024,-260.28391 -28.86024,-260.28391c0,0 6.13498,-58.73673 90.38049,-83.32369c88.94305,-19.99889 123.11201,33.7383 123.11201,33.7383c0,0 65.07454,148.36123 76.16367,173.64299c3.0985,7.06417 1.47154,14.99796 -6.00481,17.45295c-24.82515,8.15175 -82.74364,27.48408 -119.81421,42.36863c-36.09995,14.49483 -99.11668,64.98273 -123.29164,84.94994c-6.18411,5.10773 -10.69693,0.36836 -11.68526,-8.54521z" fill="#000000" stroke="none" stroke-width="NaN" stroke-linecap="butt"/><path d="M165.01172,165.05081l-2,-164c0,0 26.59426,3.29414 40.84201,7.29545c21.80408,6.12342 42.158,33.70455 42.158,33.70455c0,0 56.32326,135.7535 68.65762,165.48248c4.54989,10.96641 3.54663,20.14819 -2.69066,17.59835c-21.79808,-8.91117 -146.96696,-60.08083 -146.96696,-60.08083z" fill="url(#color-2)" stroke="none" stroke-width="0" stroke-linecap="butt"/><path d="M605.69258,270.32998c14.79035,54.92892 -90.81001,131.12039 -235.86501,170.17842c-145.055,39.05803 -274.63528,26.19214 -289.42563,-28.73678c-14.79036,-54.92892 90.81,-131.1204 235.86501,-170.17843c145.05501,-39.05803 274.63528,-26.19213 289.42564,28.73679z" fill="url(#color-3)" stroke="none" stroke-width="NaN" stroke-linecap="butt"/><g data-paper-data="{&quot;index&quot;:null}"><path d="M221.7213,237.51417l18.63568,7.20842l33.462,93.83653l-22.25925,-11.99065z" fill="url(#color-4)" stroke="none" stroke-width="0" stroke-linecap="butt"/><path d="M252.45332,325.26406l21.46221,12.59458l-6.87139,5.83387l-22.95973,-12.08721z" fill="url(#color-5)" stroke="none" stroke-width="0" stroke-linecap="butt"/><path d="M243.98785,332.3058l-29.01224,-87.79835l7.58732,-5.8825l30.00994,86.54853z" data-paper-data="{&quot;index&quot;:null}" fill="url(#color-6)" stroke="none" stroke-width="0" stroke-linecap="butt"/><path d="M226.6818,241.0668l49.6744,5.71874l-37.99309,0.88027" fill="none" stroke="#747474" stroke-width="1.5" stroke-linecap="round"/><path d="M255.92492,322.04882l55.24453,10.40635l-43.1397,-2.28397" fill="none" stroke="#747474" stroke-width="1.5" stroke-linecap="round"/><path d="M261.55145,288.70273c-6.53341,-17.0944 -5.97747,-42.56344 -2.56125,-48.30337c2.17588,-3.65591 19.20595,5.0226 28.79083,9.47131c7.94194,3.68615 20.28707,15.94247 20.28707,15.94247l45.54771,97.12701c0,0 -20.99459,-3.76071 -30.44393,-7.83954c-9.80806,-4.23367 -25.97957,-9.11744 -30.68559,-14.8801c-4.67276,-5.72192 -24.85768,-35.61715 -30.93484,-51.51779z" fill="url(#color-7)" stroke="none" stroke-width="0" stroke-linecap="butt"/><path d="M447.24607,198.5637l11.4751,-7.12896l27.95706,45.07108l-12.43968,8.3818z" fill="url(#color-8)" stroke="none" stroke-width="0" stroke-linecap="butt"/><path d="M314.43797,263.93278l123.01751,-82.28573l54.9052,82.38124l-141.83002,91.94697z" fill="url(#color-9)" stroke="none" stroke-width="0" stroke-linecap="butt"/><path d="M386.04112,216.89275l43.80938,-30.72438l47.9381,75.62035l-47.68542,32.13022z" fill="url(#color-10)" stroke="none" stroke-width="0" stroke-linecap="butt"/><path d="M321.12863,270.87994l69.10339,-47.76737l35.25675,63.06316l-75.46736,50.84956z" fill="url(#color-11)" stroke="none" stroke-width="0" stroke-linecap="butt"/><path d="M299.11864,250.74142c0,0 17.84291,-8.94866 28.21866,-11.42355c8.73093,-2.08255 31.61593,-3.57052 31.61593,-3.57052l-43.12421,29.0569z" fill="url(#color-12)" stroke="none" stroke-width="0" stroke-linecap="butt"/><path d="M268.88886,286.17044c-6.53341,-17.0944 -10.41229,-41.98691 -6.99608,-47.72684c2.17588,-3.65591 23.64077,4.44607 33.22565,8.89478c7.94194,3.68615 20.28707,15.94247 20.28707,15.94247l42.23047,99.36215c0,0 -17.67735,-5.99585 -27.12668,-10.07468c-9.80806,-4.23367 -25.97957,-9.11744 -30.68559,-14.8801c-4.67276,-5.72192 -24.85768,-35.61715 -30.93484,-51.51779z" fill="url(#color-13)" stroke="none" stroke-width="0" stroke-linecap="butt"/><path d="M449.82493,187.1795l31.23445,-21.64854l44.65857,57.33116l-34.41643,23.18963z" fill="url(#color-14)" stroke="none" stroke-width="0" stroke-linecap="butt"/><path d="M335.68806,355.12375c0,0 20.54692,-17.4247 32.57751,-22.08748c10.09842,-3.91392 30.79164,-7.34635 30.79164,-7.34635l-43.07987,38.07066z" fill="url(#color-15)" stroke="none" stroke-width="0" stroke-linecap="butt"/></g><g><path d="M176.09297,242.23686l14.09664,-113.67194l75.37826,9.34786l-14.09664,113.67194z" fill="url(#color-16)" stroke="#ed6b00" stroke-width="0" stroke-linecap="butt"/><path d="M221.97079,146.5769l2.97776,-17.12642l19.13911,3.32761l-2.97776,17.12642z" fill="url(#color-17)" stroke="#000000" stroke-width="0" stroke-linecap="butt"/><g><path d="M251.80887,305.02668c0,0 -18.82809,-62.69686 -23.5761,-73.05191c-1.55258,-3.38588 -9.25788,-1.89287 -9.25788,-1.89287c0,0 -9.83365,-8.83584 -0.84835,-10.84467c7.59408,-1.69778 25.52946,-0.03284 25.52946,-0.03284l27.96988,81.39169z" data-paper-data="{&quot;index&quot;:null}" fill="#4a433c" stroke="#000000" stroke-width="0" stroke-linecap="butt"/><path d="M289.76335,314.75385c-1.46787,0.32835 -6.53996,1.49756 -11.68583,2.43865c-3.12892,0.57203 -5.05193,-0.47682 -7.44239,-0.31384c-3.00915,0.20496 -7.15447,2.17271 -9.36328,2.16866c-4.07039,-0.00752 -6.31063,-0.6116 -6.31063,-0.6116c0,0 -1.23399,-2.39029 -1.58496,-3.76868c-0.47291,-1.8573 -0.99758,-6.37305 -0.99758,-6.37305c0,0 14.62821,-3.58143 20.47132,-4.3668c3.45749,-0.46467 10.85876,-0.74606 10.85876,-0.74606c0,0 3.95558,0.71618 4.7209,1.65601c0.9378,1.15076 3.26276,4.44082 3.26276,4.44082c0,0 0.11897,5.01766 -1.92854,5.47544z" data-paper-data="{&quot;index&quot;:null}" fill="#140d0d" stroke="#000000" stroke-width="0" stroke-linecap="butt"/><path d="M287.66729,308.52835c-0.61465,0.1374 2.6257,3.57708 -5.74484,4.7503c-7.9049,1.10809 -7.53271,-1.40524 -10.31239,-0.99336c-5.81188,0.86123 -6.07808,2.90594 -8.63828,3.08064c-0.89171,0.06081 -1.33283,0.00029 -4.95599,-1.41487c-2.49187,-0.97313 -2.61772,-3.96798 -4.45058,-5.19126c-2.67737,-1.78674 -3.0459,-4.2222 -3.0459,-4.2222l-1.87631,-7.50449c0,0 2.42584,5.19531 4.95983,6.77205c2.26706,1.41097 5.7267,-1.32918 6.92437,-1.59732c2.09714,-0.46943 -3.51508,-7.71103 -1.49973,-8.11407c1.0836,-0.21691 9.08871,-2.64062 9.08871,-2.64062c0,0 2.28651,8.7965 2.87441,8.71733c3.45749,-0.46467 11.75949,-0.94724 11.75949,-0.94724c0,0 3.95558,0.71618 4.72085,1.65578c0.9378,1.15076 3.19954,6.97718 3.19954,6.97718c0,0 -0.95515,0.21379 -3.00262,0.67141z" data-paper-data="{&quot;index&quot;:null}" fill="#1f261f" stroke="#000000" stroke-width="0" stroke-linecap="butt"/><path d="M267.54269,305.38697l6.00164,-4.17926" fill="none" stroke="#ffb5b5" stroke-width="0.5" stroke-linecap="round"/><path d="M278.04861,300.20108l-5.50013,5.01282" fill="none" stroke="#bffdff" stroke-width="0.5" stroke-linecap="round"/><path d="M280.8849,300.19754l-2.79745,4.40839" fill="none" stroke="#eaffc1" stroke-width="0.5" stroke-linecap="round"/><path d="M267.66282,294.64122l-5.27041,1.80881" fill="none" stroke="#8d967b" stroke-width="0.5" stroke-linecap="round"/><path d="M268.66575,296.30853l-4.60275,1.97495" fill="none" stroke="#767796" stroke-width="0.5" stroke-linecap="round"/></g><g data-paper-data="{&quot;index&quot;:null}" stroke="#000000" stroke-width="0" stroke-linecap="butt"><path d="M153.21438,191.14778c0,0 3.57326,-4.86147 7.68664,-13.74763c2.47057,-5.33731 6.04021,-14.28108 7.19017,-16.19393c2.5654,-4.26662 2.27071,-7.25289 4.05001,-9.93357c1.45369,-2.19005 8.21786,-13.75432 16.25578,-15.78992c16.13629,-4.08652 22.32095,10.724 15.80035,15.23742c-5.302,7.41055 -9.61041,-0.2499 -13.11367,2.39042c-4.85501,3.65914 -7.8509,13.63749 -9.73935,16.31739c-1.37376,1.94941 -4.45992,8.58176 -5.77526,10.4933c-5.46976,7.94871 -7.17996,16.10536 -7.17996,16.10536z" fill="#b8bda6"/><path d="M148.39175,202.51989c2.12345,-4.85154 4.70355,-11.07297 4.70355,-11.07297c0,0 5.67303,-0.15818 8.16949,0.63799c2.56405,0.81736 7.01691,4.20402 7.01691,4.20402c0,0 -1.19357,3.00138 -0.72961,5.54595c0.43747,2.40048 1.44308,9.19233 -2.3116,7.75348c-1.43544,-0.5501 0.25551,-2.46917 -0.17456,-2.28113c-0.04758,0.02077 -3.08185,10.04267 -5.8309,8.28673c-3.04204,-1.94306 0.81027,-7.50579 0.53943,-7.17157c-2.50636,3.09383 -2.55665,7.08898 -4.94975,5.53267c-4.59755,-1.51624 3.20778,-8.37272 2.03921,-7.57767c-2.18281,1.48555 -3.58889,5.95914 -6.42877,4.96738c-5.35417,-1.64494 3.18268,-5.87681 1.71948,-5.20779c-2.76393,1.26354 -3.33728,3.4938 -6.41301,1.50919c-1.08059,-0.43231 1.55758,-2.63006 2.65014,-5.1263z" data-paper-data="{&quot;index&quot;:null}" fill="#786274"/></g><g data-paper-data="{&quot;index&quot;:null}" stroke="#000000" stroke-width="0" stroke-linecap="butt"><path d="M269.77585,234.04862c0,0 1.66076,-7.13903 0.24627,-15.5064c-0.34015,-2.01222 -0.9268,-8.63226 -1.29945,-10.69629c-0.88188,-4.88491 -2.33648,-9.62857 -2.7932,-12.63469c-0.98234,-6.4655 -4.07937,-15.1924 -4.07937,-15.1924c0,0 -13.32077,-33.41775 1.17393,-35.13697c10.46555,-4.8338 11.35355,10.19053 14.51701,24.25013c2.65306,11.79128 4.26279,23.51631 4.47842,24.93585c0.42493,2.79761 0.44235,7.96839 0.90606,12.32228c0.2077,1.95193 -0.26201,10.40822 -0.27095,15.58081c-0.01475,8.61198 1.03215,13.81396 1.03215,13.81396z" fill="#b8bda6"/><path d="M283.91717,247.06836c-0.61661,-0.06816 -0.21071,8.9524 -2.83258,8.82375c-1.28962,-0.06325 0.0201,-5.866 -1.71552,-7.8986c-0.91879,-1.07613 0.847,10.30723 -2.52026,9.09217c-1.15595,-0.4171 -0.1346,-8.65265 -1.32453,-10.6468c-0.63705,-1.06735 -0.07736,12.56041 -2.33733,11.85822c-1.34156,-0.41699 0.10941,-7.90991 -0.74215,-11.30664c-0.41508,-1.65481 -1.28472,9.25598 -2.90554,8.44902c-0.99202,-0.49394 -0.7924,-11.17791 -0.9008,-11.30056c-0.60891,-0.68959 -2.89385,5.74534 -3.64961,4.17122c-1.39297,-2.90083 1.44855,-6.27883 3.69624,-9.4573c1.31361,-1.85724 1.47468,-4.6934 1.47468,-4.6934c0,0 4.80699,-1.04964 7.1549,-0.75066c2.28617,0.29078 6.75169,2.52063 6.75169,2.52063c0,0 1.15671,11.28329 -0.14911,11.13866z" data-paper-data="{&quot;index&quot;:null}" fill="#786274"/></g><g><path d="M192.22679,309.34375l4.29498,-85.95608c0,0 16.76979,-6.5749 24.53665,-7.05013c9.19012,-0.56253 2.19344,10.6546 2.19344,10.6546c0,0 -7.81719,0.7028 -8.36957,4.38672c-1.68904,11.2655 -2.38705,76.72469 -2.38705,76.72469z" fill="#413a4a" stroke="#000000" stroke-width="0" stroke-linecap="butt"/><path d="M232.05455,319.7608c0,0 -0.67613,4.97351 -2.77032,5.10158c-1.50121,0.09199 -6.6942,0.44436 -11.92474,0.55967c-3.17982,0.07016 -4.91315,-1.26965 -7.29897,-1.48698c-3.00396,-0.27331 -7.40788,1.01372 -9.58842,0.66036c-4.01786,-0.65098 -6.13428,-1.60183 -6.13428,-1.60183c0,0 -0.8405,-2.55513 -0.96928,-3.97185c-0.17346,-1.90893 0.02297,-6.45041 0.02297,-6.45041c0,0 15.01028,-1.2227 20.90435,-1.07417c3.48764,0.08797 10.83987,0.98055 10.83987,0.98055c0,0 3.7923,1.33274 4.39955,2.38183c0.74372,1.28467 2.51933,4.90123 2.51933,4.90123z" data-paper-data="{&quot;index&quot;:null}" fill="#12140d" stroke="#000000" stroke-width="0" stroke-linecap="butt"/><path d="M231.27005,318.19565c0,0 -0.97681,0.05988 -3.07104,0.18813c-0.62881,0.03866 2.02714,3.94751 -6.42421,3.78199c-7.98087,-0.1563 -7.21567,-2.57911 -10.0254,-2.61182c-5.87471,-0.06863 -6.46132,1.90792 -9.01662,1.67571c-0.89003,-0.08089 -1.3161,-0.21092 -4.67006,-2.18104c-2.30642,-1.35492 -1.95726,-4.33211 -3.57368,-5.82974c-2.36092,-2.18791 -2.33995,-4.65078 -2.33995,-4.65078l-0.66589,-7.70668c0,0 1.57362,5.51357 3.82621,7.47152c2.01545,1.75176 5.86467,-0.4066 7.08962,-0.48203c2.1449,-0.13179 -2.25105,-8.16973 -0.19755,-8.24914c1.10429,-0.04269 9.39204,-1.16985 9.39204,-1.16985c0,0 0.86641,9.04728 1.45964,9.0623c3.48757,0.08778 11.76106,0.92432 11.76106,0.92432c0,0 3.7923,1.33274 4.39955,2.38183c0.74372,1.28467 2.05554,7.39553 2.05554,7.39553z" data-paper-data="{&quot;index&quot;:null}" fill="#1e1e26" stroke="#000000" stroke-width="0" stroke-linecap="butt"/><path d="M208.8248,312.09917l6.58693,-3.17737" fill="none" stroke="#c1ffce" stroke-width="0.5" stroke-linecap="round"/><path d="M220.01817,308.64001l-6.22352,4.07987" fill="none" stroke="#eaffc1" stroke-width="0.5" stroke-linecap="round"/><path d="M222.81969,309.08488l-3.45959,3.91074" fill="none" stroke="#ffb5b5" stroke-width="0.5" stroke-linecap="round"/><path d="M205.1526,302.46019l5.48998,-0.95258" fill="none" stroke="#7d967f" stroke-width="0.5" stroke-linecap="round"/><path d="M206.5124,304.53453l4.857,-1.22198" fill="none" stroke="#966262" stroke-width="0.5" stroke-linecap="round"/></g><path d="M194.99013,221.92364c0,0 2.59602,-13.87236 3.40106,-27.57334c0.54705,-9.30968 -0.79653,-17.99638 -0.21306,-24.31051c1.09504,-11.85126 4.71222,-33.63078 4.71222,-33.63078c0,0 9.484,-0.02047 13.79687,1.59374c5.49031,2.05468 16.47298,9.73461 16.47298,9.73461c0,0 10.06754,-4.00177 15.0273,-4.29629c5.2333,-0.31051 15.5959,2.47905 15.5959,2.47905c0,0 -3.78215,23.07963 -5.52439,31.63947c-1.54162,7.57363 -4.72373,15.61593 -7.22413,26.79416c-2.57731,11.52092 -4.45116,26.06816 -4.45116,26.06816c0,0 -6.61028,-3.00802 -13.64035,-4.28135c-3.19262,-0.57827 -4.8846,1.82094 -7.97328,1.74719c-2.46884,-0.05866 -6.36861,-2.56886 -8.67305,-3.02292c-1.74188,-0.34332 -4.91581,-2.1305 -6.15337,-2.33428c-2.49856,-0.41158 -4.38924,1.53665 -7.354,1.48254c-3.44375,-0.06253 -7.79899,-2.08984 -7.79899,-2.08984z" fill="#d1b0b0" stroke="#292e32" stroke-width="0" stroke-linecap="butt"/><g stroke="none" stroke-width="0" stroke-linecap="butt"><path d="M236.86013,169.18077l1.97526,-14.6387l19.00869,3.90339l-2.04174,13.07139z" fill="#f200ff"/><path d="M238.83536,154.54207l9.9755,2.04844c0.60433,1.72269 1.49117,3.32624 2.61295,4.74643c-0.88588,-0.29437 -1.80911,-0.5168 -2.76399,-0.65953c-3.95303,-0.59079 -7.78703,0.28325 -10.95112,2.21464z" fill="#eeff00"/><path d="M248.0555,170.56148c1.04995,-5.39986 -0.76986,-11.10006 -4.566,-15.06371l12.46736,2.56013c-1.70582,2.16438 -2.88811,4.78911 -3.32463,7.7098c-0.27402,1.8334 -0.23292,3.64118 0.08259,5.36839z" fill="#00ff5f"/><path d="M252.85122,171.15292l-13.53899,-1.66973c3.73307,-0.70735 7.08311,-2.69776 9.49223,-5.55831c1.4937,1.92438 3.41535,3.51954 5.64906,4.62877c-0.60948,0.80809 -1.14724,1.67718 -1.6023,2.59921z" fill="#004fff"/><path d="M236.86009,169.18078l1.97523,-14.63874l4.7132,0.96788c-1.69957,2.16153 -2.87744,4.78096 -3.31299,7.69503c-0.33077,2.21313 -0.2024,4.38897 0.31362,6.43081z" fill="#ff0000"/><path d="M257.02016,163.72007l-1.21785,7.7968l-7.044,-0.86871c0.60174,-1.00263 1.10102,-2.07944 1.48137,-3.21817c2.53804,-0.68232 4.86102,-1.96545 6.78047,-3.70991z" fill="#00efff"/><path d="M257.84405,158.44544l-2.04176,13.0714l-0.47521,-0.05861c0.72834,-5.78972 -1.67051,-11.28449 -5.90787,-14.74281z" fill="#9c00ff"/></g><g data-paper-data="{&quot;index&quot;:null}" stroke-linecap="butt"><path d="M269.36414,110.8092c-6.08866,18.64698 -24.86351,29.24479 -41.9353,23.67065c-17.07194,-5.57408 -25.97578,-25.20917 -19.88703,-43.85648c6.08868,-18.64698 24.86351,-29.24479 41.93544,-23.67062c17.07194,5.57408 25.97578,25.20917 19.88703,43.85648z" fill="url(#color-18)" stroke="none" stroke-width="0"/><path d="M229.60107,71.39635c-0.42188,-0.09648 -1.51213,-0.32773 -2.71574,-0.50283c-1.42215,0.08938 -3.05725,0.11678 -4.36329,0.3042c-1.40023,1.92556 0.47531,4.97816 -3.52728,5.45506c-6.82669,0.81264 -2.53465,-6.26956 0.22642,-8.03186c3.93638,-1.66827 8.55847,-0.51347 12.69064,0.00924c5.69174,0.72018 11.42822,0.83983 16.82895,2.24547c0.26703,-0.14303 0.58469,-0.19351 0.90286,-0.12047l1.45542,0.33423c0.77371,0.04522 1.61159,0.1026 2.48509,0.18386c2.32948,0.02955 4.98541,0.51655 7.42801,1.06761c1.23669,0.15124 2.36074,0.39977 3.23471,0.77478c0.67648,0.16678 1.30596,0.3216 1.87091,0.45096l1.53422,0.35208c0.69873,0.16047 1.13513,0.85658 0.97487,1.55568c-0.14289,0.62197 -0.71014,1.03608 -1.32573,1.00683l-0.87215,-0.02428c0.25365,0.40806 0.46136,0.84787 0.61619,1.32136l0.65858,-0.10319l0.25698,1.646c0.03003,0.16729 0.02778,0.34344 -0.01259,0.51977c-0.16045,0.69873 -0.85658,1.13513 -1.55568,0.97487c-0.21241,-0.04863 -0.40123,-0.14706 -0.55557,-0.27999l-1.06631,-0.87878l0.02594,-0.03131l-0.11242,-0.04668c-0.69702,-0.82485 -1.45274,-1.52212 -2.25032,-2.0873c-1.33372,-0.48894 -2.70491,-1.10013 -4.11336,-1.6906c-2.58478,-0.37811 -5.29544,0.41281 -7.72167,2.47283c0,0 -0.99145,0.83788 -1.82946,-0.15344c-0.83788,-0.99145 0.15344,-1.82946 0.15344,-1.82946c0.2117,-0.17815 0.42593,-0.34904 0.64237,-0.51185l-0.75619,-0.00529c-0.10168,0.00127 -0.20574,-0.00927 -0.3094,-0.03293c-0.69873,-0.16047 -1.13513,-0.85658 -0.97487,-1.55568c0.08116,-0.35375 0.29947,-0.64014 0.58623,-0.81607c-0.59168,-0.19195 -1.16044,-0.34186 -1.67354,-0.37977c-3.58404,-0.26461 -8.76829,-1.65657 -13.81592,-2.48812c-0.16282,0.59053 -0.71466,0.97938 -1.31178,0.95085l-1.58074,-0.04444l0.00146,-0.05113l-0.01959,-0.0012z" fill="url(#color-19)" stroke="none" stroke-width="0.5"/><path d="M268.9461,74.28428c6.7578,1.44809 6.66934,1.52763 5.74628,6.11123c-0.92292,4.58346 -4.53361,7.49292 -8.06425,6.49838c-3.53062,-0.99478 -5.64431,-5.51734 -4.72123,-10.10089c0.92289,-4.58347 0.7023,-3.86658 7.03941,-2.50882z" data-paper-data="{&quot;index&quot;:null}" fill="url(#color-20)" stroke="#000000" stroke-width="0"/><path d="M250.8674,75.53715c-0.70587,5.08498 -5.93005,8.56133 -11.6685,7.76429c-5.7384,-0.79655 -9.81815,-5.56459 -9.11209,-10.64932c0.70587,-5.08498 0.60969,-5.21036 11.38543,-3.22612c10.10477,1.86049 10.10071,1.02609 9.39499,6.11109z" fill="url(#color-21)" stroke="#000000" stroke-width="0"/><path d="M246.60559,126.6898c-27.27677,-1.88646 -28.01811,-17.60403 -26.89403,-27.03934c1.12425,-9.43517 18.0979,-15.40254 31.80348,-13.76965c13.70558,1.6329 25.31733,12.39975 24.19314,21.83491c0,0 1.03962,21.34437 -29.10259,18.97387z" data-paper-data="{&quot;index&quot;:null}" fill="url(#color-22)" stroke="#ed6b00" stroke-width="0"/><path d="M246.60559,126.68981c-21.73625,-1.50325 -26.62213,-11.78951 -27.14136,-20.68075c2.37681,4.87085 7.11751,8.45897 12.90221,9.10958c8.9921,1.01138 17.10153,-5.45825 18.11295,-14.45036c0.67394,-5.99193 -1.97388,-11.59191 -6.47637,-14.96101c2.53571,-0.16692 5.07552,-0.11684 7.51202,0.17347c4.17758,0.49773 8.16066,1.84407 11.64777,3.74267c1.38892,5.70732 5.79587,10.35722 11.61402,11.93575c0.82708,2.04452 1.1726,4.13115 0.9313,6.15649c0,0 0.0421,0.86424 -0.13627,2.22566c-1.42219,-0.60245 -2.95418,-1.01234 -4.56735,-1.19378c-8.9921,-1.01138 -17.10153,5.45825 -18.11295,14.45036c-0.1391,1.23659 -0.13671,2.45645 -0.00571,3.64349c-1.92651,0.07061 -4.01537,0.02637 -6.2803,-0.15179z" data-paper-data="{&quot;index&quot;:null}" fill="url(#color-23)" stroke="#ed6b00" stroke-width="0"/><path d="M251.51503,85.88082c4.66759,0.55609 9.09239,2.17158 12.85389,4.4331c-0.88473,1.64193 -1.5007,3.46117 -1.783,5.4058c-2.52454,-4.29426 -6.96908,-7.38885 -12.30027,-7.98847c-8.99209,-1.01138 -17.10152,5.45827 -18.11295,14.45036c-0.67802,6.0284 2.00626,11.66011 6.55883,15.02227c-2.63072,1.54802 -4.81077,3.8167 -6.24212,6.56841c-2.70601,-1.09371 -4.87621,-2.42753 -6.60944,-3.92091c2.46461,-2.51851 4.13865,-5.84747 4.56301,-9.62048c0.75142,-6.68053 -2.62638,-12.87391 -8.09994,-16.03134c5.48289,-6.15683 18.34675,-9.60839 29.17191,-8.31869z" data-paper-data="{&quot;index&quot;:null}" fill="url(#color-24)" stroke="#ed6b00" stroke-width="0"/><path d="M264.66758,106.3761c2.14132,3.64243 5.66397,6.42166 9.93734,7.54745c-1.44453,4.00783 -4.75813,8.91801 -12.33539,11.38177c-1.13217,-2.8556 -3.05011,-5.34293 -5.51629,-7.16424c4.14773,-2.44066 7.17517,-6.67291 7.91431,-11.76502z" data-paper-data="{&quot;index&quot;:null}" fill="url(#color-25)" stroke="#ed6b00" stroke-width="0"/><path d="M244.6334,114.34408c0.08065,-0.23499 -0.52967,-1.44947 -0.66868,-1.82251c-1.6954,-4.55131 -2.79316,-9.362 -5.01866,-13.67896c-0.21022,-0.40782 -1.87891,-0.3459 -2.62079,-0.47923c-4.54313,-0.81635 -9.01321,-2.23015 -13.62175,-2.49087c-0.59007,-0.03337 -1.20785,0.09993 -1.84187,0.36978c1.79216,-3.15011 5.4327,-5.75089 9.94541,-7.59141c2.50428,4.39253 7.00066,7.56941 12.40989,8.1778c6.9824,0.78538 13.43262,-2.94007 16.44055,-8.85462c6.0315,2.41769 11.04408,6.48844 13.80825,11.00324c-2.18515,-1.54835 -4.7814,-2.58166 -7.63095,-2.90216c-8.9921,-1.01138 -17.10153,5.45825 -18.11295,14.45036c-0.2509,2.23081 -0.0414,4.40738 0.55287,6.43467c-2.40661,0.5287 -4.63535,1.59194 -6.53852,3.07183c1.36912,-2.17823 2.38957,-4.20933 2.89714,-5.68794z" data-paper-data="{&quot;index&quot;:null}" fill="url(#color-26)" stroke="#ed6b00" stroke-width="0"/><path d="M246.60558,126.68986c-27.27679,-1.88644 -28.01811,-17.60403 -26.89403,-27.03934c0.04887,-0.41013 0.12768,-0.8137 0.23487,-1.21043c-0.25847,3.03516 0.46623,6.35918 1.32426,8.7627c0.08868,0.24841 0.18352,0.49648 0.28438,0.74412c0.8819,6.83868 6.03596,12.53119 12.96111,13.94263c5.05328,3.01123 10.75337,4.76913 15.83829,4.32059c8.76945,-0.7736 16.59453,-0.95043 18.11295,-14.45036c0.61521,-5.46943 -3.10597,-10.85961 -6.53846,-15.16211c-2.0009,-2.50805 -6.55771,-1.15133 -9.11687,-3.08641c-1.03568,-3.14333 -3.00465,-5.89845 -5.61351,-7.89763c1.45953,0.01149 2.90533,0.09903 4.31643,0.26715c5.07178,0.60424 9.85678,2.45929 13.81583,5.03479c-0.03576,0.23015 -0.06682,0.4621 -0.09309,0.69574c-0.85381,7.59077 3.62344,14.5525 10.44885,17.14643c-0.06325,1.03512 -0.27215,2.74976 -0.92802,4.72232c-4.46816,1.89405 -7.98358,5.7298 -9.36754,10.56694c-4.26342,2.09331 -10.28423,3.31113 -18.78542,2.64259z" data-paper-data="{&quot;index&quot;:null}" fill="url(#color-27)" stroke="#ed6b00" stroke-width="0"/></g></g><path d="M-11.98828,369.05082l1,-377l160.91797,-0.53253l0.08203,9.53253c0,0 -39.46962,6.29142 -75.5582,25.97667c-26.80308,14.62028 -51.53474,44.21584 -49.36246,61.1415c8.78971,68.48644 35.92067,279.88184 35.92067,279.88184z" fill="url(#color-28)" stroke="none" stroke-width="0" stroke-linecap="butt"/></g></g></svg>