<svg version="1.1" xmlns="http://www.w3.org/2000/svg" xmlns:xlink="http://www.w3.org/1999/xlink" width="134.49932" height="108.66192" viewBox="0,0,134.49932,108.66192"><defs><linearGradient x1="205.37625" y1="125.56928" x2="276.30167" y2="125.56928" gradientUnits="userSpaceOnUse" id="color-1"><stop offset="0" stop-color="#d0d0d0"/><stop offset="1" stop-color="#727272"/></linearGradient><linearGradient x1="179.86976" y1="149.52782" x2="226.48389" y2="149.52782" gradientUnits="userSpaceOnUse" id="color-2"><stop offset="0" stop-color="#5d5d5d"/><stop offset="1" stop-color="#494949"/></linearGradient><linearGradient x1="203.17683" y1="119.3976" x2="203.17683" y2="179.65803" gradientUnits="userSpaceOnUse" id="color-3"><stop offset="0" stop-color="#348317"/><stop offset="1" stop-color="#3c5b0d"/></linearGradient><radialGradient cx="239.34745" cy="135.4747" r="27.13216" gradientUnits="userSpaceOnUse" id="color-4"><stop offset="0" stop-color="#e88c52"/><stop offset="1" stop-color="#ba623d"/></radialGradient><linearGradient x1="250.06522" y1="124.50849" x2="250.06522" y2="178.76799" gradientUnits="userSpaceOnUse" id="color-5"><stop offset="0" stop-color="#348317"/><stop offset="1" stop-color="#3c5b0d"/></linearGradient><radialGradient cx="276.1459" cy="136.63371" r="27.13216" gradientUnits="userSpaceOnUse" id="color-6"><stop offset="0" stop-color="#e88c52"/><stop offset="1" stop-color="#ba623d"/></radialGradient><linearGradient x1="286.88595" y1="124.613" x2="286.88595" y2="178.8725" gradientUnits="userSpaceOnUse" id="color-7"><stop offset="0" stop-color="#348317"/><stop offset="1" stop-color="#3c5b0d"/></linearGradient><linearGradient x1="250.34823" y1="113.49719" x2="250.34823" y2="125.57587" gradientUnits="userSpaceOnUse" id="color-8"><stop offset="0" stop-color="#348317"/><stop offset="1" stop-color="#3c5b0d"/></linearGradient><linearGradient x1="287.79907" y1="113.77674" x2="287.79907" y2="125.85541" gradientUnits="userSpaceOnUse" id="color-9"><stop offset="0" stop-color="#348317"/><stop offset="1" stop-color="#3c5b0d"/></linearGradient><linearGradient x1="219.3546" y1="78.82827" x2="261.36857" y2="78.82827" gradientUnits="userSpaceOnUse" id="color-10"><stop offset="0" stop-color="#d10000"/><stop offset="1" stop-color="#730000"/></linearGradient><linearGradient x1="240.36159" y1="75.20638" x2="240.36159" y2="82.45017" gradientUnits="userSpaceOnUse" id="color-11"><stop offset="0" stop-color="#348317"/><stop offset="1" stop-color="#3c5b0d"/></linearGradient><linearGradient x1="219.13907" y1="91.36182" x2="261.15305" y2="91.36182" gradientUnits="userSpaceOnUse" id="color-12"><stop offset="0" stop-color="#d10000"/><stop offset="1" stop-color="#730000"/></linearGradient><linearGradient x1="240.14606" y1="87.73992" x2="240.14606" y2="94.98371" gradientUnits="userSpaceOnUse" id="color-13"><stop offset="0" stop-color="#348317"/><stop offset="1" stop-color="#3c5b0d"/></linearGradient><linearGradient x1="174.11977" y1="163.90282" x2="231.23389" y2="163.90282" gradientUnits="userSpaceOnUse" id="color-14"><stop offset="0" stop-color="#6c6c6c"/><stop offset="1" stop-color="#5c5c5c"/></linearGradient><linearGradient x1="202.67684" y1="148.1476" x2="202.67684" y2="179.65803" gradientUnits="userSpaceOnUse" id="color-15"><stop offset="0" stop-color="#348317"/><stop offset="1" stop-color="#3c5b0d"/></linearGradient><linearGradient x1="182.86977" y1="132.83015" x2="223.48389" y2="132.83015" gradientUnits="userSpaceOnUse" id="color-16"><stop offset="0" stop-color="#4687ff"/><stop offset="1" stop-color="#0067ff"/></linearGradient><linearGradient x1="203.17683" y1="125.3976" x2="203.17683" y2="140.2627" gradientUnits="userSpaceOnUse" id="color-17"><stop offset="0" stop-color="#348317"/><stop offset="1" stop-color="#3c5b0d"/></linearGradient><linearGradient x1="176.86977" y1="163.99682" x2="227.23389" y2="163.99682" gradientUnits="userSpaceOnUse" id="color-18"><stop offset="0" stop-color="#4687ff"/><stop offset="1" stop-color="#0067ff"/></linearGradient><linearGradient x1="202.05184" y1="156.56426" x2="202.05184" y2="171.42937" gradientUnits="userSpaceOnUse" id="color-19"><stop offset="0" stop-color="#348317"/><stop offset="1" stop-color="#3c5b0d"/></linearGradient><linearGradient x1="239.99999" y1="179.02045" x2="239.99999" y2="180.33096" gradientUnits="userSpaceOnUse" id="color-20"><stop offset="0" stop-color="#348317"/><stop offset="1" stop-color="#3c5b0d"/></linearGradient></defs><g transform="translate(-172.75034,-71.66904)"><g data-paper-data="{&quot;isPaintingLayer&quot;:true}" fill-rule="nonzero" stroke-width="0" stroke-linecap="butt" stroke-linejoin="miter" stroke-miterlimit="10" stroke-dasharray="" stroke-dashoffset="0" style="mix-blend-mode: normal"><path d="M205.37625,179.46951c0,0 9.42687,-30.462 11.80468,-48.45901c2.35457,-17.82105 2.39314,-59.00037 2.39314,-59.00037l41.66052,-0.34109c0,0 -1.12795,40.94869 1.42617,59.22261c2.46509,17.63697 13.64091,48.57786 13.64091,48.57786z" fill="url(#color-1)" stroke="none"/><path d="M179.86976,179.65803v-60.26043h46.61412v60.26043z" fill="url(#color-2)" stroke="url(#color-3)"/><path d="M267.87433,151.63824c0,14.98335 0.01372,26.93128 -17.8091,27.12975c-16.49564,0.18369 -17.8091,-12.1464 -17.8091,-27.12975c0,-14.98335 2.64508,-26.92288 17.8091,-27.12975c15.82517,-0.21589 17.8091,12.1464 17.8091,27.12975z" fill="url(#color-4)" stroke="url(#color-5)"/><path d="M304.69505,151.74275c0,14.98335 0.01372,26.93128 -17.8091,27.12975c-16.49563,0.18369 -17.8091,-12.1464 -17.8091,-27.12975c0,-14.98335 2.64508,-26.92288 17.8091,-27.12975c15.82517,-0.2159 17.8091,12.1464 17.8091,27.12975z" fill="url(#color-6)" stroke="url(#color-7)"/><path d="M248.30844,125.57587v-12.07868h4.07958v12.07868z" fill="#312d29" stroke="url(#color-8)"/><path d="M285.75928,125.85541v-12.07868h4.07958v12.07868z" fill="#312d29" stroke="url(#color-9)"/><path d="M246.70947,118.28278v-3.56521h44.12864v3.56521z" fill="#36322e" stroke="none"/><path d="M219.3546,82.45017v-7.24379h42.01397v7.24379z" fill="url(#color-10)" stroke="url(#color-11)"/><path d="M219.13907,94.98371v-7.24379h42.01397v7.24379z" fill="url(#color-12)" stroke="url(#color-13)"/><path d="M174.11977,179.65803v-31.51043h57.11412v31.51043z" fill="url(#color-14)" stroke="url(#color-15)"/><path d="M182.86977,140.2627v-14.86511h40.61412v14.86511z" fill="url(#color-16)" stroke="url(#color-17)"/><path d="M176.86977,171.42937v-14.86511h50.36412v14.86511z" fill="url(#color-18)" stroke="url(#color-19)"/><path d="M172.75034,180.33096v-1.31049h134.49932v1.31049z" fill="#312d29" stroke="url(#color-20)"/></g></g></svg>