<svg version="1.1" xmlns="http://www.w3.org/2000/svg" xmlns:xlink="http://www.w3.org/1999/xlink" width="556.58299" height="440.13803" viewBox="0,0,556.58299,440.13803"><defs><radialGradient cx="239.76178" cy="177.81006" r="244" gradientUnits="userSpaceOnUse" id="color-1"><stop offset="0" stop-color="#121212"/><stop offset="1" stop-color="#868686"/></radialGradient><radialGradient cx="240.00005" cy="180" r="173.5" gradientUnits="userSpaceOnUse" id="color-2"><stop offset="0" stop-color="#000000"/><stop offset="1" stop-color="#000000" stop-opacity="0"/></radialGradient><radialGradient cx="237.93829" cy="318.1666" r="116.49049" gradientUnits="userSpaceOnUse" id="color-3"><stop offset="0" stop-color="#33266a"/><stop offset="1" stop-color="#949074"/></radialGradient><linearGradient x1="242.7439" y1="206.71003" x2="247.12426" y2="240.06435" gradientUnits="userSpaceOnUse" id="color-4"><stop offset="0" stop-color="#5fa5c2"/><stop offset="1" stop-color="#7fff7d"/></linearGradient><radialGradient cx="217.12983" cy="96.63091" r="64.41492" gradientUnits="userSpaceOnUse" id="color-5"><stop offset="0" stop-color="#ffa8a8"/><stop offset="1" stop-color="#ffed7d"/></radialGradient><radialGradient cx="232.39258" cy="141.39011" r="13.70696" gradientUnits="userSpaceOnUse" id="color-6"><stop offset="0" stop-color="#daffe3"/><stop offset="1" stop-color="#0c1a0f"/></radialGradient><radialGradient cx="266.89257" cy="159.89011" r="16.12716" gradientUnits="userSpaceOnUse" id="color-7"><stop offset="0" stop-color="#5f6471"/><stop offset="1" stop-color="#171d2c"/></radialGradient><radialGradient cx="291.89257" cy="138.39011" r="13.22358" gradientUnits="userSpaceOnUse" id="color-8"><stop offset="0" stop-color="#ffd0d0"/><stop offset="1" stop-color="#2a0000"/></radialGradient><linearGradient x1="62.25509" y1="214.05949" x2="87.12194" y2="190.60373" gradientUnits="userSpaceOnUse" id="color-9"><stop offset="0" stop-color="#694444"/><stop offset="1" stop-color="#98a1b9"/></linearGradient><radialGradient cx="-6.14621" cy="306.26274" r="65.45502" gradientUnits="userSpaceOnUse" id="color-10"><stop offset="0" stop-color="#dcdcdc"/><stop offset="1" stop-color="#a0a0a0"/></radialGradient><radialGradient cx="-2.34129" cy="265.04881" r="46.28026" gradientUnits="userSpaceOnUse" id="color-11"><stop offset="0" stop-color="#d1ffc4"/><stop offset="1" stop-color="#2188ff"/></radialGradient><radialGradient cx="-2.34129" cy="265.04881" r="46.28026" gradientUnits="userSpaceOnUse" id="color-12"><stop offset="0" stop-color="#ceffc4"/><stop offset="1" stop-color="#ff21cc"/></radialGradient><radialGradient cx="-2.34129" cy="265.04881" r="46.28026" gradientUnits="userSpaceOnUse" id="color-13"><stop offset="0" stop-color="#ffe9c4"/><stop offset="1" stop-color="#4fff21"/></radialGradient><radialGradient cx="-2.34129" cy="265.04881" r="46.28026" gradientUnits="userSpaceOnUse" id="color-14"><stop offset="0" stop-color="#ffe9c4"/><stop offset="1" stop-color="#4fff21"/></radialGradient><radialGradient cx="-2.34124" cy="265.04887" r="46.28024" gradientUnits="userSpaceOnUse" id="color-15"><stop offset="0" stop-color="#ffe9c4"/><stop offset="1" stop-color="#ffa321"/></radialGradient><radialGradient cx="-2.34121" cy="265.04892" r="46.28024" gradientUnits="userSpaceOnUse" id="color-16"><stop offset="0" stop-color="#c4f0ff"/><stop offset="1" stop-color="#3d21ff"/></radialGradient><radialGradient cx="-2.08601" cy="320.4408" r="50.24886" gradientUnits="userSpaceOnUse" id="color-17"><stop offset="0" stop-color="#1c2f30"/><stop offset="1" stop-color="#142913"/></radialGradient><radialGradient cx="-60.3146" cy="260.60698" r="13.22632" gradientUnits="userSpaceOnUse" id="color-18"><stop offset="0" stop-color="#786c41"/><stop offset="1" stop-color="#141a29"/></radialGradient><radialGradient cx="-20.759" cy="301.20786" r="20.82216" gradientUnits="userSpaceOnUse" id="color-19"><stop offset="0" stop-color="#7ba676"/><stop offset="1" stop-color="#291616"/></radialGradient></defs><g transform="translate(72.82127,5.18993)"><g data-paper-data="{&quot;isPaintingLayer&quot;:true}" fill-rule="nonzero" stroke-linecap="butt" stroke-linejoin="miter" stroke-miterlimit="10" stroke-dasharray="" stroke-dashoffset="0" style="mix-blend-mode: normal"><path d="M-4.23828,360.81007v-366h488v366z" fill="url(#color-1)" stroke="none" stroke-width="0"/><path d="M413.5,180c0,97.7544 -77.6786,177 -173.5,177c-95.8214,0 -173.5,-79.2456 -173.5,-177c0,-97.7544 77.6786,-177 173.5,-177c95.8214,0 173.5,79.2456 173.5,177z" fill="url(#color-2)" stroke="none" stroke-width="0"/><path d="M160.25243,434.36546l0.87834,-232.97929l154.49348,0.58264l-0.87834,232.97929z" data-paper-data="{&quot;index&quot;:null}" fill="url(#color-3)" stroke="#ed6b00" stroke-width="0"/><path d="M317.75618,291.95257c-5.0309,-13.03527 -11.05226,-29.68868 -11.05226,-29.68868c0,0 -11.04198,-32.90496 -6.36567,-35.41357c27.34834,-14.67296 32.67371,24.10983 32.67371,24.10983c0,0 9.65055,25.06826 15.00005,38.92735c2.57612,8.6138 -25.07037,14.30237 -30.25576,2.06507z" data-paper-data="{&quot;index&quot;:null}" fill="#a3bda9" stroke="#000000" stroke-width="0"/><g><path d="M228.48725,242.5119l-4.38035,-33.35423l37.2739,-4.89511l4.38035,33.35423z" fill="url(#color-4)" stroke="#000000" stroke-width="0"/><path d="M302.57782,144.27643c1.15825,37.94343 -26.06368,69.56234 -60.80191,70.62275c-34.73819,1.06041 -63.8381,-28.83915 -64.99636,-66.78266c-1.15825,-37.94348 26.06372,-69.56234 60.80196,-70.62275c34.73815,-1.06041 63.83806,28.83915 64.99631,66.78267z" fill="url(#color-5)" stroke="none" stroke-width="0"/><path d="M234.24021,154.93526c-2.50656,4.56413 -7.13506,2.1034 -7.13506,2.1034c-4.67209,-2.5948 -12.48175,-5.39491 -11.96181,-12.87968c0.42489,-6.11682 10.39255,-11.81263 15.78488,-10.83296c9.78211,1.7772 18.67383,18.83841 3.31207,21.60924z" data-paper-data="{&quot;index&quot;:null}" fill="url(#color-6)" stroke="none" stroke-width="0.5"/><path d="M257.0938,176.41599c0.6539,-2.32212 2.30108,-2.87228 3.52687,-2.93738c0.38889,-0.03601 0.78833,-0.01594 1.18741,0.06639c-1.57584,-5.26582 -0.89405,-12.15203 -2.76053,-17.23739c0,0 -1.37318,-3.81193 2.43876,-5.18519c3.8119,-1.37313 5.18515,2.4388 5.18515,2.4388c2.25503,6.35973 4.01183,14.21829 4.0846,21.08007c0.02731,2.57134 1.45218,6.00343 -0.48065,7.6995c-2.00564,1.75997 -5.33394,-0.17113 -8.00098,-0.25671l-2.37873,-0.66982c-0.49303,-0.13881 -0.93874,-0.36294 -1.32595,-0.65208c-1.01167,-0.69505 -2.12977,-2.02393 -1.47587,-4.34605z" data-paper-data="{&quot;index&quot;:null}" fill="url(#color-7)" stroke="none" stroke-width="0.5"/><path d="M291.1509,132.11765c7.90861,2.00089 15.22634,20.50137 2.85304,23.36571c-1.98457,4.90829 -5.7402,2.21218 -5.7402,2.21218c-3.79187,-2.84138 -10.11739,-5.93054 -9.76022,-14.00987c0.29187,-6.60261 8.28781,-12.67099 12.64741,-11.56801z" data-paper-data="{&quot;index&quot;:null}" fill="url(#color-8)" stroke="none" stroke-width="0.5"/></g><g><path d="M90.14806,221.72856l-13.26114,8.20612l-27.73805,-29.76972l11.33951,-9.88165c0,0 23.99881,14.73802 30.11589,20.13859c5.36831,4.73954 -0.45624,11.30666 -0.45624,11.30666z" data-paper-data="{&quot;index&quot;:null}" fill="url(#color-9)" stroke="#000000" stroke-width="0"/><path d="M-27.55332,209.18181c28.06078,-26.46798 70.45213,-27.09938 94.68451,-1.4093c24.23258,25.69007 21.1295,67.97274 -6.93175,94.44125c-28.06078,26.46799 -70.45211,27.09937 -94.68465,1.4091c-24.23258,-25.69007 -21.1295,-67.97274 6.93173,-94.44125z" data-paper-data="{&quot;index&quot;:null}" fill="url(#color-10)" stroke="none" stroke-width="0"/><g data-paper-data="{&quot;index&quot;:null}" stroke="#ed6b00" stroke-width="0"><path d="M33.40856,214.22823c34.73766,36.83932 14.48612,60.1399 0.18398,72.16255c-14.30224,12.02228 -45.58025,-0.73709 -62.10789,-20.22254c-16.52759,-19.48545 -17.835,-49.35037 -3.53292,-61.37272c0,0 27.45644,-31.6833 65.45657,9.43299z" data-paper-data="{&quot;index&quot;:null}" fill="url(#color-11)"/><path d="M33.40847,214.22823c27.68164,29.35645 20.4444,50.11555 9.12491,63.4215c3.34075,-9.90923 1.71417,-20.95252 -5.31374,-29.12182c-10.9247,-12.69895 -30.76409,-13.64418 -44.31258,-2.11125c-9.0281,7.68501 -12.9847,18.97147 -11.38751,29.40468c-3.69233,-2.93744 -7.09673,-6.18896 -10.03496,-9.65299c-5.03775,-5.93934 -8.66142,-12.84302 -10.86,-19.91182c5.82284,-9.86286 6.08926,-21.99962 0.27088,-31.53165c1.63541,-3.94581 3.98612,-7.3486 7.0562,-9.92926c0,0 1.11174,-1.28291 3.19746,-2.99736c1.12918,2.63829 2.66899,5.13997 4.62889,7.41816c10.9247,12.69894 30.76409,13.64418 44.31258,2.11125c1.86316,-1.58595 3.51029,-3.32534 4.93725,-5.17891c2.72918,2.31181 5.52504,4.99031 8.38043,8.07987z" data-paper-data="{&quot;index&quot;:null}" fill="url(#color-12)"/><path d="M-28.51542,266.16827c-5.62867,-6.63605 -9.49212,-14.47591 -11.5748,-22.40487c3.43092,-1.22941 6.73438,-3.04755 9.75129,-5.46206c-2.35856,9.27356 -0.46924,19.24348 6.00767,26.77229c10.92466,12.69893 30.76413,13.64419 44.3126,2.11128c9.08303,-7.73179 13.03267,-19.10903 11.3577,-29.59516c5.69075,1.09065 11.74052,0.59107 17.42024,-1.53342c2.21967,4.94508 3.38196,9.56103 3.73094,13.8569c-6.77674,0.49886 -13.56914,3.14114 -19.25399,7.98028c-10.06559,8.56816 -13.82714,21.61314 -10.61609,32.96114c-15.82541,1.89823 -38.08137,-9.29605 -51.13545,-24.68634z" data-paper-data="{&quot;index&quot;:null}" fill="url(#color-13)"/><path d="M7.96984,213.69025c-8.97238,-1.7195 -18.83718,0.5139 -26.73694,6.83643c2.00059,-7.86581 0.94496,-16.23265 -3.37403,-23.18587c7.39717,-3.89592 18.57031,-6.73605 32.26249,-0.75521c-2.31569,5.48229 -3.05888,11.42419 -2.15152,17.10466z" data-paper-data="{&quot;index&quot;:null}" fill="url(#color-14)"/><path d="M19.40159,234.27055c-0.42819,0.23346 -1.23689,2.72647 -1.55162,3.43137c-3.83983,8.60123 -8.84776,16.82322 -11.6458,25.75458c-0.26434,0.84372 2.10063,2.84504 2.93445,3.96368c5.10635,6.85054 9.3046,14.46016 15.25217,20.60167c0.76156,0.78637 1.78645,1.3702 3.01828,1.77992c-6.71196,2.23983 -15.20766,1.38335 -23.86704,-1.6474c2.51924,-9.38791 0.67042,-19.54004 -5.90137,-27.17907c-8.48308,-9.86077 -22.34139,-12.63457 -34.45559,-7.98216c-4.97461,-10.99355 -6.31976,-23.06426 -3.99043,-32.95176c0.89248,4.94001 3.04378,9.6617 6.5058,13.68594c10.9247,12.69894 30.76411,13.64418 44.31258,2.11125c3.3612,-2.86119 6.01949,-6.22161 7.94991,-9.85134c4.00542,2.26083 8.49078,3.53813 13.09475,3.81462c-4.81875,1.38621 -8.96174,2.99946 -11.65611,4.46856z" data-paper-data="{&quot;index&quot;:null}" fill="url(#color-15)"/><path d="M33.40861,214.22832c34.73766,36.83932 14.48612,60.13988 0.18398,72.16255c-0.62169,0.52261 -1.27549,0.99837 -1.95874,1.42883c4.45978,-3.99661 7.96617,-9.63545 10.04504,-14.13093c0.21485,-0.46462 0.42083,-0.93645 0.61794,-1.41527c8.04666,-10.83838 8.70228,-25.39462 1.14456,-36.07489c-2.83431,-10.61357 -8.2485,-20.25301 -15.80691,-25.9815c-13.03529,-9.87938 -23.97216,-19.4257 -44.31258,-2.11125c-8.24088,7.0149 -10.44627,19.3466 -11.57477,29.76862c-0.65783,6.07527 7.40742,9.84992 8.28791,15.80867c-2.83687,5.77098 -3.87265,12.15804 -3.01086,18.27026c-1.97975,-1.8439 -3.83782,-3.77877 -5.53946,-5.78501c-6.11608,-7.21059 -10.14789,-15.84258 -12.07576,-24.46575c0.36029,-0.28281 0.7166,-0.57407 1.06859,-0.87371c11.43705,-9.73556 14.73514,-25.25098 8.91359,-37.48949c1.48698,-1.39419 4.09227,-3.57323 7.65772,-5.5597c8.67094,2.89875 18.66641,1.84069 27.10279,-3.3115c8.66057,2.3587 18.53931,8.16413 29.2567,19.76041z" data-paper-data="{&quot;index&quot;:null}" fill="url(#color-16)"/></g><g data-paper-data="{&quot;index&quot;:null}"><path d="M-9.40992,309.19036c0.52947,0.66631 1.91977,2.36055 3.55312,4.10773c2.29386,1.60944 4.83856,3.5756 7.07456,4.89184c4.51541,-1.23741 5.38428,-8.22898 12.11701,-4.04531c11.48212,7.13657 -3.80777,12.74152 -10.21253,12.05678c-8.09431,-2.27266 -13.7743,-9.72305 -19.47829,-15.60102c-7.85662,-8.0966 -16.51938,-15.32598 -23.08721,-24.11802c-0.58575,-0.10828 -1.13566,-0.42097 -1.53459,-0.92386l-1.82464,-2.30083c-1.1327,-1.01976 -2.34896,-2.13698 -3.5907,-3.33453c-3.54122,-2.90645 -7.02188,-6.91639 -10.09625,-10.76272c-1.71355,-1.75118 -3.1345,-3.51341 -4.01609,-5.1628c-0.83407,-1.08699 -1.61066,-2.09792 -2.3194,-2.9905l-1.92373,-2.42503c-0.87603,-1.10455 -0.69121,-2.70968 0.41358,-3.58646c0.98338,-0.77977 2.36312,-0.71894 3.27256,0.08204l1.30961,1.10847c0.11169,-0.93823 0.33283,-1.86875 0.67655,-2.7861l-1.13815,-0.65039l1.62698,-2.84352c0.15938,-0.29378 0.37926,-0.56152 0.65772,-0.78278c1.10455,-0.87603 2.7097,-0.69123 3.58647,0.41358c0.26639,0.33563 0.43552,0.71865 0.50932,1.11232l0.55828,2.65922l-0.07836,0.01623l0.1153,0.2098c0.05736,2.12285 0.3615,4.12186 0.89229,5.96945c1.44773,2.38902 2.80292,5.01175 4.2407,7.6484c3.50514,3.75542 8.63951,5.86992 14.89578,5.68622c0,0 2.55171,-0.06906 2.62115,2.4826c0.06908,2.55172 -2.48262,2.62116 -2.48262,2.62116c-0.54391,0.01351 -1.08284,0.01285 -1.61515,-0.00291l1.1548,0.93694c0.15771,0.12293 0.30461,0.26694 0.43472,0.43053c0.87603,1.10455 0.69121,2.70968 -0.41358,3.58646c-0.55911,0.44359 -1.24613,0.6153 -1.90263,0.53336c0.67288,1.02152 1.36224,1.95028 2.1037,2.63874c5.17915,4.8084 11.43125,13.31338 18.16182,20.78996c0.97534,-0.70689 2.30047,-0.62631 3.18238,0.15093l2.37311,2.00968l-0.06506,0.07678l0.02859,0.0259z" fill="url(#color-17)" stroke="none" stroke-width="0.5"/><path d="M-66.28715,256.4314c-8.5997,-10.52391 -8.36612,-10.53736 -1.31892,-16.44295c7.04679,-5.90554 16.16541,-5.93905 20.36604,-0.07531c4.20036,5.86404 1.89179,15.40571 -5.15535,21.31114c-7.0468,5.90558 -5.82754,5.07552 -13.8921,-4.79297z" data-paper-data="{&quot;index&quot;:null}" fill="url(#color-18)" stroke="#000000" stroke-width="0"/><path d="M-36.98407,276.71172c7.32945,-6.94226 19.62222,-5.86471 27.45606,2.40735c7.83446,8.27126 8.24371,20.60455 0.91425,27.54629c-7.32947,6.94227 -7.33578,7.25297 -21.44756,-9.02917c-13.23331,-15.26809 -14.25194,-13.98163 -6.92259,-20.92416z" fill="url(#color-19)" stroke="#000000" stroke-width="0"/></g></g><g data-paper-data="{&quot;index&quot;:null}" stroke-width="0"><path d="M294.72218,399.95812c0,0 -9.41683,2.60817 -16.34674,1.57997c-5.9661,-0.88459 -9.1066,-5.42662 -14.25718,-5.43791c-2.55107,-0.00579 -9.51747,2.51646 -13.12708,2.62171c-4.77536,0.13895 -13.44016,3.86856 -18.41287,3.1592c-6.2213,-0.88678 -8.81206,-6.26697 -15.41093,-6.17634c-14.53055,0.1995 -28.8,4.01986 -28.8,4.01986c0,0 1.11399,-29.81294 -0.1972,-53.79c-1.27161,-23.26373 -4.96149,-40.46454 -5.51716,-56.1754c-0.62782,-17.75666 -0.48394,-65.32681 -0.48394,-65.32681c0,0 21.72426,-2.12502 32.11946,0.2511c9.85177,2.2524 28.70899,13.65354 28.70899,13.65354c0,0 24.60665,-11.7285 36.30975,-14.01141c9.19337,-1.79373 28.21364,1.42453 28.21364,1.42453c0,0 -0.03925,44.90658 -1.81256,69.04977c-0.94465,12.86311 -6.55024,29.8405 -8.57149,48.70113c-2.97476,27.75704 -2.41381,56.45789 -2.41381,56.45789z" fill="#d1b0b0" stroke="#292e32"/><path d="M189.6061,278.45897l0.28277,-26.90828l39.44353,-1.46317l-0.94123,30.03037z" fill="#f200ff" stroke="none"/><path d="M228.79555,267.217c-5.70093,-4.93481 -13.09998,-7.9728 -21.22859,-8.11176c-1.96355,-0.03357 -3.8903,0.10339 -5.76618,0.39718c2.72632,-2.47342 5.04269,-5.39345 6.83222,-8.64713l20.69945,-0.76782z" fill="#eeff00" stroke="none"/><path d="M195.9279,278.72934c1.21163,-3.35948 1.89967,-6.97254 1.96412,-10.74253c0.10265,-6.00583 -1.38994,-11.66769 -4.08716,-16.5814l25.87009,-0.95964c-8.94377,6.68024 -14.50435,17.50653 -14.20686,28.69167z" fill="#00ff5f" stroke="none"/><path d="M195.64873,278.71736c-0.60408,-2.00222 -1.3918,-3.92601 -2.34383,-5.75142c4.8529,-1.47712 9.24257,-4.03358 12.88397,-7.39396c3.87495,6.54599 9.92914,11.66143 17.18158,14.33114l-27.72174,-1.18576z" fill="#004fff" stroke="none"/><path d="M220.83774,279.79475c1.71925,-3.92352 2.70575,-8.24577 2.78355,-12.79665c0.10243,-5.99217 -1.38316,-11.64197 -4.06879,-16.54786l9.78,-0.36276l-0.94123,30.03043z" fill="#ff0000" stroke="none"/><path d="M189.77485,262.40881c3.26643,4.14278 7.49704,7.49525 12.36035,9.71437c0.38161,2.41201 1.02256,4.73956 1.8939,6.95266l-14.42288,-0.61693l0.16865,-16.05015z" fill="#00efff" stroke="none"/><path d="M207.37067,250.90221c-9.65968,5.51866 -16.31304,15.73888 -16.79144,27.59837l-0.97301,-0.04163l0.28275,-26.90829z" fill="#9c00ff" stroke="none"/></g><path d="M113.18045,246.22604c13.60388,-6.76119 36.66126,-18.44576 36.66126,-18.44576c0,0 31.19462,-27.70287 47.67048,9.00006c2.63035,5.85957 -30.86174,22.8407 -30.86174,22.8407c0,0 -15.97661,8.4741 -28.7723,14.83307c-14.52297,7.01791 -37.40901,-20.67811 -24.69775,-28.22808z" fill="#b8bda6" stroke="#000000" stroke-width="0"/><path d="M44.8531,274.7576c0,0 15.93675,-1.57723 32.25526,-10.37963c3.92436,-2.11679 37.24811,-18.12527 41.25688,-20.3457c15.62677,-7.86428 24.24747,27.44426 9.42566,34.07051c-3.89262,1.80038 -38.19711,11.2053 -48.90535,14.8192c-17.82832,6.0171 -27.85593,11.83616 -27.85593,11.83616z" data-paper-data="{&quot;index&quot;:null}" fill="#b8bda6" stroke="#000000" stroke-width="0"/><path d="M52.0244,305.4652c-0.29194,-1.3236 -18.67021,5.85085 -20.24521,0.33583c-0.77472,-2.71261 12.15085,-4.07777 15.13736,-9.09612c1.58125,-2.65672 -20.73069,8.99053 -20.58134,1.17048c0.05122,-2.68438 17.80761,-6.35462 21.09785,-10.21688c1.76102,-2.06763 -26.04152,8.66032 -26.17571,3.49142c-0.0793,-3.06843 16.44221,-5.3282 22.87195,-9.47538c3.13227,-2.02086 -20.05252,3.84185 -19.52117,-0.0783c0.32529,-2.39933 22.57031,-9.489 22.74797,-9.79941c0.99907,-1.7441 -13.91917,-1.9527 -11.19308,-4.62176c5.02354,-4.91903 14.00797,-1.41221 22.16255,1.00619c4.765,1.41355 10.74608,-0.24476 10.74608,-0.24476c0,0 5.54732,9.20846 6.57751,14.27614c1.00378,4.93423 -0.47381,15.73916 -0.47381,15.73916c0,0 -22.5325,10.31671 -23.15028,7.51345z" data-paper-data="{&quot;index&quot;:null}" fill="#786274" stroke="#000000" stroke-width="0"/><path d="M400.45396,332.35983c0,0 -9.47583,-6.16173 -26.39296,-13.60073c-10.16074,-4.46822 -45.26006,-18.29477 -48.9452,-20.31451c-17.17103,-9.39512 -5.16352,-36.43479 8.60987,-27.73793c3.78997,2.37784 38.77858,22.84305 42.48979,25.12388c15.43173,9.48478 30.61437,13.0474 30.61437,13.0474z" data-paper-data="{&quot;index&quot;:null}" fill="#a3bda9" stroke="#000000" stroke-width="0"/><path d="M405.4544,337.40615c-0.83481,2.12082 -21.01569,-11.39114 -21.01569,-11.39114c0,0 -0.39991,-9.05893 0.99008,-12.80913c1.42818,-3.85149 7.46714,-10.00523 7.46714,-10.00523c0,0 5.45522,2.71508 10.0498,2.67164c7.86434,-0.07377 16.60555,-0.83634 20.86628,4.28937c2.31196,2.781 -11.69075,-0.48407 -10.91314,1.15255c0.13876,0.29127 20.34354,11.13239 20.43024,13.14373c0.14146,3.28585 -21.05738,-6.78135 -18.30522,-4.43032c5.64906,4.82694 20.93003,10.45285 20.57562,12.91065c-0.59671,4.13971 -25.68052,-10.91624 -24.21819,-8.8424c2.73204,3.87427 19.04208,10.92298 18.84539,13.10063c-0.57301,6.34483 -20.42575,-8.18945 -19.18542,-5.68191c2.3427,4.73622 14.33379,8.81342 13.3606,10.82389c-1.97851,4.08719 -18.55173,-5.93187 -18.94607,-4.93099z" data-paper-data="{&quot;index&quot;:null}" fill="#6c7378" stroke="#000000" stroke-width="0"/></g></g></svg>