<svg version="1.1" xmlns="http://www.w3.org/2000/svg" xmlns:xlink="http://www.w3.org/1999/xlink" width="14.11111" height="14.22222" viewBox="0,0,14.11111,14.22222"><defs><radialGradient cx="237.72223" cy="176.96296" r="7.11111" gradientUnits="userSpaceOnUse" id="color-1"><stop offset="0" stop-color="#a489b3"/><stop offset="1" stop-color="#695b73"/></radialGradient><radialGradient cx="237.34294" cy="180.50627" r="1.75757" gradientUnits="userSpaceOnUse" id="color-2"><stop offset="0" stop-color="#dcb094"/><stop offset="1" stop-color="#50402f"/></radialGradient><radialGradient cx="237.34925" cy="180.49582" r="1.77632" gradientUnits="userSpaceOnUse" id="color-3"><stop offset="0" stop-color="#cca288"/><stop offset="1" stop-color="#3d3124"/></radialGradient><radialGradient cx="237.33861" cy="180.48949" r="1.75756" gradientUnits="userSpaceOnUse" id="color-4"><stop offset="0" stop-color="#ffcbab"/><stop offset="1" stop-color="#544331"/></radialGradient><radialGradient cx="237.3494" cy="180.48333" r="1.77632" gradientUnits="userSpaceOnUse" id="color-5"><stop offset="0" stop-color="#bc957e"/><stop offset="1" stop-color="#33291e"/></radialGradient><radialGradient cx="237.34428" cy="180.50355" r="1.00665" gradientUnits="userSpaceOnUse" id="color-6"><stop offset="0" stop-color="#696969" stop-opacity="0.69582"/><stop offset="1" stop-color="#1b1b1b" stop-opacity="0.71195"/></radialGradient><radialGradient cx="237.34189" cy="180.5084" r="1.79187" gradientUnits="userSpaceOnUse" id="color-7"><stop offset="0" stop-color="#080504"/><stop offset="1" stop-color="#21150d"/></radialGradient><radialGradient cx="237.34416" cy="180.50355" r="1.77296" gradientUnits="userSpaceOnUse" id="color-8"><stop offset="0" stop-color="#110b08"/><stop offset="1" stop-color="#26180e"/></radialGradient><radialGradient cx="237.32419" cy="180.50283" r="1.79187" gradientUnits="userSpaceOnUse" id="color-9"><stop offset="0" stop-color="#170e0b"/><stop offset="1" stop-color="#332014"/></radialGradient><radialGradient cx="237.32876" cy="180.50088" r="1.77296" gradientUnits="userSpaceOnUse" id="color-10"><stop offset="0" stop-color="#231511"/><stop offset="1" stop-color="#312014"/></radialGradient><linearGradient x1="241.39416" y1="183.06246" x2="241.59574" y2="183.15368" gradientUnits="userSpaceOnUse" id="color-11"><stop offset="0" stop-color="#525252"/><stop offset="1" stop-color="#363636"/></linearGradient><linearGradient x1="241.39416" y1="183.06246" x2="241.59574" y2="183.15368" gradientUnits="userSpaceOnUse" id="color-12"><stop offset="0" stop-color="#1f1f1f"/><stop offset="1" stop-color="#000000"/></linearGradient><linearGradient x1="239.45784" y1="182.43305" x2="241.94541" y2="183.55864" gradientUnits="userSpaceOnUse" id="color-13"><stop offset="0" stop-color="#2f2f2f"/><stop offset="1" stop-color="#040404"/></linearGradient><linearGradient x1="239.45784" y1="182.43305" x2="241.94541" y2="183.55864" gradientUnits="userSpaceOnUse" id="color-14"><stop offset="0" stop-color="#1f1f1f"/><stop offset="1" stop-color="#000000"/></linearGradient><linearGradient x1="240.61809" y1="182.1353" x2="241.40891" y2="182.49314" gradientUnits="userSpaceOnUse" id="color-15"><stop offset="0" stop-color="#444444"/><stop offset="1" stop-color="#252525"/></linearGradient><linearGradient x1="240.13297" y1="182.52623" x2="241.40449" y2="183.10157" gradientUnits="userSpaceOnUse" id="color-16"><stop offset="0" stop-color="#444444"/><stop offset="1" stop-color="#252525"/></linearGradient><linearGradient x1="239.66523" y1="182.98846" x2="241.37226" y2="183.76086" gradientUnits="userSpaceOnUse" id="color-17"><stop offset="0" stop-color="#444444"/><stop offset="1" stop-color="#252525"/></linearGradient><linearGradient x1="239.18586" y1="183.44272" x2="241.35674" y2="184.42501" gradientUnits="userSpaceOnUse" id="color-18"><stop offset="0" stop-color="#444444"/><stop offset="1" stop-color="#252525"/></linearGradient><linearGradient x1="241.4993" y1="182.3138" x2="242.12742" y2="182.59802" gradientUnits="userSpaceOnUse" id="color-19"><stop offset="0" stop-color="#b2b2b2"/><stop offset="1" stop-color="#363636"/></linearGradient><linearGradient x1="241.4993" y1="182.3138" x2="242.12742" y2="182.59802" gradientUnits="userSpaceOnUse" id="color-20"><stop offset="0" stop-color="#1f1f1f"/><stop offset="1" stop-color="#000000"/></linearGradient><linearGradient x1="242.20137" y1="176.4676" x2="244.68893" y2="177.59317" gradientUnits="userSpaceOnUse" id="color-21"><stop offset="0" stop-color="#9c8f73"/><stop offset="1" stop-color="#443a22"/></linearGradient><linearGradient x1="242.20172" y1="176.46682" x2="244.68928" y2="177.59239" gradientUnits="userSpaceOnUse" id="color-22"><stop offset="0" stop-color="#272727"/><stop offset="1" stop-color="#000000"/></linearGradient><linearGradient x1="243.31128" y1="175.66608" x2="244.53895" y2="176.22158" gradientUnits="userSpaceOnUse" id="color-23"><stop offset="0" stop-color="#f1f5f8"/><stop offset="1" stop-color="#6d7680"/></linearGradient><linearGradient x1="243.31132" y1="175.66599" x2="244.53899" y2="176.22149" gradientUnits="userSpaceOnUse" id="color-24"><stop offset="0" stop-color="#272727"/><stop offset="1" stop-color="#000000"/></linearGradient><linearGradient x1="242.74539" y1="176.17153" x2="244.57451" y2="176.99918" gradientUnits="userSpaceOnUse" id="color-25"><stop offset="0" stop-color="#45423b"/><stop offset="1" stop-color="#262018"/></linearGradient><linearGradient x1="242.73543" y1="181.8449" x2="243.96842" y2="182.40281" gradientUnits="userSpaceOnUse" id="color-26"><stop offset="0" stop-color="#36322b"/><stop offset="1" stop-color="#1f1c19"/></linearGradient><linearGradient x1="242.71626" y1="181.88726" x2="243.55962" y2="182.26886" gradientUnits="userSpaceOnUse" id="color-27"><stop offset="0" stop-color="#272727"/><stop offset="1" stop-color="#000000"/></linearGradient><linearGradient x1="240.28953" y1="180.7226" x2="239.05653" y2="180.16469" gradientUnits="userSpaceOnUse" id="color-28"><stop offset="0" stop-color="#6b6757"/><stop offset="1" stop-color="#827969"/></linearGradient><linearGradient x1="239.42701" y1="180.38336" x2="240.27036" y2="180.76496" gradientUnits="userSpaceOnUse" id="color-29"><stop offset="0" stop-color="#272727"/><stop offset="1" stop-color="#000000"/></linearGradient><linearGradient x1="240.73616" y1="179.72642" x2="243.19428" y2="180.83868" gradientUnits="userSpaceOnUse" id="color-30"><stop offset="0" stop-color="#635f54"/><stop offset="1" stop-color="#211f1a"/></linearGradient><linearGradient x1="240.73616" y1="179.72642" x2="243.19428" y2="180.83868" gradientUnits="userSpaceOnUse" id="color-31"><stop offset="0" stop-color="#272727"/><stop offset="1" stop-color="#000000"/></linearGradient><linearGradient x1="242.00175" y1="180.43576" x2="242.96591" y2="180.87202" gradientUnits="userSpaceOnUse" id="color-32"><stop offset="0" stop-color="#4a382c"/><stop offset="1" stop-color="#301f1b"/></linearGradient><linearGradient x1="242.00175" y1="180.43576" x2="242.96591" y2="180.87202" gradientUnits="userSpaceOnUse" id="color-33"><stop offset="0" stop-color="#351c12"/><stop offset="1" stop-color="#1a1310"/></linearGradient><linearGradient x1="241.99899" y1="180.43495" x2="242.96093" y2="180.87021" gradientUnits="userSpaceOnUse" id="color-34"><stop offset="0" stop-color="#351c12"/><stop offset="1" stop-color="#1a1310"/></linearGradient><linearGradient x1="242.00231" y1="180.42762" x2="242.96424" y2="180.86288" gradientUnits="userSpaceOnUse" id="color-35"><stop offset="0" stop-color="#351c12"/><stop offset="1" stop-color="#1a1310"/></linearGradient><linearGradient x1="240.84718" y1="179.91922" x2="241.81134" y2="180.35548" gradientUnits="userSpaceOnUse" id="color-36"><stop offset="0" stop-color="#4a382c"/><stop offset="1" stop-color="#301f1b"/></linearGradient><linearGradient x1="240.84718" y1="179.91922" x2="241.81134" y2="180.35548" gradientUnits="userSpaceOnUse" id="color-37"><stop offset="0" stop-color="#351c12"/><stop offset="1" stop-color="#1a1310"/></linearGradient><linearGradient x1="240.84442" y1="179.9184" x2="241.80635" y2="180.35366" gradientUnits="userSpaceOnUse" id="color-38"><stop offset="0" stop-color="#351c12"/><stop offset="1" stop-color="#1a1310"/></linearGradient><linearGradient x1="240.84774" y1="179.91108" x2="241.80967" y2="180.34634" gradientUnits="userSpaceOnUse" id="color-39"><stop offset="0" stop-color="#351c12"/><stop offset="1" stop-color="#1a1310"/></linearGradient><linearGradient x1="241.47553" y1="181.59873" x2="242.43969" y2="182.035" gradientUnits="userSpaceOnUse" id="color-40"><stop offset="0" stop-color="#4a382c"/><stop offset="1" stop-color="#301f1b"/></linearGradient><linearGradient x1="241.47553" y1="181.59873" x2="242.43969" y2="182.035" gradientUnits="userSpaceOnUse" id="color-41"><stop offset="0" stop-color="#351c12"/><stop offset="1" stop-color="#1a1310"/></linearGradient><linearGradient x1="241.47277" y1="181.59792" x2="242.43471" y2="182.03318" gradientUnits="userSpaceOnUse" id="color-42"><stop offset="0" stop-color="#351c12"/><stop offset="1" stop-color="#1a1310"/></linearGradient><linearGradient x1="241.47608" y1="181.5906" x2="242.43802" y2="182.02586" gradientUnits="userSpaceOnUse" id="color-43"><stop offset="0" stop-color="#351c12"/><stop offset="1" stop-color="#1a1310"/></linearGradient><linearGradient x1="240.32095" y1="181.08219" x2="241.28512" y2="181.51845" gradientUnits="userSpaceOnUse" id="color-44"><stop offset="0" stop-color="#4a382c"/><stop offset="1" stop-color="#301f1b"/></linearGradient><linearGradient x1="240.32095" y1="181.08219" x2="241.28512" y2="181.51845" gradientUnits="userSpaceOnUse" id="color-45"><stop offset="0" stop-color="#351c12"/><stop offset="1" stop-color="#1a1310"/></linearGradient><linearGradient x1="240.3182" y1="181.08138" x2="241.28013" y2="181.51664" gradientUnits="userSpaceOnUse" id="color-46"><stop offset="0" stop-color="#351c12"/><stop offset="1" stop-color="#1a1310"/></linearGradient><linearGradient x1="240.32151" y1="181.07406" x2="241.28344" y2="181.50931" gradientUnits="userSpaceOnUse" id="color-47"><stop offset="0" stop-color="#351c12"/><stop offset="1" stop-color="#1a1310"/></linearGradient><linearGradient x1="241.40807" y1="178.57283" x2="243.60223" y2="179.56564" gradientUnits="userSpaceOnUse" id="color-48"><stop offset="0" stop-color="#515151"/><stop offset="1" stop-color="#131313"/></linearGradient><linearGradient x1="241.40807" y1="178.57283" x2="243.60223" y2="179.56564" gradientUnits="userSpaceOnUse" id="color-49"><stop offset="0" stop-color="#272727"/><stop offset="1" stop-color="#000000"/></linearGradient><linearGradient x1="241.73838" y1="178.14711" x2="243.68874" y2="179.02961" gradientUnits="userSpaceOnUse" id="color-50"><stop offset="0" stop-color="#272727"/><stop offset="1" stop-color="#000000"/></linearGradient><linearGradient x1="241.31074" y1="179.11249" x2="243.23062" y2="179.98121" gradientUnits="userSpaceOnUse" id="color-51"><stop offset="0" stop-color="#272727"/><stop offset="1" stop-color="#000000"/></linearGradient><linearGradient x1="239.14879" y1="178.50017" x2="240.04616" y2="178.38785" gradientUnits="userSpaceOnUse" id="color-52"><stop offset="0" stop-color="#c79c62"/><stop offset="1" stop-color="#af874f"/></linearGradient><radialGradient cx="239.59747" cy="178.44401" r="1.31887" gradientUnits="userSpaceOnUse" id="color-53"><stop offset="0" stop-color="#ffdb99"/><stop offset="1" stop-color="#785e40"/></radialGradient><radialGradient cx="240.34266" cy="175.83093" r="0.94011" gradientUnits="userSpaceOnUse" id="color-54"><stop offset="0" stop-color="#7c7c7c"/><stop offset="1" stop-color="#373737"/></radialGradient><radialGradient cx="238.0101" cy="175.61357" r="1.14375" gradientUnits="userSpaceOnUse" id="color-55"><stop offset="0" stop-color="#7c7c7c"/><stop offset="1" stop-color="#373737"/></radialGradient><radialGradient cx="238.18172" cy="176.02099" r="1.14375" gradientUnits="userSpaceOnUse" id="color-56"><stop offset="0" stop-color="#ffdb99"/><stop offset="1" stop-color="#785e40"/></radialGradient><radialGradient cx="238.96685" cy="175.54742" r="0.90437" gradientUnits="userSpaceOnUse" id="color-57"><stop offset="0" stop-color="#a2a2a2"/><stop offset="1" stop-color="#7a7a7a"/></radialGradient><radialGradient cx="237.5265" cy="174.11964" r="6.08031" gradientUnits="userSpaceOnUse" id="color-58"><stop offset="0" stop-color="#705281"/><stop offset="1" stop-color="#453252"/></radialGradient></defs><g transform="translate(-232.94445,-172.88889)"><g data-paper-data="{&quot;isPaintingLayer&quot;:true}" fill-rule="nonzero" stroke-linejoin="miter" stroke-miterlimit="10" stroke-dasharray="" stroke-dashoffset="0" style="mix-blend-mode: normal"><path d="M232.94445,187.11111v-14.22222h14.11111v14.22222z" fill="url(#color-1)" stroke="#000000" stroke-width="0" stroke-linecap="butt"/><g stroke-linecap="butt"><path d="M238.11985,182.3073c0,0 -0.46226,-0.33936 -1.1883,-1.79489c-0.62434,-1.25164 -0.53943,-1.67159 -0.53943,-1.67159l0.135,-0.13764c0,0 0.23435,1.07095 0.5801,1.72066c0.43221,0.81218 1.18739,1.7598 1.18739,1.7598z" data-paper-data="{&quot;index&quot;:null}" fill="url(#color-2)" stroke="#676767" stroke-width="0"/><path d="M239.23327,180.12283c0,0 -1.21058,0.05233 -2.10701,0.25941c-0.71711,0.16565 -1.67886,0.69184 -1.67886,0.69184l0.01522,-0.19218c0,0 0.26107,-0.33972 1.61513,-0.69032c1.57465,-0.40771 2.13408,-0.28174 2.13408,-0.28174z" data-paper-data="{&quot;index&quot;:null}" fill="url(#color-3)" stroke="#676767" stroke-width="0"/><path d="M235.51632,179.85818c0,0 1.06898,0.57056 1.94613,0.84813c0.70169,0.22204 1.79739,0.25804 1.79739,0.25804l-0.11084,0.15775c0,0 -0.39755,0.15975 -1.74174,-0.22696c-1.56316,-0.44971 -1.98081,-0.84267 -1.98081,-0.84267z" data-paper-data="{&quot;index&quot;:null}" fill="url(#color-4)" stroke="#676767" stroke-width="0"/><path d="M238.28456,178.76922c0,0 0.01539,0.57324 -0.68918,2.0393c-0.60587,1.26069 -0.98966,1.45112 -0.98966,1.45112l-0.1915,-0.02225c0,0 0.70227,-0.84182 1.00349,-1.51334c0.37654,-0.83944 0.66202,-2.01705 0.66202,-2.01705z" data-paper-data="{&quot;index&quot;:null}" fill="url(#color-5)" stroke="#676767" stroke-width="0"/><path d="M236.33763,180.50355c0,-0.55595 0.45069,-1.00664 1.00665,-1.00664c0.55595,0 1.00665,0.45069 1.00665,1.00664c0,0.55595 -0.45069,1.00665 -1.00665,1.00665c-0.55595,0 -1.00665,-0.45069 -1.00665,-1.00665z" fill="url(#color-6)" stroke="none" stroke-width="0.5"/><path d="M236.39983,182.23751c0,0 -0.07877,-0.59408 0.63196,-2.07297c0.61117,-1.27172 1.06158,-1.44802 1.06158,-1.44802l0.19318,0.02244c0,0 -0.62146,0.90454 -0.92531,1.58194c-0.37983,0.84679 -0.75479,1.97936 -0.75479,1.97936z" fill="url(#color-7)" stroke="#676767" stroke-width="0"/><path d="M239.17652,181.16129c0,0 -1.0901,-0.48475 -1.97208,-0.7736c-0.70556,-0.23106 -1.79286,-0.38004 -1.79286,-0.38004l0.1134,-0.158c0,0 0.43349,-0.21455 1.78548,0.18911c1.57223,0.46943 1.95867,0.92746 1.95867,0.92746z" data-paper-data="{&quot;index&quot;:null}" fill="url(#color-8)" stroke="#676767" stroke-width="0"/><path d="M235.42492,180.88292c0,0 1.1833,-0.152 2.087,-0.36332c0.72293,-0.16905 1.72942,-0.60653 1.72942,-0.60653l-0.01482,0.19391c0,0 -0.25898,0.40851 -1.62394,0.76584c-1.58732,0.41555 -2.15546,0.22489 -2.15546,0.22489z" data-paper-data="{&quot;index&quot;:null}" fill="url(#color-9)" stroke="#676767" stroke-width="0"/><path d="M236.52655,178.6909c0,0 0.5202,0.29752 1.26545,1.75932c0.64085,1.25704 0.50798,1.7221 0.50798,1.7221l-0.13496,0.14003c0,0 -0.3426,-1.0426 -0.6971,-1.69492c-0.44316,-0.81544 -1.11654,-1.80026 -1.11654,-1.80026z" data-paper-data="{&quot;index&quot;:null}" fill="url(#color-10)" stroke="#676767" stroke-width="0"/></g><g stroke-width="0.175"><path d="M241.24331,183.39585l0.3017,-0.66677l0.20158,0.09121l-0.3017,0.66677z" fill="url(#color-11)" stroke="url(#color-12)" stroke-linecap="butt"/><path d="M238.89503,183.67689c0,0 2.06268,-2.08552 2.36952,-1.92469c0.35104,0.18397 0.11803,3.05027 0.11803,3.05027z" fill="url(#color-13)" stroke="url(#color-14)" stroke-linecap="butt"/><path d="M241.40891,182.49314l-0.79083,-0.35783" fill="none" stroke="url(#color-15)" stroke-linecap="round"/><path d="M240.13297,182.52623l1.27152,0.57534" fill="none" stroke="url(#color-16)" stroke-linecap="round"/><path d="M241.37226,183.76086l-1.70702,-0.7724" fill="none" stroke="url(#color-17)" stroke-linecap="round"/><path d="M239.18585,183.44272l2.17089,0.98229" fill="none" stroke="url(#color-18)" stroke-linecap="round"/><path d="M242.12742,182.59802c-0.13598,0.29427 -0.15773,0.32251 -0.46058,0.1817c-0.30295,-0.14085 -0.29831,-0.18697 -0.16755,-0.46591c0.14437,-0.30798 0.15324,-0.32992 0.46058,-0.18171c0.29447,0.14201 0.31686,0.14277 0.16755,0.46592z" fill="url(#color-19)" stroke="url(#color-20)" stroke-linecap="butt"/><path d="M241.63856,177.71142c0,0 1.31136,-2.47218 2.3566,-1.93054c1.11206,0.41157 0.13096,3.05612 0.13096,3.05612z" fill="url(#color-21)" stroke="url(#color-22)" stroke-linecap="butt"/><path d="M243.24006,175.82346c0,0 0.22463,-0.28622 0.74995,-0.03982c0.5362,0.23103 0.47772,0.59533 0.47772,0.59533z" fill="url(#color-23)" stroke="url(#color-24)" stroke-linecap="butt"/><path d="M242.54074,176.45732c0,0 0.07487,-0.08468 0.17244,-0.18163c0.1145,-0.11377 0.27501,-0.23775 0.60165,-0.16238c0.01268,0.00292 0.2464,0.06751 0.2464,0.06751l0.47418,0.21631c0,0 0.15884,0.08599 0.16745,0.09264c0.25299,0.19541 0.28308,0.41224 0.27883,0.58023c-0.00363,0.14324 -0.01804,0.25739 -0.01804,0.25739z" data-paper-data="{&quot;index&quot;:null}" fill="url(#color-25)" stroke="#000000" stroke-linecap="butt"/><path d="M243.18368,176.38542c0.05469,-0.12086 0.19699,-0.17451 0.31786,-0.11982c0.12086,0.0547 0.1745,0.197 0.11982,0.31787c-0.05469,0.12086 -0.19699,0.1745 -0.31786,0.11982c-0.12086,-0.0547 -0.17451,-0.197 -0.11982,-0.31786z" fill="#caff00" stroke="none" stroke-linecap="butt"/><path d="M243.68735,176.6191c0.05469,-0.12086 0.197,-0.1745 0.31786,-0.11982c0.12086,0.0547 0.1745,0.19699 0.11982,0.31786c-0.05469,0.12086 -0.19699,0.17451 -0.31786,0.11982c-0.12086,-0.0547 -0.1745,-0.19701 -0.11982,-0.31787z" fill="#00fcff" stroke="none" stroke-linecap="butt"/><path d="M242.27775,182.8564l1.13755,-2.51404c0,0 -0.44725,1.83077 -0.52101,2.28828c-0.05835,0.36197 -0.03372,1.1831 -0.03372,1.1831z" fill="url(#color-26)" stroke="url(#color-27)" stroke-linecap="butt"/><path d="M238.72797,181.92825c0,0 0.63307,-0.52354 0.86646,-0.80631c0.29498,-0.35741 1.37497,-1.90188 1.37497,-1.90188l-1.13756,2.51404z" data-paper-data="{&quot;index&quot;:null}" fill="url(#color-28)" stroke="url(#color-29)" stroke-linecap="butt"/><path d="M239.82371,181.74297l1.8249,-4.03309l2.45812,1.11226l-1.8249,4.03308z" fill="url(#color-30)" stroke="url(#color-31)" stroke-linecap="butt"/><path d="M241.77464,180.93767l0.45422,-1.00384l0.96417,0.43627l-0.45422,1.00384z" fill="url(#color-32)" stroke="url(#color-33)" stroke-linecap="butt"/><path d="M243.18188,180.38191l-1.40382,0.54133" fill="none" stroke="url(#color-34)" stroke-linecap="round"/><path d="M242.73778,181.36338l-0.50365,-1.42206" fill="none" stroke="url(#color-35)" stroke-linecap="round"/><path d="M240.62006,180.42113l0.45422,-1.00384l0.96417,0.43627l-0.45422,1.00383z" fill="url(#color-36)" stroke="url(#color-37)" stroke-linecap="butt"/><path d="M240.62348,180.4067l1.40382,-0.54133" fill="none" stroke="url(#color-38)" stroke-linecap="round"/><path d="M241.07955,179.42478l0.50365,1.42206" fill="none" stroke="url(#color-39)" stroke-linecap="round"/><path d="M241.24842,182.10065l0.45422,-1.00384l0.96417,0.43627l-0.45422,1.00384z" fill="url(#color-40)" stroke="url(#color-41)" stroke-linecap="butt"/><path d="M242.65565,181.54489l-1.40382,0.54133" fill="none" stroke="url(#color-42)" stroke-linecap="round"/><path d="M242.21155,182.52636l-0.50365,-1.42206" fill="none" stroke="url(#color-43)" stroke-linecap="round"/><path d="M240.09384,181.58411l0.45422,-1.00384l0.96416,0.43627l-0.45421,1.00384z" fill="url(#color-44)" stroke="url(#color-45)" stroke-linecap="butt"/><path d="M241.50107,181.02834l-1.40382,0.54133" fill="none" stroke="url(#color-46)" stroke-linecap="round"/><path d="M240.55332,180.58774l0.50365,1.42206" fill="none" stroke="url(#color-47)" stroke-linecap="round"/><path d="M241.13443,179.17757l0.54727,-1.2095l2.19415,0.99282l-0.54727,1.20949z" fill="url(#color-48)" stroke="url(#color-49)" stroke-linecap="butt"/><path d="M243.68873,179.02961l-1.95035,-0.8825" fill="none" stroke="url(#color-50)" stroke-linecap="round"/><path d="M241.31074,179.11249l1.91988,0.86871" fill="none" stroke="url(#color-51)" stroke-linecap="round"/></g><g stroke-width="0" stroke-linecap="butt"><path d="M239.38004,180.34769l-0.46249,-3.69502l0.89736,-0.11233l0.46249,3.69503z" fill="url(#color-52)" stroke="url(#color-53)"/><path d="M240.23042,176.43336l-0.14849,-1.18635c0,0 0.49831,0.18198 0.7052,0.47711c0.2587,0.36902 0.55765,1.25972 0.55765,1.25972c0,0 -0.37582,-0.31772 -0.60894,-0.47323c-0.18168,-0.12119 -0.50543,-0.07725 -0.50543,-0.07725z" fill="url(#color-54)" stroke="none"/><path d="M238.09943,177.18397l-0.28411,-2.2698l0.44868,-0.05616l0.28411,2.26981z" fill="url(#color-55)" stroke="url(#color-56)"/><path d="M238.47877,176.788l-0.18169,-1.45161l1.79473,-0.22464l0.1817,1.45161z" fill="url(#color-57)" stroke="none"/></g><path d="M233.9672,186.08031v-12.16062h12.06561v12.16062z" fill="none" stroke="url(#color-58)" stroke-width="0.75" stroke-linecap="butt"/></g></g></svg>