<svg version="1.1" xmlns="http://www.w3.org/2000/svg" xmlns:xlink="http://www.w3.org/1999/xlink" width="59" height="59.70662" viewBox="0,0,59,59.70662"><defs><linearGradient x1="240" y1="151.64675" x2="240" y2="208.35337" gradientUnits="userSpaceOnUse" id="color-1"><stop offset="0" stop-color="#191919"/><stop offset="1" stop-color="#050505"/></linearGradient><linearGradient x1="240" y1="151.64675" x2="240" y2="208.35337" gradientUnits="userSpaceOnUse" id="color-2"><stop offset="0" stop-color="#cccccc"/><stop offset="1" stop-color="#898989"/></linearGradient><radialGradient cx="240" cy="180.00006" r="26.8571" gradientUnits="userSpaceOnUse" id="color-3"><stop offset="0" stop-color="#ffffff" stop-opacity="0.35484"/><stop offset="1" stop-color="#ffffff" stop-opacity="0"/></radialGradient><linearGradient x1="240" y1="153.29216" x2="240" y2="206.70795" gradientUnits="userSpaceOnUse" id="color-4"><stop offset="0" stop-color="#cccccc"/><stop offset="1" stop-color="#898989"/></linearGradient><radialGradient cx="222.19974" cy="186.78313" r="7.00083" gradientUnits="userSpaceOnUse" id="color-5"><stop offset="0" stop-color="#b7b7b7"/><stop offset="1" stop-color="#575757"/></radialGradient><linearGradient x1="222.88732" y1="185.01069" x2="222.88732" y2="196.77198" gradientUnits="userSpaceOnUse" id="color-6"><stop offset="0" stop-color="#348317"/><stop offset="1" stop-color="#3c5b0d"/></linearGradient><radialGradient cx="231.70087" cy="186.39942" r="6.96503" gradientUnits="userSpaceOnUse" id="color-7"><stop offset="0" stop-color="#787878"/><stop offset="1" stop-color="#414141"/></radialGradient><linearGradient x1="237.57657" y1="189.02336" x2="237.57657" y2="195.8034" gradientUnits="userSpaceOnUse" id="color-8"><stop offset="0" stop-color="#cccccc"/><stop offset="1" stop-color="#898989"/></linearGradient><radialGradient cx="224.82505" cy="182.69022" r="10.75128" gradientUnits="userSpaceOnUse" id="color-9"><stop offset="0" stop-color="#a4a4a4"/><stop offset="1" stop-color="#3b3b3b"/></radialGradient><linearGradient x1="229.07556" y1="176.57023" x2="229.07556" y2="179.47597" gradientUnits="userSpaceOnUse" id="color-10"><stop offset="0" stop-color="#cccccc"/><stop offset="1" stop-color="#898989"/></linearGradient><radialGradient cx="243.39792" cy="186.9148" r="7.00084" gradientUnits="userSpaceOnUse" id="color-11"><stop offset="0" stop-color="#ff7c00"/><stop offset="1" stop-color="#a84a00"/></radialGradient><linearGradient x1="244.0855" y1="185.14236" x2="244.0855" y2="196.90365" gradientUnits="userSpaceOnUse" id="color-12"><stop offset="0" stop-color="#348317"/><stop offset="1" stop-color="#3c5b0d"/></linearGradient><radialGradient cx="252.89905" cy="186.53109" r="6.96504" gradientUnits="userSpaceOnUse" id="color-13"><stop offset="0" stop-color="#c25e00"/><stop offset="1" stop-color="#8f3e00"/></radialGradient><linearGradient x1="258.77474" y1="189.15504" x2="258.77474" y2="195.93507" gradientUnits="userSpaceOnUse" id="color-14"><stop offset="0" stop-color="#cccccc"/><stop offset="1" stop-color="#898989"/></linearGradient><radialGradient cx="246.02323" cy="182.82189" r="10.75128" gradientUnits="userSpaceOnUse" id="color-15"><stop offset="0" stop-color="#e66300"/><stop offset="1" stop-color="#a85200"/></radialGradient><linearGradient x1="250.27373" y1="176.70191" x2="250.27373" y2="179.60763" gradientUnits="userSpaceOnUse" id="color-16"><stop offset="0" stop-color="#cccccc"/><stop offset="1" stop-color="#898989"/></linearGradient><radialGradient cx="222.85807" cy="172.2999" r="7.00083" gradientUnits="userSpaceOnUse" id="color-17"><stop offset="0" stop-color="#ffffff"/><stop offset="1" stop-color="#a9a9a9"/></radialGradient><linearGradient x1="223.54565" y1="170.52746" x2="223.54565" y2="182.28875" gradientUnits="userSpaceOnUse" id="color-18"><stop offset="0" stop-color="#348317"/><stop offset="1" stop-color="#3c5b0d"/></linearGradient><radialGradient cx="232.3592" cy="171.91619" r="6.96503" gradientUnits="userSpaceOnUse" id="color-19"><stop offset="0" stop-color="#c3c3c3"/><stop offset="1" stop-color="#909090"/></radialGradient><linearGradient x1="238.2349" y1="174.54014" x2="238.2349" y2="181.32017" gradientUnits="userSpaceOnUse" id="color-20"><stop offset="0" stop-color="#cccccc"/><stop offset="1" stop-color="#898989"/></linearGradient><radialGradient cx="225.48338" cy="168.207" r="10.75128" gradientUnits="userSpaceOnUse" id="color-21"><stop offset="0" stop-color="#e5e5e5"/><stop offset="1" stop-color="#a9a9a9"/></radialGradient><linearGradient x1="229.73389" y1="162.08701" x2="229.73389" y2="164.99274" gradientUnits="userSpaceOnUse" id="color-22"><stop offset="0" stop-color="#cccccc"/><stop offset="1" stop-color="#898989"/></linearGradient><radialGradient cx="247.15907" cy="172.62299" r="6.44097" gradientUnits="userSpaceOnUse" id="color-23"><stop offset="0" stop-color="#a8a8a8"/><stop offset="1" stop-color="#747474"/></radialGradient><linearGradient x1="251.4347" y1="168.416" x2="240.67946" y2="179.52975" gradientUnits="userSpaceOnUse" id="color-24"><stop offset="0" stop-color="#cccccc"/><stop offset="1" stop-color="#898989"/></linearGradient><radialGradient cx="240.65237" cy="176.21791" r="4.49006" gradientUnits="userSpaceOnUse" id="color-25"><stop offset="0" stop-color="#d8d8d8"/><stop offset="1" stop-color="#959595"/></radialGradient><linearGradient x1="242.64795" y1="173.22453" x2="242.64795" y2="182.03836" gradientUnits="userSpaceOnUse" id="color-26"><stop offset="0" stop-color="#cccccc"/><stop offset="1" stop-color="#898989"/></linearGradient><radialGradient cx="255.90851" cy="173.13599" r="6.44097" gradientUnits="userSpaceOnUse" id="color-27"><stop offset="0" stop-color="#a8a8a8"/><stop offset="1" stop-color="#747474"/></radialGradient><linearGradient x1="260.18414" y1="168.92901" x2="249.42891" y2="180.04275" gradientUnits="userSpaceOnUse" id="color-28"><stop offset="0" stop-color="#cccccc"/><stop offset="1" stop-color="#898989"/></linearGradient><radialGradient cx="249.40182" cy="176.73091" r="4.49006" gradientUnits="userSpaceOnUse" id="color-29"><stop offset="0" stop-color="#d8d8d8"/><stop offset="1" stop-color="#959595"/></radialGradient><linearGradient x1="251.3974" y1="173.73754" x2="251.3974" y2="182.55137" gradientUnits="userSpaceOnUse" id="color-30"><stop offset="0" stop-color="#cccccc"/><stop offset="1" stop-color="#898989"/></linearGradient><radialGradient cx="252.01215" cy="165.46052" r="6.44097" gradientUnits="userSpaceOnUse" id="color-31"><stop offset="0" stop-color="#a8a8a8"/><stop offset="1" stop-color="#747474"/></radialGradient><linearGradient x1="256.28778" y1="161.25353" x2="245.53255" y2="172.36727" gradientUnits="userSpaceOnUse" id="color-32"><stop offset="0" stop-color="#cccccc"/><stop offset="1" stop-color="#898989"/></linearGradient><radialGradient cx="245.50545" cy="169.05543" r="4.49006" gradientUnits="userSpaceOnUse" id="color-33"><stop offset="0" stop-color="#d8d8d8"/><stop offset="1" stop-color="#959595"/></radialGradient><linearGradient x1="247.50104" y1="166.06206" x2="247.50104" y2="174.87589" gradientUnits="userSpaceOnUse" id="color-34"><stop offset="0" stop-color="#cccccc"/><stop offset="1" stop-color="#898989"/></linearGradient></defs><g transform="translate(-210.5,-150.14675)"><g data-paper-data="{&quot;isPaintingLayer&quot;:true}" fill-rule="nonzero" stroke-linecap="butt" stroke-linejoin="miter" stroke-miterlimit="10" stroke-dasharray="" stroke-dashoffset="0" style="mix-blend-mode: normal"><path d="M212,208.35337v-56.70662h56v56.70662z" fill="url(#color-1)" stroke="url(#color-2)" stroke-width="3"/><path d="M266.8571,180.00006c0,14.75036 -12.02433,26.70789 -26.8571,26.70789c-14.83277,0 -26.8571,-11.95753 -26.8571,-26.70789c0,-14.75036 12.02433,-26.70789 26.8571,-26.70789c14.83277,0 26.8571,11.95753 26.8571,26.70789z" fill="url(#color-3)" stroke="url(#color-4)" stroke-width="0"/><path d="M215.06972,162.22182v-7.06998h20.68997v7.06998z" fill-opacity="0.53453" fill="#000000" stroke="#a60000" stroke-width="0"/><text transform="translate(215.50356,160.75253) scale(0.18022,0.18022)" font-size="40" xml:space="preserve" fill="#ffffff" fill-rule="nonzero" stroke="#000000" stroke-width="0" stroke-linecap="butt" stroke-linejoin="miter" stroke-miterlimit="10" stroke-dasharray="" stroke-dashoffset="0" font-family="Serif" font-weight="normal" text-anchor="start" style="mix-blend-mode: normal"><tspan x="0" dy="0">Metals</tspan></text><path d="M216.9781,194.00462l1.97125,-11.20781l10.25122,1.24531l0.75008,12.03802z" fill="url(#color-5)" stroke="url(#color-6)" stroke-width="0"/><path d="M229.95067,196.08014l-0.87511,-12.17639l10.8763,-2.07552l1.85348,10.79271z" fill="url(#color-7)" stroke="url(#color-8)" stroke-width="0"/><path d="M218.69932,182.93517l12.12644,-2.07552l9.37612,0.96858l-11.00131,2.21389z" fill="url(#color-9)" stroke="url(#color-10)" stroke-width="0"/><path d="M238.17628,194.13628l1.97125,-11.20781l10.25122,1.24531l0.75008,12.03803z" fill="url(#color-11)" stroke="url(#color-12)" stroke-width="0"/><path d="M251.14884,196.21181l-0.8751,-12.17639l10.8763,-2.07552l1.85348,10.79271z" fill="url(#color-13)" stroke="url(#color-14)" stroke-width="0"/><path d="M239.8975,183.06684l12.12645,-2.07552l9.37612,0.96858l-11.00131,2.21389z" fill="url(#color-15)" stroke="url(#color-16)" stroke-width="0"/><path d="M217.63643,179.52139l1.97125,-11.20781l10.25122,1.24531l0.75008,12.03802z" fill="url(#color-17)" stroke="url(#color-18)" stroke-width="0"/><path d="M230.60899,181.59691l-0.87511,-12.17639l10.8763,-2.07552l1.85348,10.79271z" fill="url(#color-19)" stroke="url(#color-20)" stroke-width="0"/><path d="M219.35765,168.45194l12.12644,-2.07552l9.37612,0.96858l-11.00131,2.21389z" fill="url(#color-21)" stroke="url(#color-22)" stroke-width="0"/><path d="M241.19963,173.47507l8.42705,-2.46621c0,0 3.52817,-0.79156 4.54382,3.46419c0.86002,4.29002 -4.00434,5.31918 -4.00434,5.31918l-7.09666,2.29992z" fill="url(#color-23)" stroke="url(#color-24)" stroke-width="0"/><path d="M247.13802,177.63145c0,2.43388 -2.01027,4.40692 -4.49006,4.40692c-2.47979,0 -4.49006,-1.97305 -4.49006,-4.40692c0,-2.43388 2.01027,-4.40691 4.49006,-4.40691c2.47979,0 4.49006,1.97305 4.49006,4.40691z" fill="url(#color-25)" stroke="url(#color-26)" stroke-width="0"/><path d="M249.94908,173.98808l8.42705,-2.46621c0,0 3.52817,-0.79156 4.54382,3.46419c0.86002,4.29002 -4.00434,5.31918 -4.00434,5.31918l-7.09666,2.29991z" fill="url(#color-27)" stroke="url(#color-28)" stroke-width="0"/><path d="M255.88747,178.14445c0,2.43387 -2.01027,4.40692 -4.49006,4.40692c-2.47979,0 -4.49006,-1.97305 -4.49006,-4.40692c0,-2.43387 2.01027,-4.40691 4.49006,-4.40691c2.47979,0 4.49006,1.97305 4.49006,4.40691z" fill="url(#color-29)" stroke="url(#color-30)" stroke-width="0"/><path d="M246.05272,166.31259l8.42705,-2.46621c0,0 3.52817,-0.79156 4.54382,3.46419c0.86002,4.29002 -4.00434,5.31918 -4.00434,5.31918l-7.09666,2.29991z" fill="url(#color-31)" stroke="url(#color-32)" stroke-width="0"/><path d="M251.9911,170.46898c0,2.43387 -2.01027,4.40692 -4.49006,4.40692c-2.47979,0 -4.49006,-1.97305 -4.49006,-4.40692c0,-2.43387 2.01027,-4.40691 4.49006,-4.40691c2.47979,0 4.49006,1.97305 4.49006,4.40691z" fill="url(#color-33)" stroke="url(#color-34)" stroke-width="0"/></g></g></svg>