<svg version="1.1" xmlns="http://www.w3.org/2000/svg" xmlns:xlink="http://www.w3.org/1999/xlink" width="59" height="59.70663" viewBox="0,0,59,59.70663"><defs><linearGradient x1="270" y1="151.64674" x2="270" y2="208.35338" gradientUnits="userSpaceOnUse" id="color-1"><stop offset="0" stop-color="#191919"/><stop offset="1" stop-color="#050505"/></linearGradient><linearGradient x1="270" y1="151.64674" x2="270" y2="208.35338" gradientUnits="userSpaceOnUse" id="color-2"><stop offset="0" stop-color="#cccccc"/><stop offset="1" stop-color="#898989"/></linearGradient><linearGradient x1="270" y1="151.64674" x2="270" y2="208.35337" gradientUnits="userSpaceOnUse" id="color-3"><stop offset="0" stop-color="#191919"/><stop offset="1" stop-color="#050505"/></linearGradient><linearGradient x1="270" y1="151.64674" x2="270" y2="208.35337" gradientUnits="userSpaceOnUse" id="color-4"><stop offset="0" stop-color="#cccccc"/><stop offset="1" stop-color="#898989"/></linearGradient><radialGradient cx="270" cy="180.00006" r="26.8571" gradientUnits="userSpaceOnUse" id="color-5"><stop offset="0" stop-color="#ffffff" stop-opacity="0.35484"/><stop offset="1" stop-color="#ffffff" stop-opacity="0"/></radialGradient><linearGradient x1="270" y1="153.29215" x2="270" y2="206.70795" gradientUnits="userSpaceOnUse" id="color-6"><stop offset="0" stop-color="#cccccc"/><stop offset="1" stop-color="#898989"/></linearGradient><linearGradient x1="279.85827" y1="176.63412" x2="283.17113" y2="176.63412" gradientUnits="userSpaceOnUse" id="color-7"><stop offset="0" stop-color="#525252"/><stop offset="1" stop-color="#363636"/></linearGradient><linearGradient x1="279.85827" y1="176.63412" x2="283.17113" y2="176.63412" gradientUnits="userSpaceOnUse" id="color-8"><stop offset="0" stop-color="#1f1f1f"/><stop offset="1" stop-color="#000000"/></linearGradient><linearGradient x1="249.55937" y1="180.00004" x2="290.44063" y2="180.00004" gradientUnits="userSpaceOnUse" id="color-9"><stop offset="0" stop-color="#2f2f2f"/><stop offset="1" stop-color="#040404"/></linearGradient><linearGradient x1="249.55937" y1="180.00004" x2="290.44063" y2="180.00004" gradientUnits="userSpaceOnUse" id="color-10"><stop offset="0" stop-color="#1f1f1f"/><stop offset="1" stop-color="#000000"/></linearGradient><linearGradient x1="263.5488" y1="168.7767" x2="276.54541" y2="168.7767" gradientUnits="userSpaceOnUse" id="color-11"><stop offset="0" stop-color="#444444"/><stop offset="1" stop-color="#252525"/></linearGradient><linearGradient x1="259.34401" y1="177.10383" x2="280.24052" y2="177.10383" gradientUnits="userSpaceOnUse" id="color-12"><stop offset="0" stop-color="#444444"/><stop offset="1" stop-color="#252525"/></linearGradient><linearGradient x1="255.81672" y1="186.29637" x2="283.87038" y2="186.29637" gradientUnits="userSpaceOnUse" id="color-13"><stop offset="0" stop-color="#444444"/><stop offset="1" stop-color="#252525"/></linearGradient><linearGradient x1="252.0812" y1="195.45199" x2="287.75817" y2="195.45199" gradientUnits="userSpaceOnUse" id="color-14"><stop offset="0" stop-color="#444444"/><stop offset="1" stop-color="#252525"/></linearGradient><linearGradient x1="276.67147" y1="165.77239" x2="286.99426" y2="165.77239" gradientUnits="userSpaceOnUse" id="color-15"><stop offset="0" stop-color="#b2b2b2"/><stop offset="1" stop-color="#363636"/></linearGradient><linearGradient x1="276.67147" y1="165.77239" x2="286.99426" y2="165.77239" gradientUnits="userSpaceOnUse" id="color-16"><stop offset="0" stop-color="#1f1f1f"/><stop offset="1" stop-color="#000000"/></linearGradient><linearGradient x1="264.73366" y1="160.58982" x2="275.57474" y2="160.58982" gradientUnits="userSpaceOnUse" id="color-17"><stop offset="0" stop-color="#525252"/><stop offset="1" stop-color="#2e2e2e"/></linearGradient><linearGradient x1="264.73366" y1="160.58982" x2="275.57474" y2="160.58982" gradientUnits="userSpaceOnUse" id="color-18"><stop offset="0" stop-color="#1f1f1f"/><stop offset="1" stop-color="#000000"/></linearGradient></defs><g transform="translate(-240.5,-150.14675)"><g data-paper-data="{&quot;isPaintingLayer&quot;:true}" fill-rule="nonzero" stroke-linejoin="miter" stroke-miterlimit="10" stroke-dasharray="" stroke-dashoffset="0" style="mix-blend-mode: normal"><path d="M242,208.35338v-56.70662h56v56.70662z" fill="url(#color-1)" stroke="url(#color-2)" stroke-width="3" stroke-linecap="butt"/><path d="M242,208.35337v-56.70662h56v56.70662z" fill="url(#color-3)" stroke="url(#color-4)" stroke-width="3" stroke-linecap="butt"/><path d="M296.8571,180.00006c0,14.75036 -12.02433,26.70789 -26.8571,26.70789c-14.83277,0 -26.8571,-11.95753 -26.8571,-26.70789c0,-14.75036 12.02433,-26.70789 26.8571,-26.70789c14.83277,0 26.8571,11.95753 26.8571,26.70789z" fill="url(#color-5)" stroke="url(#color-6)" stroke-width="0" stroke-linecap="butt"/><path d="M279.85827,182.11308v-10.95793h3.31286v10.95793z" fill="url(#color-7)" stroke="url(#color-8)" stroke-width="1.5" stroke-linecap="butt"/><path d="M249.55937,200.44148c0,0 15.26483,-41.18103 20.44342,-40.88126c5.9242,0.34293 20.43784,40.88126 20.43784,40.88126z" fill="url(#color-9)" stroke="url(#color-10)" stroke-width="1.5" stroke-linecap="butt"/><path d="M276.54541,168.7767h-12.99661" fill="none" stroke="url(#color-11)" stroke-width="3" stroke-linecap="round"/><path d="M259.34401,177.10383h20.89651" fill="none" stroke="url(#color-12)" stroke-width="3" stroke-linecap="round"/><path d="M255.81672,186.29637h28.05367" fill="none" stroke="url(#color-13)" stroke-width="3" stroke-linecap="round"/><path d="M252.08119,195.45199h35.67698" fill="none" stroke="url(#color-14)" stroke-width="3" stroke-linecap="round"/><path d="M286.99426,165.77239c-0.03863,4.85368 -0.16091,5.37301 -5.16139,5.32157c-5.00208,-0.05146 -5.22345,-0.70916 -5.16139,-5.32157c0.06851,-5.0924 0.05396,-5.44638 5.16139,-5.32157c4.89361,0.11959 5.20381,-0.00828 5.16139,5.32157z" fill="url(#color-15)" stroke="url(#color-16)" stroke-width="1.5" stroke-linecap="butt"/><path d="M264.73366,157.46499h10.84108c0,0 -0.02447,3.07846 -0.16716,4.18678c-0.12238,0.95057 -0.63745,2.06286 -0.63745,2.06286h-9.31655c0,0 -0.39267,-1.18007 -0.49795,-2.09402c-0.1296,-1.12507 -0.22196,-4.15562 -0.22196,-4.15562z" fill="url(#color-17)" stroke="url(#color-18)" stroke-width="1.5" stroke-linecap="butt"/><path d="M245.27327,163.33901v-8.69862h20.3675v8.69862z" fill-opacity="0.53453" fill="#000000" stroke="#a60000" stroke-width="0" stroke-linecap="butt"/><text transform="translate(245.70712,161.61522) scale(0.21839,0.21839)" font-size="40" xml:space="preserve" fill="#ffffff" fill-rule="nonzero" stroke="#000000" stroke-width="0" stroke-linecap="butt" stroke-linejoin="miter" stroke-miterlimit="10" stroke-dasharray="" stroke-dashoffset="0" font-family="Serif" font-weight="normal" text-anchor="start" style="mix-blend-mode: normal"><tspan x="0" dy="0">Basic</tspan></text></g></g></svg>