<svg version="1.1" xmlns="http://www.w3.org/2000/svg" xmlns:xlink="http://www.w3.org/1999/xlink" width="103.98146" height="47.52609" viewBox="0,0,103.98146,47.52609"><defs><linearGradient x1="240" y1="157.48689" x2="240" y2="202.51304" gradientUnits="userSpaceOnUse" id="color-1"><stop offset="0" stop-color="#4c5585"/><stop offset="1" stop-color="#b33695"/></linearGradient><linearGradient x1="240" y1="157.48689" x2="240" y2="202.51304" gradientUnits="userSpaceOnUse" id="color-2"><stop offset="0" stop-color="#c4dbff"/><stop offset="1" stop-color="#ffadf1"/></linearGradient><radialGradient cx="271.21961" cy="187.89315" r="12.37106" gradientUnits="userSpaceOnUse" id="color-3"><stop offset="0" stop-color="#494949"/><stop offset="1" stop-color="#1b1b1b"/></radialGradient><linearGradient x1="271.21961" y1="185.34481" x2="271.21961" y2="190.44149" gradientUnits="userSpaceOnUse" id="color-4"><stop offset="0" stop-color="#353535"/><stop offset="1" stop-color="#191919"/></linearGradient><linearGradient x1="276.66544" y1="184.84925" x2="277.8284" y2="184.65354" gradientUnits="userSpaceOnUse" id="color-5"><stop offset="0" stop-color="#8a8a8a"/><stop offset="1" stop-color="#535353"/></linearGradient><linearGradient x1="277.10258" y1="183.72268" x2="277.39125" y2="185.78011" gradientUnits="userSpaceOnUse" id="color-6"><stop offset="0" stop-color="#353535"/><stop offset="1" stop-color="#191919"/></linearGradient><linearGradient x1="265.83049" y1="184.71708" x2="264.66753" y2="184.52137" gradientUnits="userSpaceOnUse" id="color-7"><stop offset="0" stop-color="#8a8a8a"/><stop offset="1" stop-color="#535353"/></linearGradient><linearGradient x1="265.39335" y1="183.59051" x2="265.10468" y2="185.64795" gradientUnits="userSpaceOnUse" id="color-8"><stop offset="0" stop-color="#353535"/><stop offset="1" stop-color="#191919"/></linearGradient><radialGradient cx="271.34995" cy="178.79147" r="13.3269" gradientUnits="userSpaceOnUse" id="color-9"><stop offset="0" stop-color="#614573" stop-opacity="0.40642"/><stop offset="1" stop-color="#614573" stop-opacity="0"/></radialGradient><radialGradient cx="271.34995" cy="178.74407" r="10.81951" gradientUnits="userSpaceOnUse" id="color-10"><stop offset="0" stop-color="#9373eb" stop-opacity="0.6061"/><stop offset="1" stop-color="#9373eb" stop-opacity="0"/></radialGradient><radialGradient cx="271.34995" cy="178.74407" r="9.1596" gradientUnits="userSpaceOnUse" id="color-11"><stop offset="0" stop-color="#7f4fff" stop-opacity="0"/><stop offset="1" stop-color="#7f4fff" stop-opacity="0.08611"/></radialGradient><radialGradient cx="271.34995" cy="178.74407" r="7.53199" gradientUnits="userSpaceOnUse" id="color-12"><stop offset="0" stop-color="#a582ff" stop-opacity="0.11996"/><stop offset="1" stop-color="#a88fff"/></radialGradient><radialGradient cx="267.80071" cy="189.63453" r="12.45406" gradientUnits="userSpaceOnUse" id="color-13"><stop offset="0" stop-color="#8a8a8a"/><stop offset="1" stop-color="#535353"/></radialGradient><linearGradient x1="271.25489" y1="187.75169" x2="271.25489" y2="195.06153" gradientUnits="userSpaceOnUse" id="color-14"><stop offset="0" stop-color="#353535"/><stop offset="1" stop-color="#191919"/></linearGradient><linearGradient x1="270.33089" y1="189.16959" x2="272.17944" y2="189.16959" gradientUnits="userSpaceOnUse" id="color-15"><stop offset="0" stop-color="#8a8a8a"/><stop offset="1" stop-color="#535353"/></linearGradient><linearGradient x1="271.25516" y1="187.67653" x2="271.25516" y2="190.66265" gradientUnits="userSpaceOnUse" id="color-16"><stop offset="0" stop-color="#353535"/><stop offset="1" stop-color="#191919"/></linearGradient><linearGradient x1="279.75925" y1="187.03199" x2="281.58635" y2="186.75124" gradientUnits="userSpaceOnUse" id="color-17"><stop offset="0" stop-color="#8a8a8a"/><stop offset="1" stop-color="#535353"/></linearGradient><linearGradient x1="280.44604" y1="185.41588" x2="280.89956" y2="188.36736" gradientUnits="userSpaceOnUse" id="color-18"><stop offset="0" stop-color="#353535"/><stop offset="1" stop-color="#191919"/></linearGradient><linearGradient x1="262.73668" y1="186.8424" x2="260.90958" y2="186.56165" gradientUnits="userSpaceOnUse" id="color-19"><stop offset="0" stop-color="#8a8a8a"/><stop offset="1" stop-color="#535353"/></linearGradient><linearGradient x1="262.04989" y1="185.22629" x2="261.59637" y2="188.17776" gradientUnits="userSpaceOnUse" id="color-20"><stop offset="0" stop-color="#353535"/><stop offset="1" stop-color="#191919"/></linearGradient><radialGradient cx="267.818" cy="193.63005" r="0.7083" gradientUnits="userSpaceOnUse" id="color-21"><stop offset="0" stop-color="#dd2eff"/><stop offset="1" stop-color="#9c00ff"/></radialGradient><radialGradient cx="271.3123" cy="193.90423" r="0.7083" gradientUnits="userSpaceOnUse" id="color-22"><stop offset="0" stop-color="#dd2eff"/><stop offset="1" stop-color="#9c00ff"/></radialGradient><radialGradient cx="274.56592" cy="193.67575" r="0.7083" gradientUnits="userSpaceOnUse" id="color-23"><stop offset="0" stop-color="#dd2eff"/><stop offset="1" stop-color="#9c00ff"/></radialGradient><radialGradient cx="278.00757" cy="193.17" r="0.70848" gradientUnits="userSpaceOnUse" id="color-24"><stop offset="0" stop-color="#dd2eff"/><stop offset="1" stop-color="#9c00ff"/></radialGradient><radialGradient cx="280.93207" cy="192.20709" r="0.70848" gradientUnits="userSpaceOnUse" id="color-25"><stop offset="0" stop-color="#dd2eff"/><stop offset="1" stop-color="#9c00ff"/></radialGradient><radialGradient cx="283.5404" cy="191.34828" r="0.70848" gradientUnits="userSpaceOnUse" id="color-26"><stop offset="0" stop-color="#dd2eff"/><stop offset="1" stop-color="#9c00ff"/></radialGradient><radialGradient cx="264.61334" cy="193.07861" r="0.70848" gradientUnits="userSpaceOnUse" id="color-27"><stop offset="0" stop-color="#dd2eff"/><stop offset="1" stop-color="#9c00ff"/></radialGradient><radialGradient cx="261.68885" cy="192.1157" r="0.70848" gradientUnits="userSpaceOnUse" id="color-28"><stop offset="0" stop-color="#dd2eff"/><stop offset="1" stop-color="#9c00ff"/></radialGradient><radialGradient cx="259.08052" cy="191.25688" r="0.70848" gradientUnits="userSpaceOnUse" id="color-29"><stop offset="0" stop-color="#dd2eff"/><stop offset="1" stop-color="#9c00ff"/></radialGradient><radialGradient cx="256.56988" cy="189.95088" r="6.87724" gradientUnits="userSpaceOnUse" id="color-30"><stop offset="0" stop-color="#afafaf"/><stop offset="1" stop-color="#6f6f6f"/></radialGradient><linearGradient x1="257.98353" y1="186.81545" x2="257.98353" y2="198.33333" gradientUnits="userSpaceOnUse" id="color-31"><stop offset="0" stop-color="#353535"/><stop offset="1" stop-color="#191919"/></linearGradient><radialGradient cx="257.237" cy="189.83712" r="3.37716" gradientUnits="userSpaceOnUse" id="color-32"><stop offset="0" stop-color="#373737"/><stop offset="1" stop-color="#171717"/></radialGradient><linearGradient x1="258.05463" y1="187.84637" x2="258.05463" y2="193.9608" gradientUnits="userSpaceOnUse" id="color-33"><stop offset="0" stop-color="#353535"/><stop offset="1" stop-color="#191919"/></linearGradient></defs><g transform="translate(-188.00927,-156.23695)"><g data-paper-data="{&quot;isPaintingLayer&quot;:true}" fill-rule="nonzero" stroke-linecap="butt" stroke-linejoin="miter" stroke-miterlimit="10" stroke-dasharray="" stroke-dashoffset="0" style="mix-blend-mode: normal"><path d="M189.25927,202.51304v-45.02609h101.48146v45.02609z" fill="url(#color-1)" stroke="url(#color-2)" stroke-width="2.5"/><path d="M271.29071,190.72589c-6.83234,0 -12.44216,-1.42533 -12.44216,-2.83274c0,-1.40741 5.53871,-2.54834 12.37106,-2.54834c6.83234,0 12.37106,1.14093 12.37106,2.54834c0,1.40741 -5.46761,2.83274 -12.29996,2.83274z" fill="url(#color-3)" stroke="url(#color-4)" stroke-width="0.5"/><path d="M277.4359,186.20717l-0.9148,-2.38664l0.55973,-0.36163l1.26348,2.26111z" fill="url(#color-5)" stroke="url(#color-6)" stroke-width="0.5"/><path d="M264.15162,185.58785l1.26347,-2.2611l0.55973,0.36163l-0.91481,2.38664z" data-paper-data="{&quot;index&quot;:null}" fill="url(#color-7)" stroke="url(#color-8)" stroke-width="0.5"/><path d="M258.02306,178.79147c0,-7.36023 5.96666,-13.3269 13.3269,-13.3269c7.36023,0 13.32689,5.96665 13.32689,13.3269c0,7.36023 -5.96665,13.3269 -13.32689,13.3269c-7.36023,0 -13.3269,-5.96665 -13.3269,-13.3269z" fill="url(#color-9)" stroke="none" stroke-width="0.5"/><path d="M260.53044,178.74407c0,-5.97542 4.84405,-10.81951 10.8195,-10.81951c5.97542,0 10.81951,4.84405 10.81951,10.81951c0,5.97543 -4.84406,10.8195 -10.81951,10.8195c-5.97542,0 -10.8195,-4.84405 -10.8195,-10.8195z" fill="url(#color-10)" stroke="none" stroke-width="0.5"/><path d="M262.19034,178.74407c0,-5.05869 4.10089,-9.1596 9.1596,-9.1596c5.0587,0 9.1596,4.10089 9.1596,9.1596c0,5.0587 -4.10089,9.1596 -9.1596,9.1596c-5.05869,0 -9.1596,-4.10089 -9.1596,-9.1596z" fill="url(#color-11)" stroke="none" stroke-width="0.5"/><path d="M263.81798,178.74407c0,-4.15978 3.37218,-7.53198 7.53199,-7.53198c4.15978,0 7.53198,3.37218 7.53198,7.53198c0,4.15978 -3.37217,7.53199 -7.53198,7.53199c-4.15978,0 -7.53199,-3.37218 -7.53199,-7.53199z" fill="url(#color-12)" stroke="none" stroke-width="0.5"/><path d="M257.53325,195.06153l1.26759,-7.30984c0,0 5.80451,2.93501 12.73926,2.93501c6.6918,0 12.16885,-2.93501 12.16885,-2.93501l1.45772,7.25446c0,0 -0.90492,2.62118 -13.31921,2.72927c-12.675,0.11037 -14.31421,-2.67389 -14.31421,-2.67389z" fill="url(#color-13)" stroke="url(#color-14)" stroke-width="0.5"/><path d="M270.33089,190.66265v-2.98612h1.84855v2.98612z" fill="url(#color-15)" stroke="url(#color-16)" stroke-width="0.5"/><path d="M280.96972,188.97999l-1.43723,-3.42373l0.87939,-0.51877l1.98501,3.24366z" fill="url(#color-17)" stroke="url(#color-18)" stroke-width="0.5"/><path d="M260.09903,188.09155l1.98502,-3.24365l0.87939,0.51877l-1.43723,3.42373z" data-paper-data="{&quot;index&quot;:null}" fill="url(#color-19)" stroke="url(#color-20)" stroke-width="0.5"/><g stroke="none" stroke-width="0.5"><path d="M267.1097,193.63005c0,-0.39119 0.31712,-0.7083 0.7083,-0.7083c0.39119,0 0.7083,0.31712 0.7083,0.7083c0,0.39119 -0.31712,0.7083 -0.7083,0.7083c-0.39119,0 -0.7083,-0.31712 -0.7083,-0.7083z" fill="url(#color-21)"/><path d="M270.604,193.90423c0,-0.39119 0.31712,-0.70831 0.7083,-0.70831c0.39119,0 0.7083,0.31712 0.7083,0.70831c0,0.39119 -0.31712,0.7083 -0.7083,0.7083c-0.39119,0 -0.7083,-0.31711 -0.7083,-0.7083z" fill="url(#color-22)"/><path d="M273.85762,193.67575c0,-0.39119 0.31712,-0.7083 0.7083,-0.7083c0.39119,0 0.7083,0.31712 0.7083,0.7083c0,0.39119 -0.31712,0.7083 -0.7083,0.7083c-0.39119,0 -0.7083,-0.31711 -0.7083,-0.7083z" fill="url(#color-23)"/><path d="M277.41477,193.36519c-0.09386,-0.37604 0.09547,-0.76826 0.42287,-0.87606c0.3274,-0.1078 0.66888,0.10966 0.76274,0.48569c0.09386,0.37604 -0.09547,0.76826 -0.42287,0.87606c-0.3274,0.1078 -0.66888,-0.10966 -0.76274,-0.48569z" fill="url(#color-24)"/><path d="M280.33926,192.40228c-0.09386,-0.37604 0.09547,-0.76827 0.42287,-0.87607c0.3274,-0.1078 0.66889,0.10966 0.76274,0.4857c0.09386,0.37604 -0.09547,0.76826 -0.42287,0.87606c-0.3274,0.1078 -0.66889,-0.10965 -0.76274,-0.48569z" fill="url(#color-25)"/><path d="M282.94759,191.54346c-0.09386,-0.37604 0.09548,-0.76827 0.42287,-0.87607c0.3274,-0.1078 0.66888,0.10965 0.76273,0.48569c0.09386,0.37604 -0.09547,0.76827 -0.42287,0.87606c-0.3274,0.1078 -0.66888,-0.10965 -0.76274,-0.48569z" fill="url(#color-26)"/><path d="M264.44341,193.75949c-0.3274,-0.1078 -0.51673,-0.50003 -0.42287,-0.87607c0.09386,-0.37604 0.43534,-0.59349 0.76274,-0.48569c0.3274,0.1078 0.51672,0.50002 0.42287,0.87606c-0.09386,0.37604 -0.43534,0.59349 -0.76274,0.4857z" data-paper-data="{&quot;index&quot;:null}" fill="url(#color-27)"/><path d="M261.51891,192.79658c-0.3274,-0.1078 -0.51672,-0.50002 -0.42287,-0.87606c0.09386,-0.37604 0.43535,-0.59349 0.76274,-0.4857c0.3274,0.1078 0.51672,0.50003 0.42287,0.87607c-0.09386,0.37604 -0.43535,0.59349 -0.76274,0.48569z" data-paper-data="{&quot;index&quot;:null}" fill="url(#color-28)"/><path d="M258.91058,191.93776c-0.3274,-0.1078 -0.51672,-0.50003 -0.42287,-0.87607c0.09386,-0.37604 0.43534,-0.59349 0.76274,-0.48569c0.3274,0.1078 0.51672,0.50003 0.42287,0.87607c-0.09386,0.37604 -0.43534,0.59349 -0.76274,0.48569z" data-paper-data="{&quot;index&quot;:null}" fill="url(#color-29)"/></g><path d="M253.8954,198.33333v-11.51788h8.17627v11.51788z" fill="url(#color-30)" stroke="url(#color-31)" stroke-width="0.5"/><path d="M254.67748,193.9608v-6.11443h6.75431v6.11443z" fill="url(#color-32)" stroke="url(#color-33)" stroke-width="0.5"/><text transform="translate(255.45955,189.81579) scale(0.02778,0.02778)" font-size="40" xml:space="preserve" fill="#ffde00" fill-rule="nonzero" stroke="none" stroke-width="1" stroke-linecap="butt" stroke-linejoin="miter" stroke-miterlimit="10" stroke-dasharray="" stroke-dashoffset="0" font-family="Pixel" font-weight="normal" text-anchor="start" style="mix-blend-mode: normal"><tspan x="0" dy="0">LEVEL 2</tspan></text><text transform="translate(255.31736,191.37994) scale(0.02778,0.02778)" font-size="40" xml:space="preserve" fill="#01ff00" fill-rule="nonzero" stroke="none" stroke-width="1" stroke-linecap="butt" stroke-linejoin="miter" stroke-miterlimit="10" stroke-dasharray="" stroke-dashoffset="0" font-family="Pixel" font-weight="normal" text-anchor="start" style="mix-blend-mode: normal"><tspan x="0" dy="0">STATUS: </tspan><tspan x="0" dy="48px">READY</tspan></text><text transform="translate(192.41375,168.46872) scale(0.26492,0.26492)" font-size="40" xml:space="preserve" fill="#ffffff" fill-rule="nonzero" stroke="none" stroke-width="1" stroke-linecap="butt" stroke-linejoin="miter" stroke-miterlimit="10" stroke-dasharray="" stroke-dashoffset="0" font-family="Serif" font-weight="normal" text-anchor="start" style="mix-blend-mode: normal"><tspan x="0" dy="0">Warp Gate Upgrade</tspan></text><text transform="translate(192.65829,175.44392) scale(0.15979,0.15979)" font-size="40" xml:space="preserve" fill="#ffffff" fill-rule="nonzero" stroke="none" stroke-width="1" stroke-linecap="butt" stroke-linejoin="miter" stroke-miterlimit="10" stroke-dasharray="" stroke-dashoffset="0" font-family="Serif" font-weight="normal" text-anchor="start" style="mix-blend-mode: normal"><tspan x="0" dy="0">(Level 2)</tspan></text><text transform="translate(192.3,198.77146) scale(0.15,0.15)" font-size="40" xml:space="preserve" fill="#26ff00" fill-rule="nonzero" stroke="none" stroke-width="1" stroke-linecap="butt" stroke-linejoin="miter" stroke-miterlimit="10" stroke-dasharray="" stroke-dashoffset="0" font-family="Serif" font-weight="normal" text-anchor="start" style="mix-blend-mode: normal"><tspan x="0" dy="0">150k R</tspan></text></g></g></svg>