<svg version="1.1" xmlns="http://www.w3.org/2000/svg" xmlns:xlink="http://www.w3.org/1999/xlink" width="154.906" height="156.2529" viewBox="0,0,154.906,156.2529"><defs><radialGradient cx="240.22266" cy="179.1207" r="77.24316" gradientUnits="userSpaceOnUse" id="color-1"><stop offset="0" stop-color="#bc957e"/><stop offset="1" stop-color="#33291e"/></radialGradient><radialGradient cx="240" cy="180.00002" r="77.453" gradientUnits="userSpaceOnUse" id="color-2"><stop offset="0" stop-color="#735545" stop-opacity="0.30645"/><stop offset="1" stop-color="#735545" stop-opacity="0"/></radialGradient><radialGradient cx="240" cy="180.00005" r="62.88062" gradientUnits="userSpaceOnUse" id="color-3"><stop offset="0" stop-color="#ea9d73" stop-opacity="0.62903"/><stop offset="1" stop-color="#ea9d73" stop-opacity="0"/></radialGradient><radialGradient cx="240" cy="180.00005" r="53.23366" gradientUnits="userSpaceOnUse" id="color-4"><stop offset="0" stop-color="#ff8c4e"/><stop offset="1" stop-color="#ff8c4e" stop-opacity="0"/></radialGradient><radialGradient cx="240.00001" cy="180.00006" r="43.77423" gradientUnits="userSpaceOnUse" id="color-5"><stop offset="0" stop-color="#ff631f"/><stop offset="1" stop-color="#ff8340"/></radialGradient><radialGradient cx="239.89641" cy="180.21094" r="77.9195" gradientUnits="userSpaceOnUse" id="color-6"><stop offset="0" stop-color="#080504"/><stop offset="1" stop-color="#21150d"/></radialGradient></defs><g transform="translate(-162.547,-101.87754)"><g data-paper-data="{&quot;isPaintingLayer&quot;:true}" fill-rule="nonzero" stroke-linecap="butt" stroke-linejoin="miter" stroke-miterlimit="10" stroke-dasharray="" stroke-dashoffset="0" style="mix-blend-mode: normal"><path d="M280.88796,104.58301c0,0 0.66906,24.92742 -29.96871,88.67878c-26.346,54.82101 -43.03546,63.10206 -43.03546,63.10206l-8.32761,-0.96717c0,0 30.5385,-36.60654 43.63686,-65.8077c16.3737,-36.50316 28.78798,-87.71143 28.78798,-87.71143z" data-paper-data="{&quot;index&quot;:null}" fill="url(#color-1)" stroke="#676767" stroke-width="0"/><path d="M162.547,180.00002c0,-42.77597 34.67686,-77.453 77.453,-77.453c42.77597,0 77.453,34.67686 77.453,77.453c0,42.77597 -34.67686,77.453 -77.453,77.453c-42.77597,0 -77.453,-34.67686 -77.453,-77.453z" fill="url(#color-2)" stroke="none" stroke-width="0.5"/><path d="M177.11939,180.00005c0,-34.72789 28.15259,-62.88062 62.88062,-62.88062c34.72789,0 62.88062,28.15259 62.88062,62.88062c0,34.72789 -28.15259,62.88062 -62.88062,62.88062c-34.72789,0 -62.88062,-28.15259 -62.88062,-62.88062z" fill="url(#color-3)" stroke="none" stroke-width="0.5"/><path d="M186.76634,180.00005c0,-29.40004 23.8335,-53.23366 53.23366,-53.23366c29.40004,0 53.23366,23.8335 53.23366,53.23366c0,29.40004 -23.8335,53.23366 -53.23366,53.23366c-29.40004,0 -53.23366,-23.8335 -53.23366,-53.23366z" fill="url(#color-4)" stroke="none" stroke-width="0.5"/><path d="M196.22578,180.00006c0,-24.17577 19.59837,-43.77423 43.77423,-43.77423c24.17577,0 43.77423,19.59837 43.77423,43.77423c0,24.17577 -19.59837,43.77423 -43.77423,43.77423c-24.17577,0 -43.77423,-19.59837 -43.77423,-43.77423z" fill="url(#color-5)" stroke="none" stroke-width="0.5"/><path d="M198.93084,255.40128c0,0 -3.42545,-25.83346 27.48058,-90.14303c26.57669,-55.30103 46.16281,-62.96681 46.16281,-62.96681l8.40052,0.97565c0,0 -27.02399,39.334 -40.23703,68.79085c-16.51708,36.82279 -32.82195,86.07251 -32.82195,86.07251z" fill="url(#color-6)" stroke="#676767" stroke-width="0"/></g></g></svg>