<svg version="1.1" xmlns="http://www.w3.org/2000/svg" xmlns:xlink="http://www.w3.org/1999/xlink" width="110.59566" height="286.29675" viewBox="0,0,110.59566,286.29675"><defs><linearGradient x1="201.83333" y1="161.99212" x2="277.16667" y2="161.99212" gradientUnits="userSpaceOnUse" id="color-1"><stop offset="0" stop-color="#b89a9a"/><stop offset="1" stop-color="#8d7070"/></linearGradient><linearGradient x1="201.83333" y1="161.99212" x2="277.16667" y2="161.99212" gradientUnits="userSpaceOnUse" id="color-2"><stop offset="0" stop-color="#260000"/><stop offset="1" stop-color="#100000"/></linearGradient><linearGradient x1="271.32285" y1="188.50127" x2="303.12907" y2="188.50127" gradientUnits="userSpaceOnUse" id="color-3"><stop offset="0" stop-color="#362424"/><stop offset="1" stop-color="#1f1414"/></linearGradient><linearGradient x1="271.32285" y1="189.59395" x2="293.07785" y2="189.59395" gradientUnits="userSpaceOnUse" id="color-4"><stop offset="0" stop-color="#272727"/><stop offset="1" stop-color="#000000"/></linearGradient><linearGradient x1="208.07785" y1="188.16794" x2="176.27164" y2="188.16794" gradientUnits="userSpaceOnUse" id="color-5"><stop offset="0" stop-color="#6b4a4a"/><stop offset="1" stop-color="#825959"/></linearGradient><linearGradient x1="186.32285" y1="189.26061" x2="208.07785" y2="189.26061" gradientUnits="userSpaceOnUse" id="color-6"><stop offset="0" stop-color="#272727"/><stop offset="1" stop-color="#000000"/></linearGradient><linearGradient x1="207.98951" y1="162.51061" x2="271.39896" y2="162.51061" gradientUnits="userSpaceOnUse" id="color-7"><stop offset="0" stop-color="#634343"/><stop offset="1" stop-color="#211414"/></linearGradient><linearGradient x1="207.98951" y1="162.51061" x2="271.39897" y2="162.51061" gradientUnits="userSpaceOnUse" id="color-8"><stop offset="0" stop-color="#272727"/><stop offset="1" stop-color="#000000"/></linearGradient><linearGradient x1="212.16667" y1="126.5" x2="266.83333" y2="126.5" gradientUnits="userSpaceOnUse" id="color-9"><stop offset="0" stop-color="#b89a9a"/><stop offset="1" stop-color="#8d7070"/></linearGradient><linearGradient x1="212.16667" y1="126.5" x2="266.83333" y2="126.5" gradientUnits="userSpaceOnUse" id="color-10"><stop offset="0" stop-color="#260000"/><stop offset="1" stop-color="#100000"/></linearGradient><linearGradient x1="212.16667" y1="145.83333" x2="266.83333" y2="145.83333" gradientUnits="userSpaceOnUse" id="color-11"><stop offset="0" stop-color="#b89a9a"/><stop offset="1" stop-color="#8d7070"/></linearGradient><linearGradient x1="212.16667" y1="145.83333" x2="266.83333" y2="145.83333" gradientUnits="userSpaceOnUse" id="color-12"><stop offset="0" stop-color="#260000"/><stop offset="1" stop-color="#100000"/></linearGradient><linearGradient x1="241.96088" y1="165.43702" x2="266.83232" y2="165.43702" gradientUnits="userSpaceOnUse" id="color-13"><stop offset="0" stop-color="#2c4a2e"/><stop offset="1" stop-color="#1d301b"/></linearGradient><linearGradient x1="241.96088" y1="165.43702" x2="266.83232" y2="165.43702" gradientUnits="userSpaceOnUse" id="color-14"><stop offset="0" stop-color="#123614"/><stop offset="1" stop-color="#0d1a0e"/></linearGradient><linearGradient x1="241.89399" y1="165.44639" x2="266.7079" y2="165.44639" gradientUnits="userSpaceOnUse" id="color-15"><stop offset="0" stop-color="#123614"/><stop offset="1" stop-color="#0d1a0e"/></linearGradient><linearGradient x1="241.89399" y1="165.25746" x2="266.7079" y2="165.25746" gradientUnits="userSpaceOnUse" id="color-16"><stop offset="0" stop-color="#123614"/><stop offset="1" stop-color="#0d1a0e"/></linearGradient><linearGradient x1="212.23457" y1="165.56298" x2="237.10601" y2="165.56298" gradientUnits="userSpaceOnUse" id="color-17"><stop offset="0" stop-color="#2c4a2e"/><stop offset="1" stop-color="#1d301b"/></linearGradient><linearGradient x1="212.23457" y1="165.56298" x2="237.10601" y2="165.56298" gradientUnits="userSpaceOnUse" id="color-18"><stop offset="0" stop-color="#123614"/><stop offset="1" stop-color="#0d1a0e"/></linearGradient><linearGradient x1="212.16769" y1="165.57235" x2="236.98159" y2="165.57235" gradientUnits="userSpaceOnUse" id="color-19"><stop offset="0" stop-color="#123614"/><stop offset="1" stop-color="#0d1a0e"/></linearGradient><linearGradient x1="212.16769" y1="165.38341" x2="236.98159" y2="165.38341" gradientUnits="userSpaceOnUse" id="color-20"><stop offset="0" stop-color="#123614"/><stop offset="1" stop-color="#0d1a0e"/></linearGradient><linearGradient x1="241.96088" y1="195.43702" x2="266.83232" y2="195.43702" gradientUnits="userSpaceOnUse" id="color-21"><stop offset="0" stop-color="#2c4a2e"/><stop offset="1" stop-color="#1d301b"/></linearGradient><linearGradient x1="241.96088" y1="195.43702" x2="266.83232" y2="195.43702" gradientUnits="userSpaceOnUse" id="color-22"><stop offset="0" stop-color="#123614"/><stop offset="1" stop-color="#0d1a0e"/></linearGradient><linearGradient x1="241.89399" y1="195.44639" x2="266.7079" y2="195.44639" gradientUnits="userSpaceOnUse" id="color-23"><stop offset="0" stop-color="#123614"/><stop offset="1" stop-color="#0d1a0e"/></linearGradient><linearGradient x1="241.89399" y1="195.25746" x2="266.7079" y2="195.25746" gradientUnits="userSpaceOnUse" id="color-24"><stop offset="0" stop-color="#123614"/><stop offset="1" stop-color="#0d1a0e"/></linearGradient><linearGradient x1="212.23457" y1="195.56298" x2="237.10601" y2="195.56298" gradientUnits="userSpaceOnUse" id="color-25"><stop offset="0" stop-color="#2c4a2e"/><stop offset="1" stop-color="#1d301b"/></linearGradient><linearGradient x1="212.23457" y1="195.56298" x2="237.10601" y2="195.56298" gradientUnits="userSpaceOnUse" id="color-26"><stop offset="0" stop-color="#123614"/><stop offset="1" stop-color="#0d1a0e"/></linearGradient><linearGradient x1="212.16769" y1="195.57235" x2="236.98159" y2="195.57235" gradientUnits="userSpaceOnUse" id="color-27"><stop offset="0" stop-color="#123614"/><stop offset="1" stop-color="#0d1a0e"/></linearGradient><linearGradient x1="212.16769" y1="195.38341" x2="236.98159" y2="195.38341" gradientUnits="userSpaceOnUse" id="color-28"><stop offset="0" stop-color="#123614"/><stop offset="1" stop-color="#0d1a0e"/></linearGradient><linearGradient x1="207.95582" y1="78.53687" x2="272.12465" y2="78.53687" gradientUnits="userSpaceOnUse" id="color-29"><stop offset="0" stop-color="#9c5555"/><stop offset="1" stop-color="#453131"/></linearGradient><linearGradient x1="207.95582" y1="78.51676" x2="272.12466" y2="78.51676" gradientUnits="userSpaceOnUse" id="color-30"><stop offset="0" stop-color="#272727"/><stop offset="1" stop-color="#000000"/></linearGradient><linearGradient x1="225.95582" y1="50.62154" x2="252.12466" y2="50.62154" gradientUnits="userSpaceOnUse" id="color-31"><stop offset="0" stop-color="#f7d6d6"/><stop offset="1" stop-color="#805e5e"/></linearGradient><linearGradient x1="225.95582" y1="50.619" x2="252.12466" y2="50.619" gradientUnits="userSpaceOnUse" id="color-32"><stop offset="0" stop-color="#272727"/><stop offset="1" stop-color="#000000"/></linearGradient><linearGradient x1="222.74585" y1="63.52466" x2="256.22594" y2="63.52466" gradientUnits="userSpaceOnUse" id="color-33"><stop offset="0" stop-color="#452a2a"/><stop offset="1" stop-color="#260f0f"/></linearGradient><linearGradient x1="219.58717" y1="74.52466" x2="259.91233" y2="74.52466" gradientUnits="userSpaceOnUse" id="color-34"><stop offset="0" stop-color="#452a2a"/><stop offset="1" stop-color="#260f0f"/></linearGradient><linearGradient x1="216.62983" y1="85.32466" x2="262.89987" y2="85.32466" gradientUnits="userSpaceOnUse" id="color-35"><stop offset="0" stop-color="#452a2a"/><stop offset="1" stop-color="#260f0f"/></linearGradient><linearGradient x1="213.47962" y1="95.72466" x2="266.32315" y2="95.72466" gradientUnits="userSpaceOnUse" id="color-36"><stop offset="0" stop-color="#452a2a"/><stop offset="1" stop-color="#260f0f"/></linearGradient><linearGradient x1="234.16666" y1="34.72222" x2="244.49999" y2="34.72222" gradientUnits="userSpaceOnUse" id="color-37"><stop offset="0" stop-color="#443939"/><stop offset="1" stop-color="#251e1e"/></linearGradient><linearGradient x1="234.16666" y1="34.72222" x2="244.49999" y2="34.72222" gradientUnits="userSpaceOnUse" id="color-38"><stop offset="0" stop-color="#262626"/><stop offset="1" stop-color="#0f0f0f"/></linearGradient><linearGradient x1="237.49999" y1="14.55555" x2="241.49999" y2="14.55555" gradientUnits="userSpaceOnUse" id="color-39"><stop offset="0" stop-color="#ccbebe"/><stop offset="1" stop-color="#656161"/></linearGradient><linearGradient x1="237.49999" y1="14.55555" x2="241.49999" y2="14.55555" gradientUnits="userSpaceOnUse" id="color-40"><stop offset="0" stop-color="#262626"/><stop offset="1" stop-color="#0f0f0f"/></linearGradient><linearGradient x1="253.65" y1="241.06667" x2="258.84999" y2="241.06667" gradientUnits="userSpaceOnUse" id="color-41"><stop offset="0" stop-color="#525252"/><stop offset="1" stop-color="#363636"/></linearGradient><linearGradient x1="253.65" y1="241.06667" x2="258.84999" y2="241.06667" gradientUnits="userSpaceOnUse" id="color-42"><stop offset="0" stop-color="#1f1f1f"/><stop offset="1" stop-color="#000000"/></linearGradient><linearGradient x1="222.79623" y1="234.03375" x2="227.25789" y2="234.6471" gradientUnits="userSpaceOnUse" id="color-43"><stop offset="0" stop-color="#525252"/><stop offset="1" stop-color="#2e2e2e"/></linearGradient><linearGradient x1="222.79623" y1="234.03375" x2="227.25789" y2="234.6471" gradientUnits="userSpaceOnUse" id="color-44"><stop offset="0" stop-color="#1f1f1f"/><stop offset="1" stop-color="#000000"/></linearGradient><linearGradient x1="207.34164" y1="247.34993" x2="271.51049" y2="247.34993" gradientUnits="userSpaceOnUse" id="color-45"><stop offset="0" stop-color="#b8b8b8"/><stop offset="1" stop-color="#4a4a4a"/></linearGradient><linearGradient x1="207.34164" y1="247.34993" x2="271.51049" y2="247.34993" gradientUnits="userSpaceOnUse" id="color-46"><stop offset="0" stop-color="#1f1f1f"/><stop offset="1" stop-color="#000000"/></linearGradient><linearGradient x1="229.3" y1="229.73334" x2="249.7" y2="229.73334" gradientUnits="userSpaceOnUse" id="color-47"><stop offset="0" stop-color="#5d5d5d"/><stop offset="1" stop-color="#232323"/></linearGradient><linearGradient x1="222.7" y1="242.80393" x2="255.5" y2="242.80393" gradientUnits="userSpaceOnUse" id="color-48"><stop offset="0" stop-color="#5d5d5d"/><stop offset="1" stop-color="#232323"/></linearGradient><linearGradient x1="217.16342" y1="257.23293" x2="261.19756" y2="257.23293" gradientUnits="userSpaceOnUse" id="color-49"><stop offset="0" stop-color="#5d5d5d"/><stop offset="1" stop-color="#232323"/></linearGradient><linearGradient x1="211.3" y1="271.60393" x2="267.3" y2="271.60393" gradientUnits="userSpaceOnUse" id="color-50"><stop offset="0" stop-color="#5d5d5d"/><stop offset="1" stop-color="#232323"/></linearGradient><linearGradient x1="251.39335" y1="224.01767" x2="261.23388" y2="224.01767" gradientUnits="userSpaceOnUse" id="color-51"><stop offset="0" stop-color="#aaaaaa"/><stop offset="1" stop-color="#4e4e4e"/></linearGradient><linearGradient x1="251.39335" y1="224.01767" x2="261.23388" y2="224.01767" gradientUnits="userSpaceOnUse" id="color-52"><stop offset="0" stop-color="#1f1f1f"/><stop offset="1" stop-color="#000000"/></linearGradient><linearGradient x1="261.26238" y1="224.01767" x2="271.10291" y2="224.01767" gradientUnits="userSpaceOnUse" id="color-53"><stop offset="0" stop-color="#aaaaaa"/><stop offset="1" stop-color="#4e4e4e"/></linearGradient><linearGradient x1="261.26238" y1="224.01767" x2="271.10291" y2="224.01767" gradientUnits="userSpaceOnUse" id="color-54"><stop offset="0" stop-color="#1f1f1f"/><stop offset="1" stop-color="#000000"/></linearGradient><linearGradient x1="263.65" y1="241.31667" x2="268.84999" y2="241.31667" gradientUnits="userSpaceOnUse" id="color-55"><stop offset="0" stop-color="#525252"/><stop offset="1" stop-color="#363636"/></linearGradient><linearGradient x1="263.65" y1="241.31667" x2="268.84999" y2="241.31667" gradientUnits="userSpaceOnUse" id="color-56"><stop offset="0" stop-color="#1f1f1f"/><stop offset="1" stop-color="#000000"/></linearGradient><linearGradient x1="207.875" y1="218.75001" x2="271.875" y2="218.75001" gradientUnits="userSpaceOnUse" id="color-57"><stop offset="0" stop-color="#525252"/><stop offset="1" stop-color="#2e2e2e"/></linearGradient><linearGradient x1="207.875" y1="218.75001" x2="271.875" y2="218.75001" gradientUnits="userSpaceOnUse" id="color-58"><stop offset="0" stop-color="#1f1f1f"/><stop offset="1" stop-color="#000000"/></linearGradient></defs><g transform="translate(-184.40252,6.11111)"><g data-paper-data="{&quot;isPaintingLayer&quot;:true}" fill-rule="nonzero" stroke-linejoin="miter" stroke-miterlimit="10" stroke-dasharray="" stroke-dashoffset="0" style="mix-blend-mode: normal"><g stroke-width="1.5" stroke-linecap="butt"><path d="M201.83333,193.66667v-63.34908c0,0 24.64933,-8.48425 36.88735,-8.48425c12.8438,0 38.44598,8.48425 38.44598,8.48425v63.34908z" fill="url(#color-1)" stroke="url(#color-2)"/><path d="M271.32285,214.5938v-64.85172c0,0 8.16113,43.53356 11.01446,54.04444c2.25749,8.31596 10.74054,25.65929 10.74054,25.65929z" fill="url(#color-3)" stroke="url(#color-4)"/><path d="M186.32285,229.11247c0,0 8.48305,-17.34332 10.74054,-25.65928c2.85333,-10.51089 11.01446,-54.04444 11.01446,-54.04444v64.85172z" data-paper-data="{&quot;index&quot;:null}" fill="url(#color-5)" stroke="url(#color-6)"/><path d="M207.98951,214.52914v-104.03706h63.40946v104.03706z" fill="url(#color-7)" stroke="url(#color-8)"/><path d="M212.16667,139.16667v-25.33333h54.66667v25.33333z" fill="url(#color-9)" stroke="url(#color-10)"/><path d="M212.16667,149.5v-7.33333h54.66667v7.33333z" fill="url(#color-11)" stroke="url(#color-12)"/></g><g stroke-width="3"><path d="M241.96088,178.38443v-25.89482h24.87144v25.89482z" fill="url(#color-13)" stroke="url(#color-14)" stroke-linecap="butt"/><path d="M241.89399,178.04229l24.81391,-25.19178" fill="none" stroke="url(#color-15)" stroke-linecap="round"/><path d="M242.14591,152.59858l24.56199,25.56966" fill="none" stroke="url(#color-16)" stroke-linecap="round"/><path d="M212.23457,178.51039v-25.89482h24.87144v25.89482z" fill="url(#color-17)" stroke="url(#color-18)" stroke-linecap="butt"/><path d="M212.16769,178.16825l24.81391,-25.19179" fill="none" stroke="url(#color-19)" stroke-linecap="round"/><path d="M212.4196,152.72454l24.56199,25.56966" fill="none" stroke="url(#color-20)" stroke-linecap="round"/><path d="M241.96088,208.38443v-25.89482h24.87144v25.89482z" fill="url(#color-21)" stroke="url(#color-22)" stroke-linecap="butt"/><path d="M241.89399,208.04229l24.81391,-25.19178" fill="none" stroke="url(#color-23)" stroke-linecap="round"/><path d="M266.7079,208.16824l-24.56199,-25.56965" fill="none" stroke="url(#color-24)" stroke-linecap="round"/><path d="M212.23457,208.51039v-25.89482h24.87144v25.89482z" fill="url(#color-25)" stroke="url(#color-26)" stroke-linecap="butt"/><path d="M236.9816,182.97646l-24.81391,25.19179" fill="none" stroke="url(#color-27)" stroke-linecap="round"/><path d="M212.4196,182.72454l24.56199,25.56966" fill="none" stroke="url(#color-28)" stroke-linecap="round"/></g><g stroke-linecap="butt"><path d="M207.95582,110.62258c0,0 21.61061,-79.25 31.89763,-79.25c6.5993,0 32.27121,79.25 32.27121,79.25z" fill="url(#color-29)" stroke="url(#color-30)" stroke-width="1.5"/><path d="M225.95582,54.68108c0,0 10.25995,-24.02019 13.45027,-24.11876c2.90033,-0.0896 12.96857,24.11876 12.96857,24.11876z" fill="url(#color-31)" stroke="url(#color-32)" stroke-width="1.5"/><path d="M221.60131,67.62878c0,0 0.55545,-1.28597 1.37144,-2.81632c0.95758,-1.79589 2.54375,-3.92834 8.02471,-4.71401c0.21265,-0.03048 4.20771,-0.47706 4.20771,-0.47706l8.6914,0.01912c0,0 3.0045,0.1531 3.18094,0.18296c5.18707,0.87782 7.13492,3.08204 8.22529,4.92503c0.92973,1.57146 1.49541,2.88029 1.49541,2.88029z" data-paper-data="{&quot;index&quot;:null}" fill="url(#color-33)" stroke="#000000" stroke-width="0"/><path d="M218.20863,78.62878c0,0 0.66901,-1.28597 1.65183,-2.81632c1.15336,-1.79589 3.06382,-3.92834 9.66537,-4.71401c0.25613,-0.03048 5.06799,-0.47706 5.06799,-0.47706l10.46837,0.01912c0,0 3.61878,0.1531 3.83129,0.18296c6.24757,0.87782 8.59367,3.08204 9.90697,4.92503c1.11981,1.57146 1.80115,2.88029 1.80115,2.88029z" data-paper-data="{&quot;index&quot;:null}" fill="url(#color-34)" stroke="#000000" stroke-width="0"/><path d="M215.04806,89.42878c0,0 0.76764,-1.28597 1.89535,-2.81632c1.32339,-1.79589 3.5155,-3.92834 11.09027,-4.71401c0.29389,-0.03048 5.81513,-0.47706 5.81513,-0.47706l12.01166,0.01912c0,0 4.15227,0.1531 4.39611,0.18296c7.16861,0.87782 9.86058,3.08204 11.36749,4.92503c1.2849,1.57146 2.06668,2.88029 2.06668,2.88029z" data-paper-data="{&quot;index&quot;:null}" fill="url(#color-35)" stroke="#000000" stroke-width="0"/><path d="M211.67313,99.82878c0,0 0.8767,-1.28596 2.16462,-2.81632c1.51141,-1.79589 4.01494,-3.92834 12.66585,-4.71401c0.33564,-0.03048 6.64127,-0.47706 6.64127,-0.47706l13.71813,0.01912c0,0 4.74217,0.1531 5.02066,0.18296c8.18705,0.87782 11.26144,3.08204 12.98244,4.92502c1.46744,1.57146 2.36029,2.88029 2.36029,2.88029z" data-paper-data="{&quot;index&quot;:null}" fill="url(#color-36)" stroke="#000000" stroke-width="0"/><path d="M244.49999,34.72222c0,1.10457 -2.3132,2 -5.16667,2c-2.85347,0 -5.16667,-0.89543 -5.16667,-2c0,-1.10457 2.3132,-2 5.16667,-2c2.85347,0 5.16667,0.89543 5.16667,2z" fill="url(#color-37)" stroke="url(#color-38)" stroke-width="1"/><path d="M237.49999,34.72222v-40.33333h4v40.33333z" fill="url(#color-39)" stroke="url(#color-40)" stroke-width="1"/></g><g><path d="M253.65,249.66667v-17.2h5.2v17.2z" fill="url(#color-41)" stroke="url(#color-42)" stroke-width="1.5" stroke-linecap="butt"/><path d="M220.21849,252.78475l0.67217,-34.95989l11.11297,-2.53071l-7.32347,38.10396z" fill="url(#color-43)" stroke="url(#color-44)" stroke-width="1.5" stroke-linecap="butt"/><path d="M207.34164,279.43564c0,0 23.96029,-64.63938 32.08881,-64.16885c9.29886,0.53827 32.08004,64.16885 32.08004,64.16885z" fill="url(#color-45)" stroke="url(#color-46)" stroke-width="1.5" stroke-linecap="butt"/><path d="M229.3,229.73334h20.4" fill="none" stroke="url(#color-47)" stroke-width="4.5" stroke-linecap="round"/><path d="M255.5,242.80393h-32.8" fill="none" stroke="url(#color-48)" stroke-width="4.5" stroke-linecap="round"/><path d="M261.19757,257.23293h-44.03415" fill="none" stroke="url(#color-49)" stroke-width="4.5" stroke-linecap="round"/><path d="M267.3,271.60393h-56" fill="none" stroke="url(#color-50)" stroke-width="4.5" stroke-linecap="round"/><path d="M261.23388,224.01767c-0.03682,7.61853 -0.15339,8.43369 -4.92026,8.35295c-4.76839,-0.08077 -4.97941,-1.11312 -4.92026,-8.35295c0.06531,-7.99323 0.05143,-8.54885 4.92026,-8.35295c4.66499,0.18771 4.9607,-0.01299 4.92026,8.35295z" fill="url(#color-51)" stroke="url(#color-52)" stroke-width="1.5" stroke-linecap="butt"/><path d="M271.10291,224.01767c-0.03682,7.61853 -0.15339,8.43369 -4.92026,8.35295c-4.76839,-0.08077 -4.97941,-1.11312 -4.92026,-8.35295c0.06531,-7.99323 0.05143,-8.54885 4.92026,-8.35295c4.66499,0.18771 4.9607,-0.01299 4.92026,8.35295z" fill="url(#color-53)" stroke="url(#color-54)" stroke-width="1.5" stroke-linecap="butt"/><path d="M259.15,246.66667c0,0 4.5,-1.13327 4.5,-3.66666c0,-3.08903 0,-10.28334 0,-10.28334h5.2c0,0 0,6.74766 0,9.78334c0,1.13514 -0.97555,3.53211 -2.65925,5.32718c-2.23671,2.38466 -5.34075,4.08948 -5.34075,4.08948z" fill="url(#color-55)" stroke="url(#color-56)" stroke-width="1.5" stroke-linecap="butt"/><path d="M207.875,214.75001h64c0,0 -0.14445,3.94065 -0.98682,5.35939c-0.72248,1.2168 -3.76318,2.64061 -3.76318,2.64061h-55c0,0 -2.31812,-1.51057 -2.93964,-2.6805c-0.76509,-1.44017 -1.31036,-5.3195 -1.31036,-5.3195z" fill="url(#color-57)" stroke="url(#color-58)" stroke-width="1.5" stroke-linecap="butt"/></g></g></g></svg>