<svg version="1.1" xmlns="http://www.w3.org/2000/svg" xmlns:xlink="http://www.w3.org/1999/xlink" width="488" height="440.13803" viewBox="0,0,488,440.13803"><defs><radialGradient cx="239.76179" cy="177.81007" r="244" gradientUnits="userSpaceOnUse" id="color-1"><stop offset="0" stop-color="#121212"/><stop offset="1" stop-color="#868686"/></radialGradient><radialGradient cx="240.00007" cy="180.00008" r="173.5" gradientUnits="userSpaceOnUse" id="color-2"><stop offset="0" stop-color="#000000"/><stop offset="1" stop-color="#000000" stop-opacity="0"/></radialGradient><radialGradient cx="237.9383" cy="318.16659" r="116.49049" gradientUnits="userSpaceOnUse" id="color-3"><stop offset="0" stop-color="#33266a"/><stop offset="1" stop-color="#949074"/></radialGradient><linearGradient x1="242.74391" y1="206.71004" x2="247.12427" y2="240.06436" gradientUnits="userSpaceOnUse" id="color-4"><stop offset="0" stop-color="#5fa5c2"/><stop offset="1" stop-color="#7fff7d"/></linearGradient><radialGradient cx="217.12984" cy="96.63092" r="64.41492" gradientUnits="userSpaceOnUse" id="color-5"><stop offset="0" stop-color="#ffa8a8"/><stop offset="1" stop-color="#ffed7d"/></radialGradient><radialGradient cx="232.39259" cy="141.39012" r="13.70696" gradientUnits="userSpaceOnUse" id="color-6"><stop offset="0" stop-color="#daffe3"/><stop offset="1" stop-color="#0c1a0f"/></radialGradient><radialGradient cx="266.89257" cy="159.89012" r="16.12716" gradientUnits="userSpaceOnUse" id="color-7"><stop offset="0" stop-color="#5f6471"/><stop offset="1" stop-color="#171d2c"/></radialGradient><radialGradient cx="291.89257" cy="138.39012" r="13.22358" gradientUnits="userSpaceOnUse" id="color-8"><stop offset="0" stop-color="#ffd0d0"/><stop offset="1" stop-color="#2a0000"/></radialGradient><linearGradient x1="243.40111" y1="136.57476" x2="246.81048" y2="170.58813" gradientUnits="userSpaceOnUse" id="color-9"><stop offset="0" stop-color="#694444"/><stop offset="1" stop-color="#98a1b9"/></linearGradient><radialGradient cx="212.09064" cy="26.12191" r="65.45502" gradientUnits="userSpaceOnUse" id="color-10"><stop offset="0" stop-color="#dcdcdc"/><stop offset="1" stop-color="#a0a0a0"/></radialGradient><radialGradient cx="242.42079" cy="54.28477" r="46.28026" gradientUnits="userSpaceOnUse" id="color-11"><stop offset="0" stop-color="#d1ffc4"/><stop offset="1" stop-color="#2188ff"/></radialGradient><radialGradient cx="242.42079" cy="54.28477" r="46.28026" gradientUnits="userSpaceOnUse" id="color-12"><stop offset="0" stop-color="#ceffc4"/><stop offset="1" stop-color="#ff21cc"/></radialGradient><radialGradient cx="242.42079" cy="54.28477" r="46.28026" gradientUnits="userSpaceOnUse" id="color-13"><stop offset="0" stop-color="#ffe9c4"/><stop offset="1" stop-color="#4fff21"/></radialGradient><radialGradient cx="242.42079" cy="54.28477" r="46.28026" gradientUnits="userSpaceOnUse" id="color-14"><stop offset="0" stop-color="#ffe9c4"/><stop offset="1" stop-color="#4fff21"/></radialGradient><radialGradient cx="242.42072" cy="54.28477" r="46.28024" gradientUnits="userSpaceOnUse" id="color-15"><stop offset="0" stop-color="#ffe9c4"/><stop offset="1" stop-color="#ffa321"/></radialGradient><radialGradient cx="242.42067" cy="54.28477" r="46.28024" gradientUnits="userSpaceOnUse" id="color-16"><stop offset="0" stop-color="#c4f0ff"/><stop offset="1" stop-color="#3d21ff"/></radialGradient><radialGradient cx="198.38051" cy="20.68728" r="50.24886" gradientUnits="userSpaceOnUse" id="color-17"><stop offset="0" stop-color="#1c2f30"/><stop offset="1" stop-color="#142913"/></radialGradient><radialGradient cx="281.31471" cy="11.06556" r="13.22632" gradientUnits="userSpaceOnUse" id="color-18"><stop offset="0" stop-color="#786c41"/><stop offset="1" stop-color="#141a29"/></radialGradient><radialGradient cx="225.01199" cy="17.62932" r="20.82216" gradientUnits="userSpaceOnUse" id="color-19"><stop offset="0" stop-color="#7ba676"/><stop offset="1" stop-color="#291616"/></radialGradient></defs><g transform="translate(4.23828,5.18992)"><g data-paper-data="{&quot;isPaintingLayer&quot;:true}" fill-rule="nonzero" stroke-linecap="butt" stroke-linejoin="miter" stroke-miterlimit="10" stroke-dasharray="" stroke-dashoffset="0" style="mix-blend-mode: normal"><path d="M-4.23828,360.81008v-366h488v366z" fill="url(#color-1)" stroke="none" stroke-width="0"/><path d="M413.50001,180.00008c0,97.7544 -77.6786,177 -173.5,177c-95.8214,0 -173.5,-79.2456 -173.5,-177c0,-97.7544 77.6786,-177 173.5,-177c95.8214,0 173.5,79.2456 173.5,177z" fill="url(#color-2)" stroke="none" stroke-width="0"/><path d="M160.25243,434.36547l0.87834,-232.97929l154.49348,0.58264l-0.87834,232.97929z" data-paper-data="{&quot;index&quot;:null}" fill="url(#color-3)" stroke="#ed6b00" stroke-width="0"/><path d="M322.39784,74.82675c0,0 -0.76971,11.27677 0.96714,29.67546c1.043,11.05069 6.05101,48.44128 6.08063,52.64349c0.15177,19.57267 -29.31306,22.24634 -28.42084,5.98149c0.2322,-4.46812 1.07709,-44.9936 1.2629,-49.34568c0.77323,-18.097 -3.50543,-33.09359 -3.50543,-33.09359z" data-paper-data="{&quot;index&quot;:null}" fill="#a3bda9" stroke="#000000" stroke-width="0"/><path d="M329.78486,172.01571c0.04582,13.97233 -0.27484,31.67798 -0.27484,31.67798c0,0 -1.43265,34.67865 -6.69639,35.35253c-30.78445,3.94277 -21.91349,-34.18557 -21.91349,-34.18557c0,0 -0.06528,-26.86162 -0.1146,-41.71723c0.66875,-8.96587 28.5243,-4.40983 28.9993,8.87226z" data-paper-data="{&quot;index&quot;:null}" fill="#a3bda9" stroke="#000000" stroke-width="0"/><g><path d="M228.48726,242.51191l-4.38035,-33.35423l37.2739,-4.89511l4.38035,33.35423z" fill="url(#color-4)" stroke="#000000" stroke-width="0"/><path d="M302.57782,144.27643c1.15825,37.94343 -26.06368,69.56234 -60.80191,70.62275c-34.73819,1.06041 -63.8381,-28.83915 -64.99636,-66.78266c-1.15825,-37.94348 26.06372,-69.56234 60.80196,-70.62275c34.73815,-1.06041 63.83806,28.83915 64.99631,66.78267z" fill="url(#color-5)" stroke="none" stroke-width="0"/><path d="M234.24022,154.93527c-2.50656,4.56413 -7.13506,2.1034 -7.13506,2.1034c-4.67209,-2.5948 -12.48175,-5.39491 -11.96181,-12.87968c0.42489,-6.11682 10.39255,-11.81263 15.78488,-10.83296c9.78211,1.7772 18.67383,18.83841 3.31207,21.60924z" data-paper-data="{&quot;index&quot;:null}" fill="url(#color-6)" stroke="none" stroke-width="0.5"/><path d="M257.0938,176.416c0.6539,-2.32212 2.30108,-2.87228 3.52687,-2.93738c0.38889,-0.03601 0.78833,-0.01594 1.18741,0.06639c-1.57584,-5.26582 -0.89405,-12.15203 -2.76053,-17.23739c0,0 -1.37318,-3.81193 2.43876,-5.18519c3.8119,-1.37313 5.18515,2.4388 5.18515,2.4388c2.25503,6.35973 4.01183,14.21829 4.0846,21.08007c0.02731,2.57134 1.45218,6.00343 -0.48065,7.6995c-2.00564,1.75997 -5.33394,-0.17113 -8.00098,-0.25671l-2.37873,-0.66982c-0.49303,-0.13881 -0.93874,-0.36294 -1.32595,-0.65208c-1.01167,-0.69505 -2.12977,-2.02393 -1.47587,-4.34605z" data-paper-data="{&quot;index&quot;:null}" fill="url(#color-7)" stroke="none" stroke-width="0.5"/><path d="M291.1509,132.11766c7.90861,2.00089 15.22634,20.50137 2.85304,23.36571c-1.98457,4.90829 -5.7402,2.21218 -5.7402,2.21218c-3.79187,-2.84138 -10.11739,-5.93054 -9.76022,-14.00987c0.29187,-6.60261 8.28781,-12.67099 12.64741,-11.56801z" data-paper-data="{&quot;index&quot;:null}" fill="url(#color-8)" stroke="none" stroke-width="0.5"/></g><path d="M324.37178,68.00227c2.25895,-0.30316 0.27971,23.90269 0.27971,23.90269c0,0 -7.71851,4.75909 -11.67101,5.37042c-4.05959,0.62731 -12.37467,-1.65233 -12.37467,-1.65233c0,0 -0.28384,-6.08692 -2.55836,-10.07925c-3.89269,-6.83378 -8.81391,-14.0982 -6.41053,-20.31516c1.30384,-3.37328 5.26804,10.44777 6.31913,8.97182c0.18689,-0.263 -0.17853,-23.18962 1.53622,-24.24442c2.80139,-1.72308 4.32677,21.69515 5.04072,18.14663c1.46655,-7.28426 -1.05761,-23.37114 1.26184,-24.25799c3.9066,-1.49392 2.96531,27.74637 4.06501,25.45948c2.05435,-4.27242 0.27208,-21.9508 2.27005,-22.83906c5.82128,-2.58803 2.78927,21.82883 4.3759,19.52476c2.99681,-4.35192 0.72123,-16.81114 2.95117,-16.93969c4.53336,-0.26129 3.84909,19.09289 4.91533,18.95014z" data-paper-data="{&quot;index&quot;:null}" fill="#6c7378" stroke="#000000" stroke-width="0"/><g><path d="M220.30519,153.99347l1.5905,-15.51349l40.5107,-3.81034l0.9095,15.0135c0,0 -9.19846,21.42621 -17.20967,22.97709c-7.03062,1.36105 -25.80103,-18.66676 -25.80103,-18.66676z" data-paper-data="{&quot;index&quot;:null}" fill="url(#color-9)" stroke="#000000" stroke-width="0"/><path d="M302.06579,68.40001c3.84689,38.3818 -21.51972,72.35178 -56.65919,75.8741c-35.13958,3.52247 -66.74471,-24.73648 -70.59174,-63.11896c-3.84691,-38.38182 21.51972,-72.35176 56.65943,-75.8741c35.13958,-3.52247 66.74471,24.73648 70.59175,63.11896z" data-paper-data="{&quot;index&quot;:null}" fill="url(#color-10)" stroke="none" stroke-width="0"/><g data-paper-data="{&quot;index&quot;:null}" stroke="#ed6b00" stroke-width="0"><path d="M260.86932,113.618c-50.38272,5.04201 -56.48536,-25.22017 -57.28332,-43.88724c-0.79759,-18.66691 28.39666,-35.66136 53.9191,-36.86558c25.52243,-1.20419 49.98078,15.98334 50.77852,34.65014c0,0 8.34751,41.08535 -47.41437,46.10229z" data-paper-data="{&quot;index&quot;:null}" fill="url(#color-11)"/><path d="M260.86938,113.61794c-40.14887,4.01783 -52.17924,-14.38294 -55.81386,-31.47002c5.81211,8.69326 15.55373,14.14313 26.31428,13.56008c16.72695,-0.90634 29.58166,-16.04741 28.71183,-33.81853c-0.5796,-11.84186 -7.10705,-21.86341 -16.34739,-26.9643c4.58022,-1.13287 9.2336,-1.84596 13.77087,-2.06004c7.77945,-0.36705 15.46007,0.97466 22.40191,3.54615c4.26084,10.63141 13.71367,18.24822 24.81579,19.45497c2.12816,3.70336 3.38965,7.6421 3.56086,11.64906c0,0 0.338,1.6636 0.4236,4.36217c-2.77921,-0.71528 -5.70078,-1.02186 -8.70156,-0.85924c-16.72694,0.90634 -29.58166,16.04741 -28.71183,33.81853c0.1196,2.44384 0.49257,4.81015 1.09036,7.07167c-3.49686,0.75155 -7.32493,1.33218 -11.51499,1.70915z" data-paper-data="{&quot;index&quot;:null}" fill="url(#color-12)"/><path d="M257.50514,32.86514c8.69201,-0.41009 17.26061,1.31292 24.81319,4.50107c-1.11952,3.46832 -1.69484,7.19492 -1.6228,11.05838c-5.90784,-7.52722 -14.95938,-12.11397 -24.87628,-11.57662c-16.72692,0.90634 -29.58168,16.04743 -28.71185,33.81853c0.58315,11.91396 7.18677,21.98536 16.51649,27.05692c-4.33652,3.84302 -7.63223,8.94081 -9.41481,14.73692c-5.27219,-1.25891 -9.6384,-3.15468 -13.25477,-5.49951c3.73988,-5.67328 5.7912,-12.66689 5.42623,-20.12355c-0.64622,-13.20273 -8.6859,-24.14276 -19.63573,-28.52325c8.15266,-13.69603 30.60177,-24.49773 50.76028,-25.44884z" data-paper-data="{&quot;index&quot;:null}" fill="url(#color-13)"/><path d="M276.81806,93.79237c6.83717,-6.05917 11.08717,-15.23742 10.89849,-25.35397c5.01097,6.38462 12.28377,10.65367 20.42789,11.47473c-1.42715,8.23768 -5.99479,18.82269 -19.088,26.02089c-2.93034,-5.17985 -7.18437,-9.39437 -12.23839,-12.14167z" data-paper-data="{&quot;index&quot;:null}" fill="url(#color-14)"/><path d="M253.53766,90.29129c0.07632,-0.48169 -1.40531,-2.6436 -1.77173,-3.32307c-4.47132,-8.29053 -7.92943,-17.27505 -13.29799,-24.94167c-0.50713,-0.72425 -3.53578,-0.07178 -4.93082,-0.09378c-8.54322,-0.13462 -17.13372,-1.45186 -25.6285,-0.4874c-1.0877,0.12351 -2.1756,0.57925 -3.25187,1.30515c2.32107,-6.68431 8.1836,-12.89243 15.86864,-17.90351c5.90038,7.7243 15.07159,12.45431 25.1337,11.90907c12.98854,-0.70379 23.64232,-9.99054 27.3484,-22.42692c11.74513,2.76701 22.12901,9.06676 28.54107,16.94545c-4.45832,-2.30728 -9.51179,-3.48403 -14.81252,-3.1968c-16.72694,0.90634 -29.58167,16.04741 -28.71183,33.81853c0.2158,4.40881 1.25604,8.56534 2.9538,12.30956c-4.23524,1.79378 -7.9841,4.5679 -11.01247,8.04671c1.84215,-4.66352 3.09204,-8.93022 3.57223,-11.96129z" data-paper-data="{&quot;index&quot;:null}" fill="url(#color-15)"/><path d="M260.86923,113.61803c-50.38272,5.04201 -56.48535,-25.22017 -57.28332,-43.88724c-0.03469,-0.81141 -0.01267,-1.6197 0.06322,-2.42368c0.44501,5.97197 2.77282,12.19071 5.06589,16.58081c0.237,0.45372 0.48514,0.90482 0.74418,1.35316c3.67675,12.98848 14.80893,22.39001 27.88206,22.91938c10.13811,4.2308 21.0787,5.82331 30.22919,3.33061c15.78099,-4.29896 30.01771,-7.13863 28.71183,-33.81853c-0.52907,-10.80932 -8.95318,-20.08124 -16.52148,-27.33472c-4.41177,-4.22824 -12.32357,-0.14178 -17.58169,-3.0802c-2.84105,-5.76892 -7.26919,-10.48686 -12.63747,-13.53372c2.66887,-0.44332 5.33556,-0.73474 7.96333,-0.85869c9.4446,-0.44563 18.74351,1.62732 26.75161,5.36172c0.00422,0.45801 0.01755,0.91802 0.04015,1.37973c0.73425,15.0016 11.01393,27.0819 24.26219,29.9376c0.19721,2.02879 0.33382,5.42247 -0.268,9.45933c-7.58749,5.10079 -12.84838,13.66535 -13.91435,23.49295c-7.15331,5.42213 -17.78061,9.70615 -33.50746,11.12109z" data-paper-data="{&quot;index&quot;:null}" fill="url(#color-16)"/></g><g data-paper-data="{&quot;index&quot;:null}"><path d="M211.76272,21.74982c-0.85095,0.0129 -3.04157,0.08058 -5.42243,0.30848c-2.67477,0.83525 -5.78525,1.65156 -8.19242,2.61989c-1.77493,4.3324 3.234,9.28695 -4.18879,12.06816c-12.66027,4.7421 -7.77104,-10.7915 -3.32042,-15.44787c6.7396,-5.026 16.10809,-4.97981 24.24545,-5.91215c11.20862,-1.28396 22.22206,-3.73576 33.19521,-3.57431c0.44319,-0.39799 1.02648,-0.64285 1.66833,-0.65203l2.93622,-0.04163c1.49908,-0.27512 3.12635,-0.557 4.83281,-0.81003c4.46346,-1.03204 9.76424,-1.34279 14.68745,-1.43148c2.43298,-0.289 4.69616,-0.33947 6.54082,-0.03148c1.37012,0.00248 2.64489,0.00408 3.78451,-0.01277l3.09507,-0.04436c1.40963,-0.02006 2.56853,1.1058 2.58902,2.51609c0.01772,1.2549 -0.87237,2.31088 -2.06189,2.54263l-1.6773,0.36116c0.67516,0.66097 1.27743,1.40398 1.79447,2.23604l1.20977,-0.50484l1.26003,3.02407c0.1355,0.30552 0.21345,0.6431 0.21884,0.99873c0.02006,1.40963 -1.1058,2.56854 -2.51608,2.58904c-0.42846,0.00628 -0.8351,-0.09349 -1.19201,-0.27523l-2.44743,-1.18034l0.03494,-0.07199l-0.23657,-0.03666c-1.71683,-1.2499 -3.48615,-2.22871 -5.27378,-2.93559c-2.7761,-0.31079 -5.68091,-0.83751 -8.64712,-1.30728c-5.11405,0.48544 -9.92222,3.2629 -13.59421,8.33155c0,0 -1.50232,2.06375 -3.56626,0.56174c-2.06376,-1.50232 -0.56174,-3.56627 -0.56174,-3.56627c0.32119,-0.43916 0.65055,-0.86572 0.98786,-1.27783l-1.44694,0.34319c-0.19362,0.04993 -0.39735,0.07846 -0.60635,0.0817c-1.40963,0.02006 -2.56853,-1.1058 -2.58902,-2.51609c-0.01028,-0.71363 0.2729,-1.36271 0.73843,-1.83282c-1.2199,-0.09025 -2.37635,-0.1108 -3.37422,0.05652c-6.96975,1.16914 -17.52283,0.93273 -27.55311,1.7029c-0.03511,1.20406 -0.90753,2.20473 -2.06143,2.42917l-3.04022,0.65381l-0.02113,-0.09839l-0.03796,0.00685z" fill="url(#color-17)" stroke="none" stroke-width="0.5"/><path d="M288.26721,8.88169c13.58507,-0.39154 13.4532,-0.19827 13.83178,8.98844c0.37879,9.18636 -5.15876,16.43105 -12.36753,16.18101c-7.20884,-0.25044 -13.35958,-7.90164 -13.73808,-17.08821c-0.37882,-9.18638 -0.46518,-7.71392 12.2741,-8.08146z" data-paper-data="{&quot;index&quot;:null}" fill="url(#color-18)" stroke="#000000" stroke-width="0"/><path d="M254.31954,19.72229c1.02766,10.04289 -7.32697,19.12438 -18.66069,20.28322c-11.33348,1.15982 -21.35429,-6.04162 -22.38151,-16.0842c-1.02767,-10.04291 -1.26996,-10.2375 20.24053,-11.48238c20.17106,-1.16768 19.77343,-2.75967 20.80136,7.28329z" fill="url(#color-19)" stroke="#000000" stroke-width="0"/></g></g><g data-paper-data="{&quot;index&quot;:null}" stroke-width="0"><path d="M294.72218,399.95813c0,0 -9.41683,2.60817 -16.34674,1.57997c-5.9661,-0.88459 -9.1066,-5.42662 -14.25718,-5.43791c-2.55107,-0.00579 -9.51747,2.51646 -13.12708,2.62171c-4.77536,0.13895 -13.44016,3.86856 -18.41287,3.1592c-6.2213,-0.88678 -8.81206,-6.26697 -15.41093,-6.17634c-14.53055,0.1995 -28.8,4.01986 -28.8,4.01986c0,0 1.11399,-29.81294 -0.1972,-53.79c-1.27161,-23.26373 -4.96149,-40.46454 -5.51716,-56.1754c-0.62782,-17.75666 -0.48394,-65.32681 -0.48394,-65.32681c0,0 21.72426,-2.12502 32.11946,0.2511c9.85177,2.2524 28.70899,13.65354 28.70899,13.65354c0,0 24.60665,-11.7285 36.30975,-14.01141c9.19337,-1.79373 28.21364,1.42453 28.21364,1.42453c0,0 -0.03925,44.90658 -1.81256,69.04977c-0.94465,12.86311 -6.55024,29.8405 -8.57149,48.70113c-2.97476,27.75704 -2.41381,56.45789 -2.41381,56.45789z" fill="#d1b0b0" stroke="#292e32"/><path d="M189.60611,278.45896l0.28277,-26.90828l39.44353,-1.46317l-0.94123,30.03037z" fill="#f200ff" stroke="none"/><path d="M228.79556,267.217c-5.70093,-4.93481 -13.09998,-7.9728 -21.22859,-8.11176c-1.96355,-0.03357 -3.8903,0.10339 -5.76618,0.39718c2.72632,-2.47342 5.04269,-5.39345 6.83222,-8.64713l20.69945,-0.76782z" fill="#eeff00" stroke="none"/><path d="M195.92791,278.72934c1.21163,-3.35948 1.89967,-6.97254 1.96412,-10.74253c0.10265,-6.00583 -1.38994,-11.66769 -4.08716,-16.5814l25.87009,-0.95964c-8.94377,6.68024 -14.50435,17.50653 -14.20686,28.69167z" fill="#00ff5f" stroke="none"/><path d="M195.64874,278.71736c-0.60408,-2.00222 -1.3918,-3.92601 -2.34383,-5.75142c4.8529,-1.47712 9.24257,-4.03358 12.88397,-7.39396c3.87495,6.54599 9.92914,11.66143 17.18158,14.33114l-27.72174,-1.18576z" fill="#004fff" stroke="none"/><path d="M220.83775,279.79474c1.71925,-3.92352 2.70575,-8.24577 2.78355,-12.79665c0.10243,-5.99217 -1.38316,-11.64197 -4.06879,-16.54786l9.78,-0.36276l-0.94123,30.03043z" fill="#ff0000" stroke="none"/><path d="M189.77486,262.4088c3.26643,4.14278 7.49704,7.49525 12.36035,9.71437c0.38161,2.41201 1.02256,4.73956 1.8939,6.95266l-14.42288,-0.61693l0.16865,-16.05015z" fill="#00efff" stroke="none"/><path d="M207.37068,250.90222c-9.65968,5.51866 -16.31304,15.73888 -16.79144,27.59837l-0.97301,-0.04163l0.28275,-26.90829z" fill="#9c00ff" stroke="none"/></g><path d="M193.98773,162.79864c0.24651,15.18943 0.86737,41.03099 0.86737,41.03099c0,0 11.57609,40.08176 -28.6445,39.15314c-6.42117,-0.14825 -7.33081,-37.68824 -7.33081,-37.68824c0,0 -0.77117,-18.06842 -1.00255,-32.35521c-0.08256,-16.1295 34.7678,-24.864 36.11051,-10.1407z" fill="#b8bda6" stroke="#000000" stroke-width="0"/><path d="M191.23081,83.66188c0,0 -4.53593,15.3588 -2.52149,33.79025c0.4844,4.43246 2.77594,41.33089 3.32458,45.88053c1.40562,17.43752 -34.55157,12.13741 -35.11307,-4.08842c-0.2032,-4.28399 3.9925,-39.60604 4.67391,-50.88707c1.13424,-18.78211 -0.48352,-30.26242 -0.48352,-30.26242z" data-paper-data="{&quot;index&quot;:null}" fill="#b8bda6" stroke="#000000" stroke-width="0"/><path d="M160.08179,78.75032c1.33618,0.22762 1.60511,-19.49956 7.30744,-18.88341c2.80476,0.30302 -0.79451,12.79218 2.73107,17.44765c1.86638,2.46478 -0.5284,-22.59008 6.66062,-19.50891c2.46779,1.05761 -0.81375,18.88994 1.52644,23.39174c1.25294,2.40964 1.77607,-27.38626 6.61553,-25.56545c2.87273,1.08122 -1.25091,17.23867 0.17183,24.7564c0.69359,3.66248 3.98661,-20.02425 7.41864,-18.05675c2.10056,1.20429 0.29796,24.48206 0.51869,24.76347c1.23994,1.58196 7.04714,-12.16117 8.49415,-8.63106c2.66701,6.50539 -3.963,13.5097 -9.27232,20.15478c-3.10278,3.8828 -3.81712,10.04825 -3.81712,10.04825c0,0 -10.6191,1.67427 -15.70195,0.72168c-4.94926,-0.92683 -14.40391,-6.36186 -14.40391,-6.36186c0,0 -1.07902,-24.75852 1.75063,-24.27598z" data-paper-data="{&quot;index&quot;:null}" fill="#786274" stroke="#000000" stroke-width="0"/></g></g></svg>