<svg version="1.1" xmlns="http://www.w3.org/2000/svg" xmlns:xlink="http://www.w3.org/1999/xlink" width="84.5" height="38.32609" viewBox="0,0,84.5,38.32609"><defs><linearGradient x1="240" y1="161.58694" x2="240" y2="198.41312" gradientUnits="userSpaceOnUse" id="color-1"><stop offset="0" stop-color="#2b4b31"/><stop offset="1" stop-color="#395a1b"/></linearGradient><linearGradient x1="240" y1="161.58694" x2="240" y2="198.41312" gradientUnits="userSpaceOnUse" id="color-2"><stop offset="0" stop-color="#12301b"/><stop offset="1" stop-color="#446d2c"/></linearGradient><radialGradient cx="263.45704" cy="180.24682" r="14.52611" gradientUnits="userSpaceOnUse" id="color-3"><stop offset="0" stop-color="#1b1b1b"/><stop offset="1" stop-color="#474747"/></radialGradient><linearGradient x1="263.45704" y1="165.45382" x2="263.45704" y2="195.03983" gradientUnits="userSpaceOnUse" id="color-4"><stop offset="0" stop-color="#1c1c1c"/><stop offset="1" stop-color="#050505"/></linearGradient><radialGradient cx="260.06542" cy="174.40481" r="11.36409" gradientUnits="userSpaceOnUse" id="color-5"><stop offset="0" stop-color="#705a8f"/><stop offset="1" stop-color="#483f57"/></radialGradient><linearGradient x1="252.04891" y1="177.22202" x2="274.68899" y2="177.22202" gradientUnits="userSpaceOnUse" id="color-6"><stop offset="0" stop-color="#272727"/><stop offset="1" stop-color="#101010"/></linearGradient><linearGradient x1="260.46154" y1="176.71188" x2="263.3104" y2="176.71188" gradientUnits="userSpaceOnUse" id="color-7"><stop offset="0" stop-color="#3e3844"/><stop offset="1" stop-color="#27242b"/></linearGradient><linearGradient x1="266.46014" y1="176.71135" x2="263.5074" y2="176.71135" gradientUnits="userSpaceOnUse" id="color-8"><stop offset="0" stop-color="#3e3844"/><stop offset="1" stop-color="#27242b"/></linearGradient><linearGradient x1="263.19138" y1="177.23236" x2="263.62209" y2="177.23236" gradientUnits="userSpaceOnUse" id="color-9"><stop offset="0" stop-color="#3e3844"/><stop offset="1" stop-color="#27242b"/></linearGradient><linearGradient x1="260.46154" y1="186.79245" x2="263.3104" y2="186.79245" gradientUnits="userSpaceOnUse" id="color-10"><stop offset="0" stop-color="#2a282c"/><stop offset="1" stop-color="#151515"/></linearGradient><linearGradient x1="263.5074" y1="186.72232" x2="266.35627" y2="186.72232" gradientUnits="userSpaceOnUse" id="color-11"><stop offset="0" stop-color="#2a282c"/><stop offset="1" stop-color="#151515"/></linearGradient><linearGradient x1="263.199" y1="186.98007" x2="263.61447" y2="186.98007" gradientUnits="userSpaceOnUse" id="color-12"><stop offset="0" stop-color="#2a282c"/><stop offset="1" stop-color="#151515"/></linearGradient><radialGradient cx="261.72857" cy="188.79702" r="4.20473" gradientUnits="userSpaceOnUse" id="color-13"><stop offset="0" stop-color="#989898"/><stop offset="1" stop-color="#717171"/></radialGradient><radialGradient cx="257.14146" cy="177.42617" r="12.10329" gradientUnits="userSpaceOnUse" id="color-14"><stop offset="0" stop-color="#aa91c7"/><stop offset="1" stop-color="#827c94"/></radialGradient><linearGradient x1="251.39171" y1="178.30983" x2="275.52237" y2="178.30983" gradientUnits="userSpaceOnUse" id="color-15"><stop offset="0" stop-color="#272727"/><stop offset="1" stop-color="#101010"/></linearGradient><radialGradient cx="263.4124" cy="171.265" r="0.88506" gradientUnits="userSpaceOnUse" id="color-16"><stop offset="0" stop-color="#ffffff"/><stop offset="1" stop-color="#8000ff"/></radialGradient><linearGradient x1="264.27061" y1="171.265" x2="262.55416" y2="171.265" gradientUnits="userSpaceOnUse" id="color-17"><stop offset="0" stop-color="#f7f0ff"/><stop offset="1" stop-color="#e1cdff"/></linearGradient></defs><g transform="translate(-197.75,-160.83703)"><g data-paper-data="{&quot;isPaintingLayer&quot;:true}" fill-rule="nonzero" stroke-linejoin="miter" stroke-miterlimit="10" stroke-dasharray="" stroke-dashoffset="0" style="mix-blend-mode: normal"><path d="M198.5,198.41312v-36.82609h83v36.82609z" fill="url(#color-1)" stroke="url(#color-2)" stroke-width="1.5" stroke-linecap="butt"/><path d="M249.20575,195.03983v-29.58601h28.50259v29.58601z" fill="url(#color-3)" stroke="url(#color-4)" stroke-width="2.5" stroke-linecap="butt"/><path d="M252.13699,176.31649l-0.0881,-4.22582c0,0 7.43891,1.20738 11.27601,1.20738c3.70498,0 11.45218,-1.10676 11.45218,-1.10676v3.92398c0,0 -1.19945,8.22071 -11.18449,7.94579c-10.07231,-0.27732 -11.4556,-7.74456 -11.4556,-7.74456z" fill="url(#color-5)" stroke="url(#color-6)" stroke-width="0.5" stroke-linecap="butt"/><path d="M260.46154,182.03398l2.84887,-10.64422" fill="none" stroke="url(#color-7)" stroke-width="0.5" stroke-linecap="round"/><path d="M266.46013,182.22748l-2.95273,-11.03228" data-paper-data="{&quot;index&quot;:null}" fill="none" stroke="url(#color-8)" stroke-width="0.5" stroke-linecap="round"/><path d="M263.40673,182.09292v-9.72115" fill="none" stroke="url(#color-9)" stroke-width="0.5" stroke-linecap="round"/><path d="M260.46154,188.71088l2.84887,-3.83685" fill="none" stroke="url(#color-10)" stroke-width="0.5" stroke-linecap="round"/><path d="M266.35627,188.64074l-2.84887,-3.83685" data-paper-data="{&quot;index&quot;:null}" fill="none" stroke="url(#color-11)" stroke-width="0.5" stroke-linecap="round"/><path d="M263.40673,188.73213v-3.50412" fill="none" stroke="url(#color-12)" stroke-width="0.5" stroke-linecap="round"/><path d="M259.25233,190.08688v-1.75449h8.40945v1.75449z" fill="url(#color-13)" stroke="#000000" stroke-width="0.5" stroke-linecap="butt"/><path d="M275.52237,171.62735c0,0 -0.07037,2.78968 -0.19511,3.9466c-0.12673,1.17539 -0.55943,3.05123 -0.55943,3.05123c0,0 -0.15196,4.99585 -7.94136,5.89391c-0.45832,0.05284 -1.77144,0.50157 -3.3285,0.49668c-1.39959,-0.00439 -3.04867,-0.45509 -3.56171,-0.53469c-7.52742,-1.16783 -7.71534,-5.85591 -7.71534,-5.85591c0,0 -0.5843,-1.5917 -0.71798,-2.62526c-0.16241,-1.25558 -0.0991,-4.37257 -0.0991,-4.37257c0,0 0.55097,-0.57253 1.0032,0.36644c0.18125,0.37633 0.89805,6.87911 2.41882,8.28382c1.08489,1.00211 5.13738,2.09403 8.5754,2.11548c3.43801,0.02146 7.79064,-1.28706 8.71428,-2.00761c2.11234,-1.64782 2.37728,-7.88294 2.53807,-8.2387c0.36169,-0.80021 0.86875,-0.51947 0.86875,-0.51947z" data-paper-data="{&quot;index&quot;:null}" fill="url(#color-14)" stroke="url(#color-15)" stroke-width="0.5" stroke-linecap="butt"/><path d="M263.4124,170.40677c0.47398,0 0.85823,0.38424 0.85823,0.85823c0,0.47398 -0.38424,0.85823 -0.85823,0.85823c-0.47398,0 -0.85823,-0.38424 -0.85823,-0.85823c0,-0.47398 0.38424,-0.85823 0.85823,-0.85823z" data-paper-data="{&quot;index&quot;:null}" fill="url(#color-16)" stroke="url(#color-17)" stroke-width="0.25" stroke-linecap="butt"/><text transform="translate(201.08,170.56883) scale(0.21667,0.21667)" font-size="40" xml:space="preserve" fill="#ff0000" fill-rule="nonzero" stroke="none" stroke-width="1" stroke-linecap="butt" stroke-linejoin="miter" stroke-miterlimit="10" stroke-dasharray="" stroke-dashoffset="0" font-family="Serif" font-weight="normal" text-anchor="start" style="mix-blend-mode: normal"><tspan x="0" dy="0">Locator Relay</tspan></text><text transform="translate(200.3,195.63118) scale(0.12749,0.12749)" font-size="40" xml:space="preserve" fill="#ff0000" fill-rule="nonzero" stroke="none" stroke-width="1" stroke-linecap="butt" stroke-linejoin="miter" stroke-miterlimit="10" stroke-dasharray="" stroke-dashoffset="0" font-family="Serif" font-weight="normal" text-anchor="start" style="mix-blend-mode: normal"><tspan x="0" dy="0">150k R</tspan></text></g></g></svg>