<svg version="1.1" xmlns="http://www.w3.org/2000/svg" xmlns:xlink="http://www.w3.org/1999/xlink" width="131.81846" height="213.49854" viewBox="0,0,131.81846,213.49854"><defs><radialGradient cx="222.01297" cy="-18.87716" r="60.26823" gradientUnits="userSpaceOnUse" id="color-1"><stop offset="0" stop-color="#87859e"/><stop offset="1" stop-color="#595761"/></radialGradient><linearGradient x1="179.49818" y1="-5.79569" x2="299.56743" y2="-5.79569" gradientUnits="userSpaceOnUse" id="color-2"><stop offset="0" stop-color="#272727"/><stop offset="1" stop-color="#101010"/></linearGradient><linearGradient x1="226.09066" y1="-6.29845" x2="239.31913" y2="-6.29845" gradientUnits="userSpaceOnUse" id="color-3"><stop offset="0" stop-color="#272727"/><stop offset="1" stop-color="#101010"/></linearGradient><linearGradient x1="253.46233" y1="-7.1115" x2="240.23386" y2="-7.1115" gradientUnits="userSpaceOnUse" id="color-4"><stop offset="0" stop-color="#101010"/><stop offset="1" stop-color="#272727"/></linearGradient><linearGradient x1="226.09066" y1="33.09265" x2="239.31912" y2="33.09265" gradientUnits="userSpaceOnUse" id="color-5"><stop offset="0" stop-color="#272727"/><stop offset="1" stop-color="#101010"/></linearGradient><linearGradient x1="253.46233" y1="32.84018" x2="240.23386" y2="32.84018" gradientUnits="userSpaceOnUse" id="color-6"><stop offset="0" stop-color="#101010"/><stop offset="1" stop-color="#272727"/></linearGradient><linearGradient x1="238.7664" y1="-4.12354" x2="240.7664" y2="-4.12354" gradientUnits="userSpaceOnUse" id="color-7"><stop offset="0" stop-color="#272727"/><stop offset="1" stop-color="#101010"/></linearGradient><linearGradient x1="238.7664" y1="33.76803" x2="240.7664" y2="33.76803" gradientUnits="userSpaceOnUse" id="color-8"><stop offset="0" stop-color="#272727"/><stop offset="1" stop-color="#101010"/></linearGradient><radialGradient cx="206.50603" cy="-4.84767" r="64.18856" gradientUnits="userSpaceOnUse" id="color-9"><stop offset="0" stop-color="#a9a7c7"/><stop offset="1" stop-color="#878593"/></radialGradient><linearGradient x1="176.01281" y1="-0.74453" x2="303.98719" y2="-0.74453" gradientUnits="userSpaceOnUse" id="color-10"><stop offset="0" stop-color="#272727"/><stop offset="1" stop-color="#101010"/></linearGradient><radialGradient cx="240.09897" cy="-26.68078" r="4.10963" gradientUnits="userSpaceOnUse" id="color-11"><stop offset="0" stop-color="#c4c4c4"/><stop offset="1" stop-color="#a4a4a4"/></radialGradient><linearGradient x1="236.11388" y1="-26.68078" x2="244.08406" y2="-26.68078" gradientUnits="userSpaceOnUse" id="color-12"><stop offset="0" stop-color="#272727"/><stop offset="1" stop-color="#101010"/></linearGradient><radialGradient cx="217.55085" cy="37.59674" r="54.61033" gradientUnits="userSpaceOnUse" id="color-13"><stop offset="0" stop-color="#989898"/><stop offset="1" stop-color="#717171"/></radialGradient><radialGradient cx="210.22702" cy="108.35026" r="62.41181" gradientUnits="userSpaceOnUse" id="color-14"><stop offset="0" stop-color="#fff831"/><stop offset="1" stop-color="#d5a500"/></radialGradient><radialGradient cx="209.5886" cy="143.89454" r="58.63359" gradientUnits="userSpaceOnUse" id="color-15"><stop offset="0" stop-color="#989898"/><stop offset="1" stop-color="#717171"/></radialGradient><radialGradient cx="206.70741" cy="172.3098" r="64.18856" gradientUnits="userSpaceOnUse" id="color-16"><stop offset="0" stop-color="#c4c4c4"/><stop offset="1" stop-color="#a4a4a4"/></radialGradient><radialGradient cx="217.71007" cy="132.27714" r="54.76955" gradientUnits="userSpaceOnUse" id="color-17"><stop offset="0" stop-color="#555555"/><stop offset="1" stop-color="#4b4b4b"/></radialGradient><radialGradient cx="217.55085" cy="71.25698" r="54.61033" gradientUnits="userSpaceOnUse" id="color-18"><stop offset="0" stop-color="#989898"/><stop offset="1" stop-color="#717171"/></radialGradient><radialGradient cx="240" cy="106.44323" r="37.57446" gradientUnits="userSpaceOnUse" id="color-19"><stop offset="0" stop-color="#191919"/><stop offset="1" stop-color="#0f0f0f"/></radialGradient><radialGradient cx="217.71007" cy="45.34641" r="54.76955" gradientUnits="userSpaceOnUse" id="color-20"><stop offset="0" stop-color="#555555"/><stop offset="1" stop-color="#4b4b4b"/></radialGradient><radialGradient cx="240" cy="152.48787" r="37.57446" gradientUnits="userSpaceOnUse" id="color-21"><stop offset="0" stop-color="#626262"/><stop offset="1" stop-color="#515151"/></radialGradient><radialGradient cx="240" cy="159.74801" r="37.57446" gradientUnits="userSpaceOnUse" id="color-22"><stop offset="0" stop-color="#626262"/><stop offset="1" stop-color="#515151"/></radialGradient><radialGradient cx="221.37199" cy="45.30376" r="38.37052" gradientUnits="userSpaceOnUse" id="color-23"><stop offset="0" stop-color="#191919"/><stop offset="1" stop-color="#000000"/></radialGradient><linearGradient x1="240" y1="40.52872" x2="240" y2="61.54494" gradientUnits="userSpaceOnUse" id="color-24"><stop offset="0" stop-color="#262626"/><stop offset="1" stop-color="#050505"/></linearGradient></defs><g transform="translate(-174.01358,33.5766)"><g data-paper-data="{&quot;isPaintingLayer&quot;:true}" fill-rule="nonzero" stroke-linejoin="miter" stroke-miterlimit="10" stroke-dasharray="" stroke-dashoffset="0" style="mix-blend-mode: normal"><path d="M179.96537,-10.00045l-0.4672,-19.62221c0,0 39.45147,5.60635 59.80103,5.60635c19.64898,0 60.73542,-5.13915 60.73542,-5.13915v18.22063c0,0 -6.36112,38.17215 -59.31576,36.89558c-53.41739,-1.28772 -60.7535,-35.96119 -60.7535,-35.96119z" fill="url(#color-1)" stroke="url(#color-2)" stroke-width="2" stroke-linecap="butt"/><path d="M226.09066,15.94124l13.22847,-44.47939" fill="none" stroke="url(#color-3)" stroke-width="4" stroke-linecap="round"/><path d="M240.23387,-29.3512l13.22846,44.47939" data-paper-data="{&quot;index&quot;:null}" fill="none" stroke="url(#color-4)" stroke-width="4" stroke-linecap="round"/><path d="M239.31912,26.18662l-13.22846,13.81207" fill="none" stroke="url(#color-5)" stroke-width="2" stroke-linecap="round"/><path d="M240.23387,25.93414l13.22846,13.81207" data-paper-data="{&quot;index&quot;:null}" fill="none" stroke="url(#color-6)" stroke-width="2" stroke-linecap="round"/><path d="M239.7664,-24.43459v40.62211" fill="none" stroke="url(#color-7)" stroke-width="4" stroke-linecap="round"/><path d="M239.7664,40.07517v-12.61428" fill="none" stroke="url(#color-8)" stroke-width="2" stroke-linecap="round"/><path d="M303.98719,-31.77401c0,0 -0.37315,12.95361 -1.03472,18.3257c-0.67212,5.45782 -2.96685,14.16813 -2.96685,14.16813c0,0 -0.80594,23.19783 -42.11607,27.36787c-4.61547,0.4659 -18.16537,2.99984 -18.16537,2.99984c0,0 -12.62825,-2.39552 -18.37616,-3.1763c-39.92087,-5.42276 -40.91749,-27.19141 -40.91749,-27.19141c0,0 -3.09873,-7.39096 -3.80773,-12.19015c-0.86132,-5.83019 -0.52554,-20.30369 -0.52554,-20.30369c0,0 2.92206,-2.65851 5.32036,1.70153c0.96123,1.7475 0.26975,9.32819 1.6819,11.43053c4.00069,5.95604 6.4568,20.512 14.52197,27.03474c5.75358,4.65324 15.96773,1.77676 24.32424,4.43622c5.23506,1.66606 17.77845,5.38689 17.77845,5.38689c0,0 12.65511,-3.50346 18.25525,-5.36113c6.36495,-2.11137 19.44444,-0.37411 24.34294,-3.71984c11.20263,-7.65152 11.23845,-22.1248 15.71251,-29.14479c1.31121,-2.05735 0.51223,-7.70015 1.36502,-9.35204c1.91826,-3.71575 4.60729,-2.41212 4.60729,-2.41212z" data-paper-data="{&quot;index&quot;:null}" fill="url(#color-9)" stroke="url(#color-10)" stroke-width="2" stroke-linecap="butt"/><path d="M244.08406,-26.68078c0,2.20091 -1.78419,3.98509 -3.98509,3.98509c-2.20091,0 -3.98509,-1.78419 -3.98509,-3.98509c0,-2.20091 1.78419,-3.98509 3.98509,-3.98509c2.20091,0 3.98509,1.78419 3.98509,3.98509z" fill="url(#color-11)" stroke="url(#color-12)" stroke-width="3" stroke-linecap="butt"/><path d="M185.38967,43.58614v-8.14687h109.22066v8.14687z" fill="url(#color-13)" stroke="#000000" stroke-width="2" stroke-linecap="butt"/><path d="M177.58819,173.79066v-92.66243h124.82362v92.66243z" fill="url(#color-14)" stroke="#000000" stroke-width="2" stroke-linecap="butt"/><path d="M181.36641,178.92194l4.38503,-42.26993h109.22687l3.65527,42.26993z" fill="url(#color-15)" stroke="#000000" stroke-width="2" stroke-linecap="butt"/><path d="M175.81144,178.71739l4.80047,-7.73247h119.57509l4.00157,7.73247z" fill="url(#color-16)" stroke="#000000" stroke-width="2" stroke-linecap="butt"/><path d="M185.23045,136.53463v-6.05012h109.53909v6.05012z" fill="url(#color-17)" stroke="#000000" stroke-width="2" stroke-linecap="butt"/><path d="M185.38967,130.48451v-80.56218h109.22066v80.56218z" fill="url(#color-18)" stroke="#000000" stroke-width="2" stroke-linecap="butt"/><path d="M206.40589,145.92825v-78.97004h67.18822v78.97004z" fill="url(#color-19)" stroke="#000000" stroke-width="2" stroke-linecap="butt"/><path d="M185.23046,49.6039v-6.05013h109.53909v6.05013z" fill="url(#color-20)" stroke="#000000" stroke-width="2" stroke-linecap="butt"/><path d="M206.40589,154.58948v-4.20324h67.18822v4.20324z" fill="url(#color-21)" stroke="#000000" stroke-width="1" stroke-linecap="butt"/><path d="M206.40589,161.84963v-4.20324h67.18822v4.20324z" fill="url(#color-22)" stroke="#000000" stroke-width="1" stroke-linecap="butt"/><path d="M201.62948,61.54494v-21.01622h76.74105v21.01622z" fill="url(#color-23)" stroke="url(#color-24)" stroke-width="2" stroke-linecap="butt"/><text transform="translate(216.44445,49.97203) scale(0.20269,0.20269)" font-size="40" xml:space="preserve" fill="#ff0000" fill-rule="nonzero" stroke="none" stroke-width="1" stroke-linecap="butt" stroke-linejoin="miter" stroke-miterlimit="10" stroke-dasharray="" stroke-dashoffset="0" font-family="Pixel" font-weight="normal" text-anchor="start" style="mix-blend-mode: normal"><tspan x="0" dy="0">Waiting for</tspan><tspan x="0" dy="46.15px">harvester.</tspan></text></g></g></svg>