<svg version="1.1" xmlns="http://www.w3.org/2000/svg" xmlns:xlink="http://www.w3.org/1999/xlink" width="137.24668" height="191.78091" viewBox="0,0,137.24668,191.78091"><defs><linearGradient x1="309.71004" y1="60.88091" x2="280.98211" y2="128.03692" gradientUnits="userSpaceOnUse" id="color-1"><stop offset="0" stop-color="#4a4a4a" stop-opacity="0"/><stop offset="1" stop-color="#4a4a4a" stop-opacity="0.6549"/></linearGradient><linearGradient x1="316.84407" y1="60.63527" x2="280.50232" y2="130.77995" gradientUnits="userSpaceOnUse" id="color-2"><stop offset="0" stop-color="#292929" stop-opacity="0"/><stop offset="1" stop-color="#292929" stop-opacity="0.58824"/></linearGradient><linearGradient x1="319.34767" y1="67.87762" x2="279.35066" y2="128.99607" gradientUnits="userSpaceOnUse" id="color-3"><stop offset="0" stop-color="#383838" stop-opacity="0"/><stop offset="1" stop-color="#383838" stop-opacity="0.76078"/></linearGradient><linearGradient x1="311.6676" y1="67.42542" x2="281.29715" y2="127.5934" gradientUnits="userSpaceOnUse" id="color-4"><stop offset="0" stop-color="#4b4b4b" stop-opacity="0"/><stop offset="1" stop-color="#4b4b4b" stop-opacity="0.75294"/></linearGradient><linearGradient x1="234.5053" y1="147.8915" x2="291.71803" y2="177.11565" gradientUnits="userSpaceOnUse" id="color-5"><stop offset="0" stop-color="#8f8f8f"/><stop offset="1" stop-color="#302e2d"/></linearGradient><linearGradient x1="262.48442" y1="120.95066" x2="296.37543" y2="138.26212" gradientUnits="userSpaceOnUse" id="color-6"><stop offset="0" stop-color="#ffe83c"/><stop offset="1" stop-color="#a77c00"/></linearGradient><linearGradient x1="281.07749" y1="126.38092" x2="277.78236" y2="132.83186" gradientUnits="userSpaceOnUse" id="color-7"><stop offset="0" stop-color="#348317"/><stop offset="1" stop-color="#3c5b0d"/></linearGradient><linearGradient x1="256.60918" y1="132.02358" x2="290.50019" y2="149.33504" gradientUnits="userSpaceOnUse" id="color-8"><stop offset="0" stop-color="#ffe83c"/><stop offset="1" stop-color="#a77c00"/></linearGradient><linearGradient x1="275.20225" y1="137.45383" x2="271.90713" y2="143.90477" gradientUnits="userSpaceOnUse" id="color-9"><stop offset="0" stop-color="#348317"/><stop offset="1" stop-color="#3c5b0d"/></linearGradient><radialGradient cx="231.55571" cy="201.68744" r="27.13216" gradientUnits="userSpaceOnUse" id="color-10"><stop offset="0" stop-color="#93bde8"/><stop offset="1" stop-color="#52607f"/></radialGradient><linearGradient x1="242.27348" y1="190.72123" x2="242.27348" y2="244.98073" gradientUnits="userSpaceOnUse" id="color-11"><stop offset="0" stop-color="#348317"/><stop offset="1" stop-color="#3c5b0d"/></linearGradient><radialGradient cx="261.28017" cy="202.84645" r="27.13216" gradientUnits="userSpaceOnUse" id="color-12"><stop offset="0" stop-color="#93bde8"/><stop offset="1" stop-color="#52607f"/></radialGradient><linearGradient x1="272.02022" y1="190.82574" x2="272.02022" y2="245.08524" gradientUnits="userSpaceOnUse" id="color-13"><stop offset="0" stop-color="#348317"/><stop offset="1" stop-color="#3c5b0d"/></linearGradient><linearGradient x1="242.55649" y1="179.70993" x2="242.55649" y2="191.78861" gradientUnits="userSpaceOnUse" id="color-14"><stop offset="0" stop-color="#348317"/><stop offset="1" stop-color="#3c5b0d"/></linearGradient><linearGradient x1="271.36134" y1="179.98948" x2="271.36134" y2="192.06815" gradientUnits="userSpaceOnUse" id="color-15"><stop offset="0" stop-color="#348317"/><stop offset="1" stop-color="#3c5b0d"/></linearGradient><linearGradient x1="186.22599" y1="206.50508" x2="232.84012" y2="206.50508" gradientUnits="userSpaceOnUse" id="color-16"><stop offset="0" stop-color="#3f3f3f"/><stop offset="1" stop-color="#313131"/></linearGradient><linearGradient x1="209.53306" y1="168.71137" x2="209.53306" y2="244.29878" gradientUnits="userSpaceOnUse" id="color-17"><stop offset="0" stop-color="#348317"/><stop offset="1" stop-color="#3c5b0d"/></linearGradient><linearGradient x1="180.476" y1="206.5356" x2="237.59012" y2="206.5356" gradientUnits="userSpaceOnUse" id="color-18"><stop offset="0" stop-color="#4a4a4a"/><stop offset="1" stop-color="#373737"/></linearGradient><linearGradient x1="209.03307" y1="190.78038" x2="209.03307" y2="222.29081" gradientUnits="userSpaceOnUse" id="color-19"><stop offset="0" stop-color="#348317"/><stop offset="1" stop-color="#3c5b0d"/></linearGradient><linearGradient x1="188.833" y1="179.78592" x2="229.44712" y2="179.78592" gradientUnits="userSpaceOnUse" id="color-20"><stop offset="0" stop-color="#ff4489"/><stop offset="1" stop-color="#ff0053"/></linearGradient><linearGradient x1="209.14006" y1="172.35337" x2="209.14006" y2="187.21847" gradientUnits="userSpaceOnUse" id="color-21"><stop offset="0" stop-color="#348317"/><stop offset="1" stop-color="#3c5b0d"/></linearGradient><linearGradient x1="183.226" y1="206.6296" x2="233.59012" y2="206.6296" gradientUnits="userSpaceOnUse" id="color-22"><stop offset="0" stop-color="#ff4489"/><stop offset="1" stop-color="#ff0053"/></linearGradient><linearGradient x1="208.40807" y1="199.19704" x2="208.40807" y2="214.06215" gradientUnits="userSpaceOnUse" id="color-23"><stop offset="0" stop-color="#348317"/><stop offset="1" stop-color="#3c5b0d"/></linearGradient><linearGradient x1="188.833" y1="233.23383" x2="229.44712" y2="233.23383" gradientUnits="userSpaceOnUse" id="color-24"><stop offset="0" stop-color="#ff4489"/><stop offset="1" stop-color="#ff0053"/></linearGradient><linearGradient x1="209.14006" y1="225.80128" x2="209.14006" y2="240.66638" gradientUnits="userSpaceOnUse" id="color-25"><stop offset="0" stop-color="#348317"/><stop offset="1" stop-color="#3c5b0d"/></linearGradient></defs><g transform="translate(-180.476,-53.30635)"><g data-paper-data="{&quot;isPaintingLayer&quot;:true}" fill-rule="nonzero" stroke-linecap="butt" stroke-linejoin="miter" stroke-miterlimit="10" stroke-dasharray="" stroke-dashoffset="0" style="mix-blend-mode: normal"><path d="M263.85929,115.78672l-0.02117,-0.028l0.01081,-0.06735c-0.03214,-0.36684 0.02314,-0.74666 0.1781,-1.10888l0.30303,-0.7084l0.17203,-0.22667l0.11191,-0.26162l0.21209,-0.27944l0.67197,-1.57086l0.23999,-0.89372l0.08082,-0.14542l0.02639,-0.16426l0.00809,-0.0189l0.00432,-0.0707l-0.04995,-0.30467l0.02661,-0.32193l-0.09256,-1.55585l0.0307,-0.16353l-0.02692,-0.16417l0.05479,-0.6628l-0.04497,-0.24191l0.01888,-0.30816l-0.04995,-0.30467l0.12043,-1.45695l0.11951,-0.35183l0.05892,-0.36687l0.0699,-0.16342l0.05563,-0.34637l0.11192,-0.26161l0.04513,-0.28096l0.0343,-0.08017l0.00925,-0.11182l0.11949,-0.35183l0.05892,-0.36687l1.15153,-2.69191l0.17203,-0.22667l0.11192,-0.26162l0.21208,-0.27945l0.25172,-0.58845l0.17202,-0.22668l0.11192,-0.26162l0.35085,-0.46229l0.41359,-0.60244l0.1094,-0.09677l0.06758,-0.12949l0.55148,-0.62124l0.36326,-0.52915l0.1094,-0.09677l0.06758,-0.12949l0.5266,-0.59323l0.40755,-0.63671l0.25112,-0.23699l0.20145,-0.28045l0.62477,-0.52937l0.57211,-0.70384l0.17315,-0.12981l0.12625,-0.17577l2.24072,-1.89856l1.18496,-1.33487l0.21012,-0.1437l0.16392,-0.19474l0.578,-0.41805l0.45553,-0.45613l0.16043,-0.0964l0.12053,-0.1432l0.72808,-0.52658l0.11264,-0.04514l0.08727,-0.0843l0.40264,-0.23217l0.95676,-0.95805l0.08407,-0.05051l0.05722,-0.07966l2.7665,-2.34408l0.7524,-0.84759l0.85945,-1.30023l0.14563,-0.13345l0.09609,-0.17259l1.02826,-1.09717l0.66589,-1.23387l0.08467,-0.09277l0.04385,-0.11769l0.86834,-1.26486l0.93545,-1.46145l0.84121,-1.61192l2.0966,-4.90112l0.32175,-1.06436l0.17074,-1.06312l0.13605,-1.07476l0.01434,-0.03685l-0.00338,-0.03939l0.07586,-0.47244l0.01596,-0.67278l0.01845,-0.06701l-0.01124,-0.06859l0.05478,-0.66281l-0.04496,-0.24193l0.01008,-0.16447l-0.03102,-0.02129l-0.04804,-0.29309l-0.13131,-0.2664l0.06039,-0.16611l-0.07378,-0.45l0.0053,-0.06419l-0.00052,-0.00382l-0.09571,-0.20939l-0.10154,-0.54626l0.01889,-0.30816l-0.03049,-0.18594l-0.14557,-0.36322l-0.05045,-0.36813l-0.11138,-0.35449l-0.02046,-0.34396l0.01692,-0.09012l-0.18237,-0.36999l0.0394,-0.10837l-0.05657,-0.18005l-0.02047,-0.34397l0.21979,-1.17086l0.5319,-0.3474l0.28189,-0.56934l1.13654,-0.35707l0.19342,-0.0115l0.02071,-0.01565l0.06556,0.01052l0.06429,-0.00382l0.52199,0.09798l0.5244,0.08422l0.05922,0.02532l0.06524,0.01225l0.01419,0.02174l3.56898,1.52673l1.17862,0.35629l1.01749,0.2732l0.14542,0.08085l0.16428,0.02637l0.73013,0.31233l0.34636,0.05564l0.26162,0.11191l0.28096,0.04513l0.28336,0.12121l0.22666,0.17203l0.26162,0.11191l0.50611,0.3841l0.15939,0.19849l0.20675,0.1485l0.24848,0.29325l0.16427,0.02281l0.17405,0.24066l0.23658,0.17956l0.02026,0.17559l0.26622,0.36809l0.13927,0.12364l0.17429,0.25484l0.22648,0.20983l0.30382,0.46518l0.07538,0.21753l0.13493,0.18654l0.077,0.19212l0.17866,0.27355l0.07538,0.21753l0.13493,0.18654l0.16215,0.40457l0.03126,0.22809l0.09571,0.20939l0.01705,0.09174l0.05104,0.07813l0.07538,0.21753l0.13492,0.18654l0.16214,0.40458l0.03126,0.2281l0.09572,0.20938l0.19135,1.02942l0.53262,2.18329l-0.00174,0.30503l0.06695,0.29761l-0.01242,0.52397l0.11016,0.45154l-0.00174,0.30503l0.06694,0.29761l-0.01739,0.73349l0.02995,0.50334l0.10993,0.80227l-0.02764,0.25305l0.04119,0.25121l-0.02661,0.32193l0.03117,0.52395l-0.04697,0.25019l0.02179,0.25363l-0.48967,3.04898l-0.03283,0.39717l-0.02915,0.08582l0.00776,0.0903l-0.18742,1.16701l-0.03283,0.39718l-0.11951,0.35182l-0.05892,0.36687l-0.13052,0.30507l-0.05563,0.34637l-0.02216,0.05181l0.00216,0.05632l-0.16136,0.76902l-0.01671,0.03442l0.00023,0.03827l-0.1628,0.66792l-0.01376,0.57982l-0.05677,0.20616l0.00816,0.2137l-0.16136,0.76901l-0.0167,0.03443l0.00022,0.03827l-0.17901,0.73448l-0.06535,0.79054l-0.05896,0.17361l0.00109,0.18334l-0.17902,0.73447l-0.06535,0.79054l-0.04698,0.1383l0.00557,0.14595l-0.1318,0.62817l-0.06843,0.82788l-0.02914,0.08581l0.00776,0.09031l-0.07587,0.47243l-0.00871,0.36715l0.39712,1.62782l0.21994,0.3814l0.08049,0.28191l0.14453,0.25507l0.22946,0.82747l1.18841,2.96527l0.30283,0.52516l0.09021,0.31601l0.15299,0.29086l0.14369,0.58895l0.34425,0.85896l0.03127,0.22809l0.09571,0.20939l0.02919,0.15699l0.18709,0.32447l0.10743,0.37633l0.16271,0.35594l0.20306,1.09251l-0.00893,0.14579l0.04378,0.13934l0.02856,0.47988l0.13322,0.54606l-0.00119,0.21009l0.06297,0.20044l0.04092,0.68793l-0.01809,0.0964l0.02153,0.09569l-0.01739,0.73348l0.07614,1.27989l-0.01809,0.0964l0.02153,0.0957l-0.01739,0.73349l0.03522,0.59196l-0.01809,0.0964l0.02153,0.09569l-0.01967,0.82961l-0.04221,0.1533l0.01361,0.15842l-0.04621,0.28772l0.0753,0.54944l-0.02764,0.25306l0.0412,0.2512l-0.08029,0.97129l-0.05896,0.1736l0.00109,0.18334l-0.15604,0.64019l0.0006,0.89517l-0.0786,0.31529l-0.01133,0.32475l-0.29393,1.0227l-0.1185,0.93611l-0.058,0.14913l-0.00277,0.16l-0.55818,2.07877l-0.2156,0.88457l-0.08991,0.171l-0.03063,0.19076l-1.33336,3.11695l-0.13919,0.1834l-0.08038,0.21574l-0.44472,0.64779l-0.1094,0.09677l-0.06758,0.1295l-0.39798,0.44834l-0.15551,0.36353l-0.05621,0.07407l0.00465,0.07818l-0.35386,0.38195l-0.31477,0.41475l-0.0778,0.00899l-0.06321,0.06821l-0.12996,0.08488l-0.14205,0.18719l-0.30842,0.24769l-0.26884,0.29017l-0.20602,0.13455l-0.118,0.13293l-0.25485,0.17429l-0.20983,0.22647l-0.34469,0.22513l-0.1531,0.12972l-0.33329,0.16428l-0.30108,0.21774l-1.81041,0.72558l-0.61825,0.40379l-0.41599,0.35248l-0.16927,0.08343l-0.05117,0.10335l-0.20751,0.06519l-0.03725,0.05186l-0.04914,0.04164l-0.04014,0.05289l-0.02579,0.00297l-0.93653,0.79351l-0.16927,0.08343l-0.05117,0.10334l-0.43714,0.13732l-0.15517,0.07649l-0.01456,0.0294l-0.12435,0.03907l-0.11691,0.05762l-0.03084,-0.01121l-0.16505,0.05186l-0.15517,0.07649l-0.01455,0.02939l-0.12435,0.03907l-0.11692,0.05763l-0.03084,-0.01121l-0.16505,0.05186l-0.41098,0.20258l-0.10838,-0.03941l-0.18006,0.05657l-0.34396,0.02046l-0.16352,-0.03069l-0.16418,0.02691l-0.97129,-0.08028l-0.28759,-0.09769l-0.01204,0.00072l-0.52199,-0.09799l-0.5244,-0.08422l-0.05922,-0.02532l-0.06526,-0.01224l-0.01419,-0.02174l-0.07594,-0.03249l-0.40416,-0.08481l-0.34223,-0.02829l-0.35183,-0.11951l-0.36686,-0.05892l-0.6469,-0.27673l-0.11181,-0.00924l-0.35183,-0.11951l-0.36686,-0.05892l-0.08017,-0.0343l-0.11181,-0.00924l-0.08582,-0.02915l-0.0903,0.00776l-0.62732,-0.10075l-0.26162,-0.11191l-0.28096,-0.04512l-0.5052,-0.21611l-0.11182,-0.00925l-0.08581,-0.02915l-0.09031,0.00777l-0.62733,-0.10075l-0.26162,-0.11192l-0.28096,-0.04513l-1.20635,-0.51605l-0.54501,-0.11436l-0.20712,-0.10051l-0.22732,-0.0365l-17.42657,-7.45472l-0.29598,-0.22463l-0.32941,-0.17191l-0.72887,-0.64701l-0.03731,-0.05456l-0.12979,-0.05553l-0.02553,0.00475l-0.05393,-0.03873l-0.05922,-0.02532l-0.42308,-0.32109l-0.43136,-0.30985l-0.04164,-0.04914l-0.05288,-0.04013l-0.00298,-0.02579l-0.12526,-0.14783l-0.52669,-1.06856l0.38826,-1.06788l-0.00046,-0.00404l0.00266,-0.00202l0.24206,-0.66576c-0.45574,-0.37659 -0.74491,-0.91211 -0.8194,-1.48658z" fill="url(#color-1)" stroke="none" stroke-width="0.5"/><path d="M263.01027,116.20122l-0.02061,-0.03188l0.01703,-0.07178c-0.00541,-0.39823 0.0845,-0.80352 0.28053,-1.18186l0.38335,-0.73992l0.20363,-0.23076l0.14158,-0.27327l0.25103,-0.2845l0.85007,-1.64077l0.3301,-0.94483l0.09878,-0.15041l0.04155,-0.17507l0.01023,-0.01975l0.01032,-0.07592l-0.02958,-0.33261l0.05438,-0.34512l0.02423,-1.68554l0.04614,-0.17392l-0.01595,-0.17923l0.11195,-0.71053l-0.0292,-0.26452l0.04494,-0.33088l-0.02959,-0.33261l0.24608,-1.56186l0.15696,-0.36997l0.09281,-0.39101l0.08844,-0.17069l0.08763,-0.36917l0.14158,-0.27327l0.07108,-0.29944l0.04339,-0.08373l0.01889,-0.11988l0.15696,-0.36996l0.09281,-0.39101l1.45674,-2.8117l0.20363,-0.23076l0.14158,-0.27327l0.25104,-0.28449l0.31845,-0.61464l0.20363,-0.23077l0.14158,-0.27327l0.4153,-0.47067l0.49414,-0.61682l0.12572,-0.09566l0.08322,-0.13428l0.64436,-0.62611l0.43402,-0.54178l0.12572,-0.09566l0.08322,-0.13428l0.6153,-0.59787l0.49037,-0.65427l0.28977,-0.2356l0.23963,-0.28643l0.71611,-0.52117l0.67321,-0.71355l0.19713,-0.12621l0.15019,-0.17952l2.56828,-1.86913l1.38456,-1.34532l0.23809,-0.13824l0.19235,-0.19699l0.65677,-0.4048l0.5277,-0.45566l0.18072,-0.09119l0.14141,-0.14483l0.8273,-0.50991l0.12509,-0.03971l0.10087,-0.08396l0.4528,-0.21832l1.10838,-0.95707l0.09472,-0.04779l0.06808,-0.08137l3.17093,-2.30773l0.87914,-0.85423l1.03071,-1.3339l0.16773,-0.13232l0.11741,-0.17849l1.19659,-1.10143l0.81664,-1.27778l0.09873,-0.09331l0.05669,-0.12346l1.03747,-1.29505l1.12554,-1.50176l1.03589,-1.67156l2.65227,-5.11925l0.43193,-1.12236l0.26894,-1.13308l0.23246,-1.14841l0.0184,-0.0386l-0.0005,-0.04276l0.11951,-0.50352l0.07086,-0.7244l0.02526,-0.07081l-0.00665,-0.07488l0.11195,-0.71053l-0.0292,-0.26452l0.02398,-0.1766l-0.03175,-0.02544l-0.02846,-0.31996l-0.12038,-0.29782l0.07839,-0.17435l-0.04369,-0.49126l0.01084,-0.06881l-0.00027,-0.00415l-0.08654,-0.23348l-0.06596,-0.59729l0.04494,-0.33088l-0.01805,-0.20298l-0.12804,-0.40338l-0.02506,-0.40109l-0.09185,-0.39124l0.00536,-0.37263l0.02543,-0.09586l-0.1672,-0.41362l0.05115,-0.11376l-0.04665,-0.19871l0.00535,-0.37264l0.33044,-1.24538l0.60143,-0.33229l0.34944,-0.59162l1.25437,-0.2945l0.20953,0.003l0.02359,-0.01524l0.06986,0.01659l0.06965,0.001l0.55522,0.14732l0.55891,0.13266l0.06184,0.03205l0.06939,0.01841l0.01358,0.02457l3.7278,1.93136l1.24286,0.47829l1.07569,0.37583l0.1504,0.09879l0.17508,0.04155l0.76262,0.39511l0.36917,0.08763l0.27327,0.14158l0.29944,0.07107l0.29597,0.15334l0.23076,0.20363l0.27327,0.14158l0.51526,0.45467l0.15609,0.2268l0.21116,0.17667l0.24463,0.33612l0.17536,0.03771l0.16854,0.27346l0.24086,0.21254l0.00786,0.191l0.25779,0.41826l0.14036,0.14446l0.16767,0.28877l0.22755,0.24438l0.29061,0.52598l0.06397,0.24065l0.13065,0.21197l0.06774,0.21336l0.17089,0.30931l0.06396,0.24064l0.13066,0.21198l0.14262,0.44931l0.01553,0.24852l0.08654,0.23348l0.01108,0.10032l0.0488,0.08833l0.06397,0.24065l0.13065,0.21197l0.14262,0.44932l0.01553,0.24852l0.08654,0.23347l0.12429,1.12562l0.40038,2.3974l-0.0262,0.32888l0.04847,0.32634l-0.0552,0.56418l0.08281,0.49581l-0.0262,0.32888l0.04847,0.32634l-0.07725,0.78978l-0.00783,0.54529l0.05461,0.87411l-0.04999,0.27075l0.02439,0.27424l-0.05438,0.34512l-0.00816,0.56763l-0.07061,0.26611l0.00328,0.27531l-0.77131,3.24963l-0.06708,0.42579l-0.03829,0.09023l0.00116,0.09802l-0.29522,1.2438l-0.06708,0.42579l-0.15696,0.36996l-0.09281,0.39101l-0.16509,0.31867l-0.08762,0.36916l-0.02804,0.05413l-0.00217,0.06092l-0.23537,0.81659l-0.02077,0.0358l-0.0028,0.04129l-0.22887,0.70745l-0.06108,0.6243l-0.07767,0.21785l-0.00825,0.23114l-0.23537,0.81659l-0.02076,0.03581l-0.0028,0.04129l-0.25167,0.77795l-0.13352,0.84749l-0.07745,0.18255l-0.01344,0.19784l-0.25167,0.77795l-0.13352,0.84749l-0.0617,0.14543l-0.00563,0.15788l-0.19226,0.66703l-0.13983,0.8875l-0.03829,0.09023l0.00116,0.09802l-0.11951,0.50352l-0.03868,0.39532l0.29851,1.78745l0.20681,0.42894l0.06433,0.31049l0.13554,0.28665l0.18152,0.91082l1.04538,3.29317l0.28476,0.5906l0.07212,0.34805l0.14183,0.32592l0.108,0.64671l0.30281,0.95393l0.01553,0.24852l0.08654,0.23348l0.01896,0.17165l0.17594,0.3649l0.08588,0.41448l0.14711,0.3969l0.13191,1.19459l-0.02127,0.15653l0.03611,0.1538l-0.00747,0.51988l0.10014,0.59961l-0.01804,0.22652l0.05194,0.22122l-0.01072,0.74527l-0.02721,0.10254l0.01559,0.10493l-0.07725,0.78977l-0.01993,1.38659l-0.02721,0.10254l0.01559,0.10493l-0.07725,0.78978l-0.00921,0.6413l-0.02721,0.10254l0.01559,0.10493l-0.08738,0.89327l-0.05776,0.16198l0.00206,0.17197l-0.07279,0.30666l0.03741,0.59865l-0.04999,0.27075l0.02439,0.27424l-0.16405,1.04125l-0.07745,0.18255l-0.01344,0.19784l-0.21935,0.67808l-0.07074,0.96559l-0.10992,0.33382l-0.03812,0.34938l-0.3986,1.07966l-0.20247,1.00025l-0.07446,0.15623l-0.01576,0.17236l-0.76783,2.19768l-0.30309,0.93692l-0.11061,0.17727l-0.04826,0.2033l-1.68675,3.25566l-0.16475,0.18671l-0.1039,0.22629l-0.53133,0.66326l-0.12572,0.09566l-0.08322,0.13428l-0.46503,0.45186l-0.19672,0.37971l-0.06654,0.07542l-0.00122,0.08469l-0.41214,0.38375l-0.3726,0.42225l-0.08463,0.00349l-0.07361,0.06854l-0.14695,0.08119l-0.16815,0.19057l-0.35242,0.24256l-0.31312,0.29155l-0.23293,0.1287l-0.13788,0.13398l-0.28878,0.16767l-0.24438,0.22755l-0.38975,0.21534l-0.17548,0.12771l-0.37259,0.15061l-0.34212,0.21086l-2.0106,0.63825l-0.69905,0.38624l-0.47681,0.34701l-0.18923,0.0765l-0.06344,0.10739l-0.22899,0.05376l-0.0443,0.05295l-0.05632,0.04099l-0.04751,0.05385l-0.02806,0.00116l-1.07341,0.78122l-0.18923,0.0765l-0.06344,0.10739l-0.48245,0.11328l-0.17347,0.07013l-0.01805,0.03055l-0.13724,0.03223l-0.1307,0.05283l-0.03236,-0.01455l-0.18216,0.04277l-0.17347,0.07013l-0.01805,0.03055l-0.13724,0.03223l-0.1307,0.05283l-0.03236,-0.01455l-0.18216,0.04277l-0.45945,0.18573l-0.11376,-0.05115l-0.19871,0.04665l-0.37264,-0.00535l-0.17392,-0.04614l-0.17923,0.01595l-1.04125,-0.16405l-0.30241,-0.12831l-0.01304,-0.00019l-0.55522,-0.14732l-0.5589,-0.13266l-0.06184,-0.03205l-0.0694,-0.01842l-0.01358,-0.02457l-0.07933,-0.04109l-0.42917,-0.1237l-0.36688,-0.0578l-0.36997,-0.15696l-0.39101,-0.09281l-0.67568,-0.35007l-0.11987,-0.01889l-0.36997,-0.15696l-0.39101,-0.09281l-0.08373,-0.04339l-0.11987,-0.01889l-0.09024,-0.03828l-0.09802,0.00116l-0.66861,-0.15869l-0.27327,-0.14158l-0.29944,-0.07107l-0.52769,-0.2734l-0.11988,-0.01889l-0.09023,-0.03829l-0.09802,0.00116l-0.66861,-0.15869l-0.27327,-0.14158l-0.29944,-0.07107l-1.26005,-0.65282l-0.57873,-0.16681l-0.21539,-0.12494l-0.24228,-0.0575l-18.20211,-9.43045l-0.30134,-0.2659l-0.3416,-0.21169l-0.73456,-0.75599l-0.03589,-0.06181l-0.13556,-0.07024l-0.02791,0.00307l-0.05506,-0.04608l-0.06184,-0.03205l-0.43073,-0.38006l-0.44057,-0.3686l-0.041,-0.05632l-0.05385,-0.04751l-0.00116,-0.02806l-0.12331,-0.16944l-0.48289,-1.19456l0.50395,-1.12087l-0.00017,-0.0044l0.00304,-0.00197l0.31419,-0.6988c-0.46155,-0.44255 -0.73073,-1.04322 -0.76527,-1.66879z" fill="url(#color-2)" stroke="none" stroke-width="0.5"/><path d="M264.62604,113.94802l-0.01597,-0.03126l0.02239,-0.06443c0.03231,-0.36681 0.15296,-0.73119 0.36871,-1.06085l0.42191,-0.64471l0.20891,-0.19321l0.15582,-0.23812l0.25756,-0.23818l0.93557,-1.42963l0.39212,-0.83818l0.10494,-0.1291l0.05461,-0.15715l0.01126,-0.0172l0.01659,-0.06886l0.00394,-0.30872l0.08233,-0.31236l0.18013,-1.54816l0.05873,-0.15566l0.00212,-0.16635l0.16951,-0.64309l-0.0021,-0.24605l0.07232,-0.30015l0.00393,-0.30871l0.37261,-1.41361l0.17903,-0.3256l0.12198,-0.35097l0.09732,-0.14873l0.11518,-0.33136l0.15581,-0.23811l0.09342,-0.26879l0.04774,-0.07297l0.0286,-0.10849l0.17902,-0.3256l0.12198,-0.35097l1.60326,-2.4499l0.20891,-0.19321l0.15581,-0.23811l0.25756,-0.23818l0.35047,-0.53554l0.2089,-0.19321l0.15581,-0.23811l0.42609,-0.39405l0.51229,-0.5211l0.1246,-0.07622l0.08912,-0.11572l0.65134,-0.51558l0.44996,-0.45769l0.1246,-0.07622l0.08912,-0.11572l0.62196,-0.49234l0.51233,-0.5559l0.2886,-0.18958l0.24725,-0.24102l0.70751,-0.41233l0.68606,-0.59331l0.19314,-0.09764l0.15497,-0.15105l2.53742,-1.47881l1.39955,-1.10783l0.23196,-0.10487l0.19537,-0.16319l0.64204,-0.31085l0.52808,-0.36972l0.17478,-0.06695l0.14364,-0.11998l0.80874,-0.39157l0.11879,-0.02482l0.10065,-0.06779l0.43694,-0.15841l1.10915,-0.77656l0.0916,-0.03509l0.07023,-0.06846l3.13282,-1.82581l0.88866,-0.70342l1.073,-1.13045l0.16667,-0.10601l0.1247,-0.15319l1.20382,-0.90108l0.87083,-1.09887l0.09954,-0.07658l0.06371,-0.10824l1.07557,-1.09408l1.17594,-1.27597l1.10939,-1.44055l2.91903,-4.4605l0.50241,-0.99196l0.35349,-1.01706l0.32136,-1.03458l0.02054,-0.03378l0.00354,-0.03937l0.15709,-0.45197l0.13302,-0.65968l0.02986,-0.06277l0.00088,-0.0695l0.1695,-0.64309l-0.00209,-0.24606l0.03861,-0.16019l-0.02682,-0.02638l0.00379,-0.29697l-0.08284,-0.28522l0.08843,-0.15303l0.00581,-0.45598l0.01642,-0.06227l0.00015,-0.00384l-0.05773,-0.22287l-0.00474,-0.55559l0.07232,-0.30014l0.00241,-0.18841l-0.08001,-0.38304l0.01451,-0.37128l-0.04786,-0.36848l0.03983,-0.34226l0.03237,-0.08581l-0.11506,-0.39612l0.05769,-0.09985l-0.02431,-0.18715l0.03982,-0.34227l0.42057,-1.11461l0.58433,-0.24934l0.37683,-0.51148l1.18138,-0.15343l0.19247,0.02239l0.02311,-0.0118l0.06271,0.02179l0.06398,0.00744l0.49691,0.18749l0.50168,0.17437l0.0539,0.03527l0.06211,0.02344l0.01019,0.02388l3.24812,2.12563l1.09844,0.55633l0.95427,0.44643l0.1291,0.10495l0.15715,0.05461l0.6645,0.43485l0.33136,0.11518l0.23811,0.15581l0.26879,0.09342l0.25788,0.16876l0.19321,0.20891l0.23811,0.15581l0.43138,0.46647l0.12235,0.22323l0.1777,0.18228l0.19355,0.33209l0.15777,0.05109l0.12942,0.26731l0.20166,0.21806l-0.01065,0.17643l0.19796,0.40886l0.11559,0.14602l0.12719,0.28133l0.18642,0.2461l0.21806,0.51103l0.0363,0.22735l0.10033,0.20721l0.04232,0.2026l0.12823,0.30052l0.0363,0.22735l0.10033,0.20721l0.08913,0.42665l-0.00899,0.23006l0.05773,0.22287l0.0008,0.09332l0.03663,0.08583l0.0363,0.22735l0.10032,0.20721l0.08913,0.42665l-0.00899,0.23006l0.05775,0.22287l0.00893,1.04702l0.14379,2.24272l-0.0549,0.30006l0.01402,0.30473l-0.10359,0.51379l0.02974,0.46382l-0.0549,0.30006l0.01403,0.30472l-0.14502,0.71923l-0.05827,0.50084l-0.03163,0.80915l-0.07133,0.24436l-0.00325,0.25454l-0.08234,0.31237l-0.06066,0.52136l-0.08988,0.23816l-0.02275,0.25354l-1.01378,2.91689l-0.10158,0.38537l-0.04366,0.07943l-0.00811,0.09028l-0.38803,1.11645l-0.10158,0.38537l-0.17903,0.3256l-0.12199,0.35098l-0.18171,0.27766l-0.11517,0.33137l-0.03086,0.04715l-0.0077,0.05583l-0.29297,0.72909l-0.02246,0.03098l-0.00644,0.03772l-0.27677,0.62931l-0.11463,0.56854l-0.09184,0.19311l-0.02922,0.21184l-0.29297,0.72908l-0.02245,0.03098l-0.00645,0.03772l-0.30434,0.69201l-0.20218,0.76704l-0.08834,0.16066l-0.0309,0.18073l-0.30434,0.69201l-0.20218,0.76704l-0.07037,0.12799l-0.01996,0.14469l-0.23931,0.59556l-0.21173,0.80326l-0.04366,0.07943l-0.00811,0.09028l-0.15709,0.45197l-0.07259,0.36l0.10721,1.67212l0.15007,0.41392l0.0301,0.29162l0.09784,0.27637l0.08168,0.8548l0.65319,3.12706l0.20662,0.56993l0.03374,0.3269l0.09994,0.31307l0.03879,0.60498l0.18922,0.90581l-0.00899,0.23006l0.05773,0.22287l0.00136,0.15967l0.12766,0.35213l0.04019,0.3893l0.09815,0.37885l0.00948,1.11119l-0.03421,0.14199l0.01882,0.14485l-0.05556,0.4775l0.03596,0.56092l-0.03781,0.20666l0.02705,0.20836l-0.07965,0.68452l-0.03463,0.09177l0.00451,0.09798l-0.14501,0.71922l-0.14818,1.27357l-0.03463,0.09177l0.00451,0.09798l-0.14502,0.71923l-0.06854,0.58903l-0.03463,0.09177l0.00451,0.09797l-0.16403,0.81348l-0.0683,0.14359l-0.01422,0.15837l-0.09567,0.27526l-0.02166,0.55415l-0.07133,0.24437l-0.00324,0.25453l-0.24841,0.94241l-0.08834,0.16065l-0.0309,0.18073l-0.26528,0.60318l-0.15549,0.88156l-0.13237,0.29676l-0.06779,0.31779l-0.46775,0.95579l-0.27991,0.90112l-0.08311,0.13674l-0.03063,0.15707l-0.91207,1.94961l-0.36653,0.83343l-0.11835,0.1527l-0.06343,0.18249l-1.8564,2.83672l-0.16902,0.15632l-0.11677,0.19842l-0.55085,0.56033l-0.1246,0.07622l-0.08912,0.11572l-0.47006,0.37208l-0.21651,0.33085l-0.06828,0.06315l-0.00905,0.07779l-0.41503,0.3144l-0.38227,0.35352l-0.07818,-0.00472l-0.07413,0.05616l-0.14277,0.06092l-0.17253,0.15955l-0.34689,0.19011l-0.31531,0.23886l-0.22632,0.09658l-0.13938,0.11033l-0.28133,0.12718l-0.2461,0.18642l-0.37867,0.16158l-0.17337,0.10104l-0.35683,0.10366l-0.33443,0.16192l-1.90919,0.39881l-0.67917,0.28981l-0.47108,0.27455l-0.18124,0.05264l-0.0684,0.09285l-0.21568,0.02801l-0.04571,0.04456l-0.05565,0.03243l-0.04875,0.04507l-0.02591,-0.00156l-1.06051,0.61807l-0.18124,0.05264l-0.06839,0.09284l-0.45438,0.05901l-0.16613,0.04825l-0.01946,0.0264l-0.12925,0.01679l-0.12517,0.03636l-0.0284,-0.01642l-0.17156,0.02228l-0.16613,0.04825l-0.01946,0.0264l-0.12925,0.01679l-0.12517,0.03636l-0.0284,-0.01642l-0.17156,0.02228l-0.44002,0.12781l-0.09985,-0.0577l-0.18715,0.02431l-0.34226,-0.03982l-0.15566,-0.05872l-0.16635,-0.00212l-0.94241,-0.24841l-0.26616,-0.14634l-0.01198,-0.00139l-0.49691,-0.18749l-0.50167,-0.17437l-0.0539,-0.03527l-0.06212,-0.02344l-0.01019,-0.02388l-0.06912,-0.04524l-0.38318,-0.15397l-0.33205,-0.08753l-0.3256,-0.17903l-0.35097,-0.12198l-0.58874,-0.38527l-0.10849,-0.0286l-0.3256,-0.17903l-0.35097,-0.12198l-0.07297,-0.04774l-0.10849,-0.0286l-0.07943,-0.04366l-0.09028,-0.00811l-0.60015,-0.20858l-0.23811,-0.15581l-0.26879,-0.09342l-0.45978,-0.30089l-0.10849,-0.0286l-0.07943,-0.04366l-0.09028,-0.00811l-0.60015,-0.20858l-0.23811,-0.15581l-0.26879,-0.09342l-1.09791,-0.71849l-0.51672,-0.20763l-0.18642,-0.13509l-0.21747,-0.07558l-15.85985,-10.37897l-0.25228,-0.2728l-0.29439,-0.22671l-0.60489,-0.76418l-0.02722,-0.06022l-0.11812,-0.07729l-0.02596,0.00023l-0.04634,-0.04754l-0.0539,-0.03527l-0.36061,-0.38994l-0.37074,-0.3803l-0.03243,-0.05565l-0.04507,-0.04875l0.00156,-0.02591l-0.09756,-0.16741l-0.3323,-1.14402l0.56851,-0.98383l0.00025,-0.00406l0.00298,-0.00153l0.35443,-0.61337c-0.38311,-0.45029 -0.57447,-1.02802 -0.54764,-1.60667z" fill="url(#color-3)" stroke="none" stroke-width="0.5"/><path d="M266.24327,115.31407l-0.01787,-0.02702l0.01388,-0.06139c-0.00821,-0.33968 0.06484,-0.68622 0.22866,-1.01077l0.32037,-0.63469l0.17163,-0.1987l0.11832,-0.2344l0.2116,-0.24497l0.71039,-1.40739l0.27309,-0.80902l0.0829,-0.12919l0.03386,-0.14973l0.00855,-0.01693l0.00811,-0.06486l-0.02823,-0.28349l0.04327,-0.2949l0.00547,-1.43816l0.0378,-0.14879l-0.01521,-0.15276l0.0891,-0.60717l-0.0273,-0.22539l0.03535,-0.28269l-0.02824,-0.28348l0.19584,-1.33465l0.13057,-0.31703l0.07565,-0.3344l0.0739,-0.14641l0.07142,-0.31573l0.11831,-0.23439l0.05792,-0.25609l0.03626,-0.07182l0.01503,-0.10244l0.13056,-0.31703l0.07566,-0.33441l1.21737,-2.4118l0.17163,-0.1987l0.11832,-0.2344l0.2116,-0.24497l0.26612,-0.52721l0.17162,-0.19872l0.11832,-0.2344l0.35005,-0.40526l0.41598,-0.53067l0.1064,-0.08273l0.06978,-0.11531l0.54406,-0.53994l0.36538,-0.4661l0.10639,-0.08274l0.06978,-0.1153l0.51952,-0.51559l0.41243,-0.56258l0.24507,-0.20359l0.20185,-0.24652l0.6062,-0.45106l0.56788,-0.6148l0.16703,-0.10945l0.12651,-0.1545l2.17412,-1.61772l1.16903,-1.16018l0.20187,-0.1201l0.16231,-0.16978l0.55664,-0.35127l0.44608,-0.39348l0.15335,-0.07942l0.11934,-0.12483l0.70118,-0.44247l0.10635,-0.03501l0.08529,-0.07254l0.3843,-0.19033l0.93693,-0.82647l0.08036,-0.04161l0.05734,-0.07002l2.68429,-1.99732l0.74229,-0.73667l0.86726,-1.14725l0.1419,-0.11439l0.09854,-0.15334l1.01089,-0.95041l0.68515,-1.09743l0.08338,-0.08049l0.04725,-0.10582l0.87338,-1.11416l0.94666,-1.2913l0.86864,-1.43534l2.21648,-4.39114l0.35835,-0.96139l0.21922,-0.96905l0.18796,-0.9818l0.01534,-0.03309l-0.00082,-0.03647l0.09742,-0.43064l0.05392,-0.61862l0.0209,-0.06064l-0.00635,-0.06382l0.08909,-0.60716l-0.0273,-0.2254l0.01887,-0.15086l-0.02732,-0.02142l-0.02717,-0.27271l-0.10539,-0.25298l0.0653,-0.14945l-0.0417,-0.41871l0.00863,-0.05879l-0.00026,-0.00354l-0.07593,-0.19841l-0.06165,-0.50896l0.03535,-0.28269l-0.01722,-0.173l-0.11287,-0.34296l-0.02499,-0.34195l-0.08189,-0.33294l0.00121,-0.31794l0.02084,-0.08202l-0.14636,-0.35136l0.04261,-0.09751l-0.04159,-0.1691l0.0012,-0.31795l0.27066,-1.06541l0.51008,-0.2889l0.29278,-0.50788l1.06743,-0.26255l0.17878,0.00068l0.01998,-0.01321l0.05975,0.01351l0.05943,0.00022l0.47499,0.12067l0.47799,0.10814l0.05305,0.02678l0.05936,0.01509l0.0118,0.02084l3.1976,1.61402l1.06459,0.39682l0.92106,0.31091l0.1292,0.08292l0.14973,0.03386l0.65416,0.33019l0.31573,0.07142l0.2344,0.11832l0.25609,0.05792l0.25388,0.12814l0.1987,0.17163l0.2344,0.11832l0.44367,0.38323l0.1352,0.19207l0.18173,0.14881l0.21172,0.28454l0.14994,0.03058l0.14625,0.23177l0.2074,0.17915l0.00843,0.16288l0.22369,0.35449l0.12105,0.12197l0.14564,0.24484l0.19632,0.20643l0.25267,0.4461l0.05674,0.20472l0.11337,0.17966l0.05971,0.1814l0.14858,0.26233l0.05674,0.20472l0.11337,0.17965l0.12573,0.38202l0.01549,0.21187l0.07593,0.19841l0.01035,0.08548l0.04243,0.07492l0.05674,0.20472l0.11336,0.17965l0.12573,0.38202l0.01549,0.21187l0.07594,0.19841l0.11618,0.95914l0.36319,2.04162l-0.01939,0.2808l0.04429,0.27796l-0.04199,0.48179l0.07511,0.42222l-0.01939,0.28081l0.0443,0.27795l-0.05879,0.67445l-0.00177,0.46526l0.05447,0.74521l-0.04021,0.23142l0.02327,0.23374l-0.04327,0.2949l-0.00184,0.48432l-0.05784,0.22766l0.00528,0.23483l-0.62869,2.77921l-0.0534,0.36383l-0.03185,0.07733l0.00188,0.08361l-0.24063,1.06375l-0.05339,0.36383l-0.13057,0.31702l-0.07565,0.33441l-0.13797,0.27334l-0.07142,0.31573l-0.02343,0.04642l-0.0013,0.05199l-0.19343,0.69875l-0.0174,0.03073l-0.00202,0.03526l-0.18886,0.60558l-0.04646,0.53315l-0.0643,0.18655l-0.00494,0.19726l-0.19342,0.69874l-0.01739,0.03074l-0.00202,0.03526l-0.20768,0.66594l-0.10626,0.7242l-0.06443,0.15643l-0.00969,0.1689l-0.20768,0.66594l-0.10626,0.7242l-0.05133,0.12462l-0.00338,0.13473l-0.158,0.57079l-0.11128,0.75839l-0.03185,0.07733l0.00188,0.08361l-0.09741,0.43063l-0.02942,0.3376l0.2708,1.52217l0.1803,0.36406l0.05768,0.2643l0.11822,0.24332l0.16307,0.77537l0.9215,2.79995l0.24825,0.50127l0.06466,0.29627l0.12393,0.27675l0.09797,0.55073l0.26694,0.81106l0.0155,0.21187l0.07593,0.19841l0.01772,0.14627l0.15338,0.3097l0.077,0.35282l0.12908,0.33727l0.12332,1.01791l-0.01673,0.13374l0.03219,0.13087l-0.00169,0.44358l0.09084,0.51062l-0.01334,0.19341l0.04631,0.18826l-0.00242,0.63588l-0.02229,0.08772l0.01424,0.08938l-0.05878,0.67444l-0.0045,1.18307l-0.02229,0.08772l0.01424,0.08938l-0.05878,0.67444l-0.00208,0.54718l-0.02229,0.08772l0.01424,0.08938l-0.06649,0.76283l-0.04781,0.13871l0.0033,0.14668l-0.05933,0.26226l0.03731,0.51036l-0.04021,0.23142l0.02328,0.23373l-0.13057,0.88977l-0.06442,0.15643l-0.00969,0.1689l-0.18102,0.58044l-0.05164,0.82438l-0.09076,0.28577l-0.02937,0.29839l-0.33031,0.92466l-0.1637,0.85514l-0.06211,0.13395l-0.01189,0.14717l-0.63521,1.88177l-0.25012,0.80203l-0.09276,0.15222l-0.03934,0.17388l-1.40961,2.7926l-0.13886,0.16077l-0.0866,0.19397l-0.44729,0.57062l-0.10639,0.08274l-0.06979,0.11531l-0.39264,0.38966l-0.1644,0.32571l-0.05609,0.06494l-0.00028,0.07227l-0.34813,0.33111l-0.31405,0.36359l-0.07216,0.00373l-0.06219,0.05914l-0.12464,0.07059l-0.14173,0.16409l-0.29847,0.21011l-0.26448,0.25155l-0.19756,0.11189l-0.11641,0.11554l-0.24483,0.14564l-0.20643,0.19633l-0.33055,0.18722l-0.14855,0.11053l-0.31649,0.13185l-0.28995,0.18297l-1.70948,0.56262l-0.59287,0.3358l-0.40363,0.30033l-0.16075,0.06697l-0.05314,0.09219l-0.19488,0.04793l-0.03732,0.04558l-0.04768,0.03548l-0.04005,0.04636l-0.02392,0.00124l-0.90869,0.67612l-0.16074,0.06698l-0.05314,0.09218l-0.41056,0.10098l-0.14736,0.06139l-0.01512,0.02622l-0.11678,0.02872l-0.11103,0.04625l-0.02774,-0.01213l-0.155,0.03813l-0.14736,0.06139l-0.01512,0.02622l-0.11678,0.02872l-0.11103,0.04625l-0.02774,-0.01213l-0.155,0.03813l-0.39028,0.16259l-0.09751,-0.04262l-0.1691,0.04159l-0.31794,-0.00121l-0.14879,-0.0378l-0.15276,0.01521l-0.88977,-0.13057l-0.25915,-0.10673l-0.01113,-0.00004l-0.47497,-0.12067l-0.47799,-0.10812l-0.05305,-0.02679l-0.05938,-0.01509l-0.0118,-0.02084l-0.06804,-0.03434l-0.36725,-0.10165l-0.3135,-0.04599l-0.31703,-0.13057l-0.33441,-0.07566l-0.57957,-0.29256l-0.10243,-0.01503l-0.31702,-0.13057l-0.33441,-0.07564l-0.07182,-0.03626l-0.10243,-0.01503l-0.07733,-0.03185l-0.08361,0.00188l-0.57183,-0.12935l-0.2344,-0.11832l-0.25609,-0.05792l-0.45264,-0.22848l-0.10244,-0.01503l-0.07733,-0.03185l-0.08361,0.00188l-0.57182,-0.12935l-0.2344,-0.11832l-0.25609,-0.05792l-1.08083,-0.54556l-0.49522,-0.13707l-0.18488,-0.10464l-0.2072,-0.04687l-15.61321,-7.88094l-0.25946,-0.22411l-0.29333,-0.17751l-0.63348,-0.63831l-0.03117,-0.05241l-0.11628,-0.0587l-0.02378,0.00289l-0.0474,-0.03881l-0.05305,-0.02678l-0.37089,-0.32035l-0.37917,-0.31047l-0.03548,-0.04768l-0.04636,-0.04004l-0.00124,-0.02393l-0.10673,-0.14343l-0.42271,-1.01472l0.41981,-0.96075l-0.0002,-0.00375l0.00258,-0.00171l0.26172,-0.59898c-0.39773,-0.37337 -0.6328,-0.88337 -0.6679,-1.41673z" fill="url(#color-4)" stroke="none" stroke-width="0.5"/><path d="M214.5453,186.96762c0,0 18.88478,-18.19982 27.46741,-30.26738c8.49872,-11.94957 23.7791,-41.7875 23.7791,-41.7875l33.7322,16.91854c0,0 -16.07374,29.22186 -20.78051,43.52233c-4.54272,13.80201 -6.98547,40.83816 -6.98547,40.83816z" fill="url(#color-5)" stroke="none" stroke-width="0"/><path d="M260.83686,124.17613l3.29513,-6.45094l33.89101,17.31146l-3.29513,6.45094z" fill="url(#color-6)" stroke="url(#color-7)" stroke-width="0"/><path d="M254.96162,135.24904l3.29513,-6.45094l33.891,17.31146l-3.29513,6.45094z" fill="url(#color-8)" stroke="url(#color-9)" stroke-width="0"/><path d="M260.08259,217.85098c0,14.98335 0.01372,26.93128 -17.8091,27.12975c-16.49564,0.18369 -17.8091,-12.1464 -17.8091,-27.12975c0,-14.98335 2.64508,-26.92288 17.8091,-27.12975c15.82517,-0.21589 17.8091,12.1464 17.8091,27.12975z" fill="url(#color-10)" stroke="url(#color-11)" stroke-width="0"/><path d="M289.82932,217.95549c0,14.98335 0.01372,26.93128 -17.8091,27.12975c-16.49563,0.18369 -17.8091,-12.1464 -17.8091,-27.12975c0,-14.98335 2.64508,-26.92288 17.8091,-27.12975c15.82517,-0.2159 17.8091,12.1464 17.8091,27.12975z" fill="url(#color-12)" stroke="url(#color-13)" stroke-width="0"/><path d="M240.5167,191.78861v-12.07868h4.07958v12.07868z" fill="#312d29" stroke="url(#color-14)" stroke-width="0"/><path d="M269.32155,192.06815v-12.07868h4.07958v12.07868z" fill="#312d29" stroke="url(#color-15)" stroke-width="0"/><path d="M238.91773,184.49552v-3.56521h35.48265v3.56521z" fill="#36322e" stroke="none" stroke-width="0"/><path d="M186.22599,244.29878v-75.58741h46.61412v75.58741z" fill="url(#color-16)" stroke="url(#color-17)" stroke-width="0"/><path d="M180.476,222.29081v-31.51043h57.11412v31.51043z" fill="url(#color-18)" stroke="url(#color-19)" stroke-width="0"/><path d="M188.833,187.21847v-14.86511h40.61412v14.86511z" fill="url(#color-20)" stroke="url(#color-21)" stroke-width="0"/><path d="M183.226,214.06215v-14.86511h50.36412v14.86511z" fill="url(#color-22)" stroke="url(#color-23)" stroke-width="0"/><path d="M188.833,240.66638v-14.86511h40.61412v14.86511z" fill="url(#color-24)" stroke="url(#color-25)" stroke-width="0"/></g></g></svg>