<svg version="1.1" xmlns="http://www.w3.org/2000/svg" xmlns:xlink="http://www.w3.org/1999/xlink" width="1085.35806" height="130.97245" viewBox="0,0,1085.35806,130.97245"><defs><linearGradient x1="272.01533" y1="217.22172" x2="272.01533" y2="315.61202" gradientUnits="userSpaceOnUse" id="color-1"><stop offset="0" stop-color="#3f3f30"/><stop offset="1" stop-color="#323124"/></linearGradient><linearGradient x1="812.51532" y1="217.22172" x2="812.51532" y2="315.61202" gradientUnits="userSpaceOnUse" id="color-2"><stop offset="0" stop-color="#3f3f30"/><stop offset="1" stop-color="#323124"/></linearGradient></defs><g transform="translate(-0.2043,-217.22173)"><g data-paper-data="{&quot;isPaintingLayer&quot;:true}" fill-rule="nonzero" stroke="none" stroke-width="0.5" stroke-linecap="butt" stroke-linejoin="miter" stroke-miterlimit="10" stroke-dasharray="" stroke-dashoffset="0" style="mix-blend-mode: normal"><path d="M24.24014,226.58308c4.91257,-0.80644 9.84368,1.68914 14.76167,0.98645c2.28975,-0.32716 4.4186,-1.37895 6.66379,-1.93498c2.62837,-0.65092 5.45905,-0.26081 8.05966,-1.01506c1.43415,-0.41595 2.55816,-1.64281 4.00762,-2.00181c1.38132,-0.34213 2.84595,-0.0321 4.26893,-0.04815c4.34085,-1.08521 8.57293,-1.27786 12.905,-1.98645c2.42615,-0.39684 4.65225,-1.73659 7.095,-2.01355c10.5228,-1.19311 21.50497,1.33841 32,0c1.36333,-0.17386 2.63586,-0.83267 4,-1c3.07875,-0.37763 6.20363,-0.01873 9.30546,-0.01873c8,0 16,0 24,0c5.57522,0 11.77304,-0.75276 17.30545,0.01873c1.3612,0.18982 2.63667,0.82614 4,1c7.49074,0.95528 15.36719,-0.62783 22.90075,-0.01021c4.15954,0.34101 8.16959,1.32825 12.19425,2.02376c2.24864,0.3886 4.57722,-0.26627 6.84589,-0.02012c1.65953,0.18006 3.25479,0.77061 4.9107,0.98137c5.10788,0.6501 9.85193,-0.0288 15,1c4.42401,0.02774 8.52277,1.3122 12.92039,1.70812c4.34879,0.39152 8.91081,-0.16807 13.22802,0.31708c4.06757,0.4571 7.94393,2.50164 12,3c1.35482,0.16646 2.74371,-0.17948 4.095,0.01355c4.58648,0.65519 9.06553,2.50321 13.75353,2.96094c6.41024,0.62588 12.94017,0.96168 19.3165,2.05145c1.01592,0.17363 1.9072,0.86046 2.92997,0.98761c3.04511,0.37858 6.16804,0.29668 9.14802,1.02862c8.14886,1.62909 16.19727,2.10767 24.44808,2.84787c2.73666,0.24552 5.42692,0.93244 8.16965,1.09675c2.3683,0.14188 7.0313,-0.21758 9.13925,0.01319c1.3662,0.14957 2.6343,0.84587 4,1c8.878,1.00198 18.12644,-1.08841 27,0c1.36415,0.16733 2.64016,0.80068 4,1c2.73172,0.40041 5.93124,-0.01873 8.69455,-0.01873c11.25466,0 22.56831,0.39466 33.68866,-0.98053c2.62886,-0.32509 5.13521,-1.30237 7.705,-1.94482c2.52871,-0.63218 5.20144,-0.82888 7.59495,-1.86093c1.19497,-0.51526 2.05113,-1.69867 3.28692,-2.10645c1.05246,-0.34728 2.23109,0.10891 3.324,-0.07499c9.89564,-1.66508 19.22249,-4.93384 29.39262,-5.03227c7.33594,-0.00002 14.67189,-0.00002 22.00784,-0.00002c2.97392,0 6.47128,-0.44014 9.40046,0.03229c1.04065,0.16784 1.96131,0.82049 3,1c3.59172,0.62072 10.59954,-0.03229 10.59954,-0.03229l5.42536,4.89366c1.86921,7.61356 2.32975,112.95627 2.32975,112.95627c0,0 -542.06985,2.68016 -544.07746,-1.81106c-0.28393,-0.63517 -0.9405,-113.6403 -0.74477,-113.67325c0,0 2.12231,-2.36475 4.41645,-3.13829c2.43311,-0.8204 7.72616,-0.72568 8.21896,-0.97308c0,0 7.1665,-0.53277 11.3646,-1.22193z" fill="url(#color-1)"/><path d="M564.74014,226.58308c4.91257,-0.80644 9.84367,1.68914 14.76166,0.98645c2.28975,-0.32716 4.4186,-1.37895 6.66379,-1.93498c2.62837,-0.65092 5.45905,-0.26081 8.05966,-1.01506c1.43415,-0.41595 2.55816,-1.64281 4.00762,-2.00181c1.38132,-0.34213 2.84595,-0.0321 4.26893,-0.04815c4.34085,-1.08521 8.57293,-1.27786 12.905,-1.98645c2.42615,-0.39684 4.65225,-1.73659 7.095,-2.01355c10.5228,-1.19311 21.50497,1.33841 32,0c1.36333,-0.17386 2.63586,-0.83267 4,-1c3.07875,-0.37763 6.20363,-0.01873 9.30546,-0.01873c8,0 16,0 24,0c5.57522,0 11.77304,-0.75276 17.30545,0.01873c1.3612,0.18982 2.63667,0.82614 4,1c7.49074,0.95528 15.36719,-0.62783 22.90075,-0.01021c4.15954,0.34101 8.16959,1.32825 12.19425,2.02376c2.24864,0.3886 4.57722,-0.26627 6.84589,-0.02012c1.65953,0.18006 3.25479,0.77061 4.9107,0.98137c5.10788,0.6501 9.85193,-0.0288 15,1c4.42401,0.02774 8.52277,1.3122 12.92039,1.70812c4.34879,0.39152 8.91081,-0.16807 13.22802,0.31708c4.06757,0.4571 7.94393,2.50164 12,3c1.35482,0.16646 2.74371,-0.17948 4.095,0.01355c4.58648,0.65519 9.06553,2.50321 13.75353,2.96094c6.41024,0.62588 12.94017,0.96168 19.3165,2.05145c1.01592,0.17363 1.9072,0.86046 2.92997,0.98761c3.04511,0.37858 6.16804,0.29668 9.14802,1.02862c8.14886,1.62909 16.19727,2.10767 24.44808,2.84787c2.73666,0.24552 5.42692,0.93244 8.16965,1.09675c2.3683,0.14188 7.0313,-0.21758 9.13925,0.01319c1.3662,0.14957 2.6343,0.84587 4,1c8.878,1.00198 18.12644,-1.08841 27,0c1.36415,0.16733 2.64016,0.80068 4,1c2.73172,0.40041 5.93124,-0.01873 8.69455,-0.01873c11.25466,0 22.56831,0.39466 33.68866,-0.98053c2.62886,-0.32509 5.13521,-1.30237 7.705,-1.94482c2.52871,-0.63218 5.20144,-0.82888 7.59495,-1.86093c1.19497,-0.51526 2.05113,-1.69867 3.28692,-2.10645c1.05246,-0.34728 2.23109,0.10891 3.324,-0.07499c9.89564,-1.66508 19.22249,-4.93384 29.39262,-5.03227c7.33594,-0.00002 14.67189,-0.00002 22.00784,-0.00002c2.97392,0 6.47128,-0.44014 9.40046,0.03229c1.04065,0.16784 1.96131,0.82049 3,1c3.59172,0.62072 10.59954,-0.03229 10.59954,-0.03229l5.42536,4.89366c1.86921,7.61356 2.32975,112.95627 2.32975,112.95627c0,0 -542.06985,2.68016 -544.07746,-1.81106c-0.28393,-0.63517 -0.9405,-113.6403 -0.74477,-113.67325c0,0 2.12231,-2.36475 4.41645,-3.13829c2.43311,-0.8204 7.72616,-0.72568 8.21896,-0.97308c0,0 7.1665,-0.53277 11.3646,-1.22193z" fill="url(#color-2)"/></g></g></svg>