<svg version="1.1" xmlns="http://www.w3.org/2000/svg" xmlns:xlink="http://www.w3.org/1999/xlink" width="59" height="59.70662" viewBox="0,0,59,59.70662"><defs><linearGradient x1="240" y1="151.64669" x2="240" y2="208.35331" gradientUnits="userSpaceOnUse" id="color-1"><stop offset="0" stop-color="#191919"/><stop offset="1" stop-color="#050505"/></linearGradient><linearGradient x1="240" y1="151.64669" x2="240" y2="208.35331" gradientUnits="userSpaceOnUse" id="color-2"><stop offset="0" stop-color="#cccccc"/><stop offset="1" stop-color="#898989"/></linearGradient><radialGradient cx="240" cy="180.00001" r="26.8571" gradientUnits="userSpaceOnUse" id="color-3"><stop offset="0" stop-color="#ffffff" stop-opacity="0.35484"/><stop offset="1" stop-color="#ffffff" stop-opacity="0"/></radialGradient><linearGradient x1="240" y1="153.29212" x2="240" y2="206.7079" gradientUnits="userSpaceOnUse" id="color-4"><stop offset="0" stop-color="#cccccc"/><stop offset="1" stop-color="#898989"/></linearGradient><linearGradient x1="220.89874" y1="180.66022" x2="258.58453" y2="180.66022" gradientUnits="userSpaceOnUse" id="color-5"><stop offset="0" stop-color="#70c2ff"/><stop offset="1" stop-color="#005fff"/></linearGradient><linearGradient x1="220.89874" y1="180.66022" x2="258.58453" y2="180.66022" gradientUnits="userSpaceOnUse" id="color-6"><stop offset="0" stop-color="#0078cc"/><stop offset="1" stop-color="#005794"/></linearGradient><linearGradient x1="221.3903" y1="173.10378" x2="257.60142" y2="173.10378" gradientUnits="userSpaceOnUse" id="color-7"><stop offset="0" stop-color="#0078cc"/><stop offset="1" stop-color="#005794"/></linearGradient><linearGradient x1="229.58285" y1="180.76703" x2="241.05244" y2="180.76703" gradientUnits="userSpaceOnUse" id="color-8"><stop offset="0" stop-color="#0078cc"/><stop offset="1" stop-color="#005794"/></linearGradient><linearGradient x1="239.65971" y1="180.69041" x2="241.13437" y2="180.69041" gradientUnits="userSpaceOnUse" id="color-9"><stop offset="0" stop-color="#0061a6"/><stop offset="1" stop-color="#005794"/></linearGradient><linearGradient x1="241.05244" y1="180.61377" x2="250.55582" y2="180.61377" gradientUnits="userSpaceOnUse" id="color-10"><stop offset="0" stop-color="#0062a6"/><stop offset="1" stop-color="#005794"/></linearGradient><radialGradient cx="229.92294" cy="169.38026" r="12.28884" gradientUnits="userSpaceOnUse" id="color-11"><stop offset="0" stop-color="#ffffff"/><stop offset="1" stop-color="#ffffff" stop-opacity="0"/></radialGradient></defs><g transform="translate(-210.5,-150.14669)"><g data-paper-data="{&quot;isPaintingLayer&quot;:true}" fill-rule="nonzero" stroke-linejoin="miter" stroke-miterlimit="10" stroke-dasharray="" stroke-dashoffset="0" style="mix-blend-mode: normal"><path d="M212,208.35331v-56.70662h56v56.70662z" fill="url(#color-1)" stroke="url(#color-2)" stroke-width="3" stroke-linecap="butt"/><path d="M266.8571,180.00001c0,14.75036 -12.02433,26.70789 -26.8571,26.70789c-14.83277,0 -26.8571,-11.95753 -26.8571,-26.70789c0,-14.75036 12.02433,-26.70789 26.8571,-26.70789c14.83277,0 26.8571,11.95753 26.8571,26.70789z" fill="url(#color-3)" stroke="url(#color-4)" stroke-width="0" stroke-linecap="butt"/><g><path d="M240.88859,199.92516l-19.98986,-26.69043l9.66722,-11.78354l19.47621,-0.05594l8.54235,11.93627z" fill="url(#color-5)" stroke="url(#color-6)" stroke-width="1.5" stroke-linecap="butt"/><path d="M257.60142,173.10378c0,0 -11.47524,1.32598 -16.96871,1.32598c-6.42915,0 -19.24242,-1.32598 -19.24242,-1.32598" fill="none" stroke="url(#color-7)" stroke-width="1.5" stroke-linecap="round"/><path d="M241.05245,199.7719l-11.34905,-25.97758l5.77809,-12.03214" fill="none" stroke="url(#color-8)" stroke-width="1.5" stroke-linecap="round"/><path d="M240.40866,161.45564l0.64378,38.46953" fill="none" stroke="url(#color-9)" stroke-width="1.5" stroke-linecap="round"/><path d="M244.65717,161.60891l6.44512,12.21813l-10.04985,25.7916" fill="none" stroke="url(#color-10)" stroke-width="1.5" stroke-linecap="round"/><path d="M241.6383,169.38026c0,6.34845 -5.24515,11.49488 -11.71537,11.49488c-6.47022,0 -11.71537,-5.14644 -11.71537,-11.49488c0,-6.34845 5.24515,-11.49488 11.71537,-11.49488c6.47022,0 11.71537,5.14644 11.71537,11.49488z" fill="url(#color-11)" stroke="none" stroke-width="0" stroke-linecap="butt"/></g><path d="M215.27327,163.339v-8.69862h21.87384v8.69862z" fill-opacity="0.53453" fill="#000000" stroke="#a60000" stroke-width="0" stroke-linecap="butt"/><text transform="translate(215.70712,161.61518) scale(0.21839,0.21839)" font-size="40" xml:space="preserve" fill="#ffffff" fill-rule="nonzero" stroke="none" stroke-width="1" stroke-linecap="butt" stroke-linejoin="miter" stroke-miterlimit="10" stroke-dasharray="" stroke-dashoffset="0" font-family="Serif" font-weight="normal" text-anchor="start" style="mix-blend-mode: normal"><tspan x="0" dy="0">Gems</tspan></text></g></g></svg>