<svg version="1.1" xmlns="http://www.w3.org/2000/svg" xmlns:xlink="http://www.w3.org/1999/xlink" width="59" height="60.2166" viewBox="0,0,59,60.2166"><defs><linearGradient x1="270.00005" y1="169.35813" x2="270.00005" y2="208.35331" gradientUnits="userSpaceOnUse" id="color-1"><stop offset="0" stop-color="#181818"/><stop offset="1" stop-color="#050505"/></linearGradient><linearGradient x1="270.00005" y1="169.35813" x2="270.00005" y2="208.35331" gradientUnits="userSpaceOnUse" id="color-2"><stop offset="0" stop-color="#cccccc"/><stop offset="1" stop-color="#898989"/></linearGradient><radialGradient cx="270.20358" cy="189.16109" r="26.44994" gradientUnits="userSpaceOnUse" id="color-3"><stop offset="0" stop-color="#ffffff" stop-opacity="0.14029"/><stop offset="1" stop-color="#ffffff" stop-opacity="0"/></radialGradient><linearGradient x1="270.20358" y1="171.76584" x2="270.20358" y2="206.55634" gradientUnits="userSpaceOnUse" id="color-4"><stop offset="0" stop-color="#cccccc"/><stop offset="1" stop-color="#898989"/></linearGradient><linearGradient x1="270.10191" y1="151.76191" x2="270.10191" y2="167.0304" gradientUnits="userSpaceOnUse" id="color-5"><stop offset="0" stop-color="#6c737c"/><stop offset="1" stop-color="#374137" stop-opacity="0.22992"/></linearGradient><linearGradient x1="270.10191" y1="151.76191" x2="270.10191" y2="167.0304" gradientUnits="userSpaceOnUse" id="color-6"><stop offset="0" stop-color="#ccdae5"/><stop offset="1" stop-color="#9fc7a4" stop-opacity="0.06998"/></linearGradient><linearGradient x1="270.79432" y1="150.40787" x2="270.79432" y2="169.25461" gradientTransform="translate(-616.43243,-402.91538) scale(2.4487,2.4487)" gradientUnits="userSpaceOnUse" id="color-7"><stop offset="0" stop-color="#e1e1e1"/><stop offset="1" stop-color="#555555"/></linearGradient><linearGradient x1="270.79432" y1="150.40787" x2="270.79432" y2="169.25461" gradientTransform="translate(-616.43243,-402.91538) scale(2.4487,2.4487)" gradientUnits="userSpaceOnUse" id="color-8"><stop offset="0" stop-color="#676767"/><stop offset="1" stop-color="#ffffff"/></linearGradient><radialGradient cx="287.2692" cy="182.53099" r="11.79631" gradientUnits="userSpaceOnUse" id="color-9"><stop offset="0" stop-color="#94f2b7"/><stop offset="1" stop-color="#58c79c"/></radialGradient><radialGradient cx="285.05192" cy="202.67751" r="10.15305" gradientUnits="userSpaceOnUse" id="color-10"><stop offset="0" stop-color="#818583"/><stop offset="1" stop-color="#52615b"/></radialGradient><linearGradient x1="283.06327" y1="184.69386" x2="281.65704" y2="200.47355" gradientUnits="userSpaceOnUse" id="color-11"><stop offset="0" stop-color="#191919"/><stop offset="1" stop-color="#050505"/></linearGradient><linearGradient x1="283.06327" y1="184.69386" x2="281.65704" y2="200.47355" gradientUnits="userSpaceOnUse" id="color-12"><stop offset="0" stop-color="#efefef"/><stop offset="1" stop-color="#afafaf"/></linearGradient><radialGradient cx="282.33263" cy="192.61546" r="6.91285" gradientUnits="userSpaceOnUse" id="color-13"><stop offset="0" stop-color="#dd5dff"/><stop offset="1" stop-color="#dd5dff" stop-opacity="0"/></radialGradient><linearGradient x1="282.94282" y1="185.76815" x2="281.72242" y2="199.46276" gradientUnits="userSpaceOnUse" id="color-14"><stop offset="0" stop-color="#cccccc"/><stop offset="1" stop-color="#898989"/></linearGradient><radialGradient cx="287.43185" cy="174.6492" r="10.15305" gradientUnits="userSpaceOnUse" id="color-15"><stop offset="0" stop-color="#818583"/><stop offset="1" stop-color="#52615b"/></radialGradient><radialGradient cx="282.82867" cy="195.26305" r="2.27613" gradientUnits="userSpaceOnUse" id="color-16"><stop offset="0" stop-color="#e1e1e1"/><stop offset="1" stop-color="#d0d0d0"/></radialGradient><linearGradient x1="283.97098" y1="193.84141" x2="283.57437" y2="198.29175" gradientUnits="userSpaceOnUse" id="color-17"><stop offset="0" stop-color="#cccccc"/><stop offset="1" stop-color="#898989"/></linearGradient><radialGradient cx="279.68302" cy="195.02313" r="2.01344" gradientUnits="userSpaceOnUse" id="color-18"><stop offset="0" stop-color="#ebebeb"/><stop offset="1" stop-color="#d9d9d9"/></radialGradient><linearGradient x1="280.69351" y1="193.76557" x2="280.34267" y2="197.70229" gradientUnits="userSpaceOnUse" id="color-19"><stop offset="0" stop-color="#cccccc"/><stop offset="1" stop-color="#898989"/></linearGradient><radialGradient cx="278.20022" cy="191.35645" r="2.76868" gradientUnits="userSpaceOnUse" id="color-20"><stop offset="0" stop-color="#ffffff"/><stop offset="1" stop-color="#dbdbdb"/></radialGradient><linearGradient x1="279.58974" y1="189.62717" x2="279.10731" y2="195.04054" gradientUnits="userSpaceOnUse" id="color-21"><stop offset="0" stop-color="#cccccc"/><stop offset="1" stop-color="#898989"/></linearGradient><radialGradient cx="283.85188" cy="191.68125" r="2.84622" gradientUnits="userSpaceOnUse" id="color-22"><stop offset="0" stop-color="#e7e7e7"/><stop offset="1" stop-color="#cbcbcb"/></radialGradient><linearGradient x1="285.28031" y1="189.90355" x2="284.78438" y2="195.46851" gradientUnits="userSpaceOnUse" id="color-23"><stop offset="0" stop-color="#cccccc"/><stop offset="1" stop-color="#898989"/></linearGradient><radialGradient cx="281.49136" cy="192.46137" r="2.76868" gradientUnits="userSpaceOnUse" id="color-24"><stop offset="0" stop-color="#f7f7f7"/><stop offset="1" stop-color="#d7d7d7"/></radialGradient><linearGradient x1="282.88088" y1="190.73209" x2="282.39846" y2="196.14546" gradientUnits="userSpaceOnUse" id="color-25"><stop offset="0" stop-color="#cccccc"/><stop offset="1" stop-color="#898989"/></linearGradient><radialGradient cx="283.55804" cy="188.45939" r="2.01344" gradientUnits="userSpaceOnUse" id="color-26"><stop offset="0" stop-color="#e2e2e2"/><stop offset="1" stop-color="#c8c8c8"/></radialGradient><linearGradient x1="284.56851" y1="187.20183" x2="284.2177" y2="191.13854" gradientUnits="userSpaceOnUse" id="color-27"><stop offset="0" stop-color="#cccccc"/><stop offset="1" stop-color="#898989"/></linearGradient><radialGradient cx="280.255" cy="188.04334" r="2.27613" gradientUnits="userSpaceOnUse" id="color-28"><stop offset="0" stop-color="#ebebeb"/><stop offset="1" stop-color="#dbdbdb"/></radialGradient><linearGradient x1="281.39733" y1="186.6217" x2="281.00072" y2="191.07203" gradientUnits="userSpaceOnUse" id="color-29"><stop offset="0" stop-color="#cccccc"/><stop offset="1" stop-color="#898989"/></linearGradient><radialGradient cx="285.24658" cy="179.60152" r="5.33009" gradientTransform="translate(-6765.99801,-3562.98679) rotate(-5.09177) scale(23.08403,23.08403)" gradientUnits="userSpaceOnUse" id="color-30"><stop offset="0" stop-color="#0d2a22"/><stop offset="1" stop-color="#000000"/></radialGradient><radialGradient cx="290.02983" cy="182.24337" r="10.30929" gradientTransform="translate(-3480.19529,-2009.08073) rotate(-5.45302) scale(11.94152,12.77541) skewX(-0.74509)" gradientUnits="userSpaceOnUse" id="color-31"><stop offset="0" stop-color="#0d2a22"/><stop offset="1" stop-color="#000000"/></radialGradient></defs><g transform="translate(-240.50005,-149.63671)"><g data-paper-data="{&quot;isPaintingLayer&quot;:true}" fill-rule="nonzero" stroke-linecap="butt" stroke-linejoin="miter" stroke-miterlimit="10" stroke-dasharray="" stroke-dashoffset="0" style="mix-blend-mode: normal"><path d="M242.00005,208.35331v-38.99518h56v38.99518z" fill="url(#color-1)" stroke="url(#color-2)" stroke-width="3"/><path d="M296.65353,189.16109c0,9.60713 -11.84205,17.39525 -26.44994,17.39525c-14.6079,0 -26.44994,-7.78812 -26.44994,-17.39525c0,-9.60713 11.84205,-17.39525 26.44994,-17.39525c14.6079,0 26.44994,7.78812 26.44994,17.39525z" fill="url(#color-3)" stroke="url(#color-4)" stroke-width="0"/><path d="M245.06971,179.4218v-7.06998h20.78327v7.06998z" fill-opacity="0.53453" fill="#000000" stroke="#a60000" stroke-width="0"/><text transform="translate(245.50355,177.9525) scale(0.18022,0.18022)" font-size="40" xml:space="preserve" fill="#ffffff" fill-rule="nonzero" stroke="#000000" stroke-width="0" stroke-linecap="butt" stroke-linejoin="miter" stroke-miterlimit="10" stroke-dasharray="" stroke-dashoffset="0" font-family="Serif" font-weight="normal" text-anchor="start" style="mix-blend-mode: normal"><tspan x="0" dy="0">Cotton</tspan></text><path d="M245.06972,185.5292v-7.06998h17.76685v7.06998z" fill-opacity="0.53453" fill="#000000" stroke="#a60000" stroke-width="0"/><text transform="translate(245.50356,184.0599) scale(0.18022,0.18022)" font-size="40" xml:space="preserve" fill="#ffffff" fill-rule="nonzero" stroke="#000000" stroke-width="0" stroke-linecap="butt" stroke-linejoin="miter" stroke-miterlimit="10" stroke-dasharray="" stroke-dashoffset="0" font-family="Serif" font-weight="normal" text-anchor="start" style="mix-blend-mode: normal"><tspan x="0" dy="0">Seeds</tspan></text><path d="M250.82553,167.0304v-15.26848h38.55264v15.26848z" fill="url(#color-5)" stroke="url(#color-6)" stroke-width="1"/><text transform="translate(251.73868,164.54258) scale(0.40838,0.40838)" font-size="40" xml:space="preserve" fill="url(#color-7)" fill-rule="nonzero" stroke="url(#color-8)" stroke-width="1" stroke-linecap="butt" stroke-linejoin="miter" stroke-miterlimit="10" stroke-dasharray="" stroke-dashoffset="0" font-family="Serif" font-weight="normal" text-anchor="start" style="mix-blend-mode: normal"><tspan x="0" dy="0">$6.00</tspan></text><g><path d="M271.57468,201.24079l2.15106,-24.13774l20.10902,1.79204l-2.15106,24.13774z" fill="url(#color-9)" stroke="none" stroke-width="0"/><path d="M271.37541,202.75496l0.1667,-1.87061l20.22593,1.80246l-0.1667,1.87061z" fill="url(#color-10)" stroke="none" stroke-width="0"/><path d="M273.9355,199.78544l1.40623,-15.77969l15.44307,1.37622l-1.40623,15.77969z" fill="url(#color-11)" stroke="url(#color-12)" stroke-width="1.5"/><path d="M289.21819,193.22907c-0.33701,3.78166 -3.69298,6.57258 -7.49576,6.23369c-3.80279,-0.33889 -6.61236,-3.67925 -6.27535,-7.46092c0.33701,-3.78166 3.69298,-6.57258 7.49576,-6.23369c3.80279,0.33889 6.61236,3.67925 6.27535,7.46092z" fill="url(#color-13)" stroke="url(#color-14)" stroke-width="0"/><path d="M273.64092,177.3329l0.4061,-4.557l1.24072,0.60084l1.33035,-0.37172l1.23972,0.58669l1.32277,-0.35833l1.24716,0.61381l1.31535,-0.38545l1.15428,0.57908l1.29175,-0.3611l1.24961,0.64048l1.3129,-0.41212l1.28329,0.66994l1.40951,-0.45643l1.24385,0.66642l1.26509,-0.49575l1.09955,0.68003l1.22005,-0.39394l-0.4061,4.557zM280.66269,175.87093c-0.0258,0.39053 0.08063,0.57758 3.24379,0.85669c3.03779,0.26804 3.2402,0.08625 3.28782,-0.26939c0.05848,-0.43673 -0.23262,-0.6383 -3.21994,-0.9357c-2.88459,-0.28718 -3.28409,-0.06914 -3.31167,0.34841z" fill="url(#color-15)" stroke="none" stroke-width="0"/><g stroke-width="0"><path d="M286.28379,196.11749c-0.05411,0.60718 -0.35827,1.40613 -0.90342,1.86186c-0.55825,0.46667 -1.36437,0.58223 -1.99787,0.52578c-0.56098,-0.04999 -1.02952,-0.33957 -1.36598,-0.75455c-0.41453,-0.51124 -0.6286,-1.2128 -0.56815,-1.89114c0.06557,-0.7358 0.36058,-1.27249 0.90957,-1.64844c0.36793,-0.25196 0.88705,-0.49191 1.38948,-0.44713c0.60494,0.05391 1.36237,0.27127 1.84793,0.66872c0.51947,0.42519 0.74504,1.04972 0.68843,1.68491z" data-paper-data="{&quot;index&quot;:null}" fill="url(#color-16)" stroke="url(#color-17)"/><path d="M282.73938,195.77897c-0.04787,0.5371 -0.31692,1.24384 -0.79915,1.64697c-0.49381,0.41281 -1.20691,0.51503 -1.76728,0.4651c-0.49625,-0.04423 -0.9107,-0.30039 -1.20834,-0.66746c-0.36668,-0.45225 -0.55605,-1.07284 -0.50258,-1.67287c0.058,-0.65088 0.31895,-1.12563 0.80459,-1.45819c0.32547,-0.22288 0.78467,-0.43514 1.22912,-0.39553c0.53512,0.04769 1.20514,0.23996 1.63467,0.59155c0.45952,0.37613 0.65907,0.92856 0.609,1.49045z" data-paper-data="{&quot;index&quot;:null}" fill="url(#color-18)" stroke="url(#color-19)"/><path d="M282.40301,192.39579c-0.06582,0.73857 -0.4358,1.71042 -1.09892,2.26475c-0.67905,0.56764 -1.65963,0.70824 -2.4302,0.63957c-0.68238,-0.06081 -1.25231,-0.41307 -1.66157,-0.91784c-0.50423,-0.62187 -0.76463,-1.47526 -0.6911,-2.30038c0.07976,-0.89502 0.4386,-1.54784 1.10639,-2.00516c0.44755,-0.30649 1.079,-0.59836 1.69016,-0.54389c0.73584,0.06557 1.65718,0.32997 2.24782,0.81342c0.63188,0.51721 0.90628,1.27687 0.83742,2.04952z" fill="url(#color-20)" stroke="url(#color-21)"/><path d="M288.17237,192.7497c-0.06766,0.75924 -0.448,1.75831 -1.12969,2.32817c-0.69806,0.58355 -1.70609,0.72807 -2.49825,0.65748c-0.70148,-0.06251 -1.28737,-0.42463 -1.70811,-0.94354c-0.51835,-0.63929 -0.78605,-1.51657 -0.71046,-2.36479c0.08199,-0.92009 0.45088,-1.5912 1.13736,-2.06132c0.46008,-0.31507 1.10923,-0.6151 1.73749,-0.55911c0.75645,0.06741 1.70358,0.33921 2.31076,0.83621c0.64958,0.53169 0.93165,1.31262 0.86087,2.10691z" fill="url(#color-22)" stroke="url(#color-23)"/><path d="M285.69416,193.50071c-0.06582,0.73857 -0.4358,1.71041 -1.09891,2.26475c-0.67905,0.56764 -1.65963,0.70823 -2.43019,0.63956c-0.68238,-0.06081 -1.25231,-0.41307 -1.66157,-0.91784c-0.50423,-0.62187 -0.76463,-1.47526 -0.6911,-2.30038c0.07976,-0.89502 0.4386,-1.54784 1.10639,-2.00516c0.44755,-0.30649 1.07899,-0.59835 1.69015,-0.54388c0.73584,0.06557 1.65718,0.32998 2.24782,0.81343c0.63188,0.51721 0.90627,1.27687 0.83741,2.04952z" fill="url(#color-24)" stroke="url(#color-25)"/><path d="M286.6144,189.21522c-0.04787,0.5371 -0.31692,1.24384 -0.79915,1.64697c-0.49381,0.41281 -1.20691,0.51503 -1.76729,0.46509c-0.49625,-0.04423 -0.9107,-0.30038 -1.20833,-0.66746c-0.36668,-0.45225 -0.55605,-1.07284 -0.50258,-1.67288c0.058,-0.65088 0.31897,-1.12563 0.80459,-1.45819c0.32547,-0.22288 0.78467,-0.43513 1.22911,-0.39552c0.53512,0.04769 1.20514,0.23996 1.63467,0.59154c0.45952,0.37613 0.65906,0.92856 0.60899,1.49045z" fill="url(#color-26)" stroke="url(#color-27)"/><path d="M283.71011,188.89778c-0.05411,0.60718 -0.35827,1.40613 -0.90341,1.86186c-0.55825,0.46667 -1.36437,0.58223 -1.99787,0.52578c-0.56098,-0.04999 -1.02952,-0.33957 -1.36598,-0.75455c-0.41453,-0.51124 -0.6286,-1.2128 -0.56815,-1.89114c0.06557,-0.7358 0.36057,-1.27249 0.90956,-1.64844c0.36793,-0.25196 0.88705,-0.49191 1.38948,-0.44713c0.60494,0.05391 1.36236,0.27127 1.84793,0.66872c0.51947,0.42519 0.74504,1.04971 0.68843,1.6849z" fill="url(#color-28)" stroke="url(#color-29)"/></g><text transform="translate(278.24777,179.75275) rotate(5.09177) scale(0.04332,0.04332)" font-size="40" xml:space="preserve" fill="url(#color-30)" fill-rule="nonzero" stroke="#000000" stroke-width="0.5" stroke-linecap="butt" stroke-linejoin="miter" stroke-miterlimit="10" stroke-dasharray="" stroke-dashoffset="0" font-family="Serif" font-weight="normal" text-anchor="start" style="mix-blend-mode: normal"><tspan x="0" dy="0">Samuel's Seeds</tspan></text><text transform="translate(276.50205,182.43723) rotate(5.09315) scale(0.08379,0.07823) skewX(0.00023)" font-size="40" xml:space="preserve" fill="url(#color-31)" fill-rule="nonzero" stroke="#000000" stroke-width="0.5" stroke-linecap="butt" stroke-linejoin="miter" stroke-miterlimit="10" stroke-dasharray="" stroke-dashoffset="0" font-family="Serif" font-weight="normal" text-anchor="start" style="mix-blend-mode: normal"><tspan x="0" dy="0">COTTON</tspan></text></g></g></g></svg>