<svg version="1.1" xmlns="http://www.w3.org/2000/svg" xmlns:xlink="http://www.w3.org/1999/xlink" width="84.67348" height="104.4833" viewBox="0,0,84.67348,104.4833"><defs><radialGradient cx="238.5245" cy="177.75476" r="22.57159" gradientUnits="userSpaceOnUse" id="color-1"><stop offset="0" stop-color="#3c3c3c"/><stop offset="1" stop-color="#939393"/></radialGradient><linearGradient x1="239.74789" y1="156.06832" x2="239.74789" y2="162.91937" gradientUnits="userSpaceOnUse" id="color-2"><stop offset="0" stop-color="#696969"/><stop offset="1" stop-color="#a0a0a0"/></linearGradient><radialGradient cx="235.71184" cy="133.41612" r="13.11833" gradientUnits="userSpaceOnUse" id="color-3"><stop offset="0" stop-color="#dcdcdc"/><stop offset="1" stop-color="#a0a0a0"/></radialGradient><radialGradient cx="240.42561" cy="140.5663" r="9.85359" gradientUnits="userSpaceOnUse" id="color-4"><stop offset="0" stop-color="#c5dfff"/><stop offset="1" stop-color="#219cff"/></radialGradient><radialGradient cx="231.15047" cy="133.73429" r="10.07074" gradientUnits="userSpaceOnUse" id="color-5"><stop offset="0" stop-color="#303030"/><stop offset="1" stop-color="#292929"/></radialGradient><radialGradient cx="247.57857" cy="130.55444" r="2.65078" gradientUnits="userSpaceOnUse" id="color-6"><stop offset="0" stop-color="#787878"/><stop offset="1" stop-color="#292929"/></radialGradient><radialGradient cx="236.42627" cy="132.71947" r="4.17314" gradientUnits="userSpaceOnUse" id="color-7"><stop offset="0" stop-color="#a7a7a7"/><stop offset="1" stop-color="#292929"/></radialGradient></defs><g transform="translate(-199.40067,-129.64767)"><g data-paper-data="{&quot;isPaintingLayer&quot;:true}" fill-rule="nonzero" stroke-linejoin="miter" stroke-miterlimit="10" stroke-dasharray="" stroke-dashoffset="0" style="mix-blend-mode: normal"><path d="M223.55681,200.32636v-45.14319h29.93538v45.14319z" fill="url(#color-1)" stroke="#ed6b00" stroke-width="0" stroke-linecap="butt"/><g stroke="#000000" stroke-width="0" stroke-linecap="butt"><path d="M274.41422,174.23609c0,0 -2.39817,-1.8384 -5.71463,-2.987c-0.79753,-0.27622 -3.34137,-1.34433 -4.16307,-1.62055c-1.94472,-0.6538 -3.8935,-1.23757 -5.07724,-1.66565c-2.54603,-0.92069 -5.74698,-2.15638 -5.74698,-2.15638c0,0 -6.2161,-2.56665 -5.98878,-3.56946c1.32943,-5.86477 7.67876,-1.71506 7.67876,-1.71506c0,0 4.59705,1.69534 7.30398,2.67424c1.10166,0.39837 1.74248,1.22729 3.42721,1.9064c0.75522,0.30443 3.82124,2.03388 5.73848,3.00834c3.19215,1.62247 5.27923,2.28634 5.27923,2.28634z" data-paper-data="{&quot;index&quot;:null}" fill="#bdbdbd"/><path d="M281.18244,172.45509c-0.11755,0.1721 3.29238,1.73855 2.85252,2.50062c-0.21636,0.37482 -2.17505,-1.10375 -3.18929,-0.96376c-0.53687,0.0741 3.95371,1.67489 2.99897,2.45719c-0.32778,0.26857 -3.23283,-1.57896 -4.15115,-1.59527c-0.4916,-0.00873 4.652,2.37373 4.05329,2.92c-0.35541,0.3243 -2.92049,-1.51303 -4.30904,-1.89334c-0.67647,-0.18528 3.24461,2.11737 2.70256,2.4524c-0.3318,0.20507 -4.26881,-1.85413 -4.33057,-1.84461c-0.34708,0.0535 1.70042,1.94285 1.00296,1.87493c-1.28538,-0.12517 -2.11459,-1.60944 -2.95861,-2.87821c-0.49313,-0.74131 -1.52204,-1.32042 -1.52204,-1.32042c0,0 0.32924,-1.63785 0.79132,-2.28596c0.44992,-0.63105 1.94565,-1.55283 1.94565,-1.55283c0,0 4.36239,1.76464 4.11338,2.12922z" data-paper-data="{&quot;index&quot;:null}" fill="#777777"/></g><g><path d="M253.24275,226.22996c0,0 -7.05732,-24.81604 -8.86856,-28.92407c-0.59225,-1.34328 -3.63736,-0.7994 -3.63736,-0.7994c0,0 -3.82411,-3.53883 -0.27159,-4.27855c3.00242,-0.62517 10.06069,0.13463 10.06069,0.13463l10.55188,32.23597z" data-paper-data="{&quot;index&quot;:null}" fill="#494949" stroke="#000000" stroke-width="0" stroke-linecap="butt"/><path d="M268.14344,230.28262c-0.58031,0.12083 -2.58581,0.55236 -4.61922,0.89348c-1.23626,0.2074 -1.98815,-0.21707 -2.93105,-0.16664c-1.18705,0.06349 -2.8319,0.81486 -3.70234,0.80048c-1.60392,-0.02648 -2.48333,-0.27742 -2.48333,-0.27742c0,0 -0.47249,-0.94902 -0.60286,-1.49429c-0.17566,-0.73462 -0.35629,-2.51723 -0.35629,-2.51723c0,0 5.78527,-1.32674 8.0924,-1.60252c1.36518,-0.16318 4.28337,-0.23121 4.28337,-0.23121c0,0 1.5546,0.3051 1.85082,0.67982c0.36279,0.45893 1.26012,1.76891 1.26012,1.76891c0,0 0.0179,1.97803 -0.79163,2.14659z" data-paper-data="{&quot;index&quot;:null}" fill="#141415" stroke="#000000" stroke-width="0" stroke-linecap="butt"/><path d="M267.35336,227.81709c-0.24301,0.0506 1.01415,1.42483 -2.29138,1.83881c-3.12149,0.39094 -2.96041,-0.5973 -4.05806,-0.45106c-2.29523,0.30576 -2.41202,1.11003 -3.42188,1.16405c-0.3517,0.01881 -0.5253,-0.00761 -1.94492,-0.58619c-0.97633,-0.3979 -1.00867,-1.57877 -1.72388,-2.07139c-1.04472,-0.7196 -1.17591,-1.68139 -1.17591,-1.68139l-0.69604,-2.96818c0,0 0.92601,2.06134 1.91537,2.69742c0.88522,0.56911 2.26442,-0.49066 2.73793,-0.58939c0.82912,-0.17289 -1.34059,-3.059 -0.54411,-3.2062c0.42829,-0.07915 3.59687,-0.98806 3.59687,-0.98806c0,0 0.8502,3.47964 1.08237,3.45189c1.36518,-0.16318 4.63951,-0.30537 4.63951,-0.30537c0,0 1.5546,0.3051 1.85082,0.67981c0.36279,0.45893 1.22044,2.76807 1.22044,2.76807c0,0 -0.3776,0.07863 -1.18714,0.24719z" data-paper-data="{&quot;index&quot;:null}" fill="#252527" stroke="#000000" stroke-width="0" stroke-linecap="butt"/><path d="M259.44107,226.46297l2.38922,-1.61222" fill="none" stroke="#ffffff" stroke-width="0.5" stroke-linecap="round"/><path d="M261.41465,226.42362l2.19636,-1.94365" fill="none" stroke="#ffffff" stroke-width="0.5" stroke-linecap="round"/><path d="M264.72887,224.49492l-1.12795,1.72117" fill="none" stroke="#ffffff" stroke-width="0.5" stroke-linecap="round"/><path d="M259.55036,222.22898l-2.08739,0.68236" fill="none" stroke="#969696" stroke-width="0.5" stroke-linecap="round"/><path d="M258.11086,223.64346l1.82525,-0.75164" fill="none" stroke="#969696" stroke-width="0.5" stroke-linecap="round"/></g><g><path d="M219.38525,224.32643l10.67511,-32.19537c0,0 7.06113,-0.7328 10.06114,-0.09615c3.54968,0.75329 -0.28794,4.27748 -0.28794,4.27748c0,0 -3.043,-0.55552 -3.6404,0.78548c-1.82694,4.10108 -8.97912,28.88993 -8.97912,28.88993z" fill="#494949" stroke="#000000" stroke-width="0" stroke-linecap="butt"/><path d="M233.41632,232.47338c0,0 -0.78006,1.81782 -1.58894,1.64616c-0.57985,-0.12304 -2.58935,-0.53554 -4.58799,-1.04202c-1.21513,-0.30793 -1.73246,-0.99921 -2.61585,-1.33269c-1.11214,-0.41985 -2.92028,-0.39435 -3.71126,-0.75798c-1.4575,-0.67004 -2.16143,-1.25382 -2.16143,-1.25382c0,0 -0.05041,-1.05892 0.04982,-1.61055c0.13501,-0.74316 0.68741,-2.44764 0.68741,-2.44764c0,0 5.82979,1.11494 8.05267,1.79145c1.31534,0.40032 4.01392,1.51302 4.01392,1.51302c0,0 1.30015,0.90521 1.42043,1.36749c0.1473,0.56617 0.44121,2.12658 0.44121,2.12658z" data-paper-data="{&quot;index&quot;:null}" fill="#141415" stroke="#000000" stroke-width="0" stroke-linecap="butt"/><path d="M233.28306,231.79632c0,0 -0.37729,-0.08007 -1.18618,-0.25172c-0.24282,-0.05153 0.3546,1.71257 -2.83783,0.76057c-3.01468,-0.899 -2.46932,-1.73872 -3.53296,-2.04683c-2.22407,-0.64427 -2.65482,0.04488 -3.60095,-0.31229c-0.3295,-0.12439 -0.47777,-0.21847 -1.54427,-1.31968c-0.73347,-0.75733 -0.28762,-1.85126 -0.74393,-2.59016c-0.66655,-1.07934 -0.39938,-2.01255 -0.39938,-2.01255l0.55798,-2.9972c0,0 0.01764,2.2597 0.66717,3.24032c0.58115,0.87736 2.27031,0.46263 2.74348,0.56291c0.82854,0.17559 0.00457,-3.33986 0.79291,-3.15391c0.42389,0.09998 3.69025,0.54384 3.69025,0.54384c0,0 -0.62282,3.52743 -0.39911,3.59552c1.31533,0.40032 4.36977,1.58853 4.36977,1.58853c0,0 1.30015,0.90522 1.42043,1.36749c0.1473,0.56617 0.0026,3.02517 0.0026,3.02517z" data-paper-data="{&quot;index&quot;:null}" fill="#252527" stroke="#000000" stroke-width="0" stroke-linecap="butt"/><path d="M225.39956,227.11927l2.83615,-0.51378" fill="none" stroke="#ffffff" stroke-width="0.5" stroke-linecap="round"/><path d="M227.22192,227.87789l2.79303,-0.89479" fill="none" stroke="#ffffff" stroke-width="0.5" stroke-linecap="round"/><path d="M231.03216,227.44688l-1.72548,1.12135" fill="none" stroke="#ffffff" stroke-width="0.5" stroke-linecap="round"/><path d="M227.20435,223.28765l-2.18546,-0.21587" fill="none" stroke="#969696" stroke-width="0.5" stroke-linecap="round"/><path d="M225.31716,224.00279l1.9734,0.0469" fill="none" stroke="#969696" stroke-width="0.5" stroke-linecap="round"/></g><path d="M235.91981,162.91937v-6.85104h7.65615v6.85104z" fill="url(#color-2)" stroke="#000000" stroke-width="0" stroke-linecap="butt"/><path d="M252.80946,143.64573c0,7.73092 -5.73774,13.99807 -12.8156,13.99807c-7.07786,0 -12.8156,-6.26715 -12.8156,-13.99807c0,-7.73092 5.73774,-13.99806 12.8156,-13.99806c7.07786,0 12.8156,6.26714 12.8156,13.99806z" fill="url(#color-3)" stroke="none" stroke-width="0" stroke-linecap="butt"/><path d="M229.63981,193.59141c0,0 0.16709,-5.5597 -0.35268,-10.94382c-0.35317,-3.65847 -1.40473,-6.95919 -1.56162,-9.45339c-0.29447,-4.68133 -0.2105,-13.38223 -0.2105,-13.38223c0,0 3.69178,-0.58477 5.4694,-0.21857c2.26281,0.46615 7.00656,2.78867 7.00656,2.78867c0,0 3.67689,-2.17061 5.59031,-2.58687c2.01891,-0.43921 6.22369,0.01677 6.22369,0.01677c0,0 -0.06905,9.21711 -0.22689,12.65629c-0.13965,3.04285 -0.88957,6.36811 -1.18346,10.87293c-0.3029,4.64296 -0.14784,10.42155 -0.14784,10.42155c0,0 -2.75697,-0.76932 -5.57187,-0.83754c-1.27833,-0.03098 -1.79126,1.00612 -2.99851,1.16532c-0.96496,0.12724 -2.63623,-0.61291 -3.56107,-0.64966c-0.69915,-0.02778 -2.04377,-0.5306 -2.53801,-0.53471c-0.99795,-0.0083 -1.61572,0.86529 -2.77345,1.02464c-1.34484,0.1851 -3.1641,-0.33939 -3.1641,-0.33939z" fill="#d0d0d0" stroke="#292e32" stroke-width="0" stroke-linecap="butt"/><path d="M242.73591,170.5071l-0.12126,-5.82045l7.63934,0.36378v5.21415z" fill="#f200ff" stroke="none" stroke-width="0" stroke-linecap="butt"/><g stroke="#000000" stroke-width="0" stroke-linecap="butt"><path d="M204.28185,179.64807c0,0 1.77218,-1.31428 4.16635,-3.97704c1.43797,-1.59928 3.64838,-4.34074 4.25621,-4.88533c1.35592,-1.21488 1.57437,-2.29034 2.48482,-3.03562c2.23709,-1.83131 6.01906,-4.97672 6.01906,-4.97672c0,0 4.61232,-6.46225 9.22544,-0.3518c0.73645,0.97548 -4.75682,5.54608 -4.75682,5.54608c0,0 -2.60463,2.24951 -4.70874,3.97196c-0.97828,0.80083 -2.65181,1.9892 -4.2848,3.25169c-0.68996,0.53344 -2.71505,2.41369 -3.3805,2.94011c-2.76725,2.18913 -4.24313,4.85552 -4.24313,4.85552z" fill="#bdbdbd"/><path d="M201.15148,183.21989c-0.44346,-0.31915 3.05646,-3.48019 3.05646,-3.48019c0,0 1.99965,0.55551 2.78641,1.10242c0.80806,0.56171 1.99972,2.22465 1.99972,2.22465c0,0 -0.74017,0.92047 -0.85204,1.85953c-0.19149,1.60728 -0.25508,3.4416 -1.49312,3.94913c-0.67174,0.2754 0.41526,-2.34754 0.03523,-2.30421c-0.06761,0.00771 -2.98189,3.36152 -3.42577,3.23766c-0.72514,-0.20237 2.04546,-3.81291 1.45646,-3.41763c-1.20902,0.81141 -2.84816,3.52869 -3.37843,3.2837c-0.89328,-0.41272 3.07537,-4.46384 2.5814,-4.31177c-0.92276,0.2841 -2.90135,3.11105 -3.37442,2.91784c-1.37794,-0.56279 2.3378,-3.58507 1.75454,-3.50879c-1.10192,0.1441 -2.31397,2.30022 -2.72968,1.96057c-0.8452,-0.69054 1.7926,-3.36225 1.58327,-3.51292z" data-paper-data="{&quot;index&quot;:null}" fill="#777777"/></g><g stroke-linecap="butt"><path d="M253.22395,143.29196c0,3.74486 0.0384,8.21376 -9.59547,8.69146c-10.76272,0.53367 -10.10384,-4.9466 -10.10384,-8.69146c0,-3.74486 4.40985,-6.78067 9.84967,-6.78067c5.43982,0 9.84967,3.03581 9.84967,6.78067z" data-paper-data="{&quot;index&quot;:null}" fill="url(#color-4)" stroke="#ed6b00" stroke-width="0"/><path d="M233.84087,133.74382c-0.16984,0.01553 -0.60661,0.06221 -1.07903,0.1438c-0.52185,0.20742 -1.13106,0.41772 -1.59752,0.64771c-0.28909,0.89276 0.78709,1.80702 -0.65422,2.4752c-2.45813,1.13958 -1.71655,-2.03888 -0.89769,-3.03685c1.27069,-1.10653 3.14359,-1.2394 4.75566,-1.549c2.22048,-0.42645 4.38435,-1.08334 6.57971,-1.21737c0.08249,-0.08622 0.19535,-0.14411 0.32353,-0.15569l0.58612,-0.0529c0.29539,-0.07774 0.61637,-0.15861 0.95355,-0.23507c0.87645,-0.27394 1.93099,-0.41625 2.91353,-0.50866c0.4818,-0.09462 0.9333,-0.1389 1.30669,-0.10536c0.27388,-0.02025 0.5286,-0.03932 0.7561,-0.05986l0.61787,-0.05577c0.28142,-0.0254 0.53014,0.18214 0.55554,0.46356c0.0226,0.25047 -0.13931,0.47504 -0.37361,0.53931l-0.32968,0.09745c0.145,0.12181 0.27656,0.26112 0.39244,0.4197l0.23414,-0.11908l0.29765,0.58522c0.03177,0.05903 0.05238,0.12532 0.05879,0.19629c0.0254,0.28142 -0.18214,0.53014 -0.46355,0.55553c-0.08558,0.00772 -0.16814,-0.00609 -0.24232,-0.03698l-0.50702,-0.19878l0.00585,-0.01492l-0.04787,-0.00377c-0.36209,-0.22374 -0.73047,-0.39249 -1.09838,-0.50678c-0.55947,-0.02006 -1.148,-0.08122 -1.74789,-0.1302c-1.01464,0.1745 -1.9334,0.80247 -2.5904,1.87097c0,0 -0.26893,0.43524 -0.70416,0.1663c-0.43523,-0.26893 -0.1663,-0.70417 -0.1663,-0.70417c0.0575,-0.09265 0.11686,-0.18277 0.17799,-0.27034l-0.28392,0.09053c-0.03801,0.01299 -0.07817,0.02169 -0.11996,0.02546c-0.28142,0.0254 -0.53014,-0.18214 -0.55553,-0.46356c-0.01286,-0.14243 0.03395,-0.27647 0.11981,-0.37743c-0.2451,0.00049 -0.4766,0.01384 -0.6735,0.06241c-1.37524,0.33924 -3.48763,0.45199 -5.48058,0.75785c0.01121,0.24126 -0.14794,0.45435 -0.37516,0.51668l-0.59763,0.17665l-0.00571,-0.01931l-0.00747,0.00194z" fill="url(#color-5)" stroke="none" stroke-width="0.5"/><path d="M248.93491,130.01279c2.70896,-0.28418 2.68558,-0.24349 2.90043,1.58673c0.21485,1.83022 -0.78194,3.36186 -2.22639,3.42102c-1.44446,0.05917 -2.7896,-1.37656 -3.00445,-3.20678c-0.21485,-1.83022 -0.20983,-1.53449 2.33041,-1.80097z" data-paper-data="{&quot;index&quot;:null}" fill="url(#color-6)" stroke="#000000" stroke-width="0"/><path d="M242.31489,132.69365c0.35755,1.99142 -1.17444,3.9329 -3.4218,4.33639c-2.24735,0.40349 -4.35904,-0.88377 -4.71659,-2.8752c-0.35755,-1.99142 -0.40888,-2.02662 3.87102,-2.60142c4.01334,-0.53901 3.90982,-0.85119 4.26737,1.14023z" fill="url(#color-7)" stroke="#000000" stroke-width="0"/></g></g></g></svg>