<svg version="1.1" xmlns="http://www.w3.org/2000/svg" xmlns:xlink="http://www.w3.org/1999/xlink" width="101.72207" height="103.13363" viewBox="0,0,101.72207,103.13363"><defs><linearGradient x1="242.94252" y1="156.31766" x2="242.36127" y2="163.14403" gradientUnits="userSpaceOnUse" id="color-1"><stop offset="0" stop-color="#4f6d73"/><stop offset="1" stop-color="#86b9c2"/></linearGradient><radialGradient cx="240.75261" cy="134.46448" r="13.11833" gradientUnits="userSpaceOnUse" id="color-2"><stop offset="0" stop-color="#7bccb1"/><stop offset="1" stop-color="#618c94"/></radialGradient><linearGradient x1="266.29314" y1="193.25994" x2="275.93328" y2="186.17977" gradientUnits="userSpaceOnUse" id="color-3"><stop offset="0" stop-color="#242424"/><stop offset="1" stop-color="#373737"/></linearGradient><radialGradient cx="263.29603" cy="191.40283" r="3.52256" gradientUnits="userSpaceOnUse" id="color-4"><stop offset="0" stop-color="#bfbfbf"/><stop offset="1" stop-color="#9a9a9a"/></radialGradient><linearGradient x1="277.36866" y1="187.07401" x2="319.42585" y2="169.87875" gradientUnits="userSpaceOnUse" id="color-5"><stop offset="0" stop-color="#b2b2b2"/><stop offset="1" stop-color="#c4c4c4"/></linearGradient><linearGradient x1="277.78198" y1="187.29331" x2="305.30913" y2="176.03875" gradientUnits="userSpaceOnUse" id="color-6"><stop offset="0" stop-color="#cccccc"/><stop offset="1" stop-color="#d8d8d8"/></linearGradient><linearGradient x1="274.88278" y1="187.65672" x2="277.15756" y2="186.77325" gradientUnits="userSpaceOnUse" id="color-7"><stop offset="0" stop-color="#b5b5b5"/><stop offset="1" stop-color="#c5c5c5"/></linearGradient></defs><g transform="translate(-224.49596,-131.19277)"><g data-paper-data="{&quot;isPaintingLayer&quot;:true}" fill-rule="nonzero" stroke-linejoin="miter" stroke-miterlimit="10" stroke-dasharray="" stroke-dashoffset="0" style="mix-blend-mode: normal"><path d="M278.70184,192.06719c-0.36565,0.29234 -2.02361,-1.77021 -2.98319,-1.90605c-0.50794,-0.0719 3.21743,2.50807 2.01063,2.98613c-0.41432,0.16412 -2.62661,-2.22948 -3.42867,-2.48573c-0.42935,-0.1372 2.99405,3.43216 2.21128,3.78381c-0.46466,0.20876 -2.02209,-1.807 -3.06892,-2.52574c-0.51,-0.35015 -3.54786,-3.30746 -3.54786,-3.30746c0,0 -1.25665,-2.3419 -3.6448,-4.28233c-0.57428,-0.46662 -2.31879,-2.12928 -2.91437,-2.60227c-1.40959,-1.11946 -3.80189,-4.57063 -4.64586,-5.28009c-1.81521,-1.52592 -5.02215,-10.04842 -5.02215,-10.04842l4.72693,-2.47053c0,0 1.97134,4.75562 4.75361,9.47633c2.98929,3.75811 5.15053,6.20196 6.80382,7.77605c1.9567,1.86294 4.14719,4.57408 4.14719,4.57408c0,0 1.65658,1.78677 2.95119,3.37412c1.16487,1.42828 2.00329,2.65655 1.65119,2.93808z" data-paper-data="{&quot;index&quot;:null}" fill="#669093" stroke="#000000" stroke-width="0" stroke-linecap="butt"/><path d="M252.0606,160.81658c4.95571,-2.14947 6.31169,0.70188 6.88809,2.32807c0.57639,1.6262 2.04775,0.79587 -2.50266,2.74635c-3.84609,1.64858 -3.38445,1.17079 -3.96083,-0.4554c-0.57639,-1.6262 -3.00547,-3.49959 -0.42459,-4.619z" data-paper-data="{&quot;index&quot;:null}" fill="#314247" stroke="#000000" stroke-width="0" stroke-linecap="butt"/><g><path d="M226.1234,227.23575l3.75904,-33.71008c0,0 6.75518,-2.18267 9.822,-2.18267c3.62872,0 0.6063,4.24407 0.6063,4.24407c0,0 -3.09204,0.08829 -3.39803,1.52409c-0.93579,4.39099 -2.78619,30.12458 -2.78619,30.12458z" fill="#453d36" stroke="#000000" stroke-width="0" stroke-linecap="butt"/><path d="M241.62211,232.14463c0,0 -0.3857,1.94015 -1.2126,1.94015c-0.59276,0 -2.64411,0.01366 -4.70436,-0.06689c-1.25258,-0.04897 -1.90215,-0.61779 -2.83553,-0.76063c-1.17507,-0.17983 -2.93853,0.22047 -3.78777,0.02896c-1.56485,-0.35288 -2.37463,-0.77781 -2.37463,-0.77781c0,0 -0.26912,-1.02539 -0.2856,-1.5858c-0.02221,-0.755 0.16433,-2.53701 0.16433,-2.53701c0,0 5.93424,-0.11957 8.24914,0.08075c1.36979,0.11854 4.24057,0.6468 4.24057,0.6468c0,0 1.45975,0.6156 1.67337,1.04283c0.26162,0.52325 0.87307,1.98866 0.87307,1.98866z" data-paper-data="{&quot;index&quot;:null}" fill="#141415" stroke="#000000" stroke-width="0" stroke-linecap="butt"/><path d="M241.35122,231.50999c0,0 -0.38569,0 -1.21259,0c-0.24822,0 0.70239,1.60165 -2.61811,1.33311c-3.13563,-0.25359 -2.77648,-1.18823 -3.8809,-1.26883c-2.30937,-0.16854 -2.58766,0.59503 -3.58733,0.44204c-0.34815,-0.05328 -0.51271,-0.11454 -1.78458,-0.97035c-0.87471,-0.58857 -0.66566,-1.75122 -1.26542,-2.3793c-0.87609,-0.91746 -0.80847,-1.8858 -0.80847,-1.8858l-0.07637,-3.04773c0,0 0.48635,2.20682 1.32529,3.03123c0.75062,0.73761 2.3169,-0.01875 2.80058,-0.01889c0.84695,-0.00024 -0.68885,-3.26805 0.12091,-3.24981c0.43542,0.00981 3.72275,-0.23408 3.72275,-0.23408c0,0 0.12302,3.57988 0.35598,3.60004c1.36978,0.11854 4.60434,0.6468 4.60434,0.6468c0,0 1.45975,0.6156 1.67337,1.04283c0.26163,0.52325 0.63055,2.95873 0.63055,2.95873z" data-paper-data="{&quot;index&quot;:null}" fill="#252527" stroke="#000000" stroke-width="0" stroke-linecap="butt"/><path d="M232.66853,228.57138l2.66771,-1.09134" data-paper-data="{&quot;index&quot;:null}" fill="none" stroke="#ffffff" stroke-width="0.5" stroke-linecap="round"/><path d="M234.60867,228.93516l2.54644,-1.45511" data-paper-data="{&quot;index&quot;:null}" fill="none" stroke="#ffffff" stroke-width="0.5" stroke-linecap="round"/><path d="M238.24645,227.72256l-1.45512,1.45512" data-paper-data="{&quot;index&quot;:null}" fill="none" stroke="#ffffff" stroke-width="0.5" stroke-linecap="round"/><path d="M233.63859,224.44857l-2.18267,0.24252" data-paper-data="{&quot;index&quot;:null}" fill="none" stroke="#969696" stroke-width="0.5" stroke-linecap="round"/><path d="M231.94097,225.5399l1.94015,-0.36378" data-paper-data="{&quot;index&quot;:null}" fill="none" stroke="#969696" stroke-width="0.5" stroke-linecap="round"/></g><g><path d="M239.70443,191.343c3.62872,0 10.54956,2.18267 10.54956,2.18267l3.03149,33.71008h-7.63934c0,0 -1.32697,-25.53818 -2.03751,-29.57011c-0.20138,-1.1427 -3.2979,-2.07857 -3.2979,-2.07857c0,0 -3.67312,-4.24407 -0.6063,-4.24407z" fill="#453d36" stroke="#000000" stroke-width="0" stroke-linecap="butt"/><path d="M259.69261,234.32553c-0.59276,0 -2.64411,0.01365 -4.70436,-0.0669c-1.25258,-0.04897 -1.90215,-0.61779 -2.83553,-0.76063c-1.17507,-0.17982 -2.93854,0.22047 -3.78778,0.02896c-1.56485,-0.35288 -2.37463,-0.77782 -2.37463,-0.77782c0,0 -0.26911,-1.0254 -0.2856,-1.5858c-0.02221,-0.75501 0.16433,-2.53701 0.16433,-2.53701c0,0 5.93425,-0.11957 8.24914,0.08076c1.36979,0.11854 4.24057,0.6468 4.24057,0.6468c0,0 1.45976,0.6156 1.67337,1.04283c0.26162,0.52325 0.87307,1.98865 0.87307,1.98865c0,0 -0.3857,1.94015 -1.21259,1.94015z" data-paper-data="{&quot;index&quot;:null}" fill="#141415" stroke="#000000" stroke-width="0" stroke-linecap="butt"/><path d="M259.4217,231.75072c-0.24822,0 0.7024,1.60165 -2.61811,1.33311c-3.13563,-0.25358 -2.77648,-1.18823 -3.8809,-1.26883c-2.30937,-0.16854 -2.58765,0.59503 -3.58732,0.44205c-0.34815,-0.05328 -0.51271,-0.11454 -1.78459,-0.97035c-0.87472,-0.58857 -0.66566,-1.75122 -1.26542,-2.3793c-0.87609,-0.91745 -0.80847,-1.8858 -0.80847,-1.8858l-0.07637,-3.04773c0,0 0.48635,2.20681 1.32529,3.03122c0.75062,0.73761 2.3169,-0.01875 2.80058,-0.01889c0.84696,-0.00024 -0.68885,-3.26804 0.12091,-3.2498c0.43542,0.00981 3.72275,-0.23409 3.72275,-0.23409c0,0 0.12302,3.57989 0.35598,3.60005c1.36979,0.11854 4.60434,0.6468 4.60434,0.6468c0,0 1.45976,0.6156 1.67338,1.04283c0.26162,0.52325 0.63055,2.95873 0.63055,2.95873c0,0 -0.3857,0 -1.2126,0z" data-paper-data="{&quot;index&quot;:null}" fill="#252527" stroke="#000000" stroke-width="0" stroke-linecap="butt"/><path d="M254.61932,227.72079l-2.6677,1.09133" fill="none" stroke="#ffffff" stroke-width="0.5" stroke-linecap="round"/><path d="M256.43822,227.72079l-2.54645,1.45511" fill="none" stroke="#ffffff" stroke-width="0.5" stroke-linecap="round"/><path d="M256.07444,229.41842l1.45512,-1.45511" fill="none" stroke="#ffffff" stroke-width="0.5" stroke-linecap="round"/><path d="M252.92169,224.68931l-2.18266,0.24252" fill="none" stroke="#969696" stroke-width="0.5" stroke-linecap="round"/><path d="M253.16422,225.41686l-1.94015,0.36378" fill="none" stroke="#969696" stroke-width="0.5" stroke-linecap="round"/></g><path d="M238.54699,162.81925l0.58125,-6.82634l7.62855,0.64955l-0.58125,6.82634z" fill="url(#color-1)" stroke="#000000" stroke-width="0" stroke-linecap="butt"/><path d="M229.68738,192.8479c0,0 0.63817,-5.52547 0.57708,-10.93429c-0.04151,-3.67524 -0.80923,-7.05328 -0.75396,-9.5518c0.10376,-4.68943 0.92562,-13.35184 0.92562,-13.35184c0,0 3.72809,-0.26945 5.46823,0.24625c2.21511,0.65645 6.74471,3.37306 6.74471,3.37306c0,0 3.84779,-1.85084 5.78963,-2.10326c2.0489,-0.26634 6.19983,0.54473 6.19983,0.54473c0,0 -0.85079,9.17802 -1.29985,12.59141c-0.39731,3.02003 -1.42664,6.26968 -2.10167,10.73333c-0.69572,4.60052 -1.03149,10.37143 -1.03149,10.37143c0,0 -2.68176,-1.00045 -5.48072,-1.30724c-1.27109,-0.13932 -1.87016,0.85052 -3.08657,0.90673c-0.97228,0.04492 -2.57473,-0.83436 -3.49311,-0.94944c-0.69428,-0.087 -1.99138,-0.70209 -2.48349,-0.74811c-0.99365,-0.09294 -1.68331,0.72509 -2.85039,0.78565c-1.3557,0.07034 -3.1239,-0.60661 -3.1239,-0.60661z" fill="#374a50" stroke="#292e32" stroke-width="0" stroke-linecap="butt"/><g stroke="none" stroke-linecap="butt"><path d="M256.9588,145.66034c-0.62711,7.36489 -6.85253,12.84851 -13.90487,12.24801c-7.05234,-0.60049 -12.26103,-7.05771 -11.63392,-14.4226c0.62711,-7.36489 6.85253,-12.84851 13.90487,-12.24801c7.05234,0.60049 12.26103,7.05771 11.63392,14.4226z" fill="url(#color-2)" stroke-width="0"/><path d="M249.45841,150.4465c-0.99798,0.06358 -1.06155,-0.93439 -1.06155,-0.93439l-0.01954,-0.30663c-0.07973,-1.26387 -0.05655,-2.51003 -0.03186,-3.77571c0,0 0.01951,-0.99981 1.01932,-0.98029c0.99981,0.01951 0.9803,1.01932 0.9803,1.01932c-0.02362,1.21021 -0.04963,2.40122 0.02818,3.60951l0.01954,0.30663c0,0 0.06359,0.99798 -0.93439,1.06156z" fill="#191412" stroke-width="0.5"/><path d="M252.63588,146.03521c-0.2478,-1.33656 2.07695,-3.96191 2.07695,-3.96191c0,0 1.80607,2.61707 1.69402,4.25482c-0.11921,1.74252 -3.46777,1.34257 -3.77097,-0.29291z" fill="#191412" stroke-width="0.5"/><path d="M240.10856,144.86319c-0.14882,-1.40381 2.95398,-3.80246 2.95398,-3.80246c0,0 2.11524,2.69669 1.76119,4.34719c-0.37671,1.75606 -4.53307,1.17305 -4.71517,-0.54473z" data-paper-data="{&quot;index&quot;:null}" fill="#191412" stroke-width="0.5"/><path d="M239.15626,153.77611c0.03479,-0.40854 0.38492,-0.71233 0.78205,-0.67852c0.39712,0.03381 0.69086,0.39243 0.65607,0.80097c-0.03479,0.40854 -0.38491,0.71233 -0.78205,0.67852c-0.39712,-0.03381 -0.69086,-0.39243 -0.65607,-0.80097z" fill="#00ffcc" stroke-width="0.5"/><path d="M238.67142,150.75865c0.03479,-0.40854 0.38491,-0.71233 0.78204,-0.67852c0.39712,0.03381 0.69086,0.39242 0.65607,0.80097c-0.03479,0.40854 -0.38492,0.71233 -0.78205,0.67852c-0.39712,-0.03381 -0.69085,-0.39242 -0.65606,-0.80097z" fill="#00ffcc" stroke-width="0.5"/><path d="M236.35887,151.78273c0.03479,-0.40854 0.38491,-0.71233 0.78204,-0.67852c0.39712,0.03381 0.69086,0.39243 0.65607,0.80097c-0.03479,0.40854 -0.38492,0.71233 -0.78205,0.67852c-0.39712,-0.03381 -0.69085,-0.39241 -0.65606,-0.80097z" fill="#00ffcc" stroke-width="0.5"/><path d="M235.87402,148.76526c0.03479,-0.40854 0.38492,-0.71232 0.78204,-0.67851c0.39712,0.03381 0.69086,0.39242 0.65607,0.80096c-0.03479,0.40854 -0.38492,0.71233 -0.78205,0.67852c-0.39712,-0.03381 -0.69086,-0.39243 -0.65607,-0.80097z" fill="#00ffcc" stroke-width="0.5"/><path d="M252.57599,154.77742c-0.21157,-0.01801 -0.35489,-0.36381 -0.32011,-0.77236c0.03479,-0.40854 0.23451,-0.72514 0.44608,-0.70712c0.21157,0.01801 0.35488,0.36381 0.3201,0.77236c-0.03479,0.40854 -0.2345,0.72514 -0.44607,0.70712z" fill="#00ffcc" stroke-width="0.5"/><path d="M253.21994,151.85607c-0.21157,-0.01801 -0.35489,-0.36381 -0.32011,-0.77236c0.03479,-0.40854 0.23451,-0.72514 0.44608,-0.70712c0.21157,0.01801 0.35489,0.36381 0.32011,0.77236c-0.03479,0.40854 -0.23451,0.72514 -0.44608,0.70712z" fill="#00ffcc" stroke-width="0.5"/><path d="M254.29378,153.16851c-0.21157,-0.01801 -0.35489,-0.36382 -0.32011,-0.77236c0.03479,-0.40854 0.23451,-0.72513 0.44608,-0.70711c0.21157,0.01801 0.35489,0.36381 0.32011,0.77235c-0.03479,0.40854 -0.23451,0.72514 -0.44608,0.70712z" fill="#00ffcc" stroke-width="0.5"/><path d="M254.93771,150.24716c-0.21157,-0.01801 -0.35489,-0.36381 -0.32011,-0.77235c0.03479,-0.40854 0.2345,-0.72514 0.44608,-0.70712c0.21157,0.01801 0.35489,0.36382 0.32011,0.77236c-0.03479,0.40854 -0.23451,0.72513 -0.44608,0.70711z" fill="#00ffcc" stroke-width="0.5"/><path d="M246.46076,137.90657c0.03347,-0.39313 0.3793,-0.68467 0.77243,-0.6512c0.39313,0.03347 0.68467,0.3793 0.6512,0.77243c-0.03347,0.39313 -0.3793,0.68467 -0.77243,0.6512c-0.39313,-0.03347 -0.68467,-0.3793 -0.6512,-0.77243z" fill="#00ffcc" stroke-width="0.5"/><path d="M248.67123,135.23096c0.03347,-0.39313 0.3793,-0.68468 0.77243,-0.65121c0.39313,0.03347 0.68467,0.37931 0.6512,0.77244c-0.03347,0.39313 -0.3793,0.68467 -0.77243,0.6512c-0.39313,-0.03347 -0.68467,-0.3793 -0.6512,-0.77243z" fill="#00ffcc" stroke-width="0.5"/><path d="M250.39131,138.31469c0.03347,-0.39313 0.3793,-0.68467 0.77243,-0.6512c0.39313,0.03347 0.68467,0.3793 0.6512,0.77243c-0.03347,0.39313 -0.3793,0.68467 -0.77243,0.6512c-0.39313,-0.03347 -0.68467,-0.3793 -0.6512,-0.77243z" fill="#00ffcc" stroke-width="0.5"/></g><g stroke="none" stroke-width="0" stroke-linecap="butt"><path d="M266.94337,194.14527l-1.9062,-4.65721l10.24586,-4.19362l1.9062,4.65722z" fill="url(#color-3)"/><path d="M267.63713,190.08764c1.15159,1.56798 0.81406,3.77267 -0.75392,4.92425c-1.56799,1.1516 -3.77267,0.81407 -4.92426,-0.75392c-1.15161,-1.56799 -0.81407,-3.77267 0.75392,-4.92425c1.56799,-1.1516 3.77267,-0.81407 4.92426,0.75392z" fill="url(#color-4)"/><path d="M279.12881,191.37906l-3.52029,-8.61012l42.47519,-15.31453l8.13432,-0.77111l-6.14904,5.23067z" fill="url(#color-5)"/><path d="M278.93403,190.11105l-2.50588,-5.93091l35.51107,-12.69008l9.86372,-2.73873l-8.67244,4.86491z" fill="url(#color-6)"/><path d="M274.9074,174.93123c0,0 1.06507,7.93519 2.44568,11.6342c1.51585,4.06136 6.28163,11.74857 6.28163,11.74857c0,0 -7.12422,-7.0324 -8.5944,-10.97143c-1.43822,-3.85334 -0.1329,-12.41136 -0.1329,-12.41136z" fill="url(#color-7)"/></g><path d="M261.25818,192.72732c-2.35325,-0.91659 -5.07773,-2.18218 -5.07773,-2.18218c0,0 -4.01145,-1.54129 -6.93913,-3.13002c-2.47374,-1.3424 -5.63329,-3.78623 -10.10719,-6.80861c-5.3934,-4.96684 -11.27613,-12.52173 -11.27613,-12.52173l4.81778,-4.00151c0,0 7.43148,10.56642 9.91013,12.11705c1.15242,0.72094 2.93889,2.01673 4.78686,3.24571c0.7808,0.51926 3.39304,1.93508 4.1583,2.43178c3.18225,2.0655 6.40629,2.65135 6.40629,2.65135c0,0 4.62165,2.44197 5.22588,2.90743c1.24026,0.95541 4.19577,2.0178 4.12714,2.6421c-0.11561,1.05168 -5.60149,-1.61042 -5.27768,-1.15875c0.60487,0.84371 4.25205,2.53101 4.2167,3.07931c-0.10304,1.59705 -4.5428,-1.79455 -4.26578,-1.22597c0.52334,1.07417 3.57189,2.23675 3.36764,2.7766c-0.19668,0.51984 -1.95562,0.00221 -4.07306,-0.82252z" data-paper-data="{&quot;index&quot;:null}" fill="#72a2a6" stroke="#000000" stroke-width="0" stroke-linecap="butt"/><path d="M232.57669,162.22194c1.37802,1.62049 2.17315,1.42359 -1.96382,4.50627c-4.89452,3.64719 -3.09898,2.59136 -4.477,0.97087c-1.37802,-1.62049 -3.58068,-4.83017 1.77676,-8.7866c2.79008,-2.06047 3.28602,1.68896 4.66404,3.30945z" fill="#3e5359" stroke="#000000" stroke-width="0" stroke-linecap="butt"/></g></g></svg>