<svg version="1.1" xmlns="http://www.w3.org/2000/svg" xmlns:xlink="http://www.w3.org/1999/xlink" width="95.652" height="90.19816" viewBox="0,0,95.652,90.19816"><defs><radialGradient cx="240" cy="152.31126" r="47.826" gradientUnits="userSpaceOnUse" id="color-1"><stop offset="0" stop-color="#b1ffe9"/><stop offset="1" stop-color="#b1ffe9" stop-opacity="0"/></radialGradient><linearGradient x1="240" y1="107.21219" x2="240" y2="197.41034" gradientUnits="userSpaceOnUse" id="color-2"><stop offset="0" stop-color="#272727"/><stop offset="1" stop-color="#2c2c2c"/></linearGradient><linearGradient x1="199.19315" y1="151.37854" x2="281.89826" y2="151.37854" gradientUnits="userSpaceOnUse" id="color-3"><stop offset="0" stop-color="#6e2a00"/><stop offset="1" stop-color="#2f0047"/></linearGradient><linearGradient x1="199.19315" y1="151.37854" x2="281.89826" y2="151.37854" gradientUnits="userSpaceOnUse" id="color-4"><stop offset="0" stop-color="#160000"/><stop offset="1" stop-color="#000000"/></linearGradient><linearGradient x1="194.39008" y1="177.33912" x2="285.89007" y2="177.33912" gradientUnits="userSpaceOnUse" id="color-5"><stop offset="0" stop-color="#944f00"/><stop offset="1" stop-color="#56006b"/></linearGradient><linearGradient x1="194.39008" y1="177.33911" x2="285.89007" y2="177.33911" gradientUnits="userSpaceOnUse" id="color-6"><stop offset="0" stop-color="#160000"/><stop offset="1" stop-color="#000000"/></linearGradient><linearGradient x1="205.64008" y1="150.33911" x2="208.57625" y2="150.33911" gradientUnits="userSpaceOnUse" id="color-7"><stop offset="0" stop-color="#8a5000"/><stop offset="1" stop-color="#51006b"/></linearGradient><linearGradient x1="213.89806" y1="150.33909" x2="216.83422" y2="150.33909" gradientUnits="userSpaceOnUse" id="color-8"><stop offset="0" stop-color="#8a5000"/><stop offset="1" stop-color="#51006b"/></linearGradient><linearGradient x1="222.15603" y1="150.33909" x2="225.0922" y2="150.33909" gradientUnits="userSpaceOnUse" id="color-9"><stop offset="0" stop-color="#8a5000"/><stop offset="1" stop-color="#51006b"/></linearGradient><linearGradient x1="230.41401" y1="150.33911" x2="233.35019" y2="150.33911" gradientUnits="userSpaceOnUse" id="color-10"><stop offset="0" stop-color="#8a5000"/><stop offset="1" stop-color="#51006b"/></linearGradient><linearGradient x1="238.67199" y1="150.33909" x2="241.60817" y2="150.33909" gradientUnits="userSpaceOnUse" id="color-11"><stop offset="0" stop-color="#8a5000"/><stop offset="1" stop-color="#51006b"/></linearGradient><linearGradient x1="246.92998" y1="150.33909" x2="249.86615" y2="150.33909" gradientUnits="userSpaceOnUse" id="color-12"><stop offset="0" stop-color="#8a5000"/><stop offset="1" stop-color="#51006b"/></linearGradient><linearGradient x1="255.18795" y1="150.33911" x2="258.12411" y2="150.33911" gradientUnits="userSpaceOnUse" id="color-13"><stop offset="0" stop-color="#8a5000"/><stop offset="1" stop-color="#51006b"/></linearGradient><linearGradient x1="263.44593" y1="150.33909" x2="266.3821" y2="150.33909" gradientUnits="userSpaceOnUse" id="color-14"><stop offset="0" stop-color="#8a5000"/><stop offset="1" stop-color="#51006b"/></linearGradient><linearGradient x1="271.7039" y1="150.33909" x2="274.64007" y2="150.33909" gradientUnits="userSpaceOnUse" id="color-15"><stop offset="0" stop-color="#8a5000"/><stop offset="1" stop-color="#51006b"/></linearGradient><linearGradient x1="194.39008" y1="125.83911" x2="285.89007" y2="125.83911" gradientUnits="userSpaceOnUse" id="color-16"><stop offset="0" stop-color="#944f00"/><stop offset="1" stop-color="#56006b"/></linearGradient><linearGradient x1="194.39008" y1="125.83911" x2="285.89007" y2="125.83911" gradientUnits="userSpaceOnUse" id="color-17"><stop offset="0" stop-color="#160000"/><stop offset="1" stop-color="#000000"/></linearGradient><linearGradient x1="279.92341" y1="151.9391" x2="286.25674" y2="151.9391" gradientUnits="userSpaceOnUse" id="color-18"><stop offset="0" stop-color="#ff8400"/><stop offset="1" stop-color="#4100ca"/></linearGradient><linearGradient x1="279.92341" y1="151.93912" x2="286.25674" y2="151.93912" gradientUnits="userSpaceOnUse" id="color-19"><stop offset="0" stop-color="#160000"/><stop offset="1" stop-color="#000000"/></linearGradient><linearGradient x1="194.02342" y1="151.9391" x2="200.35675" y2="151.9391" gradientUnits="userSpaceOnUse" id="color-20"><stop offset="0" stop-color="#ff8400"/><stop offset="1" stop-color="#4100ca"/></linearGradient><linearGradient x1="194.02342" y1="151.9391" x2="200.35675" y2="151.9391" gradientUnits="userSpaceOnUse" id="color-21"><stop offset="0" stop-color="#160000"/><stop offset="1" stop-color="#000000"/></linearGradient><linearGradient x1="234.91667" y1="151.22222" x2="245.41667" y2="151.22222" gradientUnits="userSpaceOnUse" id="color-22"><stop offset="0" stop-color="#58a66c"/><stop offset="1" stop-color="#a45aa9"/></linearGradient><linearGradient x1="234.91667" y1="151.22222" x2="245.41667" y2="151.22222" gradientUnits="userSpaceOnUse" id="color-23"><stop offset="0" stop-color="#2f2f2f"/><stop offset="1" stop-color="#252525"/></linearGradient><linearGradient x1="222.5" y1="151.55556" x2="257.83333" y2="151.55556" gradientUnits="userSpaceOnUse" id="color-24"><stop offset="0" stop-color="#00ff24"/><stop offset="1" stop-color="#ff00f3"/></linearGradient><linearGradient x1="240.16667" y1="146.30556" x2="240.16667" y2="156.80556" gradientUnits="userSpaceOnUse" id="color-25"><stop offset="0" stop-color="#2f2f2f"/><stop offset="1" stop-color="#252525"/></linearGradient></defs><g transform="translate(-192.174,-107.21218)"><g data-paper-data="{&quot;isPaintingLayer&quot;:true}" fill-rule="nonzero" stroke-linecap="butt" stroke-linejoin="miter" stroke-miterlimit="10" stroke-dasharray="" stroke-dashoffset="0" style="mix-blend-mode: normal"><path d="M287.826,152.31126c0,24.90753 -21.41243,45.09908 -47.826,45.09908c-26.41357,0 -47.826,-20.19154 -47.826,-45.09908c0,-24.90753 21.41243,-45.09908 47.826,-45.09908c26.41357,0 47.826,20.19154 47.826,45.09908z" fill="url(#color-1)" stroke="url(#color-2)" stroke-width="0"/><path d="M199.19315,176.86494v-50.97279h82.70512v50.97279z" fill="url(#color-3)" stroke="url(#color-4)" stroke-width="1"/><path d="M194.39008,179.97245v-5.26667h91.5v5.26667z" fill="url(#color-5)" stroke="url(#color-6)" stroke-width="0.5"/><path d="M205.64008,174.33912v-48h2.93617v48z" fill="url(#color-7)" stroke="none" stroke-width="0"/><path d="M213.89806,174.33911v-48h2.93617v48z" fill="url(#color-8)" stroke="none" stroke-width="0"/><path d="M222.15603,174.3391v-48h2.93618v48z" fill="url(#color-9)" stroke="none" stroke-width="0"/><path d="M230.41401,174.33912v-48h2.93617v48z" fill="url(#color-10)" stroke="none" stroke-width="0"/><path d="M238.67199,174.33911v-48h2.93617v48z" fill="url(#color-11)" stroke="none" stroke-width="0"/><path d="M246.92998,174.3391v-48h2.93617v48z" fill="url(#color-12)" stroke="none" stroke-width="0"/><path d="M255.18795,174.33912v-48h2.93617v48z" fill="url(#color-13)" stroke="none" stroke-width="0"/><path d="M263.44593,174.33911v-48h2.93617v48z" fill="url(#color-14)" stroke="none" stroke-width="0"/><path d="M271.7039,174.3391v-48h2.93617v48z" fill="url(#color-15)" stroke="none" stroke-width="0"/><path d="M194.39008,127.56134v-3.44445h91.5v3.44445z" fill="url(#color-16)" stroke="url(#color-17)" stroke-width="0.5"/><path d="M279.92341,180.35578v-56.83333h6.33333v56.83333z" fill="url(#color-18)" stroke="url(#color-19)" stroke-width="0.5"/><path d="M194.02342,180.35578v-56.83334h6.33334v56.83334z" fill="url(#color-20)" stroke="url(#color-21)" stroke-width="0.5"/><path d="M234.91667,168.88889v-35.33334h10.5v35.33334z" fill="url(#color-22)" stroke="url(#color-23)" stroke-width="0"/><path d="M222.5,146.30556h35.33333v10.5h-35.33333z" fill="url(#color-24)" stroke="url(#color-25)" stroke-width="0"/></g></g></svg>