<svg version="1.1" xmlns="http://www.w3.org/2000/svg" xmlns:xlink="http://www.w3.org/1999/xlink" width="51.19151" height="118.91779" viewBox="0,0,51.19151,118.91779"><defs><linearGradient x1="239.7479" y1="149.41536" x2="239.7479" y2="156.26645" gradientUnits="userSpaceOnUse" id="color-1"><stop offset="0" stop-color="#736b4f"/><stop offset="1" stop-color="#bec286"/></linearGradient><radialGradient cx="235.45424" cy="124.47793" r="13.11833" gradientUnits="userSpaceOnUse" id="color-2"><stop offset="0" stop-color="#ccbe7a"/><stop offset="1" stop-color="#948f62"/></radialGradient></defs><g transform="translate(-214.51315,-115.40861)"><g data-paper-data="{&quot;isPaintingLayer&quot;:true}" fill-rule="nonzero" stroke-linejoin="miter" stroke-miterlimit="10" stroke-dasharray="" stroke-dashoffset="0" style="mix-blend-mode: normal"><g><path d="M225.92438,227.14042l4.20132,-33.65782c0,0 6.78326,-2.09379 9.84981,-2.05352c3.6284,0.04764 0.55053,4.25166 0.55053,4.25166c0,0 -3.09293,0.04769 -3.41775,1.47935c-0.99336,4.37832 -3.18147,30.0854 -3.18147,30.0854z" fill="#a69b98" stroke="#000000" stroke-width="0" stroke-linecap="butt"/><path d="M241.20948,232.2504c0,0 -0.41114,1.93492 -1.23797,1.92406c-0.5927,-0.00778 -2.64406,-0.02105 -4.70308,-0.12865c-1.25183,-0.06541 -1.89387,-0.64271 -2.8253,-0.7978c-1.17261,-0.19524 -2.94117,0.18187 -3.78783,-0.02078c-1.56008,-0.3734 -2.36421,-0.80893 -2.36421,-0.80893c0,0 -0.25563,-1.02883 -0.26475,-1.58941c-0.01229,-0.75523 0.19763,-2.53463 0.19763,-2.53463c0,0 5.9353,-0.04164 8.24737,0.18905c1.36812,0.13652 4.23171,0.70242 4.23171,0.70242c0,0 1.45154,0.63472 1.65954,1.06472c0.25472,0.52664 0.84688,1.99995 0.84688,1.99995z" data-paper-data="{&quot;index&quot;:null}" fill="#141415" stroke="#000000" stroke-width="0" stroke-linecap="butt"/><path d="M240.94693,231.61225c0,0 -0.38566,-0.00506 -1.21248,-0.01592c-0.2482,-0.00326 0.6813,1.61073 -2.63539,1.29862c-3.13203,-0.29474 -2.76064,-1.22458 -3.8639,-1.31967c-2.30696,-0.19884 -2.59525,0.56101 -3.59282,0.39491c-0.34742,-0.05784 -0.51116,-0.12127 -1.77168,-0.9937c-0.86691,-0.60001 -0.6426,-1.75981 -1.23407,-2.39571c-0.86397,-0.92889 -0.78364,-1.89625 -0.78364,-1.89625l-0.03635,-3.04847c0,0 0.45734,2.21301 1.28538,3.04836c0.74087,0.7474 2.31695,0.01167 2.80058,0.01789c0.84688,0.01088 -0.64588,-3.27682 0.16356,-3.24794c0.43525,0.01552 3.7255,-0.18518 3.7255,-0.18518c0,0 0.07601,3.58119 0.30869,3.6044c1.36811,0.13652 4.59545,0.7072 4.59545,0.7072c0,0 1.45154,0.63472 1.65954,1.06472c0.25473,0.52664 0.59165,2.96675 0.59165,2.96675z" data-paper-data="{&quot;index&quot;:null}" fill="#252527" stroke="#000000" stroke-width="0" stroke-linecap="butt"/><path d="M234.98538,227.5037l-2.6818,1.05622" data-paper-data="{&quot;index&quot;:null}" fill="none" stroke="#ffffff" stroke-width="0.5" stroke-linecap="round"/><path d="M234.23878,228.94914l2.56532,-1.42155" data-paper-data="{&quot;index&quot;:null}" fill="none" stroke="#ffffff" stroke-width="0.5" stroke-linecap="round"/><path d="M236.41807,229.22027l1.4741,-1.43589" data-paper-data="{&quot;index&quot;:null}" fill="none" stroke="#ffffff" stroke-width="0.5" stroke-linecap="round"/><path d="M231.14203,224.66406l2.18566,-0.21384" data-paper-data="{&quot;index&quot;:null}" fill="none" stroke="#969696" stroke-width="0.5" stroke-linecap="round"/><path d="M233.56063,225.18089l-1.94476,0.33827" data-paper-data="{&quot;index&quot;:null}" fill="none" stroke="#969696" stroke-width="0.5" stroke-linecap="round"/></g><g stroke="#000000" stroke-width="0" stroke-linecap="butt"><path d="M265.31226,201.24854c-0.51154,0.05194 -1.14201,-3.7858 -2.53856,-4.08201c-0.47945,-0.1017 0.02962,5.14797 -0.90115,4.99578c-0.55251,-0.09034 -0.77688,-3.00189 -1.30896,-4.34772c-0.25923,-0.65566 -1.28096,-5.39857 -1.28096,-5.39857c0,0 0.24777,-3.03659 -0.78583,-6.39584c-0.24855,-0.80781 -0.85662,-3.49724 -1.12093,-4.32451c-0.62558,-1.95792 -1.32293,-3.87691 -1.67396,-5.08684c-0.75505,-2.60235 -3.54604,-15.26037 -3.54604,-15.26037l5.17433,-2.282c0,0 1.0562,6.49622 2.73634,13.27935c1.26387,5.1026 3.14545,10.41943 3.7227,12.96668c0.68318,3.01469 1.07304,6.99064 1.07304,6.99064c0,0 0.4528,2.75364 0.69217,5.08909c0.21538,2.10142 0.25037,3.80631 -0.24222,3.85634z" data-paper-data="{&quot;index&quot;:null}" fill="#8b8560"/><path d="M250.45828,154.3182c5.58056,-2.09589 6.86575,1.26653 7.38296,3.16975c0.51721,1.90322 2.18757,1.06107 -2.93493,2.959c-4.32965,1.60417 -3.79028,1.09132 -4.30748,-0.8119c-0.5172,-1.90322 -3.04682,-4.22532 -0.14054,-5.31683z" data-paper-data="{&quot;index&quot;:null}" fill="#42352d"/></g><g stroke="#000000" stroke-width="0" stroke-linecap="butt"><path d="M257.49145,207.82839c-0.51158,-0.0515 -0.62751,-3.8203 -1.06338,-4.67174c-0.23332,-0.4558 -1.09642,4.86826 -1.98196,4.53241c-0.52568,-0.19936 -0.21115,-3.10179 -0.48619,-4.52924c-0.134,-0.69543 -0.26573,-5.55496 -0.26573,-5.55496c0,0 0.80084,-2.93056 0.40336,-6.43451c-0.09559,-0.84261 -0.19844,-3.60392 -0.30593,-4.46879c-0.25439,-2.0469 -0.58637,-4.06996 -0.70869,-5.32775c-0.26312,-2.70529 -0.67764,-15.68744 -0.67764,-15.68744l5.49734,-1.20296c0,0 -0.15643,6.58719 0.24679,13.58098c0.30333,5.26107 1.17352,10.85614 1.27225,13.47173c0.11685,3.09558 -0.2307,7.07582 -0.2307,7.07582c0,0 -0.06131,2.79323 -0.25528,5.13326c-0.17454,2.10555 -0.95161,4.13278 -1.44424,4.08319z" data-paper-data="{&quot;index&quot;:null}" fill="#979068"/><path d="M252.03031,158.44653c5.86184,-0.93892 6.50567,2.61856 6.66374,4.59006c0.15807,1.9715 1.95208,1.47964 -3.42384,2.31604c-4.54387,0.70694 -3.92032,0.31167 -4.07839,-1.65983c-0.15807,-1.9715 -2.21427,-4.75728 0.83849,-5.24626z" data-paper-data="{&quot;index&quot;:null}" fill="#4a3c33"/></g><g><path d="M239.70444,191.34301c3.62872,0 10.54956,2.18267 10.54956,2.18267l3.03149,33.71008h-7.63934c0,0 -1.32697,-25.53818 -2.03751,-29.57011c-0.20138,-1.1427 -3.2979,-2.07857 -3.2979,-2.07857c0,0 -3.67312,-4.24407 -0.6063,-4.24407z" fill="#a69b98" stroke="#000000" stroke-width="0" stroke-linecap="butt"/><path d="M259.69262,234.32554c-0.59276,0 -2.64411,0.01365 -4.70436,-0.0669c-1.25258,-0.04897 -1.90215,-0.61779 -2.83553,-0.76063c-1.17507,-0.17982 -2.93854,0.22047 -3.78778,0.02896c-1.56485,-0.35288 -2.37463,-0.77782 -2.37463,-0.77782c0,0 -0.26911,-1.0254 -0.2856,-1.5858c-0.02221,-0.75501 0.16433,-2.53701 0.16433,-2.53701c0,0 5.93425,-0.11957 8.24914,0.08076c1.36979,0.11854 4.24057,0.6468 4.24057,0.6468c0,0 1.45976,0.6156 1.67337,1.04283c0.26162,0.52325 0.87307,1.98865 0.87307,1.98865c0,0 -0.3857,1.94015 -1.21259,1.94015z" data-paper-data="{&quot;index&quot;:null}" fill="#141415" stroke="#000000" stroke-width="0" stroke-linecap="butt"/><path d="M259.4217,231.75078c-0.24822,0 0.7024,1.60165 -2.61811,1.33311c-3.13563,-0.25358 -2.77648,-1.18823 -3.8809,-1.26883c-2.30937,-0.16854 -2.58765,0.59503 -3.58732,0.44205c-0.34815,-0.05328 -0.51271,-0.11454 -1.78459,-0.97035c-0.87472,-0.58857 -0.66566,-1.75122 -1.26542,-2.3793c-0.87609,-0.91745 -0.80847,-1.8858 -0.80847,-1.8858l-0.07637,-3.04773c0,0 0.48635,2.20681 1.32529,3.03122c0.75062,0.73761 2.3169,-0.01875 2.80058,-0.01889c0.84696,-0.00024 -0.68885,-3.26804 0.12091,-3.2498c0.43542,0.00981 3.72275,-0.23409 3.72275,-0.23409c0,0 0.12302,3.57989 0.35598,3.60005c1.36979,0.11854 4.60434,0.6468 4.60434,0.6468c0,0 1.45976,0.6156 1.67338,1.04283c0.26162,0.52325 0.63055,2.95873 0.63055,2.95873c0,0 -0.3857,0 -1.2126,0z" data-paper-data="{&quot;index&quot;:null}" fill="#252527" stroke="#000000" stroke-width="0" stroke-linecap="butt"/><path d="M254.61933,227.7208l-2.6677,1.09133" fill="none" stroke="#ffffff" stroke-width="0.5" stroke-linecap="round"/><path d="M253.89178,229.17592l2.54645,-1.45511" fill="none" stroke="#ffffff" stroke-width="0.5" stroke-linecap="round"/><path d="M257.52957,227.96335l-1.45512,1.45511" fill="none" stroke="#ffffff" stroke-width="0.5" stroke-linecap="round"/><path d="M252.9217,224.68932l-2.18266,0.24252" fill="none" stroke="#969696" stroke-width="0.5" stroke-linecap="round"/><path d="M251.22408,225.78069l1.94015,-0.36378" fill="none" stroke="#969696" stroke-width="0.5" stroke-linecap="round"/></g><path d="M235.91982,157.06517v-7.64977h7.65615l-0.1141,7.87798z" fill="url(#color-1)" stroke="#000000" stroke-width="0" stroke-linecap="butt"/><path d="M229.63982,193.59148c0,0 1.05415,-4.96832 0.53438,-10.35244c-0.16183,-1.6764 -0.21302,-5.68895 -0.71668,-7.54193c-0.59549,-2.19087 -2.53406,-2.77781 -2.61907,-4.12911c-0.1679,-2.66921 -1.07001,-6.79369 -0.41646,-11.37123c0.49266,-3.45066 3.45852,-6.29847 3.45852,-6.29847c0,0 3.98746,-0.28908 5.76508,0.07712c2.26281,0.46615 4.64106,2.49298 4.64106,2.49298c0,0 3.08552,-2.02276 4.99894,-2.43902c2.01891,-0.43921 5.48447,0.01677 5.48447,0.01677c0,0 2.62113,3.52189 2.84787,7.84095c0.214,4.0764 -0.63262,8.46783 -0.70926,10.13771c-0.07768,1.69256 -1.49509,2.1313 -2.13228,4.27482c-0.50833,1.71005 -0.54704,5.19044 -0.67745,7.18949c-0.3029,4.64296 0.14784,10.27371 0.14784,10.27371c0,0 -2.75697,-0.76932 -5.57187,-0.83754c-1.27833,-0.03098 -1.79126,1.00612 -2.99851,1.16532c-0.96496,0.12724 -2.63623,-0.61291 -3.56107,-0.64966c-0.69915,-0.02778 -2.04377,-0.5306 -2.53801,-0.53471c-0.99795,-0.0083 -1.61572,0.86529 -2.77345,1.02464c-1.34484,0.1851 -3.1641,-0.33939 -3.1641,-0.33939z" fill="#4f4037" stroke="#292e32" stroke-width="0" stroke-linecap="butt"/><g stroke="#000000" stroke-width="0" stroke-linecap="butt"><path d="M214.59178,197.42235c0.1648,-2.34301 0.53714,-5.11204 0.53714,-5.11204c0,0 0.26211,-3.98815 0.8654,-7.02683c0.50976,-2.56752 2.28006,-7.95239 3.41344,-13.09969c1.50664,-6.84256 2.37249,-13.37464 2.37249,-13.37464l5.484,2.08366c0,0 -2.45216,12.75581 -3.14549,15.38514c-0.32235,1.22248 -0.98033,3.16672 -1.56199,5.14714c-0.24576,0.83677 -0.78249,3.54755 -1.01251,4.36428c-0.9565,3.39633 -0.58729,6.42149 -0.58729,6.42149c0,0 -0.89371,4.77863 -1.14041,5.44372c-0.50636,1.36518 -0.63449,4.28334 -1.20792,4.39463c-0.96598,0.1875 -0.80918,-6.11344 -1.12098,-5.70122c-0.58247,0.77003 -1.96678,4.95136 -2.50261,4.9189c-0.51598,-0.03126 -0.54155,-1.73633 -0.39327,-3.84455z" data-paper-data="{&quot;index&quot;:null}" fill="#a0986e"/><path d="M228.75417,159.37981c-0.47053,1.92163 0.11113,2.41362 -4.46652,0.97522c-5.41592,-1.7018 -3.64174,-0.92375 -3.17122,-2.84538c0.47053,-1.92163 1.68953,-5.33071 7.59077,-3.44851c3.07328,0.98023 0.51749,3.39703 0.04697,5.31866z" fill="#615046"/></g><g stroke="#000000" stroke-width="0" stroke-linecap="butt"><path d="M221.34785,203.27066c-0.26386,-2.33392 -0.40107,-5.12451 -0.40107,-5.12451c0,0 -0.46721,-3.96936 -0.42633,-7.06707c0.03455,-2.61741 0.79651,-8.23437 0.97534,-13.50194c0.23772,-7.00242 -0.09825,-13.58308 -0.09825,-13.58308l5.7714,1.05207c0,0 -0.09259,12.98905 -0.29641,15.7006c-0.09476,1.26071 -0.38836,3.29216 -0.60034,5.34532c-0.08955,0.8675 -0.12459,3.6307 -0.20231,4.47563c-0.32319,3.51361 0.58979,6.42126 0.58979,6.42126c0,0 -0.87992,9.85088 -1.34658,10.05905c-1.35933,0.60634 -1.00914,-5.73085 -1.35734,-5.25673c-0.6578,0.89569 -0.98953,5.12293 -1.52233,5.18841c-0.51307,0.06305 -0.84816,-1.60896 -1.08558,-3.70901z" data-paper-data="{&quot;index&quot;:null}" fill="#ada477"/><path d="M228.34981,163.15901c-0.11338,1.97514 0.54802,2.35322 -4.21483,1.7709c-5.63503,-0.68895 -3.74899,-0.24639 -3.63561,-2.22153c0.11338,-1.97514 0.69238,-5.54902 6.83745,-4.77088c3.20027,0.40525 1.12638,3.24636 1.013,5.22151z" fill="#615046"/></g><g><path d="M251.22503,117.79764c0,0 -0.26338,3.24445 -0.58861,4.57283c-0.26638,1.08795 -1.2217,2.82111 -1.2217,2.82111" data-paper-data="{&quot;index&quot;:null}" fill="none" stroke="#3b2c16" stroke-width="1.25" stroke-linecap="round"/><path d="M252.62928,121.9359c0,0 -0.18908,2.27851 -0.58872,3.23539c-0.42269,1.01206 -1.88216,2.68074 -1.88216,2.68074" data-paper-data="{&quot;index&quot;:null}" fill="none" stroke="#3b2c16" stroke-width="1.25" stroke-linecap="round"/><path d="M248.97181,116.03362c0,0 0.11659,3.27103 -0.03039,4.69304c-0.12038,1.16464 -0.78772,3.22209 -0.78772,3.22209" data-paper-data="{&quot;index&quot;:null}" fill="none" stroke="#3b2c16" stroke-width="1.25" stroke-linecap="round"/><path d="M252.55186,134.25848c0,7.39154 -8.18556,17.31455 -11.39879,17.3764c-6.69145,0.1288 -14.23242,-9.98486 -14.23242,-17.3764c0,-7.39154 5.73774,-13.38356 12.8156,-13.38356c7.07786,0 12.8156,5.99202 12.8156,13.38356z" fill="url(#color-2)" stroke="none" stroke-width="0" stroke-linecap="butt"/><path d="M241.64847,135.34166c0,2.06292 -0.85162,3.73524 -1.90215,3.73524c-1.05053,0 -1.90214,-1.67233 -1.90214,-3.73524c0,-2.06292 0.85162,-3.73523 1.90214,-3.73523c1.05053,0 1.90215,1.67232 1.90215,3.73523z" fill="none" stroke="#191412" stroke-width="1.5" stroke-linecap="butt"/><path d="M246.38251,129.77997c0,2.06292 -0.85162,3.73524 -1.90214,3.73524c-1.05053,0 -1.90215,-1.67233 -1.90215,-3.73524c0,-2.06292 0.85162,-3.73524 1.90215,-3.73524c1.05053,0 1.90214,1.67232 1.90214,3.73524z" fill="none" stroke="#191412" stroke-width="1.5" stroke-linecap="butt"/><path d="M251.07876,135.29519c0,2.06292 -0.85161,3.73524 -1.90214,3.73524c-1.05053,0 -1.90215,-1.67233 -1.90215,-3.73524c0,-2.06292 0.85162,-3.73523 1.90215,-3.73523c1.05053,0 1.90214,1.67232 1.90214,3.73523z" fill="none" stroke="#191412" stroke-width="1.5" stroke-linecap="butt"/><path d="M246.32529,140.42396c0,2.06292 -0.85162,3.73524 -1.90214,3.73524c-1.05053,0 -1.90215,-1.67233 -1.90215,-3.73524c0,-2.06292 0.85162,-3.73523 1.90215,-3.73523c1.05053,0 1.90214,1.67232 1.90214,3.73523z" fill="none" stroke="#191412" stroke-width="1.5" stroke-linecap="butt"/><path d="M232.27207,125.513c0,0 -1.55639,-1.73224 -1.99089,-2.81993c-0.53052,-1.32806 -0.96207,-4.57226 -0.96207,-4.57226" fill="none" stroke="#47341a" stroke-width="1.5" stroke-linecap="round"/><path d="M231.06404,128.17422c0,0 -2.37686,-1.66727 -3.06571,-2.67893c-0.6513,-0.9565 -0.96105,-3.23482 -0.96105,-3.23482" fill="none" stroke="#47341a" stroke-width="1.5" stroke-linecap="round"/><path d="M234.32335,124.26895c0,0 -1.08798,-2.05681 -1.28494,-3.22133c-0.24048,-1.42187 -0.05363,-4.693 -0.05363,-4.693" fill="none" stroke="#47341a" stroke-width="1.5" stroke-linecap="round"/></g></g></g></svg>