<svg version="1.1" xmlns="http://www.w3.org/2000/svg" xmlns:xlink="http://www.w3.org/1999/xlink" width="97.30873" height="105.86851" viewBox="0,0,97.30873,105.86851"><defs><linearGradient x1="239.30475" y1="203.72546" x2="239.30475" y2="222.71019" gradientUnits="userSpaceOnUse" id="color-1"><stop offset="0" stop-color="#ff0000"/><stop offset="1" stop-color="#ff0000" stop-opacity="0"/></linearGradient><linearGradient x1="239.31396" y1="204.7346" x2="239.31396" y2="221.73213" gradientUnits="userSpaceOnUse" id="color-2"><stop offset="0" stop-color="#ff531c"/><stop offset="1" stop-color="#ff531c" stop-opacity="0"/></linearGradient><linearGradient x1="238.97183" y1="203.88572" x2="238.97183" y2="216.49055" gradientUnits="userSpaceOnUse" id="color-3"><stop offset="0" stop-color="#ff7f1c"/><stop offset="1" stop-color="#ff7f1c" stop-opacity="0"/></linearGradient><linearGradient x1="239.35584" y1="204.81059" x2="239.35584" y2="215.54615" gradientUnits="userSpaceOnUse" id="color-4"><stop offset="0" stop-color="#ff9f1c"/><stop offset="1" stop-color="#ff9f1c" stop-opacity="0"/></linearGradient><linearGradient x1="238.88792" y1="203.88572" x2="238.88792" y2="212.60289" gradientUnits="userSpaceOnUse" id="color-5"><stop offset="0" stop-color="#faff00"/><stop offset="1" stop-color="#faff00" stop-opacity="0"/></linearGradient><linearGradient x1="238.92781" y1="205.03717" x2="238.92781" y2="211.53212" gradientUnits="userSpaceOnUse" id="color-6"><stop offset="0" stop-color="#fdff7d"/><stop offset="1" stop-color="#fdff7d" stop-opacity="0"/></linearGradient><linearGradient x1="232.05331" y1="202.54262" x2="245.28718" y2="202.54262" gradientUnits="userSpaceOnUse" id="color-7"><stop offset="0" stop-color="#515151"/><stop offset="1" stop-color="#242424"/></linearGradient><linearGradient x1="224.58993" y1="177.30136" x2="252.01047" y2="177.30136" gradientUnits="userSpaceOnUse" id="color-8"><stop offset="0" stop-color="#ffa000"/><stop offset="1" stop-color="#de6b00"/></linearGradient><radialGradient cx="219.42651" cy="194.9533" r="12.35841" gradientUnits="userSpaceOnUse" id="color-9"><stop offset="0" stop-color="#dedede"/><stop offset="1" stop-color="#9c9c9c"/></radialGradient><radialGradient cx="257.5695" cy="195.31889" r="12.35841" gradientUnits="userSpaceOnUse" id="color-10"><stop offset="0" stop-color="#dedede"/><stop offset="1" stop-color="#9c9c9c"/></radialGradient><radialGradient cx="238.52449" cy="177.75476" r="22.57159" gradientUnits="userSpaceOnUse" id="color-11"><stop offset="0" stop-color="#3c3c3c"/><stop offset="1" stop-color="#939393"/></radialGradient><linearGradient x1="239.74788" y1="156.06832" x2="239.74788" y2="162.91937" gradientUnits="userSpaceOnUse" id="color-12"><stop offset="0" stop-color="#696969"/><stop offset="1" stop-color="#a0a0a0"/></linearGradient><radialGradient cx="235.71183" cy="133.41612" r="13.11833" gradientUnits="userSpaceOnUse" id="color-13"><stop offset="0" stop-color="#dcdcdc"/><stop offset="1" stop-color="#a0a0a0"/></radialGradient><radialGradient cx="240.22191" cy="140.53847" r="9.85359" gradientUnits="userSpaceOnUse" id="color-14"><stop offset="0" stop-color="#c5dfff"/><stop offset="1" stop-color="#219cff"/></radialGradient><radialGradient cx="230.94677" cy="133.70646" r="10.07074" gradientUnits="userSpaceOnUse" id="color-15"><stop offset="0" stop-color="#303030"/><stop offset="1" stop-color="#292929"/></radialGradient><radialGradient cx="247.37487" cy="130.52661" r="2.65078" gradientUnits="userSpaceOnUse" id="color-16"><stop offset="0" stop-color="#787878"/><stop offset="1" stop-color="#292929"/></radialGradient><radialGradient cx="236.22257" cy="132.69164" r="4.17314" gradientUnits="userSpaceOnUse" id="color-17"><stop offset="0" stop-color="#a7a7a7"/><stop offset="1" stop-color="#292929"/></radialGradient></defs><g transform="translate(-190.3704,-129.64767)"><g data-paper-data="{&quot;isPaintingLayer&quot;:true}" fill-rule="nonzero" stroke-linejoin="miter" stroke-miterlimit="10" stroke-dasharray="" stroke-dashoffset="0" style="mix-blend-mode: normal"><g data-paper-data="{&quot;index&quot;:null}" stroke="none" stroke-width="0.5" stroke-linecap="butt"><path d="M234.30997,205.96202c-0.03777,1.98511 -0.52008,3.27326 -2.35861,4.40399c-1.02977,0.63333 -2.03627,0.42271 -2.57996,1.73031c-0.56779,1.36558 -1.09838,4.02237 0.8839,2.8283c0.26767,-0.22093 0.49089,-0.51103 0.80302,-0.66279c3.0265,-1.47154 1.45907,2.4362 1.11024,3.66094c-0.12432,0.43651 -0.80406,0.8902 -0.5319,1.25341c0.61439,0.81994 2.76247,-1.97646 3.04862,-1.89007c1.23297,0.37226 1.17486,3.4365 1.27792,4.39122c0.97678,0.17569 3.57008,-2.48073 4.2975,-3.10227c0.30694,-0.26227 1.32842,-1.14926 1.46041,-1.12428c0.7159,0.13547 1.48837,2.49447 1.64372,3.10953c0.08241,0.32628 -0.22897,0.95561 0.10403,1.00421c1.07626,0.15707 1.0024,-1.39947 0.69475,-1.896c-0.3153,-0.5089 -0.71813,-0.96451 -0.99409,-1.49578c-0.10332,-0.20735 -0.20665,-0.4147 -0.30997,-0.62205l-0.30998,-0.46497c-0.05536,-0.08048 -0.08777,-0.17798 -0.08777,-0.28304c0,-0.27614 0.22386,-0.5 0.5,-0.5c0.03714,0 0.07334,0.00405 0.10818,0.01173l0.80678,0.16136l-0.01685,0.08427c1.91618,0.14506 3.80741,0.61775 5.80183,0.3532c0.47502,-0.06301 -0.64583,-0.71607 -0.8928,-1.12671c-0.30642,-0.50948 -0.48408,-1.1172 -0.90531,-1.53676c-0.02814,-0.02802 -1.00248,-0.81095 -1.35595,-1.09483l-0.53592,-0.33495c-0.14522,-0.08749 -0.24234,-0.2467 -0.24234,-0.42859c0,-0.23293 0.15927,-0.42865 0.37485,-0.48421c-0.76461,-0.87948 -1.35487,-1.93203 -0.8681,-2.33337c0.50764,-0.41855 2.36342,0.64764 1.97014,0.12019c-1.0093,-1.35365 -1.51439,-2.73387 -3.05143,-3.74859l-0.22265,-0.57941c0,0 0,-0.34333 0.28449,-0.46099c-0.39416,-0.27387 -1.25685,-0.01627 -1.90845,-0.0193c-1.99535,-0.00927 -6.02328,-0.26135 -7.72832,0.89631zM245.42235,205.52939c0,0 0,0.04438 -0.01322,0.1067c1.20538,0.98478 2.59808,2.54178 2.78425,3.89773c0.13777,1.00346 -0.99013,1.47726 -1.76656,1.17707c0.19561,0.1997 0.39296,0.41411 0.49789,0.54667c0.45402,0.57357 0.85295,1.00379 1.21761,1.50826l0.07445,-0.07445l0.49014,0.49014c0.09049,0.09048 0.14645,0.21548 0.14645,0.35355c0,0.1319 -0.05107,0.25187 -0.13452,0.34121c1.27307,1.32903 2.55461,3.05419 1.59378,3.79614c-0.95963,0.74104 -4.77393,0.60097 -6.35806,-0.16491c0.03553,0.07082 0.07105,0.14164 0.10657,0.21246c0.42325,0.82764 2.66892,6.10444 -0.95287,4.77728c-0.97552,-0.35747 -0.83003,-3.93565 -1.51988,-4.05531c-0.69703,-0.12091 -0.89856,1.10607 -1.44823,1.55142c-1.32985,1.07748 -3.14001,3.00323 -4.88405,2.39109c-0.3684,-0.92728 -0.92672,-3.11981 -0.68266,-4.1046c0.11804,-0.4763 -0.40822,0.94948 -0.8125,1.22761c-0.81596,0.56137 -2.1732,1.15645 -3.00088,0.14995c-0.82038,-0.99762 3.10969,-6.47344 0.07431,-3.91749c-3.02025,1.80627 -3.36238,-1.75244 -2.38372,-4.03371c1.33281,-3.10678 4.81188,-1.843 4.86128,-5.92492c-0.02977,-0.13117 0.00596,-0.2419 0.05694,-0.3259c0.04185,-0.08954 0.11477,-0.18124 0.2418,-0.229l0.41458,-0.27639c1.82959,-1.20197 3.89921,-0.53393 5.95445,-0.7358c1.34018,-0.13163 3.2575,-0.80664 4.59742,-0.30701c1.04916,0.39121 0.7914,0.66391 0.84525,1.62221z" fill="url(#color-1)"/><path d="M234.55314,205.73979c1.70504,-1.15766 5.77667,-0.91045 7.77202,-0.90118c0.6516,0.00302 1.52278,-0.2506 1.91693,0.02327c-0.2845,0.11767 -0.28455,0.46096 -0.28455,0.46096l0.225,0.58088c1.53704,1.01472 2.06009,2.41614 3.06939,3.76979c0.39328,0.52746 -1.46558,-0.54455 -1.97322,-0.12601c-0.48677,0.40134 0.11003,1.4706 0.87464,2.35007c-0.21558,0.05556 -0.37435,0.25436 -0.37435,0.48729c0,0.1819 0.09745,0.34451 0.24267,0.432l0.53602,0.33751c0.35347,0.28387 1.32746,1.07326 1.3556,1.10128c0.42123,0.41957 0.59751,1.03441 0.90393,1.5439c0.24697,0.41064 1.36666,1.06742 0.89164,1.13043c-1.99442,0.26455 -3.89242,-0.19536 -5.8086,-0.34042l0.01726,-0.08483l-0.80888,-0.15861c-0.03483,-0.00768 -0.07143,-0.01125 -0.10858,-0.01125c-0.27614,0 -0.50519,0.22917 -0.50519,0.50531c0,0.10506 0.03149,0.20334 0.08685,0.28382l0.30955,0.46532c0.10332,0.20735 0.20568,0.41548 0.309,0.62283c0.27595,0.53127 0.67811,0.9874 0.99342,1.4963c0.30765,0.49654 0.37374,2.05788 -0.70252,1.90081c-0.333,-0.0486 -0.06811,-0.76644 -0.15052,-1.09272c-0.15535,-0.61505 -0.87886,-2.88686 -1.59476,-3.02233c-0.13199,-0.02497 -1.16953,0.86781 -1.47647,1.13008c-0.72741,0.62154 -3.34788,3.2752 -4.32466,3.09951c-0.10306,-0.95471 -0.06413,-4.03249 -1.29709,-4.40475c-0.28614,-0.08639 -2.43614,2.70768 -3.05054,1.88774c-0.27216,-0.36321 0.40531,-0.82007 0.52964,-1.25658c0.34883,-1.22474 1.90845,-5.15373 -1.11805,-3.68219c-0.31214,0.15176 -0.53489,0.44485 -0.80256,0.66578c-1.98228,1.19407 -1.45223,-1.47758 -0.88443,-2.84316c0.54369,-1.3076 1.55327,-1.10944 2.58304,-1.74277c1.83853,-1.13074 2.33908,-2.44193 2.37685,-4.42704z" data-paper-data="{&quot;noHover&quot;:false,&quot;origItem&quot;:[&quot;Path&quot;,{&quot;applyMatrix&quot;:true,&quot;segments&quot;:[[[244.02954,204.89276],[0,0],[-1.70504,-1.15766]],[[236.30122,203.99645],[1.99535,-0.00927],[-0.6516,0.00303]],[[234.39277,204.01575],[0.39415,-0.27387],[0.28449,0.11766]],[234.67726,204.47674],[[234.45461,205.05614],[0,0],[-1.53704,1.01472]],[[231.40318,208.80473],[1.0093,-1.35365],[-0.39328,0.52745]],[[233.37332,208.68454],[-0.50764,-0.41854],[0.48677,0.40134]],[[232.50522,211.01791],[0.76461,-0.87947],[0.21558,0.05556]],[[232.88007,211.50212],[0,-0.23293],[0,0.18189]],[[232.63773,211.93071],[0.14522,-0.08749],[0,0]],[[232.1018,212.26566],[0,0],[-0.35347,0.28388]],[[230.74586,213.3605],[0.02814,-0.02802],[-0.42123,0.41956]],[[229.84055,214.89726],[0.30642,-0.50949],[-0.24697,0.41064]],[[228.94775,216.02397],[-0.47502,-0.06301],[1.99442,0.26455]],[[234.74958,215.67077],[-1.91618,0.14506],[0,0]],[234.73273,215.5865],[[235.53951,215.42515],[0,0],[0.03484,-0.00768]],[[235.64769,215.41341],[-0.03715,0],[0.27614,0]],[[236.14769,215.91341],[0,-0.27614],[0,0.10506]],[[236.05993,216.19645],[0.05536,-0.08048],[0,0]],[[235.74995,216.66141],[0,0],[-0.10332,0.20735]],[[235.43998,217.28347],[0.10332,-0.20735],[-0.27596,0.53127]],[[234.44588,218.77925],[0.31531,-0.5089],[-0.30765,0.49653]],[[235.14063,220.67524],[-1.07626,0.15707],[0.333,-0.0486]],[[235.24466,219.67103],[-0.08241,0.32628],[0.15535,-0.61506]],[[236.88837,216.5615],[-0.7159,0.13547],[0.13199,-0.02498]],[[238.34879,217.68578],[-0.30694,-0.26227],[0.72742,0.62154]],[[242.64629,220.78805],[-0.97678,0.17569],[0.10306,-0.95472]],[[243.9242,216.39683],[-1.23296,0.37226],[0.28615,-0.08639]],[[246.97283,218.2869],[-0.6144,0.81994],[0.27216,-0.36321]],[[246.44093,217.03349],[0.12433,0.43651],[-0.34883,-1.22474]],[[247.55116,213.37255],[-3.0265,-1.47154],[0.31213,0.15176]],[[248.35419,214.03534],[-0.26767,-0.22093],[1.98228,1.19407]],[[249.23808,211.20704],[0.5678,1.36558],[-0.54369,-1.3076]],[[246.65812,209.47673],[1.02977,0.63333],[-1.83853,-1.13073]],[[244.29951,205.07274],[0.03777,1.98511],[0,0]]],&quot;closed&quot;:true}]}" fill="url(#color-2)"/><path d="M241.49381,204.85701c-0.09142,0.02871 -0.16583,0.02871 -0.16583,0.02871h-0.65352c-1.27824,-0.00809 -2.89488,0.49771 -4.01198,0.92112c-1.41885,0.53778 -0.14876,2.07807 -0.08835,2.34191c0.20066,0.87636 -1.11856,2.60873 -2.15177,3.65622l0.50092,-0.20037c0.06024,-0.02573 0.12657,-0.03997 0.19622,-0.03997c0.27614,0 0.5,0.22386 0.5,0.5c0,0.10507 -0.03241,0.20256 -0.08777,0.28304l-0.29326,0.4399c-0.05528,0.26285 -0.02176,2.71363 0.01603,2.71678c0.69165,0.05773 0.9349,-1.02684 1.37621,-1.56252c1.73775,-0.38651 1.08223,1.37453 2.47629,1.22669c0.75706,-0.08029 0.80516,-2.09318 1.46693,-2.28663c0.98146,-0.2869 2.43512,3.00965 3.72312,2.09564c0.08627,-0.06122 -1.28728,-1.01989 -1.32548,-1.0558c-0.44162,-0.41507 -0.4783,-1.23374 -0.26073,-1.79941c2.22324,0.20758 -0.73925,-1.05291 -0.88919,-3.04705c-0.03749,-0.49859 -0.14294,-1.10665 0.17892,-1.48927c0.36528,-0.43424 1.52867,0.64294 1.69928,0.10175c0.30288,-0.96075 -1.37078,-2.14264 -1.99568,-2.55924c0,0 -0.1509,-0.1006 -0.21035,-0.2715zM241.80931,204.23076c0.22771,-0.08225 0.44959,0.06567 0.44959,0.06567c0.96141,0.64094 3.19803,2.5205 2.25222,3.976c-0.3447,0.53046 -1.60583,-0.46085 -1.89511,0.10175c-0.40194,0.78169 3.60851,5.40247 1.10963,4.77996c0.95849,0.53394 2.69175,2.11525 0.49473,2.8281c-0.97029,0.31482 -2.17311,-0.65308 -2.88259,-1.24362c-0.267,-0.22224 -0.54866,-1.22427 -0.56276,-0.87717c-0.03178,0.78234 -0.46894,2.15521 -1.47393,2.28804c-0.90698,0.11988 -1.47956,-0.33679 -1.97308,-1.01504c-0.1561,-0.21452 -0.08564,-0.71762 -0.1253,-0.37236c-0.3009,0.38914 -1.57912,1.93586 -2.21818,1.7051c-0.86239,-0.3114 -0.9098,-2.27605 -0.77345,-3.43488c-0.0635,0.05138 -0.12937,0.09916 -0.19633,0.14308l-0.08763,0.00134l0.00662,0.02648l-0.64265,0.16066c-0.0421,0.01151 -0.08641,0.01765 -0.13215,0.01765c-0.27614,0 -0.5,-0.22386 -0.5,-0.5c0,-0.08398 0.0207,-0.16312 0.05728,-0.2326l0.44272,-0.88543l0.1223,0.06115c0.28622,-0.5681 0.63639,-1.03054 1.14048,-1.71809c0.40121,-0.54722 1.57675,-1.07476 1.20374,-1.64158c-1.91823,-2.91488 2.29465,-4.56482 5.04901,-4.57926h0.65352c0,0 0.39047,0 0.48129,0.34507z" fill="url(#color-3)"/><path d="M241.34539,204.83884c0,0 0.0756,0.00046 0.16701,-0.02825c0.05945,0.1709 0.21279,0.27255 0.21279,0.27255c0.6249,0.41659 2.32087,1.61893 2.018,2.57968c-0.17061,0.54119 -1.413,-0.476 -1.77827,-0.04176c-0.32185,0.38262 -0.13516,0.93511 -0.09767,1.43369c0.14994,1.99414 3.11009,3.30021 0.88685,3.09263c-0.21757,0.56567 -0.18943,1.39524 0.25219,1.81032c0.0382,0.03591 1.41288,0.99345 1.32662,1.05467c-1.288,0.91401 -2.75704,-2.37177 -3.7385,-2.08487c-0.66177,0.19345 -0.7329,2.21066 -1.48996,2.29095c-1.39406,0.14784 -0.76537,-1.62268 -2.50312,-1.23617c-0.44131,0.53569 -0.68572,1.61938 -1.37737,1.56165c-0.03778,-0.00315 -0.08303,-2.4668 -0.02775,-2.72965l0.29201,-0.44199c0.05536,-0.08048 0.08662,-0.18012 0.08662,-0.28518c0,-0.27615 -0.22673,-0.50698 -0.50287,-0.50698c-0.06965,0 -0.04082,-0.01652 -0.10107,0.00921l-0.59603,0.23124c1.03321,-1.04749 2.35953,-2.82494 2.15887,-3.70129c-0.06041,-0.26384 -1.31636,-1.81722 0.10249,-2.355c1.11709,-0.42341 2.77203,-0.93518 4.05026,-0.9271l0.6589,0.00166z" data-paper-data="{&quot;noHover&quot;:false,&quot;origItem&quot;:[&quot;Path&quot;,{&quot;applyMatrix&quot;:true,&quot;segments&quot;:[[[237.11567,203.96774],[0.09141,0.02871],[-0.05945,0.1709]],[[236.90533,204.23924],[0,0],[-0.6249,0.4166]],[[234.90965,206.79848],[-0.30287,-0.96075],[0.17061,0.54119]],[[236.60892,206.69673],[-0.36527,-0.43424],[0.32186,0.38262]],[[236.78784,208.186],[0.03749,-0.49858],[-0.14994,1.99414]],[[235.89866,211.23305],[-2.22324,0.20758],[0.21757,0.56567]],[[235.63792,213.03246],[0.44162,-0.41508],[-0.0382,0.03591]],[[234.31244,214.08826],[-0.08626,-0.06122],[1.288,0.91401]],[[238.03556,211.99262],[-0.98146,-0.2869],[0.66177,0.19345]],[[239.50249,214.27925],[-0.75706,-0.08029],[1.39406,0.14784]],[[241.97878,213.05256],[-1.73775,-0.38651],[0.44131,0.53568]],[[243.35498,214.61508],[-0.69165,0.05773],[0.03779,-0.00315]],[[243.37101,211.89829],[0.05528,0.26285],[0,0]],[[243.07775,211.4584],[0,0],[-0.05536,-0.08048]],[[242.98998,211.17536],[0,0.10506],[0,-0.27614]],[[243.48998,210.67536],[-0.27614,0],[0.06965,0]],[[243.68621,210.71533],[-0.06025,-0.02573],[0,0]],[[244.18712,210.9157],[0,0],[-1.03321,-1.04749]],[[242.03536,207.25948],[-0.20066,0.87635],[0.06041,-0.26384]],[[241.94701,204.91757],[1.41885,0.53778],[-1.1171,-0.42341]],[[237.93503,203.99645],[1.27823,-0.00808],[0,0]],[237.2815,203.99645]],&quot;closed&quot;:true}]}" fill="url(#color-4)"/><path d="M239.22879,205.08696c-0.94505,0.67181 -2.26552,1.80731 -1.72622,2.95253c0.20337,0.43186 1.13477,0.09508 1.3301,0.53063c0.2682,0.59802 -0.11081,1.30759 -0.11268,1.96299c0.16184,0.6666 0.45037,1.17518 1.27415,0.85121c0.39854,-0.15674 -0.55299,-0.77749 -0.46675,-1.19697c0.24634,-1.19824 0.18421,-2.89651 0.9569,-3.21432c0.03515,-0.01446 -0.56589,-1.54321 -0.94823,-1.62282c0,0 -0.21499,-0.07167 -0.30725,-0.26325zM240.49203,207.72068c-0.453,0.10954 0.67456,0.75452 0.68207,1.22052c0.00835,0.51771 -0.44165,0.93666 -0.65961,1.40633c-0.3217,0.69321 1.20754,0.58522 0.18677,1.74389c-1.22371,1.38904 -2.70412,-0.37728 -2.97376,-1.43613c-0.00122,-0.54845 0.32549,-1.09437 0.21408,-1.63139c-0.09212,-0.44403 -1.07891,-0.0452 -1.284,-0.44966c-0.94321,-1.86015 1.17317,-3.76501 2.43249,-4.60455l0.60411,-0.08397c0,0 0.5,0 0.5,0.5c0,0.06918 -0.00958,0.12879 -0.02607,0.18015c1.13274,0.73495 1.8257,2.79168 0.32392,3.15481z" fill="url(#color-5)"/><path d="M239.23343,205.03717c0.09225,0.19158 0.31271,0.26406 0.31271,0.26406c0.38235,0.07961 1.01148,1.62505 0.97633,1.63951c-0.77269,0.31781 -0.7338,2.09608 -0.98013,3.29432c-0.08624,0.41948 0.86656,1.03982 0.46802,1.19655c-0.82378,0.32397 -1.13322,-0.18212 -1.29505,-0.84872c0.00188,-0.6554 0.36914,-1.36752 0.10095,-1.96554c-0.19533,-0.43556 -1.15958,-0.15449 -1.36295,-0.58635c-0.53931,-1.14522 0.83506,-2.32201 1.78012,-2.99383z" data-paper-data="{&quot;noHover&quot;:false,&quot;origItem&quot;:[&quot;Path&quot;,{&quot;applyMatrix&quot;:true,&quot;segments&quot;:[[[239.38068,204.19769],[0.94506,0.67182],[-0.09226,0.19158]],[[239.07343,204.46093],[0,0],[-0.38234,0.07961]],[[238.1252,206.08375],[-0.03515,-0.01446],[0.77269,0.31781]],[[239.0821,209.29808],[-0.24633,-1.19824],[0.08624,0.41948]],[[238.61534,210.49504],[-0.39854,-0.15673],[0.82378,0.32397]],[[239.88949,209.64384],[-0.16183,0.6666],[-0.00187,-0.6554]],[[239.7768,207.68085],[-0.26819,0.59802],[0.19533,-0.43555]],[[241.10691,207.15022],[-0.20337,0.43186],[0.5393,-1.14522]]],&quot;closed&quot;:true}]}" fill="url(#color-6)"/></g><path d="M232.05331,204.99334l2.6141,-4.90143h7.51553l3.10424,4.90143z" fill="url(#color-7)" stroke="#000000" stroke-width="0" stroke-linecap="butt"/><path d="M238.28455,201.2444c-14.02176,0.20134 -13.69397,-10.72028 -13.69397,-23.94441c0,-13.22413 0.5759,-23.94441 13.69397,-23.94441c13.63483,0 13.69397,10.72028 13.69397,23.94441c0,13.22413 1.36161,23.72823 -13.69397,23.94441z" fill="url(#color-8)" stroke="#000000" stroke-width="0" stroke-linecap="butt"/><path d="M215.00276,207.3117c0,0 4.51981,-6.93576 5.97062,-10.98881c1.49692,-4.18186 2.87688,-13.728 2.87688,-13.728l-0.28088,17.27368z" fill="url(#color-9)" stroke="#000000" stroke-width="0" stroke-linecap="butt"/><path d="M253.42663,200.23416l-0.28088,-17.27367c0,0 1.37996,9.54614 2.87688,13.728c1.45081,4.05304 5.97062,10.98881 5.97062,10.98881z" data-paper-data="{&quot;index&quot;:null}" fill="url(#color-10)" stroke="#000000" stroke-width="0" stroke-linecap="butt"/><path d="M223.5568,200.32636v-45.14319h29.93538v45.14319z" fill="url(#color-11)" stroke="#ed6b00" stroke-width="0" stroke-linecap="butt"/><g stroke="#000000" stroke-width="0" stroke-linecap="butt"><path d="M277.75637,163.72435c0,0 -2.9756,-0.52609 -6.44817,-0.01678c-0.83507,0.12247 -3.58489,0.34711 -4.44143,0.48071c-2.02718,0.31616 -4.02568,0.69634 -5.27349,0.86205c-2.68382,0.35646 -6.09403,0.73526 -6.09403,0.73526c0,0 -6.69945,0.58739 -6.95994,-0.40731c-1.52341,-5.81739 6.02393,-5.06133 6.02393,-5.06133c0,0 4.86104,-0.61437 7.71447,-0.99334c1.16127,-0.15425 2.11203,0.286 3.92015,0.11213c0.81054,-0.07794 4.32858,0.04365 6.47917,0.02473c3.58067,-0.03149 5.73882,-0.40432 5.73882,-0.40432z" data-paper-data="{&quot;index&quot;:null}" fill="#bdbdbd"/><path d="M282.94187,159.02418c-0.02499,0.20691 3.72312,0.02532 3.68403,0.90436c-0.01924,0.43235 -2.43897,0.02301 -3.27452,0.61474c-0.44228,0.31322 4.28067,-0.33599 3.79398,0.79831c-0.16709,0.38942 -3.59671,0.08886 -4.4192,0.49766c-0.44029,0.21885 5.22249,-0.03766 4.94294,0.72306c-0.16592,0.45161 -3.28915,0.00341 -4.6967,0.30591c-0.68572,0.14738 3.85534,0.38353 3.52874,0.93069c-0.19993,0.33493 -4.64292,0.32216 -4.69334,0.35907c-0.28336,0.20746 2.40452,0.94041 1.75428,1.2016c-1.19839,0.48138 -2.6184,-0.45362 -3.95223,-1.19055c-0.77931,-0.43057 -1.95933,-0.47025 -1.95933,-0.47025c0,0 -0.46274,-1.60525 -0.3514,-2.39339c0.10842,-0.76739 1.01092,-2.27483 1.01092,-2.27483c0,0 4.68472,-0.4447 4.63179,-0.00639z" data-paper-data="{&quot;index&quot;:null}" fill="#777777"/></g><g><path d="M251.94173,227.20601c0,0 -6.41594,-24.98955 -8.12079,-29.14285c-0.55746,-1.35808 -3.61557,-0.8928 -3.61557,-0.8928c0,0 -3.73171,-3.63614 -0.16131,-4.28412c3.01753,-0.54765 10.05389,0.39366 10.05389,0.39366l9.71827,32.497z" data-paper-data="{&quot;index&quot;:null}" fill="#494949" stroke="#000000" stroke-width="0" stroke-linecap="butt"/><path d="M266.73312,231.64103c-0.58323,0.10585 -2.59917,0.48559 -4.64069,0.77424c-1.24119,0.17549 -1.9819,-0.26819 -2.92578,-0.24206c-1.18829,0.0329 -2.85194,0.74167 -3.72173,0.70488c-1.60271,-0.06777 -2.47536,-0.34128 -2.47536,-0.34128c0,0 -0.44789,-0.96086 -0.56419,-1.50931c-0.15668,-0.73891 -0.29135,-2.52558 -0.29135,-2.52558c0,0 5.81752,-1.17733 8.13097,-1.3936c1.36894,-0.12797 4.28791,-0.12084 4.28791,-0.12084c0,0 1.54623,0.34503 1.83269,0.72725c0.35085,0.46812 1.21415,1.80078 1.21415,1.80078c0,0 -0.03305,1.97784 -0.84665,2.1255z" data-paper-data="{&quot;index&quot;:null}" fill="#141415" stroke="#000000" stroke-width="0" stroke-linecap="butt"/><path d="M266.00678,229.15598c-0.24423,0.04432 0.97712,1.45048 -2.33797,1.7792c-3.13051,0.31043 -2.94404,-0.67333 -4.0451,-0.55542c-2.30235,0.24656 -2.4398,1.04755 -3.45072,1.07554c-0.35207,0.00975 -0.52492,-0.02114 -1.92918,-0.63608c-0.96576,-0.42291 -0.96768,-1.6042 -1.66996,-2.11509c-1.02584,-0.74626 -1.13223,-1.71112 -1.13223,-1.71112l-0.61938,-2.98511c0,0 0.87261,2.08449 1.84528,2.74584c0.87027,0.59172 2.27631,-0.43218 2.75219,-0.51869c0.8333,-0.15148 -1.26136,-3.0925 -0.46135,-3.21916c0.43017,-0.0681 3.62111,-0.8951 3.62111,-0.8951c0,0 0.76031,3.50038 0.99312,3.47862c1.36894,-0.12797 4.64583,-0.1858 4.64583,-0.1858c0,0 1.54623,0.34503 1.8327,0.72725c0.35085,0.46812 1.14876,2.79858 1.14876,2.79858c0,0 -0.3795,0.06887 -1.19311,0.21654z" data-paper-data="{&quot;index&quot;:null}" fill="#252527" stroke="#000000" stroke-width="0" stroke-linecap="butt"/><path d="M260.56195,226.04839l-2.42994,1.55016" fill="none" stroke="#ffffff" stroke-width="0.5" stroke-linecap="round"/><path d="M262.35162,225.72359l-2.24568,1.88644" fill="none" stroke="#ffffff" stroke-width="0.5" stroke-linecap="round"/><path d="M263.46872,225.76733l-1.17189,1.69156" fill="none" stroke="#ffffff" stroke-width="0.5" stroke-linecap="round"/><path d="M258.35027,223.36879l-2.10427,0.62838" fill="none" stroke="#969696" stroke-width="0.5" stroke-linecap="round"/><path d="M258.71883,224.04133l-1.84401,0.70439" fill="none" stroke="#969696" stroke-width="0.5" stroke-linecap="round"/></g><g><path d="M229.10953,229.28119l1.33811,-33.89261c0,0 6.58175,-2.66028 9.64071,-2.87965c3.61942,-0.25956 0.90833,4.18983 0.90833,4.18983c0,0 -3.0778,0.30924 -3.28031,1.76325c-0.6193,4.44668 -0.62423,30.24671 -0.62423,30.24671z" fill="#494949" stroke="#000000" stroke-width="0" stroke-linecap="butt"/><path d="M244.84839,233.2222c0,0 -0.24593,1.96277 -1.07071,2.02192c-0.59124,0.0424 -2.63636,0.20276 -4.69709,0.26979c-1.25287,0.04075 -1.94147,-0.48015 -2.88267,-0.55585c-1.18492,-0.09532 -2.91523,0.4301 -3.776,0.29983c-1.58608,-0.24004 -2.42418,-0.60596 -2.42418,-0.60596c0,0 -0.34178,-1.00351 -0.3983,-1.56131c-0.07616,-0.75148 -0.01756,-2.54227 -0.01756,-2.54227c0,0 5.91049,-0.54374 8.23379,-0.50952c1.37476,0.02025 4.27597,0.34181 4.27597,0.34181c0,0 1.50004,0.50961 1.74368,0.92046c0.29838,0.5032 1.01308,1.92111 1.01308,1.92111z" data-paper-data="{&quot;index&quot;:null}" fill="#141415" stroke="#000000" stroke-width="0" stroke-linecap="butt"/><path d="M244.53278,232.60857c0,0 -0.3847,0.02759 -1.20948,0.08674c-0.24758,0.01776 0.81516,1.5473 -2.51605,1.51697c-3.14574,-0.02865 -2.85436,-0.98658 -3.96172,-0.98798c-2.31551,-0.00292 -2.53847,0.7786 -3.54652,0.69751c-0.35107,-0.02824 -0.51959,-0.07757 -1.84942,-0.84021c-0.91457,-0.52449 -0.78922,-1.69912 -1.43237,-2.28269c-0.93947,-0.85244 -0.94129,-1.82314 -0.94129,-1.82314l-0.29418,-3.03446c0,0 0.64296,2.16638 1.53872,2.92867c0.80146,0.68203 2.30962,-0.18443 2.79205,-0.21917c0.84476,-0.06082 -0.92085,-3.2104 -0.11186,-3.25013c0.43501,-0.02136 3.69647,-0.49977 3.69647,-0.49977c0,0 0.37878,3.56191 0.61258,3.56535c1.37475,0.02026 4.63881,0.31579 4.63881,0.31579c0,0 1.50004,0.50961 1.74368,0.92046c0.29839,0.5032 0.84057,2.90605 0.84057,2.90605z" data-paper-data="{&quot;index&quot;:null}" fill="#252527" stroke="#000000" stroke-width="0" stroke-linecap="butt"/><path d="M238.24495,229.01919l-2.58281,1.27937" fill="none" stroke="#ffffff" stroke-width="0.5" stroke-linecap="round"/><path d="M240.05917,228.8891l-2.43583,1.63353" fill="none" stroke="#ffffff" stroke-width="0.5" stroke-linecap="round"/><path d="M241.16506,229.05292l-1.34731,1.55548" fill="none" stroke="#ffffff" stroke-width="0.5" stroke-linecap="round"/><path d="M234.17508,226.51495l2.15973,-0.39803" fill="none" stroke="#969696" stroke-width="0.5" stroke-linecap="round"/><path d="M234.7196,227.32689l1.90916,-0.50163" fill="none" stroke="#969696" stroke-width="0.5" stroke-linecap="round"/></g><path d="M235.9198,162.91937v-6.85104h7.65615v6.85104z" fill="url(#color-12)" stroke="#000000" stroke-width="0" stroke-linecap="butt"/><path d="M252.80945,143.64573c0,7.73092 -5.73774,13.99807 -12.8156,13.99807c-7.07786,0 -12.8156,-6.26715 -12.8156,-13.99807c0,-7.73092 5.73774,-13.99806 12.8156,-13.99806c7.07786,0 12.8156,6.26714 12.8156,13.99806z" fill="url(#color-13)" stroke="none" stroke-width="0" stroke-linecap="butt"/><path d="M229.82836,194.84552c0,0 0.01297,-5.5622 -0.6558,-10.92984c-0.45441,-3.64728 -1.59703,-6.91759 -1.82297,-9.40649c-0.42408,-4.67137 -0.58124,-13.37126 -0.58124,-13.37126c0,0 3.67416,-0.68684 5.46124,-0.37004c2.27486,0.40327 7.08114,2.59345 7.08114,2.59345c0,0 3.61533,-2.27166 5.51648,-2.74078c2.00596,-0.49499 6.22176,-0.15569 6.22176,-0.15569c0,0 0.18638,9.21548 0.1239,12.65772c-0.05528,3.04555 -0.71277,6.39031 -0.88172,10.90155c-0.17413,4.64957 0.141,10.42164 0.141,10.42164c0,0 -2.77723,-0.69263 -5.59294,-0.68282c-1.2787,0.00445 -1.76269,1.05537 -2.96507,1.24796c-0.96106,0.15393 -2.6522,-0.53962 -3.5777,-0.55073c-0.69965,-0.0084 -2.05769,-0.47376 -2.55185,-0.46418c-0.9978,0.01936 -1.59112,0.90973 -2.74399,1.1011c-1.33919,0.22229 -3.17229,-0.25158 -3.17229,-0.25158z" fill="#d0d0d0" stroke="#292e32" stroke-width="0" stroke-linecap="butt"/><path d="M242.7359,170.5071l-0.12126,-5.82045l7.63934,0.36378v5.21415z" fill="#f200ff" stroke="none" stroke-width="0" stroke-linecap="butt"/><g stroke="#000000" stroke-width="0" stroke-linecap="butt"><path d="M197.96417,168.40999c0,0 2.18752,-0.28758 5.5739,-1.4515c2.0339,-0.69907 5.29794,-2.02108 6.0938,-2.2017c1.77541,-0.40296 2.48891,-1.23677 3.64678,-1.44577c2.84508,-0.51356 7.67895,-1.42499 7.67895,-1.42499c0,0 7.17126,-3.4069 8.23407,4.17524c0.16967,1.21043 -6.85239,2.53596 -6.85239,2.53596c0,0 -3.36953,0.70048 -6.0455,1.18351c-1.24416,0.22457 -3.28428,0.45005 -5.32497,0.75999c-0.86223,0.13097 -3.54582,0.79033 -4.38321,0.92707c-3.48231,0.5687 -6.06787,2.182 -6.06787,2.182z" fill="#bdbdbd"/><path d="M193.49262,170.01072c-0.2325,-0.49442 4.36242,-1.55655 4.36242,-1.55655c0,0 1.47779,1.45716 1.89967,2.31746c0.43331,0.88359 0.6668,2.91605 0.6668,2.91605c0,0 -1.09418,0.44485 -1.64825,1.21124c-0.94835,1.31173 -1.89524,2.88404 -3.22391,2.72606c-0.72093,-0.08571 1.50362,-1.84999 1.15043,-1.99678c-0.06284,-0.02612 -4.23959,1.48908 -4.56736,1.16513c-0.53545,-0.52923 3.64048,-2.33861 2.93361,-2.27933c-1.45097,0.12171 -4.20395,1.70018 -4.54836,1.22838c-0.58019,-0.79477 4.85693,-2.4071 4.35128,-2.51421c-0.94455,-0.20008 -4.04749,1.3093 -4.36707,0.91057c-0.93087,-1.16143 3.78528,-1.99743 3.23843,-2.21417c-1.0331,-0.40948 -3.14012,0.88603 -3.33842,0.38718c-0.40318,-1.01422 3.2005,-2.06761 3.09075,-2.30101z" data-paper-data="{&quot;index&quot;:null}" fill="#777777"/></g><g stroke-linecap="butt"><path d="M253.02025,143.26413c0,3.74486 0.0384,8.21376 -9.59547,8.69146c-10.76272,0.53367 -10.10384,-4.9466 -10.10384,-8.69146c0,-3.74486 4.40985,-6.78067 9.84967,-6.78067c5.43982,0 9.84967,3.03581 9.84967,6.78067z" data-paper-data="{&quot;index&quot;:null}" fill="url(#color-14)" stroke="#ed6b00" stroke-width="0"/><path d="M233.63717,133.71599c-0.16984,0.01553 -0.60661,0.06221 -1.07903,0.1438c-0.52185,0.20742 -1.13106,0.41772 -1.59752,0.64771c-0.28909,0.89276 0.78709,1.80702 -0.65422,2.4752c-2.45813,1.13958 -1.71655,-2.03888 -0.89769,-3.03685c1.27069,-1.10653 3.14359,-1.2394 4.75566,-1.549c2.22048,-0.42645 4.38435,-1.08334 6.57971,-1.21737c0.08249,-0.08622 0.19535,-0.14411 0.32353,-0.15569l0.58612,-0.0529c0.29539,-0.07774 0.61637,-0.15861 0.95355,-0.23507c0.87645,-0.27394 1.93099,-0.41625 2.91353,-0.50866c0.4818,-0.09462 0.9333,-0.1389 1.30669,-0.10536c0.27388,-0.02025 0.5286,-0.03932 0.7561,-0.05986l0.61787,-0.05577c0.28142,-0.0254 0.53014,0.18214 0.55554,0.46356c0.0226,0.25047 -0.13931,0.47504 -0.37361,0.53931l-0.32968,0.09745c0.145,0.12181 0.27656,0.26112 0.39244,0.4197l0.23414,-0.11908l0.29765,0.58522c0.03177,0.05903 0.05238,0.12532 0.05879,0.19629c0.0254,0.28142 -0.18214,0.53014 -0.46355,0.55553c-0.08558,0.00772 -0.16814,-0.00609 -0.24232,-0.03698l-0.50702,-0.19878l0.00585,-0.01492l-0.04787,-0.00377c-0.36209,-0.22374 -0.73047,-0.39249 -1.09838,-0.50678c-0.55947,-0.02006 -1.148,-0.08122 -1.74789,-0.1302c-1.01464,0.1745 -1.9334,0.80247 -2.5904,1.87097c0,0 -0.26893,0.43524 -0.70416,0.1663c-0.43523,-0.26893 -0.1663,-0.70417 -0.1663,-0.70417c0.0575,-0.09265 0.11686,-0.18277 0.17799,-0.27034l-0.28392,0.09053c-0.03801,0.01299 -0.07817,0.02169 -0.11996,0.02546c-0.28142,0.0254 -0.53014,-0.18214 -0.55553,-0.46356c-0.01286,-0.14243 0.03395,-0.27647 0.11981,-0.37743c-0.2451,0.00049 -0.4766,0.01384 -0.6735,0.06241c-1.37524,0.33924 -3.48763,0.45199 -5.48058,0.75785c0.01121,0.24126 -0.14794,0.45435 -0.37516,0.51668l-0.59763,0.17665l-0.00571,-0.01931l-0.00747,0.00194z" fill="url(#color-15)" stroke="none" stroke-width="0.5"/><path d="M248.73121,129.98496c2.70896,-0.28418 2.68558,-0.24349 2.90043,1.58673c0.21485,1.83022 -0.78194,3.36186 -2.22639,3.42102c-1.44446,0.05917 -2.7896,-1.37656 -3.00445,-3.20678c-0.21485,-1.83022 -0.20983,-1.53449 2.33041,-1.80097z" data-paper-data="{&quot;index&quot;:null}" fill="url(#color-16)" stroke="#000000" stroke-width="0"/><path d="M242.11119,132.66582c0.35755,1.99142 -1.17444,3.9329 -3.4218,4.33639c-2.24735,0.40349 -4.35904,-0.88377 -4.71659,-2.8752c-0.35755,-1.99142 -0.40888,-2.02662 3.87102,-2.60142c4.01334,-0.53901 3.90982,-0.85119 4.26737,1.14023z" fill="url(#color-17)" stroke="#000000" stroke-width="0"/></g></g></g></svg>