<svg version="1.1" xmlns="http://www.w3.org/2000/svg" xmlns:xlink="http://www.w3.org/1999/xlink" width="65.42289" height="64.90928" viewBox="0,0,65.42289,64.90928"><defs><linearGradient x1="269.9132" y1="149.04536" x2="269.9132" y2="210.95464" gradientUnits="userSpaceOnUse" id="color-1"><stop offset="0" stop-color="#181818"/><stop offset="1" stop-color="#050505"/></linearGradient><linearGradient x1="269.9132" y1="149.04536" x2="269.9132" y2="210.95464" gradientUnits="userSpaceOnUse" id="color-2"><stop offset="0" stop-color="#cccccc"/><stop offset="1" stop-color="#898989"/></linearGradient><radialGradient cx="269.99999" cy="180" r="29.92177" gradientUnits="userSpaceOnUse" id="color-3"><stop offset="0" stop-color="#ffffff" stop-opacity="0.31284"/><stop offset="1" stop-color="#ffffff" stop-opacity="0"/></radialGradient><linearGradient x1="269.99999" y1="150.69895" x2="269.99999" y2="209.30105" gradientUnits="userSpaceOnUse" id="color-4"><stop offset="0" stop-color="#cccccc"/><stop offset="1" stop-color="#898989"/></linearGradient><radialGradient cx="269.98325" cy="182.63395" r="21.93411" gradientUnits="userSpaceOnUse" id="color-5"><stop offset="0" stop-color="#dcb094"/><stop offset="1" stop-color="#50402f"/></radialGradient><radialGradient cx="270.06203" cy="182.50351" r="22.16813" gradientUnits="userSpaceOnUse" id="color-6"><stop offset="0" stop-color="#cca288"/><stop offset="1" stop-color="#3d3124"/></radialGradient><radialGradient cx="269.92935" cy="182.42451" r="21.93411" gradientUnits="userSpaceOnUse" id="color-7"><stop offset="0" stop-color="#ffcbab"/><stop offset="1" stop-color="#544331"/></radialGradient><radialGradient cx="270.0639" cy="182.34765" r="22.16813" gradientUnits="userSpaceOnUse" id="color-8"><stop offset="0" stop-color="#bc957e"/><stop offset="1" stop-color="#33291e"/></radialGradient><radialGradient cx="270" cy="182.60001" r="22.22835" gradientUnits="userSpaceOnUse" id="color-9"><stop offset="0" stop-color="#737373" stop-opacity="0.30192"/><stop offset="1" stop-color="#737373" stop-opacity="0"/></radialGradient><radialGradient cx="270" cy="182.60002" r="18.0462" gradientUnits="userSpaceOnUse" id="color-10"><stop offset="0" stop-color="#ebebeb" stop-opacity="0.63802"/><stop offset="1" stop-color="#ebebeb" stop-opacity="0"/></radialGradient><radialGradient cx="270" cy="182.60002" r="15.27761" gradientUnits="userSpaceOnUse" id="color-11"><stop offset="0" stop-color="#ffffff"/><stop offset="1" stop-color="#ffffff" stop-opacity="0"/></radialGradient><radialGradient cx="270.00001" cy="182.60002" r="12.56283" gradientUnits="userSpaceOnUse" id="color-12"><stop offset="0" stop-color="#ffffff"/><stop offset="1" stop-color="#ffffff"/></radialGradient><radialGradient cx="269.97027" cy="182.66054" r="22.36223" gradientUnits="userSpaceOnUse" id="color-13"><stop offset="0" stop-color="#080504"/><stop offset="1" stop-color="#21150d"/></radialGradient><radialGradient cx="269.99858" cy="182.6" r="22.12616" gradientUnits="userSpaceOnUse" id="color-14"><stop offset="0" stop-color="#110b08"/><stop offset="1" stop-color="#26180e"/></radialGradient><radialGradient cx="269.7493" cy="182.59097" r="22.36224" gradientUnits="userSpaceOnUse" id="color-15"><stop offset="0" stop-color="#170e0b"/><stop offset="1" stop-color="#332014"/></radialGradient><radialGradient cx="269.80632" cy="182.56674" r="22.12616" gradientUnits="userSpaceOnUse" id="color-16"><stop offset="0" stop-color="#231511"/><stop offset="1" stop-color="#312014"/></radialGradient><radialGradient cx="270.00001" cy="182.6" r="25.52777" gradientUnits="userSpaceOnUse" id="color-17"><stop offset="0" stop-color="#ffffff" stop-opacity="0.26479"/><stop offset="1" stop-color="#ffffff" stop-opacity="0"/></radialGradient><linearGradient x1="267.45841" y1="208.00094" x2="272.5416" y2="157.19907" gradientUnits="userSpaceOnUse" id="color-18"><stop offset="0" stop-color="#080808"/><stop offset="1" stop-color="#414141"/></linearGradient></defs><g transform="translate(-237.20176,-147.54536)"><g data-paper-data="{&quot;isPaintingLayer&quot;:true}" fill-rule="nonzero" stroke-linecap="butt" stroke-linejoin="miter" stroke-miterlimit="10" stroke-dasharray="" stroke-dashoffset="0" style="mix-blend-mode: normal"><path d="M238.70176,210.95464v-61.90928h62.42289v61.90928z" fill="url(#color-1)" stroke="url(#color-2)" stroke-width="3"/><path d="M299.92177,180c0,16.18252 -13.39644,29.30105 -29.92177,29.30105c-16.52534,0 -29.92177,-13.11853 -29.92177,-29.30105c0,-16.18252 13.39644,-29.30105 29.92177,-29.30105c16.52534,0 29.92177,13.11853 29.92177,29.30105z" fill="url(#color-3)" stroke="url(#color-4)" stroke-width="0"/><path d="M279.67908,205.11048c0,0 -5.76887,-4.2351 -14.82983,-22.39988c-7.79168,-15.62024 -6.73198,-20.86112 -6.73198,-20.86112l1.68477,-1.71769c0,0 2.9246,13.36528 7.23952,21.4736c5.39391,10.13588 14.81831,21.96197 14.81831,21.96197z" data-paper-data="{&quot;index&quot;:null}" fill="url(#color-5)" stroke="#676767" stroke-width="0"/><path d="M293.57439,177.84876c0,0 -15.10792,0.6531 -26.29506,3.23731c-8.9493,2.06727 -20.95179,8.63415 -20.95179,8.63415l0.18991,-2.39851c0,0 3.2581,-4.23964 20.15657,-8.615c19.65124,-5.08811 26.63298,-3.51607 26.63298,-3.51607z" data-paper-data="{&quot;index&quot;:null}" fill="url(#color-6)" stroke="#676767" stroke-width="0"/><path d="M247.1875,174.54601c0,0 13.34066,7.12057 24.28741,10.58453c8.75699,2.77103 22.43113,3.22038 22.43113,3.22038l-1.38325,1.96864c0,0 -4.96136,1.99364 -21.73667,-2.83248c-19.50801,-5.61229 -24.72013,-10.51634 -24.72013,-10.51634z" data-paper-data="{&quot;index&quot;:null}" fill="url(#color-7)" stroke="#676767" stroke-width="0"/><path d="M281.7345,160.95597c0,0 0.19201,7.15396 -8.60076,25.45006c-7.56108,15.73316 -12.35081,18.10975 -12.35081,18.10975l-2.38995,-0.27757c0,0 8.76429,-10.50577 12.52341,-18.88625c4.69911,-10.4761 8.26191,-25.17243 8.26191,-25.17243z" data-paper-data="{&quot;index&quot;:null}" fill="url(#color-8)" stroke="#676767" stroke-width="0"/><path d="M247.77165,182.60001c0,-12.27634 9.95196,-22.22835 22.22835,-22.22835c12.27634,0 22.22835,9.95196 22.22835,22.22835c0,12.27634 -9.95196,22.22835 -22.22835,22.22835c-12.27634,0 -22.22835,-9.95196 -22.22835,-22.22835z" fill="url(#color-9)" stroke="none" stroke-width="0.5"/><path d="M251.9538,182.60002c0,-9.96661 8.07955,-18.0462 18.0462,-18.0462c9.96661,0 18.0462,8.07955 18.0462,18.0462c0,9.96661 -8.07955,18.0462 -18.0462,18.0462c-9.96661,0 -18.0462,-8.07955 -18.0462,-18.0462z" fill="url(#color-10)" stroke="none" stroke-width="0.5"/><path d="M254.7224,182.60002c0,-8.43756 6.84001,-15.27761 15.27761,-15.27761c8.43756,0 15.27761,6.84001 15.27761,15.27761c0,8.43756 -6.84001,15.27761 -15.27761,15.27761c-8.43756,0 -15.27761,-6.84001 -15.27761,-15.27761z" fill="url(#color-11)" stroke="none" stroke-width="0.5"/><path d="M257.43717,182.60002c0,-6.93824 5.62457,-12.56283 12.56283,-12.56283c6.93824,0 12.56283,5.62457 12.56283,12.56283c0,6.93824 -5.62457,12.56283 -12.56283,12.56283c-6.93824,0 -12.56283,-5.62457 -12.56283,-12.56283z" fill="url(#color-12)" stroke="none" stroke-width="0.5"/><path d="M258.2135,204.23953c0,0 -0.98308,-7.41398 7.88669,-25.87028c7.62728,-15.87093 13.24833,-18.07094 13.24833,-18.07094l2.41088,0.28c0,0 -7.75566,11.28852 -11.54769,19.74239c-4.74026,10.56783 -9.41962,24.70208 -9.41962,24.70208z" fill="url(#color-13)" stroke="#676767" stroke-width="0"/><path d="M292.86602,190.80853c0,0 -13.60421,-6.04969 -24.61125,-9.65445c-8.80521,-2.88367 -22.37446,-4.74283 -22.37446,-4.74283l1.41519,-1.9718c0,0 5.40988,-2.6776 22.28244,2.36009c19.62111,5.85832 24.44387,11.57449 24.44387,11.57449z" data-paper-data="{&quot;index&quot;:null}" fill="url(#color-14)" stroke="#676767" stroke-width="0"/><path d="M246.04683,187.33451c0,0 14.76735,-1.89701 26.0454,-4.53418c9.02202,-2.10963 21.58278,-7.56933 21.58278,-7.56933l-0.18507,2.42002c0,0 -3.23194,5.09812 -20.26646,9.55761c-19.80944,5.18594 -26.89972,2.80655 -26.89972,2.80655z" data-paper-data="{&quot;index&quot;:null}" fill="url(#color-15)" stroke="#676767" stroke-width="0"/><path d="M259.79492,159.97855c0,0 6.49214,3.71292 15.79263,21.95597c7.99767,15.68754 6.33952,21.49157 6.33952,21.49157l-1.68428,1.74755c0,0 -4.27558,-13.01155 -8.69979,-21.15241c-5.53052,-10.17656 -13.93424,-22.46684 -13.93424,-22.46684z" data-paper-data="{&quot;index&quot;:null}" fill="url(#color-16)" stroke="#676767" stroke-width="0"/><path d="M295.63291,185.16481c-1.40368,14.02855 -14.01784,24.25263 -28.1745,22.83613c-14.15666,-1.4165 -24.49499,-13.93719 -23.09131,-27.96574c1.40368,-14.02855 14.01784,-24.25263 28.1745,-22.83613c14.15666,1.4165 24.49499,13.93719 23.09131,27.96574z" fill="url(#color-17)" stroke="url(#color-18)" stroke-width="0"/><path d="M241.59789,160.56662v-8.69862h50.37971v8.69862z" fill-opacity="0.53453" fill="#000000" stroke="#a60000" stroke-width="0"/><text transform="translate(242.03173,158.84285) scale(0.21839,0.21839)" font-size="40" xml:space="preserve" fill="#ffffff" fill-rule="nonzero" stroke="#000000" stroke-width="0" stroke-linecap="butt" stroke-linejoin="miter" stroke-miterlimit="10" stroke-dasharray="" stroke-dashoffset="0" font-family="Serif" font-weight="normal" text-anchor="start" style="mix-blend-mode: normal"><tspan x="0" dy="0">Dyson Sphere</tspan></text></g></g></svg>