<svg version="1.1" xmlns="http://www.w3.org/2000/svg" xmlns:xlink="http://www.w3.org/1999/xlink" width="46.05508" height="104.1057" viewBox="0,0,46.05508,104.1057"><defs><radialGradient cx="226.79379" cy="167.56812" r="20.58604" gradientUnits="userSpaceOnUse" id="color-1"><stop offset="0" stop-color="#ff8700"/><stop offset="1" stop-color="#a77426"/></radialGradient><radialGradient cx="241.62593" cy="166.93512" r="20.58605" gradientUnits="userSpaceOnUse" id="color-2"><stop offset="0" stop-color="#ff8700"/><stop offset="1" stop-color="#a77426"/></radialGradient><linearGradient x1="239.74788" y1="156.06833" x2="239.74788" y2="162.91939" gradientUnits="userSpaceOnUse" id="color-3"><stop offset="0" stop-color="#2b2b2b"/><stop offset="1" stop-color="#3f3f3f"/></linearGradient><radialGradient cx="235.80052" cy="134.5081" r="13.11833" gradientUnits="userSpaceOnUse" id="color-4"><stop offset="0" stop-color="#7bccb1"/><stop offset="1" stop-color="#618c94"/></radialGradient><radialGradient cx="235.80052" cy="134.5081" r="13.11833" gradientUnits="userSpaceOnUse" id="color-5"><stop offset="0" stop-color="#727272"/><stop offset="1" stop-color="#333333"/></radialGradient><radialGradient cx="238.90385" cy="140.20256" r="11.56644" gradientUnits="userSpaceOnUse" id="color-6"><stop offset="0" stop-color="#ffffff" stop-opacity="0.74902"/><stop offset="1" stop-color="#abffe7" stop-opacity="0.56471"/></radialGradient><radialGradient cx="252.48005" cy="167.35378" r="19.42996" gradientUnits="userSpaceOnUse" id="color-7"><stop offset="0" stop-color="#6f8281"/><stop offset="1" stop-color="#576766"/></radialGradient><radialGradient cx="235.77188" cy="168.37063" r="17.31619" gradientUnits="userSpaceOnUse" id="color-8"><stop offset="0" stop-color="#7a908e"/><stop offset="1" stop-color="#576766"/></radialGradient><radialGradient cx="223.04891" cy="167.88492" r="19.92922" gradientUnits="userSpaceOnUse" id="color-9"><stop offset="0" stop-color="#6f8281"/><stop offset="1" stop-color="#576766"/></radialGradient></defs><g transform="translate(-218.58589,-130.87877)"><g data-paper-data="{&quot;isPaintingLayer&quot;:true}" fill-rule="nonzero" stroke-linejoin="miter" stroke-miterlimit="10" stroke-dasharray="" stroke-dashoffset="0" style="mix-blend-mode: normal"><g stroke="none" stroke-width="0" stroke-linecap="butt"><path d="M237.44528,176.57589c-0.32393,21.49106 -0.0929,21.92253 -7.52773,21.814c-7.84376,-0.1145 -7.60283,-0.76234 -7.52773,-21.814c0.07862,-22.03858 0.60596,-21.65002 7.52773,-21.814c7.33196,-0.1737 7.85978,-0.2156 7.52773,21.814z" fill="url(#color-1)"/><path d="M252.27741,175.94289c-0.32393,21.49106 -0.0929,21.92253 -7.52773,21.814c-7.84376,-0.1145 -7.60283,-0.76235 -7.52773,-21.814c0.07862,-22.03858 0.60596,-21.65001 7.52773,-21.81399c7.33196,-0.1737 7.85977,-0.21561 7.52773,21.81399z" fill="url(#color-2)"/></g><g><path d="M239.35937,192.4738c3.60975,-0.3706 10.71732,1.09383 10.71732,1.09383l6.45847,33.22421l-7.59939,0.78021c0,0 -3.92826,-25.26911 -5.04687,-29.20739c-0.31703,-1.11616 -3.49294,-1.73089 -3.49294,-1.73089c0,0 -4.08736,-3.84674 -1.03658,-4.15995z" fill="#343331" stroke="#000000" stroke-width="0" stroke-linecap="butt"/><path d="M263.63287,233.19018c-0.58966,0.06054 -2.62888,0.28363 -4.68659,0.41391c-1.25104,0.07922 -1.9553,-0.42029 -2.89838,-0.46705c-1.18729,-0.05886 -2.90065,0.51943 -3.76502,0.41566c-1.59271,-0.19121 -2.44166,-0.53123 -2.44166,-0.53123c0,0 -0.37243,-0.99256 -0.44606,-1.54834c-0.09921,-0.74879 -0.09563,-2.54053 -0.09563,-2.54053c0,0 5.89101,-0.72501 8.21426,-0.76215c1.37474,-0.02198 4.28445,0.21032 4.28445,0.21032c0,0 1.515,0.4633 1.77112,0.86647c0.31369,0.49379 1.07161,1.88908 1.07161,1.88908c0,0 -0.18554,1.9694 -1.0081,2.05385z" data-paper-data="{&quot;index&quot;:null}" fill="#141415" stroke="#000000" stroke-width="0" stroke-linecap="butt"/><path d="M263.10042,230.65651c-0.24692,0.02535 0.8623,1.52153 -2.46827,1.59353c-3.14513,0.06799 -2.88332,-0.89846 -3.99019,-0.86584c-2.31451,0.0682 -2.51335,0.85619 -3.52341,0.80611c-0.35176,-0.01744 -0.52173,-0.06157 -1.87436,-0.78302c-0.93025,-0.49616 -0.84103,-1.67408 -1.5018,-2.23762c-0.96521,-0.82318 -0.99684,-1.79337 -0.99684,-1.79337l-0.38724,-3.024c0,0 0.70919,2.1456 1.62794,2.88002c0.82203,0.65709 2.30287,-0.25528 2.78401,-0.30481c0.84251,-0.08674 -1.01901,-3.1806 -0.21163,-3.24516c0.43414,-0.03472 3.67938,-0.61307 3.67938,-0.61307c0,0 0.488,3.5486 0.7218,3.54486c1.37474,-0.02198 4.64632,0.17317 4.64632,0.17317c0,0 1.515,0.4633 1.77113,0.86647c0.31369,0.49379 0.92943,2.87886 0.92943,2.87886c0,0 -0.38368,0.03939 -1.20626,0.12385z" data-paper-data="{&quot;index&quot;:null}" fill="#252527" stroke="#000000" stroke-width="0" stroke-linecap="butt"/><path d="M255.36926,228.4962l2.54229,-1.35808" fill="none" stroke="#ffffff" stroke-width="0.5" stroke-linecap="round"/><path d="M257.33642,228.65992l2.38453,-1.70757" fill="none" stroke="#ffffff" stroke-width="0.5" stroke-linecap="round"/><path d="M259.53245,228.67825l1.2989,-1.59611" fill="none" stroke="#ffffff" stroke-width="0.5" stroke-linecap="round"/><path d="M255.9132,224.29586l-2.14648,0.46417" fill="none" stroke="#969696" stroke-width="0.5" stroke-linecap="round"/><path d="M256.22876,224.99485l-1.89284,0.56003" fill="none" stroke="#969696" stroke-width="0.5" stroke-linecap="round"/></g><path d="M235.9198,162.91939v-6.85104h7.65615v6.85104z" fill="url(#color-3)" stroke="#000000" stroke-width="0" stroke-linecap="butt"/><g stroke="none" stroke-linecap="butt"><path d="M252.95749,144.18413c0.04509,7.3914 -5.65598,13.41832 -12.73371,13.4615c-7.07773,0.04318 -12.85192,-5.91372 -12.89701,-13.30512c-0.04509,-7.3914 5.65598,-13.41832 12.73371,-13.4615c7.07773,-0.04318 12.85192,5.91372 12.89701,13.30512z" fill="url(#color-4)" stroke-width="0"/><path d="M252.95749,144.18413c0.04509,7.3914 -5.65598,13.41832 -12.73371,13.4615c-7.07773,0.04318 -12.85192,-5.91372 -12.89701,-13.30512c-0.04509,-7.3914 5.65598,-13.41832 12.73371,-13.4615c7.07773,-0.04318 12.85192,5.91372 12.89701,13.30512zM252.67416,143.3062c-0.03369,-5.52275 -4.53807,-9.9725 -10.06082,-9.9388c-0.69723,0.00425 -1.37737,0.07977 -2.03354,0.21958c-0.07261,-0.00112 -0.1454,-0.00145 -0.21837,-0.001c-5.52275,0.03369 -9.9725,4.53807 -9.9388,10.06082c0.00937,1.53593 0.36452,2.98885 0.99119,4.28544c1.31672,3.37742 4.41523,5.85958 8.13404,6.29905c0.9751,0.30996 2.01473,0.47436 3.0932,0.46778c5.4863,-0.03347 9.91373,-4.47883 9.93889,-9.95163c0.065,-0.47081 0.09719,-0.95203 0.09421,-1.44124z" fill="url(#color-5)" stroke-width="0"/><path d="M245.49316,150.76296c-0.98807,0.15405 -1.14211,-0.83401 -1.14211,-0.83401l-0.04734,-0.30359c-0.19431,-1.25138 -0.28453,-2.49449 -0.37501,-3.75718c0,0 -0.07147,-0.99745 0.92598,-1.06891c0.99745,-0.07147 1.06892,0.92598 1.06892,0.92598c0.08651,1.20734 0.16889,2.39578 0.35623,3.592l0.04734,0.30359c0,0 0.15406,0.98807 -0.83401,1.14212z" fill="#191412" stroke-width="0.5"/><path d="M248.8659,145.25798c-0.36829,-1.30849 1.70814,-4.13433 1.70814,-4.13433c0,0 2.03653,2.44202 2.07385,4.08318c0.0397,1.74614 -3.33134,1.6523 -3.78199,0.05115z" fill="#191412" stroke-width="0.5"/><path d="M235.77059,145.02807c-0.27584,-1.38446 2.59603,-4.05527 2.59603,-4.05527c0,0 2.35166,2.49321 2.14913,4.16906c-0.21548,1.78304 -4.40764,1.58033 -4.74518,-0.11378z" data-paper-data="{&quot;index&quot;:null}" fill="#191412" stroke-width="0.5"/><g fill="#00ffcc" stroke-width="0.5"><path d="M241.7161,137.82844c-0.0024,-0.39455 0.31547,-0.71633 0.71002,-0.71874c0.39455,-0.0024 0.71633,0.31547 0.71874,0.71002c0.0024,0.39455 -0.31547,0.71633 -0.71002,0.71874c-0.39455,0.0024 -0.71633,-0.31547 -0.71874,-0.71002z"/><path d="M243.67416,134.96294c-0.0024,-0.39455 0.31547,-0.71634 0.71002,-0.71875c0.39455,-0.0024 0.71633,0.31548 0.71874,0.71003c0.0024,0.39455 -0.31547,0.71633 -0.71002,0.71874c-0.39455,0.0024 -0.71633,-0.31547 -0.71874,-0.71002z"/><path d="M245.66749,137.87751c-0.0024,-0.39455 0.31547,-0.71633 0.71002,-0.71874c0.39455,-0.0024 0.71633,0.31547 0.71874,0.71002c0.0024,0.39455 -0.31547,0.71633 -0.71002,0.71874c-0.39455,0.0024 -0.71633,-0.31547 -0.71874,-0.71002z"/></g><path d="M253.58322,143.87107c0.03679,6.0287 -5.11177,10.94751 -11.49963,10.98649c-6.38786,0.03897 -11.59604,-4.81665 -11.63282,-10.84535c-0.03679,-6.0287 5.11177,-10.94751 11.49963,-10.98649c6.38786,-0.03897 11.59604,4.81665 11.63282,10.84535z" fill="url(#color-6)" stroke-width="0"/></g><g><path d="M222.38239,226.16252l7.87543,-32.99208c0,0 6.9723,-1.33551 10.01584,-0.95842c3.60118,0.44618 0.07986,4.28642 0.07986,4.28642c0,0 -3.07944,-0.29258 -3.55965,1.09471c-1.4686,4.24261 -6.4691,29.55341 -6.4691,29.55341z" fill="#343331" stroke="#000000" stroke-width="0" stroke-linecap="butt"/><path d="M237.25794,233.20416c0,0 -0.62133,1.878 -1.44196,1.77633c-0.58827,-0.07288 -2.62572,-0.31155 -4.66044,-0.64481c-1.23705,-0.20261 -1.81175,-0.84698 -2.72049,-1.10352c-1.14405,-0.32295 -2.94334,-0.14252 -3.76259,-0.437c-1.50959,-0.54261 -2.26098,-1.06389 -2.26098,-1.06389c0,0 -0.14101,-1.0507 -0.08845,-1.60888c0.07078,-0.752 0.47502,-2.49755 0.47502,-2.49755c0,0 5.90391,0.611 8.17662,1.09443c1.34482,0.28607 4.12886,1.1633 4.12886,1.1633c0,0 1.37298,0.79042 1.53245,1.24066c0.19529,0.55144 0.62192,2.08093 0.62192,2.08093z" data-paper-data="{&quot;index&quot;:null}" fill="#141415" stroke="#000000" stroke-width="0" stroke-linecap="butt"/><path d="M237.06712,232.54103c0,0 -0.38276,-0.04742 -1.20339,-0.1491c-0.24634,-0.03052 0.50013,1.67586 -2.76216,1.00108c-3.08065,-0.63721 -2.60931,-1.5206 -3.69545,-1.73639c-2.27112,-0.45122 -2.64119,0.27234 -3.61446,-0.0024c-0.33895,-0.09569 -0.49474,-0.17672 -1.65173,-1.18241c-0.7957,-0.69166 -0.44528,-1.81978 -0.96327,-2.51684c-0.75664,-1.01823 -0.57046,-1.9709 -0.57046,-1.9709l0.29895,-3.03399c0,0 0.21131,2.24988 0.94252,3.17119c0.65423,0.8243 2.30163,0.26627 2.78165,0.3256c0.84056,0.1039 -0.28179,-3.32795 0.51958,-3.21028c0.43091,0.06327 3.72328,0.22544 3.72328,0.22544c0,0 -0.31809,3.56784 -0.08938,3.61649c1.34481,0.28607 4.48987,1.20803 4.48987,1.20803c0,0 1.37298,0.79042 1.53245,1.24066c0.1953,0.55146 0.26197,3.0138 0.26197,3.0138z" data-paper-data="{&quot;index&quot;:null}" fill="#252527" stroke="#000000" stroke-width="0" stroke-linecap="butt"/><path d="M228.81164,228.55712l2.78166,-0.75504" data-paper-data="{&quot;index&quot;:null}" fill="none" stroke="#ffffff" stroke-width="0.5" stroke-linecap="round"/><path d="M230.69234,229.15668l2.70604,-1.13097" data-paper-data="{&quot;index&quot;:null}" fill="none" stroke="#ffffff" stroke-width="0.5" stroke-linecap="round"/><path d="M232.82862,229.66575l1.623,-1.26516" data-paper-data="{&quot;index&quot;:null}" fill="none" stroke="#ffffff" stroke-width="0.5" stroke-linecap="round"/><path d="M230.28128,224.58486l-2.19592,-0.02769" data-paper-data="{&quot;index&quot;:null}" fill="none" stroke="#969696" stroke-width="0.5" stroke-linecap="round"/><path d="M228.46234,225.45918l1.97016,-0.12246" data-paper-data="{&quot;index&quot;:null}" fill="none" stroke="#969696" stroke-width="0.5" stroke-linecap="round"/></g><g><path d="M253.76702,199.16421c0,0 0.76968,-2.94165 0.32258,-6.43964c-0.10751,-0.84118 -0.24755,-3.60078 -0.36737,-4.46404c-0.28357,-2.0431 -0.64513,-4.06127 -0.78507,-5.3172c-0.30102,-2.70131 -1.67471,-15.90706 -1.67471,-15.90706c0,0 -0.65045,-7.1868 0.34286,-7.31038c7.26528,-0.90389 5.97379,6.26021 5.97379,6.26021c0,0 -0.0714,6.5888 0.42729,13.57623c0.37513,5.25628 1.3267,10.83849 1.46066,13.45244c0.15855,3.09364 -0.13994,7.07843 -0.13994,7.07843z" data-paper-data="{&quot;index&quot;:null}" fill="url(#color-7)" stroke="#000000" stroke-width="0" stroke-linecap="butt"/><path d="M258.23137,208.9789c-0.51692,-0.04424 -0.283,-3.06904 -0.95251,-3.93786c-0.3544,-0.45989 0.68313,4.62415 -0.65257,4.07237c-0.45856,-0.18944 -0.41924,-3.9267 -0.87026,-4.77187c-0.24143,-0.45245 -0.19986,5.21854 -1.09788,4.89529c-0.53308,-0.19189 -0.25379,-3.09851 -0.55007,-4.52192c-0.14435,-0.69346 -0.34106,-5.55068 -0.34106,-5.55068l5.56009,0.929c0,0 -0.02521,2.79383 -0.19023,5.13641c-0.14849,2.10783 -0.40774,3.79187 -0.90551,3.74928z" data-paper-data="{&quot;index&quot;:null}" fill="#323a3a" stroke="#000000" stroke-width="0" stroke-linecap="butt"/><path d="M251.55678,167.05525l5.74161,-0.45608" fill="none" stroke="#00ffb0" stroke-width="1" stroke-linecap="round"/><path d="M257.49593,168.28091l-5.86994,0.58073" fill="none" stroke="#00ffb0" stroke-width="1" stroke-linecap="round"/><path d="M251.69521,170.66803l5.74161,-0.45608" fill="none" stroke="#00ffb0" stroke-width="1" stroke-linecap="round"/></g><g stroke-width="0" stroke-linecap="butt"><path d="M229.6398,193.59143c0,0 0.16709,-5.5597 -0.35268,-10.94382c-0.35317,-3.65847 -1.40473,-6.95919 -1.56162,-9.45339c-0.29447,-4.68133 -0.2105,-13.38223 -0.2105,-13.38223c0,0 3.69178,-0.58477 5.4694,-0.21857c2.26281,0.46615 7.00656,2.78867 7.00656,2.78867c0,0 3.67689,-2.17061 5.59031,-2.58687c2.01891,-0.43921 6.22369,0.01677 6.22369,0.01677c0,0 -0.06905,9.21711 -0.22689,12.65629c-0.13965,3.04285 -0.88957,6.36811 -1.18346,10.87293c-0.3029,4.64296 -0.14784,10.42155 -0.14784,10.42155c0,0 -2.75697,-0.76932 -5.57187,-0.83754c-1.27833,-0.03098 -1.79126,1.00612 -2.99851,1.16532c-0.96496,0.12724 -2.63623,-0.61291 -3.56107,-0.64966c-0.69915,-0.02778 -2.04377,-0.5306 -2.53801,-0.53471c-0.99795,-0.0083 -1.61572,0.86529 -2.77345,1.02464c-1.34484,0.1851 -3.1641,-0.33939 -3.1641,-0.33939z" fill="url(#color-8)" stroke="#292e32"/><path d="M246.91518,166.62653c3.55914,-0.03151 3.40064,0.87953 3.40064,1.96449c0,1.08496 0.79843,2.00343 -3.40064,1.96449c-4.03819,-0.03744 -3.33404,1.01625 -3.40064,-1.96449c-0.05453,-2.44079 -0.63741,-1.92875 3.40064,-1.96449z" data-paper-data="{&quot;index&quot;:null}" fill="#c9ffe7" stroke="#000000"/></g><g><path d="M218.6478,199.75055c0,0 -0.18259,-3.99258 0.07937,-7.07947c0.22135,-2.60826 1.38243,-8.15648 1.93693,-13.39783c0.73711,-6.96758 0.87188,-13.55542 0.87188,-13.55542c0,0 -1.33065,-6.6165 6.2561,-5.74696c1.03914,0.1191 0.2448,7.20844 0.2448,7.20844c0,0 -1.83915,12.94928 -2.23607,15.63936c-0.18454,1.25072 -0.62244,3.25602 -0.98048,5.28881c-0.15127,0.85889 -0.38352,3.61253 -0.52137,4.44976c-0.57325,3.48157 0.12978,6.44698 0.12978,6.44698z" data-paper-data="{&quot;index&quot;:null}" fill="url(#color-9)" stroke="#000000" stroke-width="0" stroke-linecap="butt"/><path d="M218.68195,204.89062c-0.09653,-2.34681 -0.03414,-5.14007 -0.03414,-5.14007l5.78094,-0.74633c0,0 -0.35728,4.84834 -0.52856,5.53672c-0.35156,1.41299 -0.15468,4.32732 -0.7122,4.50163c-0.93917,0.29366 -0.7166,-5.37312 -0.98067,-4.92881c-0.49331,0.82997 -0.57097,4.56664 -1.05131,4.74096c-1.39916,0.50773 -0.16493,-4.53976 -0.54609,-4.09171c-0.72008,0.84644 -0.57388,3.8774 -1.11,3.90467c-0.51626,0.02626 -0.73111,-1.66542 -0.81797,-3.77706z" data-paper-data="{&quot;index&quot;:null}" fill="#323a3a" stroke="#000000" stroke-width="0" stroke-linecap="butt"/><path d="M221.46146,167.30954l6.18246,0.90161" fill="none" stroke="#00ffb0" stroke-width="1" stroke-linecap="round"/><path d="M221.46146,169.11276l5.92486,0.90161" fill="none" stroke="#00ffb0" stroke-width="1" stroke-linecap="round"/><path d="M227.25752,172.07518l-5.79606,-1.03041" fill="none" stroke="#00ffb0" stroke-width="1" stroke-linecap="round"/></g></g></g></svg>