<svg version="1.1" xmlns="http://www.w3.org/2000/svg" xmlns:xlink="http://www.w3.org/1999/xlink" width="135.11862" height="186.63286" viewBox="0,0,135.11862,186.63286"><defs><linearGradient x1="306.76088" y1="65.82409" x2="281.19898" y2="128.62408" gradientUnits="userSpaceOnUse" id="color-1"><stop offset="0" stop-color="#4a4a4a" stop-opacity="0"/><stop offset="1" stop-color="#4a4a4a" stop-opacity="0.6549"/></linearGradient><linearGradient x1="313.95373" y1="65.76184" x2="280.85544" y2="131.20569" gradientUnits="userSpaceOnUse" id="color-2"><stop offset="0" stop-color="#292929" stop-opacity="0"/><stop offset="1" stop-color="#292929" stop-opacity="0.58824"/></linearGradient><linearGradient x1="316.85485" y1="72.66791" x2="279.60051" y2="129.49194" gradientUnits="userSpaceOnUse" id="color-3"><stop offset="0" stop-color="#383838" stop-opacity="0"/><stop offset="1" stop-color="#383838" stop-opacity="0.76078"/></linearGradient><linearGradient x1="309.07462" y1="72.05743" x2="281.49437" y2="128.21231" gradientUnits="userSpaceOnUse" id="color-4"><stop offset="0" stop-color="#4b4b4b" stop-opacity="0"/><stop offset="1" stop-color="#4b4b4b" stop-opacity="0.75294"/></linearGradient><linearGradient x1="234.5053" y1="147.8915" x2="291.71803" y2="177.11565" gradientUnits="userSpaceOnUse" id="color-5"><stop offset="0" stop-color="#8f8f8f"/><stop offset="1" stop-color="#302e2d"/></linearGradient><linearGradient x1="262.48442" y1="120.95066" x2="296.37543" y2="138.26212" gradientUnits="userSpaceOnUse" id="color-6"><stop offset="0" stop-color="#ffe83c"/><stop offset="1" stop-color="#a77c00"/></linearGradient><linearGradient x1="281.07749" y1="126.38092" x2="277.78236" y2="132.83186" gradientUnits="userSpaceOnUse" id="color-7"><stop offset="0" stop-color="#348317"/><stop offset="1" stop-color="#3c5b0d"/></linearGradient><linearGradient x1="256.60918" y1="132.02358" x2="290.50019" y2="149.33504" gradientUnits="userSpaceOnUse" id="color-8"><stop offset="0" stop-color="#ffe83c"/><stop offset="1" stop-color="#a77c00"/></linearGradient><linearGradient x1="275.20225" y1="137.45383" x2="271.90713" y2="143.90477" gradientUnits="userSpaceOnUse" id="color-9"><stop offset="0" stop-color="#348317"/><stop offset="1" stop-color="#3c5b0d"/></linearGradient><radialGradient cx="231.55571" cy="201.68744" r="27.13216" gradientUnits="userSpaceOnUse" id="color-10"><stop offset="0" stop-color="#93bde8"/><stop offset="1" stop-color="#52607f"/></radialGradient><linearGradient x1="242.27348" y1="190.72123" x2="242.27348" y2="244.98073" gradientUnits="userSpaceOnUse" id="color-11"><stop offset="0" stop-color="#348317"/><stop offset="1" stop-color="#3c5b0d"/></linearGradient><radialGradient cx="261.28017" cy="202.84645" r="27.13216" gradientUnits="userSpaceOnUse" id="color-12"><stop offset="0" stop-color="#93bde8"/><stop offset="1" stop-color="#52607f"/></radialGradient><linearGradient x1="272.02022" y1="190.82574" x2="272.02022" y2="245.08524" gradientUnits="userSpaceOnUse" id="color-13"><stop offset="0" stop-color="#348317"/><stop offset="1" stop-color="#3c5b0d"/></linearGradient><linearGradient x1="242.55649" y1="179.70993" x2="242.55649" y2="191.78861" gradientUnits="userSpaceOnUse" id="color-14"><stop offset="0" stop-color="#348317"/><stop offset="1" stop-color="#3c5b0d"/></linearGradient><linearGradient x1="271.36134" y1="179.98948" x2="271.36134" y2="192.06815" gradientUnits="userSpaceOnUse" id="color-15"><stop offset="0" stop-color="#348317"/><stop offset="1" stop-color="#3c5b0d"/></linearGradient><linearGradient x1="186.22599" y1="206.50508" x2="232.84012" y2="206.50508" gradientUnits="userSpaceOnUse" id="color-16"><stop offset="0" stop-color="#3f3f3f"/><stop offset="1" stop-color="#313131"/></linearGradient><linearGradient x1="209.53306" y1="168.71137" x2="209.53306" y2="244.29878" gradientUnits="userSpaceOnUse" id="color-17"><stop offset="0" stop-color="#348317"/><stop offset="1" stop-color="#3c5b0d"/></linearGradient><linearGradient x1="180.476" y1="206.5356" x2="237.59012" y2="206.5356" gradientUnits="userSpaceOnUse" id="color-18"><stop offset="0" stop-color="#4a4a4a"/><stop offset="1" stop-color="#373737"/></linearGradient><linearGradient x1="209.03307" y1="190.78038" x2="209.03307" y2="222.29081" gradientUnits="userSpaceOnUse" id="color-19"><stop offset="0" stop-color="#348317"/><stop offset="1" stop-color="#3c5b0d"/></linearGradient><linearGradient x1="188.833" y1="179.78592" x2="229.44712" y2="179.78592" gradientUnits="userSpaceOnUse" id="color-20"><stop offset="0" stop-color="#ff4489"/><stop offset="1" stop-color="#ff0053"/></linearGradient><linearGradient x1="209.14006" y1="172.35337" x2="209.14006" y2="187.21847" gradientUnits="userSpaceOnUse" id="color-21"><stop offset="0" stop-color="#348317"/><stop offset="1" stop-color="#3c5b0d"/></linearGradient><linearGradient x1="183.226" y1="206.6296" x2="233.59012" y2="206.6296" gradientUnits="userSpaceOnUse" id="color-22"><stop offset="0" stop-color="#ff4489"/><stop offset="1" stop-color="#ff0053"/></linearGradient><linearGradient x1="208.40807" y1="199.19704" x2="208.40807" y2="214.06215" gradientUnits="userSpaceOnUse" id="color-23"><stop offset="0" stop-color="#348317"/><stop offset="1" stop-color="#3c5b0d"/></linearGradient><linearGradient x1="188.833" y1="233.23383" x2="229.44712" y2="233.23383" gradientUnits="userSpaceOnUse" id="color-24"><stop offset="0" stop-color="#ff4489"/><stop offset="1" stop-color="#ff0053"/></linearGradient><linearGradient x1="209.14006" y1="225.80128" x2="209.14006" y2="240.66638" gradientUnits="userSpaceOnUse" id="color-25"><stop offset="0" stop-color="#348317"/><stop offset="1" stop-color="#3c5b0d"/></linearGradient></defs><g transform="translate(-180.476,-58.4544)"><g data-paper-data="{&quot;isPaintingLayer&quot;:true}" fill-rule="nonzero" stroke-linecap="butt" stroke-linejoin="miter" stroke-miterlimit="10" stroke-dasharray="" stroke-dashoffset="0" style="mix-blend-mode: normal"><path d="M263.27468,116.63571l-0.02282,-0.02699l0.00744,-0.06338c-0.05132,-0.34755 -0.01502,-0.7053 0.12285,-1.04401l0.26965,-0.66246l0.16208,-0.21018l0.09959,-0.24467l0.19985,-0.25913l0.5979,-1.46897l0.19645,-0.83914l0.07416,-0.13555l0.01822,-0.15466l0.0072,-0.01766l0.00073,-0.06673l-0.06611,-0.28919l0.01033,-0.30371l-0.17351,-1.47302l0.02257,-0.15386l-0.03563,-0.15584l0.02124,-0.62525l-0.05787,-0.22973l0.00322,-0.29087l-0.06611,-0.28919l0.04671,-1.37443l0.10262,-0.32975l0.04064,-0.34542l0.0622,-0.15282l0.03837,-0.32613l0.09957,-0.24461l0.03113,-0.2645l0.03051,-0.07495l0.00359,-0.10549l0.10261,-0.32976l0.04064,-0.34542l1.02464,-2.51728l0.16208,-0.21018l0.09959,-0.24467l0.19985,-0.25913l0.22399,-0.55029l0.16208,-0.21018l0.09959,-0.24467l0.33058,-0.42866l0.38674,-0.55967l0.10553,-0.08888l0.0616,-0.12079l0.52506,-0.57414l0.3397,-0.49155l0.10553,-0.08888l0.0616,-0.12079l0.50136,-0.54825l0.3789,-0.59216l0.24144,-0.21805l0.18907,-0.26033l0.60379,-0.48557l0.54165,-0.65171l0.16821,-0.11858l0.11849,-0.16315l2.16552,-1.74136l1.12816,-1.23367l0.20484,-0.13084l0.15554,-0.18017l0.5623,-0.38143l0.43663,-0.42033l0.15706,-0.08728l0.11436,-0.1325l0.70829,-0.48043l0.11145,-0.04l0.08383,-0.07758l0.39471,-0.20988l0.91708,-0.88289l0.0823,-0.04574l0.0537,-0.07394l2.67365,-2.15001l0.71636,-0.78332l0.80119,-1.20865l0.14022,-0.12267l0.0882,-0.16089l0.98213,-1.01267l0.60911,-1.15056l0.08074,-0.08566l0.03822,-0.1102l0.81199,-1.17501l0.86966,-1.35926l0.76674,-1.50376l1.86552,-4.58323l0.27025,-0.99851l0.11779,-1.00092l0.08216,-1.01278l0.01258,-0.0345l-0.00543,-0.03733l0.05234,-0.44481l-0.01848,-0.6356l0.0152,-0.06292l-0.01488,-0.0651l0.02123,-0.62526l-0.05786,-0.22977l0.00172,-0.15523l-0.03242,-0.02085l-0.0636,-0.27821l-0.14634,-0.25496l0.05246,-0.15561l-0.09763,-0.42718l0.00206,-0.06058l-0.00073,-0.00361l-0.10743,-0.20022l-0.13064,-0.51881l0.00322,-0.29087l-0.04035,-0.1765l-0.16572,-0.34683l-0.06989,-0.34921l-0.13075,-0.33775l-0.03836,-0.32564l0.01245,-0.08479l-0.20322,-0.35411l0.03423,-0.10152l-0.06639,-0.17152l-0.03837,-0.32565l0.16177,-1.1016l0.51936,-0.31573l0.25542,-0.5315l1.12957,-0.3105l0.19476,-0.00626l0.0201,-0.01427l0.06676,0.01148l0.06473,-0.00208l0.53227,0.10506l0.53399,0.0921l0.06112,0.02534l0.06653,0.01313l0.01546,0.02089l3.68324,1.52828l1.20872,0.36492l1.04175,0.28248l0.15101,0.07989l0.16727,0.02887l0.7535,0.31267l0.35272,0.06083l0.26998,0.11204l0.28609,0.04936l0.29244,0.12134l0.23778,0.16803l0.26998,0.11204l0.53093,0.37513l0.17121,0.1914l0.21645,0.14533l0.26605,0.28314l0.1671,0.02546l0.18816,0.23165l0.24817,0.17539l0.02952,0.16646l0.28782,0.35429l0.14703,0.1202l0.18913,0.24508l0.23953,0.20376l0.3308,0.44697l0.08732,0.20745l0.14585,0.17956l0.08765,0.18343l0.19453,0.26284l0.08732,0.20745l0.14585,0.17956l0.18459,0.3863l0.04331,0.21635l0.10743,0.20022l0.02194,0.08714l0.05555,0.07508l0.08732,0.20745l0.14584,0.17955l0.18457,0.38634l0.04329,0.21639l0.10744,0.20023l0.2462,0.97768l0.65023,2.0766l0.01395,0.28831l0.08293,0.28296l0.01441,0.49502l0.13448,0.42947l0.01395,0.28831l0.08292,0.28295l0.02016,0.69296l0.05614,0.47652l0.1523,0.76105l-0.0149,0.23856l0.05452,0.23848l-0.01033,0.30371l0.05842,0.49605l-0.03456,0.2354l0.03503,0.24029l-0.33776,2.87061l-0.01272,0.37465l-0.02503,0.08044l0.0125,0.08552l-0.12929,1.09873l-0.01274,0.37468l-0.10262,0.32975l-0.04064,0.34542l-0.11613,0.28528l-0.03837,0.32613l-0.01974,0.04845l0.0051,0.05327l-0.12343,0.72311l-0.01514,0.03215l0.00218,0.03619l-0.13008,0.62753l0.01592,0.54777l-0.04673,0.19355l0.01922,0.20222l-0.12343,0.72311l-0.0151,0.03217l0.00218,0.03619l-0.14303,0.69007l-0.02535,0.74576l-0.05063,0.16273l0.01052,0.17334l-0.14303,0.69007l-0.02535,0.74576l-0.04035,0.12961l0.01312,0.13812l-0.1008,0.59067l-0.02655,0.78101l-0.02503,0.08044l0.01248,0.08556l-0.05234,0.44481l0.01009,0.34687l0.48482,1.54828l0.24175,0.36579l0.09578,0.2684l0.1591,0.24454l0.27434,0.78769l1.35281,2.83145l0.33287,0.50367l0.10737,0.30088l0.16948,0.27859l0.17541,0.56015l0.39187,0.82018l0.04331,0.21635l0.10743,0.20022l0.03755,0.14913l0.20566,0.31119l0.12786,0.35832l0.18265,0.34037l0.2613,1.03759l-0.00152,0.13762l0.05137,0.13276l0.05352,0.45433l0.16265,0.51939l0.00962,0.19857l0.07392,0.19099l0.07672,0.65131l-0.0133,0.09068l0.02667,0.09097l0.02016,0.69296l0.14273,1.21172l-0.0133,0.09068l0.02667,0.09097l0.02016,0.69296l0.06601,0.56043l-0.0133,0.09068l0.02667,0.09097l0.02278,0.78379l-0.03477,0.14392l0.02189,0.1501l-0.03187,0.27089l0.10431,0.52122l-0.0149,0.23856l0.05452,0.23848l-0.03115,0.91625l-0.05063,0.16273l0.01052,0.17334l-0.12467,0.60145l0.04663,0.84625l-0.06317,0.29619l0.00525,0.30671l-0.24427,0.95978l-0.07154,0.88211l-0.05093,0.1396l0.00545,0.15117l-0.45686,1.95181l-0.17228,0.83108l-0.08201,0.15953l-0.02111,0.1796l-1.18638,2.91475l-0.13113,0.17006l-0.07006,0.20203l-0.41588,0.6018l-0.10553,0.08888l-0.0616,0.12079l-0.37893,0.41436l-0.13838,0.33994l-0.05298,0.0687l0.00871,0.074l-0.33776,0.35265l-0.2966,0.38459l-0.07811,0.00665l-0.06034,0.06299l-0.12691,0.07714l-0.13383,0.17357l-0.29878,0.22679l-0.25661,0.26793l-0.20116,0.12228l-0.11234,0.12283l-0.24844,0.15868l-0.20028,0.20911l-0.33658,0.20461l-0.14795,0.11899l-0.32816,0.14736l-0.29289,0.19865l-1.79124,0.64277l-0.60366,0.36697l-0.40203,0.3233l-0.16668,0.07485l-0.04638,0.09651l-0.20621,0.05669l-0.03494,0.04814l-0.04747,0.03818l-0.03782,0.04902l-0.0259,0.0022l-0.9051,0.72782l-0.16668,0.07485l-0.04638,0.09651l-0.43444,0.11939l-0.15279,0.06861l-0.01319,0.02746l-0.12358,0.03396l-0.11511,0.05169l-0.03174,-0.01132l-0.16403,0.04509l-0.15279,0.06861l-0.01319,0.02746l-0.12358,0.03396l-0.11511,0.05169l-0.03174,-0.01132l-0.16403,0.04509l-0.40469,0.1817l-0.1115,-0.03982l-0.17895,0.04919l-0.34636,0.01116l-0.16672,-0.03291l-0.16443,0.02155l-0.98516,-0.09902l-0.2955,-0.0992l-0.01212,0.00038l-0.53227,-0.10506l-0.53399,-0.0921l-0.06112,-0.02534l-0.06653,-0.01313l-0.01546,-0.02089l-0.07835,-0.03253l-0.41258,-0.08979l-0.34713,-0.03488l-0.36151,-0.12137l-0.37356,-0.06444l-0.66762,-0.27699l-0.11339,-0.01141l-0.36151,-0.12137l-0.37356,-0.06444l-0.08275,-0.03431l-0.11339,-0.01141l-0.08819,-0.02961l-0.09082,0.0052l-0.63878,-0.11018l-0.26998,-0.11204l-0.28609,-0.04936l-0.52138,-0.21632l-0.11341,-0.01141l-0.08815,-0.02961l-0.09082,0.0052l-0.63878,-0.11018l-0.26998,-0.11204l-0.28609,-0.04936l-1.24497,-0.51657l-0.55635,-0.12111l-0.21435,-0.09996l-0.23147,-0.03992l-17.98445,-7.4623l-0.31048,-0.21938l-0.34155,-0.17036l-0.76943,-0.62899l-0.04049,-0.05245l-0.13394,-0.05559l-0.02554,0.00388l-0.05647,-0.03791l-0.06112,-0.02534l-0.44384,-0.31361l-0.45161,-0.30316l-0.04458,-0.04743l-0.05547,-0.03922l-0.00435,-0.02445l-0.13412,-0.14275l-0.58693,-1.02267l0.33722,-1.00023l-0.00069,-0.00381l0.00259,-0.00185l0.21024,-0.6236c-0.47969,-0.36685 -0.79927,-0.87997 -0.90406,-1.42483z" fill="url(#color-1)" stroke="none" stroke-width="0.5"/><path d="M262.43845,117.00735l-0.02246,-0.03063l0.01349,-0.06744c-0.02595,-0.3766 0.044,-0.75757 0.22255,-1.11058l0.34914,-0.69035l0.19382,-0.21331l0.12895,-0.25495l0.23892,-0.26295l0.77422,-1.53082l0.28482,-0.88531l0.09204,-0.13984l0.03298,-0.16453l0.00931,-0.01843l0.00652,-0.07153l-0.04699,-0.31514l0.03717,-0.32495l-0.0622,-1.59282l0.03766,-0.1633l-0.02532,-0.16981l0.07653,-0.66902l-0.04311,-0.25074l0.02835,-0.31171l-0.04699,-0.31514l0.16822,-1.47062l0.1395,-0.346l0.07362,-0.36743l0.08055,-0.15927l0.06952,-0.3469l0.12895,-0.25495l0.05639,-0.28137l0.03954,-0.07814l0.0129,-0.11288l0.1395,-0.346l0.07362,-0.36743l1.32671,-2.62327l0.19382,-0.21331l0.12895,-0.25495l0.23892,-0.26295l0.29003,-0.57344l0.19381,-0.21332l0.12895,-0.25495l0.39527,-0.43504l0.46735,-0.5713l0.12206,-0.08745l0.07714,-0.12496l0.61862,-0.57651l0.41051,-0.5018l0.12206,-0.08745l0.07714,-0.12496l0.59073,-0.55052l0.46165,-0.60683l0.28055,-0.21583l0.22731,-0.26505l0.69648,-0.47563l0.64323,-0.65849l0.1926,-0.11458l0.14245,-0.16614l2.49785,-1.70573l1.32924,-1.23877l0.23336,-0.12501l0.18415,-0.18166l0.64252,-0.36699l0.50955,-0.41818l0.17784,-0.08188l0.13537,-0.13356l0.80934,-0.46233l0.12428,-0.03453l0.09756,-0.07698l0.44611,-0.19558l1.07025,-0.87834l0.09321,-0.04293l0.06456,-0.07527l3.08398,-2.10601l0.844,-0.78659l0.97243,-1.23642l0.16261,-0.1211l0.1094,-0.16594l1.15192,-1.01269l0.7591,-1.18847l0.0949,-0.08585l0.05089,-0.11538l0.98125,-1.19954l1.05959,-1.39283l0.96029,-1.55548l2.41554,-4.77617l0.37852,-1.05072l0.21336,-1.06469l0.17572,-1.08008l0.0166,-0.03608l-0.00269,-0.04044l0.09481,-0.47316l0.03431,-0.68311l0.02185,-0.06634l-0.01058,-0.07092l0.07653,-0.66902l-0.04311,-0.25074l0.01515,-0.16636l-0.03337,-0.02479l-0.04518,-0.30316l-0.13691,-0.28441l0.07023,-0.16298l-0.06941,-0.46545l0.00741,-0.0648l-0.00049,-0.00394l-0.09942,-0.22277l-0.09734,-0.56621l0.02835,-0.31171l-0.02867,-0.1923l-0.15007,-0.38439l-0.04593,-0.37977l-0.1129,-0.37206l-0.01374,-0.35216l0.02076,-0.09003l-0.19014,-0.395l0.04581,-0.1063l-0.05734,-0.18895l-0.01374,-0.35216l0.2697,-1.16943l0.59038,-0.2998l0.32252,-0.55097l1.25177,-0.2485l0.21178,0.00784l0.02306,-0.01386l0.07141,0.01737l0.0704,0.0026l0.56837,0.15247l0.57133,0.13873l0.06412,0.03177l0.07103,0.01907l0.01497,0.02355l3.86447,1.91456l1.27992,0.48172l1.10579,0.38092l0.157,0.09694l0.17895,0.04348l0.7906,0.39166l0.37738,0.09165l0.2833,0.14034l0.3061,0.07431l0.30682,0.15202l0.24354,0.19797l0.2833,0.14034l0.5438,0.44208l0.16931,0.21815l0.22236,0.17204l0.26436,0.32358l0.17905,0.03983l0.18431,0.26252l0.25421,0.20663l0.01776,0.18074l0.28186,0.40154l0.1492,0.13991l0.18421,0.27697l0.24241,0.23644l0.32058,0.50414l0.07699,0.22901l0.14288,0.20348l0.07939,0.20329l0.18852,0.29645l0.07698,0.229l0.14288,0.20348l0.16717,0.42813l0.02847,0.2353l0.09942,0.22277l0.01634,0.09508l0.05385,0.08467l0.07699,0.22901l0.14288,0.20348l0.16717,0.42813l0.02847,0.2353l0.09942,0.22277l0.18344,1.06702l0.5277,2.27586l-0.00957,0.31027l0.06573,0.30965l-0.02672,0.53202l0.10912,0.47067l-0.00957,0.31027l0.06573,0.30965l-0.03739,0.74473l0.02014,0.51528l0.1001,0.8276l-0.03656,0.25475l0.03875,0.25982l-0.03717,0.32495l0.02096,0.53638l-0.05763,0.24988l0.01748,0.26034l-0.61192,3.05359l-0.04585,0.40089l-0.03404,0.08442l0.00623,0.09267l-0.23419,1.16874l-0.04585,0.40089l-0.1395,0.346l-0.07362,0.36743l-0.15035,0.2973l-0.0695,0.34687l-0.02554,0.05047l0.00097,0.05751l-0.19572,0.76633l-0.01915,0.03334l-0.00071,0.03897l-0.19478,0.66333l-0.02958,0.58872l-0.06723,0.20407l0.00355,0.21832l-0.19572,0.76633l-0.01914,0.03335l-0.00071,0.03897l-0.21417,0.72942l-0.09127,0.79798l-0.06884,0.17072l-0.00338,0.18669l-0.21417,0.72942l-0.09127,0.79798l-0.05483,0.13599l0.00244,0.14911l-0.15989,0.62597l-0.09561,0.83564l-0.03404,0.08442l0.00623,0.09267l-0.09481,0.47316l-0.01873,0.37282l0.39345,1.69686l0.23094,0.41043l0.08094,0.29505l0.15164,0.2742l0.23016,0.86533l1.22523,3.13801l0.31798,0.5651l0.09074,0.33072l0.16002,0.31149l0.14235,0.61394l0.35492,0.90896l0.02847,0.2353l0.09942,0.22277l0.028,0.16272l0.19645,0.34915l0.10805,0.39388l0.16899,0.37869l0.19466,1.13242l-0.01343,0.14747l0.04437,0.14626l0.0192,0.49128l0.13199,0.56922l-0.00658,0.21372l0.06385,0.2104l0.0275,0.70427l-0.02221,0.09629l0.02115,0.09958l-0.03739,0.74473l0.05116,1.3103l-0.02221,0.09629l0.02115,0.09958l-0.03739,0.74473l0.02368,0.60605l-0.02221,0.09629l0.02115,0.09958l-0.04231,0.84237l-0.05001,0.15177l0.01092,0.16261l-0.05775,0.28814l0.06857,0.56679l-0.03656,0.25475l0.03875,0.25982l-0.11215,0.98039l-0.06884,0.17072l-0.00338,0.18669l-0.18668,0.63576l-0.0218,0.91113l-0.09387,0.31297l-0.02053,0.32937l-0.34708,1.01114l-0.15303,0.94075l-0.06717,0.14594l-0.00705,0.16254l-0.66248,2.05922l-0.25793,0.87849l-0.1026,0.16494l-0.03828,0.19104l-1.5362,3.03749l-0.15679,0.17256l-0.09329,0.21145l-0.50255,0.61434l-0.12206,0.08745l-0.07714,0.12496l-0.44647,0.41608l-0.17916,0.35425l-0.06333,0.06973l0.00314,0.08001l-0.39653,0.35296l-0.35463,0.3903l-0.08531,0.00129l-0.07084,0.06303l-0.14424,0.07326l-0.16002,0.17613l-0.34349,0.22092l-0.30125,0.26812l-0.22864,0.11613l-0.13237,0.12338l-0.28303,0.15163l-0.23512,0.20927l-0.38258,0.19428l-0.17067,0.11653l-0.36858,0.13353l-0.33469,0.19118l-1.99791,0.55546l-0.68618,0.34847l-0.46374,0.31667l-0.18719,0.0678l-0.05857,0.10003l-0.22851,0.04536l-0.04204,0.04903l-0.05477,0.0374l-0.04523,0.04978l-0.02827,0.00042l-1.04396,0.71292l-0.18719,0.0678l-0.05857,0.10003l-0.48146,0.09559l-0.1716,0.06216l-0.01667,0.02845l-0.13693,0.02718l-0.12928,0.04683l-0.03342,-0.01453l-0.18179,0.03611l-0.1716,0.06216l-0.01667,0.02845l-0.13693,0.02718l-0.12928,0.04683l-0.03342,-0.01453l-0.18179,0.03611l-0.45451,0.16463l-0.11752,-0.05108l-0.1983,0.03935l-0.37665,-0.01395l-0.17805,-0.04775l-0.1802,0.0108l-1.06011,-0.17989l-0.31203,-0.12852l-0.01317,-0.00051l-0.56837,-0.15247l-0.57132,-0.13873l-0.06412,-0.03177l-0.07104,-0.01907l-0.01497,-0.02355l-0.08223,-0.04074l-0.43983,-0.12716l-0.37352,-0.06339l-0.38176,-0.15719l-0.39972,-0.09703l-0.70045,-0.34701l-0.12204,-0.02069l-0.38176,-0.15719l-0.39972,-0.09703l-0.0868,-0.04303l-0.12204,-0.02069l-0.09313,-0.03832l-0.09895,-0.00122l-0.68346,-0.16594l-0.2833,-0.14034l-0.3061,-0.07431l-0.54702,-0.27103l-0.12205,-0.02069l-0.09312,-0.03836l-0.09895,-0.00122l-0.68346,-0.16594l-0.2833,-0.14034l-0.3061,-0.07431l-1.30622,-0.64717l-0.59311,-0.17149l-0.22396,-0.12322l-0.24764,-0.06014l-18.86937,-9.3485l-0.31804,-0.25852l-0.35589,-0.20825l-0.78081,-0.73215l-0.03944,-0.05928l-0.14053,-0.06964l-0.02803,0.00223l-0.05797,-0.0449l-0.06412,-0.03177l-0.45457,-0.36954l-0.46391,-0.35896l-0.04431,-0.0542l-0.05682,-0.0462l-0.00261,-0.02653l-0.13325,-0.16311l-0.54915,-1.14076l0.45136,-1.04756l-0.00039,-0.00419l0.00297,-0.0018l0.2814,-0.65309c-0.48893,-0.42934 -0.79171,-1.00361 -0.85878,-1.59579z" fill="url(#color-2)" stroke="none" stroke-width="0.5"/><path d="M263.95454,114.91582l-0.01774,-0.02995l0.01931,-0.06038c0.01378,-0.34599 0.11689,-0.68758 0.31784,-0.99407l0.39296,-0.5994l0.20108,-0.17763l0.14514,-0.22136l0.24788,-0.21901l0.87142,-1.32919l0.35294,-0.78302l0.09935,-0.11953l0.04707,-0.14726l0.01048,-0.016l0.01321,-0.0647l-0.01189,-0.29174l0.06709,-0.29333l0.10231,-1.45924l0.05133,-0.14575l-0.00642,-0.15723l0.13814,-0.60389l-0.01477,-0.23264l0.05762,-0.28203l-0.01189,-0.29174l0.30363,-1.32743l0.1641,-0.30357l0.10515,-0.32889l0.09066,-0.13827l0.09931,-0.31052l0.14514,-0.22136l0.08052,-0.25185l0.04448,-0.06787l0.02328,-0.10185l0.16409,-0.30357l0.10515,-0.32889l1.49331,-2.27776l0.20108,-0.17763l0.14514,-0.22136l0.24788,-0.21901l0.32643,-0.49788l0.20107,-0.17764l0.14514,-0.22136l0.41008,-0.36235l0.49062,-0.48041l0.12192,-0.0691l0.08405,-0.10724l0.63137,-0.47188l0.43092,-0.42194l0.12192,-0.0691l0.08405,-0.10724l0.60287,-0.4506l0.48887,-0.51331l0.28175,-0.17236l0.23734,-0.22199l0.69339,-0.37292l0.6624,-0.54452l0.19004,-0.0877l0.14874,-0.13913l2.48676,-1.33749l1.3566,-1.01392l0.22889,-0.09363l0.18892,-0.14962l0.63248,-0.27859l0.51435,-0.33692l0.17308,-0.05909l0.13892,-0.11l0.79669,-0.35086l0.11868,-0.02063l0.09817,-0.06168l0.43317,-0.13934l1.08032,-0.70768l0.09072,-0.03098l0.06741,-0.06303l3.07031,-1.65134l0.86139,-0.6438l1.02561,-1.0431l0.16288,-0.09625l0.11807,-0.14184l1.16955,-0.82313l0.82304,-1.01805l0.09662,-0.07005l0.05878,-0.10082l1.03007,-1.00862l1.12208,-1.17818l1.0464,-1.33536l2.71887,-4.14708l0.45642,-0.92576l0.30471,-0.95303l0.27138,-0.97037l0.01899,-0.03144l0.00153,-0.03714l0.13542,-0.42352l0.10043,-0.62046l0.02693,-0.05862l-0.00268,-0.06565l0.13813,-0.60389l-0.01475,-0.23268l0.03076,-0.15053l-0.02845,-0.02556l-0.01145,-0.28064l-0.09833,-0.27159l0.08144,-0.14255l-0.01757,-0.43093l0.01337,-0.05848l-0.00003,-0.00366l-0.06978,-0.21208l-0.03335,-0.52532l0.05762,-0.28203l-0.00727,-0.17802l-0.1005,-0.36398l-0.00442,-0.35063l-0.06728,-0.34949l0.02264,-0.32263l0.02829,-0.08035l-0.13658,-0.3772l0.05314,-0.09304l-0.03418,-0.1775l0.02263,-0.32263l0.36749,-1.04367l0.57736,-0.22182l0.35429,-0.47453l1.18533,-0.1169l0.19556,0.02575l0.02274,-0.01061l0.06446,0.0221l0.065,0.00856l0.51151,0.18908l0.51569,0.17677l0.05625,0.03464l0.06393,0.02364l0.01151,0.02283l3.38998,2.08679l1.13805,0.55209l0.98679,0.44473l0.1358,0.1023l0.16154,0.05535l0.69352,0.42689l0.34059,0.11679l0.24851,0.15295l0.27628,0.09474l0.26915,0.16566l0.20586,0.2021l0.24851,0.15295l0.45969,0.45124l0.13503,0.21398l0.18885,0.17655l0.21256,0.31854l0.16197,0.05207l0.14445,0.25579l0.21489,0.21093l-0.00169,0.16654l0.22097,0.39125l0.12425,0.14078l0.14293,0.26896l0.20094,0.2371l0.24655,0.48827l0.04836,0.21579l0.11198,0.19828l0.05315,0.19255l0.14497,0.28717l0.04836,0.21579l0.11198,0.19828l0.11196,0.40545l0.00276,0.21725l0.06978,0.21208l0.00561,0.0882l0.04141,0.082l0.04836,0.21579l0.11198,0.19828l0.11195,0.40547l0.00276,0.21725l0.06978,0.21208l0.06288,0.98999l0.26057,2.12354l-0.04,0.28234l0.02982,0.2884l-0.07821,0.48324l0.05388,0.43919l-0.04,0.28234l0.02982,0.2884l-0.10949,0.67645l-0.03311,0.4721l0.00968,0.76416l-0.05946,0.22929l0.00981,0.24053l-0.06709,0.29333l-0.03446,0.49142l-0.07852,0.223l-0.00995,0.23913l-0.87394,2.73328l-0.08277,0.36186l-0.04002,0.07404l-0.00355,0.08512l-0.33451,1.04617l-0.08277,0.36186l-0.1641,0.30357l-0.10515,0.32889l-0.16927,0.25818l-0.09929,0.31053l-0.02874,0.04383l-0.00491,0.05259l-0.2584,0.68223l-0.02108,0.02876l-0.00456,0.03552l-0.24717,0.58831l-0.08655,0.53472l-0.08285,0.1804l-0.01862,0.19953l-0.2584,0.68223l-0.02108,0.02876l-0.00457,0.03552l-0.27181,0.64693l-0.16478,0.72031l-0.08096,0.14979l-0.02192,0.17012l-0.27181,0.64693l-0.16478,0.72031l-0.06448,0.11931l-0.01273,0.13631l-0.21109,0.55731l-0.17255,0.75427l-0.04002,0.07404l-0.00355,0.08512l-0.13542,0.42352l-0.05482,0.33861l0.19429,1.58324l0.17285,0.39484l0.04539,0.27642l0.11303,0.26356l0.12647,0.80999l0.82055,2.97167l0.23799,0.54368l0.05089,0.30981l0.11705,0.29834l0.07029,0.57281l0.23769,0.86078l0.00276,0.21725l0.06978,0.21208l0.00958,0.15097l0.14705,0.33591l0.0606,0.36896l0.11861,0.36048l0.06672,1.05068l-0.02726,0.13344l0.02645,0.1374l-0.03156,0.45005l0.06517,0.53109l-0.02756,0.19448l0.03805,0.19763l-0.04522,0.64519l-0.03026,0.08593l0.00958,0.09277l-0.10949,0.67645l-0.08417,1.20038l-0.03026,0.08593l0.00958,0.09277l-0.10949,0.67645l-0.03893,0.55521l-0.03026,0.08593l0.0096,0.09272l-0.12383,0.76509l-0.0616,0.13412l-0.00622,0.14938l-0.08248,0.25795l0.00663,0.52333l-0.05946,0.22929l0.00981,0.24053l-0.20242,0.88495l-0.08096,0.14979l-0.02192,0.17012l-0.23691,0.56388l-0.11171,0.82967l-0.11842,0.2774l-0.05212,0.29882l-0.42327,0.89237l-0.23637,0.8452l-0.07691,0.12727l-0.02285,0.14775l-0.82095,1.8213l-0.32732,0.77912l-0.11169,0.14153l-0.05468,0.17098l-1.72909,2.63741l-0.16269,0.14374l-0.10773,0.1848l-0.52755,0.51657l-0.12192,0.0691l-0.08405,0.10724l-0.45563,0.34051l-0.20165,0.30757l-0.06569,0.05807l-0.00513,0.07333l-0.40302,0.28733l-0.36791,0.32511l-0.07921,-0.00633l-0.072,0.05132l-0.14108,0.05419l-0.16604,0.14673l-0.34058,0.17147l-0.30618,0.2183l-0.22362,0.08589l-0.13509,0.10097l-0.27759,0.11351l-0.23897,0.17037l-0.37415,0.14371l-0.16991,0.09139l-0.35508,0.08946l-0.32946,0.14508l-1.90781,0.33153l-0.67107,0.25776l-0.46168,0.24833l-0.18034,0.04548l-0.0643,0.08613l-0.2164,0.02132l-0.04389,0.04105l-0.05455,0.02933l-0.0469,0.04143l-0.02626,-0.00208l-1.03935,0.55901l-0.18034,0.04548l-0.0643,0.08613l-0.4559,0.04494l-0.16532,0.04166l-0.01828,0.02449l-0.12969,0.01279l-0.12455,0.03138l-0.02955,-0.0162l-0.17215,0.01699l-0.16532,0.04166l-0.01828,0.02449l-0.12969,0.01279l-0.12455,0.03138l-0.02955,-0.0162l-0.17215,0.01699l-0.43785,0.11034l-0.10382,-0.05691l-0.18776,0.01852l-0.34773,-0.04581l-0.16024,-0.05921l-0.16815,-0.00596l-0.96465,-0.25726l-0.27635,-0.14466l-0.01217,-0.00163l-0.51151,-0.18908l-0.51568,-0.17677l-0.05625,-0.03464l-0.06394,-0.02364l-0.01151,-0.02283l-0.07215,-0.0444l-0.39494,-0.15468l-0.33989,-0.09064l-0.33806,-0.17701l-0.36077,-0.12367l-0.61445,-0.37824l-0.11105,-0.02961l-0.33806,-0.17701l-0.36077,-0.12367l-0.07615,-0.04688l-0.11105,-0.02961l-0.08247,-0.04317l-0.0916,-0.00982l-0.61689,-0.21147l-0.24851,-0.15295l-0.27628,-0.09474l-0.47985,-0.29539l-0.11105,-0.02961l-0.08247,-0.04317l-0.0916,-0.00982l-0.61689,-0.21147l-0.24851,-0.15295l-0.27628,-0.09474l-1.14586,-0.70534l-0.53255,-0.20858l-0.19524,-0.13214l-0.22355,-0.0766l-16.55244,-10.18936l-0.26885,-0.26388l-0.30899,-0.22134l-0.65025,-0.7368l-0.03057,-0.05759l-0.12327,-0.07588l-0.02621,-0.00039l-0.04926,-0.04603l-0.05625,-0.03464l-0.38427,-0.37721l-0.39401,-0.36834l-0.03561,-0.05341l-0.04804,-0.04714l0.00024,-0.02446l-0.10713,-0.16058l-0.39446,-1.0894l0.52362,-0.91648l0.00003,-0.00384l0.00293,-0.00138l0.32643,-0.57138c-0.4101,-0.43479 -0.63309,-0.9855 -0.63575,-1.53189z" fill="url(#color-3)" stroke="none" stroke-width="0.5"/><path d="M265.65822,116.2457l-0.01946,-0.02597l0.01085,-0.05767c-0.02577,-0.32128 0.0302,-0.64716 0.17896,-0.95007l0.29093,-0.59235l0.16313,-0.18377l0.10745,-0.21877l0.20112,-0.22653l0.64514,-1.31354l0.23422,-0.75825l0.07709,-0.12012l0.0265,-0.14073l0.00777,-0.0158l0.00485,-0.06111l-0.04308,-0.26864l0.02854,-0.27776l-0.06845,-1.35938l0.03053,-0.13977l-0.02323,-0.14478l0.05876,-0.57185l-0.03916,-0.21372l0.02116,-0.26639l-0.04308,-0.26864l0.12918,-1.257l0.11558,-0.29657l0.0592,-0.31429l0.06712,-0.13667l0.05588,-0.29676l0.10745,-0.21877l0.04532,-0.24071l0.03293,-0.06703l0.00993,-0.09649l0.11558,-0.29657l0.05922,-0.31433l1.10554,-2.25097l0.16313,-0.18377l0.10745,-0.21877l0.20112,-0.22653l0.24168,-0.49203l0.16313,-0.18377l0.10745,-0.21877l0.33272,-0.37476l0.39285,-0.49174l0.10323,-0.07569l0.06455,-0.10735l0.52175,-0.49747l0.34506,-0.4319l0.10323,-0.07569l0.06456,-0.10735l0.49822,-0.47505l0.38763,-0.52199l0.23706,-0.18662l0.1912,-0.22822l0.58909,-0.41196l0.54194,-0.56764l0.16308,-0.09949l0.11983,-0.14303l2.11273,-1.47748l1.12106,-1.06889l0.19771,-0.10871l0.15521,-0.15664l0.54416,-0.31881l0.43029,-0.36135l0.1508,-0.07143l0.11413,-0.11519l0.68544,-0.4016l0.10563,-0.03057l0.08241,-0.06656l0.37836,-0.17077l0.9038,-0.75897l0.07903,-0.03742l0.05431,-0.06481l2.60845,-1.82415l0.71185,-0.67869l0.81693,-1.06385l0.13743,-0.10475l0.09166,-0.1426l0.97215,-0.87438l0.63558,-1.02113l0.08006,-0.07409l0.04228,-0.09892l0.82484,-1.03243l0.88973,-1.19812l0.80352,-1.33617l2.01283,-4.09824l0.31248,-0.90027l0.17156,-0.91086l0.13935,-0.92366l0.01378,-0.0309l-0.0027,-0.0345l0.07623,-0.40477l0.02265,-0.5835l0.018,-0.0568l-0.00969,-0.06048l0.05876,-0.57185l-0.03916,-0.21372l0.01132,-0.14219l-0.02869,-0.02092l-0.04147,-0.25843l-0.11945,-0.24169l0.05828,-0.13971l-0.06366,-0.39682l0.0057,-0.0554l-0.00046,-0.00334l-0.0869,-0.18937l-0.08846,-0.48257l0.02116,-0.26639l-0.0263,-0.16394l-0.13165,-0.32689l-0.04282,-0.32383l-0.09983,-0.3167l-0.01513,-0.30051l0.01684,-0.07703l-0.1659,-0.33565l0.03802,-0.09115l-0.05071,-0.16085l-0.01513,-0.30051l0.21858,-1.00071l0.50032,-0.26095l0.26959,-0.47314l1.06462,-0.22276l0.1806,0.00489l0.0195,-0.01199l0.06103,0.01421l0.06002,0.00164l0.48595,0.1254l0.48836,0.11359l0.05497,0.02655l0.06073,0.01568l0.013,0.01999l3.31263,1.60196l1.09566,0.40046l0.94625,0.31587l0.13478,0.08145l0.15296,0.03556l0.6777,0.32773l0.32255,0.07503l0.24281,0.11743l0.26164,0.06086l0.26302,0.12717l0.20952,0.167l0.24281,0.11743l0.46784,0.37284l0.14643,0.1848l0.19119,0.145l0.22847,0.27402l0.15301,0.03248l0.15964,0.22256l0.21868,0.1743l0.01688,0.15418l0.24418,0.34043l0.12853,0.11818l0.15967,0.23494l0.20889,0.19982l0.27813,0.42773l0.06784,0.19486l0.12372,0.17256l0.06964,0.17293l0.16356,0.25155l0.06784,0.19486l0.12374,0.17253l0.14664,0.36414l0.02654,0.20066l0.0869,0.18937l0.01484,0.08109l0.04672,0.07182l0.06784,0.19486l0.12374,0.17253l0.14664,0.36414l0.02654,0.20066l0.08691,0.18938l0.16668,0.90945l0.47181,1.93867l-0.00515,0.265l0.05903,0.26383l-0.01762,0.45446l0.09759,0.40093l-0.00515,0.265l0.05905,0.26379l-0.02469,0.63618l0.02214,0.4398l0.09332,0.70578l-0.0287,0.21781l0.03551,0.22151l-0.02854,0.27776l0.02306,0.45779l-0.04669,0.2138l0.01743,0.2221l-0.49206,2.61231l-0.03521,0.34267l-0.02818,0.07236l0.00617,0.07912l-0.18831,0.99985l-0.0352,0.34268l-0.11558,0.29657l-0.0592,0.31434l-0.1253,0.25513l-0.05588,0.29676l-0.02128,0.04333l0.00135,0.04913l-0.15943,0.65596l-0.016,0.02861l-0.00024,0.03329l-0.1596,0.56798l-0.01951,0.5029l-0.05535,0.17481l0.00513,0.18635l-0.15941,0.65592l-0.01599,0.02865l-0.00024,0.03329l-0.1755,0.62457l-0.07008,0.68207l-0.05703,0.14637l-0.0011,0.15945l-0.1755,0.62457l-0.07008,0.68207l-0.04543,0.11659l0.00352,0.12727l-0.13021,0.53579l-0.07341,0.71429l-0.02818,0.07236l0.00617,0.07912l-0.07623,0.40477l-0.01237,0.31845l0.3518,1.44539l0.20082,0.34846l0.07184,0.2512l0.1319,0.23283l0.20459,0.73686l1.07472,2.66885l0.2765,0.4798l0.08057,0.28163l0.13942,0.26459l0.1273,0.52294l0.31131,0.77307l0.02654,0.20066l0.0869,0.18937l0.02541,0.1387l0.17086,0.29644l0.09593,0.33536l0.14772,0.32189l0.17692,0.9652l-0.01002,0.12602l0.03926,0.12449l0.02112,0.41927l0.11801,0.48488l-0.00352,0.1825l0.05645,0.17908l0.03025,0.60105l-0.018,0.08237l0.01898,0.08482l-0.02468,0.63619l0.05628,1.11829l-0.018,0.08237l0.01898,0.08482l-0.02468,0.63619l0.02604,0.51723l-0.018,0.08237l0.01898,0.08482l-0.02792,0.71953l-0.04115,0.13l0.01088,0.13877l-0.04644,0.24652l0.06391,0.48336l-0.0287,0.21781l0.03551,0.22151l-0.08612,0.83802l-0.05701,0.14634l-0.0011,0.15945l-0.15298,0.5444l-0.00978,0.77807l-0.07696,0.26797l-0.01431,0.28138l-0.28606,0.86621l-0.12135,0.80452l-0.05584,0.12512l-0.00445,0.13886l-0.5448,1.76373l-0.21137,0.75222l-0.08587,0.1417l-0.03079,0.16342l-1.28008,2.60634l-0.13198,0.14867l-0.0775,0.18132l-0.42243,0.52875l-0.10323,0.07569l-0.06456,0.10735l-0.37653,0.35901l-0.14929,0.30397l-0.05333,0.06006l0.00344,0.06828l-0.33459,0.30469l-0.2985,0.33619l-0.07269,0.00181l-0.05975,0.0544l-0.12224,0.06374l-0.1347,0.15173l-0.29065,0.19153l-0.2542,0.23147l-0.19378,0.10109l-0.11165,0.10646l-0.23981,0.13186l-0.19838,0.18068l-0.32423,0.16913l-0.14438,0.10096l-0.31288,0.1171l-0.28344,0.16604l-1.69768,0.49115l-0.58154,0.3033l-0.39222,0.2743l-0.15891,0.05946l-0.04894,0.08586l-0.19439,0.04068l-0.03535,0.04222l-0.04635,0.0324l-0.03807,0.04286l-0.02407,0.00059l-0.88302,0.6175l-0.15891,0.05946l-0.04894,0.08586l-0.40947,0.08569l-0.14569,0.05452l-0.01394,0.02442l-0.1165,0.02437l-0.10977,0.04108l-0.02863,-0.01214l-0.1546,0.03235l-0.14569,0.05452l-0.01394,0.02442l-0.1165,0.02437l-0.10977,0.04108l-0.02863,-0.01214l-0.1546,0.03235l-0.38582,0.14438l-0.10066,-0.04263l-0.16865,0.03531l-0.3212,-0.00869l-0.15223,-0.03927l-0.15351,0.01073l-0.9054,-0.14461l-0.26722,-0.10705l-0.01124,-0.00031l-0.48592,-0.12539l-0.48835,-0.11358l-0.05495,-0.02658l-0.06076,-0.01564l-0.013,-0.01999l-0.07048,-0.03409l-0.37617,-0.10484l-0.319,-0.05094l-0.32692,-0.131l-0.34164,-0.07951l-0.60041,-0.29036l-0.10423,-0.01665l-0.32688,-0.13099l-0.34165,-0.07947l-0.07441,-0.03598l-0.10423,-0.01665l-0.07977,-0.03192l-0.08433,-0.00022l-0.5842,-0.13591l-0.24281,-0.11743l-0.26164,-0.06086l-0.46893,-0.22678l-0.10424,-0.01666l-0.07977,-0.03192l-0.08433,-0.00022l-0.5842,-0.13591l-0.24281,-0.11743l-0.26164,-0.06086l-1.11971,-0.54148l-0.50721,-0.14138l-0.19209,-0.10335l-0.21169,-0.04925l-16.17488,-7.82201l-0.27358,-0.21802l-0.30539,-0.17479l-0.67265,-0.61852l-0.0342,-0.05029l-0.12047,-0.05829l-0.02387,0.00218l-0.04987,-0.03781l-0.05497,-0.02655l-0.39107,-0.31165l-0.39893,-0.30253l-0.03826,-0.04592l-0.0489,-0.03895l-0.00248,-0.02267l-0.11517,-0.13813l-0.47915,-0.9693l0.37461,-0.89824l-0.00039,-0.00355l0.00252,-0.00156l0.23354,-0.55997c-0.42092,-0.36242 -0.68456,-0.85016 -0.74746,-1.35518z" fill="url(#color-4)" stroke="none" stroke-width="0.5"/><path d="M214.5453,186.96762c0,0 18.88478,-18.19982 27.46741,-30.26738c8.49872,-11.94957 23.7791,-41.7875 23.7791,-41.7875l33.7322,16.91854c0,0 -16.07374,29.22186 -20.78051,43.52233c-4.54272,13.80201 -6.98547,40.83816 -6.98547,40.83816z" fill="url(#color-5)" stroke="none" stroke-width="0"/><path d="M260.83686,124.17613l3.29513,-6.45094l33.89101,17.31146l-3.29513,6.45094z" fill="url(#color-6)" stroke="url(#color-7)" stroke-width="0"/><path d="M254.96162,135.24904l3.29513,-6.45094l33.891,17.31146l-3.29513,6.45094z" fill="url(#color-8)" stroke="url(#color-9)" stroke-width="0"/><path d="M260.08259,217.85098c0,14.98335 0.01372,26.93128 -17.8091,27.12975c-16.49564,0.18369 -17.8091,-12.1464 -17.8091,-27.12975c0,-14.98335 2.64508,-26.92288 17.8091,-27.12975c15.82517,-0.21589 17.8091,12.1464 17.8091,27.12975z" fill="url(#color-10)" stroke="url(#color-11)" stroke-width="0"/><path d="M289.82932,217.95549c0,14.98335 0.01372,26.93128 -17.8091,27.12975c-16.49563,0.18369 -17.8091,-12.1464 -17.8091,-27.12975c0,-14.98335 2.64508,-26.92288 17.8091,-27.12975c15.82517,-0.2159 17.8091,12.1464 17.8091,27.12975z" fill="url(#color-12)" stroke="url(#color-13)" stroke-width="0"/><path d="M240.5167,191.78861v-12.07868h4.07958v12.07868z" fill="#312d29" stroke="url(#color-14)" stroke-width="0"/><path d="M269.32155,192.06815v-12.07868h4.07958v12.07868z" fill="#312d29" stroke="url(#color-15)" stroke-width="0"/><path d="M238.91773,184.49552v-3.56521h35.48265v3.56521z" fill="#36322e" stroke="none" stroke-width="0"/><path d="M186.22599,244.29878v-75.58741h46.61412v75.58741z" fill="url(#color-16)" stroke="url(#color-17)" stroke-width="0"/><path d="M180.476,222.29081v-31.51043h57.11412v31.51043z" fill="url(#color-18)" stroke="url(#color-19)" stroke-width="0"/><path d="M188.833,187.21847v-14.86511h40.61412v14.86511z" fill="url(#color-20)" stroke="url(#color-21)" stroke-width="0"/><path d="M183.226,214.06215v-14.86511h50.36412v14.86511z" fill="url(#color-22)" stroke="url(#color-23)" stroke-width="0"/><path d="M188.833,240.66638v-14.86511h40.61412v14.86511z" fill="url(#color-24)" stroke="url(#color-25)" stroke-width="0"/></g></g></svg>