<svg version="1.1" xmlns="http://www.w3.org/2000/svg" xmlns:xlink="http://www.w3.org/1999/xlink" width="366.23548" height="339.39757" viewBox="0,0,366.23548,339.39757"><defs><linearGradient x1="217.33334" y1="68.896" x2="262.66666" y2="68.896" gradientUnits="userSpaceOnUse" id="color-1"><stop offset="0" stop-color="#cdd3da"/><stop offset="1" stop-color="#9da3ab"/></linearGradient><linearGradient x1="208.83333" y1="173.89601" x2="271.16667" y2="173.89601" gradientUnits="userSpaceOnUse" id="color-2"><stop offset="0" stop-color="#b2b8bd"/><stop offset="1" stop-color="#8c9298"/></linearGradient><linearGradient x1="207.5" y1="178.22935" x2="272.5" y2="178.22935" gradientUnits="userSpaceOnUse" id="color-3"><stop offset="0" stop-color="#777c7f"/><stop offset="1" stop-color="#5f6368"/></linearGradient><radialGradient cx="223.42058" cy="-64.58705" r="24.95866" gradientUnits="userSpaceOnUse" id="color-4"><stop offset="0" stop-color="#bec4ca"/><stop offset="1" stop-color="#8c9098"/></radialGradient><linearGradient x1="239.22511" y1="-28.19565" x2="238.78541" y2="-17.70488" gradientUnits="userSpaceOnUse" id="color-5"><stop offset="0" stop-color="#f0f7ff"/><stop offset="1" stop-color="#afb6be"/></linearGradient><linearGradient x1="238.84298" y1="-19.07811" x2="232.10308" y2="141.73617" gradientUnits="userSpaceOnUse" id="color-6"><stop offset="0" stop-color="#f0f7ff"/><stop offset="1" stop-color="#afb6be"/></linearGradient><linearGradient x1="232.25802" y1="124.64481" x2="230.63338" y2="163.4088" gradientUnits="userSpaceOnUse" id="color-7"><stop offset="0" stop-color="#cbe3ff"/><stop offset="1" stop-color="#86a1bf"/></linearGradient><linearGradient x1="224.16773" y1="-56.67405" x2="215.31607" y2="-62.32192" gradientUnits="userSpaceOnUse" id="color-8"><stop offset="0" stop-color="#f0f7ff"/><stop offset="1" stop-color="#afb6be"/></linearGradient><linearGradient x1="216.47475" y1="-61.58262" x2="80.78706" y2="-148.15922" gradientUnits="userSpaceOnUse" id="color-9"><stop offset="0" stop-color="#f0f7ff"/><stop offset="1" stop-color="#afb6be"/></linearGradient><linearGradient x1="94.88644" y1="-138.49767" x2="62.1792" y2="-159.3668" gradientUnits="userSpaceOnUse" id="color-10"><stop offset="0" stop-color="#cbe3ff"/><stop offset="1" stop-color="#86a1bf"/></linearGradient><linearGradient x1="256.71736" y1="-55.32428" x2="266.14721" y2="-59.94253" gradientUnits="userSpaceOnUse" id="color-11"><stop offset="0" stop-color="#f0f7ff"/><stop offset="1" stop-color="#afb6be"/></linearGradient><linearGradient x1="264.91284" y1="-59.33801" x2="409.46365" y2="-130.13155" gradientUnits="userSpaceOnUse" id="color-12"><stop offset="0" stop-color="#f0f7ff"/><stop offset="1" stop-color="#afb6be"/></linearGradient><linearGradient x1="394.36859" y1="-122.11423" x2="429.21226" y2="-139.17889" gradientUnits="userSpaceOnUse" id="color-13"><stop offset="0" stop-color="#cbe3ff"/><stop offset="1" stop-color="#86a1bf"/></linearGradient><radialGradient cx="240.66409" cy="-40.06973" r="20.5" gradientUnits="userSpaceOnUse" id="color-14"><stop offset="0" stop-color="#e6eef5"/><stop offset="1" stop-color="#c4cad5"/></radialGradient></defs><g transform="translate(-62.56165,159.50156)"><g data-paper-data="{&quot;isPaintingLayer&quot;:true}" fill-rule="nonzero" stroke="none" stroke-width="0" stroke-linecap="butt" stroke-linejoin="miter" stroke-miterlimit="10" stroke-dasharray="" stroke-dashoffset="0" style="mix-blend-mode: normal"><path d="M217.33334,171.22934l8.33333,-204.66667h28.66666l8.33333,204.66667z" fill="url(#color-1)"/><path d="M208.83333,176.89601v-6h62.33333v6z" fill="url(#color-2)"/><path d="M207.5,179.89601v-3.33333h65v3.33333z" fill="url(#color-3)"/><path d="M215.83334,-28.47866c0,-5.48483 0,-26.33483 0,-37c0,-3.59358 3.15873,-6.91731 6.33333,-6.91731c5.84411,0 25.85484,0 36,0c3.63233,0 6,3.22824 6,6.25065c0,10.40972 0,32.86094 0,38.66667c0,2.49943 -1.92973,5 -5,5c-10.75875,0 -34.18908,0 -39,0c-1.59078,0 -4.33333,-3.64513 -4.33333,-6z" fill="url(#color-4)"/><g><g data-paper-data="{&quot;index&quot;:null}"><path d="M232.23125,-28.48878l13.98771,0.58624l-0.43969,10.49078l-13.98772,-0.58625z" fill="url(#color-5)"/><path d="M228.96903,-19.49193l19.74789,0.82765l-11.38459,143.7361l-10.19247,-0.42718z" fill="url(#color-6)"/><path d="M227.09806,124.42856l10.31988,0.43252c0,0 -3.81258,38.24957 -6.5758,38.13437c-3.36825,-0.14041 -3.74406,-38.56687 -3.74406,-38.56687z" fill="url(#color-7)"/></g><g data-paper-data="{&quot;index&quot;:null}"><path d="M211.55084,-56.42081l7.53048,-11.80221l8.85166,5.64786l-7.53048,11.8022z" fill="url(#color-8)"/><path d="M91.95532,-134.30197l5.48726,-8.59993l124.34796,72.9881l-10.63156,16.66235z" fill="url(#color-9)"/><path d="M62.63759,-159.30121c1.48813,-2.33114 35.02678,16.44981 35.02678,16.44981l-5.55585,8.70743c0,0 -31.28489,-22.3157 -29.47093,-25.15723z" fill="url(#color-10)"/></g><g data-paper-data="{&quot;index&quot;:null}"><path d="M259.79619,-49.03774l-6.15767,-12.5731l9.42985,-4.61825l6.15767,12.57311z" fill="url(#color-11)"/><path d="M269.25954,-50.46265l-8.6934,-17.75074l131.75701,-58.56424l4.48692,9.16168z" fill="url(#color-12)"/><path d="M428.74941,-139.16516c1.48342,3.02724 -32.10932,21.68902 -32.10932,21.68902l-4.54301,-9.27619c0,0 35.43537,-14.89633 36.65233,-12.41284z" fill="url(#color-13)"/></g><path d="M221.99701,-56.81806c5.4302,-9.93462 17.88585,-13.58621 27.8205,-8.156c9.93462,5.4302 13.58621,17.88585 8.156,27.82049c-5.4302,9.93462 -17.88585,13.58621 -27.82049,8.156c-9.93462,-5.4302 -13.58621,-17.88585 -8.156,-27.82049z" data-paper-data="{&quot;index&quot;:null}" fill="url(#color-14)"/></g></g></g></svg>