<svg version="1.1" xmlns="http://www.w3.org/2000/svg" xmlns:xlink="http://www.w3.org/1999/xlink" width="59" height="59.70662" viewBox="0,0,59,59.70662"><defs><linearGradient x1="240" y1="151.64669" x2="240" y2="208.35331" gradientUnits="userSpaceOnUse" id="color-1"><stop offset="0" stop-color="#191919"/><stop offset="1" stop-color="#050505"/></linearGradient><linearGradient x1="240" y1="151.64669" x2="240" y2="208.35331" gradientUnits="userSpaceOnUse" id="color-2"><stop offset="0" stop-color="#cccccc"/><stop offset="1" stop-color="#898989"/></linearGradient><radialGradient cx="240" cy="180" r="26.8571" gradientUnits="userSpaceOnUse" id="color-3"><stop offset="0" stop-color="#ffffff" stop-opacity="0.35484"/><stop offset="1" stop-color="#ffffff" stop-opacity="0"/></radialGradient><linearGradient x1="240" y1="153.29211" x2="240" y2="206.70789" gradientUnits="userSpaceOnUse" id="color-4"><stop offset="0" stop-color="#cccccc"/><stop offset="1" stop-color="#898989"/></linearGradient><linearGradient x1="241.52957" y1="196.14032" x2="242.25534" y2="196.3357" gradientUnits="userSpaceOnUse" id="color-5"><stop offset="0" stop-color="#524c43"/><stop offset="1" stop-color="#36312c"/></linearGradient><linearGradient x1="241.52957" y1="196.14032" x2="242.25534" y2="196.3357" gradientUnits="userSpaceOnUse" id="color-6"><stop offset="0" stop-color="#1f1f1f"/><stop offset="1" stop-color="#000000"/></linearGradient><linearGradient x1="241.81403" y1="193.82881" x2="243.18749" y2="194.19854" gradientUnits="userSpaceOnUse" id="color-7"><stop offset="0" stop-color="#ab966a"/><stop offset="1" stop-color="#4f3f2d"/></linearGradient><linearGradient x1="241.81403" y1="193.82881" x2="243.18749" y2="194.19854" gradientUnits="userSpaceOnUse" id="color-8"><stop offset="0" stop-color="#1f1f1f"/><stop offset="1" stop-color="#000000"/></linearGradient><linearGradient x1="237.78314" y1="196.09922" x2="238.55601" y2="196.0121" gradientUnits="userSpaceOnUse" id="color-9"><stop offset="0" stop-color="#523f2b"/><stop offset="1" stop-color="#2e2316"/></linearGradient><linearGradient x1="237.78314" y1="196.09922" x2="238.55601" y2="196.0121" gradientUnits="userSpaceOnUse" id="color-10"><stop offset="0" stop-color="#1f1f1f"/><stop offset="1" stop-color="#000000"/></linearGradient><linearGradient x1="242.34708" y1="196.22637" x2="243.07286" y2="196.42175" gradientUnits="userSpaceOnUse" id="color-11"><stop offset="0" stop-color="#524c43"/><stop offset="1" stop-color="#36312c"/></linearGradient><linearGradient x1="242.34708" y1="196.22637" x2="243.07286" y2="196.42175" gradientUnits="userSpaceOnUse" id="color-12"><stop offset="0" stop-color="#1f1f1f"/><stop offset="1" stop-color="#000000"/></linearGradient><linearGradient x1="242.63154" y1="193.91487" x2="244.005" y2="194.28459" gradientUnits="userSpaceOnUse" id="color-13"><stop offset="0" stop-color="#ab966a"/><stop offset="1" stop-color="#4f3f2d"/></linearGradient><linearGradient x1="242.63154" y1="193.91487" x2="244.005" y2="194.28459" gradientUnits="userSpaceOnUse" id="color-14"><stop offset="0" stop-color="#1f1f1f"/><stop offset="1" stop-color="#000000"/></linearGradient><linearGradient x1="243.46863" y1="193.98447" x2="244.84208" y2="194.3542" gradientUnits="userSpaceOnUse" id="color-15"><stop offset="0" stop-color="#ab966a"/><stop offset="1" stop-color="#4f3f2d"/></linearGradient><linearGradient x1="243.46863" y1="193.98447" x2="244.84208" y2="194.3542" gradientUnits="userSpaceOnUse" id="color-16"><stop offset="0" stop-color="#1f1f1f"/><stop offset="1" stop-color="#000000"/></linearGradient><linearGradient x1="243.19366" y1="196.29742" x2="243.91943" y2="196.4928" gradientUnits="userSpaceOnUse" id="color-17"><stop offset="0" stop-color="#524c43"/><stop offset="1" stop-color="#36312c"/></linearGradient><linearGradient x1="243.19366" y1="196.29742" x2="243.91943" y2="196.4928" gradientUnits="userSpaceOnUse" id="color-18"><stop offset="0" stop-color="#1f1f1f"/><stop offset="1" stop-color="#000000"/></linearGradient><linearGradient x1="236.49233" y1="195.88408" x2="237.2652" y2="195.79697" gradientUnits="userSpaceOnUse" id="color-19"><stop offset="0" stop-color="#523f2b"/><stop offset="1" stop-color="#2e2316"/></linearGradient><linearGradient x1="236.49233" y1="195.88408" x2="237.2652" y2="195.79697" gradientUnits="userSpaceOnUse" id="color-20"><stop offset="0" stop-color="#1f1f1f"/><stop offset="1" stop-color="#000000"/></linearGradient><linearGradient x1="234.34474" y1="198.28113" x2="245.38874" y2="198.28113" gradientUnits="userSpaceOnUse" id="color-21"><stop offset="0" stop-color="#b8a687"/><stop offset="1" stop-color="#4a443b"/></linearGradient><linearGradient x1="234.34474" y1="198.28113" x2="245.38874" y2="198.28113" gradientUnits="userSpaceOnUse" id="color-22"><stop offset="0" stop-color="#1f1a11"/><stop offset="1" stop-color="#191100"/></linearGradient><linearGradient x1="238.12396" y1="194.73357" x2="241.63497" y2="194.73357" gradientUnits="userSpaceOnUse" id="color-23"><stop offset="0" stop-color="#5c503f"/><stop offset="1" stop-color="#241c12"/></linearGradient><linearGradient x1="236.98804" y1="197.36568" x2="242.6332" y2="197.36568" gradientUnits="userSpaceOnUse" id="color-24"><stop offset="0" stop-color="#5c503f"/><stop offset="1" stop-color="#241c12"/></linearGradient><linearGradient x1="236.03515" y1="200.27134" x2="243.6138" y2="200.27134" gradientUnits="userSpaceOnUse" id="color-25"><stop offset="0" stop-color="#5c503f"/><stop offset="1" stop-color="#241c12"/></linearGradient><linearGradient x1="235.02601" y1="203.1653" x2="244.66408" y2="203.1653" gradientUnits="userSpaceOnUse" id="color-26"><stop offset="0" stop-color="#5c503f"/><stop offset="1" stop-color="#241c12"/></linearGradient><linearGradient x1="234.43654" y1="192.5218" x2="245.45148" y2="192.5218" gradientUnits="userSpaceOnUse" id="color-27"><stop offset="0" stop-color="#a89d8a"/><stop offset="1" stop-color="#665a54"/></linearGradient><linearGradient x1="234.43654" y1="192.5218" x2="245.45148" y2="192.5218" gradientUnits="userSpaceOnUse" id="color-28"><stop offset="0" stop-color="#1f1f1f"/><stop offset="1" stop-color="#000000"/></linearGradient><linearGradient x1="245.4425" y1="187.1126" x2="250.91662" y2="187.1126" gradientUnits="userSpaceOnUse" id="color-29"><stop offset="0" stop-color="#353535"/><stop offset="1" stop-color="#1f1f1f"/></linearGradient><linearGradient x1="245.4425" y1="187.30066" x2="249.18672" y2="187.30066" gradientUnits="userSpaceOnUse" id="color-30"><stop offset="0" stop-color="#272727"/><stop offset="1" stop-color="#000000"/></linearGradient><linearGradient x1="234.5575" y1="187.05523" x2="229.08339" y2="187.05523" gradientUnits="userSpaceOnUse" id="color-31"><stop offset="0" stop-color="#6b6b6b"/><stop offset="1" stop-color="#838383"/></linearGradient><linearGradient x1="230.81328" y1="187.24329" x2="234.5575" y2="187.24329" gradientUnits="userSpaceOnUse" id="color-32"><stop offset="0" stop-color="#272727"/><stop offset="1" stop-color="#000000"/></linearGradient><linearGradient x1="234.5423" y1="182.68242" x2="245.4556" y2="182.68242" gradientUnits="userSpaceOnUse" id="color-33"><stop offset="0" stop-color="#646464"/><stop offset="1" stop-color="#222222"/></linearGradient><linearGradient x1="234.5423" y1="182.68242" x2="245.4556" y2="182.68242" gradientUnits="userSpaceOnUse" id="color-34"><stop offset="0" stop-color="#272727"/><stop offset="1" stop-color="#000000"/></linearGradient><linearGradient x1="240.38906" y1="183.14305" x2="244.66964" y2="183.14305" gradientUnits="userSpaceOnUse" id="color-35"><stop offset="0" stop-color="#4a382c"/><stop offset="1" stop-color="#301f1b"/></linearGradient><linearGradient x1="240.38906" y1="183.14305" x2="244.66964" y2="183.14305" gradientUnits="userSpaceOnUse" id="color-36"><stop offset="0" stop-color="#351c12"/><stop offset="1" stop-color="#1a1310"/></linearGradient><linearGradient x1="240.37754" y1="183.14466" x2="244.64823" y2="183.14466" gradientUnits="userSpaceOnUse" id="color-37"><stop offset="0" stop-color="#351c12"/><stop offset="1" stop-color="#1a1310"/></linearGradient><linearGradient x1="240.37754" y1="183.11215" x2="244.64823" y2="183.11215" gradientUnits="userSpaceOnUse" id="color-38"><stop offset="0" stop-color="#351c12"/><stop offset="1" stop-color="#1a1310"/></linearGradient><linearGradient x1="235.27291" y1="183.16473" x2="239.55349" y2="183.16473" gradientUnits="userSpaceOnUse" id="color-39"><stop offset="0" stop-color="#4a382c"/><stop offset="1" stop-color="#301f1b"/></linearGradient><linearGradient x1="235.27291" y1="183.16473" x2="239.55349" y2="183.16473" gradientUnits="userSpaceOnUse" id="color-40"><stop offset="0" stop-color="#351c12"/><stop offset="1" stop-color="#1a1310"/></linearGradient><linearGradient x1="235.2614" y1="183.16634" x2="239.53208" y2="183.16634" gradientUnits="userSpaceOnUse" id="color-41"><stop offset="0" stop-color="#351c12"/><stop offset="1" stop-color="#1a1310"/></linearGradient><linearGradient x1="235.2614" y1="183.13382" x2="239.53208" y2="183.13382" gradientUnits="userSpaceOnUse" id="color-42"><stop offset="0" stop-color="#351c12"/><stop offset="1" stop-color="#1a1310"/></linearGradient><linearGradient x1="240.38906" y1="188.3063" x2="244.66964" y2="188.3063" gradientUnits="userSpaceOnUse" id="color-43"><stop offset="0" stop-color="#4a382c"/><stop offset="1" stop-color="#301f1b"/></linearGradient><linearGradient x1="240.38906" y1="188.3063" x2="244.66964" y2="188.3063" gradientUnits="userSpaceOnUse" id="color-44"><stop offset="0" stop-color="#351c12"/><stop offset="1" stop-color="#1a1310"/></linearGradient><linearGradient x1="240.37754" y1="188.30792" x2="244.64823" y2="188.30792" gradientUnits="userSpaceOnUse" id="color-45"><stop offset="0" stop-color="#351c12"/><stop offset="1" stop-color="#1a1310"/></linearGradient><linearGradient x1="240.37754" y1="188.2754" x2="244.64823" y2="188.2754" gradientUnits="userSpaceOnUse" id="color-46"><stop offset="0" stop-color="#351c12"/><stop offset="1" stop-color="#1a1310"/></linearGradient><linearGradient x1="235.27291" y1="188.32798" x2="239.55349" y2="188.32798" gradientUnits="userSpaceOnUse" id="color-47"><stop offset="0" stop-color="#4a382c"/><stop offset="1" stop-color="#301f1b"/></linearGradient><linearGradient x1="235.27291" y1="188.32798" x2="239.55349" y2="188.32798" gradientUnits="userSpaceOnUse" id="color-48"><stop offset="0" stop-color="#351c12"/><stop offset="1" stop-color="#1a1310"/></linearGradient><linearGradient x1="235.2614" y1="188.32959" x2="239.53208" y2="188.32959" gradientUnits="userSpaceOnUse" id="color-49"><stop offset="0" stop-color="#351c12"/><stop offset="1" stop-color="#1a1310"/></linearGradient><linearGradient x1="235.2614" y1="188.29708" x2="239.53208" y2="188.29708" gradientUnits="userSpaceOnUse" id="color-50"><stop offset="0" stop-color="#351c12"/><stop offset="1" stop-color="#1a1310"/></linearGradient><linearGradient x1="235.09485" y1="177.26778" x2="244.83619" y2="177.26778" gradientUnits="userSpaceOnUse" id="color-51"><stop offset="0" stop-color="#515151"/><stop offset="1" stop-color="#131313"/></linearGradient><linearGradient x1="235.09485" y1="177.26778" x2="244.83619" y2="177.26778" gradientUnits="userSpaceOnUse" id="color-52"><stop offset="0" stop-color="#272727"/><stop offset="1" stop-color="#000000"/></linearGradient><linearGradient x1="235.60221" y1="175.14813" x2="244.26118" y2="175.14813" gradientUnits="userSpaceOnUse" id="color-53"><stop offset="0" stop-color="#272727"/><stop offset="1" stop-color="#000000"/></linearGradient><linearGradient x1="235.63604" y1="179.41884" x2="244.15971" y2="179.41884" gradientUnits="userSpaceOnUse" id="color-54"><stop offset="0" stop-color="#272727"/><stop offset="1" stop-color="#000000"/></linearGradient><linearGradient x1="234.44352" y1="161.06664" x2="245.48752" y2="161.06664" gradientUnits="userSpaceOnUse" id="color-55"><stop offset="0" stop-color="#c9c9c9"/><stop offset="1" stop-color="#3e3e3e"/></linearGradient><linearGradient x1="234.44352" y1="161.06664" x2="245.48752" y2="161.06664" gradientUnits="userSpaceOnUse" id="color-56"><stop offset="0" stop-color="#272727"/><stop offset="1" stop-color="#000000"/></linearGradient><linearGradient x1="237.61043" y1="157.49322" x2="242.30256" y2="157.49322" gradientUnits="userSpaceOnUse" id="color-57"><stop offset="0" stop-color="#8c8c8c"/><stop offset="1" stop-color="#222222"/></linearGradient><linearGradient x1="237.61043" y1="157.49322" x2="242.30256" y2="157.49322" gradientUnits="userSpaceOnUse" id="color-58"><stop offset="0" stop-color="#272727"/><stop offset="1" stop-color="#000000"/></linearGradient><linearGradient x1="237.71358" y1="156.90722" x2="242.16009" y2="156.90722" gradientUnits="userSpaceOnUse" id="color-59"><stop offset="0" stop-color="#ffffff"/><stop offset="1" stop-color="#606060"/></linearGradient><linearGradient x1="237.71358" y1="156.90723" x2="242.16009" y2="156.90723" gradientUnits="userSpaceOnUse" id="color-60"><stop offset="0" stop-color="#272727"/><stop offset="1" stop-color="#000000"/></linearGradient><radialGradient cx="239.44228" cy="161.08921" r="2.06017" gradientUnits="userSpaceOnUse" id="color-61"><stop offset="0" stop-color="#9cd7f7"/><stop offset="1" stop-color="#0087f6"/></radialGradient><linearGradient x1="237.90535" y1="162.18535" x2="242.02569" y2="162.18535" gradientUnits="userSpaceOnUse" id="color-62"><stop offset="0" stop-color="#272727"/><stop offset="1" stop-color="#000000"/></linearGradient><linearGradient x1="238.02069" y1="165.2833" x2="241.91034" y2="165.2833" gradientUnits="userSpaceOnUse" id="color-63"><stop offset="0" stop-color="#272727"/><stop offset="1" stop-color="#000000"/></linearGradient><linearGradient x1="238.02069" y1="164.76697" x2="241.91034" y2="164.76697" gradientUnits="userSpaceOnUse" id="color-64"><stop offset="0" stop-color="#272727"/><stop offset="1" stop-color="#000000"/></linearGradient><linearGradient x1="238.02069" y1="165.79962" x2="241.91034" y2="165.79962" gradientUnits="userSpaceOnUse" id="color-65"><stop offset="0" stop-color="#272727"/><stop offset="1" stop-color="#000000"/></linearGradient><linearGradient x1="234.50887" y1="170.15971" x2="245.42217" y2="170.15971" gradientUnits="userSpaceOnUse" id="color-66"><stop offset="0" stop-color="#303030"/><stop offset="1" stop-color="#171717"/></linearGradient><linearGradient x1="234.50887" y1="170.15971" x2="245.42217" y2="170.15971" gradientUnits="userSpaceOnUse" id="color-67"><stop offset="0" stop-color="#272727"/><stop offset="1" stop-color="#000000"/></linearGradient><radialGradient cx="239.96552" cy="170.15971" r="4.52737" gradientUnits="userSpaceOnUse" id="color-68"><stop offset="0" stop-color="#734c45" stop-opacity="0.40995"/><stop offset="1" stop-color="#734c45" stop-opacity="0"/></radialGradient><radialGradient cx="239.96552" cy="170.14361" r="3.67557" gradientUnits="userSpaceOnUse" id="color-69"><stop offset="0" stop-color="#eb8c73" stop-opacity="0.60996"/><stop offset="1" stop-color="#eb8c73" stop-opacity="0"/></radialGradient><radialGradient cx="239.96552" cy="170.14361" r="3.11167" gradientUnits="userSpaceOnUse" id="color-70"><stop offset="0" stop-color="#ff734f" stop-opacity="0"/><stop offset="1" stop-color="#ff734f" stop-opacity="0.08997"/></radialGradient><radialGradient cx="239.96552" cy="170.14361" r="2.55874" gradientUnits="userSpaceOnUse" id="color-71"><stop offset="0" stop-color="#ffa282" stop-opacity="0.11996"/><stop offset="1" stop-color="#ffab8f"/></radialGradient><linearGradient x1="234.66243" y1="170.15253" x2="235.39389" y2="170.15253" gradientUnits="userSpaceOnUse" id="color-72"><stop offset="0" stop-color="#9d9d9d"/><stop offset="1" stop-color="#4c4c4c"/></linearGradient><linearGradient x1="234.66243" y1="170.15253" x2="235.39389" y2="170.15253" gradientUnits="userSpaceOnUse" id="color-73"><stop offset="0" stop-color="#272727"/><stop offset="1" stop-color="#000000"/></linearGradient><linearGradient x1="244.55866" y1="170.15253" x2="245.29013" y2="170.15253" gradientUnits="userSpaceOnUse" id="color-74"><stop offset="0" stop-color="#9d9d9d"/><stop offset="1" stop-color="#4c4c4c"/></linearGradient><linearGradient x1="244.55866" y1="170.15253" x2="245.29013" y2="170.15253" gradientUnits="userSpaceOnUse" id="color-75"><stop offset="0" stop-color="#272727"/><stop offset="1" stop-color="#000000"/></linearGradient><linearGradient x1="234.64245" y1="171.50558" x2="245.28859" y2="171.50558" gradientUnits="userSpaceOnUse" id="color-76"><stop offset="0" stop-color="#272727"/><stop offset="1" stop-color="#000000"/></linearGradient><linearGradient x1="234.64245" y1="171.5184" x2="245.28859" y2="171.5184" gradientUnits="userSpaceOnUse" id="color-77"><stop offset="0" stop-color="#272727"/><stop offset="1" stop-color="#000000"/></linearGradient><linearGradient x1="234.66704" y1="168.67808" x2="245.31317" y2="168.67808" gradientUnits="userSpaceOnUse" id="color-78"><stop offset="0" stop-color="#272727"/><stop offset="1" stop-color="#000000"/></linearGradient><linearGradient x1="234.66704" y1="168.6909" x2="245.31317" y2="168.6909" gradientUnits="userSpaceOnUse" id="color-79"><stop offset="0" stop-color="#272727"/><stop offset="1" stop-color="#000000"/></linearGradient><linearGradient x1="234.53718" y1="173.31538" x2="245.29395" y2="173.31538" gradientUnits="userSpaceOnUse" id="color-80"><stop offset="0" stop-color="#c7a895"/><stop offset="1" stop-color="#322c27"/></linearGradient><linearGradient x1="234.53718" y1="173.31538" x2="245.29395" y2="173.31538" gradientUnits="userSpaceOnUse" id="color-81"><stop offset="0" stop-color="#272727"/><stop offset="1" stop-color="#000000"/></linearGradient><linearGradient x1="234.58635" y1="167.02113" x2="245.34313" y2="167.02113" gradientUnits="userSpaceOnUse" id="color-82"><stop offset="0" stop-color="#c7a895"/><stop offset="1" stop-color="#322c27"/></linearGradient><linearGradient x1="234.58635" y1="167.02113" x2="245.34313" y2="167.02113" gradientUnits="userSpaceOnUse" id="color-83"><stop offset="0" stop-color="#272727"/><stop offset="1" stop-color="#000000"/></linearGradient></defs><g transform="translate(-210.5,-150.14669)"><g data-paper-data="{&quot;isPaintingLayer&quot;:true}" fill-rule="nonzero" stroke-linejoin="miter" stroke-miterlimit="10" stroke-dasharray="" stroke-dashoffset="0" style="mix-blend-mode: normal"><path d="M212,208.35331v-56.70662h56v56.70662z" fill="url(#color-1)" stroke="url(#color-2)" stroke-width="3" stroke-linecap="butt"/><path d="M266.8571,180c0,14.75036 -12.02433,26.70789 -26.8571,26.70789c-14.83277,0 -26.8571,-11.95753 -26.8571,-26.70789c0,-14.75036 12.02433,-26.70789 26.8571,-26.70789c14.83277,0 26.8571,11.95753 26.8571,26.70789z" fill="url(#color-3)" stroke="url(#color-4)" stroke-width="0" stroke-linecap="butt"/><g stroke-width="0.375"><path d="M241.2272,197.26354l0.60473,-2.24645l0.72577,0.19537l-0.60473,2.24645z" fill="url(#color-5)" stroke="url(#color-6)" stroke-linecap="butt"/><path d="M243.18749,194.19854c-0.273,0.99365 -0.31793,1.09574 -0.98041,0.90609c-0.66269,-0.18971 -0.65585,-0.33247 -0.39305,-1.27582c0.29015,-1.04152 0.30775,-1.11461 0.98041,-0.90609c0.6445,0.19979 0.69283,0.18468 0.39305,1.27582z" fill="url(#color-7)" stroke="url(#color-8)" stroke-linecap="butt"/><path d="M238.36923,199.85575l-1.77807,-6.81283l1.1033,-0.14372l0.88829,6.91246z" fill="url(#color-9)" stroke="url(#color-10)" stroke-linecap="butt"/><path d="M242.04472,197.3496l0.60473,-2.24645l0.72577,0.19537l-0.60473,2.24645z" fill="url(#color-11)" stroke="url(#color-12)" stroke-linecap="butt"/><path d="M244.005,194.28459c-0.273,0.99365 -0.31793,1.09574 -0.98041,0.90609c-0.66269,-0.18971 -0.65585,-0.33247 -0.39305,-1.27582c0.29015,-1.04152 0.30775,-1.11461 0.98041,-0.90609c0.6445,0.19979 0.69283,0.18468 0.39305,1.27582z" fill="url(#color-13)" stroke="url(#color-14)" stroke-linecap="butt"/><path d="M244.84208,194.3542c-0.273,0.99365 -0.31793,1.09574 -0.98041,0.90609c-0.66269,-0.18971 -0.65585,-0.33247 -0.39305,-1.27582c0.29015,-1.04152 0.30775,-1.11461 0.98041,-0.90609c0.6445,0.19979 0.69283,0.18469 0.39305,1.27582z" fill="url(#color-15)" stroke="url(#color-16)" stroke-linecap="butt"/><path d="M242.37749,196.8271c0,0 0.66791,0.02106 0.75698,-0.30982c0.10861,-0.40345 0.36155,-1.34308 0.36155,-1.34308l0.72577,0.19537c0,0 -0.23724,0.88129 -0.34397,1.27778c-0.03991,0.14826 -0.26034,0.42467 -0.55845,0.59586c-0.39602,0.22742 -0.8892,0.33345 -0.8892,0.33345z" fill="url(#color-17)" stroke="url(#color-18)" stroke-linecap="butt"/><path d="M237.07841,199.64062l-1.77807,-6.81283l1.1033,-0.14372l0.88829,6.91246z" fill="url(#color-19)" stroke="url(#color-20)" stroke-linecap="butt"/><path d="M234.34474,204.74242c0,0 4.12377,-13.01682 5.52275,-12.92207c1.60041,0.1084 5.52125,12.92207 5.52125,12.92207z" fill="url(#color-21)" stroke="url(#color-22)" stroke-linecap="butt"/><path d="M241.63497,194.73357h-3.51101" fill="none" stroke="url(#color-23)" stroke-linecap="round"/><path d="M236.98804,197.36568h5.64516" fill="none" stroke="url(#color-24)" stroke-linecap="round"/><path d="M243.6138,200.27134h-7.57865" fill="none" stroke="url(#color-25)" stroke-linecap="round"/><path d="M235.02601,203.1653h9.63807" fill="none" stroke="url(#color-26)" stroke-linecap="round"/><path d="M234.43654,191.71629h11.01494c0,0 -0.02486,0.79355 -0.16984,1.07925c-0.12434,0.24503 -0.64768,0.53175 -0.64768,0.53175h-9.46596c0,0 -0.39897,-0.30419 -0.50594,-0.53979c-0.13168,-0.29002 -0.22552,-1.07122 -0.22552,-1.07122z" fill="url(#color-27)" stroke="url(#color-28)" stroke-linecap="butt"/></g><path d="M245.4425,191.60335v-11.16153c0,0 1.4046,7.49249 1.89568,9.3015c0.38853,1.43125 1.84854,4.41618 1.84854,4.41618z" fill="url(#color-29)" stroke="url(#color-30)" stroke-width="0.375" stroke-linecap="butt"/><path d="M230.81328,194.10213c0,0 1.46,-2.98493 1.84854,-4.41618c0.49108,-1.80901 1.89568,-9.3015 1.89568,-9.3015v11.16153z" data-paper-data="{&quot;index&quot;:null}" fill="url(#color-31)" stroke="url(#color-32)" stroke-width="0.375" stroke-linecap="butt"/><path d="M234.5423,191.63525v-17.90566h10.9133v17.90566z" fill="url(#color-33)" stroke="url(#color-34)" stroke-width="0.375" stroke-linecap="butt"/><g stroke-width="0.375"><path d="M240.38906,185.37141v-4.45672h4.28058v4.45672z" fill="url(#color-35)" stroke="url(#color-36)" stroke-linecap="butt"/><path d="M244.64823,180.97681l-4.27068,4.33572" fill="none" stroke="url(#color-37)" stroke-linecap="round"/><path d="M240.4209,180.93345l4.22733,4.40075" fill="none" stroke="url(#color-38)" stroke-linecap="round"/></g><g stroke-width="0.375"><path d="M235.27291,185.39309v-4.45672h4.28058v4.45672z" fill="url(#color-39)" stroke="url(#color-40)" stroke-linecap="butt"/><path d="M239.53208,180.99848l-4.27068,4.33572" fill="none" stroke="url(#color-41)" stroke-linecap="round"/><path d="M235.30475,180.95513l4.22733,4.40075" fill="none" stroke="url(#color-42)" stroke-linecap="round"/></g><g stroke-width="0.375"><path d="M240.38906,190.53466v-4.45672h4.28058v4.45672z" fill="url(#color-43)" stroke="url(#color-44)" stroke-linecap="butt"/><path d="M244.64823,186.14006l-4.27068,4.33572" fill="none" stroke="url(#color-45)" stroke-linecap="round"/><path d="M240.4209,186.0967l4.22733,4.40075" fill="none" stroke="url(#color-46)" stroke-linecap="round"/></g><g stroke-width="0.375"><path d="M235.27291,190.55634v-4.45672h4.28058v4.45672z" fill="url(#color-47)" stroke="url(#color-48)" stroke-linecap="butt"/><path d="M235.2614,190.49746l4.27068,-4.33572" fill="none" stroke="url(#color-49)" stroke-linecap="round"/><path d="M235.30475,186.11838l4.22733,4.40075" fill="none" stroke="url(#color-50)" stroke-linecap="round"/></g><g stroke-width="0.375"><path d="M235.09485,179.95267v-5.36978h9.74134v5.36978z" fill="url(#color-51)" stroke="url(#color-52)" stroke-linecap="butt"/><path d="M244.26118,175.14813h-8.65897" fill="none" stroke="url(#color-53)" stroke-linecap="round"/><path d="M244.15971,179.41884h-8.52367" fill="none" stroke="url(#color-54)" stroke-linecap="round"/></g><path d="M234.44352,166.58886c0,0 4.0664,-11.12498 5.46539,-11.044c1.60041,0.09264 5.57861,11.044 5.57861,11.044z" fill="url(#color-55)" stroke="url(#color-56)" stroke-width="0.375" stroke-linecap="butt"/><path d="M237.6543,159.07361l0.19033,-0.42437l4.22645,-0.01182l0.1876,0.43619z" fill="url(#color-57)" stroke="url(#color-58)" stroke-width="0.375" stroke-linecap="butt"/><path d="M237.71358,158.55687c0,0 1.6372,-3.32336 2.20046,-3.29917c0.64436,0.02768 2.24605,3.29917 2.24605,3.29917z" fill="url(#color-59)" stroke="url(#color-60)" stroke-width="0.375" stroke-linecap="butt"/><path d="M242.02569,162.18535c0,1.11506 -0.92237,2.019 -2.06017,2.019c-1.1378,0 -2.06017,-0.90394 -2.06017,-2.019c0,-1.11506 0.92237,-2.019 2.06017,-2.019c1.1378,0 2.06017,0.90394 2.06017,2.019z" fill="url(#color-61)" stroke="url(#color-62)" stroke-width="0.375" stroke-linecap="butt"/><path d="M238.02069,165.2833h3.88965" fill="none" stroke="url(#color-63)" stroke-width="0.375" stroke-linecap="round"/><path d="M238.02069,164.76697h3.88965" fill="none" stroke="url(#color-64)" stroke-width="0.375" stroke-linecap="round"/><path d="M238.02069,165.79962h3.88965" fill="none" stroke="url(#color-65)" stroke-width="0.375" stroke-linecap="round"/><g stroke-width="0.375"><path d="M234.50887,173.73415v-7.14888h10.9133v7.14888z" fill="url(#color-66)" stroke="url(#color-67)" stroke-linecap="butt"/><path d="M235.43815,170.15971c0,-2.50039 2.02697,-4.52737 4.52737,-4.52737c2.50039,0 4.52737,2.02697 4.52737,4.52737c0,2.50039 -2.02697,4.52737 -4.52737,4.52737c-2.50039,0 -4.52737,-2.02697 -4.52737,-4.52737z" fill="url(#color-68)" stroke="none" stroke-linecap="butt"/><path d="M236.28995,170.14361c0,-2.02995 1.64561,-3.67557 3.67557,-3.67557c2.02995,0 3.67557,1.64561 3.67557,3.67557c0,2.02995 -1.64561,3.67557 -3.67557,3.67557c-2.02995,0 -3.67557,-1.64561 -3.67557,-3.67557z" fill="url(#color-69)" stroke="none" stroke-linecap="butt"/><path d="M236.85385,170.14361c0,-1.71852 1.39314,-3.11167 3.11167,-3.11167c1.71852,0 3.11167,1.39314 3.11167,3.11167c0,1.71852 -1.39314,3.11167 -3.11167,3.11167c-1.71852,0 -3.11167,-1.39314 -3.11167,-3.11167z" fill="url(#color-70)" stroke="none" stroke-linecap="butt"/><path d="M237.40678,170.14361c0,-1.41315 1.14559,-2.55874 2.55874,-2.55874c1.41315,0 2.55874,1.14558 2.55874,2.55874c0,1.41315 -1.14559,2.55874 -2.55874,2.55874c-1.41315,0 -2.55874,-1.14559 -2.55874,-2.55874z" fill="url(#color-71)" stroke="none" stroke-linecap="butt"/><path d="M234.66243,172.9493v-5.59352h0.73146v5.59352z" fill="url(#color-72)" stroke="url(#color-73)" stroke-linecap="butt"/><path d="M244.55866,172.9493v-5.59352h0.73146v5.59352z" fill="url(#color-74)" stroke="url(#color-75)" stroke-linecap="butt"/><path d="M234.64245,172.97438l0.59009,-2.9376l0.5655,2.9376l0.76219,-2.91195l0.76219,2.89912l1.32769,-2.89912l1.27852,2.91195l1.131,-2.89912l1.27852,2.88629l0.86054,-2.88629l0.9343,2.91195l0.59009,-2.89912l0.5655,2.87346" fill="none" stroke="url(#color-76)" stroke-linecap="round"/><path d="M245.28859,170.06243l-0.5655,2.87346l-0.59009,-2.89912l-0.9343,2.91195l-0.86054,-2.88629l-1.27852,2.88629l-1.131,-2.89912l-1.27852,2.91195l-1.32769,-2.89912l-0.76219,2.89912l-0.76219,-2.91195l-0.5655,2.9376l-0.59009,-2.9376" data-paper-data="{&quot;index&quot;:null}" fill="none" stroke="url(#color-77)" stroke-linecap="round"/><path d="M234.66704,170.14688l0.59009,-2.9376l0.5655,2.9376l0.76219,-2.91195l0.76219,2.89912l1.32769,-2.89912l1.27852,2.91195l1.131,-2.89912l1.27852,2.88629l0.86054,-2.88629l0.9343,2.91195l0.59009,-2.89912l0.5655,2.87346" fill="none" stroke="url(#color-78)" stroke-linecap="round"/><path d="M245.31317,167.23493l-0.5655,2.87346l-0.59009,-2.89912l-0.9343,2.91195l-0.86054,-2.88629l-1.27852,2.88629l-1.131,-2.89912l-1.27852,2.91195l-1.32769,-2.89912l-0.76219,2.89912l-0.76219,-2.91195l-0.5655,2.9376l-0.59009,-2.9376" data-paper-data="{&quot;index&quot;:null}" fill="none" stroke="url(#color-79)" stroke-linecap="round"/><path d="M234.53718,173.63091v-0.63106h10.75678v0.63106z" fill="url(#color-80)" stroke="url(#color-81)" stroke-linecap="butt"/><path d="M234.58635,167.33666v-0.63106h10.75678v0.63106z" fill="url(#color-82)" stroke="url(#color-83)" stroke-linecap="butt"/></g><path d="M215.27327,167.03273v-12.39235h25.93332v8.69862h-15.56684v3.69373z" fill-opacity="0.53453" fill="#000000" stroke="#a60000" stroke-width="0" stroke-linecap="butt"/><text transform="translate(215.70712,161.61518) scale(0.21839,0.21839)" font-size="40" xml:space="preserve" fill="#ffffff" fill-rule="nonzero" stroke="#000000" stroke-width="0" stroke-linecap="butt" stroke-linejoin="miter" stroke-miterlimit="10" stroke-dasharray="" stroke-dashoffset="0" font-family="Serif" font-weight="normal" text-anchor="start" style="mix-blend-mode: normal"><tspan x="0" dy="0">Rocket</tspan></text><text transform="translate(215.56527,166.16681) scale(0.11601,0.11601)" font-size="40" xml:space="preserve" fill="#ffffff" fill-rule="nonzero" stroke="#000000" stroke-width="0" stroke-linecap="butt" stroke-linejoin="miter" stroke-miterlimit="10" stroke-dasharray="" stroke-dashoffset="0" font-family="Serif" font-weight="normal" text-anchor="start" style="mix-blend-mode: normal"><tspan x="0" dy="0">1-4-2</tspan></text></g></g></svg>