<svg version="1.1" xmlns="http://www.w3.org/2000/svg" xmlns:xlink="http://www.w3.org/1999/xlink" width="72.35202" height="73.94889" viewBox="0,0,72.35202,73.94889"><defs><radialGradient cx="232.04357" cy="174.24466" r="32.81875" gradientUnits="userSpaceOnUse" id="color-1"><stop offset="0" stop-color="#aaaaaa"/><stop offset="1" stop-color="#444444"/></radialGradient><radialGradient cx="250.83506" cy="191.81309" r="22.19203" gradientUnits="userSpaceOnUse" id="color-2"><stop offset="0" stop-color="#787878"/><stop offset="1" stop-color="#4f4f4f"/></radialGradient><radialGradient cx="216.4921" cy="198.93658" r="22.72913" gradientUnits="userSpaceOnUse" id="color-3"><stop offset="0" stop-color="#aaaaaa"/><stop offset="1" stop-color="#686868"/></radialGradient><radialGradient cx="234.62089" cy="157.82616" r="22.47699" gradientUnits="userSpaceOnUse" id="color-4"><stop offset="0" stop-color="#b3b3b3"/><stop offset="1" stop-color="#747474"/></radialGradient><radialGradient cx="213.11164" cy="190.15617" r="4.80911" gradientUnits="userSpaceOnUse" id="color-5"><stop offset="0" stop-color="#f47c46"/><stop offset="1" stop-color="#955837"/></radialGradient><radialGradient cx="236.55241" cy="191.0387" r="3.36142" gradientUnits="userSpaceOnUse" id="color-6"><stop offset="0" stop-color="#f47c46"/><stop offset="1" stop-color="#955837"/></radialGradient><radialGradient cx="226.30241" cy="203.2887" r="4.25101" gradientUnits="userSpaceOnUse" id="color-7"><stop offset="0" stop-color="#f47c46"/><stop offset="1" stop-color="#955837"/></radialGradient><radialGradient cx="264.05241" cy="181.5387" r="4.0002" gradientUnits="userSpaceOnUse" id="color-8"><stop offset="0" stop-color="#c9673a"/><stop offset="1" stop-color="#814c30"/></radialGradient><radialGradient cx="266.80241" cy="200.0387" r="2.68945" gradientUnits="userSpaceOnUse" id="color-9"><stop offset="0" stop-color="#c9673a"/><stop offset="1" stop-color="#814c30"/></radialGradient><radialGradient cx="251.55241" cy="192.7887" r="3.38407" gradientUnits="userSpaceOnUse" id="color-10"><stop offset="0" stop-color="#c9673a"/><stop offset="1" stop-color="#814c30"/></radialGradient><radialGradient cx="241.05241" cy="171.7887" r="5.17084" gradientUnits="userSpaceOnUse" id="color-11"><stop offset="0" stop-color="#ff8850"/><stop offset="1" stop-color="#a86845"/></radialGradient><radialGradient cx="229.30241" cy="157.7887" r="3.45036" gradientUnits="userSpaceOnUse" id="color-12"><stop offset="0" stop-color="#ff8850"/><stop offset="1" stop-color="#a86845"/></radialGradient><radialGradient cx="252.30241" cy="153.2887" r="4.31796" gradientUnits="userSpaceOnUse" id="color-13"><stop offset="0" stop-color="#ff8850"/><stop offset="1" stop-color="#a86845"/></radialGradient></defs><g transform="translate(-203.82399,-143.02556)"><g data-paper-data="{&quot;isPaintingLayer&quot;:true}" fill-rule="nonzero" stroke-width="0" stroke-linecap="butt" stroke-linejoin="miter" stroke-miterlimit="10" stroke-dasharray="" stroke-dashoffset="0" style="mix-blend-mode: normal"><path d="M272.21857,182.79257c0,3.84279 0.1644,9.93039 -1.00291,13.35414c-1.96895,5.775 -4.41798,12.69727 -9.09531,15.90469c-2.16491,1.48456 -5.93275,-0.87784 -8.69639,-0.40834c-4.32039,0.73396 -7.7193,4.16827 -12.20539,4.16827c-4.44271,0 -7.48184,-1.39739 -11.32703,-3.18662c-11.06857,-5.1504 -21.27297,-17.06203 -21.27297,-30.43213c0,-4.81453 5.79771,-6.58544 7.58876,-10.69906c2.13619,-4.90632 2.02246,-10.06492 5.64137,-13.64988c2.73374,-2.7081 6.55915,-3.66059 10.51778,-4.98768c2.84756,-0.95461 5.66753,-2.68213 8.65209,-2.68213c8.8133,0 17.9731,2.02042 23.64691,8.16361c2.7461,2.97328 2.84857,7.35285 4.05727,11.70053c1.17663,4.23229 3.49582,8.4134 3.49582,12.75461z" fill="url(#color-1)" stroke="#000000"/><path d="M239.4466,203.89347c-8.5531,-4.30485 -10.7935,-14.67045 0.69918,-23.49368c13.52883,-1.96128 9.58597,-15.21451 16.20361,-9.64475c2.88397,2.4273 9.75284,2.33859 12.68959,3.98368c4.52323,2.5338 5.47737,6.32735 3.44202,13.65127c-1.42217,5.11749 6.63443,9.26899 2.50488,14.20249c-7.58078,9.05664 -7.92922,0.63091 -14.33024,5.21356c-4.93357,3.53207 -3.79869,7.44353 -9.45694,6.6388c-7.82785,-1.1133 -8.6232,-8.97655 -11.75211,-10.55136z" fill="url(#color-2)" stroke="#cccccc"/><path d="M243.17539,204.57117c0,9.57534 -8.25175,16.2367 -21.29986,9.93769c-7.83415,-11.20277 -17.89986,-1.7225 -15.89986,-10.13769c0.8716,-3.66735 -2.29573,-9.76301 -2.14656,-13.12584c0.22975,-5.17948 3.18935,-7.73724 10.64643,-9.21185c5.21053,-1.03036 5.29676,-10.09327 11.56012,-8.62258c11.49791,2.69981 4.12835,6.79907 11.09951,10.45647c5.37301,2.81894 8.35668,0.04671 10.18168,5.46268c2.52478,7.49268 -4.14144,11.73825 -4.14144,15.24112z" fill="url(#color-3)" stroke="#cccccc"/><path d="M226.6137,176.89133c-8.3647,-4.66037 -10.16767,-15.11094 1.68553,-23.44357c13.59928,-1.3912 10.21667,-14.79837 16.59449,-8.95552c2.77946,2.54632 9.64598,2.74624 12.51103,4.51325c4.4128,2.72158 5.20672,6.55187 2.86549,13.78381c-1.6359,5.05323 6.23918,9.53952 1.90603,14.29518c-7.95455,8.73018 -7.94873,0.29725 -14.53661,4.60695c-5.0776,3.32169 -4.10804,7.27738 -9.72749,6.23565c-7.77418,-1.44116 -8.23848,-9.33089 -11.29847,-11.03575z" fill="url(#color-4)" stroke="#cccccc"/><path d="M218.67444,190.6682c0.57262,2.02967 3.50898,2.76874 -1.58564,4.22917c-2.42167,2.44136 -5.20421,2.70279 -6.4982,1.32509c-0.7168,-0.76318 -0.45697,-2.97248 -0.6611,-3.69601c-0.37607,-1.333 0.68727,-1.75208 1.8415,-2.77325c0.60323,-0.53369 0.86787,-1.9587 1.74414,-2.20592c1.22069,-0.34439 1.187,0.21858 2.18663,0.59998c1.09096,0.41625 2.67384,1.46177 2.97267,2.52095z" fill="url(#color-5)" stroke="#cccccc"/><path d="M238.70758,189.30106c1.38497,0.37864 2.84708,-1.07467 1.91016,2.40984c0.57378,2.26977 -0.25072,3.98464 -1.50868,4.2557c-0.69684,0.15015 -1.89431,-0.77713 -2.38803,-0.9121c-0.90959,-0.24867 -0.78069,-1.01608 -0.97108,-2.04789c-0.09951,-0.53926 -0.8378,-1.19396 -0.67433,-1.7919c0.22771,-0.83295 0.54427,-0.61564 1.11773,-1.06481c0.62586,-0.49022 1.79148,-1.04643 2.51423,-0.84884z" fill="url(#color-6)" stroke="#cccccc"/><path d="M227.30419,208.96206c-1.70758,-0.59397 -3.66853,1.1069 -2.19387,-3.1906c-0.52695,-2.90048 0.65534,-4.98442 2.25884,-5.2175c0.88826,-0.12911 2.31341,1.1381 2.92213,1.34984c1.12147,0.3901 0.89398,1.34316 1.04503,2.65567c0.07894,0.68596 0.95053,1.57151 0.6941,2.30873c-0.35723,1.02697 -0.73635,0.72693 -1.49514,1.24224c-0.82812,0.56239 -2.33999,1.16157 -3.23109,0.85162z" fill="url(#color-7)" stroke="#cccccc"/><path d="M266.78075,186.34082c-1.65946,0.24509 -2.54145,2.48627 -3.17487,-1.68144c-1.67939,-2.15895 -1.60233,-4.38065 -0.38376,-5.26119c0.67503,-0.48777 2.39145,-0.05787 2.98301,-0.14524c1.08986,-0.16096 1.31221,0.72055 2.00027,1.73506c0.3596,0.53021 1.45682,0.88405 1.56263,1.60049c0.1474,0.99803 -0.29328,0.91415 -0.69593,1.6639c-0.43944,0.81826 -1.42538,1.96052 -2.29136,2.08842z" fill="url(#color-8)" stroke="#cccccc"/><path d="M270.0697,201.5337c-0.4397,1.05402 0.55792,2.3554 -2.09554,1.26154c-1.84899,0.22156 -3.11787,-0.60345 -3.20363,-1.62343c-0.04751,-0.56501 0.80591,-1.41527 0.96266,-1.79101c0.28877,-0.69224 0.88104,-0.51243 1.7144,-0.55757c0.43554,-0.0236 1.02718,-0.53937 1.48224,-0.34954c0.63392,0.26444 0.43025,0.49204 0.72621,0.99016c0.323,0.54363 0.64311,1.51979 0.41366,2.06984z" fill="url(#color-9)" stroke="#cccccc"/><path d="M249.72055,193.28616c0.64242,-1.2866 -0.49972,-3.00672 2.74034,-1.40587c2.34177,-0.12041 3.86538,1.02443 3.886,2.31313c0.01142,0.71388 -1.13335,1.70913 -1.36236,2.16778c-0.42191,0.84499 -1.1506,0.5685 -2.20139,0.55403c-0.54917,-0.00756 -1.3365,0.58986 -1.89197,0.31251c-0.77379,-0.38636 -0.4985,-0.65489 -0.82776,-1.30595c-0.35935,-0.71054 -0.67811,-1.96422 -0.34287,-2.63564z" fill="url(#color-10)" stroke="#cccccc"/><path d="M240.8403,170.3871c1.89934,-0.95545 2.0686,-4.00342 4.48972,0.75964c2.88022,1.9295 3.67181,4.63364 2.55593,6.17826c-0.61814,0.85564 -2.85469,1.02152 -3.53177,1.36212c-1.24741,0.6275 -1.86584,-0.34477 -3.09763,-1.29169c-0.64377,-0.4949 -2.10494,-0.48395 -2.51744,-1.30396c-0.57463,-1.1423 -0.01094,-1.21677 0.17515,-2.27925c0.2031,-1.15956 0.93486,-2.92652 1.92603,-3.42513z" fill="url(#color-11)" stroke="#cccccc"/><path d="M227.33525,159.414c0.10957,-1.44337 -1.60891,-2.61229 2.01951,-2.35217c2.13677,-1.00258 3.99205,-0.51486 4.50124,0.67838c0.28206,0.66099 -0.40646,2.02383 -0.44552,2.53836c-0.07196,0.94795 -0.85623,0.96731 -1.84107,1.35334c-0.51471,0.20175 -1.02137,1.0579 -1.64452,1.01059c-0.86807,-0.06589 -0.71358,-0.42084 -1.26799,-0.90244c-0.60507,-0.52561 -1.37882,-1.57285 -1.32164,-2.32607z" fill="url(#color-12)" stroke="#cccccc"/><path d="M258.35505,155.23891c-0.26093,1.80392 1.79812,3.4192 -2.73798,2.78249c-2.77002,1.07701 -5.05914,0.30581 -5.59689,-1.23673c-0.29789,-0.85449 0.68351,-2.50777 0.77652,-3.15084c0.17136,-1.18474 1.15829,-1.14208 2.4285,-1.54292c0.66386,-0.2095 1.37349,-1.24177 2.1523,-1.12912c1.08492,0.15693 0.86054,0.58964 1.51589,1.24202c0.71524,0.71199 1.59782,2.09372 1.46166,3.0351z" fill="url(#color-13)" stroke="#cccccc"/></g></g></svg>