<svg version="1.1" xmlns="http://www.w3.org/2000/svg" xmlns:xlink="http://www.w3.org/1999/xlink" width="59" height="59.70662" viewBox="0,0,59,59.70662"><defs><linearGradient x1="240" y1="151.64669" x2="240" y2="208.35331" gradientUnits="userSpaceOnUse" id="color-1"><stop offset="0" stop-color="#191919"/><stop offset="1" stop-color="#050505"/></linearGradient><linearGradient x1="240" y1="151.64669" x2="240" y2="208.35331" gradientUnits="userSpaceOnUse" id="color-2"><stop offset="0" stop-color="#cccccc"/><stop offset="1" stop-color="#898989"/></linearGradient><radialGradient cx="240" cy="180" r="26.8571" gradientUnits="userSpaceOnUse" id="color-3"><stop offset="0" stop-color="#e4d2ff" stop-opacity="0.35294"/><stop offset="1" stop-color="#e4d2ff" stop-opacity="0"/></radialGradient><linearGradient x1="240" y1="153.2921" x2="240" y2="206.70789" gradientUnits="userSpaceOnUse" id="color-4"><stop offset="0" stop-color="#cccccc"/><stop offset="1" stop-color="#898989"/></linearGradient><radialGradient cx="236.3333" cy="161.16956" r="12.28582" gradientUnits="userSpaceOnUse" id="color-5"><stop offset="0" stop-color="#87859e"/><stop offset="1" stop-color="#595761"/></radialGradient><linearGradient x1="227.66657" y1="163.83625" x2="252.14295" y2="163.83625" gradientUnits="userSpaceOnUse" id="color-6"><stop offset="0" stop-color="#272727"/><stop offset="1" stop-color="#101010"/></linearGradient><linearGradient x1="237.16455" y1="163.73376" x2="239.8612" y2="163.73376" gradientUnits="userSpaceOnUse" id="color-7"><stop offset="0" stop-color="#272727"/><stop offset="1" stop-color="#101010"/></linearGradient><linearGradient x1="242.74433" y1="163.56802" x2="240.04767" y2="163.56802" gradientUnits="userSpaceOnUse" id="color-8"><stop offset="0" stop-color="#101010"/><stop offset="1" stop-color="#272727"/></linearGradient><linearGradient x1="237.16455" y1="171.60562" x2="239.8612" y2="171.60562" gradientUnits="userSpaceOnUse" id="color-9"><stop offset="0" stop-color="#272727"/><stop offset="1" stop-color="#101010"/></linearGradient><linearGradient x1="242.74433" y1="171.55415" x2="240.04767" y2="171.55415" gradientUnits="userSpaceOnUse" id="color-10"><stop offset="0" stop-color="#101010"/><stop offset="1" stop-color="#272727"/></linearGradient><linearGradient x1="239.74853" y1="164.17712" x2="240.15623" y2="164.17712" gradientUnits="userSpaceOnUse" id="color-11"><stop offset="0" stop-color="#272727"/><stop offset="1" stop-color="#101010"/></linearGradient><linearGradient x1="239.74853" y1="171.7433" x2="240.15623" y2="171.7433" gradientUnits="userSpaceOnUse" id="color-12"><stop offset="0" stop-color="#272727"/><stop offset="1" stop-color="#101010"/></linearGradient><radialGradient cx="233.17218" cy="164.0295" r="13.08498" gradientUnits="userSpaceOnUse" id="color-13"><stop offset="0" stop-color="#a9a7c7"/><stop offset="1" stop-color="#878593"/></radialGradient><linearGradient x1="226.95607" y1="164.86594" x2="253.04393" y2="164.86594" gradientUnits="userSpaceOnUse" id="color-14"><stop offset="0" stop-color="#272727"/><stop offset="1" stop-color="#101010"/></linearGradient><radialGradient cx="240.02017" cy="159.57877" r="0.83776" gradientUnits="userSpaceOnUse" id="color-15"><stop offset="0" stop-color="#c4c4c4"/><stop offset="1" stop-color="#a4a4a4"/></radialGradient><linearGradient x1="239.2078" y1="159.57877" x2="240.83254" y2="159.57877" gradientUnits="userSpaceOnUse" id="color-16"><stop offset="0" stop-color="#272727"/><stop offset="1" stop-color="#101010"/></linearGradient><radialGradient cx="235.42369" cy="172.81364" r="11.13244" gradientUnits="userSpaceOnUse" id="color-17"><stop offset="0" stop-color="#989898"/><stop offset="1" stop-color="#717171"/></radialGradient><radialGradient cx="233.93071" cy="187.23691" r="12.72279" gradientUnits="userSpaceOnUse" id="color-18"><stop offset="0" stop-color="#fff831"/><stop offset="1" stop-color="#d5a500"/></radialGradient><radialGradient cx="233.80057" cy="194.48269" r="11.95259" gradientUnits="userSpaceOnUse" id="color-19"><stop offset="0" stop-color="#989898"/><stop offset="1" stop-color="#717171"/></radialGradient><radialGradient cx="233.21323" cy="200.2752" r="13.08498" gradientUnits="userSpaceOnUse" id="color-20"><stop offset="0" stop-color="#c4c4c4"/><stop offset="1" stop-color="#a4a4a4"/></radialGradient><radialGradient cx="235.45615" cy="192.11445" r="11.1649" gradientUnits="userSpaceOnUse" id="color-21"><stop offset="0" stop-color="#555555"/><stop offset="1" stop-color="#4b4b4b"/></radialGradient><radialGradient cx="235.42369" cy="179.67536" r="11.13244" gradientUnits="userSpaceOnUse" id="color-22"><stop offset="0" stop-color="#989898"/><stop offset="1" stop-color="#717171"/></radialGradient><radialGradient cx="240" cy="186.84815" r="7.65964" gradientUnits="userSpaceOnUse" id="color-23"><stop offset="0" stop-color="#191919"/><stop offset="1" stop-color="#0f0f0f"/></radialGradient><radialGradient cx="235.45615" cy="174.39343" r="11.1649" gradientUnits="userSpaceOnUse" id="color-24"><stop offset="0" stop-color="#555555"/><stop offset="1" stop-color="#4b4b4b"/></radialGradient><radialGradient cx="240" cy="196.23446" r="7.65964" gradientUnits="userSpaceOnUse" id="color-25"><stop offset="0" stop-color="#626262"/><stop offset="1" stop-color="#515151"/></radialGradient><radialGradient cx="240" cy="197.71445" r="7.65964" gradientUnits="userSpaceOnUse" id="color-26"><stop offset="0" stop-color="#626262"/><stop offset="1" stop-color="#515151"/></radialGradient></defs><g transform="translate(-210.5,-150.14669)"><g data-paper-data="{&quot;isPaintingLayer&quot;:true}" fill-rule="nonzero" stroke-linejoin="miter" stroke-miterlimit="10" stroke-dasharray="" stroke-dashoffset="0" style="mix-blend-mode: normal"><path d="M212,208.35331v-56.70662h56v56.70662z" fill="url(#color-1)" stroke="url(#color-2)" stroke-width="3" stroke-linecap="butt"/><path d="M266.8571,180c0,14.75036 -12.02433,26.70789 -26.8571,26.70789c-14.83277,0 -26.8571,-11.95753 -26.8571,-26.70789c0,-14.75036 12.02433,-26.70789 26.8571,-26.70789c14.83277,0 26.8571,11.95753 26.8571,26.70789z" fill="url(#color-3)" stroke="url(#color-4)" stroke-width="0" stroke-linecap="butt"/><path d="M227.7618,162.9791l-0.09524,-4.00003c0,0 8.04227,1.14287 12.19058,1.14287c4.00549,0 12.38105,-1.04763 12.38105,-1.04763v3.71432c0,0 -1.29673,7.78148 -12.09165,7.52125c-10.88926,-0.2625 -12.38474,-7.33077 -12.38474,-7.33077z" fill="url(#color-5)" stroke="url(#color-6)" stroke-width="0.5" stroke-linecap="butt"/><path d="M239.8612,159.20014l-2.69665,9.06722" fill="none" stroke="url(#color-7)" stroke-width="0.5" stroke-linecap="round"/><path d="M240.04767,159.0344l2.69665,9.06722" data-paper-data="{&quot;index&quot;:null}" fill="none" stroke="url(#color-8)" stroke-width="0.5" stroke-linecap="round"/><path d="M239.8612,170.19781l-2.69665,2.81562" fill="none" stroke="url(#color-9)" stroke-width="0.5" stroke-linecap="round"/><path d="M242.74433,172.96196l-2.69665,-2.81562" data-paper-data="{&quot;index&quot;:null}" fill="none" stroke="url(#color-10)" stroke-width="0.5" stroke-linecap="round"/><path d="M239.95238,168.31757v-8.28091" fill="none" stroke="url(#color-11)" stroke-width="0.5" stroke-linecap="round"/><path d="M239.95238,170.45757v2.57145" fill="none" stroke="url(#color-12)" stroke-width="0.5" stroke-linecap="round"/><path d="M253.04393,158.54051c0,0 -0.07607,2.64062 -0.21093,3.73574c-0.13701,1.11259 -0.6048,2.88821 -0.6048,2.88821c0,0 -0.16429,4.72893 -8.58546,5.579c-0.94087,0.09497 -3.70305,0.61152 -3.70305,0.61152c0,0 -2.5743,-0.48833 -3.74602,-0.6475c-8.13796,-1.10544 -8.34112,-5.54303 -8.34112,-5.54303c0,0 -0.63168,-1.50666 -0.77621,-2.48499c-0.17558,-1.1885 -0.10713,-4.13895 -0.10713,-4.13895c0,0 0.59567,-0.54194 1.08457,0.34686c0.19595,0.35623 0.05499,1.90157 0.34286,2.33014c0.81555,1.21415 1.31623,4.18142 2.96034,5.51109c1.17288,0.94857 3.25506,0.3622 4.95855,0.90433c1.06718,0.33963 3.62418,1.09813 3.62418,1.09813c0,0 2.57977,-0.71419 3.72137,-1.09288c1.29751,-0.43041 3.96379,-0.07626 4.96236,-0.7583c2.28368,-1.55978 2.29098,-4.51019 3.20303,-5.94123c0.26729,-0.4194 0.10442,-1.56969 0.27826,-1.90643c0.39104,-0.75746 0.93921,-0.49172 0.93921,-0.49172z" data-paper-data="{&quot;index&quot;:null}" fill="url(#color-13)" stroke="url(#color-14)" stroke-width="0.5" stroke-linecap="butt"/><path d="M240.83254,159.57877c0,0.44866 -0.36371,0.81237 -0.81237,0.81237c-0.44866,0 -0.81237,-0.36371 -0.81237,-0.81237c0,-0.44866 0.36371,-0.81237 0.81237,-0.81237c0.44866,0 0.81237,0.36371 0.81237,0.81237z" fill="url(#color-15)" stroke="url(#color-16)" stroke-width="0.5" stroke-linecap="butt"/><path d="M228.86756,174.03459v-1.66076h22.26488v1.66076z" fill="url(#color-17)" stroke="#000000" stroke-width="0.5" stroke-linecap="butt"/><path d="M227.27721,200.57708v-18.88945h25.44558v18.88945z" fill="url(#color-18)" stroke="#000000" stroke-width="0.5" stroke-linecap="butt"/><path d="M228.04741,201.6231l0.8939,-8.61682h22.26615l0.74514,8.61682z" fill="url(#color-19)" stroke="#000000" stroke-width="0.5" stroke-linecap="butt"/><path d="M226.91502,201.5814l0.97859,-1.57628h24.37565l0.81573,1.57628z" fill="url(#color-20)" stroke="#000000" stroke-width="0.5" stroke-linecap="butt"/><path d="M228.8351,192.98235v-1.23333h22.32979v1.23333z" fill="url(#color-21)" stroke="#000000" stroke-width="0.5" stroke-linecap="butt"/><path d="M228.86756,191.74902v-16.42278h22.26488v16.42278z" fill="url(#color-22)" stroke="#000000" stroke-width="0.5" stroke-linecap="butt"/><path d="M233.15176,194.89726v-16.09822h13.69647v16.09822z" fill="url(#color-23)" stroke="#000000" stroke-width="0.5" stroke-linecap="butt"/><path d="M228.8351,175.26133v-1.23333h22.32979v1.23333z" fill="url(#color-24)" stroke="#000000" stroke-width="0.5" stroke-linecap="butt"/><path d="M233.15176,196.66288v-0.85684h13.69647v0.85684z" fill="url(#color-25)" stroke="#000000" stroke-width="0.25" stroke-linecap="butt"/><path d="M233.15176,198.14287v-0.85684h13.69647v0.85684z" fill="url(#color-26)" stroke="#000000" stroke-width="0.25" stroke-linecap="butt"/><path d="M215.27327,163.339v-8.69862h39.68755v8.69862z" fill-opacity="0.53453" fill="#000000" stroke="#a60000" stroke-width="0" stroke-linecap="butt"/><text transform="translate(215.70712,161.61518) scale(0.21839,0.21839)" font-size="40" xml:space="preserve" fill="#ffffff" fill-rule="nonzero" stroke="none" stroke-width="1" stroke-linecap="butt" stroke-linejoin="miter" stroke-miterlimit="10" stroke-dasharray="" stroke-dashoffset="0" font-family="Serif" font-weight="normal" text-anchor="start" style="mix-blend-mode: normal"><tspan x="0" dy="0">Megastruc.</tspan></text><path d="M215.27327,172.02996v-8.69862h32.41572v8.69862z" fill-opacity="0.53453" fill="#000000" stroke="#a60000" stroke-width="0" stroke-linecap="butt"/><text transform="translate(215.70712,170.30614) scale(0.21839,0.21839)" font-size="40" xml:space="preserve" fill="#ffffff" fill-rule="nonzero" stroke="none" stroke-width="1" stroke-linecap="butt" stroke-linejoin="miter" stroke-miterlimit="10" stroke-dasharray="" stroke-dashoffset="0" font-family="Serif" font-weight="normal" text-anchor="start" style="mix-blend-mode: normal"><tspan x="0" dy="0">Receiver</tspan></text></g></g></svg>