<svg version="1.1" xmlns="http://www.w3.org/2000/svg" xmlns:xlink="http://www.w3.org/1999/xlink" width="59" height="59.70662" viewBox="0,0,59,59.70662"><defs><linearGradient x1="240.00015" y1="151.64675" x2="240.00015" y2="208.35337" gradientUnits="userSpaceOnUse" id="color-1"><stop offset="0" stop-color="#1a1414" stop-opacity="0.9506"/><stop offset="1" stop-color="#050000" stop-opacity="0.94834"/></linearGradient><linearGradient x1="240.00015" y1="151.64675" x2="240.00015" y2="208.35337" gradientUnits="userSpaceOnUse" id="color-2"><stop offset="0" stop-color="#ccb0b0" stop-opacity="0.77419"/><stop offset="1" stop-color="#8a5858" stop-opacity="0.79839"/></linearGradient><radialGradient cx="240.00002" cy="180" r="26.8571" gradientUnits="userSpaceOnUse" id="color-3"><stop offset="0" stop-color="#ffcece" stop-opacity="0.34997"/><stop offset="1" stop-color="#ffcece" stop-opacity="0"/></radialGradient><linearGradient x1="240.00002" y1="153.29209" x2="240.00002" y2="206.70789" gradientUnits="userSpaceOnUse" id="color-4"><stop offset="0" stop-color="#cccccc"/><stop offset="1" stop-color="#898989"/></linearGradient><linearGradient x1="217.69253" y1="180" x2="262.30747" y2="180" gradientUnits="userSpaceOnUse" id="color-5"><stop offset="0" stop-color="#37322f"/><stop offset="1" stop-color="#403c36"/></linearGradient><radialGradient cx="236.08879" cy="194.52004" r="3.8792" gradientUnits="userSpaceOnUse" id="color-6"><stop offset="0" stop-color="#ae8450"/><stop offset="1" stop-color="#7d6239"/></radialGradient><radialGradient cx="255.87491" cy="171.51292" r="3.8807" gradientUnits="userSpaceOnUse" id="color-7"><stop offset="0" stop-color="#ae8450"/><stop offset="1" stop-color="#7d6239"/></radialGradient><linearGradient x1="246.93289" y1="187.82256" x2="252.28766" y2="187.82256" gradientUnits="userSpaceOnUse" id="color-8"><stop offset="0" stop-color="#1f1d1b"/><stop offset="1" stop-color="#292623"/></linearGradient></defs><g transform="translate(-210.50014,-150.14675)"><g data-paper-data="{&quot;isPaintingLayer&quot;:true}" fill-rule="nonzero" stroke-linecap="butt" stroke-linejoin="miter" stroke-miterlimit="10" stroke-dasharray="" stroke-dashoffset="0" style="mix-blend-mode: normal"><path d="M212.00015,208.35337v-56.70662h56v56.70662z" fill="url(#color-1)" stroke="url(#color-2)" stroke-width="3"/><path d="M266.85712,180c0,14.75036 -12.02433,26.70789 -26.8571,26.70789c-14.83277,0 -26.8571,-11.95753 -26.8571,-26.70789c0,-14.75036 12.02433,-26.70789 26.8571,-26.70789c14.83277,0 26.8571,11.95753 26.8571,26.70789z" fill="url(#color-3)" stroke="url(#color-4)" stroke-width="0"/><path d="M221.32873,197.95172l36.24963,-36.87607l0.45795,0.45009l-36.24962,36.8761z" fill="#2e2c2a" stroke="none" stroke-width="0"/><path d="M262.30744,157.30704c0,0 -3.32577,1.53379 -4.77979,7.16608c-1.63298,6.3254 -2.6572,16.903 -5.55422,22.06284c-0.39326,0.7004 -2.35101,0.50337 -2.81949,0.97993c-0.60457,0.61501 0.18919,1.98086 -0.65269,2.50953c-6.0898,3.82422 -17.70566,5.57894 -24.97228,8.00328c-4.67658,1.56025 -5.83642,4.66429 -5.83642,4.66429c0,0 0.53852,-3.77422 4.18029,-5.89677c7.04159,-4.10405 21.82784,-4.57826 26.86444,-9.70192c4.00869,-4.07797 3.91753,-18.73897 6.89556,-24.60545c2.3741,-4.67681 6.67466,-5.18183 6.67466,-5.18183z" fill="url(#color-5)" stroke="none" stroke-width="0"/><path d="M229.99983,195.12085l6.91484,-1.99782l0.84356,1.71738l-6.91484,1.99781z" fill="url(#color-6)" stroke="none" stroke-width="0"/><path d="M257.46272,168.94114l-1.87859,6.94761l-1.73178,-0.81378l1.87858,-6.94762z" data-paper-data="{&quot;index&quot;:null}" fill="url(#color-7)" stroke="none" stroke-width="0"/><path d="M246.93289,188.74718c0,0 0.40459,-1.40947 1.31766,-2.33951c0.95159,-0.96944 2.23821,-1.27779 2.23821,-1.27779l1.79889,1.76802c0,0 -1.68286,0.07316 -2.5416,1.05994c-0.89732,0.91405 -1.01426,2.55739 -1.01426,2.55739z" fill="url(#color-8)" stroke="none" stroke-width="0"/><path d="M215.06989,162.22182v-7.06998h14.47581v7.06998z" fill-opacity="0.52999" fill="#0a0000" stroke="#a60000" stroke-width="0"/><text transform="translate(215.50373,160.75253) scale(0.18022,0.18022)" font-size="40" xml:space="preserve" fill="#ffffff" fill-rule="nonzero" stroke="#000000" stroke-width="0" stroke-linecap="butt" stroke-linejoin="miter" stroke-miterlimit="10" stroke-dasharray="" stroke-dashoffset="0" font-family="Serif" font-weight="normal" text-anchor="start" style="mix-blend-mode: normal"><tspan x="0" dy="0">Bow</tspan></text><path d="M214.54816,205.29757v-2.74222h21.83809v2.74222z" fill-opacity="0.52999" fill="#0a0000" stroke="#a60000" stroke-width="0"/><text transform="translate(214.71645,204.72768) scale(0.0699,0.0699)" font-size="40" xml:space="preserve" fill="#ffffff" fill-rule="nonzero" stroke="#000000" stroke-width="0" stroke-linecap="butt" stroke-linejoin="miter" stroke-miterlimit="10" stroke-dasharray="" stroke-dashoffset="0" font-family="Serif" font-weight="normal" text-anchor="start" style="mix-blend-mode: normal"><tspan x="0" dy="0">Long range attacks</tspan></text></g></g></svg>