<svg version="1.1" xmlns="http://www.w3.org/2000/svg" xmlns:xlink="http://www.w3.org/1999/xlink" width="594.12302" height="646.34171" viewBox="0,0,594.12302,646.34171"><defs><linearGradient x1="272.35571" y1="255.10489" x2="272.35571" y2="-24.9185" gradientUnits="userSpaceOnUse" id="color-1"><stop offset="0" stop-color="#42fc48" stop-opacity="0"/><stop offset="1" stop-color="#42fc48" stop-opacity="0.23529"/></linearGradient><radialGradient cx="265.71432" cy="251.32988" r="277.27912" gradientUnits="userSpaceOnUse" id="color-2"><stop offset="0" stop-color="#5cd6a1" stop-opacity="0"/><stop offset="1" stop-color="#5cd6a1" stop-opacity="0.22745"/></radialGradient><radialGradient cx="270.91607" cy="181.52321" r="277.2872" gradientUnits="userSpaceOnUse" id="color-3"><stop offset="0" stop-color="#72fc58" stop-opacity="0.16863"/><stop offset="1" stop-color="#3b9a3b" stop-opacity="0.33725"/></radialGradient><linearGradient x1="271.80404" y1="-24.45603" x2="271.80404" y2="261.76786" gradientUnits="userSpaceOnUse" id="color-4"><stop offset="0" stop-color="#34a900" stop-opacity="0"/><stop offset="1" stop-color="#34a900" stop-opacity="0.46667"/></linearGradient><radialGradient cx="162.07036" cy="317.62585" r="295.56151" gradientUnits="userSpaceOnUse" id="color-5"><stop offset="0" stop-color="#949494"/><stop offset="1" stop-color="#535353"/></radialGradient><radialGradient cx="162.07036" cy="317.62585" r="295.56151" gradientUnits="userSpaceOnUse" id="color-6"><stop offset="0" stop-color="#888888"/><stop offset="1" stop-color="#5c5c5c"/></radialGradient><linearGradient x1="108.60924" y1="195.93353" x2="108.60924" y2="257.20644" gradientUnits="userSpaceOnUse" id="color-7"><stop offset="0" stop-color="#5a5a5a"/><stop offset="1" stop-color="#303030"/></linearGradient><linearGradient x1="108.60924" y1="195.93353" x2="108.60924" y2="257.20644" gradientUnits="userSpaceOnUse" id="color-8"><stop offset="0" stop-color="#353535"/><stop offset="1" stop-color="#191919"/></linearGradient><linearGradient x1="220.20634" y1="197.0286" x2="220.20634" y2="258.30153" gradientUnits="userSpaceOnUse" id="color-9"><stop offset="0" stop-color="#5a5a5a"/><stop offset="1" stop-color="#303030"/></linearGradient><linearGradient x1="220.20634" y1="197.0286" x2="220.20634" y2="258.30153" gradientUnits="userSpaceOnUse" id="color-10"><stop offset="0" stop-color="#353535"/><stop offset="1" stop-color="#191919"/></linearGradient><linearGradient x1="327.10884" y1="197.52324" x2="327.10884" y2="258.79616" gradientUnits="userSpaceOnUse" id="color-11"><stop offset="0" stop-color="#5a5a5a"/><stop offset="1" stop-color="#303030"/></linearGradient><linearGradient x1="327.10884" y1="197.52324" x2="327.10884" y2="258.79616" gradientUnits="userSpaceOnUse" id="color-12"><stop offset="0" stop-color="#353535"/><stop offset="1" stop-color="#191919"/></linearGradient><linearGradient x1="443.40244" y1="195.6153" x2="443.40244" y2="256.88822" gradientUnits="userSpaceOnUse" id="color-13"><stop offset="0" stop-color="#5a5a5a"/><stop offset="1" stop-color="#303030"/></linearGradient><linearGradient x1="443.40244" y1="195.6153" x2="443.40244" y2="256.88822" gradientUnits="userSpaceOnUse" id="color-14"><stop offset="0" stop-color="#353535"/><stop offset="1" stop-color="#191919"/></linearGradient><linearGradient x1="4.49062" y1="193.72495" x2="4.49062" y2="254.99789" gradientUnits="userSpaceOnUse" id="color-15"><stop offset="0" stop-color="#5a5a5a"/><stop offset="1" stop-color="#303030"/></linearGradient><linearGradient x1="4.49062" y1="193.72495" x2="4.49062" y2="254.99789" gradientUnits="userSpaceOnUse" id="color-16"><stop offset="0" stop-color="#353535"/><stop offset="1" stop-color="#191919"/></linearGradient><linearGradient x1="545.60655" y1="196.10993" x2="545.60655" y2="257.38284" gradientUnits="userSpaceOnUse" id="color-17"><stop offset="0" stop-color="#5a5a5a"/><stop offset="1" stop-color="#303030"/></linearGradient><linearGradient x1="545.60655" y1="196.10993" x2="545.60655" y2="257.38284" gradientUnits="userSpaceOnUse" id="color-18"><stop offset="0" stop-color="#353535"/><stop offset="1" stop-color="#191919"/></linearGradient><radialGradient cx="274.99746" cy="452.08785" r="125.65148" gradientUnits="userSpaceOnUse" id="color-19"><stop offset="0" stop-color="#87b100"/><stop offset="1" stop-color="#87b100" stop-opacity="0"/></radialGradient><radialGradient cx="274.99746" cy="452.08784" r="110.81723" gradientUnits="userSpaceOnUse" id="color-20"><stop offset="0" stop-color="#6cde00"/><stop offset="1" stop-color="#6cde00" stop-opacity="0"/></radialGradient><radialGradient cx="274.99746" cy="452.08784" r="97.07506" gradientUnits="userSpaceOnUse" id="color-21"><stop offset="0" stop-color="#3dff99"/><stop offset="1" stop-color="#3dff99" stop-opacity="0"/></radialGradient><radialGradient cx="274.15889" cy="451.23356" r="79.68885" gradientUnits="userSpaceOnUse" id="color-22"><stop offset="0" stop-color="#8ae0ff"/><stop offset="1" stop-color="#78b5ff"/></radialGradient><radialGradient cx="306.91607" cy="257.0508" r="294.73828" gradientUnits="userSpaceOnUse" id="color-23"><stop offset="0" stop-color="#3f3f3f"/><stop offset="1" stop-color="#222222"/></radialGradient></defs><g transform="translate(26.81816,30.20604)"><g data-paper-data="{&quot;isPaintingLayer&quot;:true}" fill-rule="nonzero" stroke-linejoin="miter" stroke-miterlimit="10" stroke-dasharray="" stroke-dashoffset="0" style="mix-blend-mode: normal"><path d="M549.63483,255.10489h-554.55825c0,0 -5.73494,-279.06808 277.40315,-279.55532c280.74172,-0.48311 277.1551,279.55532 277.1551,279.55532z" data-paper-data="{&quot;index&quot;:null}" fill="url(#color-1)" stroke="none" stroke-width="0" stroke-linecap="butt"/><path d="M548.53041,257.75188h-554.55825c0,0 6.96002,-281.2065 277.66485,-282.07091c288.08595,-0.91991 276.8934,282.07091 276.8934,282.07091z" data-paper-data="{&quot;index&quot;:null}" fill="url(#color-2)" stroke="none" stroke-width="0" stroke-linecap="butt"/><path d="M549.07994,261.76786h-554.55825c0,0 -4.67635,-286.69721 278.23733,-286.22332c282.60059,0.47336 276.32092,286.22332 276.32092,286.22332z" data-paper-data="{&quot;index&quot;:null}" fill="url(#color-3)" stroke="url(#color-4)" stroke-width="11.5" stroke-linecap="butt"/><path d="M-4.18266,501.94913c0,0 -21.1355,-159.60663 -21.1355,-203.30756c0,-21.72464 21.1355,-42.89239 21.1355,-42.89239h553.88429c0,0 16.10323,25.52898 16.10323,42.89239c0,41.28839 -16.10323,203.30756 -16.10323,203.30756l-66.60955,110.24526l-416.95134,2.4364z" fill="url(#color-5)" stroke="#292e32" stroke-width="3" stroke-linecap="butt"/><path d="M-4.18266,501.94913c0,0 -21.1355,-159.60663 -21.1355,-203.30756c0,-21.72464 21.1355,-42.89239 21.1355,-42.89239h553.88429c0,0 16.10323,25.52898 16.10323,42.89239c0,41.28839 -16.10323,203.30756 -16.10323,203.30756l-66.60955,110.24526l-416.95134,2.4364z" fill="url(#color-6)" stroke="#292e32" stroke-width="3" stroke-linecap="butt"/><path d="M102.0673,257.20644v-61.27294h13.08389v61.27294z" fill="url(#color-7)" stroke="url(#color-8)" stroke-width="1" stroke-linecap="butt"/><path d="M213.66439,258.30153v-61.27294h13.08388v61.27294z" fill="url(#color-9)" stroke="url(#color-10)" stroke-width="1" stroke-linecap="butt"/><path d="M320.56692,258.79616v-61.27294h13.08388v61.27294z" fill="url(#color-11)" stroke="url(#color-12)" stroke-width="1" stroke-linecap="butt"/><path d="M436.86049,256.88822v-61.27294h13.08388v61.27294z" fill="url(#color-13)" stroke="url(#color-14)" stroke-width="1" stroke-linecap="butt"/><path d="M-2.05126,254.99789v-61.27295h13.08389v61.27295z" fill="url(#color-15)" stroke="url(#color-16)" stroke-width="1" stroke-linecap="butt"/><path d="M539.06463,257.38284v-61.27294h13.08388v61.27294z" fill="url(#color-17)" stroke="url(#color-18)" stroke-width="1" stroke-linecap="butt"/><path d="M550.94508,220.2625h-556.56816" fill="none" stroke="#1b1b1b" stroke-width="4" stroke-linecap="round"/><path d="M551.95147,208.54855l-556.56816,0.90107" fill="none" stroke="#1b1b1b" stroke-width="4" stroke-linecap="round"/><path d="M274.99746,580.09675c-69.39533,0 -125.65148,-57.3116 -125.65148,-128.00891c0,-70.69729 56.25615,-128.00891 125.65149,-128.00891c69.39535,0 125.65148,57.3116 125.65148,128.00891c0,70.69731 -56.25615,128.00891 -125.65147,128.00891z" fill="url(#color-19)" stroke="none" stroke-width="0.5" stroke-linecap="butt"/><path d="M274.99746,564.98416c-61.2026,0 -110.81722,-50.54547 -110.81722,-112.89634c0,-62.35086 49.61462,-112.89634 110.81723,-112.89634c61.20262,0 110.81723,50.54547 110.81723,112.89634c0,62.35087 -49.61462,112.89634 -110.81722,112.89634z" fill="url(#color-20)" stroke="none" stroke-width="0.5" stroke-linecap="butt"/><path d="M274.99746,550.98416c-53.61301,0 -97.07505,-44.27744 -97.07505,-98.89634c0,-54.61888 43.46204,-98.89634 97.07506,-98.89634c53.61304,0 97.07506,44.27744 97.07506,98.89634c0,54.6189 -43.46203,98.89634 -97.07505,98.89634z" fill="url(#color-21)" stroke="none" stroke-width="0.5" stroke-linecap="butt"/><path d="M274.15943,532.41748c-44.01097,0 -79.68885,-36.34778 -79.68885,-81.18392c0,-44.83668 35.6784,-81.18394 79.68885,-81.18394c44.01097,0 79.68885,36.34779 79.68885,81.18394c0,44.83668 -35.6784,81.18392 -79.68885,81.18392z" fill="url(#color-22)" stroke-opacity="0.50196" stroke="#14ff18" stroke-width="6" stroke-linecap="butt"/><path d="M564.82688,295.33306l-13.78827,-3.13584l-39.82596,12.74679l-25.89984,-10.21399l-42.49,12.99091l-33.53391,-11.34016l-12.66214,10.65753l-36.30729,6.81809l-35.20902,-19.26621l-40.42764,12.44326l-7.23105,-8.43311l-19.64645,9.6193l-65.47219,-7.67116l-37.59426,9.63961l-24.99863,-12.25034l-54.21133,9.96836l-16.9123,-5.29733l-39.92807,7.81613l-23.51209,-5.61071l-19.8261,-14.48112c0,0 3.02936,-10.72729 5.75134,-15.77652c3.32371,-6.16542 12.74867,-18.54068 12.74867,-18.54068c0,0 148.65895,-2.95458 283.10141,-2.95458c122.483,0 275.72906,3.59301 275.72906,3.59301c0,0 7.05692,12.17589 9.43566,18.42771c2.33583,6.13905 2.71041,20.25106 2.71041,20.25106z" fill="url(#color-23)" stroke="#161616" stroke-width="3" stroke-linecap="butt"/></g></g></svg>