<svg version="1.1" xmlns="http://www.w3.org/2000/svg" xmlns:xlink="http://www.w3.org/1999/xlink" width="142.18643" height="145.40118" viewBox="0,0,142.18643,145.40118"><defs><linearGradient x1="259.87539" y1="97.96372" x2="259.87539" y2="174.0427" gradientUnits="userSpaceOnUse" id="color-1"><stop offset="0" stop-color="#000000" stop-opacity="0"/><stop offset="1" stop-color="#000000" stop-opacity="0"/></linearGradient><linearGradient x1="191.05804" y1="36.06997" x2="191.86077" y2="62.04607" gradientUnits="userSpaceOnUse" id="color-2"><stop offset="0" stop-color="#4a4a4a" stop-opacity="0"/><stop offset="1" stop-color="#4a4a4a" stop-opacity="0.58039"/></linearGradient><linearGradient x1="193.16253" y1="34.91544" x2="192.10152" y2="63.0025" gradientUnits="userSpaceOnUse" id="color-3"><stop offset="0" stop-color="#292929" stop-opacity="0"/><stop offset="1" stop-color="#292929" stop-opacity="0.46667"/></linearGradient><linearGradient x1="194.92862" y1="36.87246" x2="191.50611" y2="62.60111" gradientUnits="userSpaceOnUse" id="color-4"><stop offset="0" stop-color="#383838" stop-opacity="0"/><stop offset="1" stop-color="#383838" stop-opacity="0.62353"/></linearGradient><linearGradient x1="192.56257" y1="37.88433" x2="191.89304" y2="61.85561" gradientUnits="userSpaceOnUse" id="color-5"><stop offset="0" stop-color="#4a4a4a" stop-opacity="0"/><stop offset="1" stop-color="#4a4a4a" stop-opacity="0.57647"/></linearGradient><linearGradient x1="263.55" y1="87.3135" x2="263.55" y2="175.64683" gradientUnits="userSpaceOnUse" id="color-6"><stop offset="0" stop-color="#5d5d5d"/><stop offset="1" stop-color="#474747"/></linearGradient><radialGradient cx="279.53333" cy="98.20194" r="11.83333" gradientUnits="userSpaceOnUse" id="color-7"><stop offset="0" stop-color="#939393"/><stop offset="1" stop-color="#393939"/></radialGradient><linearGradient x1="279.53333" y1="86.56259" x2="279.53333" y2="109.84128" gradientUnits="userSpaceOnUse" id="color-8"><stop offset="0" stop-color="#666666"/><stop offset="1" stop-color="#4f4f4f"/></linearGradient><linearGradient x1="240.37499" y1="173.13949" x2="240.37499" y2="180.21186" gradientUnits="userSpaceOnUse" id="color-9"><stop offset="0" stop-color="#348317"/><stop offset="1" stop-color="#3c5b0d"/></linearGradient><radialGradient cx="197.27832" cy="111.47475" r="37.63684" gradientUnits="userSpaceOnUse" id="color-10"><stop offset="0" stop-color="#939393"/><stop offset="1" stop-color="#535353"/></radialGradient><radialGradient cx="196.88931" cy="83.72848" r="37.63684" gradientUnits="userSpaceOnUse" id="color-11"><stop offset="0" stop-color="#393939"/><stop offset="1" stop-color="#1b1b1b"/></radialGradient><radialGradient cx="196.69481" cy="78.21429" r="32.09343" gradientUnits="userSpaceOnUse" id="color-12"><stop offset="0" stop-color="#373737"/><stop offset="1" stop-color="#1b1b1b"/></radialGradient><linearGradient x1="180.03919" y1="69.10837" x2="204.20995" y2="69.10837" gradientUnits="userSpaceOnUse" id="color-13"><stop offset="0" stop-color="#535353"/><stop offset="1" stop-color="#232323"/></linearGradient><radialGradient cx="218.50361" cy="90.86672" r="17.36636" gradientUnits="userSpaceOnUse" id="color-14"><stop offset="0" stop-color="#939393"/><stop offset="1" stop-color="#535353"/></radialGradient><radialGradient cx="236.16706" cy="98.76667" r="9.74286" gradientUnits="userSpaceOnUse" id="color-15"><stop offset="0" stop-color="#1d1d1d"/><stop offset="1" stop-color="#080808"/></radialGradient><linearGradient x1="236.16706" y1="89.02381" x2="236.16706" y2="108.50953" gradientUnits="userSpaceOnUse" id="color-16"><stop offset="0" stop-color="#ffffff"/><stop offset="1" stop-color="#a0a0a0"/></linearGradient><radialGradient cx="185.99995" cy="130.0595" r="50.77276" gradientUnits="userSpaceOnUse" id="color-17"><stop offset="0" stop-color="#adadad"/><stop offset="1" stop-color="#666666"/></radialGradient><radialGradient cx="192.42657" cy="144.99996" r="35.99484" gradientUnits="userSpaceOnUse" id="color-18"><stop offset="0" stop-color="#1e1e1e"/><stop offset="1" stop-color="#171717"/></radialGradient><linearGradient x1="282.7835" y1="95.43078" x2="276.61119" y2="101.16922" gradientUnits="userSpaceOnUse" id="color-19"><stop offset="0" stop-color="#644520"/><stop offset="1" stop-color="#5c401f"/></linearGradient><linearGradient x1="282.62406" y1="101.4115" x2="276.77062" y2="95.18848" gradientUnits="userSpaceOnUse" id="color-20"><stop offset="0" stop-color="#644520"/><stop offset="1" stop-color="#5c401f"/></linearGradient><linearGradient x1="283.93843" y1="98.43158" x2="275.45625" y2="98.16843" gradientUnits="userSpaceOnUse" id="color-21"><stop offset="0" stop-color="#644520"/><stop offset="1" stop-color="#5c401f"/></linearGradient><linearGradient x1="279.81054" y1="94.05945" x2="279.58417" y2="102.54056" gradientUnits="userSpaceOnUse" id="color-22"><stop offset="0" stop-color="#644520"/><stop offset="1" stop-color="#5c401f"/></linearGradient><linearGradient x1="302.94701" y1="75.94631" x2="256.44769" y2="120.65368" gradientUnits="userSpaceOnUse" id="color-23"><stop offset="0" stop-color="#e08200"/><stop offset="1" stop-color="#82491d"/></linearGradient><linearGradient x1="284.73336" y1="93.45807" x2="274.66134" y2="103.14194" gradientUnits="userSpaceOnUse" id="color-24"><stop offset="0" stop-color="#636363"/><stop offset="1" stop-color="#3a3a3a"/></linearGradient><linearGradient x1="284.73336" y1="93.45807" x2="274.66134" y2="103.14194" gradientUnits="userSpaceOnUse" id="color-25"><stop offset="0" stop-color="#adadad"/><stop offset="1" stop-color="#7e7e7e"/></linearGradient><radialGradient cx="233.54419" cy="93.5311" r="20.5" gradientUnits="userSpaceOnUse" id="color-26"><stop offset="0" stop-color="#454545"/><stop offset="1" stop-color="#2f2f2f"/></radialGradient><radialGradient cx="265.8649" cy="107.26289" r="6.16667" gradientUnits="userSpaceOnUse" id="color-27"><stop offset="0" stop-color="#939393"/><stop offset="1" stop-color="#454545"/></radialGradient><radialGradient cx="265.94958" cy="110.3179" r="6.16667" gradientUnits="userSpaceOnUse" id="color-28"><stop offset="0" stop-color="#636363"/><stop offset="1" stop-color="#232323"/></radialGradient></defs><g transform="translate(-171.50034,-34.81068)"><g data-paper-data="{&quot;isPaintingLayer&quot;:true}" fill-rule="nonzero" stroke-linejoin="miter" stroke-miterlimit="10" stroke-dasharray="" stroke-dashoffset="0" style="mix-blend-mode: normal"><path d="M236.92521,174.0427v-76.07898h44.2092l14.54429,76.75546z" fill-opacity="0.00392" fill="#ffffff" stroke="url(#color-1)" stroke-width="2.5" stroke-linecap="butt"/><path d="M185.00942,60.67851l-0.01027,-0.00584l-0.0062,-0.02332c-0.06108,-0.11341 -0.09775,-0.24416 -0.10208,-0.38426l-0.00847,-0.27402l0.01979,-0.09899l-0.00313,-0.1012l0.0244,-0.12204l-0.01878,-0.60762l-0.05336,-0.32423l0.00384,-0.05904l-0.01512,-0.05692l-0.00022,-0.0073l-0.0086,-0.02345l-0.05769,-0.09067l-0.03717,-0.10778l-0.24589,-0.48754l-0.01373,-0.05732l-0.03108,-0.04886l-0.07651,-0.22187l-0.04741,-0.07119l-0.03755,-0.10218l-0.05769,-0.09067l-0.16816,-0.48776l-0.01349,-0.13141l-0.03377,-0.12713l-0.00195,-0.06322l-0.03189,-0.12004l-0.00313,-0.10118l-0.02586,-0.09737l-0.00096,-0.03101l-0.01291,-0.03742l-0.01349,-0.13141l-0.03377,-0.12713l-0.03217,-1.04124l0.01979,-0.09899l-0.00313,-0.1012l0.0244,-0.12204l-0.00704,-0.22761l0.01979,-0.09899l-0.00313,-0.1012l0.04037,-0.2019l0.03952,-0.25652l0.01923,-0.0477l0.0021,-0.05192l0.07824,-0.28337l0.03473,-0.22532l0.01923,-0.0477l0.00211,-0.05192l0.0747,-0.27058l0.03292,-0.26665l0.04206,-0.11423l0.02107,-0.12076l0.11308,-0.26481l0.07285,-0.31311l0.03372,-0.06792l0.01321,-0.07569l0.40562,-0.9497l0.16812,-0.60888l0.04285,-0.07801l0.02184,-0.08747l0.11468,-0.22187l0.07262,-0.21566l0.03458,-0.05526l0.01605,-0.06433l0.14447,-0.27946l0.02743,-0.03153l0.01435,-0.04032l0.08816,-0.13553l0.15253,-0.45303l0.01811,-0.02894l0.00599,-0.03432l0.50079,-1.17253l0.10674,-0.38661l0.07538,-0.54864l0.02495,-0.06497l0.00462,-0.07011l0.15446,-0.50862l0.02665,-0.49808l0.01238,-0.04266l-0.00335,-0.04455l0.083,-0.53856l0.07556,-0.61209l0.0262,-0.64634l-0.05859,-1.89576l-0.05277,-0.39157l-0.09786,-0.36841l-0.1099,-0.36694l-0.00087,-0.01405l-0.00652,-0.01218l-0.0435,-0.16372l-0.08955,-0.21924l-0.00386,-0.02439l-0.01299,-0.02041l-0.07651,-0.22187l-0.04741,-0.07119l-0.02003,-0.05452l-0.0123,-0.00219l-0.05549,-0.08722l-0.07672,-0.06608l-0.00518,-0.06265l-0.08521,-0.13393l-0.00742,-0.02151l-0.00069,-0.00114l-0.05805,-0.05306l-0.10704,-0.16077l-0.03755,-0.10216l-0.0352,-0.05536l-0.09458,-0.09513l-0.06674,-0.11104l-0.0831,-0.09745l-0.05436,-0.10778l-0.00757,-0.0316l-0.10655,-0.09178l-0.00338,-0.04087l-0.04219,-0.04948l-0.05436,-0.10778l-0.09828,-0.41054l0.11076,-0.19214l0.00468,-0.226l0.2907,-0.2864l0.05637,-0.03287l0.00401,-0.00816l0.02114,-0.0065l0.01873,-0.01091l0.17025,-0.04711l0.16903,-0.05191l0.0213,-0.00077l0.02127,-0.0059l0.0073,0.00486l1.28412,-0.04585l0.40332,-0.06281l0.34337,-0.06533l0.05492,0.00414l0.05295,-0.01625l0.2627,-0.00939l0.11165,-0.03428l0.09412,-0.00336l0.09057,-0.02781l0.10195,-0.00365l0.09209,0.0213l0.09412,-0.00336l0.20559,0.0475l0.07563,0.03995l0.08281,0.01673l0.11562,0.05706l0.05245,-0.01741l0.08592,0.05135l0.0961,0.02221l0.0307,0.05354l0.13141,0.07852l0.0591,0.01886l0.08798,0.05587l0.09732,0.0335l0.15631,0.10413l0.05311,0.05876l0.0666,0.03979l0.05001,0.05033l0.09192,0.06122l0.05311,0.05876l0.0666,0.03979l0.10534,0.10596l0.04135,0.0688l0.05805,0.05306l0.01798,0.027l0.02626,0.01751l0.05311,0.05874l0.0666,0.03979l0.10533,0.10598l0.04135,0.06882l0.05806,0.05308l0.20171,0.30296l0.46582,0.62344l0.04225,0.09858l0.06181,0.08586l0.06974,0.17074l0.09633,0.12893l0.04225,0.09858l0.0618,0.08582l0.09763,0.23903l0.07955,0.15772l0.14545,0.24204l0.0272,0.08572l0.04756,0.07477l0.03717,0.10778l0.08281,0.16419l0.02101,0.08772l0.04208,0.07846l0.28069,1.05656l0.04584,0.13296l0.00329,0.03206l0.015,0.02792l0.10742,0.4044l0.04584,0.13297l0.01349,0.13142l0.03377,0.12712l0.00364,0.11802l0.03189,0.12006l0.00061,0.02002l0.00854,0.01782l0.05943,0.2722l-0.0002,0.01361l0.00543,0.01231l0.04484,0.23982l0.07716,0.18896l0.01188,0.07501l0.03241,0.06767l0.05945,0.27217l-0.00019,0.01361l0.00542,0.01231l0.04932,0.26373l0.09125,0.26465l0.00668,0.06486l0.02602,0.05893l0.04932,0.26373l0.09125,0.26465l0.00529,0.05164l0.02213,0.04621l0.04856,0.22234l0.09556,0.27715l0.00329,0.03205l0.015,0.02795l0.04349,0.16371l0.04887,0.11965l0.34732,0.46483l0.11942,0.08978l0.06366,0.07873l0.07909,0.06042l0.18481,0.23211l0.77207,0.77663l0.16442,0.12364l0.07135,0.08825l0.08664,0.0707l0.12566,0.16816l0.22364,0.22497l0.04134,0.06882l0.05805,0.05306l0.03077,0.04621l0.10159,0.07636l0.08496,0.10511l0.0987,0.0902l0.21406,0.32153l0.01777,0.04834l0.03265,0.03831l0.07585,0.15038l0.1165,0.15592l0.0291,0.06789l0.04698,0.05512l0.10873,0.21556l0.0081,0.0338l0.01988,0.02761l0.09763,0.23903l0.20228,0.40104l0.0081,0.0338l0.01988,0.02761l0.09763,0.23903l0.09356,0.18548l0.0081,0.0338l0.01988,0.02761l0.11043,0.27037l0.00883,0.05578l0.02629,0.04901l0.02649,0.09971l0.09962,0.16576l0.0272,0.08572l0.04756,0.07477l0.11211,0.32516l0.00667,0.06486l0.02603,0.05893l0.04297,0.22984l0.12568,0.28845l0.02065,0.11346l0.04214,0.10637l0.05527,0.37394l0.09572,0.31959l0.00352,0.05681l0.02161,0.052l0.12412,0.75415l0.05939,0.31762l-0.00298,0.06868l0.01757,0.06611l0.03727,1.20563l-0.01601,0.08011l0.00615,0.08166l-0.04252,0.27583l-0.01923,0.0477l-0.00211,0.05191l-0.05646,0.20451l0.00434,0.1406l-0.00647,0.03235l0.01235,0.02449l-0.05253,0.17645l-0.03622,0.18113l-0.02207,0.01463l-0.00939,0.03152l-0.02708,0.04694l-0.01634,0.08175l-0.05775,0.12631l-0.03992,0.13406l-0.04291,0.07442l-0.01674,0.06064l-0.05196,0.09459l-0.03116,0.10462l-0.07177,0.12453l-0.02772,0.06488l-0.07688,0.10319l-0.05975,0.11555l-0.44106,0.50676l-0.12875,0.22333l-0.07529,0.17629l-0.03905,0.05241l-0.00085,0.04104l-0.05307,0.05228l-0.00389,0.02234l-0.00889,0.02082l-0.00462,0.02311l-0.00731,0.00485l-0.16953,0.39696l-0.03905,0.05241l-0.00085,0.04103l-0.11181,0.11016l-0.0358,0.04804l-0.00023,0.01167l-0.03181,0.03133l-0.02697,0.03619l-0.01082,0.00105l-0.04221,0.0416l-0.0358,0.04804l-0.00025,0.01167l-0.03179,0.03133l-0.02697,0.03619l-0.01082,0.00105l-0.04221,0.0416l-0.09482,0.12723l-0.03801,0.00365l-0.04606,0.04537l-0.10025,0.05845l-0.05333,0.01474l-0.04545,0.03341l-0.30247,0.12053l-0.09993,0.01185l-0.00352,0.00205l-0.17024,0.04711l-0.16903,0.05191l-0.02131,0.00077l-0.02127,0.0059l-0.0073,-0.00486l-0.02733,0.00097l-0.13307,0.03359l-0.10657,0.04246l-0.12224,0.01452l-0.11825,0.03631l-0.23276,0.00831l-0.03482,0.01387l-0.12224,0.01452l-0.11825,0.03631l-0.02886,0.00105l-0.03481,0.01387l-0.02982,0.00353l-0.026,0.01613l-0.2022,0.06209l-0.09412,0.00336l-0.09057,0.02781l-0.18177,0.0065l-0.03482,0.01387l-0.02981,0.00352l-0.026,0.01613l-0.20221,0.06209l-0.09413,0.00336l-0.09056,0.02781l-0.43404,0.0155l-0.17943,0.04528l-0.07619,-0.00118l-0.07328,0.0225l-6.27004,0.22393l-0.12023,-0.0278l-0.12287,-0.00575l-0.30923,-0.09869l-0.01883,-0.01195l-0.0467,0.00166l-0.00699,0.00538l-0.0216,-0.00436l-0.02131,0.00078l-0.17187,-0.03973l-0.17278,-0.03484l-0.01938,-0.00957l-0.02148,-0.00497l-0.00451,-0.00785l-0.0583,-0.02879l-0.30773,-0.265l-0.03332,-0.40273l-0.00071,-0.00123l0.00051,-0.00105l-0.02077,-0.25107c-0.18944,-0.05269 -0.35122,-0.18172 -0.45411,-0.35566z" fill="url(#color-2)" stroke="none" stroke-width="0.5" stroke-linecap="butt"/><path d="M184.81298,60.94012l-0.01065,-0.00717l-0.00496,-0.0257c-0.05746,-0.12755 -0.08734,-0.27171 -0.0816,-0.42322l0.01119,-0.29629l0.0287,-0.10509l0.00414,-0.10942l0.03537,-0.12953l0.02483,-0.65701l-0.0335,-0.3543l0.00853,-0.06338l-0.01209,-0.06271l0.00029,-0.0079l-0.00755,-0.02602l-0.0555,-0.10275l-0.0321,-0.11943l-0.22905,-0.54695l-0.01055,-0.063l-0.02991,-0.05537l-0.06607,-0.2459l-0.04584,-0.08084l-0.03292,-0.11342l-0.0555,-0.10273l-0.14521,-0.54051l-0.00481,-0.14291l-0.027,-0.14003l0.00259,-0.06835l-0.0255,-0.13221l0.00414,-0.10942l-0.02067,-0.10722l0.00127,-0.03355l-0.01113,-0.04148l-0.00481,-0.14291l-0.027,-0.14003l0.04253,-1.12585l0.0287,-0.10508l0.00414,-0.10943l0.03537,-0.12953l0.0093,-0.24611l0.0287,-0.10509l0.00414,-0.10942l0.05853,-0.21432l0.06167,-0.27328l0.02428,-0.04979l0.00612,-0.05584l0.10541,-0.29893l0.05416,-0.24005l0.02429,-0.04979l0.00612,-0.05583l0.10067,-0.28545l0.05528,-0.2848l0.05385,-0.11962l0.03168,-0.12844l0.14164,-0.27594l0.10178,-0.33146l0.04141,-0.07039l0.01984,-0.0805l0.50794,-0.98957l0.22649,-0.64231l0.05201,-0.08044l0.03004,-0.09251l0.14017,-0.22946l0.09432,-0.22641l0.0414,-0.05664l0.02209,-0.06799l0.17655,-0.28906l0.03194,-0.03164l0.01846,-0.04228l0.10514,-0.13862l0.19811,-0.47556l0.0217,-0.02968l0.00901,-0.03646l0.62713,-1.22179l0.14382,-0.40786l0.122,-0.58529l0.03174,-0.06793l0.01017,-0.07523l0.20434,-0.53536l0.06568,-0.53497l0.01652,-0.04497l-0.00032,-0.04833l0.12947,-0.57381l0.1269,-0.6537l0.07621,-0.69492l0.07744,-2.04982l-0.02786,-0.42687l-0.07823,-0.40574l-0.09132,-0.40519l0.0001,-0.01521l-0.00614,-0.01371l-0.03478,-0.18031l-0.08033,-0.24418l-0.00236,-0.02662l-0.0125,-0.02314l-0.06607,-0.2459l-0.04584,-0.08084l-0.01758,-0.06054l-0.01308,-0.00341l-0.05339,-0.09885l-0.07785,-0.07786l-0.00095,-0.06803l-0.08198,-0.15176l-0.0064,-0.02382l-0.00066,-0.0013l-0.05868,-0.06223l-0.10352,-0.18257l-0.03291,-0.11342l-0.03387,-0.0627l-0.09495,-0.11073l-0.06376,-0.12551l-0.08238,-0.11227l-0.05065,-0.12092l-0.00582,-0.03474l-0.10813,-0.10813l-0.00061,-0.04437l-0.04185,-0.05701l-0.05063,-0.12092l-0.07555,-0.45122l0.13373,-0.19775l0.02182,-0.24338l0.3348,-0.28399l0.06325,-0.03062l0.00494,-0.00848l0.02326,-0.00517l0.02102,-0.01018l0.18713,-0.03623l0.18617,-0.04148l0.02303,0.00099l0.02337,-0.00451l0.0075,0.00589l1.38847,0.0606l0.43969,-0.03319l0.3752,-0.041l0.05894,0.00915l0.05832,-0.01298l0.28404,0.01241l0.12297,-0.02741l0.10179,0.00444l0.09974,-0.02223l0.11024,0.00481l0.09774,0.03085l0.10178,0.00444l0.21824,0.06887l0.0786,0.04957l0.08808,0.02512l0.12047,0.07148l0.05787,-0.01427l0.08888,0.06272l0.10202,0.03221l0.02914,0.06037l0.13592,0.09595l0.06234,0.02542l0.09077,0.06781l0.1025,0.04446l0.16087,0.12573l0.05292,0.06791l0.0689,0.04862l0.05022,0.05856l0.09461,0.07394l0.05291,0.06791l0.06889,0.04862l0.10576,0.1233l0.0395,0.07778l0.05868,0.06223l0.01739,0.03066l0.02703,0.02111l0.05292,0.06791l0.06889,0.04862l0.10576,0.1233l0.0395,0.07778l0.05868,0.06223l0.19509,0.34407l0.45619,0.7124l0.03825,0.10993l0.06028,0.09787l0.06255,0.19017l0.09434,0.14734l0.03825,0.10995l0.06028,0.09787l0.08758,0.2662l0.07411,0.17694l0.13893,0.27353l0.02297,0.0948l0.04578,0.08471l0.0321,0.11945l0.07714,0.18418l0.01615,0.09642l0.03959,0.08825l0.22438,1.16371l0.03959,0.14735l0.00118,0.03485l0.01408,0.03143l0.08588,0.44539l0.03959,0.14735l0.0048,0.14291l0.027,0.14003l-0.00481,0.12759l0.0255,0.13218l-0.00082,0.02167l0.0079,0.01996l0.04392,0.29868l-0.00121,0.01467l0.00494,0.01371l0.03057,0.26254l0.06922,0.21044l0.00726,0.08192l0.02994,0.07575l0.04392,0.29868l-0.00121,0.01467l0.00494,0.01371l0.03363,0.2887l0.0788,0.29331l0.00237,0.07052l0.02371,0.0658l0.03363,0.2887l0.0788,0.29327l0.00189,0.05617l0.02045,0.05174l0.03588,0.24398l0.08251,0.30712l0.00118,0.03485l0.01409,0.03141l0.03475,0.18031l0.04384,0.13325l0.34011,0.53114l0.12215,0.1071l0.06283,0.09038l0.08082,0.07196l0.18211,0.26622l0.77516,0.90388l0.16817,0.14744l0.07042,0.1013l0.08822,0.08368l0.12306,0.19216l0.22454,0.26182l0.0395,0.07776l0.05868,0.06223l0.02975,0.05248l0.1039,0.09109l0.08386,0.12067l0.09975,0.10576l0.20704,0.36515l0.01557,0.05366l0.03239,0.04413l0.07066,0.16871l0.1141,0.17818l0.02636,0.07574l0.04659,0.06349l0.10129,0.24183l0.00622,0.03715l0.01939,0.03147l0.08758,0.2662l0.18843,0.44994l0.00622,0.03715l0.01939,0.03148l0.08758,0.2662l0.08716,0.20811l0.00622,0.03715l0.01939,0.03147l0.09906,0.3011l0.00539,0.06091l0.02473,0.05511l0.02116,0.10981l0.09516,0.1873l0.02297,0.09481l0.04578,0.08468l0.0968,0.36034l0.00237,0.0705l0.02371,0.0658l0.0293,0.2516l0.11417,0.32191l0.01385,0.12418l0.03755,0.11834l0.03187,0.40808l0.07955,0.35292l-0.00041,0.0616l0.01944,0.05794l0.07793,0.82409l0.04049,0.34767l-0.00831,0.07381l0.01404,0.0728l-0.04924,1.30362l-0.02322,0.08502l0.00058,0.0886l-0.06631,0.29388l-0.02429,0.0498l-0.00612,0.05583l-0.07606,0.21575l-0.00574,0.15204l-0.00938,0.03434l0.01151,0.02748l-0.06975,0.1858l-0.05252,0.19226l-0.02489,0.01389l-0.01246,0.03319l-0.03268,0.04833l-0.02369,0.08675l-0.07165,0.13131l-0.05301,0.14116l-0.0518,0.07661l-0.02256,0.06398l-0.06306,0.09756l-0.04138,0.11019l-0.08666,0.12815l-0.03471,0.06761l-0.09058,0.10473l-0.073,0.11952l-0.51333,0.50878l-0.15543,0.22984l-0.09431,0.18372l-0.04602,0.05318l-0.00396,0.04419l-0.06112,0.05185l-0.00585,0.02376l-0.01113,0.02171l-0.0067,0.0245l-0.00824,0.0046l-0.21229,0.4136l-0.04602,0.05318l-0.00396,0.04419l-0.12876,0.10924l-0.04218,0.04875l-0.00113,0.01256l-0.03663,0.03106l-0.03178,0.03672l-0.01174,0.00019l-0.04861,0.04124l-0.04218,0.04875l-0.00112,0.01256l-0.03663,0.03108l-0.03178,0.03672l-0.01174,0.00019l-0.04862,0.04124l-0.11171,0.12913l-0.04129,0.00064l-0.05304,0.04501l-0.11247,0.05443l-0.05863,0.01134l-0.05149,0.03214l-0.33519,0.10409l-0.10865,0.00422l-0.00393,0.0019l-0.18711,0.03623l-0.18617,0.04148l-0.02303,-0.00099l-0.0234,0.00451l-0.0075,-0.00587l-0.02955,-0.00128l-0.14602,0.0248l-0.1181,0.03666l-0.13294,0.00517l-0.13025,0.02905l-0.25166,-0.01098l-0.0386,0.01198l-0.13294,0.00517l-0.13025,0.02904l-0.03118,-0.00138l-0.0386,0.01198l-0.03242,0.00128l-0.02923,0.01515l-0.22271,0.04963l-0.10178,-0.00444l-0.09975,0.02223l-0.19654,-0.00859l-0.0386,0.01198l-0.03242,0.00125l-0.02923,0.01515l-0.22271,0.04963l-0.10178,-0.00444l-0.09975,0.02223l-0.46931,-0.02048l-0.1969,0.03348l-0.08209,-0.00781l-0.0807,0.01799l-6.77959,-0.29599l-0.12762,-0.04028l-0.1321,-0.01674l-0.32624,-0.13294l-0.01943,-0.01452l-0.05049,-0.00221l-0.00794,0.0052l-0.02297,-0.00656l-0.02303,-0.00102l-0.18242,-0.05757l-0.18378,-0.05241l-0.02019,-0.01196l-0.0228,-0.00719l-0.00428,-0.00888l-0.06073,-0.03604l-0.31226,-0.31224l-0.00606,-0.43724l-0.00066,-0.0014l0.00064,-0.00109l-0.00377,-0.27259c-0.20043,-0.07308 -0.36536,-0.22611 -0.46343,-0.42254z" fill="url(#color-3)" stroke="none" stroke-width="0.5" stroke-linecap="butt"/><path d="M184.9815,59.97028l-0.00918,-0.00766l-0.00232,-0.02414c-0.04174,-0.1231 -0.05666,-0.25872 -0.0382,-0.3975l0.03609,-0.2714l0.03556,-0.09376l0.01333,-0.10023l0.04383,-0.1156l0.08005,-0.60182l0.00003,-0.32928l0.01336,-0.05742l-0.00565,-0.0589l0.00097,-0.00723l-0.00468,-0.0247l-0.04211,-0.1001l-0.01911,-0.1131l-0.16306,-0.52618l-0.00421,-0.05903l-0.02269,-0.05395l-0.03934,-0.23284l-0.03512,-0.07899l-0.02039,-0.10765l-0.04211,-0.1001l-0.08649,-0.51182l0.00803,-0.13194l-0.01264,-0.1315l0.00833,-0.06261l-0.01193,-0.12416l0.01333,-0.10024l-0.00968,-0.10073l0.00408,-0.03071l-0.00663,-0.03925l0.00803,-0.13194l-0.01263,-0.1315l0.1372,-1.03133l0.03555,-0.09376l0.01333,-0.10023l0.04382,-0.1156l0.02997,-0.22542l0.03556,-0.09376l0.01333,-0.10023l0.07249,-0.19122l0.08053,-0.24518l0.02667,-0.04335l0.0105,-0.05072l0.12299,-0.26436l0.07075,-0.21535l0.02666,-0.04333l0.0105,-0.05075l0.11745,-0.25243l0.07566,-0.25641l0.05995,-0.10461l0.04034,-0.11497l0.15432,-0.23954l0.1225,-0.29465l0.04421,-0.06057l0.02528,-0.07205l0.55343,-0.85911l0.26428,-0.56804l0.05484,-0.06877l0.03569,-0.08207l0.1489,-0.19696l0.1065,-0.19876l0.04302,-0.04791l0.02624,-0.06034l0.18757,-0.24811l0.03214,-0.0259l0.02067,-0.03702l0.10878,-0.11691l0.22367,-0.41748l0.02254,-0.02512l0.01146,-0.03265l0.68328,-1.06072l0.16781,-0.36067l0.16322,-0.5261l0.0351,-0.05929l0.01591,-0.06817l0.2346,-0.4719l0.10702,-0.48546l0.01911,-0.03971l0.00393,-0.0445l0.16908,-0.51476l0.17366,-0.58853l0.13064,-0.63153l0.24979,-1.8777l0.01154,-0.39545l-0.03662,-0.3811l-0.04871,-0.3819l0.00143,-0.01396l-0.00447,-0.01323l-0.01627,-0.16938l-0.0526,-0.23269l0.00015,-0.02473l-0.00948,-0.02253l-0.03935,-0.23284l-0.03512,-0.079l-0.01089,-0.05747l-0.01174,-0.00446l-0.04049,-0.0963l-0.06482,-0.07941l0.00505,-0.06265l-0.06219,-0.14785l-0.00381,-0.02254l-0.0005,-0.00128l-0.04856,-0.06313l-0.07931,-0.17836l-0.0204,-0.10765l-0.02569,-0.06106l-0.07769,-0.11141l-0.0477,-0.12187l-0.06601,-0.11157l-0.03605,-0.11632l-0.00232,-0.03253l-0.09003,-0.11035l0.00329,-0.04088l-0.03353,-0.05666l-0.03606,-0.11636l-0.03018,-0.42266l0.14022,-0.16846l0.04126,-0.22166l0.33269,-0.22752l0.06085,-0.02181l0.00527,-0.00729l0.02187,-0.00242l0.02024,-0.00724l0.17527,-0.01447l0.17487,-0.01943l0.02111,0.00325l0.0219,-0.00181l0.0064,0.00619l1.27189,0.19552l0.40733,0.01375l0.3487,0.00004l0.05342,0.01437l0.05477,-0.00609l0.2602,0.03999l0.11549,-0.01282l0.09324,0.01433l0.09369,-0.0104l0.10098,0.01551l0.08721,0.03822l0.09323,0.01433l0.19475,0.08531l0.06798,0.05352l0.07883,0.03198l0.10459,0.07786l0.05448,-0.0073l0.07628,0.06665l0.09104,0.03989l0.02153,0.05847l0.11669,0.10194l0.05512,0.02964l0.07758,0.07151l0.0904,0.05123l0.13703,0.13182l0.04276,0.06781l0.05913,0.05168l0.0411,0.05893l0.08057,0.07753l0.04276,0.06782l0.05913,0.05168l0.08654,0.12407l0.02956,0.0755l0.04856,0.06313l0.01332,0.02996l0.02302,0.02213l0.04276,0.06782l0.05913,0.05165l0.08654,0.12411l0.02956,0.0755l0.04856,0.06313l0.14948,0.33613l0.35757,0.70122l0.02562,0.10499l0.04693,0.0961l0.04097,0.18124l0.07394,0.14501l0.02562,0.10499l0.04693,0.0961l0.05736,0.25367l0.05276,0.17023l0.10397,0.26559l0.01288,0.0895l0.03471,0.08254l0.01911,0.1131l0.05491,0.17719l0.00645,0.0903l0.02872,0.08514l0.10502,1.093l0.02359,0.13952l-0.00197,0.0322l0.01023,0.0303l0.04019,0.41834l0.02359,0.13953l-0.00803,0.13194l0.01263,0.13152l-0.01555,0.11689l0.01194,0.12418l-0.00265,0.01983l0.00552,0.01916l0.0144,0.27916l-0.0024,0.01338l0.00337,0.01312l0.00526,0.24456l0.04534,0.20054l-0.00046,0.07609l0.02093,0.07268l0.0144,0.27916l-0.0024,0.01338l0.00335,0.01313l0.00578,0.26892l0.04693,0.27773l-0.00395,0.06512l0.01608,0.06292l0.00577,0.26892l0.04693,0.27773l-0.00316,0.05186l0.01431,0.04964l0.01175,0.22806l0.04915,0.29082l-0.00195,0.0322l0.01022,0.03031l0.01627,0.16935l0.0287,0.12698l0.26658,0.52278l0.10302,0.11079l0.04991,0.08946l0.06808,0.07432l0.14434,0.26319l0.63428,0.90946l0.14185,0.15255l0.05595,0.10027l0.07385,0.08582l0.09644,0.18914l0.18372,0.26345l0.02956,0.07552l0.04856,0.06313l0.02278,0.05126l0.08764,0.09424l0.06663,0.11942l0.08253,0.10732l0.15865,0.35675l0.00966,0.05092l0.02594,0.04388l0.0503,0.16227l0.08943,0.17539l0.01763,0.07231l0.03732,0.06308l0.0721,0.23266l0.00248,0.0348l0.0151,0.03091l0.05736,0.25366l0.13415,0.43283l0.00248,0.0348l0.0151,0.03091l0.05736,0.25367l0.06205,0.20017l0.00248,0.0348l0.0151,0.03091l0.06488,0.28693l-0.00035,0.05656l0.01795,0.05319l0.00991,0.10314l0.07121,0.18188l0.01288,0.0895l0.03471,0.08254l0.05767,0.34118l-0.00395,0.06512l0.01608,0.06291l0.00503,0.23442l0.07699,0.30759l0.00192,0.1156l0.02423,0.11265l-0.00623,0.37856l0.04243,0.33265l-0.00575,0.05659l0.01284,0.05525l-0.00011,0.76589l0.00696,0.32387l-0.01407,0.06705l0.00658,0.06838l-0.15885,1.19416l-0.02876,0.07585l-0.00719,0.08156l-0.08661,0.26364l-0.02666,0.04335l-0.0105,0.05072l-0.08876,0.19079l-0.01853,0.13926l-0.0116,0.03064l0.00819,0.02643l-0.08034,0.16391l-0.06504,0.17157l-0.0241,0.01027l-0.01435,0.02927l-0.03426,0.04115l-0.02935,0.07744l-0.07735,0.11358l-0.06105,0.12452l-0.05433,0.06523l-0.02631,0.05656l-0.0665,0.0834l-0.04764,0.09719l-0.09088,0.10914l-0.03781,0.05871l-0.09246,0.0872l-0.07757,0.10258l-0.51648,0.41633l-0.163,0.19578l-0.10275,0.15952l-0.04695,0.04429l-0.00749,0.04023l-0.06073,0.04152l-0.00746,0.02125l-0.01213,0.01886l-0.0083,0.02187l-0.00797,0.00341l-0.23131,0.35906l-0.04695,0.04429l-0.00749,0.04023l-0.12796,0.08751l-0.04304,0.04059l-0.00212,0.01144l-0.03641,0.0249l-0.03242,0.03057l-0.01083,-0.00099l-0.0483,0.03305l-0.04305,0.04059l-0.00212,0.01144l-0.03641,0.02488l-0.03243,0.0306l-0.01082,-0.00102l-0.04831,0.03305l-0.11401,0.10752l-0.03803,-0.00353l-0.0527,0.03604l-0.10819,0.03875l-0.0549,0.00455l-0.05019,0.0244l-0.31739,0.06198l-0.10031,-0.00704l-0.00379,0.00134l-0.17527,0.01447l-0.17486,0.01943l-0.02112,-0.00324l-0.02191,0.0018l-0.0064,-0.00619l-0.02706,-0.00415l-0.13648,0.00813l-0.11183,0.02183l-0.12271,-0.00863l-0.12233,0.01359l-0.23052,-0.03545l-0.03654,0.00715l-0.12272,-0.00863l-0.12232,0.01358l-0.02858,-0.0044l-0.03654,0.00714l-0.02993,-0.0021l-0.0282,0.011l-0.20919,0.02322l-0.09324,-0.01433l-0.09369,0.0104l-0.18003,-0.02767l-0.03653,0.00715l-0.02994,-0.0021l-0.02821,0.011l-0.20918,0.02322l-0.09324,-0.01433l-0.09369,0.0104l-0.42991,-0.06608l-0.18402,0.01096l-0.07483,-0.01542l-0.0758,0.00842l-6.21034,-0.95477l-0.1139,-0.04992l-0.12004,-0.0287l-0.28851,-0.15513l-0.01661,-0.01533l-0.04625,-0.00709l-0.00774,0.00399l-0.02056,-0.00833l-0.02111,-0.00324l-0.16279,-0.07133l-0.16448,-0.0667l-0.01752,-0.01307l-0.02036,-0.00892l-0.00316,-0.00859l-0.05272,-0.03928l-0.26003,-0.31865l0.03251,-0.4028l-0.0005,-0.00134l0.00068,-0.00095l0.02027,-0.25112c-0.178,-0.0874 -0.31638,-0.24476 -0.38947,-0.43533z" fill="url(#color-4)" stroke="none" stroke-width="0.5" stroke-linecap="butt"/><path d="M185.65791,60.16684l-0.00915,-0.00603l-0.00444,-0.02187c-0.05009,-0.10824 -0.07678,-0.23096 -0.07317,-0.36027l0.00707,-0.25285l0.0236,-0.08993l0.0026,-0.0934l0.02909,-0.11084l0.01566,-0.56072l-0.03155,-0.30191l0.00675,-0.05413l-0.01084,-0.05336l0.0002,-0.00673l-0.00667,-0.02213l-0.0482,-0.08711l-0.02838,-0.10157l-0.2,-0.46437l-0.00954,-0.05366l-0.02599,-0.04694l-0.05842,-0.20912l-0.0398,-0.06855l-0.02905,-0.09646l-0.0482,-0.08711l-0.12841,-0.45972l-0.00529,-0.12185l-0.0242,-0.11917l0.00162,-0.05833l-0.02286,-0.11253l0.0026,-0.0934l-0.01854,-0.0913l0.0008,-0.0286l-0.00986,-0.0353l-0.00529,-0.12185l-0.02421,-0.1192l0.02684,-0.96089l0.0236,-0.08991l0.00261,-0.0934l0.02908,-0.11084l0.00587,-0.21003l0.0236,-0.08993l0.00261,-0.0934l0.04813,-0.1834l0.05032,-0.23375l0.0203,-0.04271l0.00476,-0.0477l0.08741,-0.25604l0.0442,-0.20528l0.02029,-0.04271l0.00476,-0.0477l0.08347,-0.24451l0.04477,-0.24349l0.04494,-0.10258l0.02595,-0.10987l0.11851,-0.23676l0.08406,-0.28376l0.03473,-0.06046l0.01626,-0.06886l0.42503,-0.84914l0.18783,-0.55017l0.04368,-0.06915l0.02486,-0.07919l0.11764,-0.19712l0.07858,-0.19406l0.03483,-0.04871l0.01829,-0.05824l0.14818,-0.2483l0.02698,-0.02733l0.0154,-0.03624l0.08853,-0.11927l0.16502,-0.40761l0.01826,-0.02553l0.00737,-0.03119l0.52476,-1.04839l0.11927,-0.34934l0.09916,-0.50049l0.02651,-0.05825l0.00805,-0.06429l0.16983,-0.45871l0.05155,-0.45702l0.01371,-0.03851l-0.00068,-0.04122l0.10564,-0.49078l0.10279,-0.55891l0.05918,-0.59356l0.04887,-1.74945l-0.02736,-0.36388l-0.07014,-0.34538l-0.08131,-0.34479l-0.00003,-0.01297l-0.00536,-0.01163l-0.03117,-0.15348l-0.07056,-0.20753l-0.00223,-0.02268l-0.01085,-0.01961l-0.05843,-0.20912l-0.03979,-0.06854l-0.0155,-0.05147l-0.0112,-0.0028l-0.04637,-0.0838l-0.06707,-0.06567l-0.00136,-0.058l-0.07122,-0.12867l-0.00565,-0.02026l-0.00059,-0.00111l-0.05058,-0.05251l-0.08984,-0.15475l-0.02905,-0.09646l-0.02942,-0.05318l-0.08193,-0.09352l-0.05544,-0.10645l-0.07124,-0.09499l-0.04422,-0.10265l-0.00525,-0.02957l-0.09315,-0.0912l-0.00089,-0.03785l-0.03618,-0.04823l-0.04422,-0.10266l-0.06822,-0.3842l0.11243,-0.16998l0.01657,-0.20782l0.28322,-0.24551l0.05369,-0.02672l0.00414,-0.00725l0.0198,-0.00465l0.01786,-0.00889l0.15933,-0.03269l0.15848,-0.03721l0.01967,0.00063l0.01991,-0.00409l0.00647,0.00496l1.185,0.03824l0.37482,-0.03258l0.31973,-0.03861l0.05037,0.00724l0.04963,-0.01167l0.24243,0.00784l0.10466,-0.02457l0.08686,0.00283l0.08491,-0.01995l0.09409,0.00304l0.08363,0.02536l0.08686,0.00283l0.18676,0.05665l0.06746,0.04152l0.07535,0.02057l0.10337,0.05979l0.04924,-0.01273l0.07635,0.05266l0.08729,0.02648l0.02535,0.05123l0.11678,0.08054l0.05339,0.02107l0.078,0.05698l0.08779,0.03694l0.1383,0.1057l0.04571,0.05744l0.05918,0.04083l0.04334,0.04947l0.08133,0.06217l0.04572,0.05742l0.05917,0.04083l0.09126,0.10417l0.03435,0.06596l0.05059,0.05251l0.0151,0.02601l0.02322,0.01773l0.04571,0.05744l0.05918,0.04083l0.09126,0.10417l0.03435,0.06596l0.05059,0.05251l0.1693,0.29162l0.39514,0.60332l0.03357,0.09343l0.05225,0.08292l0.05497,0.16163l0.08173,0.12475l0.03357,0.09345l0.05226,0.08291l0.07693,0.22626l0.06472,0.15024l0.12081,0.232l0.0204,0.08065l0.03973,0.07184l0.02838,0.10158l0.06735,0.15638l0.01459,0.08209l0.03451,0.07489l0.20117,0.99059l0.035,0.12532l0.00131,0.02973l0.0123,0.02668l0.077,0.37915l0.03502,0.12532l0.00529,0.12187l0.02421,0.11919l-0.00305,0.10891l0.02286,0.11254l-0.00052,0.0185l0.00691,0.01695l0.03998,0.25439l-0.0009,0.01252l0.00432,0.01167l0.0283,0.22364l0.06083,0.17885l0.00687,0.06982l0.02617,0.06433l0.03998,0.25438l-0.00089,0.01252l0.00432,0.01167l0.03111,0.24595l0.06968,0.24945l0.00264,0.06014l0.02077,0.05592l0.03111,0.24595l0.06968,0.24943l0.00209,0.04792l0.01787,0.04392l0.03267,0.20777l0.07297,0.26125l0.00131,0.02973l0.01227,0.02667l0.03118,0.15349l0.03851,0.11325l0.29461,0.44979l0.1051,0.09017l0.05435,0.07649l0.06955,0.06063l0.15761,0.22533l0.66887,0.76358l0.14471,0.12416l0.06094,0.08576l0.07596,0.07052l0.1066,0.16274l0.19374,0.22119l0.03435,0.06596l0.05059,0.05251l0.02582,0.04449l0.08942,0.0767l0.07257,0.10211l0.08599,0.08924l0.17971,0.30952l0.01374,0.04561l0.028,0.03733l0.06169,0.14323l0.09883,0.1509l0.02312,0.06436l0.04029,0.05371l0.08843,0.20532l0.00562,0.03163l0.0168,0.02667l0.07695,0.22627l0.16452,0.38201l0.00562,0.03163l0.0168,0.02667l0.07695,0.22626l0.0761,0.17668l0.00562,0.03163l0.0168,0.02667l0.08702,0.25589l0.00511,0.05192l0.02155,0.04678l0.01897,0.09347l0.08274,0.15887l0.02039,0.08065l0.03975,0.07184l0.08561,0.30649l0.00261,0.06012l0.02077,0.05589l0.02712,0.21438l0.1001,0.27351l0.01287,0.10578l0.03302,0.10061l0.03062,0.34781l0.07084,0.30032l0.00015,0.05252l0.01708,0.04923l0.07339,0.70227l0.03747,0.29621l-0.00647,0.06305l0.01259,0.06198l-0.03107,1.11259l-0.01909,0.07277l0.00123,0.07557l-0.05411,0.25134l-0.0203,0.04269l-0.00476,0.0477l-0.06309,0.18479l-0.00363,0.12977l-0.00771,0.02937l0.01004,0.02333l-0.05796,0.15918l-0.04317,0.16452l-0.02112,0.01208l-0.01035,0.02843l-0.02747,0.04152l-0.0195,0.07424l-0.06002,0.11273l-0.04402,0.12095l-0.04354,0.06586l-0.01871,0.05479l-0.05299,0.08386l-0.03436,0.09439l-0.07286,0.11019l-0.02905,0.058l-0.0764,0.0902l-0.06128,0.10268l-0.43364,0.43902l-0.13067,0.19761l-0.0789,0.15763l-0.03882,0.04581l-0.00302,0.03772l-0.05172,0.04483l-0.00479,0.02031l-0.00933,0.01862l-0.00552,0.02098l-0.00698,0.00399l-0.17764,0.35489l-0.03882,0.04581l-0.00302,0.0377l-0.10893,0.09443l-0.03557,0.04199l-0.00086,0.01073l-0.031,0.02685l-0.0268,0.03165l-0.01002,0.00027l-0.04113,0.03564l-0.03557,0.04199l-0.00087,0.01073l-0.03099,0.02685l-0.0268,0.03165l-0.01002,0.00027l-0.04114,0.03564l-0.09421,0.11123l-0.03521,0.00095l-0.04486,0.03891l-0.09549,0.04755l-0.04991,0.01024l-0.04365,0.02792l-0.28509,0.09203l-0.09265,0.00466l-0.00334,0.00165l-0.15933,0.03271l-0.15847,0.0372l-0.01967,-0.00063l-0.01992,0.0041l-0.00645,-0.00495l-0.02522,-0.00082l-0.12436,0.02258l-0.10044,0.03243l-0.11336,0.0057l-0.11087,0.02601l-0.21479,-0.00692l-0.03282,0.01059l-0.11336,0.0057l-0.11086,0.02602l-0.02662,-0.00086l-0.03282,0.0106l-0.02765,0.0014l-0.0248,0.0132l-0.18958,0.0445l-0.08686,-0.00283l-0.08491,0.01995l-0.16775,-0.00543l-0.03282,0.0106l-0.02765,0.0014l-0.0248,0.01322l-0.18957,0.04451l-0.08686,-0.00283l-0.08491,0.01993l-0.40055,-0.01293l-0.16769,0.03047l-0.0701,-0.00589l-0.06869,0.01613l-5.78613,-0.18676l-0.10922,-0.03312l-0.11283,-0.01299l-0.27942,-0.11026l-0.01671,-0.01218l-0.04311,-0.0014l-0.00672,0.00453l-0.01966,-0.00537l-0.01967,-0.00063l-0.1561,-0.04736l-0.15721,-0.04292l-0.01732,-0.01003l-0.01952,-0.00591l-0.00372,-0.00753l-0.0521,-0.03015l-0.26901,-0.26335l-0.00884,-0.37293l-0.00059,-0.00118l0.00054,-0.00095l-0.00552,-0.23251c-0.17159,-0.06038 -0.31358,-0.18935 -0.39889,-0.35596z" fill="url(#color-5)" stroke="none" stroke-width="0.5" stroke-linecap="butt"/><path d="M284.07207,123.9526l-13.47354,-0.17578" fill="none" stroke="#666666" stroke-width="5" stroke-linecap="round"/><path d="M264.91692,136.60911l21.4278,0.17578" fill="none" stroke="#666666" stroke-width="5" stroke-linecap="round"/><path d="M259.88463,150.4961h28.73274" fill="none" stroke="#666666" stroke-width="5" stroke-linecap="round"/><path d="M291.05234,164.55889l-36.2,0.17578" fill="none" stroke="#666666" stroke-width="5" stroke-linecap="round"/><path d="M247.775,173.44683l32.56463,-77.13333l15.58537,79.33333" fill="none" stroke="url(#color-6)" stroke-width="5" stroke-linecap="round"/><path d="M291.36667,98.20194c0,6.42823 -5.29796,11.63934 -11.83333,11.63934c-6.53537,0 -11.83333,-5.21111 -11.83333,-11.63934c0,-6.42823 5.29796,-11.63934 11.83333,-11.63934c6.53537,0 11.83333,5.21111 11.83333,11.63934z" fill="url(#color-7)" stroke="url(#color-8)" stroke-width="2.5" stroke-linecap="butt"/><path d="M171.50034,180.21186v-7.07226h137.74932v7.07226z" fill="#312d29" stroke="url(#color-9)" stroke-width="0" stroke-linecap="butt"/><path d="M174.32666,171.83633v-75.27368c0,0 20.78146,0 31.31541,0c10.72844,0 32.48244,0 32.48244,0v75.27368c0,0 -9.62345,3.59201 -31.89343,4.0077c-23.38487,0.4365 -31.90442,-4.0077 -31.90442,-4.0077z" fill="url(#color-10)" stroke="none" stroke-width="0" stroke-linecap="butt"/><path d="M173.93765,97.126v-16.70732h63.79785v16.70732c0,0 -8.65642,3.97004 -30.9264,4.0623c-23.38487,0.09688 -32.87145,-4.0623 -32.87145,-4.0623z" fill="url(#color-11)" stroke="none" stroke-width="0" stroke-linecap="butt"/><path d="M238.31901,80.71044c0,3.06154 -14.36872,4.94341 -32.09343,4.94341c-17.72472,0 -32.09343,-1.88187 -32.09343,-4.94341c0,-3.06154 14.36872,-5.54341 32.09343,-5.54341c17.72472,0 32.09343,2.48187 32.09343,5.54341z" fill="url(#color-12)" stroke="none" stroke-width="0" stroke-linecap="butt"/><path d="M180.03919,80.62194c0,0 0.27112,-6.54174 1.08146,-10.38605c0.29678,-1.4079 3.60741,-2.65864 4.23461,-4.72813c0.29398,-0.96999 -0.66442,-1.54737 -0.67958,-2.5304c-0.03995,-2.59045 0.59052,-2.2484 0.59052,-2.2484l13.64254,0.0315c0,0 0.31754,-0.81958 0.46052,2.21683c0.03381,0.71821 -1.08238,1.87498 -0.87495,2.60522c0.49979,1.75943 3.90032,3.36172 4.17494,4.59322c0.84008,3.76741 1.54074,10.44624 1.54074,10.44624c0,0 -5.88996,1.71443 -12.02652,1.59251c-5.96994,-0.11861 -12.14423,-1.59251 -12.14423,-1.59251z" fill="url(#color-13)" stroke="none" stroke-width="0" stroke-linecap="butt"/><path d="M219.33427,89.42721c6.00707,0.00627 12.82367,-0.03542 12.82367,-0.03542c0,0 8.70302,-0.31469 8.77925,8.84478c-0.32504,8.96069 -8.8305,9.46415 -8.8305,9.46415c0,0 -7.78529,0.17075 -12.81027,0.1655c-7.24042,-0.00756 -13.00714,-1.3829 -13.09101,-9.23319c-0.08752,-8.19256 5.88844,-9.21338 13.12884,-9.20582z" fill="url(#color-14)" stroke="none" stroke-width="0" stroke-linecap="butt"/><path d="M231.40388,98.76667c0,-5.38083 2.13255,-9.74286 4.76318,-9.74286c2.63063,0 4.76318,4.36202 4.76318,9.74286c0,5.38083 -2.13255,9.74286 -4.76318,9.74286c-2.63063,0 -4.76318,-4.36202 -4.76318,-9.74286z" fill="url(#color-15)" stroke="url(#color-16)" stroke-width="1.5" stroke-linecap="butt"/><path d="M239.42434,145.16854c0,12.43105 0.17643,26.53718 0.17643,26.53718c0,0 0.11245,4.45869 -32.99656,4.65536c-32.39201,-0.63457 -33.18606,-4.68364 -33.18606,-4.68364c0,0 -0.6466,-16.11016 -0.6466,-26.50889c0,-14.98335 4.94977,-26.92288 33.3264,-27.12975c29.61384,-0.2159 33.3264,12.1464 33.3264,27.12975z" fill="url(#color-17)" stroke="none" stroke-width="0" stroke-linecap="butt"/><path d="M230.30126,155.57315c0,8.69916 0.12509,19.25116 0.12509,19.25116c0,0 -0.06314,1.69914 -23.53545,1.83676c-22.96399,-0.44407 -23.58558,-1.90333 -23.58558,-1.90333c0,0 -0.25689,-11.90764 -0.25689,-19.18459c0,-10.48524 3.50909,-18.84043 23.62642,-18.9852c20.99444,-0.15109 23.62642,8.49996 23.62642,18.9852z" fill="url(#color-18)" stroke="none" stroke-width="0" stroke-linecap="butt"/><g><path d="M258.18393,75.62277l43.0268,45.35445" fill="none" stroke="url(#color-19)" stroke-width="3.5" stroke-linecap="round"/><path d="M257.44048,119.64112l44.51373,-42.68225" fill="none" stroke="url(#color-20)" stroke-width="3.5" stroke-linecap="round"/><path d="M279.9342,67.25119l-0.47372,62.09762" fill="none" stroke="url(#color-21)" stroke-width="3.5" stroke-linecap="round"/><path d="M248.66258,97.35161l62.06952,1.89678" fill="none" stroke="url(#color-22)" stroke-width="3.5" stroke-linecap="round"/><path d="M256.44769,120.65368c-12.33501,-12.82942 -11.92529,-33.23781 0.91514,-45.5834c12.84043,-12.3456 33.24917,-11.95338 45.58418,0.87603c12.33501,12.82942 11.92529,33.23782 -0.91514,45.58341c-12.84043,12.3456 -33.24917,11.95338 -45.58417,-0.87604z" fill="none" stroke="url(#color-23)" stroke-width="3.5" stroke-linecap="butt"/><path d="M274.66134,103.14194c-2.647,-2.7531 -2.53813,-7.15272 0.24318,-9.82686c2.78131,-2.67413 7.18183,-2.6101 9.82882,0.14299c2.647,2.7531 2.53813,7.15272 -0.24319,9.82685c-2.78131,2.67413 -7.18183,2.61012 -9.82883,-0.14298z" fill="url(#color-24)" stroke="url(#color-25)" stroke-width="1" stroke-linecap="butt"/></g><path d="M260.85496,107.77l-22.81651,-9.18394" fill="none" stroke="url(#color-26)" stroke-width="6" stroke-linecap="round"/><path d="M271.57084,112.85349c-2.63868,5.77514 -4.26422,2.73889 -7.36876,1.33852c-3.10455,-1.40037 -4.60735,-4.1674 -3.72184,-6.34117c1.70408,-4.18319 4.29395,-1.99412 7.39849,-0.59377c3.10455,1.40037 6.32917,-0.17518 3.69211,5.59641z" fill="url(#color-27)" stroke="url(#color-28)" stroke-width="0" stroke-linecap="butt"/></g></g></svg>