<svg version="1.1" xmlns="http://www.w3.org/2000/svg" xmlns:xlink="http://www.w3.org/1999/xlink" width="99.7593" height="103.45714" viewBox="0,0,99.7593,103.45714"><defs><radialGradient cx="226.79379" cy="167.56812" r="20.58604" gradientUnits="userSpaceOnUse" id="color-1"><stop offset="0" stop-color="#ff8700"/><stop offset="1" stop-color="#a77426"/></radialGradient><radialGradient cx="241.62593" cy="166.93512" r="20.58605" gradientUnits="userSpaceOnUse" id="color-2"><stop offset="0" stop-color="#ff8700"/><stop offset="1" stop-color="#a77426"/></radialGradient><linearGradient x1="239.74788" y1="156.06833" x2="239.74788" y2="162.91939" gradientUnits="userSpaceOnUse" id="color-3"><stop offset="0" stop-color="#2b2b2b"/><stop offset="1" stop-color="#3f3f3f"/></linearGradient><radialGradient cx="235.80052" cy="134.5081" r="13.11833" gradientUnits="userSpaceOnUse" id="color-4"><stop offset="0" stop-color="#7bccb1"/><stop offset="1" stop-color="#618c94"/></radialGradient><radialGradient cx="235.80052" cy="134.5081" r="13.11833" gradientUnits="userSpaceOnUse" id="color-5"><stop offset="0" stop-color="#727272"/><stop offset="1" stop-color="#333333"/></radialGradient><radialGradient cx="238.90385" cy="140.20256" r="11.56644" gradientUnits="userSpaceOnUse" id="color-6"><stop offset="0" stop-color="#ffffff" stop-opacity="0.74902"/><stop offset="1" stop-color="#abffe7" stop-opacity="0.56471"/></radialGradient><radialGradient cx="253.74471" cy="165.03868" r="15.95934" gradientUnits="userSpaceOnUse" id="color-7"><stop offset="0" stop-color="#6f8281"/><stop offset="1" stop-color="#576766"/></radialGradient><radialGradient cx="235.77188" cy="168.37063" r="17.31619" gradientUnits="userSpaceOnUse" id="color-8"><stop offset="0" stop-color="#7a908e"/><stop offset="1" stop-color="#576766"/></radialGradient><linearGradient x1="269.83434" y1="186.56748" x2="277.60809" y2="177.47737" gradientUnits="userSpaceOnUse" id="color-9"><stop offset="0" stop-color="#242424"/><stop offset="1" stop-color="#373737"/></linearGradient><radialGradient cx="266.49298" cy="185.44196" r="3.52256" gradientUnits="userSpaceOnUse" id="color-10"><stop offset="0" stop-color="#bfbfbf"/><stop offset="1" stop-color="#9a9a9a"/></radialGradient><linearGradient x1="279.20945" y1="178.0211" x2="316.24355" y2="151.69701" gradientUnits="userSpaceOnUse" id="color-11"><stop offset="0" stop-color="#b2b2b2"/><stop offset="1" stop-color="#c4c4c4"/></linearGradient><linearGradient x1="279.66184" y1="178.14047" x2="303.90132" y2="160.91093" gradientUnits="userSpaceOnUse" id="color-12"><stop offset="0" stop-color="#cccccc"/><stop offset="1" stop-color="#d8d8d8"/></linearGradient><linearGradient x1="276.92167" y1="179.15479" x2="278.93537" y2="177.77635" gradientUnits="userSpaceOnUse" id="color-13"><stop offset="0" stop-color="#b5b5b5"/><stop offset="1" stop-color="#c5c5c5"/></linearGradient><radialGradient cx="230.10696" cy="168.09559" r="22.04569" gradientUnits="userSpaceOnUse" id="color-14"><stop offset="0" stop-color="#6f8281"/><stop offset="1" stop-color="#576766"/></radialGradient></defs><g transform="translate(-222.36986,-130.87878)"><g data-paper-data="{&quot;isPaintingLayer&quot;:true}" fill-rule="nonzero" stroke-linejoin="miter" stroke-miterlimit="10" stroke-dasharray="" stroke-dashoffset="0" style="mix-blend-mode: normal"><g stroke="none" stroke-width="0" stroke-linecap="butt"><path d="M237.44528,176.57589c-0.32393,21.49106 -0.0929,21.92253 -7.52773,21.814c-7.84376,-0.1145 -7.60283,-0.76234 -7.52773,-21.814c0.07862,-22.03858 0.60596,-21.65002 7.52773,-21.814c7.33196,-0.1737 7.85978,-0.2156 7.52773,21.814z" fill="url(#color-1)"/><path d="M252.27741,175.94289c-0.32393,21.49106 -0.0929,21.92253 -7.52773,21.814c-7.84376,-0.1145 -7.60283,-0.76235 -7.52773,-21.814c0.07862,-22.03858 0.60596,-21.65001 7.52773,-21.81399c7.33196,-0.1737 7.85977,-0.21561 7.52773,21.81399z" fill="url(#color-2)"/></g><g><path d="M239.70442,191.34299c3.62872,0 10.54956,2.18267 10.54956,2.18267l3.03149,33.71008h-7.63934c0,0 -1.32697,-25.53818 -2.03751,-29.57011c-0.20138,-1.1427 -3.2979,-2.07857 -3.2979,-2.07857c0,0 -3.67312,-4.24407 -0.6063,-4.24407z" fill="#343331" stroke="#000000" stroke-width="0" stroke-linecap="butt"/><path d="M259.6926,234.32553c-0.59276,0 -2.64411,0.01365 -4.70436,-0.0669c-1.25258,-0.04897 -1.90215,-0.61779 -2.83553,-0.76063c-1.17507,-0.17982 -2.93854,0.22047 -3.78778,0.02896c-1.56485,-0.35288 -2.37463,-0.77782 -2.37463,-0.77782c0,0 -0.26911,-1.0254 -0.2856,-1.5858c-0.02221,-0.75501 0.16433,-2.53701 0.16433,-2.53701c0,0 5.93425,-0.11957 8.24914,0.08076c1.36979,0.11854 4.24057,0.6468 4.24057,0.6468c0,0 1.45976,0.6156 1.67337,1.04283c0.26162,0.52325 0.87307,1.98865 0.87307,1.98865c0,0 -0.3857,1.94015 -1.21259,1.94015z" data-paper-data="{&quot;index&quot;:null}" fill="#141415" stroke="#000000" stroke-width="0" stroke-linecap="butt"/><path d="M259.4217,231.75072c-0.24822,0 0.7024,1.60165 -2.61811,1.33311c-3.13563,-0.25358 -2.77648,-1.18823 -3.8809,-1.26883c-2.30937,-0.16854 -2.58765,0.59503 -3.58732,0.44205c-0.34815,-0.05328 -0.51271,-0.11454 -1.78459,-0.97035c-0.87472,-0.58857 -0.66566,-1.75122 -1.26542,-2.3793c-0.87609,-0.91745 -0.80847,-1.8858 -0.80847,-1.8858l-0.07637,-3.04773c0,0 0.48635,2.20681 1.32529,3.03122c0.75062,0.73761 2.3169,-0.01875 2.80058,-0.01889c0.84696,-0.00024 -0.68885,-3.26804 0.12091,-3.2498c0.43542,0.00981 3.72275,-0.23409 3.72275,-0.23409c0,0 0.12302,3.57989 0.35598,3.60005c1.36979,0.11854 4.60434,0.6468 4.60434,0.6468c0,0 1.45976,0.6156 1.67338,1.04283c0.26162,0.52325 0.63055,2.95873 0.63055,2.95873c0,0 -0.3857,0 -1.2126,0z" data-paper-data="{&quot;index&quot;:null}" fill="#252527" stroke="#000000" stroke-width="0" stroke-linecap="butt"/><path d="M251.95161,228.81212l2.6677,-1.09133" fill="none" stroke="#ffffff" stroke-width="0.5" stroke-linecap="round"/><path d="M253.89176,229.1759l2.54645,-1.45511" fill="none" stroke="#ffffff" stroke-width="0.5" stroke-linecap="round"/><path d="M257.52955,227.96331l-1.45512,1.45511" fill="none" stroke="#ffffff" stroke-width="0.5" stroke-linecap="round"/><path d="M250.73902,224.93183l2.18266,-0.24252" fill="none" stroke="#969696" stroke-width="0.5" stroke-linecap="round"/><path d="M251.22406,225.78064l1.94015,-0.36378" fill="none" stroke="#969696" stroke-width="0.5" stroke-linecap="round"/></g><path d="M235.9198,162.91939v-6.85104h7.65615v6.85104z" fill="url(#color-3)" stroke="#000000" stroke-width="0" stroke-linecap="butt"/><g stroke="none" stroke-linecap="butt"><path d="M252.95749,144.18413c0.04509,7.3914 -5.65598,13.41832 -12.73371,13.4615c-7.07773,0.04318 -12.85192,-5.91372 -12.89701,-13.30512c-0.04509,-7.3914 5.65598,-13.41832 12.73371,-13.4615c7.07773,-0.04318 12.85192,5.91372 12.89701,13.30512z" fill="url(#color-4)" stroke-width="0"/><path d="M252.95749,144.18413c0.04509,7.3914 -5.65598,13.41832 -12.73371,13.4615c-7.07773,0.04318 -12.85192,-5.91372 -12.89701,-13.30512c-0.04509,-7.3914 5.65598,-13.41832 12.73371,-13.4615c7.07773,-0.04318 12.85192,5.91372 12.89701,13.30512zM252.67416,143.3062c-0.03369,-5.52275 -4.53807,-9.9725 -10.06082,-9.9388c-0.69723,0.00425 -1.37737,0.07977 -2.03354,0.21958c-0.07261,-0.00112 -0.1454,-0.00145 -0.21837,-0.001c-5.52275,0.03369 -9.9725,4.53807 -9.9388,10.06082c0.00937,1.53593 0.36452,2.98885 0.99119,4.28544c1.31672,3.37742 4.41523,5.85958 8.13404,6.29905c0.9751,0.30996 2.01473,0.47436 3.0932,0.46778c5.4863,-0.03347 9.91373,-4.47883 9.93889,-9.95163c0.065,-0.47081 0.09719,-0.95203 0.09421,-1.44124z" fill="url(#color-5)" stroke-width="0"/><path d="M245.49316,150.76296c-0.98807,0.15405 -1.14211,-0.83401 -1.14211,-0.83401l-0.04734,-0.30359c-0.19431,-1.25138 -0.28453,-2.49449 -0.37501,-3.75718c0,0 -0.07147,-0.99745 0.92598,-1.06891c0.99745,-0.07147 1.06892,0.92598 1.06892,0.92598c0.08651,1.20734 0.16889,2.39578 0.35623,3.592l0.04734,0.30359c0,0 0.15406,0.98807 -0.83401,1.14212z" fill="#191412" stroke-width="0.5"/><path d="M248.8659,145.25798c-0.36829,-1.30849 1.70814,-4.13433 1.70814,-4.13433c0,0 2.03653,2.44202 2.07385,4.08318c0.0397,1.74614 -3.33134,1.6523 -3.78199,0.05115z" fill="#191412" stroke-width="0.5"/><path d="M235.77059,145.02807c-0.27584,-1.38446 2.59603,-4.05527 2.59603,-4.05527c0,0 2.35166,2.49321 2.14913,4.16906c-0.21548,1.78304 -4.40764,1.58033 -4.74518,-0.11378z" data-paper-data="{&quot;index&quot;:null}" fill="#191412" stroke-width="0.5"/><g fill="#00ffcc" stroke-width="0.5"><path d="M241.7161,137.82844c-0.0024,-0.39455 0.31547,-0.71633 0.71002,-0.71874c0.39455,-0.0024 0.71633,0.31547 0.71874,0.71002c0.0024,0.39455 -0.31547,0.71633 -0.71002,0.71874c-0.39455,0.0024 -0.71633,-0.31547 -0.71874,-0.71002z"/><path d="M243.67416,134.96294c-0.0024,-0.39455 0.31547,-0.71634 0.71002,-0.71875c0.39455,-0.0024 0.71633,0.31548 0.71874,0.71003c0.0024,0.39455 -0.31547,0.71633 -0.71002,0.71874c-0.39455,0.0024 -0.71633,-0.31547 -0.71874,-0.71002z"/><path d="M245.66749,137.87751c-0.0024,-0.39455 0.31547,-0.71633 0.71002,-0.71874c0.39455,-0.0024 0.71633,0.31547 0.71874,0.71002c0.0024,0.39455 -0.31547,0.71633 -0.71002,0.71874c-0.39455,0.0024 -0.71633,-0.31547 -0.71874,-0.71002z"/></g><path d="M253.58322,143.87107c0.03679,6.0287 -5.11177,10.94751 -11.49963,10.98649c-6.38786,0.03897 -11.59604,-4.81665 -11.63282,-10.84535c-0.03679,-6.0287 5.11177,-10.94751 11.49963,-10.98649c6.38786,-0.03897 11.59604,4.81665 11.63282,10.84535z" fill="url(#color-6)" stroke-width="0"/></g><g><path d="M226.12338,227.23574l3.75904,-33.71008c0,0 6.75518,-2.18267 9.822,-2.18267c3.62872,0 0.6063,4.24407 0.6063,4.24407c0,0 -3.09204,0.08829 -3.39803,1.52409c-0.93579,4.39099 -2.78619,30.12458 -2.78619,30.12458z" fill="#343331" stroke="#000000" stroke-width="0" stroke-linecap="butt"/><path d="M241.75187,232.39489c0,0 -0.3857,1.94015 -1.2126,1.94015c-0.59276,0 -2.64411,0.01366 -4.70436,-0.06689c-1.25258,-0.04897 -1.90215,-0.61779 -2.83553,-0.76063c-1.17507,-0.17983 -2.93853,0.22047 -3.78777,0.02896c-1.56485,-0.35288 -2.37463,-0.77781 -2.37463,-0.77781c0,0 -0.26912,-1.02539 -0.2856,-1.5858c-0.02221,-0.755 0.16433,-2.53701 0.16433,-2.53701c0,0 5.93424,-0.11957 8.24914,0.08075c1.36979,0.11854 4.24057,0.6468 4.24057,0.6468c0,0 1.45975,0.6156 1.67337,1.04283c0.26162,0.52325 0.87307,1.98866 0.87307,1.98866z" data-paper-data="{&quot;index&quot;:null}" fill="#141415" stroke="#000000" stroke-width="0" stroke-linecap="butt"/><path d="M241.48097,231.76025c0,0 -0.38569,0 -1.21259,0c-0.24822,0 0.70239,1.60165 -2.61811,1.33311c-3.13563,-0.25359 -2.77648,-1.18823 -3.8809,-1.26883c-2.30937,-0.16854 -2.58766,0.59503 -3.58733,0.44204c-0.34815,-0.05328 -0.51271,-0.11454 -1.78458,-0.97035c-0.87471,-0.58857 -0.66566,-1.75122 -1.26542,-2.3793c-0.87609,-0.91746 -0.80847,-1.8858 -0.80847,-1.8858l-0.07637,-3.04773c0,0 0.48635,2.20682 1.32529,3.03123c0.75062,0.73761 2.3169,-0.01875 2.80058,-0.01889c0.84695,-0.00024 -0.68885,-3.26805 0.12091,-3.24981c0.43542,0.00981 3.72275,-0.23408 3.72275,-0.23408c0,0 0.12302,3.57988 0.35598,3.60004c1.36978,0.11854 4.60434,0.6468 4.60434,0.6468c0,0 1.45975,0.6156 1.67337,1.04283c0.26163,0.52325 0.63055,2.95873 0.63055,2.95873z" data-paper-data="{&quot;index&quot;:null}" fill="#252527" stroke="#000000" stroke-width="0" stroke-linecap="butt"/><path d="M235.46599,227.7303l-2.66771,1.09134" data-paper-data="{&quot;index&quot;:null}" fill="none" stroke="#ffffff" stroke-width="0.5" stroke-linecap="round"/><path d="M234.73843,229.18542l2.54644,-1.45511" data-paper-data="{&quot;index&quot;:null}" fill="none" stroke="#ffffff" stroke-width="0.5" stroke-linecap="round"/><path d="M238.37621,227.97282l-1.45512,1.45512" data-paper-data="{&quot;index&quot;:null}" fill="none" stroke="#ffffff" stroke-width="0.5" stroke-linecap="round"/><path d="M233.76835,224.69883l-2.18267,0.24252" data-paper-data="{&quot;index&quot;:null}" fill="none" stroke="#969696" stroke-width="0.5" stroke-linecap="round"/><path d="M234.01087,225.42638l-1.94015,0.36378" data-paper-data="{&quot;index&quot;:null}" fill="none" stroke="#969696" stroke-width="0.5" stroke-linecap="round"/></g><g><path d="M275.14823,180.06199c0,0 -1.5361,-1.96929 -4.0421,-3.42187c-0.60263,-0.34931 -2.47357,-1.63408 -3.09675,-1.98636c-1.47489,-0.83377 -2.97238,-1.60422 -3.86188,-2.13919c-1.91318,-1.15062 -11.21721,-6.83952 -11.21721,-6.83952c0,0 -5.01498,-3.15939 -4.60029,-3.86933c3.03312,-5.19259 7.06487,-0.77706 7.06487,-0.77706c0,0 4.26471,3.33231 9.07389,6.49134c3.61769,2.37637 7.73556,4.53906 9.50842,5.75515c2.0982,1.43926 4.5501,3.62121 4.5501,3.62121z" data-paper-data="{&quot;index&quot;:null}" fill="url(#color-7)" stroke="#000000" stroke-width="0" stroke-linecap="butt"/><path d="M283.78028,182.04264c-0.28665,0.31532 -2.1442,-1.34576 -3.04512,-1.34206c-0.47689,0.00197 3.35871,1.86012 2.33249,2.45673c-0.35232,0.20481 -2.77191,-1.68454 -3.54844,-1.81165c-0.4157,-0.06805 3.30632,2.73283 2.64752,3.15775c-0.39108,0.25223 -2.14886,-1.37953 -3.22563,-1.89599c-0.52458,-0.2516 -3.79285,-2.54543 -3.79285,-2.54543l3.37905,-3.16563c0,0 1.81088,1.40969 3.25752,2.68559c1.30167,1.14805 2.27151,2.15705 1.99548,2.4607z" data-paper-data="{&quot;index&quot;:null}" fill="#323a3a" stroke="#000000" stroke-width="0" stroke-linecap="butt"/><path d="M255.65502,161.51758l-2.56557,3.97482" fill="none" stroke="#00ffb0" stroke-width="1" stroke-linecap="round"/><path d="M256.85116,162.22731l-2.5482,4.12073" fill="none" stroke="#00ffb0" stroke-width="1" stroke-linecap="round"/><path d="M258.082,163.22887l-2.56557,3.97482" fill="none" stroke="#00ffb0" stroke-width="1" stroke-linecap="round"/></g><g stroke-width="0" stroke-linecap="butt"><path d="M229.6398,193.59143c0,0 0.16709,-5.5597 -0.35268,-10.94382c-0.35317,-3.65847 -1.40473,-6.95919 -1.56162,-9.45339c-0.29447,-4.68133 -0.2105,-13.38223 -0.2105,-13.38223c0,0 3.69178,-0.58477 5.4694,-0.21857c2.26281,0.46615 7.00656,2.78867 7.00656,2.78867c0,0 3.67689,-2.17061 5.59031,-2.58687c2.01891,-0.43921 6.22369,0.01677 6.22369,0.01677c0,0 -0.06905,9.21711 -0.22689,12.65629c-0.13965,3.04285 -0.88957,6.36811 -1.18346,10.87293c-0.3029,4.64296 -0.14784,10.42155 -0.14784,10.42155c0,0 -2.75697,-0.76932 -5.57187,-0.83754c-1.27833,-0.03098 -1.79126,1.00612 -2.99851,1.16532c-0.96496,0.12724 -2.63623,-0.61291 -3.56107,-0.64966c-0.69915,-0.02778 -2.04377,-0.5306 -2.53801,-0.53471c-0.99795,-0.0083 -1.61572,0.86529 -2.77345,1.02464c-1.34484,0.1851 -3.1641,-0.33939 -3.1641,-0.33939z" fill="url(#color-8)" stroke="#292e32"/><path d="M246.91518,166.62653c3.55914,-0.03151 3.40064,0.87953 3.40064,1.96449c0,1.08496 0.79843,2.00343 -3.40064,1.96449c-4.03819,-0.03744 -3.33404,1.01625 -3.40064,-1.96449c-0.05453,-2.44079 -0.63741,-1.92875 3.40064,-1.96449z" data-paper-data="{&quot;index&quot;:null}" fill="#c9ffe7" stroke="#000000"/></g><g stroke="none" stroke-width="0" stroke-linecap="butt"><path d="M270.66917,187.2814l-2.91703,-4.10051l9.02111,-6.41744l2.91703,4.10052z" fill="url(#color-9)"/><path d="M270.42032,183.17242c1.47851,1.26441 1.6521,3.48801 0.38769,4.96653c-1.26442,1.47853 -3.48802,1.65211 -4.96654,0.38769c-1.47853,-1.26441 -1.65211,-3.48802 -0.38769,-4.96653c1.26442,-1.47853 3.48802,-1.65211 4.96654,-0.38769z" fill="url(#color-10)"/><path d="M281.90402,181.81198l-5.38919,-7.58178l37.86956,-24.58804l7.74476,-2.60389l-4.79577,6.49393z" fill="url(#color-11)"/><path d="M281.42551,180.62168l-3.7911,-5.2041l31.68644,-20.44612l8.98046,-4.91375l-7.33615,6.71264z" fill="url(#color-12)"/><path d="M274.04667,166.75831c0,0 2.84476,7.48391 5.03174,10.77114c2.4012,3.60925 8.79288,10.00865 8.79288,10.00865c0,0 -8.53894,-5.22454 -10.8678,-8.72507c-2.27822,-3.42438 -2.95681,-12.05473 -2.95681,-12.05473z" fill="url(#color-13)"/></g><g><path d="M261.96696,183.94447c0,0 -4.25065,-1.21613 -7.39496,-2.57909c-2.65677,-1.15164 -8.40195,-2.92184 -13.7021,-5.35108c-7.04575,-3.2293 -7.65407,-2.49996 -11.62928,-6.81295c-3.97522,-4.31299 -7.16199,-8.03219 -2.17131,-9.92927c4.94061,0.13091 6.74286,4.76794 9.92186,6.5789c3.179,1.81096 6.80203,4.14565 9.48268,5.51022c1.24633,0.63443 3.4561,0.91445 5.46129,2.00653c0.84723,0.46142 3.65258,1.67572 4.48183,2.11543c3.44838,1.82849 6.80552,2.13681 6.80552,2.13681z" data-paper-data="{&quot;index&quot;:null}" fill="url(#color-14)" stroke="#000000" stroke-width="0" stroke-linecap="butt"/><path d="M267.36844,185.72079c-2.49469,-0.72615 -5.40148,-1.77634 -5.40148,-1.77634l1.25553,-6.32452c0,0 4.9576,2.0839 5.61899,2.50618c1.3576,0.86677 4.48273,1.68778 4.46894,2.3338c-0.0232,1.08826 -5.88644,-1.14293 -5.51367,-0.7094c0.69632,0.80985 4.58689,2.20864 4.60033,2.77374c0.03909,1.64605 -4.81816,-1.42757 -4.48275,-0.86995c0.63364,1.05343 3.86319,1.9687 3.70277,2.54044c-0.15447,0.55057 -2.00397,0.17943 -4.24868,-0.47395z" data-paper-data="{&quot;index&quot;:null}" fill="#323a3a" stroke="#000000" stroke-width="0" stroke-linecap="butt"/><path d="M232.7721,163.09928l-3.73361,5.81149" fill="none" stroke="#00ffb0" stroke-width="1" stroke-linecap="round"/><path d="M230.79692,170.45149l3.84767,-6.03964" fill="none" stroke="#00ffb0" stroke-width="1" stroke-linecap="round"/><path d="M236.40692,165.88208l-3.42017,5.93476" fill="none" stroke="#00ffb0" stroke-width="1" stroke-linecap="round"/></g></g></g></svg>