<svg version="1.1" xmlns="http://www.w3.org/2000/svg" xmlns:xlink="http://www.w3.org/1999/xlink" width="104.40987" height="105.02426" viewBox="0,0,104.40987,105.02426"><defs><linearGradient x1="241.71247" y1="155.68801" x2="241.34012" y2="162.52893" gradientUnits="userSpaceOnUse" id="color-1"><stop offset="0" stop-color="#c28b5f"/><stop offset="1" stop-color="#ffb87d"/></linearGradient><radialGradient cx="238.91349" cy="132.84994" r="13.11833" gradientUnits="userSpaceOnUse" id="color-2"><stop offset="0" stop-color="#ffd9ba"/><stop offset="1" stop-color="#ffb87d"/></radialGradient><radialGradient cx="233.42813" cy="132.89094" r="10.07074" gradientUnits="userSpaceOnUse" id="color-3"><stop offset="0" stop-color="#303030"/><stop offset="1" stop-color="#292929"/></radialGradient><radialGradient cx="250.0426" cy="130.90274" r="2.65078" gradientUnits="userSpaceOnUse" id="color-4"><stop offset="0" stop-color="#787878"/><stop offset="1" stop-color="#292929"/></radialGradient><radialGradient cx="238.76333" cy="132.2588" r="4.17314" gradientUnits="userSpaceOnUse" id="color-5"><stop offset="0" stop-color="#a7a7a7"/><stop offset="1" stop-color="#292929"/></radialGradient><linearGradient x1="257.89458" y1="191.54142" x2="269.36581" y2="188.15438" gradientUnits="userSpaceOnUse" id="color-6"><stop offset="0" stop-color="#242424"/><stop offset="1" stop-color="#373737"/></linearGradient><radialGradient cx="255.70594" cy="188.77712" r="3.52256" gradientUnits="userSpaceOnUse" id="color-7"><stop offset="0" stop-color="#bfbfbf"/><stop offset="1" stop-color="#9a9a9a"/></radialGradient><linearGradient x1="270.41237" y1="189.48284" x2="315.80936" y2="187.58657" gradientUnits="userSpaceOnUse" id="color-8"><stop offset="0" stop-color="#b2b2b2"/><stop offset="1" stop-color="#c4c4c4"/></linearGradient><linearGradient x1="270.7267" y1="189.8294" x2="300.43982" y2="188.58828" gradientUnits="userSpaceOnUse" id="color-9"><stop offset="0" stop-color="#cccccc"/><stop offset="1" stop-color="#d8d8d8"/></linearGradient><linearGradient x1="267.87629" y1="189.187" x2="270.31592" y2="189.12826" gradientUnits="userSpaceOnUse" id="color-10"><stop offset="0" stop-color="#b5b5b5"/><stop offset="1" stop-color="#c5c5c5"/></linearGradient></defs><g transform="translate(-218.87308,-129.30212)"><g data-paper-data="{&quot;isPaintingLayer&quot;:true}" fill-rule="nonzero" stroke-linejoin="miter" stroke-miterlimit="10" stroke-dasharray="" stroke-dashoffset="0" style="mix-blend-mode: normal"><g stroke-linecap="butt"><path d="M237.51769,162.32089l0.37235,-6.84092l7.64483,0.4161l-0.37235,6.84092z" fill="url(#color-1)" stroke="#000000" stroke-width="0"/><path d="M255.42988,143.99367c-0.42016,7.7195 -6.49003,13.66554 -13.55743,13.28087c-7.06739,-0.38467 -12.45605,-6.9544 -12.03589,-14.6739c0.42016,-7.7195 6.49003,-13.66553 13.55743,-13.28086c7.06739,0.38467 12.45605,6.95439 12.03589,14.67389z" fill="url(#color-2)" stroke="none" stroke-width="0"/><path d="M242.7441,144.67377c-0.58744,0.88287 -1.48416,0.30362 -1.48416,0.30362c-0.90325,-0.60721 -2.43965,-1.31027 -2.20489,-2.8201c0.19183,-1.23388 2.31282,-2.21754 3.39013,-1.92565c1.95429,0.52952 3.464,4.14512 0.29893,4.44213z" fill="#191412" stroke="none" stroke-width="0.5"/><path d="M246.86482,149.09117c0.17279,-0.45992 0.51653,-0.54311 0.76639,-0.53516c0.07953,-0.00059 0.16025,0.01037 0.2398,0.03398c-0.22884,-1.09574 0.02843,-2.48131 -0.26252,-3.54548c0,0 -0.21283,-0.79724 0.5844,-1.01005c0.79723,-0.21283 1.01005,0.58441 1.01005,0.58441c0.34778,1.32946 0.56854,2.95446 0.46485,4.3481c-0.03886,0.52225 0.19103,1.24328 -0.23049,1.55408c-0.43739,0.32252 -1.07943,-0.12682 -1.61914,-0.19024l-0.47113,-0.17699c-0.09763,-0.03668 -0.18423,-0.08988 -0.2578,-0.15523c-0.19331,-0.15853 -0.39723,-0.4475 -0.22444,-0.9074z" fill="#191412" stroke="none" stroke-width="0.5"/><path d="M253.22291,145.39957c-0.39253,0.96689 -0.94471,0.36383 -0.94471,0.36383c-0.5556,-0.63307 -1.5087,-1.35409 -1.32355,-2.98883c0.15129,-1.33595 1.51476,-2.44907 2.18797,-2.16046c1.22125,0.52358 2.08635,4.3877 0.08029,4.78544z" fill="#191412" stroke="none" stroke-width="0.5"/><g><path d="M236.11086,133.09426c-0.17052,0.00326 -0.60951,0.01836 -1.08658,0.0657c-0.53544,0.16929 -1.15821,0.33516 -1.64002,0.53095c-0.35264,0.86963 0.65488,1.85903 -0.83081,2.42164c-2.53382,0.95956 -1.56522,-2.15724 -0.67659,-3.09363c1.34709,-1.01212 3.2247,-1.00974 4.85489,-1.2024c2.24543,-0.2654 4.45099,-0.76471 6.65032,-0.74024c0.08848,-0.08005 0.20521,-0.12967 0.3339,-0.13198l0.58841,-0.01054c0.30022,-0.05626 0.62619,-0.1138 0.968,-0.16577c0.89391,-0.2101 1.95596,-0.27607 2.94259,-0.29746c0.48737,-0.05967 0.94088,-0.07131 1.31089,-0.01096c0.27463,-0.00046 0.53007,-0.00113 0.75844,-0.00524l0.62029,-0.01112c0.28251,-0.00506 0.51564,0.21986 0.52071,0.50237c0.00449,0.25145 -0.17316,0.46377 -0.41149,0.511l-0.33584,0.07345c0.13585,0.13194 0.25702,0.28037 0.36119,0.44688l0.24211,-0.10191l0.25473,0.60513c0.02743,0.06117 0.04323,0.12877 0.0445,0.20003c0.00506,0.28251 -0.21986,0.51564 -0.50235,0.5207c-0.08592,0.00153 -0.16727,-0.01819 -0.23903,-0.05434l-0.49139,-0.23479l0.00691,-0.01446l-0.04747,-0.00721c-0.34503,-0.24924 -0.70029,-0.4441 -1.05902,-0.58459c-0.55657,-0.06031 -1.13916,-0.1637 -1.73397,-0.25578c-1.02458,0.10096 -1.98619,0.66112 -2.71844,1.67951c0,0 -0.29958,0.41474 -0.71432,0.11514c-0.41473,-0.29958 -0.11514,-0.71433 -0.11514,-0.71433c0.06404,-0.08827 0.12972,-0.17388 0.197,-0.25681l-0.2897,0.06984c-0.03886,0.01022 -0.07953,0.016 -0.12149,0.01676c-0.28251,0.00506 -0.51564,-0.21986 -0.5207,-0.50236c-0.00257,-0.14298 0.05377,-0.27331 0.14668,-0.36783c-0.2445,-0.01717 -0.47636,-0.02052 -0.67625,0.01373c-1.3961,0.2393 -3.51112,0.19959 -5.52093,0.3611c-0.0062,0.24144 -0.18029,0.44251 -0.4114,0.48831l-0.6088,0.13313l-0.0043,-0.01967l-0.0076,0.0014z" fill="url(#color-3)" stroke="none" stroke-width="0.5"/><path d="M251.43444,130.4602c2.72239,-0.08831 2.69615,-0.04941 2.7786,1.79154c0.08246,1.84094 -1.02207,3.2968 -2.46704,3.25175c-1.44497,-0.04504 -2.6832,-1.57393 -2.76566,-3.41488c-0.08246,-1.84094 -0.09875,-1.54562 2.45409,-1.62842z" data-paper-data="{&quot;index&quot;:null}" fill="url(#color-4)" stroke="#000000" stroke-width="0"/><path d="M244.6385,132.65723c0.21318,2.012 -1.45469,3.83808 -3.72528,4.07865c-2.27057,0.24054 -4.28406,-1.19548 -4.49723,-3.20749c-0.21318,-2.012 -0.26184,-2.05081 4.04835,-2.31582c4.04174,-0.24852 3.96098,-0.56734 4.17415,1.44466z" fill="url(#color-5)" stroke="#000000" stroke-width="0"/></g></g><g stroke="#000000" stroke-width="0" stroke-linecap="butt"><path d="M266.76859,190.62137c-0.21905,0.03082 0.97363,3.48953 0.061,3.68325c-0.44888,0.09528 -0.67846,-2.27558 -1.51009,-2.90217c-0.4402,-0.33168 1.49415,3.91644 0.19936,3.75831c-0.4445,-0.05429 -1.05689,-3.34136 -1.69725,-4.00368c-0.34279,-0.35455 1.44087,4.87564 0.58508,4.81345c-0.50801,-0.03691 -0.8866,-3.07602 -1.57498,-4.31351c-0.33536,-0.60288 0.64152,3.70705 -0.00772,3.54489c-0.3974,-0.09927 -1.57719,-4.25896 -1.62862,-4.29643c-0.28898,-0.21074 -0.31955,2.49576 -0.76216,1.9559c-0.81579,-0.99497 -0.23749,-2.56829 0.1607,-4.00914c0.23265,-0.84182 -0.04346,-1.9561 -0.04346,-1.9561c0,0 -0.25899,-2.92143 -1.71406,-6.03651c-0.3499,-0.74909 -1.31873,-3.26263 -1.68581,-4.02891c-0.86877,-1.81354 -1.79551,-3.58351 -2.30061,-4.70737c-1.0864,-2.41729 -2.39075,-5.50819 -2.39075,-5.50819l5.36105,-2.30831c0,0 1.93566,4.38645 3.09073,6.95648c0.47008,1.04593 0.27356,2.05068 0.93745,3.69659c0.29761,0.73782 1.11739,4.06073 1.71421,6.06758c0.99369,3.34137 1.95578,5.26263 1.95578,5.26263c0,0 1.7142,4.26596 1.25016,4.33128z" data-paper-data="{&quot;index&quot;:null}" fill="#ffb77d"/><path d="M250.69255,160.49174c4.68596,-2.43744 6.33562,0.67605 7.0811,2.45471c0.74549,1.77868 2.11622,0.84381 -2.18895,3.0564c-3.63883,1.87013 -3.23197,1.33801 -3.97746,-0.44068c-0.74549,-1.77868 -3.35508,-3.80102 -0.9147,-5.07043z" data-paper-data="{&quot;index&quot;:null}" fill="#ffffff"/></g><path d="M226.12337,227.23573l3.75904,-33.71008c0,0 6.75518,-2.18267 9.822,-2.18267c3.62872,0 10.54956,2.18267 10.54956,2.18267l3.03149,33.71008h-7.63934c0,0 -1.32697,-25.53818 -2.03751,-29.57011c-0.20138,-1.1427 -3.2979,-2.07857 -3.2979,-2.07857c0,0 -3.09204,0.08829 -3.39803,1.52409c-0.93579,4.39099 -2.78619,30.12458 -2.78619,30.12458z" fill="#726f7c" stroke="#000000" stroke-width="0" stroke-linecap="butt"/><path d="M229.58,192.60629c0,0 0.469,-5.5424 0.24262,-10.94682c-0.15382,-3.67226 -1.02443,-7.02525 -1.04553,-9.52429c-0.0396,-4.69042 0.51712,-13.37389 0.51712,-13.37389c0,0 3.7181,-0.38327 5.47319,0.079c2.23413,0.58843 6.84464,3.16535 6.84464,3.16535c0,0 3.78943,-1.96756 5.72263,-2.27923c2.0398,-0.32884 6.21359,0.35498 6.21359,0.35498c0,0 -0.56988,9.19974 -0.9144,12.62525c-0.30482,3.03075 -1.23436,6.31036 -1.77264,10.79254c-0.55479,4.61964 -0.71402,10.3981 -0.71402,10.3981c0,0 -2.71109,-0.91802 -5.51813,-1.13912c-1.27477,-0.10041 -1.84329,0.90728 -3.0574,1.00063c-0.97045,0.07461 -2.59902,-0.75528 -3.5205,-0.84223c-0.6966,-0.06573 -2.01192,-0.64088 -2.50521,-0.67186c-0.99602,-0.06253 -1.66035,0.7762 -2.82504,0.8724c-1.35291,0.11173 -3.14098,-0.51085 -3.14098,-0.51085z" fill="#ffffff" stroke="#292e32" stroke-width="0" stroke-linecap="butt"/><g><path d="M259.69259,234.32551c-0.59276,0 -2.64411,0.01365 -4.70436,-0.0669c-1.25258,-0.04897 -1.90215,-0.61779 -2.83553,-0.76063c-1.17507,-0.17982 -2.93854,0.22047 -3.78778,0.02896c-1.56485,-0.35288 -2.37463,-0.77782 -2.37463,-0.77782c0,0 -0.26911,-1.0254 -0.2856,-1.5858c-0.02221,-0.75501 0.16433,-2.53701 0.16433,-2.53701c0,0 5.93425,-0.11957 8.24914,0.08076c1.36979,0.11854 4.24057,0.6468 4.24057,0.6468c0,0 1.45976,0.6156 1.67337,1.04283c0.26162,0.52325 0.87307,1.98865 0.87307,1.98865c0,0 -0.3857,1.94015 -1.21259,1.94015z" data-paper-data="{&quot;index&quot;:null}" fill="#141415" stroke="#000000" stroke-width="0" stroke-linecap="butt"/><path d="M259.4217,231.7507c-0.24822,0 0.7024,1.60165 -2.61811,1.33311c-3.13563,-0.25358 -2.77648,-1.18823 -3.8809,-1.26883c-2.30937,-0.16854 -2.58765,0.59503 -3.58732,0.44205c-0.34815,-0.05328 -0.51271,-0.11454 -1.78459,-0.97035c-0.87472,-0.58857 -0.66566,-1.75122 -1.26542,-2.3793c-0.87609,-0.91745 -0.80847,-1.8858 -0.80847,-1.8858l-0.07637,-3.04773c0,0 0.48635,2.20681 1.32529,3.03122c0.75062,0.73761 2.3169,-0.01875 2.80058,-0.01889c0.84696,-0.00024 -0.68885,-3.26804 0.12091,-3.2498c0.43542,0.00981 3.72275,-0.23409 3.72275,-0.23409c0,0 0.12302,3.57989 0.35598,3.60005c1.36979,0.11854 4.60434,0.6468 4.60434,0.6468c0,0 1.45976,0.6156 1.67338,1.04283c0.26162,0.52325 0.63055,2.95873 0.63055,2.95873c0,0 -0.3857,0 -1.2126,0z" data-paper-data="{&quot;index&quot;:null}" fill="#252527" stroke="#000000" stroke-width="0" stroke-linecap="butt"/><path d="M251.9516,228.8121l2.6677,-1.09133" fill="none" stroke="#ffffff" stroke-width="0.5" stroke-linecap="round"/><path d="M256.4382,227.72077l-2.54645,1.45511" fill="none" stroke="#ffffff" stroke-width="0.5" stroke-linecap="round"/><path d="M257.52954,227.96329l-1.45512,1.45511" fill="none" stroke="#ffffff" stroke-width="0.5" stroke-linecap="round"/><path d="M252.92167,224.68929l-2.18266,0.24252" fill="none" stroke="#969696" stroke-width="0.5" stroke-linecap="round"/><path d="M251.22405,225.78062l1.94015,-0.36378" fill="none" stroke="#969696" stroke-width="0.5" stroke-linecap="round"/></g><g data-paper-data="{&quot;index&quot;:null}"><path d="M218.87309,232.29247c0,0 0.61145,-1.46541 0.87307,-1.98866c0.21362,-0.42723 1.67337,-1.04283 1.67337,-1.04283c0,0 2.87078,-0.52826 4.24057,-0.6468c2.3149,-0.20032 8.24914,-0.08075 8.24914,-0.08075c0,0 0.18654,1.78201 0.16433,2.53701c-0.01648,0.56041 -0.2856,1.5858 -0.2856,1.5858c0,0 -0.80978,0.42493 -2.37463,0.77781c-0.84924,0.19151 -2.6127,-0.20879 -3.78777,-0.02896c-0.93338,0.14284 -1.58295,0.71166 -2.83553,0.76063c-2.06025,0.08055 -4.1116,0.06689 -4.70436,0.06689c-0.8269,0 -1.2126,-1.94015 -1.2126,-1.94015z" data-paper-data="{&quot;index&quot;:null}" fill="#141415" stroke="#000000" stroke-width="0" stroke-linecap="butt"/><path d="M219.14398,231.65781c0,0 0.36892,-2.43548 0.63055,-2.95873c0.21362,-0.42723 1.67337,-1.04283 1.67337,-1.04283c0,0 3.23456,-0.52826 4.60434,-0.6468c0.23296,-0.02016 0.35598,-3.60004 0.35598,-3.60004c0,0 3.28733,0.24389 3.72275,0.23408c0.80976,-0.01824 -0.72604,3.24957 0.12091,3.24981c0.48368,0.00014 2.04996,0.7565 2.80058,0.01889c0.83894,-0.82441 1.32529,-3.03123 1.32529,-3.03123l-0.07637,3.04773c0,0 0.06762,0.96834 -0.80847,1.8858c-0.59976,0.62808 -0.39071,1.79073 -1.26542,2.3793c-1.27187,0.85581 -1.43643,0.91707 -1.78458,0.97035c-0.99967,0.15299 -1.27796,-0.61058 -3.58733,-0.44204c-1.10442,0.0806 -0.74527,1.01524 -3.8809,1.26883c-3.3205,0.26854 -2.36989,-1.33311 -2.61811,-1.33311c-0.8269,0 -1.21259,0 -1.21259,0z" data-paper-data="{&quot;index&quot;:null}" fill="#252527" stroke="#000000" stroke-width="0" stroke-linecap="butt"/><path d="M227.82667,228.71921l-2.66771,-1.09134" fill="none" stroke="#ffffff" stroke-width="0.5" stroke-linecap="round"/><path d="M225.88652,229.08299l-2.54644,-1.45511" fill="none" stroke="#ffffff" stroke-width="0.5" stroke-linecap="round"/><path d="M223.70386,229.32551l-1.45512,-1.45512" fill="none" stroke="#ffffff" stroke-width="0.5" stroke-linecap="round"/><path d="M226.8566,224.5964l2.18267,0.24252" fill="none" stroke="#969696" stroke-width="0.5" stroke-linecap="round"/><path d="M226.61408,225.32395l1.94015,0.36378" fill="none" stroke="#969696" stroke-width="0.5" stroke-linecap="round"/></g><g stroke="none" stroke-width="0" stroke-linecap="butt"><path d="M258.20563,192.59491l-0.21195,-5.02775l11.06104,-0.46624l0.21195,5.02776z" fill="url(#color-6)"/><path d="M260.23567,189.01376c0.55088,1.86581 -0.51503,3.82497 -2.38084,4.37586c-1.86582,0.5509 -3.82497,-0.51503 -4.37586,-2.38085c-0.5509,-1.86583 0.51502,-3.82498 2.38085,-4.37586c1.86582,-0.5509 3.82497,0.51503 4.37586,2.38086z" fill="url(#color-7)"/><path d="M270.60649,194.12973l-0.38823,-9.29388l45.1517,0.01468l7.91299,2.03616l-7.55958,2.83252z" fill="url(#color-8)"/><path d="M270.85373,192.87092l-0.34361,-6.42936l37.71021,0.11903l10.20771,0.7725l-9.80896,1.63184z" fill="url(#color-9)"/><path d="M272.21956,177.22563c0,0 -1.69205,7.82549 -1.6492,11.77352c0.04706,4.33478 1.92012,13.18337 1.92012,13.18337c0,0 -4.31373,-9.03333 -4.35937,-13.23753c-0.04466,-4.11273 4.08849,-11.71937 4.08849,-11.71937z" fill="url(#color-10)"/></g><g stroke="#000000" stroke-width="0" stroke-linecap="butt"><path d="M249.1364,188.70162c0,0 -1.61479,-2.03042 -4.83888,-4.73831c-1.93645,-1.62637 -5.24576,-4.1152 -5.90985,-4.80787c-1.48146,-1.54522 -2.75392,-1.75927 -3.66588,-2.7996c-2.2408,-2.55626 -6.08717,-6.87588 -6.08717,-6.87588l5.92679,-5.45738c0,0 2.74683,2.97158 4.85442,5.3759c0.97991,1.11785 2.44281,3.03737 3.99119,4.90628c0.65423,0.78964 2.94413,3.09484 3.58919,3.85593c2.68234,3.16508 5.87429,4.79369 5.87429,4.79369c0,0 1.10899,0.83601 2.21675,0.93299c1.89597,0.16595 4.05407,0.17322 4.69608,1.60956c0.34834,0.77934 -2.77419,-0.40172 -2.70932,0.04332c0.01154,0.07917 4.06027,3.38082 3.93098,3.90707c-0.21117,0.85967 -4.55633,-2.2637 -4.07007,-1.58603c0.99807,1.39106 4.2518,3.21755 3.98338,3.84972c-0.45219,1.06497 -5.35918,-3.45016 -5.16229,-2.8752c0.36783,1.07404 3.7629,3.29538 3.55326,3.85846c-0.61072,1.64011 -4.29928,-2.61566 -4.18818,-1.93298c0.20987,1.28972 2.78839,2.63489 2.40451,3.13595c-0.78047,1.01873 -4.01741,-1.98309 -4.18675,-1.73154c-0.35878,0.5329 -4.20242,-3.46412 -4.20242,-3.46412z" fill="#ffb77d"/><path d="M233.5061,162.41567c1.58798,1.6999 2.4465,1.44425 -1.9154,5.02271c-5.16066,4.23377 -3.25308,2.98882 -4.84107,1.28892c-1.58798,-1.6999 -4.15781,-5.09375 1.49277,-9.68892c2.94274,-2.39309 3.67572,1.67738 5.26371,3.37729z" fill="#ffffff"/></g></g></g></svg>