<svg version="1.1" xmlns="http://www.w3.org/2000/svg" xmlns:xlink="http://www.w3.org/1999/xlink" width="44.83304" height="103.54714" viewBox="0,0,44.83304,103.54714"><defs><linearGradient x1="239.74788" y1="156.06832" x2="239.74788" y2="162.91938" gradientUnits="userSpaceOnUse" id="color-1"><stop offset="0" stop-color="#4f6d73"/><stop offset="1" stop-color="#86b9c2"/></linearGradient><radialGradient cx="235.71183" cy="134.47972" r="13.11833" gradientUnits="userSpaceOnUse" id="color-2"><stop offset="0" stop-color="#7bccb1"/><stop offset="1" stop-color="#618c94"/></radialGradient></defs><g transform="translate(-217.9945,-130.87668)"><g data-paper-data="{&quot;isPaintingLayer&quot;:true}" fill-rule="nonzero" stroke-linejoin="miter" stroke-miterlimit="10" stroke-dasharray="" stroke-dashoffset="0" style="mix-blend-mode: normal"><g><path d="M224.56856,226.77029l5.67555,-33.44081c0,0 6.86867,-1.79384 9.9305,-1.61892c3.62282,0.20696 0.36325,4.27174 0.36325,4.27174c0,0 -3.09204,-0.08821 -3.47942,1.3278c-1.18471,4.33047 -4.49979,29.91664 -4.49979,29.91664z" fill="#453d36" stroke="#000000" stroke-width="0" stroke-linecap="butt"/><path d="M239.76207,232.55514c0,0 -0.49572,1.91499 -1.32128,1.86783c-0.59179,-0.03381 -2.64059,-0.13717 -4.69289,-0.33509c-1.24775,-0.12033 -1.86381,-0.72527 -2.78753,-0.92111c-1.1629,-0.24656 -2.94632,0.05251 -3.78326,-0.18712c-1.54217,-0.44155 -2.3264,-0.91197 -2.3264,-0.91197c0,0 -0.2102,-1.03907 -0.19469,-1.59951c0.02088,-0.75504 0.30876,-2.52351 0.30876,-2.52351c0,0 5.9314,0.21908 8.23111,0.5511c1.3608,0.19647 4.19678,0.88761 4.19678,0.88761c0,0 1.42227,0.69786 1.61117,1.13657c0.23135,0.53732 0.75822,2.03522 0.75822,2.03522z" data-paper-data="{&quot;index&quot;:null}" fill="#141415" stroke="#000000" stroke-width="0" stroke-linecap="butt"/><path d="M239.52781,231.90608c0,0 -0.38506,-0.022 -1.21062,-0.06916c-0.24782,-0.01415 0.6099,1.6391 -2.68988,1.18162c-3.11606,-0.43202 -2.70419,-1.34465 -3.80221,-1.48811c-2.296,-0.29998 -2.61739,0.44647 -3.6067,0.23672c-0.34455,-0.07305 -0.50534,-0.1436 -1.72633,-1.07055c-0.83972,-0.6375 -0.5647,-1.78634 -1.12766,-2.4476c-0.82234,-0.96594 -0.69959,-1.92884 -0.69959,-1.92884l0.09758,-3.04712c0,0 0.35969,2.23096 1.15025,3.10188c0.70733,0.77922 2.3142,0.11343 2.7971,0.14087c0.84558,0.04807 -0.50134,-3.30201 0.30606,-3.23762c0.43415,0.03463 3.73004,-0.02138 3.73004,-0.02138c0,0 -0.08136,3.58106 0.15007,3.61448c1.36079,0.19647 4.55996,0.90836 4.55996,0.90836c0,0 1.42227,0.69785 1.61117,1.13657c0.23136,0.53732 0.46077,2.98988 0.46077,2.98988z" data-paper-data="{&quot;index&quot;:null}" fill="#252527" stroke="#000000" stroke-width="0" stroke-linecap="butt"/><path d="M231.02686,228.47704l2.72561,-0.93741" data-paper-data="{&quot;index&quot;:null}" fill="none" stroke="#ffffff" stroke-width="0.5" stroke-linecap="round"/><path d="M232.9431,228.95089l2.62529,-1.30751" data-paper-data="{&quot;index&quot;:null}" fill="none" stroke="#ffffff" stroke-width="0.5" stroke-linecap="round"/><path d="M235.10837,229.3175l1.53574,-1.36976" data-paper-data="{&quot;index&quot;:null}" fill="none" stroke="#ffffff" stroke-width="0.5" stroke-linecap="round"/><path d="M232.23049,224.41627l-2.19295,0.11764" data-paper-data="{&quot;index&quot;:null}" fill="none" stroke="#969696" stroke-width="0.5" stroke-linecap="round"/><path d="M232.43112,225.15647l-1.95774,0.25253" data-paper-data="{&quot;index&quot;:null}" fill="none" stroke="#969696" stroke-width="0.5" stroke-linecap="round"/></g><g><path d="M239.45001,191.91138c3.62347,-0.19517 10.65168,1.61211 10.65168,1.61211l4.8402,33.49823l-7.62828,0.41089c0,0 -2.69862,-25.42985 -3.62499,-29.41773c-0.26255,-1.13021 -3.40492,-1.89818 -3.40492,-1.89818c0,0 -3.89607,-4.04037 -0.83369,-4.20532z" fill="#453d36" stroke="#000000" stroke-width="0" stroke-linecap="butt"/><path d="M261.72107,233.75663c-0.5919,0.03188 -2.63955,0.15584 -4.70115,0.18622c-1.2534,0.01847 -1.93263,-0.51459 -2.87234,-0.60702c-1.18304,-0.11636 -2.92243,0.3782 -3.78074,0.23264c-1.58157,-0.2682 -2.41303,-0.64897 -2.41303,-0.64897c0,0 -0.32387,-1.00944 -0.37047,-1.56814c-0.06278,-0.75272 0.02764,-2.54218 0.02764,-2.54218c0,0 5.91923,-0.43857 8.24154,-0.36303c1.37418,0.04469 4.26922,0.41778 4.26922,0.41778c0,0 1.49076,0.5362 1.72704,0.95132c0.28938,0.50842 0.97877,1.93882 0.97877,1.93882c0,0 -0.28079,1.95808 -1.10649,2.00256z" data-paper-data="{&quot;index&quot;:null}" fill="#141415" stroke="#000000" stroke-width="0" stroke-linecap="butt"/><path d="M261.31208,231.20012c-0.24786,0.01335 0.78753,1.56155 -2.54262,1.47199c-3.14473,-0.08456 -2.83637,-1.03718 -3.94352,-1.05826c-2.31509,-0.04408 -2.5519,0.73334 -3.55835,0.63435c-0.35051,-0.03448 -0.51813,-0.08679 -1.8342,-0.87296c-0.90511,-0.54067 -0.75888,-1.71289 -1.39156,-2.3078c-0.92416,-0.869 -0.90872,-1.83958 -0.90872,-1.83958l-0.24018,-3.03921c0,0 0.60434,2.17746 1.4864,2.95555c0.78921,0.69617 2.31254,-0.14334 2.79551,-0.16949c0.84572,-0.04579 -0.86363,-3.22626 -0.05406,-3.2516c0.43532,-0.01362 3.70477,-0.43398 3.70477,-0.43398c0,0 0.31539,3.56809 0.54909,3.57569c1.37419,0.04469 4.63246,0.39822 4.63246,0.39822c0,0 1.49076,0.53619 1.72705,0.95131c0.28938,0.50842 0.78877,2.92054 0.78877,2.92054c0,0 -0.38514,0.02075 -1.21085,0.06522z" data-paper-data="{&quot;index&quot;:null}" fill="#252527" stroke="#000000" stroke-width="0" stroke-linecap="butt"/><path d="M256.29989,227.43432l-2.60515,1.23323" fill="none" stroke="#ffffff" stroke-width="0.5" stroke-linecap="round"/><path d="M258.11615,227.33649l-2.4645,1.58996" fill="none" stroke="#ffffff" stroke-width="0.5" stroke-linecap="round"/><path d="M257.84421,229.05123l1.37475,-1.53127" fill="none" stroke="#ffffff" stroke-width="0.5" stroke-linecap="round"/><path d="M252.27521,224.85809l2.16646,-0.35956" fill="none" stroke="#969696" stroke-width="0.5" stroke-linecap="round"/><path d="M254.72297,225.21198l-1.91778,0.4676" fill="none" stroke="#969696" stroke-width="0.5" stroke-linecap="round"/></g><path d="M218.09056,204.76181c-0.09653,-2.34681 -0.03414,-5.14007 -0.03414,-5.14007c0,0 -0.18259,-3.99258 0.07937,-7.07947c0.22135,-2.60826 1.38243,-8.15648 1.93693,-13.39783c0.73711,-6.96758 0.87188,-13.55542 0.87188,-13.55542l5.68155,1.46148c0,0 -1.01981,12.94928 -1.41673,15.63936c-0.18454,1.25072 -0.62244,3.25602 -0.98048,5.28881c-0.15127,0.85889 -0.38352,3.61253 -0.52137,4.44976c-0.57325,3.48157 0.12978,6.44698 0.12978,6.44698c0,0 -0.35728,4.84834 -0.52856,5.53672c-0.35156,1.41299 -0.15468,4.32732 -0.7122,4.50163c-0.93917,0.29366 -0.7166,-5.37312 -0.98067,-4.92881c-0.49331,0.82997 -0.57097,4.56664 -1.05131,4.74096c-1.39916,0.50773 -0.16493,-4.53976 -0.54609,-4.09171c-0.72008,0.84644 -0.57388,3.8774 -1.11,3.90467c-0.51626,0.02626 -0.73111,-1.66542 -0.81797,-3.77706z" data-paper-data="{&quot;index&quot;:null}" fill="#6b999c" stroke="#000000" stroke-width="0" stroke-linecap="butt"/><path d="M260.1431,208.86462c-0.53612,-0.02728 -0.38992,-3.05823 -1.11,-3.90467c-0.38116,-0.44805 0.85307,4.59944 -0.54609,4.09171c-0.48035,-0.17432 -0.55801,-3.91099 -1.05132,-4.74096c-0.26407,-0.44431 -0.0415,5.22247 -0.98067,4.92881c-0.55751,-0.17432 -0.36064,-3.08864 -0.7122,-4.50163c-0.17128,-0.68838 -0.52856,-5.53672 -0.52856,-5.53672c0,0 0.70303,-2.9654 0.12978,-6.44698c-0.13785,-0.83723 -0.37009,-3.59086 -0.52137,-4.44976c-0.35803,-2.03278 -0.79594,-4.03809 -0.98047,-5.28881c-0.39692,-2.69009 -1.41673,-15.63936 -1.41673,-15.63936l5.68155,-1.46148c0,0 0.13477,6.58784 0.87189,13.55542c0.55449,5.24135 1.71558,10.78958 1.93692,13.39783c0.26197,3.08689 0.07938,7.07947 0.07938,7.07947c0,0 0.06239,2.79326 -0.03414,5.14007c-0.08686,2.11164 -0.30171,3.80333 -0.81797,3.77707z" data-paper-data="{&quot;index&quot;:null}" fill="#6b999c" stroke="#000000" stroke-width="0" stroke-linecap="butt"/><path d="M227.93875,165.25251c-0.25412,1.96201 0.3786,2.38634 -4.33052,1.46542c-5.57146,-1.08955 -3.72183,-0.51344 -3.46771,-2.47545c0.25412,-1.96201 1.08683,-5.48542 7.16065,-4.27049c3.16316,0.63272 0.8917,3.3185 0.63758,5.28051z" fill="#374a50" stroke="#000000" stroke-width="0" stroke-linecap="butt"/><path d="M251.7067,160.16159c6.07382,-1.21493 6.90653,2.30848 7.16065,4.27049c0.25412,1.96201 2.10376,1.38589 -3.4677,2.47545c-4.70913,0.92092 -4.0764,0.49659 -4.33052,-1.46542c-0.25412,-1.96201 -2.5256,-4.64779 0.63757,-5.28051z" data-paper-data="{&quot;index&quot;:null}" fill="#374a50" stroke="#000000" stroke-width="0" stroke-linecap="butt"/><path d="M235.9198,162.91938v-6.85104h7.65615v6.85104z" fill="url(#color-1)" stroke="#000000" stroke-width="0" stroke-linecap="butt"/><path d="M229.6398,193.59142c0,0 0.16709,-5.5597 -0.35268,-10.94382c-0.35317,-3.65847 -1.40473,-6.95919 -1.56162,-9.45339c-0.29447,-4.68133 -0.2105,-13.38223 -0.2105,-13.38223c0,0 3.69178,-0.58477 5.4694,-0.21857c2.26281,0.46615 7.00656,2.78867 7.00656,2.78867c0,0 3.67689,-2.17061 5.59031,-2.58687c2.01891,-0.43921 6.22369,0.01677 6.22369,0.01677c0,0 -0.06905,9.21711 -0.22689,12.65629c-0.13965,3.04285 -0.88957,6.36811 -1.18346,10.87293c-0.3029,4.64296 -0.14784,10.42155 -0.14784,10.42155c0,0 -2.75697,-0.76932 -5.57187,-0.83754c-1.27833,-0.03098 -1.79126,1.00612 -2.99851,1.16532c-0.96496,0.12724 -2.63623,-0.61291 -3.56107,-0.64966c-0.69915,-0.02778 -2.04377,-0.5306 -2.53801,-0.53471c-0.99795,-0.0083 -1.61572,0.86529 -2.77345,1.02464c-1.34484,0.1851 -3.1641,-0.33939 -3.1641,-0.33939z" fill="#374a50" stroke="#292e32" stroke-width="0" stroke-linecap="butt"/><g stroke="none" stroke-linecap="butt"><path d="M252.80945,144.26025c0,7.39154 -5.73774,13.38356 -12.8156,13.38356c-7.07786,0 -12.8156,-5.99202 -12.8156,-13.38356c0,-7.39154 5.73774,-13.38356 12.8156,-13.38356c7.07786,0 12.8156,5.99202 12.8156,13.38356z" fill="url(#color-2)" stroke-width="0"/><path d="M245.74217,149.6655c-0.98899,0.14802 -1.137,-0.84096 -1.137,-0.84096l-0.04548,-0.30387c-0.18667,-1.25255 -0.2693,-2.49618 -0.35208,-3.75939c0,0 -0.06538,-0.99786 0.93248,-1.06324c0.99786,-0.06538 1.06325,0.93248 1.06325,0.93248c0.07914,1.20785 0.15427,2.39677 0.33431,3.59411l0.04548,0.30387c0,0 0.14803,0.98899 -0.84096,1.13701z" fill="#191412" stroke-width="0.5"/><path d="M248.53392,145.00054c-0.3603,-1.31071 1.73333,-4.12384 1.73333,-4.12384c0,0 2.02159,2.4544 2.0489,4.09576c0.02905,1.74635 -3.34136,1.63194 -3.78223,0.02808z" fill="#191412" stroke-width="0.5"/><path d="M235.95234,144.89559c-0.26739,-1.38612 2.62073,-4.03936 2.62073,-4.03936c0,0 2.33641,2.50751 2.12366,4.18209c-0.22636,1.78169 -4.4172,1.55341 -4.74439,-0.14273z" data-paper-data="{&quot;index&quot;:null}" fill="#191412" stroke-width="0.5"/><path d="M235.75965,153.85715c0,-0.41002 0.3231,-0.74242 0.72166,-0.74242c0.39855,0 0.72166,0.3324 0.72166,0.74242c0,0.41002 -0.32309,0.74242 -0.72166,0.74242c-0.39855,0 -0.72166,-0.3324 -0.72166,-0.74242z" fill="#00ffcc" stroke-width="0.5"/><path d="M235.02054,150.8917c0,-0.41002 0.32309,-0.74242 0.72165,-0.74242c0.39855,0 0.72166,0.33239 0.72166,0.74242c0,0.41002 -0.3231,0.74242 -0.72166,0.74242c-0.39855,0 -0.72165,-0.3324 -0.72165,-0.74242z" fill="#00ffcc" stroke-width="0.5"/><path d="M232.80322,152.10829c0,-0.41002 0.32309,-0.74242 0.72165,-0.74242c0.39855,0 0.72166,0.3324 0.72166,0.74242c0,0.41002 -0.3231,0.74242 -0.72166,0.74242c-0.39855,0 -0.72165,-0.33239 -0.72165,-0.74242z" fill="#00ffcc" stroke-width="0.5"/><path d="M232.06411,149.14284c0,-0.41002 0.3231,-0.74241 0.72166,-0.74241c0.39855,0 0.72166,0.33239 0.72166,0.74241c0,0.41002 -0.3231,0.74242 -0.72166,0.74242c-0.39855,0 -0.72166,-0.3324 -0.72166,-0.74242z" fill="#00ffcc" stroke-width="0.5"/><path d="M249.21595,153.71631c-0.21234,0 -0.38448,-0.33239 -0.38448,-0.74242c0,-0.41002 0.17214,-0.74242 0.38448,-0.74242c0.21234,0 0.38447,0.33239 0.38447,0.74242c0,0.41002 -0.17213,0.74242 -0.38447,0.74242z" fill="#00ffcc" stroke-width="0.5"/><path d="M249.60972,150.75086c-0.21234,0 -0.38448,-0.33239 -0.38448,-0.74242c0,-0.41002 0.17214,-0.74242 0.38448,-0.74242c0.21234,0 0.38448,0.33239 0.38448,0.74242c0,0.41002 -0.17214,0.74242 -0.38448,0.74242z" fill="#00ffcc" stroke-width="0.5"/><path d="M250.79103,151.96746c-0.21234,0 -0.38448,-0.3324 -0.38448,-0.74242c0,-0.41002 0.17214,-0.74241 0.38448,-0.74241c0.21234,0 0.38448,0.33239 0.38448,0.74241c0,0.41002 -0.17214,0.74242 -0.38448,0.74242z" fill="#00ffcc" stroke-width="0.5"/><path d="M251.1848,149.00201c-0.21234,0 -0.38448,-0.33239 -0.38448,-0.74241c0,-0.41002 0.17213,-0.74242 0.38448,-0.74242c0.21234,0 0.38448,0.3324 0.38448,0.74242c0,0.41002 -0.17214,0.74241 -0.38448,0.74241z" fill="#00ffcc" stroke-width="0.5"/><path d="M241.69142,137.42511c0,-0.39455 0.31984,-0.71439 0.71439,-0.71439c0.39455,0 0.71439,0.31984 0.71439,0.71439c0,0.39455 -0.31984,0.71439 -0.71439,0.71439c-0.39455,0 -0.71439,-0.31984 -0.71439,-0.71439z" fill="#00ffcc" stroke-width="0.5"/><path d="M243.66692,134.5716c0,-0.39455 0.31984,-0.7144 0.71439,-0.7144c0.39455,0 0.71439,0.31985 0.71439,0.7144c0,0.39455 -0.31984,0.71439 -0.71439,0.71439c-0.39455,0 -0.71439,-0.31984 -0.71439,-0.71439z" fill="#00ffcc" stroke-width="0.5"/><path d="M245.64243,137.49828c0,-0.39455 0.31984,-0.71439 0.71439,-0.71439c0.39455,0 0.71439,0.31984 0.71439,0.71439c0,0.39455 -0.31984,0.71439 -0.71439,0.71439c-0.39455,0 -0.71439,-0.31984 -0.71439,-0.71439z" fill="#00ffcc" stroke-width="0.5"/></g></g></g></svg>