<svg version="1.1" xmlns="http://www.w3.org/2000/svg" xmlns:xlink="http://www.w3.org/1999/xlink" width="330.80327" height="169.05303" viewBox="0,0,330.80327,169.05303"><defs><linearGradient x1="379.35901" y1="354.68428" x2="388.00454" y2="375.35114" gradientUnits="userSpaceOnUse" id="color-1"><stop offset="0" stop-color="#2f2f2f"/><stop offset="1" stop-color="#252525"/></linearGradient><linearGradient x1="379.38223" y1="355.13449" x2="387.89677" y2="375.48822" gradientUnits="userSpaceOnUse" id="color-2"><stop offset="0" stop-color="#2f2f2f"/><stop offset="1" stop-color="#252525"/></linearGradient><linearGradient x1="379.31674" y1="354.97792" x2="387.83129" y2="375.33164" gradientUnits="userSpaceOnUse" id="color-3"><stop offset="0" stop-color="#2f2f2f"/><stop offset="1" stop-color="#252525"/></linearGradient><linearGradient x1="253.36778" y1="382.33736" x2="253.58785" y2="405.51989" gradientUnits="userSpaceOnUse" id="color-4"><stop offset="0" stop-color="#2f2f2f"/><stop offset="1" stop-color="#252525"/></linearGradient><linearGradient x1="253.2143" y1="382.77789" x2="253.43104" y2="405.60918" gradientUnits="userSpaceOnUse" id="color-5"><stop offset="0" stop-color="#2f2f2f"/><stop offset="1" stop-color="#252525"/></linearGradient><linearGradient x1="253.21263" y1="382.60229" x2="253.42937" y2="405.43357" gradientUnits="userSpaceOnUse" id="color-6"><stop offset="0" stop-color="#2f2f2f"/><stop offset="1" stop-color="#252525"/></linearGradient><linearGradient x1="279.32109" y1="381.54057" x2="280.59831" y2="404.68896" gradientUnits="userSpaceOnUse" id="color-7"><stop offset="0" stop-color="#2f2f2f"/><stop offset="1" stop-color="#252525"/></linearGradient><linearGradient x1="279.18787" y1="381.98768" x2="280.44574" y2="404.78533" gradientUnits="userSpaceOnUse" id="color-8"><stop offset="0" stop-color="#2f2f2f"/><stop offset="1" stop-color="#252525"/></linearGradient><linearGradient x1="279.1782" y1="381.81231" x2="280.43607" y2="404.60998" gradientUnits="userSpaceOnUse" id="color-9"><stop offset="0" stop-color="#2f2f2f"/><stop offset="1" stop-color="#252525"/></linearGradient><linearGradient x1="304.75589" y1="378.04875" x2="309.2719" y2="400.78824" gradientUnits="userSpaceOnUse" id="color-10"><stop offset="0" stop-color="#2f2f2f"/><stop offset="1" stop-color="#252525"/></linearGradient><linearGradient x1="304.6868" y1="378.51013" x2="309.13438" y2="400.90509" gradientUnits="userSpaceOnUse" id="color-11"><stop offset="0" stop-color="#2f2f2f"/><stop offset="1" stop-color="#252525"/></linearGradient><linearGradient x1="304.65259" y1="378.33787" x2="309.10016" y2="400.73281" gradientUnits="userSpaceOnUse" id="color-12"><stop offset="0" stop-color="#2f2f2f"/><stop offset="1" stop-color="#252525"/></linearGradient><linearGradient x1="329.76242" y1="371.79696" x2="336.08546" y2="394.10161" gradientUnits="userSpaceOnUse" id="color-13"><stop offset="0" stop-color="#2f2f2f"/><stop offset="1" stop-color="#252525"/></linearGradient><linearGradient x1="329.73049" y1="372.26238" x2="335.95775" y2="394.22909" gradientUnits="userSpaceOnUse" id="color-14"><stop offset="0" stop-color="#2f2f2f"/><stop offset="1" stop-color="#252525"/></linearGradient><linearGradient x1="329.68259" y1="372.09341" x2="335.90986" y2="394.06013" gradientUnits="userSpaceOnUse" id="color-15"><stop offset="0" stop-color="#2f2f2f"/><stop offset="1" stop-color="#252525"/></linearGradient><linearGradient x1="355.44082" y1="363.70555" x2="362.89063" y2="385.65955" gradientUnits="userSpaceOnUse" id="color-16"><stop offset="0" stop-color="#2f2f2f"/><stop offset="1" stop-color="#252525"/></linearGradient><linearGradient x1="355.43263" y1="364.17198" x2="362.76956" y2="385.79338" gradientUnits="userSpaceOnUse" id="color-17"><stop offset="0" stop-color="#2f2f2f"/><stop offset="1" stop-color="#252525"/></linearGradient><linearGradient x1="355.37619" y1="364.00567" x2="362.71312" y2="385.62705" gradientUnits="userSpaceOnUse" id="color-18"><stop offset="0" stop-color="#2f2f2f"/><stop offset="1" stop-color="#252525"/></linearGradient><linearGradient x1="227.39408" y1="382.33736" x2="227.17399" y2="405.51989" gradientUnits="userSpaceOnUse" id="color-19"><stop offset="0" stop-color="#2f2f2f"/><stop offset="1" stop-color="#252525"/></linearGradient><linearGradient x1="227.54754" y1="382.77793" x2="227.33082" y2="405.60918" gradientUnits="userSpaceOnUse" id="color-20"><stop offset="0" stop-color="#2f2f2f"/><stop offset="1" stop-color="#252525"/></linearGradient><linearGradient x1="227.54921" y1="382.60229" x2="227.33249" y2="405.4336" gradientUnits="userSpaceOnUse" id="color-21"><stop offset="0" stop-color="#2f2f2f"/><stop offset="1" stop-color="#252525"/></linearGradient><linearGradient x1="201.44077" y1="381.54057" x2="200.16353" y2="404.68896" gradientUnits="userSpaceOnUse" id="color-22"><stop offset="0" stop-color="#2f2f2f"/><stop offset="1" stop-color="#252525"/></linearGradient><linearGradient x1="201.57397" y1="381.98768" x2="200.3161" y2="404.78532" gradientUnits="userSpaceOnUse" id="color-23"><stop offset="0" stop-color="#2f2f2f"/><stop offset="1" stop-color="#252525"/></linearGradient><linearGradient x1="201.58364" y1="381.8123" x2="200.32579" y2="404.60998" gradientUnits="userSpaceOnUse" id="color-24"><stop offset="0" stop-color="#2f2f2f"/><stop offset="1" stop-color="#252525"/></linearGradient><linearGradient x1="176.00594" y1="378.04875" x2="171.48994" y2="400.78824" gradientUnits="userSpaceOnUse" id="color-25"><stop offset="0" stop-color="#2f2f2f"/><stop offset="1" stop-color="#252525"/></linearGradient><linearGradient x1="176.07505" y1="378.51015" x2="171.62746" y2="400.90509" gradientUnits="userSpaceOnUse" id="color-26"><stop offset="0" stop-color="#2f2f2f"/><stop offset="1" stop-color="#252525"/></linearGradient><linearGradient x1="176.10925" y1="378.33787" x2="171.66167" y2="400.73283" gradientUnits="userSpaceOnUse" id="color-27"><stop offset="0" stop-color="#2f2f2f"/><stop offset="1" stop-color="#252525"/></linearGradient><linearGradient x1="150.99944" y1="371.79696" x2="144.67638" y2="394.10161" gradientUnits="userSpaceOnUse" id="color-28"><stop offset="0" stop-color="#2f2f2f"/><stop offset="1" stop-color="#252525"/></linearGradient><linearGradient x1="151.03134" y1="372.2624" x2="144.80408" y2="394.22909" gradientUnits="userSpaceOnUse" id="color-29"><stop offset="0" stop-color="#2f2f2f"/><stop offset="1" stop-color="#252525"/></linearGradient><linearGradient x1="151.07924" y1="372.09341" x2="144.85199" y2="394.06013" gradientUnits="userSpaceOnUse" id="color-30"><stop offset="0" stop-color="#2f2f2f"/><stop offset="1" stop-color="#252525"/></linearGradient><linearGradient x1="125.32102" y1="363.70555" x2="117.87121" y2="385.65955" gradientUnits="userSpaceOnUse" id="color-31"><stop offset="0" stop-color="#2f2f2f"/><stop offset="1" stop-color="#252525"/></linearGradient><linearGradient x1="125.32921" y1="364.17198" x2="117.99228" y2="385.79338" gradientUnits="userSpaceOnUse" id="color-32"><stop offset="0" stop-color="#2f2f2f"/><stop offset="1" stop-color="#252525"/></linearGradient><linearGradient x1="125.38565" y1="364.00569" x2="118.04872" y2="385.62707" gradientUnits="userSpaceOnUse" id="color-33"><stop offset="0" stop-color="#2f2f2f"/><stop offset="1" stop-color="#252525"/></linearGradient><linearGradient x1="101.40283" y1="354.68427" x2="92.7573" y2="375.35113" gradientUnits="userSpaceOnUse" id="color-34"><stop offset="0" stop-color="#2f2f2f"/><stop offset="1" stop-color="#252525"/></linearGradient><linearGradient x1="101.37961" y1="355.13449" x2="92.86509" y2="375.48822" gradientUnits="userSpaceOnUse" id="color-35"><stop offset="0" stop-color="#2f2f2f"/><stop offset="1" stop-color="#252525"/></linearGradient><linearGradient x1="101.4451" y1="354.97792" x2="92.93055" y2="375.33164" gradientUnits="userSpaceOnUse" id="color-36"><stop offset="0" stop-color="#2f2f2f"/><stop offset="1" stop-color="#252525"/></linearGradient><linearGradient x1="392.10237" y1="282.95554" x2="94.91302" y2="282.83268" gradientUnits="userSpaceOnUse" id="color-37"><stop offset="0" stop-color="#b38c23"/><stop offset="1" stop-color="#ffec8c"/></linearGradient><linearGradient x1="244.54423" y1="314.83918" x2="242.50167" y2="250.78103" gradientUnits="userSpaceOnUse" id="color-38"><stop offset="0" stop-color="#1f1f1f"/><stop offset="1" stop-color="#0c0c0c"/></linearGradient><linearGradient x1="388.73987" y1="344.10122" x2="91.55048" y2="343.97942" gradientUnits="userSpaceOnUse" id="color-39"><stop offset="0" stop-color="#b38c23"/><stop offset="1" stop-color="#ffec8c"/></linearGradient><linearGradient x1="241.18168" y1="375.73496" x2="239.13919" y2="312.17902" gradientUnits="userSpaceOnUse" id="color-40"><stop offset="0" stop-color="#1f1f1f"/><stop offset="1" stop-color="#0c0c0c"/></linearGradient><linearGradient x1="380.24073" y1="343.92695" x2="101.55042" y2="343.87875" gradientUnits="userSpaceOnUse" id="color-41"><stop offset="0" stop-color="#242320"/><stop offset="1" stop-color="#1d1d1b"/></linearGradient><linearGradient x1="241.86756" y1="356.44367" x2="239.95221" y2="331.29607" gradientUnits="userSpaceOnUse" id="color-42"><stop offset="0" stop-color="#1f1f1f"/><stop offset="1" stop-color="#0c0c0c"/></linearGradient><linearGradient x1="380.74073" y1="285.42693" x2="102.05042" y2="285.37874" gradientUnits="userSpaceOnUse" id="color-43"><stop offset="0" stop-color="#242320"/><stop offset="1" stop-color="#1d1d1b"/></linearGradient><linearGradient x1="242.36756" y1="297.94368" x2="240.45221" y2="272.79607" gradientUnits="userSpaceOnUse" id="color-44"><stop offset="0" stop-color="#1f1f1f"/><stop offset="1" stop-color="#0c0c0c"/></linearGradient><linearGradient x1="220.19263" y1="311.4568" x2="224.1706" y2="311.4568" gradientUnits="userSpaceOnUse" id="color-45"><stop offset="0" stop-color="#4f4f4f"/><stop offset="1" stop-color="#000000"/></linearGradient><linearGradient x1="245.38648" y1="310.7938" x2="249.36446" y2="310.7938" gradientUnits="userSpaceOnUse" id="color-46"><stop offset="0" stop-color="#4f4f4f"/><stop offset="1" stop-color="#000000"/></linearGradient><linearGradient x1="232.78955" y1="311.4568" x2="236.76752" y2="311.4568" gradientUnits="userSpaceOnUse" id="color-47"><stop offset="0" stop-color="#4f4f4f"/><stop offset="1" stop-color="#000000"/></linearGradient><linearGradient x1="257.9834" y1="310.7938" x2="261.96138" y2="310.7938" gradientUnits="userSpaceOnUse" id="color-48"><stop offset="0" stop-color="#4f4f4f"/><stop offset="1" stop-color="#000000"/></linearGradient><linearGradient x1="240.76746" y1="236.54933" x2="240.76746" y2="337.9336" gradientUnits="userSpaceOnUse" id="color-49"><stop offset="0" stop-color="#989898"/><stop offset="1" stop-color="#5b5b5b"/></linearGradient><radialGradient cx="242.38094" cy="240.30439" r="147.25" gradientUnits="userSpaceOnUse" id="color-50"><stop offset="0" stop-color="#1d003f"/><stop offset="1" stop-color="#0e002e"/></radialGradient><linearGradient x1="241.077" y1="242.59921" x2="241.077" y2="264.47806" gradientUnits="userSpaceOnUse" id="color-51"><stop offset="0" stop-color="#ffde80"/><stop offset="1" stop-color="#ffbd00"/></linearGradient></defs><g transform="translate(-74.31349,-237.85439)"><g data-paper-data="{&quot;isPaintingLayer&quot;:true}" fill-rule="nonzero" stroke-linejoin="miter" stroke-miterlimit="10" stroke-dasharray="" stroke-dashoffset="0" style="mix-blend-mode: normal"><g fill="none" stroke-width="2.5"><path d="M367.55393,359.62269l23.61018,-9.87681l8.64553,20.66687l-23.61016,9.87681z" stroke="url(#color-1)" stroke-linecap="butt"/><path d="M399.36457,370.69092l-31.45014,-10.75913" stroke="url(#color-2)" stroke-linecap="round"/><path d="M391.12183,350.03953l-15.09564,30.23054" stroke="url(#color-3)" stroke-linecap="round"/></g><g fill="none" stroke-width="2.5"><path d="M240.1257,382.46305l26.48416,-0.25142l0.22008,23.18256l-26.48416,0.25142z" stroke="url(#color-4)" stroke-linecap="butt"/><path d="M266.29476,405.48711l-25.94419,-22.58707" stroke="url(#color-5)" stroke-linecap="round"/><path d="M240.18728,405.55931l26.26741,-23.08273" stroke="url(#color-6)" stroke-linecap="round"/></g><g fill="none" stroke-width="2.5"><path d="M266.09853,382.27013l26.44512,-1.45912l1.27722,23.14839l-26.44512,1.45912z" stroke="url(#color-7)" stroke-linecap="butt"/><path d="M293.2905,404.07662l-26.94741,-21.38023" stroke="url(#color-8)" stroke-linecap="round"/><path d="M267.21349,405.33955l25.18725,-24.25679" stroke="url(#color-9)" stroke-linecap="round"/></g><g fill="none" stroke-width="2.5"><path d="M291.76688,380.62835l25.97801,-5.15918l4.51601,22.73951l-25.97801,5.15918z" stroke="url(#color-10)" stroke-linecap="butt"/><path d="M292.06891,381.01599l29.68335,17.38321" stroke="url(#color-11)" stroke-linecap="round"/><path d="M296.11118,403.31241l21.5304,-27.55413" stroke="url(#color-12)" stroke-linecap="round"/></g><g fill="none" stroke-width="2.5"><path d="M317.0218,375.40871l25.48123,-7.22357l6.32306,22.30466l-25.48123,7.22357z" stroke="url(#color-13)" stroke-linecap="butt"/><path d="M348.33435,390.72052l-30.98045,-14.94955" stroke="url(#color-14)" stroke-linecap="round"/><path d="M323.16922,397.67191l19.254,-29.19029" stroke="url(#color-15)" stroke-linecap="round"/></g><g fill="none" stroke-width="2.5"><path d="M342.90049,367.96094l25.08067,-8.5108l7.44981,21.95403l-25.08067,8.5108z" stroke="url(#color-16)" stroke-linecap="butt"/><path d="M343.25059,368.3058l31.70101,13.35378" stroke="url(#color-17)" stroke-linecap="round"/><path d="M367.91652,359.75027l-17.74373,30.13218" stroke="url(#color-18)" stroke-linecap="round"/></g><g data-paper-data="{&quot;index&quot;:null}" fill="none" stroke-width="2.5"><path d="M240.41608,405.64561l-26.48416,-0.25142l0.22008,-23.18256l26.48416,0.25142z" stroke="url(#color-19)" stroke-linecap="butt"/><path d="M214.46708,405.4871l25.94419,-22.58707" stroke="url(#color-20)" stroke-linecap="round"/><path d="M214.30714,382.47657l26.26741,23.08272" stroke="url(#color-21)" stroke-linecap="round"/></g><g data-paper-data="{&quot;index&quot;:null}" fill="none" stroke-width="2.5"><path d="M213.38611,405.41852l-26.44512,-1.45912l1.27721,-23.1484l26.44512,1.45912z" stroke="url(#color-22)" stroke-linecap="butt"/><path d="M214.41875,382.69639l-26.94741,21.38023" stroke="url(#color-23)" stroke-linecap="round"/><path d="M213.54835,405.3395l-25.18725,-24.25677" stroke="url(#color-24)" stroke-linecap="round"/></g><g data-paper-data="{&quot;index&quot;:null}" fill="none" stroke-width="2.5"><path d="M184.47894,403.36786l-25.97801,-5.15916l4.51601,-22.73951l25.97801,5.15918z" stroke="url(#color-25)" stroke-linecap="butt"/><path d="M188.69293,381.01601l-29.68335,17.38321" stroke="url(#color-26)" stroke-linecap="round"/><path d="M163.12026,375.75829l21.5304,27.55413" stroke="url(#color-27)" stroke-linecap="round"/></g><g data-paper-data="{&quot;index&quot;:null}" fill="none" stroke-width="2.5"><path d="M157.417,397.71341l-25.48123,-7.22357l6.32305,-22.30466l25.48123,7.22355z" stroke="url(#color-28)" stroke-linecap="butt"/><path d="M132.4275,390.7205l30.98045,-14.94955" stroke="url(#color-29)" stroke-linecap="round"/><path d="M157.59263,397.67191l-19.254,-29.19029" stroke="url(#color-30)" stroke-linecap="round"/></g><g data-paper-data="{&quot;index&quot;:null}" fill="none" stroke-width="2.5"><path d="M130.41153,389.91498l-25.08067,-8.5108l7.44981,-21.95403l25.08067,8.5108z" stroke="url(#color-31)" stroke-linecap="butt"/><path d="M137.51125,368.30581l-31.70101,13.35377" stroke="url(#color-32)" stroke-linecap="round"/><path d="M112.84534,359.75027l17.74373,30.1322" stroke="url(#color-33)" stroke-linecap="round"/></g><g data-paper-data="{&quot;index&quot;:null}" fill="none" stroke-width="2.5"><path d="M104.56238,380.28956l-23.61018,-9.87681l8.64553,-20.66687l23.61016,9.87681z" stroke="url(#color-34)" stroke-linecap="butt"/><path d="M112.84743,359.93179l-31.45014,10.75913" stroke="url(#color-35)" stroke-linecap="round"/><path d="M104.73567,380.27007l-15.09564,-30.23056" stroke="url(#color-36)" stroke-linecap="round"/></g><path d="M76.07615,359.22933l0.34835,-4.20033c0,0 101.09303,36.28825 165.70409,36.28825c64.37671,0 161.67346,-41.10581 161.67346,-41.10581l0.69669,4.47285c0,0 -68.54831,36.25746 -162.79835,41.25746c-94.14428,-5.09712 -165.62424,-36.71242 -165.62424,-36.71242z" fill="#3e3e3e" stroke="#000000" stroke-width="1" stroke-linecap="butt"/><path d="M392.10247,282.95554c-0.96876,30.30027 -67.54689,31.83699 -149.6135,31.8031c-82.06662,-0.03389 -147.87539,-1.04339 -147.57589,-31.92591c0.32743,-33.76169 67.54689,-31.83699 149.6135,-31.8031c82.06662,0.03389 148.69236,-2.99328 147.57589,31.92591z" fill="url(#color-37)" stroke="url(#color-38)" stroke-width="3" stroke-linecap="butt"/><path d="M388.73987,344.10126c-0.96876,30.06274 -67.54689,31.58742 -149.6135,31.55379c-82.0666,-0.03366 -147.87539,-1.03521 -147.57589,-31.67564c0.32745,-33.49705 67.54689,-31.58742 149.6135,-31.55379c82.0666,0.03366 148.69236,-2.96981 147.57589,31.67564z" fill="url(#color-39)" stroke="url(#color-40)" stroke-width="3" stroke-linecap="butt"/><path d="M380.24073,343.92696c-0.90846,11.89512 -63.34232,12.4984 -140.30054,12.48509c-76.95822,-0.01332 -138.67063,-0.40961 -138.38977,-12.53331c0.30707,-13.254 63.34232,-12.4984 140.30054,-12.48509c76.95822,0.01332 139.43674,-1.17508 138.38977,12.53331z" fill="url(#color-41)" stroke="url(#color-42)" stroke-width="3" stroke-linecap="butt"/><path d="M380.74073,285.42696c-0.90846,11.89512 -63.34231,12.4984 -140.30054,12.4851c-76.95822,-0.01332 -138.67063,-0.40961 -138.38977,-12.53331c0.30706,-13.254 63.34232,-12.4984 140.30055,-12.48509c76.95822,0.01332 139.43674,-1.17508 138.38977,12.53331z" fill="url(#color-43)" stroke="url(#color-44)" stroke-width="3" stroke-linecap="butt"/><path d="M222.51312,372.45242l-0.66299,-121.99125" fill="none" stroke="url(#color-45)" stroke-width="3" stroke-linecap="round"/><path d="M247.04395,249.79817l0.66301,121.99127" fill="none" stroke="url(#color-46)" stroke-width="3" stroke-linecap="round"/><path d="M234.44703,250.46117l0.66301,121.99127" fill="none" stroke="url(#color-47)" stroke-width="3" stroke-linecap="round"/><path d="M260.30389,371.78944l-0.66301,-121.99127" fill="none" stroke="url(#color-48)" stroke-width="3" stroke-linecap="round"/><path d="M75.50126,354.9336l20.01346,-115.73229l145.84459,1.51607l0.34531,22.91175l-146.7462,-1.21989c0,0 14.15913,114.45468 154.07455,110.71725c115.13965,-3.07563 139.47285,-108.77399 139.47285,-108.77399l-146.73172,-0.55503l-0.04135,-22.66239l148.05869,-1.77078l14.24221,110.56928c0,0 -83.27858,41.03969 -158.31566,41.03969c-75.14025,0 -170.21672,-36.03967 -170.21672,-36.03967z" fill="url(#color-49)" stroke="#000000" stroke-width="2" stroke-linecap="butt"/><path d="M95.13094,242.25439v-3.9h294.5v3.9z" fill="url(#color-50)" stroke="#ffffff" stroke-width="1" stroke-linecap="butt"/><path d="M241.077,264.47806c-6.22478,0 -11.27094,-4.89774 -11.27094,-10.93943c0,-6.04169 5.04618,-10.93943 11.27094,-10.93943c6.22478,0 11.27094,4.89774 11.27094,10.93943c0,6.04169 -5.04618,10.93943 -11.27094,10.93943z" fill="url(#color-51)" stroke="#000000" stroke-width="2" stroke-linecap="butt"/></g></g></svg>