<svg version="1.1" xmlns="http://www.w3.org/2000/svg" xmlns:xlink="http://www.w3.org/1999/xlink" width="80.77644" height="79.22055" viewBox="0,0,80.77644,79.22055"><defs><radialGradient cx="234.44863" cy="216.96771" r="22.57159" gradientUnits="userSpaceOnUse" id="color-1"><stop offset="0" stop-color="#3c3c3c"/><stop offset="1" stop-color="#939393"/></radialGradient><linearGradient x1="227.82895" y1="197.67124" x2="231.03589" y2="203.72537" gradientUnits="userSpaceOnUse" id="color-2"><stop offset="0" stop-color="#696969"/><stop offset="1" stop-color="#a0a0a0"/></linearGradient><radialGradient cx="211.41085" cy="181.54498" r="13.11833" gradientUnits="userSpaceOnUse" id="color-3"><stop offset="0" stop-color="#dcdcdc"/><stop offset="1" stop-color="#a0a0a0"/></radialGradient><radialGradient cx="220.77087" cy="183.97165" r="9.45284" gradientUnits="userSpaceOnUse" id="color-4"><stop offset="0" stop-color="#c5dfff"/><stop offset="1" stop-color="#219cff"/></radialGradient><radialGradient cx="206.57235" cy="185.92296" r="10.07074" gradientUnits="userSpaceOnUse" id="color-5"><stop offset="0" stop-color="#303030"/><stop offset="1" stop-color="#292929"/></radialGradient><radialGradient cx="217.83562" cy="173.54828" r="2.65078" gradientUnits="userSpaceOnUse" id="color-6"><stop offset="0" stop-color="#787878"/><stop offset="1" stop-color="#292929"/></radialGradient><radialGradient cx="210.1933" cy="181.954" r="4.17314" gradientUnits="userSpaceOnUse" id="color-7"><stop offset="0" stop-color="#a7a7a7"/><stop offset="1" stop-color="#292929"/></radialGradient></defs><g transform="translate(-205.481,-170.87129)"><g data-paper-data="{&quot;isPaintingLayer&quot;:true}" fill-rule="nonzero" stroke-linejoin="miter" stroke-miterlimit="10" stroke-dasharray="" stroke-dashoffset="0" style="mix-blend-mode: normal"><path d="M238.47577,225.45125c0,0 1.06946,-3.03774 1.0447,-6.7746c-0.00596,-0.89862 0.1769,-3.82722 0.16177,-4.7503c-0.03582,-2.18469 -0.14871,-4.35015 -0.138,-5.68997c0.02299,-2.88173 0.1362,-6.53076 0.1362,-6.53076c0,0 0.40006,-7.14185 1.56865,-7.24581c6.83432,-0.608 4.77705,7.19567 4.77705,7.19567c0,0 -0.07705,5.21418 -0.10149,8.27802c-0.00995,1.2469 -0.66002,2.17105 -0.75062,4.1012c-0.0406,0.86523 -0.73801,4.54218 -1.05865,6.80583c-0.53387,3.76889 -0.45469,6.10091 -0.45469,6.10091z" data-paper-data="{&quot;index&quot;:null}" fill="#bdbdbd" stroke="#000000" stroke-width="0" stroke-linecap="butt"/><path d="M242.97693,231.3151c-0.23047,-0.06159 -0.62091,3.90893 -1.61078,3.71776c-0.48687,-0.09403 0.36187,-2.56745 -0.17574,-3.54669c-0.28458,-0.51834 -0.30018,4.55663 -1.50811,3.85143c-0.41469,-0.24211 0.47141,-3.79557 0.13902,-4.72984c-0.17794,-0.50013 -0.78803,5.49562 -1.6056,5.07192c-0.48533,-0.25151 0.51935,-3.45769 0.40044,-4.98878c-0.05793,-0.7459 -1.04787,3.98675 -1.61592,3.55006c-0.34772,-0.26731 0.37348,-4.93502 0.33967,-4.99431c-0.19001,-0.33326 -1.44811,2.36675 -1.64064,1.63871c-0.35485,-1.34179 0.93052,-2.67466 1.97775,-3.95079c0.61186,-0.7456 0.84453,-1.9791 0.84453,-1.9791c0,0 1.8926,-0.21231 2.76798,0.03929c0.85232,0.24497 2.41693,1.45093 2.41693,1.45093c0,0 -0.24126,4.99988 -0.72951,4.86941z" data-paper-data="{&quot;index&quot;:null}" fill="#777777" stroke="#000000" stroke-width="0" stroke-linecap="butt"/><path d="M231.47828,243.8877l-20.67173,-40.13212l26.61244,-13.70785l20.67173,40.13213z" fill="url(#color-1)" stroke="#ed6b00" stroke-width="0" stroke-linecap="butt"/><path d="M227.6531,205.51727l-3.20694,-6.05411l6.76557,-3.58381l3.20694,6.05411z" fill="url(#color-2)" stroke="#000000" stroke-width="0" stroke-linecap="butt"/><g><path d="M277.273,239.63063l-32.81113,-8.59821c0,0 -1.18204,-6.99994 -0.73819,-10.03447c0.52517,-3.59051 4.28714,0.01431 4.28714,0.01431c0,0 -0.36014,3.07227 1.01626,3.58284c4.20933,1.56143 29.40418,7.11668 29.40418,7.11668z" fill="#3c3c3c" stroke="#000000" stroke-width="0" stroke-linecap="butt"/><path d="M284.50768,225.10814c0,0 1.86391,0.66243 1.74424,1.48062c-0.08579,0.58651 -0.36917,2.61824 -0.74703,4.64514c-0.22974,1.2323 -0.88658,1.79272 -1.16299,2.69559c-0.34801,1.13666 -0.20713,2.93949 -0.51953,3.75208c-0.57563,1.4973 -1.11329,2.23706 -1.11329,2.23706c0,0 -1.05354,0.11789 -1.61044,0.05308c-0.75027,-0.08729 -2.48652,-0.52978 -2.48652,-0.52978c0,0 0.74054,-5.88907 1.27378,-8.15061c0.31553,-1.33821 1.25371,-4.10231 1.25371,-4.10231c0,0 0.82039,-1.35528 1.27403,-1.50483c0.55561,-0.18313 2.09407,-0.57606 2.09407,-0.57606z" data-paper-data="{&quot;index&quot;:null}" fill="#080808" stroke="#000000" stroke-width="0" stroke-linecap="butt"/><path d="M283.84053,225.28435c0,0 -0.05582,0.38162 -0.1755,1.19982c-0.03592,0.24561 1.68644,-0.4632 0.94017,2.78349c-0.70474,3.06592 -1.57755,2.57528 -1.81715,3.65641c-0.50099,2.26066 0.21426,2.64654 -0.0818,3.61354c-0.10311,0.33677 -0.18753,0.49073 -1.21841,1.62535c-0.70896,0.78032 -1.82912,0.4052 -2.53739,0.90775c-1.03459,0.73408 -1.98296,0.52703 -1.98296,0.52703l-3.0267,-0.36552c0,0 2.25398,-0.16185 3.19112,-0.87264c0.83848,-0.63596 0.31676,-2.29522 0.38662,-2.77382c0.12234,-0.83807 -3.33333,0.20862 -3.19809,-0.58998c0.07272,-0.42942 0.30716,-3.71743 0.30716,-3.71743c0,0 3.56,0.39638 3.61365,0.16879c0.31554,-1.3382 1.30636,-4.46225 1.30636,-4.46225c0,0 0.82039,-1.35528 1.27403,-1.50483c0.55561,-0.18314 3.01884,-0.1957 3.01884,-0.1957z" data-paper-data="{&quot;index&quot;:null}" fill="#19191a" stroke="#000000" stroke-width="0" stroke-linecap="butt"/><path d="M279.67624,233.45032l-0.69377,-2.79757" fill="none" stroke="#dcdcdc" stroke-width="0.5" stroke-linecap="round"/><path d="M279.24573,228.85303l1.07125,2.73022" fill="none" stroke="#dcdcdc" stroke-width="0.5" stroke-linecap="round"/><path d="M279.64363,227.80827l1.22921,1.6504" fill="none" stroke="#dcdcdc" stroke-width="0.5" stroke-linecap="round"/><path d="M275.66131,234.08858l0.07592,-2.19479" fill="none" stroke="#828282" stroke-width="0.5" stroke-linecap="round"/><path d="M276.57138,233.73148l-0.07916,-1.97237" fill="none" stroke="#828282" stroke-width="0.5" stroke-linecap="round"/></g><g><path d="M269.66355,245.84528l-31.83769,-11.69875c0,0 -0.50672,-7.08095 0.2255,-10.05907c0.86638,-3.52377 4.26609,0.42453 4.26609,0.42453c0,0 -0.6525,3.0237 0.66872,3.66365c4.04058,1.95709 28.58816,9.89799 28.58816,9.89799z" fill="#494949" stroke="#000000" stroke-width="0" stroke-linecap="butt"/><path d="M278.25483,232.0818c0,0 1.79196,0.83777 1.59454,1.64075c-0.14153,0.57561 -0.61803,2.5709 -1.18814,4.55233c-0.34661,1.20466 -1.05408,1.69964 -1.41562,2.57192c-0.45518,1.09814 -0.4875,2.90619 -0.87623,3.68515c-0.71629,1.43534 -1.32227,2.12024 -1.32227,2.12024c0,0 -1.05999,0.01652 -1.60813,-0.10128c-0.73847,-0.15869 -2.42441,-0.7653 -2.42441,-0.7653c0,0 1.30071,-5.79118 2.04793,-7.9913c0.44215,-1.30187 1.64055,-3.9635 1.64055,-3.9635c0,0 0.94632,-1.27055 1.41219,-1.376c0.57058,-0.12912 2.13959,-0.37302 2.13959,-0.37302z" data-paper-data="{&quot;index&quot;:null}" fill="#141415" stroke="#000000" stroke-width="0" stroke-linecap="butt"/><path d="M277.57387,232.19336c0,0 -0.09208,0.37454 -0.28951,1.17752c-0.05926,0.24104 1.72303,-0.29968 0.66947,2.86068c-0.99491,2.98441 -1.81676,2.41249 -2.15872,3.46572c-0.71504,2.20235 -0.03999,2.65489 -0.42723,3.58912c-0.13486,0.32536 -0.23364,0.47054 -1.36836,1.5013c-0.78039,0.70889 -1.85951,0.22829 -2.61262,0.66075c-1.1001,0.63171 -2.02428,0.33485 -2.02428,0.33485l-2.97782,-0.65349c0,0 2.25912,0.0546 3.25999,-0.56324c0.89549,-0.55281 0.53496,-2.25437 0.65031,-2.7241c0.20198,-0.82251 -3.338,-0.11133 -3.12696,-0.89332c0.11349,-0.42049 0.66151,-3.67097 0.66151,-3.67097c0,0 3.50572,0.73524 3.58092,0.51384c0.44216,-1.30186 1.7274,-4.31676 1.7274,-4.31676c0,0 0.94632,-1.27055 1.41219,-1.376c0.57059,-0.12913 3.02371,0.0941 3.02371,0.0941z" data-paper-data="{&quot;index&quot;:null}" fill="#252527" stroke="#000000" stroke-width="0" stroke-linecap="butt"/><path d="M272.64721,239.92333l-0.42285,-2.85112" fill="none" stroke="#ffffff" stroke-width="0.5" stroke-linecap="round"/><path d="M272.65864,235.30593l0.80505,2.82021" fill="none" stroke="#ffffff" stroke-width="0.5" stroke-linecap="round"/><path d="M273.15469,234.30406l1.06562,1.76046" fill="none" stroke="#ffffff" stroke-width="0.5" stroke-linecap="round"/><path d="M268.58963,240.17443l0.28561,-2.17745" fill="none" stroke="#969696" stroke-width="0.5" stroke-linecap="round"/><path d="M269.5297,239.90607l0.10996,-1.9709" fill="none" stroke="#969696" stroke-width="0.5" stroke-linecap="round"/></g><path d="M236.46104,235.17222c0,0 -2.45481,-4.9912 -5.4344,-9.50573c-2.0246,-3.06759 -4.4989,-5.49213 -5.80506,-7.62276c-2.45153,-3.99895 -6.45018,-11.72705 -6.45018,-11.72705c0,0 2.98862,-2.24485 4.73088,-2.75334c2.2178,-0.64729 7.4969,-0.81545 7.4969,-0.81545c0,0 2.23313,-3.63925 3.72913,-4.90276c1.57847,-1.33317 5.50759,-2.89846 5.50759,-2.89846c0,0 4.25347,8.17728 5.72385,11.29029c1.30094,2.75427 2.19479,6.04376 4.04377,10.16214c1.90568,4.24467 4.74764,9.2785 4.74764,9.2785c0,0 -2.79639,0.6107 -5.31579,1.86805c-1.14414,0.57101 -1.11193,1.72756 -2.10423,2.43336c-0.79316,0.56413 -2.61648,0.69239 -3.45094,1.09283c-0.63082,0.30272 -2.05441,0.4878 -2.49308,0.71552c-0.88575,0.4598 -1.02274,1.52095 -1.97121,2.20369c-1.10176,0.79308 -2.95491,1.18119 -2.95491,1.18119z" fill="#d0d0d0" stroke="#292e32" stroke-width="0" stroke-linecap="butt"/><path d="M231.23146,179.516c4.62421,6.19547 3.77472,14.64989 -1.89739,18.88348c-5.67211,4.23359 -14.01893,2.64317 -18.64314,-3.5523c-4.62421,-6.19547 -3.77472,-14.64988 1.89739,-18.88346c5.67211,-4.23359 14.01892,-2.64318 18.64314,3.55229z" fill="url(#color-3)" stroke="none" stroke-width="0" stroke-linecap="butt"/><path d="M232.05578,178.5621c2.23997,3.00108 4.94253,6.56038 -2.17821,12.47129c-7.95513,6.60353 -10.72658,1.83363 -12.96655,-1.16746c-2.23997,-3.00108 -0.66555,-7.96439 3.51655,-11.08586c4.18211,-3.12147 9.38823,-3.21906 11.6282,-0.21797z" data-paper-data="{&quot;index&quot;:null}" fill="url(#color-4)" stroke="#ed6b00" stroke-width="0" stroke-linecap="butt"/><g stroke-linecap="butt"><path d="M208.73411,184.32135c-0.12682,0.11404 -0.44892,0.4127 -0.77871,0.76066c-0.29414,0.47836 -0.65656,1.01129 -0.89281,1.47462c0.30232,0.88836 1.71162,0.97733 0.95624,2.37491c-1.28828,2.38357 -2.59517,-0.60718 -2.53588,-1.89674c0.35645,-1.64682 1.7779,-2.87357 2.8846,-4.08593c1.52438,-1.66992 2.86557,-3.49066 4.54474,-4.91121c0.01453,-0.11844 0.07035,-0.23234 0.16615,-0.31829l0.43807,-0.39297c0.19022,-0.23899 0.39908,-0.49579 0.62356,-0.75875c0.53852,-0.74377 1.29849,-1.48859 2.03061,-2.15035c0.32951,-0.36401 0.66486,-0.66956 0.98415,-0.86602c0.20737,-0.18005 0.40009,-0.34769 0.57012,-0.50023l0.46179,-0.41427c0.21033,-0.18868 0.53379,-0.17113 0.72248,0.0392c0.16793,0.18721 0.1725,0.46401 0.02318,0.65566l-0.20591,0.27529c0.18906,0.01089 0.37781,0.04384 0.56554,0.10161l0.11641,-0.23548l0.58858,0.29095c0.06077,0.0283 0.11694,0.0691 0.16452,0.12214c0.18868,0.21033 0.17114,0.53379 -0.03919,0.72246c-0.06396,0.05738 -0.13839,0.0957 -0.21632,0.11531l-0.52522,0.14397l-0.00424,-0.01546l-0.04062,0.02561c-0.424,0.03728 -0.82016,0.12239 -1.18336,0.25086c-0.46035,0.31857 -0.96857,0.62158 -1.47861,0.94115c-0.70874,0.74675 -1.06941,1.79954 -0.95681,3.04881c0,0 0.04483,0.50965 -0.46483,0.55446c-0.50965,0.04481 -0.55447,-0.46484 -0.55447,-0.46484c-0.00934,-0.10864 -0.01567,-0.21637 -0.01906,-0.32311l-0.17338,0.24237c-0.02269,0.03314 -0.04967,0.06414 -0.08091,0.09216c-0.21033,0.18868 -0.5338,0.17114 -0.72248,-0.0392c-0.0955,-0.10645 -0.13816,-0.24187 -0.12974,-0.37414c-0.19612,0.147 -0.37367,0.29617 -0.50241,0.45287c-0.89918,1.09446 -2.52459,2.44832 -3.93876,3.88551c0.15329,0.18664 0.15321,0.4526 0.0084,0.63846l-0.37328,0.49903l-0.01612,-0.01206l-0.00483,0.00602z" fill="url(#color-5)" stroke="none" stroke-width="0.5"/><path d="M218.59859,172.30292c2.00095,-1.84809 2.00654,-1.80149 3.27346,-0.46329c1.26692,1.3382 1.38424,3.16187 0.26207,4.07327c-1.12218,0.91142 -3.05893,0.56542 -4.32585,-0.77278c-1.26692,-1.3382 -1.086,-1.10421 0.79032,-2.8372z" data-paper-data="{&quot;index&quot;:null}" fill="url(#color-6)" stroke="#000000" stroke-width="0"/><path d="M214.89693,178.41106c1.4777,1.38204 1.41126,3.85426 -0.1484,5.52186c-1.55965,1.6676 -4.0219,1.89909 -5.4996,0.51705c-1.4777,-1.38204 -1.53989,-1.37954 1.54616,-4.40018c2.89383,-2.83252 2.62414,-3.02077 4.10184,-1.63874z" fill="url(#color-7)" stroke="#000000" stroke-width="0"/></g><path d="M237.22812,208.6429l-2.83168,-5.08665l6.921,-3.25447l2.44072,4.60763z" fill="#f200ff" stroke="none" stroke-width="0" stroke-linecap="butt"/><g stroke="#000000" stroke-width="0" stroke-linecap="butt"><path d="M210.56037,239.03959c0,0 0.63808,-2.44011 0.86482,-6.52719c0.13619,-2.45476 0.14284,-6.48042 0.29452,-7.40091c0.33833,-2.05346 -0.23708,-3.16822 0.04054,-4.48424c0.68213,-3.23371 1.79993,-8.74463 1.79993,-8.74463c0,0 -0.51732,-9.06106 7.96875,-6.91935c1.35474,0.34191 -0.26746,8.34814 -0.26746,8.34814c0,0 -0.71019,3.86956 -1.35178,6.91105c-0.29831,1.4141 -0.93863,3.67138 -1.48976,5.96564c-0.23285,0.96938 -0.69102,4.09492 -0.90705,5.04049c-0.89831,3.93219 -0.3042,7.36497 -0.3042,7.36497z" fill="#bdbdbd"/><path d="M210.32854,244.46388c-0.62367,0.03314 0.23159,-5.28972 0.23159,-5.28972c0,0 2.17962,-0.93684 3.2723,-1.01285c1.12228,-0.07808 3.37489,0.55045 3.37489,0.55045c0,0 -0.00045,1.35023 0.57228,2.26711c0.98026,1.56934 2.23706,3.24941 1.49727,4.58816c-0.40139,0.72639 -1.31091,-2.38919 -1.61853,-2.07849c-0.05474,0.05528 -0.2501,5.13058 -0.73434,5.33805c-0.79108,0.33891 -0.90754,-4.86228 -1.14936,-4.0883c-0.49633,1.58875 -0.01123,5.18381 -0.65918,5.34519c-1.09152,0.27186 -0.45592,-6.17981 -0.78721,-5.69056c-0.61884,0.91389 -0.35769,4.84973 -0.91757,5.0163c-1.63084,0.48519 -0.48391,-4.86859 -0.94903,-4.38297c-0.8787,0.91743 -0.41488,3.70659 -1.02851,3.70163c-1.2476,-0.01012 -0.81018,-4.27966 -1.1046,-4.26403z" data-paper-data="{&quot;index&quot;:null}" fill="#777777"/></g></g></g></svg>