<svg version="1.1" xmlns="http://www.w3.org/2000/svg" xmlns:xlink="http://www.w3.org/1999/xlink" width="15.02547" height="17.81793" viewBox="0,0,15.02547,17.81793"><defs><linearGradient x1="261.26274" y1="184.37313" x2="270.14024" y2="184.37313" gradientUnits="userSpaceOnUse" id="color-1"><stop offset="0" stop-color="#2a2a2a"/><stop offset="1" stop-color="#313131"/></linearGradient><linearGradient x1="261.26274" y1="184.37313" x2="270.14024" y2="184.37313" gradientUnits="userSpaceOnUse" id="color-2"><stop offset="0" stop-color="#080808"/><stop offset="1" stop-color="#414141"/></linearGradient><linearGradient x1="261.26275" y1="175.62686" x2="270.14025" y2="175.62686" gradientUnits="userSpaceOnUse" id="color-3"><stop offset="0" stop-color="#2a2a2a"/><stop offset="1" stop-color="#313131"/></linearGradient><linearGradient x1="261.26275" y1="175.62686" x2="270.14025" y2="175.62686" gradientUnits="userSpaceOnUse" id="color-4"><stop offset="0" stop-color="#080808"/><stop offset="1" stop-color="#414141"/></linearGradient><linearGradient x1="264.643" y1="184.67069" x2="265.18276" y2="185.24429" gradientUnits="userSpaceOnUse" id="color-5"><stop offset="0" stop-color="#7b6f80"/><stop offset="1" stop-color="#382c3f"/></linearGradient><linearGradient x1="264.12571" y1="184.94019" x2="264.88714" y2="185.74938" gradientUnits="userSpaceOnUse" id="color-6"><stop offset="0" stop-color="#ababab"/><stop offset="1" stop-color="#7e7e7e"/></linearGradient><linearGradient x1="264.44207" y1="185.27639" x2="264.57365" y2="185.41622" gradientUnits="userSpaceOnUse" id="color-7"><stop offset="0" stop-color="#323232"/><stop offset="1" stop-color="#232323"/></linearGradient><linearGradient x1="264.64321" y1="185.49014" x2="264.74619" y2="185.59958" gradientUnits="userSpaceOnUse" id="color-8"><stop offset="0" stop-color="#272727"/><stop offset="1" stop-color="#191919"/></linearGradient><linearGradient x1="264.26667" y1="185.08999" x2="264.36965" y2="185.19943" gradientUnits="userSpaceOnUse" id="color-9"><stop offset="0" stop-color="#393939"/><stop offset="1" stop-color="#323232"/></linearGradient><linearGradient x1="264.79952" y1="185.65625" x2="264.85911" y2="185.7196" gradientUnits="userSpaceOnUse" id="color-10"><stop offset="0" stop-color="#1f1f1f"/><stop offset="1" stop-color="#191919"/></linearGradient><linearGradient x1="264.15374" y1="184.96998" x2="264.21333" y2="185.03332" gradientUnits="userSpaceOnUse" id="color-11"><stop offset="0" stop-color="#515151"/><stop offset="1" stop-color="#3d3d3d"/></linearGradient><linearGradient x1="264.33838" y1="184.8994" x2="264.94079" y2="185.53957" gradientUnits="userSpaceOnUse" id="color-12"><stop offset="0" stop-color="#4b00bb"/><stop offset="1" stop-color="#30004f"/></linearGradient><linearGradient x1="264.98789" y1="184.31717" x2="265.56138" y2="184.92662" gradientUnits="userSpaceOnUse" id="color-13"><stop offset="0" stop-color="#4b00ba"/><stop offset="1" stop-color="#300050"/></linearGradient><linearGradient x1="264.70403" y1="185.07129" x2="264.79337" y2="185.16622" gradientUnits="userSpaceOnUse" id="color-14"><stop offset="0" stop-color="#806f89"/><stop offset="1" stop-color="#685473"/></linearGradient><linearGradient x1="264.84058" y1="185.2164" x2="264.9105" y2="185.2907" gradientUnits="userSpaceOnUse" id="color-15"><stop offset="0" stop-color="#6a5675"/><stop offset="1" stop-color="#5c4768"/></linearGradient><linearGradient x1="264.58495" y1="184.94474" x2="264.65488" y2="185.01904" gradientUnits="userSpaceOnUse" id="color-16"><stop offset="0" stop-color="#97899e"/><stop offset="1" stop-color="#7f6e88"/></linearGradient><linearGradient x1="264.94671" y1="185.32917" x2="264.98717" y2="185.37218" gradientUnits="userSpaceOnUse" id="color-17"><stop offset="0" stop-color="#544c58"/><stop offset="1" stop-color="#4d3b58"/></linearGradient><linearGradient x1="264.50829" y1="184.86326" x2="264.54876" y2="184.90627" gradientUnits="userSpaceOnUse" id="color-18"><stop offset="0" stop-color="#a594ac"/><stop offset="1" stop-color="#96889d"/></linearGradient><linearGradient x1="264.84533" y1="184.93833" x2="264.93466" y2="185.03326" gradientUnits="userSpaceOnUse" id="color-19"><stop offset="0" stop-color="#806f89"/><stop offset="1" stop-color="#685473"/></linearGradient><linearGradient x1="264.98188" y1="185.08345" x2="265.05179" y2="185.15774" gradientUnits="userSpaceOnUse" id="color-20"><stop offset="0" stop-color="#6a5675"/><stop offset="1" stop-color="#5c4768"/></linearGradient><linearGradient x1="264.72625" y1="184.81179" x2="264.79616" y2="184.88609" gradientUnits="userSpaceOnUse" id="color-21"><stop offset="0" stop-color="#97899e"/><stop offset="1" stop-color="#7f6e88"/></linearGradient><linearGradient x1="265.08799" y1="185.19622" x2="265.12847" y2="185.23922" gradientUnits="userSpaceOnUse" id="color-22"><stop offset="0" stop-color="#544c58"/><stop offset="1" stop-color="#4d3b58"/></linearGradient><linearGradient x1="264.64958" y1="184.73031" x2="264.69005" y2="184.77331" gradientUnits="userSpaceOnUse" id="color-23"><stop offset="0" stop-color="#a594ac"/><stop offset="1" stop-color="#96889d"/></linearGradient><linearGradient x1="264.98663" y1="184.80537" x2="265.07596" y2="184.9003" gradientUnits="userSpaceOnUse" id="color-24"><stop offset="0" stop-color="#806f89"/><stop offset="1" stop-color="#685473"/></linearGradient><linearGradient x1="265.12318" y1="184.95049" x2="265.19309" y2="185.02478" gradientUnits="userSpaceOnUse" id="color-25"><stop offset="0" stop-color="#6a5675"/><stop offset="1" stop-color="#5c4768"/></linearGradient><linearGradient x1="264.86755" y1="184.67883" x2="264.93746" y2="184.75313" gradientUnits="userSpaceOnUse" id="color-26"><stop offset="0" stop-color="#97899e"/><stop offset="1" stop-color="#7f6e88"/></linearGradient><linearGradient x1="265.22929" y1="185.06326" x2="265.26975" y2="185.10626" gradientUnits="userSpaceOnUse" id="color-27"><stop offset="0" stop-color="#544c58"/><stop offset="1" stop-color="#4d3b58"/></linearGradient><linearGradient x1="264.79088" y1="184.59735" x2="264.83135" y2="184.64035" gradientUnits="userSpaceOnUse" id="color-28"><stop offset="0" stop-color="#a594ac"/><stop offset="1" stop-color="#96889d"/></linearGradient><linearGradient x1="265.12793" y1="184.67241" x2="265.21726" y2="184.76735" gradientUnits="userSpaceOnUse" id="color-29"><stop offset="0" stop-color="#806f89"/><stop offset="1" stop-color="#685473"/></linearGradient><linearGradient x1="265.26448" y1="184.81752" x2="265.33439" y2="184.89182" gradientUnits="userSpaceOnUse" id="color-30"><stop offset="0" stop-color="#6a5675"/><stop offset="1" stop-color="#5c4768"/></linearGradient><linearGradient x1="265.00885" y1="184.54587" x2="265.07876" y2="184.62016" gradientUnits="userSpaceOnUse" id="color-31"><stop offset="0" stop-color="#97899e"/><stop offset="1" stop-color="#7f6e88"/></linearGradient><linearGradient x1="265.37059" y1="184.9303" x2="265.41105" y2="184.9733" gradientUnits="userSpaceOnUse" id="color-32"><stop offset="0" stop-color="#544c58"/><stop offset="1" stop-color="#4d3b58"/></linearGradient><linearGradient x1="264.93217" y1="184.46439" x2="264.97264" y2="184.50739" gradientUnits="userSpaceOnUse" id="color-33"><stop offset="0" stop-color="#a594ac"/><stop offset="1" stop-color="#96889d"/></linearGradient><linearGradient x1="263.28162" y1="182.16126" x2="263.55235" y2="182.90089" gradientUnits="userSpaceOnUse" id="color-34"><stop offset="0" stop-color="#7b6f80"/><stop offset="1" stop-color="#382c3f"/></linearGradient><linearGradient x1="262.7" y1="182.20567" x2="263.08197" y2="183.24906" gradientUnits="userSpaceOnUse" id="color-35"><stop offset="0" stop-color="#ababab"/><stop offset="1" stop-color="#7e7e7e"/></linearGradient><linearGradient x1="262.85871" y1="182.63916" x2="262.92471" y2="182.81948" gradientUnits="userSpaceOnUse" id="color-36"><stop offset="0" stop-color="#323232"/><stop offset="1" stop-color="#232323"/></linearGradient><linearGradient x1="262.95959" y1="182.9148" x2="263.01124" y2="183.05591" gradientUnits="userSpaceOnUse" id="color-37"><stop offset="0" stop-color="#272727"/><stop offset="1" stop-color="#191919"/></linearGradient><linearGradient x1="262.77073" y1="182.39882" x2="262.82237" y2="182.53994" gradientUnits="userSpaceOnUse" id="color-38"><stop offset="0" stop-color="#393939"/><stop offset="1" stop-color="#323232"/></linearGradient><linearGradient x1="263.03801" y1="183.12898" x2="263.0679" y2="183.21066" gradientUnits="userSpaceOnUse" id="color-39"><stop offset="0" stop-color="#1f1f1f"/><stop offset="1" stop-color="#191919"/></linearGradient><linearGradient x1="262.71407" y1="182.24408" x2="262.74397" y2="182.32575" gradientUnits="userSpaceOnUse" id="color-40"><stop offset="0" stop-color="#515151"/><stop offset="1" stop-color="#3d3d3d"/></linearGradient><linearGradient x1="262.91159" y1="182.25177" x2="263.21377" y2="183.07725" gradientUnits="userSpaceOnUse" id="color-41"><stop offset="0" stop-color="#4b00bb"/><stop offset="1" stop-color="#30004f"/></linearGradient><linearGradient x1="263.73771" y1="181.97183" x2="264.0254" y2="182.75768" gradientUnits="userSpaceOnUse" id="color-42"><stop offset="0" stop-color="#4b00ba"/><stop offset="1" stop-color="#300050"/></linearGradient><linearGradient x1="263.18021" y1="182.55359" x2="263.22503" y2="182.67601" gradientUnits="userSpaceOnUse" id="color-43"><stop offset="0" stop-color="#806f89"/><stop offset="1" stop-color="#685473"/></linearGradient><linearGradient x1="263.24872" y1="182.74071" x2="263.28379" y2="182.83651" gradientUnits="userSpaceOnUse" id="color-44"><stop offset="0" stop-color="#6a5675"/><stop offset="1" stop-color="#5c4768"/></linearGradient><linearGradient x1="263.12048" y1="182.39042" x2="263.15556" y2="182.48622" gradientUnits="userSpaceOnUse" id="color-45"><stop offset="0" stop-color="#97899e"/><stop offset="1" stop-color="#7f6e88"/></linearGradient><linearGradient x1="263.30194" y1="182.88611" x2="263.32223" y2="182.94157" gradientUnits="userSpaceOnUse" id="color-46"><stop offset="0" stop-color="#544c58"/><stop offset="1" stop-color="#4d3b58"/></linearGradient><linearGradient x1="263.08203" y1="182.28537" x2="263.10233" y2="182.34081" gradientUnits="userSpaceOnUse" id="color-47"><stop offset="0" stop-color="#a594ac"/><stop offset="1" stop-color="#96889d"/></linearGradient><linearGradient x1="263.36241" y1="182.48689" x2="263.40722" y2="182.60931" gradientUnits="userSpaceOnUse" id="color-48"><stop offset="0" stop-color="#806f89"/><stop offset="1" stop-color="#685473"/></linearGradient><linearGradient x1="263.43091" y1="182.67402" x2="263.46597" y2="182.76981" gradientUnits="userSpaceOnUse" id="color-49"><stop offset="0" stop-color="#6a5675"/><stop offset="1" stop-color="#5c4768"/></linearGradient><linearGradient x1="263.30268" y1="182.32372" x2="263.33775" y2="182.41952" gradientUnits="userSpaceOnUse" id="color-50"><stop offset="0" stop-color="#97899e"/><stop offset="1" stop-color="#7f6e88"/></linearGradient><linearGradient x1="263.48413" y1="182.81942" x2="263.50443" y2="182.87487" gradientUnits="userSpaceOnUse" id="color-51"><stop offset="0" stop-color="#544c58"/><stop offset="1" stop-color="#4d3b58"/></linearGradient><linearGradient x1="263.26421" y1="182.21867" x2="263.28452" y2="182.27412" gradientUnits="userSpaceOnUse" id="color-52"><stop offset="0" stop-color="#a594ac"/><stop offset="1" stop-color="#96889d"/></linearGradient><linearGradient x1="263.5446" y1="182.4202" x2="263.58941" y2="182.54261" gradientUnits="userSpaceOnUse" id="color-53"><stop offset="0" stop-color="#806f89"/><stop offset="1" stop-color="#685473"/></linearGradient><linearGradient x1="263.61311" y1="182.60732" x2="263.64817" y2="182.70312" gradientUnits="userSpaceOnUse" id="color-54"><stop offset="0" stop-color="#6a5675"/><stop offset="1" stop-color="#5c4768"/></linearGradient><linearGradient x1="263.48488" y1="182.25703" x2="263.51995" y2="182.35284" gradientUnits="userSpaceOnUse" id="color-55"><stop offset="0" stop-color="#97899e"/><stop offset="1" stop-color="#7f6e88"/></linearGradient><linearGradient x1="263.66632" y1="182.75273" x2="263.68663" y2="182.80818" gradientUnits="userSpaceOnUse" id="color-56"><stop offset="0" stop-color="#544c58"/><stop offset="1" stop-color="#4d3b58"/></linearGradient><linearGradient x1="263.44642" y1="182.15197" x2="263.46672" y2="182.20741" gradientUnits="userSpaceOnUse" id="color-57"><stop offset="0" stop-color="#a594ac"/><stop offset="1" stop-color="#96889d"/></linearGradient><linearGradient x1="263.72679" y1="182.35352" x2="263.77161" y2="182.47593" gradientUnits="userSpaceOnUse" id="color-58"><stop offset="0" stop-color="#806f89"/><stop offset="1" stop-color="#685473"/></linearGradient><linearGradient x1="263.79528" y1="182.54063" x2="263.83036" y2="182.63643" gradientUnits="userSpaceOnUse" id="color-59"><stop offset="0" stop-color="#6a5675"/><stop offset="1" stop-color="#5c4768"/></linearGradient><linearGradient x1="263.66706" y1="182.19033" x2="263.70214" y2="182.28615" gradientUnits="userSpaceOnUse" id="color-60"><stop offset="0" stop-color="#97899e"/><stop offset="1" stop-color="#7f6e88"/></linearGradient><linearGradient x1="263.84853" y1="182.68604" x2="263.86882" y2="182.74148" gradientUnits="userSpaceOnUse" id="color-61"><stop offset="0" stop-color="#544c58"/><stop offset="1" stop-color="#4d3b58"/></linearGradient><linearGradient x1="263.62861" y1="182.08528" x2="263.64891" y2="182.14072" gradientUnits="userSpaceOnUse" id="color-62"><stop offset="0" stop-color="#a594ac"/><stop offset="1" stop-color="#96889d"/></linearGradient><linearGradient x1="266.76578" y1="186.38299" x2="267.4817" y2="186.71133" gradientUnits="userSpaceOnUse" id="color-63"><stop offset="0" stop-color="#7b6f80"/><stop offset="1" stop-color="#382c3f"/></linearGradient><linearGradient x1="266.38793" y1="186.82736" x2="267.3979" y2="187.29052" gradientUnits="userSpaceOnUse" id="color-64"><stop offset="0" stop-color="#ababab"/><stop offset="1" stop-color="#7e7e7e"/></linearGradient><linearGradient x1="266.80753" y1="187.01978" x2="266.98206" y2="187.09983" gradientUnits="userSpaceOnUse" id="color-65"><stop offset="0" stop-color="#323232"/><stop offset="1" stop-color="#232323"/></linearGradient><linearGradient x1="267.07434" y1="187.14214" x2="267.21092" y2="187.20479" gradientUnits="userSpaceOnUse" id="color-66"><stop offset="0" stop-color="#272727"/><stop offset="1" stop-color="#191919"/></linearGradient><linearGradient x1="266.5749" y1="186.91309" x2="266.71149" y2="186.97574" gradientUnits="userSpaceOnUse" id="color-67"><stop offset="0" stop-color="#393939"/><stop offset="1" stop-color="#323232"/></linearGradient><linearGradient x1="267.28166" y1="187.23721" x2="267.36072" y2="187.27348" gradientUnits="userSpaceOnUse" id="color-68"><stop offset="0" stop-color="#1f1f1f"/><stop offset="1" stop-color="#191919"/></linearGradient><linearGradient x1="266.4251" y1="186.8444" x2="266.50416" y2="186.88066" gradientUnits="userSpaceOnUse" id="color-69"><stop offset="0" stop-color="#515151"/><stop offset="1" stop-color="#3d3d3d"/></linearGradient><linearGradient x1="266.56962" y1="186.70952" x2="267.36865" y2="187.07595" gradientUnits="userSpaceOnUse" id="color-70"><stop offset="0" stop-color="#4b00bb"/><stop offset="1" stop-color="#30004f"/></linearGradient><linearGradient x1="266.9523" y1="185.92568" x2="267.71297" y2="186.27453" gradientUnits="userSpaceOnUse" id="color-71"><stop offset="0" stop-color="#4b00ba"/><stop offset="1" stop-color="#300050"/></linearGradient><linearGradient x1="266.97308" y1="186.73117" x2="267.09157" y2="186.78552" gradientUnits="userSpaceOnUse" id="color-72"><stop offset="0" stop-color="#806f89"/><stop offset="1" stop-color="#685473"/></linearGradient><linearGradient x1="267.15421" y1="186.81424" x2="267.24692" y2="186.85677" gradientUnits="userSpaceOnUse" id="color-73"><stop offset="0" stop-color="#6a5675"/><stop offset="1" stop-color="#5c4768"/></linearGradient><linearGradient x1="266.81514" y1="186.65874" x2="266.90786" y2="186.70127" gradientUnits="userSpaceOnUse" id="color-74"><stop offset="0" stop-color="#97899e"/><stop offset="1" stop-color="#7f6e88"/></linearGradient><linearGradient x1="267.29494" y1="186.87878" x2="267.34863" y2="186.90341" gradientUnits="userSpaceOnUse" id="color-75"><stop offset="0" stop-color="#544c58"/><stop offset="1" stop-color="#4d3b58"/></linearGradient><linearGradient x1="266.71344" y1="186.61211" x2="266.76712" y2="186.63672" gradientUnits="userSpaceOnUse" id="color-76"><stop offset="0" stop-color="#a594ac"/><stop offset="1" stop-color="#96889d"/></linearGradient><linearGradient x1="267.05395" y1="186.55482" x2="267.17244" y2="186.60916" gradientUnits="userSpaceOnUse" id="color-77"><stop offset="0" stop-color="#806f89"/><stop offset="1" stop-color="#685473"/></linearGradient><linearGradient x1="267.23508" y1="186.63789" x2="267.32779" y2="186.68042" gradientUnits="userSpaceOnUse" id="color-78"><stop offset="0" stop-color="#6a5675"/><stop offset="1" stop-color="#5c4768"/></linearGradient><linearGradient x1="266.89601" y1="186.4824" x2="266.98874" y2="186.52491" gradientUnits="userSpaceOnUse" id="color-79"><stop offset="0" stop-color="#97899e"/><stop offset="1" stop-color="#7f6e88"/></linearGradient><linearGradient x1="267.37582" y1="186.70243" x2="267.42949" y2="186.72705" gradientUnits="userSpaceOnUse" id="color-80"><stop offset="0" stop-color="#544c58"/><stop offset="1" stop-color="#4d3b58"/></linearGradient><linearGradient x1="266.79431" y1="186.43576" x2="266.84799" y2="186.46037" gradientUnits="userSpaceOnUse" id="color-81"><stop offset="0" stop-color="#a594ac"/><stop offset="1" stop-color="#96889d"/></linearGradient><linearGradient x1="267.13482" y1="186.37847" x2="267.25332" y2="186.4328" gradientUnits="userSpaceOnUse" id="color-82"><stop offset="0" stop-color="#806f89"/><stop offset="1" stop-color="#685473"/></linearGradient><linearGradient x1="267.31595" y1="186.46152" x2="267.40869" y2="186.50406" gradientUnits="userSpaceOnUse" id="color-83"><stop offset="0" stop-color="#6a5675"/><stop offset="1" stop-color="#5c4768"/></linearGradient><linearGradient x1="266.97689" y1="186.30603" x2="267.06962" y2="186.34856" gradientUnits="userSpaceOnUse" id="color-84"><stop offset="0" stop-color="#97899e"/><stop offset="1" stop-color="#7f6e88"/></linearGradient><linearGradient x1="267.45671" y1="186.52608" x2="267.51038" y2="186.55069" gradientUnits="userSpaceOnUse" id="color-85"><stop offset="0" stop-color="#544c58"/><stop offset="1" stop-color="#4d3b58"/></linearGradient><linearGradient x1="266.8752" y1="186.2594" x2="266.92886" y2="186.28401" gradientUnits="userSpaceOnUse" id="color-86"><stop offset="0" stop-color="#a594ac"/><stop offset="1" stop-color="#96889d"/></linearGradient><linearGradient x1="267.21571" y1="186.20212" x2="267.3342" y2="186.25646" gradientUnits="userSpaceOnUse" id="color-87"><stop offset="0" stop-color="#806f89"/><stop offset="1" stop-color="#685473"/></linearGradient><linearGradient x1="267.39684" y1="186.28518" x2="267.48956" y2="186.3277" gradientUnits="userSpaceOnUse" id="color-88"><stop offset="0" stop-color="#6a5675"/><stop offset="1" stop-color="#5c4768"/></linearGradient><linearGradient x1="267.05776" y1="186.12968" x2="267.15051" y2="186.17221" gradientUnits="userSpaceOnUse" id="color-89"><stop offset="0" stop-color="#97899e"/><stop offset="1" stop-color="#7f6e88"/></linearGradient><linearGradient x1="267.53758" y1="186.34972" x2="267.59125" y2="186.37434" gradientUnits="userSpaceOnUse" id="color-90"><stop offset="0" stop-color="#544c58"/><stop offset="1" stop-color="#4d3b58"/></linearGradient><linearGradient x1="266.95607" y1="186.08304" x2="267.00975" y2="186.10765" gradientUnits="userSpaceOnUse" id="color-91"><stop offset="0" stop-color="#a594ac"/><stop offset="1" stop-color="#96889d"/></linearGradient><linearGradient x1="265.06683" y1="174.88369" x2="264.52099" y2="175.4515" gradientUnits="userSpaceOnUse" id="color-92"><stop offset="0" stop-color="#7b6f80"/><stop offset="1" stop-color="#382c3f"/></linearGradient><linearGradient x1="264.77176" y1="174.38055" x2="264.00173" y2="175.18156" gradientUnits="userSpaceOnUse" id="color-93"><stop offset="0" stop-color="#ababab"/><stop offset="1" stop-color="#7e7e7e"/></linearGradient><linearGradient x1="264.45183" y1="174.71335" x2="264.31876" y2="174.85177" gradientUnits="userSpaceOnUse" id="color-94"><stop offset="0" stop-color="#323232"/><stop offset="1" stop-color="#232323"/></linearGradient><linearGradient x1="264.24842" y1="174.92494" x2="264.14428" y2="175.03328" gradientUnits="userSpaceOnUse" id="color-95"><stop offset="0" stop-color="#272727"/><stop offset="1" stop-color="#191919"/></linearGradient><linearGradient x1="264.62921" y1="174.52883" x2="264.52506" y2="174.63717" gradientUnits="userSpaceOnUse" id="color-96"><stop offset="0" stop-color="#393939"/><stop offset="1" stop-color="#323232"/></linearGradient><linearGradient x1="264.09035" y1="175.08938" x2="264.03006" y2="175.15208" gradientUnits="userSpaceOnUse" id="color-97"><stop offset="0" stop-color="#1f1f1f"/><stop offset="1" stop-color="#191919"/></linearGradient><linearGradient x1="264.74341" y1="174.41003" x2="264.68314" y2="174.47273" gradientUnits="userSpaceOnUse" id="color-98"><stop offset="0" stop-color="#515151"/><stop offset="1" stop-color="#3d3d3d"/></linearGradient><linearGradient x1="264.82315" y1="174.59091" x2="264.21396" y2="175.22463" gradientUnits="userSpaceOnUse" id="color-99"><stop offset="0" stop-color="#4b00bb"/><stop offset="1" stop-color="#30004f"/></linearGradient><linearGradient x1="265.43719" y1="175.21044" x2="264.85723" y2="175.81373" gradientUnits="userSpaceOnUse" id="color-100"><stop offset="0" stop-color="#4b00ba"/><stop offset="1" stop-color="#300050"/></linearGradient><linearGradient x1="264.66979" y1="174.96472" x2="264.57946" y2="175.05869" gradientUnits="userSpaceOnUse" id="color-101"><stop offset="0" stop-color="#806f89"/><stop offset="1" stop-color="#685473"/></linearGradient><linearGradient x1="264.53171" y1="175.10836" x2="264.461" y2="175.18191" gradientUnits="userSpaceOnUse" id="color-102"><stop offset="0" stop-color="#6a5675"/><stop offset="1" stop-color="#5c4768"/></linearGradient><linearGradient x1="264.79022" y1="174.83945" x2="264.71952" y2="174.913" gradientUnits="userSpaceOnUse" id="color-103"><stop offset="0" stop-color="#97899e"/><stop offset="1" stop-color="#7f6e88"/></linearGradient><linearGradient x1="264.42438" y1="175.22" x2="264.38346" y2="175.26256" gradientUnits="userSpaceOnUse" id="color-104"><stop offset="0" stop-color="#544c58"/><stop offset="1" stop-color="#4d3b58"/></linearGradient><linearGradient x1="264.86776" y1="174.75879" x2="264.82683" y2="174.80137" gradientUnits="userSpaceOnUse" id="color-105"><stop offset="0" stop-color="#a594ac"/><stop offset="1" stop-color="#96889d"/></linearGradient><linearGradient x1="264.80966" y1="175.09917" x2="264.71933" y2="175.19314" gradientUnits="userSpaceOnUse" id="color-106"><stop offset="0" stop-color="#806f89"/><stop offset="1" stop-color="#685473"/></linearGradient><linearGradient x1="264.67157" y1="175.24282" x2="264.60087" y2="175.31636" gradientUnits="userSpaceOnUse" id="color-107"><stop offset="0" stop-color="#6a5675"/><stop offset="1" stop-color="#5c4768"/></linearGradient><linearGradient x1="264.93008" y1="174.9739" x2="264.85938" y2="175.04745" gradientUnits="userSpaceOnUse" id="color-108"><stop offset="0" stop-color="#97899e"/><stop offset="1" stop-color="#7f6e88"/></linearGradient><linearGradient x1="264.56425" y1="175.35445" x2="264.52333" y2="175.39703" gradientUnits="userSpaceOnUse" id="color-109"><stop offset="0" stop-color="#544c58"/><stop offset="1" stop-color="#4d3b58"/></linearGradient><linearGradient x1="265.00762" y1="174.89325" x2="264.9667" y2="174.93582" gradientUnits="userSpaceOnUse" id="color-110"><stop offset="0" stop-color="#a594ac"/><stop offset="1" stop-color="#96889d"/></linearGradient><linearGradient x1="264.94953" y1="175.23363" x2="264.8592" y2="175.32761" gradientUnits="userSpaceOnUse" id="color-111"><stop offset="0" stop-color="#806f89"/><stop offset="1" stop-color="#685473"/></linearGradient><linearGradient x1="264.81144" y1="175.37728" x2="264.74073" y2="175.45082" gradientUnits="userSpaceOnUse" id="color-112"><stop offset="0" stop-color="#6a5675"/><stop offset="1" stop-color="#5c4768"/></linearGradient><linearGradient x1="265.06995" y1="175.10836" x2="264.99924" y2="175.18191" gradientUnits="userSpaceOnUse" id="color-113"><stop offset="0" stop-color="#97899e"/><stop offset="1" stop-color="#7f6e88"/></linearGradient><linearGradient x1="264.70412" y1="175.48892" x2="264.66321" y2="175.53148" gradientUnits="userSpaceOnUse" id="color-114"><stop offset="0" stop-color="#544c58"/><stop offset="1" stop-color="#4d3b58"/></linearGradient><linearGradient x1="265.14749" y1="175.02771" x2="265.10657" y2="175.07028" gradientUnits="userSpaceOnUse" id="color-115"><stop offset="0" stop-color="#a594ac"/><stop offset="1" stop-color="#96889d"/></linearGradient><linearGradient x1="265.08941" y1="175.36809" x2="264.99906" y2="175.46207" gradientUnits="userSpaceOnUse" id="color-116"><stop offset="0" stop-color="#806f89"/><stop offset="1" stop-color="#685473"/></linearGradient><linearGradient x1="264.95132" y1="175.51174" x2="264.88061" y2="175.58529" gradientUnits="userSpaceOnUse" id="color-117"><stop offset="0" stop-color="#6a5675"/><stop offset="1" stop-color="#5c4768"/></linearGradient><linearGradient x1="265.20982" y1="175.24283" x2="265.13912" y2="175.31637" gradientUnits="userSpaceOnUse" id="color-118"><stop offset="0" stop-color="#97899e"/><stop offset="1" stop-color="#7f6e88"/></linearGradient><linearGradient x1="264.844" y1="175.62338" x2="264.80307" y2="175.66594" gradientUnits="userSpaceOnUse" id="color-119"><stop offset="0" stop-color="#544c58"/><stop offset="1" stop-color="#4d3b58"/></linearGradient><linearGradient x1="265.28736" y1="175.16217" x2="265.24644" y2="175.20473" gradientUnits="userSpaceOnUse" id="color-120"><stop offset="0" stop-color="#a594ac"/><stop offset="1" stop-color="#96889d"/></linearGradient><linearGradient x1="267.50492" y1="173.39831" x2="266.77977" y2="173.70575" gradientUnits="userSpaceOnUse" id="color-121"><stop offset="0" stop-color="#7b6f80"/><stop offset="1" stop-color="#382c3f"/></linearGradient><linearGradient x1="267.43143" y1="172.81966" x2="266.40848" y2="173.2534" gradientUnits="userSpaceOnUse" id="color-122"><stop offset="0" stop-color="#ababab"/><stop offset="1" stop-color="#7e7e7e"/></linearGradient><linearGradient x1="267.00642" y1="172.99987" x2="266.82965" y2="173.07482" gradientUnits="userSpaceOnUse" id="color-123"><stop offset="0" stop-color="#323232"/><stop offset="1" stop-color="#232323"/></linearGradient><linearGradient x1="266.73618" y1="173.11444" x2="266.59785" y2="173.1731" gradientUnits="userSpaceOnUse" id="color-124"><stop offset="0" stop-color="#272727"/><stop offset="1" stop-color="#191919"/></linearGradient><linearGradient x1="267.24206" y1="172.89996" x2="267.10371" y2="172.95861" gradientUnits="userSpaceOnUse" id="color-125"><stop offset="0" stop-color="#393939"/><stop offset="1" stop-color="#323232"/></linearGradient><linearGradient x1="266.52621" y1="173.20348" x2="266.44613" y2="173.23743" gradientUnits="userSpaceOnUse" id="color-126"><stop offset="0" stop-color="#1f1f1f"/><stop offset="1" stop-color="#191919"/></linearGradient><linearGradient x1="267.39376" y1="172.83563" x2="267.3137" y2="172.86958" gradientUnits="userSpaceOnUse" id="color-127"><stop offset="0" stop-color="#515151"/><stop offset="1" stop-color="#3d3d3d"/></linearGradient><linearGradient x1="267.39599" y1="173.03329" x2="266.58668" y2="173.37643" gradientUnits="userSpaceOnUse" id="color-128"><stop offset="0" stop-color="#4b00bb"/><stop offset="1" stop-color="#30004f"/></linearGradient><linearGradient x1="267.71696" y1="173.84435" x2="266.9465" y2="174.17104" gradientUnits="userSpaceOnUse" id="color-129"><stop offset="0" stop-color="#4b00ba"/><stop offset="1" stop-color="#300050"/></linearGradient><linearGradient x1="267.108" y1="173.31669" x2="266.98798" y2="173.36758" gradientUnits="userSpaceOnUse" id="color-130"><stop offset="0" stop-color="#806f89"/><stop offset="1" stop-color="#685473"/></linearGradient><linearGradient x1="266.92455" y1="173.39449" x2="266.83062" y2="173.43431" gradientUnits="userSpaceOnUse" id="color-131"><stop offset="0" stop-color="#6a5675"/><stop offset="1" stop-color="#5c4768"/></linearGradient><linearGradient x1="267.26797" y1="173.24887" x2="267.17404" y2="173.28869" gradientUnits="userSpaceOnUse" id="color-132"><stop offset="0" stop-color="#97899e"/><stop offset="1" stop-color="#7f6e88"/></linearGradient><linearGradient x1="266.782" y1="173.45492" x2="266.72762" y2="173.47797" gradientUnits="userSpaceOnUse" id="color-133"><stop offset="0" stop-color="#544c58"/><stop offset="1" stop-color="#4d3b58"/></linearGradient><linearGradient x1="267.37097" y1="173.20519" x2="267.31661" y2="173.22824" gradientUnits="userSpaceOnUse" id="color-134"><stop offset="0" stop-color="#a594ac"/><stop offset="1" stop-color="#96889d"/></linearGradient><linearGradient x1="267.18374" y1="173.49531" x2="267.06372" y2="173.5462" gradientUnits="userSpaceOnUse" id="color-135"><stop offset="0" stop-color="#806f89"/><stop offset="1" stop-color="#685473"/></linearGradient><linearGradient x1="267.00028" y1="173.5731" x2="266.90637" y2="173.61292" gradientUnits="userSpaceOnUse" id="color-136"><stop offset="0" stop-color="#6a5675"/><stop offset="1" stop-color="#5c4768"/></linearGradient><linearGradient x1="267.34371" y1="173.42749" x2="267.24978" y2="173.46731" gradientUnits="userSpaceOnUse" id="color-137"><stop offset="0" stop-color="#97899e"/><stop offset="1" stop-color="#7f6e88"/></linearGradient><linearGradient x1="266.85773" y1="173.63355" x2="266.80336" y2="173.65659" gradientUnits="userSpaceOnUse" id="color-138"><stop offset="0" stop-color="#544c58"/><stop offset="1" stop-color="#4d3b58"/></linearGradient><linearGradient x1="267.44671" y1="173.3838" x2="267.39234" y2="173.40686" gradientUnits="userSpaceOnUse" id="color-139"><stop offset="0" stop-color="#a594ac"/><stop offset="1" stop-color="#96889d"/></linearGradient><linearGradient x1="267.25948" y1="173.67393" x2="267.13946" y2="173.72483" gradientUnits="userSpaceOnUse" id="color-140"><stop offset="0" stop-color="#806f89"/><stop offset="1" stop-color="#685473"/></linearGradient><linearGradient x1="267.07602" y1="173.75173" x2="266.9821" y2="173.79155" gradientUnits="userSpaceOnUse" id="color-141"><stop offset="0" stop-color="#6a5675"/><stop offset="1" stop-color="#5c4768"/></linearGradient><linearGradient x1="267.41945" y1="173.60612" x2="267.32552" y2="173.64594" gradientUnits="userSpaceOnUse" id="color-142"><stop offset="0" stop-color="#97899e"/><stop offset="1" stop-color="#7f6e88"/></linearGradient><linearGradient x1="266.93345" y1="173.81217" x2="266.8791" y2="173.83522" gradientUnits="userSpaceOnUse" id="color-143"><stop offset="0" stop-color="#544c58"/><stop offset="1" stop-color="#4d3b58"/></linearGradient><linearGradient x1="267.52245" y1="173.56244" x2="267.4681" y2="173.58549" gradientUnits="userSpaceOnUse" id="color-144"><stop offset="0" stop-color="#a594ac"/><stop offset="1" stop-color="#96889d"/></linearGradient><linearGradient x1="267.3352" y1="173.85256" x2="267.21519" y2="173.90345" gradientUnits="userSpaceOnUse" id="color-145"><stop offset="0" stop-color="#806f89"/><stop offset="1" stop-color="#685473"/></linearGradient><linearGradient x1="267.15175" y1="173.93034" x2="267.05782" y2="173.97017" gradientUnits="userSpaceOnUse" id="color-146"><stop offset="0" stop-color="#6a5675"/><stop offset="1" stop-color="#5c4768"/></linearGradient><linearGradient x1="267.49519" y1="173.78474" x2="267.40125" y2="173.82456" gradientUnits="userSpaceOnUse" id="color-147"><stop offset="0" stop-color="#97899e"/><stop offset="1" stop-color="#7f6e88"/></linearGradient><linearGradient x1="267.00919" y1="173.9908" x2="266.95484" y2="174.01384" gradientUnits="userSpaceOnUse" id="color-148"><stop offset="0" stop-color="#544c58"/><stop offset="1" stop-color="#4d3b58"/></linearGradient><linearGradient x1="267.59818" y1="173.74106" x2="267.54383" y2="173.76411" gradientUnits="userSpaceOnUse" id="color-149"><stop offset="0" stop-color="#a594ac"/><stop offset="1" stop-color="#96889d"/></linearGradient><linearGradient x1="263.46302" y1="177.08957" x2="263.17095" y2="177.82105" gradientUnits="userSpaceOnUse" id="color-150"><stop offset="0" stop-color="#7b6f80"/><stop offset="1" stop-color="#382c3f"/></linearGradient><linearGradient x1="263.00028" y1="176.73446" x2="262.58829" y2="177.76636" gradientUnits="userSpaceOnUse" id="color-151"><stop offset="0" stop-color="#ababab"/><stop offset="1" stop-color="#7e7e7e"/></linearGradient><linearGradient x1="262.82912" y1="177.16318" x2="262.75791" y2="177.3415" gradientUnits="userSpaceOnUse" id="color-152"><stop offset="0" stop-color="#323232"/><stop offset="1" stop-color="#232323"/></linearGradient><linearGradient x1="262.72028" y1="177.43577" x2="262.66454" y2="177.57533" gradientUnits="userSpaceOnUse" id="color-153"><stop offset="0" stop-color="#272727"/><stop offset="1" stop-color="#191919"/></linearGradient><linearGradient x1="262.92402" y1="176.92549" x2="262.86829" y2="177.06505" gradientUnits="userSpaceOnUse" id="color-154"><stop offset="0" stop-color="#393939"/><stop offset="1" stop-color="#323232"/></linearGradient><linearGradient x1="262.6357" y1="177.6476" x2="262.60345" y2="177.72837" gradientUnits="userSpaceOnUse" id="color-155"><stop offset="0" stop-color="#1f1f1f"/><stop offset="1" stop-color="#191919"/></linearGradient><linearGradient x1="262.98512" y1="176.77245" x2="262.95286" y2="176.85321" gradientUnits="userSpaceOnUse" id="color-156"><stop offset="0" stop-color="#515151"/><stop offset="1" stop-color="#3d3d3d"/></linearGradient><linearGradient x1="263.12707" y1="176.91002" x2="262.80113" y2="177.7264" gradientUnits="userSpaceOnUse" id="color-157"><stop offset="0" stop-color="#4b00bb"/><stop offset="1" stop-color="#30004f"/></linearGradient><linearGradient x1="263.9291" y1="177.25295" x2="263.61879" y2="178.03014" gradientUnits="userSpaceOnUse" id="color-158"><stop offset="0" stop-color="#4b00ba"/><stop offset="1" stop-color="#300050"/></linearGradient><linearGradient x1="263.12566" y1="177.31406" x2="263.07731" y2="177.43512" gradientUnits="userSpaceOnUse" id="color-159"><stop offset="0" stop-color="#806f89"/><stop offset="1" stop-color="#685473"/></linearGradient><linearGradient x1="263.05177" y1="177.49912" x2="263.01392" y2="177.59385" gradientUnits="userSpaceOnUse" id="color-160"><stop offset="0" stop-color="#6a5675"/><stop offset="1" stop-color="#5c4768"/></linearGradient><linearGradient x1="263.19009" y1="177.15269" x2="263.15225" y2="177.24742" gradientUnits="userSpaceOnUse" id="color-161"><stop offset="0" stop-color="#97899e"/><stop offset="1" stop-color="#7f6e88"/></linearGradient><linearGradient x1="262.99436" y1="177.64291" x2="262.97245" y2="177.69776" gradientUnits="userSpaceOnUse" id="color-162"><stop offset="0" stop-color="#544c58"/><stop offset="1" stop-color="#4d3b58"/></linearGradient><linearGradient x1="263.23156" y1="177.04878" x2="263.20966" y2="177.10362" gradientUnits="userSpaceOnUse" id="color-163"><stop offset="0" stop-color="#a594ac"/><stop offset="1" stop-color="#96889d"/></linearGradient><linearGradient x1="263.30584" y1="177.38599" x2="263.2575" y2="177.50705" gradientUnits="userSpaceOnUse" id="color-164"><stop offset="0" stop-color="#806f89"/><stop offset="1" stop-color="#685473"/></linearGradient><linearGradient x1="263.23194" y1="177.57105" x2="263.1941" y2="177.66579" gradientUnits="userSpaceOnUse" id="color-165"><stop offset="0" stop-color="#6a5675"/><stop offset="1" stop-color="#5c4768"/></linearGradient><linearGradient x1="263.37025" y1="177.22462" x2="263.33243" y2="177.31936" gradientUnits="userSpaceOnUse" id="color-166"><stop offset="0" stop-color="#97899e"/><stop offset="1" stop-color="#7f6e88"/></linearGradient><linearGradient x1="263.17454" y1="177.71485" x2="263.15263" y2="177.76969" gradientUnits="userSpaceOnUse" id="color-167"><stop offset="0" stop-color="#544c58"/><stop offset="1" stop-color="#4d3b58"/></linearGradient><linearGradient x1="263.41174" y1="177.12071" x2="263.38984" y2="177.17556" gradientUnits="userSpaceOnUse" id="color-168"><stop offset="0" stop-color="#a594ac"/><stop offset="1" stop-color="#96889d"/></linearGradient><linearGradient x1="263.48602" y1="177.45794" x2="263.43769" y2="177.579" gradientUnits="userSpaceOnUse" id="color-169"><stop offset="0" stop-color="#806f89"/><stop offset="1" stop-color="#685473"/></linearGradient><linearGradient x1="263.41213" y1="177.643" x2="263.3743" y2="177.73774" gradientUnits="userSpaceOnUse" id="color-170"><stop offset="0" stop-color="#6a5675"/><stop offset="1" stop-color="#5c4768"/></linearGradient><linearGradient x1="263.55045" y1="177.29656" x2="263.51262" y2="177.39132" gradientUnits="userSpaceOnUse" id="color-171"><stop offset="0" stop-color="#97899e"/><stop offset="1" stop-color="#7f6e88"/></linearGradient><linearGradient x1="263.35472" y1="177.78681" x2="263.33283" y2="177.84164" gradientUnits="userSpaceOnUse" id="color-172"><stop offset="0" stop-color="#544c58"/><stop offset="1" stop-color="#4d3b58"/></linearGradient><linearGradient x1="263.59193" y1="177.19267" x2="263.57004" y2="177.2475" gradientUnits="userSpaceOnUse" id="color-173"><stop offset="0" stop-color="#a594ac"/><stop offset="1" stop-color="#96889d"/></linearGradient><linearGradient x1="263.6662" y1="177.52988" x2="263.61786" y2="177.65094" gradientUnits="userSpaceOnUse" id="color-174"><stop offset="0" stop-color="#806f89"/><stop offset="1" stop-color="#685473"/></linearGradient><linearGradient x1="263.59231" y1="177.71494" x2="263.55449" y2="177.80968" gradientUnits="userSpaceOnUse" id="color-175"><stop offset="0" stop-color="#6a5675"/><stop offset="1" stop-color="#5c4768"/></linearGradient><linearGradient x1="263.73062" y1="177.3685" x2="263.6928" y2="177.46326" gradientUnits="userSpaceOnUse" id="color-176"><stop offset="0" stop-color="#97899e"/><stop offset="1" stop-color="#7f6e88"/></linearGradient><linearGradient x1="263.5349" y1="177.85874" x2="263.51301" y2="177.91358" gradientUnits="userSpaceOnUse" id="color-177"><stop offset="0" stop-color="#544c58"/><stop offset="1" stop-color="#4d3b58"/></linearGradient><linearGradient x1="263.77212" y1="177.2646" x2="263.75023" y2="177.31945" gradientUnits="userSpaceOnUse" id="color-178"><stop offset="0" stop-color="#a594ac"/><stop offset="1" stop-color="#96889d"/></linearGradient><radialGradient cx="270.44374" cy="180.00001" r="5.71948" gradientUnits="userSpaceOnUse" id="color-179"><stop offset="0" stop-color="#ffccc4"/><stop offset="1" stop-color="#ffccc4" stop-opacity="0"/></radialGradient><radialGradient cx="270.55177" cy="180.06933" r="5.42739" gradientUnits="userSpaceOnUse" id="color-180"><stop offset="0" stop-color="#ffbaa1"/><stop offset="1" stop-color="#ffbaa1" stop-opacity="0"/></radialGradient><radialGradient cx="270.57261" cy="180.00001" r="5.20601" gradientUnits="userSpaceOnUse" id="color-181"><stop offset="0" stop-color="#ffbaac"/><stop offset="1" stop-color="#ffbaac" stop-opacity="0"/></radialGradient><radialGradient cx="271.26698" cy="179.25887" r="5.22319" gradientUnits="userSpaceOnUse" id="color-182"><stop offset="0" stop-color="#ffcabc"/><stop offset="1" stop-color="#d4a493"/></radialGradient></defs><g transform="translate(-261.13774,-171.09104)"><g data-paper-data="{&quot;isPaintingLayer&quot;:true}" fill-rule="nonzero" stroke-linecap="butt" stroke-linejoin="miter" stroke-miterlimit="10" stroke-dasharray="" stroke-dashoffset="0" style="mix-blend-mode: normal"><path d="M270.14024,188.73817c0,0 -2.60424,0.57223 -5.97912,-2.32908c-3.13621,-2.35406 -2.89404,-6.44679 -2.89404,-6.44679h0.87616c0,0 -0.05322,3.49148 2.65047,5.74493c2.76103,2.30127 5.28454,2.14051 5.28454,2.14051z" fill="url(#color-1)" stroke="url(#color-2)" stroke-width="0.25"/><path d="M270.07824,172.15225c0,0 -2.5235,-0.16074 -5.28454,2.14051c-2.70369,2.25346 -2.65047,5.74493 -2.65047,5.74493h-0.87615c0,0 -0.24218,-4.09271 2.89404,-6.44678c3.37488,-2.90131 5.97912,-2.32909 5.97912,-2.32909z" data-paper-data="{&quot;index&quot;:null}" fill="url(#color-3)" stroke="url(#color-4)" stroke-width="0.25"/><g data-paper-data="{&quot;index&quot;:null}" stroke-width="0"><path d="M264.28706,185.00562l0.71188,-0.66988l0.53976,0.5736l-0.71188,0.66988z" fill="url(#color-5)" stroke="#000000"/><path d="M264.03096,185.02935l0.18949,-0.17831l0.76144,0.80918l-0.18949,0.17831z" fill="url(#color-6)" stroke="none"/><path d="M264.37549,185.33904l0.13316,-0.1253l0.13158,0.13983l-0.13316,0.1253z" fill="url(#color-7)" stroke="#000000"/><path d="M264.57662,185.55279l0.13316,-0.1253l0.10298,0.10944l-0.13316,0.1253z" fill="url(#color-8)" stroke="#000000"/><path d="M264.20009,185.15264l0.13316,-0.1253l0.10298,0.10944l-0.13316,0.1253z" fill="url(#color-9)" stroke="#000000"/><path d="M264.73294,185.7189l0.13316,-0.1253l0.05961,0.06334l-0.13316,0.1253z" fill="url(#color-10)" stroke="#000000"/><path d="M264.08716,185.03263l0.13316,-0.1253l0.05961,0.06334l-0.13316,0.1253z" fill="url(#color-11)" stroke="#000000"/><path d="M264.29998,184.93554l0.07682,-0.07228l0.6024,0.64017l-0.07682,0.07228z" fill="url(#color-12)" stroke="#000000"/><path d="M264.95973,184.34367l0.05634,-0.05301l0.57349,0.60945l-0.05634,0.05301z" fill="url(#color-13)" stroke="#000000"/><path d="M264.65223,185.12004l0.10362,-0.0975l0.08934,0.09494l-0.10362,0.0975z" fill="url(#color-14)" stroke="#000000"/><path d="M264.78878,185.26515l0.10362,-0.0975l0.06991,0.0743l-0.10362,0.0975z" fill="url(#color-15)" stroke="#000000"/><path d="M264.53315,184.99349l0.10362,-0.0975l0.06991,0.0743l-0.10362,0.0975z" fill="url(#color-16)" stroke="#000000"/><path d="M264.8949,185.37792l0.10362,-0.0975l0.04047,0.043l-0.10362,0.0975z" fill="url(#color-17)" stroke="#000000"/><path d="M264.45648,184.91202l0.10362,-0.0975l0.04047,0.043l-0.10362,0.0975z" fill="url(#color-18)" stroke="#000000"/><path d="M264.79353,184.98708l0.10362,-0.0975l0.08934,0.09494l-0.10362,0.0975z" fill="url(#color-19)" stroke="#000000"/><path d="M264.93008,185.13219l0.10362,-0.0975l0.06991,0.0743l-0.10362,0.0975z" fill="url(#color-20)" stroke="#000000"/><path d="M264.67445,184.86053l0.10362,-0.0975l0.06991,0.0743l-0.10362,0.0975z" fill="url(#color-21)" stroke="#000000"/><path d="M265.0362,185.24496l0.10362,-0.0975l0.04047,0.043l-0.10362,0.0975z" fill="url(#color-22)" stroke="#000000"/><path d="M264.59778,184.77906l0.10362,-0.0975l0.04047,0.043l-0.10362,0.0975z" fill="url(#color-23)" stroke="#000000"/><path d="M264.93482,184.85412l0.10362,-0.0975l0.08934,0.09494l-0.10362,0.0975z" fill="url(#color-24)" stroke="#000000"/><path d="M265.07137,184.99924l0.10362,-0.0975l0.06991,0.0743l-0.10362,0.0975z" fill="url(#color-25)" stroke="#000000"/><path d="M264.81574,184.72758l0.10362,-0.0975l0.06991,0.0743l-0.10362,0.0975z" fill="url(#color-26)" stroke="#000000"/><path d="M265.17749,185.11201l0.10362,-0.0975l0.04047,0.043l-0.10362,0.0975z" fill="url(#color-27)" stroke="#000000"/><path d="M264.73907,184.6461l0.10362,-0.0975l0.04047,0.043l-0.10362,0.0975z" fill="url(#color-28)" stroke="#000000"/><path d="M265.07612,184.72116l0.10362,-0.0975l0.08934,0.09494l-0.10362,0.0975z" fill="url(#color-29)" stroke="#000000"/><path d="M265.21267,184.86628l0.10362,-0.0975l0.06991,0.0743l-0.10362,0.0975z" fill="url(#color-30)" stroke="#000000"/><path d="M264.95704,184.59462l0.10362,-0.0975l0.06991,0.0743l-0.10362,0.0975z" fill="url(#color-31)" stroke="#000000"/><path d="M265.31879,184.97905l0.10362,-0.0975l0.04047,0.043l-0.10362,0.0975z" fill="url(#color-32)" stroke="#000000"/><path d="M264.88037,184.51314l0.10362,-0.0975l0.04047,0.043l-0.10362,0.0975z" fill="url(#color-33)" stroke="#000000"/></g><g data-paper-data="{&quot;index&quot;:null}" stroke-width="0"><path d="M262.82265,182.32926l0.91792,-0.33601l0.27075,0.73963l-0.91792,0.33601z" fill="url(#color-34)" stroke="#000000"/><path d="M262.57784,182.25039l0.24435,-0.08945l0.38195,1.0434l-0.24436,0.08944z" fill="url(#color-35)" stroke="none"/><path d="M262.77287,182.67059l0.17169,-0.06285l0.066,0.18031l-0.1717,0.06286z" fill="url(#color-36)" stroke="#000000"/><path d="M262.87376,182.94621l0.17169,-0.06285l0.05165,0.1411l-0.1717,0.06286z" fill="url(#color-37)" stroke="#000000"/><path d="M262.68487,182.43026l0.1717,-0.06286l0.05165,0.14112l-0.17169,0.06285z" fill="url(#color-38)" stroke="#000000"/><path d="M262.95216,183.16041l0.1717,-0.06286l0.0299,0.08168l-0.1717,0.06286z" fill="url(#color-39)" stroke="#000000"/><path d="M262.6282,182.27549l0.1717,-0.06286l0.0299,0.08168l-0.1717,0.06286z" fill="url(#color-40)" stroke="#000000"/><path d="M262.86208,182.2699l0.09906,-0.03626l0.30217,0.82547l-0.09906,0.03626z" fill="url(#color-41)" stroke="#000000"/><path d="M263.7014,181.98513l0.07264,-0.0266l0.28768,0.78586l-0.07265,0.02659z" fill="url(#color-42)" stroke="#000000"/><path d="M263.11341,182.57805l0.13361,-0.04891l0.0448,0.12241l-0.13361,0.0489z" fill="url(#color-43)" stroke="#000000"/><path d="M263.1819,182.76516l0.13361,-0.0489l0.03507,0.0958l-0.13361,0.0489z" fill="url(#color-44)" stroke="#000000"/><path d="M263.05367,182.41488l0.13361,-0.0489l0.03508,0.09581l-0.13361,0.0489z" fill="url(#color-45)" stroke="#000000"/><path d="M263.23514,182.91057l0.13361,-0.04891l0.02029,0.05545l-0.13361,0.04891z" fill="url(#color-46)" stroke="#000000"/><path d="M263.01522,182.30981l0.13361,-0.0489l0.02029,0.05545l-0.13361,0.04891z" fill="url(#color-47)" stroke="#000000"/><path d="M263.29562,182.51136l0.13361,-0.04891l0.0448,0.12241l-0.13361,0.0489z" fill="url(#color-48)" stroke="#000000"/><path d="M263.36411,182.69848l0.13361,-0.04891l0.03506,0.09579l-0.13361,0.04891z" fill="url(#color-49)" stroke="#000000"/><path d="M263.23587,182.34818l0.13361,-0.04891l0.03508,0.09581l-0.13361,0.0489z" fill="url(#color-50)" stroke="#000000"/><path d="M263.41733,182.84387l0.13361,-0.0489l0.0203,0.05546l-0.13362,0.0489z" fill="url(#color-51)" stroke="#000000"/><path d="M263.19741,182.24312l0.13361,-0.04891l0.02029,0.05545l-0.13361,0.04891z" fill="url(#color-52)" stroke="#000000"/><path d="M263.47782,182.44466l0.1336,-0.0489l0.0448,0.12241l-0.13361,0.0489z" fill="url(#color-53)" stroke="#000000"/><path d="M263.54629,182.63179l0.1336,-0.0489l0.03508,0.09579l-0.1336,0.0489z" fill="url(#color-54)" stroke="#000000"/><path d="M263.41807,182.28148l0.1336,-0.0489l0.03508,0.09581l-0.1336,0.0489z" fill="url(#color-55)" stroke="#000000"/><path d="M263.59954,182.77718l0.1336,-0.0489l0.0203,0.05546l-0.13361,0.04891z" fill="url(#color-56)" stroke="#000000"/><path d="M263.37961,182.17642l0.13361,-0.04891l0.02029,0.05545l-0.13361,0.04891z" fill="url(#color-57)" stroke="#000000"/><path d="M263.65997,182.37796l0.13361,-0.0489l0.04482,0.12241l-0.13361,0.0489z" fill="url(#color-58)" stroke="#000000"/><path d="M263.72848,182.5651l0.13361,-0.04892l0.03508,0.09579l-0.13361,0.04891z" fill="url(#color-59)" stroke="#000000"/><path d="M263.60026,182.2148l0.13361,-0.04891l0.03508,0.09581l-0.13361,0.0489z" fill="url(#color-60)" stroke="#000000"/><path d="M263.78171,182.71049l0.13361,-0.04891l0.0203,0.05546l-0.13361,0.04891z" fill="url(#color-61)" stroke="#000000"/><path d="M263.56181,182.10972l0.13361,-0.0489l0.02029,0.05545l-0.13361,0.04892z" fill="url(#color-62)" stroke="#000000"/></g><g data-paper-data="{&quot;index&quot;:null}" stroke-width="0"><path d="M266.56203,186.82725l0.40747,-0.88851l0.71593,0.32833l-0.40747,0.8885z" fill="url(#color-63)" stroke="#000000"/><path d="M266.33369,186.9456l0.10847,-0.23652l1.00997,0.46317l-0.10847,0.23652z" fill="url(#color-64)" stroke="none"/><path d="M266.76943,187.10288l0.07622,-0.16619l0.17452,0.08005l-0.07621,0.1662z" fill="url(#color-65)" stroke="#000000"/><path d="M267.03622,187.22523l0.07622,-0.16619l0.13658,0.06264l-0.07621,0.1662z" fill="url(#color-66)" stroke="#000000"/><path d="M266.53679,186.99619l0.07622,-0.1662l0.13659,0.06265l-0.07622,0.16619z" fill="url(#color-67)" stroke="#000000"/><path d="M267.24355,187.32031l0.07621,-0.1662l0.07907,0.03626l-0.07622,0.1662z" fill="url(#color-68)" stroke="#000000"/><path d="M266.38699,186.9275l0.07622,-0.1662l0.07906,0.03626l-0.07621,0.1662z" fill="url(#color-69)" stroke="#000000"/><path d="M266.54763,186.75746l0.04398,-0.09588l0.79902,0.36644l-0.04397,0.09588z" fill="url(#color-70)" stroke="#000000"/><path d="M266.93618,185.96085l0.03225,-0.07032l0.76068,0.34885l-0.03225,0.07032z" fill="url(#color-71)" stroke="#000000"/><path d="M266.94343,186.79585l0.05931,-0.12933l0.11849,0.05434l-0.05932,0.12933z" fill="url(#color-72)" stroke="#000000"/><path d="M267.12453,186.87891l0.05932,-0.12933l0.09273,0.04252l-0.05931,0.12933z" fill="url(#color-73)" stroke="#000000"/><path d="M266.78548,186.72341l0.05931,-0.12932l0.09274,0.04253l-0.05932,0.12933z" fill="url(#color-74)" stroke="#000000"/><path d="M267.26529,186.94346l0.05931,-0.12933l0.05367,0.02462l-0.05932,0.12933z" fill="url(#color-75)" stroke="#000000"/><path d="M266.68378,186.67676l0.05932,-0.12933l0.05366,0.02462l-0.05931,0.12933z" fill="url(#color-76)" stroke="#000000"/><path d="M267.02431,186.61949l0.05931,-0.12933l0.11849,0.05434l-0.05932,0.12933z" fill="url(#color-77)" stroke="#000000"/><path d="M267.20543,186.70255l0.05931,-0.12933l0.09273,0.04252l-0.05932,0.12933z" fill="url(#color-78)" stroke="#000000"/><path d="M266.86635,186.54706l0.05931,-0.12933l0.09274,0.04253l-0.05931,0.12933z" fill="url(#color-79)" stroke="#000000"/><path d="M267.34617,186.7671l0.05932,-0.12932l0.05367,0.02462l-0.05932,0.12933z" fill="url(#color-80)" stroke="#000000"/><path d="M266.76466,186.50041l0.05931,-0.12932l0.05367,0.02462l-0.0593,0.12933z" fill="url(#color-81)" stroke="#000000"/><path d="M267.10517,186.44313l0.05931,-0.12932l0.11849,0.05434l-0.05932,0.12932z" fill="url(#color-82)" stroke="#000000"/><path d="M267.28631,186.52621l0.0593,-0.12932l0.09273,0.04252l-0.05931,0.12932z" fill="url(#color-83)" stroke="#000000"/><path d="M266.94723,186.3707l0.05931,-0.12932l0.09274,0.04252l-0.05931,0.12932z" fill="url(#color-84)" stroke="#000000"/><path d="M267.42706,186.59074l0.0593,-0.12933l0.05368,0.02462l-0.05931,0.12932z" fill="url(#color-85)" stroke="#000000"/><path d="M266.84554,186.32405l0.05931,-0.12932l0.05367,0.02461l-0.05931,0.12933z" fill="url(#color-86)" stroke="#000000"/><path d="M267.18606,186.26678l0.05931,-0.12933l0.11849,0.05434l-0.05932,0.12933z" fill="url(#color-87)" stroke="#000000"/><path d="M267.36719,186.34985l0.05931,-0.12934l0.09273,0.04252l-0.05932,0.12933z" fill="url(#color-88)" stroke="#000000"/><path d="M267.02812,186.19435l0.05931,-0.12933l0.09274,0.04252l-0.05932,0.12933z" fill="url(#color-89)" stroke="#000000"/><path d="M267.50793,186.41438l0.05931,-0.12932l0.05367,0.02462l-0.05931,0.12933z" fill="url(#color-90)" stroke="#000000"/><path d="M266.92642,186.1477l0.05932,-0.12933l0.05366,0.02461l-0.05931,0.12933z" fill="url(#color-91)" stroke="#000000"/></g><g data-paper-data="{&quot;index&quot;:null}" stroke-width="0"><path d="M264.71449,174.54497l0.7047,0.67743l-0.54584,0.56781l-0.70469,-0.67743z" fill="url(#color-92)" stroke="#000000"/><path d="M264.67796,174.29038l0.18758,0.18032l-0.77002,0.80102l-0.18758,-0.18032z" fill="url(#color-93)" stroke="none"/><path d="M264.38592,174.64999l0.13181,0.12671l-0.13306,0.13842l-0.13181,-0.12671z" fill="url(#color-94)" stroke="#000000"/><path d="M264.18252,174.86159l0.13181,0.12672l-0.10414,0.10833l-0.13181,-0.12672z" fill="url(#color-95)" stroke="#000000"/><path d="M264.5633,174.46548l0.13181,0.12671l-0.10414,0.10833l-0.13181,-0.12672z" fill="url(#color-96)" stroke="#000000"/><path d="M264.02444,175.02602l0.13181,0.12672l-0.06027,0.06271l-0.13181,-0.12672z" fill="url(#color-97)" stroke="#000000"/><path d="M264.6775,174.34668l0.13181,0.12671l-0.06027,0.0627l-0.13182,-0.12671z" fill="url(#color-98)" stroke="#000000"/><path d="M264.78513,174.55436l0.07603,0.0731l-0.60919,0.63371l-0.07603,-0.0731z" fill="url(#color-99)" stroke="#000000"/><path d="M265.40931,175.18364l0.05577,0.05361l-0.57995,0.6033l-0.05577,-0.05362z" fill="url(#color-100)" stroke="#000000"/><path d="M264.61851,174.91541l0.10257,0.09861l-0.09035,0.09398l-0.10257,-0.0986z" fill="url(#color-101)" stroke="#000000"/><path d="M264.48042,175.05906l0.10256,0.09861l-0.07071,0.07354l-0.10256,-0.0986z" fill="url(#color-102)" stroke="#000000"/><path d="M264.73894,174.79014l0.10256,0.09861l-0.07071,0.07354l-0.10256,-0.0986z" fill="url(#color-103)" stroke="#000000"/><path d="M264.37311,175.1707l0.10257,0.0986l-0.04092,0.04257l-0.10257,-0.0986z" fill="url(#color-104)" stroke="#000000"/><path d="M264.81646,174.70949l0.10257,0.09861l-0.04092,0.04257l-0.10257,-0.0986z" fill="url(#color-105)" stroke="#000000"/><path d="M264.75838,175.04988l0.10256,0.09861l-0.09034,0.09399l-0.10257,-0.09861z" fill="url(#color-106)" stroke="#000000"/><path d="M264.62029,175.19352l0.10257,0.09861l-0.07071,0.07354l-0.10257,-0.0986z" fill="url(#color-107)" stroke="#000000"/><path d="M264.87881,174.92461l0.10256,0.0986l-0.07071,0.07354l-0.10256,-0.0986z" fill="url(#color-108)" stroke="#000000"/><path d="M264.51298,175.30516l0.10257,0.09861l-0.04092,0.04257l-0.10256,-0.0986z" fill="url(#color-109)" stroke="#000000"/><path d="M264.95633,174.84395l0.10257,0.0986l-0.04092,0.04257l-0.10257,-0.0986z" fill="url(#color-110)" stroke="#000000"/><path d="M264.89824,175.18433l0.10256,0.09861l-0.09034,0.09398l-0.10256,-0.0986z" fill="url(#color-111)" stroke="#000000"/><path d="M264.76015,175.32798l0.10257,0.0986l-0.07071,0.07354l-0.10257,-0.0986z" fill="url(#color-112)" stroke="#000000"/><path d="M265.01867,175.05906l0.10257,0.09861l-0.07071,0.07354l-0.10257,-0.09861z" fill="url(#color-113)" stroke="#000000"/><path d="M264.65284,175.43961l0.10256,0.09861l-0.04092,0.04257l-0.10256,-0.09861z" fill="url(#color-114)" stroke="#000000"/><path d="M265.0962,174.9784l0.10257,0.09861l-0.04092,0.04257l-0.10256,-0.09861z" fill="url(#color-115)" stroke="#000000"/><path d="M265.03812,175.31879l0.10256,0.0986l-0.09034,0.09399l-0.10256,-0.0986z" fill="url(#color-116)" stroke="#000000"/><path d="M264.90002,175.46244l0.10257,0.09861l-0.07071,0.07354l-0.10257,-0.0986z" fill="url(#color-117)" stroke="#000000"/><path d="M265.15853,175.19352l0.10257,0.0986l-0.0707,0.07354l-0.10257,-0.0986z" fill="url(#color-118)" stroke="#000000"/><path d="M264.79271,175.57408l0.10256,0.09861l-0.04091,0.04257l-0.10257,-0.0986z" fill="url(#color-119)" stroke="#000000"/><path d="M265.23608,175.11287l0.10256,0.0986l-0.04092,0.04257l-0.10256,-0.0986z" fill="url(#color-120)" stroke="#000000"/></g><g data-paper-data="{&quot;index&quot;:null}" stroke-width="0"><path d="M267.31414,172.94834l0.38157,0.89994l-0.72514,0.30746l-0.38157,-0.89993z" fill="url(#color-121)" stroke="#000000"/><path d="M267.38065,172.69988l0.10158,0.23956l-1.02296,0.43374l-0.10157,-0.23958z" fill="url(#color-122)" stroke="none"/><path d="M266.97074,172.91572l0.07137,0.16832l-0.17678,0.07495l-0.07138,-0.16833z" fill="url(#color-123)" stroke="#000000"/><path d="M266.70052,173.03029l0.07137,0.16833l-0.13834,0.05865l-0.07138,-0.16834z" fill="url(#color-124)" stroke="#000000"/><path d="M267.20635,172.81579l0.07139,0.16833l-0.13836,0.05866l-0.07137,-0.16833z" fill="url(#color-125)" stroke="#000000"/><path d="M266.49052,173.11932l0.07139,0.16834l-0.08008,0.03395l-0.07138,-0.16834z" fill="url(#color-126)" stroke="#000000"/><path d="M267.3581,172.75145l0.07138,0.16834l-0.08008,0.03395l-0.07138,-0.16834z" fill="url(#color-127)" stroke="#000000"/><path d="M267.3754,172.98474l0.04118,0.09712l-0.8093,0.34314l-0.04117,-0.09712z" fill="url(#color-128)" stroke="#000000"/><path d="M267.70185,173.80874l0.0302,0.07122l-0.77046,0.32668l-0.03019,-0.07122z" fill="url(#color-129)" stroke="#000000"/><path d="M267.08023,173.2512l0.05554,0.13099l-0.12001,0.05088l-0.05553,-0.13099z" fill="url(#color-130)" stroke="#000000"/><path d="M266.89678,173.32898l0.05553,0.13099l-0.09393,0.03983l-0.05553,-0.131z" fill="url(#color-131)" stroke="#000000"/><path d="M267.2402,173.18335l0.05553,0.131l-0.09393,0.03984l-0.05553,-0.131z" fill="url(#color-132)" stroke="#000000"/><path d="M266.75422,173.38943l0.05554,0.13099l-0.05437,0.02304l-0.05554,-0.131z" fill="url(#color-133)" stroke="#000000"/><path d="M267.34321,173.13969l0.05553,0.131l-0.05436,0.02304l-0.05554,-0.13099z" fill="url(#color-134)" stroke="#000000"/><path d="M267.15596,173.42983l0.05554,0.13099l-0.12001,0.05088l-0.05553,-0.131z" fill="url(#color-135)" stroke="#000000"/><path d="M266.97249,173.50761l0.05554,0.13099l-0.09391,0.03982l-0.05554,-0.131z" fill="url(#color-136)" stroke="#000000"/><path d="M267.31594,173.36198l0.05554,0.131l-0.09393,0.03984l-0.05553,-0.131z" fill="url(#color-137)" stroke="#000000"/><path d="M266.82996,173.56805l0.05553,0.13099l-0.05437,0.02305l-0.05553,-0.13101z" fill="url(#color-138)" stroke="#000000"/><path d="M267.41893,173.31832l0.05554,0.13099l-0.05436,0.02304l-0.05554,-0.13099z" fill="url(#color-139)" stroke="#000000"/><path d="M267.2317,173.60846l0.05553,0.13098l-0.12001,0.05088l-0.05553,-0.131z" fill="url(#color-140)" stroke="#000000"/><path d="M267.04823,173.68622l0.05553,0.13098l-0.09392,0.03983l-0.05553,-0.13098z" fill="url(#color-141)" stroke="#000000"/><path d="M267.39168,173.54061l0.05553,0.13099l-0.09393,0.03984l-0.05553,-0.13099z" fill="url(#color-142)" stroke="#000000"/><path d="M266.90569,173.74669l0.05553,0.13098l-0.05438,0.02305l-0.05554,-0.13099z" fill="url(#color-143)" stroke="#000000"/><path d="M267.49469,173.49694l0.05554,0.13099l-0.05437,0.02304l-0.05554,-0.13099z" fill="url(#color-144)" stroke="#000000"/><path d="M267.30744,173.78705l0.05553,0.131l-0.12001,0.05089l-0.05553,-0.131z" fill="url(#color-145)" stroke="#000000"/><path d="M267.12397,173.86484l0.05555,0.13099l-0.09392,0.03983l-0.05554,-0.13099z" fill="url(#color-146)" stroke="#000000"/><path d="M267.46741,173.71924l0.05554,0.13099l-0.09393,0.03984l-0.05553,-0.13099z" fill="url(#color-147)" stroke="#000000"/><path d="M266.98143,173.92529l0.05554,0.13099l-0.05437,0.02305l-0.05554,-0.13099z" fill="url(#color-148)" stroke="#000000"/><path d="M267.57043,173.67557l0.05553,0.13099l-0.05436,0.02304l-0.05555,-0.13099z" fill="url(#color-149)" stroke="#000000"/></g><g data-paper-data="{&quot;index&quot;:null}" stroke-width="0"><path d="M263.0091,176.90834l0.9078,0.36245l-0.29206,0.73148l-0.90779,-0.36245z" fill="url(#color-150)" stroke="#000000"/><path d="M262.87947,176.68622l0.24166,0.09649l-0.412,1.0319l-0.24166,-0.09649z" fill="url(#color-151)" stroke="none"/><path d="M262.74421,177.12928l0.1698,0.0678l-0.0712,0.17831l-0.16981,-0.06779z" fill="url(#color-152)" stroke="#000000"/><path d="M262.63538,177.40186l0.1698,0.0678l-0.05572,0.13955l-0.16981,-0.06779z" fill="url(#color-153)" stroke="#000000"/><path d="M262.83912,176.89159l0.16981,0.0678l-0.05573,0.13956l-0.1698,-0.06779z" fill="url(#color-154)" stroke="#000000"/><path d="M262.55081,177.6137l0.1698,0.06779l-0.03225,0.08078l-0.16981,-0.0678z" fill="url(#color-155)" stroke="#000000"/><path d="M262.90022,176.73854l0.16981,0.0678l-0.03225,0.08078l-0.16981,-0.06779z" fill="url(#color-156)" stroke="#000000"/><path d="M263.07809,176.89046l0.09797,0.03912l-0.32595,0.81637l-0.09797,-0.03911z" fill="url(#color-157)" stroke="#000000"/><path d="M263.89315,177.23862l0.07184,0.02868l-0.3103,0.7772l-0.07185,-0.02869z" fill="url(#color-158)" stroke="#000000"/><path d="M263.05957,177.28768l0.13214,0.05276l-0.04834,0.12106l-0.13214,-0.05276z" fill="url(#color-159)" stroke="#000000"/><path d="M262.98569,177.47273l0.13214,0.05276l-0.03782,0.09475l-0.13214,-0.05276z" fill="url(#color-160)" stroke="#000000"/><path d="M263.12401,177.1263l0.13213,0.05276l-0.03783,0.09475l-0.13214,-0.05276z" fill="url(#color-161)" stroke="#000000"/><path d="M262.92827,177.61654l0.13214,0.05276l-0.0219,0.05483l-0.13214,-0.05277z" fill="url(#color-162)" stroke="#000000"/><path d="M263.16551,177.02239l0.13214,0.05277l-0.0219,0.05482l-0.13214,-0.05276z" fill="url(#color-163)" stroke="#000000"/><path d="M263.23976,177.35963l0.13214,0.05276l-0.04834,0.12106l-0.13214,-0.05276z" fill="url(#color-164)" stroke="#000000"/><path d="M263.16588,177.54468l0.13214,0.05275l-0.03782,0.09475l-0.13214,-0.05277z" fill="url(#color-165)" stroke="#000000"/><path d="M263.30419,177.19824l0.13214,0.05275l-0.03783,0.09475l-0.13214,-0.05275z" fill="url(#color-166)" stroke="#000000"/><path d="M263.10846,177.68848l0.13213,0.05276l-0.0219,0.05484l-0.13214,-0.05277z" fill="url(#color-167)" stroke="#000000"/><path d="M263.34569,177.09434l0.13213,0.05276l-0.0219,0.05483l-0.13214,-0.05275z" fill="url(#color-168)" stroke="#000000"/><path d="M263.41995,177.43156l0.13213,0.05276l-0.04833,0.12106l-0.13213,-0.05277z" fill="url(#color-169)" stroke="#000000"/><path d="M263.34605,177.61663l0.13213,0.05274l-0.03782,0.09475l-0.13213,-0.05276z" fill="url(#color-170)" stroke="#000000"/><path d="M263.48438,177.27019l0.13213,0.05275l-0.03782,0.09475l-0.13213,-0.05276z" fill="url(#color-171)" stroke="#000000"/><path d="M263.28864,177.76043l0.13214,0.05274l-0.0219,0.05485l-0.13213,-0.05275z" fill="url(#color-172)" stroke="#000000"/><path d="M263.52588,177.16628l0.13213,0.05275l-0.02189,0.05484l-0.13214,-0.05276z" fill="url(#color-173)" stroke="#000000"/><path d="M263.60013,177.50351l0.13214,0.05276l-0.04834,0.12106l-0.13214,-0.05277z" fill="url(#color-174)" stroke="#000000"/><path d="M263.52624,177.68857l0.13215,0.05276l-0.03782,0.09474l-0.13214,-0.05276z" fill="url(#color-175)" stroke="#000000"/><path d="M263.66456,177.34214l0.13214,0.05275l-0.03782,0.09475l-0.13214,-0.05277z" fill="url(#color-176)" stroke="#000000"/><path d="M263.46884,177.83237l0.13213,0.05275l-0.0219,0.05483l-0.13214,-0.05275z" fill="url(#color-177)" stroke="#000000"/><path d="M263.70606,177.23823l0.13214,0.05276l-0.02189,0.05482l-0.13214,-0.05275z" fill="url(#color-178)" stroke="#000000"/></g><path d="M270.44374,185.84746c-3.15877,0 -5.54479,-2.59247 -5.54479,-5.82192c0,-3.22945 2.38601,-5.87296 5.54479,-5.87296c3.15877,0 5.71948,2.618 5.71948,5.84744c0,3.22945 -2.56071,5.84744 -5.71948,5.84744z" data-paper-data="{&quot;index&quot;:null}" fill="url(#color-179)" stroke="none" stroke-width="0.5"/><path d="M270.55177,185.61815c-2.99748,0 -5.42739,-2.48432 -5.42739,-5.54883c0,-3.06454 2.42993,-5.54883 5.42739,-5.54883c2.99748,0 5.42739,2.48431 5.42739,5.54883c0,3.06454 -2.42993,5.54883 -5.42739,5.54883z" data-paper-data="{&quot;index&quot;:null}" fill="url(#color-180)" stroke="none" stroke-width="0.5"/><path d="M270.57261,185.2233c-2.8752,0 -5.2823,-2.36407 -5.2823,-5.24881c0,-2.88475 2.40711,-5.19777 5.2823,-5.19777c2.8752,0 5.20601,2.33855 5.20601,5.22329c0,2.88475 -2.33081,5.22329 -5.20601,5.22329z" data-paper-data="{&quot;index&quot;:null}" fill="url(#color-181)" stroke="none" stroke-width="0.5"/><path d="M270.00001,185.2232c-2.88469,0 -5.22319,-2.33851 -5.22319,-5.22319c0,-2.88469 2.33851,-5.22319 5.22319,-5.22319c2.88469,0 5.22319,2.33851 5.22319,5.22319c0,2.88469 -2.33851,5.22319 -5.22319,5.22319z" data-paper-data="{&quot;index&quot;:null}" fill="url(#color-182)" stroke="none" stroke-width="0.5"/><path d="M268.23395,175.0528c0.10568,-0.03655 0.21257,-0.06851 0.32049,-0.09644c0.37851,-0.12244 0.8032,-0.13599 1.16771,-0.17335c0.29134,-0.02986 0.8216,-0.01565 0.88016,-0.01547l0.01276,0.00889l0.00765,0.00118l0.00128,-0.0071l0.21178,0.0389c0.39522,0.03812 1.65147,0.541 1.65147,0.63527c0,0.13589 -0.13671,0.17204 -0.15368,0.16826l-0.54156,0.00099l0.00379,-0.01914c-0.70508,0.04757 -1.22575,-0.14691 -1.95092,-0.17599c-0.42926,-0.0172 -1.06909,0.1327 -1.48376,0.12849c-0.0973,0.03104 -0.83593,-0.17867 -0.83593,-0.17867c0,0 0.66751,-0.31439 0.70876,-0.31582z" fill-opacity="0.65098" fill="#2e46ed" stroke="none" stroke-width="0.5"/><path d="M266.429,176.19045l0.04861,0.01224c0.00486,-0.03825 0.02082,-0.08003 0.0538,-0.12425c0.14913,-0.2 0.34797,-0.05 0.34797,-0.05c1.28026,0.96837 3.88332,0.49313 5.42307,0.38198c0.23145,-0.00011 1.3164,-0.28005 1.52753,0.10315c0.0482,0.08749 0.24362,0.16645 0.15413,0.34012c-0.35791,0.69454 -4.52398,0.47722 -5.24517,0.3735c-0.80196,-0.04745 -1.47712,-0.32814 -2.24534,-0.50514l-0.18516,-0.04651c0,0 -0.10394,-0.12725 -0.08592,-0.19976c0.02154,-0.08665 0.20649,-0.28532 0.20649,-0.28532z" fill-opacity="0.52157" fill="#d6947c" stroke="none" stroke-width="0.5"/><path d="M274.23198,176.88538c0.02488,0.24876 -0.22388,0.27364 -0.22388,0.27364l-0.156,0.00473c-0.46666,0.19292 -1.0356,0.40395 -1.52849,0.38287c-1.92471,0.12 -4.34183,0.26317 -6.118,-0.68897c0,0 -0.22012,-0.11852 -0.10159,-0.33864c0.11852,-0.22012 0.33864,-0.1016 0.33864,-0.1016c1.6931,0.9162 4.04818,0.74406 5.882,0.62921c0.4077,0.0406 0.94421,-0.18004 1.33514,-0.3444l0.29855,-0.04072c0,0 0.24876,-0.02488 0.27364,0.22388z" fill-opacity="0.45098" fill="#d67450" stroke="none" stroke-width="0.5"/><path d="M274.26959,176.98298c0.2,0.15 0.05,0.35 0.05,0.35l-0.22346,0.18688c-0.83081,0.15024 -1.54387,0.45845 -2.41153,0.45781c-1.73696,0.27692 -4.12346,0.09425 -5.73018,-0.77976c0,0 -0.21947,-0.11971 -0.09976,-0.33919c0.11971,-0.21947 0.33919,-0.09976 0.33919,-0.09976c1.53483,0.83969 3.79249,0.97998 5.45164,0.72024c0.8502,-0.00062 1.54474,-0.30209 2.3612,-0.45128l-0.0871,0.00505c0,0 0.15,-0.2 0.35,-0.05z" fill-opacity="0.45098" fill="#d68574" stroke="none" stroke-width="0.5"/><path d="M274.51585,177.44484c0.07905,0.23717 -0.15812,0.31623 -0.15812,0.31623l-0.21782,0.0722c-0.88088,0.23988 -1.75987,0.32615 -2.64151,0.5468c-2.07304,0.51105 -3.76438,-0.43408 -5.71537,-0.74594c0,0 -0.2466,-0.0411 -0.2055,-0.2877c0.0411,-0.2466 0.2877,-0.2055 0.2877,-0.2055c1.86368,0.32095 3.53379,1.25666 5.5119,0.75406c0.87973,-0.2197 1.75363,-0.30443 2.63122,-0.54411l0.19127,-0.06416c0,0 0.23717,-0.07905 0.31623,0.15812z" fill-opacity="0.37647" fill="#d69a8e" stroke="none" stroke-width="0.5"/><path d="M274.64578,177.65795c0.13867,0.20801 -0.06934,0.34668 -0.06934,0.34668l-0.287,0.17195c-0.81767,0.18859 -1.88969,0.30324 -2.62857,0.67269c-2.03552,0.51868 -4.11239,-0.56317 -6.03888,-1.08419c0,0 -0.24119,-0.06578 -0.17541,-0.30697c0.06578,-0.24119 0.30697,-0.17541 0.30697,-0.17541c1.79743,0.49383 3.83122,1.56171 5.73385,1.09763c0.75014,-0.37508 1.85935,-0.49925 2.68961,-0.69094l0.12208,-0.10078c0,0 0.20802,-0.13867 0.34669,0.06934z" fill-opacity="0.4" fill="#d68d7e" stroke="none" stroke-width="0.5"/><path d="M274.6803,178.21326c0.06063,0.24254 -0.1819,0.30317 -0.1819,0.30317l-0.10682,0.02616c-0.98006,0.1745 -1.97037,0.56932 -2.94813,0.68423c-2.16476,0.23595 -3.93212,-0.5696 -6.01644,-1.05024c0,0 -0.2436,-0.05622 -0.18738,-0.29981c0.05622,-0.2436 0.29981,-0.18738 0.29981,-0.18738c2.01343,0.46497 3.76326,1.30058 5.84719,1.04067c0.95097,-0.09838 1.96213,-0.50177 2.9155,-0.67941l0.075,-0.01929c0,0 0.24253,-0.06063 0.30317,0.1819z" fill-opacity="0.74902" fill="#e8ccc5" stroke="none" stroke-width="0.5"/><path d="M275.08766,178.9359c0.15583,0.19521 -0.03896,0.35139 -0.03896,0.35139l-0.14352,0.11163c-1.19098,0.68492 -2.6439,1.20079 -4.0166,1.3066c-1.94756,0.00102 -3.9238,-1.50796 -5.77314,-1.36419c0,0 -0.24872,0.01917 -0.26785,-0.23009c-0.01913,-0.24927 0.22958,-0.26843 0.22958,-0.26843c1.88372,-0.14408 3.83114,1.36199 5.79226,1.36308c1.27628,-0.09841 2.68718,-0.5842 3.78437,-1.23886l0.08325,-0.07018c0,0 0.19479,-0.15617 0.35062,0.03904z" fill-opacity="0.63529" fill="#e9cdc7" stroke="none" stroke-width="0.5"/><path d="M274.84319,178.20755c0.11181,0.2236 -0.1118,0.33541 -0.1118,0.33541l-0.09662,0.04165c-1.06968,0.2669 -2.0566,0.89629 -3.14963,0.89261c-1.56393,0.3185 -4.83874,-0.39077 -6.19872,-1.1935c0,0 -0.21437,-0.12863 -0.08575,-0.343c0.12862,-0.21437 0.343,-0.08575 0.343,-0.08575c1.25915,0.77138 4.40575,1.41711 5.8922,1.12468c1.06516,-0.00315 2.03003,-0.61768 3.07763,-0.88012l-0.00571,-0.0038c0,0 0.2236,-0.1118 0.33541,0.11181z" fill-opacity="0.67451" fill="#e8dcda" stroke="none" stroke-width="0.5"/><path d="M275.1728,179.393c0.08506,0.23495 -0.14886,0.32039 -0.14886,0.32039l-0.24891,0.09091c-1.44515,0.52105 -2.51443,1.39468 -4.11694,1.19543c-1.91889,-0.17521 -3.73363,-1.07377 -5.62598,-1.38832c0,0 -0.24552,-0.0411 -0.2046,-0.2877c0.04092,-0.2466 0.28644,-0.2055 0.28644,-0.2055c1.88084,0.31727 3.69156,1.21038 5.59755,1.38441c1.49414,0.18951 2.54103,-0.66892 3.8934,-1.16821l0.24891,-0.09091c0,0 0.23392,-0.08544 0.31899,0.14951z" fill-opacity="0.67451" fill="#e8dcda" stroke="none" stroke-width="0.5"/><path d="M274.21347,177.38857c0.06115,-0.04149 0.19581,-0.10388 0.33046,0.02672c0.18225,0.17677 0,0.35356 0,0.35356l-0.13787,0.08714c-0.65485,0.17167 -1.32588,0.24732 -1.98332,0.42946c-2.45494,0.79294 -4.25518,-0.45772 -6.62788,-0.58012c0,0 -0.25735,-0.01387 -0.24305,-0.26349c0.0143,-0.24962 0.27164,-0.23575 0.27164,-0.23575c2.29773,0.12857 4.08126,1.36723 6.44693,0.60169c0.64308,-0.17827 1.30291,-0.25394 1.94308,-0.41921z" fill-opacity="0.58039" fill="#d6947c" stroke="none" stroke-width="0.5"/><path d="M274.97142,178.40795c0.13721,0.20801 -0.06861,0.34668 -0.06861,0.34668l-0.12015,0.07239c-1.40051,0.51345 -2.76869,1.17938 -4.28448,1.05728c-1.44331,-0.37032 -3.81821,-1.05284 -5.26759,-1.04223c0,0 -0.24737,0 -0.24737,-0.25c0,-0.25 0.24737,-0.25 0.24737,-0.25c1.51355,0.00883 3.84183,0.67393 5.34685,1.04868c1.41414,0.10532 2.72776,-0.55155 4.03616,-1.03363l0.01479,-0.01852c0,0 0.20582,-0.13867 0.34305,0.06934z" fill-opacity="0.45098" fill="#d6947c" stroke="none" stroke-width="0.5"/><path d="M274.80392,178.9936c0.09848,0.22978 -0.1313,0.32827 -0.1313,0.32827l-0.18889,0.07877c-1.02249,0.29117 -2.01403,0.90245 -3.08397,0.98507c-2.15434,0.35435 -3.99045,-1.35914 -6.12912,-1.22588c0,0 -0.24957,0.01468 -0.26425,-0.23489c-0.01468,-0.24957 0.23489,-0.26425 0.23489,-0.26425c2.12058,-0.11825 3.99319,1.58442 6.09815,1.22867c1.03578,-0.07936 2.01549,-0.68519 3.00694,-0.96948l0.12929,-0.05759c0,0 0.22979,-0.09848 0.32827,0.13131z" fill-opacity="0.45098" fill="#d69982" stroke="none" stroke-width="0.5"/><path d="M274.64776,178.65867c0.03455,-0.03047 0.18867,-0.14908 0.3428,0.00663c0.17499,0.17677 0,0.35356 0,0.35356l-0.08681,0.06955c-1.13098,0.57129 -2.65584,1.21552 -3.92209,1.11712c-1.96661,-0.00183 -3.73079,-0.99485 -5.64198,-1.20589c0,0 -0.24595,-0.02761 -0.21862,-0.27608c0.02733,-0.24847 0.27328,-0.22086 0.27328,-0.22086c1.89971,0.21642 3.65399,1.20509 5.6063,1.2032c1.1746,0.09128 2.59117,-0.51612 3.6471,-1.04723z" fill-opacity="0.4" fill="#d68d7e" stroke="none" stroke-width="0.5"/><path d="M274.86762,178.06107c0.03145,0.24807 -0.22019,0.27908 -0.22019,0.27908l-0.13569,0.01182c-0.8937,0.28811 -1.614,0.62192 -2.57735,0.73962c-2.21004,0.00295 -4.30787,-1.00815 -6.42484,-0.99952c0,0 -0.2536,0 -0.2536,-0.25c0,-0.25 0.2536,-0.25 0.2536,-0.25c2.12192,0.00757 4.18798,0.99725 6.39333,1.00048c0.92089,-0.11456 1.59525,-0.43005 2.44848,-0.71492l0.23317,-0.03363c0,0 0.25164,-0.03101 0.2831,0.21706z" fill-opacity="0.37647" fill="#f4e8e6" stroke="none" stroke-width="0.5"/><path d="M275.23322,179.77389c0,0.25 -0.24946,0.25 -0.24946,0.25l0.0005,-0.00962c-1.43623,0.40782 -2.57907,1.41914 -4.09084,1.41858c-1.99234,-0.13259 -3.89983,-1.50368 -5.86529,-1.47714c0,0 -0.24946,0 -0.24946,-0.25c0,-0.25 0.24946,-0.25 0.24946,-0.25c1.99865,0.01992 3.86856,1.34232 5.88189,1.47741c1.42422,-0.00055 2.57224,-1.00587 3.93717,-1.39961l0.13656,-0.00962c0,0 0.24946,0 0.24946,0.25z" fill-opacity="0.37647" fill="#f4e8e6" stroke="none" stroke-width="0.5"/><path d="M275.02902,180.59208c0,0.25 -0.24946,0.25 -0.24946,0.25l0.028,-0.01105c-1.52857,0.47126 -2.5195,1.27489 -4.1844,1.14571c-1.77542,-0.28014 -3.7387,-1.28153 -5.51441,-1.02354c0,0 -0.24695,0.03536 -0.28223,-0.21213c-0.03528,-0.24749 0.21167,-0.28284 0.21167,-0.28284c0.07342,-0.01038 0.14705,-0.01876 0.22085,-0.02528c-0.08285,-0.00913 -0.16619,-0.01697 -0.25005,-0.02342c0,0 -0.24872,-0.01917 -0.22959,-0.26844c0.01913,-0.24927 0.26785,-0.23009 0.26785,-0.23009c2.0009,0.15473 3.69819,1.09703 5.66683,1.36345c1.54874,0.00044 2.69294,-0.97099 4.14104,-1.33399l0.08318,-0.00746c0,0 0.24946,0 0.24946,0.25c0,0.18836 -0.1416,0.2348 -0.21143,0.24625c0.0308,0.03668 0.05268,0.08879 0.05268,0.16284z" fill-opacity="0.54118" fill="#d68b70" stroke="none" stroke-width="0.5"/><path d="M265.02763,180.20974c0.24382,-0.04472 0.28816,0.20125 0.28816,0.20125l0.03031,0.17175c1.58227,-0.09246 3.46373,0.65158 5.07735,1.10387c1.36735,-0.11086 2.80437,-0.74367 3.86758,-0.77492c0.09228,-0.04113 0.18378,-0.08143 0.27443,-0.12036l0.14949,-0.20736c0.0449,-0.06385 0.11877,-0.10553 0.20228,-0.10553c0.13687,0 0.24782,0.11193 0.24782,0.25c0,0.01698 -0.00168,0.03355 -0.00487,0.04958l-0.04419,0.24515l-0.09257,-0.01698l-0.0792,0.10986c-0.32548,0.69549 -1.49251,1.01103 -2.7254,1.11779c-0.4209,0.09407 -0.84355,0.1383 -1.25914,0.10538c-0.09183,-0.02134 -0.1851,-0.04441 -0.27968,-0.06895c-0.64235,-0.02182 -1.20307,-0.08622 -1.54707,-0.16338c-0.87985,-0.26156 -4.17212,-0.51802 -4.26273,-1.37872l-0.04206,-0.22773c0,0 -0.04433,-0.24597 0.19949,-0.29069z" fill-opacity="0.45098" fill="#d6947c" stroke="none" stroke-width="0.5"/><path d="M273.66504,176.31935c0,0.25 -0.25,0.25 -0.25,0.25h-0.20454c-0.26502,-0.00076 -0.48718,0.03205 -0.74251,0.10191c-1.66703,0.60157 -4.0279,0.10704 -5.7113,-0.19685c0,0 -0.24597,-0.04472 -0.20125,-0.29069c0.04472,-0.24597 0.29069,-0.20125 0.29069,-0.20125c1.59807,0.29244 3.89138,0.79123 5.47052,0.21224c0.30512,-0.083 0.57743,-0.12458 0.89385,-0.12537h0.20454c0,0 0.25,0 0.25,0.25z" fill-opacity="0.33725" fill="#d67d5c" stroke="none" stroke-width="0.5"/><path d="M273.19293,175.88559c0.09152,0.23212 -0.13729,0.32496 -0.13729,0.32496l-0.1387,0.05453c-1.97746,0.53084 -3.76249,-0.0071 -5.75031,-0.15091c0,0 -0.2458,-0.01781 -0.22824,-0.26718c0.01756,-0.24937 0.26336,-0.23156 0.26336,-0.23156c1.91538,0.139 3.68545,0.7133 5.58552,0.16727l0.08533,-0.03638c0,0 0.22881,-0.09285 0.32033,0.13927z" fill-opacity="0.45098" fill="#d67d5d" stroke="none" stroke-width="0.5"/><path d="M272.91504,175.64913c0.20819,0.1384 -0.25,0.25 -0.25,0.25l-0.04619,-0.00404c-1.71964,0.31071 -3.32042,-0.13361 -4.99927,-0.13233c0,0 -0.41495,-0.06214 -0.25,-0.25c0.18367,-0.20918 0.39286,-0.16837 0.39286,-0.16837c1.64906,0.00117 4.25464,-0.2922 5.1526,0.30474z" fill-opacity="0.29804" fill="#5c9bd6" stroke="none" stroke-width="0.5"/><path d="M272.48199,175.39905c0.07905,0.17704 -0.05608,0.21565 -0.05608,0.21565l-0.1246,0.02577c-1.34269,0.09109 -3.11254,0.14756 -4.40145,-0.08963c0,0 -0.24253,-0.04526 -0.1819,-0.22631c0.06063,-0.18105 0.30317,-0.13578 0.30317,-0.13578c1.23542,0.23432 3.93282,-0.06878 4.46086,0.2103z" fill-opacity="0.29804" fill="#5c7ed6" stroke="none" stroke-width="0.5"/><path d="M275.00484,181.26495c0.14531,0.20344 -0.05813,0.34874 -0.05813,0.34874l-0.15091,0.10754c-1.16051,0.90239 -2.5564,0.98448 -3.97166,0.98448c-1.91899,-0.00095 -3.7114,-0.92672 -5.61009,-1.06892c0,0 -0.24927,-0.01917 -0.23009,-0.26843c0.01918,-0.24927 0.26844,-0.23009 0.26844,-0.23009c1.88695,0.14856 3.66754,1.06844 5.57174,1.06745c1.30045,0 2.5962,-0.04788 3.66469,-0.87915l0.16727,-0.11974c0,0 0.20343,-0.14531 0.34874,0.05813z" fill-opacity="0.45098" fill="#d67d5d" stroke="none" stroke-width="0.5"/><path d="M274.65628,181.91317c0.15472,0.19521 -0.03868,0.35139 -0.03868,0.35139l-0.11524,0.09303c-0.78908,0.61739 -1.97128,0.75427 -2.94597,0.80265c-2.14419,-0.14183 -4.11305,-1.04065 -6.24833,-1.15947c0,0 -0.24729,-0.01387 -0.23355,-0.26348c0.01374,-0.24962 0.26102,-0.23575 0.26102,-0.23575c2.1306,0.12037 4.08948,1.01229 6.22497,1.15872c0.85899,-0.04413 1.94354,-0.15022 2.63775,-0.69735l0.10991,-0.08879c0,0 0.1934,-0.15617 0.34811,0.03904z" fill-opacity="0.45098" fill="#d6947c" stroke="none" stroke-width="0.5"/><path d="M274.50942,182.47613c0.13867,0.20801 -0.06933,0.34669 -0.06933,0.34669l-0.1021,0.06443c-1.02184,0.47162 -1.90497,0.64776 -3.03235,0.56778c-1.94664,-0.15099 -3.90821,-0.74413 -5.84441,-1.09426c0,0 -0.24597,-0.04472 -0.20125,-0.29069c0.04472,-0.24597 0.29069,-0.20125 0.29069,-0.20125c1.91735,0.35035 3.86427,0.94044 5.79195,1.08756c1.04629,0.07527 1.83852,-0.0859 2.78583,-0.52313l0.03428,-0.02648c0,0 0.20801,-0.13868 0.34668,0.06933z" fill-opacity="0.45098" fill="#d67d5d" stroke="none" stroke-width="0.5"/><path d="M274.25877,182.87996c0.09722,0.22979 -0.12963,0.32827 -0.12963,0.32827l-0.17624,0.07557c-1.4871,0.49726 -2.81109,0.36968 -4.30571,0.14168c-0.07471,0.03858 -0.15584,0.02831 -0.15584,0.02831l-0.22321,-0.0324c-1.08086,-0.34605 -2.39373,-0.75292 -3.51578,-0.64851c0,0 -0.2458,0.02263 -0.26814,-0.22634c-0.02235,-0.24897 0.22345,-0.27161 0.22345,-0.27161c1.18701,-0.10805 2.56535,0.30414 3.70911,0.66967l0.01424,0.00137c0.08007,-0.04733 0.17335,-0.03279 0.17335,-0.03279c1.46189,0.22911 2.74518,0.3904 4.19243,-0.10371l0.13789,-0.0608c0,0 0.22686,-0.09848 0.32408,0.13131z" fill-opacity="0.45098" fill="#d67d5d" stroke="none" stroke-width="0.5"/><path d="M275.04175,181.29149c0.1166,0.22361 -0.1166,0.33541 -0.1166,0.33541l-0.04854,0.01706c-1.36836,1.02841 -2.0833,1.25219 -3.872,0.93886c-1.76882,-0.15367 -3.7885,-1.06815 -5.55951,-0.75175c0,0 -0.25653,0.04472 -0.30317,-0.20125c-0.04664,-0.24597 0.20989,-0.29069 0.20989,-0.29069c1.84823,-0.31553 3.88333,0.58735 5.72311,0.74825c1.64543,0.28564 2.23713,0.13162 3.47592,-0.83386l0.14109,-0.07384c0,0 0.23321,-0.1118 0.34981,0.1118z" fill-opacity="0.45098" fill="#d67d5d" stroke="none" stroke-width="0.5"/><path d="M273.1545,183.97853c0.02226,0.24897 -0.22261,0.27161 -0.22261,0.27161l-0.24076,0.0222c-0.11838,0.01563 -0.23677,0.03126 -0.35515,0.04689c-1.93618,-0.13328 -4.01583,-0.26449 -5.90441,-0.57147c0,0 -0.24254,-0.0411 -0.20211,-0.2877c0.04042,-0.2466 0.28296,-0.2055 0.28296,-0.2055c0.79405,0.14149 1.63195,0.23887 2.48024,0.3156c-0.96566,-0.22474 -1.91996,-0.47809 -2.94737,-0.47809c0,0 -0.24387,0 -0.24387,-0.25c0,-0.25 0.24387,-0.25 0.24387,-0.25c1.84919,0 3.46143,0.81818 5.32087,0.81818c0.74238,0 1.48817,-0.08619 2.21775,-0.22324l-0.02514,-0.0075c0,0 0.20291,-0.13868 0.33819,0.06934c0.13528,0.20801 -0.06764,0.34669 -0.06764,0.34669l-0.15816,0.08341c-0.21025,0.03891 -0.4217,0.07402 -0.63395,0.10444c0.05559,0.02968 0.1076,0.0866 0.11731,0.19514z" fill-opacity="0.37647" fill="#f4e8e6" stroke="none" stroke-width="0.5"/><path d="M273.60722,183.62665c0.07677,0.23717 -0.15355,0.31623 -0.15355,0.31623l-0.08839,0.02915c-0.40323,0.09578 -0.76161,0.14282 -1.17382,0.14268c-1.95763,0.1061 -4.05411,-0.96874 -5.92207,-0.61758c0,0 -0.23886,0.04472 -0.28229,-0.20125c-0.04343,-0.24597 0.19543,-0.29069 0.19543,-0.29069c1.91472,-0.35713 4.00254,0.71774 5.99617,0.60969c0.38197,-0.00012 0.70345,-0.04115 1.0774,-0.13005l0.04403,-0.0163c0,0 0.23032,-0.07906 0.30709,0.15811z" fill-opacity="0.67451" fill="#e8dcda" stroke="none" stroke-width="0.5"/><path d="M272.68551,184.18482c0.10677,0.22361 -0.10677,0.33541 -0.10677,0.33541l-0.19357,0.07185c-0.16597,-0.00126 -0.33213,0.02749 -0.49386,0.06658c-1.76024,0.00472 -3.42772,-0.51476 -5.16483,-0.63531c0,0 -0.23821,-0.01663 -0.22233,-0.26608c0.01588,-0.24945 0.25409,-0.23282 0.25409,-0.23282c1.71006,0.12013 3.34783,0.631 5.07904,0.63742c0.17926,-0.04332 0.36391,-0.06868 0.54789,-0.06979l-0.01995,-0.01906c0,0 0.21353,-0.1118 0.3203,0.1118z" fill-opacity="0.74902" fill="#e8ccc5" stroke="none" stroke-width="0.5"/><path d="M273.23274,183.77028c0.15614,0.18981 -0.02602,0.35251 -0.02602,0.35251l-0.24569,0.18774c-0.42124,0.11921 -0.81384,0.27121 -1.24784,0.34678c-1.88436,0.27692 -3.94453,-0.32873 -5.57483,-1.15982c0,0 -0.21459,-0.1118 -0.10729,-0.33541c0.10729,-0.22361 0.32188,-0.1118 0.32188,-0.1118c1.51701,0.8041 3.52197,1.37945 5.28687,1.11291c0.41588,-0.07203 0.79116,-0.21984 1.19495,-0.33504l0.05967,-0.08499c0,0 0.18216,-0.1627 0.3383,0.02712z" fill-opacity="0.37647" fill="#fff2f0" stroke="none" stroke-width="0.5"/><path d="M273.11958,184.00116c0,0.25 -0.25,0.25 -0.25,0.25l-0.16653,-0.00291c-1.92272,0.29449 -3.9897,-0.10117 -5.83583,-0.64362c0,0 -0.23984,-0.07054 -0.1693,-0.31038c0.07054,-0.23984 0.31038,-0.1693 0.31038,-0.1693c1.77452,0.52245 3.76917,0.91501 5.61872,0.62911l0.24256,-0.00291c0,0 0.25,0 0.25,0.25z" fill-opacity="0.30196" fill="#fff2f0" stroke="none" stroke-width="0.5"/><path d="M272.01564,184.54845c0.10552,0.22361 -0.10552,0.33541 -0.10552,0.33541l-0.08762,0.04068c-1.44677,0.40751 -3.19064,-0.32095 -4.6414,-0.53953c0,0 -0.23357,-0.03536 -0.20021,-0.28284c0.03337,-0.24749 0.26693,-0.21213 0.26693,-0.21213c1.37077,0.20852 3.08911,0.93807 4.45307,0.55138l-0.00183,-0.00478c0,0 0.21103,-0.1118 0.31655,0.1118z" fill-opacity="0.39216" fill="#fff2f0" stroke="none" stroke-width="0.5"/><path d="M271.48553,184.75685c0.10402,0.17181 -0.12304,0.23913 -0.12304,0.23913c-0.07373,0.02186 -0.26521,0.07862 -0.38636,0.11454c-0.04361,0.03765 -0.09946,0.0542 -0.09946,0.0542l-0.11254,0.02557c-1.06316,0.07327 -2.08363,-0.11846 -3.05548,-0.48241c0,0 -0.22757,-0.08535 -0.12467,-0.24896c0.10291,-0.16361 0.33048,-0.07826 0.33048,-0.07826c0.85714,0.32196 1.76173,0.50332 2.6991,0.44724c0.03891,-0.02674 0.0793,-0.03872 0.0793,-0.03872c0.09232,-0.02737 0.18463,-0.05473 0.27695,-0.0821l0.18463,-0.05473c0,0 0.22707,-0.06732 0.33109,0.1045z" fill-opacity="0.50588" fill="#d68264" stroke="none" stroke-width="0.5"/><g data-paper-data="{&quot;index&quot;:null}" stroke="none" stroke-width="0.5"><path d="M273.90501,182.7735l0.04428,0.31879c-0.00117,0.00454 -0.00236,0.00906 -0.00358,0.01355c0.34993,-0.49061 -0.65134,-1.01592 -1.4389,-0.8892c0.02463,0.00229 0.04895,0.00519 0.07292,0.0087c0,0 0.29474,0.0474 0.24686,0.33914c-0.04788,0.29175 -0.34261,0.24436 -0.34261,0.24436c-0.31462,-0.05692 -0.5382,-0.0845 -0.68695,-0.09029c0.02308,0.09162 0.14909,0.23109 0.32101,0.35934c0.29826,0.10369 0.67627,0.20047 1.03423,0.24383c0.10131,-0.0655 0.17854,-0.1813 0.21554,-0.36414l-0.04375,-0.04716c0,0 -0.06917,-0.28753 0.22132,-0.356c0.29047,-0.06847 0.35964,0.21908 0.35964,0.21908zM270.35518,181.88868c0.70223,-0.95194 3.0299,-0.56828 3.9516,-0.34693c0.36777,0.47866 0.27174,0.72573 0.14423,1.11166c0.03882,0.41323 -0.70827,0.88026 -1.37875,1.39121c0,0 -4.37554,0.09227 -2.71708,-2.15594z" fill-opacity="0.12941" fill="#c9552e"/><path d="M273.77695,182.77836c-0.84583,2.02678 -4.93739,-0.1842 -1.96138,-0.91293c0,0 0.13624,-0.03289 0.24144,0.04528c0.84111,-0.1851 2.05047,0.0756 1.71994,0.86765zM271.39555,182.79276c-0.01667,-0.02906 -0.03076,-0.05747 -0.04239,-0.08525c-0.00858,0.03118 0.00723,0.05987 0.04239,0.08525z" fill-opacity="0.25882" fill="#752800"/><path d="M270.94567,183.61567l-0.27894,-0.16028c-0.75392,-0.88084 -0.06147,-1.54667 0.82776,-1.88672c0.37641,-0.08848 0.70815,-0.10727 1.09299,-0.11277c4.04486,-0.05775 0.0755,4.02803 -1.56985,2.18353c-0.04326,-0.00967 -0.07196,-0.02378 -0.07196,-0.02378zM271.38078,183.14451c0.40771,1.2275 4.42579,-1.17017 1.2142,-1.09752c-0.32642,0.00739 -0.60474,0.01091 -0.924,0.0864c-0.42577,0.16021 -0.98572,0.42481 -0.61979,0.86212c0.21384,-0.06073 0.32959,0.14899 0.32959,0.14899z" fill-opacity="0.16078" fill="#864d3a"/><path d="M270.62711,183.01674c-0.25099,-0.60109 0.37148,-1.0042 1.11977,-1.15574c0.74043,-0.34874 1.8433,-0.33181 2.19531,0.49455c0.77351,1.81589 -2.1707,1.57438 -2.97228,1.29685c0,0 -0.28174,-0.09789 -0.18285,-0.37678c0.00103,-0.00291 0.00209,-0.00578 0.00315,-0.00862c-0.06649,-0.0688 -0.12195,-0.15168 -0.16312,-0.25027zM273.09165,182.48185c-0.09438,-0.11264 -0.27089,-0.18158 -0.48147,-0.21584c-0.19035,0.0221 -0.38477,0.06854 -0.55087,0.12776c0.0723,0.01183 0.13935,0.0248 0.20138,0.03878l0.00159,-0.00002v0.00038c0.03941,0.0089 0.07681,0.01821 0.11222,0.0279c0.12444,-0.0459 0.25591,-0.07544 0.38389,-0.09133l-0.00584,-0.00045c0,0 0.29047,-0.06847 0.35964,0.21908c0.00626,0.02601 0.00957,0.05022 0.01043,0.07276c0.03151,-0.0513 0.02613,-0.11085 -0.03097,-0.17899z" fill-opacity="0.11373" fill="#b26f58"/><path d="M272.16116,182.1607c0.00416,-0.00117 0.00836,-0.00226 0.01261,-0.00325c0.01298,-0.00306 0.02598,-0.00523 0.0389,-0.00655l0.45701,-0.053l0.00203,0.01714l0.04963,-0.01867c1.45438,0.36475 0.56057,1.43463 -0.53011,1.34029c-1.30563,-0.11293 -1.65396,-1.3491 -0.07331,-1.28197c0,0 0.01725,0.00076 0.04325,0.00602zM272.20144,182.76131l-0.03964,-0.02219c-0.04092,0.00742 -0.07048,0.00612 -0.07048,0.00612c-0.9341,-0.04294 -0.42397,-0.0026 0.11012,0.01607z" fill-opacity="0.44314" fill="#c9552e"/><path d="M272.33145,182.26104l0.13677,0.03096c0.14152,-0.00403 0.27849,0.03377 0.40932,0.09509l0.04023,-0.08203l0.34482,0.16571c0.07879,0.03712 0.14053,0.10794 0.1623,0.19851c0.0382,0.1588 -0.06089,0.31819 -0.22132,0.356l-0.29047,0.06847c-0.55609,0.12938 -0.84139,0.16623 -1.1486,-0.0433l-0.05986,0.07599l-0.27226,-0.21015c-0.0526,-0.03989 -0.09218,-0.09728 -0.10874,-0.16606c-0.0382,-0.1588 0.06089,-0.31819 0.22132,-0.356v0l0.44892,-0.1058l0.01543,0.06417l0.06868,-0.02663c0.10427,-0.09044 0.25345,-0.06492 0.25345,-0.06492z" fill-opacity="0.44314" fill="#fb7c52"/><path d="M271.91501,182.42641l0.08752,-0.00725c0.3946,0.00641 1.104,-0.05924 1.17321,0.43338c0.06617,0.47099 -2.13119,0.22393 -1.50587,-0.16456c-0.09099,-0.22151 0.24514,-0.26157 0.24514,-0.26157z" fill-opacity="0.45882" fill="#fa7c52"/></g></g></g></svg>