<svg version="1.1" xmlns="http://www.w3.org/2000/svg" xmlns:xlink="http://www.w3.org/1999/xlink" width="240" height="208.66934" viewBox="0,0,240,208.66934"><defs><linearGradient x1="131.30869" y1="156.02043" x2="131.30869" y2="173.93104" gradientUnits="userSpaceOnUse" id="color-1"><stop offset="0" stop-color="#000000"/><stop offset="1" stop-color="#2b2b2b"/></linearGradient><linearGradient x1="327.30462" y1="74.52343" x2="327.30462" y2="175.02342" gradientUnits="userSpaceOnUse" id="color-2"><stop offset="0" stop-color="#000000"/><stop offset="1" stop-color="#2b2b2b"/></linearGradient><radialGradient cx="164.74931" cy="125.8528" r="44.01307" gradientUnits="userSpaceOnUse" id="color-3"><stop offset="0" stop-color="#696969"/><stop offset="1" stop-color="#2e2e2e"/></radialGradient><radialGradient cx="164.74931" cy="125.8528" r="44.01307" gradientUnits="userSpaceOnUse" id="color-4"><stop offset="0" stop-color="#e0e0e0"/><stop offset="1" stop-color="#7d7d7d"/></radialGradient><radialGradient cx="227.01576" cy="78.53123" r="34.5" gradientUnits="userSpaceOnUse" id="color-5"><stop offset="0" stop-color="#94c9e0"/><stop offset="1" stop-color="#41687d"/></radialGradient><radialGradient cx="209.68377" cy="92.15431" r="34.5" gradientUnits="userSpaceOnUse" id="color-6"><stop offset="0" stop-color="#b6cee0"/><stop offset="1" stop-color="#4d697d"/></radialGradient><radialGradient cx="196.50929" cy="79.54953" r="44.16667" gradientUnits="userSpaceOnUse" id="color-7"><stop offset="0" stop-color="#e19641"/><stop offset="1" stop-color="#7d4800"/></radialGradient><radialGradient cx="200.62933" cy="73.53484" r="44.16667" gradientUnits="userSpaceOnUse" id="color-8"><stop offset="0" stop-color="#e0ccb5"/><stop offset="1" stop-color="#7d694d"/></radialGradient><linearGradient x1="166.87997" y1="76.23474" x2="154.30983" y2="85.66168" gradientUnits="userSpaceOnUse" id="color-9"><stop offset="0" stop-color="#191919"/><stop offset="1" stop-color="#000000"/></linearGradient><linearGradient x1="190.71744" y1="103.533" x2="178.1473" y2="112.95994" gradientUnits="userSpaceOnUse" id="color-10"><stop offset="0" stop-color="#191919"/><stop offset="1" stop-color="#000000"/></linearGradient><linearGradient x1="163.13212" y1="80.50425" x2="183.49652" y2="107.65868" gradientUnits="userSpaceOnUse" id="color-11"><stop offset="0" stop-color="#303030"/><stop offset="1" stop-color="#212121"/></linearGradient><radialGradient cx="173.89805" cy="87.01144" r="17.57007" gradientUnits="userSpaceOnUse" id="color-12"><stop offset="0" stop-color="#626262"/><stop offset="1" stop-color="#2e2e2e"/></radialGradient><radialGradient cx="174.23009" cy="92.29802" r="4.876" gradientUnits="userSpaceOnUse" id="color-13"><stop offset="0" stop-color="#fff67b"/><stop offset="1" stop-color="#ffd300"/></radialGradient><linearGradient x1="163.46735" y1="101.2166" x2="165.31812" y2="99.82863" gradientUnits="userSpaceOnUse" id="color-14"><stop offset="0" stop-color="#2b281f"/><stop offset="1" stop-color="#1f1c15"/></linearGradient><linearGradient x1="163.46735" y1="101.2166" x2="165.31812" y2="99.82863" gradientUnits="userSpaceOnUse" id="color-15"><stop offset="0" stop-color="#464646"/><stop offset="1" stop-color="#353535"/></linearGradient><radialGradient cx="159.42643" cy="91.64581" r="20.51445" gradientUnits="userSpaceOnUse" id="color-16"><stop offset="0" stop-color="#e8e46e"/><stop offset="1" stop-color="#b59317"/></radialGradient><linearGradient x1="164.61047" y1="100.35933" x2="167.44106" y2="98.23653" gradientUnits="userSpaceOnUse" id="color-17"><stop offset="0" stop-color="#464646"/><stop offset="1" stop-color="#353535"/></linearGradient><linearGradient x1="182.61996" y1="64.43056" x2="170.95953" y2="73.17528" gradientUnits="userSpaceOnUse" id="color-18"><stop offset="0" stop-color="#191919"/><stop offset="1" stop-color="#000000"/></linearGradient><linearGradient x1="204.30359" y1="93.34409" x2="192.64316" y2="102.0888" gradientUnits="userSpaceOnUse" id="color-19"><stop offset="0" stop-color="#191919"/><stop offset="1" stop-color="#000000"/></linearGradient><linearGradient x1="197.45944" y1="75.72432" x2="195.60867" y2="77.1123" gradientUnits="userSpaceOnUse" id="color-20"><stop offset="0" stop-color="#2b281f"/><stop offset="1" stop-color="#1f1c15"/></linearGradient><linearGradient x1="197.45944" y1="75.72432" x2="195.60867" y2="77.1123" gradientUnits="userSpaceOnUse" id="color-21"><stop offset="0" stop-color="#464646"/><stop offset="1" stop-color="#353535"/></linearGradient><linearGradient x1="177.78385" y1="69.51622" x2="198.14825" y2="96.67064" gradientUnits="userSpaceOnUse" id="color-22"><stop offset="0" stop-color="#303030"/><stop offset="1" stop-color="#212121"/></linearGradient><radialGradient cx="188.54979" cy="76.0234" r="17.57006" gradientUnits="userSpaceOnUse" id="color-23"><stop offset="0" stop-color="#626262"/><stop offset="1" stop-color="#2e2e2e"/></radialGradient><radialGradient cx="189.40337" cy="69.16465" r="20.51446" gradientUnits="userSpaceOnUse" id="color-24"><stop offset="0" stop-color="#e8e46e"/><stop offset="1" stop-color="#b59317"/></radialGradient><linearGradient x1="196.31632" y1="76.58159" x2="193.48573" y2="78.70439" gradientUnits="userSpaceOnUse" id="color-25"><stop offset="0" stop-color="#464646"/><stop offset="1" stop-color="#353535"/></linearGradient><radialGradient cx="188.88183" cy="81.30999" r="4.876" gradientUnits="userSpaceOnUse" id="color-26"><stop offset="0" stop-color="#fff67b"/><stop offset="1" stop-color="#ffd300"/></radialGradient><radialGradient cx="174.07815" cy="80.65778" r="20.51446" gradientUnits="userSpaceOnUse" id="color-27"><stop offset="0" stop-color="#e8e46e"/><stop offset="1" stop-color="#b59317"/></radialGradient><linearGradient x1="179.26221" y1="89.37129" x2="182.0928" y2="87.2485" gradientUnits="userSpaceOnUse" id="color-28"><stop offset="0" stop-color="#464646"/><stop offset="1" stop-color="#353535"/></linearGradient><linearGradient x1="191.4532" y1="109.00134" x2="178.88306" y2="118.42828" gradientUnits="userSpaceOnUse" id="color-29"><stop offset="0" stop-color="#191919"/><stop offset="1" stop-color="#000000"/></linearGradient><linearGradient x1="215.29067" y1="136.2996" x2="202.72053" y2="145.72654" gradientUnits="userSpaceOnUse" id="color-30"><stop offset="0" stop-color="#191919"/><stop offset="1" stop-color="#000000"/></linearGradient><linearGradient x1="187.70535" y1="113.27085" x2="208.06975" y2="140.42528" gradientUnits="userSpaceOnUse" id="color-31"><stop offset="0" stop-color="#303030"/><stop offset="1" stop-color="#212121"/></linearGradient><radialGradient cx="198.47129" cy="119.77803" r="17.57006" gradientUnits="userSpaceOnUse" id="color-32"><stop offset="0" stop-color="#626262"/><stop offset="1" stop-color="#2e2e2e"/></radialGradient><radialGradient cx="198.80332" cy="125.0646" r="4.876" gradientUnits="userSpaceOnUse" id="color-33"><stop offset="0" stop-color="#fff67b"/><stop offset="1" stop-color="#ffd300"/></radialGradient><linearGradient x1="188.04059" y1="133.9832" x2="189.89135" y2="132.59523" gradientUnits="userSpaceOnUse" id="color-34"><stop offset="0" stop-color="#2b281f"/><stop offset="1" stop-color="#1f1c15"/></linearGradient><linearGradient x1="188.04059" y1="133.9832" x2="189.89135" y2="132.59523" gradientUnits="userSpaceOnUse" id="color-35"><stop offset="0" stop-color="#464646"/><stop offset="1" stop-color="#353535"/></linearGradient><radialGradient cx="183.99967" cy="124.41241" r="20.51445" gradientUnits="userSpaceOnUse" id="color-36"><stop offset="0" stop-color="#e8e46e"/><stop offset="1" stop-color="#b59317"/></radialGradient><linearGradient x1="189.1837" y1="133.12593" x2="192.0143" y2="131.00313" gradientUnits="userSpaceOnUse" id="color-37"><stop offset="0" stop-color="#464646"/><stop offset="1" stop-color="#353535"/></linearGradient><linearGradient x1="207.1932" y1="97.19716" x2="195.53277" y2="105.94187" gradientUnits="userSpaceOnUse" id="color-38"><stop offset="0" stop-color="#191919"/><stop offset="1" stop-color="#000000"/></linearGradient><linearGradient x1="228.87683" y1="126.11069" x2="217.2164" y2="134.8554" gradientUnits="userSpaceOnUse" id="color-39"><stop offset="0" stop-color="#191919"/><stop offset="1" stop-color="#000000"/></linearGradient><linearGradient x1="222.03267" y1="108.49092" x2="220.18191" y2="109.8789" gradientUnits="userSpaceOnUse" id="color-40"><stop offset="0" stop-color="#2b281f"/><stop offset="1" stop-color="#1f1c15"/></linearGradient><linearGradient x1="222.03267" y1="108.49092" x2="220.18191" y2="109.8789" gradientUnits="userSpaceOnUse" id="color-41"><stop offset="0" stop-color="#464646"/><stop offset="1" stop-color="#353535"/></linearGradient><linearGradient x1="202.35709" y1="102.28282" x2="222.72148" y2="129.43723" gradientUnits="userSpaceOnUse" id="color-42"><stop offset="0" stop-color="#303030"/><stop offset="1" stop-color="#212121"/></linearGradient><radialGradient cx="213.12302" cy="108.79" r="17.57006" gradientUnits="userSpaceOnUse" id="color-43"><stop offset="0" stop-color="#626262"/><stop offset="1" stop-color="#2e2e2e"/></radialGradient><radialGradient cx="213.97661" cy="101.93126" r="20.51446" gradientUnits="userSpaceOnUse" id="color-44"><stop offset="0" stop-color="#e8e46e"/><stop offset="1" stop-color="#b59317"/></radialGradient><linearGradient x1="220.88956" y1="109.3482" x2="218.05897" y2="111.47099" gradientUnits="userSpaceOnUse" id="color-45"><stop offset="0" stop-color="#464646"/><stop offset="1" stop-color="#353535"/></linearGradient><radialGradient cx="213.45505" cy="114.07657" r="4.876" gradientUnits="userSpaceOnUse" id="color-46"><stop offset="0" stop-color="#fff67b"/><stop offset="1" stop-color="#ffd300"/></radialGradient><radialGradient cx="198.65139" cy="113.42437" r="20.51446" gradientUnits="userSpaceOnUse" id="color-47"><stop offset="0" stop-color="#e8e46e"/><stop offset="1" stop-color="#b59317"/></radialGradient><linearGradient x1="203.83544" y1="122.13789" x2="206.66603" y2="120.01509" gradientUnits="userSpaceOnUse" id="color-48"><stop offset="0" stop-color="#464646"/><stop offset="1" stop-color="#353535"/></linearGradient><radialGradient cx="200.71775" cy="72.83736" r="45.17923" gradientUnits="userSpaceOnUse" id="color-49"><stop offset="0" stop-color="#909090"/><stop offset="1" stop-color="#5d5d5d"/></radialGradient><radialGradient cx="199.59388" cy="68.26367" r="45.17923" gradientUnits="userSpaceOnUse" id="color-50"><stop offset="0" stop-color="#181818"/><stop offset="1" stop-color="#000000"/></radialGradient><linearGradient x1="244.17566" y1="15.13758" x2="293.32817" y2="80.57501" gradientUnits="userSpaceOnUse" id="color-51"><stop offset="0" stop-color="#656565" stop-opacity="0.58031"/><stop offset="1" stop-color="#4b4b4b" stop-opacity="0.63676"/></linearGradient><linearGradient x1="244.17566" y1="15.13758" x2="293.32817" y2="80.57501" gradientUnits="userSpaceOnUse" id="color-52"><stop offset="0" stop-color="#454545"/><stop offset="1" stop-color="#000000"/></linearGradient><linearGradient x1="210.8068" y1="40.53591" x2="259.71457" y2="105.64749" gradientUnits="userSpaceOnUse" id="color-53"><stop offset="0" stop-color="#454545"/><stop offset="1" stop-color="#000000"/></linearGradient><linearGradient x1="233.13088" y1="23.77702" x2="282.03864" y2="88.88862" gradientUnits="userSpaceOnUse" id="color-54"><stop offset="0" stop-color="#454545"/><stop offset="1" stop-color="#000000"/></linearGradient><linearGradient x1="255.45495" y1="7.01816" x2="304.36273" y2="72.12975" gradientUnits="userSpaceOnUse" id="color-55"><stop offset="0" stop-color="#454545"/><stop offset="1" stop-color="#000000"/></linearGradient><linearGradient x1="277.77902" y1="-9.74071" x2="326.68682" y2="55.3709" gradientUnits="userSpaceOnUse" id="color-56"><stop offset="0" stop-color="#454545"/><stop offset="1" stop-color="#000000"/></linearGradient><radialGradient cx="306.54103" cy="-7.89927" r="45.17923" gradientUnits="userSpaceOnUse" id="color-57"><stop offset="0" stop-color="#909090"/><stop offset="1" stop-color="#5d5d5d"/></radialGradient><radialGradient cx="309.67441" cy="-9.83249" r="45.17922" gradientUnits="userSpaceOnUse" id="color-58"><stop offset="0" stop-color="#181818"/><stop offset="1" stop-color="#000000"/></radialGradient><radialGradient cx="161.11675" cy="102.53602" r="45.17923" gradientUnits="userSpaceOnUse" id="color-59"><stop offset="0" stop-color="#909090"/><stop offset="1" stop-color="#5d5d5d"/></radialGradient><radialGradient cx="159.99288" cy="97.96233" r="45.17923" gradientUnits="userSpaceOnUse" id="color-60"><stop offset="0" stop-color="#181818"/><stop offset="1" stop-color="#000000"/></radialGradient><radialGradient cx="190.52957" cy="175.23848" r="119.5" gradientUnits="userSpaceOnUse" id="color-61"><stop offset="0" stop-color="#696969"/><stop offset="1" stop-color="#2e2e2e"/></radialGradient><radialGradient cx="173.1828" cy="172.65426" r="119.5" gradientUnits="userSpaceOnUse" id="color-62"><stop offset="0" stop-color="#2d2d2d"/><stop offset="1" stop-color="#0c0c0c"/></radialGradient><radialGradient cx="228.75" cy="83.02365" r="88.22216" gradientUnits="userSpaceOnUse" id="color-63"><stop offset="0" stop-color="#c5f2f8"/><stop offset="1" stop-color="#c5f2f8" stop-opacity="0"/></radialGradient><radialGradient cx="207.67441" cy="65.66751" r="45.17922" gradientUnits="userSpaceOnUse" id="color-64"><stop offset="0" stop-color="#181818"/><stop offset="1" stop-color="#000000"/></radialGradient><radialGradient cx="220.25" cy="83.52365" r="57.70588" gradientUnits="userSpaceOnUse" id="color-65"><stop offset="0" stop-color="#caf9ff"/><stop offset="1" stop-color="#caf9ff" stop-opacity="0"/></radialGradient><radialGradient cx="220.25" cy="83.52365" r="57.70588" gradientUnits="userSpaceOnUse" id="color-66"><stop offset="0" stop-color="#000000" stop-opacity="0"/><stop offset="1" stop-color="#000000" stop-opacity="0"/></radialGradient></defs><g transform="translate(-120,28.85966)"><g data-paper-data="{&quot;isPaintingLayer&quot;:true}" fill-rule="nonzero" stroke-linejoin="miter" stroke-miterlimit="10" stroke-dasharray="" stroke-dashoffset="0" style="mix-blend-mode: normal"><path d="M136.28405,156.02043l-9.95071,17.91061" data-paper-data="{&quot;index&quot;:null}" fill="none" stroke="url(#color-1)" stroke-width="3" stroke-linecap="round"/><path d="M353.11894,175.02343l-51.62864,-100.5" fill="none" stroke="url(#color-2)" stroke-width="3" stroke-linecap="round"/><path d="M190.74814,160.52034c-19.07271,14.30353 -46.17428,10.37765 -60.53304,-8.7687c-14.35876,-19.14635 -10.53734,-46.26284 8.53537,-60.56638c19.07271,-14.30353 46.17428,-10.37766 60.53304,8.76869c14.35876,19.14635 10.53734,46.26285 -8.53537,60.56639z" fill="url(#color-3)" stroke="url(#color-4)" stroke-width="1.5" stroke-linecap="butt"/><path d="M230.38284,119.755c-14.0652,10.54817 -34.7346,6.7419 -46.16638,-8.50155c-11.43178,-15.24345 -9.29698,-36.15166 4.76823,-46.69984c14.0652,-10.54817 34.7346,-6.7419 46.16638,8.50155c11.43179,15.24345 9.29698,36.15167 -4.76823,46.69984z" fill="url(#color-5)" stroke="url(#color-6)" stroke-width="1.5" stroke-linecap="butt"/><path d="M147.98406,83.21891l38.66764,-28.99871l52.99764,70.66845l-38.66764,28.99871z" fill="url(#color-7)" stroke="url(#color-8)" stroke-width="1.5" stroke-linecap="butt"/><path d="M154.28363,85.62673l14.75371,-10.95532" fill="none" stroke="url(#color-9)" stroke-width="0.5" stroke-linecap="round"/><path d="M178.1211,112.925l12.62254,-9.35706" fill="none" stroke="url(#color-10)" stroke-width="0.5" stroke-linecap="round"/><path d="M157.24159,84.92184l11.78106,-8.83517l20.36439,27.15442l-11.78106,8.83518z" fill="url(#color-11)" stroke="none" stroke-width="0.5" stroke-linecap="butt"/><path d="M157.71623,83.69239l9.85356,-7.38965l21.08314,28.11281l-9.85356,7.38966z" fill="url(#color-12)" stroke="none" stroke-width="0.5" stroke-linecap="butt"/><path d="M177.61681,91.59633l-5.94177,1.31837l2.8584,2.03504l-5.94178,1.31838" fill="none" stroke="url(#color-13)" stroke-width="1.5" stroke-linecap="round"/><path d="M177.44254,115.99565l-1.85077,1.38799l-24.24885,-32.33405l1.85077,-1.38799z" data-paper-data="{&quot;index&quot;:null}" fill="url(#color-14)" stroke="url(#color-15)" stroke-width="0.5" stroke-linecap="butt"/><path d="M179.74919,114.64851l-2.83059,2.12279l-24.61625,-32.82396l2.83059,-2.12279z" data-paper-data="{&quot;index&quot;:null}" fill="url(#color-16)" stroke="url(#color-17)" stroke-width="0.5" stroke-linecap="butt"/><path d="M170.93333,73.14032l11.71283,-8.67483" fill="none" stroke="url(#color-18)" stroke-width="0.5" stroke-linecap="round"/><path d="M192.61696,102.05386l11.71284,-8.67483" fill="none" stroke="url(#color-19)" stroke-width="0.5" stroke-linecap="round"/><path d="M183.48425,60.94527l1.85077,-1.38798l24.24885,32.33405l-1.85077,1.38799z" fill="url(#color-20)" stroke="url(#color-21)" stroke-width="0.5" stroke-linecap="butt"/><path d="M171.89332,73.93381l11.78106,-8.83517l20.3644,27.15442l-11.78106,8.83518z" fill="url(#color-22)" stroke="none" stroke-width="0.5" stroke-linecap="butt"/><path d="M172.36796,72.70436l9.85356,-7.38966l21.08315,28.11282l-9.85356,7.38966z" fill="url(#color-23)" stroke="none" stroke-width="0.5" stroke-linecap="butt"/><path d="M181.1776,62.29241l2.83059,-2.12279l24.61625,32.82396l-2.83059,2.12279z" fill="url(#color-24)" stroke="url(#color-25)" stroke-width="0.5" stroke-linecap="butt"/><path d="M192.26855,80.6083l-5.94177,1.31837l2.8584,2.03504l-5.94177,1.31837" fill="none" stroke="url(#color-26)" stroke-width="1.5" stroke-linecap="round"/><path d="M194.40092,103.66048l-2.83059,2.12279l-24.61625,-32.82396l2.83059,-2.1228z" data-paper-data="{&quot;index&quot;:null}" fill="url(#color-27)" stroke="url(#color-28)" stroke-width="0.5" stroke-linecap="butt"/><path d="M178.85686,118.39333l14.7537,-10.95532" fill="none" stroke="url(#color-29)" stroke-width="0.5" stroke-linecap="round"/><path d="M202.69432,145.6916l12.62254,-9.35706" fill="none" stroke="url(#color-30)" stroke-width="0.5" stroke-linecap="round"/><path d="M181.81483,117.68844l11.78106,-8.83517l20.3644,27.15442l-11.78106,8.83517z" fill="url(#color-31)" stroke="none" stroke-width="0.5" stroke-linecap="butt"/><path d="M182.28947,116.459l9.85356,-7.38966l21.08314,28.11281l-9.85355,7.38966z" fill="url(#color-32)" stroke="none" stroke-width="0.5" stroke-linecap="butt"/><path d="M202.19005,124.36293l-5.94176,1.31837l2.85839,2.03503l-5.94177,1.31837" fill="none" stroke="url(#color-33)" stroke-width="1.5" stroke-linecap="round"/><path d="M202.01578,148.76225l-1.85077,1.38799l-24.24885,-32.33404l1.85077,-1.38799z" data-paper-data="{&quot;index&quot;:null}" fill="url(#color-34)" stroke="url(#color-35)" stroke-width="0.5" stroke-linecap="butt"/><path d="M204.32242,147.4151l-2.83058,2.12279l-24.61625,-32.82396l2.83058,-2.12279z" data-paper-data="{&quot;index&quot;:null}" fill="url(#color-36)" stroke="url(#color-37)" stroke-width="0.5" stroke-linecap="butt"/><path d="M207.2194,97.2321l-11.71284,8.67483" fill="none" stroke="url(#color-38)" stroke-width="0.5" stroke-linecap="round"/><path d="M217.19019,134.82045l11.71283,-8.67483" fill="none" stroke="url(#color-39)" stroke-width="0.5" stroke-linecap="round"/><path d="M208.05749,93.71187l1.85077,-1.38799l24.24884,32.33406l-1.85077,1.38799z" fill="url(#color-40)" stroke="url(#color-41)" stroke-width="0.5" stroke-linecap="butt"/><path d="M196.46656,106.70041l11.78106,-8.83518l20.3644,27.15443l-11.78106,8.83517z" fill="url(#color-42)" stroke="none" stroke-width="0.5" stroke-linecap="butt"/><path d="M196.9412,105.47096l9.85356,-7.38965l21.08315,28.11281l-9.85356,7.38966z" fill="url(#color-43)" stroke="none" stroke-width="0.5" stroke-linecap="butt"/><path d="M205.75084,95.05901l2.83059,-2.1228l24.61625,32.82397l-2.83059,2.12279z" fill="url(#color-44)" stroke="url(#color-45)" stroke-width="0.5" stroke-linecap="butt"/><path d="M216.84179,113.3749l-5.94177,1.31837l2.8584,2.03504l-5.94177,1.31837" fill="none" stroke="url(#color-46)" stroke-width="1.5" stroke-linecap="round"/><path d="M218.97415,136.42707l-2.83059,2.12279l-24.61625,-32.82396l2.83059,-2.12279z" data-paper-data="{&quot;index&quot;:null}" fill="url(#color-47)" stroke="url(#color-48)" stroke-width="0.5" stroke-linecap="butt"/><path d="M182.86687,55.793l5.23166,-3.92347l54.21265,72.28858l-5.23166,3.92347z" fill="url(#color-49)" stroke="url(#color-50)" stroke-width="1.5" stroke-linecap="butt"/><path d="M240.92814,119.91215l-49.15251,-65.43743l104.80008,-78.67426l49.15251,65.43743z" fill="url(#color-51)" stroke="url(#color-52)" stroke-width="2" stroke-linecap="butt"/><path d="M259.71457,105.64749l-48.90777,-65.1116" fill="none" stroke="url(#color-53)" stroke-width="2" stroke-linecap="round"/><path d="M233.13088,23.77703l48.90776,65.11159" fill="none" stroke="url(#color-54)" stroke-width="2" stroke-linecap="round"/><path d="M304.36273,72.12975l-48.90776,-65.11159" fill="none" stroke="url(#color-55)" stroke-width="2" stroke-linecap="round"/><path d="M326.68681,55.3709l-48.90776,-65.11159" fill="none" stroke="url(#color-56)" stroke-width="2" stroke-linecap="round"/><path d="M320.80264,8.78142l-104.10141,78.14976" fill="none" stroke="#232323" stroke-width="2" stroke-linecap="round"/><path d="M290.61361,-23.8862l5.23166,-3.92347l54.21265,72.28858l-5.23166,3.92347z" fill="url(#color-57)" stroke="url(#color-58)" stroke-width="1.5" stroke-linecap="butt"/><path d="M143.26587,85.49166l5.23166,-3.92347l54.21265,72.28857l-5.23166,3.92347z" fill="url(#color-59)" stroke="url(#color-60)" stroke-width="1.5" stroke-linecap="butt"/><path d="M120.5,179.30967v-5.92732h239v5.92733z" fill="url(#color-61)" stroke="url(#color-62)" stroke-width="1" stroke-linecap="butt"/><path d="M188.61361,51.61379l96.73166,-69.7568l52.71265,69.62191l-95.23166,72.42347z" fill="url(#color-63)" stroke="url(#color-64)" stroke-width="0" stroke-linecap="butt"/><path d="M274.75,83.52365c0,29.82338 -24.40048,54 -54.5,54c-30.09952,0 -54.5,-24.17662 -54.5,-54c0,-29.82338 24.40048,-54 54.5,-54c30.09952,0 54.5,24.17662 54.5,54z" fill="url(#color-65)" stroke="url(#color-66)" stroke-width="0" stroke-linecap="butt"/></g></g></svg>