<svg version="1.1" xmlns="http://www.w3.org/2000/svg" xmlns:xlink="http://www.w3.org/1999/xlink" width="619.06293" height="471.58011" viewBox="0,0,619.06293,471.58011"><defs><radialGradient cx="240.00009" cy="180.00006" r="250.5" gradientUnits="userSpaceOnUse" id="color-1"><stop offset="0" stop-color="#949494"/><stop offset="1" stop-color="#7d7d7d"/></radialGradient><radialGradient cx="243.51181" cy="115.55084" r="114.5" gradientUnits="userSpaceOnUse" id="color-2"><stop offset="0" stop-color="#484848"/><stop offset="1" stop-color="#3a3a3a"/></radialGradient><radialGradient cx="313.80125" cy="294.91337" r="270.53072" gradientUnits="userSpaceOnUse" id="color-3"><stop offset="0" stop-color="#4d4d4d"/><stop offset="1" stop-color="#3c3c3c"/></radialGradient><radialGradient cx="228.97833" cy="292.72909" r="66" gradientUnits="userSpaceOnUse" id="color-4"><stop offset="0" stop-color="#2a2a2a"/><stop offset="1" stop-color="#2a2a2a"/></radialGradient><radialGradient cx="222.20351" cy="297.86251" r="66" gradientUnits="userSpaceOnUse" id="color-5"><stop offset="0" stop-color="#1d1d1d"/><stop offset="1" stop-color="#1b1b1b"/></radialGradient><radialGradient cx="349.58353" cy="457.23884" r="249.95744" gradientUnits="userSpaceOnUse" id="color-6"><stop offset="0" stop-color="#222222"/><stop offset="1" stop-color="#202020"/></radialGradient><radialGradient cx="308.17233" cy="318.18156" r="65" gradientUnits="userSpaceOnUse" id="color-7"><stop offset="0" stop-color="#090909"/><stop offset="1" stop-color="#080808"/></radialGradient><radialGradient cx="465.65067" cy="221.72" r="26.5" gradientUnits="userSpaceOnUse" id="color-8"><stop offset="0" stop-color="#525252"/><stop offset="1" stop-color="#424242"/></radialGradient><radialGradient cx="389.18032" cy="266.01043" r="84" gradientUnits="userSpaceOnUse" id="color-9"><stop offset="0" stop-color="#1d1d1d"/><stop offset="1" stop-color="#1b1b1b"/></radialGradient><radialGradient cx="423.82294" cy="232.41897" r="44.75" gradientUnits="userSpaceOnUse" id="color-10"><stop offset="0" stop-color="#3a3a3a"/><stop offset="1" stop-color="#2f2f2f"/></radialGradient><radialGradient cx="376.45237" cy="272.17483" r="48.5" gradientUnits="userSpaceOnUse" id="color-11"><stop offset="0" stop-color="#343434"/><stop offset="1" stop-color="#262626"/></radialGradient><radialGradient cx="333.55179" cy="248.02499" r="26.25" gradientUnits="userSpaceOnUse" id="color-12"><stop offset="0" stop-color="#121212"/><stop offset="1" stop-color="#161616"/></radialGradient><radialGradient cx="315.50973" cy="315.64932" r="65" gradientUnits="userSpaceOnUse" id="color-13"><stop offset="0" stop-color="#101010"/><stop offset="1" stop-color="#111111"/></radialGradient><radialGradient cx="483.58954" cy="203.60378" r="36.25" gradientUnits="userSpaceOnUse" id="color-14"><stop offset="0" stop-color="#313131"/><stop offset="1" stop-color="#1b1b1b"/></radialGradient><radialGradient cx="374.1148" cy="346.70196" r="26.25" gradientUnits="userSpaceOnUse" id="color-15"><stop offset="0" stop-color="#121212"/><stop offset="1" stop-color="#161616"/></radialGradient><radialGradient cx="367.21009" cy="263.13473" r="57.27136" gradientUnits="userSpaceOnUse" id="color-16"><stop offset="0" stop-color="#33266a"/><stop offset="1" stop-color="#949074"/></radialGradient><linearGradient x1="-11.98819" y1="179.28457" x2="150.92971" y2="179.28457" gradientUnits="userSpaceOnUse" id="color-17"><stop offset="0" stop-color="#7d7d7d"/><stop offset="1" stop-color="#818181"/></linearGradient><linearGradient x1="405.52774" y1="216.12521" x2="394.61531" y2="229.65661" gradientUnits="userSpaceOnUse" id="color-18"><stop offset="0" stop-color="#694444"/><stop offset="1" stop-color="#98a1b9"/></linearGradient><radialGradient cx="442.44077" cy="169.83547" r="33.28545" gradientUnits="userSpaceOnUse" id="color-19"><stop offset="0" stop-color="#dcdcdc"/><stop offset="1" stop-color="#a0a0a0"/></radialGradient><radialGradient cx="454.39262" cy="176.11486" r="25.55275" gradientUnits="userSpaceOnUse" id="color-20"><stop offset="0" stop-color="#1c2f30"/><stop offset="1" stop-color="#142913"/></radialGradient><radialGradient cx="419.71789" cy="151.6148" r="6.72592" gradientUnits="userSpaceOnUse" id="color-21"><stop offset="0" stop-color="#786c41"/><stop offset="1" stop-color="#141a29"/></radialGradient><radialGradient cx="443.25025" cy="168.26162" r="10.58856" gradientUnits="userSpaceOnUse" id="color-22"><stop offset="0" stop-color="#7ba676"/><stop offset="1" stop-color="#291616"/></radialGradient><radialGradient cx="423.11197" cy="182.84094" r="25.00169" gradientUnits="userSpaceOnUse" id="color-23"><stop offset="0" stop-color="#d1ffc4"/><stop offset="1" stop-color="#2188ff"/></radialGradient><radialGradient cx="423.11197" cy="182.84094" r="25.00169" gradientUnits="userSpaceOnUse" id="color-24"><stop offset="0" stop-color="#ceffc4"/><stop offset="1" stop-color="#ff21cc"/></radialGradient><radialGradient cx="423.11197" cy="182.84094" r="25.00169" gradientUnits="userSpaceOnUse" id="color-25"><stop offset="0" stop-color="#ffe9c4"/><stop offset="1" stop-color="#4fff21"/></radialGradient><radialGradient cx="423.11197" cy="182.84094" r="25.00169" gradientUnits="userSpaceOnUse" id="color-26"><stop offset="0" stop-color="#ffe9c4"/><stop offset="1" stop-color="#4fff21"/></radialGradient><radialGradient cx="423.11202" cy="182.84098" r="25.00169" gradientUnits="userSpaceOnUse" id="color-27"><stop offset="0" stop-color="#ffe9c4"/><stop offset="1" stop-color="#ffa321"/></radialGradient><radialGradient cx="423.11205" cy="182.841" r="25.00169" gradientUnits="userSpaceOnUse" id="color-28"><stop offset="0" stop-color="#c4f0ff"/><stop offset="1" stop-color="#3d21ff"/></radialGradient></defs><g transform="translate(11.9882,8.48167)"><g data-paper-data="{&quot;isPaintingLayer&quot;:true}" fill-rule="nonzero" stroke-linejoin="miter" stroke-miterlimit="10" stroke-dasharray="" stroke-dashoffset="0" style="mix-blend-mode: normal"><path d="M-10.49991,368.00005v-376h501v376z" fill="url(#color-1)" stroke="none" stroke-width="0" stroke-linecap="butt"/><path d="M55.63712,350.09241c-3.89444,-35.12313 -28.86024,-260.28391 -28.86024,-260.28391c0,0 6.13498,-58.73673 90.38049,-83.32369c88.94305,-19.99889 123.11201,33.7383 123.11201,33.7383c0,0 65.07454,148.36123 76.16367,173.64299c3.0985,7.06417 1.47154,14.99796 -6.00481,17.45295c-24.82515,8.15175 -82.74364,27.48408 -119.81421,42.36863c-36.09995,14.49483 -99.11668,64.98273 -123.29164,84.94994c-6.18411,5.10773 -10.69693,0.36836 -11.68526,-8.54521z" fill="#000000" stroke="none" stroke-width="NaN" stroke-linecap="butt"/><path d="M165.01173,165.05085l-2,-164c0,0 26.59426,3.29414 40.84201,7.29545c21.80408,6.12342 42.158,33.70455 42.158,33.70455c0,0 56.32326,135.7535 68.65762,165.48248c4.54989,10.96641 3.54663,20.14819 -2.69066,17.59835c-21.79808,-8.91117 -146.96696,-60.08083 -146.96696,-60.08083z" fill="url(#color-2)" stroke="none" stroke-width="0" stroke-linecap="butt"/><path d="M605.6926,270.33002c14.79035,54.92892 -90.81001,131.12039 -235.86501,170.17842c-145.055,39.05803 -274.63528,26.19214 -289.42563,-28.73678c-14.79036,-54.92892 90.81,-131.1204 235.86501,-170.17843c145.05501,-39.05803 274.63528,-26.19213 289.42564,28.73679z" fill="url(#color-3)" stroke="none" stroke-width="NaN" stroke-linecap="butt"/><g data-paper-data="{&quot;index&quot;:null}"><path d="M221.72142,240.5142l18.63568,7.20842l33.462,93.83653l-22.25925,-11.99065z" fill="url(#color-4)" stroke="none" stroke-width="0" stroke-linecap="butt"/><path d="M252.45345,328.2641l21.46221,12.59458l-6.87139,5.83387l-22.95973,-12.08721z" fill="url(#color-5)" stroke="none" stroke-width="0" stroke-linecap="butt"/><path d="M243.98795,335.30584l-29.01224,-87.79835l7.58732,-5.8825l30.00994,86.54853z" data-paper-data="{&quot;index&quot;:null}" fill="url(#color-6)" stroke="none" stroke-width="0" stroke-linecap="butt"/><path d="M226.68191,244.06684l49.6744,5.71874l-37.99309,0.88027" fill="none" stroke="#747474" stroke-width="1.5" stroke-linecap="round"/><path d="M255.92503,325.04884l55.24453,10.40635l-43.1397,-2.28397" fill="none" stroke="#747474" stroke-width="1.5" stroke-linecap="round"/><path d="M261.55152,291.70277c-6.53341,-17.0944 -5.97747,-42.56344 -2.56125,-48.30337c2.17588,-3.65591 19.20595,5.0226 28.79083,9.47131c7.94194,3.68615 20.28707,15.94247 20.28707,15.94247l45.54771,97.12701c0,0 -20.99459,-3.76071 -30.44393,-7.83954c-9.80806,-4.23367 -25.97957,-9.11744 -30.68559,-14.8801c-4.67276,-5.72192 -24.85768,-35.61715 -30.93484,-51.51779z" fill="url(#color-7)" stroke="none" stroke-width="0" stroke-linecap="butt"/><path d="M447.24618,201.56373l11.4751,-7.12896l27.95706,45.07108l-12.43968,8.3818z" fill="url(#color-8)" stroke="none" stroke-width="0" stroke-linecap="butt"/><path d="M314.438,266.9328l123.01751,-82.28573l54.9052,82.38124l-141.83002,91.94697z" fill="url(#color-9)" stroke="none" stroke-width="0" stroke-linecap="butt"/><path d="M386.04125,219.89278l43.80938,-30.72438l47.9381,75.62035l-47.68542,32.13022z" fill="url(#color-10)" stroke="none" stroke-width="0" stroke-linecap="butt"/><path d="M321.12865,273.87998l69.10339,-47.76737l35.25675,63.06316l-75.46736,50.84956z" fill="url(#color-11)" stroke="none" stroke-width="0" stroke-linecap="butt"/><path d="M299.1187,253.74145c0,0 17.84291,-8.94866 28.21866,-11.42355c8.73093,-2.08255 31.61593,-3.57052 31.61593,-3.57052l-43.12421,29.0569z" fill="url(#color-12)" stroke="none" stroke-width="0" stroke-linecap="butt"/><path d="M268.88892,289.17044c-6.53341,-17.0944 -10.41229,-41.98691 -6.99608,-47.72684c2.17588,-3.65591 23.64077,4.44607 33.22565,8.89478c7.94194,3.68615 20.28707,15.94247 20.28707,15.94247l42.23047,99.36215c0,0 -17.67735,-5.99585 -27.12668,-10.07468c-9.80806,-4.23367 -25.97957,-9.11744 -30.68559,-14.8801c-4.67276,-5.72192 -24.85768,-35.61715 -30.93484,-51.51779z" fill="url(#color-13)" stroke="none" stroke-width="0" stroke-linecap="butt"/><path d="M449.82506,190.17954l31.23445,-21.64854l44.65857,57.33116l-34.41643,23.18963z" fill="url(#color-14)" stroke="none" stroke-width="0" stroke-linecap="butt"/><path d="M335.68819,358.12379c0,0 20.54692,-17.4247 32.57751,-22.08748c10.09842,-3.91392 30.79164,-7.34635 30.79164,-7.34635l-43.07987,38.07066z" fill="url(#color-15)" stroke="none" stroke-width="0" stroke-linecap="butt"/></g><path d="M299.73018,276.12767l81.77073,-80.20956l53.18871,54.22385l-81.77073,80.20956z" fill="url(#color-16)" stroke="#ed6b00" stroke-width="0" stroke-linecap="butt"/><g data-paper-data="{&quot;index&quot;:null}" stroke="#000000" stroke-width="0" stroke-linecap="butt"><path d="M306.13232,263.21455c0,0 3.82974,-3.67285 8.73496,-10.75134c2.94615,-4.25158 7.38897,-11.46204 8.67403,-12.94592c2.86671,-3.3096 5.83345,-7.54463 7.7797,-9.59873c0.98756,-1.04227 9.00393,-9.74889 17.91468,-17.91418c10.62492,-9.73607 19.93266,-21.56338 25.76438,-11.61932c10.91789,9.6877 -19.09904,29.51629 -19.09904,29.51629c0,0 -7.5255,5.39606 -12.02366,10.14306c-2.09142,2.20712 -5.99416,5.27092 -9.50734,8.77767c-1.48447,1.48172 -5.74604,6.58153 -7.17425,8.03925c-5.93891,6.06161 -8.6518,12.87072 -8.6518,12.87072z" fill="#b8bda6"/><path d="M299.50053,272.34595c-1.15461,-0.62688 6.23764,-9.22952 6.23764,-9.22952c0,0 4.93922,0.71916 6.98212,1.78581c2.09825,1.09518 5.44528,4.70161 5.44528,4.70161c0,0 -1.48718,2.42034 -1.46923,4.69511c0.03038,3.89279 0.43435,8.28845 -2.36555,9.87456c-1.51924,0.86074 0.27918,-5.72671 -0.61445,-5.50828c-0.15901,0.03881 -6.09557,8.92386 -7.19199,8.76294c-1.7914,-0.263 3.72461,-9.71684 2.43895,-8.59533c-2.6386,2.30233 -5.72577,9.2822 -7.06524,8.85853c-2.25628,-0.71394 5.98449,-11.5822 4.85207,-11.0697c-2.11551,0.95767 -5.97945,8.30192 -7.16658,7.98429c-3.45815,-0.92514 4.49126,-9.26217 3.1225,-8.90333c-2.58546,0.67765 -4.82352,6.1893 -5.91839,5.50487c-2.22589,-1.39143 3.25795,-8.56518 2.71284,-8.86129z" data-paper-data="{&quot;index&quot;:null}" fill="#786274"/></g><g><path d="M246.85343,273.54768l86.02933,-2.42448c0,0 7.86306,16.20562 8.94296,23.91189c1.27774,9.11804 -10.45083,3.01773 -10.45083,3.01773c0,0 -1.31068,-7.73838 -5.02627,-8.00174c-11.36319,-0.80519 -76.67728,3.60641 -76.67728,3.60641z" data-paper-data="{&quot;index&quot;:null}" fill="#4a433c" stroke="#000000" stroke-width="0" stroke-linecap="butt"/><path d="M227.22399,261.54349c-0.29114,-2.07777 4.44814,-3.73011 4.44814,-3.73011c0,0 3.89735,1.02015 5.30431,1.4936c1.14888,0.38615 3.20975,3.83756 3.20975,3.83756c0,0 2.33814,7.02789 3.11845,10.42807c1.31861,5.7463 3.10762,20.69993 3.10762,20.69993c0,0 -4.412,1.09611 -6.31701,1.30623c-1.4138,0.15593 -4.08531,-0.15912 -4.08531,-0.15912c0,0 -1.35298,-1.88496 -2.79079,-5.69295c-0.78019,-2.06645 -0.39511,-6.6389 -1.26097,-9.52807c-0.68767,-2.2952 -2.34554,-3.72681 -2.90984,-6.85715c-0.92775,-5.14828 -1.616,-10.3077 -1.8246,-11.79732z" data-paper-data="{&quot;index&quot;:null}" fill="#140d0d" stroke="#000000" stroke-width="0" stroke-linecap="butt"/><path d="M233.7893,261.31732c-0.29128,-2.07768 -0.42687,-3.04702 -0.42687,-3.04702c0,0 6.24963,0.06941 7.65659,0.54286c1.14865,0.38616 3.20953,3.83759 3.20953,3.83759c0,0 2.4664,7.94183 3.2467,11.34202c0.13254,0.57822 9.17142,-0.37318 9.17142,-0.37318c0,0 0.54478,8.34622 0.7226,9.43693c0.33109,2.02843 -8.42111,-0.68024 -8.12345,1.4481c0.16996,1.21549 -1.17925,5.41752 0.93854,7.04395c2.36684,1.81804 8.0833,2.26293 8.0833,2.26293l-7.68513,0.88129c0,0 -2.40958,0.51105 -5.02341,-1.36741c-1.78947,-1.28591 -4.63744,-0.35102 -6.42436,-2.34182c-2.59841,-2.89451 -2.81012,-3.28622 -3.06664,-4.14242c-0.73638,-2.45822 1.0843,-3.42618 -0.15235,-9.1699c-0.59149,-2.74709 -2.81361,-1.5152 -4.55482,-9.30517c-1.84395,-8.24879 2.51524,-6.42426 2.42781,-7.04798z" data-paper-data="{&quot;index&quot;:null}" fill="#1f261f" stroke="#000000" stroke-width="0" stroke-linecap="butt"/><path d="M243.80357,279.0543l1.80296,-7.08768" fill="none" stroke="#ffb5b5" stroke-width="0.5" stroke-linecap="round"/><path d="M244.96567,267.39594l-2.75963,6.91117" fill="none" stroke="#bffdff" stroke-width="0.5" stroke-linecap="round"/><path d="M240.82827,268.90791l3.14375,-4.1685" fill="none" stroke="#eaffc1" stroke-width="0.5" stroke-linecap="round"/><path d="M253.98053,280.73457l-0.15918,-5.56989" fill="none" stroke="#8d967b" stroke-width="0.5" stroke-linecap="round"/><path d="M251.90789,274.81181l-0.23104,5.00323" fill="none" stroke="#767796" stroke-width="0.5" stroke-linecap="round"/></g><g><path d="M268.49126,317.76927c0,0 60.60014,-24.75919 70.45151,-30.47889c3.22148,-1.87041 0.99561,-9.39691 0.99561,-9.39691c0,0 7.85148,-10.63635 10.71346,-1.88512c2.41891,7.39587 2.48298,25.40839 2.48298,25.40839l-78.33116,35.65282z" fill="#413a4a" stroke="#000000" stroke-width="0" stroke-linecap="butt"/><path d="M250.4494,303.87865c0,0 4.0163,0.3187 5.48459,0.53695c1.19899,0.17814 3.83484,3.21295 3.83484,3.21295c0,0 3.53785,6.50657 4.9042,9.71663c2.30901,5.42497 6.70094,19.83035 6.70094,19.83035c0,0 -4.14984,1.85537 -5.98846,2.39721c-1.36456,0.40208 -4.04963,0.56181 -4.04963,0.56181c0,0 -1.66354,-1.61741 -3.74863,-5.11302c-1.13166,-1.89708 -1.55718,-6.46543 -2.91773,-9.15755c-1.0808,-2.13804 -2.96484,-3.25604 -4.07082,-6.23816c-1.81935,-4.90529 -3.40443,-9.86298 -3.87185,-11.29254c-0.65227,-1.99413 3.72254,-4.45461 3.72254,-4.45461z" data-paper-data="{&quot;index&quot;:null}" fill="#12140d" stroke="#000000" stroke-width="0" stroke-linecap="butt"/><path d="M252.19349,304.03237c0,0 6.16443,-1.0312 7.63272,-0.81293c1.19899,0.17814 3.83485,3.21296 3.83485,3.21296c0,0 3.82506,7.38372 5.19124,10.59378c0.23246,0.54598 8.9628,-1.98085 8.9628,-1.98085c0,0 2.00467,8.12026 2.37172,9.16263c0.68254,1.93838 -8.40945,0.81206 -7.74197,2.85472c0.38106,1.1666 -0.20781,5.54019 2.16315,6.76874c2.64996,1.37307 8.35554,0.80527 8.35554,0.80527l-7.41014,2.21948c0,0 -2.282,0.92664 -5.18568,-0.46243c-1.98771,-0.95118 -4.62699,0.47002 -6.73615,-1.17519c-3.06697,-2.39252 -3.3448,-2.74074 -3.7478,-3.5384c-1.15708,-2.29012 0.46449,-3.56351 -1.76315,-8.99994c-1.0653,-2.60014 -3.03594,-0.99636 -6.12082,-8.35857c-3.26671,-7.79623 1.34557,-6.76673 1.14991,-7.36557c-0.65211,-1.99423 -0.95624,-2.92443 -0.95624,-2.92443z" data-paper-data="{&quot;index&quot;:null}" fill="#1e1e26" stroke="#000000" stroke-width="0" stroke-linecap="butt"/><path d="M266.12844,322.65336l0.52786,-7.29416" fill="none" stroke="#c1ffce" stroke-width="0.5" stroke-linecap="round"/><path d="M263.7209,318.26153l1.50077,-7.2887" fill="none" stroke="#eaffc1" stroke-width="0.5" stroke-linecap="round"/><path d="M261.41465,313.18888l2.36153,-4.65678" fill="none" stroke="#ffb5b5" stroke-width="0.5" stroke-linecap="round"/><path d="M276.44235,322.51711l-1.1365,-5.45488" fill="none" stroke="#7d967f" stroke-width="0.5" stroke-linecap="round"/><path d="M274.01303,322.01695l-0.65289,-4.96563" fill="none" stroke="#966262" stroke-width="0.5" stroke-linecap="round"/></g><path d="M-11.98819,369.05086l1,-377l160.91797,-0.53253l0.08203,9.53253c0,0 -39.46962,6.29142 -75.5582,25.97667c-26.80308,14.62028 -51.53474,44.21584 -49.36246,61.1415c8.78971,68.48644 35.92067,279.88184 35.92067,279.88184z" fill="url(#color-17)" stroke="none" stroke-width="0" stroke-linecap="butt"/><g stroke-linecap="butt"><path d="M387.0545,223.55919l10.91247,-13.53142l15.12156,12.19497l-10.91247,13.53142z" fill="url(#color-18)" stroke="#000000" stroke-width="0"/><path d="M392.22199,175.6484c8.06888,-17.87984 27.87979,-26.38532 44.24888,-18.99789c16.36916,7.38734 23.09747,27.86996 15.02874,45.7495c-8.06888,17.87984 -27.87979,26.38532 -44.24888,18.99789c-16.36903,-7.38727 -23.09735,-27.86991 -15.02862,-45.74943z" fill="url(#color-19)" stroke="none" stroke-width="0"/><path d="M448.10702,173.22454l-0.01529,-0.01233l-0.03338,0.03876l-1.19777,-1.03249c-0.46037,-0.38134 -0.606,-1.04052 -0.32831,-1.58653c-4.28953,-2.78745 -9.05769,-5.25297 -11.88385,-7.47291c-0.40462,-0.31779 -0.92586,-0.59034 -1.49233,-0.84729c0.09327,0.32323 0.06156,0.68193 -0.11687,0.99799c-0.35276,0.62449 -1.14431,0.84466 -1.76866,0.4923c-0.09253,-0.05237 -0.17652,-0.11473 -0.25078,-0.18418l-0.56224,-0.50572c0.05018,0.26614 0.09328,0.53678 0.12961,0.81107c0,0 0.16759,1.2872 -1.11959,1.455c-1.2872,0.16759 -1.455,-1.11959 -1.455,-1.11959c-0.40412,-3.15706 -1.8737,-5.5682 -4.03813,-7.03084c-1.43849,-0.51297 -2.86341,-0.98554 -4.17826,-1.52316c-0.97015,-0.11997 -1.99837,-0.11415 -3.06921,0.02548l-0.11451,-0.04128l-0.00194,0.04062l-1.38003,-0.06942c-0.20359,-0.00581 -0.40944,-0.06035 -0.59914,-0.16757c-0.62449,-0.35276 -0.84468,-1.14432 -0.4923,-1.76866c0.08901,-0.15746 0.20606,-0.28913 0.341,-0.39247l1.29916,-1.04285l0.41699,0.52009c0.43348,-0.24546 0.88335,-0.43039 1.34575,-0.56092l-0.66069,-0.56983c-0.4745,-0.39326 -0.61449,-1.08148 -0.30091,-1.63729c0.35276,-0.62449 1.14431,-0.84466 1.76866,-0.4923l1.37074,0.77386c0.50455,0.28517 1.07394,0.59503 1.68612,0.92772c0.89841,0.31195 1.89632,0.88588 2.91191,1.60761c2.17594,1.23905 4.46631,2.6692 6.20722,4.21728c0.70009,0.52864 1.35778,1.05093 1.95987,1.53896l1.3005,0.73394c0.2843,0.16047 0.48496,0.41185 0.58583,0.69749c4.9373,2.60131 9.25598,6.37896 13.94631,9.68278c3.40506,2.39866 7.59808,4.66052 9.3819,8.54588c0.85215,3.16276 -0.74992,11.28757 -5.24571,6.08642c-2.63565,-3.04983 0.80724,-4.04106 1.07047,-6.40729c-0.83856,-1.01867 -2.0281,-2.14086 -3.01854,-3.16533c-1.00722,-0.68179 -1.96853,-1.24572 -2.34522,-1.45876z" fill="url(#color-20)" stroke="none" stroke-width="0.5"/><path d="M417.14649,148.94592c5.59682,3.26773 5.91699,2.58943 3.50982,6.59762c-2.40708,4.00836 -7.01657,5.92506 -10.29537,4.28057c-3.27866,-1.64469 -3.98539,-6.22755 -1.57825,-10.23572c2.40712,-4.00838 2.39537,-4.12676 8.36388,-0.64224z" data-paper-data="{&quot;index&quot;:null}" fill="url(#color-21)" stroke="#000000" stroke-width="0"/><path d="M429.65869,162.05575c2.9056,-4.23235 2.34027,-3.61864 11.0594,1.81687c9.29824,5.79627 9.14268,5.82407 6.2372,10.0565c-2.90516,4.23236 -9.13262,5.00543 -13.90889,1.72657c-4.77664,-3.27852 -6.29335,-9.36759 -3.38786,-13.60003z" fill="url(#color-22)" stroke="#000000" stroke-width="0"/><path d="M398.33341,202.7186c-23.86622,-18.56273 -8.71335,-33.63104 -8.71335,-33.63104c5.5282,-7.72818 21.36301,-7.85698 32.58897,0.17339c11.22598,8.03038 19.74424,23.87822 14.21605,31.60646c-5.52836,7.72825 -16.66877,18.84055 -38.09181,1.85132z" data-paper-data="{&quot;index&quot;:null}" fill="url(#color-23)" stroke="#ed6b00" stroke-width="0"/><path d="M398.33341,202.71862c-1.79336,-1.3948 -3.36641,-2.7699 -4.7421,-4.1204c0.89675,-0.78868 1.72064,-1.68829 2.45128,-2.6956c5.31292,-7.32488 3.68194,-17.56982 -3.64293,-22.88277c-1.31406,-0.95312 -2.72213,-1.6828 -4.17884,-2.19619c0.78574,-1.126 1.39928,-1.73612 1.39928,-1.73612c1.18668,-1.65892 2.84821,-2.96763 4.83714,-3.92069c5.36222,2.75489 11.75176,2.28962 16.62427,-0.99081c3.85578,0.94745 7.70577,2.63714 11.12755,5.08487c1.99571,1.42757 3.90585,3.10225 5.66668,4.93448c-5.59694,-0.54537 -11.32716,1.80735 -14.86747,6.68831c-5.31292,7.32488 -3.68194,17.56982 3.64293,22.88277c4.71213,3.41787 10.63265,3.96196 15.67128,1.96528c-6.37576,6.21882 -16.91771,10.52533 -33.98924,-3.01299z" data-paper-data="{&quot;index&quot;:null}" fill="url(#color-24)" stroke="#ed6b00" stroke-width="0"/><path d="M422.20907,169.26109c8.86667,6.34269 16.04415,17.56212 15.94552,25.80584c-6.17171,-1.35618 -12.84116,0.94296 -16.78829,6.38485c-2.22927,3.07344 -3.23604,6.66103 -3.11255,10.18267c-2.28694,-0.06482 -4.78916,-0.54198 -7.52543,-1.55767c0.79703,-2.99757 0.71539,-6.14286 -0.1849,-9.05947c5.62927,0.58425 11.40781,-1.76734 14.96968,-6.678c5.3129,-7.32488 3.68193,-17.56983 -3.64293,-22.88277c-4.34273,-3.1499 -9.71183,-3.85903 -14.47101,-2.38788c1.102,-1.6269 1.87299,-3.38609 2.32593,-5.19536c4.30306,0.86425 8.66081,2.65279 12.48391,5.38763z" data-paper-data="{&quot;index&quot;:null}" fill="url(#color-25)" stroke="#ed6b00" stroke-width="0"/><path d="M398.67957,175.53856c-2.88572,4.26011 -3.50137,9.42716 -2.08194,14.0256c-3.04942,-0.3165 -6.14271,0.22854 -8.90364,1.57519c-3.93753,-6.92681 -3.07643,-12.78755 -1.44259,-16.722c3.91582,2.04828 8.39133,2.36908 12.42807,1.12123z" data-paper-data="{&quot;index&quot;:null}" fill="url(#color-26)" stroke="#ed6b00" stroke-width="0"/><path d="M408.11061,194.92707c-0.62152,1.43445 -1.23646,3.62271 -1.69296,6.15467c-0.40867,-2.37595 -1.33867,-4.66349 -2.76035,-6.676c1.8053,-1.09724 3.42695,-2.56405 4.74503,-4.38125c5.31292,-7.32488 3.68194,-17.56982 -3.64293,-22.88277c-2.3212,-1.68365 -4.93566,-2.66996 -7.59352,-2.99874c5.08485,-1.47258 11.53151,-1.10184 17.61686,1.17689c-1.76382,6.39674 0.49078,13.49611 6.17858,17.62161c4.40628,3.19603 9.86917,3.87928 14.6796,2.32188c2.09352,4.40105 3.03034,8.77597 2.23138,12.31104c-0.28653,-0.62666 -0.65312,-1.14147 -1.11154,-1.51449c-3.58043,-2.91327 -7.83569,-4.88134 -11.74224,-7.34001c-0.63794,-0.40146 -1.829,-1.57183 -2.25918,-1.41221c-4.55355,1.68946 -8.60666,4.50371 -12.92652,6.72355c-0.3541,0.18191 -1.62349,0.66784 -1.72227,0.89579z" data-paper-data="{&quot;index&quot;:null}" fill="url(#color-27)" stroke="#ed6b00" stroke-width="0"/><path d="M398.33338,202.71858c-6.73111,-5.23538 -10.35848,-10.19276 -12.09746,-14.61255c2.23748,-4.50632 2.22542,-9.70929 0.20086,-14.11987c0.84482,-1.89933 1.84607,-3.30684 2.49695,-4.11422c6.79068,2.68355 14.79019,0.55773 19.27513,-5.62566c0.13804,-0.1903 0.27142,-0.38262 0.4001,-0.57674c4.66062,0.76542 9.44591,2.61974 13.60008,5.59141c1.15582,0.82679 2.28294,1.73651 3.36898,2.71165c-3.27471,-0.28126 -6.58615,0.42723 -9.4697,2.05148c-3.1948,-0.29511 -5.64697,-4.36844 -8.81547,-3.86402c-5.4355,0.86534 -11.81731,2.33968 -15.04887,6.79502c-7.97635,10.99687 -2.31448,16.40115 3.64293,22.88277c3.45437,3.75829 8.85025,6.30111 14.61292,7.48207c6.06743,3.62438 13.7116,2.89236 18.97198,-1.56561c0.24141,-0.115 0.47865,-0.23433 0.71159,-0.3581c2.25373,-1.19742 5.0293,-3.16478 6.88387,-5.5813c-0.18818,0.36534 -0.40195,0.7166 -0.64224,1.05254c-5.52836,7.72825 -16.66875,18.84057 -38.09181,1.85132z" data-paper-data="{&quot;index&quot;:null}" fill="url(#color-28)" stroke="#ed6b00" stroke-width="0"/></g><g stroke-width="0" stroke-linecap="butt"><path d="M357.58857,303.00264c0,0 -4.25495,-2.23014 -6.39527,-4.92871c-1.84285,-2.32306 -1.4425,-5.00823 -3.28636,-6.74382c-0.91322,-0.85971 -4.26022,-2.29688 -5.5905,-3.47264c-1.75979,-1.55558 -6.12197,-3.13059 -7.66735,-5.05682c-1.93368,-2.40962 -1.05432,-5.21066 -3.45201,-7.39659c-5.27964,-4.81337 -11.6829,-8.24009 -11.6829,-8.24009c0,0 10.42227,-10.32036 18.01265,-19.3625c7.36476,-8.77298 11.82371,-16.18393 16.90616,-22.00674c5.74432,-6.58096 21.7883,-23.59755 21.7883,-23.59755c0,0 8.50763,6.54107 11.43789,10.88817c2.77692,4.12002 5.70875,14.54951 5.70875,14.54951c0,0 12.77013,4.06498 17.73591,7.18045c3.90096,2.44724 9.64222,9.99604 9.64222,9.99604c0,0 -15.11102,16.09624 -23.86375,24.16104c-4.66327,4.29683 -12.38174,8.50268 -19.44748,14.58908c-10.39864,8.9573 -19.84623,19.44181 -19.84623,19.44181z" fill="#d1b0b0" stroke="#292e32"/><path d="M360.72617,224.07853l9.14758,-9.55782l14.64157,12.73544l-10.43339,10.45646z" fill="#f200ff" stroke="none"/><path d="M378.56406,233.22056c-0.38608,-3.68683 -2.01907,-7.2641 -4.88834,-10.04669c-0.69312,-0.67214 -1.43035,-1.27075 -2.20204,-1.796c1.80955,0.02925 3.62218,-0.23954 5.35798,-0.80509l7.68368,6.68338z" fill="#eeff00" stroke="none"/><path d="M362.9031,226.30086c1.56405,-0.79783 3.02556,-1.86265 4.3161,-3.19339c2.05591,-2.11998 3.42387,-4.65288 4.10822,-7.32234l9.60305,8.35289c-5.45423,-0.61033 -11.08861,1.40403 -14.74219,5.51651z" fill="#00ff5f" stroke="none"/><path d="M362.80696,226.20263c0.45643,-0.92136 0.82059,-1.87628 1.09272,-2.85117c2.23748,1.10161 4.67164,1.66026 7.10763,1.67894c-0.81058,3.65098 -0.35851,7.52138 1.34568,10.91724l-9.54605,-9.74499z" fill="#004fff" stroke="none"/><path d="M371.48085,235.05739c1.9358,-0.82951 3.74274,-2.04841 5.30059,-3.65478c2.05122,-2.11517 3.41768,-4.64136 4.10355,-7.30412l3.63039,3.15773l-10.43343,10.45647z" fill="#ff0000" stroke="none"/><path d="M366.18249,218.37753c-0.22096,2.5843 0.16964,5.20921 1.16823,7.64026c-0.67397,0.99354 -1.22654,2.04399 -1.65797,3.13084l-4.96658,-5.07008l5.45634,-5.70102z" fill="#00efff" stroke="none"/><path d="M376.36306,220.16519c-5.32053,-1.26771 -11.14321,0.16182 -15.30179,4.25541l-0.33504,-0.34203l9.14758,-9.55784z" fill="#9c00ff" stroke="none"/></g><g data-paper-data="{&quot;index&quot;:null}" stroke="#000000" stroke-width="0" stroke-linecap="butt"><path d="M362.72436,295.83415c0,0 8.96645,-2.76162 17.59387,-9.90779c2.07476,-1.71846 9.31633,-5.95012 11.43126,-7.74057c2.90743,-2.46123 13.85021,-6.89826 17.75391,-12.92547c2.81678,-4.34909 -5.77595,-8.6836 2.26149,-15.58319c4.79965,-8.05766 21.35031,-2.19018 17.30181,17.0913c-2.01668,9.60463 -14.60304,18.60314 -16.98165,20.50958c-2.91148,2.33347 -6.22096,2.26593 -10.86268,5.66763c-2.08102,1.52486 -11.86353,6.53777 -17.69149,9.92798c-9.70305,5.64448 -14.97301,10.28206 -14.97301,10.28206z" fill="#b8bda6"/><path d="M356.12756,319.86211c-2.72754,1.51188 -5.08025,4.80649 -5.5895,3.5809c-2.28305,-3.41828 0.16559,-4.29724 1.48198,-7.6523c0.69704,-1.77614 -3.73284,8.61709 -5.70661,2.49835c-1.17875,-3.23433 3.72541,-5.29731 5.30409,-7.9923c0.8449,-1.44275 -6.50738,8.33765 -8.31691,3.09319c-1.7898,-2.65849 2.62486,-3.08886 5.97191,-6.31236c0.36156,-0.34833 -5.67541,4.68135 -7.91157,1.29866c-2.02079,-3.05691 8.96899,-7.54293 8.99057,-7.60059c0.19537,-0.52125 -1.87683,1.63789 -2.52656,0.00762c-1.69949,-4.26433 5.83722,-3.71785 8.50332,-3.42862c2.82616,0.3069 6.10914,-1.37028 6.10914,-1.37028c0,0 3.87283,4.90106 4.85077,7.82852c0.95256,2.85024 0.94244,9.51016 0.94244,9.51016c0,0 -6.80206,3.60067 -12.10314,6.53912z" data-paper-data="{&quot;index&quot;:null}" fill="#786274"/></g></g></g></svg>