<svg version="1.1" xmlns="http://www.w3.org/2000/svg" xmlns:xlink="http://www.w3.org/1999/xlink" width="363.51408" height="337.02151" viewBox="0,0,363.51408,337.02151"><defs><linearGradient x1="217.33334" y1="68.896" x2="262.66666" y2="68.896" gradientUnits="userSpaceOnUse" id="color-1"><stop offset="0" stop-color="#cdd3da"/><stop offset="1" stop-color="#9da3ab"/></linearGradient><linearGradient x1="208.83333" y1="173.89601" x2="271.16667" y2="173.89601" gradientUnits="userSpaceOnUse" id="color-2"><stop offset="0" stop-color="#b2b8bd"/><stop offset="1" stop-color="#8c9298"/></linearGradient><linearGradient x1="207.5" y1="178.22935" x2="272.5" y2="178.22935" gradientUnits="userSpaceOnUse" id="color-3"><stop offset="0" stop-color="#777c7f"/><stop offset="1" stop-color="#5f6368"/></linearGradient><radialGradient cx="223.42059" cy="-64.58705" r="24.95866" gradientUnits="userSpaceOnUse" id="color-4"><stop offset="0" stop-color="#bec4ca"/><stop offset="1" stop-color="#8c9098"/></radialGradient><linearGradient x1="224.17585" y1="-56.67833" x2="215.21752" y2="-62.15538" gradientUnits="userSpaceOnUse" id="color-5"><stop offset="0" stop-color="#f0f7ff"/><stop offset="1" stop-color="#afb6be"/></linearGradient><linearGradient x1="216.39015" y1="-61.43844" x2="79.06686" y2="-145.39658" gradientUnits="userSpaceOnUse" id="color-6"><stop offset="0" stop-color="#f0f7ff"/><stop offset="1" stop-color="#afb6be"/></linearGradient><linearGradient x1="93.9341" y1="-136.96429" x2="60.83258" y2="-157.20225" gradientUnits="userSpaceOnUse" id="color-7"><stop offset="0" stop-color="#cbe3ff"/><stop offset="1" stop-color="#86a1bf"/></linearGradient><linearGradient x1="256.38311" y1="-56.01799" x2="265.61782" y2="-61.01504" gradientUnits="userSpaceOnUse" id="color-8"><stop offset="0" stop-color="#f0f7ff"/><stop offset="1" stop-color="#afb6be"/></linearGradient><linearGradient x1="264.409" y1="-60.36091" x2="405.96854" y2="-136.96089" gradientUnits="userSpaceOnUse" id="color-9"><stop offset="0" stop-color="#f0f7ff"/><stop offset="1" stop-color="#afb6be"/></linearGradient><linearGradient x1="390.67734" y1="-129.32433" x2="424.79999" y2="-147.78859" gradientUnits="userSpaceOnUse" id="color-10"><stop offset="0" stop-color="#cbe3ff"/><stop offset="1" stop-color="#86a1bf"/></linearGradient><linearGradient x1="239.40216" y1="-28.21606" x2="238.86214" y2="-17.72994" gradientUnits="userSpaceOnUse" id="color-11"><stop offset="0" stop-color="#f0f7ff"/><stop offset="1" stop-color="#afb6be"/></linearGradient><linearGradient x1="238.93283" y1="-19.10257" x2="230.6548" y2="141.63987" gradientUnits="userSpaceOnUse" id="color-12"><stop offset="0" stop-color="#f0f7ff"/><stop offset="1" stop-color="#afb6be"/></linearGradient><linearGradient x1="230.97324" y1="124.55079" x2="228.97785" y2="163.29744" gradientUnits="userSpaceOnUse" id="color-13"><stop offset="0" stop-color="#cbe3ff"/><stop offset="1" stop-color="#86a1bf"/></linearGradient><radialGradient cx="233.85846" cy="-49.65612" r="20.5" gradientUnits="userSpaceOnUse" id="color-14"><stop offset="0" stop-color="#e6eef5"/><stop offset="1" stop-color="#c4cad5"/></radialGradient></defs><g transform="translate(-61.0447,157.1255)"><g data-paper-data="{&quot;isPaintingLayer&quot;:true}" fill-rule="nonzero" stroke="none" stroke-width="0" stroke-linecap="butt" stroke-linejoin="miter" stroke-miterlimit="10" stroke-dasharray="" stroke-dashoffset="0" style="mix-blend-mode: normal"><path d="M217.33334,171.22934l8.33333,-204.66667h28.66666l8.33333,204.66667z" fill="url(#color-1)"/><path d="M208.83333,176.89601v-6h62.33333v6z" fill="url(#color-2)"/><path d="M207.5,179.89601v-3.33333h65v3.33333z" fill="url(#color-3)"/><path d="M215.83335,-28.47866c0,-5.48483 0,-26.33483 0,-37c0,-3.59358 3.15873,-6.91731 6.33333,-6.91731c5.84411,0 25.85484,0 36,0c3.63233,0 6,3.22824 6,6.25065c0,10.40972 0,32.86094 0,38.66667c0,2.49943 -1.92973,5 -5,5c-10.75875,0 -34.18908,0 -39,0c-1.59078,0 -4.33333,-3.64513 -4.33333,-6z" fill="url(#color-4)"/><g><g data-paper-data="{&quot;index&quot;:null}"><path d="M227.82722,-62.65056l-7.30273,11.94445l-8.95834,-5.47705l7.30274,-11.94446z" fill="url(#color-5)"/><path d="M221.54515,-69.87004l-10.31,16.86321l-120.13765,-79.72842l5.3213,-8.7036z" fill="url(#color-6)"/><path d="M96.62801,-141.37051l-5.38782,8.81239c0,0 -31.58968,-21.90109 -30.14758,-24.26097c1.75784,-2.8766 35.53538,15.44857 35.53538,15.44857z" fill="url(#color-7)"/></g><g data-paper-data="{&quot;index&quot;:null}"><path d="M262.28645,-67.17151l6.66272,12.31294l-9.2347,4.99704l-6.66271,-12.31293z" fill="url(#color-8)"/><path d="M388.43205,-133.92368l4.85493,8.9721l-124.17476,73.28237l-9.40641,-17.38342z" fill="url(#color-9)"/><path d="M424.52012,-147.41967c1.31565,2.43265 -31.38497,22.63747 -31.38497,22.63747l-4.91561,-9.08424c0,0 34.69688,-16.51852 36.30058,-13.55324z" fill="url(#color-10)"/></g><g data-paper-data="{&quot;index&quot;:null}"><path d="M232.41143,-28.57608l13.98146,0.72002l-0.54003,10.48612l-13.98147,-0.72002z" fill="url(#color-11)"/><path d="M229.06331,-19.61084l19.73907,1.01653l-12.75913,143.62062l-10.18792,-0.52466z" fill="url(#color-12)"/><path d="M229.19054,162.88611c-3.36674,-0.17263 -3.37492,-38.60093 -3.37492,-38.60093l10.31525,0.53121c0,0 -4.17832,38.21136 -6.94033,38.06972z" fill="url(#color-13)"/></g><path d="M257.56277,-57.84588c6.04951,9.57012 3.19552,22.23236 -6.37463,28.28188c-9.57012,6.04951 -22.23236,3.19552 -28.28187,-6.37462c-6.04951,-9.57012 -3.19552,-22.23236 6.37462,-28.28187c9.57012,-6.04951 22.23236,-3.19552 28.28187,6.37462z" data-paper-data="{&quot;index&quot;:null}" fill="url(#color-14)"/></g></g></g></svg>