<svg version="1.1" xmlns="http://www.w3.org/2000/svg" xmlns:xlink="http://www.w3.org/1999/xlink" width="70.68765" height="118.47857" viewBox="0,0,70.68765,118.47857"><defs><linearGradient x1="239.74789" y1="149.41535" x2="239.74789" y2="156.26644" gradientUnits="userSpaceOnUse" id="color-1"><stop offset="0" stop-color="#736b4f"/><stop offset="1" stop-color="#bec286"/></linearGradient><radialGradient cx="235.45423" cy="124.47792" r="13.11833" gradientUnits="userSpaceOnUse" id="color-2"><stop offset="0" stop-color="#ccbe7a"/><stop offset="1" stop-color="#948f62"/></radialGradient></defs><g transform="translate(-204.28155,-115.40861)"><g data-paper-data="{&quot;isPaintingLayer&quot;:true}" fill-rule="nonzero" stroke-linejoin="miter" stroke-miterlimit="10" stroke-dasharray="" stroke-dashoffset="0" style="mix-blend-mode: normal"><g><path d="M222.23344,225.08239l8.53847,-32.82673c0,0 6.99781,-1.19478 10.03312,-0.75645c3.59146,0.51863 -0.00651,4.28715 -0.00651,4.28715c0,0 -3.07292,-0.35454 -3.58097,1.02278c-1.55376,4.21216 -7.06314,29.41708 -7.06314,29.41708z" fill="#a69b98" stroke="#000000" stroke-width="0" stroke-linecap="butt"/><path d="M236.72511,232.13487c0,0 -0.65905,1.86511 -1.47744,1.74693c-0.58667,-0.08472 -2.61892,-0.36439 -4.64651,-0.73858c-1.23272,-0.2275 -1.79433,-0.88331 -2.69771,-1.1581c-1.13731,-0.34593 -2.93988,-0.20178 -3.75302,-0.51271c-1.49835,-0.57292 -2.23908,-1.10923 -2.23908,-1.10923c0,0 -0.1198,-1.05332 -0.05601,-1.61034c0.08593,-0.75043 0.52525,-2.48748 0.52525,-2.48748c0,0 5.89041,0.72982 8.15291,1.25893c1.33879,0.31311 4.10458,1.24624 4.10458,1.24624c0,0 1.35677,0.81792 1.50715,1.2713c0.18413,0.55526 0.57987,2.09302 0.57987,2.09302z" data-paper-data="{&quot;index&quot;:null}" fill="#141415" stroke="#000000" stroke-width="0" stroke-linecap="butt"/><path d="M236.54769,231.46804c0,0 -0.38173,-0.05512 -1.20014,-0.17332c-0.24567,-0.03548 0.46627,1.68559 -2.78177,0.94523c-3.06719,-0.69915 -2.57815,-1.57286 -3.6597,-1.81047c-2.26158,-0.49687 -2.64614,0.21908 -3.61367,-0.07521c-0.33695,-0.10248 -0.49107,-0.18664 -1.62756,-1.21545c-0.7816,-0.70754 -0.40852,-1.82838 -0.91236,-2.53572c-0.73597,-1.03326 -0.53064,-1.98198 -0.53064,-1.98198l0.36001,-3.02735c0,0 0.16595,2.25368 0.87844,3.18952c0.63749,0.83732 2.2958,0.31259 2.77451,0.38158c0.83828,0.12081 -0.21469,-3.33296 0.58415,-3.19916c0.42954,0.07193 3.71798,0.3004 3.71798,0.3004c0,0 -0.3899,3.56071 -0.1622,3.61396c1.33878,0.31311 4.46463,1.29824 4.46463,1.29824c0,0 1.35677,0.81792 1.50715,1.2713c0.18414,0.55527 0.2012,3.01847 0.2012,3.01847z" data-paper-data="{&quot;index&quot;:null}" fill="#252527" stroke="#000000" stroke-width="0" stroke-linecap="butt"/><path d="M231.17045,226.6198l-2.79629,0.69885" data-paper-data="{&quot;index&quot;:null}" fill="none" stroke="#ffffff" stroke-width="0.5" stroke-linecap="round"/><path d="M230.2424,227.95597l2.72826,-1.07621" data-paper-data="{&quot;index&quot;:null}" fill="none" stroke="#ffffff" stroke-width="0.5" stroke-linecap="round"/><path d="M234.01615,227.2757l-1.64815,1.23221" data-paper-data="{&quot;index&quot;:null}" fill="none" stroke="#ffffff" stroke-width="0.5" stroke-linecap="round"/><path d="M227.72858,223.3049l2.19492,0.07193" data-paper-data="{&quot;index&quot;:null}" fill="none" stroke="#969696" stroke-width="0.5" stroke-linecap="round"/><path d="M230.05954,224.13156l-1.97222,0.08274" data-paper-data="{&quot;index&quot;:null}" fill="none" stroke="#969696" stroke-width="0.5" stroke-linecap="round"/></g><g stroke="#000000" stroke-width="0" stroke-linecap="butt"><path d="M250.48475,203.06167c-0.49679,-0.13253 0.27231,-3.9449 -0.92891,-4.71638c-0.41238,-0.26487 -1.79493,4.82501 -2.61152,4.35314c-0.48473,-0.2801 0.33626,-3.0825 0.31513,-4.52954c-0.0103,-0.70496 0.71337,-5.50241 0.71337,-5.50241c0,0 1.30681,-2.75217 1.52951,-6.25979c0.05355,-0.84349 0.43705,-3.57399 0.48275,-4.44126c0.10814,-2.05258 0.13536,-4.09418 0.23546,-5.35002c0.21521,-2.70111 2.08653,-15.52739 2.08653,-15.52739l5.64712,-0.30224c0,0 -1.31219,6.44939 -2.14241,13.38801c-0.62455,5.21957 -0.74727,10.85818 -1.10924,13.44481c-0.4284,3.0613 -1.47147,6.91774 -1.47147,6.91774c0,0 -0.55145,2.7356 -1.15443,5.00452c-0.54257,2.04155 -1.11345,3.64842 -1.59185,3.5208z" data-paper-data="{&quot;index&quot;:null}" fill="#8b8560"/><path d="M253.20844,153.91211c5.96114,0.01564 5.97262,3.61529 5.78249,5.57835c-0.19012,1.96306 1.67021,1.76685 -3.79246,1.72822c-4.61715,-0.03264 -3.93116,-0.32131 -3.74102,-2.28436c0.19013,-1.96304 -1.3535,-5.03035 1.75097,-5.02219z" data-paper-data="{&quot;index&quot;:null}" fill="#42352d"/></g><g stroke="#000000" stroke-width="0" stroke-linecap="butt"><path d="M274.60541,202.9369c-0.4979,0.12832 -1.90811,-3.36861 -2.61119,-4.01717c-0.37637,-0.3472 0.65209,4.94741 -0.29494,4.93801c-0.56219,-0.00557 -1.26925,-2.83808 -2.02029,-4.08274c-0.3659,-0.60637 -2.16758,-5.12149 -2.16758,-5.12149c0,0 -0.26039,-3.02683 -1.84338,-6.17801c-0.38067,-0.75777 -1.43071,-3.31371 -1.83025,-4.08827c-0.94555,-1.83315 -1.95571,-3.61711 -2.50484,-4.75532c-1.1811,-2.44802 -6.05303,-14.48847 -6.05303,-14.48847l4.74379,-3.02727c0,0 2.12784,6.23601 4.9213,12.66036c2.10138,4.8327 4.85011,9.78313 5.84596,12.20374c1.1786,2.8648 2.22686,6.72022 2.22686,6.72022c0,0 0.90699,2.64258 1.53301,4.90565c0.56327,2.0363 0.53402,4.20716 0.05457,4.33074z" data-paper-data="{&quot;index&quot;:null}" fill="#979068"/><path d="M252.42799,158.47845c5.17704,-2.90533 7.00971,0.21099 7.83885,2.00663c0.82914,1.79564 2.34294,0.71455 -2.41347,3.35587c-4.02025,2.23251 -3.57155,1.64624 -4.40069,-0.14939c-0.82914,-1.79564 -3.7208,-3.70003 -1.02469,-5.2131z" data-paper-data="{&quot;index&quot;:null}" fill="#4a3c33"/></g><g><path d="M239.3219,191.55349c3.58977,-0.53026 10.75526,0.61765 10.75526,0.61765l7.92495,32.90523l-7.55734,1.11632c0,0 -5.04458,-25.07014 -6.33667,-28.95496c-0.3662,-1.101 -3.56623,-1.57433 -3.56623,-1.57433c0,0 -4.25387,-3.66177 -1.21997,-4.10991z" fill="#a69b98" stroke="#000000" stroke-width="0" stroke-linecap="butt"/><path d="M265.37649,231.15376c-0.58639,0.08662 -2.61373,0.39988 -4.66364,0.62126c-1.24629,0.1346 -1.97201,-0.3332 -2.91623,-0.33811c-1.18873,-0.00617 -2.87478,0.6475 -3.74289,0.58215c-1.59961,-0.12042 -2.4628,-0.42247 -2.4628,-0.42247c0,0 -0.41607,-0.97506 -0.51426,-1.52705c-0.1323,-0.74366 -0.20816,-2.53379 -0.20816,-2.53379c0,0 5.85307,-0.98544 8.17239,-1.12554c1.37241,-0.08289 4.28956,0.02018 4.28956,0.02018c0,0 1.53404,0.39568 1.80779,0.78711c0.33528,0.4794 1.15429,1.83972 1.15429,1.83972c0,0 -0.09806,1.97569 -0.91607,2.09651z" data-paper-data="{&quot;index&quot;:null}" fill="#141415" stroke="#000000" stroke-width="0" stroke-linecap="butt"/><path d="M264.73225,228.64626c-0.24555,0.03628 0.92891,1.48181 -2.3952,1.70137c-3.13903,0.20735 -2.92031,-0.76975 -4.02464,-0.6881c-2.30921,0.17073 -2.47293,0.96678 -3.48422,0.96152c-0.35219,-0.00183 -0.52394,-0.0384 -1.90723,-0.69916c-0.95135,-0.45443 -0.91442,-1.63515 -1.59953,-2.16885c-1.00075,-0.77958 -1.07536,-1.74742 -1.07536,-1.74742l-0.5209,-3.00387c0,0 0.80361,2.11205 1.75401,2.80502c0.85035,0.62001 2.28928,-0.35712 2.76776,-0.42793c0.83783,-0.12399 -1.15901,-3.13229 -0.35527,-3.23258c0.43218,-0.05393 3.64858,-0.77559 3.64858,-0.77559c0,0 0.64483,3.52348 0.87823,3.50939c1.37241,-0.08289 4.64943,-0.03296 4.64943,-0.03296c0,0 1.53404,0.39568 1.8078,0.78711c0.33528,0.4794 1.05614,2.83483 1.05614,2.83483c0,0 -0.38156,0.05636 -1.19958,0.1772z" data-paper-data="{&quot;index&quot;:null}" fill="#252527" stroke="#000000" stroke-width="0" stroke-linecap="butt"/><path d="M259.39251,225.36128l-2.47959,1.46944" fill="none" stroke="#ffffff" stroke-width="0.5" stroke-linecap="round"/><path d="M258.88541,226.90707l2.30648,-1.81159" fill="none" stroke="#ffffff" stroke-width="0.5" stroke-linecap="round"/><path d="M261.0801,226.8281l1.22686,-1.65211" fill="none" stroke="#ffffff" stroke-width="0.5" stroke-linecap="round"/><path d="M255.14634,223.16931l2.12379,-0.55887" fill="none" stroke="#969696" stroke-width="0.5" stroke-linecap="round"/><path d="M255.75021,223.93812l1.86616,-0.64338" fill="none" stroke="#969696" stroke-width="0.5" stroke-linecap="round"/></g><path d="M235.91981,157.06516v-7.64977h7.65615l-0.1141,7.87798z" fill="url(#color-1)" stroke="#000000" stroke-width="0" stroke-linecap="butt"/><path d="M229.63981,193.59147c0,0 1.05415,-4.96832 0.53438,-10.35244c-0.16183,-1.6764 -0.21302,-5.68895 -0.71668,-7.54193c-0.59549,-2.19087 -2.53406,-2.77781 -2.61907,-4.12911c-0.1679,-2.66921 -1.07001,-6.79369 -0.41646,-11.37123c0.49266,-3.45066 3.45852,-6.29847 3.45852,-6.29847c0,0 3.98746,-0.28908 5.76508,0.07712c2.26281,0.46615 4.64106,2.49298 4.64106,2.49298c0,0 3.08552,-2.02276 4.99894,-2.43902c2.01891,-0.43921 5.48447,0.01677 5.48447,0.01677c0,0 2.62113,3.52189 2.84787,7.84095c0.214,4.0764 -0.63262,8.46783 -0.70926,10.13771c-0.07768,1.69256 -1.49509,2.1313 -2.13228,4.27482c-0.50833,1.71005 -0.54704,5.19044 -0.67745,7.18949c-0.3029,4.64296 0.14784,10.27371 0.14784,10.27371c0,0 -2.75697,-0.76932 -5.57187,-0.83754c-1.27833,-0.03098 -1.79126,1.00612 -2.99851,1.16532c-0.96496,0.12724 -2.63623,-0.61291 -3.56107,-0.64966c-0.69915,-0.02778 -2.04377,-0.5306 -2.53801,-0.53471c-0.99795,-0.0083 -1.61572,0.86529 -2.77345,1.02464c-1.34484,0.1851 -3.1641,-0.33939 -3.1641,-0.33939z" fill="#4f4037" stroke="#292e32" stroke-width="0" stroke-linecap="butt"/><g stroke="#000000" stroke-width="0" stroke-linecap="butt"><path d="M228.836,199.0742c-0.65928,-2.25438 -1.2719,-4.98034 -1.2719,-4.98034c0,0 -1.13944,-3.83089 -1.62915,-6.88992c-0.41377,-2.58473 -0.62404,-8.24922 -1.34907,-13.46974c-0.96383,-6.93986 -2.42071,-13.36599 -2.42071,-13.36599l5.8663,0.04915c0,0 2.13106,12.81336 2.39417,15.51982c0.12234,1.25833 0.18061,3.31007 0.32303,5.36923c0.06018,0.87004 0.49842,3.59846 0.56639,4.44424c0.28272,3.5171 1.67968,6.22569 1.67968,6.22569c0,0 0.82172,4.79154 0.82138,5.5009c-0.00066,1.45606 0.89278,4.23705 0.3937,4.54057c-0.84071,0.51134 -2.88222,-5.45177 -3.03143,-4.95692c-0.27874,0.9244 -0.12453,5.32622 -0.6383,5.4819c-0.49472,0.14991 -1.11093,-1.44013 -1.70413,-3.46859z" data-paper-data="{&quot;index&quot;:null}" fill="#a0986e"/><path d="M228.90311,158.481c0.22622,1.96542 0.94255,2.22475 -3.84971,2.46589c-5.66983,0.2853 -3.73586,0.39866 -3.96209,-1.56675c-0.22622,-1.96542 -0.26721,-5.58566 5.92039,-5.87036c3.22241,-0.14825 1.66518,3.00579 1.89139,4.97121z" fill="#615046"/></g><g stroke="#000000" stroke-width="0" stroke-linecap="butt"><path d="M205.1024,196.63332c0.76028,-2.22234 1.83042,-4.80323 1.83042,-4.80323c0,0 1.27632,-3.7875 2.63888,-6.56975c1.15129,-2.35087 4.24361,-7.10148 6.65938,-11.78585c3.21138,-6.22715 5.72378,-12.31861 5.72378,-12.31861l4.76605,3.42061c0,0 -5.64206,11.70006 -6.98661,14.06355c-0.62513,1.09888 -1.75981,2.8093 -2.83001,4.57427c-0.45217,0.74575 -1.66628,3.22815 -2.09809,3.95857c-1.79568,3.03734 -2.21478,6.05601 -2.21478,6.05601c0,0 -5.01074,8.52681 -5.5216,8.51526c-1.48805,-0.03367 1.54032,-5.61145 1.02272,-5.33193c-0.97782,0.52805 -3.08658,4.20671 -3.59616,4.03791c-0.49069,-0.16258 -0.07807,-1.81715 0.60604,-3.81679z" data-paper-data="{&quot;index&quot;:null}" fill="#ada477"/><path d="M228.59575,163.37619c-0.9477,1.73663 -0.51169,2.36139 -4.56723,-0.20309c-4.79818,-3.03407 -3.28296,-1.82699 -2.33526,-3.56363c0.9477,-1.73663 3.00037,-4.719 8.22137,-1.38606c2.71903,1.73575 -0.37117,3.41611 -1.31887,5.15277z" fill="#615046"/></g><g><path d="M251.22502,117.79763c0,0 -0.26338,3.24445 -0.58861,4.57283c-0.26638,1.08795 -1.2217,2.82111 -1.2217,2.82111" data-paper-data="{&quot;index&quot;:null}" fill="none" stroke="#3b2c16" stroke-width="1.25" stroke-linecap="round"/><path d="M252.62927,121.93589c0,0 -0.18908,2.27851 -0.58872,3.23539c-0.42269,1.01206 -1.88216,2.68074 -1.88216,2.68074" data-paper-data="{&quot;index&quot;:null}" fill="none" stroke="#3b2c16" stroke-width="1.25" stroke-linecap="round"/><path d="M248.9718,116.03361c0,0 0.11659,3.27103 -0.03039,4.69304c-0.12038,1.16464 -0.78772,3.22209 -0.78772,3.22209" data-paper-data="{&quot;index&quot;:null}" fill="none" stroke="#3b2c16" stroke-width="1.25" stroke-linecap="round"/><path d="M252.55185,134.25847c0,7.39154 -8.18556,17.31455 -11.39879,17.3764c-6.69145,0.1288 -14.23242,-9.98486 -14.23242,-17.3764c0,-7.39154 5.73774,-13.38356 12.8156,-13.38356c7.07786,0 12.8156,5.99202 12.8156,13.38356z" fill="url(#color-2)" stroke="none" stroke-width="0" stroke-linecap="butt"/><path d="M241.64846,135.34165c0,2.06292 -0.85162,3.73524 -1.90215,3.73524c-1.05053,0 -1.90214,-1.67233 -1.90214,-3.73524c0,-2.06292 0.85162,-3.73523 1.90214,-3.73523c1.05053,0 1.90215,1.67232 1.90215,3.73523z" fill="none" stroke="#191412" stroke-width="1.5" stroke-linecap="butt"/><path d="M246.3825,129.77996c0,2.06292 -0.85162,3.73524 -1.90214,3.73524c-1.05053,0 -1.90215,-1.67233 -1.90215,-3.73524c0,-2.06292 0.85162,-3.73524 1.90215,-3.73524c1.05053,0 1.90214,1.67232 1.90214,3.73524z" fill="none" stroke="#191412" stroke-width="1.5" stroke-linecap="butt"/><path d="M251.07875,135.29518c0,2.06292 -0.85161,3.73524 -1.90214,3.73524c-1.05053,0 -1.90215,-1.67233 -1.90215,-3.73524c0,-2.06292 0.85162,-3.73523 1.90215,-3.73523c1.05053,0 1.90214,1.67232 1.90214,3.73523z" fill="none" stroke="#191412" stroke-width="1.5" stroke-linecap="butt"/><path d="M246.32528,140.42395c0,2.06292 -0.85162,3.73524 -1.90214,3.73524c-1.05053,0 -1.90215,-1.67233 -1.90215,-3.73524c0,-2.06292 0.85162,-3.73523 1.90215,-3.73523c1.05053,0 1.90214,1.67232 1.90214,3.73523z" fill="none" stroke="#191412" stroke-width="1.5" stroke-linecap="butt"/><path d="M232.27206,125.51299c0,0 -1.55639,-1.73224 -1.99089,-2.81993c-0.53052,-1.32806 -0.96207,-4.57226 -0.96207,-4.57226" fill="none" stroke="#47341a" stroke-width="1.5" stroke-linecap="round"/><path d="M231.06403,128.17421c0,0 -2.37686,-1.66727 -3.06571,-2.67893c-0.6513,-0.9565 -0.96105,-3.23482 -0.96105,-3.23482" fill="none" stroke="#47341a" stroke-width="1.5" stroke-linecap="round"/><path d="M234.32334,124.26894c0,0 -1.08798,-2.05681 -1.28494,-3.22133c-0.24048,-1.42187 -0.05363,-4.693 -0.05363,-4.693" fill="none" stroke="#47341a" stroke-width="1.5" stroke-linecap="round"/></g></g></g></svg>