<svg version="1.1" xmlns="http://www.w3.org/2000/svg" xmlns:xlink="http://www.w3.org/1999/xlink" width="77.083" height="120.99686" viewBox="0,0,77.083,120.99686"><defs><radialGradient cx="294.05961" cy="171.04567" r="0.65546" gradientUnits="userSpaceOnUse" id="color-1"><stop offset="0" stop-color="#c6beb6"/><stop offset="1" stop-color="#a9a4a1"/></radialGradient><radialGradient cx="295.17902" cy="171.44475" r="2.69811" gradientUnits="userSpaceOnUse" id="color-2"><stop offset="0" stop-color="#d9d0c7"/><stop offset="1" stop-color="#b7b1ad"/></radialGradient><linearGradient x1="240.5031" y1="147.79764" x2="240.5031" y2="155.6709" gradientUnits="userSpaceOnUse" id="color-3"><stop offset="0" stop-color="#505050"/><stop offset="1" stop-color="#767676"/></linearGradient><radialGradient cx="235.45424" cy="124.47802" r="13.11833" gradientUnits="userSpaceOnUse" id="color-4"><stop offset="0" stop-color="#ccbe7a"/><stop offset="1" stop-color="#948f62"/></radialGradient><linearGradient x1="251.47542" y1="115.25819" x2="251.47542" y2="124.50065" gradientUnits="userSpaceOnUse" id="color-5"><stop offset="0" stop-color="#464646"/><stop offset="1" stop-color="#343434"/></linearGradient><linearGradient x1="251.47543" y1="115.25819" x2="251.47543" y2="124.50065" gradientUnits="userSpaceOnUse" id="color-6"><stop offset="0" stop-color="#131313"/><stop offset="1" stop-color="#202020"/></linearGradient><linearGradient x1="239.89382" y1="116.28514" x2="239.89382" y2="151.31517" gradientUnits="userSpaceOnUse" id="color-7"><stop offset="0" stop-color="#ffe8b5" stop-opacity="0.32941"/><stop offset="1" stop-color="#c2a53e" stop-opacity="0.63529"/></linearGradient><linearGradient x1="239.89382" y1="116.28514" x2="239.89382" y2="151.31517" gradientUnits="userSpaceOnUse" id="color-8"><stop offset="0" stop-color="#444444"/><stop offset="1" stop-color="#545454"/></linearGradient><linearGradient x1="228.57688" y1="113.82966" x2="228.57688" y2="125.7352" gradientUnits="userSpaceOnUse" id="color-9"><stop offset="0" stop-color="#464646"/><stop offset="1" stop-color="#343434"/></linearGradient><linearGradient x1="228.57688" y1="113.82966" x2="228.57688" y2="125.7352" gradientUnits="userSpaceOnUse" id="color-10"><stop offset="0" stop-color="#131313"/><stop offset="1" stop-color="#202020"/></linearGradient><radialGradient cx="264.72542" cy="174.34178" r="0.76938" gradientUnits="userSpaceOnUse" id="color-11"><stop offset="0" stop-color="#c6beb6"/><stop offset="1" stop-color="#a9a4a1"/></radialGradient><radialGradient cx="266.0394" cy="174.81023" r="3.16706" gradientUnits="userSpaceOnUse" id="color-12"><stop offset="0" stop-color="#d9d0c7"/><stop offset="1" stop-color="#b7b1ad"/></radialGradient></defs><g transform="translate(-222.32686,-113.32964)"><g data-paper-data="{&quot;isPaintingLayer&quot;:true}" fill-rule="nonzero" stroke-linejoin="miter" stroke-miterlimit="10" stroke-dasharray="" stroke-dashoffset="0" style="mix-blend-mode: normal"><path d="M226.26473,195.96663v-45.53587h25.57697l0.29568,45.53587z" fill="#747474" stroke="none" stroke-width="NaN" stroke-linecap="butt"/><path d="M296.56126,169.00949c-0.18685,0.47114 -3.87758,-0.75069 -4.77613,0.33318c-0.30849,0.37211 4.57919,2.35231 4.02045,3.09558c-0.33169,0.44122 -3.01608,-0.70772 -4.45194,-0.86435c-0.69953,-0.0763 -5.37119,-1.37429 -5.37119,-1.37429c0,0 -2.58033,-1.61938 -6.03023,-2.26779c-0.82961,-0.15592 -3.4917,-0.86684 -4.34576,-1.01799c-2.0213,-0.35768 -4.04074,-0.63464 -5.27365,-0.88675c-2.6518,-0.54222 -15.14888,-3.95023 -15.14888,-3.95023c0,0 -7.10523,-0.51161 -6.4214,-2.57297c2.10911,-6.35768 6.75338,-3.0041 6.75338,-3.0041c0,0 6.24236,2.07782 13.02328,3.74281c5.10092,1.25249 10.67308,2.06402 13.19505,2.73619c2.98477,0.79553 6.68853,2.29151 6.68853,2.29151c0,0 2.64836,0.8763 4.82864,1.74597c1.96181,0.78252 3.4898,1.53955 3.30989,1.99323z" data-paper-data="{&quot;index&quot;:null}" fill="#8c8c8c" stroke="#000000" stroke-width="0" stroke-linecap="butt"/><path d="M284.9803,198.54368c0,0 -3.21187,-18.84326 -3.1664,-27.92142c0.04328,-8.64218 3.43297,-25.30398 3.43297,-25.30398l0.66092,0.00326c0,0 -3.11359,16.68489 -3.15674,25.30128c-0.04557,9.09909 2.89019,27.92412 2.89019,27.92412z" fill="#2e2c2a" stroke="none" stroke-width="0" stroke-linecap="butt"/><g stroke="none" stroke-width="0" stroke-linecap="butt"><path d="M286.02984,139.14335c0,0 -1.35218,3.51898 1.61865,8.71751c3.33641,5.83829 10.17451,14.3762 11.74174,20.26217c0.21272,0.79898 -1.37288,2.0591 -1.37633,2.74695c-0.00444,0.88769 1.56162,1.32538 1.32012,2.31974c-1.74678,7.19281 -9.0556,16.82618 -12.67545,23.8312c-2.32961,4.50824 -0.95679,7.6306 -0.95679,7.6306c0,0 -2.31226,-3.17068 -1.14966,-7.35081c2.24799,-8.08253 12.81473,-19.04732 12.85176,-26.44259c0.02948,-5.88596 -10.56286,-16.63531 -12.57763,-23.10068c-1.60619,-5.15424 1.20358,-8.61413 1.20358,-8.61413z" fill="#403c36"/><path d="M289.34434,190.23051l3.66656,-6.43785l1.85515,0.66125l-3.66656,6.43785z" fill="#7d6239"/><path d="M290.80818,151.20334l3.6019,6.47359l-1.86167,0.64296l-3.60192,-6.47359z" data-paper-data="{&quot;index&quot;:null}" fill="#7d6239"/></g><g stroke="none" stroke-width="0" stroke-linecap="butt"><path d="M293.59774,170.26833l-0.05827,1.0727l-13.39495,0.0428l0.05825,-1.0727z" fill="#8c7463"/><path d="M294.06259,171.6356c-0.3675,0.00116 -0.64391,-0.39413 -0.61737,-0.88292c0.02654,-0.48879 0.34596,-0.886 0.71348,-0.88717c0.3675,-0.00116 0.64391,0.39409 0.61736,0.88289c-0.02654,0.48879 -0.34595,0.88604 -0.71348,0.8872z" fill="url(#color-1)"/><path d="M299.30095,170.73361l-5.567,1.64647l0.98492,-1.63183l-0.80802,-1.62609z" fill="url(#color-2)"/><path d="M281.72414,170.48616l-1.15077,0.15735l-1.10486,-2.65561z" fill="#d7d7d7"/><path d="M281.03529,170.44735l-1.29023,0.17645l-1.23875,-2.97749z" fill="#e2e2e2"/><path d="M282.92321,170.47321l-0.86966,0.11888l-0.83498,-2.0069z" fill="#d7d7d7"/><path d="M282.40268,170.44392l-0.97509,0.13333l-0.9362,-2.2502z" fill="#e2e2e2"/><path d="M283.88077,170.3573l-0.72909,0.09968l-0.70006,-1.68257z" fill="#d7d7d7"/><path d="M283.4444,170.33273l-0.81752,0.11179l-0.78489,-1.88654z" fill="#e2e2e2"/><path d="M279.14546,173.82508l1.39363,-2.6636l1.13407,0.15005z" fill="#d7d7d7"/><path d="M278.14581,174.17296l1.56255,-2.98646l1.27159,0.16825z" fill="#e2e2e2"/><path d="M280.961,173.2164l1.05325,-2.01293l0.85706,0.11339z" fill="#d7d7d7"/><path d="M280.2055,173.47927l1.18094,-2.25695l0.96095,0.12719z" fill="#e2e2e2"/><path d="M282.21508,173.01926l0.88301,-1.68763l0.71853,0.09502z" fill="#d7d7d7"/><path d="M281.58166,173.23965l0.99006,-1.89219l0.80566,0.1066z" fill="#e2e2e2"/><path d="M284.1281,170.24791l-0.06311,1.16213l-4.48244,0.01434l0.06311,-1.16213z" fill="#7c6352"/></g><path d="M283.17511,173.29288c-2.23044,-0.10089 -3.49833,-0.47404 -3.49833,-0.47404c0,0 -3.79591,-0.15519 -6.70227,-0.63583c-2.45573,-0.40611 -7.63075,-1.88754 -12.55785,-2.80179c-6.54983,-1.21535 -2.70269,0.10983 -6.45782,-2.08186c-3.75513,-2.1917 -6.97244,-7.80554 -3.06993,-9.754c4.96724,-0.74185 4.23234,2.31513 7.1968,4.94138c1.84621,1.63558 5.08552,2.36303 6.05296,2.58168c1.17205,0.26488 3.04117,0.81665 4.94199,1.29915c0.80315,0.20388 3.39585,0.63133 4.1794,0.82147c3.25837,0.79064 6.11775,0.39825 6.11775,0.39825c0,0 2.89105,0.40755 3.53121,0.6157c1.314,0.42727 3.96127,0.63051 4.08708,1.14321c0.21194,0.86368 -5.17815,1.18265 -4.7758,1.45436c0.75158,0.50758 4.28369,0.93084 4.27168,1.41264c-0.01157,0.46397 -1.30991,1.17045 -3.31685,1.07969z" data-paper-data="{&quot;index&quot;:null}" fill="#969696" stroke="#000000" stroke-width="0" stroke-linecap="butt"/><g><path d="M226.1234,227.23588l3.75904,-33.71008c0,0 6.75518,-2.18267 9.822,-2.18267c3.62872,0 0.6063,4.24407 0.6063,4.24407c0,0 -3.09204,0.08829 -3.39803,1.52409c-0.93579,4.39099 -2.78619,30.12458 -2.78619,30.12458z" fill="#ffefeb" stroke="#000000" stroke-width="0" stroke-linecap="butt"/><path d="M241.47427,232.29259c0,0 -0.3857,1.94015 -1.2126,1.94015c-0.59276,0 -2.64411,0.01366 -4.70436,-0.06689c-1.25258,-0.04897 -1.90215,-0.61779 -2.83553,-0.76063c-1.17507,-0.17983 -2.93853,0.22047 -3.78777,0.02896c-1.56485,-0.35288 -2.37463,-0.77781 -2.37463,-0.77781c0,0 -0.26912,-1.02539 -0.2856,-1.5858c-0.02221,-0.755 0.16433,-2.53701 0.16433,-2.53701c0,0 5.93424,-0.11957 8.24914,0.08075c1.36979,0.11854 4.24057,0.6468 4.24057,0.6468c0,0 1.45975,0.6156 1.67337,1.04283c0.26162,0.52325 0.87307,1.98866 0.87307,1.98866z" data-paper-data="{&quot;index&quot;:null}" fill="#141415" stroke="#000000" stroke-width="0" stroke-linecap="butt"/><path d="M241.20337,231.65798c0,0 -0.38569,0 -1.21259,0c-0.24822,0 0.70239,1.60165 -2.61811,1.33311c-3.13563,-0.25359 -2.77648,-1.18823 -3.8809,-1.26883c-2.30937,-0.16854 -2.58766,0.59503 -3.58733,0.44204c-0.34815,-0.05328 -0.51271,-0.11454 -1.78458,-0.97035c-0.87471,-0.58857 -0.66566,-1.75122 -1.26542,-2.3793c-0.87609,-0.91746 -0.80847,-1.8858 -0.80847,-1.8858l-0.07637,-3.04773c0,0 0.48635,2.20682 1.32529,3.03123c0.75062,0.73761 2.3169,-0.01875 2.80058,-0.01889c0.84695,-0.00024 -0.68885,-3.26805 0.12091,-3.24981c0.43542,0.00981 3.72275,-0.23408 3.72275,-0.23408c0,0 0.12302,3.57988 0.35598,3.60004c1.36978,0.11854 4.60434,0.6468 4.60434,0.6468c0,0 1.45975,0.6156 1.67337,1.04283c0.26163,0.52325 0.63055,2.95873 0.63055,2.95873z" data-paper-data="{&quot;index&quot;:null}" fill="#252527" stroke="#000000" stroke-width="0" stroke-linecap="butt"/><path d="M232.52068,228.71935l2.66771,-1.09134" data-paper-data="{&quot;index&quot;:null}" fill="none" stroke="#ffffff" stroke-width="0.5" stroke-linecap="round"/><path d="M234.46083,229.08315l2.54644,-1.45511" data-paper-data="{&quot;index&quot;:null}" fill="none" stroke="#ffffff" stroke-width="0.5" stroke-linecap="round"/><path d="M236.64349,229.32568l1.45512,-1.45512" data-paper-data="{&quot;index&quot;:null}" fill="none" stroke="#ffffff" stroke-width="0.5" stroke-linecap="round"/><path d="M233.49075,224.59655l-2.18267,0.24252" data-paper-data="{&quot;index&quot;:null}" fill="none" stroke="#969696" stroke-width="0.5" stroke-linecap="round"/><path d="M231.79312,225.68791l1.94015,-0.36378" data-paper-data="{&quot;index&quot;:null}" fill="none" stroke="#969696" stroke-width="0.5" stroke-linecap="round"/></g><g><path d="M239.70443,191.34311c3.62872,0 10.54956,2.18267 10.54956,2.18267l3.03149,33.71008h-7.63934c0,0 -1.32697,-25.53818 -2.03751,-29.57011c-0.20138,-1.1427 -3.2979,-2.07857 -3.2979,-2.07857c0,0 -3.67312,-4.24407 -0.6063,-4.24407z" fill="#ffefeb" stroke="#000000" stroke-width="0" stroke-linecap="butt"/><path d="M259.69261,234.32564c-0.59276,0 -2.64411,0.01365 -4.70436,-0.0669c-1.25258,-0.04897 -1.90215,-0.61779 -2.83553,-0.76063c-1.17507,-0.17982 -2.93854,0.22047 -3.78778,0.02896c-1.56485,-0.35288 -2.37463,-0.77782 -2.37463,-0.77782c0,0 -0.26911,-1.0254 -0.2856,-1.5858c-0.02221,-0.75501 0.16433,-2.53701 0.16433,-2.53701c0,0 5.93425,-0.11957 8.24914,0.08076c1.36979,0.11854 4.24057,0.6468 4.24057,0.6468c0,0 1.45976,0.6156 1.67337,1.04283c0.26162,0.52325 0.87307,1.98865 0.87307,1.98865c0,0 -0.3857,1.94015 -1.21259,1.94015z" data-paper-data="{&quot;index&quot;:null}" fill="#141415" stroke="#000000" stroke-width="0" stroke-linecap="butt"/><path d="M259.4217,231.75087c-0.24822,0 0.7024,1.60165 -2.61811,1.33311c-3.13563,-0.25358 -2.77648,-1.18823 -3.8809,-1.26883c-2.30937,-0.16854 -2.58765,0.59503 -3.58732,0.44205c-0.34815,-0.05328 -0.51271,-0.11454 -1.78459,-0.97035c-0.87472,-0.58857 -0.66566,-1.75122 -1.26542,-2.3793c-0.87609,-0.91745 -0.80847,-1.8858 -0.80847,-1.8858l-0.07637,-3.04773c0,0 0.48635,2.20681 1.32529,3.03122c0.75062,0.73761 2.3169,-0.01875 2.80058,-0.01889c0.84696,-0.00024 -0.68885,-3.26804 0.12091,-3.2498c0.43542,0.00981 3.72275,-0.23409 3.72275,-0.23409c0,0 0.12302,3.57989 0.35598,3.60005c1.36979,0.11854 4.60434,0.6468 4.60434,0.6468c0,0 1.45976,0.6156 1.67338,1.04283c0.26162,0.52325 0.63055,2.95873 0.63055,2.95873c0,0 -0.3857,0 -1.2126,0z" data-paper-data="{&quot;index&quot;:null}" fill="#252527" stroke="#000000" stroke-width="0" stroke-linecap="butt"/><path d="M251.95162,228.81224l2.6677,-1.09133" fill="none" stroke="#ffffff" stroke-width="0.5" stroke-linecap="round"/><path d="M256.43822,227.7209l-2.54645,1.45511" fill="none" stroke="#ffffff" stroke-width="0.5" stroke-linecap="round"/><path d="M256.07444,229.41856l1.45512,-1.45511" fill="none" stroke="#ffffff" stroke-width="0.5" stroke-linecap="round"/><path d="M250.73903,224.93193l2.18266,-0.24252" fill="none" stroke="#969696" stroke-width="0.5" stroke-linecap="round"/><path d="M251.22407,225.78079l1.94015,-0.36378" fill="none" stroke="#969696" stroke-width="0.5" stroke-linecap="round"/></g><g><path d="M229.63981,193.59158c0,0 1.05415,-4.96832 0.53438,-10.35244c-0.16183,-1.6764 -0.21302,-5.68895 -0.71668,-7.54193c-0.59549,-2.19087 -2.53406,-2.77781 -2.61907,-4.12911c-0.1679,-2.66921 -1.07001,-6.79369 -0.41646,-11.37123c0.49266,-3.45066 3.45852,-6.29847 3.45852,-6.29847c0,0 3.98746,-0.28908 5.76508,0.07712c2.26281,0.46615 7.72658,0.47022 9.64,0.05396c2.01891,-0.43921 5.48447,0.01677 5.48447,0.01677c0,0 2.62113,3.52189 2.84787,7.84095c0.214,4.0764 -0.63262,8.46783 -0.70926,10.13771c-0.07768,1.69256 -1.49509,2.1313 -2.13228,4.27482c-0.50833,1.71005 -0.54704,5.19044 -0.67745,7.18949c-0.3029,4.64296 0.14784,10.27371 0.14784,10.27371c0,0 -2.75697,-0.76932 -5.57187,-0.83754c-1.27833,-0.03098 -1.79126,1.00612 -2.99851,1.16532c-0.96496,0.12724 -2.63623,-0.61291 -3.56107,-0.64966c-0.69915,-0.02778 -2.04377,-0.5306 -2.53801,-0.53471c-0.99795,-0.0083 -1.61572,0.86529 -2.77345,1.02464c-1.34484,0.1851 -3.1641,-0.33939 -3.1641,-0.33939z" fill="#9d9d9d" stroke="#292e32" stroke-width="0" stroke-linecap="butt"/><path d="M236.33968,160.00014l-2.23101,9.03889" fill="#ff0000" stroke="#ff0000" stroke-width="1" stroke-linecap="round"/><path d="M227.90661,167.58424l3.98374,-8.1094" fill="#ff0000" stroke="#ff0000" stroke-width="1" stroke-linecap="round"/><path d="M234.03451,159.68591l-3.1604,8.83095" fill="#ff0000" stroke="#ff0000" stroke-width="1" stroke-linecap="round"/><path d="M246.4258,160.08403l1.60782,9.03889" data-paper-data="{&quot;index&quot;:null}" fill="#ff0000" stroke="#ff0000" stroke-width="1" stroke-linecap="round"/><path d="M249.63229,159.55874l2.87096,8.1094" data-paper-data="{&quot;index&quot;:null}" fill="#ff0000" stroke="#ff0000" stroke-width="1" stroke-linecap="round"/><path d="M248.08706,159.76983l2.2776,8.83096" data-paper-data="{&quot;index&quot;:null}" fill="#ff0000" stroke="#ff0000" stroke-width="1" stroke-linecap="round"/><path d="M231.85508,190.20258c0.00046,-0.41422 0.33663,-0.74962 0.75084,-0.74916c0.41422,0.00046 0.74962,0.33663 0.74916,0.75084c-0.00046,0.41422 -0.33662,0.74962 -0.75084,0.74916c-0.41422,-0.00046 -0.74962,-0.33663 -0.74916,-0.75084z" fill="#002dff" stroke="none" stroke-width="0.5" stroke-linecap="butt"/><path d="M235.54213,190.20672c0.00046,-0.41422 0.33663,-0.74962 0.75084,-0.74916c0.41422,0.00046 0.74962,0.33663 0.74916,0.75084c-0.00046,0.41422 -0.33662,0.74962 -0.75084,0.74916c-0.41422,-0.00046 -0.74962,-0.33663 -0.74916,-0.75084z" fill="#002dff" stroke="none" stroke-width="0.5" stroke-linecap="butt"/><path d="M239.3316,190.21095c0.00046,-0.41422 0.33662,-0.74962 0.75084,-0.74916c0.41422,0.00046 0.74962,0.33663 0.74916,0.75084c-0.00046,0.41422 -0.33663,0.74962 -0.75084,0.74916c-0.41422,-0.00046 -0.74962,-0.33663 -0.74916,-0.75084z" fill="#002dff" stroke="none" stroke-width="0.5" stroke-linecap="butt"/><path d="M243.22348,190.21537c0.00046,-0.41422 0.33663,-0.74963 0.75084,-0.74916c0.41422,0.00046 0.74962,0.33663 0.74916,0.75084c-0.00046,0.41422 -0.33663,0.74962 -0.75084,0.74916c-0.41422,-0.00046 -0.74962,-0.33662 -0.74916,-0.75084z" fill="#002dff" stroke="none" stroke-width="0.5" stroke-linecap="butt"/><path d="M246.91053,190.21953c0.00046,-0.41422 0.33663,-0.74963 0.75084,-0.74916c0.41422,0.00046 0.74962,0.33663 0.74916,0.75085c-0.00046,0.41422 -0.33663,0.74962 -0.75084,0.74915c-0.41422,-0.00046 -0.74962,-0.33662 -0.74916,-0.75084z" fill="#002dff" stroke="none" stroke-width="0.5" stroke-linecap="butt"/><path d="M239.01545,177.61446c0,-1.38071 1.11929,-2.5 2.5,-2.5c1.38071,0 2.5,1.11929 2.5,2.5c0,1.38071 -1.11929,2.5 -2.5,2.5c-1.38071,0 -2.5,-1.11929 -2.5,-2.5z" fill="#797979" stroke="#00ff35" stroke-width="1" stroke-linecap="butt"/><path d="M231.78573,177.3072h5.73541" fill="none" stroke="#00ff35" stroke-width="1" stroke-linecap="round"/><path d="M248.99198,177.40962h-3.58464" fill="none" stroke="#00ff35" stroke-width="1" stroke-linecap="round"/></g><path d="M266.24885,173.44858c1.76669,1.15989 3.10736,2.21372 2.81947,2.64306c-0.29896,0.44586 -4.46373,-0.98751 -5.42924,-0.99096c-0.51685,-0.00186 4.58978,3.69256 3.85514,4.34723c-0.43609,0.38862 -2.83477,-1.27822 -4.22751,-1.70294c-0.67853,-0.2069 -5.02101,-2.3925 -5.02101,-2.3925c0,0 -2.18234,-2.12728 -5.46344,-3.4251c-0.78902,-0.31209 -3.27042,-1.52825 -4.08493,-1.83997c-1.92772,-0.73774 -3.87294,-1.39285 -5.04065,-1.87743c-2.51154,-1.04224 -14.25085,-6.25752 -14.25085,-6.25752c0,0 -7.71645,-0.00625 -5.60027,-4.29857c2.32647,-4.71889 7.37434,-1.89212 7.37434,-1.89212c0,0 5.72024,3.27057 12.07582,6.21966c4.78098,2.21843 10.13698,4.07429 12.48808,5.22507c2.78254,1.36197 6.11348,3.57081 6.11348,3.57081c0,0 2.42808,1.38223 4.39153,2.6713z" data-paper-data="{&quot;index&quot;:null}" fill="#a1a1a1" stroke="#000000" stroke-width="0" stroke-linecap="butt"/><g><path d="M230.86127,155.6709v-7.87321c0,0 6.36471,3.42314 9.45991,3.42314c3.31728,0 9.82375,-3.42314 9.82375,-3.42314v7.87321c0,0 -6.37741,0.68463 -9.58119,0.68463c-3.22398,0 -9.70247,-0.68463 -9.70247,-0.68463z" fill="url(#color-3)" stroke="none" stroke-width="0" stroke-linecap="butt"/><path d="M251.22503,117.79772c0,0 -0.26338,3.24445 -0.58861,4.57283c-0.26638,1.08795 -1.2217,2.82111 -1.2217,2.82111" data-paper-data="{&quot;index&quot;:null}" fill="none" stroke="#3b2c16" stroke-width="1.25" stroke-linecap="round"/><path d="M252.62928,121.93598c0,0 -0.18908,2.27851 -0.58872,3.23539c-0.42269,1.01206 -1.88216,2.68074 -1.88216,2.68074" data-paper-data="{&quot;index&quot;:null}" fill="none" stroke="#3b2c16" stroke-width="1.25" stroke-linecap="round"/><path d="M248.97181,116.03369c0,0 0.11659,3.27103 -0.03039,4.69304c-0.12038,1.16464 -0.78772,3.22209 -0.78772,3.22209" data-paper-data="{&quot;index&quot;:null}" fill="none" stroke="#3b2c16" stroke-width="1.25" stroke-linecap="round"/><path d="M252.55186,134.25851c0,7.39154 -8.18556,17.31455 -11.39879,17.3764c-6.69145,0.1288 -14.23242,-9.98486 -14.23242,-17.3764c0,-7.39154 5.73774,-13.38356 12.8156,-13.38356c7.07786,0 12.8156,5.99202 12.8156,13.38356z" fill="url(#color-4)" stroke="none" stroke-width="0" stroke-linecap="butt"/><path d="M241.64847,135.34169c0,2.06292 -0.85162,3.73524 -1.90215,3.73524c-1.05053,0 -1.90214,-1.67233 -1.90214,-3.73524c0,-2.06292 0.85162,-3.73523 1.90214,-3.73523c1.05053,0 1.90215,1.67232 1.90215,3.73523z" fill="none" stroke="#191412" stroke-width="1.5" stroke-linecap="butt"/><path d="M246.38251,129.78c0,2.06292 -0.85162,3.73524 -1.90214,3.73524c-1.05053,0 -1.90215,-1.67233 -1.90215,-3.73524c0,-2.06292 0.85162,-3.73524 1.90215,-3.73524c1.05053,0 1.90214,1.67232 1.90214,3.73524z" fill="none" stroke="#191412" stroke-width="1.5" stroke-linecap="butt"/><path d="M251.07876,135.29522c0,2.06292 -0.85161,3.73524 -1.90214,3.73524c-1.05053,0 -1.90215,-1.67233 -1.90215,-3.73524c0,-2.06292 0.85162,-3.73523 1.90215,-3.73523c1.05053,0 1.90214,1.67232 1.90214,3.73523z" fill="none" stroke="#191412" stroke-width="1.5" stroke-linecap="butt"/><path d="M246.32529,140.42403c0,2.06292 -0.85162,3.73524 -1.90214,3.73524c-1.05053,0 -1.90215,-1.67233 -1.90215,-3.73524c0,-2.06292 0.85162,-3.73523 1.90215,-3.73523c1.05053,0 1.90214,1.67232 1.90214,3.73523z" fill="none" stroke="#191412" stroke-width="1.5" stroke-linecap="butt"/><path d="M232.27207,125.51307c0,0 -1.55639,-1.73224 -1.99089,-2.81993c-0.53052,-1.32806 -0.96207,-4.57226 -0.96207,-4.57226" fill="none" stroke="#47341a" stroke-width="1.5" stroke-linecap="round"/><path d="M231.06404,128.17425c0,0 -2.37686,-1.66727 -3.06571,-2.67893c-0.6513,-0.9565 -0.96105,-3.23482 -0.96105,-3.23482" fill="none" stroke="#47341a" stroke-width="1.5" stroke-linecap="round"/><path d="M234.32335,124.26903c0,0 -1.08798,-2.05681 -1.28494,-3.22133c-0.24048,-1.42187 -0.05363,-4.693 -0.05363,-4.693" fill="none" stroke="#47341a" stroke-width="1.5" stroke-linecap="round"/><path d="M248.22345,118.68132l-0.1141,-3.42313h6.73217v9.24246c0,0 -2.61174,-3.02641 -3.82969,-4.09736c-0.86469,-0.76032 -2.78838,-1.72198 -2.78838,-1.72198z" fill="url(#color-5)" stroke="url(#color-6)" stroke-width="1" stroke-linecap="butt"/><path d="M239.89381,151.31517c-9.01159,0 -16.31694,-7.84175 -16.31694,-17.51504c0,-9.67328 7.30535,-17.51503 16.31694,-17.51503c9.0116,0 16.31695,7.84174 16.31695,17.51503c0,9.67329 -7.30535,17.51504 -16.31695,17.51504z" fill="url(#color-7)" stroke="url(#color-8)" stroke-width="2.5" stroke-linecap="butt"/><path d="M229.17406,120.45725c-1.56888,1.37953 -4.93315,5.27795 -4.93315,5.27795v-11.90555h8.67195l-0.14699,4.40945c0,0 -2.47798,1.23874 -3.59181,2.21814z" data-paper-data="{&quot;index&quot;:null}" fill="url(#color-9)" stroke="url(#color-10)" stroke-width="1" stroke-linecap="butt"/></g><path d="M253.70897,206.61902c0,0 -3.47075,-22.02695 -3.41734,-32.69108c0.05076,-10.13422 3.73025,-29.78503 3.73025,-29.78503l0.77579,0.00382c0,0 -3.54169,19.50691 -3.59243,29.63974c-0.05341,10.66526 3.27956,32.83638 3.27956,32.83638z" fill="#2e2c2a" stroke="none" stroke-width="0" stroke-linecap="butt"/><g stroke="none" stroke-width="0" stroke-linecap="butt"><path d="M254.94092,136.89475c0,0 -1.58719,4.13058 1.89999,10.23262c3.91629,6.853 11.94287,16.87483 13.78248,23.78379c0.24969,0.93784 -1.61148,2.41698 -1.61553,3.22438c-0.00522,1.04197 1.83303,1.55572 1.54956,2.72292c-2.05038,8.44294 -10.62948,19.75062 -14.87847,27.97313c-2.73451,5.29178 -1.12309,8.95682 -1.12309,8.95682c0,0 -2.71413,-3.72176 -1.34948,-8.62841c2.6387,-9.48729 15.04197,-22.3578 15.08543,-31.03838c0.0346,-6.90896 -12.39871,-19.52658 -14.76365,-27.11564c-1.88535,-6.05006 1.41277,-10.11129 1.41277,-10.11129z" fill="#403c36"/><path d="M258.83148,196.861l4.30381,-7.55676l2.17759,0.77618l-4.30381,7.55676z" fill="#7d6239"/><path d="M260.54976,151.0508l4.22792,7.59873l-2.18524,0.7547l-4.22794,-7.59873z" data-paper-data="{&quot;index&quot;:null}" fill="#7d6239"/></g><g stroke="none" stroke-width="0" stroke-linecap="butt"><path d="M264.18328,173.42934l-0.0684,1.25914l-15.72303,0.05023l0.06838,-1.25913z" fill="#8c7463"/><path d="M264.72893,175.03425c-0.43137,0.00135 -0.75582,-0.46264 -0.72467,-1.03637c0.03115,-0.57373 0.40608,-1.03999 0.83749,-1.04136c0.43137,-0.00135 0.75581,0.46258 0.72465,1.03633c-0.03115,0.57373 -0.40607,1.04004 -0.83748,1.04141z" fill="url(#color-11)"/><path d="M270.87773,173.97549l-6.53456,1.93263l1.1561,-1.91545l-0.94846,-1.90872z" fill="url(#color-12)"/><path d="M250.24602,173.68503l-1.35079,0.1847l-1.29688,-3.11716z" fill="#d7d7d7"/><path d="M249.43745,173.63948l-1.51448,0.20711l-1.45405,-3.49498z" fill="#e2e2e2"/><path d="M251.65349,173.66983l-1.02081,0.13955l-0.9801,-2.35571z" fill="#d7d7d7"/><path d="M251.04249,173.63545l-1.14457,0.1565l-1.09892,-2.64128z" fill="#e2e2e2"/><path d="M252.77748,173.53378l-0.85581,0.11702l-0.82173,-1.97501z" fill="#d7d7d7"/><path d="M252.26527,173.50494l-0.9596,0.13122l-0.9213,-2.21442z" fill="#e2e2e2"/><path d="M247.21915,177.60425l1.63585,-3.12654l1.33118,0.17613z" fill="#d7d7d7"/><path d="M246.04577,178.0126l1.83412,-3.50552l1.49259,0.1975z" fill="#e2e2e2"/><path d="M249.35024,176.88979l1.23631,-2.36278l1.00602,0.13311z" fill="#d7d7d7"/><path d="M248.46343,177.19835l1.38619,-2.64921l1.12796,0.14929z" fill="#e2e2e2"/><path d="M250.82229,176.6584l1.03647,-1.98095l0.84342,0.11154z" fill="#d7d7d7"/><path d="M250.07878,176.91709l1.16214,-2.22106l0.94568,0.12512z" fill="#e2e2e2"/><path d="M253.0678,173.40538l-0.07407,1.36411l-5.2615,0.01684l0.07408,-1.36411z" fill="#7c6352"/></g><path d="M256.63448,176.78762c-2.29096,-0.32691 -4.98599,-0.88779 -4.98599,-0.88779c0,0 -3.90087,-0.53839 -6.84462,-1.34521c-2.48731,-0.68173 -7.6546,-2.80062 -12.63328,-4.27684c-6.61837,-1.96241 -12.56468,-11.02256 -6.23651,-12.92016c3.94926,-0.70836 2.99283,2.74108 5.14643,5.27033c1.82845,2.14739 4.28119,2.91053 5.44527,3.30839c1.17869,0.40286 3.04304,1.18638 4.94833,1.89743c0.80502,0.30043 3.43124,1.01877 4.21768,1.30231c3.27035,1.17911 6.26931,1.02926 6.26931,1.02926c0,0 9.17539,3.28085 9.25822,3.77744c0.24124,1.44651 -5.7149,-0.45825 -5.34911,-0.00869c0.69105,0.84928 4.63979,2.21343 4.57016,2.73772c-0.06705,0.50488 -1.7445,0.40996 -3.80589,0.11581z" data-paper-data="{&quot;index&quot;:null}" fill="#adadad" stroke="#000000" stroke-width="0" stroke-linecap="butt"/></g></g></svg>