<svg version="1.1" xmlns="http://www.w3.org/2000/svg" xmlns:xlink="http://www.w3.org/1999/xlink" width="493.99352" height="517.10861" viewBox="0,0,493.99352,517.10861"><defs><linearGradient x1="-4.73829" y1="177.80999" x2="483.26173" y2="177.80999" gradientUnits="userSpaceOnUse" id="color-1"><stop offset="0" stop-color="#868686"/><stop offset="1" stop-color="#414141"/></linearGradient><linearGradient x1="165.66145" y1="-7.27719" x2="165.66145" y2="431.58937" gradientUnits="userSpaceOnUse" id="color-2"><stop offset="0" stop-color="#060606"/><stop offset="1" stop-color="#1d1d1d"/></linearGradient><linearGradient x1="319.19478" y1="-3.52597" x2="319.19478" y2="432.75198" gradientUnits="userSpaceOnUse" id="color-3"><stop offset="0" stop-color="#060606"/><stop offset="1" stop-color="#1d1d1d"/></linearGradient><radialGradient cx="244.36946" cy="371.29246" r="221.3087" gradientUnits="userSpaceOnUse" id="color-4"><stop offset="0" stop-color="#c9c9c9"/><stop offset="1" stop-color="#b0b0b0"/></radialGradient><radialGradient cx="242.42815" cy="200.29631" r="223.25" gradientUnits="userSpaceOnUse" id="color-5"><stop offset="0" stop-color="#d3d3d3"/><stop offset="1" stop-color="#d1d1d1"/></radialGradient><radialGradient cx="129.26285" cy="238.95149" r="86.71162" gradientUnits="userSpaceOnUse" id="color-6"><stop offset="0" stop-color="#584fe0"/><stop offset="1" stop-color="#3000ba"/></radialGradient><radialGradient cx="129.26285" cy="216.42902" r="86.71162" gradientUnits="userSpaceOnUse" id="color-7"><stop offset="0" stop-color="#6c59ff"/><stop offset="1" stop-color="#4200ff"/></radialGradient><radialGradient cx="317.13793" cy="238.95149" r="86.71154" gradientUnits="userSpaceOnUse" id="color-8"><stop offset="0" stop-color="#e08e4f"/><stop offset="1" stop-color="#ba6c00"/></radialGradient><radialGradient cx="317.13793" cy="216.42902" r="86.71154" gradientUnits="userSpaceOnUse" id="color-9"><stop offset="0" stop-color="#ffb959"/><stop offset="1" stop-color="#ffad00"/></radialGradient><radialGradient cx="135.14834" cy="105.69064" r="81.53478" gradientUnits="userSpaceOnUse" id="color-10"><stop offset="0" stop-color="#e04e4e"/><stop offset="1" stop-color="#b90000"/></radialGradient><radialGradient cx="135.14834" cy="84.51273" r="81.53478" gradientUnits="userSpaceOnUse" id="color-11"><stop offset="0" stop-color="#ff5959"/><stop offset="1" stop-color="#ff0000"/></radialGradient><radialGradient cx="311.80703" cy="105.69064" r="81.53478" gradientUnits="userSpaceOnUse" id="color-12"><stop offset="0" stop-color="#88e04f"/><stop offset="1" stop-color="#77ba00"/></radialGradient><radialGradient cx="311.80703" cy="84.51273" r="81.53478" gradientUnits="userSpaceOnUse" id="color-13"><stop offset="0" stop-color="#c3ff59"/><stop offset="1" stop-color="#b2ff00"/></radialGradient><radialGradient cx="221.3418" cy="152.9247" r="70.86853" gradientUnits="userSpaceOnUse" id="color-14"><stop offset="0" stop-color="#7c8489"/><stop offset="1" stop-color="#5e6468"/></radialGradient><radialGradient cx="222.6201" cy="44.63984" r="71.37916" gradientUnits="userSpaceOnUse" id="color-15"><stop offset="0" stop-color="#7c8489"/><stop offset="1" stop-color="#5e6468"/></radialGradient><radialGradient cx="320.43835" cy="103.6636" r="97.18491" gradientUnits="userSpaceOnUse" id="color-16"><stop offset="0" stop-color="#131415"/><stop offset="1" stop-color="#697075"/></radialGradient><radialGradient cx="336.98963" cy="176.94315" r="35.2732" gradientUnits="userSpaceOnUse" id="color-17"><stop offset="0" stop-color="#404448"/><stop offset="1" stop-color="#5d6469"/></radialGradient><linearGradient x1="346.85137" y1="159.08248" x2="384.51403" y2="173.78567" gradientUnits="userSpaceOnUse" id="color-18"><stop offset="0" stop-color="#666d72"/><stop offset="1" stop-color="#5b6266"/></linearGradient><radialGradient cx="377.67206" cy="170.86519" r="33.58452" gradientUnits="userSpaceOnUse" id="color-19"><stop offset="0" stop-color="#7d858a"/><stop offset="1" stop-color="#6c7378"/></radialGradient><radialGradient cx="383.14778" cy="123.61363" r="25.89321" gradientUnits="userSpaceOnUse" id="color-20"><stop offset="0" stop-color="#8e979c"/><stop offset="1" stop-color="#7d858a"/></radialGradient><radialGradient cx="363.2679" cy="182.20388" r="28.40702" gradientUnits="userSpaceOnUse" id="color-21"><stop offset="0" stop-color="#5c6265"/><stop offset="1" stop-color="#585d61"/></radialGradient><radialGradient cx="378.65883" cy="133.8343" r="22.60651" gradientUnits="userSpaceOnUse" id="color-22"><stop offset="0" stop-color="#6a7174"/><stop offset="1" stop-color="#676d71"/></radialGradient><radialGradient cx="301.75488" cy="167.16884" r="36.31447" gradientUnits="userSpaceOnUse" id="color-23"><stop offset="0" stop-color="#404448"/><stop offset="1" stop-color="#5d6469"/></radialGradient><linearGradient x1="311.90775" y1="148.78093" x2="350.68222" y2="163.91816" gradientUnits="userSpaceOnUse" id="color-24"><stop offset="0" stop-color="#666d72"/><stop offset="1" stop-color="#5b6266"/></linearGradient><radialGradient cx="343.63827" cy="160.91147" r="34.57595" gradientUnits="userSpaceOnUse" id="color-25"><stop offset="0" stop-color="#7d858a"/><stop offset="1" stop-color="#6c7378"/></radialGradient><radialGradient cx="349.27563" cy="112.26501" r="26.65759" gradientUnits="userSpaceOnUse" id="color-26"><stop offset="0" stop-color="#8e979c"/><stop offset="1" stop-color="#7d858a"/></radialGradient><radialGradient cx="328.80891" cy="172.58487" r="29.24559" gradientUnits="userSpaceOnUse" id="color-27"><stop offset="0" stop-color="#5c6265"/><stop offset="1" stop-color="#585d61"/></radialGradient><radialGradient cx="344.65415" cy="122.78742" r="23.27386" gradientUnits="userSpaceOnUse" id="color-28"><stop offset="0" stop-color="#6a7174"/><stop offset="1" stop-color="#676d71"/></radialGradient><radialGradient cx="266.31321" cy="160.27874" r="37.95076" gradientUnits="userSpaceOnUse" id="color-29"><stop offset="0" stop-color="#404448"/><stop offset="1" stop-color="#5d6469"/></radialGradient><linearGradient x1="276.92355" y1="141.0623" x2="317.44515" y2="156.88158" gradientUnits="userSpaceOnUse" id="color-30"><stop offset="0" stop-color="#666d72"/><stop offset="1" stop-color="#5b6266"/></linearGradient><radialGradient cx="310.08381" cy="153.73942" r="36.13389" gradientUnits="userSpaceOnUse" id="color-31"><stop offset="0" stop-color="#7d858a"/><stop offset="1" stop-color="#6c7378"/></radialGradient><radialGradient cx="315.97518" cy="102.90104" r="27.85874" gradientUnits="userSpaceOnUse" id="color-32"><stop offset="0" stop-color="#8e979c"/><stop offset="1" stop-color="#7d858a"/></radialGradient><radialGradient cx="294.58625" cy="165.93882" r="30.56337" gradientUnits="userSpaceOnUse" id="color-33"><stop offset="0" stop-color="#5c6265"/><stop offset="1" stop-color="#585d61"/></radialGradient><radialGradient cx="311.14549" cy="113.89757" r="24.32255" gradientUnits="userSpaceOnUse" id="color-34"><stop offset="0" stop-color="#6a7174"/><stop offset="1" stop-color="#676d71"/></radialGradient><radialGradient cx="222.46188" cy="34.92128" r="34.5426" gradientUnits="userSpaceOnUse" id="color-35"><stop offset="0" stop-color="#555b5e"/><stop offset="1" stop-color="#4a4e51"/></radialGradient><radialGradient cx="156.11058" cy="22.771" r="19.45007" gradientUnits="userSpaceOnUse" id="color-36"><stop offset="0" stop-color="#44494a"/><stop offset="1" stop-color="#3d4243"/></radialGradient><radialGradient cx="401.40009" cy="-27.9405" r="105.90619" gradientUnits="userSpaceOnUse" id="color-37"><stop offset="0" stop-color="#a3bda9"/><stop offset="1" stop-color="#647463"/></radialGradient></defs><g transform="translate(4.73829,84.35656)"><g data-paper-data="{&quot;isPaintingLayer&quot;:true}" fill-rule="nonzero" stroke-linejoin="miter" stroke-miterlimit="10" stroke-dasharray="" stroke-dashoffset="0" style="mix-blend-mode: normal"><path d="M-4.73829,360.80999v-366h488v366z" fill="url(#color-1)" stroke="none" stroke-width="0" stroke-linecap="butt"/><g stroke="none" stroke-width="0" stroke-linecap="butt"><path d="M147.30424,431.58937v-438.8664h36.71449v438.8664z" fill="url(#color-2)"/><path d="M300.83758,432.75198v-436.27795h36.71449v436.27802z" fill="url(#color-3)"/><path d="M23.06076,412.04471v-81.5045h442.61739v81.5045z" fill="url(#color-4)"/><path d="M19.17815,337.9827l46.5913,-275.37278h357.2l42.7087,275.37278z" fill="url(#color-5)"/></g><g stroke="none" stroke-linecap="butt"><path d="M238.68462,262.88163c0,29.07577 -38.82213,52.64631 -86.71162,52.64631c-47.88949,0 -86.71154,-23.57054 -86.71154,-52.64631c0,-29.07577 38.82205,-52.64631 86.71154,-52.64631c47.88949,0 86.71162,23.57054 86.71162,52.64631z" fill="url(#color-6)" stroke-width="NaN"/><path d="M238.68462,242.23602c0,31.35626 -38.82213,56.77546 -86.71162,56.77546c-47.88949,0 -86.71154,-25.41921 -86.71154,-56.77546c0,-31.35626 38.82205,-56.77546 86.71154,-56.77546c47.88949,0 86.71162,25.41921 86.71162,56.77546z" fill="url(#color-7)" stroke-width="NaN"/><text transform="translate(85.79929,256.77134) scale(1.28926,1.02423)" font-size="40" xml:space="preserve" fill="#ffffff" fill-rule="nonzero" stroke="none" stroke-width="1" stroke-linecap="butt" stroke-linejoin="miter" stroke-miterlimit="10" stroke-dasharray="" stroke-dashoffset="0" font-family="Sans Serif" font-weight="normal" text-anchor="start" style="mix-blend-mode: normal"><tspan x="0" dy="0">SCAN</tspan></text></g><g stroke="none" stroke-linecap="butt"><path d="M426.55971,262.88163c0,29.07577 -38.82213,52.64631 -86.71162,52.64631c-47.88949,0 -86.71162,-23.57054 -86.71162,-52.64631c0,-29.07577 38.82213,-52.64631 86.71162,-52.64631c47.88949,0 86.71162,23.57054 86.71162,52.64631z" fill="url(#color-8)" stroke-width="NaN"/><path d="M426.55971,242.23602c0,31.35626 -38.82213,56.77546 -86.71162,56.77546c-47.88949,0 -86.71162,-25.41921 -86.71162,-56.77546c0,-31.35626 38.82213,-56.77546 86.71162,-56.77546c47.88949,0 86.71162,25.41921 86.71162,56.77546z" fill="url(#color-9)" stroke-width="NaN"/><text transform="translate(272.16451,236.44837) scale(0.72488,0.57587)" font-size="40" xml:space="preserve" fill="#000000" fill-rule="nonzero" stroke="none" stroke-width="1" stroke-linecap="butt" stroke-linejoin="miter" stroke-miterlimit="10" stroke-dasharray="" stroke-dashoffset="0" font-family="Sans Serif" font-weight="normal" text-anchor="start" style="mix-blend-mode: normal"><tspan x="0" dy="0">PRESSURE</tspan><tspan x="0" dy="46.150000000000006px"> CHANGE</tspan></text></g><g stroke="none" stroke-linecap="butt"><path d="M238.03747,128.19207c0,27.33986 -36.50436,49.50326 -81.53478,49.50326c-45.03042,0 -81.53478,-22.16341 -81.53478,-49.50326c0,-27.33986 36.50436,-49.50326 81.53478,-49.50326c45.03042,0 81.53478,22.16341 81.53478,49.50326z" fill="url(#color-10)" stroke-width="NaN"/><path d="M238.03747,108.77903c0,29.48422 -36.50436,53.38587 -81.53478,53.38587c-45.03042,0 -81.53478,-23.90165 -81.53478,-53.38587c0,-29.48422 36.50436,-53.38587 81.53478,-53.38587c45.03042,0 81.53478,23.90165 81.53478,53.38587z" fill="url(#color-11)" stroke-width="NaN"/><text transform="translate(88.38767,117.18557) scale(0.83453,0.66299)" font-size="40" xml:space="preserve" fill="#ffffff" fill-rule="nonzero" stroke="none" stroke-width="1" stroke-linecap="butt" stroke-linejoin="miter" stroke-miterlimit="10" stroke-dasharray="" stroke-dashoffset="0" font-family="Sans Serif" font-weight="normal" text-anchor="start" style="mix-blend-mode: normal"><tspan x="0" dy="0">LAUNCH</tspan></text></g><g stroke="none" stroke-linecap="butt"><path d="M414.69616,128.19207c0,27.33986 -36.50436,49.50326 -81.53478,49.50326c-45.03042,0 -81.53478,-22.16341 -81.53478,-49.50326c0,-27.33986 36.50436,-49.50326 81.53478,-49.50326c45.03042,0 81.53478,22.16341 81.53478,49.50326z" fill="url(#color-12)" stroke-width="NaN"/><path d="M414.69616,108.77903c0,29.48422 -36.50436,53.38587 -81.53478,53.38587c-45.03042,0 -81.53478,-23.90165 -81.53478,-53.38587c0,-29.48422 36.50436,-53.38587 81.53478,-53.38587c45.03042,0 81.53478,23.90165 81.53478,53.38587z" fill="url(#color-13)" stroke-width="NaN"/><text transform="translate(281.22396,99.35989) scale(0.991,0.78732)" font-size="40" xml:space="preserve" fill="#000000" fill-rule="nonzero" stroke="none" stroke-width="1" stroke-linecap="butt" stroke-linejoin="miter" stroke-miterlimit="10" stroke-dasharray="" stroke-dashoffset="0" font-family="Sans Serif" font-weight="normal" text-anchor="start" style="mix-blend-mode: normal"><tspan x="0" dy="0">DATA</tspan><tspan x="0" dy="46.150000000000006px">LOGS</tspan></text></g><g data-paper-data="{&quot;index&quot;:null}"><path d="M154.96293,225.37422l13.89708,-30.97372c0,0 20.23009,-46.76281 22.59908,-45.59963c0.83969,0.41228 14.3351,-26.94966 24.34273,-33.13569c2.46548,-2.88424 33.93927,6.89432 28.40984,17.60085c-6.51818,12.62097 -19.98041,30.32211 -22.37408,34.86475c-7.25125,13.76121 -23.22661,40.87731 -23.22661,40.87731l-16.44175,30.8167c0,0 -5.80151,13.82929 -21.48129,5.44298c-12.38473,-6.62395 -5.72498,-19.89355 -5.72498,-19.89355z" fill="url(#color-14)" stroke="none" stroke-width="0" stroke-linecap="butt"/><path d="M195.61135,211.49401l-27.8893,-11.87286" fill="none" stroke="#2d3032" stroke-width="2" stroke-linecap="round"/><path d="M221.73357,164.96606l-29.93543,-15.8634" fill="none" stroke="#2d3032" stroke-width="2" stroke-linecap="round"/><path d="M143.25316,49.75723c-15.91771,-10.29962 -25.53628,-34.72147 -22.60585,-40.28268c7.19856,-13.66107 21.60686,-0.84519 21.60686,-0.84519c0,0 12.7507,18.28991 35.27885,24.32218c16.54681,4.43068 39.64944,0.86486 49.36072,1.00125c15.53461,0.21819 33.54675,4.95852 33.54675,4.95852c0,0 -14.70093,20.73196 -17.65116,25.58087c-3.39993,5.588 -8.88683,16.00921 -8.88683,16.00921c0,0 -14.16479,-8.44758 -21.14984,-9.8018c-7.54295,-1.46236 -21.33554,-0.93854 -28.2769,-2.77782c-16.55494,-4.38665 -20.59254,-4.81581 -41.22256,-18.16453z" fill="url(#color-15)" stroke="#595f62" stroke-width="0" stroke-linecap="butt"/><path d="M215.76725,115.75701c-1.66392,-2.50515 9.51665,-26.36386 15.95887,-36.84386c5.54452,-9.01967 16.08606,-25.52898 16.08606,-25.52898c0,0 33.78029,-47.59339 47.50888,-50.7234c11.94801,-2.72405 35.86756,-14.15641 83.50987,13.18096c15.38283,8.82673 60.8918,11.40513 49.60015,53.89745c-6.15191,23.1506 -12.60938,32.81865 -12.60938,32.81865c0,0 -11.64385,58.25429 -35.44795,65.38948c-11.95927,3.58475 -126.09789,-39.4002 -126.09789,-39.4002c0,0 -5.9343,3.81343 -9.48936,2.63266c-6.89859,-2.29127 -23.19476,-6.6536 -29.01925,-15.42277z" fill="url(#color-16)" stroke="none" stroke-width="0" stroke-linecap="butt"/><g stroke="none" stroke-width="0" stroke-linecap="butt"><path d="M313.03403,206.41517c-3.45496,-9.01582 0.76572,-20.44762 3.48889,-29.88933c2.65595,-9.2087 9.57427,-29.7328 9.57427,-29.7328l25.47032,6.56033l-12.08355,35.27157c0,0 -1.68287,28.15395 -6.43026,31.03856c-4.32985,2.6309 -16.56471,-4.2325 -20.01967,-13.24832z" fill="url(#color-17)"/><path d="M344.73884,164.49378l4.22505,-10.82259l35.93104,14.02719c0,0 0.52957,3.75505 -0.12741,5.43796c-0.74118,1.89856 -4.09764,5.38464 -4.09764,5.38464z" fill="url(#color-18)"/><path d="M324.04219,218.78674c-15.0269,-7.45098 -9.37088,-23.22486 0.60864,-29.6728c9.97951,-6.44792 21.22147,-27.52353 21.22147,-27.52353l41.10206,9.7268c0,0 -26.22419,37.37375 -46.18377,48.5185c-6.10316,3.40778 -14.75975,-0.06293 -16.74837,-1.04897z" fill="url(#color-19)"/><path d="M348.87401,155.17934c0,0 -0.33149,-9.88076 0.91065,-15.97138c1.30163,-6.38232 5.57776,-21.09528 5.57776,-21.09528c0,0 2.4905,-8.38645 19.57391,-6.13265c13.28832,1.75311 11.29546,15.23489 11.29546,15.23489c0,0 1.08482,8.54442 2.42638,17.65962c0.83383,5.66539 2.3011,12.53544 2.04382,14.71823c-0.86265,7.31837 -4.30325,11.92101 -4.30325,11.92101z" fill="url(#color-20)"/><path d="M332.7189,192.72746c0,0 7.13412,-8.34497 10.54599,-12.4458c2.67109,-3.21046 3.99232,-9.04341 9.45605,-10.67622c5.46372,-1.63281 7.77614,-0.9553 11.74172,0.59282c1.88359,0.73533 6.5121,1.13875 8.98683,3.21121c2.5459,2.13207 3.75718,3.75947 3.75718,3.75947c0,0 -5.19073,11.06417 -8.34259,14.85251c-3.89544,4.68206 -14.45837,14.16115 -14.45837,14.16115c0,0 -16.02637,17.56947 -27.1985,9.30784c-12.8385,-9.4939 5.5117,-22.76299 5.5117,-22.76299z" fill="url(#color-21)"/><path d="M359.29121,150.21966c-3.96441,-7.4925 -3.38405,-12.33675 -1.5811,-18.96826c1.60804,-5.9146 5.35507,-14.97897 5.35507,-14.97897c0,0 8.89691,-1.73243 11.73235,-1.01493c3.17893,0.80442 6.42884,5.6105 6.42884,5.6105c0,0 1.58329,7.08033 3.27055,15.77567c1.05826,5.45381 2.37507,12.5358 2.69075,15.81629c0.55979,5.81717 1.53169,5.80437 -2.59821,9.63146c-4.12991,3.8271 -3.65257,4.06177 -9.6513,1.71991c-4.58162,-1.78863 -11.68253,-6.09916 -15.64694,-13.59166z" fill="url(#color-22)"/></g><g stroke="none" stroke-width="0" stroke-linecap="butt"><path d="M277.09212,197.51086c-3.55695,-9.28197 0.78832,-21.05123 3.59188,-30.77166c2.73437,-9.48052 9.85691,-30.61053 9.85691,-30.61053l26.22221,6.75398l-12.44026,36.3128c0,0 -1.73256,28.98507 -6.62009,31.95482c-4.45766,2.70856 -17.05371,-4.35745 -20.61065,-13.63943z" fill="url(#color-23)"/><path d="M309.73286,154.35197l4.34978,-11.14209l36.99173,14.44127c0,0 0.54522,3.86591 -0.13117,5.59849c-0.76306,1.95461 -4.21861,5.5436 -4.21861,5.5436z" fill="url(#color-24)"/><path d="M288.42524,210.24766c-15.47048,-7.67093 -9.64751,-23.91047 0.6266,-30.54874c10.27412,-6.63828 21.84793,-28.33603 21.84793,-28.33603l42.31539,10.01395c0,0 -26.99834,38.47703 -47.54712,49.95077c-6.28332,3.5084 -15.19547,-0.06479 -17.24279,-1.07994z" fill="url(#color-25)"/><path d="M313.9901,144.76256c0,0 -0.34127,-10.17244 0.93754,-16.44285c1.34005,-6.57073 5.74242,-21.71802 5.74242,-21.71802c0,0 2.56402,-8.63401 20.15173,-6.31368c13.68059,1.80487 11.6289,15.68462 11.6289,15.68462c0,0 1.11685,8.79665 2.49801,18.18092c0.85845,5.83264 2.36903,12.90549 2.10415,15.15272c-0.88812,7.53441 -4.43029,12.27292 -4.43029,12.27292z" fill="url(#color-26)"/><path d="M297.35807,183.4191c0,0 7.34473,-8.59131 10.8573,-12.8132c2.74992,-3.30524 4.11016,-9.31037 9.73519,-10.99138c5.62503,-1.68102 8.0057,-0.98351 12.08834,0.61032c1.93919,0.75704 6.70435,1.17236 9.25212,3.306c2.62106,2.19501 3.86809,3.87046 3.86809,3.87046c0,0 -5.34395,11.39077 -8.58886,15.29095c-4.01042,4.82028 -14.88519,14.5792 -14.88519,14.5792c0,0 -16.49947,18.08813 -28.00141,9.58261c-13.2175,-9.77417 5.67441,-23.43496 5.67441,-23.43496z" fill="url(#color-27)"/><path d="M324.71481,139.65647c-4.08144,-7.71368 -3.48396,-12.70094 -1.62776,-19.52822c1.65552,-6.0892 5.51316,-15.42115 5.51316,-15.42115c0,0 9.15953,-1.78357 12.07869,-1.0449c3.27276,0.82815 6.61863,5.77613 6.61863,5.77613c0,0 1.63002,7.28934 3.36707,16.24136c1.08951,5.6148 2.44519,12.90585 2.77019,16.28319c0.57632,5.98888 1.57692,5.97572 -2.67491,9.91579c-4.25183,3.94008 -3.76038,4.18167 -9.93621,1.77068c-4.71685,-1.84143 -12.0274,-6.27921 -16.10885,-13.99288z" fill="url(#color-28)"/></g><g stroke="none" stroke-width="0" stroke-linecap="butt"><path d="M240.53917,191.98796c-3.71722,-9.7002 0.82384,-21.99977 3.75373,-32.15819c2.85758,-9.90772 10.30106,-31.98979 10.30106,-31.98979c0,0 10.41545,1.1445 14.86559,2.2907c4.67349,1.20374 12.53814,4.7676 12.53814,4.7676l-13.00079,37.949c0,0 -1.81064,30.29109 -6.91838,33.39466c-4.65852,2.83061 -17.82212,-4.55379 -21.53934,-14.25399z" fill="url(#color-29)"/><path d="M274.65066,146.88436l4.54577,-11.64414l38.65854,15.09197c0,0 0.56979,4.0401 -0.13707,5.85074c-0.79744,2.04269 -4.40869,5.79339 -4.40869,5.79339z" fill="url(#color-30)"/><path d="M252.38297,205.29864c-16.16758,-8.01658 -10.08222,-24.98784 0.65483,-31.92523c10.73705,-6.93739 22.83236,-29.61281 22.83236,-29.61281l44.22206,10.46515c0,0 -28.21485,40.21076 -49.68954,52.20148c-6.56645,3.66648 -15.88015,-0.0677 -18.01973,-1.1286z" fill="url(#color-31)"/><path d="M279.09972,136.86287c0,0 -0.35665,-10.63079 0.97978,-17.18374c1.40043,-6.86679 6.00117,-22.69661 6.00117,-22.69661c0,0 2.67955,-9.02305 21.05975,-6.59818c14.29702,1.88619 12.15289,16.39136 12.15289,16.39136c0,0 1.16718,9.19302 2.61057,19.00014c0.89711,6.09544 2.47578,13.48698 2.19895,15.83547c-0.92813,7.87389 -4.62991,12.82593 -4.62991,12.82593z" fill="url(#color-32)"/><path d="M261.71828,177.26123c0,0 7.67567,-8.97842 11.34652,-13.39055c2.87384,-3.45416 4.29536,-9.72988 10.17384,-11.48663c5.87848,-1.75675 8.36641,-1.02784 12.63302,0.63781c2.02656,0.79114 7.00644,1.22518 9.66902,3.45498c2.73916,2.29392 4.04239,4.04486 4.04239,4.04486c0,0 -5.58474,11.90404 -8.97588,15.97994c-4.19113,5.03747 -15.5559,15.23611 -15.5559,15.23611c0,0 -17.24292,18.90315 -29.26312,10.01437c-13.81306,-10.21458 5.93009,-24.49091 5.93009,-24.49091z" fill="url(#color-33)"/><path d="M290.30769,131.52669c-4.26535,-8.06125 -3.64093,-13.27323 -1.70112,-20.40813c1.7301,-6.36358 5.76157,-16.116 5.76157,-16.116c0,0 9.57225,-1.86392 12.62293,-1.09199c3.42023,0.86547 6.91685,6.03638 6.91685,6.03638c0,0 1.70347,7.61779 3.5188,16.97318c1.1386,5.86779 2.55537,13.48737 2.89502,17.01689c0.60229,6.25874 1.64797,6.24498 -2.79544,10.36259c-4.44341,4.11761 -3.92982,4.37008 -10.38392,1.85047c-4.92938,-1.9244 -12.56934,-6.56214 -16.83469,-14.62339z" fill="url(#color-34)"/></g><path d="M167.33008,62.50212l3.15084,-17.09662" fill="none" stroke="#2d3032" stroke-width="2" stroke-linecap="round"/><path d="M184.56658,34.45725c0,0 9.34904,0.49972 14.54605,0.62846c5.24838,0.13002 15.16806,-1.52164 25.11846,-1.50105c12.1156,0.02506 25.01187,2.75121 25.01187,2.75121c0,0 19.24485,5.28579 -21.33529,0.71889c-8.96059,-1.00844 -20.09018,3.76299 -24.99581,3.46199c-28.02024,-1.71928 -18.34527,-6.0595 -18.34527,-6.0595z" fill="url(#color-35)" stroke="none" stroke-width="0" stroke-linecap="butt"/><path d="M155.25771,21.27777c5.35998,5.44597 16.25923,9.72165 16.25923,9.72165c0,0 -3.39826,5.61743 -19.1215,-7.58406c-2.72761,-2.29016 -4.04098,-7.1692 -7.38603,-10.14635c-8.85952,-7.88511 -6.9797,-7.17779 -6.9797,-7.17779c0,0 1.92555,-0.36134 17.22799,15.18657z" fill="url(#color-36)" stroke="none" stroke-width="0" stroke-linecap="butt"/><path d="M277.98509,13.22897l50.66239,-97.58553l160.60775,51.68142l-61.50359,110.71824c0,0 -5.86056,-4.54991 -15.38427,-7.3557c-9.58686,-2.82439 -22.88611,-3.92136 -37.80359,-8.99007c-10.0582,-3.41761 -21.26282,-12.75643 -31.03196,-16.41964c-15.50416,-5.8137 -32.17952,-10.07069 -40.00766,-13.45847c-14.52916,-6.28775 -25.53905,-18.59025 -25.53905,-18.59025z" fill="url(#color-37)" stroke="#000000" stroke-width="0" stroke-linecap="butt"/></g></g></g></svg>