<svg version="1.1" xmlns="http://www.w3.org/2000/svg" xmlns:xlink="http://www.w3.org/1999/xlink" width="1087.00055" height="98.92572" viewBox="0,0,1087.00055,98.92572"><defs><linearGradient x1="269.60576" y1="194.78995" x2="269.60576" y2="293.71564" gradientUnits="userSpaceOnUse" id="color-1"><stop offset="0" stop-color="#9e988b"/><stop offset="1" stop-color="#7d726b"/></linearGradient><linearGradient x1="810.60583" y1="194.78997" x2="810.60583" y2="293.71568" gradientUnits="userSpaceOnUse" id="color-2"><stop offset="0" stop-color="#9e988b"/><stop offset="1" stop-color="#7d726b"/></linearGradient></defs><g transform="translate(3.39447,-194.78996)"><g data-paper-data="{&quot;isPaintingLayer&quot;:true}" fill-rule="nonzero" stroke="none" stroke-width="0.5" stroke-linecap="butt" stroke-linejoin="miter" stroke-miterlimit="10" stroke-dasharray="" stroke-dashoffset="0" style="mix-blend-mode: normal"><path d="M-1.1237,227.57627c3.24477,-1.92442 6.77339,1.67978 10.27256,0.18003c2.4227,-1.03838 4.49745,-0.26393 6.85833,-1.43609c5.63656,-2.79849 12.34906,-0.6535 18.36416,-2.15225c0.85902,-0.21404 5.64738,-1.95571 6.33376,-2.06968c1.97299,-0.32761 4.02921,0.34059 6,0c4.03925,-0.69807 7.83735,-2 12,-2c2.14177,-0.73936 4.41091,-1.08316 6.53309,-1.87699c3.86682,-1.44644 7.1365,-4.08844 10.76899,-5.90108c0.87094,-0.43461 1.94943,-0.38 2.78405,-0.88084c0.75878,-0.45532 1.11206,-1.41699 1.85255,-1.90148c2.59856,-1.70017 5.74272,-2.38041 8.6926,-3.35063c1.66659,-0.54814 3.18443,-1.55131 4.89857,-1.92502c6.58549,-1.43577 13.95435,0.48482 20.62425,-0.18408c4.67569,-0.46891 9.3063,-1.48549 13.94771,-1.99427c1.62301,-0.17791 3.27801,0.21656 4.89818,0.01438c2.14442,-0.2676 4.2395,-1.01177 6.40046,-1.03228c5.68418,0 12.08046,0.83592 17.69454,0.01873c8.14415,-1.18547 15.88477,-4.84155 24,-6c4.37933,-0.62515 9.92043,-0.25513 14.07463,1.10254c1.49848,0.48973 2.83437,1.47059 4.3787,1.78732c1.59698,0.32753 3.27401,-0.10634 4.88934,0.11347c1.14768,0.15618 2.17891,0.84709 3.32642,1.00452c2.34745,0.32206 4.78897,0.25641 7.03682,1.00569c4.595,-0.02143 8.91773,0.96772 13.59954,0.96772c8.92362,0 18.3739,-0.86638 27.24634,0.01217c5.68825,0.56325 11.01794,2.53526 16.45263,4.08753c5.91858,1.69049 11.87351,2.91394 17.70149,4.93258c2.68742,0 5.35059,0.54964 8,1c1.09261,0.18573 2.27096,-0.27053 3.324,0.07499c1.14195,0.37469 1.86039,1.61825 3,2c0.90087,0.30177 1.93665,-0.30225 2.84992,-0.04039c4.21133,1.20747 8.27844,3.76305 12.59292,4.84581c1.03229,0.25906 2.13915,-0.04985 3.19091,0.11311c5.65296,0.87592 10.8736,0.9612 16.64179,0.9742c2.45871,0.00555 4.87274,0.66215 7.30546,1.01873c7.84786,1.15032 15.92454,-0.94359 23.6867,-1.01872c8.89117,-0.00003 18.60126,-1.09814 27.40829,0.03227c3.09614,0.3974 5.93571,2.48724 9,3c1.97257,0.33008 4.02552,-0.31845 6,0c4.8446,0.78135 10.13849,2.85947 15.19909,2c4.73016,-0.80335 9.54277,-2.88996 13.82607,-4.9654c3.63308,-0.0396 5.67689,-1.4348 9.17393,-2.0346c0.98561,-0.16905 2.01274,0.15909 3,0c3.51464,-0.56636 6.51371,-3.01941 9.82607,-3.9654c1.01736,-0.29055 2.13044,0.14027 3.17393,-0.0346c1.0396,-0.17421 1.95936,-0.83216 3,-1c3.59361,-0.57959 6.43287,0.57741 9.80091,1c1.67762,0.21049 3.41306,-0.31215 5.07231,0.01283c2.77384,0.54327 5.15046,2.50619 7.93555,2.98846c0.98275,0.17017 2.00911,-0.1699 2.99213,-0.00129c3.08066,0.52841 5.92938,2.50519 9,3c2.24059,0.36105 4.54303,0.50987 6.69792,1.22193c0.87536,0.61769 1.60884,1.51688 2.62608,1.85306c1.02333,0.3382 2.23343,-0.32188 3.23225,0.08303c0.99258,0.40239 1.43755,1.6348 2.35762,2.18307c3.64606,2.17268 8.35682,2.85972 12,5c0.81291,0.47757 1.20977,1.48578 2,2c1.84256,1.19898 4.95406,-0.24877 6.45344,1.35886c1.5311,1.64164 0.73223,8.48217 0.73223,10.76777c0,8.33333 0,16.66667 0,25c-0.03239,3.61188 0.98186,6.40306 1,10c0.02333,4.62499 -0.81746,10.05623 -0.03228,14.59954c0.37477,2.16855 -540.14434,-2.69692 -541.23549,-3.83178c-2.97377,-3.09289 -1.73223,-9.89976 -1.73223,-13.76777c0,-6 0,-12 0,-18c0,-4.07463 0.32603,-7.71829 -0.96772,-11.59954c0.05267,-0.81458 0.43306,-1.6752 0.15802,-2.44375c-0.21131,-0.59045 -0.97205,-0.79263 -1.45807,-1.18894l-0.73223,-2.76777c0,0 2.18391,-11.99649 2.27073,-11.98973z" fill="url(#color-1)"/><path d="M539.87629,227.57627c3.24478,-1.92443 6.77339,1.67978 10.27256,0.18003c2.4227,-1.03838 4.49744,-0.26394 6.85833,-1.43609c5.63656,-2.7985 12.34906,-0.6535 18.36416,-2.15224c0.85902,-0.21403 5.64738,-1.95571 6.33376,-2.06968c1.97298,-0.32761 4.02922,0.3406 6,0c4.03925,-0.69807 7.83735,-2 12,-2c2.14176,-0.73936 4.41091,-1.08316 6.53309,-1.877c3.86682,-1.44645 7.1365,-4.08844 10.76899,-5.90107c0.87094,-0.43461 1.94943,-0.38001 2.78405,-0.88084c0.75878,-0.45532 1.11206,-1.41698 1.85256,-1.90147c2.59856,-1.70018 5.74272,-2.38041 8.6926,-3.35063c1.66659,-0.54814 3.18442,-1.5513 4.89857,-1.92502c6.58549,-1.43577 13.95435,0.48482 20.62426,-0.18408c4.6757,-0.46891 9.3063,-1.48549 13.94771,-1.99427c1.62301,-0.17791 3.27801,0.21656 4.89818,0.01438c2.14442,-0.26761 4.2395,-1.01177 6.40046,-1.03228c5.68418,0 12.08047,0.83593 17.69454,0.01873c8.14414,-1.18547 15.88477,-4.84154 24,-6c4.37933,-0.62515 9.92042,-0.25514 14.07463,1.10253c1.49848,0.48973 2.83437,1.4706 4.3787,1.78733c1.59698,0.32753 3.27401,-0.10634 4.88934,0.11347c1.14769,0.15617 2.17891,0.84709 3.32642,1.00452c2.34745,0.32207 4.78898,0.25641 7.03683,1.0057c4.595,-0.02143 8.91773,0.96772 13.59955,0.96772c8.92362,0 18.37391,-0.86638 27.24635,0.01217c5.68825,0.56324 11.01794,2.53526 16.45262,4.08754c5.91859,1.69049 11.87351,2.91394 17.70149,4.93258c2.68742,0 5.35059,0.54964 8,1c1.09261,0.18573 2.27096,-0.27053 3.32401,0.07499c1.14195,0.37469 1.86039,1.61826 3,2c0.90087,0.30177 1.93665,-0.30225 2.84992,-0.04039c4.21132,1.20747 8.27843,3.76305 12.59292,4.8458c1.03229,0.25906 2.13916,-0.04985 3.19091,0.11312c5.65296,0.87592 10.8736,0.96119 16.6418,0.9742c2.45871,0.00555 4.87273,0.66215 7.30545,1.01873c7.84785,1.15032 15.92454,-0.94359 23.68671,-1.01872c8.89117,-0.00002 18.60126,-1.09813 27.40829,0.03227c3.09614,0.39739 5.93571,2.48725 9,3c1.97258,0.33007 4.02552,-0.31845 6,0c4.84461,0.78135 10.13848,2.85947 15.19909,2c4.73016,-0.80335 9.54277,-2.88996 13.82607,-4.96541c3.63308,-0.0396 5.67689,-1.4348 9.17393,-2.03459c0.98561,-0.16905 2.01274,0.15909 3,0c3.51464,-0.56635 6.5137,-3.01942 9.82607,-3.96541c1.01736,-0.29055 2.13044,0.14027 3.17393,-0.03459c1.03959,-0.17421 1.95935,-0.83216 3,-1c3.59361,-0.57959 6.43287,0.57742 9.80091,1c1.67763,0.21049 3.41306,-0.31215 5.07231,0.01282c2.77384,0.54327 5.15046,2.50619 7.93556,2.98846c0.98275,0.17018 2.00912,-0.1699 2.99214,-0.00129c3.08065,0.52841 5.92938,2.50519 9,3c2.24059,0.36105 4.54302,0.50987 6.69792,1.22193c0.87536,0.61768 1.60885,1.51688 2.62609,1.85306c1.02334,0.3382 2.23343,-0.32188 3.23224,0.08303c0.99258,0.40239 1.43755,1.6348 2.35762,2.18307c3.64605,2.17267 8.35682,2.85971 12,5c0.81291,0.47756 1.20977,1.48578 2,2c1.84256,1.19898 4.95406,-0.24877 6.45344,1.35886c1.5311,1.64164 0.73223,8.48217 0.73223,10.76777c0,8.33334 0,16.66667 0,25c-0.03239,3.61188 0.98186,6.40305 1,10c0.02333,4.62499 -0.81747,10.05623 -0.03229,14.59954c0.37477,2.16856 -540.14433,-2.69692 -541.23548,-3.83178c-2.97376,-3.09289 -1.73223,-9.89975 -1.73223,-13.76776c0,-6 0,-12 0,-18c0,-4.07464 0.32603,-7.71829 -0.96772,-11.59955c0.05268,-0.81458 0.43306,-1.6752 0.15802,-2.44375c-0.21131,-0.59045 -0.97204,-0.79263 -1.45807,-1.18894l-0.73223,-2.76776c0,0 2.1839,-11.99649 2.27072,-11.98972z" fill="url(#color-2)"/></g></g></svg>