<svg version="1.1" xmlns="http://www.w3.org/2000/svg" xmlns:xlink="http://www.w3.org/1999/xlink" width="59" height="59.70662" viewBox="0,0,59,59.70662"><defs><linearGradient x1="240" y1="151.64669" x2="240" y2="208.35331" gradientUnits="userSpaceOnUse" id="color-1"><stop offset="0" stop-color="#191919"/><stop offset="1" stop-color="#050505"/></linearGradient><linearGradient x1="240" y1="151.64669" x2="240" y2="208.35331" gradientUnits="userSpaceOnUse" id="color-2"><stop offset="0" stop-color="#cccccc"/><stop offset="1" stop-color="#898989"/></linearGradient><radialGradient cx="240" cy="180" r="26.8571" gradientUnits="userSpaceOnUse" id="color-3"><stop offset="0" stop-color="#ffffff" stop-opacity="0.35484"/><stop offset="1" stop-color="#ffffff" stop-opacity="0"/></radialGradient><linearGradient x1="240" y1="153.29211" x2="240" y2="206.70789" gradientUnits="userSpaceOnUse" id="color-4"><stop offset="0" stop-color="#cccccc"/><stop offset="1" stop-color="#898989"/></linearGradient><linearGradient x1="243.20366" y1="195.66852" x2="244.33695" y2="195.66852" gradientUnits="userSpaceOnUse" id="color-5"><stop offset="0" stop-color="#525252"/><stop offset="1" stop-color="#363636"/></linearGradient><linearGradient x1="243.20366" y1="195.66852" x2="244.33695" y2="195.66852" gradientUnits="userSpaceOnUse" id="color-6"><stop offset="0" stop-color="#1f1f1f"/><stop offset="1" stop-color="#000000"/></linearGradient><linearGradient x1="234.63921" y1="196.15536" x2="236.11994" y2="196.79445" gradientUnits="userSpaceOnUse" id="color-7"><stop offset="0" stop-color="#525252"/><stop offset="1" stop-color="#2e2e2e"/></linearGradient><linearGradient x1="234.63921" y1="196.15536" x2="236.11994" y2="196.79445" gradientUnits="userSpaceOnUse" id="color-8"><stop offset="0" stop-color="#1f1f1f"/><stop offset="1" stop-color="#000000"/></linearGradient><linearGradient x1="232.83874" y1="196.81996" x2="246.82377" y2="196.81996" gradientUnits="userSpaceOnUse" id="color-9"><stop offset="0" stop-color="#767676"/><stop offset="1" stop-color="#2a2a2a"/></linearGradient><linearGradient x1="232.83874" y1="196.81996" x2="246.82377" y2="196.81996" gradientUnits="userSpaceOnUse" id="color-10"><stop offset="0" stop-color="#1f1f1f"/><stop offset="1" stop-color="#000000"/></linearGradient><linearGradient x1="237.62437" y1="192.98058" x2="242.07036" y2="192.98058" gradientUnits="userSpaceOnUse" id="color-11"><stop offset="0" stop-color="#7f7f7f"/><stop offset="1" stop-color="#545454"/></linearGradient><linearGradient x1="236.18595" y1="195.8292" x2="243.33442" y2="195.8292" gradientUnits="userSpaceOnUse" id="color-12"><stop offset="0" stop-color="#7f7f7f"/><stop offset="1" stop-color="#545454"/></linearGradient><linearGradient x1="234.97931" y1="198.97387" x2="244.57615" y2="198.97387" gradientUnits="userSpaceOnUse" id="color-13"><stop offset="0" stop-color="#7f7f7f"/><stop offset="1" stop-color="#545454"/></linearGradient><linearGradient x1="233.70143" y1="202.1059" x2="245.90613" y2="202.1059" gradientUnits="userSpaceOnUse" id="color-14"><stop offset="0" stop-color="#7f7f7f"/><stop offset="1" stop-color="#545454"/></linearGradient><linearGradient x1="242.11349" y1="191.95284" x2="245.6448" y2="191.95284" gradientUnits="userSpaceOnUse" id="color-15"><stop offset="0" stop-color="#8f8f8f"/><stop offset="1" stop-color="#4e4e4e"/></linearGradient><linearGradient x1="242.11349" y1="191.95284" x2="245.6448" y2="191.95284" gradientUnits="userSpaceOnUse" id="color-16"><stop offset="0" stop-color="#1f1f1f"/><stop offset="1" stop-color="#000000"/></linearGradient><linearGradient x1="233.04524" y1="163.18881" x2="247.03026" y2="163.18881" gradientUnits="userSpaceOnUse" id="color-17"><stop offset="0" stop-color="#9c8f73"/><stop offset="1" stop-color="#443a22"/></linearGradient><linearGradient x1="233.04524" y1="163.18442" x2="247.03027" y2="163.18442" gradientUnits="userSpaceOnUse" id="color-18"><stop offset="0" stop-color="#272727"/><stop offset="1" stop-color="#000000"/></linearGradient><linearGradient x1="236.5323" y1="157.10491" x2="243.43424" y2="157.10491" gradientUnits="userSpaceOnUse" id="color-19"><stop offset="0" stop-color="#f1f5f8"/><stop offset="1" stop-color="#6d7680"/></linearGradient><linearGradient x1="236.5323" y1="157.10436" x2="243.43424" y2="157.10436" gradientUnits="userSpaceOnUse" id="color-20"><stop offset="0" stop-color="#272727"/><stop offset="1" stop-color="#000000"/></linearGradient><linearGradient x1="234.95883" y1="160.6585" x2="245.24211" y2="160.6585" gradientUnits="userSpaceOnUse" id="color-21"><stop offset="0" stop-color="#45423b"/><stop offset="1" stop-color="#262018"/></linearGradient><linearGradient x1="246.89184" y1="187.15457" x2="253.82372" y2="187.15457" gradientUnits="userSpaceOnUse" id="color-22"><stop offset="0" stop-color="#36322b"/><stop offset="1" stop-color="#1f1c19"/></linearGradient><linearGradient x1="246.89184" y1="187.39271" x2="251.63315" y2="187.39271" gradientUnits="userSpaceOnUse" id="color-23"><stop offset="0" stop-color="#272727"/><stop offset="1" stop-color="#000000"/></linearGradient><linearGradient x1="233.10816" y1="187.08192" x2="226.17628" y2="187.08192" gradientUnits="userSpaceOnUse" id="color-24"><stop offset="0" stop-color="#6b6757"/><stop offset="1" stop-color="#827969"/></linearGradient><linearGradient x1="228.36685" y1="187.32006" x2="233.10816" y2="187.32006" gradientUnits="userSpaceOnUse" id="color-25"><stop offset="0" stop-color="#272727"/><stop offset="1" stop-color="#000000"/></linearGradient><linearGradient x1="233.08891" y1="181.49013" x2="246.90843" y2="181.49013" gradientUnits="userSpaceOnUse" id="color-26"><stop offset="0" stop-color="#635f54"/><stop offset="1" stop-color="#211f1a"/></linearGradient><linearGradient x1="233.08891" y1="181.49013" x2="246.90843" y2="181.49013" gradientUnits="userSpaceOnUse" id="color-27"><stop offset="0" stop-color="#272727"/><stop offset="1" stop-color="#000000"/></linearGradient><linearGradient x1="240.49266" y1="182.12792" x2="245.91317" y2="182.12792" gradientUnits="userSpaceOnUse" id="color-28"><stop offset="0" stop-color="#4a382c"/><stop offset="1" stop-color="#301f1b"/></linearGradient><linearGradient x1="240.49266" y1="182.12792" x2="245.91317" y2="182.12792" gradientUnits="userSpaceOnUse" id="color-29"><stop offset="0" stop-color="#351c12"/><stop offset="1" stop-color="#1a1310"/></linearGradient><linearGradient x1="240.47808" y1="182.12996" x2="245.88605" y2="182.12996" gradientUnits="userSpaceOnUse" id="color-30"><stop offset="0" stop-color="#351c12"/><stop offset="1" stop-color="#1a1310"/></linearGradient><linearGradient x1="240.47808" y1="182.08879" x2="245.88605" y2="182.08879" gradientUnits="userSpaceOnUse" id="color-31"><stop offset="0" stop-color="#351c12"/><stop offset="1" stop-color="#1a1310"/></linearGradient><linearGradient x1="234.01408" y1="182.15537" x2="239.43459" y2="182.15537" gradientUnits="userSpaceOnUse" id="color-32"><stop offset="0" stop-color="#4a382c"/><stop offset="1" stop-color="#301f1b"/></linearGradient><linearGradient x1="234.01408" y1="182.15537" x2="239.43459" y2="182.15537" gradientUnits="userSpaceOnUse" id="color-33"><stop offset="0" stop-color="#351c12"/><stop offset="1" stop-color="#1a1310"/></linearGradient><linearGradient x1="233.9995" y1="182.15741" x2="239.40747" y2="182.15741" gradientUnits="userSpaceOnUse" id="color-34"><stop offset="0" stop-color="#351c12"/><stop offset="1" stop-color="#1a1310"/></linearGradient><linearGradient x1="233.9995" y1="182.11624" x2="239.40747" y2="182.11624" gradientUnits="userSpaceOnUse" id="color-35"><stop offset="0" stop-color="#351c12"/><stop offset="1" stop-color="#1a1310"/></linearGradient><linearGradient x1="240.49266" y1="188.66615" x2="245.91317" y2="188.66615" gradientUnits="userSpaceOnUse" id="color-36"><stop offset="0" stop-color="#4a382c"/><stop offset="1" stop-color="#301f1b"/></linearGradient><linearGradient x1="240.49266" y1="188.66615" x2="245.91317" y2="188.66615" gradientUnits="userSpaceOnUse" id="color-37"><stop offset="0" stop-color="#351c12"/><stop offset="1" stop-color="#1a1310"/></linearGradient><linearGradient x1="240.47808" y1="188.66819" x2="245.88605" y2="188.66819" gradientUnits="userSpaceOnUse" id="color-38"><stop offset="0" stop-color="#351c12"/><stop offset="1" stop-color="#1a1310"/></linearGradient><linearGradient x1="240.47808" y1="188.62702" x2="245.88605" y2="188.62702" gradientUnits="userSpaceOnUse" id="color-39"><stop offset="0" stop-color="#351c12"/><stop offset="1" stop-color="#1a1310"/></linearGradient><linearGradient x1="234.01408" y1="188.6936" x2="239.43459" y2="188.6936" gradientUnits="userSpaceOnUse" id="color-40"><stop offset="0" stop-color="#4a382c"/><stop offset="1" stop-color="#301f1b"/></linearGradient><linearGradient x1="234.01408" y1="188.6936" x2="239.43459" y2="188.6936" gradientUnits="userSpaceOnUse" id="color-41"><stop offset="0" stop-color="#351c12"/><stop offset="1" stop-color="#1a1310"/></linearGradient><linearGradient x1="233.9995" y1="188.69565" x2="239.40747" y2="188.69565" gradientUnits="userSpaceOnUse" id="color-42"><stop offset="0" stop-color="#351c12"/><stop offset="1" stop-color="#1a1310"/></linearGradient><linearGradient x1="233.9995" y1="188.65447" x2="239.40747" y2="188.65447" gradientUnits="userSpaceOnUse" id="color-43"><stop offset="0" stop-color="#351c12"/><stop offset="1" stop-color="#1a1310"/></linearGradient><linearGradient x1="233.7886" y1="174.68806" x2="246.12407" y2="174.68806" gradientUnits="userSpaceOnUse" id="color-44"><stop offset="0" stop-color="#515151"/><stop offset="1" stop-color="#131313"/></linearGradient><linearGradient x1="233.7886" y1="174.68806" x2="246.12407" y2="174.68806" gradientUnits="userSpaceOnUse" id="color-45"><stop offset="0" stop-color="#272727"/><stop offset="1" stop-color="#000000"/></linearGradient><linearGradient x1="234.43108" y1="172.00394" x2="245.39593" y2="172.00394" gradientUnits="userSpaceOnUse" id="color-46"><stop offset="0" stop-color="#272727"/><stop offset="1" stop-color="#000000"/></linearGradient><linearGradient x1="234.47391" y1="177.41194" x2="245.26744" y2="177.41194" gradientUnits="userSpaceOnUse" id="color-47"><stop offset="0" stop-color="#272727"/><stop offset="1" stop-color="#000000"/></linearGradient></defs><g transform="translate(-210.5,-150.14669)"><g data-paper-data="{&quot;isPaintingLayer&quot;:true}" fill-rule="nonzero" stroke-linejoin="miter" stroke-miterlimit="10" stroke-dasharray="" stroke-dashoffset="0" style="mix-blend-mode: normal"><path d="M212,208.35331v-56.70662h56v56.70662z" fill="url(#color-1)" stroke="url(#color-2)" stroke-width="3" stroke-linecap="butt"/><path d="M266.8571,180c0,14.75036 -12.02433,26.70789 -26.8571,26.70789c-14.83277,0 -26.8571,-11.95753 -26.8571,-26.70789c0,-14.75036 12.02433,-26.70789 26.8571,-26.70789c14.83277,0 26.8571,11.95753 26.8571,26.70789z" fill="url(#color-3)" stroke="url(#color-4)" stroke-width="0" stroke-linecap="butt"/><g stroke-width="0.5"><path d="M243.20366,197.54281v-3.74859h1.13329v3.74859z" fill="url(#color-5)" stroke="url(#color-6)" stroke-linecap="butt"/><path d="M231.95331,202.37844l5.37179,-12.44617l1.48074,0.63909l-5.37179,12.44617z" fill="url(#color-7)" stroke="url(#color-8)" stroke-linecap="butt"/><path d="M232.83874,203.81275c0,0 5.22193,-14.08758 6.99347,-13.98503c2.0266,0.11731 6.99156,13.98503 6.99156,13.98503z" fill="url(#color-9)" stroke="url(#color-10)" stroke-linecap="butt"/><path d="M242.07036,192.98058h-4.446" fill="none" stroke="url(#color-11)" stroke-linecap="round"/><path d="M243.33442,195.8292h-7.14847" fill="none" stroke="url(#color-12)" stroke-linecap="round"/><path d="M244.57616,198.97387h-9.59685" fill="none" stroke="url(#color-13)" stroke-linecap="round"/><path d="M245.90613,202.1059h-12.2047" fill="none" stroke="url(#color-14)" stroke-linecap="round"/><path d="M245.6448,191.95284c-0.01321,1.66039 -0.05505,1.83805 -1.76566,1.82045c-1.71116,-0.0176 -1.78688,-0.24259 -1.76566,-1.82045c0.02344,-1.74205 0.01846,-1.86315 1.76566,-1.82045c1.67405,0.04091 1.78017,-0.00283 1.76566,1.82045z" fill="url(#color-15)" stroke="url(#color-16)" stroke-linecap="butt"/></g><path d="M233.04524,170.1816c0,0 0.89943,-14.30552 6.92082,-13.98503c6.05851,-0.42754 7.0642,13.98503 7.0642,13.98503z" fill="url(#color-17)" stroke="url(#color-18)" stroke-width="0.5" stroke-linecap="butt"/><path d="M236.5323,157.98965c0,0 0.44389,-1.80996 3.41559,-1.76941c2.99002,-0.05409 3.48635,1.76941 3.48635,1.76941z" fill="url(#color-19)" stroke="url(#color-20)" stroke-width="0.5" stroke-linecap="butt"/><path d="M234.60729,162.42425c0,0 0.1706,-0.55327 0.42123,-1.21169c0.29412,-0.77266 0.7813,-1.69012 2.46476,-2.02814c0.06531,-0.01312 1.29238,-0.20525 1.29238,-0.20525l2.66953,0.00823c0,0 0.92282,0.06587 0.97701,0.07872c1.59319,0.37767 2.19146,1.32601 2.52637,2.11893c0.28556,0.6761 0.45931,1.23921 0.45931,1.23921z" data-paper-data="{&quot;index&quot;:null}" fill="url(#color-21)" stroke="#000000" stroke-width="0.5" stroke-linecap="butt"/><path d="M237.45578,160.73116c0,-0.67948 0.55083,-1.23031 1.23031,-1.23031c0.67948,0 1.23031,0.55083 1.23031,1.23031c0,0.67948 -0.55083,1.23031 -1.23031,1.23031c-0.67948,0 -1.23031,-0.55083 -1.23031,-1.23031z" fill="#caff00" stroke="none" stroke-width="0.5" stroke-linecap="butt"/><path d="M240.29956,160.75811c0,-0.67948 0.55083,-1.23031 1.23031,-1.23031c0.67948,0 1.23031,0.55083 1.23031,1.23031c0,0.67948 -0.55083,1.23031 -1.23031,1.23031c-0.67948,0 -1.23031,-0.55083 -1.23031,-1.23031z" fill="#00fcff" stroke="none" stroke-width="0.5" stroke-linecap="butt"/><path d="M246.89184,192.8412v-14.13385c0,0 1.77865,9.48775 2.4005,11.7785c0.492,1.81239 2.3408,5.59221 2.3408,5.59221z" fill="url(#color-22)" stroke="url(#color-23)" stroke-width="0.5" stroke-linecap="butt"/><path d="M228.36685,196.00542c0,0 1.84881,-3.77982 2.3408,-5.59221c0.62186,-2.29075 2.4005,-11.7785 2.4005,-11.7785v14.13385z" data-paper-data="{&quot;index&quot;:null}" fill="url(#color-24)" stroke="url(#color-25)" stroke-width="0.5" stroke-linecap="butt"/><path d="M233.08891,192.82711v-22.67395h13.81953v22.67395z" fill="url(#color-26)" stroke="url(#color-27)" stroke-width="0.5" stroke-linecap="butt"/><g stroke-width="0.5"><path d="M240.49266,184.94969v-5.64355h5.42051v5.64355z" fill="url(#color-28)" stroke="url(#color-29)" stroke-linecap="butt"/><path d="M245.88605,179.3848l-5.40797,5.49032" fill="none" stroke="url(#color-30)" stroke-linecap="round"/><path d="M240.53299,179.3299l5.35307,5.57268" fill="none" stroke="url(#color-31)" stroke-linecap="round"/></g><g stroke-width="0.5"><path d="M234.01408,184.97714v-5.64355h5.42051v5.64355z" fill="url(#color-32)" stroke="url(#color-33)" stroke-linecap="butt"/><path d="M233.9995,184.90258l5.40797,-5.49033" fill="none" stroke="url(#color-34)" stroke-linecap="round"/><path d="M234.0544,179.35735l5.35307,5.57268" fill="none" stroke="url(#color-35)" stroke-linecap="round"/></g><g stroke-width="0.5"><path d="M240.49266,191.48792v-5.64355h5.42051v5.64355z" fill="url(#color-36)" stroke="url(#color-37)" stroke-linecap="butt"/><path d="M245.88605,185.92303l-5.40797,5.49032" fill="none" stroke="url(#color-38)" stroke-linecap="round"/><path d="M245.88605,191.44081l-5.35307,-5.57268" fill="none" stroke="url(#color-39)" stroke-linecap="round"/></g><g stroke-width="0.5"><path d="M234.01408,191.51538v-5.64355h5.42051v5.64355z" fill="url(#color-40)" stroke="url(#color-41)" stroke-linecap="butt"/><path d="M233.9995,191.44081l5.40797,-5.49033" fill="none" stroke="url(#color-42)" stroke-linecap="round"/><path d="M234.0544,185.89558l5.35307,5.57268" fill="none" stroke="url(#color-43)" stroke-linecap="round"/></g><g stroke-width="0.5"><path d="M233.7886,178.08794v-6.79976h12.33547v6.79976z" fill="url(#color-44)" stroke="url(#color-45)" stroke-linecap="butt"/><path d="M234.43108,172.00394h10.96486" fill="none" stroke="url(#color-46)" stroke-linecap="round"/><path d="M234.47391,177.41194h10.79353" fill="none" stroke="url(#color-47)" stroke-linecap="round"/></g><path d="M215.27327,167.03273v-12.39235h25.93332v8.69862h-15.56684v3.69373z" fill-opacity="0.53453" fill="#000000" stroke="#a60000" stroke-width="0" stroke-linecap="butt"/><text transform="translate(215.70712,161.61518) scale(0.21839,0.21839)" font-size="40" xml:space="preserve" fill="#ffffff" fill-rule="nonzero" stroke="#000000" stroke-width="0" stroke-linecap="butt" stroke-linejoin="miter" stroke-miterlimit="10" stroke-dasharray="" stroke-dashoffset="0" font-family="Serif" font-weight="normal" text-anchor="start" style="mix-blend-mode: normal"><tspan x="0" dy="0">Rocket</tspan></text><text transform="translate(215.56527,166.16682) scale(0.11601,0.11601)" font-size="40" xml:space="preserve" fill="#ffffff" fill-rule="nonzero" stroke="#000000" stroke-width="0" stroke-linecap="butt" stroke-linejoin="miter" stroke-miterlimit="10" stroke-dasharray="" stroke-dashoffset="0" font-family="Serif" font-weight="normal" text-anchor="start" style="mix-blend-mode: normal"><tspan x="0" dy="0">3-2-1</tspan></text></g></g></svg>