<svg version="1.1" xmlns="http://www.w3.org/2000/svg" xmlns:xlink="http://www.w3.org/1999/xlink" width="544.72172" height="440.13803" viewBox="0,0,544.72172,440.13803"><defs><radialGradient cx="239.76178" cy="177.81006" r="244" gradientUnits="userSpaceOnUse" id="color-1"><stop offset="0" stop-color="#121212"/><stop offset="1" stop-color="#868686"/></radialGradient><radialGradient cx="240.00005" cy="180" r="173.5" gradientUnits="userSpaceOnUse" id="color-2"><stop offset="0" stop-color="#000000"/><stop offset="1" stop-color="#000000" stop-opacity="0"/></radialGradient><radialGradient cx="237.93829" cy="318.1666" r="116.49049" gradientUnits="userSpaceOnUse" id="color-3"><stop offset="0" stop-color="#33266a"/><stop offset="1" stop-color="#949074"/></radialGradient><linearGradient x1="242.7439" y1="206.71003" x2="247.12426" y2="240.06435" gradientUnits="userSpaceOnUse" id="color-4"><stop offset="0" stop-color="#5fa5c2"/><stop offset="1" stop-color="#7fff7d"/></linearGradient><radialGradient cx="217.12983" cy="96.63091" r="64.41492" gradientUnits="userSpaceOnUse" id="color-5"><stop offset="0" stop-color="#ffa8a8"/><stop offset="1" stop-color="#ffed7d"/></radialGradient><radialGradient cx="232.39258" cy="141.39011" r="13.70696" gradientUnits="userSpaceOnUse" id="color-6"><stop offset="0" stop-color="#daffe3"/><stop offset="1" stop-color="#0c1a0f"/></radialGradient><radialGradient cx="266.89257" cy="159.89011" r="16.12716" gradientUnits="userSpaceOnUse" id="color-7"><stop offset="0" stop-color="#5f6471"/><stop offset="1" stop-color="#171d2c"/></radialGradient><radialGradient cx="291.89257" cy="138.39011" r="13.22358" gradientUnits="userSpaceOnUse" id="color-8"><stop offset="0" stop-color="#ffd0d0"/><stop offset="1" stop-color="#2a0000"/></radialGradient><linearGradient x1="77.60014" y1="183.04635" x2="108.54445" y2="168.52111" gradientUnits="userSpaceOnUse" id="color-9"><stop offset="0" stop-color="#694444"/><stop offset="1" stop-color="#98a1b9"/></linearGradient><radialGradient cx="-16.15668" cy="249.30218" r="65.45502" gradientUnits="userSpaceOnUse" id="color-10"><stop offset="0" stop-color="#dcdcdc"/><stop offset="1" stop-color="#a0a0a0"/></radialGradient><radialGradient cx="0.31852" cy="211.33334" r="46.28026" gradientUnits="userSpaceOnUse" id="color-11"><stop offset="0" stop-color="#d1ffc4"/><stop offset="1" stop-color="#2188ff"/></radialGradient><radialGradient cx="0.31852" cy="211.33334" r="46.28026" gradientUnits="userSpaceOnUse" id="color-12"><stop offset="0" stop-color="#ceffc4"/><stop offset="1" stop-color="#ff21cc"/></radialGradient><radialGradient cx="0.31852" cy="211.33334" r="46.28026" gradientUnits="userSpaceOnUse" id="color-13"><stop offset="0" stop-color="#ffe9c4"/><stop offset="1" stop-color="#4fff21"/></radialGradient><radialGradient cx="0.31852" cy="211.33334" r="46.28026" gradientUnits="userSpaceOnUse" id="color-14"><stop offset="0" stop-color="#ffe9c4"/><stop offset="1" stop-color="#4fff21"/></radialGradient><radialGradient cx="0.31855" cy="211.33341" r="46.28024" gradientUnits="userSpaceOnUse" id="color-15"><stop offset="0" stop-color="#ffe9c4"/><stop offset="1" stop-color="#ffa321"/></radialGradient><radialGradient cx="0.31856" cy="211.33347" r="46.28024" gradientUnits="userSpaceOnUse" id="color-16"><stop offset="0" stop-color="#c4f0ff"/><stop offset="1" stop-color="#3d21ff"/></radialGradient><radialGradient cx="-16.72328" cy="264.03927" r="50.24886" gradientUnits="userSpaceOnUse" id="color-17"><stop offset="0" stop-color="#1c2f30"/><stop offset="1" stop-color="#142913"/></radialGradient><radialGradient cx="-53.37417" cy="189.02349" r="13.22632" gradientUnits="userSpaceOnUse" id="color-18"><stop offset="0" stop-color="#786c41"/><stop offset="1" stop-color="#141a29"/></radialGradient><radialGradient cx="-28.46255" cy="239.93997" r="20.82216" gradientUnits="userSpaceOnUse" id="color-19"><stop offset="0" stop-color="#7ba676"/><stop offset="1" stop-color="#291616"/></radialGradient></defs><g transform="translate(60.96,5.18993)"><g data-paper-data="{&quot;isPaintingLayer&quot;:true}" fill-rule="nonzero" stroke-linecap="butt" stroke-linejoin="miter" stroke-miterlimit="10" stroke-dasharray="" stroke-dashoffset="0" style="mix-blend-mode: normal"><path d="M-4.23828,360.81007v-366h488v366z" fill="url(#color-1)" stroke="none" stroke-width="0"/><path d="M413.5,180c0,97.7544 -77.6786,177 -173.5,177c-95.8214,0 -173.5,-79.2456 -173.5,-177c0,-97.7544 77.6786,-177 173.5,-177c95.8214,0 173.5,79.2456 173.5,177z" fill="url(#color-2)" stroke="none" stroke-width="0"/><path d="M160.25243,434.36546l0.87834,-232.97929l154.49348,0.58264l-0.87834,232.97929z" data-paper-data="{&quot;index&quot;:null}" fill="url(#color-3)" stroke="#ed6b00" stroke-width="0"/><path d="M317.75618,291.95257c-5.0309,-13.03527 -11.05226,-29.68868 -11.05226,-29.68868c0,0 -11.04198,-32.90496 -6.36567,-35.41357c27.34834,-14.67296 32.67371,24.10983 32.67371,24.10983c0,0 9.65055,25.06826 15.00005,38.92735c2.57612,8.6138 -25.07037,14.30237 -30.25576,2.06507z" data-paper-data="{&quot;index&quot;:null}" fill="#a3bda9" stroke="#000000" stroke-width="0"/><g><path d="M228.48725,242.5119l-4.38035,-33.35423l37.2739,-4.89511l4.38035,33.35423z" fill="url(#color-4)" stroke="#000000" stroke-width="0"/><path d="M302.57782,144.27643c1.15825,37.94343 -26.06368,69.56234 -60.80191,70.62275c-34.73819,1.06041 -63.8381,-28.83915 -64.99636,-66.78266c-1.15825,-37.94348 26.06372,-69.56234 60.80196,-70.62275c34.73815,-1.06041 63.83806,28.83915 64.99631,66.78267z" fill="url(#color-5)" stroke="none" stroke-width="0"/><path d="M234.24021,154.93526c-2.50656,4.56413 -7.13506,2.1034 -7.13506,2.1034c-4.67209,-2.5948 -12.48175,-5.39491 -11.96181,-12.87968c0.42489,-6.11682 10.39255,-11.81263 15.78488,-10.83296c9.78211,1.7772 18.67383,18.83841 3.31207,21.60924z" data-paper-data="{&quot;index&quot;:null}" fill="url(#color-6)" stroke="none" stroke-width="0.5"/><path d="M257.0938,176.41599c0.6539,-2.32212 2.30108,-2.87228 3.52687,-2.93738c0.38889,-0.03601 0.78833,-0.01594 1.18741,0.06639c-1.57584,-5.26582 -0.89405,-12.15203 -2.76053,-17.23739c0,0 -1.37318,-3.81193 2.43876,-5.18519c3.8119,-1.37313 5.18515,2.4388 5.18515,2.4388c2.25503,6.35973 4.01183,14.21829 4.0846,21.08007c0.02731,2.57134 1.45218,6.00343 -0.48065,7.6995c-2.00564,1.75997 -5.33394,-0.17113 -8.00098,-0.25671l-2.37873,-0.66982c-0.49303,-0.13881 -0.93874,-0.36294 -1.32595,-0.65208c-1.01167,-0.69505 -2.12977,-2.02393 -1.47587,-4.34605z" data-paper-data="{&quot;index&quot;:null}" fill="url(#color-7)" stroke="none" stroke-width="0.5"/><path d="M291.1509,132.11765c7.90861,2.00089 15.22634,20.50137 2.85304,23.36571c-1.98457,4.90829 -5.7402,2.21218 -5.7402,2.21218c-3.79187,-2.84138 -10.11739,-5.93054 -9.76022,-14.00987c0.29187,-6.60261 8.28781,-12.67099 12.64741,-11.56801z" data-paper-data="{&quot;index&quot;:null}" fill="url(#color-8)" stroke="none" stroke-width="0.5"/></g><g><path d="M101.70739,199.03614l-15.15962,3.65843l-17.06385,-36.93861l13.85677,-5.84992c0,0 18.20175,21.49066 22.32823,28.53033c3.62136,6.178 -3.96155,10.59976 -3.96155,10.59976z" data-paper-data="{&quot;index&quot;:null}" fill="url(#color-9)" stroke="#000000" stroke-width="0"/><path d="M-6.20212,150.3887c34.91869,-16.39044 75.39046,-3.76266 90.39667,28.20611c15.0064,31.96882 -1.13548,71.17204 -36.05478,87.56284c-34.91869,16.39045 -75.39044,3.76266 -90.39674,-28.20634c-15.0064,-31.96882 1.13548,-71.17204 36.05476,-87.56285z" data-paper-data="{&quot;index&quot;:null}" fill="url(#color-10)" stroke="none" stroke-width="0"/><g data-paper-data="{&quot;index&quot;:null}" stroke="#ed6b00" stroke-width="0"><path d="M50.14126,174.20549c21.50799,45.83936 -5.00303,61.65732 -22.34257,68.61689c-17.33952,6.95919 -43.07443,-14.923 -52.69667,-38.59277c-9.62219,-23.66976 -1.54537,-52.45148 15.79402,-59.41078c0,0 35.97189,-21.53394 59.24489,29.38685z" data-paper-data="{&quot;index&quot;:null}" fill="url(#color-11)"/><path d="M50.14118,174.20546c17.13921,36.52837 3.78572,53.99269 -11.12053,63.10217c6.26599,-8.37203 8.16654,-19.37148 4.03865,-29.32585c-6.41669,-15.4738 -24.97056,-22.56245 -41.44127,-15.83299c-10.97533,4.4842 -18.25617,13.97252 -19.99427,24.38319c-2.59138,-3.94291 -4.81121,-8.09439 -6.52183,-12.30229c-2.93292,-7.21475 -4.22146,-14.90445 -4.10454,-22.30634c8.60968,-7.55347 12.64991,-19.00111 10.09639,-29.87275c2.78499,-3.23849 6.08013,-5.73787 9.80218,-7.2317c0,0 1.45655,-0.87195 3.9731,-1.84998c0.24956,2.85891 0.93187,5.71616 2.08303,8.49215c6.41669,15.47379 24.97056,22.56245 41.44127,15.83299c2.26501,-0.92539 4.37265,-2.06397 6.30674,-3.37973c1.87154,3.04798 3.69201,6.46516 5.44078,10.29144z" data-paper-data="{&quot;index&quot;:null}" fill="url(#color-12)"/><path d="M-24.89805,204.22962c-3.27694,-8.06106 -4.50116,-16.71502 -4.00573,-24.89796c3.64323,-0.09745 7.34908,-0.79401 10.96877,-2.14658c-5.13449,8.07457 -6.45048,18.13623 -2.64623,27.31016c6.41666,15.47377 24.97059,22.56247 41.44128,15.83302c11.04212,-4.5115 18.34467,-14.08824 20.02539,-24.57346c5.06629,2.81192 10.96988,4.22503 17.02893,3.9789c0.5658,5.39079 0.22971,10.13894 -0.77921,14.32922c-6.59404,-1.64064 -13.87178,-1.24977 -20.78278,1.57387c-12.2366,4.99952 -19.88084,16.21942 -20.37111,28.00278c-15.62756,-3.13466 -33.27926,-20.71468 -40.87922,-39.40989z" data-paper-data="{&quot;index&quot;:null}" fill="url(#color-13)"/><path d="M26.14057,165.75656c-7.98784,-4.43336 -18.057,-5.38965 -27.53518,-1.84782c4.35512,-6.84881 5.96296,-15.12729 4.02928,-23.08102c8.2435,-1.39321 19.74499,-0.6051 30.88728,9.34958c-3.91074,4.48598 -6.47092,9.8993 -7.38138,15.57927z" data-paper-data="{&quot;index&quot;:null}" fill="url(#color-14)"/><path d="M30.57972,188.87641c-0.47966,0.08819 -2.02589,2.20438 -2.54486,2.77588c-6.33201,6.9736 -13.65545,13.22241 -19.1007,20.83474c-0.51441,0.71911 1.10799,3.35846 1.55112,4.68143c2.71377,8.10186 4.32792,16.64154 8.06215,24.33227c0.47816,0.98474 1.2697,1.85922 2.31218,2.63286c-7.07574,0.03362 -14.88,-3.43107 -22.16131,-9.01254c5.32283,-8.13308 6.73415,-18.35521 2.87415,-27.66347c-4.9826,-12.01546 -17.28344,-18.97506 -30.2445,-18.33502c-1.29584,-11.9969 1.19268,-23.88466 6.49097,-32.55164c-0.69355,4.97184 -0.123,10.12906 1.91045,15.03265c6.41669,15.47379 24.97057,22.56246 41.44127,15.83299c4.08617,-1.66951 7.66031,-4.03266 10.62695,-6.8788c3.09997,3.39779 6.96281,6.01091 11.25063,7.7102c-5.0107,-0.18663 -9.45022,0.05331 -12.46848,0.60831z" data-paper-data="{&quot;index&quot;:null}" fill="url(#color-15)"/><path d="M50.14129,174.20559c21.50799,45.83936 -5.00302,61.6573 -22.34257,68.61689c-0.75372,0.30253 -1.52333,0.55052 -2.30679,0.74629c5.48419,-2.40545 10.57503,-6.66862 13.95286,-10.29095c0.3491,-0.37438 0.69202,-0.75838 1.0287,-1.15179c11.02686,-7.78637 16.19183,-21.41124 12.3441,-33.91653c0.61903,-10.96804 -1.51697,-21.81561 -6.91049,-29.61658c-9.30171,-13.45359 -16.7137,-25.93597 -41.44127,-15.83299c-10.01832,4.09319 -15.96154,15.12101 -20.28574,24.67052c-2.52069,5.56667 3.96403,11.6695 2.94121,17.60548c-4.49598,4.59763 -7.47304,10.34258 -8.56152,16.41853c-1.30554,-2.36959 -2.46708,-4.78764 -3.45774,-7.22468c-3.56073,-8.75901 -4.69774,-18.21807 -3.83861,-27.01226c0.43055,-0.15627 0.85995,-0.3218 1.28787,-0.49665c13.90385,-5.68069 21.87865,-19.3923 20.16663,-32.83627c1.84777,-0.86059 5.00292,-2.11788 9.0102,-2.89261c7.33348,5.45967 17.16003,7.57339 26.78286,5.31091c7.49215,4.94335 15.06614,13.54144 21.62994,27.90294z" data-paper-data="{&quot;index&quot;:null}" fill="url(#color-16)"/></g><g data-paper-data="{&quot;index&quot;:null}"><path d="M-20.17096,251.06523c0.29512,0.79825 1.08734,2.84173 2.09395,5.01133c1.67712,2.24485 3.48125,4.90688 5.1949,6.85511c4.67607,0.23335 7.68319,-6.13801 12.77429,-0.06238c8.68195,10.36308 -7.59347,10.91717 -13.46478,8.2681c-6.98101,-4.68491 -10.0526,-13.53567 -13.63765,-20.9c-4.9379,-10.14389 -10.9123,-19.71541 -14.40876,-30.11787c-0.52272,-0.28565 -0.9476,-0.75432 -1.16969,-1.35658l-1.01559,-2.7553c-0.75794,-1.32229 -1.56486,-2.76324 -2.37092,-4.28847c-2.45749,-3.86632 -4.51311,-8.76214 -6.23378,-13.37574c-1.08156,-2.19843 -1.88168,-4.31606 -2.20458,-6.15819c-0.45324,-1.29298 -0.87561,-2.49576 -1.27045,-3.56492l-1.07098,-2.90422c-0.48763,-1.32275 0.18882,-2.79007 1.51204,-3.27834c1.1776,-0.43398 2.46946,0.05434 3.08356,1.0991l0.89834,1.46177c0.39887,-0.85653 0.89933,-1.67159 1.51213,-2.43588l-0.87838,-0.97306l2.43303,-2.19387c0.24309,-0.22938 0.53554,-0.41514 0.86914,-0.53846c1.32275,-0.48763 2.79009,0.18881 3.27835,1.51204c0.14836,0.402 0.18953,0.81867 0.1368,1.21571l-0.29937,2.70065l-0.07951,-0.00903l0.04408,0.2353c-0.60791,2.03475 -0.94272,4.02886 -1.01495,5.94982c0.62998,2.72148 1.09912,5.63613 1.64238,8.58977c2.1583,4.66164 6.37651,8.27268 12.37772,10.05034c0,0 2.44585,0.73061 1.71561,3.17654c-0.7306,2.44587 -3.17656,1.71562 -3.17656,1.71562c-0.52097,-0.15688 -1.03278,-0.32568 -1.5336,-0.50675l0.80478,1.2505c0.11148,0.166 0.20611,0.34866 0.27867,0.54468c0.48763,1.32275 -0.18882,2.79007 -1.51204,3.27834c-0.66961,0.24698 -1.37591,0.19574 -1.97406,-0.08696c0.32053,1.18048 0.68566,2.27797 1.17528,3.16342c3.42016,6.1844 6.70623,16.21561 10.76777,25.41907c1.14722,-0.36725 2.38104,0.12279 2.97639,1.13641l1.62753,2.64984l-0.08577,0.05265l0.01908,0.03353z" fill="url(#color-17)" stroke="none" stroke-width="0.5"/><path d="M-57.74558,183.19274c-4.88647,-12.68187 -4.66036,-12.62177 3.87774,-16.03351c8.53769,-3.41182 17.21147,-0.59831 19.37266,6.2834c2.16084,6.88191 -3.00981,15.22681 -11.5478,18.63842c-8.53771,3.41186 -7.12032,3.00369 -11.70289,-8.8885z" data-paper-data="{&quot;index&quot;:null}" fill="url(#color-18)" stroke="#000000" stroke-width="0"/><path d="M-36.23381,211.6041c9.12973,-4.30858 20.47249,0.55097 25.334,10.85445c4.86235,10.30292 1.40273,22.14811 -7.72685,26.45618c-9.12975,4.30858 -9.2327,4.6018 -17.55925,-15.27077c-7.80837,-18.63503 -9.17756,-17.73066 -0.04784,-22.03952z" fill="url(#color-19)" stroke="#000000" stroke-width="0"/></g></g><g data-paper-data="{&quot;index&quot;:null}" stroke-width="0"><path d="M294.72218,399.95812c0,0 -9.41683,2.60817 -16.34674,1.57997c-5.9661,-0.88459 -9.1066,-5.42662 -14.25718,-5.43791c-2.55107,-0.00579 -9.51747,2.51646 -13.12708,2.62171c-4.77536,0.13895 -13.44016,3.86856 -18.41287,3.1592c-6.2213,-0.88678 -8.81206,-6.26697 -15.41093,-6.17634c-14.53055,0.1995 -28.8,4.01986 -28.8,4.01986c0,0 1.11399,-29.81294 -0.1972,-53.79c-1.27161,-23.26373 -4.96149,-40.46454 -5.51716,-56.1754c-0.62782,-17.75666 -0.48394,-65.32681 -0.48394,-65.32681c0,0 21.72426,-2.12502 32.11946,0.2511c9.85177,2.2524 28.70899,13.65354 28.70899,13.65354c0,0 24.60665,-11.7285 36.30975,-14.01141c9.19337,-1.79373 28.21364,1.42453 28.21364,1.42453c0,0 -0.03925,44.90658 -1.81256,69.04977c-0.94465,12.86311 -6.55024,29.8405 -8.57149,48.70113c-2.97476,27.75704 -2.41381,56.45789 -2.41381,56.45789z" fill="#d1b0b0" stroke="#292e32"/><path d="M189.6061,278.45897l0.28277,-26.90828l39.44353,-1.46317l-0.94123,30.03037z" fill="#f200ff" stroke="none"/><path d="M228.79555,267.217c-5.70093,-4.93481 -13.09998,-7.9728 -21.22859,-8.11176c-1.96355,-0.03357 -3.8903,0.10339 -5.76618,0.39718c2.72632,-2.47342 5.04269,-5.39345 6.83222,-8.64713l20.69945,-0.76782z" fill="#eeff00" stroke="none"/><path d="M195.9279,278.72934c1.21163,-3.35948 1.89967,-6.97254 1.96412,-10.74253c0.10265,-6.00583 -1.38994,-11.66769 -4.08716,-16.5814l25.87009,-0.95964c-8.94377,6.68024 -14.50435,17.50653 -14.20686,28.69167z" fill="#00ff5f" stroke="none"/><path d="M195.64873,278.71736c-0.60408,-2.00222 -1.3918,-3.92601 -2.34383,-5.75142c4.8529,-1.47712 9.24257,-4.03358 12.88397,-7.39396c3.87495,6.54599 9.92914,11.66143 17.18158,14.33114l-27.72174,-1.18576z" fill="#004fff" stroke="none"/><path d="M220.83774,279.79475c1.71925,-3.92352 2.70575,-8.24577 2.78355,-12.79665c0.10243,-5.99217 -1.38316,-11.64197 -4.06879,-16.54786l9.78,-0.36276l-0.94123,30.03043z" fill="#ff0000" stroke="none"/><path d="M189.77485,262.40881c3.26643,4.14278 7.49704,7.49525 12.36035,9.71437c0.38161,2.41201 1.02256,4.73956 1.8939,6.95266l-14.42288,-0.61693l0.16865,-16.05015z" fill="#00efff" stroke="none"/><path d="M207.37067,250.90221c-9.65968,5.51866 -16.31304,15.73888 -16.79144,27.59837l-0.97301,-0.04163l0.28275,-26.90829z" fill="#9c00ff" stroke="none"/></g><path d="M115.94566,229.49741c15.03438,-2.17869 40.58652,-6.08511 40.58652,-6.08511c0,0 38.28139,-16.5858 42.48195,23.42563c0.67061,6.38777 -36.44795,12.07027 -36.44795,12.07027c0,0 -17.82313,3.0657 -31.96416,5.11444c-15.98769,2.13581 -29.08885,-31.31864 -14.6564,-34.52526z" fill="#b8bda6" stroke="#000000" stroke-width="0"/><path d="M42.127,235.28375c0,0 15.63318,3.47437 33.88358,0.20345c4.38893,-0.78656 41.04406,-5.5975 45.54553,-6.45618c17.30047,-2.59549 14.47318,33.64007 -1.67621,35.31052c-4.26005,0.49585 -39.7864,-1.27308 -51.08764,-1.18098c-18.81571,0.15358 -30.1584,2.55311 -30.1584,2.55311z" data-paper-data="{&quot;index&quot;:null}" fill="#b8bda6" stroke="#000000" stroke-width="0"/><path d="M39.35833,266.69583c0.13565,-1.34861 -19.56369,-0.26707 -19.33916,-5.99819c0.1104,-2.81891 12.81657,-0.08266 17.21988,-3.91854c2.33129,-2.03066 -22.50098,2.0729 -19.91895,-5.3101c0.88629,-2.53437 18.90135,-0.48071 23.23248,-3.12345c2.31827,-1.41489 -27.44361,0.102 -25.95821,-4.85069c0.88212,-2.93997 17.28385,0.06841 24.68662,-1.86539c3.60646,-0.94257 -20.2501,-2.6071 -18.52205,-6.16571c1.05773,-2.17803 24.40429,-1.97245 24.66994,-2.21193c1.49341,-1.34527 -12.61487,-6.19849 -9.19205,-7.88365c6.30763,-3.1059 13.74922,3.0293 20.74201,7.87148c4.086,2.82983 10.2859,3.12063 10.2859,3.12063c0,0 2.39696,10.47965 1.79441,15.61576c-0.586,5.00108 -5.36135,14.80546 -5.36135,14.80546c0,0 -24.62665,2.77063 -24.33886,-0.08543z" data-paper-data="{&quot;index&quot;:null}" fill="#786274" stroke="#000000" stroke-width="0"/><path d="M415.61791,288.94277c0,0 -11.29859,0.31637 -29.44556,3.81143c-10.89953,2.09901 -47.63668,10.67328 -51.81665,11.10613c-19.46771,2.02996 -24.95756,-27.04211 -8.68218,-27.71538c4.46977,-0.1978 44.88919,-3.24713 49.23902,-3.47998c18.08765,-0.9676 32.60425,-6.66611 32.60425,-6.66611z" data-paper-data="{&quot;index&quot;:null}" fill="#a3bda9" stroke="#000000" stroke-width="0"/><path d="M422.60035,290.25246c0.51861,2.21942 -23.76546,2.57299 -23.76546,2.57299c0,0 -5.47806,-7.226 -6.46601,-11.10156c-1.01411,-3.98061 0.45676,-12.47614 0.45676,-12.47614c0,0 6.03156,-0.86685 9.7871,-3.51411c6.42852,-4.53073 13.18698,-10.12657 19.60594,-8.33111c3.48288,0.97399 -9.8938,6.24666 -8.32377,7.15121c0.27972,0.16077 23.06537,-2.40384 24.27993,-0.79827c1.98404,2.62305 -21.17959,6.38944 -17.57893,6.75946c7.3914,0.76052 23.16167,-3.29629 24.26707,-1.07267c1.86203,3.74515 -27.33356,5.61518 -24.95166,6.49027c4.44991,1.63472 21.87555,-1.83639 22.95149,0.06708c3.1349,5.54596 -21.46027,4.8719 -19.01451,6.23001c4.61951,2.56519 16.80272,-0.8959 17.14475,1.31139c0.69529,4.48733 -18.63521,5.66416 -18.39076,6.71178z" data-paper-data="{&quot;index&quot;:null}" fill="#6c7378" stroke="#000000" stroke-width="0"/></g></g></svg>