<svg version="1.1" xmlns="http://www.w3.org/2000/svg" xmlns:xlink="http://www.w3.org/1999/xlink" width="92.73332" height="57.33334" viewBox="0,0,92.73332,57.33334"><defs><linearGradient x1="199.05307" y1="179.43944" x2="281.75818" y2="179.43944" gradientUnits="userSpaceOnUse" id="color-1"><stop offset="0" stop-color="#b58383"/><stop offset="1" stop-color="#826767"/></linearGradient><linearGradient x1="199.05307" y1="179.43944" x2="281.75818" y2="179.43944" gradientUnits="userSpaceOnUse" id="color-2"><stop offset="0" stop-color="#160000"/><stop offset="1" stop-color="#000000"/></linearGradient><linearGradient x1="194.25" y1="205.40001" x2="285.75" y2="205.40001" gradientUnits="userSpaceOnUse" id="color-3"><stop offset="0" stop-color="#826868"/><stop offset="1" stop-color="#4f4444"/></linearGradient><linearGradient x1="194.25" y1="205.4" x2="285.75" y2="205.4" gradientUnits="userSpaceOnUse" id="color-4"><stop offset="0" stop-color="#300000"/><stop offset="1" stop-color="#170000"/></linearGradient><linearGradient x1="205.5" y1="178.39999" x2="208.43617" y2="178.39999" gradientUnits="userSpaceOnUse" id="color-5"><stop offset="0" stop-color="#6b5b5b"/><stop offset="1" stop-color="#4a3d3d"/></linearGradient><linearGradient x1="205.5" y1="178.40001" x2="208.43617" y2="178.40001" gradientUnits="userSpaceOnUse" id="color-6"><stop offset="0" stop-color="#1c1c1c"/><stop offset="1" stop-color="#0e0e0e"/></linearGradient><linearGradient x1="213.75798" y1="178.39998" x2="216.69415" y2="178.39998" gradientUnits="userSpaceOnUse" id="color-7"><stop offset="0" stop-color="#6b5b5b"/><stop offset="1" stop-color="#4a3d3d"/></linearGradient><linearGradient x1="213.75798" y1="178.39999" x2="216.69415" y2="178.39999" gradientUnits="userSpaceOnUse" id="color-8"><stop offset="0" stop-color="#1c1c1c"/><stop offset="1" stop-color="#0e0e0e"/></linearGradient><linearGradient x1="222.01596" y1="178.39998" x2="224.95213" y2="178.39998" gradientUnits="userSpaceOnUse" id="color-9"><stop offset="0" stop-color="#6b5b5b"/><stop offset="1" stop-color="#4a3d3d"/></linearGradient><linearGradient x1="222.01596" y1="178.39998" x2="224.95214" y2="178.39998" gradientUnits="userSpaceOnUse" id="color-10"><stop offset="0" stop-color="#1c1c1c"/><stop offset="1" stop-color="#0e0e0e"/></linearGradient><linearGradient x1="230.27394" y1="178.39999" x2="233.21011" y2="178.39999" gradientUnits="userSpaceOnUse" id="color-11"><stop offset="0" stop-color="#6b5b5b"/><stop offset="1" stop-color="#4a3d3d"/></linearGradient><linearGradient x1="230.27394" y1="178.40001" x2="233.21011" y2="178.40001" gradientUnits="userSpaceOnUse" id="color-12"><stop offset="0" stop-color="#1c1c1c"/><stop offset="1" stop-color="#0e0e0e"/></linearGradient><linearGradient x1="238.53192" y1="178.39998" x2="241.46809" y2="178.39998" gradientUnits="userSpaceOnUse" id="color-13"><stop offset="0" stop-color="#6b5b5b"/><stop offset="1" stop-color="#4a3d3d"/></linearGradient><linearGradient x1="238.53192" y1="178.39999" x2="241.46809" y2="178.39999" gradientUnits="userSpaceOnUse" id="color-14"><stop offset="0" stop-color="#1c1c1c"/><stop offset="1" stop-color="#0e0e0e"/></linearGradient><linearGradient x1="246.7899" y1="178.39998" x2="249.72607" y2="178.39998" gradientUnits="userSpaceOnUse" id="color-15"><stop offset="0" stop-color="#6b5b5b"/><stop offset="1" stop-color="#4a3d3d"/></linearGradient><linearGradient x1="246.7899" y1="178.39998" x2="249.72607" y2="178.39998" gradientUnits="userSpaceOnUse" id="color-16"><stop offset="0" stop-color="#1c1c1c"/><stop offset="1" stop-color="#0e0e0e"/></linearGradient><linearGradient x1="255.04787" y1="178.39999" x2="257.98403" y2="178.39999" gradientUnits="userSpaceOnUse" id="color-17"><stop offset="0" stop-color="#6b5b5b"/><stop offset="1" stop-color="#4a3d3d"/></linearGradient><linearGradient x1="255.04787" y1="178.40001" x2="257.98404" y2="178.40001" gradientUnits="userSpaceOnUse" id="color-18"><stop offset="0" stop-color="#1c1c1c"/><stop offset="1" stop-color="#0e0e0e"/></linearGradient><linearGradient x1="263.30585" y1="178.39998" x2="266.24202" y2="178.39998" gradientUnits="userSpaceOnUse" id="color-19"><stop offset="0" stop-color="#6b5b5b"/><stop offset="1" stop-color="#4a3d3d"/></linearGradient><linearGradient x1="263.30585" y1="178.39999" x2="266.24202" y2="178.39999" gradientUnits="userSpaceOnUse" id="color-20"><stop offset="0" stop-color="#1c1c1c"/><stop offset="1" stop-color="#0e0e0e"/></linearGradient><linearGradient x1="271.56383" y1="178.39998" x2="274.5" y2="178.39998" gradientUnits="userSpaceOnUse" id="color-21"><stop offset="0" stop-color="#6b5b5b"/><stop offset="1" stop-color="#4a3d3d"/></linearGradient><linearGradient x1="271.56383" y1="178.39998" x2="274.5" y2="178.39998" gradientUnits="userSpaceOnUse" id="color-22"><stop offset="0" stop-color="#1c1c1c"/><stop offset="1" stop-color="#0e0e0e"/></linearGradient><linearGradient x1="194.25" y1="153.9" x2="285.75" y2="153.9" gradientUnits="userSpaceOnUse" id="color-23"><stop offset="0" stop-color="#826868"/><stop offset="1" stop-color="#4f4444"/></linearGradient><linearGradient x1="194.25" y1="153.9" x2="285.75" y2="153.9" gradientUnits="userSpaceOnUse" id="color-24"><stop offset="0" stop-color="#300000"/><stop offset="1" stop-color="#170000"/></linearGradient><linearGradient x1="279.78333" y1="179.99999" x2="286.11667" y2="179.99999" gradientUnits="userSpaceOnUse" id="color-25"><stop offset="0" stop-color="#443c3c"/><stop offset="1" stop-color="#211c1c"/></linearGradient><linearGradient x1="279.78333" y1="180" x2="286.11667" y2="180" gradientUnits="userSpaceOnUse" id="color-26"><stop offset="0" stop-color="#1c1c1c"/><stop offset="1" stop-color="#0e0e0e"/></linearGradient><linearGradient x1="193.88334" y1="179.99999" x2="200.21667" y2="179.99999" gradientUnits="userSpaceOnUse" id="color-27"><stop offset="0" stop-color="#443c3c"/><stop offset="1" stop-color="#211c1c"/></linearGradient><linearGradient x1="193.88334" y1="179.99999" x2="200.21668" y2="179.99999" gradientUnits="userSpaceOnUse" id="color-28"><stop offset="0" stop-color="#1c1c1c"/><stop offset="1" stop-color="#0e0e0e"/></linearGradient><radialGradient cx="236.15992" cy="173.62728" r="15.43305" gradientUnits="userSpaceOnUse" id="color-29"><stop offset="0" stop-color="#555555"/><stop offset="1" stop-color="#343434"/></radialGradient><linearGradient x1="224.42687" y1="179.45222" x2="255.29297" y2="179.45222" gradientUnits="userSpaceOnUse" id="color-30"><stop offset="0" stop-color="#cacaca"/><stop offset="1" stop-color="#848484"/></linearGradient><linearGradient x1="238.97045" y1="172.78196" x2="240.79583" y2="172.78196" gradientUnits="userSpaceOnUse" id="color-31"><stop offset="0" stop-color="#1c1c1c"/><stop offset="1" stop-color="#0e0e0e"/></linearGradient><linearGradient x1="239.04698" y1="186.12247" x2="240.87235" y2="186.12247" gradientUnits="userSpaceOnUse" id="color-32"><stop offset="0" stop-color="#1c1c1c"/><stop offset="1" stop-color="#0e0e0e"/></linearGradient><linearGradient x1="246.52914" y1="178.55556" x2="246.53113" y2="180.38093" gradientUnits="userSpaceOnUse" id="color-33"><stop offset="0" stop-color="#1c1c1c"/><stop offset="1" stop-color="#0e0e0e"/></linearGradient><linearGradient x1="233.18873" y1="178.6466" x2="233.19071" y2="180.47197" gradientUnits="userSpaceOnUse" id="color-34"><stop offset="0" stop-color="#1c1c1c"/><stop offset="1" stop-color="#0e0e0e"/></linearGradient></defs><g transform="translate(-193.63334,-151.33333)"><g data-paper-data="{&quot;isPaintingLayer&quot;:true}" fill-rule="nonzero" stroke-linecap="butt" stroke-linejoin="miter" stroke-miterlimit="10" stroke-dasharray="" stroke-dashoffset="0" style="mix-blend-mode: normal"><path d="M199.05307,204.92584v-50.97279h82.70512v50.97279z" fill="url(#color-1)" stroke="url(#color-2)" stroke-width="1"/><path d="M194.25,208.03334v-5.26667h91.5v5.26667z" fill="url(#color-3)" stroke="url(#color-4)" stroke-width="0.5"/><path d="M205.5,202.40001v-48h2.93617v48z" fill="url(#color-5)" stroke="url(#color-6)" stroke-width="0.5"/><path d="M213.75798,202.4v-48h2.93617v48z" fill="url(#color-7)" stroke="url(#color-8)" stroke-width="0.5"/><path d="M222.01596,202.39999v-48h2.93618v48z" fill="url(#color-9)" stroke="url(#color-10)" stroke-width="0.5"/><path d="M230.27394,202.40001v-48h2.93617v48z" fill="url(#color-11)" stroke="url(#color-12)" stroke-width="0.5"/><path d="M238.53192,202.4v-48h2.93617v48z" fill="url(#color-13)" stroke="url(#color-14)" stroke-width="0.5"/><path d="M246.7899,202.39999v-48h2.93617v48z" fill="url(#color-15)" stroke="url(#color-16)" stroke-width="0.5"/><path d="M255.04787,202.40001v-48h2.93617v48z" fill="url(#color-17)" stroke="url(#color-18)" stroke-width="0.5"/><path d="M263.30585,202.4v-48h2.93617v48z" fill="url(#color-19)" stroke="url(#color-20)" stroke-width="0.5"/><path d="M271.56383,202.39999v-48h2.93617v48z" fill="url(#color-21)" stroke="url(#color-22)" stroke-width="0.5"/><path d="M194.25,155.62223v-3.44445h91.5v3.44445z" fill="url(#color-23)" stroke="url(#color-24)" stroke-width="0.5"/><path d="M279.78333,208.41667v-56.83333h6.33333v56.83333z" fill="url(#color-25)" stroke="url(#color-26)" stroke-width="0.5"/><path d="M193.88334,208.41667v-56.83334h6.33334v56.83334z" fill="url(#color-27)" stroke="url(#color-28)" stroke-width="0.5"/><path d="M255.29297,179.45222c0,8.5162 -6.90961,15.41995 -15.43305,15.41995c-8.52344,0 -15.43305,-6.90375 -15.43305,-15.41995c0,-8.5162 6.90961,-15.41995 15.43305,-15.41995c8.52344,0 15.43305,6.90375 15.43305,15.41995z" fill="url(#color-29)" stroke="url(#color-30)" stroke-width="0.5"/><path d="M238.97045,177.39103v-9.21814h1.82537v9.21814z" fill="#ffffff" stroke="url(#color-31)" stroke-width="0"/><path d="M235.93479,169.87698l3.94452,-3.90154l3.82909,3.82449l-1.12004,1.00471l-2.68423,-2.66583l-2.87544,2.84411z" fill="#ffffff" stroke="none" stroke-width="0"/><path d="M240.87235,181.5134v9.21813h-1.82538v-9.21813z" data-paper-data="{&quot;index&quot;:null}" fill="#ffffff" stroke="url(#color-32)" stroke-width="0"/><path d="M237.1052,187.92152l2.87544,2.84411l2.68423,-2.66583l1.12005,1.0047l-3.82909,3.82449l-3.94451,-3.90154z" data-paper-data="{&quot;index&quot;:null}" fill="#ffffff" stroke="none" stroke-width="0"/><path d="M241.92007,178.56057l9.21813,-0.01003l0.00199,1.82537l-9.21813,0.01003z" fill="#ffffff" stroke="url(#color-33)" stroke-width="0"/><path d="M249.43082,175.51673l3.90583,3.94027l-3.82032,3.83325l-1.00592,-1.11895l2.66291,-2.68713l-2.84724,-2.87235z" fill="#ffffff" stroke="none" stroke-width="0"/><path d="M237.79978,180.46695l-9.21813,0.01003l-0.00199,-1.82537l9.21813,-0.01003z" data-paper-data="{&quot;index&quot;:null}" fill="#ffffff" stroke="url(#color-34)" stroke-width="0"/><path d="M231.38756,176.70678l-2.84098,2.87854l2.66875,2.68133l-1.00349,1.12114l-3.82866,-3.82492l3.89724,-3.94876z" data-paper-data="{&quot;index&quot;:null}" fill="#ffffff" stroke="none" stroke-width="0"/></g></g></svg>