<svg version="1.1" xmlns="http://www.w3.org/2000/svg" xmlns:xlink="http://www.w3.org/1999/xlink" width="104.77135" height="104.2771" viewBox="0,0,104.77135,104.2771"><defs><linearGradient x1="242.83488" y1="156.39937" x2="242.26553" y2="163.22672" gradientUnits="userSpaceOnUse" id="color-1"><stop offset="0" stop-color="#c28b5f"/><stop offset="1" stop-color="#ffb87d"/></linearGradient><radialGradient cx="240.69527" cy="133.49012" r="13.11833" gradientUnits="userSpaceOnUse" id="color-2"><stop offset="0" stop-color="#ffd9ba"/><stop offset="1" stop-color="#ffb87d"/></radialGradient><radialGradient cx="235.211" cy="133.37302" r="10.07074" gradientUnits="userSpaceOnUse" id="color-3"><stop offset="0" stop-color="#303030"/><stop offset="1" stop-color="#292929"/></radialGradient><radialGradient cx="251.87587" cy="131.86448" r="2.65078" gradientUnits="userSpaceOnUse" id="color-4"><stop offset="0" stop-color="#787878"/><stop offset="1" stop-color="#292929"/></radialGradient><radialGradient cx="240.5622" cy="132.8949" r="4.17314" gradientUnits="userSpaceOnUse" id="color-5"><stop offset="0" stop-color="#a7a7a7"/><stop offset="1" stop-color="#292929"/></radialGradient><linearGradient x1="258.30457" y1="192.06027" x2="270.1562" y2="190.44784" gradientUnits="userSpaceOnUse" id="color-6"><stop offset="0" stop-color="#242424"/><stop offset="1" stop-color="#373737"/></linearGradient><radialGradient cx="256.55937" cy="188.99665" r="3.52256" gradientUnits="userSpaceOnUse" id="color-7"><stop offset="0" stop-color="#bfbfbf"/><stop offset="1" stop-color="#9a9a9a"/></radialGradient><linearGradient x1="270.98972" y1="191.91936" x2="316.15099" y2="196.91356" gradientUnits="userSpaceOnUse" id="color-8"><stop offset="0" stop-color="#b2b2b2"/><stop offset="1" stop-color="#c4c4c4"/></linearGradient><linearGradient x1="271.24799" y1="192.30948" x2="300.80683" y2="195.5783" gradientUnits="userSpaceOnUse" id="color-9"><stop offset="0" stop-color="#cccccc"/><stop offset="1" stop-color="#d8d8d8"/></linearGradient><linearGradient x1="268.52759" y1="191.24321" x2="270.94802" y2="191.55426" gradientUnits="userSpaceOnUse" id="color-10"><stop offset="0" stop-color="#b5b5b5"/><stop offset="1" stop-color="#c5c5c5"/></linearGradient></defs><g transform="translate(-218.87308,-130.04929)"><g data-paper-data="{&quot;isPaintingLayer&quot;:true}" fill-rule="nonzero" stroke-linejoin="miter" stroke-miterlimit="10" stroke-dasharray="" stroke-dashoffset="0" style="mix-blend-mode: normal"><g stroke-linecap="butt"><path d="M238.45068,162.9086l0.56935,-6.82735l7.62966,0.63625l-0.56935,6.82735z" fill="url(#color-1)" stroke="#000000" stroke-width="0"/><path d="M256.88363,145.10523c-0.64246,7.70418 -6.88118,13.47282 -13.93456,12.88462c-7.05337,-0.58819 -12.25045,-7.3105 -11.60798,-15.01468c0.64246,-7.70418 6.88118,-13.47281 13.93456,-12.88461c7.05337,0.58819 12.25045,7.31049 11.60798,15.01467z" fill="url(#color-2)" stroke="none" stroke-width="0"/><path d="M244.18352,145.41944c-0.61264,0.86557 -1.49229,0.26072 -1.49229,0.26072c-0.88537,-0.63299 -2.40087,-1.38004 -2.1227,-2.88247c0.22731,-1.22784 2.37577,-2.14996 3.44422,-1.82715c1.93822,0.58562 3.3431,4.24323 0.17078,4.4489z" fill="#191412" stroke="none" stroke-width="0.5"/><path d="M248.17521,149.95377c0.18597,-0.45475 0.53197,-0.528 0.7815,-0.51285c0.07951,0.0017 0.15988,0.01498 0.23872,0.04088c-0.19717,-1.10188 0.09993,-2.47946 -0.16023,-3.55157c0,0 -0.18976,-0.80304 0.61327,-0.99279c0.80303,-0.18977 0.99279,0.61328 0.99279,0.61328c0.30932,1.33893 0.48316,2.96962 0.33934,4.35969c-0.0539,0.52091 0.15512,1.24827 -0.27518,1.54679c-0.4465,0.30978 -1.07533,-0.15788 -1.61298,-0.23683l-0.46583,-0.19049c-0.09653,-0.03948 -0.18156,-0.09515 -0.25322,-0.1626c-0.18866,-0.16404 -0.38417,-0.45876 -0.1982,-0.91349z" fill="#191412" stroke="none" stroke-width="0.5"/><path d="M254.63706,146.44694c-0.42023,0.95518 -0.9548,0.33645 -0.9548,0.33645c-0.53712,-0.64882 -1.46905,-1.39701 -1.23686,-3.02573c0.18973,-1.33103 1.58471,-2.4044 2.24933,-2.0965c1.20565,0.55856 1.95903,4.44601 -0.05766,4.78577z" fill="#191412" stroke="none" stroke-width="0.5"/><g><path d="M237.88676,133.65357c-0.17054,-0.00166 -0.60979,0.00079 -1.08802,0.03436c-0.5401,0.15379 -1.16739,0.30164 -1.65464,0.48346c-0.37756,0.85911 0.60103,1.87713 -0.90026,2.39669c-2.56042,0.88614 -1.5024,-2.20145 -0.58715,-3.11184c1.3757,-0.97288 3.25246,-0.91638 4.88753,-1.06198c2.25215,-0.20058 4.47118,-0.63611 6.66889,-0.54827c0.09075,-0.07747 0.20886,-0.1237 0.33757,-0.1223l0.58847,0.00642c0.30172,-0.04758 0.62921,-0.09571 0.97238,-0.1378c0.89959,-0.18425 1.9631,-0.21958 2.94994,-0.21253c0.48889,-0.0456 0.94254,-0.04416 1.31066,0.02682c0.27453,0.00746 0.52988,0.01415 0.75828,0.01662l0.62035,0.00676c0.28254,0.00308 0.50909,0.23463 0.50602,0.51717c-0.00276,0.25147 -0.18645,0.45859 -0.42605,0.49893l-0.33782,0.06374c0.13199,0.1358 0.24883,0.28766 0.34816,0.4571l0.24495,-0.09489l0.23718,0.61222c0.02566,0.06194 0.0395,0.12996 0.03872,0.20123c-0.00308,0.28254 -0.23463,0.50909 -0.51715,0.50601c-0.08593,-0.00095 -0.16668,-0.023 -0.23736,-0.06121l-0.48442,-0.24885l0.00732,-0.01425l-0.04724,-0.00858c-0.3377,-0.25908 -0.6872,-0.4641 -1.04173,-0.61487c-0.5546,-0.07633 -1.13397,-0.19646 -1.72588,-0.30565c-1.02706,0.07139 -2.00442,0.6036 -2.76571,1.60047c0,0 -0.31141,0.40593 -0.71734,0.09451c-0.40592,-0.31141 -0.0945,-0.71735 -0.0945,-0.71735c0.06656,-0.08639 0.13468,-0.17007 0.20432,-0.25103l-0.29159,0.06146c-0.03914,0.0091 -0.07996,0.0137 -0.12192,0.01325c-0.28254,-0.00308 -0.50909,-0.23463 -0.50601,-0.51716c0.00155,-0.14299 0.06162,-0.27165 0.15722,-0.36345c-0.2439,-0.02421 -0.47557,-0.03424 -0.67636,-0.00577c-1.40242,0.19896 -3.51541,0.09832 -5.52904,0.20183c-0.01316,0.24116 -0.19297,0.43713 -0.4253,0.47625l-0.61238,0.11553l-0.00373,-0.01979l-0.00764,0.00118z" fill="url(#color-3)" stroke="none" stroke-width="0.5"/><path d="M253.27989,131.46223c2.7238,-0.00981 2.69645,0.02831 2.72581,1.87088c0.02937,1.84255 -1.11666,3.26597 -2.55973,3.1793c-1.44307,-0.08667 -2.63672,-1.65061 -2.66609,-3.49317c-0.02937,-1.84255 -0.05416,-1.54782 2.5,-1.55702z" data-paper-data="{&quot;index&quot;:null}" fill="url(#color-4)" stroke="#000000" stroke-width="0"/><path d="M246.42345,133.46249c0.1551,2.01731 -1.5647,3.79456 -3.84128,3.96959c-2.27656,0.175 -4.24783,-1.31845 -4.40292,-3.33577c-0.1551,-2.01731 -0.20263,-2.0575 4.11341,-2.19818c4.04722,-0.13193 3.97569,-0.45295 4.13078,1.56436z" fill="url(#color-5)" stroke="#000000" stroke-width="0"/></g></g><g stroke="#000000" stroke-width="0" stroke-linecap="butt"><path d="M266.8738,192.04035c-0.21985,0.02449 0.87266,3.51614 -0.04518,3.68348c-0.45144,0.0823 -0.6126,-2.29419 -1.42582,-2.94449c-0.43046,-0.34423 1.38066,3.95788 0.09096,3.76249c-0.44275,-0.06708 -0.96015,-3.37043 -1.58116,-4.05093c-0.33243,-0.36428 1.29975,4.91514 0.44611,4.82831c-0.50674,-0.05154 -0.79758,-3.10029 -1.45001,-4.35711c-0.31785,-0.61229 0.53442,3.724 -0.10988,3.54319c-0.39437,-0.11068 -1.45379,-4.30265 -1.50412,-4.34158c-0.28279,-0.21898 -0.39135,2.48551 -0.81821,1.93312c-0.78678,-1.01807 -0.16337,-2.57407 0.27618,-4.00284c0.25681,-0.83477 0.01293,-1.95654 0.01293,-1.95654c0,0 -0.17469,-2.92768 -1.53937,-6.0834c-0.32817,-0.75886 -1.22415,-3.29928 -1.569,-4.07582c-0.81614,-1.83782 -1.69149,-3.63377 -2.16399,-4.77172c-1.01628,-2.4476 -2.23101,-5.5748 -2.23101,-5.5748l5.42535,-2.15284c0,0 1.80844,4.44041 2.88896,7.04267c0.43974,1.05904 0.21435,2.05771 0.83052,3.72207c0.27622,0.74609 0.99989,4.09125 1.53863,6.11446c0.89698,3.36862 1.8033,5.31681 1.8033,5.31681c0,0 1.59054,4.31359 1.12481,4.36551z" data-paper-data="{&quot;index&quot;:null}" fill="#ffb77d"/><path d="M251.67279,161.45992c4.75426,-2.30138 6.3135,0.85836 7.00741,2.65777c0.69392,1.79943 2.09102,0.90445 -2.27613,2.99204c-3.69122,1.76448 -3.26919,1.24431 -3.96311,-0.55513c-0.69392,-1.79943 -3.24414,-3.89614 -0.76819,-5.09469z" data-paper-data="{&quot;index&quot;:null}" fill="#ffffff"/></g><path d="M226.12337,227.23573l3.75904,-33.71008c0,0 6.75518,-2.18267 9.822,-2.18267c3.62872,0 10.54956,2.18267 10.54956,2.18267l3.03149,33.71008h-7.63934c0,0 -1.32697,-25.53818 -2.03751,-29.57011c-0.20138,-1.1427 -3.2979,-2.07857 -3.2979,-2.07857c0,0 -3.09204,0.08829 -3.39803,1.52409c-0.93579,4.39099 -2.78619,30.12458 -2.78619,30.12458z" fill="#726f7c" stroke="#000000" stroke-width="0" stroke-linecap="butt"/><path d="M229.64345,192.95266c0,0 0.62854,-5.52658 0.55801,-10.93528c-0.04792,-3.67517 -0.82153,-7.05186 -0.7706,-9.55047c0.0956,-4.68961 0.90235,-13.35343 0.90235,-13.35343c0,0 3.7276,-0.27595 5.46864,0.23671c2.21624,0.65257 6.75057,3.3613 6.75057,3.3613c0,0 3.84456,-1.85753 5.78594,-2.11336c2.04843,-0.26992 6.20078,0.53391 6.20078,0.53391c0,0 -0.83478,9.17949 -1.27788,12.59365c-0.39204,3.02071 -1.41571,6.27216 -2.08295,10.73697c-0.6877,4.60173 -1.0134,10.3732 -1.0134,10.3732c0,0 -2.68351,-0.99577 -5.48301,-1.29768c-1.27135,-0.13711 -1.86867,0.85378 -3.08497,0.9121c-0.9722,0.04661 -2.57617,-0.82987 -3.49476,-0.94334c-0.69442,-0.08578 -1.99261,-0.6986 -2.48481,-0.74378c-0.9938,-0.09121 -1.68203,0.72803 -2.84901,0.79062c-1.35557,0.07269 -3.12495,-0.60116 -3.12495,-0.60116z" fill="#ffffff" stroke="#292e32" stroke-width="0" stroke-linecap="butt"/><g><path d="M259.69259,234.32551c-0.59276,0 -2.64411,0.01365 -4.70436,-0.0669c-1.25258,-0.04897 -1.90215,-0.61779 -2.83553,-0.76063c-1.17507,-0.17982 -2.93854,0.22047 -3.78778,0.02896c-1.56485,-0.35288 -2.37463,-0.77782 -2.37463,-0.77782c0,0 -0.26911,-1.0254 -0.2856,-1.5858c-0.02221,-0.75501 0.16433,-2.53701 0.16433,-2.53701c0,0 5.93425,-0.11957 8.24914,0.08076c1.36979,0.11854 4.24057,0.6468 4.24057,0.6468c0,0 1.45976,0.6156 1.67337,1.04283c0.26162,0.52325 0.87307,1.98865 0.87307,1.98865c0,0 -0.3857,1.94015 -1.21259,1.94015z" data-paper-data="{&quot;index&quot;:null}" fill="#141415" stroke="#000000" stroke-width="0" stroke-linecap="butt"/><path d="M259.4217,231.7507c-0.24822,0 0.7024,1.60165 -2.61811,1.33311c-3.13563,-0.25358 -2.77648,-1.18823 -3.8809,-1.26883c-2.30937,-0.16854 -2.58765,0.59503 -3.58732,0.44205c-0.34815,-0.05328 -0.51271,-0.11454 -1.78459,-0.97035c-0.87472,-0.58857 -0.66566,-1.75122 -1.26542,-2.3793c-0.87609,-0.91745 -0.80847,-1.8858 -0.80847,-1.8858l-0.07637,-3.04773c0,0 0.48635,2.20681 1.32529,3.03122c0.75062,0.73761 2.3169,-0.01875 2.80058,-0.01889c0.84696,-0.00024 -0.68885,-3.26804 0.12091,-3.2498c0.43542,0.00981 3.72275,-0.23409 3.72275,-0.23409c0,0 0.12302,3.57989 0.35598,3.60005c1.36979,0.11854 4.60434,0.6468 4.60434,0.6468c0,0 1.45976,0.6156 1.67338,1.04283c0.26162,0.52325 0.63055,2.95873 0.63055,2.95873c0,0 -0.3857,0 -1.2126,0z" data-paper-data="{&quot;index&quot;:null}" fill="#252527" stroke="#000000" stroke-width="0" stroke-linecap="butt"/><path d="M251.9516,228.8121l2.6677,-1.09133" fill="none" stroke="#ffffff" stroke-width="0.5" stroke-linecap="round"/><path d="M256.4382,227.72077l-2.54645,1.45511" fill="none" stroke="#ffffff" stroke-width="0.5" stroke-linecap="round"/><path d="M256.07442,229.4184l1.45512,-1.45511" fill="none" stroke="#ffffff" stroke-width="0.5" stroke-linecap="round"/><path d="M252.92167,224.68929l-2.18266,0.24252" fill="none" stroke="#969696" stroke-width="0.5" stroke-linecap="round"/><path d="M251.22405,225.78062l1.94015,-0.36378" fill="none" stroke="#969696" stroke-width="0.5" stroke-linecap="round"/></g><g data-paper-data="{&quot;index&quot;:null}"><path d="M218.87309,232.29247c0,0 0.61145,-1.46541 0.87307,-1.98866c0.21362,-0.42723 1.67337,-1.04283 1.67337,-1.04283c0,0 2.87078,-0.52826 4.24057,-0.6468c2.3149,-0.20032 8.24914,-0.08075 8.24914,-0.08075c0,0 0.18654,1.78201 0.16433,2.53701c-0.01648,0.56041 -0.2856,1.5858 -0.2856,1.5858c0,0 -0.80978,0.42493 -2.37463,0.77781c-0.84924,0.19151 -2.6127,-0.20879 -3.78777,-0.02896c-0.93338,0.14284 -1.58295,0.71166 -2.83553,0.76063c-2.06025,0.08055 -4.1116,0.06689 -4.70436,0.06689c-0.8269,0 -1.2126,-1.94015 -1.2126,-1.94015z" data-paper-data="{&quot;index&quot;:null}" fill="#141415" stroke="#000000" stroke-width="0" stroke-linecap="butt"/><path d="M219.14398,231.65781c0,0 0.36892,-2.43548 0.63055,-2.95873c0.21362,-0.42723 1.67337,-1.04283 1.67337,-1.04283c0,0 3.23456,-0.52826 4.60434,-0.6468c0.23296,-0.02016 0.35598,-3.60004 0.35598,-3.60004c0,0 3.28733,0.24389 3.72275,0.23408c0.80976,-0.01824 -0.72604,3.24957 0.12091,3.24981c0.48368,0.00014 2.04996,0.7565 2.80058,0.01889c0.83894,-0.82441 1.32529,-3.03123 1.32529,-3.03123l-0.07637,3.04773c0,0 0.06762,0.96834 -0.80847,1.8858c-0.59976,0.62808 -0.39071,1.79073 -1.26542,2.3793c-1.27187,0.85581 -1.43643,0.91707 -1.78458,0.97035c-0.99967,0.15299 -1.27796,-0.61058 -3.58733,-0.44204c-1.10442,0.0806 -0.74527,1.01524 -3.8809,1.26883c-3.3205,0.26854 -2.36989,-1.33311 -2.61811,-1.33311c-0.8269,0 -1.21259,0 -1.21259,0z" data-paper-data="{&quot;index&quot;:null}" fill="#252527" stroke="#000000" stroke-width="0" stroke-linecap="butt"/><path d="M227.82667,228.71921l-2.66771,-1.09134" fill="none" stroke="#ffffff" stroke-width="0.5" stroke-linecap="round"/><path d="M225.88652,229.08299l-2.54644,-1.45511" fill="none" stroke="#ffffff" stroke-width="0.5" stroke-linecap="round"/><path d="M223.70386,229.32551l-1.45512,-1.45512" fill="none" stroke="#ffffff" stroke-width="0.5" stroke-linecap="round"/><path d="M229.03927,224.83892l-2.18267,-0.24252" fill="none" stroke="#969696" stroke-width="0.5" stroke-linecap="round"/><path d="M226.61408,225.32395l1.94015,0.36378" fill="none" stroke="#969696" stroke-width="0.5" stroke-linecap="round"/></g><g stroke="none" stroke-width="0" stroke-linecap="butt"><path d="M258.45264,193.1487l0.5512,-5.00194l11.00424,1.21268l-0.5512,5.00195z" fill="url(#color-6)"/><path d="M261.00115,189.91592c0.26224,1.92768 -1.08783,3.70301 -3.01551,3.96526c-1.92769,0.26226 -3.70301,-1.08783 -3.96526,-3.01552c-0.26225,-1.9277 1.08782,-3.70302 3.01552,-3.96526c1.92769,-0.26226 3.70301,1.08783 3.96526,3.01553z" fill="url(#color-7)"/><path d="M270.47852,196.54212l1.02242,-9.24563l44.62968,6.84604l7.51382,3.20997l-7.90112,1.65613z" fill="url(#color-8)"/><path d="M270.91337,195.33521l0.63312,-6.40733l37.25807,5.82328l9.97331,2.30805l-9.94294,0.12894z" fill="url(#color-9)"/><path d="M274.63064,180.07669c0,0 -2.85658,7.47939 -3.41157,11.38845c-0.60934,4.292 -0.09665,13.32212 -0.09665,13.32212c0,0 -2.89731,-9.58201 -2.30632,-13.74471c0.57812,-4.07214 5.81458,-10.96586 5.81458,-10.96586z" fill="url(#color-10)"/></g><g stroke="#000000" stroke-width="0" stroke-linecap="butt"><path d="M249.30426,189.61323c0,0 -1.5556,-2.07612 -4.70031,-4.8758c-1.88877,-1.6815 -5.12498,-4.26468 -5.76883,-4.9762c-1.43631,-1.58727 -2.70207,-1.83791 -3.58367,-2.90409c-2.1662,-2.61978 -5.88648,-7.04846 -5.88648,-7.04846l6.08161,-5.2843c0,0 2.66005,3.04951 4.69747,5.51357c0.94729,1.14563 2.35426,3.10651 3.84813,5.01927c0.6312,0.80817 2.85371,3.17841 3.47657,3.95777c2.59001,3.24107 5.73369,4.961 5.73369,4.961c0,0 1.08444,0.86762 2.18894,0.99649c1.8904,0.22052 4.04739,0.28999 4.64774,1.74423c0.32573,0.78906 -2.76146,-0.48151 -2.70944,-0.03478c0.00925,0.07947 3.96115,3.49643 3.81674,4.01874c-0.23586,0.85323 -4.4892,-2.39407 -4.02267,-1.70267c0.95756,1.41925 4.1573,3.33875 3.87078,3.96292c-0.48269,1.0515 -5.25752,-3.60318 -5.07728,-3.02278c0.33672,1.08419 3.66636,3.40246 3.44058,3.95926c-0.65773,1.62183 -4.22211,-2.73848 -4.13073,-2.05288c0.17261,1.29523 2.71129,2.71416 2.31313,3.20395c-0.80951,0.99581 -3.95859,-2.09805 -4.13511,-1.85148c-0.37399,0.52234 -4.10084,-3.5838 -4.10084,-3.5838z" fill="#ffb77d"/><path d="M234.43803,162.88773c1.53833,1.74496 2.40386,1.51416 -2.05936,4.96542c-5.28054,4.08328 -3.33787,2.89382 -4.87621,1.14886c-1.53833,-1.74496 -4.00928,-5.21146 1.77139,-9.64187c3.01049,-2.30729 3.62585,1.78262 5.16419,3.52759z" fill="#ffffff"/></g></g></g></svg>