<svg version="1.1" xmlns="http://www.w3.org/2000/svg" xmlns:xlink="http://www.w3.org/1999/xlink" width="59" height="59.70662" viewBox="0,0,59,59.70662"><defs><linearGradient x1="240" y1="151.64669" x2="240" y2="208.35331" gradientUnits="userSpaceOnUse" id="color-1"><stop offset="0" stop-color="#191919"/><stop offset="1" stop-color="#050505"/></linearGradient><linearGradient x1="240" y1="151.64669" x2="240" y2="208.35331" gradientUnits="userSpaceOnUse" id="color-2"><stop offset="0" stop-color="#cccccc"/><stop offset="1" stop-color="#898989"/></linearGradient><radialGradient cx="240" cy="180" r="26.8571" gradientUnits="userSpaceOnUse" id="color-3"><stop offset="0" stop-color="#ffffff" stop-opacity="0.35484"/><stop offset="1" stop-color="#ffffff" stop-opacity="0"/></radialGradient><linearGradient x1="240" y1="153.2921" x2="240" y2="206.70789" gradientUnits="userSpaceOnUse" id="color-4"><stop offset="0" stop-color="#cccccc"/><stop offset="1" stop-color="#898989"/></linearGradient><radialGradient cx="240" cy="180" r="21.78719" gradientUnits="userSpaceOnUse" id="color-5"><stop offset="0" stop-color="#1b1b1b"/><stop offset="1" stop-color="#474747"/></radialGradient><linearGradient x1="240" y1="157.8125" x2="240" y2="202.1875" gradientUnits="userSpaceOnUse" id="color-6"><stop offset="0" stop-color="#1c1c1c"/><stop offset="1" stop-color="#050505"/></linearGradient><radialGradient cx="234.91303" cy="171.23776" r="17.0446" gradientUnits="userSpaceOnUse" id="color-7"><stop offset="0" stop-color="#705a8f"/><stop offset="1" stop-color="#483f57"/></radialGradient><linearGradient x1="222.88934" y1="175.4632" x2="256.84639" y2="175.4632" gradientUnits="userSpaceOnUse" id="color-8"><stop offset="0" stop-color="#272727"/><stop offset="1" stop-color="#101010"/></linearGradient><linearGradient x1="235.50715" y1="174.69806" x2="239.78006" y2="174.69806" gradientUnits="userSpaceOnUse" id="color-9"><stop offset="0" stop-color="#3e3844"/><stop offset="1" stop-color="#27242b"/></linearGradient><linearGradient x1="244.50423" y1="174.69726" x2="240.07553" y2="174.69726" gradientUnits="userSpaceOnUse" id="color-10"><stop offset="0" stop-color="#3e3844"/><stop offset="1" stop-color="#27242b"/></linearGradient><linearGradient x1="239.60154" y1="175.4787" x2="240.24755" y2="175.4787" gradientUnits="userSpaceOnUse" id="color-11"><stop offset="0" stop-color="#3e3844"/><stop offset="1" stop-color="#27242b"/></linearGradient><linearGradient x1="235.50715" y1="189.81755" x2="239.78006" y2="189.81755" gradientUnits="userSpaceOnUse" id="color-12"><stop offset="0" stop-color="#2a282c"/><stop offset="1" stop-color="#151515"/></linearGradient><linearGradient x1="240.07554" y1="189.71235" x2="244.34845" y2="189.71235" gradientUnits="userSpaceOnUse" id="color-13"><stop offset="0" stop-color="#2a282c"/><stop offset="1" stop-color="#151515"/></linearGradient><linearGradient x1="239.61298" y1="190.09894" x2="240.23611" y2="190.09894" gradientUnits="userSpaceOnUse" id="color-14"><stop offset="0" stop-color="#2a282c"/><stop offset="1" stop-color="#151515"/></linearGradient><radialGradient cx="237.40753" cy="192.82412" r="6.30652" gradientUnits="userSpaceOnUse" id="color-15"><stop offset="0" stop-color="#989898"/><stop offset="1" stop-color="#717171"/></radialGradient><radialGradient cx="230.52749" cy="175.7694" r="18.1533" gradientUnits="userSpaceOnUse" id="color-16"><stop offset="0" stop-color="#aa91c7"/><stop offset="1" stop-color="#827c94"/></radialGradient><linearGradient x1="221.90364" y1="177.09477" x2="258.09635" y2="177.09477" gradientUnits="userSpaceOnUse" id="color-17"><stop offset="0" stop-color="#272727"/><stop offset="1" stop-color="#101010"/></linearGradient><radialGradient cx="239.93303" cy="166.52848" r="1.32746" gradientUnits="userSpaceOnUse" id="color-18"><stop offset="0" stop-color="#ffffff"/><stop offset="1" stop-color="#8000ff"/></radialGradient><linearGradient x1="241.22025" y1="166.52848" x2="238.6458" y2="166.52848" gradientUnits="userSpaceOnUse" id="color-19"><stop offset="0" stop-color="#f7f0ff"/><stop offset="1" stop-color="#e1cdff"/></linearGradient></defs><g transform="translate(-210.5,-150.14669)"><g data-paper-data="{&quot;isPaintingLayer&quot;:true}" fill-rule="nonzero" stroke-linejoin="miter" stroke-miterlimit="10" stroke-dasharray="" stroke-dashoffset="0" style="mix-blend-mode: normal"><path d="M212,208.35331v-56.70662h56v56.70662z" fill="url(#color-1)" stroke="url(#color-2)" stroke-width="3" stroke-linecap="butt"/><path d="M266.8571,180c0,14.75036 -12.02433,26.70789 -26.8571,26.70789c-14.83277,0 -26.8571,-11.95753 -26.8571,-26.70789c0,-14.75036 12.02433,-26.70789 26.8571,-26.70789c14.83277,0 26.8571,11.95753 26.8571,26.70789z" fill="url(#color-3)" stroke="url(#color-4)" stroke-width="0" stroke-linecap="butt"/><path d="M218.625,202.1875v-44.375h42.75v44.375z" fill="url(#color-5)" stroke="url(#color-6)" stroke-width="2.5" stroke-linecap="butt"/><path d="M215.27327,163.1251v-8.50452h49.29177v8.50452z" fill-opacity="0.53453" fill="#000000" stroke="#a60000" stroke-width="0" stroke-linecap="butt"/><text transform="translate(215.69744,161.43975) scale(0.21352,0.21352)" font-size="40" xml:space="preserve" fill="#ffffff" fill-rule="nonzero" stroke="none" stroke-width="1" stroke-linecap="butt" stroke-linejoin="miter" stroke-miterlimit="10" stroke-dasharray="" stroke-dashoffset="0" font-family="Serif" font-weight="normal" text-anchor="start" style="mix-blend-mode: normal"><tspan x="0" dy="0">Locator Relay</tspan></text><path d="M223.02146,174.10502l-0.13213,-6.33815c0,0 11.15736,1.8109 16.91248,1.8109c5.55697,0 17.17672,-1.65999 17.17672,-1.65999v5.88543c0,0 -1.799,12.32994 -16.77522,11.9176c-15.1071,-0.41594 -17.18184,-11.61578 -17.18184,-11.61578z" fill="url(#color-7)" stroke="url(#color-8)" stroke-width="0.5" stroke-linecap="butt"/><path d="M239.78006,166.7156l-4.27291,15.96488" fill="none" stroke="url(#color-9)" stroke-width="0.5" stroke-linecap="round"/><path d="M240.07553,166.42378l4.42869,16.54693" data-paper-data="{&quot;index&quot;:null}" fill="none" stroke="url(#color-10)" stroke-width="0.5" stroke-linecap="round"/><path d="M239.92454,182.76889v-14.5804" fill="none" stroke="url(#color-11)" stroke-width="0.5" stroke-linecap="round"/><path d="M235.50715,192.69493l4.27291,-5.75475" fill="none" stroke="url(#color-12)" stroke-width="0.5" stroke-linecap="round"/><path d="M244.34845,192.58974l-4.27291,-5.75475" data-paper-data="{&quot;index&quot;:null}" fill="none" stroke="url(#color-13)" stroke-width="0.5" stroke-linecap="round"/><path d="M239.92454,187.4711v5.2557" fill="none" stroke="url(#color-14)" stroke-width="0.5" stroke-linecap="round"/><path d="M233.69349,194.75874v-2.63151h12.61303v2.63151z" fill="url(#color-15)" stroke="#000000" stroke-width="0.5" stroke-linecap="butt"/><path d="M258.09635,167.07196c0,0 -0.10554,4.18413 -0.29263,5.91937c-0.19008,1.76292 -0.83906,4.57643 -0.83906,4.57643c0,0 -0.22792,7.4931 -11.91095,8.84006c-0.68741,0.07925 -2.65692,0.75229 -4.9923,0.74495c-2.09919,-0.00659 -4.57259,-0.68257 -5.34208,-0.80196c-11.29011,-1.75159 -11.57197,-8.78307 -11.57197,-8.78307c0,0 -0.87636,-2.38734 -1.07687,-3.93753c-0.24359,-1.88321 -0.14863,-6.55826 -0.14863,-6.55826c0,0 0.82639,-0.85872 1.50467,0.54961c0.27185,0.56445 1.34695,10.31773 3.62789,12.42461c1.62719,1.50303 7.70538,3.14076 12.86193,3.17294c5.15655,0.03218 11.68489,-1.93042 13.07024,-3.01113c3.16823,-2.4715 3.56559,-11.82335 3.80676,-12.35692c0.5425,-1.20021 1.303,-0.77914 1.303,-0.77914z" data-paper-data="{&quot;index&quot;:null}" fill="url(#color-16)" stroke="url(#color-17)" stroke-width="0.5" stroke-linecap="butt"/><path d="M239.93303,165.24126c0.71091,0 1.28722,0.5763 1.28722,1.28722c0,0.71091 -0.5763,1.28722 -1.28722,1.28722c-0.71091,0 -1.28722,-0.5763 -1.28722,-1.28722c0,-0.71091 0.5763,-1.28722 1.28722,-1.28722z" data-paper-data="{&quot;index&quot;:null}" fill="url(#color-18)" stroke="url(#color-19)" stroke-width="0.25" stroke-linecap="butt"/></g></g></svg>