<svg version="1.1" xmlns="http://www.w3.org/2000/svg" xmlns:xlink="http://www.w3.org/1999/xlink" width="488" height="440.13805" viewBox="0,0,488,440.13805"><defs><radialGradient cx="239.26174" cy="177.80999" r="244" gradientUnits="userSpaceOnUse" id="color-1"><stop offset="0" stop-color="#121212"/><stop offset="1" stop-color="#868686"/></radialGradient><radialGradient cx="240.00003" cy="180.00003" r="173.5" gradientUnits="userSpaceOnUse" id="color-2"><stop offset="0" stop-color="#000000"/><stop offset="1" stop-color="#000000" stop-opacity="0"/></radialGradient><radialGradient cx="237.93825" cy="318.16658" r="116.49049" gradientUnits="userSpaceOnUse" id="color-3"><stop offset="0" stop-color="#33266a"/><stop offset="1" stop-color="#949074"/></radialGradient><linearGradient x1="242.74386" y1="206.70995" x2="247.12422" y2="240.06427" gradientUnits="userSpaceOnUse" id="color-4"><stop offset="0" stop-color="#5fa5c2"/><stop offset="1" stop-color="#7fff7d"/></linearGradient><radialGradient cx="217.12979" cy="96.63086" r="64.41492" gradientUnits="userSpaceOnUse" id="color-5"><stop offset="0" stop-color="#ffa8a8"/><stop offset="1" stop-color="#ffed7d"/></radialGradient><linearGradient x1="243.40106" y1="207.57468" x2="246.81043" y2="241.58807" gradientUnits="userSpaceOnUse" id="color-6"><stop offset="0" stop-color="#694444"/><stop offset="1" stop-color="#98a1b9"/></linearGradient><radialGradient cx="212.09059" cy="97.12187" r="65.45502" gradientUnits="userSpaceOnUse" id="color-7"><stop offset="0" stop-color="#dcdcdc"/><stop offset="1" stop-color="#a0a0a0"/></radialGradient><radialGradient cx="242.42074" cy="125.28469" r="46.28026" gradientUnits="userSpaceOnUse" id="color-8"><stop offset="0" stop-color="#d1ffc4"/><stop offset="1" stop-color="#2188ff"/></radialGradient><radialGradient cx="242.42074" cy="125.28469" r="46.28026" gradientUnits="userSpaceOnUse" id="color-9"><stop offset="0" stop-color="#ceffc4"/><stop offset="1" stop-color="#ff21cc"/></radialGradient><radialGradient cx="242.42074" cy="125.28469" r="46.28026" gradientUnits="userSpaceOnUse" id="color-10"><stop offset="0" stop-color="#ffe9c4"/><stop offset="1" stop-color="#4fff21"/></radialGradient><radialGradient cx="242.42074" cy="125.28469" r="46.28026" gradientUnits="userSpaceOnUse" id="color-11"><stop offset="0" stop-color="#ffe9c4"/><stop offset="1" stop-color="#4fff21"/></radialGradient><radialGradient cx="242.42067" cy="125.28469" r="46.28024" gradientUnits="userSpaceOnUse" id="color-12"><stop offset="0" stop-color="#ffe9c4"/><stop offset="1" stop-color="#ffa321"/></radialGradient><radialGradient cx="242.42062" cy="125.28469" r="46.28024" gradientUnits="userSpaceOnUse" id="color-13"><stop offset="0" stop-color="#c4f0ff"/><stop offset="1" stop-color="#3d21ff"/></radialGradient><radialGradient cx="198.38046" cy="91.68722" r="50.24886" gradientUnits="userSpaceOnUse" id="color-14"><stop offset="0" stop-color="#1c2f30"/><stop offset="1" stop-color="#142913"/></radialGradient><radialGradient cx="281.31471" cy="82.06553" r="13.22632" gradientUnits="userSpaceOnUse" id="color-15"><stop offset="0" stop-color="#786c41"/><stop offset="1" stop-color="#141a29"/></radialGradient><radialGradient cx="225.01194" cy="88.62926" r="20.82216" gradientUnits="userSpaceOnUse" id="color-16"><stop offset="0" stop-color="#7ba676"/><stop offset="1" stop-color="#291616"/></radialGradient></defs><g transform="translate(4.73828,5.19001)"><g data-paper-data="{&quot;isPaintingLayer&quot;:true}" fill-rule="nonzero" stroke-linecap="butt" stroke-linejoin="miter" stroke-miterlimit="10" stroke-dasharray="" stroke-dashoffset="0" style="mix-blend-mode: normal"><path d="M-4.73828,360.80999v-366h488v366z" fill="url(#color-1)" stroke="none" stroke-width="0"/><path d="M413.50001,180.00003c0,97.7544 -77.6786,177 -173.5,177c-95.8214,0 -173.5,-79.2456 -173.5,-177c0,-97.7544 77.6786,-177 173.5,-177c95.8214,0 173.5,79.2456 173.5,177z" fill="url(#color-2)" stroke="none" stroke-width="0"/><path d="M160.25243,434.3654l0.87834,-232.97929l154.49348,0.58264l-0.87834,232.97929z" data-paper-data="{&quot;index&quot;:null}" fill="url(#color-3)" stroke="#ed6b00" stroke-width="0"/><g><path d="M228.48721,242.51183l-4.38035,-33.35423l37.2739,-4.89511l4.38035,33.35423z" fill="url(#color-4)" stroke="#000000" stroke-width="0"/><path d="M302.57782,144.27643c1.15825,37.94343 -26.06368,69.56234 -60.80191,70.62275c-34.73819,1.06041 -63.8381,-28.83915 -64.99636,-66.78266c-1.15825,-37.94348 26.06372,-69.56234 60.80196,-70.62275c34.73815,-1.06041 63.83806,28.83915 64.99631,66.78267z" fill="url(#color-5)" stroke="none" stroke-width="0"/><path d="M234.24017,154.93522c-2.50656,4.56413 -7.13506,2.1034 -7.13506,2.1034c-4.67209,-2.5948 -12.48175,-5.39491 -11.96181,-12.87968c0.42489,-6.11682 10.39255,-11.81263 15.78488,-10.83296c9.78211,1.7772 18.67383,18.83841 3.31207,21.60924z" data-paper-data="{&quot;index&quot;:null}" fill="#0c1a0f" stroke="none" stroke-width="0.5"/><path d="M257.0938,176.41592c0.6539,-2.32212 2.30108,-2.87228 3.52687,-2.93738c0.38889,-0.03601 0.78833,-0.01594 1.18741,0.06639c-1.57584,-5.26582 -0.89405,-12.15203 -2.76053,-17.23739c0,0 -1.37318,-3.81193 2.43876,-5.18519c3.8119,-1.37313 5.18515,2.4388 5.18515,2.4388c2.25503,6.35973 4.01183,14.21829 4.0846,21.08007c0.02731,2.57134 1.45218,6.00343 -0.48065,7.6995c-2.00564,1.75997 -5.33394,-0.17113 -8.00098,-0.25671l-2.37873,-0.66982c-0.49303,-0.13881 -0.93874,-0.36294 -1.32595,-0.65208c-1.01167,-0.69505 -2.12977,-2.02393 -1.47587,-4.34605z" data-paper-data="{&quot;index&quot;:null}" fill="#171d2c" stroke="none" stroke-width="0.5"/><path d="M291.15089,132.11761c7.90861,2.00089 15.22634,20.50137 2.85304,23.36571c-1.98457,4.90829 -5.7402,2.21218 -5.7402,2.21218c-3.79187,-2.84138 -10.11739,-5.93054 -9.76022,-14.00987c0.29187,-6.60261 8.28781,-12.67099 12.64741,-11.56801z" data-paper-data="{&quot;index&quot;:null}" fill="#2a0000" stroke="none" stroke-width="0.5"/></g><g><path d="M227.80514,243.49342l-3.4095,-34.01349l38.0107,-3.81034l3.4095,34.0135z" data-paper-data="{&quot;index&quot;:null}" fill="url(#color-6)" stroke="#000000" stroke-width="0"/><path d="M302.06579,139.39998c3.84689,38.3818 -21.51972,72.35178 -56.65919,75.8741c-35.13958,3.52247 -66.74471,-24.73648 -70.59174,-63.11896c-3.84691,-38.38182 21.51972,-72.35176 56.65943,-75.8741c35.13958,-3.52247 66.74471,24.73648 70.59175,63.11896z" data-paper-data="{&quot;index&quot;:null}" fill="url(#color-7)" stroke="none" stroke-width="0"/><g data-paper-data="{&quot;index&quot;:null}" stroke="#ed6b00" stroke-width="0"><path d="M260.86932,184.61791c-50.38272,5.04201 -56.48536,-25.22017 -57.28332,-43.88724c-0.79759,-18.66691 28.39666,-35.66136 53.9191,-36.86558c25.52243,-1.20419 49.98078,15.98334 50.77852,34.65014c0,0 8.34751,41.08535 -47.41437,46.10229z" data-paper-data="{&quot;index&quot;:null}" fill="url(#color-8)"/><path d="M260.86938,184.61789c-40.14887,4.01783 -52.17924,-14.38294 -55.81386,-31.47002c5.81211,8.69326 15.55373,14.14313 26.31428,13.56008c16.72695,-0.90634 29.58166,-16.04741 28.71183,-33.81853c-0.5796,-11.84186 -7.10705,-21.86341 -16.34739,-26.9643c4.58022,-1.13287 9.2336,-1.84596 13.77087,-2.06004c7.77945,-0.36705 15.46007,0.97466 22.40191,3.54615c4.26084,10.63141 13.71367,18.24822 24.81579,19.45497c2.12816,3.70336 3.38965,7.6421 3.56086,11.64906c0,0 0.338,1.6636 0.4236,4.36217c-2.77921,-0.71528 -5.70078,-1.02186 -8.70156,-0.85924c-16.72694,0.90634 -29.58166,16.04741 -28.71183,33.81853c0.1196,2.44384 0.49257,4.81015 1.09036,7.07167c-3.49686,0.75155 -7.32493,1.33218 -11.51499,1.70915z" data-paper-data="{&quot;index&quot;:null}" fill="url(#color-9)"/><path d="M257.50514,103.86508c8.69201,-0.41009 17.26061,1.31292 24.81319,4.50107c-1.11952,3.46832 -1.69484,7.19492 -1.6228,11.05838c-5.90784,-7.52722 -14.95938,-12.11397 -24.87628,-11.57662c-16.72692,0.90634 -29.58168,16.04743 -28.71185,33.81853c0.58315,11.91396 7.18677,21.98536 16.51649,27.05692c-4.33652,3.84302 -7.63223,8.94081 -9.41481,14.73692c-5.27219,-1.25891 -9.6384,-3.15468 -13.25477,-5.49951c3.73988,-5.67328 5.7912,-12.66689 5.42623,-20.12355c-0.64622,-13.20273 -8.6859,-24.14276 -19.63573,-28.52325c8.15266,-13.69603 30.60177,-24.49773 50.76028,-25.44884z" data-paper-data="{&quot;index&quot;:null}" fill="url(#color-10)"/><path d="M276.81805,164.79232c6.83717,-6.05917 11.08717,-15.23742 10.89849,-25.35397c5.01097,6.38462 12.28377,10.65367 20.42789,11.47473c-1.42715,8.23768 -5.99479,18.82269 -19.088,26.02089c-2.93034,-5.17985 -7.18437,-9.39437 -12.23839,-12.14167z" data-paper-data="{&quot;index&quot;:null}" fill="url(#color-11)"/><path d="M253.53761,161.29124c0.07632,-0.48169 -1.40531,-2.6436 -1.77173,-3.32307c-4.47132,-8.29053 -7.92943,-17.27505 -13.29799,-24.94167c-0.50713,-0.72425 -3.53578,-0.07178 -4.93082,-0.09378c-8.54322,-0.13462 -17.13372,-1.45186 -25.6285,-0.4874c-1.0877,0.12351 -2.1756,0.57925 -3.25187,1.30515c2.32107,-6.68431 8.1836,-12.89243 15.86864,-17.90351c5.90038,7.7243 15.07159,12.45431 25.1337,11.90907c12.98854,-0.70379 23.64232,-9.99054 27.3484,-22.42692c11.74513,2.76701 22.12901,9.06676 28.54107,16.94545c-4.45832,-2.30728 -9.51179,-3.48403 -14.81252,-3.1968c-16.72694,0.90634 -29.58167,16.04741 -28.71183,33.81853c0.2158,4.40881 1.25604,8.56534 2.9538,12.30956c-4.23524,1.79378 -7.9841,4.5679 -11.01247,8.04671c1.84215,-4.66352 3.09204,-8.93022 3.57223,-11.96129z" data-paper-data="{&quot;index&quot;:null}" fill="url(#color-12)"/><path d="M260.86923,184.61798c-50.38272,5.04201 -56.48535,-25.22017 -57.28332,-43.88724c-0.03469,-0.81141 -0.01267,-1.6197 0.06322,-2.42368c0.44501,5.97197 2.77282,12.19071 5.06589,16.58081c0.237,0.45372 0.48514,0.90482 0.74418,1.35316c3.67675,12.98848 14.80893,22.39001 27.88206,22.91938c10.13811,4.2308 21.0787,5.82331 30.22919,3.33061c15.78099,-4.29896 30.01771,-7.13863 28.71183,-33.81853c-0.52907,-10.80932 -8.95318,-20.08124 -16.52148,-27.33472c-4.41177,-4.22824 -12.32357,-0.14178 -17.58169,-3.0802c-2.84105,-5.76892 -7.26919,-10.48686 -12.63747,-13.53372c2.66887,-0.44332 5.33556,-0.73474 7.96333,-0.85869c9.4446,-0.44563 18.74351,1.62732 26.75161,5.36172c0.00422,0.45801 0.01755,0.91802 0.04015,1.37973c0.73425,15.0016 11.01393,27.0819 24.26219,29.9376c0.19721,2.02879 0.33382,5.42247 -0.268,9.45933c-7.58749,5.10079 -12.84838,13.66535 -13.91435,23.49295c-7.15331,5.42213 -17.78061,9.70615 -33.50746,11.12109z" data-paper-data="{&quot;index&quot;:null}" fill="url(#color-13)"/></g><g data-paper-data="{&quot;index&quot;:null}"><path d="M211.76267,92.74977c-0.85095,0.0129 -3.04157,0.08058 -5.42243,0.30848c-2.67477,0.83525 -5.78525,1.65156 -8.19242,2.61989c-1.77493,4.3324 3.234,9.28695 -4.18879,12.06816c-12.66027,4.7421 -7.77104,-10.7915 -3.32042,-15.44787c6.7396,-5.026 16.10809,-4.97981 24.24545,-5.91215c11.20862,-1.28396 22.22206,-3.73576 33.19521,-3.57431c0.44319,-0.39799 1.02648,-0.64285 1.66833,-0.65203l2.93622,-0.04163c1.49908,-0.27512 3.12635,-0.557 4.83281,-0.81003c4.46346,-1.03204 9.76424,-1.34279 14.68745,-1.43148c2.43298,-0.289 4.69616,-0.33947 6.54082,-0.03148c1.37012,0.00248 2.64489,0.00408 3.78451,-0.01277l3.09507,-0.04436c1.40963,-0.02006 2.56853,1.1058 2.58902,2.51609c0.01772,1.2549 -0.87237,2.31088 -2.06189,2.54263l-1.6773,0.36116c0.67516,0.66097 1.27743,1.40398 1.79447,2.23604l1.20977,-0.50484l1.26003,3.02407c0.1355,0.30552 0.21345,0.6431 0.21884,0.99873c0.02006,1.40963 -1.1058,2.56854 -2.51608,2.58904c-0.42846,0.00628 -0.8351,-0.09349 -1.19201,-0.27523l-2.44743,-1.18034l0.03494,-0.07199l-0.23657,-0.03666c-1.71683,-1.2499 -3.48615,-2.22871 -5.27378,-2.93559c-2.7761,-0.31079 -5.68091,-0.83751 -8.64712,-1.30728c-5.11405,0.48544 -9.92222,3.2629 -13.59421,8.33155c0,0 -1.50232,2.06375 -3.56626,0.56174c-2.06376,-1.50232 -0.56174,-3.56627 -0.56174,-3.56627c0.32119,-0.43916 0.65055,-0.86572 0.98786,-1.27783l-1.44694,0.34319c-0.19362,0.04993 -0.39735,0.07846 -0.60635,0.0817c-1.40963,0.02006 -2.56853,-1.1058 -2.58902,-2.51609c-0.01028,-0.71363 0.2729,-1.36271 0.73843,-1.83282c-1.2199,-0.09025 -2.37635,-0.1108 -3.37422,0.05652c-6.96975,1.16914 -17.52283,0.93273 -27.55311,1.7029c-0.03511,1.20406 -0.90753,2.20473 -2.06143,2.42917l-3.04022,0.65381l-0.02113,-0.09839l-0.03796,0.00685z" fill="url(#color-14)" stroke="none" stroke-width="0.5"/><path d="M288.26721,79.88165c13.58507,-0.39154 13.4532,-0.19827 13.83178,8.98844c0.37879,9.18636 -5.15876,16.43105 -12.36753,16.18101c-7.20884,-0.25044 -13.35958,-7.90164 -13.73808,-17.08821c-0.37882,-9.18638 -0.46518,-7.71392 12.2741,-8.08146z" data-paper-data="{&quot;index&quot;:null}" fill="url(#color-15)" stroke="#000000" stroke-width="0"/><path d="M254.31952,90.72223c1.02766,10.04289 -7.32697,19.12438 -18.66069,20.28322c-11.33348,1.15982 -21.35429,-6.04162 -22.38151,-16.0842c-1.02767,-10.04291 -1.26996,-10.2375 20.24053,-11.48238c20.17106,-1.16768 19.77343,-2.75967 20.80136,7.28329z" fill="url(#color-16)" stroke="#000000" stroke-width="0"/></g></g><path d="M378.27342,285.02504c0,0 -3.00539,-15.30268 -11.91985,-31.07073c-2.14367,-3.79206 -21.31654,-39.50523 -23.55428,-43.37957c-8.18769,-14.082 19.27273,-25.09334 28.03405,-7.59042c1.88367,3.75652 14.41827,39.33767 18.51217,49.65493c6.81581,17.17768 12.62713,26.87236 12.62713,26.87236z" data-paper-data="{&quot;index&quot;:null}" fill="#a3bda9" stroke="#000000" stroke-width="0"/><path d="M358.29931,225.12631c-12.71791,5.78641 -28.98972,12.77367 -28.98972,12.77367c0,0 -32.20105,12.95195 -34.97951,8.43075c-16.25095,-26.44115 22.15295,-34.03087 22.15295,-34.03087c0,0 24.4594,-11.10351 37.98108,-17.25625c8.44799,-3.07663 15.74746,24.18884 3.8352,30.08268z" data-paper-data="{&quot;index&quot;:null}" fill="#a3bda9" stroke="#000000" stroke-width="0"/><path d="M402.82526,279.84492c-1.04259,0.265 6.80723,17.96904 2.50323,19.41653c-2.11711,0.71198 -4.65011,-11.69746 -9.05324,-14.61853c-2.33116,-1.54652 9.58444,19.98008 3.218,19.74865c-2.1851,-0.07941 -7.12147,-17.14792 -10.62042,-20.34655c-1.87296,-1.7121 9.90073,25.06963 5.71883,25.13969c-2.48286,0.04173 -6.13754,-15.82656 -10.21382,-22.03906c-1.9853,-3.02657 5.32914,19.27228 2.08736,18.7177c-1.98438,-0.33954 -10.1919,-21.74983 -10.46337,-21.92419c-1.52554,-0.97772 -0.05174,13.32488 -2.51911,10.6808c-4.54773,-4.8729 -2.68925,-13.44825 -1.62468,-21.24057c0.6223,-4.55246 -1.38341,-10.30644 -1.38341,-10.30644c0,0 6.8659,-5.21503 10.86672,-6.14627c3.89551,-0.90614 12.83176,0.63258 12.83176,0.63258c0,0 10.86005,21.72327 8.65093,22.28404z" data-paper-data="{&quot;index&quot;:null}" fill="#6c7378" stroke="#000000" stroke-width="0"/><g data-paper-data="{&quot;index&quot;:null}" stroke-width="0"><path d="M294.72218,399.95803c0,0 -9.41683,2.60817 -16.34674,1.57997c-5.9661,-0.88459 -9.1066,-5.42662 -14.25718,-5.43791c-2.55107,-0.00579 -9.51747,2.51646 -13.12708,2.62171c-4.77536,0.13895 -13.44016,3.86856 -18.41287,3.1592c-6.2213,-0.88678 -8.81206,-6.26697 -15.41093,-6.17634c-14.53055,0.1995 -28.8,4.01986 -28.8,4.01986c0,0 1.11399,-29.81294 -0.1972,-53.79c-1.27161,-23.26373 -4.96149,-40.46454 -5.51716,-56.1754c-0.62782,-17.75666 -0.48394,-65.32681 -0.48394,-65.32681c0,0 21.72426,-2.12502 32.11946,0.2511c9.85177,2.2524 28.70899,13.65354 28.70899,13.65354c0,0 24.60665,-11.7285 36.30975,-14.01141c9.19337,-1.79373 28.21364,1.42453 28.21364,1.42453c0,0 -0.03925,44.90658 -1.81256,69.04977c-0.94465,12.86311 -6.55024,29.8405 -8.57149,48.70113c-2.97476,27.75704 -2.41381,56.45789 -2.41381,56.45789z" fill="#d1b0b0" stroke="#292e32"/><path d="M189.60606,278.45894l0.28277,-26.90828l39.44353,-1.46317l-0.94123,30.03037z" fill="#f200ff" stroke="none"/><path d="M228.79551,267.217c-5.70093,-4.93481 -13.09998,-7.9728 -21.22859,-8.11176c-1.96355,-0.03357 -3.8903,0.10339 -5.76618,0.39718c2.72632,-2.47342 5.04269,-5.39345 6.83222,-8.64713l20.69945,-0.76782z" fill="#eeff00" stroke="none"/><path d="M195.92786,278.72931c1.21163,-3.35948 1.89967,-6.97254 1.96412,-10.74253c0.10265,-6.00583 -1.38994,-11.66769 -4.08716,-16.5814l25.87009,-0.95964c-8.94377,6.68024 -14.50435,17.50653 -14.20686,28.69167z" fill="#00ff5f" stroke="none"/><path d="M195.64869,278.71733c-0.60408,-2.00222 -1.3918,-3.92601 -2.34383,-5.75142c4.8529,-1.47712 9.24257,-4.03358 12.88397,-7.39396c3.87495,6.54599 9.92914,11.66143 17.18158,14.33114l-27.72174,-1.18576z" fill="#004fff" stroke="none"/><path d="M220.8377,279.79473c1.71925,-3.92352 2.70575,-8.24577 2.78355,-12.79665c0.10243,-5.99217 -1.38316,-11.64197 -4.06879,-16.54786l9.78,-0.36276l-0.94123,30.03043z" fill="#ff0000" stroke="none"/><path d="M189.77481,262.40879c3.26643,4.14278 7.49704,7.49525 12.36035,9.71437c0.38161,2.41201 1.02256,4.73956 1.8939,6.95266l-14.42288,-0.61693l0.16865,-16.05015z" fill="#00efff" stroke="none"/><path d="M207.37063,250.90214c-9.65968,5.51866 -16.31304,15.73888 -16.79144,27.59837l-0.97301,-0.04163l0.28275,-26.90829z" fill="#9c00ff" stroke="none"/></g><path d="M75.22536,264.36108c0,0 7.45107,-8.88235 16.43378,-25.4161c5.39514,-9.93069 20.53847,-42.11658 22.97918,-45.64317c9.06771,-13.46737 42.37718,1.07539 31.95178,15.12368c-2.87442,3.56904 -24.35565,33.65724 -27.11353,37.1609c-11.46811,14.56909 -15.75253,29.99994 -15.75253,29.99994z" fill="#b8bda6" stroke="#000000" stroke-width="0"/><path d="M71.10982,270.72986c-2.65595,-1.08893 11.36877,-21.52068 11.36877,-21.52068c0,0 10.89834,0.39549 15.58762,2.22983c4.81626,1.88322 12.93811,8.92621 12.93811,8.92621c0,0 -2.65857,5.60849 -2.08231,10.54524c0.98548,8.44837 2.90113,17.90077 -2.80587,22.00724c-3.09666,2.22847 -0.74619,-12.50493 -2.63568,-11.81946c-0.33623,0.12183 -11.13237,20.82323 -13.55197,20.73263c-3.95323,-0.14816 5.79511,-21.98564 3.26748,-19.24595c-5.18749,5.62407 -10.24452,21.51416 -13.254,20.9103c-5.06947,-1.01781 10.26332,-26.57117 7.92456,-25.19045c-4.36887,2.57986 -11.02709,19.44486 -13.68056,19.03538c-7.73002,-1.19271 7.56778,-21.17913 4.67943,-20.07645c-5.45584,2.08255 -9.01535,14.58309 -11.55514,13.35506c-5.16362,-2.49663 5.05356,-19.37394 3.79953,-19.88833z" data-paper-data="{&quot;index&quot;:null}" fill="#786274" stroke="#000000" stroke-width="0"/><path d="M133.60703,188.71385c13.41655,7.12569 36.33936,19.07212 36.33936,19.07212c0,0 40.68419,9.23851 20.43147,44.00036c-3.23331,5.54968 -36.53694,-11.79813 -36.53694,-11.79813c0,0 -16.19053,-8.05786 -28.80958,-14.76051c-14.1603,-7.72358 -4.96264,-42.45459 8.57567,-36.51385z" fill="#b8bda6" stroke="#000000" stroke-width="0"/></g></g></svg>