<svg version="1.1" xmlns="http://www.w3.org/2000/svg" xmlns:xlink="http://www.w3.org/1999/xlink" width="59" height="59.70662" viewBox="0,0,59,59.70662"><defs><linearGradient x1="270" y1="151.64669" x2="270" y2="208.35331" gradientUnits="userSpaceOnUse" id="color-1"><stop offset="0" stop-color="#191919"/><stop offset="1" stop-color="#050505"/></linearGradient><linearGradient x1="270" y1="151.64669" x2="270" y2="208.35331" gradientUnits="userSpaceOnUse" id="color-2"><stop offset="0" stop-color="#cccccc"/><stop offset="1" stop-color="#898989"/></linearGradient><radialGradient cx="270" cy="180" r="26.8571" gradientUnits="userSpaceOnUse" id="color-3"><stop offset="0" stop-color="#ffffff" stop-opacity="0.35484"/><stop offset="1" stop-color="#ffffff" stop-opacity="0"/></radialGradient><linearGradient x1="270" y1="153.2921" x2="270" y2="206.70789" gradientUnits="userSpaceOnUse" id="color-4"><stop offset="0" stop-color="#cccccc"/><stop offset="1" stop-color="#898989"/></linearGradient><radialGradient cx="270" cy="184.28571" r="22.69239" gradientUnits="userSpaceOnUse" id="color-5"><stop offset="0" stop-color="#ffb0b0" stop-opacity="0.59608"/><stop offset="1" stop-color="#ffb0b0" stop-opacity="0"/></radialGradient><linearGradient x1="270" y1="162.88719" x2="270" y2="205.68423" gradientUnits="userSpaceOnUse" id="color-6"><stop offset="0" stop-color="#272727"/><stop offset="1" stop-color="#2c2c2c"/></linearGradient><linearGradient x1="250.38163" y1="184.01712" x2="290.00706" y2="184.01712" gradientUnits="userSpaceOnUse" id="color-7"><stop offset="0" stop-color="#6e2a00"/><stop offset="1" stop-color="#2f0047"/></linearGradient><linearGradient x1="250.38163" y1="184.01712" x2="290.00706" y2="184.01712" gradientUnits="userSpaceOnUse" id="color-8"><stop offset="0" stop-color="#160000"/><stop offset="1" stop-color="#000000"/></linearGradient><linearGradient x1="248.08038" y1="196.45529" x2="291.91961" y2="196.45529" gradientUnits="userSpaceOnUse" id="color-9"><stop offset="0" stop-color="#944f00"/><stop offset="1" stop-color="#56006b"/></linearGradient><linearGradient x1="248.08038" y1="196.45529" x2="291.91961" y2="196.45529" gradientUnits="userSpaceOnUse" id="color-10"><stop offset="0" stop-color="#160000"/><stop offset="1" stop-color="#000000"/></linearGradient><linearGradient x1="253.47045" y1="183.51912" x2="254.87723" y2="183.51912" gradientUnits="userSpaceOnUse" id="color-11"><stop offset="0" stop-color="#8a5000"/><stop offset="1" stop-color="#51006b"/></linearGradient><linearGradient x1="257.42699" y1="183.51911" x2="258.83377" y2="183.51911" gradientUnits="userSpaceOnUse" id="color-12"><stop offset="0" stop-color="#8a5000"/><stop offset="1" stop-color="#51006b"/></linearGradient><linearGradient x1="261.38353" y1="183.51911" x2="262.79031" y2="183.51911" gradientUnits="userSpaceOnUse" id="color-13"><stop offset="0" stop-color="#8a5000"/><stop offset="1" stop-color="#51006b"/></linearGradient><linearGradient x1="265.34007" y1="183.51912" x2="266.74685" y2="183.51912" gradientUnits="userSpaceOnUse" id="color-14"><stop offset="0" stop-color="#8a5000"/><stop offset="1" stop-color="#51006b"/></linearGradient><linearGradient x1="269.29661" y1="183.51911" x2="270.70339" y2="183.51911" gradientUnits="userSpaceOnUse" id="color-15"><stop offset="0" stop-color="#8a5000"/><stop offset="1" stop-color="#51006b"/></linearGradient><linearGradient x1="273.25315" y1="183.51911" x2="274.65993" y2="183.51911" gradientUnits="userSpaceOnUse" id="color-16"><stop offset="0" stop-color="#8a5000"/><stop offset="1" stop-color="#51006b"/></linearGradient><linearGradient x1="277.20969" y1="183.51912" x2="278.61646" y2="183.51912" gradientUnits="userSpaceOnUse" id="color-17"><stop offset="0" stop-color="#8a5000"/><stop offset="1" stop-color="#51006b"/></linearGradient><linearGradient x1="281.16623" y1="183.51911" x2="282.57301" y2="183.51911" gradientUnits="userSpaceOnUse" id="color-18"><stop offset="0" stop-color="#8a5000"/><stop offset="1" stop-color="#51006b"/></linearGradient><linearGradient x1="285.12276" y1="183.51911" x2="286.52954" y2="183.51911" gradientUnits="userSpaceOnUse" id="color-19"><stop offset="0" stop-color="#8a5000"/><stop offset="1" stop-color="#51006b"/></linearGradient><linearGradient x1="248.08038" y1="171.78075" x2="291.91961" y2="171.78075" gradientUnits="userSpaceOnUse" id="color-20"><stop offset="0" stop-color="#944f00"/><stop offset="1" stop-color="#56006b"/></linearGradient><linearGradient x1="248.08038" y1="171.78075" x2="291.91961" y2="171.78075" gradientUnits="userSpaceOnUse" id="color-21"><stop offset="0" stop-color="#160000"/><stop offset="1" stop-color="#000000"/></linearGradient><linearGradient x1="289.06088" y1="184.2857" x2="292.09529" y2="184.2857" gradientUnits="userSpaceOnUse" id="color-22"><stop offset="0" stop-color="#ff8400"/><stop offset="1" stop-color="#4100ca"/></linearGradient><linearGradient x1="289.06088" y1="184.28572" x2="292.09529" y2="184.28572" gradientUnits="userSpaceOnUse" id="color-23"><stop offset="0" stop-color="#160000"/><stop offset="1" stop-color="#000000"/></linearGradient><linearGradient x1="247.90471" y1="184.2857" x2="250.93912" y2="184.2857" gradientUnits="userSpaceOnUse" id="color-24"><stop offset="0" stop-color="#ff8400"/><stop offset="1" stop-color="#4100ca"/></linearGradient><linearGradient x1="247.90471" y1="184.2857" x2="250.93912" y2="184.2857" gradientUnits="userSpaceOnUse" id="color-25"><stop offset="0" stop-color="#160000"/><stop offset="1" stop-color="#000000"/></linearGradient><linearGradient x1="267.30967" y1="184" x2="272.49033" y2="184" gradientUnits="userSpaceOnUse" id="color-26"><stop offset="0" stop-color="#58a66c"/><stop offset="1" stop-color="#a45aa9"/></linearGradient><linearGradient x1="267.30967" y1="184" x2="272.49033" y2="184" gradientUnits="userSpaceOnUse" id="color-27"><stop offset="0" stop-color="#2f2f2f"/><stop offset="1" stop-color="#252525"/></linearGradient><linearGradient x1="261.18333" y1="184.16447" x2="278.61667" y2="184.16447" gradientUnits="userSpaceOnUse" id="color-28"><stop offset="0" stop-color="#00ff24"/><stop offset="1" stop-color="#ff00f3"/></linearGradient><linearGradient x1="269.9" y1="181.57414" x2="269.9" y2="186.75481" gradientUnits="userSpaceOnUse" id="color-29"><stop offset="0" stop-color="#2f2f2f"/><stop offset="1" stop-color="#252525"/></linearGradient></defs><g transform="translate(-240.5,-150.14669)"><g data-paper-data="{&quot;isPaintingLayer&quot;:true}" fill-rule="nonzero" stroke-linecap="butt" stroke-linejoin="miter" stroke-miterlimit="10" stroke-dasharray="" stroke-dashoffset="0" style="mix-blend-mode: normal"><path d="M242,208.35331v-56.70662h56v56.70662z" fill="url(#color-1)" stroke="url(#color-2)" stroke-width="3"/><path d="M296.8571,180c0,14.75036 -12.02433,26.70789 -26.8571,26.70789c-14.83277,0 -26.8571,-11.95753 -26.8571,-26.70789c0,-14.75036 12.02433,-26.70789 26.8571,-26.70789c14.83277,0 26.8571,11.95753 26.8571,26.70789z" fill="url(#color-3)" stroke="url(#color-4)" stroke-width="0"/><path d="M292.69239,184.28571c0,11.81808 -10.15973,21.39852 -22.69239,21.39852c-12.53266,0 -22.69239,-9.58044 -22.69239,-21.39852c0,-11.81808 10.15973,-21.39852 22.69239,-21.39852c12.53266,0 22.69239,9.58044 22.69239,21.39852z" fill="url(#color-5)" stroke="url(#color-6)" stroke-width="0"/><path d="M250.38163,196.2281v-24.42194h39.62544v24.42194z" fill="url(#color-7)" stroke="url(#color-8)" stroke-width="1"/><path d="M248.08038,197.71697v-2.52335h43.83922v2.52335z" fill="url(#color-9)" stroke="url(#color-10)" stroke-width="0.35"/><path d="M253.47045,195.01794v-22.99763h1.40677v22.99763z" fill="url(#color-11)" stroke="none" stroke-width="0"/><path d="M257.42699,195.01793v-22.99763h1.40677v22.99763z" fill="url(#color-12)" stroke="none" stroke-width="0"/><path d="M261.38353,195.01793v-22.99763h1.40677v22.99763z" fill="url(#color-13)" stroke="none" stroke-width="0"/><path d="M265.34007,195.01794v-22.99763h1.40677v22.99763z" fill="url(#color-14)" stroke="none" stroke-width="0"/><path d="M269.29661,195.01793v-22.99763h1.40677v22.99763z" fill="url(#color-15)" stroke="none" stroke-width="0"/><path d="M273.25315,195.01793v-22.99763h1.40677v22.99763z" fill="url(#color-16)" stroke="none" stroke-width="0"/><path d="M277.20969,195.01794v-22.99763h1.40677v22.99763z" fill="url(#color-17)" stroke="none" stroke-width="0"/><path d="M281.16623,195.01793v-22.99763h1.40677v22.99763z" fill="url(#color-18)" stroke="none" stroke-width="0"/><path d="M285.12276,195.01793v-22.99763h1.40677v22.99763z" fill="url(#color-19)" stroke="none" stroke-width="0"/><path d="M248.08038,172.6059v-1.6503h43.83922v1.6503z" fill="url(#color-20)" stroke="url(#color-21)" stroke-width="0.35"/><path d="M289.06088,197.90062v-27.22983h3.03441v27.22983z" fill="url(#color-22)" stroke="url(#color-23)" stroke-width="0.5"/><path d="M247.90471,197.90062v-27.22983h3.03441v27.22983z" fill="url(#color-24)" stroke="url(#color-25)" stroke-width="0.5"/><path d="M245.27327,163.339v-8.69862h44.60286v8.69862z" fill-opacity="0.53453" fill="#000000" stroke="#a60000" stroke-width="0"/><text transform="translate(245.70712,161.61518) scale(0.21839,0.21839)" font-size="40" xml:space="preserve" fill="#ffffff" fill-rule="nonzero" stroke="none" stroke-width="1" stroke-linecap="butt" stroke-linejoin="miter" stroke-miterlimit="10" stroke-dasharray="" stroke-dashoffset="0" font-family="Serif" font-weight="normal" text-anchor="start" style="mix-blend-mode: normal"><tspan x="0" dy="0">Magic Crate</tspan></text><path d="M267.30967,192.71667v-17.43334h5.18066v17.43334z" fill="url(#color-26)" stroke="url(#color-27)" stroke-width="0"/><path d="M261.18333,181.57414h17.43333v5.18067h-17.43333z" fill="url(#color-28)" stroke="url(#color-29)" stroke-width="0"/></g></g></svg>