<svg version="1.1" xmlns="http://www.w3.org/2000/svg" xmlns:xlink="http://www.w3.org/1999/xlink" width="34.77889" height="104.94583" viewBox="0,0,34.77889,104.94583"><defs><radialGradient cx="235.52448" cy="177.50476" r="21.06357" gradientUnits="userSpaceOnUse" id="color-1"><stop offset="0" stop-color="#353535"/><stop offset="1" stop-color="#8c8c8c"/></radialGradient><linearGradient x1="239.74787" y1="156.06832" x2="239.74787" y2="162.91937" gradientUnits="userSpaceOnUse" id="color-2"><stop offset="0" stop-color="#696969"/><stop offset="1" stop-color="#a0a0a0"/></linearGradient><radialGradient cx="235.71182" cy="133.41612" r="13.11833" gradientUnits="userSpaceOnUse" id="color-3"><stop offset="0" stop-color="#dcdcdc"/><stop offset="1" stop-color="#a0a0a0"/></radialGradient><radialGradient cx="242.43512" cy="138.9174" r="8.83664" gradientUnits="userSpaceOnUse" id="color-4"><stop offset="0" stop-color="#ffc4c4"/><stop offset="1" stop-color="#ff2121"/></radialGradient></defs><g transform="translate(-221.55679,-129.64767)"><g data-paper-data="{&quot;isPaintingLayer&quot;:true}" fill-rule="nonzero" stroke-linejoin="miter" stroke-miterlimit="10" stroke-dasharray="" stroke-dashoffset="0" style="mix-blend-mode: normal"><path d="M221.55679,200.07636v-45.14319h27.93538v45.14319z" fill="url(#color-1)" stroke="#ed6b00" stroke-width="0" stroke-linecap="butt"/><g><path d="M241.4315,226.52434c0,0 0.88914,-25.78471 0.4243,-30.25018c-0.02981,-0.28639 -2.10567,-1.10416 -3.36047,-2.15239c-1.53211,-1.2799 -2.21925,-2.82041 -1.19855,-3.12023c1.86184,-0.54689 11.9299,2.45292 11.9299,2.45292l0.16282,33.91863z" data-paper-data="{&quot;index&quot;:null}" fill="#494949" stroke="#000000" stroke-width="0" stroke-linecap="butt"/><path d="M254.92418,234.59055c-0.58942,-0.06286 -2.63065,-0.26684 -4.67074,-0.56543c-1.24032,-0.18153 -1.82591,-0.81603 -2.73887,-1.05705c-1.14937,-0.30342 -2.94535,-0.09241 -3.76949,-0.37291c-1.5186,-0.51685 -2.27875,-1.02527 -2.27875,-1.02527c0,0 -0.15885,-1.04816 -0.11581,-1.60715c0.05799,-0.75311 0.43246,-2.50528 0.43246,-2.50528c0,0 5.91346,0.51044 8.19405,0.95514c1.34949,0.26314 4.14806,1.09287 4.14806,1.09287c0,0 1.38624,0.76694 1.55334,1.21441c0.20465,0.54804 0.65725,2.07003 0.65725,2.07003c0,0 -0.58928,1.8883 -1.41151,1.80061z" data-paper-data="{&quot;index&quot;:null}" fill="#141415" stroke="#000000" stroke-width="0" stroke-linecap="butt"/><path d="M254.92789,232.00153c-0.24682,-0.02632 0.52858,1.66711 -2.74472,1.04794c-3.09105,-0.58469 -2.63481,-1.47598 -3.72445,-1.67325c-2.27847,-0.4125 -2.63616,0.31725 -3.61397,0.05911c-0.34054,-0.0899 -0.49767,-0.16827 -1.67162,-1.15414c-0.80737,-0.67802 -0.47619,-1.81194 -1.00595,-2.50008c-0.77385,-1.00519 -0.60392,-1.96091 -0.60392,-1.96091l0.24728,-3.03864c0,0 0.24957,2.24594 0.99635,3.15468c0.66816,0.81306 2.30582,0.22707 2.78679,0.27822c0.84221,0.08958 -0.33838,-3.32266 0.46488,-3.21865c0.43192,0.05593 3.72658,0.16204 3.72658,0.16204c0,0 -0.25733,3.57275 -0.02782,3.6175c1.34949,0.26314 4.50978,1.13145 4.50978,1.13145c0,0 1.38624,0.76694 1.55335,1.21441c0.20465,0.54804 0.31321,3.00892 0.31321,3.00892c0,0 -0.38352,-0.0409 -1.20576,-0.1286z" data-paper-data="{&quot;index&quot;:null}" fill="#252527" stroke="#000000" stroke-width="0" stroke-linecap="butt"/><path d="M250.57995,227.48502l-2.76839,0.80226" fill="none" stroke="#ffffff" stroke-width="0.5" stroke-linecap="round"/><path d="M249.70219,228.85477l2.68641,-1.17685" fill="none" stroke="#ffffff" stroke-width="0.5" stroke-linecap="round"/><path d="M251.84683,229.32739l1.60123,-1.29259" fill="none" stroke="#ffffff" stroke-width="0.5" stroke-linecap="round"/><path d="M249.21339,224.2906l-2.19607,0.00968" fill="none" stroke="#969696" stroke-width="0.5" stroke-linecap="round"/><path d="M247.40961,225.19574l1.96779,-0.15597" fill="none" stroke="#969696" stroke-width="0.5" stroke-linecap="round"/></g><g><path d="M231.61994,228.4145l-2.01106,-33.85935c0,0 9.85513,-3.63882 11.74819,-3.21236c1.03781,0.23379 0.45081,1.81518 -0.99614,3.19062c-1.18506,1.12649 -3.20424,2.0756 -3.21563,2.36331c-0.17773,4.48608 2.36189,30.16081 2.36189,30.16081z" fill="#494949" stroke="#000000" stroke-width="0" stroke-linecap="butt"/><path d="M246.27434,231.02431c0,0 -0.01415,1.97109 -0.74975,2.09765c-0.52731,0.09072 -2.34985,0.41814 -4.19627,0.65407c-1.12257,0.14344 -1.79686,-0.31773 -2.6514,-0.31565c-1.07581,0.00262 -2.57668,0.66701 -3.36462,0.60825c-1.4519,-0.10827 -2.24432,-0.40311 -2.24432,-0.40311c0,0 -0.41326,-0.96936 -0.52295,-1.51913c-0.14777,-0.74067 -0.28398,-2.52543 -0.28398,-2.52543c0,0 5.25872,-1.02606 7.35198,-1.18293c1.23865,-0.09282 3.88201,-0.01158 3.88201,-0.01158c0,0 1.40294,0.38328 1.66543,0.77162c0.32145,0.47563 1.11384,1.82625 1.11384,1.82625z" data-paper-data="{&quot;index&quot;:null}" fill="#141415" stroke="#000000" stroke-width="0" stroke-linecap="butt"/><path d="M245.92575,230.44032c0,0 -0.3431,0.05903 -1.0787,0.18559c-0.22083,0.03799 0.89641,1.47096 -2.10299,1.7145c-2.83241,0.22999 -2.67138,-0.74609 -3.66752,-0.65649c-2.08294,0.18734 -2.20103,0.98245 -3.11628,0.98467c-0.31873,0.00077 -0.47552,-0.03441 -1.75205,-0.68317c-0.87793,-0.44617 -0.88909,-1.62399 -1.52912,-2.15118c-0.93493,-0.77009 -1.03895,-1.73476 -1.03895,-1.73476l-0.5847,-2.99191c0,0 0.80683,2.10043 1.69292,2.78451c0.79279,0.61205 2.05789,-0.37308 2.48814,-0.44724c0.7534,-0.12986 -1.1669,-3.1153 -0.44345,-3.22126c0.38899,-0.05697 3.272,-0.80045 3.272,-0.80045c0,0 0.71641,3.50922 0.92708,3.49343c1.23863,-0.09282 4.2056,-0.06725 4.2056,-0.06725c0,0 1.40294,0.38328 1.66543,0.77162c0.32146,0.47563 1.06259,2.81939 1.06259,2.81939z" data-paper-data="{&quot;index&quot;:null}" fill="#252527" stroke="#000000" stroke-width="0" stroke-linecap="butt"/><path d="M237.70351,228.87313l2.18811,-1.48383" fill="none" stroke="#ffffff" stroke-width="0.5" stroke-linecap="round"/><path d="M241.50966,227.11094l-2.01856,1.82377" fill="none" stroke="#ffffff" stroke-width="0.5" stroke-linecap="round"/><path d="M241.4739,228.83966l1.04773,-1.65676" fill="none" stroke="#ffffff" stroke-width="0.5" stroke-linecap="round"/><path d="M235.96689,225.23461l1.90055,-0.57306" fill="none" stroke="#969696" stroke-width="0.5" stroke-linecap="round"/><path d="M238.20653,225.34145l-1.66423,0.65545" fill="none" stroke="#969696" stroke-width="0.5" stroke-linecap="round"/></g><g stroke="#000000" stroke-width="0" stroke-linecap="butt"><path d="M251.20625,189.20606c0,0 0.57443,-2.96575 0.1321,-6.44684c-0.10636,-0.83711 -0.27963,-3.5905 -0.39663,-4.44927c-0.27689,-2.03249 -0.61768,-4.03745 -0.7595,-5.28801c-0.30503,-2.68974 -0.61918,-6.10615 -0.61918,-6.10615c0,0 -0.46187,-6.70885 0.52813,-6.95156c5.78989,-1.41947 4.90577,6.11318 4.90577,6.11318c0,0 0.52152,4.87122 0.84584,7.73094c0.13199,1.16383 -0.32112,2.10659 -0.18128,3.91753c0.06268,0.81179 -0.12077,4.32711 -0.14054,6.4777c-0.03293,3.58065 0.29774,5.74511 0.29774,5.74511z" data-paper-data="{&quot;index&quot;:null}" fill="#bdbdbd"/><path d="M255.76928,194.4745c-0.2045,-0.02867 -0.09176,3.72208 -0.96182,3.66732c-0.42794,-0.02694 0.02089,-2.43899 -0.55032,-3.28494c-0.30235,-0.44779 0.25616,4.28597 -0.85874,3.77914c-0.38276,-0.17401 -0.02361,-3.59772 -0.41382,-4.42735c-0.20888,-0.44412 -0.05621,5.22232 -0.80478,4.92927c-0.44437,-0.17395 0.05554,-3.28868 -0.21892,-4.7014c-0.13371,-0.68824 -0.44896,3.84788 -0.98512,3.51159c-0.32819,-0.20586 -0.23597,-4.64792 -0.27163,-4.69899c-0.20043,-0.28702 -0.97462,2.38738 -1.2217,1.73258c-0.45538,-1.20679 0.49624,-2.60989 1.25013,-3.93037c0.44047,-0.77151 0.50091,-1.95063 0.50091,-1.95063c0,0 1.59842,-0.43405 2.37714,-0.30868c0.75821,0.12207 2.23531,1.0513 2.23531,1.0513c0,0 0.35661,4.6919 -0.07662,4.63116z" data-paper-data="{&quot;index&quot;:null}" fill="#5c4747"/></g><g stroke-width="0" stroke-linecap="butt"><path d="M235.91979,162.91937v-6.85104h7.65615v6.85104z" fill="url(#color-2)" stroke="#000000"/><path d="M252.80944,143.64573c0,7.73092 -5.73774,13.99807 -12.8156,13.99807c-7.07786,0 -12.8156,-6.26715 -12.8156,-13.99807c0,-7.73092 5.73774,-13.99806 12.8156,-13.99806c7.07786,0 12.8156,6.26714 12.8156,13.99806z" fill="url(#color-3)" stroke="none"/><path d="M253.91261,142.47429c0,4.88691 0.03443,10.71868 -8.60517,11.34206c-9.65195,0.69642 -9.06107,-6.45514 -9.06107,-11.34206c0,-4.88691 3.95473,-8.84854 8.83313,-8.84854c4.8784,0 8.83313,3.96163 8.83313,8.84854z" data-paper-data="{&quot;index&quot;:null}" fill="url(#color-4)" stroke="#ed6b00"/></g><g stroke-width="0" stroke-linecap="butt"><path d="M229.63979,193.59141c0,0 0.16709,-5.5597 -0.35268,-10.94382c-0.35317,-3.65847 -1.40473,-6.95919 -1.56162,-9.45339c-0.29447,-4.68133 -0.2105,-13.38223 -0.2105,-13.38223c0,0 3.69178,-0.58477 5.4694,-0.21857c2.26281,0.46615 7.00656,2.78867 7.00656,2.78867c0,0 3.67689,-2.17061 5.59031,-2.58687c2.01891,-0.43921 6.22369,0.01677 6.22369,0.01677c0,0 -0.06905,9.21711 -0.22689,12.65629c-0.13965,3.04285 -0.88957,6.36811 -1.18346,10.87293c-0.3029,4.64296 -0.14784,10.42155 -0.14784,10.42155c0,0 -2.75697,-0.76932 -5.57187,-0.83754c-1.27833,-0.03098 -1.79126,1.00612 -2.99851,1.16532c-0.96496,0.12724 -2.63623,-0.61291 -3.56107,-0.64966c-0.69915,-0.02778 -2.04377,-0.5306 -2.53801,-0.53471c-0.99795,-0.0083 -1.61572,0.86529 -2.77345,1.02464c-1.34484,0.1851 -3.1641,-0.33939 -3.1641,-0.33939z" fill="#d0d0d0" stroke="#292e32"/><path d="M245.9343,170.5071l-0.06967,-5.82045l4.38934,0.36378v5.21415z" fill="#ff0000" stroke="none"/></g><g stroke="#000000" stroke-width="0" stroke-linecap="butt"><path d="M225.44774,189.84991c0,0 0.24729,-2.19243 -0.06748,-5.75941c-0.18906,-2.14236 -0.68673,-5.62861 -0.67053,-6.44455c0.03613,-1.82021 -0.60147,-2.71339 -0.52568,-3.88753c0.1862,-2.88506 0.46483,-7.79621 0.46483,-7.79621c0,0 -1.58102,-7.78038 6.03407,-6.98731c1.21569,0.12661 0.81241,7.26128 0.81241,7.26128c0,0 -0.13098,3.43909 -0.30613,6.15264c-0.08144,1.26163 -0.35355,3.29608 -0.5438,5.35137c-0.08038,0.8684 -0.0862,3.6318 -0.15498,4.47751c-0.28603,3.51683 0.65764,6.41465 0.65764,6.41465z" fill="#bdbdbd"/><path d="M225.92536,194.57528c-0.53584,0.1067 -0.46098,-4.60881 -0.46098,-4.60881c0,0 1.76997,-1.0837 2.70652,-1.28615c0.96189,-0.20794 2.99081,0.05455 2.99081,0.05455c0,0 0.16845,1.16908 0.77899,1.89131c1.04496,1.23615 2.34319,2.53359 1.87011,3.78519c-0.25667,0.67911 -1.43378,-1.90464 -1.66125,-1.59715c-0.04047,0.05471 0.42506,4.47333 0.03175,4.71352c-0.64253,0.39237 -1.39381,-4.09628 -1.50637,-3.39591c-0.23105,1.43762 0.63852,4.48956 0.09771,4.71031c-0.91103,0.37188 -1.16755,-5.29346 -1.39318,-4.82845c-0.4215,0.86865 0.29679,4.24362 -0.16713,4.45786c-1.35131,0.62402 -1.02779,-4.15472 -1.36978,-3.6761c-0.64606,0.90419 0.10432,3.26105 -0.42759,3.33349c-1.08144,0.14726 -1.23665,-3.60401 -1.48959,-3.55364z" data-paper-data="{&quot;index&quot;:null}" fill="#5c4747"/></g></g></g></svg>