<svg version="1.1" xmlns="http://www.w3.org/2000/svg" xmlns:xlink="http://www.w3.org/1999/xlink" width="589.13664" height="403.97299" viewBox="0,0,589.13664,403.97299"><defs><linearGradient x1="-4.7383" y1="177.80996" x2="483.26176" y2="177.80996" gradientUnits="userSpaceOnUse" id="color-1"><stop offset="0" stop-color="#7d7d7d"/><stop offset="1" stop-color="#868686"/></linearGradient><radialGradient cx="224.05742" cy="345.31334" r="265.97323" gradientUnits="userSpaceOnUse" id="color-2"><stop offset="0" stop-color="#4d4d4d"/><stop offset="1" stop-color="#3c3c3c"/></radialGradient><radialGradient cx="143.17151" cy="313.5276" r="48.41025" gradientUnits="userSpaceOnUse" id="color-3"><stop offset="0" stop-color="#2a2a2a"/><stop offset="1" stop-color="#2a2a2a"/></radialGradient><radialGradient cx="148.36333" cy="316.97954" r="48.41026" gradientUnits="userSpaceOnUse" id="color-4"><stop offset="0" stop-color="#1d1d1d"/><stop offset="1" stop-color="#1b1b1b"/></radialGradient><radialGradient cx="62.31177" cy="439.41487" r="183.34096" gradientUnits="userSpaceOnUse" id="color-5"><stop offset="0" stop-color="#222222"/><stop offset="1" stop-color="#202020"/></radialGradient><radialGradient cx="86.34425" cy="335.74024" r="47.67676" gradientUnits="userSpaceOnUse" id="color-6"><stop offset="0" stop-color="#090909"/><stop offset="1" stop-color="#080808"/></radialGradient><radialGradient cx="-33.30423" cy="272.23811" r="19.43745" gradientUnits="userSpaceOnUse" id="color-7"><stop offset="0" stop-color="#525252"/><stop offset="1" stop-color="#424242"/></radialGradient><radialGradient cx="24.68097" cy="301.207" r="61.61305" gradientUnits="userSpaceOnUse" id="color-8"><stop offset="0" stop-color="#1d1d1d"/><stop offset="1" stop-color="#1b1b1b"/></radialGradient><radialGradient cx="-2.19885" cy="278.18045" r="32.82362" gradientUnits="userSpaceOnUse" id="color-9"><stop offset="0" stop-color="#3a3a3a"/><stop offset="1" stop-color="#2f2f2f"/></radialGradient><radialGradient cx="34.27759" cy="305.14472" r="35.5742" gradientUnits="userSpaceOnUse" id="color-10"><stop offset="0" stop-color="#343434"/><stop offset="1" stop-color="#262626"/></radialGradient><radialGradient cx="64.59349" cy="285.52591" r="19.25408" gradientUnits="userSpaceOnUse" id="color-11"><stop offset="0" stop-color="#121212"/><stop offset="1" stop-color="#161616"/></radialGradient><radialGradient cx="80.85809" cy="334.21798" r="47.67676" gradientUnits="userSpaceOnUse" id="color-12"><stop offset="0" stop-color="#101010"/><stop offset="1" stop-color="#111111"/></radialGradient><radialGradient cx="-47.25591" cy="259.78603" r="26.58897" gradientUnits="userSpaceOnUse" id="color-13"><stop offset="0" stop-color="#313131"/><stop offset="1" stop-color="#1b1b1b"/></radialGradient><radialGradient cx="39.35706" cy="359.60001" r="19.25408" gradientUnits="userSpaceOnUse" id="color-14"><stop offset="0" stop-color="#121212"/><stop offset="1" stop-color="#161616"/></radialGradient><radialGradient cx="486.17827" cy="347.11642" r="107.02755" gradientUnits="userSpaceOnUse" id="color-15"><stop offset="0" stop-color="#d6d6d6"/><stop offset="1" stop-color="#d3d3d3"/></radialGradient><radialGradient cx="492.55238" cy="348.65315" r="38.1039" gradientUnits="userSpaceOnUse" id="color-16"><stop offset="0" stop-color="#dadada"/><stop offset="1" stop-color="#c2c2c2"/></radialGradient><radialGradient cx="254.14811" cy="217.06882" r="63.22012" gradientUnits="userSpaceOnUse" id="color-17"><stop offset="0" stop-color="#33266a"/><stop offset="1" stop-color="#949074"/></radialGradient><radialGradient cx="535.51172" cy="111.18389" r="156.75" gradientUnits="userSpaceOnUse" id="color-18"><stop offset="0" stop-color="#4a4a4a"/><stop offset="1" stop-color="#303030"/></radialGradient><linearGradient x1="254.87072" y1="156.87938" x2="256.78455" y2="175.9726" gradientUnits="userSpaceOnUse" id="color-19"><stop offset="0" stop-color="#694444"/><stop offset="1" stop-color="#98a1b9"/></linearGradient><radialGradient cx="237.29477" cy="94.87733" r="36.7428" gradientUnits="userSpaceOnUse" id="color-20"><stop offset="0" stop-color="#dcdcdc"/><stop offset="1" stop-color="#a0a0a0"/></radialGradient><radialGradient cx="254.32042" cy="110.68637" r="25.97916" gradientUnits="userSpaceOnUse" id="color-21"><stop offset="0" stop-color="#d1ffc4"/><stop offset="1" stop-color="#2188ff"/></radialGradient><radialGradient cx="254.32042" cy="110.68637" r="25.97916" gradientUnits="userSpaceOnUse" id="color-22"><stop offset="0" stop-color="#ceffc4"/><stop offset="1" stop-color="#ff21cc"/></radialGradient><radialGradient cx="254.32042" cy="110.68637" r="25.97916" gradientUnits="userSpaceOnUse" id="color-23"><stop offset="0" stop-color="#ffe9c4"/><stop offset="1" stop-color="#4fff21"/></radialGradient><radialGradient cx="254.32042" cy="110.68637" r="25.97916" gradientUnits="userSpaceOnUse" id="color-24"><stop offset="0" stop-color="#ffe9c4"/><stop offset="1" stop-color="#4fff21"/></radialGradient><radialGradient cx="254.32038" cy="110.68637" r="25.97915" gradientUnits="userSpaceOnUse" id="color-25"><stop offset="0" stop-color="#ffe9c4"/><stop offset="1" stop-color="#ffa321"/></radialGradient><radialGradient cx="254.32035" cy="110.68637" r="25.97915" gradientUnits="userSpaceOnUse" id="color-26"><stop offset="0" stop-color="#c4f0ff"/><stop offset="1" stop-color="#3d21ff"/></radialGradient><radialGradient cx="229.59866" cy="91.82662" r="28.20691" gradientUnits="userSpaceOnUse" id="color-27"><stop offset="0" stop-color="#1c2f30"/><stop offset="1" stop-color="#142913"/></radialGradient><radialGradient cx="276.15334" cy="86.42555" r="7.42452" gradientUnits="userSpaceOnUse" id="color-28"><stop offset="0" stop-color="#786c41"/><stop offset="1" stop-color="#141a29"/></radialGradient><radialGradient cx="244.54809" cy="90.11005" r="11.6884" gradientUnits="userSpaceOnUse" id="color-29"><stop offset="0" stop-color="#7ba676"/><stop offset="1" stop-color="#291616"/></radialGradient></defs><g transform="translate(77.09208,8.91465)"><g data-paper-data="{&quot;isPaintingLayer&quot;:true}" fill-rule="nonzero" stroke-linejoin="miter" stroke-miterlimit="10" stroke-dasharray="" stroke-dashoffset="0" style="mix-blend-mode: normal"><path d="M-4.7383,360.80996v-366h488v366z" fill="url(#color-1)" stroke="none" stroke-width="0" stroke-linecap="butt"/><path d="M512.04409,362.47552c-0.27717,18.22799 -122.27896,32.81456 -272.49862,32.58003c-150.21966,-0.23454 -271.77209,-15.20137 -271.49492,-33.42936c0.27716,-18.22799 122.27895,-32.81456 272.49862,-32.58003c150.21967,0.23454 271.77209,15.20137 271.49493,33.42936z" fill="url(#color-2)" stroke="none" stroke-width="NaN" stroke-linecap="butt"/><g data-paper-data="{&quot;index&quot;:null}"><path d="M128.30461,341.51806l-15.754,9.78426l20.25661,-70.20952l13.31732,-6.11945z" fill="url(#color-3)" stroke="none" stroke-width="0" stroke-linecap="butt"/><path d="M134.00488,344.86767l-16.26245,9.88661l-5.29416,-3.96041l15.14319,-10.19037z" fill="url(#color-4)" stroke="none" stroke-width="0" stroke-linecap="butt"/><path d="M127.49987,340.54258l18.05874,-64.718l5.82049,3.96365l-17.27184,65.5879z" data-paper-data="{&quot;index&quot;:null}" fill="url(#color-5)" stroke="none" stroke-width="0" stroke-linecap="butt"/><path d="M134.39994,283.15741l-27.85434,1.07258l36.10794,-6.4316" fill="none" stroke="#747474" stroke-width="1.5" stroke-linecap="round"/><path d="M116.4098,344.89993l-31.47915,3.62169l39.97396,-10.1151" fill="none" stroke="#747474" stroke-width="1.5" stroke-linecap="round"/><path d="M119.27845,314.24829c-3.73046,11.91543 -17.15668,34.71379 -20.31899,39.11396c-3.18482,4.43149 -14.8032,8.73772 -21.79229,12.28043c-6.73348,3.41314 -21.93356,7.11514 -21.93356,7.11514l28.95579,-73.16465c0,0 8.48391,-9.53071 14.13157,-12.58824c6.816,-3.69005 18.89142,-10.81319 20.64959,-8.23505c2.76041,4.04778 4.31843,22.66842 0.3079,35.47841z" fill="url(#color-6)" stroke="none" stroke-width="0" stroke-linecap="butt"/><path d="M-38.40887,291.78344l-9.48582,-5.57408l18.43033,-34.25979l8.72305,4.70049z" fill="url(#color-7)" stroke="none" stroke-width="0" stroke-linecap="butt"/><path d="M57.17746,367.51943l-107.98843,-60.9042l36.47277,-62.79224l93.77926,54.68145z" fill="url(#color-8)" stroke="none" stroke-width="0" stroke-linecap="butt"/><path d="M-3.8817,325.68442l-36.36232,-21.36732l31.67774,-57.52776l33.46116,20.51329z" fill="url(#color-9)" stroke="none" stroke-width="0" stroke-linecap="butt"/><path d="M56.69386,353.62323l-57.54733,-33.81611l22.96128,-47.76159l52.74901,31.84726z" fill="url(#color-10)" stroke="none" stroke-width="0" stroke-linecap="butt"/><path d="M78.46207,299.20529l-32.88419,-19.3235c0,0 16.82124,0.05509 23.30723,1.18514c7.70789,1.34294 21.17501,7.08783 21.17501,7.08783z" fill="url(#color-11)" stroke="none" stroke-width="0" stroke-linecap="butt"/><path d="M113.79233,312.72601c-3.73046,11.91543 -17.15668,34.7138 -20.319,39.11397c-3.18482,4.43149 -14.8032,8.73771 -21.79229,12.28042c-6.73347,3.41314 -19.404,8.60156 -19.404,8.60156l26.42624,-74.65107c0,0 8.48391,-9.53071 14.13157,-12.58824c6.816,-3.69005 22.16418,-10.59154 23.92236,-8.0134c2.7604,4.04778 1.04565,22.44678 -2.96488,35.25677z" fill="url(#color-12)" stroke="none" stroke-width="0" stroke-linecap="butt"/><path d="M-50.84797,293.40683l-26.24411,-15.42163l30.10335,-43.99012l23.84496,14.43721z" fill="url(#color-13)" stroke="none" stroke-width="0" stroke-linecap="butt"/><path d="M53.5418,373.46517l-33.25909,-25.92444c0,0 15.30453,1.57768 22.87442,3.98666c9.01826,2.8699 24.84803,14.69786 24.84803,14.69786z" fill="url(#color-14)" stroke="none" stroke-width="0" stroke-linecap="butt"/></g><path d="M390.61016,310.58296l-4.88619,-10.61215l34.35208,-24.16048c0,0 14.9454,0.6048 15.70204,2.24814c0.85905,1.86575 -10.81585,8.36401 -10.81585,8.36401z" fill="#f6be00" stroke="none" stroke-width="0" stroke-linecap="butt"/><path d="M431.34241,284.30787l-5.63793,-12.24484l39.63717,-27.87758c0,0 15.21022,1.78515 15.98359,3.4648c1.0309,2.23897 -10.34565,8.78003 -10.34565,8.78003z" fill="#00f520" stroke="none" stroke-width="0" stroke-linecap="butt"/><path d="M379.31773,325.71513l3.86474,-16.19911l89.57331,-64.42036l-17.14361,90.68027z" fill="url(#color-15)" stroke="none" stroke-width="0" stroke-linecap="butt"/><path d="M455.11808,336.40697l13.86115,-91.11313l42.88952,5.65576l-14.19534,88.9805z" fill="url(#color-16)" stroke="none" stroke-width="0" stroke-linecap="butt"/><path d="M463.55629,340.18417l22.43174,-147.30179l5.93162,0.90329l-22.43174,147.30179z" fill="#1d1d1d" stroke="none" stroke-width="0" stroke-linecap="butt"/><path d="M211.98753,280.13062l0.47668,-126.43932l83.84458,0.3162l-0.47668,126.43932z" data-paper-data="{&quot;index&quot;:null}" fill="url(#color-17)" stroke="#ed6b00" stroke-width="0" stroke-linecap="butt"/><g data-paper-data="{&quot;index&quot;:null}"><path d="M275.53382,353.29259c0,0 -8.28276,-71.78628 -11.43106,-83.96071c-1.0295,-3.98078 -9.69248,-3.85489 -9.69248,-3.85489c0,0 -8.96967,-11.51132 1.18436,-11.9491c8.58185,-0.36999 27.74794,4.92258 27.74794,4.92258l14.58577,93.87649z" data-paper-data="{&quot;index&quot;:null}" fill="#4a433c" stroke="#000000" stroke-width="0" stroke-linecap="butt"/><path d="M314.88793,371.23406c-1.6588,0.07172 -7.39751,0.35718 -13.17203,0.38036c-3.51114,0.01392 -5.39712,-1.49932 -8.0263,-1.78645c-3.30968,-0.36174 -8.19636,0.9715 -10.59581,0.53807c-4.42165,-0.79876 -6.73869,-1.89026 -6.73869,-1.89026c0,0 -0.87669,-2.83706 -0.99043,-4.40307c-0.15317,-2.1101 0.15373,-7.11904 0.15373,-7.11904c0,0 16.5913,-1.05075 23.0933,-0.76932c3.84734,0.16654 11.94457,1.29823 11.94457,1.29823c0,0 4.15926,1.5465 4.80837,2.71639c0.79552,1.43258 2.68299,5.45929 2.68299,5.45929c0,0 -0.84519,5.47553 -3.15907,5.57537z" data-paper-data="{&quot;index&quot;:null}" fill="#140d0d" stroke="#000000" stroke-width="0" stroke-linecap="butt"/><path d="M313.81931,364.062c-0.69455,0.02994 2.15849,4.39704 -7.16521,4.04618c-8.80505,-0.33114 -7.91248,-2.98996 -11.01303,-3.08225c-6.48278,-0.19293 -7.16911,1.97727 -9.98509,1.66989c-0.98079,-0.10712 -1.44841,-0.25856 -5.11069,-2.49999c-2.51881,-1.54143 -2.07393,-4.82022 -3.828,-6.50545c-2.56231,-2.46155 -2.4898,-5.17962 -2.4898,-5.17962l-0.58138,-8.51917c0,0 1.62706,6.11662 4.07437,8.32212c2.18947,1.97354 6.48109,-0.33211 7.83456,-0.3909c2.37001,-0.10284 -2.32209,-9.06191 -0.05379,-9.10843c1.21963,-0.02526 10.3891,-1.10424 10.3891,-1.10424c0,0 0.77621,10.00278 1.43041,10.03095c3.84735,0.16653 12.96247,1.25459 12.96247,1.25459c0,0 4.15926,1.54651 4.80838,2.71616c0.79552,1.43257 2.12167,8.20314 2.12167,8.20314c0,0 -1.07941,0.04681 -3.39315,0.14647z" data-paper-data="{&quot;index&quot;:null}" fill="#1f261f" stroke="#000000" stroke-width="0" stroke-linecap="butt"/><path d="M299.89443,353.36408l-7.33335,3.37577" fill="none" stroke="#ffb5b5" stroke-width="0.5" stroke-linecap="round"/><path d="M304.98447,353.14507l-6.95032,4.37896" fill="none" stroke="#bffdff" stroke-width="0.5" stroke-linecap="round"/><path d="M308.06716,353.69205l-3.89602,4.24707" fill="none" stroke="#eaffc1" stroke-width="0.5" stroke-linecap="round"/><path d="M294.7786,345.08629l-6.07839,0.94196" fill="none" stroke="#8d967b" stroke-width="0.5" stroke-linecap="round"/><path d="M295.54464,347.09292l-5.38518,1.25216" fill="none" stroke="#767796" stroke-width="0.5" stroke-linecap="round"/></g><g data-paper-data="{&quot;index&quot;:null}"><path d="M215.16104,351.52529l12.19003,-94.21742c0,0 19.02521,-5.77919 27.61351,-5.62779c10.16212,0.17893 1.48861,11.9153 1.48861,11.9153c0,0 -8.66346,0.09465 -9.5912,4.10062c-2.83691,12.25047 -9.2889,84.2244 -9.2889,84.2244z" fill="#413a4a" stroke="#000000" stroke-width="0" stroke-linecap="butt"/><path d="M258.08497,366.44694c0,0 -1.17587,5.41438 -3.49159,5.37347c-1.65998,-0.02913 -7.40518,-0.09229 -13.17119,-0.41953c-3.50532,-0.19897 -5.29641,-1.8238 -7.90302,-2.27009c-3.28195,-0.56162 -8.24001,0.47229 -10.60892,-0.10586c-4.36495,-1.06524 -6.61136,-2.29537 -6.61136,-2.29537c0,0 -0.70307,-2.88477 -0.72177,-4.45501c-0.02512,-2.11577 0.58543,-7.09632 0.58543,-7.09632c0,0 16.62421,-0.04216 23.09747,0.63307c3.83034,0.39966 11.84361,2.02025 11.84361,2.02025c0,0 4.05752,1.79591 4.63466,3.0031c0.70685,1.4783 2.3468,5.6123 2.3468,5.6123z" data-paper-data="{&quot;index&quot;:null}" fill="#12140d" stroke="#000000" stroke-width="0" stroke-linecap="butt"/><path d="M257.35755,364.65647c0,0 -1.08013,-0.01898 -3.39589,-0.05967c-0.69537,-0.01207 1.88799,4.52006 -7.39791,3.60401c-8.76897,-0.865 -7.71654,-3.46473 -10.80565,-3.74469c-6.45887,-0.58564 -7.27599,1.53855 -10.06784,1.06108c-0.97239,-0.16629 -1.43003,-0.34638 -4.94976,-2.80561c-2.42045,-1.69128 -1.77768,-4.93723 -3.42643,-6.72563c-2.40813,-2.61269 -2.17119,-5.32113 -2.17119,-5.32113l-0.06358,-8.53864c0,0 1.25294,6.20405 3.56181,8.55424c2.06576,2.10273 6.48908,0.06182 7.84364,0.08513c2.37183,0.04122 -1.76779,-9.18583 0.49888,-9.09492c1.21893,0.04892 10.43702,-0.47183 10.43702,-0.47183c0,0 0.16788,10.03132 0.81935,10.09938c3.83024,0.39944 12.86218,2.03841 12.86218,2.03841c0,0 4.05752,1.79591 4.63465,3.0031c0.70686,1.4783 1.61985,8.31687 1.61985,8.31687z" data-paper-data="{&quot;index&quot;:null}" fill="#1e1e26" stroke="#000000" stroke-width="0" stroke-linecap="butt"/><path d="M240.71154,353.07406l-7.52446,2.92459" fill="none" stroke="#c1ffce" stroke-width="0.5" stroke-linecap="round"/><path d="M238.60221,357.11322l7.20293,-3.94927" fill="none" stroke="#eaffc1" stroke-width="0.5" stroke-linecap="round"/><path d="M244.70277,357.89991l4.14669,-4.00312" fill="none" stroke="#ffb5b5" stroke-width="0.5" stroke-linecap="round"/><path d="M236.10712,344.50103l-6.12417,0.57155" fill="none" stroke="#7d967f" stroke-width="0.5" stroke-linecap="round"/><path d="M231.29925,347.47342l5.45099,-0.92298" fill="none" stroke="#966262" stroke-width="0.5" stroke-linecap="round"/></g><path d="M455.76172,221.08535l4,-220.93596l35.5,-9.06404l-2.45178,226.27276z" fill="url(#color-18)" stroke="none" stroke-width="0" stroke-linecap="butt"/><g stroke-linecap="butt"><path d="M246.11604,177.04216l-1.9139,-19.09328l21.33709,-2.13891l1.9139,19.09328z" data-paper-data="{&quot;index&quot;:null}" fill="url(#color-19)" stroke="#000000" stroke-width="0"/><path d="M287.80184,118.60991c2.15943,21.5454 -12.07997,40.61425 -31.80531,42.59149c-19.7254,1.97732 -37.46676,-13.88568 -39.62626,-35.43147c-2.15944,-21.54541 12.07997,-40.61424 31.80544,-42.59149c19.7254,-1.97732 37.46676,13.88568 39.62627,35.43147z" data-paper-data="{&quot;index&quot;:null}" fill="url(#color-20)" stroke="none" stroke-width="0"/><g data-paper-data="{&quot;index&quot;:null}" stroke="#ed6b00" stroke-width="0"><path d="M264.67643,143.99273c-28.28205,2.8303 -31.70773,-14.1572 -32.15566,-24.63585c-0.44772,-10.47856 15.9403,-20.0183 30.26717,-20.69428c14.32687,-0.67597 28.05642,8.97216 28.50423,19.45066c0,0 4.68583,23.06302 -26.61578,25.87925z" data-paper-data="{&quot;index&quot;:null}" fill="url(#color-21)"/><path d="M264.67647,143.99272c-22.53734,2.25539 -29.29052,-8.07378 -31.33079,-17.66551c3.26259,4.87991 8.731,7.93916 14.77137,7.61187c9.38958,-0.50877 16.6055,-9.00812 16.11722,-18.98384c-0.32536,-6.64736 -3.9895,-12.2729 -9.17651,-15.13626c2.57108,-0.63593 5.18323,-1.03622 7.7302,-1.15639c4.36695,-0.20604 8.67842,0.54712 12.57518,1.99061c2.3918,5.96788 7.69809,10.24353 13.9302,10.92094c1.19463,2.07886 1.90276,4.28985 1.99887,6.53913c0,0 0.18973,0.93385 0.23779,2.44868c-1.56009,-0.40152 -3.2001,-0.57361 -4.88457,-0.48233c-9.38957,0.50877 -16.6055,9.00812 -16.11722,18.98384c0.06714,1.37184 0.2765,2.70015 0.61207,3.96964c-1.96294,0.42188 -4.11181,0.74781 -6.46387,0.95942z" data-paper-data="{&quot;index&quot;:null}" fill="url(#color-22)"/><path d="M262.78796,98.66259c4.87921,-0.2302 9.68914,0.737 13.92874,2.52665c-0.62844,1.94692 -0.95139,4.03883 -0.91095,6.20756c-3.31633,-4.22536 -8.39736,-6.80011 -13.96416,-6.49847c-9.38956,0.50877 -16.60551,9.00813 -16.11723,18.98384c0.32735,6.68783 4.03425,12.34136 9.27144,15.18825c-2.43428,2.15726 -4.28431,5.01888 -5.28495,8.27249c-2.95951,-0.70668 -5.41046,-1.77086 -7.44049,-3.08712c2.09936,-3.18466 3.25086,-7.11049 3.04599,-11.29624c-0.36275,-7.41128 -4.87578,-13.5524 -11.0224,-16.01136c4.57645,-7.68819 17.17813,-13.75166 28.49399,-14.28556z" data-paper-data="{&quot;index&quot;:null}" fill="url(#color-23)"/><path d="M273.62915,132.86375c3.83801,-3.40128 6.22372,-8.55344 6.11781,-14.23231c2.81288,3.58397 6.89542,5.98038 11.46708,6.44128c-0.80112,4.62417 -3.36514,10.56601 -10.71494,14.60668c-1.64493,-2.90768 -4.03291,-5.27347 -6.86995,-6.81566z" data-paper-data="{&quot;index&quot;:null}" fill="url(#color-24)"/><path d="M260.56081,130.89844c0.04284,-0.27039 -0.78886,-1.48397 -0.99455,-1.86539c-2.50995,-4.65384 -4.45114,-9.69725 -7.46475,-14.00086c-0.28468,-0.40655 -1.98479,-0.04029 -2.76789,-0.05264c-4.79569,-0.07557 -9.61792,-0.81499 -14.38641,-0.2736c-0.61057,0.06933 -1.22126,0.32516 -1.82542,0.73264c1.30292,-3.7522 4.59382,-7.23709 8.90777,-10.05003c3.31214,4.33599 8.46035,6.99115 14.10866,6.68509c7.29104,-0.39507 13.27148,-5.60813 15.35187,-12.58922c6.59306,1.55325 12.42199,5.08957 16.02137,9.51223c-2.50265,-1.29518 -5.33939,-1.95574 -8.31492,-1.79451c-9.38957,0.50877 -16.6055,9.00812 -16.11722,18.98384c0.12114,2.47486 0.70507,4.80811 1.6581,6.9099c-2.37743,1.00693 -4.48183,2.56416 -6.18179,4.51697c1.03408,-2.61784 1.7357,-5.01293 2.00525,-6.7144z" data-paper-data="{&quot;index&quot;:null}" fill="url(#color-25)"/><path d="M264.67639,143.99277c-28.28205,2.8303 -31.70773,-14.1572 -32.15566,-24.63585c-0.01947,-0.45548 -0.00711,-0.90921 0.03549,-1.36052c0.2498,3.35233 1.55651,6.84319 2.84371,9.30754c0.13304,0.25469 0.27233,0.50791 0.41774,0.75959c2.06392,7.29101 8.31291,12.5685 15.65143,12.86566c5.69097,2.37493 11.83241,3.26888 16.96898,1.86962c8.85857,-2.4132 16.85027,-4.00723 16.11722,-18.98384c-0.29699,-6.06775 -5.02582,-11.27249 -9.27424,-15.34419c-2.47652,-2.3735 -6.91777,-0.07959 -9.86938,-1.72905c-1.59481,-3.23835 -4.08052,-5.88674 -7.09397,-7.59708c1.49815,-0.24886 2.99509,-0.41244 4.47017,-0.48202c5.30167,-0.25015 10.52156,0.91348 15.01686,3.00977c0.00237,0.2571 0.00985,0.51533 0.02254,0.77451c0.41217,8.42106 6.18261,15.20227 13.61944,16.8053c0.1107,1.13885 0.18739,3.04387 -0.15044,5.30994c-4.25919,2.8633 -7.21236,7.67096 -7.81074,13.18763c-4.01547,3.04368 -9.98105,5.44849 -18.80922,6.24276z" data-paper-data="{&quot;index&quot;:null}" fill="url(#color-26)"/></g><g data-paper-data="{&quot;index&quot;:null}"><path d="M237.11069,92.42308c-0.47768,0.00724 -1.70737,0.04523 -3.04385,0.17316c-1.50147,0.46886 -3.24752,0.92709 -4.59877,1.47066c-0.99635,2.43197 1.81539,5.21318 -2.35135,6.77439c-7.10677,2.66195 -4.36223,-6.05774 -1.8639,-8.67157c3.78323,-2.82132 9.04218,-2.79539 13.61004,-3.31875c6.29189,-0.72074 12.47423,-2.09705 18.63394,-2.00642c0.24878,-0.22341 0.57621,-0.36086 0.93651,-0.36601l1.64823,-0.02337c0.8415,-0.15444 1.75496,-0.31267 2.71287,-0.4547c2.50554,-0.57933 5.4811,-0.75377 8.24472,-0.80356c1.36574,-0.16223 2.63616,-0.19056 3.67165,-0.01767c0.76911,0.00139 1.48469,0.00229 2.12441,-0.00717l1.7374,-0.0249c0.79129,-0.01126 1.44183,0.62073 1.45333,1.41239c0.00995,0.70443 -0.4897,1.2972 -1.15743,1.42729l-0.94154,0.20273c0.379,0.37103 0.71708,0.78812 1.00731,1.25519l0.6791,-0.28339l0.70731,1.69754c0.07606,0.1715 0.11982,0.361 0.12284,0.56063c0.01126,0.79129 -0.62073,1.44184 -1.41239,1.45334c-0.24052,0.00353 -0.46878,-0.05248 -0.66913,-0.1545l-1.37385,-0.66258l0.01961,-0.04041l-0.1328,-0.02058c-0.96373,-0.70163 -1.95693,-1.25108 -2.96041,-1.64788c-1.55835,-0.17446 -3.18894,-0.47013 -4.85401,-0.73383c-2.87074,0.2725 -5.56978,1.83161 -7.63103,4.67687c0,0 -0.84332,1.15847 -2.0019,0.31533c-1.15848,-0.84332 -0.31533,-2.0019 -0.31533,-2.0019c0.1803,-0.24652 0.36518,-0.48597 0.55453,-0.7173l-0.81223,0.19265c-0.10869,0.02803 -0.22305,0.04404 -0.34037,0.04586c-0.79129,0.01126 -1.44183,-0.62073 -1.45333,-1.41239c-0.00577,-0.40059 0.15319,-0.76495 0.41451,-1.02884c-0.68478,-0.05066 -1.33395,-0.0622 -1.8941,0.03173c-3.91243,0.65629 -9.83634,0.52358 -15.46678,0.95591c-0.01971,0.67589 -0.50943,1.23761 -1.15717,1.3636l-1.70661,0.36701l-0.01186,-0.05523l-0.02131,0.00385z" fill="url(#color-27)" stroke="none" stroke-width="0.5"/><path d="M280.05608,85.19964c7.6259,-0.21979 7.55188,-0.1113 7.76439,5.04561c0.21263,5.15671 -2.89584,9.22348 -6.94244,9.08312c-4.04664,-0.14058 -7.49932,-4.43554 -7.71179,-9.59237c-0.21265,-5.15672 -0.26112,-4.33017 6.89,-4.53648z" data-paper-data="{&quot;index&quot;:null}" fill="url(#color-28)" stroke="#000000" stroke-width="0"/><path d="M260.99973,91.28493c0.57687,5.63752 -4.11295,10.73536 -10.47507,11.38587c-6.36198,0.65106 -11.98711,-3.39143 -12.56373,-9.02877c-0.57688,-5.63753 -0.71289,-5.74676 11.3619,-6.44557c11.32291,-0.65547 11.0997,-1.54913 11.67672,4.08843z" fill="url(#color-29)" stroke="#000000" stroke-width="0"/></g></g><g stroke-width="0" stroke-linecap="butt"><g data-paper-data="{&quot;index&quot;:null}" stroke="#000000"><path d="M300.95737,248.45364c0,0 0.60924,-8.44156 -1.80925,-17.96972c-0.58154,-2.29141 -1.9988,-9.88765 -2.61785,-12.23555c-1.4644,-5.55675 -3.09892,-11.01507 -3.9197,-14.44392c-1.76552,-7.37451 -3.80274,-16.76666 -3.80274,-16.76666c0,0 -3.56514,-18.49591 -0.8688,-19.50786c15.76907,-5.91914 15.83518,15.32592 15.83518,15.32592c0,0 3.1108,13.36619 4.98824,21.20683c0.76414,3.19103 -0.18908,5.96633 0.81633,10.95401c0.45047,2.23571 1.12414,12.0721 1.79604,18.05846c1.11851,9.96691 2.7785,15.87225 2.7785,15.87225z" data-paper-data="{&quot;index&quot;:null}" fill="#a3bda9"/><path d="M315.54459,261.54743c-0.58373,-0.00997 1.00113,10.38006 -1.45903,10.52402c-1.21013,0.0708 -0.76626,-6.78839 -2.65514,-8.94605c-1.00004,-1.14233 2.16846,11.82925 -1.13213,10.7999c-1.13284,-0.35329 -1.28281,-9.99492 -2.65865,-12.16893c-0.73649,-1.16367 1.60805,14.53938 -0.59168,13.97951c-1.30604,-0.33233 -0.95609,-9.16267 -2.2043,-12.99716c-0.60781,-1.86798 0.04126,10.85161 -1.5771,10.09879c-0.99063,-0.46086 -2.23409,-12.84259 -2.35137,-12.97261c-0.65934,-0.72957 -1.92789,6.96984 -2.84269,5.23336c-1.68618,-3.20029 0.51024,-7.42543 2.17926,-11.35381c0.97525,-2.295 0.74584,-5.59403 0.74584,-5.59403c0,0 4.33907,-1.75128 6.56683,-1.66819c2.16903,0.08122 6.62877,2.16169 6.62877,2.16169c0,0 2.58774,12.92399 1.35099,12.90249z" data-paper-data="{&quot;index&quot;:null}" fill="#6c7378"/></g><g data-paper-data="{&quot;index&quot;:null}"><path d="M284.96512,261.45753c0,0 -5.11057,1.41547 -8.87148,0.85746c-3.23784,-0.48007 -4.94221,-2.94506 -7.73746,-2.95119c-1.38448,-0.00314 -5.16519,1.3657 -7.12415,1.42282c-2.59162,0.07541 -7.29406,2.09949 -9.99278,1.71452c-3.37634,-0.48126 -4.78236,-3.40112 -8.36361,-3.35194c-7.88582,0.10827 -15.62994,2.1816 -15.62994,2.1816c0,0 0.60457,-16.17967 -0.10702,-29.19217c-0.69011,-12.62537 -2.69263,-21.96036 -2.9942,-30.48674c-0.34072,-9.63665 -0.26264,-35.45327 -0.26264,-35.45327c0,0 11.78989,-1.15326 17.43143,0.13627c5.34662,1.22239 15.58055,7.40986 15.58055,7.40986c0,0 13.35418,-6.36513 19.70553,-7.60408c4.9893,-0.97347 15.31172,0.7731 15.31172,0.7731c0,0 -0.0213,24.37108 -0.98369,37.47374c-0.51267,6.98089 -3.55486,16.19463 -4.6518,26.43041c-1.61442,15.06392 -1.30999,30.64005 -1.30999,30.64005z" fill="#d1b0b0" stroke="#292e32"/><path d="M227.91793,195.51921l0.15346,-14.60329l21.40625,-0.79407l-0.51081,16.29767z" fill="#f200ff" stroke="none"/><path d="M249.18629,189.41814c-3.09393,-2.67815 -7.10944,-4.32689 -11.52089,-4.4023c-1.06563,-0.01822 -2.11129,0.05611 -3.12934,0.21555c1.47959,-1.34234 2.7367,-2.92706 3.70789,-4.69285l11.23372,-0.4167z" fill="#eeff00" stroke="none"/><path d="M231.34881,195.66595c0.65756,-1.82321 1.03096,-3.78404 1.06594,-5.83004c0.05571,-3.2594 -0.75433,-6.33213 -2.21813,-8.99883l14.03986,-0.5208c-4.85384,3.62541 -7.8716,9.5009 -7.71015,15.57115z" fill="#00ff5f" stroke="none"/><path d="M231.1973,195.65945c-0.32784,-1.08662 -0.75534,-2.13067 -1.27201,-3.12133c2.6337,-0.80164 5.016,-2.18905 6.99221,-4.01275c2.10296,3.55255 5.38861,6.32873 9.32455,7.7776l-15.04476,-0.64352z" fill="#004fff" stroke="none"/><path d="M244.86753,196.24416c0.93305,-2.12932 1.46843,-4.47503 1.51065,-6.94482c0.05559,-3.25199 -0.75065,-6.31817 -2.20816,-8.98063l5.30767,-0.19687l-0.51081,16.2977z" fill="#ff0000" stroke="none"/><path d="M228.00951,186.8087c1.77271,2.24831 4.06869,4.06772 6.70804,5.27205c0.2071,1.30901 0.55495,2.57219 1.02783,3.77325l-7.82739,-0.33481l0.09153,-8.71052z" fill="#00efff" stroke="none"/><path d="M237.55887,180.56397c-5.24237,2.99501 -8.85319,8.54159 -9.11282,14.97781l-0.52806,-0.02259l0.15345,-14.6033z" fill="#9c00ff" stroke="none"/></g><g data-paper-data="{&quot;index&quot;:null}" stroke="#000000"><path d="M190.51694,248.7385c0,0 2.16175,-5.90897 3.69187,-16.00542c0.91896,-6.06421 1.88786,-16.05996 2.48201,-18.31042c1.32581,-5.01976 0.16075,-7.92418 1.16147,-11.12683c2.45903,-7.86922 6.5387,-21.29134 6.5387,-21.29134c0,0 0.85879,-22.62538 21.42674,-15.29917c3.28364,1.16961 -2.63891,20.6692 -2.63891,20.6692c0,0 -2.67881,9.44213 -4.99194,16.84364c-1.07544,3.44138 -3.19957,8.89587 -5.11093,14.46284c-0.80763,2.35223 -2.68473,10.00595 -3.44496,12.30328c-3.16133,9.55292 -2.49758,18.21876 -2.49758,18.21876z" fill="#b8bda6"/><path d="M188.65801,262.15483c-1.55649,-0.06513 1.82666,-13.08203 1.82666,-13.08203c0,0 5.63457,-1.81113 8.36635,-1.74117c2.80562,0.07145 8.25112,2.16542 8.25112,2.16542c0,0 -0.32078,3.35311 0.88511,5.76594c2.06333,4.12925 4.78679,8.59907 2.63294,11.74874c-1.16865,1.70916 -2.69049,-6.24355 -3.5281,-5.54476c-0.14908,0.12427 -1.83484,12.68246 -3.08631,13.08313c-2.04473,0.65457 -1.10352,-12.28984 -1.88736,-10.42489c-1.60844,3.82816 -1.25414,12.87105 -2.90144,13.11876c-2.77499,0.41695 0.3297,-15.45517 -0.60877,-14.31859c-1.75296,2.12347 -2.0357,11.95961 -3.46543,12.24075c-4.16499,0.8191 -0.04994,-12.20569 -1.32022,-11.10949c-2.39951,2.07045 -1.90708,9.10704 -3.42997,8.94947c-3.09618,-0.32032 -0.99954,-10.8201 -1.7345,-10.85097z" data-paper-data="{&quot;index&quot;:null}" fill="#786274"/></g></g></g></g></svg>