<svg version="1.1" xmlns="http://www.w3.org/2000/svg" xmlns:xlink="http://www.w3.org/1999/xlink" width="67.9198" height="105.74522" viewBox="0,0,67.9198,105.74522"><defs><radialGradient cx="238.52448" cy="177.75476" r="22.57159" gradientUnits="userSpaceOnUse" id="color-1"><stop offset="0" stop-color="#3c3c3c"/><stop offset="1" stop-color="#939393"/></radialGradient><linearGradient x1="239.74787" y1="156.06832" x2="239.74787" y2="162.91937" gradientUnits="userSpaceOnUse" id="color-2"><stop offset="0" stop-color="#696969"/><stop offset="1" stop-color="#a0a0a0"/></linearGradient><radialGradient cx="235.71182" cy="133.41612" r="13.11833" gradientUnits="userSpaceOnUse" id="color-3"><stop offset="0" stop-color="#dcdcdc"/><stop offset="1" stop-color="#a0a0a0"/></radialGradient><radialGradient cx="239.12682" cy="140.82216" r="10.94378" gradientUnits="userSpaceOnUse" id="color-4"><stop offset="0" stop-color="#ffc4c4"/><stop offset="1" stop-color="#ff2121"/></radialGradient></defs><g transform="translate(-207.73578,-129.64767)"><g data-paper-data="{&quot;isPaintingLayer&quot;:true}" fill-rule="nonzero" stroke-linejoin="miter" stroke-miterlimit="10" stroke-dasharray="" stroke-dashoffset="0" style="mix-blend-mode: normal"><path d="M223.55679,200.32636v-45.14319h29.93538v45.14319z" fill="url(#color-1)" stroke="#ed6b00" stroke-width="0" stroke-linecap="butt"/><g stroke-width="0" stroke-linecap="butt"><path d="M235.91979,162.91937v-6.85104h7.65615v6.85104z" fill="url(#color-2)" stroke="#000000"/><path d="M252.80944,143.64573c0,7.73092 -5.73774,13.99807 -12.8156,13.99807c-7.07786,0 -12.8156,-6.26715 -12.8156,-13.99807c0,-7.73092 5.73774,-13.99806 12.8156,-13.99806c7.07786,0 12.8156,6.26714 12.8156,13.99806z" fill="url(#color-3)" stroke="none"/></g><path d="M253.34118,144.37905c0,4.88691 0.04264,10.71868 -10.65711,11.34206c-11.95351,0.69642 -11.22173,-6.45514 -11.22173,-11.34206c0,-4.88691 4.89775,-8.84854 10.93943,-8.84854c6.04168,0 10.93943,3.96163 10.93943,8.84854z" data-paper-data="{&quot;index&quot;:null}" fill="url(#color-4)" stroke="#ed6b00" stroke-width="0" stroke-linecap="butt"/><path d="M225.3524,227.25058l4.70882,-33.59058c0,0 6.81409,-1.99117 9.87968,-1.90463c3.62728,0.1024 0.4863,4.25949 0.4863,4.25949c0,0 -3.0933,0.001 -3.43969,1.42759c-1.05933,4.36283 -3.63518,30.03396 -3.63518,30.03396z" fill="#494949" stroke="#000000" stroke-width="0" stroke-linecap="butt"/><g data-paper-data="{&quot;index&quot;:null}"><path d="M239.63852,233.6963c0,0 -0.73139,1.83794 -1.54455,1.68787c-0.58292,-0.10757 -2.60269,-0.46641 -4.61411,-0.9195c-1.2229,-0.27547 -1.75846,-0.95273 -2.65042,-1.26257c-1.12293,-0.39009 -2.92975,-0.31646 -3.73013,-0.65891c-1.47483,-0.631 -2.19405,-1.19583 -2.19405,-1.19583c0,0 -0.07857,-1.0572 0.00692,-1.6113c0.11517,-0.7465 0.62201,-2.46507 0.62201,-2.46507c0,0 5.8574,0.95933 8.09752,1.57642c1.32553,0.36516 4.05278,1.40561 4.05278,1.40561c0,0 1.32379,0.87029 1.45634,1.32918c0.16232,0.56204 0.49768,2.11408 0.49768,2.11408z" data-paper-data="{&quot;index&quot;:null}" fill="#141415" stroke="#000000" stroke-width="0" stroke-linecap="butt"/><path d="M239.48728,233.02303c0,0 -0.37928,-0.07 -1.19246,-0.22006c-0.24409,-0.04505 0.40006,1.70252 -2.81656,0.83585c-3.03754,-0.81841 -2.51475,-1.67237 -3.5862,-1.95204c-2.24044,-0.58483 -2.65268,0.11555 -3.60798,-0.21631c-0.3327,-0.11557 -0.48342,-0.20568 -1.57886,-1.2781c-0.75337,-0.73753 -0.33681,-1.84294 -0.81262,-2.56944c-0.69505,-1.06121 -0.45282,-2.0012 -0.45282,-2.0012l0.47798,-3.01098c0,0 0.0778,2.25844 0.75319,3.2214c0.6043,0.86158 2.28183,0.40203 2.7575,0.48966c0.83293,0.15346 -0.08434,-3.33879 0.70866,-3.17391c0.42641,0.08867 3.70342,0.44539 3.70342,0.44539c0,0 -0.52868,3.54276 -0.30325,3.60486c1.32552,0.36515 4.41051,1.47163 4.41051,1.47163c0,0 1.32379,0.87029 1.45634,1.32918c0.16232,0.56204 0.08315,3.02403 0.08315,3.02403z" data-paper-data="{&quot;index&quot;:null}" fill="#252527" stroke="#000000" stroke-width="0" stroke-linecap="butt"/><path d="M234.30352,227.96844l-2.82147,0.58909" fill="none" stroke="#ffffff" stroke-width="0.5" stroke-linecap="round"/><path d="M233.32397,229.26736l2.76822,-0.96883" fill="none" stroke="#ffffff" stroke-width="0.5" stroke-linecap="round"/><path d="M235.42639,229.90195l1.69502,-1.1669" fill="none" stroke="#ffffff" stroke-width="0.5" stroke-linecap="round"/><path d="M230.99376,224.52162l2.19044,0.15761" fill="none" stroke="#969696" stroke-width="0.5" stroke-linecap="round"/><path d="M231.31671,225.44435l1.97396,-0.00566" fill="none" stroke="#969696" stroke-width="0.5" stroke-linecap="round"/></g><path d="M249.09749,227.04668c0,0 -4.05316,-25.47967 -5.36253,-29.77409c-0.42814,-1.40422 -3.51634,-1.22669 -3.51634,-1.22669c0,0 -3.37567,-3.96887 0.23965,-4.28046c3.05549,-0.26333 9.97314,1.33125 9.97314,1.33125l6.63965,33.26282z" data-paper-data="{&quot;index&quot;:null}" fill="#494949" stroke="#000000" stroke-width="0" stroke-linecap="butt"/><g data-paper-data="{&quot;index&quot;:null}"><path d="M264.72876,230.77502c0,0 -0.21768,1.9661 -1.04154,2.0371c-0.59057,0.0509 -2.63317,0.24064 -4.69273,0.33729c-1.25215,0.05876 -1.94817,-0.45218 -2.89037,-0.51435c-1.18617,-0.07827 -2.90875,0.47197 -3.7713,0.35409c-1.58937,-0.21722 -2.43265,-0.57104 -2.43265,-0.57104c0,0 -0.35617,-0.9985 -0.42071,-1.55542c-0.08696,-0.7503 -0.05411,-2.54175 -0.05411,-2.54175c0,0 5.90206,-0.62866 8.2256,-0.62785c1.37491,0.00049 4.28045,0.28029 4.28045,0.28029c0,0 1.50722,0.48798 1.75674,0.89529c0.30559,0.49885 1.0406,1.90635 1.0406,1.90635z" data-paper-data="{&quot;index&quot;:null}" fill="#141415" stroke="#000000" stroke-width="0" stroke-linecap="butt"/><path d="M264.40438,230.16599c0,0 -0.38427,0.03311 -1.20811,0.10411c-0.24731,0.02131 0.83732,1.53542 -2.49397,1.55299c-3.14582,0.01659 -2.86825,-0.94544 -3.97551,-0.93091c-2.31531,0.03038 -2.52701,0.81502 -3.53613,0.74843c-0.35144,-0.02319 -0.52065,-0.07009 -1.86131,-0.81354c-0.92202,-0.51129 -0.81357,-1.6876 -1.46504,-2.26186c-0.95163,-0.83884 -0.96741,-1.80941 -0.96741,-1.80941l-0.33778,-3.02992c0,0 0.67404,2.15691 1.58067,2.90624c0.81118,0.67043 2.30674,-0.21762 2.78861,-0.25929c0.84381,-0.07296 -0.96691,-3.19683 -0.15858,-3.24819c0.43466,-0.02761 3.68891,-0.55286 3.68891,-0.55286c0,0 0.42995,3.5561 0.66378,3.55617c1.3749,0.00049 4.64288,0.24906 4.64288,0.24906c0,0 1.50722,0.48798 1.75674,0.89529c0.3056,0.49885 0.88227,2.89366 0.88227,2.89366z" data-paper-data="{&quot;index&quot;:null}" fill="#252527" stroke="#000000" stroke-width="0" stroke-linecap="butt"/><path d="M255.50142,227.98376l2.56415,-1.31637" fill="none" stroke="#ffffff" stroke-width="0.5" stroke-linecap="round"/><path d="M259.87774,226.51122l-2.4121,1.66838" fill="none" stroke="#ffffff" stroke-width="0.5" stroke-linecap="round"/><path d="M259.66107,228.23382l1.3248,-1.57469" fill="none" stroke="#ffffff" stroke-width="0.5" stroke-linecap="round"/><path d="M256.11391,223.79288l-2.15378,0.42904" fill="none" stroke="#969696" stroke-width="0.5" stroke-linecap="round"/><path d="M254.51625,225.02594l1.90175,-0.52902" fill="none" stroke="#969696" stroke-width="0.5" stroke-linecap="round"/></g><g stroke="#000000" stroke-width="0" stroke-linecap="butt"><path d="M266.54302,183.63271c0,0 -1.14436,-2.82459 -3.62809,-5.33078c-0.59727,-0.60267 -2.38143,-2.71294 -3.00219,-3.32551c-1.4692,-1.44978 -2.9876,-2.8309 -3.86242,-3.74361c-1.88159,-1.9631 -4.19665,-4.50965 -4.19665,-4.50965c0,0 -4.38774,-5.11308 -3.51816,-6.02765c5.0856,-5.34874 8.57934,1.40877 8.57934,1.40877c0,0 3.37605,3.57763 5.37655,5.66477c0.81414,0.84942 0.90161,1.94334 2.1015,3.31254c0.53788,0.61376 2.40238,3.60128 3.63749,5.36196c2.0564,2.93147 3.65756,4.44944 3.65756,4.44944z" data-paper-data="{&quot;index&quot;:null}" fill="#bdbdbd"/><path d="M274.27918,184.6039c-0.22563,0.12492 2.07885,3.08895 1.15815,3.67505c-0.45284,0.28827 -1.40231,-1.99567 -2.47955,-2.26865c-0.57021,-0.14449 2.76339,3.29469 1.32872,3.69113c-0.49254,0.13609 -2.12412,-2.90435 -3.00697,-3.29524c-0.47261,-0.20926 2.99087,4.28143 2.05518,4.58597c-0.55545,0.18078 -1.86288,-2.71076 -2.96784,-3.65903c-0.53831,-0.46197 1.78742,3.44998 1.04346,3.56547c-0.4554,0.07068 -2.95404,-3.60325 -3.02027,-3.61888c-0.37227,-0.08781 0.39798,2.64496 -0.23661,2.29231c-1.16956,-0.64992 -1.01651,-2.47895 -1.01721,-4.09759c-0.0004,-0.94571 -0.62692,-1.947 -0.62692,-1.947c0,0 1.37937,-1.51088 2.24799,-1.97344c0.84575,-0.45037 2.89692,-0.7663 2.89692,-0.7663c0,0 3.10294,3.55153 2.62496,3.81618z" data-paper-data="{&quot;index&quot;:null}" fill="#5c4747"/></g><g stroke-width="0" stroke-linecap="butt"><path d="M229.63979,193.59141c0,0 0.16709,-5.5597 -0.35268,-10.94382c-0.35317,-3.65847 -1.40473,-6.95919 -1.56162,-9.45339c-0.29447,-4.68133 -0.2105,-13.38223 -0.2105,-13.38223c0,0 3.69178,-0.58477 5.4694,-0.21857c2.26281,0.46615 7.00656,2.78867 7.00656,2.78867c0,0 3.67689,-2.17061 5.59031,-2.58687c2.01891,-0.43921 6.22369,0.01677 6.22369,0.01677c0,0 -0.06905,9.21711 -0.22689,12.65629c-0.13965,3.04285 -0.88957,6.36811 -1.18346,10.87293c-0.3029,4.64296 -0.14784,10.42155 -0.14784,10.42155c0,0 -2.75697,-0.76932 -5.57187,-0.83754c-1.27833,-0.03098 -1.79126,1.00612 -2.99851,1.16532c-0.96496,0.12724 -2.63623,-0.61291 -3.56107,-0.64966c-0.69915,-0.02778 -2.04377,-0.5306 -2.53801,-0.53471c-0.99795,-0.0083 -1.61572,0.86529 -2.77345,1.02464c-1.34484,0.1851 -3.1641,-0.33939 -3.1641,-0.33939z" fill="#d0d0d0" stroke="#292e32"/><path d="M242.73589,170.5071l-0.12126,-5.82045l7.63934,0.36378v5.21415z" fill="#ff0000" stroke="none"/></g><g stroke="#000000" stroke-width="0" stroke-linecap="butt"><path d="M210.81233,184.29089c0,0 1.38588,-1.71674 3.0357,-4.89487c0.99089,-1.90882 2.44307,-5.11705 2.89488,-5.79668c1.00787,-1.51613 0.94961,-2.61199 1.64402,-3.56181c1.70628,-2.33385 4.57847,-6.32729 4.57847,-6.32729c0,0 2.84408,-7.41249 8.84233,-2.65439c0.95757,0.75959 -3.21375,6.56187 -3.21375,6.56187c0,0 -1.95718,2.83088 -3.56204,5.026c-0.74616,1.02058 -2.06815,2.59073 -3.33227,4.22242c-0.53412,0.68942 -2.02289,3.0175 -2.53504,3.69401c-2.12974,2.81321 -2.88969,5.76454 -2.88969,5.76454z" fill="#bdbdbd"/><path d="M208.67786,188.53368c-0.50933,-0.19772 2.08591,-4.13553 2.08591,-4.13553c0,0 2.07507,0.03621 2.97385,0.36831c0.92311,0.34108 2.49376,1.652 2.49376,1.652c0,0 -0.48565,1.07669 -0.35842,2.0138c0.21775,1.60393 0.61624,3.39556 -0.45491,4.19738c-0.58119,0.43507 -0.1868,-2.37665 -0.5438,-2.2394c-0.06352,0.02442 -2.04347,4.00195 -2.50423,3.99337c-0.75273,-0.01402 1.02377,-4.20406 0.55273,-3.67367c-0.96687,1.08871 -1.8721,4.13027 -2.44686,4.02609c-0.96823,-0.17547 1.85748,-5.09251 1.41745,-4.82139c-0.82202,0.50646 -2.02833,3.73929 -2.53474,3.67092c-1.47505,-0.19919 1.36391,-4.05682 0.81842,-3.83669c-1.03055,0.41586 -1.66308,2.80704 -2.15069,2.58254c-0.99138,-0.45647 0.892,-3.70439 0.65158,-3.79773z" data-paper-data="{&quot;index&quot;:null}" fill="#5c4747"/></g></g></g></svg>