<svg version="1.1" xmlns="http://www.w3.org/2000/svg" xmlns:xlink="http://www.w3.org/1999/xlink" width="12.98292" height="13.28918" viewBox="0,0,12.98292,13.28918"><defs><radialGradient cx="240.03344" cy="179.9323" r="6.56946" gradientUnits="userSpaceOnUse" id="color-1"><stop offset="0" stop-color="#bc957e"/><stop offset="1" stop-color="#33291e"/></radialGradient><radialGradient cx="239.99999" cy="180" r="6.49146" gradientUnits="userSpaceOnUse" id="color-2"><stop offset="0" stop-color="#734545" stop-opacity="0.30998"/><stop offset="1" stop-color="#734545" stop-opacity="0"/></radialGradient><radialGradient cx="239.99999" cy="180" r="5.27013" gradientUnits="userSpaceOnUse" id="color-3"><stop offset="0" stop-color="#eb7373" stop-opacity="0.62996"/><stop offset="1" stop-color="#eb7373" stop-opacity="0"/></radialGradient><radialGradient cx="239.99999" cy="180" r="4.46159" gradientUnits="userSpaceOnUse" id="color-4"><stop offset="0" stop-color="#ff4f4f"/><stop offset="1" stop-color="#ff4f4f" stop-opacity="0"/></radialGradient><radialGradient cx="239.99999" cy="180" r="3.66879" gradientUnits="userSpaceOnUse" id="color-5"><stop offset="0" stop-color="#ea3939"/><stop offset="1" stop-color="#bd4b4b"/></radialGradient><radialGradient cx="240.00569" cy="180.02502" r="6.62699" gradientUnits="userSpaceOnUse" id="color-6"><stop offset="0" stop-color="#080504"/><stop offset="1" stop-color="#21150d"/></radialGradient></defs><g transform="translate(-233.50853,-173.36283)"><g data-paper-data="{&quot;isPaintingLayer&quot;:true}" fill-rule="nonzero" stroke-linecap="butt" stroke-linejoin="miter" stroke-miterlimit="10" stroke-dasharray="" stroke-dashoffset="0" style="mix-blend-mode: normal"><path d="M243.492,173.59293c0,0 0.0569,2.12006 -2.54882,7.54206c-2.2407,4.66249 -3.66013,5.36677 -3.66013,5.36677l-0.70826,-0.08226c0,0 2.59728,-3.11336 3.71128,-5.59689c1.39257,-3.10456 2.44839,-7.45978 2.44839,-7.45978z" data-paper-data="{&quot;index&quot;:null}" fill="url(#color-1)" stroke="#676767" stroke-width="0"/><path d="M233.50854,180c0,-3.58512 2.90632,-6.49146 6.49146,-6.49146c3.58512,0 6.49146,2.90632 6.49146,6.49146c0,3.58512 -2.90632,6.49146 -6.49146,6.49146c-3.58512,0 -6.49146,-2.90632 -6.49146,-6.49146z" fill="url(#color-2)" stroke="none" stroke-width="0.5"/><path d="M234.72987,180c0,-2.9106 2.35951,-5.27013 5.27013,-5.27013c2.9106,0 5.27013,2.35951 5.27013,5.27013c0,2.9106 -2.35951,5.27013 -5.27013,5.27013c-2.9106,0 -5.27013,-2.35951 -5.27013,-5.27013z" fill="url(#color-3)" stroke="none" stroke-width="0.5"/><path d="M235.5384,180c0,-2.46406 1.99752,-4.46159 4.46159,-4.46159c2.46406,0 4.46159,1.99752 4.46159,4.46159c0,2.46406 -1.99752,4.46159 -4.46159,4.46159c-2.46406,0 -4.46159,-1.99752 -4.46159,-4.46159z" fill="url(#color-4)" stroke="none" stroke-width="0.5"/><path d="M236.33121,180c0,-2.02621 1.64257,-3.66879 3.66879,-3.66879c2.02621,0 3.66879,1.64257 3.66879,3.66879c0,2.02621 -1.64257,3.66879 -3.66879,3.66879c-2.02621,0 -3.66879,-1.64257 -3.66879,-3.66879z" fill="url(#color-5)" stroke="none" stroke-width="0.5"/><path d="M236.52161,186.4199c0,0 -0.29133,-2.19711 2.3372,-7.66659c2.26032,-4.70331 3.92611,-5.35528 3.92611,-5.35528l0.71446,0.08298c0,0 -2.29837,3.34533 -3.42213,5.85061c-1.40476,3.13175 -2.79147,7.32039 -2.79147,7.32039z" fill="url(#color-6)" stroke="#676767" stroke-width="0"/></g></g></svg>