<svg version="1.1" xmlns="http://www.w3.org/2000/svg" xmlns:xlink="http://www.w3.org/1999/xlink" width="59" height="59.70662" viewBox="0,0,59,59.70662"><defs><linearGradient x1="240" y1="151.64674" x2="240" y2="208.35337" gradientUnits="userSpaceOnUse" id="color-1"><stop offset="0" stop-color="#191919"/><stop offset="1" stop-color="#050505"/></linearGradient><linearGradient x1="240" y1="151.64674" x2="240" y2="208.35337" gradientUnits="userSpaceOnUse" id="color-2"><stop offset="0" stop-color="#cccccc"/><stop offset="1" stop-color="#898989"/></linearGradient><radialGradient cx="240" cy="180" r="26.8571" gradientUnits="userSpaceOnUse" id="color-3"><stop offset="0" stop-color="#ffe6ca" stop-opacity="0.35294"/><stop offset="1" stop-color="#ffe6ca" stop-opacity="0"/></radialGradient><linearGradient x1="240" y1="153.2921" x2="240" y2="206.70789" gradientUnits="userSpaceOnUse" id="color-4"><stop offset="0" stop-color="#cccccc"/><stop offset="1" stop-color="#898989"/></linearGradient><linearGradient x1="258.50843" y1="179.82793" x2="258.50843" y2="197.95364" gradientUnits="userSpaceOnUse" id="color-5"><stop offset="0" stop-color="#464646"/><stop offset="1" stop-color="#353535"/></linearGradient><linearGradient x1="246.9678" y1="172.51579" x2="246.9678" y2="198.41902" gradientUnits="userSpaceOnUse" id="color-6"><stop offset="0" stop-color="#171717"/><stop offset="1" stop-color="#191919"/></linearGradient><linearGradient x1="245.08483" y1="172.87343" x2="249.2458" y2="198.17403" gradientUnits="userSpaceOnUse" id="color-7"><stop offset="0" stop-color="#383838"/><stop offset="1" stop-color="#262626"/></linearGradient><linearGradient x1="222.53553" y1="186.57944" x2="230.35629" y2="186.57944" gradientUnits="userSpaceOnUse" id="color-8"><stop offset="0" stop-color="#636363"/><stop offset="1" stop-color="#494949"/></linearGradient><linearGradient x1="225.07026" y1="172.14564" x2="255.28271" y2="172.14564" gradientUnits="userSpaceOnUse" id="color-9"><stop offset="0" stop-color="#555555"/><stop offset="1" stop-color="#515151"/></linearGradient><linearGradient x1="252.55553" y1="170.27433" x2="261.33614" y2="170.27433" gradientUnits="userSpaceOnUse" id="color-10"><stop offset="0" stop-color="#464646"/><stop offset="1" stop-color="#292929"/></linearGradient><linearGradient x1="219.06882" y1="194.9014" x2="228.95219" y2="194.9014" gradientUnits="userSpaceOnUse" id="color-11"><stop offset="0" stop-color="#555555"/><stop offset="1" stop-color="#424242"/></linearGradient><linearGradient x1="245.65274" y1="176.77098" x2="245.65274" y2="177.45685" gradientUnits="userSpaceOnUse" id="color-12"><stop offset="0" stop-color="#171717"/><stop offset="1" stop-color="#191919"/></linearGradient><linearGradient x1="246.46819" y1="182.0854" x2="246.46819" y2="182.77127" gradientUnits="userSpaceOnUse" id="color-13"><stop offset="0" stop-color="#171717"/><stop offset="1" stop-color="#191919"/></linearGradient><linearGradient x1="247.2482" y1="187.25422" x2="247.2482" y2="187.94009" gradientUnits="userSpaceOnUse" id="color-14"><stop offset="0" stop-color="#171717"/><stop offset="1" stop-color="#191919"/></linearGradient><linearGradient x1="248.06365" y1="192.96904" x2="248.06365" y2="193.65491" gradientUnits="userSpaceOnUse" id="color-15"><stop offset="0" stop-color="#171717"/><stop offset="1" stop-color="#191919"/></linearGradient><linearGradient x1="258.61201" y1="197.22862" x2="258.61201" y2="198.47152" gradientUnits="userSpaceOnUse" id="color-16"><stop offset="0" stop-color="#464646"/><stop offset="1" stop-color="#353535"/></linearGradient><linearGradient x1="240" y1="198.15961" x2="240" y2="199.35971" gradientUnits="userSpaceOnUse" id="color-17"><stop offset="0" stop-color="#cacaca"/><stop offset="1" stop-color="#979797"/></linearGradient></defs><g transform="translate(-210.5,-150.14675)"><g data-paper-data="{&quot;isPaintingLayer&quot;:true}" fill-rule="nonzero" stroke-linejoin="miter" stroke-miterlimit="10" stroke-dasharray="" stroke-dashoffset="0" style="mix-blend-mode: normal"><path d="M212,208.35337v-56.70662h56v56.70662z" fill="url(#color-1)" stroke="url(#color-2)" stroke-width="3" stroke-linecap="butt"/><path d="M266.8571,180c0,14.75036 -12.02433,26.70789 -26.8571,26.70789c-14.83277,0 -26.8571,-11.95753 -26.8571,-26.70789c0,-14.75036 12.02433,-26.70789 26.8571,-26.70789c14.83277,0 26.8571,11.95753 26.8571,26.70789z" fill="url(#color-3)" stroke="url(#color-4)" stroke-width="0" stroke-linecap="butt"/><path d="M215.27327,163.339v-8.69862h26.9482v8.69862z" fill-opacity="0.53453" fill="#000000" stroke="#a60000" stroke-width="0" stroke-linecap="butt"/><g><path d="M258.61201,197.95364l-0.20715,-18.12571" fill="none" stroke="url(#color-5)" stroke-width="0.5" stroke-linecap="round"/><path d="M247.26565,198.41902l-3.7374,-25.15941l2.64754,-0.74382l4.23156,25.79476z" fill="none" stroke="url(#color-6)" stroke-width="0.5" stroke-linecap="butt"/><path d="M248.48678,198.29886l-4.16097,-25.3006l0.95328,-0.39085l4.09037,25.72417z" fill="url(#color-7)" stroke="#160000" stroke-width="0" stroke-linecap="butt"/><path d="M222.53553,198.82526l4.96943,-25.05713l2.85133,0.56549l-4.96943,25.05713z" fill="url(#color-8)" stroke="none" stroke-width="0.5" stroke-linecap="butt"/><path d="M226.12422,177.91348l-1.05395,-4.17528l29.15849,-7.36039l1.05395,4.17528z" fill="url(#color-9)" stroke="none" stroke-width="0.5" stroke-linecap="butt"/><path d="M252.55553,160.60927c0,0 2.08502,0.25555 2.83124,0.76364c0.89299,0.60801 2.16591,2.63876 2.16591,2.63876l3.77753,11.16764c0,0 0.23375,3.46981 -2.23424,4.63097c-1.84742,0.86919 -2.5524,-2.93733 -2.75855,-2.8676c-0.09297,0.03145 -3.43473,-10.82413 -3.43473,-10.82413z" fill="url(#color-10)" stroke="#160000" stroke-width="0" stroke-linecap="butt"/><path d="M219.3512,198.36057l-0.28238,-5.36516c0,0 0.40158,-0.82514 0.63535,-1.05891c0.23377,-0.23377 0.98832,-0.49416 0.98832,-0.49416h6.28288c0,0 0.82048,-0.01332 1.41188,0.28238c0.5914,0.2957 0.56475,0.63535 0.56475,0.63535l-0.28238,6.00051z" fill="url(#color-11)" stroke="#160000" stroke-width="0" stroke-linecap="butt"/><path d="M246.82274,177.04112l-2.34001,0.1456" fill="none" stroke="url(#color-12)" stroke-width="0.5" stroke-linecap="round"/><path d="M247.67365,182.42834h-2.41092" fill="none" stroke="url(#color-13)" stroke-width="0.5" stroke-linecap="round"/><path d="M248.52457,187.52436l-2.55274,0.1456" fill="none" stroke="url(#color-14)" stroke-width="0.5" stroke-linecap="round"/><path d="M246.89365,193.34838l2.34001,-0.0728" fill="none" stroke="url(#color-15)" stroke-width="0.5" stroke-linecap="round"/><path d="M257.26553,198.47152v-1.24291h2.69296v1.24291z" fill="#212121" stroke="url(#color-16)" stroke-width="0.5" stroke-linecap="butt"/><path d="M218.29228,199.35971v-1.2001h43.41543v1.2001z" fill="url(#color-17)" stroke="#160000" stroke-width="0.5" stroke-linecap="butt"/></g><text transform="translate(215.70712,161.61522) scale(0.21839,0.21839)" font-size="40" xml:space="preserve" fill="#ffffff" fill-rule="nonzero" stroke="#000000" stroke-width="0" stroke-linecap="butt" stroke-linejoin="miter" stroke-miterlimit="10" stroke-dasharray="" stroke-dashoffset="0" font-family="Serif" font-weight="normal" text-anchor="start" style="mix-blend-mode: normal"><tspan x="0" dy="0">Oil Rig</tspan></text></g></g></svg>