<svg version="1.1" xmlns="http://www.w3.org/2000/svg" xmlns:xlink="http://www.w3.org/1999/xlink" width="84.5" height="38.32609" viewBox="0,0,84.5,38.32609"><defs><linearGradient x1="240" y1="161.58695" x2="240" y2="198.4131" gradientUnits="userSpaceOnUse" id="color-1"><stop offset="0" stop-color="#4b8455"/><stop offset="1" stop-color="#72b235"/></linearGradient><linearGradient x1="240" y1="161.58695" x2="240" y2="198.4131" gradientUnits="userSpaceOnUse" id="color-2"><stop offset="0" stop-color="#246037"/><stop offset="1" stop-color="#a0ff67"/></linearGradient><linearGradient x1="246.85214" y1="183.2082" x2="277.9812" y2="185.18922" gradientUnits="userSpaceOnUse" id="color-3"><stop offset="0" stop-color="#303030"/><stop offset="1" stop-color="#171717"/></linearGradient><linearGradient x1="246.85214" y1="183.2082" x2="277.9812" y2="185.18922" gradientUnits="userSpaceOnUse" id="color-4"><stop offset="0" stop-color="#272727"/><stop offset="1" stop-color="#000000"/></linearGradient><radialGradient cx="262.41666" cy="184.19871" r="12.93997" gradientUnits="userSpaceOnUse" id="color-5"><stop offset="0" stop-color="#734c45" stop-opacity="0.40995"/><stop offset="1" stop-color="#734c45" stop-opacity="0"/></radialGradient><radialGradient cx="262.41959" cy="184.15278" r="10.50538" gradientUnits="userSpaceOnUse" id="color-6"><stop offset="0" stop-color="#eb8c73" stop-opacity="0.60996"/><stop offset="1" stop-color="#eb8c73" stop-opacity="0"/></radialGradient><radialGradient cx="262.41959" cy="184.15278" r="8.89367" gradientUnits="userSpaceOnUse" id="color-7"><stop offset="0" stop-color="#ff734f" stop-opacity="0"/><stop offset="1" stop-color="#ff734f" stop-opacity="0.08997"/></radialGradient><radialGradient cx="262.41959" cy="184.15278" r="7.3133" gradientUnits="userSpaceOnUse" id="color-8"><stop offset="0" stop-color="#ffa282" stop-opacity="0.11996"/><stop offset="1" stop-color="#ffab8f"/></radialGradient><linearGradient x1="247.29146" y1="183.21561" x2="249.37788" y2="183.34838" gradientUnits="userSpaceOnUse" id="color-9"><stop offset="0" stop-color="#9d9d9d"/><stop offset="1" stop-color="#4c4c4c"/></linearGradient><linearGradient x1="247.29146" y1="183.21561" x2="249.37788" y2="183.34838" gradientUnits="userSpaceOnUse" id="color-10"><stop offset="0" stop-color="#272727"/><stop offset="1" stop-color="#000000"/></linearGradient><linearGradient x1="275.51943" y1="185.012" x2="277.60585" y2="185.14478" gradientUnits="userSpaceOnUse" id="color-11"><stop offset="0" stop-color="#9d9d9d"/><stop offset="1" stop-color="#4c4c4c"/></linearGradient><linearGradient x1="275.51943" y1="185.012" x2="277.60585" y2="185.14478" gradientUnits="userSpaceOnUse" id="color-12"><stop offset="0" stop-color="#272727"/><stop offset="1" stop-color="#000000"/></linearGradient><linearGradient x1="246.98887" y1="187.07139" x2="277.35586" y2="189.00391" gradientUnits="userSpaceOnUse" id="color-13"><stop offset="0" stop-color="#272727"/><stop offset="1" stop-color="#000000"/></linearGradient><linearGradient x1="246.98654" y1="187.10797" x2="277.35353" y2="189.04049" gradientUnits="userSpaceOnUse" id="color-14"><stop offset="0" stop-color="#272727"/><stop offset="1" stop-color="#000000"/></linearGradient><linearGradient x1="247.57226" y1="179.01072" x2="277.93925" y2="180.94324" gradientUnits="userSpaceOnUse" id="color-15"><stop offset="0" stop-color="#272727"/><stop offset="1" stop-color="#000000"/></linearGradient><linearGradient x1="247.56993" y1="179.0473" x2="277.93692" y2="180.97982" gradientUnits="userSpaceOnUse" id="color-16"><stop offset="0" stop-color="#272727"/><stop offset="1" stop-color="#000000"/></linearGradient><linearGradient x1="246.36006" y1="192.21455" x2="277.04264" y2="194.16716" gradientUnits="userSpaceOnUse" id="color-17"><stop offset="0" stop-color="#c7a895"/><stop offset="1" stop-color="#322c27"/></linearGradient><linearGradient x1="246.36006" y1="192.21455" x2="277.04264" y2="194.16716" gradientUnits="userSpaceOnUse" id="color-18"><stop offset="0" stop-color="#272727"/><stop offset="1" stop-color="#000000"/></linearGradient><linearGradient x1="247.64288" y1="174.26978" x2="278.32545" y2="176.22239" gradientUnits="userSpaceOnUse" id="color-19"><stop offset="0" stop-color="#c7a895"/><stop offset="1" stop-color="#322c27"/></linearGradient><linearGradient x1="247.64288" y1="174.26978" x2="278.32545" y2="176.22239" gradientUnits="userSpaceOnUse" id="color-20"><stop offset="0" stop-color="#272727"/><stop offset="1" stop-color="#000000"/></linearGradient></defs><g transform="translate(-197.75,-160.83701)"><g data-paper-data="{&quot;isPaintingLayer&quot;:true}" fill-rule="nonzero" stroke-linejoin="miter" stroke-miterlimit="10" stroke-dasharray="" stroke-dashoffset="0" style="mix-blend-mode: normal"><path d="M198.5,198.4131v-36.82609h83v36.82609z" fill="url(#color-1)" stroke="url(#color-2)" stroke-width="1.5" stroke-linecap="butt"/><path d="M246.2033,193.40391l1.29769,-20.39143l31.12905,1.98102l-1.29769,20.39143z" fill="url(#color-3)" stroke="url(#color-4)" stroke-width="0.5" stroke-linecap="butt"/><path d="M249.50282,183.37688c0.45388,-7.1321 6.60355,-12.54591 13.73567,-12.09203c7.13211,0.45388 12.54591,6.60355 12.09202,13.73568c-0.45388,7.1321 -6.60354,12.5459 -13.73567,12.09202c-7.1321,-0.45388 -12.54591,-6.60355 -12.09203,-13.73567z" fill="url(#color-5)" stroke="none" stroke-width="0.5" stroke-linecap="butt"/><path d="M251.93541,183.48558c0.36848,-5.79022 5.36112,-10.18545 11.15138,-9.81697c5.79022,0.36848 10.18546,5.36112 9.81697,11.15137c-0.36849,5.79022 -5.36112,10.18546 -11.15137,9.81698c-5.79022,-0.36848 -10.18546,-5.36112 -9.81698,-11.15138z" fill="url(#color-6)" stroke="none" stroke-width="0.5" stroke-linecap="butt"/><path d="M253.54387,183.58794c0.31195,-4.90191 4.53863,-8.62283 9.44056,-8.31088c4.90191,0.31195 8.62283,4.53863 8.31088,9.44056c-0.31195,4.90191 -4.53863,8.62284 -9.44056,8.31088c-4.90191,-0.31195 -8.62283,-4.53863 -8.31088,-9.44056z" fill="url(#color-7)" stroke="none" stroke-width="0.5" stroke-linecap="butt"/><path d="M255.12105,183.68831c0.25652,-4.03086 3.73213,-7.09059 7.76301,-6.83407c4.03085,0.25652 7.09059,3.73213 6.83407,7.76301c-0.25652,4.03086 -3.73213,7.09059 -7.76301,6.83407c-4.03085,-0.25652 -7.09059,-3.73213 -6.83407,-7.76301z" fill="url(#color-8)" stroke="none" stroke-width="0.5" stroke-linecap="butt"/><path d="M246.78378,191.19308l1.01535,-15.95494l2.08641,0.13278l-1.01535,15.95494z" fill="url(#color-9)" stroke="url(#color-10)" stroke-width="0.5" stroke-linecap="butt"/><path d="M275.01176,192.98947l1.01535,-15.95494l2.08641,0.13278l-1.01535,15.95494z" fill="url(#color-11)" stroke="url(#color-12)" stroke-width="0.5" stroke-linecap="butt"/><path d="M246.72225,191.26099l2.2164,-8.27209l1.07979,8.48185l2.70266,-8.16766l1.64782,8.40779l4.31336,-8.02842l3.11826,8.5381l3.75231,-8.06412l3.12291,8.46491l2.97854,-8.07662l2.13641,8.47561l2.20941,-8.16231l1.09143,8.2989" fill="none" stroke="url(#color-13)" stroke-width="0.25" stroke-linecap="round"/><path d="M277.61782,184.88748l-2.13462,8.09359l-1.1569,-8.37654l-3.19359,8.13643l-1.93068,-8.38905l-4.17077,8.00076l-2.69979,-8.47474l-4.17543,8.07394l-3.26085,-8.51044l-2.70034,8.13108l-1.64549,-8.44438l-2.14628,8.27655l-1.14991,-8.48632" data-paper-data="{&quot;index&quot;:null}" fill="none" stroke="url(#color-14)" stroke-width="0.25" stroke-linecap="round"/><path d="M247.30564,183.20031l2.21641,-8.27209l1.07978,8.48185l2.70266,-8.16766l1.64782,8.40779l4.31337,-8.02842l3.11826,8.5381l3.75231,-8.06413l3.12292,8.46492l2.97853,-8.07664l2.13641,8.47563l2.20942,-8.16232l1.09143,8.2989" fill="none" stroke="url(#color-15)" stroke-width="0.25" stroke-linecap="round"/><path d="M278.20121,176.82682l-2.13463,8.0936l-1.1569,-8.37654l-3.19358,8.13642l-1.93068,-8.38905l-4.17077,8.00075l-2.69979,-8.47473l-4.17543,8.07394l-3.26085,-8.51044l-2.70034,8.13108l-1.64549,-8.44438l-2.14628,8.27655l-1.14992,-8.48632" data-paper-data="{&quot;index&quot;:null}" fill="none" stroke="url(#color-16)" stroke-width="0.25" stroke-linecap="round"/><path d="M246.30278,193.11458l0.11455,-1.80004l30.68258,1.95261l-0.11455,1.80004z" fill="url(#color-17)" stroke="url(#color-18)" stroke-width="0.5" stroke-linecap="butt"/><path d="M247.5856,175.16981l0.11455,-1.80004l30.68258,1.95261l-0.11455,1.80005z" fill="url(#color-19)" stroke="url(#color-20)" stroke-width="0.5" stroke-linecap="butt"/><text transform="translate(201.08,170.56883) scale(0.21667,0.21667)" font-size="40" xml:space="preserve" fill="#ffffff" fill-rule="nonzero" stroke="none" stroke-width="1" stroke-linecap="butt" stroke-linejoin="miter" stroke-miterlimit="10" stroke-dasharray="" stroke-dashoffset="0" font-family="Serif" font-weight="normal" text-anchor="start" style="mix-blend-mode: normal"><tspan x="0" dy="0">Interstellar Drive</tspan></text></g></g></svg>