<svg version="1.1" xmlns="http://www.w3.org/2000/svg" xmlns:xlink="http://www.w3.org/1999/xlink" width="142.19963" height="151.87886" viewBox="0,0,142.19963,151.87886"><defs><linearGradient x1="259.87539" y1="97.96372" x2="259.87539" y2="174.0427" gradientUnits="userSpaceOnUse" id="color-1"><stop offset="0" stop-color="#000000" stop-opacity="0"/><stop offset="1" stop-color="#000000" stop-opacity="0"/></linearGradient><linearGradient x1="191.14176" y1="29.88771" x2="192.01382" y2="61.96049" gradientUnits="userSpaceOnUse" id="color-2"><stop offset="0" stop-color="#4a4a4a" stop-opacity="0"/><stop offset="1" stop-color="#4a4a4a" stop-opacity="0.44314"/></linearGradient><linearGradient x1="193.42801" y1="28.46222" x2="192.27535" y2="63.14142" gradientUnits="userSpaceOnUse" id="color-3"><stop offset="0" stop-color="#292929" stop-opacity="0"/><stop offset="1" stop-color="#292929" stop-opacity="0.36863"/></linearGradient><linearGradient x1="195.34665" y1="30.87856" x2="191.62852" y2="62.64581" gradientUnits="userSpaceOnUse" id="color-4"><stop offset="0" stop-color="#383838" stop-opacity="0"/><stop offset="1" stop-color="#383838" stop-opacity="0.41569"/></linearGradient><linearGradient x1="192.77624" y1="32.12793" x2="192.04887" y2="61.72535" gradientUnits="userSpaceOnUse" id="color-5"><stop offset="0" stop-color="#4a4a4a" stop-opacity="0"/><stop offset="1" stop-color="#4a4a4a" stop-opacity="0.43137"/></linearGradient><linearGradient x1="263.55" y1="87.31351" x2="263.55" y2="175.64684" gradientUnits="userSpaceOnUse" id="color-6"><stop offset="0" stop-color="#5d5d5d"/><stop offset="1" stop-color="#474747"/></linearGradient><radialGradient cx="279.53333" cy="98.20195" r="11.83333" gradientUnits="userSpaceOnUse" id="color-7"><stop offset="0" stop-color="#939393"/><stop offset="1" stop-color="#393939"/></radialGradient><linearGradient x1="279.53333" y1="86.5626" x2="279.53333" y2="109.84129" gradientUnits="userSpaceOnUse" id="color-8"><stop offset="0" stop-color="#666666"/><stop offset="1" stop-color="#4f4f4f"/></linearGradient><linearGradient x1="240.37499" y1="173.1395" x2="240.37499" y2="180.21187" gradientUnits="userSpaceOnUse" id="color-9"><stop offset="0" stop-color="#348317"/><stop offset="1" stop-color="#3c5b0d"/></linearGradient><radialGradient cx="197.27832" cy="111.47476" r="37.63684" gradientUnits="userSpaceOnUse" id="color-10"><stop offset="0" stop-color="#939393"/><stop offset="1" stop-color="#535353"/></radialGradient><radialGradient cx="196.88931" cy="83.72849" r="37.63684" gradientUnits="userSpaceOnUse" id="color-11"><stop offset="0" stop-color="#393939"/><stop offset="1" stop-color="#1b1b1b"/></radialGradient><radialGradient cx="196.69481" cy="78.2143" r="32.09343" gradientUnits="userSpaceOnUse" id="color-12"><stop offset="0" stop-color="#373737"/><stop offset="1" stop-color="#1b1b1b"/></radialGradient><linearGradient x1="180.03919" y1="69.10837" x2="204.20995" y2="69.10837" gradientUnits="userSpaceOnUse" id="color-13"><stop offset="0" stop-color="#535353"/><stop offset="1" stop-color="#232323"/></linearGradient><radialGradient cx="218.50361" cy="90.86673" r="17.36636" gradientUnits="userSpaceOnUse" id="color-14"><stop offset="0" stop-color="#939393"/><stop offset="1" stop-color="#535353"/></radialGradient><radialGradient cx="236.16706" cy="98.76668" r="9.74286" gradientUnits="userSpaceOnUse" id="color-15"><stop offset="0" stop-color="#1d1d1d"/><stop offset="1" stop-color="#080808"/></radialGradient><linearGradient x1="236.16706" y1="89.02382" x2="236.16706" y2="108.50954" gradientUnits="userSpaceOnUse" id="color-16"><stop offset="0" stop-color="#ffffff"/><stop offset="1" stop-color="#a0a0a0"/></linearGradient><radialGradient cx="185.99995" cy="130.05951" r="50.77276" gradientUnits="userSpaceOnUse" id="color-17"><stop offset="0" stop-color="#adadad"/><stop offset="1" stop-color="#666666"/></radialGradient><radialGradient cx="192.42657" cy="144.99997" r="35.99484" gradientUnits="userSpaceOnUse" id="color-18"><stop offset="0" stop-color="#1e1e1e"/><stop offset="1" stop-color="#171717"/></radialGradient><linearGradient x1="283.91074" y1="98.36414" x2="275.48396" y2="98.23587" gradientUnits="userSpaceOnUse" id="color-19"><stop offset="0" stop-color="#644520"/><stop offset="1" stop-color="#5c401f"/></linearGradient><linearGradient x1="279.65718" y1="102.57148" x2="279.73752" y2="94.02851" gradientUnits="userSpaceOnUse" id="color-20"><stop offset="0" stop-color="#644520"/><stop offset="1" stop-color="#5c401f"/></linearGradient><linearGradient x1="282.66807" y1="101.32968" x2="276.72661" y2="95.27033" gradientUnits="userSpaceOnUse" id="color-21"><stop offset="0" stop-color="#644520"/><stop offset="1" stop-color="#5c401f"/></linearGradient><linearGradient x1="282.71338" y1="95.31695" x2="276.68132" y2="101.28308" gradientUnits="userSpaceOnUse" id="color-22"><stop offset="0" stop-color="#644520"/><stop offset="1" stop-color="#5c401f"/></linearGradient><linearGradient x1="311.94997" y1="98.25015" x2="247.44473" y2="98.34986" gradientUnits="userSpaceOnUse" id="color-23"><stop offset="0" stop-color="#e08200"/><stop offset="1" stop-color="#82491d"/></linearGradient><linearGradient x1="286.68345" y1="98.28921" x2="272.71124" y2="98.31081" gradientUnits="userSpaceOnUse" id="color-24"><stop offset="0" stop-color="#636363"/><stop offset="1" stop-color="#3a3a3a"/></linearGradient><linearGradient x1="286.68345" y1="98.28921" x2="272.71124" y2="98.31081" gradientUnits="userSpaceOnUse" id="color-25"><stop offset="0" stop-color="#adadad"/><stop offset="1" stop-color="#7e7e7e"/></linearGradient><radialGradient cx="224.28729" cy="96.19422" r="20.5" gradientUnits="userSpaceOnUse" id="color-26"><stop offset="0" stop-color="#454545"/><stop offset="1" stop-color="#2f2f2f"/></radialGradient><radialGradient cx="259.39375" cy="95.34181" r="6.16667" gradientUnits="userSpaceOnUse" id="color-27"><stop offset="0" stop-color="#939393"/><stop offset="1" stop-color="#454545"/></radialGradient><radialGradient cx="260.73337" cy="98.08875" r="6.16667" gradientUnits="userSpaceOnUse" id="color-28"><stop offset="0" stop-color="#636363"/><stop offset="1" stop-color="#232323"/></radialGradient></defs><g transform="translate(-171.50034,-28.33301)"><g data-paper-data="{&quot;isPaintingLayer&quot;:true}" fill-rule="nonzero" stroke-linejoin="miter" stroke-miterlimit="10" stroke-dasharray="" stroke-dashoffset="0" style="mix-blend-mode: normal"><path d="M236.92521,174.0427v-76.07898h44.2092l14.54429,76.75546z" fill-opacity="0.00392" fill="#ffffff" stroke="url(#color-1)" stroke-width="2.5" stroke-linecap="butt"/><path d="M184.57068,60.27196l-0.01116,-0.00721l-0.00673,-0.02879c-0.06635,-0.14001 -0.10619,-0.30146 -0.11091,-0.47446l-0.0092,-0.33834l0.0215,-0.12222l-0.00339,-0.12495l0.02651,-0.15067l-0.0204,-0.75025l-0.05796,-0.40033l0.00418,-0.0729l-0.01642,-0.07028l-0.00024,-0.00903l-0.00935,-0.02893l-0.06268,-0.11196l-0.04038,-0.13308l-0.26712,-0.60198l-0.01491,-0.07079l-0.03377,-0.06035l-0.08311,-0.27394l-0.05151,-0.08788l-0.04079,-0.12616l-0.06268,-0.11196l-0.18268,-0.60225l-0.01466,-0.16226l-0.03669,-0.15699l-0.00213,-0.07805l-0.03464,-0.1482l-0.00339,-0.12494l-0.0281,-0.12021l-0.00104,-0.0383l-0.01402,-0.04624l-0.01466,-0.16226l-0.03669,-0.15699l-0.03495,-1.28561l0.0215,-0.12222l-0.00339,-0.12495l0.02651,-0.15069l-0.00764,-0.28105l0.0215,-0.12222l-0.00339,-0.12495l0.04386,-0.24927l0.04294,-0.31673l0.0209,-0.05887l0.00228,-0.06411l0.085,-0.34987l0.03774,-0.27819l0.0209,-0.05888l0.00229,-0.06411l0.08115,-0.33408l0.03577,-0.32923l0.0457,-0.14107l0.0229,-0.1491l0.12286,-0.32696l0.07913,-0.38658l0.03663,-0.08386l0.01435,-0.09348l0.44066,-1.17257l0.18264,-0.75179l0.04655,-0.09631l0.02373,-0.10798l0.12459,-0.27395l0.0789,-0.26628l0.03756,-0.06821l0.01744,-0.07943l0.15694,-0.34504l0.0298,-0.03896l0.0156,-0.04978l0.09578,-0.16733l0.1657,-0.55936l0.01968,-0.03573l0.0065,-0.04238l0.54405,-1.44772l0.11597,-0.47737l0.0819,-0.6774l0.0271,-0.08022l0.00502,-0.08658l0.16781,-0.628l0.02894,-0.61499l0.01346,-0.0527l-0.00364,-0.055l0.09016,-0.66497l0.08209,-0.75574l0.02847,-0.79806l-0.06365,-2.34073l-0.05733,-0.48347l-0.10631,-0.45486l-0.1194,-0.45306l-0.00094,-0.01735l-0.00709,-0.01505l-0.04725,-0.20214l-0.09729,-0.2707l-0.00419,-0.03011l-0.01411,-0.02522l-0.08311,-0.27394l-0.05151,-0.08791l-0.02176,-0.06734l-0.01335,-0.00271l-0.06029,-0.10768l-0.08334,-0.08158l-0.00564,-0.07734l-0.09258,-0.16536l-0.00805,-0.02657l-0.00075,-0.0014l-0.06306,-0.06554l-0.11629,-0.19851l-0.04079,-0.12614l-0.03824,-0.06833l-0.10275,-0.11745l-0.0725,-0.13711l-0.09027,-0.12033l-0.05906,-0.13308l-0.00822,-0.03902l-0.11575,-0.11334l-0.00367,-0.05047l-0.04584,-0.06113l-0.05906,-0.13308l-0.10676,-0.50688l0.12033,-0.23724l0.00509,-0.27904l0.3158,-0.35363l0.06125,-0.04057l0.00435,-0.01007l0.02297,-0.00803l0.02035,-0.01349l0.18495,-0.05817l0.18364,-0.0641l0.02314,-0.00093l0.02311,-0.00728l0.00793,0.00601l1.39503,-0.05663l0.43816,-0.07755l0.37303,-0.08065l0.05967,0.00511l0.05752,-0.02008l0.28538,-0.01158l0.1213,-0.04234l0.10226,-0.00417l0.0984,-0.03432l0.11076,-0.00451l0.10004,0.0263l0.10226,-0.00415l0.22335,0.05868l0.08216,0.04931l0.08996,0.02064l0.12561,0.07045l0.05699,-0.0215l0.09334,0.06338l0.1044,0.02744l0.03335,0.06609l0.14277,0.09693l0.0642,0.0233l0.09558,0.06897l0.10572,0.04136l0.16981,0.12856l0.0577,0.07255l0.07236,0.04913l0.05433,0.06215l0.09987,0.07559l0.0577,0.07255l0.07236,0.04913l0.11445,0.13083l0.04493,0.08494l0.06306,0.06554l0.01954,0.03333l0.02853,0.02162l0.0577,0.07254l0.07236,0.04913l0.11444,0.13087l0.04493,0.08497l0.06307,0.06554l0.21913,0.37407l0.50605,0.76978l0.04589,0.12171l0.06715,0.10599l0.07576,0.21084l0.10466,0.1592l0.04589,0.12171l0.06714,0.10599l0.10606,0.29514l0.08641,0.19473l0.15802,0.29883l0.02955,0.10586l0.05167,0.09233l0.04038,0.13308l0.08996,0.20271l0.02283,0.10832l0.04572,0.09688l0.30494,1.30453l0.04981,0.16416l0.00357,0.03959l0.01629,0.03448l0.11671,0.49932l0.04981,0.16417l0.01466,0.16227l0.03669,0.15694l0.00396,0.14572l0.03464,0.14824l0.00067,0.02473l0.00929,0.02199l0.06457,0.33609l-0.00022,0.01683l0.0059,0.01518l0.04871,0.29609l0.08383,0.23333l0.01291,0.09264l0.03521,0.08356l0.06459,0.33604l-0.0002,0.0168l0.00589,0.0152l0.05357,0.32563l0.09913,0.32677l0.00725,0.08008l0.02826,0.07278l0.05357,0.32563l0.09913,0.32677l0.00576,0.06377l0.02404,0.05704l0.05276,0.2745l0.10381,0.34223l0.00357,0.03956l0.01629,0.03452l0.04724,0.20213l0.0531,0.14773l0.37732,0.57392l0.12973,0.11084l0.06916,0.09722l0.08592,0.07461l0.20078,0.2866l0.83876,0.95892l0.17863,0.15265l0.07751,0.10896l0.09412,0.08727l0.13652,0.20764l0.24296,0.27775l0.04492,0.08497l0.06306,0.06554l0.03342,0.05704l0.11037,0.09431l0.0923,0.12979l0.10722,0.11135l0.23255,0.39699l0.01931,0.05969l0.03548,0.0473l0.0824,0.18567l0.12657,0.19252l0.03162,0.08383l0.05105,0.06806l0.11812,0.26616l0.0088,0.04174l0.02159,0.03407l0.10606,0.29514l0.21975,0.49517l0.0088,0.04173l0.02159,0.03407l0.10606,0.2951l0.10164,0.22902l0.0088,0.04173l0.02159,0.03407l0.11996,0.33382l0.0096,0.06889l0.02856,0.06053l0.02878,0.12311l0.10822,0.20465l0.02955,0.10586l0.05167,0.09233l0.1218,0.40147l0.00724,0.08008l0.02829,0.07275l0.04668,0.2838l0.13654,0.35613l0.02243,0.14009l0.04577,0.13135l0.06005,0.46171l0.10399,0.3946l0.00382,0.07012l0.02347,0.06419l0.13484,0.93117l0.06452,0.3922l-0.00325,0.08478l0.01908,0.08163l0.04049,1.48858l-0.0174,0.09889l0.00669,0.10082l-0.04619,0.34057l-0.0209,0.05888l-0.00229,0.0641l-0.06134,0.2525l0.00471,0.17363l-0.00703,0.03994l0.01342,0.03022l-0.05707,0.21784l-0.03935,0.22364l-0.02397,0.01806l-0.01021,0.0389l-0.02941,0.05796l-0.01775,0.10096l-0.06273,0.15595l-0.04337,0.16552l-0.04662,0.0919l-0.01819,0.07488l-0.05645,0.11677l-0.03384,0.12919l-0.07798,0.15373l-0.03011,0.0801l-0.08352,0.12741l-0.0649,0.14269l-0.47916,0.62571l-0.13987,0.27576l-0.0818,0.21767l-0.04242,0.06471l-0.00092,0.05067l-0.05766,0.06456l-0.00422,0.02756l-0.00966,0.02569l-0.00502,0.02853l-0.00795,0.00599l-0.18417,0.49009l-0.04242,0.06471l-0.00092,0.05066l-0.12146,0.13602l-0.0389,0.05931l-0.00025,0.0144l-0.03456,0.03868l-0.02929,0.04469l-0.01175,0.00129l-0.04587,0.05136l-0.0389,0.05932l-0.00026,0.0144l-0.03455,0.03868l-0.02929,0.04468l-0.01175,0.00131l-0.04587,0.05136l-0.10301,0.15711l-0.0413,0.00449l-0.05004,0.05602l-0.10891,0.07216l-0.05794,0.01821l-0.04938,0.04129l-0.3286,0.14881l-0.10856,0.01464l-0.00382,0.00253l-0.18494,0.05817l-0.18364,0.0641l-0.02315,0.00093l-0.02311,0.00727l-0.00793,-0.00601l-0.02968,0.0012l-0.14456,0.04149l-0.11577,0.05245l-0.1328,0.01791l-0.12847,0.04481l-0.25286,0.01027l-0.03782,0.01714l-0.1328,0.01791l-0.12847,0.04481l-0.03136,0.00129l-0.03781,0.01714l-0.0324,0.00439l-0.02824,0.0199l-0.21966,0.07667l-0.10226,0.00415l-0.0984,0.03435l-0.19747,0.00803l-0.03782,0.01712l-0.03239,0.00436l-0.02824,0.0199l-0.21967,0.07667l-0.10227,0.00415l-0.09839,0.03435l-0.47153,0.01913l-0.19493,0.05589l-0.08277,-0.00145l-0.07961,0.02778l-6.81162,0.27648l-0.13062,-0.03431l-0.13348,-0.0071l-0.33595,-0.12185l-0.02046,-0.01477l-0.05074,0.00207l-0.0076,0.00663l-0.02346,-0.00541l-0.02315,0.00094l-0.18672,-0.04906l-0.18769,-0.04302l-0.02104,-0.01181l-0.02333,-0.00613l-0.0049,-0.00969l-0.06334,-0.03554l-0.33431,-0.32721l-0.0362,-0.49725l-0.00078,-0.00152l0.00056,-0.00129l-0.02256,-0.30999c-0.20581,-0.06506 -0.38156,-0.22439 -0.49333,-0.43914z" fill="url(#color-2)" stroke="none" stroke-width="0.5" stroke-linecap="butt"/><path d="M184.35726,60.59495l-0.01158,-0.00883l-0.00538,-0.03173c-0.06243,-0.15746 -0.09489,-0.3355 -0.08865,-0.52255l0.01215,-0.36582l0.03118,-0.12973l0.00451,-0.13511l0.03843,-0.15993l0.02697,-0.8112l-0.0364,-0.43744l0.00926,-0.07826l-0.01313,-0.07739l0.00032,-0.00975l-0.0082,-0.03213l-0.0603,-0.12689l-0.03486,-0.14747l-0.24884,-0.67531l-0.01147,-0.07778l-0.03248,-0.06837l-0.07177,-0.30362l-0.04981,-0.09981l-0.03577,-0.14005l-0.0603,-0.12686l-0.15776,-0.66738l-0.00523,-0.17643l-0.02934,-0.17291l0.00282,-0.08437l-0.02769,-0.16323l0.00451,-0.13511l-0.02245,-0.1324l0.00139,-0.04142l-0.01209,-0.05122l-0.00523,-0.17645l-0.02934,-0.17288l0.0462,-1.39008l0.03118,-0.12973l0.00451,-0.13513l0.03843,-0.15994l0.01011,-0.30387l0.03118,-0.12973l0.00451,-0.13511l0.06359,-0.26462l0.06699,-0.33742l0.02637,-0.06146l0.00664,-0.06894l0.11451,-0.36906l0.05884,-0.29638l0.02639,-0.06146l0.00664,-0.06892l0.10936,-0.35245l0.06006,-0.35166l0.0585,-0.14768l0.03442,-0.1586l0.15387,-0.3407l0.11058,-0.40924l0.04498,-0.0869l0.02157,-0.09939l0.55182,-1.22183l0.24606,-0.79307l0.05649,-0.09931l0.03264,-0.11422l0.15227,-0.28332l0.10246,-0.27954l0.04497,-0.06995l0.024,-0.08395l0.19179,-0.35691l0.0347,-0.03909l0.02005,-0.0522l0.11423,-0.17114l0.21522,-0.58718l0.02357,-0.03665l0.00979,-0.04504l0.6813,-1.50857l0.15624,-0.50357l0.13254,-0.72267l0.03448,-0.08388l0.01105,-0.0929l0.22199,-0.66099l0.07136,-0.66052l0.01795,-0.05552l-0.00035,-0.05968l0.14065,-0.7085l0.13787,-0.80711l0.08278,-0.85803l0.08412,-2.53092l-0.03027,-0.52704l-0.08499,-0.50098l-0.09921,-0.50029l0.00011,-0.0188l-0.00668,-0.01693l-0.03777,-0.22263l-0.08727,-0.30149l-0.00257,-0.03286l-0.01358,-0.02855l-0.07177,-0.30361l-0.04981,-0.09982l-0.0191,-0.07475l-0.01421,-0.00421l-0.05801,-0.12205l-0.08457,-0.09613l-0.00103,-0.084l-0.08907,-0.18737l-0.00696,-0.02941l-0.00072,-0.0016l-0.06374,-0.07682l-0.11246,-0.22543l-0.03576,-0.14003l-0.03679,-0.07739l-0.10314,-0.13672l-0.06926,-0.15496l-0.08951,-0.13861l-0.05503,-0.14932l-0.00632,-0.04289l-0.11746,-0.1335l-0.00067,-0.05478l-0.04547,-0.07039l-0.05501,-0.14932l-0.08207,-0.55715l0.14529,-0.24417l0.0237,-0.30051l0.36371,-0.35063l0.06871,-0.03781l0.00537,-0.01047l0.02527,-0.00639l0.02284,-0.01257l0.20329,-0.04471l0.20225,-0.05122l0.02502,0.00122l0.02539,-0.00558l0.00816,0.00727l1.50839,0.07482l0.47768,-0.04095l0.40761,-0.05062l0.06404,0.01129l0.06336,-0.01603l0.30858,0.01532l0.13359,-0.03383l0.11059,0.00547l0.10835,-0.02745l0.11975,0.00594l0.10618,0.03807l0.11058,0.00549l0.23708,0.08503l0.08538,0.0612l0.09569,0.03101l0.13087,0.08825l0.06286,-0.0176l0.09657,0.07744l0.11083,0.03977l0.03166,0.07455l0.14767,0.11848l0.06772,0.03138l0.09861,0.08371l0.11134,0.0549l0.17477,0.15523l0.05749,0.08384l0.07486,0.06001l0.05455,0.07231l0.10278,0.09131l0.05748,0.08384l0.07484,0.06003l0.1149,0.15223l0.04291,0.09603l0.06374,0.07682l0.01889,0.03785l0.02936,0.02605l0.05749,0.08384l0.07484,0.06003l0.1149,0.15223l0.04291,0.09603l0.06374,0.07682l0.21195,0.42481l0.49559,0.87959l0.04155,0.13573l0.0655,0.12087l0.06795,0.2348l0.1025,0.18192l0.04155,0.13578l0.0655,0.12087l0.09514,0.32867l0.08052,0.21845l0.15092,0.33773l0.02495,0.11704l0.04973,0.10458l0.03486,0.14748l0.0838,0.22741l0.01754,0.11904l0.04301,0.10896l0.24376,1.43682l0.04301,0.18193l0.00128,0.04303l0.0153,0.03879l0.0933,0.54994l0.04301,0.18193l0.00522,0.17643l0.02934,0.17288l-0.00523,0.15753l0.02769,0.16319l-0.00088,0.02674l0.00857,0.02464l0.04772,0.36877l-0.0013,0.01812l0.00537,0.01693l0.03321,0.32416l0.0752,0.25982l0.00789,0.10112l0.03253,0.09356l0.04772,0.36877l-0.0013,0.01812l0.00537,0.01693l0.03653,0.35644l0.0856,0.36214l0.00258,0.08707l0.02575,0.08124l0.03653,0.35644l0.0856,0.36213l0.00206,0.06935l0.02222,0.06389l0.03898,0.30125l0.08964,0.37922l0.00128,0.04303l0.01532,0.03877l0.03776,0.22263l0.04763,0.16456l0.36949,0.6558l0.1327,0.13222l0.06826,0.11162l0.08781,0.08885l0.19785,0.3287l0.84211,1.11603l0.18271,0.18206l0.07651,0.12506l0.09584,0.10332l0.13369,0.23726l0.24394,0.32328l0.04291,0.09601l0.06374,0.07682l0.03233,0.06479l0.11288,0.11249l0.09111,0.14898l0.10837,0.13059l0.22493,0.45085l0.01692,0.06624l0.03518,0.05449l0.07677,0.20832l0.12395,0.21998l0.02863,0.09353l0.05062,0.07839l0.11004,0.29858l0.00675,0.04589l0.02106,0.03885l0.09514,0.3287l0.20471,0.55553l0.00675,0.04587l0.02106,0.03886l0.09514,0.32867l0.09469,0.25694l0.00675,0.04587l0.02106,0.03885l0.10761,0.37179l0.00587,0.07524l0.02686,0.06804l0.02299,0.13556l0.10337,0.23126l0.02495,0.11705l0.04973,0.10458l0.10516,0.44493l0.00258,0.08706l0.02575,0.08124l0.03184,0.31066l0.12403,0.39745l0.01505,0.15332l0.04079,0.14612l0.03462,0.50388l0.08641,0.43573l-0.00045,0.07605l0.02113,0.07153l0.08466,1.0175l0.044,0.42928l-0.00902,0.09113l0.01525,0.08989l-0.05349,1.60957l-0.02523,0.10498l0.00063,0.10939l-0.07204,0.36285l-0.02639,0.06147l-0.00664,0.06892l-0.08264,0.26637l-0.00624,0.18774l-0.01019,0.04239l0.01251,0.03395l-0.07578,0.2294l-0.05705,0.23739l-0.02704,0.01716l-0.01354,0.04095l-0.0355,0.05968l-0.02573,0.10713l-0.07784,0.16215l-0.05759,0.17428l-0.05626,0.09457l-0.0245,0.079l-0.06851,0.12047l-0.04495,0.13605l-0.09414,0.15821l-0.0377,0.08347l-0.09841,0.12931l-0.07931,0.14757l-0.55767,0.62819l-0.16886,0.2838l-0.10245,0.22684l-0.04999,0.06567l-0.00431,0.05454l-0.06641,0.06402l-0.00636,0.02935l-0.01209,0.0268l-0.00728,0.03025l-0.00896,0.0057l-0.23063,0.51067l-0.04999,0.06567l-0.00431,0.05454l-0.13988,0.13487l-0.04583,0.06018l-0.00123,0.01552l-0.03979,0.03834l-0.03452,0.04534l-0.01275,0.00024l-0.05281,0.05092l-0.04583,0.06018l-0.00122,0.01552l-0.03979,0.03837l-0.03452,0.04534l-0.01275,0.00024l-0.05282,0.05092l-0.12136,0.15943l-0.04485,0.00079l-0.05761,0.05558l-0.12219,0.06723l-0.0637,0.01401l-0.05595,0.03966l-0.36414,0.12851l-0.11803,0.00521l-0.00428,0.00234l-0.20327,0.04471l-0.20225,0.05122l-0.02502,-0.00125l-0.02542,0.00558l-0.00816,-0.00725l-0.0321,-0.00158l-0.15863,0.03064l-0.1283,0.04527l-0.14442,0.00639l-0.14149,0.03586l-0.27341,-0.01356l-0.04192,0.01481l-0.14442,0.00639l-0.14149,0.03585l-0.03388,-0.00168l-0.04192,0.01481l-0.03523,0.00157l-0.03175,0.0187l-0.24195,0.06128l-0.11058,-0.00547l-0.10837,0.02745l-0.21352,-0.0106l-0.04192,0.01481l-0.03523,0.00155l-0.03175,0.01873l-0.24195,0.06128l-0.11058,-0.00549l-0.10837,0.02745l-0.50985,-0.02527l-0.21391,0.04134l-0.08919,-0.00964l-0.08767,0.0222l-7.36518,-0.36544l-0.13865,-0.04976l-0.14351,-0.02065l-0.35441,-0.16415l-0.02112,-0.01791l-0.05485,-0.00272l-0.00863,0.00639l-0.02495,-0.00809l-0.02502,-0.00127l-0.19818,-0.07108l-0.19964,-0.06471l-0.02194,-0.01478l-0.02477,-0.00889l-0.00465,-0.01097l-0.06598,-0.04447l-0.33923,-0.38552l-0.00658,-0.53985l-0.00072,-0.00172l0.00069,-0.00134l-0.0041,-0.33657c-0.21773,-0.09021 -0.39692,-0.27917 -0.50345,-0.52169z" fill="url(#color-3)" stroke="none" stroke-width="0.5" stroke-linecap="butt"/><path d="M184.54034,59.39752l-0.00998,-0.00946l-0.00252,-0.02982c-0.04534,-0.152 -0.06156,-0.31944 -0.0415,-0.4908l0.03922,-0.33509l0.03862,-0.11576l0.01448,-0.12375l0.04761,-0.14272l0.08696,-0.74309l0.00004,-0.40655l0.01452,-0.0709l-0.00614,-0.07271l0.00105,-0.00894l-0.00509,-0.03049l-0.04575,-0.12361l-0.02076,-0.13965l-0.17715,-0.64967l-0.00458,-0.07286l-0.02465,-0.06661l-0.04275,-0.28748l-0.03816,-0.09754l-0.02216,-0.13291l-0.04575,-0.12361l-0.09397,-0.63193l0.00872,-0.16291l-0.01374,-0.16237l0.00906,-0.07732l-0.01295,-0.1533l0.01448,-0.12377l-0.01052,-0.12438l0.00443,-0.03793l-0.00721,-0.04848l0.00872,-0.16293l-0.01373,-0.16237l0.14904,-1.27338l0.03861,-0.11576l0.01448,-0.12375l0.0476,-0.14272l0.03256,-0.27833l0.03862,-0.11576l0.01448,-0.12375l0.07875,-0.23611l0.08749,-0.30271l0.02898,-0.05351l0.0114,-0.06262l0.13362,-0.32642l0.07685,-0.26591l0.02897,-0.05351l0.0114,-0.06263l0.12759,-0.31168l0.08219,-0.31659l0.06512,-0.12916l0.04382,-0.14197l0.16764,-0.29573l0.13309,-0.36378l0.04803,-0.07478l0.02746,-0.08898l0.60122,-1.06074l0.28711,-0.70136l0.05958,-0.08488l0.03878,-0.10133l0.16177,-0.2432l0.1157,-0.24544l0.04674,-0.05914l0.02851,-0.07451l0.20378,-0.30632l0.03492,-0.03199l0.02245,-0.04571l0.11819,-0.14437l0.24299,-0.51546l0.02449,-0.03101l0.01244,-0.04031l0.7423,-1.30968l0.1823,-0.44534l0.17731,-0.64958l0.03813,-0.07322l0.01729,-0.08414l0.25486,-0.58268l0.11626,-0.5994l0.02076,-0.04901l0.00428,-0.05495l0.18368,-0.6356l0.18866,-0.72665l0.14192,-0.77978l0.27137,-2.31843l0.01254,-0.48825l-0.03978,-0.47057l-0.05292,-0.47155l0.00155,-0.01724l-0.00485,-0.01635l-0.01767,-0.20913l-0.05715,-0.2873l0.00016,-0.03053l-0.01029,-0.02781l-0.04276,-0.28748l-0.03816,-0.09755l-0.01183,-0.07096l-0.01275,-0.00552l-0.044,-0.11889l-0.07042,-0.09808l0.00549,-0.07737l-0.06757,-0.18253l-0.00413,-0.02784l-0.00055,-0.00157l-0.05276,-0.07798l-0.08616,-0.22021l-0.02217,-0.13291l-0.0279,-0.07542l-0.0844,-0.13757l-0.05182,-0.15047l-0.07171,-0.13774l-0.03916,-0.14362l-0.00252,-0.04018l-0.0978,-0.13623l0.00357,-0.05047l-0.03642,-0.06996l-0.03917,-0.14364l-0.03278,-0.52186l0.15234,-0.20798l0.04483,-0.27369l0.36142,-0.28092l0.06611,-0.02692l0.00572,-0.009l0.02376,-0.003l0.02198,-0.00894l0.1904,-0.01787l0.18997,-0.024l0.02292,0.00402l0.02379,-0.00223l0.00696,0.00762l1.38174,0.24142l0.44252,0.01696l0.37882,0.00005l0.05803,0.01775l0.0595,-0.0075l0.28267,0.04937l0.12547,-0.01582l0.10129,0.01766l0.10177,-0.01285l0.1097,0.01914l0.09474,0.0472l0.10128,0.01766l0.21157,0.10534l0.07385,0.06609l0.08565,0.03948l0.11361,0.09613l0.05918,-0.00903l0.08286,0.08229l0.0989,0.04924l0.0234,0.0722l0.12677,0.12588l0.05988,0.03659l0.08429,0.0883l0.09821,0.06325l0.14886,0.16276l0.04645,0.08372l0.06424,0.06378l0.04465,0.07278l0.08754,0.09573l0.04645,0.08372l0.06424,0.06378l0.09401,0.1532l0.03211,0.0932l0.05276,0.07798l0.01447,0.03697l0.02501,0.02732l0.04645,0.08372l0.06424,0.06378l0.09401,0.15325l0.03211,0.0932l0.05276,0.07798l0.16239,0.41501l0.38846,0.86575l0.02783,0.12961l0.05098,0.11865l0.04451,0.22378l0.08033,0.17905l0.02783,0.12961l0.05098,0.11865l0.06232,0.31322l0.05731,0.21018l0.11295,0.32792l0.01399,0.11052l0.0377,0.1019l0.02076,0.13964l0.05966,0.21876l0.00701,0.11152l0.0312,0.10511l0.1141,1.34953l0.02562,0.17226l-0.00214,0.03977l0.01111,0.0374l0.04367,0.51652l0.02562,0.17228l-0.00872,0.16291l0.01373,0.16238l-0.01689,0.14434l0.01297,0.15332l-0.00287,0.02447l0.006,0.02365l0.01563,0.34468l-0.00261,0.0165l0.00366,0.0162l0.00571,0.30195l0.04926,0.2476l-0.00049,0.09394l0.02274,0.08976l0.01563,0.34468l-0.00261,0.0165l0.00364,0.0162l0.00629,0.33201l0.05098,0.34289l-0.0043,0.08038l0.01746,0.07768l0.00627,0.33201l0.05098,0.34291l-0.00343,0.06404l0.01555,0.06129l0.01276,0.28158l0.05339,0.35905l-0.00213,0.03975l0.0111,0.03744l0.01767,0.20912l0.03118,0.15679l0.28962,0.6455l0.11193,0.13681l0.05423,0.11046l0.07396,0.09177l0.15681,0.32496l0.68907,1.12293l0.1541,0.18836l0.06078,0.12379l0.08023,0.10599l0.10478,0.23352l0.19959,0.32525l0.03211,0.09325l0.05276,0.07796l0.02476,0.06326l0.09522,0.11636l0.07238,0.14744l0.08966,0.1325l0.17236,0.44049l0.01049,0.06288l0.02819,0.05416l0.05464,0.20033l0.09716,0.21654l0.01916,0.08928l0.04055,0.07786l0.07832,0.28726l0.0027,0.04297l0.0164,0.03818l0.06232,0.31321l0.14573,0.53442l0.0027,0.04297l0.0164,0.03818l0.06232,0.31322l0.0674,0.24717l0.0027,0.04297l0.0164,0.03813l0.07048,0.35429l-0.00037,0.06984l0.01949,0.06569l0.01077,0.12735l0.07735,0.22456l0.01399,0.11053l0.0377,0.10194l0.06266,0.42126l-0.0043,0.08038l0.01746,0.07766l0.00546,0.28944l0.08364,0.37978l0.00208,0.14276l0.02633,0.13908l-0.00676,0.46742l0.04609,0.41072l-0.00625,0.06985l0.01396,0.0682l-0.00012,0.94565l0.00755,0.39987l-0.01528,0.0828l0.00715,0.08445l-0.17256,1.47444l-0.03125,0.09368l-0.00782,0.10069l-0.09408,0.3255l-0.02897,0.05353l-0.0114,0.06262l-0.09643,0.23555l-0.02012,0.17194l-0.01261,0.03783l0.00889,0.03264l-0.08728,0.20239l-0.07066,0.21183l-0.02618,0.01268l-0.0156,0.03616l-0.03723,0.05081l-0.03188,0.09559l-0.08402,0.14024l-0.06632,0.15373l-0.05902,0.08056l-0.02859,0.06984l-0.07225,0.10298l-0.05176,0.11999l-0.09873,0.13476l-0.04109,0.07247l-0.10044,0.10766l-0.08427,0.12666l-0.5611,0.51404l-0.17708,0.24172l-0.11163,0.19695l-0.051,0.05468l-0.00815,0.04965l-0.06598,0.05129l-0.0081,0.02623l-0.01318,0.02329l-0.00901,0.02698l-0.00866,0.00421l-0.25128,0.44336l-0.051,0.05468l-0.00815,0.04965l-0.13902,0.10805l-0.04676,0.05012l-0.00231,0.01414l-0.03956,0.03075l-0.03523,0.03776l-0.01176,-0.00125l-0.05247,0.04081l-0.04677,0.05012l-0.00231,0.01414l-0.03956,0.03074l-0.03524,0.03779l-0.01175,-0.00127l-0.05249,0.04081l-0.12385,0.13274l-0.04131,-0.00439l-0.05725,0.04449l-0.11754,0.04785l-0.05964,0.0056l-0.05452,0.03011l-0.3448,0.07653l-0.10897,-0.00869l-0.00411,0.00166l-0.1904,0.01787l-0.18996,0.024l-0.02294,-0.00399l-0.0238,0.00221l-0.00696,-0.00762l-0.0294,-0.00514l-0.14827,0.01005l-0.1215,0.02696l-0.13332,-0.01065l-0.1329,0.01679l-0.25044,-0.04377l-0.0397,0.00882l-0.13333,-0.01065l-0.13289,0.01677l-0.03105,-0.00543l-0.0397,0.00881l-0.03252,-0.00258l-0.03063,0.01356l-0.22726,0.02868l-0.10129,-0.01766l-0.10177,0.01285l-0.19559,-0.03419l-0.03969,0.00882l-0.03253,-0.00259l-0.03064,0.01359l-0.22725,0.02868l-0.10129,-0.01766l-0.10177,0.01285l-0.46704,-0.0816l-0.19992,0.01352l-0.0813,-0.01904l-0.08235,0.01038l-6.74675,-1.17887l-0.12373,-0.06162l-0.13041,-0.03541l-0.31342,-0.19153l-0.01804,-0.01892l-0.05025,-0.00877l-0.00841,0.0049l-0.02234,-0.0103l-0.02292,-0.00399l-0.17685,-0.08809l-0.17868,-0.08237l-0.01904,-0.01611l-0.02211,-0.01101l-0.00343,-0.0106l-0.05728,-0.04849l-0.28248,-0.39342l0.03531,-0.49734l-0.00055,-0.00167l0.00073,-0.00117l0.02201,-0.31004c-0.19337,-0.10792 -0.3437,-0.3022 -0.42311,-0.53749z" fill="url(#color-4)" stroke="none" stroke-width="0.5" stroke-linecap="butt"/><path d="M185.27518,59.64021l-0.00993,-0.00743l-0.00483,-0.02698c-0.05441,-0.13364 -0.08341,-0.28517 -0.07949,-0.44483l0.00767,-0.3122l0.02563,-0.11104l0.00283,-0.11532l0.03161,-0.13685l0.01701,-0.69232l-0.03427,-0.3728l0.00733,-0.06683l-0.01177,-0.06589l0.00022,-0.00832l-0.00724,-0.02732l-0.05237,-0.10755l-0.03083,-0.12542l-0.21727,-0.57339l-0.01036,-0.06626l-0.02823,-0.05795l-0.06347,-0.25823l-0.04324,-0.08463l-0.03155,-0.11908l-0.05237,-0.10755l-0.1395,-0.5676l-0.00576,-0.15044l-0.02629,-0.14716l0.00176,-0.07202l-0.02483,-0.13892l0.00283,-0.11532l-0.02014,-0.11272l0.00087,-0.0353l-0.01071,-0.04359l-0.00576,-0.15044l-0.0263,-0.14719l0.02915,-1.18641l0.02563,-0.11103l0.00284,-0.11532l0.0316,-0.13685l0.00638,-0.25933l0.02563,-0.11104l0.00284,-0.11532l0.05228,-0.22643l0.05466,-0.28862l0.02206,-0.05275l0.00516,-0.05888l0.09497,-0.31614l0.04802,-0.25345l0.02205,-0.05275l0.00516,-0.05888l0.09068,-0.30189l0.04864,-0.30063l0.04882,-0.12666l0.0282,-0.13566l0.12874,-0.29232l0.09131,-0.35038l0.03774,-0.07465l0.01766,-0.085l0.46175,-1.04841l0.20405,-0.67929l0.04745,-0.08538l0.02701,-0.09779l0.1278,-0.24338l0.08536,-0.23962l0.03785,-0.06015l0.01987,-0.0719l0.16098,-0.30658l0.02931,-0.03374l0.01673,-0.04473l0.09618,-0.1473l0.17928,-0.5033l0.01984,-0.03151l0.00801,-0.03853l0.57009,-1.29447l0.12958,-0.43133l0.10773,-0.61797l0.0288,-0.07192l0.00875,-0.07939l0.18449,-0.56637l0.056,-0.56426l0.0149,-0.04755l-0.00073,-0.0509l0.11477,-0.60598l0.11166,-0.69006l0.06429,-0.73289l0.0531,-2.16009l-0.02972,-0.44928l-0.07621,-0.42643l-0.08834,-0.42571l-0.00004,-0.01601l-0.00582,-0.01435l-0.03387,-0.18951l-0.07666,-0.25623l-0.00243,-0.028l-0.01179,-0.02421l-0.06348,-0.25823l-0.04322,-0.08462l-0.01684,-0.06354l-0.01217,-0.00348l-0.05038,-0.10344l-0.07286,-0.08108l-0.00148,-0.07163l-0.07737,-0.15886l-0.00614,-0.02501l-0.00065,-0.00137l-0.05495,-0.06482l-0.09761,-0.19106l-0.03155,-0.11908l-0.03196,-0.06567l-0.08901,-0.11548l-0.06022,-0.13142l-0.07739,-0.11727l-0.04804,-0.12674l-0.0057,-0.03652l-0.1012,-0.11261l-0.00098,-0.04674l-0.0393,-0.05956l-0.04804,-0.12674l-0.07412,-0.47439l0.12213,-0.20992l0.018,-0.25658l0.30768,-0.30313l0.05834,-0.03303l0.00451,-0.00896l0.02151,-0.00575l0.0194,-0.01099l0.17309,-0.04036l0.17217,-0.04594l0.02137,0.00075l0.02163,-0.00507l0.00703,0.00612l1.28736,0.04722l0.40719,-0.04022l0.34735,-0.04767l0.05472,0.00895l0.05392,-0.0144l0.26336,0.00968l0.11371,-0.03034l0.09436,0.00348l0.09224,-0.02463l0.10221,0.00376l0.09086,0.03131l0.09436,0.00348l0.20289,0.06996l0.07329,0.05129l0.08185,0.02541l0.1123,0.07384l0.05349,-0.01573l0.08295,0.06502l0.09483,0.03268l0.02755,0.06325l0.12686,0.09945l0.05801,0.02602l0.08474,0.07035l0.09538,0.04561l0.15024,0.13052l0.04965,0.0709l0.06429,0.05042l0.04708,0.0611l0.08835,0.07676l0.04967,0.0709l0.06428,0.05041l0.09914,0.12863l0.03732,0.08145l0.05496,0.06482l0.0164,0.0321l0.02523,0.02192l0.04965,0.0709l0.06429,0.05041l0.09914,0.12863l0.03732,0.08145l0.05496,0.06482l0.18393,0.36009l0.42927,0.7449l0.03646,0.11537l0.05676,0.10238l0.05972,0.19956l0.08878,0.15405l0.03646,0.11538l0.05678,0.10235l0.08357,0.27935l0.0703,0.1855l0.13124,0.28642l0.02217,0.09961l0.04316,0.08868l0.03083,0.12542l0.07317,0.19308l0.01585,0.10135l0.03749,0.09246l0.21856,1.22305l0.03803,0.15474l0.00141,0.03671l0.01335,0.03295l0.08365,0.46813l0.03804,0.15474l0.00576,0.15047l0.0263,0.14718l-0.00331,0.13446l0.02483,0.13896l-0.00057,0.02283l0.0075,0.02095l0.04344,0.31411l-0.00099,0.01546l0.0047,0.0144l0.03074,0.27614l0.06609,0.22083l0.00747,0.08621l0.02843,0.07943l0.04344,0.31405l-0.00098,0.01546l0.0047,0.0144l0.0338,0.30368l0.07569,0.30799l0.00286,0.07425l0.02256,0.06902l0.0338,0.30364l0.07569,0.30797l0.00227,0.05918l0.01942,0.05424l0.03549,0.25654l0.07928,0.32256l0.00141,0.03671l0.01334,0.03294l0.03388,0.18953l0.04184,0.13983l0.32006,0.55537l0.11417,0.11134l0.05905,0.09444l0.07556,0.07484l0.17122,0.27821l0.72665,0.94281l0.15722,0.15331l0.0662,0.10588l0.08252,0.08707l0.11581,0.20094l0.21048,0.27308l0.03732,0.08145l0.05496,0.06482l0.02806,0.05495l0.09714,0.09471l0.07884,0.12608l0.09342,0.11018l0.19523,0.38217l0.01493,0.05633l0.03041,0.0461l0.06702,0.17683l0.10737,0.18629l0.02512,0.07946l0.04377,0.06631l0.09606,0.25348l0.00611,0.03905l0.01825,0.03292l0.08359,0.27939l0.17874,0.47168l0.00611,0.03903l0.01825,0.03292l0.08359,0.27936l0.08266,0.21816l0.00611,0.03903l0.01825,0.03292l0.09454,0.31595l0.00556,0.06411l0.02342,0.05776l0.02061,0.11543l0.08989,0.19618l0.02216,0.09961l0.04318,0.08868l0.093,0.37841l0.00284,0.07425l0.02256,0.06901l0.02946,0.26469l0.10875,0.33769l0.01398,0.1306l0.03587,0.12421l0.03326,0.42943l0.07695,0.37084l0.00016,0.06484l0.01855,0.06078l0.07973,0.86713l0.0407,0.36573l-0.00703,0.07784l0.01367,0.07652l-0.03376,1.3737l-0.02073,0.08983l0.00134,0.09331l-0.05878,0.31034l-0.02206,0.05272l-0.00516,0.05887l-0.06853,0.22815l-0.00394,0.16024l-0.00838,0.03627l0.01091,0.02879l-0.06297,0.19656l-0.0469,0.20314l-0.02294,0.01491l-0.01125,0.0351l-0.02984,0.05129l-0.02118,0.09168l-0.0652,0.13917l-0.04783,0.14933l-0.04731,0.08133l-0.02033,0.06764l-0.05756,0.10355l-0.03733,0.11654l-0.07916,0.13605l-0.03155,0.07163l-0.08299,0.11135l-0.06658,0.12678l-0.4711,0.54204l-0.14197,0.244l-0.08571,0.19463l-0.04217,0.05656l-0.00327,0.04658l-0.05619,0.05534l-0.00521,0.02508l-0.01013,0.02297l-0.006,0.02591l-0.00759,0.00494l-0.19299,0.43821l-0.04217,0.05658l-0.00327,0.04657l-0.11834,0.11659l-0.03865,0.05185l-0.00093,0.01326l-0.03368,0.03315l-0.02912,0.03909l-0.01089,0.00033l-0.04468,0.04401l-0.03865,0.05185l-0.00094,0.01326l-0.03366,0.03315l-0.02912,0.03909l-0.01089,0.00033l-0.04469,0.04401l-0.10234,0.13734l-0.03825,0.00117l-0.04873,0.04803l-0.10375,0.05871l-0.05423,0.01264l-0.04743,0.03448l-0.30972,0.11365l-0.10065,0.00576l-0.00363,0.00206l-0.17309,0.04036l-0.17216,0.04594l-0.02137,-0.00076l-0.02164,0.00507l-0.00701,-0.00611l-0.0274,-0.00099l-0.1351,0.02787l-0.10912,0.04006l-0.12315,0.00703l-0.12046,0.03211l-0.23333,-0.00854l-0.03565,0.01307l-0.12315,0.00703l-0.12044,0.03211l-0.02892,-0.00104l-0.03565,0.01307l-0.03004,0.00172l-0.02695,0.01631l-0.20596,0.05495l-0.09436,-0.00348l-0.09224,0.02463l-0.18223,-0.0067l-0.03565,0.01307l-0.03004,0.00171l-0.02695,0.01632l-0.20595,0.05496l-0.09436,-0.00348l-0.09224,0.02462l-0.43515,-0.01595l-0.18218,0.03761l-0.07615,-0.00727l-0.07463,0.0199l-6.28591,-0.23062l-0.11865,-0.04089l-0.12257,-0.01605l-0.30356,-0.13616l-0.01814,-0.01505l-0.04683,-0.00171l-0.0073,0.00558l-0.02136,-0.00662l-0.02137,-0.00076l-0.16959,-0.05846l-0.17079,-0.05299l-0.01881,-0.01238l-0.0212,-0.00731l-0.00405,-0.00929l-0.0566,-0.03724l-0.29224,-0.32514l-0.00961,-0.46047l-0.00065,-0.00145l0.00059,-0.0012l-0.006,-0.28707c-0.18641,-0.07456 -0.34067,-0.23377 -0.43334,-0.43948z" fill="url(#color-5)" stroke="none" stroke-width="0.5" stroke-linecap="butt"/><path d="M270.59853,123.77683l13.47354,0.17578" fill="none" stroke="#666666" stroke-width="5" stroke-linecap="round"/><path d="M286.34472,136.7849l-21.4278,-0.17578" fill="none" stroke="#666666" stroke-width="5" stroke-linecap="round"/><path d="M259.88463,150.49611h28.73274" fill="none" stroke="#666666" stroke-width="5" stroke-linecap="round"/><path d="M254.85234,164.73468l36.2,-0.17578" fill="none" stroke="#666666" stroke-width="5" stroke-linecap="round"/><path d="M247.775,173.44684l32.56463,-77.13333l15.58537,79.33333" fill="none" stroke="url(#color-6)" stroke-width="5" stroke-linecap="round"/><path d="M291.36667,98.20195c0,6.42823 -5.29796,11.63934 -11.83333,11.63934c-6.53537,0 -11.83333,-5.21111 -11.83333,-11.63934c0,-6.42823 5.29796,-11.63934 11.83333,-11.63934c6.53537,0 11.83333,5.21111 11.83333,11.63934z" fill="url(#color-7)" stroke="url(#color-8)" stroke-width="2.5" stroke-linecap="butt"/><path d="M171.50034,180.21187v-7.07226h137.74932v7.07226z" fill="#312d29" stroke="url(#color-9)" stroke-width="0" stroke-linecap="butt"/><path d="M174.32666,171.83634v-75.27368c0,0 20.78146,0 31.31541,0c10.72844,0 32.48244,0 32.48244,0v75.27368c0,0 -9.62345,3.59201 -31.89343,4.0077c-23.38487,0.4365 -31.90442,-4.0077 -31.90442,-4.0077z" fill="url(#color-10)" stroke="none" stroke-width="0" stroke-linecap="butt"/><path d="M173.93765,97.12601v-16.70732h63.79785v16.70732c0,0 -8.65642,3.97004 -30.9264,4.0623c-23.38487,0.09688 -32.87145,-4.0623 -32.87145,-4.0623z" fill="url(#color-11)" stroke="none" stroke-width="0" stroke-linecap="butt"/><path d="M238.31901,80.71045c0,3.06154 -14.36872,4.94341 -32.09343,4.94341c-17.72472,0 -32.09343,-1.88187 -32.09343,-4.94341c0,-3.06154 14.36872,-5.54341 32.09343,-5.54341c17.72472,0 32.09343,2.48187 32.09343,5.54341z" fill="url(#color-12)" stroke="none" stroke-width="0" stroke-linecap="butt"/><path d="M180.03919,80.62195c0,0 0.27112,-6.54174 1.08146,-10.38605c0.29678,-1.4079 3.60741,-2.65864 4.23461,-4.72813c0.29398,-0.96999 -0.66442,-1.54737 -0.67958,-2.5304c-0.03995,-2.59045 0.59052,-2.2484 0.59052,-2.2484l13.64254,0.0315c0,0 0.31754,-0.81958 0.46052,2.21683c0.03381,0.71821 -1.08238,1.87498 -0.87495,2.60522c0.49979,1.75943 3.90032,3.36172 4.17494,4.59322c0.84008,3.76741 1.54074,10.44624 1.54074,10.44624c0,0 -5.88996,1.71443 -12.02652,1.59251c-5.96994,-0.11861 -12.14423,-1.59251 -12.14423,-1.59251z" fill="url(#color-13)" stroke="none" stroke-width="0" stroke-linecap="butt"/><path d="M219.33427,89.42722c6.00707,0.00627 12.82367,-0.03542 12.82367,-0.03542c0,0 8.70302,-0.31469 8.77925,8.84478c-0.32504,8.96069 -8.8305,9.46415 -8.8305,9.46415c0,0 -7.78529,0.17075 -12.81027,0.1655c-7.24042,-0.00756 -13.00714,-1.3829 -13.09101,-9.23319c-0.08752,-8.19256 5.88844,-9.21338 13.12884,-9.20582z" fill="url(#color-14)" stroke="none" stroke-width="0" stroke-linecap="butt"/><path d="M231.40388,98.76668c0,-5.38083 2.13255,-9.74286 4.76318,-9.74286c2.63063,0 4.76318,4.36202 4.76318,9.74286c0,5.38083 -2.13255,9.74286 -4.76318,9.74286c-2.63063,0 -4.76318,-4.36202 -4.76318,-9.74286z" fill="url(#color-15)" stroke="url(#color-16)" stroke-width="1.5" stroke-linecap="butt"/><path d="M239.42434,145.16855c0,12.43105 0.17643,26.53718 0.17643,26.53718c0,0 0.11245,4.45869 -32.99656,4.65536c-32.39201,-0.63457 -33.18606,-4.68364 -33.18606,-4.68364c0,0 -0.6466,-16.11016 -0.6466,-26.50889c0,-14.98335 4.94977,-26.92288 33.3264,-27.12975c29.61384,-0.2159 33.3264,12.1464 33.3264,27.12975z" fill="url(#color-17)" stroke="none" stroke-width="0" stroke-linecap="butt"/><path d="M230.30126,155.57316c0,8.69916 0.12509,19.25116 0.12509,19.25116c0,0 -0.06314,1.69914 -23.53545,1.83676c-22.96399,-0.44407 -23.58558,-1.90333 -23.58558,-1.90333c0,0 -0.25689,-11.90764 -0.25689,-19.18459c0,-10.48524 3.50909,-18.84043 23.62642,-18.9852c20.99444,-0.15109 23.62642,8.49996 23.62642,18.9852z" fill="url(#color-18)" stroke="none" stroke-width="0" stroke-linecap="butt"/><g><path d="M279.53667,129.5579l0.32134,-62.51583" fill="none" stroke="url(#color-19)" stroke-width="3.5" stroke-linecap="round"/><path d="M310.53259,98.29416l-61.67047,0.01167" fill="none" stroke="url(#color-20)" stroke-width="3.5" stroke-linecap="round"/><path d="M301.35304,76.04881l-43.31139,44.50238" fill="none" stroke="url(#color-21)" stroke-width="3.5" stroke-linecap="round"/><path d="M301.44604,120.45965l-43.49739,-44.3193" fill="none" stroke="url(#color-22)" stroke-width="3.5" stroke-linecap="round"/><path d="M247.44473,98.34986c-0.02751,-17.79735 14.39018,-32.24728 32.2028,-32.27481c17.81263,-0.02754 32.27492,14.37776 32.30244,32.17511c0.02751,17.79735 -14.39019,32.24729 -32.20281,32.27482c-17.81263,0.02754 -32.27492,-14.37776 -32.30242,-32.17511z" fill="none" stroke="url(#color-23)" stroke-width="3.5" stroke-linecap="butt"/><path d="M272.71124,98.31081c-0.0059,-3.81918 3.11708,-6.92007 6.97541,-6.92604c3.85832,-0.00597 6.99088,3.08527 6.99678,6.90443c0.0059,3.81918 -3.11708,6.92007 -6.97541,6.92603c-3.85832,0.00597 -6.9909,-3.08525 -6.9968,-6.90443z" fill="url(#color-24)" stroke="url(#color-25)" stroke-width="1" stroke-linecap="butt"/></g><path d="M255.04119,97.87399l-17.07237,0.81607" fill="none" stroke="url(#color-26)" stroke-width="6" stroke-linecap="round"/><path d="M266.90002,98.07467c-0.0162,6.34938 -2.75119,4.25629 -6.15694,4.26407c-3.40576,0.00778 -5.91773,-1.89087 -6.0097,-4.23628c-0.17698,-4.5135 3.08605,-3.59038 6.49179,-3.59818c3.40576,-0.00778 5.69104,-2.7751 5.67485,3.57038z" fill="url(#color-27)" stroke="url(#color-28)" stroke-width="0" stroke-linecap="butt"/></g></g></svg>