<svg version="1.1" xmlns="http://www.w3.org/2000/svg" xmlns:xlink="http://www.w3.org/1999/xlink" width="134.49932" height="185.47303" viewBox="0,0,134.49932,185.47303"><defs><linearGradient x1="238.37151" y1="-1.42505" x2="240.79677" y2="75.25461" gradientUnits="userSpaceOnUse" id="color-1"><stop offset="0" stop-color="#4a4a4a" stop-opacity="0"/><stop offset="1" stop-color="#4a4a4a" stop-opacity="0.43529"/></linearGradient><linearGradient x1="244.72977" y1="-4.83308" x2="241.52414" y2="78.07801" gradientUnits="userSpaceOnUse" id="color-2"><stop offset="0" stop-color="#292929" stop-opacity="0"/><stop offset="1" stop-color="#292929" stop-opacity="0.43529"/></linearGradient><linearGradient x1="250.0656" y1="0.94386" x2="239.72524" y2="76.89314" gradientUnits="userSpaceOnUse" id="color-3"><stop offset="0" stop-color="#383838" stop-opacity="0"/><stop offset="1" stop-color="#383838" stop-opacity="0.34118"/></linearGradient><radialGradient cx="241.40213" cy="39.27357" r="35.53768" gradientUnits="userSpaceOnUse" id="color-4"><stop offset="0" stop-color="#4a4a4a" stop-opacity="0"/><stop offset="1" stop-color="#4a4a4a" stop-opacity="0.41176"/></radialGradient><linearGradient x1="205.37625" y1="125.56928" x2="276.30167" y2="125.56928" gradientUnits="userSpaceOnUse" id="color-5"><stop offset="0" stop-color="#909090"/><stop offset="1" stop-color="#2f2f2f"/></linearGradient><linearGradient x1="179.86976" y1="149.52782" x2="226.48389" y2="149.52782" gradientUnits="userSpaceOnUse" id="color-6"><stop offset="0" stop-color="#3f3f3f"/><stop offset="1" stop-color="#313131"/></linearGradient><linearGradient x1="203.17683" y1="119.3976" x2="203.17683" y2="179.65803" gradientUnits="userSpaceOnUse" id="color-7"><stop offset="0" stop-color="#348317"/><stop offset="1" stop-color="#3c5b0d"/></linearGradient><radialGradient cx="239.34745" cy="135.4747" r="27.13216" gradientUnits="userSpaceOnUse" id="color-8"><stop offset="0" stop-color="#93bee8"/><stop offset="1" stop-color="#647fba"/></radialGradient><linearGradient x1="250.06522" y1="124.50849" x2="250.06522" y2="178.76799" gradientUnits="userSpaceOnUse" id="color-9"><stop offset="0" stop-color="#348317"/><stop offset="1" stop-color="#3c5b0d"/></linearGradient><radialGradient cx="276.1459" cy="136.63371" r="27.13216" gradientUnits="userSpaceOnUse" id="color-10"><stop offset="0" stop-color="#93bee8"/><stop offset="1" stop-color="#647fba"/></radialGradient><linearGradient x1="286.88595" y1="124.613" x2="286.88595" y2="178.8725" gradientUnits="userSpaceOnUse" id="color-11"><stop offset="0" stop-color="#348317"/><stop offset="1" stop-color="#3c5b0d"/></linearGradient><linearGradient x1="250.34823" y1="113.49719" x2="250.34823" y2="125.57587" gradientUnits="userSpaceOnUse" id="color-12"><stop offset="0" stop-color="#348317"/><stop offset="1" stop-color="#3c5b0d"/></linearGradient><linearGradient x1="287.79907" y1="113.77674" x2="287.79907" y2="125.85541" gradientUnits="userSpaceOnUse" id="color-13"><stop offset="0" stop-color="#348317"/><stop offset="1" stop-color="#3c5b0d"/></linearGradient><linearGradient x1="219.3546" y1="78.82827" x2="261.36857" y2="78.82827" gradientUnits="userSpaceOnUse" id="color-14"><stop offset="0" stop-color="#ffe83c"/><stop offset="1" stop-color="#a67b00"/></linearGradient><linearGradient x1="240.36159" y1="75.20638" x2="240.36159" y2="82.45017" gradientUnits="userSpaceOnUse" id="color-15"><stop offset="0" stop-color="#348317"/><stop offset="1" stop-color="#3c5b0d"/></linearGradient><linearGradient x1="219.13907" y1="91.36182" x2="261.15305" y2="91.36182" gradientUnits="userSpaceOnUse" id="color-16"><stop offset="0" stop-color="#ffe83c"/><stop offset="1" stop-color="#a67b00"/></linearGradient><linearGradient x1="240.14606" y1="87.73992" x2="240.14606" y2="94.98371" gradientUnits="userSpaceOnUse" id="color-17"><stop offset="0" stop-color="#348317"/><stop offset="1" stop-color="#3c5b0d"/></linearGradient><linearGradient x1="174.11977" y1="163.90282" x2="231.23389" y2="163.90282" gradientUnits="userSpaceOnUse" id="color-18"><stop offset="0" stop-color="#4a4a4a"/><stop offset="1" stop-color="#373737"/></linearGradient><linearGradient x1="202.67684" y1="148.1476" x2="202.67684" y2="179.65803" gradientUnits="userSpaceOnUse" id="color-19"><stop offset="0" stop-color="#348317"/><stop offset="1" stop-color="#3c5b0d"/></linearGradient><linearGradient x1="182.86977" y1="132.83015" x2="223.48389" y2="132.83015" gradientUnits="userSpaceOnUse" id="color-20"><stop offset="0" stop-color="#ff458a"/><stop offset="1" stop-color="#ff0053"/></linearGradient><linearGradient x1="203.17683" y1="125.3976" x2="203.17683" y2="140.2627" gradientUnits="userSpaceOnUse" id="color-21"><stop offset="0" stop-color="#348317"/><stop offset="1" stop-color="#3c5b0d"/></linearGradient><linearGradient x1="176.86977" y1="163.99682" x2="227.23389" y2="163.99682" gradientUnits="userSpaceOnUse" id="color-22"><stop offset="0" stop-color="#ff458a"/><stop offset="1" stop-color="#ff0053"/></linearGradient><linearGradient x1="202.05184" y1="156.56426" x2="202.05184" y2="171.42937" gradientUnits="userSpaceOnUse" id="color-23"><stop offset="0" stop-color="#348317"/><stop offset="1" stop-color="#3c5b0d"/></linearGradient><linearGradient x1="239.99999" y1="179.02045" x2="239.99999" y2="180.33096" gradientUnits="userSpaceOnUse" id="color-24"><stop offset="0" stop-color="#348317"/><stop offset="1" stop-color="#3c5b0d"/></linearGradient></defs><g transform="translate(-172.75034,5.14206)"><g data-paper-data="{&quot;isPaintingLayer&quot;:true}" fill-rule="nonzero" stroke-linecap="butt" stroke-linejoin="miter" stroke-miterlimit="10" stroke-dasharray="" stroke-dashoffset="0" style="mix-blend-mode: normal"><path d="M220.09683,71.21772l-0.03104,-0.01722l-0.01873,-0.06889c-0.18451,-0.33473 -0.29533,-0.72072 -0.30841,-1.13432l-0.02559,-0.80885l0.05981,-0.29221l-0.00945,-0.29873l0.07374,-0.36025l-0.05674,-1.79363l-0.1612,-0.95713l0.01161,-0.17432l-0.04568,-0.16803l-0.00068,-0.02159l-0.02603,-0.06919l-0.17431,-0.26767l-0.11227,-0.31815l-0.74293,-1.43917l-0.04147,-0.16925l-0.09393,-0.14423l-0.23114,-0.65501l-0.14321,-0.21016l-0.11344,-0.3016l-0.17431,-0.26766l-0.50809,-1.43983l-0.04078,-0.38793l-0.10204,-0.37529l-0.00591,-0.18659l-0.09634,-0.35431l-0.00944,-0.29872l-0.07814,-0.2874l-0.00289,-0.09154l-0.03899,-0.11051l-0.0408,-0.38792l-0.10204,-0.37529l-0.09722,-3.07365l0.05981,-0.29221l-0.00944,-0.29873l0.07373,-0.36026l-0.02125,-0.67189l0.0598,-0.29221l-0.00944,-0.29873l0.12198,-0.59597l0.11945,-0.75723l0.05811,-0.14076l0.00636,-0.15327l0.23638,-0.83647l0.10491,-0.66511l0.05811,-0.14076l0.00636,-0.15327l0.22572,-0.79876l0.09946,-0.78716l0.12708,-0.33722l0.06368,-0.35648l0.34169,-0.78168l0.22009,-0.92424l0.10186,-0.20056l0.03991,-0.22341l1.22548,-2.80344l0.50791,-1.79734l0.12946,-0.23022l0.06599,-0.25823l0.34649,-0.65494l0.21941,-0.63668l0.10448,-0.1631l0.04852,-0.18988l0.43646,-0.82498l0.08291,-0.09307l0.04335,-0.11904l0.26637,-0.40006l0.46083,-1.33727l0.05476,-0.08547l0.01809,-0.10126l1.51303,-3.46128l0.32251,-1.14124l0.22773,-1.61955l0.07539,-0.19177l0.01393,-0.20697l0.46667,-1.50145l0.08051,-1.47029l0.0374,-0.12594l-0.01013,-0.1315l0.25077,-1.58984l0.22828,-1.80677l0.07918,-1.90799l-0.177,-5.59617l-0.15942,-1.15587l-0.29569,-1.08749l-0.33204,-1.08314l-0.00262,-0.04144l-0.01975,-0.03598l-0.13141,-0.48327l-0.27054,-0.64723l-0.01167,-0.07197l-0.03924,-0.06026l-0.23115,-0.65501l-0.14321,-0.21018l-0.06054,-0.16097l-0.03712,-0.00646l-0.16768,-0.25749l-0.2318,-0.19504l-0.01566,-0.18493l-0.25746,-0.39534l-0.02239,-0.06343l-0.00209,-0.0034l-0.1754,-0.15664l-0.32338,-0.47457l-0.11343,-0.3016l-0.10638,-0.16335l-0.28573,-0.28082l-0.20164,-0.32781l-0.25106,-0.28773l-0.16424,-0.31817l-0.02285,-0.09328l-0.32193,-0.27089l-0.01022,-0.12065l-0.12751,-0.14614l-0.16425,-0.31817l-0.2969,-1.21184l0.33465,-0.56721l0.01416,-0.66714l0.87826,-0.84544l0.17033,-0.097l0.01213,-0.02411l0.06384,-0.01916l0.05662,-0.03225l0.51435,-0.13904l0.5107,-0.1532l0.06437,-0.00225l0.06429,-0.01737l0.02207,0.01437l3.87968,-0.13538l1.21857,-0.18542l1.03742,-0.1928l0.16597,0.01222l0.15998,-0.048l0.79369,-0.0277l0.33732,-0.10118l0.2844,-0.00993l0.27362,-0.08208l0.30803,-0.01076l0.27819,0.06283l0.2844,-0.00993l0.62117,0.14027l0.22846,0.11794l0.25019,0.0493l0.34931,0.16846l0.15846,-0.05139l0.25961,0.15154l0.29037,0.06557l0.09274,0.15805l0.39708,0.23178l0.17853,0.05567l0.26583,0.16492l0.29404,0.09887l0.47227,0.30742l0.16044,0.17344l0.20124,0.11745l0.15113,0.14853l0.27772,0.18078l0.16044,0.17344l0.20124,0.11745l0.31826,0.31279l0.12494,0.20311l0.1754,0.15664l0.05431,0.0797l0.07933,0.05163l0.16044,0.17344l0.20123,0.11745l0.31826,0.3128l0.12494,0.20312l0.17541,0.15663l0.60941,0.89433l1.40734,1.84035l0.12764,0.29101l0.18672,0.25338l0.21071,0.50407l0.29106,0.38061l0.12764,0.29101l0.18671,0.25338l0.29496,0.70564l0.24035,0.46559l0.43944,0.71442l0.08216,0.25307l0.14373,0.22069l0.11227,0.31815l0.25019,0.48465l0.06344,0.25895l0.12718,0.23162l0.84803,3.1189l0.13851,0.3925l0.00995,0.09463l0.04528,0.08246l0.32459,1.19377l0.13851,0.39251l0.04078,0.38792l0.10204,0.37529l0.01101,0.34835l0.09634,0.35431l0.00187,0.05917l0.02581,0.05262l0.1796,0.80349l-0.00056,0.04019l0.01642,0.03631l0.13547,0.70795l0.23316,0.5578l0.03591,0.22142l0.09791,0.1997l0.17959,0.80348l-0.00054,0.0402l0.01641,0.03631l0.14898,0.77849l0.27569,0.78126l0.02013,0.19142l0.07865,0.17396l0.14897,0.77848l0.27569,0.78126l0.01603,0.15249l0.06687,0.13639l0.14671,0.65633l0.28871,0.81816l0.00995,0.09462l0.04528,0.08248l0.1314,0.48327l0.14764,0.35321l1.04929,1.37212l0.3608,0.26503l0.19233,0.23242l0.23897,0.17838l0.55839,0.68521l2.33265,2.29259l0.49678,0.36493l0.21559,0.26053l0.2618,0.20867l0.37964,0.49644l0.6757,0.6641l0.12495,0.20311l0.1754,0.15664l0.09294,0.13638l0.30693,0.22547l0.25674,0.31026l0.29817,0.26627l0.64675,0.94914l0.05367,0.14269l0.09868,0.1131l0.22915,0.44389l0.35199,0.46028l0.08792,0.20043l0.14195,0.1627l0.32849,0.63634l0.02445,0.09977l0.06003,0.08147l0.29496,0.70563l0.61115,1.1839l0.02445,0.09977l0.06004,0.08148l0.29496,0.70564l0.28266,0.54756l0.02445,0.09977l0.06003,0.08147l0.33361,0.7981l0.0267,0.16465l0.07944,0.14468l0.08002,0.29432l0.30096,0.48927l0.08217,0.25308l0.14373,0.22068l0.33872,0.95988l0.02013,0.19141l0.07865,0.17396l0.12985,0.67855l0.37975,0.85146l0.06236,0.33496l0.1273,0.31403l0.16697,1.10386l0.28921,0.94341l0.01063,0.1677l0.06527,0.15346l0.37497,2.22625l0.17942,0.93757l-0.00901,0.20271l0.05306,0.19513l0.11257,3.55897l-0.04839,0.23643l0.01858,0.24103l-0.12843,0.81423l-0.05811,0.14076l-0.00636,0.15328l-0.17059,0.60367l0.01313,0.41509l-0.01954,0.09549l0.03733,0.07232l-0.15874,0.52087l-0.10944,0.53468l-0.06667,0.04317l-0.02836,0.09303l-0.08177,0.1386l-0.04938,0.24131l-0.17446,0.3729l-0.1206,0.39571l-0.12962,0.2197l-0.05058,0.17898l-0.15702,0.27922l-0.09413,0.30884l-0.21687,0.36758l-0.08373,0.19155l-0.23231,0.30461l-0.18049,0.34114l-1.33258,1.49591l-0.38898,0.65929l-0.22751,0.52047l-0.11799,0.1547l-0.00257,0.12111l-0.16035,0.15435l-0.01177,0.06591l-0.02687,0.06148l-0.01396,0.06818l-0.0221,0.01431l-0.5122,1.17171l-0.11799,0.1547l-0.00257,0.1211l-0.3378,0.32516l-0.10816,0.14182l-0.00073,0.03445l-0.09609,0.09251l-0.08149,0.10684l-0.03268,0.00305l-0.12754,0.12278l-0.10816,0.14182l-0.00073,0.03444l-0.09609,0.09251l-0.08149,0.10685l-0.03268,0.00305l-0.12754,0.12278l-0.28647,0.37561l-0.11487,0.01072l-0.13914,0.13393l-0.30291,0.17251l-0.16112,0.04356l-0.13732,0.09866l-0.91385,0.35579l-0.3019,0.03502l-0.0106,0.00604l-0.51435,0.13903l-0.5107,0.1532l-0.06437,0.00225l-0.0643,0.01738l-0.02207,-0.01437l-0.08255,0.00288l-0.40203,0.09914l-0.32199,0.12536l-0.36933,0.04283l-0.35728,0.10718l-0.70321,0.02454l-0.1052,0.04095l-0.36933,0.04283l-0.35728,0.10718l-0.08715,0.00304l-0.1052,0.04095l-0.09009,0.01045l-0.07851,0.04756l-0.61094,0.18327l-0.2844,0.00993l-0.27362,0.08209l-0.54918,0.01917l-0.10521,0.04095l-0.09008,0.01044l-0.07851,0.04757l-0.61094,0.18328l-0.2844,0.00992l-0.27362,0.08208l-1.31137,0.04576l-0.54214,0.13369l-0.23019,-0.00348l-0.22138,0.06642l-18.94365,0.66104l-0.36326,-0.08203l-0.37122,-0.017l-0.93432,-0.2913l-0.05691,-0.0353l-0.14109,0.00492l-0.02111,0.01587l-0.06525,-0.01286l-0.06437,0.00225l-0.51926,-0.11726l-0.522,-0.10287l-0.05853,-0.02822l-0.0649,-0.01466l-0.01363,-0.02321l-0.17609,-0.08492l-0.92975,-0.78235l-0.10067,-1.18882l-0.00213,-0.00363l0.00156,-0.00311l-0.06276,-0.74116c-0.57236,-0.15553 -1.06115,-0.53639 -1.37198,-1.04984z" fill="url(#color-1)" stroke="none" stroke-width="0.5"/><path d="M219.50333,71.98989l-0.03217,-0.02117l-0.01498,-0.07588c-0.1736,-0.3765 -0.26384,-0.80212 -0.24654,-1.24932l0.03381,-0.87459l0.0867,-0.31017l0.01249,-0.323l0.10688,-0.38239l0.07498,-1.93939l-0.10122,-1.04587l0.02576,-0.18706l-0.03652,-0.18507l0.0009,-0.02334l-0.02282,-0.07682l-0.16769,-0.30331l-0.09694,-0.35257l-0.69207,-1.61453l-0.03188,-0.18601l-0.09037,-0.16344l-0.19959,-0.72586l-0.13851,-0.23869l-0.09946,-0.33482l-0.1677,-0.30331l-0.43872,-1.59557l-0.01454,-0.42185l-0.08157,-0.41333l0.0078,-0.20176l-0.07701,-0.39024l0.01249,-0.323l-0.06246,-0.31654l0.00383,-0.09898l-0.03367,-0.12246l-0.01454,-0.42184l-0.08157,-0.41333l0.1285,-3.32344l0.0867,-0.31017l0.01249,-0.323l0.10689,-0.38239l0.02809,-0.7265l0.08669,-0.31017l0.01249,-0.323l0.17682,-0.63262l0.18632,-0.80676l0.07336,-0.14696l0.0185,-0.16479l0.31846,-0.88243l0.16365,-0.7086l0.07336,-0.14696l0.0185,-0.16479l0.3041,-0.84264l0.16704,-0.84072l0.16268,-0.35309l0.09574,-0.37915l0.42791,-0.81451l0.30755,-0.97847l0.1251,-0.2078l0.06,-0.23764l1.53466,-2.92119l0.6843,-1.8961l0.15711,-0.23748l0.09079,-0.27301l0.42345,-0.6774l0.28499,-0.66835l0.12508,-0.16718l0.06674,-0.20073l0.5334,-0.85328l0.09649,-0.09344l0.0558,-0.12477l0.31768,-0.4092l0.59859,-1.4038l0.06555,-0.08761l0.0272,-0.10771l1.89477,-3.60665l0.4345,-1.20395l0.3686,-1.72779l0.09588,-0.20054l0.03074,-0.22207l0.61735,-1.5804l0.19846,-1.57914l0.04991,-0.1327l-0.00095,-0.14268l0.39118,-1.69382l0.3834,-1.92969l0.23026,-2.05137l0.23395,-6.05096l-0.08419,-1.26009l-0.23637,-1.19776l-0.27591,-1.19611l0.00031,-0.04491l-0.01857,-0.04046l-0.10504,-0.53227l-0.24268,-0.72078l-0.00712,-0.07861l-0.03775,-0.06828l-0.19959,-0.72586l-0.13851,-0.23869l-0.05308,-0.1787l-0.03954,-0.01007l-0.16132,-0.29177l-0.23521,-0.2298l-0.00285,-0.20077l-0.24769,-0.44798l-0.01933,-0.07029l-0.002,-0.00383l-0.1773,-0.18365l-0.31277,-0.53896l-0.09946,-0.33482l-0.10234,-0.1851l-0.28687,-0.32683l-0.19261,-0.37048l-0.24894,-0.33138l-0.153,-0.35694l-0.01757,-0.10253l-0.32667,-0.31916l-0.00186,-0.13099l-0.12644,-0.16831l-0.15301,-0.35694l-0.22824,-1.33198l0.40403,-0.58378l0.06592,-0.7184l1.0115,-0.83834l0.19108,-0.09037l0.01491,-0.02499l0.07031,-0.0153l0.06352,-0.03004l0.56534,-0.10688l0.56248,-0.12246l0.0696,0.00297l0.07066,-0.01336l0.02271,0.01734l4.19496,0.17894l1.32845,-0.09794l1.13361,-0.12104l0.17809,0.02707l0.1762,-0.03837l0.85819,0.03661l0.37153,-0.08089l0.30751,0.01312l0.30136,-0.06562l0.33306,0.01421l0.2953,0.09107l0.30751,0.01312l0.65935,0.20333l0.23747,0.14634l0.26612,0.07414l0.36398,0.21097l0.17482,-0.04215l0.26852,0.18519l0.30822,0.09505l0.08803,0.17824l0.4107,0.28325l0.18834,0.075l0.27421,0.20015l0.30965,0.13128l0.48606,0.37115l0.15989,0.20051l0.20814,0.14355l0.15174,0.17287l0.28583,0.21826l0.15988,0.20051l0.20815,0.14355l0.31953,0.36404l0.11934,0.22955l0.1773,0.18365l0.05253,0.09052l0.08163,0.06233l0.15989,0.20051l0.20814,0.14355l0.31953,0.36405l0.11934,0.22955l0.1773,0.18364l0.58942,1.01569l1.37826,2.10291l0.11558,0.32458l0.18215,0.28894l0.189,0.56136l0.28504,0.43491l0.11558,0.32458l0.18215,0.28894l0.26458,0.78583l0.2239,0.52232l0.41975,0.80739l0.06941,0.27985l0.13827,0.25008l0.09694,0.35257l0.23307,0.5437l0.04877,0.28462l0.1196,0.26048l0.6779,3.43513l0.1196,0.43497l0.00354,0.10289l0.04258,0.09275l0.25947,1.3148l0.1196,0.43497l0.01454,0.42184l0.08157,0.41333l-0.01456,0.37666l0.07701,0.39023l-0.00247,0.06398l0.02384,0.05893l0.13271,0.88169l-0.00365,0.04331l0.01495,0.04053l0.09237,0.77495l0.20914,0.62118l0.02193,0.24184l0.09045,0.22359l0.13271,0.88169l-0.00364,0.04331l0.01495,0.04053l0.10158,0.85218l0.23806,0.86577l0.00717,0.20815l0.07163,0.19422l0.10158,0.85218l0.23806,0.86577l0.00571,0.16582l0.06178,0.15272l0.10841,0.72021l0.24929,0.90665l0.00354,0.10289l0.04258,0.09275l0.10504,0.53227l0.13243,0.39334l1.0276,1.56788l0.36904,0.3161l0.1898,0.26681l0.24421,0.21243l0.55026,0.78585l2.34198,2.66821l0.50813,0.43523l0.21276,0.29907l0.26654,0.247l0.37179,0.56726l0.6784,0.7729l0.11935,0.22955l0.1773,0.18365l0.08989,0.15489l0.31395,0.26891l0.25337,0.35616l0.30139,0.31218l0.62554,1.07792l0.04705,0.1584l0.09786,0.13027l0.21346,0.49797l0.34471,0.52595l0.07961,0.22356l0.14077,0.18738l0.306,0.71388l0.01879,0.10967l0.05857,0.09291l0.26458,0.78582l0.56932,1.32816l0.01879,0.10967l0.05857,0.09291l0.26458,0.78583l0.26332,0.61428l0.01879,0.10967l0.05857,0.09291l0.29925,0.88879l0.0163,0.17982l0.07471,0.1627l0.06397,0.32416l0.28748,0.55295l0.06941,0.27985l0.13827,0.25008l0.29248,1.06371l0.00717,0.20815l0.07163,0.19422l0.08854,0.74277l0.34496,0.95021l0.04184,0.36653l0.11347,0.34939l0.09629,1.20463l0.24032,1.0418l-0.00126,0.18178l0.05874,0.171l0.23544,2.43268l0.12234,1.02632l-0.0251,0.21789l0.04241,0.21491l-0.14878,3.8482l-0.07014,0.25095l0.00174,0.26154l-0.20034,0.86749l-0.07336,0.14696l-0.0185,0.16479l-0.22983,0.63684l-0.01735,0.44881l-0.02833,0.10137l0.03477,0.08112l-0.21077,0.54852l-0.15864,0.56755l-0.07519,0.04098l-0.03765,0.09797l-0.09872,0.14264l-0.07159,0.25614l-0.21649,0.38761l-0.16013,0.41672l-0.15648,0.2261l-0.06815,0.18883l-0.19056,0.28802l-0.12498,0.32525l-0.26183,0.37831l-0.10486,0.19959l-0.27371,0.30909l-0.22058,0.35285l-1.55092,1.5019l-0.46961,0.67854l-0.28492,0.54233l-0.13901,0.15699l-0.01197,0.1304l-0.18466,0.15305l-0.0177,0.0701l-0.03366,0.06406l-0.02023,0.07237l-0.02493,0.01358l-0.64141,1.22092l-0.13901,0.15699l-0.01197,0.1304l-0.38904,0.32244l-0.12743,0.14391l-0.00341,0.0371l-0.11066,0.09172l-0.09601,0.10842l-0.03548,0.00056l-0.14689,0.12175l-0.12743,0.14391l-0.00341,0.0371l-0.11066,0.09172l-0.09601,0.10842l-0.03548,0.00056l-0.14689,0.12175l-0.33751,0.38115l-0.12471,0.00195l-0.16024,0.13281l-0.33982,0.16072l-0.17709,0.03349l-0.1556,0.09492l-1.0127,0.30721l-0.32829,0.01248l-0.01189,0.00562l-0.56534,0.10688l-0.56247,0.12246l-0.0696,-0.00297l-0.07067,0.01336l-0.02271,-0.01734l-0.08926,-0.0038l-0.44116,0.07326l-0.35682,0.10825l-0.40162,0.01527l-0.39351,0.08568l-0.76035,-0.03244l-0.11658,0.03537l-0.40162,0.01527l-0.39351,0.08568l-0.09423,-0.00402l-0.11658,0.03537l-0.09796,0.00373l-0.0883,0.04472l-0.67288,0.14651l-0.30751,-0.01312l-0.30136,0.06562l-0.59382,-0.02533l-0.11659,0.03537l-0.09796,0.00372l-0.0883,0.04472l-0.67288,0.14651l-0.30751,-0.01312l-0.30136,0.06562l-1.41795,-0.06048l-0.5949,0.09879l-0.24803,-0.02303l-0.24382,0.05309l-20.48312,-0.87374l-0.3856,-0.11891l-0.39911,-0.04942l-0.98565,-0.39246l-0.0587,-0.04284l-0.15255,-0.00651l-0.02398,0.01535l-0.0694,-0.01934l-0.0696,-0.00297l-0.55117,-0.16997l-0.55523,-0.15469l-0.06099,-0.03535l-0.0689,-0.02125l-0.01293,-0.02619l-0.18348,-0.10635l-0.94345,-0.92173l-0.01832,-1.29071l-0.00202,-0.00411l0.00192,-0.00322l-0.01142,-0.80469c-0.60556,-0.2157 -1.10385,-0.66745 -1.40014,-1.2473z" fill="url(#color-2)" stroke="none" stroke-width="0.5"/><path d="M220.01248,69.1271l-0.02771,-0.02264l-0.00701,-0.07127c-0.12612,-0.36339 -0.17118,-0.76377 -0.1154,-1.17342l0.10908,-0.80115l0.1074,-0.27678l0.04028,-0.29589l0.13241,-0.34122l0.24187,-1.77654l0.00014,-0.97198l0.04037,-0.16953l-0.0171,-0.17383l0.00291,-0.02138l-0.01414,-0.07291l-0.12721,-0.29549l-0.05774,-0.33383l-0.49266,-1.55318l-0.01274,-0.17425l-0.06855,-0.15923l-0.11887,-0.68731l-0.10613,-0.23317l-0.06164,-0.31777l-0.12721,-0.29548l-0.2613,-1.51081l0.02424,-0.38946l-0.03818,-0.38822l0.02516,-0.18481l-0.03604,-0.36653l0.04028,-0.29588l-0.02924,-0.29731l0.01234,-0.09067l-0.02005,-0.11595l0.02423,-0.38946l-0.03818,-0.38822l0.41449,-3.04438l0.1074,-0.27678l0.04028,-0.29588l0.13241,-0.34122l0.09061,-0.6655l0.10739,-0.27678l0.04028,-0.29588l0.21905,-0.56451l0.24331,-0.72376l0.08058,-0.12796l0.03171,-0.14976l0.37161,-0.78037l0.21371,-0.6357l0.08058,-0.12796l0.03171,-0.14976l0.35484,-0.74519l0.2286,-0.75689l0.18112,-0.30879l0.12187,-0.33934l0.46622,-0.70713l0.37013,-0.86978l0.13359,-0.17884l0.07638,-0.21268l1.67206,-2.53607l0.79848,-1.67679l0.16569,-0.20299l0.10785,-0.24219l0.4499,-0.58144l0.32173,-0.58675l0.12996,-0.14146l0.07929,-0.17807l0.56672,-0.73241l0.09709,-0.07647l0.06245,-0.10928l0.32869,-0.34514l0.67576,-1.23239l0.06811,-0.07414l0.03462,-0.09639l2.06441,-3.13116l0.50701,-1.0647l0.49309,-1.55303l0.10607,-0.17502l0.04807,-0.20124l0.70876,-1.39299l0.32334,-1.43302l0.05773,-0.11716l0.01185,-0.13134l0.51083,-1.51956l0.5247,-1.73728l0.39469,-1.86426l0.75465,-5.54288l0.03489,-1.16736l-0.11064,-1.12499l-0.14716,-1.12736l0.00429,-0.04128l-0.01348,-0.03903l-0.04917,-0.49994l-0.15896,-0.68686l0.00046,-0.07301l-0.02864,-0.06652l-0.11888,-0.6873l-0.10613,-0.23318l-0.03289,-0.16959l-0.03547,-0.01316l-0.12237,-0.28424l-0.19587,-0.23452l0.01528,-0.18496l-0.18789,-0.43644l-0.01151,-0.06656l-0.00149,-0.00373l-0.14671,-0.18637l-0.23965,-0.52652l-0.06164,-0.31776l-0.07763,-0.18033l-0.23474,-0.32885l-0.14413,-0.35972l-0.19945,-0.3293l-0.10891,-0.34337l-0.00702,-0.09605l-0.27203,-0.3257l0.00996,-0.12068l-0.1013,-0.16725l-0.10892,-0.34338l-0.09119,-1.24765l0.42369,-0.49724l0.12468,-0.65433l1.00515,-0.67164l0.18383,-0.06434l0.01594,-0.02152l0.06604,-0.00716l0.06111,-0.02139l0.52955,-0.04271l0.52831,-0.05732l0.06376,0.00958l0.06619,-0.00534l0.01935,0.01818l3.84273,0.57721l1.23068,0.04059l1.05353,0.00016l0.1614,0.04241l0.16549,-0.01796l0.78614,0.11808l0.34895,-0.03786l0.28169,0.04231l0.28305,-0.03071l0.30509,0.04583l0.26351,0.11281l0.28169,0.04231l0.58837,0.25189l0.20539,0.15797l0.23818,0.09437l0.316,0.22985l0.16456,-0.02159l0.23048,0.19676l0.27504,0.11775l0.06509,0.17261l0.35252,0.30094l0.16656,0.08751l0.23439,0.21108l0.27312,0.1512l0.41401,0.38921l0.12919,0.20016l0.17866,0.15251l0.12416,0.17394l0.24346,0.22888l0.12919,0.20016l0.17866,0.15251l0.26147,0.36629l0.08931,0.22289l0.14671,0.18637l0.04025,0.08843l0.06954,0.06536l0.12919,0.20016l0.17865,0.15251l0.26147,0.3663l0.08931,0.22289l0.14672,0.18636l0.45162,0.99223l1.0803,2.06991l0.07738,0.30992l0.14179,0.2837l0.12381,0.53494l0.22342,0.42808l0.07738,0.30992l0.14179,0.28368l0.17331,0.74885l0.15938,0.50247l0.31412,0.78396l0.0389,0.26423l0.10489,0.24363l0.05774,0.33384l0.16591,0.52305l0.01948,0.2666l0.08679,0.25136l0.31731,3.22643l0.07123,0.41186l-0.00591,0.095l0.0309,0.0895l0.12145,1.23492l0.07123,0.41186l-0.02424,0.38946l0.03818,0.38823l-0.04698,0.34504l0.03605,0.36653l-0.00798,0.0586l0.01668,0.05655l0.04347,0.82407l-0.00722,0.03947l0.01014,0.03876l0.01588,0.72192l0.137,0.59196l-0.00139,0.22461l0.06326,0.21456l0.04347,0.82406l-0.00721,0.03947l0.01013,0.03876l0.01746,0.79385l0.14179,0.81978l-0.01196,0.19218l0.04857,0.18571l0.01746,0.79385l0.14179,0.81978l-0.00953,0.15309l0.04321,0.14655l0.03551,0.67314l0.14848,0.85849l-0.00591,0.095l0.0309,0.0895l0.04917,0.49994l0.08675,0.37484l0.80545,1.54327l0.31128,0.32705l0.1508,0.26408l0.2057,0.21942l0.4361,0.77697l1.91636,2.68467l0.4286,0.45033l0.16904,0.29603l0.22315,0.25341l0.29141,0.55836l0.55511,0.77766l0.08931,0.22289l0.14671,0.18637l0.06887,0.15132l0.26481,0.27823l0.20131,0.35253l0.2494,0.31679l0.4793,1.05304l0.02916,0.15033l0.0784,0.12945l0.15195,0.47905l0.27019,0.5177l0.0533,0.21346l0.11277,0.18621l0.21783,0.68674l0.00751,0.10273l0.04559,0.09122l0.17331,0.74884l0.40527,1.27769l0.00751,0.10273l0.04559,0.09122l0.17331,0.74885l0.18744,0.59094l0.00751,0.10273l0.04559,0.09121l0.19602,0.84699l-0.00104,0.16701l0.05421,0.15701l0.02994,0.30447l0.21513,0.5369l0.0389,0.26424l0.10489,0.24362l0.1742,1.00721l-0.01196,0.19217l0.04857,0.18571l0.01522,0.69194l0.23259,0.90796l0.00581,0.34126l0.07322,0.33254l-0.01882,1.11753l0.12817,0.98193l-0.01736,0.16708l0.03879,0.16307l-0.00031,2.26082l0.02104,0.95607l-0.04252,0.19795l0.01985,0.20185l-0.47993,3.52507l-0.08689,0.22394l-0.02172,0.24075l-0.26162,0.77824l-0.08058,0.12796l-0.03171,0.14976l-0.26818,0.56318l-0.05597,0.41113l-0.0351,0.09046l0.02475,0.07804l-0.24277,0.48381l-0.19652,0.50645l-0.07282,0.03029l-0.04336,0.08641l-0.10352,0.12149l-0.08869,0.22857l-0.23369,0.33524l-0.18444,0.36757l-0.1641,0.1926l-0.07952,0.16699l-0.20096,0.24619l-0.14395,0.28688l-0.27457,0.32223l-0.11424,0.17328l-0.27932,0.25739l-0.23435,0.30286l-1.56049,1.22896l-0.49246,0.57795l-0.31042,0.47083l-0.14187,0.13073l-0.02263,0.11878l-0.18351,0.12262l-0.02253,0.06274l-0.03667,0.05562l-0.02506,0.06458l-0.02414,0.01004l-0.69884,1.05995l-0.14187,0.13073l-0.02263,0.11877l-0.3866,0.25832l-0.13005,0.11984l-0.00644,0.03378l-0.10997,0.07348l-0.09798,0.09029l-0.03268,-0.00298l-0.14597,0.09754l-0.13005,0.11984l-0.00644,0.03378l-0.10997,0.07348l-0.09798,0.09029l-0.03268,-0.00298l-0.14597,0.09754l-0.34444,0.31739l-0.11489,-0.01047l-0.15923,0.1064l-0.3269,0.11441l-0.16588,0.01338l-0.15159,0.072l-0.95891,0.18297l-0.30309,-0.02081l-0.01144,0.004l-0.52955,0.04271l-0.5283,0.05732l-0.06376,-0.00958l-0.0662,0.00534l-0.01935,-0.01818l-0.08177,-0.01229l-0.41233,0.024l-0.33786,0.06447l-0.37078,-0.02546l-0.3696,0.0401l-0.69651,-0.10462l-0.11039,0.02106l-0.37078,-0.02546l-0.3696,0.0401l-0.08632,-0.01296l-0.11039,0.02106l-0.09044,-0.00621l-0.08521,0.03246l-0.632,0.06858l-0.28169,-0.04231l-0.28305,0.03071l-0.54395,-0.08171l-0.11039,0.02106l-0.09044,-0.00621l-0.08521,0.03246l-0.632,0.06858l-0.28169,-0.04231l-0.28305,0.03071l-1.29889,-0.19511l-0.55602,0.03236l-0.22609,-0.04559l-0.22901,0.02485l-18.76321,-2.81842l-0.34409,-0.1473l-0.36271,-0.08471l-0.87165,-0.45795l-0.05017,-0.04519l-0.13974,-0.02099l-0.02342,0.01176l-0.06211,-0.02461l-0.06376,-0.00958l-0.49184,-0.21056l-0.49693,-0.19689l-0.05295,-0.03852l-0.06148,-0.02632l-0.00956,-0.02536l-0.15929,-0.11588l-0.78564,-0.94064l0.09822,-1.18904l-0.0015,-0.00397l0.00205,-0.00278l0.06123,-0.7413c-0.53778,-0.25797 -0.95586,-0.72252 -1.17669,-1.28503z" fill="url(#color-3)" stroke="none" stroke-width="0.5"/><path d="M222.05611,69.70726l-0.02763,-0.01775l-0.01343,-0.06459c-0.15133,-0.31954 -0.23196,-0.68178 -0.22105,-1.06346l0.02134,-0.74644l0.0713,-0.26543l0.00788,-0.27567l0.0879,-0.32723l0.04731,-1.65519l-0.09533,-0.89127l0.02037,-0.15981l-0.03275,-0.15753l0.00057,-0.01992l-0.02013,-0.06532l-0.14566,-0.25716l-0.08573,-0.29985l-0.60427,-1.3708l-0.02879,-0.15839l-0.07849,-0.13858l-0.1765,-0.61735l-0.12021,-0.2023l-0.08773,-0.28469l-0.14566,-0.25715l-0.38797,-1.35702l-0.01602,-0.35974l-0.07313,-0.35183l0.00492,-0.17219l-0.06905,-0.33218l0.00788,-0.27566l-0.05601,-0.26944l0.00242,-0.08447l-0.02978,-0.10415l-0.01603,-0.35973l-0.07313,-0.35184l0.08108,-2.83644l0.0713,-0.26543l0.00788,-0.27567l0.0879,-0.32723l0.01773,-0.62003l0.07129,-0.26544l0.00788,-0.27567l0.14542,-0.54135l0.15202,-0.69001l0.06133,-0.12606l0.01436,-0.14076l0.26411,-0.75582l0.13353,-0.60605l0.06133,-0.12607l0.01437,-0.14075l0.25219,-0.72173l0.13528,-0.71879l0.13575,-0.30276l0.07842,-0.32437l0.35805,-0.69891l0.25397,-0.83764l0.10494,-0.17846l0.04915,-0.20329l1.28413,-2.5066l0.56749,-1.62404l0.13199,-0.20409l0.0751,-0.23376l0.35543,-0.5819l0.23739,-0.57287l0.10527,-0.1438l0.05522,-0.17187l0.44772,-0.73298l0.08151,-0.08063l0.04653,-0.10697l0.26749,-0.3521l0.4986,-1.20325l0.05517,-0.07535l0.02228,-0.09214l1.58545,-3.09478l0.36034,-1.0312l0.29961,-1.47746l0.08008,-0.17198l0.02431,-0.18974l0.51309,-1.35409l0.15575,-1.34904l0.04143,-0.11368l-0.00203,-0.12172l0.31917,-1.44871l0.31051,-1.64985l0.17882,-1.75219l0.14763,-5.16427l-0.08265,-1.07418l-0.21193,-1.01957l-0.24565,-1.01779l-0.00012,-0.03832l-0.01619,-0.03434l-0.09418,-0.45309l-0.21321,-0.6126l-0.00675,-0.06699l-0.03279,-0.0579l-0.1765,-0.61734l-0.12021,-0.20231l-0.04681,-0.15195l-0.03382,-0.00822l-0.14013,-0.24738l-0.20263,-0.19381l-0.00416,-0.17125l-0.21515,-0.37984l-0.01709,-0.05978l-0.00174,-0.00326l-0.15283,-0.15499l-0.27145,-0.45683l-0.08773,-0.28469l-0.08889,-0.15694l-0.24753,-0.2761l-0.16749,-0.31423l-0.21522,-0.28034l-0.13359,-0.30305l-0.01587,-0.08731l-0.28142,-0.26918l-0.00271,-0.11173l-0.10931,-0.14239l-0.1336,-0.30305l-0.20614,-1.13414l0.33967,-0.50185l0.05006,-0.6135l0.85571,-0.72477l0.16224,-0.0789l0.0125,-0.02146l0.05985,-0.01373l0.05393,-0.02623l0.48138,-0.09654l0.4788,-0.1098l0.0594,0.00187l0.06017,-0.01206l0.01952,0.01458l3.58025,0.11292l1.13245,-0.09613l0.96604,-0.11401l0.15216,0.02141l0.14998,-0.0344l0.73244,0.0231l0.31625,-0.07253l0.26245,0.00828l0.25652,-0.05883l0.28426,0.00896l0.2527,0.07489l0.26245,0.00828l0.56424,0.16722l0.20384,0.12259l0.22766,0.06072l0.31232,0.17653l0.14878,-0.03762l0.23066,0.15544l0.26376,0.07817l0.07663,0.15122l0.3528,0.23775l0.16132,0.06219l0.23565,0.16815l0.26528,0.10906l0.41785,0.31202l0.13812,0.16954l0.1788,0.1205l0.13093,0.14603l0.24572,0.18349l0.13812,0.16954l0.1788,0.12049l0.27572,0.30754l0.10378,0.1947l0.15283,0.15499l0.04559,0.07673l0.07018,0.0524l0.13812,0.16954l0.17879,0.12049l0.27572,0.30754l0.10378,0.1947l0.15284,0.15498l0.51155,0.8609l1.19385,1.78094l0.10139,0.2758l0.15787,0.24477l0.16606,0.4771l0.2469,0.36831l0.10139,0.27581l0.15787,0.24476l0.23245,0.66788l0.19549,0.44347l0.36502,0.68481l0.06161,0.23808l0.1201,0.21204l0.08573,0.29985l0.2035,0.46164l0.04405,0.24234l0.10426,0.22108l0.60782,2.92408l0.10576,0.36994l0.00391,0.08775l0.03712,0.07871l0.23264,1.11919l0.10577,0.36993l0.01602,0.35973l0.07314,0.35184l-0.00919,0.32147l0.06905,0.33218l-0.00156,0.0546l0.02084,0.05005l0.12079,0.75091l-0.00274,0.03697l0.0131,0.03444l0.08546,0.66023l0.18376,0.52795l0.02078,0.2061l0.07908,0.18989l0.12079,0.7509l-0.00273,0.03698l0.0131,0.03444l0.09398,0.72603l0.21052,0.73633l0.00791,0.17751l0.06277,0.16501l0.09398,0.72603l0.21052,0.73633l0.0063,0.14141l0.05401,0.1297l0.09867,0.61339l0.22046,0.7711l0.00391,0.08775l0.03712,0.07871l0.09418,0.45308l0.11636,0.3343l0.89011,1.32782l0.31754,0.26616l0.16421,0.22581l0.21016,0.17891l0.47618,0.66519l2.02084,2.25406l0.43722,0.36649l0.18408,0.25312l0.2295,0.20818l0.32205,0.48041l0.58538,0.65293l0.10379,0.1947l0.15283,0.15499l0.07801,0.13129l0.27014,0.22643l0.21921,0.30144l0.2598,0.26346l0.54291,0.91365l0.0415,0.13469l0.0846,0.11021l0.18638,0.4228l0.29859,0.44542l0.06984,0.18996l0.1217,0.15852l0.26718,0.60611l0.01697,0.09338l0.05076,0.0787l0.23246,0.66787l0.49709,1.12766l0.01697,0.09338l0.05076,0.0787l0.23246,0.66787l0.22991,0.52155l0.01697,0.09338l0.05076,0.0787l0.26292,0.7554l0.01545,0.15325l0.06513,0.13809l0.05735,0.27594l0.24999,0.46899l0.06161,0.23808l0.1201,0.21203l0.25865,0.90469l0.00791,0.1775l0.06277,0.16501l0.08191,0.63282l0.30244,0.80735l0.03884,0.31229l0.0998,0.29698l0.09249,1.02676l0.21396,0.88648l0.00049,0.15509l0.05158,0.14532l0.22174,2.07309l0.11318,0.87439l-0.01954,0.18612l0.03802,0.18294l-0.09389,3.28429l-0.05768,0.21475l0.00372,0.2231l-0.16346,0.74195l-0.06133,0.12607l-0.01437,0.14076l-0.1906,0.54546l-0.01095,0.38305l-0.0233,0.08674l0.03036,0.06888l-0.17509,0.46994l-0.13046,0.48568l-0.06379,0.03566l-0.03128,0.08394l-0.083,0.12262l-0.05888,0.21919l-0.18136,0.33272l-0.13302,0.35702l-0.13156,0.19437l-0.05651,0.16173l-0.16009,0.24751l-0.10382,0.27865l-0.22012,0.32522l-0.08774,0.17126l-0.23084,0.26628l-0.18514,0.30311l-1.31019,1.29596l-0.3948,0.5833l-0.2384,0.46536l-0.11725,0.13525l-0.00909,0.11136l-0.15623,0.13232l-0.0145,0.05998l-0.02816,0.05497l-0.01664,0.06193l-0.02114,0.01183l-0.53671,1.04763l-0.11724,0.13525l-0.00909,0.11135l-0.32912,0.27876l-0.10748,0.12398l-0.00259,0.03168l-0.09362,0.07929l-0.08098,0.0934l-0.03026,0.00081l-0.12426,0.10525l-0.10748,0.12398l-0.00259,0.03168l-0.09362,0.07929l-0.08098,0.0934l-0.03026,0.00081l-0.12426,0.10525l-0.28466,0.32836l-0.10638,0.00284l-0.13556,0.11482l-0.28852,0.14032l-0.15079,0.03024l-0.13193,0.08244l-0.8613,0.27168l-0.27996,0.01376l-0.0101,0.00492l-0.48137,0.09653l-0.47879,0.10981l-0.0594,-0.00188l-0.06018,0.01207l-0.01952,-0.01458l-0.07618,-0.00241l-0.37573,0.06669l-0.30347,0.09573l-0.34249,0.01683l-0.33497,0.07681l-0.64893,-0.02047l-0.09915,0.03128l-0.34248,0.01683l-0.33496,0.07682l-0.08042,-0.00254l-0.09915,0.03128l-0.08354,0.00411l-0.07494,0.03899l-0.57278,0.13136l-0.26245,-0.00828l-0.25652,0.05883l-0.5068,-0.01599l-0.09916,0.03128l-0.08354,0.00411l-0.07494,0.03899l-0.57277,0.13136l-0.26245,-0.00828l-0.25652,0.05883l-1.21017,-0.03817l-0.50666,0.08992l-0.21179,-0.0173l-0.20755,0.0476l-17.48159,-0.55136l-0.32997,-0.09779l-0.34091,-0.03838l-0.84423,-0.32547l-0.05044,-0.036l-0.1302,-0.00411l-0.02032,0.01333l-0.05937,-0.01584l-0.0594,-0.00187l-0.47167,-0.13978l-0.47499,-0.1267l-0.05233,-0.02958l-0.05896,-0.01747l-0.01126,-0.02222l-0.15744,-0.08899l-0.81276,-0.77739l-0.02671,-1.10093l-0.00176,-0.00348l0.00161,-0.00277l-0.01666,-0.68637c-0.51845,-0.17828 -0.94742,-0.55893 -1.20516,-1.05079z" fill="url(#color-4)" stroke="none" stroke-width="0.5"/><path d="M205.37625,179.46951c0,0 9.42687,-30.462 11.80468,-48.45901c2.35457,-17.82105 2.39314,-59.00037 2.39314,-59.00037l41.66052,-0.34109c0,0 -1.12795,40.94869 1.42617,59.22261c2.46509,17.63697 13.64091,48.57786 13.64091,48.57786z" fill="url(#color-5)" stroke="none" stroke-width="0"/><path d="M179.86976,179.65803v-60.26043h46.61412v60.26043z" fill="url(#color-6)" stroke="url(#color-7)" stroke-width="0"/><path d="M267.87433,151.63824c0,14.98335 0.01372,26.93128 -17.8091,27.12975c-16.49564,0.18369 -17.8091,-12.1464 -17.8091,-27.12975c0,-14.98335 2.64508,-26.92288 17.8091,-27.12975c15.82517,-0.21589 17.8091,12.1464 17.8091,27.12975z" fill="url(#color-8)" stroke="url(#color-9)" stroke-width="0"/><path d="M304.69505,151.74275c0,14.98335 0.01372,26.93128 -17.8091,27.12975c-16.49563,0.18369 -17.8091,-12.1464 -17.8091,-27.12975c0,-14.98335 2.64508,-26.92288 17.8091,-27.12975c15.82517,-0.2159 17.8091,12.1464 17.8091,27.12975z" fill="url(#color-10)" stroke="url(#color-11)" stroke-width="0"/><path d="M248.30844,125.57587v-12.07868h4.07958v12.07868z" fill="#312d29" stroke="url(#color-12)" stroke-width="0"/><path d="M285.75928,125.85541v-12.07868h4.07958v12.07868z" fill="#312d29" stroke="url(#color-13)" stroke-width="0"/><path d="M246.70947,118.28278v-3.56521h44.12864v3.56521z" fill="#36322e" stroke="none" stroke-width="0"/><path d="M219.3546,82.45017v-7.24379h42.01397v7.24379z" fill="url(#color-14)" stroke="url(#color-15)" stroke-width="0"/><path d="M219.13907,94.98371v-7.24379h42.01397v7.24379z" fill="url(#color-16)" stroke="url(#color-17)" stroke-width="0"/><path d="M174.11977,179.65803v-31.51043h57.11412v31.51043z" fill="url(#color-18)" stroke="url(#color-19)" stroke-width="0"/><path d="M182.86977,140.2627v-14.86511h40.61412v14.86511z" fill="url(#color-20)" stroke="url(#color-21)" stroke-width="0"/><path d="M176.86977,171.42937v-14.86511h50.36412v14.86511z" fill="url(#color-22)" stroke="url(#color-23)" stroke-width="0"/><path d="M172.75034,180.33096v-1.31049h134.49932v1.31049z" fill="#312d29" stroke="url(#color-24)" stroke-width="0"/></g></g></svg>