<svg version="1.1" xmlns="http://www.w3.org/2000/svg" xmlns:xlink="http://www.w3.org/1999/xlink" width="59" height="59.70667" viewBox="0,0,59,59.70667"><defs><linearGradient x1="240" y1="151.64672" x2="240" y2="208.35336" gradientUnits="userSpaceOnUse" id="color-1"><stop offset="0" stop-color="#191919"/><stop offset="1" stop-color="#050505"/></linearGradient><linearGradient x1="240" y1="151.64672" x2="240" y2="208.35336" gradientUnits="userSpaceOnUse" id="color-2"><stop offset="0" stop-color="#cccccc"/><stop offset="1" stop-color="#898989"/></linearGradient><linearGradient x1="240" y1="151.64669" x2="240" y2="208.35331" gradientUnits="userSpaceOnUse" id="color-3"><stop offset="0" stop-color="#191919"/><stop offset="1" stop-color="#050505"/></linearGradient><linearGradient x1="240" y1="151.64669" x2="240" y2="208.35331" gradientUnits="userSpaceOnUse" id="color-4"><stop offset="0" stop-color="#cccccc"/><stop offset="1" stop-color="#898989"/></linearGradient><radialGradient cx="240" cy="180.00004" r="26.8571" gradientUnits="userSpaceOnUse" id="color-5"><stop offset="0" stop-color="#ffffff" stop-opacity="0.35484"/><stop offset="1" stop-color="#ffffff" stop-opacity="0"/></radialGradient><linearGradient x1="240" y1="153.29213" x2="240" y2="206.70793" gradientUnits="userSpaceOnUse" id="color-6"><stop offset="0" stop-color="#cccccc"/><stop offset="1" stop-color="#898989"/></linearGradient><linearGradient x1="218.93104" y1="180.0132" x2="261.06894" y2="180.0132" gradientUnits="userSpaceOnUse" id="color-7"><stop offset="0" stop-color="#9e9175"/><stop offset="1" stop-color="#423820"/></linearGradient><linearGradient x1="218.93104" y1="180" x2="261.06895" y2="180" gradientUnits="userSpaceOnUse" id="color-8"><stop offset="0" stop-color="#272727"/><stop offset="1" stop-color="#000000"/></linearGradient><linearGradient x1="229.4378" y1="161.68197" x2="250.23386" y2="161.68197" gradientUnits="userSpaceOnUse" id="color-9"><stop offset="0" stop-color="#f1f5f8"/><stop offset="1" stop-color="#6d7680"/></linearGradient><linearGradient x1="229.4378" y1="161.68031" x2="250.23386" y2="161.68031" gradientUnits="userSpaceOnUse" id="color-10"><stop offset="0" stop-color="#272727"/><stop offset="1" stop-color="#000000"/></linearGradient><linearGradient x1="224.69683" y1="172.38921" x2="255.6811" y2="172.38921" gradientUnits="userSpaceOnUse" id="color-11"><stop offset="0" stop-color="#45423b"/><stop offset="1" stop-color="#262018"/></linearGradient></defs><g transform="translate(-210.5,-150.14669)"><g data-paper-data="{&quot;isPaintingLayer&quot;:true}" fill-rule="nonzero" stroke-linecap="butt" stroke-linejoin="miter" stroke-miterlimit="10" stroke-dasharray="" stroke-dashoffset="0" style="mix-blend-mode: normal"><path d="M212,208.35336v-56.70662h56v56.70662z" fill="url(#color-1)" stroke="url(#color-2)" stroke-width="3"/><path d="M212,208.35331v-56.70662h56v56.70662z" fill="url(#color-3)" stroke="url(#color-4)" stroke-width="3"/><path d="M266.8571,180.00004c0,14.75036 -12.02433,26.70789 -26.8571,26.70789c-14.83277,0 -26.8571,-11.95753 -26.8571,-26.70789c0,-14.75036 12.02433,-26.70789 26.8571,-26.70789c14.83277,0 26.8571,11.95753 26.8571,26.70789z" fill="url(#color-5)" stroke="url(#color-6)" stroke-width="0"/><path d="M218.93104,201.08301c0,0 2.71005,-43.10358 20.85295,-42.13792c18.25474,-1.28821 21.28497,42.13792 21.28497,42.13792z" fill="url(#color-7)" stroke="url(#color-8)" stroke-width="1.5"/><path d="M229.4378,164.34777c0,0 1.33748,-5.45354 10.29142,-5.33137c9.00914,-0.16298 10.50464,5.33137 10.50464,5.33137z" fill="url(#color-9)" stroke="url(#color-10)" stroke-width="1.5"/><path d="M223.6376,177.70954c0,0 0.51405,-1.66705 1.2692,-3.65091c0.8862,-2.32809 2.35413,-5.09245 7.4265,-6.11095c0.19679,-0.03952 3.89404,-0.61843 3.89404,-0.61843l8.04348,0.02478c0,0 2.78053,0.19847 2.94381,0.23719c4.80038,1.13796 6.60304,3.99536 7.61213,6.38448c0.86042,2.03713 1.38393,3.73382 1.38393,3.73382z" data-paper-data="{&quot;index&quot;:null}" fill="url(#color-11)" stroke="#000000" stroke-width="0"/><path d="M232.22033,172.7723c0,-2.04733 1.65969,-3.70702 3.70702,-3.70702c2.04734,0 3.70702,1.6597 3.70702,3.70702c0,2.04733 -1.65969,3.70702 -3.70702,3.70702c-2.04734,0 -3.70702,-1.65969 -3.70702,-3.70702z" fill="#caff00" stroke="none" stroke-width="0.5"/><path d="M240.78884,172.85351c0,-2.04733 1.65969,-3.70702 3.70702,-3.70702c2.04734,0 3.70702,1.6597 3.70702,3.70702c0,2.04733 -1.6597,3.70702 -3.70702,3.70702c-2.04734,0 -3.70702,-1.6597 -3.70702,-3.70702z" fill="#00fcff" stroke="none" stroke-width="0.5"/><path d="M215.27327,163.339v-8.69862h27.32249v8.69862z" fill-opacity="0.53453" fill="#000000" stroke="#a60000" stroke-width="0"/><text transform="translate(215.70712,161.6152) scale(0.21839,0.21839)" font-size="40" xml:space="preserve" fill="#ffffff" fill-rule="nonzero" stroke="#000000" stroke-width="0" stroke-linecap="butt" stroke-linejoin="miter" stroke-miterlimit="10" stroke-dasharray="" stroke-dashoffset="0" font-family="Serif" font-weight="normal" text-anchor="start" style="mix-blend-mode: normal"><tspan x="0" dy="0">Builder</tspan></text></g></g></svg>