<svg version="1.1" xmlns="http://www.w3.org/2000/svg" xmlns:xlink="http://www.w3.org/1999/xlink" width="19.28443" height="18.82908" viewBox="0,0,19.28443,18.82908"><defs><radialGradient cx="240.00005" cy="180.00007" r="9.41454" gradientUnits="userSpaceOnUse" id="color-1"><stop offset="0" stop-color="#735545" stop-opacity="0.30645"/><stop offset="1" stop-color="#735545" stop-opacity="0"/></radialGradient><radialGradient cx="240.00003" cy="180.00005" r="7.64324" gradientUnits="userSpaceOnUse" id="color-2"><stop offset="0" stop-color="#ea9d73" stop-opacity="0.62903"/><stop offset="1" stop-color="#ea9d73" stop-opacity="0"/></radialGradient><radialGradient cx="240.00005" cy="180.00007" r="6.47063" gradientUnits="userSpaceOnUse" id="color-3"><stop offset="0" stop-color="#ff8c4e"/><stop offset="1" stop-color="#ff8c4e" stop-opacity="0"/></radialGradient><radialGradient cx="240.00005" cy="180.00007" r="5.32083" gradientUnits="userSpaceOnUse" id="color-4"><stop offset="0" stop-color="#ff631f"/><stop offset="1" stop-color="#ff8340"/></radialGradient><linearGradient x1="233.16911" y1="173.3772" x2="232.6049" y2="173.92673" gradientUnits="userSpaceOnUse" id="color-5"><stop offset="0" stop-color="#7b6f80"/><stop offset="1" stop-color="#382c3f"/></linearGradient><linearGradient x1="233.67418" y1="173.66893" x2="232.87826" y2="174.44424" gradientUnits="userSpaceOnUse" id="color-6"><stop offset="0" stop-color="#ababab"/><stop offset="1" stop-color="#7e7e7e"/></linearGradient><linearGradient x1="233.3435" y1="173.99102" x2="233.20596" y2="174.12505" gradientUnits="userSpaceOnUse" id="color-7"><stop offset="0" stop-color="#323232"/><stop offset="1" stop-color="#232323"/></linearGradient><linearGradient x1="233.13325" y1="174.19585" x2="233.0256" y2="174.30073" gradientUnits="userSpaceOnUse" id="color-8"><stop offset="0" stop-color="#272727"/><stop offset="1" stop-color="#191919"/></linearGradient><linearGradient x1="233.52684" y1="173.81246" x2="233.4192" y2="173.91731" gradientUnits="userSpaceOnUse" id="color-9"><stop offset="0" stop-color="#393939"/><stop offset="1" stop-color="#323232"/></linearGradient><linearGradient x1="232.96986" y1="174.35499" x2="232.90756" y2="174.4157" gradientUnits="userSpaceOnUse" id="color-10"><stop offset="0" stop-color="#1f1f1f"/><stop offset="1" stop-color="#191919"/></linearGradient><linearGradient x1="233.64489" y1="173.69749" x2="233.58259" y2="173.7582" gradientUnits="userSpaceOnUse" id="color-11"><stop offset="0" stop-color="#515151"/><stop offset="1" stop-color="#3d3d3d"/></linearGradient><linearGradient x1="233.46349" y1="173.61896" x2="232.8338" y2="174.23232" gradientUnits="userSpaceOnUse" id="color-12"><stop offset="0" stop-color="#4b00bb"/><stop offset="1" stop-color="#30004f"/></linearGradient><linearGradient x1="232.83993" y1="173.009" x2="232.24046" y2="173.5929" gradientUnits="userSpaceOnUse" id="color-13"><stop offset="0" stop-color="#4b00ba"/><stop offset="1" stop-color="#300050"/></linearGradient><linearGradient x1="233.0907" y1="173.77476" x2="232.99732" y2="173.86571" gradientUnits="userSpaceOnUse" id="color-14"><stop offset="0" stop-color="#806f89"/><stop offset="1" stop-color="#685473"/></linearGradient><linearGradient x1="232.94796" y1="173.91375" x2="232.87489" y2="173.98498" gradientUnits="userSpaceOnUse" id="color-15"><stop offset="0" stop-color="#6a5675"/><stop offset="1" stop-color="#5c4768"/></linearGradient><linearGradient x1="233.21517" y1="173.6535" x2="233.14209" y2="173.72471" gradientUnits="userSpaceOnUse" id="color-16"><stop offset="0" stop-color="#97899e"/><stop offset="1" stop-color="#7f6e88"/></linearGradient><linearGradient x1="232.83704" y1="174.02181" x2="232.79474" y2="174.06301" gradientUnits="userSpaceOnUse" id="color-17"><stop offset="0" stop-color="#544c58"/><stop offset="1" stop-color="#4d3b58"/></linearGradient><linearGradient x1="233.29531" y1="173.57544" x2="233.25301" y2="173.61663" gradientUnits="userSpaceOnUse" id="color-18"><stop offset="0" stop-color="#a594ac"/><stop offset="1" stop-color="#96889d"/></linearGradient><linearGradient x1="232.95533" y1="173.63579" x2="232.86195" y2="173.72669" gradientUnits="userSpaceOnUse" id="color-19"><stop offset="0" stop-color="#806f89"/><stop offset="1" stop-color="#685473"/></linearGradient><linearGradient x1="232.81259" y1="173.77478" x2="232.73952" y2="173.84596" gradientUnits="userSpaceOnUse" id="color-20"><stop offset="0" stop-color="#6a5675"/><stop offset="1" stop-color="#5c4768"/></linearGradient><linearGradient x1="233.0798" y1="173.51456" x2="233.00671" y2="173.58574" gradientUnits="userSpaceOnUse" id="color-21"><stop offset="0" stop-color="#97899e"/><stop offset="1" stop-color="#7f6e88"/></linearGradient><linearGradient x1="232.70167" y1="173.88285" x2="232.65936" y2="173.92403" gradientUnits="userSpaceOnUse" id="color-22"><stop offset="0" stop-color="#544c58"/><stop offset="1" stop-color="#4d3b58"/></linearGradient><linearGradient x1="233.15994" y1="173.43648" x2="233.11764" y2="173.47766" gradientUnits="userSpaceOnUse" id="color-23"><stop offset="0" stop-color="#a594ac"/><stop offset="1" stop-color="#96889d"/></linearGradient><linearGradient x1="232.81995" y1="173.4968" x2="232.72657" y2="173.58772" gradientUnits="userSpaceOnUse" id="color-24"><stop offset="0" stop-color="#806f89"/><stop offset="1" stop-color="#685473"/></linearGradient><linearGradient x1="232.67721" y1="173.6358" x2="232.60414" y2="173.70699" gradientUnits="userSpaceOnUse" id="color-25"><stop offset="0" stop-color="#6a5675"/><stop offset="1" stop-color="#5c4768"/></linearGradient><linearGradient x1="232.94442" y1="173.37556" x2="232.87134" y2="173.44677" gradientUnits="userSpaceOnUse" id="color-26"><stop offset="0" stop-color="#97899e"/><stop offset="1" stop-color="#7f6e88"/></linearGradient><linearGradient x1="232.56629" y1="173.74387" x2="232.52399" y2="173.78506" gradientUnits="userSpaceOnUse" id="color-27"><stop offset="0" stop-color="#544c58"/><stop offset="1" stop-color="#4d3b58"/></linearGradient><linearGradient x1="233.02456" y1="173.29751" x2="232.98226" y2="173.3387" gradientUnits="userSpaceOnUse" id="color-28"><stop offset="0" stop-color="#a594ac"/><stop offset="1" stop-color="#96889d"/></linearGradient><linearGradient x1="232.68457" y1="173.35777" x2="232.59119" y2="173.44875" gradientUnits="userSpaceOnUse" id="color-29"><stop offset="0" stop-color="#806f89"/><stop offset="1" stop-color="#685473"/></linearGradient><linearGradient x1="232.54183" y1="173.49683" x2="232.46875" y2="173.56801" gradientUnits="userSpaceOnUse" id="color-30"><stop offset="0" stop-color="#6a5675"/><stop offset="1" stop-color="#5c4768"/></linearGradient><linearGradient x1="232.80904" y1="173.23654" x2="232.73596" y2="173.30772" gradientUnits="userSpaceOnUse" id="color-31"><stop offset="0" stop-color="#97899e"/><stop offset="1" stop-color="#7f6e88"/></linearGradient><linearGradient x1="232.4309" y1="173.6049" x2="232.38861" y2="173.64609" gradientUnits="userSpaceOnUse" id="color-32"><stop offset="0" stop-color="#544c58"/><stop offset="1" stop-color="#4d3b58"/></linearGradient><linearGradient x1="232.88918" y1="173.15851" x2="232.84689" y2="173.19973" gradientUnits="userSpaceOnUse" id="color-33"><stop offset="0" stop-color="#a594ac"/><stop offset="1" stop-color="#96889d"/></linearGradient><linearGradient x1="230.86572" y1="176.96199" x2="230.65589" y2="177.72113" gradientUnits="userSpaceOnUse" id="color-34"><stop offset="0" stop-color="#7b6f80"/><stop offset="1" stop-color="#382c3f"/></linearGradient><linearGradient x1="231.449" y1="176.95904" x2="231.15299" y2="178.03002" gradientUnits="userSpaceOnUse" id="color-35"><stop offset="0" stop-color="#ababab"/><stop offset="1" stop-color="#7e7e7e"/></linearGradient><linearGradient x1="231.32601" y1="177.40398" x2="231.27486" y2="177.58906" gradientUnits="userSpaceOnUse" id="color-36"><stop offset="0" stop-color="#323232"/><stop offset="1" stop-color="#232323"/></linearGradient><linearGradient x1="231.24781" y1="177.68692" x2="231.20778" y2="177.83172" gradientUnits="userSpaceOnUse" id="color-37"><stop offset="0" stop-color="#272727"/><stop offset="1" stop-color="#191919"/></linearGradient><linearGradient x1="231.3942" y1="177.15729" x2="231.35417" y2="177.30216" gradientUnits="userSpaceOnUse" id="color-38"><stop offset="0" stop-color="#393939"/><stop offset="1" stop-color="#323232"/></linearGradient><linearGradient x1="231.18705" y1="177.90675" x2="231.16389" y2="177.99056" gradientUnits="userSpaceOnUse" id="color-39"><stop offset="0" stop-color="#1f1f1f"/><stop offset="1" stop-color="#191919"/></linearGradient><linearGradient x1="231.4381" y1="176.99845" x2="231.41493" y2="177.08234" gradientUnits="userSpaceOnUse" id="color-40"><stop offset="0" stop-color="#515151"/><stop offset="1" stop-color="#3d3d3d"/></linearGradient><linearGradient x1="231.24186" y1="177.02217" x2="231.00766" y2="177.86947" gradientUnits="userSpaceOnUse" id="color-41"><stop offset="0" stop-color="#4b00bb"/><stop offset="1" stop-color="#30004f"/></linearGradient><linearGradient x1="230.39574" y1="176.81022" x2="230.17279" y2="177.61681" gradientUnits="userSpaceOnUse" id="color-42"><stop offset="0" stop-color="#4b00ba"/><stop offset="1" stop-color="#300050"/></linearGradient><linearGradient x1="230.99861" y1="177.34479" x2="230.96389" y2="177.47042" gradientUnits="userSpaceOnUse" id="color-43"><stop offset="0" stop-color="#806f89"/><stop offset="1" stop-color="#685473"/></linearGradient><linearGradient x1="230.94553" y1="177.53685" x2="230.91835" y2="177.63517" gradientUnits="userSpaceOnUse" id="color-44"><stop offset="0" stop-color="#6a5675"/><stop offset="1" stop-color="#5c4768"/></linearGradient><linearGradient x1="231.0449" y1="177.17734" x2="231.01772" y2="177.27566" gradientUnits="userSpaceOnUse" id="color-45"><stop offset="0" stop-color="#97899e"/><stop offset="1" stop-color="#7f6e88"/></linearGradient><linearGradient x1="230.90427" y1="177.68612" x2="230.88855" y2="177.74304" gradientUnits="userSpaceOnUse" id="color-46"><stop offset="0" stop-color="#544c58"/><stop offset="1" stop-color="#4d3b58"/></linearGradient><linearGradient x1="231.0747" y1="177.06945" x2="231.05898" y2="177.1264" gradientUnits="userSpaceOnUse" id="color-47"><stop offset="0" stop-color="#a594ac"/><stop offset="1" stop-color="#96889d"/></linearGradient><linearGradient x1="230.81161" y1="177.29312" x2="230.77689" y2="177.41875" gradientUnits="userSpaceOnUse" id="color-48"><stop offset="0" stop-color="#806f89"/><stop offset="1" stop-color="#685473"/></linearGradient><linearGradient x1="230.75853" y1="177.48519" x2="230.73135" y2="177.5835" gradientUnits="userSpaceOnUse" id="color-49"><stop offset="0" stop-color="#6a5675"/><stop offset="1" stop-color="#5c4768"/></linearGradient><linearGradient x1="230.85791" y1="177.12565" x2="230.83072" y2="177.22399" gradientUnits="userSpaceOnUse" id="color-50"><stop offset="0" stop-color="#97899e"/><stop offset="1" stop-color="#7f6e88"/></linearGradient><linearGradient x1="230.71728" y1="177.63445" x2="230.70154" y2="177.69132" gradientUnits="userSpaceOnUse" id="color-51"><stop offset="0" stop-color="#544c58"/><stop offset="1" stop-color="#4d3b58"/></linearGradient><linearGradient x1="230.88771" y1="177.01778" x2="230.87198" y2="177.07473" gradientUnits="userSpaceOnUse" id="color-52"><stop offset="0" stop-color="#a594ac"/><stop offset="1" stop-color="#96889d"/></linearGradient><linearGradient x1="230.6246" y1="177.24145" x2="230.58988" y2="177.36708" gradientUnits="userSpaceOnUse" id="color-53"><stop offset="0" stop-color="#806f89"/><stop offset="1" stop-color="#685473"/></linearGradient><linearGradient x1="230.57152" y1="177.43352" x2="230.54434" y2="177.53184" gradientUnits="userSpaceOnUse" id="color-54"><stop offset="0" stop-color="#6a5675"/><stop offset="1" stop-color="#5c4768"/></linearGradient><linearGradient x1="230.6709" y1="177.07393" x2="230.64373" y2="177.17225" gradientUnits="userSpaceOnUse" id="color-55"><stop offset="0" stop-color="#97899e"/><stop offset="1" stop-color="#7f6e88"/></linearGradient><linearGradient x1="230.53027" y1="177.58276" x2="230.51454" y2="177.63965" gradientUnits="userSpaceOnUse" id="color-56"><stop offset="0" stop-color="#544c58"/><stop offset="1" stop-color="#4d3b58"/></linearGradient><linearGradient x1="230.7007" y1="176.96611" x2="230.68497" y2="177.02306" gradientUnits="userSpaceOnUse" id="color-57"><stop offset="0" stop-color="#a594ac"/><stop offset="1" stop-color="#96889d"/></linearGradient><linearGradient x1="230.43759" y1="177.18971" x2="230.40287" y2="177.31542" gradientUnits="userSpaceOnUse" id="color-58"><stop offset="0" stop-color="#806f89"/><stop offset="1" stop-color="#685473"/></linearGradient><linearGradient x1="230.38451" y1="177.38177" x2="230.35733" y2="177.48009" gradientUnits="userSpaceOnUse" id="color-59"><stop offset="0" stop-color="#6a5675"/><stop offset="1" stop-color="#5c4768"/></linearGradient><linearGradient x1="230.48389" y1="177.02226" x2="230.45671" y2="177.12058" gradientUnits="userSpaceOnUse" id="color-60"><stop offset="0" stop-color="#97899e"/><stop offset="1" stop-color="#7f6e88"/></linearGradient><linearGradient x1="230.34326" y1="177.53104" x2="230.32753" y2="177.58798" gradientUnits="userSpaceOnUse" id="color-61"><stop offset="0" stop-color="#544c58"/><stop offset="1" stop-color="#4d3b58"/></linearGradient><linearGradient x1="230.5137" y1="176.91445" x2="230.49797" y2="176.97131" gradientUnits="userSpaceOnUse" id="color-62"><stop offset="0" stop-color="#a594ac"/><stop offset="1" stop-color="#96889d"/></linearGradient><linearGradient x1="236.59399" y1="171.0927" x2="235.88107" y2="171.42752" gradientUnits="userSpaceOnUse" id="color-63"><stop offset="0" stop-color="#7b6f80"/><stop offset="1" stop-color="#382c3f"/></linearGradient><linearGradient x1="236.97587" y1="171.5336" x2="235.97015" y2="172.00596" gradientUnits="userSpaceOnUse" id="color-64"><stop offset="0" stop-color="#ababab"/><stop offset="1" stop-color="#7e7e7e"/></linearGradient><linearGradient x1="236.55801" y1="171.72982" x2="236.38422" y2="171.81148" gradientUnits="userSpaceOnUse" id="color-65"><stop offset="0" stop-color="#323232"/><stop offset="1" stop-color="#232323"/></linearGradient><linearGradient x1="236.29235" y1="171.85456" x2="236.15633" y2="171.91848" gradientUnits="userSpaceOnUse" id="color-66"><stop offset="0" stop-color="#272727"/><stop offset="1" stop-color="#191919"/></linearGradient><linearGradient x1="236.78968" y1="171.62102" x2="236.65367" y2="171.68488" gradientUnits="userSpaceOnUse" id="color-67"><stop offset="0" stop-color="#393939"/><stop offset="1" stop-color="#323232"/></linearGradient><linearGradient x1="236.08589" y1="171.95158" x2="236.00717" y2="171.98856" gradientUnits="userSpaceOnUse" id="color-68"><stop offset="0" stop-color="#1f1f1f"/><stop offset="1" stop-color="#191919"/></linearGradient><linearGradient x1="236.93884" y1="171.551" x2="236.86012" y2="171.58798" gradientUnits="userSpaceOnUse" id="color-69"><stop offset="0" stop-color="#515151"/><stop offset="1" stop-color="#3d3d3d"/></linearGradient><linearGradient x1="236.79312" y1="171.41741" x2="235.99745" y2="171.79107" gradientUnits="userSpaceOnUse" id="color-70"><stop offset="0" stop-color="#4b00bb"/><stop offset="1" stop-color="#30004f"/></linearGradient><linearGradient x1="236.40333" y1="170.63706" x2="235.64586" y2="170.9928" gradientUnits="userSpaceOnUse" id="color-71"><stop offset="0" stop-color="#4b00ba"/><stop offset="1" stop-color="#300050"/></linearGradient><linearGradient x1="236.38986" y1="171.44274" x2="236.27188" y2="171.49817" gradientUnits="userSpaceOnUse" id="color-72"><stop offset="0" stop-color="#806f89"/><stop offset="1" stop-color="#685473"/></linearGradient><linearGradient x1="236.20951" y1="171.52745" x2="236.11716" y2="171.57079" gradientUnits="userSpaceOnUse" id="color-73"><stop offset="0" stop-color="#6a5675"/><stop offset="1" stop-color="#5c4768"/></linearGradient><linearGradient x1="236.54715" y1="171.36887" x2="236.4548" y2="171.41222" gradientUnits="userSpaceOnUse" id="color-74"><stop offset="0" stop-color="#97899e"/><stop offset="1" stop-color="#7f6e88"/></linearGradient><linearGradient x1="236.06934" y1="171.59326" x2="236.0159" y2="171.61835" gradientUnits="userSpaceOnUse" id="color-75"><stop offset="0" stop-color="#544c58"/><stop offset="1" stop-color="#4d3b58"/></linearGradient><linearGradient x1="236.64842" y1="171.32132" x2="236.59496" y2="171.3464" gradientUnits="userSpaceOnUse" id="color-76"><stop offset="0" stop-color="#a594ac"/><stop offset="1" stop-color="#96889d"/></linearGradient><linearGradient x1="236.30739" y1="171.26715" x2="236.18941" y2="171.32258" gradientUnits="userSpaceOnUse" id="color-77"><stop offset="0" stop-color="#806f89"/><stop offset="1" stop-color="#685473"/></linearGradient><linearGradient x1="236.12703" y1="171.35186" x2="236.0347" y2="171.3952" gradientUnits="userSpaceOnUse" id="color-78"><stop offset="0" stop-color="#6a5675"/><stop offset="1" stop-color="#5c4768"/></linearGradient><linearGradient x1="236.46467" y1="171.19328" x2="236.37233" y2="171.23662" gradientUnits="userSpaceOnUse" id="color-79"><stop offset="0" stop-color="#97899e"/><stop offset="1" stop-color="#7f6e88"/></linearGradient><linearGradient x1="235.98687" y1="171.41767" x2="235.93342" y2="171.44275" gradientUnits="userSpaceOnUse" id="color-80"><stop offset="0" stop-color="#544c58"/><stop offset="1" stop-color="#4d3b58"/></linearGradient><linearGradient x1="236.56594" y1="171.14573" x2="236.51249" y2="171.17081" gradientUnits="userSpaceOnUse" id="color-81"><stop offset="0" stop-color="#a594ac"/><stop offset="1" stop-color="#96889d"/></linearGradient><linearGradient x1="236.22491" y1="171.09149" x2="236.10693" y2="171.1469" gradientUnits="userSpaceOnUse" id="color-82"><stop offset="0" stop-color="#806f89"/><stop offset="1" stop-color="#685473"/></linearGradient><linearGradient x1="236.04455" y1="171.17624" x2="235.95221" y2="171.21961" gradientUnits="userSpaceOnUse" id="color-83"><stop offset="0" stop-color="#6a5675"/><stop offset="1" stop-color="#5c4768"/></linearGradient><linearGradient x1="236.38219" y1="171.01769" x2="236.28985" y2="171.06103" gradientUnits="userSpaceOnUse" id="color-84"><stop offset="0" stop-color="#97899e"/><stop offset="1" stop-color="#7f6e88"/></linearGradient><linearGradient x1="235.90439" y1="171.24208" x2="235.85095" y2="171.26715" gradientUnits="userSpaceOnUse" id="color-85"><stop offset="0" stop-color="#544c58"/><stop offset="1" stop-color="#4d3b58"/></linearGradient><linearGradient x1="236.48346" y1="170.97006" x2="236.43001" y2="170.99521" gradientUnits="userSpaceOnUse" id="color-86"><stop offset="0" stop-color="#a594ac"/><stop offset="1" stop-color="#96889d"/></linearGradient><linearGradient x1="236.14243" y1="170.91589" x2="236.02444" y2="170.97131" gradientUnits="userSpaceOnUse" id="color-87"><stop offset="0" stop-color="#806f89"/><stop offset="1" stop-color="#685473"/></linearGradient><linearGradient x1="235.96207" y1="171.00059" x2="235.86974" y2="171.04394" gradientUnits="userSpaceOnUse" id="color-88"><stop offset="0" stop-color="#6a5675"/><stop offset="1" stop-color="#5c4768"/></linearGradient><linearGradient x1="236.29971" y1="170.84201" x2="236.20738" y2="170.88541" gradientUnits="userSpaceOnUse" id="color-89"><stop offset="0" stop-color="#97899e"/><stop offset="1" stop-color="#7f6e88"/></linearGradient><linearGradient x1="235.82191" y1="171.06641" x2="235.76847" y2="171.09156" gradientUnits="userSpaceOnUse" id="color-90"><stop offset="0" stop-color="#544c58"/><stop offset="1" stop-color="#4d3b58"/></linearGradient><linearGradient x1="236.40098" y1="170.79447" x2="236.34754" y2="170.81955" gradientUnits="userSpaceOnUse" id="color-91"><stop offset="0" stop-color="#a594ac"/><stop offset="1" stop-color="#96889d"/></linearGradient><radialGradient cx="234.51091" cy="174.61556" r="3.64568" gradientUnits="userSpaceOnUse" id="color-92"><stop offset="0" stop-color="#d699ff"/><stop offset="1" stop-color="#9966ff"/></radialGradient></defs><g transform="translate(-230.13012,-170.58553)"><g data-paper-data="{&quot;isPaintingLayer&quot;:true}" fill-rule="nonzero" stroke-linejoin="miter" stroke-miterlimit="10" stroke-dasharray="" stroke-dashoffset="0" style="mix-blend-mode: normal"><path d="M230.58547,180.00007c0,-5.19949 4.21503,-9.41454 9.41454,-9.41454c5.19949,0 9.41454,4.21503 9.41454,9.41454c0,5.19949 -4.21503,9.41454 -9.41454,9.41454c-5.19949,0 -9.41454,-4.21503 -9.41454,-9.41454z" fill="url(#color-1)" stroke="none" stroke-width="0.5" stroke-linecap="butt"/><path d="M232.35676,180.00005c0,-4.22123 3.42199,-7.64324 7.64324,-7.64324c4.22123,0 7.64324,3.42199 7.64324,7.64324c0,4.22123 -3.42199,7.64324 -7.64324,7.64324c-4.22123,0 -7.64324,-3.42199 -7.64324,-7.64324z" fill="url(#color-2)" stroke="none" stroke-width="0.5" stroke-linecap="butt"/><path d="M233.52942,180.00007c0,-3.57362 2.897,-6.47063 6.47063,-6.47063c3.57362,0 6.47063,2.897 6.47063,6.47063c0,3.57362 -2.897,6.47063 -6.47063,6.47063c-3.57362,0 -6.47063,-2.897 -6.47063,-6.47063z" fill="url(#color-3)" stroke="none" stroke-width="0.5" stroke-linecap="butt"/><path d="M234.67922,180.00007c0,-2.9386 2.38221,-5.32083 5.32083,-5.32083c2.9386,0 5.32083,2.38221 5.32083,5.32083c0,2.9386 -2.38221,5.32083 -5.32083,5.32083c-2.9386,0 -5.32083,-2.38221 -5.32083,-5.32083z" fill="url(#color-4)" stroke="none" stroke-width="0.5" stroke-linecap="butt"/><g><path d="M240.05552,172.15229c0,0 -2.5235,-0.16074 -5.28454,2.14051c-2.70369,2.25346 -2.65047,5.74493 -2.65047,5.74493h-0.87615c0,0 -0.24218,-4.09271 2.89404,-6.44678c3.37488,-2.90131 5.97912,-2.32909 5.97912,-2.32909z" data-paper-data="{&quot;index&quot;:null}" fill="#000000" stroke="#000000" stroke-width="0.25" stroke-linecap="butt"/><g data-paper-data="{&quot;index&quot;:null}" stroke-width="0" stroke-linecap="butt"><path d="M232.94593,174.27683l-0.68205,-0.70022l0.5642,-0.54957l0.68206,0.70022z" fill="url(#color-5)" stroke="#000000"/><path d="M232.96904,174.53739l-0.18155,-0.18639l0.79593,-0.77528l0.18156,0.18638z" fill="url(#color-6)" stroke="none"/><path d="M233.26975,174.1905l-0.12758,-0.13098l0.13754,-0.13397l0.12758,0.13098z" fill="url(#color-7)" stroke="#000000"/><path d="M233.08939,174.36619l-0.12758,-0.13098l0.10764,-0.10485l0.12758,0.13097z" fill="url(#color-8)" stroke="#000000"/><path d="M233.48299,173.98278l-0.12758,-0.13098l0.10764,-0.10485l0.12758,0.13098z" fill="url(#color-9)" stroke="#000000"/><path d="M232.97134,174.48116l-0.12758,-0.13098l0.06231,-0.06069l0.12758,0.13098z" fill="url(#color-10)" stroke="#000000"/><path d="M233.64637,173.82365l-0.12758,-0.13098l0.06231,-0.06069l0.12758,0.13098z" fill="url(#color-11)" stroke="#000000"/><path d="M232.8706,174.27003l-0.0736,-0.07555l0.62968,-0.61335l0.0736,0.07555z" fill="url(#color-12)" stroke="#000000"/><path d="M232.26745,173.62058l-0.05398,-0.05541l0.59946,-0.58392l0.05398,0.05541z" fill="url(#color-13)" stroke="#000000"/><path d="M233.04695,173.91669l-0.09928,-0.10191l0.09338,-0.09097l0.09928,0.10192z" fill="url(#color-14)" stroke="#000000"/><path d="M232.92453,174.03596l-0.09928,-0.10192l0.07307,-0.07119l0.09928,0.10191z" fill="url(#color-15)" stroke="#000000"/><path d="M233.19174,173.77566l-0.09928,-0.10192l0.07308,-0.07119l0.09928,0.10192z" fill="url(#color-16)" stroke="#000000"/><path d="M232.84438,174.11395l-0.09928,-0.10192l0.0423,-0.0412l0.09928,0.10192z" fill="url(#color-17)" stroke="#000000"/><path d="M233.30265,173.66759l-0.09928,-0.10192l0.0423,-0.04119l0.09928,0.10191z" fill="url(#color-18)" stroke="#000000"/><path d="M232.91157,173.77772l-0.09928,-0.10191l0.09338,-0.09096l0.09928,0.10192z" fill="url(#color-19)" stroke="#000000"/><path d="M232.78915,173.89696l-0.09928,-0.10192l0.07307,-0.07118l0.09928,0.10191z" fill="url(#color-20)" stroke="#000000"/><path d="M233.05635,173.63669l-0.09928,-0.10192l0.07308,-0.07119l0.09928,0.10192z" fill="url(#color-21)" stroke="#000000"/><path d="M232.70899,173.97498l-0.09928,-0.10192l0.0423,-0.0412l0.09928,0.10191z" fill="url(#color-22)" stroke="#000000"/><path d="M233.16727,173.52861l-0.09928,-0.10191l0.0423,-0.0412l0.09928,0.10192z" fill="url(#color-23)" stroke="#000000"/><path d="M232.7762,173.63868l-0.09927,-0.10191l0.09338,-0.09097l0.09928,0.10192z" fill="url(#color-24)" stroke="#000000"/><path d="M232.65377,173.75794l-0.09928,-0.10192l0.07308,-0.07118l0.09928,0.10191z" fill="url(#color-25)" stroke="#000000"/><path d="M232.92098,173.49772l-0.09928,-0.10191l0.07307,-0.07119l0.09928,0.10192z" fill="url(#color-26)" stroke="#000000"/><path d="M232.57362,173.83602l-0.09928,-0.10192l0.0423,-0.04119l0.09928,0.10191z" fill="url(#color-27)" stroke="#000000"/><path d="M233.0319,173.38965l-0.09928,-0.10192l0.0423,-0.0412l0.09928,0.10192z" fill="url(#color-28)" stroke="#000000"/><path d="M232.64082,173.4997l-0.09928,-0.10192l0.09339,-0.09096l0.09928,0.10191z" fill="url(#color-29)" stroke="#000000"/><path d="M232.51839,173.61897l-0.09928,-0.10192l0.07308,-0.07119l0.09928,0.10192z" fill="url(#color-30)" stroke="#000000"/><path d="M232.7856,173.35868l-0.09928,-0.10191l0.07307,-0.07119l0.09928,0.10191z" fill="url(#color-31)" stroke="#000000"/><path d="M232.43824,173.69704l-0.09928,-0.10191l0.0423,-0.0412l0.09928,0.10192z" fill="url(#color-32)" stroke="#000000"/><path d="M232.89652,173.25068l-0.09928,-0.10192l0.0423,-0.04119l0.09928,0.10191z" fill="url(#color-33)" stroke="#000000"/></g><g data-paper-data="{&quot;index&quot;:null}" stroke-width="0" stroke-linecap="butt"><path d="M231.12697,177.85133l-0.94217,-0.26042l0.20983,-0.75916l0.94217,0.26042z" fill="url(#color-34)" stroke="#000000"/><path d="M231.27838,178.06463l-0.25079,-0.06931l0.29602,-1.07095l0.25079,0.06932z" fill="url(#color-35)" stroke="none"/><path d="M231.36298,177.61342l-0.17623,-0.04871l0.05115,-0.18507l0.17623,0.04871z" fill="url(#color-36)" stroke="#000000"/><path d="M231.2959,177.85608l-0.17623,-0.04871l0.04003,-0.14484l0.17624,0.0487z" fill="url(#color-37)" stroke="#000000"/><path d="M231.44228,177.32652l-0.17623,-0.04871l0.04003,-0.14484l0.17623,0.04871z" fill="url(#color-38)" stroke="#000000"/><path d="M231.25199,178.01492l-0.17623,-0.04871l0.02318,-0.08383l0.17623,0.04871z" fill="url(#color-39)" stroke="#000000"/><path d="M231.50304,177.10669l-0.17624,-0.04871l0.02318,-0.08383l0.17623,0.04871z" fill="url(#color-40)" stroke="#000000"/><path d="M231.0585,177.88347l-0.10167,-0.0281l0.23418,-0.84726l0.10167,0.02809z" fill="url(#color-41)" stroke="#000000"/><path d="M230.21006,177.62711l-0.07456,-0.02061l0.22295,-0.80661l0.07456,0.02061z" fill="url(#color-42)" stroke="#000000"/><path d="M231.03245,177.4894l-0.13714,-0.0379l0.03473,-0.12565l0.13714,0.0379z" fill="url(#color-43)" stroke="#000000"/><path d="M230.98692,177.65415l-0.13714,-0.0379l0.02717,-0.09834l0.13714,0.0379z" fill="url(#color-44)" stroke="#000000"/><path d="M231.0863,177.29457l-0.13714,-0.0379l0.02717,-0.09833l0.13714,0.0379z" fill="url(#color-45)" stroke="#000000"/><path d="M230.95711,177.76196l-0.13714,-0.0379l0.01573,-0.05691l0.13714,0.0379z" fill="url(#color-46)" stroke="#000000"/><path d="M231.12755,177.14538l-0.13714,-0.0379l0.01574,-0.05692l0.13714,0.0379z" fill="url(#color-47)" stroke="#000000"/><path d="M230.84544,177.43773l-0.13714,-0.0379l0.03474,-0.12565l0.13714,0.0379z" fill="url(#color-48)" stroke="#000000"/><path d="M230.79991,177.60249l-0.13714,-0.0379l0.02717,-0.09833l0.13714,0.0379z" fill="url(#color-49)" stroke="#000000"/><path d="M230.89929,177.24289l-0.13714,-0.0379l0.02717,-0.09833l0.13714,0.0379z" fill="url(#color-50)" stroke="#000000"/><path d="M230.7701,177.71029l-0.13714,-0.0379l0.01574,-0.05692l0.13714,0.0379z" fill="url(#color-51)" stroke="#000000"/><path d="M230.94054,177.09364l-0.13714,-0.0379l0.01574,-0.05692l0.13714,0.0379z" fill="url(#color-52)" stroke="#000000"/><path d="M230.65844,177.38604l-0.13714,-0.0379l0.03473,-0.12566l0.13714,0.0379z" fill="url(#color-53)" stroke="#000000"/><path d="M230.61292,177.55075l-0.13714,-0.0379l0.02717,-0.09833l0.13714,0.0379z" fill="url(#color-54)" stroke="#000000"/><path d="M230.71229,177.19122l-0.13714,-0.0379l0.02717,-0.09833l0.13714,0.0379z" fill="url(#color-55)" stroke="#000000"/><path d="M230.5831,177.65863l-0.13714,-0.0379l0.01574,-0.05692l0.13714,0.0379z" fill="url(#color-56)" stroke="#000000"/><path d="M230.75354,177.04196l-0.13714,-0.0379l0.01574,-0.05692l0.13714,0.0379z" fill="url(#color-57)" stroke="#000000"/><path d="M230.47143,177.33432l-0.13714,-0.0379l0.03474,-0.12565l0.13714,0.0379z" fill="url(#color-58)" stroke="#000000"/><path d="M230.42591,177.49907l-0.13714,-0.0379l0.02717,-0.09833l0.13714,0.0379z" fill="url(#color-59)" stroke="#000000"/><path d="M230.52529,177.13956l-0.13714,-0.0379l0.02717,-0.09833l0.13714,0.0379z" fill="url(#color-60)" stroke="#000000"/><path d="M230.39609,177.60689l-0.13714,-0.0379l0.01573,-0.05692l0.13714,0.0379z" fill="url(#color-61)" stroke="#000000"/><path d="M230.56653,176.99029l-0.13714,-0.0379l0.01574,-0.05691l0.13714,0.0379z" fill="url(#color-62)" stroke="#000000"/></g><g data-paper-data="{&quot;index&quot;:null}" stroke-width="0" stroke-linecap="butt"><path d="M236.08884,171.86986l-0.41553,-0.88479l0.71292,-0.33482l0.41553,0.88478z" fill="url(#color-63)" stroke="#000000"/><path d="M236.02546,172.12371l-0.11061,-0.23551l1.00572,-0.47233l0.1106,0.23551z" fill="url(#color-64)" stroke="none"/><path d="M236.42308,171.89421l-0.07773,-0.1655l0.17379,-0.08163l0.07773,0.1655z" fill="url(#color-65)" stroke="#000000"/><path d="M236.19519,172.00122l-0.07773,-0.1655l0.13601,-0.06389l0.07774,0.1655z" fill="url(#color-66)" stroke="#000000"/><path d="M236.69253,171.76769l-0.07773,-0.1655l0.13602,-0.06388l0.07773,0.1655z" fill="url(#color-67)" stroke="#000000"/><path d="M236.04602,172.0713l-0.07773,-0.1655l0.07873,-0.03697l0.07772,0.1655z" fill="url(#color-68)" stroke="#000000"/><path d="M236.89898,171.67072l-0.07773,-0.1655l0.07873,-0.03697l0.07773,0.1655z" fill="url(#color-69)" stroke="#000000"/><path d="M236.01987,171.8388l-0.04485,-0.09547l0.79566,-0.37368l0.04484,0.09547z" fill="url(#color-70)" stroke="#000000"/><path d="M235.6623,171.02781l-0.03289,-0.07002l0.75747,-0.35575l0.03288,0.07002z" fill="url(#color-71)" stroke="#000000"/><path d="M236.30211,171.56255l-0.06049,-0.12878l0.118,-0.05542l0.06049,0.12878z" fill="url(#color-72)" stroke="#000000"/><path d="M236.14741,171.63518l-0.06048,-0.12878l0.09234,-0.04337l0.06048,0.12878z" fill="url(#color-73)" stroke="#000000"/><path d="M236.48505,171.47661l-0.06048,-0.12878l0.09234,-0.04337l0.06048,0.12878z" fill="url(#color-74)" stroke="#000000"/><path d="M236.04614,171.68273l-0.06048,-0.12878l0.05344,-0.02509l0.06049,0.12878z" fill="url(#color-75)" stroke="#000000"/><path d="M236.6252,171.41078l-0.06049,-0.12879l0.05345,-0.02509l0.06048,0.12878z" fill="url(#color-76)" stroke="#000000"/><path d="M236.21962,171.38696l-0.06048,-0.12879l0.118,-0.05541l0.06048,0.12878z" fill="url(#color-77)" stroke="#000000"/><path d="M236.06493,171.45958l-0.06048,-0.12878l0.09234,-0.04337l0.06048,0.12878z" fill="url(#color-78)" stroke="#000000"/><path d="M236.40257,171.301l-0.06049,-0.12878l0.09234,-0.04337l0.06048,0.12878z" fill="url(#color-79)" stroke="#000000"/><path d="M235.96366,171.50713l-0.06049,-0.12878l0.05345,-0.0251l0.06049,0.12879z" fill="url(#color-80)" stroke="#000000"/><path d="M236.54272,171.23519l-0.06048,-0.12878l0.05345,-0.02509l0.06048,0.12877z" fill="url(#color-81)" stroke="#000000"/><path d="M236.13716,171.21134l-0.06049,-0.12878l0.118,-0.05542l0.06048,0.12878z" fill="url(#color-82)" stroke="#000000"/><path d="M235.98245,171.28399l-0.06049,-0.12878l0.09234,-0.04337l0.06049,0.12878z" fill="url(#color-83)" stroke="#000000"/><path d="M236.32009,171.12541l-0.06048,-0.12878l0.09234,-0.04337l0.06048,0.12878z" fill="url(#color-84)" stroke="#000000"/><path d="M235.88118,171.33153l-0.06048,-0.12878l0.05345,-0.0251l0.06048,0.12879z" fill="url(#color-85)" stroke="#000000"/><path d="M236.46025,171.05959l-0.06049,-0.12878l0.05345,-0.0251l0.06048,0.12878z" fill="url(#color-86)" stroke="#000000"/><path d="M236.05467,171.03569l-0.06048,-0.12879l0.118,-0.05541l0.06048,0.12878z" fill="url(#color-87)" stroke="#000000"/><path d="M235.89997,171.1084l-0.06048,-0.12877l0.09234,-0.04337l0.06048,0.12878z" fill="url(#color-88)" stroke="#000000"/><path d="M236.23762,170.94982l-0.06049,-0.12879l0.09234,-0.04337l0.06048,0.12878z" fill="url(#color-89)" stroke="#000000"/><path d="M235.7987,171.15594l-0.06049,-0.12879l0.05345,-0.02509l0.06049,0.12878z" fill="url(#color-90)" stroke="#000000"/><path d="M236.37777,170.88393l-0.06049,-0.12878l0.05345,-0.0251l0.06048,0.12878z" fill="url(#color-91)" stroke="#000000"/></g><path d="M232.07501,180.25005c0,-4.48828 3.30754,-8.03256 7.91818,-8.20018" fill="none" stroke="#ffffff" stroke-width="0.5" stroke-linecap="butt"/><path d="M232.36709,179.70949c0,0 0.21642,-2.84641 2.00379,-4.83718c1.80034,-2.00523 4.83872,-2.45418 4.83872,-2.45418" data-paper-data="{&quot;index&quot;:null}" fill="none" stroke="url(#color-92)" stroke-width="0.25" stroke-linecap="round"/><g data-paper-data="{&quot;index&quot;:null}" fill-opacity="0.68627" fill="#000000" stroke-width="0" stroke-linecap="butt"><path d="M232.94055,174.27251l-0.68205,-0.70022l0.5642,-0.54957l0.68206,0.70022z" stroke="#000000"/><path d="M232.96366,174.53307l-0.18155,-0.18639l0.79593,-0.77528l0.18156,0.18638z" stroke="none"/><path d="M233.26437,174.18618l-0.12758,-0.13098l0.13754,-0.13397l0.12758,0.13098z" stroke="#000000"/><path d="M233.08401,174.36186l-0.12758,-0.13098l0.10764,-0.10485l0.12758,0.13097z" stroke="#000000"/><path d="M233.47761,173.97846l-0.12758,-0.13098l0.10764,-0.10485l0.12758,0.13098z" stroke="#000000"/><path d="M232.96596,174.47684l-0.12758,-0.13098l0.06231,-0.06069l0.12758,0.13098z" stroke="#000000"/><path d="M233.64099,173.81928l-0.12758,-0.13098l0.06231,-0.06069l0.12758,0.13098z" stroke="#000000"/><path d="M232.86522,174.26571l-0.0736,-0.07555l0.62968,-0.61335l0.0736,0.07555z" stroke="#000000"/><path d="M232.26207,173.61626l-0.05398,-0.05541l0.59946,-0.58392l0.05398,0.05541z" stroke="#000000"/><path d="M233.04157,173.9123l-0.09928,-0.10191l0.09338,-0.09097l0.09928,0.10192z" stroke="#000000"/><path d="M232.91915,174.03157l-0.09928,-0.10192l0.07307,-0.07119l0.09928,0.10191z" stroke="#000000"/><path d="M233.18636,173.77128l-0.09928,-0.10192l0.07308,-0.07119l0.09928,0.10192z" stroke="#000000"/><path d="M232.839,174.10963l-0.09928,-0.10192l0.0423,-0.0412l0.09928,0.10192z" stroke="#000000"/><path d="M233.29727,173.66327l-0.09928,-0.10192l0.0423,-0.04119l0.09928,0.10191z" stroke="#000000"/><path d="M232.90619,173.77333l-0.09928,-0.10191l0.09338,-0.09096l0.09928,0.10192z" stroke="#000000"/><path d="M232.78377,173.8926l-0.09928,-0.10192l0.07307,-0.07118l0.09928,0.10191z" stroke="#000000"/><path d="M233.05097,173.6323l-0.09928,-0.10192l0.07308,-0.07119l0.09928,0.10192z" stroke="#000000"/><path d="M232.70361,173.97066l-0.09928,-0.10192l0.0423,-0.0412l0.09928,0.10191z" stroke="#000000"/><path d="M233.16189,173.52429l-0.09928,-0.10191l0.0423,-0.0412l0.09928,0.10192z" stroke="#000000"/><path d="M232.77082,173.63436l-0.09927,-0.10191l0.09338,-0.09097l0.09928,0.10192z" stroke="#000000"/><path d="M232.64839,173.75362l-0.09928,-0.10192l0.07308,-0.07118l0.09928,0.10191z" stroke="#000000"/><path d="M232.9156,173.49333l-0.09928,-0.10191l0.07307,-0.07119l0.09928,0.10192z" stroke="#000000"/><path d="M232.56824,173.8317l-0.09928,-0.10192l0.0423,-0.04119l0.09928,0.10191z" stroke="#000000"/><path d="M233.02652,173.38527l-0.09928,-0.10192l0.0423,-0.0412l0.09928,0.10192z" stroke="#000000"/><path d="M232.63544,173.49538l-0.09928,-0.10192l0.09339,-0.09096l0.09928,0.10191z" stroke="#000000"/><path d="M232.51301,173.61465l-0.09928,-0.10192l0.07308,-0.07119l0.09928,0.10192z" stroke="#000000"/><path d="M232.78022,173.35436l-0.09928,-0.10191l0.07307,-0.07119l0.09928,0.10191z" stroke="#000000"/><path d="M232.43286,173.69272l-0.09928,-0.10191l0.0423,-0.0412l0.09928,0.10192z" stroke="#000000"/><path d="M232.89114,173.24629l-0.09928,-0.10192l0.0423,-0.04119l0.09928,0.10191z" stroke="#000000"/></g><g data-paper-data="{&quot;index&quot;:null}" fill-opacity="0.68627" fill="#000000" stroke-width="0" stroke-linecap="butt"><path d="M231.12159,177.84701l-0.94217,-0.26042l0.20983,-0.75916l0.94217,0.26042z" stroke="#000000"/><path d="M231.273,178.06031l-0.25079,-0.06931l0.29602,-1.07095l0.25079,0.06932z" stroke="none"/><path d="M231.3576,177.6091l-0.17623,-0.04871l0.05115,-0.18507l0.17623,0.04871z" stroke="#000000"/><path d="M231.29052,177.85176l-0.17623,-0.04871l0.04003,-0.14484l0.17624,0.0487z" stroke="#000000"/><path d="M231.4369,177.32214l-0.17623,-0.04871l0.04003,-0.14484l0.17623,0.04871z" stroke="#000000"/><path d="M231.24661,178.0106l-0.17623,-0.04871l0.02318,-0.08383l0.17623,0.04871z" stroke="#000000"/><path d="M231.49766,177.10231l-0.17624,-0.04871l0.02318,-0.08383l0.17623,0.04871z" stroke="#000000"/><path d="M231.05312,177.87915l-0.10167,-0.0281l0.23418,-0.84726l0.10167,0.02809z" stroke="#000000"/><path d="M230.20468,177.62274l-0.07456,-0.02061l0.22295,-0.80661l0.07456,0.02061z" stroke="#000000"/><path d="M231.02707,177.48508l-0.13714,-0.0379l0.03473,-0.12565l0.13714,0.0379z" stroke="#000000"/><path d="M230.98154,177.64978l-0.13714,-0.0379l0.02717,-0.09834l0.13714,0.0379z" stroke="#000000"/><path d="M231.08092,177.29025l-0.13714,-0.0379l0.02717,-0.09833l0.13714,0.0379z" stroke="#000000"/><path d="M230.95173,177.75764l-0.13714,-0.0379l0.01573,-0.05691l0.13714,0.0379z" stroke="#000000"/><path d="M231.12217,177.14099l-0.13714,-0.0379l0.01574,-0.05692l0.13714,0.0379z" stroke="#000000"/><path d="M230.84006,177.43336l-0.13714,-0.0379l0.03474,-0.12565l0.13714,0.0379z" stroke="#000000"/><path d="M230.79453,177.5981l-0.13714,-0.0379l0.02717,-0.09833l0.13714,0.0379z" stroke="#000000"/><path d="M230.89391,177.23857l-0.13714,-0.0379l0.02717,-0.09833l0.13714,0.0379z" stroke="#000000"/><path d="M230.76472,177.70592l-0.13714,-0.0379l0.01574,-0.05692l0.13714,0.0379z" stroke="#000000"/><path d="M230.93516,177.08932l-0.13714,-0.0379l0.01574,-0.05692l0.13714,0.0379z" stroke="#000000"/><path d="M230.65306,177.38168l-0.13714,-0.0379l0.03473,-0.12566l0.13714,0.0379z" stroke="#000000"/><path d="M230.60754,177.54643l-0.13714,-0.0379l0.02717,-0.09833l0.13714,0.0379z" stroke="#000000"/><path d="M230.70691,177.1869l-0.13714,-0.0379l0.02717,-0.09833l0.13714,0.0379z" stroke="#000000"/><path d="M230.57772,177.65424l-0.13714,-0.0379l0.01574,-0.05692l0.13714,0.0379z" stroke="#000000"/><path d="M230.74816,177.03764l-0.13714,-0.0379l0.01574,-0.05692l0.13714,0.0379z" stroke="#000000"/><path d="M230.46605,177.33l-0.13714,-0.0379l0.03474,-0.12565l0.13714,0.0379z" stroke="#000000"/><path d="M230.42053,177.49475l-0.13714,-0.0379l0.02717,-0.09833l0.13714,0.0379z" stroke="#000000"/><path d="M230.51991,177.13518l-0.13714,-0.0379l0.02717,-0.09833l0.13714,0.0379z" stroke="#000000"/><path d="M230.39071,177.60257l-0.13714,-0.0379l0.01573,-0.05692l0.13714,0.0379z" stroke="#000000"/><path d="M230.56115,176.98592l-0.13714,-0.0379l0.01574,-0.05691l0.13714,0.0379z" stroke="#000000"/></g><g data-paper-data="{&quot;index&quot;:null}" fill-opacity="0.68627" fill="#000000" stroke-width="0" stroke-linecap="butt"><path d="M236.08346,171.86554l-0.41553,-0.88479l0.71292,-0.33482l0.41553,0.88478z" stroke="#000000"/><path d="M236.02008,172.11932l-0.11061,-0.23551l1.00572,-0.47233l0.1106,0.23551z" stroke="none"/><path d="M236.4177,171.88984l-0.07773,-0.1655l0.17379,-0.08163l0.07773,0.1655z" stroke="#000000"/><path d="M236.18981,171.9969l-0.07773,-0.1655l0.13601,-0.06389l0.07774,0.1655z" stroke="#000000"/><path d="M236.68715,171.7633l-0.07773,-0.1655l0.13602,-0.06388l0.07773,0.1655z" stroke="#000000"/><path d="M236.04064,172.06694l-0.07773,-0.1655l0.07873,-0.03697l0.07772,0.1655z" stroke="#000000"/><path d="M236.8936,171.66633l-0.07773,-0.1655l0.07873,-0.03697l0.07773,0.1655z" stroke="#000000"/><path d="M236.01449,171.83448l-0.04485,-0.09547l0.79566,-0.37368l0.04484,0.09547z" stroke="#000000"/><path d="M235.65692,171.02349l-0.03289,-0.07002l0.75747,-0.35575l0.03288,0.07002z" stroke="#000000"/><path d="M236.29673,171.55823l-0.06049,-0.12878l0.118,-0.05542l0.06049,0.12878z" stroke="#000000"/><path d="M236.14203,171.63086l-0.06048,-0.12878l0.09234,-0.04337l0.06048,0.12878z" stroke="#000000"/><path d="M236.47967,171.47229l-0.06048,-0.12878l0.09234,-0.04337l0.06048,0.12878z" stroke="#000000"/><path d="M236.04076,171.67841l-0.06048,-0.12878l0.05344,-0.02509l0.06049,0.12878z" stroke="#000000"/><path d="M236.61982,171.40646l-0.06049,-0.12879l0.05345,-0.02509l0.06048,0.12878z" stroke="#000000"/><path d="M236.21424,171.38257l-0.06048,-0.12879l0.118,-0.05541l0.06048,0.12878z" stroke="#000000"/><path d="M236.05955,171.45526l-0.06048,-0.12878l0.09234,-0.04337l0.06048,0.12878z" stroke="#000000"/><path d="M236.39719,171.29668l-0.06049,-0.12878l0.09234,-0.04337l0.06048,0.12878z" stroke="#000000"/><path d="M235.95828,171.50281l-0.06049,-0.12878l0.05345,-0.0251l0.06049,0.12879z" stroke="#000000"/><path d="M236.53734,171.23086l-0.06048,-0.12878l0.05345,-0.02509l0.06048,0.12877z" stroke="#000000"/><path d="M236.13178,171.20698l-0.06049,-0.12878l0.118,-0.05542l0.06048,0.12878z" stroke="#000000"/><path d="M235.97707,171.27966l-0.06049,-0.12878l0.09234,-0.04337l0.06049,0.12878z" stroke="#000000"/><path d="M236.31471,171.12109l-0.06048,-0.12878l0.09234,-0.04337l0.06048,0.12878z" stroke="#000000"/><path d="M235.8758,171.32721l-0.06048,-0.12878l0.05345,-0.0251l0.06048,0.12879z" stroke="#000000"/><path d="M236.45487,171.05521l-0.06049,-0.12878l0.05345,-0.0251l0.06048,0.12878z" stroke="#000000"/><path d="M236.04929,171.03137l-0.06048,-0.12879l0.118,-0.05541l0.06048,0.12878z" stroke="#000000"/><path d="M235.89459,171.10401l-0.06048,-0.12877l0.09234,-0.04337l0.06048,0.12878z" stroke="#000000"/><path d="M236.23224,170.94544l-0.06049,-0.12879l0.09234,-0.04337l0.06048,0.12878z" stroke="#000000"/><path d="M235.79332,171.15156l-0.06049,-0.12879l0.05345,-0.02509l0.06049,0.12878z" stroke="#000000"/><path d="M236.37239,170.87961l-0.06049,-0.12878l0.05345,-0.0251l0.06048,0.12878z" stroke="#000000"/></g></g></g></g></svg>