<svg version="1.1" xmlns="http://www.w3.org/2000/svg" xmlns:xlink="http://www.w3.org/1999/xlink" width="59" height="59.70662" viewBox="0,0,59,59.70662"><defs><linearGradient x1="240" y1="151.64669" x2="240" y2="208.35331" gradientUnits="userSpaceOnUse" id="color-1"><stop offset="0" stop-color="#191919"/><stop offset="1" stop-color="#050505"/></linearGradient><linearGradient x1="240" y1="151.64669" x2="240" y2="208.35331" gradientUnits="userSpaceOnUse" id="color-2"><stop offset="0" stop-color="#cccccc"/><stop offset="1" stop-color="#898989"/></linearGradient><radialGradient cx="240" cy="180" r="26.8571" gradientUnits="userSpaceOnUse" id="color-3"><stop offset="0" stop-color="#ffffff" stop-opacity="0.35484"/><stop offset="1" stop-color="#ffffff" stop-opacity="0"/></radialGradient><linearGradient x1="240" y1="153.29211" x2="240" y2="206.70789" gradientUnits="userSpaceOnUse" id="color-4"><stop offset="0" stop-color="#cccccc"/><stop offset="1" stop-color="#898989"/></linearGradient><linearGradient x1="241.42345" y1="195.90313" x2="242.09888" y2="196.08496" gradientUnits="userSpaceOnUse" id="color-5"><stop offset="0" stop-color="#524c43"/><stop offset="1" stop-color="#36312c"/></linearGradient><linearGradient x1="241.42345" y1="195.90313" x2="242.09888" y2="196.08496" gradientUnits="userSpaceOnUse" id="color-6"><stop offset="0" stop-color="#1f1f1f"/><stop offset="1" stop-color="#000000"/></linearGradient><linearGradient x1="241.68818" y1="193.75199" x2="242.96635" y2="194.09606" gradientUnits="userSpaceOnUse" id="color-7"><stop offset="0" stop-color="#ab966a"/><stop offset="1" stop-color="#4f3f2d"/></linearGradient><linearGradient x1="241.68818" y1="193.75199" x2="242.96635" y2="194.09606" gradientUnits="userSpaceOnUse" id="color-8"><stop offset="0" stop-color="#1f1f1f"/><stop offset="1" stop-color="#000000"/></linearGradient><linearGradient x1="237.93694" y1="195.86488" x2="238.65618" y2="195.78381" gradientUnits="userSpaceOnUse" id="color-9"><stop offset="0" stop-color="#523f2b"/><stop offset="1" stop-color="#2e2316"/></linearGradient><linearGradient x1="237.93694" y1="195.86488" x2="238.65618" y2="195.78381" gradientUnits="userSpaceOnUse" id="color-10"><stop offset="0" stop-color="#1f1f1f"/><stop offset="1" stop-color="#000000"/></linearGradient><linearGradient x1="242.18426" y1="195.98321" x2="242.85967" y2="196.16503" gradientUnits="userSpaceOnUse" id="color-11"><stop offset="0" stop-color="#524c43"/><stop offset="1" stop-color="#36312c"/></linearGradient><linearGradient x1="242.18426" y1="195.98321" x2="242.85967" y2="196.16503" gradientUnits="userSpaceOnUse" id="color-12"><stop offset="0" stop-color="#1f1f1f"/><stop offset="1" stop-color="#000000"/></linearGradient><linearGradient x1="242.44898" y1="193.83206" x2="243.72715" y2="194.17614" gradientUnits="userSpaceOnUse" id="color-13"><stop offset="0" stop-color="#ab966a"/><stop offset="1" stop-color="#4f3f2d"/></linearGradient><linearGradient x1="242.44898" y1="193.83206" x2="243.72715" y2="194.17614" gradientUnits="userSpaceOnUse" id="color-14"><stop offset="0" stop-color="#1f1f1f"/><stop offset="1" stop-color="#000000"/></linearGradient><linearGradient x1="243.22799" y1="193.89684" x2="244.50616" y2="194.24092" gradientUnits="userSpaceOnUse" id="color-15"><stop offset="0" stop-color="#ab966a"/><stop offset="1" stop-color="#4f3f2d"/></linearGradient><linearGradient x1="243.22799" y1="193.89684" x2="244.50616" y2="194.24092" gradientUnits="userSpaceOnUse" id="color-16"><stop offset="0" stop-color="#1f1f1f"/><stop offset="1" stop-color="#000000"/></linearGradient><linearGradient x1="242.97209" y1="196.04933" x2="243.64752" y2="196.23115" gradientUnits="userSpaceOnUse" id="color-17"><stop offset="0" stop-color="#524c43"/><stop offset="1" stop-color="#36312c"/></linearGradient><linearGradient x1="242.97209" y1="196.04933" x2="243.64752" y2="196.23115" gradientUnits="userSpaceOnUse" id="color-18"><stop offset="0" stop-color="#1f1f1f"/><stop offset="1" stop-color="#000000"/></linearGradient><linearGradient x1="236.73568" y1="195.66467" x2="237.45492" y2="195.5836" gradientUnits="userSpaceOnUse" id="color-19"><stop offset="0" stop-color="#523f2b"/><stop offset="1" stop-color="#2e2316"/></linearGradient><linearGradient x1="236.73568" y1="195.66467" x2="237.45492" y2="195.5836" gradientUnits="userSpaceOnUse" id="color-20"><stop offset="0" stop-color="#1f1f1f"/><stop offset="1" stop-color="#000000"/></linearGradient><linearGradient x1="234.73707" y1="197.89542" x2="245.01489" y2="197.89542" gradientUnits="userSpaceOnUse" id="color-21"><stop offset="0" stop-color="#b8a687"/><stop offset="1" stop-color="#4a443b"/></linearGradient><linearGradient x1="234.73707" y1="197.89542" x2="245.01489" y2="197.89542" gradientUnits="userSpaceOnUse" id="color-22"><stop offset="0" stop-color="#1f1a11"/><stop offset="1" stop-color="#191100"/></linearGradient><linearGradient x1="238.25411" y1="194.59397" x2="241.52154" y2="194.59397" gradientUnits="userSpaceOnUse" id="color-23"><stop offset="0" stop-color="#5c503f"/><stop offset="1" stop-color="#241c12"/></linearGradient><linearGradient x1="237.197" y1="197.04348" x2="242.45052" y2="197.04348" gradientUnits="userSpaceOnUse" id="color-24"><stop offset="0" stop-color="#5c503f"/><stop offset="1" stop-color="#241c12"/></linearGradient><linearGradient x1="236.31021" y1="199.74755" x2="243.36309" y2="199.74755" gradientUnits="userSpaceOnUse" id="color-25"><stop offset="0" stop-color="#5c503f"/><stop offset="1" stop-color="#241c12"/></linearGradient><linearGradient x1="235.37108" y1="202.44076" x2="244.3405" y2="202.44076" gradientUnits="userSpaceOnUse" id="color-26"><stop offset="0" stop-color="#5c503f"/><stop offset="1" stop-color="#241c12"/></linearGradient><linearGradient x1="234.8225" y1="192.53564" x2="245.07328" y2="192.53564" gradientUnits="userSpaceOnUse" id="color-27"><stop offset="0" stop-color="#a89d8a"/><stop offset="1" stop-color="#665a54"/></linearGradient><linearGradient x1="234.8225" y1="192.53564" x2="245.07328" y2="192.53564" gradientUnits="userSpaceOnUse" id="color-28"><stop offset="0" stop-color="#1f1f1f"/><stop offset="1" stop-color="#000000"/></linearGradient><linearGradient x1="237.45154" y1="157.08898" x2="242.52388" y2="157.08898" gradientUnits="userSpaceOnUse" id="color-29"><stop offset="0" stop-color="#f1f5f8"/><stop offset="1" stop-color="#6d7680"/></linearGradient><linearGradient x1="237.45154" y1="157.08857" x2="242.52388" y2="157.08857" gradientUnits="userSpaceOnUse" id="color-30"><stop offset="0" stop-color="#272727"/><stop offset="1" stop-color="#000000"/></linearGradient><linearGradient x1="245.06492" y1="187.5818" x2="250.15928" y2="187.5818" gradientUnits="userSpaceOnUse" id="color-31"><stop offset="0" stop-color="#36322b"/><stop offset="1" stop-color="#1f1c19"/></linearGradient><linearGradient x1="245.06492" y1="187.75681" x2="248.54939" y2="187.75681" gradientUnits="userSpaceOnUse" id="color-32"><stop offset="0" stop-color="#272727"/><stop offset="1" stop-color="#000000"/></linearGradient><linearGradient x1="234.93508" y1="187.5284" x2="229.84072" y2="187.5284" gradientUnits="userSpaceOnUse" id="color-33"><stop offset="0" stop-color="#6b6757"/><stop offset="1" stop-color="#827969"/></linearGradient><linearGradient x1="231.45061" y1="187.70341" x2="234.93508" y2="187.70341" gradientUnits="userSpaceOnUse" id="color-34"><stop offset="0" stop-color="#272727"/><stop offset="1" stop-color="#000000"/></linearGradient><linearGradient x1="234.92093" y1="183.4189" x2="245.07711" y2="183.4189" gradientUnits="userSpaceOnUse" id="color-35"><stop offset="0" stop-color="#635f54"/><stop offset="1" stop-color="#211f1a"/></linearGradient><linearGradient x1="234.92093" y1="183.4189" x2="245.07711" y2="183.4189" gradientUnits="userSpaceOnUse" id="color-36"><stop offset="0" stop-color="#272727"/><stop offset="1" stop-color="#000000"/></linearGradient><linearGradient x1="240.36207" y1="183.88763" x2="244.34568" y2="183.88763" gradientUnits="userSpaceOnUse" id="color-37"><stop offset="0" stop-color="#4a382c"/><stop offset="1" stop-color="#301f1b"/></linearGradient><linearGradient x1="240.36207" y1="183.88763" x2="244.34568" y2="183.88763" gradientUnits="userSpaceOnUse" id="color-38"><stop offset="0" stop-color="#351c12"/><stop offset="1" stop-color="#1a1310"/></linearGradient><linearGradient x1="240.35135" y1="183.88913" x2="244.32575" y2="183.88913" gradientUnits="userSpaceOnUse" id="color-39"><stop offset="0" stop-color="#351c12"/><stop offset="1" stop-color="#1a1310"/></linearGradient><linearGradient x1="240.35135" y1="183.85886" x2="244.32575" y2="183.85886" gradientUnits="userSpaceOnUse" id="color-40"><stop offset="0" stop-color="#351c12"/><stop offset="1" stop-color="#1a1310"/></linearGradient><linearGradient x1="235.60085" y1="183.9078" x2="239.58447" y2="183.9078" gradientUnits="userSpaceOnUse" id="color-41"><stop offset="0" stop-color="#4a382c"/><stop offset="1" stop-color="#301f1b"/></linearGradient><linearGradient x1="235.60085" y1="183.9078" x2="239.58447" y2="183.9078" gradientUnits="userSpaceOnUse" id="color-42"><stop offset="0" stop-color="#351c12"/><stop offset="1" stop-color="#1a1310"/></linearGradient><linearGradient x1="235.59014" y1="183.9093" x2="239.56454" y2="183.9093" gradientUnits="userSpaceOnUse" id="color-43"><stop offset="0" stop-color="#351c12"/><stop offset="1" stop-color="#1a1310"/></linearGradient><linearGradient x1="235.59014" y1="183.87904" x2="239.56454" y2="183.87904" gradientUnits="userSpaceOnUse" id="color-44"><stop offset="0" stop-color="#351c12"/><stop offset="1" stop-color="#1a1310"/></linearGradient><linearGradient x1="240.36207" y1="188.69268" x2="244.34568" y2="188.69268" gradientUnits="userSpaceOnUse" id="color-45"><stop offset="0" stop-color="#4a382c"/><stop offset="1" stop-color="#301f1b"/></linearGradient><linearGradient x1="240.36207" y1="188.69268" x2="244.34568" y2="188.69268" gradientUnits="userSpaceOnUse" id="color-46"><stop offset="0" stop-color="#351c12"/><stop offset="1" stop-color="#1a1310"/></linearGradient><linearGradient x1="240.35135" y1="188.69418" x2="244.32575" y2="188.69418" gradientUnits="userSpaceOnUse" id="color-47"><stop offset="0" stop-color="#351c12"/><stop offset="1" stop-color="#1a1310"/></linearGradient><linearGradient x1="240.35135" y1="188.66392" x2="244.32575" y2="188.66392" gradientUnits="userSpaceOnUse" id="color-48"><stop offset="0" stop-color="#351c12"/><stop offset="1" stop-color="#1a1310"/></linearGradient><linearGradient x1="235.60085" y1="188.71286" x2="239.58447" y2="188.71286" gradientUnits="userSpaceOnUse" id="color-49"><stop offset="0" stop-color="#4a382c"/><stop offset="1" stop-color="#301f1b"/></linearGradient><linearGradient x1="235.60085" y1="188.71286" x2="239.58447" y2="188.71286" gradientUnits="userSpaceOnUse" id="color-50"><stop offset="0" stop-color="#351c12"/><stop offset="1" stop-color="#1a1310"/></linearGradient><linearGradient x1="235.59014" y1="188.71435" x2="239.56454" y2="188.71435" gradientUnits="userSpaceOnUse" id="color-51"><stop offset="0" stop-color="#351c12"/><stop offset="1" stop-color="#1a1310"/></linearGradient><linearGradient x1="235.59014" y1="188.68409" x2="239.56454" y2="188.68409" gradientUnits="userSpaceOnUse" id="color-52"><stop offset="0" stop-color="#351c12"/><stop offset="1" stop-color="#1a1310"/></linearGradient><linearGradient x1="235.43514" y1="178.41995" x2="244.50068" y2="178.41995" gradientUnits="userSpaceOnUse" id="color-53"><stop offset="0" stop-color="#515151"/><stop offset="1" stop-color="#131313"/></linearGradient><linearGradient x1="235.43514" y1="178.41995" x2="244.50068" y2="178.41995" gradientUnits="userSpaceOnUse" id="color-54"><stop offset="0" stop-color="#272727"/><stop offset="1" stop-color="#000000"/></linearGradient><linearGradient x1="235.9073" y1="176.44736" x2="243.96556" y2="176.44736" gradientUnits="userSpaceOnUse" id="color-55"><stop offset="0" stop-color="#272727"/><stop offset="1" stop-color="#000000"/></linearGradient><linearGradient x1="235.93879" y1="180.42178" x2="243.87112" y2="180.42178" gradientUnits="userSpaceOnUse" id="color-56"><stop offset="0" stop-color="#272727"/><stop offset="1" stop-color="#000000"/></linearGradient><linearGradient x1="234.829" y1="161.23711" x2="245.10682" y2="161.23711" gradientUnits="userSpaceOnUse" id="color-57"><stop offset="0" stop-color="#9c8f73"/><stop offset="1" stop-color="#443a22"/></linearGradient><linearGradient x1="234.829" y1="161.23389" x2="245.10682" y2="161.23389" gradientUnits="userSpaceOnUse" id="color-58"><stop offset="0" stop-color="#272727"/><stop offset="1" stop-color="#000000"/></linearGradient><linearGradient x1="237.39169" y1="156.76595" x2="242.46404" y2="156.76595" gradientUnits="userSpaceOnUse" id="color-59"><stop offset="0" stop-color="#f1f5f8"/><stop offset="1" stop-color="#6d7680"/></linearGradient><linearGradient x1="237.39169" y1="156.76555" x2="242.46404" y2="156.76555" gradientUnits="userSpaceOnUse" id="color-60"><stop offset="0" stop-color="#272727"/><stop offset="1" stop-color="#000000"/></linearGradient><linearGradient x1="236.23533" y1="159.37755" x2="243.79267" y2="159.37755" gradientUnits="userSpaceOnUse" id="color-61"><stop offset="0" stop-color="#45423b"/><stop offset="1" stop-color="#262018"/></linearGradient><linearGradient x1="234.88981" y1="170.71051" x2="245.04601" y2="170.71051" gradientUnits="userSpaceOnUse" id="color-62"><stop offset="0" stop-color="#301630"/><stop offset="1" stop-color="#140e17"/></linearGradient><linearGradient x1="234.88981" y1="170.71051" x2="245.04601" y2="170.71051" gradientUnits="userSpaceOnUse" id="color-63"><stop offset="0" stop-color="#272727"/><stop offset="1" stop-color="#000000"/></linearGradient><linearGradient x1="235.03273" y1="170.70181" x2="235.71344" y2="170.70181" gradientUnits="userSpaceOnUse" id="color-64"><stop offset="0" stop-color="#9d9d9d"/><stop offset="1" stop-color="#4c4c4c"/></linearGradient><linearGradient x1="235.03273" y1="170.70181" x2="235.71344" y2="170.70181" gradientUnits="userSpaceOnUse" id="color-65"><stop offset="0" stop-color="#272727"/><stop offset="1" stop-color="#000000"/></linearGradient><linearGradient x1="244.2424" y1="170.70181" x2="244.92312" y2="170.70181" gradientUnits="userSpaceOnUse" id="color-66"><stop offset="0" stop-color="#9d9d9d"/><stop offset="1" stop-color="#4c4c4c"/></linearGradient><linearGradient x1="244.2424" y1="170.70181" x2="244.92312" y2="170.70181" gradientUnits="userSpaceOnUse" id="color-67"><stop offset="0" stop-color="#272727"/><stop offset="1" stop-color="#000000"/></linearGradient><radialGradient cx="239.96791" cy="170.71051" r="4.21328" gradientUnits="userSpaceOnUse" id="color-68"><stop offset="0" stop-color="#654573" stop-opacity="0.40995"/><stop offset="1" stop-color="#654573" stop-opacity="0"/></radialGradient><radialGradient cx="239.96791" cy="170.69554" r="3.42057" gradientUnits="userSpaceOnUse" id="color-69"><stop offset="0" stop-color="#eb73e5" stop-opacity="0.60996"/><stop offset="1" stop-color="#eb73e5" stop-opacity="0"/></radialGradient><radialGradient cx="239.96791" cy="170.69554" r="2.8958" gradientUnits="userSpaceOnUse" id="color-70"><stop offset="0" stop-color="#ff26ff" stop-opacity="0.44355"/><stop offset="1" stop-color="#eda3ff" stop-opacity="0.14516"/></radialGradient><radialGradient cx="239.96791" cy="170.69554" r="2.38123" gradientUnits="userSpaceOnUse" id="color-71"><stop offset="0" stop-color="#f7e3ff" stop-opacity="0.25546"/><stop offset="1" stop-color="#9f07ff"/></radialGradient><linearGradient x1="235.01413" y1="172.34295" x2="244.92169" y2="172.34295" gradientUnits="userSpaceOnUse" id="color-72"><stop offset="0" stop-color="#9a66a2"/><stop offset="1" stop-color="#4d0069"/></linearGradient><linearGradient x1="235.01413" y1="172.3585" x2="244.92169" y2="172.3585" gradientUnits="userSpaceOnUse" id="color-73"><stop offset="0" stop-color="#9a66a2"/><stop offset="1" stop-color="#4d0069"/></linearGradient><linearGradient x1="235.03701" y1="168.91341" x2="244.94458" y2="168.91341" gradientUnits="userSpaceOnUse" id="color-74"><stop offset="0" stop-color="#9a66a2"/><stop offset="1" stop-color="#4d0069"/></linearGradient><linearGradient x1="235.03701" y1="168.92897" x2="244.94458" y2="168.92897" gradientUnits="userSpaceOnUse" id="color-75"><stop offset="0" stop-color="#9a66a2"/><stop offset="1" stop-color="#4d0069"/></linearGradient><linearGradient x1="234.91616" y1="174.53811" x2="244.92669" y2="174.53811" gradientUnits="userSpaceOnUse" id="color-76"><stop offset="0" stop-color="#b695c7"/><stop offset="1" stop-color="#312833"/></linearGradient><linearGradient x1="234.91616" y1="174.53811" x2="244.92669" y2="174.53811" gradientUnits="userSpaceOnUse" id="color-77"><stop offset="0" stop-color="#272727"/><stop offset="1" stop-color="#000000"/></linearGradient><linearGradient x1="234.96193" y1="166.90365" x2="244.97245" y2="166.90365" gradientUnits="userSpaceOnUse" id="color-78"><stop offset="0" stop-color="#b695c7"/><stop offset="1" stop-color="#312833"/></linearGradient><linearGradient x1="234.96193" y1="166.90365" x2="244.97245" y2="166.90365" gradientUnits="userSpaceOnUse" id="color-79"><stop offset="0" stop-color="#272727"/><stop offset="1" stop-color="#000000"/></linearGradient></defs><g transform="translate(-210.5,-150.14669)"><g data-paper-data="{&quot;isPaintingLayer&quot;:true}" fill-rule="nonzero" stroke-linejoin="miter" stroke-miterlimit="10" stroke-dasharray="" stroke-dashoffset="0" style="mix-blend-mode: normal"><path d="M212,208.35331v-56.70662h56v56.70662z" fill="url(#color-1)" stroke="url(#color-2)" stroke-width="3" stroke-linecap="butt"/><path d="M266.8571,180c0,14.75036 -12.02433,26.70789 -26.8571,26.70789c-14.83277,0 -26.8571,-11.95753 -26.8571,-26.70789c0,-14.75036 12.02433,-26.70789 26.8571,-26.70789c14.83277,0 26.8571,11.95753 26.8571,26.70789z" fill="url(#color-3)" stroke="url(#color-4)" stroke-width="0" stroke-linecap="butt"/><g stroke-width="0.25"><path d="M241.14206,196.94842l0.56278,-2.0906l0.67542,0.18182l-0.56278,2.0906z" fill="url(#color-5)" stroke="url(#color-6)" stroke-linecap="butt"/><path d="M242.96635,194.09606c-0.25406,0.92472 -0.29587,1.01972 -0.91239,0.84324c-0.61671,-0.17655 -0.61035,-0.3094 -0.36578,-1.18731c0.27002,-0.96926 0.2864,-1.03729 0.91239,-0.84323c0.59979,0.18593 0.64476,0.17187 0.36578,1.18731z" fill="url(#color-7)" stroke="url(#color-8)" stroke-linecap="butt"/><path d="M238.48236,199.3608l-1.65472,-6.34019l1.02676,-0.13376l0.82666,6.43291z" fill="url(#color-9)" stroke="url(#color-10)" stroke-linecap="butt"/><path d="M241.90286,197.02851l0.56278,-2.0906l0.67542,0.18182l-0.56278,2.0906z" fill="url(#color-11)" stroke="url(#color-12)" stroke-linecap="butt"/><path d="M243.72715,194.17614c-0.25406,0.92472 -0.29587,1.01972 -0.91239,0.84324c-0.61671,-0.17655 -0.61035,-0.3094 -0.36578,-1.18731c0.27001,-0.96926 0.2864,-1.03729 0.91239,-0.84323c0.59979,0.18593 0.64476,0.17187 0.36578,1.18731z" fill="url(#color-13)" stroke="url(#color-14)" stroke-linecap="butt"/><path d="M244.50616,194.24092c-0.25406,0.92472 -0.29587,1.01972 -0.91239,0.84323c-0.61671,-0.17655 -0.61035,-0.3094 -0.36578,-1.18731c0.27001,-0.96926 0.2864,-1.03729 0.91239,-0.84324c0.59979,0.18593 0.64476,0.17187 0.36578,1.18731z" fill="url(#color-15)" stroke="url(#color-16)" stroke-linecap="butt"/><path d="M242.21255,196.54226c0,0 0.62157,0.0196 0.70447,-0.28832c0.10107,-0.37547 0.33647,-1.2499 0.33647,-1.2499l0.67542,0.18182c0,0 -0.22078,0.82015 -0.3201,1.18913c-0.03714,0.13797 -0.24228,0.39521 -0.51971,0.55451c-0.36855,0.21164 -0.82751,0.31032 -0.82751,0.31032z" fill="url(#color-17)" stroke="url(#color-18)" stroke-linecap="butt"/><path d="M237.2811,199.16059l-1.65472,-6.34019l1.02676,-0.13376l0.82666,6.43291z" fill="url(#color-19)" stroke="url(#color-20)" stroke-linecap="butt"/><path d="M234.73707,203.90846c0,0 3.83768,-12.11378 5.13962,-12.02559c1.48938,0.10088 5.1382,12.02559 5.1382,12.02559z" fill="url(#color-21)" stroke="url(#color-22)" stroke-linecap="butt"/><path d="M241.52154,194.59397h-3.26744" fill="none" stroke="url(#color-23)" stroke-linecap="round"/><path d="M237.197,197.04348h5.25353" fill="none" stroke="url(#color-24)" stroke-linecap="round"/><path d="M243.36309,199.74755h-7.05288" fill="none" stroke="url(#color-25)" stroke-linecap="round"/><path d="M235.37108,202.44076h8.96943" fill="none" stroke="url(#color-26)" stroke-linecap="round"/><path d="M234.8225,191.78602h10.25078c0,0 -0.02314,0.73849 -0.15805,1.00438c-0.11572,0.22803 -0.60274,0.49487 -0.60274,0.49487h-8.80926c0,0 -0.37129,-0.28309 -0.47084,-0.50234c-0.12254,-0.2699 -0.20988,-0.9969 -0.20988,-0.9969z" fill="url(#color-27)" stroke="url(#color-28)" stroke-linecap="butt"/></g><path d="M237.45154,157.73918c0,0 0.32623,-1.33017 2.51017,-1.30037c2.19741,-0.03976 2.56217,1.30037 2.56217,1.30037z" fill="url(#color-29)" stroke="url(#color-30)" stroke-width="0.25" stroke-linecap="butt"/><path d="M245.06492,191.76099v-10.3872c0,0 1.30716,6.9727 1.76416,8.65621c0.36157,1.33196 1.7203,4.10981 1.7203,4.10981z" fill="url(#color-31)" stroke="url(#color-32)" stroke-width="0.25" stroke-linecap="butt"/><path d="M231.45061,194.08642c0,0 1.35871,-2.77785 1.7203,-4.10981c0.45701,-1.68351 1.76416,-8.65621 1.76416,-8.65621v10.3872z" data-paper-data="{&quot;index&quot;:null}" fill="url(#color-33)" stroke="url(#color-34)" stroke-width="0.25" stroke-linecap="butt"/><path d="M234.92093,191.75063v-16.66345h10.15619v16.66345z" fill="url(#color-35)" stroke="url(#color-36)" stroke-width="0.25" stroke-linecap="butt"/><g stroke-width="0.25"><path d="M240.36207,185.96139v-4.14753h3.98362v4.14753z" fill="url(#color-37)" stroke="url(#color-38)" stroke-linecap="butt"/><path d="M244.32575,181.87167l-3.9744,4.03493" fill="none" stroke="url(#color-39)" stroke-linecap="round"/><path d="M240.3917,181.83132l3.93406,4.09545" fill="none" stroke="url(#color-40)" stroke-linecap="round"/></g><g stroke-width="0.25"><path d="M235.60085,185.98157v-4.14753h3.98362v4.14753z" fill="url(#color-41)" stroke="url(#color-42)" stroke-linecap="butt"/><path d="M239.56454,181.89184l-3.9744,4.03493" fill="none" stroke="url(#color-43)" stroke-linecap="round"/><path d="M235.63048,181.85148l3.93406,4.09545" fill="none" stroke="url(#color-44)" stroke-linecap="round"/></g><g stroke-width="0.25"><path d="M240.36207,190.76644v-4.14753h3.98362v4.14753z" fill="url(#color-45)" stroke="url(#color-46)" stroke-linecap="butt"/><path d="M240.35135,190.71164l3.9744,-4.03493" fill="none" stroke="url(#color-47)" stroke-linecap="round"/><path d="M240.3917,186.63637l3.93406,4.09545" fill="none" stroke="url(#color-48)" stroke-linecap="round"/></g><g stroke-width="0.25"><path d="M235.60085,190.78662v-4.14753h3.98362v4.14753z" fill="url(#color-49)" stroke="url(#color-50)" stroke-linecap="butt"/><path d="M235.59014,190.73182l3.9744,-4.03493" fill="none" stroke="url(#color-51)" stroke-linecap="round"/><path d="M239.56454,190.752l-3.93406,-4.09545" fill="none" stroke="url(#color-52)" stroke-linecap="round"/></g><g stroke-width="0.25"><path d="M235.43514,180.91858v-4.99725h9.06553v4.99725z" fill="url(#color-53)" stroke="url(#color-54)" stroke-linecap="butt"/><path d="M235.90731,176.44736h8.05825" fill="none" stroke="url(#color-55)" stroke-linecap="round"/><path d="M235.93879,180.42178h7.93235" fill="none" stroke="url(#color-56)" stroke-linecap="round"/></g><path d="M234.829,166.37622c0,0 0.66101,-10.51336 5.08623,-10.27782c4.4525,-0.31421 5.1916,10.27782 5.1916,10.27782z" fill="url(#color-57)" stroke="url(#color-58)" stroke-width="0.25" stroke-linecap="butt"/><path d="M237.39169,157.41617c0,0 0.32623,-1.33017 2.51017,-1.30037c2.19741,-0.03976 2.56217,1.30037 2.56217,1.30037z" fill="url(#color-59)" stroke="url(#color-60)" stroke-width="0.25" stroke-linecap="butt"/><path d="M235.97698,160.67522c0,0 0.12538,-0.40661 0.30957,-0.89049c0.21615,-0.56784 0.57419,-1.2421 1.81139,-1.49051c0.048,-0.00964 0.9498,-0.15084 0.9498,-0.15084l1.96188,0.00605c0,0 0.67819,0.04841 0.71802,0.05785c1.17086,0.27756 1.61054,0.9745 1.85667,1.55723c0.20987,0.49688 0.33755,0.91072 0.33755,0.91072z" data-paper-data="{&quot;index&quot;:null}" fill="url(#color-61)" stroke="#000000" stroke-width="0.25" stroke-linecap="butt"/><path d="M238.07038,159.43095c0,-0.49936 0.40482,-0.90418 0.90418,-0.90418c0.49936,0 0.90418,0.40482 0.90418,0.90418c0,0.49936 -0.40482,0.90418 -0.90418,0.90418c-0.49936,0 -0.90418,-0.40482 -0.90418,-0.90418z" fill="#caff00" stroke="none" stroke-width="0.25" stroke-linecap="butt"/><path d="M240.16032,159.45076c0,-0.49936 0.40482,-0.90418 0.90418,-0.90418c0.49936,0 0.90418,0.40482 0.90418,0.90418c0,0.49936 -0.40482,0.90418 -0.90418,0.90418c-0.49936,0 -0.90418,-0.40482 -0.90418,-0.90418z" fill="#00fcff" stroke="none" stroke-width="0.25" stroke-linecap="butt"/><g stroke-width="0.25"><path d="M234.88981,175.04604v-8.67104h10.15619v8.67104z" fill="url(#color-62)" stroke="url(#color-63)" stroke-linecap="butt"/><path d="M235.03273,174.09408v-6.78452h0.68071v6.78452z" fill="url(#color-64)" stroke="url(#color-65)" stroke-linecap="butt"/><path d="M244.2424,174.09408v-6.78452h0.68071v6.78452z" fill="url(#color-66)" stroke="url(#color-67)" stroke-linecap="butt"/><path d="M235.75463,170.71051c0,-2.32692 1.88635,-4.21329 4.21329,-4.21329c2.32692,0 4.21329,1.88635 4.21329,4.21329c0,2.32692 -1.88635,4.21329 -4.21329,4.21329c-2.32692,0 -4.21329,-1.88635 -4.21329,-4.21329z" fill="url(#color-68)" stroke="none" stroke-linecap="butt"/><path d="M236.54734,170.69554c0,-1.88913 1.53145,-3.42057 3.42057,-3.42057c1.88913,0 3.42057,1.53145 3.42057,3.42057c0,1.88913 -1.53145,3.42057 -3.42057,3.42057c-1.88913,0 -3.42057,-1.53145 -3.42057,-3.42057z" fill="url(#color-69)" stroke="none" stroke-linecap="butt"/><path d="M237.07211,170.69554c0,-1.5993 1.29649,-2.8958 2.8958,-2.8958c1.5993,0 2.8958,1.29649 2.8958,2.8958c0,1.5993 -1.29649,2.8958 -2.8958,2.8958c-1.5993,0 -2.8958,-1.29649 -2.8958,-2.8958z" fill="url(#color-70)" stroke="none" stroke-linecap="butt"/><path d="M237.58669,170.69554c0,-1.31511 1.06611,-2.38123 2.38123,-2.38123c1.31511,0 2.38123,1.06611 2.38123,2.38123c0,1.31511 -1.06611,2.38123 -2.38123,2.38123c-1.31511,0 -2.38123,-1.06611 -2.38123,-2.38123z" fill="url(#color-71)" stroke="none" stroke-linecap="butt"/><path d="M235.01413,174.12449l0.54915,-3.56308l0.52627,3.56308l0.70932,-3.53197l0.70932,3.51641l1.23559,-3.51641l1.18982,3.53197l1.05254,-3.51641l1.18982,3.50085l0.80085,-3.50085l0.86948,3.53197l0.54915,-3.51641l0.52627,3.48529" fill="none" stroke="url(#color-72)" stroke-linecap="round"/><path d="M244.92169,170.59252l-0.52627,3.48529l-0.54915,-3.51641l-0.86948,3.53197l-0.80085,-3.50085l-1.18982,3.50085l-1.05254,-3.51641l-1.18982,3.53197l-1.23559,-3.51641l-0.70932,3.51641l-0.70932,-3.53197l-0.52627,3.56308l-0.54915,-3.56308" data-paper-data="{&quot;index&quot;:null}" fill="none" stroke="url(#color-73)" stroke-linecap="round"/><path d="M235.03701,170.69495l0.54915,-3.56308l0.52627,3.56308l0.70932,-3.53197l0.70932,3.51641l1.23559,-3.51641l1.18982,3.53197l1.05254,-3.51641l1.18982,3.50085l0.80085,-3.50085l0.86948,3.53197l0.54915,-3.51641l0.52627,3.48529" fill="none" stroke="url(#color-74)" stroke-linecap="round"/><path d="M244.94458,167.16298l-0.52627,3.48529l-0.54915,-3.51641l-0.86948,3.53197l-0.80085,-3.50085l-1.18982,3.50085l-1.05254,-3.51641l-1.18982,3.53197l-1.23559,-3.51641l-0.70932,3.51641l-0.70932,-3.53197l-0.52627,3.56308l-0.54915,-3.56308" data-paper-data="{&quot;index&quot;:null}" fill="none" stroke="url(#color-75)" stroke-linecap="round"/><path d="M234.91616,174.92082v-0.76544h10.01053v0.76544z" fill="url(#color-76)" stroke="url(#color-77)" stroke-linecap="butt"/><path d="M234.96193,167.28637v-0.76544h10.01053v0.76544z" fill="url(#color-78)" stroke="url(#color-79)" stroke-linecap="butt"/></g><path d="M215.27327,167.03273v-12.39235h25.93332v8.69862h-15.56684v3.69373z" fill-opacity="0.53453" fill="#000000" stroke="#a60000" stroke-width="0" stroke-linecap="butt"/><text transform="translate(215.70712,161.61518) scale(0.21839,0.21839)" font-size="40" xml:space="preserve" fill="#ffffff" fill-rule="nonzero" stroke="#000000" stroke-width="0" stroke-linecap="butt" stroke-linejoin="miter" stroke-miterlimit="10" stroke-dasharray="" stroke-dashoffset="0" font-family="Serif" font-weight="normal" text-anchor="start" style="mix-blend-mode: normal"><tspan x="0" dy="0">Rocket</tspan></text><text transform="translate(215.56527,166.16682) scale(0.11601,0.11601)" font-size="40" xml:space="preserve" fill="#ffffff" fill-rule="nonzero" stroke="#000000" stroke-width="0" stroke-linecap="butt" stroke-linejoin="miter" stroke-miterlimit="10" stroke-dasharray="" stroke-dashoffset="0" font-family="Serif" font-weight="normal" text-anchor="start" style="mix-blend-mode: normal"><tspan x="0" dy="0">3-4-3</tspan></text></g></g></svg>