<svg version="1.1" xmlns="http://www.w3.org/2000/svg" xmlns:xlink="http://www.w3.org/1999/xlink" width="59" height="59.70662" viewBox="0,0,59,59.70662"><defs><linearGradient x1="240" y1="151.64669" x2="240" y2="208.35331" gradientUnits="userSpaceOnUse" id="color-1"><stop offset="0" stop-color="#191919"/><stop offset="1" stop-color="#050505"/></linearGradient><linearGradient x1="240" y1="151.64669" x2="240" y2="208.35331" gradientUnits="userSpaceOnUse" id="color-2"><stop offset="0" stop-color="#cccccc"/><stop offset="1" stop-color="#898989"/></linearGradient><radialGradient cx="240" cy="180" r="26.8571" gradientUnits="userSpaceOnUse" id="color-3"><stop offset="0" stop-color="#ffffff" stop-opacity="0.35484"/><stop offset="1" stop-color="#ffffff" stop-opacity="0"/></radialGradient><linearGradient x1="240" y1="153.29211" x2="240" y2="206.70789" gradientUnits="userSpaceOnUse" id="color-4"><stop offset="0" stop-color="#cccccc"/><stop offset="1" stop-color="#898989"/></linearGradient><linearGradient x1="242.50143" y1="196.85839" x2="243.38631" y2="196.85839" gradientUnits="userSpaceOnUse" id="color-5"><stop offset="0" stop-color="#525252"/><stop offset="1" stop-color="#363636"/></linearGradient><linearGradient x1="242.50143" y1="196.85839" x2="243.38631" y2="196.85839" gradientUnits="userSpaceOnUse" id="color-6"><stop offset="0" stop-color="#1f1f1f"/><stop offset="1" stop-color="#000000"/></linearGradient><linearGradient x1="234.40846" y1="197.75743" x2="245.32802" y2="197.75743" gradientUnits="userSpaceOnUse" id="color-7"><stop offset="0" stop-color="#2f2f2f"/><stop offset="1" stop-color="#040404"/></linearGradient><linearGradient x1="234.40846" y1="197.75743" x2="245.32802" y2="197.75743" gradientUnits="userSpaceOnUse" id="color-8"><stop offset="0" stop-color="#1f1f1f"/><stop offset="1" stop-color="#000000"/></linearGradient><linearGradient x1="238.1451" y1="194.75963" x2="241.61655" y2="194.75963" gradientUnits="userSpaceOnUse" id="color-9"><stop offset="0" stop-color="#444444"/><stop offset="1" stop-color="#252525"/></linearGradient><linearGradient x1="237.02198" y1="196.98384" x2="242.60353" y2="196.98384" gradientUnits="userSpaceOnUse" id="color-10"><stop offset="0" stop-color="#444444"/><stop offset="1" stop-color="#252525"/></linearGradient><linearGradient x1="236.07983" y1="199.43921" x2="243.57308" y2="199.43921" gradientUnits="userSpaceOnUse" id="color-11"><stop offset="0" stop-color="#444444"/><stop offset="1" stop-color="#252525"/></linearGradient><linearGradient x1="235.08206" y1="201.88471" x2="244.61152" y2="201.88471" gradientUnits="userSpaceOnUse" id="color-12"><stop offset="0" stop-color="#444444"/><stop offset="1" stop-color="#252525"/></linearGradient><linearGradient x1="241.65022" y1="193.95717" x2="244.40748" y2="193.95717" gradientUnits="userSpaceOnUse" id="color-13"><stop offset="0" stop-color="#b2b2b2"/><stop offset="1" stop-color="#363636"/></linearGradient><linearGradient x1="241.65022" y1="193.95717" x2="244.40748" y2="193.95717" gradientUnits="userSpaceOnUse" id="color-14"><stop offset="0" stop-color="#1f1f1f"/><stop offset="1" stop-color="#000000"/></linearGradient><linearGradient x1="234.50613" y1="162.24941" x2="245.42568" y2="162.24941" gradientUnits="userSpaceOnUse" id="color-15"><stop offset="0" stop-color="#9c8f73"/><stop offset="1" stop-color="#443a22"/></linearGradient><linearGradient x1="234.50613" y1="162.24599" x2="245.42568" y2="162.24599" gradientUnits="userSpaceOnUse" id="color-16"><stop offset="0" stop-color="#272727"/><stop offset="1" stop-color="#000000"/></linearGradient><linearGradient x1="237.22883" y1="157.49909" x2="242.61789" y2="157.49909" gradientUnits="userSpaceOnUse" id="color-17"><stop offset="0" stop-color="#f1f5f8"/><stop offset="1" stop-color="#6d7680"/></linearGradient><linearGradient x1="237.22883" y1="157.49865" x2="242.61789" y2="157.49865" gradientUnits="userSpaceOnUse" id="color-18"><stop offset="0" stop-color="#272727"/><stop offset="1" stop-color="#000000"/></linearGradient><linearGradient x1="236.00027" y1="160.27374" x2="244.02948" y2="160.27374" gradientUnits="userSpaceOnUse" id="color-19"><stop offset="0" stop-color="#45423b"/><stop offset="1" stop-color="#262018"/></linearGradient><linearGradient x1="245.38117" y1="190.21066" x2="250.79361" y2="190.21066" gradientUnits="userSpaceOnUse" id="color-20"><stop offset="0" stop-color="#36322b"/><stop offset="1" stop-color="#1f1c19"/></linearGradient><linearGradient x1="245.38117" y1="190.3966" x2="249.0832" y2="190.3966" gradientUnits="userSpaceOnUse" id="color-21"><stop offset="0" stop-color="#272727"/><stop offset="1" stop-color="#000000"/></linearGradient><linearGradient x1="234.61883" y1="190.15394" x2="229.20639" y2="190.15394" gradientUnits="userSpaceOnUse" id="color-22"><stop offset="0" stop-color="#6b6757"/><stop offset="1" stop-color="#827969"/></linearGradient><linearGradient x1="230.9168" y1="190.33988" x2="234.61883" y2="190.33988" gradientUnits="userSpaceOnUse" id="color-23"><stop offset="0" stop-color="#272727"/><stop offset="1" stop-color="#000000"/></linearGradient><linearGradient x1="234.60379" y1="185.78785" x2="245.39412" y2="185.78785" gradientUnits="userSpaceOnUse" id="color-24"><stop offset="0" stop-color="#635f54"/><stop offset="1" stop-color="#211f1a"/></linearGradient><linearGradient x1="234.60379" y1="185.78785" x2="245.39413" y2="185.78785" gradientUnits="userSpaceOnUse" id="color-25"><stop offset="0" stop-color="#272727"/><stop offset="1" stop-color="#000000"/></linearGradient><linearGradient x1="240.38467" y1="186.28584" x2="244.61702" y2="186.28584" gradientUnits="userSpaceOnUse" id="color-26"><stop offset="0" stop-color="#4a382c"/><stop offset="1" stop-color="#301f1b"/></linearGradient><linearGradient x1="240.38467" y1="186.28584" x2="244.61702" y2="186.28584" gradientUnits="userSpaceOnUse" id="color-27"><stop offset="0" stop-color="#351c12"/><stop offset="1" stop-color="#1a1310"/></linearGradient><linearGradient x1="240.37329" y1="186.28743" x2="244.59585" y2="186.28743" gradientUnits="userSpaceOnUse" id="color-28"><stop offset="0" stop-color="#351c12"/><stop offset="1" stop-color="#1a1310"/></linearGradient><linearGradient x1="240.37329" y1="186.25528" x2="244.59585" y2="186.25528" gradientUnits="userSpaceOnUse" id="color-29"><stop offset="0" stop-color="#351c12"/><stop offset="1" stop-color="#1a1310"/></linearGradient><linearGradient x1="235.32617" y1="186.30727" x2="239.55852" y2="186.30727" gradientUnits="userSpaceOnUse" id="color-30"><stop offset="0" stop-color="#4a382c"/><stop offset="1" stop-color="#301f1b"/></linearGradient><linearGradient x1="235.32617" y1="186.30727" x2="239.55852" y2="186.30727" gradientUnits="userSpaceOnUse" id="color-31"><stop offset="0" stop-color="#351c12"/><stop offset="1" stop-color="#1a1310"/></linearGradient><linearGradient x1="235.31479" y1="186.30887" x2="239.53735" y2="186.30887" gradientUnits="userSpaceOnUse" id="color-32"><stop offset="0" stop-color="#351c12"/><stop offset="1" stop-color="#1a1310"/></linearGradient><linearGradient x1="235.31479" y1="186.27672" x2="239.53735" y2="186.27672" gradientUnits="userSpaceOnUse" id="color-33"><stop offset="0" stop-color="#351c12"/><stop offset="1" stop-color="#1a1310"/></linearGradient><linearGradient x1="240.38467" y1="191.39091" x2="244.61702" y2="191.39091" gradientUnits="userSpaceOnUse" id="color-34"><stop offset="0" stop-color="#4a382c"/><stop offset="1" stop-color="#301f1b"/></linearGradient><linearGradient x1="240.38467" y1="191.39091" x2="244.61702" y2="191.39091" gradientUnits="userSpaceOnUse" id="color-35"><stop offset="0" stop-color="#351c12"/><stop offset="1" stop-color="#1a1310"/></linearGradient><linearGradient x1="240.37329" y1="191.39251" x2="244.59585" y2="191.39251" gradientUnits="userSpaceOnUse" id="color-36"><stop offset="0" stop-color="#351c12"/><stop offset="1" stop-color="#1a1310"/></linearGradient><linearGradient x1="240.37329" y1="191.36036" x2="244.59585" y2="191.36036" gradientUnits="userSpaceOnUse" id="color-37"><stop offset="0" stop-color="#351c12"/><stop offset="1" stop-color="#1a1310"/></linearGradient><linearGradient x1="235.32617" y1="191.41235" x2="239.55852" y2="191.41235" gradientUnits="userSpaceOnUse" id="color-38"><stop offset="0" stop-color="#4a382c"/><stop offset="1" stop-color="#301f1b"/></linearGradient><linearGradient x1="235.32617" y1="191.41235" x2="239.55852" y2="191.41235" gradientUnits="userSpaceOnUse" id="color-39"><stop offset="0" stop-color="#351c12"/><stop offset="1" stop-color="#1a1310"/></linearGradient><linearGradient x1="235.31479" y1="191.41394" x2="239.53735" y2="191.41394" gradientUnits="userSpaceOnUse" id="color-40"><stop offset="0" stop-color="#351c12"/><stop offset="1" stop-color="#1a1310"/></linearGradient><linearGradient x1="235.31479" y1="191.38179" x2="239.53735" y2="191.38179" gradientUnits="userSpaceOnUse" id="color-41"><stop offset="0" stop-color="#351c12"/><stop offset="1" stop-color="#1a1310"/></linearGradient><linearGradient x1="235.15012" y1="180.47677" x2="244.78169" y2="180.47677" gradientUnits="userSpaceOnUse" id="color-42"><stop offset="0" stop-color="#515151"/><stop offset="1" stop-color="#131313"/></linearGradient><linearGradient x1="235.15012" y1="180.47677" x2="244.78169" y2="180.47677" gradientUnits="userSpaceOnUse" id="color-43"><stop offset="0" stop-color="#272727"/><stop offset="1" stop-color="#000000"/></linearGradient><linearGradient x1="235.65177" y1="178.38101" x2="244.21316" y2="178.38101" gradientUnits="userSpaceOnUse" id="color-44"><stop offset="0" stop-color="#272727"/><stop offset="1" stop-color="#000000"/></linearGradient><linearGradient x1="235.68521" y1="182.60359" x2="244.11283" y2="182.60359" gradientUnits="userSpaceOnUse" id="color-45"><stop offset="0" stop-color="#272727"/><stop offset="1" stop-color="#000000"/></linearGradient><linearGradient x1="234.57074" y1="172.31433" x2="245.36107" y2="172.31433" gradientUnits="userSpaceOnUse" id="color-46"><stop offset="0" stop-color="#301630"/><stop offset="1" stop-color="#140e17"/></linearGradient><linearGradient x1="234.57074" y1="172.31433" x2="245.36107" y2="172.31433" gradientUnits="userSpaceOnUse" id="color-47"><stop offset="0" stop-color="#272727"/><stop offset="1" stop-color="#000000"/></linearGradient><linearGradient x1="234.72257" y1="172.30508" x2="235.44579" y2="172.30508" gradientUnits="userSpaceOnUse" id="color-48"><stop offset="0" stop-color="#9d9d9d"/><stop offset="1" stop-color="#4c4c4c"/></linearGradient><linearGradient x1="234.72257" y1="172.30508" x2="235.44579" y2="172.30508" gradientUnits="userSpaceOnUse" id="color-49"><stop offset="0" stop-color="#272727"/><stop offset="1" stop-color="#000000"/></linearGradient><linearGradient x1="244.50729" y1="172.30508" x2="245.23051" y2="172.30508" gradientUnits="userSpaceOnUse" id="color-50"><stop offset="0" stop-color="#9d9d9d"/><stop offset="1" stop-color="#4c4c4c"/></linearGradient><linearGradient x1="244.50729" y1="172.30508" x2="245.23051" y2="172.30508" gradientUnits="userSpaceOnUse" id="color-51"><stop offset="0" stop-color="#272727"/><stop offset="1" stop-color="#000000"/></linearGradient><radialGradient cx="239.9659" cy="172.31433" r="4.47635" gradientUnits="userSpaceOnUse" id="color-52"><stop offset="0" stop-color="#654573" stop-opacity="0.40995"/><stop offset="1" stop-color="#654573" stop-opacity="0"/></radialGradient><radialGradient cx="239.9659" cy="172.29841" r="3.63415" gradientUnits="userSpaceOnUse" id="color-53"><stop offset="0" stop-color="#eb73e5" stop-opacity="0.60996"/><stop offset="1" stop-color="#eb73e5" stop-opacity="0"/></radialGradient><radialGradient cx="239.9659" cy="172.29841" r="3.07661" gradientUnits="userSpaceOnUse" id="color-54"><stop offset="0" stop-color="#ff26ff" stop-opacity="0.44355"/><stop offset="1" stop-color="#eda3ff" stop-opacity="0.14516"/></radialGradient><radialGradient cx="239.9659" cy="172.29841" r="2.52991" gradientUnits="userSpaceOnUse" id="color-55"><stop offset="0" stop-color="#f7e3ff" stop-opacity="0.25546"/><stop offset="1" stop-color="#9f07ff"/></radialGradient><linearGradient x1="234.70282" y1="174.04869" x2="245.22899" y2="174.04869" gradientUnits="userSpaceOnUse" id="color-56"><stop offset="0" stop-color="#9a66a2"/><stop offset="1" stop-color="#4d0069"/></linearGradient><linearGradient x1="234.70282" y1="174.06522" x2="245.22899" y2="174.06522" gradientUnits="userSpaceOnUse" id="color-57"><stop offset="0" stop-color="#9a66a2"/><stop offset="1" stop-color="#4d0069"/></linearGradient><linearGradient x1="234.72713" y1="170.40501" x2="245.2533" y2="170.40501" gradientUnits="userSpaceOnUse" id="color-58"><stop offset="0" stop-color="#9a66a2"/><stop offset="1" stop-color="#4d0069"/></linearGradient><linearGradient x1="234.72713" y1="170.42154" x2="245.2533" y2="170.42154" gradientUnits="userSpaceOnUse" id="color-59"><stop offset="0" stop-color="#9a66a2"/><stop offset="1" stop-color="#4d0069"/></linearGradient><linearGradient x1="234.59873" y1="176.38091" x2="245.2343" y2="176.38091" gradientUnits="userSpaceOnUse" id="color-60"><stop offset="0" stop-color="#b695c7"/><stop offset="1" stop-color="#312833"/></linearGradient><linearGradient x1="234.59873" y1="176.38091" x2="245.2343" y2="176.38091" gradientUnits="userSpaceOnUse" id="color-61"><stop offset="0" stop-color="#272727"/><stop offset="1" stop-color="#000000"/></linearGradient><linearGradient x1="234.64735" y1="168.26977" x2="245.28292" y2="168.26977" gradientUnits="userSpaceOnUse" id="color-62"><stop offset="0" stop-color="#b695c7"/><stop offset="1" stop-color="#312833"/></linearGradient><linearGradient x1="234.64735" y1="168.26977" x2="245.28292" y2="168.26977" gradientUnits="userSpaceOnUse" id="color-63"><stop offset="0" stop-color="#272727"/><stop offset="1" stop-color="#000000"/></linearGradient></defs><g transform="translate(-210.5,-150.14669)"><g data-paper-data="{&quot;isPaintingLayer&quot;:true}" fill-rule="nonzero" stroke-linejoin="miter" stroke-miterlimit="10" stroke-dasharray="" stroke-dashoffset="0" style="mix-blend-mode: normal"><path d="M212,208.35331v-56.70662h56v56.70662z" fill="url(#color-1)" stroke="url(#color-2)" stroke-width="3" stroke-linecap="butt"/><path d="M266.8571,180c0,14.75036 -12.02433,26.70789 -26.8571,26.70789c-14.83277,0 -26.8571,-11.95753 -26.8571,-26.70789c0,-14.75036 12.02433,-26.70789 26.8571,-26.70789c14.83277,0 26.8571,11.95753 26.8571,26.70789z" fill="url(#color-3)" stroke="url(#color-4)" stroke-width="0" stroke-linecap="butt"/><g stroke-width="0.25"><path d="M242.50143,198.32184v-2.92691h0.88488v2.92691z" fill="url(#color-5)" stroke="url(#color-6)" stroke-linecap="butt"/><path d="M234.40846,203.21743c0,0 4.0773,-10.99963 5.46052,-10.91956c1.58238,0.0916 5.45903,10.91956 5.45903,10.91956z" fill="url(#color-7)" stroke="url(#color-8)" stroke-linecap="butt"/><path d="M241.61655,194.75963h-3.47145" fill="none" stroke="url(#color-9)" stroke-linecap="round"/><path d="M242.60353,196.98384h-5.58155" fill="none" stroke="url(#color-10)" stroke-linecap="round"/><path d="M243.57308,199.43921h-7.49325" fill="none" stroke="url(#color-11)" stroke-linecap="round"/><path d="M235.08206,201.88471h9.52947" fill="none" stroke="url(#color-12)" stroke-linecap="round"/><path d="M244.40748,193.95717c-0.01032,1.29644 -0.04298,1.43515 -1.37863,1.42141c-1.33608,-0.01374 -1.3952,-0.18942 -1.37863,-1.42141c0.0183,-1.3602 0.01441,-1.45475 1.37863,-1.42141c1.3071,0.03194 1.38996,-0.00221 1.37863,1.42141z" fill="url(#color-13)" stroke="url(#color-14)" stroke-linecap="butt"/></g><path d="M234.50613,167.70941c0,0 0.70228,-11.16979 5.4038,-10.91956c4.73051,-0.33383 5.51575,10.91956 5.51575,10.91956z" fill="url(#color-15)" stroke="url(#color-16)" stroke-width="0.25" stroke-linecap="butt"/><path d="M237.22883,158.18989c0,0 0.34659,-1.41322 2.6669,-1.38156c2.33462,-0.04224 2.72215,1.38156 2.72215,1.38156z" fill="url(#color-17)" stroke="url(#color-18)" stroke-width="0.25" stroke-linecap="butt"/><path d="M235.72578,161.65244c0,0 0.13321,-0.432 0.3289,-0.94609c0.22965,-0.6033 0.61004,-1.31965 1.92449,-1.58358c0.051,-0.01024 1.0091,-0.16026 1.0091,-0.16026l2.08438,0.00642c0,0 0.72054,0.05143 0.76285,0.06146c1.24397,0.29489 1.7111,1.03535 1.9726,1.65447c0.22297,0.5279 0.35863,0.96758 0.35863,0.96758z" data-paper-data="{&quot;index&quot;:null}" fill="url(#color-19)" stroke="#000000" stroke-width="0.25" stroke-linecap="butt"/><path d="M237.94989,160.33047c0,-0.53054 0.43009,-0.96063 0.96063,-0.96063c0.53054,0 0.96063,0.43009 0.96063,0.96063c0,0.53054 -0.43009,0.96063 -0.96063,0.96063c-0.53054,0 -0.96063,-0.43009 -0.96063,-0.96063z" fill="#caff00" stroke="none" stroke-width="0.25" stroke-linecap="butt"/><path d="M240.17032,160.35152c0,-0.53054 0.43009,-0.96063 0.96063,-0.96063c0.53054,0 0.96063,0.43009 0.96063,0.96063c0,0.53054 -0.43009,0.96063 -0.96063,0.96063c-0.53054,0 -0.96063,-0.43009 -0.96063,-0.96063z" fill="#00fcff" stroke="none" stroke-width="0.25" stroke-linecap="butt"/><path d="M245.38117,194.6508v-11.03576c0,0 1.38877,7.40807 1.87432,9.19669c0.38416,1.41512 1.82771,4.36642 1.82771,4.36642z" fill="url(#color-20)" stroke="url(#color-21)" stroke-width="0.25" stroke-linecap="butt"/><path d="M230.9168,197.12143c0,0 1.44355,-2.9513 1.82771,-4.36642c0.48555,-1.78863 1.87432,-9.19669 1.87432,-9.19669v11.03576z" data-paper-data="{&quot;index&quot;:null}" fill="url(#color-22)" stroke="url(#color-23)" stroke-width="0.25" stroke-linecap="butt"/><path d="M234.60379,194.6398v-17.70389h10.79033v17.70389z" fill="url(#color-24)" stroke="url(#color-25)" stroke-width="0.25" stroke-linecap="butt"/><g stroke-width="0.25"><path d="M240.38467,188.48909v-4.4065h4.23235v4.4065z" fill="url(#color-26)" stroke="url(#color-27)" stroke-linecap="butt"/><path d="M240.37329,188.43087l4.22256,-4.28686" fill="none" stroke="url(#color-28)" stroke-linecap="round"/><path d="M240.41616,184.10113l4.17969,4.35117" fill="none" stroke="url(#color-29)" stroke-linecap="round"/></g><g stroke-width="0.25"><path d="M235.32617,188.51052v-4.4065h4.23235v4.4065z" fill="url(#color-30)" stroke="url(#color-31)" stroke-linecap="butt"/><path d="M239.53735,184.16544l-4.22256,4.28686" fill="none" stroke="url(#color-32)" stroke-linecap="round"/><path d="M235.35766,184.12257l4.17969,4.35117" fill="none" stroke="url(#color-33)" stroke-linecap="round"/></g><g stroke-width="0.25"><path d="M240.38467,193.59416v-4.4065h4.23235v4.4065z" fill="url(#color-34)" stroke="url(#color-35)" stroke-linecap="butt"/><path d="M240.37329,193.53594l4.22256,-4.28686" fill="none" stroke="url(#color-36)" stroke-linecap="round"/><path d="M240.41616,189.20621l4.17969,4.35116" fill="none" stroke="url(#color-37)" stroke-linecap="round"/></g><g stroke-width="0.25"><path d="M235.32617,193.6156v-4.4065h4.23235v4.4065z" fill="url(#color-38)" stroke="url(#color-39)" stroke-linecap="butt"/><path d="M239.53735,189.27051l-4.22256,4.28686" fill="none" stroke="url(#color-40)" stroke-linecap="round"/><path d="M239.53735,193.57881l-4.17969,-4.35117" fill="none" stroke="url(#color-41)" stroke-linecap="round"/></g><g stroke-width="0.25"><path d="M235.15012,183.13141v-5.30928h9.63157v5.30928z" fill="url(#color-42)" stroke="url(#color-43)" stroke-linecap="butt"/><path d="M235.65177,178.38101h8.5614" fill="none" stroke="url(#color-44)" stroke-linecap="round"/><path d="M244.11283,182.60359h-8.42762" fill="none" stroke="url(#color-45)" stroke-linecap="round"/></g><g stroke-width="0.25"><path d="M234.57074,176.92056v-9.21245h10.79033v9.21245z" fill="url(#color-46)" stroke="url(#color-47)" stroke-linecap="butt"/><path d="M234.72257,175.90915v-7.20814h0.72322v7.20814z" fill="url(#color-48)" stroke="url(#color-49)" stroke-linecap="butt"/><path d="M244.50729,175.90915v-7.20814h0.72322v7.20814z" fill="url(#color-50)" stroke="url(#color-51)" stroke-linecap="butt"/><path d="M235.48955,172.31433c0,-2.47222 2.00413,-4.47636 4.47636,-4.47636c2.47222,0 4.47636,2.00413 4.47636,4.47636c0,2.47222 -2.00413,4.47636 -4.47636,4.47636c-2.47222,0 -4.47636,-2.00413 -4.47636,-4.47636z" fill="url(#color-52)" stroke="none" stroke-linecap="butt"/><path d="M236.33175,172.29841c0,-2.00708 1.62706,-3.63415 3.63415,-3.63415c2.00708,0 3.63415,1.62706 3.63415,3.63415c0,2.00708 -1.62706,3.63415 -3.63415,3.63415c-2.00708,0 -3.63415,-1.62706 -3.63415,-3.63415z" fill="url(#color-53)" stroke="none" stroke-linecap="butt"/><path d="M236.8893,172.29841c0,-1.69916 1.37744,-3.07661 3.07661,-3.07661c1.69916,0 3.07661,1.37744 3.07661,3.07661c0,1.69916 -1.37744,3.07661 -3.07661,3.07661c-1.69916,0 -3.07661,-1.37744 -3.07661,-3.07661z" fill="url(#color-54)" stroke="none" stroke-linecap="butt"/><path d="M237.436,172.29841c0,-1.39722 1.13268,-2.52991 2.52991,-2.52991c1.39722,0 2.52991,1.13268 2.52991,2.52991c0,1.39722 -1.13268,2.52991 -2.52991,2.52991c-1.39722,0 -2.52991,-1.13268 -2.52991,-2.52991z" fill="url(#color-55)" stroke="none" stroke-linecap="butt"/><path d="M234.70282,175.94147l0.58344,-3.78556l0.55913,3.78556l0.75361,-3.7525l0.75361,3.73597l1.31273,-3.73597l1.26411,3.7525l1.11825,-3.73597l1.26411,3.71944l0.85085,-3.71944l0.92377,3.7525l0.58344,-3.73597l0.55913,3.70291" fill="none" stroke="url(#color-56)" stroke-linecap="round"/><path d="M245.22899,172.18897l-0.55913,3.70291l-0.58344,-3.73597l-0.92377,3.7525l-0.85085,-3.71944l-1.26411,3.71944l-1.11825,-3.73597l-1.26411,3.7525l-1.31273,-3.73597l-0.75361,3.73597l-0.75361,-3.7525l-0.55913,3.78556l-0.58344,-3.78556" data-paper-data="{&quot;index&quot;:null}" fill="none" stroke="url(#color-57)" stroke-linecap="round"/><path d="M234.72713,172.29779l0.58344,-3.78556l0.55913,3.78556l0.75361,-3.7525l0.75361,3.73597l1.31273,-3.73597l1.26411,3.7525l1.11825,-3.73597l1.26411,3.71944l0.85085,-3.71944l0.92377,3.7525l0.58344,-3.73597l0.55913,3.70291" fill="none" stroke="url(#color-58)" stroke-linecap="round"/><path d="M245.2533,168.54529l-0.55913,3.70291l-0.58344,-3.73597l-0.92377,3.7525l-0.85085,-3.71944l-1.26411,3.71944l-1.11825,-3.73597l-1.26411,3.7525l-1.31273,-3.73597l-0.75361,3.73597l-0.75361,-3.7525l-0.55913,3.78556l-0.58344,-3.78556" data-paper-data="{&quot;index&quot;:null}" fill="none" stroke="url(#color-59)" stroke-linecap="round"/><path d="M234.59873,176.78752v-0.81322h10.63557v0.81322z" fill="url(#color-60)" stroke="url(#color-61)" stroke-linecap="butt"/><path d="M234.64735,168.67639v-0.81322h10.63557v0.81322z" fill="url(#color-62)" stroke="url(#color-63)" stroke-linecap="butt"/></g><path d="M215.27327,167.03273v-12.39235h25.93332v8.69862h-15.56684v3.69373z" fill-opacity="0.53453" fill="#000000" stroke="#a60000" stroke-width="0" stroke-linecap="butt"/><text transform="translate(215.70712,161.61518) scale(0.21839,0.21839)" font-size="40" xml:space="preserve" fill="#ffffff" fill-rule="nonzero" stroke="#000000" stroke-width="0" stroke-linecap="butt" stroke-linejoin="miter" stroke-miterlimit="10" stroke-dasharray="" stroke-dashoffset="0" font-family="Serif" font-weight="normal" text-anchor="start" style="mix-blend-mode: normal"><tspan x="0" dy="0">Rocket</tspan></text><text transform="translate(215.56527,166.16682) scale(0.11601,0.11601)" font-size="40" xml:space="preserve" fill="#ffffff" fill-rule="nonzero" stroke="#000000" stroke-width="0" stroke-linecap="butt" stroke-linejoin="miter" stroke-miterlimit="10" stroke-dasharray="" stroke-dashoffset="0" font-family="Serif" font-weight="normal" text-anchor="start" style="mix-blend-mode: normal"><tspan x="0" dy="0">3-1-3</tspan></text></g></g></svg>