<svg version="1.1" xmlns="http://www.w3.org/2000/svg" xmlns:xlink="http://www.w3.org/1999/xlink" width="12.98292" height="12.98292" viewBox="0,0,12.98292,12.98292"><defs><radialGradient cx="239.99999" cy="180" r="6.49146" gradientUnits="userSpaceOnUse" id="color-1"><stop offset="0" stop-color="#734545" stop-opacity="0.30998"/><stop offset="1" stop-color="#734545" stop-opacity="0"/></radialGradient><radialGradient cx="239.99999" cy="180" r="5.27013" gradientUnits="userSpaceOnUse" id="color-2"><stop offset="0" stop-color="#eb7373" stop-opacity="0.62996"/><stop offset="1" stop-color="#eb7373" stop-opacity="0"/></radialGradient><radialGradient cx="239.99999" cy="180" r="4.46159" gradientUnits="userSpaceOnUse" id="color-3"><stop offset="0" stop-color="#ff4f4f"/><stop offset="1" stop-color="#ff4f4f" stop-opacity="0"/></radialGradient><radialGradient cx="239.99999" cy="180" r="3.66879" gradientUnits="userSpaceOnUse" id="color-4"><stop offset="0" stop-color="#ea3939"/><stop offset="1" stop-color="#bd4b4b"/></radialGradient></defs><g transform="translate(-233.50854,-173.50854)"><g data-paper-data="{&quot;isPaintingLayer&quot;:true}" fill-rule="nonzero" stroke="none" stroke-width="0.5" stroke-linecap="butt" stroke-linejoin="miter" stroke-miterlimit="10" stroke-dasharray="" stroke-dashoffset="0" style="mix-blend-mode: normal"><path d="M233.50854,180c0,-3.58512 2.90632,-6.49146 6.49146,-6.49146c3.58512,0 6.49146,2.90632 6.49146,6.49146c0,3.58512 -2.90632,6.49146 -6.49146,6.49146c-3.58512,0 -6.49146,-2.90632 -6.49146,-6.49146z" fill="url(#color-1)"/><path d="M234.72987,180c0,-2.9106 2.35951,-5.27013 5.27013,-5.27013c2.9106,0 5.27013,2.35951 5.27013,5.27013c0,2.9106 -2.35951,5.27013 -5.27013,5.27013c-2.9106,0 -5.27013,-2.35951 -5.27013,-5.27013z" fill="url(#color-2)"/><path d="M235.5384,180c0,-2.46406 1.99752,-4.46159 4.46159,-4.46159c2.46406,0 4.46159,1.99752 4.46159,4.46159c0,2.46406 -1.99752,4.46159 -4.46159,4.46159c-2.46406,0 -4.46159,-1.99752 -4.46159,-4.46159z" fill="url(#color-3)"/><path d="M236.33121,180c0,-2.02621 1.64257,-3.66879 3.66879,-3.66879c2.02621,0 3.66879,1.64257 3.66879,3.66879c0,2.02621 -1.64257,3.66879 -3.66879,3.66879c-2.02621,0 -3.66879,-1.64257 -3.66879,-3.66879z" fill="url(#color-4)"/></g></g></svg>