<svg version="1.1" xmlns="http://www.w3.org/2000/svg" xmlns:xlink="http://www.w3.org/1999/xlink" width="94.43335" height="103.42456" viewBox="0,0,94.43335,103.42456"><defs><linearGradient x1="239.68941" y1="156.0952" x2="239.7532" y2="162.94597" gradientUnits="userSpaceOnUse" id="color-1"><stop offset="0" stop-color="#4f6d73"/><stop offset="1" stop-color="#86b9c2"/></linearGradient><radialGradient cx="235.45253" cy="134.54512" r="13.11833" gradientUnits="userSpaceOnUse" id="color-2"><stop offset="0" stop-color="#7bccb1"/><stop offset="1" stop-color="#618c94"/></radialGradient><linearGradient x1="269.09341" y1="188.16965" x2="275.86027" y2="178.30705" gradientUnits="userSpaceOnUse" id="color-3"><stop offset="0" stop-color="#242424"/><stop offset="1" stop-color="#373737"/></linearGradient><radialGradient cx="265.6516" cy="187.40449" r="3.52256" gradientUnits="userSpaceOnUse" id="color-4"><stop offset="0" stop-color="#bfbfbf"/><stop offset="1" stop-color="#9a9a9a"/></radialGradient><linearGradient x1="277.51022" y1="178.67805" x2="311.54674" y2="148.57825" gradientUnits="userSpaceOnUse" id="color-5"><stop offset="0" stop-color="#b2b2b2"/><stop offset="1" stop-color="#c4c4c4"/></linearGradient><linearGradient x1="277.97272" y1="178.74882" x2="300.25023" y2="159.04801" gradientUnits="userSpaceOnUse" id="color-6"><stop offset="0" stop-color="#cccccc"/><stop offset="1" stop-color="#d8d8d8"/></linearGradient><linearGradient x1="275.35544" y1="180.04776" x2="277.21176" y2="178.46371" gradientUnits="userSpaceOnUse" id="color-7"><stop offset="0" stop-color="#b5b5b5"/><stop offset="1" stop-color="#c5c5c5"/></linearGradient></defs><g transform="translate(-222.47228,-130.90184)"><g data-paper-data="{&quot;isPaintingLayer&quot;:true}" fill-rule="nonzero" stroke-linejoin="miter" stroke-miterlimit="10" stroke-dasharray="" stroke-dashoffset="0" style="mix-blend-mode: normal"><path d="M279.86192,185.57044c-0.31125,0.34969 -2.29261,-1.40449 -3.26136,-1.37693c-0.5128,0.01458 3.59356,1.93096 2.4844,2.60525c-0.38079,0.2315 -2.96428,-1.75575 -3.79803,-1.8734c-0.44632,-0.063 3.52885,2.87945 2.8164,3.3578c-0.42291,0.28396 -2.29731,-1.441 -3.45013,-1.97336c-0.56164,-0.25934 -4.05378,-2.66335 -4.05378,-2.66335c0,0 -1.63278,-2.09707 -4.31337,-3.60802c-0.64461,-0.36334 -2.64399,-1.70877 -3.31068,-2.07481c-1.57784,-0.86633 -4.51674,-3.86577 -5.46804,-4.42311c-2.04608,-1.19874 -6.64127,-9.06015 -6.64127,-9.06015l4.24386,-3.23064c0,0 2.74341,4.35613 6.2803,8.5414c3.57899,3.20157 6.12064,5.24693 8.01519,6.52039c2.24225,1.50715 4.85768,3.81108 4.85768,3.81108c0,0 1.93361,1.48256 3.47683,2.82945c1.38858,1.21192 2.42171,2.28161 2.122,2.61837z" data-paper-data="{&quot;index&quot;:null}" fill="#669093" stroke="#000000" stroke-width="0" stroke-linecap="butt"/><path d="M248.34237,159.24794c4.5234,-2.95266 6.3398,-0.37011 7.1816,1.13592c0.8418,1.50603 2.15246,0.43998 -2.00488,3.12828c-3.51388,2.27221 -3.1392,1.72356 -3.98099,0.21753c-0.8418,-1.50603 -3.55145,-2.944 -1.19572,-4.48171z" data-paper-data="{&quot;index&quot;:null}" fill="#314247" stroke="#000000" stroke-width="0" stroke-linecap="butt"/><g><path d="M226.1234,227.23575l3.75904,-33.71008c0,0 6.75518,-2.18267 9.822,-2.18267c3.62872,0 0.6063,4.24407 0.6063,4.24407c0,0 -3.09204,0.08829 -3.39803,1.52409c-0.93579,4.39099 -2.78619,30.12458 -2.78619,30.12458z" fill="#453d36" stroke="#000000" stroke-width="0" stroke-linecap="butt"/><path d="M241.62211,232.14463c0,0 -0.3857,1.94015 -1.2126,1.94015c-0.59276,0 -2.64411,0.01366 -4.70436,-0.06689c-1.25258,-0.04897 -1.90215,-0.61779 -2.83553,-0.76063c-1.17507,-0.17983 -2.93853,0.22047 -3.78777,0.02896c-1.56485,-0.35288 -2.37463,-0.77781 -2.37463,-0.77781c0,0 -0.26912,-1.02539 -0.2856,-1.5858c-0.02221,-0.755 0.16433,-2.53701 0.16433,-2.53701c0,0 5.93424,-0.11957 8.24914,0.08075c1.36979,0.11854 4.24057,0.6468 4.24057,0.6468c0,0 1.45975,0.6156 1.67337,1.04283c0.26162,0.52325 0.87307,1.98866 0.87307,1.98866z" data-paper-data="{&quot;index&quot;:null}" fill="#141415" stroke="#000000" stroke-width="0" stroke-linecap="butt"/><path d="M241.35122,231.50999c0,0 -0.38569,0 -1.21259,0c-0.24822,0 0.70239,1.60165 -2.61811,1.33311c-3.13563,-0.25359 -2.77648,-1.18823 -3.8809,-1.26883c-2.30937,-0.16854 -2.58766,0.59503 -3.58733,0.44204c-0.34815,-0.05328 -0.51271,-0.11454 -1.78458,-0.97035c-0.87471,-0.58857 -0.66566,-1.75122 -1.26542,-2.3793c-0.87609,-0.91746 -0.80847,-1.8858 -0.80847,-1.8858l-0.07637,-3.04773c0,0 0.48635,2.20682 1.32529,3.03123c0.75062,0.73761 2.3169,-0.01875 2.80058,-0.01889c0.84695,-0.00024 -0.68885,-3.26805 0.12091,-3.24981c0.43542,0.00981 3.72275,-0.23408 3.72275,-0.23408c0,0 0.12302,3.57988 0.35598,3.60004c1.36978,0.11854 4.60434,0.6468 4.60434,0.6468c0,0 1.45975,0.6156 1.67337,1.04283c0.26163,0.52325 0.63055,2.95873 0.63055,2.95873z" data-paper-data="{&quot;index&quot;:null}" fill="#252527" stroke="#000000" stroke-width="0" stroke-linecap="butt"/><path d="M232.66853,228.57138l2.66771,-1.09134" data-paper-data="{&quot;index&quot;:null}" fill="none" stroke="#ffffff" stroke-width="0.5" stroke-linecap="round"/><path d="M234.60867,228.93516l2.54644,-1.45511" data-paper-data="{&quot;index&quot;:null}" fill="none" stroke="#ffffff" stroke-width="0.5" stroke-linecap="round"/><path d="M238.24645,227.72256l-1.45512,1.45512" data-paper-data="{&quot;index&quot;:null}" fill="none" stroke="#ffffff" stroke-width="0.5" stroke-linecap="round"/><path d="M231.45592,224.69109l2.18267,-0.24252" data-paper-data="{&quot;index&quot;:null}" fill="none" stroke="#969696" stroke-width="0.5" stroke-linecap="round"/><path d="M231.94097,225.5399l1.94015,-0.36378" data-paper-data="{&quot;index&quot;:null}" fill="none" stroke="#969696" stroke-width="0.5" stroke-linecap="round"/></g><g><path d="M239.70443,191.343c3.62872,0 10.54956,2.18267 10.54956,2.18267l3.03149,33.71008h-7.63934c0,0 -1.32697,-25.53818 -2.03751,-29.57011c-0.20138,-1.1427 -3.2979,-2.07857 -3.2979,-2.07857c0,0 -3.67312,-4.24407 -0.6063,-4.24407z" fill="#453d36" stroke="#000000" stroke-width="0" stroke-linecap="butt"/><path d="M259.69261,234.32553c-0.59276,0 -2.64411,0.01365 -4.70436,-0.0669c-1.25258,-0.04897 -1.90215,-0.61779 -2.83553,-0.76063c-1.17507,-0.17982 -2.93854,0.22047 -3.78778,0.02896c-1.56485,-0.35288 -2.37463,-0.77782 -2.37463,-0.77782c0,0 -0.26911,-1.0254 -0.2856,-1.5858c-0.02221,-0.75501 0.16433,-2.53701 0.16433,-2.53701c0,0 5.93425,-0.11957 8.24914,0.08076c1.36979,0.11854 4.24057,0.6468 4.24057,0.6468c0,0 1.45976,0.6156 1.67337,1.04283c0.26162,0.52325 0.87307,1.98865 0.87307,1.98865c0,0 -0.3857,1.94015 -1.21259,1.94015z" data-paper-data="{&quot;index&quot;:null}" fill="#141415" stroke="#000000" stroke-width="0" stroke-linecap="butt"/><path d="M259.4217,231.75072c-0.24822,0 0.7024,1.60165 -2.61811,1.33311c-3.13563,-0.25358 -2.77648,-1.18823 -3.8809,-1.26883c-2.30937,-0.16854 -2.58765,0.59503 -3.58732,0.44205c-0.34815,-0.05328 -0.51271,-0.11454 -1.78459,-0.97035c-0.87472,-0.58857 -0.66566,-1.75122 -1.26542,-2.3793c-0.87609,-0.91745 -0.80847,-1.8858 -0.80847,-1.8858l-0.07637,-3.04773c0,0 0.48635,2.20681 1.32529,3.03122c0.75062,0.73761 2.3169,-0.01875 2.80058,-0.01889c0.84696,-0.00024 -0.68885,-3.26804 0.12091,-3.2498c0.43542,0.00981 3.72275,-0.23409 3.72275,-0.23409c0,0 0.12302,3.57989 0.35598,3.60005c1.36979,0.11854 4.60434,0.6468 4.60434,0.6468c0,0 1.45976,0.6156 1.67338,1.04283c0.26162,0.52325 0.63055,2.95873 0.63055,2.95873c0,0 -0.3857,0 -1.2126,0z" data-paper-data="{&quot;index&quot;:null}" fill="#252527" stroke="#000000" stroke-width="0" stroke-linecap="butt"/><path d="M254.61932,227.72079l-2.6677,1.09133" fill="none" stroke="#ffffff" stroke-width="0.5" stroke-linecap="round"/><path d="M253.89177,229.1759l2.54645,-1.45511" fill="none" stroke="#ffffff" stroke-width="0.5" stroke-linecap="round"/><path d="M256.07444,229.41842l1.45512,-1.45511" fill="none" stroke="#ffffff" stroke-width="0.5" stroke-linecap="round"/><path d="M252.92169,224.68931l-2.18266,0.24252" fill="none" stroke="#969696" stroke-width="0.5" stroke-linecap="round"/><path d="M251.22407,225.78064l1.94015,-0.36378" fill="none" stroke="#969696" stroke-width="0.5" stroke-linecap="round"/></g><path d="M235.92528,162.98161l-0.06379,-6.85074l7.65582,-0.07128l0.06379,6.85074z" fill="url(#color-1)" stroke="#000000" stroke-width="0" stroke-linecap="butt"/><path d="M229.93112,193.71079c0,0 0.11532,-5.56101 -0.45455,-10.94006c-0.38722,-3.65502 -1.46946,-6.94581 -1.64957,-9.43844c-0.33804,-4.67839 -0.33508,-13.37969 -0.33508,-13.37969c0,0 3.68618,-0.61912 5.46713,-0.26948c2.26705,0.44506 7.03222,2.72332 7.03222,2.72332c0,0 3.65652,-2.20475 5.56598,-2.63881c2.01473,-0.45799 6.22358,-0.04118 6.22358,-0.04118c0,0 0.01677,9.21735 -0.10905,12.65785c-0.11131,3.04402 -0.83024,6.37612 -1.08218,10.88348c-0.25966,4.64558 -0.05081,10.42247 -0.05081,10.42247c0,0 -2.76401,-0.74362 -5.57943,-0.78563c-1.27856,-0.01908 -1.78182,1.02275 -2.98753,1.19319c-0.96373,0.13622 -2.64182,-0.58834 -3.56696,-0.61648c-0.69938,-0.02127 -2.04862,-0.51155 -2.54288,-0.51106c-0.99798,0.00099 -1.60759,0.8803 -2.76379,1.05042c-1.34306,0.19761 -3.16712,-0.30992 -3.16712,-0.30992z" fill="#374a50" stroke="#292e32" stroke-width="0" stroke-linecap="butt"/><g stroke="none" stroke-linecap="butt"><path d="M252.64048,144.16605c0.06882,7.39122 -5.61289,13.4364 -12.69044,13.5023c-7.07755,0.0659 -12.87083,-5.87244 -12.93965,-13.26366c-0.06882,-7.39122 5.61289,-13.4364 12.69044,-13.5023c7.07755,-0.0659 12.87083,5.87244 12.93965,13.26366z" fill="url(#color-2)" stroke-width="0"/><path d="M245.62382,149.63686c-0.98757,0.15722 -1.14478,-0.83034 -1.14478,-0.83034l-0.04831,-0.30343c-0.19832,-1.25076 -0.29253,-2.49356 -0.38707,-3.75595c0,0 -0.07467,-0.99721 0.92254,-1.07188c0.99721,-0.07467 1.07189,0.92254 1.07189,0.92254c0.09038,1.20706 0.17658,2.39523 0.36776,3.59084l0.04831,0.30343c0,0 0.15723,0.98757 -0.83034,1.14479z" fill="#191412" stroke-width="0.5"/><path d="M248.37203,144.9461c-0.37249,-1.3073 1.69486,-4.1398 1.69486,-4.1398c0,0 2.04435,2.43547 2.08694,4.07651c0.04531,1.746 -3.32602,1.66298 -3.7818,0.06329z" fill="#191412" stroke-width="0.5"/><path d="M235.79,144.95829c-0.28028,-1.38357 2.58301,-4.06358 2.58301,-4.06358c0,0 2.35965,2.48565 2.1625,4.16214c-0.20976,1.78372 -4.40255,1.59447 -4.74551,-0.09855z" data-paper-data="{&quot;index&quot;:null}" fill="#191412" stroke-width="0.5"/><path d="M235.68076,153.92127c-0.00382,-0.41 0.31617,-0.7454 0.71472,-0.74911c0.39853,-0.00371 0.72472,0.32567 0.72854,0.73567c0.00382,0.41 -0.31616,0.7454 -0.71472,0.74911c-0.39853,0.00371 -0.72472,-0.32567 -0.72854,-0.73567z" fill="#00ffcc" stroke-width="0.5"/><path d="M234.91408,150.96283c-0.00382,-0.41 0.31616,-0.7454 0.71471,-0.74911c0.39853,-0.00371 0.72472,0.32566 0.72854,0.73567c0.00382,0.41 -0.31617,0.7454 -0.71472,0.74911c-0.39853,0.00371 -0.72471,-0.32567 -0.72853,-0.73567z" fill="#00ffcc" stroke-width="0.5"/><path d="M232.70818,152.20001c-0.00382,-0.41 0.31616,-0.7454 0.71471,-0.74911c0.39853,-0.00371 0.72472,0.32567 0.72854,0.73567c0.00382,0.41 -0.31617,0.7454 -0.71472,0.74911c-0.39853,0.00371 -0.72471,-0.32566 -0.72853,-0.73567z" fill="#00ffcc" stroke-width="0.5"/><path d="M231.9415,149.24157c-0.00382,-0.41 0.31617,-0.74539 0.71472,-0.7491c0.39853,-0.00371 0.72472,0.32566 0.72854,0.73566c0.00382,0.41 -0.31617,0.7454 -0.71472,0.74911c-0.39853,0.00371 -0.72472,-0.32567 -0.72854,-0.73567z" fill="#00ffcc" stroke-width="0.5"/><path d="M249.13516,153.65515c-0.21233,0.00198 -0.38756,-0.3288 -0.39138,-0.73881c-0.00382,-0.41 0.16522,-0.74399 0.37755,-0.74597c0.21233,-0.00198 0.38755,0.3288 0.39137,0.73881c0.00382,0.41 -0.16521,0.74399 -0.37754,0.74597z" fill="#00ffcc" stroke-width="0.5"/><path d="M249.50132,150.68616c-0.21233,0.00198 -0.38756,-0.3288 -0.39138,-0.73881c-0.00382,-0.41 0.16522,-0.74399 0.37755,-0.74597c0.21233,-0.00198 0.38756,0.3288 0.39138,0.73881c0.00382,0.41 -0.16522,0.74399 -0.37755,0.74597z" fill="#00ffcc" stroke-width="0.5"/><path d="M250.6939,151.89171c-0.21233,0.00198 -0.38756,-0.32881 -0.39138,-0.73881c-0.00382,-0.41 0.16522,-0.74398 0.37755,-0.74596c0.21233,-0.00198 0.38756,0.3288 0.39138,0.7388c0.00382,0.41 -0.16522,0.74399 -0.37755,0.74597z" fill="#00ffcc" stroke-width="0.5"/><path d="M251.06005,148.92273c-0.21233,0.00198 -0.38756,-0.3288 -0.39138,-0.7388c-0.00382,-0.41 0.16521,-0.74399 0.37755,-0.74597c0.21233,-0.00198 0.38756,0.32881 0.39138,0.73881c0.00382,0.41 -0.16522,0.74398 -0.37755,0.74596z" fill="#00ffcc" stroke-width="0.5"/><path d="M241.45928,137.43471c-0.00367,-0.39453 0.31317,-0.71734 0.70771,-0.72101c0.39453,-0.00367 0.71734,0.31317 0.72101,0.70771c0.00367,0.39453 -0.31317,0.71734 -0.70771,0.72101c-0.39453,0.00367 -0.71734,-0.31317 -0.72101,-0.70771z" fill="#00ffcc" stroke-width="0.5"/><path d="M243.40814,134.56294c-0.00367,-0.39453 0.31317,-0.71735 0.70771,-0.72102c0.39453,-0.00367 0.71734,0.31318 0.72101,0.70772c0.00367,0.39453 -0.31317,0.71734 -0.70771,0.72101c-0.39453,0.00367 -0.71734,-0.31317 -0.72101,-0.70771z" fill="#00ffcc" stroke-width="0.5"/><path d="M245.4108,137.4711c-0.00367,-0.39453 0.31317,-0.71734 0.70771,-0.72101c0.39453,-0.00367 0.71734,0.31317 0.72101,0.70771c0.00367,0.39453 -0.31317,0.71734 -0.70771,0.72101c-0.39453,0.00367 -0.71734,-0.31317 -0.72101,-0.70771z" fill="#00ffcc" stroke-width="0.5"/></g><g stroke="none" stroke-width="0" stroke-linecap="butt"><path d="M269.99917,188.79109l-3.33507,-3.76836l8.29039,-7.33713l3.33507,3.76837z" fill="url(#color-3)"/><path d="M269.31636,184.7316c1.60416,1.10064 2.01237,3.29334 0.91173,4.89749c-1.10065,1.60418 -3.29334,2.01238 -4.8975,0.91173c-1.60418,-1.10064 -2.01238,-3.29334 -0.91173,-4.89749c1.10065,-1.60418 3.29334,-2.01238 4.8975,-0.91173z" fill="url(#color-4)"/><path d="M280.59129,182.16209l-6.16217,-6.9681l35.05122,-28.46204l7.42528,-3.40982l-4.08072,6.9655z" fill="url(#color-5)"/><path d="M279.98935,181.02919l-4.32115,-4.77313l29.34175,-23.68831l8.40928,-5.8376l-6.58363,7.45215z" fill="url(#color-6)"/><path d="M271.18318,168.02567c0,0 3.6217,7.14037 6.14466,10.17738c2.7701,3.33452 9.80384,9.02068 9.80384,9.02068c0,0 -9.04443,-4.2904 -11.73108,-7.52448c-2.62822,-3.16372 -4.21741,-11.67359 -4.21741,-11.67359z" fill="url(#color-7)"/></g><path d="M263.56104,187.68677c-2.4732,-0.5111 -5.37065,-1.30436 -5.37065,-1.30436c0,0 -4.21238,-0.85037 -7.3641,-1.92835c-2.66305,-0.91085 -6.18606,-2.79324 -11.10152,-5.02678c-6.14651,-3.99733 -13.20731,-10.46478 -13.20731,-10.46478l4.08259,-4.74928c0,0 9.09033,9.17836 11.79295,10.29368c1.25655,0.51855 3.23419,1.4981 5.26131,2.40152c0.8565,0.3817 3.66835,1.34181 4.50575,1.70387c3.48228,1.50558 6.75886,1.54529 6.75886,1.54529c0,0 4.9643,1.63661 5.63773,1.99473c1.38228,0.73507 4.47363,1.28945 4.51012,1.91645c0.06149,1.05623 -5.79166,-0.65323 -5.39703,-0.26193c0.73717,0.73095 4.61475,1.78607 4.67137,2.33259c0.16488,1.59186 -4.77854,-1.01143 -4.41054,-0.49704c0.69523,0.9718 3.89501,1.60943 3.78371,2.17579c-0.10719,0.54537 -1.92785,0.32847 -4.1532,-0.1314z" data-paper-data="{&quot;index&quot;:null}" fill="#72a2a6" stroke="#000000" stroke-width="0" stroke-linecap="butt"/><path d="M230.19177,162.39453c1.62909,1.36785 2.38021,1.04103 -1.18441,4.77076c-4.21737,4.41273 -2.62316,3.07211 -4.25225,1.70425c-1.62909,-1.36785 -4.33641,-4.16502 0.2858,-8.95989c2.40719,-2.49711 3.52175,1.11701 5.15085,2.48486z" fill="#3e5359" stroke="#000000" stroke-width="0" stroke-linecap="butt"/></g></g></svg>