<svg version="1.1" xmlns="http://www.w3.org/2000/svg" xmlns:xlink="http://www.w3.org/1999/xlink" width="84.5" height="38.32609" viewBox="0,0,84.5,38.32609"><defs><linearGradient x1="240" y1="161.58695" x2="240" y2="198.41312" gradientUnits="userSpaceOnUse" id="color-1"><stop offset="0" stop-color="#2b4b31"/><stop offset="1" stop-color="#395a1b"/></linearGradient><linearGradient x1="240" y1="161.58695" x2="240" y2="198.41312" gradientUnits="userSpaceOnUse" id="color-2"><stop offset="0" stop-color="#12301b"/><stop offset="1" stop-color="#446d2c"/></linearGradient><linearGradient x1="264.59003" y1="176.86406" x2="264.59003" y2="187.0382" gradientUnits="userSpaceOnUse" id="color-3"><stop offset="0" stop-color="#95979c" stop-opacity="0.30066"/><stop offset="1" stop-color="#969697" stop-opacity="0.20388"/></linearGradient><linearGradient x1="264.59003" y1="176.86406" x2="264.59003" y2="187.0382" gradientUnits="userSpaceOnUse" id="color-4"><stop offset="0" stop-color="#131313"/><stop offset="1" stop-color="#080808"/></linearGradient><linearGradient x1="264.56381" y1="185.50275" x2="264.56381" y2="186.84008" gradientUnits="userSpaceOnUse" id="color-5"><stop offset="0" stop-color="#40a4ff" stop-opacity="0.74194"/><stop offset="1" stop-color="#245e96" stop-opacity="0.66129"/></linearGradient><linearGradient x1="264.56381" y1="185.50275" x2="264.56381" y2="186.84008" gradientUnits="userSpaceOnUse" id="color-6"><stop offset="0" stop-color="#000000" stop-opacity="0"/><stop offset="1" stop-color="#000000" stop-opacity="0"/></linearGradient><linearGradient x1="273.2433" y1="176.86406" x2="273.2433" y2="187.0382" gradientUnits="userSpaceOnUse" id="color-7"><stop offset="0" stop-color="#95979c" stop-opacity="0.30066"/><stop offset="1" stop-color="#969697" stop-opacity="0.20388"/></linearGradient><linearGradient x1="273.2433" y1="176.86406" x2="273.2433" y2="187.0382" gradientUnits="userSpaceOnUse" id="color-8"><stop offset="0" stop-color="#131313"/><stop offset="1" stop-color="#080808"/></linearGradient><linearGradient x1="273.21708" y1="180.19467" x2="273.21708" y2="186.84008" gradientUnits="userSpaceOnUse" id="color-9"><stop offset="0" stop-color="#9a69ff" stop-opacity="0.81452"/><stop offset="1" stop-color="#752496" stop-opacity="0.65995"/></linearGradient><linearGradient x1="273.21708" y1="180.19467" x2="273.21708" y2="186.84008" gradientUnits="userSpaceOnUse" id="color-10"><stop offset="0" stop-color="#000000" stop-opacity="0"/><stop offset="1" stop-color="#000000" stop-opacity="0"/></linearGradient><linearGradient x1="264.59003" y1="187.09065" x2="264.59003" y2="188.03464" gradientUnits="userSpaceOnUse" id="color-11"><stop offset="0" stop-color="#353538"/><stop offset="1" stop-color="#2e2d31"/></linearGradient><linearGradient x1="264.59003" y1="187.09065" x2="264.59003" y2="188.03464" gradientUnits="userSpaceOnUse" id="color-12"><stop offset="0" stop-color="#131313"/><stop offset="1" stop-color="#080808"/></linearGradient><linearGradient x1="273.2433" y1="187.09065" x2="273.2433" y2="188.03464" gradientUnits="userSpaceOnUse" id="color-13"><stop offset="0" stop-color="#353538"/><stop offset="1" stop-color="#2e2d31"/></linearGradient><linearGradient x1="273.2433" y1="187.09065" x2="273.2433" y2="188.03464" gradientUnits="userSpaceOnUse" id="color-14"><stop offset="0" stop-color="#131313"/><stop offset="1" stop-color="#080808"/></linearGradient><linearGradient x1="266.34691" y1="174.30595" x2="266.34691" y2="187.88896" gradientUnits="userSpaceOnUse" id="color-15"><stop offset="0" stop-color="#beffb5"/><stop offset="1" stop-color="#099219"/></linearGradient><linearGradient x1="271.43398" y1="174.30595" x2="271.43398" y2="187.88896" gradientUnits="userSpaceOnUse" id="color-16"><stop offset="0" stop-color="#ffdcb5"/><stop offset="1" stop-color="#d66400"/></linearGradient><linearGradient x1="264.53759" y1="176.0774" x2="264.53759" y2="176.81161" gradientUnits="userSpaceOnUse" id="color-17"><stop offset="0" stop-color="#3a3b3f"/><stop offset="1" stop-color="#29272a"/></linearGradient><linearGradient x1="264.53759" y1="176.0774" x2="264.53759" y2="176.81161" gradientUnits="userSpaceOnUse" id="color-18"><stop offset="0" stop-color="#131313"/><stop offset="1" stop-color="#080808"/></linearGradient><linearGradient x1="273.2433" y1="176.0774" x2="273.2433" y2="176.81161" gradientUnits="userSpaceOnUse" id="color-19"><stop offset="0" stop-color="#3a3b3f"/><stop offset="1" stop-color="#29272a"/></linearGradient><linearGradient x1="273.2433" y1="176.0774" x2="273.2433" y2="176.81161" gradientUnits="userSpaceOnUse" id="color-20"><stop offset="0" stop-color="#131313"/><stop offset="1" stop-color="#080808"/></linearGradient><linearGradient x1="268.91667" y1="188.04047" x2="268.91667" y2="194.85819" gradientUnits="userSpaceOnUse" id="color-21"><stop offset="0" stop-color="#393c42"/><stop offset="1" stop-color="#252126"/></linearGradient><linearGradient x1="268.91667" y1="188.04047" x2="268.91667" y2="194.85819" gradientUnits="userSpaceOnUse" id="color-22"><stop offset="0" stop-color="#131313"/><stop offset="1" stop-color="#080808"/></linearGradient><linearGradient x1="268.91667" y1="188.54659" x2="268.91667" y2="194.24718" gradientUnits="userSpaceOnUse" id="color-23"><stop offset="0" stop-color="#eaeff8"/><stop offset="1" stop-color="#bdbabe"/></linearGradient><linearGradient x1="268.91667" y1="188.54659" x2="268.91667" y2="194.24718" gradientUnits="userSpaceOnUse" id="color-24"><stop offset="0" stop-color="#131313"/><stop offset="1" stop-color="#080808"/></linearGradient><radialGradient cx="268.75933" cy="190.03334" r="0.99644" gradientUnits="userSpaceOnUse" id="color-25"><stop offset="0" stop-color="#f2d1a3"/><stop offset="1" stop-color="#a95f38"/></radialGradient><linearGradient x1="268.91667" y1="189.29912" x2="268.91667" y2="191.292" gradientUnits="userSpaceOnUse" id="color-26"><stop offset="0" stop-color="#131313"/><stop offset="1" stop-color="#080808"/></linearGradient><radialGradient cx="269.4595" cy="190.16736" r="0.88372" gradientUnits="userSpaceOnUse" id="color-27"><stop offset="0" stop-color="#e8c189"/><stop offset="1" stop-color="#d68b62"/></radialGradient><linearGradient x1="269.69205" y1="189.90514" x2="269.69205" y2="190.6918" gradientUnits="userSpaceOnUse" id="color-28"><stop offset="0" stop-color="#131313"/><stop offset="1" stop-color="#080808"/></linearGradient><linearGradient x1="268.91667" y1="194.8713" x2="268.91667" y2="195.96389" gradientUnits="userSpaceOnUse" id="color-29"><stop offset="0" stop-color="#6a6d73"/><stop offset="1" stop-color="#504b51"/></linearGradient><linearGradient x1="268.91667" y1="194.8713" x2="268.91667" y2="195.96389" gradientUnits="userSpaceOnUse" id="color-30"><stop offset="0" stop-color="#131313"/><stop offset="1" stop-color="#080808"/></linearGradient></defs><g transform="translate(-197.75,-160.83703)"><g data-paper-data="{&quot;isPaintingLayer&quot;:true}" fill-rule="nonzero" stroke-linejoin="miter" stroke-miterlimit="10" stroke-dasharray="" stroke-dashoffset="0" style="mix-blend-mode: normal"><path d="M198.5,198.41312v-36.82609h83v36.82609z" fill="url(#color-1)" stroke="url(#color-2)" stroke-width="1.5" stroke-linecap="butt"/><path d="M261.78428,187.0382v-10.17414h5.61151v10.17414z" data-paper-data="{&quot;index&quot;:null}" fill="url(#color-3)" stroke="url(#color-4)" stroke-width="0.5" stroke-linecap="butt"/><path d="M261.94161,186.84008v-1.33732h5.2444v1.33732z" data-paper-data="{&quot;index&quot;:null}" fill="url(#color-5)" stroke="url(#color-6)" stroke-width="0.5" stroke-linecap="butt"/><path d="M270.43754,187.0382v-10.17414h5.61151v10.17414z" data-paper-data="{&quot;index&quot;:null}" fill="url(#color-7)" stroke="url(#color-8)" stroke-width="0.5" stroke-linecap="butt"/><path d="M270.59487,186.84008v-6.64541h5.2444v6.64541z" data-paper-data="{&quot;index&quot;:null}" fill="url(#color-9)" stroke="url(#color-10)" stroke-width="0.5" stroke-linecap="butt"/><path d="M260.8665,188.03464v-0.94399h7.44705v0.94399z" data-paper-data="{&quot;index&quot;:null}" fill="url(#color-11)" stroke="url(#color-12)" stroke-width="0.5" stroke-linecap="butt"/><path d="M269.51977,188.03464v-0.94399h7.44705v0.94399z" data-paper-data="{&quot;index&quot;:null}" fill="url(#color-13)" stroke="url(#color-14)" stroke-width="0.5" stroke-linecap="butt"/><path d="M264.45892,175.98416v-1.67821h3.72203l0.05394,13.58301" data-paper-data="{&quot;index&quot;:null}" fill="none" stroke="url(#color-15)" stroke-width="0.5" stroke-linecap="round"/><path d="M269.54599,187.88896l0.05394,-13.58301h3.72203v1.67821" data-paper-data="{&quot;index&quot;:null}" fill="none" stroke="url(#color-16)" stroke-width="0.5" stroke-linecap="round"/><path d="M261.44339,176.81161v-0.73422h6.1884v0.73422z" data-paper-data="{&quot;index&quot;:null}" fill="url(#color-17)" stroke="url(#color-18)" stroke-width="0.5" stroke-linecap="butt"/><path d="M270.1491,176.81161v-0.73422h6.1884v0.73422z" data-paper-data="{&quot;index&quot;:null}" fill="url(#color-19)" stroke="url(#color-20)" stroke-width="0.5" stroke-linecap="butt"/><path d="M259.76518,194.85819v-6.81773h18.30297v6.81773z" fill="url(#color-21)" stroke="url(#color-22)" stroke-width="0.5" stroke-linecap="butt"/><path d="M271.72242,191.39689c0,1.57417 -1.25618,2.85029 -2.80576,2.85029c-1.54958,0 -2.80576,-1.27612 -2.80576,-2.85029c0,-1.57417 1.25618,-2.85029 2.80576,-2.85029c1.54958,0 2.80576,1.27612 2.80576,2.85029z" fill="url(#color-23)" stroke="url(#color-24)" stroke-width="0.5" stroke-linecap="butt"/><path d="M269.9131,190.29556c0,0.55032 -0.44612,0.99644 -0.99644,0.99644c-0.55032,0 -0.99644,-0.44612 -0.99644,-0.99644c0,-0.55032 0.44612,-0.99644 0.99644,-0.99644c0.55032,0 0.99644,0.44612 0.99644,0.99644z" fill="url(#color-25)" stroke="url(#color-26)" stroke-width="0.5" stroke-linecap="butt"/><path d="M268.80834,190.6918c0,0 -0.23256,-0.27445 -0.23256,-0.4079c0,-0.12859 0.23256,-0.37876 0.23256,-0.37876h1.76744c0,0 0.28424,0.28486 0.28424,0.4079c0,0.13756 -0.28424,0.37876 -0.28424,0.37876z" fill="url(#color-27)" stroke="url(#color-28)" stroke-width="0.5" stroke-linecap="butt"/><path d="M259.35,195.96389v-1.09259h19.13334v1.09259z" fill="url(#color-29)" stroke="url(#color-30)" stroke-width="0.5" stroke-linecap="butt"/><text transform="translate(201.08,170.56883) scale(0.21667,0.21667)" font-size="40" xml:space="preserve" fill="#ff0000" fill-rule="nonzero" stroke="none" stroke-width="1" stroke-linecap="butt" stroke-linejoin="miter" stroke-miterlimit="10" stroke-dasharray="" stroke-dashoffset="0" font-family="Serif" font-weight="normal" text-anchor="start" style="mix-blend-mode: normal"><tspan x="0" dy="0">Water Electrolysis</tspan></text><text transform="translate(200.3,195.63118) scale(0.12749,0.12749)" font-size="40" xml:space="preserve" fill="#ff0000" fill-rule="nonzero" stroke="none" stroke-width="1" stroke-linecap="butt" stroke-linejoin="miter" stroke-miterlimit="10" stroke-dasharray="" stroke-dashoffset="0" font-family="Serif" font-weight="normal" text-anchor="start" style="mix-blend-mode: normal"><tspan x="0" dy="0">1k R</tspan></text></g></g></svg>