<svg version="1.1" xmlns="http://www.w3.org/2000/svg" xmlns:xlink="http://www.w3.org/1999/xlink" width="142.18594" height="155.86831" viewBox="0,0,142.18594,155.86831"><defs><linearGradient x1="259.87539" y1="97.96372" x2="259.87539" y2="174.0427" gradientUnits="userSpaceOnUse" id="color-1"><stop offset="0" stop-color="#000000" stop-opacity="0"/><stop offset="1" stop-color="#000000" stop-opacity="0"/></linearGradient><linearGradient x1="191.29405" y1="26.07629" x2="192.19166" y2="61.81655" gradientUnits="userSpaceOnUse" id="color-2"><stop offset="0" stop-color="#4a4a4a" stop-opacity="0"/><stop offset="1" stop-color="#4a4a4a" stop-opacity="0.33725"/></linearGradient><linearGradient x1="193.64728" y1="24.48782" x2="192.46086" y2="63.13252" gradientUnits="userSpaceOnUse" id="color-3"><stop offset="0" stop-color="#292929" stop-opacity="0"/><stop offset="1" stop-color="#292929" stop-opacity="0.36863"/></linearGradient><linearGradient x1="195.62212" y1="27.18046" x2="191.79507" y2="62.58025" gradientUnits="userSpaceOnUse" id="color-4"><stop offset="0" stop-color="#383838" stop-opacity="0"/><stop offset="1" stop-color="#383838" stop-opacity="0.33333"/></linearGradient><linearGradient x1="192.97641" y1="28.57269" x2="192.22774" y2="61.55453" gradientUnits="userSpaceOnUse" id="color-5"><stop offset="0" stop-color="#4a4a4a" stop-opacity="0"/><stop offset="1" stop-color="#4a4a4a" stop-opacity="0.21176"/></linearGradient><linearGradient x1="263.55" y1="87.31351" x2="263.55" y2="175.64684" gradientUnits="userSpaceOnUse" id="color-6"><stop offset="0" stop-color="#5d5d5d"/><stop offset="1" stop-color="#474747"/></linearGradient><radialGradient cx="279.53333" cy="98.20195" r="11.83333" gradientUnits="userSpaceOnUse" id="color-7"><stop offset="0" stop-color="#939393"/><stop offset="1" stop-color="#393939"/></radialGradient><linearGradient x1="279.53333" y1="86.5626" x2="279.53333" y2="109.84129" gradientUnits="userSpaceOnUse" id="color-8"><stop offset="0" stop-color="#666666"/><stop offset="1" stop-color="#4f4f4f"/></linearGradient><linearGradient x1="240.37499" y1="173.1395" x2="240.37499" y2="180.21187" gradientUnits="userSpaceOnUse" id="color-9"><stop offset="0" stop-color="#348317"/><stop offset="1" stop-color="#3c5b0d"/></linearGradient><radialGradient cx="197.27832" cy="111.47476" r="37.63684" gradientUnits="userSpaceOnUse" id="color-10"><stop offset="0" stop-color="#939393"/><stop offset="1" stop-color="#535353"/></radialGradient><radialGradient cx="196.88931" cy="83.72849" r="37.63684" gradientUnits="userSpaceOnUse" id="color-11"><stop offset="0" stop-color="#393939"/><stop offset="1" stop-color="#1b1b1b"/></radialGradient><radialGradient cx="196.69481" cy="78.2143" r="32.09343" gradientUnits="userSpaceOnUse" id="color-12"><stop offset="0" stop-color="#373737"/><stop offset="1" stop-color="#1b1b1b"/></radialGradient><linearGradient x1="180.03919" y1="69.10837" x2="204.20995" y2="69.10837" gradientUnits="userSpaceOnUse" id="color-13"><stop offset="0" stop-color="#535353"/><stop offset="1" stop-color="#232323"/></linearGradient><radialGradient cx="218.50361" cy="90.86673" r="17.36636" gradientUnits="userSpaceOnUse" id="color-14"><stop offset="0" stop-color="#939393"/><stop offset="1" stop-color="#535353"/></radialGradient><radialGradient cx="236.16706" cy="98.76668" r="9.74286" gradientUnits="userSpaceOnUse" id="color-15"><stop offset="0" stop-color="#1d1d1d"/><stop offset="1" stop-color="#080808"/></radialGradient><linearGradient x1="236.16706" y1="89.02382" x2="236.16706" y2="108.50954" gradientUnits="userSpaceOnUse" id="color-16"><stop offset="0" stop-color="#ffffff"/><stop offset="1" stop-color="#a0a0a0"/></linearGradient><radialGradient cx="185.99995" cy="130.05951" r="50.77276" gradientUnits="userSpaceOnUse" id="color-17"><stop offset="0" stop-color="#adadad"/><stop offset="1" stop-color="#666666"/></radialGradient><radialGradient cx="192.42657" cy="144.99996" r="35.99484" gradientUnits="userSpaceOnUse" id="color-18"><stop offset="0" stop-color="#1e1e1e"/><stop offset="1" stop-color="#171717"/></radialGradient><linearGradient x1="282.6389" y1="101.3173" x2="276.75581" y2="95.28271" gradientUnits="userSpaceOnUse" id="color-19"><stop offset="0" stop-color="#644520"/><stop offset="1" stop-color="#5c401f"/></linearGradient><linearGradient x1="276.65608" y1="101.29963" x2="282.73865" y2="95.30037" gradientUnits="userSpaceOnUse" id="color-20"><stop offset="0" stop-color="#644520"/><stop offset="1" stop-color="#5c401f"/></linearGradient><linearGradient x1="279.66631" y1="102.54301" x2="279.72839" y2="94.05698" gradientUnits="userSpaceOnUse" id="color-21"><stop offset="0" stop-color="#644520"/><stop offset="1" stop-color="#5c401f"/></linearGradient><linearGradient x1="283.9394" y1="98.31268" x2="275.4553" y2="98.28734" gradientUnits="userSpaceOnUse" id="color-22"><stop offset="0" stop-color="#644520"/><stop offset="1" stop-color="#5c401f"/></linearGradient><linearGradient x1="302.5957" y1="121.01343" x2="256.79901" y2="75.58657" gradientUnits="userSpaceOnUse" id="color-23"><stop offset="0" stop-color="#e08200"/><stop offset="1" stop-color="#82491d"/></linearGradient><linearGradient x1="284.65726" y1="103.21986" x2="274.73744" y2="93.38014" gradientUnits="userSpaceOnUse" id="color-24"><stop offset="0" stop-color="#636363"/><stop offset="1" stop-color="#3a3a3a"/></linearGradient><linearGradient x1="284.65726" y1="103.21986" x2="274.73744" y2="93.38014" gradientUnits="userSpaceOnUse" id="color-25"><stop offset="0" stop-color="#adadad"/><stop offset="1" stop-color="#7e7e7e"/></linearGradient><radialGradient cx="231.06512" cy="97.71425" r="20.5" gradientUnits="userSpaceOnUse" id="color-26"><stop offset="0" stop-color="#454545"/><stop offset="1" stop-color="#2f2f2f"/></radialGradient><radialGradient cx="262.59736" cy="82.50951" r="6.16667" gradientUnits="userSpaceOnUse" id="color-27"><stop offset="0" stop-color="#939393"/><stop offset="1" stop-color="#454545"/></radialGradient><radialGradient cx="265.07241" cy="84.30237" r="6.16667" gradientUnits="userSpaceOnUse" id="color-28"><stop offset="0" stop-color="#636363"/><stop offset="1" stop-color="#232323"/></radialGradient></defs><g transform="translate(-171.50034,-24.34356)"><g data-paper-data="{&quot;isPaintingLayer&quot;:true}" fill-rule="nonzero" stroke-linejoin="miter" stroke-miterlimit="10" stroke-dasharray="" stroke-dashoffset="0" style="mix-blend-mode: normal"><path d="M236.92521,174.0427v-76.07898h44.2092l14.54429,76.75546z" fill-opacity="0.00392" fill="#ffffff" stroke="url(#color-1)" stroke-width="2.5" stroke-linecap="butt"/><path d="M184.53048,59.93494l-0.01149,-0.00802l-0.00692,-0.03209c-0.06829,-0.15601 -0.1093,-0.33593 -0.11415,-0.5287l-0.00947,-0.37703l0.02213,-0.13617l-0.00349,-0.13927l0.02728,-0.16791l-0.02099,-0.83602l-0.05966,-0.44612l0.00431,-0.08124l-0.01691,-0.07831l-0.00025,-0.01006l-0.00962,-0.03226l-0.06452,-0.12476l-0.04156,-0.14829l-0.27496,-0.67083l-0.01535,-0.07888l-0.03475,-0.06724l-0.08556,-0.30528l-0.05301,-0.09796l-0.04199,-0.14059l-0.06452,-0.12476l-0.18804,-0.6711l-0.01509,-0.1808l-0.03777,-0.17493l-0.00218,-0.08698l-0.03566,-0.16514l-0.00349,-0.13922l-0.02892,-0.13395l-0.00107,-0.04267l-0.01443,-0.05152l-0.01509,-0.1808l-0.03777,-0.17493l-0.03598,-1.43262l0.02213,-0.13617l-0.00349,-0.13927l0.02728,-0.16794l-0.00786,-0.31319l0.02213,-0.13617l-0.00349,-0.13927l0.04515,-0.27781l0.0442,-0.35295l0.02151,-0.0656l0.00235,-0.07143l0.08749,-0.38988l0.03884,-0.30999l0.02151,-0.06561l0.00236,-0.07143l0.08353,-0.3723l0.03682,-0.36688l0.04703,-0.15719l0.02358,-0.16616l0.12645,-0.36434l0.08146,-0.4308l0.0377,-0.09343l0.01477,-0.10415l0.45357,-1.30666l0.18799,-0.83774l0.04791,-0.10735l0.02442,-0.12035l0.12824,-0.30529l0.08121,-0.29674l0.03866,-0.07601l0.01794,-0.08851l0.16154,-0.38451l0.03068,-0.04339l0.01605,-0.0555l0.09858,-0.18647l0.17056,-0.62331l0.02026,-0.03982l0.00669,-0.04722l0.55999,-1.61327l0.11936,-0.53195l0.08429,-0.75485l0.0279,-0.08939l0.00517,-0.09649l0.17271,-0.6998l0.0298,-0.68531l0.01386,-0.05872l-0.00375,-0.06126l0.09281,-0.741l0.0845,-0.84216l0.0293,-0.88934l-0.06552,-2.60835l-0.05901,-0.53878l-0.10942,-0.50689l-0.12289,-0.50487l-0.00098,-0.01932l-0.0073,-0.01676l-0.04863,-0.22525l-0.10014,-0.30165l-0.00432,-0.03356l-0.01453,-0.02811l-0.08556,-0.30528l-0.05301,-0.09798l-0.02241,-0.07503l-0.01375,-0.00301l-0.06206,-0.12l-0.08579,-0.09091l-0.0058,-0.08621l-0.09528,-0.18429l-0.00828,-0.02958l-0.00077,-0.00156l-0.06491,-0.07299l-0.1197,-0.22118l-0.04199,-0.14057l-0.03936,-0.07618l-0.10576,-0.13089l-0.07463,-0.1528l-0.09292,-0.13409l-0.06079,-0.14829l-0.00847,-0.04347l-0.11914,-0.12627l-0.00377,-0.05626l-0.04719,-0.06811l-0.06079,-0.14829l-0.10989,-0.56483l0.12386,-0.26435l0.00523,-0.31096l0.32505,-0.39407l0.06305,-0.0452l0.00449,-0.01124l0.02364,-0.00894l0.02095,-0.01504l0.19038,-0.06481l0.18901,-0.07141l0.02382,-0.00104l0.02379,-0.00813l0.00816,0.00672l1.43589,-0.06311l0.451,-0.08643l0.38395,-0.08986l0.06142,0.00569l0.05921,-0.02237l0.29375,-0.01293l0.12485,-0.04718l0.10525,-0.00465l0.10127,-0.03826l0.11401,-0.00503l0.10297,0.02932l0.10525,-0.00462l0.2299,0.06536l0.08456,0.05494l0.09259,0.02301l0.12929,0.0785l0.05866,-0.02397l0.09609,0.07063l0.10746,0.03058l0.03433,0.07365l0.14695,0.10803l0.06608,0.02595l0.09838,0.07685l0.10882,0.04608l0.1748,0.14325l0.05939,0.08086l0.07448,0.05474l0.05592,0.06924l0.10279,0.08423l0.05939,0.08086l0.07448,0.05474l0.11779,0.14578l0.04625,0.09465l0.06491,0.07299l0.0201,0.03714l0.02935,0.02406l0.05939,0.08084l0.07448,0.05474l0.11778,0.14581l0.04625,0.0947l0.06493,0.07299l0.22554,0.41682l0.52087,0.85779l0.04724,0.13563l0.06911,0.1181l0.07799,0.23494l0.10772,0.1774l0.04724,0.13563l0.0691,0.1181l0.10917,0.32889l0.08895,0.21698l0.16264,0.33303l0.03041,0.11795l0.05319,0.10289l0.04156,0.14829l0.09259,0.22589l0.02349,0.1207l0.04705,0.10795l0.31386,1.4537l0.05126,0.18292l0.00368,0.04411l0.01676,0.03842l0.12012,0.55642l0.05126,0.18295l0.01509,0.18083l0.03777,0.17489l0.00406,0.16239l0.03566,0.1652l0.00069,0.02756l0.00955,0.02449l0.06647,0.37451l-0.00022,0.01876l0.00608,0.01691l0.05014,0.32994l0.08628,0.25998l0.01329,0.10321l0.03624,0.0931l0.06648,0.37447l-0.00021,0.0187l0.00607,0.01694l0.05513,0.36287l0.10203,0.36414l0.00746,0.08924l0.0291,0.08111l0.05513,0.36287l0.10203,0.36414l0.00592,0.07106l0.02476,0.06358l0.0543,0.3059l0.10686,0.38137l0.00368,0.0441l0.01676,0.03846l0.04862,0.22523l0.05464,0.16464l0.38836,0.63956l0.13353,0.12352l0.07117,0.10834l0.08844,0.08312l0.20666,0.31937l0.86333,1.06857l0.18387,0.17011l0.07978,0.12142l0.09688,0.09727l0.14051,0.23139l0.25008,0.30953l0.04623,0.0947l0.06491,0.07299l0.0344,0.06358l0.11361,0.1051l0.09501,0.1446l0.11037,0.12411l0.23936,0.44239l0.01987,0.06652l0.03652,0.05271l0.08481,0.2069l0.13027,0.21451l0.03255,0.09341l0.05254,0.07585l0.12158,0.29659l0.00906,0.0465l0.02222,0.03797l0.10917,0.32889l0.22619,0.55179l0.00906,0.04649l0.02222,0.03797l0.10917,0.32888l0.10461,0.2552l0.00906,0.04649l0.02222,0.03797l0.12347,0.372l0.00988,0.07674l0.0294,0.06746l0.02962,0.13721l0.11139,0.22804l0.03041,0.11795l0.05319,0.10289l0.12537,0.44738l0.00745,0.08924l0.02911,0.08109l0.04804,0.31626l0.14054,0.39685l0.02309,0.15614l0.04712,0.14636l0.0618,0.51451l0.10704,0.43971l0.00393,0.07817l0.02417,0.07153l0.13879,1.03764l0.06641,0.43702l-0.00334,0.09448l0.01964,0.09096l0.04168,1.65881l-0.01791,0.1102l0.00689,0.11237l-0.04754,0.37951l-0.02151,0.06561l-0.00236,0.07141l-0.06314,0.28138l0.00485,0.19348l-0.00722,0.0445l0.01381,0.03369l-0.05874,0.24275l-0.04051,0.2492l-0.02467,0.02013l-0.0105,0.04335l-0.03028,0.06458l-0.01827,0.11249l-0.06456,0.1738l-0.04464,0.18444l-0.04798,0.10238l-0.01872,0.08345l-0.05811,0.13014l-0.03484,0.14396l-0.08027,0.17131l-0.03099,0.08927l-0.08597,0.14198l-0.06681,0.15901l-0.49319,0.69727l-0.14396,0.3073l-0.0842,0.24257l-0.04367,0.0721l-0.00095,0.05646l-0.05934,0.07196l-0.00434,0.03071l-0.00994,0.02863l-0.00517,0.03176l-0.00818,0.00669l-0.18957,0.54616l-0.04367,0.0721l-0.00095,0.05645l-0.12503,0.15157l-0.04004,0.0661l-0.00027,0.01606l-0.03557,0.04311l-0.03015,0.04979l-0.0121,0.00144l-0.04721,0.05723l-0.04004,0.06611l-0.00028,0.01606l-0.03555,0.04311l-0.03015,0.04978l-0.0121,0.00145l-0.04721,0.05723l-0.10604,0.17507l-0.04251,0.005l-0.05149,0.06243l-0.1121,0.08042l-0.05963,0.0203l-0.05083,0.04601l-0.33822,0.16584l-0.11174,0.01633l-0.00393,0.00282l-0.19037,0.06481l-0.18901,0.07141l-0.02383,0.00104l-0.02379,0.00809l-0.00816,-0.00672l-0.03056,0.00131l-0.1488,0.04625l-0.11917,0.05844l-0.13669,0.01996l-0.13223,0.04995l-0.26026,0.01142l-0.03894,0.01909l-0.13669,0.01996l-0.13223,0.04995l-0.03227,0.00144l-0.03893,0.01909l-0.03334,0.0049l-0.02906,0.02219l-0.2261,0.08544l-0.10525,0.00462l-0.10127,0.03828l-0.20326,0.00894l-0.03894,0.01908l-0.03333,0.00485l-0.02906,0.02219l-0.22611,0.08544l-0.10526,0.00462l-0.10126,0.03828l-0.48534,0.02132l-0.20064,0.06229l-0.0852,-0.00164l-0.08194,0.03096l-7.01116,0.30812l-0.13444,-0.03823l-0.13739,-0.00791l-0.3458,-0.13579l-0.02106,-0.01645l-0.05223,0.0023l-0.00781,0.0074l-0.02414,-0.00602l-0.02383,0.00107l-0.19219,-0.05466l-0.1932,-0.04794l-0.02166,-0.01317l-0.02401,-0.00684l-0.00504,-0.0108l-0.06519,-0.03961l-0.3441,-0.36464l-0.03726,-0.55412l-0.0008,-0.00169l0.00058,-0.00144l-0.02323,-0.34545c-0.21183,-0.0725 -0.39274,-0.25002 -0.50779,-0.48934z" fill="url(#color-2)" stroke="none" stroke-width="0.5" stroke-linecap="butt"/><path d="M184.31082,60.29488l-0.01191,-0.00983l-0.00554,-0.03537c-0.06425,-0.17548 -0.09767,-0.37387 -0.09124,-0.58229l0.01251,-0.40766l0.03209,-0.14458l0.00463,-0.15056l0.03955,-0.1782l0.02776,-0.90398l-0.03747,-0.48745l0.00954,-0.08721l-0.01352,-0.08626l0.00033,-0.01088l-0.00844,-0.03582l-0.06207,-0.14139l-0.03589,-0.16433l-0.25612,-0.75253l-0.01181,-0.08669l-0.03344,-0.07619l-0.07387,-0.33832l-0.05126,-0.11123l-0.03682,-0.15607l-0.06207,-0.14137l-0.16238,-0.7437l-0.00539,-0.19661l-0.0302,-0.19267l0.00289,-0.09404l-0.02851,-0.18189l0.00463,-0.15056l-0.02312,-0.14754l0.00144,-0.04615l-0.01246,-0.0571l-0.00539,-0.19662l-0.0302,-0.19264l0.04755,-1.54904l0.03209,-0.14458l0.00463,-0.15059l0.03955,-0.17821l0.01041,-0.33862l0.03209,-0.14458l0.00463,-0.15056l0.06544,-0.29489l0.06895,-0.376l0.02715,-0.06851l0.00685,-0.07682l0.11787,-0.41128l0.06057,-0.33028l0.02716,-0.06851l0.00685,-0.07679l0.11256,-0.39277l0.06182,-0.39186l0.06021,-0.16457l0.03543,-0.17674l0.15838,-0.37965l0.11381,-0.45605l0.04631,-0.09685l0.0222,-0.11075l0.56799,-1.36156l0.25327,-0.88377l0.05815,-0.11068l0.03358,-0.12727l0.15673,-0.31571l0.10547,-0.31151l0.04628,-0.07794l0.0247,-0.09355l0.19741,-0.39772l0.03572,-0.04353l0.02065,-0.05819l0.11758,-0.19073l0.22154,-0.65432l0.02426,-0.04084l0.01007,-0.05017l0.70125,-1.68107l0.16081,-0.56115l0.13642,-0.8053l0.03549,-0.09347l0.01138,-0.10353l0.22848,-0.73658l0.07344,-0.73605l0.01847,-0.06188l-0.00036,-0.06649l0.14477,-0.7895l0.1419,-0.89943l0.08521,-0.95613l0.08658,-2.82033l-0.03116,-0.58732l-0.08748,-0.55828l-0.10212,-0.55748l0.00011,-0.02097l-0.00687,-0.01887l-0.03888,-0.2481l-0.08983,-0.33594l-0.00264,-0.03664l-0.01398,-0.03184l-0.07387,-0.33831l-0.05126,-0.11126l-0.01966,-0.0833l-0.01463,-0.00468l-0.0597,-0.13599l-0.08705,-0.10712l-0.00106,-0.0936l-0.09167,-0.20879l-0.00716,-0.03276l-0.00075,-0.00178l-0.06561,-0.0856l-0.11577,-0.25118l-0.0368,-0.15606l-0.03788,-0.08626l-0.10617,-0.15238l-0.07129,-0.17269l-0.09212,-0.15447l-0.05664,-0.16638l-0.0065,-0.04779l-0.1209,-0.14877l-0.00069,-0.06104l-0.0468,-0.07843l-0.05663,-0.16638l-0.08449,-0.62084l0.14955,-0.27208l0.0244,-0.33486l0.37436,-0.39074l0.07073,-0.04212l0.00552,-0.01165l0.02601,-0.00714l0.0235,-0.01399l0.20925,-0.04983l0.20818,-0.0571l0.02576,0.00135l0.02614,-0.00623l0.00839,0.00809l1.55258,0.08336l0.49166,-0.04564l0.41955,-0.05641l0.06592,0.01258l0.06522,-0.01786l0.31761,0.01709l0.13751,-0.0377l0.11383,0.0061l0.11153,-0.03061l0.12327,0.00662l0.10929,0.04242l0.11381,0.00613l0.24403,0.09476l0.08789,0.06821l0.09849,0.03455l0.1347,0.09834l0.06471,-0.01964l0.09939,0.0863l0.11407,0.04428l0.03258,0.08308l0.15199,0.13201l0.0697,0.03497l0.1015,0.09328l0.11461,0.06118l0.17989,0.17301l0.05917,0.09342l0.07705,0.0669l0.05616,0.08057l0.10579,0.10174l0.05916,0.09342l0.07703,0.06692l0.11826,0.16966l0.04417,0.10702l0.06561,0.0856l0.01945,0.04219l0.03022,0.02904l0.05917,0.09342l0.07703,0.06692l0.11826,0.16966l0.04417,0.10702l0.06561,0.0856l0.21815,0.47338l0.51011,0.98017l0.04277,0.15125l0.06741,0.13469l0.06994,0.26163l0.10549,0.20269l0.04277,0.15128l0.06741,0.13469l0.09792,0.36625l0.08287,0.24343l0.15535,0.37635l0.02569,0.13044l0.05118,0.11654l0.03589,0.16434l0.08626,0.25345l0.01806,0.13265l0.04427,0.12142l0.2509,1.60112l0.04427,0.20271l0.00131,0.04795l0.01575,0.04324l0.09603,0.61281l0.04427,0.20271l0.00538,0.19661l0.0302,0.19264l-0.00539,0.17556l0.02851,0.18186l-0.0009,0.02981l0.00883,0.02747l0.04912,0.41095l-0.00135,0.0202l0.00552,0.01887l0.03418,0.36121l0.07741,0.28953l0.00813,0.1127l0.03348,0.10424l0.04912,0.41095l-0.00135,0.0202l0.00552,0.01887l0.0376,0.39718l0.08812,0.40353l0.00265,0.09702l0.02651,0.09053l0.0376,0.39718l0.08812,0.40352l0.00212,0.07726l0.02286,0.07119l0.04012,0.33569l0.09226,0.42256l0.00131,0.04795l0.01576,0.04321l0.03887,0.2481l0.04902,0.18335l0.38031,0.73077l0.13658,0.14735l0.07026,0.12437l0.09038,0.09899l0.20364,0.36628l0.86679,1.24365l0.18805,0.20288l0.07875,0.13938l0.09866,0.11512l0.13761,0.2644l0.25108,0.36022l0.04417,0.107l0.06561,0.0856l0.03327,0.07219l0.11619,0.12535l0.09377,0.16601l0.11155,0.14553l0.23151,0.50242l0.01741,0.07383l0.03621,0.06073l0.07901,0.23211l0.12759,0.24514l0.02946,0.10422l0.05211,0.08734l0.11326,0.33272l0.00696,0.05113l0.02167,0.04328l0.09792,0.36628l0.21071,0.61904l0.00696,0.05108l0.02167,0.04332l0.09792,0.36625l0.09747,0.28633l0.00696,0.05108l0.02167,0.04328l0.11076,0.41429l0.00603,0.08382l0.02765,0.07583l0.02367,0.15109l0.1064,0.2577l0.02569,0.13047l0.05118,0.11654l0.10824,0.4958l0.00265,0.097l0.02651,0.09053l0.03276,0.34621l0.12767,0.44292l0.01548,0.17085l0.04199,0.16283l0.03563,0.5615l0.08895,0.48556l-0.00047,0.08474l0.02174,0.07969l0.08714,1.13385l0.04528,0.47836l-0.00929,0.10155l0.0157,0.10018l-0.05506,1.79363l-0.02596,0.117l0.00065,0.12189l-0.07415,0.40433l-0.02716,0.06852l-0.00685,0.07679l-0.08507,0.29684l-0.00642,0.2092l-0.01049,0.04725l0.01288,0.03783l-0.078,0.25563l-0.05873,0.26454l-0.02783,0.01913l-0.01394,0.04564l-0.03654,0.06649l-0.02648,0.11936l-0.08012,0.18068l-0.05927,0.1942l-0.05792,0.10537l-0.02522,0.08803l-0.07052,0.13425l-0.04626,0.15161l-0.09691,0.17633l-0.03881,0.09302l-0.10128,0.14411l-0.08164,0.16444l-0.574,0.70003l-0.1738,0.31626l-0.10546,0.25278l-0.05146,0.07316l-0.00444,0.06078l-0.06835,0.07131l-0.00654,0.0327l-0.01246,0.02986l-0.00749,0.03371l-0.00923,0.00634l-0.23738,0.56906l-0.05146,0.07316l-0.00444,0.06078l-0.14397,0.15031l-0.04716,0.06705l-0.00127,0.01729l-0.04095,0.04271l-0.03554,0.05053l-0.01312,0.00029l-0.05435,0.05676l-0.04716,0.06705l-0.00125,0.01729l-0.04095,0.04276l-0.03554,0.05053l-0.01312,0.00029l-0.05437,0.05676l-0.12492,0.17767l-0.04616,0.00089l-0.05931,0.06192l-0.12576,0.07491l-0.06555,0.0156l-0.05758,0.04421l-0.3748,0.1432l-0.1215,0.00582l-0.0044,0.0026l-0.20924,0.04983l-0.20818,0.0571l-0.02576,-0.00137l-0.02617,0.00623l-0.00839,-0.00807l-0.03304,-0.00177l-0.16327,0.03415l-0.13206,0.05046l-0.14865,0.00714l-0.14564,0.03996l-0.28141,-0.01511l-0.04316,0.01648l-0.14865,0.00714l-0.14564,0.03995l-0.03486,-0.00189l-0.04316,0.01648l-0.03625,0.00176l-0.03268,0.02083l-0.24903,0.06829l-0.11381,-0.0061l-0.11155,0.03061l-0.21978,-0.01181l-0.04316,0.01648l-0.03625,0.00174l-0.03268,0.02087l-0.24903,0.06829l-0.11381,-0.00613l-0.11155,0.03061l-0.52479,-0.02817l-0.22018,0.04603l-0.09179,-0.01076l-0.09024,0.02476l-7.58093,-0.40724l-0.14272,-0.05545l-0.14771,-0.02303l-0.3648,-0.1829l-0.02173,-0.01996l-0.05646,-0.00304l-0.00888,0.00714l-0.02569,-0.00903l-0.02576,-0.00139l-0.20398,-0.07919l-0.2055,-0.0721l-0.02259,-0.01646l-0.02549,-0.00994l-0.00479,-0.0122l-0.0679,-0.04958l-0.34917,-0.42959l-0.00678,-0.60158l-0.00075,-0.00193l0.00071,-0.00152l-0.00422,-0.37506c-0.22412,-0.10055 -0.40854,-0.31111 -0.51821,-0.58135z" fill="url(#color-3)" stroke="none" stroke-width="0.5" stroke-linecap="butt"/><path d="M184.49926,58.96053l-0.01026,-0.01054l-0.00259,-0.03325c-0.04667,-0.16938 -0.06336,-0.35597 -0.04271,-0.54693l0.04036,-0.3734l0.03976,-0.12902l0.01492,-0.13788l0.04901,-0.15905l0.08951,-0.82805l0.00004,-0.45304l0.01494,-0.07901l-0.00632,-0.08101l0.00109,-0.00996l-0.00523,-0.03398l-0.04709,-0.13774l-0.02137,-0.15561l-0.18233,-0.72396l-0.00472,-0.08121l-0.02537,-0.07422l-0.04399,-0.32036l-0.03928,-0.10869l-0.0228,-0.14811l-0.04709,-0.13774l-0.09671,-0.70418l0.00897,-0.18154l-0.01415,-0.18095l0.00932,-0.08616l-0.01333,-0.17083l0.01492,-0.1379l-0.01083,-0.13861l0.00456,-0.04226l-0.00742,-0.05401l0.00897,-0.18155l-0.01413,-0.18095l0.1534,-1.41897l0.03975,-0.12902l0.01492,-0.13788l0.049,-0.15905l0.03352,-0.31016l0.03976,-0.12902l0.01492,-0.13788l0.08106,-0.26312l0.09005,-0.33735l0.02982,-0.05964l0.01173,-0.0698l0.13753,-0.36375l0.07911,-0.29632l0.02981,-0.05964l0.01173,-0.06982l0.13134,-0.34733l0.08461,-0.35279l0.06702,-0.14391l0.0451,-0.1582l0.17255,-0.32956l0.13698,-0.40539l0.04943,-0.08333l0.02827,-0.09914l0.61884,-1.18207l0.29552,-0.78156l0.06132,-0.09462l0.03992,-0.11292l0.1665,-0.27099l0.11908,-0.27346l0.0481,-0.0659l0.02934,-0.08303l0.20974,-0.34132l0.03594,-0.03566l0.02312,-0.05094l0.12164,-0.16087l0.25011,-0.57441l0.0252,-0.03455l0.01281,-0.04494l0.76405,-1.45942l0.18764,-0.49625l0.1825,-0.72389l0.03925,-0.0816l0.0178,-0.0938l0.26232,-0.64929l0.11966,-0.66794l0.02137,-0.05462l0.0044,-0.0612l0.18906,-0.70829l0.19419,-0.80975l0.14608,-0.86893l0.27931,-2.58354l0.0129,-0.54408l-0.04094,-0.52438l-0.05447,-0.52548l0.00159,-0.01922l-0.00499,-0.01822l-0.0182,-0.23302l-0.05882,-0.32016l0.00017,-0.03403l-0.0106,-0.03098l-0.044,-0.32036l-0.03928,-0.10871l-0.01218,-0.07907l-0.01312,-0.00614l-0.04528,-0.13248l-0.07249,-0.10927l0.00564,-0.08622l-0.06955,-0.20341l-0.00426,-0.03103l-0.00057,-0.00176l-0.0543,-0.0869l-0.08868,-0.24542l-0.02282,-0.14811l-0.02872,-0.08405l-0.08687,-0.1533l-0.05334,-0.16768l-0.07381,-0.15348l-0.04031,-0.16005l-0.00259,-0.04478l-0.10067,-0.15179l0.00368,-0.05626l-0.03749,-0.07796l-0.04033,-0.16006l-0.03374,-0.58154l0.1568,-0.23178l0.04614,-0.30498l0.37201,-0.31303l0.06805,-0.02998l0.0059,-0.01003l0.02446,-0.00335l0.02262,-0.00996l0.19599,-0.0199l0.19554,-0.02674l0.0236,0.0045l0.02449,-0.00248l0.00716,0.00849l1.42222,0.26905l0.45547,0.01891l0.38992,0.00007l0.05973,0.01978l0.06124,-0.00837l0.29095,0.05505l0.12914,-0.01763l0.10426,0.01969l0.10476,-0.0143l0.11292,0.02134l0.09751,0.05261l0.10425,0.01969l0.21776,0.11741l0.07602,0.07365l0.08815,0.04398l0.11695,0.10712l0.06091,-0.01006l0.08529,0.09172l0.1018,0.05484l0.02408,0.08046l0.13048,0.14028l0.06163,0.0408l0.08675,0.0984l0.10108,0.07047l0.15322,0.18141l0.04781,0.09331l0.06612,0.07109l0.04596,0.08111l0.09011,0.10666l0.04781,0.09331l0.06612,0.07109l0.09677,0.17071l0.03305,0.10389l0.0543,0.0869l0.01489,0.04122l0.02575,0.03045l0.04781,0.09331l0.06612,0.07109l0.09677,0.17076l0.03305,0.10389l0.0543,0.0869l0.16715,0.46247l0.39983,0.96478l0.02864,0.14444l0.05247,0.13223l0.04582,0.24937l0.08268,0.19953l0.02864,0.14444l0.05247,0.13223l0.06414,0.34904l0.05899,0.23422l0.11626,0.36542l0.0144,0.12314l0.03881,0.11356l0.02137,0.1556l0.06141,0.2438l0.00721,0.12426l0.03211,0.11715l0.11744,1.50385l0.02637,0.19196l-0.00219,0.04428l0.01143,0.04169l0.04494,0.57561l0.02637,0.19197l-0.00897,0.18154l0.01413,0.18096l-0.01739,0.16083l0.01335,0.17085l-0.00295,0.02727l0.00617,0.02635l0.0161,0.3841l-0.00268,0.0184l0.00376,0.01806l0.00588,0.33649l0.0507,0.27591l-0.00051,0.1047l0.02341,0.10001l0.0161,0.3841l-0.00268,0.0184l0.00375,0.01806l0.00648,0.37l0.05247,0.38211l-0.00443,0.08959l0.01798,0.08657l0.00646,0.37l0.05247,0.38212l-0.00353,0.07135l0.016,0.0683l0.01314,0.31378l0.05497,0.4001l-0.00218,0.04427l0.01142,0.04171l0.0182,0.23301l0.03209,0.17472l0.2981,0.71933l0.1152,0.15245l0.05581,0.12309l0.07613,0.10229l0.1614,0.36211l0.70926,1.25133l0.15861,0.2099l0.06256,0.13797l0.08258,0.1181l0.10784,0.26021l0.20544,0.36245l0.03305,0.10391l0.0543,0.08686l0.02548,0.0705l0.098,0.12967l0.0745,0.16432l0.09229,0.14765l0.1774,0.49084l0.0108,0.07008l0.02901,0.06034l0.05624,0.22324l0.09999,0.2413l0.01972,0.0995l0.04174,0.08678l0.08062,0.3201l0.00277,0.04789l0.01688,0.04253l0.06414,0.34903l0.15,0.59553l0.00277,0.04789l0.01688,0.04253l0.06414,0.34904l0.06938,0.27542l0.00277,0.04789l0.01688,0.04252l0.07255,0.39477l-0.00039,0.07783l0.02007,0.0732l0.01108,0.14191l0.07961,0.25024l0.0144,0.12315l0.03881,0.11357l0.06448,0.46946l-0.00443,0.08959l0.01798,0.08654l0.00562,0.32253l0.08609,0.42322l0.00215,0.15906l0.0271,0.15498l-0.00697,0.52089l0.04744,0.45769l-0.00643,0.07785l0.01436,0.07597l-0.00012,1.0538l0.00778,0.44561l-0.01574,0.09226l0.00736,0.09409l-0.17762,1.64303l-0.03216,0.10437l-0.00804,0.1122l-0.09683,0.36271l-0.02981,0.05966l-0.01173,0.0698l-0.09926,0.26249l-0.02072,0.19161l-0.01298,0.04216l0.00915,0.03636l-0.08984,0.22552l-0.07273,0.23603l-0.02695,0.01415l-0.01605,0.0403l-0.03831,0.05662l-0.03282,0.10653l-0.08649,0.15627l-0.06827,0.17131l-0.06074,0.08974l-0.02942,0.07783l-0.07437,0.11473l-0.05327,0.13372l-0.10162,0.15018l-0.04229,0.08076l-0.10338,0.11999l-0.08674,0.14113l-0.57754,0.57283l-0.18227,0.26938l-0.1149,0.21945l-0.05251,0.06096l-0.00838,0.05533l-0.0679,0.05715l-0.00834,0.02924l-0.01357,0.02594l-0.00927,0.03006l-0.00892,0.00468l-0.25864,0.49404l-0.05251,0.06096l-0.00838,0.05533l-0.14308,0.1204l-0.04813,0.05586l-0.00238,0.01575l-0.04071,0.03426l-0.03625,0.0421l-0.01211,-0.00137l-0.05401,0.04547l-0.04814,0.05586l-0.00238,0.01575l-0.04071,0.03424l-0.03627,0.04211l-0.0121,-0.00139l-0.05402,0.04547l-0.12749,0.14792l-0.04252,-0.0049l-0.05893,0.0496l-0.12099,0.05331l-0.06139,0.00627l-0.05611,0.03356l-0.3549,0.08531l-0.11216,-0.00968l-0.00423,0.00183l-0.19599,0.0199l-0.19553,0.02674l-0.02361,-0.00446l-0.0245,0.00246l-0.00716,-0.00849l-0.03027,-0.00572l-0.15261,0.01119l-0.12505,0.03003l-0.13722,-0.01187l-0.13679,0.01869l-0.25778,-0.04878l-0.04086,0.00982l-0.13723,-0.01187l-0.13677,0.01868l-0.03196,-0.00604l-0.04086,0.0098l-0.03346,-0.00288l-0.03152,0.01511l-0.23391,0.03197l-0.10426,-0.01969l-0.10476,0.0143l-0.20132,-0.03808l-0.04084,0.00982l-0.03348,-0.00289l-0.03155,0.01513l-0.2339,0.03197l-0.10426,-0.01969l-0.10476,0.0143l-0.48073,-0.09093l-0.20576,0.01507l-0.08369,-0.02121l-0.08475,0.01156l-6.94438,-1.31365l-0.12736,-0.06866l-0.13423,-0.03947l-0.32261,-0.21345l-0.01857,-0.02109l-0.05172,-0.00974l-0.00866,0.00546l-0.023,-0.01148l-0.0236,-0.00446l-0.18203,-0.09814l-0.18391,-0.09179l-0.0196,-0.01798l-0.02276,-0.01226l-0.00353,-0.01181l-0.05896,-0.05405l-0.29076,-0.43841l0.03635,-0.5542l-0.00057,-0.00186l0.00076,-0.0013l0.02266,-0.34549c-0.19904,-0.12028 -0.35378,-0.33676 -0.4355,-0.59895z" fill="url(#color-4)" stroke="none" stroke-width="0.5" stroke-linecap="butt"/><path d="M185.25562,59.23094l-0.01023,-0.00828l-0.00498,-0.03006c-0.056,-0.14892 -0.08586,-0.31779 -0.08182,-0.49569l0.0079,-0.34789l0.02639,-0.12374l0.00292,-0.1285l0.03254,-0.15251l0.01751,-0.77148l-0.03529,-0.41541l0.00755,-0.07449l-0.01212,-0.07343l0.00022,-0.00927l-0.00745,-0.03045l-0.0539,-0.11987l-0.03174,-0.13977l-0.22364,-0.63893l-0.01066,-0.07384l-0.02905,-0.06456l-0.06532,-0.28776l-0.0445,-0.09431l-0.03248,-0.1327l-0.0539,-0.11987l-0.14358,-0.63253l-0.00592,-0.16766l-0.02706,-0.16397l0.00181,-0.08029l-0.02557,-0.15483l0.00292,-0.1285l-0.02073,-0.12558l0.00089,-0.03935l-0.01102,-0.04857l-0.00592,-0.16766l-0.02707,-0.16402l0.03,-1.32207l0.02639,-0.12371l0.00293,-0.1285l0.03252,-0.15251l0.00657,-0.28899l0.02639,-0.12374l0.00293,-0.1285l0.05382,-0.25233l0.05627,-0.32163l0.02271,-0.05879l0.00532,-0.06561l0.09774,-0.3523l0.04942,-0.28246l0.0227,-0.05879l0.00532,-0.06561l0.09334,-0.3364l0.05007,-0.335l0.05025,-0.14113l0.02903,-0.15117l0.13252,-0.32574l0.09399,-0.39044l0.03884,-0.08321l0.01819,-0.09474l0.47527,-1.16831l0.21003,-0.75696l0.04884,-0.09513l0.02781,-0.10897l0.13154,-0.27122l0.08786,-0.267l0.03895,-0.06701l0.02045,-0.08011l0.16569,-0.34165l0.03017,-0.0376l0.01722,-0.04984l0.09899,-0.16411l0.18454,-0.56085l0.02043,-0.03509l0.00825,-0.04293l0.58679,-1.44247l0.13337,-0.48064l0.11088,-0.68862l0.02964,-0.08013l0.009,-0.08847l0.1899,-0.63115l0.05764,-0.62878l0.01534,-0.05298l-0.00076,-0.05673l0.11813,-0.67525l0.11494,-0.76897l0.06618,-0.81668l0.05464,-2.40706l-0.03059,-0.50068l-0.07843,-0.4752l-0.09093,-0.47439l-0.00004,-0.01785l-0.00599,-0.01599l-0.03485,-0.21118l-0.0789,-0.28552l-0.0025,-0.0312l-0.01213,-0.02696l-0.06534,-0.28776l-0.04449,-0.09429l-0.01733,-0.07081l-0.01252,-0.00386l-0.05185,-0.1153l-0.075,-0.09037l-0.00153,-0.07984l-0.07963,-0.17703l-0.00632,-0.02787l-0.00066,-0.00153l-0.05656,-0.07223l-0.10046,-0.2129l-0.03248,-0.1327l-0.03289,-0.07316l-0.09161,-0.1287l-0.06198,-0.14646l-0.07966,-0.13066l-0.04945,-0.14122l-0.00587,-0.04071l-0.10417,-0.12548l-0.001,-0.05207l-0.04046,-0.06636l-0.04945,-0.14122l-0.07629,-0.52862l0.12572,-0.23391l0.01852,-0.28595l0.3167,-0.3378l0.06004,-0.03678l0.00463,-0.01001l0.02214,-0.00638l0.01997,-0.01224l0.17816,-0.04498l0.17721,-0.05119l0.022,0.00086l0.02226,-0.00561l0.00722,0.00683l1.32507,0.05263l0.41913,-0.04482l0.35753,-0.05312l0.05632,0.00997l0.0555,-0.01606l0.27108,0.01078l0.11705,-0.03383l0.09712,0.00386l0.09494,-0.02745l0.1052,0.0042l0.09353,0.03489l0.09712,0.00386l0.20884,0.07796l0.07544,0.05715l0.08425,0.0283l0.11559,0.08226l0.05506,-0.01752l0.08538,0.07244l0.09761,0.03642l0.02835,0.07047l0.13058,0.11081l0.0597,0.02901l0.08721,0.07841l0.09817,0.05084l0.15465,0.14543l0.05111,0.07901l0.06618,0.05618l0.04847,0.06807l0.09094,0.08554l0.05113,0.07901l0.06616,0.05615l0.10204,0.14333l0.03841,0.09073l0.05657,0.07223l0.01688,0.03577l0.02596,0.02443l0.05111,0.07901l0.06618,0.05615l0.10204,0.14333l0.03841,0.09073l0.05657,0.07223l0.18932,0.40126l0.44185,0.83009l0.03753,0.12856l0.05843,0.11408l0.06147,0.22238l0.09138,0.17167l0.03753,0.12857l0.05844,0.11407l0.08602,0.31128l0.07235,0.20672l0.13509,0.31918l0.02282,0.11098l0.04444,0.09885l0.03174,0.13977l0.07531,0.21516l0.01632,0.11295l0.03859,0.10303l0.22495,1.3629l0.03914,0.17242l0.00146,0.0409l0.01375,0.03671l0.0861,0.52168l0.03916,0.17242l0.00592,0.16768l0.02707,0.164l-0.00341,0.14983l0.02557,0.15485l-0.00059,0.02543l0.00773,0.02333l0.0447,0.35002l-0.00101,0.01724l0.00484,0.01606l0.03164,0.30775l0.06801,0.24609l0.00768,0.09608l0.02926,0.08851l0.0447,0.34998l-0.001,0.01724l0.00484,0.01606l0.03479,0.33839l0.07791,0.3432l0.00294,0.08271l0.02323,0.07694l0.03479,0.33837l0.07791,0.34319l0.00234,0.06595l0.01998,0.06043l0.03653,0.28587l0.08159,0.35943l0.00146,0.0409l0.01374,0.03668l0.03486,0.21119l0.04306,0.15582l0.32943,0.61887l0.11752,0.12409l0.06078,0.10523l0.07777,0.08338l0.17623,0.31003l0.74793,1.05062l0.16182,0.17084l0.06815,0.118l0.08493,0.09702l0.1192,0.22391l0.21664,0.30431l0.03841,0.09073l0.05657,0.07223l0.02887,0.0612l0.09998,0.10554l0.08115,0.1405l0.09615,0.1228l0.20094,0.42586l0.01536,0.06277l0.03131,0.05137l0.06898,0.19705l0.11051,0.2076l0.02585,0.08855l0.04505,0.07387l0.09887,0.2825l0.00628,0.04351l0.01879,0.03667l0.08603,0.31133l0.18397,0.52561l0.00628,0.0435l0.01879,0.03667l0.08603,0.31129l0.08509,0.2431l0.00628,0.0435l0.01879,0.03667l0.09731,0.35209l0.00572,0.07143l0.02411,0.06437l0.02122,0.12862l0.09252,0.21861l0.0228,0.11098l0.04445,0.09885l0.09573,0.42168l0.00293,0.08271l0.02323,0.07689l0.03032,0.29494l0.11193,0.37629l0.01439,0.14555l0.03693,0.13843l0.03424,0.47853l0.0792,0.41322l0.00017,0.07227l0.01909,0.06774l0.08206,0.96626l0.04189,0.40755l-0.00722,0.08675l0.01407,0.08526l-0.03474,1.53081l-0.02134,0.10011l0.00137,0.104l-0.0605,0.34582l-0.02271,0.05874l-0.00532,0.0656l-0.07055,0.25424l-0.00405,0.17856l-0.00862,0.04042l0.01123,0.03209l-0.06482,0.21903l-0.04828,0.22636l-0.02361,0.01661l-0.01158,0.03912l-0.03071,0.05715l-0.0218,0.10216l-0.06711,0.15508l-0.04923,0.16639l-0.04869,0.0906l-0.02092,0.07538l-0.05925,0.11538l-0.03843,0.12986l-0.08147,0.15161l-0.03248,0.07984l-0.08543,0.12411l-0.06852,0.14127l-0.4849,0.60403l-0.14612,0.27191l-0.08822,0.21688l-0.0434,0.06302l-0.00336,0.05191l-0.05784,0.06166l-0.00535,0.02795l-0.01043,0.02563l-0.00617,0.02889l-0.0078,0.00549l-0.19864,0.4883l-0.0434,0.06303l-0.00336,0.05188l-0.12181,0.1299l-0.03977,0.05779l-0.00096,0.01477l-0.03466,0.03694l-0.02998,0.04353l-0.0112,0.00037l-0.04598,0.04903l-0.03977,0.05779l-0.00098,0.01477l-0.03465,0.03694l-0.02998,0.04353l-0.0112,0.00037l-0.04601,0.04903l-0.10535,0.15304l-0.03937,0.0013l-0.05017,0.05351l-0.10678,0.06542l-0.05581,0.01409l-0.04882,0.03842l-0.31878,0.12666l-0.1036,0.0064l-0.00374,0.00228l-0.17816,0.04498l-0.1772,0.05119l-0.022,-0.00087l-0.02227,0.00561l-0.00721,-0.00681l-0.02821,-0.00112l-0.13905,0.03108l-0.11232,0.04463l-0.12675,0.00783l-0.12398,0.03578l-0.24017,-0.00955l-0.0367,0.01457l-0.12675,0.00783l-0.12397,0.03578l-0.02977,-0.00117l-0.0367,0.01457l-0.03092,0.00193l-0.02774,0.01817l-0.212,0.0612l-0.09712,-0.00386l-0.09494,0.02745l-0.18757,-0.00748l-0.0367,0.01457l-0.03092,0.00192l-0.02774,0.0182l-0.21199,0.06124l-0.09712,-0.00386l-0.09494,0.02742l-0.44789,-0.01778l-0.18752,0.04191l-0.07838,-0.00809l-0.07682,0.02219l-6.47004,-0.25697l-0.12212,-0.04557l-0.12616,-0.01787l-0.31245,-0.15172l-0.01868,-0.01676l-0.0482,-0.00192l-0.00751,0.00623l-0.02197,-0.00738l-0.022,-0.00087l-0.17456,-0.06517l-0.1758,-0.05903l-0.01937,-0.01378l-0.02183,-0.00814l-0.00416,-0.01036l-0.05826,-0.04151l-0.3008,-0.36233l-0.0099,-0.51313l-0.00066,-0.00164l0.0006,-0.00131l-0.00617,-0.31992c-0.19187,-0.08309 -0.35064,-0.26051 -0.44603,-0.48975z" fill="url(#color-5)" stroke="none" stroke-width="0.5" stroke-linecap="butt"/><path d="M284.07207,123.95261l-13.47354,-0.17578" fill="none" stroke="#666666" stroke-width="5" stroke-linecap="round"/><path d="M286.34472,136.78489l-21.4278,-0.17578" fill="none" stroke="#666666" stroke-width="5" stroke-linecap="round"/><path d="M259.88463,150.49611h28.73274" fill="none" stroke="#666666" stroke-width="5" stroke-linecap="round"/><path d="M291.05234,164.55889l-36.2,0.17578" fill="none" stroke="#666666" stroke-width="5" stroke-linecap="round"/><path d="M247.775,173.44684l32.56463,-77.13333l15.58537,79.33333" fill="none" stroke="url(#color-6)" stroke-width="5" stroke-linecap="round"/><path d="M291.36667,98.20195c0,6.42823 -5.29796,11.63934 -11.83333,11.63934c-6.53537,0 -11.83333,-5.21111 -11.83333,-11.63934c0,-6.42823 5.29796,-11.63934 11.83333,-11.63934c6.53537,0 11.83333,5.21111 11.83333,11.63934z" fill="url(#color-7)" stroke="url(#color-8)" stroke-width="2.5" stroke-linecap="butt"/><path d="M171.50034,180.21187v-7.07226h137.74932v7.07226z" fill="#312d29" stroke="url(#color-9)" stroke-width="0" stroke-linecap="butt"/><path d="M174.32666,171.83634v-75.27368c0,0 20.78146,0 31.31541,0c10.72844,0 32.48244,0 32.48244,0v75.27368c0,0 -9.62345,3.59201 -31.89343,4.0077c-23.38487,0.4365 -31.90442,-4.0077 -31.90442,-4.0077z" fill="url(#color-10)" stroke="none" stroke-width="0" stroke-linecap="butt"/><path d="M173.93765,97.12601v-16.70732h63.79785v16.70732c0,0 -8.65642,3.97004 -30.9264,4.0623c-23.38487,0.09688 -32.87145,-4.0623 -32.87145,-4.0623z" fill="url(#color-11)" stroke="none" stroke-width="0" stroke-linecap="butt"/><path d="M238.31901,80.71045c0,3.06154 -14.36872,4.94341 -32.09343,4.94341c-17.72472,0 -32.09343,-1.88187 -32.09343,-4.94341c0,-3.06154 14.36872,-5.54341 32.09343,-5.54341c17.72472,0 32.09343,2.48187 32.09343,5.54341z" fill="url(#color-12)" stroke="none" stroke-width="0" stroke-linecap="butt"/><path d="M180.03919,80.62195c0,0 0.27112,-6.54174 1.08146,-10.38605c0.29678,-1.4079 3.60741,-2.65864 4.23461,-4.72813c0.29398,-0.96999 -0.66442,-1.54737 -0.67958,-2.5304c-0.03995,-2.59045 0.59052,-2.2484 0.59052,-2.2484l13.64254,0.0315c0,0 0.31754,-0.81958 0.46052,2.21683c0.03381,0.71821 -1.08238,1.87498 -0.87495,2.60522c0.49979,1.75943 3.90032,3.36172 4.17494,4.59322c0.84008,3.76741 1.54074,10.44624 1.54074,10.44624c0,0 -5.88996,1.71443 -12.02652,1.59251c-5.96994,-0.11861 -12.14423,-1.59251 -12.14423,-1.59251z" fill="url(#color-13)" stroke="none" stroke-width="0" stroke-linecap="butt"/><path d="M219.33427,89.42722c6.00707,0.00627 12.82367,-0.03542 12.82367,-0.03542c0,0 8.70302,-0.31469 8.77925,8.84478c-0.32504,8.96069 -8.8305,9.46415 -8.8305,9.46415c0,0 -7.78529,0.17075 -12.81027,0.1655c-7.24042,-0.00756 -13.00714,-1.3829 -13.09101,-9.23319c-0.08752,-8.19256 5.88844,-9.21338 13.12884,-9.20582z" fill="url(#color-14)" stroke="none" stroke-width="0" stroke-linecap="butt"/><path d="M231.40388,98.76668c0,-5.38083 2.13255,-9.74286 4.76318,-9.74286c2.63063,0 4.76318,4.36202 4.76318,9.74286c0,5.38083 -2.13255,9.74286 -4.76318,9.74286c-2.63063,0 -4.76318,-4.36202 -4.76318,-9.74286z" fill="url(#color-15)" stroke="url(#color-16)" stroke-width="1.5" stroke-linecap="butt"/><path d="M239.42434,145.16855c0,12.43105 0.17643,26.53718 0.17643,26.53718c0,0 0.11245,4.45869 -32.99656,4.65536c-32.39201,-0.63457 -33.18606,-4.68364 -33.18606,-4.68364c0,0 -0.6466,-16.11016 -0.6466,-26.50889c0,-14.98335 4.94977,-26.92288 33.3264,-27.12975c29.61384,-0.2159 33.3264,12.1464 33.3264,27.12975z" fill="url(#color-17)" stroke="none" stroke-width="0" stroke-linecap="butt"/><path d="M230.30126,155.57315c0,8.69916 0.12509,19.25116 0.12509,19.25116c0,0 -0.06314,1.69914 -23.53545,1.83676c-22.96399,-0.44407 -23.58558,-1.90333 -23.58558,-1.90333c0,0 -0.25689,-11.90764 -0.25689,-19.18459c0,-10.48524 3.50909,-18.84043 23.62642,-18.9852c20.99444,-0.15109 23.62642,8.49996 23.62642,18.9852z" fill="url(#color-18)" stroke="none" stroke-width="0" stroke-linecap="butt"/><g><path d="M301.85843,76.25525l-44.32214,44.08946" fill="none" stroke="url(#color-19)" stroke-width="3.5" stroke-linecap="round"/><path d="M257.83483,76.55509l43.72508,43.48982" fill="none" stroke="url(#color-20)" stroke-width="3.5" stroke-linecap="round"/><path d="M248.65165,98.79895l62.0914,-0.9979" fill="none" stroke="url(#color-21)" stroke-width="3.5" stroke-linecap="round"/><path d="M279.91006,67.25148l-0.42542,62.09704" fill="none" stroke="url(#color-22)" stroke-width="3.5" stroke-linecap="round"/><path d="M256.79901,75.58657c12.53352,-12.63556 32.94589,-12.70955 45.59228,-0.16528c12.64641,12.54428 12.73791,32.95658 0.20439,45.59214c-12.53352,12.63556 -32.9459,12.70955 -45.5923,0.16528c-12.64641,-12.54428 -12.73791,-32.95658 -0.20438,-45.59213z" fill="none" stroke="url(#color-23)" stroke-width="3.5" stroke-linecap="butt"/><path d="M274.73744,93.38014c2.6896,-2.71149 7.09057,-2.70691 9.82987,0.01025c2.73929,2.71716 2.77955,7.11796 0.08996,9.82945c-2.6896,2.71149 -7.09057,2.70691 -9.82986,-0.01026c-2.73929,-2.71716 -2.77957,-7.11796 -0.08997,-9.82946z" fill="url(#color-24)" stroke="url(#color-25)" stroke-width="1" stroke-linecap="butt"/></g><path d="M238.59477,98.49522l21.30163,-11.61524" fill="none" stroke="url(#color-26)" stroke-width="6" stroke-linecap="round"/><path d="M270.50636,81.38689c2.97478,5.60942 -0.42354,5.05032 -3.42463,6.66049c-3.0011,1.61018 -6.11112,1.11763 -7.2964,-0.90833c-2.28094,-3.89876 1.03246,-4.62045 4.03353,-6.23064c3.0011,-1.61018 3.71454,-5.12751 6.6875,0.47847z" fill="url(#color-27)" stroke="url(#color-28)" stroke-width="0" stroke-linecap="butt"/></g></g></svg>