<svg version="1.1" xmlns="http://www.w3.org/2000/svg" xmlns:xlink="http://www.w3.org/1999/xlink" width="85.65668" height="85.65668" viewBox="0,0,85.65668,85.65668"><defs><radialGradient cx="239.99994" cy="180" r="42.82833" gradientUnits="userSpaceOnUse" id="color-1"><stop offset="0" stop-color="#734545" stop-opacity="0.30998"/><stop offset="1" stop-color="#734545" stop-opacity="0"/></radialGradient><radialGradient cx="239.99994" cy="180" r="34.77044" gradientUnits="userSpaceOnUse" id="color-2"><stop offset="0" stop-color="#eb7373" stop-opacity="0.62996"/><stop offset="1" stop-color="#eb7373" stop-opacity="0"/></radialGradient><radialGradient cx="239.99994" cy="180" r="29.43598" gradientUnits="userSpaceOnUse" id="color-3"><stop offset="0" stop-color="#ff4f4f"/><stop offset="1" stop-color="#ff4f4f" stop-opacity="0"/></radialGradient><radialGradient cx="239.99994" cy="180" r="24.20537" gradientUnits="userSpaceOnUse" id="color-4"><stop offset="0" stop-color="#ea3939"/><stop offset="1" stop-color="#bd4b4b"/></radialGradient></defs><g transform="translate(-197.17166,-137.17166)"><g data-paper-data="{&quot;isPaintingLayer&quot;:true}" fill-rule="nonzero" stroke="none" stroke-width="0.5" stroke-linecap="butt" stroke-linejoin="miter" stroke-miterlimit="10" stroke-dasharray="" stroke-dashoffset="0" style="mix-blend-mode: normal"><path d="M197.17166,180c0,-23.65334 19.17486,-42.82834 42.82834,-42.82834c23.65335,0 42.82834,19.17486 42.82834,42.82834c0,23.65335 -19.17487,42.82834 -42.82834,42.82834c-23.65334,0 -42.82834,-19.17486 -42.82834,-42.82834z" fill="url(#color-1)"/><path d="M205.22956,180c0,-19.2031 15.56721,-34.77044 34.77044,-34.77044c19.2031,0 34.77044,15.56721 34.77044,34.77044c0,19.2031 -15.56721,34.77044 -34.77044,34.77044c-19.2031,0 -34.77044,-15.56721 -34.77044,-34.77044z" fill="url(#color-2)"/><path d="M210.56396,180c0,-16.25699 13.17892,-29.43598 29.43598,-29.43598c16.25699,0 29.43598,13.17892 29.43598,29.43598c0,16.25699 -13.17893,29.43598 -29.43598,29.43598c-16.25699,0 -29.43598,-13.17892 -29.43598,-29.43598z" fill="url(#color-3)"/><path d="M215.79463,180c0,-13.36821 10.83709,-24.20537 24.20537,-24.20537c13.36821,0 24.20537,10.83709 24.20537,24.20537c0,13.36821 -10.8371,24.20537 -24.20537,24.20537c-13.36821,0 -24.20537,-10.83709 -24.20537,-24.20537z" fill="url(#color-4)"/></g></g></svg>