<svg version="1.1" xmlns="http://www.w3.org/2000/svg" xmlns:xlink="http://www.w3.org/1999/xlink" width="488" height="451.66309" viewBox="0,0,488,451.66309"><defs><radialGradient cx="239.76178" cy="177.81006" r="244" gradientUnits="userSpaceOnUse" id="color-1"><stop offset="0" stop-color="#121212"/><stop offset="1" stop-color="#868686"/></radialGradient><radialGradient cx="240.00006" cy="180.00007" r="173.5" gradientUnits="userSpaceOnUse" id="color-2"><stop offset="0" stop-color="#000000"/><stop offset="1" stop-color="#000000" stop-opacity="0"/></radialGradient><radialGradient cx="237.93829" cy="318.1666" r="116.49049" gradientUnits="userSpaceOnUse" id="color-3"><stop offset="0" stop-color="#33266a"/><stop offset="1" stop-color="#949074"/></radialGradient><linearGradient x1="242.7439" y1="206.71003" x2="247.12426" y2="240.06435" gradientUnits="userSpaceOnUse" id="color-4"><stop offset="0" stop-color="#5fa5c2"/><stop offset="1" stop-color="#7fff7d"/></linearGradient><radialGradient cx="217.12983" cy="96.63091" r="64.41492" gradientUnits="userSpaceOnUse" id="color-5"><stop offset="0" stop-color="#ffa8a8"/><stop offset="1" stop-color="#ffed7d"/></radialGradient><radialGradient cx="232.39258" cy="141.39011" r="13.70696" gradientUnits="userSpaceOnUse" id="color-6"><stop offset="0" stop-color="#daffe3"/><stop offset="1" stop-color="#0c1a0f"/></radialGradient><radialGradient cx="266.89257" cy="159.89011" r="16.12716" gradientUnits="userSpaceOnUse" id="color-7"><stop offset="0" stop-color="#5f6471"/><stop offset="1" stop-color="#171d2c"/></radialGradient><radialGradient cx="291.89257" cy="138.39011" r="13.22358" gradientUnits="userSpaceOnUse" id="color-8"><stop offset="0" stop-color="#ffd0d0"/><stop offset="1" stop-color="#2a0000"/></radialGradient><linearGradient x1="185.83835" y1="116.77058" x2="210.39425" y2="140.55168" gradientUnits="userSpaceOnUse" id="color-9"><stop offset="0" stop-color="#694444"/><stop offset="1" stop-color="#98a1b9"/></linearGradient><radialGradient cx="90.63725" cy="52.60729" r="65.45502" gradientUnits="userSpaceOnUse" id="color-10"><stop offset="0" stop-color="#dcdcdc"/><stop offset="1" stop-color="#a0a0a0"/></radialGradient><radialGradient cx="131.98105" cy="54.54523" r="46.28026" gradientUnits="userSpaceOnUse" id="color-11"><stop offset="0" stop-color="#d1ffc4"/><stop offset="1" stop-color="#2188ff"/></radialGradient><radialGradient cx="131.98105" cy="54.54523" r="46.28026" gradientUnits="userSpaceOnUse" id="color-12"><stop offset="0" stop-color="#ceffc4"/><stop offset="1" stop-color="#ff21cc"/></radialGradient><radialGradient cx="131.98105" cy="54.54523" r="46.28026" gradientUnits="userSpaceOnUse" id="color-13"><stop offset="0" stop-color="#ffe9c4"/><stop offset="1" stop-color="#4fff21"/></radialGradient><radialGradient cx="131.98105" cy="54.54523" r="46.28026" gradientUnits="userSpaceOnUse" id="color-14"><stop offset="0" stop-color="#ffe9c4"/><stop offset="1" stop-color="#4fff21"/></radialGradient><radialGradient cx="131.98099" cy="54.54528" r="46.28024" gradientUnits="userSpaceOnUse" id="color-15"><stop offset="0" stop-color="#ffe9c4"/><stop offset="1" stop-color="#ffa321"/></radialGradient><radialGradient cx="131.98095" cy="54.54531" r="46.28024" gradientUnits="userSpaceOnUse" id="color-16"><stop offset="0" stop-color="#c4f0ff"/><stop offset="1" stop-color="#3d21ff"/></radialGradient><radialGradient cx="76.65722" cy="57.30426" r="50.24886" gradientUnits="userSpaceOnUse" id="color-17"><stop offset="0" stop-color="#1c2f30"/><stop offset="1" stop-color="#142913"/></radialGradient><radialGradient cx="133.79763" cy="-3.56962" r="13.22632" gradientUnits="userSpaceOnUse" id="color-18"><stop offset="0" stop-color="#786c41"/><stop offset="1" stop-color="#141a29"/></radialGradient><radialGradient cx="95.02639" cy="37.78093" r="20.82216" gradientUnits="userSpaceOnUse" id="color-19"><stop offset="0" stop-color="#7ba676"/><stop offset="1" stop-color="#291616"/></radialGradient></defs><g transform="translate(4.23828,16.71499)"><g data-paper-data="{&quot;isPaintingLayer&quot;:true}" fill-rule="nonzero" stroke-linecap="butt" stroke-linejoin="miter" stroke-miterlimit="10" stroke-dasharray="" stroke-dashoffset="0" style="mix-blend-mode: normal"><path d="M-4.23828,360.81007v-366h488v366z" fill="url(#color-1)" stroke="none" stroke-width="0"/><path d="M413.50001,180.00007c0,97.7544 -77.6786,177 -173.5,177c-95.8214,0 -173.5,-79.2456 -173.5,-177c0,-97.7544 77.6786,-177 173.5,-177c95.8214,0 173.5,79.2456 173.5,177z" fill="url(#color-2)" stroke="none" stroke-width="0"/><path d="M160.25243,434.36546l0.87834,-232.97929l154.49348,0.58264l-0.87834,232.97929z" data-paper-data="{&quot;index&quot;:null}" fill="url(#color-3)" stroke="#ed6b00" stroke-width="0"/><path d="M363.59431,239.79805c-13.68463,2.82118 -31.10095,6.025 -31.10095,6.025c0,0 -34.27185,5.4865 -35.97818,0.46162c-9.98096,-29.3872 29.14976,-28.26917 29.14976,-28.26917c0,0 26.31305,-5.40135 40.86264,-8.40147c8.91997,-1.12609 9.98963,27.0793 -2.93325,30.18397z" data-paper-data="{&quot;index&quot;:null}" fill="#a3bda9" stroke="#000000" stroke-width="0"/><g><path d="M228.48725,242.5119l-4.38035,-33.35423l37.2739,-4.89511l4.38035,33.35423z" fill="url(#color-4)" stroke="#000000" stroke-width="0"/><path d="M302.57782,144.27643c1.15825,37.94343 -26.06368,69.56234 -60.80191,70.62275c-34.73819,1.06041 -63.8381,-28.83915 -64.99636,-66.78266c-1.15825,-37.94348 26.06372,-69.56234 60.80196,-70.62275c34.73815,-1.06041 63.83806,28.83915 64.99631,66.78267z" fill="url(#color-5)" stroke="none" stroke-width="0"/><path d="M234.24021,154.93526c-2.50656,4.56413 -7.13506,2.1034 -7.13506,2.1034c-4.67209,-2.5948 -12.48175,-5.39491 -11.96181,-12.87968c0.42489,-6.11682 10.39255,-11.81263 15.78488,-10.83296c9.78211,1.7772 18.67383,18.83841 3.31207,21.60924z" data-paper-data="{&quot;index&quot;:null}" fill="url(#color-6)" stroke="none" stroke-width="0.5"/><path d="M257.0938,176.41599c0.6539,-2.32212 2.30108,-2.87228 3.52687,-2.93738c0.38889,-0.03601 0.78833,-0.01594 1.18741,0.06639c-1.57584,-5.26582 -0.89405,-12.15203 -2.76053,-17.23739c0,0 -1.37318,-3.81193 2.43876,-5.18519c3.8119,-1.37313 5.18515,2.4388 5.18515,2.4388c2.25503,6.35973 4.01183,14.21829 4.0846,21.08007c0.02731,2.57134 1.45218,6.00343 -0.48065,7.6995c-2.00564,1.75997 -5.33394,-0.17113 -8.00098,-0.25671l-2.37873,-0.66982c-0.49303,-0.13881 -0.93874,-0.36294 -1.32595,-0.65208c-1.01167,-0.69505 -2.12977,-2.02393 -1.47587,-4.34605z" data-paper-data="{&quot;index&quot;:null}" fill="url(#color-7)" stroke="none" stroke-width="0.5"/><path d="M291.1509,132.11765c7.90861,2.00089 15.22634,20.50137 2.85304,23.36571c-1.98457,4.90829 -5.7402,2.21218 -5.7402,2.21218c-3.79187,-2.84138 -10.11739,-5.93054 -9.76022,-14.00987c0.29187,-6.60261 8.28781,-12.67099 12.64741,-11.56801z" data-paper-data="{&quot;index&quot;:null}" fill="url(#color-8)" stroke="none" stroke-width="0.5"/></g><g><path d="M179.43803,144.98172l-8.79721,-12.87662l28.48538,-29.05545l10.38417,10.88123c0,0 -8.69824,25.30315 -13.81677,31.6581c-4.49202,5.57708 -16.25556,-0.60727 -16.25556,-0.60727z" data-paper-data="{&quot;index&quot;:null}" fill="url(#color-9)" stroke="#000000" stroke-width="0"/><path d="M186.65121,26.83348c27.70941,26.83561 30.25649,69.15507 5.6881,94.52401c-24.56837,25.36913 -66.94809,24.18063 -94.65805,-2.6554c-27.70943,-26.8356 -30.25648,-69.15505 -5.68792,-94.52416c24.56837,-25.36913 66.94809,-24.18063 94.65805,2.65539z" data-paper-data="{&quot;index&quot;:null}" fill="url(#color-10)" stroke="none" stroke-width="0"/><g data-paper-data="{&quot;index&quot;:null}" stroke="#ed6b00" stroke-width="0"><path d="M184.36575,87.96115c-35.23132,36.36749 -59.42356,17.18996 -72.08046,3.44593c-12.65653,-13.74415 -1.32414,-45.56697 17.39426,-62.95856c18.7184,-17.39155 48.49367,-20.04767 61.15026,-6.30369c0,0 32.89209,25.99611 -6.46435,65.81607z" data-paper-data="{&quot;index&quot;:null}" fill="url(#color-11)"/><path d="M184.36575,87.96107c-28.07508,28.98042 -49.14012,22.68899 -62.94416,11.98258c10.05012,2.88939 21.00859,0.76527 28.85185,-6.62477c12.19211,-11.4876 12.23954,-31.34944 0.10594,-44.36271c-8.08527,-8.67146 -19.53905,-12.11382 -29.8894,-10.04663c2.76751,-3.82134 5.86182,-7.36926 9.18949,-10.46106c5.70553,-5.30109 12.43835,-9.23314 19.40054,-11.74902c10.11601,5.37104 22.2524,5.08853 31.51168,-1.15479c4.0157,1.45537 7.52129,3.64986 10.23809,6.60013c0,0 1.33185,1.05262 3.13883,3.05871c-2.58455,1.24729 -5.01408,2.89862 -7.20132,4.95949c-12.19211,11.48758 -12.23954,31.34944 -0.10594,44.36271c1.66856,1.78956 3.48063,3.35638 5.39681,4.69808c-2.18608,2.83089 -4.73546,5.74498 -7.69278,8.73711z" data-paper-data="{&quot;index&quot;:null}" fill="url(#color-12)"/><path d="M129.67953,28.44846c6.37481,-5.92291 14.03202,-10.13681 21.85871,-12.5758c1.38324,3.37183 3.34886,6.58972 5.89729,9.49439c-9.3707,-1.93693 -19.24501,0.40114 -26.47334,7.21179c-12.19209,11.48757 -12.23953,31.34947 -0.10596,44.36274c8.1345,8.72423 19.67865,12.15552 30.07834,10.00825c-0.83228,5.73424 -0.05973,11.75523 2.31935,17.3331c-4.83969,2.44095 -9.39836,3.81072 -13.67407,4.35353c-0.80468,-6.74725 -3.75133,-13.41326 -8.84251,-18.87356c-9.01442,-9.66798 -22.21611,-12.83596 -33.40735,-9.11522c-2.61168,-15.72343 7.56506,-38.46267 22.34951,-52.19913z" data-paper-data="{&quot;index&quot;:null}" fill="url(#color-13)"/><path d="M183.75323,62.52412c1.31215,-9.04095 -1.36492,-18.79471 -8.03809,-26.40057c7.94819,1.64296 16.25877,0.21019 23.00964,-4.41871c4.22632,7.21349 7.56865,18.24682 2.21287,32.19537c-5.58136,-2.06549 -11.5508,-2.53932 -17.18443,-1.3761z" data-paper-data="{&quot;index&quot;:null}" fill="url(#color-14)"/><path d="M163.71073,74.87454c-0.25258,-0.4172 -2.77959,-1.11238 -3.49801,-1.39492c-8.76602,-3.44709 -17.20598,-8.07821 -26.25471,-10.46965c-0.8548,-0.22593 -2.74717,2.2271 -3.82697,3.11063c-6.6127,5.4108 -14.02476,9.94878 -19.89113,16.16788c-0.75114,0.79633 -1.28802,1.84657 -1.64165,3.09565c-2.54097,-6.60384 -2.06941,-15.12956 0.56681,-23.91711c9.49219,2.09228 19.55038,-0.21359 26.88452,-7.12398c9.46721,-8.92017 11.61171,-22.8897 6.41642,-34.7812c10.75741,-5.46649 22.75499,-7.35593 32.73768,-5.47594c-4.89461,1.11488 -9.51421,3.47743 -13.37785,7.11783c-12.19211,11.48758 -12.23954,31.34945 -0.10594,44.36271c3.01021,3.22843 6.48736,5.73209 10.20065,7.49645c-2.07745,4.10354 -3.15069,8.64204 -3.21877,13.25381c-1.60261,-4.75117 -3.40151,-8.81698 -4.99092,-11.4422z" data-paper-data="{&quot;index&quot;:null}" fill="url(#color-15)"/><path d="M184.36569,87.96123c-35.23132,36.36749 -59.42355,17.18996 -72.08046,3.44593c-0.55017,-0.59742 -1.055,-1.22906 -1.51591,-1.89215c4.19413,4.27455 9.98572,7.52246 14.57058,9.39597c0.47386,0.19363 0.95453,0.37806 1.44175,0.55334c11.19105,7.54847 25.76206,7.54541 36.08975,-0.48739c10.47458,-3.31121 19.85943,-9.15562 25.24038,-16.96526c9.28,-13.46857 18.32217,-24.8258 0.10594,-44.36271c-7.38027,-7.91535 -19.79906,-9.56104 -30.26143,-10.21723c-6.0988,-0.38251 -9.50499,7.84511 -15.41785,8.99407c-5.89332,-2.57308 -12.32068,-3.31909 -18.38769,-2.18187c1.75252,-2.06108 3.60142,-4.00471 5.52868,-5.79531c6.92674,-6.43578 15.36765,-10.85368 23.89484,-13.1694c0.29882,0.34713 0.60588,0.68991 0.92113,1.02801c10.24263,10.98525 25.89127,13.57859 37.8541,7.20976c1.45998,1.42243 3.75456,3.92656 5.90018,7.39856c-2.50382,8.79311 -0.99499,18.73052 4.53331,26.92539c-1.96478,8.75836 -7.31771,18.88942 -18.41765,30.12007z" data-paper-data="{&quot;index&quot;:null}" fill="url(#color-16)"/></g><g data-paper-data="{&quot;index&quot;:null}"><path d="M87.5651,49.47925c-0.64169,0.55905 -2.27134,2.02452 -3.94289,3.73518c-1.5041,2.36426 -3.35323,4.99526 -4.56703,7.28847c1.44026,4.45485 8.46396,5.00677 4.58893,11.92176c-6.61021,11.79301 -12.90063,-3.2279 -12.50611,-9.65706c1.90443,-8.18878 9.09044,-14.19975 14.70453,-20.16363c7.73317,-8.2146 14.56355,-17.19532 23.0497,-24.15387c0.08169,-0.59004 0.3692,-1.15352 0.85355,-1.57477l2.216,-1.92678c0.96753,-1.17764 2.02862,-2.44316 3.16882,-3.73776c2.7434,-3.66898 6.5919,-7.32736 10.29531,-10.57246c1.67194,-1.79096 3.36812,-3.29012 4.97596,-4.24537c1.04818,-0.88235 2.02296,-1.70385 2.88259,-2.45222l2.33558,-2.03138c1.06382,-0.92507 2.67566,-0.813 3.60149,0.25104c0.82343,0.94713 0.82503,2.3282 0.06598,3.27292l-1.04813,1.35838c0.94232,0.06915 1.88189,0.24801 2.81383,0.5499l0.59828,-1.16639l2.91417,1.49677c0.30068,0.14593 0.57809,0.35348 0.81172,0.62166c0.92507,1.06382 0.81301,2.67567 -0.25103,3.6015c-0.32324,0.28131 -0.69824,0.46755 -1.08816,0.55907l-2.63126,0.67791l-0.01977,-0.07754l-0.20437,0.12467c-2.11808,0.15326 -4.1013,0.54747 -5.92301,1.16123c-2.32113,1.55424 -4.87993,3.02661 -7.44888,4.58211c-3.59312,3.67132 -5.47337,8.89602 -5.00705,15.1376c0,0 0.18435,2.54598 -2.36158,2.73069c-2.54599,0.18436 -2.7307,-2.36159 -2.7307,-2.36159c-0.03808,-0.54274 -0.06179,-1.08114 -0.07011,-1.61363l-0.88378,1.19599c-0.11567,0.1631 -0.25289,0.31638 -0.41043,0.45374c-1.06382,0.92507 -2.67566,0.813 -3.60149,-0.25104c-0.46841,-0.53848 -0.67101,-1.21705 -0.61882,-1.87658c-0.99007,0.71837 -1.8867,1.44901 -2.54095,2.22084c-4.56936,5.39122 -12.78302,12.0214 -19.94769,19.08307c0.75026,0.9424 0.72967,2.26981 -0.00691,3.18596l-1.90035,2.46153l-0.07965,-0.06152l-0.02458,0.02973z" fill="url(#color-17)" stroke="none" stroke-width="0.5"/><path d="M137.69896,-9.72482c10.12439,-9.06665 10.1484,-8.83391 16.36652,-2.06088c6.21806,6.77262 6.66374,15.8804 0.99588,20.34181c-5.66817,4.46115 -15.30443,2.58628 -21.52241,-4.18669c-6.2181,-6.77262 -5.33376,-5.59214 4.16007,-14.09458z" data-paper-data="{&quot;index&quot;:null}" fill="url(#color-18)" stroke="#000000" stroke-width="0"/><path d="M118.76401,20.46508c7.26649,7.00812 6.74575,19.33705 -1.16373,27.53681c-7.90866,8.20036 -20.21083,9.16672 -27.4768,2.15855c-7.26651,-7.00814 -7.57717,-7.00041 8.0504,-21.83381c14.65426,-13.90998 13.32308,-14.86942 20.58983,-7.86141z" fill="url(#color-19)" stroke="#000000" stroke-width="0"/></g></g><g data-paper-data="{&quot;index&quot;:null}" stroke-width="0"><path d="M294.72218,399.95812c0,0 -9.41683,2.60817 -16.34674,1.57997c-5.9661,-0.88459 -9.1066,-5.42662 -14.25718,-5.43791c-2.55107,-0.00579 -9.51747,2.51646 -13.12708,2.62171c-4.77536,0.13895 -13.44016,3.86856 -18.41287,3.1592c-6.2213,-0.88678 -8.81206,-6.26697 -15.41093,-6.17634c-14.53055,0.1995 -28.8,4.01986 -28.8,4.01986c0,0 1.11399,-29.81294 -0.1972,-53.79c-1.27161,-23.26373 -4.96149,-40.46454 -5.51716,-56.1754c-0.62782,-17.75666 -0.48394,-65.32681 -0.48394,-65.32681c0,0 21.72426,-2.12502 32.11946,0.2511c9.85177,2.2524 28.70899,13.65354 28.70899,13.65354c0,0 24.60665,-11.7285 36.30975,-14.01141c9.19337,-1.79373 28.21364,1.42453 28.21364,1.42453c0,0 -0.03925,44.90658 -1.81256,69.04977c-0.94465,12.86311 -6.55024,29.8405 -8.57149,48.70113c-2.97476,27.75704 -2.41381,56.45789 -2.41381,56.45789z" fill="#d1b0b0" stroke="#292e32"/><path d="M189.6061,278.45897l0.28277,-26.90828l39.44353,-1.46317l-0.94123,30.03037z" fill="#f200ff" stroke="none"/><path d="M228.79555,267.217c-5.70093,-4.93481 -13.09998,-7.9728 -21.22859,-8.11176c-1.96355,-0.03357 -3.8903,0.10339 -5.76618,0.39718c2.72632,-2.47342 5.04269,-5.39345 6.83222,-8.64713l20.69945,-0.76782z" fill="#eeff00" stroke="none"/><path d="M195.9279,278.72934c1.21163,-3.35948 1.89967,-6.97254 1.96412,-10.74253c0.10265,-6.00583 -1.38994,-11.66769 -4.08716,-16.5814l25.87009,-0.95964c-8.94377,6.68024 -14.50435,17.50653 -14.20686,28.69167z" fill="#00ff5f" stroke="none"/><path d="M195.64873,278.71736c-0.60408,-2.00222 -1.3918,-3.92601 -2.34383,-5.75142c4.8529,-1.47712 9.24257,-4.03358 12.88397,-7.39396c3.87495,6.54599 9.92914,11.66143 17.18158,14.33114l-27.72174,-1.18576z" fill="#004fff" stroke="none"/><path d="M220.83774,279.79475c1.71925,-3.92352 2.70575,-8.24577 2.78355,-12.79665c0.10243,-5.99217 -1.38316,-11.64197 -4.06879,-16.54786l9.78,-0.36276l-0.94123,30.03043z" fill="#ff0000" stroke="none"/><path d="M189.77485,262.40881c3.26643,4.14278 7.49704,7.49525 12.36035,9.71437c0.38161,2.41201 1.02256,4.73956 1.8939,6.95266l-14.42288,-0.61693l0.16865,-16.05015z" fill="#00efff" stroke="none"/><path d="M207.37067,250.90221c-9.65968,5.51866 -16.31304,15.73888 -16.79144,27.59837l-0.97301,-0.04163l0.28275,-26.90829z" fill="#9c00ff" stroke="none"/></g><path d="M150.60144,178.15104c11.08093,10.39193 30.07297,27.92688 30.07297,27.92688c0,0 36.84248,19.57513 8.18956,47.81639c-4.5744,4.50868 -32.16947,-20.95876 -32.16947,-20.95876c0,0 -13.51377,-12.01834 -23.93589,-21.79308c-11.64205,-11.1638 6.33393,-42.27174 17.84282,-32.99147z" fill="#b8bda6" stroke="#000000" stroke-width="0"/><path d="M128.89278,112.88472c0,0 -0.01822,16.01459 7.11474,33.12883c1.71532,4.1157 14.32449,38.86846 16.1345,43.07847c6.26843,16.33247 -29.72327,21.39287 -34.84001,5.98469c-1.40366,-4.0526 -7.34438,-39.12337 -9.87356,-50.13834c-4.21113,-18.33904 -9.00228,-28.89647 -9.00228,-28.89647z" data-paper-data="{&quot;index&quot;:null}" fill="#b8bda6" stroke="#000000" stroke-width="0"/><path d="M97.62352,116.96126c1.34611,-0.15862 -3.96183,-19.1602 1.68267,-20.17797c2.7763,-0.50063 2.84703,12.49662 7.5429,15.96822c2.48598,1.83804 -6.88063,-21.5232 0.88565,-20.59556c2.66592,0.31837 4.54903,18.35207 8.06431,22.0107c1.88191,1.95823 -6.023,-26.77471 -0.86644,-26.39331c3.06107,0.22677 3.66373,16.89123 7.14976,23.70211c1.69876,3.318 -1.82511,-20.3355 2.0226,-19.41627c2.355,0.5627 7.19337,23.40332 7.48453,23.61102c1.6359,1.16784 3.32959,-13.6554 5.71384,-10.67698c4.39412,5.48859 0.00971,14.07897 -3.20901,21.95207c-1.88121,4.60048 -0.82697,10.717 -0.82697,10.717c0,0 -9.71528,4.60238 -14.86037,5.1226c-5.00969,0.50724 -15.61367,-2.03939 -15.61367,-2.03939c0,0 -8.0207,-23.44817 -5.16986,-23.78362z" data-paper-data="{&quot;index&quot;:null}" fill="#786274" stroke="#000000" stroke-width="0"/><path d="M409.27046,149.07507c0,0 -5.01408,10.13001 -10.42854,27.79953c-3.25223,10.61266 -12.88926,47.08545 -14.46522,50.98106c-7.32758,18.14991 -35.58351,9.37917 -28.55302,-5.31483c1.91942,-4.04151 18.16267,-41.17889 19.99493,-45.13084c7.61954,-16.43295 9.38645,-31.92756 9.38645,-31.92756z" data-paper-data="{&quot;index&quot;:null}" fill="#a3bda9" stroke="#000000" stroke-width="0"/><path d="M413.6989,143.52001c2.20373,0.58167 -8.8614,22.20119 -8.8614,22.20119c0,0 -8.95041,1.45411 -12.83715,0.51115c-3.99182,-0.96906 -10.80809,-6.24881 -10.80809,-6.24881c0,0 2.06006,-5.73474 1.48087,-10.29289c-0.99082,-7.80204 -2.76804,-16.39457 1.82556,-21.22423c2.49226,-2.62063 0.88323,11.66739 2.41794,10.70414c0.27309,-0.17179 8.68284,-21.50344 10.67033,-21.82421c3.2469,-0.52387 -4.27823,21.70477 -2.26435,18.69711c4.13488,-6.17365 7.93953,-22.00664 10.42189,-21.94142c4.18106,0.10965 -7.8455,26.77876 -5.95643,25.08446c3.52906,-3.1654 8.62671,-20.18643 10.81244,-20.24516c6.36835,-0.17117 -5.75041,21.24173 -3.4047,19.71732c4.43055,-2.87929 7.08087,-15.26419 9.19117,-14.5322c4.29011,1.48814 -3.72689,19.11712 -2.68684,19.39198z" data-paper-data="{&quot;index&quot;:null}" fill="#6c7378" stroke="#000000" stroke-width="0"/></g></g></svg>