<svg version="1.1" xmlns="http://www.w3.org/2000/svg" xmlns:xlink="http://www.w3.org/1999/xlink" width="1085.92733" height="92.65123" viewBox="0,0,1085.92733,92.65123"><defs><linearGradient x1="271.07015" y1="214.12007" x2="271.07015" y2="306.7713" gradientUnits="userSpaceOnUse" id="color-1"><stop offset="0" stop-color="#413e3d"/><stop offset="1" stop-color="#232120"/></linearGradient><linearGradient x1="811.57015" y1="214.12007" x2="811.57015" y2="306.7713" gradientUnits="userSpaceOnUse" id="color-2"><stop offset="0" stop-color="#413e3d"/><stop offset="1" stop-color="#232120"/></linearGradient></defs><g transform="translate(1.64351,-214.12008)"><g data-paper-data="{&quot;isPaintingLayer&quot;:true}" fill-rule="nonzero" stroke="none" stroke-width="0.5" stroke-linecap="butt" stroke-linejoin="miter" stroke-miterlimit="10" stroke-dasharray="" stroke-dashoffset="0" style="mix-blend-mode: normal"><path d="M-0.64302,227.84522c-0.53163,-0.34799 -1.00049,-0.96178 -1.00049,-2.04444c0,-2.5 2.5,-2.5 2.5,-2.5c0.22306,0 0.44676,0.00561 0.67093,0.01535c0.10457,-0.01007 0.21418,-0.01535 0.32907,-0.01535c0.28211,0 0.53238,0.03183 0.75441,0.08832c1.91236,0.16357 3.83843,0.45569 5.6712,-0.02144c1.44263,-0.37556 2.56585,-1.59326 4,-2c1.01789,-0.28868 2.13044,0.14027 3.17393,-0.0346c1.0396,-0.17421 1.95936,-0.83216 3,-1c1.97448,-0.31845 4.02743,0.33008 6,0c2.07928,-0.34793 3.92033,-1.65445 6,-2c2.91693,-0.48466 6.43611,-0.03228 9.40046,-0.03228c6.23151,0 12.46311,-0.01286 18.69454,0.01873c7.63188,-1.90797 15.35442,-0.4552 23.12824,-1.01244c11.33317,-0.81238 22.72805,-1.93853 34.10819,-1.99734c5.02279,-0.02596 10.04618,-0.00895 15.06904,-0.00895c2.5332,0 5.10334,0.46368 7.59954,0.03228c1.0387,-0.17951 1.95602,-0.85438 3,-1c0.28402,-0.03962 6.42161,-0.03228 7.40046,-0.03228c27.72554,0 55.69589,-1.22773 83.17228,2.71703c7.61435,0.27158 15.20903,0.28297 22.82772,0.28297c3.34103,0 7.10661,-0.49896 10.40046,0.03228c1.04064,0.16784 1.95408,0.869 3,1c1.57994,0.19788 3.1884,-0.1375 4.77677,-0.02599c4.46579,0.31351 8.75066,1.37049 13.12824,2.01244c4.92132,0.72169 10.15694,-0.67525 15.095,0.01355c1.04398,0.14562 1.96025,0.82671 3,1c2,0.33333 4.07646,0.35882 6,1c3.61825,-0.04493 6.34899,0.46522 9.905,0.98645c6.52366,0.95622 13.4602,-0.91196 20,0c1.3612,0.18982 2.6343,0.84587 4,1c3.29273,0.37162 6.643,-0.32915 9.94089,-0.00656c1.66134,0.16251 3.25479,0.77061 4.9107,0.98137c7.57325,0.96389 15.48808,-0.72489 23.0893,0.01863c2.92441,0.28606 5.82122,0.98275 8.75958,0.98784c12.99803,-0.00003 25.99605,-0.00001 38.99408,-0.00001c5,0 10,0 15,0c1.86655,0 3.76026,0.35015 5.59954,0.03228c5.13367,-0.88721 9.66153,-2.06629 15,-2c5.96726,-1.98909 11.96388,0.04317 18,-1c1.0387,-0.17951 1.95936,-0.83216 3,-1c4.87305,-0.78594 10.15413,0.83747 15,0c3.03099,-0.52382 5.96524,-1.51055 9,-2c6.37342,-1.02792 14.21252,-0.13722 20.5908,0.39158c0.36699,0.0306 8.71411,0.61007 9.32745,1.08961c1.20462,0.94181 1.29973,2.77083 1.85391,4.19596c2.39291,6.15364 1.31219,79.63841 1.31219,79.63841l-543.22242,1.12268c0,0 -0.93104,-75.74559 -0.96098,-78.92607z" fill="url(#color-1)"/><path d="M539.85698,227.84522c-0.53163,-0.34799 -1.00049,-0.96178 -1.00049,-2.04444c0,-2.5 2.5,-2.5 2.5,-2.5c0.22306,0 0.44676,0.00561 0.67093,0.01535c0.10457,-0.01007 0.21418,-0.01535 0.32907,-0.01535c0.28211,0 0.53238,0.03183 0.75441,0.08832c1.91236,0.16357 3.83843,0.45569 5.6712,-0.02144c1.44263,-0.37556 2.56585,-1.59326 4,-2c1.01789,-0.28868 2.13044,0.14027 3.17393,-0.0346c1.0396,-0.17421 1.95936,-0.83216 3,-1c1.97448,-0.31845 4.02743,0.33008 6,0c2.07928,-0.34793 3.92033,-1.65445 6,-2c2.91693,-0.48466 6.43611,-0.03228 9.40046,-0.03228c6.23151,0 12.46311,-0.01286 18.69454,0.01873c7.63188,-1.90797 15.35442,-0.4552 23.12824,-1.01244c11.33317,-0.81238 22.72805,-1.93853 34.10819,-1.99734c5.02279,-0.02596 10.04618,-0.00895 15.06904,-0.00895c2.5332,0 5.10334,0.46368 7.59954,0.03228c1.0387,-0.17951 1.95602,-0.85438 3,-1c0.28402,-0.03962 6.42161,-0.03228 7.40046,-0.03228c27.72554,0 55.69589,-1.22773 83.17228,2.71703c7.61435,0.27158 15.20903,0.28297 22.82772,0.28297c3.34103,0 7.10661,-0.49896 10.40046,0.03228c1.04064,0.16784 1.95408,0.869 3,1c1.57994,0.19788 3.1884,-0.1375 4.77677,-0.02599c4.46579,0.31351 8.75066,1.37049 13.12824,2.01244c4.92132,0.72169 10.15694,-0.67525 15.095,0.01355c1.04398,0.14562 1.96025,0.82671 3,1c2,0.33333 4.07646,0.35882 6,1c3.61825,-0.04493 6.34899,0.46522 9.905,0.98645c6.52366,0.95622 13.4602,-0.91196 20,0c1.3612,0.18982 2.6343,0.84587 4,1c3.29273,0.37162 6.643,-0.32915 9.94089,-0.00656c1.66134,0.16251 3.25479,0.77061 4.9107,0.98137c7.57325,0.96389 15.48808,-0.72489 23.0893,0.01863c2.92441,0.28606 5.82122,0.98275 8.75958,0.98784c12.99803,-0.00003 25.99605,-0.00001 38.99408,-0.00001c5,0 10,0 15,0c1.86655,0 3.76026,0.35015 5.59954,0.03228c5.13367,-0.88721 9.66153,-2.06629 15,-2c5.96726,-1.98909 11.96388,0.04317 18,-1c1.0387,-0.17951 1.95936,-0.83216 3,-1c4.87305,-0.78594 10.15413,0.83747 15,0c3.03099,-0.52382 5.96524,-1.51055 9,-2c6.37342,-1.02792 14.21252,-0.13722 20.5908,0.39158c0.36699,0.0306 8.71411,0.61007 9.32745,1.08961c1.20462,0.94181 1.29973,2.77083 1.85391,4.19596c2.39291,6.15364 1.31219,79.63841 1.31219,79.63841l-543.22242,1.12268c0,0 -0.93104,-75.74559 -0.96098,-78.92607z" fill="url(#color-2)"/></g></g></svg>