<svg version="1.1" xmlns="http://www.w3.org/2000/svg" xmlns:xlink="http://www.w3.org/1999/xlink" width="142.97202" height="208.95351" viewBox="0,0,142.97202,208.95351"><defs><linearGradient x1="316.08441" y1="44.26725" x2="281.14156" y2="128.14986" gradientUnits="userSpaceOnUse" id="color-1"><stop offset="0" stop-color="#4a4a4a" stop-opacity="0"/><stop offset="1" stop-color="#4a4a4a" stop-opacity="0.10196"/></linearGradient><linearGradient x1="323.53783" y1="43.18396" x2="280.43719" y2="131.49947" gradientUnits="userSpaceOnUse" id="color-2"><stop offset="0" stop-color="#292929" stop-opacity="0"/><stop offset="1" stop-color="#292929" stop-opacity="0.12157"/></linearGradient><linearGradient x1="325.60758" y1="51.61137" x2="279.36981" y2="129.48281" gradientUnits="userSpaceOnUse" id="color-3"><stop offset="0" stop-color="#383838" stop-opacity="0"/><stop offset="1" stop-color="#383838" stop-opacity="0.16471"/></linearGradient><radialGradient cx="299.12896" cy="89.50204" r="35.53768" gradientUnits="userSpaceOnUse" id="color-4"><stop offset="0" stop-color="#4a4a4a" stop-opacity="0"/><stop offset="1" stop-color="#4a4a4a" stop-opacity="0.05882"/></radialGradient><linearGradient x1="234.5053" y1="147.8915" x2="291.71803" y2="177.11565" gradientUnits="userSpaceOnUse" id="color-5"><stop offset="0" stop-color="#8f8f8f"/><stop offset="1" stop-color="#302e2d"/></linearGradient><linearGradient x1="262.48442" y1="120.95066" x2="296.37543" y2="138.26212" gradientUnits="userSpaceOnUse" id="color-6"><stop offset="0" stop-color="#ffe83c"/><stop offset="1" stop-color="#a77c00"/></linearGradient><linearGradient x1="281.07749" y1="126.38092" x2="277.78236" y2="132.83186" gradientUnits="userSpaceOnUse" id="color-7"><stop offset="0" stop-color="#348317"/><stop offset="1" stop-color="#3c5b0d"/></linearGradient><linearGradient x1="256.60918" y1="132.02358" x2="290.50019" y2="149.33504" gradientUnits="userSpaceOnUse" id="color-8"><stop offset="0" stop-color="#ffe83c"/><stop offset="1" stop-color="#a77c00"/></linearGradient><linearGradient x1="275.20225" y1="137.45383" x2="271.90713" y2="143.90477" gradientUnits="userSpaceOnUse" id="color-9"><stop offset="0" stop-color="#348317"/><stop offset="1" stop-color="#3c5b0d"/></linearGradient><radialGradient cx="231.55571" cy="201.68744" r="27.13216" gradientUnits="userSpaceOnUse" id="color-10"><stop offset="0" stop-color="#93bde8"/><stop offset="1" stop-color="#52607f"/></radialGradient><linearGradient x1="242.27348" y1="190.72123" x2="242.27348" y2="244.98073" gradientUnits="userSpaceOnUse" id="color-11"><stop offset="0" stop-color="#348317"/><stop offset="1" stop-color="#3c5b0d"/></linearGradient><radialGradient cx="261.28017" cy="202.84645" r="27.13216" gradientUnits="userSpaceOnUse" id="color-12"><stop offset="0" stop-color="#93bde8"/><stop offset="1" stop-color="#52607f"/></radialGradient><linearGradient x1="272.02022" y1="190.82574" x2="272.02022" y2="245.08524" gradientUnits="userSpaceOnUse" id="color-13"><stop offset="0" stop-color="#348317"/><stop offset="1" stop-color="#3c5b0d"/></linearGradient><linearGradient x1="242.55649" y1="179.70993" x2="242.55649" y2="191.78861" gradientUnits="userSpaceOnUse" id="color-14"><stop offset="0" stop-color="#348317"/><stop offset="1" stop-color="#3c5b0d"/></linearGradient><linearGradient x1="271.36134" y1="179.98948" x2="271.36134" y2="192.06815" gradientUnits="userSpaceOnUse" id="color-15"><stop offset="0" stop-color="#348317"/><stop offset="1" stop-color="#3c5b0d"/></linearGradient><linearGradient x1="186.22599" y1="206.50508" x2="232.84012" y2="206.50508" gradientUnits="userSpaceOnUse" id="color-16"><stop offset="0" stop-color="#3f3f3f"/><stop offset="1" stop-color="#313131"/></linearGradient><linearGradient x1="209.53306" y1="168.71137" x2="209.53306" y2="244.29878" gradientUnits="userSpaceOnUse" id="color-17"><stop offset="0" stop-color="#348317"/><stop offset="1" stop-color="#3c5b0d"/></linearGradient><linearGradient x1="180.476" y1="206.5356" x2="237.59012" y2="206.5356" gradientUnits="userSpaceOnUse" id="color-18"><stop offset="0" stop-color="#4a4a4a"/><stop offset="1" stop-color="#373737"/></linearGradient><linearGradient x1="209.03307" y1="190.78038" x2="209.03307" y2="222.29081" gradientUnits="userSpaceOnUse" id="color-19"><stop offset="0" stop-color="#348317"/><stop offset="1" stop-color="#3c5b0d"/></linearGradient><linearGradient x1="188.833" y1="179.78592" x2="229.44712" y2="179.78592" gradientUnits="userSpaceOnUse" id="color-20"><stop offset="0" stop-color="#ff4489"/><stop offset="1" stop-color="#ff0053"/></linearGradient><linearGradient x1="209.14006" y1="172.35337" x2="209.14006" y2="187.21847" gradientUnits="userSpaceOnUse" id="color-21"><stop offset="0" stop-color="#348317"/><stop offset="1" stop-color="#3c5b0d"/></linearGradient><linearGradient x1="183.226" y1="206.6296" x2="233.59012" y2="206.6296" gradientUnits="userSpaceOnUse" id="color-22"><stop offset="0" stop-color="#ff4489"/><stop offset="1" stop-color="#ff0053"/></linearGradient><linearGradient x1="208.40807" y1="199.19704" x2="208.40807" y2="214.06215" gradientUnits="userSpaceOnUse" id="color-23"><stop offset="0" stop-color="#348317"/><stop offset="1" stop-color="#3c5b0d"/></linearGradient><linearGradient x1="188.833" y1="233.23383" x2="229.44712" y2="233.23383" gradientUnits="userSpaceOnUse" id="color-24"><stop offset="0" stop-color="#ff4489"/><stop offset="1" stop-color="#ff0053"/></linearGradient><linearGradient x1="209.14006" y1="225.80128" x2="209.14006" y2="240.66638" gradientUnits="userSpaceOnUse" id="color-25"><stop offset="0" stop-color="#348317"/><stop offset="1" stop-color="#3c5b0d"/></linearGradient></defs><g transform="translate(-180.476,-36.13375)"><g data-paper-data="{&quot;isPaintingLayer&quot;:true}" fill-rule="nonzero" stroke-linecap="butt" stroke-linejoin="miter" stroke-miterlimit="10" stroke-dasharray="" stroke-dashoffset="0" style="mix-blend-mode: normal"><path d="M264.20863,115.31893l-0.01998,-0.03131l0.01629,-0.08213c-0.00617,-0.43731 0.07974,-0.8999 0.26822,-1.35236l0.36859,-0.88483l0.19617,-0.29141l0.13613,-0.32679l0.24185,-0.35926l0.81735,-1.96213l0.31669,-1.10059l0.09506,-0.18369l0.03974,-0.20033l0.00984,-0.02362l0.00977,-0.08544l-0.02936,-0.36065l0.05171,-0.38984l0.01943,-1.85963l0.04417,-0.19992l-0.01582,-0.19433l0.10647,-0.80261l-0.02885,-0.28576l0.04263,-0.37243l-0.02936,-0.36064l0.23404,-1.76428l0.15077,-0.43604l0.08874,-0.44743l0.08502,-0.20412l0.08377,-0.42242l0.13613,-0.32677l0.06796,-0.34264l0.04172,-0.10014l0.01797,-0.13541l0.15074,-0.43604l0.08874,-0.44743l1.40065,-3.36237l0.19617,-0.29141l0.13614,-0.32678l0.24185,-0.35929l0.30618,-0.73501l0.19616,-0.29142l0.13614,-0.32678l0.40009,-0.59435l0.47592,-0.7697l0.12123,-0.12839l0.08007,-0.16308l0.62102,-0.80753l0.41802,-0.67607l0.12123,-0.12839l0.08007,-0.16308l0.59302,-0.77113l0.47218,-0.81023l0.27937,-0.31255l0.23085,-0.35931l0.69057,-0.70524l0.64869,-0.90908l0.19013,-0.17514l0.14467,-0.22517l2.4767,-2.52924l1.3344,-1.73517l0.22969,-0.19592l0.18535,-0.25216l0.63353,-0.56626l0.50873,-0.59851l0.17437,-0.13358l0.13628,-0.18542l0.79803,-0.71327l0.12076,-0.0667l0.09724,-0.11094l0.43692,-0.32351l1.0685,-1.25709l0.09138,-0.06999l0.06558,-0.10207l3.05787,-3.12275l0.8473,-1.10176l0.99258,-1.65759l0.16172,-0.17646l0.113,-0.21803l1.15339,-1.43218l0.78591,-1.55645l0.09516,-0.12085l0.05448,-0.1463l0.9992,-1.61603l1.0838,-1.85974l0.99679,-2.03015l2.55017,-6.12186l0.41461,-1.3147l0.25713,-1.29653l0.22185,-1.30669l0.01769,-0.04587l-0.00059,-0.04697l0.11426,-0.57617l0.06675,-0.81032l0.02423,-0.08257l-0.00661,-0.08119l0.10647,-0.80262l-0.02884,-0.28579l0.02276,-0.19877l-0.03074,-0.02217l-0.02824,-0.34693l-0.11701,-0.30565l0.07532,-0.20632l-0.04337,-0.53267l0.0103,-0.07772l-0.00026,-0.00453l-0.08415,-0.24107l-0.06513,-0.64528l0.04264,-0.37243l-0.01792,-0.22009l-0.12466,-0.42043l-0.02515,-0.43685l-0.08967,-0.41373l0.0043,-0.41113l0.02435,-0.11018l-0.16251,-0.42451l0.04914,-0.13461l-0.04554,-0.21013l0.00429,-0.41113l0.31629,-1.43144l0.58022,-0.47626l0.33619,-0.71539l1.2111,-0.55468l0.20243,-0.03519l0.02276,-0.02111l0.06754,0.0054l0.0673,-0.01171l0.53673,0.06008l0.54026,0.04328l0.05983,0.0239l0.06708,0.00752l0.01318,0.02456l3.60588,1.44059l1.20182,0.298l1.04009,0.21593l0.14553,0.0811l0.16924,0.01355l0.73768,0.2947l0.35684,0.0286l0.26433,0.1056l0.28945,0.0232l0.2863,0.11436l0.22341,0.18171l0.26433,0.1056l0.49886,0.40572l0.15132,0.22095l0.20441,0.15563l0.23712,0.32498l0.1695,0.00926l0.16347,0.27l0.23319,0.18966l0.00804,0.20879l0.25003,0.41298l0.13594,0.13321l0.16266,0.28701l0.22041,0.22715l0.28199,0.5255l0.06236,0.25311l0.12672,0.20928l0.06594,0.22238l0.16582,0.30902l0.06236,0.25311l0.12672,0.20928l0.13885,0.4683l0.01559,0.27067l0.08415,0.24107l0.01094,0.10837l0.04737,0.08826l0.06236,0.25311l0.12671,0.20928l0.13885,0.46831l0.01559,0.27068l0.08417,0.24107l0.12274,1.21604l0.39246,2.56507l-0.02454,0.3668l0.0476,0.35029l-0.05198,0.63109l0.08117,0.53049l-0.02454,0.3668l0.0476,0.35028l-0.07277,0.88345l-0.00629,0.60162l0.05482,0.95203l-0.04765,0.30717l0.02422,0.29735l-0.05171,0.38984l-0.00654,0.62624l-0.06759,0.30587l0.00382,0.3024l-0.73745,3.7184l-0.0638,0.48095l-0.03677,0.10636l0.00136,0.10766l-0.28226,1.42323l-0.0638,0.48096l-0.15076,0.43603l-0.08874,0.44743l-0.15875,0.38107l-0.08377,0.42242l-0.02696,0.06472l-0.00195,0.06744l-0.22546,0.94204l-0.01999,0.04322l-0.00261,0.04596l-0.21943,0.8207l-0.05753,0.69835l-0.07452,0.25404l-0.00742,0.25592l-0.22545,0.94201l-0.01998,0.04324l-0.00262,0.04596l-0.24128,0.90249l-0.12699,0.9573l-0.07439,0.21517l-0.01253,0.22022l-0.24129,0.90248l-0.12699,0.9573l-0.05926,0.17139l-0.00507,0.17479l-0.18416,0.7695l-0.133,1.00252l-0.03677,0.10635l0.00136,0.10767l-0.11427,0.57616l-0.03643,0.44221l0.29262,1.91245l0.20081,0.43408l0.06288,0.32991l0.13163,0.29057l0.17752,0.96911l1.01768,3.43243l0.27649,0.59769l0.07049,0.36981l0.13778,0.33266l0.10587,0.69194l0.29479,0.99427l0.0156,0.27067l0.08415,0.24107l0.01873,0.18544l0.17082,0.36928l0.08394,0.4404l0.14306,0.4098l0.13026,1.29056l-0.02016,0.1762l0.03524,0.16262l-0.00599,0.57358l0.09816,0.64154l-0.01689,0.25263l0.05069,0.23394l-0.00859,0.82225l-0.02603,0.11785l0.0153,0.11262l-0.07277,0.88344l-0.01599,1.52978l-0.02603,0.11785l0.01531,0.11263l-0.07277,0.88345l-0.00739,0.70753l-0.02603,0.11785l0.0153,0.11262l-0.0823,0.99921l-0.05542,0.18891l0.00238,0.1889l-0.0696,0.35089l0.03755,0.65201l-0.04765,0.30718l0.02423,0.29734l-0.15603,1.17618l-0.07438,0.21515l-0.01253,0.22022l-0.21031,0.78662l-0.06606,1.07576l-0.10541,0.3876l-0.036,0.39154l-0.38252,1.26157l-0.19323,1.13812l-0.07156,0.18563l-0.0148,0.19258l-0.73659,2.55995l-0.29059,1.0869l-0.10645,0.21545l-0.04614,0.23264l-1.62181,3.89328l-0.15872,0.23579l-0.09984,0.26815l-0.51174,0.82764l-0.12123,0.12839l-0.08008,0.16309l-0.44818,0.58279l-0.18916,0.45408l-0.0641,0.09523l-0.00098,0.09345l-0.39724,0.49812l-0.35895,0.53322l-0.08176,0.0194l-0.07096,0.08896l-0.14178,0.11638l-0.16199,0.24065l-0.33989,0.33174l-0.30179,0.37843l-0.22474,0.18447l-0.13288,0.17278l-0.27858,0.23761l-0.23555,0.29535l-0.37601,0.30865l-0.16922,0.17282l-0.35959,0.23426l-0.33,0.29494l-1.94086,1.072l-0.67442,0.55359l-0.4598,0.46956l-0.18263,0.11897l-0.06103,0.12987l-0.22111,0.10126l-0.04268,0.06643l-0.05431,0.05547l-0.04578,0.06799l-0.0271,0.00644l-1.03516,1.05711l-0.18263,0.11897l-0.06103,0.12986l-0.46581,0.21333l-0.16742,0.10906l-0.01736,0.03694l-0.13251,0.0607l-0.12613,0.08216l-0.0313,-0.01007l-0.17588,0.08056l-0.16742,0.10906l-0.01735,0.03693l-0.13251,0.0607l-0.12614,0.08217l-0.0313,-0.01007l-0.17588,0.08056l-0.44341,0.28886l-0.11001,-0.03541l-0.19187,0.08787l-0.36,0.06258l-0.16813,-0.01882l-0.17311,0.05048l-1.00631,0.01081l-0.29246,-0.08563l-0.0126,0.00219l-0.53672,-0.06011l-0.54026,-0.04328l-0.05983,-0.0239l-0.0671,-0.00751l-0.01318,-0.02456l-0.07672,-0.03065l-0.4149,-0.05728l-0.35457,0.00381l-0.35777,-0.10477l-0.37796,-0.03028l-0.65358,-0.26111l-0.11584,0.00124l-0.35777,-0.10477l-0.37796,-0.03028l-0.081,-0.03236l-0.11584,0.00124l-0.08727,-0.02555l-0.09469,0.0193l-0.6463,-0.05178l-0.26433,-0.1056l-0.28946,-0.02319l-0.51043,-0.20391l-0.11585,0.00123l-0.08726,-0.02556l-0.09469,0.01931l-0.6463,-0.05177l-0.26433,-0.10561l-0.28945,-0.0232l-1.21882,-0.48693l-0.55949,-0.07724l-0.20837,-0.09792l-0.2342,-0.01876l-17.60672,-7.0341l-0.29173,-0.23727l-0.33051,-0.17022l-0.71143,-0.69707l-0.03483,-0.06144l-0.13113,-0.05239l-0.02695,0.00852l-0.05331,-0.0406l-0.05983,-0.0239l-0.41701,-0.33916l-0.42648,-0.32473l-0.03974,-0.05445l-0.05212,-0.0424l-0.00119,-0.03066l-0.11954,-0.16383l-0.46932,-1.22602l0.48419,-1.32629l-0.00018,-0.0048l0.00293,-0.00272l0.30187,-0.82686c-0.44692,-0.40225 -0.7084,-1.01389 -0.74324,-1.69607z" fill="url(#color-1)" stroke="none" stroke-width="0.5"/><path d="M263.29289,115.91088l-0.0191,-0.03604l0.0231,-0.08815c0.02402,-0.478 0.14791,-0.975 0.3804,-1.45135l0.45464,-0.9316l0.22941,-0.29983l0.16791,-0.34405l0.28282,-0.36964l1.00817,-2.0658l0.41443,-1.17199l0.11415,-0.19168l0.05635,-0.215l0.01213,-0.02486l0.0164,-0.09237l-0.00605,-0.39647l0.08238,-0.42077l0.15081,-2.02839l0.06104,-0.21411l-0.00327,-0.21364l0.16959,-0.8663l-0.01073,-0.31468l0.07148,-0.40262l-0.00606,-0.39647l0.37281,-1.90426l0.19114,-0.46197l0.12585,-0.48018l0.10488,-0.21491l0.11882,-0.45335l0.16791,-0.34405l0.09639,-0.36773l0.05146,-0.10544l0.02861,-0.14615l0.19114,-0.46195l0.12585,-0.48018l1.72767,-3.54007l0.22941,-0.29983l0.16791,-0.34405l0.28283,-0.36964l0.37767,-0.77386l0.2294,-0.29984l0.16791,-0.34405l0.4679,-0.61154l0.56094,-0.79589l0.13815,-0.12885l0.09673,-0.17057l0.71819,-0.82364l0.49269,-0.69906l0.13815,-0.12885l0.09673,-0.17057l0.68581,-0.7865l0.5598,-0.84049l0.31954,-0.31515l0.27108,-0.3707l0.78515,-0.70545l0.75477,-0.93193l0.21485,-0.17346l0.1699,-0.23234l2.81589,-2.53006l1.54321,-1.76977l0.25844,-0.19245l0.21514,-0.25799l0.71465,-0.55907l0.58391,-0.60591l0.19515,-0.12956l0.15817,-0.18969l0.9002,-0.70421l0.13333,-0.06154l0.11137,-0.11205l0.48817,-0.3124l1.22645,-1.27266l0.10227,-0.06789l0.07701,-0.10531l3.47665,-3.12375l0.97988,-1.12374l1.17357,-1.71697l0.18467,-0.17757l0.13566,-0.22748l1.32914,-1.45589l0.94629,-1.62587l0.10984,-0.12303l0.06827,-0.15462l1.17771,-1.671l1.28491,-1.92916l1.20413,-2.12334l3.14554,-6.44538l0.53376,-1.39659l0.3647,-1.39146l0.32781,-1.40585l0.02204,-0.04842l0.00266,-0.05133l0.16206,-0.61834l0.12781,-0.87843l0.0316,-0.0879l-0.00136,-0.08925l0.16959,-0.8663l-0.01073,-0.31468l0.03816,-0.21489l-0.0312,-0.02706l-0.00583,-0.38139l-0.10328,-0.34462l0.09469,-0.2182l-0.00895,-0.58558l0.01642,-0.08389l0.00003,-0.00495l-0.0728,-0.27105l-0.02425,-0.71055l0.07148,-0.40262l-0.00369,-0.24196l-0.1034,-0.47065l0.00376,-0.47927l-0.06659,-0.46005l0.03334,-0.44843l0.03365,-0.11802l-0.14344,-0.47863l0.06178,-0.14237l-0.03382,-0.23366l0.03333,-0.44844l0.43715,-1.53323l0.65156,-0.4658l0.40826,-0.74962l1.32924,-0.49251l0.21816,-0.01954l0.02572,-0.02092l0.07157,0.01222l0.07252,-0.00649l0.56767,0.11571l0.57261,0.0977l0.06207,0.03168l0.07095,0.01446l0.01232,0.02803l3.74127,1.90934l1.25969,0.43752l1.09309,0.33284l0.14939,0.10211l0.17938,0.03059l0.76538,0.3906l0.37822,0.06453l0.27425,0.13996l0.30679,0.05233l0.29703,0.1516l0.22534,0.21923l0.27425,0.13996l0.50314,0.48951l0.14578,0.25533l0.20692,0.18899l0.22991,0.37694l0.17995,0.02594l0.15529,0.31002l0.2352,0.22882l-0.00604,0.22869l0.23752,0.47418l0.13552,0.15811l0.15323,0.32853l0.21895,0.26857l0.26369,0.60003l0.04874,0.28215l0.12037,0.24031l0.0547,0.24893l0.15507,0.35285l0.04873,0.28215l0.12038,0.24031l0.11517,0.52423l-0.00233,0.29696l0.0728,0.27105l0.00407,0.11934l0.04429,0.10077l0.04874,0.28215l0.12037,0.24031l0.11517,0.52424l-0.00233,0.29696l0.07281,0.27103l0.04569,1.33906l0.2387,2.837l-0.05181,0.39815l0.02621,0.38685l-0.09955,0.68414l0.04936,0.58673l-0.05181,0.39815l0.02621,0.38685l-0.13935,0.95771l-0.04878,0.6562l-0.0082,1.04448l-0.07227,0.33091l0.00499,0.3269l-0.08238,0.42077l-0.05078,0.68308l-0.09341,0.32762l-0.01708,0.33051l-1.04593,3.99066l-0.10163,0.51912l-0.04663,0.11267l-0.00609,0.11768l-0.40033,1.52743l-0.10163,0.51912l-0.19114,0.46195l-0.12585,0.48018l-0.1958,0.40122l-0.11882,0.45334l-0.03326,0.06816l-0.0068,0.07345l-0.30613,1.00739l-0.02432,0.04533l-0.006,0.04993l-0.29122,0.8755l-0.11016,0.75704l-0.09718,0.27041l-0.0258,0.2787l-0.30613,1.00739l-0.02431,0.04533l-0.006,0.04993l-0.32024,0.96276l-0.20228,1.03327l-0.09432,0.22794l-0.02875,0.23925l-0.32024,0.96276l-0.20228,1.03327l-0.07514,0.18159l-0.01763,0.19036l-0.25006,0.82289l-0.21185,1.08206l-0.04663,0.11267l-0.00609,0.11768l-0.16206,0.61834l-0.06975,0.47937l0.17797,2.1152l0.18359,0.49265l0.04391,0.36605l0.11991,0.32953l0.12133,1.07459l0.84419,3.84229l0.25278,0.67833l0.04923,0.41032l0.12353,0.37604l0.06439,0.76529l0.24454,1.11299l-0.00232,0.29696l0.0728,0.27105l0.00697,0.20421l0.15618,0.41911l0.05862,0.48865l0.12375,0.46075l0.0485,1.4211l-0.03382,0.19047l0.02618,0.18085l-0.04651,0.62562l0.0597,0.70955l-0.03568,0.27423l0.03766,0.26014l-0.06669,0.89687l-0.036,0.12624l0.00843,0.12439l-0.13934,0.95769l-0.12406,1.66861l-0.036,0.12624l0.00843,0.12439l-0.13935,0.95771l-0.05737,0.77175l-0.036,0.12624l0.00843,0.12439l-0.1576,1.08318l-0.07226,0.20105l-0.01066,0.20644l-0.0987,0.37658l-0.00561,0.71533l-0.07227,0.33091l0.00499,0.3269l-0.24854,1.26951l-0.09432,0.22794l-0.02875,0.23925l-0.27913,0.83916l-0.14565,1.16828l-0.13942,0.41333l-0.06575,0.4241l-0.49585,1.34159l-0.28552,1.22448l-0.08923,0.19599l-0.02926,0.20888l-0.96394,2.72603l-0.38568,1.15949l-0.12849,0.22527l-0.06544,0.24967l-2.00045,4.09904l-0.1856,0.24258l-0.12514,0.28344l-0.60316,0.8558l-0.13815,0.12885l-0.09673,0.17057l-0.51831,0.59441l-0.23331,0.47807l-0.07497,0.09799l-0.00758,0.10191l-0.45812,0.50674l-0.41977,0.54863l-0.08847,0.01355l-0.08183,0.09051l-0.1592,0.11382l-0.18944,0.2476l-0.38537,0.33046l-0.34805,0.38497l-0.25235,0.1804l-0.15369,0.17624l-0.31345,0.2334l-0.27165,0.30048l-0.42224,0.30186l-0.1924,0.17286l-0.39954,0.22217l-0.37226,0.29121l-2.143,0.98916l-0.75732,0.54141l-0.52279,0.46971l-0.20292,0.11285l-0.07411,0.13607l-0.24267,0.08992l-0.05012,0.06854l-0.06175,0.05547l-0.05353,0.06996l-0.02933,0.00449l-1.17691,1.05746l-0.20292,0.11285l-0.07411,0.13607l-0.51125,0.18943l-0.18601,0.10344l-0.02108,0.0387l-0.14543,0.05389l-0.14015,0.07793l-0.03265,-0.0139l-0.19304,0.07153l-0.18601,0.10344l-0.02108,0.0387l-0.14543,0.05389l-0.14015,0.07793l-0.03265,-0.0139l-0.19304,0.07153l-0.49267,0.27397l-0.11474,-0.0489l-0.21058,0.07802l-0.38797,0.03473l-0.17782,-0.03624l-0.18798,0.03897l-1.07297,-0.08213l-0.30562,-0.12079l-0.01357,0.00121l-0.56767,-0.11571l-0.5726,-0.09769l-0.06207,-0.03168l-0.07096,-0.01446l-0.01232,-0.02803l-0.07961,-0.04062l-0.43806,-0.10126l-0.37806,-0.02893l-0.37388,-0.14778l-0.4006,-0.06834l-0.67812,-0.34607l-0.12352,-0.00945l-0.37388,-0.14778l-0.4006,-0.06834l-0.08404,-0.04289l-0.12352,-0.00945l-0.09119,-0.03605l-0.10225,0.01223l-0.68501,-0.11686l-0.27425,-0.13996l-0.30679,-0.05233l-0.5296,-0.27028l-0.12353,-0.00946l-0.09119,-0.03605l-0.10225,0.01223l-0.68501,-0.11686l-0.27425,-0.13996l-0.30679,-0.05233l-1.2646,-0.64538l-0.59073,-0.13655l-0.21517,-0.12635l-0.24821,-0.04234l-18.26782,-9.32289l-0.29425,-0.28626l-0.34025,-0.21668l-0.70925,-0.82743l-0.03281,-0.07032l-0.13605,-0.06943l-0.02932,0.00678l-0.05396,-0.04929l-0.06207,-0.03168l-0.42059,-0.40919l-0.4317,-0.39433l-0.03853,-0.06315l-0.05258,-0.05115l0.00089,-0.0336l-0.11589,-0.19002l-0.41428,-1.3823l0.60871,-1.40275l0.00015,-0.00527l0.00331,-0.00269l0.3795,-0.87454c-0.44806,-0.48087 -0.68386,-1.17303 -0.67326,-1.92105z" fill="url(#color-2)" stroke="none" stroke-width="0.5"/><path d="M265.14468,113.02448l-0.01432,-0.03581l0.02814,-0.07991c0.061,-0.44442 0.21389,-0.89566 0.46329,-1.31567l0.48774,-0.82142l0.23212,-0.25527l0.18013,-0.30338l0.28617,-0.3147l1.08155,-1.8215l0.47111,-1.05065l0.11899,-0.16675l0.06863,-0.1949l0.01301,-0.02191l0.02243,-0.0846l0.0271,-0.37146l0.10907,-0.38449l0.30305,-1.8805l0.07281,-0.19358l0.0146,-0.20017l0.22457,-0.7916l0.01614,-0.29547l0.09773,-0.36872l0.0271,-0.37145l0.49364,-1.74007l0.21084,-0.41109l0.15328,-0.43528l0.11251,-0.1895l0.14472,-0.41096l0.18013,-0.30337l0.11738,-0.33335l0.0552,-0.09297l0.03789,-0.13354l0.21083,-0.4111l0.15328,-0.43528l1.85342,-3.12143l0.23212,-0.25527l0.18013,-0.30337l0.28617,-0.3147l0.40516,-0.68235l0.23211,-0.25527l0.18013,-0.30337l0.47342,-0.52063l0.57273,-0.68287l0.13553,-0.10536l0.1015,-0.14892l0.71724,-0.69157l0.50305,-0.59978l0.13553,-0.10536l0.1015,-0.14892l0.68488,-0.6604l0.57536,-0.72469l0.3149,-0.25971l0.27564,-0.31698l0.76808,-0.5737l0.75921,-0.78883l0.20856,-0.13868l0.17276,-0.19867l2.75467,-2.05756l1.54113,-1.486l0.24956,-0.15166l0.21577,-0.21769l0.69228,-0.44451l0.5779,-0.50268l0.18714,-0.09976l0.15864,-0.16006l0.87204,-0.55993l0.12565,-0.04294l0.10994,-0.09259l0.46718,-0.23865l1.21381,-1.0558l0.09807,-0.05228l0.0783,-0.09004l3.40104,-2.54035l0.97857,-0.94355l1.20249,-1.47713l0.1816,-0.14581l0.14138,-0.19788l1.32175,-1.21592l0.98944,-1.41683l0.10945,-0.10303l0.07446,-0.13713l1.20246,-1.43369l1.32062,-1.66337l1.26351,-1.85382l3.37449,-5.68316l0.59749,-1.24764l0.44416,-1.26137l0.41199,-1.27887l0.02392,-0.04288l0.00661,-0.0477l0.19738,-0.56055l0.18777,-0.80752l0.0358,-0.07874l0.0061,-0.08362l0.22456,-0.7916l0.01614,-0.29548l0.05217,-0.19679l-0.02599,-0.02873l0.02607,-0.35732l-0.0651,-0.33363l0.10357,-0.19369l0.04003,-0.54864l0.02175,-0.07666l0.00044,-0.00463l-0.04357,-0.26148l0.03645,-0.6672l0.09773,-0.36871l0.01654,-0.22669l-0.05486,-0.45151l0.04279,-0.44781l-0.02244,-0.43756l0.067,-0.41572l0.04013,-0.1067l-0.09041,-0.46335l0.06756,-0.12638l-0.01139,-0.22224l0.06699,-0.41574l0.52135,-1.38601l0.62757,-0.36421l0.43084,-0.65634l1.24267,-0.3149l0.19892,0.00564l0.02497,-0.01674l0.06373,0.01927l0.06613,0.00187l0.50392,0.17044l0.50987,0.15414l0.05354,0.03644l0.06299,0.0213l0.00885,0.02756l3.22686,2.19579l1.10335,0.54728l0.96129,0.43111l0.12673,0.11186l0.15971,0.04828l0.66015,0.44921l0.33677,0.10181l0.23655,0.16096l0.27317,0.08258l0.25619,0.17434l0.18579,0.22973l0.23655,0.16096l0.41484,0.51296l0.11087,0.25478l0.17162,0.19944l0.17698,0.37773l0.16063,0.04397l0.11497,0.30697l0.19392,0.23979l-0.02424,0.21322l0.17586,0.46951l0.10959,0.16272l0.1116,0.32405l0.17596,0.27517l0.1892,0.59008l0.0209,0.26922l0.08913,0.23793l0.02902,0.23881l0.11125,0.347l0.0209,0.26922l0.08913,0.23793l0.06111,0.50291l-0.02651,0.27747l0.04357,0.26148l-0.00612,0.11206l0.03178,0.0991l0.0209,0.26922l0.08912,0.23793l0.0611,0.50292l-0.02651,0.27747l0.04359,0.26146l-0.06869,1.25733l-0.0172,2.67945l-0.07957,0.36668l-0.00808,0.36468l-0.14623,0.62891l-0.00356,0.55414l-0.07957,0.36668l-0.00808,0.36466l-0.20471,0.88039l-0.09804,0.60836l-0.09323,0.97594l-0.09254,0.30154l-0.02234,0.30627l-0.10908,0.3845l-0.10205,0.63328l-0.11141,0.29616l-0.0426,0.30722l-1.27385,3.61756l-0.13458,0.47436l-0.05143,0.10029l-0.01517,0.10939l-0.48757,1.38463l-0.13458,0.47436l-0.21084,0.41109l-0.15328,0.43529l-0.21006,0.35377l-0.14471,0.41096l-0.03568,0.06008l-0.01218,0.06795l-0.35964,0.9086l-0.02572,0.03972l-0.00953,0.04605l-0.33533,0.7869l-0.16183,0.69595l-0.11011,0.24223l-0.04624,0.25781l-0.35964,0.90859l-0.02571,0.03972l-0.00954,0.04605l-0.36874,0.86529l-0.26784,0.94417l-0.10404,0.20286l-0.04567,0.22062l-0.36874,0.86529l-0.26784,0.94417l-0.08288,0.16159l-0.03158,0.1761l-0.29378,0.74219l-0.2805,0.98876l-0.05143,0.10029l-0.01517,0.10939l-0.19738,0.56055l-0.10247,0.44069l-0.01282,1.99773l0.12557,0.48086l0.00964,0.34715l0.08138,0.32133l0.02146,1.01828l0.44783,3.68599l0.1729,0.66211l0.01081,0.38915l0.08083,0.36521l-0.00464,0.72278l0.12972,1.06771l-0.02651,0.27747l0.04357,0.26148l-0.01048,0.19175l0.10682,0.40908l0.01288,0.46343l0.07408,0.44446l-0.07289,1.33439l-0.04624,0.17444l0.00882,0.172l-0.09347,0.58001l-0.00431,0.67016l-0.0548,0.25255l0.01267,0.24742l-0.134,0.83147l-0.04293,0.11413l-0.0026,0.11726l-0.20471,0.88038l-0.2493,1.54696l-0.04293,0.11413l-0.0026,0.11726l-0.20471,0.88039l-0.11531,0.71548l-0.04293,0.11413l-0.00259,0.11725l-0.23155,0.99577l-0.08188,0.18012l-0.02661,0.1919l-0.12021,0.34137l-0.06385,0.66838l-0.09254,0.30155l-0.02233,0.30626l-0.32909,1.16004l-0.10403,0.20284l-0.04567,0.22062l-0.3214,0.75421l-0.22772,1.07664l-0.16006,0.37128l-0.09432,0.38943l-0.55869,1.20036l-0.35884,1.11388l-0.0968,0.17351l-0.04362,0.19214l-1.09579,2.44382l-0.44407,1.04211l-0.13472,0.19659l-0.0797,0.22632l-2.14606,3.61429l-0.1878,0.20654l-0.13648,0.25137l-0.61584,0.73426l-0.13553,0.10536l-0.1015,0.14892l-0.51761,0.4991l-0.25029,0.42154l-0.07586,0.08343l-0.01523,0.09449l-0.45596,0.42369l-0.42473,0.46709l-0.08113,0.00295l-0.08144,0.07567l-0.15333,0.08899l-0.19169,0.2108l-0.37569,0.26681l-0.34642,0.3219l-0.24307,0.14108l-0.15348,0.14799l-0.30267,0.18393l-0.27037,0.25124l-0.40669,0.23602l-0.18821,0.14059l-0.3796,0.16398l-0.3606,0.23153l-2.01948,0.6902l-0.72943,0.42333l-0.51141,0.382l-0.19281,0.08329l-0.07821,0.11914l-0.22687,0.05749l-0.05096,0.0586l-0.06041,0.04512l-0.05416,0.05956l-0.0269,0.00098l-1.15131,0.85995l-0.19281,0.08329l-0.0782,0.11913l-0.47795,0.12111l-0.17674,0.07635l-0.02224,0.03388l-0.13596,0.03445l-0.13316,0.05753l-0.02838,-0.01659l-0.18046,0.04573l-0.17674,0.07635l-0.02224,0.03388l-0.13596,0.03445l-0.13316,0.05753l-0.02838,-0.01659l-0.18046,0.04573l-0.46811,0.20222l-0.09977,-0.05831l-0.19686,0.04988l-0.35374,-0.01003l-0.15785,-0.05339l-0.17322,0.01582l-0.96369,-0.19443l-0.26649,-0.14648l-0.01238,-0.00035l-0.50392,-0.17044l-0.50986,-0.15414l-0.05354,-0.03644l-0.063,-0.0213l-0.00885,-0.02756l-0.06866,-0.04673l-0.38789,-0.14272l-0.33955,-0.0685l-0.326,-0.17919l-0.3567,-0.10784l-0.58488,-0.398l-0.11094,-0.02239l-0.326,-0.17919l-0.3567,-0.10784l-0.07249,-0.04932l-0.11094,-0.02239l-0.07952,-0.04371l-0.09349,0.00024l-0.60994,-0.18438l-0.23655,-0.16096l-0.27317,-0.08258l-0.45677,-0.31082l-0.11094,-0.02239l-0.07952,-0.04371l-0.09349,0.00024l-0.60994,-0.18438l-0.23655,-0.16096l-0.27317,-0.08258l-1.09071,-0.74222l-0.52306,-0.19245l-0.18422,-0.14176l-0.22102,-0.06681l-15.75605,-10.72159l-0.24261,-0.29998l-0.28993,-0.23993l-0.57349,-0.85159l-0.02389,-0.06937l-0.11735,-0.07984l-0.02707,0.00313l-0.04475,-0.05201l-0.05354,-0.03644l-0.34678,-0.4288l-0.35805,-0.4161l-0.02965,-0.0633l-0.04335,-0.0536l0.00357,-0.03133l-0.0892,-0.19043l-0.26111,-1.33819l0.66579,-1.24518l0.00055,-0.0049l0.00322,-0.00217l0.41508,-0.7763c-0.36573,-0.49884 -0.52213,-1.17203 -0.45107,-1.87043z" fill="url(#color-3)" stroke="none" stroke-width="0.5"/><path d="M266.72841,114.48754l-0.01661,-0.03049l0.01904,-0.07532c0.01675,-0.40732 0.1187,-0.83188 0.3136,-1.24002l0.38117,-0.79816l0.19368,-0.25777l0.14077,-0.29477l0.23877,-0.31778l0.84521,-1.7699l0.34488,-1.00246l0.09603,-0.16443l0.04645,-0.18368l0.01017,-0.02129l0.01329,-0.07885l-0.0083,-0.33758l0.06707,-0.35921l0.11283,-1.72901l0.05048,-0.18299l-0.00447,-0.18191l0.13808,-0.73955l-0.01167,-0.26786l0.05789,-0.34363l-0.00832,-0.33755l0.30353,-1.62563l0.1597,-0.39543l0.10375,-0.41024l0.08793,-0.18412l0.09795,-0.38733l0.14076,-0.29476l0.07945,-0.31418l0.04314,-0.09033l0.02329,-0.12477l0.15968,-0.39543l0.10375,-0.41025l1.44841,-3.03302l0.19368,-0.25777l0.14077,-0.29477l0.23877,-0.31778l0.31662,-0.663l0.19368,-0.25778l0.14077,-0.29477l0.39501,-0.52571l0.47307,-0.68371l0.11705,-0.11119l0.08131,-0.14629l0.60725,-0.70901l0.41552,-0.60052l0.11705,-0.1112l0.08131,-0.14627l0.57985,-0.67704l0.47174,-0.72167l0.27058,-0.27176l0.22873,-0.31856l0.66539,-0.60906l0.63764,-0.80161l0.18223,-0.14999l0.14335,-0.19965l2.38639,-2.18437l1.30479,-1.52346l0.21934,-0.16663l0.1818,-0.22198l0.6063,-0.48365l0.49421,-0.52217l0.16574,-0.11239l0.13367,-0.1632l0.76373,-0.60922l0.11345,-0.05381l0.09429,-0.0966l0.4147,-0.27121l1.03803,-1.09676l0.08685,-0.05888l0.06498,-0.09049l2.94636,-2.69694l0.82849,-0.96733l0.98932,-1.47458l0.15641,-0.15315l0.11412,-0.19516l1.12434,-1.2539l0.79582,-1.3946l0.09289,-0.10594l0.05713,-0.13241l0.99324,-1.4355l1.0828,-1.65648l1.01222,-1.82097l2.63711,-5.52217l0.44509,-1.19499l0.30065,-1.18883l0.26902,-1.20071l0.01846,-0.04147l0.00187,-0.04374l0.13361,-0.52832l0.10228,-0.74942l0.0263,-0.07518l-0.00187,-0.076l0.13808,-0.73954l-0.01166,-0.26786l0.03092,-0.18341l-0.02688,-0.02272l-0.008,-0.32474l-0.09099,-0.29239l0.07919,-0.18682l-0.01227,-0.49861l0.01337,-0.07161v-0.00424l-0.06436,-0.23006l-0.02634,-0.60486l0.05789,-0.34363l-0.00507,-0.20601l-0.09209,-0.39972l-0.00057,-0.40819l-0.06055,-0.39109l0.02495,-0.38225l0.02783,-0.10087l-0.12637,-0.4061l0.05167,-0.12189l-0.03075,-0.19864l0.02494,-0.38225l0.36145,-1.31032l0.55313,-0.40355l0.34296,-0.64272l1.13205,-0.43346l0.18628,-0.01892l0.0218,-0.01808l0.06127,0.00963l0.06192,-0.00629l0.48605,0.09255l0.49012,0.07716l0.0533,0.02631l0.06075,0.01158l0.01075,0.02374l3.21232,1.58653l1.07996,0.3593l0.93677,0.27191l0.12847,0.08539l0.15353,0.02416l0.65717,0.32456l0.32373,0.05095l0.23548,0.1163l0.26259,0.04132l0.25505,0.12596l0.1943,0.18432l0.23548,0.1163l0.43385,0.41156l0.12661,0.21589l0.17832,0.15876l0.19946,0.31858l0.154,0.02019l0.13516,0.26238l0.20281,0.19239l-0.00335,0.19481l0.20673,0.40131l0.11707,0.13321l0.13355,0.27816l0.18923,0.2264l0.2301,0.50821l0.04389,0.23977l0.10477,0.20339l0.04871,0.21142l0.13531,0.29886l0.04389,0.23977l0.10478,0.20338l0.10258,0.44523l0.00036,0.25291l0.06436,0.23006l0.00442,0.1016l0.03865,0.08535l0.04389,0.23977l0.10477,0.20338l0.10258,0.44523l0.00036,0.25291l0.06437,0.23005l0.04964,1.13988l0.22644,2.41352l-0.04112,0.33961l0.02545,0.32918l-0.07965,0.58367l0.04683,0.49914l-0.04113,0.33963l0.02546,0.32916l-0.11151,0.81706l-0.0365,0.55934l0.00125,0.88959l-0.05915,0.28257l0.00685,0.27834l-0.06707,0.35921l-0.038,0.58228l-0.07723,0.27999l-0.01198,0.28163l-0.86225,3.40954l-0.08275,0.44316l-0.03895,0.09646l-0.00427,0.10028l-0.33003,1.305l-0.08274,0.44316l-0.15969,0.39542l-0.10375,0.41025l-0.16416,0.34375l-0.09795,0.38733l-0.02788,0.05838l-0.00524,0.06263l-0.25364,0.86114l-0.02041,0.03884l-0.00473,0.04259l-0.24194,0.74866l-0.08814,0.64588l-0.0809,0.23129l-0.01985,0.23762l-0.25363,0.86113l-0.02041,0.03885l-0.00473,0.04259l-0.26605,0.82328l-0.16469,0.88208l-0.07879,0.19512l-0.02268,0.20405l-0.26605,0.82328l-0.16469,0.88208l-0.06277,0.15544l-0.01356,0.16229l-0.20719,0.70344l-0.17247,0.92374l-0.03895,0.09646l-0.00427,0.10028l-0.13361,0.52831l-0.05581,0.40897l0.16883,1.79946l0.16079,0.4176l0.04043,0.31127l0.10508,0.27937l0.1122,0.91385l0.75182,3.26324l0.22138,0.57502l0.04532,0.34892l0.10855,0.31891l0.06109,0.65105l0.21779,0.94526l0.00037,0.25292l0.06436,0.23006l0.00757,0.17383l0.13679,0.35527l0.05397,0.41553l0.10941,0.39106l0.0527,1.20972l-0.0274,0.16258l0.02379,0.15374l-0.0348,0.53328l0.05664,0.60363l-0.02832,0.23392l0.03424,0.22113l-0.04989,0.76448l-0.02976,0.10788l0.00818,0.10584l-0.1115,0.81705l-0.09281,1.42232l-0.02976,0.10788l0.00818,0.10584l-0.1115,0.81705l-0.04293,0.65784l-0.02976,0.10788l0.00818,0.10584l-0.12612,0.92414l-0.06016,0.17198l-0.00748,0.17592l-0.08138,0.32175l0.00086,0.60924l-0.05915,0.28257l0.00685,0.27833l-0.20236,1.08377l-0.07879,0.19511l-0.02268,0.20405l-0.2319,0.71758l-0.11523,0.99645l-0.11588,0.35347l-0.05283,0.36185l-0.41313,1.14776l-0.23431,1.0458l-0.0747,0.16785l-0.02335,0.17819l-0.8022,2.33171l-0.32042,0.99152l-0.10802,0.1932l-0.05395,0.2133l-1.67711,3.51191l-0.15669,0.20855l-0.10471,0.24269l-0.50868,0.73519l-0.11705,0.1112l-0.08132,0.14628l-0.43823,0.51168l-0.19561,0.4096l-0.06329,0.08423l-0.00567,0.08688l-0.38748,0.43638l-0.35439,0.47166l-0.07549,0.01246l-0.06921,0.07794l-0.13516,0.0986l-0.15994,0.21286l-0.32672,0.28549l-0.29438,0.33153l-0.21424,0.1563l-0.12994,0.15172l-0.26602,0.20208l-0.22976,0.25876l-0.35845,0.26152l-0.16305,0.14924l-0.33968,0.19343l-0.31582,0.25193l-1.82354,0.86501l-0.6429,0.46905l-0.44304,0.40554l-0.17253,0.09825l-0.06226,0.11666l-0.20668,0.07913l-0.04229,0.0589l-0.05233,0.0479l-0.0452,0.06014l-0.02502,0.00414l-0.9974,0.91295l-0.17252,0.09826l-0.06225,0.11665l-0.4354,0.16672l-0.15815,0.09006l-0.01771,0.03319l-0.12385,0.04741l-0.11915,0.06784l-0.02801,-0.0115l-0.16439,0.06295l-0.15815,0.09006l-0.01771,0.03319l-0.12385,0.04741l-0.11915,0.06784l-0.02801,-0.0115l-0.16439,0.06295l-0.41887,0.23852l-0.09845,-0.04045l-0.17934,0.06867l-0.33127,0.03367l-0.15225,-0.02898l-0.16034,0.03515l-0.9176,-0.05862l-0.26214,-0.09964l-0.0116,0.00119l-0.48603,-0.09255l-0.49011,-0.07714l-0.0533,-0.02632l-0.06076,-0.01158l-0.01075,-0.02374l-0.06835,-0.03377l-0.37518,-0.08159l-0.32331,-0.02065l-0.32068,-0.1219l-0.34288,-0.05399l-0.58224,-0.28757l-0.10564,-0.00674l-0.32068,-0.12189l-0.34288,-0.05397l-0.07215,-0.03564l-0.10564,-0.00674l-0.07822,-0.02973l-0.08728,0.0115l-0.58632,-0.09229l-0.23548,-0.1163l-0.26259,-0.04132l-0.45472,-0.22458l-0.10564,-0.00674l-0.07822,-0.02973l-0.08728,0.0115l-0.58631,-0.09229l-0.23548,-0.1163l-0.26259,-0.04132l-1.0858,-0.53627l-0.50591,-0.11004l-0.18488,-0.10533l-0.21246,-0.03344l-15.68508,-7.74666l-0.25372,-0.24068l-0.29249,-0.18094l-0.61267,-0.69715l-0.02859,-0.05954l-0.11682,-0.0577l-0.025,0.0061l-0.0465,-0.0414l-0.0533,-0.02631l-0.36267,-0.34403l-0.37204,-0.33125l-0.03342,-0.05338l-0.04534,-0.043l0.00049,-0.02862l-0.10054,-0.16061l-0.36497,-1.17281l0.50909,-1.20102l0.00008,-0.00448l0.00281,-0.00234l0.31739,-0.74878c-0.38671,-0.40478 -0.5937,-0.99174 -0.59056,-1.62886z" fill="url(#color-4)" stroke="none" stroke-width="0.5"/><path d="M214.5453,186.96762c0,0 18.88478,-18.19982 27.46741,-30.26738c8.49872,-11.94957 23.7791,-41.7875 23.7791,-41.7875l33.7322,16.91854c0,0 -16.07374,29.22186 -20.78051,43.52233c-4.54272,13.80201 -6.98547,40.83816 -6.98547,40.83816z" fill="url(#color-5)" stroke="none" stroke-width="0"/><path d="M260.83686,124.17613l3.29513,-6.45094l33.89101,17.31146l-3.29513,6.45094z" fill="url(#color-6)" stroke="url(#color-7)" stroke-width="0"/><path d="M254.96162,135.24904l3.29513,-6.45094l33.891,17.31146l-3.29513,6.45094z" fill="url(#color-8)" stroke="url(#color-9)" stroke-width="0"/><path d="M260.08259,217.85098c0,14.98335 0.01372,26.93128 -17.8091,27.12975c-16.49564,0.18369 -17.8091,-12.1464 -17.8091,-27.12975c0,-14.98335 2.64508,-26.92288 17.8091,-27.12975c15.82517,-0.21589 17.8091,12.1464 17.8091,27.12975z" fill="url(#color-10)" stroke="url(#color-11)" stroke-width="0"/><path d="M289.82932,217.95549c0,14.98335 0.01372,26.93128 -17.8091,27.12975c-16.49563,0.18369 -17.8091,-12.1464 -17.8091,-27.12975c0,-14.98335 2.64508,-26.92288 17.8091,-27.12975c15.82517,-0.2159 17.8091,12.1464 17.8091,27.12975z" fill="url(#color-12)" stroke="url(#color-13)" stroke-width="0"/><path d="M240.5167,191.78861v-12.07868h4.07958v12.07868z" fill="#312d29" stroke="url(#color-14)" stroke-width="0"/><path d="M269.32155,192.06815v-12.07868h4.07958v12.07868z" fill="#312d29" stroke="url(#color-15)" stroke-width="0"/><path d="M238.91773,184.49552v-3.56521h35.48265v3.56521z" fill="#36322e" stroke="none" stroke-width="0"/><path d="M186.22599,244.29878v-75.58741h46.61412v75.58741z" fill="url(#color-16)" stroke="url(#color-17)" stroke-width="0"/><path d="M180.476,222.29081v-31.51043h57.11412v31.51043z" fill="url(#color-18)" stroke="url(#color-19)" stroke-width="0"/><path d="M188.833,187.21847v-14.86511h40.61412v14.86511z" fill="url(#color-20)" stroke="url(#color-21)" stroke-width="0"/><path d="M183.226,214.06215v-14.86511h50.36412v14.86511z" fill="url(#color-22)" stroke="url(#color-23)" stroke-width="0"/><path d="M188.833,240.66638v-14.86511h40.61412v14.86511z" fill="url(#color-24)" stroke="url(#color-25)" stroke-width="0"/></g></g></svg>