<svg version="1.1" xmlns="http://www.w3.org/2000/svg" xmlns:xlink="http://www.w3.org/1999/xlink" width="22.65849" height="76.52928" viewBox="0,0,22.65849,76.52928"><defs><linearGradient x1="242.5" y1="142.1375" x2="242.5" y2="218.22083" gradientUnits="userSpaceOnUse" id="color-1"><stop offset="0" stop-color="#373737"/><stop offset="1" stop-color="#1f1f1f"/></linearGradient><linearGradient x1="244.8" y1="141.77917" x2="244.8" y2="179.77917" gradientUnits="userSpaceOnUse" id="color-2"><stop offset="0" stop-color="#383838"/><stop offset="1" stop-color="#323232"/></linearGradient><radialGradient cx="249.4" cy="154.1125" r="9.6" gradientUnits="userSpaceOnUse" id="color-3"><stop offset="0" stop-color="#b1d5ff"/><stop offset="1" stop-color="#56c3ff"/></radialGradient></defs><g transform="translate(-227.34151,-141.77917)"><g data-paper-data="{&quot;isPaintingLayer&quot;:true}" fill-rule="nonzero" stroke-linejoin="miter" stroke-miterlimit="10" stroke-dasharray="" stroke-dashoffset="0" style="mix-blend-mode: normal"><path d="M241.6,217.3125l-11.6,0.2l12,-7.6" data-paper-data="{&quot;index&quot;:null}" fill="none" stroke="#5f5f5f" stroke-width="1.5" stroke-linecap="round"/><path d="M236.875,218.22083c0,0 5,-12.15876 5,-25.30832c0,-5.07456 -0.09012,-13.52073 -0.66025,-23.02488c-0.11896,-1.98318 -2.89999,-3.99623 -3.12177,-5.98549c-1.25575,-11.26355 -1.21798,-21.76464 -1.21798,-21.76464h11.25v71.97501c0,0 -0.31923,1.94311 -0.68303,2.62247c-0.36945,0.68992 -1.51697,1.48585 -1.51697,1.48585z" data-paper-data="{&quot;index&quot;:null}" fill="url(#color-1)" stroke="none" stroke-width="NaN" stroke-linecap="butt"/><path d="M249.39999,176.71251c0,1.90281 -1.27009,3.08568 -2.2015,3.09963c-1.61771,0.02422 -6.64112,0.09943 -6.64112,0.09943c0,0 -0.27115,-5.77461 -1.63296,-10.92621c-0.53778,-2.03442 -2.33376,-12.63405 -2.39204,-14.25416c-0.24102,-6.70007 -0.33237,-12.95203 -0.33237,-12.95203c0,0 7.74605,0 10.2,0c1.30549,0 3,2.0912 3,4.13333c0,4.65416 0,23.36622 0,30.8z" data-paper-data="{&quot;index&quot;:null}" fill="url(#color-2)" stroke="none" stroke-width="0" stroke-linecap="butt"/><path d="M246.2,168.1125v-19.2h3.8v19.2z" data-paper-data="{&quot;index&quot;:null}" fill="url(#color-3)" stroke="none" stroke-width="0" stroke-linecap="butt"/></g></g></svg>