<svg version="1.1" xmlns="http://www.w3.org/2000/svg" xmlns:xlink="http://www.w3.org/1999/xlink" width="59" height="59.70662" viewBox="0,0,59,59.70662"><defs><linearGradient x1="270.00003" y1="151.64672" x2="270.00003" y2="208.35334" gradientUnits="userSpaceOnUse" id="color-1"><stop offset="0" stop-color="#191919"/><stop offset="1" stop-color="#050505"/></linearGradient><linearGradient x1="270.00003" y1="151.64672" x2="270.00003" y2="208.35334" gradientUnits="userSpaceOnUse" id="color-2"><stop offset="0" stop-color="#cccccc"/><stop offset="1" stop-color="#898989"/></linearGradient><radialGradient cx="270.00001" cy="180.00001" r="26.8571" gradientUnits="userSpaceOnUse" id="color-3"><stop offset="0" stop-color="#ffe6ca" stop-opacity="0.35294"/><stop offset="1" stop-color="#ffe6ca" stop-opacity="0"/></radialGradient><linearGradient x1="270.00001" y1="153.29211" x2="270.00001" y2="206.70789" gradientUnits="userSpaceOnUse" id="color-4"><stop offset="0" stop-color="#cccccc"/><stop offset="1" stop-color="#898989"/></linearGradient><linearGradient x1="257.99905" y1="184.13645" x2="282.58259" y2="184.13645" gradientUnits="userSpaceOnUse" id="color-5"><stop offset="0" stop-color="#d0d0d0"/><stop offset="1" stop-color="#727272"/></linearGradient><linearGradient x1="270.00003" y1="202.66323" x2="270.00003" y2="203.11745" gradientUnits="userSpaceOnUse" id="color-6"><stop offset="0" stop-color="#348317"/><stop offset="1" stop-color="#3c5b0d"/></linearGradient><linearGradient x1="249.15819" y1="192.44075" x2="265.31519" y2="192.44075" gradientUnits="userSpaceOnUse" id="color-7"><stop offset="0" stop-color="#5d5d5d"/><stop offset="1" stop-color="#494949"/></linearGradient><linearGradient x1="257.2367" y1="181.99727" x2="257.2367" y2="202.88422" gradientUnits="userSpaceOnUse" id="color-8"><stop offset="0" stop-color="#348317"/><stop offset="1" stop-color="#3c5b0d"/></linearGradient><radialGradient cx="269.77385" cy="187.56978" r="9.40431" gradientUnits="userSpaceOnUse" id="color-9"><stop offset="0" stop-color="#e88c52"/><stop offset="1" stop-color="#ba623d"/></radialGradient><linearGradient x1="273.48875" y1="183.76876" x2="273.48875" y2="202.57571" gradientUnits="userSpaceOnUse" id="color-10"><stop offset="0" stop-color="#348317"/><stop offset="1" stop-color="#3c5b0d"/></linearGradient><radialGradient cx="282.5286" cy="187.97149" r="9.40431" gradientUnits="userSpaceOnUse" id="color-11"><stop offset="0" stop-color="#e88c52"/><stop offset="1" stop-color="#ba623d"/></radialGradient><linearGradient x1="286.25122" y1="183.80499" x2="286.25122" y2="202.61195" gradientUnits="userSpaceOnUse" id="color-12"><stop offset="0" stop-color="#348317"/><stop offset="1" stop-color="#3c5b0d"/></linearGradient><linearGradient x1="273.58682" y1="179.95212" x2="273.58682" y2="184.13873" gradientUnits="userSpaceOnUse" id="color-13"><stop offset="0" stop-color="#348317"/><stop offset="1" stop-color="#3c5b0d"/></linearGradient><linearGradient x1="286.56771" y1="180.04902" x2="286.56771" y2="184.23562" gradientUnits="userSpaceOnUse" id="color-14"><stop offset="0" stop-color="#348317"/><stop offset="1" stop-color="#3c5b0d"/></linearGradient><linearGradient x1="262.84408" y1="167.93548" x2="277.40662" y2="167.93548" gradientUnits="userSpaceOnUse" id="color-15"><stop offset="0" stop-color="#d10000"/><stop offset="1" stop-color="#730000"/></linearGradient><linearGradient x1="270.12536" y1="166.6801" x2="270.12536" y2="169.19087" gradientUnits="userSpaceOnUse" id="color-16"><stop offset="0" stop-color="#348317"/><stop offset="1" stop-color="#3c5b0d"/></linearGradient><linearGradient x1="262.76939" y1="172.27976" x2="277.33191" y2="172.27976" gradientUnits="userSpaceOnUse" id="color-17"><stop offset="0" stop-color="#d10000"/><stop offset="1" stop-color="#730000"/></linearGradient><linearGradient x1="270.05064" y1="171.02435" x2="270.05064" y2="173.53514" gradientUnits="userSpaceOnUse" id="color-18"><stop offset="0" stop-color="#348317"/><stop offset="1" stop-color="#3c5b0d"/></linearGradient><linearGradient x1="247.16518" y1="197.42329" x2="266.9616" y2="197.42329" gradientUnits="userSpaceOnUse" id="color-19"><stop offset="0" stop-color="#6c6c6c"/><stop offset="1" stop-color="#5c5c5c"/></linearGradient><linearGradient x1="257.0634" y1="191.96235" x2="257.0634" y2="202.88422" gradientUnits="userSpaceOnUse" id="color-20"><stop offset="0" stop-color="#348317"/><stop offset="1" stop-color="#3c5b0d"/></linearGradient><linearGradient x1="250.19803" y1="186.65315" x2="264.27536" y2="186.65315" gradientUnits="userSpaceOnUse" id="color-21"><stop offset="0" stop-color="#4687ff"/><stop offset="1" stop-color="#0067ff"/></linearGradient><linearGradient x1="257.2367" y1="184.07694" x2="257.2367" y2="189.22935" gradientUnits="userSpaceOnUse" id="color-22"><stop offset="0" stop-color="#348317"/><stop offset="1" stop-color="#3c5b0d"/></linearGradient><linearGradient x1="248.11838" y1="197.45587" x2="265.57515" y2="197.45587" gradientUnits="userSpaceOnUse" id="color-23"><stop offset="0" stop-color="#4687ff"/><stop offset="1" stop-color="#0067ff"/></linearGradient><linearGradient x1="256.84675" y1="194.87966" x2="256.84675" y2="200.03207" gradientUnits="userSpaceOnUse" id="color-24"><stop offset="0" stop-color="#348317"/><stop offset="1" stop-color="#3c5b0d"/></linearGradient></defs><g transform="translate(-240.50002,-150.14671)"><g data-paper-data="{&quot;isPaintingLayer&quot;:true}" fill-rule="nonzero" stroke-linecap="butt" stroke-linejoin="miter" stroke-miterlimit="10" stroke-dasharray="" stroke-dashoffset="0" style="mix-blend-mode: normal"><path d="M242.00003,208.35334v-56.70662h56v56.70662z" fill="url(#color-1)" stroke="url(#color-2)" stroke-width="3"/><path d="M296.85711,180.00001c0,14.75036 -12.02433,26.70789 -26.8571,26.70789c-14.83277,0 -26.8571,-11.95753 -26.8571,-26.70789c0,-14.75036 12.02433,-26.70789 26.8571,-26.70789c14.83277,0 26.8571,11.95753 26.8571,26.70789z" fill="url(#color-3)" stroke="url(#color-4)" stroke-width="0"/><g stroke-width="0"><path d="M257.99905,202.81888c0,0 3.26746,-10.55847 4.09164,-16.79644c0.81612,-6.17698 0.82949,-20.45019 0.82949,-20.45019l14.44001,-0.11823c0,0 -0.39096,14.19328 0.49433,20.52722c0.85443,6.11317 4.72809,16.83763 4.72809,16.83763z" fill="url(#color-5)" stroke="none"/><path d="M246.69052,203.11745v-0.45423h46.61898v0.45423z" fill="#312d29" stroke="url(#color-6)"/><path d="M249.15819,202.88422v-20.88694h16.15698v20.88694z" fill="url(#color-7)" stroke="url(#color-8)"/><path d="M279.66158,193.17223c0,5.1934 0.00476,9.33469 -6.17284,9.40348c-5.71757,0.06367 -6.17284,-4.21008 -6.17284,-9.40348c0,-5.1934 0.91681,-9.33177 6.17284,-9.40348c5.48518,-0.07483 6.17284,4.21008 6.17284,9.40348z" fill="url(#color-9)" stroke="url(#color-10)"/><path d="M292.42404,193.20847c0,5.1934 0.00476,9.33469 -6.17284,9.40348c-5.71757,0.06367 -6.17284,-4.21008 -6.17284,-9.40348c0,-5.1934 0.91681,-9.33177 6.17284,-9.40348c5.48518,-0.07483 6.17284,4.21008 6.17284,9.40348z" fill="url(#color-11)" stroke="url(#color-12)"/><path d="M272.87982,184.13873v-4.18661h1.41403v4.18661z" fill="#312d29" stroke="url(#color-13)"/><path d="M285.86071,184.23562v-4.18661h1.41403v4.18661z" fill="#312d29" stroke="url(#color-14)"/><path d="M272.32561,181.61086v-1.23574h15.29548v1.23574z" fill="#36322e" stroke="none"/><path d="M262.84408,169.19087v-2.51078h14.56252v2.51078z" fill="url(#color-15)" stroke="url(#color-16)"/><path d="M262.76939,173.53514v-2.51078h14.56252v2.51078z" fill="url(#color-17)" stroke="url(#color-18)"/><path d="M247.16518,202.88422v-10.92187h19.7964v10.92187z" fill="url(#color-19)" stroke="url(#color-20)"/><path d="M250.19803,189.22935v-5.15241h14.07731v5.15241z" fill="url(#color-21)" stroke="url(#color-22)"/><path d="M248.11838,200.03207v-5.15241h17.45677v5.15241z" fill="url(#color-23)" stroke="url(#color-24)"/></g><path d="M245.27329,163.339v-8.69862h27.28649v8.69862z" fill-opacity="0.53453" fill="#000000" stroke="#a60000" stroke-width="0"/><text transform="translate(245.70715,161.6152) scale(0.21839,0.21839)" font-size="40" xml:space="preserve" fill="#ffffff" fill-rule="nonzero" stroke="#000000" stroke-width="0" stroke-linecap="butt" stroke-linejoin="miter" stroke-miterlimit="10" stroke-dasharray="" stroke-dashoffset="0" font-family="Serif" font-weight="normal" text-anchor="start" style="mix-blend-mode: normal"><tspan x="0" dy="0">Factory</tspan></text></g></g></svg>