<svg version="1.1" xmlns="http://www.w3.org/2000/svg" xmlns:xlink="http://www.w3.org/1999/xlink" width="59" height="59.70663" viewBox="0,0,59,59.70663"><defs><linearGradient x1="240" y1="151.64674" x2="240" y2="208.35338" gradientUnits="userSpaceOnUse" id="color-1"><stop offset="0" stop-color="#191919"/><stop offset="1" stop-color="#050505"/></linearGradient><linearGradient x1="240" y1="151.64674" x2="240" y2="208.35338" gradientUnits="userSpaceOnUse" id="color-2"><stop offset="0" stop-color="#cccccc"/><stop offset="1" stop-color="#898989"/></linearGradient><linearGradient x1="240" y1="151.64674" x2="240" y2="208.35337" gradientUnits="userSpaceOnUse" id="color-3"><stop offset="0" stop-color="#191919"/><stop offset="1" stop-color="#050505"/></linearGradient><linearGradient x1="240" y1="151.64674" x2="240" y2="208.35337" gradientUnits="userSpaceOnUse" id="color-4"><stop offset="0" stop-color="#cccccc"/><stop offset="1" stop-color="#898989"/></linearGradient><radialGradient cx="240" cy="180.00006" r="26.8571" gradientUnits="userSpaceOnUse" id="color-5"><stop offset="0" stop-color="#ffffff" stop-opacity="0.35484"/><stop offset="1" stop-color="#ffffff" stop-opacity="0"/></radialGradient><linearGradient x1="240" y1="153.29215" x2="240" y2="206.70795" gradientUnits="userSpaceOnUse" id="color-6"><stop offset="0" stop-color="#cccccc"/><stop offset="1" stop-color="#898989"/></linearGradient><linearGradient x1="222.73024" y1="184.27623" x2="257.26974" y2="184.27623" gradientUnits="userSpaceOnUse" id="color-7"><stop offset="0" stop-color="#9c5555"/><stop offset="1" stop-color="#453131"/></linearGradient><linearGradient x1="222.73024" y1="184.2654" x2="257.26976" y2="184.2654" gradientUnits="userSpaceOnUse" id="color-8"><stop offset="0" stop-color="#272727"/><stop offset="1" stop-color="#000000"/></linearGradient><linearGradient x1="232.41892" y1="169.25052" x2="246.50456" y2="169.25052" gradientUnits="userSpaceOnUse" id="color-9"><stop offset="0" stop-color="#f7d6d6"/><stop offset="1" stop-color="#805e5e"/></linearGradient><linearGradient x1="232.41892" y1="169.24917" x2="246.50456" y2="169.24917" gradientUnits="userSpaceOnUse" id="color-10"><stop offset="0" stop-color="#272727"/><stop offset="1" stop-color="#000000"/></linearGradient><linearGradient x1="230.69113" y1="176.19576" x2="248.71212" y2="176.19576" gradientUnits="userSpaceOnUse" id="color-11"><stop offset="0" stop-color="#452a2a"/><stop offset="1" stop-color="#260f0f"/></linearGradient><linearGradient x1="228.99094" y1="182.11661" x2="250.69635" y2="182.11661" gradientUnits="userSpaceOnUse" id="color-12"><stop offset="0" stop-color="#452a2a"/><stop offset="1" stop-color="#260f0f"/></linearGradient><linearGradient x1="227.39912" y1="187.92982" x2="252.30441" y2="187.92982" gradientUnits="userSpaceOnUse" id="color-13"><stop offset="0" stop-color="#452a2a"/><stop offset="1" stop-color="#260f0f"/></linearGradient><linearGradient x1="225.70348" y1="193.52772" x2="254.14702" y2="193.52772" gradientUnits="userSpaceOnUse" id="color-14"><stop offset="0" stop-color="#452a2a"/><stop offset="1" stop-color="#260f0f"/></linearGradient><linearGradient x1="236.83849" y1="159.65324" x2="242.40051" y2="159.65324" gradientUnits="userSpaceOnUse" id="color-15"><stop offset="0" stop-color="#443939"/><stop offset="1" stop-color="#251e1e"/></linearGradient><linearGradient x1="236.83849" y1="159.65324" x2="242.40051" y2="159.65324" gradientUnits="userSpaceOnUse" id="color-16"><stop offset="0" stop-color="#262626"/><stop offset="1" stop-color="#0f0f0f"/></linearGradient></defs><g transform="translate(-210.5,-150.14675)"><g data-paper-data="{&quot;isPaintingLayer&quot;:true}" fill-rule="nonzero" stroke-linecap="butt" stroke-linejoin="miter" stroke-miterlimit="10" stroke-dasharray="" stroke-dashoffset="0" style="mix-blend-mode: normal"><path d="M212,208.35338v-56.70662h56v56.70662z" fill="url(#color-1)" stroke="url(#color-2)" stroke-width="3"/><path d="M212,208.35337v-56.70662h56v56.70662z" fill="url(#color-3)" stroke="url(#color-4)" stroke-width="3"/><path d="M266.8571,180.00006c0,14.75036 -12.02433,26.70789 -26.8571,26.70789c-14.83277,0 -26.8571,-11.95753 -26.8571,-26.70789c0,-14.75036 12.02433,-26.70789 26.8571,-26.70789c14.83277,0 26.8571,11.95753 26.8571,26.70789z" fill="url(#color-5)" stroke="url(#color-6)" stroke-width="0"/><g stroke-width="1"><path d="M222.73024,201.54668c0,0 11.63212,-42.65709 17.16922,-42.65709c3.55215,0 17.3703,42.65709 17.3703,42.65709z" fill="url(#color-7)" stroke="url(#color-8)"/><path d="M232.41892,171.43561c0,0 5.52252,-12.9291 7.23973,-12.98215c1.56114,-0.04824 6.98047,12.98215 6.98047,12.98215z" fill="url(#color-9)" stroke="url(#color-10)"/><path d="M230.07506,178.40484c0,0 0.29897,-0.69218 0.73818,-1.51591c0.51543,-0.96665 1.3692,-2.11447 4.31938,-2.53736c0.11447,-0.0164 2.26484,-0.25678 2.26484,-0.25678l4.67823,0.01029c0,0 1.61721,0.08241 1.71217,0.09848c2.792,0.4725 3.84043,1.65893 4.42735,2.65094c0.50043,0.84584 0.80491,1.55035 0.80491,1.55035z" data-paper-data="{&quot;index&quot;:null}" fill="url(#color-11)" stroke="#000000"/><path d="M228.24892,184.32571c0,0 0.36011,-0.69218 0.88912,-1.51591c0.62082,-0.96665 1.64913,-2.11447 5.20247,-2.53736c0.13786,-0.0164 2.72789,-0.25678 2.72789,-0.25678l5.6347,0.01029c0,0 1.94784,0.08241 2.06224,0.09848c3.36281,0.4725 4.62562,1.65893 5.33252,2.65094c0.60276,0.84584 0.96949,1.55035 0.96949,1.55035z" data-paper-data="{&quot;index&quot;:null}" fill="url(#color-12)" stroke="#000000"/><path d="M226.54772,190.1389c0,0 0.41318,-0.69218 1.02019,-1.51591c0.71233,-0.96665 1.89226,-2.11447 5.96945,-2.53736c0.1582,-0.0164 3.13006,-0.25678 3.13006,-0.25678l6.4654,0.01029c0,0 2.235,0.08241 2.36625,0.09848c3.85858,0.4725 5.30756,1.65893 6.11866,2.65094c0.69161,0.84584 1.11241,1.55035 1.11241,1.55035z" data-paper-data="{&quot;index&quot;:null}" fill="url(#color-13)" stroke="#000000"/><path d="M224.73113,195.7368c0,0 0.47189,-0.69218 1.16512,-1.51591c0.81353,-0.96665 2.16109,-2.11447 6.81751,-2.53736c0.18066,-0.0164 3.57473,-0.25678 3.57473,-0.25678l7.38392,0.01029c0,0 2.55252,0.08241 2.70242,0.09848c4.40676,0.4725 6.06157,1.65893 6.98793,2.65094c0.78985,0.84584 1.27046,1.55035 1.27046,1.55035z" data-paper-data="{&quot;index&quot;:null}" fill="url(#color-14)" stroke="#000000"/><path d="M242.40051,159.65324c0,0.59455 -1.24511,1.07651 -2.78101,1.07651c-1.5359,0 -2.78101,-0.48198 -2.78101,-1.07651c0,-0.59455 1.24511,-1.07651 2.78101,-1.07651c1.5359,0 2.78101,0.48198 2.78101,1.07651z" fill="url(#color-15)" stroke="url(#color-16)"/></g><path d="M215.27327,163.33901v-8.69862h38.40122v8.69862z" fill-opacity="0.53453" fill="#000000" stroke="#a60000" stroke-width="0"/><text transform="translate(215.70712,161.61522) scale(0.21839,0.21839)" font-size="40" xml:space="preserve" fill="#ffffff" fill-rule="nonzero" stroke="#000000" stroke-width="0" stroke-linecap="butt" stroke-linejoin="miter" stroke-miterlimit="10" stroke-dasharray="" stroke-dashoffset="0" font-family="Serif" font-weight="normal" text-anchor="start" style="mix-blend-mode: normal"><tspan x="0" dy="0">Conqueror</tspan></text></g></g></svg>