<svg version="1.1" xmlns="http://www.w3.org/2000/svg" xmlns:xlink="http://www.w3.org/1999/xlink" width="95.45294" height="104.95831" viewBox="0,0,95.45294,104.95831"><defs><radialGradient cx="238.79273" cy="177.44875" r="22.57159" gradientUnits="userSpaceOnUse" id="color-1"><stop offset="0" stop-color="#3c3c3c"/><stop offset="1" stop-color="#939393"/></radialGradient><linearGradient x1="240.3448" y1="155.78334" x2="240.24093" y2="162.6336" gradientUnits="userSpaceOnUse" id="color-2"><stop offset="0" stop-color="#696969"/><stop offset="1" stop-color="#a0a0a0"/></linearGradient><radialGradient cx="236.65269" cy="133.07256" r="13.11833" gradientUnits="userSpaceOnUse" id="color-3"><stop offset="0" stop-color="#dcdcdc"/><stop offset="1" stop-color="#a0a0a0"/></radialGradient><radialGradient cx="242.13534" cy="140.04108" r="9.85359" gradientUnits="userSpaceOnUse" id="color-4"><stop offset="0" stop-color="#c5dfff"/><stop offset="1" stop-color="#219cff"/></radialGradient><radialGradient cx="231.41171" cy="133.60749" r="10.07074" gradientUnits="userSpaceOnUse" id="color-5"><stop offset="0" stop-color="#303030"/><stop offset="1" stop-color="#292929"/></radialGradient><radialGradient cx="247.88614" cy="130.67708" r="2.65078" gradientUnits="userSpaceOnUse" id="color-6"><stop offset="0" stop-color="#787878"/><stop offset="1" stop-color="#292929"/></radialGradient><radialGradient cx="236.7023" cy="132.67278" r="4.17314" gradientUnits="userSpaceOnUse" id="color-7"><stop offset="0" stop-color="#a7a7a7"/><stop offset="1" stop-color="#292929"/></radialGradient><linearGradient x1="254.0635" y1="195.90539" x2="263.75157" y2="188.89096" gradientUnits="userSpaceOnUse" id="color-8"><stop offset="0" stop-color="#242424"/><stop offset="1" stop-color="#373737"/></linearGradient><radialGradient cx="251.07911" cy="194.02789" r="3.52256" gradientUnits="userSpaceOnUse" id="color-9"><stop offset="0" stop-color="#bfbfbf"/><stop offset="1" stop-color="#9a9a9a"/></radialGradient><linearGradient x1="265.18086" y1="189.79496" x2="307.35407" y2="172.88627" gradientUnits="userSpaceOnUse" id="color-10"><stop offset="0" stop-color="#b2b2b2"/><stop offset="1" stop-color="#c4c4c4"/></linearGradient><linearGradient x1="265.59267" y1="190.01703" x2="293.19577" y2="178.95002" gradientUnits="userSpaceOnUse" id="color-11"><stop offset="0" stop-color="#cccccc"/><stop offset="1" stop-color="#d8d8d8"/></linearGradient><linearGradient x1="262.69105" y1="190.3607" x2="264.97181" y2="189.49276" gradientUnits="userSpaceOnUse" id="color-12"><stop offset="0" stop-color="#b5b5b5"/><stop offset="1" stop-color="#c5c5c5"/></linearGradient></defs><g transform="translate(-218.71488,-129.36807)"><g data-paper-data="{&quot;isPaintingLayer&quot;:true}" fill-rule="nonzero" stroke-linejoin="miter" stroke-miterlimit="10" stroke-dasharray="" stroke-dashoffset="0" style="mix-blend-mode: normal"><path d="M223.48452,199.7908l0.68448,-45.138l29.93194,0.45389l-0.68448,45.138z" fill="url(#color-1)" stroke="#ed6b00" stroke-width="0" stroke-linecap="butt"/><g><path d="M226.12338,227.23573l3.75904,-33.71008c0,0 6.75518,-2.18267 9.822,-2.18267c3.62872,0 0.6063,4.24407 0.6063,4.24407c0,0 -3.09204,0.08829 -3.39803,1.52409c-0.93579,4.39099 -2.78619,30.12458 -2.78619,30.12458z" fill="#494949" stroke="#000000" stroke-width="0" stroke-linecap="butt"/><path d="M218.71489,232.15169c0,0 0.61145,-1.46541 0.87307,-1.98866c0.21362,-0.42723 1.67337,-1.04283 1.67337,-1.04283c0,0 2.87078,-0.52826 4.24057,-0.6468c2.3149,-0.20032 8.24914,-0.08075 8.24914,-0.08075c0,0 0.18654,1.78201 0.16433,2.53701c-0.01648,0.56041 -0.2856,1.5858 -0.2856,1.5858c0,0 -0.80978,0.42493 -2.37463,0.77781c-0.84924,0.19151 -2.6127,-0.20879 -3.78777,-0.02896c-0.93338,0.14284 -1.58295,0.71166 -2.83553,0.76063c-2.06025,0.08055 -4.1116,0.06689 -4.70436,0.06689c-0.8269,0 -1.2126,-1.94015 -1.2126,-1.94015z" data-paper-data="{&quot;index&quot;:null}" fill="#141415" stroke="#000000" stroke-width="0" stroke-linecap="butt"/><path d="M218.98578,231.51703c0,0 0.36892,-2.43548 0.63055,-2.95873c0.21362,-0.42723 1.67337,-1.04283 1.67337,-1.04283c0,0 3.23456,-0.52826 4.60434,-0.6468c0.23296,-0.02016 0.35598,-3.60004 0.35598,-3.60004c0,0 3.28733,0.24389 3.72275,0.23408c0.80976,-0.01824 -0.72604,3.24957 0.12091,3.24981c0.48368,0.00014 2.04996,0.7565 2.80058,0.01889c0.83894,-0.82441 1.32529,-3.03123 1.32529,-3.03123l-0.07637,3.04773c0,0 0.06762,0.96834 -0.80847,1.8858c-0.59976,0.62808 -0.39071,1.79073 -1.26542,2.3793c-1.27187,0.85581 -1.43643,0.91707 -1.78458,0.97035c-0.99967,0.15299 -1.27796,-0.61058 -3.58733,-0.44204c-1.10442,0.0806 -0.74527,1.01524 -3.8809,1.26883c-3.3205,0.26854 -2.36989,-1.33311 -2.61811,-1.33311c-0.8269,0 -1.21259,0 -1.21259,0z" data-paper-data="{&quot;index&quot;:null}" fill="#252527" stroke="#000000" stroke-width="0" stroke-linecap="butt"/><path d="M227.66847,228.57843l-2.66771,-1.09134" data-paper-data="{&quot;index&quot;:null}" fill="none" stroke="#ffffff" stroke-width="0.5" stroke-linecap="round"/><path d="M223.18188,227.4871l2.54644,1.45511" data-paper-data="{&quot;index&quot;:null}" fill="none" stroke="#ffffff" stroke-width="0.5" stroke-linecap="round"/><path d="M222.09054,227.72961l1.45512,1.45512" data-paper-data="{&quot;index&quot;:null}" fill="none" stroke="#ffffff" stroke-width="0.5" stroke-linecap="round"/><path d="M226.6984,224.45562l2.18267,0.24252" data-paper-data="{&quot;index&quot;:null}" fill="none" stroke="#969696" stroke-width="0.5" stroke-linecap="round"/><path d="M228.39603,225.54695l-1.94015,-0.36378" data-paper-data="{&quot;index&quot;:null}" fill="none" stroke="#969696" stroke-width="0.5" stroke-linecap="round"/></g><g><path d="M245.93092,227.32045c0,0 -1.8504,-25.73359 -2.78619,-30.12458c-0.30599,-1.4358 -3.39803,-1.52409 -3.39803,-1.52409c0,0 -3.02242,-4.24407 0.6063,-4.24407c3.06682,0 9.822,2.18267 9.822,2.18267l3.75904,33.71008z" data-paper-data="{&quot;index&quot;:null}" fill="#494949" stroke="#000000" stroke-width="0" stroke-linecap="butt"/><path d="M259.6926,234.32551c-0.59276,0 -2.64411,0.01365 -4.70436,-0.0669c-1.25258,-0.04897 -1.90215,-0.61779 -2.83553,-0.76063c-1.17507,-0.17982 -2.93854,0.22047 -3.78778,0.02896c-1.56485,-0.35288 -2.37463,-0.77782 -2.37463,-0.77782c0,0 -0.26911,-1.0254 -0.2856,-1.5858c-0.02221,-0.75501 0.16433,-2.53701 0.16433,-2.53701c0,0 5.93425,-0.11957 8.24914,0.08076c1.36979,0.11854 4.24057,0.6468 4.24057,0.6468c0,0 1.45976,0.6156 1.67337,1.04283c0.26162,0.52325 0.87307,1.98865 0.87307,1.98865c0,0 -0.3857,1.94015 -1.21259,1.94015z" data-paper-data="{&quot;index&quot;:null}" fill="#141415" stroke="#000000" stroke-width="0" stroke-linecap="butt"/><path d="M259.4217,231.7507c-0.24822,0 0.7024,1.60165 -2.61811,1.33311c-3.13563,-0.25358 -2.77648,-1.18823 -3.8809,-1.26883c-2.30937,-0.16854 -2.58765,0.59503 -3.58732,0.44205c-0.34815,-0.05328 -0.51271,-0.11454 -1.78459,-0.97035c-0.87472,-0.58857 -0.66566,-1.75122 -1.26542,-2.3793c-0.87609,-0.91745 -0.80847,-1.8858 -0.80847,-1.8858l-0.07637,-3.04773c0,0 0.48635,2.20681 1.32529,3.03122c0.75062,0.73761 2.3169,-0.01875 2.80058,-0.01889c0.84696,-0.00024 -0.68885,-3.26804 0.12091,-3.2498c0.43542,0.00981 3.72275,-0.23409 3.72275,-0.23409c0,0 0.12302,3.57989 0.35598,3.60005c1.36979,0.11854 4.60434,0.6468 4.60434,0.6468c0,0 1.45976,0.6156 1.67338,1.04283c0.26162,0.52325 0.63055,2.95873 0.63055,2.95873c0,0 -0.3857,0 -1.2126,0z" data-paper-data="{&quot;index&quot;:null}" fill="#252527" stroke="#000000" stroke-width="0" stroke-linecap="butt"/><path d="M251.95161,228.8121l2.6677,-1.09133" fill="none" stroke="#ffffff" stroke-width="0.5" stroke-linecap="round"/><path d="M256.43821,227.72077l-2.54645,1.45511" fill="none" stroke="#ffffff" stroke-width="0.5" stroke-linecap="round"/><path d="M256.07443,229.4184l1.45512,-1.45511" fill="none" stroke="#ffffff" stroke-width="0.5" stroke-linecap="round"/><path d="M252.92168,224.68929l-2.18266,0.24252" fill="none" stroke="#969696" stroke-width="0.5" stroke-linecap="round"/><path d="M253.16421,225.41684l-1.94015,0.36378" fill="none" stroke="#969696" stroke-width="0.5" stroke-linecap="round"/></g><g stroke="#000000" stroke-width="0" stroke-linecap="butt"><path d="M257.72966,188.17301c0,0 -0.02185,-3.02168 -1.15202,-6.34446c-0.27178,-0.79903 -0.99101,-3.46263 -1.27762,-4.28076c-0.67831,-1.93632 -1.41434,-3.83284 -1.80345,-5.02995c-0.83691,-2.57478 -1.82742,-5.85989 -1.82742,-5.85989c0,0 -1.79173,-6.48209 -0.86069,-6.91851c5.445,-2.55241 6.06917,5.007 6.06917,5.007c0,0 1.48512,4.66923 2.37489,7.40673c0.36213,1.11409 0.10148,2.12889 0.60013,3.87558c0.22353,0.78298 0.7415,4.26482 1.14982,6.37638c0.67985,3.51568 1.43761,5.57054 1.43761,5.57054z" data-paper-data="{&quot;index&quot;:null}" fill="#bdbdbd"/><path d="M263.29171,192.4209c-0.20801,0.01292 0.64979,3.66607 -0.22177,3.78692c-0.42869,0.05944 -0.46462,-2.39443 -1.19797,-3.1089c-0.38817,-0.37819 1.10617,4.1489 -0.09755,3.87583c-0.41324,-0.09376 -0.73918,-3.52106 -1.29026,-4.25584c-0.295,-0.39335 0.98346,5.12919 0.18466,4.99214c-0.47419,-0.08135 -0.59941,-3.23407 -1.15199,-4.56349c-0.2692,-0.64767 0.32149,3.86102 -0.27581,3.63898c-0.36562,-0.13591 -1.15821,-4.50767 -1.20365,-4.55056c-0.25537,-0.24108 -0.48909,2.53513 -0.86379,1.94299c-0.69058,-1.09132 -0.02839,-2.65724 0.45461,-4.10254c0.28222,-0.84443 0.10741,-2.01212 0.10741,-2.01212c0,0 1.49481,-0.74598 2.29008,-0.7793c0.77433,-0.03245 2.42037,0.58194 2.42037,0.58194c0,0 1.28631,4.52657 0.84564,4.55394z" data-paper-data="{&quot;index&quot;:null}" fill="#777777"/></g><g stroke-linecap="butt"><path d="M236.41328,162.57557l0.10388,-6.85026l7.65527,0.11609l-0.10388,6.85026z" fill="url(#color-2)" stroke="#000000" stroke-width="0"/><path d="M253.59323,143.56022c-0.11723,7.73003 -5.94932,13.90947 -13.02637,13.80214c-7.07704,-0.10731 -12.71911,-6.46076 -12.60188,-14.19078c0.11723,-7.73003 5.94932,-13.90946 13.02637,-13.80213c7.07704,0.10731 12.71911,6.46075 12.60188,14.19077z" fill="url(#color-3)" stroke="none" stroke-width="0"/><path d="M254.89088,142.96049c-0.05677,3.74443 -0.08615,8.2134 -9.72616,8.54497c-10.76958,0.37043 -10.02768,-5.09922 -9.97088,-8.84367c0.05677,-3.74443 4.51215,-6.71304 9.95136,-6.63054c5.43919,0.08249 9.80251,3.1848 9.74573,6.92924z" data-paper-data="{&quot;index&quot;:null}" fill="url(#color-4)" stroke="#ed6b00" stroke-width="0"/><path d="M234.10165,133.65781c-0.17006,0.01294 -0.60749,0.053 -1.08108,0.12743c-0.52494,0.19949 -1.13725,0.40052 -1.60717,0.62342c-0.30259,0.88828 0.75959,1.81874 -0.69167,2.465c-2.47512,1.10217 -1.68544,-2.06467 -0.85154,-3.05012c1.28733,-1.08714 3.16202,-1.1916 4.7786,-1.47671c2.22669,-0.39274 4.40026,-1.01674 6.59742,-1.11747c0.08378,-0.08497 0.19751,-0.14112 0.32585,-0.15077l0.58685,-0.044c0.29654,-0.07324 0.6187,-0.14924 0.957,-0.22059c0.8805,-0.26063 1.93709,-0.38691 2.92091,-0.46443c0.48318,-0.0873 0.9353,-0.12473 1.30814,-0.08554c0.27417,-0.01609 0.52914,-0.03129 0.75693,-0.04839l0.61865,-0.0464c0.28178,-0.02114 0.52732,0.19016 0.54844,0.47192c0.0188,0.2508 -0.1465,0.47287 -0.38175,0.53358l-0.33112,0.09245c0.14312,0.124 0.27257,0.26529 0.38602,0.4256l0.23591,-0.11551l0.28875,0.58966c0.03087,0.05951 0.05048,0.12609 0.05581,0.19717c0.02114,0.28178 -0.19016,0.52732 -0.47191,0.54843c-0.0857,0.00642 -0.16802,-0.00864 -0.24173,-0.04065l-0.50395,-0.20645l0.00608,-0.01482l-0.0478,-0.00449c-0.35865,-0.22921 -0.72444,-0.40351 -1.09058,-0.52338c-0.55911,-0.02853 -1.14664,-0.09861 -1.74572,-0.15669c-1.01717,0.15909 -1.94535,0.77306 -2.61848,1.83148c0,0 -0.2755,0.43111 -0.7066,0.1556c-0.4311,-0.2755 -0.15561,-0.70661 -0.15561,-0.70661c0.05891,-0.09178 0.11963,-0.18098 0.18207,-0.2676l-0.28526,0.08621c-0.03819,0.01241 -0.07848,0.02051 -0.12033,0.02364c-0.28178,0.02114 -0.52732,-0.19016 -0.54843,-0.47192c-0.0107,-0.14261 0.03813,-0.27592 0.12551,-0.37557c-0.24509,-0.00323 -0.47675,0.00661 -0.67437,0.05218c-1.38023,0.31834 -3.49409,0.39906 -5.49144,0.67467c0.00755,0.24139 -0.15482,0.45206 -0.38295,0.51094l-0.60024,0.16757l-0.00542,-0.01939l-0.0075,0.00183z" fill="url(#color-5)" stroke="none" stroke-width="0.5"/><path d="M249.25054,130.15608c2.71295,-0.24307 2.68897,-0.20274 2.87605,1.63052c0.18708,1.83325 -0.83283,3.34962 -2.278,3.38686c-1.4452,0.03726 -2.7684,-1.41869 -2.95547,-3.25197c-0.18708,-1.83325 -0.18654,-1.53749 2.35746,-1.76543z" data-paper-data="{&quot;index&quot;:null}" fill="url(#color-6)" stroke="#000000" stroke-width="0"/><path d="M242.59063,132.73625c0.32731,1.99661 -1.23393,3.91465 -3.48716,4.28402c-2.2532,0.36937 -4.34514,-0.94977 -4.67245,-2.94637c-0.32731,-1.99661 -0.3781,-2.03259 3.91002,-2.54243c4.02105,-0.4781 3.92228,-0.7918 4.24959,1.20481z" fill="url(#color-7)" stroke="#000000" stroke-width="0"/></g><path d="M229.66894,193.14884c0,0 0.25138,-5.55653 -0.1867,-10.94791c-0.29765,-3.6634 -1.29905,-6.97969 -1.41809,-9.47598c-0.22345,-4.68526 -0.00757,-13.38389 -0.00757,-13.38389c0,0 3.70022,-0.52872 5.47209,-0.13561c2.25548,0.5004 6.96347,2.89459 6.96347,2.89459c0,0 3.70938,-2.11461 5.6289,-2.50181c2.02534,-0.40855 6.22272,0.11112 6.22272,0.11112c0,0 -0.20879,9.215 -0.41876,12.65139c-0.18577,3.04039 -0.98602,6.35389 -1.34819,10.85373c-0.37327,4.63783 -0.30584,10.4181 -0.30584,10.4181c0,0 -2.745,-0.81103 -5.55852,-0.92192c-1.27772,-0.05036 -1.8063,0.97884 -3.01583,1.11973c-0.96678,0.11259 -2.62663,-0.65281 -3.55081,-0.70358c-0.69864,-0.03839 -2.03549,-0.56153 -2.52961,-0.57313c-0.99771,-0.02344 -1.62866,0.84069 -2.78866,0.98247c-1.34749,0.1647 -3.15859,-0.38732 -3.15859,-0.38732z" fill="#d0d0d0" stroke="#292e32" stroke-width="0" stroke-linecap="butt"/><path d="M243.11354,170.26577l-0.03299,-5.82162l7.63295,0.47956l-0.07906,5.21355z" fill="#f200ff" stroke="none" stroke-width="0" stroke-linecap="butt"/><g stroke="none" stroke-width="0" stroke-linecap="butt"><path d="M254.70768,196.79512l-1.87448,-4.67008l10.27416,-4.1238l1.87448,4.67009z" fill="url(#color-8)"/><path d="M255.42901,192.74228c1.1409,1.5758 0.78838,3.77812 -0.7874,4.919c-1.57579,1.14092 -3.77812,0.78838 -4.91901,-0.7874c-1.14092,-1.5758 -0.78839,-3.77811 0.7874,-4.91901c1.57579,-1.14092 3.77812,-0.78838 4.91902,0.7874z" fill="url(#color-9)"/><path d="M266.91168,194.11185l-3.46163,-8.63389l42.57842,-15.02517l8.13934,-0.71575l-6.18449,5.18871z" fill="url(#color-10)"/><path d="M266.7255,192.84257l-2.46545,-5.94778l35.59659,-12.44817l9.88212,-2.67157l-8.70536,4.8058z" fill="url(#color-11)"/><path d="M262.80226,177.63572c0,0 1.01106,7.94223 2.36646,11.65055c1.4882,4.07158 6.20156,11.79106 6.20156,11.79106c0,0 -7.07622,-7.08072 -8.51957,-11.02967c-1.41196,-3.86302 -0.04842,-12.41195 -0.04842,-12.41195z" fill="url(#color-12)"/></g><g stroke="#000000" stroke-width="0" stroke-linecap="butt"><path d="M244.45897,191.96083c0,0 -1.37025,-2.27602 -4.28472,-5.45352c-1.75047,-1.90844 -4.78056,-4.87478 -5.36297,-5.66628c-1.29925,-1.76563 -2.56294,-2.15184 -3.35089,-3.32925c-1.93613,-2.89304 -5.26861,-7.78969 -5.26861,-7.78969c0,0 -7.21174,-6.27545 0.6454,-11.09771c1.25433,-0.76984 6.097,6.34268 6.097,6.34268c0,0 2.39487,3.38194 4.21589,6.103c0.84666,1.26513 2.07742,3.40838 3.40166,5.51157c0.55952,0.88864 2.57887,3.53327 3.13284,4.39171c2.30369,3.56983 5.32874,5.64716 5.32874,5.64716z" fill="#bdbdbd"/><path d="M248.37786,196.12581c-0.43379,0.49459 -3.81759,-4.06581 -3.81759,-4.06581c0,0 0.89707,-2.33241 1.64358,-3.2121c0.76669,-0.90351 2.8976,-2.13942 2.8976,-2.13942c0,0 1.0176,0.99358 2.13016,1.2363c1.90422,0.41541 4.09537,0.70379 4.56048,2.24631c0.25238,0.83695 -2.76558,-0.76922 -2.75762,-0.30873c0.00142,0.08193 3.684,3.96269 3.4842,4.48039c-0.3264,0.84572 -4.33333,-2.89257 -3.92767,-2.1409c0.83267,1.5429 3.89985,3.82177 3.54487,4.42898c-0.59798,1.02289 -4.99439,-4.20223 -4.86924,-3.59259c0.23378,1.13882 3.39311,3.83719 3.10684,4.38184c-0.83389,1.58642 -4.02643,-3.21661 -4.00247,-2.5087c0.04525,1.33734 2.48922,3.03942 2.03409,3.49838c-0.92538,0.93313 -3.82245,-2.53737 -4.02723,-2.30391z" data-paper-data="{&quot;index&quot;:null}" fill="#777777"/></g></g></g></svg>