<svg version="1.1" xmlns="http://www.w3.org/2000/svg" xmlns:xlink="http://www.w3.org/1999/xlink" width="59" height="59.70662" viewBox="0,0,59,59.70662"><defs><linearGradient x1="270" y1="151.64669" x2="270" y2="208.35331" gradientUnits="userSpaceOnUse" id="color-1"><stop offset="0" stop-color="#191919"/><stop offset="1" stop-color="#050505"/></linearGradient><linearGradient x1="270" y1="151.64669" x2="270" y2="208.35331" gradientUnits="userSpaceOnUse" id="color-2"><stop offset="0" stop-color="#cccccc"/><stop offset="1" stop-color="#898989"/></linearGradient><radialGradient cx="270" cy="180.00001" r="26.8571" gradientUnits="userSpaceOnUse" id="color-3"><stop offset="0" stop-color="#ffffff" stop-opacity="0.35484"/><stop offset="1" stop-color="#ffffff" stop-opacity="0"/></radialGradient><linearGradient x1="270" y1="153.29212" x2="270" y2="206.7079" gradientUnits="userSpaceOnUse" id="color-4"><stop offset="0" stop-color="#cccccc"/><stop offset="1" stop-color="#898989"/></linearGradient><radialGradient cx="275.93687" cy="175.13837" r="15.75544" gradientUnits="userSpaceOnUse" id="color-5"><stop offset="0" stop-color="#f2af94"/><stop offset="1" stop-color="#c77858"/></radialGradient><radialGradient cx="272.97542" cy="202.04656" r="13.56066" gradientUnits="userSpaceOnUse" id="color-6"><stop offset="0" stop-color="#858281"/><stop offset="1" stop-color="#615752"/></radialGradient><linearGradient x1="270.31932" y1="178.02715" x2="268.44113" y2="199.1029" gradientUnits="userSpaceOnUse" id="color-7"><stop offset="0" stop-color="#191919"/><stop offset="1" stop-color="#050505"/></linearGradient><linearGradient x1="270.31932" y1="178.02715" x2="268.44113" y2="199.1029" gradientUnits="userSpaceOnUse" id="color-8"><stop offset="0" stop-color="#efefef"/><stop offset="1" stop-color="#afafaf"/></linearGradient><radialGradient cx="269.34347" cy="188.60744" r="9.23297" gradientUnits="userSpaceOnUse" id="color-9"><stop offset="0" stop-color="#bdff5c" stop-opacity="0.32941"/><stop offset="1" stop-color="#bdff5c" stop-opacity="0"/></radialGradient><linearGradient x1="270.15847" y1="179.46201" x2="268.52846" y2="197.75287" gradientUnits="userSpaceOnUse" id="color-10"><stop offset="0" stop-color="#cccccc"/><stop offset="1" stop-color="#898989"/></linearGradient><radialGradient cx="276.15411" cy="164.61126" r="13.56066" gradientUnits="userSpaceOnUse" id="color-11"><stop offset="0" stop-color="#858281"/><stop offset="1" stop-color="#615752"/></radialGradient><radialGradient cx="273.23545" cy="171.22563" r="7.11909" gradientTransform="translate(-4805.7499,-2546.33334) rotate(-5.09177) scale(17.2831,17.2831)" gradientUnits="userSpaceOnUse" id="color-12"><stop offset="0" stop-color="#4c2c19"/><stop offset="1" stop-color="#000000"/></radialGradient><radialGradient cx="278.89055" cy="174.82109" r="13.76911" gradientTransform="translate(-2460.32497,-1447.49187) rotate(-5.45323) scale(8.94094,9.56566) skewX(-0.74554)" gradientUnits="userSpaceOnUse" id="color-13"><stop offset="0" stop-color="#4c2c19"/><stop offset="1" stop-color="#000000"/></radialGradient><linearGradient x1="275.04933" y1="189.47211" x2="274.3002" y2="188.93166" gradientUnits="userSpaceOnUse" id="color-14"><stop offset="0" stop-color="#fff4c2"/><stop offset="1" stop-color="#fef7d3"/></linearGradient><linearGradient x1="275.00719" y1="188.56349" x2="274.22791" y2="189.06315" gradientUnits="userSpaceOnUse" id="color-15"><stop offset="0" stop-color="#fff4c2"/><stop offset="1" stop-color="#fef7d3"/></linearGradient><linearGradient x1="275.93144" y1="188.77411" x2="275.127" y2="188.59368" gradientUnits="userSpaceOnUse" id="color-16"><stop offset="0" stop-color="#fff4c2"/><stop offset="1" stop-color="#f5eaa6"/></linearGradient><linearGradient x1="275.87283" y1="189.94443" x2="275.26023" y2="189.39536" gradientUnits="userSpaceOnUse" id="color-17"><stop offset="0" stop-color="#fff4c2"/><stop offset="1" stop-color="#f5eaa6"/></linearGradient><linearGradient x1="276.0556" y1="189.34404" x2="275.24424" y2="189.47983" gradientUnits="userSpaceOnUse" id="color-18"><stop offset="0" stop-color="#fff4c2"/><stop offset="1" stop-color="#f5eaa6"/></linearGradient><radialGradient cx="276.36111" cy="190.3282" r="0.4763" gradientUnits="userSpaceOnUse" id="color-19"><stop offset="0" stop-color="#7aff61"/><stop offset="1" stop-color="#7ac149"/></radialGradient><radialGradient cx="276.06737" cy="190.43309" r="0.39503" gradientUnits="userSpaceOnUse" id="color-20"><stop offset="0" stop-color="#7aff61"/><stop offset="1" stop-color="#7ac149"/></radialGradient><radialGradient cx="276.57459" cy="189.65886" r="0.49697" gradientUnits="userSpaceOnUse" id="color-21"><stop offset="0" stop-color="#7aff61"/><stop offset="1" stop-color="#7ac149"/></radialGradient><linearGradient x1="272.87169" y1="188.35034" x2="271.66822" y2="188.72445" gradientUnits="userSpaceOnUse" id="color-22"><stop offset="0" stop-color="#fff4c2"/><stop offset="1" stop-color="#def57d"/></linearGradient><linearGradient x1="271.02723" y1="188.33642" x2="272.01863" y2="189.40023" gradientUnits="userSpaceOnUse" id="color-23"><stop offset="0" stop-color="#6fd62b"/><stop offset="1" stop-color="#ffea82"/></linearGradient><linearGradient x1="273.30719" y1="189.34321" x2="272.20425" y2="188.88609" gradientUnits="userSpaceOnUse" id="color-24"><stop offset="0" stop-color="#fff4c2"/><stop offset="1" stop-color="#f5e87c"/></linearGradient><linearGradient x1="274.06179" y1="187.83927" x2="272.96083" y2="188.0574" gradientUnits="userSpaceOnUse" id="color-25"><stop offset="0" stop-color="#fff4c2"/><stop offset="1" stop-color="#f5eaa6"/></linearGradient><linearGradient x1="273.55674" y1="187.14782" x2="273.03985" y2="188.14408" gradientUnits="userSpaceOnUse" id="color-26"><stop offset="0" stop-color="#fff4c2"/><stop offset="1" stop-color="#f5eaa6"/></linearGradient><linearGradient x1="273.59774" y1="189.88635" x2="272.45499" y2="189.35494" gradientUnits="userSpaceOnUse" id="color-27"><stop offset="0" stop-color="#fff4c2"/><stop offset="1" stop-color="#f5ed93"/></linearGradient><linearGradient x1="274.70898" y1="190.55172" x2="273.64698" y2="190.18858" gradientUnits="userSpaceOnUse" id="color-28"><stop offset="0" stop-color="#fff4c2"/><stop offset="1" stop-color="#f5eaa6"/></linearGradient><linearGradient x1="274.11614" y1="191.16956" x2="273.73687" y2="190.11322" gradientUnits="userSpaceOnUse" id="color-29"><stop offset="0" stop-color="#fff4c2"/><stop offset="1" stop-color="#f5eaa6"/></linearGradient><linearGradient x1="274.1676" y1="189.15293" x2="273.3146" y2="188.91522" gradientUnits="userSpaceOnUse" id="color-30"><stop offset="0" stop-color="#fff8d6"/><stop offset="1" stop-color="#fef3bb"/></linearGradient><radialGradient cx="274.64594" cy="191.73607" r="0.78614" gradientUnits="userSpaceOnUse" id="color-31"><stop offset="0" stop-color="#7aff61"/><stop offset="1" stop-color="#7ac149"/></radialGradient><radialGradient cx="275.57148" cy="191.11885" r="0.76692" gradientUnits="userSpaceOnUse" id="color-32"><stop offset="0" stop-color="#7aff61"/><stop offset="1" stop-color="#7ac149"/></radialGradient><radialGradient cx="274.88057" cy="187.62124" r="0.64983" gradientUnits="userSpaceOnUse" id="color-33"><stop offset="0" stop-color="#7aff61"/><stop offset="1" stop-color="#7ac149"/></radialGradient><radialGradient cx="274.75421" cy="188.0276" r="0.53896" gradientUnits="userSpaceOnUse" id="color-34"><stop offset="0" stop-color="#7aff61"/><stop offset="1" stop-color="#7ac149"/></radialGradient><radialGradient cx="274.3255" cy="186.8398" r="0.67803" gradientUnits="userSpaceOnUse" id="color-35"><stop offset="0" stop-color="#7aff61"/><stop offset="1" stop-color="#7ac149"/></radialGradient><linearGradient x1="275.85716" y1="188.13608" x2="275.21402" y2="188.65186" gradientUnits="userSpaceOnUse" id="color-36"><stop offset="0" stop-color="#fff4c2"/><stop offset="1" stop-color="#f5eaa6"/></linearGradient><radialGradient cx="276.57208" cy="188.70125" r="0.57745" gradientUnits="userSpaceOnUse" id="color-37"><stop offset="0" stop-color="#7aff61"/><stop offset="1" stop-color="#7ac149"/></radialGradient><radialGradient cx="276.61903" cy="187.94557" r="0.56333" gradientUnits="userSpaceOnUse" id="color-38"><stop offset="0" stop-color="#7aff61"/><stop offset="1" stop-color="#7ac149"/></radialGradient><linearGradient x1="271.30143" y1="182.04244" x2="271.80692" y2="182.8586" gradientUnits="userSpaceOnUse" id="color-39"><stop offset="0" stop-color="#fff4c2"/><stop offset="1" stop-color="#fef7d3"/></linearGradient><linearGradient x1="272.24034" y1="182.15259" x2="271.66532" y2="182.92394" gradientUnits="userSpaceOnUse" id="color-40"><stop offset="0" stop-color="#fff4c2"/><stop offset="1" stop-color="#fef7d3"/></linearGradient><linearGradient x1="272.08959" y1="181.17902" x2="272.2178" y2="182.02618" gradientUnits="userSpaceOnUse" id="color-41"><stop offset="0" stop-color="#fff4c2"/><stop offset="1" stop-color="#f5eaa6"/></linearGradient><linearGradient x1="270.87201" y1="181.15415" x2="271.39642" y2="181.8294" gradientUnits="userSpaceOnUse" id="color-42"><stop offset="0" stop-color="#fff4c2"/><stop offset="1" stop-color="#f5eaa6"/></linearGradient><linearGradient x1="271.50782" y1="181.00859" x2="271.30769" y2="181.83981" gradientUnits="userSpaceOnUse" id="color-43"><stop offset="0" stop-color="#fff4c2"/><stop offset="1" stop-color="#f5eaa6"/></linearGradient><radialGradient cx="270.50987" cy="180.61987" r="0.49502" gradientUnits="userSpaceOnUse" id="color-44"><stop offset="0" stop-color="#7aff61"/><stop offset="1" stop-color="#7ac149"/></radialGradient><radialGradient cx="270.37964" cy="180.91673" r="0.41056" gradientUnits="userSpaceOnUse" id="color-45"><stop offset="0" stop-color="#7aff61"/><stop offset="1" stop-color="#7ac149"/></radialGradient><radialGradient cx="271.2194" cy="180.44752" r="0.5165" gradientUnits="userSpaceOnUse" id="color-46"><stop offset="0" stop-color="#7aff61"/><stop offset="1" stop-color="#7ac149"/></radialGradient><linearGradient x1="272.30508" y1="184.3821" x2="271.8292" y2="185.60238" gradientUnits="userSpaceOnUse" id="color-47"><stop offset="0" stop-color="#fff4c2"/><stop offset="1" stop-color="#def57d"/></linearGradient><linearGradient x1="272.18458" y1="186.29529" x2="271.15423" y2="185.18968" gradientUnits="userSpaceOnUse" id="color-48"><stop offset="0" stop-color="#6fd62b"/><stop offset="1" stop-color="#ffea82"/></linearGradient><linearGradient x1="271.30762" y1="183.85797" x2="271.70084" y2="185.03485" gradientUnits="userSpaceOnUse" id="color-49"><stop offset="0" stop-color="#fff4c2"/><stop offset="1" stop-color="#f5e87c"/></linearGradient><linearGradient x1="272.92198" y1="183.18568" x2="272.6153" y2="184.31111" gradientUnits="userSpaceOnUse" id="color-50"><stop offset="0" stop-color="#fff4c2"/><stop offset="1" stop-color="#f5eaa6"/></linearGradient><linearGradient x1="273.60186" y1="183.75986" x2="272.53122" y2="184.22285" gradientUnits="userSpaceOnUse" id="color-51"><stop offset="0" stop-color="#fff4c2"/><stop offset="1" stop-color="#f5eaa6"/></linearGradient><linearGradient x1="270.76579" y1="183.51702" x2="271.23311" y2="184.7406" gradientUnits="userSpaceOnUse" id="color-52"><stop offset="0" stop-color="#fff4c2"/><stop offset="1" stop-color="#f5ed93"/></linearGradient><linearGradient x1="270.15728" y1="182.31631" x2="270.45608" y2="183.44386" gradientUnits="userSpaceOnUse" id="color-53"><stop offset="0" stop-color="#fff4c2"/><stop offset="1" stop-color="#f5eaa6"/></linearGradient><linearGradient x1="269.47339" y1="182.88572" x2="270.54077" y2="183.35619" gradientUnits="userSpaceOnUse" id="color-54"><stop offset="0" stop-color="#fff4c2"/><stop offset="1" stop-color="#f5eaa6"/></linearGradient><linearGradient x1="271.56782" y1="182.9799" x2="271.75187" y2="183.88161" gradientUnits="userSpaceOnUse" id="color-55"><stop offset="0" stop-color="#fff8d6"/><stop offset="1" stop-color="#fef3bb"/></linearGradient><radialGradient cx="268.92484" cy="182.29502" r="0.81702" gradientUnits="userSpaceOnUse" id="color-56"><stop offset="0" stop-color="#7aff61"/><stop offset="1" stop-color="#7ac149"/></radialGradient><radialGradient cx="269.63244" cy="181.38065" r="0.79705" gradientUnits="userSpaceOnUse" id="color-57"><stop offset="0" stop-color="#7aff61"/><stop offset="1" stop-color="#7ac149"/></radialGradient><radialGradient cx="273.20792" cy="182.3528" r="0.67537" gradientUnits="userSpaceOnUse" id="color-58"><stop offset="0" stop-color="#7aff61"/><stop offset="1" stop-color="#7ac149"/></radialGradient><radialGradient cx="272.77739" cy="182.45407" r="0.56013" gradientUnits="userSpaceOnUse" id="color-59"><stop offset="0" stop-color="#7aff61"/><stop offset="1" stop-color="#7ac149"/></radialGradient><radialGradient cx="273.97744" cy="182.98542" r="0.70467" gradientUnits="userSpaceOnUse" id="color-60"><stop offset="0" stop-color="#7aff61"/><stop offset="1" stop-color="#7ac149"/></radialGradient><linearGradient x1="272.74562" y1="181.30268" x2="272.16384" y2="181.93171" gradientUnits="userSpaceOnUse" id="color-61"><stop offset="0" stop-color="#fff4c2"/><stop offset="1" stop-color="#f5eaa6"/></linearGradient><radialGradient cx="272.21199" cy="180.52017" r="0.60014" gradientUnits="userSpaceOnUse" id="color-62"><stop offset="0" stop-color="#7aff61"/><stop offset="1" stop-color="#7ac149"/></radialGradient><radialGradient cx="272.99885" cy="180.52678" r="0.58546" gradientUnits="userSpaceOnUse" id="color-63"><stop offset="0" stop-color="#7aff61"/><stop offset="1" stop-color="#7ac149"/></radialGradient><radialGradient cx="267.79729" cy="191.21334" r="0.67936" gradientUnits="userSpaceOnUse" id="color-64"><stop offset="0" stop-color="#74b95d"/><stop offset="1" stop-color="#58a227"/></radialGradient><radialGradient cx="266.33109" cy="192.72981" r="2.9004" gradientUnits="userSpaceOnUse" id="color-65"><stop offset="0" stop-color="#9fff80"/><stop offset="1" stop-color="#8aff3d"/></radialGradient><radialGradient cx="271.43881" cy="187.96982" r="2.90039" gradientUnits="userSpaceOnUse" id="color-66"><stop offset="0" stop-color="#9fff80"/><stop offset="1" stop-color="#8aff3d"/></radialGradient></defs><g transform="translate(-240.5,-150.14669)"><g data-paper-data="{&quot;isPaintingLayer&quot;:true}" fill-rule="nonzero" stroke-linecap="butt" stroke-linejoin="miter" stroke-miterlimit="10" stroke-dasharray="" stroke-dashoffset="0" style="mix-blend-mode: normal"><path d="M242,208.35331v-56.70662h56v56.70662z" fill="url(#color-1)" stroke="url(#color-2)" stroke-width="3"/><path d="M296.8571,180.00001c0,14.75036 -12.02433,26.70789 -26.8571,26.70789c-14.83277,0 -26.8571,-11.95753 -26.8571,-26.70789c0,-14.75036 12.02433,-26.70789 26.8571,-26.70789c14.83277,0 26.8571,11.95753 26.8571,26.70789z" fill="url(#color-3)" stroke="url(#color-4)" stroke-width="0"/><g><path d="M254.97488,200.12764l2.87301,-32.23897l26.85811,2.39349l-2.87301,32.23897z" fill="url(#color-5)" stroke="none" stroke-width="0"/><path d="M254.70873,202.15001l0.22265,-2.49843l27.01426,2.40741l-0.22265,2.49843z" fill="url(#color-6)" stroke="none" stroke-width="0"/><path d="M258.12805,198.18384l1.87819,-21.07575l20.62615,1.83812l-1.87819,21.07575z" fill="url(#color-7)" stroke="url(#color-8)" stroke-width="1.5"/><path d="M278.53999,189.427c-0.45012,5.05088 -4.93243,8.7785 -10.01153,8.32587c-5.0791,-0.45263 -8.83163,-4.9141 -8.38151,-9.96499c0.45012,-5.05088 4.93243,-8.7785 10.01153,-8.32587c5.0791,0.45263 8.83163,4.9141 8.38151,9.96499z" fill="url(#color-9)" stroke="url(#color-10)" stroke-width="0"/><path d="M257.73461,168.19568l0.5424,-6.08644l1.65713,0.8025l1.77685,-0.49648l1.6558,0.7836l1.76673,-0.4786l1.66574,0.81982l1.75681,-0.51481l1.54168,0.77343l1.72529,-0.48229l1.66901,0.85544l1.75354,-0.55044l1.71399,0.89479l1.88257,-0.60962l1.66132,0.89009l1.68969,-0.66214l1.46858,0.90826l1.62953,-0.52616l-0.5424,6.08644zM267.11306,166.24303c-0.03446,0.5216 0.10769,0.77143 4.33249,1.14421c4.05735,0.358 4.32769,0.1152 4.39129,-0.35981c0.07811,-0.58331 -0.31069,-0.85253 -4.30063,-1.24974c-3.85273,-0.38356 -4.38631,-0.09234 -4.42315,0.46535z" fill="url(#color-11)" stroke="none" stroke-width="0"/><text transform="translate(263.88762,171.42768) rotate(5.09177) scale(0.05786,0.05786)" font-size="40" xml:space="preserve" fill="url(#color-12)" fill-rule="nonzero" stroke="#000000" stroke-width="0.5" stroke-linecap="butt" stroke-linejoin="miter" stroke-miterlimit="10" stroke-dasharray="" stroke-dashoffset="0" font-family="Serif" font-weight="normal" text-anchor="start" style="mix-blend-mode: normal"><tspan x="0" dy="0">Samuel's Seeds</tspan></text><text transform="translate(260.82268,175.07981) rotate(5.09315) scale(0.11191,0.10448) skewX(0.00023)" font-size="40" xml:space="preserve" fill="url(#color-13)" fill-rule="nonzero" stroke="#000000" stroke-width="0.5" stroke-linecap="butt" stroke-linejoin="miter" stroke-miterlimit="10" stroke-dasharray="" stroke-dashoffset="0" font-family="Serif" font-weight="normal" text-anchor="start" style="mix-blend-mode: normal"><tspan x="0" dy="0">BAMBOO</tspan></text><g stroke="none"><g><path d="M275.08167,189.42029l-0.87207,-0.38108c0,0 -0.01849,-0.0066 -0.02856,-0.00927c-0.01035,-0.00275 -0.03275,-0.00697 -0.03275,-0.00697c0,0 0.03074,-0.01891 0.04161,-0.0307c0.01119,-0.01215 0.02461,-0.04112 0.02461,-0.04112c0,0 0.01458,0.01182 0.02238,0.01696c0.00766,0.00506 0.02402,0.01367 0.02402,0.01367l0.87207,0.38108c0,0 0.01946,0.00774 0.02899,0.00982c0.01153,0.00251 0.03473,0.00486 0.03473,0.00486c0,0 -0.03854,0.0206 -0.05037,0.03364c-0.01141,0.01258 -0.01938,0.04327 -0.01938,0.04327c0,0 -0.00995,-0.01247 -0.01776,-0.01836c-0.00724,-0.00546 -0.02751,-0.01581 -0.02751,-0.01581z" data-paper-data="{&quot;index&quot;:null}" fill="url(#color-14)" stroke-width="NaN"/><path d="M275.06513,188.60282c0.00814,-0.00547 0.01877,-0.0174 0.01877,-0.0174c0,0 0.00629,0.03115 0.01702,0.04436c0.01112,0.0137 0.04856,0.03644 0.04856,0.03644c0,0 -0.02334,0.00108 -0.03502,0.00295c-0.00965,0.00154 -0.02955,0.00823 -0.02955,0.00823l-0.89355,0.33343c0,0 -0.01684,0.00771 -0.02479,0.01236c-0.00808,0.00473 -0.02332,0.01575 -0.02332,0.01575c0,0 -0.01183,-0.02974 -0.02236,-0.04251c-0.01022,-0.01239 -0.03994,-0.03301 -0.03994,-0.03301c0,0 0.02263,-0.00299 0.03314,-0.00518c0.01022,-0.00212 0.02909,-0.00771 0.02909,-0.00771l0.89355,-0.33343c0,0 0.02086,-0.00923 0.02841,-0.0143z" data-paper-data="{&quot;index&quot;:null}" fill="url(#color-15)" stroke-width="NaN"/><path d="M275.9547,188.72886l-0.89859,-0.035c0,0 -0.01882,0.0003 -0.02893,0.00111c-0.0104,0.00084 -0.03262,0.00387 -0.03262,0.00387c0,0 0.02674,-0.02159 0.03541,-0.03282c0.00894,-0.01157 0.01744,-0.03562 0.01744,-0.03562c0,0 0.01585,0.00443 0.02416,0.00597c0.00815,0.00152 0.02524,0.00321 0.02524,0.00321l0.89859,0.035c0,0 0.01994,0.00024 0.02943,-0.00085c0.0115,-0.00132 0.03421,-0.00589 0.03421,-0.00589c0,0 -0.034,0.02489 -0.04342,0.03726c-0.00907,0.01193 -0.01207,0.03573 -0.01207,0.03573c0,0 -0.01148,-0.00614 -0.01991,-0.0082c-0.00781,-0.00191 -0.02893,-0.00378 -0.02893,-0.00378z" data-paper-data="{&quot;index&quot;:null}" fill="url(#color-16)" stroke-width="NaN"/><path d="M275.91513,189.91637l-0.76544,-0.46831c0,0 -0.01653,-0.00891 -0.02574,-0.01313c-0.00947,-0.00433 -0.03029,-0.01253 -0.03029,-0.01253c0,0 0.0338,-0.00577 0.04681,-0.01132c0.01342,-0.00572 0.03253,-0.02251 0.03253,-0.02251c0,0 0.01164,0.01158 0.01812,0.01697c0.00637,0.00529 0.02042,0.01509 0.02042,0.01509l0.76544,0.4683c0,0 0.01725,0.00993 0.02605,0.01361c0.01065,0.00445 0.03266,0.01154 0.03266,0.01154c0,0 -0.04173,0.0051 -0.05596,0.01129c-0.01371,0.00597 -0.02792,0.02523 -0.02792,0.02523c0,0 -0.00701,-0.01094 -0.01334,-0.01684c-0.00588,-0.00547 -0.02336,-0.01738 -0.02336,-0.01738z" data-paper-data="{&quot;index&quot;:null}" fill="url(#color-17)" stroke-width="NaN"/><path d="M276.10534,189.38822c0.00851,-0.0016 0.02029,-0.00708 0.02029,-0.00708c0,0 0.00169,0.02388 0.01008,0.03626c0.0087,0.01284 0.04121,0.03949 0.04121,0.03949c0,0 -0.02238,-0.00579 -0.03377,-0.00773c-0.0094,-0.00161 -0.02928,-0.00246 -0.02928,-0.00246l-0.89722,-0.01426c0,0 -0.01711,0.00075 -0.02532,0.00182c-0.00837,0.00108 -0.02439,0.00463 -0.02439,0.00463c0,0 -0.00716,-0.02442 -0.01543,-0.03644c-0.00802,-0.01166 -0.03348,-0.03464 -0.03348,-0.03464c0,0 0.02198,0.00422 0.03229,0.00563c0.01003,0.00136 0.02876,0.00269 0.02876,0.00269l0.89723,0.01426c0,0 0.02114,-0.0007 0.02903,-0.00217z" data-paper-data="{&quot;index&quot;:null}" fill="url(#color-18)" stroke-width="NaN"/><path d="M276.70638,190.65334c0,0 -0.57894,-0.47356 -0.69169,-0.59698c-0.11275,-0.12342 -0.18228,-0.22774 -0.08573,-0.26756c0.09959,-0.04107 0.20981,0.05596 0.32256,0.17938c0.11275,0.12342 0.45485,0.68516 0.45485,0.68516z" fill="url(#color-19)" stroke-width="0"/><path d="M276.16676,190.71908c0,0 -0.26125,-0.51377 -0.30244,-0.63583c-0.0412,-0.12205 -0.05784,-0.21722 0.02263,-0.21532c0.08299,0.00196 0.13059,0.10462 0.17178,0.22668c0.0412,0.12205 0.10802,0.62446 0.10802,0.62446z" fill="url(#color-20)" stroke-width="0"/><path d="M277.00624,189.8575c0,0 -0.62416,-0.21901 -0.75513,-0.2876c-0.13097,-0.06858 -0.22024,-0.13432 -0.15198,-0.19655c0.0704,-0.06419 0.19131,-0.01678 0.32227,0.0518c0.13097,0.06858 0.58484,0.43235 0.58484,0.43235z" fill="url(#color-21)" stroke-width="0"/><path d="M272.84167,188.27258l-1.1304,0.63883c0,0 -0.02235,0.01476 -0.03352,0.02355c-0.01148,0.00904 -0.03443,0.03 -0.03443,0.03c0,0 0.00457,-0.04903 0.00061,-0.07053c-0.00407,-0.02217 -0.02468,-0.06054 -0.02468,-0.06054c0,0 0.02483,-0.00621 0.03685,-0.0105c0.0118,-0.00421 0.0346,-0.015 0.0346,-0.015l1.1304,-0.63884c0,0 0.02439,-0.01488 0.03446,-0.02357c0.01219,-0.01053 0.03377,-0.0339 0.03377,-0.0339c0,0 -0.00912,0.05892 -0.00459,0.08252c0.00437,0.02275 0.03131,0.05661 0.03131,0.05661c0,0 -0.02175,0.00062 -0.03458,0.0043c-0.01189,0.00342 -0.0398,0.01707 -0.0398,0.01707z" data-paper-data="{&quot;index&quot;:null}" fill="url(#color-22)" stroke-width="NaN"/><path d="M270.9696,188.51447l1.20303,0.49914c0,0 0.0258,0.00618 0.04003,0.00678c0.01464,0.00062 0.04662,-0.00314 0.04662,-0.00314c0,0 -0.04878,0.0788 -0.06703,0.12185c-0.0188,0.04435 -0.04418,0.14051 -0.04418,0.14051c0,0 -0.01903,-0.02458 -0.02945,-0.03423c-0.01024,-0.00949 -0.03252,-0.0232 -0.03252,-0.0232l-1.20303,-0.49913c0,0 -0.027,-0.00887 -0.04056,-0.00808c-0.01641,0.00095 -0.04995,0.01086 -0.04995,0.01086c0,0 0.06056,-0.08953 0.08047,-0.13703c0.0192,-0.0458 0.03695,-0.14308 0.03695,-0.14308c0,0 0.01212,0.02991 0.0224,0.04177c0.00953,0.01101 0.03722,0.027 0.03722,0.027z" fill="url(#color-23)" stroke-width="NaN"/><path d="M273.28962,189.19057l-1.06875,0.03681c0,0 -0.02138,0.00417 -0.03222,0.00857c-0.01114,0.00453 -0.03375,0.01821 -0.03375,0.01821c0,0 0.00961,-0.07548 0.00858,-0.11386c-0.00106,-0.03954 -0.01484,-0.12001 -0.01484,-0.12001c0,0 0.02259,0.01188 0.03366,0.01555c0.01087,0.0036 0.0322,0.00626 0.0322,0.00626l1.06874,-0.0368c0,0 0.02319,-0.00258 0.03305,-0.00778c0.01193,-0.0063 0.03362,-0.02512 0.03362,-0.02512c0,0 -0.01475,0.08751 -0.01345,0.12978c0.00126,0.04076 0.02113,0.11948 0.02113,0.11948c0,0 -0.01924,-0.01823 -0.03096,-0.02358c-0.01087,-0.00497 -0.037,-0.0075 -0.037,-0.0075z" data-paper-data="{&quot;index&quot;:null}" fill="url(#color-24)" stroke-width="NaN"/><path d="M274.06586,187.77013l-1.13815,0.45105c0,0 -0.02328,0.01074 -0.03542,0.01732c-0.01248,0.00678 -0.03848,0.02276 -0.03848,0.02276c0,0 0.02141,-0.0416 0.02602,-0.06036c0.00475,-0.01932 0.0021,-0.05394 0.0021,-0.05394c0,0 0.02218,-0.00321 0.03337,-0.00586c0.01099,-0.0026 0.03319,-0.00991 0.03319,-0.00991l1.13814,-0.45105c0,0 0.02496,-0.01067 0.03619,-0.01726c0.01358,-0.00797 0.03936,-0.02616 0.03936,-0.02616c0,0 -0.02864,0.04969 -0.03355,0.07028c-0.00473,0.01985 0.00464,0.05114 0.00464,0.05114c0,0 -0.01769,-0.00132 -0.02931,0.00075c-0.01078,0.00192 -0.0381,0.01123 -0.0381,0.01123z" data-paper-data="{&quot;index&quot;:null}" fill="url(#color-25)" stroke-width="NaN"/><path d="M273.6457,187.12978c0.00523,-0.01058 0.00891,-0.02793 0.00891,-0.02793c0,0 0.02742,0.01772 0.0478,0.01872c0.02114,0.00105 0.07685,-0.01259 0.07685,-0.01259c0,0 -0.02465,0.01968 -0.03611,0.03048c-0.00946,0.00894 -0.02668,0.02992 -0.02668,0.02992l-0.75092,0.96692c0,0 -0.01321,0.01927 -0.01878,0.0291c-0.00567,0.01001 -0.01495,0.0304 -0.01495,0.0304c0,0 -0.03251,-0.01221 -0.05239,-0.01304c-0.0193,-0.0008 -0.06522,0.00813 -0.06522,0.00813c0,0 0.02262,-0.02049 0.03261,-0.03059c0.00972,-0.00982 0.02652,-0.02917 0.02652,-0.02917l0.75092,-0.96692c0,0 0.01658,-0.02363 0.02143,-0.03345z" data-paper-data="{&quot;index&quot;:null}" fill="url(#color-26)" stroke-width="NaN"/><path d="M273.59478,189.98163c0.01222,0.00537 0.03369,0.00889 0.03369,0.00889c0,0 -0.03122,0.02996 -0.03859,0.05192c-0.00764,0.02277 -0.00646,0.08239 -0.00646,0.08239c0,0 -0.01827,-0.02605 -0.02894,-0.03811c-0.00882,-0.00996 -0.03101,-0.02796 -0.03101,-0.02796l-1.035,-0.78401c0,0 -0.02116,-0.01373 -0.03229,-0.01949c-0.01133,-0.00585 -0.03512,-0.01533 -0.03512,-0.01533c0,0 0.02556,-0.03529 0.03255,-0.05671c0.00678,-0.02079 0.00881,-0.06999 0.00881,-0.06999c0,0 0.01996,0.02382 0.03012,0.03432c0.00988,0.01021 0.03007,0.02782 0.03007,0.02782l1.035,0.78401c0,0 0.02582,0.01726 0.03715,0.02223z" data-paper-data="{&quot;index&quot;:null}" fill="url(#color-27)" stroke-width="NaN"/><path d="M274.74003,190.63701c0.01124,0.0036 0.02895,0.00466 0.02895,0.00466c0,0 -0.01345,0.02975 -0.01142,0.05005c0.00212,0.02106 0.02387,0.07413 0.02387,0.07413c0,0 -0.02312,-0.02146 -0.03552,-0.03118c-0.01024,-0.00803 -0.03355,-0.02193 -0.03355,-0.02193l-1.06775,-0.59895c0,0 -0.02102,-0.0102 -0.03157,-0.01424c-0.01074,-0.00412 -0.03229,-0.01026 -0.03229,-0.01026c0,0 0.00725,-0.03396 0.00511,-0.05375c-0.00207,-0.01921 -0.01772,-0.06329 -0.01772,-0.06329c0,0 0.02363,0.01932 0.0351,0.0277c0.01115,0.00815 0.03278,0.0219 0.03278,0.0219l1.06775,0.59895c0,0 0.02583,0.01287 0.03625,0.01621z" data-paper-data="{&quot;index&quot;:null}" fill="url(#color-28)" stroke-width="NaN"/><path d="M274.18512,191.1633l-0.61513,-1.0585c0,0 -0.01408,-0.02142 -0.02239,-0.03245c-0.00855,-0.01134 -0.02823,-0.03468 -0.02823,-0.03468c0,0 0.04431,0.01499 0.06355,0.01677c0.01981,0.00183 0.05366,-0.00593 0.05366,-0.00593c0,0 0.00647,0.02146 0.01076,0.03213c0.00421,0.01048 0.01472,0.03135 0.01472,0.03135l0.61512,1.05851c0,0 0.01426,0.0231 0.02245,0.03321c0.00991,0.01225 0.03172,0.03503 0.03172,0.03503c0,0 -0.05339,-0.02094 -0.07448,-0.02273c-0.02033,-0.00172 -0.04988,0.01217 -0.04988,0.01217c0,0 -0.00133,-0.01768 -0.0051,-0.02887c-0.0035,-0.01038 -0.01677,-0.03601 -0.01677,-0.03601z" data-paper-data="{&quot;index&quot;:null}" fill="url(#color-29)" stroke-width="NaN"/><path d="M274.14098,189.04212l-0.78356,0.12287c0,0 -0.01537,0.00499 -0.02295,0.0092c-0.00781,0.00433 -0.02323,0.01644 -0.02323,0.01644c0,0 0.00031,-0.05643 -0.00389,-0.0846c-0.00432,-0.02902 -0.02169,-0.08703 -0.02169,-0.08703c0,0 0.0177,0.00672 0.02618,0.00843c0.00833,0.00168 0.02427,0.00172 0.02427,0.00172l0.78356,-0.12287c0,0 0.01684,-0.00398 0.02364,-0.00869c0.00822,-0.00571 0.02249,-0.02151 0.02249,-0.02151c0,0 -0.00302,0.06575 0.00173,0.09676c0.00457,0.0299 0.02627,0.08607 0.02627,0.08607c0,0 -0.01579,-0.01169 -0.0249,-0.01459c-0.00845,-0.00269 -0.02792,-0.0022 -0.02792,-0.0022z" data-paper-data="{&quot;index&quot;:null}" fill="url(#color-30)" stroke-width="NaN"/><path d="M274.97095,192.45474c0,0 -0.64663,-0.79358 -0.76401,-0.98996c-0.11738,-0.19637 -0.18205,-0.3553 -0.04168,-0.38225c0.14479,-0.0278 0.26603,0.13251 0.38341,0.32888c0.11738,0.19637 0.42228,1.04332 0.42228,1.04332z" fill="url(#color-31)" stroke-width="0"/><path d="M276.13146,191.36682c0,0 -1.01191,-0.31029 -1.22568,-0.41158c-0.21377,-0.10128 -0.3607,-0.20069 -0.25556,-0.30455c0.10845,-0.10712 0.30479,-0.03904 0.51856,0.06224c0.21377,0.10128 0.96266,0.65389 0.96266,0.65389z" fill="url(#color-32)" stroke-width="0"/><path d="M275.51818,187.51114c0,0 -0.99102,0.2433 -1.21804,0.26512c-0.22702,0.02182 -0.39779,0.01215 -0.36209,-0.12579c0.03683,-0.14228 0.233,-0.18297 0.46003,-0.20479c0.22702,-0.02182 1.1201,0.06545 1.1201,0.06545z" fill="url(#color-33)" stroke-width="0"/><path d="M275.14759,188.15359c0,0 -0.77448,-0.13615 -0.94137,-0.19125c-0.16688,-0.05512 -0.28432,-0.11496 -0.2163,-0.20115c0.07015,-0.08891 0.22115,-0.05669 0.38804,-0.00158c0.16688,0.05512 0.76964,0.39399 0.76964,0.39399z" fill="url(#color-34)" stroke-width="0"/><path d="M274.89593,186.5318c0,0 -0.75044,0.50127 -0.93259,0.5879c-0.18214,0.08663 -0.32702,0.13012 -0.33896,0.00468c-0.01231,-0.12939 0.1385,-0.22241 0.32064,-0.30904c0.18214,-0.08663 0.95091,-0.28353 0.95091,-0.28353z" fill="url(#color-35)" stroke-width="0"/><path d="M275.92228,188.15037c0.00666,-0.00555 0.01427,-0.01612 0.01427,-0.01612c0,0 0.01316,0.02006 0.02655,0.02678c0.01389,0.00698 0.05538,0.01437 0.05538,0.01437c0,0 -0.0224,0.0059 -0.03332,0.00976c-0.00901,0.0032 -0.02681,0.01218 -0.02681,0.01218l-0.79165,0.42657c0,0 -0.0146,0.00902 -0.02125,0.01397c-0.00678,0.00504 -0.01907,0.01599 -0.01907,0.01599c0,0 -0.01821,-0.01785 -0.03132,-0.02433c-0.01273,-0.00627 -0.04623,-0.01391 -0.04623,-0.01391c0,0 0.02128,-0.00706 0.031,-0.01086c0.00945,-0.0037 0.02648,-0.01172 0.02648,-0.01172l0.79165,-0.42657c0,0 0.01815,-0.01095 0.02433,-0.0161z" data-paper-data="{&quot;index&quot;:null}" fill="url(#color-36)" stroke-width="NaN"/><path d="M277.11531,188.90265c0,0 -0.74845,-0.07209 -0.91165,-0.1122c-0.16319,-0.04011 -0.27961,-0.0884 -0.22119,-0.17565c0.06026,-0.08998 0.2066,-0.07052 0.3698,-0.03041c0.16319,0.04011 0.76305,0.31825 0.76305,0.31825z" fill="url(#color-37)" stroke-width="0"/><path d="M277.04992,187.81634c0,0 -0.71278,0.3104 -0.88044,0.35605c-0.16766,0.04564 -0.29713,0.06039 -0.28809,-0.04779c0.00932,-0.11158 0.15138,-0.16743 0.31904,-0.21307c0.16766,-0.04564 0.84949,-0.09519 0.84949,-0.09519z" fill="url(#color-38)" stroke-width="0"/></g><g data-paper-data="{&quot;index&quot;:null}"><path d="M271.34316,181.98301c-0.00554,-0.00852 -0.01775,-0.01975 -0.01775,-0.01975c0,0 0.03241,-0.00603 0.04628,-0.01693c0.01439,-0.01131 0.03857,-0.04976 0.03857,-0.04976c0,0 0.00074,0.02422 0.0025,0.03636c0.00145,0.01003 0.00805,0.03077 0.00805,0.03077l0.33127,0.93197c0,0 0.00773,0.01759 0.01241,0.02591c0.00477,0.00847 0.01595,0.02444 0.01595,0.02444c0,0 -0.03103,0.01179 -0.04444,0.02251c-0.01301,0.0104 -0.03487,0.04088 -0.03487,0.04088c0,0 -0.00274,-0.02351 -0.00482,-0.03445c-0.00203,-0.01064 -0.00752,-0.03029 -0.00752,-0.03029l-0.33127,-0.93196c0,0 -0.00923,-0.02177 -0.01436,-0.02969z" data-paper-data="{&quot;index&quot;:null}" fill="url(#color-39)" stroke-width="NaN"/><path d="M272.1869,182.11807l-0.41105,0.90197c0,0 -0.00718,0.01915 -0.01012,0.02958c-0.00302,0.01074 -0.00778,0.03398 -0.00778,0.03398c0,0 -0.0192,-0.03231 -0.0313,-0.04382c-0.01246,-0.01185 -0.04243,-0.0263 -0.04243,-0.0263c0,0 0.01254,-0.01499 0.01803,-0.02302c0.0054,-0.0079 0.01463,-0.0248 0.01463,-0.0248l0.41105,-0.90197c0,0 0.00838,-0.02014 0.01069,-0.03003c0.0028,-0.01197 0.00563,-0.0361 0.00563,-0.0361c0,0 0.02082,0.04048 0.03422,0.05301c0.01292,0.01208 0.04475,0.02089 0.04475,0.02089c0,0 -0.01315,0.01015 -0.01941,0.01819c-0.00581,0.00745 -0.01691,0.0284 -0.01691,0.0284z" data-paper-data="{&quot;index&quot;:null}" fill="url(#color-40)" stroke-width="NaN"/><path d="M272.13641,181.12793c-0.00152,-0.00888 -0.00705,-0.02124 -0.00705,-0.02124c0,0 0.02489,-0.00137 0.03792,-0.00991c0.01352,-0.00886 0.04179,-0.04227 0.04179,-0.04227c0,0 -0.00639,0.02321 -0.0086,0.03503c-0.00183,0.00976 -0.00304,0.03046 -0.00304,0.03046l-0.02945,0.93413c0,0 0.0005,0.01783 0.00148,0.0264c0.00099,0.00872 0.00442,0.02548 0.00442,0.02548c0,0 -0.02555,0.00705 -0.0382,0.01547c-0.01228,0.00817 -0.03661,0.0343 -0.03661,0.0343c0,0 0.00475,-0.02282 0.00639,-0.03354c0.00159,-0.01042 0.00328,-0.02992 0.00328,-0.02992l0.02945,-0.93414c0,0 -0.00038,-0.02203 -0.00179,-0.03027z" data-paper-data="{&quot;index&quot;:null}" fill="url(#color-41)" stroke-width="NaN"/><path d="M270.88789,181.08686c-0.00565,-0.00699 -0.01649,-0.01507 -0.01649,-0.01507c0,0 0.02101,-0.01332 0.0282,-0.02711c0.00746,-0.0143 0.0158,-0.05718 0.0158,-0.05718c0,0 0.00574,0.02333 0.00958,0.03471c0.00317,0.0094 0.0122,0.028 0.0122,0.028l0.4295,0.8278c0,0 0.00912,0.01528 0.01415,0.02227c0.00511,0.00711 0.01627,0.02003 0.01627,0.02003c0,0 -0.01881,0.01859 -0.02572,0.03208c-0.00671,0.01309 -0.01517,0.04772 -0.01517,0.04772c0,0 -0.00697,-0.02219 -0.01078,-0.03231c-0.00369,-0.00985 -0.01172,-0.02765 -0.01172,-0.02765l-0.4295,-0.8278c0,0 -0.01106,-0.019 -0.01631,-0.02549z" data-paper-data="{&quot;index&quot;:null}" fill="url(#color-42)" stroke-width="NaN"/><path d="M271.46128,180.98373l-0.05085,0.93121c0,0 0,0.01952 0.00069,0.03002c0.0007,0.0108 0.00348,0.03388 0.00348,0.03388c0,0 -0.02195,-0.02807 -0.03345,-0.03724c-0.01186,-0.00945 -0.03665,-0.01865 -0.03665,-0.01865c0,0 0.00485,-0.01637 0.00658,-0.02496c0.00171,-0.00843 0.00373,-0.02612 0.00373,-0.02612l0.05085,-0.93121c0,0 0.00058,-0.02067 -0.00041,-0.03054c-0.00119,-0.01194 -0.00555,-0.03557 -0.00555,-0.03557c0,0 0.02525,0.03566 0.03793,0.04561c0.01223,0.0096 0.03685,0.0131 0.03685,0.0131c0,0 -0.00655,0.01181 -0.00883,0.02051c-0.00211,0.00806 -0.00439,0.02994 -0.00439,0.02994z" data-paper-data="{&quot;index&quot;:null}" fill="url(#color-43)" stroke-width="NaN"/><path d="M270.87509,180.75981c0.11971,0.12591 0.21224,0.24729 0.16237,0.34753c-0.04834,0.09718 -0.15141,0.01747 -0.27111,-0.10845c-0.11971,-0.12591 -0.56831,-0.76075 -0.56831,-0.76075c0,0 0.55734,0.39576 0.67704,0.52167z" fill="url(#color-44)" stroke-width="0"/><path d="M270.7299,180.95044c0.12352,0.05163 0.22647,0.1085 0.22244,0.19468c-0.00391,0.08355 -0.10135,0.05933 -0.22487,0.0077c-0.12352,-0.05163 -0.63705,-0.36005 -0.63705,-0.36005c0,0 0.51596,0.10604 0.63948,0.15768z" fill="url(#color-45)" stroke-width="0"/><path d="M271.45049,180.62343c0.06153,0.14079 0.10182,0.26961 0.03013,0.33789c-0.06951,0.0662 -0.13114,-0.03116 -0.19266,-0.17195c-0.06153,-0.14079 -0.24291,-0.80389 -0.24291,-0.80389c0,0 0.34392,0.49715 0.40544,0.63793z" fill="url(#color-46)" stroke-width="0"/><path d="M272.4041,184.3789c0.00477,-0.01303 0.00699,-0.03554 0.00699,-0.03554c0,0 0.03313,0.03041 0.0564,0.0366c0.02413,0.00643 0.08589,0.00128 0.08589,0.00128c0,0 -0.02582,0.02067 -0.03762,0.03253c-0.00975,0.0098 -0.02696,0.034 -0.02696,0.034l-0.74498,1.12517c0,0 -0.01285,0.02284 -0.01808,0.03477c-0.00532,0.01214 -0.01358,0.03743 -0.01358,0.03743c0,0 -0.03828,-0.02418 -0.06096,-0.03002c-0.02201,-0.00567 -0.07317,-0.00453 -0.07317,-0.00453c0,0 0.02341,-0.02227 0.03361,-0.0335c0.00994,-0.01093 0.02687,-0.03303 0.02687,-0.03303l0.74499,-1.12517c0,0 0.01619,-0.02792 0.0206,-0.04z" data-paper-data="{&quot;index&quot;:null}" fill="url(#color-47)" stroke-width="NaN"/><path d="M272.02104,186.38258c0.01155,0.01153 0.04167,0.02627 0.04167,0.02627c0,0 -0.10215,0.01128 -0.15104,0.02783c-0.05071,0.01717 -0.14796,0.0734 -0.14796,0.0734c0,0 0.01273,-0.03404 0.01492,-0.05099c0.0018,-0.014 -0.00542,-0.04264 -0.00542,-0.04264l-0.42945,-1.28372c0,0 -0.01259,-0.0241 -0.02168,-0.0354c-0.00925,-0.0115 -0.03334,-0.03304 -0.03334,-0.03304c0,0 0.10154,-0.01927 0.1489,-0.03552c0.04597,-0.01577 0.13122,-0.06058 0.13122,-0.06058c0,0 -0.00623,0.03288 -0.00666,0.04809c-0.00042,0.01479 0.00411,0.04199 0.00411,0.04199l0.42945,1.28372c0,0 0.01457,0.02987 0.02527,0.04056z" fill="url(#color-48)" stroke-width="NaN"/><path d="M271.45951,183.84845c-0.0047,-0.01254 -0.02218,-0.03383 -0.02218,-0.03383c0,0 0.08016,0.02637 0.12232,0.03065c0.04373,0.00445 0.13554,-0.00445 0.13554,-0.00445c0,0 -0.0211,0.0211 -0.0285,0.03301c-0.0061,0.00985 -0.01047,0.03369 -0.01047,0.03369l-0.11634,1.10529c0,0 0.00119,0.02229 0.00414,0.03384c0.00299,0.01175 0.01366,0.03603 0.01366,0.03603c0,0 -0.08242,-0.02018 -0.12333,-0.02418c-0.03972,-0.00387 -0.11867,0.00057 -0.11867,0.00057c0,0 0.01584,-0.02244 0.02135,-0.03366c0.00536,-0.01092 0.01125,-0.03277 0.01125,-0.03277l0.11634,-1.1053c0,0 -0.00071,-0.02728 -0.00507,-0.03891z" data-paper-data="{&quot;index&quot;:null}" fill="url(#color-49)" stroke-width="NaN"/><path d="M273.0084,183.14785c0.00299,-0.0119 0.00293,-0.03032 0.00293,-0.03032c0,0 0.03174,0.01199 0.05267,0.00854c0.0217,-0.00358 0.07532,-0.02964 0.07532,-0.02964c0,0 -0.02074,0.02539 -0.03,0.03889c-0.00765,0.01116 -0.02055,0.03626 -0.02055,0.03626l-0.55086,1.14693c0,0 -0.00919,0.02248 -0.0127,0.03368c-0.00356,0.01141 -0.00852,0.03416 -0.00852,0.03416c0,0 -0.0357,-0.00529 -0.05608,-0.00177c-0.01978,0.00341 -0.06447,0.02256 -0.06447,0.02256c0,0 0.01848,-0.02579 0.02642,-0.03823c0.00772,-0.0121 0.02055,-0.03545 0.02055,-0.03545l0.55087,-1.14693c0,0 0.01166,-0.02764 0.01443,-0.03868z" data-paper-data="{&quot;index&quot;:null}" fill="url(#color-50)" stroke-width="NaN"/><path d="M273.59083,183.68873l-1.05734,0.70776c0,0 -0.0213,0.01601 -0.03218,0.02536c-0.01119,0.00962 -0.03411,0.03157 -0.03411,0.03157c0,0 0.01263,-0.04695 0.01319,-0.06702c0.00059,-0.02068 -0.00969,-0.05526 -0.00969,-0.05526c0,0 0.02182,-0.00813 0.03261,-0.01327c0.0106,-0.00505 0.03154,-0.01734 0.03154,-0.01734l1.05736,-0.70776c0,0 0.02301,-0.01631 0.03297,-0.02548c0.01205,-0.01108 0.03425,-0.03521 0.03425,-0.03521c0,0 -0.0182,0.05677 -0.01868,0.07876c-0.00045,0.02121 0.01592,0.05093 0.01592,0.05093c0,0 -0.01826,0.00254 -0.02961,0.00719c-0.01053,0.00431 -0.03624,0.01977 -0.03624,0.01977z" data-paper-data="{&quot;index&quot;:null}" fill="url(#color-51)" stroke-width="NaN"/><path d="M270.68712,183.55328l0.73708,1.13035c0,0 0.01679,0.02222 0.02664,0.03322c0.01014,0.01131 0.03338,0.03374 0.03338,0.03374c0,0 -0.05115,-0.0015 -0.0732,0.00401c-0.02272,0.00568 -0.06117,0.02959 -0.06117,0.02959c0,0 -0.00808,-0.02535 -0.01332,-0.03753c-0.00514,-0.01197 -0.01783,-0.0349 -0.01783,-0.0349l-0.73708,-1.13036c0,0 -0.01705,-0.02432 -0.02672,-0.03419c-0.01171,-0.01195 -0.03739,-0.03279 -0.03739,-0.03279c0,0 0.06172,0.00558 0.08589,-0.00068c0.02331,-0.00603 0.05665,-0.0362 0.05665,-0.0362c0,0 0.00208,0.02253 0.00675,0.03558c0.00433,0.01211 0.02033,0.04015 0.02033,0.04015z" data-paper-data="{&quot;index&quot;:null}" fill="url(#color-52)" stroke-width="NaN"/><path d="M270.08529,182.31666l0.54282,1.15076c0,0 0.01267,0.02344 0.0203,0.0356c0.00784,0.0125 0.02614,0.03842 0.02614,0.03842c0,0 -0.04456,-0.01946 -0.06431,-0.02302c-0.02036,-0.00366 -0.0561,0.00138 -0.0561,0.00138c0,0 -0.00479,-0.0228 -0.00827,-0.03422c-0.00343,-0.01123 -0.01246,-0.03378 -0.01246,-0.03378l-0.54282,-1.15075c0,0 -0.01271,-0.02519 -0.02029,-0.03639c-0.00917,-0.01357 -0.02973,-0.0391 -0.02973,-0.0391c0,0 0.05343,0.02644 0.0751,0.03017c0.0209,0.00359 0.05273,-0.00817 0.05273,-0.00817c0,0 -0.00019,0.01843 0.00272,0.03035c0.0027,0.01106 0.01416,0.03878 0.01416,0.03878z" data-paper-data="{&quot;index&quot;:null}" fill="url(#color-53)" stroke-width="NaN"/><path d="M269.44882,182.79464c-0.01132,-0.00473 -0.02956,-0.0074 -0.02956,-0.0074c0,0 0.01657,-0.02961 0.01628,-0.05082c-0.00031,-0.022 -0.01812,-0.07888 -0.01812,-0.07888c0,0 0.02203,0.02427 0.034,0.03544c0.00989,0.00922 0.0328,0.02571 0.0328,0.02571l1.05237,0.71515c0,0 0.02086,0.01242 0.03142,0.01755c0.01075,0.00522 0.03252,0.0135 0.03252,0.0135c0,0 -0.01053,0.03453 -0.01008,0.05519c0.00043,0.02007 0.01273,0.06711 0.01273,0.06711c0,0 -0.02276,-0.02211 -0.03388,-0.0318c-0.01082,-0.00943 -0.032,-0.02558 -0.032,-0.02558l-1.05237,-0.71515c0,0 -0.0256,-0.01564 -0.0361,-0.02003z" data-paper-data="{&quot;index&quot;:null}" fill="url(#color-54)" stroke-width="NaN"/><path d="M271.68052,182.9865c-0.00234,-0.00966 -0.01331,-0.02688 -0.01331,-0.02688c0,0 0.05666,0.02659 0.08732,0.03353c0.0318,0.00719 0.10018,0.00887 0.10018,0.00887c0,0 -0.01743,0.01364 -0.02395,0.02176c-0.00538,0.0067 -0.01074,0.02387 -0.01074,0.02387l-0.1847,0.80334c0,0 -0.00112,0.01652 0.00001,0.02528c0.00115,0.00892 0.00682,0.02776 0.00682,0.02776c0,0 -0.05887,-0.02224 -0.08864,-0.02885c-0.02889,-0.00641 -0.08741,-0.01021 -0.08741,-0.01021c0,0 0.01367,-0.01511 0.01874,-0.02287c0.00492,-0.00755 0.01121,-0.02312 0.01121,-0.02312l0.18471,-0.80334c0,0 0.00192,-0.02015 -0.00025,-0.0291z" data-paper-data="{&quot;index&quot;:null}" fill="url(#color-55)" stroke-width="NaN"/><path d="M269.2543,182.41962c0.195,0.13606 0.35232,0.27347 0.31291,0.42155c-0.03821,0.14355 -0.19824,0.06488 -0.39324,-0.07118c-0.195,-0.13606 -0.97041,-0.86449 -0.97041,-0.86449c0,0 0.85574,0.37806 1.05074,0.51412z" fill="url(#color-56)" stroke-width="0"/><path d="M270.02379,181.82781c0.08936,0.22903 0.14557,0.43756 0.02659,0.54216c-0.11536,0.10141 -0.20766,-0.0582 -0.29703,-0.28722c-0.08936,-0.22903 -0.33703,-1.30078 -0.33703,-1.30078c0,0 0.51811,0.81682 0.60748,1.04585z" fill="url(#color-57)" stroke-width="0"/><path d="M273.35461,182.86584c-0.03922,0.23376 -0.09577,0.43416 -0.24597,0.46194c-0.14562,0.02693 -0.14314,-0.15081 -0.10391,-0.38458c0.03922,-0.23376 0.36397,-1.24338 0.36397,-1.24338c0,0 0.02515,0.93226 -0.01408,1.16602z" fill="url(#color-58)" stroke-width="0"/><path d="M273.02771,182.86374c0.04493,0.17704 0.06728,0.33595 -0.03003,0.40217c-0.09434,0.06421 -0.14779,-0.06192 -0.19272,-0.23896c-0.04493,-0.17704 -0.12941,-0.98992 -0.12941,-0.98992c0,0 0.30723,0.64968 0.35215,0.82672z" fill="url(#color-59)" stroke-width="0"/><path d="M273.97497,183.38164c-0.10314,0.18249 -0.2106,0.33203 -0.34384,0.30981c-0.12917,-0.02155 -0.07349,-0.16857 0.02965,-0.35106c0.10314,-0.18249 0.6777,-0.92382 0.6777,-0.92382c0,0 -0.26036,0.78258 -0.3635,0.96507z" fill="url(#color-60)" stroke-width="0"/><path d="M272.71707,181.25818l-0.50014,0.78951c0,0 -0.00955,0.01708 -0.01409,0.0266c-0.00466,0.00978 -0.01353,0.03133 -0.01353,0.03133c0,0 -0.00547,-0.03529 -0.01103,-0.04894c-0.00574,-0.01406 -0.02292,-0.03425 -0.02292,-0.03425c0,0 0.01225,-0.01194 0.01797,-0.0186c0.00562,-0.00654 0.01604,-0.02102 0.01604,-0.02102l0.50015,-0.78951c0,0 0.01062,-0.01781 0.01459,-0.02692c0.0048,-0.01102 0.01255,-0.03383 0.01255,-0.03383c0,0 0.00464,0.04354 0.01085,0.05845c0.00599,0.01439 0.02582,0.02949 0.02582,0.02949c0,0 -0.0115,0.00713 -0.01776,0.01362c-0.00579,0.00603 -0.01847,0.02405 -0.01847,0.02405z" data-paper-data="{&quot;index&quot;:null}" fill="url(#color-61)" stroke-width="NaN"/><path d="M272.31706,180.75661c0.02964,0.17212 0.03911,0.32526 -0.05859,0.38115c-0.09472,0.05418 -0.13627,-0.07003 -0.16591,-0.24216c-0.02964,-0.17212 -0.04963,-0.95334 -0.04963,-0.95334c0,0 0.24448,0.64223 0.27411,0.81435z" fill="url(#color-62)" stroke-width="0"/><path d="M273.00352,180.96325c-0.05958,0.17048 -0.12786,0.31367 -0.24422,0.31517c-0.11281,0.00145 -0.08805,-0.1317 -0.02847,-0.30217c0.05958,-0.17048 0.43353,-0.88671 0.43353,-0.88671c0,0 -0.10126,0.70324 -0.16084,0.87372z" fill="url(#color-63)" stroke-width="0"/></g><g><path d="M266.96286,190.64445l0.24969,-0.2327l0.92632,0.994l-0.24969,0.23269z" fill="url(#color-64)" stroke-width="0"/><path d="M262.36789,195.02376l4.45379,-4.15059c0,0 0.07398,-0.10022 0.10142,-0.16248c0.02822,-0.06402 0.06564,-0.21652 0.06564,-0.21652c0,0 0.29064,0.41376 0.46399,0.60222c0.17858,0.19415 0.59226,0.54612 0.59226,0.54612c0,0 -0.14983,0.02434 -0.21378,0.04707c-0.06283,0.02232 -0.1666,0.0881 -0.1666,0.0881l-4.45378,4.15059c0,0 -0.08883,0.09896 -0.10853,0.16161c-0.02384,0.07584 -0.03462,0.25061 -0.03462,0.25061c0,0 -0.32137,-0.49312 -0.51304,-0.70006c-0.18478,-0.19951 -0.61704,-0.52012 -0.61704,-0.52012c0,0 0.16329,0.01988 0.23749,0.00323c0.06881,-0.01544 0.19279,-0.09977 0.19279,-0.09977z" fill="url(#color-65)" stroke-width="NaN"/></g><path d="M267.4756,190.26377l4.45379,-4.15059c0,0 0.07398,-0.10022 0.10142,-0.16248c0.02822,-0.06402 0.06563,-0.21653 0.06563,-0.21653c0,0 0.29065,0.41376 0.464,0.60222c0.17858,0.19415 0.59226,0.54611 0.59226,0.54611c0,0 -0.14983,0.02434 -0.21378,0.04707c-0.06283,0.02232 -0.16661,0.08811 -0.16661,0.08811l-4.45379,4.15059c0,0 -0.08882,0.09895 -0.10852,0.16161c-0.02384,0.07584 -0.03462,0.25061 -0.03462,0.25061c0,0 -0.32138,-0.49312 -0.51304,-0.70006c-0.18478,-0.19951 -0.61704,-0.52012 -0.61704,-0.52012c0,0 0.16329,0.01988 0.23749,0.00323c0.06881,-0.01544 0.1928,-0.09977 0.1928,-0.09977z" fill="url(#color-66)" stroke-width="NaN"/></g></g><path d="M245.27327,163.339v-8.69862h43.69542v8.69862z" fill-opacity="0.53453" fill="#000000" stroke="#a60000" stroke-width="0"/><text transform="translate(245.70712,161.61518) scale(0.21839,0.21839)" font-size="40" xml:space="preserve" fill="#ffffff" fill-rule="nonzero" stroke="none" stroke-width="1" stroke-linecap="butt" stroke-linejoin="miter" stroke-miterlimit="10" stroke-dasharray="" stroke-dashoffset="0" font-family="Serif" font-weight="normal" text-anchor="start" style="mix-blend-mode: normal"><tspan x="0" dy="0">Seed Packet</tspan></text><path d="M245.27327,168.19473v-4.87686h17.56685v4.87686z" fill-opacity="0.53453" fill="#000000" stroke="#a60000" stroke-width="0"/><text transform="translate(245.80436,167.22827) scale(0.12244,0.12244)" font-size="40" xml:space="preserve" fill="#ffffff" fill-rule="nonzero" stroke="none" stroke-width="1" stroke-linecap="butt" stroke-linejoin="miter" stroke-miterlimit="10" stroke-dasharray="" stroke-dashoffset="0" font-family="Serif" font-weight="normal" text-anchor="start" style="mix-blend-mode: normal"><tspan x="0" dy="0">Bamboo</tspan></text></g></g></svg>