<svg version="1.1" xmlns="http://www.w3.org/2000/svg" xmlns:xlink="http://www.w3.org/1999/xlink" width="59" height="59.70667" viewBox="0,0,59,59.70667"><defs><linearGradient x1="240" y1="151.64672" x2="240" y2="208.35336" gradientUnits="userSpaceOnUse" id="color-1"><stop offset="0" stop-color="#191919"/><stop offset="1" stop-color="#050505"/></linearGradient><linearGradient x1="240" y1="151.64672" x2="240" y2="208.35336" gradientUnits="userSpaceOnUse" id="color-2"><stop offset="0" stop-color="#cccccc"/><stop offset="1" stop-color="#898989"/></linearGradient><linearGradient x1="240" y1="151.64669" x2="240" y2="208.35331" gradientUnits="userSpaceOnUse" id="color-3"><stop offset="0" stop-color="#191919"/><stop offset="1" stop-color="#050505"/></linearGradient><linearGradient x1="240" y1="151.64669" x2="240" y2="208.35331" gradientUnits="userSpaceOnUse" id="color-4"><stop offset="0" stop-color="#cccccc"/><stop offset="1" stop-color="#898989"/></linearGradient><radialGradient cx="240" cy="180.00004" r="26.8571" gradientUnits="userSpaceOnUse" id="color-5"><stop offset="0" stop-color="#ffffff" stop-opacity="0.35484"/><stop offset="1" stop-color="#ffffff" stop-opacity="0"/></radialGradient><linearGradient x1="240" y1="153.29213" x2="240" y2="206.70793" gradientUnits="userSpaceOnUse" id="color-6"><stop offset="0" stop-color="#cccccc"/><stop offset="1" stop-color="#898989"/></linearGradient><linearGradient x1="218.43271" y1="180.01351" x2="261.56727" y2="180.01351" gradientUnits="userSpaceOnUse" id="color-7"><stop offset="0" stop-color="#89959f"/><stop offset="1" stop-color="#2a3542"/></linearGradient><linearGradient x1="218.43271" y1="180" x2="261.56728" y2="180" gradientUnits="userSpaceOnUse" id="color-8"><stop offset="0" stop-color="#272727"/><stop offset="1" stop-color="#000000"/></linearGradient><linearGradient x1="229.18798" y1="161.24871" x2="250.47591" y2="161.24871" gradientUnits="userSpaceOnUse" id="color-9"><stop offset="0" stop-color="#f1f5f8"/><stop offset="1" stop-color="#6d7680"/></linearGradient><linearGradient x1="229.18798" y1="161.24701" x2="250.47591" y2="161.24701" gradientUnits="userSpaceOnUse" id="color-10"><stop offset="0" stop-color="#272727"/><stop offset="1" stop-color="#000000"/></linearGradient><linearGradient x1="224.33488" y1="172.2092" x2="256.052" y2="172.2092" gradientUnits="userSpaceOnUse" id="color-11"><stop offset="0" stop-color="#3b4145"/><stop offset="1" stop-color="#171e25"/></linearGradient></defs><g transform="translate(-210.5,-150.14669)"><g data-paper-data="{&quot;isPaintingLayer&quot;:true}" fill-rule="nonzero" stroke-linecap="butt" stroke-linejoin="miter" stroke-miterlimit="10" stroke-dasharray="" stroke-dashoffset="0" style="mix-blend-mode: normal"><path d="M212,208.35336v-56.70662h56v56.70662z" fill="url(#color-1)" stroke="url(#color-2)" stroke-width="3"/><path d="M212,208.35331v-56.70662h56v56.70662z" fill="url(#color-3)" stroke="url(#color-4)" stroke-width="3"/><path d="M266.8571,180.00004c0,14.75036 -12.02433,26.70789 -26.8571,26.70789c-14.83277,0 -26.8571,-11.95753 -26.8571,-26.70789c0,-14.75036 12.02433,-26.70789 26.8571,-26.70789c14.83277,0 26.8571,11.95753 26.8571,26.70789z" fill="url(#color-5)" stroke="url(#color-6)" stroke-width="0"/><path d="M218.43271,201.58168c0,0 2.77416,-44.12308 21.34618,-43.13459c18.68652,-1.31869 21.78841,43.13459 21.78841,43.13459z" fill="url(#color-7)" stroke="url(#color-8)" stroke-width="1.5"/><path d="M229.18798,163.97755c0,0 1.36912,-5.58254 10.53483,-5.45747c9.22223,-0.16684 10.7531,5.45747 10.7531,5.45747z" fill="url(#color-9)" stroke="url(#color-10)" stroke-width="1.5"/><path d="M223.2506,177.65537c0,0 0.52621,-1.70648 1.29922,-3.73726c0.90717,-2.38315 2.40981,-5.2129 7.60216,-6.25549c0.20145,-0.04046 3.98614,-0.63305 3.98614,-0.63305l8.23374,0.02537c0,0 2.84629,0.20316 3.01344,0.2428c4.91392,1.16487 6.75922,4.08985 7.79218,6.5355c0.88077,2.08532 1.41667,3.82213 1.41667,3.82213z" data-paper-data="{&quot;index&quot;:null}" fill="url(#color-11)" stroke="#000000" stroke-width="0"/><path d="M232.03631,172.60136c0,-2.09575 1.69894,-3.7947 3.7947,-3.7947c2.09576,0 3.7947,1.69896 3.7947,3.7947c0,2.09575 -1.69894,3.7947 -3.7947,3.7947c-2.09576,0 -3.7947,-1.69894 -3.7947,-3.7947z" fill="#ff0000" stroke="none" stroke-width="0.5"/><path d="M240.8075,172.68448c0,-2.09575 1.69894,-3.7947 3.7947,-3.7947c2.09576,0 3.7947,1.69896 3.7947,3.7947c0,2.09575 -1.69896,3.7947 -3.7947,3.7947c-2.09576,0 -3.7947,-1.69896 -3.7947,-3.7947z" fill="#4bff00" stroke="none" stroke-width="0.5"/><path d="M215.27327,163.339v-8.69862h22.70127v8.69862z" fill-opacity="0.53453" fill="#000000" stroke="#a60000" stroke-width="0"/><text transform="translate(215.70712,161.6152) scale(0.21839,0.21839)" font-size="40" xml:space="preserve" fill="#ffffff" fill-rule="nonzero" stroke="#000000" stroke-width="0" stroke-linecap="butt" stroke-linejoin="miter" stroke-miterlimit="10" stroke-dasharray="" stroke-dashoffset="0" font-family="Serif" font-weight="normal" text-anchor="start" style="mix-blend-mode: normal"><tspan x="0" dy="0">Cargo</tspan></text></g></g></svg>