<svg version="1.1" xmlns="http://www.w3.org/2000/svg" xmlns:xlink="http://www.w3.org/1999/xlink" width="46.78492" height="104.16593" viewBox="0,0,46.78492,104.16593"><defs><radialGradient cx="226.79379" cy="167.56812" r="20.58604" gradientUnits="userSpaceOnUse" id="color-1"><stop offset="0" stop-color="#ff8700"/><stop offset="1" stop-color="#a77426"/></radialGradient><radialGradient cx="241.62593" cy="166.93512" r="20.58605" gradientUnits="userSpaceOnUse" id="color-2"><stop offset="0" stop-color="#ff8700"/><stop offset="1" stop-color="#a77426"/></radialGradient><linearGradient x1="239.74788" y1="156.06833" x2="239.74788" y2="162.91939" gradientUnits="userSpaceOnUse" id="color-3"><stop offset="0" stop-color="#2b2b2b"/><stop offset="1" stop-color="#3f3f3f"/></linearGradient><radialGradient cx="235.80052" cy="134.5081" r="13.11833" gradientUnits="userSpaceOnUse" id="color-4"><stop offset="0" stop-color="#7bccb1"/><stop offset="1" stop-color="#618c94"/></radialGradient><radialGradient cx="235.80052" cy="134.5081" r="13.11833" gradientUnits="userSpaceOnUse" id="color-5"><stop offset="0" stop-color="#727272"/><stop offset="1" stop-color="#333333"/></radialGradient><radialGradient cx="238.90385" cy="140.20256" r="11.56644" gradientUnits="userSpaceOnUse" id="color-6"><stop offset="0" stop-color="#ffffff" stop-opacity="0.74902"/><stop offset="1" stop-color="#abffe7" stop-opacity="0.56471"/></radialGradient><radialGradient cx="252.48005" cy="167.35378" r="19.42996" gradientUnits="userSpaceOnUse" id="color-7"><stop offset="0" stop-color="#6f8281"/><stop offset="1" stop-color="#576766"/></radialGradient><radialGradient cx="235.77188" cy="168.37063" r="17.31619" gradientUnits="userSpaceOnUse" id="color-8"><stop offset="0" stop-color="#7a908e"/><stop offset="1" stop-color="#576766"/></radialGradient><radialGradient cx="223.04891" cy="167.88492" r="19.92922" gradientUnits="userSpaceOnUse" id="color-9"><stop offset="0" stop-color="#6f8281"/><stop offset="1" stop-color="#576766"/></radialGradient></defs><g transform="translate(-218.58589,-130.87878)"><g data-paper-data="{&quot;isPaintingLayer&quot;:true}" fill-rule="nonzero" stroke-linejoin="miter" stroke-miterlimit="10" stroke-dasharray="" stroke-dashoffset="0" style="mix-blend-mode: normal"><g stroke="none" stroke-width="0" stroke-linecap="butt"><path d="M237.44528,176.57589c-0.32393,21.49106 -0.0929,21.92253 -7.52773,21.814c-7.84376,-0.1145 -7.60283,-0.76234 -7.52773,-21.814c0.07862,-22.03858 0.60596,-21.65002 7.52773,-21.814c7.33196,-0.1737 7.85978,-0.2156 7.52773,21.814z" fill="url(#color-1)"/><path d="M252.27741,175.94289c-0.32393,21.49106 -0.0929,21.92253 -7.52773,21.814c-7.84376,-0.1145 -7.60283,-0.76235 -7.52773,-21.814c0.07862,-22.03858 0.60596,-21.65001 7.52773,-21.81399c7.33196,-0.1737 7.85977,-0.21561 7.52773,21.81399z" fill="url(#color-2)"/></g><g><path d="M239.08077,192.541c3.59875,-0.46544 10.74239,0.81148 10.74239,0.81148l7.33035,33.04279l-7.57623,0.97988c0,0 -4.59172,-25.15701 -5.81356,-29.0645c-0.34629,-1.10743 -3.53727,-1.63839 -3.53727,-1.63839c0,0 -4.18715,-3.73787 -1.14567,-4.13124z" fill="#343331" stroke="#000000" stroke-width="0" stroke-linecap="butt"/><path d="M264.4171,232.60466c-0.58786,0.07603 -2.62051,0.3527 -4.67408,0.53707c-1.24852,0.11211 -1.96568,-0.3687 -2.90966,-0.39063c-1.18843,-0.0276 -2.88598,0.59557 -3.75278,0.51457c-1.59719,-0.14924 -2.45479,-0.46681 -2.45479,-0.46681c0,0 -0.39841,-0.98242 -0.48664,-1.53607c-0.11888,-0.74592 -0.16244,-2.53713 -0.16244,-2.53713c0,0 5.8699,-0.87975 8.19136,-0.978c1.37369,-0.05814 4.2885,0.09752 4.2885,0.09752c0,0 1.52666,0.42328 1.7933,0.81957c0.32657,0.48537 1.12094,1.86023 1.12094,1.86023c0,0 -0.13366,1.9736 -0.95372,2.07966z" data-paper-data="{&quot;index&quot;:null}" fill="#141415" stroke="#000000" stroke-width="0" stroke-linecap="butt"/><path d="M263.81817,230.08588c-0.24617,0.03184 0.90203,1.49832 -2.42549,1.65792c-3.14225,0.15071 -2.90596,-0.82229 -4.01159,-0.76056c-2.31191,0.12907 -2.48995,0.92202 -3.50098,0.89853c-0.3521,-0.00818 -0.52317,-0.04782 -1.89431,-0.73344c-0.94298,-0.47151 -0.88478,-1.65137 -1.56015,-2.19733c-0.98653,-0.7975 -1.04368,-1.76652 -1.04368,-1.76652l-0.46667,-3.01277c0,0 0.76539,2.1262 1.70315,2.83619c0.83903,0.63524 2.29536,-0.31578 2.77503,-0.37795c0.83994,-0.10888 -1.10234,-3.15269 -0.29694,-3.23847c0.43308,-0.04613 3.66198,-0.70966 3.66198,-0.70966c0,0 0.58119,3.53453 0.81481,3.52464c1.37369,-0.05814 4.64927,0.05087 4.64927,0.05087c0,0 1.52666,0.42328 1.79331,0.81957c0.32657,0.48537 1.00485,2.85341 1.00485,2.85341c0,0 -0.38251,0.04947 -1.20258,0.15554z" data-paper-data="{&quot;index&quot;:null}" fill="#252527" stroke="#000000" stroke-width="0" stroke-linecap="butt"/><path d="M256.03285,228.12972l2.50568,-1.4245" fill="none" stroke="#ffffff" stroke-width="0.5" stroke-linecap="round"/><path d="M258.00364,228.24163l2.33878,-1.76971" fill="none" stroke="#ffffff" stroke-width="0.5" stroke-linecap="round"/><path d="M260.19939,228.20217l1.25646,-1.62973" fill="none" stroke="#ffffff" stroke-width="0.5" stroke-linecap="round"/><path d="M254.33257,224.43701l2.13352,-0.52048" fill="none" stroke="#969696" stroke-width="0.5" stroke-linecap="round"/><path d="M256.79993,224.60697l-1.87745,0.60964" fill="none" stroke="#969696" stroke-width="0.5" stroke-linecap="round"/></g><path d="M235.9198,162.91939v-6.85104h7.65615v6.85104z" fill="url(#color-3)" stroke="#000000" stroke-width="0" stroke-linecap="butt"/><g stroke="none" stroke-linecap="butt"><path d="M252.95749,144.18413c0.04509,7.3914 -5.65598,13.41832 -12.73371,13.4615c-7.07773,0.04318 -12.85192,-5.91372 -12.89701,-13.30512c-0.04509,-7.3914 5.65598,-13.41832 12.73371,-13.4615c7.07773,-0.04318 12.85192,5.91372 12.89701,13.30512z" fill="url(#color-4)" stroke-width="0"/><path d="M252.95749,144.18413c0.04509,7.3914 -5.65598,13.41832 -12.73371,13.4615c-7.07773,0.04318 -12.85192,-5.91372 -12.89701,-13.30512c-0.04509,-7.3914 5.65598,-13.41832 12.73371,-13.4615c7.07773,-0.04318 12.85192,5.91372 12.89701,13.30512zM252.67416,143.3062c-0.03369,-5.52275 -4.53807,-9.9725 -10.06082,-9.9388c-0.69723,0.00425 -1.37737,0.07977 -2.03354,0.21958c-0.07261,-0.00112 -0.1454,-0.00145 -0.21837,-0.001c-5.52275,0.03369 -9.9725,4.53807 -9.9388,10.06082c0.00937,1.53593 0.36452,2.98885 0.99119,4.28544c1.31672,3.37742 4.41523,5.85958 8.13404,6.29905c0.9751,0.30996 2.01473,0.47436 3.0932,0.46778c5.4863,-0.03347 9.91373,-4.47883 9.93889,-9.95163c0.065,-0.47081 0.09719,-0.95203 0.09421,-1.44124z" fill="url(#color-5)" stroke-width="0"/><path d="M245.49316,150.76296c-0.98807,0.15405 -1.14211,-0.83401 -1.14211,-0.83401l-0.04734,-0.30359c-0.19431,-1.25138 -0.28453,-2.49449 -0.37501,-3.75718c0,0 -0.07147,-0.99745 0.92598,-1.06891c0.99745,-0.07147 1.06892,0.92598 1.06892,0.92598c0.08651,1.20734 0.16889,2.39578 0.35623,3.592l0.04734,0.30359c0,0 0.15406,0.98807 -0.83401,1.14212z" fill="#191412" stroke-width="0.5"/><path d="M248.8659,145.25798c-0.36829,-1.30849 1.70814,-4.13433 1.70814,-4.13433c0,0 2.03653,2.44202 2.07385,4.08318c0.0397,1.74614 -3.33134,1.6523 -3.78199,0.05115z" fill="#191412" stroke-width="0.5"/><path d="M235.77059,145.02807c-0.27584,-1.38446 2.59603,-4.05527 2.59603,-4.05527c0,0 2.35166,2.49321 2.14913,4.16906c-0.21548,1.78304 -4.40764,1.58033 -4.74518,-0.11378z" data-paper-data="{&quot;index&quot;:null}" fill="#191412" stroke-width="0.5"/><g fill="#00ffcc" stroke-width="0.5"><path d="M241.7161,137.82844c-0.0024,-0.39455 0.31547,-0.71633 0.71002,-0.71874c0.39455,-0.0024 0.71633,0.31547 0.71874,0.71002c0.0024,0.39455 -0.31547,0.71633 -0.71002,0.71874c-0.39455,0.0024 -0.71633,-0.31547 -0.71874,-0.71002z"/><path d="M243.67416,134.96294c-0.0024,-0.39455 0.31547,-0.71634 0.71002,-0.71875c0.39455,-0.0024 0.71633,0.31548 0.71874,0.71003c0.0024,0.39455 -0.31547,0.71633 -0.71002,0.71874c-0.39455,0.0024 -0.71633,-0.31547 -0.71874,-0.71002z"/><path d="M245.66749,137.87751c-0.0024,-0.39455 0.31547,-0.71633 0.71002,-0.71874c0.39455,-0.0024 0.71633,0.31547 0.71874,0.71002c0.0024,0.39455 -0.31547,0.71633 -0.71002,0.71874c-0.39455,0.0024 -0.71633,-0.31547 -0.71874,-0.71002z"/></g><path d="M253.58322,143.87107c0.03679,6.0287 -5.11177,10.94751 -11.49963,10.98649c-6.38786,0.03897 -11.59604,-4.81665 -11.63282,-10.84535c-0.03679,-6.0287 5.11177,-10.94751 11.49963,-10.98649c6.38786,-0.03897 11.59604,4.81665 11.63282,10.84535z" fill="url(#color-6)" stroke-width="0"/></g><g><path d="M221.65791,225.99823l8.42595,-32.85579c0,0 6.99365,-1.21875 10.03046,-0.79082c3.59322,0.50633 0.00818,4.28716 0.00818,4.28716c0,0 -3.07412,-0.34403 -3.57746,1.03504c-1.53933,4.21746 -6.96232,29.44112 -6.96232,29.44112z" fill="#343331" stroke="#000000" stroke-width="0" stroke-linecap="butt"/><path d="M236.41365,233.2876c0,0 -0.65264,1.86735 -1.47146,1.75197c-0.58697,-0.08271 -2.62014,-0.35541 -4.64901,-0.72264c-1.23349,-0.22326 -1.79734,-0.87715 -2.70166,-1.14885c-1.13849,-0.34203 -2.94055,-0.19171 -3.75476,-0.49985c-1.50031,-0.56777 -2.24288,-1.10154 -2.24288,-1.10154c0,0 -0.12342,-1.05291 -0.06154,-1.61013c0.08334,-0.75071 0.51671,-2.48926 0.51671,-2.48926c0,0 5.89287,0.70963 8.15718,1.23099c1.33985,0.30851 4.10883,1.23217 4.10883,1.23217c0,0 1.35957,0.81327 1.51149,1.26611c0.18604,0.55463 0.58704,2.09104 0.58704,2.09104z" data-paper-data="{&quot;index&quot;:null}" fill="#141415" stroke="#000000" stroke-width="0" stroke-linecap="butt"/><path d="M236.23394,232.62137c0,0 -0.38191,-0.05381 -1.20073,-0.1692c-0.2458,-0.03463 0.47204,1.68399 -2.77851,0.95476c-3.06957,-0.68863 -2.58352,-1.56401 -3.6659,-1.79793c-2.26326,-0.48913 -2.64537,0.22814 -3.61391,-0.06283c-0.3373,-0.10134 -0.49172,-0.18497 -1.63173,-1.20986c-0.78402,-0.70487 -0.41479,-1.82697 -0.92105,-2.53259c-0.73951,-1.03074 -0.53743,-1.98016 -0.53743,-1.98016l0.34964,-3.02857c0,0 0.17366,2.2531 0.88937,3.18651c0.64036,0.83512 2.29686,0.30472 2.77582,0.37206c0.83871,0.11794 -0.22611,-3.3322 0.57318,-3.20114c0.42979,0.07047 3.71899,0.28766 3.71899,0.28766c0,0 -0.3777,3.56202 -0.14983,3.61449c1.33984,0.30851 4.46904,1.28293 4.46904,1.28293c0,0 1.35957,0.81327 1.51149,1.26611c0.18605,0.55465 0.21154,3.01776 0.21154,3.01776z" data-paper-data="{&quot;index&quot;:null}" fill="#252527" stroke="#000000" stroke-width="0" stroke-linecap="butt"/><path d="M228.04623,228.49999l2.7939,-0.70843" data-paper-data="{&quot;index&quot;:null}" fill="none" stroke="#ffffff" stroke-width="0.5" stroke-linecap="round"/><path d="M229.91664,229.13091l2.72457,-1.08557" data-paper-data="{&quot;index&quot;:null}" fill="none" stroke="#ffffff" stroke-width="0.5" stroke-linecap="round"/><path d="M233.68804,228.43777l-1.64393,1.23785" data-paper-data="{&quot;index&quot;:null}" fill="none" stroke="#ffffff" stroke-width="0.5" stroke-linecap="round"/><path d="M229.58208,224.55285l-2.19515,-0.0644" data-paper-data="{&quot;index&quot;:null}" fill="none" stroke="#969696" stroke-width="0.5" stroke-linecap="round"/><path d="M227.74877,225.39664l1.97193,-0.0895" data-paper-data="{&quot;index&quot;:null}" fill="none" stroke="#969696" stroke-width="0.5" stroke-linecap="round"/></g><g><path d="M253.76702,199.16421c0,0 0.76968,-2.94165 0.32258,-6.43964c-0.10751,-0.84118 -0.24755,-3.60078 -0.36737,-4.46404c-0.28357,-2.0431 -0.64513,-4.06127 -0.78507,-5.3172c-0.30102,-2.70131 -1.67471,-15.90706 -1.67471,-15.90706c0,0 -0.65045,-7.1868 0.34286,-7.31038c7.26528,-0.90389 5.97379,6.26021 5.97379,6.26021c0,0 -0.0714,6.5888 0.42729,13.57623c0.37513,5.25628 1.3267,10.83849 1.46066,13.45244c0.15855,3.09364 -0.13994,7.07843 -0.13994,7.07843z" data-paper-data="{&quot;index&quot;:null}" fill="url(#color-7)" stroke="#000000" stroke-width="0" stroke-linecap="butt"/><path d="M258.23137,208.9789c-0.51692,-0.04424 -0.283,-3.06904 -0.95251,-3.93786c-0.3544,-0.45989 0.68313,4.62415 -0.65257,4.07237c-0.45856,-0.18944 -0.41924,-3.9267 -0.87026,-4.77187c-0.24143,-0.45245 -0.19986,5.21854 -1.09788,4.89529c-0.53308,-0.19189 -0.25379,-3.09851 -0.55007,-4.52192c-0.14435,-0.69346 -0.34106,-5.55068 -0.34106,-5.55068l5.56009,0.929c0,0 -0.02521,2.79383 -0.19023,5.13641c-0.14849,2.10783 -0.40774,3.79187 -0.90551,3.74928z" data-paper-data="{&quot;index&quot;:null}" fill="#323a3a" stroke="#000000" stroke-width="0" stroke-linecap="butt"/><path d="M257.29839,166.59917l-5.74161,0.45608" fill="none" stroke="#00ffb0" stroke-width="1" stroke-linecap="round"/><path d="M257.49593,168.28091l-5.86994,0.58073" fill="none" stroke="#00ffb0" stroke-width="1" stroke-linecap="round"/><path d="M257.43682,170.21195l-5.74161,0.45608" fill="none" stroke="#00ffb0" stroke-width="1" stroke-linecap="round"/></g><g stroke-width="0" stroke-linecap="butt"><path d="M229.6398,193.59143c0,0 0.16709,-5.5597 -0.35268,-10.94382c-0.35317,-3.65847 -1.40473,-6.95919 -1.56162,-9.45339c-0.29447,-4.68133 -0.2105,-13.38223 -0.2105,-13.38223c0,0 3.69178,-0.58477 5.4694,-0.21857c2.26281,0.46615 7.00656,2.78867 7.00656,2.78867c0,0 3.67689,-2.17061 5.59031,-2.58687c2.01891,-0.43921 6.22369,0.01677 6.22369,0.01677c0,0 -0.06905,9.21711 -0.22689,12.65629c-0.13965,3.04285 -0.88957,6.36811 -1.18346,10.87293c-0.3029,4.64296 -0.14784,10.42155 -0.14784,10.42155c0,0 -2.75697,-0.76932 -5.57187,-0.83754c-1.27833,-0.03098 -1.79126,1.00612 -2.99851,1.16532c-0.96496,0.12724 -2.63623,-0.61291 -3.56107,-0.64966c-0.69915,-0.02778 -2.04377,-0.5306 -2.53801,-0.53471c-0.99795,-0.0083 -1.61572,0.86529 -2.77345,1.02464c-1.34484,0.1851 -3.1641,-0.33939 -3.1641,-0.33939z" fill="url(#color-8)" stroke="#292e32"/><path d="M246.91518,166.62653c3.55914,-0.03151 3.40064,0.87953 3.40064,1.96449c0,1.08496 0.79843,2.00343 -3.40064,1.96449c-4.03819,-0.03744 -3.33404,1.01625 -3.40064,-1.96449c-0.05453,-2.44079 -0.63741,-1.92875 3.40064,-1.96449z" data-paper-data="{&quot;index&quot;:null}" fill="#c9ffe7" stroke="#000000"/></g><g><path d="M218.6478,199.75055c0,0 -0.18259,-3.99258 0.07937,-7.07947c0.22135,-2.60826 1.38243,-8.15648 1.93693,-13.39783c0.73711,-6.96758 0.87188,-13.55542 0.87188,-13.55542c0,0 -1.33065,-6.6165 6.2561,-5.74696c1.03914,0.1191 0.2448,7.20844 0.2448,7.20844c0,0 -1.83915,12.94928 -2.23607,15.63936c-0.18454,1.25072 -0.62244,3.25602 -0.98048,5.28881c-0.15127,0.85889 -0.38352,3.61253 -0.52137,4.44976c-0.57325,3.48157 0.12978,6.44698 0.12978,6.44698z" data-paper-data="{&quot;index&quot;:null}" fill="url(#color-9)" stroke="#000000" stroke-width="0" stroke-linecap="butt"/><path d="M218.68195,204.89062c-0.09653,-2.34681 -0.03414,-5.14007 -0.03414,-5.14007l5.78094,-0.74633c0,0 -0.35728,4.84834 -0.52856,5.53672c-0.35156,1.41299 -0.15468,4.32732 -0.7122,4.50163c-0.93917,0.29366 -0.7166,-5.37312 -0.98067,-4.92881c-0.49331,0.82997 -0.57097,4.56664 -1.05131,4.74096c-1.39916,0.50773 -0.16493,-4.53976 -0.54609,-4.09171c-0.72008,0.84644 -0.57388,3.8774 -1.11,3.90467c-0.51626,0.02626 -0.73111,-1.66542 -0.81797,-3.77706z" data-paper-data="{&quot;index&quot;:null}" fill="#323a3a" stroke="#000000" stroke-width="0" stroke-linecap="butt"/><path d="M221.46146,167.30954l6.18246,0.90161" fill="none" stroke="#00ffb0" stroke-width="1" stroke-linecap="round"/><path d="M221.46146,169.11276l5.92486,0.90161" fill="none" stroke="#00ffb0" stroke-width="1" stroke-linecap="round"/><path d="M227.25752,172.07518l-5.79606,-1.03041" fill="none" stroke="#00ffb0" stroke-width="1" stroke-linecap="round"/></g></g></g></svg>