<svg version="1.1" xmlns="http://www.w3.org/2000/svg" xmlns:xlink="http://www.w3.org/1999/xlink" width="11.23736" height="12.06224" viewBox="0,0,11.23736,12.06224"><defs><radialGradient cx="270.33639" cy="180" r="5.67035" gradientUnits="userSpaceOnUse" id="color-1"><stop offset="0" stop-color="#fffae8"/><stop offset="1" stop-color="#fffae8" stop-opacity="0"/></radialGradient><radialGradient cx="270.42654" cy="180.07149" r="5.38077" gradientUnits="userSpaceOnUse" id="color-2"><stop offset="0" stop-color="#fff5cb"/><stop offset="1" stop-color="#fff5cb" stop-opacity="0"/></radialGradient><radialGradient cx="270.35931" cy="180" r="5.0651" gradientUnits="userSpaceOnUse" id="color-3"><stop offset="0" stop-color="#fff8dc"/><stop offset="1" stop-color="#fff8dc" stop-opacity="0"/></radialGradient><radialGradient cx="271.26698" cy="179.25886" r="5.22319" gradientUnits="userSpaceOnUse" id="color-4"><stop offset="0" stop-color="#fff1e0"/><stop offset="1" stop-color="#b1a597"/></radialGradient><linearGradient x1="264.76938" y1="180" x2="275.23061" y2="180" gradientUnits="userSpaceOnUse" id="color-5"><stop offset="0" stop-color="#0e0b08"/><stop offset="1" stop-color="#0e0b08" stop-opacity="0"/></linearGradient></defs><g transform="translate(-264.76938,-173.96888)"><g data-paper-data="{&quot;isPaintingLayer&quot;:true}" fill-rule="nonzero" stroke="none" stroke-linecap="butt" stroke-linejoin="miter" stroke-miterlimit="10" stroke-dasharray="" stroke-dashoffset="0" style="mix-blend-mode: normal"><path d="M270.33639,186.03112c-3.13164,0 -5.49716,-2.67391 -5.49716,-6.0048c0,-3.33089 2.36552,-6.05744 5.49716,-6.05744c3.13164,0 5.67035,2.70023 5.67035,6.03112c0,3.33089 -2.53871,6.03112 -5.67035,6.03112z" data-paper-data="{&quot;index&quot;:null}" fill="url(#color-1)" stroke-width="0.5"/><path d="M270.42654,185.79461c-2.97173,0 -5.38077,-2.56235 -5.38077,-5.72313c0,-3.1608 2.40906,-5.72312 5.38077,-5.72312c2.97173,0 5.38077,2.56234 5.38077,5.72312c0,3.1608 -2.40906,5.72313 -5.38077,5.72313z" data-paper-data="{&quot;index&quot;:null}" fill="url(#color-2)" stroke-width="0.5"/><path d="M270.35931,185.38736c-2.79738,0 -5.13932,-2.43833 -5.13932,-5.41368c0,-2.97536 2.34195,-5.36104 5.13932,-5.36104c2.79738,0 5.0651,2.41201 5.0651,5.38736c0,2.97536 -2.26773,5.38736 -5.0651,5.38736z" data-paper-data="{&quot;index&quot;:null}" fill="url(#color-3)" stroke-width="0.5"/><path d="M270.00001,185.22319c-2.88469,0 -5.22319,-2.33851 -5.22319,-5.22319c0,-2.88469 2.33851,-5.22319 5.22319,-5.22319c2.88469,0 5.22319,2.33851 5.22319,5.22319c0,2.88469 -2.33851,5.22319 -5.22319,5.22319z" data-paper-data="{&quot;index&quot;:null}" fill="url(#color-4)" stroke-width="0.5"/><g stroke-width="0.5"><path d="M266.51709,176.86489c0,0 -0.20884,0.12659 -0.33415,-0.0844c-0.12529,-0.21098 0.08354,-0.33758 0.08354,-0.33758c1.50153,-0.90237 3.06921,-0.29921 4.78608,-0.29828c0.83634,-0.14335 1.70003,-0.50147 2.45555,0.00692l0.0123,0.02185l0.00549,-0.00555l0.1901,0.19204c0.04408,0.04452 0.07133,0.10603 0.07133,0.17398c0,0.13068 -0.10084,0.23756 -0.22819,0.24556l-0.33065,0.02387l-0.00223,-0.03164c-1.42878,0.33177 -3.01643,0.21796 -4.49527,0.00381c-0.56907,0.00946 -1.15015,0.0069 -1.69014,-0.06023l0.00575,0.0378l-0.30455,0.04734c-0.01344,0.00233 -0.02727,0.00353 -0.04136,0.00353c-0.02197,0 -0.04327,-0.00295 -0.06354,-0.00845c-0.04019,0.02195 -0.0802,0.04509 -0.12004,0.06941z" fill-opacity="0.65098" fill="#c7c3bd"/><path d="M267.19005,175.668c0.08758,-0.03685 0.17516,-0.07369 0.26274,-0.11054c1.53391,-0.48043 3.52091,-0.55452 5.03138,0.05701l0.00176,-0.02192l0.27454,0.02381c0.12243,0.00927 0.219,0.1156 0.219,0.24539c0,0.12233 -0.08579,0.22382 -0.19817,0.24285l-0.24965,0.04724c-0.17313,0.03277 -0.34627,0.06541 -0.51944,0.09796c-0.8447,0.06827 -1.66847,0.03819 -2.48573,0.03019c-0.51299,0.04253 -1.02551,0.06838 -1.50504,0.03842c-0.34855,0.02774 -0.69753,0.07308 -1.04807,0.14548c0,0 -0.23257,0.04402 -0.27487,-0.19806c-0.03283,-0.18787 0.09992,-0.25645 0.16102,-0.27774c0.01135,-0.06918 0.05045,-0.12852 0.10494,-0.16515l0.20451,-0.14191l0.00489,0.00763z" fill-opacity="0.65098" fill="#cfcac4"/><path d="M267.5897,175.49766l0.09504,-0.04801c0.00263,-0.00133 0.00531,-0.00268 0.00806,-0.00404c0.00401,-0.12554 0.48275,-0.26096 0.48275,-0.26096l0.00167,0.01867c0.00296,-0.00051 0.00593,-0.00103 0.00889,-0.00154l0.00045,-0.0179c0.03321,0.0001 0.07066,-0.00063 0.11191,-0.00206c0.10568,-0.03655 0.21257,-0.06851 0.32049,-0.09644c0.68103,-0.22031 1.51158,-0.40136 1.8721,-0.18882c0.05863,-0.0002 0.11722,-0.00018 0.17577,0l0.01276,0.00889l0.00765,0.00118l0.00128,-0.0071l0.21178,0.0389c0.39522,0.03812 0.80454,0.1275 1.24762,0.29137l0.01302,0.01638l0.00418,-0.00759l0.2096,0.11763c0.07705,0.04131 0.17705,0.12321 0.17705,0.21748c0,0.13589 -0.13671,0.17204 -0.15368,0.16826l-0.54156,0.00099l0.00379,-0.01914c-0.70508,0.04757 -1.22575,-0.14691 -1.95092,-0.17599c-0.42926,-0.0172 -1.06909,0.1327 -1.48376,0.12849c-0.0973,0.03104 -0.63429,0.0188 -0.8363,-0.03995c-0.15753,-0.04582 0.00037,-0.13872 0.00037,-0.13872z" fill-opacity="0.65098" fill="#ede9e1"/><path d="M265.53765,178.33489c-0.04586,0.01488 -0.10276,0.01498 -0.17147,-0.01586c-0.22255,-0.09993 -0.12364,-0.32477 -0.12364,-0.32477l0.12535,-0.26717c0.35033,-0.44565 0.62749,-0.49464 1.17384,-0.45304c2.07337,0.37888 4.01472,0.71922 6.13037,0.36139c0.33787,-0.055 1.76289,-0.38108 1.99377,0.23845c0.0464,0.12451 0.1252,0.29324 -0.23688,0.55155c-0.97697,0.697 -2.4265,0.50653 -3.52116,0.89393c-1.83828,0.12386 -3.64417,-0.99043 -5.32393,-0.97915c0,0 -0.01894,0 -0.04625,-0.00534z" fill-opacity="0.81176" fill="#e6dcd1"/><path d="M274.54173,177.78812c-0.08711,0 -0.5069,0.04801 -0.59402,0.04801c0,0 -0.15515,0 -0.2178,-0.1251c-0.17824,0.07543 -0.38367,0.12831 -0.60744,0.14721c-2.04032,0.34506 -3.82327,-0.06963 -5.84801,-0.239c-0.3713,-0.03145 -0.72329,-0.07116 -1.09653,-0.07116l0.01389,0.02203c0,0 -0.08353,0.04219 -0.173,0.02206c-0.05634,0.04808 -0.15095,0.09208 -0.27507,0.01685c-0.20884,-0.12659 -0.08353,-0.33758 -0.08353,-0.33758c0.91868,-1.52619 3.31764,-0.25397 4.7865,-0.38138c0.80858,-0.14638 2.1415,-0.13572 2.88569,-0.38477c0.23813,-0.07969 0.42246,-0.00082 0.70169,0.33132c0.18889,0.22467 0.54892,0.801 0.53271,0.92695c-0.00203,0.01584 -0.01003,0.02456 -0.02506,0.02456z" fill-opacity="0.76471" fill="#ded9d3"/><path d="M265.12555,178.40666c0.00052,-0.01294 0.0019,-0.02656 0.00427,-0.04087c0.04004,-0.2427 0.28028,-0.20225 0.28028,-0.20225c1.49693,0.25318 3.41463,0.99164 4.90482,0.86175c0.98877,-0.09082 3.50974,-1.17159 4.28958,-0.98194c0.23944,0.05822 0.2836,0.40431 0.34477,0.56286c0.16044,0.41579 -0.12084,0.81155 -0.63412,0.83798c-2.0184,0.18544 -4.03647,1.04054 -6.0976,1.03087c-0.84301,-0.19258 -3.5093,-1.08234 -3.19243,-2.01617z" fill-opacity="0.65098" fill="#d6d2cb"/><path d="M264.95559,179.24512c-0.00446,-0.04622 0.00633,-0.09985 0.0455,-0.15921c0.13509,-0.20472 0.33774,-0.06824 0.33774,-0.06824c1.43712,0.96791 2.78098,1.3767 4.48198,1.09025c1.59008,-0.26658 3.20422,-0.8546 4.83574,-0.81057l0.02497,-0.13875c0.01882,-0.11696 0.11928,-0.20625 0.24039,-0.20625c0.1345,0 0.24355,0.11016 0.24355,0.24604v0.26405h-0.04352l-0.00481,0.02673c0.36056,1.83937 -2.39441,1.86261 -4.09706,1.99492c-2.19469,0.1693 -3.61521,-0.12682 -5.60209,-0.73877c-0.60337,-0.34427 -0.50528,-0.71098 -0.50528,-1.33089v-0.02401c0,0 0,-0.07734 0.04291,-0.1453z" fill-opacity="0.65098" fill="#dedad3"/><path d="M264.99595,180.64419c-0.026,-0.06886 -0.03416,-0.1696 0.07117,-0.26271c0.1833,-0.16202 0.34366,0.02314 0.34366,0.02314c0.70223,0.83361 3.44464,0.95491 4.50771,1.0444c1.06559,-0.0009 3.84334,-0.23745 4.63985,-0.91034l0.10077,-0.18326c0.04089,-0.07784 0.12194,-0.13084 0.21526,-0.13084c0.1345,0 0.24354,0.11016 0.24354,0.24605c0,0.00786 -0.00036,0.01563 -0.00107,0.02329l-0.02353,0.28519l-0.07594,-0.0064c0.00151,2.27702 -4.32103,2.18799 -6.13063,1.88362c-1.43876,-0.33542 -3.62374,-0.21194 -3.89889,-1.73362l-0.02042,-0.08036c0,0 -0.02698,-0.10906 0.0285,-0.19818z" fill-opacity="0.76471" fill="#e3dfd8"/><path d="M265.26912,181.86885c0,0 -0.17223,-0.17398 0,-0.34796c0.17223,-0.17398 0.34443,0 0.34443,0c0.16024,0.16204 0.36386,0.30432 0.59809,0.42889c0.85979,0.20542 1.76831,0.52253 2.63851,0.70363c0.58423,0.0685 1.13799,0.09426 1.56991,0.09192c0.99651,-0.09208 3.23638,-0.20056 3.89847,-1.09578l0.13726,-0.20801c0.04336,-0.06784 0.11887,-0.11273 0.20474,-0.11273c0.1345,0 0.24354,0.11016 0.24354,0.24604c0,0.0355 -0.00743,0.06924 -0.02083,0.09971l-0.11672,0.28297l-0.05178,-0.0218c-0.00534,0.00673 -0.01075,0.01342 -0.01621,0.02008c-0.4592,1.85963 -2.85465,2.14466 -4.60009,2.14551c-1.69749,-0.0009 -3.594,-0.17182 -4.50334,-1.54984l-0.14072,-0.21325c-0.02697,-0.0396 -0.04275,-0.08758 -0.04275,-0.13928c0,-0.00231 0.00002,-0.00459 0.00009,-0.00689l-0.08161,-0.09423c-0.03798,-0.0434 -0.06105,-0.10044 -0.06105,-0.16293c0,-0.02035 0.00244,-0.04012 0.00705,-0.05903c-0.00234,-0.00234 -0.00468,-0.00468 -0.007,-0.00704z" fill-opacity="0.65098" fill="#d1cec7"/><path d="M266.16405,183.35522c0,0 -0.12885,-0.06509 -0.1388,-0.19526c-0.01261,-0.02972 -0.01959,-0.06245 -0.01959,-0.09683c0,-0.12233 0.08839,-0.22383 0.20416,-0.24285l0.25719,-0.04724l0.02245,0.12479c1.31113,-0.09736 3.6432,0.88511 5.00178,0.76166c0.6703,-0.12126 1.36293,-0.37866 2.00513,-0.61535c0.03442,-0.02009 0.07016,-0.03817 0.10689,-0.05457l-0.02394,-0.038l0.2583,-0.16606c0.03839,-0.02556 0.08439,-0.04044 0.13383,-0.04044c0.1345,0 0.24356,0.11016 0.24356,0.24605c0,0.06248 -0.02305,0.11952 -0.06104,0.16293l-0.16555,0.19114l-0.01888,-0.01669c-0.00223,0.00395 -0.00455,0.00785 -0.00698,0.01166l-0.01666,0.0438c-0.01088,0.00467 -0.02177,0.00934 -0.03271,0.01402l-0.22096,0.22322l-0.03046,-0.03075l-0.06892,0.03869c-1.0919,1.39515 -3.4147,1.48218 -5.04819,1.18555c-0.76491,-0.2306 -1.39723,-0.48476 -1.93402,-1.07643l-0.07102,-0.06378l-0.20852,-0.14044c-0.05086,-0.03319 -0.08871,-0.085 -0.10406,-0.14588c-0.02073,-0.01157 -0.04175,-0.02255 -0.06299,-0.03292z" fill-opacity="0.65098" fill="#dbd8d0"/><path d="M268.35868,184.31824c0.11303,0.05441 0.22649,0.0992 0.34033,0.13582c0.18583,0.01169 0.41194,0.04318 0.64722,0.08008c0.3653,-0.00977 0.71672,0.02507 1.07645,0.03884c0.3391,-0.02534 0.68,-0.05872 1.02182,-0.06469c0.05455,-0.011 0.10964,-0.02353 0.16535,-0.0378l-0.00189,-0.00607l0.27493,-0.06553c0.02364,-0.00614 0.04869,-0.00943 0.07462,-0.00943c0.14448,0 0.26157,0.10235 0.26157,0.22859c0,0.10521 -0.08132,0.19381 -0.19205,0.22042l-0.24958,0.06543c-0.10674,0.02799 -0.21227,0.04946 -0.31672,0.06571c-0.10714,0.04096 -0.24433,0.06959 -0.40186,0.08795c-0.07225,0.10128 -0.22429,0.10128 -0.22429,0.10128l-0.0784,-0.00095c-0.57675,0.04535 -1.18321,0.00789 -1.7413,-0.14031c-0.00734,0.00123 -0.01471,0.00248 -0.02206,0.00377c0,0 -0.1779,0.02826 -0.26478,-0.09146c-0.06176,-0.0215 -0.12271,-0.04452 -0.18273,-0.06911c-0.14702,-0.03422 -0.26708,-0.06934 -0.34884,-0.10295l-0.00338,0.00812l-0.275,-0.08739c-0.10344,-0.03049 -0.17793,-0.11597 -0.17793,-0.21664c0,-0.12624 0.11712,-0.22859 0.26159,-0.22859c0.02827,0 0.05549,0.00392 0.08098,0.01117l0.24938,0.06538l-0.0041,0.01198z" fill-opacity="0.65098" fill="#e6e2da"/></g><g fill-opacity="0.06667" fill="#ffb47a" stroke-width="0"><path d="M272.65855,179.70732c0,0.76781 -0.90635,1.39024 -2.02439,1.39024c-1.11804,0 -2.02439,-0.62243 -2.02439,-1.39024c0,-0.76781 0.90635,-1.39024 2.02439,-1.39024c1.11804,0 2.02439,0.62243 2.02439,1.39024z"/><path d="M273.65855,178.31708c0,0.76781 -0.90635,1.39024 -2.02439,1.39024c-1.11804,0 -2.02439,-0.62243 -2.02439,-1.39024c0,-0.76781 0.90635,-1.39024 2.02439,-1.39024c1.11804,0 2.02439,0.62243 2.02439,1.39024z"/><path d="M274.19514,180.90245c0,0.76781 -0.90635,1.39024 -2.02439,1.39024c-1.11804,0 -2.02439,-0.62243 -2.02439,-1.39024c0,-0.76781 0.90635,-1.39025 2.02439,-1.39025c1.11804,0 2.02439,0.62244 2.02439,1.39025z"/><path d="M271.24392,182.04879c0,0.76781 -0.90635,1.39024 -2.02439,1.39024c-1.11804,0 -2.02439,-0.62243 -2.02439,-1.39024c0,-0.76781 0.90635,-1.39024 2.02439,-1.39024c1.11804,0 2.02439,0.62243 2.02439,1.39024z"/><path d="M270.41463,179.78049c0,0.76781 -0.90635,1.39024 -2.02439,1.39024c-1.11804,0 -2.02439,-0.62243 -2.02439,-1.39024c0,-0.76781 0.90635,-1.39024 2.02439,-1.39024c1.11804,0 2.02439,0.62243 2.02439,1.39024z"/><path d="M271.00001,177.80489c0,0.76781 -0.90635,1.39024 -2.02439,1.39024c-1.11804,0 -2.02439,-0.62243 -2.02439,-1.39024c0,-0.76781 0.90635,-1.39024 2.02439,-1.39024c1.11804,0 2.02439,0.62243 2.02439,1.39024z"/><path d="M273.19514,182.70733c0,0.76781 -0.90635,1.39024 -2.02439,1.39024c-1.11804,0 -2.02439,-0.62243 -2.02439,-1.39024c0,-0.76781 0.90635,-1.39025 2.02439,-1.39025c1.11804,0 2.02439,0.62244 2.02439,1.39025z"/><path d="M271.75611,181.0244c0,0.76781 -0.90635,1.39024 -2.02439,1.39024c-1.11804,0 -2.02439,-0.62243 -2.02439,-1.39024c0,-0.76781 0.90635,-1.39024 2.02439,-1.39024c1.11804,0 2.02439,0.62243 2.02439,1.39024z"/><path d="M275.12197,179.56099c0,0.76781 -0.90635,1.39024 -2.02439,1.39024c-1.11804,0 -2.02439,-0.62243 -2.02439,-1.39024c0,-0.76781 0.90635,-1.39024 2.02439,-1.39024c1.11804,0 2.02439,0.62243 2.02439,1.39024z"/><path d="M273.12197,177.00001c0,0.76781 -0.90635,1.39024 -2.02439,1.39024c-1.11804,0 -2.02439,-0.62243 -2.02439,-1.39024c0,-0.76781 0.90635,-1.39024 2.02439,-1.39024c1.11804,0 2.02439,0.62243 2.02439,1.39024z"/><path d="M271.17073,179.24391c0,0.76781 -0.90635,1.39024 -2.02439,1.39024c-1.11804,0 -2.02439,-0.62243 -2.02439,-1.39024c0,-0.76781 0.90635,-1.39025 2.02439,-1.39025c1.11804,0 2.02439,0.62244 2.02439,1.39025z"/><path d="M269.34148,181.48782c0,0.76781 -0.90635,1.39024 -2.02439,1.39024c-1.11804,0 -2.02439,-0.62243 -2.02439,-1.39024c0,-0.76781 0.90635,-1.39024 2.02439,-1.39024c1.11804,0 2.02439,0.62243 2.02439,1.39024z"/><path d="M269.4878,179.0244c0,0.76781 -0.90635,1.39024 -2.02439,1.39024c-1.11804,0 -2.02439,-0.62243 -2.02439,-1.39024c0,-0.76781 0.90635,-1.39024 2.02439,-1.39024c1.11804,0 2.02439,0.62243 2.02439,1.39024z"/><path d="M273.56098,179.24391c0,0.76781 -0.90635,1.39024 -2.02439,1.39024c-1.11804,0 -2.02439,-0.62243 -2.02439,-1.39024c0,-0.76781 0.90635,-1.39025 2.02439,-1.39025c1.11804,0 2.02439,0.62244 2.02439,1.39025z"/><path d="M274.90245,179.43903c0,0.76781 -0.90635,1.39024 -2.02439,1.39024c-1.11804,0 -2.02439,-0.62243 -2.02439,-1.39024c0,-0.76781 0.90635,-1.39025 2.02439,-1.39025c1.11804,0 2.02439,0.62244 2.02439,1.39025z"/><path d="M273.07318,181.29269c0,0.76781 -0.90635,1.39024 -2.02439,1.39024c-1.11804,0 -2.02439,-0.62243 -2.02439,-1.39024c0,-0.76781 0.90635,-1.39024 2.02439,-1.39024c1.11804,0 2.02439,0.62243 2.02439,1.39024z"/><path d="M270.80487,183.12196c0,0.76781 -0.90635,1.39024 -2.02439,1.39024c-1.11804,0 -2.02439,-0.62243 -2.02439,-1.39024c0,-0.76781 0.90635,-1.39025 2.02439,-1.39025c1.11804,0 2.02439,0.62244 2.02439,1.39025z"/><path d="M271.43903,177.14635c0,0.76781 -0.90635,1.39024 -2.02439,1.39024c-1.11804,0 -2.02439,-0.62243 -2.02439,-1.39024c0,-0.76781 0.90635,-1.39024 2.02439,-1.39024c1.11804,0 2.02439,0.62243 2.02439,1.39024z"/><path d="M273.58538,179.73172c0,0.76781 -0.90635,1.39024 -2.02439,1.39024c-1.11804,0 -2.02439,-0.62243 -2.02439,-1.39024c0,-0.76781 0.90635,-1.39024 2.02439,-1.39024c1.11804,0 2.02439,0.62243 2.02439,1.39024z"/><path d="M274.60974,178.00001c0,0.76781 -0.90635,1.39024 -2.02439,1.39024c-1.11804,0 -2.02439,-0.62243 -2.02439,-1.39024c0,-0.76781 0.90635,-1.39024 2.02439,-1.39024c1.11804,0 2.02439,0.62243 2.02439,1.39024z"/><path d="M274.46342,182.04879c0,0.76781 -0.90635,1.39024 -2.02439,1.39024c-1.11804,0 -2.02439,-0.62243 -2.02439,-1.39024c0,-0.76781 0.90635,-1.39025 2.02439,-1.39025c1.11804,0 2.02439,0.62244 2.02439,1.39025z"/><path d="M272.43903,183.75611c0,0.76781 -0.90635,1.39024 -2.02439,1.39024c-1.11804,0 -2.02439,-0.62243 -2.02439,-1.39024c0,-0.76781 0.90635,-1.39024 2.02439,-1.39024c1.11804,0 2.02439,0.62243 2.02439,1.39024z"/><path d="M269.75611,182.14635c0,0.76781 -0.90635,1.39024 -2.02439,1.39024c-1.11804,0 -2.02439,-0.62243 -2.02439,-1.39024c0,-0.76781 0.90635,-1.39024 2.02439,-1.39024c1.11804,0 2.02439,0.62243 2.02439,1.39024z"/><path d="M268.92684,179.5366c0,0.76781 -0.90635,1.39024 -2.02439,1.39024c-1.11804,0 -2.02439,-0.62243 -2.02439,-1.39024c0,-0.76781 0.90635,-1.39024 2.02439,-1.39024c1.11804,0 2.02439,0.62243 2.02439,1.39024z"/><path d="M269.70732,177.5366c0,0.76781 -0.90635,1.39024 -2.02439,1.39024c-1.11804,0 -2.02439,-0.62243 -2.02439,-1.39024c0,-0.76781 0.90635,-1.39024 2.02439,-1.39024c1.11804,0 2.02439,0.62243 2.02439,1.39024z"/><path d="M271.41463,176.24391c0,0.76781 -0.90635,1.39024 -2.02439,1.39024c-1.11804,0 -2.02439,-0.62243 -2.02439,-1.39024c0,-0.76781 0.90635,-1.39025 2.02439,-1.39025c1.11804,0 2.02439,0.62244 2.02439,1.39025z"/></g><path d="M269.99999,185.25402c-2.88879,0 -5.23061,-2.35231 -5.23061,-5.25402c0,-2.90171 2.34184,-5.25402 5.23062,-5.25402c2.88879,0 5.23062,2.35231 5.23062,5.25402c0,2.90171 -2.34184,5.25402 -5.23061,5.25402z" data-paper-data="{&quot;index&quot;:null}" fill="url(#color-5)" stroke-width="0.5"/></g></g></svg>