<svg version="1.1" xmlns="http://www.w3.org/2000/svg" xmlns:xlink="http://www.w3.org/1999/xlink" width="84.5" height="69.74644" viewBox="0,0,84.5,69.74644"><defs><linearGradient x1="240" y1="161.58695" x2="240" y2="198.4131" gradientUnits="userSpaceOnUse" id="color-1"><stop offset="0" stop-color="#4b8455"/><stop offset="1" stop-color="#72b235"/></linearGradient><linearGradient x1="240" y1="161.58695" x2="240" y2="198.4131" gradientUnits="userSpaceOnUse" id="color-2"><stop offset="0" stop-color="#246037"/><stop offset="1" stop-color="#a0ff67"/></linearGradient><radialGradient cx="274.51543" cy="188.82303" r="0.39598" gradientUnits="userSpaceOnUse" id="color-3"><stop offset="0" stop-color="#c6beb6"/><stop offset="1" stop-color="#a9a4a1"/></radialGradient><radialGradient cx="274.94083" cy="188.25768" r="1.63002" gradientUnits="userSpaceOnUse" id="color-4"><stop offset="0" stop-color="#d9d0c7"/><stop offset="1" stop-color="#b7b1ad"/></radialGradient></defs><g transform="translate(-197.75,-129.41666)"><g data-paper-data="{&quot;isPaintingLayer&quot;:true}" fill-rule="nonzero" stroke-linecap="butt" stroke-linejoin="miter" stroke-miterlimit="10" stroke-dasharray="" stroke-dashoffset="0" style="mix-blend-mode: normal"><path d="M198.5,198.4131v-36.82609h83v36.82609z" fill="url(#color-1)" stroke="url(#color-2)" stroke-width="1.5"/><text transform="translate(206.9,147.33333) scale(0.5,0.5)" font-size="40" xml:space="preserve" fill="#ffffff" fill-rule="nonzero" stroke="none" stroke-width="1" stroke-linecap="butt" stroke-linejoin="miter" stroke-miterlimit="10" stroke-dasharray="" stroke-dashoffset="0" font-family="Serif" font-weight="normal" text-anchor="start" style="mix-blend-mode: normal"><tspan x="0" dy="0"> </tspan></text><text transform="translate(201.08,170.56883) scale(0.21667,0.21667)" font-size="40" xml:space="preserve" fill="#ffffff" fill-rule="nonzero" stroke="none" stroke-width="1" stroke-linecap="butt" stroke-linejoin="miter" stroke-miterlimit="10" stroke-dasharray="" stroke-dashoffset="0" font-family="Serif" font-weight="normal" text-anchor="start" style="mix-blend-mode: normal"><tspan x="0" dy="0">Combat Skills 2</tspan></text><g stroke="none" stroke-width="0"><path d="M260.4163,192.76224l16.68643,-24.55753l0.29016,0.19733l-16.68642,24.55754z" fill="#2e2c2a"/><path d="M279.36991,165.5785c0,0 -1.69115,1.22819 -2.00065,4.51467c-0.34761,3.69091 0.00706,9.66888 -1.1348,12.85767c-0.15501,0.43285 -1.24581,0.54633 -1.46146,0.8637c-0.2783,0.40957 0.27538,1.07616 -0.14056,1.46488c-3.00865,2.8118 -9.22738,5.10533 -13.00275,7.27525c-2.42971,1.3965 -2.7969,3.2485 -2.7969,3.2485c0,0 -0.03162,-2.15271 1.78183,-3.74311c3.50642,-3.07512 11.57489,-5.01965 13.89334,-8.43174c1.84528,-2.71571 0.52512,-10.82962 1.65018,-14.4192c0.89691,-2.86164 3.2118,-3.63062 3.2118,-3.63062z" fill="#403c36"/><path d="M264.92674,190.20731l3.61938,-1.89355l0.61143,0.85573l-3.61938,1.89354z" fill="#7d6239"/><path d="M277.72074,172.57647l-0.42841,4.06363l-1.0203,-0.25398l0.4284,-4.06363z" data-paper-data="{&quot;index&quot;:null}" fill="#7d6239"/><path d="M273.66153,184.74946c0,0 0.09979,-0.82707 0.51999,-1.44629c0.43791,-0.64544 1.11686,-0.96264 1.11686,-0.96264l1.13978,0.77513c0,0 -0.91663,0.23195 -1.30212,0.87643c-0.41295,0.60858 -0.33471,1.53251 -0.33471,1.53251z" fill="#292623"/></g><g stroke="none" stroke-width="0"><path d="M268.25157,193.92704l-0.4672,-0.3255l6.41578,-4.72978l0.4672,0.3255z" fill="#8c7463"/><path d="M274.97941,188.66522c0.21288,0.14832 0.24275,0.37374 0.06673,0.50351c-0.17603,0.12978 -0.49129,0.11472 -0.70417,-0.0336c-0.21288,-0.14832 -0.24276,-0.37375 -0.06674,-0.50352c0.17603,-0.12978 0.49131,-0.11471 0.70418,0.03361z" fill="url(#color-3)"/><path d="M275.28638,189.45623l-0.28006,-0.81085l-1.13884,-0.17775l3.33351,-1.44019z" fill="url(#color-4)"/><g><g><path d="M268.8524,194.93671l-0.55996,-1.24815l0.61413,-0.35676z" fill="#d7d7d7"/><path d="M268.5327,195.38769l-0.62784,-1.39944l0.68857,-0.39998z" fill="#e2e2e2"/></g><g><path d="M269.4437,194.12423l-0.42317,-0.94327l0.4641,-0.26961z" fill="#d7d7d7"/><path d="M269.20209,194.46505l-0.47447,-1.05761l0.52038,-0.3023z" fill="#e2e2e2"/></g><g><path d="M269.95518,193.6265l-0.35478,-0.79082l0.38909,-0.22603z" fill="#d7d7d7"/><path d="M269.75264,193.91223l-0.39779,-0.88669l0.43627,-0.25343z" fill="#e2e2e2"/></g></g><g data-paper-data="{&quot;index&quot;:null}"><g><path d="M268.49001,193.12368l-0.48024,0.45002l-1.75666,-0.36594z" fill="#d7d7d7"/><path d="M268.14117,193.35523l-0.53847,0.50459l-1.96959,-0.4103z" fill="#e2e2e2"/></g><g><path d="M269.06014,192.69766l-0.36295,0.3401l-1.32756,-0.27653z" fill="#d7d7d7"/><path d="M268.7965,192.87267l-0.40691,0.38134l-1.48851,-0.31005z" fill="#e2e2e2"/></g><g><path d="M269.4667,192.32746l-0.3043,0.28512l-1.11301,-0.23185z" fill="#d7d7d7"/><path d="M269.24566,192.47418l-0.34117,0.3197l-1.24793,-0.25995z" fill="#e2e2e2"/></g></g><path d="M267.95133,194.18025l-0.50615,-0.35264l2.14696,-1.58275l0.50614,0.35265z" fill="#7c6352"/></g></g></g></svg>