<svg version="1.1" xmlns="http://www.w3.org/2000/svg" xmlns:xlink="http://www.w3.org/1999/xlink" width="134.49932" height="181.47303" viewBox="0,0,134.49932,181.47303"><defs><linearGradient x1="238.37151" y1="2.39669" x2="240.79677" y2="75.39905" gradientUnits="userSpaceOnUse" id="color-1"><stop offset="0" stop-color="#4a4a4a" stop-opacity="0"/><stop offset="1" stop-color="#4a4a4a" stop-opacity="0.6549"/></linearGradient><linearGradient x1="244.72977" y1="-0.84789" x2="241.52414" y2="78.08705" gradientUnits="userSpaceOnUse" id="color-2"><stop offset="0" stop-color="#292929" stop-opacity="0"/><stop offset="1" stop-color="#292929" stop-opacity="0.58824"/></linearGradient><linearGradient x1="250.0656" y1="4.652" x2="239.72524" y2="76.959" gradientUnits="userSpaceOnUse" id="color-3"><stop offset="0" stop-color="#383838" stop-opacity="0"/><stop offset="1" stop-color="#383838" stop-opacity="0.76078"/></linearGradient><linearGradient x1="242.91711" y1="7.49575" x2="240.89427" y2="74.86382" gradientUnits="userSpaceOnUse" id="color-4"><stop offset="0" stop-color="#4b4b4b" stop-opacity="0"/><stop offset="1" stop-color="#4b4b4b" stop-opacity="0.75294"/></linearGradient><linearGradient x1="205.37625" y1="125.56928" x2="276.30167" y2="125.56928" gradientUnits="userSpaceOnUse" id="color-5"><stop offset="0" stop-color="#ffffff"/><stop offset="1" stop-color="#b5b5b5"/></linearGradient><linearGradient x1="179.86976" y1="149.52782" x2="226.48389" y2="149.52782" gradientUnits="userSpaceOnUse" id="color-6"><stop offset="0" stop-color="#c4c4c4"/><stop offset="1" stop-color="#909090"/></linearGradient><linearGradient x1="203.17683" y1="119.3976" x2="203.17683" y2="179.65803" gradientUnits="userSpaceOnUse" id="color-7"><stop offset="0" stop-color="#348317"/><stop offset="1" stop-color="#3c5b0d"/></linearGradient><radialGradient cx="239.34745" cy="135.4747" r="27.13216" gradientUnits="userSpaceOnUse" id="color-8"><stop offset="0" stop-color="#d251e8"/><stop offset="1" stop-color="#a23dba"/></radialGradient><linearGradient x1="250.06522" y1="124.50849" x2="250.06522" y2="178.76799" gradientUnits="userSpaceOnUse" id="color-9"><stop offset="0" stop-color="#348317"/><stop offset="1" stop-color="#3c5b0d"/></linearGradient><radialGradient cx="276.1459" cy="136.63371" r="27.13216" gradientUnits="userSpaceOnUse" id="color-10"><stop offset="0" stop-color="#d251e8"/><stop offset="1" stop-color="#a23dba"/></radialGradient><linearGradient x1="286.88595" y1="124.613" x2="286.88595" y2="178.8725" gradientUnits="userSpaceOnUse" id="color-11"><stop offset="0" stop-color="#348317"/><stop offset="1" stop-color="#3c5b0d"/></linearGradient><linearGradient x1="250.34823" y1="113.49719" x2="250.34823" y2="125.57587" gradientUnits="userSpaceOnUse" id="color-12"><stop offset="0" stop-color="#348317"/><stop offset="1" stop-color="#3c5b0d"/></linearGradient><linearGradient x1="287.79907" y1="113.77674" x2="287.79907" y2="125.85541" gradientUnits="userSpaceOnUse" id="color-13"><stop offset="0" stop-color="#348317"/><stop offset="1" stop-color="#3c5b0d"/></linearGradient><linearGradient x1="219.3546" y1="78.82827" x2="261.36857" y2="78.82827" gradientUnits="userSpaceOnUse" id="color-14"><stop offset="0" stop-color="#008672"/><stop offset="1" stop-color="#004861"/></linearGradient><linearGradient x1="240.36159" y1="75.20638" x2="240.36159" y2="82.45017" gradientUnits="userSpaceOnUse" id="color-15"><stop offset="0" stop-color="#348317"/><stop offset="1" stop-color="#3c5b0d"/></linearGradient><linearGradient x1="219.13907" y1="91.36182" x2="261.15305" y2="91.36182" gradientUnits="userSpaceOnUse" id="color-16"><stop offset="0" stop-color="#008672"/><stop offset="1" stop-color="#004861"/></linearGradient><linearGradient x1="240.14606" y1="87.73992" x2="240.14606" y2="94.98371" gradientUnits="userSpaceOnUse" id="color-17"><stop offset="0" stop-color="#348317"/><stop offset="1" stop-color="#3c5b0d"/></linearGradient><linearGradient x1="174.11977" y1="163.90282" x2="231.23389" y2="163.90282" gradientUnits="userSpaceOnUse" id="color-18"><stop offset="0" stop-color="#d8d8d8"/><stop offset="1" stop-color="#aaaaaa"/></linearGradient><linearGradient x1="202.67684" y1="148.1476" x2="202.67684" y2="179.65803" gradientUnits="userSpaceOnUse" id="color-19"><stop offset="0" stop-color="#348317"/><stop offset="1" stop-color="#3c5b0d"/></linearGradient><linearGradient x1="182.86977" y1="132.83015" x2="223.48389" y2="132.83015" gradientUnits="userSpaceOnUse" id="color-20"><stop offset="0" stop-color="#60ff45"/><stop offset="1" stop-color="#adff00"/></linearGradient><linearGradient x1="203.17683" y1="125.3976" x2="203.17683" y2="140.2627" gradientUnits="userSpaceOnUse" id="color-21"><stop offset="0" stop-color="#348317"/><stop offset="1" stop-color="#3c5b0d"/></linearGradient><linearGradient x1="176.86977" y1="163.99682" x2="227.23389" y2="163.99682" gradientUnits="userSpaceOnUse" id="color-22"><stop offset="0" stop-color="#60ff45"/><stop offset="1" stop-color="#adff00"/></linearGradient><linearGradient x1="202.05184" y1="156.56426" x2="202.05184" y2="171.42937" gradientUnits="userSpaceOnUse" id="color-23"><stop offset="0" stop-color="#348317"/><stop offset="1" stop-color="#3c5b0d"/></linearGradient><linearGradient x1="239.99999" y1="179.02045" x2="239.99999" y2="180.33096" gradientUnits="userSpaceOnUse" id="color-24"><stop offset="0" stop-color="#348317"/><stop offset="1" stop-color="#3c5b0d"/></linearGradient></defs><g transform="translate(-172.75034,1.14207)"><g data-paper-data="{&quot;isPaintingLayer&quot;:true}" fill-rule="nonzero" stroke-linecap="butt" stroke-linejoin="miter" stroke-miterlimit="10" stroke-dasharray="" stroke-dashoffset="0" style="mix-blend-mode: normal"><path d="M220.09683,71.55575l-0.03104,-0.01639l-0.01873,-0.06559c-0.18451,-0.31868 -0.29533,-0.68616 -0.30841,-1.07992l-0.02559,-0.77006l0.05981,-0.2782l-0.00945,-0.2844l0.07374,-0.34297l-0.05674,-1.70761l-0.1612,-0.91123l0.01161,-0.16596l-0.04568,-0.15997l-0.00068,-0.02055l-0.02603,-0.06587l-0.17431,-0.25483l-0.11227,-0.30289l-0.74293,-1.37015l-0.04147,-0.16113l-0.09393,-0.13731l-0.23114,-0.6236l-0.14321,-0.20008l-0.11344,-0.28714l-0.17431,-0.25482l-0.50809,-1.37078l-0.04078,-0.36933l-0.10204,-0.35729l-0.00591,-0.17764l-0.09634,-0.33732l-0.00944,-0.28439l-0.07814,-0.27362l-0.00289,-0.08715l-0.03899,-0.10521l-0.0408,-0.36932l-0.10204,-0.35729l-0.09722,-2.92625l0.05981,-0.2782l-0.00944,-0.2844l0.07373,-0.34298l-0.02125,-0.63967l0.0598,-0.2782l-0.00944,-0.2844l0.12198,-0.56739l0.11945,-0.72092l0.05811,-0.13401l0.00636,-0.14592l0.23638,-0.79636l0.10491,-0.63321l0.05811,-0.13401l0.00636,-0.14592l0.22572,-0.76045l0.09946,-0.74941l0.12708,-0.32105l0.06368,-0.33938l0.34169,-0.74419l0.22009,-0.87992l0.10186,-0.19094l0.03991,-0.2127l1.22548,-2.669l0.50791,-1.71115l0.12946,-0.21918l0.06599,-0.24585l0.34649,-0.62353l0.21941,-0.60615l0.10448,-0.15528l0.04852,-0.18077l0.43646,-0.78542l0.08291,-0.08861l0.04335,-0.11333l0.26637,-0.38087l0.46083,-1.27314l0.05476,-0.08137l0.01809,-0.0964l1.51303,-3.29529l0.32251,-1.08651l0.22773,-1.54188l0.07539,-0.18257l0.01393,-0.19704l0.46667,-1.42945l0.08051,-1.39978l0.0374,-0.1199l-0.01013,-0.12519l0.25077,-1.5136l0.22828,-1.72012l0.07918,-1.81649l-0.177,-5.3278l-0.15942,-1.10044l-0.29569,-1.03534l-0.33204,-1.0312l-0.00262,-0.03945l-0.01975,-0.03425l-0.13141,-0.46009l-0.27054,-0.61619l-0.01167,-0.06852l-0.03924,-0.05737l-0.23115,-0.6236l-0.14321,-0.2001l-0.06054,-0.15325l-0.03712,-0.00615l-0.16768,-0.24514l-0.2318,-0.18569l-0.01566,-0.17606l-0.25746,-0.37638l-0.02239,-0.06039l-0.00209,-0.00324l-0.1754,-0.14913l-0.32338,-0.45181l-0.11343,-0.28714l-0.10638,-0.15552l-0.28573,-0.26735l-0.20164,-0.31209l-0.25106,-0.27393l-0.16424,-0.30291l-0.02285,-0.08881l-0.32193,-0.2579l-0.01022,-0.11486l-0.12751,-0.13913l-0.16425,-0.30291l-0.2969,-1.15372l0.33465,-0.54001l0.01416,-0.63515l0.87826,-0.8049l0.17033,-0.09235l0.01213,-0.02295l0.06384,-0.01824l0.05662,-0.0307l0.51435,-0.13237l0.5107,-0.14585l0.06437,-0.00214l0.06429,-0.01654l0.02207,0.01368l3.87968,-0.12889l1.21857,-0.17653l1.03742,-0.18355l0.16597,0.01163l0.15998,-0.0457l0.79369,-0.02637l0.33732,-0.09633l0.2844,-0.00945l0.27362,-0.07814l0.30803,-0.01024l0.27819,0.05982l0.2844,-0.00945l0.62117,0.13354l0.22846,0.11228l0.25019,0.04694l0.34931,0.16038l0.15846,-0.04893l0.25961,0.14427l0.29037,0.06243l0.09274,0.15047l0.39708,0.22066l0.17853,0.053l0.26583,0.15701l0.29404,0.09413l0.47227,0.29268l0.16044,0.16512l0.20124,0.11182l0.15113,0.14141l0.27772,0.17211l0.16044,0.16512l0.20124,0.11182l0.31826,0.29779l0.12494,0.19337l0.1754,0.14913l0.05431,0.07588l0.07933,0.04915l0.16044,0.16512l0.20123,0.11182l0.31826,0.2978l0.12494,0.19338l0.17541,0.14912l0.60941,0.85144l1.40734,1.75209l0.12764,0.27705l0.18672,0.24123l0.21071,0.4799l0.29106,0.36236l0.12764,0.27705l0.18671,0.24123l0.29496,0.6718l0.24035,0.44326l0.43944,0.68016l0.08216,0.24093l0.14373,0.21011l0.11227,0.30289l0.25019,0.46141l0.06344,0.24653l0.12718,0.22051l0.84803,2.96933l0.13851,0.37368l0.00995,0.09009l0.04528,0.07851l0.32459,1.13652l0.13851,0.37369l0.04078,0.36932l0.10204,0.35729l0.01101,0.33164l0.09634,0.33732l0.00187,0.05633l0.02581,0.0501l0.1796,0.76496l-0.00056,0.03826l0.01642,0.03457l0.13547,0.674l0.23316,0.53105l0.03591,0.2108l0.09791,0.19012l0.17959,0.76495l-0.00054,0.03827l0.01641,0.03457l0.14898,0.74116l0.27569,0.74379l0.02013,0.18224l0.07865,0.16562l0.14897,0.74115l0.27569,0.74379l0.01603,0.14518l0.06687,0.12985l0.14671,0.62485l0.28871,0.77892l0.00995,0.09008l0.04528,0.07852l0.1314,0.46009l0.14764,0.33627l1.04929,1.30632l0.3608,0.25232l0.19233,0.22127l0.23897,0.16983l0.55839,0.65235l2.33265,2.18264l0.49678,0.34743l0.21559,0.24804l0.2618,0.19866l0.37964,0.47263l0.6757,0.63225l0.12495,0.19337l0.1754,0.14913l0.09294,0.12984l0.30693,0.21466l0.25674,0.29538l0.29817,0.2535l0.64675,0.90362l0.05367,0.13585l0.09868,0.10768l0.22915,0.4226l0.35199,0.43821l0.08792,0.19082l0.14195,0.1549l0.32849,0.60582l0.02445,0.09499l0.06003,0.07756l0.29496,0.67179l0.61115,1.12712l0.02445,0.09499l0.06004,0.07757l0.29496,0.6718l0.28266,0.5213l0.02445,0.09499l0.06003,0.07756l0.33361,0.75983l0.0267,0.15675l0.07944,0.13774l0.08002,0.28021l0.30096,0.46581l0.08217,0.24094l0.14373,0.2101l0.33872,0.91385l0.02013,0.18223l0.07865,0.16562l0.12985,0.64601l0.37975,0.81063l0.06236,0.3189l0.1273,0.29897l0.16697,1.05092l0.28921,0.89817l0.01063,0.15966l0.06527,0.1461l0.37497,2.11949l0.17942,0.89261l-0.00901,0.19299l0.05306,0.18577l0.11257,3.38829l-0.04839,0.22509l0.01858,0.22947l-0.12843,0.77518l-0.05811,0.13401l-0.00636,0.14593l-0.17059,0.57472l0.01313,0.39518l-0.01954,0.09091l0.03733,0.06885l-0.15874,0.49589l-0.10944,0.50904l-0.06667,0.0411l-0.02836,0.08857l-0.08177,0.13195l-0.04938,0.22974l-0.17446,0.35502l-0.1206,0.37673l-0.12962,0.20916l-0.05058,0.1704l-0.15702,0.26583l-0.09413,0.29403l-0.21687,0.34995l-0.08373,0.18236l-0.23231,0.29l-0.18049,0.32478l-1.33258,1.42417l-0.38898,0.62767l-0.22751,0.49551l-0.11799,0.14728l-0.00257,0.1153l-0.16035,0.14695l-0.01177,0.06275l-0.02687,0.05853l-0.01396,0.06491l-0.0221,0.01362l-0.5122,1.11552l-0.11799,0.14728l-0.00257,0.11529l-0.3378,0.30957l-0.10816,0.13502l-0.00073,0.0328l-0.09609,0.08807l-0.08149,0.10172l-0.03268,0.0029l-0.12754,0.11689l-0.10816,0.13502l-0.00073,0.03279l-0.09609,0.08807l-0.08149,0.10173l-0.03268,0.0029l-0.12754,0.11689l-0.28647,0.3576l-0.11487,0.01021l-0.13914,0.12751l-0.30291,0.16424l-0.16112,0.04147l-0.13732,0.09393l-0.91385,0.33873l-0.3019,0.03334l-0.0106,0.00575l-0.51435,0.13236l-0.5107,0.14585l-0.06437,0.00214l-0.0643,0.01655l-0.02207,-0.01368l-0.08255,0.00274l-0.40203,0.09439l-0.32199,0.11935l-0.36933,0.04078l-0.35728,0.10204l-0.70321,0.02336l-0.1052,0.03899l-0.36933,0.04078l-0.35728,0.10204l-0.08715,0.00289l-0.1052,0.03899l-0.09009,0.00995l-0.07851,0.04528l-0.61094,0.17448l-0.2844,0.00945l-0.27362,0.07815l-0.54918,0.01825l-0.10521,0.03899l-0.09008,0.00994l-0.07851,0.04529l-0.61094,0.17449l-0.2844,0.00944l-0.27362,0.07814l-1.31137,0.04357l-0.54214,0.12728l-0.23019,-0.00331l-0.22138,0.06323l-18.94365,0.62934l-0.36326,-0.0781l-0.37122,-0.01618l-0.93432,-0.27733l-0.05691,-0.03361l-0.14109,0.00468l-0.02111,0.01511l-0.06525,-0.01224l-0.06437,0.00214l-0.51926,-0.11164l-0.522,-0.09794l-0.05853,-0.02687l-0.0649,-0.01396l-0.01363,-0.0221l-0.17609,-0.08085l-0.92975,-0.74483l-0.10067,-1.13181l-0.00213,-0.00346l0.00156,-0.00296l-0.06276,-0.70562c-0.57236,-0.14807 -1.06115,-0.51067 -1.37198,-0.99949z" fill="url(#color-1)" stroke="none" stroke-width="0.5"/><path d="M219.50333,72.29089l-0.03217,-0.02015l-0.01498,-0.07224c-0.1736,-0.35844 -0.26384,-0.76365 -0.24654,-1.18941l0.03381,-0.83265l0.0867,-0.2953l0.01249,-0.30751l0.10688,-0.36405l0.07498,-1.84638l-0.10122,-0.99571l0.02576,-0.17809l-0.03652,-0.17619l0.0009,-0.02222l-0.02282,-0.07314l-0.16769,-0.28876l-0.09694,-0.33566l-0.69207,-1.5371l-0.03188,-0.17709l-0.09037,-0.1556l-0.19959,-0.69105l-0.13851,-0.22724l-0.09946,-0.31876l-0.1677,-0.28876l-0.43872,-1.51905l-0.01454,-0.40162l-0.08157,-0.39351l0.0078,-0.19208l-0.07701,-0.37153l0.01249,-0.30751l-0.06246,-0.30136l0.00383,-0.09423l-0.03367,-0.11659l-0.01454,-0.40161l-0.08157,-0.39351l0.1285,-3.16406l0.0867,-0.2953l0.01249,-0.30751l0.10689,-0.36405l0.02809,-0.69166l0.08669,-0.2953l0.01249,-0.30751l0.17682,-0.60228l0.18632,-0.76807l0.07336,-0.13991l0.0185,-0.15689l0.31846,-0.84011l0.16365,-0.67462l0.07336,-0.13991l0.0185,-0.15689l0.3041,-0.80223l0.16704,-0.8004l0.16268,-0.33616l0.09574,-0.36097l0.42791,-0.77545l0.30755,-0.93155l0.1251,-0.19783l0.06,-0.22624l1.53466,-2.7811l0.6843,-1.80517l0.15711,-0.22609l0.09079,-0.25992l0.42345,-0.64491l0.28499,-0.6363l0.12508,-0.15916l0.06674,-0.1911l0.5334,-0.81236l0.09649,-0.08896l0.0558,-0.11879l0.31768,-0.38958l0.59859,-1.33648l0.06555,-0.08341l0.0272,-0.10254l1.89477,-3.43369l0.4345,-1.14621l0.3686,-1.64493l0.09588,-0.19092l0.03074,-0.21142l0.61735,-1.50461l0.19846,-1.50341l0.04991,-0.12634l-0.00095,-0.13584l0.39118,-1.61259l0.3834,-1.83715l0.23026,-1.95299l0.23395,-5.76078l-0.08419,-1.19966l-0.23637,-1.14032l-0.27591,-1.13875l0.00031,-0.04276l-0.01857,-0.03852l-0.10504,-0.50674l-0.24268,-0.68621l-0.00712,-0.07484l-0.03775,-0.06501l-0.19959,-0.69105l-0.13851,-0.22724l-0.05308,-0.17013l-0.03954,-0.00959l-0.16132,-0.27778l-0.23521,-0.21878l-0.00285,-0.19114l-0.24769,-0.4265l-0.01933,-0.06692l-0.002,-0.00365l-0.1773,-0.17484l-0.31277,-0.51311l-0.09946,-0.31876l-0.10234,-0.17622l-0.28687,-0.31116l-0.19261,-0.35271l-0.24894,-0.31549l-0.153,-0.33982l-0.01757,-0.09761l-0.32667,-0.30385l-0.00186,-0.12471l-0.12644,-0.16024l-0.15301,-0.33982l-0.22824,-1.2681l0.40403,-0.55578l0.06592,-0.68395l1.0115,-0.79814l0.19108,-0.08604l0.01491,-0.02379l0.07031,-0.01457l0.06352,-0.0286l0.56534,-0.10175l0.56248,-0.11659l0.0696,0.00283l0.07066,-0.01272l0.02271,0.01651l4.19496,0.17036l1.32845,-0.09324l1.13361,-0.11524l0.17809,0.02577l0.1762,-0.03653l0.85819,0.03485l0.37153,-0.07701l0.30751,0.01249l0.30136,-0.06247l0.33306,0.01353l0.2953,0.0867l0.30751,0.01249l0.65935,0.19358l0.23747,0.13932l0.26612,0.07058l0.36398,0.20085l0.17482,-0.04013l0.26852,0.17631l0.30822,0.09049l0.08803,0.16969l0.4107,0.26967l0.18834,0.0714l0.27421,0.19055l0.30965,0.12498l0.48606,0.35335l0.15989,0.19089l0.20814,0.13667l0.15174,0.16458l0.28583,0.20779l0.15988,0.19089l0.20815,0.13667l0.31953,0.34658l0.11934,0.21854l0.1773,0.17484l0.05253,0.08618l0.08163,0.05934l0.15989,0.19089l0.20814,0.13667l0.31953,0.34659l0.11934,0.21854l0.1773,0.17483l0.58942,0.96698l1.37826,2.00206l0.11558,0.30901l0.18215,0.27508l0.189,0.53444l0.28504,0.41405l0.11558,0.30901l0.18215,0.27508l0.26458,0.74814l0.2239,0.49727l0.41975,0.76867l0.06941,0.26643l0.13827,0.23809l0.09694,0.33566l0.23307,0.51763l0.04877,0.27097l0.1196,0.24799l0.6779,3.27039l0.1196,0.41411l0.00354,0.09796l0.04258,0.0883l0.25947,1.25175l0.1196,0.41411l0.01454,0.40161l0.08157,0.39351l-0.01456,0.3586l0.07701,0.37152l-0.00247,0.06091l0.02384,0.0561l0.13271,0.83941l-0.00365,0.04123l0.01495,0.03859l0.09237,0.73779l0.20914,0.59139l0.02193,0.23024l0.09045,0.21287l0.13271,0.83941l-0.00364,0.04123l0.01495,0.03859l0.10158,0.81131l0.23806,0.82425l0.00717,0.19817l0.07163,0.18491l0.10158,0.81131l0.23806,0.82425l0.00571,0.15787l0.06178,0.1454l0.10841,0.68567l0.24929,0.86317l0.00354,0.09796l0.04258,0.0883l0.10504,0.50674l0.13243,0.37448l1.0276,1.49269l0.36904,0.30094l0.1898,0.25401l0.24421,0.20224l0.55026,0.74816l2.34198,2.54025l0.50813,0.41436l0.21276,0.28473l0.26654,0.23515l0.37179,0.54006l0.6784,0.73583l0.11935,0.21854l0.1773,0.17484l0.08989,0.14746l0.31395,0.25601l0.25337,0.33908l0.30139,0.29721l0.62554,1.02623l0.04705,0.1508l0.09786,0.12402l0.21346,0.47409l0.34471,0.50073l0.07961,0.21284l0.14077,0.17839l0.306,0.67964l0.01879,0.10441l0.05857,0.08845l0.26458,0.74813l0.56932,1.26447l0.01879,0.10441l0.05857,0.08845l0.26458,0.74814l0.26332,0.58482l0.01879,0.10441l0.05857,0.08845l0.29925,0.84617l0.0163,0.1712l0.07471,0.1549l0.06397,0.30861l0.28748,0.52643l0.06941,0.26643l0.13827,0.23809l0.29248,1.0127l0.00717,0.19817l0.07163,0.18491l0.08854,0.70715l0.34496,0.90464l0.04184,0.34895l0.11347,0.33263l0.09629,1.14686l0.24032,0.99184l-0.00126,0.17306l0.05874,0.1628l0.23544,2.31602l0.12234,0.9771l-0.0251,0.20744l0.04241,0.2046l-0.14878,3.66365l-0.07014,0.23892l0.00174,0.249l-0.20034,0.82589l-0.07336,0.13991l-0.0185,0.15689l-0.22983,0.6063l-0.01735,0.42729l-0.02833,0.09651l0.03477,0.07723l-0.21077,0.52221l-0.15864,0.54033l-0.07519,0.03901l-0.03765,0.09327l-0.09872,0.1358l-0.07159,0.24386l-0.21649,0.36902l-0.16013,0.39674l-0.15648,0.21526l-0.06815,0.17977l-0.19056,0.27421l-0.12498,0.30965l-0.26183,0.36017l-0.10486,0.19002l-0.27371,0.29427l-0.22058,0.33593l-1.55092,1.42987l-0.46961,0.646l-0.28492,0.51632l-0.13901,0.14946l-0.01197,0.12415l-0.18466,0.14571l-0.0177,0.06674l-0.03366,0.06099l-0.02023,0.0689l-0.02493,0.01293l-0.64141,1.16237l-0.13901,0.14946l-0.01197,0.12415l-0.38904,0.30698l-0.12743,0.13701l-0.00341,0.03532l-0.11066,0.08732l-0.09601,0.10322l-0.03548,0.00053l-0.14689,0.11591l-0.12743,0.13701l-0.00341,0.03532l-0.11066,0.08732l-0.09601,0.10322l-0.03548,0.00053l-0.14689,0.11591l-0.33751,0.36287l-0.12471,0.00186l-0.16024,0.12644l-0.33982,0.15301l-0.17709,0.03188l-0.1556,0.09037l-1.0127,0.29248l-0.32829,0.01188l-0.01189,0.00535l-0.56534,0.10175l-0.56247,0.11659l-0.0696,-0.00283l-0.07067,0.01272l-0.02271,-0.01651l-0.08926,-0.00362l-0.44116,0.06975l-0.35682,0.10306l-0.40162,0.01454l-0.39351,0.08157l-0.76035,-0.03088l-0.11658,0.03367l-0.40162,0.01454l-0.39351,0.08157l-0.09423,-0.00383l-0.11658,0.03367l-0.09796,0.00355l-0.0883,0.04258l-0.67288,0.13948l-0.30751,-0.01249l-0.30136,0.06247l-0.59382,-0.02412l-0.11659,0.03367l-0.09796,0.00354l-0.0883,0.04258l-0.67288,0.13948l-0.30751,-0.01249l-0.30136,0.06247l-1.41795,-0.05758l-0.5949,0.09405l-0.24803,-0.02193l-0.24382,0.05054l-20.48312,-0.83184l-0.3856,-0.11321l-0.39911,-0.04705l-0.98565,-0.37364l-0.0587,-0.04079l-0.15255,-0.0062l-0.02398,0.01461l-0.0694,-0.01841l-0.0696,-0.00283l-0.55117,-0.16182l-0.55523,-0.14727l-0.06099,-0.03365l-0.0689,-0.02023l-0.01293,-0.02493l-0.18348,-0.10125l-0.94345,-0.87753l-0.01832,-1.22881l-0.00202,-0.00391l0.00192,-0.00307l-0.01142,-0.7661c-0.60556,-0.20536 -1.10385,-0.63544 -1.40014,-1.18748z" fill="url(#color-2)" stroke="none" stroke-width="0.5"/><path d="M220.01248,69.56539l-0.02771,-0.02155l-0.00701,-0.06785c-0.12612,-0.34596 -0.17118,-0.72714 -0.1154,-1.11715l0.10908,-0.76273l0.1074,-0.26351l0.04028,-0.2817l0.13241,-0.32486l0.24187,-1.69134l0.00014,-0.92537l0.04037,-0.1614l-0.0171,-0.16549l0.00291,-0.02035l-0.01414,-0.06941l-0.12721,-0.28132l-0.05774,-0.31782l-0.49266,-1.47869l-0.01274,-0.16589l-0.06855,-0.15159l-0.11887,-0.65435l-0.10613,-0.22199l-0.06164,-0.30253l-0.12721,-0.28131l-0.2613,-1.43836l0.02424,-0.37078l-0.03818,-0.3696l0.02516,-0.17595l-0.03604,-0.34895l0.04028,-0.28169l-0.02924,-0.28305l0.01234,-0.08632l-0.02005,-0.11039l0.02423,-0.37078l-0.03818,-0.3696l0.41449,-2.89838l0.1074,-0.26351l0.04028,-0.28169l0.13241,-0.32486l0.09061,-0.63358l0.10739,-0.26351l0.04028,-0.28169l0.21905,-0.53744l0.24331,-0.68905l0.08058,-0.12182l0.03171,-0.14258l0.37161,-0.74295l0.21371,-0.60521l0.08058,-0.12182l0.03171,-0.14258l0.35484,-0.70945l0.2286,-0.72059l0.18112,-0.29398l0.12187,-0.32307l0.46622,-0.67322l0.37013,-0.82807l0.13359,-0.17026l0.07638,-0.20248l1.67206,-2.41445l0.79848,-1.59638l0.16569,-0.19326l0.10785,-0.23058l0.4499,-0.55356l0.32173,-0.55861l0.12996,-0.13468l0.07929,-0.16953l0.56672,-0.69729l0.09709,-0.0728l0.06245,-0.10404l0.32869,-0.32859l0.67576,-1.17329l0.06811,-0.07058l0.03462,-0.09177l2.06441,-2.981l0.50701,-1.01364l0.49309,-1.47855l0.10607,-0.16663l0.04807,-0.19159l0.70876,-1.32619l0.32334,-1.3643l0.05773,-0.11154l0.01185,-0.12504l0.51083,-1.44669l0.5247,-1.65397l0.39469,-1.77486l0.75465,-5.27706l0.03489,-1.11138l-0.11064,-1.07104l-0.14716,-1.0733l0.00429,-0.0393l-0.01348,-0.03716l-0.04917,-0.47596l-0.15896,-0.65392l0.00046,-0.06951l-0.02864,-0.06333l-0.11888,-0.65434l-0.10613,-0.222l-0.03289,-0.16146l-0.03547,-0.01253l-0.12237,-0.27061l-0.19587,-0.22327l0.01528,-0.17609l-0.18789,-0.41551l-0.01151,-0.06337l-0.00149,-0.00355l-0.14671,-0.17743l-0.23965,-0.50127l-0.06164,-0.30252l-0.07763,-0.17168l-0.23474,-0.31308l-0.14413,-0.34247l-0.19945,-0.31351l-0.10891,-0.3269l-0.00702,-0.09144l-0.27203,-0.31008l0.00996,-0.11489l-0.1013,-0.15923l-0.10892,-0.32691l-0.09119,-1.18782l0.42369,-0.47339l0.12468,-0.62295l1.00515,-0.63943l0.18383,-0.06125l0.01594,-0.02049l0.06604,-0.00682l0.06111,-0.02036l0.52955,-0.04066l0.52831,-0.05457l0.06376,0.00912l0.06619,-0.00508l0.01935,0.01731l3.84273,0.54953l1.23068,0.03864l1.05353,0.00015l0.1614,0.04038l0.16549,-0.0171l0.78614,0.11242l0.34895,-0.03604l0.28169,0.04028l0.28305,-0.02924l0.30509,0.04363l0.26351,0.1074l0.28169,0.04028l0.58837,0.23981l0.20539,0.15039l0.23818,0.08984l0.316,0.21883l0.16456,-0.02055l0.23048,0.18732l0.27504,0.1121l0.06509,0.16433l0.35252,0.28651l0.16656,0.08331l0.23439,0.20096l0.27312,0.14395l0.41401,0.37054l0.12919,0.19056l0.17866,0.1452l0.12416,0.1656l0.24346,0.2179l0.12919,0.19056l0.17866,0.1452l0.26147,0.34872l0.08931,0.2122l0.14671,0.17743l0.04025,0.08419l0.06954,0.06223l0.12919,0.19056l0.17865,0.1452l0.26147,0.34873l0.08931,0.2122l0.14672,0.17742l0.45162,0.94465l1.0803,1.97064l0.07738,0.29506l0.14179,0.27009l0.12381,0.50929l0.22342,0.40755l0.07738,0.29506l0.14179,0.27008l0.17331,0.71294l0.15938,0.47837l0.31412,0.74636l0.0389,0.25156l0.10489,0.23195l0.05774,0.31783l0.16591,0.49797l0.01948,0.25381l0.08679,0.23931l0.31731,3.0717l0.07123,0.39211l-0.00591,0.09044l0.0309,0.08521l0.12145,1.1757l0.07123,0.39211l-0.02424,0.37078l0.03818,0.36961l-0.04698,0.32849l0.03605,0.34895l-0.00798,0.05579l0.01668,0.05384l0.04347,0.78455l-0.00722,0.03758l0.01014,0.0369l0.01588,0.6873l0.137,0.56357l-0.00139,0.21384l0.06326,0.20427l0.04347,0.78454l-0.00721,0.03758l0.01013,0.0369l0.01746,0.75578l0.14179,0.78047l-0.01196,0.18296l0.04857,0.1768l0.01746,0.75578l0.14179,0.78047l-0.00953,0.14575l0.04321,0.13952l0.03551,0.64086l0.14848,0.81732l-0.00591,0.09044l0.0309,0.08521l0.04917,0.47596l0.08675,0.35686l0.80545,1.46926l0.31128,0.31137l0.1508,0.25142l0.2057,0.2089l0.4361,0.73971l1.91636,2.55592l0.4286,0.42873l0.16904,0.28183l0.22315,0.24126l0.29141,0.53158l0.55511,0.74037l0.08931,0.2122l0.14671,0.17743l0.06887,0.14406l0.26481,0.26489l0.20131,0.33562l0.2494,0.3016l0.4793,1.00254l0.02916,0.14312l0.0784,0.12324l0.15195,0.45608l0.27019,0.49287l0.0533,0.20322l0.11277,0.17728l0.21783,0.65381l0.00751,0.0978l0.04559,0.08685l0.17331,0.71293l0.40527,1.21642l0.00751,0.0978l0.04559,0.08685l0.17331,0.71294l0.18744,0.5626l0.00751,0.0978l0.04559,0.08684l0.19602,0.80637l-0.00104,0.159l0.05421,0.14948l0.02994,0.28987l0.21513,0.51115l0.0389,0.25157l0.10489,0.23194l0.1742,0.95891l-0.01196,0.18295l0.04857,0.1768l0.01522,0.65876l0.23259,0.86442l0.00581,0.32489l0.07322,0.31659l-0.01882,1.06394l0.12817,0.93484l-0.01736,0.15907l0.03879,0.15525l-0.00031,2.1524l0.02104,0.91022l-0.04252,0.18846l0.01985,0.19217l-0.47993,3.35602l-0.08689,0.2132l-0.02172,0.2292l-0.26162,0.74092l-0.08058,0.12182l-0.03171,0.14258l-0.26818,0.53617l-0.05597,0.39141l-0.0351,0.08612l0.02475,0.0743l-0.24277,0.46061l-0.19652,0.48216l-0.07282,0.02884l-0.04336,0.08227l-0.10352,0.11566l-0.08869,0.21761l-0.23369,0.31916l-0.18444,0.34994l-0.1641,0.18336l-0.07952,0.15898l-0.20096,0.23438l-0.14395,0.27312l-0.27457,0.30678l-0.11424,0.16497l-0.27932,0.24505l-0.23435,0.28834l-1.56049,1.17002l-0.49246,0.55023l-0.31042,0.44825l-0.14187,0.12446l-0.02263,0.11308l-0.18351,0.11674l-0.02253,0.05973l-0.03667,0.05295l-0.02506,0.06148l-0.02414,0.00956l-0.69884,1.00912l-0.14187,0.12446l-0.02263,0.11307l-0.3866,0.24593l-0.13005,0.11409l-0.00644,0.03216l-0.10997,0.06996l-0.09798,0.08596l-0.03268,-0.00284l-0.14597,0.09286l-0.13005,0.11409l-0.00644,0.03216l-0.10997,0.06996l-0.09798,0.08596l-0.03268,-0.00284l-0.14597,0.09286l-0.34444,0.30217l-0.11489,-0.00997l-0.15923,0.1013l-0.3269,0.10892l-0.16588,0.01274l-0.15159,0.06855l-0.95891,0.1742l-0.30309,-0.01981l-0.01144,0.00381l-0.52955,0.04066l-0.5283,0.05457l-0.06376,-0.00912l-0.0662,0.00508l-0.01935,-0.01731l-0.08177,-0.0117l-0.41233,0.02285l-0.33786,0.06138l-0.37078,-0.02424l-0.3696,0.03818l-0.69651,-0.0996l-0.11039,0.02005l-0.37078,-0.02424l-0.3696,0.03818l-0.08632,-0.01234l-0.11039,0.02005l-0.09044,-0.00591l-0.08521,0.0309l-0.632,0.06529l-0.28169,-0.04028l-0.28305,0.02924l-0.54395,-0.07779l-0.11039,0.02005l-0.09044,-0.00591l-0.08521,0.0309l-0.632,0.06529l-0.28169,-0.04028l-0.28305,0.02924l-1.29889,-0.18575l-0.55602,0.03081l-0.22609,-0.0434l-0.22901,0.02366l-18.76321,-2.68326l-0.34409,-0.14024l-0.36271,-0.08065l-0.87165,-0.43599l-0.05017,-0.04302l-0.13974,-0.01998l-0.02342,0.0112l-0.06211,-0.02343l-0.06376,-0.00912l-0.49184,-0.20046l-0.49693,-0.18745l-0.05295,-0.03667l-0.06148,-0.02506l-0.00956,-0.02414l-0.15929,-0.11032l-0.78564,-0.89553l0.09822,-1.13202l-0.0015,-0.00378l0.00205,-0.00265l0.06123,-0.70575c-0.53778,-0.2456 -0.95586,-0.68787 -1.17669,-1.2234z" fill="url(#color-3)" stroke="none" stroke-width="0.5"/><path d="M222.05611,70.11772l-0.02763,-0.0169l-0.01343,-0.06149c-0.15133,-0.30422 -0.23196,-0.64908 -0.22105,-1.01246l0.02134,-0.71064l0.0713,-0.2527l0.00788,-0.26245l0.0879,-0.31154l0.04731,-1.57581l-0.09533,-0.84853l0.02037,-0.15215l-0.03275,-0.14998l0.00057,-0.01896l-0.02013,-0.06219l-0.14566,-0.24483l-0.08573,-0.28547l-0.60427,-1.30506l-0.02879,-0.15079l-0.07849,-0.13193l-0.1765,-0.58774l-0.12021,-0.1926l-0.08773,-0.27104l-0.14566,-0.24482l-0.38797,-1.29194l-0.01602,-0.34249l-0.07313,-0.33496l0.00492,-0.16393l-0.06905,-0.31625l0.00788,-0.26244l-0.05601,-0.25652l0.00242,-0.08042l-0.02978,-0.09916l-0.01603,-0.34248l-0.07313,-0.33497l0.08108,-2.70041l0.0713,-0.2527l0.00788,-0.26245l0.0879,-0.31154l0.01773,-0.5903l0.07129,-0.25271l0.00788,-0.26245l0.14542,-0.51539l0.15202,-0.65692l0.06133,-0.12001l0.01436,-0.13401l0.26411,-0.71957l0.13353,-0.57699l0.06133,-0.12002l0.01437,-0.134l0.25219,-0.68712l0.13528,-0.68432l0.13575,-0.28824l0.07842,-0.30881l0.35805,-0.66539l0.25397,-0.79747l0.10494,-0.1699l0.04915,-0.19354l1.28413,-2.38639l0.56749,-1.54616l0.13199,-0.1943l0.0751,-0.22255l0.35543,-0.55399l0.23739,-0.5454l0.10527,-0.1369l0.05522,-0.16363l0.44772,-0.69783l0.08151,-0.07676l0.04653,-0.10184l0.26749,-0.33521l0.4986,-1.14555l0.05517,-0.07174l0.02228,-0.08772l1.58545,-2.94636l0.36034,-0.98175l0.29961,-1.40661l0.08008,-0.16373l0.02431,-0.18064l0.51309,-1.28915l0.15575,-1.28434l0.04143,-0.10823l-0.00203,-0.11588l0.31917,-1.37923l0.31051,-1.57073l0.17882,-1.66816l0.14763,-4.91661l-0.08265,-1.02267l-0.21193,-0.97067l-0.24565,-0.96898l-0.00012,-0.03648l-0.01619,-0.03269l-0.09418,-0.43136l-0.21321,-0.58322l-0.00675,-0.06378l-0.03279,-0.05512l-0.1765,-0.58773l-0.12021,-0.19261l-0.04681,-0.14466l-0.03382,-0.00783l-0.14013,-0.23552l-0.20263,-0.18452l-0.00416,-0.16304l-0.21515,-0.36162l-0.01709,-0.05691l-0.00174,-0.0031l-0.15283,-0.14756l-0.27145,-0.43492l-0.08773,-0.27104l-0.08889,-0.14941l-0.24753,-0.26286l-0.16749,-0.29916l-0.21522,-0.2669l-0.13359,-0.28852l-0.01587,-0.08312l-0.28142,-0.25627l-0.00271,-0.10637l-0.10931,-0.13556l-0.1336,-0.28852l-0.20614,-1.07975l0.33967,-0.47778l0.05006,-0.58408l0.85571,-0.69001l0.16224,-0.07512l0.0125,-0.02043l0.05985,-0.01307l0.05393,-0.02497l0.48138,-0.09191l0.4788,-0.10453l0.0594,0.00178l0.06017,-0.01148l0.01952,0.01388l3.58025,0.1075l1.13245,-0.09152l0.96604,-0.10854l0.15216,0.02038l0.14998,-0.03275l0.73244,0.02199l0.31625,-0.06905l0.26245,0.00788l0.25652,-0.05601l0.28426,0.00853l0.2527,0.0713l0.26245,0.00788l0.56424,0.1592l0.20384,0.11671l0.22766,0.05781l0.31232,0.16806l0.14878,-0.03582l0.23066,0.14799l0.26376,0.07442l0.07663,0.14397l0.3528,0.22635l0.16132,0.05921l0.23565,0.16009l0.26528,0.10383l0.41785,0.29706l0.13812,0.16141l0.1788,0.11472l0.13093,0.13903l0.24572,0.17469l0.13812,0.16141l0.1788,0.11471l0.27572,0.29279l0.10378,0.18536l0.15283,0.14756l0.04559,0.07305l0.07018,0.04989l0.13812,0.16141l0.17879,0.11471l0.27572,0.29279l0.10378,0.18536l0.15284,0.14755l0.51155,0.81961l1.19385,1.69553l0.10139,0.26257l0.15787,0.23303l0.16606,0.45422l0.2469,0.35065l0.10139,0.26258l0.15787,0.23302l0.23245,0.63585l0.19549,0.4222l0.36502,0.65197l0.06161,0.22666l0.1201,0.20187l0.08573,0.28547l0.2035,0.4395l0.04405,0.23072l0.10426,0.21048l0.60782,2.78385l0.10576,0.3522l0.00391,0.08354l0.03712,0.07494l0.23264,1.06552l0.10577,0.35219l0.01602,0.34248l0.07314,0.33497l-0.00919,0.30605l0.06905,0.31625l-0.00156,0.05198l0.02084,0.04765l0.12079,0.7149l-0.00274,0.0352l0.0131,0.03279l0.08546,0.62857l0.18376,0.50263l0.02078,0.19622l0.07908,0.18078l0.12079,0.71489l-0.00273,0.03521l0.0131,0.03279l0.09398,0.69121l0.21052,0.70102l0.00791,0.169l0.06277,0.1571l0.09398,0.69121l0.21052,0.70102l0.0063,0.13463l0.05401,0.12348l0.09867,0.58397l0.22046,0.73412l0.00391,0.08354l0.03712,0.07494l0.09418,0.43135l0.11636,0.31827l0.89011,1.26414l0.31754,0.2534l0.16421,0.21498l0.21016,0.17033l0.47618,0.63329l2.02084,2.14596l0.43722,0.34891l0.18408,0.24098l0.2295,0.1982l0.32205,0.45737l0.58538,0.62162l0.10379,0.18536l0.15283,0.14756l0.07801,0.12499l0.27014,0.21557l0.21921,0.28698l0.2598,0.25083l0.54291,0.86983l0.0415,0.12823l0.0846,0.10492l0.18638,0.40252l0.29859,0.42406l0.06984,0.18085l0.1217,0.15092l0.26718,0.57704l0.01697,0.0889l0.05076,0.07493l0.23246,0.63584l0.49709,1.07358l0.01697,0.0889l0.05076,0.07493l0.23246,0.63584l0.22991,0.49654l0.01697,0.0889l0.05076,0.07493l0.26292,0.71917l0.01545,0.1459l0.06513,0.13147l0.05735,0.26271l0.24999,0.4465l0.06161,0.22666l0.1201,0.20186l0.25865,0.8613l0.00791,0.16899l0.06277,0.1571l0.08191,0.60247l0.30244,0.76863l0.03884,0.29731l0.0998,0.28274l0.09249,0.97752l0.21396,0.84397l0.00049,0.14765l0.05158,0.13835l0.22174,1.97367l0.11318,0.83246l-0.01954,0.17719l0.03802,0.17417l-0.09389,3.12679l-0.05768,0.20445l0.00372,0.2124l-0.16346,0.70637l-0.06133,0.12002l-0.01437,0.13401l-0.1906,0.5193l-0.01095,0.36468l-0.0233,0.08258l0.03036,0.06558l-0.17509,0.4474l-0.13046,0.46239l-0.06379,0.03395l-0.03128,0.07991l-0.083,0.11674l-0.05888,0.20868l-0.18136,0.31676l-0.13302,0.3399l-0.13156,0.18505l-0.05651,0.15397l-0.16009,0.23564l-0.10382,0.26529l-0.22012,0.30962l-0.08774,0.16305l-0.23084,0.25351l-0.18514,0.28857l-1.31019,1.23381l-0.3948,0.55533l-0.2384,0.44304l-0.11725,0.12876l-0.00909,0.10602l-0.15623,0.12597l-0.0145,0.0571l-0.02816,0.05233l-0.01664,0.05896l-0.02114,0.01126l-0.53671,0.99739l-0.11724,0.12876l-0.00909,0.10601l-0.32912,0.26539l-0.10748,0.11803l-0.00259,0.03016l-0.09362,0.07549l-0.08098,0.08892l-0.03026,0.00077l-0.12426,0.1002l-0.10748,0.11803l-0.00259,0.03016l-0.09362,0.07549l-0.08098,0.08892l-0.03026,0.00077l-0.12426,0.1002l-0.28466,0.31261l-0.10638,0.0027l-0.13556,0.10931l-0.28852,0.13359l-0.15079,0.02879l-0.13193,0.07849l-0.8613,0.25865l-0.27996,0.0131l-0.0101,0.00468l-0.48137,0.0919l-0.47879,0.10454l-0.0594,-0.00179l-0.06018,0.01149l-0.01952,-0.01388l-0.07618,-0.00229l-0.37573,0.06349l-0.30347,0.09114l-0.34249,0.01602l-0.33497,0.07313l-0.64893,-0.01949l-0.09915,0.02978l-0.34248,0.01602l-0.33496,0.07314l-0.08042,-0.00242l-0.09915,0.02978l-0.08354,0.00391l-0.07494,0.03712l-0.57278,0.12506l-0.26245,-0.00788l-0.25652,0.05601l-0.5068,-0.01522l-0.09916,0.02978l-0.08354,0.00391l-0.07494,0.03712l-0.57277,0.12506l-0.26245,-0.00788l-0.25652,0.05601l-1.21017,-0.03634l-0.50666,0.08561l-0.21179,-0.01647l-0.20755,0.04532l-17.48159,-0.52492l-0.32997,-0.0931l-0.34091,-0.03654l-0.84423,-0.30986l-0.05044,-0.03427l-0.1302,-0.00391l-0.02032,0.01269l-0.05937,-0.01508l-0.0594,-0.00178l-0.47167,-0.13308l-0.47499,-0.12062l-0.05233,-0.02816l-0.05896,-0.01663l-0.01126,-0.02115l-0.15744,-0.08472l-0.81276,-0.74011l-0.02671,-1.04813l-0.00176,-0.00331l0.00161,-0.00264l-0.01666,-0.65345c-0.51845,-0.16973 -0.94742,-0.53213 -1.20516,-1.0004z" fill="url(#color-4)" stroke="none" stroke-width="0.5"/><path d="M205.37625,179.46951c0,0 9.42687,-30.462 11.80468,-48.45901c2.35457,-17.82105 2.39314,-59.00037 2.39314,-59.00037l41.66052,-0.34109c0,0 -1.12795,40.94869 1.42617,59.22261c2.46509,17.63697 13.64091,48.57786 13.64091,48.57786z" fill="url(#color-5)" stroke="none" stroke-width="0"/><path d="M179.86976,179.65803v-60.26043h46.61412v60.26043z" fill="url(#color-6)" stroke="url(#color-7)" stroke-width="0"/><path d="M267.87433,151.63824c0,14.98335 0.01372,26.93128 -17.8091,27.12975c-16.49564,0.18369 -17.8091,-12.1464 -17.8091,-27.12975c0,-14.98335 2.64508,-26.92288 17.8091,-27.12975c15.82517,-0.21589 17.8091,12.1464 17.8091,27.12975z" fill="url(#color-8)" stroke="url(#color-9)" stroke-width="0"/><path d="M304.69505,151.74275c0,14.98335 0.01372,26.93128 -17.8091,27.12975c-16.49563,0.18369 -17.8091,-12.1464 -17.8091,-27.12975c0,-14.98335 2.64508,-26.92288 17.8091,-27.12975c15.82517,-0.2159 17.8091,12.1464 17.8091,27.12975z" fill="url(#color-10)" stroke="url(#color-11)" stroke-width="0"/><path d="M248.30844,125.57587v-12.07868h4.07958v12.07868z" fill="#312d29" stroke="url(#color-12)" stroke-width="0"/><path d="M285.75928,125.85541v-12.07868h4.07958v12.07868z" fill="#312d29" stroke="url(#color-13)" stroke-width="0"/><path d="M246.70947,118.28278v-3.56521h44.12864v3.56521z" fill="#36322e" stroke="none" stroke-width="0"/><path d="M219.3546,82.45017v-7.24379h42.01397v7.24379z" fill="url(#color-14)" stroke="url(#color-15)" stroke-width="0"/><path d="M219.13907,94.98371v-7.24379h42.01397v7.24379z" fill="url(#color-16)" stroke="url(#color-17)" stroke-width="0"/><path d="M174.11977,179.65803v-31.51043h57.11412v31.51043z" fill="url(#color-18)" stroke="url(#color-19)" stroke-width="0"/><path d="M182.86977,140.2627v-14.86511h40.61412v14.86511z" fill="url(#color-20)" stroke="url(#color-21)" stroke-width="0"/><path d="M176.86977,171.42937v-14.86511h50.36412v14.86511z" fill="url(#color-22)" stroke="url(#color-23)" stroke-width="0"/><path d="M172.75034,180.33096v-1.31049h134.49932v1.31049z" fill="#312d29" stroke="url(#color-24)" stroke-width="0"/></g></g></svg>