<svg version="1.1" xmlns="http://www.w3.org/2000/svg" xmlns:xlink="http://www.w3.org/1999/xlink" width="66.38923" height="66.18563" viewBox="0,0,66.38923,66.18563"><defs><linearGradient x1="253.65" y1="241.06666" x2="258.85" y2="241.06666" gradientUnits="userSpaceOnUse" id="color-1"><stop offset="0" stop-color="#525252"/><stop offset="1" stop-color="#363636"/></linearGradient><linearGradient x1="253.65" y1="241.06666" x2="258.85" y2="241.06666" gradientUnits="userSpaceOnUse" id="color-2"><stop offset="0" stop-color="#1f1f1f"/><stop offset="1" stop-color="#000000"/></linearGradient><linearGradient x1="222.79623" y1="234.03374" x2="227.25789" y2="234.64709" gradientUnits="userSpaceOnUse" id="color-3"><stop offset="0" stop-color="#525252"/><stop offset="1" stop-color="#2e2e2e"/></linearGradient><linearGradient x1="222.79623" y1="234.03374" x2="227.25789" y2="234.64709" gradientUnits="userSpaceOnUse" id="color-4"><stop offset="0" stop-color="#1f1f1f"/><stop offset="1" stop-color="#000000"/></linearGradient><linearGradient x1="207.34164" y1="247.34992" x2="271.51049" y2="247.34992" gradientUnits="userSpaceOnUse" id="color-5"><stop offset="0" stop-color="#b8b8b8"/><stop offset="1" stop-color="#4a4a4a"/></linearGradient><linearGradient x1="207.34164" y1="247.34992" x2="271.51049" y2="247.34992" gradientUnits="userSpaceOnUse" id="color-6"><stop offset="0" stop-color="#1f1f1f"/><stop offset="1" stop-color="#000000"/></linearGradient><linearGradient x1="229.3" y1="229.73333" x2="249.7" y2="229.73333" gradientUnits="userSpaceOnUse" id="color-7"><stop offset="0" stop-color="#5d5d5d"/><stop offset="1" stop-color="#232323"/></linearGradient><linearGradient x1="222.7" y1="242.80392" x2="255.5" y2="242.80392" gradientUnits="userSpaceOnUse" id="color-8"><stop offset="0" stop-color="#5d5d5d"/><stop offset="1" stop-color="#232323"/></linearGradient><linearGradient x1="217.16342" y1="257.23292" x2="261.19756" y2="257.23292" gradientUnits="userSpaceOnUse" id="color-9"><stop offset="0" stop-color="#5d5d5d"/><stop offset="1" stop-color="#232323"/></linearGradient><linearGradient x1="211.3" y1="271.60392" x2="267.3" y2="271.60392" gradientUnits="userSpaceOnUse" id="color-10"><stop offset="0" stop-color="#5d5d5d"/><stop offset="1" stop-color="#232323"/></linearGradient><linearGradient x1="251.39335" y1="224.01766" x2="261.23388" y2="224.01766" gradientUnits="userSpaceOnUse" id="color-11"><stop offset="0" stop-color="#aaaaaa"/><stop offset="1" stop-color="#4e4e4e"/></linearGradient><linearGradient x1="251.39335" y1="224.01766" x2="261.23388" y2="224.01766" gradientUnits="userSpaceOnUse" id="color-12"><stop offset="0" stop-color="#1f1f1f"/><stop offset="1" stop-color="#000000"/></linearGradient><linearGradient x1="261.26238" y1="224.01766" x2="271.10291" y2="224.01766" gradientUnits="userSpaceOnUse" id="color-13"><stop offset="0" stop-color="#aaaaaa"/><stop offset="1" stop-color="#4e4e4e"/></linearGradient><linearGradient x1="261.26238" y1="224.01766" x2="271.10291" y2="224.01766" gradientUnits="userSpaceOnUse" id="color-14"><stop offset="0" stop-color="#1f1f1f"/><stop offset="1" stop-color="#000000"/></linearGradient><linearGradient x1="263.65" y1="241.31666" x2="268.85" y2="241.31666" gradientUnits="userSpaceOnUse" id="color-15"><stop offset="0" stop-color="#525252"/><stop offset="1" stop-color="#363636"/></linearGradient><linearGradient x1="263.65" y1="241.31666" x2="268.85" y2="241.31666" gradientUnits="userSpaceOnUse" id="color-16"><stop offset="0" stop-color="#1f1f1f"/><stop offset="1" stop-color="#000000"/></linearGradient><linearGradient x1="207.875" y1="218.75" x2="271.875" y2="218.75" gradientUnits="userSpaceOnUse" id="color-17"><stop offset="0" stop-color="#525252"/><stop offset="1" stop-color="#2e2e2e"/></linearGradient><linearGradient x1="207.875" y1="218.75" x2="271.875" y2="218.75" gradientUnits="userSpaceOnUse" id="color-18"><stop offset="0" stop-color="#1f1f1f"/><stop offset="1" stop-color="#000000"/></linearGradient></defs><g transform="translate(-206.26377,-214)"><g data-paper-data="{&quot;isPaintingLayer&quot;:true}" fill-rule="nonzero" stroke-linejoin="miter" stroke-miterlimit="10" stroke-dasharray="" stroke-dashoffset="0" style="mix-blend-mode: normal"><g><path d="M253.65,249.66666v-17.2h5.2v17.2z" fill="url(#color-1)" stroke="url(#color-2)" stroke-width="1.5" stroke-linecap="butt"/><path d="M220.21849,252.78474l0.67217,-34.95989l11.11297,-2.53071l-7.32347,38.10396z" fill="url(#color-3)" stroke="url(#color-4)" stroke-width="1.5" stroke-linecap="butt"/><path d="M207.34164,279.43563c0,0 23.96029,-64.63938 32.08881,-64.16885c9.29886,0.53827 32.08004,64.16885 32.08004,64.16885z" fill="url(#color-5)" stroke="url(#color-6)" stroke-width="1.5" stroke-linecap="butt"/><path d="M249.7,229.73333h-20.4" fill="none" stroke="url(#color-7)" stroke-width="4.5" stroke-linecap="round"/><path d="M222.7,242.80392h32.8" fill="none" stroke="url(#color-8)" stroke-width="4.5" stroke-linecap="round"/><path d="M261.19757,257.23292h-44.03415" fill="none" stroke="url(#color-9)" stroke-width="4.5" stroke-linecap="round"/><path d="M211.3,271.60392h56" fill="none" stroke="url(#color-10)" stroke-width="4.5" stroke-linecap="round"/><path d="M261.23388,224.01766c-0.03682,7.61853 -0.15339,8.43369 -4.92026,8.35295c-4.76839,-0.08077 -4.97941,-1.11312 -4.92026,-8.35295c0.06531,-7.99323 0.05143,-8.54885 4.92026,-8.35295c4.66499,0.18771 4.9607,-0.01299 4.92026,8.35295z" fill="url(#color-11)" stroke="url(#color-12)" stroke-width="1.5" stroke-linecap="butt"/><path d="M271.10291,224.01766c-0.03682,7.61853 -0.15339,8.43369 -4.92026,8.35295c-4.76839,-0.08077 -4.97941,-1.11312 -4.92026,-8.35295c0.06531,-7.99323 0.05143,-8.54885 4.92026,-8.35295c4.66499,0.18771 4.9607,-0.01299 4.92026,8.35295z" fill="url(#color-13)" stroke="url(#color-14)" stroke-width="1.5" stroke-linecap="butt"/><path d="M259.15,246.66666c0,0 4.5,-1.13327 4.5,-3.66666c0,-3.08903 0,-10.28334 0,-10.28334h5.2c0,0 0,6.74766 0,9.78334c0,1.13514 -0.97555,3.53211 -2.65925,5.32718c-2.23671,2.38466 -5.34075,4.08948 -5.34075,4.08948z" fill="url(#color-15)" stroke="url(#color-16)" stroke-width="1.5" stroke-linecap="butt"/><path d="M207.875,214.75h64c0,0 -0.14445,3.94065 -0.98682,5.35939c-0.72248,1.2168 -3.76318,2.64061 -3.76318,2.64061h-55c0,0 -2.31812,-1.51057 -2.93964,-2.6805c-0.76509,-1.44017 -1.31036,-5.3195 -1.31036,-5.3195z" fill="url(#color-17)" stroke="url(#color-18)" stroke-width="1.5" stroke-linecap="butt"/></g></g></g></svg>