<svg version="1.1" xmlns="http://www.w3.org/2000/svg" xmlns:xlink="http://www.w3.org/1999/xlink" width="342.16252" height="424.74492" viewBox="0,0,342.16252,424.74492"><defs><linearGradient x1="217.33334" y1="68.896" x2="262.66666" y2="68.896" gradientUnits="userSpaceOnUse" id="color-1"><stop offset="0" stop-color="#cdd3da"/><stop offset="1" stop-color="#9da3ab"/></linearGradient><linearGradient x1="208.83333" y1="173.89601" x2="271.16667" y2="173.89601" gradientUnits="userSpaceOnUse" id="color-2"><stop offset="0" stop-color="#b2b8bd"/><stop offset="1" stop-color="#8c9298"/></linearGradient><linearGradient x1="207.5" y1="178.22935" x2="272.5" y2="178.22935" gradientUnits="userSpaceOnUse" id="color-3"><stop offset="0" stop-color="#777c7f"/><stop offset="1" stop-color="#5f6368"/></linearGradient><radialGradient cx="223.42058" cy="-64.58705" r="24.95866" gradientUnits="userSpaceOnUse" id="color-4"><stop offset="0" stop-color="#bec4ca"/><stop offset="1" stop-color="#8c9098"/></radialGradient><linearGradient x1="228.36345" y1="-32.81208" x2="221.55978" y2="-24.8146" gradientUnits="userSpaceOnUse" id="color-5"><stop offset="0" stop-color="#f0f7ff"/><stop offset="1" stop-color="#afb6be"/></linearGradient><linearGradient x1="222.45038" y1="-25.86145" x2="118.15632" y2="96.73303" gradientUnits="userSpaceOnUse" id="color-6"><stop offset="0" stop-color="#f0f7ff"/><stop offset="1" stop-color="#afb6be"/></linearGradient><linearGradient x1="128.79827" y1="83.35815" x2="103.65837" y2="112.90932" gradientUnits="userSpaceOnUse" id="color-7"><stop offset="0" stop-color="#cbe3ff"/><stop offset="1" stop-color="#86a1bf"/></linearGradient><linearGradient x1="234.02487" y1="-64.52473" x2="230.52488" y2="-74.42425" gradientUnits="userSpaceOnUse" id="color-8"><stop offset="0" stop-color="#f0f7ff"/><stop offset="1" stop-color="#afb6be"/></linearGradient><linearGradient x1="230.98304" y1="-73.1284" x2="177.33158" y2="-224.87879" gradientUnits="userSpaceOnUse" id="color-9"><stop offset="0" stop-color="#f0f7ff"/><stop offset="1" stop-color="#afb6be"/></linearGradient><linearGradient x1="182.49701" y1="-208.58596" x2="169.56445" y2="-245.16509" gradientUnits="userSpaceOnUse" id="color-10"><stop offset="0" stop-color="#cbe3ff"/><stop offset="1" stop-color="#86a1bf"/></linearGradient><linearGradient x1="258.84749" y1="-43.42644" x2="269.12202" y2="-41.26211" gradientUnits="userSpaceOnUse" id="color-11"><stop offset="0" stop-color="#f0f7ff"/><stop offset="1" stop-color="#afb6be"/></linearGradient><linearGradient x1="267.77709" y1="-41.54543" x2="425.27609" y2="-8.36824" gradientUnits="userSpaceOnUse" id="color-12"><stop offset="0" stop-color="#f0f7ff"/><stop offset="1" stop-color="#afb6be"/></linearGradient><linearGradient x1="408.44448" y1="-11.34063" x2="446.4093" y2="-3.34335" gradientUnits="userSpaceOnUse" id="color-13"><stop offset="0" stop-color="#cbe3ff"/><stop offset="1" stop-color="#86a1bf"/></linearGradient><radialGradient cx="236.80613" cy="-41.28472" r="20.5" gradientUnits="userSpaceOnUse" id="color-14"><stop offset="0" stop-color="#e6eef5"/><stop offset="1" stop-color="#c4cad5"/></radialGradient></defs><g transform="translate(-103.88004,244.84891)"><g data-paper-data="{&quot;isPaintingLayer&quot;:true}" fill-rule="nonzero" stroke="none" stroke-width="0" stroke-linecap="butt" stroke-linejoin="miter" stroke-miterlimit="10" stroke-dasharray="" stroke-dashoffset="0" style="mix-blend-mode: normal"><path d="M217.33334,171.22934l8.33333,-204.66667h28.66666l8.33333,204.66667z" fill="url(#color-1)"/><path d="M208.83333,176.89601v-6h62.33333v6z" fill="url(#color-2)"/><path d="M207.5,179.89601v-3.33333h65v3.33333z" fill="url(#color-3)"/><path d="M215.83334,-28.47866c0,-5.48483 0,-26.33483 0,-37c0,-3.59358 3.15873,-6.91731 6.33333,-6.91731c5.84411,0 25.85484,0 36,0c3.63233,0 6,3.22824 6,6.25065c0,10.40972 0,32.86094 0,38.66667c0,2.49943 -1.92973,5 -5,5c-10.75875,0 -34.18908,0 -39,0c-1.59078,0 -4.33333,-3.64513 -4.33333,-6z" fill="url(#color-4)"/><g><g data-paper-data="{&quot;index&quot;:null}"><path d="M223.03178,-37.34786l10.66333,9.07155l-6.80367,7.9975l-10.66333,-9.07157z" fill="url(#color-5)"/><path d="M214.92311,-32.26507l15.05452,12.80724l-97.44297,106.27579l-7.77008,-6.6102z" fill="url(#color-6)"/><path d="M124.86464,80.01173l7.86721,6.69283c0,0 -26.54765,27.79906 -28.65453,26.00748c-2.5682,-2.18384 20.78732,-32.70029 20.78732,-32.70029z" fill="url(#color-7)"/></g><g data-paper-data="{&quot;index&quot;:null}"><path d="M223.92521,-72.09092l13.19934,-4.66664l3.49999,9.8995l-13.19934,4.66664z" fill="url(#color-8)"/><path d="M177.60443,-207.08332l9.61799,-3.40044l53.07804,134.06118l-18.63485,6.58835z" fill="url(#color-9)"/><path d="M169.88535,-244.83125c2.60767,-0.9213 17.48078,34.52382 17.48078,34.52382l-9.73821,3.44295c0,0 -10.92119,-36.84376 -7.74257,-37.96676z" fill="url(#color-10)"/></g><g data-paper-data="{&quot;index&quot;:null}"><path d="M257.40461,-36.57678l2.88576,-13.69935l10.27453,2.16434l-2.88577,13.69936z" fill="url(#color-11)"/><path d="M265.74002,-31.87505l4.07413,-19.34077l139.88859,34.94084l-2.10278,9.98235z" fill="url(#color-12)"/><path d="M446.03606,-3.61743c-0.69415,3.29892 -38.65611,-2.66966 -38.65611,-2.66966l2.12906,-10.10711c0,0 37.09654,10.0704 36.52706,12.77677z" fill="url(#color-13)"/></g><path d="M232.40269,-65.97432c10.39454,-4.48748 22.45881,0.30111 26.9463,10.69567c4.48748,10.39454 -0.30111,22.45881 -10.69566,26.94629c-10.39454,4.48748 -22.45881,-0.30111 -26.94629,-10.69566c-4.48748,-10.39454 0.30111,-22.45881 10.69566,-26.94629z" data-paper-data="{&quot;index&quot;:null}" fill="url(#color-14)"/></g></g></g></svg>