<svg version="1.1" xmlns="http://www.w3.org/2000/svg" xmlns:xlink="http://www.w3.org/1999/xlink" width="106.66666" height="106.66667" viewBox="0,0,106.66666,106.66667"><defs><radialGradient cx="240" cy="180" r="51.83333" gradientUnits="userSpaceOnUse" id="color-1"><stop offset="0" stop-color="#161717"/><stop offset="1" stop-color="#2f3333"/></radialGradient><linearGradient x1="240.00001" y1="128.16667" x2="240.00001" y2="231.83334" gradientUnits="userSpaceOnUse" id="color-2"><stop offset="0" stop-color="#7f8782"/><stop offset="1" stop-color="#404543"/></linearGradient><radialGradient cx="240" cy="180" r="25.53333" gradientUnits="userSpaceOnUse" id="color-3"><stop offset="0" stop-color="#1b1b1b"/><stop offset="1" stop-color="#2b2f2f"/></radialGradient><linearGradient x1="240" y1="154.46667" x2="240" y2="205.53333" gradientUnits="userSpaceOnUse" id="color-4"><stop offset="0" stop-color="#7f8782"/><stop offset="1" stop-color="#404543"/></linearGradient></defs><g transform="translate(-186.66667,-126.66667)"><g data-paper-data="{&quot;isPaintingLayer&quot;:true}" fill-rule="nonzero" stroke-linecap="butt" stroke-linejoin="miter" stroke-miterlimit="10" stroke-dasharray="" stroke-dashoffset="0" style="mix-blend-mode: normal"><path d="M291.83333,180c0,28.62676 -23.20657,51.83334 -51.83333,51.83334c-28.62676,0 -51.83333,-23.20658 -51.83333,-51.83334c0,-28.62676 23.20657,-51.83333 51.83333,-51.83333c28.62676,0 51.83333,23.20657 51.83333,51.83333z" fill="url(#color-1)" stroke="url(#color-2)" stroke-width="3"/><path d="M265.53333,180c0,14.10167 -11.43166,25.53333 -25.53333,25.53333c-14.10167,0 -25.53333,-11.43166 -25.53333,-25.53333c0,-14.10167 11.43166,-25.53333 25.53333,-25.53333c14.10167,0 25.53333,11.43166 25.53333,25.53333z" fill="url(#color-3)" stroke="url(#color-4)" stroke-width="0"/></g></g></svg>