<svg version="1.1" xmlns="http://www.w3.org/2000/svg" xmlns:xlink="http://www.w3.org/1999/xlink" width="92.73333" height="57.33334" viewBox="0,0,92.73333,57.33334"><defs><linearGradient x1="199.19315" y1="151.37855" x2="281.89826" y2="151.37855" gradientUnits="userSpaceOnUse" id="color-1"><stop offset="0" stop-color="#b58383"/><stop offset="1" stop-color="#826767"/></linearGradient><linearGradient x1="199.19315" y1="151.37855" x2="281.89826" y2="151.37855" gradientUnits="userSpaceOnUse" id="color-2"><stop offset="0" stop-color="#160000"/><stop offset="1" stop-color="#000000"/></linearGradient><linearGradient x1="194.39008" y1="177.33912" x2="285.89008" y2="177.33912" gradientUnits="userSpaceOnUse" id="color-3"><stop offset="0" stop-color="#826868"/><stop offset="1" stop-color="#4f4444"/></linearGradient><linearGradient x1="194.39008" y1="177.33911" x2="285.89008" y2="177.33911" gradientUnits="userSpaceOnUse" id="color-4"><stop offset="0" stop-color="#300000"/><stop offset="1" stop-color="#170000"/></linearGradient><linearGradient x1="205.64008" y1="150.3391" x2="208.57625" y2="150.3391" gradientUnits="userSpaceOnUse" id="color-5"><stop offset="0" stop-color="#6b5b5b"/><stop offset="1" stop-color="#4a3d3d"/></linearGradient><linearGradient x1="205.64008" y1="150.33912" x2="208.57625" y2="150.33912" gradientUnits="userSpaceOnUse" id="color-6"><stop offset="0" stop-color="#1c1c1c"/><stop offset="1" stop-color="#0e0e0e"/></linearGradient><linearGradient x1="213.89806" y1="150.33909" x2="216.83423" y2="150.33909" gradientUnits="userSpaceOnUse" id="color-7"><stop offset="0" stop-color="#6b5b5b"/><stop offset="1" stop-color="#4a3d3d"/></linearGradient><linearGradient x1="213.89806" y1="150.3391" x2="216.83423" y2="150.3391" gradientUnits="userSpaceOnUse" id="color-8"><stop offset="0" stop-color="#1c1c1c"/><stop offset="1" stop-color="#0e0e0e"/></linearGradient><linearGradient x1="222.15604" y1="150.33909" x2="225.09221" y2="150.33909" gradientUnits="userSpaceOnUse" id="color-9"><stop offset="0" stop-color="#6b5b5b"/><stop offset="1" stop-color="#4a3d3d"/></linearGradient><linearGradient x1="222.15604" y1="150.33909" x2="225.09222" y2="150.33909" gradientUnits="userSpaceOnUse" id="color-10"><stop offset="0" stop-color="#1c1c1c"/><stop offset="1" stop-color="#0e0e0e"/></linearGradient><linearGradient x1="230.41402" y1="150.3391" x2="233.35019" y2="150.3391" gradientUnits="userSpaceOnUse" id="color-11"><stop offset="0" stop-color="#6b5b5b"/><stop offset="1" stop-color="#4a3d3d"/></linearGradient><linearGradient x1="230.41402" y1="150.33912" x2="233.35019" y2="150.33912" gradientUnits="userSpaceOnUse" id="color-12"><stop offset="0" stop-color="#1c1c1c"/><stop offset="1" stop-color="#0e0e0e"/></linearGradient><linearGradient x1="238.672" y1="150.33909" x2="241.60817" y2="150.33909" gradientUnits="userSpaceOnUse" id="color-13"><stop offset="0" stop-color="#6b5b5b"/><stop offset="1" stop-color="#4a3d3d"/></linearGradient><linearGradient x1="238.672" y1="150.3391" x2="241.60817" y2="150.3391" gradientUnits="userSpaceOnUse" id="color-14"><stop offset="0" stop-color="#1c1c1c"/><stop offset="1" stop-color="#0e0e0e"/></linearGradient><linearGradient x1="246.92998" y1="150.33909" x2="249.86615" y2="150.33909" gradientUnits="userSpaceOnUse" id="color-15"><stop offset="0" stop-color="#6b5b5b"/><stop offset="1" stop-color="#4a3d3d"/></linearGradient><linearGradient x1="246.92998" y1="150.33909" x2="249.86615" y2="150.33909" gradientUnits="userSpaceOnUse" id="color-16"><stop offset="0" stop-color="#1c1c1c"/><stop offset="1" stop-color="#0e0e0e"/></linearGradient><linearGradient x1="255.18795" y1="150.3391" x2="258.12411" y2="150.3391" gradientUnits="userSpaceOnUse" id="color-17"><stop offset="0" stop-color="#6b5b5b"/><stop offset="1" stop-color="#4a3d3d"/></linearGradient><linearGradient x1="255.18795" y1="150.33912" x2="258.12412" y2="150.33912" gradientUnits="userSpaceOnUse" id="color-18"><stop offset="0" stop-color="#1c1c1c"/><stop offset="1" stop-color="#0e0e0e"/></linearGradient><linearGradient x1="263.44593" y1="150.33909" x2="266.3821" y2="150.33909" gradientUnits="userSpaceOnUse" id="color-19"><stop offset="0" stop-color="#6b5b5b"/><stop offset="1" stop-color="#4a3d3d"/></linearGradient><linearGradient x1="263.44593" y1="150.3391" x2="266.3821" y2="150.3391" gradientUnits="userSpaceOnUse" id="color-20"><stop offset="0" stop-color="#1c1c1c"/><stop offset="1" stop-color="#0e0e0e"/></linearGradient><linearGradient x1="271.70391" y1="150.33909" x2="274.64008" y2="150.33909" gradientUnits="userSpaceOnUse" id="color-21"><stop offset="0" stop-color="#6b5b5b"/><stop offset="1" stop-color="#4a3d3d"/></linearGradient><linearGradient x1="271.70391" y1="150.33909" x2="274.64008" y2="150.33909" gradientUnits="userSpaceOnUse" id="color-22"><stop offset="0" stop-color="#1c1c1c"/><stop offset="1" stop-color="#0e0e0e"/></linearGradient><linearGradient x1="194.39008" y1="125.83911" x2="285.89008" y2="125.83911" gradientUnits="userSpaceOnUse" id="color-23"><stop offset="0" stop-color="#826868"/><stop offset="1" stop-color="#4f4444"/></linearGradient><linearGradient x1="194.39008" y1="125.83911" x2="285.89008" y2="125.83911" gradientUnits="userSpaceOnUse" id="color-24"><stop offset="0" stop-color="#300000"/><stop offset="1" stop-color="#170000"/></linearGradient><linearGradient x1="279.92341" y1="151.9391" x2="286.25675" y2="151.9391" gradientUnits="userSpaceOnUse" id="color-25"><stop offset="0" stop-color="#443c3c"/><stop offset="1" stop-color="#211c1c"/></linearGradient><linearGradient x1="279.92341" y1="151.93911" x2="286.25675" y2="151.93911" gradientUnits="userSpaceOnUse" id="color-26"><stop offset="0" stop-color="#1c1c1c"/><stop offset="1" stop-color="#0e0e0e"/></linearGradient><linearGradient x1="194.02342" y1="151.9391" x2="200.35675" y2="151.9391" gradientUnits="userSpaceOnUse" id="color-27"><stop offset="0" stop-color="#443c3c"/><stop offset="1" stop-color="#211c1c"/></linearGradient><linearGradient x1="194.02342" y1="151.9391" x2="200.35676" y2="151.9391" gradientUnits="userSpaceOnUse" id="color-28"><stop offset="0" stop-color="#1c1c1c"/><stop offset="1" stop-color="#0e0e0e"/></linearGradient><radialGradient cx="236.3" cy="145.56639" r="15.43305" gradientUnits="userSpaceOnUse" id="color-29"><stop offset="0" stop-color="#555555"/><stop offset="1" stop-color="#343434"/></radialGradient><linearGradient x1="224.56695" y1="151.39133" x2="255.43305" y2="151.39133" gradientUnits="userSpaceOnUse" id="color-30"><stop offset="0" stop-color="#cacaca"/><stop offset="1" stop-color="#848484"/></linearGradient><linearGradient x1="239.11053" y1="144.72107" x2="240.93591" y2="144.72107" gradientUnits="userSpaceOnUse" id="color-31"><stop offset="0" stop-color="#1c1c1c"/><stop offset="1" stop-color="#0e0e0e"/></linearGradient><linearGradient x1="239.18706" y1="158.06158" x2="241.01243" y2="158.06158" gradientUnits="userSpaceOnUse" id="color-32"><stop offset="0" stop-color="#1c1c1c"/><stop offset="1" stop-color="#0e0e0e"/></linearGradient><linearGradient x1="246.66922" y1="150.49467" x2="246.67121" y2="152.32004" gradientUnits="userSpaceOnUse" id="color-33"><stop offset="0" stop-color="#1c1c1c"/><stop offset="1" stop-color="#0e0e0e"/></linearGradient><linearGradient x1="233.32881" y1="150.58571" x2="233.33079" y2="152.41108" gradientUnits="userSpaceOnUse" id="color-34"><stop offset="0" stop-color="#1c1c1c"/><stop offset="1" stop-color="#0e0e0e"/></linearGradient></defs><g transform="translate(-193.77341,-123.27243)"><g data-paper-data="{&quot;isPaintingLayer&quot;:true}" fill-rule="nonzero" stroke-linecap="butt" stroke-linejoin="miter" stroke-miterlimit="10" stroke-dasharray="" stroke-dashoffset="0" style="mix-blend-mode: normal"><path d="M199.19315,176.86495v-50.97279h82.70512v50.97279z" fill="url(#color-1)" stroke="url(#color-2)" stroke-width="1"/><path d="M194.39008,179.97245v-5.26667h91.5v5.26667z" fill="url(#color-3)" stroke="url(#color-4)" stroke-width="0.5"/><path d="M205.64008,174.33912v-48h2.93617v48z" fill="url(#color-5)" stroke="url(#color-6)" stroke-width="0.5"/><path d="M213.89806,174.33911v-48h2.93617v48z" fill="url(#color-7)" stroke="url(#color-8)" stroke-width="0.5"/><path d="M222.15604,174.3391v-48h2.93618v48z" fill="url(#color-9)" stroke="url(#color-10)" stroke-width="0.5"/><path d="M230.41402,174.33912v-48h2.93617v48z" fill="url(#color-11)" stroke="url(#color-12)" stroke-width="0.5"/><path d="M238.672,174.33911v-48h2.93617v48z" fill="url(#color-13)" stroke="url(#color-14)" stroke-width="0.5"/><path d="M246.92998,174.3391v-48h2.93617v48z" fill="url(#color-15)" stroke="url(#color-16)" stroke-width="0.5"/><path d="M255.18795,174.33912v-48h2.93617v48z" fill="url(#color-17)" stroke="url(#color-18)" stroke-width="0.5"/><path d="M263.44593,174.33911v-48h2.93617v48z" fill="url(#color-19)" stroke="url(#color-20)" stroke-width="0.5"/><path d="M271.70391,174.3391v-48h2.93617v48z" fill="url(#color-21)" stroke="url(#color-22)" stroke-width="0.5"/><path d="M194.39008,127.56134v-3.44445h91.5v3.44445z" fill="url(#color-23)" stroke="url(#color-24)" stroke-width="0.5"/><path d="M279.92341,180.35578v-56.83333h6.33333v56.83333z" fill="url(#color-25)" stroke="url(#color-26)" stroke-width="0.5"/><path d="M194.02342,180.35578v-56.83334h6.33334v56.83334z" fill="url(#color-27)" stroke="url(#color-28)" stroke-width="0.5"/><path d="M255.43305,151.39133c0,8.5162 -6.90961,15.41995 -15.43305,15.41995c-8.52344,0 -15.43305,-6.90375 -15.43305,-15.41995c0,-8.5162 6.90961,-15.41995 15.43305,-15.41995c8.52344,0 15.43305,6.90375 15.43305,15.41995z" fill="url(#color-29)" stroke="url(#color-30)" stroke-width="0.5"/><path d="M239.11053,149.33014v-9.21814h1.82537v9.21814z" fill="#ffffff" stroke="url(#color-31)" stroke-width="0"/><path d="M236.07487,141.81609l3.94452,-3.90154l3.82909,3.82449l-1.12004,1.00471l-2.68423,-2.66583l-2.87544,2.84411z" fill="#ffffff" stroke="none" stroke-width="0"/><path d="M241.01243,153.45251v9.21813h-1.82538v-9.21813z" data-paper-data="{&quot;index&quot;:null}" fill="#ffffff" stroke="url(#color-32)" stroke-width="0"/><path d="M237.24528,159.86063l2.87544,2.84411l2.68423,-2.66583l1.12005,1.0047l-3.82909,3.82449l-3.94451,-3.90154z" data-paper-data="{&quot;index&quot;:null}" fill="#ffffff" stroke="none" stroke-width="0"/><path d="M242.06015,150.49968l9.21813,-0.01003l0.00199,1.82537l-9.21813,0.01003z" fill="#ffffff" stroke="url(#color-33)" stroke-width="0"/><path d="M249.5709,147.45584l3.90583,3.94027l-3.82032,3.83325l-1.00592,-1.11895l2.66291,-2.68713l-2.84724,-2.87235z" fill="#ffffff" stroke="none" stroke-width="0"/><path d="M237.93986,152.40606l-9.21813,0.01003l-0.00199,-1.82537l9.21813,-0.01003z" data-paper-data="{&quot;index&quot;:null}" fill="#ffffff" stroke="url(#color-34)" stroke-width="0"/><path d="M231.52764,148.64589l-2.84098,2.87854l2.66875,2.68133l-1.00349,1.12114l-3.82866,-3.82492l3.89724,-3.94876z" data-paper-data="{&quot;index&quot;:null}" fill="#ffffff" stroke="none" stroke-width="0"/></g></g></svg>