<svg version="1.1" xmlns="http://www.w3.org/2000/svg" xmlns:xlink="http://www.w3.org/1999/xlink" width="98.27999" height="104.53565" viewBox="0,0,98.27999,104.53565"><defs><linearGradient x1="243.54701" y1="156.10979" x2="242.84482" y2="162.92476" gradientUnits="userSpaceOnUse" id="color-1"><stop offset="0" stop-color="#c28b5f"/><stop offset="1" stop-color="#ffb87d"/></linearGradient><radialGradient cx="241.85392" cy="133.16322" r="13.11833" gradientUnits="userSpaceOnUse" id="color-2"><stop offset="0" stop-color="#ffd9ba"/><stop offset="1" stop-color="#ffb87d"/></radialGradient><radialGradient cx="236.37297" cy="132.93935" r="10.07074" gradientUnits="userSpaceOnUse" id="color-3"><stop offset="0" stop-color="#303030"/><stop offset="1" stop-color="#292929"/></radialGradient><radialGradient cx="253.06405" cy="131.75561" r="2.65078" gradientUnits="userSpaceOnUse" id="color-4"><stop offset="0" stop-color="#787878"/><stop offset="1" stop-color="#292929"/></radialGradient><radialGradient cx="241.73246" cy="132.56553" r="4.17314" gradientUnits="userSpaceOnUse" id="color-5"><stop offset="0" stop-color="#a7a7a7"/><stop offset="1" stop-color="#292929"/></radialGradient><linearGradient x1="256.36691" y1="193.40272" x2="268.15993" y2="195.39917" gradientUnits="userSpaceOnUse" id="color-6"><stop offset="0" stop-color="#242424"/><stop offset="1" stop-color="#373737"/></linearGradient><radialGradient cx="255.61508" cy="189.95799" r="3.52256" gradientUnits="userSpaceOnUse" id="color-7"><stop offset="0" stop-color="#bfbfbf"/><stop offset="1" stop-color="#9a9a9a"/></radialGradient><linearGradient x1="268.51653" y1="197.05234" x2="310.13175" y2="215.2912" gradientUnits="userSpaceOnUse" id="color-8"><stop offset="0" stop-color="#b2b2b2"/><stop offset="1" stop-color="#c4c4c4"/></linearGradient><linearGradient x1="268.64667" y1="197.50174" x2="295.88455" y2="209.43941" gradientUnits="userSpaceOnUse" id="color-9"><stop offset="0" stop-color="#cccccc"/><stop offset="1" stop-color="#d8d8d8"/></linearGradient><linearGradient x1="266.36821" y1="195.67249" x2="268.58564" y2="196.69142" gradientUnits="userSpaceOnUse" id="color-10"><stop offset="0" stop-color="#b5b5b5"/><stop offset="1" stop-color="#c5c5c5"/></linearGradient></defs><g transform="translate(-218.87308,-129.79073)"><g data-paper-data="{&quot;isPaintingLayer&quot;:true}" fill-rule="nonzero" stroke-linejoin="miter" stroke-miterlimit="10" stroke-dasharray="" stroke-dashoffset="0" style="mix-blend-mode: normal"><g stroke-linecap="butt"><path d="M239.03689,162.53242l0.70219,-6.81497l7.61582,0.7847l-0.70219,6.81497z" fill="url(#color-1)" stroke="#000000" stroke-width="0"/><path d="M257.81303,145.09136c-0.79236,7.69021 -7.14223,13.33627 -14.18282,12.61083c-7.04058,-0.72543 -12.10577,-7.54766 -11.3134,-15.23787c0.79236,-7.69021 7.14223,-13.33626 14.18282,-12.61082c7.04058,0.72543 12.10577,7.54765 11.3134,15.23786z" fill="url(#color-2)" stroke="none" stroke-width="0"/><path d="M245.10921,145.15821c-0.62938,0.85348 -1.49708,0.23161 -1.49708,0.23161c-0.87288,-0.65011 -2.37354,-1.42653 -2.06617,-2.92326c0.25118,-1.22318 2.41719,-2.10329 3.47915,-1.75973c1.92645,0.62325 3.25984,4.30753 0.08411,4.45138z" fill="#191412" stroke="none" stroke-width="0.5"/><path d="M249.01184,149.76941c0.19479,-0.45104 0.54215,-0.51754 0.79134,-0.49753c0.07946,0.00325 0.15956,0.01809 0.23788,0.04552c-0.17568,-1.10551 0.14819,-2.47704 -0.09104,-3.55402c0,0 -0.17409,-0.80658 0.63249,-0.98066c0.80657,-0.1741 0.98066,0.6325 0.98066,0.6325c0.28319,1.3447 0.42524,2.97847 0.25438,4.36547c-0.06403,0.51976 0.13078,1.25105 -0.30525,1.54114c-0.45245,0.30103 -1.07205,-0.17879 -1.60806,-0.26819l-0.46203,-0.19952c-0.09574,-0.04135 -0.17967,-0.09867 -0.25001,-0.1675c-0.18543,-0.16768 -0.37516,-0.46615 -0.18037,-0.91718z" fill="#191412" stroke="none" stroke-width="0.5"/><path d="M255.54076,146.38907c-0.43875,0.94682 -0.96117,0.31779 -0.96117,0.31779c-0.52438,-0.65916 -1.44157,-1.42535 -1.17771,-3.04924c0.21561,-1.32708 1.63123,-2.37309 2.28973,-2.0523c1.19454,0.58193 1.87208,4.48331 -0.15084,4.78374z" fill="#191412" stroke="none" stroke-width="0.5"/><g><path d="M239.04276,133.27195c-0.17048,-0.00498 -0.60969,-0.01108 -1.08848,0.01317c-0.54299,0.14324 -1.17304,0.27885 -1.66374,0.45115c-0.39422,0.85159 0.56436,1.88848 -0.94676,2.3787c-2.57719,0.83611 -1.45925,-2.23029 -0.52644,-3.12268c1.39438,-0.94591 3.26969,-0.85287 4.90728,-0.9666c2.25563,-0.15669 4.48272,-0.54892 6.6783,-0.4183c0.09224,-0.07569 0.21123,-0.11961 0.33989,-0.1157l0.58823,0.01788c0.30259,-0.0417 0.63095,-0.08344 0.97488,-0.11884c0.90301,-0.1667 1.967,-0.18131 2.95352,-0.15505c0.48969,-0.03607 0.94322,-0.0258 1.30989,0.05234c0.27433,0.0128 0.5295,0.02447 0.75781,0.03138l0.6201,0.01884c0.28243,0.00858 0.50442,0.2445 0.49585,0.52693c-0.00766,0.25137 -0.19534,0.45487 -0.43568,0.49054l-0.339,0.05715c0.12932,0.13834 0.24318,0.29245 0.33919,0.46379l0.24675,-0.0901l0.22521,0.61672c0.02445,0.06243 0.03696,0.1307 0.03479,0.20195c-0.00858,0.28243 -0.2445,0.50442 -0.52691,0.49584c-0.0859,-0.00262 -0.1662,-0.02624 -0.23612,-0.06582l-0.47948,-0.25824l0.0076,-0.0141l-0.04706,-0.0095c-0.33259,-0.26561 -0.67803,-0.47739 -1.02956,-0.63504c-0.55301,-0.08712 -1.12993,-0.2185 -1.7196,-0.3392c-1.02826,0.05138 -2.01579,0.56445 -2.79635,1.54631c0,0 -0.31926,0.39979 -0.71904,0.08052c-0.39978,-0.31926 -0.08051,-0.71905 -0.08051,-0.71905c0.06823,-0.08508 0.13797,-0.16742 0.20917,-0.247l-0.29273,0.05577c-0.03931,0.00834 -0.08021,0.01214 -0.12215,0.01087c-0.28243,-0.00858 -0.50442,-0.2445 -0.49584,-0.52692c0.00433,-0.14293 0.0669,-0.2704 0.16427,-0.36032c-0.24338,-0.02895 -0.47481,-0.04349 -0.67612,-0.01894c-1.40603,0.17161 -3.51666,0.02985 -5.53192,0.09413c-0.01785,0.24086 -0.20145,0.43329 -0.43449,0.46788l-0.61451,0.10358l-0.00334,-0.01986l-0.00766,0.00103z" fill="url(#color-3)" stroke="none" stroke-width="0.5"/><path d="M254.47564,131.38078c2.72347,0.04323 2.69539,0.08081 2.68886,1.9236c-0.00652,1.84277 -1.18005,3.24361 -2.62115,3.12885c-1.44111,-0.11475 -2.60408,-1.70164 -2.59756,-3.54442c0.00652,-1.84277 -0.02401,-1.54858 2.52985,-1.50804z" data-paper-data="{&quot;index&quot;:null}" fill="url(#color-4)" stroke="#000000" stroke-width="0"/><path d="M247.58155,133.24714c0.11579,2.01995 -1.63829,3.76337 -3.91785,3.89404c-2.27954,0.13064 -4.22135,-1.40092 -4.33713,-3.42087c-0.11579,-2.01995 -0.16253,-2.06106 4.15543,-2.11766c4.04902,-0.05309 3.98376,-0.37545 4.09953,1.6445z" fill="url(#color-5)" stroke="#000000" stroke-width="0"/></g></g><g stroke="#000000" stroke-width="0" stroke-linecap="butt"><path d="M266.01464,192.94726c-0.22088,0.01207 0.6733,3.5597 -0.25251,3.67509c-0.45536,0.05675 -0.48245,-2.32504 -1.25777,-3.0201c-0.4104,-0.36792 1.15562,4.02933 -0.12103,3.76165c-0.43827,-0.0919 -0.76886,-3.41915 -1.35057,-4.13353c-0.31139,-0.38242 1.02094,4.98053 0.17354,4.84577c-0.50303,-0.07999 -0.62176,-3.14028 -1.20238,-4.43184c-0.28287,-0.62921 0.32389,3.74818 -0.30921,3.53138c-0.38751,-0.13271 -1.20922,-4.37768 -1.25728,-4.41939c-0.27001,-0.23456 -0.53068,2.45953 -0.92576,1.88398c-0.72821,-1.06076 -0.01817,-2.57918 0.50112,-3.98094c0.30341,-0.81899 0.12308,-1.95271 0.12308,-1.95271c0,0 -0.00957,-2.93288 -1.19441,-6.16042c-0.28492,-0.77614 -1.03644,-3.36297 -1.33702,-4.1577c-0.71137,-1.88085 -1.48421,-3.72325 -1.89188,-4.88599c-0.87686,-2.50094 -1.91358,-5.69158 -1.91358,-5.69158l5.53796,-1.84395c0,0 1.55555,4.53519 2.48784,7.19416c0.37941,1.08212 0.09815,2.06651 0.61963,3.76293c0.23377,0.76046 0.76794,4.14105 1.19191,6.19139c0.70588,3.41378 1.50107,5.40991 1.50107,5.40991c0,0 1.34514,4.3963 0.87723,4.42192z" data-paper-data="{&quot;index&quot;:null}" fill="#ffb77d"/><path d="M252.55958,161.55945c4.87629,-2.03004 6.25516,1.21248 6.84665,3.04811c0.5915,1.83565 2.03678,1.02075 -2.44098,2.85914c-3.78471,1.55385 -3.33406,1.05826 -3.92557,-0.77739c-0.5915,-1.83565 -3.01963,-4.07262 -0.48012,-5.12986z" data-paper-data="{&quot;index&quot;:null}" fill="#ffffff"/></g><path d="M226.12337,227.23573l3.75904,-33.71008c0,0 6.75518,-2.18267 9.822,-2.18267c3.62872,0 10.54956,2.18267 10.54956,2.18267l3.03149,33.71008h-7.63934c0,0 -1.32697,-25.53818 -2.03751,-29.57011c-0.20138,-1.1427 -3.2979,-2.07857 -3.2979,-2.07857c0,0 -3.09204,0.08829 -3.39803,1.52409c-0.93579,4.39099 -2.78619,30.12458 -2.78619,30.12458z" fill="#726f7c" stroke="#000000" stroke-width="0" stroke-linecap="butt"/><path d="M229.64629,192.39928c0,0 0.73604,-5.51329 0.77085,-10.92234c0.02366,-3.67541 -0.68405,-7.06652 -0.58448,-9.56366c0.1869,-4.68686 1.16221,-13.33333 1.16221,-13.33333c0,0 3.73227,-0.20331 5.46299,0.34316c2.20311,0.6956 6.68384,3.49212 6.68384,3.49212c0,0 3.88,-1.78231 5.826,-2.00029c2.0533,-0.22998 6.18921,0.65456 6.18921,0.65456c0,0 -1.01337,9.16149 -1.52287,12.56638c-0.45079,3.0125 -1.53758,6.2434 -2.29163,10.69437c-0.77718,4.58747 -1.2152,10.3515 -1.2152,10.3515c0,0 -2.66361,-1.04784 -5.4567,-1.4042c-1.26844,-0.16184 -1.88494,0.81723 -3.10215,0.85185c-0.97292,0.02767 -2.55952,-0.87988 -3.47573,-1.01121c-0.69262,-0.09929 -1.97863,-0.73727 -2.46986,-0.79203c-0.99184,-0.11054 -1.69589,0.69514 -2.86387,0.73499c-1.35673,0.04628 -3.11265,-0.6619 -3.11265,-0.6619z" fill="#ffffff" stroke="#292e32" stroke-width="0" stroke-linecap="butt"/><g><path d="M259.69259,234.32551c-0.59276,0 -2.64411,0.01365 -4.70436,-0.0669c-1.25258,-0.04897 -1.90215,-0.61779 -2.83553,-0.76063c-1.17507,-0.17982 -2.93854,0.22047 -3.78778,0.02896c-1.56485,-0.35288 -2.37463,-0.77782 -2.37463,-0.77782c0,0 -0.26911,-1.0254 -0.2856,-1.5858c-0.02221,-0.75501 0.16433,-2.53701 0.16433,-2.53701c0,0 5.93425,-0.11957 8.24914,0.08076c1.36979,0.11854 4.24057,0.6468 4.24057,0.6468c0,0 1.45976,0.6156 1.67337,1.04283c0.26162,0.52325 0.87307,1.98865 0.87307,1.98865c0,0 -0.3857,1.94015 -1.21259,1.94015z" data-paper-data="{&quot;index&quot;:null}" fill="#141415" stroke="#000000" stroke-width="0" stroke-linecap="butt"/><path d="M259.4217,231.7507c-0.24822,0 0.7024,1.60165 -2.61811,1.33311c-3.13563,-0.25358 -2.77648,-1.18823 -3.8809,-1.26883c-2.30937,-0.16854 -2.58765,0.59503 -3.58732,0.44205c-0.34815,-0.05328 -0.51271,-0.11454 -1.78459,-0.97035c-0.87472,-0.58857 -0.66566,-1.75122 -1.26542,-2.3793c-0.87609,-0.91745 -0.80847,-1.8858 -0.80847,-1.8858l-0.07637,-3.04773c0,0 0.48635,2.20681 1.32529,3.03122c0.75062,0.73761 2.3169,-0.01875 2.80058,-0.01889c0.84696,-0.00024 -0.68885,-3.26804 0.12091,-3.2498c0.43542,0.00981 3.72275,-0.23409 3.72275,-0.23409c0,0 0.12302,3.57989 0.35598,3.60005c1.36979,0.11854 4.60434,0.6468 4.60434,0.6468c0,0 1.45976,0.6156 1.67338,1.04283c0.26162,0.52325 0.63055,2.95873 0.63055,2.95873c0,0 -0.3857,0 -1.2126,0z" data-paper-data="{&quot;index&quot;:null}" fill="#252527" stroke="#000000" stroke-width="0" stroke-linecap="butt"/><path d="M254.6193,227.72077l-2.6677,1.09133" fill="none" stroke="#ffffff" stroke-width="0.5" stroke-linecap="round"/><path d="M256.4382,227.72077l-2.54645,1.45511" fill="none" stroke="#ffffff" stroke-width="0.5" stroke-linecap="round"/><path d="M257.52954,227.96329l-1.45512,1.45511" fill="none" stroke="#ffffff" stroke-width="0.5" stroke-linecap="round"/><path d="M252.92167,224.68929l-2.18266,0.24252" fill="none" stroke="#969696" stroke-width="0.5" stroke-linecap="round"/><path d="M251.22405,225.78062l1.94015,-0.36378" fill="none" stroke="#969696" stroke-width="0.5" stroke-linecap="round"/></g><g data-paper-data="{&quot;index&quot;:null}"><path d="M218.87309,232.29247c0,0 0.61145,-1.46541 0.87307,-1.98866c0.21362,-0.42723 1.67337,-1.04283 1.67337,-1.04283c0,0 2.87078,-0.52826 4.24057,-0.6468c2.3149,-0.20032 8.24914,-0.08075 8.24914,-0.08075c0,0 0.18654,1.78201 0.16433,2.53701c-0.01648,0.56041 -0.2856,1.5858 -0.2856,1.5858c0,0 -0.80978,0.42493 -2.37463,0.77781c-0.84924,0.19151 -2.6127,-0.20879 -3.78777,-0.02896c-0.93338,0.14284 -1.58295,0.71166 -2.83553,0.76063c-2.06025,0.08055 -4.1116,0.06689 -4.70436,0.06689c-0.8269,0 -1.2126,-1.94015 -1.2126,-1.94015z" data-paper-data="{&quot;index&quot;:null}" fill="#141415" stroke="#000000" stroke-width="0" stroke-linecap="butt"/><path d="M219.14398,231.65781c0,0 0.36892,-2.43548 0.63055,-2.95873c0.21362,-0.42723 1.67337,-1.04283 1.67337,-1.04283c0,0 3.23456,-0.52826 4.60434,-0.6468c0.23296,-0.02016 0.35598,-3.60004 0.35598,-3.60004c0,0 3.28733,0.24389 3.72275,0.23408c0.80976,-0.01824 -0.72604,3.24957 0.12091,3.24981c0.48368,0.00014 2.04996,0.7565 2.80058,0.01889c0.83894,-0.82441 1.32529,-3.03123 1.32529,-3.03123l-0.07637,3.04773c0,0 0.06762,0.96834 -0.80847,1.8858c-0.59976,0.62808 -0.39071,1.79073 -1.26542,2.3793c-1.27187,0.85581 -1.43643,0.91707 -1.78458,0.97035c-0.99967,0.15299 -1.27796,-0.61058 -3.58733,-0.44204c-1.10442,0.0806 -0.74527,1.01524 -3.8809,1.26883c-3.3205,0.26854 -2.36989,-1.33311 -2.61811,-1.33311c-0.8269,0 -1.21259,0 -1.21259,0z" data-paper-data="{&quot;index&quot;:null}" fill="#252527" stroke="#000000" stroke-width="0" stroke-linecap="butt"/><path d="M225.15896,227.62787l2.66771,1.09134" fill="none" stroke="#ffffff" stroke-width="0.5" stroke-linecap="round"/><path d="M225.88652,229.08299l-2.54644,-1.45511" fill="none" stroke="#ffffff" stroke-width="0.5" stroke-linecap="round"/><path d="M223.70386,229.32551l-1.45512,-1.45512" fill="none" stroke="#ffffff" stroke-width="0.5" stroke-linecap="round"/><path d="M229.03927,224.83892l-2.18267,-0.24252" fill="none" stroke="#969696" stroke-width="0.5" stroke-linecap="round"/><path d="M226.61408,225.32395l1.94015,0.36378" fill="none" stroke="#969696" stroke-width="0.5" stroke-linecap="round"/></g><g stroke="none" stroke-width="0" stroke-linecap="butt"><path d="M256.18355,194.48577l2.01824,-4.60977l10.14145,4.44014l-2.01824,4.60978z" fill="url(#color-6)"/><path d="M259.58039,192.16042c-0.32475,1.91814 -2.14295,3.2099 -4.06108,2.88516c-1.91816,-0.32473 -3.2099,-2.14295 -2.88516,-4.06109c0.32474,-1.91816 2.14294,-3.20991 4.06109,-2.88516c1.91816,0.32473 3.2099,2.14295 2.88516,4.0611z" fill="url(#color-7)"/><path d="M266.64959,201.31212l3.73393,-8.51967l40.55541,19.84781l6.21414,5.30526l-8.03542,-0.77626z" fill="url(#color-8)"/><path d="M267.42468,200.28988l2.51567,-5.92673l33.82453,16.67259l8.8307,5.1781l-9.52869,-2.84301z" fill="url(#color-9)"/><path d="M275.52446,186.835c0,0 -4.95769,6.2867 -6.65352,9.85222c-1.86194,3.91481 -4.06637,12.68672 -4.06637,12.68672c0,0 0.09302,-10.01003 1.89887,-13.8069c1.76655,-3.71428 8.82106,-8.73202 8.82106,-8.73202z" fill="url(#color-10)"/></g><g stroke="#000000" stroke-width="0" stroke-linecap="butt"><path d="M246.85468,190.96816c0,0 -1.30633,-2.24136 -4.10793,-5.38435c-1.6827,-1.8877 -4.60011,-4.82617 -5.1578,-5.60706c-1.24409,-1.74203 -2.4726,-2.13668 -3.22563,-3.29723c-1.8503,-2.85168 -5.03617,-7.67909 -5.03617,-7.67909l6.64936,-4.54926c0,0 2.29141,3.33539 4.0317,6.01756c0.80915,1.24704 1.98109,3.35682 3.2449,5.42879c0.53399,0.87545 2.46895,3.48572 2.99797,4.33159c2.19979,3.51761 5.12464,5.58792 5.12464,5.58792c0,0 0.97738,0.98666 2.05971,1.24179c1.85246,0.43662 3.98713,0.75387 4.41611,2.26754c0.23275,0.8213 -2.68769,-0.79612 -2.68744,-0.34637c0.00004,0.08001 3.53243,3.92908 3.32887,4.4313c-0.33249,0.82042 -4.18384,-2.89481 -3.79998,-2.15432c0.78786,1.52003 3.74543,3.79502 3.38898,4.38207c-0.60049,0.98896 -4.8079,-4.18432 -4.69566,-3.58703c0.2097,1.11574 3.25042,3.80181 2.96205,4.32893c-0.84002,1.53535 -3.87888,-3.2062 -3.86702,-2.51464c0.0224,1.30649 2.3809,3.00816 1.92902,3.44888c-0.91874,0.89603 -3.69082,-2.5397 -3.89455,-2.31508c-0.43162,0.47583 -3.66114,-4.03195 -3.66114,-4.03195z" fill="#ffb77d"/><path d="M235.16302,162.70932c1.32729,1.9104 2.21363,1.78075 -2.61714,4.69542c-5.71539,3.44842 -3.64874,2.49044 -4.97603,0.58003c-1.32729,-1.9104 -3.38286,-5.63825 2.86929,-9.37394c3.25603,-1.94549 3.3966,2.18807 4.72389,4.09849z" fill="#ffffff"/></g></g></g></svg>