<svg version="1.1" xmlns="http://www.w3.org/2000/svg" xmlns:xlink="http://www.w3.org/1999/xlink" width="59" height="59.70663" viewBox="0,0,59,59.70663"><defs><linearGradient x1="270" y1="151.64674" x2="270" y2="208.35338" gradientUnits="userSpaceOnUse" id="color-1"><stop offset="0" stop-color="#191919"/><stop offset="1" stop-color="#050505"/></linearGradient><linearGradient x1="270" y1="151.64674" x2="270" y2="208.35338" gradientUnits="userSpaceOnUse" id="color-2"><stop offset="0" stop-color="#cccccc"/><stop offset="1" stop-color="#898989"/></linearGradient><linearGradient x1="270" y1="151.64674" x2="270" y2="208.35337" gradientUnits="userSpaceOnUse" id="color-3"><stop offset="0" stop-color="#191919"/><stop offset="1" stop-color="#050505"/></linearGradient><linearGradient x1="270" y1="151.64674" x2="270" y2="208.35337" gradientUnits="userSpaceOnUse" id="color-4"><stop offset="0" stop-color="#cccccc"/><stop offset="1" stop-color="#898989"/></linearGradient><radialGradient cx="270" cy="180.00006" r="26.8571" gradientUnits="userSpaceOnUse" id="color-5"><stop offset="0" stop-color="#ffffff" stop-opacity="0.35484"/><stop offset="1" stop-color="#ffffff" stop-opacity="0"/></radialGradient><linearGradient x1="270" y1="153.29215" x2="270" y2="206.70795" gradientUnits="userSpaceOnUse" id="color-6"><stop offset="0" stop-color="#cccccc"/><stop offset="1" stop-color="#898989"/></linearGradient><linearGradient x1="281.53744" y1="176.51792" x2="284.96467" y2="176.51792" gradientUnits="userSpaceOnUse" id="color-7"><stop offset="0" stop-color="#525252"/><stop offset="1" stop-color="#363636"/></linearGradient><linearGradient x1="281.53744" y1="176.51792" x2="284.96467" y2="176.51792" gradientUnits="userSpaceOnUse" id="color-8"><stop offset="0" stop-color="#1f1f1f"/><stop offset="1" stop-color="#000000"/></linearGradient><linearGradient x1="255.63737" y1="177.99018" x2="260.11532" y2="179.92287" gradientUnits="userSpaceOnUse" id="color-9"><stop offset="0" stop-color="#525252"/><stop offset="1" stop-color="#2e2e2e"/></linearGradient><linearGradient x1="255.63737" y1="177.99018" x2="260.11532" y2="179.92287" gradientUnits="userSpaceOnUse" id="color-10"><stop offset="0" stop-color="#1f1f1f"/><stop offset="1" stop-color="#000000"/></linearGradient><linearGradient x1="250.19251" y1="180.00003" x2="292.48514" y2="180.00003" gradientUnits="userSpaceOnUse" id="color-11"><stop offset="0" stop-color="#767676"/><stop offset="1" stop-color="#2a2a2a"/></linearGradient><linearGradient x1="250.19251" y1="180.00003" x2="292.48514" y2="180.00003" gradientUnits="userSpaceOnUse" id="color-12"><stop offset="0" stop-color="#1f1f1f"/><stop offset="1" stop-color="#000000"/></linearGradient><linearGradient x1="264.6649" y1="168.38922" x2="278.11021" y2="168.38922" gradientUnits="userSpaceOnUse" id="color-13"><stop offset="0" stop-color="#7f7f7f"/><stop offset="1" stop-color="#545454"/></linearGradient><linearGradient x1="260.31495" y1="177.00383" x2="281.93289" y2="177.00383" gradientUnits="userSpaceOnUse" id="color-14"><stop offset="0" stop-color="#7f7f7f"/><stop offset="1" stop-color="#545454"/></linearGradient><linearGradient x1="256.66588" y1="186.51375" x2="285.68806" y2="186.51375" gradientUnits="userSpaceOnUse" id="color-15"><stop offset="0" stop-color="#7f7f7f"/><stop offset="1" stop-color="#545454"/></linearGradient><linearGradient x1="252.8014" y1="195.98544" x2="289.71008" y2="195.98544" gradientUnits="userSpaceOnUse" id="color-16"><stop offset="0" stop-color="#7f7f7f"/><stop offset="1" stop-color="#545454"/></linearGradient><linearGradient x1="278.24062" y1="165.28119" x2="288.91979" y2="165.28119" gradientUnits="userSpaceOnUse" id="color-17"><stop offset="0" stop-color="#8f8f8f"/><stop offset="1" stop-color="#4e4e4e"/></linearGradient><linearGradient x1="278.24062" y1="165.28119" x2="288.91979" y2="165.28119" gradientUnits="userSpaceOnUse" id="color-18"><stop offset="0" stop-color="#1f1f1f"/><stop offset="1" stop-color="#000000"/></linearGradient><linearGradient x1="266.06699" y1="160.58981" x2="276.90807" y2="160.58981" gradientUnits="userSpaceOnUse" id="color-19"><stop offset="0" stop-color="#525252"/><stop offset="1" stop-color="#2e2e2e"/></linearGradient><linearGradient x1="266.06699" y1="160.58981" x2="276.90807" y2="160.58981" gradientUnits="userSpaceOnUse" id="color-20"><stop offset="0" stop-color="#1f1f1f"/><stop offset="1" stop-color="#000000"/></linearGradient></defs><g transform="translate(-240.5,-150.14675)"><g data-paper-data="{&quot;isPaintingLayer&quot;:true}" fill-rule="nonzero" stroke-linejoin="miter" stroke-miterlimit="10" stroke-dasharray="" stroke-dashoffset="0" style="mix-blend-mode: normal"><path d="M242,208.35338v-56.70662h56v56.70662z" fill="url(#color-1)" stroke="url(#color-2)" stroke-width="3" stroke-linecap="butt"/><path d="M242,208.35337v-56.70662h56v56.70662z" fill="url(#color-3)" stroke="url(#color-4)" stroke-width="3" stroke-linecap="butt"/><path d="M296.8571,180.00006c0,14.75036 -12.02433,26.70789 -26.8571,26.70789c-14.83277,0 -26.8571,-11.95753 -26.8571,-26.70789c0,-14.75036 12.02433,-26.70789 26.8571,-26.70789c14.83277,0 26.8571,11.95753 26.8571,26.70789z" fill="url(#color-5)" stroke="url(#color-6)" stroke-width="0" stroke-linecap="butt"/><path d="M281.53744,182.18603v-11.33624h3.42723v11.33624z" fill="url(#color-7)" stroke="url(#color-8)" stroke-width="1.5" stroke-linecap="butt"/><path d="M247.51486,196.80963l16.24502,-37.63892l4.47794,1.93269l-16.24502,37.63893z" fill="url(#color-9)" stroke="url(#color-10)" stroke-width="1.5" stroke-linecap="butt"/><path d="M250.19251,201.14719c0,0 15.79183,-42.60275 21.1492,-42.29263c6.12872,0.35476 21.14342,42.29263 21.14342,42.29263z" fill="url(#color-11)" stroke="url(#color-12)" stroke-width="1.5" stroke-linecap="butt"/><path d="M264.6649,168.38922h13.4453" fill="none" stroke="url(#color-13)" stroke-width="3" stroke-linecap="round"/><path d="M260.31495,177.00383h21.61794" fill="none" stroke="url(#color-14)" stroke-width="3" stroke-linecap="round"/><path d="M256.66588,186.51375h29.02218" fill="none" stroke="url(#color-15)" stroke-width="3" stroke-linecap="round"/><path d="M289.71008,195.98544h-36.90867" fill="none" stroke="url(#color-16)" stroke-width="3" stroke-linecap="round"/><path d="M288.91979,165.28119c-0.03996,5.02125 -0.16646,5.55851 -5.33958,5.50529c-5.17477,-0.05323 -5.40378,-0.73364 -5.33958,-5.50529c0.07088,-5.26821 0.05582,-5.63441 5.33958,-5.50529c5.06256,0.12372 5.38347,-0.00856 5.33958,5.50529z" fill="url(#color-17)" stroke="url(#color-18)" stroke-width="1.5" stroke-linecap="butt"/><path d="M266.06699,157.46499h10.84108c0,0 -0.02447,3.07846 -0.16716,4.18678c-0.12238,0.95057 -0.63745,2.06286 -0.63745,2.06286h-9.31655c0,0 -0.39267,-1.18007 -0.49795,-2.09402c-0.1296,-1.12507 -0.22196,-4.15562 -0.22196,-4.15562z" fill="url(#color-19)" stroke="url(#color-20)" stroke-width="1.5" stroke-linecap="butt"/><path d="M245.27327,163.33901v-8.69862h36.49177v8.69862z" fill-opacity="0.53453" fill="#000000" stroke="#a60000" stroke-width="0" stroke-linecap="butt"/><text transform="translate(245.70712,161.61522) scale(0.21839,0.21839)" font-size="40" xml:space="preserve" fill="#ffffff" fill-rule="nonzero" stroke="#000000" stroke-width="0" stroke-linecap="butt" stroke-linejoin="miter" stroke-miterlimit="10" stroke-dasharray="" stroke-dashoffset="0" font-family="Serif" font-weight="normal" text-anchor="start" style="mix-blend-mode: normal"><tspan x="0" dy="0">Advanced</tspan></text></g></g></svg>