<svg version="1.1" xmlns="http://www.w3.org/2000/svg" xmlns:xlink="http://www.w3.org/1999/xlink" width="275.3421" height="55.95892" viewBox="0,0,275.3421,55.95892"><defs><linearGradient x1="332.39257" y1="140.95409" x2="332.39257" y2="144.06901" gradientUnits="userSpaceOnUse" id="color-1"><stop offset="0" stop-color="#1f1f1f"/><stop offset="1" stop-color="#0c0c0c"/></linearGradient><linearGradient x1="390.15375" y1="165.48351" x2="343.16274" y2="166.20551" gradientUnits="userSpaceOnUse" id="color-2"><stop offset="0" stop-color="#ff6300"/><stop offset="1" stop-color="#cf4900"/></linearGradient><linearGradient x1="366.66108" y1="154.69821" x2="366.66108" y2="177.04935" gradientUnits="userSpaceOnUse" id="color-3"><stop offset="0" stop-color="#1f1f1f"/><stop offset="1" stop-color="#0c0c0c"/></linearGradient><linearGradient x1="389.2894" y1="142.47337" x2="342.29839" y2="143.19536" gradientUnits="userSpaceOnUse" id="color-4"><stop offset="0" stop-color="#00a5ff"/><stop offset="1" stop-color="#0072cf"/></linearGradient><linearGradient x1="365.79673" y1="131.68807" x2="365.79673" y2="154.0392" gradientUnits="userSpaceOnUse" id="color-5"><stop offset="0" stop-color="#1f1f1f"/><stop offset="1" stop-color="#0c0c0c"/></linearGradient><linearGradient x1="393.79745" y1="141.78701" x2="393.79745" y2="166.05915" gradientUnits="userSpaceOnUse" id="color-6"><stop offset="0" stop-color="#1f1f1f"/><stop offset="1" stop-color="#0c0c0c"/></linearGradient><linearGradient x1="239.59437" y1="126.17222" x2="239.59437" y2="177.14501" gradientUnits="userSpaceOnUse" id="color-7"><stop offset="0" stop-color="#989898"/><stop offset="1" stop-color="#5b5b5b"/></linearGradient><linearGradient x1="240" y1="125.2436" x2="240" y2="132.3015" gradientUnits="userSpaceOnUse" id="color-8"><stop offset="0" stop-color="#69754a"/><stop offset="1" stop-color="#c9c872"/></linearGradient><linearGradient x1="240" y1="140.55622" x2="240" y2="178.04719" gradientUnits="userSpaceOnUse" id="color-9"><stop offset="0" stop-color="#1b1b1b"/><stop offset="1" stop-color="#070707"/></linearGradient></defs><g transform="translate(-124.2238,-124.4936)"><g data-paper-data="{&quot;isPaintingLayer&quot;:true}" fill-rule="nonzero" stroke-linejoin="miter" stroke-miterlimit="10" stroke-dasharray="" stroke-dashoffset="0" style="mix-blend-mode: normal"><g stroke-width="3"><path d="M342.35501,142.51155h-19.92489" fill="none" stroke="url(#color-1)" stroke-linecap="round"/><path d="M366.98,176.95801c-12.97621,0.19937 -23.59526,1.02441 -23.81725,-10.7525c-0.20306,-10.77258 10.19755,-11.27513 23.17376,-11.4745c12.97621,-0.19937 23.5113,0.18456 23.81725,10.7525c0.35259,12.1789 -10.19755,11.27513 -23.17376,11.4745z" fill="url(#color-2)" stroke="url(#color-3)" stroke-linecap="butt"/><path d="M366.11564,153.94786c-12.97621,0.19937 -23.59526,1.02442 -23.81725,-10.7525c-0.20306,-10.77258 10.19755,-11.27512 23.17376,-11.4745c12.97621,-0.19937 23.5113,0.18456 23.81725,10.7525c0.35259,12.1789 -10.19755,11.27512 -23.17376,11.4745z" fill="url(#color-4)" stroke="url(#color-5)" stroke-linecap="butt"/><path d="M389.81248,141.78701l7.96996,13.04175l-7.60769,11.23039" fill="none" stroke="url(#color-6)" stroke-linecap="round"/></g><path d="M126.33768,177.14501l41.81848,-50.97279h143.69052l41.00437,50.97279z" fill="url(#color-7)" stroke="#000000" stroke-width="2" stroke-linecap="butt"/><path d="M162.79518,132.3015l5.69877,-7.0579h143.0121l5.69877,7.0579z" fill="url(#color-8)" stroke="#000000" stroke-width="1.5" stroke-linecap="butt"/><path d="M194.72155,178.04719l16.71845,-37.49097h57.44548l16.39298,37.49097z" fill="url(#color-9)" stroke="#000000" stroke-width="2" stroke-linecap="butt"/><path d="M277.24698,141.90542l15.87516,34.19265" fill="none" stroke="#000000" stroke-width="2.5" stroke-linecap="round"/><path d="M285.09637,142.02076l15.87516,34.19265" fill="none" stroke="#000000" stroke-width="2.5" stroke-linecap="round"/><path d="M201.76537,142.42781l-15.87516,34.19265" data-paper-data="{&quot;index&quot;:null}" fill="none" stroke="#000000" stroke-width="2.5" stroke-linecap="round"/><path d="M178.04082,176.7358l15.87516,-34.19265" data-paper-data="{&quot;index&quot;:null}" fill="none" stroke="#000000" stroke-width="2.5" stroke-linecap="round"/><path d="M125.33333,179.95252v-3.33333h229.33333v3.33333z" fill="#3e3e3e" stroke="#000000" stroke-width="1" stroke-linecap="butt"/></g></g></svg>