<svg version="1.1" xmlns="http://www.w3.org/2000/svg" xmlns:xlink="http://www.w3.org/1999/xlink" width="208.9829" height="189.67908" viewBox="0,0,208.9829,189.67908"><defs><radialGradient cx="290.19006" cy="220.53826" r="54.30131" gradientUnits="userSpaceOnUse" id="color-1"><stop offset="0" stop-color="#734545" stop-opacity="0.30998"/><stop offset="1" stop-color="#734545" stop-opacity="0"/></radialGradient><radialGradient cx="290.19006" cy="220.53826" r="44.08484" gradientUnits="userSpaceOnUse" id="color-2"><stop offset="0" stop-color="#eb7373" stop-opacity="0.62996"/><stop offset="1" stop-color="#eb7373" stop-opacity="0"/></radialGradient><radialGradient cx="290.19006" cy="220.53826" r="37.32137" gradientUnits="userSpaceOnUse" id="color-3"><stop offset="0" stop-color="#ff4f4f"/><stop offset="1" stop-color="#ff4f4f" stop-opacity="0"/></radialGradient><radialGradient cx="214.26145" cy="163.91347" r="78.75298" gradientUnits="userSpaceOnUse" id="color-4"><stop offset="0" stop-color="#735545" stop-opacity="0.30645"/><stop offset="1" stop-color="#735545" stop-opacity="0"/></radialGradient><radialGradient cx="290.24603" cy="219.96556" r="38.12542" gradientUnits="userSpaceOnUse" id="color-5"><stop offset="0" stop-color="#cca288"/><stop offset="1" stop-color="#3d3124"/></radialGradient><radialGradient cx="290.13055" cy="219.72639" r="37.72295" gradientUnits="userSpaceOnUse" id="color-6"><stop offset="0" stop-color="#ffcbab"/><stop offset="1" stop-color="#544331"/></radialGradient><radialGradient cx="290.3965" cy="219.7437" r="38.12542" gradientUnits="userSpaceOnUse" id="color-7"><stop offset="0" stop-color="#bc957e"/><stop offset="1" stop-color="#33291e"/></radialGradient><radialGradient cx="214.59597" cy="162.82072" r="65.5239" gradientUnits="userSpaceOnUse" id="color-8"><stop offset="0" stop-color="#cca288"/><stop offset="1" stop-color="#3d3124"/></radialGradient><radialGradient cx="214.20378" cy="162.58721" r="64.83219" gradientUnits="userSpaceOnUse" id="color-9"><stop offset="0" stop-color="#ffcbab"/><stop offset="1" stop-color="#544331"/></radialGradient><radialGradient cx="214.60151" cy="162.36004" r="65.5239" gradientUnits="userSpaceOnUse" id="color-10"><stop offset="0" stop-color="#bc957e"/><stop offset="1" stop-color="#33291e"/></radialGradient><radialGradient cx="214.26136" cy="163.91347" r="63.93599" gradientUnits="userSpaceOnUse" id="color-11"><stop offset="0" stop-color="#ea9d73" stop-opacity="0.62903"/><stop offset="1" stop-color="#ea9d73" stop-opacity="0"/></radialGradient><radialGradient cx="214.26145" cy="163.91347" r="54.12706" gradientUnits="userSpaceOnUse" id="color-12"><stop offset="0" stop-color="#ff8c4e"/><stop offset="1" stop-color="#ff8c4e" stop-opacity="0"/></radialGradient><radialGradient cx="214.26145" cy="163.91347" r="44.50894" gradientUnits="userSpaceOnUse" id="color-13"><stop offset="0" stop-color="#ff631f"/><stop offset="1" stop-color="#ff8340"/></radialGradient><radialGradient cx="290.19006" cy="220.53826" r="30.68957" gradientUnits="userSpaceOnUse" id="color-14"><stop offset="0" stop-color="#ea3939"/><stop offset="1" stop-color="#bd4b4b"/></radialGradient><radialGradient cx="214.32475" cy="163.28484" r="66.09764" gradientUnits="userSpaceOnUse" id="color-15"><stop offset="0" stop-color="#080504"/><stop offset="1" stop-color="#21150d"/></radialGradient><radialGradient cx="214.40844" cy="163.10592" r="65.39986" gradientUnits="userSpaceOnUse" id="color-16"><stop offset="0" stop-color="#110b08"/><stop offset="1" stop-color="#26180e"/></radialGradient><radialGradient cx="213.67162" cy="163.07924" r="66.09764" gradientUnits="userSpaceOnUse" id="color-17"><stop offset="0" stop-color="#170e0b"/><stop offset="1" stop-color="#332014"/></radialGradient><radialGradient cx="289.96548" cy="220.10386" r="38.45926" gradientUnits="userSpaceOnUse" id="color-18"><stop offset="0" stop-color="#080504"/><stop offset="1" stop-color="#21150d"/></radialGradient><radialGradient cx="290.0635" cy="220.04384" r="38.05325" gradientUnits="userSpaceOnUse" id="color-19"><stop offset="0" stop-color="#110b08"/><stop offset="1" stop-color="#26180e"/></radialGradient><radialGradient cx="289.71438" cy="219.79453" r="38.45926" gradientUnits="userSpaceOnUse" id="color-20"><stop offset="0" stop-color="#170e0b"/><stop offset="1" stop-color="#332014"/></radialGradient></defs><g transform="translate(-135.50855,-85.16048)"><g data-paper-data="{&quot;isPaintingLayer&quot;:true}" fill-rule="nonzero" stroke-linecap="butt" stroke-linejoin="miter" stroke-miterlimit="10" stroke-dasharray="" stroke-dashoffset="0" style="mix-blend-mode: normal"><path d="M235.88883,220.53826c0,-29.98966 24.31148,-54.30131 54.30131,-54.30131c29.98966,0 54.30131,24.31148 54.30131,54.30131c0,29.98966 -24.31148,54.30131 -54.30131,54.30131c-29.98966,0 -54.30131,-24.31148 -54.30131,-54.30131z" fill="url(#color-1)" stroke="none" stroke-width="0.5"/><path d="M246.10531,220.53826c0,-24.34728 19.73739,-44.08484 44.08484,-44.08484c24.34728,0 44.08484,19.73739 44.08484,44.08484c0,24.34728 -19.73739,44.08484 -44.08484,44.08484c-24.34728,0 -44.08484,-19.73739 -44.08484,-44.08484z" fill="url(#color-2)" stroke="none" stroke-width="0.5"/><path d="M252.86869,220.53826c0,-20.61195 16.70933,-37.32137 37.32137,-37.32137c20.61195,0 37.32137,16.70933 37.32137,37.32137c0,20.61195 -16.70933,37.32137 -37.32137,37.32137c-20.61195,0 -37.32137,-16.70933 -37.32137,-37.32137z" fill="url(#color-3)" stroke="none" stroke-width="0.5"/><path d="M135.50855,163.91347c0,-43.49393 35.25888,-78.75298 78.75298,-78.75298c43.49393,0 78.75298,35.25888 78.75298,78.75298c0,43.49393 -35.25888,78.75298 -78.75298,78.75298c-43.49393,0 -78.75298,-35.25888 -78.75298,-78.75298z" fill="url(#color-4)" stroke="none" stroke-width="0.5"/><path d="M328.39599,235.58092c0,0 -22.29665,-13.38807 -40.79868,-20.28769c-14.80093,-5.51943 -38.2492,-7.47767 -38.2492,-7.47767l2.54674,-3.2614c0,0 8.69481,-2.99389 37.09002,6.75114c33.0208,11.33249 41.54786,20.20812 41.54786,20.20812z" data-paper-data="{&quot;index&quot;:null}" fill="url(#color-5)" stroke="#676767" stroke-width="0"/><path d="M264.97004,186.85847c0,0 12.39001,22.86633 24.81231,38.21613c9.93737,12.27926 29.13146,25.88966 29.13146,25.88966l-3.85138,1.51309c0,0 -9.00909,-1.84377 -28.50283,-24.67461c-22.66928,-26.55 -25.49785,-38.52859 -25.49785,-38.52859z" data-paper-data="{&quot;index&quot;:null}" fill="url(#color-6)" stroke="#676767" stroke-width="0"/><path d="M327.42526,200.11608c0,0 -6.5078,10.44682 -36.47216,28.3615c-25.76692,15.40517 -34.89286,14.27361 -34.89286,14.27361l-3.166,-2.66439c0,0 22.53677,-6.76384 35.87677,-15.2241c16.67578,-10.57583 35.72271,-28.28446 35.72271,-28.28446z" data-paper-data="{&quot;index&quot;:null}" fill="url(#color-7)" stroke="#676767" stroke-width="0"/><path d="M284.09311,149.06233c0,0 -44.65554,1.93043 -77.72217,9.56875c-26.45206,6.11037 -61.92869,25.52058 -61.92869,25.52058l0.56134,-7.08946c0,0 9.63019,-12.53139 59.5782,-25.46396c58.08456,-15.03929 78.72098,-10.39271 78.72098,-10.39271z" data-paper-data="{&quot;index&quot;:null}" fill="url(#color-8)" stroke="#676767" stroke-width="0"/><path d="M146.9841,139.30019c0,0 39.43194,21.04678 71.78802,31.28544c25.88364,8.19054 66.30126,9.51869 66.30126,9.51869l-4.08857,5.81885c0,0 -14.66465,5.89274 -64.2486,-8.37215c-57.6612,-16.58864 -73.06704,-31.0839 -73.06704,-31.0839z" data-paper-data="{&quot;index&quot;:null}" fill="url(#color-9)" stroke="#676767" stroke-width="0"/><path d="M249.09711,99.13112c0,0 0.56755,21.14546 -25.42189,75.22452c-22.34881,46.50362 -36.50616,53.52827 -36.50616,53.52827l-7.06415,-0.82043c0,0 25.90522,-31.05263 37.01632,-55.82341c13.8895,-30.96494 24.42029,-74.40394 24.42029,-74.40394z" data-paper-data="{&quot;index&quot;:null}" fill="url(#color-10)" stroke="#676767" stroke-width="0"/><path d="M150.32537,163.91347c0,-35.31075 28.62508,-63.93599 63.93599,-63.93599c35.31075,0 63.93599,28.62508 63.93599,63.93599c0,35.31075 -28.62508,63.93599 -63.93599,63.93599c-35.31075,0 -63.93599,-28.62508 -63.93599,-63.93599z" fill="url(#color-11)" stroke="none" stroke-width="0.5"/><path d="M160.13438,163.91347c0,-29.89347 24.23351,-54.12706 54.12706,-54.12706c29.89347,0 54.12706,24.23351 54.12706,54.12706c0,29.89347 -24.23351,54.12706 -54.12706,54.12706c-29.89347,0 -54.12706,-24.23351 -54.12706,-54.12706z" fill="url(#color-12)" stroke="none" stroke-width="0.5"/><path d="M169.75259,163.91347c0,-24.5815 19.92728,-44.50894 44.50894,-44.50894c24.5815,0 44.50894,19.92728 44.50894,44.50894c0,24.5815 -19.92728,44.50894 -44.50894,44.50894c-24.5815,0 -44.50894,-19.92728 -44.50894,-44.50894z" fill="url(#color-13)" stroke="none" stroke-width="0.5"/><path d="M259.50058,220.53826c0,-16.94932 13.74016,-30.68957 30.68957,-30.68957c16.94932,0 30.68957,13.74016 30.68957,30.68957c0,16.94932 -13.74016,30.68957 -30.68957,30.68957c-16.94932,0 -30.68957,-13.74016 -30.68957,-30.68957z" fill="url(#color-14)" stroke="none" stroke-width="0.5"/><path d="M179.57444,227.0674c0,0 -2.90574,-21.91403 23.31126,-76.46662c22.54449,-46.91081 39.15904,-53.41355 39.15904,-53.41355l7.126,0.82762c0,0 -22.92394,33.36628 -34.1323,58.35397c-14.01113,31.23607 -27.84223,73.01367 -27.84223,73.01367z" fill="url(#color-15)" stroke="#676767" stroke-width="0"/><path d="M281.99934,187.36846c0,0 -40.21095,-17.88151 -72.7452,-28.53634c-26.0262,-8.52346 -66.13376,-14.01873 -66.13376,-14.01873l4.18296,-5.82817c0,0 15.99035,-7.91436 65.86178,6.97588c57.9955,17.31585 72.25047,34.21153 72.25047,34.21153z" data-paper-data="{&quot;index&quot;:null}" fill="url(#color-16)" stroke="#676767" stroke-width="0"/><path d="M143.61256,177.10006c0,0 43.64891,-5.60714 76.98424,-13.402c26.66701,-6.2356 63.79374,-22.37321 63.79374,-22.37321l-0.54702,7.15301c0,0 -9.55288,15.06888 -59.90299,28.2501c-58.55214,15.32846 -79.50939,8.2955 -79.50939,8.2955z" data-paper-data="{&quot;index&quot;:null}" fill="url(#color-17)" stroke="#676767" stroke-width="0"/><path d="M252.63548,239.91853c0,0 5.61931,-11.56999 35.84604,-29.64153c25.99254,-15.54007 36.14386,-13.3669 36.14386,-13.3669l3.19372,2.68772c0,0 -21.83175,8.84335 -35.28855,17.3777c-16.8218,10.66843 -36.93785,26.51184 -36.93785,26.51184z" fill="url(#color-18)" stroke="#676767" stroke-width="0"/><path d="M315.09128,253.5044c0,0 -13.78357,-21.57969 -26.15885,-37.18867c-9.89978,-12.4866 -27.60657,-28.02041 -27.60657,-28.02041l3.90019,-1.48734c0,0 10.30115,1.28768 29.73383,24.51431c22.59828,27.01026 24.09813,39.78491 24.09813,39.78491z" data-paper-data="{&quot;index&quot;:null}" fill="url(#color-19)" stroke="#676767" stroke-width="0"/><path d="M251.20746,204.1263c0,0 22.98746,11.28034 41.67014,18.19017c14.94545,5.5276 38.1449,9.60381 38.1449,9.60381l-2.56018,3.29684c0,0 -9.47129,4.25048 -38.14146,-5.50284c-33.34054,-11.34212 -41.25781,-21.47909 -41.25781,-21.47909z" data-paper-data="{&quot;index&quot;:null}" fill="url(#color-20)" stroke="#676767" stroke-width="0"/></g></g></svg>