<svg version="1.1" xmlns="http://www.w3.org/2000/svg" xmlns:xlink="http://www.w3.org/1999/xlink" width="65.42289" height="64.90928" viewBox="0,0,65.42289,64.90928"><defs><linearGradient x1="240.00006" y1="149.04536" x2="240.00006" y2="210.95464" gradientUnits="userSpaceOnUse" id="color-1"><stop offset="0" stop-color="#06261d"/><stop offset="1" stop-color="#00110e"/></linearGradient><linearGradient x1="240.00006" y1="149.04536" x2="240.00006" y2="210.95464" gradientUnits="userSpaceOnUse" id="color-2"><stop offset="0" stop-color="#c5ffd7"/><stop offset="1" stop-color="#6fb696"/></linearGradient><radialGradient cx="240" cy="180" r="29.8557" gradientUnits="userSpaceOnUse" id="color-3"><stop offset="0" stop-color="#ffffff" stop-opacity="0.35484"/><stop offset="1" stop-color="#ffffff" stop-opacity="0"/></radialGradient><linearGradient x1="240" y1="150.31016" x2="240" y2="209.68984" gradientUnits="userSpaceOnUse" id="color-4"><stop offset="0" stop-color="#cccccc"/><stop offset="1" stop-color="#898989"/></linearGradient><radialGradient cx="239.99998" cy="180" r="24.62665" gradientUnits="userSpaceOnUse" id="color-5"><stop offset="0" stop-color="#000000"/><stop offset="1" stop-color="#474747"/></radialGradient><linearGradient x1="239.99998" y1="155.76272" x2="239.99998" y2="204.23728" gradientUnits="userSpaceOnUse" id="color-6"><stop offset="0" stop-color="#1c1c1c"/><stop offset="1" stop-color="#050505"/></linearGradient><radialGradient cx="239.99997" cy="180" r="21.91932" gradientUnits="userSpaceOnUse" id="color-7"><stop offset="0" stop-color="#000000"/><stop offset="1" stop-color="#000000" stop-opacity="0"/></radialGradient><radialGradient cx="239.99995" cy="180" r="28.88681" gradientUnits="userSpaceOnUse" id="color-8"><stop offset="0" stop-color="#101a12" stop-opacity="0.41961"/><stop offset="1" stop-color="#101a12" stop-opacity="0"/></radialGradient><radialGradient cx="239.99997" cy="180" r="23.4519" gradientUnits="userSpaceOnUse" id="color-9"><stop offset="0" stop-color="#73eb77" stop-opacity="0.61176"/><stop offset="1" stop-color="#73eb77" stop-opacity="0"/></radialGradient><radialGradient cx="239.99995" cy="179.89727" r="19.85397" gradientUnits="userSpaceOnUse" id="color-10"><stop offset="0" stop-color="#51ff4f" stop-opacity="0"/><stop offset="1" stop-color="#51ff4f" stop-opacity="0.0902"/></radialGradient><radialGradient cx="239.99995" cy="179.89727" r="16.32601" gradientUnits="userSpaceOnUse" id="color-11"><stop offset="0" stop-color="#82ff8c" stop-opacity="0.11373"/><stop offset="1" stop-color="#8fffa8"/></radialGradient><radialGradient cx="239.99996" cy="180" r="26.46998" gradientUnits="userSpaceOnUse" id="color-12"><stop offset="0" stop-color="#1a1810" stop-opacity="0.41961"/><stop offset="1" stop-color="#1a1810" stop-opacity="0"/></radialGradient><radialGradient cx="239.99999" cy="180" r="21.48978" gradientUnits="userSpaceOnUse" id="color-13"><stop offset="0" stop-color="#eba273" stop-opacity="0.61176"/><stop offset="1" stop-color="#eba273" stop-opacity="0"/></radialGradient><radialGradient cx="239.99996" cy="179.90587" r="18.19287" gradientUnits="userSpaceOnUse" id="color-14"><stop offset="0" stop-color="#ff8b4f" stop-opacity="0"/><stop offset="1" stop-color="#ff8b4f" stop-opacity="0.0902"/></radialGradient><radialGradient cx="239.99996" cy="179.90587" r="14.96009" gradientUnits="userSpaceOnUse" id="color-15"><stop offset="0" stop-color="#ffad82" stop-opacity="0.11373"/><stop offset="1" stop-color="#ffc58f"/></radialGradient><radialGradient cx="239.99995" cy="180" r="22.88637" gradientUnits="userSpaceOnUse" id="color-16"><stop offset="0" stop-color="#16101a" stop-opacity="0.41961"/><stop offset="1" stop-color="#16101a" stop-opacity="0"/></radialGradient><radialGradient cx="239.99997" cy="180" r="18.58043" gradientUnits="userSpaceOnUse" id="color-17"><stop offset="0" stop-color="#b573eb" stop-opacity="0.61176"/><stop offset="1" stop-color="#b573eb" stop-opacity="0"/></radialGradient><radialGradient cx="239.99995" cy="179.91861" r="15.72984" gradientUnits="userSpaceOnUse" id="color-18"><stop offset="0" stop-color="#964fff" stop-opacity="0"/><stop offset="1" stop-color="#964fff" stop-opacity="0.0902"/></radialGradient><radialGradient cx="239.99995" cy="179.91861" r="12.93474" gradientUnits="userSpaceOnUse" id="color-19"><stop offset="0" stop-color="#ae82ff" stop-opacity="0.11373"/><stop offset="1" stop-color="#ac8fff"/></radialGradient><radialGradient cx="239.99995" cy="180" r="20.55287" gradientUnits="userSpaceOnUse" id="color-20"><stop offset="0" stop-color="#191a10" stop-opacity="0.41961"/><stop offset="1" stop-color="#191a10" stop-opacity="0"/></radialGradient><radialGradient cx="239.99997" cy="180" r="16.68597" gradientUnits="userSpaceOnUse" id="color-21"><stop offset="0" stop-color="#ebc473" stop-opacity="0.61176"/><stop offset="1" stop-color="#ebc473" stop-opacity="0"/></radialGradient><radialGradient cx="239.99995" cy="179.92692" r="14.12603" gradientUnits="userSpaceOnUse" id="color-22"><stop offset="0" stop-color="#ffad4f" stop-opacity="0"/><stop offset="1" stop-color="#ffad4f" stop-opacity="0.0902"/></radialGradient><radialGradient cx="239.99995" cy="179.92692" r="11.61591" gradientUnits="userSpaceOnUse" id="color-23"><stop offset="0" stop-color="#ffef82" stop-opacity="0.11373"/><stop offset="1" stop-color="#ffe18f"/></radialGradient><radialGradient cx="239.99995" cy="180" r="17.80268" gradientUnits="userSpaceOnUse" id="color-24"><stop offset="0" stop-color="#10101a" stop-opacity="0.41961"/><stop offset="1" stop-color="#10101a" stop-opacity="0"/></radialGradient><radialGradient cx="239.99997" cy="180" r="14.45321" gradientUnits="userSpaceOnUse" id="color-25"><stop offset="0" stop-color="#7377eb" stop-opacity="0.61176"/><stop offset="1" stop-color="#7377eb" stop-opacity="0"/></radialGradient><radialGradient cx="239.99995" cy="179.93669" r="12.23582" gradientUnits="userSpaceOnUse" id="color-26"><stop offset="0" stop-color="#4f54ff" stop-opacity="0"/><stop offset="1" stop-color="#4f54ff" stop-opacity="0.0902"/></radialGradient><radialGradient cx="239.99995" cy="179.93669" r="10.06157" gradientUnits="userSpaceOnUse" id="color-27"><stop offset="0" stop-color="#829eff" stop-opacity="0.11373"/><stop offset="1" stop-color="#8f98ff"/></radialGradient><radialGradient cx="239.99995" cy="180" r="14.8858" gradientUnits="userSpaceOnUse" id="color-28"><stop offset="0" stop-color="#ffffff" stop-opacity="0.41961"/><stop offset="1" stop-color="#ffffff" stop-opacity="0"/></radialGradient><radialGradient cx="239.99997" cy="180" r="12.08512" gradientUnits="userSpaceOnUse" id="color-29"><stop offset="0" stop-color="#ffffff" stop-opacity="0.61176"/><stop offset="1" stop-color="#ffffff" stop-opacity="0"/></radialGradient><radialGradient cx="239.99995" cy="179.94707" r="10.23104" gradientUnits="userSpaceOnUse" id="color-30"><stop offset="0" stop-color="#ffffff" stop-opacity="0"/><stop offset="1" stop-color="#ffffff" stop-opacity="0.0902"/></radialGradient><radialGradient cx="239.99995" cy="179.94707" r="8.41304" gradientUnits="userSpaceOnUse" id="color-31"><stop offset="0" stop-color="#ffffff" stop-opacity="0.11373"/><stop offset="1" stop-color="#ffffff"/></radialGradient></defs><g transform="translate(-207.28862,-147.54536)"><g data-paper-data="{&quot;isPaintingLayer&quot;:true}" fill-rule="nonzero" stroke-linecap="butt" stroke-linejoin="miter" stroke-miterlimit="10" stroke-dasharray="" stroke-dashoffset="0" style="mix-blend-mode: normal"><path d="M208.78862,210.95464v-61.90928h62.42289v61.90928z" fill="url(#color-1)" stroke="url(#color-2)" stroke-width="3"/><path d="M269.8557,180c0,16.39724 -13.36685,29.68983 -29.8557,29.68983c-16.48885,0 -29.8557,-13.29259 -29.8557,-29.68983c0,-16.39724 13.36685,-29.68983 29.8557,-29.68983c16.48885,0 29.8557,13.29259 29.8557,29.68983z" fill="url(#color-3)" stroke="url(#color-4)" stroke-width="0"/><path d="M263.86004,180c0,13.38588 -10.68251,24.23728 -23.86006,24.23728c-13.17753,0 -23.86007,-10.85141 -23.86007,-24.23728c0,-13.38588 10.68251,-24.23728 23.86007,-24.23728c13.17753,0 23.86006,10.85141 23.86006,24.23728z" fill="url(#color-5)" stroke="url(#color-6)" stroke-width="2.5"/><path d="M261.61766,180c0,11.61933 -9.67856,21.03864 -21.61769,21.03864c-11.93911,0 -21.61768,-9.41932 -21.61768,-21.03864c0,-11.61931 9.67856,-21.03864 21.61768,-21.03864c11.93911,0 21.61769,9.41932 21.61769,21.03864z" fill="url(#color-7)" stroke="none" stroke-width="NaN"/><g stroke="none" stroke-width="0.5"><path d="M211.11316,180c0,-15.95371 12.93306,-28.88681 28.88681,-28.88681c15.95371,0 28.88681,12.93305 28.88681,28.88681c0,15.95371 -12.93305,28.88681 -28.88681,28.88681c-15.95371,0 -28.88681,-12.93305 -28.88681,-28.88681z" fill="url(#color-8)"/><path d="M216.54807,180c0,-12.95207 10.49976,-23.4519 23.4519,-23.4519c12.95208,0 23.4519,10.49976 23.4519,23.4519c0,12.95208 -10.49976,23.4519 -23.4519,23.4519c-12.95207,0 -23.4519,-10.49976 -23.4519,-23.4519z" fill="url(#color-9)"/><path d="M220.14597,179.89727c0,-10.965 8.88891,-19.85397 19.85396,-19.85397c10.965,0 19.85397,8.88892 19.85397,19.85397c0,10.965 -8.88892,19.85396 -19.85397,19.85396c-10.965,0 -19.85396,-8.88891 -19.85396,-19.85396z" fill="url(#color-10)"/><path d="M223.67395,179.89727c0,-9.01658 7.30941,-16.326 16.32602,-16.326c9.01658,0 16.32602,7.30939 16.32602,16.326c0,9.01658 -7.30941,16.326 -16.32602,16.326c-9.01658,0 -16.32602,-7.30939 -16.32602,-16.326z" fill="url(#color-11)"/></g><g stroke="none" stroke-width="0.5"><path d="M213.53002,180c0,-14.61892 11.85102,-26.46998 26.46998,-26.46998c14.61892,0 26.46998,11.85101 26.46998,26.46998c0,14.61891 -11.851,26.46998 -26.46998,26.46998c-14.61892,0 -26.46998,-11.85101 -26.46998,-26.46998z" fill="url(#color-12)"/><path d="M218.51022,180c0,-11.86844 9.6213,-21.48978 21.48979,-21.48978c11.86844,0 21.48978,9.62129 21.48978,21.48978c0,11.86845 -9.62129,21.48978 -21.48978,21.48978c-11.86842,0 -21.48979,-9.62129 -21.48979,-21.48978z" fill="url(#color-13)"/><path d="M221.8071,179.90587c0,-10.0476 8.14522,-18.19287 18.19285,-18.19287c10.0476,0 18.19287,8.14521 18.19287,18.19287c0,10.0476 -8.14522,18.19285 -18.19287,18.19285c-10.0476,0 -18.19285,-8.14522 -18.19285,-18.19285z" fill="url(#color-14)"/><path d="M225.03991,179.90587c0,-8.26219 6.69785,-14.96007 14.96009,-14.96007c8.26219,0 14.96007,6.69784 14.96007,14.96007c0,8.26219 -6.69785,14.96006 -14.96007,14.96006c-8.26219,0 -14.96009,-6.69784 -14.96009,-14.96006z" fill="url(#color-15)"/></g><g stroke="none" stroke-width="0.5"><path d="M217.11358,180c0,-12.63978 10.24658,-22.88637 22.88639,-22.88637c12.63978,0 22.88639,10.24657 22.88639,22.88637c0,12.63977 -10.24657,22.88639 -22.88639,22.88639c-12.63978,0 -22.88639,-10.24657 -22.88639,-22.88639z" fill="url(#color-16)"/><path d="M221.41954,180c0,-10.26164 8.31873,-18.58042 18.58042,-18.58042c10.26166,0 18.58043,8.31873 18.58043,18.58042c0,10.26166 -8.31873,18.58042 -18.58043,18.58042c-10.26163,0 -18.58042,-8.31873 -18.58042,-18.58042z" fill="url(#color-17)"/><path d="M224.27009,179.91861c0,-8.68734 7.04249,-15.72985 15.72985,-15.72985c8.68734,0 15.72987,7.0425 15.72987,15.72985c0,8.68734 -7.0425,15.72985 -15.72987,15.72985c-8.68734,0 -15.72985,-7.0425 -15.72985,-15.72985z" fill="url(#color-18)"/><path d="M227.06523,179.91861c0,-7.14362 5.79106,-12.93472 12.93474,-12.93472c7.14362,0 12.93474,5.79107 12.93474,12.93472c0,7.14362 -5.79108,12.93474 -12.93474,12.93474c-7.14362,0 -12.93474,-5.79107 -12.93474,-12.93474z" fill="url(#color-19)"/></g><g stroke="none" stroke-width="0.5"><path d="M219.4471,180c0,-11.35102 9.20184,-20.55288 20.55288,-20.55288c11.35102,0 20.55288,9.20184 20.55288,20.55288c0,11.35102 -9.20183,20.55288 -20.55288,20.55288c-11.35102,0 -20.55288,-9.20184 -20.55288,-20.55288z" fill="url(#color-20)"/><path d="M223.31401,180c0,-9.21536 7.47055,-16.68596 16.68595,-16.68596c9.21536,0 16.68597,7.47055 16.68597,16.68596c0,9.21536 -7.47055,16.68595 -16.68597,16.68595c-9.21536,0 -16.68595,-7.47055 -16.68595,-16.68595z" fill="url(#color-21)"/><path d="M225.87391,179.92692c0,-7.80157 6.32443,-14.12604 14.12604,-14.12604c7.80157,0 14.12605,6.32445 14.12605,14.12604c0,7.80157 -6.32443,14.12603 -14.12605,14.12603c-7.80157,0 -14.12604,-6.32443 -14.12604,-14.12603z" fill="url(#color-22)"/><path d="M228.38406,179.92692c0,-6.41526 5.20061,-11.6159 11.61591,-11.6159c6.41526,0 11.61591,5.20062 11.61591,11.6159c0,6.41526 -5.20063,11.6159 -11.61591,11.6159c-6.41526,0 -11.61591,-5.20062 -11.61591,-11.6159z" fill="url(#color-23)"/></g><g stroke="none" stroke-width="0.5"><path d="M222.19729,180c0,-9.83212 7.97053,-17.80268 17.80268,-17.80268c9.83212,0 17.80268,7.97053 17.80268,17.80268c0,9.83212 -7.97053,17.80268 -17.80268,17.80268c-9.83212,0 -17.80268,-7.97053 -17.80268,-17.80268z" fill="url(#color-24)"/><path d="M225.54677,180c0,-7.98224 6.47091,-14.4532 14.4532,-14.4532c7.98225,0 14.45321,6.47091 14.45321,14.4532c0,7.98225 -6.47091,14.4532 -14.45321,14.4532c-7.98224,0 -14.4532,-6.47091 -14.4532,-14.4532z" fill="url(#color-25)"/><path d="M227.76413,179.93669c0,-6.75762 5.47816,-12.23583 12.23583,-12.23583c6.75762,0 12.23582,5.47817 12.23582,12.23583c0,6.75762 -5.47816,12.23582 -12.23582,12.23582c-6.75762,0 -12.23583,-5.47816 -12.23583,-12.23582z" fill="url(#color-26)"/><path d="M229.9384,179.93669c0,-5.55683 4.50471,-10.06157 10.06157,-10.06157c5.55683,0 10.06157,4.50471 10.06157,10.06157c0,5.55683 -4.50472,10.06157 -10.06157,10.06157c-5.55683,0 -10.06157,-4.50471 -10.06157,-10.06157z" fill="url(#color-27)"/></g><g stroke="none" stroke-width="0.5"><path d="M225.11416,180c0,-8.22119 6.6646,-14.88582 14.88582,-14.88582c8.22119,0 14.88582,6.6646 14.88582,14.88582c0,8.22119 -6.6646,14.88582 -14.88582,14.88582c-8.22119,0 -14.88582,-6.6646 -14.88582,-14.88582z" fill="url(#color-28)"/><path d="M227.91486,180c0,-6.6744 5.41068,-12.08512 12.08511,-12.08512c6.6744,0 12.08512,5.41069 12.08512,12.08512c0,6.6744 -5.41069,12.08511 -12.08512,12.08511c-6.6744,0 -12.08511,-5.41068 -12.08511,-12.08511z" fill="url(#color-29)"/><path d="M229.7689,179.94707c0,-5.65042 4.58058,-10.23105 10.23105,-10.23105c5.65042,0 10.23106,4.58059 10.23106,10.23105c0,5.65042 -4.58059,10.23105 -10.23106,10.23105c-5.65042,0 -10.23105,-4.58059 -10.23105,-10.23105z" fill="url(#color-30)"/><path d="M231.58694,179.94707c0,-4.64637 3.76664,-8.41304 8.41304,-8.41304c4.64637,0 8.41304,3.76664 8.41304,8.41304c0,4.64637 -3.76665,8.41303 -8.41304,8.41303c-4.64637,0 -8.41304,-3.76664 -8.41304,-8.41303z" fill="url(#color-31)"/></g><path d="M211.15777,160.00635v-8.5h47.26667v8.5z" fill-opacity="0.4902" fill="#08130e" stroke="none" stroke-width="0"/><text transform="translate(211.90777,158.35305) scale(0.17331,0.17331)" font-size="40" xml:space="preserve" fill="#c1ffe1" fill-rule="nonzero" stroke="none" stroke-width="1" stroke-linecap="butt" stroke-linejoin="miter" stroke-miterlimit="10" stroke-dasharray="" stroke-dashoffset="0" font-family="Pixel" font-weight="normal" text-anchor="start" style="mix-blend-mode: normal"><tspan x="0" dy="0">Orb Core 3.0</tspan></text></g></g></svg>