<svg version="1.1" xmlns="http://www.w3.org/2000/svg" xmlns:xlink="http://www.w3.org/1999/xlink" width="256.5" height="146.71633" viewBox="0,0,256.5,146.71633"><defs><linearGradient x1="240" y1="68.55022" x2="240" y2="214.26653" gradientUnits="userSpaceOnUse" id="color-1"><stop offset="0" stop-color="#747876" stop-opacity="0.90196"/><stop offset="1" stop-color="#585c5a" stop-opacity="0.7098"/></linearGradient><linearGradient x1="240" y1="68.55022" x2="240" y2="214.26653" gradientUnits="userSpaceOnUse" id="color-2"><stop offset="0" stop-color="#333836" stop-opacity="0.90196"/><stop offset="1" stop-color="#2e3331" stop-opacity="0.71373"/></linearGradient><radialGradient cx="159.67057" cy="115.21978" r="43.5533" gradientUnits="userSpaceOnUse" id="color-3"><stop offset="0" stop-color="#000000" stop-opacity="0.7098"/><stop offset="1" stop-color="#0c0c0c"/></radialGradient><linearGradient x1="159.48877" y1="108.03853" x2="159.48877" y2="115.87118" gradientUnits="userSpaceOnUse" id="color-4"><stop offset="0" stop-color="#d09e75"/><stop offset="1" stop-color="#ffc494"/></linearGradient><radialGradient cx="154.87445" cy="82.14075" r="14.9979" gradientUnits="userSpaceOnUse" id="color-5"><stop offset="0" stop-color="#ffd4b0"/><stop offset="1" stop-color="#ffc392"/></radialGradient><radialGradient cx="154.7676" cy="80.8595" r="15.8103" gradientUnits="userSpaceOnUse" id="color-6"><stop offset="0" stop-color="#595959"/><stop offset="1" stop-color="#4c4c4c"/></radialGradient><radialGradient cx="158.87343" cy="102.8209" r="10.52486" gradientUnits="userSpaceOnUse" id="color-7"><stop offset="0" stop-color="#595959"/><stop offset="1" stop-color="#4c4c4c"/></radialGradient><radialGradient cx="156.39083" cy="78.85425" r="14.0791" gradientUnits="userSpaceOnUse" id="color-8"><stop offset="0" stop-color="#595959"/><stop offset="1" stop-color="#4c4c4c"/></radialGradient><linearGradient x1="260.92058" y1="71.56092" x2="260.92058" y2="96.2276" gradientUnits="userSpaceOnUse" id="color-9"><stop offset="0" stop-color="#393b3a" stop-opacity="0.99216"/><stop offset="1" stop-color="#111211" stop-opacity="0.83922"/></linearGradient><linearGradient x1="260.92058" y1="71.56092" x2="260.92058" y2="96.2276" gradientUnits="userSpaceOnUse" id="color-10"><stop offset="0" stop-color="#111312" stop-opacity="0.90196"/><stop offset="1" stop-color="#050606" stop-opacity="0.71373"/></linearGradient><radialGradient cx="159.69095" cy="125.34745" r="9.27808" gradientUnits="userSpaceOnUse" id="color-11"><stop offset="0" stop-color="#1baa7a"/><stop offset="1" stop-color="#00865e"/></radialGradient><radialGradient cx="159.57346" cy="117.00583" r="3.58337" gradientUnits="userSpaceOnUse" id="color-12"><stop offset="0" stop-color="#1baa7a"/><stop offset="1" stop-color="#00865e"/></radialGradient></defs><g transform="translate(-111.75,-68.05019)"><g data-paper-data="{&quot;isPaintingLayer&quot;:true}" fill-rule="nonzero" stroke-linejoin="miter" stroke-miterlimit="10" stroke-dasharray="" stroke-dashoffset="0" style="mix-blend-mode: normal"><path d="M112.25,214.26653v-145.71633h255.5v145.71633z" fill="url(#color-1)" stroke="url(#color-2)" stroke-width="1" stroke-linecap="butt"/><path d="M115.88086,210.39534h247.5" fill="none" stroke="#222422" stroke-width="1" stroke-linecap="round"/><path d="M115.88086,207.39534h247.5" fill="none" stroke="#222422" stroke-width="1" stroke-linecap="round"/><path d="M363.38086,204.39534h-247.5" fill="none" stroke="#222422" stroke-width="1" stroke-linecap="round"/><path d="M116.33724,158.77306v-87.1066h86.66667v87.1066z" fill="url(#color-3)" stroke-opacity="0.90196" stroke="#000000" stroke-width="0" stroke-linecap="butt"/><path d="M187.77855,141.4821l3.27768,-5.80232c0,0 1.12655,0.74454 2.20744,0.77192c1.84996,0.04685 3.94474,-0.07603 4.65429,1.27918c0.38502,0.73534 -2.71643,-0.22276 -2.62665,0.20522c0.01597,0.07615 4.14392,3.03646 4.05013,3.5549c-0.15315,0.847 -4.55806,-1.92243 -4.04538,-1.29406c1.05237,1.28985 4.32,2.86642 4.09756,3.49609c-0.3747,1.06078 -5.40863,-3.02549 -5.18294,-2.4794c0.42163,1.02018 3.85022,2.97142 3.68063,3.53051c-0.49391,1.62846 -4.32981,-2.27948 -4.18086,-1.62362c0.28135,1.23899 2.8647,2.38911 2.52234,2.89848c-0.69604,1.03565 -4.01816,-1.68257 -4.16734,-1.42825c-0.31608,0.53875 -4.28689,-3.10871 -4.28689,-3.10871z" data-paper-data="{&quot;index&quot;:null}" fill="#ffb77d" stroke="#000000" stroke-width="0" stroke-linecap="butt"/><path d="M187.97755,141.46195c0,0 -2.1106,-1.40842 -5.49288,-3.90788c-2.03148,-1.50122 -5.42061,-3.86583 -6.12725,-4.51297c-1.57641,-1.44354 3.56577,-7.44893 5.23214,-5.69128c0.70408,0.74264 3.13459,2.89233 3.82752,3.60742c2.88139,2.97383 6.46179,4.89874 6.46179,4.89874z" data-paper-data="{&quot;index&quot;:null}" fill="#ffffff" stroke="#000000" stroke-width="0" stroke-linecap="butt"/><path d="M183.76094,130.7231c0.09679,0.43693 -1.55801,1.74152 -3.44067,2.13818c-1.87871,0.39584 -3.98501,-0.11524 -4.12321,-0.57252c-0.6548,-2.1668 -0.99291,-4.43301 -1.35522,-5.77067c-0.77921,-2.87711 -1.6646,-6.54303 -1.6646,-6.54303c0,0 -2.14942,-7.00879 -0.77529,-7.39797c8.10339,-2.29519 8.40152,5.63341 8.40152,5.63341c0,0 1.3672,5.21542 2.19562,8.27436c0.33716,1.24489 0.33045,2.29085 0.76182,4.23825z" data-paper-data="{&quot;index&quot;:null}" fill="#ffffff" stroke="#000000" stroke-width="0" stroke-linecap="butt"/><path d="M148.2098,150.86264c0,0 7.72305,-2.4954 11.22928,-2.4954c4.14864,0 12.06108,2.4954 12.06108,2.4954l0.85851,9.54662c-0.8055,-0.20924 -1.65046,-0.32058 -2.52143,-0.32058c-0.02284,0 -0.04566,0.00007 -0.06847,0.00023c-1.11653,-0.43074 -2.32978,-0.66689 -3.5982,-0.66689c-0.62265,0 -1.23201,0.05691 -1.82315,0.1658c-0.1606,-1.83035 -0.31207,-3.23914 -0.44475,-3.99202c-0.23023,-1.30642 -3.77042,-2.37638 -3.77042,-2.37638c0,0 -3.53507,0.10094 -3.88489,1.74246c-0.21811,1.0234 -0.47966,3.06087 -0.7579,5.65642c-2.63256,-0.20144 -5.50464,-0.547 -8.30852,-0.52906z" fill="#726f7c" stroke="#000000" stroke-width="0" stroke-linecap="butt"/><path d="M155.11221,115.87118v-7.83265h8.75311v7.83265z" fill="url(#color-4)" stroke="#000000" stroke-width="0" stroke-linecap="butt"/><path d="M147.93243,150.93784c0,0 0.19103,-6.35629 -0.40321,-12.51183c-0.40377,-4.18265 -1.606,-7.95629 -1.78537,-10.80786c-0.33666,-5.35206 -0.24066,-15.29961 -0.24066,-15.29961c0,0 4.22073,-0.66856 6.25305,-0.24989c2.58702,0.53294 8.01045,3.18823 8.01045,3.18823c0,0 4.20371,-2.48161 6.39128,-2.95751c2.30818,-0.50214 7.11541,0.01918 7.11541,0.01918c0,0 -0.07895,10.53772 -0.2594,14.46966c-0.15966,3.47883 -1.01702,7.28052 -1.35303,12.43078c-0.3463,5.3082 -0.16902,11.91473 -0.16902,11.91473c0,0 -3.15199,-0.87955 -6.3702,-0.95754c-1.46149,-0.03542 -2.04791,1.15028 -3.42813,1.33229c-1.10322,0.14547 -3.01394,-0.70073 -4.07129,-0.74274c-0.79933,-0.03176 -2.33659,-0.60662 -2.90165,-0.61132c-1.14094,-0.00949 -1.84722,0.98927 -3.17083,1.17145c-1.53752,0.21162 -3.61745,-0.38801 -3.61745,-0.38801z" fill="#1d1d1d" stroke="#292e32" stroke-width="0" stroke-linecap="butt"/><path d="M174.42178,93.83605c0,8.83859 -6.55983,16.00369 -14.6518,16.00369c-8.09196,0 -14.65179,-7.1651 -14.65179,-16.00369c0,-8.83859 6.55983,-16.00368 14.65179,-16.00368c8.09196,0 14.6518,7.16509 14.6518,16.00368z" fill="url(#color-5)" stroke="none" stroke-width="0" stroke-linecap="butt"/><path d="M155.57743,95.49618c-0.61576,1.04438 -1.67545,0.43882 -1.67545,0.43882c-1.06887,-0.63706 -2.86649,-1.3442 -2.69231,-3.0824c0.14234,-1.4205 2.5025,-2.67523 3.75048,-2.40895c2.26389,0.48307 4.21202,4.5168 0.61728,5.05251z" fill="#081720" stroke="none" stroke-width="0.5" stroke-linecap="butt"/><path d="M160.7434,100.65762c0.16868,-0.53578 0.55592,-0.65212 0.84166,-0.65855c0.09076,-0.00562 0.18356,0.00189 0.27586,0.02388c-0.32932,-1.23666 -0.12173,-2.83441 -0.52,-4.03116c0,0 -0.2925,-0.89689 0.60438,-1.18939c0.89688,-0.2925 1.18939,0.60439 1.18939,0.60439c0.47963,1.49608 0.83263,3.33746 0.80084,4.93485c-0.01191,0.59862 0.29532,1.40746 -0.16656,1.78845c-0.47928,0.39535 -1.24014,-0.07771 -1.86021,-0.11657l-0.54882,-0.17279c-0.11373,-0.0358 -0.21589,-0.09116 -0.30394,-0.16119c-0.23052,-0.16897 -0.48127,-0.48616 -0.3126,-1.02193z" fill="#081720" stroke="none" stroke-width="0.5" stroke-linecap="butt"/><path d="M169.48199,96.04827c-0.49673,1.12819 -1.35161,0.47405 -1.35161,0.47405c-0.86227,-0.68819 -2.31243,-1.45207 -2.17191,-3.32978c0.11483,-1.53451 2.01879,-2.88996 3.02555,-2.60229c1.8263,0.52183 3.39788,4.87932 0.49796,5.45802z" fill="#081720" stroke="none" stroke-width="0.5" stroke-linecap="butt"/><g stroke="#000000" stroke-width="0" stroke-linecap="butt"><path d="" data-paper-data="{&quot;index&quot;:null}" fill="#141415"/><path d="" data-paper-data="{&quot;index&quot;:null}" fill="#252527"/></g><g data-paper-data="{&quot;index&quot;:null}" stroke="#000000" stroke-width="0" stroke-linecap="butt"><path d="" data-paper-data="{&quot;index&quot;:null}" fill="#141415"/><path d="" data-paper-data="{&quot;index&quot;:null}" fill="#252527"/></g><path d="M171.47737,85.34536c-0.4687,0 -0.6812,-0.25619 -0.77755,-0.48851c-1.517,-1.27489 -4.26643,-3.34146 -4.45551,-4.96224c-2.41351,-1.18483 -5.33204,-1.52723 -8.81567,-1.23717c-0.89811,0.09688 -1.85079,0.28498 -2.76672,0.59297c0.03969,0.26348 -0.05303,0.49528 -0.05303,0.49528l-0.1096,0.20611c1.07133,0.70665 1.92031,0.96807 0.8605,2.75668c-1.72771,2.91581 -3.63369,5.6788 -7.37765,5.09207c-0.26385,0.35078 -0.57543,0.69577 -0.95535,1.03842c0.0087,0.14907 -0.01575,0.25906 -0.01575,0.25906c-0.20875,0.9202 -1.11934,2.26669 -0.94286,3.22691c0.26592,1.44691 0.69212,1.72554 -0.1219,3.15254l-0.3276,0.44197c0,0 -0.51448,0.68596 -1.20044,0.17149c-0.68597,-0.51448 -0.17149,-1.20044 -0.17149,-1.20044l0.24529,-0.32192c0.39704,-0.53857 -0.03718,-1.3399 -0.12188,-2.00362c-0.01119,-0.08769 -0.01809,-0.17472 -0.02111,-0.26114c-0.0531,-0.11154 -0.08282,-0.23636 -0.08282,-0.36812v-0.85936h0.03533l-0.03241,-0.07072c0.0387,-0.23248 0.08293,-0.45712 0.13254,-0.67448c-0.36549,-0.7916 -0.25567,-1.96764 -0.23094,-2.8832c0.02402,-0.88931 0.48741,-1.83861 1.12274,-2.75406c0.11739,-0.64961 0.56419,-1.35207 0.79937,-1.76819c0.3998,-0.70738 1.37877,-1.50485 2.52999,-2.10484c0.40098,-0.54325 0.865,-1.2047 1.40134,-1.35269c0.28044,-0.07739 0.56034,-0.09262 0.83216,-0.05672c1.78399,-1.46147 4.1627,-2.20551 6.4064,-2.46087c8.22312,-0.68584 13.80488,2.05653 16.9436,9.95785c0.34516,1.5418 0.81827,3.01503 1.16358,4.55481l0.21634,0.37545c0,0 0.38347,0.76695 -0.38347,1.15041c-0.76693,0.38347 -1.1504,-0.38348 -1.1504,-0.38348l-0.35656,-0.77037c-0.32825,-1.49263 -0.79883,-2.92493 -1.12804,-4.42071c-0.30017,-0.74434 -0.62191,-1.43546 -0.96588,-2.07562c-0.03937,0.00423 -0.08083,0.00646 -0.12454,0.00646zM154.1778,81.34325c0.0077,0.05019 0.01244,0.10076 0.01433,0.15162c0.00482,-0.01975 0.00816,-0.04024 0.0099,-0.06158c0.00286,-0.0351 -0.00592,-0.06475 -0.02423,-0.09005z" fill="url(#color-6)" stroke="none" stroke-width="0.5" stroke-linecap="butt"/><path d="M157.44163,111.52129c-0.0031,0.00134 -0.00621,0.0027 -0.00931,0.00405c-0.00787,0.01279 -0.01537,0.02613 -0.02256,0.03995l0.17699,0.30342l-0.3429,0.20002c-0.06024,0.19676 -0.13386,0.34562 -0.29772,0.29854c-0.04866,-0.01398 -0.09575,-0.02813 -0.1413,-0.04244l-0.20163,0.11761l-0.02925,0.21935c-0.05019,0.42575 -0.41229,0.75599 -0.85153,0.75599c-0.39258,0 -0.72353,-0.26382 -0.82524,-0.62385l-0.20872,-0.67833c-0.1396,0.09851 -0.30994,0.15637 -0.49379,0.15637c-0.37765,0 -0.69829,-0.24415 -0.81267,-0.58321l-0.28904,-0.79487c-0.14826,-0.08182 -0.30113,-0.19859 -0.42433,-0.33412c-0.14135,0.27937 -0.43109,0.47091 -0.76559,0.47091c-0.42148,0 -0.77194,-0.30411 -0.84392,-0.70488l-0.18355,-0.91778c-0.17777,-0.65765 -0.32053,-1.32779 -0.39764,-2.00464c0,0 -0.06232,-0.56088 0.36917,-0.82316l0.02859,-1.04898c0.56583,-0.35365 1.10501,-0.67275 1.62769,-0.9597c0.35196,-0.39707 0.7353,-0.72538 0.99266,-0.91389c0.98902,-0.72442 2.06336,-1.17374 3.1387,-1.29547c0.12516,-0.07144 0.27003,-0.11227 0.42445,-0.11227c0.13163,0 0.25635,0.02967 0.36781,0.08267c0.13413,0.00533 0.26796,0.01601 0.4013,0.03213l0.67614,-0.28708l1.03735,-0.01868h0.85936c0,0 0.42159,0 0.67354,0.29561c0.24352,-0.0044 0.49257,-0.00602 0.74773,-0.00499c2.5103,0.49198 4.77192,0.94354 7.21024,1.65018c0.94955,0.27518 2.05514,0.25285 2.15633,1.78119c0.00163,0.02467 -0.00086,0.0521 -0.00712,0.08199c0.59887,0.52916 0.31854,1.65153 -0.12387,2.67222l0.01647,0.00353l-0.28298,1.3206c-0.07632,0.39537 -0.42423,0.69398 -0.84188,0.69398c-0.265,0 -0.50193,-0.12022 -0.65921,-0.30908l-0.12213,0.56996c-0.07632,0.39537 -0.42424,0.69397 -0.8419,0.69397c-0.39463,0 -0.72701,-0.2666 -0.82683,-0.62952l-0.01789,-0.05965l-0.75494,1.00659c-0.15602,0.21281 -0.40785,0.35096 -0.69196,0.35096c-0.19215,0 -0.36955,-0.0632 -0.51252,-0.16996l-0.5577,0.63738c-0.15723,0.1816 -0.38945,0.29646 -0.6485,0.29646c-0.18873,0 -0.36322,-0.06098 -0.50485,-0.16431l-0.1077,0.32311c-0.10775,0.35038 -0.43399,0.60506 -0.81971,0.60506c-0.3423,0 -0.63775,-0.20056 -0.77525,-0.49061l-0.37202,-0.74404c-0.11465,0.05685 -0.24384,0.08884 -0.38048,0.08884c-0.17955,0 -0.34621,-0.05519 -0.48394,-0.14952l-0.09497,0.17094c-0.1169,0.22023 -0.32699,0.38344 -0.5777,0.43705c-0.11425,0.09927 -0.25503,0.16878 -0.41029,0.19653l-0.16725,0.83628c-0.07198,0.40077 -0.42244,0.70488 -0.84393,0.70488c-0.40195,0 -0.73932,-0.27658 -0.83215,-0.64982l-0.28154,-1.03236l0.00305,-0.00084l-0.00541,-0.00798c-0.06711,-0.27783 0.01933,-0.7984 0.05668,-1.19039c-0.06995,-0.07151 -0.13583,-0.14715 -0.19702,-0.22736c-0.0258,-0.03383 -0.05267,-0.07608 -0.07993,-0.12453zM165.15145,106.95396c-0.45184,-0.64275 -1.58376,0.30392 -2.3527,0.14263c-1.16385,-0.24411 -6.29583,-1.09661 -6.31973,0.849c0.64622,0.22378 1.30422,0.4415 1.98356,0.60591c1.75341,0.08176 3.55503,0.16707 5.29667,0.03622c0.7277,-0.12635 1.44805,-0.30564 2.13978,-0.54928c-0.28191,-0.32643 -0.51209,-0.74949 -0.7476,-1.08451z" fill="url(#color-7)" stroke="none" stroke-width="0.5" stroke-linecap="butt"/><path d="M167.844,81.2191c-0.83704,0.18601 -1.02305,-0.65103 -1.02305,-0.65103c-0.0024,-0.01327 -0.00489,-0.02644 -0.00749,-0.03951c-0.41941,-0.30492 -0.89726,-0.53436 -1.37141,-0.77039c-0.14793,0.25756 -0.42574,0.43103 -0.74407,0.43103c-0.25271,0 -0.47988,-0.10932 -0.63682,-0.28325l-0.62002,-0.68202c-0.18182,-0.05917 -0.36144,-0.11291 -0.54014,-0.16198c-0.30684,0.30968 -0.67047,1.07373 -1.70397,0.82592c-0.09205,-0.02208 -0.16388,-0.08461 -0.22461,-0.16781c-0.34283,-0.05057 -0.66764,-0.16957 -0.98653,-0.31288c-0.09751,0.29944 -0.17228,0.63846 -0.43099,0.68642c-0.35636,0.06607 -0.53397,-0.44558 -0.77754,-0.75308l-0.27452,0.54903c-0.13749,0.29002 -0.43295,0.4906 -0.77525,0.4906c-0.3637,0 -0.67451,-0.22643 -0.79914,-0.54601l-0.21711,-0.52106c-0.05947,0.05258 -0.1263,0.09702 -0.19872,0.13159c-0.0614,0.29062 -0.15814,0.54383 -0.40674,0.65398c-0.39966,0.17707 -0.80804,-0.05899 -1.22698,-0.30182c-0.58192,0.26479 -1.17941,0.4763 -1.82379,0.66986c-0.42398,0.86245 -0.81844,2.27074 -1.78335,2.57671c-0.76287,0.24189 -1.43642,-1.05921 -2.00571,-1.64088c-0.11561,0.09991 -0.25441,0.21352 -0.43435,0.35247c0.00916,0.05021 0.01394,0.10195 0.01394,0.1548c0,0.31192 -0.16655,0.58494 -0.41559,0.73499l-0.26511,0.1657c-0.71161,1.19682 -1.57068,2.89905 -2.34208,3.72285l0.21304,0.13694l-0.85169,1.32485c-0.15124,0.24356 -0.42116,0.40572 -0.72895,0.40572c-0.45234,0 -0.82285,-0.35025 -0.85517,-0.79434l-0.09482,-1.13772l0.37927,-0.03161l-0.12269,-0.6542c0.37152,0.02986 0.70233,-0.2948 1.0162,-0.7651c0.41808,-2.01207 1.67184,-4.61267 2.98609,-5.29067c0.27959,-0.14423 0.60365,-0.23703 0.93095,-0.26492c0.68052,-1.16949 1.23206,-2.62946 3.11401,-1.22576c0.18651,-0.25304 0.44832,-0.39984 0.74807,-0.49327c0.32028,-0.43295 0.66491,-0.73974 1.00912,-0.79493c0.2913,-0.04672 0.46289,0.23083 0.63904,0.5268c0.11436,-0.02227 0.22563,-0.04896 0.33211,-0.08243c0.79095,-0.24862 1.16416,-1.39739 1.98743,-1.49562c0.37276,-0.04448 0.53487,0.5764 0.89441,0.68436c0.06101,0.01833 0.12614,0.02918 0.19491,0.03384c0.20434,-0.03351 0.41668,-0.05848 0.6345,-0.07532c0.80014,-0.18739 1.81593,-0.62322 2.68653,-0.28565c0.26594,0.10311 0.49468,0.37723 0.72397,0.60224c0.29121,0.07652 0.56836,0.16474 0.82465,0.26353c0.42492,-0.23836 0.63672,-0.96444 1.12158,-0.93576c0.45322,0.02681 0.71272,0.51073 1.01842,0.88929c0.04761,-0.09081 0.11494,-0.18073 0.21014,-0.25339c0.08974,-0.38294 0.21157,-0.75084 0.47486,-0.81477c1.35727,-0.32955 2.12318,1.97223 2.53196,2.20211c0.25577,0.14383 0.42372,-0.7349 0.6684,-0.5729c0.60193,0.39853 0.80141,1.20022 1.19886,1.80361c0.94401,-0.69764 1.30215,1.09041 1.5887,2.41836c0.47359,0.28685 0.35301,0.88976 0.35301,0.88976l-1.74975,0.58042c-0.24256,-0.73063 -0.16345,-1.59467 -0.24562,-2.01252c-0.15078,0.13183 -0.34814,0.21171 -0.56416,0.21171c-0.34903,0 -0.64936,-0.20855 -0.78317,-0.50783c-0.06291,0.04391 -0.12527,0.07621 -0.1864,0.09898c-0.07679,0.04278 -0.16813,0.07784 -0.27668,0.10197zM151.0066,81.34911c0.01503,-0.08494 0.03685,-0.1843 0.0649,-0.29528l-0.3749,0.12497c0.15295,0.30221 0.26105,0.447 0.31,0.17032zM168.17207,79.31766c0.02036,0.0395 0.04021,0.07988 0.05952,0.12118c0.00318,-0.05836 -0.01196,-0.10243 -0.05952,-0.12118z" fill="url(#color-8)" stroke="none" stroke-width="0.5" stroke-linecap="butt"/><path d="M147.93243,150.93784c0,0 0.19103,-6.35629 -0.40321,-12.51183c-0.40377,-4.18265 -1.606,-7.95629 -1.78537,-10.80785c-0.33666,-5.35206 -0.24066,-15.29961 -0.24066,-15.29961c0,0 4.22073,-0.66856 6.25305,-0.24989c2.58702,0.53294 3.52947,38.09044 2.96442,38.08574c-1.14094,-0.00949 -1.84722,0.98927 -3.17083,1.17145c-1.53752,0.21162 -3.61745,-0.38801 -3.61745,-0.38801z" fill="#ffffff" stroke="#292e32" stroke-width="0" stroke-linecap="butt"/><path d="M171.25307,151.14202c0,0 -1.98782,0.60471 -3.45725,0.39129c-1.26499,-0.18372 -1.93999,-1.19092 -3.03041,-1.18135c-0.54002,0.00474 0.36068,-37.87018 2.83315,-38.40763c1.94232,-0.42221 5.97614,0.252 5.97614,0.252c0,0 0.09175,10.03162 -0.23001,15.42892c-0.17142,2.87566 -1.32042,6.68121 -1.70631,10.8992c-0.56793,6.20756 -0.38535,12.61758 -0.38535,12.61758z" data-paper-data="{&quot;index&quot;:null}" fill="#ffffff" stroke="#292e32" stroke-width="0" stroke-linecap="butt"/><path d="M157.23732,89.17432c0.26712,0.50538 -0.23826,0.77251 -0.23826,0.77251l-0.50942,0.24997c-1.94434,0.4784 -3.99562,1.28482 -6.00973,1.12744c0,0 -0.56977,-0.04599 -0.52382,-0.61574c0.04596,-0.56982 0.61575,-0.52385 0.61575,-0.52385c1.87151,0.15633 3.83589,-0.65296 5.64462,-1.09803l0.2483,-0.15056c0,0 0.50539,-0.26712 0.77251,0.23826z" data-paper-data="{&quot;index&quot;:null}" fill="#081720" stroke="none" stroke-width="0.5" stroke-linecap="butt"/><path d="M171.85725,87.58552c-0.33589,0.46255 -0.79843,0.12668 -0.79843,0.12668l-0.3088,-0.22649c-1.2688,-0.77496 -2.40135,-1.34047 -3.80132,-0.52224c0,0 -0.49807,0.28054 -0.7786,-0.21754c-0.28052,-0.49806 0.21756,-0.7786 0.21756,-0.7786c1.80488,-0.98884 3.30206,-0.46862 4.95824,0.54266l0.38471,0.27711c0,0 0.46255,0.33588 0.12667,0.79842z" data-paper-data="{&quot;index&quot;:null}" fill="#081720" stroke="none" stroke-width="0.5" stroke-linecap="butt"/><path d="M209.25391,96.2276v-24.66667h103.33334v24.66667z" fill="url(#color-9)" stroke="url(#color-10)" stroke-width="1" stroke-linecap="butt"/><path d="M116.83724,159.47305v-87.1066h86.66667v87.1066z" fill="none" stroke="#ffffff" stroke-width="2.5" stroke-linecap="butt"/><text transform="translate(214.36901,90.1486) scale(0.5,0.5)" font-size="40" xml:space="preserve" fill="#00ffb4" fill-rule="nonzero" stroke="none" stroke-width="1" stroke-linecap="butt" stroke-linejoin="miter" stroke-miterlimit="10" stroke-dasharray="" stroke-dashoffset="0" font-family="Serif" font-weight="normal" text-anchor="start" style="mix-blend-mode: normal"><tspan x="0" dy="0">Gowlayo G</tspan></text><path d="M157.9253,127.48519l2.0394,-6.12887l2.31431,6.78788l-1.92191,11.76827z" fill="url(#color-11)" stroke="none" stroke-width="0" stroke-linecap="butt"/><path d="M157.57617,118.65066l2.11478,-3.40714l2.34975,3.7596l-2.11477,3.40714z" fill="url(#color-12)" stroke="none" stroke-width="0" stroke-linecap="butt"/><text transform="translate(208.92057,110.30966) scale(0.27124,0.27124)" font-size="40" xml:space="preserve" fill="#ffffff" fill-rule="nonzero" stroke="none" stroke-width="1" stroke-linecap="butt" stroke-linejoin="miter" stroke-miterlimit="10" stroke-dasharray="" stroke-dashoffset="0" font-family="Sans Serif" font-weight="normal" text-anchor="start" style="mix-blend-mode: normal"><tspan x="0" dy="0">Nice, so now you have iron.</tspan><tspan x="0" dy="48px"> </tspan><tspan x="0" dy="48px">Remember what we did to put</tspan><tspan x="0" dy="48px">coal inside the steam engine!</tspan><tspan x="0" dy="48px">Do the same for the factory.</tspan></text><path d="M136.22324,144.27244l6.50993,-1.42508c0,0 0.19609,1.33607 0.89624,2.15998c1.19834,1.41013 2.68647,2.88959 2.14935,4.3219c-0.29142,0.77717 -1.64487,-2.17324 -1.90403,-1.82101c-0.04611,0.06268 0.49929,5.113 0.05034,5.38875c-0.73342,0.45049 -1.60575,-4.67903 -1.73233,-3.87798c-0.25985,1.64431 0.74342,5.1309 0.12579,5.38488c-1.04045,0.42785 -1.35062,-6.04838 -1.60718,-5.51608c-0.4793,0.99436 0.35197,4.85072 -0.17779,5.09705c-1.54304,0.71746 -1.18744,-4.74691 -1.577,-4.1987c-0.73594,1.03569 0.12897,3.72799 -0.4789,3.81239c-1.23595,0.17159 -1.4246,-4.11669 -1.71361,-4.05837c-0.6123,0.12359 -0.54077,-5.26774 -0.54077,-5.26774z" data-paper-data="{&quot;index&quot;:null}" fill="#ffb77d" stroke="#000000" stroke-width="0" stroke-linecap="butt"/><path d="M136.37089,144.40738c0,0 -0.35722,-2.51208 -0.74907,-6.69943c-0.23537,-2.51495 -0.73222,-6.61752 -0.72098,-7.57561c0.02504,-2.13735 7.92932,-2.30808 7.73013,0.10572c-0.08416,1.01989 -0.06612,4.26459 -0.13722,5.25781c-0.29564,4.1302 0.65645,8.08217 0.65645,8.08217z" data-paper-data="{&quot;index&quot;:null}" fill="#ffffff" stroke="#000000" stroke-width="0" stroke-linecap="butt"/><path d="M134.98416,128.86703c0.59512,-1.90375 0.67721,-2.9465 1.11883,-4.15828c1.0851,-2.97758 2.89008,-8.05812 2.89008,-8.05812c0,0 0.9701,-7.8747 8.84941,-4.8999c1.33611,0.50444 -1.40048,7.30547 -1.40048,7.30547c0,0 -1.19338,3.57751 -2.21399,6.3781c-0.4745,1.3021 -1.00379,3.53139 -1.84017,5.63481c-0.17649,0.44391 -2.31861,0.77433 -4.15692,0.22046c-1.84222,-0.55505 -3.38026,-1.99539 -3.24676,-2.42253z" data-paper-data="{&quot;index&quot;:null}" fill="#ffffff" stroke="#000000" stroke-width="0" stroke-linecap="butt"/><path d="M157.60268,107.4105c0.37572,-0.53737 0.91309,-0.16163 0.91309,-0.16163l0.0687,0.18241c1.02054,0.02635 1.96299,-0.17148 2.98658,-0.152c0,0 0.65554,0.01454 0.64099,0.67007c-0.01455,0.65553 -0.67008,0.64099 -0.67008,0.64099c-1.02054,-0.02635 -1.96299,0.17149 -2.98658,0.152l-0.79108,-0.41875c0,0 -0.53736,-0.37574 -0.16163,-0.9131z" data-paper-data="{&quot;index&quot;:null}" fill="#000000" stroke="none" stroke-width="0.5" stroke-linecap="butt"/><text transform="translate(117.42057,182.64296) scale(0.27124,0.27124)" font-size="40" xml:space="preserve" fill="#ffffff" fill-rule="nonzero" stroke="none" stroke-width="1" stroke-linecap="butt" stroke-linejoin="miter" stroke-miterlimit="10" stroke-dasharray="" stroke-dashoffset="0" font-family="Sans Serif" font-weight="normal" text-anchor="start" style="mix-blend-mode: normal"><tspan x="0" dy="0">Make sure you the factory has 20 iron bars, at</tspan><tspan x="0" dy="48px">the very least. You may have to wait!</tspan></text></g></g></svg>