<svg version="1.1" xmlns="http://www.w3.org/2000/svg" xmlns:xlink="http://www.w3.org/1999/xlink" width="497.0105" height="440.13803" viewBox="0,0,497.0105,440.13803"><defs><radialGradient cx="239.76178" cy="177.81006" r="244" gradientUnits="userSpaceOnUse" id="color-1"><stop offset="0" stop-color="#121212"/><stop offset="1" stop-color="#868686"/></radialGradient><radialGradient cx="240.00005" cy="180" r="173.5" gradientUnits="userSpaceOnUse" id="color-2"><stop offset="0" stop-color="#000000"/><stop offset="1" stop-color="#000000" stop-opacity="0"/></radialGradient><radialGradient cx="237.93829" cy="318.1666" r="116.49049" gradientUnits="userSpaceOnUse" id="color-3"><stop offset="0" stop-color="#33266a"/><stop offset="1" stop-color="#949074"/></radialGradient><linearGradient x1="242.7439" y1="206.71003" x2="247.12426" y2="240.06435" gradientUnits="userSpaceOnUse" id="color-4"><stop offset="0" stop-color="#5fa5c2"/><stop offset="1" stop-color="#7fff7d"/></linearGradient><radialGradient cx="217.12983" cy="96.63091" r="64.41492" gradientUnits="userSpaceOnUse" id="color-5"><stop offset="0" stop-color="#ffa8a8"/><stop offset="1" stop-color="#ffed7d"/></radialGradient><radialGradient cx="232.39258" cy="141.39011" r="13.70696" gradientUnits="userSpaceOnUse" id="color-6"><stop offset="0" stop-color="#daffe3"/><stop offset="1" stop-color="#0c1a0f"/></radialGradient><radialGradient cx="266.89257" cy="159.89011" r="16.12716" gradientUnits="userSpaceOnUse" id="color-7"><stop offset="0" stop-color="#5f6471"/><stop offset="1" stop-color="#171d2c"/></radialGradient><radialGradient cx="291.89257" cy="138.39011" r="13.22358" gradientUnits="userSpaceOnUse" id="color-8"><stop offset="0" stop-color="#ffd0d0"/><stop offset="1" stop-color="#2a0000"/></radialGradient><linearGradient x1="118.13079" y1="127.93038" x2="152.15789" y2="131.19985" gradientUnits="userSpaceOnUse" id="color-9"><stop offset="0" stop-color="#694444"/><stop offset="1" stop-color="#98a1b9"/></linearGradient><radialGradient cx="3.69794" cy="137.16612" r="65.45502" gradientUnits="userSpaceOnUse" id="color-10"><stop offset="0" stop-color="#dcdcdc"/><stop offset="1" stop-color="#a0a0a0"/></radialGradient><radialGradient cx="37.22083" cy="112.89102" r="46.28026" gradientUnits="userSpaceOnUse" id="color-11"><stop offset="0" stop-color="#d1ffc4"/><stop offset="1" stop-color="#2188ff"/></radialGradient><radialGradient cx="37.22083" cy="112.89102" r="46.28026" gradientUnits="userSpaceOnUse" id="color-12"><stop offset="0" stop-color="#ceffc4"/><stop offset="1" stop-color="#ff21cc"/></radialGradient><radialGradient cx="37.22083" cy="112.89102" r="46.28026" gradientUnits="userSpaceOnUse" id="color-13"><stop offset="0" stop-color="#ffe9c4"/><stop offset="1" stop-color="#4fff21"/></radialGradient><radialGradient cx="37.22083" cy="112.89102" r="46.28026" gradientUnits="userSpaceOnUse" id="color-14"><stop offset="0" stop-color="#ffe9c4"/><stop offset="1" stop-color="#4fff21"/></radialGradient><radialGradient cx="37.22082" cy="112.89109" r="46.28024" gradientUnits="userSpaceOnUse" id="color-15"><stop offset="0" stop-color="#ffe9c4"/><stop offset="1" stop-color="#ffa321"/></radialGradient><radialGradient cx="37.2208" cy="112.89115" r="46.28024" gradientUnits="userSpaceOnUse" id="color-16"><stop offset="0" stop-color="#c4f0ff"/><stop offset="1" stop-color="#3d21ff"/></radialGradient><radialGradient cx="-4.29885" cy="149.55782" r="50.24886" gradientUnits="userSpaceOnUse" id="color-17"><stop offset="0" stop-color="#1c2f30"/><stop offset="1" stop-color="#142913"/></radialGradient><radialGradient cx="2.38931" cy="66.33568" r="13.22632" gradientUnits="userSpaceOnUse" id="color-18"><stop offset="0" stop-color="#786c41"/><stop offset="1" stop-color="#141a29"/></radialGradient><radialGradient cx="-2.12005" cy="122.84004" r="20.82216" gradientUnits="userSpaceOnUse" id="color-19"><stop offset="0" stop-color="#7ba676"/><stop offset="1" stop-color="#291616"/></radialGradient></defs><g transform="translate(13.24878,5.18993)"><g data-paper-data="{&quot;isPaintingLayer&quot;:true}" fill-rule="nonzero" stroke-linecap="butt" stroke-linejoin="miter" stroke-miterlimit="10" stroke-dasharray="" stroke-dashoffset="0" style="mix-blend-mode: normal"><path d="M-4.23828,360.81007v-366h488v366z" fill="url(#color-1)" stroke="none" stroke-width="0"/><path d="M413.5,180c0,97.7544 -77.6786,177 -173.5,177c-95.8214,0 -173.5,-79.2456 -173.5,-177c0,-97.7544 77.6786,-177 173.5,-177c95.8214,0 173.5,79.2456 173.5,177z" fill="url(#color-2)" stroke="none" stroke-width="0"/><path d="M160.25243,434.36546l0.87834,-232.97929l154.49348,0.58264l-0.87834,232.97929z" data-paper-data="{&quot;index&quot;:null}" fill="url(#color-3)" stroke="#ed6b00" stroke-width="0"/><path d="M341.33488,279.58605c-10.93402,-8.69917 -24.55278,-20.01827 -24.55278,-20.01827c0,0 -26.17098,-22.79784 -23.40627,-27.32744c16.16784,-26.49204 40.38117,4.26796 40.38117,4.26796c0,0 21.00626,16.74181 32.63186,25.99042c6.57976,6.12703 -14.39033,25.01999 -25.05393,17.08731z" data-paper-data="{&quot;index&quot;:null}" fill="#a3bda9" stroke="#000000" stroke-width="0"/><g><path d="M228.48725,242.5119l-4.38035,-33.35423l37.2739,-4.89511l4.38035,33.35423z" fill="url(#color-4)" stroke="#000000" stroke-width="0"/><path d="M302.57782,144.27643c1.15825,37.94343 -26.06368,69.56234 -60.80191,70.62275c-34.73819,1.06041 -63.8381,-28.83915 -64.99636,-66.78266c-1.15825,-37.94348 26.06372,-69.56234 60.80196,-70.62275c34.73815,-1.06041 63.83806,28.83915 64.99631,66.78267z" fill="url(#color-5)" stroke="none" stroke-width="0"/><path d="M234.24021,154.93526c-2.50656,4.56413 -7.13506,2.1034 -7.13506,2.1034c-4.67209,-2.5948 -12.48175,-5.39491 -11.96181,-12.87968c0.42489,-6.11682 10.39255,-11.81263 15.78488,-10.83296c9.78211,1.7772 18.67383,18.83841 3.31207,21.60924z" data-paper-data="{&quot;index&quot;:null}" fill="url(#color-6)" stroke="none" stroke-width="0.5"/><path d="M257.0938,176.41599c0.6539,-2.32212 2.30108,-2.87228 3.52687,-2.93738c0.38889,-0.03601 0.78833,-0.01594 1.18741,0.06639c-1.57584,-5.26582 -0.89405,-12.15203 -2.76053,-17.23739c0,0 -1.37318,-3.81193 2.43876,-5.18519c3.8119,-1.37313 5.18515,2.4388 5.18515,2.4388c2.25503,6.35973 4.01183,14.21829 4.0846,21.08007c0.02731,2.57134 1.45218,6.00343 -0.48065,7.6995c-2.00564,1.75997 -5.33394,-0.17113 -8.00098,-0.25671l-2.37873,-0.66982c-0.49303,-0.13881 -0.93874,-0.36294 -1.32595,-0.65208c-1.01167,-0.69505 -2.12977,-2.02393 -1.47587,-4.34605z" data-paper-data="{&quot;index&quot;:null}" fill="url(#color-7)" stroke="none" stroke-width="0.5"/><path d="M291.1509,132.11765c7.90861,2.00089 15.22634,20.50137 2.85304,23.36571c-1.98457,4.90829 -5.7402,2.21218 -5.7402,2.21218c-3.79187,-2.84138 -10.11739,-5.93054 -9.76022,-14.00987c0.29187,-6.60261 8.28781,-12.67099 12.64741,-11.56801z" data-paper-data="{&quot;index&quot;:null}" fill="url(#color-8)" stroke="none" stroke-width="0.5"/></g><g><path d="M130.72612,153.97247l-14.90812,-4.57669l4.13954,-40.47839l14.90378,2.02717c0,0 4.71105,27.76614 4.67458,35.926c-0.03201,7.16108 -8.80976,7.10188 -8.80976,7.10188z" data-paper-data="{&quot;index&quot;:null}" fill="url(#color-9)" stroke="#000000" stroke-width="0"/><path d="M62.6644,57.12909c38.39723,3.68972 66.78639,35.1775 63.40875,70.33117c-3.37751,35.1538 -37.24258,60.66086 -75.64051,56.97114c-38.39723,-3.68971 -66.78637,-35.17749 -63.4087,-70.3314c3.37751,-35.1538 37.24258,-60.66086 75.6405,-56.97115z" data-paper-data="{&quot;index&quot;:null}" fill="url(#color-10)" stroke="none" stroke-width="0"/><g data-paper-data="{&quot;index&quot;:null}" stroke="#ed6b00" stroke-width="0"><path d="M99.00883,106.33171c-4.85095,50.40147 -35.72216,50.50328 -54.18807,47.65627c-18.4657,-2.84734 -29.45908,-34.78886 -25.67758,-60.05833c3.78153,-25.26944 25.39683,-45.91891 43.86248,-43.07174c0,0 41.92431,-0.19932 36.0028,55.47379z" data-paper-data="{&quot;index&quot;:null}" fill="url(#color-11)"/><path d="M99.00878,106.33165c-3.86565,40.16381 -24.25447,48.38659 -41.72214,48.62933c9.65747,-4.01083 16.89753,-12.50679 18.41796,-23.17532c2.36345,-16.58393 -9.98908,-32.13739 -27.59014,-34.73968c-11.72855,-1.73406 -22.82805,2.72015 -29.62832,10.79228c-0.22063,-4.71307 -0.0153,-9.4163 0.65695,-13.9086c1.15265,-7.70234 3.96221,-14.97546 7.83443,-21.28478c11.25699,-2.11228 20.5665,-9.90362 23.90897,-20.55919c4.04649,-1.36744 8.15533,-1.83898 12.11911,-1.22778c0,0 1.69757,-0.00808 4.36128,0.43269c-1.24202,2.58708 -2.11084,5.39326 -2.53484,8.36841c-2.36345,16.58391 9.98908,32.13739 27.59014,34.73968c2.42044,0.35788 4.8141,0.45215 7.14871,0.30552c0.05726,3.57626 -0.11756,7.44416 -0.56251,11.62753z" data-paper-data="{&quot;index&quot;:null}" fill="url(#color-12)"/><path d="M19.14312,93.92962c1.28787,-8.60584 4.64412,-16.67587 9.23999,-23.46437c3.18444,1.77255 6.72804,3.0615 10.53177,3.7421c-8.53231,4.33144 -14.79154,12.31834 -16.19276,22.15044c-2.36345,16.58389 9.9891,32.13741 27.59015,34.73971c11.79994,1.74459 22.96317,-2.77463 29.75205,-10.94014c2.92645,5.00101 7.28609,9.22507 12.62497,12.10066c-2.26002,4.92677 -4.96862,8.84102 -7.97189,11.93242c-4.83779,-4.77166 -11.29905,-8.14368 -18.68435,-9.23559c-13.07638,-1.93334 -25.37089,3.82564 -31.79693,13.71472c-11.84936,-10.66019 -18.07976,-34.78116 -15.09298,-54.73986z" data-paper-data="{&quot;index&quot;:null}" fill="url(#color-13)"/><path d="M82.66277,86.83239c-4.61407,-7.88485 -12.79072,-13.83839 -22.75088,-15.62044c7.23712,-3.67386 12.83886,-9.97775 15.22784,-17.80678c7.80296,3.00169 17.29776,9.54036 21.81266,23.78332c-5.65078,1.86721 -10.61202,5.22053 -14.28964,9.6439z" data-paper-data="{&quot;index&quot;:null}" fill="url(#color-14)"/><path d="M74.70173,108.98767c-0.45766,-0.16852 -2.8664,0.86445 -3.60416,1.09176c-9.00171,2.77392 -18.48717,4.41902 -27.05135,8.19438c-0.80904,0.35664 -0.75793,3.45434 -1.05076,4.81847c-1.79325,8.35398 -4.75572,16.52438 -5.46144,25.04457c-0.09035,1.09096 0.14515,2.24672 0.64793,3.44358c-6.10541,-3.5765 -11.05508,-10.5343 -14.47621,-19.04702c8.72418,-4.2858 15.14721,-12.36223 16.56891,-22.3383c1.83521,-12.87748 -5.2027,-25.13369 -16.68108,-31.18724c4.99799,-10.98292 13.1966,-19.94364 22.17173,-24.70135c-3.13015,3.92459 -5.26707,8.65279 -6.01602,13.90819c-2.36345,16.58391 9.98908,32.1374 27.59014,34.73968c4.36661,0.64559 8.64609,0.43342 12.64896,-0.50387c0.93601,4.50319 2.92825,8.71992 5.7518,12.36693c-4.21632,-2.71379 -8.15853,-4.76947 -11.03837,-5.82987z" data-paper-data="{&quot;index&quot;:null}" fill="url(#color-15)"/><path d="M99.00883,106.33182c-4.85095,50.40147 -35.72215,50.50328 -54.18807,47.65627c-0.80268,-0.12375 -1.59125,-0.30252 -2.36513,-0.53328c5.94453,0.72471 12.49719,-0.34946 17.24936,-1.74512c0.49114,-0.14425 0.98187,-0.29994 1.47202,-0.46686c13.4555,-1.08101 24.8422,-10.17262 27.90348,-22.89331c6.12137,-9.12194 9.81083,-19.54405 9.14498,-29.00459c-1.14835,-16.31571 -1.16556,-30.83284 -27.59014,-34.73968c-10.70587,-1.58286 -21.43887,4.87758 -30.02552,10.89101c-5.00539,3.50539 -2.53535,12.06079 -6.4401,16.64719c-6.21124,1.66508 -11.70016,5.09132 -15.73272,9.76469c0.08408,-2.70412 0.31675,-5.37658 0.70613,-7.9783c1.39933,-9.35099 5.24085,-18.06932 10.46113,-25.19844c0.45009,0.08492 0.90391,0.16129 1.3612,0.22889c14.85805,2.19676 28.70661,-5.53773 34.08388,-17.97785c2.0284,0.20104 5.38389,0.72692 9.22668,2.10221c3.52807,8.43448 10.9062,15.26031 20.33895,18.21688c3.9277,8.07108 6.06353,19.32854 4.39343,35.03036z" data-paper-data="{&quot;index&quot;:null}" fill="url(#color-16)"/></g><g data-paper-data="{&quot;index&quot;:null}"><path d="M-0.65447,136.63763c-0.15281,0.83723 -0.5124,2.99919 -0.75178,5.37892c0.2992,2.78613 0.49512,5.99596 0.9769,8.54548c3.90459,2.58346 9.73854,-1.36647 11.02333,6.45545c2.18984,13.34071 -12.09657,5.52436 -15.79866,0.25327c-3.61957,-7.58826 -1.75262,-16.76894 -1.08487,-24.93228c0.92002,-11.24433 0.65654,-22.52432 2.9486,-33.25664c-0.30421,-0.51213 -0.43099,-1.13189 -0.3152,-1.76327l0.5301,-2.88827c0.02162,-1.52397 0.06154,-3.17498 0.14515,-4.89808c-0.14445,-4.57895 0.58146,-9.83896 1.45176,-14.68545c0.18959,-2.44274 0.58016,-4.67252 1.24097,-6.4221c0.26885,-1.34348 0.51829,-2.59362 0.72335,-3.71476l0.55832,-3.04462c0.25443,-1.38662 1.58414,-2.30448 2.9715,-2.05036c1.23439,0.22662 2.09714,1.30506 2.09318,2.51694l0.02813,1.71551c0.77965,-0.53376 1.62557,-0.98006 2.54229,-1.32544l-0.25997,-1.28484l3.21136,-0.64796c0.32604,-0.0735 0.67233,-0.08433 1.02222,-0.02045c1.38662,0.25443 2.3045,1.58414 2.05037,2.9715c-0.07717,0.4215 -0.25408,0.80099 -0.50176,1.11575l-1.63371,2.17121l-0.06381,-0.04828l-0.08198,0.22492c-1.55987,1.44103 -2.86404,2.98625 -3.90503,4.60231c-0.84467,2.66268 -1.92616,5.40962 -2.96372,8.22788c-0.51824,5.11083 1.27128,10.3673 5.52919,14.95478c0,0 1.73224,1.87493 -0.14242,3.60741c-1.87493,1.73226 -3.60743,-0.14242 -3.60743,-0.14242c-0.36832,-0.40045 -0.7227,-0.80647 -1.06136,-1.21747l0.05528,1.48606c0.01134,0.19964 -0.0003,0.40503 -0.03776,0.61066c-0.25443,1.38662 -1.58414,2.30448 -2.9715,2.05036c-0.702,-0.12868 -1.28364,-0.53267 -1.65426,-1.08071c-0.32572,1.17907 -0.57076,2.30944 -0.60065,3.3208c-0.2084,7.06405 -2.49231,17.36974 -3.68718,27.35834c1.17425,0.26856 1.98618,1.31891 1.98196,2.49443l0.05017,3.10934l-0.10063,0.0016l-0.00067,0.03857z" fill="url(#color-17)" stroke="none" stroke-width="0.5"/><path d="M1.59901,59.09122c2.25749,-13.40191 2.42143,-13.23498 11.50641,-11.82001c9.08467,1.41469 15.11434,8.25526 13.46736,15.2778c-1.64739,7.02254 -10.34855,11.56815 -19.43339,10.15313c-9.08471,-1.41466 -7.65714,-1.04364 -5.54055,-13.61123z" data-paper-data="{&quot;index&quot;:null}" fill="url(#color-18)" stroke="#000000" stroke-width="0"/><path d="M5.63169,94.49883c10.05103,0.94475 17.33466,10.90579 16.26758,22.24851c-1.06607,11.34267 -10.07856,19.77193 -20.1292,18.82682c-10.05105,-0.94475 -10.28904,-0.74493 -7.32754,-22.08691c2.77678,-20.01311 1.13785,-19.93261 11.18902,-18.98812z" fill="url(#color-19)" stroke="#000000" stroke-width="0"/></g></g><g data-paper-data="{&quot;index&quot;:null}" stroke-width="0"><path d="M294.72218,399.95812c0,0 -9.41683,2.60817 -16.34674,1.57997c-5.9661,-0.88459 -9.1066,-5.42662 -14.25718,-5.43791c-2.55107,-0.00579 -9.51747,2.51646 -13.12708,2.62171c-4.77536,0.13895 -13.44016,3.86856 -18.41287,3.1592c-6.2213,-0.88678 -8.81206,-6.26697 -15.41093,-6.17634c-14.53055,0.1995 -28.8,4.01986 -28.8,4.01986c0,0 1.11399,-29.81294 -0.1972,-53.79c-1.27161,-23.26373 -4.96149,-40.46454 -5.51716,-56.1754c-0.62782,-17.75666 -0.48394,-65.32681 -0.48394,-65.32681c0,0 21.72426,-2.12502 32.11946,0.2511c9.85177,2.2524 28.70899,13.65354 28.70899,13.65354c0,0 24.60665,-11.7285 36.30975,-14.01141c9.19337,-1.79373 28.21364,1.42453 28.21364,1.42453c0,0 -0.03925,44.90658 -1.81256,69.04977c-0.94465,12.86311 -6.55024,29.8405 -8.57149,48.70113c-2.97476,27.75704 -2.41381,56.45789 -2.41381,56.45789z" fill="#d1b0b0" stroke="#292e32"/><path d="M189.6061,278.45897l0.28277,-26.90828l39.44353,-1.46317l-0.94123,30.03037z" fill="#f200ff" stroke="none"/><path d="M228.79555,267.217c-5.70093,-4.93481 -13.09998,-7.9728 -21.22859,-8.11176c-1.96355,-0.03357 -3.8903,0.10339 -5.76618,0.39718c2.72632,-2.47342 5.04269,-5.39345 6.83222,-8.64713l20.69945,-0.76782z" fill="#eeff00" stroke="none"/><path d="M195.9279,278.72934c1.21163,-3.35948 1.89967,-6.97254 1.96412,-10.74253c0.10265,-6.00583 -1.38994,-11.66769 -4.08716,-16.5814l25.87009,-0.95964c-8.94377,6.68024 -14.50435,17.50653 -14.20686,28.69167z" fill="#00ff5f" stroke="none"/><path d="M195.64873,278.71736c-0.60408,-2.00222 -1.3918,-3.92601 -2.34383,-5.75142c4.8529,-1.47712 9.24257,-4.03358 12.88397,-7.39396c3.87495,6.54599 9.92914,11.66143 17.18158,14.33114l-27.72174,-1.18576z" fill="#004fff" stroke="none"/><path d="M220.83774,279.79475c1.71925,-3.92352 2.70575,-8.24577 2.78355,-12.79665c0.10243,-5.99217 -1.38316,-11.64197 -4.06879,-16.54786l9.78,-0.36276l-0.94123,30.03043z" fill="#ff0000" stroke="none"/><path d="M189.77485,262.40881c3.26643,4.14278 7.49704,7.49525 12.36035,9.71437c0.38161,2.41201 1.02256,4.73956 1.8939,6.95266l-14.42288,-0.61693l0.16865,-16.05015z" fill="#00efff" stroke="none"/><path d="M207.37067,250.90221c-9.65968,5.51866 -16.31304,15.73888 -16.79144,27.59837l-0.97301,-0.04163l0.28275,-26.90829z" fill="#9c00ff" stroke="none"/></g><path d="M124.16294,197.63986c14.4427,4.7104 39.07944,12.53362 39.07944,12.53362c0,0 41.66711,2.09896 27.69904,39.82763c-2.22999,6.02333 -38.02225,-5.33415 -38.02225,-5.33415c0,0 -17.33571,-5.15127 -30.92,-9.58221c-15.27825,-5.17136 -12.19496,-40.96708 2.16374,-37.44491z" fill="#b8bda6" stroke="#000000" stroke-width="0"/><path d="M67.74835,160.52823c0,0 10.29732,12.26511 26.7743,20.76717c3.96242,2.04464 35.9863,20.51666 40.08191,22.5725c15.31215,8.46056 -8.96823,35.50631 -22.80406,27.01143c-3.68333,-2.19704 -30.80969,-25.20597 -39.83705,-32.00548c-15.02999,-11.32049 -25.49346,-16.31351 -25.49346,-16.31351z" data-paper-data="{&quot;index&quot;:null}" fill="#b8bda6" stroke="#000000" stroke-width="0"/><path d="M46.4478,183.78057c0.92783,-0.98808 -15.36796,-12.1093 -11.70445,-16.52233c1.80191,-2.17062 10.22452,7.72853 16.05276,7.36126c3.08557,-0.19428 -19.1227,-12.038 -12.58315,-16.32868c2.24479,-1.4729 15.29692,11.1129 20.34226,11.64887c2.70076,0.28662 -21.84777,-16.60834 -17.65672,-19.63665c2.48816,-1.79741 13.67895,10.56516 20.73155,13.53189c3.43613,1.44495 -14.48981,-14.38433 -10.95392,-16.1584c2.16419,-1.08577 20.57253,13.2752 20.92904,13.24665c2.00362,-0.15974 -6.24466,-12.59208 -2.50268,-11.84831c6.89602,1.3703 9.07241,10.7661 11.67888,18.86253c1.52271,4.73125 6.26758,8.73244 6.26758,8.73244c0,0 -4.47021,9.7768 -8.07196,13.4876c-3.5065,3.61368 -13.2597,8.49271 -13.2597,8.49271c0,0 -21.23444,-12.77681 -19.26913,-14.86904z" data-paper-data="{&quot;index&quot;:null}" fill="#786274" stroke="#000000" stroke-width="0"/><path d="M414.54056,207.89272c0,0 -7.76697,8.21172 -18.13,23.51322c-6.22444,9.19032 -26.14395,41.227 -28.79409,44.48832c-12.33289,15.1991 -36.76907,-1.48013 -25.73471,-13.46281c3.0213,-3.29996 29.45107,-34.03261 32.36274,-37.27255c12.10794,-13.47208 18.34567,-27.76529 18.34567,-27.76529z" data-paper-data="{&quot;index&quot;:null}" fill="#a3bda9" stroke="#000000" stroke-width="0"/><path d="M420.40465,203.88246c1.93587,1.20297 -14.98844,18.6216 -14.98844,18.6216c0,0 -8.98293,-1.23748 -12.4216,-3.2799c-3.53145,-2.09822 -8.49745,-9.14636 -8.49745,-9.14636c0,0 3.65281,-4.8773 4.43724,-9.40465c1.34324,-7.74914 2.16678,-16.48481 7.9758,-19.75315c3.15177,-1.77353 -2.58082,11.4126 -0.83095,10.94233c0.31149,-0.08405 14.61291,-18.00701 16.607,-17.7302c3.25763,0.45238 -10.46147,19.49251 -7.65339,17.20857c5.76506,-4.68778 14.05007,-18.70625 16.40391,-17.91517c3.96465,1.33223 -15.36111,23.29571 -13.05789,22.23063c4.30282,-1.98992 14.17262,-16.76451 16.27929,-16.179c6.138,1.7059 -11.73286,18.61769 -9.04299,17.84906c5.08059,-1.45177 11.24991,-12.51294 13.05233,-11.1937c3.66422,2.68199 -9.17478,17.18072 -8.26125,17.74879z" data-paper-data="{&quot;index&quot;:null}" fill="#6c7378" stroke="#000000" stroke-width="0"/></g></g></svg>