<svg version="1.1" xmlns="http://www.w3.org/2000/svg" xmlns:xlink="http://www.w3.org/1999/xlink" width="43.06261" height="104.34889" viewBox="0,0,43.06261,104.34889"><defs><linearGradient x1="239.74787" y1="156.06833" x2="239.74787" y2="162.91938" gradientUnits="userSpaceOnUse" id="color-1"><stop offset="0" stop-color="#4f6d73"/><stop offset="1" stop-color="#86b9c2"/></linearGradient><radialGradient cx="235.71182" cy="134.47972" r="13.11833" gradientUnits="userSpaceOnUse" id="color-2"><stop offset="0" stop-color="#7bccb1"/><stop offset="1" stop-color="#618c94"/></radialGradient></defs><g transform="translate(-217.9945,-130.87669)"><g data-paper-data="{&quot;isPaintingLayer&quot;:true}" fill-rule="nonzero" stroke-linejoin="miter" stroke-miterlimit="10" stroke-dasharray="" stroke-dashoffset="0" style="mix-blend-mode: normal"><g><path d="M239.85237,190.44407c3.61023,0.36588 10.27572,3.23523 10.27572,3.23523l-0.38284,33.84395l-7.60041,-0.77025c0,0 1.25472,-25.54183 0.95433,-29.62485c-0.08514,-1.15718 -3.07152,-2.4005 -3.07152,-2.4005c0,0 -3.22648,-4.5928 -0.1753,-4.28358z" fill="#453d36" stroke="#000000" stroke-width="0" stroke-linecap="butt"/><path d="M255.40491,235.22291c-0.58974,-0.05977 -2.63201,-0.25301 -4.67364,-0.54089c-1.24126,-0.17502 -1.83017,-0.80643 -2.74439,-1.04265c-1.15096,-0.29739 -2.94579,-0.07694 -3.7714,-0.35309c-1.52129,-0.50886 -2.2841,-1.01329 -2.2841,-1.01329c0,0 -0.16435,-1.04731 -0.12426,-1.60652c0.05403,-0.7534 0.41929,-2.50751 0.41929,-2.50751c0,0 5.91606,0.47937 8.19896,0.91208c1.35086,0.25605 4.15375,1.07107 4.15375,1.07107c0,0 1.39025,0.75964 1.5597,1.20624c0.20753,0.54696 0.66811,2.06655 0.66811,2.06655c0,0 -0.57935,1.89137 -1.40203,1.808z" data-paper-data="{&quot;index&quot;:null}" fill="#141415" stroke="#000000" stroke-width="0" stroke-linecap="butt"/><path d="M255.395,232.63391c-0.24696,-0.02502 0.53733,1.6643 -2.73918,1.06234c-3.09409,-0.56845 -2.64253,-1.46212 -3.73319,-1.65366c-2.28061,-0.40053 -2.63446,0.33109 -3.6136,0.0781c-0.341,-0.08811 -0.49855,-0.16565 -1.67766,-1.14533c-0.81092,-0.67377 -0.48569,-1.80941 -1.01907,-2.49477c-0.77912,-1.00111 -0.61421,-1.95771 -0.61421,-1.95771l0.23131,-3.0399c0,0 0.26136,2.2446 1.01291,3.1494c0.67242,0.80953 2.30698,0.21495 2.78822,0.26358c0.84267,0.08515 -0.35584,-3.32084 0.44796,-3.22104c0.43221,0.05366 3.72738,0.14246 3.72738,0.14246c0,0 -0.23856,3.57405 -0.00881,3.6176c1.35086,0.25605 4.51566,1.10775 4.51566,1.10775c0,0 1.39025,0.75964 1.55971,1.20624c0.20753,0.54696 0.32902,3.00723 0.32902,3.00723c0,0 -0.38373,-0.03889 -1.20642,-0.12227z" data-paper-data="{&quot;index&quot;:null}" fill="#252527" stroke="#000000" stroke-width="0" stroke-linecap="butt"/><path d="M248.25925,228.95711l2.76415,-0.8168" fill="none" stroke="#ffffff" stroke-width="0.5" stroke-linecap="round"/><path d="M252.83303,228.3237l-2.68019,1.19094" fill="none" stroke="#ffffff" stroke-width="0.5" stroke-linecap="round"/><path d="M252.29994,229.976l1.59442,-1.30098" fill="none" stroke="#ffffff" stroke-width="0.5" stroke-linecap="round"/><path d="M247.44409,224.97432l2.19599,-0.02122" fill="none" stroke="#969696" stroke-width="0.5" stroke-linecap="round"/><path d="M249.80801,225.7014l-1.96695,0.16631" fill="none" stroke="#969696" stroke-width="0.5" stroke-linecap="round"/></g><g><path d="M230.64201,228.1221l-0.41442,-33.91649c0,0 6.43554,-2.99672 9.47909,-3.3738c3.60118,-0.44618 1.12355,4.13731 1.12355,4.13731c0,0 -3.05772,0.46781 -3.18484,1.93034c-0.38878,4.47273 0.93901,30.23857 0.93901,30.23857z" fill="#453d36" stroke="#000000" stroke-width="0" stroke-linecap="butt"/><path d="M246.62671,231.08803c0,0 -0.14421,1.97286 -0.96484,2.07453c-0.58827,0.07288 -2.62237,0.33867 -4.67689,0.51206c-1.2491,0.10541 -1.96368,-0.37921 -2.90754,-0.4062c-1.18827,-0.03399 -2.88912,0.58011 -3.75547,0.49448c-1.59637,-0.1578 -2.45225,-0.47993 -2.45225,-0.47993c0,0 -0.39316,-0.98452 -0.47842,-1.53865c-0.11488,-0.74654 -0.14886,-2.53797 -0.14886,-2.53797c0,0 5.87451,-0.84833 8.19648,-0.93417c1.37397,-0.05078 4.28793,0.12048 4.28793,0.12048c0,0 1.52437,0.43144 1.7889,0.82916c0.32398,0.48711 1.11097,1.86622 1.11097,1.86622z" data-paper-data="{&quot;index&quot;:null}" fill="#141415" stroke="#000000" stroke-width="0" stroke-linecap="butt"/><path d="M246.27983,230.49152c0,0 -0.38276,0.04742 -1.20339,0.1491c-0.24633,0.03052 0.894,1.50313 -2.43432,1.64491c-3.14302,0.13388 -2.90152,-0.83782 -4.00746,-0.78202c-2.31257,0.11669 -2.49486,0.90868 -3.50576,0.87978c-0.35206,-0.01007 -0.5229,-0.05062 -1.89035,-0.74356c-0.94044,-0.47655 -0.87593,-1.65608 -1.54837,-2.20565c-0.98225,-0.80278 -1.03421,-1.77209 -1.03421,-1.77209l-0.45053,-3.01522c0,0 0.75401,2.13028 1.68795,2.84527c0.83562,0.63972 2.29702,-0.30349 2.77701,-0.3631c0.84049,-0.10437 -1.08546,-3.15855 -0.2796,-3.24002c0.43332,-0.0438 3.66571,-0.69005 3.66571,-0.69005c0,0 0.56226,3.53759 0.79594,3.52895c1.37396,-0.05078 4.64893,0.07575 4.64893,0.07575c0,0 1.52437,0.43144 1.7889,0.82916c0.32399,0.48711 0.98957,2.85875 0.98957,2.85875z" data-paper-data="{&quot;index&quot;:null}" fill="#252527" stroke="#000000" stroke-width="0" stroke-linecap="butt"/><path d="M239.81498,227.23174l-2.51328,1.41108" data-paper-data="{&quot;index&quot;:null}" fill="none" stroke="#ffffff" stroke-width="0.5" stroke-linecap="round"/><path d="M241.62006,227.00811l-2.3482,1.75717" data-paper-data="{&quot;index&quot;:null}" fill="none" stroke="#ffffff" stroke-width="0.5" stroke-linecap="round"/><path d="M242.73293,227.11459l-1.26516,1.623" data-paper-data="{&quot;index&quot;:null}" fill="none" stroke="#ffffff" stroke-width="0.5" stroke-linecap="round"/><path d="M235.62119,224.94107l2.13628,-0.50906" data-paper-data="{&quot;index&quot;:null}" fill="none" stroke="#969696" stroke-width="0.5" stroke-linecap="round"/><path d="M238.08762,225.12422l-1.8807,0.59958" data-paper-data="{&quot;index&quot;:null}" fill="none" stroke="#969696" stroke-width="0.5" stroke-linecap="round"/></g><path d="M218.09055,204.97172c-0.09653,-2.34681 -0.03414,-5.14007 -0.03414,-5.14007c0,0 -0.18259,-3.99258 0.07937,-7.07947c0.22135,-2.60826 1.38243,-8.15648 1.93693,-13.39783c0.73711,-6.96758 0.87188,-13.55542 0.87188,-13.55542l5.68155,1.46148c0,0 -1.01981,12.94928 -1.41673,15.63936c-0.18454,1.25072 -0.62244,3.25602 -0.98048,5.28881c-0.15127,0.85889 -0.38352,3.61253 -0.52137,4.44976c-0.57325,3.48157 0.12978,6.44698 0.12978,6.44698c0,0 -0.35728,4.84834 -0.52856,5.53672c-0.35156,1.41299 -0.15468,4.32732 -0.7122,4.50163c-0.93917,0.29366 -0.7166,-5.37312 -0.98067,-4.92881c-0.49331,0.82997 -0.57097,4.56664 -1.05131,4.74096c-1.39916,0.50773 -0.16493,-4.53976 -0.54609,-4.09171c-0.72008,0.84644 -0.57388,3.8774 -1.11,3.90467c-0.51626,0.02626 -0.73111,-1.66542 -0.81797,-3.77706z" data-paper-data="{&quot;index&quot;:null}" fill="#6b999c" stroke="#000000" stroke-width="0" stroke-linecap="butt"/><path d="M260.14309,209.07453c-0.53612,-0.02728 -0.38992,-3.05823 -1.11,-3.90467c-0.38116,-0.44805 0.85307,4.59944 -0.54609,4.09171c-0.48035,-0.17432 -0.55801,-3.91099 -1.05132,-4.74096c-0.26407,-0.44431 -0.0415,5.22247 -0.98067,4.92881c-0.55751,-0.17432 -0.36064,-3.08864 -0.7122,-4.50163c-0.17128,-0.68838 -0.52856,-5.53672 -0.52856,-5.53672c0,0 0.70303,-2.9654 0.12978,-6.44698c-0.13785,-0.83723 -0.37009,-3.59086 -0.52137,-4.44976c-0.35803,-2.03278 -0.79594,-4.03809 -0.98047,-5.28881c-0.39692,-2.69009 -1.41673,-15.63936 -1.41673,-15.63936l5.68155,-1.46148c0,0 0.13477,6.58784 0.87189,13.55542c0.55449,5.24135 1.71558,10.78958 1.93692,13.39783c0.26197,3.08689 0.07938,7.07947 0.07938,7.07947c0,0 0.06239,2.79326 -0.03414,5.14007c-0.08686,2.11164 -0.30171,3.80333 -0.81797,3.77707z" data-paper-data="{&quot;index&quot;:null}" fill="#6b999c" stroke="#000000" stroke-width="0" stroke-linecap="butt"/><path d="M227.93874,165.46243c-0.25412,1.96201 0.3786,2.38634 -4.33052,1.46542c-5.57146,-1.08955 -3.72183,-0.51344 -3.46771,-2.47545c0.25412,-1.96201 1.08683,-5.48542 7.16065,-4.27049c3.16316,0.63272 0.8917,3.3185 0.63758,5.28051z" fill="#374a50" stroke="#000000" stroke-width="0" stroke-linecap="butt"/><path d="M251.70669,160.3715c6.07382,-1.21493 6.90653,2.30848 7.16065,4.27049c0.25412,1.96201 2.10376,1.38589 -3.4677,2.47545c-4.70913,0.92092 -4.0764,0.49659 -4.33052,-1.46542c-0.25412,-1.96201 -2.5256,-4.64779 0.63757,-5.28051z" data-paper-data="{&quot;index&quot;:null}" fill="#374a50" stroke="#000000" stroke-width="0" stroke-linecap="butt"/><path d="M235.91979,162.91938v-6.85104h7.65615v6.85104z" fill="url(#color-1)" stroke="#000000" stroke-width="0" stroke-linecap="butt"/><path d="M229.63979,193.59142c0,0 0.16709,-5.5597 -0.35268,-10.94382c-0.35317,-3.65847 -1.40473,-6.95919 -1.56162,-9.45339c-0.29447,-4.68133 -0.2105,-13.38223 -0.2105,-13.38223c0,0 3.69178,-0.58477 5.4694,-0.21857c2.26281,0.46615 7.00656,2.78867 7.00656,2.78867c0,0 3.67689,-2.17061 5.59031,-2.58687c2.01891,-0.43921 6.22369,0.01677 6.22369,0.01677c0,0 -0.06905,9.21711 -0.22689,12.65629c-0.13965,3.04285 -0.88957,6.36811 -1.18346,10.87293c-0.3029,4.64296 -0.14784,10.42155 -0.14784,10.42155c0,0 -2.75697,-0.76932 -5.57187,-0.83754c-1.27833,-0.03098 -1.79126,1.00612 -2.99851,1.16532c-0.96496,0.12724 -2.63623,-0.61291 -3.56107,-0.64966c-0.69915,-0.02778 -2.04377,-0.5306 -2.53801,-0.53471c-0.99795,-0.0083 -1.61572,0.86529 -2.77345,1.02464c-1.34484,0.1851 -3.1641,-0.33939 -3.1641,-0.33939z" fill="#374a50" stroke="#292e32" stroke-width="0" stroke-linecap="butt"/><g stroke="none" stroke-linecap="butt"><path d="M252.80944,144.26025c0,7.39154 -5.73774,13.38356 -12.8156,13.38356c-7.07786,0 -12.8156,-5.99202 -12.8156,-13.38356c0,-7.39154 5.73774,-13.38356 12.8156,-13.38356c7.07786,0 12.8156,5.99202 12.8156,13.38356z" fill="url(#color-2)" stroke-width="0"/><path d="M245.74216,149.6655c-0.98899,0.14802 -1.137,-0.84096 -1.137,-0.84096l-0.04548,-0.30387c-0.18667,-1.25255 -0.2693,-2.49618 -0.35208,-3.75939c0,0 -0.06538,-0.99786 0.93248,-1.06324c0.99786,-0.06538 1.06325,0.93248 1.06325,0.93248c0.07914,1.20785 0.15427,2.39677 0.33431,3.59411l0.04548,0.30387c0,0 0.14803,0.98899 -0.84096,1.13701z" fill="#191412" stroke-width="0.5"/><path d="M248.53391,145.00054c-0.3603,-1.31071 1.73333,-4.12384 1.73333,-4.12384c0,0 2.02159,2.4544 2.0489,4.09576c0.02905,1.74635 -3.34136,1.63194 -3.78223,0.02808z" fill="#191412" stroke-width="0.5"/><path d="M235.95233,144.89559c-0.26739,-1.38612 2.62073,-4.03936 2.62073,-4.03936c0,0 2.33641,2.50751 2.12366,4.18209c-0.22636,1.78169 -4.4172,1.55341 -4.74439,-0.14273z" data-paper-data="{&quot;index&quot;:null}" fill="#191412" stroke-width="0.5"/><path d="M235.75964,153.85715c0,-0.41002 0.3231,-0.74242 0.72166,-0.74242c0.39855,0 0.72166,0.3324 0.72166,0.74242c0,0.41002 -0.32309,0.74242 -0.72166,0.74242c-0.39855,0 -0.72166,-0.3324 -0.72166,-0.74242z" fill="#00ffcc" stroke-width="0.5"/><path d="M235.02053,150.8917c0,-0.41002 0.32309,-0.74242 0.72165,-0.74242c0.39855,0 0.72166,0.33239 0.72166,0.74242c0,0.41002 -0.3231,0.74242 -0.72166,0.74242c-0.39855,0 -0.72165,-0.3324 -0.72165,-0.74242z" fill="#00ffcc" stroke-width="0.5"/><path d="M232.80321,152.10829c0,-0.41002 0.32309,-0.74242 0.72165,-0.74242c0.39855,0 0.72166,0.3324 0.72166,0.74242c0,0.41002 -0.3231,0.74242 -0.72166,0.74242c-0.39855,0 -0.72165,-0.33239 -0.72165,-0.74242z" fill="#00ffcc" stroke-width="0.5"/><path d="M232.0641,149.14284c0,-0.41002 0.3231,-0.74241 0.72166,-0.74241c0.39855,0 0.72166,0.33239 0.72166,0.74241c0,0.41002 -0.3231,0.74242 -0.72166,0.74242c-0.39855,0 -0.72166,-0.3324 -0.72166,-0.74242z" fill="#00ffcc" stroke-width="0.5"/><path d="M249.21594,153.71631c-0.21234,0 -0.38448,-0.33239 -0.38448,-0.74242c0,-0.41002 0.17214,-0.74242 0.38448,-0.74242c0.21234,0 0.38447,0.33239 0.38447,0.74242c0,0.41002 -0.17213,0.74242 -0.38447,0.74242z" fill="#00ffcc" stroke-width="0.5"/><path d="M249.60971,150.75086c-0.21234,0 -0.38448,-0.33239 -0.38448,-0.74242c0,-0.41002 0.17214,-0.74242 0.38448,-0.74242c0.21234,0 0.38448,0.33239 0.38448,0.74242c0,0.41002 -0.17214,0.74242 -0.38448,0.74242z" fill="#00ffcc" stroke-width="0.5"/><path d="M250.79102,151.96746c-0.21234,0 -0.38448,-0.3324 -0.38448,-0.74242c0,-0.41002 0.17214,-0.74241 0.38448,-0.74241c0.21234,0 0.38448,0.33239 0.38448,0.74241c0,0.41002 -0.17214,0.74242 -0.38448,0.74242z" fill="#00ffcc" stroke-width="0.5"/><path d="M251.18479,149.00201c-0.21234,0 -0.38448,-0.33239 -0.38448,-0.74241c0,-0.41002 0.17213,-0.74242 0.38448,-0.74242c0.21234,0 0.38448,0.3324 0.38448,0.74242c0,0.41002 -0.17214,0.74241 -0.38448,0.74241z" fill="#00ffcc" stroke-width="0.5"/><path d="M241.69141,137.42511c0,-0.39455 0.31984,-0.71439 0.71439,-0.71439c0.39455,0 0.71439,0.31984 0.71439,0.71439c0,0.39455 -0.31984,0.71439 -0.71439,0.71439c-0.39455,0 -0.71439,-0.31984 -0.71439,-0.71439z" fill="#00ffcc" stroke-width="0.5"/><path d="M243.66691,134.5716c0,-0.39455 0.31984,-0.7144 0.71439,-0.7144c0.39455,0 0.71439,0.31985 0.71439,0.7144c0,0.39455 -0.31984,0.71439 -0.71439,0.71439c-0.39455,0 -0.71439,-0.31984 -0.71439,-0.71439z" fill="#00ffcc" stroke-width="0.5"/><path d="M245.64242,137.49828c0,-0.39455 0.31984,-0.71439 0.71439,-0.71439c0.39455,0 0.71439,0.31984 0.71439,0.71439c0,0.39455 -0.31984,0.71439 -0.71439,0.71439c-0.39455,0 -0.71439,-0.31984 -0.71439,-0.71439z" fill="#00ffcc" stroke-width="0.5"/></g></g></g></svg>