<svg version="1.1" xmlns="http://www.w3.org/2000/svg" xmlns:xlink="http://www.w3.org/1999/xlink" width="59" height="59.70663" viewBox="0,0,59,59.70663"><defs><linearGradient x1="270" y1="151.64674" x2="270" y2="208.35338" gradientUnits="userSpaceOnUse" id="color-1"><stop offset="0" stop-color="#191919"/><stop offset="1" stop-color="#050505"/></linearGradient><linearGradient x1="270" y1="151.64674" x2="270" y2="208.35338" gradientUnits="userSpaceOnUse" id="color-2"><stop offset="0" stop-color="#cccccc"/><stop offset="1" stop-color="#898989"/></linearGradient><linearGradient x1="270" y1="151.64674" x2="270" y2="208.35337" gradientUnits="userSpaceOnUse" id="color-3"><stop offset="0" stop-color="#191919"/><stop offset="1" stop-color="#050505"/></linearGradient><linearGradient x1="270" y1="151.64674" x2="270" y2="208.35337" gradientUnits="userSpaceOnUse" id="color-4"><stop offset="0" stop-color="#cccccc"/><stop offset="1" stop-color="#898989"/></linearGradient><radialGradient cx="270" cy="180.00006" r="26.8571" gradientUnits="userSpaceOnUse" id="color-5"><stop offset="0" stop-color="#ffffff" stop-opacity="0.35484"/><stop offset="1" stop-color="#ffffff" stop-opacity="0"/></radialGradient><linearGradient x1="270" y1="153.29215" x2="270" y2="206.70795" gradientUnits="userSpaceOnUse" id="color-6"><stop offset="0" stop-color="#cccccc"/><stop offset="1" stop-color="#898989"/></linearGradient><linearGradient x1="279.24163" y1="176.03388" x2="282.66405" y2="176.03388" gradientUnits="userSpaceOnUse" id="color-7"><stop offset="0" stop-color="#525252"/><stop offset="1" stop-color="#363636"/></linearGradient><linearGradient x1="279.24163" y1="176.03388" x2="282.66405" y2="176.03388" gradientUnits="userSpaceOnUse" id="color-8"><stop offset="0" stop-color="#1f1f1f"/><stop offset="1" stop-color="#000000"/></linearGradient><linearGradient x1="258.93501" y1="171.40511" x2="261.87148" y2="171.80879" gradientUnits="userSpaceOnUse" id="color-9"><stop offset="0" stop-color="#525252"/><stop offset="1" stop-color="#2e2e2e"/></linearGradient><linearGradient x1="258.93501" y1="171.40511" x2="261.87148" y2="171.80879" gradientUnits="userSpaceOnUse" id="color-10"><stop offset="0" stop-color="#1f1f1f"/><stop offset="1" stop-color="#000000"/></linearGradient><linearGradient x1="248.76346" y1="180.16925" x2="290.99664" y2="180.16925" gradientUnits="userSpaceOnUse" id="color-11"><stop offset="0" stop-color="#b8b8b8"/><stop offset="1" stop-color="#4a4a4a"/></linearGradient><linearGradient x1="248.76346" y1="180.16925" x2="290.99664" y2="180.16925" gradientUnits="userSpaceOnUse" id="color-12"><stop offset="0" stop-color="#1f1f1f"/><stop offset="1" stop-color="#000000"/></linearGradient><linearGradient x1="263.21551" y1="168.57476" x2="276.64191" y2="168.57476" gradientUnits="userSpaceOnUse" id="color-13"><stop offset="0" stop-color="#5d5d5d"/><stop offset="1" stop-color="#232323"/></linearGradient><linearGradient x1="258.87167" y1="177.17727" x2="280.45922" y2="177.17727" gradientUnits="userSpaceOnUse" id="color-14"><stop offset="0" stop-color="#5d5d5d"/><stop offset="1" stop-color="#232323"/></linearGradient><linearGradient x1="255.22773" y1="186.6738" x2="284.20911" y2="186.6738" gradientUnits="userSpaceOnUse" id="color-15"><stop offset="0" stop-color="#5d5d5d"/><stop offset="1" stop-color="#232323"/></linearGradient><linearGradient x1="251.36868" y1="196.13219" x2="288.22547" y2="196.13219" gradientUnits="userSpaceOnUse" id="color-16"><stop offset="0" stop-color="#5d5d5d"/><stop offset="1" stop-color="#232323"/></linearGradient><linearGradient x1="277.7564" y1="164.81295" x2="284.23302" y2="164.81295" gradientUnits="userSpaceOnUse" id="color-17"><stop offset="0" stop-color="#aaaaaa"/><stop offset="1" stop-color="#4e4e4e"/></linearGradient><linearGradient x1="277.7564" y1="164.81295" x2="284.23302" y2="164.81295" gradientUnits="userSpaceOnUse" id="color-18"><stop offset="0" stop-color="#1f1f1f"/><stop offset="1" stop-color="#000000"/></linearGradient><linearGradient x1="284.25177" y1="164.81295" x2="290.72839" y2="164.81295" gradientUnits="userSpaceOnUse" id="color-19"><stop offset="0" stop-color="#aaaaaa"/><stop offset="1" stop-color="#4e4e4e"/></linearGradient><linearGradient x1="284.25177" y1="164.81295" x2="290.72839" y2="164.81295" gradientUnits="userSpaceOnUse" id="color-20"><stop offset="0" stop-color="#1f1f1f"/><stop offset="1" stop-color="#000000"/></linearGradient><linearGradient x1="285.8232" y1="176.19841" x2="289.24562" y2="176.19841" gradientUnits="userSpaceOnUse" id="color-21"><stop offset="0" stop-color="#525252"/><stop offset="1" stop-color="#363636"/></linearGradient><linearGradient x1="285.8232" y1="176.19841" x2="289.24562" y2="176.19841" gradientUnits="userSpaceOnUse" id="color-22"><stop offset="0" stop-color="#1f1f1f"/><stop offset="1" stop-color="#000000"/></linearGradient><linearGradient x1="249.1145" y1="161.346" x2="291.23654" y2="161.346" gradientUnits="userSpaceOnUse" id="color-23"><stop offset="0" stop-color="#525252"/><stop offset="1" stop-color="#2e2e2e"/></linearGradient><linearGradient x1="249.1145" y1="161.346" x2="291.23654" y2="161.346" gradientUnits="userSpaceOnUse" id="color-24"><stop offset="0" stop-color="#1f1f1f"/><stop offset="1" stop-color="#000000"/></linearGradient></defs><g transform="translate(-240.5,-150.14675)"><g data-paper-data="{&quot;isPaintingLayer&quot;:true}" fill-rule="nonzero" stroke-linejoin="miter" stroke-miterlimit="10" stroke-dasharray="" stroke-dashoffset="0" style="mix-blend-mode: normal"><path d="M242,208.35338v-56.70662h56v56.70662z" fill="url(#color-1)" stroke="url(#color-2)" stroke-width="3" stroke-linecap="butt"/><path d="M242,208.35337v-56.70662h56v56.70662z" fill="url(#color-3)" stroke="url(#color-4)" stroke-width="3" stroke-linecap="butt"/><path d="M296.8571,180.00006c0,14.75036 -12.02433,26.70789 -26.8571,26.70789c-14.83277,0 -26.8571,-11.95753 -26.8571,-26.70789c0,-14.75036 12.02433,-26.70789 26.8571,-26.70789c14.83277,0 26.8571,11.95753 26.8571,26.70789z" fill="url(#color-5)" stroke="url(#color-6)" stroke-width="0" stroke-linecap="butt"/><path d="M279.24163,181.69402v-11.3203h3.42242v11.3203z" fill="url(#color-7)" stroke="url(#color-8)" stroke-width="1.5" stroke-linecap="butt"/><path d="M257.23845,183.74621l0.44239,-23.00909l7.31408,-1.6656l-4.82,25.07838z" fill="url(#color-9)" stroke="url(#color-10)" stroke-width="1.5" stroke-linecap="butt"/><path d="M248.76346,201.28668c0,0 15.76963,-42.54286 21.11947,-42.23318c6.12011,0.35426 21.1137,42.23318 21.1137,42.23318z" fill="url(#color-11)" stroke="url(#color-12)" stroke-width="1.5" stroke-linecap="butt"/><path d="M276.64191,168.57476h-13.4264" fill="none" stroke="url(#color-13)" stroke-width="3" stroke-linecap="round"/><path d="M258.87167,177.17727h21.58755" fill="none" stroke="url(#color-14)" stroke-width="3" stroke-linecap="round"/><path d="M284.20912,186.6738h-28.98138" fill="none" stroke="url(#color-15)" stroke-width="3" stroke-linecap="round"/><path d="M288.22547,196.13219h-36.85679" fill="none" stroke="url(#color-16)" stroke-width="3" stroke-linecap="round"/><path d="M284.23302,164.81295c-0.02424,5.01419 -0.10095,5.5507 -3.2383,5.49756c-3.13835,-0.05316 -3.27723,-0.73261 -3.2383,-5.49756c0.04298,-5.2608 0.03385,-5.62649 3.2383,-5.49755c3.07029,0.12355 3.26492,-0.00855 3.2383,5.49755z" fill="url(#color-17)" stroke="url(#color-18)" stroke-width="1.5" stroke-linecap="butt"/><path d="M290.72839,164.81295c-0.02423,5.01419 -0.10095,5.5507 -3.23831,5.49756c-3.13835,-0.05316 -3.27723,-0.73261 -3.2383,-5.49756c0.04298,-5.2608 0.03385,-5.62649 3.2383,-5.49755c3.07029,0.12355 3.26492,-0.00855 3.23831,5.49755z" fill="url(#color-19)" stroke="url(#color-20)" stroke-width="1.5" stroke-linecap="butt"/><path d="M282.8615,179.71955c0,0 2.96171,-0.74587 2.96171,-2.41324c0,-2.03306 0,-6.76805 0,-6.76805h3.42241c0,0 0,4.44102 0,6.43897c0,0.7471 -0.64207,2.32468 -1.7502,3.50612c-1.4721,1.56948 -3.51505,2.69152 -3.51505,2.69152z" fill="url(#color-21)" stroke="url(#color-22)" stroke-width="1.5" stroke-linecap="butt"/><path d="M249.1145,158.71337h42.12204c0,0 -0.09507,2.59357 -0.64948,3.52732c-0.4755,0.80085 -2.47677,1.73793 -2.47677,1.73793h-36.19863c0,0 -1.52569,-0.99419 -1.93475,-1.76419c-0.50355,-0.94786 -0.86242,-3.50107 -0.86242,-3.50107z" fill="url(#color-23)" stroke="url(#color-24)" stroke-width="1.5" stroke-linecap="butt"/><path d="M245.27327,163.33901v-8.69862h33.30934v8.69862z" fill-opacity="0.53453" fill="#000000" stroke="#a60000" stroke-width="0" stroke-linecap="butt"/><text transform="translate(245.70712,161.61522) scale(0.21839,0.21839)" font-size="40" xml:space="preserve" fill="#ffffff" fill-rule="nonzero" stroke="#000000" stroke-width="0" stroke-linecap="butt" stroke-linejoin="miter" stroke-miterlimit="10" stroke-dasharray="" stroke-dashoffset="0" font-family="Serif" font-weight="normal" text-anchor="start" style="mix-blend-mode: normal"><tspan x="0" dy="0">Complex</tspan></text></g></g></svg>