<svg version="1.1" xmlns="http://www.w3.org/2000/svg" xmlns:xlink="http://www.w3.org/1999/xlink" width="181.14398" height="135.43754" viewBox="0,0,181.14398,135.43754"><defs><linearGradient x1="264.59985" y1="182.63686" x2="194.00636" y2="219.8342" gradientUnits="userSpaceOnUse" id="color-1"><stop offset="0" stop-color="#464646"/><stop offset="1" stop-color="#353535"/></linearGradient><linearGradient x1="260.06724" y1="135.14656" x2="169.75891" y2="204.77302" gradientUnits="userSpaceOnUse" id="color-2"><stop offset="0" stop-color="#171717"/><stop offset="1" stop-color="#191919"/></linearGradient><linearGradient x1="253.75906" y1="129.54313" x2="176.73617" y2="212.05645" gradientUnits="userSpaceOnUse" id="color-3"><stop offset="0" stop-color="#383838"/><stop offset="1" stop-color="#262626"/></linearGradient><linearGradient x1="164.02269" y1="187.18858" x2="198.45166" y2="187.18858" gradientUnits="userSpaceOnUse" id="color-4"><stop offset="0" stop-color="#636363"/><stop offset="1" stop-color="#494949"/></linearGradient><linearGradient x1="149.428" y1="232.49066" x2="192.93711" y2="232.49066" gradientUnits="userSpaceOnUse" id="color-5"><stop offset="0" stop-color="#555555"/><stop offset="1" stop-color="#424242"/></linearGradient><linearGradient x1="241.69725" y1="141.99948" x2="239.30604" y2="143.84307" gradientUnits="userSpaceOnUse" id="color-6"><stop offset="0" stop-color="#171717"/><stop offset="1" stop-color="#191919"/></linearGradient><linearGradient x1="225.3611" y1="159.12733" x2="222.96989" y2="160.97092" gradientUnits="userSpaceOnUse" id="color-7"><stop offset="0" stop-color="#171717"/><stop offset="1" stop-color="#191919"/></linearGradient><linearGradient x1="209.43727" y1="175.74022" x2="207.04606" y2="177.58381" gradientUnits="userSpaceOnUse" id="color-8"><stop offset="0" stop-color="#171717"/><stop offset="1" stop-color="#191919"/></linearGradient><linearGradient x1="191.70517" y1="193.94433" x2="189.31397" y2="195.78792" gradientUnits="userSpaceOnUse" id="color-9"><stop offset="0" stop-color="#171717"/><stop offset="1" stop-color="#191919"/></linearGradient><linearGradient x1="197.04265" y1="218.74969" x2="192.20195" y2="221.30037" gradientUnits="userSpaceOnUse" id="color-10"><stop offset="0" stop-color="#464646"/><stop offset="1" stop-color="#353535"/></linearGradient><linearGradient x1="184.41881" y1="108.95473" x2="308.94649" y2="155.67329" gradientUnits="userSpaceOnUse" id="color-11"><stop offset="0" stop-color="#555555"/><stop offset="1" stop-color="#515151"/></linearGradient><linearGradient x1="290.80905" y1="135.09538" x2="311.53546" y2="167.72334" gradientUnits="userSpaceOnUse" id="color-12"><stop offset="0" stop-color="#464646"/><stop offset="1" stop-color="#292929"/></linearGradient></defs><g transform="translate(-149.42801,-112.28123)"><g data-paper-data="{&quot;isPaintingLayer&quot;:true}" fill-rule="nonzero" stroke-linejoin="miter" stroke-miterlimit="10" stroke-dasharray="" stroke-dashoffset="0" style="mix-blend-mode: normal"><path d="M169.30904,238.53301l17.78772,-95.02386l31.21408,-13.80919l97.5662,3.72332c0,0 -10.51882,18.98731 -32.06414,36.67082c-22.28436,18.29008 -92.99966,53.31131 -92.99966,53.31131z" fill-opacity="0.01033" fill="#ffffff" stroke="#000000" stroke-width="0" stroke-linecap="butt"/><path d="M194.21891,220.23759l75.50171,-41.00412" fill="none" stroke="url(#color-1)" stroke-width="3" stroke-linecap="round"/><path d="M170.55952,205.81144l77.66917,-80.65711l9.70967,7.23099l-78.55595,84.08771z" fill="none" stroke="url(#color-2)" stroke-width="3" stroke-linecap="butt"/><path d="M174.26077,209.74576l77.02289,-82.51332l3.92501,2.27292l-78.68935,83.40572z" fill="url(#color-3)" stroke="#160000" stroke-width="0" stroke-linecap="butt"/><path d="M164.02269,241.09781l21.8767,-110.30789l12.55228,2.48942l-21.8767,110.30788z" fill="url(#color-4)" stroke="none" stroke-width="0" stroke-linecap="butt"/><path d="M150.6711,247.71877l-1.24309,-23.6188c0,0 1.76784,-3.63248 2.79696,-4.6616c1.02912,-1.02912 4.35083,-2.17542 4.35083,-2.17542h27.65885c0,0 3.61197,-0.05866 6.21547,1.24309c2.6035,1.30175 2.48619,2.79696 2.48619,2.79696l-1.24309,26.41576z" fill="url(#color-5)" stroke="#160000" stroke-width="0" stroke-linecap="butt"/><path d="M237.10292,139.03788l6.79743,7.76677" fill="none" stroke="url(#color-6)" stroke-width="3" stroke-linecap="round"/><path d="M220.92528,155.84645l6.48041,8.40536" fill="none" stroke="url(#color-7)" stroke-width="3" stroke-linecap="round"/><path d="M204.55705,172.4078l7.36924,8.50843" fill="none" stroke="url(#color-8)" stroke-width="3" stroke-linecap="round"/><path d="M187.23777,190.8849l6.54362,7.96245" fill="none" stroke="url(#color-9)" stroke-width="3" stroke-linecap="round"/><path d="M189.43873,216.05628l4.8407,-2.55068l5.52646,10.48818l-4.8407,2.55068z" fill="#212121" stroke="url(#color-10)" stroke-width="0" stroke-linecap="butt"/><path d="M179.84392,134.35799l2.11226,-18.83915l131.56519,14.7512l-2.11226,18.83915z" fill="url(#color-11)" stroke="none" stroke-width="0" stroke-linecap="butt"/><path d="M326.72356,112.28123c0,0 3.97202,8.35096 3.84547,12.32318c-0.15143,4.75349 -4.69284,14.27705 -4.69284,14.27705l-32.58119,40.39794c0,0 -12.34176,9.059 -22.48214,2.62905c-7.59061,-4.81315 4.88999,-16.41798 4.14426,-17.01942c-0.3363,-0.27122 32.11391,-38.31327 32.11391,-38.31327z" fill="url(#color-12)" stroke="#160000" stroke-width="0" stroke-linecap="butt"/></g></g></svg>