<svg version="1.1" xmlns="http://www.w3.org/2000/svg" xmlns:xlink="http://www.w3.org/1999/xlink" width="62.17399" height="65.47224" viewBox="0,0,62.17399,65.47224"><defs><linearGradient x1="240.00006" y1="149.01388" x2="240.00006" y2="210.98612" gradientUnits="userSpaceOnUse" id="color-1"><stop offset="0" stop-color="#000000"/><stop offset="1" stop-color="#171717"/></linearGradient><linearGradient x1="240.00006" y1="149.01388" x2="240.00006" y2="210.98612" gradientUnits="userSpaceOnUse" id="color-2"><stop offset="0" stop-color="#a2a2a2"/><stop offset="1" stop-color="#8b8b8b"/></linearGradient><radialGradient cx="240.00001" cy="180" r="29.69285" gradientUnits="userSpaceOnUse" id="color-3"><stop offset="0" stop-color="#ffffff" stop-opacity="0.35484"/><stop offset="1" stop-color="#ffffff" stop-opacity="0"/></radialGradient><linearGradient x1="240.00001" y1="150.47212" x2="240.00001" y2="209.52789" gradientUnits="userSpaceOnUse" id="color-4"><stop offset="0" stop-color="#cccccc"/><stop offset="1" stop-color="#898989"/></linearGradient><radialGradient cx="238.96423" cy="201.37076" r="22.57159" gradientUnits="userSpaceOnUse" id="color-5"><stop offset="0" stop-color="#3c3c3c"/><stop offset="1" stop-color="#939393"/></radialGradient><linearGradient x1="240.18759" y1="179.68432" x2="240.18759" y2="186.53537" gradientUnits="userSpaceOnUse" id="color-6"><stop offset="0" stop-color="#696969"/><stop offset="1" stop-color="#a0a0a0"/></linearGradient><radialGradient cx="236.15157" cy="157.03212" r="13.11833" gradientUnits="userSpaceOnUse" id="color-7"><stop offset="0" stop-color="#dcdcdc"/><stop offset="1" stop-color="#a0a0a0"/></radialGradient><radialGradient cx="237.62774" cy="162.5334" r="11.33664" gradientUnits="userSpaceOnUse" id="color-8"><stop offset="0" stop-color="#ffc4c4"/><stop offset="1" stop-color="#ff2121"/></radialGradient><linearGradient x1="240.00006" y1="149.01388" x2="240.00006" y2="210.98612" gradientUnits="userSpaceOnUse" id="color-9"><stop offset="0" stop-color="#cccccc"/><stop offset="1" stop-color="#898989"/></linearGradient></defs><g transform="translate(-208.91304,-147.26388)"><g data-paper-data="{&quot;isPaintingLayer&quot;:true}" fill-rule="nonzero" stroke-linecap="butt" stroke-linejoin="miter" stroke-miterlimit="10" stroke-dasharray="" stroke-dashoffset="0" style="mix-blend-mode: normal"><path d="M210.66305,210.98612v-61.97223h58.67399v61.97223z" fill="url(#color-1)" stroke="url(#color-2)" stroke-width="0"/><path d="M269.69286,180c0,16.3078 -13.29394,29.52789 -29.69285,29.52789c-16.39891,0 -29.69285,-13.22009 -29.69285,-29.52788c0,-16.3078 13.29394,-29.52788 29.69285,-29.52788c16.39891,0 29.69285,13.22009 29.69285,29.52789z" fill="url(#color-3)" stroke="url(#color-4)" stroke-width="0"/><path d="M223.99651,178.79917h29.93538v31.99302c-2.2911,0.40228 -4.64482,0.53409 -7.02303,0.56536c-5.42818,-0.21507 -10.87088,-0.30509 -16.27707,-0.44024c-1.92414,-0.0481 -4.24577,-0.31241 -6.63528,-0.46667z" fill="url(#color-5)" stroke="#ed6b00" stroke-width="0"/><g stroke-width="0"><path d="M236.35951,186.53537v-6.85104h7.65615v6.85104z" fill="url(#color-6)" stroke="#000000"/><path d="M253.24918,167.26173c0,7.73092 -5.73774,13.99807 -12.8156,13.99807c-7.07786,0 -12.8156,-6.26715 -12.8156,-13.99807c0,-7.73092 5.73774,-13.99806 12.8156,-13.99806c7.07786,0 12.8156,6.26714 12.8156,13.99806z" fill="url(#color-7)" stroke="none"/><path d="M252.35234,166.09029c0,4.88691 0.04417,10.71868 -11.03968,11.34206c-12.38261,0.69642 -11.62457,-6.45514 -11.62457,-11.34206c0,-4.88691 5.07357,-8.84854 11.33213,-8.84854c6.25856,0 11.33213,3.96163 11.33213,8.84854z" data-paper-data="{&quot;index&quot;:null}" fill="url(#color-8)" stroke="#ed6b00"/></g><path d="" fill="#494949" stroke="#000000" stroke-width="0"/><g stroke="#000000" stroke-width="0"><path d="" data-paper-data="{&quot;index&quot;:null}" fill="#141415"/><path d="" data-paper-data="{&quot;index&quot;:null}" fill="#252527"/></g><g data-paper-data="{&quot;index&quot;:null}" stroke="#000000" stroke-width="0"><path d="" data-paper-data="{&quot;index&quot;:null}" fill="#141415"/><path d="" data-paper-data="{&quot;index&quot;:null}" fill="#252527"/></g><g stroke="#000000" stroke-width="0"><path d="M254.61433,206.14347c-0.14746,-0.83559 -0.41132,-3.58637 -0.57245,-4.44347c-0.38136,-2.02854 -0.84228,-4.02868 -1.04117,-5.2772c-0.42779,-2.68535 -0.87937,-6.09717 -0.87937,-6.09717c0,0 -0.69261,-6.70195 0.5431,-6.95809c7.22691,-1.49802 6.24788,6.04595 6.24788,6.04595c0,0 0.73605,4.86368 1.19088,7.71873c0.1851,1.16193 -0.36631,2.11076 -0.16035,3.91963c0.09233,0.81086 -0.0776,4.32835 -0.06576,6.47901c0.0048,0.87302 0.03524,1.66158 0.07853,2.35496c-1.01504,0.02057 -2.02699,0.18693 -2.99833,0.51071h-1.15469c-0.326,0.0815 -0.65353,0.15637 -0.98247,0.22511c0.0872,-1.17319 0.09659,-2.76471 -0.2058,-4.47817z" data-paper-data="{&quot;index&quot;:null}" fill="#bdbdbd"/><path d="" data-paper-data="{&quot;index&quot;:null}" fill="#5c4747"/></g><g stroke="#000000" stroke-width="0"><path d="M220.09858,207.61697c0.01714,-2.15062 -0.1441,-5.66852 -0.04977,-6.47915c0.21042,-1.80837 -0.33864,-2.75855 -0.15067,-3.92002c0.46186,-2.85393 1.20991,-7.71577 1.20991,-7.71577c0,0 -0.82804,-7.89609 6.67598,-6.37682c1.19796,0.24254 0.11272,7.30572 0.11272,7.30572c0,0 -0.45999,3.4107 -0.89441,6.09498c-0.20198,1.24802 -0.66783,3.24702 -1.05419,5.27461c-0.16324,0.8567 -0.43389,3.60682 -0.58341,4.44204c-0.29049,1.62264 -0.30086,3.13652 -0.22945,4.28911c-1.69441,-0.13005 -3.45098,-0.23023 -5.14764,-0.1797c0.05853,-0.7805 0.10267,-1.69813 0.11093,-2.73499z" fill="#bdbdbd"/><path d="" data-paper-data="{&quot;index&quot;:null}" fill="#5c4747"/></g><g stroke-width="0"><path d="M229.72686,206.26359c-0.35317,-3.65847 -1.40473,-6.95919 -1.56162,-9.45339c-0.29447,-4.68133 -0.2105,-13.38223 -0.2105,-13.38223c0,0 3.69178,-0.58477 5.4694,-0.21857c2.26281,0.46615 7.00656,2.78867 7.00656,2.78867c0,0 3.67689,-2.17061 5.59031,-2.58687c2.01891,-0.43921 6.22369,0.01677 6.22369,0.01677c0,0 -0.06905,9.21711 -0.22689,12.65629c-0.13965,3.04285 -0.88957,6.36811 -1.18346,10.87293c-0.08962,1.37366 -0.13914,2.84673 -0.16446,4.24014c-1.24296,0.09868 -2.49853,0.14361 -3.76099,0.16021c-5.42818,-0.21507 -10.87088,-0.30509 -16.27707,-0.44024c-0.19713,-0.00493 -0.39843,-0.01213 -0.60354,-0.02124c-0.05585,-1.46312 -0.14916,-3.05533 -0.30142,-4.63247z" fill="#d0d0d0" stroke="#292e32"/><path d="M243.17564,194.1231l-0.12126,-5.82045l7.63934,0.36378v5.21415z" fill="#ff0000" stroke="none"/></g><path d="M210.66305,210.98612v-61.97224h58.67399v61.97224z" fill="none" stroke="url(#color-9)" stroke-width="3.5"/><path d="M214.22299,161.65856v-8.69862h27.02254v8.69862z" fill-opacity="0.53453" fill="#000000" stroke="#a60000" stroke-width="0"/><text transform="translate(214.65684,159.93473) scale(0.21839,0.21839)" font-size="40" xml:space="preserve" fill="#ffffff" fill-rule="nonzero" stroke="none" stroke-width="1" stroke-linecap="butt" stroke-linejoin="miter" stroke-miterlimit="10" stroke-dasharray="" stroke-dashoffset="0" font-family="Serif" font-weight="normal" text-anchor="start" style="mix-blend-mode: normal"><tspan x="0" dy="0">Worker</tspan></text></g></g></svg>