<svg version="1.1" xmlns="http://www.w3.org/2000/svg" xmlns:xlink="http://www.w3.org/1999/xlink" width="141.2279" height="134.98" viewBox="0,0,141.2279,134.98"><defs><linearGradient x1="240.2575" y1="48.58078" x2="240.2575" y2="179.45452" gradientUnits="userSpaceOnUse" id="color-1"><stop offset="0" stop-color="#000000" stop-opacity="0"/><stop offset="1" stop-color="#000000" stop-opacity="0"/></linearGradient><linearGradient x1="240.00005" y1="175.79953" x2="240.00005" y2="179.89953" gradientUnits="userSpaceOnUse" id="color-2"><stop offset="0" stop-color="#48423e"/><stop offset="1" stop-color="#272727"/></linearGradient><radialGradient cx="240.00004" cy="177.84953" r="27.4" gradientUnits="userSpaceOnUse" id="color-3"><stop offset="0" stop-color="#272727"/><stop offset="1" stop-color="#272727" stop-opacity="0"/></radialGradient><linearGradient x1="230.86224" y1="168.01668" x2="249.13786" y2="168.01668" gradientUnits="userSpaceOnUse" id="color-4"><stop offset="0" stop-color="#818391"/><stop offset="1" stop-color="#73717a"/></linearGradient><linearGradient x1="240.00005" y1="166.24737" x2="240.00005" y2="169.78599" gradientUnits="userSpaceOnUse" id="color-5"><stop offset="0" stop-color="#1a1a1a"/><stop offset="1" stop-color="#000000"/></linearGradient><linearGradient x1="232.82034" y1="171.64376" x2="247.17976" y2="171.64376" gradientUnits="userSpaceOnUse" id="color-6"><stop offset="0" stop-color="#818391"/><stop offset="1" stop-color="#73717a"/></linearGradient><linearGradient x1="240.00005" y1="169.87445" x2="240.00005" y2="173.41307" gradientUnits="userSpaceOnUse" id="color-7"><stop offset="0" stop-color="#1a1a1a"/><stop offset="1" stop-color="#000000"/></linearGradient><linearGradient x1="236.14913" y1="175.18238" x2="243.85097" y2="175.18238" gradientUnits="userSpaceOnUse" id="color-8"><stop offset="0" stop-color="#818391"/><stop offset="1" stop-color="#73717a"/></linearGradient><linearGradient x1="240.00005" y1="173.41307" x2="240.00005" y2="176.95169" gradientUnits="userSpaceOnUse" id="color-9"><stop offset="0" stop-color="#1a1a1a"/><stop offset="1" stop-color="#000000"/></linearGradient><linearGradient x1="239.06004" y1="171.59953" x2="240.94006" y2="171.59953" gradientUnits="userSpaceOnUse" id="color-10"><stop offset="0" stop-color="#757784"/><stop offset="1" stop-color="#4d4c51"/></linearGradient><linearGradient x1="240.00005" y1="170.776" x2="240.00005" y2="172.42306" gradientUnits="userSpaceOnUse" id="color-11"><stop offset="0" stop-color="#1a1a1a"/><stop offset="1" stop-color="#000000"/></linearGradient><linearGradient x1="235.57965" y1="171.59953" x2="237.28569" y2="171.59953" gradientUnits="userSpaceOnUse" id="color-12"><stop offset="0" stop-color="#757784"/><stop offset="1" stop-color="#4d4c51"/></linearGradient><linearGradient x1="236.43271" y1="170.776" x2="236.43271" y2="172.42306" gradientUnits="userSpaceOnUse" id="color-13"><stop offset="0" stop-color="#1a1a1a"/><stop offset="1" stop-color="#000000"/></linearGradient><linearGradient x1="242.62738" y1="171.59953" x2="244.33341" y2="171.59953" gradientUnits="userSpaceOnUse" id="color-14"><stop offset="0" stop-color="#757784"/><stop offset="1" stop-color="#4d4c51"/></linearGradient><linearGradient x1="243.48044" y1="170.776" x2="243.48044" y2="172.42306" gradientUnits="userSpaceOnUse" id="color-15"><stop offset="0" stop-color="#1a1a1a"/><stop offset="1" stop-color="#000000"/></linearGradient><linearGradient x1="246.25274" y1="171.59953" x2="247.66875" y2="171.59953" gradientUnits="userSpaceOnUse" id="color-16"><stop offset="0" stop-color="#757784"/><stop offset="1" stop-color="#4d4c51"/></linearGradient><linearGradient x1="246.96074" y1="170.776" x2="246.96074" y2="172.42306" gradientUnits="userSpaceOnUse" id="color-17"><stop offset="0" stop-color="#1a1a1a"/><stop offset="1" stop-color="#000000"/></linearGradient><linearGradient x1="232.33135" y1="171.59953" x2="233.74736" y2="171.59953" gradientUnits="userSpaceOnUse" id="color-18"><stop offset="0" stop-color="#757784"/><stop offset="1" stop-color="#4d4c51"/></linearGradient><linearGradient x1="233.03936" y1="170.776" x2="233.03936" y2="172.42306" gradientUnits="userSpaceOnUse" id="color-19"><stop offset="0" stop-color="#1a1a1a"/><stop offset="1" stop-color="#000000"/></linearGradient><linearGradient x1="239.19158" y1="175.23111" x2="240.80852" y2="175.23111" gradientUnits="userSpaceOnUse" id="color-20"><stop offset="0" stop-color="#757784"/><stop offset="1" stop-color="#4d4c51"/></linearGradient><linearGradient x1="240.00005" y1="174.40758" x2="240.00005" y2="176.05464" gradientUnits="userSpaceOnUse" id="color-21"><stop offset="0" stop-color="#1a1a1a"/><stop offset="1" stop-color="#000000"/></linearGradient><linearGradient x1="235.57965" y1="175.23111" x2="236.96989" y2="175.23111" gradientUnits="userSpaceOnUse" id="color-22"><stop offset="0" stop-color="#757784"/><stop offset="1" stop-color="#4d4c51"/></linearGradient><linearGradient x1="236.27476" y1="174.40758" x2="236.27476" y2="176.05464" gradientUnits="userSpaceOnUse" id="color-23"><stop offset="0" stop-color="#1a1a1a"/><stop offset="1" stop-color="#000000"/></linearGradient><linearGradient x1="243.25229" y1="175.23111" x2="244.64252" y2="175.23111" gradientUnits="userSpaceOnUse" id="color-24"><stop offset="0" stop-color="#757784"/><stop offset="1" stop-color="#4d4c51"/></linearGradient><linearGradient x1="243.9474" y1="174.40758" x2="243.9474" y2="176.05464" gradientUnits="userSpaceOnUse" id="color-25"><stop offset="0" stop-color="#1a1a1a"/><stop offset="1" stop-color="#000000"/></linearGradient><linearGradient x1="238.82491" y1="168.02655" x2="241.17511" y2="168.02655" gradientUnits="userSpaceOnUse" id="color-26"><stop offset="0" stop-color="#757784"/><stop offset="1" stop-color="#4d4c51"/></linearGradient><linearGradient x1="240.00005" y1="167.20302" x2="240.00005" y2="168.85008" gradientUnits="userSpaceOnUse" id="color-27"><stop offset="0" stop-color="#1a1a1a"/><stop offset="1" stop-color="#000000"/></linearGradient><linearGradient x1="235.46701" y1="168.02964" x2="237.21656" y2="168.02964" gradientUnits="userSpaceOnUse" id="color-28"><stop offset="0" stop-color="#757784"/><stop offset="1" stop-color="#4d4c51"/></linearGradient><linearGradient x1="236.34183" y1="167.20611" x2="236.34183" y2="168.85317" gradientUnits="userSpaceOnUse" id="color-29"><stop offset="0" stop-color="#1a1a1a"/><stop offset="1" stop-color="#000000"/></linearGradient><linearGradient x1="242.69427" y1="168.02964" x2="244.44382" y2="168.02964" gradientUnits="userSpaceOnUse" id="color-30"><stop offset="0" stop-color="#757784"/><stop offset="1" stop-color="#4d4c51"/></linearGradient><linearGradient x1="243.56909" y1="167.20611" x2="243.56909" y2="168.85317" gradientUnits="userSpaceOnUse" id="color-31"><stop offset="0" stop-color="#1a1a1a"/><stop offset="1" stop-color="#000000"/></linearGradient><linearGradient x1="246.29142" y1="168.02964" x2="247.74351" y2="168.02964" gradientUnits="userSpaceOnUse" id="color-32"><stop offset="0" stop-color="#757784"/><stop offset="1" stop-color="#4d4c51"/></linearGradient><linearGradient x1="247.01742" y1="167.20611" x2="247.01742" y2="168.85317" gradientUnits="userSpaceOnUse" id="color-33"><stop offset="0" stop-color="#1a1a1a"/><stop offset="1" stop-color="#000000"/></linearGradient><linearGradient x1="232.25659" y1="168.02964" x2="233.70868" y2="168.02964" gradientUnits="userSpaceOnUse" id="color-34"><stop offset="0" stop-color="#757784"/><stop offset="1" stop-color="#4d4c51"/></linearGradient><linearGradient x1="232.98261" y1="167.20611" x2="232.98261" y2="168.85317" gradientUnits="userSpaceOnUse" id="color-35"><stop offset="0" stop-color="#1a1a1a"/><stop offset="1" stop-color="#000000"/></linearGradient><linearGradient x1="249.02048" y1="168.02964" x2="249.88938" y2="168.02964" gradientUnits="userSpaceOnUse" id="color-36"><stop offset="0" stop-color="#757784"/><stop offset="1" stop-color="#4d4c51"/></linearGradient><linearGradient x1="249.45492" y1="167.20611" x2="249.45492" y2="168.85317" gradientUnits="userSpaceOnUse" id="color-37"><stop offset="0" stop-color="#1a1a1a"/><stop offset="1" stop-color="#000000"/></linearGradient><linearGradient x1="230.10743" y1="168.02965" x2="230.97632" y2="168.02965" gradientUnits="userSpaceOnUse" id="color-38"><stop offset="0" stop-color="#757784"/><stop offset="1" stop-color="#4d4c51"/></linearGradient><linearGradient x1="230.54187" y1="167.20612" x2="230.54187" y2="168.85318" gradientUnits="userSpaceOnUse" id="color-39"><stop offset="0" stop-color="#1a1a1a"/><stop offset="1" stop-color="#000000"/></linearGradient><linearGradient x1="227.32321" y1="52.68234" x2="227.32321" y2="62.55518" gradientUnits="userSpaceOnUse" id="color-40"><stop offset="0" stop-color="#1a1a1a"/><stop offset="1" stop-color="#000000"/></linearGradient><linearGradient x1="252.74201" y1="52.07276" x2="252.74201" y2="61.94561" gradientUnits="userSpaceOnUse" id="color-41"><stop offset="0" stop-color="#1a1a1a"/><stop offset="1" stop-color="#000000"/></linearGradient><linearGradient x1="236.63428" y1="125.99817" x2="243.36582" y2="125.99817" gradientUnits="userSpaceOnUse" id="color-42"><stop offset="0" stop-color="#9e9e9e"/><stop offset="1" stop-color="#696969"/></linearGradient><linearGradient x1="236.63428" y1="125.99817" x2="243.36583" y2="125.99817" gradientUnits="userSpaceOnUse" id="color-43"><stop offset="0" stop-color="#1a1a1a"/><stop offset="1" stop-color="#000000"/></linearGradient><linearGradient x1="231.24835" y1="74.45301" x2="248.75175" y2="74.45301" gradientUnits="userSpaceOnUse" id="color-44"><stop offset="0" stop-color="#b06612"/><stop offset="1" stop-color="#8c5119"/></linearGradient><linearGradient x1="231.24835" y1="74.45301" x2="248.75175" y2="74.45301" gradientUnits="userSpaceOnUse" id="color-45"><stop offset="0" stop-color="#1a1a1a"/><stop offset="1" stop-color="#000000"/></linearGradient><linearGradient x1="201.82983" y1="112.88587" x2="277.61494" y2="112.88587" gradientUnits="userSpaceOnUse" id="color-46"><stop offset="0" stop-color="#b1b1b1"/><stop offset="1" stop-color="#8c8c8c"/></linearGradient><linearGradient x1="239.72238" y1="46.63325" x2="239.72238" y2="179.13848" gradientUnits="userSpaceOnUse" id="color-47"><stop offset="0" stop-color="#1a1a1a"/><stop offset="1" stop-color="#000000"/></linearGradient><linearGradient x1="169.98044" y1="174.63112" x2="198.29761" y2="174.63112" gradientUnits="userSpaceOnUse" id="color-48"><stop offset="0" stop-color="#ff0000"/><stop offset="1" stop-color="#650000"/></linearGradient><linearGradient x1="169.98044" y1="174.63112" x2="198.29761" y2="174.63112" gradientUnits="userSpaceOnUse" id="color-49"><stop offset="0" stop-color="#1a1a1a"/><stop offset="1" stop-color="#000000"/></linearGradient><linearGradient x1="280.89115" y1="174.99981" x2="309.20833" y2="174.99981" gradientUnits="userSpaceOnUse" id="color-50"><stop offset="0" stop-color="#0005ff"/><stop offset="1" stop-color="#000a8e"/></linearGradient><linearGradient x1="280.89115" y1="174.99981" x2="309.20833" y2="174.99981" gradientUnits="userSpaceOnUse" id="color-51"><stop offset="0" stop-color="#1a1a1a"/><stop offset="1" stop-color="#000000"/></linearGradient><linearGradient x1="171.41266" y1="108.28606" x2="200.72061" y2="108.28606" gradientUnits="userSpaceOnUse" id="color-52"><stop offset="0" stop-color="#1a1a1a"/><stop offset="1" stop-color="#000000"/></linearGradient><linearGradient x1="172.12747" y1="108.7482" x2="200.36323" y2="108.7482" gradientUnits="userSpaceOnUse" id="color-53"><stop offset="0" stop-color="#1a1a1a"/><stop offset="1" stop-color="#000000"/></linearGradient><linearGradient x1="278.54179" y1="108.80845" x2="307.84979" y2="108.80845" gradientUnits="userSpaceOnUse" id="color-54"><stop offset="0" stop-color="#1a1a1a"/><stop offset="1" stop-color="#000000"/></linearGradient><linearGradient x1="279.12359" y1="109.2706" x2="307.35931" y2="109.2706" gradientUnits="userSpaceOnUse" id="color-55"><stop offset="0" stop-color="#1a1a1a"/><stop offset="1" stop-color="#000000"/></linearGradient><linearGradient x1="231.58646" y1="103.27864" x2="236.29849" y2="103.27864" gradientUnits="userSpaceOnUse" id="color-56"><stop offset="0" stop-color="#1a1a1a"/><stop offset="1" stop-color="#000000"/></linearGradient><linearGradient x1="243.70313" y1="103.27864" x2="248.63956" y2="103.27864" gradientUnits="userSpaceOnUse" id="color-57"><stop offset="0" stop-color="#1a1a1a"/><stop offset="1" stop-color="#000000"/></linearGradient><linearGradient x1="231.64529" y1="92.2423" x2="248.682" y2="92.2423" gradientUnits="userSpaceOnUse" id="color-58"><stop offset="0" stop-color="#1a1a1a"/><stop offset="1" stop-color="#000000"/></linearGradient><linearGradient x1="231.64529" y1="89.14473" x2="248.37219" y2="89.14473" gradientUnits="userSpaceOnUse" id="color-59"><stop offset="0" stop-color="#1a1a1a"/><stop offset="1" stop-color="#000000"/></linearGradient><linearGradient x1="227.92824" y1="161.60981" x2="252.55395" y2="161.60981" gradientUnits="userSpaceOnUse" id="color-60"><stop offset="0" stop-color="#b06612"/><stop offset="1" stop-color="#8c5119"/></linearGradient><linearGradient x1="227.92824" y1="159.85882" x2="252.55395" y2="159.85882" gradientUnits="userSpaceOnUse" id="color-61"><stop offset="0" stop-color="#1a1a1a"/><stop offset="1" stop-color="#000000"/></linearGradient><linearGradient x1="228.2188" y1="163.1616" x2="251.81882" y2="163.1616" gradientUnits="userSpaceOnUse" id="color-62"><stop offset="0" stop-color="#1a1a1a"/><stop offset="1" stop-color="#000000"/></linearGradient></defs><g transform="translate(-168.98044,-45.72453)"><g data-paper-data="{&quot;isPaintingLayer&quot;:true}" fill-rule="nonzero" stroke-linejoin="miter" stroke-miterlimit="10" stroke-dasharray="" stroke-dashoffset="0" style="mix-blend-mode: normal"><path d="M204.116,179.45452v-130.87374h72.28306v130.87374z" fill-opacity="0.00392" fill="#ffffff" stroke="url(#color-1)" stroke-width="2.5" stroke-linecap="butt"/><path d="M240.00005,179.89953c-15.1326,0 -27.4,-0.91782 -27.4,-2.05c0,-1.13218 12.2674,-2.05 27.4,-2.05c15.1326,0 27.4,0.91782 27.4,2.05c0,1.13218 -12.2674,2.05 -27.4,2.05z" fill="url(#color-2)" stroke="#181614" stroke-width="1" stroke-linecap="butt"/><path d="M240.00004,179.89953c-15.1326,0 -27.4,-0.91782 -27.4,-2.05c0,-1.13218 12.2674,-2.05 27.4,-2.05c15.1326,0 27.4,0.91781 27.4,2.05c0,1.13218 -12.2674,2.05 -27.4,2.05z" fill="url(#color-3)" stroke="#181614" stroke-width="0" stroke-linecap="butt"/><path d="M230.86224,169.78599v-3.53862h18.27568v3.53862z" fill="url(#color-4)" stroke="url(#color-5)" stroke-width="0.5" stroke-linecap="butt"/><path d="M232.82034,173.41307v-3.53862h14.35946v3.53862z" fill="url(#color-6)" stroke="url(#color-7)" stroke-width="0.5" stroke-linecap="butt"/><path d="M236.14913,176.95169v-3.53862h7.70189v3.53862z" fill="url(#color-8)" stroke="url(#color-9)" stroke-width="0.5" stroke-linecap="butt"/><path d="M239.06004,172.42306v-1.64706h1.88008v1.64706z" fill="url(#color-10)" stroke="url(#color-11)" stroke-width="0.25" stroke-linecap="butt"/><path d="M235.57965,172.42306v-1.64706h1.70606v1.64706z" fill="url(#color-12)" stroke="url(#color-13)" stroke-width="0.25" stroke-linecap="butt"/><path d="M242.62738,172.42306v-1.64706h1.70606v1.64706z" fill="url(#color-14)" stroke="url(#color-15)" stroke-width="0.25" stroke-linecap="butt"/><path d="M246.25274,172.42306v-1.64706h1.41603v1.64706z" fill="url(#color-16)" stroke="url(#color-17)" stroke-width="0.25" stroke-linecap="butt"/><path d="M232.33135,172.42306v-1.64706h1.41603v1.64706z" fill="url(#color-18)" stroke="url(#color-19)" stroke-width="0.25" stroke-linecap="butt"/><path d="M239.19158,176.05464v-1.64706h1.61692v1.64706z" fill="url(#color-20)" stroke="url(#color-21)" stroke-width="0.25" stroke-linecap="butt"/><path d="M235.57965,176.05464v-1.64706h1.39027v1.64706z" fill="url(#color-22)" stroke="url(#color-23)" stroke-width="0.25" stroke-linecap="butt"/><path d="M243.25229,176.05464v-1.64706h1.39026v1.64706z" fill="url(#color-24)" stroke="url(#color-25)" stroke-width="0.25" stroke-linecap="butt"/><path d="M238.82491,168.85008v-1.64706h2.35023v1.64706z" fill="url(#color-26)" stroke="url(#color-27)" stroke-width="0.25" stroke-linecap="butt"/><path d="M235.46701,168.85317v-1.64706h1.74952v1.64706z" fill="url(#color-28)" stroke="url(#color-29)" stroke-width="0.25" stroke-linecap="butt"/><path d="M242.69427,168.85317v-1.64706h1.74951v1.64706z" fill="url(#color-30)" stroke="url(#color-31)" stroke-width="0.25" stroke-linecap="butt"/><path d="M246.29142,168.85317v-1.64706h1.4521v1.64706z" fill="url(#color-32)" stroke="url(#color-33)" stroke-width="0.25" stroke-linecap="butt"/><path d="M232.25659,168.85317v-1.64706h1.4521v1.64706z" fill="url(#color-34)" stroke="url(#color-35)" stroke-width="0.25" stroke-linecap="butt"/><path d="M249.02048,168.85317v-1.64706h0.8689v1.64706z" fill="url(#color-36)" stroke="url(#color-37)" stroke-width="0.25" stroke-linecap="butt"/><path d="M230.10743,168.85318v-1.64706h0.86889v1.64706z" fill="url(#color-38)" stroke="url(#color-39)" stroke-width="0.25" stroke-linecap="butt"/><path d="M231.13768,62.55519l-7.62902,-9.87285" fill="none" stroke="url(#color-40)" stroke-width="1.5" stroke-linecap="round"/><path d="M256.55652,52.07276l-7.62902,9.87284" data-paper-data="{&quot;index&quot;:null}" fill="none" stroke="url(#color-41)" stroke-width="1.5" stroke-linecap="round"/><path d="M236.63428,157.46107v-62.92579h6.73149v62.92579z" fill="url(#color-42)" stroke="url(#color-43)" stroke-width="1.5" stroke-linecap="butt"/><path d="M231.24835,100.0975v-51.28897h17.50338v51.28897z" fill="url(#color-44)" stroke="url(#color-45)" stroke-width="1.5" stroke-linecap="butt"/><path d="M201.82983,179.13848v-132.50523h75.78518v132.50523h-3.6925c0,0 -1.45608,-70.61852 -2.3093,-91.95546c-0.41087,-10.27487 -2.54131,-29.34702 -2.54131,-29.34702c0,0 -4.40768,-4.86445 -28.86806,-4.86142c-21.0928,0.00262 -28.97619,4.90224 -28.97619,4.90224c0,0 -2.37258,16.97147 -2.91888,29.72588c-0.95003,22.1803 -2.27501,91.53578 -2.27501,91.53578z" fill="url(#color-46)" stroke="url(#color-47)" stroke-width="1.5" stroke-linecap="butt"/><path d="M169.98044,178.9752v-8.68817h28.31719v8.68817z" fill="url(#color-48)" stroke="url(#color-49)" stroke-width="2" stroke-linecap="butt"/><path d="M280.89115,179.14037v-8.28112h28.31719v8.28112z" fill="url(#color-50)" stroke="url(#color-51)" stroke-width="2" stroke-linecap="butt"/><path d="M171.41266,169.7514l16.08365,-122.9307l13.22433,1.38644l-3.93156,121.54427z" fill="none" stroke="url(#color-52)" stroke-width="2" stroke-linecap="round"/><path d="M172.12747,168.8271l24.66159,-12.01578l-21.44486,-13.86436l22.15969,-11.55364l-19.30038,-14.32651l20.01521,-8.78076l-16.79848,-12.47793l17.51331,-9.24291l-15.01141,-12.01578l16.44106,-10.62935l-13.58175,-11.55364l8.57795,-4.62145l4.28897,6.93218l-13.93916,10.1672l13.58175,11.55364l-16.44106,10.62935l15.72623,10.62935l-18.58555,10.1672l17.51331,12.47793l-20.37262,10.1672l19.65779,14.32651l-22.51711,10.1672l22.51711,14.78866" fill="none" stroke="url(#color-53)" stroke-width="2" stroke-linecap="round"/><path d="M282.47337,170.2738l-3.93156,-121.54426l13.22433,-1.38644l16.08365,122.9307z" data-paper-data="{&quot;index&quot;:null}" fill="none" stroke="url(#color-54)" stroke-width="2" stroke-linecap="round"/><path d="M282.69775,170.2738l22.5171,-14.78866l-22.5171,-10.1672l19.65779,-14.32651l-20.37262,-10.16721l17.51331,-12.47792l-18.58555,-10.1672l15.72623,-10.62935l-16.44106,-10.62934l13.58175,-11.55364l-13.93916,-10.1672l4.28897,-6.93218l8.57795,4.62145l-13.58174,11.55364l16.44106,10.62935l-15.0114,12.01578l17.51331,9.24291l-16.79848,12.47793l20.01521,8.78076l-19.30038,14.32651l22.1597,11.55364l-21.44486,13.86436l24.66159,12.01578" data-paper-data="{&quot;index&quot;:null}" fill="none" stroke="url(#color-55)" stroke-width="2" stroke-linecap="round"/><path d="M231.58646,100.36167l4.71204,5.83395" fill="none" stroke="url(#color-56)" stroke-width="1.5" stroke-linecap="round"/><path d="M248.63956,100.36167l-4.93642,5.83395" fill="none" stroke="url(#color-57)" stroke-width="1.5" stroke-linecap="round"/><path d="M231.6453,92.2423h17.03665" fill="none" stroke="url(#color-58)" stroke-width="1.5" stroke-linecap="round"/><path d="M248.37218,89.14473h-16.72689" fill="none" stroke="url(#color-59)" stroke-width="1.5" stroke-linecap="round"/><path d="M227.92824,165.82165v-8.42368c0,0 2.44803,-3.50198 12.4612,-3.50198c9.91427,0 12.1645,3.50198 12.1645,3.50198v8.42368z" fill="url(#color-60)" stroke="url(#color-61)" stroke-width="1" stroke-linecap="butt"/><path d="M228.21882,163.1616h23.6" fill="none" stroke="url(#color-62)" stroke-width="1.5" stroke-linecap="round"/></g></g></svg>