<svg version="1.1" xmlns="http://www.w3.org/2000/svg" xmlns:xlink="http://www.w3.org/1999/xlink" width="92.00001" height="92.00002" viewBox="0,0,92.00001,92.00002"><defs><radialGradient cx="240.00004" cy="180" r="46" gradientUnits="userSpaceOnUse" id="color-1"><stop offset="0" stop-color="#000000"/><stop offset="1" stop-color="#000000" stop-opacity="0"/></radialGradient><linearGradient x1="240.00004" y1="133.99999" x2="240.00004" y2="225.99998" gradientUnits="userSpaceOnUse" id="color-2"><stop offset="0" stop-color="#7f8782"/><stop offset="1" stop-color="#404543"/></linearGradient><radialGradient cx="240.00006" cy="180.00006" r="36.03334" gradientUnits="userSpaceOnUse" id="color-3"><stop offset="0" stop-color="#344848"/><stop offset="1" stop-color="#0f241d"/></radialGradient><linearGradient x1="240.00006" y1="143.96669" x2="240.00006" y2="216.03339" gradientUnits="userSpaceOnUse" id="color-4"><stop offset="0" stop-color="#6fa08f"/><stop offset="1" stop-color="#456b5a"/></linearGradient><linearGradient x1="232.58472" y1="161.80001" x2="232.58472" y2="204.80001" gradientUnits="userSpaceOnUse" id="color-5"><stop offset="0" stop-color="#b0ffe3"/><stop offset="1" stop-color="#8fffc7"/></linearGradient><linearGradient x1="232.58472" y1="161.80001" x2="232.58472" y2="204.80001" gradientUnits="userSpaceOnUse" id="color-6"><stop offset="0" stop-color="#b0ffe3"/><stop offset="1" stop-color="#8fffc7"/></linearGradient><linearGradient x1="238.28472" y1="159.4" x2="238.28472" y2="204.4" gradientUnits="userSpaceOnUse" id="color-7"><stop offset="0" stop-color="#b0ffe3"/><stop offset="1" stop-color="#8fffc7"/></linearGradient><linearGradient x1="238.28472" y1="159.4" x2="238.28472" y2="204.4" gradientUnits="userSpaceOnUse" id="color-8"><stop offset="0" stop-color="#b0ffe3"/><stop offset="1" stop-color="#8fffc7"/></linearGradient><linearGradient x1="231.68472" y1="182.20001" x2="231.68472" y2="188.10001" gradientUnits="userSpaceOnUse" id="color-9"><stop offset="0" stop-color="#b0ffe3"/><stop offset="1" stop-color="#8fffc7"/></linearGradient><linearGradient x1="239.98472" y1="188.31112" x2="239.98472" y2="205.20001" gradientUnits="userSpaceOnUse" id="color-10"><stop offset="0" stop-color="#b0ffe3"/><stop offset="1" stop-color="#8fffc7"/></linearGradient><linearGradient x1="229.08472" y1="184.0889" x2="229.08472" y2="205.20001" gradientUnits="userSpaceOnUse" id="color-11"><stop offset="0" stop-color="#b0ffe3"/><stop offset="1" stop-color="#8fffc7"/></linearGradient><linearGradient x1="233.17721" y1="166.80372" x2="233.75154" y2="175.00671" gradientUnits="userSpaceOnUse" id="color-12"><stop offset="0" stop-color="#b0ffe3"/><stop offset="1" stop-color="#8fffc7"/></linearGradient><linearGradient x1="255.67522" y1="158.40001" x2="255.67522" y2="171.00001" gradientUnits="userSpaceOnUse" id="color-13"><stop offset="0" stop-color="#b0ffe3"/><stop offset="1" stop-color="#8fffc7"/></linearGradient><linearGradient x1="260.58857" y1="161.20001" x2="260.58857" y2="198.60001" gradientUnits="userSpaceOnUse" id="color-14"><stop offset="0" stop-color="#b0ffe3"/><stop offset="1" stop-color="#8fffc7"/></linearGradient><linearGradient x1="230.18471" y1="154.80001" x2="230.18471" y2="161.60001" gradientUnits="userSpaceOnUse" id="color-15"><stop offset="0" stop-color="#b0ffe3"/><stop offset="1" stop-color="#8fffc7"/></linearGradient><linearGradient x1="228.98471" y1="189.60001" x2="228.98471" y2="192.60001" gradientUnits="userSpaceOnUse" id="color-16"><stop offset="0" stop-color="#b0ffe3"/><stop offset="1" stop-color="#8fffc7"/></linearGradient></defs><g transform="translate(-193.99999,-133.99999)"><g data-paper-data="{&quot;isPaintingLayer&quot;:true}" fill-rule="nonzero" stroke-linejoin="miter" stroke-miterlimit="10" stroke-dasharray="" stroke-dashoffset="0" style="mix-blend-mode: normal"><path d="M286,180c0,25.4051 -20.5949,46.00001 -46,46.00001c-25.4051,0 -46.00001,-20.59491 -46.00001,-46.00001c0,-25.4051 20.59491,-46.00001 46.00001,-46.00001c25.4051,0 46,20.59491 46,46.00001z" fill="url(#color-1)" stroke="url(#color-2)" stroke-width="0" stroke-linecap="butt"/><path d="M276.03336,180.00006c0,19.90067 -16.13267,36.03333 -36.03334,36.03333c-19.90067,0 -36.03333,-16.13267 -36.03333,-36.03333c0,-19.90067 16.13267,-36.03334 36.03333,-36.03334c19.90067,0 36.03334,16.13268 36.03334,36.03334z" fill="url(#color-3)" stroke="url(#color-4)" stroke-width="3" stroke-linecap="butt"/><path d="M218.42674,197.19745l-2.14203,-0.59744l2.4,-24.6c0,0 5.38269,-12.72052 17.4,-10.2c11.4812,2.40807 12.8,12.4 12.8,12.4l-3.2,30.6l-4.95475,-1.38193" fill="none" stroke="url(#color-5)" stroke-width="1.5" stroke-linecap="round"/><path d="M218.42674,197.19745l-2.14203,-0.59744l2.4,-24.6c0,0 5.38269,-12.72052 17.4,-10.2c11.4812,2.40807 12.8,12.4 12.8,12.4l-3.2,30.6l-4.95475,-1.38193" fill="none" stroke="url(#color-6)" stroke-width="1.5" stroke-linecap="round"/><path d="M219.28472,171.2c0,0 5.75191,-13.84805 20.8,-10.8c4.31409,0.87383 7.49338,2.28041 9.83638,3.87637" fill="none" stroke="url(#color-7)" stroke-width="1.5" stroke-linecap="round"/><path d="M255.75014,171.37177c0.72148,1.88555 0.73458,3.22824 0.73458,3.22824l-2.4,27.6l-8.2,2.8" fill="none" stroke="url(#color-8)" stroke-width="1.5" stroke-linecap="round"/><path d="M220.48472,183.72964l4.2,-1.52963l18.2,5.5" fill="none" stroke="url(#color-9)" stroke-width="1.5" stroke-linecap="round"/><path d="M239.48472,189.7889l3.2,-1.47778l-1.4,15.62222l-4,1.26667" fill="none" stroke="url(#color-10)" stroke-width="1.5" stroke-linecap="round"/><path d="M219.08472,199.38369l1.4,-15.29479l18.6,5.60091l-1.6,15.5102z" fill="none" stroke="url(#color-11)" stroke-width="1.5" stroke-linecap="round"/><path d="M234.30525,167.55741l3.2251,4.17798l-4.44445,3.53742l-2.85105,-4.42018z" fill="none" stroke="url(#color-12)" stroke-width="1.5" stroke-linecap="round"/><path d="M249.08472,165.40001c0,0 2.70891,-3.9377 3.50728,-5.09318c0.64063,-0.92719 2.71473,-1.90682 2.71473,-1.90682l5.15901,3.2c0,0 -1.9155,1.19227 -2.50362,2.07006c-0.81226,1.21232 -3.7184,10.32994 -3.7184,10.32994z" fill="none" stroke="url(#color-13)" stroke-width="1.5" stroke-linecap="round"/><path d="M260.62007,161.60001c0,0 2.20751,6.92362 2.79225,11.48364c0.43356,3.38105 0.75063,15.13838 -1.62389,21.81093c-2.34277,6.58336 -7.37469,8.10543 -7.37469,8.10543c0,0 3.69106,-6.94052 3.62366,-15c-0.05113,-6.11351 -1.474,-15 -1.474,-15" fill="none" stroke="url(#color-14)" stroke-width="1.5" stroke-linecap="round"/><path d="M225.88471,162.00001c0,0 0.77338,-2.48735 0.8458,-3.60995c0.05736,-0.88914 0.7542,-2.99005 0.7542,-2.99005l5.4,-0.6c0,0 0.99138,0.99487 1.08959,1.81325c0.10167,0.84729 -0.48959,3.18675 -0.48959,3.18675" fill="none" stroke="url(#color-15)" stroke-width="1.5" stroke-linecap="round"/><path d="M223.88471,189.60001l10.2,3" fill="none" stroke="url(#color-16)" stroke-width="1.5" stroke-linecap="round"/></g></g></svg>