<svg version="1.1" xmlns="http://www.w3.org/2000/svg" xmlns:xlink="http://www.w3.org/1999/xlink" width="943.14942" height="98.68853" viewBox="0,0,943.14942,98.68853"><defs><linearGradient x1="142.91278" y1="226.79989" x2="142.91278" y2="270.72766" gradientUnits="userSpaceOnUse" id="color-1"><stop offset="0" stop-color="#695f5b"/><stop offset="1" stop-color="#423937"/></linearGradient><linearGradient x1="682.85407" y1="226.7999" x2="682.85407" y2="270.72767" gradientUnits="userSpaceOnUse" id="color-2"><stop offset="0" stop-color="#695f5b"/><stop offset="1" stop-color="#423937"/></linearGradient><linearGradient x1="151.50341" y1="170.36636" x2="151.50341" y2="234.08655" gradientUnits="userSpaceOnUse" id="color-3"><stop offset="0" stop-color="#766461"/><stop offset="1" stop-color="#554c44"/></linearGradient><linearGradient x1="692.25341" y1="170.36637" x2="692.25341" y2="234.08655" gradientUnits="userSpaceOnUse" id="color-4"><stop offset="0" stop-color="#766461"/><stop offset="1" stop-color="#554c44"/></linearGradient></defs><g transform="translate(58.69129,-169.03914)"><g data-paper-data="{&quot;isPaintingLayer&quot;:true}" fill-rule="nonzero" stroke="none" stroke-width="0.5" stroke-linecap="butt" stroke-linejoin="miter" stroke-miterlimit="10" stroke-dasharray="" stroke-dashoffset="0" style="mix-blend-mode: normal"><path d="M215.13232,267.31508c-0.51641,0 -1.08536,0.02854 -1.6872,0.07015c-0.80418,-0.03415 -1.59076,-0.07224 -2.32231,-0.07103l-0.99203,0.00185c0,0 -0.4668,0.00115 -0.6633,0.3696c-1.70113,0.08866 -3.35431,0.06324 -4.61852,-0.33623c-2.72131,-0.8599 -5.45198,-2.40639 -8.41045,-2.95618c-2.53603,-0.47129 -4.95444,0.7615 -7.01363,-1.00083c-10.41865,-0.35951 -20.52657,-4.88993 -31.08505,-5.04261c-5.35297,-0.029 -10.74311,-1.06186 -16.15726,-1.80759c-4.88691,-0.67311 -10.14586,-0.21981 -15.07199,-0.21108c-10.32813,-1.73848 -21.02452,-1.02045 -31.48774,-1.02045c-6.42792,0 -13.03822,0.44899 -19.44796,-0.00097c-4.04222,-0.28376 -7.90572,-0.99891 -11.9895,-1.00251c-3.04077,-0.00074 -5.83974,-0.7764 -8.87565,-0.91413c-7.48839,-0.33972 -15.03849,-0.08886 -22.53337,-0.08886c-2.05287,0.01239 -3.78408,-0.86767 -5.85026,-0.91696c-8.50024,-0.20277 -17.01312,-0.08414 -25.51544,-0.08415c-10.5,0 -21.00002,-0.00042 -31.50002,-0.00042c-2.66601,0 -4.68861,-0.42712 -7.25669,-0.84266c-1.40344,-0.22709 -3.06407,0.22006 -4.43322,-0.13469c-0.99323,-0.25735 -1.89795,-0.86642 -2.91751,-0.98151c-2.25293,-0.25432 -5.10294,-0.40772 -7.26622,-1.00315c-2.16689,-0.59643 -4.42324,-1.34497 -6.72829,-1.73517c1.35291,-0.48133 2.66159,-1.27202 3.85293,-1.7407c0.93473,-0.36773 2.07302,0.24625 3.0113,-0.11233c0.46383,-0.17726 0.65409,-0.80275 1.11455,-0.98857c2.02095,-0.81555 5.21441,0.48029 7.38781,0.0204c1.45076,-0.30698 2.69841,-1.48466 4.13337,-1.82756c1.59874,-0.38204 2.83281,-0.08915 4.42864,-0.75722c3.76364,-0.80731 7.90081,-0.39989 11.73837,-0.3999c6.5,-0.00001 13,-0.00016 19.5,-0.00016c1.82803,0 4.45956,0.46513 6.21102,-0.03037c2.7697,-0.78356 5.34339,-2.13729 8.34602,-2.6661c5.44465,-0.9589 11.07122,-0.85917 16.3267,-2.67728c2.86513,-1.01891 5.85204,-0.16437 8.78557,-0.63918c7.37113,-1.19307 14.68098,-3.30762 21.90854,-5.19142c10.0777,-2.62951 20.37498,-5.18752 30.62015,-6.609c10.6163,-0.90484 20.62801,1.78174 31.15147,1.78193c2.86819,-0.02424 5.90763,0.77676 8.87059,0.90443c7.49085,0.32279 15.08504,0.08254 22.58161,0.08257c10.5,0.00001 21.02501,0.02428 31.52501,0.02428c10.5,0 21.00318,0.00864 31.50318,0.00864c10.5,0 21.00085,0.00378 31.50085,0.00378c3.35585,-0.02642 6.7424,1.43279 9.99798,2.21912c6.78924,1.63982 13.22697,3.39453 19.59657,6.51023c10.03782,3.46541 19.66218,6.851 30.54012,7.23754c1.88679,0.02445 4.04503,-0.2536 5.90357,0.0325c1.63368,0.25149 2.47722,1.3128 3.85884,1.82333c1.84204,0.68067 4.21793,-0.2586 6.10184,0.16682c1.87626,0.4237 3.57537,1.75994 5.2999,2.45546c2.96183,1.19455 5.74096,0.25945 8.50238,2.31976c2.25692,0.23375 3.7827,1.15593 5.91578,1.22451c0.79961,0.02571 1.65055,0.08299 2.35528,0.46167c0.20768,0.1116 0.8183,0.35259 0.58647,0.39548c-2.01471,0.37271 -4.87572,-0.95176 -7.07101,-0.30335c-0.48512,0.14329 -0.78182,0.681 -1.26001,0.84593c-3.47406,1.19824 -8.10974,-0.05329 -11.81501,0.823c-4.25471,0.56985 -9.35432,0.79665 -13.1996,2.18371c-1.53791,0.55475 -4.12506,0.10074 -5.75436,0.11372c-2.07957,0.01657 -3.87292,0.83205 -5.93072,0.96198c-2.16346,0.1366 -4.0331,-0.14388 -6.11554,0.57724c-2.42806,0.87929 -4.88709,-0.07361 -7.33525,0.48415c-2.97819,0.67852 -5.64169,0.67428 -8.73173,0.97862c-4.96254,0.48877 -9.49936,2.89823 -14.47186,2.98833c-10.54668,0.03552 -21.1338,-0.1895 -31.25977,2.87615c-2.84644,0.16783 -6.16311,0.55748 -8.93105,1.15578c-1.45473,0.31445 -2.71755,1.4374 -4.15468,1.80263c-0.88896,0.22591 -1.87272,0.30098 -2.87887,0.30917c-0.20214,-0.12012 -0.42333,-0.12012 -0.42333,-0.12012z" data-paper-data="{&quot;noHover&quot;:false,&quot;origItem&quot;:[&quot;Path&quot;,{&quot;applyMatrix&quot;:true,&quot;segments&quot;:[[[406.00774,241.4209],[-0.20214,-0.12012],[1.00615,-0.0082]],[[408.88641,241.11241],[-0.88896,0.22591],[1.43712,-0.36522]],[[413.04064,239.31148],[-1.45473,0.31445],[2.76794,-0.5983]],[[421.97129,238.15745],[-2.84644,0.16783],[10.12597,-3.06565]],[[453.23043,235.28504],[-10.54668,0.03552],[4.9725,-0.09009]],[[467.70209,232.29849],[-4.96254,0.48877],[3.09004,-0.30435]],[[476.43376,231.32049],[-2.97819,0.67852],[2.44816,-0.55776]],[[483.76899,230.83669],[-2.42806,0.87929],[2.08244,-0.72112]],[[489.88451,230.25978],[-2.16346,0.1366],[2.0578,-0.12993]],[[495.8152,229.29821],[-2.07957,0.01657],[1.6293,-0.01298]],[[501.56955,229.18463],[-1.53791,0.55475],[3.84529,-1.38706]],[[514.76912,227.00172],[-4.25471,0.56985],[3.70528,-0.87629]],[[526.58412,226.17906],[-3.47406,1.19824],[0.47819,-0.16493]],[[527.84412,225.33335],[-0.48512,0.14329],[2.19529,-0.64841]],[[534.91513,225.63667],[-2.01471,0.37271],[0.23183,-0.04289]],[[534.32866,225.24129],[0.20768,0.1116],[-0.70473,-0.37868]],[[531.97338,224.77972],[0.79961,0.02571],[-2.13308,-0.06857]],[[526.05759,223.55549],[2.25692,0.23375],[-2.76142,-2.06031]],[[517.5552,221.23631],[2.96183,1.19455],[-1.72453,-0.69552]],[[512.25531,218.78153],[1.87626,0.4237],[-1.88391,-0.42542]],[[506.15346,218.61476],[1.84204,0.68067],[-1.38162,-0.51053]],[[502.29463,216.79197],[1.63368,0.25149],[-1.85854,-0.2861]],[[496.39107,216.75952],[1.88679,0.02445],[-10.87794,-0.38654]],[[465.85109,209.52491],[10.03782,3.46541],[-6.36959,-3.1157]],[[446.25492,203.01817],[6.78924,1.63982],[-3.25558,-0.78633]],[[436.25722,200.80078],[3.35585,-0.02642],[-10.5,0]],[[404.75722,200.80078],[10.5,0],[-10.5,0]],[[373.25722,200.80078],[10.5,0],[-10.5,0]],[[341.75722,200.80078],[10.5,0.00001],[-7.49657,-0.00003]],[[319.22561,200.71254],[7.49085,0.32279],[-2.96295,-0.12768]],[[310.36295,199.80074],[2.86819,-0.02424],[-10.52347,-0.00019]],[[279.22009,198.00471],[10.6163,-0.90484],[-10.24517,1.42148]],[[248.60276,204.60387],[10.0777,-2.62951],[-7.22757,1.8838]],[[226.69478,209.79115],[7.37113,-1.19307],[-2.93353,0.47481]],[[217.90926,210.4297],[2.86513,-1.01891],[-5.25548,1.81812]],[[201.58266,213.10548],[5.44465,-0.9589],[-3.00263,0.52881]],[[193.23668,215.77048],[2.7697,-0.78356],[-1.75146,0.4955]],[[187.02566,215.80078],[1.82803,0],[-6.5,0]],[[167.52566,215.80078],[6.5,-0.00001],[-3.83755,0.00001]],[[155.7873,216.20049],[3.76364,-0.80731],[-1.59583,0.66808]],[[151.35867,216.95748],[1.59874,-0.38204],[-1.43496,0.3429]],[[147.22531,218.78453],[1.45076,-0.30698],[-2.1734,0.45989]],[[139.8375,218.76413],[2.02095,-0.81555],[-0.46046,0.18582]],[[138.72295,219.75245],[0.46383,-0.17726],[-0.93828,0.35859]],[[135.71165,219.86475],[0.93473,-0.36773],[-1.19134,0.46869]],[[131.85872,221.60502],[1.35291,-0.48133],[2.30505,0.3902]],[[138.58701,223.33974],[-2.16689,-0.59643],[2.16328,0.59543]],[[145.85322,224.34258],[-2.25293,-0.25432],[1.01955,0.11509]],[[148.77072,225.32381],[-0.99323,-0.25735],[1.36916,0.35475]],[[153.20394,225.45843],[-1.40344,-0.22709],[2.56808,0.41554]],[[160.46062,226.30078],[-2.66601,0],[10.5,0]],[[191.96062,226.30078],[-10.5,0],[8.50231,0.00001]],[[217.47603,226.38439],[-8.50024,-0.20277],[2.06618,0.04929]],[[223.32625,227.30078],[-2.05287,0.01239],[7.49488,0.00001]],[[245.85955,227.38872],[-7.48839,-0.33972],[3.03591,0.13773]],[[254.7351,228.3018],[-3.04077,-0.00074],[4.08378,0.0036]],[[266.72439,229.30262],[-4.04222,-0.28376],[6.40974,0.44996]],[[286.17187,229.30078],[-6.42792,0],[10.46321,0]],[[317.65216,230.30333],[-10.32813,-1.73848],[4.92613,-0.00874]],[[332.68596,230.49232],[-4.88691,-0.67311],[5.41415,0.74573]],[[348.80109,232.31819],[-5.35297,-0.029],[10.55848,0.15268]],[[379.87813,237.37469],[-10.41865,-0.35951],[2.05919,1.76232]],[[386.89129,238.3768],[-2.53603,-0.47129],[2.95846,0.54979]],[[395.30175,241.33296],[-2.72131,-0.8599],[1.26422,0.39947]],[[399.91999,241.67001],[-1.70113,0.08866],[0.1965,-0.36845]],[400.58317,241.30078],[[401.57513,241.29914],[0,0],[0.73155,-0.00121]],[[403.89732,241.37057],[-0.80418,-0.03415],[0.60184,-0.04161]],[[405.58441,241.30078],[-0.51641,0],[0,0]]],&quot;closed&quot;:true}]}" fill="url(#color-1)"/><path d="M755.07361,267.31509c-0.51641,0 -1.08536,0.02854 -1.6872,0.07015c-0.80418,-0.03415 -1.59076,-0.07224 -2.32231,-0.07103l-0.99203,0.00185c0,0 -0.4668,0.00115 -0.6633,0.3696c-1.70113,0.08866 -3.35431,0.06324 -4.61852,-0.33623c-2.72131,-0.8599 -5.45198,-2.40639 -8.41045,-2.95618c-2.53603,-0.47129 -4.95444,0.7615 -7.01363,-1.00083c-10.41865,-0.35951 -20.52657,-4.88993 -31.08505,-5.04261c-5.35297,-0.029 -10.74311,-1.06186 -16.15726,-1.80759c-4.88691,-0.67311 -10.14586,-0.21981 -15.07199,-0.21108c-10.32813,-1.73848 -21.02452,-1.02045 -31.48774,-1.02045c-6.42792,0 -13.03822,0.44899 -19.44796,-0.00097c-4.04222,-0.28376 -7.90572,-0.99891 -11.9895,-1.00251c-3.04077,-0.00074 -5.83974,-0.7764 -8.87565,-0.91413c-7.48839,-0.33972 -15.03849,-0.08886 -22.53337,-0.08886c-2.05287,0.01239 -3.78408,-0.86767 -5.85026,-0.91696c-8.50024,-0.20277 -17.01312,-0.08414 -25.51544,-0.08415c-10.5,0 -21.00002,-0.00042 -31.50002,-0.00042c-2.66601,0 -4.68861,-0.42712 -7.25669,-0.84266c-1.40344,-0.22709 -3.06407,0.22006 -4.43322,-0.13469c-0.99323,-0.25735 -1.89795,-0.86642 -2.91751,-0.98151c-2.25293,-0.25432 -5.10294,-0.40772 -7.26622,-1.00315c-2.16689,-0.59643 -4.42324,-1.34497 -6.72829,-1.73517c1.35291,-0.48133 2.66159,-1.27202 3.85293,-1.7407c0.93473,-0.36773 2.07302,0.24625 3.0113,-0.11233c0.46383,-0.17726 0.65409,-0.80275 1.11455,-0.98857c2.02095,-0.81555 5.21441,0.48029 7.38781,0.0204c1.45076,-0.30698 2.69841,-1.48466 4.13337,-1.82756c1.59874,-0.38204 2.83281,-0.08915 4.42864,-0.75722c3.76364,-0.80731 7.90081,-0.39989 11.73837,-0.3999c6.5,-0.00001 13,-0.00016 19.5,-0.00016c1.82803,0 4.45956,0.46513 6.21102,-0.03037c2.7697,-0.78356 5.34339,-2.13729 8.34602,-2.6661c5.44465,-0.9589 11.07122,-0.85917 16.3267,-2.67728c2.86513,-1.01891 5.85204,-0.16437 8.78557,-0.63918c7.37113,-1.19307 14.68098,-3.30762 21.90854,-5.19142c10.0777,-2.62951 20.37498,-5.18752 30.62015,-6.609c10.6163,-0.90484 20.62801,1.78174 31.15147,1.78193c2.86819,-0.02424 5.90763,0.77676 8.87059,0.90443c7.49085,0.32279 15.08504,0.08254 22.58161,0.08257c10.5,0.00001 21.02501,0.02428 31.52501,0.02428c10.5,0 21.00318,0.00864 31.50318,0.00864c10.5,0 21.00085,0.00378 31.50085,0.00378c3.35585,-0.02642 6.7424,1.43279 9.99798,2.21912c6.78924,1.63982 13.22697,3.39453 19.59657,6.51023c10.03782,3.46541 19.66218,6.851 30.54012,7.23754c1.88679,0.02445 4.04503,-0.2536 5.90357,0.0325c1.63368,0.25149 2.47722,1.3128 3.85884,1.82333c1.84204,0.68067 4.21793,-0.2586 6.10184,0.16682c1.87626,0.4237 3.57537,1.75994 5.2999,2.45546c2.96183,1.19455 5.74096,0.25945 8.50238,2.31976c2.25692,0.23375 3.7827,1.15593 5.91578,1.22451c0.79961,0.02571 1.65055,0.08299 2.35528,0.46167c0.20768,0.1116 0.8183,0.35259 0.58647,0.39548c-2.01471,0.37271 -4.87572,-0.95176 -7.07101,-0.30335c-0.48512,0.14329 -0.78182,0.681 -1.26001,0.84593c-3.47406,1.19824 -8.10974,-0.05329 -11.81501,0.823c-4.25471,0.56985 -9.35432,0.79665 -13.1996,2.18371c-1.53791,0.55475 -4.12506,0.10074 -5.75436,0.11372c-2.07957,0.01657 -3.87292,0.83205 -5.93072,0.96198c-2.16346,0.1366 -4.0331,-0.14388 -6.11554,0.57724c-2.42806,0.87929 -4.88709,-0.07361 -7.33525,0.48415c-2.97819,0.67852 -5.64169,0.67428 -8.73173,0.97862c-4.96254,0.48877 -9.49936,2.89823 -14.47186,2.98833c-10.54668,0.03552 -21.1338,-0.1895 -31.25977,2.87615c-2.84644,0.16783 -6.16311,0.55748 -8.93105,1.15578c-1.45473,0.31445 -2.71755,1.4374 -4.15468,1.80263c-0.88896,0.22591 -1.87272,0.30098 -2.87887,0.30917c-0.20214,-0.12012 -0.42333,-0.12012 -0.42333,-0.12012z" data-paper-data="{&quot;noHover&quot;:false,&quot;origItem&quot;:[&quot;Path&quot;,{&quot;applyMatrix&quot;:true,&quot;segments&quot;:[[[406.00774,241.4209],[-0.20214,-0.12012],[1.00615,-0.0082]],[[408.88641,241.11241],[-0.88896,0.22591],[1.43712,-0.36522]],[[413.04064,239.31148],[-1.45473,0.31445],[2.76794,-0.5983]],[[421.97129,238.15745],[-2.84644,0.16783],[10.12597,-3.06565]],[[453.23043,235.28504],[-10.54668,0.03552],[4.9725,-0.09009]],[[467.70209,232.29849],[-4.96254,0.48877],[3.09004,-0.30435]],[[476.43376,231.32049],[-2.97819,0.67852],[2.44816,-0.55776]],[[483.76899,230.83669],[-2.42806,0.87929],[2.08244,-0.72112]],[[489.88451,230.25978],[-2.16346,0.1366],[2.0578,-0.12993]],[[495.8152,229.29821],[-2.07957,0.01657],[1.6293,-0.01298]],[[501.56955,229.18463],[-1.53791,0.55475],[3.84529,-1.38706]],[[514.76912,227.00172],[-4.25471,0.56985],[3.70528,-0.87629]],[[526.58412,226.17906],[-3.47406,1.19824],[0.47819,-0.16493]],[[527.84412,225.33335],[-0.48512,0.14329],[2.19529,-0.64841]],[[534.91513,225.63667],[-2.01471,0.37271],[0.23183,-0.04289]],[[534.32866,225.24129],[0.20768,0.1116],[-0.70473,-0.37868]],[[531.97338,224.77972],[0.79961,0.02571],[-2.13308,-0.06857]],[[526.05759,223.55549],[2.25692,0.23375],[-2.76142,-2.06031]],[[517.5552,221.23631],[2.96183,1.19455],[-1.72453,-0.69552]],[[512.25531,218.78153],[1.87626,0.4237],[-1.88391,-0.42542]],[[506.15346,218.61476],[1.84204,0.68067],[-1.38162,-0.51053]],[[502.29463,216.79197],[1.63368,0.25149],[-1.85854,-0.2861]],[[496.39107,216.75952],[1.88679,0.02445],[-10.87794,-0.38654]],[[465.85109,209.52491],[10.03782,3.46541],[-6.36959,-3.1157]],[[446.25492,203.01817],[6.78924,1.63982],[-3.25558,-0.78633]],[[436.25722,200.80078],[3.35585,-0.02642],[-10.5,0]],[[404.75722,200.80078],[10.5,0],[-10.5,0]],[[373.25722,200.80078],[10.5,0],[-10.5,0]],[[341.75722,200.80078],[10.5,0.00001],[-7.49657,-0.00003]],[[319.22561,200.71254],[7.49085,0.32279],[-2.96295,-0.12768]],[[310.36295,199.80074],[2.86819,-0.02424],[-10.52347,-0.00019]],[[279.22009,198.00471],[10.6163,-0.90484],[-10.24517,1.42148]],[[248.60276,204.60387],[10.0777,-2.62951],[-7.22757,1.8838]],[[226.69478,209.79115],[7.37113,-1.19307],[-2.93353,0.47481]],[[217.90926,210.4297],[2.86513,-1.01891],[-5.25548,1.81812]],[[201.58266,213.10548],[5.44465,-0.9589],[-3.00263,0.52881]],[[193.23668,215.77048],[2.7697,-0.78356],[-1.75146,0.4955]],[[187.02566,215.80078],[1.82803,0],[-6.5,0]],[[167.52566,215.80078],[6.5,-0.00001],[-3.83755,0.00001]],[[155.7873,216.20049],[3.76364,-0.80731],[-1.59583,0.66808]],[[151.35867,216.95748],[1.59874,-0.38204],[-1.43496,0.3429]],[[147.22531,218.78453],[1.45076,-0.30698],[-2.1734,0.45989]],[[139.8375,218.76413],[2.02095,-0.81555],[-0.46046,0.18582]],[[138.72295,219.75245],[0.46383,-0.17726],[-0.93828,0.35859]],[[135.71165,219.86475],[0.93473,-0.36773],[-1.19134,0.46869]],[[131.85872,221.60502],[1.35291,-0.48133],[2.30505,0.3902]],[[138.58701,223.33974],[-2.16689,-0.59643],[2.16328,0.59543]],[[145.85322,224.34258],[-2.25293,-0.25432],[1.01955,0.11509]],[[148.77072,225.32381],[-0.99323,-0.25735],[1.36916,0.35475]],[[153.20394,225.45843],[-1.40344,-0.22709],[2.56808,0.41554]],[[160.46062,226.30078],[-2.66601,0],[10.5,0]],[[191.96062,226.30078],[-10.5,0],[8.50231,0.00001]],[[217.47603,226.38439],[-8.50024,-0.20277],[2.06618,0.04929]],[[223.32625,227.30078],[-2.05287,0.01239],[7.49488,0.00001]],[[245.85955,227.38872],[-7.48839,-0.33972],[3.03591,0.13773]],[[254.7351,228.3018],[-3.04077,-0.00074],[4.08378,0.0036]],[[266.72439,229.30262],[-4.04222,-0.28376],[6.40974,0.44996]],[[286.17187,229.30078],[-6.42792,0],[10.46321,0]],[[317.65216,230.30333],[-10.32813,-1.73848],[4.92613,-0.00874]],[[332.68596,230.49232],[-4.88691,-0.67311],[5.41415,0.74573]],[[348.80109,232.31819],[-5.35297,-0.029],[10.55848,0.15268]],[[379.87813,237.37469],[-10.41865,-0.35951],[2.05919,1.76232]],[[386.89129,238.3768],[-2.53603,-0.47129],[2.95846,0.54979]],[[395.30175,241.33296],[-2.72131,-0.8599],[1.26422,0.39947]],[[399.91999,241.67001],[-1.70113,0.08866],[0.1965,-0.36845]],[400.58317,241.30078],[[401.57513,241.29914],[0,0],[0.73155,-0.00121]],[[403.89732,241.37057],[-0.80418,-0.03415],[0.60184,-0.04161]],[[405.58441,241.30078],[-0.51641,0],[0,0]]],&quot;closed&quot;:true}]}" fill="url(#color-2)"/><g><path d="M120.22977,212.9631c5.47008,-7.78171 6.25197,-18.56588 6.48326,-27.84647c0.12385,-5.67788 -0.23938,-12.06615 6.39086,-13.85446c10.19265,-1.32545 22.41637,-1.1445 32.5628,0.30785c11.86165,2.87352 10.7115,15.17935 13.97826,24.33216c3.7439,9.35421 14.7797,23.95878 10.75203,34.06131c-10.24207,9.99925 -19.65153,-1.40607 -30.79643,-0.83583c-5.57932,1.18107 -10.33473,4.20004 -16.17941,4.17185c-6.21879,-0.03028 -11.302,-4.0708 -17.27443,-4.59521c-2.95448,0.10871 -10.80997,2.90361 -13.25273,0.53785c-4.45752,-4.31698 5.27803,-13.20245 7.33654,-16.27862z" fill="url(#color-3)"/><path d="M129.01341,173.98397c0.74558,-0.32987 1.15319,0.20896 1.29322,0.45267c0.27457,0.13943 0.54869,0.27766 0.82326,0.41709c8.54868,2.40057 16.65658,2.61862 25.45234,2.83842c2.79116,-0.13983 12.62318,-3.83599 14.43293,-3.0702c2.75396,1.164 6.18696,12.53261 0.75685,9.75158c-7.99987,-9.52324 -1.56203,0.72425 -1.69935,5.41294c-0.14374,4.90507 -4.84033,3.48265 -6.48741,0.54584c-1.88124,-0.7364 -2.80222,8.46307 -5.19704,8.96826c-7.97456,1.68392 -5.34146,-8.69195 -2.82435,-12.09982c2.48633,-3.13965 -0.26812,-8.50589 -4.30113,-6.49115c-0.87573,0.43699 -2.71531,15.82251 -5.51431,7.07516c-0.09569,-1.92664 -7.12683,-11.12392 -8.71611,-8.62785c-0.84472,1.32686 0.97102,7.55351 -1.12846,10.75588c-7.57346,8.11625 -5.08552,-9.27846 -7.43697,-14.52922c0,0 -0.40162,-0.98196 0.54508,-1.40047z" fill="#ff6e00"/><path d="M165.68671,177.43067c0,0 -0.22406,0.06877 -0.49448,0.03665c-1.10818,0.26747 -2.44545,0.5183 -4.04014,0.74549c-9.13817,1.47339 -18.79943,0.08589 -27.82528,-1.52849c-1.28527,-0.23017 -2.45184,-0.6601 -3.30279,-1.20171c-0.31131,0.01194 -0.70903,-0.09245 -0.95541,-0.61768c-0.05753,-0.12139 -0.09187,-0.23422 -0.10868,-0.33943c-0.80714,-1.13771 -0.25998,-2.48453 2.78032,-3.54141c5.32717,-1.8505 12.09069,-2.04455 17.68475,-1.91167c5.90621,0.14506 12.60503,0.1243 18.22258,2.2097c6.20124,2.30279 4.00924,5.22141 -1.55009,6.01045l-0.41048,0.13929z" fill="#ff8629"/></g><g><path d="M660.97978,212.96309c5.47008,-7.7817 6.25198,-18.56586 6.48326,-27.84646c0.12385,-5.67789 -0.23938,-12.06615 6.39086,-13.85446c10.19265,-1.32545 22.41636,-1.1445 32.56279,0.30785c11.86165,2.87352 10.7115,15.17935 13.97826,24.33216c3.7439,9.35421 14.7797,23.95878 10.75203,34.06131c-10.24207,9.99925 -19.65153,-1.40607 -30.79643,-0.83583c-5.57932,1.18107 -10.33472,4.20004 -16.17941,4.17185c-6.21879,-0.03028 -11.30199,-4.0708 -17.27443,-4.59521c-2.95448,0.10871 -10.80997,2.90361 -13.25273,0.53785c-4.45752,-4.31698 5.27803,-13.20245 7.33654,-16.27862z" fill="url(#color-4)"/><path d="M669.76344,173.98398c0.74558,-0.32987 1.15318,0.20895 1.29322,0.45266c0.27457,0.13943 0.54869,0.27766 0.82326,0.41709c8.54867,2.40056 16.65657,2.61862 25.45233,2.83842c2.79116,-0.13984 12.62318,-3.836 14.43293,-3.07021c2.75396,1.164 6.18696,12.53262 0.75685,9.75159c-7.99987,-9.52324 -1.56203,0.72425 -1.69935,5.41294c-0.14374,4.90507 -4.84032,3.48265 -6.48741,0.54584c-1.88124,-0.73639 -2.80223,8.46307 -5.19704,8.96826c-7.97455,1.68392 -5.34145,-8.69195 -2.82434,-12.09982c2.48632,-3.13966 -0.26813,-8.5059 -4.30114,-6.49115c-0.87573,0.43698 -2.71532,15.8225 -5.51432,7.07515c-0.09569,-1.92665 -7.12684,-11.12391 -8.71611,-8.62785c-0.84473,1.32686 0.97102,7.55351 -1.12846,10.75588c-7.57347,8.11625 -5.08553,-9.27846 -7.43698,-14.52922c0,0 -0.40162,-0.98196 0.54508,-1.40047z" fill="#ff6e00"/><path d="M706.43674,177.43068c0,0 -0.22405,0.06878 -0.49448,0.03665c-1.10818,0.26747 -2.44545,0.51829 -4.04014,0.74548c-9.13818,1.47339 -18.79944,0.08589 -27.82529,-1.52849c-1.28527,-0.23017 -2.45184,-0.6601 -3.30279,-1.20171c-0.31132,0.01194 -0.70904,-0.09245 -0.95542,-0.61768c-0.05754,-0.12139 -0.09188,-0.23422 -0.10869,-0.33943c-0.80714,-1.13772 -0.25998,-2.48454 2.78032,-3.54142c5.32716,-1.8505 12.09069,-2.04454 17.68475,-1.91166c5.90622,0.14506 12.60504,0.12429 18.22258,2.2097c6.20125,2.30279 4.00924,5.22141 -1.55009,6.01045l-0.41048,0.13929z" fill="#ff8629"/></g></g></g></svg>