<svg version="1.1" xmlns="http://www.w3.org/2000/svg" xmlns:xlink="http://www.w3.org/1999/xlink" width="59" height="59.70662" viewBox="0,0,59,59.70662"><defs><linearGradient x1="270" y1="151.64675" x2="270" y2="208.35338" gradientUnits="userSpaceOnUse" id="color-1"><stop offset="0" stop-color="#1a1108"/><stop offset="1" stop-color="#050503"/></linearGradient><linearGradient x1="270" y1="151.64675" x2="270" y2="208.35338" gradientUnits="userSpaceOnUse" id="color-2"><stop offset="0" stop-color="#ccc1ab"/><stop offset="1" stop-color="#8a806d"/></linearGradient><radialGradient cx="270" cy="180.00002" r="26.8571" gradientUnits="userSpaceOnUse" id="color-3"><stop offset="0" stop-color="#ffe9d4" stop-opacity="0.35294"/><stop offset="1" stop-color="#ffe9d4" stop-opacity="0"/></radialGradient><linearGradient x1="270" y1="153.29213" x2="270" y2="206.70791" gradientUnits="userSpaceOnUse" id="color-4"><stop offset="0" stop-color="#cccccc"/><stop offset="1" stop-color="#898989"/></linearGradient><radialGradient cx="274.71596" cy="199.12353" r="20.57143" gradientUnits="userSpaceOnUse" id="color-5"><stop offset="0" stop-color="#98746c"/><stop offset="1" stop-color="#5e423a" stop-opacity="0.7098"/></radialGradient><radialGradient cx="272.85882" cy="198.69496" r="20.57143" gradientUnits="userSpaceOnUse" id="color-6"><stop offset="0" stop-color="#614a45" stop-opacity="0.47451"/><stop offset="1" stop-color="#352521" stop-opacity="0.31373"/></radialGradient><linearGradient x1="275.5574" y1="177.18023" x2="273.7844" y2="177.16932" gradientUnits="userSpaceOnUse" id="color-7"><stop offset="0" stop-color="#fff4c2"/><stop offset="1" stop-color="#fef7d3"/></linearGradient><linearGradient x1="274.47984" y1="175.80651" x2="273.81775" y2="177.45539" gradientUnits="userSpaceOnUse" id="color-8"><stop offset="0" stop-color="#fff4c2"/><stop offset="1" stop-color="#fef7d3"/></linearGradient><linearGradient x1="276.1594" y1="175.10676" x2="274.70078" y2="175.72032" gradientUnits="userSpaceOnUse" id="color-9"><stop offset="0" stop-color="#fff4c2"/><stop offset="1" stop-color="#f5eaa6"/></linearGradient><linearGradient x1="277.37082" y1="177.00181" x2="275.80168" y2="176.82541" gradientUnits="userSpaceOnUse" id="color-10"><stop offset="0" stop-color="#fff4c2"/><stop offset="1" stop-color="#f5eaa6"/></linearGradient><linearGradient x1="276.9881" y1="175.8596" x2="275.87074" y2="176.97528" gradientUnits="userSpaceOnUse" id="color-11"><stop offset="0" stop-color="#fff4c2"/><stop offset="1" stop-color="#f5eaa6"/></linearGradient><radialGradient cx="278.56154" cy="177.05818" r="0.91423" gradientUnits="userSpaceOnUse" id="color-12"><stop offset="0" stop-color="#7aff61"/><stop offset="1" stop-color="#7ac149"/></radialGradient><radialGradient cx="278.21905" cy="177.54923" r="0.75823" gradientUnits="userSpaceOnUse" id="color-13"><stop offset="0" stop-color="#7aff61"/><stop offset="1" stop-color="#7ac149"/></radialGradient><radialGradient cx="278.15007" cy="175.77398" r="0.9539" gradientUnits="userSpaceOnUse" id="color-14"><stop offset="0" stop-color="#7aff61"/><stop offset="1" stop-color="#7ac149"/></radialGradient><linearGradient x1="270.90366" y1="177.85094" x2="269.43858" y2="179.77579" gradientUnits="userSpaceOnUse" id="color-15"><stop offset="0" stop-color="#fff4c2"/><stop offset="1" stop-color="#def57d"/></linearGradient><linearGradient x1="268.00436" y1="179.88279" x2="270.73887" y2="180.44224" gradientUnits="userSpaceOnUse" id="color-16"><stop offset="0" stop-color="#6fd62b"/><stop offset="1" stop-color="#ffea82"/></linearGradient><linearGradient x1="272.69005" y1="178.91839" x2="270.45663" y2="179.4317" gradientUnits="userSpaceOnUse" id="color-17"><stop offset="0" stop-color="#fff4c2"/><stop offset="1" stop-color="#f5e87c"/></linearGradient><linearGradient x1="272.19536" y1="175.72681" x2="270.71687" y2="177.29367" gradientUnits="userSpaceOnUse" id="color-18"><stop offset="0" stop-color="#fff4c2"/><stop offset="1" stop-color="#f5eaa6"/></linearGradient><linearGradient x1="270.63586" y1="175.20805" x2="270.93693" y2="177.34122" gradientUnits="userSpaceOnUse" id="color-19"><stop offset="0" stop-color="#fff4c2"/><stop offset="1" stop-color="#f5eaa6"/></linearGradient><linearGradient x1="273.74905" y1="179.44409" x2="271.37068" y2="179.88557" gradientUnits="userSpaceOnUse" id="color-20"><stop offset="0" stop-color="#fff4c2"/><stop offset="1" stop-color="#f5ed93"/></linearGradient><linearGradient x1="276.2273" y1="179.24715" x2="274.16255" y2="179.86179" gradientUnits="userSpaceOnUse" id="color-21"><stop offset="0" stop-color="#fff4c2"/><stop offset="1" stop-color="#f5eaa6"/></linearGradient><linearGradient x1="275.9883" y1="180.8732" x2="274.21917" y2="179.64389" gradientUnits="userSpaceOnUse" id="color-22"><stop offset="0" stop-color="#fff4c2"/><stop offset="1" stop-color="#f5eaa6"/></linearGradient><linearGradient x1="273.82342" y1="177.66291" x2="272.22509" y2="178.24098" gradientUnits="userSpaceOnUse" id="color-23"><stop offset="0" stop-color="#fff8d6"/><stop offset="1" stop-color="#fef3bb"/></linearGradient><radialGradient cx="277.44739" cy="181.16906" r="1.50894" gradientUnits="userSpaceOnUse" id="color-24"><stop offset="0" stop-color="#7aff61"/><stop offset="1" stop-color="#7ac149"/></radialGradient><radialGradient cx="278.20726" cy="179.17354" r="1.47204" gradientUnits="userSpaceOnUse" id="color-25"><stop offset="0" stop-color="#7aff61"/><stop offset="1" stop-color="#7ac149"/></radialGradient><radialGradient cx="273.23277" cy="174.47429" r="1.24731" gradientUnits="userSpaceOnUse" id="color-26"><stop offset="0" stop-color="#7aff61"/><stop offset="1" stop-color="#7ac149"/></radialGradient><radialGradient cx="273.48765" cy="175.25032" r="1.03449" gradientUnits="userSpaceOnUse" id="color-27"><stop offset="0" stop-color="#7aff61"/><stop offset="1" stop-color="#7ac149"/></radialGradient><radialGradient cx="271.49485" cy="173.87053" r="1.30143" gradientUnits="userSpaceOnUse" id="color-28"><stop offset="0" stop-color="#7aff61"/><stop offset="1" stop-color="#7ac149"/></radialGradient><linearGradient x1="275.33289" y1="174.19189" x2="274.90162" y2="175.7144" gradientUnits="userSpaceOnUse" id="color-29"><stop offset="0" stop-color="#fff4c2"/><stop offset="1" stop-color="#f5eaa6"/></linearGradient><radialGradient cx="277.07993" cy="174.27956" r="1.10837" gradientUnits="userSpaceOnUse" id="color-30"><stop offset="0" stop-color="#7aff61"/><stop offset="1" stop-color="#7ac149"/></radialGradient><radialGradient cx="276.31196" cy="173.04578" r="1.08127" gradientUnits="userSpaceOnUse" id="color-31"><stop offset="0" stop-color="#7aff61"/><stop offset="1" stop-color="#7ac149"/></radialGradient><linearGradient x1="261.42533" y1="169.73687" x2="263.12438" y2="170.45013" gradientUnits="userSpaceOnUse" id="color-32"><stop offset="0" stop-color="#fff4c2"/><stop offset="1" stop-color="#fef7d3"/></linearGradient><linearGradient x1="263.01596" y1="168.86372" x2="262.97573" y2="170.70994" gradientUnits="userSpaceOnUse" id="color-33"><stop offset="0" stop-color="#fff4c2"/><stop offset="1" stop-color="#fef7d3"/></linearGradient><linearGradient x1="261.69628" y1="167.50937" x2="262.83997" y2="168.69116" gradientUnits="userSpaceOnUse" id="color-34"><stop offset="0" stop-color="#fff4c2"/><stop offset="1" stop-color="#f5eaa6"/></linearGradient><linearGradient x1="259.76491" y1="168.82615" x2="261.33665" y2="169.29802" gradientUnits="userSpaceOnUse" id="color-35"><stop offset="0" stop-color="#fff4c2"/><stop offset="1" stop-color="#f5eaa6"/></linearGradient><linearGradient x1="260.59693" y1="167.89065" x2="261.20951" y2="169.41309" gradientUnits="userSpaceOnUse" id="color-36"><stop offset="0" stop-color="#fff4c2"/><stop offset="1" stop-color="#f5eaa6"/></linearGradient><radialGradient cx="258.60383" cy="168.39401" r="0.95016" gradientUnits="userSpaceOnUse" id="color-37"><stop offset="0" stop-color="#7aff61"/><stop offset="1" stop-color="#7ac149"/></radialGradient><radialGradient cx="258.73074" cy="169.00315" r="0.78804" gradientUnits="userSpaceOnUse" id="color-38"><stop offset="0" stop-color="#7aff61"/><stop offset="1" stop-color="#7ac149"/></radialGradient><radialGradient cx="259.52128" cy="167.33455" r="0.99138" gradientUnits="userSpaceOnUse" id="color-39"><stop offset="0" stop-color="#7aff61"/><stop offset="1" stop-color="#7ac149"/></radialGradient><linearGradient x1="265.59952" y1="172.27746" x2="266.21415" y2="174.71522" gradientUnits="userSpaceOnUse" id="color-40"><stop offset="0" stop-color="#fff4c2"/><stop offset="1" stop-color="#def57d"/></linearGradient><linearGradient x1="267.54128" y1="175.4029" x2="264.69933" y2="174.82147" gradientUnits="userSpaceOnUse" id="color-41"><stop offset="0" stop-color="#6fd62b"/><stop offset="1" stop-color="#ffea82"/></linearGradient><linearGradient x1="263.45641" y1="172.56856" x2="265.38157" y2="173.9708" gradientUnits="userSpaceOnUse" id="color-42"><stop offset="0" stop-color="#fff4c2"/><stop offset="1" stop-color="#f5e87c"/></linearGradient><linearGradient x1="265.23195" y1="169.72001" x2="266.00552" y2="171.82107" gradientUnits="userSpaceOnUse" id="color-43"><stop offset="0" stop-color="#fff4c2"/><stop offset="1" stop-color="#f5eaa6"/></linearGradient><linearGradient x1="266.93424" y1="169.86074" x2="265.77578" y2="171.77669" gradientUnits="userSpaceOnUse" id="color-44"><stop offset="0" stop-color="#fff4c2"/><stop offset="1" stop-color="#f5eaa6"/></linearGradient><linearGradient x1="262.22966" y1="172.63877" x2="264.32266" y2="174.03151" gradientUnits="userSpaceOnUse" id="color-45"><stop offset="0" stop-color="#fff4c2"/><stop offset="1" stop-color="#f5ed93"/></linearGradient><linearGradient x1="259.94138" y1="171.43898" x2="261.66397" y2="172.86921" gradientUnits="userSpaceOnUse" id="color-46"><stop offset="0" stop-color="#fff4c2"/><stop offset="1" stop-color="#f5eaa6"/></linearGradient><linearGradient x1="259.5061" y1="173.09068" x2="261.69877" y2="172.63785" gradientUnits="userSpaceOnUse" id="color-47"><stop offset="0" stop-color="#fff4c2"/><stop offset="1" stop-color="#f5eaa6"/></linearGradient><linearGradient x1="262.8856" y1="170.90598" x2="264.17732" y2="172.11089" gradientUnits="userSpaceOnUse" id="color-48"><stop offset="0" stop-color="#fff8d6"/><stop offset="1" stop-color="#fef3bb"/></linearGradient><radialGradient cx="257.99076" cy="172.77789" r="1.56822" gradientUnits="userSpaceOnUse" id="color-49"><stop offset="0" stop-color="#7aff61"/><stop offset="1" stop-color="#7ac149"/></radialGradient><radialGradient cx="258.07902" cy="170.56044" r="1.52988" gradientUnits="userSpaceOnUse" id="color-50"><stop offset="0" stop-color="#7aff61"/><stop offset="1" stop-color="#7ac149"/></radialGradient><radialGradient cx="264.75167" cy="168.09943" r="1.29632" gradientUnits="userSpaceOnUse" id="color-51"><stop offset="0" stop-color="#7aff61"/><stop offset="1" stop-color="#7ac149"/></radialGradient><radialGradient cx="264.1913" cy="168.73712" r="1.07514" gradientUnits="userSpaceOnUse" id="color-52"><stop offset="0" stop-color="#7aff61"/><stop offset="1" stop-color="#7ac149"/></radialGradient><radialGradient cx="266.65919" cy="168.23173" r="1.35257" gradientUnits="userSpaceOnUse" id="color-53"><stop offset="0" stop-color="#7aff61"/><stop offset="1" stop-color="#7ac149"/></radialGradient><linearGradient x1="262.85966" y1="166.97231" x2="262.65042" y2="168.60353" gradientUnits="userSpaceOnUse" id="color-54"><stop offset="0" stop-color="#fff4c2"/><stop offset="1" stop-color="#f5eaa6"/></linearGradient><radialGradient cx="261.15409" cy="166.343" r="1.15192" gradientUnits="userSpaceOnUse" id="color-55"><stop offset="0" stop-color="#7aff61"/><stop offset="1" stop-color="#7ac149"/></radialGradient><radialGradient cx="262.39171" cy="165.47723" r="1.12375" gradientUnits="userSpaceOnUse" id="color-56"><stop offset="0" stop-color="#7aff61"/><stop offset="1" stop-color="#7ac149"/></radialGradient><radialGradient cx="266.15753" cy="187.97709" r="1.30398" gradientUnits="userSpaceOnUse" id="color-57"><stop offset="0" stop-color="#74b95d"/><stop offset="1" stop-color="#58a227"/></radialGradient><radialGradient cx="265.55358" cy="191.98055" r="5.56709" gradientUnits="userSpaceOnUse" id="color-58"><stop offset="0" stop-color="#9fff80"/><stop offset="1" stop-color="#8aff3d"/></radialGradient><radialGradient cx="268.23968" cy="178.85137" r="5.56709" gradientUnits="userSpaceOnUse" id="color-59"><stop offset="0" stop-color="#9fff80"/><stop offset="1" stop-color="#8aff3d"/></radialGradient><radialGradient cx="279.21046" cy="197.82337" r="1.74532" gradientUnits="userSpaceOnUse" id="color-60"><stop offset="0" stop-color="#e1e1e1"/><stop offset="1" stop-color="#d0d0d0"/></radialGradient><linearGradient x1="279.98616" y1="196.65981" x2="279.98616" y2="200.08582" gradientUnits="userSpaceOnUse" id="color-61"><stop offset="0" stop-color="#cccccc"/><stop offset="1" stop-color="#898989"/></linearGradient><radialGradient cx="276.7916" cy="197.85423" r="1.5439" gradientUnits="userSpaceOnUse" id="color-62"><stop offset="0" stop-color="#ebebeb"/><stop offset="1" stop-color="#d9d9d9"/></radialGradient><linearGradient x1="277.47777" y1="196.82497" x2="277.47777" y2="199.85558" gradientUnits="userSpaceOnUse" id="color-63"><stop offset="0" stop-color="#cccccc"/><stop offset="1" stop-color="#898989"/></linearGradient><radialGradient cx="275.40951" cy="195.15467" r="2.123" gradientUnits="userSpaceOnUse" id="color-64"><stop offset="0" stop-color="#ffffff"/><stop offset="1" stop-color="#dbdbdb"/></radialGradient><linearGradient x1="276.35307" y1="193.73933" x2="276.35307" y2="197.90671" gradientUnits="userSpaceOnUse" id="color-65"><stop offset="0" stop-color="#cccccc"/><stop offset="1" stop-color="#898989"/></linearGradient><radialGradient cx="279.74817" cy="195.01807" r="2.18246" gradientUnits="userSpaceOnUse" id="color-66"><stop offset="0" stop-color="#e7e7e7"/><stop offset="1" stop-color="#cbcbcb"/></radialGradient><linearGradient x1="280.71815" y1="193.5631" x2="280.71815" y2="197.84718" gradientUnits="userSpaceOnUse" id="color-67"><stop offset="0" stop-color="#cccccc"/><stop offset="1" stop-color="#898989"/></linearGradient><radialGradient cx="277.99838" cy="195.77456" r="2.123" gradientUnits="userSpaceOnUse" id="color-68"><stop offset="0" stop-color="#f7f7f7"/><stop offset="1" stop-color="#d7d7d7"/></radialGradient><linearGradient x1="278.94194" y1="194.35922" x2="278.94194" y2="198.52661" gradientUnits="userSpaceOnUse" id="color-69"><stop offset="0" stop-color="#cccccc"/><stop offset="1" stop-color="#898989"/></linearGradient><radialGradient cx="279.30444" cy="192.57732" r="1.5439" gradientUnits="userSpaceOnUse" id="color-70"><stop offset="0" stop-color="#e2e2e2"/><stop offset="1" stop-color="#c8c8c8"/></radialGradient><linearGradient x1="279.99061" y1="191.54806" x2="279.99061" y2="194.57867" gradientUnits="userSpaceOnUse" id="color-71"><stop offset="0" stop-color="#cccccc"/><stop offset="1" stop-color="#898989"/></linearGradient><radialGradient cx="276.75338" cy="192.48438" r="1.74532" gradientUnits="userSpaceOnUse" id="color-72"><stop offset="0" stop-color="#ebebeb"/><stop offset="1" stop-color="#dbdbdb"/></radialGradient><linearGradient x1="277.52908" y1="191.32082" x2="277.52908" y2="194.74683" gradientUnits="userSpaceOnUse" id="color-73"><stop offset="0" stop-color="#cccccc"/><stop offset="1" stop-color="#898989"/></linearGradient><radialGradient cx="272.73917" cy="198.09039" r="1.74532" gradientUnits="userSpaceOnUse" id="color-74"><stop offset="0" stop-color="#e1e1e1"/><stop offset="1" stop-color="#d0d0d0"/></radialGradient><linearGradient x1="273.51487" y1="196.92684" x2="273.51487" y2="200.35284" gradientUnits="userSpaceOnUse" id="color-75"><stop offset="0" stop-color="#cccccc"/><stop offset="1" stop-color="#898989"/></linearGradient><radialGradient cx="270.32031" cy="198.12125" r="1.5439" gradientUnits="userSpaceOnUse" id="color-76"><stop offset="0" stop-color="#ebebeb"/><stop offset="1" stop-color="#d9d9d9"/></radialGradient><linearGradient x1="271.00648" y1="197.09199" x2="271.00648" y2="200.1226" gradientUnits="userSpaceOnUse" id="color-77"><stop offset="0" stop-color="#cccccc"/><stop offset="1" stop-color="#898989"/></linearGradient><radialGradient cx="268.93823" cy="195.42169" r="2.123" gradientUnits="userSpaceOnUse" id="color-78"><stop offset="0" stop-color="#ffffff"/><stop offset="1" stop-color="#dbdbdb"/></radialGradient><linearGradient x1="269.88178" y1="194.00635" x2="269.88178" y2="198.17373" gradientUnits="userSpaceOnUse" id="color-79"><stop offset="0" stop-color="#cccccc"/><stop offset="1" stop-color="#898989"/></linearGradient><radialGradient cx="273.27688" cy="195.28509" r="2.18246" gradientUnits="userSpaceOnUse" id="color-80"><stop offset="0" stop-color="#e7e7e7"/><stop offset="1" stop-color="#cbcbcb"/></radialGradient><linearGradient x1="274.24686" y1="193.83012" x2="274.24686" y2="198.1142" gradientUnits="userSpaceOnUse" id="color-81"><stop offset="0" stop-color="#cccccc"/><stop offset="1" stop-color="#898989"/></linearGradient><radialGradient cx="271.5271" cy="196.04158" r="2.123" gradientUnits="userSpaceOnUse" id="color-82"><stop offset="0" stop-color="#f7f7f7"/><stop offset="1" stop-color="#d7d7d7"/></radialGradient><linearGradient x1="272.47065" y1="194.62624" x2="272.47065" y2="198.79363" gradientUnits="userSpaceOnUse" id="color-83"><stop offset="0" stop-color="#cccccc"/><stop offset="1" stop-color="#898989"/></linearGradient><radialGradient cx="272.83316" cy="192.84434" r="1.5439" gradientUnits="userSpaceOnUse" id="color-84"><stop offset="0" stop-color="#e2e2e2"/><stop offset="1" stop-color="#c8c8c8"/></radialGradient><linearGradient x1="273.51933" y1="191.81508" x2="273.51933" y2="194.84569" gradientUnits="userSpaceOnUse" id="color-85"><stop offset="0" stop-color="#cccccc"/><stop offset="1" stop-color="#898989"/></linearGradient><radialGradient cx="270.28209" cy="192.7514" r="1.74532" gradientUnits="userSpaceOnUse" id="color-86"><stop offset="0" stop-color="#ebebeb"/><stop offset="1" stop-color="#dbdbdb"/></radialGradient><linearGradient x1="271.05779" y1="191.58784" x2="271.05779" y2="195.01385" gradientUnits="userSpaceOnUse" id="color-87"><stop offset="0" stop-color="#cccccc"/><stop offset="1" stop-color="#898989"/></linearGradient><radialGradient cx="276.64064" cy="199.39319" r="1.74532" gradientUnits="userSpaceOnUse" id="color-88"><stop offset="0" stop-color="#e1e1e1"/><stop offset="1" stop-color="#d0d0d0"/></radialGradient><linearGradient x1="277.41634" y1="198.22964" x2="277.41634" y2="201.65564" gradientUnits="userSpaceOnUse" id="color-89"><stop offset="0" stop-color="#cccccc"/><stop offset="1" stop-color="#898989"/></linearGradient><radialGradient cx="274.22178" cy="199.42405" r="1.5439" gradientUnits="userSpaceOnUse" id="color-90"><stop offset="0" stop-color="#ebebeb"/><stop offset="1" stop-color="#d9d9d9"/></radialGradient><linearGradient x1="274.90795" y1="198.39479" x2="274.90795" y2="201.4254" gradientUnits="userSpaceOnUse" id="color-91"><stop offset="0" stop-color="#cccccc"/><stop offset="1" stop-color="#898989"/></linearGradient><radialGradient cx="272.83969" cy="196.72449" r="2.123" gradientUnits="userSpaceOnUse" id="color-92"><stop offset="0" stop-color="#ffffff"/><stop offset="1" stop-color="#dbdbdb"/></radialGradient><linearGradient x1="273.78325" y1="195.30915" x2="273.78325" y2="199.47653" gradientUnits="userSpaceOnUse" id="color-93"><stop offset="0" stop-color="#cccccc"/><stop offset="1" stop-color="#898989"/></linearGradient><radialGradient cx="277.17834" cy="196.58789" r="2.18246" gradientUnits="userSpaceOnUse" id="color-94"><stop offset="0" stop-color="#e7e7e7"/><stop offset="1" stop-color="#cbcbcb"/></radialGradient><linearGradient x1="278.14833" y1="195.13292" x2="278.14833" y2="199.417" gradientUnits="userSpaceOnUse" id="color-95"><stop offset="0" stop-color="#cccccc"/><stop offset="1" stop-color="#898989"/></linearGradient><radialGradient cx="275.42856" cy="197.34438" r="2.123" gradientUnits="userSpaceOnUse" id="color-96"><stop offset="0" stop-color="#f7f7f7"/><stop offset="1" stop-color="#d7d7d7"/></radialGradient><linearGradient x1="276.37212" y1="195.92904" x2="276.37212" y2="200.09643" gradientUnits="userSpaceOnUse" id="color-97"><stop offset="0" stop-color="#cccccc"/><stop offset="1" stop-color="#898989"/></linearGradient><radialGradient cx="276.73462" cy="194.14714" r="1.5439" gradientUnits="userSpaceOnUse" id="color-98"><stop offset="0" stop-color="#e2e2e2"/><stop offset="1" stop-color="#c8c8c8"/></radialGradient><linearGradient x1="277.42079" y1="193.11788" x2="277.42079" y2="196.14849" gradientUnits="userSpaceOnUse" id="color-99"><stop offset="0" stop-color="#cccccc"/><stop offset="1" stop-color="#898989"/></linearGradient><radialGradient cx="274.18356" cy="194.0542" r="1.74532" gradientUnits="userSpaceOnUse" id="color-100"><stop offset="0" stop-color="#ebebeb"/><stop offset="1" stop-color="#dbdbdb"/></radialGradient><linearGradient x1="274.95926" y1="192.89064" x2="274.95926" y2="196.31665" gradientUnits="userSpaceOnUse" id="color-101"><stop offset="0" stop-color="#cccccc"/><stop offset="1" stop-color="#898989"/></linearGradient></defs><g transform="translate(-240.5,-150.14676)"><g data-paper-data="{&quot;isPaintingLayer&quot;:true}" fill-rule="nonzero" stroke-linecap="butt" stroke-linejoin="miter" stroke-miterlimit="10" stroke-dasharray="" stroke-dashoffset="0" style="mix-blend-mode: normal"><path d="M242,208.35338v-56.70662h56v56.70662z" fill="url(#color-1)" stroke="url(#color-2)" stroke-width="3"/><path d="M296.8571,180.00002c0,14.75036 -12.02433,26.70789 -26.8571,26.70789c-14.83277,0 -26.8571,-11.95753 -26.8571,-26.70789c0,-14.75036 12.02433,-26.70789 26.8571,-26.70789c14.83277,0 26.8571,11.95753 26.8571,26.70789z" fill="url(#color-3)" stroke="url(#color-4)" stroke-width="0"/><path d="M270,203.13325c-11.36129,0 -20.57143,-1.02334 -20.57143,-2.28571c0,-1.26236 9.21014,-2.28571 20.57143,-2.28571c11.36129,0 20.57143,1.02334 20.57143,2.28571c0,1.26236 -9.21014,2.28571 -20.57143,2.28571z" fill="url(#color-5)" stroke="url(#color-6)" stroke-width="1"/><path d="M245.27327,163.339v-8.69862h44.14224v8.69862z" fill-opacity="0.53453" fill="#000000" stroke="#a60000" stroke-width="0"/><text transform="translate(245.70712,161.61523) scale(0.21839,0.21839)" font-size="40" xml:space="preserve" fill="#ffffff" fill-rule="nonzero" stroke="#000000" stroke-width="0" stroke-linecap="butt" stroke-linejoin="miter" stroke-miterlimit="10" stroke-dasharray="" stroke-dashoffset="0" font-family="Serif" font-weight="normal" text-anchor="start" style="mix-blend-mode: normal"><tspan x="0" dy="0">Agricultural</tspan></text><g stroke="none"><g><path d="M275.55026,177.06319l-1.78778,0.37516c0,0 -0.03626,0.01026 -0.05497,0.01731c-0.01924,0.00724 -0.05895,0.02557 -0.05895,0.02557c0,0 0.027,-0.06379 0.03086,-0.09432c0.00398,-0.03145 -0.00732,-0.09169 -0.00732,-0.09169c0,0 0.03595,0.00224 0.05388,0.00161c0.01762,-0.00062 0.05278,-0.00537 0.05278,-0.00537l1.78778,-0.37516c0,0 0.03904,-0.00957 0.05626,-0.01693c0.02082,-0.00892 0.05971,-0.03107 0.05971,-0.03107c0,0 -0.03732,0.07513 -0.0413,0.10869c-0.00383,0.03237 0.01787,0.08922 0.01787,0.08922c0,0 -0.02944,-0.00842 -0.0482,-0.00895c-0.0174,-0.00049 -0.06062,0.00593 -0.06062,0.00593z" data-paper-data="{&quot;index&quot;:null}" fill="url(#color-7)" stroke-width="NaN"/><path d="M274.61421,175.8035c0.00664,-0.01762 0.00997,-0.04811 0.00997,-0.04811c0,0 0.04453,0.04169 0.07601,0.0504c0.03265,0.00905 0.11649,0.0029 0.11649,0.0029c0,0 -0.03528,0.02768 -0.05146,0.04362c-0.01337,0.01316 -0.03704,0.04576 -0.03704,0.04576l-1.02583,1.5162c0,0 -0.01774,0.03082 -0.02499,0.04692c-0.00738,0.0164 -0.01894,0.0506 -0.01894,0.0506c0,0 -0.05161,-0.03332 -0.08229,-0.04155c-0.02978,-0.00799 -0.0992,-0.00714 -0.0992,-0.00714c0,0 0.03205,-0.02988 0.04606,-0.045c0.01362,-0.01469 0.03689,-0.04443 0.03689,-0.04443l1.02583,-1.5162c0,0 0.02235,-0.03765 0.02849,-0.05399z" data-paper-data="{&quot;index&quot;:null}" fill="url(#color-8)" stroke-width="NaN"/><path d="M276.1454,175.01012l-1.44391,0.94576c0,0 -0.0291,0.02144 -0.044,0.03396c-0.01532,0.01289 -0.04669,0.04236 -0.04669,0.04236c0,0 0.01777,-0.06352 0.01881,-0.09073c0.00108,-0.02804 -0.01239,-0.0751 -0.01239,-0.0751c0,0 0.02972,-0.01072 0.04442,-0.01756c0.01444,-0.00671 0.04303,-0.02309 0.04303,-0.02309l1.44391,-0.94577c0,0 0.03145,-0.02182 0.04507,-0.03411c0.01651,-0.01487 0.04693,-0.04729 0.04693,-0.04729c0,0 -0.02545,0.07675 -0.0264,0.10658c-0.0009,0.02876 0.02091,0.06931 0.02091,0.06931c0,0 -0.02479,0.0032 -0.04025,0.00935c-0.01435,0.00571 -0.04944,0.02632 -0.04944,0.02632z" data-paper-data="{&quot;index&quot;:null}" fill="url(#color-9)" stroke-width="NaN"/><path d="M277.40571,176.91083l-1.71818,0.12006c0,0 -0.03578,0.00448 -0.05487,0.00815c-0.01963,0.00377 -0.06131,0.01413 -0.06131,0.01413c0,0 0.04642,-0.04667 0.06059,-0.06984c0.01461,-0.02388 0.0258,-0.07143 0.0258,-0.07143c0,0 0.03111,0.00514 0.04724,0.00636c0.01585,0.00119 0.04873,0.00085 0.04873,0.00085l1.71818,-0.12006c0,0 0.03801,-0.00367 0.05587,-0.00773c0.02161,-0.00492 0.06392,-0.01832 0.06392,-0.01832c0,0 -0.05957,0.05443 -0.07491,0.07995c-0.01479,0.02461 -0.01556,0.07054 -0.01556,0.07054c0,0 -0.02315,-0.0093 -0.03962,-0.01147c-0.01528,-0.00202 -0.05587,-0.00117 -0.05587,-0.00117z" data-paper-data="{&quot;index&quot;:null}" fill="url(#color-10)" stroke-width="NaN"/><path d="M277.11506,175.87329c0.01152,-0.01196 0.02384,-0.03365 0.02384,-0.03365c0,0 0.02922,0.03545 0.05613,0.04547c0.02791,0.0104 0.10841,0.01585 0.10841,0.01585c0,0 -0.04144,0.01587 -0.06141,0.02551c-0.0165,0.00794 -0.04852,0.02876 -0.04852,0.02876l-1.41869,0.97668c0,0 -0.02592,0.02022 -0.03756,0.03103c-0.01187,0.01101 -0.03298,0.0344 -0.03298,0.0344c0,0 -0.03838,-0.03022 -0.06469,-0.03979c-0.02553,-0.00931 -0.09091,-0.01689 -0.09091,-0.01689c0,0 0.03906,-0.01786 0.05675,-0.02714c0.0172,-0.00904 0.04798,-0.02782 0.04798,-0.02782l1.41868,-0.97668c0,0 0.03229,-0.02462 0.04298,-0.03572z" data-paper-data="{&quot;index&quot;:null}" fill="url(#color-11)" stroke-width="NaN"/><path d="M279.46337,177.18211c0,0 -1.43244,-0.09583 -1.74613,-0.16326c-0.31369,-0.06743 -0.53856,-0.15312 -0.43193,-0.32288c0.10999,-0.17508 0.39036,-0.14611 0.70405,-0.07867c0.31369,0.06743 1.47401,0.56482 1.47401,0.56482z" fill="url(#color-12)" stroke-width="0"/><path d="M278.69286,177.88571c0,0 -0.98049,-0.5124 -1.18078,-0.65738c-0.2003,-0.14497 -0.33228,-0.27523 -0.20437,-0.36184c0.13194,-0.08934 0.32067,0.01818 0.52097,0.16315c0.2003,0.14497 0.86417,0.85607 0.86417,0.85607z" fill="url(#color-13)" stroke-width="0"/><path d="M279.0461,175.60395c0,0 -1.21971,0.35252 -1.50085,0.3911c-0.28113,0.0386 -0.49391,0.03519 -0.45648,-0.1381c0.0386,-0.17873 0.28044,-0.23924 0.56155,-0.27782c0.28113,-0.0386 1.39577,0.02481 1.39577,0.02481z" fill="url(#color-14)" stroke-width="0"/><path d="M270.77016,177.76278l-1.05609,2.2574c0,0 -0.01852,0.04796 -0.02618,0.07414c-0.00787,0.02693 -0.02044,0.08525 -0.02044,0.08525c0,0 -0.04745,-0.08174 -0.07758,-0.11096c-0.03104,-0.03012 -0.106,-0.06718 -0.106,-0.06718c0,0 0.03192,-0.03737 0.04592,-0.05745c0.01376,-0.01972 0.03739,-0.06197 0.03739,-0.06197l1.05609,-2.2574c0,0 0.02157,-0.05042 0.02764,-0.07523c0.00734,-0.03002 0.01505,-0.0906 0.01505,-0.0906c0,0 0.05136,0.10228 0.08471,0.13413c0.03216,0.03071 0.11197,0.05365 0.11197,0.05365c0,0 -0.03332,0.0252 -0.04928,0.04525c-0.01479,0.01859 -0.04322,0.07099 -0.04322,0.07099z" data-paper-data="{&quot;index&quot;:null}" fill="url(#color-15)" stroke-width="NaN"/><path d="M268.1125,180.22535l2.43667,-0.55906c0,0 0.04721,-0.01906 0.07013,-0.03397c0.02358,-0.01534 0.0694,-0.0568 0.0694,-0.0568c0,0 0.01146,0.17751 0.03086,0.26514c0.01999,0.09029 0.08738,0.26887 0.08738,0.26887c0,0 -0.05713,-0.01723 -0.08417,-0.02073c-0.02657,-0.00343 -0.07668,-0.00007 -0.07668,-0.00007l-2.43667,0.55906c0,0 -0.05208,0.0162 -0.07241,0.03253c-0.0246,0.01975 -0.066,0.07259 -0.066,0.07259c0,0 -0.005,-0.2074 -0.02676,-0.30385c-0.02098,-0.09298 -0.10155,-0.26485 -0.10155,-0.26485c0,0 0.05226,0.03327 0.08154,0.04037c0.02715,0.00659 0.08825,0.00078 0.08825,0.00078z" fill="url(#color-16)" stroke-width="NaN"/><path d="M272.49261,178.69931l-1.63,1.24749c0,0 -0.02878,0.03032 -0.04083,0.04926c-0.01238,0.01948 -0.0325,0.06606 -0.0325,0.06606c0,0 -0.06902,-0.1287 -0.11336,-0.18757c-0.04569,-0.06064 -0.15683,-0.17111 -0.15683,-0.17111c0,0 0.04855,-0.00659 0.06993,-0.01317c0.02101,-0.00648 0.05731,-0.02606 0.05731,-0.02606l1.63001,-1.24749c0,0 0.03339,-0.02985 0.04302,-0.04895c0.01165,-0.02314 0.02459,-0.0767 0.02459,-0.0767c0,0 0.07436,0.15325 0.12346,0.21789c0.04734,0.06233 0.16607,0.16327 0.16607,0.16327c0,0 -0.05037,-0.00707 -0.07467,-0.0024c-0.02253,0.00433 -0.0662,0.02947 -0.0662,0.02947z" data-paper-data="{&quot;index&quot;:null}" fill="url(#color-17)" stroke-width="NaN"/><path d="M272.12474,175.61418l-1.27729,1.97243c0,0 -0.02443,0.0427 -0.03609,0.06651c-0.01197,0.02449 -0.03482,0.07844 -0.03482,0.07844c0,0 -0.01284,-0.08887 -0.02652,-0.12334c-0.01408,-0.0355 -0.05678,-0.08669 -0.05678,-0.08669c0,0 0.0311,-0.02971 0.04564,-0.04631c0.01429,-0.01632 0.04086,-0.05244 0.04086,-0.05244l1.27729,-1.97243c0,0 0.02714,-0.04448 0.03735,-0.06728c0.01236,-0.0276 0.03242,-0.08472 0.03242,-0.08472c0,0 0.01054,0.10958 0.0258,0.14723c0.01471,0.0363 0.06417,0.07479 0.06417,0.07479c0,0 -0.02911,0.01764 -0.04498,0.0338c-0.01472,0.015 -0.04706,0.05998 -0.04706,0.05998z" data-paper-data="{&quot;index&quot;:null}" fill="url(#color-18)" stroke-width="NaN"/><path d="M270.75487,175.08081c-0.0036,-0.02237 -0.01717,-0.05359 -0.01717,-0.05359c0,0 0.06261,-0.00282 0.0956,-0.02395c0.03421,-0.02191 0.10614,-0.10524 0.10614,-0.10524c0,0 -0.01664,0.05821 -0.02251,0.08787c-0.00484,0.02451 -0.0084,0.07649 -0.0084,0.07649l-0.0975,2.34785c0,0 0.0008,0.04484 0.00304,0.06641c0.00227,0.02196 0.01048,0.06417 0.01048,0.06417c0,0 -0.06442,0.0171 -0.09643,0.03794c-0.03107,0.02024 -0.09292,0.08533 -0.09292,0.08533c0,0 0.01254,-0.05723 0.01693,-0.08414c0.00426,-0.02617 0.00899,-0.07514 0.00899,-0.07514l0.0975,-2.34786c0,0 -0.00039,-0.05541 -0.00374,-0.07615z" data-paper-data="{&quot;index&quot;:null}" fill="url(#color-19)" stroke-width="NaN"/><path d="M273.8505,179.59637c0.02508,-0.00522 0.06259,-0.02362 0.06259,-0.02362c0,0 -0.01545,0.08159 -0.00252,0.12414c0.01341,0.04412 0.08163,0.13602 0.08163,0.13602c0,0 -0.05757,-0.02038 -0.08768,-0.02734c-0.02487,-0.00575 -0.07961,-0.00921 -0.07961,-0.00921l-2.49114,-0.07343c0,0 -0.04837,0.00209 -0.07219,0.00549c-0.02424,0.00347 -0.07197,0.01513 -0.07197,0.01513c0,0 0.00066,-0.08362 -0.01225,-0.1249c-0.01254,-0.04006 -0.06415,-0.11924 -0.06415,-0.11924c0,0 0.05773,0.01504 0.08531,0.02013c0.02683,0.00496 0.07799,0.01002 0.07799,0.01002l2.49115,0.07343c0,0 0.05958,-0.00178 0.08284,-0.00662z" data-paper-data="{&quot;index&quot;:null}" fill="url(#color-20)" stroke-width="NaN"/><path d="M276.37081,179.34592c0.02159,-0.00689 0.05045,-0.02494 0.05045,-0.02494c0,0 0.01209,0.0615 0.03788,0.09098c0.02675,0.03058 0.11986,0.08932 0.11986,0.08932c0,0 -0.06003,-0.00781 -0.09025,-0.00921c-0.02495,-0.00115 -0.07689,0.00306 -0.07689,0.00306l-2.33629,0.25238c0,0 -0.04422,0.00746 -0.06522,0.01288c-0.02137,0.00551 -0.06191,0.0199 -0.06191,0.0199c0,0 -0.02648,-0.06116 -0.05184,-0.08973c-0.02462,-0.02773 -0.09818,-0.07922 -0.09818,-0.07922c0,0 0.05846,0.00389 0.08572,0.00422c0.0265,0.00032 0.07564,-0.00227 0.07564,-0.00227l2.33629,-0.25238c0,0 0.05472,-0.00862 0.07474,-0.01501z" data-paper-data="{&quot;index&quot;:null}" fill="url(#color-21)" stroke-width="NaN"/><path d="M276.08918,180.78662l-2.14029,-0.97008c0,0 -0.04586,-0.01782 -0.07114,-0.02581c-0.02599,-0.0082 -0.08275,-0.02278 -0.08275,-0.02278c0,0 0.08597,-0.02591 0.11802,-0.04455c0.03302,-0.0192 0.07729,-0.06902 0.07729,-0.06902c0,0 0.034,0.02634 0.05258,0.03826c0.01825,0.01171 0.05793,0.03262 0.05793,0.03262l2.14029,0.97008c0,0 0.04802,0.02023 0.07208,0.02694c0.02913,0.00812 0.0886,0.01946 0.0886,0.01946c0,0 -0.10679,0.0267 -0.14176,0.04738c-0.03372,0.01994 -0.06443,0.07457 -0.06443,0.07457c0,0 -0.02177,-0.02616 -0.04012,-0.03945c-0.01703,-0.01233 -0.06631,-0.03763 -0.06631,-0.03763z" data-paper-data="{&quot;index&quot;:null}" fill="url(#color-22)" stroke-width="NaN"/><path d="M273.65843,177.51931l-1.08828,1.06453c0,0 -0.01847,0.0249 -0.02564,0.03993c-0.00738,0.01545 -0.01801,0.05156 -0.01801,0.05156c0,0 -0.06235,-0.08858 -0.10027,-0.12794c-0.03907,-0.04055 -0.13081,-0.11193 -0.13081,-0.11193c0,0 0.03515,-0.0092 0.05032,-0.01597c0.01489,-0.00666 0.03986,-0.02433 0.03986,-0.02433l1.08828,-1.06453c0,0 0.02191,-0.02497 0.02729,-0.0399c0.00651,-0.01808 0.01122,-0.05868 0.01122,-0.05868c0,0 0.06849,0.10616 0.11043,0.14935c0.04044,0.04165 0.1369,0.10533 0.1369,0.10533c0,0 -0.03771,-0.00069 -0.05518,0.00493c-0.0162,0.0052 -0.0461,0.02764 -0.0461,0.02764z" data-paper-data="{&quot;index&quot;:null}" fill="url(#color-23)" stroke-width="NaN"/><path d="M278.75572,181.93082c0,0 -1.89457,-0.5208 -2.29675,-0.69714c-0.40217,-0.17634 -0.68023,-0.35282 -0.49077,-0.55124c0.19542,-0.20467 0.56347,-0.08902 0.96564,0.08732c0.40217,0.17634 1.82188,1.16105 1.82188,1.16105z" fill="url(#color-24)" stroke-width="0"/><path d="M279.35887,178.93775c0,0 -1.92759,0.64152 -2.3746,0.72117c-0.447,0.07965 -0.78741,0.08781 -0.73866,-0.19162c0.0503,-0.28824 0.43308,-0.4004 0.88007,-0.48006c0.447,-0.07965 2.23316,-0.04948 2.23316,-0.04948z" fill="url(#color-25)" stroke-width="0"/><path d="M274.1071,173.59223c0,0 -1.27856,1.48382 -1.60922,1.7707c-0.33065,0.28688 -0.60842,0.4619 -0.70618,0.20648c-0.10083,-0.26346 0.16058,-0.54551 0.49124,-0.83239c0.33065,-0.28688 1.82415,-1.14479 1.82415,-1.14479z" fill="url(#color-26)" stroke-width="0"/><path d="M274.24298,175.00932c0,0 -1.3625,0.64944 -1.68478,0.7491c-0.32228,0.09964 -0.57254,0.13683 -0.56216,-0.07367c0.0107,-0.21712 0.28266,-0.33486 0.60494,-0.4345c0.32228,-0.09964 1.642,-0.24092 1.642,-0.24092z" fill="url(#color-27)" stroke-width="0"/><path d="M272.04381,172.75386c0,0 -0.6152,1.61927 -0.80353,1.95752c-0.18833,0.33825 -0.36642,0.56755 -0.52476,0.38471c-0.16331,-0.1886 -0.03108,-0.50195 0.15724,-0.8402c0.18833,-0.33825 1.17105,-1.50203 1.17105,-1.50203z" fill="url(#color-28)" stroke-width="0"/><path d="M275.45062,174.14175c0.00423,-0.01611 0.00437,-0.0411 0.00437,-0.0411c0,0 0.0429,0.0167 0.07133,0.01231c0.02949,-0.00455 0.10258,-0.03919 0.10258,-0.03919c0,0 -0.02846,0.03416 -0.04122,0.05235c-0.01053,0.01503 -0.02837,0.04889 -0.02837,0.04889l-0.7628,1.54837c0,0 -0.01278,0.03036 -0.01767,0.04552c-0.00499,0.01543 -0.01202,0.04623 -0.01202,0.04623c0,0 -0.04835,-0.00764 -0.07606,-0.00315c-0.02689,0.00436 -0.08777,0.02972 -0.08777,0.02972c0,0 0.02541,-0.03473 0.03636,-0.0515c0.01064,-0.01631 0.02837,-0.04781 0.02837,-0.04781l0.7628,-1.54837c0,0 0.01619,-0.03734 0.02011,-0.05227z" data-paper-data="{&quot;index&quot;:null}" fill="url(#color-29)" stroke-width="NaN"/><path d="M278.15351,173.98959c0,0 -1.25048,0.72063 -1.5503,0.83963c-0.29981,0.119 -0.53559,0.17309 -0.54139,-0.02835c-0.00597,-0.20777 0.2445,-0.34029 0.54432,-0.45928c0.29981,-0.119 1.54736,-0.352 1.54736,-0.352z" fill="url(#color-30)" stroke-width="0"/><path d="M276.84176,172.36396c0,0 -0.76883,1.27894 -0.98014,1.53697c-0.21131,0.25803 -0.39732,0.42525 -0.50365,0.24605c-0.10966,-0.18484 0.05027,-0.43031 0.26159,-0.68834c0.21131,-0.25803 1.22219,-1.09468 1.22219,-1.09468z" fill="url(#color-31)" stroke-width="0"/></g><g data-paper-data="{&quot;index&quot;:null}"><path d="M261.4244,169.59749c-0.01815,-0.00716 -0.04973,-0.01112 -0.04973,-0.01112c0,0 0.04395,-0.0455 0.0535,-0.07799c0.00991,-0.03371 0.0049,-0.12075 0.0049,-0.12075c0,0 0.02813,0.03704 0.04439,0.05407c0.01344,0.01407 0.04685,0.03915 0.04685,0.03915l1.55559,1.08829c0,0 0.03167,0.0189 0.04825,0.02669c0.01688,0.00792 0.05216,0.02045 0.05216,0.02045c0,0 -0.03539,0.05298 -0.04442,0.08466c-0.00877,0.03075 -0.009,0.10275 -0.009,0.10275c0,0 -0.03047,-0.03371 -0.04591,-0.0485c-0.01501,-0.01437 -0.04547,-0.03898 -0.04547,-0.03898l-1.55559,-1.08829c0,0 -0.03869,-0.02377 -0.05552,-0.03042z" data-paper-data="{&quot;index&quot;:null}" fill="url(#color-32)" stroke-width="NaN"/><path d="M262.89396,168.86923l0.36159,1.86789c0,0 0.0101,0.03792 0.01712,0.05753c0.00723,0.02016 0.02566,0.0618 0.02566,0.0618c0,0 -0.06599,-0.02916 -0.09772,-0.03367c-0.03268,-0.00466 -0.09561,0.00613 -0.09561,0.00613c0,0 0.00292,-0.0374 0.00256,-0.05608c-0.00036,-0.01836 -0.00474,-0.05505 -0.00474,-0.05505l-0.36159,-1.86789c0,0 -0.00933,-0.04082 -0.01673,-0.05886c-0.00895,-0.02183 -0.03139,-0.06269 -0.03139,-0.06269c0,0 0.07764,0.0401 0.11252,0.04477c0.03365,0.00451 0.09322,-0.01716 0.09322,-0.01716c0,0 -0.00926,0.03052 -0.0101,0.05006c-0.00079,0.01812 0.00519,0.06323 0.00519,0.06323z" data-paper-data="{&quot;index&quot;:null}" fill="url(#color-33)" stroke-width="NaN"/><path d="M261.7126,167.37738c-0.01227,-0.0122 -0.03467,-0.02537 -0.03467,-0.02537c0,0 0.03739,-0.02986 0.04825,-0.05771c0.01128,-0.0289 0.01828,-0.11263 0.01828,-0.11263c0,0 0.01586,0.04342 0.02555,0.06436c0.00802,0.0173 0.02916,0.051 0.02916,0.051l0.99403,1.49331c0,0 0.02063,0.02732 0.0317,0.03964c0.01126,0.01253 0.03528,0.03491 0.03528,0.03491c0,0 -0.0321,0.03948 -0.0425,0.06671c-0.0101,0.02644 -0.01905,0.09439 -0.01905,0.09439c0,0 -0.01797,-0.04097 -0.02734,-0.05955c-0.00912,-0.01807 -0.02819,-0.05042 -0.02819,-0.05042l-0.99403,-1.49331c0,0 -0.02512,-0.03403 -0.0365,-0.04534z" data-paper-data="{&quot;index&quot;:null}" fill="url(#color-34)" stroke-width="NaN"/><path d="M259.71481,168.70326c-0.01663,-0.00464 -0.04256,-0.0052 -0.04256,-0.0052c0,0 0.01801,-0.04421 0.01391,-0.07377c-0.00426,-0.03066 -0.03896,-0.10699 -0.03896,-0.10699c0,0 0.03495,0.03008 0.05361,0.04359c0.01541,0.01116 0.05025,0.0302 0.05025,0.0302l1.59321,0.81606c0,0 0.03127,0.01374 0.04691,0.01907c0.0159,0.00543 0.04774,0.01321 0.04774,0.01321c0,0 -0.00871,0.05002 -0.0045,0.0788c0.00408,0.02794 0.0294,0.09149 0.0294,0.09149c0,0 -0.0356,-0.02692 -0.05282,-0.03852c-0.01675,-0.01129 -0.04911,-0.03018 -0.04911,-0.03018l-1.59321,-0.81606c0,0 -0.03845,-0.01739 -0.05388,-0.02169z" data-paper-data="{&quot;index&quot;:null}" fill="url(#color-35)" stroke-width="NaN"/><path d="M260.49648,167.9036l0.95731,1.51256c0,0 0.02175,0.03052 0.03451,0.04617c0.01312,0.01609 0.04316,0.04911 0.04316,0.04911c0,0 -0.06558,-0.01945 -0.09378,-0.02099c-0.02906,-0.00157 -0.07808,0.01164 -0.07808,0.01164c0,0 -0.01064,-0.03099 -0.01749,-0.04634c-0.00673,-0.01509 -0.02325,-0.04499 -0.02325,-0.04499l-0.95731,-1.51256c0,0 -0.02212,-0.03296 -0.03464,-0.0473c-0.01516,-0.01735 -0.04828,-0.04944 -0.04828,-0.04944c0,0 0.07918,0.02765 0.11009,0.02909c0.02981,0.0014 0.07221,-0.02054 0.07221,-0.02054c0,0 0.00291,0.02576 0.00904,0.0419c0.00568,0.01496 0.02649,0.05169 0.02649,0.05169z" data-paper-data="{&quot;index&quot;:null}" fill="url(#color-36)" stroke-width="NaN"/><path d="M259.33066,168.20618c0.32735,0.06358 0.60716,0.15033 0.64081,0.36257c0.03262,0.20577 -0.21728,0.19588 -0.54462,0.13229c-0.32735,-0.06358 -1.73558,-0.55668 -1.73558,-0.55668c0,0 1.31204,-0.00177 1.63938,0.06182z" fill="url(#color-37)" stroke-width="0"/><path d="M259.31592,168.66588c0.25061,-0.05681 0.4749,-0.08252 0.56454,0.05672c0.08691,0.13499 -0.0924,0.20561 -0.34302,0.26242c-0.25061,0.05681 -1.3969,0.14635 -1.3969,0.14635c0,0 0.92477,-0.40869 1.17539,-0.46548z" fill="url(#color-38)" stroke-width="0"/><path d="M260.07845,167.3523c0.25295,0.15162 0.45938,0.30816 0.42333,0.49474c-0.03496,0.1809 -0.23972,0.09728 -0.49266,-0.05434c-0.25295,-0.15162 -1.27485,-0.98641 -1.27485,-0.98641c0,0 1.09124,0.39438 1.34418,0.546z" fill="url(#color-39)" stroke-width="0"/><path d="M265.75078,172.16221c-0.00706,-0.02567 -0.02863,-0.06335 -0.02863,-0.06335c0,0 0.08566,0.01065 0.12892,-0.00557c0.04488,-0.01682 0.13571,-0.09363 0.13571,-0.09363c0,0 -0.01735,0.06105 -0.02259,0.09274c-0.00434,0.02618 -0.00431,0.08318 -0.00431,0.08318l0.08799,2.58866c0,0 0.00534,0.05002 0.01045,0.0745c0.0052,0.02491 0.02044,0.07365 0.02044,0.07365c0,0 -0.08677,0.00483 -0.12874,0.02093c-0.04073,0.01564 -0.11944,0.07439 -0.11944,0.07439c0,0 0.0118,-0.06087 0.01526,-0.08981c0.00337,-0.02815 0.00524,-0.08155 0.00524,-0.08155l-0.08798,-2.58867c0,0 -0.00578,-0.06168 -0.01233,-0.08549z" data-paper-data="{&quot;index&quot;:null}" fill="url(#color-40)" stroke-width="NaN"/><path d="M267.38278,175.72146c0.03088,0.00516 0.09441,-0.00531 0.09441,-0.00531c0,0 -0.14716,0.13137 -0.20517,0.21168c-0.06017,0.0833 -0.1496,0.27949 -0.1496,0.27949c0,0 -0.01801,-0.06739 -0.03345,-0.09633c-0.01277,-0.0239 -0.05594,-0.06064 -0.05594,-0.06064l-2.10074,-1.52893c0,0 -0.04652,-0.02367 -0.07331,-0.03122c-0.02727,-0.00769 -0.08891,-0.01454 -0.08891,-0.01454c0,0 0.13728,-0.14318 0.19325,-0.22132c0.05432,-0.07584 0.13772,-0.24082 0.13772,-0.24082c0,0 0.02688,0.05834 0.04314,0.08261c0.01582,0.0236 0.05317,0.06109 0.05317,0.06109l2.10074,1.52893c0,0 0.05603,0.03049 0.08467,0.03528z" fill="url(#color-41)" stroke-width="NaN"/><path d="M263.68331,172.38456c-0.02131,-0.01438 -0.07234,-0.02819 -0.07234,-0.02819c0,0 0.15469,-0.04803 0.22537,-0.08827c0.07332,-0.04174 0.20695,-0.15786 0.20695,-0.15786c0,0 -0.00951,0.05649 -0.00781,0.08335c0.00141,0.02219 0.02114,0.06434 0.02114,0.06434l1.04874,1.85766c0,0 0.02669,0.03352 0.04414,0.04829c0.01775,0.01504 0.06147,0.04114 0.06147,0.04114c0,0 -0.15133,0.06022 -0.21975,0.09953c-0.06642,0.03816 -0.1849,0.13301 -0.1849,0.13301c0,0 -0.00021,-0.05273 -0.0041,-0.07641c-0.00378,-0.02303 -0.0189,-0.06375 -0.0189,-0.06375l-1.04874,-1.85766c0,0 -0.03148,-0.04186 -0.05124,-0.05519z" data-paper-data="{&quot;index&quot;:null}" fill="url(#color-42)" stroke-width="NaN"/><path d="M265.32494,169.56464c-0.00857,-0.02194 -0.02919,-0.05068 -0.02919,-0.05068c0,0 0.06298,-0.0166 0.09187,-0.04529c0.02996,-0.02976 0.08476,-0.13019 0.08476,-0.13019c0,0 -0.00414,0.06278 -0.0036,0.0942c0.00045,0.02596 0.00823,0.07956 0.00823,0.07956l0.41572,2.40657c0,0 0.01065,0.04537 0.01765,0.0668c0.00712,0.02181 0.02472,0.0629 0.02472,0.0629c0,0 -0.0617,0.03148 -0.08965,0.05968c-0.02712,0.02736 -0.07569,0.10706 -0.07569,0.10706c0,0 0.00019,-0.0609 -0.00125,-0.08918c-0.00141,-0.02751 -0.00734,-0.0783 -0.00734,-0.0783l-0.41572,-2.40656c0,0 -0.01254,-0.0562 -0.0205,-0.07655z" data-paper-data="{&quot;index&quot;:null}" fill="url(#color-43)" stroke-width="NaN"/><path d="M266.83778,169.76182l-0.86514,2.28384c0,0 -0.01546,0.04874 -0.02207,0.07549c-0.00679,0.0275 -0.01818,0.08732 -0.01818,0.08732c0,0 -0.03253,-0.08746 -0.05399,-0.11948c-0.02209,-0.03299 -0.07669,-0.07562 -0.07669,-0.07562c0,0 0.02508,-0.03701 0.03622,-0.05706c0.01094,-0.0197 0.03002,-0.06223 0.03002,-0.06223l0.86515,-2.28384c0,0 0.01781,-0.05114 0.02319,-0.07655c0.00651,-0.03075 0.01435,-0.09318 0.01435,-0.09318c0,0 0.03474,0.10901 0.05849,0.14393c0.02291,0.03365 0.0816,0.06191 0.0816,0.06191c0,0 -0.02571,0.0243 -0.03829,0.04421c-0.01167,0.01846 -0.03466,0.07126 -0.03466,0.07126z" data-paper-data="{&quot;index&quot;:null}" fill="url(#color-44)" stroke-width="NaN"/><path d="M262.14703,172.78305l2.41097,0.94663c0,0 0.05097,0.01605 0.07863,0.02227c0.02845,0.0064 0.08976,0.01558 0.08976,0.01558c0,0 -0.08164,0.05461 -0.10999,0.08778c-0.02919,0.03418 -0.06269,0.11437 -0.06269,0.11437c0,0 -0.04086,-0.03064 -0.06261,-0.04385c-0.02136,-0.01298 -0.06675,-0.03471 -0.06675,-0.03471l-2.41097,-0.94663c0,0 -0.05373,-0.01905 -0.07986,-0.0237c-0.03162,-0.00564 -0.09496,-0.00965 -0.09496,-0.00965c0,0 0.10271,-0.06 0.13354,-0.0967c0.02973,-0.03539 0.04826,-0.11967 0.04826,-0.11967c0,0 0.02834,0.0329 0.05018,0.04812c0.02026,0.01412 0.07648,0.04014 0.07648,0.04014z" data-paper-data="{&quot;index&quot;:null}" fill="url(#color-45)" stroke-width="NaN"/><path d="M259.82922,171.51967l2.12997,1.19483c0,0 0.0459,0.02253 0.07137,0.03305c0.02618,0.01081 0.08364,0.03095 0.08364,0.03095c0,0 -0.09133,0.01919 -0.12618,0.03563c-0.0359,0.01695 -0.08617,0.0646 -0.08617,0.0646c0,0 -0.03287,-0.03031 -0.05104,-0.04429c-0.01787,-0.01374 -0.05708,-0.03893 -0.05708,-0.03893l-2.12996,-1.19483c0,0 -0.04792,-0.02523 -0.07225,-0.0343c-0.02944,-0.011 -0.09002,-0.02803 -0.09002,-0.02803c0,0 0.11296,-0.01816 0.15101,-0.03646c0.03668,-0.01765 0.07334,-0.07148 0.07334,-0.07148c0,0 0.02021,0.02903 0.03804,0.04443c0.01653,0.01429 0.06532,0.04486 0.06532,0.04486z" data-paper-data="{&quot;index&quot;:null}" fill="url(#color-46)" stroke-width="NaN"/><path d="M259.36628,172.97564c-0.02297,0.00522 -0.05445,0.02135 -0.05445,0.02135c0,0 -0.00705,-0.06475 -0.03113,-0.09758c-0.02498,-0.03405 -0.11616,-0.10316 -0.11616,-0.10316c0,0 0.06147,0.01342 0.09263,0.01755c0.02574,0.00341 0.0799,0.00368 0.0799,0.00368l2.44162,-0.05357c0,0 0.04645,-0.0038 0.06868,-0.00753c0.02262,-0.00381 0.06587,-0.0151 0.06587,-0.0151c0,0 0.02198,0.06569 0.0457,0.09751c0.02303,0.0309 0.09462,0.09075 0.09462,0.09075c0,0 -0.0602,-0.00922 -0.08839,-0.012c-0.02741,-0.0027 -0.07852,-0.00437 -0.07852,-0.00437l-2.44163,0.05358c0,0 -0.05743,0.00406 -0.07874,0.00889z" data-paper-data="{&quot;index&quot;:null}" fill="url(#color-47)" stroke-width="NaN"/><path d="M263.06916,170.79084c-0.0144,-0.0125 -0.05073,-0.02722 -0.05073,-0.02722c0,0 0.11819,-0.02151 0.17385,-0.0448c0.05773,-0.02416 0.16651,-0.09767 0.16651,-0.09767c0,0 -0.01206,0.04073 -0.01321,0.06067c-0.00096,0.01646 0.00979,0.04927 0.00979,0.04927l0.60565,1.46167c0,0 0.01665,0.02707 0.02817,0.03951c0.01172,0.01266 0.04157,0.03581 0.04157,0.03581c0,0 -0.1168,0.03077 -0.17071,0.05358c-0.05231,0.02215 -0.14805,0.08136 -0.14805,0.08136c0,0 0.00456,-0.03885 0.00384,-0.05663c-0.00072,-0.01728 -0.00821,-0.04863 -0.00821,-0.04863l-0.60565,-1.46167c0,0 -0.01942,-0.03364 -0.03278,-0.04523z" data-paper-data="{&quot;index&quot;:null}" fill="url(#color-48)" stroke-width="NaN"/><path d="M258.6446,172.60587c0.45637,-0.00438 0.85534,0.03531 0.95859,0.31069c0.1001,0.26698 -0.2377,0.32216 -0.69408,0.32655c-0.45637,0.00438 -2.47976,-0.27117 -2.47976,-0.27117c0,0 1.75888,-0.3617 2.21523,-0.36608z" fill="url(#color-49)" stroke-width="0"/><path d="M259.18878,170.82383c0.39472,0.25858 0.71479,0.52204 0.64521,0.81805c-0.06745,0.28699 -0.38948,0.14022 -0.78421,-0.11835c-0.39472,-0.25858 -1.97523,-1.65852 -1.97523,-1.65852c0,0 1.71951,0.70025 2.11424,0.95882z" fill="url(#color-50)" stroke-width="0"/><path d="M265.55225,168.73823c0.19894,0.40916 0.33366,0.78544 0.12976,0.99611c-0.19769,0.20423 -0.39173,-0.07643 -0.59066,-0.4856c-0.19894,-0.40916 -0.81531,-2.34925 -0.81531,-2.34925c0,0 1.07729,1.42958 1.27623,1.83874z" fill="url(#color-51)" stroke-width="0"/><path d="M265.0388,169.09893c0.26737,0.22679 0.47924,0.45034 0.40084,0.66223c-0.076,0.20543 -0.30001,0.06773 -0.56738,-0.15904c-0.26737,-0.22679 -1.30453,-1.40365 -1.30453,-1.40365c0,0 1.20371,0.6737 1.47107,0.90049z" fill="url(#color-52)" stroke-width="0"/><path d="M267.09648,168.85398c0.04193,0.40017 0.04041,0.75363 -0.19266,0.86723c-0.22596,0.11013 -0.30259,-0.18173 -0.34452,-0.58189c-0.04193,-0.40017 0.031,-2.19894 0.031,-2.19894c0,0 0.46424,1.51346 0.50618,1.91361z" fill="url(#color-53)" stroke-width="0"/><path d="M262.76548,166.93449l0.09707,1.79127c0,0 0.00409,0.03734 0.00759,0.05728c0.0036,0.0205 0.01372,0.06406 0.01372,0.06406c0,0 -0.04783,-0.04909 -0.07175,-0.06424c-0.02464,-0.0156 -0.07397,-0.02803 -0.07397,-0.02803c0,0 0.00585,-0.03232 0.00739,-0.04909c0.0015,-0.01648 0.00169,-0.05073 0.00169,-0.05073l-0.09707,-1.79127c0,0 -0.00322,-0.03965 -0.00715,-0.05832c-0.00477,-0.02259 -0.01804,-0.06686 -0.01804,-0.06686c0,0 0.05572,0.06292 0.08204,0.07932c0.02538,0.01581 0.0732,0.01736 0.0732,0.01736c0,0 -0.01005,0.02396 -0.01259,0.04107c-0.00234,0.01587 -0.00212,0.05816 -0.00212,0.05816z" data-paper-data="{&quot;index&quot;:null}" fill="url(#color-54)" stroke-width="NaN"/><path d="M261.5816,166.59567c0.23798,0.23612 0.4233,0.465 0.33278,0.66116c-0.08776,0.19017 -0.29104,0.04223 -0.52903,-0.19388c-0.23798,-0.23612 -1.13904,-1.43529 -1.13904,-1.43529c0,0 1.09729,0.73192 1.33527,0.96803z" fill="url(#color-55)" stroke-width="0"/><path d="M262.88497,166.15445c0.09665,0.33287 0.14933,0.63278 -0.03094,0.76468c-0.17476,0.12788 -0.28429,-0.10788 -0.38094,-0.44074c-0.09665,-0.33287 -0.30945,-1.86908 -0.30945,-1.86908c0,0 0.62468,1.21227 0.72133,1.54515z" fill="url(#color-56)" stroke-width="0"/></g><g><path d="M264.2195,188.01669l0.13131,-0.64183l2.55503,0.52274l-0.13131,0.64182z" fill="url(#color-57)" stroke-width="0"/><path d="M261.91121,199.97978l2.34221,-11.4483c0,0 0.00409,-0.23907 -0.02233,-0.36695c-0.02716,-0.13153 -0.13846,-0.41162 -0.13846,-0.41162c0,0 0.91511,0.3233 1.39597,0.42496c0.49538,0.10472 1.53405,0.19443 1.53405,0.19443c0,0 -0.20716,0.20489 -0.28185,0.31162c-0.07338,0.10486 -0.16238,0.32325 -0.16238,0.32325l-2.34221,11.44829c0,0 -0.0287,0.25362 0.01026,0.37351c0.04716,0.14512 0.2249,0.43036 0.2249,0.43036c0,0 -1.05151,-0.41317 -1.58158,-0.52332c-0.51105,-0.1062 -1.54385,-0.12619 -1.54385,-0.12619c0,0 0.27743,-0.15072 0.37491,-0.25938c0.0904,-0.10076 0.19035,-0.37065 0.19035,-0.37065z" fill="url(#color-58)" stroke-width="NaN"/></g><path d="M264.5973,186.8506l2.34221,-11.4483c0,0 0.00409,-0.23907 -0.02233,-0.36695c-0.02716,-0.13152 -0.13846,-0.41162 -0.13846,-0.41162c0,0 0.91511,0.3233 1.39597,0.42496c0.49538,0.10472 1.53405,0.19443 1.53405,0.19443c0,0 -0.20716,0.20489 -0.28185,0.31162c-0.07338,0.10486 -0.16238,0.32325 -0.16238,0.32325l-2.34221,11.44829c0,0 -0.02871,0.25362 0.01026,0.37352c0.04716,0.14512 0.2249,0.43036 0.2249,0.43036c0,0 -1.05151,-0.41317 -1.58158,-0.52332c-0.51105,-0.1062 -1.54384,-0.12619 -1.54384,-0.12619c0,0 0.27743,-0.15072 0.37491,-0.25938c0.0904,-0.10076 0.19035,-0.37065 0.19035,-0.37065z" fill="url(#color-59)" stroke-width="NaN"/></g><g stroke-width="0"><path d="M281.90752,198.24079c0,0.46742 -0.17792,1.09834 -0.56327,1.48351c-0.3946,0.39442 -1.00243,0.53756 -1.49011,0.53756c-0.43186,0 -0.80942,-0.18928 -1.09465,-0.48332c-0.3514,-0.36226 -0.56266,-0.88352 -0.56266,-1.40571c0,-0.56644 0.18878,-0.99643 0.58249,-1.32093c0.26386,-0.21749 0.64402,-0.43608 1.0308,-0.43608c0.4657,0 1.05899,0.11446 1.4569,0.38497c0.42569,0.28939 0.64049,0.75103 0.64049,1.24001z" data-paper-data="{&quot;index&quot;:null}" fill="url(#color-60)" stroke="url(#color-61)"/><path d="M279.17739,198.22349c0,0.41348 -0.15739,0.97158 -0.49827,1.3123c-0.34906,0.3489 -0.88674,0.47552 -1.31814,0.47552c-0.38202,0 -0.71601,-0.16744 -0.96832,-0.42755c-0.31085,-0.32045 -0.49772,-0.78155 -0.49772,-1.24348c0,-0.50107 0.167,-0.88142 0.51527,-1.16848c0.23341,-0.19238 0.56969,-0.38575 0.91184,-0.38575c0.41195,0 0.93678,0.10125 1.28876,0.34054c0.37657,0.256 0.56657,0.66435 0.56657,1.0969z" data-paper-data="{&quot;index&quot;:null}" fill="url(#color-62)" stroke="url(#color-63)"/><path d="M278.6902,195.66242c0,0.56857 -0.21642,1.33601 -0.68517,1.80453c-0.48,0.47977 -1.21936,0.65388 -1.81257,0.65388c-0.52531,0 -0.98458,-0.23025 -1.33153,-0.58791c-0.42744,-0.44065 -0.68441,-1.07471 -0.68441,-1.70991c0,-0.68901 0.22963,-1.21205 0.70854,-1.60678c0.32096,-0.26455 0.78338,-0.53044 1.25386,-0.53044c0.56647,0 1.28815,0.13923 1.77217,0.46828c0.51781,0.35202 0.77909,0.91354 0.77909,1.50835z" fill="url(#color-64)" stroke="url(#color-65)"/><path d="M283.12073,195.54005c0,0.58449 -0.22249,1.37343 -0.70435,1.85507c-0.49344,0.4932 -1.25351,0.67219 -1.86333,0.67219c-0.54003,0 -1.01215,-0.2367 -1.36881,-0.60438c-0.43941,-0.45299 -0.70358,-1.1048 -0.70358,-1.75778c0,-0.70831 0.23607,-1.24599 0.72838,-1.65178c0.32995,-0.27196 0.80531,-0.5453 1.28898,-0.5453c0.58234,0 1.32423,0.14313 1.8218,0.48139c0.53231,0.36188 0.8009,0.93913 0.8009,1.55059z" fill="url(#color-66)" stroke="url(#color-67)"/><path d="M281.27907,196.28232c0,0.56857 -0.21643,1.33601 -0.68517,1.80453c-0.48,0.47977 -1.21936,0.65388 -1.81257,0.65388c-0.52531,0 -0.98458,-0.23025 -1.33153,-0.58791c-0.42744,-0.44065 -0.68441,-1.0747 -0.68441,-1.70991c0,-0.68901 0.22964,-1.21205 0.70855,-1.60678c0.32096,-0.26455 0.78338,-0.53044 1.25386,-0.53044c0.56647,0 1.28815,0.13923 1.77217,0.46828c0.51782,0.35202 0.77909,0.91354 0.77909,1.50835z" fill="url(#color-68)" stroke="url(#color-69)"/><path d="M281.69023,192.94657c0,0.41348 -0.15739,0.97158 -0.49827,1.3123c-0.34906,0.3489 -0.88674,0.47552 -1.31814,0.47552c-0.38202,0 -0.71601,-0.16744 -0.96831,-0.42755c-0.31085,-0.32045 -0.49772,-0.78155 -0.49772,-1.24348c0,-0.50107 0.16699,-0.88142 0.51526,-1.16848c0.23341,-0.19238 0.56969,-0.38575 0.91184,-0.38575c0.41195,0 0.93677,0.10125 1.28876,0.34054c0.37657,0.256 0.56657,0.66435 0.56657,1.0969z" fill="url(#color-70)" stroke="url(#color-71)"/><path d="M279.45044,192.9018c0,0.46742 -0.17792,1.09834 -0.56327,1.48351c-0.3946,0.39442 -1.00243,0.53756 -1.49011,0.53756c-0.43186,0 -0.80942,-0.18929 -1.09465,-0.48333c-0.3514,-0.36226 -0.56266,-0.88352 -0.56266,-1.40571c0,-0.56644 0.18878,-0.99643 0.58249,-1.32093c0.26386,-0.21749 0.64402,-0.43608 1.0308,-0.43608c0.4657,0 1.05899,0.11447 1.4569,0.38497c0.42569,0.28939 0.64049,0.75102 0.64049,1.24001z" fill="url(#color-72)" stroke="url(#color-73)"/></g><g stroke-width="0"><path d="M275.43623,198.50781c0,0.46742 -0.17793,1.09834 -0.56327,1.48351c-0.3946,0.39442 -1.00243,0.53756 -1.49011,0.53756c-0.43186,0 -0.80942,-0.18929 -1.09465,-0.48332c-0.3514,-0.36226 -0.56266,-0.88352 -0.56266,-1.40571c0,-0.56644 0.18878,-0.99643 0.5825,-1.32093c0.26386,-0.21749 0.64402,-0.43608 1.0308,-0.43608c0.4657,0 1.05899,0.11446 1.4569,0.38497c0.42569,0.28939 0.64049,0.75103 0.64049,1.24001z" data-paper-data="{&quot;index&quot;:null}" fill="url(#color-74)" stroke="url(#color-75)"/><path d="M272.7061,198.49051c0,0.41348 -0.15739,0.97158 -0.49826,1.31229c-0.34906,0.3489 -0.88674,0.47552 -1.31814,0.47552c-0.38202,0 -0.71601,-0.16744 -0.96832,-0.42754c-0.31085,-0.32045 -0.49772,-0.78155 -0.49772,-1.24348c0,-0.50107 0.16699,-0.88142 0.51527,-1.16848c0.23341,-0.19238 0.56969,-0.38575 0.91184,-0.38575c0.41195,0 0.93677,0.10125 1.28876,0.34054c0.37657,0.256 0.56657,0.66435 0.56657,1.0969z" data-paper-data="{&quot;index&quot;:null}" fill="url(#color-76)" stroke="url(#color-77)"/><path d="M272.21892,195.92945c0,0.56857 -0.21643,1.33602 -0.68517,1.80453c-0.47999,0.47977 -1.21936,0.65388 -1.81257,0.65388c-0.52531,0 -0.98458,-0.23025 -1.33153,-0.58792c-0.42744,-0.44065 -0.68441,-1.0747 -0.68441,-1.70991c0,-0.68902 0.22964,-1.21205 0.70854,-1.60678c0.32096,-0.26454 0.78338,-0.53044 1.25387,-0.53044c0.56647,0 1.28815,0.13923 1.77217,0.46828c0.51781,0.35202 0.77909,0.91355 0.77909,1.50835z" fill="url(#color-78)" stroke="url(#color-79)"/><path d="M276.64945,195.80707c0,0.58449 -0.22249,1.37343 -0.70435,1.85507c-0.49344,0.4932 -1.2535,0.67219 -1.86332,0.67219c-0.54003,0 -1.01215,-0.23669 -1.36882,-0.60438c-0.43941,-0.45299 -0.70358,-1.1048 -0.70358,-1.75779c0,-0.70831 0.23607,-1.24599 0.72838,-1.65177c0.32995,-0.27196 0.80531,-0.5453 1.28898,-0.5453c0.58234,0 1.32423,0.14313 1.8218,0.48139c0.53231,0.36188 0.8009,0.93913 0.8009,1.55059z" fill="url(#color-80)" stroke="url(#color-81)"/><path d="M274.80779,196.54934c0,0.56857 -0.21643,1.33602 -0.68517,1.80453c-0.47999,0.47977 -1.21936,0.65388 -1.81257,0.65388c-0.52531,0 -0.98458,-0.23025 -1.33153,-0.58792c-0.42744,-0.44064 -0.68441,-1.0747 -0.68441,-1.70991c0,-0.68902 0.22964,-1.21205 0.70854,-1.60678c0.32096,-0.26454 0.78338,-0.53044 1.25387,-0.53044c0.56647,0 1.28815,0.13923 1.77217,0.46828c0.51782,0.35202 0.77909,0.91355 0.77909,1.50835z" fill="url(#color-82)" stroke="url(#color-83)"/><path d="M275.21894,193.2136c0,0.41348 -0.15739,0.97158 -0.49826,1.31229c-0.34906,0.3489 -0.88674,0.47552 -1.31814,0.47552c-0.38202,0 -0.71601,-0.16744 -0.96832,-0.42754c-0.31085,-0.32045 -0.49772,-0.78155 -0.49772,-1.24348c0,-0.50107 0.16699,-0.88142 0.51527,-1.16848c0.23341,-0.19238 0.56969,-0.38575 0.91184,-0.38575c0.41195,0 0.93677,0.10125 1.28876,0.34054c0.37657,0.256 0.56657,0.66435 0.56657,1.0969z" fill="url(#color-84)" stroke="url(#color-85)"/><path d="M272.97915,193.16882c0,0.46742 -0.17793,1.09834 -0.56327,1.48351c-0.3946,0.39442 -1.00243,0.53756 -1.49011,0.53756c-0.43186,0 -0.80942,-0.18929 -1.09465,-0.48332c-0.3514,-0.36226 -0.56266,-0.88352 -0.56266,-1.40571c0,-0.56644 0.18878,-0.99643 0.5825,-1.32093c0.26386,-0.21749 0.64402,-0.43608 1.0308,-0.43608c0.4657,0 1.05899,0.11446 1.4569,0.38497c0.42569,0.28939 0.64049,0.75103 0.64049,1.24001z" fill="url(#color-86)" stroke="url(#color-87)"/></g><g stroke-width="0"><path d="M279.3377,199.81061c0,0.46742 -0.17792,1.09834 -0.56327,1.48351c-0.3946,0.39442 -1.00243,0.53756 -1.49011,0.53756c-0.43186,0 -0.80942,-0.18928 -1.09465,-0.48332c-0.3514,-0.36226 -0.56266,-0.88352 -0.56266,-1.40571c0,-0.56644 0.18878,-0.99643 0.58249,-1.32093c0.26386,-0.21749 0.64402,-0.43608 1.0308,-0.43608c0.4657,0 1.05899,0.11446 1.4569,0.38497c0.42569,0.28939 0.64049,0.75103 0.64049,1.24001z" data-paper-data="{&quot;index&quot;:null}" fill="url(#color-88)" stroke="url(#color-89)"/><path d="M276.60757,199.79331c0,0.41348 -0.15739,0.97158 -0.49827,1.3123c-0.34906,0.3489 -0.88674,0.47552 -1.31814,0.47552c-0.38202,0 -0.71601,-0.16744 -0.96832,-0.42755c-0.31085,-0.32045 -0.49772,-0.78155 -0.49772,-1.24348c0,-0.50107 0.167,-0.88142 0.51527,-1.16848c0.23341,-0.19238 0.56969,-0.38575 0.91184,-0.38575c0.41195,0 0.93678,0.10125 1.28876,0.34054c0.37657,0.256 0.56657,0.66435 0.56657,1.0969z" data-paper-data="{&quot;index&quot;:null}" fill="url(#color-90)" stroke="url(#color-91)"/><path d="M276.12038,197.23225c0,0.56857 -0.21642,1.33601 -0.68517,1.80453c-0.48,0.47977 -1.21936,0.65388 -1.81257,0.65388c-0.52531,0 -0.98458,-0.23025 -1.33153,-0.58791c-0.42744,-0.44065 -0.68441,-1.07471 -0.68441,-1.70991c0,-0.68901 0.22963,-1.21205 0.70854,-1.60678c0.32096,-0.26455 0.78338,-0.53044 1.25386,-0.53044c0.56647,0 1.28815,0.13923 1.77217,0.46828c0.51781,0.35202 0.77909,0.91354 0.77909,1.50835z" fill="url(#color-92)" stroke="url(#color-93)"/><path d="M280.55091,197.10987c0,0.58449 -0.22249,1.37343 -0.70435,1.85507c-0.49344,0.4932 -1.25351,0.67219 -1.86333,0.67219c-0.54003,0 -1.01215,-0.2367 -1.36881,-0.60438c-0.43941,-0.45299 -0.70358,-1.1048 -0.70358,-1.75778c0,-0.70831 0.23607,-1.24599 0.72838,-1.65178c0.32995,-0.27196 0.80531,-0.5453 1.28898,-0.5453c0.58234,0 1.32423,0.14313 1.8218,0.48139c0.53231,0.36188 0.8009,0.93913 0.8009,1.55059z" fill="url(#color-94)" stroke="url(#color-95)"/><path d="M278.70925,197.85214c0,0.56857 -0.21643,1.33601 -0.68517,1.80453c-0.48,0.47977 -1.21936,0.65388 -1.81257,0.65388c-0.52531,0 -0.98458,-0.23025 -1.33153,-0.58791c-0.42744,-0.44065 -0.68441,-1.0747 -0.68441,-1.70991c0,-0.68901 0.22964,-1.21205 0.70855,-1.60678c0.32096,-0.26455 0.78338,-0.53044 1.25386,-0.53044c0.56647,0 1.28815,0.13923 1.77217,0.46828c0.51782,0.35202 0.77909,0.91354 0.77909,1.50835z" fill="url(#color-96)" stroke="url(#color-97)"/><path d="M279.12041,194.51639c0,0.41348 -0.15739,0.97158 -0.49827,1.3123c-0.34906,0.3489 -0.88674,0.47552 -1.31814,0.47552c-0.38202,0 -0.71601,-0.16744 -0.96831,-0.42755c-0.31085,-0.32045 -0.49772,-0.78155 -0.49772,-1.24348c0,-0.50107 0.16699,-0.88142 0.51526,-1.16848c0.23341,-0.19238 0.56969,-0.38575 0.91184,-0.38575c0.41195,0 0.93677,0.10125 1.28876,0.34054c0.37657,0.256 0.56657,0.66435 0.56657,1.0969z" fill="url(#color-98)" stroke="url(#color-99)"/><path d="M276.88062,194.47162c0,0.46742 -0.17792,1.09834 -0.56327,1.48351c-0.3946,0.39442 -1.00243,0.53756 -1.49011,0.53756c-0.43186,0 -0.80942,-0.18929 -1.09465,-0.48333c-0.3514,-0.36226 -0.56266,-0.88352 -0.56266,-1.40571c0,-0.56644 0.18878,-0.99643 0.58249,-1.32093c0.26386,-0.21749 0.64402,-0.43608 1.0308,-0.43608c0.4657,0 1.05899,0.11447 1.4569,0.38497c0.42569,0.28939 0.64049,0.75102 0.64049,1.24001z" fill="url(#color-100)" stroke="url(#color-101)"/></g></g></g></svg>