<svg version="1.1" xmlns="http://www.w3.org/2000/svg" xmlns:xlink="http://www.w3.org/1999/xlink" width="59" height="59.70662" viewBox="0,0,59,59.70662"><defs><linearGradient x1="240" y1="151.64669" x2="240" y2="208.35331" gradientUnits="userSpaceOnUse" id="color-1"><stop offset="0" stop-color="#191919"/><stop offset="1" stop-color="#050505"/></linearGradient><linearGradient x1="240" y1="151.64669" x2="240" y2="208.35331" gradientUnits="userSpaceOnUse" id="color-2"><stop offset="0" stop-color="#cccccc"/><stop offset="1" stop-color="#898989"/></linearGradient><radialGradient cx="240" cy="180" r="26.8571" gradientUnits="userSpaceOnUse" id="color-3"><stop offset="0" stop-color="#ffffff" stop-opacity="0.35484"/><stop offset="1" stop-color="#ffffff" stop-opacity="0"/></radialGradient><linearGradient x1="240" y1="153.29211" x2="240" y2="206.70789" gradientUnits="userSpaceOnUse" id="color-4"><stop offset="0" stop-color="#cccccc"/><stop offset="1" stop-color="#898989"/></linearGradient><linearGradient x1="241.48006" y1="195.39751" x2="242.18234" y2="195.58656" gradientUnits="userSpaceOnUse" id="color-5"><stop offset="0" stop-color="#524c43"/><stop offset="1" stop-color="#36312c"/></linearGradient><linearGradient x1="241.48006" y1="195.39751" x2="242.18234" y2="195.58656" gradientUnits="userSpaceOnUse" id="color-6"><stop offset="0" stop-color="#1f1f1f"/><stop offset="1" stop-color="#000000"/></linearGradient><linearGradient x1="241.75531" y1="193.16082" x2="243.08431" y2="193.51858" gradientUnits="userSpaceOnUse" id="color-7"><stop offset="0" stop-color="#ab966a"/><stop offset="1" stop-color="#4f3f2d"/></linearGradient><linearGradient x1="241.75531" y1="193.16082" x2="243.08431" y2="193.51858" gradientUnits="userSpaceOnUse" id="color-8"><stop offset="0" stop-color="#1f1f1f"/><stop offset="1" stop-color="#000000"/></linearGradient><linearGradient x1="237.8549" y1="195.35774" x2="238.60275" y2="195.27344" gradientUnits="userSpaceOnUse" id="color-9"><stop offset="0" stop-color="#523f2b"/><stop offset="1" stop-color="#2e2316"/></linearGradient><linearGradient x1="237.8549" y1="195.35774" x2="238.60275" y2="195.27344" gradientUnits="userSpaceOnUse" id="color-10"><stop offset="0" stop-color="#1f1f1f"/><stop offset="1" stop-color="#000000"/></linearGradient><linearGradient x1="242.27111" y1="195.48078" x2="242.97339" y2="195.66983" gradientUnits="userSpaceOnUse" id="color-11"><stop offset="0" stop-color="#524c43"/><stop offset="1" stop-color="#36312c"/></linearGradient><linearGradient x1="242.27111" y1="195.48078" x2="242.97339" y2="195.66983" gradientUnits="userSpaceOnUse" id="color-12"><stop offset="0" stop-color="#1f1f1f"/><stop offset="1" stop-color="#000000"/></linearGradient><linearGradient x1="242.54636" y1="193.24409" x2="243.87536" y2="193.60185" gradientUnits="userSpaceOnUse" id="color-13"><stop offset="0" stop-color="#ab966a"/><stop offset="1" stop-color="#4f3f2d"/></linearGradient><linearGradient x1="242.54636" y1="193.24409" x2="243.87536" y2="193.60185" gradientUnits="userSpaceOnUse" id="color-14"><stop offset="0" stop-color="#1f1f1f"/><stop offset="1" stop-color="#000000"/></linearGradient><linearGradient x1="243.35635" y1="193.31145" x2="244.68535" y2="193.66921" gradientUnits="userSpaceOnUse" id="color-15"><stop offset="0" stop-color="#ab966a"/><stop offset="1" stop-color="#4f3f2d"/></linearGradient><linearGradient x1="243.35635" y1="193.31145" x2="244.68535" y2="193.66921" gradientUnits="userSpaceOnUse" id="color-16"><stop offset="0" stop-color="#1f1f1f"/><stop offset="1" stop-color="#000000"/></linearGradient><linearGradient x1="243.09028" y1="195.54952" x2="243.79256" y2="195.73858" gradientUnits="userSpaceOnUse" id="color-17"><stop offset="0" stop-color="#524c43"/><stop offset="1" stop-color="#36312c"/></linearGradient><linearGradient x1="243.09028" y1="195.54952" x2="243.79256" y2="195.73858" gradientUnits="userSpaceOnUse" id="color-18"><stop offset="0" stop-color="#1f1f1f"/><stop offset="1" stop-color="#000000"/></linearGradient><linearGradient x1="236.60587" y1="195.14957" x2="237.35372" y2="195.06527" gradientUnits="userSpaceOnUse" id="color-19"><stop offset="0" stop-color="#523f2b"/><stop offset="1" stop-color="#2e2316"/></linearGradient><linearGradient x1="236.60587" y1="195.14957" x2="237.35372" y2="195.06527" gradientUnits="userSpaceOnUse" id="color-20"><stop offset="0" stop-color="#1f1f1f"/><stop offset="1" stop-color="#000000"/></linearGradient><linearGradient x1="234.52779" y1="197.46903" x2="245.21432" y2="197.46903" gradientUnits="userSpaceOnUse" id="color-21"><stop offset="0" stop-color="#b8a687"/><stop offset="1" stop-color="#4a443b"/></linearGradient><linearGradient x1="234.52779" y1="197.46903" x2="245.21432" y2="197.46903" gradientUnits="userSpaceOnUse" id="color-22"><stop offset="0" stop-color="#1f1a11"/><stop offset="1" stop-color="#191100"/></linearGradient><linearGradient x1="238.18468" y1="194.0363" x2="241.58205" y2="194.0363" gradientUnits="userSpaceOnUse" id="color-23"><stop offset="0" stop-color="#5c503f"/><stop offset="1" stop-color="#241c12"/></linearGradient><linearGradient x1="237.08554" y1="196.58321" x2="242.54797" y2="196.58321" gradientUnits="userSpaceOnUse" id="color-24"><stop offset="0" stop-color="#5c503f"/><stop offset="1" stop-color="#241c12"/></linearGradient><linearGradient x1="236.16349" y1="199.39481" x2="243.49683" y2="199.39481" gradientUnits="userSpaceOnUse" id="color-25"><stop offset="0" stop-color="#5c503f"/><stop offset="1" stop-color="#241c12"/></linearGradient><linearGradient x1="235.18701" y1="202.1951" x2="244.51311" y2="202.1951" gradientUnits="userSpaceOnUse" id="color-26"><stop offset="0" stop-color="#5c503f"/><stop offset="1" stop-color="#241c12"/></linearGradient><linearGradient x1="234.61662" y1="191.89612" x2="245.27502" y2="191.89612" gradientUnits="userSpaceOnUse" id="color-27"><stop offset="0" stop-color="#a89d8a"/><stop offset="1" stop-color="#665a54"/></linearGradient><linearGradient x1="234.61662" y1="191.89612" x2="245.27502" y2="191.89612" gradientUnits="userSpaceOnUse" id="color-28"><stop offset="0" stop-color="#1f1f1f"/><stop offset="1" stop-color="#000000"/></linearGradient><linearGradient x1="245.26633" y1="186.74527" x2="250.56326" y2="186.74527" gradientUnits="userSpaceOnUse" id="color-29"><stop offset="0" stop-color="#36322b"/><stop offset="1" stop-color="#1f1c19"/></linearGradient><linearGradient x1="245.26633" y1="186.92725" x2="248.88936" y2="186.92725" gradientUnits="userSpaceOnUse" id="color-30"><stop offset="0" stop-color="#272727"/><stop offset="1" stop-color="#000000"/></linearGradient><linearGradient x1="234.73367" y1="186.68976" x2="229.43674" y2="186.68976" gradientUnits="userSpaceOnUse" id="color-31"><stop offset="0" stop-color="#6b6757"/><stop offset="1" stop-color="#827969"/></linearGradient><linearGradient x1="231.11064" y1="186.87173" x2="234.73367" y2="186.87173" gradientUnits="userSpaceOnUse" id="color-32"><stop offset="0" stop-color="#272727"/><stop offset="1" stop-color="#000000"/></linearGradient><linearGradient x1="234.71895" y1="182.41685" x2="245.27901" y2="182.41685" gradientUnits="userSpaceOnUse" id="color-33"><stop offset="0" stop-color="#635f54"/><stop offset="1" stop-color="#211f1a"/></linearGradient><linearGradient x1="234.71895" y1="182.41685" x2="245.27901" y2="182.41685" gradientUnits="userSpaceOnUse" id="color-34"><stop offset="0" stop-color="#272727"/><stop offset="1" stop-color="#000000"/></linearGradient><linearGradient x1="240.37646" y1="182.90421" x2="244.51849" y2="182.90421" gradientUnits="userSpaceOnUse" id="color-35"><stop offset="0" stop-color="#4a382c"/><stop offset="1" stop-color="#301f1b"/></linearGradient><linearGradient x1="240.37646" y1="182.90421" x2="244.51849" y2="182.90421" gradientUnits="userSpaceOnUse" id="color-36"><stop offset="0" stop-color="#351c12"/><stop offset="1" stop-color="#1a1310"/></linearGradient><linearGradient x1="240.36532" y1="182.90577" x2="244.49777" y2="182.90577" gradientUnits="userSpaceOnUse" id="color-37"><stop offset="0" stop-color="#351c12"/><stop offset="1" stop-color="#1a1310"/></linearGradient><linearGradient x1="240.36532" y1="182.87431" x2="244.49777" y2="182.87431" gradientUnits="userSpaceOnUse" id="color-38"><stop offset="0" stop-color="#351c12"/><stop offset="1" stop-color="#1a1310"/></linearGradient><linearGradient x1="235.42592" y1="182.92519" x2="239.56794" y2="182.92519" gradientUnits="userSpaceOnUse" id="color-39"><stop offset="0" stop-color="#4a382c"/><stop offset="1" stop-color="#301f1b"/></linearGradient><linearGradient x1="235.42592" y1="182.92519" x2="239.56794" y2="182.92519" gradientUnits="userSpaceOnUse" id="color-40"><stop offset="0" stop-color="#351c12"/><stop offset="1" stop-color="#1a1310"/></linearGradient><linearGradient x1="235.41478" y1="182.92675" x2="239.54722" y2="182.92675" gradientUnits="userSpaceOnUse" id="color-41"><stop offset="0" stop-color="#351c12"/><stop offset="1" stop-color="#1a1310"/></linearGradient><linearGradient x1="235.41478" y1="182.89528" x2="239.54722" y2="182.89528" gradientUnits="userSpaceOnUse" id="color-42"><stop offset="0" stop-color="#351c12"/><stop offset="1" stop-color="#1a1310"/></linearGradient><linearGradient x1="240.37646" y1="187.90034" x2="244.51849" y2="187.90034" gradientUnits="userSpaceOnUse" id="color-43"><stop offset="0" stop-color="#4a382c"/><stop offset="1" stop-color="#301f1b"/></linearGradient><linearGradient x1="240.37646" y1="187.90034" x2="244.51849" y2="187.90034" gradientUnits="userSpaceOnUse" id="color-44"><stop offset="0" stop-color="#351c12"/><stop offset="1" stop-color="#1a1310"/></linearGradient><linearGradient x1="240.36532" y1="187.9019" x2="244.49777" y2="187.9019" gradientUnits="userSpaceOnUse" id="color-45"><stop offset="0" stop-color="#351c12"/><stop offset="1" stop-color="#1a1310"/></linearGradient><linearGradient x1="240.36532" y1="187.87043" x2="244.49777" y2="187.87043" gradientUnits="userSpaceOnUse" id="color-46"><stop offset="0" stop-color="#351c12"/><stop offset="1" stop-color="#1a1310"/></linearGradient><linearGradient x1="235.42592" y1="187.92131" x2="239.56794" y2="187.92131" gradientUnits="userSpaceOnUse" id="color-47"><stop offset="0" stop-color="#4a382c"/><stop offset="1" stop-color="#301f1b"/></linearGradient><linearGradient x1="235.42592" y1="187.92131" x2="239.56794" y2="187.92131" gradientUnits="userSpaceOnUse" id="color-48"><stop offset="0" stop-color="#351c12"/><stop offset="1" stop-color="#1a1310"/></linearGradient><linearGradient x1="235.41478" y1="187.92287" x2="239.54722" y2="187.92287" gradientUnits="userSpaceOnUse" id="color-49"><stop offset="0" stop-color="#351c12"/><stop offset="1" stop-color="#1a1310"/></linearGradient><linearGradient x1="235.41478" y1="187.89141" x2="239.54722" y2="187.89141" gradientUnits="userSpaceOnUse" id="color-50"><stop offset="0" stop-color="#351c12"/><stop offset="1" stop-color="#1a1310"/></linearGradient><linearGradient x1="235.25362" y1="177.21911" x2="244.67965" y2="177.21911" gradientUnits="userSpaceOnUse" id="color-51"><stop offset="0" stop-color="#515151"/><stop offset="1" stop-color="#131313"/></linearGradient><linearGradient x1="235.25362" y1="177.21911" x2="244.67965" y2="177.21911" gradientUnits="userSpaceOnUse" id="color-52"><stop offset="0" stop-color="#272727"/><stop offset="1" stop-color="#000000"/></linearGradient><linearGradient x1="235.74456" y1="175.16807" x2="244.12325" y2="175.16807" gradientUnits="userSpaceOnUse" id="color-53"><stop offset="0" stop-color="#272727"/><stop offset="1" stop-color="#000000"/></linearGradient><linearGradient x1="235.77729" y1="179.30054" x2="244.02506" y2="179.30054" gradientUnits="userSpaceOnUse" id="color-54"><stop offset="0" stop-color="#272727"/><stop offset="1" stop-color="#000000"/></linearGradient><linearGradient x1="234.62337" y1="161.629" x2="245.30989" y2="161.629" gradientUnits="userSpaceOnUse" id="color-55"><stop offset="0" stop-color="#9c8f73"/><stop offset="1" stop-color="#443a22"/></linearGradient><linearGradient x1="234.62337" y1="161.62565" x2="245.30989" y2="161.62565" gradientUnits="userSpaceOnUse" id="color-56"><stop offset="0" stop-color="#272727"/><stop offset="1" stop-color="#000000"/></linearGradient><linearGradient x1="237.28797" y1="156.98005" x2="242.56203" y2="156.98005" gradientUnits="userSpaceOnUse" id="color-57"><stop offset="0" stop-color="#f1f5f8"/><stop offset="1" stop-color="#6d7680"/></linearGradient><linearGradient x1="237.28797" y1="156.97962" x2="242.56203" y2="156.97962" gradientUnits="userSpaceOnUse" id="color-58"><stop offset="0" stop-color="#272727"/><stop offset="1" stop-color="#000000"/></linearGradient><linearGradient x1="236.08563" y1="159.69549" x2="243.94349" y2="159.69549" gradientUnits="userSpaceOnUse" id="color-59"><stop offset="0" stop-color="#45423b"/><stop offset="1" stop-color="#262018"/></linearGradient><linearGradient x1="234.68661" y1="170.42439" x2="245.24666" y2="170.42439" gradientUnits="userSpaceOnUse" id="color-60"><stop offset="0" stop-color="#303030"/><stop offset="1" stop-color="#171717"/></linearGradient><linearGradient x1="234.68661" y1="170.42439" x2="245.24666" y2="170.42439" gradientUnits="userSpaceOnUse" id="color-61"><stop offset="0" stop-color="#272727"/><stop offset="1" stop-color="#000000"/></linearGradient><radialGradient cx="239.96663" cy="170.42439" r="4.38083" gradientUnits="userSpaceOnUse" id="color-62"><stop offset="0" stop-color="#734c45" stop-opacity="0.40995"/><stop offset="1" stop-color="#734c45" stop-opacity="0"/></radialGradient><radialGradient cx="239.96663" cy="170.40881" r="3.5566" gradientUnits="userSpaceOnUse" id="color-63"><stop offset="0" stop-color="#eb8c73" stop-opacity="0.60996"/><stop offset="1" stop-color="#eb8c73" stop-opacity="0"/></radialGradient><radialGradient cx="239.96663" cy="170.40881" r="3.01095" gradientUnits="userSpaceOnUse" id="color-64"><stop offset="0" stop-color="#ff734f" stop-opacity="0"/><stop offset="1" stop-color="#ff734f" stop-opacity="0.08997"/></radialGradient><radialGradient cx="239.96663" cy="170.40881" r="2.47592" gradientUnits="userSpaceOnUse" id="color-65"><stop offset="0" stop-color="#ffa282" stop-opacity="0.11996"/><stop offset="1" stop-color="#ffab8f"/></radialGradient><linearGradient x1="234.8352" y1="170.41744" x2="235.54298" y2="170.41744" gradientUnits="userSpaceOnUse" id="color-66"><stop offset="0" stop-color="#9d9d9d"/><stop offset="1" stop-color="#4c4c4c"/></linearGradient><linearGradient x1="234.8352" y1="170.41744" x2="235.54298" y2="170.41744" gradientUnits="userSpaceOnUse" id="color-67"><stop offset="0" stop-color="#272727"/><stop offset="1" stop-color="#000000"/></linearGradient><linearGradient x1="244.41111" y1="170.41744" x2="245.11889" y2="170.41744" gradientUnits="userSpaceOnUse" id="color-68"><stop offset="0" stop-color="#9d9d9d"/><stop offset="1" stop-color="#4c4c4c"/></linearGradient><linearGradient x1="244.41111" y1="170.41744" x2="245.11889" y2="170.41744" gradientUnits="userSpaceOnUse" id="color-69"><stop offset="0" stop-color="#272727"/><stop offset="1" stop-color="#000000"/></linearGradient><linearGradient x1="234.81587" y1="171.72669" x2="245.1174" y2="171.72669" gradientUnits="userSpaceOnUse" id="color-70"><stop offset="0" stop-color="#272727"/><stop offset="1" stop-color="#000000"/></linearGradient><linearGradient x1="234.81587" y1="171.7391" x2="245.1174" y2="171.7391" gradientUnits="userSpaceOnUse" id="color-71"><stop offset="0" stop-color="#272727"/><stop offset="1" stop-color="#000000"/></linearGradient><linearGradient x1="234.83966" y1="168.99072" x2="245.14119" y2="168.99072" gradientUnits="userSpaceOnUse" id="color-72"><stop offset="0" stop-color="#272727"/><stop offset="1" stop-color="#000000"/></linearGradient><linearGradient x1="234.83966" y1="169.00313" x2="245.14119" y2="169.00313" gradientUnits="userSpaceOnUse" id="color-73"><stop offset="0" stop-color="#272727"/><stop offset="1" stop-color="#000000"/></linearGradient><linearGradient x1="234.714" y1="173.47791" x2="245.12259" y2="173.47791" gradientUnits="userSpaceOnUse" id="color-74"><stop offset="0" stop-color="#c7a895"/><stop offset="1" stop-color="#322c27"/></linearGradient><linearGradient x1="234.714" y1="173.47791" x2="245.12259" y2="173.47791" gradientUnits="userSpaceOnUse" id="color-75"><stop offset="0" stop-color="#272727"/><stop offset="1" stop-color="#000000"/></linearGradient><linearGradient x1="234.76158" y1="167.3874" x2="245.17018" y2="167.3874" gradientUnits="userSpaceOnUse" id="color-76"><stop offset="0" stop-color="#c7a895"/><stop offset="1" stop-color="#322c27"/></linearGradient><linearGradient x1="234.76158" y1="167.3874" x2="245.17018" y2="167.3874" gradientUnits="userSpaceOnUse" id="color-77"><stop offset="0" stop-color="#272727"/><stop offset="1" stop-color="#000000"/></linearGradient></defs><g transform="translate(-210.5,-150.14669)"><g data-paper-data="{&quot;isPaintingLayer&quot;:true}" fill-rule="nonzero" stroke-linejoin="miter" stroke-miterlimit="10" stroke-dasharray="" stroke-dashoffset="0" style="mix-blend-mode: normal"><path d="M212,208.35331v-56.70662h56v56.70662z" fill="url(#color-1)" stroke="url(#color-2)" stroke-width="3" stroke-linecap="butt"/><path d="M266.8571,180c0,14.75036 -12.02433,26.70789 -26.8571,26.70789c-14.83277,0 -26.8571,-11.95753 -26.8571,-26.70789c0,-14.75036 12.02433,-26.70789 26.8571,-26.70789c14.83277,0 26.8571,11.95753 26.8571,26.70789z" fill="url(#color-3)" stroke="url(#color-4)" stroke-width="0" stroke-linecap="butt"/><g stroke-width="0.375"><path d="M241.18748,196.48437l0.58516,-2.17373l0.70228,0.18905l-0.58516,2.17373z" fill="url(#color-5)" stroke="url(#color-6)" stroke-linecap="butt"/><path d="M243.08431,193.51858c-0.26416,0.96149 -0.30763,1.06027 -0.94867,0.87677c-0.64124,-0.18357 -0.63462,-0.32171 -0.38033,-1.23452c0.28076,-1.00781 0.29779,-1.07853 0.94867,-0.87676c0.62364,0.19332 0.6704,0.17871 0.38032,1.23452z" fill="url(#color-7)" stroke="url(#color-8)" stroke-linecap="butt"/><path d="M238.42201,198.99268l-1.72052,-6.59231l1.06759,-0.13907l0.85954,6.68872z" fill="url(#color-9)" stroke="url(#color-10)" stroke-linecap="butt"/><path d="M241.97853,196.56764l0.58516,-2.17373l0.70228,0.18905l-0.58516,2.17373z" fill="url(#color-11)" stroke="url(#color-12)" stroke-linecap="butt"/><path d="M243.87536,193.60185c-0.26416,0.96149 -0.30763,1.06027 -0.94867,0.87677c-0.64124,-0.18357 -0.63462,-0.32171 -0.38033,-1.23452c0.28076,-1.00781 0.29779,-1.07853 0.94867,-0.87676c0.62364,0.19332 0.6704,0.17871 0.38032,1.23452z" fill="url(#color-13)" stroke="url(#color-14)" stroke-linecap="butt"/><path d="M244.68535,193.66921c-0.26416,0.96149 -0.30764,1.06027 -0.94867,0.87676c-0.64124,-0.18357 -0.63462,-0.32171 -0.38033,-1.23452c0.28076,-1.00781 0.29778,-1.07853 0.94867,-0.87677c0.62364,0.19332 0.6704,0.17871 0.38033,1.23452z" fill="url(#color-15)" stroke="url(#color-16)" stroke-linecap="butt"/><path d="M242.30053,196.06206c0,0 0.64629,0.02038 0.73248,-0.29979c0.10509,-0.39039 0.34985,-1.29961 0.34985,-1.29961l0.70228,0.18905c0,0 -0.22956,0.85277 -0.33284,1.23642c-0.03862,0.14346 -0.25192,0.41092 -0.54038,0.57657c-0.3832,0.22006 -0.86041,0.32266 -0.86041,0.32266z" fill="url(#color-17)" stroke="url(#color-18)" stroke-linecap="butt"/><path d="M237.17298,198.78451l-1.72052,-6.59231l1.06759,-0.13907l0.85954,6.68872z" fill="url(#color-19)" stroke="url(#color-20)" stroke-linecap="butt"/><path d="M234.52779,203.72118c0,0 3.99029,-12.59549 5.34399,-12.5038c1.54861,0.10489 5.34253,12.5038 5.34253,12.5038z" fill="url(#color-21)" stroke="url(#color-22)" stroke-linecap="butt"/><path d="M241.58205,194.0363h-3.39737" fill="none" stroke="url(#color-23)" stroke-linecap="round"/><path d="M237.08554,196.58321h5.46243" fill="none" stroke="url(#color-24)" stroke-linecap="round"/><path d="M243.49683,199.39481h-7.33334" fill="none" stroke="url(#color-25)" stroke-linecap="round"/><path d="M235.18701,202.1951h9.3261" fill="none" stroke="url(#color-26)" stroke-linecap="round"/><path d="M234.61662,191.11668h10.6584c0,0 -0.02406,0.76787 -0.16434,1.04432c-0.12032,0.2371 -0.62671,0.51454 -0.62671,0.51454h-9.15956c0,0 -0.38605,-0.29435 -0.48956,-0.52232c-0.12742,-0.28063 -0.21822,-1.03655 -0.21822,-1.03655z" fill="url(#color-27)" stroke="url(#color-28)" stroke-linecap="butt"/></g><path d="M245.26633,191.09066v-10.80025c0,0 1.35913,7.24997 1.83432,9.00043c0.37596,1.38492 1.7887,4.27324 1.7887,4.27324z" fill="url(#color-29)" stroke="url(#color-30)" stroke-width="0.375" stroke-linecap="butt"/><path d="M231.11064,193.50856c0,0 1.41275,-2.88831 1.7887,-4.27323c0.47519,-1.75046 1.83432,-9.00043 1.83432,-9.00043v10.80025z" data-paper-data="{&quot;index&quot;:null}" fill="url(#color-31)" stroke="url(#color-32)" stroke-width="0.375" stroke-linecap="butt"/><path d="M234.71895,191.07989v-17.32608h10.56006v17.32608z" fill="url(#color-33)" stroke="url(#color-34)" stroke-width="0.375" stroke-linecap="butt"/><g stroke-width="0.375"><path d="M240.37646,185.06044v-4.31246h4.14203v4.31246z" fill="url(#color-35)" stroke="url(#color-36)" stroke-linecap="butt"/><path d="M244.49777,180.80808l-4.13245,4.19538" fill="none" stroke="url(#color-37)" stroke-linecap="round"/><path d="M244.49777,185.02444l-4.09049,-4.25831" fill="none" stroke="url(#color-38)" stroke-linecap="round"/></g><g stroke-width="0.375"><path d="M235.42592,185.08142v-4.31246h4.14203v4.31246z" fill="url(#color-39)" stroke="url(#color-40)" stroke-linecap="butt"/><path d="M239.54723,180.82906l-4.13245,4.19538" fill="none" stroke="url(#color-41)" stroke-linecap="round"/><path d="M235.45673,180.7871l4.09049,4.25831" fill="none" stroke="url(#color-42)" stroke-linecap="round"/></g><g stroke-width="0.375"><path d="M240.37646,190.05657v-4.31246h4.14203v4.31246z" fill="url(#color-43)" stroke="url(#color-44)" stroke-linecap="butt"/><path d="M244.49777,185.80421l-4.13245,4.19538" fill="none" stroke="url(#color-45)" stroke-linecap="round"/><path d="M240.40728,185.76226l4.09049,4.25831" fill="none" stroke="url(#color-46)" stroke-linecap="round"/></g><g stroke-width="0.375"><path d="M235.42592,190.07754v-4.31246h4.14203v4.31246z" fill="url(#color-47)" stroke="url(#color-48)" stroke-linecap="butt"/><path d="M235.41478,190.02056l4.13245,-4.19538" fill="none" stroke="url(#color-49)" stroke-linecap="round"/><path d="M235.45673,185.78323l4.09049,4.25831" fill="none" stroke="url(#color-50)" stroke-linecap="round"/></g><g stroke-width="0.375"><path d="M235.25362,179.8171v-5.19597h9.42603v5.19597z" fill="url(#color-51)" stroke="url(#color-52)" stroke-linecap="butt"/><path d="M244.12325,175.16807h-8.37869" fill="none" stroke="url(#color-53)" stroke-linecap="round"/><path d="M235.77729,179.30054h8.24777" fill="none" stroke="url(#color-54)" stroke-linecap="round"/></g><path d="M234.62337,166.97247c0,0 0.68729,-10.93142 5.28848,-10.68652c4.62955,-0.3267 5.39804,10.68652 5.39804,10.68652z" fill="url(#color-55)" stroke="url(#color-56)" stroke-width="0.375" stroke-linecap="butt"/><path d="M237.28797,157.65611c0,0 0.3392,-1.38306 2.60999,-1.35208c2.28479,-0.04133 2.66406,1.35208 2.66406,1.35208z" fill="url(#color-57)" stroke="url(#color-58)" stroke-width="0.375" stroke-linecap="butt"/><path d="M235.817,161.04477c0,0 0.13037,-0.42278 0.32188,-0.9259c0.22475,-0.59042 0.59703,-1.29149 1.88342,-1.54979c0.04991,-0.01002 0.98756,-0.15684 0.98756,-0.15684l2.0399,0.00629c0,0 0.70516,0.05033 0.74657,0.06015c1.21742,0.28859 1.67458,1.01326 1.9305,1.61916c0.21821,0.51663 0.35098,0.94693 0.35098,0.94693z" data-paper-data="{&quot;index&quot;:null}" fill="url(#color-59)" stroke="#000000" stroke-width="0.375" stroke-linecap="butt"/><path d="M237.99365,159.75101c0,-0.51922 0.42091,-0.94013 0.94013,-0.94013c0.51922,0 0.94013,0.42091 0.94013,0.94013c0,0.51922 -0.42091,0.94013 -0.94013,0.94013c-0.51922,0 -0.94013,-0.42091 -0.94013,-0.94013z" fill="#caff00" stroke="none" stroke-width="0.375" stroke-linecap="butt"/><path d="M240.16669,159.77161c0,-0.51922 0.42091,-0.94013 0.94013,-0.94013c0.51922,0 0.94013,0.42091 0.94013,0.94013c0,0.51922 -0.42091,0.94013 -0.94013,0.94013c-0.51922,0 -0.94013,-0.42091 -0.94013,-0.94013z" fill="#00fcff" stroke="none" stroke-width="0.375" stroke-linecap="butt"/><g stroke-width="0.375"><path d="M234.68661,173.88313v-6.91748h10.56006v6.91748z" fill="url(#color-60)" stroke="url(#color-61)" stroke-linecap="butt"/><path d="M235.58581,170.42439c0,-2.41946 1.96136,-4.38083 4.38083,-4.38083c2.41946,0 4.38083,1.96136 4.38083,4.38083c0,2.41946 -1.96136,4.38083 -4.38083,4.38083c-2.41946,0 -4.38083,-1.96136 -4.38083,-4.38083z" fill="url(#color-62)" stroke="none" stroke-linecap="butt"/><path d="M236.41004,170.40881c0,-1.96424 1.59234,-3.55659 3.5566,-3.55659c1.96424,0 3.5566,1.59234 3.5566,3.55659c0,1.96424 -1.59234,3.5566 -3.5566,3.5566c-1.96424,0 -3.5566,-1.59234 -3.5566,-3.5566z" fill="url(#color-63)" stroke="none" stroke-linecap="butt"/><path d="M236.95568,170.40881c0,-1.6629 1.34805,-3.01095 3.01095,-3.01095c1.6629,0 3.01095,1.34805 3.01095,3.01095c0,1.6629 -1.34805,3.01095 -3.01095,3.01095c-1.6629,0 -3.01095,-1.34805 -3.01095,-3.01095z" fill="url(#color-64)" stroke="none" stroke-linecap="butt"/><path d="M237.49072,170.40881c0,-1.36741 1.10851,-2.47592 2.47592,-2.47592c1.36741,0 2.47592,1.1085 2.47592,2.47592c0,1.36741 -1.10851,2.47592 -2.47592,2.47592c-1.36741,0 -2.47592,-1.10851 -2.47592,-2.47592z" fill="url(#color-65)" stroke="none" stroke-linecap="butt"/><path d="M234.8352,173.12368v-5.41247h0.70778v5.41247z" fill="url(#color-66)" stroke="url(#color-67)" stroke-linecap="butt"/><path d="M244.41111,173.12368v-5.41247h0.70778v5.41247z" fill="url(#color-68)" stroke="url(#color-69)" stroke-linecap="butt"/><path d="M234.81587,173.14795l0.57099,-2.84252l0.5472,2.84252l0.73752,-2.81769l0.73752,2.80528l1.28472,-2.80528l1.23714,2.81769l1.09439,-2.80528l1.23714,2.79286l0.83269,-2.79286l0.90406,2.81769l0.57099,-2.80528l0.54719,2.78045" fill="none" stroke="url(#color-70)" stroke-linecap="round"/><path d="M245.1174,170.33025l-0.54719,2.78045l-0.57099,-2.80528l-0.90406,2.81769l-0.83269,-2.79286l-1.23714,2.79286l-1.09439,-2.80528l-1.23714,2.81769l-1.28472,-2.80528l-0.73752,2.80528l-0.73752,-2.81769l-0.5472,2.84252l-0.57099,-2.84252" data-paper-data="{&quot;index&quot;:null}" fill="none" stroke="url(#color-71)" stroke-linecap="round"/><path d="M234.83966,170.41197l0.57099,-2.84252l0.5472,2.84252l0.73752,-2.81769l0.73752,2.80528l1.28472,-2.80528l1.23714,2.81769l1.09439,-2.80528l1.23714,2.79287l0.83269,-2.79287l0.90406,2.81769l0.57099,-2.80528l0.54719,2.78045" fill="none" stroke="url(#color-72)" stroke-linecap="round"/><path d="M245.14119,167.59428l-0.54719,2.78045l-0.57099,-2.80528l-0.90406,2.81769l-0.83269,-2.79286l-1.23714,2.79286l-1.09439,-2.80528l-1.23714,2.81769l-1.28472,-2.80528l-0.73752,2.80528l-0.73752,-2.81769l-0.5472,2.84252l-0.57099,-2.84252" data-paper-data="{&quot;index&quot;:null}" fill="none" stroke="url(#color-73)" stroke-linecap="round"/><path d="M234.714,173.78323v-0.61064h10.4086v0.61064z" fill="url(#color-74)" stroke="url(#color-75)" stroke-linecap="butt"/><path d="M234.76158,167.69272v-0.61064h10.4086v0.61064z" fill="url(#color-76)" stroke="url(#color-77)" stroke-linecap="butt"/></g><path d="M215.27327,167.03273v-12.39235h25.93332v8.69862h-15.56684v3.69373z" fill-opacity="0.53453" fill="#000000" stroke="#a60000" stroke-width="0" stroke-linecap="butt"/><text transform="translate(215.70712,161.61518) scale(0.21839,0.21839)" font-size="40" xml:space="preserve" fill="#ffffff" fill-rule="nonzero" stroke="#000000" stroke-width="0" stroke-linecap="butt" stroke-linejoin="miter" stroke-miterlimit="10" stroke-dasharray="" stroke-dashoffset="0" font-family="Serif" font-weight="normal" text-anchor="start" style="mix-blend-mode: normal"><tspan x="0" dy="0">Rocket</tspan></text><text transform="translate(215.56527,166.16682) scale(0.11601,0.11601)" font-size="40" xml:space="preserve" fill="#ffffff" fill-rule="nonzero" stroke="#000000" stroke-width="0" stroke-linecap="butt" stroke-linejoin="miter" stroke-miterlimit="10" stroke-dasharray="" stroke-dashoffset="0" font-family="Serif" font-weight="normal" text-anchor="start" style="mix-blend-mode: normal"><tspan x="0" dy="0">3-4-2</tspan></text></g></g></svg>