<svg version="1.1" xmlns="http://www.w3.org/2000/svg" xmlns:xlink="http://www.w3.org/1999/xlink" width="59" height="59.70662" viewBox="0,0,59,59.70662"><defs><linearGradient x1="270" y1="151.64669" x2="270" y2="208.35331" gradientUnits="userSpaceOnUse" id="color-1"><stop offset="0" stop-color="#191919"/><stop offset="1" stop-color="#050505"/></linearGradient><linearGradient x1="270" y1="151.64669" x2="270" y2="208.35331" gradientUnits="userSpaceOnUse" id="color-2"><stop offset="0" stop-color="#cccccc"/><stop offset="1" stop-color="#898989"/></linearGradient><radialGradient cx="270" cy="180" r="26.8571" gradientUnits="userSpaceOnUse" id="color-3"><stop offset="0" stop-color="#e4d2ff" stop-opacity="0.35294"/><stop offset="1" stop-color="#e4d2ff" stop-opacity="0"/></radialGradient><linearGradient x1="270" y1="153.2921" x2="270" y2="206.70789" gradientUnits="userSpaceOnUse" id="color-4"><stop offset="0" stop-color="#cccccc"/><stop offset="1" stop-color="#898989"/></linearGradient><linearGradient x1="280.11268" y1="187.02909" x2="289.68217" y2="187.02909" gradientUnits="userSpaceOnUse" id="color-5"><stop offset="0" stop-color="#7c7c7c"/><stop offset="1" stop-color="#5e5e5e"/></linearGradient><linearGradient x1="284.89742" y1="186.54415" x2="284.89742" y2="187.51403" gradientUnits="userSpaceOnUse" id="color-6"><stop offset="0" stop-color="#353535"/><stop offset="1" stop-color="#000000"/></linearGradient><linearGradient x1="252.30944" y1="164.52786" x2="274.55203" y2="164.52786" gradientUnits="userSpaceOnUse" id="color-7"><stop offset="0" stop-color="#9e9e9e"/><stop offset="1" stop-color="#7a7a7a"/></linearGradient><linearGradient x1="263.43074" y1="163.81662" x2="263.43074" y2="165.23911" gradientUnits="userSpaceOnUse" id="color-8"><stop offset="0" stop-color="#353535"/><stop offset="1" stop-color="#000000"/></linearGradient><linearGradient x1="248.18235" y1="184.1742" x2="278.41601" y2="184.1742" gradientUnits="userSpaceOnUse" id="color-9"><stop offset="0" stop-color="#f3f3f3"/><stop offset="1" stop-color="#cccccc"/></linearGradient><linearGradient x1="263.29918" y1="165.35288" x2="263.29918" y2="202.99552" gradientUnits="userSpaceOnUse" id="color-10"><stop offset="0" stop-color="#353535"/><stop offset="1" stop-color="#000000"/></linearGradient><linearGradient x1="278.53495" y1="195.31464" x2="291.33737" y2="195.31464" gradientUnits="userSpaceOnUse" id="color-11"><stop offset="0" stop-color="#c0c0c0"/><stop offset="1" stop-color="#878787"/></linearGradient><linearGradient x1="284.93616" y1="187.68491" x2="284.93616" y2="202.94436" gradientUnits="userSpaceOnUse" id="color-12"><stop offset="0" stop-color="#353535"/><stop offset="1" stop-color="#000000"/></linearGradient><linearGradient x1="278.53495" y1="201.3279" x2="291.33737" y2="201.3279" gradientUnits="userSpaceOnUse" id="color-13"><stop offset="0" stop-color="#dcdcdc"/><stop offset="1" stop-color="#b7b7b7"/></linearGradient><linearGradient x1="284.93616" y1="199.84074" x2="284.93616" y2="202.81505" gradientUnits="userSpaceOnUse" id="color-14"><stop offset="0" stop-color="#353535"/><stop offset="1" stop-color="#000000"/></linearGradient><linearGradient x1="291.31043" y1="198.61223" x2="292.14021" y2="198.61223" gradientUnits="userSpaceOnUse" id="color-15"><stop offset="0" stop-color="#151515"/><stop offset="1" stop-color="#0f0f0f"/></linearGradient><linearGradient x1="291.72532" y1="194.2801" x2="291.72532" y2="202.94436" gradientUnits="userSpaceOnUse" id="color-16"><stop offset="0" stop-color="#353535"/><stop offset="1" stop-color="#000000"/></linearGradient><linearGradient x1="246.98151" y1="203.84959" x2="293.01849" y2="203.84959" gradientUnits="userSpaceOnUse" id="color-17"><stop offset="0" stop-color="#a1a1a1"/><stop offset="1" stop-color="#828282"/></linearGradient><linearGradient x1="270" y1="202.94436" x2="270" y2="204.7548" gradientUnits="userSpaceOnUse" id="color-18"><stop offset="0" stop-color="#353535"/><stop offset="1" stop-color="#000000"/></linearGradient><linearGradient x1="280.34539" y1="193.63351" x2="289.39761" y2="193.63351" gradientUnits="userSpaceOnUse" id="color-19"><stop offset="0" stop-color="#00a5ff"/><stop offset="1" stop-color="#0080ff"/></linearGradient><linearGradient x1="284.8715" y1="192.34034" x2="284.8715" y2="194.92669" gradientUnits="userSpaceOnUse" id="color-20"><stop offset="0" stop-color="#353535"/><stop offset="1" stop-color="#000000"/></linearGradient><linearGradient x1="251.80484" y1="185.64277" x2="259.57427" y2="185.64277" gradientUnits="userSpaceOnUse" id="color-21"><stop offset="0" stop-color="#272727"/><stop offset="1" stop-color="#1d1d1d"/></linearGradient><linearGradient x1="255.7358" y1="168.4274" x2="255.7358" y2="202.85815" gradientUnits="userSpaceOnUse" id="color-22"><stop offset="0" stop-color="#353535"/><stop offset="1" stop-color="#000000"/></linearGradient><linearGradient x1="249.63125" y1="177.14554" x2="251.70174" y2="177.14554" gradientUnits="userSpaceOnUse" id="color-23"><stop offset="0" stop-color="#5d5d5d"/><stop offset="1" stop-color="#3a3a3a"/></linearGradient><linearGradient x1="255.61542" y1="167.77004" x2="255.61542" y2="186.61838" gradientUnits="userSpaceOnUse" id="color-24"><stop offset="0" stop-color="#353535"/><stop offset="1" stop-color="#000000"/></linearGradient><linearGradient x1="248.21925" y1="192.59897" x2="251.54901" y2="192.59897" gradientUnits="userSpaceOnUse" id="color-25"><stop offset="0" stop-color="#4b4b4b"/><stop offset="1" stop-color="#3b3b3b"/></linearGradient><linearGradient x1="249.88413" y1="191.49977" x2="249.88413" y2="193.69817" gradientUnits="userSpaceOnUse" id="color-26"><stop offset="0" stop-color="#353535"/><stop offset="1" stop-color="#000000"/></linearGradient><linearGradient x1="259.8024" y1="192.59897" x2="266.95626" y2="192.59897" gradientUnits="userSpaceOnUse" id="color-27"><stop offset="0" stop-color="#4b4b4b"/><stop offset="1" stop-color="#3b3b3b"/></linearGradient><linearGradient x1="263.37933" y1="191.49977" x2="263.37933" y2="193.69817" gradientUnits="userSpaceOnUse" id="color-28"><stop offset="0" stop-color="#353535"/><stop offset="1" stop-color="#000000"/></linearGradient><linearGradient x1="267.15666" y1="185.64277" x2="274.92609" y2="185.64277" gradientUnits="userSpaceOnUse" id="color-29"><stop offset="0" stop-color="#272727"/><stop offset="1" stop-color="#1d1d1d"/></linearGradient><linearGradient x1="271.08762" y1="168.4274" x2="271.08762" y2="202.85815" gradientUnits="userSpaceOnUse" id="color-30"><stop offset="0" stop-color="#353535"/><stop offset="1" stop-color="#000000"/></linearGradient><linearGradient x1="264.98307" y1="177.14554" x2="267.05356" y2="177.14554" gradientUnits="userSpaceOnUse" id="color-31"><stop offset="0" stop-color="#5d5d5d"/><stop offset="1" stop-color="#3a3a3a"/></linearGradient><linearGradient x1="270.96724" y1="167.77004" x2="270.96724" y2="186.61838" gradientUnits="userSpaceOnUse" id="color-32"><stop offset="0" stop-color="#353535"/><stop offset="1" stop-color="#000000"/></linearGradient><linearGradient x1="275.15422" y1="192.59897" x2="278.48398" y2="192.59897" gradientUnits="userSpaceOnUse" id="color-33"><stop offset="0" stop-color="#4b4b4b"/><stop offset="1" stop-color="#3b3b3b"/></linearGradient><linearGradient x1="276.8191" y1="191.49977" x2="276.8191" y2="193.69817" gradientUnits="userSpaceOnUse" id="color-34"><stop offset="0" stop-color="#353535"/><stop offset="1" stop-color="#000000"/></linearGradient><linearGradient x1="281.452" y1="201.92491" x2="288.1765" y2="201.92491" gradientUnits="userSpaceOnUse" id="color-35"><stop offset="0" stop-color="#151515"/><stop offset="1" stop-color="#0f0f0f"/></linearGradient><linearGradient x1="284.81425" y1="201.21366" x2="284.81425" y2="202.63615" gradientUnits="userSpaceOnUse" id="color-36"><stop offset="0" stop-color="#353535"/><stop offset="1" stop-color="#000000"/></linearGradient></defs><g transform="translate(-240.5,-150.14669)"><g data-paper-data="{&quot;isPaintingLayer&quot;:true}" fill-rule="nonzero" stroke-linecap="butt" stroke-linejoin="miter" stroke-miterlimit="10" stroke-dasharray="" stroke-dashoffset="0" style="mix-blend-mode: normal"><path d="M242,208.35331v-56.70662h56v56.70662z" fill="url(#color-1)" stroke="url(#color-2)" stroke-width="3"/><path d="M296.8571,180c0,14.75036 -12.02433,26.70789 -26.8571,26.70789c-14.83277,0 -26.8571,-11.95753 -26.8571,-26.70789c0,-14.75036 12.02433,-26.70789 26.8571,-26.70789c14.83277,0 26.8571,11.95753 26.8571,26.70789z" fill="url(#color-3)" stroke="url(#color-4)" stroke-width="0"/><path d="M280.11268,187.51403v-0.96988h9.56949v0.96988z" fill="url(#color-5)" stroke="url(#color-6)" stroke-width="0.5"/><path d="M252.30944,165.23911v-1.42249h22.24259v1.42249z" fill="url(#color-7)" stroke="url(#color-8)" stroke-width="0.5"/><path d="M248.18235,202.99552v-37.64264h30.23367v37.64264z" fill="url(#color-9)" stroke="url(#color-10)" stroke-width="0.5"/><path d="M278.53495,202.94436v-15.25945h12.80242v15.25945z" fill="url(#color-11)" stroke="url(#color-12)" stroke-width="0.5"/><path d="M278.53495,202.81505v-2.9743h12.80242v2.9743z" fill="url(#color-13)" stroke="url(#color-14)" stroke-width="0.5"/><path d="M291.31043,202.94436v-8.66426h0.82978v8.66426z" fill="url(#color-15)" stroke="url(#color-16)" stroke-width="0.5"/><path d="M246.98151,204.7548v-1.81044h46.03699v1.81044z" fill="url(#color-17)" stroke="url(#color-18)" stroke-width="0.5"/><path d="M280.34539,194.92669v-2.58635h9.05222v2.58635z" fill="url(#color-19)" stroke="url(#color-20)" stroke-width="0.5"/><path d="M249.06087,202.85815l2.55127,-8.96619l-0.54725,-25.46457h9.24932l-0.55276,25.46225l2.64928,8.9685z" fill="url(#color-21)" stroke="url(#color-22)" stroke-width="0.5"/><path d="M249.63125,186.52105v-18.75102l11.96285,0.12932l0.00549,18.71903l-2.11514,-0.00336l-0.07588,-16.25864h-7.70684v16.16468z" fill="url(#color-23)" stroke="url(#color-24)" stroke-width="0.5"/><path d="M248.21925,193.69817v-2.1984h3.32975v2.1984z" fill="url(#color-25)" stroke="url(#color-26)" stroke-width="0.5"/><path d="M259.8024,193.69817v-2.1984h7.15385v2.1984z" fill="url(#color-27)" stroke="url(#color-28)" stroke-width="0.5"/><path d="M264.41269,202.85815l2.55127,-8.96619l-0.54725,-25.46457h9.24932l-0.55276,25.46225l2.64928,8.9685z" fill="url(#color-29)" stroke="url(#color-30)" stroke-width="0.5"/><path d="M264.98307,186.52105v-18.75102l11.96285,0.12932l0.00549,18.71903l-2.11514,-0.00336l-0.07588,-16.25864h-7.70684v16.16468z" fill="url(#color-31)" stroke="url(#color-32)" stroke-width="0.5"/><path d="M275.15422,193.69817v-2.1984h3.32975v2.1984z" fill="url(#color-33)" stroke="url(#color-34)" stroke-width="0.5"/><path d="M281.452,202.63615v-1.42249h6.7245v1.42249z" fill="url(#color-35)" stroke="url(#color-36)" stroke-width="0.5"/><path d="M245.27327,163.339v-8.69862h45.04674v8.69862z" fill-opacity="0.53453" fill="#000000" stroke="#a60000" stroke-width="0"/><text transform="translate(245.70712,161.61518) scale(0.21839,0.21839)" font-size="40" xml:space="preserve" fill="#ffffff" fill-rule="nonzero" stroke="none" stroke-width="1" stroke-linecap="butt" stroke-linejoin="miter" stroke-miterlimit="10" stroke-dasharray="" stroke-dashoffset="0" font-family="Serif" font-weight="normal" text-anchor="start" style="mix-blend-mode: normal"><tspan x="0" dy="0">Rocket VAB</tspan></text></g></g></svg>