<svg version="1.1" xmlns="http://www.w3.org/2000/svg" xmlns:xlink="http://www.w3.org/1999/xlink" width="142.19966" height="119.55213" viewBox="0,0,142.19966,119.55213"><defs><linearGradient x1="259.87539" y1="97.96372" x2="259.87539" y2="174.0427" gradientUnits="userSpaceOnUse" id="color-1"><stop offset="0" stop-color="#000000" stop-opacity="0"/><stop offset="1" stop-color="#000000" stop-opacity="0"/></linearGradient><linearGradient x1="263.55" y1="87.3135" x2="263.55" y2="175.64683" gradientUnits="userSpaceOnUse" id="color-2"><stop offset="0" stop-color="#5d5d5d"/><stop offset="1" stop-color="#474747"/></linearGradient><radialGradient cx="279.53333" cy="98.20194" r="11.83333" gradientUnits="userSpaceOnUse" id="color-3"><stop offset="0" stop-color="#939393"/><stop offset="1" stop-color="#393939"/></radialGradient><linearGradient x1="279.53333" y1="86.56259" x2="279.53333" y2="109.84128" gradientUnits="userSpaceOnUse" id="color-4"><stop offset="0" stop-color="#666666"/><stop offset="1" stop-color="#4f4f4f"/></linearGradient><linearGradient x1="240.37499" y1="173.13949" x2="240.37499" y2="180.21186" gradientUnits="userSpaceOnUse" id="color-5"><stop offset="0" stop-color="#348317"/><stop offset="1" stop-color="#3c5b0d"/></linearGradient><radialGradient cx="197.27832" cy="111.47475" r="37.63684" gradientUnits="userSpaceOnUse" id="color-6"><stop offset="0" stop-color="#939393"/><stop offset="1" stop-color="#535353"/></radialGradient><radialGradient cx="196.88931" cy="83.72848" r="37.63684" gradientUnits="userSpaceOnUse" id="color-7"><stop offset="0" stop-color="#393939"/><stop offset="1" stop-color="#1b1b1b"/></radialGradient><radialGradient cx="196.69481" cy="78.21429" r="32.09343" gradientUnits="userSpaceOnUse" id="color-8"><stop offset="0" stop-color="#373737"/><stop offset="1" stop-color="#1b1b1b"/></radialGradient><linearGradient x1="180.03919" y1="69.10837" x2="204.20995" y2="69.10837" gradientUnits="userSpaceOnUse" id="color-9"><stop offset="0" stop-color="#535353"/><stop offset="1" stop-color="#232323"/></linearGradient><radialGradient cx="218.50361" cy="90.86672" r="17.36636" gradientUnits="userSpaceOnUse" id="color-10"><stop offset="0" stop-color="#939393"/><stop offset="1" stop-color="#535353"/></radialGradient><radialGradient cx="236.16706" cy="98.76667" r="9.74286" gradientUnits="userSpaceOnUse" id="color-11"><stop offset="0" stop-color="#1d1d1d"/><stop offset="1" stop-color="#080808"/></radialGradient><linearGradient x1="236.16706" y1="89.02381" x2="236.16706" y2="108.50953" gradientUnits="userSpaceOnUse" id="color-12"><stop offset="0" stop-color="#ffffff"/><stop offset="1" stop-color="#a0a0a0"/></linearGradient><radialGradient cx="185.99995" cy="130.0595" r="50.77276" gradientUnits="userSpaceOnUse" id="color-13"><stop offset="0" stop-color="#adadad"/><stop offset="1" stop-color="#666666"/></radialGradient><radialGradient cx="192.42657" cy="144.99996" r="35.99484" gradientUnits="userSpaceOnUse" id="color-14"><stop offset="0" stop-color="#1e1e1e"/><stop offset="1" stop-color="#171717"/></radialGradient><linearGradient x1="275.48406" y1="98.22935" x2="283.91063" y2="98.37065" gradientUnits="userSpaceOnUse" id="color-15"><stop offset="0" stop-color="#644520"/><stop offset="1" stop-color="#5c401f"/></linearGradient><linearGradient x1="279.74411" y1="94.02859" x2="279.65057" y2="102.57143" gradientUnits="userSpaceOnUse" id="color-16"><stop offset="0" stop-color="#644520"/><stop offset="1" stop-color="#5c401f"/></linearGradient><linearGradient x1="276.73131" y1="95.26573" x2="282.66339" y2="101.33427" gradientUnits="userSpaceOnUse" id="color-17"><stop offset="0" stop-color="#644520"/><stop offset="1" stop-color="#5c401f"/></linearGradient><linearGradient x1="276.6767" y1="101.2784" x2="282.71798" y2="95.32159" gradientUnits="userSpaceOnUse" id="color-18"><stop offset="0" stop-color="#644520"/><stop offset="1" stop-color="#5c401f"/></linearGradient><linearGradient x1="247.44468" y1="98.3" x2="311.95" y2="98.3" gradientUnits="userSpaceOnUse" id="color-19"><stop offset="0" stop-color="#e08200"/><stop offset="1" stop-color="#82491d"/></linearGradient><linearGradient x1="272.71123" y1="98.3" x2="286.68345" y2="98.3" gradientUnits="userSpaceOnUse" id="color-20"><stop offset="0" stop-color="#636363"/><stop offset="1" stop-color="#3a3a3a"/></linearGradient><linearGradient x1="272.71123" y1="98.3" x2="286.68345" y2="98.3" gradientUnits="userSpaceOnUse" id="color-21"><stop offset="0" stop-color="#adadad"/><stop offset="1" stop-color="#7e7e7e"/></linearGradient><radialGradient cx="264.475" cy="96.50239" r="20.5" gradientUnits="userSpaceOnUse" id="color-22"><stop offset="0" stop-color="#454545"/><stop offset="1" stop-color="#2f2f2f"/></radialGradient><radialGradient cx="299.58333" cy="95.73017" r="6.16667" gradientUnits="userSpaceOnUse" id="color-23"><stop offset="0" stop-color="#939393"/><stop offset="1" stop-color="#454545"/></radialGradient><radialGradient cx="300.91667" cy="98.48017" r="6.16667" gradientUnits="userSpaceOnUse" id="color-24"><stop offset="0" stop-color="#636363"/><stop offset="1" stop-color="#232323"/></radialGradient></defs><g transform="translate(-171.50034,-60.65973)"><g data-paper-data="{&quot;isPaintingLayer&quot;:true}" fill-rule="nonzero" stroke-linejoin="miter" stroke-miterlimit="10" stroke-dasharray="" stroke-dashoffset="0" style="mix-blend-mode: normal"><path d="M236.92521,174.0427v-76.07898h44.2092l14.54429,76.75545z" fill-opacity="0.00392" fill="#ffffff" stroke="url(#color-1)" stroke-width="2.5" stroke-linecap="butt"/><path d="M284.07207,123.9526l-13.47354,-0.17578" fill="none" stroke="#666666" stroke-width="5" stroke-linecap="round"/><path d="M264.91692,136.60911l21.4278,0.17578" fill="none" stroke="#666666" stroke-width="5" stroke-linecap="round"/><path d="M288.61737,150.4961h-28.73274" fill="none" stroke="#666666" stroke-width="5" stroke-linecap="round"/><path d="M254.85234,164.73467l36.2,-0.17578" fill="none" stroke="#666666" stroke-width="5" stroke-linecap="round"/><path d="M247.775,173.44683l32.56463,-77.13333l15.58537,79.33333" fill="none" stroke="url(#color-2)" stroke-width="5" stroke-linecap="round"/><path d="M291.36667,98.20194c0,6.42823 -5.29796,11.63934 -11.83333,11.63934c-6.53537,0 -11.83333,-5.21111 -11.83333,-11.63934c0,-6.42823 5.29796,-11.63934 11.83333,-11.63934c6.53537,0 11.83333,5.21111 11.83333,11.63934z" fill="url(#color-3)" stroke="url(#color-4)" stroke-width="2.5" stroke-linecap="butt"/><path d="M171.50034,180.21186v-7.07226h137.74932v7.07226z" fill="#312d29" stroke="url(#color-5)" stroke-width="0" stroke-linecap="butt"/><path d="M174.32666,171.83633v-75.27368c0,0 20.78146,0 31.31541,0c10.72844,0 32.48244,0 32.48244,0v75.27368c0,0 -9.62345,3.59201 -31.89343,4.0077c-23.38487,0.4365 -31.90442,-4.0077 -31.90442,-4.0077z" fill="url(#color-6)" stroke="none" stroke-width="0" stroke-linecap="butt"/><path d="M173.93765,97.126v-16.70732h63.79785v16.70732c0,0 -8.65642,3.97004 -30.9264,4.0623c-23.38487,0.09688 -32.87145,-4.0623 -32.87145,-4.0623z" fill="url(#color-7)" stroke="none" stroke-width="0" stroke-linecap="butt"/><path d="M238.31901,80.71044c0,3.06154 -14.36872,4.94341 -32.09343,4.94341c-17.72472,0 -32.09343,-1.88187 -32.09343,-4.94341c0,-3.06154 14.36872,-5.54341 32.09343,-5.54341c17.72472,0 32.09343,2.48187 32.09343,5.54341z" fill="url(#color-8)" stroke="none" stroke-width="0" stroke-linecap="butt"/><path d="M180.03919,80.62194c0,0 0.27112,-6.54174 1.08146,-10.38605c0.29678,-1.4079 3.60741,-2.65864 4.23461,-4.72813c0.29398,-0.96999 -0.66442,-1.54737 -0.67958,-2.5304c-0.03995,-2.59045 0.59052,-2.2484 0.59052,-2.2484l13.64254,0.0315c0,0 0.31754,-0.81958 0.46052,2.21683c0.03381,0.71821 -1.08238,1.87498 -0.87495,2.60522c0.49979,1.75943 3.90032,3.36172 4.17494,4.59322c0.84008,3.76741 1.54074,10.44624 1.54074,10.44624c0,0 -5.88996,1.71443 -12.02652,1.59251c-5.96994,-0.11861 -12.14423,-1.59251 -12.14423,-1.59251z" fill="url(#color-9)" stroke="none" stroke-width="0" stroke-linecap="butt"/><path d="M219.33427,89.42721c6.00707,0.00627 12.82367,-0.03542 12.82367,-0.03542c0,0 8.70302,-0.31469 8.77925,8.84478c-0.32504,8.96069 -8.8305,9.46415 -8.8305,9.46415c0,0 -7.78529,0.17075 -12.81027,0.1655c-7.24042,-0.00756 -13.00714,-1.3829 -13.09101,-9.23319c-0.08752,-8.19256 5.88844,-9.21338 13.12884,-9.20582z" fill="url(#color-10)" stroke="none" stroke-width="0" stroke-linecap="butt"/><path d="M231.40388,98.76667c0,-5.38083 2.13255,-9.74286 4.76318,-9.74286c2.63063,0 4.76318,4.36202 4.76318,9.74286c0,5.38083 -2.13255,9.74286 -4.76318,9.74286c-2.63063,0 -4.76318,-4.36202 -4.76318,-9.74286z" fill="url(#color-11)" stroke="url(#color-12)" stroke-width="1.5" stroke-linecap="butt"/><path d="M239.42434,145.16854c0,12.43105 0.17643,26.53718 0.17643,26.53718c0,0 0.11245,4.45869 -32.99656,4.65536c-32.39201,-0.63457 -33.18606,-4.68364 -33.18606,-4.68364c0,0 -0.6466,-16.11016 -0.6466,-26.50889c0,-14.98335 4.94977,-26.92288 33.3264,-27.12975c29.61384,-0.2159 33.3264,12.1464 33.3264,27.12975z" fill="url(#color-13)" stroke="none" stroke-width="0" stroke-linecap="butt"/><path d="M230.30126,155.57315c0,8.69916 0.12509,19.25116 0.12509,19.25116c0,0 -0.06314,1.69914 -23.53545,1.83676c-22.96399,-0.44407 -23.58558,-1.90333 -23.58558,-1.90333c0,0 -0.25689,-11.90764 -0.25689,-19.18459c0,-10.48524 3.50909,-18.84043 23.62642,-18.9852c20.99444,-0.15109 23.62642,8.49996 23.62642,18.9852z" fill="url(#color-14)" stroke="none" stroke-width="0" stroke-linecap="butt"/><g><path d="M279.90633,67.04237l-0.41797,62.51527" fill="none" stroke="url(#color-15)" stroke-width="3.5" stroke-linecap="round"/><path d="M310.53254,98.34183l-61.67041,-0.08366" fill="none" stroke="url(#color-16)" stroke-width="3.5" stroke-linecap="round"/><path d="M301.38741,76.08231l-43.38013,44.43538" fill="none" stroke="url(#color-17)" stroke-width="3.5" stroke-linecap="round"/><path d="M257.98293,76.10676l43.42882,44.38648" fill="none" stroke="url(#color-18)" stroke-width="3.5" stroke-linecap="round"/><path d="M311.95,98.3c0,17.79737 -14.44001,32.225 -32.25266,32.225c-17.81265,0 -32.25266,-14.42763 -32.25266,-32.225c0,-17.79737 14.44002,-32.225 32.25266,-32.225c17.81265,0 32.25266,14.42763 32.25266,32.225z" fill="none" stroke="url(#color-19)" stroke-width="3.5" stroke-linecap="butt"/><path d="M286.68345,98.3c0,3.81918 -3.12778,6.91524 -6.98611,6.91524c-3.85833,0 -6.98611,-3.09606 -6.98611,-6.91524c0,-3.81918 3.12778,-6.91524 6.98611,-6.91524c3.85833,0 6.98611,3.09606 6.98611,6.91524z" fill="url(#color-20)" stroke="url(#color-21)" stroke-width="1" stroke-linecap="butt"/></g><path d="M295.225,98.25239l-57.4,-0.08333" fill="none" stroke="url(#color-22)" stroke-width="6" stroke-linecap="round"/><path d="M307.08333,98.48017c-0.0307,6.34932 -2.76091,4.25 -6.16667,4.25c-3.40576,0 -5.91339,-1.90439 -6,-4.25c-0.16667,-4.51388 3.09424,-3.58333 6.5,-3.58333c3.40576,0 5.69735,-2.76209 5.66667,3.58333z" fill="url(#color-23)" stroke="url(#color-24)" stroke-width="0" stroke-linecap="butt"/></g></g></svg>