<svg version="1.1" xmlns="http://www.w3.org/2000/svg" xmlns:xlink="http://www.w3.org/1999/xlink" width="1085.57938" height="121.3068" viewBox="0,0,1085.57938,121.3068"><defs><linearGradient x1="268.59776" y1="227.33082" x2="268.59776" y2="320.99212" gradientUnits="userSpaceOnUse" id="color-1"><stop offset="0" stop-color="#3f3f3e"/><stop offset="1" stop-color="#2b2a2a"/></linearGradient><linearGradient x1="810.38475" y1="227.33083" x2="810.38475" y2="320.99215" gradientUnits="userSpaceOnUse" id="color-2"><stop offset="0" stop-color="#3f3f3e"/><stop offset="1" stop-color="#2b2a2a"/></linearGradient></defs><g transform="translate(4.87511,-227.33082)"><g data-paper-data="{&quot;isPaintingLayer&quot;:true}" fill-rule="nonzero" stroke="none" stroke-width="0.5" stroke-linecap="butt" stroke-linejoin="miter" stroke-miterlimit="10" stroke-dasharray="" stroke-dashoffset="0" style="mix-blend-mode: normal"><path d="M6.86003,231.55079c21.05663,0 42.11326,0 63.16988,0c5.92378,0.02651 11.6388,-2.15725 17.37494,-2.96772c3.06385,-0.4329 6.18697,-0.03228 9.28049,-0.03228c6.58158,0 13.16319,-0.00646 19.74476,0c4.33998,0.00426 8.43942,-0.89824 12.78014,-0.9994c8.23538,-0.19193 16.49741,-0.0006 24.73491,-0.0006c8.55606,0 17.11213,0 25.66819,0c3.92222,0 8.36312,-0.5158 12.2422,0.03228c1.03066,0.14562 1.93627,0.82049 2.96171,1c4.08515,0.71513 9.31697,-0.03228 13.42599,-0.03228c9.21422,0 18.42845,0 27.64267,0c19.0866,0 38.17321,0 57.25981,0c5.59435,0 11.1887,0 16.78305,0c4.24548,0 8.18502,-0.3376 12.2422,1.03228c2.89787,-0.01535 5.75893,0.66248 8.64182,0.96094c4.92626,0.51001 10.02608,-0.56776 14.9445,0.0372c1.0632,0.13077 1.99761,0.84481 3.05761,1c4.80132,0.70292 9.91144,-0.70074 14.72629,-0.01169c2.68697,0.38453 5.20525,1.65864 7.89791,2c1.07401,0.13616 5.83027,-0.17827 7.00445,0.01355c1.02736,0.16784 1.93627,0.82049 2.96171,1c4.74041,0.82983 9.924,-0.60878 14.71479,-0.01355c2.21001,0.27458 4.38258,0.99695 6.60911,0.98127c4.93619,0 9.87238,0 14.80857,0c2.50088,0 5.03821,0.46368 7.50256,0.03228c1.02544,-0.17951 1.93435,-0.83216 2.96171,-1c5.46449,-0.89272 11.32022,0.81139 16.78305,0c1.02963,-0.15293 1.93105,-0.85438 2.96171,-1c7.14476,-1.0095 14.66601,0.90968 21.81302,-0.01355c2.73152,-0.35285 5.44585,-1.0066 8.19947,-1.01873c14.80857,0 29.61714,0 44.42572,0c3.94348,0 7.90505,-0.10922 11.84686,0c1.30309,0.03611 4.23319,-0.38566 5.40621,0.1903c5.08983,2.49913 0.09772,115.8965 0.09772,115.8965l-539.98759,-0.21687c0,0 -6.06367,-108.69692 -3.99191,-115.1605l8.21215,-2.4455c0,0 1.93952,-0.9823 3.0916,0.73607z" fill="url(#color-1)"/><path d="M546.86002,231.55079c21.05663,0 42.11325,0 63.16988,0c5.92377,0.02651 11.6388,-2.15724 17.37494,-2.96771c3.06385,-0.4329 6.18697,-0.03229 9.28049,-0.03229c6.58158,0 13.16318,-0.00646 19.74476,0c4.33998,0.00426 8.43942,-0.89823 12.78014,-0.9994c8.23538,-0.19193 16.4974,-0.0006 24.73491,-0.0006c8.55606,0 17.11213,0 25.66819,0c3.92222,0 8.36312,-0.5158 12.2422,0.03229c1.03066,0.14562 1.93628,0.82049 2.96172,1c4.08515,0.71513 9.31697,-0.03229 13.42599,-0.03229c9.21423,0 18.42844,0 27.64267,0c19.0866,0 38.17321,0 57.25981,0c5.59435,0 11.1887,0 16.78305,0c4.24548,0 8.18502,-0.33759 12.24221,1.03229c2.89787,-0.01535 5.75893,0.66247 8.64182,0.96094c4.92626,0.51001 10.02608,-0.56776 14.9445,0.0372c1.0632,0.13077 1.99761,0.84482 3.05761,1c4.80133,0.70292 9.91143,-0.70074 14.72628,-0.01169c2.68697,0.38453 5.20526,1.65864 7.89791,2c1.07401,0.13615 5.83027,-0.17827 7.00446,0.01355c1.02737,0.16784 1.93627,0.82049 2.96171,1c4.74041,0.82984 9.92399,-0.60878 14.71479,-0.01355c2.21001,0.27458 4.38258,0.99695 6.60911,0.98127c4.93619,0 9.87239,0 14.80858,0c2.50087,0 5.03822,0.46368 7.50256,0.03229c1.02544,-0.17951 1.93435,-0.83216 2.96172,-1c5.4645,-0.89272 11.32021,0.8114 16.78305,0c1.02963,-0.15293 1.93105,-0.85438 2.96171,-1c7.14476,-1.00949 14.66601,0.90967 21.81303,-0.01355c2.73151,-0.35285 5.44586,-1.00659 8.19947,-1.01873c14.80857,0 29.61715,0 44.42571,0c3.94348,0 7.90505,-0.10922 11.84686,0c1.30309,0.0361 2.73319,-0.38566 3.90621,0.1903c5.08983,2.49913 1.59772,115.89651 1.59772,115.89651l-539.98759,-0.21688c0,0 -1.06367,-108.69693 1.0081,-115.1605l3.21215,-2.44549c0,0 1.93953,-0.9823 3.0916,0.73606z" fill="url(#color-2)"/></g></g></svg>