<svg version="1.1" xmlns="http://www.w3.org/2000/svg" xmlns:xlink="http://www.w3.org/1999/xlink" width="14.75438" height="14.79636" viewBox="0,0,14.75438,14.79636"><defs><linearGradient x1="261.26276" y1="175.62688" x2="270.14026" y2="175.62688" gradientUnits="userSpaceOnUse" id="color-1"><stop offset="0" stop-color="#2a2a2a"/><stop offset="1" stop-color="#313131"/></linearGradient><linearGradient x1="261.26276" y1="175.62688" x2="270.14026" y2="175.62688" gradientUnits="userSpaceOnUse" id="color-2"><stop offset="0" stop-color="#080808"/><stop offset="1" stop-color="#414141"/></linearGradient><linearGradient x1="265.06684" y1="174.8837" x2="264.521" y2="175.45152" gradientUnits="userSpaceOnUse" id="color-3"><stop offset="0" stop-color="#7b6f80"/><stop offset="1" stop-color="#382c3f"/></linearGradient><linearGradient x1="264.77177" y1="174.38056" x2="264.00173" y2="175.18158" gradientUnits="userSpaceOnUse" id="color-4"><stop offset="0" stop-color="#ababab"/><stop offset="1" stop-color="#7e7e7e"/></linearGradient><linearGradient x1="264.45184" y1="174.71337" x2="264.31877" y2="174.85179" gradientUnits="userSpaceOnUse" id="color-5"><stop offset="0" stop-color="#323232"/><stop offset="1" stop-color="#232323"/></linearGradient><linearGradient x1="264.24843" y1="174.92496" x2="264.14429" y2="175.0333" gradientUnits="userSpaceOnUse" id="color-6"><stop offset="0" stop-color="#272727"/><stop offset="1" stop-color="#191919"/></linearGradient><linearGradient x1="264.62922" y1="174.52885" x2="264.52507" y2="174.63718" gradientUnits="userSpaceOnUse" id="color-7"><stop offset="0" stop-color="#393939"/><stop offset="1" stop-color="#323232"/></linearGradient><linearGradient x1="264.09036" y1="175.0894" x2="264.03007" y2="175.1521" gradientUnits="userSpaceOnUse" id="color-8"><stop offset="0" stop-color="#1f1f1f"/><stop offset="1" stop-color="#191919"/></linearGradient><linearGradient x1="264.74342" y1="174.41005" x2="264.68314" y2="174.47275" gradientUnits="userSpaceOnUse" id="color-9"><stop offset="0" stop-color="#515151"/><stop offset="1" stop-color="#3d3d3d"/></linearGradient><linearGradient x1="264.82316" y1="174.59092" x2="264.21397" y2="175.22464" gradientUnits="userSpaceOnUse" id="color-10"><stop offset="0" stop-color="#4b00bb"/><stop offset="1" stop-color="#30004f"/></linearGradient><linearGradient x1="265.43719" y1="175.21045" x2="264.85723" y2="175.81375" gradientUnits="userSpaceOnUse" id="color-11"><stop offset="0" stop-color="#4b00ba"/><stop offset="1" stop-color="#300050"/></linearGradient><linearGradient x1="264.6698" y1="174.96473" x2="264.57946" y2="175.05871" gradientUnits="userSpaceOnUse" id="color-12"><stop offset="0" stop-color="#806f89"/><stop offset="1" stop-color="#685473"/></linearGradient><linearGradient x1="264.53171" y1="175.10838" x2="264.46101" y2="175.18193" gradientUnits="userSpaceOnUse" id="color-13"><stop offset="0" stop-color="#6a5675"/><stop offset="1" stop-color="#5c4768"/></linearGradient><linearGradient x1="264.79023" y1="174.83947" x2="264.71952" y2="174.91302" gradientUnits="userSpaceOnUse" id="color-14"><stop offset="0" stop-color="#97899e"/><stop offset="1" stop-color="#7f6e88"/></linearGradient><linearGradient x1="264.4244" y1="175.22002" x2="264.38347" y2="175.26258" gradientUnits="userSpaceOnUse" id="color-15"><stop offset="0" stop-color="#544c58"/><stop offset="1" stop-color="#4d3b58"/></linearGradient><linearGradient x1="264.86776" y1="174.75881" x2="264.82684" y2="174.80138" gradientUnits="userSpaceOnUse" id="color-16"><stop offset="0" stop-color="#a594ac"/><stop offset="1" stop-color="#96889d"/></linearGradient><linearGradient x1="264.80967" y1="175.09919" x2="264.71934" y2="175.19316" gradientUnits="userSpaceOnUse" id="color-17"><stop offset="0" stop-color="#806f89"/><stop offset="1" stop-color="#685473"/></linearGradient><linearGradient x1="264.67157" y1="175.24284" x2="264.60088" y2="175.31638" gradientUnits="userSpaceOnUse" id="color-18"><stop offset="0" stop-color="#6a5675"/><stop offset="1" stop-color="#5c4768"/></linearGradient><linearGradient x1="264.93009" y1="174.97392" x2="264.85938" y2="175.04747" gradientUnits="userSpaceOnUse" id="color-19"><stop offset="0" stop-color="#97899e"/><stop offset="1" stop-color="#7f6e88"/></linearGradient><linearGradient x1="264.56426" y1="175.35447" x2="264.52334" y2="175.39704" gradientUnits="userSpaceOnUse" id="color-20"><stop offset="0" stop-color="#544c58"/><stop offset="1" stop-color="#4d3b58"/></linearGradient><linearGradient x1="265.00762" y1="174.89326" x2="264.96671" y2="174.93584" gradientUnits="userSpaceOnUse" id="color-21"><stop offset="0" stop-color="#a594ac"/><stop offset="1" stop-color="#96889d"/></linearGradient><linearGradient x1="264.94954" y1="175.23365" x2="264.85921" y2="175.32762" gradientUnits="userSpaceOnUse" id="color-22"><stop offset="0" stop-color="#806f89"/><stop offset="1" stop-color="#685473"/></linearGradient><linearGradient x1="264.81144" y1="175.3773" x2="264.74075" y2="175.45084" gradientUnits="userSpaceOnUse" id="color-23"><stop offset="0" stop-color="#6a5675"/><stop offset="1" stop-color="#5c4768"/></linearGradient><linearGradient x1="265.06996" y1="175.10838" x2="264.99925" y2="175.18192" gradientUnits="userSpaceOnUse" id="color-24"><stop offset="0" stop-color="#97899e"/><stop offset="1" stop-color="#7f6e88"/></linearGradient><linearGradient x1="264.70413" y1="175.48893" x2="264.66321" y2="175.5315" gradientUnits="userSpaceOnUse" id="color-25"><stop offset="0" stop-color="#544c58"/><stop offset="1" stop-color="#4d3b58"/></linearGradient><linearGradient x1="265.1475" y1="175.02773" x2="265.10658" y2="175.0703" gradientUnits="userSpaceOnUse" id="color-26"><stop offset="0" stop-color="#a594ac"/><stop offset="1" stop-color="#96889d"/></linearGradient><linearGradient x1="265.08941" y1="175.36811" x2="264.99907" y2="175.46209" gradientUnits="userSpaceOnUse" id="color-27"><stop offset="0" stop-color="#806f89"/><stop offset="1" stop-color="#685473"/></linearGradient><linearGradient x1="264.95133" y1="175.51176" x2="264.88062" y2="175.5853" gradientUnits="userSpaceOnUse" id="color-28"><stop offset="0" stop-color="#6a5675"/><stop offset="1" stop-color="#5c4768"/></linearGradient><linearGradient x1="265.20983" y1="175.24284" x2="265.13913" y2="175.31639" gradientUnits="userSpaceOnUse" id="color-29"><stop offset="0" stop-color="#97899e"/><stop offset="1" stop-color="#7f6e88"/></linearGradient><linearGradient x1="264.844" y1="175.6234" x2="264.80308" y2="175.66596" gradientUnits="userSpaceOnUse" id="color-30"><stop offset="0" stop-color="#544c58"/><stop offset="1" stop-color="#4d3b58"/></linearGradient><linearGradient x1="265.28737" y1="175.16219" x2="265.24645" y2="175.20475" gradientUnits="userSpaceOnUse" id="color-31"><stop offset="0" stop-color="#a594ac"/><stop offset="1" stop-color="#96889d"/></linearGradient><linearGradient x1="267.50493" y1="173.39833" x2="266.77979" y2="173.70577" gradientUnits="userSpaceOnUse" id="color-32"><stop offset="0" stop-color="#7b6f80"/><stop offset="1" stop-color="#382c3f"/></linearGradient><linearGradient x1="267.43144" y1="172.81968" x2="266.40849" y2="173.25342" gradientUnits="userSpaceOnUse" id="color-33"><stop offset="0" stop-color="#ababab"/><stop offset="1" stop-color="#7e7e7e"/></linearGradient><linearGradient x1="267.00644" y1="172.99989" x2="266.82965" y2="173.07484" gradientUnits="userSpaceOnUse" id="color-34"><stop offset="0" stop-color="#323232"/><stop offset="1" stop-color="#232323"/></linearGradient><linearGradient x1="266.7362" y1="173.11446" x2="266.59786" y2="173.17312" gradientUnits="userSpaceOnUse" id="color-35"><stop offset="0" stop-color="#272727"/><stop offset="1" stop-color="#191919"/></linearGradient><linearGradient x1="267.24207" y1="172.89998" x2="267.10372" y2="172.95863" gradientUnits="userSpaceOnUse" id="color-36"><stop offset="0" stop-color="#393939"/><stop offset="1" stop-color="#323232"/></linearGradient><linearGradient x1="266.52622" y1="173.2035" x2="266.44614" y2="173.23745" gradientUnits="userSpaceOnUse" id="color-37"><stop offset="0" stop-color="#1f1f1f"/><stop offset="1" stop-color="#191919"/></linearGradient><linearGradient x1="267.39378" y1="172.83565" x2="267.31371" y2="172.8696" gradientUnits="userSpaceOnUse" id="color-38"><stop offset="0" stop-color="#515151"/><stop offset="1" stop-color="#3d3d3d"/></linearGradient><linearGradient x1="267.39599" y1="173.03331" x2="266.58669" y2="173.37645" gradientUnits="userSpaceOnUse" id="color-39"><stop offset="0" stop-color="#4b00bb"/><stop offset="1" stop-color="#30004f"/></linearGradient><linearGradient x1="267.71696" y1="173.84437" x2="266.94651" y2="174.17105" gradientUnits="userSpaceOnUse" id="color-40"><stop offset="0" stop-color="#4b00ba"/><stop offset="1" stop-color="#300050"/></linearGradient><linearGradient x1="267.10801" y1="173.31671" x2="266.98799" y2="173.3676" gradientUnits="userSpaceOnUse" id="color-41"><stop offset="0" stop-color="#806f89"/><stop offset="1" stop-color="#685473"/></linearGradient><linearGradient x1="266.92456" y1="173.39451" x2="266.83063" y2="173.43432" gradientUnits="userSpaceOnUse" id="color-42"><stop offset="0" stop-color="#6a5675"/><stop offset="1" stop-color="#5c4768"/></linearGradient><linearGradient x1="267.26798" y1="173.24888" x2="267.17406" y2="173.28871" gradientUnits="userSpaceOnUse" id="color-43"><stop offset="0" stop-color="#97899e"/><stop offset="1" stop-color="#7f6e88"/></linearGradient><linearGradient x1="266.782" y1="173.45493" x2="266.72763" y2="173.47799" gradientUnits="userSpaceOnUse" id="color-44"><stop offset="0" stop-color="#544c58"/><stop offset="1" stop-color="#4d3b58"/></linearGradient><linearGradient x1="267.37097" y1="173.20521" x2="267.31662" y2="173.22826" gradientUnits="userSpaceOnUse" id="color-45"><stop offset="0" stop-color="#a594ac"/><stop offset="1" stop-color="#96889d"/></linearGradient><linearGradient x1="267.18375" y1="173.49533" x2="267.06373" y2="173.54622" gradientUnits="userSpaceOnUse" id="color-46"><stop offset="0" stop-color="#806f89"/><stop offset="1" stop-color="#685473"/></linearGradient><linearGradient x1="267.00029" y1="173.57312" x2="266.90637" y2="173.61293" gradientUnits="userSpaceOnUse" id="color-47"><stop offset="0" stop-color="#6a5675"/><stop offset="1" stop-color="#5c4768"/></linearGradient><linearGradient x1="267.34372" y1="173.4275" x2="267.2498" y2="173.46733" gradientUnits="userSpaceOnUse" id="color-48"><stop offset="0" stop-color="#97899e"/><stop offset="1" stop-color="#7f6e88"/></linearGradient><linearGradient x1="266.85774" y1="173.63357" x2="266.80337" y2="173.65661" gradientUnits="userSpaceOnUse" id="color-49"><stop offset="0" stop-color="#544c58"/><stop offset="1" stop-color="#4d3b58"/></linearGradient><linearGradient x1="267.44672" y1="173.38382" x2="267.39235" y2="173.40688" gradientUnits="userSpaceOnUse" id="color-50"><stop offset="0" stop-color="#a594ac"/><stop offset="1" stop-color="#96889d"/></linearGradient><linearGradient x1="267.25948" y1="173.67395" x2="267.13947" y2="173.72485" gradientUnits="userSpaceOnUse" id="color-51"><stop offset="0" stop-color="#806f89"/><stop offset="1" stop-color="#685473"/></linearGradient><linearGradient x1="267.07603" y1="173.75175" x2="266.98211" y2="173.79156" gradientUnits="userSpaceOnUse" id="color-52"><stop offset="0" stop-color="#6a5675"/><stop offset="1" stop-color="#5c4768"/></linearGradient><linearGradient x1="267.41946" y1="173.60613" x2="267.32552" y2="173.64596" gradientUnits="userSpaceOnUse" id="color-53"><stop offset="0" stop-color="#97899e"/><stop offset="1" stop-color="#7f6e88"/></linearGradient><linearGradient x1="266.93347" y1="173.81219" x2="266.87911" y2="173.83524" gradientUnits="userSpaceOnUse" id="color-54"><stop offset="0" stop-color="#544c58"/><stop offset="1" stop-color="#4d3b58"/></linearGradient><linearGradient x1="267.52246" y1="173.56246" x2="267.46811" y2="173.58551" gradientUnits="userSpaceOnUse" id="color-55"><stop offset="0" stop-color="#a594ac"/><stop offset="1" stop-color="#96889d"/></linearGradient><linearGradient x1="267.33521" y1="173.85257" x2="267.2152" y2="173.90347" gradientUnits="userSpaceOnUse" id="color-56"><stop offset="0" stop-color="#806f89"/><stop offset="1" stop-color="#685473"/></linearGradient><linearGradient x1="267.15176" y1="173.93036" x2="267.05784" y2="173.97018" gradientUnits="userSpaceOnUse" id="color-57"><stop offset="0" stop-color="#6a5675"/><stop offset="1" stop-color="#5c4768"/></linearGradient><linearGradient x1="267.4952" y1="173.78475" x2="267.40126" y2="173.82458" gradientUnits="userSpaceOnUse" id="color-58"><stop offset="0" stop-color="#97899e"/><stop offset="1" stop-color="#7f6e88"/></linearGradient><linearGradient x1="267.0092" y1="173.99082" x2="266.95485" y2="174.01386" gradientUnits="userSpaceOnUse" id="color-59"><stop offset="0" stop-color="#544c58"/><stop offset="1" stop-color="#4d3b58"/></linearGradient><linearGradient x1="267.59819" y1="173.74108" x2="267.54384" y2="173.76413" gradientUnits="userSpaceOnUse" id="color-60"><stop offset="0" stop-color="#a594ac"/><stop offset="1" stop-color="#96889d"/></linearGradient><linearGradient x1="263.46302" y1="177.08959" x2="263.17096" y2="177.82107" gradientUnits="userSpaceOnUse" id="color-61"><stop offset="0" stop-color="#7b6f80"/><stop offset="1" stop-color="#382c3f"/></linearGradient><linearGradient x1="263.00028" y1="176.73448" x2="262.5883" y2="177.76638" gradientUnits="userSpaceOnUse" id="color-62"><stop offset="0" stop-color="#ababab"/><stop offset="1" stop-color="#7e7e7e"/></linearGradient><linearGradient x1="262.82913" y1="177.1632" x2="262.75792" y2="177.34152" gradientUnits="userSpaceOnUse" id="color-63"><stop offset="0" stop-color="#323232"/><stop offset="1" stop-color="#232323"/></linearGradient><linearGradient x1="262.72028" y1="177.43579" x2="262.66455" y2="177.57535" gradientUnits="userSpaceOnUse" id="color-64"><stop offset="0" stop-color="#272727"/><stop offset="1" stop-color="#191919"/></linearGradient><linearGradient x1="262.92403" y1="176.92551" x2="262.8683" y2="177.06506" gradientUnits="userSpaceOnUse" id="color-65"><stop offset="0" stop-color="#393939"/><stop offset="1" stop-color="#323232"/></linearGradient><linearGradient x1="262.63572" y1="177.64761" x2="262.60345" y2="177.72839" gradientUnits="userSpaceOnUse" id="color-66"><stop offset="0" stop-color="#1f1f1f"/><stop offset="1" stop-color="#191919"/></linearGradient><linearGradient x1="262.98513" y1="176.77246" x2="262.95287" y2="176.85323" gradientUnits="userSpaceOnUse" id="color-67"><stop offset="0" stop-color="#515151"/><stop offset="1" stop-color="#3d3d3d"/></linearGradient><linearGradient x1="263.12708" y1="176.91004" x2="262.80113" y2="177.72642" gradientUnits="userSpaceOnUse" id="color-68"><stop offset="0" stop-color="#4b00bb"/><stop offset="1" stop-color="#30004f"/></linearGradient><linearGradient x1="263.9291" y1="177.25297" x2="263.61879" y2="178.03016" gradientUnits="userSpaceOnUse" id="color-69"><stop offset="0" stop-color="#4b00ba"/><stop offset="1" stop-color="#300050"/></linearGradient><linearGradient x1="263.12567" y1="177.31407" x2="263.07732" y2="177.43514" gradientUnits="userSpaceOnUse" id="color-70"><stop offset="0" stop-color="#806f89"/><stop offset="1" stop-color="#685473"/></linearGradient><linearGradient x1="263.05177" y1="177.49914" x2="263.01394" y2="177.59387" gradientUnits="userSpaceOnUse" id="color-71"><stop offset="0" stop-color="#6a5675"/><stop offset="1" stop-color="#5c4768"/></linearGradient><linearGradient x1="263.19009" y1="177.1527" x2="263.15226" y2="177.24744" gradientUnits="userSpaceOnUse" id="color-72"><stop offset="0" stop-color="#97899e"/><stop offset="1" stop-color="#7f6e88"/></linearGradient><linearGradient x1="262.99436" y1="177.64292" x2="262.97245" y2="177.69778" gradientUnits="userSpaceOnUse" id="color-73"><stop offset="0" stop-color="#544c58"/><stop offset="1" stop-color="#4d3b58"/></linearGradient><linearGradient x1="263.23157" y1="177.0488" x2="263.20968" y2="177.10364" gradientUnits="userSpaceOnUse" id="color-74"><stop offset="0" stop-color="#a594ac"/><stop offset="1" stop-color="#96889d"/></linearGradient><linearGradient x1="263.30584" y1="177.38601" x2="263.25751" y2="177.50707" gradientUnits="userSpaceOnUse" id="color-75"><stop offset="0" stop-color="#806f89"/><stop offset="1" stop-color="#685473"/></linearGradient><linearGradient x1="263.23195" y1="177.57107" x2="263.19412" y2="177.66581" gradientUnits="userSpaceOnUse" id="color-76"><stop offset="0" stop-color="#6a5675"/><stop offset="1" stop-color="#5c4768"/></linearGradient><linearGradient x1="263.37026" y1="177.22464" x2="263.33245" y2="177.31938" gradientUnits="userSpaceOnUse" id="color-77"><stop offset="0" stop-color="#97899e"/><stop offset="1" stop-color="#7f6e88"/></linearGradient><linearGradient x1="263.17454" y1="177.71487" x2="263.15264" y2="177.7697" gradientUnits="userSpaceOnUse" id="color-78"><stop offset="0" stop-color="#544c58"/><stop offset="1" stop-color="#4d3b58"/></linearGradient><linearGradient x1="263.41175" y1="177.12073" x2="263.38986" y2="177.17558" gradientUnits="userSpaceOnUse" id="color-79"><stop offset="0" stop-color="#a594ac"/><stop offset="1" stop-color="#96889d"/></linearGradient><linearGradient x1="263.48602" y1="177.45795" x2="263.4377" y2="177.57902" gradientUnits="userSpaceOnUse" id="color-80"><stop offset="0" stop-color="#806f89"/><stop offset="1" stop-color="#685473"/></linearGradient><linearGradient x1="263.41215" y1="177.64302" x2="263.37431" y2="177.73776" gradientUnits="userSpaceOnUse" id="color-81"><stop offset="0" stop-color="#6a5675"/><stop offset="1" stop-color="#5c4768"/></linearGradient><linearGradient x1="263.55046" y1="177.29658" x2="263.51263" y2="177.39134" gradientUnits="userSpaceOnUse" id="color-82"><stop offset="0" stop-color="#97899e"/><stop offset="1" stop-color="#7f6e88"/></linearGradient><linearGradient x1="263.35472" y1="177.78682" x2="263.33283" y2="177.84166" gradientUnits="userSpaceOnUse" id="color-83"><stop offset="0" stop-color="#544c58"/><stop offset="1" stop-color="#4d3b58"/></linearGradient><linearGradient x1="263.59194" y1="177.19268" x2="263.57005" y2="177.24752" gradientUnits="userSpaceOnUse" id="color-84"><stop offset="0" stop-color="#a594ac"/><stop offset="1" stop-color="#96889d"/></linearGradient><linearGradient x1="263.66621" y1="177.5299" x2="263.61787" y2="177.65096" gradientUnits="userSpaceOnUse" id="color-85"><stop offset="0" stop-color="#806f89"/><stop offset="1" stop-color="#685473"/></linearGradient><linearGradient x1="263.59232" y1="177.71496" x2="263.5545" y2="177.80969" gradientUnits="userSpaceOnUse" id="color-86"><stop offset="0" stop-color="#6a5675"/><stop offset="1" stop-color="#5c4768"/></linearGradient><linearGradient x1="263.73064" y1="177.36852" x2="263.69281" y2="177.46328" gradientUnits="userSpaceOnUse" id="color-87"><stop offset="0" stop-color="#97899e"/><stop offset="1" stop-color="#7f6e88"/></linearGradient><linearGradient x1="263.53491" y1="177.85876" x2="263.51301" y2="177.91359" gradientUnits="userSpaceOnUse" id="color-88"><stop offset="0" stop-color="#544c58"/><stop offset="1" stop-color="#4d3b58"/></linearGradient><linearGradient x1="263.77213" y1="177.26462" x2="263.75024" y2="177.31946" gradientUnits="userSpaceOnUse" id="color-89"><stop offset="0" stop-color="#a594ac"/><stop offset="1" stop-color="#96889d"/></linearGradient><radialGradient cx="270.10783" cy="179.99999" r="5.78431" gradientUnits="userSpaceOnUse" id="color-90"><stop offset="0" stop-color="#8ba0ff"/><stop offset="1" stop-color="#8ba0ff" stop-opacity="0"/></radialGradient><radialGradient cx="270.19558" cy="180.04836" r="5.48891" gradientUnits="userSpaceOnUse" id="color-91"><stop offset="0" stop-color="#637dff"/><stop offset="1" stop-color="#637dff" stop-opacity="0"/></radialGradient><radialGradient cx="270.21666" cy="179.97857" r="5.26502" gradientUnits="userSpaceOnUse" id="color-92"><stop offset="0" stop-color="#849aff"/><stop offset="1" stop-color="#849aff" stop-opacity="0"/></radialGradient><radialGradient cx="271.26698" cy="179.25892" r="5.22319" gradientUnits="userSpaceOnUse" id="color-93"><stop offset="0" stop-color="#7a94e0"/><stop offset="1" stop-color="#5570ab"/></radialGradient></defs><g transform="translate(-261.13775,-171.09105)"><g data-paper-data="{&quot;isPaintingLayer&quot;:true}" fill-rule="nonzero" stroke-linecap="butt" stroke-linejoin="miter" stroke-miterlimit="10" stroke-dasharray="" stroke-dashoffset="0" style="mix-blend-mode: normal"><path d="M270.07825,172.15227c0,0 -2.5235,-0.16074 -5.28454,2.14051c-2.70369,2.25346 -2.65047,5.74493 -2.65047,5.74493h-0.87615c0,0 -0.24218,-4.09271 2.89404,-6.44678c3.37488,-2.90131 5.97912,-2.32909 5.97912,-2.32909z" data-paper-data="{&quot;index&quot;:null}" fill="url(#color-1)" stroke="url(#color-2)" stroke-width="0.25"/><g data-paper-data="{&quot;index&quot;:null}" stroke-width="0"><path d="M264.7145,174.54499l0.7047,0.67743l-0.54584,0.56782l-0.7047,-0.67743z" fill="url(#color-3)" stroke="#000000"/><path d="M264.67797,174.2904l0.18758,0.18032l-0.77002,0.80102l-0.18758,-0.18032z" fill="url(#color-4)" stroke="none"/><path d="M264.38593,174.65001l0.13181,0.12672l-0.13306,0.13842l-0.13181,-0.12672z" fill="url(#color-5)" stroke="#000000"/><path d="M264.18252,174.8616l0.13181,0.12672l-0.10414,0.10833l-0.13181,-0.12672z" fill="url(#color-6)" stroke="#000000"/><path d="M264.56331,174.46549l0.13181,0.12672l-0.10414,0.10833l-0.13181,-0.12672z" fill="url(#color-7)" stroke="#000000"/><path d="M264.02445,175.02604l0.13181,0.12672l-0.06027,0.06271l-0.13181,-0.12672z" fill="url(#color-8)" stroke="#000000"/><path d="M264.67751,174.34669l0.13181,0.12672l-0.06027,0.06271l-0.13181,-0.12672z" fill="url(#color-9)" stroke="#000000"/><path d="M264.78514,174.55438l0.07604,0.0731l-0.60919,0.63371l-0.07604,-0.0731z" fill="url(#color-10)" stroke="#000000"/><path d="M265.40932,175.18366l0.05577,0.05361l-0.57996,0.6033l-0.05577,-0.05361z" fill="url(#color-11)" stroke="#000000"/><path d="M264.61852,174.91543l0.10257,0.09861l-0.09035,0.09398l-0.10257,-0.09861z" fill="url(#color-12)" stroke="#000000"/><path d="M264.48043,175.05908l0.10257,0.09861l-0.0707,0.07354l-0.10257,-0.09861z" fill="url(#color-13)" stroke="#000000"/><path d="M264.73894,174.79016l0.10257,0.09861l-0.0707,0.07354l-0.10257,-0.09861z" fill="url(#color-14)" stroke="#000000"/><path d="M264.37312,175.17072l0.10257,0.09861l-0.04092,0.04257l-0.10257,-0.09861z" fill="url(#color-15)" stroke="#000000"/><path d="M264.81647,174.70951l0.10257,0.09861l-0.04092,0.04257l-0.10257,-0.09861z" fill="url(#color-16)" stroke="#000000"/><path d="M264.75839,175.04989l0.10257,0.09861l-0.09035,0.09398l-0.10257,-0.09861z" fill="url(#color-17)" stroke="#000000"/><path d="M264.6203,175.19354l0.10257,0.09861l-0.0707,0.07354l-0.10257,-0.09861z" fill="url(#color-18)" stroke="#000000"/><path d="M264.87881,174.92462l0.10257,0.09861l-0.0707,0.07354l-0.10257,-0.09861z" fill="url(#color-19)" stroke="#000000"/><path d="M264.51299,175.30518l0.10257,0.09861l-0.04092,0.04257l-0.10257,-0.09861z" fill="url(#color-20)" stroke="#000000"/><path d="M264.95634,174.84397l0.10257,0.09861l-0.04092,0.04257l-0.10257,-0.09861z" fill="url(#color-21)" stroke="#000000"/><path d="M264.89826,175.18435l0.10257,0.09861l-0.09035,0.09398l-0.10257,-0.09861z" fill="url(#color-22)" stroke="#000000"/><path d="M264.76016,175.32799l0.10257,0.09861l-0.0707,0.07354l-0.10257,-0.09861z" fill="url(#color-23)" stroke="#000000"/><path d="M265.01867,175.05908l0.10257,0.09861l-0.0707,0.07354l-0.10257,-0.09861z" fill="url(#color-24)" stroke="#000000"/><path d="M264.65285,175.43963l0.10257,0.09861l-0.04092,0.04257l-0.10257,-0.09861z" fill="url(#color-25)" stroke="#000000"/><path d="M265.09621,174.97842l0.10257,0.09861l-0.04092,0.04257l-0.10257,-0.09861z" fill="url(#color-26)" stroke="#000000"/><path d="M265.03813,175.31881l0.10257,0.09861l-0.09035,0.09398l-0.10257,-0.09861z" fill="url(#color-27)" stroke="#000000"/><path d="M264.90003,175.46246l0.10257,0.09861l-0.0707,0.07354l-0.10257,-0.09861z" fill="url(#color-28)" stroke="#000000"/><path d="M265.15855,175.19354l0.10257,0.09861l-0.0707,0.07354l-0.10257,-0.09861z" fill="url(#color-29)" stroke="#000000"/><path d="M264.79272,175.57409l0.10257,0.09861l-0.04092,0.04257l-0.10257,-0.09861z" fill="url(#color-30)" stroke="#000000"/><path d="M265.23608,175.11288l0.10257,0.09861l-0.04092,0.04257l-0.10257,-0.09861z" fill="url(#color-31)" stroke="#000000"/></g><g data-paper-data="{&quot;index&quot;:null}" stroke-width="0"><path d="M267.31415,172.94835l0.38157,0.89994l-0.72514,0.30746l-0.38157,-0.89994z" fill="url(#color-32)" stroke="#000000"/><path d="M267.38065,172.6999l0.10158,0.23956l-1.02296,0.43374l-0.10157,-0.23957z" fill="url(#color-33)" stroke="none"/><path d="M266.97075,172.91573l0.07137,0.16833l-0.17678,0.07495l-0.07138,-0.16834z" fill="url(#color-34)" stroke="#000000"/><path d="M266.70053,173.0303l0.07137,0.16833l-0.13834,0.05865l-0.07138,-0.16834z" fill="url(#color-35)" stroke="#000000"/><path d="M267.20637,172.81581l0.07138,0.16834l-0.13836,0.05865l-0.07137,-0.16833z" fill="url(#color-36)" stroke="#000000"/><path d="M266.49053,173.11933l0.07138,0.16834l-0.08008,0.03395l-0.07138,-0.16834z" fill="url(#color-37)" stroke="#000000"/><path d="M267.35811,172.75146l0.07138,0.16834l-0.08008,0.03395l-0.07138,-0.16834z" fill="url(#color-38)" stroke="#000000"/><path d="M267.37541,172.98476l0.04118,0.09712l-0.8093,0.34314l-0.04118,-0.09712z" fill="url(#color-39)" stroke="#000000"/><path d="M267.70186,173.80876l0.03021,0.07122l-0.77046,0.32668l-0.0302,-0.07123z" fill="url(#color-40)" stroke="#000000"/><path d="M267.08023,173.25122l0.05554,0.13099l-0.12001,0.05088l-0.05553,-0.13099z" fill="url(#color-41)" stroke="#000000"/><path d="M266.89679,173.329l0.05553,0.13099l-0.09392,0.03982l-0.05553,-0.13099z" fill="url(#color-42)" stroke="#000000"/><path d="M267.24021,173.18337l0.05553,0.13099l-0.09393,0.03984l-0.05553,-0.13099z" fill="url(#color-43)" stroke="#000000"/><path d="M266.75423,173.38944l0.05554,0.13099l-0.05436,0.02304l-0.05554,-0.13099z" fill="url(#color-44)" stroke="#000000"/><path d="M267.34322,173.13971l0.05553,0.13099l-0.05436,0.02304l-0.05554,-0.13099z" fill="url(#color-45)" stroke="#000000"/><path d="M267.15597,173.42985l0.05554,0.13099l-0.12001,0.05088l-0.05553,-0.13099z" fill="url(#color-46)" stroke="#000000"/><path d="M266.97251,173.50763l0.05554,0.13099l-0.09391,0.03981l-0.05554,-0.13099z" fill="url(#color-47)" stroke="#000000"/><path d="M267.31595,173.362l0.05554,0.13099l-0.09393,0.03984l-0.05553,-0.13099z" fill="url(#color-48)" stroke="#000000"/><path d="M266.82997,173.56806l0.05553,0.13099l-0.05437,0.02305l-0.05553,-0.131z" fill="url(#color-49)" stroke="#000000"/><path d="M267.41895,173.31834l0.05554,0.13099l-0.05436,0.02304l-0.05554,-0.13099z" fill="url(#color-50)" stroke="#000000"/><path d="M267.23171,173.60848l0.05553,0.13098l-0.12001,0.05088l-0.05553,-0.13099z" fill="url(#color-51)" stroke="#000000"/><path d="M267.04824,173.68624l0.05553,0.13098l-0.09391,0.03983l-0.05553,-0.13098z" fill="url(#color-52)" stroke="#000000"/><path d="M267.39169,173.54063l0.05553,0.13098l-0.09393,0.03984l-0.05553,-0.13098z" fill="url(#color-53)" stroke="#000000"/><path d="M266.9057,173.7467l0.05553,0.13098l-0.05437,0.02305l-0.05554,-0.13099z" fill="url(#color-54)" stroke="#000000"/><path d="M267.49469,173.49696l0.05554,0.13099l-0.05436,0.02304l-0.05554,-0.13099z" fill="url(#color-55)" stroke="#000000"/><path d="M267.30745,173.78707l0.05553,0.13099l-0.12001,0.0509l-0.05553,-0.13099z" fill="url(#color-56)" stroke="#000000"/><path d="M267.12398,173.86486l0.05555,0.13099l-0.09391,0.03983l-0.05554,-0.13099z" fill="url(#color-57)" stroke="#000000"/><path d="M267.46741,173.71925l0.05554,0.13099l-0.09393,0.03984l-0.05553,-0.13099z" fill="url(#color-58)" stroke="#000000"/><path d="M266.98144,173.92531l0.05554,0.13099l-0.05437,0.02305l-0.05554,-0.13099z" fill="url(#color-59)" stroke="#000000"/><path d="M267.57044,173.67559l0.05553,0.13099l-0.05436,0.02304l-0.05555,-0.13099z" fill="url(#color-60)" stroke="#000000"/></g><g data-paper-data="{&quot;index&quot;:null}" stroke-width="0"><path d="M263.00912,176.90836l0.90781,0.36245l-0.29206,0.73148l-0.9078,-0.36245z" fill="url(#color-61)" stroke="#000000"/><path d="M262.87948,176.68624l0.24166,0.09649l-0.412,1.0319l-0.24166,-0.09649z" fill="url(#color-62)" stroke="none"/><path d="M262.74422,177.1293l0.1698,0.0678l-0.07121,0.17831l-0.16981,-0.06779z" fill="url(#color-63)" stroke="#000000"/><path d="M262.63539,177.40188l0.1698,0.0678l-0.05572,0.13955l-0.16981,-0.06779z" fill="url(#color-64)" stroke="#000000"/><path d="M262.83912,176.89161l0.16981,0.0678l-0.05573,0.13956l-0.1698,-0.0678z" fill="url(#color-65)" stroke="#000000"/><path d="M262.55081,177.61371l0.16981,0.06779l-0.03225,0.08079l-0.16981,-0.0678z" fill="url(#color-66)" stroke="#000000"/><path d="M262.90022,176.73855l0.16981,0.0678l-0.03225,0.08078l-0.16981,-0.06779z" fill="url(#color-67)" stroke="#000000"/><path d="M263.0781,176.89047l0.09796,0.03912l-0.32596,0.81637l-0.09796,-0.03911z" fill="url(#color-68)" stroke="#000000"/><path d="M263.89317,177.23863l0.07185,0.02869l-0.31031,0.7772l-0.07185,-0.02869z" fill="url(#color-69)" stroke="#000000"/><path d="M263.05958,177.2877l0.13214,0.05276l-0.04834,0.12106l-0.13214,-0.05277z" fill="url(#color-70)" stroke="#000000"/><path d="M262.9857,177.47274l0.13214,0.05277l-0.03782,0.09474l-0.13214,-0.05276z" fill="url(#color-71)" stroke="#000000"/><path d="M263.12402,177.12632l0.13213,0.05276l-0.03783,0.09475l-0.13214,-0.05277z" fill="url(#color-72)" stroke="#000000"/><path d="M262.92828,177.61656l0.13214,0.05276l-0.0219,0.05484l-0.13214,-0.05277z" fill="url(#color-73)" stroke="#000000"/><path d="M263.16552,177.02241l0.13214,0.05277l-0.0219,0.05483l-0.13214,-0.05276z" fill="url(#color-74)" stroke="#000000"/><path d="M263.23977,177.35964l0.13214,0.05276l-0.04834,0.12106l-0.13214,-0.05277z" fill="url(#color-75)" stroke="#000000"/><path d="M263.16589,177.5447l0.13214,0.05276l-0.03782,0.09474l-0.13214,-0.05277z" fill="url(#color-76)" stroke="#000000"/><path d="M263.3042,177.19825l0.13214,0.05276l-0.03783,0.09475l-0.13214,-0.05276z" fill="url(#color-77)" stroke="#000000"/><path d="M263.10847,177.68849l0.13213,0.05277l-0.0219,0.05484l-0.13214,-0.05277z" fill="url(#color-78)" stroke="#000000"/><path d="M263.3457,177.09436l0.13213,0.05276l-0.0219,0.05484l-0.13214,-0.05275z" fill="url(#color-79)" stroke="#000000"/><path d="M263.41996,177.43158l0.13213,0.05276l-0.04834,0.12106l-0.13213,-0.05277z" fill="url(#color-80)" stroke="#000000"/><path d="M263.34606,177.61664l0.13213,0.05275l-0.03782,0.09474l-0.13213,-0.05276z" fill="url(#color-81)" stroke="#000000"/><path d="M263.48439,177.27021l0.13213,0.05276l-0.03782,0.09475l-0.13213,-0.05276z" fill="url(#color-82)" stroke="#000000"/><path d="M263.28866,177.76045l0.13214,0.05275l-0.0219,0.05485l-0.13213,-0.05276z" fill="url(#color-83)" stroke="#000000"/><path d="M263.52589,177.1663l0.13213,0.05276l-0.02189,0.05484l-0.13214,-0.05276z" fill="url(#color-84)" stroke="#000000"/><path d="M263.60014,177.50352l0.13214,0.05276l-0.04834,0.12106l-0.13214,-0.05277z" fill="url(#color-85)" stroke="#000000"/><path d="M263.52625,177.68859l0.13215,0.05276l-0.03782,0.09474l-0.13214,-0.05277z" fill="url(#color-86)" stroke="#000000"/><path d="M263.66457,177.34215l0.13214,0.05276l-0.03782,0.09475l-0.13214,-0.05277z" fill="url(#color-87)" stroke="#000000"/><path d="M263.46885,177.83238l0.13213,0.05276l-0.0219,0.05484l-0.13214,-0.05276z" fill="url(#color-88)" stroke="#000000"/><path d="M263.70607,177.23824l0.13214,0.05277l-0.02189,0.05483l-0.13214,-0.05276z" fill="url(#color-89)" stroke="#000000"/></g><g stroke="none" stroke-width="0.5"><path d="M270.10783,185.88741c-3.19457,0 -5.99996,-2.65046 -5.99996,-5.90199c0,-3.25152 2.80537,-5.87283 5.99996,-5.87283c3.19457,0 5.78431,2.63589 5.78431,5.88741c0,3.25152 -2.58974,5.88741 -5.78431,5.88741z" data-paper-data="{&quot;index&quot;:null}" fill="url(#color-90)"/><path d="M270.19558,185.63511c-3.03145,0 -5.76522,-2.5013 -5.76522,-5.58676c0,-3.08549 2.73379,-5.58676 5.76522,-5.58676c3.03145,0 5.48891,2.50129 5.48891,5.58676c0,3.08549 -2.45747,5.58676 -5.48891,5.58676z" data-paper-data="{&quot;index&quot;:null}" fill="url(#color-91)"/><path d="M270.21666,185.23756c-2.90779,0 -5.53954,-2.38022 -5.53954,-5.28468c0,-2.90447 2.63175,-5.23329 5.53954,-5.23329c2.90779,0 5.26502,2.35453 5.26502,5.25899c0,2.90447 -2.35723,5.25899 -5.26502,5.25899z" data-paper-data="{&quot;index&quot;:null}" fill="url(#color-92)"/><path d="M270.00003,185.22325c-2.88469,0 -5.22319,-2.33851 -5.22319,-5.22319c0,-2.88469 2.33851,-5.22319 5.22319,-5.22319c2.88469,0 5.22319,2.33851 5.22319,5.22319c0,2.88469 -2.33851,5.22319 -5.22319,5.22319z" data-paper-data="{&quot;index&quot;:null}" fill="url(#color-93)"/><path d="M268.23395,175.05285c0.10568,-0.03655 0.21257,-0.06851 0.32049,-0.09644c0.37851,-0.12244 0.8032,-0.13599 1.16771,-0.17335c0.29134,-0.02986 0.8216,-0.01565 0.88016,-0.01547l0.01276,0.00889l0.00765,0.00118l0.00128,-0.0071l0.21178,0.0389c0.39522,0.03812 1.65147,0.541 1.65147,0.63527c0,0.13589 -0.13671,0.17204 -0.15368,0.16826l-0.54156,0.00099l0.00379,-0.01914c-0.70508,0.04757 -1.22575,-0.14691 -1.95092,-0.17599c-0.42926,-0.0172 -1.06909,0.1327 -1.48376,0.12849c-0.0973,0.03104 -0.83593,-0.17867 -0.83593,-0.17867c0,0 0.66751,-0.31439 0.70876,-0.31582z" fill-opacity="0.65098" fill="#4f5e99"/><path d="M266.42902,176.1905l0.04861,0.01224c0.00486,-0.03825 0.02082,-0.08003 0.0538,-0.12425c0.14913,-0.2 0.34797,-0.05 0.34797,-0.05c1.28026,0.96837 3.88332,0.49313 5.42307,0.38198c0.23145,-0.00011 1.3164,-0.28005 1.52753,0.10315c0.0482,0.08749 0.24362,0.16645 0.15413,0.34012c-0.35791,0.69454 -4.52398,0.47722 -5.24517,0.3735c-0.80196,-0.04745 -1.47712,-0.32814 -2.24534,-0.50514l-0.18516,-0.04651c0,0 -0.10394,-0.12725 -0.08592,-0.19976c0.02154,-0.08665 0.20649,-0.28532 0.20649,-0.28532z" fill-opacity="0.52157" fill="#5c75b5"/><path d="M274.23197,176.88543c0.02488,0.24876 -0.22388,0.27364 -0.22388,0.27364l-0.156,0.00473c-0.46666,0.19292 -1.0356,0.40395 -1.52849,0.38287c-1.92471,0.12 -4.34183,0.26317 -6.118,-0.68897c0,0 -0.22012,-0.11852 -0.10159,-0.33864c0.11852,-0.22012 0.33864,-0.1016 0.33864,-0.1016c1.6931,0.9162 4.04818,0.74406 5.882,0.62921c0.4077,0.0406 0.94421,-0.18004 1.33514,-0.3444l0.29855,-0.04072c0,0 0.24876,-0.02488 0.27364,0.22388z" fill-opacity="0.45098" fill="#506cb3"/><path d="M274.26959,176.98303c0.2,0.15 0.05,0.35 0.05,0.35l-0.22346,0.18688c-0.83081,0.15024 -1.54387,0.45845 -2.41153,0.45781c-1.73696,0.27692 -4.12346,0.09425 -5.73018,-0.77976c0,0 -0.21947,-0.11971 -0.09976,-0.33919c0.11971,-0.21947 0.33919,-0.09976 0.33919,-0.09976c1.53483,0.83969 3.79249,0.97998 5.45164,0.72024c0.8502,-0.00062 1.54474,-0.30209 2.3612,-0.45128l-0.0871,0.00505c0,0 0.15,-0.2 0.35,-0.05z" fill-opacity="0.45098" fill="#6877ba"/><path d="M274.51587,177.46617c0.07905,0.23717 -0.15812,0.31623 -0.15812,0.31623l-0.21782,0.0722c-0.88088,0.23988 -1.75987,0.32615 -2.64151,0.5468c-2.07304,0.51105 -3.76438,-0.43408 -5.71537,-0.74594c0,0 -0.2466,-0.0411 -0.2055,-0.2877c0.0411,-0.2466 0.2877,-0.2055 0.2877,-0.2055c1.86368,0.32095 3.53379,1.25666 5.5119,0.75406c0.87973,-0.2197 1.75363,-0.30443 2.63122,-0.54411l0.19127,-0.06416c0,0 0.23717,-0.07905 0.31623,0.15812z" fill-opacity="0.37647" fill="#8da5d6"/><path d="M274.6458,177.658c0.13867,0.20801 -0.06934,0.34668 -0.06934,0.34668l-0.287,0.17195c-0.81767,0.18859 -1.88969,0.30324 -2.62857,0.67269c-2.03552,0.51868 -4.11239,-0.56317 -6.03888,-1.08419c0,0 -0.24119,-0.06578 -0.17541,-0.30697c0.06578,-0.24119 0.30697,-0.17541 0.30697,-0.17541c1.79743,0.49383 3.83122,1.56171 5.73385,1.09763c0.75014,-0.37508 1.85935,-0.49925 2.68961,-0.69094l0.12208,-0.10078c0,0 0.20802,-0.13867 0.34669,0.06934z" fill-opacity="0.4" fill="#677cc7"/><path d="M274.6803,178.21331c0.06063,0.24254 -0.1819,0.30317 -0.1819,0.30317l-0.10682,0.02616c-0.98006,0.1745 -1.97037,0.56932 -2.94813,0.68423c-2.16476,0.23595 -3.93212,-0.5696 -6.01644,-1.05024c0,0 -0.2436,-0.05622 -0.18738,-0.29981c0.05622,-0.2436 0.29981,-0.18738 0.29981,-0.18738c2.01343,0.46497 3.76326,1.30058 5.84719,1.04067c0.95097,-0.09838 1.96213,-0.50177 2.9155,-0.67941l0.075,-0.01929c0,0 0.24253,-0.06063 0.30317,0.1819z" fill-opacity="0.74902" fill="#6f8cc7"/><path d="M275.08768,178.93595c0.15583,0.19521 -0.03896,0.35139 -0.03896,0.35139l-0.14352,0.11163c-1.19098,0.68492 -2.6439,1.20079 -4.0166,1.3066c-1.94756,0.00102 -3.9238,-1.50796 -5.77314,-1.36419c0,0 -0.24872,0.01917 -0.26785,-0.23009c-0.01913,-0.24927 0.22958,-0.26843 0.22958,-0.26843c1.88372,-0.14408 3.83114,1.36199 5.79226,1.36308c1.27628,-0.09841 2.68718,-0.5842 3.78437,-1.23886l0.08325,-0.07018c0,0 0.19479,-0.15617 0.35062,0.03904z" fill-opacity="0.63529" fill="#7a94cc"/><path d="M274.84319,178.2076c0.11181,0.2236 -0.1118,0.33541 -0.1118,0.33541l-0.09662,0.04165c-1.06968,0.2669 -2.0566,0.89629 -3.14963,0.89261c-1.56393,0.3185 -4.83874,-0.39077 -6.19872,-1.1935c0,0 -0.21437,-0.12863 -0.08575,-0.343c0.12862,-0.21437 0.343,-0.08575 0.343,-0.08575c1.25915,0.77138 4.40575,1.41711 5.8922,1.12468c1.06516,-0.00315 2.03003,-0.61768 3.07763,-0.88012l-0.00571,-0.0038c0,0 0.2236,-0.1118 0.33541,0.11181z" fill-opacity="0.67451" fill="#758bc7"/><path d="M275.17282,179.39305c0.08506,0.23495 -0.14886,0.32039 -0.14886,0.32039l-0.24891,0.09091c-1.44515,0.52105 -2.51443,1.39468 -4.11694,1.19543c-1.91889,-0.17521 -3.73363,-1.07377 -5.62598,-1.38832c0,0 -0.24552,-0.0411 -0.2046,-0.2877c0.04092,-0.2466 0.28644,-0.2055 0.28644,-0.2055c1.88084,0.31727 3.69156,1.21038 5.59755,1.38441c1.49414,0.18951 2.54103,-0.66892 3.8934,-1.16821l0.24891,-0.09091c0,0 0.23392,-0.08544 0.31899,0.14951z" fill-opacity="0.67451" fill="#7b95cf"/><path d="M274.21349,177.38862c0.06115,-0.04149 0.19581,-0.10388 0.33046,0.02672c0.18225,0.17677 0,0.35356 0,0.35356l-0.13787,0.08714c-0.65485,0.17167 -1.32588,0.24732 -1.98332,0.42946c-2.45494,0.79294 -4.25518,-0.45772 -6.62788,-0.58012c0,0 -0.25735,-0.01387 -0.24305,-0.26349c0.0143,-0.24962 0.27164,-0.23575 0.27164,-0.23575c2.29773,0.12857 4.08126,1.36723 6.44693,0.60169c0.64308,-0.17827 1.30291,-0.25394 1.94308,-0.41921z" fill-opacity="0.58039" fill="#637cb5"/><path d="M274.97141,178.408c0.13721,0.20801 -0.06861,0.34668 -0.06861,0.34668l-0.12015,0.07239c-1.40051,0.51345 -2.76869,1.17938 -4.28448,1.05728c-1.44331,-0.37032 -3.81821,-1.05284 -5.26759,-1.04223c0,0 -0.24737,0 -0.24737,-0.25c0,-0.25 0.24737,-0.25 0.24737,-0.25c1.51355,0.00883 3.84183,0.67393 5.34685,1.04868c1.41414,0.10532 2.72776,-0.55155 4.03616,-1.03363l0.01479,-0.01852c0,0 0.20582,-0.13867 0.34305,0.06934z" fill-opacity="0.45098" fill="#7795d6"/><path d="M275.06039,178.99365c0.10106,0.22978 -0.13474,0.32827 -0.13474,0.32827l-0.19383,0.07877c-1.04925,0.29117 -2.06675,0.90245 -3.16469,0.98507c-2.21073,0.35435 -4.09489,-1.35914 -6.28954,-1.22588c0,0 -0.2561,0.01468 -0.27116,-0.23489c-0.01506,-0.24957 0.24104,-0.26425 0.24104,-0.26425c2.17609,-0.11825 4.0977,1.58442 6.25775,1.22867c1.06289,-0.07936 2.06824,-0.68519 3.08564,-0.96948l0.13268,-0.05759c0,0 0.2358,-0.09848 0.33686,0.13131z" fill-opacity="0.45098" fill="#80a1d6"/><path d="M274.64778,178.63015c0.03455,-0.03047 0.18867,-0.14908 0.3428,0.00663c0.17499,0.17677 0,0.35356 0,0.35356l-0.08681,0.06955c-1.13098,0.57129 -2.65584,1.21552 -3.92209,1.11712c-1.96661,-0.00183 -3.73079,-0.99485 -5.64198,-1.20589c0,0 -0.24595,-0.02761 -0.21862,-0.27608c0.02733,-0.24847 0.27328,-0.22086 0.27328,-0.22086c1.89971,0.21642 3.65399,1.20509 5.6063,1.2032c1.1746,0.09128 2.59117,-0.51612 3.6471,-1.04723z" fill-opacity="0.4" fill="#7b9dd6"/><path d="M274.83905,178.14682c0.03145,0.24807 -0.22019,0.27908 -0.22019,0.27908l-0.13569,0.01182c-0.8937,0.28811 -1.614,0.62192 -2.57735,0.73962c-2.21004,0.00295 -4.30787,-1.00815 -6.42484,-0.99952c0,0 -0.2536,0 -0.2536,-0.25c0,-0.25 0.2536,-0.25 0.2536,-0.25c2.12192,0.00757 4.18798,0.99725 6.39333,1.00048c0.92089,-0.11456 1.59525,-0.43005 2.44848,-0.71492l0.23317,-0.03363c0,0 0.25164,-0.03101 0.2831,0.21706z" fill-opacity="0.37647" fill="#7592d1"/><path d="M275.23321,179.77394c0,0.25 -0.24946,0.25 -0.24946,0.25l0.0005,-0.00962c-1.43623,0.40782 -2.57907,1.41914 -4.09084,1.41858c-1.99234,-0.13259 -3.89983,-1.50368 -5.86529,-1.47714c0,0 -0.24946,0 -0.24946,-0.25c0,-0.25 0.24946,-0.25 0.24946,-0.25c1.99865,0.01992 3.86856,1.34232 5.88189,1.47741c1.42422,-0.00055 2.57224,-1.00587 3.93717,-1.39961l0.13656,-0.00962c0,0 0.24946,0 0.24946,0.25z" fill-opacity="0.37647" fill="#5d79ba"/><path d="M275.02904,180.59213c0,0.25 -0.24946,0.25 -0.24946,0.25l0.028,-0.01105c-1.52857,0.47126 -2.5195,1.27489 -4.1844,1.14571c-1.77542,-0.28014 -3.7387,-1.28153 -5.51441,-1.02354c0,0 -0.24695,0.03536 -0.28223,-0.21213c-0.03528,-0.24749 0.21167,-0.28284 0.21167,-0.28284c0.07342,-0.01038 0.14705,-0.01876 0.22085,-0.02528c-0.08285,-0.00913 -0.16619,-0.01697 -0.25005,-0.02342c0,0 -0.24872,-0.01917 -0.22959,-0.26844c0.01913,-0.24927 0.26785,-0.23009 0.26785,-0.23009c2.0009,0.15473 3.69819,1.09703 5.66683,1.36345c1.54874,0.00044 2.69294,-0.97099 4.14104,-1.33399l0.08318,-0.00746c0,0 0.24946,0 0.24946,0.25c0,0.18836 -0.1416,0.2348 -0.21143,0.24625c0.0308,0.03668 0.05268,0.08879 0.05268,0.16284z" fill-opacity="0.54118" fill="#6472ba"/><path d="M265.02763,180.20979c0.24382,-0.04472 0.28816,0.20125 0.28816,0.20125l0.03031,0.17175c1.58227,-0.09246 3.46373,0.65158 5.07735,1.10387c1.36735,-0.11086 2.80437,-0.74367 3.86758,-0.77492c0.09228,-0.04113 0.18378,-0.08143 0.27443,-0.12036l0.14949,-0.20736c0.0449,-0.06385 0.11877,-0.10553 0.20228,-0.10553c0.13687,0 0.24782,0.11193 0.24782,0.25c0,0.01698 -0.00168,0.03355 -0.00487,0.04958l-0.04419,0.24515l-0.09257,-0.01698l-0.0792,0.10986c-0.32548,0.69549 -1.49251,1.01103 -2.7254,1.11779c-0.4209,0.09407 -0.84355,0.1383 -1.25914,0.10538c-0.09183,-0.02134 -0.1851,-0.04441 -0.27968,-0.06895c-0.64235,-0.02182 -1.20307,-0.08622 -1.54707,-0.16338c-0.87985,-0.26156 -4.17212,-0.51802 -4.26273,-1.37872l-0.04206,-0.22773c0,0 -0.04433,-0.24597 0.19949,-0.29069z" fill-opacity="0.45098" fill="#567bc4"/><path d="M273.66506,176.29812c0,0.25 -0.25,0.25 -0.25,0.25h-0.20454c-0.26502,-0.00076 -0.48718,0.03205 -0.74251,0.10191c-1.66703,0.60157 -4.0279,0.10704 -5.7113,-0.19685c0,0 -0.24597,-0.04472 -0.20125,-0.29069c0.04472,-0.24597 0.29069,-0.20125 0.29069,-0.20125c1.59807,0.29244 3.89138,0.79123 5.47052,0.21224c0.30512,-0.083 0.57743,-0.12458 0.89385,-0.12537h0.20454c0,0 0.25,0 0.25,0.25z" fill-opacity="0.33725" fill="#5f6db0"/><path d="M273.19293,175.88564c0.09152,0.23212 -0.13729,0.32496 -0.13729,0.32496l-0.1387,0.05453c-1.97746,0.53084 -3.76249,-0.0071 -5.75031,-0.15091c0,0 -0.2458,-0.01781 -0.22824,-0.26718c0.01756,-0.24937 0.26336,-0.23156 0.26336,-0.23156c1.91538,0.139 3.68545,0.7133 5.58552,0.16727l0.08533,-0.03638c0,0 0.22881,-0.09285 0.32033,0.13927z" fill-opacity="0.45098" fill="#495bad"/><path d="M272.91506,175.64918c0.20819,0.1384 -0.25,0.25 -0.25,0.25l-0.04619,-0.00404c-1.71964,0.31071 -3.32042,-0.13361 -4.99927,-0.13233c0,0 -0.41495,-0.06214 -0.25,-0.25c0.18367,-0.20918 0.39286,-0.16837 0.39286,-0.16837c1.64906,0.00117 4.25464,-0.2922 5.1526,0.30474z" fill-opacity="0.29804" fill="#304573"/><path d="M272.48201,175.3991c0.07905,0.17704 -0.05608,0.21565 -0.05608,0.21565l-0.1246,0.02577c-1.34269,0.09109 -3.11254,0.14756 -4.40145,-0.08963c0,0 -0.24253,-0.04526 -0.1819,-0.22631c0.06063,-0.18105 0.30317,-0.13578 0.30317,-0.13578c1.23542,0.23432 3.93282,-0.06878 4.46086,0.2103z" fill-opacity="0.29804" fill="#5e6c91"/><path d="M275.00486,181.265c0.14531,0.20344 -0.05813,0.34874 -0.05813,0.34874l-0.15091,0.10754c-1.16051,0.90239 -2.5564,0.98448 -3.97166,0.98448c-1.91899,-0.00095 -3.7114,-0.92672 -5.61009,-1.06892c0,0 -0.24927,-0.01917 -0.23009,-0.26843c0.01918,-0.24927 0.26844,-0.23009 0.26844,-0.23009c1.88695,0.14856 3.66754,1.06844 5.57174,1.06745c1.30045,0 2.5962,-0.04788 3.66469,-0.87915l0.16727,-0.11974c0,0 0.20343,-0.14531 0.34874,0.05813z" fill-opacity="0.45098" fill="#6a84d6"/><path d="M274.6563,181.91322c0.15472,0.19521 -0.03868,0.35139 -0.03868,0.35139l-0.11524,0.09303c-0.78908,0.61739 -1.97128,0.75427 -2.94597,0.80265c-2.14419,-0.14183 -4.11305,-1.04065 -6.24833,-1.15947c0,0 -0.24729,-0.01387 -0.23355,-0.26348c0.01374,-0.24962 0.26102,-0.23575 0.26102,-0.23575c2.1306,0.12037 4.08948,1.01229 6.22497,1.15872c0.85899,-0.04413 1.94354,-0.15022 2.63775,-0.69735l0.10991,-0.08879c0,0 0.1934,-0.15617 0.34811,0.03904z" fill-opacity="0.45098" fill="#5877ba"/><path d="M274.44594,182.47618c0.13772,0.20801 -0.06885,0.34669 -0.06885,0.34669l-0.1014,0.06443c-1.01483,0.47162 -1.8919,0.64776 -3.01155,0.56778c-1.93329,-0.15099 -3.88139,-0.74413 -5.80431,-1.09426c0,0 -0.24428,-0.04472 -0.19986,-0.29069c0.04442,-0.24597 0.28869,-0.20125 0.28869,-0.20125c1.9042,0.35035 3.83775,0.94044 5.75221,1.08756c1.03911,0.07527 1.82591,-0.0859 2.76672,-0.52313l0.03404,-0.02648c0,0 0.20658,-0.13868 0.3443,0.06933z" fill-opacity="0.45098" fill="#7a8ac2"/><path d="M274.25879,182.88001c0.09722,0.22979 -0.12963,0.32827 -0.12963,0.32827l-0.17624,0.07557c-1.4871,0.49726 -2.81109,0.36968 -4.30571,0.14168c-0.07471,0.03858 -0.15584,0.02831 -0.15584,0.02831l-0.22321,-0.0324c-1.08086,-0.34605 -2.39373,-0.75292 -3.51578,-0.64851c0,0 -0.2458,0.02263 -0.26814,-0.22634c-0.02235,-0.24897 0.22345,-0.27161 0.22345,-0.27161c1.18701,-0.10805 2.56535,0.30414 3.70911,0.66967l0.01424,0.00137c0.08007,-0.04733 0.17335,-0.03279 0.17335,-0.03279c1.46189,0.22911 2.74518,0.3904 4.19243,-0.10371l0.13789,-0.0608c0,0 0.22686,-0.09848 0.32408,0.13131z" fill-opacity="0.45098" fill="#7292d6"/><path d="M275.01321,181.14871c0.1166,0.22361 -0.1166,0.33541 -0.1166,0.33541l-0.04854,0.01706c-1.36836,1.02841 -2.0833,1.25219 -3.872,0.93886c-1.76882,-0.15367 -3.7885,-1.06815 -5.55951,-0.75175c0,0 -0.25653,0.04472 -0.30317,-0.20125c-0.04664,-0.24597 0.20989,-0.29069 0.20989,-0.29069c1.84823,-0.31553 3.88333,0.58735 5.72311,0.74825c1.64543,0.28564 2.23713,0.13162 3.47592,-0.83386l0.14109,-0.07384c0,0 0.23321,-0.1118 0.34981,0.1118z" fill-opacity="0.45098" fill="#6581b8"/><path d="M273.1545,183.97858c0.02226,0.24897 -0.22261,0.27161 -0.22261,0.27161l-0.24076,0.0222c-0.11838,0.01563 -0.23677,0.03126 -0.35515,0.04689c-1.93618,-0.13328 -4.01583,-0.26449 -5.90441,-0.57147c0,0 -0.24254,-0.0411 -0.20211,-0.2877c0.04042,-0.2466 0.28296,-0.2055 0.28296,-0.2055c0.79405,0.14149 1.63195,0.23887 2.48024,0.3156c-0.96566,-0.22474 -1.91996,-0.47809 -2.94737,-0.47809c0,0 -0.24387,0 -0.24387,-0.25c0,-0.25 0.24387,-0.25 0.24387,-0.25c1.84919,0 3.46143,0.81818 5.32087,0.81818c0.74238,0 1.48817,-0.08619 2.21775,-0.22324l-0.02514,-0.0075c0,0 0.20291,-0.13868 0.33819,0.06934c0.13528,0.20801 -0.06764,0.34669 -0.06764,0.34669l-0.15816,0.08341c-0.21025,0.03891 -0.4217,0.07402 -0.63395,0.10444c0.05559,0.02968 0.1076,0.0866 0.11731,0.19514z" fill-opacity="0.37647" fill="#6383c9"/><path d="M273.58596,183.6267c0.07677,0.23717 -0.15355,0.31623 -0.15355,0.31623l-0.08839,0.02915c-0.40323,0.09578 -0.76161,0.14282 -1.17382,0.14268c-1.95763,0.1061 -4.05411,-0.96874 -5.92207,-0.61758c0,0 -0.23886,0.04472 -0.28229,-0.20125c-0.04343,-0.24597 0.19543,-0.29069 0.19543,-0.29069c1.91472,-0.35713 4.00254,0.71774 5.99617,0.60969c0.38197,-0.00012 0.70345,-0.04115 1.0774,-0.13005l0.04403,-0.0163c0,0 0.23032,-0.07906 0.30709,0.15811z" fill-opacity="0.67451" fill="#658bc4"/><path d="M272.6855,184.18487c0.10677,0.22361 -0.10677,0.33541 -0.10677,0.33541l-0.19357,0.07185c-0.16597,-0.00126 -0.33213,0.02749 -0.49386,0.06658c-1.76024,0.00472 -3.42772,-0.51476 -5.16483,-0.63531c0,0 -0.23821,-0.01663 -0.22233,-0.26608c0.01588,-0.24945 0.25409,-0.23282 0.25409,-0.23282c1.71006,0.12013 3.34783,0.631 5.07904,0.63742c0.17926,-0.04332 0.36391,-0.06868 0.54789,-0.06979l-0.01995,-0.01906c0,0 0.21353,-0.1118 0.3203,0.1118z" fill-opacity="0.74902" fill="#597dcc"/><path d="M273.23276,183.74905c0.15614,0.18981 -0.02602,0.35251 -0.02602,0.35251l-0.24569,0.18774c-0.42124,0.11921 -0.81384,0.27121 -1.24784,0.34678c-1.88436,0.27692 -3.94453,-0.32873 -5.57483,-1.15982c0,0 -0.21459,-0.1118 -0.10729,-0.33541c0.10729,-0.22361 0.32188,-0.1118 0.32188,-0.1118c1.51701,0.8041 3.52197,1.37945 5.28687,1.11291c0.41588,-0.07203 0.79116,-0.21984 1.19495,-0.33504l0.05967,-0.08499c0,0 0.18216,-0.1627 0.3383,0.02712z" fill-opacity="0.30196" fill="#6377d2"/><path d="M273.11958,184.00121c0,0.25 -0.25,0.25 -0.25,0.25l-0.16653,-0.00291c-1.92272,0.29449 -3.9897,-0.10117 -5.83583,-0.64362c0,0 -0.23984,-0.07054 -0.1693,-0.31038c0.07054,-0.23984 0.31038,-0.1693 0.31038,-0.1693c1.77452,0.52245 3.76917,0.91501 5.61872,0.62911l0.24256,-0.00291c0,0 0.25,0 0.25,0.25z" fill-opacity="0.30196" fill="#6586e0"/><path d="M272.01563,184.5485c0.10552,0.22361 -0.10552,0.33541 -0.10552,0.33541l-0.08762,0.04068c-1.44677,0.40751 -3.19064,-0.32095 -4.6414,-0.53953c0,0 -0.23357,-0.03536 -0.20021,-0.28284c0.03337,-0.24749 0.26693,-0.21213 0.26693,-0.21213c1.37077,0.20852 3.08911,0.93807 4.45307,0.55138l-0.00183,-0.00478c0,0 0.21103,-0.1118 0.31655,0.1118z" fill-opacity="0.39216" fill="#5578c2"/><path d="M271.48555,184.7569c0.10402,0.17181 -0.12304,0.23913 -0.12304,0.23913c-0.07373,0.02186 -0.26521,0.07862 -0.38636,0.11454c-0.04361,0.03765 -0.09946,0.0542 -0.09946,0.0542l-0.11254,0.02557c-1.06316,0.07327 -2.08363,-0.11846 -3.05548,-0.48241c0,0 -0.22757,-0.08535 -0.12467,-0.24896c0.10291,-0.16361 0.33048,-0.07826 0.33048,-0.07826c0.85714,0.32196 1.76173,0.50332 2.6991,0.44724c0.03891,-0.02674 0.0793,-0.03872 0.0793,-0.03872c0.09232,-0.02737 0.18463,-0.05473 0.27695,-0.0821l0.18463,-0.05473c0,0 0.22707,-0.06732 0.33109,0.1045z" fill-opacity="0.50588" fill="#577dbf"/><path d="M270,185.22323c-2.88469,0 -5.22319,-2.33851 -5.22319,-5.22319c0,-2.88469 2.33851,-5.22319 5.22319,-5.22319c2.88469,0 5.22319,2.33851 5.22319,5.22319c0,2.88469 -2.33851,5.22319 -5.22319,5.22319z" data-paper-data="{&quot;index&quot;:null}" fill-opacity="0.37647" fill="#1f62ff"/></g></g></g></svg>