<svg version="1.1" xmlns="http://www.w3.org/2000/svg" xmlns:xlink="http://www.w3.org/1999/xlink" width="488" height="440.13803" viewBox="0,0,488,440.13803"><defs><radialGradient cx="239.76178" cy="177.81006" r="244" gradientUnits="userSpaceOnUse" id="color-1"><stop offset="0" stop-color="#121212"/><stop offset="1" stop-color="#868686"/></radialGradient><radialGradient cx="240.00005" cy="180" r="173.5" gradientUnits="userSpaceOnUse" id="color-2"><stop offset="0" stop-color="#000000"/><stop offset="1" stop-color="#000000" stop-opacity="0"/></radialGradient><radialGradient cx="237.93829" cy="318.1666" r="116.49049" gradientUnits="userSpaceOnUse" id="color-3"><stop offset="0" stop-color="#33266a"/><stop offset="1" stop-color="#949074"/></radialGradient><linearGradient x1="242.7439" y1="206.71003" x2="247.12426" y2="240.06435" gradientUnits="userSpaceOnUse" id="color-4"><stop offset="0" stop-color="#5fa5c2"/><stop offset="1" stop-color="#7fff7d"/></linearGradient><radialGradient cx="217.12983" cy="96.63091" r="64.41492" gradientUnits="userSpaceOnUse" id="color-5"><stop offset="0" stop-color="#ffa8a8"/><stop offset="1" stop-color="#ffed7d"/></radialGradient><radialGradient cx="232.39258" cy="141.39011" r="13.70696" gradientUnits="userSpaceOnUse" id="color-6"><stop offset="0" stop-color="#daffe3"/><stop offset="1" stop-color="#0c1a0f"/></radialGradient><radialGradient cx="266.89257" cy="159.89011" r="16.12716" gradientUnits="userSpaceOnUse" id="color-7"><stop offset="0" stop-color="#5f6471"/><stop offset="1" stop-color="#171d2c"/></radialGradient><radialGradient cx="291.89257" cy="138.39011" r="13.22358" gradientUnits="userSpaceOnUse" id="color-8"><stop offset="0" stop-color="#ffd0d0"/><stop offset="1" stop-color="#2a0000"/></radialGradient><linearGradient x1="135.23471" y1="120.32549" x2="168.2089" y2="129.33859" gradientUnits="userSpaceOnUse" id="color-9"><stop offset="0" stop-color="#694444"/><stop offset="1" stop-color="#98a1b9"/></linearGradient><radialGradient cx="20.89954" cy="109.95027" r="65.45502" gradientUnits="userSpaceOnUse" id="color-10"><stop offset="0" stop-color="#dcdcdc"/><stop offset="1" stop-color="#a0a0a0"/></radialGradient><radialGradient cx="58.0649" cy="91.73487" r="46.28026" gradientUnits="userSpaceOnUse" id="color-11"><stop offset="0" stop-color="#d1ffc4"/><stop offset="1" stop-color="#2188ff"/></radialGradient><radialGradient cx="58.0649" cy="91.73487" r="46.28026" gradientUnits="userSpaceOnUse" id="color-12"><stop offset="0" stop-color="#ceffc4"/><stop offset="1" stop-color="#ff21cc"/></radialGradient><radialGradient cx="58.0649" cy="91.73487" r="46.28026" gradientUnits="userSpaceOnUse" id="color-13"><stop offset="0" stop-color="#ffe9c4"/><stop offset="1" stop-color="#4fff21"/></radialGradient><radialGradient cx="58.0649" cy="91.73487" r="46.28026" gradientUnits="userSpaceOnUse" id="color-14"><stop offset="0" stop-color="#ffe9c4"/><stop offset="1" stop-color="#4fff21"/></radialGradient><radialGradient cx="58.06487" cy="91.73494" r="46.28024" gradientUnits="userSpaceOnUse" id="color-15"><stop offset="0" stop-color="#ffe9c4"/><stop offset="1" stop-color="#ffa321"/></radialGradient><radialGradient cx="58.06485" cy="91.73499" r="46.28024" gradientUnits="userSpaceOnUse" id="color-16"><stop offset="0" stop-color="#c4f0ff"/><stop offset="1" stop-color="#3d21ff"/></radialGradient><radialGradient cx="10.91039" cy="120.80014" r="50.24886" gradientUnits="userSpaceOnUse" id="color-17"><stop offset="0" stop-color="#1c2f30"/><stop offset="1" stop-color="#142913"/></radialGradient><radialGradient cx="31.66517" cy="39.93053" r="13.22632" gradientUnits="userSpaceOnUse" id="color-18"><stop offset="0" stop-color="#786c41"/><stop offset="1" stop-color="#141a29"/></radialGradient><radialGradient cx="17.6047" cy="94.84301" r="20.82216" gradientUnits="userSpaceOnUse" id="color-19"><stop offset="0" stop-color="#7ba676"/><stop offset="1" stop-color="#291616"/></radialGradient></defs><g transform="translate(4.23828,5.18993)"><g data-paper-data="{&quot;isPaintingLayer&quot;:true}" fill-rule="nonzero" stroke-linecap="butt" stroke-linejoin="miter" stroke-miterlimit="10" stroke-dasharray="" stroke-dashoffset="0" style="mix-blend-mode: normal"><path d="M-4.23828,360.81007v-366h488v366z" fill="url(#color-1)" stroke="none" stroke-width="0"/><path d="M413.5,180c0,97.7544 -77.6786,177 -173.5,177c-95.8214,0 -173.5,-79.2456 -173.5,-177c0,-97.7544 77.6786,-177 173.5,-177c95.8214,0 173.5,79.2456 173.5,177z" fill="url(#color-2)" stroke="none" stroke-width="0"/><path d="M160.25243,434.36546l0.87834,-232.97929l154.49348,0.58264l-0.87834,232.97929z" data-paper-data="{&quot;index&quot;:null}" fill="url(#color-3)" stroke="#ed6b00" stroke-width="0"/><path d="M348.70462,265.07935c-13.24357,-4.45377 -29.90384,-10.45611 -29.90384,-10.45611c0,0 -32.37218,-12.51812 -31.31601,-17.71865c6.17535,-30.41533 39.41955,-9.74441 39.41955,-9.74441c0,0 25.45325,8.58388 39.53421,13.31863c8.27351,3.51892 -5.00568,28.42576 -17.73388,24.60052z" data-paper-data="{&quot;index&quot;:null}" fill="#a3bda9" stroke="#000000" stroke-width="0"/><g><path d="M228.48725,242.5119l-4.38035,-33.35423l37.2739,-4.89511l4.38035,33.35423z" fill="url(#color-4)" stroke="#000000" stroke-width="0"/><path d="M302.57782,144.27643c1.15825,37.94343 -26.06368,69.56234 -60.80191,70.62275c-34.73819,1.06041 -63.8381,-28.83915 -64.99636,-66.78266c-1.15825,-37.94348 26.06372,-69.56234 60.80196,-70.62275c34.73815,-1.06041 63.83806,28.83915 64.99631,66.78267z" fill="url(#color-5)" stroke="none" stroke-width="0"/><path d="M234.24021,154.93526c-2.50656,4.56413 -7.13506,2.1034 -7.13506,2.1034c-4.67209,-2.5948 -12.48175,-5.39491 -11.96181,-12.87968c0.42489,-6.11682 10.39255,-11.81263 15.78488,-10.83296c9.78211,1.7772 18.67383,18.83841 3.31207,21.60924z" data-paper-data="{&quot;index&quot;:null}" fill="url(#color-6)" stroke="none" stroke-width="0.5"/><path d="M257.0938,176.41599c0.6539,-2.32212 2.30108,-2.87228 3.52687,-2.93738c0.38889,-0.03601 0.78833,-0.01594 1.18741,0.06639c-1.57584,-5.26582 -0.89405,-12.15203 -2.76053,-17.23739c0,0 -1.37318,-3.81193 2.43876,-5.18519c3.8119,-1.37313 5.18515,2.4388 5.18515,2.4388c2.25503,6.35973 4.01183,14.21829 4.0846,21.08007c0.02731,2.57134 1.45218,6.00343 -0.48065,7.6995c-2.00564,1.75997 -5.33394,-0.17113 -8.00098,-0.25671l-2.37873,-0.66982c-0.49303,-0.13881 -0.93874,-0.36294 -1.32595,-0.65208c-1.01167,-0.69505 -2.12977,-2.02393 -1.47587,-4.34605z" data-paper-data="{&quot;index&quot;:null}" fill="url(#color-7)" stroke="none" stroke-width="0.5"/><path d="M291.1509,132.11765c7.90861,2.00089 15.22634,20.50137 2.85304,23.36571c-1.98457,4.90829 -5.7402,2.21218 -5.7402,2.21218c-3.79187,-2.84138 -10.11739,-5.93054 -9.76022,-14.00987c0.29187,-6.60261 8.28781,-12.67099 12.64741,-11.56801z" data-paper-data="{&quot;index&quot;:null}" fill="url(#color-8)" stroke="none" stroke-width="0.5"/></g><g><path d="M143.21397,148.13132l-13.91167,-7.04724l10.96846,-39.18327l14.34131,4.53418c0,0 -0.08342,28.16284 -1.50814,36.19744c-1.25035,7.05115 -9.88995,5.49886 -9.88995,5.49886z" data-paper-data="{&quot;index&quot;:null}" fill="url(#color-9)" stroke="#000000" stroke-width="0"/><path d="M92.62779,41.11695c37.20903,10.17101 59.82485,46.03114 50.51341,80.09705c-9.31132,34.06606 -47.02355,53.43721 -84.23326,43.26609c-37.20904,-10.171 -59.82483,-46.03113 -50.51333,-80.09727c9.31132,-34.06606 47.02355,-53.43721 84.23326,-43.2661z" data-paper-data="{&quot;index&quot;:null}" fill="url(#color-10)" stroke="none" stroke-width="0"/><g data-paper-data="{&quot;index&quot;:null}" stroke="#ed6b00" stroke-width="0"><path d="M120.06778,95.78744c-13.35839,48.84049 -43.79651,43.68661 -61.50845,37.73827c-17.71168,-5.94862 -23.10829,-39.29515 -15.08115,-63.55234c8.02716,-24.25715 32.84158,-40.92647 50.55323,-34.97803c0,0 41.34655,6.93901 26.03601,60.79201z" data-paper-data="{&quot;index&quot;:null}" fill="url(#color-11)"/><path d="M120.06774,95.78737c-10.64504,38.91989 -32.13587,43.55258 -49.39001,40.81882c10.1992,-2.30862 18.77962,-9.44839 22.09363,-19.7025c5.15151,-15.93972 -4.37363,-33.36863 -21.27499,-38.92861c-11.2623,-3.70493 -22.95795,-1.20482 -31.03287,5.59214c0.58474,-4.68186 1.58755,-9.28151 3.01458,-13.59385c2.44675,-7.39378 6.45319,-14.08261 11.34275,-19.64084c11.45226,-0.16554 21.95201,-6.25876 27.05926,-16.18998c4.22018,-0.65878 8.34934,-0.42414 12.15125,0.85277c0,0 1.67418,0.28097 4.224,1.16866c-1.66421,2.33795 -2.99797,4.95532 -3.92213,7.81489c-5.15151,15.9397 4.37363,33.36863 21.27499,38.92861c2.32421,0.76462 4.66691,1.2649 6.99242,1.51776c-0.55225,3.53383 -1.38282,7.31554 -2.53329,11.36215z" data-paper-data="{&quot;index&quot;:null}" fill="url(#color-12)"/><path d="M43.47813,69.97334c2.73377,-8.26109 7.41455,-15.64216 13.09876,-21.5494c2.8363,2.28867 6.10881,4.16193 9.74122,5.47998c-9.14502,2.81607 -16.67229,9.62113 -19.72645,19.0713c-5.1515,15.93968 4.37365,33.36864 21.27498,38.92864c11.33085,3.72747 23.10037,1.17412 31.17996,-5.71679c2.03259,5.42612 5.60971,10.33055 10.38127,14.07284c-3.06558,4.47024 -6.40084,7.86638 -9.88644,10.40153c-3.95508,-5.52542 -9.74816,-9.94793 -16.83987,-12.28088c-12.55655,-4.1307 -25.65184,-0.54824 -33.66723,8.10286c-9.86214,-12.5214 -11.89631,-37.35083 -5.55618,-56.50999z" data-paper-data="{&quot;index&quot;:null}" fill="url(#color-13)"/><path d="M107.27895,73.79055c-3.20477,-8.55511 -10.24885,-15.81345 -19.76038,-19.26468c7.75681,-2.38852 14.34973,-7.64703 18.03634,-14.95524c7.17823,4.28593 15.42164,12.3452 17.44655,27.14878c-5.88613,0.87822 -11.34572,3.33823 -15.72252,7.07113z" data-paper-data="{&quot;index&quot;:null}" fill="url(#color-14)"/><path d="M95.66329,94.26763c-0.4223,-0.24396 -2.9717,0.36398 -3.73738,0.46241c-9.3425,1.20138 -18.96955,1.20807 -28.05133,3.47074c-0.85793,0.21373 -1.3348,3.27495 -1.85552,4.56933c-3.18891,7.92688 -7.49875,15.47387 -9.64428,23.74964c-0.27471,1.05967 -0.23935,2.23864 0.05238,3.50362c-5.40761,-4.56344 -9.10087,-12.26215 -11.02324,-21.23294c9.32632,-2.73844 17.03024,-9.60385 20.12909,-19.1924c4.00015,-12.37725 -0.84909,-25.65247 -11.12971,-33.5713c6.79434,-9.97203 16.39843,-17.40663 26.05235,-20.56737c-3.75244,3.33458 -6.66291,7.6301 -8.29538,12.68137c-5.15151,15.9397 4.37363,33.36864 21.27499,38.92861c4.19303,1.37935 8.44617,1.89865 12.55017,1.6563c0.15593,4.59679 1.40141,9.09108 3.56306,13.16543c-3.69292,-3.3918 -7.22774,-6.08845 -9.8851,-7.62351z" data-paper-data="{&quot;index&quot;:null}" fill="url(#color-15)"/><path d="M120.06776,95.78753c-13.35839,48.84049 -43.7965,43.6866 -61.50845,37.73827c-0.7699,-0.25856 -1.51655,-0.56894 -2.23986,-0.92804c5.73445,1.72588 12.37433,1.78262 17.29471,1.21614c0.50853,-0.05855 1.0186,-0.12845 1.53001,-0.20951c13.44317,1.22486 26.2111,-5.79612 31.39276,-17.81018c7.58459,-7.94701 12.99404,-17.58912 13.94806,-27.02495c1.6453,-16.2731 4.09912,-30.58136 -21.27499,-38.92861c-10.28027,-3.38188 -21.95623,1.15757 -31.44107,5.62184c-5.52897,2.60234 -4.55108,11.45331 -9.17944,15.30821c-6.40401,0.58365 -12.39599,3.02569 -17.16511,6.94455c0.54309,-2.65036 1.22721,-5.24423 2.05371,-7.74171c2.97043,-8.97639 8.23974,-16.91371 14.59722,-23.05033c0.42907,0.16028 0.86327,0.31278 1.30239,0.45723c14.26738,4.69351 29.23029,-0.57114 36.64638,-11.91456c1.96459,0.54334 5.18161,1.63263 8.73427,3.64189c2.04107,8.9119 8.14981,16.89388 16.94173,21.41274c2.49672,8.62181 2.68539,20.07854 -1.63275,35.26701z" data-paper-data="{&quot;index&quot;:null}" fill="url(#color-16)"/></g><g data-paper-data="{&quot;index&quot;:null}"><path d="M16.70057,108.68873c-0.29308,0.79901 -1.01538,2.86822 -1.65629,5.17249c-0.17936,2.7964 -0.53261,5.99275 -0.49177,8.58706c3.40792,3.21032 9.82902,0.31095 9.7638,8.2374c-0.11266,13.51877 -12.86032,3.38495 -15.61126,-2.43931c-2.27526,-8.09359 1.12699,-16.82257 3.17437,-24.75316c2.82036,-10.9237 4.48054,-22.08395 8.56577,-32.26958c-0.21261,-0.55643 -0.23206,-1.18873 -0.0105,-1.79119l1.01395,-2.75591c0.28067,-1.49805 0.60102,-3.11819 0.97668,-4.80191c0.63699,-4.53673 2.24754,-9.59646 3.93002,-14.22411c0.60257,-2.37483 1.36695,-4.50561 2.31588,-6.11719c0.49359,-1.27812 0.95216,-2.46757 1.34504,-3.53745l1.06836,-2.90517c0.48672,-1.32309 1.95325,-2.00124 3.27711,-1.5147c1.17782,0.43341 1.84443,1.64295 1.63426,2.83646l-0.26426,1.69527c0.85912,-0.39328 1.76866,-0.68909 2.73079,-0.87341l-0.0375,-1.31034l3.27479,-0.09194c0.33379,-0.01694 0.67688,0.03133 1.01079,0.15383c1.32309,0.48672 2.00126,1.95324 1.51471,3.27712c-0.14778,0.40222 -0.3867,0.74606 -0.68434,1.01408l-1.9794,1.86147l-0.05467,-0.05843l-0.11906,0.20769c-1.78238,1.15451 -3.33051,2.45522 -4.63136,3.87054c-1.28552,2.48007 -2.81876,5.00287 -4.32085,7.60341c-1.38052,4.94805 -0.51175,10.43241 2.90324,15.67764c0,0 1.38786,2.14239 -0.75432,3.53054c-2.1424,1.38787 -3.53056,-0.75432 -3.53056,-0.75432c-0.29479,-0.4573 -0.5749,-0.91771 -0.83866,-1.38035l-0.19845,1.47379c-0.0228,0.19865 -0.06924,0.39907 -0.14114,0.59532c-0.48672,1.32309 -1.95325,2.00124 -3.27711,1.5147c-0.66986,-0.24629 -1.17425,-0.74337 -1.44618,-1.34649c-0.52164,1.10643 -0.95549,2.1786 -1.15709,3.17013c-1.40764,6.92552 -5.41224,16.69213 -8.28972,26.33163c1.11141,0.4645 1.73273,1.63771 1.5285,2.79536l-0.47976,3.07251l-0.09943,-0.01555l-0.00722,0.03789z" fill="url(#color-17)" stroke="none" stroke-width="0.5"/><path d="M32.1194,32.65725c4.50552,-12.82215 4.63866,-12.62976 13.35027,-9.6892c8.71135,2.94023 13.4888,10.70724 10.67062,17.34701c-2.81857,6.6397 -12.16644,9.63807 -20.87789,6.69749c-8.71139,-2.94021 -7.36779,-2.33164 -3.14311,-14.35563z" data-paper-data="{&quot;index&quot;:null}" fill="url(#color-18)" stroke="#000000" stroke-width="0"/><path d="M30.06695,68.23463c9.74359,2.64162 15.2256,13.69699 12.24359,24.6926c-2.98102,10.99574 -13.29665,17.76811 -23.0398,15.12619c-9.74361,-2.64164 -10.01214,-2.48522 -3.46148,-23.01178c6.14245,-19.24851 4.51374,-19.44814 14.2575,-16.80674z" fill="url(#color-19)" stroke="#000000" stroke-width="0"/></g></g><g data-paper-data="{&quot;index&quot;:null}" stroke-width="0"><path d="M294.72218,399.95812c0,0 -9.41683,2.60817 -16.34674,1.57997c-5.9661,-0.88459 -9.1066,-5.42662 -14.25718,-5.43791c-2.55107,-0.00579 -9.51747,2.51646 -13.12708,2.62171c-4.77536,0.13895 -13.44016,3.86856 -18.41287,3.1592c-6.2213,-0.88678 -8.81206,-6.26697 -15.41093,-6.17634c-14.53055,0.1995 -28.8,4.01986 -28.8,4.01986c0,0 1.11399,-29.81294 -0.1972,-53.79c-1.27161,-23.26373 -4.96149,-40.46454 -5.51716,-56.1754c-0.62782,-17.75666 -0.48394,-65.32681 -0.48394,-65.32681c0,0 21.72426,-2.12502 32.11946,0.2511c9.85177,2.2524 28.70899,13.65354 28.70899,13.65354c0,0 24.60665,-11.7285 36.30975,-14.01141c9.19337,-1.79373 28.21364,1.42453 28.21364,1.42453c0,0 -0.03925,44.90658 -1.81256,69.04977c-0.94465,12.86311 -6.55024,29.8405 -8.57149,48.70113c-2.97476,27.75704 -2.41381,56.45789 -2.41381,56.45789z" fill="#d1b0b0" stroke="#292e32"/><path d="M189.6061,278.45897l0.28277,-26.90828l39.44353,-1.46317l-0.94123,30.03037z" fill="#f200ff" stroke="none"/><path d="M228.79555,267.217c-5.70093,-4.93481 -13.09998,-7.9728 -21.22859,-8.11176c-1.96355,-0.03357 -3.8903,0.10339 -5.76618,0.39718c2.72632,-2.47342 5.04269,-5.39345 6.83222,-8.64713l20.69945,-0.76782z" fill="#eeff00" stroke="none"/><path d="M195.9279,278.72934c1.21163,-3.35948 1.89967,-6.97254 1.96412,-10.74253c0.10265,-6.00583 -1.38994,-11.66769 -4.08716,-16.5814l25.87009,-0.95964c-8.94377,6.68024 -14.50435,17.50653 -14.20686,28.69167z" fill="#00ff5f" stroke="none"/><path d="M195.64873,278.71736c-0.60408,-2.00222 -1.3918,-3.92601 -2.34383,-5.75142c4.8529,-1.47712 9.24257,-4.03358 12.88397,-7.39396c3.87495,6.54599 9.92914,11.66143 17.18158,14.33114l-27.72174,-1.18576z" fill="#004fff" stroke="none"/><path d="M220.83774,279.79475c1.71925,-3.92352 2.70575,-8.24577 2.78355,-12.79665c0.10243,-5.99217 -1.38316,-11.64197 -4.06879,-16.54786l9.78,-0.36276l-0.94123,30.03043z" fill="#ff0000" stroke="none"/><path d="M189.77485,262.40881c3.26643,4.14278 7.49704,7.49525 12.36035,9.71437c0.38161,2.41201 1.02256,4.73956 1.8939,6.95266l-14.42288,-0.61693l0.16865,-16.05015z" fill="#00efff" stroke="none"/><path d="M207.37067,250.90221c-9.65968,5.51866 -16.31304,15.73888 -16.79144,27.59837l-0.97301,-0.04163l0.28275,-26.90829z" fill="#9c00ff" stroke="none"/></g><path d="M130.46271,191.71127c13.53498,6.8981 36.65625,18.45573 36.65625,18.45573c0,0 40.83441,8.55013 21.17162,43.64904c-3.13914,5.60349 -36.73097,-11.17944 -36.73097,-11.17944c0,0 -16.3243,-7.7833 -29.05474,-14.2719c-14.28872,-7.48334 -5.67887,-42.36472 7.95783,-36.65346z" fill="#b8bda6" stroke="#000000" stroke-width="0"/><path d="M80.03928,143.87276c0,0 8.05959,13.83873 22.84914,25.0211c3.55661,2.6892 31.96938,26.3421 35.65532,29.06501c13.64877,10.94321 -14.88048,33.4619 -27.06863,22.73614c-3.25566,-2.79187 -26.07019,-30.08195 -33.80856,-38.31869c-12.88398,-13.71339 -22.34499,-20.41442 -22.34499,-20.41442z" data-paper-data="{&quot;index&quot;:null}" fill="#b8bda6" stroke="#000000" stroke-width="0"/><path d="M55.09201,163.16055c1.08246,-0.81575 -13.08276,-14.54822 -8.72162,-18.27334c2.14505,-1.83227 8.75997,9.35596 14.56568,9.98601c3.07362,0.33371 -16.79486,-15.11701 -9.62046,-18.23207c2.46272,-1.06935 13.18235,13.55426 18.06286,14.94112c2.61258,0.7421 -18.70231,-20.08445 -14.057,-22.35528c2.75776,-1.34771 11.68121,12.73915 18.12598,16.86292c3.14007,2.00869 -11.83023,-16.6406 -8.04398,-17.78699c2.31742,-0.70158 18.01297,16.58291 18.36914,16.61545c2.00158,0.1836 -4.01041,-13.47118 -0.44961,-12.10139c6.56219,2.52399 7.10768,12.15313 8.29812,20.57504c0.69525,4.92138 4.68989,9.67176 4.68989,9.67176c0,0 -6.06898,8.87333 -10.24975,11.91698c-4.07038,2.96416 -14.51168,6.11203 -14.51168,6.11203c0,0 -18.75004,-16.20445 -16.45732,-17.93166z" data-paper-data="{&quot;index&quot;:null}" fill="#786274" stroke="#000000" stroke-width="0"/><path d="M412.77964,186.58408c0,0 -6.26563,9.40744 -13.89036,26.24169c-4.57976,10.11096 -18.79173,45.056 -20.85186,48.7187c-9.58351,17.06661 -36.48939,4.76226 -27.6415,-8.91458c2.4194,-3.76357 23.2684,-38.52486 25.58993,-42.21072c9.654,-15.32643 13.38349,-30.46894 13.38349,-30.46894z" data-paper-data="{&quot;index&quot;:null}" fill="#a3bda9" stroke="#000000" stroke-width="0"/><path d="M417.88067,181.63946c2.1115,0.8581 -11.62171,20.88906 -11.62171,20.88906c0,0 -9.06279,0.3002 -12.79744,-1.13097c-3.83554,-1.47047 -9.92243,-7.57678 -9.92243,-7.57678c0,0 2.77495,-5.42502 2.78208,-10.0198c0.01278,-7.8647 -0.65356,-16.61375 4.51872,-20.81782c2.80627,-2.28121 -0.61267,11.68472 1.03239,10.92516c0.29277,-0.13554 11.35558,-20.2198 13.36776,-20.28436c3.2872,-0.1053 -7.01266,20.98149 -4.63148,18.25537c4.88881,-5.5956 10.68255,-20.81373 13.13629,-20.43231c4.13289,0.64224 -11.19818,25.55884 -9.10837,24.11943c3.9041,-2.68924 11.13187,-18.92072 13.30723,-18.70008c6.33814,0.64279 -8.41372,20.3344 -5.89269,19.12174c4.76172,-2.29044 8.97061,-14.23595 10.97026,-13.24068c4.06517,2.02337 -6.13565,18.48534 -5.13918,18.89066z" data-paper-data="{&quot;index&quot;:null}" fill="#6c7378" stroke="#000000" stroke-width="0"/></g></g></svg>