<svg version="1.1" xmlns="http://www.w3.org/2000/svg" xmlns:xlink="http://www.w3.org/1999/xlink" width="37.53679" height="105.53142" viewBox="0,0,37.53679,105.53142"><defs><linearGradient x1="239.74787" y1="156.06832" x2="239.74787" y2="162.91937" gradientUnits="userSpaceOnUse" id="color-1"><stop offset="0" stop-color="#c28b5f"/><stop offset="1" stop-color="#ffb87d"/></linearGradient><radialGradient cx="235.71182" cy="133.41612" r="13.11833" gradientUnits="userSpaceOnUse" id="color-2"><stop offset="0" stop-color="#ffd9ba"/><stop offset="1" stop-color="#ffb87d"/></radialGradient><radialGradient cx="229.21564" cy="134.03046" r="10.07074" gradientUnits="userSpaceOnUse" id="color-3"><stop offset="0" stop-color="#303030"/><stop offset="1" stop-color="#292929"/></radialGradient><radialGradient cx="245.64374" cy="130.85061" r="2.65078" gradientUnits="userSpaceOnUse" id="color-4"><stop offset="0" stop-color="#787878"/><stop offset="1" stop-color="#292929"/></radialGradient><radialGradient cx="234.49144" cy="133.01564" r="4.17314" gradientUnits="userSpaceOnUse" id="color-5"><stop offset="0" stop-color="#a7a7a7"/><stop offset="1" stop-color="#292929"/></radialGradient></defs><g transform="translate(-220.0936,-129.64767)"><g data-paper-data="{&quot;isPaintingLayer&quot;:true}" fill-rule="nonzero" stroke-linejoin="miter" stroke-miterlimit="10" stroke-dasharray="" stroke-dashoffset="0" style="mix-blend-mode: normal"><path d="M254.98687,194.48215c-0.21701,-0.04947 -0.44383,3.6967 -1.37336,3.55315c-0.45719,-0.07061 0.24867,-2.42638 -0.28642,-3.32714c-0.28324,-0.4768 -0.12241,4.29376 -1.27302,3.67504c-0.39502,-0.21242 0.30836,-3.58468 -0.03383,-4.45067c-0.18319,-0.46358 -0.54482,5.19413 -1.32174,4.82575c-0.4612,-0.21867 0.36472,-3.26887 0.20095,-4.7036c-0.07979,-0.69896 -0.83922,3.78541 -1.38394,3.3957c-0.33344,-0.23855 0.17769,-4.65209 0.14412,-4.70659c-0.18868,-0.3063 -1.26838,2.2774 -1.47304,1.60013c-0.37722,-1.2482 0.77515,-2.5479 1.70746,-3.78558c0.54471,-0.72312 0.71902,-1.891 0.71902,-1.891c0,0 0.89216,-2.89423 0.73992,-6.40563c-0.0366,-0.8444 0.03268,-3.60369 -0.01333,-4.47074c-0.10888,-2.05209 -0.28898,-4.0833 -0.3253,-5.343c-0.07815,-2.7094 -0.09869,-6.14327 -0.09869,-6.14327l5.91476,-0.27879c0,0 0.10834,4.90365 0.19143,7.78426c0.03381,1.17233 -0.54036,2.06468 -0.55813,3.88215c-0.00796,0.81471 -0.53113,4.29616 -0.75187,6.43549c-0.36752,3.5619 -0.21311,5.75089 -0.21311,5.75089c0,0 -0.05217,4.70823 -0.51191,4.60342z" data-paper-data="{&quot;index&quot;:null}" fill="#ffb77d" stroke="#000000" stroke-width="0" stroke-linecap="butt"/><path d="M251.64012,159.79684c5.33299,-0.64616 5.668,2.9339 5.67504,4.90808c0.00704,1.97417 1.65321,1.57245 -3.23602,2.14043c-4.13249,0.48006 -3.54496,0.11671 -3.552,-1.85747c-0.00704,-1.97417 -1.66437,-4.85452 1.11299,-5.19103z" data-paper-data="{&quot;index&quot;:null}" fill="#ffffff" stroke="#000000" stroke-width="0" stroke-linecap="butt"/><g><path d="M242.76533,227.02336c0,0 0.05665,-25.79997 -0.55204,-30.24811c-0.19903,-1.45449 -3.27609,-1.77107 -3.27609,-1.77107c0,0 -2.70047,-4.45585 0.91832,-4.18765c3.05843,0.22667 9.63381,2.90265 9.63381,2.90265l1.25722,33.89571z" data-paper-data="{&quot;index&quot;:null}" fill="#726f7c" stroke="#000000" stroke-width="0" stroke-linecap="butt"/><path d="M256.27772,235.17766c-0.59114,-0.04381 -2.63789,-0.18182 -4.68655,-0.41442c-1.24553,-0.14142 -1.85129,-0.75669 -2.77156,-0.96813c-1.15857,-0.26618 -2.9468,0.00268 -3.77956,-0.25108c-1.53449,-0.46757 -2.31065,-0.9512 -2.31065,-0.9512c0,0 -0.19259,-1.04249 -0.16761,-1.60257c0.03365,-0.75459 0.35139,-2.51793 0.35139,-2.51793c0,0 5.92686,0.31936 8.22061,0.69024c1.35728,0.21946 4.18117,0.95846 4.18117,0.95846c0,0 1.41027,0.72181 1.59172,1.16366c0.22223,0.54116 0.7237,2.04774 0.7237,2.04774c0,0 -0.52804,1.90634 -1.35267,1.84522z" data-paper-data="{&quot;index&quot;:null}" fill="#141415" stroke="#000000" stroke-width="0" stroke-linecap="butt"/><path d="M256.19788,232.58987c-0.24754,-0.01835 0.5821,1.64918 -2.70948,1.13596c-3.10831,-0.48464 -2.68106,-1.39019 -3.7765,-1.5522c-2.2906,-0.33877 -2.62455,0.40215 -3.61018,0.1757c-0.34326,-0.07887 -0.50284,-0.15212 -1.70799,-1.0996c-0.82883,-0.65161 -0.53441,-1.79563 -1.0861,-2.46632c-0.80588,-0.97969 -0.66688,-1.9404 -0.66688,-1.9404l0.1491,-3.04504c0,0 0.32191,2.23672 1.09763,3.12088c0.69405,0.79107 2.31195,0.15255 2.79432,0.18815c0.84466,0.06236 -0.44542,-3.31001 0.36077,-3.23197c0.4335,0.04197 3.72987,0.0417 3.72987,0.0417c0,0 -0.14191,3.57919 0.08892,3.61651c1.35728,0.21946 4.54394,0.98534 4.54394,0.98534c0,0 1.41027,0.72181 1.59173,1.16366c0.22223,0.54116 0.41014,2.99724 0.41014,2.99724c0,0 -0.38465,-0.02851 -1.20928,-0.08962z" data-paper-data="{&quot;index&quot;:null}" fill="#252527" stroke="#000000" stroke-width="0" stroke-linecap="butt"/><path d="M251.70647,228.21601l-2.74106,0.89117" fill="none" stroke="#ffffff" stroke-width="0.5" stroke-linecap="round"/><path d="M250.87336,229.61337l2.64703,-1.26292" fill="none" stroke="#ffffff" stroke-width="0.5" stroke-linecap="round"/><path d="M253.03214,230.01655l1.55869,-1.34358" fill="none" stroke="#ffffff" stroke-width="0.5" stroke-linecap="round"/><path d="M248.04293,225.14788l2.19461,-0.08053" fill="none" stroke="#969696" stroke-width="0.5" stroke-linecap="round"/><path d="M248.46391,226.03022l1.96173,-0.21939" fill="none" stroke="#969696" stroke-width="0.5" stroke-linecap="round"/></g><g><path d="M228.38581,227.86098l1.55929,-33.88316c0,0 6.59897,-2.61727 9.6593,-2.81667c3.62104,-0.23594 0.88096,4.19567 0.88096,4.19567c0,0 -3.07976,0.28914 -3.29174,1.7418c-0.64831,4.44254 -0.82162,30.24199 -0.82162,30.24199z" fill="#726f7c" stroke="#000000" stroke-width="0" stroke-linecap="butt"/><path d="M243.96697,231.91321c0,0 -0.25874,1.96112 -1.08389,2.01489c-0.59151,0.03854 -2.63763,0.18555 -4.69875,0.23912c-1.25311,0.03258 -1.93829,-0.49281 -2.87899,-0.57466c-1.18428,-0.10305 -2.91798,0.41106 -3.77787,0.27518c-1.58448,-0.25039 -2.42018,-0.62177 -2.42018,-0.62177c0,0 -0.33522,-1.00572 -0.3881,-1.56388c-0.07125,-0.75196 -0.00097,-2.54233 -0.00097,-2.54233c0,0 5.91391,-0.50516 8.23694,-0.45577c1.3746,0.02923 4.27365,0.36971 4.27365,0.36971c0,0 1.49669,0.51939 1.73763,0.93182c0.29509,0.50513 1.00052,1.92769 1.00052,1.92769z" data-paper-data="{&quot;index&quot;:null}" fill="#141415" stroke="#000000" stroke-width="0" stroke-linecap="butt"/><path d="M243.65538,231.29753c0,0 -0.38487,0.02508 -1.21002,0.07884c-0.24769,0.01614 0.80504,1.55259 -2.52589,1.50052c-3.14548,-0.04918 -2.84786,-1.00519 -3.95519,-1.01381c-2.31544,-0.01803 -2.5435,0.76202 -3.551,0.67435c-0.35088,-0.03053 -0.51907,-0.08096 -1.8439,-0.85226c-0.91113,-0.53045 -0.77811,-1.70423 -1.41744,-2.29199c-0.93389,-0.85856 -0.92937,-1.82924 -0.92937,-1.82924l-0.27437,-3.03632c0,0 0.62881,2.17053 1.51957,2.93865c0.79699,0.68724 2.31078,-0.16935 2.79343,-0.20094c0.84514,-0.05531 -0.89988,-3.21635 -0.09065,-3.25079c0.43514,-0.01852 3.69965,-0.47563 3.69965,-0.47563c0,0 0.35552,3.56431 0.5893,3.56928c1.37459,0.02923 4.63665,0.34606 4.63665,0.34606c0,0 1.49669,0.51939 1.73763,0.93182c0.2951,0.50513 0.82159,2.91147 0.82159,2.91147z" data-paper-data="{&quot;index&quot;:null}" fill="#252527" stroke="#000000" stroke-width="0" stroke-linecap="butt"/><path d="M237.39111,227.6672l-2.59111,1.26248" fill="none" stroke="#ffffff" stroke-width="0.5" stroke-linecap="round"/><path d="M239.20614,227.54894l-2.44644,1.6176" fill="none" stroke="#ffffff" stroke-width="0.5" stroke-linecap="round"/><path d="M238.95351,229.26663l1.35743,-1.54665" fill="none" stroke="#ffffff" stroke-width="0.5" stroke-linecap="round"/><path d="M233.33767,225.13644l2.16228,-0.38392" fill="none" stroke="#969696" stroke-width="0.5" stroke-linecap="round"/><path d="M235.78927,225.46276l-1.91239,0.48916" fill="none" stroke="#969696" stroke-width="0.5" stroke-linecap="round"/></g><path d="M235.91979,162.91937v-6.85104h7.65615v6.85104z" fill="url(#color-1)" stroke="#000000" stroke-width="0" stroke-linecap="butt"/><path d="M229.63979,193.59141c0,0 0.16709,-5.5597 -0.35268,-10.94382c-0.35317,-3.65847 -1.40473,-6.95919 -1.56162,-9.45339c-0.29447,-4.68133 -0.2105,-13.38223 -0.2105,-13.38223c0,0 3.69178,-0.58477 5.4694,-0.21857c2.26281,0.46615 7.00656,2.78867 7.00656,2.78867c0,0 3.67689,-2.17061 5.59031,-2.58687c2.01891,-0.43921 6.22369,0.01677 6.22369,0.01677c0,0 -0.06905,9.21711 -0.22689,12.65629c-0.13965,3.04285 -0.88957,6.36811 -1.18346,10.87293c-0.3029,4.64296 -0.14784,10.42155 -0.14784,10.42155c0,0 -2.75697,-0.76932 -5.57187,-0.83754c-1.27833,-0.03098 -1.79126,1.00612 -2.99851,1.16532c-0.96496,0.12724 -2.63623,-0.61291 -3.56107,-0.64966c-0.69915,-0.02778 -2.04377,-0.5306 -2.53801,-0.53471c-0.99795,-0.0083 -1.61572,0.86529 -2.77345,1.02464c-1.34484,0.1851 -3.1641,-0.33939 -3.1641,-0.33939z" fill="#ffffff" stroke="#292e32" stroke-width="0" stroke-linecap="butt"/><path d="M252.80944,143.64573c0,7.73092 -5.73774,13.99807 -12.8156,13.99807c-7.07786,0 -12.8156,-6.26715 -12.8156,-13.99807c0,-7.73092 5.73774,-13.99806 12.8156,-13.99806c7.07786,0 12.8156,6.26714 12.8156,13.99806z" fill="url(#color-2)" stroke="none" stroke-width="0" stroke-linecap="butt"/><path d="M238.36341,145.01429c-0.5265,0.91349 -1.43258,0.38383 -1.43258,0.38383c-0.91393,-0.55722 -2.45095,-1.17574 -2.30203,-2.6961c0.1217,-1.24248 2.13973,-2.33997 3.2068,-2.10706c1.93572,0.42253 3.60144,3.95074 0.5278,4.41932z" fill="#191412" stroke="none" stroke-width="0.5" stroke-linecap="butt"/><path d="M242.78052,149.52889c0.14423,-0.46863 0.47533,-0.57039 0.71965,-0.57602c0.0776,-0.00492 0.15695,0.00165 0.23587,0.02089c-0.28158,-1.08168 -0.10408,-2.4792 -0.44462,-3.52597c0,0 -0.2501,-0.78449 0.51677,-1.04033c0.76687,-0.25584 1.01697,0.52865 1.01697,0.52865c0.4101,1.30859 0.71193,2.9192 0.68474,4.31641c-0.01019,0.5236 0.25251,1.23107 -0.14241,1.56432c-0.4098,0.34581 -1.06036,-0.06797 -1.59055,-0.10196l-0.46926,-0.15113c-0.09725,-0.03132 -0.18459,-0.07973 -0.25988,-0.14099c-0.1971,-0.14779 -0.41151,-0.42524 -0.26729,-0.89386z" fill="#191412" stroke="none" stroke-width="0.5" stroke-linecap="butt"/><path d="M250.25235,145.49719c-0.42472,0.9868 -1.15568,0.41464 -1.15568,0.41464c-0.73728,-0.60194 -1.97722,-1.27009 -1.85707,-2.91248c0.09818,-1.3422 1.72614,-2.52778 2.58696,-2.27617c1.56156,0.45643 2.90532,4.26783 0.42578,4.77401z" fill="#191412" stroke="none" stroke-width="0.5" stroke-linecap="butt"/><g stroke-linecap="butt"><path d="M231.90604,134.03999c-0.16984,0.01553 -0.60661,0.06221 -1.07903,0.1438c-0.52185,0.20742 -1.13106,0.41772 -1.59752,0.64771c-0.28909,0.89276 0.78709,1.80702 -0.65422,2.4752c-2.45813,1.13958 -1.71655,-2.03888 -0.89769,-3.03685c1.27069,-1.10653 3.14359,-1.2394 4.75566,-1.549c2.22048,-0.42645 4.38435,-1.08334 6.57971,-1.21737c0.08249,-0.08622 0.19535,-0.14411 0.32353,-0.15569l0.58612,-0.0529c0.29539,-0.07774 0.61637,-0.15861 0.95355,-0.23507c0.87645,-0.27394 1.93099,-0.41625 2.91353,-0.50866c0.4818,-0.09462 0.9333,-0.1389 1.30669,-0.10536c0.27388,-0.02025 0.5286,-0.03932 0.7561,-0.05986l0.61787,-0.05577c0.28142,-0.0254 0.53014,0.18214 0.55554,0.46356c0.0226,0.25047 -0.13931,0.47504 -0.37361,0.53931l-0.32968,0.09745c0.145,0.12181 0.27656,0.26112 0.39244,0.4197l0.23414,-0.11908l0.29765,0.58522c0.03177,0.05903 0.05238,0.12532 0.05879,0.19629c0.0254,0.28142 -0.18214,0.53014 -0.46355,0.55553c-0.08558,0.00772 -0.16814,-0.00609 -0.24232,-0.03698l-0.50702,-0.19878l0.00585,-0.01492l-0.04787,-0.00377c-0.36209,-0.22374 -0.73047,-0.39249 -1.09838,-0.50678c-0.55947,-0.02006 -1.148,-0.08122 -1.74789,-0.1302c-1.01464,0.1745 -1.9334,0.80247 -2.5904,1.87097c0,0 -0.26893,0.43524 -0.70416,0.1663c-0.43523,-0.26893 -0.1663,-0.70417 -0.1663,-0.70417c0.0575,-0.09265 0.11686,-0.18277 0.17799,-0.27034l-0.28392,0.09053c-0.03801,0.01299 -0.07817,0.02169 -0.11996,0.02546c-0.28142,0.0254 -0.53014,-0.18214 -0.55553,-0.46356c-0.01286,-0.14243 0.03395,-0.27647 0.11981,-0.37743c-0.2451,0.00049 -0.4766,0.01384 -0.6735,0.06241c-1.37524,0.33924 -3.48763,0.45199 -5.48058,0.75785c0.01121,0.24126 -0.14794,0.45435 -0.37516,0.51668l-0.59763,0.17665l-0.00571,-0.01931l-0.00747,0.00194z" fill="url(#color-3)" stroke="none" stroke-width="0.5"/><path d="M247.00008,130.30896c2.70896,-0.28418 2.68558,-0.24349 2.90043,1.58673c0.21485,1.83022 -0.78194,3.36186 -2.22639,3.42102c-1.44446,0.05917 -2.7896,-1.37656 -3.00445,-3.20678c-0.21485,-1.83022 -0.20983,-1.53449 2.33041,-1.80097z" data-paper-data="{&quot;index&quot;:null}" fill="url(#color-4)" stroke="#000000" stroke-width="0"/><path d="M240.38006,132.98982c0.35755,1.99142 -1.17444,3.9329 -3.4218,4.33639c-2.24735,0.40349 -4.35904,-0.88377 -4.71659,-2.8752c-0.35755,-1.99142 -0.40888,-2.02662 3.87102,-2.60142c4.01334,-0.53901 3.90982,-0.85119 4.26737,1.14023z" fill="url(#color-5)" stroke="#000000" stroke-width="0"/></g><path d="M223.06708,190.15339c0,0 0.14326,-2.20168 -0.33995,-5.74976c-0.29023,-2.13102 -0.95232,-5.58981 -0.97474,-6.4056c-0.05005,-1.81988 -0.7292,-2.68189 -0.70906,-3.8583c0.04947,-2.89064 0.09538,-7.80947 0.09538,-7.80947l6.85177,-0.05033c0,0 0.03191,3.44143 -0.01463,6.16024c-0.02164,1.26407 -0.19718,3.30912 -0.28995,5.3711c-0.03919,0.87123 0.08576,3.63181 0.05707,4.47982c-0.11929,3.52643 0.96046,6.37634 0.96046,6.37634c0,0 0.22073,1.16034 0.86304,1.85446c1.09935,1.18803 2.45448,2.42592 2.03803,3.69748c-0.22596,0.68994 -1.51777,-1.8384 -1.73123,-1.52102c-0.03798,0.05647 0.62529,4.44977 0.24314,4.70735c-0.62429,0.42079 -1.57616,-4.02964 -1.65719,-3.32492c-0.16632,1.44654 0.83927,4.4564 0.30891,4.70118c-0.89344,0.41237 -1.40382,-5.23575 -1.60837,-4.76109c-0.3821,0.88668 0.48685,4.22603 0.033,4.46087c-1.32196,0.68401 -1.21313,-4.10442 -1.5333,-3.61094c-0.60486,0.93227 0.25049,3.2531 -0.27763,3.34931c-1.07376,0.19562 -1.39708,-3.54491 -1.6475,-3.48325c-0.53052,0.13063 -0.66725,-4.58348 -0.66725,-4.58348z" fill="#ffb77d" stroke="#000000" stroke-width="0" stroke-linecap="butt"/><path d="M228.24409,164.66472c0.02874,1.97819 0.71558,2.30779 -4.07679,2.06897c-5.66996,-0.28255 -3.75701,0.02345 -3.78575,-1.95474c-0.02874,-1.97819 0.29215,-5.58441 6.47722,-5.24953c3.2211,0.17441 1.35657,3.1571 1.38531,5.13529z" fill="#ffffff" stroke="#000000" stroke-width="0" stroke-linecap="butt"/></g></g></svg>