<svg version="1.1" xmlns="http://www.w3.org/2000/svg" xmlns:xlink="http://www.w3.org/1999/xlink" width="163.59963" height="94.36052" viewBox="0,0,163.59963,94.36052"><defs><radialGradient cx="231.48074" cy="189.13486" r="34.955" gradientUnits="userSpaceOnUse" id="color-1"><stop offset="0" stop-color="#33266a"/><stop offset="1" stop-color="#949074"/></radialGradient><linearGradient x1="266.40287" y1="180.3179" x2="258.83498" y2="187.75383" gradientUnits="userSpaceOnUse" id="color-2"><stop offset="0" stop-color="#694444"/><stop offset="1" stop-color="#98a1b9"/></linearGradient><radialGradient cx="283.68227" cy="148.98334" r="20.31544" gradientUnits="userSpaceOnUse" id="color-3"><stop offset="0" stop-color="#dcdcdc"/><stop offset="1" stop-color="#a0a0a0"/></radialGradient><radialGradient cx="276.61312" cy="144.74918" r="15.59586" gradientUnits="userSpaceOnUse" id="color-4"><stop offset="0" stop-color="#1c2f30"/><stop offset="1" stop-color="#142913"/></radialGradient><radialGradient cx="300.39625" cy="155.03778" r="4.10509" gradientUnits="userSpaceOnUse" id="color-5"><stop offset="0" stop-color="#786c41"/><stop offset="1" stop-color="#141a29"/></radialGradient><radialGradient cx="284.24535" cy="148.06154" r="6.46263" gradientUnits="userSpaceOnUse" id="color-6"><stop offset="0" stop-color="#7ba676"/><stop offset="1" stop-color="#291616"/></radialGradient><radialGradient cx="283.04418" cy="163.18803" r="15.25953" gradientUnits="userSpaceOnUse" id="color-7"><stop offset="0" stop-color="#d1ffc4"/><stop offset="1" stop-color="#2188ff"/></radialGradient><radialGradient cx="283.04418" cy="163.18803" r="15.25953" gradientUnits="userSpaceOnUse" id="color-8"><stop offset="0" stop-color="#ceffc4"/><stop offset="1" stop-color="#ff21cc"/></radialGradient><radialGradient cx="283.04418" cy="163.18803" r="15.25953" gradientUnits="userSpaceOnUse" id="color-9"><stop offset="0" stop-color="#ffe9c4"/><stop offset="1" stop-color="#4fff21"/></radialGradient><radialGradient cx="283.04418" cy="163.18803" r="15.25953" gradientUnits="userSpaceOnUse" id="color-10"><stop offset="0" stop-color="#ffe9c4"/><stop offset="1" stop-color="#4fff21"/></radialGradient><radialGradient cx="283.04417" cy="163.18803" r="15.25953" gradientUnits="userSpaceOnUse" id="color-11"><stop offset="0" stop-color="#ffe9c4"/><stop offset="1" stop-color="#ffa321"/></radialGradient><radialGradient cx="283.04414" cy="163.18802" r="15.25953" gradientUnits="userSpaceOnUse" id="color-12"><stop offset="0" stop-color="#c4f0ff"/><stop offset="1" stop-color="#3d21ff"/></radialGradient></defs><g transform="translate(-148.71005,-143.67079)"><g data-paper-data="{&quot;isPaintingLayer&quot;:true}" fill-rule="nonzero" stroke-linejoin="miter" stroke-miterlimit="10" stroke-dasharray="" stroke-dashoffset="0" style="mix-blend-mode: normal"><path d="M191.61501,176.10165l67.38526,-18.61805l12.34597,44.68461l-67.38526,18.61805z" fill="url(#color-1)" stroke="#ed6b00" stroke-width="0" stroke-linecap="butt"/><path d="M254.68,183.52527l7.5679,-7.43598l8.30989,8.45724l-7.5679,7.43598z" fill="url(#color-2)" stroke="#000000" stroke-width="0" stroke-linecap="butt"/><g><path d="M162.33002,213.84033c0,0 38.77114,-9.65257 45.2223,-12.24561c2.10939,-0.84792 1.42358,-5.5889 1.42358,-5.5889c0,0 5.6731,-5.73772 6.6361,-0.20138c0.81389,4.67914 -0.72346,15.56484 -0.72346,15.56484l-50.43457,14.68134z" data-paper-data="{&quot;index&quot;:null}" fill="#4a433c" stroke="#000000" stroke-width="0" stroke-linecap="butt"/><path d="M155.29456,236.69583c-0.15744,-0.90443 -0.72254,-4.03067 -1.14638,-7.19522c-0.25762,-1.92419 0.43782,-3.06601 0.40806,-4.52807c-0.0373,-1.84048 -1.11624,-4.42495 -1.04943,-5.77144c0.12314,-2.48129 0.55665,-3.82944 0.55665,-3.82944c0,0 1.49316,-0.68269 2.34371,-0.85654c1.14607,-0.23422 3.91436,-0.42257 3.91436,-0.42257c0,0 1.7574,9.0223 2.06603,12.60742c0.1826,2.12138 0.1386,6.64171 0.1386,6.64171c0,0 -0.55182,2.39065 -1.14706,2.82984c-0.72886,0.5382 -2.80234,1.8598 -2.80234,1.8598c0,0 -3.06245,-0.07358 -3.28192,-1.33518z" data-paper-data="{&quot;index&quot;:null}" fill="#140d0d" stroke="#000000" stroke-width="0" stroke-linecap="butt"/><path d="M159.15097,235.59925c-0.06587,-0.3787 -2.25723,1.49659 -2.72869,-3.64065c-0.44534,-4.85144 1.07606,-4.55134 0.90591,-6.25797c-0.35578,-3.56828 -1.59458,-3.79009 -1.62653,-5.35599c-0.01111,-0.54541 0.03864,-0.81257 1.00689,-2.98021c0.66584,-1.49082 2.4953,-1.48033 3.29443,-2.56209c1.16725,-1.58019 2.66273,-1.73396 2.66273,-1.73396l4.62971,-0.92532c0,0 -3.23794,1.32762 -4.27298,2.82652c-0.92622,1.34102 0.64355,3.52997 0.77214,4.26792c0.22513,1.29217 4.80336,-1.91841 4.99038,-0.67799c0.10068,0.66694 1.34514,5.61778 1.34514,5.61778c0,0 -5.42933,1.13779 -5.3982,1.49849c0.1826,2.12138 0.23502,7.19672 0.23502,7.19672c0,0 -0.55182,2.39065 -1.14693,2.82983c-0.72886,0.5382 -4.34678,1.74738 -4.34678,1.74738c0,0 -0.10252,-0.58852 -0.32189,-1.85006z" data-paper-data="{&quot;index&quot;:null}" fill="#1f261f" stroke="#000000" stroke-width="0" stroke-linecap="butt"/><path d="M164.02526,227.20248l-2.37306,-3.78057" fill="none" stroke="#ffb5b5" stroke-width="0.5" stroke-linecap="round"/><path d="M164.50776,229.97779l-2.89587,-3.49912" fill="none" stroke="#bffdff" stroke-width="0.5" stroke-linecap="round"/><path d="M164.42733,231.707l-2.60607,-1.83382" fill="none" stroke="#eaffc1" stroke-width="0.5" stroke-linecap="round"/><path d="M167.25053,220.54231l0.94925,3.26576" fill="none" stroke="#8d967b" stroke-width="0.5" stroke-linecap="round"/><path d="M166.0841,221.50738l1.06998,2.86358" fill="none" stroke="#767796" stroke-width="0.5" stroke-linecap="round"/></g><g data-paper-data="{&quot;index&quot;:null}" stroke="#000000" stroke-width="0" stroke-linecap="butt"><path d="M295.18088,190.99163c0,0 -3.84262,-3.3328 -9.43564,-5.17653c-1.34502,-0.44341 -5.59752,-2.22889 -6.9849,-2.66912c-3.28342,-1.04197 -6.58813,-1.9447 -8.58087,-2.63871c-4.28594,-1.49258 -9.65865,-3.52456 -9.65865,-3.52456c0,0 -11.23166,-4.01285 -10.6369,-5.96428c3.7254,-12.22322 14.66142,-4.74016 14.66142,-4.74016c0,0 7.73212,2.76076 12.28879,4.34778c1.85447,0.64593 2.81378,2.20607 5.63583,3.33256c1.26511,0.50513 6.30205,3.53396 9.47331,5.21581c5.27992,2.8001 8.81141,3.84356 8.81141,3.84356z" fill="#b8bda6"/><path d="M307.71008,186.82086c-0.24167,0.35629 5.42535,3.03061 4.49666,4.59788c-0.45677,0.77088 -3.59319,-1.91345 -5.40298,-1.50711c-0.95814,0.21507 6.59951,2.82069 4.76261,4.49321c-0.63055,0.57416 -5.35328,-2.7216 -6.96262,-2.63771c-0.86147,0.04502 7.68258,4.11814 6.51927,5.27739c-0.69065,0.68808 -4.81844,-2.63065 -7.1788,-3.20892c-1.15001,-0.28159 5.26355,3.78811 4.24306,4.52121c-0.62462,0.44868 -7.11609,-3.13636 -7.2265,-3.10958c-0.62049,0.15019 2.58775,3.63781 1.37687,3.59144c-2.23153,-0.08533 -3.38354,-2.92379 -4.60554,-5.33317c-0.71397,-1.40797 -2.40217,-2.426 -2.40217,-2.426c0,0 0.91378,-3.28996 1.85817,-4.63385c0.91935,-1.30865 3.73491,-3.32625 3.73491,-3.32625c0,0 7.29882,2.94697 6.78688,3.70139z" data-paper-data="{&quot;index&quot;:null}" fill="#786274"/></g><g><path d="M158.3542,183.16075l52.48856,2.03253c0,0 4.12752,10.18961 4.47075,14.92647c0.40626,5.60489 -6.48749,1.41163 -6.48749,1.41163c0,0 -0.48247,-4.76604 -2.73454,-5.07793c-6.88693,-0.95367 -46.84156,-0.93135 -46.84156,-0.93135z" fill="#413a4a" stroke="#000000" stroke-width="0" stroke-linecap="butt"/><path d="M152.26945,207.53902c0,0 -3.03997,-0.37857 -3.13248,-1.6558c-0.06643,-0.91555 -0.31704,-4.08243 -0.42324,-7.27386c-0.06458,-1.94017 0.74123,-3.0072 0.85751,-4.46476c0.14623,-1.83518 -0.6694,-4.5141 -0.4687,-5.8473c0.36977,-2.45657 0.93559,-3.75472 0.93559,-3.75472c0,0 1.55363,-0.53047 2.41739,-0.61876c1.16385,-0.11894 3.93685,-0.03013 3.93685,-0.03013c0,0 0.84901,9.15242 0.79874,12.7506c-0.0298,2.12913 -0.52419,6.62231 -0.52419,6.62231c0,0 -0.7874,2.32357 -1.4235,2.70136c-0.77895,0.46268 -2.97397,1.57111 -2.97397,1.57111z" data-paper-data="{&quot;index&quot;:null}" fill="#12140d" stroke="#000000" stroke-width="0" stroke-linecap="butt"/><path d="M153.2193,207.04953c0,0 -0.04321,-0.59574 -0.13584,-1.87298c-0.0279,-0.3835 -2.39529,1.2642 -2.35213,-3.8948c0.04074,-4.8718 1.52462,-4.4214 1.52534,-6.1364c0.00165,-3.58581 -1.20867,-3.93027 -1.08444,-5.49139c0.04327,-0.54373 0.11971,-0.80468 1.29912,-2.86507c0.81112,-1.41688 2.6305,-1.22417 3.53342,-2.22094c1.31912,-1.45586 2.82235,-1.45993 2.82235,-1.45993l4.69884,-0.45915c0,0 -3.35416,0.99814 -4.53366,2.38632c-1.05531,1.24202 0.2883,3.57643 0.34275,4.32351c0.09512,1.30815 4.97058,-1.42978 5.03311,-0.17706c0.03361,0.67366 0.77827,5.72395 0.77827,5.72395c0,0 -5.51564,0.59075 -5.52074,0.95288c-0.02969,2.12906 -0.48357,7.18411 -0.48357,7.18411c0,0 -0.7874,2.32357 -1.4235,2.70136c-0.77895,0.46268 -4.49943,1.30514 -4.49943,1.30514z" data-paper-data="{&quot;index&quot;:null}" fill="#1e1e26" stroke="#000000" stroke-width="0" stroke-linecap="butt"/><path d="M158.77053,197.30765l-1.98426,-3.99824" fill="none" stroke="#c1ffce" stroke-width="0.5" stroke-linecap="round"/><path d="M158.97407,200.11703l-2.53256,-3.77029" fill="none" stroke="#eaffc1" stroke-width="0.5" stroke-linecap="round"/><path d="M158.72173,201.82987l-2.41041,-2.08462" fill="none" stroke="#ffb5b5" stroke-width="0.5" stroke-linecap="round"/><path d="M162.64381,191.00225l0.61897,3.34402" fill="none" stroke="#7d967f" stroke-width="0.5" stroke-linecap="round"/><path d="M161.38712,191.84633l0.77903,2.95588" fill="none" stroke="#966262" stroke-width="0.5" stroke-linecap="round"/></g><path d="M207.48449,182.00893c0,0 8.42826,-1.77839 16.34132,-4.52652c5.37685,-1.8673 9.96059,-4.655 13.65701,-5.80168c6.93791,-2.15233 20.06306,-5.20292 20.06306,-5.20292c0,0 2.22803,5.34251 2.32584,8.15145c0.12465,3.57574 -1.63872,11.56289 -1.63872,11.56289c0,0 4.60916,4.74105 5.93434,7.46865c1.39814,2.87808 2.24714,9.37268 2.24714,9.37268c0,0 -13.89673,3.26144 -19.13013,4.27962c-4.63046,0.90082 -9.90859,0.98622 -16.79548,2.18889c-7.0981,1.23938 -15.7381,3.58267 -15.7381,3.58267c0,0 0.15112,-4.43002 -0.77393,-8.69132c-0.4201,-1.93522 -2.16825,-2.32848 -2.84853,-4.08718c-0.54391,-1.4057 -0.04001,-4.19113 -0.32257,-5.59655c-0.21352,-1.06234 0.05236,-3.26957 -0.12198,-4.01495c-0.35187,-1.50493 -1.89221,-2.11563 -2.55457,-3.79987c-0.76957,-1.95628 -0.6444,-4.88566 -0.6444,-4.88566z" fill="#d1b0b0" stroke="#292e32" stroke-width="0" stroke-linecap="butt"/><g stroke="none" stroke-width="0" stroke-linecap="butt"><path d="M247.00744,193.28973l8.71526,-2.3075l2.24166,11.62978l-7.84712,1.90372z" fill="#f200ff"/><path d="M255.7227,190.98222l1.1764,6.10315c-0.83005,0.74335 -1.52692,1.61812 -2.06548,2.58251c-0.04106,-0.56827 -0.13142,-1.1408 -0.27412,-1.71254c-0.59074,-2.36688 -1.97959,-4.32429 -3.80803,-5.65691z" fill="#eeff00"/><path d="M248.84542,199.92461c3.28995,-0.67 6.07854,-3.02825 7.42614,-6.09493l1.47026,7.62771c-1.61899,-0.45595 -3.37517,-0.50912 -5.12395,-0.07266c-1.09775,0.27398 -2.10741,0.71964 -3.00751,1.3012z" fill="#00ff5f"/><path d="M249.63275,202.76676l-2.22275,-8.02381c1.27127,1.93947 3.17643,3.36313 5.3523,4.05291c-0.73592,1.29193 -1.18619,2.7482 -1.28958,4.26684c-0.59806,-0.15477 -1.21376,-0.25486 -1.83997,-0.29595z" fill="#004fff"/><path d="M247.00743,193.28971l8.71527,-2.30751l0.55582,2.8836c-1.61592,-0.45309 -3.3681,-0.50502 -5.1129,-0.06955c-1.32512,0.33073 -2.5219,0.91163 -3.55254,1.67976z" fill="#ff0000"/><path d="M254.79787,203.38018l-4.68063,1.13552l-1.15644,-4.17458c0.70593,0.10495 1.42975,0.1348 2.16069,0.08312c0.97787,1.27154 2.24422,2.28142 3.67637,2.95594z" fill="#00efff"/><path d="M257.96437,202.61199l-7.84713,1.90371l-0.07802,-0.28163c3.43458,-0.94246 5.97204,-3.57914 6.93161,-6.7765z" fill="#9c00ff"/></g><g data-paper-data="{&quot;index&quot;:null}" stroke="#000000" stroke-width="0" stroke-linecap="butt"><path d="M294.63972,210.15699c0,0 -3.13695,0.4349 -7.98589,2.13964c-2.91239,1.02395 -7.58401,2.95435 -8.72462,3.22183c-2.54427,0.59641 -5.46083,1.60515 -7.12067,1.91684c-1.84648,0.34671 -9.83606,3.35527 -15.32684,1.01885c-6.63704,-2.82416 -5.59232,-20.43998 1.62438,-21.28171c10.61335,-1.50476 4.8144,10.66717 4.8144,10.66717c0,0 2.52666,1.02575 6.36274,0.30558c1.78359,-0.33486 4.74262,-0.44979 7.66842,-0.9152c1.23625,-0.19664 5.08144,-1.17018 6.2821,-1.37492c4.99267,-0.85134 8.68756,-3.19326 8.68756,-3.19326z" fill="#b8bda6"/><path d="M301.04189,207.81422c0.3387,0.70719 -6.24598,2.27815 -6.24598,2.27815c0,0 -2.1359,-2.07657 -2.75006,-3.30728c-0.63094,-1.26388 -0.98649,-4.17883 -0.98649,-4.17883c0,0 1.56612,-0.64944 2.3537,-1.75534c1.34794,-1.89242 2.69132,-4.1587 4.59999,-3.94535c1.03571,0.11572 -2.13954,2.67059 -1.63109,2.87781c0.09045,0.03691 6.07032,-2.18013 6.544,-1.71854c0.77391,0.7542 -5.20176,3.39339 -4.1877,3.30127c2.0814,-0.18933 6.01698,-2.48278 6.51617,-1.80911c0.84079,1.1349 -6.94716,3.50404 -6.22033,3.6527c1.35786,0.27757 5.79647,-1.92012 6.25915,-1.35105c1.34785,1.65771 -5.41321,2.90523 -4.62593,3.2109c1.48703,0.57744 4.49823,-1.30349 4.7879,-0.5894c0.58896,1.4518 -4.57306,3.00002 -4.41319,3.33398z" data-paper-data="{&quot;index&quot;:null}" fill="#786274"/></g><g><path d="M296.60494,177.00196c-6.75508,9.88462 -19.56713,12.8845 -28.61681,6.70017c-9.04976,-6.18433 -10.91006,-19.21082 -4.15489,-29.09564c6.75508,-9.88462 19.56713,-12.8845 28.61688,-6.70012c9.04976,6.18433 10.91006,19.21082 4.15489,29.09564z" fill="url(#color-3)" stroke="none" stroke-width="0" stroke-linecap="butt"/><path d="M280.04482,147.11218c-0.23069,-0.12864 -0.82995,-0.45051 -1.50522,-0.75886c-0.84853,-0.19074 -1.81124,-0.45421 -2.60851,-0.56765c-1.14958,0.88884 -0.57251,2.99801 -2.9992,2.59319c-4.13874,-0.69086 -0.41331,-4.10669 1.50569,-4.66724c2.59155,-0.30455 5.10228,1.1622 7.43401,2.17484c3.21175,1.39494 6.55235,2.44568 9.47642,4.1925c0.1809,-0.03816 0.37566,-0.01342 0.5496,0.08376l0.7956,0.44463c0.4456,0.15877 0.92671,0.33561 1.42461,0.53254c1.35982,0.41553 2.8327,1.15489 4.16964,1.89532c0.69874,0.30002 1.31484,0.63779 1.76281,1.00692c0.36784,0.21336 0.7102,0.41168 1.0191,0.58406l0.83872,0.46855c0.38197,0.21346 0.51865,0.69592 0.30525,1.07814c-0.19005,0.34 -0.59319,0.48565 -0.94887,0.36328l-0.50685,-0.16332c0.07885,0.28245 0.12537,0.57564 0.13515,0.87953l0.40351,0.05212l-0.13081,1.00835c-0.01101,0.10315 -0.04245,0.20598 -0.09623,0.30239c-0.21346,0.38197 -0.69592,0.51865 -1.07814,0.30525c-0.11614,-0.06482 -0.20993,-0.15475 -0.27764,-0.25902l-0.47454,-0.69717l0.02056,-0.01392l-0.0579,-0.04658c-0.26739,-0.60244 -0.59097,-1.14017 -0.96167,-1.60766c-0.69786,-0.51447 -1.39678,-1.10698 -2.12106,-1.69371c-1.44982,-0.66341 -3.17323,-0.66337 -4.94695,0.12886c0,0 -0.72413,0.32143 -1.04567,-0.40265c-0.32143,-0.72413 0.40265,-1.04567 0.40265,-1.04567c0.15449,-0.06818 0.30922,-0.13169 0.46387,-0.19008l-0.44215,-0.13237c-0.05979,-0.01663 -0.11896,-0.0406 -0.17565,-0.07217c-0.38197,-0.21346 -0.51865,-0.69592 -0.30525,-1.07814c0.10803,-0.19339 0.28489,-0.32388 0.48298,-0.37794c-0.31385,-0.21362 -0.62146,-0.39867 -0.91562,-0.50861c-2.05469,-0.76773 -4.85426,-2.46952 -7.66956,-3.81961c-0.19635,0.31816 -0.58615,0.45166 -0.93113,0.33286l-0.91858,-0.29625l0.0096,-0.02971l-0.01127,-0.00406z" fill="url(#color-4)" stroke="none" stroke-width="0.5" stroke-linecap="butt"/><path d="M302.60382,155.53013c3.71192,2.00369 3.64649,2.03516 2.32211,4.56294c-1.32427,2.52774 -3.93719,3.61518 -5.83581,2.42891c-1.89857,-1.1864 -2.36389,-4.19755 -1.03951,-6.7253c1.32427,-2.52774 1.07247,-2.14542 4.55335,-0.26657z" data-paper-data="{&quot;index&quot;:null}" fill="url(#color-5)" stroke="#000000" stroke-width="0" stroke-linecap="butt"/><path d="M291.79715,153.1737c-1.28284,2.85868 -4.93802,4.00246 -8.16398,2.55449c-3.22603,-1.44767 -4.80131,-4.93874 -3.5184,-7.79725c1.28284,-2.85868 1.24792,-2.94859 7.22234,0.05608c5.60246,2.81748 5.74271,2.32789 4.45995,5.18661z" fill="url(#color-6)" stroke="#000000" stroke-width="0" stroke-linecap="butt"/><path d="M280.55569,182.41607c-15.65929,-5.76818 -13.40675,-15.10402 -11.1352,-20.44012c2.27163,-5.33599 13.23679,-5.93074 20.9879,-2.63107c7.75111,3.29967 12.714,11.59308 10.44241,16.92907c0,0 -3.03964,12.68364 -20.29507,6.142z" data-paper-data="{&quot;index&quot;:null}" fill="url(#color-7)" stroke="#ed6b00" stroke-width="0" stroke-linecap="butt"/><path d="M280.55569,182.41607c-12.47853,-4.59654 -13.58282,-11.45858 -12.3671,-16.75684c0.55993,3.26019 2.72419,6.17293 6.00228,7.54301c5.09568,2.12977 10.95305,-0.27458 13.08282,-5.37026c1.41918,-3.39552 0.82508,-7.12927 -1.23703,-9.87294c1.51422,0.33568 2.99377,0.7992 4.37172,1.38581c2.36261,1.00577 4.46618,2.4755 6.18476,4.18402c-0.16186,3.58142 1.62533,7.0592 4.76441,8.97868c0.1351,1.3393 -0.01916,2.62095 -0.50677,3.76636c0,0 -0.12308,0.51357 -0.46031,1.28074c-0.73029,-0.5961 -1.55783,-1.09815 -2.47199,-1.48022c-5.09568,-2.12977 -10.95305,0.27458 -13.08282,5.37026c-0.29289,0.70075 -0.50001,1.4159 -0.62619,2.13378c-1.14083,-0.28798 -2.35716,-0.67097 -3.65376,-1.16254z" data-paper-data="{&quot;index&quot;:null}" fill="url(#color-8)" stroke="#ed6b00" stroke-width="0" stroke-linecap="butt"/><path d="M290.40839,159.34488c2.63974,1.12373 4.9561,2.82668 6.77342,4.79474c-0.79905,0.81079 -1.47095,1.7714 -1.96878,2.86252c-0.74507,-2.94763 -2.82017,-5.52055 -5.84126,-6.78323c-5.09567,-2.12977 -10.95305,0.27459 -13.08282,5.37026c-1.42781,3.4162 -0.81778,7.17477 1.27487,9.92294c-1.806,0.45727 -3.47114,1.41386 -4.78018,2.78142c-1.39852,-1.1034 -2.44206,-2.25589 -3.20228,-3.42717c1.87457,-1.05431 3.42449,-2.7186 4.31811,-4.85671c1.58228,-3.78574 0.66194,-7.99193 -2.00533,-10.7776c4.26498,-2.67006 12.3921,-2.49334 18.5142,0.11285z" data-paper-data="{&quot;index&quot;:null}" fill="url(#color-9)" stroke="#ed6b00" stroke-width="0" stroke-linecap="butt"/><path d="M294.61097,173.60168c0.63196,2.50018 2.22082,4.73077 4.53218,6.1209c-1.5315,2.10128 -4.31235,4.41177 -9.17313,4.56c-0.17519,-1.86667 -0.87374,-3.65188 -2.00734,-5.1406c2.84743,-0.72096 5.34474,-2.68314 6.64829,-5.54032z" data-paper-data="{&quot;index&quot;:null}" fill="url(#color-10)" stroke="#ed6b00" stroke-width="0" stroke-linecap="butt"/><path d="M281.51064,174.84543c0.08743,-0.12389 -0.06257,-0.93981 -0.08023,-1.18213c-0.21533,-2.95649 -0.03613,-5.96278 -0.60211,-8.87257c-0.05345,-0.27488 -1.04174,-0.52387 -1.45362,-0.7288c-2.52231,-1.25494 -4.89969,-2.84746 -7.55532,-3.78802c-0.34002,-0.12043 -0.72478,-0.14793 -1.14238,-0.09821c1.58855,-1.53932 4.16618,-2.44082 7.12486,-2.74776c0.71639,3.00172 2.8078,5.63175 5.87312,6.91291c3.95682,1.65378 8.37292,0.57365 11.14638,-2.37755c3.12062,2.44761 5.36165,5.68961 6.20943,8.80741c-1.01561,-1.28074 -2.36014,-2.32999 -3.97495,-3.0049c-5.09568,-2.12977 -10.95305,0.27458 -13.08282,5.37026c-0.52837,1.26419 -0.77768,2.57525 -0.77605,3.86465c-1.50044,-0.10163 -2.98804,0.14034 -4.35611,0.68208c1.17455,-1.04221 2.11965,-2.0578 2.66981,-2.83736z" data-paper-data="{&quot;index&quot;:null}" fill="url(#color-11)" stroke="#ed6b00" stroke-width="0" stroke-linecap="butt"/><path d="M280.55567,182.41606c-15.65929,-5.76818 -13.40675,-15.10402 -11.1352,-20.44012c0.09875,-0.23195 0.21391,-0.45493 0.34454,-0.66906c-0.67029,1.73416 -0.81391,3.80562 -0.72206,5.36055c0.00949,0.16071 0.02267,0.32227 0.03942,0.48461c-0.65234,4.15762 1.39436,8.37399 5.2106,10.38481c2.44601,2.62816 5.48525,4.63255 8.54124,5.23899c5.27036,1.04585 9.8854,2.27992 13.08282,-5.37026c1.29544,-3.09944 0.03661,-6.89372 -1.23902,-10.00137c-0.7436,-1.81153 -3.64543,-1.79559 -4.81406,-3.36686c-0.06947,-2.01875 -0.75212,-3.9696 -1.93893,-5.58692c0.85319,0.25625 1.68533,0.55469 2.48337,0.89442c2.86831,1.22104 5.35479,3.12592 7.23416,5.31172c-0.0603,0.12873 -0.11815,0.25933 -0.17349,0.39172c-1.79787,4.30155 -0.3647,9.14589 3.19095,11.83249c-0.21401,0.59568 -0.62951,1.5646 -1.35101,2.60821c-2.94173,0.34593 -5.65715,1.99239 -7.29495,4.58994c-2.85582,0.49768 -6.59167,0.18197 -11.45833,-1.663z" data-paper-data="{&quot;index&quot;:null}" fill="url(#color-12)" stroke="#ed6b00" stroke-width="0" stroke-linecap="butt"/><path d="M302.12868,166.76712c0,0 -2.76029,-1.69245 -3.49521,-2.75642c-0.6528,-0.94523 -0.69689,-3.31423 -0.69689,-3.31423" data-paper-data="{&quot;index&quot;:null}" fill="none" stroke="#191412" stroke-width="1.5" stroke-linecap="round"/><path d="M281.35087,155.06867c0,0 -1.21889,1.7505 -2.27413,2.08053c-1.18792,0.37148 -4.50262,0.03948 -4.50262,0.03948" data-paper-data="{&quot;index&quot;:null}" fill="none" stroke="#191412" stroke-width="1.5" stroke-linecap="round"/></g></g></g></svg>