<svg version="1.1" xmlns="http://www.w3.org/2000/svg" xmlns:xlink="http://www.w3.org/1999/xlink" width="97.67679" height="104.40042" viewBox="0,0,97.67679,104.40042"><defs><linearGradient x1="238.12096" y1="203.11467" x2="240.99045" y2="224.79604" gradientUnits="userSpaceOnUse" id="color-1"><stop offset="0" stop-color="#fd0101"/><stop offset="1" stop-color="#fd0101" stop-opacity="0"/></linearGradient><linearGradient x1="238.23227" y1="203.97543" x2="240.87017" y2="223.90692" gradientUnits="userSpaceOnUse" id="color-2"><stop offset="0" stop-color="#fc531e"/><stop offset="1" stop-color="#fc531e" stop-opacity="0"/></linearGradient><linearGradient x1="238.46416" y1="203.3952" x2="240.57642" y2="219.35498" gradientUnits="userSpaceOnUse" id="color-3"><stop offset="0" stop-color="#fe761a"/><stop offset="1" stop-color="#fe761a" stop-opacity="0"/></linearGradient><linearGradient x1="238.56627" y1="204.25633" x2="240.4621" y2="218.58094" gradientUnits="userSpaceOnUse" id="color-4"><stop offset="0" stop-color="#fe9a1c"/><stop offset="1" stop-color="#fe9a1c" stop-opacity="0"/></linearGradient><linearGradient x1="238.3101" y1="203.44152" x2="239.70149" y2="213.95463" gradientUnits="userSpaceOnUse" id="color-5"><stop offset="0" stop-color="#faf302"/><stop offset="1" stop-color="#faf302" stop-opacity="0"/></linearGradient><linearGradient x1="238.42212" y1="205.21666" x2="239.36131" y2="212.31305" gradientUnits="userSpaceOnUse" id="color-6"><stop offset="0" stop-color="#fdf775"/><stop offset="1" stop-color="#fdf775" stop-opacity="0"/></linearGradient><linearGradient x1="232.05332" y1="202.54262" x2="245.28719" y2="202.54262" gradientUnits="userSpaceOnUse" id="color-7"><stop offset="0" stop-color="#515151"/><stop offset="1" stop-color="#242424"/></linearGradient><linearGradient x1="224.58994" y1="177.30136" x2="252.01048" y2="177.30136" gradientUnits="userSpaceOnUse" id="color-8"><stop offset="0" stop-color="#ffa000"/><stop offset="1" stop-color="#de6b00"/></linearGradient><radialGradient cx="238.21976" cy="177.62112" r="23.84227" gradientUnits="userSpaceOnUse" id="color-9"><stop offset="0" stop-color="#010101"/><stop offset="1" stop-color="#dedede"/></radialGradient><linearGradient x1="238.7676" y1="156.39508" x2="238.7676" y2="163.24613" gradientUnits="userSpaceOnUse" id="color-10"><stop offset="0" stop-color="#c28b5f"/><stop offset="1" stop-color="#ffb87d"/></linearGradient><radialGradient cx="234.73155" cy="133.74288" r="13.11833" gradientUnits="userSpaceOnUse" id="color-11"><stop offset="0" stop-color="#ffd9ba"/><stop offset="1" stop-color="#ffb87d"/></radialGradient><radialGradient cx="229.61139" cy="134.97569" r="10.07074" gradientUnits="userSpaceOnUse" id="color-12"><stop offset="0" stop-color="#303030"/><stop offset="1" stop-color="#292929"/></radialGradient><radialGradient cx="246.08399" cy="132.03505" r="2.65078" gradientUnits="userSpaceOnUse" id="color-13"><stop offset="0" stop-color="#787878"/><stop offset="1" stop-color="#292929"/></radialGradient><radialGradient cx="234.90139" cy="134.03769" r="4.17314" gradientUnits="userSpaceOnUse" id="color-14"><stop offset="0" stop-color="#a7a7a7"/><stop offset="1" stop-color="#292929"/></radialGradient><radialGradient cx="218.30303" cy="192.42544" r="12.35841" gradientUnits="userSpaceOnUse" id="color-15"><stop offset="0" stop-color="#dedede"/><stop offset="1" stop-color="#9c9c9c"/></radialGradient><radialGradient cx="258.13126" cy="192.51016" r="12.35841" gradientUnits="userSpaceOnUse" id="color-16"><stop offset="0" stop-color="#dedede"/><stop offset="1" stop-color="#9c9c9c"/></radialGradient></defs><g transform="translate(-190.10708,-129.97443)"><g data-paper-data="{&quot;isPaintingLayer&quot;:true}" fill-rule="nonzero" stroke-linejoin="miter" stroke-miterlimit="10" stroke-dasharray="" stroke-dashoffset="0" style="mix-blend-mode: normal"><g stroke="none" stroke-width="0.5" stroke-linecap="butt"><path d="M234.44178,205.56913c-0.51608,0.69069 -0.84391,1.4999 -1.37596,2.24816c0.06113,0.06802 0.10307,0.15457 0.11598,0.25207c0.01474,0.11141 -0.01084,0.21886 -0.06549,0.30765l-0.30529,0.50569l-0.09167,-0.05535c-0.44449,0.97139 -1.09366,1.79972 -1.58363,2.77033c-0.00701,0.0139 -0.25403,0.87023 -0.1896,0.87813c0.42553,0.0522 0.87875,-0.61393 1.23162,-0.37046c0.38934,0.26864 0.49972,0.82821 0.58284,1.29388c0.17452,0.97769 -1.94561,4.22718 -0.56124,3.34342c1.84906,-0.58461 2.17632,3.46184 2.38056,5.37135c0.50686,-0.82613 1.72621,-2.02154 2.1408,-1.85162c0.4722,0.19352 0.753,1.4149 0.93582,1.90157c0.04828,0.12852 0.14791,0.37196 0.19545,0.55134c0.31346,-0.675 1.62173,-2.77061 1.81896,-2.77295c1.75192,-0.02076 1.81019,2.69304 1.95422,3.81738c0.02906,-0.23884 0.60857,-2.87902 0.60963,-3.85405c0.00055,-0.50223 -0.19083,-1.20736 0.22439,-1.4899c0.95097,-0.64713 5.20713,3.1571 3.24719,0.25715c-0.28527,-0.55493 -1.4242,-2.86396 -0.71893,-3.46683c0.43628,-0.37293 1.60778,0.22037 1.93774,0.41265c0.07852,0.04576 0.18589,0.1371 0.2917,0.24042c-0.46556,-1.18937 -0.91145,-4.15705 -1.07491,-4.75971c-0.12773,-0.47092 -0.54213,-1.00664 -0.30318,-1.43205c0.15425,-0.27462 1.05734,-0.45548 1.53036,-0.27671c-1.12022,-1.13276 -2.36821,-2.59958 -3.32312,-3.83238c-0.00743,-0.00959 -0.7961,-1.38616 -0.98679,-1.23171c-0.38952,0.31551 -0.5277,0.92813 -0.98282,1.13823c-1.13376,0.52341 -3.4159,-0.91912 -4.56878,-1.34626c-1.12107,0.17759 -1.79516,0.98423 -2.82296,1.31631l-0.04584,0.05613c0,0 -0.0824,0.0558 -0.19703,0.07811zM234.22329,204.64706l0.18663,-0.11066c1.1583,-0.32592 1.87959,-1.19825 3.19171,-1.35264c1.23854,0.40353 2.42395,1.12077 3.62256,1.50274c0.99023,0.31556 0.97168,-1.70253 2.38758,-1.10884c0.7296,0.30592 1.07087,1.32169 1.59189,1.87779c1.48938,1.58968 2.68663,2.56131 3.21171,4.76061c-0.57738,0.1056 -2.27443,-0.36651 -1.75876,-0.08615c1.04825,0.56992 1.48485,4.5475 1.50494,5.69606c0.00738,0.42225 0.22714,0.96774 -0.07299,1.26484c-0.45807,0.45342 -1.37134,-0.50049 -1.64679,-0.66638c-0.13144,-0.07916 -0.38144,-0.16395 -0.57899,-0.25001c0.02962,0.14566 0.04545,0.31074 0.05884,0.41624c0.08245,0.64966 0.29491,1.01976 0.59328,1.60372c0.84248,1.24159 1.28496,1.79263 -0.36769,2.29664c-1.0785,0.32891 -1.60322,-0.18479 -2.4571,-0.71501c-0.10983,-0.06819 -0.30137,-0.17501 -0.46119,-0.28132c0.08156,0.44992 0.05478,1.20257 0.05484,1.25664c0.00154,1.30131 -1.31789,5.72678 -2.57709,3.21195c-0.15997,-1.19288 -0.31933,-2.03623 -0.83465,-3.1031c-0.12246,-0.25353 -0.07611,0.57883 -0.23484,0.81138c-0.33805,0.49523 -1.31248,2.22074 -1.96445,2.18144c-0.7835,-0.04723 -1.15199,-2.13698 -1.1331,-2.66864c0.01162,-0.32736 -0.31675,0.58957 -0.56335,0.80518c-0.3698,0.32334 -0.68259,0.63012 -1.00932,0.93283l0.04656,0.03568l-0.39927,0.52107l-0.14681,-0.11249c-0.11044,0.09321 -0.22552,0.18663 -0.34737,0.28062l-0.18286,-0.4136l-0.1616,0.02138l-0.07308,-0.5522c-0.12938,-0.97759 -1.06758,-5.13552 -1.07613,-5.12324c-2.90853,1.38085 -1.31633,-2.11446 -0.96807,-3.4854c0.09339,-0.36765 0.46721,-0.93789 0.13975,-1.12937c-0.54098,-0.31633 -1.35789,1.29738 -1.79876,-0.55504c-0.16016,-0.67296 0.88397,-2.77201 1.72741,-3.61813c-0.09981,-0.07306 -0.17077,-0.18518 -0.18829,-0.31747c-0.01702,-0.12861 0.01969,-0.25193 0.09282,-0.34737l0.31941,-0.41686l0.00522,0.00399l0.00602,-0.0181c0.85896,-0.95944 1.14775,-1.89114 1.85651,-2.85517c0,0 0.16363,-0.21356 0.40485,-0.19362z" fill="url(#color-1)"/><path d="M234.61519,205.45041l0.04612,-0.05629c1.0278,-0.33207 1.71566,-1.14393 2.83671,-1.32152c1.15288,0.42714 3.458,1.87064 4.59176,1.34723c0.45512,-0.2101 0.59598,-0.82183 0.98552,-1.13735c0.19069,-0.15445 0.98546,1.22484 0.99289,1.23444c0.95491,1.2328 2.22131,2.71738 3.34152,3.85014c-0.47301,-0.17877 -1.37786,-0.0007 -1.53211,0.27393c-0.23895,0.42542 0.17974,0.96894 0.30747,1.43987c0.16346,0.60265 0.61179,3.60033 1.07735,4.78971c-0.1058,-0.10332 -0.30456,-0.21649 -0.38308,-0.26225c-0.32997,-0.19227 -1.40991,-0.7645 -1.84618,-0.39157c-0.70527,0.60287 0.42515,2.92988 0.71042,3.48482c1.95994,2.89996 -2.30787,-0.89351 -3.25883,-0.24639c-0.41521,0.28255 -0.23015,0.99112 -0.23071,1.49335c-0.00107,0.97504 -0.59014,3.61834 -0.6192,3.85717c-0.14403,-1.12435 -0.21106,-3.83715 -1.96299,-3.81638c-0.19722,0.00234 -1.51536,2.09709 -1.82883,2.77209c-0.04754,-0.17938 -0.14878,-0.42317 -0.19706,-0.55168c-0.18282,-0.48666 -0.47227,-1.71094 -0.94448,-1.90447c-0.41459,-0.16991 -1.63915,1.02275 -2.14601,1.84889c-0.20423,-1.90952 -0.55098,-5.97938 -2.40003,-5.39476c-1.38437,0.88376 0.73284,-2.38619 0.55831,-3.36388c-0.08312,-0.46567 -0.19225,-1.03285 -0.5816,-1.3015c-0.35287,-0.24347 -0.80683,0.42613 -1.23235,0.37393c-0.06443,-0.0079 0.18365,-0.86894 0.19066,-0.88285c0.48997,-0.97061 1.14679,-1.81449 1.59128,-2.78588l0.09171,0.0553l0.30733,-0.50822c0.05464,-0.08879 0.08123,-0.19735 0.06648,-0.30876c-0.01291,-0.09751 -0.05447,-0.18446 -0.11559,-0.25249c0.53205,-0.74827 0.86955,-1.56533 1.38565,-2.25602c0.11463,-0.02231 0.19789,-0.07862 0.19789,-0.07862z" data-paper-data="{&quot;noHover&quot;:false,&quot;origItem&quot;:[&quot;Path&quot;,{&quot;applyMatrix&quot;:true,&quot;segments&quot;:[[[234.62979,205.92019],[0.122,-0.02374],[-0.54928,0.73512]],[[233.16532,208.31298],[0.56627,-0.7964],[0.06506,0.0724]],[[233.28876,208.58126],[-0.01374,-0.10378],[0.01569,0.11858]],[[233.21906,208.9087],[0.05816,-0.0945],[0,0]],[232.89413,209.44691],[[232.79656,209.38801],[0,0],[-0.47308,1.03388]],[[231.11107,212.33655],[0.52149,-1.03305],[-0.00746,0.01479]],[[230.90927,213.27116],[-0.06857,-0.00841],[0.4529,0.05556]],[[232.22012,212.87687],[-0.37557,-0.25913],[0.41439,0.28592]],[[232.84045,214.25398],[-0.08847,-0.49563],[0.18575,1.04058]],[[232.24311,217.81247],[-1.47342,0.94061],[1.968,-0.62222]],[[234.77679,223.52935],[-0.21737,-2.03235],[0.53946,-0.87927]],[[237.0553,221.55862],[-0.44126,-0.18084],[0.50258,0.20597]],[[238.05133,223.58251],[-0.19458,-0.51797],[0.05139,0.13679]],[[238.25935,224.16932],[-0.0506,-0.19092],[0.33362,-0.71842]],[[240.19531,221.218],[-0.20991,0.00249],[1.86462,-0.0221]],[[242.27524,225.28094],[-0.1533,-1.19668],[0.03093,-0.2542]],[[242.92409,221.17897],[-0.00114,1.03776],[0.00059,-0.53454]],[[243.16291,219.59323],[-0.44192,0.30073],[1.01214,-0.68876]],[[246.61897,219.86692],[2.08602,3.0865],[-0.30362,-0.59063]],[[245.8538,216.17708],[-0.75064,0.64165],[0.46434,-0.39692]],[[247.91619,216.61626],[-0.3512,-0.20464],[0.08357,0.0487]],[[248.22664,216.87215],[-0.11261,-0.10997],[-0.49551,-1.26588]],[[247.08258,211.80627],[0.17398,0.64142],[-0.13595,-0.50121]],[[246.7599,210.2821],[-0.25432,0.45279],[0.16417,-0.29229]],[[248.3887,209.98759],[-0.50344,-0.19027],[-1.19228,-1.20563]],[[244.85182,205.90869],[1.01634,1.3121],[-0.00791,-0.01021]],[[243.80155,204.59775],[0.20296,-0.16439],[-0.41458,0.33581]],[[242.7555,205.8092],[0.4844,-0.22362],[-1.20669,0.55708]],[[237.89283,204.37634],[1.22704,0.45462],[-1.19318,0.18901]],[[234.88828,205.77732],[1.09391,-0.35343],[0,0]],[234.8395,205.83706]],&quot;closed&quot;:true}]}" fill="url(#color-2)"/><path d="M235.74413,205.40376c-0.19955,0.18587 -0.37547,0.37068 -0.31351,0.60322c0.11053,0.4149 0.64374,1.11423 0.21123,2.07934c-0.09901,0.22094 -0.23845,0.61324 -0.38781,0.91097c0.24068,-0.01863 0.50056,0.02017 0.60932,0.13714c1.03511,1.11318 -2.30062,3.52543 -0.18186,3.49027c0.39606,0.97189 0.43996,1.82544 0.40905,2.7801c0.21702,-0.27617 0.53479,-0.4698 0.90313,-0.43789c0.83007,0.0719 1.45786,1.75884 1.8571,2.34832c0.26006,0.38398 0.57154,1.72479 0.58718,1.2613c0.02104,-0.62299 0.64375,-2.01941 1.13853,-2.34546c0.45469,-0.29963 1.22803,-0.03335 1.60845,0.15927c-0.04575,-0.30987 0.07499,-0.93446 0.07267,-1.25057c0.00707,-0.63108 -0.0735,-1.67531 0.2723,-2.23621c0.29667,-0.48118 0.9576,-0.37928 1.03204,-0.85376c0.11128,-0.70923 -0.56827,-1.44057 -0.47502,-2.02897c0.08109,-0.51169 1.02452,-1.02926 0.62979,-1.69753c-0.24009,-0.40645 -0.8955,-0.70049 -1.19437,-1.02574c-0.59242,-0.64469 -0.10599,-1.12625 -0.49876,-1.62371c-0.08273,-0.10478 -1.35863,0.15764 -1.36502,0.15819c-1.17993,-0.82639 -3.31906,-2.04294 -4.41607,-0.88799l-0.20573,0.27321c0,0 -0.11429,0.14916 -0.29264,0.18652zM235.57694,204.28081c1.36482,-1.39018 3.93989,-0.55413 5.32418,0.64351c0.67371,-0.15928 1.18173,-0.5018 1.81284,0.11219c0.55434,0.53932 -0.03388,1.12679 0.49194,1.6164c0.49058,0.45681 1.01976,0.59038 1.35549,1.25887c0.58842,1.17164 -0.31791,1.35649 -0.5396,2.20306c-0.11394,0.43509 0.66722,1.44007 0.4534,2.15584c-0.15255,0.51068 -0.89699,0.646 -1.14158,1.11953c-0.22634,0.43823 -0.13195,1.27016 -0.13644,1.75099c0.00269,0.37767 0.15129,1.90661 -0.23843,2.16459c-0.75158,0.49752 -1.30666,-0.80272 -1.81322,-0.32709c-0.70718,0.664 -0.54308,2.29029 -1.77408,2.53501c-0.92973,0.18483 -1.86336,-3.55556 -2.44428,-3.60962c-0.27369,-0.02546 -0.46253,0.15815 -0.62663,0.40803l0.22206,0.1402l-0.38517,0.61007c-0.07165,0.11528 -0.19245,0.19875 -0.33751,0.21796c-0.22892,0.0303 -0.44113,-0.10968 -0.50904,-0.32218l-0.15012,-0.43975l0.02846,-0.00972l-0.04854,-0.07292c0.02184,-1.00644 -0.02855,-2.03287 0.04369,-3.02667c-1.65202,0.53643 -1.03419,-1.73405 -0.52555,-2.97449c-0.15236,-0.06167 -0.35097,-0.22827 -0.60584,-0.55881c-0.39727,-0.51526 0.80714,-2.17908 0.93984,-2.6705c0.08871,-0.32853 -0.40758,-0.58247 -0.43995,-0.92123c-0.00428,-0.04485 0.70421,-1.5959 0.77109,-1.74339c0,0 0.08715,-0.19154 0.27299,-0.2599z" fill="url(#color-3)"/><path d="M236.01378,205.17627l0.20751,-0.27416c1.09701,-1.15496 3.26676,0.05749 4.44669,0.88389c0.0064,-0.00056 1.29168,-0.26 1.37441,-0.15522c0.39276,0.49746 -0.08477,0.98412 0.50765,1.62882c0.29887,0.32525 0.96442,0.62937 1.2045,1.03583c0.39474,0.66827 -0.54277,1.1966 -0.62386,1.70828c-0.09325,0.5884 0.58896,1.34411 0.47769,2.05334c-0.07444,0.47448 -0.73966,0.3861 -1.03633,0.86728c-0.34581,0.5609 -0.27952,1.62218 -0.28659,2.25327c0.00232,0.31611 -0.12405,0.94427 -0.07831,1.25414c-0.38044,-0.1926 -1.16588,-0.45441 -1.62056,-0.15477c-0.49477,0.32605 -1.12811,1.72356 -1.14915,2.34655c-0.01565,0.4635 -0.33187,-0.87761 -0.59193,-1.26159c-0.39925,-0.58948 -1.04897,-2.2848 -1.87905,-2.3567c-0.36835,-0.03191 -0.68952,0.15907 -0.90654,0.43523c0.03092,-0.95466 -0.02718,-1.82973 -0.42324,-2.80162c-2.11876,0.03516 1.22195,-2.4161 0.18683,-3.52928c-0.10875,-0.11696 -0.36966,-0.15407 -0.61034,-0.13543c0.14936,-0.29772 0.29404,-0.69746 0.39305,-0.9184c0.4325,-0.96512 -0.09339,-1.67131 -0.20392,-2.08621c-0.06195,-0.23254 0.1173,-0.41965 0.31687,-0.60552c0.17835,-0.03737 0.29461,-0.18769 0.29461,-0.18769z" data-paper-data="{&quot;noHover&quot;:false,&quot;origItem&quot;:[&quot;Path&quot;,{&quot;applyMatrix&quot;:true,&quot;segments&quot;:[[[236.01592,205.74418],[0.18982,-0.03977],[-0.21239,0.19783]],[[235.68224,206.3862],[-0.06594,-0.2475],[0.11764,0.44159]],[[235.90706,208.5993],[0.46032,-1.0272],[-0.10538,0.23515]],[[235.4943,209.56887],[0.15897,-0.31687],[0.25616,-0.01983]],[[236.14281,209.71483],[-0.11575,-0.12448],[1.1017,1.18479]],[[235.94926,213.42962],[-2.25505,0.03742],[0.42154,1.03441]],[[236.38461,216.38855],[0.03291,-1.01607],[0.23098,-0.29393]],[[237.34584,215.92249],[-0.39204,-0.03396],[0.88347,0.07653]],[[239.3224,218.42187],[-0.42493,-0.6274],[0.27679,0.40868]],[[239.94736,219.7643],[-0.01666,0.49331],[0.02239,-0.66307]],[[241.15912,217.26797],[-0.5266,0.34702],[0.48394,-0.3189]],[[242.87104,217.43747],[-0.40491,-0.20499],[-0.04869,-0.3298]],[[242.94838,216.10646],[0.00247,0.33644],[0.00752,-0.67168]],[[243.23821,213.7264],[-0.36806,0.59698],[0.31575,-0.51213]],[[244.33664,212.81772],[-0.07923,0.505],[0.11844,-0.75485]],[[243.83106,210.65823],[-0.09925,0.62625],[0.08631,-0.5446]],[[244.50136,208.8515],[0.42013,0.71126],[-0.25553,-0.4326]],[[243.23016,207.75978],[0.3181,0.34617],[-0.63053,-0.68616]],[[242.69931,206.03162],[0.41803,0.52946],[-0.08805,-0.11152]],[[241.24648,206.19999],[0.00681,-0.0006],[-1.25583,-0.87955]],[[236.54634,205.25488],[1.16758,-1.22925],[0,0]],[236.32738,205.54566]],&quot;closed&quot;:true}]}" fill="url(#color-4)"/><path d="M237.86119,205.39304c-0.11665,0.8433 0.06937,1.501 -0.26069,2.98156c0.89674,0.00242 0.01537,3.26217 -0.24983,3.79198c-0.28081,0.56097 1.0573,-1.26896 1.61067,-0.97346c0.35954,0.19199 0.46771,0.63449 0.61075,1.04475c0.11464,-0.41347 0.38446,-0.8498 0.48177,-1.22212c0.10816,-0.41383 -0.16955,-0.78702 0.20926,-1.18756c0.17388,-0.18384 0.76849,0.0831 0.74023,-0.16836c-0.10757,-0.95734 -0.31589,-5.48556 -2.29957,-4.31607l-0.53669,0.10492c0,0 -0.16078,0.02128 -0.30591,-0.05564zM238.08369,204.51873l0.15972,0.00599c1.40004,-0.76066 4.03196,0.89808 3.3594,2.69685c-0.29751,0.79571 0.58058,1.61698 0.30692,2.6858c-0.09953,0.38872 -0.63156,0.56139 -1.02735,0.62745c-0.23243,0.03879 0.1416,0.47315 0.08473,0.70183c-0.15678,0.63044 -0.38624,1.22382 -0.67759,1.7896l0.05604,0.01933l-0.1997,0.57912c-0.05383,0.16741 -0.19988,0.29759 -0.38579,0.32219c-0.19585,0.02592 -0.37947,-0.07279 -0.47096,-0.23492l-0.35583,-0.59839l0.0012,-0.00071l-0.00411,-0.00423c-0.17481,-0.31301 -0.25107,-0.67849 -0.29493,-1.0343c-0.03872,-0.31412 -0.36126,0.58333 -0.66262,0.68008c-0.39467,0.12671 -0.91871,0.38706 -1.23752,0.12214c-0.83069,-0.69025 0.81052,-3.04515 0.35142,-3.64359l-0.017,0.0052c-0.02696,0.00877 -0.05509,0.0152 -0.08418,0.01905c-0.25721,0.03404 -0.49332,-0.14687 -0.52736,-0.40409c-0.01196,-0.09039 0.00262,-0.17816 0.03772,-0.25548l0.1994,-0.46024c0.46256,-1.99867 -0.13921,-2.48178 0.66104,-4.32923c0,0 0.18676,-0.43106 0.61782,-0.2443c0.43106,0.18676 0.2443,0.61782 0.2443,0.61782c-0.0512,0.11815 -0.09584,0.23015 -0.13479,0.33702z" fill="url(#color-5)"/><path d="M238.15713,205.40276l0.54415,-0.10593c1.98368,-1.16949 2.23777,3.42395 2.34534,4.38129c0.02825,0.25146 -0.57245,-0.00505 -0.74632,0.17879c-0.3788,0.40054 -0.11665,0.7867 -0.22481,1.20054c-0.09731,0.37232 -0.37967,0.81303 -0.4943,1.2265c-0.14304,-0.41027 -0.25887,-0.8519 -0.61841,-1.04389c-0.55337,-0.2955 -1.91225,1.53029 -1.63145,0.96932c0.2652,-0.52981 1.12095,-3.846 0.22421,-3.84842c0.33006,-1.48057 0.17532,-2.16957 0.29197,-3.01287c0.14512,0.07691 0.30961,0.05467 0.30961,0.05467z" data-paper-data="{&quot;noHover&quot;:false,&quot;origItem&quot;:[&quot;Path&quot;,{&quot;applyMatrix&quot;:true,&quot;segments&quot;:[[[238.26916,205.73277],[0.15446,0.08186],[-0.12415,0.89755]],[[237.99171,208.90612],[0.35129,-1.57581],[0.95442,0.00258]],[[237.7258,212.94202],[0.28226,-0.56389],[-0.29887,0.59706]],[[239.44008,211.90594],[-0.58897,-0.31451],[0.38267,0.20434]],[[240.09012,213.0179],[-0.15224,-0.43666],[0.12201,-0.44007]],[[240.60289,211.71717],[-0.10357,0.39627],[0.11512,-0.44045]],[[240.8256,210.45321],[-0.40317,0.4263],[0.18506,-0.19567]],[[241.61345,210.27402],[0.03007,0.26764],[-0.11449,-1.01892]],[[239.16596,205.68031],[2.11128,-1.24472],[0,0]],[238.59475,205.79198]],&quot;closed&quot;:true}]}" fill="url(#color-6)"/></g><path d="M232.05332,204.99334l2.6141,-4.90143h7.51553l3.10424,4.90143z" fill="url(#color-7)" stroke="#000000" stroke-width="0" stroke-linecap="butt"/><path d="M238.28456,201.2444c-14.02176,0.20134 -13.69397,-10.72028 -13.69397,-23.94441c0,-13.22413 0.5759,-23.94441 13.69397,-23.94441c13.63483,0 13.69397,10.72028 13.69397,23.94441c0,13.22413 1.36161,23.72823 -13.69397,23.94441z" fill="url(#color-8)" stroke="#000000" stroke-width="0" stroke-linecap="butt"/><path d="M222.40945,197.38399v-39.52573h31.62062v39.52573z" fill="url(#color-9)" stroke="#ed6b00" stroke-width="0" stroke-linecap="butt"/><g><path d="M252.49166,225.28213c0,0 -7.10119,-24.80352 -8.91969,-28.90834c-0.59463,-1.34222 -3.63877,-0.79297 -3.63877,-0.79297c0,0 -3.83036,-3.53207 -0.27915,-4.27807c3.00131,-0.63047 10.06092,0.11684 10.06092,0.11684l10.60887,32.21726z" data-paper-data="{&quot;index&quot;:null}" fill="#726f7c" stroke="#000000" stroke-width="0" stroke-linecap="butt"/><path d="M267.73554,229.36887c-0.5801,0.12186 -2.58483,0.55694 -4.61763,0.90166c-1.2359,0.20958 -1.98853,-0.21355 -2.93134,-0.16146c-1.18694,0.06559 -2.83045,0.81987 -3.70092,0.80704c-1.60397,-0.02365 -2.48381,-0.27303 -2.48381,-0.27303c0,0 -0.47417,-0.94817 -0.60551,-1.49321c-0.17695,-0.73432 -0.36074,-2.51661 -0.36074,-2.51661c0,0 5.78291,-1.33698 8.08954,-1.61683c1.3649,-0.16559 4.28296,-0.23879 4.28296,-0.23879c0,0 1.55514,0.30235 1.85201,0.67654c0.3636,0.45829 1.26324,1.76669 1.26324,1.76669c0,0 0.0214,1.978 -0.78784,2.14799z" data-paper-data="{&quot;index&quot;:null}" fill="#141415" stroke="#000000" stroke-width="0" stroke-linecap="butt"/><path d="M266.9411,226.90474c-0.24291,0.05103 1.01667,1.42304 -2.28813,1.84287c-3.12079,0.39646 -2.96145,-0.59206 -4.05885,-0.4439c-2.29469,0.30982 -2.41006,1.11429 -3.41982,1.17009c-0.35167,0.01943 -0.52531,-0.00669 -1.94596,-0.58275c-0.97704,-0.39618 -1.01146,-1.57697 -1.72753,-2.06833c-1.04598,-0.71775 -1.17888,-1.67931 -1.17888,-1.67931l-0.70129,-2.96693c0,0 0.92964,2.05969 1.92014,2.69402c0.88622,0.56754 2.26355,-0.49465 2.73688,-0.59423c0.82882,-0.17435 -1.34598,-3.05662 -0.54976,-3.20524c0.42813,-0.07991 3.59511,-0.99441 3.59511,-0.99441c0,0 0.85635,3.47814 1.08847,3.44997c1.3649,-0.16559 4.63896,-0.31358 4.63896,-0.31358c0,0 1.55514,0.30235 1.85202,0.67654c0.3636,0.45829 1.22534,2.76591 1.22534,2.76591c0,0 -0.37747,0.07929 -1.1867,0.24929z" data-paper-data="{&quot;index&quot;:null}" fill="#252527" stroke="#000000" stroke-width="0" stroke-linecap="butt"/><path d="M259.02644,225.56462l2.38637,-1.61645" fill="none" stroke="#ffffff" stroke-width="0.5" stroke-linecap="round"/><path d="M263.19286,223.57424l-2.19291,1.94753" fill="none" stroke="#ffffff" stroke-width="0.5" stroke-linecap="round"/><path d="M264.31073,223.58723l-1.12489,1.72317" fill="none" stroke="#ffffff" stroke-width="0.5" stroke-linecap="round"/><path d="M259.12823,221.33044l-2.08619,0.68605" fill="none" stroke="#969696" stroke-width="0.5" stroke-linecap="round"/><path d="M259.51515,221.99259l-1.82392,0.75487" fill="none" stroke="#969696" stroke-width="0.5" stroke-linecap="round"/></g><g><path d="M232.91902,228.78291l-2.47825,-33.82837c0,0 6.24119,-3.38291 9.25614,-3.94457c3.56735,-0.66457 1.3733,4.06125 1.3733,4.06125c0,0 -3.02357,0.65308 -3.06143,2.12063c-0.11579,4.48811 2.778,30.12534 2.778,30.12534z" fill="#726f7c" stroke="#000000" stroke-width="0" stroke-linecap="butt"/><path d="M248.87133,230.95485c0,0 -0.02385,1.97797 -0.83677,2.12941c-0.58274,0.10856 -2.59688,0.49768 -4.63704,0.7958c-1.24036,0.18125 -1.98312,-0.25897 -2.92688,-0.22846c-1.18813,0.03842 -2.84845,0.7549 -3.71841,0.72216c-1.60301,-0.06032 -2.47691,-0.32976 -2.47691,-0.32976c0,0 -0.45236,-0.95877 -0.57119,-1.50668c-0.1601,-0.73816 -0.30308,-2.52419 -0.30308,-2.52419c0,0 5.81197,-1.20436 8.12441,-1.43137c1.36833,-0.13433 4.2873,-0.14076 4.2873,-0.14076c0,0 1.54781,0.33785 1.83605,0.71873c0.35303,0.46648 1.22251,1.79513 1.22251,1.79513z" data-paper-data="{&quot;index&quot;:null}" fill="#141415" stroke="#000000" stroke-width="0" stroke-linecap="butt"/><path d="M248.48879,230.38054c0,0 -0.37916,0.07064 -1.19209,0.22208c-0.24403,0.04545 0.98384,1.44593 -2.32968,1.79004c-3.12904,0.32496 -2.94714,-0.65964 -4.04763,-0.53662c-2.30118,0.25725 -2.43491,1.05888 -3.4457,1.09155c-0.35202,0.01137 -0.52502,-0.01871 -1.9321,-0.62711c-0.96771,-0.41842 -0.97512,-1.5997 -1.67977,-2.1073c-1.02929,-0.7415 -1.14016,-1.70584 -1.14016,-1.70584l-0.63325,-2.9822c0,0 0.88229,2.08043 1.85802,2.73724c0.87301,0.58767 2.27428,-0.44275 2.74975,-0.53147c0.83258,-0.15536 -1.27572,-3.08662 -0.47632,-3.21699c0.42985,-0.0701 3.61692,-0.91192 3.61692,-0.91192c0,0 0.77657,3.49681 1.00928,3.47396c1.36832,-0.13432 4.64492,-0.20738 4.64492,-0.20738c0,0 1.54781,0.33785 1.83605,0.71873c0.35304,0.46648 1.16175,2.79321 1.16175,2.79321z" data-paper-data="{&quot;index&quot;:null}" fill="#252527" stroke="#000000" stroke-width="0" stroke-linecap="butt"/><path d="M239.41478,229.0818l2.42271,-1.56145" fill="none" stroke="#ffffff" stroke-width="0.5" stroke-linecap="round"/><path d="M241.38872,229.0841l2.23688,-1.89686" fill="none" stroke="#ffffff" stroke-width="0.5" stroke-linecap="round"/><path d="M243.57888,228.92278l1.16401,-1.697" fill="none" stroke="#ffffff" stroke-width="0.5" stroke-linecap="round"/><path d="M237.51204,225.48923l2.10134,-0.63816" fill="none" stroke="#969696" stroke-width="0.5" stroke-linecap="round"/><path d="M239.98503,225.52189l-1.84072,0.71295" fill="none" stroke="#969696" stroke-width="0.5" stroke-linecap="round"/></g><path d="M234.93952,163.24613v-6.85104h7.65615v6.85104z" fill="url(#color-10)" stroke="#000000" stroke-width="0" stroke-linecap="butt"/><path d="M230.49814,194.56428c0,0 -0.11293,-5.56106 -0.90302,-10.9122c-0.53685,-3.63606 -1.7532,-6.87967 -2.03542,-9.36282c-0.5297,-4.66058 -0.88374,-13.35468 -0.88374,-13.35468c0,0 3.65767,-0.76983 5.45147,-0.49356c2.2834,0.35167 7.13803,2.4325 7.13803,2.4325c0,0 3.56299,-2.35291 5.45303,-2.86495c1.99425,-0.54026 6.21665,-0.29648 6.21665,-0.29648c0,0 0.39492,9.2089 0.41037,12.65167c0.01367,3.04602 -0.56794,6.40481 -0.63474,10.91871c-0.06884,4.65232 0.37685,10.41578 0.37685,10.41578c0,0 -2.7922,-0.62959 -5.60696,-0.55605c-1.27827,0.0334 -1.73835,1.095 -2.93606,1.31475c-0.95733,0.17564 -2.66374,-0.47946 -3.58925,-0.46961c-0.69966,0.00744 -2.06788,-0.42707 -2.5617,-0.4063c-0.9971,0.04194 -1.57012,0.94551 -2.71837,1.16293c-1.33382,0.25255 -3.17717,-0.17971 -3.17717,-0.17971z" fill="#ffffff" stroke="#292e32" stroke-width="0" stroke-linecap="butt"/><path d="M251.82917,143.97249c0,7.73092 -5.73774,13.99807 -12.8156,13.99807c-7.07786,0 -12.8156,-6.26715 -12.8156,-13.99807c0,-7.73092 5.73774,-13.99806 12.8156,-13.99806c7.07786,0 12.8156,6.26714 12.8156,13.99806z" fill="url(#color-11)" stroke="none" stroke-width="0" stroke-linecap="butt"/><path d="M238.03343,145.97599c-0.5265,0.91349 -1.43258,0.38383 -1.43258,0.38383c-0.91393,-0.55722 -2.45095,-1.17574 -2.30203,-2.6961c0.1217,-1.24248 2.13973,-2.33997 3.2068,-2.10706c1.93572,0.42253 3.60144,3.95074 0.5278,4.41932z" fill="#191412" stroke="none" stroke-width="0.5" stroke-linecap="butt"/><path d="M242.45054,150.49059c0.14423,-0.46863 0.47533,-0.57039 0.71965,-0.57602c0.0776,-0.00492 0.15695,0.00165 0.23587,0.02089c-0.28158,-1.08168 -0.10408,-2.4792 -0.44462,-3.52597c0,0 -0.2501,-0.78449 0.51677,-1.04033c0.76687,-0.25584 1.01697,0.52865 1.01697,0.52865c0.4101,1.30859 0.71193,2.9192 0.68474,4.31641c-0.01019,0.5236 0.25251,1.23107 -0.14241,1.56432c-0.4098,0.34581 -1.06036,-0.06797 -1.59055,-0.10196l-0.46926,-0.15113c-0.09725,-0.03132 -0.18459,-0.07973 -0.25988,-0.14099c-0.1971,-0.14779 -0.41151,-0.42524 -0.26729,-0.89386z" fill="#191412" stroke="none" stroke-width="0.5" stroke-linecap="butt"/><path d="M249.92237,146.45889c-0.42472,0.9868 -1.15568,0.41464 -1.15568,0.41464c-0.73728,-0.60194 -1.97722,-1.27009 -1.85707,-2.91248c0.09818,-1.3422 1.72614,-2.52778 2.58696,-2.27617c1.56156,0.45643 2.90532,4.26783 0.42578,4.77401z" fill="#191412" stroke="none" stroke-width="0.5" stroke-linecap="butt"/><g stroke-linecap="butt"><path d="M232.30137,135.02434c-0.17005,0.01306 -0.60745,0.05338 -1.08101,0.12809c-0.52481,0.19981 -1.13701,0.40123 -1.60677,0.62441c-0.30204,0.88846 0.76073,1.81827 -0.69014,2.46543c-2.47444,1.10372 -1.68672,-2.06362 -0.85344,-3.04958c1.28665,-1.08794 3.16128,-1.19356 4.77768,-1.47968c2.22645,-0.39412 4.39964,-1.01947 6.59672,-1.12157c0.08373,-0.08501 0.19742,-0.14125 0.32576,-0.15097l0.58683,-0.04437c0.29649,-0.07344 0.61861,-0.14963 0.95687,-0.22118c0.88034,-0.26117 1.93684,-0.38813 2.92062,-0.46624c0.48312,-0.0876 0.93522,-0.12531 1.30808,-0.08635c0.27415,-0.01627 0.52912,-0.03163 0.75689,-0.04886l0.61862,-0.04678c0.28176,-0.02131 0.52744,0.18983 0.54874,0.47159c0.01896,0.25077 -0.1462,0.47296 -0.38141,0.53382l-0.33106,0.09265c0.14321,0.12391 0.27273,0.26511 0.3863,0.42536l0.23585,-0.11566l0.28911,0.58949c0.03091,0.05949 0.05055,0.12607 0.05593,0.19712c0.02131,0.28176 -0.18983,0.52744 -0.47158,0.54873c-0.08568,0.00647 -0.16803,-0.00853 -0.24176,-0.0405l-0.50408,-0.20613l0.00607,-0.01483l-0.04781,-0.00447c-0.3588,-0.22898 -0.72469,-0.40307 -1.09089,-0.5227c-0.55912,-0.02819 -1.1467,-0.0979 -1.74581,-0.1556c-1.01707,0.15973 -1.94486,0.77427 -2.61733,1.83311c0,0 -0.27523,0.43128 -0.7065,0.15604c-0.43127,-0.27523 -0.15604,-0.70651 -0.15604,-0.70651c0.05884,-0.0918 0.11951,-0.18105 0.1819,-0.26772l-0.28521,0.08639c-0.03819,0.01244 -0.07848,0.02055 -0.12032,0.02371c-0.28176,0.02131 -0.52744,-0.18983 -0.54873,-0.47159c-0.01079,-0.1426 0.03797,-0.27595 0.12529,-0.37565c-0.24508,-0.00307 -0.47675,0.00691 -0.67434,0.05261c-1.38003,0.31921 -3.49383,0.40123 -5.49102,0.67808c0.0077,0.2414 -0.15453,0.45215 -0.38263,0.51117l-0.60014,0.16794l-0.00543,-0.01939l-0.0075,0.00183z" fill="url(#color-12)" stroke="none" stroke-width="0.5"/><path d="M247.44806,131.51318c2.71281,-0.24476 2.68884,-0.20441 2.87705,1.62874c0.18821,1.83315 -0.83074,3.35013 -2.2759,3.38828c-1.44517,0.03816 -2.76929,-1.41698 -2.9575,-3.25013c-0.18821,-1.83315 -0.18749,-1.53738 2.35635,-1.76689z" data-paper-data="{&quot;index&quot;:null}" fill="url(#color-13)" stroke="#000000" stroke-width="0"/><path d="M240.78976,134.0975c0.32856,1.99641 -1.2315,3.91541 -3.48449,4.28618c-2.25298,0.37077 -4.34573,-0.94706 -4.67428,-2.94348c-0.32856,-1.99641 -0.37937,-2.03235 3.90844,-2.54486c4.02075,-0.4806 3.92178,-0.79425 4.25034,1.20216z" fill="url(#color-14)" stroke="#000000" stroke-width="0"/></g><path d="M283.54199,161.09003c-0.0521,0.2164 3.69104,0.48867 3.53622,1.41639c-0.07616,0.4563 -2.42318,-0.27811 -3.33037,0.24601c-0.4802,0.27743 4.29197,0.17452 3.65931,1.31754c-0.2172,0.39241 -3.58068,-0.35186 -4.45076,-0.0202c-0.46577,0.17756 5.18713,0.60783 4.80935,1.38022c-0.22426,0.45852 -3.26421,-0.40436 -4.70081,-0.25803c-0.69988,0.07128 3.77495,0.88512 3.37865,1.42506c-0.24259,0.33051 -4.6496,-0.23416 -4.7045,-0.20126c-0.30856,0.18494 2.26184,1.29593 1.58213,1.49237c-1.25269,0.36204 -2.5383,-0.80603 -3.76457,-1.75329c-0.71647,-0.55345 -1.88213,-0.74192 -1.88213,-0.74192c0,0 -2.88318,-0.92723 -6.39617,-0.81762c-0.84479,0.02636 -3.60303,-0.07643 -4.47057,-0.04094c-2.05326,0.08396 -4.08651,0.2394 -5.34656,0.26041c-2.71014,0.04525 -6.14401,0.02412 -6.14401,0.02412l-0.20696,-5.91771c0,0 4.9046,-0.0488 7.78601,-0.09693c1.17266,-0.01958 2.05797,0.56538 3.87509,0.60522c0.81455,0.01785 4.2894,0.58324 6.42588,0.82993c3.55717,0.41073 5.74788,0.2829 5.74788,0.2829c0,0 4.70724,0.10931 4.59686,0.56775z" data-paper-data="{&quot;index&quot;:null}" fill="#ffb77d" stroke="#000000" stroke-width="0" stroke-linecap="butt"/><path d="M248.8186,164.01549c-0.58138,-5.34044 3.00248,-5.63196 4.9766,-5.61505c1.97412,0.01693 1.59241,-1.63401 2.10099,3.26177c0.42986,4.13801 0.07367,3.54611 -1.90045,3.52919c-1.97412,-0.01693 -4.87437,1.60531 -5.17713,-1.17593z" data-paper-data="{&quot;index&quot;:null}" fill="#ffffff" stroke="#000000" stroke-width="0" stroke-linecap="butt"/><path d="M193.56462,168.22974c-0.18668,-0.43301 4.43354,-1.34061 4.43354,-1.34061c0,0 2.18057,-0.24627 5.61621,-1.25548c2.06349,-0.60613 5.39173,-1.75376 6.19141,-1.90976c1.78393,-0.34803 2.55697,-1.07492 3.7159,-1.25489c2.84769,-0.44219 7.68926,-1.22751 7.68926,-1.22751l0.80159,5.86683c0,0 -3.38035,0.60432 -6.05876,1.02024c-1.2453,0.1934 -3.2754,0.38572 -5.31306,0.65187c-0.86095,0.11245 -3.56161,0.68243 -4.39859,0.8c-3.48053,0.48892 -6.16423,1.89258 -6.16423,1.89258c0,0 -1.11668,0.3838 -1.72868,1.05094c-1.04747,1.14185 -2.11592,2.51139 -3.41191,2.36747c-0.7032,-0.07808 1.64103,-1.60967 1.30553,-1.7395c-0.0597,-0.0231 -4.30666,1.28221 -4.60188,0.99773c-0.48228,-0.46475 3.78919,-2.02713 3.08738,-1.97845c-1.44058,0.09991 -4.2897,1.46681 -4.58861,1.05306c-0.50353,-0.69696 4.99405,-2.08155 4.50488,-2.17738c-0.91378,-0.17899 -4.10188,1.12599 -4.3826,0.7762c-0.81768,-1.01889 3.90258,-1.72837 3.38222,-1.92018c-0.98305,-0.36235 -3.17116,0.76019 -3.32374,0.32347c-0.3102,-0.88792 3.33223,-1.79227 3.24411,-1.99667z" data-paper-data="{&quot;index&quot;:null}" fill="#ffb77d" stroke="#000000" stroke-width="0" stroke-linecap="butt"/><path d="M228.28009,165.21233c0.17424,2.79224 -2.9595,1.68641 -4.90203,2.03853c-1.94254,0.35213 -2.19298,0.99594 -2.47251,-3.15493c-0.33072,-4.91099 -0.42634,-3.21921 1.51619,-3.57134c1.94253,-0.35212 5.52381,-0.67381 5.85835,4.68775z" data-paper-data="{&quot;index&quot;:null}" fill="#ffffff" stroke="#000000" stroke-width="0" stroke-linecap="butt"/><path d="M213.87928,204.78384c0,0 4.51981,-6.93576 5.97062,-10.98881c1.49692,-4.18186 2.87688,-13.728 2.87688,-13.728l-0.28088,17.27368z" fill="url(#color-15)" stroke="#000000" stroke-width="0" stroke-linecap="butt"/><path d="M253.98839,197.42543l-0.28088,-17.27367c0,0 1.37996,9.54614 2.87688,13.728c1.45081,4.05304 5.97062,10.98881 5.97062,10.98881z" data-paper-data="{&quot;index&quot;:null}" fill="url(#color-16)" stroke="#000000" stroke-width="0" stroke-linecap="butt"/></g></g></svg>