<svg version="1.1" xmlns="http://www.w3.org/2000/svg" xmlns:xlink="http://www.w3.org/1999/xlink" width="263.36581" height="185.31876" viewBox="0,0,263.36581,185.31876"><defs><linearGradient x1="310.06247" y1="200.34215" x2="310.06247" y2="275.57656" gradientUnits="userSpaceOnUse" id="color-1"><stop offset="0" stop-color="#636363"/><stop offset="1" stop-color="#424242"/></linearGradient><radialGradient cx="312.6106" cy="237.94136" r="34.57781" gradientUnits="userSpaceOnUse" id="color-2"><stop offset="0" stop-color="#7d94ff"/><stop offset="1" stop-color="#7d94ff" stop-opacity="0"/></radialGradient><radialGradient cx="312.6106" cy="237.94136" r="34.57781" gradientUnits="userSpaceOnUse" id="color-3"><stop offset="0" stop-color="#7d94ff"/><stop offset="1" stop-color="#7d94ff" stop-opacity="0"/></radialGradient><radialGradient cx="312.6106" cy="237.94136" r="34.57781" gradientUnits="userSpaceOnUse" id="color-4"><stop offset="0" stop-color="#7d94ff"/><stop offset="1" stop-color="#7d94ff" stop-opacity="0"/></radialGradient><radialGradient cx="312.6106" cy="237.94136" r="34.57781" gradientUnits="userSpaceOnUse" id="color-5"><stop offset="0" stop-color="#7d94ff"/><stop offset="1" stop-color="#7d94ff" stop-opacity="0"/></radialGradient><radialGradient cx="312.64878" cy="238.01618" r="32.78869" gradientUnits="userSpaceOnUse" id="color-6"><stop offset="0" stop-color="#3662ff"/><stop offset="1" stop-color="#3662ff" stop-opacity="0"/></radialGradient><radialGradient cx="312.64878" cy="238.01618" r="32.78869" gradientUnits="userSpaceOnUse" id="color-7"><stop offset="0" stop-color="#3662ff"/><stop offset="1" stop-color="#3662ff" stop-opacity="0"/></radialGradient><radialGradient cx="312.72516" cy="238.01618" r="31.02741" gradientUnits="userSpaceOnUse" id="color-8"><stop offset="0" stop-color="#3644ff"/><stop offset="1" stop-color="#3644ff" stop-opacity="0"/></radialGradient><radialGradient cx="317.33832" cy="227.5962" r="29.03407" gradientUnits="userSpaceOnUse" id="color-9"><stop offset="0" stop-color="#2a78ff"/><stop offset="1" stop-color="#094be6"/></radialGradient><linearGradient x1="301.16722" y1="208.73069" x2="301.16722" y2="243.32662" gradientUnits="userSpaceOnUse" id="color-10"><stop offset="0" stop-color="#69a068"/><stop offset="1" stop-color="#9dbe7c"/></linearGradient><linearGradient x1="320.09714" y1="216.97512" x2="320.09714" y2="229.45975" gradientUnits="userSpaceOnUse" id="color-11"><stop offset="0" stop-color="#76a86d"/><stop offset="1" stop-color="#87b274"/></linearGradient><radialGradient cx="296.52104" cy="263.30859" r="16.4467" gradientUnits="userSpaceOnUse" id="color-12"><stop offset="0" stop-color="#ffc98c"/><stop offset="1" stop-color="#9dbe7c"/></radialGradient><radialGradient cx="288.42282" cy="251.39939" r="9.02069" gradientUnits="userSpaceOnUse" id="color-13"><stop offset="0" stop-color="#ffc98c"/><stop offset="1" stop-color="#9dbe7c"/></radialGradient><radialGradient cx="337.96487" cy="242.82489" r="10.7838" gradientUnits="userSpaceOnUse" id="color-14"><stop offset="0" stop-color="#ffc98c"/><stop offset="1" stop-color="#9dbe7c"/></radialGradient><radialGradient cx="292.81478" cy="237.62335" r="7.7795" gradientUnits="userSpaceOnUse" id="color-15"><stop offset="0" stop-color="#ffffff"/><stop offset="1" stop-color="#ffffff" stop-opacity="0.67843"/></radialGradient><radialGradient cx="324.5143" cy="255.20085" r="11.46101" gradientUnits="userSpaceOnUse" id="color-16"><stop offset="0" stop-color="#ffffff"/><stop offset="1" stop-color="#ffffff" stop-opacity="0.67843"/></radialGradient><radialGradient cx="317.15277" cy="225.90509" r="10.62727" gradientUnits="userSpaceOnUse" id="color-17"><stop offset="0" stop-color="#ffffff"/><stop offset="1" stop-color="#ffffff" stop-opacity="0.67843"/></radialGradient><radialGradient cx="334.73027" cy="221.39805" r="9.8028" gradientUnits="userSpaceOnUse" id="color-18"><stop offset="0" stop-color="#ffffff"/><stop offset="1" stop-color="#ffffff" stop-opacity="0.67843"/></radialGradient><radialGradient cx="286.0542" cy="219.29475" r="8.07511" gradientUnits="userSpaceOnUse" id="color-19"><stop offset="0" stop-color="#ffffff"/><stop offset="1" stop-color="#ffffff" stop-opacity="0.67843"/></radialGradient><radialGradient cx="312.64573" cy="210.28067" r="9.27705" gradientUnits="userSpaceOnUse" id="color-20"><stop offset="0" stop-color="#ffffff"/><stop offset="1" stop-color="#ffffff" stop-opacity="0.67843"/></radialGradient><radialGradient cx="294.16682" cy="261.66094" r="13.54914" gradientUnits="userSpaceOnUse" id="color-21"><stop offset="0" stop-color="#ffffff"/><stop offset="1" stop-color="#ffffff" stop-opacity="0.67843"/></radialGradient><radialGradient cx="294.16682" cy="261.66094" r="13.54914" gradientUnits="userSpaceOnUse" id="color-22"><stop offset="0" stop-color="#ffffff"/><stop offset="1" stop-color="#ffffff" stop-opacity="0.67843"/></radialGradient><radialGradient cx="294.16682" cy="261.66094" r="13.54914" gradientUnits="userSpaceOnUse" id="color-23"><stop offset="0" stop-color="#ffffff"/><stop offset="1" stop-color="#ffffff" stop-opacity="0.67843"/></radialGradient><radialGradient cx="280.04482" cy="241.37924" r="4.77913" gradientUnits="userSpaceOnUse" id="color-24"><stop offset="0" stop-color="#ffffff"/><stop offset="1" stop-color="#ffffff" stop-opacity="0.67843"/></radialGradient><radialGradient cx="311.89452" cy="237.62335" r="3.41787" gradientUnits="userSpaceOnUse" id="color-25"><stop offset="0" stop-color="#ffffff"/><stop offset="1" stop-color="#ffffff" stop-opacity="0.67843"/></radialGradient><radialGradient cx="325.4157" cy="240.02715" r="3.94367" gradientUnits="userSpaceOnUse" id="color-26"><stop offset="0" stop-color="#ffffff"/><stop offset="1" stop-color="#ffffff" stop-opacity="0.67843"/></radialGradient><radialGradient cx="332.69768" cy="234.18135" r="2.30451" gradientUnits="userSpaceOnUse" id="color-27"><stop offset="0" stop-color="#ffffff"/><stop offset="1" stop-color="#ffffff" stop-opacity="0.67843"/></radialGradient><radialGradient cx="299.27487" cy="226.05528" r="2.36622" gradientUnits="userSpaceOnUse" id="color-28"><stop offset="0" stop-color="#ffffff"/><stop offset="1" stop-color="#ffffff" stop-opacity="0.67843"/></radialGradient><radialGradient cx="300.32651" cy="215.68911" r="3.11737" gradientUnits="userSpaceOnUse" id="color-29"><stop offset="0" stop-color="#ffffff"/><stop offset="1" stop-color="#ffffff" stop-opacity="0.67843"/></radialGradient><radialGradient cx="323.61291" cy="218.09286" r="2.37056" gradientUnits="userSpaceOnUse" id="color-30"><stop offset="0" stop-color="#ffffff"/><stop offset="1" stop-color="#ffffff" stop-opacity="0.67843"/></radialGradient><radialGradient cx="284.70211" cy="231.02613" r="2.89202" gradientUnits="userSpaceOnUse" id="color-31"><stop offset="0" stop-color="#ffffff"/><stop offset="1" stop-color="#ffffff" stop-opacity="0.67843"/></radialGradient><radialGradient cx="301.06404" cy="247.68757" r="3.65689" gradientUnits="userSpaceOnUse" id="color-32"><stop offset="0" stop-color="#ffffff"/><stop offset="1" stop-color="#ffffff" stop-opacity="0.67843"/></radialGradient><radialGradient cx="288.45794" cy="248.44028" r="2.74181" gradientUnits="userSpaceOnUse" id="color-33"><stop offset="0" stop-color="#ffffff"/><stop offset="1" stop-color="#ffffff" stop-opacity="0.67843"/></radialGradient><radialGradient cx="311.29364" cy="257.75485" r="1.91547" gradientUnits="userSpaceOnUse" id="color-34"><stop offset="0" stop-color="#ffffff"/><stop offset="1" stop-color="#ffffff" stop-opacity="0.67843"/></radialGradient><radialGradient cx="317.00256" cy="264.81588" r="2.28001" gradientUnits="userSpaceOnUse" id="color-35"><stop offset="0" stop-color="#ffffff"/><stop offset="1" stop-color="#ffffff" stop-opacity="0.67843"/></radialGradient><radialGradient cx="325.11519" cy="262.56234" r="2.17907" gradientUnits="userSpaceOnUse" id="color-36"><stop offset="0" stop-color="#ffffff"/><stop offset="1" stop-color="#ffffff" stop-opacity="0.67843"/></radialGradient><radialGradient cx="338.6363" cy="244.53418" r="5.14557" gradientUnits="userSpaceOnUse" id="color-37"><stop offset="0" stop-color="#ffffff"/><stop offset="1" stop-color="#ffffff" stop-opacity="0.67843"/></radialGradient><radialGradient cx="309.60685" cy="237.94142" r="29.75375" gradientUnits="userSpaceOnUse" id="color-38"><stop offset="0" stop-color="#5b92f1" stop-opacity="0.38039"/><stop offset="1" stop-color="#337be0" stop-opacity="0.12941"/></radialGradient><radialGradient cx="309.60685" cy="237.94142" r="30.47243" gradientUnits="userSpaceOnUse" id="color-39"><stop offset="0" stop-color="#3894ff" stop-opacity="0.28235"/><stop offset="1" stop-color="#3894ff" stop-opacity="0"/></radialGradient><radialGradient cx="309.60685" cy="237.94142" r="30.47243" gradientUnits="userSpaceOnUse" id="color-40"><stop offset="0" stop-color="#3894ff" stop-opacity="0.28235"/><stop offset="1" stop-color="#3894ff" stop-opacity="0"/></radialGradient><radialGradient cx="309.60685" cy="237.94142" r="30.47243" gradientUnits="userSpaceOnUse" id="color-41"><stop offset="0" stop-color="#3894ff" stop-opacity="0.28235"/><stop offset="1" stop-color="#3894ff" stop-opacity="0"/></radialGradient><radialGradient cx="309.60685" cy="237.94142" r="30.47243" gradientUnits="userSpaceOnUse" id="color-42"><stop offset="0" stop-color="#3894ff" stop-opacity="0.28235"/><stop offset="1" stop-color="#3894ff" stop-opacity="0"/></radialGradient><linearGradient x1="279.86789" y1="237.8562" x2="338.78601" y2="237.8562" gradientUnits="userSpaceOnUse" id="color-43"><stop offset="0" stop-color="#130a00"/><stop offset="1" stop-color="#130a00" stop-opacity="0"/></linearGradient><radialGradient cx="89.0851" cy="711.25" r="6.2205" gradientUnits="userSpaceOnUse" id="color-44"><stop offset="0" stop-color="#7d94ff"/><stop offset="1" stop-color="#7d94ff" stop-opacity="0"/></radialGradient><radialGradient cx="89.0851" cy="711.25" r="6.2205" gradientUnits="userSpaceOnUse" id="color-45"><stop offset="0" stop-color="#7d94ff"/><stop offset="1" stop-color="#7d94ff" stop-opacity="0"/></radialGradient><radialGradient cx="77.93346" cy="711.33811" r="5.48195" gradientUnits="userSpaceOnUse" id="color-46"><stop offset="0" stop-color="#3894ff" stop-opacity="0.28235"/><stop offset="1" stop-color="#3894ff" stop-opacity="0"/></radialGradient><radialGradient cx="77.93346" cy="711.33811" r="5.48195" gradientUnits="userSpaceOnUse" id="color-47"><stop offset="0" stop-color="#3894ff" stop-opacity="0.28235"/><stop offset="1" stop-color="#3894ff" stop-opacity="0"/></radialGradient></defs><g transform="translate(-269.7193,-160.0288)"><g data-paper-data="{&quot;isPaintingLayer&quot;:true}" fill-rule="nonzero" stroke-linecap="butt" stroke-linejoin="miter" stroke-miterlimit="10" stroke-dasharray="" stroke-dashoffset="0" style="mix-blend-mode: normal"><path d="M271.73214,275.57656v-75.23442h76.66066v75.23442z" fill="#0a0a0a" stroke="url(#color-1)" stroke-width="3.5"/><text transform="translate(270.03135,187.4892) scale(0.6241,0.6241)" font-size="40" xml:space="preserve" fill="#ffffff" fill-rule="nonzero" stroke="none" stroke-width="1" stroke-linecap="butt" stroke-linejoin="miter" stroke-miterlimit="10" stroke-dasharray="" stroke-dashoffset="0" font-family="Malgun Gothic" font-weight="normal" text-anchor="start" style="mix-blend-mode: normal"><tspan x="0" dy="0">Terrestrial</tspan></text><text transform="translate(354.45435,215.62294) scale(0.45565,0.45565)" font-size="40" xml:space="preserve" fill="#d8d8d8" fill-rule="nonzero" stroke="none" stroke-width="1" stroke-linecap="butt" stroke-linejoin="miter" stroke-miterlimit="10" stroke-dasharray="" stroke-dashoffset="0" font-family="Malgun Gothic" font-weight="normal" text-anchor="start" style="mix-blend-mode: normal"><tspan x="0" dy="0">Common Resources:</tspan></text><text transform="translate(354.45435,256.62748) scale(0.45566,0.45566)" font-size="40" xml:space="preserve" fill="#d8d8d8" fill-rule="nonzero" stroke="none" stroke-width="1" stroke-linecap="butt" stroke-linejoin="miter" stroke-miterlimit="10" stroke-dasharray="" stroke-dashoffset="0" font-family="Malgun Gothic" font-weight="normal" text-anchor="start" style="mix-blend-mode: normal"><tspan x="0" dy="0">Rare Resources:</tspan></text><text transform="translate(271.38373,318.32071) scale(0.45566,0.45566)" font-size="40" xml:space="preserve" fill="#d8d8d8" fill-rule="nonzero" stroke="none" stroke-width="1" stroke-linecap="butt" stroke-linejoin="miter" stroke-miterlimit="10" stroke-dasharray="" stroke-dashoffset="0" font-family="Malgun Gothic" font-weight="normal" text-anchor="start" style="mix-blend-mode: normal"><tspan x="0" dy="0">Has water:</tspan></text><text transform="translate(271.38373,296.92705) scale(0.45566,0.45566)" font-size="40" xml:space="preserve" fill="#d8d8d8" fill-rule="nonzero" stroke="none" stroke-width="1" stroke-linecap="butt" stroke-linejoin="miter" stroke-miterlimit="10" stroke-dasharray="" stroke-dashoffset="0" font-family="Malgun Gothic" font-weight="normal" text-anchor="start" style="mix-blend-mode: normal"><tspan x="0" dy="0">Has fossil fuels:</tspan></text><text transform="translate(355.17562,233.72207) scale(0.37382,0.37382)" font-size="40" xml:space="preserve" fill="#9f9f9f" fill-rule="nonzero" stroke="none" stroke-width="1" stroke-linecap="butt" stroke-linejoin="miter" stroke-miterlimit="10" stroke-dasharray="" stroke-dashoffset="0" font-family="Malgun Gothic" font-weight="normal" text-anchor="start" style="mix-blend-mode: normal"><tspan x="0" dy="0">Stone, Iron, Copper</tspan></text><text transform="translate(355.17562,275.43973) scale(0.37383,0.37383)" font-size="40" xml:space="preserve" fill="#9f9f9f" fill-rule="nonzero" stroke="none" stroke-width="1" stroke-linecap="butt" stroke-linejoin="miter" stroke-miterlimit="10" stroke-dasharray="" stroke-dashoffset="0" font-family="Malgun Gothic" font-weight="normal" text-anchor="start" style="mix-blend-mode: normal"><tspan x="0" dy="0">Aluminum, Titanium, Gold</tspan></text><text transform="translate(401.89328,297.19811) scale(0.37383,0.37383)" font-size="40" xml:space="preserve" fill="#9f9f9f" fill-rule="nonzero" stroke="none" stroke-width="1" stroke-linecap="butt" stroke-linejoin="miter" stroke-miterlimit="10" stroke-dasharray="" stroke-dashoffset="0" font-family="Malgun Gothic" font-weight="normal" text-anchor="start" style="mix-blend-mode: normal"><tspan x="0" dy="0">True</tspan></text><text transform="translate(361.25344,318.59993) scale(0.37383,0.37383)" font-size="40" xml:space="preserve" fill="#9f9f9f" fill-rule="nonzero" stroke="none" stroke-width="1" stroke-linecap="butt" stroke-linejoin="miter" stroke-miterlimit="10" stroke-dasharray="" stroke-dashoffset="0" font-family="Malgun Gothic" font-weight="normal" text-anchor="start" style="mix-blend-mode: normal"><tspan x="0" dy="0">True</tspan></text><text transform="translate(271.38373,340.67705) scale(0.45566,0.45566)" font-size="40" xml:space="preserve" fill="#d8d8d8" fill-rule="nonzero" stroke="none" stroke-width="1" stroke-linecap="butt" stroke-linejoin="miter" stroke-miterlimit="10" stroke-dasharray="" stroke-dashoffset="0" font-family="Malgun Gothic" font-weight="normal" text-anchor="start" style="mix-blend-mode: normal"><tspan x="0" dy="0">Wind data:</tspan></text><text transform="translate(364.50344,340.84993) scale(0.37383,0.37383)" font-size="40" xml:space="preserve" fill="#9f9f9f" fill-rule="nonzero" stroke="none" stroke-width="1" stroke-linecap="butt" stroke-linejoin="miter" stroke-miterlimit="10" stroke-dasharray="" stroke-dashoffset="0" font-family="Malgun Gothic" font-weight="normal" text-anchor="start" style="mix-blend-mode: normal"><tspan x="0" dy="0">FRQ: 7/10, STR: 2/5</tspan></text><g stroke="none" stroke-width="0.5"><g><path d="M312.6106,276.05866c-9.19619,0 -17.09228,-3.95745 -22.80789,-10.41174c0.0029,0 0.00589,0 0.00878,0c0.09271,0 0.18322,-0.00905 0.27083,-0.02634c0.05109,0.02535 0.10244,0.05041 0.1542,0.07538c1.23686,1.48156 3.9515,2.76367 6.20009,3.36568c0.24414,0.22613 0.56966,0.36569 0.92769,0.36988c0.18511,0.55003 0.70496,0.94625 1.31747,0.94625c0.76748,0 1.38966,-0.62218 1.38966,-1.38967c0,-0.43936 -0.20389,-0.83114 -0.52224,-1.08572c-0.04026,-0.05136 -0.08355,-0.10412 -0.13001,-0.15837l-0.0602,-0.00334c-0.39272,-0.43202 -1.92331,-1.567 -3.64116,-2.64848c-2.13921,-1.6124 -5.13506,-3.78335 -6.80487,-4.46679c-0.37144,-0.397 -0.76649,-0.76738 -1.11908,-1.09829c-0.07511,-0.07054 -0.14898,-0.13952 -0.22146,-0.207c-0.0278,-0.06943 -0.06243,-0.14281 -0.10428,-0.22035c-0.08378,-0.25982 -0.24197,-0.48628 -0.44947,-0.65414c-0.03219,-0.03974 -0.06565,-0.08028 -0.10045,-0.12146c-0.05291,-0.09226 -0.11608,-0.17793 -0.18794,-0.25536c-0.09655,-0.13246 -0.20622,-0.26821 -0.3269,-0.40479c0.13157,0.07511 -0.2309,-0.33391 -0.79305,-0.93086c-0.16793,-0.20907 -0.32725,-0.40695 -0.47833,-0.59423c-0.30673,-0.40689 -0.58582,-0.776 -0.83902,-1.10968c-0.0368,-0.31957 -0.182,-0.60607 -0.39785,-0.82197v0l-0.009,-0.00901c-0.08749,-0.11662 -0.17338,-0.23112 -0.2577,-0.34352c-0.51178,-1.11295 -1.19617,-2.38452 -1.91836,-3.38841c-0.18282,-0.65153 -0.35143,-1.31106 -0.50551,-1.97816c-0.30029,-1.69289 -0.47004,-2.51853 -0.54636,-2.75662c-0.41784,-2.51486 -0.63486,-5.12044 -0.63486,-7.79015c0,-4.13154 0.51963,-8.10957 1.49923,-11.83517c2.15394,-2.52859 4.60981,-8.50446 4.46367,-9.85539c0.2015,-0.58149 0.34915,-1.09328 0.42941,-1.50172c5.75497,-9.07501 15.01412,-14.92502 26.19502,-14.92502c19.09686,0 34.57781,17.06578 34.57781,38.1173c0,21.05163 -15.48106,38.11729 -34.57781,38.11729z" data-paper-data="{&quot;index&quot;:null}" fill="url(#color-2)"/><path d="" data-paper-data="{&quot;index&quot;:null}" fill="url(#color-3)"/><path d="M284.47109,255.7087c0.19894,0.25747 0.40023,0.51495 0.59505,0.76081c-0.19711,-0.14042 -0.4004,-0.27182 -0.60635,-0.39016v-0.06164c-0.00257,-0.01022 -0.00523,-0.02062 -0.00795,-0.03119c-0.01562,-0.14586 -0.05376,-0.285 -0.11095,-0.41379c0.04269,0.04459 0.08605,0.08988 0.1302,0.13591z" data-paper-data="{&quot;index&quot;:null}" fill="url(#color-4)"/><path d="" data-paper-data="{&quot;index&quot;:null}" fill="url(#color-5)"/><path d="M312.64878,274.16119c-5.33756,0 -10.25038,-1.40589 -14.52517,-3.90014c0.17081,0.07499 0.35966,0.11662 0.55815,0.11662c0.76748,0 1.38966,-0.62218 1.38966,-1.38967c0,-0.43936 -0.20389,-0.83115 -0.52224,-1.08572c-0.04026,-0.05136 -0.08355,-0.10411 -0.13001,-0.15837l-0.0602,-0.00334c-0.39272,-0.43202 -1.92331,-1.567 -3.64116,-2.6485c-2.13921,-1.6124 -5.13506,-3.78335 -6.80487,-4.46679c-0.37144,-0.397 -0.76649,-0.76737 -1.11908,-1.09828c-0.07511,-0.07054 -0.14892,-0.13953 -0.22146,-0.20701c-0.0278,-0.06943 -0.06248,-0.1428 -0.10428,-0.22034c-0.08378,-0.25982 -0.24197,-0.48629 -0.44947,-0.65416c-0.03219,-0.03974 -0.06565,-0.08027 -0.10045,-0.12145c-0.05286,-0.09226 -0.11608,-0.17793 -0.18794,-0.25537c-0.09655,-0.13246 -0.20622,-0.26821 -0.3269,-0.40479c0.12367,0.07054 -0.18972,-0.28716 -0.69522,-0.82668c-2.81104,-5.48203 -4.38825,-11.92609 -4.38825,-18.82104c0,-19.96236 13.22044,-36.14501 31.32903,-36.14501c18.1087,0 32.78868,16.18278 32.78868,36.14502c0,19.96235 -14.6801,36.14501 -32.78868,36.14501z" data-paper-data="{&quot;index&quot;:null}" fill="url(#color-6)"/><path d="M297.83739,270.09191c-0.59111,-0.35398 -1.16976,-0.72891 -1.73531,-1.12392c0.1125,0.03279 0.22401,0.06398 0.33451,0.09356c0.24414,0.22613 0.56966,0.3657 0.9277,0.36987c0.08911,0.26482 0.2558,0.49401 0.47315,0.66048z" data-paper-data="{&quot;index&quot;:null}" fill="url(#color-7)"/><path d="M312.72516,272.21966c-4.58386,0 -8.85955,-1.09573 -12.66397,-3.06261c0.00673,-0.05542 0.01016,-0.11184 0.01016,-0.16903c0,-0.43936 -0.20389,-0.83115 -0.52224,-1.08572c-0.04026,-0.05136 -0.08354,-0.10411 -0.13001,-0.15837l-0.0602,-0.00334c-0.39272,-0.43202 -1.92332,-1.567 -3.64117,-2.6485c-1.44431,-1.08862 -3.27912,-2.43187 -4.83266,-3.40002c-5.09015,-6.14518 -8.12568,-14.48744 -8.12568,-23.67583c0,-18.89007 12.82989,-34.20349 29.96581,-34.20349c17.13598,0 31.02741,15.31346 31.02741,34.20349c0,18.89007 -13.89143,34.20347 -31.02741,34.20347z" data-paper-data="{&quot;index&quot;:null}" fill="url(#color-8)"/></g><path d="M309.69512,266.97542c-16.03509,0 -29.03406,-12.99904 -29.03406,-29.03406c0,-16.03509 12.99904,-29.03406 29.03407,-29.03406c16.03509,0 29.03407,12.99904 29.03407,29.03407c0,16.03509 -12.99904,29.03407 -29.03407,29.03407z" data-paper-data="{&quot;index&quot;:null}" fill="url(#color-9)"/><path d="M312.58859,211.73232c-0.42453,0.42451 -0.84905,0.48221 -1.19429,0.41084c-0.65375,0.83903 -1.68016,0.32585 -1.68016,0.32585l0.15041,-0.02057c-1.82142,-0.23108 -6.02212,1.2332 -9.16928,1.79752c-0.82803,0.30256 -1.67805,0.61541 -2.55143,0.99239c-0.57994,0.44726 -1.08046,0.98839 -1.46334,1.65377c-0.50201,8.03885 23.73492,-1.1746 14.60995,18.21597c-5.08169,10.4107 -20.37091,12.29319 -22.03212,-2.36866c0.01606,-6.79766 -1.92841,-15.28782 4.38608,-19.78179c0.13696,-0.19094 0.32112,-0.34575 0.53542,-0.44731l1.56093,-0.7805l0.12257,0.24514l-0.00477,-0.03079c0.16942,-0.03057 0.33992,-0.05275 0.51117,-0.0671c4.2371,-2.7252 9.92932,-3.5316 14.9133,-2.9849l1.30557,0.87488c0,0 0.98266,0.98267 0,1.96533z" fill="url(#color-10)"/><path d="M317.93804,229.4056c-1.04893,-0.26226 -1.07772,-1.13652 -1.03886,-1.51173c-0.49545,-0.53241 -0.28238,-1.31357 -0.28238,-1.31357c1.03025,-3.74111 -2.31714,-3.42731 -1.7859,-6.7852c0.84765,-5.35802 9.49023,-2.08356 10.46628,1.59401c0.97188,3.66173 -4.049,3.44538 -5.62039,6.65475l-0.05359,0.35075c0,0 -0.33702,1.34815 -1.68522,1.01113z" fill="url(#color-11)"/><path d="M318.05933,241.57006c-8.84553,0.19799 -1.08822,-10.57652 3.23871,-11.8032c9.54699,-2.70658 1.5899,9.72175 -0.58199,11.45561l-0.93214,0.57104c0,0 -1.00657,0.60394 -1.72458,-0.22346z" fill="#9dbe7c"/><path d="M298.92617,258.15457c1.74897,-3.36133 6.98771,-6.11377 12.81861,-5.527c3.26427,1.95405 8.31741,1.35299 10.87329,3.38864c10.27188,8.18111 -10.00758,11.49854 -14.74107,11.53816c-5.29265,-0.58056 -8.69285,-2.21859 -13.26798,-4.75957l-1.22313,-0.61158c-0.47004,-0.22285 -0.79512,-0.70166 -0.79512,-1.25643c0,-0.72607 0.55681,-1.32203 1.26672,-1.38429l1.5726,-0.15725l0.03491,0.34876c0.95843,-0.28476 1.9078,-0.60251 2.65032,-1.0731c0.13914,-0.17566 0.27143,-0.27488 0.27143,-0.27488l0.06248,0.04126c0.1547,-0.11995 0.29672,-0.24898 0.42379,-0.38856zM298.41044,261.6959c0.02279,0.0119 0.04558,0.02374 0.06837,0.03558c-0.00578,-0.02017 -0.0115,-0.04035 -0.01702,-0.06059c-0.01712,0.00844 -0.03423,0.01673 -0.05136,0.02501z" fill="url(#color-12)"/><path d="M280.91164,237.93925c0,0 0.43948,-1.31835 1.75782,-0.87888c0.97149,0.32386 0.98844,1.12491 0.93013,1.52403c0.06052,0.0508 0.11668,0.10673 0.16776,0.16708l0.94686,1.10468c0.74315,0.89372 1.32109,1.94488 1.70402,3.04233c0.60729,2.30534 2.31168,3.55039 2.74026,5.89126c0.5522,3.0162 -0.03058,4.20026 -1.10841,4.15272c0.07532,0.26716 0.06332,0.59511 -0.13101,0.98383c-0.0299,0.05976 -0.06121,0.11529 -0.09378,0.16671c-0.19283,0.53591 -0.70567,0.91908 -1.30795,0.91908c-0.62513,0 -1.15387,-0.41274 -1.32853,-0.98061l-0.02946,-0.0885l-0.65076,-0.43963c-0.82686,-1.50029 -2.31691,-3.79019 -2.15565,-5.50355c-0.10188,-0.20001 -0.20461,-0.39278 -0.30951,-0.57443l-0.00783,0.00288l-0.01596,-0.0438c-0.03112,-0.05326 -0.06248,-0.10546 -0.09404,-0.15659l0.00777,-0.08059l-0.03079,-0.08477l-0.03819,0.01273l-0.46608,-1.39828c-0.0528,-0.14685 -0.0816,-0.30524 -0.0816,-0.47027c0,-0.12134 0.01551,-0.23906 0.0448,-0.35124c-0.81651,-2.29029 -1.12941,-4.74868 -0.44986,-6.91612z" fill="url(#color-13)"/><path d="M338.71108,233.46351c0.02741,5.22311 -0.02023,10.07223 -1.72086,15.05314c-8.9203,13.38048 -7.54698,-13.81978 -1.50858,-17.66784c0,0 0.76238,-0.47644 1.44398,-0.04981c0.02863,-0.00178 0.05743,-0.00261 0.0865,-0.00261c0.67343,0 1.23498,0.47904 1.3625,1.11496l0.31162,1.4024l-0.0472,0.01046zM332.29985,248.92216c0.11301,0.26032 0.30234,0.34463 0.5816,0.20556c-0.21207,-0.02445 -0.40962,-0.09667 -0.5816,-0.20556z" fill="url(#color-14)"/><g><path d="M295.71081,243.22561c-0.12452,-0.03702 -0.21512,-0.09249 -0.28032,-0.15697c-1.02185,-0.46932 -8.7144,-7.76443 -8.63425,-8.02374c0.20116,-0.65086 1.74926,-1.07722 2.30063,-1.36344c1.29956,-0.09867 3.33038,0.28861 4.52671,-0.27049c1.23603,-0.57772 1.6447,-2.98657 3.22298,-2.99546c2.7959,-0.01578 2.29674,5.31033 3.89519,5.79188c5.02477,1.56972 -3.1982,4.52433 -4.27263,6.58782l0.0079,0.01523c0,0 -0.17548,0.59073 -0.7662,0.41523z" fill="url(#color-15)"/><path d="M321.25914,258.94869c-0.00589,0.02969 -0.01317,0.06014 -0.02191,0.09144c-0.23919,0.85793 -1.09717,0.61879 -1.09717,0.61879c-3.76939,-1.05398 -2.0671,-3.83405 -2.92925,-4.50876c-4.93505,-3.86228 -10.71387,-1.91887 -6.14252,-10.31193c5.17609,-5.19631 4.19782,2.0709 5.80672,3.64456c0.87221,0.85309 2.59679,0.11152 3.65506,0.80329c1.39273,0.91052 3.48206,6.03801 6.09287,2.10885c1.50557,-7.92273 7.48861,-0.66586 5.17998,4.34178c-1.92658,4.17897 -7.4697,1.69511 -10.54382,3.21197z" fill="url(#color-16)"/><path d="M311.68602,221.17686c1.93254,-0.16098 4.41789,-1.80462 6.14486,-1.29261c1.88346,0.55842 2.0059,3.61437 3.12693,5.05395l0.25302,0.07694c0,0 0.24114,0.1447 0.38272,0.40785c2.09746,1.26722 3.74873,2.6083 4.05673,3.64399c1.26444,4.25195 -3.18135,5.93246 -6.15302,3.67545c-0.92741,-0.87282 -1.76877,-0.85732 -2.97951,-0.50201l-0.68132,0.52935c0,0 -0.53102,0.39828 -1.03887,0.08638c-5.4524,1.73425 -17.6685,-11.21636 -3.76512,-11.36855c0.25903,-0.27783 0.65364,-0.31067 0.65364,-0.31067z" fill="url(#color-17)"/><path d="M338.57282,229.29894l0.37071,-0.07943l0.44452,2.07438c0.02424,0.10273 0.03702,0.20994 0.03702,0.32006c0,0.76749 -0.62218,1.38968 -1.38967,1.38968c-0.41985,0 -0.79622,-0.18615 -1.05104,-0.48043l-1.04648,-1.19601c-2.83221,-3.23916 -9.27016,-5.56302 -6.87109,-10.04265c-0.89845,-1.18261 -1.57144,-2.38807 -1.74959,-3.63755c-0.25258,-0.24207 -0.50068,-0.45653 -0.7432,-0.63847l-0.05003,-0.14836l-0.05085,0.04447l-1.0472,-1.19683c-0.21674,-0.24508 -0.34831,-0.56727 -0.34831,-0.92014c0,-0.76749 0.62218,-1.38968 1.38967,-1.38968c0.35942,0 0.68694,0.13642 0.93363,0.36026l1.4984,1.34855l-0.10312,0.11457c5.14206,3.90492 9.02336,8.02663 9.77656,14.07754z" fill="url(#color-18)"/><path d="M287.22487,217.57223c0.04003,-0.05415 0.08049,-0.10844 0.1214,-0.16297c0,0 0.17877,-0.23836 0.4811,-0.41156c0.13196,-0.25165 0.3388,-0.45787 0.59089,-0.58911l1.62775,-0.8879l0.0831,0.15231c0.42224,-0.37983 0.87065,-0.72552 1.35614,-1.01718l0.38217,-0.2388c0.5045,-0.37077 1.00779,-0.67656 1.48532,-0.8607c0.19628,-0.31862 0.45231,-0.64164 0.78267,-0.96865l0.19761,-0.02168l-0.03647,-0.07292l1.47733,-0.7387c0.19311,-0.10167 0.41307,-0.15919 0.64648,-0.15919c0.76748,0 1.38967,0.62218 1.38967,1.38967c0,0.41985 -0.18615,0.79622 -0.48043,1.05104l-1.19601,1.04648l-0.24369,-0.27854l-0.15603,0.07804c-0.19639,0.22213 -0.39822,0.43724 -0.6049,0.64686c-0.88678,1.7243 1.47472,4.5718 -0.8954,7.01657c-4.70248,4.85051 -9.05199,5.48025 -9.9202,2.91758l-0.09566,0.14352c-0.24742,0.38316 -0.67821,0.63675 -1.16826,0.63675c-0.45242,0 -0.85442,-0.21624 -1.10817,-0.55098c1.24648,-1.60869 2.55171,-4.23793 3.36873,-6.36692c0.50574,-0.52191 1.09201,-1.06371 1.77394,-1.66988z" fill="url(#color-19)"/><path d="M305.43451,212.17947c0,0 -1.38968,0 -1.38968,-1.22708c0,-0.04991 0.00234,-0.09788 0.00673,-0.14386c-0.00444,-0.03997 -0.00673,-0.08049 -0.00673,-0.12145c0,-0.60322 0.49284,-1.10473 1.14237,-1.20773l1.47711,-0.26086l0.07949,0.35102l0.28083,0.02479c0.15526,0.00095 0.31111,0.00233 0.46753,0.00422c1.11408,-0.13768 2.19824,-0.05114 3.38725,0.13152c3.07679,0.21362 6.2001,0.72186 8.94186,1.82452l0.10089,-0.32668l1.62347,0.39099c0.60489,0.13285 1.05314,0.61562 1.05314,1.1909c0,0.67771 -0.62219,1.22708 -1.38967,1.22708h-1.07877c-0.25403,0.24458 -0.61902,0.39801 -1.02447,0.39801h-1.6526c-0.71568,-0.01752 -1.45509,-0.04343 -2.20162,-0.09012c-0.35832,0.01228 -0.74525,0.0323 -1.15804,0.10129c-0.06158,0.04186 -0.12719,0.07921 -0.19633,0.11162l-1.1034,0.54125c-0.26803,1.07677 -1.54654,0.91553 -1.54654,0.91553l-1.77022,-0.42397c-0.1169,-0.09062 -0.22801,-0.19466 -0.33018,-0.30867c-0.56037,-0.1697 -1.10196,-0.37521 -1.51725,-0.5233l-0.07721,-0.47132l-0.22813,0.09161l-0.73875,-1.43531c-0.08771,-0.16087 -0.13691,-0.34124 -0.13691,-0.53174c0,-0.07176 0.00701,-0.14214 0.0204,-0.21057c-0.39222,-0.0169 -0.74075,-0.02451 -1.03447,-0.02156z" fill="url(#color-20)"/><path d="M301.88034,254.49368c0.67454,0.7248 0.81891,1.58933 0.88121,2.45498c0.0159,0.00846 0.03163,0.01723 0.04714,0.02641l1.31673,0.7387l-0.10039,0.22524c0.22302,0.10712 0.42951,0.22902 0.6329,0.37432c0.78956,0.39333 1.52025,1.07083 2.07361,1.88356l0.04764,0.02378l0.92446,-0.31117l0.0976,0.36515c1.74872,-0.188 3.41315,-0.1179 3.78247,1.877c0.93975,5.07653 -4.04595,3.281 -6.24475,2.13019c-0.62336,1.06277 -2.17444,1.74482 -4.98037,1.74282c-0.31245,0.55331 -0.94887,0.62468 -0.94887,0.62468c-0.34564,0.03736 -0.77999,0.00344 -1.26593,-0.09c-0.64063,-0.46727 -1.43898,-1.01112 -2.28241,-1.54214c-1.26721,-0.95515 -2.83504,-2.10631 -4.24971,-3.0281c-0.06782,-0.83452 0.48872,-1.66471 2.02058,-2.37973c2.18273,-1.0188 -3.91059,-0.39127 -6.83485,-1.71752c-0.07682,-0.09983 -0.16064,-0.20106 -0.25053,-0.30278c0.13151,0.07504 -0.23091,-0.33391 -0.79305,-0.93085c-0.16793,-0.20907 -0.32724,-0.40696 -0.47833,-0.59423c-0.15019,-0.19923 -0.29372,-0.38933 -0.43091,-0.57076c-1.42296,-3.86151 3.77251,-3.57412 6.27382,-3.33477c1.55799,-0.13986 3.30786,0.25536 5.03956,0.99077c2.07139,-0.04819 4.32672,-0.1552 5.72222,1.34438z" fill="url(#color-21)"/><path d="" fill="url(#color-22)"/><path d="" fill="url(#color-23)"/><path d="M280.41064,243.93324c0,-0.23146 0.04914,-0.4497 0.13602,-0.64164c-0.12874,-0.11228 -0.22646,-0.24192 -0.29305,-0.34602c-0.10611,-0.95036 -0.32363,-2.0093 -0.4387,-2.6122c0.15852,-1.14048 0.18711,-2.38696 0.005,-3.51254c0.10901,-0.19828 0.171,-0.42613 0.171,-0.66843c0,-0.10573 -0.01179,-0.20867 -0.03419,-0.30761c1.12497,-0.41023 1.50096,0.8885 1.50096,0.8885c0.25086,0.8825 0.39822,1.72342 0.50445,2.58141c0.03269,-0.03329 0.06781,-0.06626 0.10544,-0.09879c0.96544,-0.83381 1.68951,0.27794 1.68951,0.27794l0.44931,0.69822c0.21746,0.40061 0.43484,0.8013 0.6523,1.20191c0,0 0.63965,1.17844 -0.38377,1.91496c-0.12396,0.08921 -0.24232,0.1503 -0.35453,0.18882c-0.07098,0.6895 -0.58043,1.2243 -1.19834,1.2243c-0.09922,0 -0.19566,-0.01378 -0.28794,-0.03979c-0.2145,0.38533 -0.58971,0.64069 -1.01673,0.64069c-0.66654,0 -1.20685,-0.62219 -1.20685,-1.38967z" fill="url(#color-24)"/><path d="M310.99319,240.06467c-0.40834,0 -0.77555,-0.1761 -1.02987,-0.45654c-0.44531,-0.0408 -0.82974,-0.29166 -1.05354,-0.65259c-0.39522,-0.24502 -0.65842,-0.68272 -0.65842,-1.18194c0,-0.76749 0.62218,-1.38966 1.38967,-1.38966c0.49923,0 0.93692,0.2632 1.18194,0.65842c0.1109,0.0687 0.2114,0.15264 0.29862,0.24885c0.30562,0.02795 0.58266,0.15493 0.79867,0.34853c0.06325,-0.03879 0.12985,-0.0727 0.19928,-0.10111c-0.34159,-0.2532 -0.56304,-0.65931 -0.56304,-1.11712c0,-0.76749 0.62219,-1.38968 1.38966,-1.38968c0.76748,0 1.38968,0.62219 1.38968,1.38968c0,0.58127 -0.35693,1.07922 -0.86354,1.28661c0.12413,0.09201 0.23241,0.20412 0.3199,0.33163c0.72324,0.04875 1.29478,0.65086 1.29478,1.38649c0,0.76749 -0.62219,1.38967 -1.38967,1.38967c-0.47593,0 -0.89605,-0.23931 -1.14648,-0.60412c-0.3189,-0.02145 -0.60829,-0.15053 -0.83225,-0.35126c-0.21116,0.12951 -0.45965,0.20417 -0.72552,0.20417z" fill="url(#color-25)"/><path d="M322.82168,242.76892c-0.74236,0 -1.34615,-0.60446 -1.36333,-1.35676c-0.43814,-0.23118 -0.73753,-0.69739 -0.73753,-1.23486c0,-0.76749 0.6105,-1.38968 1.36365,-1.38968c0.26015,0 0.50329,0.07427 0.71013,0.20307c0.2333,-0.26064 0.50518,-0.38378 0.50518,-0.38378c1.16337,-0.48122 2.50495,-0.58945 3.74633,-0.39784l0.19833,-0.0224c0,0 1.36365,0 1.36365,1.38967c0,0.79695 -0.44846,1.13686 -0.83101,1.28183c0.24052,0.25053 0.38877,0.59345 0.38877,0.97167c0,0.76749 -0.6105,1.38968 -1.36365,1.38968c-0.56182,0 -1.04425,-0.34614 -1.25314,-0.84059c-0.20889,0.49444 -0.69133,0.84059 -1.25315,0.84059c-0.42825,0 -0.81041,-0.20118 -1.06043,-0.51586c-0.13052,0.0423 -0.2696,0.06514 -0.41384,0.06514z" fill="url(#color-26)"/><path d="M333.69403,231.87689c0.67604,0 1.22407,0.62219 1.22407,1.38968c0,0.62313 -0.36125,1.15041 -0.85893,1.3268c0.13518,0.3611 0.17205,0.85921 -0.23791,1.39113c-0.80607,1.04581 -1.72719,0.13073 -1.72719,0.13073c-0.35286,-0.35054 -0.70572,-0.70106 -1.05865,-1.05159l-0.42112,-0.72486c0,0 -0.54743,-1.24292 0.54742,-1.86444c0.67793,-0.38483 1.14592,-0.05474 1.40407,0.25237c0.18561,-0.49933 0.62084,-0.84976 1.12824,-0.84976z" fill="url(#color-27)"/><path d="M299.83341,224.96611c0.65091,0 1.184,0.54692 1.22986,1.2401c0.46893,0.18928 0.80306,0.67916 0.80306,1.25365c0,0.73852 -0.55203,1.33725 -1.23308,1.33725c-0.53541,0 -0.99106,-0.36998 -1.1615,-0.88705c-0.20184,0.44008 -0.62068,0.74253 -1.10472,0.74253c-0.68105,0 -1.23307,-0.59872 -1.23307,-1.33725c0,-0.31656 0.10144,-0.60751 0.27098,-0.83652c0.0532,-0.68534 0.58299,-1.22352 1.22869,-1.22352c0.12829,0 0.25198,0.02123 0.36826,0.06064c0.21928,-0.21729 0.51113,-0.34981 0.83152,-0.34981z" fill="url(#color-28)"/><path d="M302.19324,215.49223c0.73226,0 1.32574,0.46515 1.32574,1.03897c0,0.56755 -0.58071,1.02886 -1.30194,1.03887c-0.08739,0.5075 -0.64226,0.89872 -1.3138,0.89872c-0.46143,0 -0.86777,-0.18471 -1.10523,-0.46492c-0.2169,0.34214 -0.66742,0.57727 -1.188,0.57727c-0.73226,0 -1.3258,-0.46515 -1.3258,-1.03897c0,-0.50624 0.46204,-0.92798 1.0736,-1.02024c0.12318,-0.23574 0.31801,-0.38838 0.31801,-0.38838l0.01263,0.08805c0.19111,-0.33696 0.38221,-0.67392 0.57332,-1.01089c0,0 0.53842,-0.94949 1.74992,-0.52747c0.61329,0.21362 0.77816,0.56236 0.79145,0.8547c0.12329,-0.02973 0.25431,-0.04569 0.39011,-0.04569z" fill="url(#color-29)"/><path d="M324.06355,217.00369c0.76748,0 1.38966,0.54787 1.38966,1.22374c0,0.34631 -0.16331,0.65904 -0.42591,0.88166c-0.00128,0.16109 -0.04358,0.34135 -0.14458,0.54147c-0.00551,0.01084 -0.01101,0.02146 -0.01663,0.03202c0.08739,0.1602 0.13641,0.33975 0.13641,0.5293c0,0.67587 -0.62219,1.22375 -1.38968,1.22375c-0.75788,0 -1.3741,-0.53424 -1.38939,-1.19841c-0.06075,-0.10506 -0.10479,-0.2189 -0.12896,-0.3388c-0.13268,-0.05193 -0.26542,-0.10388 -0.39816,-0.15581l-0.8288,-0.83559c0,0 -0.62147,-1.09456 0.62151,-1.64181c0.71179,-0.3134 1.2198,-0.08839 1.52398,0.1612c0.25482,-0.25887 0.63097,-0.42269 1.05054,-0.42269z" fill="url(#color-30)"/><path d="M283.74801,233.15388c-0.205,0 -0.39701,-0.07041 -0.56149,-0.19321c-0.08739,0.02807 -0.17899,0.04296 -0.27331,0.04296c-0.60924,0 -1.10312,-0.62219 -1.10312,-1.38968c0,-0.7532 0.47559,-1.36644 1.06914,-1.38906c0.00412,-0.07466 0.01246,-0.15313 0.02552,-0.23556c0.21634,-1.36271 1.29807,-1.09012 1.29807,-1.09012l1.17254,0.29545c0.08038,0.01824 0.15781,0.04736 0.23114,0.08622c0.20112,-0.33924 0.5224,-0.55888 0.88439,-0.55888c0.60924,0 1.10317,0.62218 1.10317,1.38967c0,0.42141 -0.1489,0.79895 -0.38404,1.05382c-0.10967,0.62197 -0.55015,1.087 -1.07695,1.087c-0.03357,0 -0.06682,-0.00188 -0.0996,-0.00555c-0.04103,0.1821 -0.12095,0.37437 -0.25536,0.57193c-0.63702,0.93625 -1.36827,0.32962 -1.52497,0.18111c-0.15136,0.09844 -0.32313,0.15398 -0.50523,0.15398z" fill="url(#color-31)"/><path d="M300.17626,245.78861c0.18421,0 0.36004,0.03296 0.5209,0.09288c0.21017,-0.46048 0.70495,-0.78389 1.28188,-0.78389c0.76748,0 1.38968,0.57238 1.38968,1.27845c0,0.20045 -0.05014,0.39005 -0.13947,0.55892c0.10906,0.0259 0.2129,0.06377 0.30985,0.11185c0.66888,0.09233 1.18177,0.62318 1.18177,1.26421c0,0.46025 -0.26438,0.86364 -0.66099,1.08877c-0.29062,0.98267 -1.46788,0.87438 -1.46788,0.87438c-1.00157,-0.09211 -2.00313,-0.18434 -3.0047,-0.27644l-1.38461,-0.54325c0,0 -1.24298,-0.57171 -0.62151,-1.71518c0.32173,-0.59195 0.80995,-0.72424 1.20618,-0.71412c0.02413,-0.68667 0.63669,-1.23647 1.38895,-1.23647z" fill="url(#color-32)"/><path d="M290.26079,250.28064c-0.41084,0 -0.77994,-0.17821 -1.03436,-0.4616c-0.18344,-0.0194 -0.30651,-0.06037 -0.30651,-0.06037l-1.32169,-0.44058c-0.56783,-0.17466 -0.98055,-0.7034 -0.98055,-1.32852c0,-0.6831 0.49284,-1.25109 1.14236,-1.36772l1.22947,-0.24586c0.2158,-0.48749 0.70384,-0.82769 1.27133,-0.82769c0.76748,0 1.38968,0.62219 1.38968,1.38967c0,0.05693 -0.00344,0.11307 -0.01006,0.16821c0.28289,0.25437 0.46076,0.62324 0.46076,1.03364c0,0.42141 -0.18755,0.79895 -0.48378,1.05382c-0.13813,0.62197 -0.69306,1.08701 -1.35661,1.08701z" fill="url(#color-33)"/><path d="M311.59409,255.76423c0.76748,0 1.38968,0.54275 1.38968,1.2123c0,0.11351 -0.0179,0.22341 -0.05131,0.32763c0.03346,0.10422 0.05131,0.21411 0.05131,0.32762c0,0.66949 -0.62219,1.2123 -1.38968,1.2123c-0.40562,0 -0.77066,-0.15159 -1.02469,-0.39339c-0.00896,0.00011 -0.01796,0.00023 -0.02696,0.00023c-0.76748,0 -1.38968,-0.54275 -1.38968,-1.21229c0,-0.66949 0.62219,-1.21229 1.38968,-1.21229c0.05925,0 0.11762,0.00322 0.17499,0.0095c0.23913,-0.16982 0.5443,-0.27165 0.87671,-0.27165z" fill="url(#color-34)"/><path d="M318.7654,263.98919c0.10188,0.57766 -0.4282,1.15404 -1.18401,1.28739c-0.33974,0.05993 -0.66726,0.02011 -0.93419,-0.09429c-0.22557,0.2015 -0.95508,0.7422 -1.863,0.27187c-1.09818,-0.56889 -0.26099,-1.47921 -0.26099,-1.47921l0.31351,-0.30667c0.17438,-0.1314 0.3488,-0.26287 0.52312,-0.39434c-0.07682,-0.56659 0.44742,-1.12402 1.18907,-1.25486c0.74454,-0.13135 1.43036,0.21618 1.54809,0.77877c0.21402,0.20716 0.284,0.41534 0.27571,0.60617c0.20707,0.14492 0.35042,0.34642 0.3926,0.58506z" fill="url(#color-35)"/><path d="M323.26015,261.48317c-0.1896,-0.63198 0.25264,-1.32303 0.98777,-1.5436c0.73514,-0.22051 1.48478,0.11301 1.67433,0.74493c0.07839,0.26126 0.0488,0.53257 -0.06482,0.77659c0.12302,0.11979 0.22585,0.283 0.29206,0.50357c0.34331,1.14425 -0.98777,1.54358 -0.98777,1.54358c-0.47966,0.14386 -1.10323,0.33097 -1.5829,0.47489c0,0 -1.33109,0.39933 -1.67433,-0.74493c-0.34331,-1.14425 0.98778,-1.54353 0.98778,-1.54353c0.13335,-0.03997 0.26664,-0.08005 0.39999,-0.12002c-0.01201,-0.02974 -0.02274,-0.06025 -0.03213,-0.09149z" fill="url(#color-36)"/><path d="M338.18566,239.83932c1.38968,0 1.38968,1.38968 1.38968,1.38968l-0.00689,0.2885c-0.16481,1.56688 -0.26776,4.0337 -1.26866,5.2032c-0.0254,0.24291 -0.05782,0.496 -0.09773,0.75965l-0.02034,0.02763l0.01457,0.00294l-0.29545,1.47711c-0.11662,0.64953 -0.6846,1.14237 -1.36771,1.14237c-0.76748,0 -1.38968,-0.62219 -1.38968,-1.38968c0,-0.09438 0.00939,-0.18648 0.02735,-0.27554l0.29556,-1.62559l0.02067,0.00379c0.03724,-0.28471 0.06248,-0.60667 0.09083,-0.93587c-0.05237,-0.02629 -0.08171,-0.04464 -0.08171,-0.04464c-2.80376,-2.15626 -0.53397,-4.75167 1.25215,-4.10691c0.01979,-0.16692 0.03807,-0.33841 0.05464,-0.51496l-0.00689,-0.01196c0,0 0,-1.38968 1.38966,-1.38968z" fill="url(#color-37)"/></g><g><path d="M309.60685,268.62436c-5.0872,0 -9.87612,-1.31658 -14.06403,-3.63734c-1.55172,-1.1795 -3.54668,-2.6485 -5.14897,-3.61636c-6.44752,-5.62828 -10.54076,-14.03579 -10.54076,-23.42925c0,-16.94577 13.32128,-30.68295 29.75376,-30.68295c16.43259,0 29.75375,13.73729 29.75375,30.68295c0,16.94577 -13.32121,30.68295 -29.75375,30.68295z" data-paper-data="{&quot;index&quot;:null}" fill="url(#color-38)"/><path d="M309.60685,269.36549c-3.78197,0 -7.40305,-0.71052 -10.7445,-2.00913c-0.63179,-0.54325 -1.89428,-1.45887 -3.27979,-2.33909c-2.1198,-1.6124 -5.08854,-3.78335 -6.74318,-4.46679c-0.3681,-0.397 -0.75955,-0.76738 -1.10897,-1.09829c-0.07443,-0.07054 -0.14757,-0.13946 -0.21945,-0.207c-0.02757,-0.06943 -0.06188,-0.14286 -0.10335,-0.22035c-0.08299,-0.25982 -0.23979,-0.48629 -0.44541,-0.65415c-0.03186,-0.03974 -0.06504,-0.08028 -0.09956,-0.12146c-0.05243,-0.09226 -0.115,-0.17792 -0.18621,-0.25536c-0.09566,-0.13246 -0.20439,-0.26821 -0.32397,-0.40479c0.1304,0.07511 -0.2288,-0.33391 -0.78583,-0.93085c-0.16636,-0.20907 -0.32429,-0.40696 -0.47398,-0.59423c-0.30394,-0.40689 -0.58056,-0.77599 -0.83141,-1.10967c-0.03646,-0.31957 -0.18033,-0.60608 -0.39422,-0.82197v0l-0.00896,-0.009c-0.08672,-0.11662 -0.17181,-0.23114 -0.25536,-0.34353c-0.55148,-1.21018 -1.30518,-2.60786 -2.08934,-3.64511c-0.00934,-0.02285 -0.01862,-0.04563 -0.02791,-0.06848c-0.92774,-5.47787 -0.99467,-5.12205 -0.7617,-3.21309c-0.2085,-0.71012 -0.46127,-1.41291 -0.67734,-2.12103c0.37606,-0.74341 -0.15937,-3.31198 -0.36493,-4.39871c0.15709,-1.14053 0.18534,-2.38701 0.00496,-3.51259c0.108,-0.19828 0.16942,-0.42613 0.16942,-0.66843c0,-0.41318 -0.17866,-0.78422 -0.46231,-1.03875c0.04636,-0.16866 0.02502,-0.36025 -0.0826,-0.57527c0.30195,-2.8914 0.98422,-5.66541 1.99412,-8.26754c1.40969,-1.52991 2.9952,-4.71548 3.90019,-7.15452c5.55813,-7.6493 14.41934,-12.59904 24.40157,-12.59904c16.82954,0 30.47243,14.06909 30.47243,31.42408c0,17.3551 -13.64301,31.42408 -30.47243,31.42408z" data-paper-data="{&quot;index&quot;:null}" fill="url(#color-39)"/><path d="" data-paper-data="{&quot;index&quot;:null}" fill="url(#color-40)"/><path d="M284.85453,256.2738c-0.16181,-0.23197 -0.32069,-0.46632 -0.47649,-0.70296c0.01979,0.0209 0.03974,0.04185 0.05987,0.06303c0.19716,0.25747 0.39661,0.51495 0.58966,0.76083c-0.0572,-0.04113 -0.1149,-0.0815 -0.17309,-0.12095z" data-paper-data="{&quot;index&quot;:null}" fill="url(#color-41)"/><path d="" data-paper-data="{&quot;index&quot;:null}" fill="url(#color-42)"/></g><path d="M300.69523,266.10788c-0.64598,-0.19556 -0.51089,0.9043 -2.47328,0.55525c-0.65481,-0.48066 -1.48539,-1.04816 -2.36482,-1.60174c-1.30273,-0.98172 -2.92221,-2.16989 -4.36847,-3.1053c-0.02673,-0.27737 -0.08683,-0.52374 -0.46571,-0.79711c-0.82819,-0.67239 -1.72409,-1.39011 -2.4775,-2.14887c-0.13268,-0.13364 -0.46399,-0.47794 -0.97044,-0.7611c-0.27965,-0.15636 -0.53869,-0.22796 -0.77705,-0.29011c-0.08583,-0.11401 -0.18105,-0.23019 -0.28421,-0.34692c0.13191,0.0752 -0.23158,-0.33486 -0.79545,-0.93353c-0.16843,-0.20961 -0.32824,-0.40811 -0.47983,-0.59593c-0.18638,-0.24719 -0.36264,-0.48043 -0.52902,-0.70034c-0.24719,-0.6732 -0.47427,-1.38056 -0.73163,-1.8013c-1.31391,-2.14792 -2.30975,-4.47741 -3.00126,-6.91845c-0.18638,-0.95309 -0.26709,-1.21747 -0.27488,-1.04108c-0.03863,-0.15765 -0.07604,-0.31567 -0.11223,-0.47411c-0.06998,-0.30651 -0.23757,-0.61445 -0.296,-0.9238c-0.05653,-0.299 0.01068,-0.62501 -0.0557,-0.91506c-0.08182,-1.03725 -0.34563,-2.31459 -0.47682,-3.00159c0.15903,-1.14387 0.18761,-2.3939 0.005,-3.52276c0.10934,-0.19884 0.17154,-0.42729 0.17154,-0.67032c0,-0.13551 -0.01935,-0.26655 -0.05542,-0.39039c0.03918,-0.05447 0.06553,-0.12952 0.07377,-0.23547c0.26726,-3.43921 1.0347,-6.3499 2.4043,-9.35137c0.08193,-0.14614 -0.25304,-0.19066 -0.53019,-0.43135c1.31301,-1.65993 2.70168,-4.48125 3.52715,-6.68855c0.51402,-0.51773 1.07177,-1.02674 1.68605,-1.56566c0.28282,-0.24814 1.04354,-1.0347 1.19718,-1.1756c0.8263,-0.75737 1.31201,-0.57117 1.91942,-0.98834c0.32957,-0.22635 0.56081,-0.34585 0.89984,-0.56459c0.53569,-0.34563 1.70279,-1.09579 2.26083,-1.42285c0.46609,-0.27316 -0.10262,-0.39977 1.52236,-1.28099c1.87316,-1.01579 1.5192,-0.26215 2.21542,-0.57615c1.47388,-0.66476 2.6203,-1.38539 4.13232,-1.81469c2.49341,-0.70795 5.4016,-0.91406 8.13669,-0.91406c3.8904,0 7.62358,1.03876 11.17468,2.54337c0.38088,0.16136 1.18205,0.1592 1.55876,0.33063c0.16515,0.07515 0.40846,0.4905 0.56249,0.56999c1.00723,0.51969 1.64104,0.86831 2.67973,1.42586c0.29338,0.15748 1.34247,-0.44152 1.62631,-0.2766c0.79284,0.46065 1.05543,0.95288 1.798,1.47522c3.67307,2.5839 6.68732,5.90588 8.60724,9.79502c0.61735,1.25054 0.94125,3.10769 1.27867,4.544c0.19401,0.82575 0.42341,-1.29046 0.89668,1.66671c0.4293,2.68234 -1.24443,1.56628 -1.16894,1.99158c0.29278,1.6487 0.44547,3.3451 0.44547,5.07685c0,0.32663 -0.54947,1.3128 -0.43741,1.66367c0.17003,0.53241 1.03808,0.42713 1.14037,0.85403c0.2333,0.97354 0.1179,1.64532 0.05948,2.68491c-0.09233,1.64409 -1.13631,3.63622 -1.39874,5.27792c-0.47143,2.94911 -1.93036,1.32897 -2.17951,1.85449c-1.71657,3.62087 -4.06934,6.59305 -6.97037,9.33371c-0.68655,0.64853 -1.27404,1.51985 -2.01307,2.10507c-0.79388,0.62863 -0.61552,1.21962 -1.49173,1.77039c-0.67187,0.42229 -1.59974,0.80507 -2.15472,0.79711c-0.46699,-0.00666 -0.596,-0.38867 -0.82135,-0.27683c-3.96868,1.96961 -8.61791,3.58502 -13.36048,3.58502c0,0 -0.97649,0.10039 -2.31529,-0.03824c-1.90546,-0.19729 -4.54489,-0.87426 -6.14818,-1.3596z" data-paper-data="{&quot;index&quot;:null}" fill="url(#color-43)"/></g><path d="" data-paper-data="{&quot;index&quot;:null}" fill="url(#color-44)" stroke="none" stroke-width="0.5"/><path d="" data-paper-data="{&quot;index&quot;:null}" fill="url(#color-45)" stroke="none" stroke-width="0.5"/><path d="" data-paper-data="{&quot;index&quot;:null}" fill="url(#color-46)" stroke="none" stroke-width="0.5"/><path d="" data-paper-data="{&quot;index&quot;:null}" fill="url(#color-47)" stroke="none" stroke-width="0.5"/></g></g></svg>