<svg version="1.1" xmlns="http://www.w3.org/2000/svg" xmlns:xlink="http://www.w3.org/1999/xlink" width="366.27582" height="437.10795" viewBox="0,0,366.27582,437.10795"><defs><linearGradient x1="217.33334" y1="68.896" x2="262.66666" y2="68.896" gradientUnits="userSpaceOnUse" id="color-1"><stop offset="0" stop-color="#cdd3da"/><stop offset="1" stop-color="#9da3ab"/></linearGradient><linearGradient x1="208.83333" y1="173.89601" x2="271.16667" y2="173.89601" gradientUnits="userSpaceOnUse" id="color-2"><stop offset="0" stop-color="#b2b8bd"/><stop offset="1" stop-color="#8c9298"/></linearGradient><linearGradient x1="207.5" y1="178.22935" x2="272.5" y2="178.22935" gradientUnits="userSpaceOnUse" id="color-3"><stop offset="0" stop-color="#777c7f"/><stop offset="1" stop-color="#5f6368"/></linearGradient><radialGradient cx="223.42059" cy="-64.58705" r="24.95866" gradientUnits="userSpaceOnUse" id="color-4"><stop offset="0" stop-color="#bec4ca"/><stop offset="1" stop-color="#8c9098"/></radialGradient><linearGradient x1="241.07772" y1="-66.00384" x2="241.49593" y2="-76.49549" gradientUnits="userSpaceOnUse" id="color-5"><stop offset="0" stop-color="#f0f7ff"/><stop offset="1" stop-color="#afb6be"/></linearGradient><linearGradient x1="241.44118" y1="-75.12215" x2="247.85176" y2="-235.94988" gradientUnits="userSpaceOnUse" id="color-6"><stop offset="0" stop-color="#f0f7ff"/><stop offset="1" stop-color="#afb6be"/></linearGradient><linearGradient x1="247.73181" y1="-218.85825" x2="249.27707" y2="-257.62548" gradientUnits="userSpaceOnUse" id="color-7"><stop offset="0" stop-color="#cbe3ff"/><stop offset="1" stop-color="#86a1bf"/></linearGradient><linearGradient x1="256.19337" y1="-37.55633" x2="265.05659" y2="-31.9266" gradientUnits="userSpaceOnUse" id="color-8"><stop offset="0" stop-color="#f0f7ff"/><stop offset="1" stop-color="#afb6be"/></linearGradient><linearGradient x1="263.89639" y1="-32.66353" x2="399.7611" y2="53.63503" gradientUnits="userSpaceOnUse" id="color-9"><stop offset="0" stop-color="#f0f7ff"/><stop offset="1" stop-color="#afb6be"/></linearGradient><linearGradient x1="385.64196" y1="44.00238" x2="418.39187" y2="64.80448" gradientUnits="userSpaceOnUse" id="color-10"><stop offset="0" stop-color="#cbe3ff"/><stop offset="1" stop-color="#86a1bf"/></linearGradient><linearGradient x1="223.64106" y1="-38.83945" x2="214.22068" y2="-34.20189" gradientUnits="userSpaceOnUse" id="color-11"><stop offset="0" stop-color="#f0f7ff"/><stop offset="1" stop-color="#afb6be"/></linearGradient><linearGradient x1="215.45381" y1="-34.80894" x2="71.04829" y2="36.28046" gradientUnits="userSpaceOnUse" id="color-12"><stop offset="0" stop-color="#f0f7ff"/><stop offset="1" stop-color="#afb6be"/></linearGradient><linearGradient x1="86.12689" y1="28.23225" x2="51.31823" y2="45.36822" gradientUnits="userSpaceOnUse" id="color-13"><stop offset="0" stop-color="#cbe3ff"/><stop offset="1" stop-color="#86a1bf"/></linearGradient><radialGradient cx="233.48559" cy="-46.16801" r="20.5" gradientUnits="userSpaceOnUse" id="color-14"><stop offset="0" stop-color="#e6eef5"/><stop offset="1" stop-color="#c4cad5"/></radialGradient></defs><g transform="translate(-51.73289,257.21195)"><g data-paper-data="{&quot;isPaintingLayer&quot;:true}" fill-rule="nonzero" stroke="none" stroke-width="0" stroke-linecap="butt" stroke-linejoin="miter" stroke-miterlimit="10" stroke-dasharray="" stroke-dashoffset="0" style="mix-blend-mode: normal"><path d="M217.33334,171.22934l8.33333,-204.66667h28.66666l8.33333,204.66667z" fill="url(#color-1)"/><path d="M208.83333,176.89601v-6h62.33333v6z" fill="url(#color-2)"/><path d="M207.5,179.89601v-3.33333h65v3.33333z" fill="url(#color-3)"/><path d="M215.83335,-28.47866c0,-5.48483 0,-26.33483 0,-37c0,-3.59358 3.15873,-6.91731 6.33333,-6.91731c5.84411,0 25.85484,0 36,0c3.63233,0 6,3.22824 6,6.25065c0,10.40972 0,32.86094 0,38.66667c0,2.49943 -1.92973,5 -5,5c-10.75875,0 -34.18908,0 -39,0c-1.59078,0 -4.33333,-3.64513 -4.33333,-6z" fill="url(#color-4)"/><g data-paper-data="{&quot;index&quot;:null}"><path d="M248.07217,-65.72503l-13.98889,-0.5576l0.41821,-10.49166l13.98889,0.5576z" fill="url(#color-5)"/><path d="M251.31595,-74.72854l-19.74954,-0.78721l11.09022,-143.75911l10.19332,0.40631z" fill="url(#color-6)"/><path d="M252.8922,-218.65257l-10.32074,-0.41139c0,0 3.73425,-38.25729 6.4977,-38.14775c3.36854,0.13351 3.82303,38.55912 3.82303,38.55912z" fill="url(#color-7)"/></g><g data-paper-data="{&quot;index&quot;:null}"><path d="M268.80973,-37.83541l-7.5063,11.8176l-8.8632,-5.62972l7.50629,-11.81759z" fill="url(#color-8)"/><path d="M388.56449,39.80069l-5.46964,8.61115l-124.49716,-72.73331l10.59742,-16.68409z" fill="url(#color-9)"/><path d="M417.93335,64.73983c-1.48335,2.33418 -35.06039,-16.37805 -35.06039,-16.37805l5.538,-8.71879c0,0 31.33052,22.25159 29.52239,25.09683z" fill="url(#color-10)"/></g><g data-paper-data="{&quot;index&quot;:null}"><path d="M220.54936,-45.11968l6.1834,12.56047l-9.42037,4.63754l-6.1834,-12.56047z" fill="url(#color-11)"/><path d="M211.08895,-43.67538l8.72974,17.7329l-131.6368,58.83393l-4.50568,-9.15248z" fill="url(#color-12)"/><path d="M51.78106,45.35354c-1.48962,-3.02419 32.06484,-21.75472 32.06484,-21.75472l4.56199,9.26687c0,0 -35.40479,14.96886 -36.62683,12.48787z" fill="url(#color-13)"/></g><path d="M249.22185,-65.69586c10.20825,4.89646 14.51435,17.14127 9.61787,27.34953c-4.89647,10.20825 -17.14127,14.51434 -27.34951,9.61786c-10.20825,-4.89646 -14.51434,-17.14126 -9.61787,-27.34951c4.89646,-10.20825 17.14127,-14.51434 27.34952,-9.61786z" data-paper-data="{&quot;index&quot;:null}" fill="url(#color-14)"/></g></g></svg>