<svg version="1.1" xmlns="http://www.w3.org/2000/svg" xmlns:xlink="http://www.w3.org/1999/xlink" width="61.66258" height="119.36819" viewBox="0,0,61.66258,119.36819"><defs><linearGradient x1="239.74789" y1="149.41535" x2="239.74789" y2="156.26644" gradientUnits="userSpaceOnUse" id="color-1"><stop offset="0" stop-color="#736b4f"/><stop offset="1" stop-color="#bec286"/></linearGradient><radialGradient cx="235.45423" cy="124.47792" r="13.11833" gradientUnits="userSpaceOnUse" id="color-2"><stop offset="0" stop-color="#ccbe7a"/><stop offset="1" stop-color="#948f62"/></radialGradient></defs><g transform="translate(-208.71381,-115.40861)"><g data-paper-data="{&quot;isPaintingLayer&quot;:true}" fill-rule="nonzero" stroke-linejoin="miter" stroke-miterlimit="10" stroke-dasharray="" stroke-dashoffset="0" style="mix-blend-mode: normal"><g><path d="M223.2324,226.53148l7.14622,-33.15768c0,0 6.94117,-1.48888 9.99228,-1.17898c3.61014,0.36668 0.17433,4.28361 0.17433,4.28361c0,0 -3.08513,-0.22461 -3.53465,1.17292c-1.37471,4.27395 -5.81603,29.68884 -5.81603,29.68884z" fill="#a69b98" stroke="#000000" stroke-width="0" stroke-linecap="butt"/><path d="M238.00865,232.96643c0,0 -0.57978,1.89125 -1.40244,1.80769c-0.58972,-0.0599 -2.63196,-0.2536 -4.67352,-0.54193c-1.24122,-0.17529 -1.82998,-0.80684 -2.74416,-1.04327c-1.15089,-0.29765 -2.94576,-0.0776 -3.77131,-0.35395c-1.52118,-0.5092 -2.28387,-1.01379 -2.28387,-1.01379c0,0 -0.16413,-1.04733 -0.12389,-1.60654c0.0542,-0.75338 0.41986,-2.50742 0.41986,-2.50742c0,0 5.91595,0.4807 8.19876,0.91391c1.3508,0.25636 4.1535,1.072 4.1535,1.072c0,0 1.39007,0.75996 1.55943,1.20659c0.2074,0.547 0.66764,2.06671 0.66764,2.06671z" data-paper-data="{&quot;index&quot;:null}" fill="#141415" stroke="#000000" stroke-width="0" stroke-linecap="butt"/><path d="M237.80327,232.30764c0,0 -0.38372,-0.03897 -1.20638,-0.12254c-0.24695,-0.02509 0.53695,1.66442 -2.73942,1.06172c-3.09395,-0.56915 -2.6422,-1.46271 -3.73282,-1.6545c-2.28052,-0.40104 -2.63454,0.3305 -3.61363,0.07728c-0.34098,-0.08818 -0.49851,-0.16577 -1.67739,-1.14572c-0.81076,-0.67395 -0.48529,-1.80953 -1.01851,-2.49499c-0.7789,-1.0013 -0.61377,-1.95784 -0.61377,-1.95784l0.23199,-3.03985c0,0 0.26086,2.24467 1.0122,3.14963c0.67224,0.80969 2.30694,0.21547 2.78815,0.26421c0.84264,0.08534 -0.35508,-3.32093 0.44868,-3.22096c0.4322,0.05375 3.72735,0.14331 3.72735,0.14331c0,0 -0.23936,3.57399 -0.00962,3.61759c1.35079,0.25636 4.51542,1.10876 4.51542,1.10876c0,0 1.39007,0.75996 1.55943,1.20659c0.20741,0.547 0.32835,3.0073 0.32835,3.0073z" data-paper-data="{&quot;index&quot;:null}" fill="#252527" stroke="#000000" stroke-width="0" stroke-linecap="butt"/><path d="M232.2263,227.69054l-2.76433,0.81618" data-paper-data="{&quot;index&quot;:null}" fill="none" stroke="#ffffff" stroke-width="0.5" stroke-linecap="round"/><path d="M234.03586,227.87435l-2.68044,1.19034" data-paper-data="{&quot;index&quot;:null}" fill="none" stroke="#ffffff" stroke-width="0.5" stroke-linecap="round"/><path d="M233.50241,229.5265l1.59472,-1.30063" data-paper-data="{&quot;index&quot;:null}" fill="none" stroke="#ffffff" stroke-width="0.5" stroke-linecap="round"/><path d="M228.64768,224.52378l2.196,-0.02072" data-paper-data="{&quot;index&quot;:null}" fill="none" stroke="#969696" stroke-width="0.5" stroke-linecap="round"/><path d="M229.04446,225.41724l1.96698,-0.16586" data-paper-data="{&quot;index&quot;:null}" fill="none" stroke="#969696" stroke-width="0.5" stroke-linecap="round"/></g><g stroke="#000000" stroke-width="0" stroke-linecap="butt"><path d="M270.1001,200.28158c-0.50319,0.10569 -1.53554,-3.64398 -2.95557,-3.79101c-0.48751,-0.05049 0.57327,5.11603 -0.36838,5.06302c-0.55896,-0.03147 -1.08964,-2.90303 -1.76091,-4.18512c-0.32704,-0.62461 -1.84408,-5.23305 -1.84408,-5.23305c0,0 -0.07439,-3.04577 -1.45707,-6.27704c-0.33249,-0.77703 -1.22127,-3.38719 -1.57148,-4.1819c-0.82891,-1.88088 -1.72507,-3.71547 -2.20195,-4.88155c-1.02572,-2.50803 -5.13825,-14.80039 -5.13825,-14.80039l4.90431,-2.81583c0,0 1.73653,6.34829 4.12381,12.91599c1.79582,4.94054 4.22852,10.02886 5.07163,12.50087c0.99782,2.92565 1.8055,6.83817 1.8055,6.83817c0,0 0.74115,2.6904 1.22589,4.9875c0.43617,2.06691 0.65106,3.75857 0.1665,3.86035z" data-paper-data="{&quot;index&quot;:null}" fill="#8b8560"/><path d="M250.37168,155.18293c5.32794,-2.67367 6.96113,0.53417 7.67649,2.37211c0.71537,1.83793 2.28741,0.82405 -2.60593,3.25248c-4.13597,2.05256 -3.65379,1.48561 -4.36915,-0.35233c-0.71536,-1.83793 -3.47612,-3.87982 -0.70141,-5.27224z" data-paper-data="{&quot;index&quot;:null}" fill="#42352d"/></g><g stroke="#000000" stroke-width="0" stroke-linecap="butt"><path d="M253.69145,207.92203c-0.50394,-0.10205 -0.24507,-3.86373 -0.59423,-4.75424c-0.18691,-0.47671 -1.5744,4.73533 -2.42222,4.3132c-0.50328,-0.25057 0.09789,-3.10742 -0.03405,-4.55513c-0.06429,-0.7053 0.28718,-5.5539 0.28718,-5.5539c0,0 1.08788,-2.83656 1.0403,-6.36266c-0.01145,-0.84793 0.1604,-3.60581 0.13932,-4.47708c-0.04988,-2.06204 -0.17933,-4.10807 -0.17616,-5.37179c0.00681,-2.71804 0.88343,-15.6772 0.88343,-15.6772l5.58962,-0.65114c0,0 -0.80975,6.5391 -1.10299,13.53836c-0.22058,5.26519 0.08974,10.91901 -0.07175,13.53148c-0.19111,3.09189 -0.93217,7.01794 -0.93217,7.01794c0,0 -0.33837,2.77333 -0.76374,5.08254c-0.38275,2.07781 -1.35728,4.01786 -1.84255,3.9196z" data-paper-data="{&quot;index&quot;:null}" fill="#979068"/><path d="M253.16079,158.24195c5.92611,-0.35222 6.2135,3.25161 6.17503,5.22907c-0.03848,1.97745 1.79551,1.66616 -3.63689,1.96461c-4.59161,0.25225 -3.93189,-0.07915 -3.89342,-2.0566c0.03848,-1.97745 -1.73094,-4.95364 1.35529,-5.13707z" data-paper-data="{&quot;index&quot;:null}" fill="#4a3c33"/></g><g><path d="M239.64061,192.49664c3.60425,-0.4207 10.73147,0.94487 10.73147,0.94487l6.91926,33.1313l-7.58783,0.88567c0,0 -4.27882,-25.21213 -5.45201,-29.13449c-0.3325,-1.11165 -3.51664,-1.6822 -3.51664,-1.6822c0,0 -4.14039,-3.7896 -1.09426,-4.14515z" fill="#a69b98" stroke="#000000" stroke-width="0" stroke-linecap="butt"/><path d="M264.47722,232.87198c-0.58876,0.06873 -2.6247,0.32011 -4.68039,0.47896c-1.24981,0.09658 -1.96094,-0.3931 -2.9046,-0.42676c-1.18799,-0.04237 -2.89316,0.55967 -3.75888,0.4679c-1.59521,-0.16908 -2.44879,-0.49727 -2.44879,-0.49727c0,0 -0.38617,-0.98729 -0.46753,-1.542c-0.10959,-0.74734 -0.13091,-2.53895 -0.13091,-2.53895c0,0 5.88037,-0.80675 8.20288,-0.87616c1.3743,-0.04107 4.28696,0.1508 4.28696,0.1508c0,0 1.52128,0.44221 1.78299,0.84179c0.32052,0.48939 1.09774,1.87402 1.09774,1.87402c0,0 -0.15816,1.97178 -0.97948,2.06765z" data-paper-data="{&quot;index&quot;:null}" fill="#141415" stroke="#000000" stroke-width="0" stroke-linecap="butt"/><path d="M263.90963,230.34598c-0.24655,0.02877 0.88336,1.50942 -2.4459,1.62765c-3.14389,0.11166 -2.89552,-0.85832 -4.00183,-0.81034c-2.31334,0.10034 -2.50122,0.89102 -3.51188,0.85496c-0.35198,-0.01256 -0.52253,-0.05432 -1.88505,-0.75691c-0.93706,-0.48319 -0.8642,-1.66224 -1.53273,-2.21655c-0.97655,-0.80969 -1.02165,-1.77935 -1.02165,-1.77935l-0.42919,-3.01832c0,0 0.73892,2.13554 1.66778,2.85713c0.83107,0.64561 2.29911,-0.28724 2.77951,-0.34346c0.84122,-0.09843 -1.06309,-3.16614 -0.25667,-3.24191c0.43362,-0.04074 3.67051,-0.66411 3.67051,-0.66411c0,0 0.53722,3.54149 0.77095,3.5345c1.3743,-0.04107 4.64828,0.10862 4.64828,0.10862c0,0 1.52128,0.44221 1.783,0.84179c0.32052,0.48939 0.96933,2.86567 0.96933,2.86567c0,0 -0.3831,0.04471 -1.20442,0.14058z" data-paper-data="{&quot;index&quot;:null}" fill="#252527" stroke="#000000" stroke-width="0" stroke-linecap="butt"/><path d="M258.67242,226.89996l-2.52319,1.39325" fill="none" stroke="#ffffff" stroke-width="0.5" stroke-linecap="round"/><path d="M258.11848,228.4296l2.36057,-1.74052" fill="none" stroke="#ffffff" stroke-width="0.5" stroke-linecap="round"/><path d="M261.59116,226.80346l-1.27661,1.614" fill="none" stroke="#ffffff" stroke-width="0.5" stroke-linecap="round"/><path d="M256.63478,224.08572l-2.13982,0.49394" fill="none" stroke="#969696" stroke-width="0.5" stroke-linecap="round"/><path d="M256.96003,224.78029l-1.88489,0.58626" fill="none" stroke="#969696" stroke-width="0.5" stroke-linecap="round"/></g><path d="M235.91981,157.06516v-7.64977h7.65615l-0.1141,7.87798z" fill="url(#color-1)" stroke="#000000" stroke-width="0" stroke-linecap="butt"/><path d="M229.63981,193.59147c0,0 1.05415,-4.96832 0.53438,-10.35244c-0.16183,-1.6764 -0.21302,-5.68895 -0.71668,-7.54193c-0.59549,-2.19087 -2.53406,-2.77781 -2.61907,-4.12911c-0.1679,-2.66921 -1.07001,-6.79369 -0.41646,-11.37123c0.49266,-3.45066 3.45852,-6.29847 3.45852,-6.29847c0,0 3.98746,-0.28908 5.76508,0.07712c2.26281,0.46615 4.64106,2.49298 4.64106,2.49298c0,0 3.08552,-2.02276 4.99894,-2.43902c2.01891,-0.43921 5.48447,0.01677 5.48447,0.01677c0,0 2.62113,3.52189 2.84787,7.84095c0.214,4.0764 -0.63262,8.46783 -0.70926,10.13771c-0.07768,1.69256 -1.49509,2.1313 -2.13228,4.27482c-0.50833,1.71005 -0.54704,5.19044 -0.67745,7.18949c-0.3029,4.64296 0.14784,10.27371 0.14784,10.27371c0,0 -2.75697,-0.76932 -5.57187,-0.83754c-1.27833,-0.03098 -1.79126,1.00612 -2.99851,1.16532c-0.96496,0.12724 -2.63623,-0.61291 -3.56107,-0.64966c-0.69915,-0.02778 -2.04377,-0.5306 -2.53801,-0.53471c-0.99795,-0.0083 -1.61572,0.86529 -2.77345,1.02464c-1.34484,0.1851 -3.1641,-0.33939 -3.1641,-0.33939z" fill="#4f4037" stroke="#292e32" stroke-width="0" stroke-linecap="butt"/><g stroke="#000000" stroke-width="0" stroke-linecap="butt"><path d="M209.14964,196.01711c0.48599,-2.29797 1.23622,-4.98931 1.23622,-4.98931c0,0 0.80899,-3.91402 1.82512,-6.84063c0.85859,-2.47282 3.35379,-7.56249 5.18543,-12.50458c2.43486,-6.56978 4.19228,-12.92031 4.19228,-12.92031l5.14469,2.81923c0,0 -4.18594,12.29641 -5.23487,14.80517c-0.48768,1.16642 -1.40721,3.00148 -2.25614,4.8829c-0.35869,0.79493 -1.26372,3.40594 -1.60406,4.1832c-1.41524,3.23219 -1.46628,6.27937 -1.46628,6.27937c0,0 -1.54347,4.60996 -1.87943,5.23473c-0.68959,1.28241 -1.21849,4.1551 -1.80178,4.18634c-0.9826,0.05264 0.04068,-6.16662 -0.32492,-5.80128c-0.683,0.68246 -2.6301,4.63322 -3.15634,4.52726c-0.50675,-0.10204 -0.2972,-1.79438 0.14009,-3.86208z" data-paper-data="{&quot;index&quot;:null}" fill="#a0986e"/><path d="M228.41753,160.28816c-0.73075,1.8385 -0.22241,2.40592 -4.55827,0.35064c-5.12986,-2.43164 -3.47977,-1.41661 -2.74903,-3.2551c0.73075,-1.8385 2.40775,-5.04716 7.99345,-2.36997c2.90895,1.39424 0.0446,3.43593 -0.68614,5.27443z" fill="#615046"/></g><g stroke="#000000" stroke-width="0" stroke-linecap="butt"><path d="M224.95005,203.59111c-0.51487,-2.29166 -0.95325,-5.05102 -0.95325,-5.05102c0,0 -0.89399,-3.8955 -1.18856,-6.97943c-0.24889,-2.60578 -0.09922,-8.27221 -0.49145,-13.5282c-0.52141,-6.98702 -1.56751,-13.49269 -1.56751,-13.49269l5.85135,0.42136c0,0 1.31351,12.92279 1.40431,15.64048c0.04222,1.26356 -0.02983,3.31485 -0.0184,5.37889c0.00485,0.8721 0.26902,3.62286 0.28319,4.47124c0.05892,3.52795 1.28117,6.31973 1.28117,6.31973c0,0 0.19122,9.88825 -0.25018,10.1457c-1.28574,0.74988 -1.62336,-5.588 -1.9182,-5.07898c-0.55701,0.96161 -0.42937,5.19993 -0.95195,5.32268c-0.50323,0.1182 -1.01728,-1.50773 -1.48056,-3.56976z" data-paper-data="{&quot;index&quot;:null}" fill="#ada477"/><path d="M227.57037,162.95731c0.10102,1.97581 0.79945,2.2801 -3.99845,2.21659c-5.67649,-0.07514 -3.75364,0.16074 -3.85466,-1.81507c-0.10102,-1.97581 0.08785,-5.59136 6.28104,-5.48275c3.22533,0.05657 1.47106,3.10541 1.57208,5.08123z" fill="#615046"/></g><g><path d="M251.22502,117.79763c0,0 -0.26338,3.24445 -0.58861,4.57283c-0.26638,1.08795 -1.2217,2.82111 -1.2217,2.82111" data-paper-data="{&quot;index&quot;:null}" fill="none" stroke="#3b2c16" stroke-width="1.25" stroke-linecap="round"/><path d="M252.62927,121.93589c0,0 -0.18908,2.27851 -0.58872,3.23539c-0.42269,1.01206 -1.88216,2.68074 -1.88216,2.68074" data-paper-data="{&quot;index&quot;:null}" fill="none" stroke="#3b2c16" stroke-width="1.25" stroke-linecap="round"/><path d="M248.9718,116.03361c0,0 0.11659,3.27103 -0.03039,4.69304c-0.12038,1.16464 -0.78772,3.22209 -0.78772,3.22209" data-paper-data="{&quot;index&quot;:null}" fill="none" stroke="#3b2c16" stroke-width="1.25" stroke-linecap="round"/><path d="M252.55185,134.25847c0,7.39154 -8.18556,17.31455 -11.39879,17.3764c-6.69145,0.1288 -14.23242,-9.98486 -14.23242,-17.3764c0,-7.39154 5.73774,-13.38356 12.8156,-13.38356c7.07786,0 12.8156,5.99202 12.8156,13.38356z" fill="url(#color-2)" stroke="none" stroke-width="0" stroke-linecap="butt"/><path d="M241.64846,135.34165c0,2.06292 -0.85162,3.73524 -1.90215,3.73524c-1.05053,0 -1.90214,-1.67233 -1.90214,-3.73524c0,-2.06292 0.85162,-3.73523 1.90214,-3.73523c1.05053,0 1.90215,1.67232 1.90215,3.73523z" fill="none" stroke="#191412" stroke-width="1.5" stroke-linecap="butt"/><path d="M246.3825,129.77996c0,2.06292 -0.85162,3.73524 -1.90214,3.73524c-1.05053,0 -1.90215,-1.67233 -1.90215,-3.73524c0,-2.06292 0.85162,-3.73524 1.90215,-3.73524c1.05053,0 1.90214,1.67232 1.90214,3.73524z" fill="none" stroke="#191412" stroke-width="1.5" stroke-linecap="butt"/><path d="M251.07875,135.29518c0,2.06292 -0.85161,3.73524 -1.90214,3.73524c-1.05053,0 -1.90215,-1.67233 -1.90215,-3.73524c0,-2.06292 0.85162,-3.73523 1.90215,-3.73523c1.05053,0 1.90214,1.67232 1.90214,3.73523z" fill="none" stroke="#191412" stroke-width="1.5" stroke-linecap="butt"/><path d="M246.32528,140.42395c0,2.06292 -0.85162,3.73524 -1.90214,3.73524c-1.05053,0 -1.90215,-1.67233 -1.90215,-3.73524c0,-2.06292 0.85162,-3.73523 1.90215,-3.73523c1.05053,0 1.90214,1.67232 1.90214,3.73523z" fill="none" stroke="#191412" stroke-width="1.5" stroke-linecap="butt"/><path d="M232.27206,125.51299c0,0 -1.55639,-1.73224 -1.99089,-2.81993c-0.53052,-1.32806 -0.96207,-4.57226 -0.96207,-4.57226" fill="none" stroke="#47341a" stroke-width="1.5" stroke-linecap="round"/><path d="M231.06403,128.17421c0,0 -2.37686,-1.66727 -3.06571,-2.67893c-0.6513,-0.9565 -0.96105,-3.23482 -0.96105,-3.23482" fill="none" stroke="#47341a" stroke-width="1.5" stroke-linecap="round"/><path d="M234.32334,124.26894c0,0 -1.08798,-2.05681 -1.28494,-3.22133c-0.24048,-1.42187 -0.05363,-4.693 -0.05363,-4.693" fill="none" stroke="#47341a" stroke-width="1.5" stroke-linecap="round"/></g></g></g></svg>