<svg version="1.1" xmlns="http://www.w3.org/2000/svg" xmlns:xlink="http://www.w3.org/1999/xlink" width="202.00676" height="260.47394" viewBox="0,0,202.00676,260.47394"><defs><linearGradient x1="176.22957" y1="263.9378" x2="143.05786" y2="317.53344" gradientUnits="userSpaceOnUse" id="color-1"><stop offset="0" stop-color="#ff4d4d"/><stop offset="1" stop-color="#ff4d4d" stop-opacity="0"/></linearGradient><linearGradient x1="175.21203" y1="265.57244" x2="144.38622" y2="315.3778" gradientUnits="userSpaceOnUse" id="color-2"><stop offset="0" stop-color="#ff0000"/><stop offset="1" stop-color="#ff0000" stop-opacity="0"/></linearGradient><linearGradient x1="175.91874" y1="264.44001" x2="149.74816" y2="306.72389" gradientUnits="userSpaceOnUse" id="color-3"><stop offset="0" stop-color="#ff9a4c"/><stop offset="1" stop-color="#ff9a4c" stop-opacity="0"/></linearGradient><linearGradient x1="175.1207" y1="265.72204" x2="150.79072" y2="305.03207" gradientUnits="userSpaceOnUse" id="color-4"><stop offset="0" stop-color="#ff7b00"/><stop offset="1" stop-color="#ff7b00" stop-opacity="0"/></linearGradient><linearGradient x1="175.50614" y1="264.87924" x2="156.05824" y2="296.3013" gradientUnits="userSpaceOnUse" id="color-5"><stop offset="0" stop-color="#fff480"/><stop offset="1" stop-color="#fff480" stop-opacity="0"/></linearGradient><linearGradient x1="174.91888" y1="265.82268" x2="156.82635" y2="295.05483" gradientUnits="userSpaceOnUse" id="color-6"><stop offset="0" stop-color="#ffea00"/><stop offset="1" stop-color="#ffea00" stop-opacity="0"/></linearGradient><linearGradient x1="175.1754" y1="265.60067" x2="163.02868" y2="285.22618" gradientUnits="userSpaceOnUse" id="color-7"><stop offset="0" stop-color="#fff8a9"/><stop offset="1" stop-color="#fff8a9" stop-opacity="0"/></linearGradient><linearGradient x1="174.94862" y1="265.96378" x2="163.63031" y2="284.25082" gradientUnits="userSpaceOnUse" id="color-8"><stop offset="0" stop-color="#fff68d"/><stop offset="1" stop-color="#fff68d" stop-opacity="0"/></linearGradient><linearGradient x1="210.13946" y1="242.05601" x2="215.10035" y2="245.10569" gradientUnits="userSpaceOnUse" id="color-9"><stop offset="0" stop-color="#525252"/><stop offset="1" stop-color="#363636"/></linearGradient><linearGradient x1="210.13946" y1="242.05601" x2="215.10035" y2="245.10569" gradientUnits="userSpaceOnUse" id="color-10"><stop offset="0" stop-color="#1f1f1f"/><stop offset="1" stop-color="#000000"/></linearGradient><linearGradient x1="161.66931" y1="219.20436" x2="222.88766" y2="256.83804" gradientUnits="userSpaceOnUse" id="color-11"><stop offset="0" stop-color="#2f2f2f"/><stop offset="1" stop-color="#040404"/></linearGradient><linearGradient x1="161.66931" y1="219.20436" x2="222.88766" y2="256.83804" gradientUnits="userSpaceOnUse" id="color-12"><stop offset="0" stop-color="#1f1f1f"/><stop offset="1" stop-color="#000000"/></linearGradient><linearGradient x1="192.94978" y1="215.27591" x2="212.41178" y2="227.24008" gradientUnits="userSpaceOnUse" id="color-13"><stop offset="0" stop-color="#444444"/><stop offset="1" stop-color="#252525"/></linearGradient><linearGradient x1="178.98762" y1="223.87474" x2="210.27948" y2="243.11125" gradientUnits="userSpaceOnUse" id="color-14"><stop offset="0" stop-color="#444444"/><stop offset="1" stop-color="#252525"/></linearGradient><linearGradient x1="165.24331" y1="234.39322" x2="207.25274" y2="260.21831" gradientUnits="userSpaceOnUse" id="color-15"><stop offset="0" stop-color="#444444"/><stop offset="1" stop-color="#252525"/></linearGradient><linearGradient x1="151.42364" y1="245.31083" x2="204.84876" y2="278.15365" gradientUnits="userSpaceOnUse" id="color-16"><stop offset="0" stop-color="#444444"/><stop offset="1" stop-color="#252525"/></linearGradient><linearGradient x1="215.3662" y1="222.85727" x2="230.82424" y2="232.36002" gradientUnits="userSpaceOnUse" id="color-17"><stop offset="0" stop-color="#b2b2b2"/><stop offset="1" stop-color="#363636"/></linearGradient><linearGradient x1="215.3662" y1="222.85727" x2="230.82424" y2="232.36002" gradientUnits="userSpaceOnUse" id="color-18"><stop offset="0" stop-color="#1f1f1f"/><stop offset="1" stop-color="#000000"/></linearGradient><linearGradient x1="249.19521" y1="214.71173" x2="279.53896" y2="233.3654" gradientUnits="userSpaceOnUse" id="color-19"><stop offset="0" stop-color="#353535"/><stop offset="1" stop-color="#1f1f1f"/></linearGradient><linearGradient x1="248.55438" y1="215.75417" x2="269.30906" y2="228.51301" gradientUnits="userSpaceOnUse" id="color-20"><stop offset="0" stop-color="#272727"/><stop offset="1" stop-color="#000000"/></linearGradient><linearGradient x1="189.05372" y1="177.30186" x2="158.70997" y2="158.64818" gradientUnits="userSpaceOnUse" id="color-21"><stop offset="0" stop-color="#6b6b6b"/><stop offset="1" stop-color="#838383"/></linearGradient><linearGradient x1="167.65819" y1="165.58543" x2="188.41289" y2="178.34429" gradientUnits="userSpaceOnUse" id="color-22"><stop offset="0" stop-color="#272727"/><stop offset="1" stop-color="#000000"/></linearGradient><linearGradient x1="203.8703" y1="153.01096" x2="264.36415" y2="190.19926" gradientUnits="userSpaceOnUse" id="color-23"><stop offset="0" stop-color="#646464"/><stop offset="1" stop-color="#222222"/></linearGradient><linearGradient x1="203.8703" y1="153.01096" x2="264.36418" y2="190.19928" gradientUnits="userSpaceOnUse" id="color-24"><stop offset="0" stop-color="#272727"/><stop offset="1" stop-color="#000000"/></linearGradient><linearGradient x1="253.03309" y1="71.81104" x2="314.25139" y2="109.4447" gradientUnits="userSpaceOnUse" id="color-25"><stop offset="0" stop-color="#c9c9c9"/><stop offset="1" stop-color="#3e3e3e"/></linearGradient><linearGradient x1="253.03308" y1="71.81107" x2="314.25142" y2="109.44474" gradientUnits="userSpaceOnUse" id="color-26"><stop offset="0" stop-color="#272727"/><stop offset="1" stop-color="#000000"/></linearGradient><linearGradient x1="282.76449" y1="62.7947" x2="308.77359" y2="78.78367" gradientUnits="userSpaceOnUse" id="color-27"><stop offset="0" stop-color="#8c8c8c"/><stop offset="1" stop-color="#222222"/></linearGradient><linearGradient x1="282.76449" y1="62.7947" x2="308.77361" y2="78.78368" gradientUnits="userSpaceOnUse" id="color-28"><stop offset="0" stop-color="#272727"/><stop offset="1" stop-color="#000000"/></linearGradient><radialGradient cx="280.66495" cy="88.97001" r="13.40505" gradientUnits="userSpaceOnUse" id="color-29"><stop offset="0" stop-color="#9cd7f7"/><stop offset="1" stop-color="#0087f6"/></radialGradient><linearGradient x1="268.41035" y1="89.80877" x2="291.24991" y2="103.84928" gradientUnits="userSpaceOnUse" id="color-30"><stop offset="0" stop-color="#272727"/><stop offset="1" stop-color="#000000"/></linearGradient><linearGradient x1="285.33314" y1="59.89796" x2="309.98071" y2="75.04991" gradientUnits="userSpaceOnUse" id="color-31"><stop offset="0" stop-color="#ffffff"/><stop offset="1" stop-color="#606060"/></linearGradient><linearGradient x1="285.33314" y1="59.89796" x2="309.98073" y2="75.04993" gradientUnits="userSpaceOnUse" id="color-32"><stop offset="0" stop-color="#272727"/><stop offset="1" stop-color="#000000"/></linearGradient><linearGradient x1="234.70999" y1="175.4878" x2="258.43784" y2="190.07438" gradientUnits="userSpaceOnUse" id="color-33"><stop offset="0" stop-color="#4a382c"/><stop offset="1" stop-color="#301f1b"/></linearGradient><linearGradient x1="234.70999" y1="175.4878" x2="258.43784" y2="190.07438" gradientUnits="userSpaceOnUse" id="color-34"><stop offset="0" stop-color="#351c12"/><stop offset="1" stop-color="#1a1310"/></linearGradient><linearGradient x1="234.64069" y1="175.45751" x2="258.31366" y2="190.01034" gradientUnits="userSpaceOnUse" id="color-35"><stop offset="0" stop-color="#351c12"/><stop offset="1" stop-color="#1a1310"/></linearGradient><linearGradient x1="234.75149" y1="175.27727" x2="258.42446" y2="189.8301" gradientUnits="userSpaceOnUse" id="color-36"><stop offset="0" stop-color="#351c12"/><stop offset="1" stop-color="#1a1310"/></linearGradient><linearGradient x1="206.27665" y1="158.17411" x2="230.00448" y2="172.76068" gradientUnits="userSpaceOnUse" id="color-37"><stop offset="0" stop-color="#4a382c"/><stop offset="1" stop-color="#301f1b"/></linearGradient><linearGradient x1="206.27665" y1="158.17411" x2="230.00448" y2="172.76068" gradientUnits="userSpaceOnUse" id="color-38"><stop offset="0" stop-color="#351c12"/><stop offset="1" stop-color="#1a1310"/></linearGradient><linearGradient x1="206.20734" y1="158.1438" x2="229.88029" y2="172.69665" gradientUnits="userSpaceOnUse" id="color-39"><stop offset="0" stop-color="#351c12"/><stop offset="1" stop-color="#1a1310"/></linearGradient><linearGradient x1="206.31814" y1="157.96359" x2="229.99109" y2="172.51642" gradientUnits="userSpaceOnUse" id="color-40"><stop offset="0" stop-color="#351c12"/><stop offset="1" stop-color="#1a1310"/></linearGradient><linearGradient x1="217.11563" y1="204.10839" x2="240.84348" y2="218.69497" gradientUnits="userSpaceOnUse" id="color-41"><stop offset="0" stop-color="#4a382c"/><stop offset="1" stop-color="#301f1b"/></linearGradient><linearGradient x1="217.11563" y1="204.10839" x2="240.84348" y2="218.69497" gradientUnits="userSpaceOnUse" id="color-42"><stop offset="0" stop-color="#351c12"/><stop offset="1" stop-color="#1a1310"/></linearGradient><linearGradient x1="217.04632" y1="204.0781" x2="240.71929" y2="218.63094" gradientUnits="userSpaceOnUse" id="color-43"><stop offset="0" stop-color="#351c12"/><stop offset="1" stop-color="#1a1310"/></linearGradient><linearGradient x1="217.15712" y1="203.89787" x2="240.83009" y2="218.4507" gradientUnits="userSpaceOnUse" id="color-44"><stop offset="0" stop-color="#351c12"/><stop offset="1" stop-color="#1a1310"/></linearGradient><linearGradient x1="188.68227" y1="186.79471" x2="212.41011" y2="201.38128" gradientUnits="userSpaceOnUse" id="color-45"><stop offset="0" stop-color="#4a382c"/><stop offset="1" stop-color="#301f1b"/></linearGradient><linearGradient x1="188.68227" y1="186.79471" x2="212.41011" y2="201.38128" gradientUnits="userSpaceOnUse" id="color-46"><stop offset="0" stop-color="#351c12"/><stop offset="1" stop-color="#1a1310"/></linearGradient><linearGradient x1="188.61297" y1="186.76442" x2="212.28592" y2="201.31725" gradientUnits="userSpaceOnUse" id="color-47"><stop offset="0" stop-color="#351c12"/><stop offset="1" stop-color="#1a1310"/></linearGradient><linearGradient x1="188.72378" y1="186.58417" x2="212.39673" y2="201.137" gradientUnits="userSpaceOnUse" id="color-48"><stop offset="0" stop-color="#351c12"/><stop offset="1" stop-color="#1a1310"/></linearGradient><linearGradient x1="225.38415" y1="124.8798" x2="279.38168" y2="158.0745" gradientUnits="userSpaceOnUse" id="color-49"><stop offset="0" stop-color="#515151"/><stop offset="1" stop-color="#131313"/></linearGradient><linearGradient x1="225.38415" y1="124.8798" x2="279.38168" y2="158.0745" gradientUnits="userSpaceOnUse" id="color-50"><stop offset="0" stop-color="#272727"/><stop offset="1" stop-color="#000000"/></linearGradient><linearGradient x1="235.1318" y1="114.70876" x2="283.12958" y2="144.21516" gradientUnits="userSpaceOnUse" id="color-51"><stop offset="0" stop-color="#272727"/><stop offset="1" stop-color="#000000"/></linearGradient><linearGradient x1="221.05407" y1="138.64753" x2="268.30189" y2="167.69291" gradientUnits="userSpaceOnUse" id="color-52"><stop offset="0" stop-color="#272727"/><stop offset="1" stop-color="#000000"/></linearGradient><linearGradient x1="258.49309" y1="107.37418" x2="280.05394" y2="120.62861" gradientUnits="userSpaceOnUse" id="color-53"><stop offset="0" stop-color="#272727"/><stop offset="1" stop-color="#000000"/></linearGradient><linearGradient x1="260.25252" y1="104.51212" x2="281.81337" y2="117.76655" gradientUnits="userSpaceOnUse" id="color-54"><stop offset="0" stop-color="#272727"/><stop offset="1" stop-color="#000000"/></linearGradient><linearGradient x1="256.73365" y1="110.23624" x2="278.2945" y2="123.49066" gradientUnits="userSpaceOnUse" id="color-55"><stop offset="0" stop-color="#272727"/><stop offset="1" stop-color="#000000"/></linearGradient><radialGradient cx="298.34718" cy="193.56272" r="29.28446" gradientUnits="userSpaceOnUse" id="color-56"><stop offset="0" stop-color="#33266a"/><stop offset="1" stop-color="#949074"/></radialGradient><linearGradient x1="315.13621" y1="167.56231" x2="310.73972" y2="175.28744" gradientUnits="userSpaceOnUse" id="color-57"><stop offset="0" stop-color="#694444"/><stop offset="1" stop-color="#98a1b9"/></linearGradient><radialGradient cx="338.72072" cy="152.65936" r="17.01979" gradientUnits="userSpaceOnUse" id="color-58"><stop offset="0" stop-color="#dcdcdc"/><stop offset="1" stop-color="#a0a0a0"/></radialGradient><radialGradient cx="342.09272" cy="158.68325" r="13.06584" gradientUnits="userSpaceOnUse" id="color-59"><stop offset="0" stop-color="#1c2f30"/><stop offset="1" stop-color="#142913"/></radialGradient><radialGradient cx="334.06145" cy="138.51402" r="3.43915" gradientUnits="userSpaceOnUse" id="color-60"><stop offset="0" stop-color="#786c41"/><stop offset="1" stop-color="#141a29"/></radialGradient><radialGradient cx="339.50649" cy="152.21048" r="5.41423" gradientUnits="userSpaceOnUse" id="color-61"><stop offset="0" stop-color="#7ba676"/><stop offset="1" stop-color="#291616"/></radialGradient><radialGradient cx="326.80981" cy="152.84456" r="12.78407" gradientUnits="userSpaceOnUse" id="color-62"><stop offset="0" stop-color="#d1ffc4"/><stop offset="1" stop-color="#2188ff"/></radialGradient><radialGradient cx="326.80981" cy="152.84456" r="12.78407" gradientUnits="userSpaceOnUse" id="color-63"><stop offset="0" stop-color="#ceffc4"/><stop offset="1" stop-color="#ff21cc"/></radialGradient><radialGradient cx="326.80981" cy="152.84456" r="12.78407" gradientUnits="userSpaceOnUse" id="color-64"><stop offset="0" stop-color="#ffe9c4"/><stop offset="1" stop-color="#4fff21"/></radialGradient><radialGradient cx="326.80981" cy="152.84456" r="12.78407" gradientUnits="userSpaceOnUse" id="color-65"><stop offset="0" stop-color="#ffe9c4"/><stop offset="1" stop-color="#4fff21"/></radialGradient><radialGradient cx="326.80981" cy="152.84459" r="12.78407" gradientUnits="userSpaceOnUse" id="color-66"><stop offset="0" stop-color="#ffe9c4"/><stop offset="1" stop-color="#ffa321"/></radialGradient><radialGradient cx="326.80982" cy="152.84461" r="12.78407" gradientUnits="userSpaceOnUse" id="color-67"><stop offset="0" stop-color="#c4f0ff"/><stop offset="1" stop-color="#3d21ff"/></radialGradient></defs><g transform="translate(-140.95527,-57.28037)"><g data-paper-data="{&quot;isPaintingLayer&quot;:true}" fill-rule="nonzero" stroke-linejoin="miter" stroke-miterlimit="10" stroke-dasharray="" stroke-dashoffset="0" style="mix-blend-mode: normal"><path d="M197.56935,281.08567c-2.24806,-1.7187 -4.3442,-3.61215 -6.7621,-5.10865c-7.29792,-6.09867 -16.46275,-10.1863 -24.5507,-15.19214c-5.78566,-3.58089 -11.85932,-6.69842 -17.68457,-10.2539c-1.21722,4.88088 -2.31134,10.01427 -3.82775,14.82495c0.06866,0.02177 0.13555,0.0522 0.19928,0.09164c0.27968,0.1731 0.43103,0.47805 0.42942,0.79623l0.01771,1.92251l-0.24055,0.01418c0.47728,5.1603 -0.60956,11.39682 -1.83581,16.32744c0.01775,0.00939 0.03528,0.01944 0.0526,0.03015c0.21903,0.13556 0.35935,0.35198 0.40913,0.5923l0.36684,1.77061l-0.22554,0.05952c0.78582,3.20554 0.08575,5.80882 -0.50238,9.63181c-0.17166,1.11588 0.02499,2.68355 -0.41666,3.89213c0.07066,-0.08861 0.13782,-0.16361 0.19458,-0.21276c0.64545,-0.55882 2.29127,-2.10871 3.07789,-1.58698c0.71162,0.47198 0.2417,1.74544 0.38653,2.61306c0.54759,3.28055 -0.83115,6.5498 -1.22882,9.85819c-0.16998,1.46697 -0.62595,2.78577 -1.02892,4.17219l0.11025,0.06824c0.96728,-0.90329 1.88615,-1.80741 3.02583,-2.55037c2.78363,-1.83164 5.09463,-4.52392 8.27499,-5.49713c0.84112,-0.25739 1.77127,-1.246 2.51111,-0.81963c0.81782,0.47131 0.1648,2.63566 -0.04743,3.46261c-0.01866,0.07272 -0.05584,0.16629 -0.10363,0.26905c0.88468,-0.93438 2.37547,-1.45765 3.29761,-2.10903c3.15926,-2.23165 5.17691,-4.01945 8.39641,-4.746l-0.04732,-0.2284l1.74833,-0.46147c0.23729,-0.06264 0.49357,-0.03359 0.7126,0.10197c0.0173,0.01071 0.03413,0.02193 0.05045,0.03362c3.86594,-3.29684 8.96285,-7.05143 13.79423,-8.92606l-0.09462,-0.22162l1.72855,-0.8417c0.28406,-0.14336 0.62449,-0.14395 0.90418,0.02916c0.06374,0.03945 0.1208,0.08574 0.17091,0.13748c3.6212,-3.49536 7.71749,-6.75774 11.53579,-10.01715c-0.78909,-0.84385 -1.84483,-1.19698 -2.79842,-1.92603zM148.90195,248.42294c6.03948,3.73799 12.37021,6.96163 18.39072,10.68788c8.12732,5.03021 17.33318,9.14134 24.66677,15.26981c2.43225,1.50538 4.54903,3.40673 6.80596,5.14124c1.26114,0.96922 2.50398,1.39564 3.50216,2.70781l-0.1064,-0.14866c0,0 0.68717,0.42531 0.43091,1.12783c-0.04637,0.40466 -0.37522,0.68767 -0.37522,0.68767c-4.57034,3.92776 -9.42179,7.85388 -13.71999,12.06282l-0.16765,0.02791l0.02446,0.05728l-1.03334,0.50318c-0.28406,0.14336 -0.62448,0.14395 -0.90417,-0.02916c-0.21966,-0.13596 -0.36015,-0.35324 -0.40956,-0.59437c-0.74051,0.52746 -1.59044,0.89201 -2.48537,1.45455c-3.69609,2.32333 -7.57256,4.85929 -10.92074,7.69188l-0.12983,0.02067l0.01829,0.04284l-1.03335,0.50317c-0.28406,0.14336 -0.62448,0.14395 -0.90417,-0.02916c-0.24263,-0.15017 -0.38865,-0.39955 -0.42205,-0.67071c-1.39501,0.9069 -3.24849,1.25369 -4.6749,2.24462c-1.62145,1.12643 -3.01402,2.44337 -4.67482,3.53563c-0.95061,0.62519 -2.91804,2.55046 -4.16366,2.08666c-1.03511,-0.38542 -0.35729,-2.48418 -0.17433,-3.2145c0.05441,-0.21719 0.24166,-0.58254 0.42427,-0.90123c-0.7362,0.80941 -1.78705,0.72577 -2.74518,1.47114c-1.86706,1.45245 -3.6506,3.00358 -5.62178,4.30809c-1.09815,0.70378 -1.97812,1.59341 -2.9093,2.4721c-0.02407,0.07553 -0.05772,0.14935 -0.10133,0.21982c-0.1447,0.23378 -0.37139,0.38587 -0.61992,0.44208c-0.05781,0.05105 -0.11604,0.10191 -0.17475,0.15249l-1.37112,-0.05703c0,0 -0.44132,-0.27315 -0.45058,-0.75932c-0.12453,-0.11376 -0.22948,-0.28099 -0.28691,-0.52499c-0.00173,-0.00738 -0.00341,-0.01471 -0.005,-0.022l-0.27683,-0.50203c0.4223,-1.66141 1.06022,-3.1698 1.24403,-4.87172c0.28828,-2.3461 0.88099,-4.63427 1.34811,-6.95317c0.23971,-1.19001 -0.30389,-2.09322 0.09216,-3.11317c-0.20378,0.30559 -0.44724,0.63615 -0.61736,0.78172c-0.57203,0.48952 -2.14807,2.03235 -2.95475,1.27784c-0.97073,-0.90796 -0.12519,-3.52759 0.01033,-4.65726c0.23677,-1.97364 0.79427,-3.80743 1.07915,-5.76108c0.25061,-1.71865 -0.26576,-3.53221 -0.07634,-5.18528c-0.25759,0.09107 -0.54592,0.0716 -0.78855,-0.07857c-0.27968,-0.1731 -0.43103,-0.47805 -0.42942,-0.79623l-0.01058,-1.14929l0.04649,-0.00274l-0.03941,-0.12541c1.04169,-4.26014 1.58226,-8.86079 2.01297,-13.20514c0.10429,-1.05188 0.05143,-1.97518 0.19319,-2.87323c-0.23786,0.06334 -0.49499,0.03453 -0.71465,-0.10143c-0.27968,-0.1731 -0.43103,-0.47805 -0.42942,-0.79623l-0.01059,-1.14929l0.06218,-0.00367l-0.04979,-0.1625c1.84976,-5.72434 3.19961,-11.81768 4.67633,-17.66017c0,0 0.16713,-0.65932 0.75318,-0.76268c0.51444,-0.54249 1.20148,-0.11727 1.20148,-0.11727z" fill="url(#color-1)" stroke="none" stroke-width="0.5" stroke-linecap="butt"/><path d="M200.41618,283.0028c-3.81828,3.25942 -7.91397,6.53501 -11.53516,10.03038c-0.05011,-0.05174 -0.20526,-0.10646 -0.26899,-0.1459c-0.27969,-0.17311 -0.52202,-0.16423 -0.80608,-0.02086l-1.72875,0.84354l0.09457,0.222c-4.83138,1.87463 -9.94208,5.65742 -13.80803,8.95426c-0.01632,-0.01169 -0.03316,-0.02289 -0.05047,-0.0336c-0.21903,-0.13556 -0.4762,-0.16374 -0.71348,-0.10109l-1.75196,0.46464l0.04708,0.22861c-3.2195,0.72655 -5.26276,2.52451 -8.42202,4.75616c-0.92215,0.65139 -2.4216,1.1747 -3.30628,2.10908c0.04778,-0.10276 0.09284,-0.29444 0.11151,-0.36717c0.21223,-0.82695 0.8569,-2.89322 0.03907,-3.36454c-0.73985,-0.42637 -1.6768,0.56113 -2.51792,0.81852c-3.18036,0.97322 -5.50369,3.66075 -8.28733,5.4924c-1.13967,0.74297 -2.06062,1.64587 -3.0279,2.54917l-0.11044,-0.06836c0.40297,-1.38642 0.85678,-2.70664 1.02676,-4.17361c0.39766,-3.30839 1.76651,-6.58678 1.2189,-9.86732c-0.14483,-0.86762 0.32101,-2.14684 -0.39061,-2.61881c-0.78663,-0.52172 -2.34797,0.97761 -2.99342,1.53643c-0.05676,0.04915 -0.2086,0.17435 -0.27925,0.26297c0.44165,-1.20858 0.24117,-2.78421 0.41283,-3.9001c0.58812,-3.82299 1.28625,-6.45411 0.50043,-9.65966l0.22561,-0.05985l-0.36554,-1.77523c-0.04979,-0.24032 -0.1897,-0.45789 -0.40873,-0.59345c-0.01731,-0.01071 -0.03484,-0.02078 -0.05259,-0.03018c1.22625,-4.93062 2.33235,-11.19152 1.85506,-16.35183l0.24088,-0.01439l-0.0162,-1.92346c0.00161,-0.31818 -0.09943,-0.53851 -0.37911,-0.71162c-0.06373,-0.03945 -0.18106,-0.15441 -0.24972,-0.17618c1.51642,-4.81068 2.62252,-9.94924 3.83974,-14.83012c5.82525,3.55547 11.92269,6.67229 17.70834,10.25318c8.08795,5.00584 17.28691,9.12074 24.58483,15.21939c2.41791,1.49651 4.51722,3.39893 6.76528,5.11763c0.95359,0.72905 2.00998,1.08515 2.79906,1.929z" data-paper-data="{&quot;noHover&quot;:false,&quot;origItem&quot;:[&quot;Path&quot;,{&quot;applyMatrix&quot;:true,&quot;selected&quot;:true,&quot;segments&quot;:[[[266.62657,280.12531],[1.19453,0.11806],[-2.81607,-0.27832],7],[[258.1881,279.34012],[2.84356,0],[-9.41511,-1.34502],7],[[229.31704,279.34259],[9.51175,0],[-6.80416,0],7],[[208.88323,279.93061],[6.82445,-0.04245],[1.53369,4.79087],7],[[213.43052,294.55091],[-1.24233,-4.88864],[0.06984,-0.01762],7],[[213.6482,294.52396],[-0.07495,0],[0.32892,0],7],[[214.43238,294.97501],[-0.16609,-0.2714],[0,0],7],[[215.45922,296.60042],[0,0],[0,0],7],[[215.26214,296.73907],[0,0],[3.1216,4.13668],7],[[222.29392,311.58863],[-1.55219,-4.83791],[0.02003,-0.00136],7],[[222.35451,311.58659],[-0.02036,0],[0.25759,0],7],[[223.01412,311.87491],[-0.16881,-0.17814],[0,0],7],[[224.25788,313.18742],[0,0],[0,0],7],[[224.09743,313.35673],[0,0],[2.35521,2.31215],7],[[228.73927,321.81117],[-1.51188,-3.56025],[0.4413,1.03919],7],[[230.43334,325.33997],[-0.26051,-1.2601],[0.01345,-0.11253],7],[[230.48681,325.05665],[-0.0224,0.07166],[0.25474,-0.81486],7],[[232.26879,322.08739],[-0.94345,-0.02964],[0.85349,0.02682],7],[[233.97266,324.10589],[-0.57976,-0.66153],[2.19211,2.5013],7],[[238.11594,333.13512],[-1.403,-3.02244],[0.6275,1.33684],7],[[239.43678,337.22428],[-0.387,-1.39096],[0,0],7],[[239.56643,337.22428],[0,0],[0.34711,-1.27714],7],[[240.79712,333.46325],[-0.57807,1.23154],[1.403,-3.02244],7],[[244.94041,324.43401],[-2.19211,2.5013],[0.57976,-0.66153],7],[[246.64428,322.41552],[-0.85349,0.02682],[0.94345,-0.02964],7],[[248.42625,325.38478],[-0.25474,-0.81486],[0.0224,0.07166],7],[[248.47973,325.66809],[-0.01345,-0.11253],[0.26051,-1.2601],7],[[250.17379,322.13929],[-0.4413,1.03919],[1.51188,-3.56025],7],[[254.81564,313.68486],[-2.35521,2.31215],[0,0],7],[[254.65519,313.51554],[0,0],[0,0],7],[[255.89895,312.20304],[0,0],[0.16881,-0.17814],7],[[256.55855,311.91472],[-0.25759,0],[0.02035,0],7],[[256.61914,311.91676],[-0.02003,-0.00135],[1.55219,-4.83791],7],[[263.65093,297.0672],[-3.1216,4.13668],[0,0],7],[[263.45384,296.92855],[0,0],[0,0],7],[[264.48069,295.30313],[0,0],[0.16609,-0.27139],7],[[265.26486,294.85208],[-0.32893,0],[0.07496,0],7],[[265.48255,294.87903],[-0.06984,-0.01762],[1.23961,-4.87791],7],[[270.01974,280.29028],[-1.53136,4.78101],[-1.11507,-0.30226],7]],&quot;closed&quot;:true}]}" fill="url(#color-2)" stroke="none" stroke-width="0.5" stroke-linecap="butt"/><path d="M192.75459,277.96871c-1.77359,-1.35596 -3.42732,-2.84978 -5.33491,-4.03043c-5.75764,-4.8115 -12.98815,-8.03641 -19.36909,-11.98573c-4.56455,-2.82511 -9.35631,-5.28467 -13.9521,-8.08974c-0.96031,3.85074 -1.82351,7.90069 -3.01988,11.69603c0.05417,0.01718 0.10693,0.04118 0.15722,0.0723c0.22066,0.13657 0.34005,0.37716 0.33879,0.62818l0.01397,1.51676l-0.18978,0.01118c0.37655,4.07118 -0.4809,8.99143 -1.44834,12.88141c0.014,0.00741 0.02783,0.01533 0.04149,0.02379c0.17281,0.10695 0.2835,0.2777 0.32278,0.46729l0.28941,1.3969l-0.17793,0.04697c0.61998,2.52899 0.06764,4.58282 -0.39635,7.59895c-0.13543,0.88037 0.01971,2.11716 -0.32872,3.07066c0.05574,-0.06991 0.10873,-0.12908 0.15351,-0.16786c0.50922,-0.44088 1.80768,-1.66364 2.42828,-1.25204c0.56142,0.37236 0.19069,1.37704 0.30495,2.06155c0.43202,2.58816 -0.65573,5.16742 -0.96947,7.77755c-0.13411,1.15735 -0.49384,2.1978 -0.81176,3.29162l0.08697,0.05383c0.76313,-0.71265 1.48806,-1.42592 2.3872,-2.01209c2.19613,-1.44506 4.01937,-3.56912 6.52849,-4.33693c0.66359,-0.20307 1.39742,-0.98302 1.98111,-0.64664c0.64522,0.37184 0.13002,2.07939 -0.03743,2.7318c-0.01473,0.05738 -0.04404,0.13119 -0.08176,0.21227c0.69797,-0.73717 1.87411,-1.14999 2.60162,-1.66391c2.49246,-1.76064 4.08429,-3.17112 6.62429,-3.74432l-0.03733,-0.1802l1.37933,-0.36408c0.18721,-0.04941 0.3894,-0.02651 0.56221,0.08045c0.01366,0.00845 0.02692,0.0173 0.03979,0.02653c3.05001,-2.60103 7.07117,-5.56318 10.88285,-7.04216l-0.07464,-0.17485l1.36374,-0.66406c0.22411,-0.1131 0.49268,-0.11356 0.71334,0.02302c0.05029,0.03112 0.09531,0.06764 0.13485,0.10846c2.85692,-2.75764 6.08866,-5.33146 9.10107,-7.90296c-0.62255,-0.66575 -1.45547,-0.94435 -2.2078,-1.51952zM154.35881,252.19967c4.76481,2.94906 9.75939,5.49233 14.50923,8.43213c6.41198,3.96854 13.67488,7.21199 19.46066,12.047c1.91891,1.18766 3.58892,2.68771 5.3695,4.05613c0.99496,0.76466 1.97551,1.10109 2.763,2.13631l-0.08395,-0.11729c0,0 0.54213,0.33553 0.33995,0.88979c-0.03658,0.31925 -0.29602,0.54253 -0.29602,0.54253c-3.60573,3.09878 -7.43324,6.19627 -10.82427,9.51687l-0.13226,0.02202l0.01929,0.04519l-0.81524,0.39698c-0.22411,0.1131 -0.49268,0.11356 -0.71334,-0.02301c-0.1733,-0.10726 -0.28414,-0.27868 -0.32312,-0.46893c-0.58422,0.41614 -1.25477,0.70374 -1.96081,1.14755c-2.91601,1.83297 -5.97432,3.8337 -8.61584,6.06846l-0.10242,0.0163l0.01443,0.03379l-0.81525,0.39697c-0.22411,0.1131 -0.49268,0.11356 -0.71334,-0.02301c-0.19141,-0.11847 -0.30663,-0.31522 -0.33297,-0.52915c-1.10057,0.71549 -2.56287,0.98909 -3.68822,1.77087c-1.27923,0.88868 -2.37789,1.92768 -3.68817,2.78942c-0.74997,0.49324 -2.30216,2.01217 -3.28489,1.64626c-0.81665,-0.30407 -0.28188,-1.95987 -0.13754,-2.53606c0.04293,-0.17136 0.19065,-0.45959 0.33472,-0.71101c-0.58083,0.63858 -1.40988,0.57259 -2.1658,1.16064c-1.473,1.1459 -2.88012,2.36965 -4.43527,3.39884c-0.86638,0.55525 -1.56063,1.25711 -2.29527,1.95034c-0.01899,0.05958 -0.04554,0.11783 -0.07995,0.17343c-0.11415,0.18444 -0.29301,0.30443 -0.48908,0.34878c-0.0456,0.04028 -0.09154,0.08039 -0.13787,0.12031l-1.08173,-0.045c0,0 -0.34818,-0.2155 -0.35548,-0.59907c-0.09825,-0.08974 -0.18104,-0.22169 -0.22635,-0.41419c-0.00137,-0.00582 -0.00268,-0.01161 -0.00394,-0.01736l-0.21839,-0.39608c0.33317,-1.31076 0.83645,-2.50079 0.98147,-3.84351c0.22744,-1.85094 0.69505,-3.65618 1.06358,-5.48566c0.18912,-0.93885 -0.23975,-1.65142 0.0727,-2.45611c-0.16077,0.24109 -0.35285,0.50188 -0.48706,0.61673c-0.4513,0.3862 -1.6947,1.6034 -2.33113,1.00813c-0.76585,-0.71633 -0.09877,-2.78307 0.00815,-3.67432c0.18679,-1.55708 0.62663,-3.00384 0.85139,-4.54516c0.19773,-1.35592 -0.20967,-2.78672 -0.06023,-4.09089c-0.20323,0.07185 -0.4307,0.0565 -0.62213,-0.06198c-0.22066,-0.13657 -0.34005,-0.37716 -0.33879,-0.62818l-0.00835,-0.90672l0.03668,-0.00216l-0.03109,-0.09895c0.82184,-3.36101 1.2483,-6.99065 1.58811,-10.4181c0.08227,-0.82988 0.04057,-1.55831 0.15242,-2.26681c-0.18766,0.04998 -0.39052,0.02724 -0.56382,-0.08002c-0.22066,-0.13657 -0.34005,-0.37716 -0.33879,-0.62818l-0.00835,-0.90672l0.04905,-0.00289l-0.03929,-0.1282c1.45936,-4.51617 2.52431,-9.32347 3.68936,-13.93285c0,0 0.13186,-0.52017 0.59422,-0.6017c0.40586,-0.428 0.9479,-0.09252 0.9479,-0.09252z" fill="url(#color-3)" stroke="none" stroke-width="0.5" stroke-linecap="butt"/><path d="M195.01079,279.47932c-3.01241,2.57149 -6.24353,5.15854 -9.10045,7.91618c-0.03954,-0.04082 -0.18263,-0.08577 -0.23292,-0.11689c-0.22066,-0.13657 -0.39115,-0.1278 -0.61526,-0.01471l-1.36392,0.66588l0.0746,0.17523c-3.81168,1.47898 -7.84664,4.46932 -10.89664,7.07035c-0.01287,-0.00922 -0.02617,-0.01806 -0.03982,-0.0265c-0.1728,-0.10695 -0.37588,-0.12899 -0.56309,-0.07957l-1.38296,0.36723l0.03709,0.18039c-2.54,0.5732 -4.15742,1.99383 -6.64989,3.75448c-0.72752,0.51391 -1.91232,0.92678 -2.61028,1.66395c0.0377,-0.08108 0.07491,-0.25301 0.08964,-0.31039c0.16745,-0.65242 0.67429,-2.26188 0.02906,-2.63372c-0.5837,-0.33638 -1.32433,0.44246 -1.98793,0.64553c-2.50912,0.76781 -4.34469,2.88712 -6.54083,4.33219c-0.89915,0.58616 -1.62615,1.29824 -2.38929,2.01088l-0.08716,-0.05395c0.31792,-1.09381 0.67549,-2.13569 0.80959,-3.29304c0.31373,-2.61012 1.39158,-5.19851 0.95956,-7.78667c-0.11426,-0.6845 0.2524,-1.69495 -0.30904,-2.06731c-0.6206,-0.41161 -1.83459,0.76061 -2.34381,1.20149c-0.04479,0.03877 -0.18243,0.14814 -0.23818,0.21806c0.34844,-0.9535 0.18946,-2.19827 0.3249,-3.07864c0.46399,-3.01612 1.01437,-5.09779 0.3944,-7.62679l0.178,-0.04729l-0.28812,-1.40152c-0.03928,-0.18959 -0.14957,-0.36149 -0.32238,-0.46845c-0.01366,-0.00845 -0.02748,-0.01641 -0.04148,-0.02382c0.96744,-3.88998 1.84415,-8.83463 1.4676,-12.9058l0.19011,-0.01139l-0.01245,-1.51769c0.00125,-0.25103 -0.06782,-0.407 -0.28848,-0.54356c-0.05029,-0.03112 -0.15349,-0.13966 -0.20765,-0.15684c1.19636,-3.79535 2.07154,-7.85046 3.03186,-11.7012c4.59579,2.80507 9.41133,5.26391 13.97588,8.08902c6.38094,3.94932 13.64558,7.20149 19.40322,12.01298c1.90759,1.18065 3.56449,2.68345 5.33808,4.0394c0.75233,0.57517 1.58589,0.85675 2.20844,1.5225z" data-paper-data="{&quot;noHover&quot;:false,&quot;origItem&quot;:[&quot;Path&quot;,{&quot;applyMatrix&quot;:true,&quot;selected&quot;:true,&quot;segments&quot;:[[[260.89213,280.00882],[0.94242,0.09314],[-2.22172,-0.21958],7],[[254.23466,279.38935],[2.2434,0],[-7.42798,-1.06114],7],[[231.45706,279.3913],[7.50423,0],[-5.36809,0],7],[[215.33596,279.85521],[5.3841,-0.03349],[1.21,3.77972],7],[[218.92351,291.38978],[-0.98013,-3.85685],[0.0551,-0.0139],7],[[219.09525,291.36852],[-0.05914,0],[0.2595,0],7],[[219.71392,291.72438],[-0.13104,-0.21411],[0,0],7],[[220.52404,293.00673],[0,0],[0,0],7],[[220.36855,293.11612],[0,0],[2.46276,3.2636],7],[[225.91622,304.83157],[-1.22459,-3.81684],[0.0158,-0.00107],7],[[225.96402,304.82996],[-0.01606,0],[0.20323,0],7],[[226.48441,305.05743],[-0.13318,-0.14054],[0,0],7],[[227.46567,306.09292],[0,0],[0,0],7],[[227.33909,306.2265],[0,0],[1.85813,1.82415],7],[[231.00124,312.89656],[-1.19279,-2.80883],[0.34816,0.81986],7],[[232.33775,315.68058],[-0.20553,-0.99415],[0.01061,-0.08878],7],[[232.37994,315.45707],[-0.01768,0.05654],[0.20097,-0.64288],7],[[233.78581,313.11449],[-0.74433,-0.02339],[0.67335,0.02116],7],[[235.13007,314.70696],[-0.45739,-0.52191],[1.72945,1.97338],7],[[238.39889,321.83051],[-1.10689,-2.38453],[0.49506,1.05469],7],[[239.44095,325.05662],[-0.30532,-1.09739],[0,0],7],[[239.54324,325.05662],[0,0],[0.27385,-1.00759],7],[[240.51418,322.08938],[-0.45607,0.97162],[1.10689,-2.38453],7],[[243.783,314.96584],[-1.72945,1.97338],[0.45739,-0.52191],7],[[245.12725,313.37337],[-0.67336,0.02116],[0.74433,-0.02339],7],[[246.53313,315.71594],[-0.20097,-0.64288],[0.01767,0.05654],7],[[246.57532,315.93946],[-0.01061,-0.08878],[0.20553,-0.99415],7],[[247.91183,313.15544],[-0.34816,0.81986],[1.19278,-2.80883],7],[[251.57398,306.48537],[-1.85813,1.82415],[0,0],7],[[251.4474,306.35179],[0,0],[0,0],7],[[252.42865,305.3163],[0,0],[0.13318,-0.14054],7],[[252.94904,305.08883],[-0.20322,0],[0.01606,0],7],[[252.99685,305.09044],[-0.0158,-0.00107],[1.22459,-3.81684],7],[[258.54452,293.375],[-2.46276,3.2636],[0,0],7],[[258.38903,293.26561],[0,0],[0,0],7],[[259.19915,291.98325],[0,0],[0.13104,-0.21411],7],[[259.81782,291.6274],[-0.2595,0],[0.05914,0],7],[[259.98956,291.64866],[-0.0551,-0.0139],[0.97798,-3.84839],7],[[263.56914,280.13897],[-1.20816,3.77194],[-0.87973,-0.23846],7]],&quot;closed&quot;:true}]}" fill="url(#color-4)" stroke="none" stroke-width="0.5" stroke-linecap="butt"/><path d="M188.01722,274.93271c-1.31798,-1.00764 -2.54691,-2.11772 -3.96448,-2.99509c-4.27862,-3.57553 -9.65177,-5.97202 -14.39358,-8.90685c-3.39201,-2.0994 -6.95288,-3.92715 -10.36811,-6.01166c-0.71364,2.86156 -1.35509,5.87117 -2.24413,8.69156c0.04025,0.01276 0.07947,0.03061 0.11684,0.05373c0.16398,0.10149 0.25269,0.28027 0.25176,0.46681l0.01039,1.12713l-0.14103,0.00831c0.27982,3.02538 -0.35737,6.68172 -1.0763,9.57245c0.0104,0.00551 0.02068,0.01139 0.03083,0.01767c0.12842,0.07948 0.21068,0.20637 0.23988,0.34725l0.21506,1.03807l-0.13223,0.0349c0.46072,1.87935 0.05027,3.40561 -0.29453,5.64694c-0.10064,0.65423 0.01465,1.57331 -0.24428,2.28187c0.04142,-0.05196 0.0808,-0.09592 0.11407,-0.12474c0.37842,-0.32763 1.34332,-1.23629 1.8045,-0.93042c0.4172,0.27671 0.14171,1.02332 0.22662,1.53198c0.32104,1.92332 -0.48729,3.84001 -0.72044,5.77966c-0.09966,0.86005 -0.36699,1.63322 -0.60323,2.44607l0.06464,0.04001c0.56709,-0.52958 1.10581,-1.05964 1.77398,-1.49523c1.63199,-1.07386 2.98687,-2.65228 4.85145,-3.22286c0.49313,-0.1509 1.03845,-0.73051 1.47221,-0.48054c0.47947,0.27632 0.09663,1.54523 -0.0278,2.03006c-0.01095,0.04263 -0.03274,0.09749 -0.06076,0.15774c0.51867,-0.54781 1.39269,-0.85458 1.93332,-1.23648c1.8522,-1.30837 3.03511,-2.35652 4.92264,-2.78248l-0.02775,-0.13392l1.02501,-0.27056c0.13912,-0.03672 0.28937,-0.0197 0.41778,0.05978c0.01014,0.00628 0.02001,0.01286 0.02958,0.01972c2.26653,-1.93287 5.25473,-4.13412 8.08728,-5.23318l-0.05547,-0.12993l1.01342,-0.49347c0.16654,-0.08404 0.36613,-0.08439 0.5301,0.0171c0.03737,0.02313 0.07083,0.05027 0.1002,0.0806c2.12304,-2.04926 4.52461,-3.96192 6.7632,-5.87286c-0.46262,-0.49474 -1.08158,-0.70176 -1.64065,-1.12919zM159.4845,255.78319c3.54083,2.19151 7.2524,4.08148 10.78211,6.2661c4.76488,2.94911 10.16209,5.35938 14.46162,8.95238c1.42598,0.88258 2.66701,1.99729 3.99019,3.0142c0.73938,0.56824 1.46804,0.81825 2.05325,1.58754l-0.06238,-0.08715c0,0 0.40287,0.24934 0.25263,0.66122c-0.02718,0.23724 -0.21998,0.40316 -0.21998,0.40316c-2.6795,2.30277 -5.5238,4.60457 -8.04374,7.0722l-0.0983,0.01636l0.01433,0.03358l-0.60583,0.295c-0.16654,0.08404 -0.36613,0.08439 -0.5301,-0.0171c-0.12879,-0.07971 -0.21115,-0.2071 -0.24011,-0.34847c-0.43415,0.30923 -0.93245,0.52297 -1.45713,0.85276c-2.16694,1.36212 -4.43963,2.8489 -6.40261,4.50959l-0.07611,0.01212l0.01072,0.02511l-0.60583,0.29499c-0.16654,0.08404 -0.36612,0.08439 -0.5301,-0.0171c-0.14225,-0.08804 -0.22786,-0.23424 -0.24744,-0.39323c-0.81786,0.5317 -1.90452,0.73501 -2.74079,1.31597c-0.95062,0.6604 -1.76706,1.43249 -2.74076,2.07287c-0.55733,0.36653 -1.71078,1.49529 -2.44107,1.22337c-0.60686,-0.22596 -0.20947,-1.45642 -0.10221,-1.88459c0.0319,-0.12734 0.14168,-0.34153 0.24874,-0.52837c-0.43163,0.47455 -1.04771,0.42551 -1.60945,0.86249c-1.09462,0.85154 -2.14027,1.76094 -3.29593,2.52575c-0.64382,0.41261 -1.15974,0.93418 -1.70566,1.44933c-0.01411,0.04429 -0.03384,0.08756 -0.0594,0.12887c-0.08483,0.13706 -0.21774,0.22622 -0.36345,0.25918c-0.03389,0.02994 -0.06803,0.05974 -0.10246,0.0894l-0.80386,-0.03344c0,0 -0.25873,-0.16013 -0.26417,-0.44517c-0.07301,-0.06669 -0.13454,-0.16475 -0.16821,-0.3078c-0.00102,-0.00432 -0.002,-0.00863 -0.00293,-0.0129l-0.1623,-0.29433c0.24759,-0.97405 0.62159,-1.85839 0.72935,-2.85619c0.16901,-1.37547 0.5165,-2.71698 0.79037,-4.07651c0.14054,-0.69768 -0.17815,-1.2272 0.05403,-1.82518c-0.11947,0.17916 -0.2622,0.37296 -0.36194,0.45831c-0.33537,0.28699 -1.25937,1.19151 -1.73231,0.74916c-0.56912,-0.53232 -0.0734,-2.06815 0.00606,-2.73046c0.13881,-1.1571 0.46566,-2.23222 0.63269,-3.37761c0.14693,-1.00761 -0.15581,-2.07087 -0.04476,-3.04002c-0.15102,0.05339 -0.32006,0.04198 -0.46231,-0.04606c-0.16398,-0.10149 -0.25269,-0.28027 -0.25176,-0.46681l-0.00621,-0.6738l0.02726,-0.00161l-0.0231,-0.07352c0.61072,-2.49764 0.92764,-5.19491 1.18015,-7.74191c0.06114,-0.6167 0.03015,-1.15801 0.11326,-1.68452c-0.13946,0.03713 -0.2902,0.02024 -0.41898,-0.05947c-0.16398,-0.10149 -0.25269,-0.28027 -0.25176,-0.46681l-0.00621,-0.6738l0.03645,-0.00215l-0.0292,-0.09527c1.08448,-3.35606 1.87587,-6.92847 2.74165,-10.3538c0,0 0.09799,-0.38654 0.44158,-0.44714c0.3016,-0.31805 0.7044,-0.06875 0.7044,-0.06875z" fill="url(#color-5)" stroke="none" stroke-width="0.5" stroke-linecap="butt"/><path d="M189.70629,276.053c-2.23858,1.91093 -4.63955,3.83681 -6.76257,5.88607c-0.02938,-0.03034 -0.16091,-0.0659 -0.19829,-0.08903c-0.16398,-0.10149 -0.26547,-0.09284 -0.43201,-0.0088l-1.01361,0.4953l0.05542,0.13032c-2.83254,1.09906 -5.83454,3.3285 -8.10106,5.26137c-0.00957,-0.00685 -0.01946,-0.01341 -0.0296,-0.01969c-0.12842,-0.07948 -0.27955,-0.09563 -0.41867,-0.05891l-1.02864,0.27371l0.0275,0.13411c-1.88754,0.42596 -3.09605,1.48426 -4.94826,2.79264c-0.54064,0.3819 -1.42332,0.68873 -1.94199,1.23654c0.02802,-0.06025 0.05768,-0.21322 0.06864,-0.25586c0.12443,-0.48483 0.49893,-1.65567 0.01946,-1.93199c-0.43376,-0.24998 -0.98589,0.32852 -1.47902,0.47943c-1.86458,0.57058 -3.23181,2.14426 -4.8638,3.21812c-0.66817,0.43559 -1.20897,0.96444 -1.77606,1.49402l-0.06482,-0.04012c0.23625,-0.81284 0.50142,-1.58743 0.60108,-2.44749c0.23314,-1.93964 1.03157,-3.86547 0.71053,-5.78879c-0.08491,-0.50867 0.18651,-1.26103 -0.2307,-1.53774c-0.46118,-0.30587 -1.34162,0.55224 -1.72004,0.87987c-0.03327,0.02881 -0.15733,0.12299 -0.19875,0.17494c0.25893,-0.70857 0.1398,-1.63562 0.24045,-2.28985c0.34481,-2.24134 0.7533,-3.79544 0.29259,-5.67479l0.1323,-0.03522l-0.21377,-1.04269c-0.02919,-0.14089 -0.11105,-0.26892 -0.23947,-0.3484c-0.01014,-0.00628 -0.02041,-0.0122 -0.03082,-0.0177c0.71893,-2.89073 1.37537,-6.57145 1.09555,-9.59683l0.14135,-0.00852l-0.00886,-1.12808c0.00093,-0.18654 -0.03747,-0.28071 -0.20145,-0.3822c-0.03737,-0.02313 -0.12702,-0.1255 -0.16727,-0.13827c0.88904,-2.82041 1.54249,-5.83517 2.25612,-8.69674c3.41522,2.0845 6.99987,3.91154 10.39188,6.01094c4.7418,2.93482 10.14909,5.35858 14.42771,8.9341c1.41757,0.87737 2.64967,1.99643 3.96766,3.00407c0.55907,0.42743 1.17867,0.63742 1.6413,1.13215z" data-paper-data="{&quot;noHover&quot;:false,&quot;origItem&quot;:[&quot;Path&quot;,{&quot;applyMatrix&quot;:true,&quot;selected&quot;:true,&quot;segments&quot;:[[[255.26611,279.92046],[0.70033,0.06922],[-1.651,-0.16318],7],[[250.3188,279.46012],[1.66712,0],[-5.51989,-0.78856],7],[[233.39228,279.46157],[5.57655,0],[-3.98914,0],7],[[221.41235,279.80631],[4.00103,-0.02489],[0.89917,2.80879],7],[[224.07834,288.37789],[-0.72836,-2.86611],[0.04094,-0.01033],7],[[224.20596,288.36209],[-0.04395,0],[0.19284,0],7],[[224.66571,288.62654],[-0.09738,-0.15911],[0,0],7],[[225.26772,289.57948],[0,0],[0,0],7],[[225.15217,289.66077],[0,0],[1.83013,2.42525],7],[[229.27477,298.36677],[-0.91002,-2.83637],[0.01174,-0.00079],7],[[229.31029,298.36557],[-0.01193,0],[0.15102,0],7],[[229.69701,298.53461],[-0.09897,-0.10444],[0,0],7],[[230.4262,299.30411],[0,0],[0,0],7],[[230.33213,299.40337],[0,0],[1.38082,1.35557],7],[[233.05355,304.36004],[-0.88638,-2.0873],[0.25873,0.60926],7],[[234.04674,306.4289],[-0.15274,-0.73877],[0.00788,-0.06598],7],[[234.0781,306.2628],[-0.01313,0.04201],[0.14935,-0.47774],7],[[235.12283,304.52198],[-0.55312,-0.01738],[0.50038,0.01572],7],[[236.12177,305.70538],[-0.3399,-0.38784],[1.28519,1.46646],7],[[238.5509,310.99904],[-0.82255,-1.772],[0.36789,0.78376],7],[[239.32528,313.39643],[-0.22689,-0.8155],[0,0],7],[[239.40129,313.39643],[0,0],[0.2035,-0.74876],7],[[240.12282,311.19141],[-0.33891,0.72203],[0.82255,-1.772],7],[[242.55195,305.89776],[-1.28519,1.46646],[0.3399,-0.38784],7],[[243.55089,304.71436],[-0.50039,0.01572],[0.55312,-0.01738],7],[[244.59563,306.45518],[-0.14935,-0.47774],[0.01313,0.04201],7],[[244.62698,306.62127],[-0.00788,-0.06598],[0.15273,-0.73877],7],[[245.62017,304.55241],[-0.25873,0.60926],[0.88638,-2.0873],7],[[248.34159,299.59575],[-1.38082,1.35557],[0,0],7],[[248.24753,299.49648],[0,0],[0,0],7],[[248.97672,298.72698],[0,0],[0.09897,-0.10444],7],[[249.36343,298.55794],[-0.15102,0],[0.01193,0],7],[[249.39896,298.55914],[-0.01174,-0.00079],[0.91002,-2.83637],7],[[253.52155,289.85315],[-1.83013,2.42525],[0,0],7],[[253.406,289.77186],[0,0],[0,0],7],[[254.00801,288.81891],[0,0],[0.09738,-0.15911],7],[[254.46776,288.55447],[-0.19284,0],[0.04395,0],7],[[254.59539,288.57027],[-0.04095,-0.01033],[0.72676,-2.85982],7],[[257.25545,280.01718],[-0.89781,2.80301],[-0.65374,-0.17721],7]],&quot;closed&quot;:true}]}" fill="url(#color-6)" stroke="none" stroke-width="0.5" stroke-linecap="butt"/><path d="M182.98953,271.87984c-0.82318,-0.62935 -1.59074,-1.32269 -2.47613,-1.87068c-2.67233,-2.23318 -6.02828,-3.72998 -8.98991,-5.56301c-2.11858,-1.31124 -4.34261,-2.45282 -6.47568,-3.75474c-0.44572,1.78727 -0.84636,3.667 -1.40164,5.42855c0.02514,0.00797 0.04963,0.01911 0.07297,0.03356c0.10241,0.06338 0.15783,0.17505 0.15724,0.29156l0.00649,0.70398l-0.08809,0.00519c0.17477,1.88959 -0.22321,4.17325 -0.67223,5.97874c0.00649,0.00344 0.01292,0.00712 0.01927,0.01104c0.0802,0.04964 0.13158,0.12888 0.14981,0.21688l0.13433,0.64836l-0.08258,0.0218c0.28775,1.17381 0.03139,2.12706 -0.18396,3.52695c-0.06286,0.40861 0.00915,0.98265 -0.15257,1.4252c0.02587,-0.03245 0.05047,-0.05991 0.07125,-0.0779c0.23635,-0.20463 0.83901,-0.77216 1.12706,-0.58111c0.26058,0.17283 0.08851,0.63914 0.14154,0.95684c0.20052,1.20126 -0.30435,2.39839 -0.44996,3.60985c-0.06225,0.53717 -0.22922,1.02008 -0.37677,1.52777l0.04037,0.02499c0.3542,-0.33076 0.69066,-0.66183 1.10799,-0.93389c1.01931,-0.67071 1.86554,-1.65655 3.03012,-2.01292c0.308,-0.09426 0.6486,-0.45626 0.91951,-0.30013c0.29947,0.17259 0.06035,0.96512 -0.01737,1.26794c-0.00683,0.02663 -0.02045,0.06088 -0.03795,0.09851c0.32395,-0.34215 0.86984,-0.53374 1.20752,-0.77227c1.15684,-0.81718 1.89566,-1.47183 3.07458,-1.73787l-0.01733,-0.08364l0.6402,-0.16898c0.08688,-0.02294 0.18074,-0.0123 0.26094,0.03734c0.00633,0.00392 0.01249,0.00804 0.01847,0.01232c1.41562,-1.20722 3.28199,-2.58208 5.05114,-3.26853l-0.03465,-0.08115l0.63296,-0.30822c0.10402,-0.05249 0.22867,-0.0527 0.33109,0.01069c0.02334,0.01445 0.04424,0.0314 0.06258,0.05034c1.326,-1.27993 2.82596,-2.47453 4.22414,-3.66806c-0.28894,-0.309 -0.67553,-0.43831 -1.02472,-0.70527zM165.16865,259.9195c2.21152,1.36876 4.52968,2.54919 6.73425,3.91366c2.97604,1.84195 6.34701,3.34734 9.0324,5.59145c0.89063,0.55124 1.66574,1.24747 2.49218,1.88261c0.46179,0.35491 0.91691,0.51106 1.28242,0.99154l-0.03897,-0.05443c0,0 0.25163,0.15573 0.1578,0.41298c-0.01697,0.14818 -0.1374,0.25181 -0.1374,0.25181c-1.67354,1.43826 -3.45004,2.87591 -5.02394,4.41713l-0.06139,0.01022l0.00895,0.02097l-0.37839,0.18425c-0.10402,0.05249 -0.22867,0.0527 -0.33109,-0.01069c-0.08044,-0.04979 -0.13188,-0.12935 -0.14997,-0.21764c-0.27116,0.19315 -0.58238,0.32662 -0.91009,0.53261c-1.35342,0.85075 -2.7729,1.77936 -3.99893,2.81659l-0.04754,0.00757l0.00669,0.01569l-0.37839,0.18424c-0.10402,0.05249 -0.22867,0.0527 -0.33109,-0.01069c-0.08884,-0.05498 -0.14231,-0.14631 -0.15455,-0.2456c-0.51081,0.33209 -1.18952,0.45908 -1.71183,0.82193c-0.59374,0.41247 -1.10367,0.89471 -1.71181,1.29466c-0.34809,0.22893 -1.06852,0.93392 -1.52464,0.76409c-0.37903,-0.14113 -0.13083,-0.90965 -0.06384,-1.17707c0.01993,-0.07953 0.08848,-0.21331 0.15536,-0.33c-0.26959,0.29639 -0.65437,0.26576 -1.00522,0.53869c-0.68368,0.53185 -1.33676,1.09984 -2.05857,1.57753c-0.40212,0.25771 -0.72434,0.58347 -1.06532,0.90523c-0.00882,0.02766 -0.02114,0.05469 -0.0371,0.08049c-0.05299,0.08561 -0.136,0.1413 -0.22701,0.16188c-0.02117,0.0187 -0.04249,0.03732 -0.06399,0.05584l-0.50207,-0.02088c0,0 -0.1616,-0.10002 -0.165,-0.27805c-0.0456,-0.04165 -0.08403,-0.10289 -0.10506,-0.19224c-0.00064,-0.0027 -0.00124,-0.00539 -0.00183,-0.00806l-0.10137,-0.18383c0.15464,-0.60837 0.38823,-1.16071 0.45554,-1.78391c0.10556,-0.85908 0.3226,-1.69696 0.49364,-2.5461c0.08778,-0.43575 -0.11127,-0.76648 0.03374,-1.13997c-0.07462,0.1119 -0.16377,0.23294 -0.22606,0.28625c-0.20946,0.17925 -0.78657,0.74419 -1.08196,0.46791c-0.35546,-0.33247 -0.04584,-1.29172 0.00378,-1.70538c0.0867,-0.72269 0.29084,-1.39419 0.39516,-2.10958c0.09177,-0.62933 -0.09732,-1.29342 -0.02795,-1.89873c-0.09433,0.03335 -0.1999,0.02622 -0.28875,-0.02877c-0.10241,-0.06338 -0.15783,-0.17506 -0.15724,-0.29157l-0.00388,-0.42084l0.01703,-0.00101l-0.01443,-0.04592c0.38144,-1.55996 0.57939,-3.24463 0.7371,-4.83542c0.03819,-0.38518 0.01883,-0.72327 0.07074,-1.05211c-0.0871,0.0232 -0.18125,0.01264 -0.26169,-0.03714c-0.10241,-0.06338 -0.15783,-0.17505 -0.15725,-0.29156l-0.00388,-0.42085l0.02276,-0.00134l-0.01823,-0.05951c0.67733,-2.09612 1.17162,-4.32736 1.71237,-6.46674c0,0 0.0612,-0.24143 0.2758,-0.27928c0.18837,-0.19865 0.43995,-0.04294 0.43995,-0.04294z" fill="url(#color-7)" stroke="none" stroke-width="0.5" stroke-linecap="butt"/><path d="M184.19424,272.36363c-1.39817,1.19353 -2.89752,2.40135 -4.22352,3.68127c-0.01835,-0.01894 -0.13732,-0.04432 -0.16066,-0.05877c-0.10241,-0.06338 -0.12899,-0.05487 -0.233,-0.00238l-0.63314,0.31004l0.0346,0.08154c-1.76914,0.68645 -3.6493,2.08949 -5.06492,3.29671c-0.00598,-0.00427 -0.01216,-0.00837 -0.0185,-0.01229c-0.0802,-0.04964 -0.17494,-0.0594 -0.26182,-0.03647l-0.64383,0.17215l0.01708,0.08383c-1.17891,0.26605 -1.94333,0.93084 -3.10017,1.74803c-0.33766,0.23853 -0.89222,0.43018 -1.21618,0.77233c0.0175,-0.03763 0.03899,-0.17001 0.04583,-0.19664c0.07772,-0.30282 0.30849,-0.99727 0.00902,-1.16985c-0.27091,-0.15613 -0.61832,0.20476 -0.92632,0.29902c-1.16457,0.35637 -2.02314,1.33748 -3.04245,2.00818c-0.41733,0.27205 -0.75587,0.60192 -1.11006,0.93268l-0.04056,-0.0251c0.14756,-0.50768 0.31236,-0.99201 0.37461,-1.52918c0.14561,-1.21146 0.64059,-2.41771 0.44007,-3.61897c-0.05303,-0.3177 0.11495,-0.78976 -0.14563,-0.96259c-0.28805,-0.19104 -0.80624,0.32594 -1.04259,0.53057c-0.02078,0.018 -0.13006,0.09567 -0.15592,0.12811c0.16172,-0.44256 0.08588,-1.02456 0.14874,-1.43318c0.21536,-1.39989 0.46976,-2.38099 0.18201,-3.5548l0.08266,-0.02211l-0.13303,-0.65298c-0.01823,-0.088 -0.06922,-0.1684 -0.14942,-0.21804c-0.00633,-0.00392 -0.01275,-0.00764 -0.01925,-0.01107c0.44902,-1.80548 0.86625,-4.11354 0.69148,-6.00312l0.08841,-0.0054l-0.00496,-0.70493c0.00059,-0.11651 -0.00452,-0.14357 -0.10693,-0.20695c-0.02334,-0.01445 -0.09827,-0.11012 -0.12341,-0.1181c0.55528,-1.76156 0.9679,-3.64646 1.41362,-5.43373c2.13307,1.30193 4.38089,2.44279 6.49946,3.75402c2.96162,1.83302 6.3517,3.35707 9.02403,5.59026c0.88539,0.54799 1.65612,1.25029 2.4793,1.87965c0.34918,0.26696 0.73641,0.39924 1.02536,0.70823z" data-paper-data="{&quot;noHover&quot;:false,&quot;origItem&quot;:[&quot;Path&quot;,{&quot;applyMatrix&quot;:true,&quot;selected&quot;:true,&quot;segments&quot;:[[[249.38434,279.97054],[0.43741,0.04323],[-1.03118,-0.10192],7],[[246.29437,279.68302],[1.04125,0],[-3.44759,-0.49251],7],[[235.72245,279.68393],[3.48298,0],[-2.49153,0],7],[[228.24006,279.89925],[2.49895,-0.01555],[0.5616,1.75431],7],[[229.90517,285.25286],[-0.45491,-1.79011],[0.02557,-0.00645],7],[[229.98489,285.24299],[-0.02745,0],[0.12044,0],7],[[230.27203,285.40816],[-0.06082,-0.09938],[0,0],7],[[230.64804,286.00335],[0,0],[0,0],7],[[230.57587,286.05412],[0,0],[1.14306,1.51476],7],[[233.15075,291.49168],[-0.56838,-1.77153],[0.00733,-0.00049],7],[[233.17294,291.49094],[-0.00745,0],[0.09432,0],7],[[233.41447,291.59651],[-0.06181,-0.06523],[0,0],7],[[233.8699,292.07712],[0,0],[0,0],7],[[233.81115,292.13912],[0,0],[0.86243,0.84666],7],[[235.51089,295.23494],[-0.55361,-1.30368],[0.16159,0.38053],7],[[236.13121,296.5271],[-0.0954,-0.46142],[0.00492,-0.04121],7],[[236.1508,296.42337],[-0.0082,0.02624],[0.09328,-0.29839],7],[[236.80331,295.33609],[-0.34547,-0.01085],[0.31253,0.00982],7],[[237.42723,296.07521],[-0.21229,-0.24224],[0.8027,0.91592],7],[[238.94441,299.38151],[-0.51375,-1.10675],[0.22977,0.48952],7],[[239.42806,300.87887],[-0.14171,-0.50934],[0,0],7],[[239.47554,300.87887],[0,0],[0.12711,-0.46766],7],[[239.92619,299.50166],[-0.21168,0.45096],[0.51375,-1.10675],7],[[241.44337,296.19537],[-0.8027,0.91592],[0.21229,-0.24224],7],[[242.06729,295.45624],[-0.31253,0.00982],[0.34547,-0.01085],7],[[242.7198,296.54352],[-0.09328,-0.29839],[0.0082,0.02624],7],[[242.73939,296.64726],[-0.00492,-0.04121],[0.09539,-0.46142],7],[[243.35971,295.3551],[-0.16159,0.38053],[0.55361,-1.30368],7],[[245.05945,292.25928],[-0.86243,0.84666],[0,0],7],[[245.0007,292.19728],[0,0],[0,0],7],[[245.45613,291.71667],[0,0],[0.06181,-0.06523],7],[[245.69766,291.61109],[-0.09432,0],[0.00745,0],7],[[245.71985,291.61184],[-0.00733,-0.00049],[0.56838,-1.77153],7],[[248.29473,286.17427],[-1.14306,1.51476],[0,0],7],[[248.22256,286.1235],[0,0],[0,0],7],[[248.59857,285.52831],[0,0],[0.06082,-0.09938],7],[[248.88572,285.36315],[-0.12044,0],[0.02745,0],7],[[248.96543,285.37302],[-0.02557,-0.00645],[0.45391,-1.78618],7],[[250.62684,280.03095],[-0.56075,1.7507],[-0.40831,-0.11068],7]],&quot;closed&quot;:true}]}" fill="url(#color-8)" stroke="none" stroke-width="0.5" stroke-linecap="butt"/><g><path d="M205.09573,250.26059l10.08744,-16.40915l4.96091,3.0497l-10.08744,16.40914z" fill="url(#color-9)" stroke="url(#color-10)" stroke-width="1.5" stroke-linecap="butt"/><path d="M142.85172,249.81476c0,0 60.76822,-47.61505 68.24703,-42.39894c8.55561,5.9671 -7.02868,80.03262 -7.02868,80.03262z" fill="url(#color-11)" stroke="url(#color-12)" stroke-width="1.5" stroke-linecap="butt"/><path d="M212.41178,227.24008l-19.462,-11.96417" fill="none" stroke="url(#color-13)" stroke-width="5" stroke-linecap="round"/><path d="M178.98763,223.87475l31.29184,19.23651" fill="none" stroke="url(#color-14)" stroke-width="5" stroke-linecap="round"/><path d="M165.24331,234.39322l42.00945,25.8251" fill="none" stroke="url(#color-15)" stroke-width="5" stroke-linecap="round"/><path d="M151.42366,245.31083l53.4251,32.84282" fill="none" stroke="url(#color-16)" stroke-width="5" stroke-linecap="round"/><path d="M230.82424,232.36002c-4.52596,7.23267 -5.18714,7.89779 -12.62784,3.2175c-7.44309,-4.68178 -7.16912,-5.87045 -2.83019,-12.72025c4.79045,-7.56263 5.09451,-8.1061 12.62784,-3.2175c7.21794,4.68394 7.80015,4.77804 2.83019,12.72025z" fill="url(#color-17)" stroke="url(#color-18)" stroke-width="1.5" stroke-linecap="butt"/><path d="M233.89249,239.60452l38.03417,-61.86983c0,0 -17.74564,46.31822 -21.18791,58.01921c-2.72344,9.25755 -4.80195,30.77856 -4.80195,30.77856z" fill="url(#color-19)" stroke="url(#color-20)" stroke-width="1.5" stroke-linecap="butt"/><path d="M144.28591,203.60491c0,0 18.26448,-11.57074 25.29531,-18.18037c8.88654,-8.35418 42.20394,-45.09971 42.20394,-45.09971l-38.03417,61.86983z" data-paper-data="{&quot;index&quot;:null}" fill="url(#color-21)" stroke="url(#color-22)" stroke-width="1.5" stroke-linecap="butt"/><path d="M173.36253,202.63767l61.01555,-99.25342l60.49388,37.18832l-61.01555,99.25342z" fill="url(#color-23)" stroke="url(#color-24)" stroke-width="1.5" stroke-linecap="butt"/><path d="M234.21549,102.42146c0,0 60.45023,-47.81054 67.92904,-42.59443c8.55561,5.9671 -6.71069,80.22811 -6.71069,80.22811z" fill="url(#color-25)" stroke="url(#color-26)" stroke-width="1.5" stroke-linecap="butt"/><path d="M277.62234,71.70449l2.50114,-1.70376l23.46807,14.33659l-0.4465,3.05715z" fill="url(#color-27)" stroke="url(#color-28)" stroke-width="0" stroke-linecap="butt"/><path d="M291.24991,103.84928c-3.7997,6.18094 -11.99279,8.04853 -18.29976,4.17135c-6.30696,-3.87717 -8.3395,-12.0309 -4.5398,-18.21185c3.7997,-6.18094 11.99279,-8.04853 18.29976,-4.17135c6.30696,3.87717 8.33951,12.0309 4.5398,18.21186z" fill="url(#color-29)" stroke="url(#color-30)" stroke-width="1.5" stroke-linecap="butt"/><path d="M279.71178,69.04215c0,0 20.39995,-12.84284 23.43972,-10.78939c3.47743,2.34911 1.20786,25.94137 1.20786,25.94137z" fill="url(#color-31)" stroke="url(#color-32)" stroke-width="1.5" stroke-linecap="butt"/><path d="M227.11661,187.83988l15.18677,-24.70417l23.72785,14.58658l-15.18677,24.70417z" fill="url(#color-33)" stroke="url(#color-34)" stroke-width="1.5" stroke-linecap="butt"/><path d="M265.70089,177.99361l-38.44742,9.48062" fill="none" stroke="url(#color-35)" stroke-width="1.5" stroke-linecap="round"/><path d="M242.416,163.34819l8.43656,38.79906" fill="none" stroke="url(#color-36)" stroke-width="1.5" stroke-linecap="round"/><path d="M198.68326,170.5262l15.18677,-24.70417l23.72785,14.58658l-15.18677,24.70417z" fill="url(#color-37)" stroke="url(#color-38)" stroke-width="1.5" stroke-linecap="butt"/><path d="M198.82011,170.16056l38.44742,-9.48062" fill="none" stroke="url(#color-39)" stroke-width="1.5" stroke-linecap="round"/><path d="M213.98263,146.03448l8.43656,38.79906" fill="none" stroke="url(#color-40)" stroke-width="1.5" stroke-linecap="round"/><path d="M209.52224,216.46047l15.18677,-24.70417l23.72785,14.58658l-15.18677,24.70417z" fill="url(#color-41)" stroke="url(#color-42)" stroke-width="1.5" stroke-linecap="butt"/><path d="M209.65909,216.09484l38.44741,-9.48062" fill="none" stroke="url(#color-43)" stroke-width="1.5" stroke-linecap="round"/><path d="M233.25819,230.76785l-8.43657,-38.79905" fill="none" stroke="url(#color-44)" stroke-width="1.5" stroke-linecap="round"/><path d="M181.08888,199.1468l15.18677,-24.70417l23.72785,14.58658l-15.18677,24.70417z" fill="url(#color-45)" stroke="url(#color-46)" stroke-width="1.5" stroke-linecap="butt"/><path d="M219.67315,189.30054l-38.44741,9.48062" fill="none" stroke="url(#color-47)" stroke-width="1.5" stroke-linecap="round"/><path d="M196.38827,174.65508l8.43656,38.79906" fill="none" stroke="url(#color-48)" stroke-width="1.5" stroke-linecap="round"/><path d="M216.23508,139.7625l18.29814,-29.76541l53.99753,33.19471l-18.29814,29.76541z" fill="url(#color-49)" stroke="url(#color-50)" stroke-width="1.5" stroke-linecap="butt"/><path d="M283.12958,144.21516l-47.9978,-29.50641" fill="none" stroke="url(#color-51)" stroke-width="1.5" stroke-linecap="round"/><path d="M268.30189,167.69291l-47.24782,-29.04537" fill="none" stroke="url(#color-52)" stroke-width="1.5" stroke-linecap="round"/><path d="M280.05394,120.62861l-21.56085,-13.25443" fill="none" stroke="url(#color-53)" stroke-width="1.5" stroke-linecap="round"/><path d="M260.25252,104.51212l21.56085,13.25442" fill="none" stroke="url(#color-54)" stroke-width="1.5" stroke-linecap="round"/><path d="M256.73365,110.23624l21.56085,13.25442" fill="none" stroke="url(#color-55)" stroke-width="1.5" stroke-linecap="round"/></g><path d="M267.79486,210.91902l26.45362,-52.25439l34.65098,17.542l-26.45362,52.25439z" fill="url(#color-56)" stroke="#ed6b00" stroke-width="0" stroke-linecap="butt"/><path d="M306.42319,172.83092l4.39649,-7.72516l8.63304,4.91312l-4.39649,7.72516z" fill="url(#color-57)" stroke="#000000" stroke-width="0" stroke-linecap="butt"/><g><path d="M293.36016,254.2333c0,0 1.79047,-33.42511 1.29789,-39.22914c-0.16111,-1.89781 -4.12691,-2.51284 -4.12691,-2.51284c0,0 -3.20247,-5.95312 1.46848,-5.36478c3.94773,0.49726 12.2893,4.40208 12.2893,4.40208l-0.62701,44.00221z" data-paper-data="{&quot;index&quot;:null}" fill="#4a433c" stroke="#000000" stroke-width="0" stroke-linecap="butt"/><path d="M309.93886,265.48161c-0.76309,-0.09603 -3.40589,-0.41118 -6.0447,-0.84887c-1.60449,-0.26623 -2.34825,-1.10366 -3.52663,-1.43891c-1.48333,-0.42212 -3.8184,-0.19267 -4.88048,-0.57686c-1.95719,-0.708 -2.93056,-1.38633 -2.93056,-1.38633c0,0 -0.1801,-1.36364 -0.11045,-2.0876c0.09386,-0.97549 0.62287,-3.23906 0.62287,-3.23906c0,0 7.6582,0.80819 10.60556,1.44146c1.744,0.37474 5.35385,1.52014 5.35385,1.52014c0,0 1.77931,1.02911 1.98491,1.61375c0.25209,0.71598 0.80141,2.70134 0.80141,2.70134c0,0 -0.81106,2.43486 -1.87545,2.30081z" data-paper-data="{&quot;index&quot;:null}" fill="#140d0d" stroke="#000000" stroke-width="0" stroke-linecap="butt"/><path d="M310.00765,262.12345c-0.31951,-0.04025 0.64436,2.17552 -3.5862,1.29148c-3.99524,-0.83478 -3.38122,-1.97968 -4.78996,-2.26252c-2.94545,-0.59136 -3.42737,0.34639 -4.68946,-0.01259c-0.43958,-0.12505 -0.64135,-0.23051 -2.13977,-1.5384c-1.03058,-0.89944 -0.57287,-2.36221 -1.24307,-3.26797c-0.97903,-1.32302 -0.7349,-2.55862 -0.7349,-2.55862l0.39586,-3.93551c0,0 0.26816,2.91954 1.21454,4.1167c0.84664,1.07121 2.98545,0.35146 3.60811,0.42971c1.09028,0.13704 -0.35691,-4.31848 0.68254,-4.16365c0.55891,0.08315 4.83004,0.30226 4.83004,0.30226c0,0 -0.42207,4.62816 -0.1255,4.69181c1.744,0.37474 5.82206,1.57921 5.82206,1.57921c0,0 1.77931,1.02911 1.98493,1.61363c0.25209,0.71598 0.33207,3.91079 0.33207,3.91079c0,0 -0.49657,-0.06242 -1.56091,-0.19655z" data-paper-data="{&quot;index&quot;:null}" fill="#1f261f" stroke="#000000" stroke-width="0" stroke-linecap="butt"/><path d="M300.86822,257.12938l3.61094,-0.97228" fill="none" stroke="#ffb5b5" stroke-width="0.5" stroke-linecap="round"/><path d="M306.82061,256.45223l-3.51388,1.46014" fill="none" stroke="#bffdff" stroke-width="0.5" stroke-linecap="round"/><path d="M306.07704,258.57836l2.10888,-1.63701" fill="none" stroke="#eaffc1" stroke-width="0.5" stroke-linecap="round"/><path d="M299.93667,251.93808l2.8489,0.04173" fill="none" stroke="#8d967b" stroke-width="0.5" stroke-linecap="round"/><path d="M302.97961,252.95561l-2.5564,0.15375" fill="none" stroke="#767796" stroke-width="0.5" stroke-linecap="round"/></g><g data-paper-data="{&quot;index&quot;:null}" stroke="#000000" stroke-width="0" stroke-linecap="butt"><path d="M268.24076,153.06293c0,0 2.91135,1.02057 7.87148,1.70361c2.9792,0.41023 7.88622,0.81879 8.99349,1.09515c2.46982,0.61665 3.88602,0.02615 5.46283,0.49548c1.28822,0.38346 7.95417,1.96237 10.15111,5.58853c4.41041,7.2796 -1.90725,12.51779 -5.089,10.00398c-4.41626,-1.48485 -1.31442,-4.73675 -3.1292,-6.05512c-2.51504,-1.82706 -7.84218,-1.80039 -9.43492,-2.32322c-1.15859,-0.38035 -4.86308,-0.898 -5.99443,-1.25544c-4.70449,-1.48643 -8.94865,-1.1034 -8.94865,-1.1034z" fill="#b8bda6"/><path d="M261.959,152.40469c2.68978,0.31311 6.11767,0.64473 6.11767,0.64473c0,0 0.92539,2.7504 0.90925,4.09016c-0.01639,1.37598 -1.00679,4.05964 -1.00679,4.05964c0,0 -1.64607,-0.13498 -2.82098,0.47227c-1.10841,0.57276 -4.27923,2.07977 -4.13692,0.02869c0.05441,-0.78415 1.2456,-0.24416 1.08936,-0.42635c-0.01727,-0.02016 -5.37145,-0.00575 -4.92376,-1.61249c0.4954,-1.77799 3.79138,-0.7258 3.58745,-0.80828c-1.88751,-0.7631 -3.84862,-0.19048 -3.44533,-1.59332c0.05416,-2.47481 4.57369,0.31697 4.01023,-0.1356c-1.05272,-0.8453 -3.45044,-0.86412 -3.39001,-2.40104c0.00399,-2.86403 3.34946,0.6778 2.80359,0.06231c-1.03103,-1.16265 -2.20731,-1.10962 -1.69663,-2.91029c0.04986,-0.59302 1.51891,0.36848 2.90286,0.52958z" data-paper-data="{&quot;index&quot;:null}" fill="#786274"/></g><g data-paper-data="{&quot;index&quot;:null}" stroke="#000000" stroke-width="0" stroke-linecap="butt"><path d="M314.28783,223.19105c0,0 2.03449,-3.14759 2.80188,-7.41836c0.18455,-1.02705 1.04788,-4.31384 1.22576,-5.37145c0.42101,-2.50301 0.54202,-5.03716 0.84248,-6.56261c0.6462,-3.2809 0.66624,-8.01583 0.66624,-8.01583c0,0 -0.6264,-18.38428 6.64531,-16.70318c5.87204,-0.51474 3.69935,6.86796 2.78844,14.18024c-0.76395,6.13255 -2.01844,12.05266 -2.16034,12.773c-0.27967,1.41962 -1.16609,3.91058 -1.69642,6.08572c-0.23784,0.97513 -1.92721,4.96263 -2.82663,7.4499c-1.4974,4.14114 -1.89388,6.82527 -1.89388,6.82527z" fill="#b8bda6"/><path d="M318.83892,231.90272c-0.28489,-0.13951 -1.65059,4.27103 -2.88986,3.75541c-0.60956,-0.2536 1.02478,-2.81898 0.54142,-4.09733c-0.25586,-0.67679 -1.37613,5.10595 -2.78604,3.93861c-0.48401,-0.40072 1.43258,-4.18656 1.20513,-5.35197c-0.12182,-0.62381 -2.21081,6.03012 -3.17668,5.30117c-0.57334,-0.43279 1.42146,-3.78696 1.59952,-5.56867c0.08665,-0.86805 -2.21989,4.23124 -2.86012,3.56248c-0.39184,-0.40933 1.55307,-5.51543 1.52214,-5.5932c-0.17365,-0.43717 -2.38662,2.26362 -2.47786,1.37544c-0.16824,-1.6368 1.78353,-2.77042 3.41505,-3.91079c0.95344,-0.6663 1.52174,-2.00306 1.52174,-2.00306c0,0 2.49455,0.32681 3.57252,0.87697c1.04968,0.53553 2.81242,2.38119 2.81242,2.38119c0,0 -1.39602,5.62918 -1.99929,5.33362z" data-paper-data="{&quot;index&quot;:null}" fill="#786274"/></g><g><path d="M263.94487,245.99979l16.94127,-40.61495c0,0 9.20666,-0.26153 13.02596,0.85387c4.51922,1.31969 -0.78839,5.50609 -0.78839,5.50609c0,0 -3.8829,-1.01461 -4.78619,0.66233c-2.76219,5.12817 -14.42577,36.50339 -14.42577,36.50339z" fill="#413a4a" stroke="#000000" stroke-width="0" stroke-linecap="butt"/><path d="M281.30552,257.90421c0,0 -1.18599,2.27603 -2.21579,1.97524c-0.73823,-0.21552 -3.29784,-0.94463 -5.8345,-1.79429c-1.54213,-0.51651 -2.14427,-1.46112 -3.25462,-1.97855c-1.39807,-0.65134 -3.73976,-0.79418 -4.72779,-1.34154c-1.82056,-1.00851 -2.67434,-1.83227 -2.67434,-1.83227c0,0 0.03775,-1.37486 0.22096,-2.07881c0.24688,-0.94851 1.1273,-3.09967 1.1273,-3.09967c0,0 7.43386,2.00923 10.24412,3.10066c1.66288,0.64586 5.04597,2.34764 5.04597,2.34764c0,0 1.59405,1.29751 1.70469,1.90737c0.13553,0.74683 0.36403,2.79423 0.36403,2.79423z" data-paper-data="{&quot;index&quot;:null}" fill="#12140d" stroke="#000000" stroke-width="0" stroke-linecap="butt"/><path d="M281.19891,257.01536c0,0 -0.48036,-0.14023 -1.5102,-0.44093c-0.30925,-0.09021 0.29225,2.25016 -3.74551,0.70801c-3.81299,-1.4563 -3.02554,-2.48963 -4.37179,-2.99159c-2.81476,-1.04964 -3.43906,-0.20013 -4.62837,-0.75405c-0.41424,-0.19294 -0.59675,-0.32924 -1.86959,-1.85757c-0.87528,-1.05105 -0.19207,-2.42312 -0.71065,-3.42343c-0.75735,-1.46128 -0.32106,-2.64267 -0.32106,-2.64267l1.01325,-3.82334c0,0 -0.19697,2.9252 0.54805,4.25708c0.6666,1.19165 2.89217,0.81925 3.49462,0.99493c1.05483,0.30776 0.33067,-4.32045 1.33246,-4.0033c0.53872,0.17056 4.72147,1.06242 4.72147,1.06242c0,0 -1.14875,4.50308 -0.86592,4.61296c1.66287,0.64577 5.49893,2.47999 5.49893,2.47999c0,0 1.59405,1.29751 1.70469,1.90737c0.13553,0.74683 -0.29077,3.91411 -0.29077,3.91411z" data-paper-data="{&quot;index&quot;:null}" fill="#1e1e26" stroke="#000000" stroke-width="0" stroke-linecap="butt"/><path d="M271.45426,250.19786l3.71918,-0.38894" fill="none" stroke="#c1ffce" stroke-width="0.5" stroke-linecap="round"/><path d="M273.73812,251.35654l3.7005,-0.88606" fill="none" stroke="#eaffc1" stroke-width="0.5" stroke-linecap="round"/><path d="M276.36824,252.45232l2.34136,-1.28298" fill="none" stroke="#ffb5b5" stroke-width="0.5" stroke-linecap="round"/><path d="M271.3554,244.92454l2.80638,0.4917" fill="none" stroke="#7d967f" stroke-width="0.5" stroke-linecap="round"/><path d="M274.19914,246.41049l-2.54844,-0.25255" fill="none" stroke="#966262" stroke-width="0.5" stroke-linecap="round"/></g><path d="M280.40254,204.41536c0,0 3.6497,-6.22551 6.40801,-12.6785c1.87426,-4.38472 2.73102,-8.79688 4.10443,-11.73399c2.57774,-5.51279 8.08712,-15.36616 8.08712,-15.36616c0,0 4.56682,1.63136 6.36263,3.15439c2.28612,1.93872 6.24148,7.53451 6.24148,7.53451c0,0 5.53655,-0.18329 7.97393,0.5333c2.57176,0.75622 7.07504,3.89168 7.07504,3.89168c0,0 -5.81374,10.45038 -8.13331,14.26749c-2.05237,3.37731 -4.97519,6.69624 -8.11266,11.64201c-3.23379,5.09735 -6.65281,11.77256 -6.65281,11.77256c0,0 -2.66003,-2.59124 -5.82223,-4.42046c-1.43608,-0.83072 -2.66536,0.03087 -4.13874,-0.53911c-1.17774,-0.45546 -2.61975,-2.33811 -3.64997,-2.95537c-0.7787,-0.46662 -1.99659,-1.87579 -2.55678,-2.18799c-1.13097,-0.63041 -2.37783,-0.02019 -3.79497,-0.55929c-1.64616,-0.62603 -3.39088,-2.35515 -3.39088,-2.35515z" fill="#d1b0b0" stroke="#292e32" stroke-width="0" stroke-linecap="butt"/><g stroke="none" stroke-width="0" stroke-linecap="butt"><path d="M309.67566,186.28349l3.48363,-6.70167l8.47064,5.1676l-3.2444,5.93605z" fill="#f200ff"/><path d="M313.15928,179.58181l4.44528,2.71188c-0.00733,0.93346 0.14187,1.85849 0.43586,2.73594c-0.3753,-0.29494 -0.78103,-0.56173 -1.21578,-0.79564c-1.79978,-0.96834 -3.79578,-1.21126 -5.65243,-0.82951z" fill="#eeff00"/><path d="M314.82344,188.88518c1.43964,-2.41648 1.55044,-5.47408 0.40982,-8.03813l5.55571,3.38931c-1.19531,0.74621 -2.21838,1.80451 -2.93385,3.13428c-0.44912,0.83473 -0.74218,1.71166 -0.88926,2.59732z" fill="#00ff5f"/><path d="M317.02857,189.99966l-6.22541,-3.14632c1.91859,0.30566 3.87492,-0.0723 5.5291,-1.03177c0.38569,1.18441 1.03426,2.28447 1.91706,3.20473c-0.43309,0.28335 -0.84224,0.60846 -1.22075,0.97335z" fill="#004fff"/><path d="M309.67564,186.28349l3.48363,-6.70169l2.10029,1.28131c-1.19181,0.74592 -2.21185,1.80244 -2.92569,3.12919c-0.54214,1.00762 -0.85689,2.07675 -0.96195,3.14849z" fill="#ff0000"/><path d="M320.32073,187.14474l-1.93522,3.54072l-3.23892,-1.63695c0.46303,-0.37829 0.88961,-0.81 1.26968,-1.29209c1.33927,0.11091 2.67903,-0.10448 3.90445,-0.61168z" fill="#00efff"/><path d="M321.62993,184.7494l-3.24441,5.93605l-0.21851,-0.11043c1.35235,-2.65971 1.14901,-5.71867 -0.29135,-8.11594z" fill="#9c00ff"/></g><g data-paper-data="{&quot;index&quot;:null}" stroke-linecap="butt"><path d="M315.57508,141.149c8.44373,-5.41393 19.30659,-3.53591 24.26301,4.1945c4.95646,7.7304 2.12942,18.38567 -6.31415,23.79953c-8.44373,5.41393 -19.30659,3.53591 -24.26301,-4.1945c-4.95642,-7.73034 -2.12938,-18.38562 6.31419,-23.79947z" fill="url(#color-58)" stroke="none" stroke-width="0"/><path d="M340.20445,155.69184l-0.00312,-0.00954l-0.02511,0.00731l-0.22551,-0.77651c-0.09101,-0.29181 0.03037,-0.61496 0.30163,-0.77156c-1.06139,-2.39076 -2.41769,-4.77699 -3.01009,-6.51649c-0.08483,-0.24903 -0.23224,-0.51118 -0.40341,-0.77926c-0.05014,0.16455 -0.16376,0.30946 -0.32836,0.39517c-0.32532,0.16931 -0.72598,0.04299 -0.89535,-0.28212c-0.02504,-0.04825 -0.04366,-0.09839 -0.05612,-0.14887l-0.09998,-0.37352c-0.0527,0.12807 -0.10968,0.25608 -0.17058,0.38378c0,0 -0.28706,0.59845 -0.88556,0.31148c-0.59845,-0.28706 -0.31148,-0.88556 -0.31148,-0.88556c0.70702,-1.46587 0.74941,-2.90908 0.2295,-4.13948c-0.47353,-0.62094 -0.95253,-1.22079 -1.3662,-1.81783c-0.38237,-0.32192 -0.82472,-0.60611 -1.32264,-0.84483l-0.03758,-0.04963l-0.01216,0.01687l-0.57216,-0.41452c-0.08565,-0.05926 -0.15866,-0.14002 -0.21008,-0.23887c-0.16931,-0.32532 -0.04299,-0.72599 0.28212,-0.89535c0.08206,-0.04267 0.16894,-0.06647 0.25559,-0.07315l0.84762,-0.08476l0.03373,0.33918c0.25424,0.01566 0.49862,0.06182 0.73321,0.1348l-0.12431,-0.42846c-0.09373,-0.30086 0.03815,-0.63488 0.32754,-0.78567c0.32532,-0.16931 0.72598,-0.04299 0.89535,0.28212l0.37176,0.71388c0.13676,0.26291 0.29442,0.55448 0.46405,0.86776c0.2981,0.38421 0.56582,0.90844 0.79988,1.50095c0.58719,1.13777 1.17014,2.38936 1.48469,3.53831c0.15267,0.42179 0.28894,0.82903 0.41094,1.20608l0.35279,0.67718c0.07711,0.14805 0.09303,0.31175 0.05663,0.4623c1.39094,2.49159 2.18874,5.31489 3.27795,8.03874c0.79069,1.97752 1.95726,4.11609 1.63853,6.27881c-0.51658,1.59322 -3.46861,4.629 -3.94543,1.14617c-0.27936,-2.0421 1.47271,-1.50701 2.2453,-2.44784c-0.0754,-0.67043 -0.27237,-1.4831 -0.41125,-2.19836c-0.24162,-0.57306 -0.49643,-1.0828 -0.59849,-1.27915z" fill="url(#color-59)" stroke="none" stroke-width="0.5"/><path d="M333.70343,136.65312c1.48782,2.96112 1.81417,2.75966 -0.33515,3.80649c-2.14933,1.04693 -4.65947,0.58325 -5.60632,-1.0358c-0.94674,-1.61909 0.02813,-3.78046 2.17744,-4.8273c2.14935,-1.04693 2.17732,-1.10095 3.764,2.05672z" data-paper-data="{&quot;index&quot;:null}" fill="url(#color-60)" stroke="#000000" stroke-width="0"/><path d="M335.41116,145.76092c2.42546,-1.00394 2.01203,-0.89852 4.23372,3.86231c2.36931,5.07692 2.29488,5.04547 -0.13055,6.04948c-2.42529,1.00407 -5.31005,-0.4009 -6.44306,-3.13801c-1.13326,-2.73706 -0.0856,-5.76985 2.33983,-6.77386z" fill="url(#color-61)" stroke="#000000" stroke-width="0"/><path d="M310.6469,154.45584c-5.05395,-14.61075 5.64223,-16.84444 5.64223,-16.84444c4.52427,-1.77111 11.34732,2.58873 13.92,9.16073c2.57268,6.572 1.80512,15.73978 -2.71915,17.51092c-4.52436,1.77108 -12.3977,3.42792 -16.84318,-9.82718z" data-paper-data="{&quot;index&quot;:null}" fill="url(#color-62)" stroke="#ed6b00" stroke-width="0"/><path d="M310.64691,154.45586c-0.37978,-1.09788 -0.67061,-2.12586 -0.88372,-3.08829c0.60427,-0.08802 1.20823,-0.24389 1.80225,-0.47194c4.31955,-1.65826 6.47695,-6.50421 4.8187,-10.82376c-0.29748,-0.77492 -0.69757,-1.48025 -1.1788,-2.10646c0.65073,-0.26355 1.08383,-0.35399 1.08383,-0.35399c0.97117,-0.38018 2.04823,-0.47786 3.16646,-0.33181c1.53025,2.67589 4.39867,4.25799 7.40178,4.21047c1.3885,1.48116 2.56757,3.27885 3.35175,5.28205c0.45737,1.16833 0.80916,2.41872 1.05304,3.69501c-2.24691,-1.79428 -5.359,-2.38356 -8.23735,-1.27857c-4.31955,1.65826 -6.47695,6.50421 -4.8187,10.82376c1.06675,2.7788 3.45273,4.66277 6.1691,5.2118c-4.46672,0.88784 -10.18596,-0.20557 -13.72846,-10.76826z" data-paper-data="{&quot;index&quot;:null}" fill="url(#color-63)" stroke="#ed6b00" stroke-width="0"/><path d="M330.20911,146.77217c2.03199,5.1908 1.98023,12.00092 -0.36055,15.50685c-2.2672,-2.30208 -5.76691,-3.17617 -8.97604,-1.94419c-1.81245,0.69578 -3.24425,1.9528 -4.17322,3.49668c-0.96216,-0.66541 -1.90163,-1.56761 -2.79126,-2.76587c1.17739,-1.0626 2.01938,-2.4335 2.4467,-3.93463c2.24993,1.81996 5.38241,2.42319 8.27828,1.31149c4.31954,-1.65826 6.47695,-6.50422 4.8187,-10.82376c-0.98313,-2.56094 -3.08673,-4.3619 -5.53681,-5.05828c0.92596,-0.39007 1.7469,-0.92912 2.44551,-1.57833c1.60342,1.57022 2.97256,3.55184 3.84871,5.79001z" data-paper-data="{&quot;index&quot;:null}" fill="url(#color-64)" stroke="#ed6b00" stroke-width="0"/><path d="M318.37358,142.9024c-2.42468,1.02139 -4.12923,3.06444 -4.80296,5.4312c-1.21881,-0.98589 -2.69661,-1.61474 -4.25548,-1.80733c0.2436,-4.06685 2.24679,-6.33879 4.04408,-7.56964c1.10731,1.96974 2.93618,3.3551 5.01434,3.94576z" data-paper-data="{&quot;index&quot;:null}" fill="url(#color-65)" stroke="#ed6b00" stroke-width="0"/><path d="M317.01003,153.84226c-0.66634,0.44155 -1.54004,1.20803 -2.44167,2.166c0.48729,-1.13233 0.72648,-2.37212 0.67825,-3.63111c1.07972,0.03306 2.18376,-0.1435 3.25539,-0.55489c4.31955,-1.65826 6.47695,-6.50421 4.8187,-10.82376c-0.52549,-1.36885 -1.3711,-2.52057 -2.41865,-3.40254c2.59006,0.78657 5.24987,2.74293 7.22284,5.41635c-2.53955,2.25 -3.55261,5.92157 -2.26496,9.27571c0.99752,2.59844 3.14854,4.41445 5.64462,5.08815c-0.32976,2.4701 -1.14804,4.60649 -2.47613,5.89893c0.0519,-0.34848 0.03833,-0.67136 -0.05416,-0.95906c-0.72237,-2.24698 -1.99754,-4.27698 -2.98645,-6.42005c-0.16149,-0.34995 -0.3457,-1.18368 -0.57458,-1.2352c-2.42279,-0.54548 -4.94471,-0.46931 -7.41523,-0.72229c-0.20249,-0.02075 -0.88206,-0.16641 -0.98796,-0.09624z" data-paper-data="{&quot;index&quot;:null}" fill="url(#color-66)" stroke="#ed6b00" stroke-width="0"/><path d="M310.64691,154.45585c-1.42539,-4.12076 -1.59794,-7.25698 -1.11099,-9.63626c2.21548,-1.30767 3.66099,-3.54114 4.02298,-5.99609c0.89167,-0.57854 1.71327,-0.90268 2.21736,-1.06725c2.16241,3.04359 6.1839,4.36282 9.83028,2.96298c0.11223,-0.04309 0.22301,-0.08832 0.3323,-0.13565c1.78423,1.62754 3.31829,3.75657 4.27031,6.18855c0.26488,0.67664 0.49435,1.38083 0.68796,2.1016c-1.3252,-1.0336 -2.94209,-1.65322 -4.63092,-1.76101c-1.28708,-1.01725 -1.20241,-3.44689 -2.70114,-4.11412c-2.57104,-1.14461 -5.71749,-2.29204 -8.34485,-1.2834c-6.48497,2.48954 -5.56497,6.38457 -4.8187,10.82376c0.43273,2.57404 2.03654,5.16841 4.17728,7.28133c1.59009,3.2452 5.07064,5.06277 8.56833,4.61868c0.13554,0.01802 0.2705,0.03302 0.40485,0.04492c1.29987,0.11514 3.03807,0.04578 4.50675,-0.47291c-0.18253,0.10413 -0.37209,0.19509 -0.56875,0.27208c-4.52436,1.77108 -12.3977,3.42793 -16.84318,-9.82718z" data-paper-data="{&quot;index&quot;:null}" fill="url(#color-67)" stroke="#ed6b00" stroke-width="0"/></g></g></g></svg>