<svg version="1.1" xmlns="http://www.w3.org/2000/svg" xmlns:xlink="http://www.w3.org/1999/xlink" width="235.07448" height="177.19491" viewBox="0,0,235.07448,177.19491"><defs><radialGradient cx="280.06247" cy="237.95935" r="38.33033" gradientUnits="userSpaceOnUse" id="color-1"><stop offset="0" stop-color="#696969"/><stop offset="1" stop-color="#0a0a0a"/></radialGradient><linearGradient x1="280.06247" y1="200.34215" x2="280.06247" y2="275.57656" gradientUnits="userSpaceOnUse" id="color-2"><stop offset="0" stop-color="#636363"/><stop offset="1" stop-color="#424242"/></linearGradient><linearGradient x1="306.99837" y1="237.63144" x2="306.99837" y2="264.09994" gradientUnits="userSpaceOnUse" id="color-3"><stop offset="0" stop-color="#464646"/><stop offset="1" stop-color="#353535"/></linearGradient><linearGradient x1="290.14588" y1="226.95371" x2="290.14588" y2="264.77952" gradientUnits="userSpaceOnUse" id="color-4"><stop offset="0" stop-color="#171717"/><stop offset="1" stop-color="#191919"/></linearGradient><linearGradient x1="287.39623" y1="227.47596" x2="293.47238" y2="264.42177" gradientUnits="userSpaceOnUse" id="color-5"><stop offset="0" stop-color="#383838"/><stop offset="1" stop-color="#262626"/></linearGradient><linearGradient x1="254.46809" y1="247.49049" x2="265.88853" y2="247.49049" gradientUnits="userSpaceOnUse" id="color-6"><stop offset="0" stop-color="#636363"/><stop offset="1" stop-color="#494949"/></linearGradient><linearGradient x1="258.16948" y1="226.4132" x2="302.28793" y2="226.4132" gradientUnits="userSpaceOnUse" id="color-7"><stop offset="0" stop-color="#555555"/><stop offset="1" stop-color="#515151"/></linearGradient><linearGradient x1="298.3055" y1="223.68057" x2="311.12759" y2="223.68057" gradientUnits="userSpaceOnUse" id="color-8"><stop offset="0" stop-color="#464646"/><stop offset="1" stop-color="#292929"/></linearGradient><linearGradient x1="249.40573" y1="259.64284" x2="263.83816" y2="259.64284" gradientUnits="userSpaceOnUse" id="color-9"><stop offset="0" stop-color="#555555"/><stop offset="1" stop-color="#424242"/></linearGradient><linearGradient x1="288.22553" y1="233.16746" x2="288.22553" y2="234.16902" gradientUnits="userSpaceOnUse" id="color-10"><stop offset="0" stop-color="#171717"/><stop offset="1" stop-color="#191919"/></linearGradient><linearGradient x1="289.41632" y1="240.92796" x2="289.41632" y2="241.92953" gradientUnits="userSpaceOnUse" id="color-11"><stop offset="0" stop-color="#171717"/><stop offset="1" stop-color="#191919"/></linearGradient><linearGradient x1="290.55534" y1="248.47586" x2="290.55534" y2="249.47742" gradientUnits="userSpaceOnUse" id="color-12"><stop offset="0" stop-color="#171717"/><stop offset="1" stop-color="#191919"/></linearGradient><linearGradient x1="291.74613" y1="256.82106" x2="291.74613" y2="257.82262" gradientUnits="userSpaceOnUse" id="color-13"><stop offset="0" stop-color="#171717"/><stop offset="1" stop-color="#191919"/></linearGradient><linearGradient x1="307.14961" y1="263.0412" x2="307.14961" y2="264.85619" gradientUnits="userSpaceOnUse" id="color-14"><stop offset="0" stop-color="#464646"/><stop offset="1" stop-color="#353535"/></linearGradient><linearGradient x1="279.97099" y1="264.40071" x2="279.97099" y2="266.15318" gradientUnits="userSpaceOnUse" id="color-15"><stop offset="0" stop-color="#cacaca"/><stop offset="1" stop-color="#979797"/></linearGradient></defs><g transform="translate(-239.7193,-160.0288)"><g data-paper-data="{&quot;isPaintingLayer&quot;:true}" fill-rule="nonzero" stroke-linejoin="miter" stroke-miterlimit="10" stroke-dasharray="" stroke-dashoffset="0" style="mix-blend-mode: normal"><text transform="translate(240.03135,187.4892) scale(0.6241,0.6241)" font-size="40" xml:space="preserve" fill="#ffffff" fill-rule="nonzero" stroke="none" stroke-width="1" stroke-linecap="butt" stroke-linejoin="miter" stroke-miterlimit="10" stroke-dasharray="" stroke-dashoffset="0" font-family="Malgun Gothic" font-weight="normal" text-anchor="start" style="mix-blend-mode: normal"><tspan x="0" dy="0">Oil Rig</tspan></text><text transform="translate(324.45435,215.62294) scale(0.45565,0.45565)" font-size="40" xml:space="preserve" fill="#d8d8d8" fill-rule="nonzero" stroke="none" stroke-width="1" stroke-linecap="butt" stroke-linejoin="miter" stroke-miterlimit="10" stroke-dasharray="" stroke-dashoffset="0" font-family="Malgun Gothic" font-weight="normal" text-anchor="start" style="mix-blend-mode: normal"><tspan x="0" dy="0">Obtained by:</tspan></text><text transform="translate(324.45435,256.62748) scale(0.45566,0.45566)" font-size="40" xml:space="preserve" fill="#d8d8d8" fill-rule="nonzero" stroke="none" stroke-width="1" stroke-linecap="butt" stroke-linejoin="miter" stroke-miterlimit="10" stroke-dasharray="" stroke-dashoffset="0" font-family="Malgun Gothic" font-weight="normal" text-anchor="start" style="mix-blend-mode: normal"><tspan x="0" dy="0">Materials:</tspan></text><text transform="translate(241.38373,296.92705) scale(0.45566,0.45566)" font-size="40" xml:space="preserve" fill="#d8d8d8" fill-rule="nonzero" stroke="none" stroke-width="1" stroke-linecap="butt" stroke-linejoin="miter" stroke-miterlimit="10" stroke-dasharray="" stroke-dashoffset="0" font-family="Malgun Gothic" font-weight="normal" text-anchor="start" style="mix-blend-mode: normal"><tspan x="0" dy="0">Description:</tspan></text><text transform="translate(325.17562,233.72207) scale(0.37382,0.37382)" font-size="40" xml:space="preserve" fill="#9f9f9f" fill-rule="nonzero" stroke="none" stroke-width="1" stroke-linecap="butt" stroke-linejoin="miter" stroke-miterlimit="10" stroke-dasharray="" stroke-dashoffset="0" font-family="Malgun Gothic" font-weight="normal" text-anchor="start" style="mix-blend-mode: normal"><tspan x="0" dy="0">Factory</tspan></text><text transform="translate(325.17562,275.43973) scale(0.37383,0.37383)" font-size="40" xml:space="preserve" fill="#9f9f9f" fill-rule="nonzero" stroke="none" stroke-width="1" stroke-linecap="butt" stroke-linejoin="miter" stroke-miterlimit="10" stroke-dasharray="" stroke-dashoffset="0" font-family="Malgun Gothic" font-weight="normal" text-anchor="start" style="mix-blend-mode: normal"><tspan x="0" dy="0">Stone (x30), Iron (x40)</tspan></text><path d="M241.73214,275.57656v-75.23442h76.66066v75.23442z" fill="url(#color-1)" stroke="url(#color-2)" stroke-width="3.5" stroke-linecap="butt"/><text transform="translate(241.64328,315.44811) scale(0.37383,0.37383)" font-size="40" xml:space="preserve" fill="#9f9f9f" fill-rule="nonzero" stroke="none" stroke-width="1" stroke-linecap="butt" stroke-linejoin="miter" stroke-miterlimit="10" stroke-dasharray="" stroke-dashoffset="0" font-family="Malgun Gothic" font-weight="normal" text-anchor="start" style="mix-blend-mode: normal"><tspan x="0" dy="0">Extracts water and/or oil from</tspan><tspan x="0" dy="48px">under the surface.</tspan></text><g><path d="M256.22162,264.52197l5.90037,-31.52041l15.99311,-8.22947l28.88077,-1.08691l0.31055,41.45788z" fill-opacity="0.01033" fill="#ffffff" stroke="#000000" stroke-width="0.5" stroke-linecap="butt"/><path d="M306.84712,237.63144l0.3025,26.4685" fill="none" stroke="url(#color-3)" stroke-width="0.5" stroke-linecap="round"/><path d="M290.58083,264.77952l-5.45763,-36.73963l3.86614,-1.08618l6.17924,37.66741z" fill="none" stroke="url(#color-4)" stroke-width="0.5" stroke-linecap="butt"/><path d="M292.36401,264.60405l-6.07615,-36.94581l1.39205,-0.57074l5.97307,37.56433z" fill="url(#color-5)" stroke="#160000" stroke-width="0" stroke-linecap="butt"/><path d="M254.46809,265.37274l7.25673,-36.59028l4.16372,0.82577l-7.25673,36.59027z" fill="url(#color-6)" stroke="none" stroke-width="0.5" stroke-linecap="butt"/><path d="M259.70854,234.83582l-1.53906,-6.09705l42.57938,-10.74819l1.53906,6.09705z" fill="url(#color-7)" stroke="none" stroke-width="0.5" stroke-linecap="butt"/><path d="M298.3055,209.56694c0,0 3.04469,0.37318 4.13439,1.11512c1.30402,0.88787 3.16282,3.85332 3.16282,3.85332l5.51624,16.30781c0,0 0.34134,5.06688 -3.2626,6.76248c-2.69774,1.26925 -3.7272,-4.28931 -4.02824,-4.18748c-0.13576,0.04592 -5.01565,-15.8062 -5.01565,-15.8062z" fill="url(#color-8)" stroke="#160000" stroke-width="0" stroke-linecap="butt"/><path d="M249.81808,264.69416l-0.41235,-7.8346c0,0 0.58641,-1.20493 0.92778,-1.5463c0.34137,-0.34137 1.44322,-0.72161 1.44322,-0.72161h9.17473c0,0 1.19813,-0.01946 2.06174,0.41235c0.86361,0.4318 0.8247,0.92778 0.8247,0.92778l-0.41235,8.76238z" fill="url(#color-9)" stroke="#160000" stroke-width="0" stroke-linecap="butt"/><path d="M286.517,233.77455l3.41705,-0.21262" fill="none" stroke="url(#color-10)" stroke-width="0.5" stroke-linecap="round"/><path d="M287.65602,241.42875h3.5206" fill="none" stroke="url(#color-11)" stroke-width="0.5" stroke-linecap="round"/><path d="M288.69149,249.08294l3.7277,-0.21262" fill="none" stroke="url(#color-12)" stroke-width="0.5" stroke-linecap="round"/><path d="M290.0376,257.37499l3.41705,-0.10631" fill="none" stroke="url(#color-13)" stroke-width="0.5" stroke-linecap="round"/><path d="M305.18338,264.85619v-1.81498h3.93246v1.81498z" fill="#212121" stroke="url(#color-14)" stroke-width="0.5" stroke-linecap="butt"/><path d="M248.27178,266.15318v-1.75248h63.39842v1.75248z" fill="url(#color-15)" stroke="#160000" stroke-width="0" stroke-linecap="butt"/></g></g></g></svg>