<svg version="1.1" xmlns="http://www.w3.org/2000/svg" xmlns:xlink="http://www.w3.org/1999/xlink" width="488" height="445.40333" viewBox="0,0,488,445.40333"><defs><radialGradient cx="239.76178" cy="177.81006" r="244" gradientUnits="userSpaceOnUse" id="color-1"><stop offset="0" stop-color="#121212"/><stop offset="1" stop-color="#868686"/></radialGradient><radialGradient cx="240.00006" cy="180.00007" r="173.5" gradientUnits="userSpaceOnUse" id="color-2"><stop offset="0" stop-color="#000000"/><stop offset="1" stop-color="#000000" stop-opacity="0"/></radialGradient><radialGradient cx="237.93829" cy="318.1666" r="116.49049" gradientUnits="userSpaceOnUse" id="color-3"><stop offset="0" stop-color="#33266a"/><stop offset="1" stop-color="#949074"/></radialGradient><linearGradient x1="242.7439" y1="206.71003" x2="247.12426" y2="240.06435" gradientUnits="userSpaceOnUse" id="color-4"><stop offset="0" stop-color="#5fa5c2"/><stop offset="1" stop-color="#7fff7d"/></linearGradient><radialGradient cx="217.12983" cy="96.63091" r="64.41492" gradientUnits="userSpaceOnUse" id="color-5"><stop offset="0" stop-color="#ffa8a8"/><stop offset="1" stop-color="#ffed7d"/></radialGradient><radialGradient cx="232.39258" cy="141.39011" r="13.70696" gradientUnits="userSpaceOnUse" id="color-6"><stop offset="0" stop-color="#daffe3"/><stop offset="1" stop-color="#0c1a0f"/></radialGradient><radialGradient cx="266.89257" cy="159.89011" r="16.12716" gradientUnits="userSpaceOnUse" id="color-7"><stop offset="0" stop-color="#5f6471"/><stop offset="1" stop-color="#171d2c"/></radialGradient><radialGradient cx="291.89257" cy="138.39011" r="13.22358" gradientUnits="userSpaceOnUse" id="color-8"><stop offset="0" stop-color="#ffd0d0"/><stop offset="1" stop-color="#2a0000"/></radialGradient><linearGradient x1="172.16317" y1="115.6106" x2="200.08497" y2="135.33129" gradientUnits="userSpaceOnUse" id="color-9"><stop offset="0" stop-color="#694444"/><stop offset="1" stop-color="#98a1b9"/></linearGradient><radialGradient cx="68.22513" cy="66.85549" r="65.45502" gradientUnits="userSpaceOnUse" id="color-10"><stop offset="0" stop-color="#dcdcdc"/><stop offset="1" stop-color="#a0a0a0"/></radialGradient><radialGradient cx="109.37495" cy="62.41057" r="46.28026" gradientUnits="userSpaceOnUse" id="color-11"><stop offset="0" stop-color="#d1ffc4"/><stop offset="1" stop-color="#2188ff"/></radialGradient><radialGradient cx="109.37495" cy="62.41057" r="46.28026" gradientUnits="userSpaceOnUse" id="color-12"><stop offset="0" stop-color="#ceffc4"/><stop offset="1" stop-color="#ff21cc"/></radialGradient><radialGradient cx="109.37495" cy="62.41057" r="46.28026" gradientUnits="userSpaceOnUse" id="color-13"><stop offset="0" stop-color="#ffe9c4"/><stop offset="1" stop-color="#4fff21"/></radialGradient><radialGradient cx="109.37495" cy="62.41057" r="46.28026" gradientUnits="userSpaceOnUse" id="color-14"><stop offset="0" stop-color="#ffe9c4"/><stop offset="1" stop-color="#4fff21"/></radialGradient><radialGradient cx="109.3749" cy="62.41063" r="46.28024" gradientUnits="userSpaceOnUse" id="color-15"><stop offset="0" stop-color="#ffe9c4"/><stop offset="1" stop-color="#ffa321"/></radialGradient><radialGradient cx="109.37486" cy="62.41066" r="46.28024" gradientUnits="userSpaceOnUse" id="color-16"><stop offset="0" stop-color="#c4f0ff"/><stop offset="1" stop-color="#3d21ff"/></radialGradient><radialGradient cx="55.13401" cy="73.64706" r="50.24886" gradientUnits="userSpaceOnUse" id="color-17"><stop offset="0" stop-color="#1c2f30"/><stop offset="1" stop-color="#142913"/></radialGradient><radialGradient cx="102.23028" cy="4.70797" r="13.22632" gradientUnits="userSpaceOnUse" id="color-18"><stop offset="0" stop-color="#786c41"/><stop offset="1" stop-color="#141a29"/></radialGradient><radialGradient cx="70.28133" cy="51.53042" r="20.82216" gradientUnits="userSpaceOnUse" id="color-19"><stop offset="0" stop-color="#7ba676"/><stop offset="1" stop-color="#291616"/></radialGradient></defs><g transform="translate(4.23828,10.45523)"><g data-paper-data="{&quot;isPaintingLayer&quot;:true}" fill-rule="nonzero" stroke-linecap="butt" stroke-linejoin="miter" stroke-miterlimit="10" stroke-dasharray="" stroke-dashoffset="0" style="mix-blend-mode: normal"><path d="M-4.23828,360.81007v-366h488v366z" fill="url(#color-1)" stroke="none" stroke-width="0"/><path d="M413.50001,180.00007c0,97.7544 -77.6786,177 -173.5,177c-95.8214,0 -173.5,-79.2456 -173.5,-177c0,-97.7544 77.6786,-177 173.5,-177c95.8214,0 173.5,79.2456 173.5,177z" fill="url(#color-2)" stroke="none" stroke-width="0"/><path d="M160.25243,434.36546l0.87834,-232.97929l154.49348,0.58264l-0.87834,232.97929z" data-paper-data="{&quot;index&quot;:null}" fill="url(#color-3)" stroke="#ed6b00" stroke-width="0"/><path d="M364.00076,245.91115c-13.82925,1.99501 -31.40642,4.14807 -31.40642,4.14807c0,0 -34.5393,3.42029 -35.94106,-1.69792c-8.19973,-29.93312 30.7934,-26.46924 30.7934,-26.46924c0,0 26.58973,-3.81282 41.29311,-5.93456c8.97147,-0.58886 8.34686,27.62989 -4.73902,29.95359z" data-paper-data="{&quot;index&quot;:null}" fill="#a3bda9" stroke="#000000" stroke-width="0"/><g><path d="M228.48725,242.5119l-4.38035,-33.35423l37.2739,-4.89511l4.38035,33.35423z" fill="url(#color-4)" stroke="#000000" stroke-width="0"/><path d="M302.57782,144.27643c1.15825,37.94343 -26.06368,69.56234 -60.80191,70.62275c-34.73819,1.06041 -63.8381,-28.83915 -64.99636,-66.78266c-1.15825,-37.94348 26.06372,-69.56234 60.80196,-70.62275c34.73815,-1.06041 63.83806,28.83915 64.99631,66.78267z" fill="url(#color-5)" stroke="none" stroke-width="0"/><path d="M234.24021,154.93526c-2.50656,4.56413 -7.13506,2.1034 -7.13506,2.1034c-4.67209,-2.5948 -12.48175,-5.39491 -11.96181,-12.87968c0.42489,-6.11682 10.39255,-11.81263 15.78488,-10.83296c9.78211,1.7772 18.67383,18.83841 3.31207,21.60924z" data-paper-data="{&quot;index&quot;:null}" fill="url(#color-6)" stroke="none" stroke-width="0.5"/><path d="M257.0938,176.41599c0.6539,-2.32212 2.30108,-2.87228 3.52687,-2.93738c0.38889,-0.03601 0.78833,-0.01594 1.18741,0.06639c-1.57584,-5.26582 -0.89405,-12.15203 -2.76053,-17.23739c0,0 -1.37318,-3.81193 2.43876,-5.18519c3.8119,-1.37313 5.18515,2.4388 5.18515,2.4388c2.25503,6.35973 4.01183,14.21829 4.0846,21.08007c0.02731,2.57134 1.45218,6.00343 -0.48065,7.6995c-2.00564,1.75997 -5.33394,-0.17113 -8.00098,-0.25671l-2.37873,-0.66982c-0.49303,-0.13881 -0.93874,-0.36294 -1.32595,-0.65208c-1.01167,-0.69505 -2.12977,-2.02393 -1.47587,-4.34605z" data-paper-data="{&quot;index&quot;:null}" fill="url(#color-7)" stroke="none" stroke-width="0.5"/><path d="M291.1509,132.11765c7.90861,2.00089 15.22634,20.50137 2.85304,23.36571c-1.98457,4.90829 -5.7402,2.21218 -5.7402,2.21218c-3.79187,-2.84138 -10.11739,-5.93054 -9.76022,-14.00987c0.29187,-6.60261 8.28781,-12.67099 12.64741,-11.56801z" data-paper-data="{&quot;index&quot;:null}" fill="url(#color-8)" stroke="none" stroke-width="0.5"/></g><g><path d="M170.17866,144.4705l-10.67328,-11.37011l23.67683,-33.09145l11.9344,9.15435c0,0 -4.70241,26.34001 -8.78245,33.40669c-3.58065,6.20169 -16.1555,1.9005 -16.1555,1.9005z" data-paper-data="{&quot;index&quot;:null}" fill="url(#color-9)" stroke="#000000" stroke-width="0"/><path d="M159.1316,26.61891c31.50765,22.25375 40.53429,63.67771 20.16074,92.52398c-20.3735,28.84646 -62.43163,34.19125 -93.93988,11.93716c-31.50767,-22.25374 -40.53427,-63.67769 -20.16058,-92.52416c20.3735,-28.84646 62.43163,-34.19125 93.93988,-11.93717z" data-paper-data="{&quot;index&quot;:null}" fill="url(#color-10)" stroke="none" stroke-width="0"/><g data-paper-data="{&quot;index&quot;:null}" stroke="#ed6b00" stroke-width="0"><path d="M166.27643,87.37059c-29.21769,41.35416 -56.07201,26.12631 -70.69247,14.49283c-14.62011,-11.63365 -8.31781,-44.82093 7.50251,-64.88492c15.82032,-20.06395 44.83262,-27.26869 59.45276,-15.63522c0,0 36.4995,20.62701 3.73688,66.02711z" data-paper-data="{&quot;index&quot;:null}" fill="url(#color-11)"/><path d="M166.27641,87.37051c-23.28296,32.95419 -45.06507,29.97802 -60.35174,21.52247c10.37497,1.30902 20.87626,-2.47553 27.48938,-10.98411c10.27989,-13.22635 7.27147,-32.85908 -6.7195,-43.85099c-9.32294,-7.32452 -21.16992,-8.96401 -31.07909,-5.32926c2.14675,-4.20158 4.65846,-8.18326 7.47092,-11.75014c4.82217,-6.11566 10.87,-11.0366 17.36231,-14.59351c10.82182,3.751 22.7703,1.60495 30.95898,-5.98839c4.19178,0.82032 7.99322,2.44944 11.13151,4.94668c0,0 1.47792,0.83522 3.57198,2.53947c-2.36192,1.63002 -4.50852,3.63542 -6.35271,6.00822c-10.2799,13.22633 -7.27147,32.85908 6.7195,43.85099c1.92398,1.51159 3.9555,2.78102 6.05527,3.81199c-1.72459,3.13347 -3.79536,6.40504 -6.25722,9.81648z" data-paper-data="{&quot;index&quot;:null}" fill="url(#color-12)"/><path d="M103.08644,36.97844c5.38783,-6.83303 12.30569,-12.17466 19.66405,-15.78858c1.88545,3.11892 4.32268,5.99614 7.28759,8.47422c-9.55712,-0.47241 -18.95425,3.35677 -25.04888,11.19827c-10.27988,13.22631 -7.27146,32.85911 6.71949,43.85103c9.3797,7.36909 21.31428,8.98374 31.25988,5.26227c0.05971,5.79402 1.74925,11.62451 4.95804,16.77002c-4.4066,3.15637 -8.70031,5.21109 -12.84163,6.40515c-1.83301,-6.54316 -5.77,-12.67656 -11.64053,-17.28871c-10.39432,-8.16625 -23.92621,-9.26575 -34.4119,-3.86778c-4.99928,-15.13454 1.55842,-39.16859 14.05387,-55.0158z" data-paper-data="{&quot;index&quot;:null}" fill="url(#color-13)"/><path d="M161.7583,62.33054c-0.09421,-9.13519 -4.23981,-18.36105 -12.00354,-24.84987c8.10632,0.40076 16.09759,-2.29335 22.05606,-7.90562c5.28565,6.47751 10.28542,16.86538 7.13905,31.47178c-5.83266,-1.18234 -11.80394,-0.73227 -17.19158,1.28371z" data-paper-data="{&quot;index&quot;:null}" fill="url(#color-14)"/><path d="M143.85417,77.61704c-0.31375,-0.37338 -2.91762,-0.67156 -3.67095,-0.84023c-9.19194,-2.05761 -18.24384,-5.33532 -27.55274,-6.30636c-0.87938,-0.09175 -2.37188,2.62318 -3.30292,3.6623c-5.70167,6.36361 -12.32744,11.98775 -17.16733,19.03524c-0.6197,0.9024 -0.98864,2.02272 -1.14592,3.31133c-3.52658,-6.13437 -4.37211,-14.63115 -3.11903,-23.71963c9.70106,0.60722 19.28483,-3.21842 25.46867,-11.17475c7.98237,-10.27031 7.95245,-24.40346 0.98976,-35.35425c9.78848,-7.05621 21.35262,-10.76871 31.50568,-10.4467c-4.66485,1.85453 -8.86605,4.89958 -12.12371,9.09099c-10.2799,13.22633 -7.27147,32.85909 6.7195,43.85099c3.471,2.72695 7.2919,4.66593 11.2324,5.83809c-1.42149,4.37427 -1.78381,9.02384 -1.14167,13.59119c-2.31439,-4.4481 -4.71731,-8.18879 -6.69164,-10.53827z" data-paper-data="{&quot;index&quot;:null}" fill="url(#color-15)"/><path d="M166.27638,87.37068c-29.21769,41.35416 -56.072,26.12631 -70.69247,14.49283c-0.63552,-0.50568 -1.23151,-1.05214 -1.78893,-1.63644c4.80175,3.5785 11.02403,5.89685 15.84251,7.04279c0.49801,0.11843 1.00132,0.22673 1.50971,0.32497c12.21901,5.73714 26.61612,3.4927 35.58523,-6.03317c9.84056,-4.88307 18.21468,-12.10156 22.33025,-20.64599c7.09772,-14.73578 14.28522,-27.34876 -6.7195,-43.85099c-8.51002,-6.68586 -21.03415,-6.40161 -31.47294,-5.4406c-6.08505,0.5602 -8.18507,9.21386 -13.85081,11.2587c-6.21899,-1.6359 -12.6846,-1.38433 -18.50447,0.67262c1.41461,-2.30613 2.94252,-4.51104 4.5714,-6.57679c5.8543,-7.4247 13.51515,-13.08846 21.58463,-16.68833c0.34866,0.29703 0.7048,0.5885 1.0683,0.87408c11.81055,9.27891 27.67186,9.4342 38.51261,1.30097c1.66141,1.18092 4.31388,3.30227 6.96805,6.40289c-1.1214,9.07361 1.89811,18.66064 8.6212,25.90757c-0.59412,8.95635 -4.32491,19.79026 -13.56516,32.59471z" data-paper-data="{&quot;index&quot;:null}" fill="url(#color-16)"/></g><g data-paper-data="{&quot;index&quot;:null}"><path d="M64.70836,64.23726c-0.54806,0.65111 -1.93288,2.34982 -3.32139,4.29725c-1.12251,2.56749 -2.54491,5.45162 -3.39151,7.90425c2.10839,4.18028 9.1334,3.64519 6.3682,11.07396c-4.71745,12.66948 -13.24362,-1.20502 -13.84278,-7.61834c0.62211,-8.38427 6.79794,-15.4291 11.4278,-22.18559c6.3775,-9.3064 11.74511,-19.23092 19.05984,-27.41205c-0.01005,-0.59558 0.18736,-1.19658 0.60115,-1.68733l1.89323,-2.24473c0.77486,-1.31246 1.62865,-2.72614 2.55614,-4.18072c2.14636,-4.04732 5.3863,-8.25416 8.54644,-12.03032c1.37654,-2.02683 2.82192,-3.76907 4.26368,-4.96028c0.89998,-1.03309 1.73678,-1.99476 2.47106,-2.86645l1.9953,-2.36648c0.90886,-1.0777 2.51875,-1.21491 3.59724,-0.30595c0.95932,0.80919 1.17335,2.17358 0.56866,3.22382l-0.8267,1.50344c0.94174,-0.07663 1.89764,-0.04443 2.86493,0.11051l0.41174,-1.24454l3.10973,1.03068c0.31955,0.09794 0.62558,0.26035 0.89769,0.4894c1.0777,0.90886 1.21492,2.51876 0.30597,3.59725c-0.27612,0.32768 -0.61801,0.56939 -0.98921,0.7198l-2.49566,1.0746l-0.03146,-0.07358l-0.18276,0.15462c-2.06929,0.47725 -3.96827,1.17184 -5.67388,2.05853c-2.05442,1.89279 -4.35627,3.74125 -6.65537,5.67341c-2.98561,4.18034 -4.03978,9.63209 -2.61888,15.72765c0,0 0.5738,2.48732 -1.91342,3.06146c-2.48733,0.57381 -3.06147,-1.91343 -3.06147,-1.91343c-0.12111,-0.53042 -0.22736,-1.05877 -0.3175,-1.58364l-0.68929,1.3177c-0.0892,0.17895 -0.20121,0.35152 -0.33575,0.51147c-0.90886,1.0777 -2.51875,1.21491 -3.59724,0.30595c-0.54567,-0.46002 -0.85024,-1.09935 -0.90012,-1.75905c-0.86778,0.86212 -1.64135,1.72199 -2.16908,2.58527c-3.68566,6.02994 -10.78166,13.84469 -16.77478,21.92443c0.8863,0.81577 1.07014,2.13055 0.48326,3.1491l-1.49908,2.72456l-0.08817,-0.04854l-0.01971,0.03316z" fill="url(#color-17)" stroke="none" stroke-width="0.5"/><path d="M105.13834,-1.9741c8.60919,-10.51614 8.66872,-10.28986 15.8547,-4.55396c7.18586,5.73551 9.02726,14.66633 4.11315,19.9465c-4.91446,5.27997 -14.72443,4.90973 -21.91027,-0.82613c-7.1859,-5.7355 -6.1305,-4.70511 1.94243,-14.56675z" data-paper-data="{&quot;index&quot;:null}" fill="url(#color-18)" stroke="#000000" stroke-width="0"/><path d="M91.07278,30.76918c8.25804,5.80693 9.64002,18.06922 3.08602,27.38807c-6.55309,9.31932 -18.56019,12.16659 -26.81772,6.35953c-8.25806,-5.80694 -8.56384,-5.75152 4.59595,-22.81231c12.34011,-15.99864 10.87719,-16.74189 19.13547,-10.93511z" fill="url(#color-19)" stroke="#000000" stroke-width="0"/></g></g><g data-paper-data="{&quot;index&quot;:null}" stroke-width="0"><path d="M294.72218,399.95812c0,0 -9.41683,2.60817 -16.34674,1.57997c-5.9661,-0.88459 -9.1066,-5.42662 -14.25718,-5.43791c-2.55107,-0.00579 -9.51747,2.51646 -13.12708,2.62171c-4.77536,0.13895 -13.44016,3.86856 -18.41287,3.1592c-6.2213,-0.88678 -8.81206,-6.26697 -15.41093,-6.17634c-14.53055,0.1995 -28.8,4.01986 -28.8,4.01986c0,0 1.11399,-29.81294 -0.1972,-53.79c-1.27161,-23.26373 -4.96149,-40.46454 -5.51716,-56.1754c-0.62782,-17.75666 -0.48394,-65.32681 -0.48394,-65.32681c0,0 21.72426,-2.12502 32.11946,0.2511c9.85177,2.2524 28.70899,13.65354 28.70899,13.65354c0,0 24.60665,-11.7285 36.30975,-14.01141c9.19337,-1.79373 28.21364,1.42453 28.21364,1.42453c0,0 -0.03925,44.90658 -1.81256,69.04977c-0.94465,12.86311 -6.55024,29.8405 -8.57149,48.70113c-2.97476,27.75704 -2.41381,56.45789 -2.41381,56.45789z" fill="#d1b0b0" stroke="#292e32"/><path d="M189.6061,278.45897l0.28277,-26.90828l39.44353,-1.46317l-0.94123,30.03037z" fill="#f200ff" stroke="none"/><path d="M228.79555,267.217c-5.70093,-4.93481 -13.09998,-7.9728 -21.22859,-8.11176c-1.96355,-0.03357 -3.8903,0.10339 -5.76618,0.39718c2.72632,-2.47342 5.04269,-5.39345 6.83222,-8.64713l20.69945,-0.76782z" fill="#eeff00" stroke="none"/><path d="M195.9279,278.72934c1.21163,-3.35948 1.89967,-6.97254 1.96412,-10.74253c0.10265,-6.00583 -1.38994,-11.66769 -4.08716,-16.5814l25.87009,-0.95964c-8.94377,6.68024 -14.50435,17.50653 -14.20686,28.69167z" fill="#00ff5f" stroke="none"/><path d="M195.64873,278.71736c-0.60408,-2.00222 -1.3918,-3.92601 -2.34383,-5.75142c4.8529,-1.47712 9.24257,-4.03358 12.88397,-7.39396c3.87495,6.54599 9.92914,11.66143 17.18158,14.33114l-27.72174,-1.18576z" fill="#004fff" stroke="none"/><path d="M220.83774,279.79475c1.71925,-3.92352 2.70575,-8.24577 2.78355,-12.79665c0.10243,-5.99217 -1.38316,-11.64197 -4.06879,-16.54786l9.78,-0.36276l-0.94123,30.03043z" fill="#ff0000" stroke="none"/><path d="M189.77485,262.40881c3.26643,4.14278 7.49704,7.49525 12.36035,9.71437c0.38161,2.41201 1.02256,4.73956 1.8939,6.95266l-14.42288,-0.61693l0.16865,-16.05015z" fill="#00efff" stroke="none"/><path d="M207.37067,250.90221c-9.65968,5.51866 -16.31304,15.73888 -16.79144,27.59837l-0.97301,-0.04163l0.28275,-26.90829z" fill="#9c00ff" stroke="none"/></g><path d="M142.88813,182.68533c12.12775,9.1486 32.88447,24.55414 32.88447,24.55414c0,0 38.72296,15.52696 13.25124,46.66777c-4.06653,4.97159 -34.22452,-17.40192 -34.22452,-17.40192c0,0 -14.72043,-10.50579 -26.1272,-19.11112c-12.76812,-9.85611 1.7815,-42.7065 14.216,-34.70892z" fill="#b8bda6" stroke="#000000" stroke-width="0"/><path d="M115.29762,120.53075c0,0 2.44547,15.82678 12.12617,31.64009c2.32801,3.80285 20.13301,36.20235 22.56909,40.08382c8.7062,15.17382 -26.0787,25.71049 -33.50473,11.27279c-2.01035,-3.78844 -13.27519,-37.52795 -17.46867,-48.02276c-6.98205,-17.47298 -13.34019,-27.16775 -13.34019,-27.16775z" data-paper-data="{&quot;index&quot;:null}" fill="#b8bda6" stroke="#000000" stroke-width="0"/><path d="M85.02762,129.36882c1.30569,-0.3638 -6.86203,-18.32272 -1.44127,-20.19665c2.66625,-0.92174 4.73546,11.90993 9.90947,14.61786c2.73913,1.43375 -10.10958,-20.2086 -2.29304,-20.48666c2.68316,-0.09551 7.31793,17.43388 11.35417,20.50822c2.16074,1.64543 -10.06999,-25.52953 -4.91613,-25.94589c3.05952,-0.2468 6.21845,16.12661 10.71069,22.32018c2.18894,3.01719 -4.93154,-19.81271 -0.98822,-19.4963c2.41353,0.19374 10.70781,22.01823 11.02746,22.17867c1.79607,0.90229 1.18939,-14.00505 4.00343,-11.42884c5.18611,4.74733 2.17532,13.90991 0.206,22.18442c-1.15114,4.8351 0.83144,10.71665 0.83144,10.71665c0,0 -8.89168,6.04207 -13.8955,7.34756c-4.87204,1.27183 -15.74155,0.38669 -15.74155,0.38669c0,0 -11.5322,-21.93529 -8.76689,-22.70528z" data-paper-data="{&quot;index&quot;:null}" fill="#786274" stroke="#000000" stroke-width="0"/><path d="M407.7496,155.23676c0,0 -4.73458,10.26362 -9.66276,28.07489c-2.96016,10.6978 -11.59401,47.421 -13.06262,51.35834c-6.82742,18.34391 -35.3131,10.35084 -28.68795,-4.53032c1.80794,-4.09259 17.02731,-41.66118 18.75058,-45.66186c7.16632,-16.6356 8.50793,-32.17281 8.50793,-32.17281z" data-paper-data="{&quot;index&quot;:null}" fill="#a3bda9" stroke="#000000" stroke-width="0"/><path d="M412.02413,149.56243c2.21884,0.52106 -8.24963,22.4357 -8.24963,22.4357c0,0 -8.9072,1.69886 -12.81832,0.86277c-4.01688,-0.8593 -10.97528,-5.95026 -10.97528,-5.95026c0,0 1.90212,-5.78904 1.19823,-10.32961c-1.20427,-7.77196 -3.2163,-16.31255 1.24321,-21.26629c2.4195,-2.68795 1.20265,11.6388 2.71039,10.63385c0.26828,-0.17921 8.09026,-21.73332 10.06822,-22.10844c3.23132,-0.61266 -3.68179,21.81387 -1.75109,18.75214c3.96413,-6.28465 7.33344,-22.21596 9.81666,-22.2188c4.18249,-0.00498 -7.10866,26.98371 -5.26674,25.23828c3.44098,-3.26093 8.07025,-20.41527 10.25355,-20.53388c6.36127,-0.34563 -5.16611,21.39135 -2.86305,19.80322c4.34998,-2.99963 6.65989,-15.45251 8.78945,-14.77863c4.32928,1.37001 -3.20157,19.21208 -2.15438,19.45833z" data-paper-data="{&quot;index&quot;:null}" fill="#6c7378" stroke="#000000" stroke-width="0"/></g></g></svg>