<svg version="1.1" xmlns="http://www.w3.org/2000/svg" xmlns:xlink="http://www.w3.org/1999/xlink" width="45.05407" height="121.64421" viewBox="0,0,45.05407,121.64421"><defs><linearGradient x1="240.5031" y1="147.79764" x2="240.5031" y2="155.67084" gradientUnits="userSpaceOnUse" id="color-1"><stop offset="0" stop-color="#505050"/><stop offset="1" stop-color="#767676"/></linearGradient><radialGradient cx="235.45424" cy="124.47796" r="13.11833" gradientUnits="userSpaceOnUse" id="color-2"><stop offset="0" stop-color="#ccbe7a"/><stop offset="1" stop-color="#948f62"/></radialGradient><linearGradient x1="251.47542" y1="115.25813" x2="251.47542" y2="124.50059" gradientUnits="userSpaceOnUse" id="color-3"><stop offset="0" stop-color="#464646"/><stop offset="1" stop-color="#343434"/></linearGradient><linearGradient x1="251.47543" y1="115.25813" x2="251.47543" y2="124.50059" gradientUnits="userSpaceOnUse" id="color-4"><stop offset="0" stop-color="#131313"/><stop offset="1" stop-color="#202020"/></linearGradient><linearGradient x1="239.89382" y1="116.28508" x2="239.89382" y2="151.31515" gradientUnits="userSpaceOnUse" id="color-5"><stop offset="0" stop-color="#ffe8b5" stop-opacity="0.32941"/><stop offset="1" stop-color="#c2a53e" stop-opacity="0.63529"/></linearGradient><linearGradient x1="239.89382" y1="116.28508" x2="239.89382" y2="151.31515" gradientUnits="userSpaceOnUse" id="color-6"><stop offset="0" stop-color="#444444"/><stop offset="1" stop-color="#545454"/></linearGradient><linearGradient x1="228.57688" y1="113.8296" x2="228.57688" y2="125.73514" gradientUnits="userSpaceOnUse" id="color-7"><stop offset="0" stop-color="#464646"/><stop offset="1" stop-color="#343434"/></linearGradient><linearGradient x1="228.57688" y1="113.8296" x2="228.57688" y2="125.73514" gradientUnits="userSpaceOnUse" id="color-8"><stop offset="0" stop-color="#131313"/><stop offset="1" stop-color="#202020"/></linearGradient></defs><g transform="translate(-217.02762,-113.32959)"><g data-paper-data="{&quot;isPaintingLayer&quot;:true}" fill-rule="nonzero" stroke-linejoin="miter" stroke-miterlimit="10" stroke-dasharray="" stroke-dashoffset="0" style="mix-blend-mode: normal"><path d="M226.26473,195.96657v-45.53587h25.57697l0.29568,45.53587z" fill="#747474" stroke="none" stroke-width="NaN" stroke-linecap="butt"/><g><path d="M239.01493,190.69684c3.61983,0.25388 10.371,2.91543 10.371,2.91543l0.66552,33.83957l-7.62062,-0.53449c0,0 0.46307,-25.56844 0.03637,-29.6402c-0.12094,-1.15399 -3.14439,-2.30422 -3.14439,-2.30422c0,0 -3.36718,-4.49066 -0.30788,-4.27609z" fill="#ffefeb" stroke="#000000" stroke-width="0" stroke-linecap="butt"/><path d="M255.94683,234.97252c-0.59131,-0.04147 -2.63859,-0.17138 -4.68815,-0.39588c-1.24608,-0.13649 -1.85426,-0.74936 -2.77536,-0.95716c-1.15961,-0.26159 -2.94676,0.01433 -3.78052,-0.23612c-1.53633,-0.4615 -2.31439,-0.94206 -2.31439,-0.94206c0,0 -0.19671,-1.04172 -0.17395,-1.6019c0.03067,-0.75471 0.34143,-2.5193 0.34143,-2.5193c0,0 5.92807,0.29592 8.22327,0.65772c1.35814,0.21409 4.18492,0.94191 4.18492,0.94191c0,0 1.41311,0.71622 1.59631,1.15735c0.22437,0.54027 0.73179,2.04486 0.73179,2.04486c0,0 -0.5205,1.90841 -1.34536,1.85056z" data-paper-data="{&quot;index&quot;:null}" fill="#141415" stroke="#000000" stroke-width="0" stroke-linecap="butt"/><path d="M255.85673,232.38512c-0.24761,-0.01737 0.58862,1.64687 -2.70497,1.14667c-3.1102,-0.47234 -2.68654,-1.37958 -3.78262,-1.53725c-2.29192,-0.3297 -2.62294,0.41253 -3.60946,0.18998c-0.34357,-0.07751 -0.50344,-0.15013 -1.71233,-1.09283c-0.8314,-0.64833 -0.5415,-1.7935 -1.09585,-2.462c-0.80975,-0.9765 -0.67455,-1.93774 -0.67455,-1.93774l0.13705,-3.0456c0,0 0.33076,2.23543 1.10996,3.11652c0.69717,0.78832 2.31253,0.1434 2.79504,0.1771c0.8449,0.05902 -0.45851,-3.30823 0.34799,-3.23338c0.43367,0.04025 3.73001,0.02695 3.73001,0.02695c0,0 -0.12775,3.57972 0.10323,3.61613c1.35814,0.21409 4.5478,0.96736 4.5478,0.96736c0,0 1.41311,0.71622 1.59632,1.15735c0.22437,0.54027 0.422,2.9956 0.422,2.9956c0,0 -0.38475,-0.02699 -1.20963,-0.08484z" data-paper-data="{&quot;index&quot;:null}" fill="#252527" stroke="#000000" stroke-width="0" stroke-linecap="butt"/><path d="M248.61056,228.93101l2.73752,-0.90201" fill="none" stroke="#ffffff" stroke-width="0.5" stroke-linecap="round"/><path d="M250.52051,229.42967l2.64202,-1.27338" fill="none" stroke="#ffffff" stroke-width="0.5" stroke-linecap="round"/><path d="M254.23422,228.47459l-1.55336,1.34974" fill="none" stroke="#ffffff" stroke-width="0.5" stroke-linecap="round"/><path d="M249.86671,224.8862l-2.19428,0.08922" fill="none" stroke="#969696" stroke-width="0.5" stroke-linecap="round"/><path d="M250.05774,225.62894l-1.96085,0.22715" fill="none" stroke="#969696" stroke-width="0.5" stroke-linecap="round"/></g><g><path d="M229.16282,227.85399l1.52714,-33.88462c0,0 6.59648,-2.62353 9.65662,-2.82583c3.62082,-0.23937 0.88494,4.19483 0.88494,4.19483c0,0 -3.07948,0.29207 -3.29009,1.74492c-0.6441,4.44316 -0.79293,30.24276 -0.79293,30.24276z" fill="#ffefeb" stroke="#000000" stroke-width="0" stroke-linecap="butt"/><path d="M244.81383,231.88711c0,0 -0.25688,1.96137 -1.08198,2.01591c-0.59147,0.0391 -2.63745,0.18805 -4.69853,0.24358c-1.25308,0.03376 -1.93876,-0.49097 -2.87953,-0.57193c-1.18437,-0.10192 -2.91759,0.41383 -3.77761,0.27876c-1.58472,-0.24888 -2.42077,-0.61947 -2.42077,-0.61947c0,0 -0.33617,-1.0054 -0.38959,-1.56351c-0.07197,-0.75189 -0.00338,-2.54232 -0.00338,-2.54232c0,0 5.91343,-0.51077 8.2365,-0.46359c1.37463,0.02792 4.274,0.36566 4.274,0.36566c0,0 1.49718,0.51797 1.73852,0.93017c0.29557,0.50485 1.00235,1.92674 1.00235,1.92674z" data-paper-data="{&quot;index&quot;:null}" fill="#141415" stroke="#000000" stroke-width="0" stroke-linecap="butt"/><path d="M244.50165,231.2717c0,0 -0.38485,0.02544 -1.20995,0.07999c-0.24768,0.01637 0.80651,1.55183 -2.52447,1.50291c-3.14553,-0.04619 -2.84882,-1.00249 -3.95615,-1.01006c-2.31546,-0.01583 -2.54277,0.76443 -3.55036,0.67772c-0.35091,-0.0302 -0.51915,-0.08047 -1.8447,-0.85052c-0.91163,-0.52959 -0.77973,-1.70349 -1.41962,-2.29064c-0.9347,-0.85767 -0.93111,-1.82836 -0.93111,-1.82836l-0.27725,-3.03605c0,0 0.63087,2.16993 1.52236,2.9372c0.79764,0.68649 2.31062,-0.17155 2.79323,-0.20359c0.84509,-0.05611 -0.90293,-3.21549 -0.09373,-3.25071c0.43512,-0.01893 3.6992,-0.47914 3.6992,-0.47914c0,0 0.3589,3.56397 0.59268,3.56872c1.37462,0.02792 4.63698,0.34166 4.63698,0.34166c0,0 1.49718,0.51797 1.73852,0.93017c0.29558,0.50485 0.82435,2.91069 0.82435,2.91069z" data-paper-data="{&quot;index&quot;:null}" fill="#252527" stroke="#000000" stroke-width="0" stroke-linecap="butt"/><path d="M235.64403,228.91228l2.58991,-1.26494" data-paper-data="{&quot;index&quot;:null}" fill="none" stroke="#ffffff" stroke-width="0.5" stroke-linecap="round"/><path d="M237.60395,229.14731l2.44491,-1.61992" data-paper-data="{&quot;index&quot;:null}" fill="none" stroke="#ffffff" stroke-width="0.5" stroke-linecap="round"/><path d="M239.79785,229.24528l1.35596,-1.54794" data-paper-data="{&quot;index&quot;:null}" fill="none" stroke="#ffffff" stroke-width="0.5" stroke-linecap="round"/><path d="M234.1781,225.12043l2.16192,-0.38597" data-paper-data="{&quot;index&quot;:null}" fill="none" stroke="#969696" stroke-width="0.5" stroke-linecap="round"/><path d="M234.71808,225.93543l1.91193,-0.49097" data-paper-data="{&quot;index&quot;:null}" fill="none" stroke="#969696" stroke-width="0.5" stroke-linecap="round"/></g><path d="M261.50239,201.77626c-0.50677,0.00759 -0.78965,-3.86983 -2.13481,-4.28544c-0.46182,-0.14269 -0.42178,5.13075 -1.32226,4.8988c-0.53454,-0.13768 -0.49981,-3.05741 -0.90434,-4.444c-0.19709,-0.67552 -0.78481,-5.48839 -0.78481,-5.48839c0,0 0.5092,-3.00354 -0.21137,-6.43909c-0.17328,-0.82616 -0.53473,-3.55774 -0.72178,-4.40465c-0.44271,-2.00439 -0.95929,-3.9762 -1.19797,-5.21178c-0.51338,-2.65752 -2.14493,-15.50781 -2.14493,-15.50781c0,0 -2.24519,-6.76056 -0.07901,-6.91724c6.68094,-0.48323 5.35894,5.09063 5.35894,5.09063c0,0 0.46802,6.56243 1.52349,13.46451c0.79397,5.19209 2.17561,10.65089 2.51926,13.23818c0.40671,3.06208 0.44126,7.0564 0.44126,7.0564c0,0 0.20339,2.78214 0.23386,5.12928c0.02741,2.11194 -0.08754,3.8133 -0.57554,3.82062z" data-paper-data="{&quot;index&quot;:null}" fill="#8c8c8c" stroke="#000000" stroke-width="0" stroke-linecap="butt"/><path d="M256.27056,207.58782c-0.50286,-0.06314 -0.52995,-3.83358 -0.93973,-4.69472c-0.21936,-0.461 -1.19288,4.84197 -2.05763,4.48604c-0.51335,-0.21129 -0.13632,-3.10577 -0.37433,-4.53911c-0.11596,-0.6983 -0.13339,-5.55954 -0.13339,-5.55954c0,0 0.85683,-2.91153 0.54621,-6.42359c-0.07471,-0.84457 -0.1122,-3.60748 -0.1981,-4.47457c-0.20332,-2.05215 -0.48365,-4.08223 -0.57509,-5.34248c-0.19669,-2.71056 -0.30495,-15.69869 -0.30495,-15.69869c0,0 -3.40999,-9.60423 1.19755,-9.66593c4.05565,-0.0543 4.24683,8.58856 4.24683,8.58856c0,0 -0.30643,6.58186 -0.07086,13.58296c0.17723,5.26657 0.90526,10.87998 0.94207,13.49711c0.04357,3.09741 -0.39092,7.06867 -0.39092,7.06867c0,0 -0.125,2.79109 -0.37021,5.12607c-0.22065,2.10101 -1.03318,4.10999 -1.51743,4.04919z" data-paper-data="{&quot;index&quot;:null}" fill="#969696" stroke="#000000" stroke-width="0" stroke-linecap="butt"/><g><path d="M229.63981,193.59156c0,0 1.05415,-4.96832 0.53438,-10.35244c-0.16183,-1.6764 -0.21302,-5.68895 -0.71668,-7.54193c-0.59549,-2.19087 -2.53406,-2.77781 -2.61907,-4.12911c-0.1679,-2.66921 -1.07001,-6.79369 -0.41646,-11.37123c0.49266,-3.45066 3.45852,-6.29847 3.45852,-6.29847c0,0 3.98746,-0.28908 5.76508,0.07712c2.26281,0.46615 7.72658,0.47022 9.64,0.05396c2.01891,-0.43921 5.48447,0.01677 5.48447,0.01677c0,0 2.62113,3.52189 2.84787,7.84095c0.214,4.0764 -0.63262,8.46783 -0.70926,10.13771c-0.07768,1.69256 -1.49509,2.1313 -2.13228,4.27482c-0.50833,1.71005 -0.54704,5.19044 -0.67745,7.18949c-0.3029,4.64296 0.14784,10.27371 0.14784,10.27371c0,0 -2.75697,-0.76932 -5.57187,-0.83754c-1.27833,-0.03098 -1.79126,1.00612 -2.99851,1.16532c-0.96496,0.12724 -2.63623,-0.61291 -3.56107,-0.64966c-0.69915,-0.02778 -2.04377,-0.5306 -2.53801,-0.53471c-0.99795,-0.0083 -1.61572,0.86529 -2.77345,1.02464c-1.34484,0.1851 -3.1641,-0.33939 -3.1641,-0.33939z" fill="#9d9d9d" stroke="#292e32" stroke-width="0" stroke-linecap="butt"/><path d="M236.33968,160.00014l-2.23101,9.03889" fill="#ff0000" stroke="#ff0000" stroke-width="1" stroke-linecap="round"/><path d="M231.89035,159.47482l-3.98374,8.1094" fill="#ff0000" stroke="#ff0000" stroke-width="1" stroke-linecap="round"/><path d="M230.87411,168.5168l3.1604,-8.83095" fill="#ff0000" stroke="#ff0000" stroke-width="1" stroke-linecap="round"/><path d="M248.03362,169.12293l-1.60782,-9.03889" data-paper-data="{&quot;index&quot;:null}" fill="#ff0000" stroke="#ff0000" stroke-width="1" stroke-linecap="round"/><path d="M249.63229,159.55874l2.87096,8.1094" data-paper-data="{&quot;index&quot;:null}" fill="#ff0000" stroke="#ff0000" stroke-width="1" stroke-linecap="round"/><path d="M248.08706,159.76978l2.2776,8.83096" data-paper-data="{&quot;index&quot;:null}" fill="#ff0000" stroke="#ff0000" stroke-width="1" stroke-linecap="round"/><path d="M231.85508,190.20252c0.00046,-0.41422 0.33663,-0.74962 0.75084,-0.74916c0.41422,0.00046 0.74962,0.33663 0.74916,0.75084c-0.00046,0.41422 -0.33662,0.74962 -0.75084,0.74916c-0.41422,-0.00046 -0.74962,-0.33663 -0.74916,-0.75084z" fill="#002dff" stroke="none" stroke-width="0.5" stroke-linecap="butt"/><path d="M235.54213,190.20671c0.00046,-0.41422 0.33663,-0.74962 0.75084,-0.74916c0.41422,0.00046 0.74962,0.33663 0.74916,0.75084c-0.00046,0.41422 -0.33662,0.74962 -0.75084,0.74916c-0.41422,-0.00046 -0.74962,-0.33663 -0.74916,-0.75084z" fill="#002dff" stroke="none" stroke-width="0.5" stroke-linecap="butt"/><path d="M239.3316,190.21092c0.00046,-0.41422 0.33662,-0.74962 0.75084,-0.74916c0.41422,0.00046 0.74962,0.33663 0.74916,0.75084c-0.00046,0.41422 -0.33663,0.74962 -0.75084,0.74916c-0.41422,-0.00046 -0.74962,-0.33663 -0.74916,-0.75084z" fill="#002dff" stroke="none" stroke-width="0.5" stroke-linecap="butt"/><path d="M243.22348,190.21531c0.00046,-0.41422 0.33663,-0.74963 0.75084,-0.74916c0.41422,0.00046 0.74962,0.33663 0.74916,0.75084c-0.00046,0.41422 -0.33663,0.74962 -0.75084,0.74916c-0.41422,-0.00046 -0.74962,-0.33662 -0.74916,-0.75084z" fill="#002dff" stroke="none" stroke-width="0.5" stroke-linecap="butt"/><path d="M246.91053,190.21952c0.00046,-0.41422 0.33663,-0.74963 0.75084,-0.74916c0.41422,0.00046 0.74962,0.33663 0.74916,0.75085c-0.00046,0.41422 -0.33663,0.74962 -0.75084,0.74915c-0.41422,-0.00046 -0.74962,-0.33662 -0.74916,-0.75084z" fill="#002dff" stroke="none" stroke-width="0.5" stroke-linecap="butt"/><path d="M239.01545,177.6144c0,-1.38071 1.11929,-2.5 2.5,-2.5c1.38071,0 2.5,1.11929 2.5,2.5c0,1.38071 -1.11929,2.5 -2.5,2.5c-1.38071,0 -2.5,-1.11929 -2.5,-2.5z" fill="#797979" stroke="#00ff35" stroke-width="1" stroke-linecap="butt"/><path d="M237.52114,177.30718h-5.73541" fill="none" stroke="#00ff35" stroke-width="1" stroke-linecap="round"/><path d="M245.40734,177.40961h3.58464" fill="none" stroke="#00ff35" stroke-width="1" stroke-linecap="round"/></g><path d="M217.02852,197.71932c0.01496,-2.34875 0.20985,-5.1359 0.20985,-5.1359c0,0 0.0071,-3.99675 0.41526,-7.06773c0.34489,-2.59481 1.76798,-8.08167 2.57061,-13.2908c1.06695,-6.92475 1.51423,-13.49877 1.51423,-13.49877c0,0 0.44412,-5.76839 5.66143,-5.09011c4.7457,0.61696 0.47495,7.04381 0.47495,7.04381c0,0 -2.16383,12.66209 -2.68797,15.3303c-0.24369,1.24056 -0.77627,3.22282 -1.23037,5.23632c-0.19187,0.85075 -0.55453,3.59025 -0.73197,4.41999c-0.73783,3.45044 -0.17634,6.44588 -0.17634,6.44588c0,0 -0.58697,4.82592 -0.79073,5.50539c-0.41822,1.39471 -0.35988,4.3151 -0.92504,4.46275c-0.95205,0.24876 -1.19762,-6.04935 -1.48248,-5.61807c-0.53215,0.80563 -1.64683,5.06677 -2.18364,5.06856c-0.51692,0.00173 -0.65124,-1.69824 -0.63779,-3.81162z" data-paper-data="{&quot;index&quot;:null}" fill="#a1a1a1" stroke="#000000" stroke-width="0" stroke-linecap="butt"/><path d="M222.81626,203.72552c-0.38881,-2.31638 -0.67567,-5.09558 -0.67567,-5.09558c0,0 -0.67969,-3.93854 -0.80521,-7.03398c-0.10605,-2.61549 0.35318,-8.26526 0.24889,-13.53483c-0.13864,-7.00508 -0.8275,-13.55821 -0.8275,-13.55821c0,0 -0.29462,-9.16099 6.08362,-8.25038c3.46693,0.49496 -0.26405,8.99101 -0.26405,8.99101c0,0 0.60504,12.97528 0.54712,15.69386c-0.02692,1.26398 -0.21101,3.30826 -0.31244,5.36985c-0.04284,0.87106 0.07055,3.63215 0.03832,4.48004c-0.13405,3.5259 0.93375,6.38032 0.93375,6.38032c0,0 -0.34967,9.88392 -0.80448,10.11685c-1.32481,0.67846 -1.31542,-5.66839 -1.63766,-5.17626c-0.60875,0.92972 -0.71301,5.16868 -1.24152,5.26267c-0.50894,0.09051 -0.93334,-1.56109 -1.28318,-3.64536z" data-paper-data="{&quot;index&quot;:null}" fill="#adadad" stroke="#000000" stroke-width="0" stroke-linecap="butt"/><g><path d="M230.86127,155.67084v-7.87321c0,0 6.36471,3.42314 9.45991,3.42314c3.31728,0 9.82375,-3.42314 9.82375,-3.42314v7.87321c0,0 -6.37741,0.68463 -9.58119,0.68463c-3.22398,0 -9.70247,-0.68463 -9.70247,-0.68463z" fill="url(#color-1)" stroke="none" stroke-width="0" stroke-linecap="butt"/><path d="M251.22503,117.79766c0,0 -0.26338,3.24445 -0.58861,4.57283c-0.26638,1.08795 -1.2217,2.82111 -1.2217,2.82111" data-paper-data="{&quot;index&quot;:null}" fill="none" stroke="#3b2c16" stroke-width="1.25" stroke-linecap="round"/><path d="M252.62928,121.93592c0,0 -0.18908,2.27851 -0.58872,3.23539c-0.42269,1.01206 -1.88216,2.68074 -1.88216,2.68074" data-paper-data="{&quot;index&quot;:null}" fill="none" stroke="#3b2c16" stroke-width="1.25" stroke-linecap="round"/><path d="M248.97181,116.03363c0,0 0.11659,3.27103 -0.03039,4.69304c-0.12038,1.16464 -0.78772,3.22209 -0.78772,3.22209" data-paper-data="{&quot;index&quot;:null}" fill="none" stroke="#3b2c16" stroke-width="1.25" stroke-linecap="round"/><path d="M252.55186,134.25849c0,7.39154 -8.18556,17.31455 -11.39879,17.3764c-6.69145,0.1288 -14.23242,-9.98486 -14.23242,-17.3764c0,-7.39154 5.73774,-13.38356 12.8156,-13.38356c7.07786,0 12.8156,5.99202 12.8156,13.38356z" fill="url(#color-2)" stroke="none" stroke-width="0" stroke-linecap="butt"/><path d="M241.64847,135.34167c0,2.06292 -0.85162,3.73524 -1.90215,3.73524c-1.05053,0 -1.90214,-1.67233 -1.90214,-3.73524c0,-2.06292 0.85162,-3.73523 1.90214,-3.73523c1.05053,0 1.90215,1.67232 1.90215,3.73523z" fill="none" stroke="#191412" stroke-width="1.5" stroke-linecap="butt"/><path d="M246.38251,129.77998c0,2.06292 -0.85162,3.73524 -1.90214,3.73524c-1.05053,0 -1.90215,-1.67233 -1.90215,-3.73524c0,-2.06292 0.85162,-3.73524 1.90215,-3.73524c1.05053,0 1.90214,1.67232 1.90214,3.73524z" fill="none" stroke="#191412" stroke-width="1.5" stroke-linecap="butt"/><path d="M251.07876,135.2952c0,2.06292 -0.85161,3.73524 -1.90214,3.73524c-1.05053,0 -1.90215,-1.67233 -1.90215,-3.73524c0,-2.06292 0.85162,-3.73523 1.90215,-3.73523c1.05053,0 1.90214,1.67232 1.90214,3.73523z" fill="none" stroke="#191412" stroke-width="1.5" stroke-linecap="butt"/><path d="M246.32529,140.42397c0,2.06292 -0.85162,3.73524 -1.90214,3.73524c-1.05053,0 -1.90215,-1.67233 -1.90215,-3.73524c0,-2.06292 0.85162,-3.73523 1.90215,-3.73523c1.05053,0 1.90214,1.67232 1.90214,3.73523z" fill="none" stroke="#191412" stroke-width="1.5" stroke-linecap="butt"/><path d="M232.27207,125.51301c0,0 -1.55639,-1.73224 -1.99089,-2.81993c-0.53052,-1.32806 -0.96207,-4.57226 -0.96207,-4.57226" fill="none" stroke="#47341a" stroke-width="1.5" stroke-linecap="round"/><path d="M231.06404,128.17423c0,0 -2.37686,-1.66727 -3.06571,-2.67893c-0.6513,-0.9565 -0.96105,-3.23482 -0.96105,-3.23482" fill="none" stroke="#47341a" stroke-width="1.5" stroke-linecap="round"/><path d="M234.32335,124.26897c0,0 -1.08798,-2.05681 -1.28494,-3.22133c-0.24048,-1.42187 -0.05363,-4.693 -0.05363,-4.693" fill="none" stroke="#47341a" stroke-width="1.5" stroke-linecap="round"/><path d="M248.22345,118.68126l-0.1141,-3.42313h6.73217v9.24246c0,0 -2.61174,-3.02641 -3.82969,-4.09736c-0.86469,-0.76032 -2.78838,-1.72198 -2.78838,-1.72198z" fill="url(#color-3)" stroke="url(#color-4)" stroke-width="1" stroke-linecap="butt"/><path d="M239.89381,151.31515c-9.01159,0 -16.31694,-7.84175 -16.31694,-17.51504c0,-9.67328 7.30535,-17.51503 16.31694,-17.51503c9.0116,0 16.31695,7.84174 16.31695,17.51503c0,9.67329 -7.30535,17.51504 -16.31695,17.51504z" fill="url(#color-5)" stroke="url(#color-6)" stroke-width="2.5" stroke-linecap="butt"/><path d="M229.17406,120.45719c-1.56888,1.37953 -4.93315,5.27795 -4.93315,5.27795v-11.90555h8.67195l-0.14699,4.40945c0,0 -2.47798,1.23874 -3.59181,2.21814z" data-paper-data="{&quot;index&quot;:null}" fill="url(#color-7)" stroke="url(#color-8)" stroke-width="1" stroke-linecap="butt"/></g></g></g></svg>