<svg version="1.1" xmlns="http://www.w3.org/2000/svg" xmlns:xlink="http://www.w3.org/1999/xlink" width="110.59566" height="263.85467" viewBox="0,0,110.59566,263.85467"><defs><linearGradient x1="208.29527" y1="105.00003" x2="271.70473" y2="105.00003" gradientUnits="userSpaceOnUse" id="color-1"><stop offset="0" stop-color="#303030"/><stop offset="1" stop-color="#171717"/></linearGradient><linearGradient x1="208.29527" y1="105.00003" x2="271.70473" y2="105.00003" gradientUnits="userSpaceOnUse" id="color-2"><stop offset="0" stop-color="#272727"/><stop offset="1" stop-color="#000000"/></linearGradient><radialGradient cx="239.99999" cy="105.00003" r="26.30533" gradientUnits="userSpaceOnUse" id="color-3"><stop offset="0" stop-color="#734c45" stop-opacity="0.40995"/><stop offset="1" stop-color="#734c45" stop-opacity="0"/></radialGradient><radialGradient cx="239.99999" cy="104.90648" r="21.35612" gradientUnits="userSpaceOnUse" id="color-4"><stop offset="0" stop-color="#eb8c73" stop-opacity="0.60996"/><stop offset="1" stop-color="#eb8c73" stop-opacity="0"/></radialGradient><radialGradient cx="239.99999" cy="104.90648" r="18.07971" gradientUnits="userSpaceOnUse" id="color-5"><stop offset="0" stop-color="#ff734f" stop-opacity="0"/><stop offset="1" stop-color="#ff734f" stop-opacity="0.08997"/></radialGradient><radialGradient cx="239.99999" cy="104.90648" r="14.86702" gradientUnits="userSpaceOnUse" id="color-6"><stop offset="0" stop-color="#ffa282" stop-opacity="0.11996"/><stop offset="1" stop-color="#ffab8f"/></radialGradient><linearGradient x1="209.1875" y1="104.95834" x2="213.4375" y2="104.95834" gradientUnits="userSpaceOnUse" id="color-7"><stop offset="0" stop-color="#9d9d9d"/><stop offset="1" stop-color="#4c4c4c"/></linearGradient><linearGradient x1="209.1875" y1="104.95834" x2="213.4375" y2="104.95834" gradientUnits="userSpaceOnUse" id="color-8"><stop offset="0" stop-color="#272727"/><stop offset="1" stop-color="#000000"/></linearGradient><linearGradient x1="266.6875" y1="104.95834" x2="270.9375" y2="104.95834" gradientUnits="userSpaceOnUse" id="color-9"><stop offset="0" stop-color="#9d9d9d"/><stop offset="1" stop-color="#4c4c4c"/></linearGradient><linearGradient x1="266.6875" y1="104.95834" x2="270.9375" y2="104.95834" gradientUnits="userSpaceOnUse" id="color-10"><stop offset="0" stop-color="#272727"/><stop offset="1" stop-color="#000000"/></linearGradient><linearGradient x1="209.07143" y1="112.8199" x2="270.92857" y2="112.8199" gradientUnits="userSpaceOnUse" id="color-11"><stop offset="0" stop-color="#272727"/><stop offset="1" stop-color="#000000"/></linearGradient><linearGradient x1="209.07143" y1="112.89442" x2="270.92857" y2="112.89442" gradientUnits="userSpaceOnUse" id="color-12"><stop offset="0" stop-color="#272727"/><stop offset="1" stop-color="#000000"/></linearGradient><linearGradient x1="209.21429" y1="96.39133" x2="271.07142" y2="96.39133" gradientUnits="userSpaceOnUse" id="color-13"><stop offset="0" stop-color="#272727"/><stop offset="1" stop-color="#000000"/></linearGradient><linearGradient x1="209.21429" y1="96.46585" x2="271.07142" y2="96.46585" gradientUnits="userSpaceOnUse" id="color-14"><stop offset="0" stop-color="#272727"/><stop offset="1" stop-color="#000000"/></linearGradient><linearGradient x1="208.45974" y1="123.33539" x2="270.95974" y2="123.33539" gradientUnits="userSpaceOnUse" id="color-15"><stop offset="0" stop-color="#c7a895"/><stop offset="1" stop-color="#322c27"/></linearGradient><linearGradient x1="208.45974" y1="123.33539" x2="270.95974" y2="123.33539" gradientUnits="userSpaceOnUse" id="color-16"><stop offset="0" stop-color="#272727"/><stop offset="1" stop-color="#000000"/></linearGradient><linearGradient x1="208.74546" y1="86.76395" x2="271.24546" y2="86.76395" gradientUnits="userSpaceOnUse" id="color-17"><stop offset="0" stop-color="#c7a895"/><stop offset="1" stop-color="#322c27"/></linearGradient><linearGradient x1="208.74546" y1="86.76395" x2="271.24546" y2="86.76395" gradientUnits="userSpaceOnUse" id="color-18"><stop offset="0" stop-color="#272727"/><stop offset="1" stop-color="#000000"/></linearGradient><linearGradient x1="254.9" y1="242.06666" x2="260.09999" y2="242.06666" gradientUnits="userSpaceOnUse" id="color-19"><stop offset="0" stop-color="#525252"/><stop offset="1" stop-color="#363636"/></linearGradient><linearGradient x1="254.9" y1="242.06666" x2="260.09999" y2="242.06666" gradientUnits="userSpaceOnUse" id="color-20"><stop offset="0" stop-color="#1f1f1f"/><stop offset="1" stop-color="#000000"/></linearGradient><linearGradient x1="215.6029" y1="244.30047" x2="222.3971" y2="247.23286" gradientUnits="userSpaceOnUse" id="color-21"><stop offset="0" stop-color="#525252"/><stop offset="1" stop-color="#2e2e2e"/></linearGradient><linearGradient x1="215.6029" y1="244.30047" x2="222.3971" y2="247.23286" gradientUnits="userSpaceOnUse" id="color-22"><stop offset="0" stop-color="#1f1f1f"/><stop offset="1" stop-color="#000000"/></linearGradient><linearGradient x1="207.34164" y1="247.34992" x2="271.51049" y2="247.34992" gradientUnits="userSpaceOnUse" id="color-23"><stop offset="0" stop-color="#767676"/><stop offset="1" stop-color="#2a2a2a"/></linearGradient><linearGradient x1="207.34164" y1="247.34992" x2="271.51049" y2="247.34992" gradientUnits="userSpaceOnUse" id="color-24"><stop offset="0" stop-color="#1f1f1f"/><stop offset="1" stop-color="#000000"/></linearGradient><linearGradient x1="229.3" y1="229.73333" x2="249.7" y2="229.73333" gradientUnits="userSpaceOnUse" id="color-25"><stop offset="0" stop-color="#7f7f7f"/><stop offset="1" stop-color="#545454"/></linearGradient><linearGradient x1="222.7" y1="242.80392" x2="255.5" y2="242.80392" gradientUnits="userSpaceOnUse" id="color-26"><stop offset="0" stop-color="#7f7f7f"/><stop offset="1" stop-color="#545454"/></linearGradient><linearGradient x1="217.16342" y1="257.23292" x2="261.19756" y2="257.23292" gradientUnits="userSpaceOnUse" id="color-27"><stop offset="0" stop-color="#7f7f7f"/><stop offset="1" stop-color="#545454"/></linearGradient><linearGradient x1="211.3" y1="271.60392" x2="267.3" y2="271.60392" gradientUnits="userSpaceOnUse" id="color-28"><stop offset="0" stop-color="#7f7f7f"/><stop offset="1" stop-color="#545454"/></linearGradient><linearGradient x1="249.89787" y1="225.01766" x2="266.10093" y2="225.01766" gradientUnits="userSpaceOnUse" id="color-29"><stop offset="0" stop-color="#8f8f8f"/><stop offset="1" stop-color="#4e4e4e"/></linearGradient><linearGradient x1="249.89787" y1="225.01766" x2="266.10093" y2="225.01766" gradientUnits="userSpaceOnUse" id="color-30"><stop offset="0" stop-color="#1f1f1f"/><stop offset="1" stop-color="#000000"/></linearGradient><linearGradient x1="271.82284" y1="203.00127" x2="303.62907" y2="203.00127" gradientUnits="userSpaceOnUse" id="color-31"><stop offset="0" stop-color="#353535"/><stop offset="1" stop-color="#1f1f1f"/></linearGradient><linearGradient x1="271.82284" y1="204.09395" x2="293.57785" y2="204.09395" gradientUnits="userSpaceOnUse" id="color-32"><stop offset="0" stop-color="#272727"/><stop offset="1" stop-color="#000000"/></linearGradient><linearGradient x1="208.57785" y1="202.66794" x2="176.77164" y2="202.66794" gradientUnits="userSpaceOnUse" id="color-33"><stop offset="0" stop-color="#6b6b6b"/><stop offset="1" stop-color="#838383"/></linearGradient><linearGradient x1="186.82285" y1="203.76061" x2="208.57785" y2="203.76061" gradientUnits="userSpaceOnUse" id="color-34"><stop offset="0" stop-color="#272727"/><stop offset="1" stop-color="#000000"/></linearGradient><linearGradient x1="208.48951" y1="177.26061" x2="271.89896" y2="177.26061" gradientUnits="userSpaceOnUse" id="color-35"><stop offset="0" stop-color="#646464"/><stop offset="1" stop-color="#222222"/></linearGradient><linearGradient x1="208.48951" y1="177.26061" x2="271.89896" y2="177.26061" gradientUnits="userSpaceOnUse" id="color-36"><stop offset="0" stop-color="#272727"/><stop offset="1" stop-color="#000000"/></linearGradient><linearGradient x1="207.91558" y1="50.83333" x2="272.08441" y2="50.83333" gradientUnits="userSpaceOnUse" id="color-37"><stop offset="0" stop-color="#c9c9c9"/><stop offset="1" stop-color="#3e3e3e"/></linearGradient><linearGradient x1="207.91558" y1="50.83334" x2="272.08442" y2="50.83334" gradientUnits="userSpaceOnUse" id="color-38"><stop offset="0" stop-color="#272727"/><stop offset="1" stop-color="#000000"/></linearGradient><linearGradient x1="226.31622" y1="30.07072" x2="253.57887" y2="30.07072" gradientUnits="userSpaceOnUse" id="color-39"><stop offset="0" stop-color="#8c8c8c"/><stop offset="1" stop-color="#222222"/></linearGradient><linearGradient x1="226.31622" y1="30.07072" x2="253.57888" y2="30.07072" gradientUnits="userSpaceOnUse" id="color-40"><stop offset="0" stop-color="#272727"/><stop offset="1" stop-color="#000000"/></linearGradient><radialGradient cx="236.95984" cy="50.63115" r="11.97017" gradientUnits="userSpaceOnUse" id="color-41"><stop offset="0" stop-color="#9cd7f7"/><stop offset="1" stop-color="#0087f6"/></radialGradient><linearGradient x1="228.02983" y1="57" x2="251.97017" y2="57" gradientUnits="userSpaceOnUse" id="color-42"><stop offset="0" stop-color="#272727"/><stop offset="1" stop-color="#000000"/></linearGradient><linearGradient x1="226.91558" y1="26.6659" x2="252.75108" y2="26.6659" gradientUnits="userSpaceOnUse" id="color-43"><stop offset="0" stop-color="#ffffff"/><stop offset="1" stop-color="#606060"/></linearGradient><linearGradient x1="226.91558" y1="26.66591" x2="252.75109" y2="26.66591" gradientUnits="userSpaceOnUse" id="color-44"><stop offset="0" stop-color="#272727"/><stop offset="1" stop-color="#000000"/></linearGradient><linearGradient x1="242.46088" y1="179.93702" x2="267.33232" y2="179.93702" gradientUnits="userSpaceOnUse" id="color-45"><stop offset="0" stop-color="#4a382c"/><stop offset="1" stop-color="#301f1b"/></linearGradient><linearGradient x1="242.46088" y1="179.93702" x2="267.33232" y2="179.93702" gradientUnits="userSpaceOnUse" id="color-46"><stop offset="0" stop-color="#351c12"/><stop offset="1" stop-color="#1a1310"/></linearGradient><linearGradient x1="242.39399" y1="179.94639" x2="267.2079" y2="179.94639" gradientUnits="userSpaceOnUse" id="color-47"><stop offset="0" stop-color="#351c12"/><stop offset="1" stop-color="#1a1310"/></linearGradient><linearGradient x1="242.39399" y1="179.75746" x2="267.2079" y2="179.75746" gradientUnits="userSpaceOnUse" id="color-48"><stop offset="0" stop-color="#351c12"/><stop offset="1" stop-color="#1a1310"/></linearGradient><linearGradient x1="212.73457" y1="180.06298" x2="237.60601" y2="180.06298" gradientUnits="userSpaceOnUse" id="color-49"><stop offset="0" stop-color="#4a382c"/><stop offset="1" stop-color="#301f1b"/></linearGradient><linearGradient x1="212.73457" y1="180.06298" x2="237.60601" y2="180.06298" gradientUnits="userSpaceOnUse" id="color-50"><stop offset="0" stop-color="#351c12"/><stop offset="1" stop-color="#1a1310"/></linearGradient><linearGradient x1="212.66769" y1="180.07235" x2="237.48159" y2="180.07235" gradientUnits="userSpaceOnUse" id="color-51"><stop offset="0" stop-color="#351c12"/><stop offset="1" stop-color="#1a1310"/></linearGradient><linearGradient x1="212.66769" y1="179.88341" x2="237.48159" y2="179.88341" gradientUnits="userSpaceOnUse" id="color-52"><stop offset="0" stop-color="#351c12"/><stop offset="1" stop-color="#1a1310"/></linearGradient><linearGradient x1="242.46088" y1="209.93702" x2="267.33232" y2="209.93702" gradientUnits="userSpaceOnUse" id="color-53"><stop offset="0" stop-color="#4a382c"/><stop offset="1" stop-color="#301f1b"/></linearGradient><linearGradient x1="242.46088" y1="209.93702" x2="267.33232" y2="209.93702" gradientUnits="userSpaceOnUse" id="color-54"><stop offset="0" stop-color="#351c12"/><stop offset="1" stop-color="#1a1310"/></linearGradient><linearGradient x1="242.39399" y1="209.94639" x2="267.2079" y2="209.94639" gradientUnits="userSpaceOnUse" id="color-55"><stop offset="0" stop-color="#351c12"/><stop offset="1" stop-color="#1a1310"/></linearGradient><linearGradient x1="242.39399" y1="209.75746" x2="267.2079" y2="209.75746" gradientUnits="userSpaceOnUse" id="color-56"><stop offset="0" stop-color="#351c12"/><stop offset="1" stop-color="#1a1310"/></linearGradient><linearGradient x1="212.73457" y1="210.06298" x2="237.60601" y2="210.06298" gradientUnits="userSpaceOnUse" id="color-57"><stop offset="0" stop-color="#4a382c"/><stop offset="1" stop-color="#301f1b"/></linearGradient><linearGradient x1="212.73457" y1="210.06298" x2="237.60601" y2="210.06298" gradientUnits="userSpaceOnUse" id="color-58"><stop offset="0" stop-color="#351c12"/><stop offset="1" stop-color="#1a1310"/></linearGradient><linearGradient x1="212.66769" y1="210.07235" x2="237.48159" y2="210.07235" gradientUnits="userSpaceOnUse" id="color-59"><stop offset="0" stop-color="#351c12"/><stop offset="1" stop-color="#1a1310"/></linearGradient><linearGradient x1="212.66769" y1="209.88341" x2="237.48159" y2="209.88341" gradientUnits="userSpaceOnUse" id="color-60"><stop offset="0" stop-color="#351c12"/><stop offset="1" stop-color="#1a1310"/></linearGradient><linearGradient x1="211.7" y1="145.8" x2="268.3" y2="145.8" gradientUnits="userSpaceOnUse" id="color-61"><stop offset="0" stop-color="#515151"/><stop offset="1" stop-color="#131313"/></linearGradient><linearGradient x1="211.7" y1="145.8" x2="268.3" y2="145.8" gradientUnits="userSpaceOnUse" id="color-62"><stop offset="0" stop-color="#272727"/><stop offset="1" stop-color="#000000"/></linearGradient><linearGradient x1="214.64792" y1="133.48421" x2="264.95903" y2="133.48421" gradientUnits="userSpaceOnUse" id="color-63"><stop offset="0" stop-color="#272727"/><stop offset="1" stop-color="#000000"/></linearGradient><linearGradient x1="214.84445" y1="158.29825" x2="264.36945" y2="158.29825" gradientUnits="userSpaceOnUse" id="color-64"><stop offset="0" stop-color="#272727"/><stop offset="1" stop-color="#000000"/></linearGradient><linearGradient x1="228.7" y1="75" x2="251.3" y2="75" gradientUnits="userSpaceOnUse" id="color-65"><stop offset="0" stop-color="#272727"/><stop offset="1" stop-color="#000000"/></linearGradient><linearGradient x1="228.7" y1="72" x2="251.3" y2="72" gradientUnits="userSpaceOnUse" id="color-66"><stop offset="0" stop-color="#272727"/><stop offset="1" stop-color="#000000"/></linearGradient><linearGradient x1="228.7" y1="78" x2="251.3" y2="78" gradientUnits="userSpaceOnUse" id="color-67"><stop offset="0" stop-color="#272727"/><stop offset="1" stop-color="#000000"/></linearGradient></defs><g transform="translate(-184.90251,-16.33096)"><g data-paper-data="{&quot;isPaintingLayer&quot;:true}" fill-rule="nonzero" stroke-linejoin="miter" stroke-miterlimit="10" stroke-dasharray="" stroke-dashoffset="0" style="mix-blend-mode: normal"><g><path d="M208.29527,125.76856v-41.53706h63.40946v41.53706z" fill="url(#color-1)" stroke="url(#color-2)" stroke-width="1.5" stroke-linecap="butt"/><path d="M213.69467,105.00003c0,-14.528 11.7773,-26.30534 26.30534,-26.30534c14.528,0 26.30534,11.7773 26.30534,26.30534c0,14.528 -11.7773,26.30534 -26.30534,26.30534c-14.528,0 -26.30534,-11.7773 -26.30534,-26.30534z" fill="url(#color-3)" stroke="none" stroke-width="0.5" stroke-linecap="butt"/><path d="M218.64387,104.90648c0,-11.7946 9.56145,-21.35611 21.35612,-21.35611c11.7946,0 21.35612,9.56145 21.35612,21.35611c0,11.7946 -9.56145,21.35612 -21.35612,21.35612c-11.7946,0 -21.35612,-9.56145 -21.35612,-21.35612z" fill="url(#color-4)" stroke="none" stroke-width="0.5" stroke-linecap="butt"/><path d="M221.92027,104.90648c0,-9.98512 8.09456,-18.07971 18.07972,-18.07971c9.98512,0 18.07971,8.09455 18.07971,18.07971c0,9.98512 -8.09456,18.07972 -18.07971,18.07972c-9.98512,0 -18.07972,-8.09456 -18.07972,-18.07972z" fill="url(#color-5)" stroke="none" stroke-width="0.5" stroke-linecap="butt"/><path d="M225.13297,104.90648c0,-8.2108 6.65619,-14.86702 14.86703,-14.86702c8.2108,0 14.86703,6.65618 14.86703,14.86702c0,8.2108 -6.65619,14.86703 -14.86703,14.86703c-8.2108,0 -14.86703,-6.65619 -14.86703,-14.86703z" fill="url(#color-6)" stroke="none" stroke-width="0.5" stroke-linecap="butt"/><path d="M209.1875,121.20834v-32.5h4.25v32.5z" fill="url(#color-7)" stroke="url(#color-8)" stroke-width="0" stroke-linecap="butt"/><path d="M266.6875,121.20834v-32.5h4.25v32.5z" fill="url(#color-9)" stroke="url(#color-10)" stroke-width="0" stroke-linecap="butt"/><path d="M209.07143,121.35407l3.42857,-17.06832l3.28572,17.06832l4.42857,-16.91925l4.42857,16.84472l7.71429,-16.84472l7.42857,16.91925l6.57143,-16.84472l7.42857,16.77018l5,-16.77018l5.42857,16.91925l3.42857,-16.84472l3.28571,16.69565" fill="none" stroke="url(#color-11)" stroke-width="0.5" stroke-linecap="round"/><path d="M270.92857,104.43479l-3.28571,16.69565l-3.42857,-16.84472l-5.42857,16.91925l-5,-16.77018l-7.42857,16.77018l-6.57143,-16.84472l-7.42857,16.91925l-7.71429,-16.84472l-4.42857,16.84472l-4.42857,-16.91925l-3.28572,17.06832l-3.42857,-17.06832" data-paper-data="{&quot;index&quot;:null}" fill="none" stroke="url(#color-12)" stroke-width="0.5" stroke-linecap="round"/><path d="M209.21429,104.92547l3.42857,-17.06832l3.28572,17.06832l4.42857,-16.91925l4.42857,16.84472l7.71429,-16.84472l7.42857,16.91925l6.57143,-16.84472l7.42857,16.77019l5,-16.77019l5.42857,16.91926l3.42857,-16.84472l3.28571,16.69565" fill="none" stroke="url(#color-13)" stroke-width="0.5" stroke-linecap="round"/><path d="M271.07142,88.00624l-3.28571,16.69565l-3.42857,-16.84472l-5.42857,16.91925l-5,-16.77018l-7.42857,16.77018l-6.57143,-16.84472l-7.42857,16.91925l-7.71429,-16.84472l-4.42857,16.84472l-4.42857,-16.91925l-3.28572,17.06832l-3.42857,-17.06832" data-paper-data="{&quot;index&quot;:null}" fill="none" stroke="url(#color-14)" stroke-width="0.5" stroke-linecap="round"/><path d="M208.45974,125.16873v-3.66666h62.5v3.66666z" fill="url(#color-15)" stroke="url(#color-16)" stroke-width="0.5" stroke-linecap="butt"/><path d="M208.74546,88.5973v-3.66666h62.5v3.66666z" fill="url(#color-17)" stroke="url(#color-18)" stroke-width="0.5" stroke-linecap="butt"/></g><g><path d="M254.9,250.66666v-17.2h5.2v17.2z" fill="url(#color-19)" stroke="url(#color-20)" stroke-width="1.5" stroke-linecap="butt"/><path d="M203.27895,272.85445l24.6479,-57.10797l6.7942,2.93239l-24.6479,57.10798z" fill="url(#color-21)" stroke="url(#color-22)" stroke-width="1.5" stroke-linecap="butt"/><path d="M207.34164,279.43563c0,0 23.96029,-64.63938 32.08881,-64.16885c9.29886,0.53827 32.08004,64.16885 32.08004,64.16885z" fill="url(#color-23)" stroke="url(#color-24)" stroke-width="1.5" stroke-linecap="butt"/><path d="M229.3,229.73333h20.4" fill="none" stroke="url(#color-25)" stroke-width="4.5" stroke-linecap="round"/><path d="M255.5,242.80392h-32.8" fill="none" stroke="url(#color-26)" stroke-width="4.5" stroke-linecap="round"/><path d="M217.16342,257.23292h44.03415" fill="none" stroke="url(#color-27)" stroke-width="4.5" stroke-linecap="round"/><path d="M211.3,271.60392h56" fill="none" stroke="url(#color-28)" stroke-width="4.5" stroke-linecap="round"/><path d="M266.10093,225.01766c-0.06063,7.61853 -0.25257,8.43369 -8.10153,8.35295c-7.85147,-0.08077 -8.19893,-1.11312 -8.10153,-8.35295c0.10754,-7.99323 0.08469,-8.54885 8.10153,-8.35295c7.68121,0.18771 8.16811,-0.01299 8.10153,8.35295z" fill="url(#color-29)" stroke="url(#color-30)" stroke-width="1.5" stroke-linecap="butt"/></g><path d="M271.82284,229.0938v-64.85172c0,0 8.16113,43.53356 11.01446,54.04444c2.25749,8.31596 10.74054,25.65929 10.74054,25.65929z" fill="url(#color-31)" stroke="url(#color-32)" stroke-width="1.5" stroke-linecap="butt"/><path d="M186.82285,243.61247c0,0 8.48305,-17.34332 10.74054,-25.65928c2.85333,-10.51089 11.01446,-54.04444 11.01446,-54.04444v64.85172z" data-paper-data="{&quot;index&quot;:null}" fill="url(#color-33)" stroke="url(#color-34)" stroke-width="1.5" stroke-linecap="butt"/><path d="M208.48951,229.27914v-104.03706h63.40946v104.03706z" fill="url(#color-35)" stroke="url(#color-36)" stroke-width="1.5" stroke-linecap="butt"/><path d="M207.91558,82.91904c0,0 23.62696,-64.63938 31.75548,-64.16885c9.29886,0.53827 32.41336,64.16885 32.41336,64.16885z" fill="url(#color-37)" stroke="url(#color-38)" stroke-width="1.5" stroke-linecap="butt"/><path d="M226.57114,39.25323l1.10589,-2.46571l24.55692,-0.06869l1.09001,2.53441z" fill="url(#color-39)" stroke="url(#color-40)" stroke-width="0" stroke-linecap="butt"/><path d="M251.97017,57c0,6.47884 -5.35923,11.73099 -11.97017,11.73099c-6.61093,0 -11.97017,-5.25214 -11.97017,-11.73099c0,-6.47884 5.35923,-11.73099 11.97017,-11.73099c6.61093,0 11.97017,5.25214 11.97017,11.73099z" fill="url(#color-41)" stroke="url(#color-42)" stroke-width="1.5" stroke-linecap="butt"/><path d="M226.91558,36.25084c0,0 9.51263,-19.30967 12.78532,-19.16911c3.74389,0.1608 13.05019,19.16911 13.05019,19.16911z" fill="url(#color-43)" stroke="url(#color-44)" stroke-width="1.5" stroke-linecap="butt"/><g stroke-width="3"><path d="M242.46088,192.88443v-25.89482h24.87144v25.89482z" fill="url(#color-45)" stroke="url(#color-46)" stroke-linecap="butt"/><path d="M267.2079,167.35051l-24.81391,25.19178" fill="none" stroke="url(#color-47)" stroke-linecap="round"/><path d="M242.64591,167.09858l24.56199,25.56966" fill="none" stroke="url(#color-48)" stroke-linecap="round"/></g><g stroke-width="3"><path d="M212.73457,193.01039v-25.89482h24.87144v25.89482z" fill="url(#color-49)" stroke="url(#color-50)" stroke-linecap="butt"/><path d="M212.66769,192.66825l24.81391,-25.19179" fill="none" stroke="url(#color-51)" stroke-linecap="round"/><path d="M212.9196,167.22454l24.56199,25.56966" fill="none" stroke="url(#color-52)" stroke-linecap="round"/></g><g stroke-width="3"><path d="M242.46088,222.88443v-25.89482h24.87144v25.89482z" fill="url(#color-53)" stroke="url(#color-54)" stroke-linecap="butt"/><path d="M242.39399,222.54229l24.81391,-25.19178" fill="none" stroke="url(#color-55)" stroke-linecap="round"/><path d="M267.2079,222.66824l-24.56199,-25.56965" fill="none" stroke="url(#color-56)" stroke-linecap="round"/></g><g stroke-width="3"><path d="M212.73457,223.01039v-25.89482h24.87144v25.89482z" fill="url(#color-57)" stroke="url(#color-58)" stroke-linecap="butt"/><path d="M237.4816,197.47646l-24.81391,25.19179" fill="none" stroke="url(#color-59)" stroke-linecap="round"/><path d="M212.9196,197.22454l24.56199,25.56966" fill="none" stroke="url(#color-60)" stroke-linecap="round"/></g><g stroke-width="1.5"><path d="M211.7,161.4v-31.2h56.6v31.2z" fill="url(#color-61)" stroke="url(#color-62)" stroke-linecap="butt"/><path d="M264.95903,133.48421h-50.31111" fill="none" stroke="url(#color-63)" stroke-linecap="round"/><path d="M214.84445,158.29825h49.525" fill="none" stroke="url(#color-64)" stroke-linecap="round"/></g><path d="M251.3,75h-22.6" fill="none" stroke="url(#color-65)" stroke-width="1.5" stroke-linecap="round"/><path d="M228.7,72h22.6" fill="none" stroke="url(#color-66)" stroke-width="1.5" stroke-linecap="round"/><path d="M228.7,78h22.6" fill="none" stroke="url(#color-67)" stroke-width="1.5" stroke-linecap="round"/></g></g></svg>