<svg version="1.1" xmlns="http://www.w3.org/2000/svg" xmlns:xlink="http://www.w3.org/1999/xlink" width="36.43311" height="105.1426" viewBox="0,0,36.43311,105.1426"><defs><radialGradient cx="235.52448" cy="177.50476" r="21.06357" gradientUnits="userSpaceOnUse" id="color-1"><stop offset="0" stop-color="#353535"/><stop offset="1" stop-color="#8c8c8c"/></radialGradient><linearGradient x1="239.74787" y1="156.31832" x2="239.74787" y2="163.16937" gradientUnits="userSpaceOnUse" id="color-2"><stop offset="0" stop-color="#696969"/><stop offset="1" stop-color="#a0a0a0"/></linearGradient><radialGradient cx="235.71182" cy="133.66612" r="13.11833" gradientUnits="userSpaceOnUse" id="color-3"><stop offset="0" stop-color="#dcdcdc"/><stop offset="1" stop-color="#a0a0a0"/></radialGradient><radialGradient cx="242.43512" cy="139.1674" r="8.83664" gradientUnits="userSpaceOnUse" id="color-4"><stop offset="0" stop-color="#ffc4c4"/><stop offset="1" stop-color="#ff2121"/></radialGradient></defs><g transform="translate(-221.49906,-129.89767)"><g data-paper-data="{&quot;isPaintingLayer&quot;:true}" fill-rule="nonzero" stroke-linejoin="miter" stroke-miterlimit="10" stroke-dasharray="" stroke-dashoffset="0" style="mix-blend-mode: normal"><path d="M221.55679,200.07636v-45.14319h27.93538v45.14319z" fill="url(#color-1)" stroke="#ed6b00" stroke-width="0" stroke-linecap="butt"/><g><path d="M226.86042,227.25442l3.73947,-33.71226c0,0 10.32829,-1.92116 12.12208,-1.18095c0.98338,0.4058 0.13759,1.86526 -1.52097,2.9764c-1.35838,0.91004 -3.50891,1.5043 -3.56875,1.78595c-0.93324,4.39154 -2.76869,30.1262 -2.76869,30.1262z" fill="#494949" stroke="#000000" stroke-width="0" stroke-linecap="butt"/><path d="M240.86307,232.30302c0,0 -0.34703,1.94034 -1.09342,1.94078c-0.53506,0.00031 -2.38671,0.01505 -4.24645,-0.06443c-1.13066,-0.04832 -1.71733,-0.61679 -2.55993,-0.75915c-1.06078,-0.17921 -2.65233,0.222 -3.41902,0.03095c-1.41272,-0.35206 -2.14392,-0.77656 -2.14392,-0.77656c0,0 -0.24352,-1.02525 -0.25872,-1.58565c-0.02048,-0.75499 0.14686,-2.5371 0.14686,-2.5371c0,0 5.35648,-0.12268 7.44614,0.07642c1.23651,0.11783 3.82813,0.64458 3.82813,0.64458c0,0 1.318,0.61483 1.51108,1.04195c0.23645,0.52312 0.78923,1.9882 0.78923,1.9882z" data-paper-data="{&quot;index&quot;:null}" fill="#141415" stroke="#000000" stroke-width="0" stroke-linecap="butt"/><path d="M240.61817,231.66853c0,0 -0.34814,0.0002 -1.09455,0.00064c-0.22407,0.00013 0.63495,1.60129 -2.36247,1.33449c-2.83054,-0.25193 -2.50689,-1.18677 -3.50384,-1.2668c-2.08465,-0.16733 -2.3354,0.59639 -3.23785,0.44393c-0.31427,-0.05309 -0.46287,-0.11428 -1.61141,-0.96941c-0.7899,-0.58812 -0.60188,-1.75087 -1.14362,-2.37863c-0.79135,-0.91699 -0.73087,-1.88537 -0.73087,-1.88537l-0.07071,-3.04768c0,0 0.44029,2.20656 1.19805,3.03054c0.67797,0.73721 2.09135,-0.01996 2.52794,-0.02036c0.76451,-0.00068 -0.62369,-3.26769 0.10726,-3.24988c0.39302,0.00958 3.36021,-0.23603 3.36021,-0.23603c0,0 0.11312,3.57982 0.32343,3.59985c1.23649,0.11782 4.15649,0.64438 4.15649,0.64438c0,0 1.318,0.61483 1.51108,1.04195c0.23646,0.52312 0.57089,2.95839 0.57089,2.95839z" data-paper-data="{&quot;index&quot;:null}" fill="#252527" stroke="#000000" stroke-width="0" stroke-linecap="butt"/><path d="M235.18638,227.64172l-2.40738,1.09275" fill="none" stroke="#ffffff" stroke-width="0.5" stroke-linecap="round"/><path d="M236.82819,227.64079l-2.29771,1.45645" fill="none" stroke="#ffffff" stroke-width="0.5" stroke-linecap="round"/><path d="M236.50082,229.3386l1.31263,-1.45589" fill="none" stroke="#ffffff" stroke-width="0.5" stroke-linecap="round"/><path d="M233.65226,224.61115l-1.97006,0.24366" fill="none" stroke="#969696" stroke-width="0.5" stroke-linecap="round"/><path d="M232.12052,225.70337l1.75106,-0.3648" fill="none" stroke="#969696" stroke-width="0.5" stroke-linecap="round"/></g><g><path d="M242.28181,227.06278c0,0 0.71494,-25.79012 0.21995,-30.25236c-0.03174,-0.28618 -2.11307,-1.0899 -3.37493,-2.12964c-1.54072,-1.26952 -2.23825,-2.80536 -1.21961,-3.11205c1.8581,-0.55947 11.9462,2.37228 11.9462,2.37228l0.39193,33.91675z" data-paper-data="{&quot;index&quot;:null}" fill="#494949" stroke="#000000" stroke-width="0" stroke-linecap="butt"/><path d="M255.82867,235.03766c-0.58983,-0.05888 -2.63238,-0.24906 -4.67446,-0.53386c-1.24152,-0.17315 -1.83138,-0.80368 -2.74596,-1.03852c-1.1514,-0.29565 -2.94591,-0.07251 -3.77192,-0.34743c-1.52205,-0.50657 -2.28562,-1.00985 -2.28562,-1.00985c0,0 -0.16593,-1.04706 -0.12667,-1.60633c0.0529,-0.75348 0.41552,-2.50814 0.41552,-2.50814c0,0 5.91678,0.47049 8.20032,0.89977c1.35125,0.25402 4.15535,1.06483 4.15535,1.06483c0,0 1.39139,0.75756 1.5615,1.2039c0.20835,0.54666 0.67122,2.06553 0.67122,2.06553c0,0 -0.57651,1.89225 -1.39931,1.81011z" data-paper-data="{&quot;index&quot;:null}" fill="#141415" stroke="#000000" stroke-width="0" stroke-linecap="butt"/><path d="M255.81488,232.44867c-0.247,-0.02466 0.53982,1.6635 -2.73758,1.06645c-3.09494,-0.5638 -2.64472,-1.45814 -3.73567,-1.64806c-2.28121,-0.3971 -2.63396,0.33505 -3.61349,0.08353c-0.34114,-0.0876 -0.4988,-0.1649 -1.67939,-1.14281c-0.81194,-0.67254 -0.48841,-1.80868 -1.02282,-2.49323c-0.78063,-0.99993 -0.61715,-1.95678 -0.61715,-1.95678l0.22674,-3.04024c0,0 0.26474,2.24421 1.01764,3.14787c0.67364,0.80852 2.3073,0.21148 2.78861,0.25939c0.8428,0.08389 -0.36083,-3.3203 0.44313,-3.22171c0.43228,0.05302 3.72759,0.13685 3.72759,0.13685c0,0 -0.23318,3.57441 -0.00338,3.61761c1.35125,0.25402 4.51732,1.10096 4.51732,1.10096c0,0 1.39139,0.75756 1.56151,1.20389c0.20835,0.54666 0.33353,3.00674 0.33353,3.00674c0,0 -0.38379,-0.03832 -1.20661,-0.12046z" data-paper-data="{&quot;index&quot;:null}" fill="#252527" stroke="#000000" stroke-width="0" stroke-linecap="butt"/><path d="M251.43654,227.96164l-2.76291,0.82094" fill="none" stroke="#ffffff" stroke-width="0.5" stroke-linecap="round"/><path d="M250.56804,229.33728l2.6784,-1.19497" fill="none" stroke="#ffffff" stroke-width="0.5" stroke-linecap="round"/><path d="M254.3083,228.49205l-1.59247,1.30337" fill="none" stroke="#ffffff" stroke-width="0.5" stroke-linecap="round"/><path d="M247.85248,224.80104l2.19596,-0.02451" fill="none" stroke="#969696" stroke-width="0.5" stroke-linecap="round"/><path d="M250.21751,225.52457l-1.9667,0.16926" fill="none" stroke="#969696" stroke-width="0.5" stroke-linecap="round"/></g><g stroke="#000000" stroke-width="0" stroke-linecap="butt"><path d="M252.94927,189.27019c0,0 0.42411,-2.99095 -0.19323,-6.4453c-0.14845,-0.83069 -0.46038,-3.57183 -0.62054,-4.4236c-0.37905,-2.01593 -0.82053,-4.00115 -1.02524,-5.24297c-0.4403,-2.67094 -0.92638,-6.06715 -0.92638,-6.06715c0,0 -0.79967,-6.67701 0.17684,-6.96934c5.71092,-1.70969 5.20786,5.85796 5.20786,5.85796c0,0 0.76655,4.8387 1.23469,7.67843c0.19052,1.1557 -0.21446,2.12011 0.01654,3.92168c0.10355,0.80759 0.09763,4.32769 0.18636,6.47654c0.14771,3.57775 0.58712,5.72278 0.58712,5.72278z" data-paper-data="{&quot;index&quot;:null}" fill="#bdbdbd"/><path d="M257.77221,194.30178c-0.20569,-0.01832 0.09609,3.72196 -0.77562,3.71116c-0.42876,-0.00531 -0.10216,-2.43695 -0.7153,-3.253c-0.32455,-0.43197 0.47201,4.26759 -0.66704,3.81764c-0.39105,-0.15448 -0.20504,-3.59195 -0.6366,-4.40084c-0.23103,-0.43302 0.20726,5.21851 -0.55513,4.96358c-0.45258,-0.15132 -0.1104,-3.2873 -0.45577,-4.68438c-0.16825,-0.68062 -0.2543,3.86563 -0.80675,3.5568c-0.33815,-0.18904 -0.47011,-4.63009 -0.5083,-4.6793c-0.21465,-0.27654 -0.85296,2.4335 -1.13276,1.79199c-0.51567,-1.18228 0.36397,-2.63159 1.0503,-3.98842c0.401,-0.79275 0.40189,-1.97342 0.40189,-1.97342c0,0 1.57448,-0.51412 2.35855,-0.42818c0.76341,0.08367 2.2855,0.93722 2.2855,0.93722c0,0 0.59281,4.66794 0.15706,4.62912z" data-paper-data="{&quot;index&quot;:null}" fill="#5c4747"/></g><g stroke-width="0" stroke-linecap="butt"><path d="M235.91979,163.16937v-6.85104h7.65615v6.85104z" fill="url(#color-2)" stroke="#000000"/><path d="M252.80944,143.89573c0,7.73092 -5.73774,13.99807 -12.8156,13.99807c-7.07786,0 -12.8156,-6.26715 -12.8156,-13.99807c0,-7.73092 5.73774,-13.99806 12.8156,-13.99806c7.07786,0 12.8156,6.26714 12.8156,13.99806z" fill="url(#color-3)" stroke="none"/><path d="M253.91261,142.72429c0,4.88691 0.03443,10.71868 -8.60517,11.34206c-9.65195,0.69642 -9.06107,-6.45514 -9.06107,-11.34206c0,-4.88691 3.95473,-8.84854 8.83313,-8.84854c4.8784,0 8.83313,3.96163 8.83313,8.84854z" data-paper-data="{&quot;index&quot;:null}" fill="url(#color-4)" stroke="#ed6b00"/></g><g stroke-width="0" stroke-linecap="butt"><path d="M229.63979,193.59141c0,0 0.16709,-5.5597 -0.35268,-10.94382c-0.35317,-3.65847 -1.40473,-6.95919 -1.56162,-9.45339c-0.29447,-4.68133 -0.2105,-13.38223 -0.2105,-13.38223c0,0 3.69178,-0.58477 5.4694,-0.21857c2.26281,0.46615 7.00656,2.78867 7.00656,2.78867c0,0 3.67689,-2.17061 5.59031,-2.58687c2.01891,-0.43921 6.22369,0.01677 6.22369,0.01677c0,0 -0.06905,9.21711 -0.22689,12.65629c-0.13965,3.04285 -0.88957,6.36811 -1.18346,10.87293c-0.3029,4.64296 -0.14784,10.42155 -0.14784,10.42155c0,0 -2.75697,-0.76932 -5.57187,-0.83754c-1.27833,-0.03098 -1.79126,1.00612 -2.99851,1.16532c-0.96496,0.12724 -2.63623,-0.61291 -3.56107,-0.64966c-0.69915,-0.02778 -2.04377,-0.5306 -2.53801,-0.53471c-0.99795,-0.0083 -1.61572,0.86529 -2.77345,1.02464c-1.34484,0.1851 -3.1641,-0.33939 -3.1641,-0.33939z" fill="#d0d0d0" stroke="#292e32"/><path d="M245.9343,170.5071l-0.06967,-5.82045l4.38934,0.36378v5.21415z" fill="#ff0000" stroke="none"/></g><g stroke="#000000" stroke-width="0" stroke-linecap="butt"><path d="M221.77376,189.68375c0,0 0.4868,-2.15197 0.56606,-5.73191c0.0476,-2.15016 -0.06381,-5.66999 0.04199,-6.47921c0.236,-1.80521 -0.29954,-2.76307 -0.09514,-3.92176c0.50222,-2.84711 1.31906,-7.69786 1.31906,-7.69786c0,0 -0.71614,-7.90702 6.76561,-6.28164c1.19441,0.25948 0.00926,7.30658 0.00926,7.30658c0,0 -0.50825,3.40385 -0.98064,6.0817c-0.21963,1.24503 -0.71374,3.23724 -1.12878,5.25916c-0.17536,0.85431 -0.48493,3.60031 -0.64626,4.43334c-0.67091,3.46407 -0.05151,6.44807 -0.05151,6.44807z" fill="#bdbdbd"/><path d="M221.72902,194.43298c-0.54432,0.04715 0.04846,-4.63155 0.04846,-4.63155c0,0 1.87838,-0.88256 2.83151,-0.98084c0.97892,-0.10094 2.96668,0.38301 2.96668,0.38301c0,0 0.03891,1.18051 0.56635,1.96548c0.90273,1.34352 2.05047,2.77583 1.44268,3.96783c-0.32977,0.64677 -1.2157,-2.05071 -1.47561,-1.7701c-0.04624,0.04993 -0.06927,4.49295 -0.4866,4.68844c-0.68176,0.31935 -0.93505,-4.22468 -1.12394,-3.54092c-0.38768,1.40352 0.14111,4.53254 -0.42069,4.69251c-0.94639,0.26947 -0.57856,-5.38972 -0.85395,-4.95234c-0.51444,0.81705 -0.17151,4.25052 -0.65617,4.41247c-1.41173,0.47169 -0.56483,-4.24253 -0.95736,-3.8044c-0.74154,0.82769 -0.25479,3.25276 -0.79144,3.26628c-1.09108,0.02748 -0.83298,-3.7181 -1.08992,-3.69586z" data-paper-data="{&quot;index&quot;:null}" fill="#5c4747"/></g></g></g></svg>