<svg version="1.1" xmlns="http://www.w3.org/2000/svg" xmlns:xlink="http://www.w3.org/1999/xlink" width="94.21998" height="103.50238" viewBox="0,0,94.21998,103.50238"><defs><radialGradient cx="226.1437" cy="167.98715" r="20.58604" gradientUnits="userSpaceOnUse" id="color-1"><stop offset="0" stop-color="#ff8700"/><stop offset="1" stop-color="#a77426"/></radialGradient><radialGradient cx="240.94347" cy="166.82107" r="20.58605" gradientUnits="userSpaceOnUse" id="color-2"><stop offset="0" stop-color="#ff8700"/><stop offset="1" stop-color="#a77426"/></radialGradient><linearGradient x1="238.67577" y1="156.02886" x2="238.9222" y2="162.87549" gradientUnits="userSpaceOnUse" id="color-3"><stop offset="0" stop-color="#2b2b2b"/><stop offset="1" stop-color="#3f3f3f"/></linearGradient><radialGradient cx="233.95548" cy="134.62457" r="13.11833" gradientUnits="userSpaceOnUse" id="color-4"><stop offset="0" stop-color="#7bccb1"/><stop offset="1" stop-color="#618c94"/></radialGradient><radialGradient cx="233.95548" cy="134.62457" r="13.11833" gradientUnits="userSpaceOnUse" id="color-5"><stop offset="0" stop-color="#727272"/><stop offset="1" stop-color="#333333"/></radialGradient><radialGradient cx="237.26162" cy="140.20372" r="11.56644" gradientUnits="userSpaceOnUse" id="color-6"><stop offset="0" stop-color="#ffffff" stop-opacity="0.74902"/><stop offset="1" stop-color="#abffe7" stop-opacity="0.56471"/></radialGradient><radialGradient cx="252.9862" cy="164.48996" r="15.95934" gradientUnits="userSpaceOnUse" id="color-7"><stop offset="0" stop-color="#6f8281"/><stop offset="1" stop-color="#576766"/></radialGradient><radialGradient cx="235.14484" cy="168.46622" r="17.31619" gradientUnits="userSpaceOnUse" id="color-8"><stop offset="0" stop-color="#7a908e"/><stop offset="1" stop-color="#576766"/></radialGradient><linearGradient x1="270.43047" y1="185.95157" x2="276.71931" y2="175.77749" gradientUnits="userSpaceOnUse" id="color-9"><stop offset="0" stop-color="#242424"/><stop offset="1" stop-color="#373737"/></linearGradient><radialGradient cx="266.9561" cy="185.35141" r="3.52256" gradientUnits="userSpaceOnUse" id="color-10"><stop offset="0" stop-color="#bfbfbf"/><stop offset="1" stop-color="#9a9a9a"/></radialGradient><linearGradient x1="278.38508" y1="176.06939" x2="310.94748" y2="144.38071" gradientUnits="userSpaceOnUse" id="color-11"><stop offset="0" stop-color="#b2b2b2"/><stop offset="1" stop-color="#c4c4c4"/></linearGradient><linearGradient x1="278.85042" y1="176.11802" x2="300.1631" y2="155.37726" gradientUnits="userSpaceOnUse" id="color-12"><stop offset="0" stop-color="#cccccc"/><stop offset="1" stop-color="#d8d8d8"/></linearGradient><linearGradient x1="276.29807" y1="177.54029" x2="278.07673" y2="175.86953" gradientUnits="userSpaceOnUse" id="color-13"><stop offset="0" stop-color="#b5b5b5"/><stop offset="1" stop-color="#c5c5c5"/></linearGradient><radialGradient cx="229.4737" cy="168.39511" r="22.04569" gradientUnits="userSpaceOnUse" id="color-14"><stop offset="0" stop-color="#6f8281"/><stop offset="1" stop-color="#576766"/></radialGradient></defs><g transform="translate(-221.82961,-130.83353)"><g data-paper-data="{&quot;isPaintingLayer&quot;:true}" fill-rule="nonzero" stroke-linejoin="miter" stroke-miterlimit="10" stroke-dasharray="" stroke-dashoffset="0" style="mix-blend-mode: normal"><g stroke="none" stroke-width="0" stroke-linecap="butt"><path d="M237.11229,176.60598c0.44928,21.48881 0.69568,21.91169 -6.73824,22.07065c-7.8428,0.16771 -7.62533,-0.48839 -8.30748,-21.52912c-0.71413,-22.02714 -0.17315,-21.6578 6.73824,-22.07064c7.32097,-0.43731 7.84694,-0.49817 8.30748,21.52912z" fill="url(#color-1)"/><path d="M251.91206,175.4399c0.44928,21.48881 0.69568,21.91169 -6.73824,22.07065c-7.8428,0.16771 -7.62533,-0.4884 -8.30748,-21.52912c-0.71413,-22.02714 -0.17316,-21.6578 6.73824,-22.07064c7.32097,-0.43731 7.84693,-0.49817 8.30748,21.52911z" fill="url(#color-2)"/></g><g><path d="M239.70442,191.34299c3.62872,0 10.54956,2.18267 10.54956,2.18267l3.03149,33.71008h-7.63934c0,0 -1.32697,-25.53818 -2.03751,-29.57011c-0.20138,-1.1427 -3.2979,-2.07857 -3.2979,-2.07857c0,0 -3.67312,-4.24407 -0.6063,-4.24407z" fill="#343331" stroke="#000000" stroke-width="0" stroke-linecap="butt"/><path d="M259.6926,234.32553c-0.59276,0 -2.64411,0.01365 -4.70436,-0.0669c-1.25258,-0.04897 -1.90215,-0.61779 -2.83553,-0.76063c-1.17507,-0.17982 -2.93854,0.22047 -3.78778,0.02896c-1.56485,-0.35288 -2.37463,-0.77782 -2.37463,-0.77782c0,0 -0.26911,-1.0254 -0.2856,-1.5858c-0.02221,-0.75501 0.16433,-2.53701 0.16433,-2.53701c0,0 5.93425,-0.11957 8.24914,0.08076c1.36979,0.11854 4.24057,0.6468 4.24057,0.6468c0,0 1.45976,0.6156 1.67337,1.04283c0.26162,0.52325 0.87307,1.98865 0.87307,1.98865c0,0 -0.3857,1.94015 -1.21259,1.94015z" data-paper-data="{&quot;index&quot;:null}" fill="#141415" stroke="#000000" stroke-width="0" stroke-linecap="butt"/><path d="M259.4217,231.75072c-0.24822,0 0.7024,1.60165 -2.61811,1.33311c-3.13563,-0.25358 -2.77648,-1.18823 -3.8809,-1.26883c-2.30937,-0.16854 -2.58765,0.59503 -3.58732,0.44205c-0.34815,-0.05328 -0.51271,-0.11454 -1.78459,-0.97035c-0.87472,-0.58857 -0.66566,-1.75122 -1.26542,-2.3793c-0.87609,-0.91745 -0.80847,-1.8858 -0.80847,-1.8858l-0.07637,-3.04773c0,0 0.48635,2.20681 1.32529,3.03122c0.75062,0.73761 2.3169,-0.01875 2.80058,-0.01889c0.84696,-0.00024 -0.68885,-3.26804 0.12091,-3.2498c0.43542,0.00981 3.72275,-0.23409 3.72275,-0.23409c0,0 0.12302,3.57989 0.35598,3.60005c1.36979,0.11854 4.60434,0.6468 4.60434,0.6468c0,0 1.45976,0.6156 1.67338,1.04283c0.26162,0.52325 0.63055,2.95873 0.63055,2.95873c0,0 -0.3857,0 -1.2126,0z" data-paper-data="{&quot;index&quot;:null}" fill="#252527" stroke="#000000" stroke-width="0" stroke-linecap="butt"/><path d="M251.95161,228.81212l2.6677,-1.09133" fill="none" stroke="#ffffff" stroke-width="0.5" stroke-linecap="round"/><path d="M253.89176,229.1759l2.54645,-1.45511" fill="none" stroke="#ffffff" stroke-width="0.5" stroke-linecap="round"/><path d="M257.52955,227.96331l-1.45512,1.45511" fill="none" stroke="#ffffff" stroke-width="0.5" stroke-linecap="round"/><path d="M250.73902,224.93183l2.18266,-0.24252" fill="none" stroke="#969696" stroke-width="0.5" stroke-linecap="round"/><path d="M251.22406,225.78064l1.94015,-0.36378" fill="none" stroke="#969696" stroke-width="0.5" stroke-linecap="round"/></g><path d="M235.09659,163.01318l-0.24642,-6.8466l7.65119,-0.27538l0.24642,6.8466z" fill="url(#color-3)" stroke="#000000" stroke-width="0" stroke-linecap="butt"/><g stroke="none" stroke-linecap="butt"><path d="M251.44938,143.67722c0.31092,7.385 -5.16968,13.61307 -12.24128,13.9108c-7.0716,0.29773 -13.05631,-5.44763 -13.36723,-12.83262c-0.31092,-7.385 5.16968,-13.61307 12.24128,-13.9108c7.0716,-0.29773 13.05631,5.44763 13.36723,12.83262z" fill="url(#color-4)" stroke-width="0"/><path d="M251.44938,143.67722c0.31092,7.385 -5.16968,13.61307 -12.24128,13.9108c-7.0716,0.29773 -13.05631,-5.44763 -13.36723,-12.83262c-0.31092,-7.385 5.16968,-13.61307 12.24128,-13.9108c7.0716,-0.29773 13.05631,5.44763 13.36723,12.83262zM251.13465,142.81005c-0.23231,-5.51796 -4.89383,-9.80282 -10.41179,-9.5705c-0.69663,0.02932 -1.37361,0.12926 -2.02433,0.29258c-0.0726,0.00149 -0.14536,0.00378 -0.21826,0.00686c-5.51796,0.23231 -9.80282,4.89383 -9.5705,10.4118c0.06461,1.5346 0.47179,2.9738 1.14469,4.24702c1.43735,3.32787 4.62314,5.69698 8.35535,6.00241c0.98562,0.27469 2.03049,0.40158 3.10802,0.35622c5.48155,-0.23078 9.74622,-4.83251 9.57451,-10.30268c0.04802,-0.47285 0.06288,-0.95491 0.04231,-1.4437z" fill="url(#color-5)" stroke-width="0"/><path d="M244.22651,150.52028c-0.98189,0.18949 -1.17137,-0.79239 -1.17137,-0.79239l-0.05823,-0.30169c-0.23919,-1.24358 -0.37407,-2.48264 -0.50991,-3.74126c0,0 -0.1073,-0.99423 0.88693,-1.10153c0.99423,-0.1073 1.10153,0.88693 1.10153,0.88693c0.12988,1.20345 0.25496,2.38815 0.4852,3.57686l0.05823,0.30169c0,0 0.1895,0.9819 -0.79239,1.17138z" fill="#191412" stroke-width="0.5"/><path d="M247.39906,144.89755c-0.41512,-1.29439 1.55833,-4.19309 1.55833,-4.19309c0,0 2.12305,2.36719 2.21937,4.00594c0.10248,1.74358 -3.26975,1.77105 -3.77771,0.18715z" fill="#191412" stroke-width="0.5"/><path d="M234.30396,145.13881c-0.32546,-1.37364 2.44849,-4.14602 2.44849,-4.14602c0,0 2.43981,2.40701 2.29769,4.08906c-0.1512,1.78964 -4.34794,1.73784 -4.7462,0.05697z" data-paper-data="{&quot;index&quot;:null}" fill="#191412" stroke-width="0.5"/><g fill="#00ffcc" stroke-width="0.5"><path d="M239.98666,137.72999c-0.01659,-0.39421 0.2895,-0.72722 0.68371,-0.74382c0.39421,-0.01659 0.72722,0.2895 0.74382,0.68371c0.01659,0.39421 -0.2895,0.72722 -0.68371,0.74382c-0.39421,0.01659 -0.72722,-0.2895 -0.74382,-0.68371z"/><path d="M241.84038,134.79591c-0.01659,-0.39421 0.2895,-0.72723 0.68371,-0.74383c0.39421,-0.01659 0.72721,0.28952 0.74381,0.68372c0.01659,0.39421 -0.2895,0.72721 -0.68371,0.74381c-0.39421,0.01659 -0.72721,-0.2895 -0.74381,-0.68371z"/><path d="M243.93725,137.63689c-0.01659,-0.39421 0.2895,-0.72721 0.68371,-0.74381c0.39421,-0.01659 0.72722,0.2895 0.74382,0.68371c0.01659,0.39421 -0.2895,0.72722 -0.68371,0.74382c-0.39421,0.01659 -0.72722,-0.28951 -0.74382,-0.68371z"/></g><path d="M252.06344,143.34186c0.25361,6.02347 -4.7147,11.12429 -11.09702,11.39301c-6.38232,0.26871 -11.76178,-4.39644 -12.01538,-10.41991c-0.25361,-6.02347 4.71469,-11.12429 11.09702,-11.39301c6.38232,-0.26871 11.76178,4.39644 12.01539,10.41991z" fill="url(#color-6)" stroke-width="0"/></g><g><path d="M226.12338,227.23574l3.75904,-33.71008c0,0 6.75518,-2.18267 9.822,-2.18267c3.62872,0 0.6063,4.24407 0.6063,4.24407c0,0 -3.09204,0.08829 -3.39803,1.52409c-0.93579,4.39099 -2.78619,30.12458 -2.78619,30.12458z" fill="#343331" stroke="#000000" stroke-width="0" stroke-linecap="butt"/><path d="M241.75187,232.39489c0,0 -0.3857,1.94015 -1.2126,1.94015c-0.59276,0 -2.64411,0.01366 -4.70436,-0.06689c-1.25258,-0.04897 -1.90215,-0.61779 -2.83553,-0.76063c-1.17507,-0.17983 -2.93853,0.22047 -3.78777,0.02896c-1.56485,-0.35288 -2.37463,-0.77781 -2.37463,-0.77781c0,0 -0.26912,-1.02539 -0.2856,-1.5858c-0.02221,-0.755 0.16433,-2.53701 0.16433,-2.53701c0,0 5.93424,-0.11957 8.24914,0.08075c1.36979,0.11854 4.24057,0.6468 4.24057,0.6468c0,0 1.45975,0.6156 1.67337,1.04283c0.26162,0.52325 0.87307,1.98866 0.87307,1.98866z" data-paper-data="{&quot;index&quot;:null}" fill="#141415" stroke="#000000" stroke-width="0" stroke-linecap="butt"/><path d="M241.48097,231.76025c0,0 -0.38569,0 -1.21259,0c-0.24822,0 0.70239,1.60165 -2.61811,1.33311c-3.13563,-0.25359 -2.77648,-1.18823 -3.8809,-1.26883c-2.30937,-0.16854 -2.58766,0.59503 -3.58733,0.44204c-0.34815,-0.05328 -0.51271,-0.11454 -1.78458,-0.97035c-0.87471,-0.58857 -0.66566,-1.75122 -1.26542,-2.3793c-0.87609,-0.91746 -0.80847,-1.8858 -0.80847,-1.8858l-0.07637,-3.04773c0,0 0.48635,2.20682 1.32529,3.03123c0.75062,0.73761 2.3169,-0.01875 2.80058,-0.01889c0.84695,-0.00024 -0.68885,-3.26805 0.12091,-3.24981c0.43542,0.00981 3.72275,-0.23408 3.72275,-0.23408c0,0 0.12302,3.57988 0.35598,3.60004c1.36978,0.11854 4.60434,0.6468 4.60434,0.6468c0,0 1.45975,0.6156 1.67337,1.04283c0.26163,0.52325 0.63055,2.95873 0.63055,2.95873z" data-paper-data="{&quot;index&quot;:null}" fill="#252527" stroke="#000000" stroke-width="0" stroke-linecap="butt"/><path d="M235.46599,227.7303l-2.66771,1.09134" data-paper-data="{&quot;index&quot;:null}" fill="none" stroke="#ffffff" stroke-width="0.5" stroke-linecap="round"/><path d="M234.73843,229.18542l2.54644,-1.45511" data-paper-data="{&quot;index&quot;:null}" fill="none" stroke="#ffffff" stroke-width="0.5" stroke-linecap="round"/><path d="M238.37621,227.97282l-1.45512,1.45512" data-paper-data="{&quot;index&quot;:null}" fill="none" stroke="#ffffff" stroke-width="0.5" stroke-linecap="round"/><path d="M233.76835,224.69883l-2.18267,0.24252" data-paper-data="{&quot;index&quot;:null}" fill="none" stroke="#969696" stroke-width="0.5" stroke-linecap="round"/><path d="M234.01087,225.42638l-1.94015,0.36378" data-paper-data="{&quot;index&quot;:null}" fill="none" stroke="#969696" stroke-width="0.5" stroke-linecap="round"/></g><g><path d="M274.91624,178.7337c0,0 -1.60594,-1.91276 -4.16257,-3.27427c-0.61481,-0.32741 -2.53074,-1.54405 -3.16619,-1.87369c-1.50392,-0.78018 -3.02816,-1.49627 -3.93633,-1.9989c-1.95333,-1.08106 -11.45596,-6.43163 -11.45596,-6.43163c0,0 -5.12537,-2.97696 -4.73649,-3.70136c2.84439,-5.29833 7.03235,-1.03067 7.03235,-1.03067c0,0 4.38181,3.17676 9.30151,6.16076c3.70083,2.24471 7.89382,4.25789 9.70927,5.40942c2.14861,1.36286 4.6774,3.4552 4.6774,3.4552z" data-paper-data="{&quot;index&quot;:null}" fill="url(#color-7)" stroke="#000000" stroke-width="0" stroke-linecap="butt"/><path d="M283.61394,180.40258c-0.27512,0.32543 -2.19122,-1.26777 -3.09142,-1.23166c-0.47651,0.01912 3.42344,1.73811 2.41935,2.37124c-0.34473,0.21735 -2.83071,-1.58375 -3.6113,-1.68285c-0.41788,-0.05305 3.40248,2.61214 2.75939,3.06048c-0.38176,0.26613 -2.19709,-1.30135 -3.29174,-1.77875c-0.53329,-0.23257 -3.88195,-2.40736 -3.88195,-2.40736l3.263,-3.28512c0,0 1.86041,1.34364 3.35201,2.56669c1.34212,1.10049 2.34763,2.07395 2.0827,2.38733z" data-paper-data="{&quot;index&quot;:null}" fill="#323a3a" stroke="#000000" stroke-width="0" stroke-linecap="butt"/><path d="M254.76862,160.90243l-2.42094,4.06453" fill="none" stroke="#00ffb0" stroke-width="1" stroke-linecap="round"/><path d="M255.98952,161.56868l-2.39833,4.20972" fill="none" stroke="#00ffb0" stroke-width="1" stroke-linecap="round"/><path d="M257.25558,162.52532l-2.42094,4.06453" fill="none" stroke="#00ffb0" stroke-width="1" stroke-linecap="round"/></g><g stroke-width="0" stroke-linecap="butt"><path d="M229.92389,193.89126c0,0 -0.033,-5.56211 -0.74609,-10.92405c-0.48453,-3.6434 -1.65413,-6.90416 -1.90063,-9.3911c-0.46266,-4.66771 -0.69171,-13.366 -0.69171,-13.366c0,0 3.66836,-0.71718 5.458,-0.41516c2.27811,0.38446 7.10233,2.53485 7.10233,2.53485c0,0 3.59644,-2.30146 5.49365,-2.78627c2.00181,-0.51154 6.22026,-0.2071 6.22026,-0.2071c0,0 0.26252,9.21363 0.22849,12.65626c-0.03011,3.0459 -0.65994,6.39599 -0.79161,10.90846c-0.1357,4.65085 0.22711,10.42013 0.22711,10.42013c0,0 -2.78285,-0.66966 -5.59839,-0.63659c-1.27862,0.01502 -1.75391,1.0699 -2.95466,1.27242c-0.95976,0.16187 -2.65657,-0.51769 -3.58213,-0.52115c-0.69969,-0.00261 -2.06154,-0.45675 -2.55561,-0.44308c-0.9976,0.0276 -1.58355,0.92284 -2.7348,1.12373c-1.33731,0.23335 -3.17426,-0.22536 -3.17426,-0.22536z" fill="url(#color-8)" stroke="#292e32"/><path d="M246.2182,166.32243c3.5557,-0.15951 3.43007,0.75665 3.4691,1.84091c0.03902,1.08426 0.86997,1.97341 -3.32778,2.08553c-4.03692,0.10783 -3.29533,1.13551 -3.4691,-1.8409c-0.14228,-2.43725 -0.70637,-1.90458 3.32778,-2.08554z" data-paper-data="{&quot;index&quot;:null}" fill="#c9ffe7" stroke="#000000"/></g><g stroke="none" stroke-width="0" stroke-linecap="butt"><path d="M271.36485,186.52911l-3.51098,-3.60503l7.93106,-7.72414l3.51098,3.60504z" fill="url(#color-9)"/><path d="M270.48922,182.5068c1.65482,1.02289 2.16714,3.19362 1.14424,4.84844c-1.0229,1.65484 -3.19363,2.16714 -4.84845,1.14424c-1.65484,-1.02289 -2.16715,-3.19363 -1.14424,-4.84844c1.0229,-1.65484 3.19363,-2.16715 4.84845,-1.14424z" fill="url(#color-10)"/><path d="M281.62878,179.40253l-6.48746,-6.66631l33.65405,-30.10118l7.25422,-3.76004l-3.74391,7.15218z" fill="url(#color-11)"/><path d="M280.9735,178.29962l-4.54386,-4.56163l28.17872,-25.0606l8.12133,-6.23197l-6.22076,7.75763z" fill="url(#color-12)"/><path d="M271.55724,165.73085c0,0 3.95809,6.95954 6.62301,9.87278c2.92596,3.19862 10.22286,8.54289 10.22286,8.54289c0,0 -9.23874,-3.85421 -12.07656,-6.95649c-2.7761,-3.03479 -4.7693,-11.45919 -4.7693,-11.45919z" fill="url(#color-13)"/></g><g><path d="M261.88314,183.08777c0,0 -4.29164,-1.06245 -7.48294,-2.31143c-2.69647,-1.05533 -8.50161,-2.61775 -13.88571,-4.85478c-7.15734,-2.97378 -7.73904,-2.22303 -11.86681,-6.39025c-4.12778,-4.16722 -7.44626,-7.76939 -2.52705,-9.84475c4.94212,-0.04688 6.91,4.52232 10.15207,6.21777c3.24208,1.69544 6.94674,3.89831 9.67474,5.16557c1.26834,0.58919 3.48675,0.78955 5.52993,1.8088c0.86328,0.43065 3.71049,1.54326 4.55502,1.95286c3.51192,1.70327 6.87798,1.89064 6.87798,1.89064z" data-paper-data="{&quot;index&quot;:null}" fill="url(#color-14)" stroke="#000000" stroke-width="0" stroke-linecap="butt"/><path d="M267.34502,184.66866c-2.5192,-0.63595 -5.46188,-1.58091 -5.46188,-1.58091l1.02723,-6.36559c0,0 5.02935,1.90423 5.7055,2.30245c1.3879,0.81738 4.54053,1.52545 4.54999,2.17155c0.01596,1.08839 -5.92374,-0.93046 -5.53562,-0.51062c0.725,0.78428 4.66336,2.04223 4.69712,2.60648c0.09827,1.64358 -4.86639,-1.25334 -4.51114,-0.70815c0.67112,1.02996 3.9315,1.82848 3.79175,2.40561c-0.13456,0.55577 -1.99622,0.25139 -4.26298,-0.32083z" data-paper-data="{&quot;index&quot;:null}" fill="#323a3a" stroke="#000000" stroke-width="0" stroke-linecap="butt"/><path d="M231.9574,163.30618l-3.52217,5.94202" fill="none" stroke="#00ffb0" stroke-width="1" stroke-linecap="round"/><path d="M230.24795,170.72467l3.62794,-6.17413" fill="none" stroke="#00ffb0" stroke-width="1" stroke-linecap="round"/><path d="M235.68996,165.95643l-3.20449,6.05394" fill="none" stroke="#00ffb0" stroke-width="1" stroke-linecap="round"/></g></g></g></svg>