<svg version="1.1" xmlns="http://www.w3.org/2000/svg" xmlns:xlink="http://www.w3.org/1999/xlink" width="65.42289" height="64.90928" viewBox="0,0,65.42289,64.90928"><defs><linearGradient x1="239.9132" y1="149.04536" x2="239.9132" y2="210.95464" gradientUnits="userSpaceOnUse" id="color-1"><stop offset="0" stop-color="#181818"/><stop offset="1" stop-color="#050505"/></linearGradient><linearGradient x1="239.9132" y1="149.04536" x2="239.9132" y2="210.95464" gradientUnits="userSpaceOnUse" id="color-2"><stop offset="0" stop-color="#cccccc"/><stop offset="1" stop-color="#898989"/></linearGradient><radialGradient cx="239.99999" cy="180" r="29.92177" gradientUnits="userSpaceOnUse" id="color-3"><stop offset="0" stop-color="#ffffff" stop-opacity="0.31284"/><stop offset="1" stop-color="#ffffff" stop-opacity="0"/></radialGradient><linearGradient x1="239.99999" y1="150.69895" x2="239.99999" y2="209.30105" gradientUnits="userSpaceOnUse" id="color-4"><stop offset="0" stop-color="#cccccc"/><stop offset="1" stop-color="#898989"/></linearGradient></defs><g transform="translate(-207.20176,-147.54536)"><g data-paper-data="{&quot;isPaintingLayer&quot;:true}" fill-rule="nonzero" stroke-linecap="butt" stroke-linejoin="miter" stroke-miterlimit="10" stroke-dasharray="" stroke-dashoffset="0" style="mix-blend-mode: normal"><path d="M208.70176,210.95464v-61.90928h62.42289v61.90928z" fill="url(#color-1)" stroke="url(#color-2)" stroke-width="3"/><path d="M269.92177,180c0,16.18252 -13.39644,29.30105 -29.92177,29.30105c-16.52534,0 -29.92177,-13.11853 -29.92177,-29.30105c0,-16.18252 13.39644,-29.30105 29.92177,-29.30105c16.52534,0 29.92177,13.11853 29.92177,29.30105z" fill="url(#color-3)" stroke="url(#color-4)" stroke-width="0"/><path d="M210.81118,194.92364l11.42846,-22.80122l20.41571,2.9188l-8.42454,25.81992z" fill="#ef5dff" stroke="#0a0a0a" stroke-width="0"/><path d="M234.10689,201.08877l8.42893,-25.92363l26.653,-10.48143l-6.91411,21.14417z" fill="#c84dd6" stroke="#0a0a0a" stroke-width="0"/><path d="M222.25133,172.43892l27.9003,-8.31993l18.27294,0.9163l-25.78821,10.13716z" fill="#f27bff" stroke="#0a0a0a" stroke-width="0"/><path d="M211.59789,160.56662v-8.69862h51.94204v8.69862z" fill-opacity="0.53453" fill="#000000" stroke="#a60000" stroke-width="0"/><text transform="translate(212.03173,158.84285) scale(0.21839,0.21839)" font-size="40" xml:space="preserve" fill="#ffffff" fill-rule="nonzero" stroke="#000000" stroke-width="0" stroke-linecap="butt" stroke-linejoin="miter" stroke-miterlimit="10" stroke-dasharray="" stroke-dashoffset="0" font-family="Serif" font-weight="normal" text-anchor="start" style="mix-blend-mode: normal"><tspan x="0" dy="0">Erase/Remove</tspan></text></g></g></svg>