<svg version="1.1" xmlns="http://www.w3.org/2000/svg" xmlns:xlink="http://www.w3.org/1999/xlink" width="48.37767" height="52.60439" viewBox="0,0,48.37767,52.60439"><defs><linearGradient x1="240.00003" y1="154.94782" x2="240.00003" y2="205.05219" gradientUnits="userSpaceOnUse" id="color-1"><stop offset="0" stop-color="#79735c"/><stop offset="1" stop-color="#383732"/></linearGradient><linearGradient x1="239.57308" y1="182.00387" x2="239.57308" y2="186.89407" gradientUnits="userSpaceOnUse" id="color-2"><stop offset="0" stop-color="#736b4f"/><stop offset="1" stop-color="#bec286"/></linearGradient><radialGradient cx="236.50833" cy="164.2039" r="9.36367" gradientUnits="userSpaceOnUse" id="color-3"><stop offset="0" stop-color="#ccbe7a"/><stop offset="1" stop-color="#948f62"/></radialGradient><linearGradient x1="240.00004" y1="154.94783" x2="240.00004" y2="205.0522" gradientUnits="userSpaceOnUse" id="color-4"><stop offset="0" stop-color="#262400"/><stop offset="1" stop-color="#1f1a00"/></linearGradient></defs><g transform="translate(-215.81119,-153.69781)"><g data-paper-data="{&quot;isPaintingLayer&quot;:true}" fill-rule="nonzero" stroke-linejoin="miter" stroke-miterlimit="10" stroke-dasharray="" stroke-dashoffset="0" style="mix-blend-mode: normal"><path d="M217.06119,205.05219v-50.10439h45.87767v50.10439z" fill="url(#color-1)" stroke="none" stroke-width="0" stroke-linecap="butt"/><g stroke="#000000" stroke-width="0" stroke-linecap="butt"><path d="" fill="#453d36"/><path d="" data-paper-data="{&quot;index&quot;:null}" fill="#141415"/><path d="" data-paper-data="{&quot;index&quot;:null}" fill="#252527"/></g><g stroke="#000000" stroke-width="0" stroke-linecap="butt"><path d="" fill="#453d36"/><path d="" data-paper-data="{&quot;index&quot;:null}" fill="#141415"/><path d="" data-paper-data="{&quot;index&quot;:null}" fill="#252527"/></g><g stroke="#000000" stroke-width="0" stroke-linecap="butt"><path d="M253.05206,205.04506c-0.46639,-1.39753 -0.98629,-2.76728 -1.248,-3.63091c-0.56291,-1.85752 -2.64369,-10.89263 -2.64369,-10.89263l3.85764,-1.62886c0,0 0.78743,4.63691 2.04003,9.4786c0.64336,2.48679 1.5014,5.04487 2.11802,6.99632c-1.34408,-0.17169 -2.71799,-0.22852 -4.1018,-0.25384c-0.00772,-0.02453 -0.01513,-0.04746 -0.02221,-0.06868z" data-paper-data="{&quot;index&quot;:null}" fill="#8b8560"/><path d="M247.89475,185.50344c4.16049,-1.49602 5.11865,0.90403 5.50424,2.26252c0.38559,1.35849 1.63091,0.75738 -2.18809,2.11209c-3.2279,1.14503 -2.82578,0.77897 -3.21137,-0.57952c-0.38559,-1.35849 -2.27151,-3.01597 -0.10478,-3.79507z" data-paper-data="{&quot;index&quot;:null}" fill="#42352d"/></g><g stroke="#000000" stroke-width="0" stroke-linecap="butt"><path d="M249.85151,204.81531c-0.19616,-1.931 -0.5052,-11.19746 -0.5052,-11.19746l4.09845,-0.85866c0,0 -0.11663,4.70184 0.18399,9.6939c0.05359,0.88999 0.13093,1.79336 0.21871,2.67864c-1.31582,-0.03813 -2.64404,-0.03346 -3.96735,-0.05833c-0.01072,-0.09028 -0.0203,-0.17645 -0.0286,-0.25809z" data-paper-data="{&quot;index&quot;:null}" fill="#979068"/><path d="M249.06676,188.45018c4.3702,-0.67019 4.85019,1.86909 4.96804,3.27632c0.11785,1.40723 1.45534,1.05615 -2.55259,1.65316c-3.3876,0.5046 -2.92273,0.22247 -3.04058,-1.18476c-0.11785,-1.40723 -1.65081,-3.39568 0.62513,-3.7447z" data-paper-data="{&quot;index&quot;:null}" fill="#4a3c33"/></g><g stroke="#000000" stroke-width="0" stroke-linecap="butt"><path d="" fill="#a69b98"/><path d="" data-paper-data="{&quot;index&quot;:null}" fill="#141415"/><path d="" data-paper-data="{&quot;index&quot;:null}" fill="#252527"/></g><g stroke="#000000" stroke-width="0" stroke-linecap="butt"><path d="" fill="#a69b98"/><path d="" data-paper-data="{&quot;index&quot;:null}" fill="#141415"/><path d="" data-paper-data="{&quot;index&quot;:null}" fill="#252527"/></g><path d="M236.84065,187.46419v-5.46029h5.46485l-0.08144,5.62319z" fill="url(#color-2)" stroke="#000000" stroke-width="0" stroke-linecap="butt"/><path d="M232.22795,200.76338c-0.42505,-1.56381 -1.80877,-1.98276 -1.86945,-2.9473c-0.11984,-1.90524 -0.76376,-4.84924 -0.29726,-8.11662c0.35165,-2.46303 2.46864,-4.49575 2.46864,-4.49575c0,0 2.84619,-0.20634 4.11503,0.05505c1.61516,0.33273 3.31272,1.77945 3.31272,1.77945c0,0 2.2024,-1.44382 3.56817,-1.74094c1.44107,-0.3135 3.91473,0.01197 3.91473,0.01197c0,0 1.87092,2.51387 2.03277,5.59675c0.15275,2.90967 -0.45155,6.04421 -0.50626,7.23615c-0.05545,1.20812 -1.06717,1.52129 -1.52199,3.0513c-0.2624,0.88273 -0.34949,2.42635 -0.4128,3.75298c-0.77027,-0.06192 -1.53451,-0.15221 -2.28918,-0.28568c-3.47988,-0.61543 -7.28621,-0.37042 -10.76573,-0.44143c-0.44725,-0.00913 -0.90168,-0.02969 -1.36162,-0.05771c-0.07013,-1.22195 -0.16933,-2.59462 -0.38777,-3.39823z" fill="#4f4037" stroke="#292e32" stroke-width="0" stroke-linecap="butt"/><g stroke="#000000" stroke-width="0" stroke-linecap="butt"><path d="M224.10481,198.25564c1.07542,-4.88412 1.69345,-9.54662 1.69345,-9.54662l3.9144,1.48729c0,0 -1.75032,9.10491 -2.2452,10.98169c-0.16724,0.63426 -0.46106,1.5407 -0.76853,2.53141c-1.37351,-0.06145 -2.73441,-0.04754 -4.04235,0.13671c0.47797,-1.70205 1.02524,-3.66944 1.44823,-5.59046z" data-paper-data="{&quot;index&quot;:null}" fill="#a0986e"/><path d="M230.77615,189.11634c-0.33586,1.37163 0.07932,1.72281 -3.18814,0.6961c-3.8658,-1.21472 -2.59942,-0.65936 -2.26357,-2.03099c0.33586,-1.37163 1.20596,-3.80498 5.41818,-2.4615c2.19366,0.69967 0.36938,2.42475 0.03353,3.79638z" fill="#615046"/></g><g stroke="#000000" stroke-width="0" stroke-linecap="butt"><path d="M225.59523,202.10533c0.16968,-4.99822 -0.07013,-9.6954 -0.07013,-9.6954l4.11954,0.75095c0,0 -0.05783,8.11259 -0.18438,10.74458c-1.31183,-0.11449 -2.63679,-0.21818 -3.93964,-0.22811c0.03121,-0.52455 0.05691,-1.05069 0.07461,-1.57202z" data-paper-data="{&quot;index&quot;:null}" fill="#ada477"/><path d="M230.48752,191.81388c-0.08093,1.40983 0.39117,1.67969 -3.00848,1.26404c-4.0222,-0.49176 -2.67597,-0.17587 -2.59504,-1.5857c0.08093,-1.40983 0.49421,-3.96081 4.88047,-3.40538c2.28431,0.28926 0.80399,2.3172 0.72306,3.72704z" fill="#615046"/></g><g stroke-width="1"><path d="M248.27221,159.4356c0,0 -0.23147,2.31584 -0.51729,3.26402c-0.2341,0.77656 -1.07368,2.01367 -1.07368,2.01367" data-paper-data="{&quot;index&quot;:null}" fill="none" stroke="#3b2c16" stroke-linecap="round"/><path d="M249.50632,162.38943c0,0 -0.16617,1.62637 -0.51739,2.30937c-0.37148,0.72239 -1.65411,1.91347 -1.65411,1.91347" data-paper-data="{&quot;index&quot;:null}" fill="none" stroke="#3b2c16" stroke-linecap="round"/><path d="M246.292,158.17647c0,0 0.10246,2.33481 -0.02671,3.34982c-0.10579,0.8313 -0.69228,2.29988 -0.69228,2.29988" data-paper-data="{&quot;index&quot;:null}" fill="none" stroke="#3b2c16" stroke-linecap="round"/><path d="M248.71235,171.18511c0,5.27597 -5.84273,12.35887 -8.13629,12.40302c-4.77626,0.09194 -10.15889,-7.12705 -10.15889,-12.40302c0,-5.27597 4.09551,-9.55299 9.14759,-9.55299c5.05207,0 9.14759,4.27702 9.14759,9.55299z" fill="url(#color-3)" stroke="none" stroke-linecap="butt"/><path d="M239.84533,171.95827c0,1.47248 -0.64862,2.66616 -1.44873,2.66616c-0.80011,0 -1.44872,-1.19368 -1.44872,-2.66616c0,-1.47248 0.64862,-2.66615 1.44872,-2.66615c0.80011,0 1.44873,1.19368 1.44873,2.66615z" fill="none" stroke="#191412" stroke-linecap="butt"/><path d="M243.45091,167.98841c0,1.47248 -0.64862,2.66616 -1.44872,2.66616c-0.80011,0 -1.44873,-1.19368 -1.44873,-2.66616c0,-1.47248 0.64862,-2.66616 1.44873,-2.66616c0.80011,0 1.44872,1.19368 1.44872,2.66616z" fill="none" stroke="#191412" stroke-linecap="butt"/><path d="M247.02771,171.92509c0,1.47248 -0.64861,2.66616 -1.44872,2.66616c-0.80011,0 -1.44873,-1.19368 -1.44873,-2.66616c0,-1.47248 0.64862,-2.66615 1.44873,-2.66615c0.80011,0 1.44872,1.19368 1.44872,2.66615z" fill="none" stroke="#191412" stroke-linecap="butt"/><path d="M243.40733,175.58594c0,1.47248 -0.64862,2.66616 -1.44872,2.66616c-0.80011,0 -1.44873,-1.19368 -1.44873,-2.66616c0,-1.47248 0.64862,-2.66615 1.44873,-2.66615c0.80011,0 1.44872,1.19368 1.44872,2.66615z" fill="none" stroke="#191412" stroke-linecap="butt"/><path d="M233.45521,164.94271c0,0 -1.22364,-1.23645 -1.56525,-2.01282c-0.4171,-0.94795 -0.75638,-3.26361 -0.75638,-3.26361" fill="none" stroke="#47341a" stroke-linecap="round"/><path d="M232.50546,166.84225c0,0 -1.8687,-1.19007 -2.41027,-1.91218c-0.51206,-0.68274 -0.75558,-2.30897 -0.75558,-2.30897" fill="none" stroke="#47341a" stroke-linecap="round"/><path d="M235.06793,164.05473c0,0 -0.85537,-1.46812 -1.01022,-2.29934c-0.18907,-1.01491 -0.04216,-3.34979 -0.04216,-3.34979" fill="none" stroke="#47341a" stroke-linecap="round"/></g><path d="M217.0612,205.0522v-50.10439h45.87767v50.10439z" fill="none" stroke="url(#color-4)" stroke-width="2.5" stroke-linecap="butt"/></g></g></svg>