<svg version="1.1" xmlns="http://www.w3.org/2000/svg" xmlns:xlink="http://www.w3.org/1999/xlink" width="84.5" height="38.32609" viewBox="0,0,84.5,38.32609"><defs><linearGradient x1="240" y1="161.58694" x2="240" y2="198.41312" gradientUnits="userSpaceOnUse" id="color-1"><stop offset="0" stop-color="#2b4b31"/><stop offset="1" stop-color="#395a1b"/></linearGradient><linearGradient x1="240" y1="161.58694" x2="240" y2="198.41312" gradientUnits="userSpaceOnUse" id="color-2"><stop offset="0" stop-color="#12301b"/><stop offset="1" stop-color="#446d2c"/></linearGradient><radialGradient cx="263.56479" cy="180.16666" r="14.58617" gradientUnits="userSpaceOnUse" id="color-3"><stop offset="0" stop-color="#1b1b1b"/><stop offset="1" stop-color="#474747"/></radialGradient><linearGradient x1="263.56479" y1="165.31249" x2="263.56479" y2="195.02083" gradientUnits="userSpaceOnUse" id="color-4"><stop offset="0" stop-color="#1c1c1c"/><stop offset="1" stop-color="#050505"/></linearGradient><radialGradient cx="260.15915" cy="174.30048" r="11.41108" gradientUnits="userSpaceOnUse" id="color-5"><stop offset="0" stop-color="#5c398f"/><stop offset="1" stop-color="#3f3057"/></radialGradient><linearGradient x1="252.10949" y1="177.12935" x2="274.84317" y2="177.12935" gradientUnits="userSpaceOnUse" id="color-6"><stop offset="0" stop-color="#272727"/><stop offset="1" stop-color="#101010"/></linearGradient><linearGradient x1="264.93702" y1="176.61656" x2="263.47001" y2="176.61656" gradientUnits="userSpaceOnUse" id="color-7"><stop offset="0" stop-color="#b2a6bd"/><stop offset="1" stop-color="#6f6c73"/></linearGradient><linearGradient x1="260.5569" y1="186.73935" x2="263.41755" y2="186.73935" gradientUnits="userSpaceOnUse" id="color-8"><stop offset="0" stop-color="#2a282c"/><stop offset="1" stop-color="#151515"/></linearGradient><linearGradient x1="263.61536" y1="186.66892" x2="266.47601" y2="186.66892" gradientUnits="userSpaceOnUse" id="color-9"><stop offset="0" stop-color="#2a282c"/><stop offset="1" stop-color="#151515"/></linearGradient><linearGradient x1="263.30569" y1="186.92773" x2="263.72286" y2="186.92773" gradientUnits="userSpaceOnUse" id="color-10"><stop offset="0" stop-color="#2a282c"/><stop offset="1" stop-color="#151515"/></linearGradient><radialGradient cx="261.82918" cy="188.7522" r="4.22211" gradientUnits="userSpaceOnUse" id="color-11"><stop offset="0" stop-color="#989898"/><stop offset="1" stop-color="#717171"/></radialGradient><linearGradient x1="263.313" y1="177.13972" x2="263.52699" y2="177.13972" gradientUnits="userSpaceOnUse" id="color-12"><stop offset="0" stop-color="#b2a6bd"/><stop offset="1" stop-color="#99949e"/></linearGradient><linearGradient x1="261.95673" y1="176.6171" x2="263.37213" y2="176.6171" gradientUnits="userSpaceOnUse" id="color-13"><stop offset="0" stop-color="#b2a6bd"/><stop offset="1" stop-color="#6f6c73"/></linearGradient><radialGradient cx="263.29242" cy="170.98104" r="0.88871" gradientUnits="userSpaceOnUse" id="color-14"><stop offset="0" stop-color="#ffffff"/><stop offset="1" stop-color="#e086ff"/></radialGradient><linearGradient x1="264.1542" y1="170.98104" x2="262.43064" y2="170.98104" gradientUnits="userSpaceOnUse" id="color-15"><stop offset="0" stop-color="#f7f0ff"/><stop offset="1" stop-color="#e1cdff"/></linearGradient><linearGradient x1="267.15381" y1="178.51125" x2="266.27323" y2="178.64627" gradientUnits="userSpaceOnUse" id="color-16"><stop offset="0" stop-color="#b2a6bd"/><stop offset="1" stop-color="#6f6c73"/></linearGradient><linearGradient x1="266.22713" y1="178.97474" x2="266.35559" y2="178.95506" gradientUnits="userSpaceOnUse" id="color-17"><stop offset="0" stop-color="#b2a6bd"/><stop offset="1" stop-color="#99949e"/></linearGradient><linearGradient x1="265.36493" y1="178.78586" x2="266.21453" y2="178.6556" gradientUnits="userSpaceOnUse" id="color-18"><stop offset="0" stop-color="#b2a6bd"/><stop offset="1" stop-color="#6f6c73"/></linearGradient><radialGradient cx="265.59668" cy="175.19791" r="0.53968" gradientUnits="userSpaceOnUse" id="color-19"><stop offset="0" stop-color="#ffffff"/><stop offset="1" stop-color="#e086ff"/></radialGradient><linearGradient x1="266.11396" y1="175.11859" x2="265.0794" y2="175.27722" gradientUnits="userSpaceOnUse" id="color-20"><stop offset="0" stop-color="#f7f0ff"/><stop offset="1" stop-color="#e1cdff"/></linearGradient><linearGradient x1="259.64562" y1="178.51125" x2="260.52619" y2="178.64627" gradientUnits="userSpaceOnUse" id="color-21"><stop offset="0" stop-color="#6f6c73"/><stop offset="1" stop-color="#b2a6bd"/></linearGradient><linearGradient x1="260.57229" y1="178.97475" x2="260.44383" y2="178.95506" gradientUnits="userSpaceOnUse" id="color-22"><stop offset="0" stop-color="#99949e"/><stop offset="1" stop-color="#b2a6bd"/></linearGradient><linearGradient x1="261.43449" y1="178.78586" x2="260.58489" y2="178.6556" gradientUnits="userSpaceOnUse" id="color-23"><stop offset="0" stop-color="#6f6c73"/><stop offset="1" stop-color="#b2a6bd"/></linearGradient><radialGradient cx="260.8694" cy="175.19791" r="0.53969" gradientUnits="userSpaceOnUse" id="color-24"><stop offset="0" stop-color="#ffffff"/><stop offset="1" stop-color="#e086ff"/></radialGradient><linearGradient x1="260.35212" y1="175.11859" x2="261.38669" y2="175.27722" gradientUnits="userSpaceOnUse" id="color-25"><stop offset="0" stop-color="#f7f0ff"/><stop offset="1" stop-color="#e1cdff"/></linearGradient><radialGradient cx="257.2231" cy="177.33434" r="12.15334" gradientUnits="userSpaceOnUse" id="color-26"><stop offset="0" stop-color="#9366c7"/><stop offset="1" stop-color="#604f94"/></radialGradient><linearGradient x1="251.44958" y1="178.22166" x2="275.68" y2="178.22166" gradientUnits="userSpaceOnUse" id="color-27"><stop offset="0" stop-color="#272727"/><stop offset="1" stop-color="#101010"/></linearGradient><linearGradient x1="259.76526" y1="178.74222" x2="260.97033" y2="178.74222" gradientUnits="userSpaceOnUse" id="color-28"><stop offset="0" stop-color="#69646e"/><stop offset="1" stop-color="#413e47"/></linearGradient><linearGradient x1="262.31886" y1="176.15913" x2="264.29384" y2="176.15913" gradientUnits="userSpaceOnUse" id="color-29"><stop offset="0" stop-color="#69646e"/><stop offset="1" stop-color="#413e47"/></linearGradient><linearGradient x1="265.53398" y1="178.75338" x2="266.77253" y2="178.75338" gradientUnits="userSpaceOnUse" id="color-30"><stop offset="0" stop-color="#69646e"/><stop offset="1" stop-color="#413e47"/></linearGradient><linearGradient x1="261.70103" y1="180.90447" x2="264.86991" y2="180.90447" gradientUnits="userSpaceOnUse" id="color-31"><stop offset="0" stop-color="#69646e"/><stop offset="1" stop-color="#413e47"/></linearGradient><linearGradient x1="259.17367" y1="181.30002" x2="261.11837" y2="181.30002" gradientUnits="userSpaceOnUse" id="color-32"><stop offset="0" stop-color="#69646e"/><stop offset="1" stop-color="#413e47"/></linearGradient><linearGradient x1="265.67723" y1="181.34784" x2="267.59004" y2="181.34784" gradientUnits="userSpaceOnUse" id="color-33"><stop offset="0" stop-color="#69646e"/><stop offset="1" stop-color="#413e47"/></linearGradient></defs><g transform="translate(-197.75,-160.83703)"><g data-paper-data="{&quot;isPaintingLayer&quot;:true}" fill-rule="nonzero" stroke-linejoin="miter" stroke-miterlimit="10" stroke-dasharray="" stroke-dashoffset="0" style="mix-blend-mode: normal"><path d="M198.5,198.41312v-36.82609h83v36.82609z" fill="url(#color-1)" stroke="url(#color-2)" stroke-width="1.5" stroke-linecap="butt"/><path d="M249.25458,195.02083v-29.70833h28.62042v29.70833z" fill="url(#color-3)" stroke="url(#color-4)" stroke-width="2.5" stroke-linecap="butt"/><path d="M252.19794,176.22007l-0.08846,-4.24329c0,0 7.46967,1.21237 11.32263,1.21237c3.7203,0 11.49953,-1.11134 11.49953,-1.11134v3.9402c0,0 -1.2044,8.25469 -11.23073,7.97864c-10.11396,-0.27846 -11.50296,-7.77657 -11.50296,-7.77657z" fill="url(#color-5)" stroke="url(#color-6)" stroke-width="0.5" stroke-linecap="butt"/><path d="M263.47001,171.0776l1.46701,11.0779" data-paper-data="{&quot;index&quot;:null}" fill="none" stroke="url(#color-7)" stroke-width="0.5" stroke-linecap="round"/><path d="M263.41754,184.813l-2.86064,3.85271" fill="none" stroke="url(#color-8)" stroke-width="0.5" stroke-linecap="round"/><path d="M266.47601,188.59528l-2.86064,-3.85271" data-paper-data="{&quot;index&quot;:null}" fill="none" stroke="url(#color-9)" stroke-width="0.5" stroke-linecap="round"/><path d="M263.51427,188.68704v-3.5186" fill="none" stroke="url(#color-10)" stroke-width="0.5" stroke-linecap="round"/><path d="M259.34269,190.04739v-1.76175h8.44422v1.76175z" fill="url(#color-11)" stroke="#000000" stroke-width="0.5" stroke-linecap="butt"/><path d="M263.42,172.25905v9.76134" fill="none" stroke="url(#color-12)" stroke-width="0.5" stroke-linecap="round"/><path d="M263.37213,171.27297l-1.4154,10.68822" fill="none" stroke="url(#color-13)" stroke-width="0.5" stroke-linecap="round"/><path d="M263.29242,170.11927c0.47594,0 0.86177,0.38582 0.86177,0.86177c0,0.47594 -0.38582,0.86177 -0.86177,0.86177c-0.47594,0 -0.86177,-0.38582 -0.86177,-0.86177c0,-0.47594 0.38582,-0.86177 0.86177,-0.86177z" data-paper-data="{&quot;index&quot;:null}" fill="url(#color-14)" stroke="url(#color-15)" stroke-width="0.25" stroke-linecap="butt"/><path d="M267.66358,181.83602l-1.90013,-6.51453" data-paper-data="{&quot;index&quot;:null}" fill="none" stroke="url(#color-16)" stroke-width="0.25" stroke-linecap="round"/><path d="M265.84216,176.03526l0.89839,5.85928" fill="none" stroke="url(#color-17)" stroke-width="0.25" stroke-linecap="round"/><path d="M265.85678,181.99368l-0.1341,-6.54592" fill="none" stroke="url(#color-18)" stroke-width="0.25" stroke-linecap="round"/><path d="M265.51737,174.68063c0.28569,-0.0438 0.55279,0.15228 0.5966,0.43797c0.0438,0.28569 -0.15228,0.55279 -0.43797,0.5966c-0.28569,0.0438 -0.55279,-0.15228 -0.5966,-0.43797c-0.0438,-0.28569 0.15228,-0.55279 0.43797,-0.5966z" data-paper-data="{&quot;index&quot;:null}" fill="url(#color-19)" stroke="url(#color-20)" stroke-width="0.25" stroke-linecap="butt"/><path d="M261.03597,175.32149l-1.90013,6.51453" data-paper-data="{&quot;index&quot;:null}" fill="none" stroke="url(#color-21)" stroke-width="0.25" stroke-linecap="round"/><path d="M260.95726,176.03526l-0.89839,5.85928" data-paper-data="{&quot;index&quot;:null}" fill="none" stroke="url(#color-22)" stroke-width="0.25" stroke-linecap="round"/><path d="M260.94265,181.99368l0.1341,-6.54592" data-paper-data="{&quot;index&quot;:null}" fill="none" stroke="url(#color-23)" stroke-width="0.25" stroke-linecap="round"/><path d="M261.38669,175.27722c-0.0438,0.28569 -0.31091,0.48177 -0.5966,0.43797c-0.28569,-0.0438 -0.48177,-0.31091 -0.43797,-0.5966c0.0438,-0.28569 0.31091,-0.48177 0.5966,-0.43797c0.28569,0.0438 0.48177,0.31091 0.43797,0.5966z" data-paper-data="{&quot;index&quot;:null}" fill="url(#color-24)" stroke="url(#color-25)" stroke-width="0.25" stroke-linecap="butt"/><path d="M275.68,171.51155c0,0 -0.07066,2.80121 -0.19591,3.96292c-0.12726,1.18025 -0.56174,3.06384 -0.56174,3.06384c0,0 -0.15259,5.01651 -7.97419,5.91827c-0.46021,0.05306 -1.77876,0.50365 -3.34226,0.49873c-1.40537,-0.00441 -3.06127,-0.45697 -3.57643,-0.5369c-7.55854,-1.17266 -7.74724,-5.88012 -7.74724,-5.88012c0,0 -0.58671,-1.59828 -0.72095,-2.63611c-0.16308,-1.26078 -0.09951,-4.39065 -0.09951,-4.39065c0,0 0.55325,-0.5749 1.00735,0.36795c0.182,0.37789 0.90176,6.90755 2.42881,8.31807c1.08938,1.00625 5.15863,2.10269 8.61085,2.12423c3.45223,0.02154 7.82284,-1.29238 8.75031,-2.0159c2.12108,-1.65463 2.3871,-7.91554 2.54856,-8.27275c0.36319,-0.80352 0.87234,-0.52162 0.87234,-0.52162z" data-paper-data="{&quot;index&quot;:null}" fill="url(#color-26)" stroke="url(#color-27)" stroke-width="0.5" stroke-linecap="butt"/><path d="M259.76526,178.60832l1.20507,0.26779" fill="none" stroke="url(#color-28)" stroke-width="0.5" stroke-linecap="round"/><path d="M264.29384,176.1424l-1.97498,0.03347" fill="none" stroke="url(#color-29)" stroke-width="0.5" stroke-linecap="round"/><path d="M266.77252,178.61949l-1.23854,0.26779" fill="none" stroke="url(#color-30)" stroke-width="0.5" stroke-linecap="round"/><path d="M261.70103,180.88216l3.16889,0.04463" fill="none" stroke="url(#color-31)" stroke-width="0.5" stroke-linecap="round"/><path d="M261.11836,181.50725l-1.94469,-0.41444" fill="none" stroke="url(#color-32)" stroke-width="0.5" stroke-linecap="round"/><path d="M265.67723,181.50725l1.91281,-0.3188" fill="none" stroke="url(#color-33)" stroke-width="0.5" stroke-linecap="round"/><text transform="translate(201.08,170.56883) scale(0.21667,0.21667)" font-size="40" xml:space="preserve" fill="#ff0000" fill-rule="nonzero" stroke="none" stroke-width="1" stroke-linecap="butt" stroke-linejoin="miter" stroke-miterlimit="10" stroke-dasharray="" stroke-dashoffset="0" font-family="Serif" font-weight="normal" text-anchor="start" style="mix-blend-mode: normal"><tspan x="0" dy="0">Locator Relay</tspan></text><text transform="translate(200.46667,195.63117) scale(0.12749,0.12749)" font-size="40" xml:space="preserve" fill="#ff0000" fill-rule="nonzero" stroke="none" stroke-width="1" stroke-linecap="butt" stroke-linejoin="miter" stroke-miterlimit="10" stroke-dasharray="" stroke-dashoffset="0" font-family="Serif" font-weight="normal" text-anchor="start" style="mix-blend-mode: normal"><tspan x="0" dy="0">600k R</tspan></text><text transform="translate(201.08,178.86889) scale(0.21667,0.21667)" font-size="40" xml:space="preserve" fill="#ff0000" fill-rule="nonzero" stroke="none" stroke-width="1" stroke-linecap="butt" stroke-linejoin="miter" stroke-miterlimit="10" stroke-dasharray="" stroke-dashoffset="0" font-family="Serif" font-weight="normal" text-anchor="start" style="mix-blend-mode: normal"><tspan x="0" dy="0">2.0</tspan></text></g></g></svg>