<svg version="1.1" xmlns="http://www.w3.org/2000/svg" xmlns:xlink="http://www.w3.org/1999/xlink" width="42.28381" height="104.39038" viewBox="0,0,42.28381,104.39038"><defs><radialGradient cx="235.52448" cy="177.50476" r="21.06357" gradientUnits="userSpaceOnUse" id="color-1"><stop offset="0" stop-color="#353535"/><stop offset="1" stop-color="#8c8c8c"/></radialGradient><linearGradient x1="239.74787" y1="156.56832" x2="239.74787" y2="163.41937" gradientUnits="userSpaceOnUse" id="color-2"><stop offset="0" stop-color="#696969"/><stop offset="1" stop-color="#a0a0a0"/></linearGradient><radialGradient cx="235.71182" cy="133.91612" r="13.11833" gradientUnits="userSpaceOnUse" id="color-3"><stop offset="0" stop-color="#dcdcdc"/><stop offset="1" stop-color="#a0a0a0"/></radialGradient><radialGradient cx="242.43512" cy="139.4174" r="8.83664" gradientUnits="userSpaceOnUse" id="color-4"><stop offset="0" stop-color="#ffc4c4"/><stop offset="1" stop-color="#ff2121"/></radialGradient></defs><g transform="translate(-220.74807,-130.14767)"><g data-paper-data="{&quot;isPaintingLayer&quot;:true}" fill-rule="nonzero" stroke-linejoin="miter" stroke-miterlimit="10" stroke-dasharray="" stroke-dashoffset="0" style="mix-blend-mode: normal"><path d="M221.55679,200.07636v-45.14319h27.93538v45.14319z" fill="url(#color-1)" stroke="#ed6b00" stroke-width="0" stroke-linecap="butt"/><g><path d="M224.05082,226.54188l6.41126,-33.30759c0,0 10.44845,-1.09288 12.17762,-0.21222c0.94796,0.48279 -0.01133,1.87029 -1.75308,2.84588c-1.42651,0.79902 -3.61752,1.2202 -3.69959,1.49619c-1.27987,4.30331 -5.1581,29.81019 -5.1581,29.81019z" fill="#494949" stroke="#000000" stroke-width="0" stroke-linecap="butt"/><path d="M237.60714,232.68913c0,0 -0.50039,1.90656 -1.24445,1.84758c-0.53339,-0.04228 -2.38033,-0.17499 -4.22785,-0.40226c-1.12323,-0.13817 -1.66278,-0.75154 -2.49137,-0.96052c-1.04315,-0.26308 -2.66159,0.01016 -3.41063,-0.24132c-1.38021,-0.4634 -2.0753,-0.94476 -2.0753,-0.94476c0,0 -0.16113,-1.04138 -0.13167,-1.60121c0.03969,-0.75422 0.34836,-2.51736 0.34836,-2.51736c0,0 5.34925,0.30411 7.41643,0.66893c1.22321,0.21589 3.76467,0.94727 3.76467,0.94727c0,0 1.26487,0.7178 1.42334,1.15893c0.19406,0.54028 0.62845,2.04472 0.62845,2.04472z" data-paper-data="{&quot;index&quot;:null}" fill="#141415" stroke="#000000" stroke-width="0" stroke-linecap="butt"/><path d="M237.41353,232.03716c0,0 -0.34705,-0.02751 -1.09113,-0.08649c-0.22337,-0.01771 0.50546,1.64675 -2.4612,1.14219c-2.8015,-0.47646 -2.40446,-1.38256 -3.39188,-1.5417c-2.06471,-0.33275 -2.37546,0.40859 -3.26291,0.18477c-0.30905,-0.07794 -0.4523,-0.15076 -1.52913,-1.09461c-0.74058,-0.64913 -0.46059,-1.79323 -0.95064,-2.46212c-0.71584,-0.97708 -0.57847,-1.93757 -0.57847,-1.93757l0.17212,-3.04364c0,0 0.26324,2.23461 0.953,3.11629c0.61713,0.78884 2.0863,0.14658 2.52154,0.18094c0.76214,0.06018 -0.36159,-3.30697 0.36563,-3.23103c0.39101,0.04084 3.36834,0.03221 3.36834,0.03221c0,0 -0.17221,3.57746 0.03584,3.61417c1.22319,0.21588 4.092,0.97321 4.092,0.97321c0,0 1.26487,0.7178 1.42334,1.15893c0.19407,0.54028 0.33358,2.99445 0.33358,2.99445z" data-paper-data="{&quot;index&quot;:null}" fill="#252527" stroke="#000000" stroke-width="0" stroke-linecap="butt"/><path d="M229.8328,228.48838l2.48673,-0.89764" fill="none" stroke="#ffffff" stroke-width="0.5" stroke-linecap="round"/><path d="M231.54984,228.98942l2.40636,-1.26892" fill="none" stroke="#ffffff" stroke-width="0.5" stroke-linecap="round"/><path d="M234.91908,228.04009l-1.42436,1.34678" fill="none" stroke="#ffffff" stroke-width="0.5" stroke-linecap="round"/><path d="M231.03152,224.44766l-1.9832,0.08606" fill="none" stroke="#969696" stroke-width="0.5" stroke-linecap="round"/><path d="M231.19224,225.19023l-1.77454,0.22425" fill="none" stroke="#969696" stroke-width="0.5" stroke-linecap="round"/></g><g><path d="M247.3453,227.38905c0,0 -3.06153,-25.61774 -4.20329,-29.95974c-0.07322,-0.27847 -2.24966,-0.76941 -3.64991,-1.61359c-1.7097,-1.03074 -2.62418,-2.44816 -1.66129,-2.90042c1.7564,-0.82499 12.16463,0.60108 12.16463,0.60108l5.34409,33.49538z" data-paper-data="{&quot;index&quot;:null}" fill="#494949" stroke="#000000" stroke-width="0" stroke-linecap="butt"/><path d="M261.91213,233.29867c-0.5921,0.02795 -2.64052,0.13829 -4.70229,0.15496c-1.25349,0.01014 -1.92916,-0.52743 -2.86824,-0.6261c-1.18224,-0.12422 -2.92488,0.35876 -3.7822,0.2075c-1.57974,-0.27871 -2.40866,-0.665 -2.40866,-0.665c0,0 -0.31716,-1.01157 -0.36005,-1.57058c-0.05778,-0.75312 0.04454,-2.54194 0.04454,-2.54194c0,0 5.92202,-0.3992 8.24377,-0.30823c1.37386,0.05383 4.26635,0.44616 4.26635,0.44616c0,0 1.48716,0.5461 1.72067,0.96279c0.286,0.51034 0.96586,1.94527 0.96586,1.94527c0,0 -0.2938,1.95618 -1.11977,1.99516z" data-paper-data="{&quot;index&quot;:null}" fill="#141415" stroke="#000000" stroke-width="0" stroke-linecap="butt"/><path d="M261.52015,230.73949c-0.24795,0.0117 0.77712,1.56676 -2.55235,1.45505c-3.1441,-0.10547 -2.82941,-1.05601 -3.9364,-1.08446c-2.31475,-0.05948 -2.55672,0.71636 -3.56249,0.61068c-0.35028,-0.03681 -0.51754,-0.09024 -1.82836,-0.88513c-0.9015,-0.54667 -0.74748,-1.71789 -1.37618,-2.317c-0.91837,-0.87512 -0.89648,-1.84559 -0.89648,-1.84559l-0.21997,-3.04074c0,0 0.58985,2.18143 1.46672,2.96537c0.78456,0.7014 2.31344,-0.12796 2.79658,-0.1509c0.84601,-0.04017 -0.84216,-3.23193 -0.03243,-3.25188c0.43539,-0.01072 3.70757,-0.40934 3.70757,-0.40934c0,0 0.29166,3.57011 0.52531,3.57927c1.37386,0.05383 4.62971,0.42901 4.62971,0.42901c0,0 1.48716,0.5461 1.72068,0.96278c0.286,0.51034 0.76933,2.92572 0.76933,2.92572c0,0 -0.38527,0.01818 -1.21126,0.05716z" data-paper-data="{&quot;index&quot;:null}" fill="#252527" stroke="#000000" stroke-width="0" stroke-linecap="butt"/><path d="M256.5331,226.94045l-2.61328,1.21588" fill="none" stroke="#ffffff" stroke-width="0.5" stroke-linecap="round"/><path d="M255.87496,228.42824l2.47502,-1.57354" fill="none" stroke="#ffffff" stroke-width="0.5" stroke-linecap="round"/><path d="M259.45155,227.0455l-1.38491,1.52209" fill="none" stroke="#ffffff" stroke-width="0.5" stroke-linecap="round"/><path d="M254.69445,223.99238l-2.1688,0.34515" fill="none" stroke="#969696" stroke-width="0.5" stroke-linecap="round"/><path d="M254.97102,224.70768l-1.92085,0.45484" fill="none" stroke="#969696" stroke-width="0.5" stroke-linecap="round"/></g><g stroke="#000000" stroke-width="0" stroke-linecap="butt"><path d="M253.14413,189.28668c0,0 0.36429,-2.99882 -0.32192,-6.44016c-0.16501,-0.82756 -0.53162,-3.56192 -0.70876,-4.41032c-0.41924,-2.00796 -0.90028,-3.98396 -1.12975,-5.22145c-0.49356,-2.66161 -1.04737,-6.04744 -1.04737,-6.04744c0,0 -0.93286,-6.65971 0.03761,-6.97148c5.67564,-1.82341 5.32382,5.75278 5.32382,5.75278c0,0 0.86304,4.82243 1.3878,7.65224c0.21356,1.15166 -0.17207,2.12397 0.09486,3.92057c0.11966,0.80536 0.18404,4.32488 0.31567,6.47153c0.21914,3.57409 0.7013,5.70991 0.7013,5.70991z" data-paper-data="{&quot;index&quot;:null}" fill="#bdbdbd"/><path d="M258.0666,194.22094c-0.20601,-0.01421 0.17041,3.7193 -0.70135,3.72591c-0.42878,0.00325 -0.15081,-2.43442 -0.78013,-3.23807c-0.33311,-0.4254 0.55715,4.25731 -0.59066,3.8302c-0.39406,-0.14664 -0.27674,-3.58714 -0.72437,-4.38725c-0.23963,-0.42832 0.31144,5.21333 -0.45589,4.97368c-0.45551,-0.14225 -0.17603,-3.28444 -0.54924,-4.67434c-0.18181,-0.67712 -0.17705,3.86994 -0.73555,3.5722c-0.34186,-0.18225 -0.56249,-4.61978 -0.60165,-4.66822c-0.22013,-0.2722 -0.80419,2.45005 -1.09674,1.81426c-0.53918,-1.17175 0.31134,-2.63833 0.97043,-4.0086c0.38509,-0.8006 0.3624,-1.98105 0.3624,-1.98105c0,0 1.5639,-0.54546 2.34953,-0.4752c0.76493,0.06841 2.30376,0.89139 2.30376,0.89139c0,0 0.68592,4.65517 0.24948,4.62506z" data-paper-data="{&quot;index&quot;:null}" fill="#5c4747"/></g><g stroke-width="0" stroke-linecap="butt"><path d="M235.91979,163.41937v-6.85104h7.65615v6.85104z" fill="url(#color-2)" stroke="#000000"/><path d="M252.80944,144.14573c0,7.73092 -5.73774,13.99807 -12.8156,13.99807c-7.07786,0 -12.8156,-6.26715 -12.8156,-13.99807c0,-7.73092 5.73774,-13.99806 12.8156,-13.99806c7.07786,0 12.8156,6.26714 12.8156,13.99806z" fill="url(#color-3)" stroke="none"/><path d="M253.91261,142.97429c0,4.88691 0.03443,10.71868 -8.60517,11.34206c-9.65195,0.69642 -9.06107,-6.45514 -9.06107,-11.34206c0,-4.88691 3.95473,-8.84854 8.83313,-8.84854c4.8784,0 8.83313,3.96163 8.83313,8.84854z" data-paper-data="{&quot;index&quot;:null}" fill="url(#color-4)" stroke="#ed6b00"/></g><g stroke-width="0" stroke-linecap="butt"><path d="M229.63979,193.59141c0,0 0.16709,-5.5597 -0.35268,-10.94382c-0.35317,-3.65847 -1.40473,-6.95919 -1.56162,-9.45339c-0.29447,-4.68133 -0.2105,-13.38223 -0.2105,-13.38223c0,0 3.69178,-0.58477 5.4694,-0.21857c2.26281,0.46615 7.00656,2.78867 7.00656,2.78867c0,0 3.67689,-2.17061 5.59031,-2.58687c2.01891,-0.43921 6.22369,0.01677 6.22369,0.01677c0,0 -0.06905,9.21711 -0.22689,12.65629c-0.13965,3.04285 -0.88957,6.36811 -1.18346,10.87293c-0.3029,4.64296 -0.14784,10.42155 -0.14784,10.42155c0,0 -2.75697,-0.76932 -5.57187,-0.83754c-1.27833,-0.03098 -1.79126,1.00612 -2.99851,1.16532c-0.96496,0.12724 -2.63623,-0.61291 -3.56107,-0.64966c-0.69915,-0.02778 -2.04377,-0.5306 -2.53801,-0.53471c-0.99795,-0.0083 -1.61572,0.86529 -2.77345,1.02464c-1.34484,0.1851 -3.1641,-0.33939 -3.1641,-0.33939z" fill="#d0d0d0" stroke="#292e32"/><path d="M245.9343,170.5071l-0.06967,-5.82045l4.38934,0.36378v5.21415z" fill="#ff0000" stroke="none"/></g><g stroke="#000000" stroke-width="0" stroke-linecap="butt"><path d="M221.22964,189.42831c0,0 0.60053,-2.12304 0.87002,-5.69371c0.16185,-2.14459 0.23775,-5.66536 0.38642,-6.46781c0.33165,-1.79011 -0.15221,-2.77509 0.11351,-3.92127c0.65289,-2.81638 1.72648,-7.61684 1.72648,-7.61684c0,0 -0.29472,-7.93391 7.09003,-5.91303c1.17892,0.32262 -0.37924,7.29674 -0.37924,7.29674c0,0 -0.68851,3.37201 -1.30261,6.02096c-0.28552,1.23159 -0.88485,3.19471 -1.40681,5.1917c-0.22053,0.84378 -0.67567,3.56943 -0.88106,4.39271c-0.85414,3.4235 -0.39427,6.43621 -0.39427,6.43621z" fill="#bdbdbd"/><path d="M220.93246,194.16845c-0.54606,0.01814 0.29465,-4.62242 0.29465,-4.62242c0,0 1.92265,-0.78144 2.87965,-0.8289c0.9829,-0.04875 2.94212,0.5402 2.94212,0.5402c0,0 -0.02391,1.18091 0.46105,1.99281c0.83002,1.38962 1.89998,2.88092 1.22967,4.03892c-0.36369,0.62832 -1.10495,-2.11245 -1.37941,-1.84605c-0.04883,0.0474 -0.30806,4.48291 -0.73519,4.65594c-0.69778,0.28265 -0.70911,-4.26842 -0.93408,-3.59567c-0.46176,1.38092 -0.10008,4.53363 -0.66959,4.6635c-0.95938,0.21877 -0.29118,-5.41286 -0.58943,-4.99074c-0.55715,0.78854 -0.39726,4.23539 -0.88985,4.37134c-1.43481,0.39596 -0.33846,-4.26656 -0.75373,-3.84992c-0.7845,0.78709 -0.42738,3.23461 -0.96399,3.21958c-1.091,-0.03057 -0.63411,-3.75713 -0.89187,-3.74858z" data-paper-data="{&quot;index&quot;:null}" fill="#5c4747"/></g></g></g></svg>