<svg version="1.1" xmlns="http://www.w3.org/2000/svg" xmlns:xlink="http://www.w3.org/1999/xlink" width="88.60477" height="55.30602" viewBox="0,0,88.60477,55.30602"><defs><linearGradient x1="298.35161" y1="178.12221" x2="287.89188" y2="178.12221" gradientUnits="userSpaceOnUse" id="color-1"><stop offset="0" stop-color="#545461"/><stop offset="1" stop-color="#2c2c33"/></linearGradient><linearGradient x1="298.35161" y1="178.12221" x2="287.89188" y2="178.12221" gradientUnits="userSpaceOnUse" id="color-2"><stop offset="0" stop-color="#160000"/><stop offset="1" stop-color="#000000"/></linearGradient><linearGradient x1="291.36859" y1="156.59441" x2="294.99359" y2="156.59441" gradientUnits="userSpaceOnUse" id="color-3"><stop offset="0" stop-color="#32343b"/><stop offset="1" stop-color="#495060"/></linearGradient><linearGradient x1="305.97661" y1="180.87221" x2="295.51688" y2="180.87221" gradientUnits="userSpaceOnUse" id="color-4"><stop offset="0" stop-color="#646773"/><stop offset="1" stop-color="#3c3d45"/></linearGradient><linearGradient x1="305.97661" y1="180.87221" x2="295.51688" y2="180.87221" gradientUnits="userSpaceOnUse" id="color-5"><stop offset="0" stop-color="#160000"/><stop offset="1" stop-color="#000000"/></linearGradient><linearGradient x1="299.11858" y1="159.34441" x2="302.74358" y2="159.34441" gradientUnits="userSpaceOnUse" id="color-6"><stop offset="0" stop-color="#40424b"/><stop offset="1" stop-color="#596275"/></linearGradient><linearGradient x1="238.47662" y1="178.12221" x2="228.01688" y2="178.12221" gradientUnits="userSpaceOnUse" id="color-7"><stop offset="0" stop-color="#545461"/><stop offset="1" stop-color="#2c2c33"/></linearGradient><linearGradient x1="238.47662" y1="178.12221" x2="228.01688" y2="178.12221" gradientUnits="userSpaceOnUse" id="color-8"><stop offset="0" stop-color="#160000"/><stop offset="1" stop-color="#000000"/></linearGradient><linearGradient x1="231.11858" y1="156.59441" x2="234.74358" y2="156.59441" gradientUnits="userSpaceOnUse" id="color-9"><stop offset="0" stop-color="#32343b"/><stop offset="1" stop-color="#495060"/></linearGradient><linearGradient x1="245.97662" y1="180.87221" x2="235.51688" y2="180.87221" gradientUnits="userSpaceOnUse" id="color-10"><stop offset="0" stop-color="#646773"/><stop offset="1" stop-color="#3c3d45"/></linearGradient><linearGradient x1="245.97662" y1="180.87221" x2="235.51688" y2="180.87221" gradientUnits="userSpaceOnUse" id="color-11"><stop offset="0" stop-color="#160000"/><stop offset="1" stop-color="#000000"/></linearGradient><linearGradient x1="233.36858" y1="174.40691" x2="238.49358" y2="174.40691" gradientUnits="userSpaceOnUse" id="color-12"><stop offset="0" stop-color="#24252c"/><stop offset="1" stop-color="#383a3f"/></linearGradient><linearGradient x1="233.36859" y1="168.78191" x2="238.49359" y2="168.78191" gradientUnits="userSpaceOnUse" id="color-13"><stop offset="0" stop-color="#24252c"/><stop offset="1" stop-color="#383a3f"/></linearGradient><linearGradient x1="233.36858" y1="163.15691" x2="238.49358" y2="163.15691" gradientUnits="userSpaceOnUse" id="color-14"><stop offset="0" stop-color="#24252c"/><stop offset="1" stop-color="#383a3f"/></linearGradient><linearGradient x1="233.36859" y1="157.53191" x2="238.49359" y2="157.53191" gradientUnits="userSpaceOnUse" id="color-15"><stop offset="0" stop-color="#24252c"/><stop offset="1" stop-color="#383a3f"/></linearGradient><linearGradient x1="238.86858" y1="159.34441" x2="242.49358" y2="159.34441" gradientUnits="userSpaceOnUse" id="color-16"><stop offset="0" stop-color="#40424b"/><stop offset="1" stop-color="#596275"/></linearGradient><radialGradient cx="281.18311" cy="138.7137" r="41.23638" gradientUnits="userSpaceOnUse" id="color-17"><stop offset="0" stop-color="#738fff"/><stop offset="1" stop-color="#0057d9"/></radialGradient><radialGradient cx="288.36994" cy="143.5771" r="17.51927" gradientUnits="userSpaceOnUse" id="color-18"><stop offset="0" stop-color="#bcd0ff"/><stop offset="1" stop-color="#bcd0ff" stop-opacity="0"/></radialGradient></defs><g transform="translate(-226.48771,-126.84699)"><g data-paper-data="{&quot;isPaintingLayer&quot;:true}" fill-rule="nonzero" stroke-linejoin="miter" stroke-miterlimit="10" stroke-dasharray="" stroke-dashoffset="0" style="mix-blend-mode: normal"><path d="M293.12174,176.84143c2.88837,0 5.22987,0.57343 5.22987,1.28079c0,0.70736 -2.3415,1.28079 -5.22987,1.28079c-2.88837,0 -5.22987,-0.57343 -5.22987,-1.28079c0,-0.70736 2.3415,-1.28079 5.22987,-1.28079z" data-paper-data="{&quot;index&quot;:null}" fill="url(#color-1)" stroke="url(#color-2)" stroke-width="0" stroke-linecap="butt"/><path d="M291.36859,178.15691v-43.125h3.625v43.125z" fill="url(#color-3)" stroke="none" stroke-width="0" stroke-linecap="butt"/><path d="M300.74674,179.59143c2.88837,0 5.22987,0.57343 5.22987,1.28079c0,0.70736 -2.3415,1.28079 -5.22987,1.28079c-2.88837,0 -5.22987,-0.57343 -5.22987,-1.28079c0,-0.70736 2.3415,-1.28079 5.22987,-1.28079z" data-paper-data="{&quot;index&quot;:null}" fill="url(#color-4)" stroke="url(#color-5)" stroke-width="0" stroke-linecap="butt"/><path d="M299.11858,180.90691v-43.125h3.625v43.125z" fill="url(#color-6)" stroke="none" stroke-width="0" stroke-linecap="butt"/><path d="M233.24675,176.84143c2.88838,0 5.22987,0.57343 5.22987,1.28078c0,0.70736 -2.34149,1.28078 -5.22987,1.28078c-2.88838,0 -5.22987,-0.57343 -5.22987,-1.28078c0,-0.70736 2.34149,-1.28078 5.22987,-1.28078z" data-paper-data="{&quot;index&quot;:null}" fill="url(#color-7)" stroke="url(#color-8)" stroke-width="0" stroke-linecap="butt"/><path d="M231.11858,178.15691v-43.125h3.625v43.125z" fill="url(#color-9)" stroke="none" stroke-width="0" stroke-linecap="butt"/><path d="M240.74675,179.59143c2.88838,0 5.22987,0.57343 5.22987,1.28078c0,0.70736 -2.34149,1.28078 -5.22987,1.28078c-2.88838,0 -5.22987,-0.57343 -5.22987,-1.28078c0,-0.70736 2.34149,-1.28078 5.22987,-1.28078z" data-paper-data="{&quot;index&quot;:null}" fill="url(#color-10)" stroke="url(#color-11)" stroke-width="0" stroke-linecap="butt"/><path d="M233.36858,172.90691l5.125,3" fill="none" stroke="url(#color-12)" stroke-width="1.5" stroke-linecap="round"/><path d="M233.36859,167.28191l5.125,3" fill="none" stroke="url(#color-13)" stroke-width="1.5" stroke-linecap="round"/><path d="M233.36858,161.65691l5.125,3" fill="none" stroke="url(#color-14)" stroke-width="1.5" stroke-linecap="round"/><path d="M238.49359,159.03191l-5.125,-3" fill="none" stroke="url(#color-15)" stroke-width="1.5" stroke-linecap="round"/><path d="M238.86858,180.90691v-43.125h3.625v43.125z" fill="url(#color-16)" stroke="none" stroke-width="0" stroke-linecap="butt"/><path d="M238.10792,174.74248l-8.59754,-45.21672l72.60149,0.31843l9.87126,44.89829z" data-paper-data="{&quot;index&quot;:null}" fill="none" stroke="#000a1d" stroke-width="5" stroke-linecap="butt"/><path d="M238.10792,174.74248l-8.59754,-45.21672l72.60149,0.31843l9.87126,44.89829z" data-paper-data="{&quot;index&quot;:null}" fill="url(#color-17)" stroke="#e6ebff" stroke-width="1.5" stroke-linecap="butt"/><path d="M307.64004,159.72361h-71.58932" data-paper-data="{&quot;index&quot;:null}" fill="none" stroke="#e5ebff" stroke-width="1.5" stroke-linecap="round"/><path d="M290.71539,130.54318l9.33774,44.35425" data-paper-data="{&quot;index&quot;:null}" fill="none" stroke="#e5ebff" stroke-width="1.5" stroke-linecap="round"/><path d="M277.93394,130.48524l9.33774,44.35425" data-paper-data="{&quot;index&quot;:null}" fill="none" stroke="#e5ebff" stroke-width="1.5" stroke-linecap="round"/><path d="M265.54157,129.84369l9.33774,44.35425" data-paper-data="{&quot;index&quot;:null}" fill="none" stroke="#e5ebff" stroke-width="1.5" stroke-linecap="round"/><path d="M253.53826,129.98028l9.33774,44.35426" data-paper-data="{&quot;index&quot;:null}" fill="none" stroke="#e5ebff" stroke-width="1.5" stroke-linecap="round"/><path d="M250.48363,174.27659l-9.33774,-44.35425" data-paper-data="{&quot;index&quot;:null}" fill="none" stroke="#e5ebff" stroke-width="1.5" stroke-linecap="round"/><path d="M232.80154,144.68638h71.58933" data-paper-data="{&quot;index&quot;:null}" fill="none" stroke="#e5ebff" stroke-width="1.5" stroke-linecap="round"/><path d="M288.36994,126.84699c9.67563,0 17.51927,7.49032 17.51927,16.73011c0,9.23978 -7.84364,16.73011 -17.51927,16.73011c-9.67563,0 -17.51927,-7.49032 -17.51927,-16.73011c0,-9.23978 7.84364,-16.73011 17.51927,-16.73011z" data-paper-data="{&quot;index&quot;:null}" fill="url(#color-18)" stroke="none" stroke-width="0" stroke-linecap="butt"/></g></g></svg>