<svg version="1.1" xmlns="http://www.w3.org/2000/svg" xmlns:xlink="http://www.w3.org/1999/xlink" width="59" height="60.01308" viewBox="0,0,59,60.01308"><defs><linearGradient x1="240.00013" y1="169.35818" x2="240.00013" y2="208.35337" gradientUnits="userSpaceOnUse" id="color-1"><stop offset="0" stop-color="#181818"/><stop offset="1" stop-color="#050505"/></linearGradient><linearGradient x1="240.00013" y1="169.35818" x2="240.00013" y2="208.35337" gradientUnits="userSpaceOnUse" id="color-2"><stop offset="0" stop-color="#cccccc"/><stop offset="1" stop-color="#898989"/></linearGradient><radialGradient cx="240.20367" cy="189.16115" r="26.44994" gradientUnits="userSpaceOnUse" id="color-3"><stop offset="0" stop-color="#ffffff" stop-opacity="0.14029"/><stop offset="1" stop-color="#ffffff" stop-opacity="0"/></radialGradient><linearGradient x1="240.20367" y1="171.7659" x2="240.20367" y2="206.55639" gradientUnits="userSpaceOnUse" id="color-4"><stop offset="0" stop-color="#cccccc"/><stop offset="1" stop-color="#898989"/></linearGradient><linearGradient x1="253.80174" y1="184.73385" x2="253.80174" y2="203.496" gradientUnits="userSpaceOnUse" id="color-5"><stop offset="0" stop-color="#5d5d5d"/><stop offset="1" stop-color="#474747"/></linearGradient><radialGradient cx="257.19663" cy="187.04657" r="2.51342" gradientUnits="userSpaceOnUse" id="color-6"><stop offset="0" stop-color="#939393"/><stop offset="1" stop-color="#393939"/></radialGradient><linearGradient x1="257.19663" y1="184.57436" x2="257.19663" y2="189.51879" gradientUnits="userSpaceOnUse" id="color-7"><stop offset="0" stop-color="#666666"/><stop offset="1" stop-color="#4f4f4f"/></linearGradient><radialGradient cx="239.72553" cy="189.86574" r="7.99413" gradientUnits="userSpaceOnUse" id="color-8"><stop offset="0" stop-color="#939393"/><stop offset="1" stop-color="#535353"/></radialGradient><radialGradient cx="239.6429" cy="183.97239" r="7.99412" gradientUnits="userSpaceOnUse" id="color-9"><stop offset="0" stop-color="#393939"/><stop offset="1" stop-color="#1b1b1b"/></radialGradient><radialGradient cx="239.60159" cy="182.80117" r="6.8167" gradientUnits="userSpaceOnUse" id="color-10"><stop offset="0" stop-color="#373737"/><stop offset="1" stop-color="#1b1b1b"/></radialGradient><linearGradient x1="236.06391" y1="180.86705" x2="241.19782" y2="180.86705" gradientUnits="userSpaceOnUse" id="color-11"><stop offset="0" stop-color="#535353"/><stop offset="1" stop-color="#232323"/></linearGradient><radialGradient cx="244.23381" cy="185.54166" r="3.68865" gradientUnits="userSpaceOnUse" id="color-12"><stop offset="0" stop-color="#939393"/><stop offset="1" stop-color="#535353"/></radialGradient><radialGradient cx="247.98556" cy="187.16653" r="2.0694" gradientUnits="userSpaceOnUse" id="color-13"><stop offset="0" stop-color="#1d1d1d"/><stop offset="1" stop-color="#080808"/></radialGradient><linearGradient x1="247.98556" y1="185.09713" x2="247.98556" y2="189.23593" gradientUnits="userSpaceOnUse" id="color-14"><stop offset="0" stop-color="#ffffff"/><stop offset="1" stop-color="#a0a0a0"/></linearGradient><radialGradient cx="237.32998" cy="193.81318" r="10.78422" gradientUnits="userSpaceOnUse" id="color-15"><stop offset="0" stop-color="#adadad"/><stop offset="1" stop-color="#666666"/></radialGradient><radialGradient cx="238.69501" cy="196.98655" r="7.64537" gradientUnits="userSpaceOnUse" id="color-16"><stop offset="0" stop-color="#1e1e1e"/><stop offset="1" stop-color="#171717"/></radialGradient><linearGradient x1="256.33655" y1="187.0524" x2="258.12637" y2="187.08241" gradientUnits="userSpaceOnUse" id="color-17"><stop offset="0" stop-color="#644520"/><stop offset="1" stop-color="#5c401f"/></linearGradient><linearGradient x1="257.2414" y1="186.16015" x2="257.22153" y2="187.97466" gradientUnits="userSpaceOnUse" id="color-18"><stop offset="0" stop-color="#644520"/><stop offset="1" stop-color="#5c401f"/></linearGradient><linearGradient x1="256.60147" y1="186.42292" x2="257.86145" y2="187.71188" gradientUnits="userSpaceOnUse" id="color-19"><stop offset="0" stop-color="#644520"/><stop offset="1" stop-color="#5c401f"/></linearGradient><linearGradient x1="256.58988" y1="187.70002" x2="257.87305" y2="186.43479" gradientUnits="userSpaceOnUse" id="color-20"><stop offset="0" stop-color="#644520"/><stop offset="1" stop-color="#5c401f"/></linearGradient><linearGradient x1="250.38095" y1="187.06741" x2="264.08198" y2="187.06741" gradientUnits="userSpaceOnUse" id="color-21"><stop offset="0" stop-color="#e08200"/><stop offset="1" stop-color="#82491d"/></linearGradient><linearGradient x1="255.7476" y1="187.06741" x2="258.71533" y2="187.06741" gradientUnits="userSpaceOnUse" id="color-22"><stop offset="0" stop-color="#636363"/><stop offset="1" stop-color="#3a3a3a"/></linearGradient><linearGradient x1="255.7476" y1="187.06741" x2="258.71533" y2="187.06741" gradientUnits="userSpaceOnUse" id="color-23"><stop offset="0" stop-color="#adadad"/><stop offset="1" stop-color="#7e7e7e"/></linearGradient><radialGradient cx="253.99821" cy="186.68559" r="4.35423" gradientUnits="userSpaceOnUse" id="color-24"><stop offset="0" stop-color="#454545"/><stop offset="1" stop-color="#2f2f2f"/></radialGradient><radialGradient cx="261.45529" cy="186.52156" r="1.30981" gradientUnits="userSpaceOnUse" id="color-25"><stop offset="0" stop-color="#939393"/><stop offset="1" stop-color="#454545"/></radialGradient><radialGradient cx="261.73849" cy="187.10567" r="1.30981" gradientUnits="userSpaceOnUse" id="color-26"><stop offset="0" stop-color="#636363"/><stop offset="1" stop-color="#232323"/></radialGradient><linearGradient x1="239.59293" y1="151.76191" x2="239.59293" y2="167.03042" gradientUnits="userSpaceOnUse" id="color-27"><stop offset="0" stop-color="#6c737c"/><stop offset="1" stop-color="#374137" stop-opacity="0.22992"/></linearGradient><linearGradient x1="239.59293" y1="151.76191" x2="239.59293" y2="167.03042" gradientUnits="userSpaceOnUse" id="color-28"><stop offset="0" stop-color="#ccdae5"/><stop offset="1" stop-color="#9fc7a4" stop-opacity="0.06998"/></linearGradient><linearGradient x1="246.80401" y1="150.61126" x2="246.80401" y2="169.458" gradientTransform="translate(-557.68805,-403.41387) scale(2.4487,2.4487)" gradientUnits="userSpaceOnUse" id="color-29"><stop offset="0" stop-color="#e1e1e1"/><stop offset="1" stop-color="#555555"/></linearGradient><linearGradient x1="246.80401" y1="150.61126" x2="246.80401" y2="169.458" gradientTransform="translate(-557.68805,-403.41387) scale(2.4487,2.4487)" gradientUnits="userSpaceOnUse" id="color-30"><stop offset="0" stop-color="#676767"/><stop offset="1" stop-color="#ffffff"/></linearGradient></defs><g transform="translate(-210.50012,-149.84028)"><g data-paper-data="{&quot;isPaintingLayer&quot;:true}" fill-rule="nonzero" stroke-linejoin="miter" stroke-miterlimit="10" stroke-dasharray="" stroke-dashoffset="0" style="mix-blend-mode: normal"><path d="M212.00013,208.35337v-38.99518h56v38.99518z" fill="url(#color-1)" stroke="url(#color-2)" stroke-width="3" stroke-linecap="butt"/><path d="M266.6536,189.16115c0,9.60713 -11.84205,17.39525 -26.44994,17.39525c-14.6079,0 -26.44994,-7.78812 -26.44994,-17.39525c0,-9.60713 11.84205,-17.39525 26.44994,-17.39525c14.6079,0 26.44994,7.78812 26.44994,17.39525z" fill="url(#color-3)" stroke="url(#color-4)" stroke-width="0" stroke-linecap="butt"/><g><path d="M255.29886,192.47872l2.86181,0.03734" fill="none" stroke="#666666" stroke-width="1.5" stroke-linecap="round"/><path d="M254.09208,195.20432l4.5513,0.03734" fill="none" stroke="#666666" stroke-width="1.5" stroke-linecap="round"/><path d="M259.1261,198.15394h-6.10288" fill="none" stroke="#666666" stroke-width="1.5" stroke-linecap="round"/><path d="M251.95434,201.17824l7.68894,-0.03734" fill="none" stroke="#666666" stroke-width="1.5" stroke-linecap="round"/><path d="M250.45111,203.02872l6.91678,-16.38325l3.31036,16.85053" fill="none" stroke="url(#color-5)" stroke-width="2" stroke-linecap="round"/><path d="M259.71004,187.04657c0,1.36536 -1.12529,2.47221 -2.51342,2.47221c-1.38812,0 -2.51342,-1.10684 -2.51342,-2.47221c0,-1.36536 1.1253,-2.47221 2.51342,-2.47221c1.38812,0 2.51342,1.10684 2.51342,2.47221z" fill="url(#color-6)" stroke="url(#color-7)" stroke-width="1" stroke-linecap="butt"/><path d="M234.25024,204.46562v-1.50216h29.25819v1.50216z" fill="#312d29" stroke="none" stroke-width="0" stroke-linecap="butt"/><path d="M234.85056,202.68664v-15.98825c0,0 4.41402,0 6.65144,0c2.27874,0 6.89933,0 6.89933,0v15.98825c0,0 -2.04404,0.76295 -6.77422,0.85124c-4.96699,0.09272 -6.77655,-0.85124 -6.77655,-0.85124z" fill="url(#color-8)" stroke="none" stroke-width="1" stroke-linecap="butt"/><path d="M234.76793,186.81805v-3.54866h13.55078v3.54866c0,0 -1.83864,0.84324 -6.56882,0.86284c-4.96699,0.02058 -6.98196,-0.86284 -6.98196,-0.86284z" fill="url(#color-9)" stroke="none" stroke-width="1" stroke-linecap="butt"/><path d="M248.44264,183.33135c0,0.65028 -3.05194,1.04998 -6.8167,1.04998c-3.76476,0 -6.8167,-0.39971 -6.8167,-1.04998c0,-0.65028 3.05194,-1.17743 6.8167,-1.17743c3.76476,0 6.8167,0.52715 6.8167,1.17743z" fill="url(#color-10)" stroke="none" stroke-width="1" stroke-linecap="butt"/><path d="M236.06391,183.31255c0,0 0.05759,-1.38948 0.2297,-2.20602c0.06304,-0.29904 0.76622,-0.5647 0.89944,-1.00426c0.06244,-0.20603 -0.14112,-0.32866 -0.14434,-0.53747c-0.00848,-0.55022 0.12543,-0.47756 0.12543,-0.47756l2.89769,0.00669c0,0 0.06744,-0.17408 0.09782,0.47086c0.00718,0.15255 -0.2299,0.39825 -0.18584,0.55335c0.10615,0.37371 0.82844,0.71403 0.88676,0.97561c0.17843,0.80021 0.32725,2.2188 0.32725,2.2188c0,0 -1.25104,0.36415 -2.55445,0.33825c-1.26803,-0.02519 -2.57946,-0.33825 -2.57946,-0.33825z" fill="url(#color-11)" stroke="none" stroke-width="1" stroke-linecap="butt"/><path d="M244.41025,185.23591c1.27592,0.00133 2.72377,-0.00752 2.72377,-0.00752c0,0 1.84854,-0.06684 1.86473,1.87865c-0.06904,1.90327 -1.87561,2.01021 -1.87561,2.01021c0,0 -1.65361,0.03626 -2.72092,0.03515c-1.53788,-0.00161 -2.76274,-0.29373 -2.78055,-1.96115c-0.01859,-1.74011 1.25071,-1.95694 2.78858,-1.95533z" fill="url(#color-12)" stroke="none" stroke-width="0" stroke-linecap="butt"/><path d="M246.97385,187.16653c0,-1.1429 0.45296,-2.0694 1.01171,-2.0694c0.55875,0 1.01171,0.9265 1.01171,2.0694c0,1.1429 -0.45296,2.0694 -1.01171,2.0694c-0.55875,0 -1.01171,-0.9265 -1.01171,-2.0694z" fill="url(#color-13)" stroke="url(#color-14)" stroke-width="1" stroke-linecap="butt"/><path d="M248.67741,197.02236c0,2.64037 0.03748,5.63654 0.03748,5.63654c0,0 0.02388,0.94704 -7.00853,0.98881c-6.88012,-0.13478 -7.04878,-0.99482 -7.04878,-0.99482c0,0 -0.13733,-3.42182 -0.13733,-5.63053c0,-3.18248 1.05134,-5.71847 7.07859,-5.76241c6.29003,-0.04586 7.07859,2.57992 7.07859,5.76241z" fill="url(#color-15)" stroke="none" stroke-width="0" stroke-linecap="butt"/><path d="M246.73965,199.23231c0,1.84772 0.02657,4.08898 0.02657,4.08898c0,0 -0.01341,0.3609 -4.99897,0.39013c-4.87759,-0.09432 -5.00962,-0.40427 -5.00962,-0.40427c0,0 -0.05456,-2.52921 -0.05456,-4.07484c0,-2.22708 0.74534,-4.00174 5.01829,-4.03248c4.45925,-0.03209 5.01829,1.80541 5.01829,4.03248z" fill="url(#color-16)" stroke="none" stroke-width="0" stroke-linecap="butt"/><path d="M257.27585,180.42823l-0.08878,13.27835" fill="none" stroke="url(#color-17)" stroke-width="1" stroke-linecap="round"/><path d="M263.78091,187.07629l-13.0989,-0.01777" fill="none" stroke="url(#color-18)" stroke-width="1" stroke-linecap="round"/><path d="M261.83847,182.34833l-9.21401,9.43815" fill="none" stroke="url(#color-19)" stroke-width="1" stroke-linecap="round"/><path d="M252.61929,182.35352l9.22435,9.42776" fill="none" stroke="url(#color-20)" stroke-width="1" stroke-linecap="round"/><path d="M264.08198,187.06741c0,3.78019 -3.06708,6.84464 -6.85052,6.84464c-3.78343,0 -6.85052,-3.06445 -6.85052,-6.84464c0,-3.78019 3.06709,-6.84465 6.85052,-6.84465c3.78343,0 6.85052,3.06446 6.85052,6.84465z" fill="none" stroke="url(#color-21)" stroke-width="1.5" stroke-linecap="butt"/><path d="M258.71533,187.06741c0,0.8112 -0.66434,1.46881 -1.48386,1.46881c-0.81952,0 -1.48386,-0.65761 -1.48386,-1.46881c0,-0.8112 0.66434,-1.46881 1.48386,-1.46881c0.81952,0 1.48386,0.65761 1.48386,1.46881z" fill="url(#color-22)" stroke="url(#color-23)" stroke-width="1" stroke-linecap="butt"/><path d="M248.33771,187.03959l12.19186,0.0177" fill="none" stroke="url(#color-24)" stroke-width="1" stroke-linecap="round"/><path d="M263.04829,187.10567c-0.00652,1.34861 -0.58642,0.9027 -1.30981,0.9027c-0.72339,0 -1.25602,-0.40449 -1.27441,-0.9027c-0.0354,-0.95876 0.65722,-0.7611 1.38061,-0.7611c0.72339,0 1.21012,-0.58667 1.20361,0.7611z" fill="url(#color-25)" stroke="url(#color-26)" stroke-width="1" stroke-linecap="butt"/></g><path d="M215.0698,180.30253v-8.01989h21.19326v8.01989z" fill-opacity="0.53453" fill="#000000" stroke="#a60000" stroke-width="0" stroke-linecap="butt"/><text transform="translate(215.46978,178.71326) scale(0.20135,0.20135)" font-size="40" xml:space="preserve" fill="#ffffff" fill-rule="nonzero" stroke="#000000" stroke-width="0" stroke-linecap="butt" stroke-linejoin="miter" stroke-miterlimit="10" stroke-dasharray="" stroke-dashoffset="0" font-family="Serif" font-weight="normal" text-anchor="start" style="mix-blend-mode: normal"><tspan x="0" dy="0">Steam</tspan></text><path d="M215.0698,187.7417v-7.44664h21.94403v7.44664z" fill-opacity="0.53453" fill="#000000" stroke="#a60000" stroke-width="0" stroke-linecap="butt"/><text transform="translate(215.44119,186.07834) scale(0.18696,0.18696)" font-size="40" xml:space="preserve" fill="#ffffff" fill-rule="nonzero" stroke="#000000" stroke-width="0" stroke-linecap="butt" stroke-linejoin="miter" stroke-miterlimit="10" stroke-dasharray="" stroke-dashoffset="0" font-family="Serif" font-weight="normal" text-anchor="start" style="mix-blend-mode: normal"><tspan x="0" dy="0">Engine</tspan></text><path d="M223.91726,167.03042v-15.26848h31.35129v15.26848z" fill="url(#color-27)" stroke="url(#color-28)" stroke-width="1" stroke-linecap="butt"/><text transform="translate(227.74865,164.74615) scale(0.40838,0.40838)" font-size="40" xml:space="preserve" fill="url(#color-29)" fill-rule="nonzero" stroke="url(#color-30)" stroke-width="1" stroke-linecap="butt" stroke-linejoin="miter" stroke-miterlimit="10" stroke-dasharray="" stroke-dashoffset="0" font-family="Serif" font-weight="normal" text-anchor="start" style="mix-blend-mode: normal"><tspan x="0" dy="0">$40</tspan></text></g></g></svg>