<svg version="1.1" xmlns="http://www.w3.org/2000/svg" xmlns:xlink="http://www.w3.org/1999/xlink" width="98.0232" height="104.89225" viewBox="0,0,98.0232,104.89225"><defs><radialGradient cx="239.28162" cy="177.4727" r="22.57159" gradientUnits="userSpaceOnUse" id="color-1"><stop offset="0" stop-color="#3c3c3c"/><stop offset="1" stop-color="#939393"/></radialGradient><linearGradient x1="241.22299" y1="155.8387" x2="240.99597" y2="162.68599" gradientUnits="userSpaceOnUse" id="color-2"><stop offset="0" stop-color="#696969"/><stop offset="1" stop-color="#a0a0a0"/></linearGradient><radialGradient cx="237.93983" cy="133.06521" r="13.11833" gradientUnits="userSpaceOnUse" id="color-3"><stop offset="0" stop-color="#dcdcdc"/><stop offset="1" stop-color="#a0a0a0"/></radialGradient><radialGradient cx="243.2963" cy="140.13118" r="9.85359" gradientUnits="userSpaceOnUse" id="color-4"><stop offset="0" stop-color="#c5dfff"/><stop offset="1" stop-color="#219cff"/></radialGradient><radialGradient cx="232.69008" cy="133.50581" r="10.07074" gradientUnits="userSpaceOnUse" id="color-5"><stop offset="0" stop-color="#303030"/><stop offset="1" stop-color="#292929"/></radialGradient><radialGradient cx="249.21454" cy="130.8721" r="2.65078" gradientUnits="userSpaceOnUse" id="color-6"><stop offset="0" stop-color="#787878"/><stop offset="1" stop-color="#292929"/></radialGradient><radialGradient cx="237.99662" cy="132.66638" r="4.17314" gradientUnits="userSpaceOnUse" id="color-7"><stop offset="0" stop-color="#a7a7a7"/><stop offset="1" stop-color="#292929"/></radialGradient><linearGradient x1="253.70198" y1="196.05636" x2="264.23228" y2="190.38417" gradientUnits="userSpaceOnUse" id="color-8"><stop offset="0" stop-color="#242424"/><stop offset="1" stop-color="#373737"/></linearGradient><radialGradient cx="250.99197" cy="193.80082" r="3.52256" gradientUnits="userSpaceOnUse" id="color-9"><stop offset="0" stop-color="#bfbfbf"/><stop offset="1" stop-color="#9a9a9a"/></radialGradient><linearGradient x1="265.52953" y1="191.46918" x2="309.56782" y2="180.28384" gradientUnits="userSpaceOnUse" id="color-10"><stop offset="0" stop-color="#b2b2b2"/><stop offset="1" stop-color="#c4c4c4"/></linearGradient><linearGradient x1="265.90837" y1="191.74374" x2="294.7322" y2="184.42276" gradientUnits="userSpaceOnUse" id="color-11"><stop offset="0" stop-color="#cccccc"/><stop offset="1" stop-color="#d8d8d8"/></linearGradient><linearGradient x1="262.98678" y1="191.70082" x2="265.36226" y2="191.14199" gradientUnits="userSpaceOnUse" id="color-12"><stop offset="0" stop-color="#b5b5b5"/><stop offset="1" stop-color="#c5c5c5"/></linearGradient></defs><g transform="translate(-218.71487,-129.43413)"><g data-paper-data="{&quot;isPaintingLayer&quot;:true}" fill-rule="nonzero" stroke-linejoin="miter" stroke-miterlimit="10" stroke-dasharray="" stroke-dashoffset="0" style="mix-blend-mode: normal"><path d="M223.57416,199.53589l1.49598,-45.1184l29.91894,0.99201l-1.49598,45.1184z" fill="url(#color-1)" stroke="#ed6b00" stroke-width="0" stroke-linecap="butt"/><g><path d="M226.12338,227.23573l3.75904,-33.71008c0,0 6.75518,-2.18267 9.822,-2.18267c3.62872,0 0.6063,4.24407 0.6063,4.24407c0,0 -3.09204,0.08829 -3.39803,1.52409c-0.93579,4.39099 -2.78619,30.12458 -2.78619,30.12458z" fill="#494949" stroke="#000000" stroke-width="0" stroke-linecap="butt"/><path d="M218.71489,232.15169c0,0 0.61145,-1.46541 0.87307,-1.98866c0.21362,-0.42723 1.67337,-1.04283 1.67337,-1.04283c0,0 2.87078,-0.52826 4.24057,-0.6468c2.3149,-0.20032 8.24914,-0.08075 8.24914,-0.08075c0,0 0.18654,1.78201 0.16433,2.53701c-0.01648,0.56041 -0.2856,1.5858 -0.2856,1.5858c0,0 -0.80978,0.42493 -2.37463,0.77781c-0.84924,0.19151 -2.6127,-0.20879 -3.78777,-0.02896c-0.93338,0.14284 -1.58295,0.71166 -2.83553,0.76063c-2.06025,0.08055 -4.1116,0.06689 -4.70436,0.06689c-0.8269,0 -1.2126,-1.94015 -1.2126,-1.94015z" data-paper-data="{&quot;index&quot;:null}" fill="#141415" stroke="#000000" stroke-width="0" stroke-linecap="butt"/><path d="M218.98578,231.51703c0,0 0.36892,-2.43548 0.63055,-2.95873c0.21362,-0.42723 1.67337,-1.04283 1.67337,-1.04283c0,0 3.23456,-0.52826 4.60434,-0.6468c0.23296,-0.02016 0.35598,-3.60004 0.35598,-3.60004c0,0 3.28733,0.24389 3.72275,0.23408c0.80976,-0.01824 -0.72604,3.24957 0.12091,3.24981c0.48368,0.00014 2.04996,0.7565 2.80058,0.01889c0.83894,-0.82441 1.32529,-3.03123 1.32529,-3.03123l-0.07637,3.04773c0,0 0.06762,0.96834 -0.80847,1.8858c-0.59976,0.62808 -0.39071,1.79073 -1.26542,2.3793c-1.27187,0.85581 -1.43643,0.91707 -1.78458,0.97035c-0.99967,0.15299 -1.27796,-0.61058 -3.58733,-0.44204c-1.10442,0.0806 -0.74527,1.01524 -3.8809,1.26883c-3.3205,0.26854 -2.36989,-1.33311 -2.61811,-1.33311c-0.8269,0 -1.21259,0 -1.21259,0z" data-paper-data="{&quot;index&quot;:null}" fill="#252527" stroke="#000000" stroke-width="0" stroke-linecap="butt"/><path d="M225.00076,227.48709l2.66771,1.09134" data-paper-data="{&quot;index&quot;:null}" fill="none" stroke="#ffffff" stroke-width="0.5" stroke-linecap="round"/><path d="M223.18188,227.4871l2.54644,1.45511" data-paper-data="{&quot;index&quot;:null}" fill="none" stroke="#ffffff" stroke-width="0.5" stroke-linecap="round"/><path d="M222.09054,227.72961l1.45512,1.45512" data-paper-data="{&quot;index&quot;:null}" fill="none" stroke="#ffffff" stroke-width="0.5" stroke-linecap="round"/><path d="M226.6984,224.45562l2.18267,0.24252" data-paper-data="{&quot;index&quot;:null}" fill="none" stroke="#969696" stroke-width="0.5" stroke-linecap="round"/><path d="M228.39603,225.54695l-1.94015,-0.36378" data-paper-data="{&quot;index&quot;:null}" fill="none" stroke="#969696" stroke-width="0.5" stroke-linecap="round"/></g><g><path d="M245.93092,227.32045c0,0 -1.8504,-25.73359 -2.78619,-30.12458c-0.30599,-1.4358 -3.39803,-1.52409 -3.39803,-1.52409c0,0 -3.02242,-4.24407 0.6063,-4.24407c3.06682,0 9.822,2.18267 9.822,2.18267l3.75904,33.71008z" data-paper-data="{&quot;index&quot;:null}" fill="#494949" stroke="#000000" stroke-width="0" stroke-linecap="butt"/><path d="M259.6926,234.32551c-0.59276,0 -2.64411,0.01365 -4.70436,-0.0669c-1.25258,-0.04897 -1.90215,-0.61779 -2.83553,-0.76063c-1.17507,-0.17982 -2.93854,0.22047 -3.78778,0.02896c-1.56485,-0.35288 -2.37463,-0.77782 -2.37463,-0.77782c0,0 -0.26911,-1.0254 -0.2856,-1.5858c-0.02221,-0.75501 0.16433,-2.53701 0.16433,-2.53701c0,0 5.93425,-0.11957 8.24914,0.08076c1.36979,0.11854 4.24057,0.6468 4.24057,0.6468c0,0 1.45976,0.6156 1.67337,1.04283c0.26162,0.52325 0.87307,1.98865 0.87307,1.98865c0,0 -0.3857,1.94015 -1.21259,1.94015z" data-paper-data="{&quot;index&quot;:null}" fill="#141415" stroke="#000000" stroke-width="0" stroke-linecap="butt"/><path d="M259.4217,231.7507c-0.24822,0 0.7024,1.60165 -2.61811,1.33311c-3.13563,-0.25358 -2.77648,-1.18823 -3.8809,-1.26883c-2.30937,-0.16854 -2.58765,0.59503 -3.58732,0.44205c-0.34815,-0.05328 -0.51271,-0.11454 -1.78459,-0.97035c-0.87472,-0.58857 -0.66566,-1.75122 -1.26542,-2.3793c-0.87609,-0.91745 -0.80847,-1.8858 -0.80847,-1.8858l-0.07637,-3.04773c0,0 0.48635,2.20681 1.32529,3.03122c0.75062,0.73761 2.3169,-0.01875 2.80058,-0.01889c0.84696,-0.00024 -0.68885,-3.26804 0.12091,-3.2498c0.43542,0.00981 3.72275,-0.23409 3.72275,-0.23409c0,0 0.12302,3.57989 0.35598,3.60005c1.36979,0.11854 4.60434,0.6468 4.60434,0.6468c0,0 1.45976,0.6156 1.67338,1.04283c0.26162,0.52325 0.63055,2.95873 0.63055,2.95873c0,0 -0.3857,0 -1.2126,0z" data-paper-data="{&quot;index&quot;:null}" fill="#252527" stroke="#000000" stroke-width="0" stroke-linecap="butt"/><path d="M251.95161,228.8121l2.6677,-1.09133" fill="none" stroke="#ffffff" stroke-width="0.5" stroke-linecap="round"/><path d="M253.89176,229.17588l2.54645,-1.45511" fill="none" stroke="#ffffff" stroke-width="0.5" stroke-linecap="round"/><path d="M257.52955,227.96329l-1.45512,1.45511" fill="none" stroke="#ffffff" stroke-width="0.5" stroke-linecap="round"/><path d="M252.92168,224.68929l-2.18266,0.24252" fill="none" stroke="#969696" stroke-width="0.5" stroke-linecap="round"/><path d="M253.16421,225.41684l-1.94015,0.36378" fill="none" stroke="#969696" stroke-width="0.5" stroke-linecap="round"/></g><g stroke="#000000" stroke-width="0" stroke-linecap="butt"><path d="M258.02266,188.53572c0,0 0.03249,-3.02158 -1.03776,-6.36415c-0.25737,-0.80379 -0.92859,-3.47989 -1.20044,-4.30304c-0.64338,-1.9482 -1.34519,-3.85765 -1.71272,-5.06156c-0.79048,-2.58941 -1.72176,-5.8918 -1.72176,-5.8918c0,0 -1.67489,-6.51326 -0.73615,-6.93287c5.49001,-2.45409 5.97816,5.11532 5.97816,5.11532c0,0 1.40092,4.69518 2.24133,7.44823c0.34204,1.12042 0.06318,2.13037 0.53035,3.88574c0.20942,0.78687 0.6647,4.27746 1.03498,6.39602c0.61653,3.52734 1.33722,5.59549 1.33722,5.59549z" data-paper-data="{&quot;index&quot;:null}" fill="#bdbdbd"/><path d="M263.50743,192.88294c-0.20821,0.00918 0.58377,3.67716 -0.28983,3.78232c-0.42969,0.05172 -0.42149,-2.4024 -1.14188,-3.12994c-0.38131,-0.38511 1.03139,4.16812 -0.16722,3.87345c-0.41149,-0.10118 -0.67575,-3.53378 -1.21353,-4.27835c-0.28788,-0.39859 0.89108,5.14604 0.09487,4.99465c-0.47265,-0.08986 -0.54116,-3.24432 -1.06975,-4.58347c-0.25751,-0.65241 0.25201,3.86618 -0.3412,3.63343c-0.36312,-0.14246 -1.07697,-4.52777 -1.12163,-4.57147c-0.25099,-0.24563 -0.53459,2.52593 -0.89859,1.92714c-0.67085,-1.10356 0.01939,-2.65732 0.5283,-4.0937c0.29736,-0.83922 0.14357,-2.00986 0.14357,-2.00986c0,0 1.50798,-0.71898 2.30372,-0.738c0.77479,-0.01852 2.40952,0.62537 2.40952,0.62537c0,0 1.20471,4.54897 0.76362,4.56841z" data-paper-data="{&quot;index&quot;:null}" fill="#777777"/></g><g stroke-linecap="butt"><path d="M237.16998,162.55914l0.22703,-6.84728l7.65195,0.25372l-0.22703,6.84728z" fill="url(#color-2)" stroke="#000000" stroke-width="0"/><path d="M254.68906,143.85577c-0.2562,7.72667 -6.19846,13.80025 -13.27243,13.56569c-7.07397,-0.23454 -12.60089,-6.68841 -12.34468,-14.41507c0.2562,-7.72667 6.19846,-13.80024 13.27243,-13.56568c7.07397,0.23454 12.60089,6.6884 12.34468,14.41506z" fill="url(#color-3)" stroke="none" stroke-width="0"/><path d="M255.99728,143.27947c-0.12409,3.7428 -0.23382,8.21052 -9.87823,8.36871c-10.7745,0.17673 -9.93437,-5.2787 -9.81025,-9.02152c0.12409,-3.7428 4.63212,-6.63082 10.06897,-6.45054c5.43683,0.18028 9.74366,3.36054 9.61956,7.10335z" data-paper-data="{&quot;index&quot;:null}" fill="url(#color-4)" stroke="#ed6b00" stroke-width="0"/><path d="M235.37868,133.60449c-0.17027,0.00988 -0.60834,0.04207 -1.0832,0.10797c-0.52844,0.19002 -1.14427,0.38001 -1.61812,0.59442c-0.31851,0.8827 0.72677,1.8321 -0.73588,2.45216c-2.49454,1.05749 -1.64804,-2.09464 -0.79656,-3.06494c1.30667,-1.06382 3.18293,-1.13455 4.80438,-1.39055c2.23339,-0.35264 4.41783,-0.93746 6.61645,-0.99866c0.08529,-0.08345 0.20002,-0.13755 0.32851,-0.14489l0.58755,-0.03344c0.29781,-0.0679 0.62128,-0.13809 0.96081,-0.20335c0.88504,-0.24476 1.94373,-0.35202 2.92879,-0.41184c0.48467,-0.0786 0.93739,-0.10789 1.30947,-0.06201c0.27441,-0.01116 0.52962,-0.02177 0.75768,-0.03477l0.61938,-0.03527c0.28211,-0.01607 0.52382,0.19961 0.53987,0.4817c0.01429,0.2511 -0.15498,0.47016 -0.39128,0.52663l-0.33273,0.08648c0.14087,0.12655 0.26776,0.27015 0.37831,0.43247l0.23795,-0.11125l0.2781,0.59476c0.02979,0.06006 0.0482,0.12698 0.05226,0.19814c0.01607,0.28211 -0.19961,0.52382 -0.48169,0.53986c-0.0858,0.00488 -0.16784,-0.01166 -0.24096,-0.04499l-0.50016,-0.21548l0.00635,-0.01471l-0.04771,-0.00535c-0.35447,-0.23562 -0.71707,-0.41647 -1.08099,-0.5429c-0.55851,-0.03858 -1.14468,-0.11921 -1.74262,-0.18805c-1.01987,0.14078 -1.95894,0.73796 -2.65099,1.7841c0,0 -0.28321,0.42609 -0.70928,0.14287c-0.42608,-0.28321 -0.14288,-0.70929 -0.14288,-0.70929c0.06055,-0.09071 0.12286,-0.1788 0.18685,-0.26428l-0.28676,0.08107c-0.03841,0.01172 -0.07884,0.0191 -0.12074,0.02147c-0.28211,0.01607 -0.52382,-0.19961 -0.53986,-0.4817c-0.00813,-0.14278 0.04309,-0.27519 0.13224,-0.37325c-0.24499,-0.00764 -0.47679,-0.00196 -0.6752,0.04005c-1.38573,0.29347 -3.5007,0.33617 -5.50268,0.57582c0.00321,0.24149 -0.16292,0.4492 -0.39208,0.50397l-0.60316,0.15675l-0.00507,-0.01948l-0.00753,0.00169z" fill="url(#color-5)" stroke="none" stroke-width="0.5"/><path d="M250.58808,130.37571c2.71688,-0.19425 2.69218,-0.15436 2.84627,1.68197c0.15409,1.83632 -0.89292,3.3341 -2.33853,3.34535c-1.44564,0.01127 -2.74244,-1.46824 -2.89652,-3.30459c-0.15409,-1.83632 -0.15886,-1.5406 2.38882,-1.72276z" data-paper-data="{&quot;index&quot;:null}" fill="url(#color-6)" stroke="#000000" stroke-width="0"/><path d="M243.88286,132.83572c0.29136,2.00217 -1.30412,3.89183 -3.56363,4.22063c-2.25948,0.3288 -4.32736,-1.02774 -4.61872,-3.02991c-0.29136,-2.00217 -0.34149,-2.03906 3.9551,-2.47171c4.029,-0.40572 3.93588,-0.72115 4.22724,1.28103z" fill="url(#color-7)" stroke="#000000" stroke-width="0"/></g><path d="M229.877,193.0062c0,0 0.35125,-5.55111 0.01018,-10.9495c-0.23173,-3.66816 -1.17334,-7.00192 -1.24748,-9.49995c-0.13917,-4.68852 0.23308,-13.38186 0.23308,-13.38186c0,0 3.70913,-0.4621 5.47364,-0.0372c2.24612,0.54087 6.9103,3.01933 6.9103,3.01933c0,0 3.7468,-2.04757 5.67297,-2.40019c2.03236,-0.37207 6.21972,0.22299 6.21972,0.22299c0,0 -0.37445,9.20976 -0.64617,12.64182c-0.24041,3.03656 -1.10011,6.33513 -1.54313,10.82773c-0.4566,4.63037 -0.49311,10.41092 -0.49311,10.41092c0,0 -2.72997,-0.86026 -5.54104,-1.02172c-1.27661,-0.07333 -1.82361,0.9462 -3.03548,1.06532c-0.96865,0.09519 -2.61447,-0.69993 -3.53759,-0.76731c-0.69784,-0.05095 -2.02506,-0.59804 -2.5189,-0.61852c-0.99713,-0.04138 -1.64351,0.81127 -2.80587,0.93217c-1.35023,0.14044 -3.15112,-0.44405 -3.15112,-0.44405z" fill="#d0d0d0" stroke="#292e32" stroke-width="0" stroke-linecap="butt"/><path d="M243.73088,170.36857l0.07169,-5.82127l7.62309,0.61673l-0.17279,5.21129z" fill="#f200ff" stroke="none" stroke-width="0" stroke-linecap="butt"/><g stroke="none" stroke-width="0" stroke-linecap="butt"><path d="M254.22289,197.02343l-1.24068,-4.87689l10.72913,-2.72945l1.24068,4.8769z" fill="url(#color-8)"/><path d="M255.47364,193.10151c0.92258,1.71279 0.28202,3.84918 -1.43074,4.77174c-1.71278,0.9226 -3.84918,0.28202 -4.77175,-1.43074c-0.9226,-1.71279 -0.28203,-3.84917 1.43074,-4.77175c1.71278,-0.9226 3.84918,-0.28202 4.77176,1.43075z" fill="url(#color-9)"/><path d="M266.6745,195.97698l-2.28992,-9.01572l44.19097,-9.26478l8.16253,0.36649l-6.81612,4.32563z" fill="url(#color-10)"/><path d="M266.65774,194.69423l-1.65756,-6.2215l36.92975,-7.63334l10.14856,-1.34179l-9.26425,3.61285z" fill="url(#color-11)"/><path d="M264.77916,179.10221c0,0 -0.04771,8.00618 0.80558,11.86113c0.93691,4.23258 4.58845,12.50738 4.58845,12.50738c0,0 -6.0781,-7.954 -6.98677,-12.05909c-0.88891,-4.01577 1.59277,-12.30942 1.59277,-12.30942z" fill="url(#color-12)"/></g><g stroke="#000000" stroke-width="0" stroke-linecap="butt"><path d="M244.686,192.08432c0,0 -1.3291,-2.30029 -4.18597,-5.52968c-1.71587,-1.93961 -4.69214,-4.95995 -5.26022,-5.76179c-1.26729,-1.78871 -2.52383,-2.19758 -3.29049,-3.38896c-1.8838,-2.92738 -5.1277,-7.88316 -5.1277,-7.88316c0,0 -7.09774,-6.40411 0.84484,-11.08431c1.26797,-0.74716 5.98197,6.45128 5.98197,6.45128c0,0 2.33367,3.42445 4.10547,6.17782c0.82378,1.28015 2.0158,3.44518 3.30201,5.57184c0.54345,0.89856 2.51492,3.57907 3.05337,4.44733c2.23913,3.61067 5.22634,5.74206 5.22634,5.74206z" fill="#bdbdbd"/><path d="M248.52937,196.31909c-0.44261,0.48671 -3.74387,-4.1338 -3.74387,-4.1338c0,0 0.93886,-2.3159 1.70107,-3.18203c0.78281,-0.88958 2.9356,-2.08697 2.9356,-2.08697c0,0 0.99957,1.01172 2.10759,1.2744c1.89644,0.44958 4.08205,0.77731 4.51935,2.32795c0.23729,0.84135 -2.7513,-0.81882 -2.75162,-0.35826c-0.00005,0.08194 3.61215,4.02829 3.40308,4.54231c-0.34155,0.83971 -4.28062,-2.97002 -3.88854,-2.21118c0.80479,1.55762 3.8305,3.89127 3.46466,4.492c-0.61628,1.01197 -4.91802,-4.29135 -4.80386,-3.67956c0.21327,1.14284 3.32357,3.89758 3.02755,4.43699c-0.86228,1.57117 -3.96794,-3.28849 -3.95672,-2.58026c0.0212,1.33794 2.43417,3.08369 1.97086,3.53439c-0.94201,0.91634 -3.77621,-2.60569 -3.98515,-2.37595z" data-paper-data="{&quot;index&quot;:null}" fill="#777777"/></g></g></g></svg>