<svg version="1.1" xmlns="http://www.w3.org/2000/svg" xmlns:xlink="http://www.w3.org/1999/xlink" width="59" height="59.70662" viewBox="0,0,59,59.70662"><defs><linearGradient x1="270" y1="151.6467" x2="270" y2="208.35332" gradientUnits="userSpaceOnUse" id="color-1"><stop offset="0" stop-color="#191919"/><stop offset="1" stop-color="#050505"/></linearGradient><linearGradient x1="270" y1="151.6467" x2="270" y2="208.35332" gradientUnits="userSpaceOnUse" id="color-2"><stop offset="0" stop-color="#cccccc"/><stop offset="1" stop-color="#898989"/></linearGradient><radialGradient cx="270" cy="180.00001" r="26.8571" gradientUnits="userSpaceOnUse" id="color-3"><stop offset="0" stop-color="#ffe6ca" stop-opacity="0.35294"/><stop offset="1" stop-color="#ffe6ca" stop-opacity="0"/></radialGradient><linearGradient x1="270" y1="153.29211" x2="270" y2="206.7079" gradientUnits="userSpaceOnUse" id="color-4"><stop offset="0" stop-color="#cccccc"/><stop offset="1" stop-color="#898989"/></linearGradient><radialGradient cx="270.14148" cy="202.08989" r="9.55681" gradientUnits="userSpaceOnUse" id="color-5"><stop offset="0" stop-color="#232323"/><stop offset="1" stop-color="#48423e"/></radialGradient><linearGradient x1="266.95431" y1="199.09629" x2="273.32866" y2="199.09629" gradientUnits="userSpaceOnUse" id="color-6"><stop offset="0" stop-color="#818391"/><stop offset="1" stop-color="#73717a"/></linearGradient><linearGradient x1="270.14148" y1="198.47918" x2="270.14148" y2="199.71341" gradientUnits="userSpaceOnUse" id="color-7"><stop offset="0" stop-color="#1a1a1a"/><stop offset="1" stop-color="#000000"/></linearGradient><linearGradient x1="267.63727" y1="200.36138" x2="272.64569" y2="200.36138" gradientUnits="userSpaceOnUse" id="color-8"><stop offset="0" stop-color="#818391"/><stop offset="1" stop-color="#73717a"/></linearGradient><linearGradient x1="270.14148" y1="199.74426" x2="270.14148" y2="200.97849" gradientUnits="userSpaceOnUse" id="color-9"><stop offset="0" stop-color="#1a1a1a"/><stop offset="1" stop-color="#000000"/></linearGradient><linearGradient x1="268.79831" y1="201.59561" x2="271.48465" y2="201.59561" gradientUnits="userSpaceOnUse" id="color-10"><stop offset="0" stop-color="#818391"/><stop offset="1" stop-color="#73717a"/></linearGradient><linearGradient x1="270.14148" y1="200.97849" x2="270.14148" y2="202.21272" gradientUnits="userSpaceOnUse" id="color-11"><stop offset="0" stop-color="#1a1a1a"/><stop offset="1" stop-color="#000000"/></linearGradient><linearGradient x1="269.81361" y1="200.34595" x2="270.46936" y2="200.34595" gradientUnits="userSpaceOnUse" id="color-12"><stop offset="0" stop-color="#757784"/><stop offset="1" stop-color="#4d4c51"/></linearGradient><linearGradient x1="270.14148" y1="200.05871" x2="270.14148" y2="200.63319" gradientUnits="userSpaceOnUse" id="color-13"><stop offset="0" stop-color="#1a1a1a"/><stop offset="1" stop-color="#000000"/></linearGradient><linearGradient x1="268.5997" y1="200.34595" x2="269.19475" y2="200.34595" gradientUnits="userSpaceOnUse" id="color-14"><stop offset="0" stop-color="#757784"/><stop offset="1" stop-color="#4d4c51"/></linearGradient><linearGradient x1="268.89722" y1="200.05871" x2="268.89722" y2="200.63319" gradientUnits="userSpaceOnUse" id="color-15"><stop offset="0" stop-color="#1a1a1a"/><stop offset="1" stop-color="#000000"/></linearGradient><linearGradient x1="271.05787" y1="200.34595" x2="271.65292" y2="200.34595" gradientUnits="userSpaceOnUse" id="color-16"><stop offset="0" stop-color="#757784"/><stop offset="1" stop-color="#4d4c51"/></linearGradient><linearGradient x1="271.35539" y1="200.05871" x2="271.35539" y2="200.63319" gradientUnits="userSpaceOnUse" id="color-17"><stop offset="0" stop-color="#1a1a1a"/><stop offset="1" stop-color="#000000"/></linearGradient><linearGradient x1="272.32235" y1="200.34595" x2="272.81625" y2="200.34595" gradientUnits="userSpaceOnUse" id="color-18"><stop offset="0" stop-color="#757784"/><stop offset="1" stop-color="#4d4c51"/></linearGradient><linearGradient x1="272.5693" y1="200.05871" x2="272.5693" y2="200.63319" gradientUnits="userSpaceOnUse" id="color-19"><stop offset="0" stop-color="#1a1a1a"/><stop offset="1" stop-color="#000000"/></linearGradient><linearGradient x1="267.46672" y1="200.34595" x2="267.96061" y2="200.34595" gradientUnits="userSpaceOnUse" id="color-20"><stop offset="0" stop-color="#757784"/><stop offset="1" stop-color="#4d4c51"/></linearGradient><linearGradient x1="267.71367" y1="200.05871" x2="267.71367" y2="200.63319" gradientUnits="userSpaceOnUse" id="color-21"><stop offset="0" stop-color="#1a1a1a"/><stop offset="1" stop-color="#000000"/></linearGradient><linearGradient x1="269.8595" y1="201.6126" x2="270.42346" y2="201.6126" gradientUnits="userSpaceOnUse" id="color-22"><stop offset="0" stop-color="#757784"/><stop offset="1" stop-color="#4d4c51"/></linearGradient><linearGradient x1="270.14148" y1="201.32537" x2="270.14148" y2="201.89984" gradientUnits="userSpaceOnUse" id="color-23"><stop offset="0" stop-color="#1a1a1a"/><stop offset="1" stop-color="#000000"/></linearGradient><linearGradient x1="268.5997" y1="201.6126" x2="269.08461" y2="201.6126" gradientUnits="userSpaceOnUse" id="color-24"><stop offset="0" stop-color="#757784"/><stop offset="1" stop-color="#4d4c51"/></linearGradient><linearGradient x1="268.84215" y1="201.32537" x2="268.84215" y2="201.89984" gradientUnits="userSpaceOnUse" id="color-25"><stop offset="0" stop-color="#1a1a1a"/><stop offset="1" stop-color="#000000"/></linearGradient><linearGradient x1="271.27583" y1="201.6126" x2="271.76073" y2="201.6126" gradientUnits="userSpaceOnUse" id="color-26"><stop offset="0" stop-color="#757784"/><stop offset="1" stop-color="#4d4c51"/></linearGradient><linearGradient x1="271.51828" y1="201.32537" x2="271.51828" y2="201.89984" gradientUnits="userSpaceOnUse" id="color-27"><stop offset="0" stop-color="#1a1a1a"/><stop offset="1" stop-color="#000000"/></linearGradient><linearGradient x1="269.73161" y1="199.09974" x2="270.55134" y2="199.09974" gradientUnits="userSpaceOnUse" id="color-28"><stop offset="0" stop-color="#757784"/><stop offset="1" stop-color="#4d4c51"/></linearGradient><linearGradient x1="270.14147" y1="198.8125" x2="270.14147" y2="199.38697" gradientUnits="userSpaceOnUse" id="color-29"><stop offset="0" stop-color="#1a1a1a"/><stop offset="1" stop-color="#000000"/></linearGradient><linearGradient x1="268.56042" y1="199.10081" x2="269.17063" y2="199.10081" gradientUnits="userSpaceOnUse" id="color-30"><stop offset="0" stop-color="#757784"/><stop offset="1" stop-color="#4d4c51"/></linearGradient><linearGradient x1="268.86553" y1="198.81357" x2="268.86553" y2="199.38805" gradientUnits="userSpaceOnUse" id="color-31"><stop offset="0" stop-color="#1a1a1a"/><stop offset="1" stop-color="#000000"/></linearGradient><linearGradient x1="271.08121" y1="199.10081" x2="271.69142" y2="199.10081" gradientUnits="userSpaceOnUse" id="color-32"><stop offset="0" stop-color="#757784"/><stop offset="1" stop-color="#4d4c51"/></linearGradient><linearGradient x1="271.38631" y1="198.81357" x2="271.38631" y2="199.38805" gradientUnits="userSpaceOnUse" id="color-33"><stop offset="0" stop-color="#1a1a1a"/><stop offset="1" stop-color="#000000"/></linearGradient><linearGradient x1="272.33583" y1="199.10081" x2="272.84231" y2="199.10081" gradientUnits="userSpaceOnUse" id="color-34"><stop offset="0" stop-color="#757784"/><stop offset="1" stop-color="#4d4c51"/></linearGradient><linearGradient x1="272.58907" y1="198.81357" x2="272.58907" y2="199.38805" gradientUnits="userSpaceOnUse" id="color-35"><stop offset="0" stop-color="#1a1a1a"/><stop offset="1" stop-color="#000000"/></linearGradient><linearGradient x1="267.44065" y1="199.10081" x2="267.94713" y2="199.10081" gradientUnits="userSpaceOnUse" id="color-36"><stop offset="0" stop-color="#757784"/><stop offset="1" stop-color="#4d4c51"/></linearGradient><linearGradient x1="267.69389" y1="198.81357" x2="267.69389" y2="199.38805" gradientUnits="userSpaceOnUse" id="color-37"><stop offset="0" stop-color="#1a1a1a"/><stop offset="1" stop-color="#000000"/></linearGradient><linearGradient x1="273.28772" y1="199.10081" x2="273.59078" y2="199.10081" gradientUnits="userSpaceOnUse" id="color-38"><stop offset="0" stop-color="#757784"/><stop offset="1" stop-color="#4d4c51"/></linearGradient><linearGradient x1="273.43924" y1="198.81357" x2="273.43924" y2="199.38805" gradientUnits="userSpaceOnUse" id="color-39"><stop offset="0" stop-color="#1a1a1a"/><stop offset="1" stop-color="#000000"/></linearGradient><linearGradient x1="266.69106" y1="199.10082" x2="266.99412" y2="199.10082" gradientUnits="userSpaceOnUse" id="color-40"><stop offset="0" stop-color="#757784"/><stop offset="1" stop-color="#4d4c51"/></linearGradient><linearGradient x1="266.84259" y1="198.81358" x2="266.84259" y2="199.38805" gradientUnits="userSpaceOnUse" id="color-41"><stop offset="0" stop-color="#1a1a1a"/><stop offset="1" stop-color="#000000"/></linearGradient><linearGradient x1="265.71994" y1="158.86898" x2="265.71994" y2="162.3125" gradientUnits="userSpaceOnUse" id="color-42"><stop offset="0" stop-color="#1a1a1a"/><stop offset="1" stop-color="#000000"/></linearGradient><linearGradient x1="274.58574" y1="158.65636" x2="274.58574" y2="162.0999" gradientUnits="userSpaceOnUse" id="color-43"><stop offset="0" stop-color="#1a1a1a"/><stop offset="1" stop-color="#000000"/></linearGradient><linearGradient x1="268.96755" y1="184.44071" x2="271.31541" y2="184.44071" gradientUnits="userSpaceOnUse" id="color-44"><stop offset="0" stop-color="#9e9e9e"/><stop offset="1" stop-color="#696969"/></linearGradient><linearGradient x1="268.96755" y1="184.44071" x2="271.31542" y2="184.44071" gradientUnits="userSpaceOnUse" id="color-45"><stop offset="0" stop-color="#1a1a1a"/><stop offset="1" stop-color="#000000"/></linearGradient><linearGradient x1="267.08899" y1="166.46234" x2="273.19397" y2="166.46234" gradientUnits="userSpaceOnUse" id="color-46"><stop offset="0" stop-color="#b06612"/><stop offset="1" stop-color="#8c5119"/></linearGradient><linearGradient x1="267.08899" y1="166.46234" x2="273.19397" y2="166.46234" gradientUnits="userSpaceOnUse" id="color-47"><stop offset="0" stop-color="#1a1a1a"/><stop offset="1" stop-color="#000000"/></linearGradient><linearGradient x1="256.82813" y1="179.86729" x2="283.26114" y2="179.86729" gradientUnits="userSpaceOnUse" id="color-48"><stop offset="0" stop-color="#b1b1b1"/><stop offset="1" stop-color="#8c8c8c"/></linearGradient><linearGradient x1="270.04464" y1="156.75912" x2="270.04464" y2="202.97545" gradientUnits="userSpaceOnUse" id="color-49"><stop offset="0" stop-color="#1a1a1a"/><stop offset="1" stop-color="#000000"/></linearGradient><linearGradient x1="245.71944" y1="201.40333" x2="255.59615" y2="201.40333" gradientUnits="userSpaceOnUse" id="color-50"><stop offset="0" stop-color="#ff0000"/><stop offset="1" stop-color="#650000"/></linearGradient><linearGradient x1="245.71944" y1="201.40333" x2="255.59615" y2="201.40333" gradientUnits="userSpaceOnUse" id="color-51"><stop offset="0" stop-color="#1a1a1a"/><stop offset="1" stop-color="#000000"/></linearGradient><linearGradient x1="284.40385" y1="201.53193" x2="294.28056" y2="201.53193" gradientUnits="userSpaceOnUse" id="color-52"><stop offset="0" stop-color="#0005ff"/><stop offset="1" stop-color="#000a8e"/></linearGradient><linearGradient x1="284.40385" y1="201.53193" x2="294.28056" y2="201.53193" gradientUnits="userSpaceOnUse" id="color-53"><stop offset="0" stop-color="#1a1a1a"/><stop offset="1" stop-color="#000000"/></linearGradient><linearGradient x1="246.21897" y1="178.26293" x2="256.44127" y2="178.26293" gradientUnits="userSpaceOnUse" id="color-54"><stop offset="0" stop-color="#1a1a1a"/><stop offset="1" stop-color="#000000"/></linearGradient><linearGradient x1="246.4683" y1="178.42412" x2="256.3166" y2="178.42412" gradientUnits="userSpaceOnUse" id="color-55"><stop offset="0" stop-color="#1a1a1a"/><stop offset="1" stop-color="#000000"/></linearGradient><linearGradient x1="283.58442" y1="178.44513" x2="293.80671" y2="178.44513" gradientUnits="userSpaceOnUse" id="color-56"><stop offset="0" stop-color="#1a1a1a"/><stop offset="1" stop-color="#000000"/></linearGradient><linearGradient x1="283.78734" y1="178.60632" x2="293.63564" y2="178.60632" gradientUnits="userSpaceOnUse" id="color-57"><stop offset="0" stop-color="#1a1a1a"/><stop offset="1" stop-color="#000000"/></linearGradient><linearGradient x1="267.20692" y1="176.5164" x2="268.85043" y2="176.5164" gradientUnits="userSpaceOnUse" id="color-58"><stop offset="0" stop-color="#1a1a1a"/><stop offset="1" stop-color="#000000"/></linearGradient><linearGradient x1="271.43308" y1="176.5164" x2="273.15485" y2="176.5164" gradientUnits="userSpaceOnUse" id="color-59"><stop offset="0" stop-color="#1a1a1a"/><stop offset="1" stop-color="#000000"/></linearGradient><linearGradient x1="267.22745" y1="172.66704" x2="273.16964" y2="172.66704" gradientUnits="userSpaceOnUse" id="color-60"><stop offset="0" stop-color="#1a1a1a"/><stop offset="1" stop-color="#000000"/></linearGradient><linearGradient x1="267.22745" y1="171.58665" x2="273.0616" y2="171.58665" gradientUnits="userSpaceOnUse" id="color-61"><stop offset="0" stop-color="#1a1a1a"/><stop offset="1" stop-color="#000000"/></linearGradient><linearGradient x1="265.93097" y1="196.86165" x2="274.52014" y2="196.86165" gradientUnits="userSpaceOnUse" id="color-62"><stop offset="0" stop-color="#b06612"/><stop offset="1" stop-color="#8c5119"/></linearGradient><linearGradient x1="265.93097" y1="196.25092" x2="274.52014" y2="196.25092" gradientUnits="userSpaceOnUse" id="color-63"><stop offset="0" stop-color="#1a1a1a"/><stop offset="1" stop-color="#000000"/></linearGradient><linearGradient x1="266.03232" y1="197.4029" x2="274.26373" y2="197.4029" gradientUnits="userSpaceOnUse" id="color-64"><stop offset="0" stop-color="#1a1a1a"/><stop offset="1" stop-color="#000000"/></linearGradient></defs><g transform="translate(-240.5,-150.14669)"><g data-paper-data="{&quot;isPaintingLayer&quot;:true}" fill-rule="nonzero" stroke-linejoin="miter" stroke-miterlimit="10" stroke-dasharray="" stroke-dashoffset="0" style="mix-blend-mode: normal"><path d="M242,208.35332v-56.70662h56v56.70662z" fill="url(#color-1)" stroke="url(#color-2)" stroke-width="3" stroke-linecap="butt"/><path d="M296.8571,180.00001c0,14.75036 -12.02433,26.70789 -26.8571,26.70789c-14.83277,0 -26.8571,-11.95753 -26.8571,-26.70789c0,-14.75036 12.02433,-26.70789 26.8571,-26.70789c14.83277,0 26.8571,11.95753 26.8571,26.70789z" fill="url(#color-3)" stroke="url(#color-4)" stroke-width="0" stroke-linecap="butt"/><g><path d="M270.14148,203.2409c-5.27808,0 -9.55681,-0.51532 -9.55681,-1.151c0,-0.63568 4.27873,-1.151 9.55681,-1.151c5.27808,0 9.55681,0.51532 9.55681,1.151c0,0.63568 -4.27873,1.151 -9.55681,1.151z" fill="url(#color-5)" stroke="#000000" stroke-width="0.5" stroke-linecap="butt"/><path d="M266.95431,199.71341v-1.23423h6.37435v1.23423z" fill="url(#color-6)" stroke="url(#color-7)" stroke-width="0.25" stroke-linecap="butt"/><path d="M267.63727,200.97849v-1.23423h5.00842v1.23423z" fill="url(#color-8)" stroke="url(#color-9)" stroke-width="0.25" stroke-linecap="butt"/><path d="M268.79831,202.21272v-1.23423h2.68633v1.23423z" fill="url(#color-10)" stroke="url(#color-11)" stroke-width="0.25" stroke-linecap="butt"/><path d="M269.81361,200.63319v-0.57448h0.65575v0.57448z" fill="url(#color-12)" stroke="url(#color-13)" stroke-width="0.25" stroke-linecap="butt"/><path d="M268.5997,200.63319v-0.57448h0.59505v0.57448z" fill="url(#color-14)" stroke="url(#color-15)" stroke-width="0.25" stroke-linecap="butt"/><path d="M271.05787,200.63319v-0.57448h0.59505v0.57448z" fill="url(#color-16)" stroke="url(#color-17)" stroke-width="0.25" stroke-linecap="butt"/><path d="M272.32235,200.63319v-0.57448h0.4939v0.57448z" fill="url(#color-18)" stroke="url(#color-19)" stroke-width="0.25" stroke-linecap="butt"/><path d="M267.46672,200.63319v-0.57448h0.4939v0.57448z" fill="url(#color-20)" stroke="url(#color-21)" stroke-width="0.25" stroke-linecap="butt"/><path d="M269.8595,201.89984v-0.57448h0.56396v0.57448z" fill="url(#color-22)" stroke="url(#color-23)" stroke-width="0.25" stroke-linecap="butt"/><path d="M268.5997,201.89984v-0.57448h0.48491v0.57448z" fill="url(#color-24)" stroke="url(#color-25)" stroke-width="0.25" stroke-linecap="butt"/><path d="M271.27583,201.89984v-0.57448h0.48491v0.57448z" fill="url(#color-26)" stroke="url(#color-27)" stroke-width="0.25" stroke-linecap="butt"/><path d="M269.73161,199.38697v-0.57448h0.81973v0.57448z" fill="url(#color-28)" stroke="url(#color-29)" stroke-width="0.25" stroke-linecap="butt"/><path d="M268.56042,199.38805v-0.57448h0.61021v0.57448z" fill="url(#color-30)" stroke="url(#color-31)" stroke-width="0.25" stroke-linecap="butt"/><path d="M271.08121,199.38805v-0.57448h0.61021v0.57448z" fill="url(#color-32)" stroke="url(#color-33)" stroke-width="0.25" stroke-linecap="butt"/><path d="M272.33583,199.38805v-0.57448h0.50648v0.57448z" fill="url(#color-34)" stroke="url(#color-35)" stroke-width="0.25" stroke-linecap="butt"/><path d="M267.44065,199.38805v-0.57448h0.50648v0.57448z" fill="url(#color-36)" stroke="url(#color-37)" stroke-width="0.25" stroke-linecap="butt"/><path d="M273.28772,199.38805v-0.57448h0.30306v0.57448z" fill="url(#color-38)" stroke="url(#color-39)" stroke-width="0.25" stroke-linecap="butt"/><path d="M266.69106,199.38805v-0.57448h0.30306v0.57448z" fill="url(#color-40)" stroke="url(#color-41)" stroke-width="0.25" stroke-linecap="butt"/><path d="M264.38948,158.86898l2.66092,3.44354" fill="none" stroke="url(#color-42)" stroke-width="0.5" stroke-linecap="round"/><path d="M275.9162,158.65636l-2.66092,3.44354" data-paper-data="{&quot;index&quot;:null}" fill="none" stroke="url(#color-43)" stroke-width="0.5" stroke-linecap="round"/><path d="M268.96755,195.41462v-21.9478h2.34787v21.9478z" fill="url(#color-44)" stroke="url(#color-45)" stroke-width="0.5" stroke-linecap="butt"/><path d="M267.08899,175.40685v-17.88901h6.10498v17.88901z" fill="url(#color-46)" stroke="url(#color-47)" stroke-width="0.5" stroke-linecap="butt"/><path d="M256.82813,202.97545v-46.21633h26.43301v46.21633h-1.2879c0,0 -0.50786,-24.63094 -0.80546,-32.07303c-0.14331,-3.58376 -0.88638,-10.23591 -0.88638,-10.23591c0,0 -1.53735,-1.69667 -10.06885,-1.69561c-7.35693,0.00091 -10.10657,1.70985 -10.10657,1.70985c0,0 -0.82753,5.91946 -1.01807,10.36805c-0.33136,7.73624 -0.7935,31.92665 -0.7935,31.92665z" fill="url(#color-48)" stroke="url(#color-49)" stroke-width="0.5" stroke-linecap="butt"/><path d="M245.71944,202.9185v-3.03034h9.87672v3.03034z" fill="url(#color-50)" stroke="url(#color-51)" stroke-width="0.5" stroke-linecap="butt"/><path d="M284.40385,202.97611v-2.88836h9.87672v2.88836z" fill="url(#color-52)" stroke="url(#color-53)" stroke-width="0.5" stroke-linecap="butt"/><path d="M246.21898,199.70134l5.6098,-42.87684l4.6125,0.48357l-1.37128,42.39327z" fill="none" stroke="url(#color-54)" stroke-width="0.5" stroke-linecap="round"/><path d="M246.4683,199.37896l8.60168,-4.19097l-7.47972,-4.83573l7.72905,-4.02978l-6.73175,-4.99692l6.98108,-3.06263l-5.85912,-4.35216l6.10844,-3.22382l-5.23581,-4.19097l5.73446,-3.7074l-4.73716,-4.02978l2.99189,-1.61191l1.49594,2.41787l-4.86182,3.5462l4.73716,4.02978l-5.73446,3.7074l5.48513,3.7074l-6.48243,3.5462l6.10844,4.35216l-7.10574,3.5462l6.85642,4.99692l-7.85371,3.5462l7.85371,5.15812" fill="none" stroke="url(#color-55)" stroke-width="0.5" stroke-linecap="round"/><path d="M284.9557,199.88355l-1.37128,-42.39326l4.6125,-0.48357l5.6098,42.87684z" data-paper-data="{&quot;index&quot;:null}" fill="none" stroke="url(#color-56)" stroke-width="0.5" stroke-linecap="round"/><path d="M285.03397,199.88355l7.85371,-5.15812l-7.85371,-3.5462l6.85642,-4.99692l-7.10574,-3.54621l6.10844,-4.35216l-6.48243,-3.5462l5.48513,-3.7074l-5.73446,-3.70739l4.73716,-4.02978l-4.86182,-3.5462l1.49594,-2.41787l2.99189,1.61191l-4.73716,4.02978l5.73446,3.7074l-5.23581,4.19097l6.10844,3.22382l-5.85912,4.35216l6.98108,3.06263l-6.73175,4.99692l7.72905,4.02978l-7.47972,4.83573l8.60168,4.19097" data-paper-data="{&quot;index&quot;:null}" fill="none" stroke="url(#color-57)" stroke-width="0.5" stroke-linecap="round"/><path d="M267.20692,175.49899l1.64351,2.03482" fill="none" stroke="url(#color-58)" stroke-width="0.5" stroke-linecap="round"/><path d="M271.43308,177.53381l1.72177,-2.03482" fill="none" stroke="url(#color-59)" stroke-width="0.5" stroke-linecap="round"/><path d="M273.16964,172.66704h-5.94219" fill="none" stroke="url(#color-60)" stroke-width="0.5" stroke-linecap="round"/><path d="M273.0616,171.58665h-5.83415" fill="none" stroke="url(#color-61)" stroke-width="0.5" stroke-linecap="round"/><path d="M265.93097,198.33069v-2.93808c0,0 0.85385,-1.22145 4.34633,-1.22145c3.45799,0 4.24284,1.22145 4.24284,1.22145v2.93808z" fill="url(#color-62)" stroke="url(#color-63)" stroke-width="0.5" stroke-linecap="butt"/><path d="M266.03232,197.4029h8.23141" fill="none" stroke="url(#color-64)" stroke-width="0.5" stroke-linecap="round"/></g><path d="M245.27327,163.339v-8.69862h17.81435v8.69862z" fill-opacity="0.53453" fill="#000000" stroke="#a60000" stroke-width="0" stroke-linecap="butt"/><text transform="translate(245.70712,161.61519) scale(0.21839,0.21839)" font-size="40" xml:space="preserve" fill="#ffffff" fill-rule="nonzero" stroke="#000000" stroke-width="0" stroke-linecap="butt" stroke-linejoin="miter" stroke-miterlimit="10" stroke-dasharray="" stroke-dashoffset="0" font-family="Serif" font-weight="normal" text-anchor="start" style="mix-blend-mode: normal"><tspan x="0" dy="0">Drill</tspan></text></g></g></svg>