<svg version="1.1" xmlns="http://www.w3.org/2000/svg" xmlns:xlink="http://www.w3.org/1999/xlink" width="261.47232" height="177.19491" viewBox="0,0,261.47232,177.19491"><defs><radialGradient cx="280.06247" cy="237.95935" r="38.33033" gradientUnits="userSpaceOnUse" id="color-1"><stop offset="0" stop-color="#696969"/><stop offset="1" stop-color="#0a0a0a"/></radialGradient><linearGradient x1="280.06247" y1="200.34215" x2="280.06247" y2="275.57656" gradientUnits="userSpaceOnUse" id="color-2"><stop offset="0" stop-color="#636363"/><stop offset="1" stop-color="#424242"/></linearGradient><linearGradient x1="262.64851" y1="238.45132" x2="298.10967" y2="238.45132" gradientUnits="userSpaceOnUse" id="color-3"><stop offset="0" stop-color="#d0d0d0"/><stop offset="1" stop-color="#727272"/></linearGradient><linearGradient x1="249.89583" y1="250.43006" x2="273.20187" y2="250.43006" gradientUnits="userSpaceOnUse" id="color-4"><stop offset="0" stop-color="#5d5d5d"/><stop offset="1" stop-color="#494949"/></linearGradient><linearGradient x1="261.54885" y1="235.36561" x2="261.54885" y2="265.49451" gradientUnits="userSpaceOnUse" id="color-5"><stop offset="0" stop-color="#348317"/><stop offset="1" stop-color="#3c5b0d"/></linearGradient><radialGradient cx="279.63337" cy="243.40381" r="13.56549" gradientUnits="userSpaceOnUse" id="color-6"><stop offset="0" stop-color="#e88c52"/><stop offset="1" stop-color="#ba623d"/></radialGradient><linearGradient x1="284.99202" y1="237.92094" x2="284.99202" y2="265.04951" gradientUnits="userSpaceOnUse" id="color-7"><stop offset="0" stop-color="#348317"/><stop offset="1" stop-color="#3c5b0d"/></linearGradient><radialGradient cx="298.03179" cy="243.98329" r="13.56549" gradientUnits="userSpaceOnUse" id="color-8"><stop offset="0" stop-color="#e88c52"/><stop offset="1" stop-color="#ba623d"/></radialGradient><linearGradient x1="303.40158" y1="237.9732" x2="303.40158" y2="265.10176" gradientUnits="userSpaceOnUse" id="color-9"><stop offset="0" stop-color="#348317"/><stop offset="1" stop-color="#3c5b0d"/></linearGradient><linearGradient x1="285.13352" y1="232.41553" x2="285.13352" y2="238.45461" gradientUnits="userSpaceOnUse" id="color-10"><stop offset="0" stop-color="#348317"/><stop offset="1" stop-color="#3c5b0d"/></linearGradient><linearGradient x1="303.85812" y1="232.5553" x2="303.85812" y2="238.59437" gradientUnits="userSpaceOnUse" id="color-11"><stop offset="0" stop-color="#348317"/><stop offset="1" stop-color="#3c5b0d"/></linearGradient><linearGradient x1="269.63738" y1="215.08183" x2="290.64345" y2="215.08183" gradientUnits="userSpaceOnUse" id="color-12"><stop offset="0" stop-color="#d10000"/><stop offset="1" stop-color="#730000"/></linearGradient><linearGradient x1="280.14042" y1="213.27097" x2="280.14042" y2="216.8927" gradientUnits="userSpaceOnUse" id="color-13"><stop offset="0" stop-color="#348317"/><stop offset="1" stop-color="#3c5b0d"/></linearGradient><linearGradient x1="269.52962" y1="221.34833" x2="290.5357" y2="221.34833" gradientUnits="userSpaceOnUse" id="color-14"><stop offset="0" stop-color="#d10000"/><stop offset="1" stop-color="#730000"/></linearGradient><linearGradient x1="280.03266" y1="219.53746" x2="280.03266" y2="223.1592" gradientUnits="userSpaceOnUse" id="color-15"><stop offset="0" stop-color="#348317"/><stop offset="1" stop-color="#3c5b0d"/></linearGradient><linearGradient x1="247.02096" y1="257.61725" x2="275.57677" y2="257.61725" gradientUnits="userSpaceOnUse" id="color-16"><stop offset="0" stop-color="#6c6c6c"/><stop offset="1" stop-color="#5c5c5c"/></linearGradient><linearGradient x1="261.29887" y1="249.73998" x2="261.29887" y2="265.49451" gradientUnits="userSpaceOnUse" id="color-17"><stop offset="0" stop-color="#348317"/><stop offset="1" stop-color="#3c5b0d"/></linearGradient><linearGradient x1="251.39576" y1="242.08159" x2="271.70194" y2="242.08159" gradientUnits="userSpaceOnUse" id="color-18"><stop offset="0" stop-color="#4687ff"/><stop offset="1" stop-color="#0067ff"/></linearGradient><linearGradient x1="261.54885" y1="238.36548" x2="261.54885" y2="245.79771" gradientUnits="userSpaceOnUse" id="color-19"><stop offset="0" stop-color="#348317"/><stop offset="1" stop-color="#3c5b0d"/></linearGradient><linearGradient x1="248.3959" y1="257.66425" x2="273.57686" y2="257.66425" gradientUnits="userSpaceOnUse" id="color-20"><stop offset="0" stop-color="#4687ff"/><stop offset="1" stop-color="#0067ff"/></linearGradient><linearGradient x1="260.98638" y1="253.94813" x2="260.98638" y2="261.38036" gradientUnits="userSpaceOnUse" id="color-21"><stop offset="0" stop-color="#348317"/><stop offset="1" stop-color="#3c5b0d"/></linearGradient><linearGradient x1="279.95963" y1="265.17573" x2="279.95963" y2="265.83096" gradientUnits="userSpaceOnUse" id="color-22"><stop offset="0" stop-color="#348317"/><stop offset="1" stop-color="#3c5b0d"/></linearGradient></defs><g transform="translate(-239.7193,-160.0288)"><g data-paper-data="{&quot;isPaintingLayer&quot;:true}" fill-rule="nonzero" stroke-linecap="butt" stroke-linejoin="miter" stroke-miterlimit="10" stroke-dasharray="" stroke-dashoffset="0" style="mix-blend-mode: normal"><text transform="translate(240.03135,187.4892) scale(0.6241,0.6241)" font-size="40" xml:space="preserve" fill="#ffffff" fill-rule="nonzero" stroke="none" stroke-width="1" stroke-linecap="butt" stroke-linejoin="miter" stroke-miterlimit="10" stroke-dasharray="" stroke-dashoffset="0" font-family="Malgun Gothic" font-weight="normal" text-anchor="start" style="mix-blend-mode: normal"><tspan x="0" dy="0">Factory</tspan></text><text transform="translate(324.45435,215.62294) scale(0.45565,0.45565)" font-size="40" xml:space="preserve" fill="#d8d8d8" fill-rule="nonzero" stroke="none" stroke-width="1" stroke-linecap="butt" stroke-linejoin="miter" stroke-miterlimit="10" stroke-dasharray="" stroke-dashoffset="0" font-family="Malgun Gothic" font-weight="normal" text-anchor="start" style="mix-blend-mode: normal"><tspan x="0" dy="0">Obtained by:</tspan></text><text transform="translate(324.45435,256.62748) scale(0.45566,0.45566)" font-size="40" xml:space="preserve" fill="#d8d8d8" fill-rule="nonzero" stroke="none" stroke-width="1" stroke-linecap="butt" stroke-linejoin="miter" stroke-miterlimit="10" stroke-dasharray="" stroke-dashoffset="0" font-family="Malgun Gothic" font-weight="normal" text-anchor="start" style="mix-blend-mode: normal"><tspan x="0" dy="0">Materials:</tspan></text><text transform="translate(241.38373,296.92705) scale(0.45566,0.45566)" font-size="40" xml:space="preserve" fill="#d8d8d8" fill-rule="nonzero" stroke="none" stroke-width="1" stroke-linecap="butt" stroke-linejoin="miter" stroke-miterlimit="10" stroke-dasharray="" stroke-dashoffset="0" font-family="Malgun Gothic" font-weight="normal" text-anchor="start" style="mix-blend-mode: normal"><tspan x="0" dy="0">Description:</tspan></text><text transform="translate(325.17562,233.72207) scale(0.37382,0.37382)" font-size="40" xml:space="preserve" fill="#9f9f9f" fill-rule="nonzero" stroke="none" stroke-width="1" stroke-linecap="butt" stroke-linejoin="miter" stroke-miterlimit="10" stroke-dasharray="" stroke-dashoffset="0" font-family="Malgun Gothic" font-weight="normal" text-anchor="start" style="mix-blend-mode: normal"><tspan x="0" dy="0">Factory</tspan></text><text transform="translate(325.17562,273.62539) scale(0.26788,0.26788)" font-size="40" xml:space="preserve" fill="#9f9f9f" fill-rule="nonzero" stroke="none" stroke-width="1" stroke-linecap="butt" stroke-linejoin="miter" stroke-miterlimit="10" stroke-dasharray="" stroke-dashoffset="0" font-family="Malgun Gothic" font-weight="normal" text-anchor="start" style="mix-blend-mode: normal"><tspan x="0" dy="0">Stone (x15), Iron (x50), Copper (x25)</tspan></text><path d="M241.73214,275.57656v-75.23442h76.66066v75.23442z" fill="url(#color-1)" stroke="url(#color-2)" stroke-width="3.5"/><text transform="translate(241.64328,315.44811) scale(0.37383,0.37383)" font-size="40" xml:space="preserve" fill="#9f9f9f" fill-rule="nonzero" stroke="none" stroke-width="1" stroke-linecap="butt" stroke-linejoin="miter" stroke-miterlimit="10" stroke-dasharray="" stroke-dashoffset="0" font-family="Malgun Gothic" font-weight="normal" text-anchor="start" style="mix-blend-mode: normal"><tspan x="0" dy="0">The machine that manufactures</tspan><tspan x="0" dy="48px">resources... and itself.</tspan></text><g stroke-width="0"><path d="M262.64851,265.40025c0,0 4.71323,-15.23033 5.90208,-24.22845c1.17723,-8.91014 1.19652,-29.4989 1.19652,-29.4989l20.82935,-0.17054c0,0 -0.56395,20.47345 0.71305,29.61001c1.23249,8.8181 6.82016,24.28787 6.82016,24.28787z" fill="url(#color-3)" stroke="none"/><path d="M249.89583,265.49451v-30.1289h23.30604v30.1289z" fill="url(#color-4)" stroke="url(#color-5)"/><path d="M293.89619,251.48523c0,7.49135 0.00686,13.46505 -8.90416,13.56428c-8.24746,0.09184 -8.90416,-6.07293 -8.90416,-13.56428c0,-7.49135 1.32248,-13.46085 8.90416,-13.56428c7.91224,-0.10794 8.90416,6.07293 8.90416,13.56428z" fill="url(#color-6)" stroke="url(#color-7)"/><path d="M312.30574,251.53748c0,7.49135 0.00686,13.46505 -8.90416,13.56428c-8.24745,0.09184 -8.90416,-6.07293 -8.90416,-13.56428c0,-7.49135 1.32248,-13.46085 8.90416,-13.56428c7.91224,-0.10795 8.90416,6.07293 8.90416,13.56428z" fill="url(#color-8)" stroke="url(#color-9)"/><path d="M284.11367,238.45461v-6.03908h2.0397v6.03908z" fill="#312d29" stroke="url(#color-10)"/><path d="M302.83827,238.59437v-6.03908h2.0397v6.03908z" fill="#312d29" stroke="url(#color-11)"/><path d="M283.31422,234.80823v-1.78253h22.06336v1.78253z" fill="#36322e" stroke="none"/><path d="M269.63738,216.8927v-3.62174h21.00607v3.62174z" fill="url(#color-12)" stroke="url(#color-13)"/><path d="M269.52962,223.1592v-3.62174h21.00607v3.62174z" fill="url(#color-14)" stroke="url(#color-15)"/><path d="M247.02096,265.49451v-15.75453h28.55581v15.75453z" fill="url(#color-16)" stroke="url(#color-17)"/><path d="M251.39576,245.79771v-7.43223h20.30617v7.43223z" fill="url(#color-18)" stroke="url(#color-19)"/><path d="M248.3959,261.38036v-7.43223h25.18096v7.43223z" fill="url(#color-20)" stroke="url(#color-21)"/><path d="M246.33627,265.83096v-0.65522h67.24672v0.65522z" fill="#312d29" stroke="url(#color-22)"/></g></g></g></svg>