<svg version="1.1" xmlns="http://www.w3.org/2000/svg" xmlns:xlink="http://www.w3.org/1999/xlink" width="49.14744" height="104.9373" viewBox="0,0,49.14744,104.9373"><defs><radialGradient cx="238.52448" cy="178.31651" r="22.57159" gradientUnits="userSpaceOnUse" id="color-1"><stop offset="0" stop-color="#3c3c3c"/><stop offset="1" stop-color="#939393"/></radialGradient><linearGradient x1="239.74787" y1="156.7705" x2="239.74787" y2="163.62155" gradientUnits="userSpaceOnUse" id="color-2"><stop offset="0" stop-color="#696969"/><stop offset="1" stop-color="#a0a0a0"/></linearGradient><radialGradient cx="235.71182" cy="134.1183" r="13.11833" gradientUnits="userSpaceOnUse" id="color-3"><stop offset="0" stop-color="#dcdcdc"/><stop offset="1" stop-color="#a0a0a0"/></radialGradient><radialGradient cx="241.29951" cy="141.0029" r="9.85359" gradientUnits="userSpaceOnUse" id="color-4"><stop offset="0" stop-color="#c5dfff"/><stop offset="1" stop-color="#219cff"/></radialGradient><radialGradient cx="230.47957" cy="134.73264" r="10.07074" gradientUnits="userSpaceOnUse" id="color-5"><stop offset="0" stop-color="#303030"/><stop offset="1" stop-color="#292929"/></radialGradient><radialGradient cx="246.90767" cy="131.55279" r="2.65078" gradientUnits="userSpaceOnUse" id="color-6"><stop offset="0" stop-color="#787878"/><stop offset="1" stop-color="#292929"/></radialGradient><radialGradient cx="235.75537" cy="133.71782" r="4.17314" gradientUnits="userSpaceOnUse" id="color-7"><stop offset="0" stop-color="#a7a7a7"/><stop offset="1" stop-color="#292929"/></radialGradient></defs><g transform="translate(-215.69914,-130.34985)"><g data-paper-data="{&quot;isPaintingLayer&quot;:true}" fill-rule="nonzero" stroke-linejoin="miter" stroke-miterlimit="10" stroke-dasharray="" stroke-dashoffset="0" style="mix-blend-mode: normal"><path d="M223.55679,200.88811v-45.14319h29.93538v45.14319z" fill="url(#color-1)" stroke="#ed6b00" stroke-width="0" stroke-linecap="butt"/><g><path d="M249.42448,227.77864c0,0 -4.53335,-25.39863 -5.92355,-29.66757c-0.45457,-1.39589 -3.53887,-1.16011 -3.53887,-1.16011c0,0 -3.44998,-3.90446 0.15882,-4.28422c3.04998,-0.32095 9.99649,1.14277 9.99649,1.14277l7.26629,33.13157z" data-paper-data="{&quot;index&quot;:null}" fill="#494949" stroke="#000000" stroke-width="0" stroke-linecap="butt"/><path d="M263.84371,233.30503c-0.58951,0.06203 -2.62817,0.29028 -4.68553,0.42579c-1.25082,0.08239 -1.95636,-0.41533 -2.89957,-0.4597c-1.18744,-0.05586 -2.89934,0.52678 -3.76395,0.42521c-1.5932,-0.18718 -2.44299,-0.52503 -2.44299,-0.52503c0,0 -0.37495,-0.99161 -0.44999,-1.54721c-0.1011,-0.74853 -0.10208,-2.54028 -0.10208,-2.54028c0,0 5.88915,-0.73995 8.21229,-0.78299c1.37467,-0.02547 4.28498,0.19946 4.28498,0.19946c0,0 1.51618,0.45945 1.77331,0.86197c0.31494,0.493 1.0764,1.88636 1.0764,1.88636c0,0 -0.18053,1.96986 -1.00289,2.0564z" data-paper-data="{&quot;index&quot;:null}" fill="#141415" stroke="#000000" stroke-width="0" stroke-linecap="butt"/><path d="M263.30484,230.77271c-0.24686,0.02598 0.86617,1.51935 -2.46422,1.59979c-3.14495,0.07598 -2.88558,-0.89113 -3.99238,-0.85571c-2.31433,0.07407 -2.51116,0.86256 -3.52137,0.81505c-0.35181,-0.01655 -0.52188,-0.06025 -1.87634,-0.77825c-0.93151,-0.49379 -0.84528,-1.67194 -1.50748,-2.2338c-0.9673,-0.82072 -1.00139,-1.79084 -1.00139,-1.79084l-0.39491,-3.023c0,0 0.71463,2.14379 1.63524,2.87588c0.82369,0.655 2.30222,-0.26112 2.78322,-0.31187c0.84228,-0.08887 -1.02709,-3.178 -0.21986,-3.24461c0.43405,-0.03582 3.67781,-0.6224 3.67781,-0.6224c0,0 0.497,3.54736 0.73078,3.54302c1.37467,-0.02547 4.64675,0.16139 4.64675,0.16139c0,0 1.51618,0.45945 1.77332,0.86197c0.31494,0.493 0.93673,2.87649 0.93673,2.87649c0,0 -0.38359,0.04036 -1.20594,0.1269z" data-paper-data="{&quot;index&quot;:null}" fill="#252527" stroke="#000000" stroke-width="0" stroke-linecap="butt"/><path d="M258.10705,227.26752l-2.53883,1.36451" fill="none" stroke="#ffffff" stroke-width="0.5" stroke-linecap="round"/><path d="M257.53579,228.79076l2.38019,-1.71361" fill="none" stroke="#ffffff" stroke-width="0.5" stroke-linecap="round"/><path d="M259.73185,228.80352l1.29485,-1.59941" fill="none" stroke="#ffffff" stroke-width="0.5" stroke-linecap="round"/><path d="M256.1015,224.43033l-2.14529,0.46961" fill="none" stroke="#969696" stroke-width="0.5" stroke-linecap="round"/><path d="M256.41884,225.1285l-1.89143,0.56483" fill="none" stroke="#969696" stroke-width="0.5" stroke-linecap="round"/></g><g><path d="M223.4803,227.06234l6.71851,-33.24698c0,0 6.92141,-1.57817 9.97626,-1.30759c3.61457,0.32015 0.2295,4.28101 0.2295,4.28101c0,0 -3.08777,-0.18486 -3.51925,1.21835c-1.31955,4.2913 -5.43311,29.76129 -5.43311,29.76129z" fill="#494949" stroke="#000000" stroke-width="0" stroke-linecap="butt"/><path d="M238.39068,233.45951c0,0 -0.55538,1.89856 -1.37905,1.8256c-0.59045,-0.0523 -2.63501,-0.21967 -4.68011,-0.48168c-1.24337,-0.1593 -1.84023,-0.7832 -2.75736,-1.00783c-1.15462,-0.2828 -2.94652,-0.03965 -3.77555,-0.30533c-1.52761,-0.48956 -2.29675,-0.98428 -2.29675,-0.98428c0,0 -0.17761,-1.04514 -0.14458,-1.60481c0.04449,-0.75401 0.38753,-2.51262 0.38753,-2.51262c0,0 5.92165,0.40446 8.20985,0.80822c1.35399,0.23893 4.16697,1.01841 4.16697,1.01841c0,0 1.39974,0.74199 1.57484,1.1864c0.21444,0.54429 0.69421,2.05793 0.69421,2.05793z" data-paper-data="{&quot;index&quot;:null}" fill="#141415" stroke="#000000" stroke-width="0" stroke-linecap="butt"/><path d="M238.17682,232.80345c0,0 -0.38419,-0.03403 -1.20786,-0.10699c-0.24726,-0.0219 0.55834,1.65737 -2.72552,1.09692c-3.10102,-0.52925 -2.66082,-1.42856 -3.75383,-1.60628c-2.28549,-0.37162 -2.63007,0.36441 -3.61234,0.12382c-0.34209,-0.08379 -0.5006,-0.15933 -1.69201,-1.12401c-0.81937,-0.66344 -0.50856,-1.80312 -1.05057,-2.48166c-0.79173,-0.99118 -0.63894,-1.94978 -0.63894,-1.94978l0.19281,-3.04258c0,0 0.28976,2.24113 1.05268,3.13634c0.68261,0.80097 2.30952,0.18574 2.79132,0.22826c0.84367,0.07449 -0.39784,-3.31607 0.40716,-3.22647c0.43286,0.04818 3.72889,0.09528 3.72889,0.09528c0,0 -0.19331,3.57677 0.03698,3.61741c1.35398,0.23893 4.52931,1.0505 4.52931,1.0505c0,0 1.39974,0.74199 1.57484,1.1864c0.21445,0.54429 0.36705,3.00282 0.36705,3.00282z" data-paper-data="{&quot;index&quot;:null}" fill="#252527" stroke="#000000" stroke-width="0" stroke-linecap="butt"/><path d="M229.78726,229.11025l2.75359,-0.85172" fill="none" stroke="#ffffff" stroke-width="0.5" stroke-linecap="round"/><path d="M234.35263,228.41901l-2.66489,1.22477" fill="none" stroke="#ffffff" stroke-width="0.5" stroke-linecap="round"/><path d="M233.8405,230.07792l1.57783,-1.32106" fill="none" stroke="#ffffff" stroke-width="0.5" stroke-linecap="round"/><path d="M228.92173,225.13812l2.19556,-0.04901" fill="none" stroke="#969696" stroke-width="0.5" stroke-linecap="round"/><path d="M231.29467,225.83521l-1.96468,0.19119" fill="none" stroke="#969696" stroke-width="0.5" stroke-linecap="round"/></g><g stroke="#000000" stroke-width="0" stroke-linecap="butt"><path d="M256.02045,189.20504c0,0 0.14351,-3.01835 -0.80319,-6.39797c-0.22766,-0.81272 -0.80008,-3.51166 -1.0415,-4.34425c-0.57134,-1.97053 -1.20252,-3.90447 -1.52554,-5.12109c-0.69479,-2.61672 -1.50409,-5.95107 -1.50409,-5.95107c0,0 -1.4344,-6.5704 -0.48089,-6.95524c5.57649,-2.25067 5.78614,5.33153 5.78614,5.33153c0,0 1.22743,4.74348 1.96612,7.52557c0.30063,1.13224 -0.01514,2.13124 0.3872,3.9026c0.18036,0.79405 0.50704,4.29901 0.79924,6.42974c0.48649,3.5476 1.13069,5.64084 1.13069,5.64084z" data-paper-data="{&quot;index&quot;:null}" fill="#bdbdbd"/><path d="M261.34178,193.75087c-0.20841,0.00152 0.44825,3.69612 -0.42864,3.76911c-0.4313,0.03589 -0.33292,-2.41626 -1.02609,-3.16978c-0.36691,-0.39887 0.87752,4.20321 -0.30946,3.86469c-0.40749,-0.11623 -0.54543,-3.55623 -1.05548,-4.32006c-0.27303,-0.40889 0.70137,5.17532 -0.08875,4.99477c-0.46904,-0.10717 -0.42156,-3.26202 -0.90058,-4.61969c-0.23336,-0.66142 0.10975,3.87281 -0.47448,3.61844c-0.35763,-0.15572 -0.90985,-4.56427 -0.95288,-4.60961c-0.24181,-0.2547 -0.62706,2.50458 -0.96881,1.89281c-0.62983,-1.12747 0.11703,-2.65482 0.67838,-4.07151c0.32799,-0.82773 0.21734,-2.00322 0.21734,-2.00322c0,0 1.53338,-0.66307 2.32929,-0.65283c0.77494,0.00996 2.3849,0.71349 2.3849,0.71349c0,0 1.03672,4.59016 0.59524,4.59338z" data-paper-data="{&quot;index&quot;:null}" fill="#777777"/></g><g stroke-linecap="butt"><path d="M235.91979,163.62155v-6.85104h7.65615v6.85104z" fill="url(#color-2)" stroke="#000000" stroke-width="0"/><path d="M252.80944,144.34791c0,7.73092 -5.73774,13.99807 -12.8156,13.99807c-7.07786,0 -12.8156,-6.26715 -12.8156,-13.99807c0,-7.73092 5.73774,-13.99806 12.8156,-13.99806c7.07786,0 12.8156,6.26714 12.8156,13.99806z" fill="url(#color-3)" stroke="none" stroke-width="0"/><path d="M254.09785,143.72856c0,3.74486 0.0384,8.21376 -9.59547,8.69146c-10.76272,0.53367 -10.10384,-4.9466 -10.10384,-8.69146c0,-3.74486 4.40985,-6.78067 9.84967,-6.78067c5.43982,0 9.84967,3.03581 9.84967,6.78067z" data-paper-data="{&quot;index&quot;:null}" fill="url(#color-4)" stroke="#ed6b00" stroke-width="0"/><path d="M233.16997,134.74217c-0.16984,0.01553 -0.60661,0.06221 -1.07903,0.1438c-0.52185,0.20742 -1.13106,0.41772 -1.59752,0.64771c-0.28909,0.89276 0.78709,1.80702 -0.65422,2.4752c-2.45813,1.13958 -1.71655,-2.03888 -0.89769,-3.03685c1.27069,-1.10653 3.14359,-1.2394 4.75566,-1.549c2.22048,-0.42645 4.38435,-1.08334 6.57971,-1.21737c0.08249,-0.08622 0.19535,-0.14411 0.32353,-0.15569l0.58612,-0.0529c0.29539,-0.07774 0.61637,-0.15861 0.95355,-0.23507c0.87645,-0.27394 1.93099,-0.41625 2.91353,-0.50866c0.4818,-0.09462 0.9333,-0.1389 1.30669,-0.10536c0.27388,-0.02025 0.5286,-0.03932 0.7561,-0.05986l0.61787,-0.05577c0.28142,-0.0254 0.53014,0.18214 0.55554,0.46356c0.0226,0.25047 -0.13931,0.47504 -0.37361,0.53931l-0.32968,0.09745c0.145,0.12181 0.27656,0.26112 0.39244,0.4197l0.23414,-0.11908l0.29765,0.58522c0.03177,0.05903 0.05238,0.12532 0.05879,0.19629c0.0254,0.28142 -0.18214,0.53014 -0.46355,0.55553c-0.08558,0.00772 -0.16814,-0.00609 -0.24232,-0.03698l-0.50702,-0.19878l0.00585,-0.01492l-0.04787,-0.00377c-0.36209,-0.22374 -0.73047,-0.39249 -1.09838,-0.50678c-0.55947,-0.02006 -1.148,-0.08122 -1.74789,-0.1302c-1.01464,0.1745 -1.9334,0.80247 -2.5904,1.87097c0,0 -0.26893,0.43524 -0.70416,0.1663c-0.43523,-0.26893 -0.1663,-0.70417 -0.1663,-0.70417c0.0575,-0.09265 0.11686,-0.18277 0.17799,-0.27034l-0.28392,0.09053c-0.03801,0.01299 -0.07817,0.02169 -0.11996,0.02546c-0.28142,0.0254 -0.53014,-0.18214 -0.55553,-0.46356c-0.01286,-0.14243 0.03395,-0.27647 0.11981,-0.37743c-0.2451,0.00049 -0.4766,0.01384 -0.6735,0.06241c-1.37524,0.33924 -3.48763,0.45199 -5.48058,0.75785c0.01121,0.24126 -0.14794,0.45435 -0.37516,0.51668l-0.59763,0.17665l-0.00571,-0.01931l-0.00747,0.00194z" fill="url(#color-5)" stroke="none" stroke-width="0.5"/><path d="M248.26401,131.01114c2.70896,-0.28418 2.68558,-0.24349 2.90043,1.58673c0.21485,1.83022 -0.78194,3.36186 -2.22639,3.42102c-1.44446,0.05917 -2.7896,-1.37656 -3.00445,-3.20678c-0.21485,-1.83022 -0.20983,-1.53449 2.33041,-1.80097z" data-paper-data="{&quot;index&quot;:null}" fill="url(#color-6)" stroke="#000000" stroke-width="0"/><path d="M241.64399,133.692c0.35755,1.99142 -1.17444,3.9329 -3.4218,4.33639c-2.24735,0.40349 -4.35904,-0.88377 -4.71659,-2.8752c-0.35755,-1.99142 -0.40888,-2.02662 3.87102,-2.60142c4.01334,-0.53901 3.90982,-0.85119 4.26737,1.14023z" fill="url(#color-7)" stroke="#000000" stroke-width="0"/></g><path d="M229.63979,194.15316c0,0 0.16709,-5.5597 -0.35268,-10.94382c-0.35317,-3.65847 -1.40473,-6.95919 -1.56162,-9.45339c-0.29447,-4.68133 -0.2105,-13.38223 -0.2105,-13.38223c0,0 3.69178,-0.58477 5.4694,-0.21857c2.26281,0.46615 7.00656,2.78867 7.00656,2.78867c0,0 3.67689,-2.17061 5.59031,-2.58687c2.01891,-0.43921 6.22369,0.01677 6.22369,0.01677c0,0 -0.06905,9.21711 -0.22689,12.65629c-0.13965,3.04285 -0.88957,6.36811 -1.18346,10.87293c-0.3029,4.64296 -0.14784,10.42155 -0.14784,10.42155c0,0 -2.75697,-0.76932 -5.57187,-0.83754c-1.27833,-0.03098 -1.79126,1.00612 -2.99851,1.16532c-0.96496,0.12724 -2.63623,-0.61291 -3.56107,-0.64966c-0.69915,-0.02778 -2.04377,-0.5306 -2.53801,-0.53471c-0.99795,-0.0083 -1.61572,0.86529 -2.77345,1.02464c-1.34484,0.1851 -3.1641,-0.33939 -3.1641,-0.33939z" fill="#d0d0d0" stroke="#292e32" stroke-width="0" stroke-linecap="butt"/><path d="M242.73589,171.06885l-0.12126,-5.82045l7.63934,0.36378v5.21415z" fill="#f200ff" stroke="none" stroke-width="0" stroke-linecap="butt"/><g stroke="#000000" stroke-width="0" stroke-linecap="butt"><path d="M216.53104,189.10982c0,0 0.77569,-2.06549 1.34233,-5.60119c0.34033,-2.12358 0.7099,-5.62574 0.92506,-6.41296c0.47996,-1.75617 0.08001,-2.77811 0.44049,-3.89811c0.88574,-2.75204 2.35637,-7.4461 2.35637,-7.4461c0,0 0.36871,-7.93082 7.55894,-5.30045c1.14787,0.41991 -0.98712,7.23961 -0.98712,7.23961c0,0 -0.96762,3.30276 -1.80074,5.89119c-0.38734,1.20346 -1.14849,3.10968 -1.83534,5.05612c-0.2902,0.82241 -0.97132,3.50056 -1.24472,4.30381c-1.13697,3.34025 -0.93025,6.38083 -0.93025,6.38083z" fill="#bdbdbd"/><path d="M215.83916,193.80859c-0.54567,-0.02752 0.67953,-4.58168 0.67953,-4.58168c0,0 1.98116,-0.61819 2.93879,-0.58559c0.98354,0.03348 2.88676,0.78394 2.88676,0.78394c0,0 -0.12242,1.17479 0.29307,2.02435c0.71111,1.45407 1.65282,3.02949 0.88818,4.12749c-0.41489,0.59577 -0.92474,-2.19732 -1.22046,-1.95477c-0.05262,0.04317 -0.68126,4.44154 -1.12135,4.57831c-0.71894,0.22342 -0.35027,-4.31272 -0.63061,-3.6611c-0.57544,1.33753 -0.47823,4.50945 -1.05659,4.59131c-0.9743,0.13792 0.16176,-5.41828 -0.17069,-5.02253c-0.62104,0.73927 -0.74948,4.18744 -1.25171,4.2818c-1.46287,0.27479 0.01893,-4.27992 -0.42968,-3.89941c-0.84748,0.71884 -0.69594,3.18764 -1.22942,3.12785c-1.08462,-0.12154 -0.31822,-3.79696 -0.57579,-3.80994z" data-paper-data="{&quot;index&quot;:null}" fill="#777777"/></g></g></g></svg>