<svg version="1.1" xmlns="http://www.w3.org/2000/svg" xmlns:xlink="http://www.w3.org/1999/xlink" width="94.32723" height="104.64001" viewBox="0,0,94.32723,104.64001"><defs><linearGradient x1="238.82988" y1="156.10689" x2="239.0662" y2="162.95387" gradientUnits="userSpaceOnUse" id="color-1"><stop offset="0" stop-color="#c28b5f"/><stop offset="1" stop-color="#ffb87d"/></linearGradient><radialGradient cx="234.01483" cy="133.6074" r="13.11833" gradientUnits="userSpaceOnUse" id="color-2"><stop offset="0" stop-color="#ffd9ba"/><stop offset="1" stop-color="#ffb87d"/></radialGradient><radialGradient cx="228.55476" cy="134.13513" r="10.07074" gradientUnits="userSpaceOnUse" id="color-3"><stop offset="0" stop-color="#303030"/><stop offset="1" stop-color="#292929"/></radialGradient><radialGradient cx="244.92718" cy="130.68006" r="2.65078" gradientUnits="userSpaceOnUse" id="color-4"><stop offset="0" stop-color="#787878"/><stop offset="1" stop-color="#292929"/></radialGradient><radialGradient cx="233.81279" cy="133.03192" r="4.17314" gradientUnits="userSpaceOnUse" id="color-5"><stop offset="0" stop-color="#a7a7a7"/><stop offset="1" stop-color="#292929"/></radialGradient><linearGradient x1="260.08246" y1="192.35236" x2="268.04639" y2="183.42842" gradientUnits="userSpaceOnUse" id="color-6"><stop offset="0" stop-color="#242424"/><stop offset="1" stop-color="#373737"/></linearGradient><radialGradient cx="256.7656" cy="191.15653" r="3.52256" gradientUnits="userSpaceOnUse" id="color-7"><stop offset="0" stop-color="#bfbfbf"/><stop offset="1" stop-color="#9a9a9a"/></radialGradient><linearGradient x1="269.63592" y1="184.00587" x2="307.21763" y2="158.46965" gradientUnits="userSpaceOnUse" id="color-8"><stop offset="0" stop-color="#b2b2b2"/><stop offset="1" stop-color="#c4c4c4"/></linearGradient><linearGradient x1="270.08571" y1="184.13475" x2="294.68359" y2="167.42087" gradientUnits="userSpaceOnUse" id="color-9"><stop offset="0" stop-color="#cccccc"/><stop offset="1" stop-color="#d8d8d8"/></linearGradient><linearGradient x1="267.3247" y1="185.09099" x2="269.36709" y2="183.75536" gradientUnits="userSpaceOnUse" id="color-10"><stop offset="0" stop-color="#b5b5b5"/><stop offset="1" stop-color="#c5c5c5"/></linearGradient></defs><g transform="translate(-218.87308,-129.68637)"><g data-paper-data="{&quot;isPaintingLayer&quot;:true}" fill-rule="nonzero" stroke-linejoin="miter" stroke-miterlimit="10" stroke-dasharray="" stroke-dashoffset="0" style="mix-blend-mode: normal"><g stroke-linecap="butt"><path d="M235.2404,163.08592l-0.23632,-6.84697l7.65159,-0.2641l0.23632,6.84697z" fill="url(#color-1)" stroke="#000000" stroke-width="0"/><path d="M251.45515,143.24115c0.26668,7.72632 -5.25146,14.18766 -12.32511,14.43181c-7.07364,0.24415 -13.02416,-5.82135 -13.29084,-13.54767c-0.26668,-7.72632 5.25146,-14.18765 12.32511,-14.4318c7.07364,-0.24415 13.02416,5.82134 13.29084,13.54766z" fill="url(#color-2)" stroke="none" stroke-width="0"/><path d="M238.87981,145.04456c-0.50676,0.93153 -1.45136,0.43416 -1.45136,0.43416c-0.95359,-0.52464 -2.54632,-1.08855 -2.4465,-2.61326c0.08156,-1.24603 2.10686,-2.41408 3.20582,-2.21896c1.99358,0.35397 3.81825,3.8213 0.69204,4.39807z" fill="#191412" stroke="none" stroke-width="0.5"/><path d="M243.37636,149.07877c0.13129,-0.47344 0.46628,-0.58682 0.71587,-0.60107c0.07917,-0.00765 0.16053,-0.00389 0.24187,0.01256c-0.32519,-1.0711 -0.19193,-2.47405 -0.57618,-3.50818c0,0 -0.28275,-0.7752 0.49244,-1.05794c0.77519,-0.28275 1.05794,0.49245 1.05794,0.49245c0.46441,1.29334 0.82854,2.89234 0.84895,4.28968c0.00765,0.52365 0.30062,1.22142 -0.09163,1.56841c-0.40703,0.36007 -1.08642,-0.03051 -1.62963,-0.04577l-0.48497,-0.13448c-0.1005,-0.02787 -0.19147,-0.07317 -0.27056,-0.13174c-0.20661,-0.14075 -0.43538,-0.41047 -0.3041,-0.8839z" fill="#191412" stroke="none" stroke-width="0.5"/><path d="M249.38168,144.83739c-0.30516,0.99792 -0.90869,0.44625 -0.90869,0.44625c-0.6096,-0.58126 -1.62293,-1.21483 -1.58362,-2.85956c0.03212,-1.34411 1.2914,-2.57386 1.98757,-2.34613c1.2629,0.41312 2.46757,4.1852 0.50473,4.75943z" fill="#191412" stroke="none" stroke-width="0.5"/><g><path d="M231.24494,134.09951c-0.16956,0.01838 -0.60548,0.07238 -1.07647,0.16189c-0.5183,0.21615 -1.12389,0.43664 -1.58643,0.67443c-0.27407,0.89749 0.8173,1.79356 -0.61259,2.48583c-2.43866,1.18067 -1.75052,-2.00979 -0.94852,-3.02136c1.25194,-1.1277 3.12235,-1.29198 4.729,-1.62858c2.21301,-0.46365 4.36555,-1.15676 6.55836,-1.32761c0.08103,-0.08759 0.1929,-0.14737 0.32087,-0.1611l0.58515,-0.06273c0.29404,-0.08269 0.61362,-0.16893 0.94947,-0.25104c0.87173,-0.28861 1.92373,-0.44859 2.90458,-0.55748c0.48014,-0.10269 0.93084,-0.15454 1.30474,-0.12727c0.2735,-0.02484 0.52787,-0.04818 0.75499,-0.07254l0.61685,-0.06613c0.28095,-0.03012 0.53312,0.17322 0.56324,0.45417c0.0268,0.25006 -0.13132,0.47731 -0.36451,0.5455l-0.328,0.10297c0.14702,0.11936 0.2809,0.25644 0.39943,0.41306l0.23211,-0.12299l0.30743,0.58014c0.03276,0.05849 0.05448,0.12442 0.06208,0.19528c0.03012,0.28095 -0.17322,0.53312 -0.45416,0.56323c-0.08544,0.00915 -0.16822,-0.00327 -0.24291,-0.03291l-0.51028,-0.19024l0.0056,-0.01502l-0.04793,-0.00297c-0.36579,-0.21763 -0.73695,-0.38018 -1.10673,-0.48828c-0.55973,-0.01067 -1.1492,-0.06194 -1.74983,-0.10085c-1.01157,0.1915 -1.91966,0.8348 -2.55864,1.91417c0,0 -0.26159,0.43969 -0.70127,0.17809c-0.43968,-0.26159 -0.17809,-0.70128 -0.17809,-0.70128c0.05594,-0.0936 0.11378,-0.18471 0.17343,-0.27329l-0.28236,0.09528c-0.03779,0.01363 -0.0778,0.023 -0.11952,0.02747c-0.28095,0.03012 -0.53312,-0.17322 -0.56323,-0.45417c-0.01525,-0.14219 0.02931,-0.277 0.11346,-0.37939c-0.24506,0.0046 -0.4763,0.02184 -0.67236,0.0737c-1.36935,0.36227 -3.47955,0.51045 -5.46709,0.84971c0.01526,0.24104 -0.1403,0.45677 -0.36644,0.5229l-0.59458,0.18665l-0.00603,-0.01921l-0.00744,0.00207z" fill="url(#color-3)" stroke="none" stroke-width="0.5"/><path d="M246.27424,130.11573c2.70381,-0.3296 2.68112,-0.28852 2.92665,1.53784c0.24553,1.82636 -0.72542,3.37451 -2.16867,3.4579c-1.44326,0.0834 -2.81231,-1.32956 -3.05784,-3.15591c-0.24553,-1.82636 -0.23555,-1.53075 2.29986,-1.83982z" data-paper-data="{&quot;index&quot;:null}" fill="url(#color-4)" stroke="#000000" stroke-width="0"/><path d="M239.70014,132.90729c0.39092,1.98514 -1.10828,3.95205 -3.34855,4.3932c-2.24026,0.44114 -4.37326,-0.8105 -4.76417,-2.79565c-0.39092,-1.98514 -0.44283,-2.01947 3.82682,-2.66601c4.00373,-0.60628 3.89499,-0.91668 4.2859,1.06846z" fill="url(#color-5)" stroke="#000000" stroke-width="0"/></g></g><g stroke="#000000" stroke-width="0" stroke-linecap="butt"><path d="M266.88779,188.67838c-0.21545,0.05015 1.27953,3.38933 0.38769,3.66329c-0.43865,0.13474 -0.87777,-2.20638 -1.76173,-2.75668c-0.4679,-0.2913 1.83588,3.76836 0.53216,3.72578c-0.44757,-0.01462 -1.3493,-3.23436 -2.04592,-3.83723c-0.37291,-0.32273 1.86795,4.7285 1.01001,4.74252c-0.50928,0.00833 -1.15613,-2.98518 -1.95163,-4.15669c-0.38755,-0.57073 0.96802,3.63548 0.30696,3.53158c-0.40464,-0.06361 -1.94899,-4.10215 -2.00354,-4.13492c-0.30655,-0.18425 -0.09676,2.51428 -0.58555,2.01583c-0.90088,-0.91863 -0.46451,-2.53708 -0.19579,-4.00758c0.15701,-0.85915 -0.21691,-1.94452 -0.21691,-1.94452c0,0 -0.51728,-2.88691 -2.2431,-5.86055c-0.41501,-0.71507 -1.60312,-3.13271 -2.03676,-3.86337c-1.02631,-1.72928 -2.10649,-3.41 -2.70935,-4.4846c-1.29667,-2.31132 -2.87022,-5.27425 -2.87022,-5.27425l5.13501,-2.77504c0,0 2.31736,4.19732 3.69599,6.65469c0.56106,1.00008 0.4545,2.01831 1.26186,3.59879c0.36192,0.70849 1.47341,3.94552 2.24601,5.89149c1.28635,3.23999 2.41517,5.06825 2.41517,5.06825c0,0 2.08608,4.09697 1.62967,4.20321z" data-paper-data="{&quot;index&quot;:null}" fill="#ffb77d"/><path d="M248.20089,160.09458c4.45112,-2.84374 6.37062,0.11103 7.27104,1.8165c0.90042,1.70549 2.18276,0.65264 -1.90902,3.23863c-3.45847,2.18573 -3.10045,1.6196 -4.00087,-0.0859c-0.90042,-1.70549 -3.67922,-3.48823 -1.36114,-4.96923z" data-paper-data="{&quot;index&quot;:null}" fill="#ffffff"/></g><path d="M226.12337,227.23573l3.75904,-33.71008c0,0 6.75518,-2.18267 9.822,-2.18267c3.62872,0 10.54956,2.18267 10.54956,2.18267l3.03149,33.71008h-7.63934c0,0 -1.32697,-25.53818 -2.03751,-29.57011c-0.20138,-1.1427 -3.2979,-2.07857 -3.2979,-2.07857c0,0 -3.09204,0.08829 -3.39803,1.52409c-0.93579,4.39099 -2.78619,30.12458 -2.78619,30.12458z" fill="#726f7c" stroke="#000000" stroke-width="0" stroke-linecap="butt"/><path d="M230.02217,193.95634c0,0 -0.02479,-5.56215 -0.72998,-10.92514c-0.47916,-3.64411 -1.64395,-6.90659 -1.88678,-9.39389c-0.45577,-4.66839 -0.672,-13.367 -0.672,-13.367c0,0 3.66941,-0.71177 5.4586,-0.40711c2.27754,0.38781 7.09859,2.54532 7.09859,2.54532c0,0 3.59983,-2.29615 5.49774,-2.77817c2.00256,-0.50859 6.22057,-0.19793 6.22057,-0.19793c0,0 0.24894,9.21401 0.20983,12.65659c-0.0346,3.04585 -0.66938,6.39501 -0.80769,10.90728c-0.14256,4.65065 0.21174,10.42044 0.21174,10.42044c0,0 -2.78187,-0.67376 -5.59745,-0.64484c-1.27864,0.01314 -1.75548,1.06731 -2.95652,1.26806c-0.96,0.16045 -2.6558,-0.52161 -3.58136,-0.52643c-0.69969,-0.00364 -2.06086,-0.45978 -2.55495,-0.44685c-0.99764,0.02613 -1.58491,0.92051 -2.73646,1.11971c-1.33765,0.23138 -3.17392,-0.23004 -3.17392,-0.23004z" fill="#ffffff" stroke="#292e32" stroke-width="0" stroke-linecap="butt"/><g><path d="M259.69259,234.32551c-0.59276,0 -2.64411,0.01365 -4.70436,-0.0669c-1.25258,-0.04897 -1.90215,-0.61779 -2.83553,-0.76063c-1.17507,-0.17982 -2.93854,0.22047 -3.78778,0.02896c-1.56485,-0.35288 -2.37463,-0.77782 -2.37463,-0.77782c0,0 -0.26911,-1.0254 -0.2856,-1.5858c-0.02221,-0.75501 0.16433,-2.53701 0.16433,-2.53701c0,0 5.93425,-0.11957 8.24914,0.08076c1.36979,0.11854 4.24057,0.6468 4.24057,0.6468c0,0 1.45976,0.6156 1.67337,1.04283c0.26162,0.52325 0.87307,1.98865 0.87307,1.98865c0,0 -0.3857,1.94015 -1.21259,1.94015z" data-paper-data="{&quot;index&quot;:null}" fill="#141415" stroke="#000000" stroke-width="0" stroke-linecap="butt"/><path d="M259.4217,231.7507c-0.24822,0 0.7024,1.60165 -2.61811,1.33311c-3.13563,-0.25358 -2.77648,-1.18823 -3.8809,-1.26883c-2.30937,-0.16854 -2.58765,0.59503 -3.58732,0.44205c-0.34815,-0.05328 -0.51271,-0.11454 -1.78459,-0.97035c-0.87472,-0.58857 -0.66566,-1.75122 -1.26542,-2.3793c-0.87609,-0.91745 -0.80847,-1.8858 -0.80847,-1.8858l-0.07637,-3.04773c0,0 0.48635,2.20681 1.32529,3.03122c0.75062,0.73761 2.3169,-0.01875 2.80058,-0.01889c0.84696,-0.00024 -0.68885,-3.26804 0.12091,-3.2498c0.43542,0.00981 3.72275,-0.23409 3.72275,-0.23409c0,0 0.12302,3.57989 0.35598,3.60005c1.36979,0.11854 4.60434,0.6468 4.60434,0.6468c0,0 1.45976,0.6156 1.67338,1.04283c0.26162,0.52325 0.63055,2.95873 0.63055,2.95873c0,0 -0.3857,0 -1.2126,0z" data-paper-data="{&quot;index&quot;:null}" fill="#252527" stroke="#000000" stroke-width="0" stroke-linecap="butt"/><path d="M251.9516,228.8121l2.6677,-1.09133" fill="none" stroke="#ffffff" stroke-width="0.5" stroke-linecap="round"/><path d="M256.4382,227.72077l-2.54645,1.45511" fill="none" stroke="#ffffff" stroke-width="0.5" stroke-linecap="round"/><path d="M257.52954,227.96329l-1.45512,1.45511" fill="none" stroke="#ffffff" stroke-width="0.5" stroke-linecap="round"/><path d="M252.92167,224.68929l-2.18266,0.24252" fill="none" stroke="#969696" stroke-width="0.5" stroke-linecap="round"/><path d="M253.1642,225.41684l-1.94015,0.36378" fill="none" stroke="#969696" stroke-width="0.5" stroke-linecap="round"/></g><g data-paper-data="{&quot;index&quot;:null}"><path d="M218.87309,232.29247c0,0 0.61145,-1.46541 0.87307,-1.98866c0.21362,-0.42723 1.67337,-1.04283 1.67337,-1.04283c0,0 2.87078,-0.52826 4.24057,-0.6468c2.3149,-0.20032 8.24914,-0.08075 8.24914,-0.08075c0,0 0.18654,1.78201 0.16433,2.53701c-0.01648,0.56041 -0.2856,1.5858 -0.2856,1.5858c0,0 -0.80978,0.42493 -2.37463,0.77781c-0.84924,0.19151 -2.6127,-0.20879 -3.78777,-0.02896c-0.93338,0.14284 -1.58295,0.71166 -2.83553,0.76063c-2.06025,0.08055 -4.1116,0.06689 -4.70436,0.06689c-0.8269,0 -1.2126,-1.94015 -1.2126,-1.94015z" data-paper-data="{&quot;index&quot;:null}" fill="#141415" stroke="#000000" stroke-width="0" stroke-linecap="butt"/><path d="M219.14398,231.65781c0,0 0.36892,-2.43548 0.63055,-2.95873c0.21362,-0.42723 1.67337,-1.04283 1.67337,-1.04283c0,0 3.23456,-0.52826 4.60434,-0.6468c0.23296,-0.02016 0.35598,-3.60004 0.35598,-3.60004c0,0 3.28733,0.24389 3.72275,0.23408c0.80976,-0.01824 -0.72604,3.24957 0.12091,3.24981c0.48368,0.00014 2.04996,0.7565 2.80058,0.01889c0.83894,-0.82441 1.32529,-3.03123 1.32529,-3.03123l-0.07637,3.04773c0,0 0.06762,0.96834 -0.80847,1.8858c-0.59976,0.62808 -0.39071,1.79073 -1.26542,2.3793c-1.27187,0.85581 -1.43643,0.91707 -1.78458,0.97035c-0.99967,0.15299 -1.27796,-0.61058 -3.58733,-0.44204c-1.10442,0.0806 -0.74527,1.01524 -3.8809,1.26883c-3.3205,0.26854 -2.36989,-1.33311 -2.61811,-1.33311c-0.8269,0 -1.21259,0 -1.21259,0z" data-paper-data="{&quot;index&quot;:null}" fill="#252527" stroke="#000000" stroke-width="0" stroke-linecap="butt"/><path d="M225.15896,227.62787l2.66771,1.09134" fill="none" stroke="#ffffff" stroke-width="0.5" stroke-linecap="round"/><path d="M223.34008,227.62788l2.54644,1.45511" fill="none" stroke="#ffffff" stroke-width="0.5" stroke-linecap="round"/><path d="M223.70386,229.32551l-1.45512,-1.45512" fill="none" stroke="#ffffff" stroke-width="0.5" stroke-linecap="round"/><path d="M229.03927,224.83892l-2.18267,-0.24252" fill="none" stroke="#969696" stroke-width="0.5" stroke-linecap="round"/><path d="M226.61408,225.32395l1.94015,0.36378" fill="none" stroke="#969696" stroke-width="0.5" stroke-linecap="round"/></g><g stroke="none" stroke-width="0" stroke-linecap="butt"><path d="M260.90201,193.08376l-2.8298,-4.16119l9.15462,-6.22551l2.8298,4.1612z" fill="url(#color-6)"/><path d="M260.73996,188.97043c1.45147,1.29537 1.57809,3.52212 0.28274,4.97359c-1.29536,1.45148 -3.52212,1.57809 -4.9736,0.28273c-1.45149,-1.29536 -1.5781,-3.52212 -0.28273,-4.9736c1.29536,-1.45148 3.52212,-1.57809 4.9736,-0.28272z" fill="url(#color-7)"/><path d="M272.24986,187.85277l-5.2279,-7.69389l38.38033,-23.78291l7.79801,-2.43977l-4.93182,6.39121z" fill="url(#color-8)"/><path d="M271.79657,186.65266l-3.68035,-5.28298l32.1111,-19.77248l9.08223,-4.72304l-7.47624,6.55625z" fill="url(#color-9)"/><path d="M264.71212,172.63657c0,0 2.6861,7.5423 4.80317,10.87498c2.32446,3.65915 8.57959,10.19208 8.57959,10.19208c0,0 -8.42671,-5.40368 -10.68115,-8.9526c-2.2054,-3.47171 -2.70158,-12.11449 -2.70158,-12.11449z" fill="url(#color-10)"/></g><g stroke="#000000" stroke-width="0" stroke-linecap="butt"><path d="M249.1548,188.33125c0,0 -1.78863,-1.87907 -5.24036,-4.29011c-2.07316,-1.44807 -5.59032,-3.63335 -6.31327,-4.26433c-1.61277,-1.40764 -2.89921,-1.50788 -3.8999,-2.46316c-2.45885,-2.34728 -6.67344,-6.30844 -6.67344,-6.30844l5.41899,-5.9619c0,0 2.99976,2.71605 5.31243,4.9238c1.07525,1.02646 2.70276,2.80856 4.41092,4.53266c0.72174,0.72845 3.20721,2.8213 3.91727,3.52214c2.95268,2.9145 6.27659,4.25336 6.27659,4.25336c0,0 1.17882,0.73429 2.29081,0.73255c1.90322,-0.00299 4.05344,-0.1873 4.82041,1.18638c0.41614,0.74534 -2.79889,-0.15389 -2.69478,0.28363c0.01852,0.07784 4.34432,3.00709 4.26226,3.54273c-0.13403,0.87502 -4.73927,-1.85035 -4.19478,-1.21851c1.1176,1.29698 4.52061,2.82745 4.30936,3.48097c-0.35588,1.10091 -5.64426,-2.96086 -5.39712,-2.40565c0.46171,1.03715 4.04055,2.94838 3.88172,3.52784c-0.46274,1.68785 -4.51448,-2.22373 -4.34322,-1.5536c0.32352,1.266 3.01125,2.37699 2.67337,2.91014c-0.68697,1.08398 -4.17757,-1.61868 -4.32391,-1.35309c-0.31006,0.56264 -4.49331,-3.07744 -4.49331,-3.07744z" fill="#ffb77d"/><path d="M231.25305,163.5364c1.73259,1.55225 2.56504,1.2214 -1.46202,5.1729c-4.7645,4.67512 -2.97494,3.26576 -4.70756,1.71353c-1.73259,-1.55225 -4.59352,-4.7046 0.62688,-9.78318c2.71871,-2.64484 3.8101,1.34451 5.54271,2.89675z" fill="#ffffff"/></g></g></g></svg>