<svg version="1.1" xmlns="http://www.w3.org/2000/svg" xmlns:xlink="http://www.w3.org/1999/xlink" width="200.5678" height="237.99372" viewBox="0,0,200.5678,237.99372"><defs><radialGradient cx="255.26185" cy="146.02509" r="84.99897" gradientUnits="userSpaceOnUse" id="color-1"><stop offset="0" stop-color="#736445" stop-opacity="0.31804"/><stop offset="1" stop-color="#736445" stop-opacity="0"/></radialGradient><radialGradient cx="255.26185" cy="146.025" r="69.00684" gradientUnits="userSpaceOnUse" id="color-2"><stop offset="0" stop-color="#ebcb73" stop-opacity="0.62189"/><stop offset="1" stop-color="#ebcb73" stop-opacity="0"/></radialGradient><radialGradient cx="255.26185" cy="146.02509" r="58.41994" gradientUnits="userSpaceOnUse" id="color-3"><stop offset="0" stop-color="#ffb74f"/><stop offset="1" stop-color="#ffb74f" stop-opacity="0"/></radialGradient><radialGradient cx="255.26185" cy="146.02509" r="48.039" gradientUnits="userSpaceOnUse" id="color-4"><stop offset="0" stop-color="#ff8c1f"/><stop offset="1" stop-color="#ff9d40"/></radialGradient><radialGradient cx="298.72775" cy="230.30693" r="27.7112" gradientUnits="userSpaceOnUse" id="color-5"><stop offset="0" stop-color="#734545" stop-opacity="0.30998"/><stop offset="1" stop-color="#734545" stop-opacity="0"/></radialGradient><radialGradient cx="298.72775" cy="230.30693" r="22.49753" gradientUnits="userSpaceOnUse" id="color-6"><stop offset="0" stop-color="#eb7373" stop-opacity="0.62996"/><stop offset="1" stop-color="#eb7373" stop-opacity="0"/></radialGradient><radialGradient cx="298.72775" cy="230.30693" r="19.04594" gradientUnits="userSpaceOnUse" id="color-7"><stop offset="0" stop-color="#ff4f4f"/><stop offset="1" stop-color="#ff4f4f" stop-opacity="0"/></radialGradient><radialGradient cx="298.72775" cy="230.30693" r="15.66161" gradientUnits="userSpaceOnUse" id="color-8"><stop offset="0" stop-color="#ea3939"/><stop offset="1" stop-color="#bd4b4b"/></radialGradient><radialGradient cx="196.93509" cy="241.77779" r="57.21907" gradientUnits="userSpaceOnUse" id="color-9"><stop offset="0" stop-color="#735545" stop-opacity="0.30645"/><stop offset="1" stop-color="#735545" stop-opacity="0"/></radialGradient><radialGradient cx="196.93509" cy="241.77779" r="46.4536" gradientUnits="userSpaceOnUse" id="color-10"><stop offset="0" stop-color="#ea9d73" stop-opacity="0.62903"/><stop offset="1" stop-color="#ea9d73" stop-opacity="0"/></radialGradient><radialGradient cx="196.93509" cy="241.77779" r="39.32679" gradientUnits="userSpaceOnUse" id="color-11"><stop offset="0" stop-color="#ff8c4e"/><stop offset="1" stop-color="#ff8c4e" stop-opacity="0"/></radialGradient><radialGradient cx="196.93509" cy="241.77779" r="32.33856" gradientUnits="userSpaceOnUse" id="color-12"><stop offset="0" stop-color="#ff631f"/><stop offset="1" stop-color="#ff8340"/></radialGradient></defs><g transform="translate(-139.7161,-61.00314)"><g data-paper-data="{&quot;isPaintingLayer&quot;:true}" fill-rule="nonzero" stroke="none" stroke-width="0.5" stroke-linecap="butt" stroke-linejoin="miter" stroke-miterlimit="10" stroke-dasharray="" stroke-dashoffset="0" style="mix-blend-mode: normal"><path d="M228.23574,65.43725c44.50733,-14.92606 92.6879,9.0543 107.61405,53.56181c14.92606,44.50733 -9.0543,92.6879 -53.56181,107.61405c-44.50733,14.92606 -92.6879,-9.0543 -107.61405,-53.56181c-14.92606,-44.50733 9.0543,-92.6879 53.56181,-107.61405z" fill="url(#color-1)"/><path d="M233.32057,80.59931c36.13351,-12.11775 75.24911,7.35072 87.36696,43.48441c12.11775,36.13351 -7.35072,75.24911 -43.48441,87.36696c-36.13351,12.11775 -75.24911,-7.35072 -87.36696,-43.48441c-12.11775,-36.13351 7.35072,-75.24911 43.48441,-87.36696z" fill="url(#color-2)"/><path d="M236.68676,90.63691c30.59002,-10.2587 63.70458,6.22305 73.96337,36.81308c10.2587,30.59002 -6.22305,63.70458 -36.81308,73.96337c-30.59002,10.2587 -63.70458,-6.22305 -73.96337,-36.81308c-10.2587,-30.59002 6.22305,-63.70458 36.81308,-73.96337z" fill="url(#color-3)"/><path d="M239.98747,100.47922c25.15424,-8.43576 52.38459,5.11716 60.82044,30.27159c8.43576,25.15424 -5.11716,52.38459 -30.27159,60.82044c-25.15424,8.43576 -52.38459,-5.11716 -60.82044,-30.27159c-8.43576,-25.15424 5.11716,-52.38459 30.27159,-60.82044z" fill="url(#color-4)"/><path d="M289.91677,204.03388c14.5102,-4.86617 30.21796,2.95186 35.08413,17.46216c4.86617,14.5102 -2.95186,30.21796 -17.46216,35.08413c-14.5102,4.86617 -30.21796,-2.95186 -35.08413,-17.46216c-4.86617,-14.5102 2.95186,-30.21796 17.46216,-35.08413z" fill="url(#color-5)"/><path d="M291.57449,208.97697c11.78017,-3.95059 24.53264,2.39643 28.48332,14.1767c3.95059,11.78017 -2.39643,24.53264 -14.1767,28.48332c-11.78017,3.95059 -24.53264,-2.39643 -28.48332,-14.1767c-3.95059,-11.78017 2.39643,-24.53264 14.1767,-28.48332z" fill="url(#color-6)"/><path d="M292.6719,212.24934c9.97286,-3.34451 20.76884,2.02879 24.11335,12.00173c3.34451,9.97286 -2.02879,20.76884 -12.00173,24.11335c-9.97286,3.34451 -20.76884,-2.02879 -24.11335,-12.00173c-3.34451,-9.97286 2.02879,-20.76884 12.00173,-24.11335z" fill="url(#color-7)"/><path d="M293.74801,215.45815c8.20075,-2.75025 17.07837,1.66828 19.82862,9.86912c2.75025,8.20075 -1.66828,17.07837 -9.86912,19.82862c-8.20075,2.75025 -17.07837,-1.66828 -19.82862,-9.86912c-2.75025,-8.20075 1.66828,-17.07837 9.86912,-19.82862z" fill="url(#color-8)"/><path d="M139.7161,241.77779c0,-31.60113 25.61786,-57.21907 57.21907,-57.21907c31.60113,0 57.21907,25.61786 57.21907,57.21907c0,31.60113 -25.61786,57.21907 -57.21907,57.21907c-31.60113,0 -57.21907,-25.61786 -57.21907,-57.21907z" fill="url(#color-9)"/><path d="M150.48157,241.77779c0,-25.65551 20.79791,-46.4536 46.4536,-46.4536c25.65551,0 46.4536,20.79791 46.4536,46.4536c0,25.65551 -20.79791,46.4536 -46.4536,46.4536c-25.65551,0 -46.4536,-20.79791 -46.4536,-46.4536z" fill="url(#color-10)"/><path d="M157.60838,241.77779c0,-21.71954 17.60715,-39.32679 39.32679,-39.32679c21.71954,0 39.32679,17.60715 39.32679,39.32679c0,21.71954 -17.60715,39.32679 -39.32679,39.32679c-21.71954,0 -39.32679,-17.60715 -39.32679,-39.32679z" fill="url(#color-11)"/><path d="M164.59661,241.77779c0,-17.86005 14.47842,-32.33856 32.33856,-32.33856c17.86005,0 32.33856,14.47842 32.33856,32.33856c0,17.86005 -14.47842,32.33856 -32.33856,32.33856c-17.86005,0 -32.33856,-14.47842 -32.33856,-32.33856z" fill="url(#color-12)"/></g></g></svg>