<svg version="1.1" xmlns="http://www.w3.org/2000/svg" xmlns:xlink="http://www.w3.org/1999/xlink" width="116.48989" height="118.91739" viewBox="0,0,116.48989,118.91739"><defs><linearGradient x1="273.46118" y1="192.50065" x2="285.37673" y2="191.46121" gradientUnits="userSpaceOnUse" id="color-1"><stop offset="0" stop-color="#242424"/><stop offset="1" stop-color="#373737"/></linearGradient><radialGradient cx="271.86562" cy="189.35648" r="3.52256" gradientUnits="userSpaceOnUse" id="color-2"><stop offset="0" stop-color="#bfbfbf"/><stop offset="1" stop-color="#9a9a9a"/></radialGradient><linearGradient x1="286.13838" y1="192.97114" x2="331.00654" y2="200.13568" gradientUnits="userSpaceOnUse" id="color-3"><stop offset="0" stop-color="#b2b2b2"/><stop offset="1" stop-color="#c4c4c4"/></linearGradient><linearGradient x1="286.37754" y1="193.37326" x2="315.74451" y2="198.06262" gradientUnits="userSpaceOnUse" id="color-4"><stop offset="0" stop-color="#cccccc"/><stop offset="1" stop-color="#d8d8d8"/></linearGradient><linearGradient x1="283.71171" y1="192.17716" x2="286.11431" y2="192.60446" gradientUnits="userSpaceOnUse" id="color-5"><stop offset="0" stop-color="#b5b5b5"/><stop offset="1" stop-color="#c5c5c5"/></linearGradient><linearGradient x1="241.64187" y1="149.42847" x2="241.4115" y2="156.27568" gradientUnits="userSpaceOnUse" id="color-6"><stop offset="0" stop-color="#736b4f"/><stop offset="1" stop-color="#bec286"/></linearGradient><linearGradient x1="241.7207" y1="195.51378" x2="253.34344" y2="192.69004" gradientUnits="userSpaceOnUse" id="color-7"><stop offset="0" stop-color="#242424"/><stop offset="1" stop-color="#373737"/></linearGradient><radialGradient cx="239.66942" cy="192.64606" r="3.52256" gradientUnits="userSpaceOnUse" id="color-8"><stop offset="0" stop-color="#bfbfbf"/><stop offset="1" stop-color="#9a9a9a"/></radialGradient><linearGradient x1="254.32399" y1="194.0679" x2="299.75944" y2="194.38703" gradientUnits="userSpaceOnUse" id="color-9"><stop offset="0" stop-color="#b2b2b2"/><stop offset="1" stop-color="#c4c4c4"/></linearGradient><linearGradient x1="254.62104" y1="194.42937" x2="284.3593" y2="194.63829" gradientUnits="userSpaceOnUse" id="color-10"><stop offset="0" stop-color="#cccccc"/><stop offset="1" stop-color="#d8d8d8"/></linearGradient><linearGradient x1="251.80535" y1="193.64876" x2="254.2449" y2="193.70904" gradientUnits="userSpaceOnUse" id="color-11"><stop offset="0" stop-color="#b5b5b5"/><stop offset="1" stop-color="#c5c5c5"/></linearGradient><radialGradient cx="238.1891" cy="124.36078" r="13.11833" gradientUnits="userSpaceOnUse" id="color-12"><stop offset="0" stop-color="#ccbe7a"/><stop offset="1" stop-color="#948f62"/></radialGradient></defs><g transform="translate(-221.98024,-115.40904)"><g data-paper-data="{&quot;isPaintingLayer&quot;:true}" fill-rule="nonzero" stroke-linejoin="miter" stroke-miterlimit="10" stroke-dasharray="" stroke-dashoffset="0" style="mix-blend-mode: normal"><g stroke="#000000" stroke-width="0" stroke-linecap="butt"><path d="M282.9385,193.90711c-0.45551,0.23851 -2.46832,-3.0893 -3.87484,-2.84475c-0.48289,0.08395 1.94249,4.76752 1.02191,4.97248c-0.54647,0.12167 -1.83779,-2.49747 -2.83233,-3.54879c-0.48453,-0.51217 -3.19725,-4.53464 -3.19725,-4.53464c0,0 -0.8996,-2.91084 -3.10863,-5.64453c-0.53121,-0.65737 -2.09608,-2.92761 -2.64916,-3.59721c-1.30901,-1.58472 -2.67015,-3.10659 -3.44608,-4.09909c-1.66892,-2.13473 -8.96825,-12.84615 -8.96825,-12.84615l3.95412,-4.04304c0,0 3.39692,5.63712 7.47975,11.30851c3.07128,4.26628 6.79564,8.50163 8.279,10.65134c1.75559,2.5442 3.59647,6.08983 3.59647,6.08983c0,0 1.44461,2.3876 2.53558,4.4664c0.98163,1.87051 1.6483,3.44002 1.20965,3.66971z" data-paper-data="{&quot;index&quot;:null}" fill="#8b8560"/><path d="M251.69292,155.87014c4.40044,-4.0214 6.84418,-1.37834 8.03224,0.1959c1.18806,1.57424 2.42529,0.17118 -1.6236,3.83841c-3.42222,3.09962 -3.11232,2.42296 -4.30038,0.84869c-1.18806,-1.57424 -4.39993,-2.78871 -2.10825,-4.88301z" data-paper-data="{&quot;index&quot;:null}" fill="#42352d"/></g><g stroke="none" stroke-width="0" stroke-linecap="butt"><path d="M273.55663,193.59495l0.79158,-4.96957l10.93303,1.74149l-0.7916,4.96958z" fill="url(#color-1)"/><path d="M276.25796,190.48875c0.16906,1.93808 -1.265,3.64628 -3.20309,3.81535c-1.93809,0.16907 -3.6463,-1.265 -3.81536,-3.20312c-0.16908,-1.93807 1.265,-3.6463 3.20309,-3.81535c1.93809,-0.16907 3.6463,1.265 3.81536,3.20312z" fill="url(#color-2)"/><path d="M285.405,197.56393l1.46676,-9.18559l44.24795,8.98862l7.35042,3.56832l-7.97173,1.27348z" fill="url(#color-3)"/><path d="M285.89754,196.37935l0.94114,-6.3694l36.93419,7.61183l9.85048,2.78596l-9.93761,-0.35034z" fill="url(#color-4)"/><path d="M290.34572,181.31768c0,0 -3.21368,7.33307 -3.95637,11.21085c-0.81545,4.25765 -0.73848,13.30196 -0.73848,13.30196c0,0 -2.43224,-9.71048 -1.64133,-13.83988c0.77368,-4.03956 6.3362,-10.67295 6.3362,-10.67295z" fill="url(#color-5)"/></g><g><path d="M225.92438,227.14044l4.20132,-33.65782c0,0 6.78326,-2.09379 9.84981,-2.05352c3.6284,0.04764 0.55053,4.25166 0.55053,4.25166c0,0 -3.09293,0.04769 -3.41775,1.47935c-0.99336,4.37832 -3.18147,30.0854 -3.18147,30.0854z" fill="#a69b98" stroke="#000000" stroke-width="0" stroke-linecap="butt"/><path d="M241.20948,232.25041c0,0 -0.41114,1.93492 -1.23797,1.92406c-0.5927,-0.00778 -2.64406,-0.02105 -4.70308,-0.12865c-1.25183,-0.06541 -1.89387,-0.64271 -2.8253,-0.7978c-1.17261,-0.19524 -2.94117,0.18187 -3.78783,-0.02078c-1.56008,-0.3734 -2.36421,-0.80893 -2.36421,-0.80893c0,0 -0.25563,-1.02883 -0.26475,-1.58941c-0.01229,-0.75523 0.19763,-2.53463 0.19763,-2.53463c0,0 5.9353,-0.04164 8.24737,0.18905c1.36812,0.13652 4.23171,0.70242 4.23171,0.70242c0,0 1.45154,0.63472 1.65954,1.06472c0.25472,0.52664 0.84688,1.99995 0.84688,1.99995z" data-paper-data="{&quot;index&quot;:null}" fill="#141415" stroke="#000000" stroke-width="0" stroke-linecap="butt"/><path d="M240.94693,231.61226c0,0 -0.38566,-0.00506 -1.21248,-0.01592c-0.2482,-0.00326 0.6813,1.61073 -2.63539,1.29862c-3.13203,-0.29474 -2.76064,-1.22458 -3.8639,-1.31967c-2.30696,-0.19884 -2.59525,0.56101 -3.59282,0.39491c-0.34742,-0.05784 -0.51116,-0.12127 -1.77168,-0.9937c-0.86691,-0.60001 -0.6426,-1.75981 -1.23407,-2.39571c-0.86397,-0.92889 -0.78364,-1.89625 -0.78364,-1.89625l-0.03635,-3.04847c0,0 0.45734,2.21301 1.28538,3.04836c0.74087,0.7474 2.31695,0.01167 2.80058,0.01789c0.84688,0.01088 -0.64588,-3.27682 0.16356,-3.24794c0.43525,0.01552 3.7255,-0.18518 3.7255,-0.18518c0,0 0.07601,3.58119 0.30869,3.6044c1.36811,0.13652 4.59545,0.7072 4.59545,0.7072c0,0 1.45154,0.63472 1.65954,1.06472c0.25473,0.52664 0.59165,2.96675 0.59165,2.96675z" data-paper-data="{&quot;index&quot;:null}" fill="#252527" stroke="#000000" stroke-width="0" stroke-linecap="butt"/><path d="M234.98538,227.50372l-2.6818,1.05622" data-paper-data="{&quot;index&quot;:null}" fill="none" stroke="#ffffff" stroke-width="0.5" stroke-linecap="round"/><path d="M236.8041,227.52761l-2.56532,1.42155" data-paper-data="{&quot;index&quot;:null}" fill="none" stroke="#ffffff" stroke-width="0.5" stroke-linecap="round"/><path d="M236.41807,229.22029l1.4741,-1.43589" data-paper-data="{&quot;index&quot;:null}" fill="none" stroke="#ffffff" stroke-width="0.5" stroke-linecap="round"/><path d="M233.32769,224.45024l-2.18566,0.21384" data-paper-data="{&quot;index&quot;:null}" fill="none" stroke="#969696" stroke-width="0.5" stroke-linecap="round"/><path d="M231.61587,225.51918l1.94476,-0.33827" data-paper-data="{&quot;index&quot;:null}" fill="none" stroke="#969696" stroke-width="0.5" stroke-linecap="round"/></g><g><path d="M239.70444,191.34303c3.62872,0 10.54956,2.18267 10.54956,2.18267l3.03149,33.71008h-7.63934c0,0 -1.32697,-25.53818 -2.03751,-29.57011c-0.20138,-1.1427 -3.2979,-2.07857 -3.2979,-2.07857c0,0 -3.67312,-4.24407 -0.6063,-4.24407z" fill="#a69b98" stroke="#000000" stroke-width="0" stroke-linecap="butt"/><path d="M259.69262,234.32556c-0.59276,0 -2.64411,0.01365 -4.70436,-0.0669c-1.25258,-0.04897 -1.90215,-0.61779 -2.83553,-0.76063c-1.17507,-0.17982 -2.93854,0.22047 -3.78778,0.02896c-1.56485,-0.35288 -2.37463,-0.77782 -2.37463,-0.77782c0,0 -0.26911,-1.0254 -0.2856,-1.5858c-0.02221,-0.75501 0.16433,-2.53701 0.16433,-2.53701c0,0 5.93425,-0.11957 8.24914,0.08076c1.36979,0.11854 4.24057,0.6468 4.24057,0.6468c0,0 1.45976,0.6156 1.67337,1.04283c0.26162,0.52325 0.87307,1.98865 0.87307,1.98865c0,0 -0.3857,1.94015 -1.21259,1.94015z" data-paper-data="{&quot;index&quot;:null}" fill="#141415" stroke="#000000" stroke-width="0" stroke-linecap="butt"/><path d="M259.4217,231.7508c-0.24822,0 0.7024,1.60165 -2.61811,1.33311c-3.13563,-0.25358 -2.77648,-1.18823 -3.8809,-1.26883c-2.30937,-0.16854 -2.58765,0.59503 -3.58732,0.44205c-0.34815,-0.05328 -0.51271,-0.11454 -1.78459,-0.97035c-0.87472,-0.58857 -0.66566,-1.75122 -1.26542,-2.3793c-0.87609,-0.91745 -0.80847,-1.8858 -0.80847,-1.8858l-0.07637,-3.04773c0,0 0.48635,2.20681 1.32529,3.03122c0.75062,0.73761 2.3169,-0.01875 2.80058,-0.01889c0.84696,-0.00024 -0.68885,-3.26804 0.12091,-3.2498c0.43542,0.00981 3.72275,-0.23409 3.72275,-0.23409c0,0 0.12302,3.57989 0.35598,3.60005c1.36979,0.11854 4.60434,0.6468 4.60434,0.6468c0,0 1.45976,0.6156 1.67338,1.04283c0.26162,0.52325 0.63055,2.95873 0.63055,2.95873c0,0 -0.3857,0 -1.2126,0z" data-paper-data="{&quot;index&quot;:null}" fill="#252527" stroke="#000000" stroke-width="0" stroke-linecap="butt"/><path d="M254.61933,227.72082l-2.6677,1.09133" fill="none" stroke="#ffffff" stroke-width="0.5" stroke-linecap="round"/><path d="M253.89178,229.17593l2.54645,-1.45511" fill="none" stroke="#ffffff" stroke-width="0.5" stroke-linecap="round"/><path d="M257.52957,227.96337l-1.45512,1.45511" fill="none" stroke="#ffffff" stroke-width="0.5" stroke-linecap="round"/><path d="M252.9217,224.68934l-2.18266,0.24252" fill="none" stroke="#969696" stroke-width="0.5" stroke-linecap="round"/><path d="M251.22408,225.78071l1.94015,-0.36378" fill="none" stroke="#969696" stroke-width="0.5" stroke-linecap="round"/></g><path d="M237.55873,156.94523l0.2572,-7.64545l7.65183,0.25741l-0.37892,7.86969z" fill="url(#color-6)" stroke="#000000" stroke-width="0" stroke-linecap="butt"/><g stroke="#000000" stroke-width="0" stroke-linecap="butt"><path d="M277.21233,196.92526c-0.43686,0.18992 -2.23636,-2.80432 -2.97409,-3.29537c-0.39492,-0.26288 1.31704,4.43177 0.44917,4.56107c-0.51519,0.07675 -1.57458,-2.41193 -2.44299,-3.44141c-0.42308,-0.50154 -2.72901,-4.37038 -2.72901,-4.37038c0,0 -0.67899,-2.73154 -2.5862,-5.38424c-0.45863,-0.6379 -1.79158,-2.82361 -2.26992,-3.47413c-1.13208,-1.53958 -2.31612,-3.02478 -2.98427,-3.98622c-1.43713,-2.06789 -7.64801,-12.37509 -7.64801,-12.37509l3.89961,-3.46059c0,0 2.85492,5.39594 6.34633,10.86722c2.6264,4.1158 5.86222,8.24501 7.12585,10.31477c1.49553,2.44958 3.01606,5.82454 3.01606,5.82454c0,0 1.21469,2.28581 2.11697,4.26529c0.81188,1.78114 1.10122,3.77165 0.68055,3.95453z" data-paper-data="{&quot;index&quot;:null}" fill="#979068"/><path d="M250.44707,159.47646c4.31377,-3.41213 6.44439,-0.82764 7.46449,0.6946c1.02008,1.52223 2.24776,0.31264 -1.7196,3.42194c-3.35333,2.62808 -3.02814,2.02632 -4.04824,0.50409c-1.02008,-1.52223 -3.94319,-2.84361 -1.69665,-4.62062z" data-paper-data="{&quot;index&quot;:null}" fill="#4a3c33"/></g><path d="M230.05418,193.23975c0,0 1.2206,-4.93007 0.88216,-10.32863c-0.10538,-1.6809 -0.02163,-5.69289 -0.46269,-7.56176c-0.52148,-2.20965 -2.43922,-2.86145 -2.47876,-4.21484c-0.07806,-2.67335 -0.84098,-6.82583 -0.03389,-11.37881c0.60841,-3.43215 3.66833,-6.17862 3.66833,-6.17862c0,0 3.99493,-0.15485 5.75923,0.27091c2.24585,0.54198 4.55461,2.6476 4.55461,2.6476c0,0 3.1518,-1.91788 5.07812,-2.26957c2.03253,-0.37109 5.4808,0.20116 5.4808,0.20116c0,0 2.50122,3.60804 2.58263,7.93227c0.07681,4.08129 -0.91697,8.44178 -1.04973,10.10814c-0.13455,1.68898 -1.5659,2.07983 -2.2748,4.20071c-0.56553,1.692 -0.72125,5.1691 -0.9188,7.16265c-0.45883,4.63016 -0.19768,10.27288 -0.19768,10.27288c0,0 -2.72955,-0.86158 -5.54056,-1.0244c-1.27657,-0.07394 -1.82407,0.94532 -3.036,1.06385c-0.96868,0.09472 -2.61413,-0.70121 -3.5372,-0.76903c-0.69782,-0.05127 -2.02478,-0.59901 -2.5186,-0.61974c-0.9971,-0.04184 -1.64389,0.81047 -2.80634,0.93081c-1.35031,0.13979 -3.1509,-0.44557 -3.1509,-0.44557z" fill="#4f4037" stroke="#292e32" stroke-width="0" stroke-linecap="butt"/><g stroke="#000000" stroke-width="0" stroke-linecap="butt"><path d="M242.42862,196.18388c-1.21321,-2.0112 -2.5018,-4.49027 -2.5018,-4.49027c0,0 -2.08013,-3.4128 -3.33495,-6.24527c-1.06022,-2.39331 -2.71039,-7.8162 -4.74478,-12.67835c-2.70444,-6.46348 -5.75439,-12.30434 -5.75439,-12.30434l5.68426,-1.45088c0,0 5.33318,11.84403 6.27886,14.39349c0.43967,1.18534 1.02009,3.15413 1.68374,5.10861c0.28041,0.8258 1.40102,3.35182 1.68277,4.15216c1.17168,3.32822 3.21415,5.59014 3.21415,5.59014c0,0 2.01834,4.42271 2.1992,5.10864c0.37127,1.40793 1.9454,3.86847 1.5404,4.28942c-0.68221,0.70911 -4.17912,-4.53476 -4.19697,-4.01821c-0.03339,0.96493 1.24003,5.18137 0.7831,5.4631c-0.44002,0.27132 -1.44191,-1.1086 -2.53355,-2.91827z" data-paper-data="{&quot;index&quot;:null}" fill="#a0986e"/><path d="M232.12513,156.92009c0.72071,1.84245 1.47953,1.9102 -3.09216,3.36739c-5.40889,1.72403 -3.51011,1.33966 -4.23085,-0.50278c-0.72071,-1.84245 -1.68507,-5.33212 4.22457,-7.18784c3.07764,-0.96642 2.37769,2.48077 3.09841,4.32321z" fill="#615046"/></g><g stroke="none" stroke-width="0" stroke-linecap="butt"><path d="M241.98003,196.58118l0.03341,-5.03211l11.0706,0.07353l-0.03345,5.03212z" fill="url(#color-7)"/><path d="M244.18225,193.10326c0.45928,1.89045 -0.70088,3.79531 -2.59138,4.25461c-1.89047,0.4593 -3.79533,-0.70089 -4.25461,-2.59137c-0.45929,-1.89046 0.70089,-3.79533 2.59138,-4.25461c1.89047,-0.4593 3.79533,0.70089 4.25461,2.59137z" fill="url(#color-8)"/><path d="M254.29129,198.71874l0.06533,-9.30174l45.0973,2.21585l7.80434,2.41952l-7.68869,2.4606z" fill="url(#color-9)"/><path d="M254.59966,197.47347l-0.02975,-6.43849l37.65956,1.95733l10.15787,1.2692l-9.87687,1.15166z" fill="url(#color-10)"/><path d="M256.72657,181.91339c0,0 -2.07157,7.7337 -2.22121,11.67912c-0.16433,4.33193 1.27511,13.26128 1.27511,13.26128c0,0 -3.86822,-9.23287 -3.70883,-13.4343c0.1559,-4.11004 4.65494,-11.50613 4.65494,-11.50613z" fill="url(#color-11)"/></g><g stroke="#000000" stroke-width="0" stroke-linecap="butt"><path d="M240.11198,200.00367c-1.20817,-2.01424 -2.49049,-4.49654 -2.49049,-4.49654c0,0 -2.07156,-3.418 -3.31923,-6.25363c-1.05421,-2.39595 -2.69071,-7.82302 -4.71289,-12.69024c-2.68819,-6.47025 -5.72343,-12.31877 -5.72343,-12.31877l5.6879,-1.43658c0,0 5.30339,11.85742 6.24264,14.40925c0.4367,1.18644 1.01216,3.15667 1.67086,5.11282c0.27834,0.82649 1.39259,3.35531 1.67233,4.15638c1.16331,3.33115 3.2001,5.59818 3.2001,5.59818c0,0 3.28532,9.32849 2.94704,9.71149c-0.98538,1.11554 -3.2953,-4.79604 -3.41548,-4.22022c-0.22703,1.08787 1.22452,5.07189 0.76688,5.35248c-0.44071,0.27018 -1.43914,-1.11224 -2.52624,-2.92463z" data-paper-data="{&quot;index&quot;:null}" fill="#ada477"/><path d="M229.84556,160.60098c0.71608,1.84426 1.47474,1.91393 -3.10062,3.35962c-5.41319,1.71041 -3.51348,1.33083 -4.22957,-0.51343c-0.71608,-1.84426 -1.67164,-5.33636 4.24263,-7.1772c3.08007,-0.95866 2.37147,2.48673 3.08755,4.33099z" fill="#615046"/></g><g><path d="M254.17558,118.21452c0,0 -0.37232,3.23376 -0.74202,4.55046c-0.3028,1.07837 -1.31586,2.77843 -1.31586,2.77843" data-paper-data="{&quot;index&quot;:null}" fill="none" stroke="#3b2c16" stroke-width="1.25" stroke-linecap="round"/><path d="M255.43989,122.39766c0,0 -0.26559,2.27085 -0.69718,3.21377c-0.45648,0.99727 -1.97123,2.61595 -1.97123,2.61595" data-paper-data="{&quot;index&quot;:null}" fill="none" stroke="#3b2c16" stroke-width="1.25" stroke-linecap="round"/><path d="M251.98295,116.37575c0,0 0.00653,3.27311 -0.18816,4.68937c-0.15947,1.15993 -0.89561,3.19378 -0.89561,3.19378" data-paper-data="{&quot;index&quot;:null}" fill="none" stroke="#3b2c16" stroke-width="1.25" stroke-linecap="round"/><path d="M254.9482,134.71065c-0.24852,7.38736 -8.76309,17.02953 -11.97659,16.98333c-6.69199,-0.09626 -13.88866,-10.45774 -13.64012,-17.84511c0.24852,-7.38736 6.18448,-13.18309 13.25833,-12.94508c7.07386,0.23797 12.60687,6.41953 12.35836,13.80689z" fill="url(#color-12)" stroke="none" stroke-width="0" stroke-linecap="butt"/><path d="M244.01455,135.42663c-0.06936,2.06175 -0.97673,3.70451 -2.02667,3.66917c-1.04993,-0.03531 -1.84484,-1.73535 -1.77548,-3.79709c0.06936,-2.06175 0.97672,-3.7045 2.02666,-3.66916c1.04993,0.03531 1.84485,1.73534 1.77549,3.79708z" fill="none" stroke="#191412" stroke-width="1.5" stroke-linecap="butt"/><path d="M248.93291,130.02725c-0.06936,2.06175 -0.97673,3.70451 -2.02666,3.66917c-1.04993,-0.03531 -1.84485,-1.73535 -1.77549,-3.79709c0.06936,-2.06175 0.97673,-3.70451 2.02667,-3.66917c1.04993,0.03531 1.84484,1.73534 1.77548,3.79709z" fill="none" stroke="#191412" stroke-width="1.5" stroke-linecap="butt"/><path d="M253.44107,135.69725c-0.06936,2.06175 -0.97672,3.70451 -2.02666,3.66917c-1.04993,-0.03531 -1.84485,-1.73535 -1.77549,-3.79709c0.06936,-2.06175 0.97672,-3.7045 2.02667,-3.66916c1.04993,0.03531 1.84484,1.73534 1.77548,3.79708z" fill="none" stroke="#191412" stroke-width="1.5" stroke-linecap="butt"/><path d="M248.51785,140.6633c-0.06936,2.06175 -0.97673,3.70451 -2.02666,3.66917c-1.04993,-0.03531 -1.84485,-1.73535 -1.77549,-3.79709c0.06936,-2.06175 0.97672,-3.7045 2.02667,-3.66916c1.04993,0.03531 1.84484,1.73534 1.77548,3.79708z" fill="none" stroke="#191412" stroke-width="1.5" stroke-linecap="butt"/><path d="M234.97393,125.28827c0,0 -1.49727,-1.78358 -1.89494,-2.88527c-0.48557,-1.34515 -0.80779,-4.60202 -0.80779,-4.60202" fill="none" stroke="#47341a" stroke-width="1.5" stroke-linecap="round"/><path d="M233.6771,127.90737c0,0 -2.31946,-1.74624 -2.97391,-2.78048c-0.61878,-0.97786 -0.85173,-3.26531 -0.85173,-3.26531" fill="none" stroke="#47341a" stroke-width="1.5" stroke-linecap="round"/><path d="M237.06588,124.1139c0,0 -1.01821,-2.09222 -1.17591,-3.2627c-0.19253,-1.42915 0.10419,-4.69216 0.10419,-4.69216" fill="none" stroke="#47341a" stroke-width="1.5" stroke-linecap="round"/></g></g></g></svg>