<svg version="1.1" xmlns="http://www.w3.org/2000/svg" xmlns:xlink="http://www.w3.org/1999/xlink" width="165.45322" height="96.64108" viewBox="0,0,165.45322,96.64108"><defs><radialGradient cx="231.48074" cy="189.13486" r="34.955" gradientUnits="userSpaceOnUse" id="color-1"><stop offset="0" stop-color="#33266a"/><stop offset="1" stop-color="#949074"/></radialGradient><linearGradient x1="266.40287" y1="180.3179" x2="258.83498" y2="187.75383" gradientUnits="userSpaceOnUse" id="color-2"><stop offset="0" stop-color="#694444"/><stop offset="1" stop-color="#98a1b9"/></linearGradient><radialGradient cx="283.68227" cy="148.98334" r="20.31544" gradientUnits="userSpaceOnUse" id="color-3"><stop offset="0" stop-color="#dcdcdc"/><stop offset="1" stop-color="#a0a0a0"/></radialGradient><radialGradient cx="276.61312" cy="144.74918" r="15.59586" gradientUnits="userSpaceOnUse" id="color-4"><stop offset="0" stop-color="#1c2f30"/><stop offset="1" stop-color="#142913"/></radialGradient><radialGradient cx="300.39625" cy="155.03778" r="4.10509" gradientUnits="userSpaceOnUse" id="color-5"><stop offset="0" stop-color="#786c41"/><stop offset="1" stop-color="#141a29"/></radialGradient><radialGradient cx="284.24535" cy="148.06154" r="6.46263" gradientUnits="userSpaceOnUse" id="color-6"><stop offset="0" stop-color="#7ba676"/><stop offset="1" stop-color="#291616"/></radialGradient><radialGradient cx="283.04418" cy="163.18803" r="15.25953" gradientUnits="userSpaceOnUse" id="color-7"><stop offset="0" stop-color="#d1ffc4"/><stop offset="1" stop-color="#2188ff"/></radialGradient><radialGradient cx="283.04418" cy="163.18803" r="15.25953" gradientUnits="userSpaceOnUse" id="color-8"><stop offset="0" stop-color="#ceffc4"/><stop offset="1" stop-color="#ff21cc"/></radialGradient><radialGradient cx="283.04418" cy="163.18803" r="15.25953" gradientUnits="userSpaceOnUse" id="color-9"><stop offset="0" stop-color="#ffe9c4"/><stop offset="1" stop-color="#4fff21"/></radialGradient><radialGradient cx="283.04418" cy="163.18803" r="15.25953" gradientUnits="userSpaceOnUse" id="color-10"><stop offset="0" stop-color="#ffe9c4"/><stop offset="1" stop-color="#4fff21"/></radialGradient><radialGradient cx="283.04417" cy="163.18803" r="15.25953" gradientUnits="userSpaceOnUse" id="color-11"><stop offset="0" stop-color="#ffe9c4"/><stop offset="1" stop-color="#ffa321"/></radialGradient><radialGradient cx="283.04414" cy="163.18802" r="15.25953" gradientUnits="userSpaceOnUse" id="color-12"><stop offset="0" stop-color="#c4f0ff"/><stop offset="1" stop-color="#3d21ff"/></radialGradient></defs><g transform="translate(-151.79884,-143.67081)"><g data-paper-data="{&quot;isPaintingLayer&quot;:true}" fill-rule="nonzero" stroke-linejoin="miter" stroke-miterlimit="10" stroke-dasharray="" stroke-dashoffset="0" style="mix-blend-mode: normal"><path d="M191.61501,176.10165l67.38526,-18.61805l12.34597,44.68461l-67.38526,18.61805z" fill="url(#color-1)" stroke="#ed6b00" stroke-width="0" stroke-linecap="butt"/><path d="M254.68,183.52527l7.5679,-7.43598l8.30989,8.45724l-7.5679,7.43598z" fill="url(#color-2)" stroke="#000000" stroke-width="0" stroke-linecap="butt"/><g><path d="M169.32278,178.43156c0,0 38.43393,10.91816 45.32005,11.87875c2.25165,0.31405 4.01569,-4.13964 4.01569,-4.13964c0,0 7.77588,-2.15434 5.85655,3.12719c-1.62217,4.46377 -8.37204,13.14141 -8.37204,13.14141l-51.05325,-12.35935z" data-paper-data="{&quot;index&quot;:null}" fill="#4a433c" stroke="#000000" stroke-width="0" stroke-linecap="butt"/><path d="M151.848,194.75648c0.31345,-0.86286 1.37877,-3.85582 2.58567,-6.81174c0.73394,-1.79728 1.9053,-2.4417 2.60696,-3.72473c0.88339,-1.61505 1.23344,-4.39373 1.96135,-5.52846c1.3414,-2.09107 2.38824,-3.0448 2.38824,-3.0448c0,0 1.63489,0.15075 2.45918,0.42316c1.11067,0.36707 3.60569,1.58109 3.60569,1.58109c0,0 -2.96474,8.70061 -4.48085,11.96401c-0.89714,1.93099 -3.18444,5.83017 -3.18444,5.83017c0,0 -1.66817,1.79915 -2.40302,1.88395c-0.90002,0.1042 -3.3562,0.2189 -3.3562,0.2189c0,0 -2.61984,-1.5876 -2.18249,-2.79112z" data-paper-data="{&quot;index&quot;:null}" fill="#140d0d" stroke="#000000" stroke-width="0" stroke-linecap="butt"/><path d="M155.73876,195.72407c0.13129,-0.36127 -2.70263,0.17507 -0.55549,-4.51569c2.0276,-4.42986 3.19799,-3.41255 3.89954,-4.97759c1.46682,-3.27224 0.50263,-4.08104 1.25405,-5.45524c0.26174,-0.47863 0.43782,-0.68562 2.35624,-2.08412c1.31933,-0.96188 2.90104,-0.04251 4.13248,-0.58323c1.79876,-0.78993 3.17248,-0.17921 3.17248,-0.17921l4.47636,1.50092c0,0 -3.46924,-0.45947 -5.11287,0.32572c-1.47067,0.70238 -1.19814,3.3822 -1.45378,4.08632c-0.44767,1.23288 5.12109,0.72589 4.66614,1.89491c-0.24451,0.62861 -1.62838,5.54232 -1.62838,5.54232c0,0 -5.27567,-1.71448 -5.42814,-1.38611c-0.89714,1.93099 -3.37696,6.35956 -3.37696,6.35956c0,0 -1.66817,1.79915 -2.40289,1.88401c-0.90002,0.1042 -4.63995,-0.64707 -4.63995,-0.64707c0,0 0.20388,-0.5615 0.64131,-1.76496z" data-paper-data="{&quot;index&quot;:null}" fill="#1f261f" stroke="#000000" stroke-width="0" stroke-linecap="butt"/><path d="M164.14479,190.86575l-0.17739,-4.46012" fill="none" stroke="#ffb5b5" stroke-width="0.5" stroke-linecap="round"/><path d="M162.4115,189.03711l0.77092,4.47611" fill="none" stroke="#bffdff" stroke-width="0.5" stroke-linecap="round"/><path d="M162.25225,194.97315l-1.34814,-2.8874" fill="none" stroke="#eaffc1" stroke-width="0.5" stroke-linecap="round"/><path d="M169.45481,189.99842l0.80151,-3.30512" fill="none" stroke="#8d967b" stroke-width="0.5" stroke-linecap="round"/><path d="M168.76434,186.95007l-0.49667,3.01633" fill="none" stroke="#767796" stroke-width="0.5" stroke-linecap="round"/></g><g data-paper-data="{&quot;index&quot;:null}" stroke="#000000" stroke-width="0" stroke-linecap="butt"><path d="M292.41914,175.9785c0,0 -3.9365,-2.34036 -9.18657,-3.08207c-1.26254,-0.17839 -5.31546,-1.08229 -6.61505,-1.25111c-3.07564,-0.39962 -6.14792,-0.67247 -8.02439,-0.96961c-0.68954,-0.10919 -1.39229,-1.83836 -2.9696,-0.07457c-1.83663,2.05377 -12.68199,6.26128 -14.37821,-1.10844c-1.27545,-8.831 20.2419,-8.86008 21.66859,-8.63414c1.74627,0.2766 2.84515,1.50605 5.52544,2.05415c1.20158,0.24582 6.1479,2.12635 9.22621,3.11087c5.12515,1.63911 8.42084,2.00049 8.42084,2.00049z" fill="#b8bda6"/><path d="M302.85613,170.2845c-0.15732,0.35425 5.29078,1.82016 4.71782,3.35703c-0.2818,0.75593 -3.48912,-1.12245 -5.02798,-0.47374c-0.81472,0.34339 6.29772,1.44688 4.93679,3.22188c-0.46716,0.60933 -5.17764,-1.55783 -6.5903,-1.22682c-0.75617,0.1773 7.46437,2.42382 6.61844,3.63657c-0.50225,0.71987 -4.68921,-1.56255 -6.87296,-1.69851c-1.06394,-0.06611 5.26822,2.51719 4.48089,3.32956c-0.48193,0.4972 -6.80582,-1.64421 -6.89938,-1.60287c-0.52588,0.23204 2.8732,2.81077 1.79285,2.96281c-1.99098,0.28029 -3.46448,-2.05115 -4.93158,-3.99121c-0.85721,-1.13374 -2.51549,-1.76659 -2.51549,-1.76659c0,0 0.28499,-3.06098 0.90748,-4.40243c0.60594,-1.30623 2.77902,-3.54308 2.77902,-3.54308c0,0 6.93753,1.44725 6.60422,2.1974z" data-paper-data="{&quot;index&quot;:null}" fill="#786274"/></g><g><path d="M165.51071,215.55662l46.63429,-24.17483c0,0 8.62424,6.81814 11.26375,10.76638c3.12331,4.6717 -4.94207,4.43352 -4.94207,4.43352c0,0 -2.77497,-3.9048 -4.88691,-3.06287c-6.45833,2.57472 -41.18095,22.34117 -41.18095,22.34117z" fill="#413a4a" stroke="#000000" stroke-width="0" stroke-linecap="butt"/><path d="M172.26971,239.75662c0,0 -2.82983,1.17336 -3.5415,0.10875c-0.51025,-0.76308 -2.29329,-3.39228 -3.96295,-6.11418c-1.01505,-1.65473 -0.84189,-2.98058 -1.46119,-4.30515c-0.77989,-1.66765 -2.81297,-3.59339 -3.2974,-4.85157c-0.89267,-2.31831 -1.04239,-3.72649 -1.04239,-3.72649c0,0 1.08844,-1.22901 1.79569,-1.73266c0.95298,-0.67861 3.40751,-1.97194 3.40751,-1.97194c0,0 5.26154,7.53684 6.99618,10.68968c1.02639,1.86563 2.8173,6.01602 2.8173,6.01602c0,0 0.46389,2.40911 0.09762,3.05192c-0.44849,0.78721 -1.80885,2.83566 -1.80885,2.83566z" data-paper-data="{&quot;index&quot;:null}" fill="#12140d" stroke="#000000" stroke-width="0" stroke-linecap="butt"/><path d="M172.85351,238.86165c0,0 -0.33202,-0.49653 -1.04378,-1.56109c-0.21379,-0.3196 -1.45748,2.28284 -3.96973,-2.22335c-2.37241,-4.25534 -0.85981,-4.59717 -1.70682,-6.08842c-1.77081,-3.11805 -2.99321,-2.81934 -3.65678,-4.23784c-0.23112,-0.49408 -0.29363,-0.75869 -0.28666,-3.13275c0.00484,-1.63262 1.68173,-2.36429 1.97403,-3.67707c0.4272,-1.91757 1.73199,-2.66406 1.73199,-2.66406l3.85789,-2.7215c0,0 -2.42255,2.52546 -2.76183,4.3152c-0.30355,1.6013 2.01823,2.9666 2.43479,3.58914c0.72922,1.09019 3.61442,-3.69958 4.28791,-2.64148c0.36216,0.56902 3.50557,4.59134 3.50557,4.59134c0,0 -4.50293,3.23958 -4.32838,3.55692c1.02645,1.86554 3.13027,6.48434 3.13027,6.48434c0,0 0.46389,2.40911 0.09762,3.05192c-0.44849,0.78721 -3.26642,3.35838 -3.26642,3.35838z" data-paper-data="{&quot;index&quot;:null}" fill="#1e1e26" stroke="#000000" stroke-width="0" stroke-linecap="butt"/><path d="M172.86456,227.64914l-3.70105,-2.49508" fill="none" stroke="#c1ffce" stroke-width="0.5" stroke-linecap="round"/><path d="M174.43,229.99082l-4.06504,-2.02593" fill="none" stroke="#eaffc1" stroke-width="0.5" stroke-linecap="round"/><path d="M171.93145,230.98365l3.12573,0.6209" fill="none" stroke="#ffb5b5" stroke-width="0.5" stroke-linecap="round"/><path d="M173.11535,220.25336l2.19082,2.60113" fill="none" stroke="#7d967f" stroke-width="0.5" stroke-linecap="round"/><path d="M174.57819,223.79284l-2.13813,-2.18459" fill="none" stroke="#966262" stroke-width="0.5" stroke-linecap="round"/></g><path d="M207.48449,182.00893c0,0 8.42826,-1.77839 16.34132,-4.52652c5.37685,-1.8673 9.96059,-4.655 13.65701,-5.80168c6.93791,-2.15233 20.06306,-5.20292 20.06306,-5.20292c0,0 2.22803,5.34251 2.32584,8.15145c0.12465,3.57574 -1.63872,11.56289 -1.63872,11.56289c0,0 4.60916,4.74105 5.93434,7.46865c1.39814,2.87808 2.24714,9.37268 2.24714,9.37268c0,0 -13.89673,3.26144 -19.13013,4.27962c-4.63046,0.90082 -9.90859,0.98622 -16.79548,2.18889c-7.0981,1.23938 -15.7381,3.58267 -15.7381,3.58267c0,0 0.15112,-4.43002 -0.77393,-8.69132c-0.4201,-1.93522 -2.16825,-2.32848 -2.84853,-4.08718c-0.54391,-1.4057 -0.04001,-4.19113 -0.32257,-5.59655c-0.21352,-1.06234 0.05236,-3.26957 -0.12198,-4.01495c-0.35187,-1.50493 -1.89221,-2.11563 -2.55457,-3.79987c-0.76957,-1.95628 -0.6444,-4.88566 -0.6444,-4.88566z" fill="#d1b0b0" stroke="#292e32" stroke-width="0" stroke-linecap="butt"/><g stroke="none" stroke-width="0" stroke-linecap="butt"><path d="M247.00744,193.28973l8.71526,-2.3075l2.24166,11.62978l-7.84712,1.90372z" fill="#f200ff"/><path d="M255.7227,190.98222l1.1764,6.10315c-0.83005,0.74335 -1.52692,1.61812 -2.06548,2.58251c-0.04106,-0.56827 -0.13142,-1.1408 -0.27412,-1.71254c-0.59074,-2.36688 -1.97959,-4.32429 -3.80803,-5.65691z" fill="#eeff00"/><path d="M248.84542,199.92461c3.28995,-0.67 6.07854,-3.02825 7.42614,-6.09493l1.47026,7.62771c-1.61899,-0.45595 -3.37517,-0.50912 -5.12395,-0.07266c-1.09775,0.27398 -2.10741,0.71964 -3.00751,1.3012z" fill="#00ff5f"/><path d="M249.63275,202.76676l-2.22275,-8.02381c1.27127,1.93947 3.17643,3.36313 5.3523,4.05291c-0.73592,1.29193 -1.18619,2.7482 -1.28958,4.26684c-0.59806,-0.15477 -1.21376,-0.25486 -1.83997,-0.29595z" fill="#004fff"/><path d="M247.00743,193.28971l8.71527,-2.30751l0.55582,2.8836c-1.61592,-0.45309 -3.3681,-0.50502 -5.1129,-0.06955c-1.32512,0.33073 -2.5219,0.91163 -3.55254,1.67976z" fill="#ff0000"/><path d="M254.79787,203.38018l-4.68063,1.13552l-1.15644,-4.17458c0.70593,0.10495 1.42975,0.1348 2.16069,0.08312c0.97787,1.27154 2.24422,2.28142 3.67637,2.95594z" fill="#00efff"/><path d="M257.96437,202.61199l-7.84713,1.90371l-0.07802,-0.28163c3.43458,-0.94246 5.97204,-3.57914 6.93161,-6.7765z" fill="#9c00ff"/></g><g data-paper-data="{&quot;index&quot;:null}" stroke="#000000" stroke-width="0" stroke-linecap="butt"><path d="M306.81341,204.50708c0,0 -3.01459,0.41793 -7.6744,2.05618c-2.79879,0.98401 -7.28819,2.83912 -8.38431,3.09616c-2.44502,0.57315 -5.24783,1.54254 -6.84292,1.84207c-0.80938,0.15197 -7.46214,1.50001 -14.34828,2.29572c-4.71216,0.5445 -20.9994,-10.32592 -12.00952,-15.99844c4.88371,-3.08156 13.99373,6.1471 13.99373,6.1471c0,0 6.25081,-0.68005 9.93726,-1.37213c1.71401,-0.3218 4.55763,-0.43224 7.36931,-0.8795c1.18802,-0.18897 4.88324,-1.12454 6.03706,-1.32129c4.79793,-0.81813 8.34869,-3.06871 8.34869,-3.06871z" fill="#b8bda6"/><path d="M312.96587,202.49593c0.32549,0.67961 -6.00235,2.18929 -6.00235,2.18929c0,0 -2.05259,-1.99557 -2.64279,-3.17828c-0.60633,-1.21458 -0.94801,-4.01583 -0.94801,-4.01583c0,0 1.50503,-0.62411 2.26189,-1.68688c1.29536,-1.81861 2.58634,-3.99649 4.42056,-3.79146c0.99532,0.11121 -2.05608,2.56642 -1.56747,2.76555c0.08692,0.03547 5.83354,-2.09509 6.28875,-1.6515c0.74372,0.72478 -4.99886,3.26103 -4.02436,3.1725c2.00022,-0.18195 5.78229,-2.38593 6.262,-1.73854c0.80799,1.09063 -6.67618,3.36736 -5.9777,3.51023c1.3049,0.26674 5.57037,-1.84523 6.01501,-1.29835c1.29527,1.59305 -5.20206,2.79191 -4.44549,3.08565c1.42903,0.55492 4.32278,-1.25265 4.60114,-0.56641c0.56598,1.39517 -4.39468,2.883 -4.24105,3.20393z" data-paper-data="{&quot;index&quot;:null}" fill="#786274"/></g><g><path d="M296.60494,177.00196c-6.75508,9.88462 -19.56713,12.8845 -28.61681,6.70017c-9.04976,-6.18433 -10.91006,-19.21082 -4.15489,-29.09564c6.75508,-9.88462 19.56713,-12.8845 28.61688,-6.70012c9.04976,6.18433 10.91006,19.21082 4.15489,29.09564z" fill="url(#color-3)" stroke="none" stroke-width="0" stroke-linecap="butt"/><path d="M280.04482,147.11218c-0.23069,-0.12864 -0.82995,-0.45051 -1.50522,-0.75886c-0.84853,-0.19074 -1.81124,-0.45421 -2.60851,-0.56765c-1.14958,0.88884 -0.57251,2.99801 -2.9992,2.59319c-4.13874,-0.69086 -0.41331,-4.10669 1.50569,-4.66724c2.59155,-0.30455 5.10228,1.1622 7.43401,2.17484c3.21175,1.39494 6.55235,2.44568 9.47642,4.1925c0.1809,-0.03816 0.37566,-0.01342 0.5496,0.08376l0.7956,0.44463c0.4456,0.15877 0.92671,0.33561 1.42461,0.53254c1.35982,0.41553 2.8327,1.15489 4.16964,1.89532c0.69874,0.30002 1.31484,0.63779 1.76281,1.00692c0.36784,0.21336 0.7102,0.41168 1.0191,0.58406l0.83872,0.46855c0.38197,0.21346 0.51865,0.69592 0.30525,1.07814c-0.19005,0.34 -0.59319,0.48565 -0.94887,0.36328l-0.50685,-0.16332c0.07885,0.28245 0.12537,0.57564 0.13515,0.87953l0.40351,0.05212l-0.13081,1.00835c-0.01101,0.10315 -0.04245,0.20598 -0.09623,0.30239c-0.21346,0.38197 -0.69592,0.51865 -1.07814,0.30525c-0.11614,-0.06482 -0.20993,-0.15475 -0.27764,-0.25902l-0.47454,-0.69717l0.02056,-0.01392l-0.0579,-0.04658c-0.26739,-0.60244 -0.59097,-1.14017 -0.96167,-1.60766c-0.69786,-0.51447 -1.39678,-1.10698 -2.12106,-1.69371c-1.44982,-0.66341 -3.17323,-0.66337 -4.94695,0.12886c0,0 -0.72413,0.32143 -1.04567,-0.40265c-0.32143,-0.72413 0.40265,-1.04567 0.40265,-1.04567c0.15449,-0.06818 0.30922,-0.13169 0.46387,-0.19008l-0.44215,-0.13237c-0.05979,-0.01663 -0.11896,-0.0406 -0.17565,-0.07217c-0.38197,-0.21346 -0.51865,-0.69592 -0.30525,-1.07814c0.10803,-0.19339 0.28489,-0.32388 0.48298,-0.37794c-0.31385,-0.21362 -0.62146,-0.39867 -0.91562,-0.50861c-2.05469,-0.76773 -4.85426,-2.46952 -7.66956,-3.81961c-0.19635,0.31816 -0.58615,0.45166 -0.93113,0.33286l-0.91858,-0.29625l0.0096,-0.02971l-0.01127,-0.00406z" fill="url(#color-4)" stroke="none" stroke-width="0.5" stroke-linecap="butt"/><path d="M302.60382,155.53013c3.71192,2.00369 3.64649,2.03516 2.32211,4.56294c-1.32427,2.52774 -3.93719,3.61518 -5.83581,2.42891c-1.89857,-1.1864 -2.36389,-4.19755 -1.03951,-6.7253c1.32427,-2.52774 1.07247,-2.14542 4.55335,-0.26657z" data-paper-data="{&quot;index&quot;:null}" fill="url(#color-5)" stroke="#000000" stroke-width="0" stroke-linecap="butt"/><path d="M291.79715,153.1737c-1.28284,2.85868 -4.93802,4.00246 -8.16398,2.55449c-3.22603,-1.44767 -4.80131,-4.93874 -3.5184,-7.79725c1.28284,-2.85868 1.24792,-2.94859 7.22234,0.05608c5.60246,2.81748 5.74271,2.32789 4.45995,5.18661z" fill="url(#color-6)" stroke="#000000" stroke-width="0" stroke-linecap="butt"/><path d="M280.55569,182.41607c-15.65929,-5.76818 -13.40675,-15.10402 -11.1352,-20.44012c2.27163,-5.33599 13.23679,-5.93074 20.9879,-2.63107c7.75111,3.29967 12.714,11.59308 10.44241,16.92907c0,0 -3.03964,12.68364 -20.29507,6.142z" data-paper-data="{&quot;index&quot;:null}" fill="url(#color-7)" stroke="#ed6b00" stroke-width="0" stroke-linecap="butt"/><path d="M280.55569,182.41607c-12.47853,-4.59654 -13.58282,-11.45858 -12.3671,-16.75684c0.55993,3.26019 2.72419,6.17293 6.00228,7.54301c5.09568,2.12977 10.95305,-0.27458 13.08282,-5.37026c1.41918,-3.39552 0.82508,-7.12927 -1.23703,-9.87294c1.51422,0.33568 2.99377,0.7992 4.37172,1.38581c2.36261,1.00577 4.46618,2.4755 6.18476,4.18402c-0.16186,3.58142 1.62533,7.0592 4.76441,8.97868c0.1351,1.3393 -0.01916,2.62095 -0.50677,3.76636c0,0 -0.12308,0.51357 -0.46031,1.28074c-0.73029,-0.5961 -1.55783,-1.09815 -2.47199,-1.48022c-5.09568,-2.12977 -10.95305,0.27458 -13.08282,5.37026c-0.29289,0.70075 -0.50001,1.4159 -0.62619,2.13378c-1.14083,-0.28798 -2.35716,-0.67097 -3.65376,-1.16254z" data-paper-data="{&quot;index&quot;:null}" fill="url(#color-8)" stroke="#ed6b00" stroke-width="0" stroke-linecap="butt"/><path d="M290.40839,159.34488c2.63974,1.12373 4.9561,2.82668 6.77342,4.79474c-0.79905,0.81079 -1.47095,1.7714 -1.96878,2.86252c-0.74507,-2.94763 -2.82017,-5.52055 -5.84126,-6.78323c-5.09567,-2.12977 -10.95305,0.27459 -13.08282,5.37026c-1.42781,3.4162 -0.81778,7.17477 1.27487,9.92294c-1.806,0.45727 -3.47114,1.41386 -4.78018,2.78142c-1.39852,-1.1034 -2.44206,-2.25589 -3.20228,-3.42717c1.87457,-1.05431 3.42449,-2.7186 4.31811,-4.85671c1.58228,-3.78574 0.66194,-7.99193 -2.00533,-10.7776c4.26498,-2.67006 12.3921,-2.49334 18.5142,0.11285z" data-paper-data="{&quot;index&quot;:null}" fill="url(#color-9)" stroke="#ed6b00" stroke-width="0" stroke-linecap="butt"/><path d="M294.61097,173.60168c0.63196,2.50018 2.22082,4.73077 4.53218,6.1209c-1.5315,2.10128 -4.31235,4.41177 -9.17313,4.56c-0.17519,-1.86667 -0.87374,-3.65188 -2.00734,-5.1406c2.84743,-0.72096 5.34474,-2.68314 6.64829,-5.54032z" data-paper-data="{&quot;index&quot;:null}" fill="url(#color-10)" stroke="#ed6b00" stroke-width="0" stroke-linecap="butt"/><path d="M281.51064,174.84543c0.08743,-0.12389 -0.06257,-0.93981 -0.08023,-1.18213c-0.21533,-2.95649 -0.03613,-5.96278 -0.60211,-8.87257c-0.05345,-0.27488 -1.04174,-0.52387 -1.45362,-0.7288c-2.52231,-1.25494 -4.89969,-2.84746 -7.55532,-3.78802c-0.34002,-0.12043 -0.72478,-0.14793 -1.14238,-0.09821c1.58855,-1.53932 4.16618,-2.44082 7.12486,-2.74776c0.71639,3.00172 2.8078,5.63175 5.87312,6.91291c3.95682,1.65378 8.37292,0.57365 11.14638,-2.37755c3.12062,2.44761 5.36165,5.68961 6.20943,8.80741c-1.01561,-1.28074 -2.36014,-2.32999 -3.97495,-3.0049c-5.09568,-2.12977 -10.95305,0.27458 -13.08282,5.37026c-0.52837,1.26419 -0.77768,2.57525 -0.77605,3.86465c-1.50044,-0.10163 -2.98804,0.14034 -4.35611,0.68208c1.17455,-1.04221 2.11965,-2.0578 2.66981,-2.83736z" data-paper-data="{&quot;index&quot;:null}" fill="url(#color-11)" stroke="#ed6b00" stroke-width="0" stroke-linecap="butt"/><path d="M280.55567,182.41606c-15.65929,-5.76818 -13.40675,-15.10402 -11.1352,-20.44012c0.09875,-0.23195 0.21391,-0.45493 0.34454,-0.66906c-0.67029,1.73416 -0.81391,3.80562 -0.72206,5.36055c0.00949,0.16071 0.02267,0.32227 0.03942,0.48461c-0.65234,4.15762 1.39436,8.37399 5.2106,10.38481c2.44601,2.62816 5.48525,4.63255 8.54124,5.23899c5.27036,1.04585 9.8854,2.27992 13.08282,-5.37026c1.29544,-3.09944 0.03661,-6.89372 -1.23902,-10.00137c-0.7436,-1.81153 -3.64543,-1.79559 -4.81406,-3.36686c-0.06947,-2.01875 -0.75212,-3.9696 -1.93893,-5.58692c0.85319,0.25625 1.68533,0.55469 2.48337,0.89442c2.86831,1.22104 5.35479,3.12592 7.23416,5.31172c-0.0603,0.12873 -0.11815,0.25933 -0.17349,0.39172c-1.79787,4.30155 -0.3647,9.14589 3.19095,11.83249c-0.21401,0.59568 -0.62951,1.5646 -1.35101,2.60821c-2.94173,0.34593 -5.65715,1.99239 -7.29495,4.58994c-2.85582,0.49768 -6.59167,0.18197 -11.45833,-1.663z" data-paper-data="{&quot;index&quot;:null}" fill="url(#color-12)" stroke="#ed6b00" stroke-width="0" stroke-linecap="butt"/><path d="M302.12868,166.76712c0,0 -2.76029,-1.69245 -3.49521,-2.75642c-0.6528,-0.94523 -0.69689,-3.31423 -0.69689,-3.31423" data-paper-data="{&quot;index&quot;:null}" fill="none" stroke="#191412" stroke-width="1.5" stroke-linecap="round"/><path d="M281.35087,155.06867c0,0 -1.21889,1.7505 -2.27413,2.08053c-1.18792,0.37148 -4.50262,0.03948 -4.50262,0.03948" data-paper-data="{&quot;index&quot;:null}" fill="none" stroke="#191412" stroke-width="1.5" stroke-linecap="round"/></g></g></g></svg>