<svg version="1.1" xmlns="http://www.w3.org/2000/svg" xmlns:xlink="http://www.w3.org/1999/xlink" width="59" height="59.70662" viewBox="0,0,59,59.70662"><defs><linearGradient x1="240" y1="151.64669" x2="240" y2="208.35331" gradientUnits="userSpaceOnUse" id="color-1"><stop offset="0" stop-color="#191919"/><stop offset="1" stop-color="#050505"/></linearGradient><linearGradient x1="240" y1="151.64669" x2="240" y2="208.35331" gradientUnits="userSpaceOnUse" id="color-2"><stop offset="0" stop-color="#cccccc"/><stop offset="1" stop-color="#898989"/></linearGradient><radialGradient cx="240" cy="180" r="26.8571" gradientUnits="userSpaceOnUse" id="color-3"><stop offset="0" stop-color="#ffffff" stop-opacity="0.35484"/><stop offset="1" stop-color="#ffffff" stop-opacity="0"/></radialGradient><linearGradient x1="240" y1="153.29211" x2="240" y2="206.70789" gradientUnits="userSpaceOnUse" id="color-4"><stop offset="0" stop-color="#cccccc"/><stop offset="1" stop-color="#898989"/></linearGradient><linearGradient x1="243.18122" y1="195.55876" x2="244.30657" y2="195.55876" gradientUnits="userSpaceOnUse" id="color-5"><stop offset="0" stop-color="#525252"/><stop offset="1" stop-color="#363636"/></linearGradient><linearGradient x1="243.18122" y1="195.55876" x2="244.30657" y2="195.55876" gradientUnits="userSpaceOnUse" id="color-6"><stop offset="0" stop-color="#1f1f1f"/><stop offset="1" stop-color="#000000"/></linearGradient><linearGradient x1="232.8889" y1="196.70214" x2="246.77597" y2="196.70214" gradientUnits="userSpaceOnUse" id="color-7"><stop offset="0" stop-color="#2f2f2f"/><stop offset="1" stop-color="#040404"/></linearGradient><linearGradient x1="232.8889" y1="196.70214" x2="246.77597" y2="196.70214" gradientUnits="userSpaceOnUse" id="color-8"><stop offset="0" stop-color="#1f1f1f"/><stop offset="1" stop-color="#000000"/></linearGradient><linearGradient x1="237.64101" y1="192.88965" x2="242.05586" y2="192.88965" gradientUnits="userSpaceOnUse" id="color-9"><stop offset="0" stop-color="#444444"/><stop offset="1" stop-color="#252525"/></linearGradient><linearGradient x1="236.21267" y1="195.71832" x2="243.31107" y2="195.71832" gradientUnits="userSpaceOnUse" id="color-10"><stop offset="0" stop-color="#444444"/><stop offset="1" stop-color="#252525"/></linearGradient><linearGradient x1="235.01448" y1="198.84096" x2="244.5441" y2="198.84096" gradientUnits="userSpaceOnUse" id="color-11"><stop offset="0" stop-color="#444444"/><stop offset="1" stop-color="#252525"/></linearGradient><linearGradient x1="233.74555" y1="201.95105" x2="245.86476" y2="201.95105" gradientUnits="userSpaceOnUse" id="color-12"><stop offset="0" stop-color="#444444"/><stop offset="1" stop-color="#252525"/></linearGradient><linearGradient x1="242.09869" y1="191.86912" x2="245.60526" y2="191.86912" gradientUnits="userSpaceOnUse" id="color-13"><stop offset="0" stop-color="#b2b2b2"/><stop offset="1" stop-color="#363636"/></linearGradient><linearGradient x1="242.09869" y1="191.86912" x2="245.60526" y2="191.86912" gradientUnits="userSpaceOnUse" id="color-14"><stop offset="0" stop-color="#1f1f1f"/><stop offset="1" stop-color="#000000"/></linearGradient><linearGradient x1="233.09396" y1="163.30657" x2="246.98102" y2="163.30657" gradientUnits="userSpaceOnUse" id="color-15"><stop offset="0" stop-color="#9c8f73"/><stop offset="1" stop-color="#443a22"/></linearGradient><linearGradient x1="233.09396" y1="163.30222" x2="246.98102" y2="163.30222" gradientUnits="userSpaceOnUse" id="color-16"><stop offset="0" stop-color="#272727"/><stop offset="1" stop-color="#000000"/></linearGradient><linearGradient x1="236.55659" y1="157.26529" x2="243.41018" y2="157.26529" gradientUnits="userSpaceOnUse" id="color-17"><stop offset="0" stop-color="#f1f5f8"/><stop offset="1" stop-color="#6d7680"/></linearGradient><linearGradient x1="236.55659" y1="157.26474" x2="243.41018" y2="157.26474" gradientUnits="userSpaceOnUse" id="color-18"><stop offset="0" stop-color="#272727"/><stop offset="1" stop-color="#000000"/></linearGradient><linearGradient x1="234.99415" y1="160.79399" x2="245.20539" y2="160.79399" gradientUnits="userSpaceOnUse" id="color-19"><stop offset="0" stop-color="#45423b"/><stop offset="1" stop-color="#262018"/></linearGradient><linearGradient x1="246.84356" y1="187.10445" x2="253.72689" y2="187.10445" gradientUnits="userSpaceOnUse" id="color-20"><stop offset="0" stop-color="#36322b"/><stop offset="1" stop-color="#1f1c19"/></linearGradient><linearGradient x1="246.84356" y1="187.34092" x2="251.55166" y2="187.34092" gradientUnits="userSpaceOnUse" id="color-21"><stop offset="0" stop-color="#272727"/><stop offset="1" stop-color="#000000"/></linearGradient><linearGradient x1="233.15644" y1="187.03231" x2="226.27311" y2="187.03231" gradientUnits="userSpaceOnUse" id="color-22"><stop offset="0" stop-color="#6b6757"/><stop offset="1" stop-color="#827969"/></linearGradient><linearGradient x1="228.44834" y1="187.26878" x2="233.15644" y2="187.26878" gradientUnits="userSpaceOnUse" id="color-23"><stop offset="0" stop-color="#272727"/><stop offset="1" stop-color="#000000"/></linearGradient><linearGradient x1="233.13732" y1="181.4797" x2="246.86004" y2="181.4797" gradientUnits="userSpaceOnUse" id="color-24"><stop offset="0" stop-color="#635f54"/><stop offset="1" stop-color="#211f1a"/></linearGradient><linearGradient x1="233.13732" y1="181.4797" x2="246.86004" y2="181.4797" gradientUnits="userSpaceOnUse" id="color-25"><stop offset="0" stop-color="#272727"/><stop offset="1" stop-color="#000000"/></linearGradient><linearGradient x1="240.48921" y1="182.11301" x2="245.87175" y2="182.11301" gradientUnits="userSpaceOnUse" id="color-26"><stop offset="0" stop-color="#4a382c"/><stop offset="1" stop-color="#301f1b"/></linearGradient><linearGradient x1="240.48921" y1="182.11301" x2="245.87175" y2="182.11301" gradientUnits="userSpaceOnUse" id="color-27"><stop offset="0" stop-color="#351c12"/><stop offset="1" stop-color="#1a1310"/></linearGradient><linearGradient x1="240.47474" y1="182.11504" x2="245.84482" y2="182.11504" gradientUnits="userSpaceOnUse" id="color-28"><stop offset="0" stop-color="#351c12"/><stop offset="1" stop-color="#1a1310"/></linearGradient><linearGradient x1="240.47474" y1="182.07415" x2="245.84482" y2="182.07415" gradientUnits="userSpaceOnUse" id="color-29"><stop offset="0" stop-color="#351c12"/><stop offset="1" stop-color="#1a1310"/></linearGradient><linearGradient x1="234.05601" y1="182.14027" x2="239.43855" y2="182.14027" gradientUnits="userSpaceOnUse" id="color-30"><stop offset="0" stop-color="#4a382c"/><stop offset="1" stop-color="#301f1b"/></linearGradient><linearGradient x1="234.05601" y1="182.14027" x2="239.43855" y2="182.14027" gradientUnits="userSpaceOnUse" id="color-31"><stop offset="0" stop-color="#351c12"/><stop offset="1" stop-color="#1a1310"/></linearGradient><linearGradient x1="234.04154" y1="182.1423" x2="239.41162" y2="182.1423" gradientUnits="userSpaceOnUse" id="color-32"><stop offset="0" stop-color="#351c12"/><stop offset="1" stop-color="#1a1310"/></linearGradient><linearGradient x1="234.04154" y1="182.10141" x2="239.41162" y2="182.10141" gradientUnits="userSpaceOnUse" id="color-33"><stop offset="0" stop-color="#351c12"/><stop offset="1" stop-color="#1a1310"/></linearGradient><linearGradient x1="240.48921" y1="188.60545" x2="245.87175" y2="188.60545" gradientUnits="userSpaceOnUse" id="color-34"><stop offset="0" stop-color="#4a382c"/><stop offset="1" stop-color="#301f1b"/></linearGradient><linearGradient x1="240.48921" y1="188.60545" x2="245.87175" y2="188.60545" gradientUnits="userSpaceOnUse" id="color-35"><stop offset="0" stop-color="#351c12"/><stop offset="1" stop-color="#1a1310"/></linearGradient><linearGradient x1="240.47474" y1="188.60747" x2="245.84482" y2="188.60747" gradientUnits="userSpaceOnUse" id="color-36"><stop offset="0" stop-color="#351c12"/><stop offset="1" stop-color="#1a1310"/></linearGradient><linearGradient x1="240.47474" y1="188.56659" x2="245.84482" y2="188.56659" gradientUnits="userSpaceOnUse" id="color-37"><stop offset="0" stop-color="#351c12"/><stop offset="1" stop-color="#1a1310"/></linearGradient><linearGradient x1="234.05601" y1="188.6327" x2="239.43855" y2="188.6327" gradientUnits="userSpaceOnUse" id="color-38"><stop offset="0" stop-color="#4a382c"/><stop offset="1" stop-color="#301f1b"/></linearGradient><linearGradient x1="234.05601" y1="188.6327" x2="239.43855" y2="188.6327" gradientUnits="userSpaceOnUse" id="color-39"><stop offset="0" stop-color="#351c12"/><stop offset="1" stop-color="#1a1310"/></linearGradient><linearGradient x1="234.04154" y1="188.63473" x2="239.41162" y2="188.63473" gradientUnits="userSpaceOnUse" id="color-40"><stop offset="0" stop-color="#351c12"/><stop offset="1" stop-color="#1a1310"/></linearGradient><linearGradient x1="234.04154" y1="188.59384" x2="239.41162" y2="188.59384" gradientUnits="userSpaceOnUse" id="color-41"><stop offset="0" stop-color="#351c12"/><stop offset="1" stop-color="#1a1310"/></linearGradient><linearGradient x1="233.83211" y1="174.72527" x2="246.08117" y2="174.72527" gradientUnits="userSpaceOnUse" id="color-42"><stop offset="0" stop-color="#515151"/><stop offset="1" stop-color="#131313"/></linearGradient><linearGradient x1="233.83211" y1="174.72527" x2="246.08117" y2="174.72527" gradientUnits="userSpaceOnUse" id="color-43"><stop offset="0" stop-color="#272727"/><stop offset="1" stop-color="#000000"/></linearGradient><linearGradient x1="234.47009" y1="172.05996" x2="245.35814" y2="172.05996" gradientUnits="userSpaceOnUse" id="color-44"><stop offset="0" stop-color="#272727"/><stop offset="1" stop-color="#000000"/></linearGradient><linearGradient x1="234.51262" y1="177.43007" x2="245.23054" y2="177.43007" gradientUnits="userSpaceOnUse" id="color-45"><stop offset="0" stop-color="#272727"/><stop offset="1" stop-color="#000000"/></linearGradient></defs><g transform="translate(-210.5,-150.14669)"><g data-paper-data="{&quot;isPaintingLayer&quot;:true}" fill-rule="nonzero" stroke-linejoin="miter" stroke-miterlimit="10" stroke-dasharray="" stroke-dashoffset="0" style="mix-blend-mode: normal"><path d="M212,208.35331v-56.70662h56v56.70662z" fill="url(#color-1)" stroke="url(#color-2)" stroke-width="3" stroke-linecap="butt"/><path d="M266.8571,180c0,14.75036 -12.02433,26.70789 -26.8571,26.70789c-14.83277,0 -26.8571,-11.95753 -26.8571,-26.70789c0,-14.75036 12.02433,-26.70789 26.8571,-26.70789c14.83277,0 26.8571,11.95753 26.8571,26.70789z" fill="url(#color-3)" stroke="url(#color-4)" stroke-width="0" stroke-linecap="butt"/><g stroke-width="0.5"><path d="M243.18122,197.41993v-3.72233h1.12535v3.72233z" fill="url(#color-5)" stroke="url(#color-6)" stroke-linecap="butt"/><path d="M232.8889,203.64595c0,0 5.18535,-13.98889 6.94448,-13.88706c2.01241,0.11649 6.94258,13.88706 6.94258,13.88706z" fill="url(#color-7)" stroke="url(#color-8)" stroke-linecap="butt"/><path d="M237.64101,192.88965h4.41485" fill="none" stroke="url(#color-9)" stroke-linecap="round"/><path d="M243.31107,195.71832h-7.09839" fill="none" stroke="url(#color-10)" stroke-linecap="round"/><path d="M244.5441,198.84096h-9.52962" fill="none" stroke="url(#color-11)" stroke-linecap="round"/><path d="M233.74555,201.95105h12.11921" fill="none" stroke="url(#color-12)" stroke-linecap="round"/><path d="M245.60526,191.86912c-0.01312,1.64876 -0.05466,1.82517 -1.75329,1.8077c-1.69917,-0.01748 -1.77437,-0.2409 -1.75329,-1.8077c0.02327,-1.72985 0.01833,-1.85009 1.75329,-1.8077c1.66232,0.04062 1.7677,-0.00281 1.75329,1.8077z" fill="url(#color-13)" stroke="url(#color-14)" stroke-linecap="butt"/></g><path d="M233.09396,170.25038c0,0 0.89313,-14.20531 6.87234,-13.88706c6.01607,-0.42455 7.01472,13.88706 7.01472,13.88706z" fill="url(#color-15)" stroke="url(#color-16)" stroke-width="0.5" stroke-linecap="butt"/><path d="M236.55659,158.14383c0,0 0.44078,-1.79728 3.39166,-1.75702c2.96907,-0.05371 3.46193,1.75702 3.46193,1.75702z" fill="url(#color-17)" stroke="url(#color-18)" stroke-width="0.5" stroke-linecap="butt"/><path d="M234.64507,162.54737c0,0 0.16941,-0.5494 0.41828,-1.2032c0.29206,-0.76725 0.77583,-1.67828 2.44749,-2.01394c0.06486,-0.01302 1.28333,-0.20381 1.28333,-0.20381l2.65083,0.00817c0,0 0.91635,0.06541 0.97017,0.07817c1.58203,0.37502 2.17611,1.31672 2.50867,2.10409c0.28356,0.67136 0.45609,1.23053 0.45609,1.23053z" data-paper-data="{&quot;index&quot;:null}" fill="url(#color-19)" stroke="#000000" stroke-width="0.5" stroke-linecap="butt"/><path d="M237.4736,160.86614c0,-0.67472 0.54697,-1.22169 1.22169,-1.22169c0.67472,0 1.22169,0.54697 1.22169,1.22169c0,0.67472 -0.54697,1.22169 -1.22169,1.22169c-0.67472,0 -1.22169,-0.54697 -1.22169,-1.22169z" fill="#caff00" stroke="none" stroke-width="0.5" stroke-linecap="butt"/><path d="M240.29746,160.8929c0,-0.67472 0.54697,-1.22169 1.22169,-1.22169c0.67472,0 1.22169,0.54697 1.22169,1.22169c0,0.67472 -0.54697,1.22169 -1.22169,1.22169c-0.67472,0 -1.22169,-0.54697 -1.22169,-1.22169z" fill="#00fcff" stroke="none" stroke-width="0.5" stroke-linecap="butt"/><path d="M246.84356,192.75125v-14.03485c0,0 1.76619,9.42129 2.38369,11.696c0.48855,1.79969 2.32441,5.55304 2.32441,5.55304z" fill="url(#color-20)" stroke="url(#color-21)" stroke-width="0.5" stroke-linecap="butt"/><path d="M228.44834,195.8933c0,0 1.83585,-3.75334 2.32441,-5.55304c0.6175,-2.27471 2.38369,-11.696 2.38369,-11.696v14.03485z" data-paper-data="{&quot;index&quot;:null}" fill="url(#color-22)" stroke="url(#color-23)" stroke-width="0.5" stroke-linecap="butt"/><path d="M233.13732,192.73726v-22.51512h13.72272v22.51512z" fill="url(#color-24)" stroke="url(#color-25)" stroke-width="0.5" stroke-linecap="butt"/><g stroke-width="0.5"><path d="M240.48921,184.91502v-5.60401h5.38254v5.60401z" fill="url(#color-26)" stroke="url(#color-27)" stroke-linecap="butt"/><path d="M245.84482,179.38911l-5.37009,5.45186" fill="none" stroke="url(#color-28)" stroke-linecap="round"/><path d="M245.84482,184.86823l-5.31557,-5.53364" fill="none" stroke="url(#color-29)" stroke-linecap="round"/></g><g stroke-width="0.5"><path d="M234.05601,184.94228v-5.60401h5.38254v5.60401z" fill="url(#color-30)" stroke="url(#color-31)" stroke-linecap="butt"/><path d="M234.04154,184.86823l5.37009,-5.45187" fill="none" stroke="url(#color-32)" stroke-linecap="round"/><path d="M239.41162,184.89549l-5.31557,-5.53364" fill="none" stroke="url(#color-33)" stroke-linecap="round"/></g><g stroke-width="0.5"><path d="M240.48921,191.40745v-5.60401h5.38254v5.60401z" fill="url(#color-34)" stroke="url(#color-35)" stroke-linecap="butt"/><path d="M245.84482,185.88154l-5.37009,5.45186" fill="none" stroke="url(#color-36)" stroke-linecap="round"/><path d="M245.84482,191.36066l-5.31557,-5.53364" fill="none" stroke="url(#color-37)" stroke-linecap="round"/></g><g stroke-width="0.5"><path d="M234.05601,191.43471v-5.60401h5.38254v5.60401z" fill="url(#color-38)" stroke="url(#color-39)" stroke-linecap="butt"/><path d="M234.04154,191.36067l5.37009,-5.45187" fill="none" stroke="url(#color-40)" stroke-linecap="round"/><path d="M239.41162,191.38792l-5.31557,-5.53364" fill="none" stroke="url(#color-41)" stroke-linecap="round"/></g><g stroke-width="0.5"><path d="M233.83211,178.10133v-6.75213h12.24906v6.75213z" fill="url(#color-42)" stroke="url(#color-43)" stroke-linecap="butt"/><path d="M234.47009,172.05996h10.88805" fill="none" stroke="url(#color-44)" stroke-linecap="round"/><path d="M245.23054,177.43007h-10.71792" fill="none" stroke="url(#color-45)" stroke-linecap="round"/></g><path d="M215.27327,167.03273v-12.39235h25.93332v8.69862h-15.56684v3.69373z" fill-opacity="0.53453" fill="#000000" stroke="#a60000" stroke-width="0" stroke-linecap="butt"/><text transform="translate(215.70712,161.61518) scale(0.21839,0.21839)" font-size="40" xml:space="preserve" fill="#ffffff" fill-rule="nonzero" stroke="#000000" stroke-width="0" stroke-linecap="butt" stroke-linejoin="miter" stroke-miterlimit="10" stroke-dasharray="" stroke-dashoffset="0" font-family="Serif" font-weight="normal" text-anchor="start" style="mix-blend-mode: normal"><tspan x="0" dy="0">Rocket</tspan></text><text transform="translate(215.56527,166.16682) scale(0.11601,0.11601)" font-size="40" xml:space="preserve" fill="#ffffff" fill-rule="nonzero" stroke="#000000" stroke-width="0" stroke-linecap="butt" stroke-linejoin="miter" stroke-miterlimit="10" stroke-dasharray="" stroke-dashoffset="0" font-family="Serif" font-weight="normal" text-anchor="start" style="mix-blend-mode: normal"><tspan x="0" dy="0">3-1-1</tspan></text></g></g></svg>