<svg version="1.1" xmlns="http://www.w3.org/2000/svg" xmlns:xlink="http://www.w3.org/1999/xlink" width="488" height="451.34075" viewBox="0,0,488,451.34075"><defs><radialGradient cx="239.76178" cy="177.81006" r="244" gradientUnits="userSpaceOnUse" id="color-1"><stop offset="0" stop-color="#121212"/><stop offset="1" stop-color="#868686"/></radialGradient><radialGradient cx="240.00006" cy="180.00007" r="173.5" gradientUnits="userSpaceOnUse" id="color-2"><stop offset="0" stop-color="#000000"/><stop offset="1" stop-color="#000000" stop-opacity="0"/></radialGradient><radialGradient cx="237.93829" cy="318.1666" r="116.49049" gradientUnits="userSpaceOnUse" id="color-3"><stop offset="0" stop-color="#33266a"/><stop offset="1" stop-color="#949074"/></radialGradient><linearGradient x1="242.7439" y1="206.71003" x2="247.12426" y2="240.06435" gradientUnits="userSpaceOnUse" id="color-4"><stop offset="0" stop-color="#5fa5c2"/><stop offset="1" stop-color="#7fff7d"/></linearGradient><radialGradient cx="217.12983" cy="96.63091" r="64.41492" gradientUnits="userSpaceOnUse" id="color-5"><stop offset="0" stop-color="#ffa8a8"/><stop offset="1" stop-color="#ffed7d"/></radialGradient><radialGradient cx="232.39258" cy="141.39011" r="13.70696" gradientUnits="userSpaceOnUse" id="color-6"><stop offset="0" stop-color="#daffe3"/><stop offset="1" stop-color="#0c1a0f"/></radialGradient><radialGradient cx="266.89257" cy="159.89011" r="16.12716" gradientUnits="userSpaceOnUse" id="color-7"><stop offset="0" stop-color="#5f6471"/><stop offset="1" stop-color="#171d2c"/></radialGradient><radialGradient cx="291.89257" cy="138.39011" r="13.22358" gradientUnits="userSpaceOnUse" id="color-8"><stop offset="0" stop-color="#ffd0d0"/><stop offset="1" stop-color="#2a0000"/></radialGradient><linearGradient x1="233.80012" y1="121.05972" x2="246.02749" y2="152.98188" gradientUnits="userSpaceOnUse" id="color-9"><stop offset="0" stop-color="#694444"/><stop offset="1" stop-color="#98a1b9"/></linearGradient><radialGradient cx="174.56592" cy="22.716" r="65.45502" gradientUnits="userSpaceOnUse" id="color-10"><stop offset="0" stop-color="#dcdcdc"/><stop offset="1" stop-color="#a0a0a0"/></radialGradient><radialGradient cx="211.23064" cy="41.91919" r="46.28026" gradientUnits="userSpaceOnUse" id="color-11"><stop offset="0" stop-color="#d1ffc4"/><stop offset="1" stop-color="#2188ff"/></radialGradient><radialGradient cx="211.23064" cy="41.91919" r="46.28026" gradientUnits="userSpaceOnUse" id="color-12"><stop offset="0" stop-color="#ceffc4"/><stop offset="1" stop-color="#ff21cc"/></radialGradient><radialGradient cx="211.23064" cy="41.91919" r="46.28026" gradientUnits="userSpaceOnUse" id="color-13"><stop offset="0" stop-color="#ffe9c4"/><stop offset="1" stop-color="#4fff21"/></radialGradient><radialGradient cx="211.23064" cy="41.91919" r="46.28026" gradientUnits="userSpaceOnUse" id="color-14"><stop offset="0" stop-color="#ffe9c4"/><stop offset="1" stop-color="#4fff21"/></radialGradient><radialGradient cx="211.23057" cy="41.91922" r="46.28024" gradientUnits="userSpaceOnUse" id="color-15"><stop offset="0" stop-color="#ffe9c4"/><stop offset="1" stop-color="#ffa321"/></radialGradient><radialGradient cx="211.23052" cy="41.91923" r="46.28024" gradientUnits="userSpaceOnUse" id="color-16"><stop offset="0" stop-color="#c4f0ff"/><stop offset="1" stop-color="#3d21ff"/></radialGradient><radialGradient cx="159.90952" cy="21.07502" r="50.24886" gradientUnits="userSpaceOnUse" id="color-17"><stop offset="0" stop-color="#1c2f30"/><stop offset="1" stop-color="#142913"/></radialGradient><radialGradient cx="237.40088" cy="-10.00147" r="13.22632" gradientUnits="userSpaceOnUse" id="color-18"><stop offset="0" stop-color="#786c41"/><stop offset="1" stop-color="#141a29"/></radialGradient><radialGradient cx="184.80155" cy="11.12648" r="20.82216" gradientUnits="userSpaceOnUse" id="color-19"><stop offset="0" stop-color="#7ba676"/><stop offset="1" stop-color="#291616"/></radialGradient></defs><g transform="translate(4.23828,16.39264)"><g data-paper-data="{&quot;isPaintingLayer&quot;:true}" fill-rule="nonzero" stroke-linecap="butt" stroke-linejoin="miter" stroke-miterlimit="10" stroke-dasharray="" stroke-dashoffset="0" style="mix-blend-mode: normal"><path d="M-4.23828,360.81007v-366h488v366z" fill="url(#color-1)" stroke="none" stroke-width="0"/><path d="M413.50001,180.00007c0,97.7544 -77.6786,177 -173.5,177c-95.8214,0 -173.5,-79.2456 -173.5,-177c0,-97.7544 77.6786,-177 173.5,-177c95.8214,0 173.5,79.2456 173.5,177z" fill="url(#color-2)" stroke="none" stroke-width="0"/><path d="M160.25243,434.36546l0.87834,-232.97929l154.49348,0.58264l-0.87834,232.97929z" data-paper-data="{&quot;index&quot;:null}" fill="url(#color-3)" stroke="#ed6b00" stroke-width="0"/><path d="M360.61736,88.50742c0,0 -2.43113,11.03846 -3.43798,29.4915c-0.60493,11.0833 -1.18907,48.80327 -1.78206,52.96353c-2.7483,19.37935 -32.2842,17.66028 -28.99326,1.70688c0.8913,-4.38447 7.72804,-44.33804 8.55627,-48.61462c3.44457,-17.78298 1.43384,-33.24782 1.43384,-33.24782z" data-paper-data="{&quot;index&quot;:null}" fill="#a3bda9" stroke="#000000" stroke-width="0"/><path d="M347.3342,191.32118c-6.49662,12.3702 -15.06381,27.86846 -15.06381,27.86846c0,0 -17.49099,29.97877 -22.45837,28.11164c-29.05202,-10.91823 -3.37307,-40.46575 -3.37307,-40.46575c0,0 12.50982,-23.77089 19.4166,-36.92338c4.78582,-7.61117 27.27301,9.44801 21.47864,21.40897z" data-paper-data="{&quot;index&quot;:null}" fill="#a3bda9" stroke="#000000" stroke-width="0"/><g><path d="M228.48725,242.5119l-4.38035,-33.35423l37.2739,-4.89511l4.38035,33.35423z" fill="url(#color-4)" stroke="#000000" stroke-width="0"/><path d="M302.57782,144.27643c1.15825,37.94343 -26.06368,69.56234 -60.80191,70.62275c-34.73819,1.06041 -63.8381,-28.83915 -64.99636,-66.78266c-1.15825,-37.94348 26.06372,-69.56234 60.80196,-70.62275c34.73815,-1.06041 63.83806,28.83915 64.99631,66.78267z" fill="url(#color-5)" stroke="none" stroke-width="0"/><path d="M234.24021,154.93526c-2.50656,4.56413 -7.13506,2.1034 -7.13506,2.1034c-4.67209,-2.5948 -12.48175,-5.39491 -11.96181,-12.87968c0.42489,-6.11682 10.39255,-11.81263 15.78488,-10.83296c9.78211,1.7772 18.67383,18.83841 3.31207,21.60924z" data-paper-data="{&quot;index&quot;:null}" fill="url(#color-6)" stroke="none" stroke-width="0.5"/><path d="M257.0938,176.41599c0.6539,-2.32212 2.30108,-2.87228 3.52687,-2.93738c0.38889,-0.03601 0.78833,-0.01594 1.18741,0.06639c-1.57584,-5.26582 -0.89405,-12.15203 -2.76053,-17.23739c0,0 -1.37318,-3.81193 2.43876,-5.18519c3.8119,-1.37313 5.18515,2.4388 5.18515,2.4388c2.25503,6.35973 4.01183,14.21829 4.0846,21.08007c0.02731,2.57134 1.45218,6.00343 -0.48065,7.6995c-2.00564,1.75997 -5.33394,-0.17113 -8.00098,-0.25671l-2.37873,-0.66982c-0.49303,-0.13881 -0.93874,-0.36294 -1.32595,-0.65208c-1.01167,-0.69505 -2.12977,-2.02393 -1.47587,-4.34605z" data-paper-data="{&quot;index&quot;:null}" fill="url(#color-7)" stroke="none" stroke-width="0.5"/><path d="M291.1509,132.11765c7.90861,2.00089 15.22634,20.50137 2.85304,23.36571c-1.98457,4.90829 -5.7402,2.21218 -5.7402,2.21218c-3.79187,-2.84138 -10.11739,-5.93054 -9.76022,-14.00987c0.29187,-6.60261 8.28781,-12.67099 12.64741,-11.56801z" data-paper-data="{&quot;index&quot;:null}" fill="url(#color-8)" stroke="none" stroke-width="0.5"/></g><path d="M363.58013,82.05049c2.27894,0.0347 -3.26298,23.68058 -3.26298,23.68058c0,0 -8.33815,3.56363 -12.3376,3.58293c-4.10772,0.01923 -11.99355,-3.4666 -11.99355,-3.4666c0,0 0.62067,-6.06184 -1.03758,-10.34697c-2.8378,-7.33488 -6.62902,-15.24796 -3.33151,-21.04048c1.789,-3.14302 3.66282,11.1127 4.92088,9.80867c0.22378,-0.23242 3.25744,-22.96039 5.10949,-23.74963c3.02567,-1.28924 1.06636,22.09668 2.29792,18.69301c2.52906,-6.98678 2.41494,-23.27008 4.84014,-23.80368c4.08475,-0.89894 -1.17617,27.87958 0.25006,25.78075c2.66437,-3.9211 3.51964,-21.6685 5.62712,-22.2511c6.14034,-1.69746 -0.47398,22.00121 1.43636,19.9575c3.60822,-3.86016 3.20273,-16.51899 5.42712,-16.31591c4.52207,0.41291 0.9793,19.45237 2.05493,19.4691z" data-paper-data="{&quot;index&quot;:null}" fill="#6c7378" stroke="#000000" stroke-width="0"/><g><path d="M216.09302,143.93528l-2.54193,-15.38625l38.08581,-14.32157l4.82268,14.24689c0,0 -3.24497,23.09035 -10.56711,26.69187c-6.4259,3.16068 -29.79945,-11.23095 -29.79945,-11.23095z" data-paper-data="{&quot;index&quot;:null}" fill="url(#color-9)" stroke="#000000" stroke-width="0"/><path d="M272.4887,39.86528c13.79741,36.02211 -1.75134,75.46397 -34.73036,88.09623c-32.97908,12.63243 -70.89923,-6.32845 -84.69696,-42.35119c-13.79743,-36.02212 1.75136,-75.46395 34.7306,-88.09629c32.97908,-12.63243 70.89923,6.32845 84.69696,42.35118z" data-paper-data="{&quot;index&quot;:null}" fill="url(#color-10)" stroke="none" stroke-width="0"/><g data-paper-data="{&quot;index&quot;:null}" stroke="#ed6b00" stroke-width="0"><path d="M244.62204,94.31953c-47.28725,18.10405 -61.12752,-9.49103 -66.80264,-27.29241c-5.67473,-17.80133 18.02788,-41.87002 42.33697,-49.73854c24.30908,-7.86849 52.42433,2.28803 58.09918,20.08921c0,0 18.85029,37.44801 -33.63366,56.94138z" data-paper-data="{&quot;index&quot;:null}" fill="url(#color-11)"/><path d="M244.62208,94.31945c-37.68217,14.42668 -54.12499,-0.16618 -62.12191,-15.69769c7.89222,6.8605 18.72357,9.559 28.95275,6.16885c15.90096,-5.26989 24.32526,-23.25674 18.81622,-40.17477c-3.67096,-11.27341 -12.60241,-19.22754 -22.8584,-21.72105c4.12157,-2.29661 8.42404,-4.20743 12.7456,-5.60626c7.40961,-2.39838 15.17288,-3.12209 22.54648,-2.46509c6.90476,9.13816 18.02689,14.00335 29.05594,12.25035c3.02652,3.014 5.27867,6.48283 6.49678,10.30399c0,0 0.76327,1.51633 1.55497,4.09756c-2.8695,0.04016 -5.76896,0.51207 -8.62155,1.45749c-15.90095,5.26989 -24.32526,23.25674 -18.81622,40.17477c0.75757,2.32653 1.73923,4.51167 2.91029,6.53664c-3.17649,1.64402 -6.71745,3.21016 -10.66121,4.67492z" data-paper-data="{&quot;index&quot;:null}" fill="url(#color-12)"/><path d="M220.15639,17.28854c8.27879,-2.6797 16.99904,-3.26884 25.12395,-2.17735c-0.16879,3.64061 0.25535,7.38743 1.34008,11.09619c-7.67818,-5.71028 -17.6169,-7.75734 -27.04409,-4.63297c-15.90094,5.26988 -24.32527,23.25677 -18.81624,40.17478c3.69333,11.34204 12.71138,19.32425 23.0459,21.76598c-3.17428,4.84749 -5.01461,10.63215 -5.21148,16.693c-5.41772,0.17073 -10.12865,-0.5111 -14.23409,-1.82325c2.11766,-6.45665 2.25916,-13.74352 -0.0524,-20.84223c-4.09284,-12.56894 -14.72474,-21.01191 -26.44084,-22.36113c4.2672,-15.35702 23.089,-31.67815 42.28916,-37.89295z" data-paper-data="{&quot;index&quot;:null}" fill="url(#color-13)"/><path d="M254.80065,70.99972c5.00471,-7.64287 6.69355,-17.61535 3.85314,-27.32681c6.51257,4.84349 14.65159,7.05143 22.72527,5.70357c0.78764,8.32321 -0.83802,19.73649 -11.5796,30.12227c-4.18849,-4.2278 -9.40049,-7.17636 -14.99881,-8.49906z" data-paper-data="{&quot;index&quot;:null}" fill="url(#color-14)"/><path d="M231.41839,73.73914c-0.05294,-0.48482 -2.05059,-2.18142 -2.58269,-2.74073c-6.49272,-6.82424 -12.1902,-14.58432 -19.38467,-20.5708c-0.67962,-0.56553 -3.43039,0.85985 -4.78218,1.20521c-8.27837,2.11504 -16.91311,3.10145 -24.85593,6.26421c-1.01701,0.40499 -1.94694,1.13059 -2.79464,2.11378c0.48304,-7.05931 4.50822,-14.58978 10.6064,-21.4442c7.72276,5.90239 17.8146,8.05622 27.37983,4.88609c12.34715,-4.0921 20.18622,-15.85202 20.49412,-28.82521c12.05947,-0.41654 23.73385,2.93322 31.99088,8.85012c-4.90794,-1.05466 -10.09304,-0.86215 -15.132,0.80787c-15.90095,5.26989 -24.32527,23.25674 -18.81622,40.17477c1.36673,4.19716 3.46264,7.93427 6.08462,11.10079c-3.61504,2.84365 -6.5032,6.50539 -8.51101,10.65772c0.55197,-4.9837 0.63676,-9.42889 0.30359,-12.47963z" data-paper-data="{&quot;index&quot;:null}" fill="url(#color-15)"/><path d="M244.62195,94.31957c-47.28725,18.10405 -61.12751,-9.49103 -66.80264,-27.29241c-0.24669,-0.77378 -0.43784,-1.55945 -0.57588,-2.35512c1.99865,5.64517 5.87877,11.03368 9.24486,14.66693c0.34789,0.3755 0.70585,0.74554 1.0736,1.11006c6.96057,11.56588 20.17201,17.71178 32.92482,14.78727c10.89357,1.41809 21.86815,0.07974 30.04205,-4.72986c14.09676,-8.29471 27.08697,-14.77562 18.81622,-40.17477c-3.35087,-10.29043 -13.91536,-17.02288 -23.12371,-22.03271c-5.3678,-2.92036 -11.92774,3.1015 -17.77322,1.64805c-4.25712,-4.81963 -9.7694,-8.20817 -15.74966,-9.73732c2.45858,-1.12905 4.95498,-2.11096 7.45783,-2.92107c8.99559,-2.91176 18.51243,-3.35516 27.22041,-1.85631c0.12442,0.44081 0.25817,0.88115 0.4013,1.3207c4.65047,14.28147 17.74328,23.23602 31.27636,22.51007c0.72338,1.90567 1.74697,5.14419 2.22709,9.19733c-5.98049,6.91533 -8.80596,16.56133 -7.25204,26.32366c-5.47714,7.11128 -14.60524,14.03733 -29.40759,19.53514z" data-paper-data="{&quot;index&quot;:null}" fill="url(#color-16)"/></g><g data-paper-data="{&quot;index&quot;:null}"><path d="M173.10065,18.58372c-0.81765,0.23606 -2.91351,0.87699 -5.15081,1.72251c-2.36129,1.50876 -5.14796,3.11373 -7.21608,4.68058c-0.57411,4.64656 5.56071,8.11078 -0.8704,12.74476c-10.96926,7.90224 -10.33367,-8.37023 -7.26302,-14.03248c5.18206,-6.62036 14.23345,-9.03759 21.83985,-12.07544c10.47733,-4.18416 20.45947,-9.44384 31.08942,-12.17152c0.32304,-0.50047 0.82148,-0.88998 1.43836,-1.06751l2.8221,-0.81172c1.37411,-0.65937 2.87012,-1.35894 4.45012,-2.05149c4.03541,-2.16866 9.06825,-3.86138 13.79515,-5.24065c2.27153,-0.91817 4.44192,-1.56156 6.30268,-1.74912c1.32262,-0.35764 2.55301,-0.69107 3.64816,-1.0068l2.97464,-0.8561c1.35482,-0.38977 2.76884,0.392 3.1592,1.74735c0.34685,1.20614 -0.23448,2.45891 -1.32129,2.99508l-1.52345,0.78923c0.82512,0.46033 1.60147,1.01896 2.31898,1.68593l1.0346,-0.80499l2.0104,2.58669c0.21101,0.25917 0.37494,0.56441 0.47359,0.90613c0.38977,1.35482 -0.392,2.76885 -1.74734,3.15922c-0.41176,0.11865 -0.83032,0.12923 -1.22244,0.04767l-2.67159,-0.49573l0.01479,-0.07864l-0.23789,0.02679c-1.98494,-0.75485 -3.94928,-1.23432 -5.85984,-1.44662c-2.76021,0.42961 -5.70134,0.68471 -8.68675,1.0109c-4.80677,1.81221 -8.71612,5.75553 -10.92717,11.61096c0,0 -0.90722,2.386 -3.29332,1.47912c-2.38601,-0.90722 -1.47912,-3.29333 -1.47912,-3.29333c0.1945,-0.50813 0.4002,-1.00624 0.61736,-1.49251l-1.30591,0.71135c-0.1737,0.09905 -0.36277,0.18012 -0.56357,0.23816c-1.35482,0.38977 -2.76884,-0.392 -3.1592,-1.74735c-0.19743,-0.68585 -0.09477,-1.38653 0.23086,-1.96245c-1.20075,0.23348 -2.32195,0.51753 -3.24079,0.94119c-6.4176,2.95952 -16.66194,5.50448 -26.13735,8.88328c0.28252,1.17097 -0.29629,2.36572 -1.35067,2.8855l-2.76158,1.42973l-0.04624,-0.08938l-0.03483,0.01659z" fill="url(#color-17)" stroke="none" stroke-width="0.5"/><path d="M243.53519,-13.93554c13.00477,-3.94757 12.92832,-3.72645 15.70762,5.03794c2.77942,8.76399 -0.65982,17.20921 -7.68097,18.86222c-7.02131,1.65265 -14.96644,-4.11342 -17.74562,-12.87769c-2.77945,-8.76401 -2.47584,-7.32059 9.71917,-11.02276z" data-paper-data="{&quot;index&quot;:null}" fill="url(#color-18)" stroke="#000000" stroke-width="0"/><path d="M213.62915,5.44464c3.63056,9.41992 -2.04411,20.37764 -12.67502,24.47395c-10.63042,4.09719 -22.19142,-0.21797 -25.82147,-9.6377c-3.63057,-9.41994 -3.91547,-9.54402 16.51196,-16.39753c19.15536,-6.42707 18.35338,-7.85862 21.98421,1.56129z" fill="url(#color-19)" stroke="#000000" stroke-width="0"/></g></g><g data-paper-data="{&quot;index&quot;:null}" stroke-width="0"><path d="M294.72218,399.95812c0,0 -9.41683,2.60817 -16.34674,1.57997c-5.9661,-0.88459 -9.1066,-5.42662 -14.25718,-5.43791c-2.55107,-0.00579 -9.51747,2.51646 -13.12708,2.62171c-4.77536,0.13895 -13.44016,3.86856 -18.41287,3.1592c-6.2213,-0.88678 -8.81206,-6.26697 -15.41093,-6.17634c-14.53055,0.1995 -28.8,4.01986 -28.8,4.01986c0,0 1.11399,-29.81294 -0.1972,-53.79c-1.27161,-23.26373 -4.96149,-40.46454 -5.51716,-56.1754c-0.62782,-17.75666 -0.48394,-65.32681 -0.48394,-65.32681c0,0 21.72426,-2.12502 32.11946,0.2511c9.85177,2.2524 28.70899,13.65354 28.70899,13.65354c0,0 24.60665,-11.7285 36.30975,-14.01141c9.19337,-1.79373 28.21364,1.42453 28.21364,1.42453c0,0 -0.03925,44.90658 -1.81256,69.04977c-0.94465,12.86311 -6.55024,29.8405 -8.57149,48.70113c-2.97476,27.75704 -2.41381,56.45789 -2.41381,56.45789z" fill="#d1b0b0" stroke="#292e32"/><path d="M189.6061,278.45897l0.28277,-26.90828l39.44353,-1.46317l-0.94123,30.03037z" fill="#f200ff" stroke="none"/><path d="M228.79555,267.217c-5.70093,-4.93481 -13.09998,-7.9728 -21.22859,-8.11176c-1.96355,-0.03357 -3.8903,0.10339 -5.76618,0.39718c2.72632,-2.47342 5.04269,-5.39345 6.83222,-8.64713l20.69945,-0.76782z" fill="#eeff00" stroke="none"/><path d="M195.9279,278.72934c1.21163,-3.35948 1.89967,-6.97254 1.96412,-10.74253c0.10265,-6.00583 -1.38994,-11.66769 -4.08716,-16.5814l25.87009,-0.95964c-8.94377,6.68024 -14.50435,17.50653 -14.20686,28.69167z" fill="#00ff5f" stroke="none"/><path d="M195.64873,278.71736c-0.60408,-2.00222 -1.3918,-3.92601 -2.34383,-5.75142c4.8529,-1.47712 9.24257,-4.03358 12.88397,-7.39396c3.87495,6.54599 9.92914,11.66143 17.18158,14.33114l-27.72174,-1.18576z" fill="#004fff" stroke="none"/><path d="M220.83774,279.79475c1.71925,-3.92352 2.70575,-8.24577 2.78355,-12.79665c0.10243,-5.99217 -1.38316,-11.64197 -4.06879,-16.54786l9.78,-0.36276l-0.94123,30.03043z" fill="#ff0000" stroke="none"/><path d="M189.77485,262.40881c3.26643,4.14278 7.49704,7.49525 12.36035,9.71437c0.38161,2.41201 1.02256,4.73956 1.8939,6.95266l-14.42288,-0.61693l0.16865,-16.05015z" fill="#00efff" stroke="none"/><path d="M207.37067,250.90221c-9.65968,5.51866 -16.31304,15.73888 -16.79144,27.59837l-0.97301,-0.04163l0.28275,-26.90829z" fill="#9c00ff" stroke="none"/></g><path d="M186.01038,158.99724c3.19381,14.8519 8.82504,40.08008 8.82504,40.08008c0,0 19.1451,37.06776 -20.48908,43.97355c-6.32755,1.10251 -14.51559,-35.54493 -14.51559,-35.54493c0,0 -4.26799,-17.57403 -7.27154,-31.54345c-3.21569,-15.80592 29.27267,-31.1469 33.45119,-16.96528z" fill="#b8bda6" stroke="#000000" stroke-width="0"/><path d="M189.84864,87.66435c0,0 -5.07821,15.18813 -3.71924,33.67946c0.32677,4.44686 1.3072,41.40337 1.69401,45.96962c0.78581,17.47642 -34.9606,10.90339 -34.94584,-5.33213c-0.05102,-4.2885 5.39576,-39.43938 6.47714,-50.68911c1.80018,-18.73001 0.59091,-30.26051 0.59091,-30.26051z" data-paper-data="{&quot;index&quot;:null}" fill="#b8bda6" stroke="#000000" stroke-width="0"/><path d="M158.89358,81.65028c1.32726,0.2749 2.29621,-19.4303 7.97308,-18.61215c2.79223,0.40238 -1.24806,12.75593 2.11006,17.5336c1.77772,2.52947 0.27373,-22.59461 7.34886,-19.2602c2.42869,1.14453 -1.48372,18.84915 0.69522,23.43118c1.16663,2.45259 2.74699,-27.30597 7.51877,-25.31453c2.83254,1.1825 -1.86198,17.18341 -0.70698,24.7469c0.56316,3.6848 4.69484,-19.87013 8.05487,-17.78205c2.05649,1.27809 -0.57119,24.47721 -0.36059,24.76628c1.18301,1.62497 7.47434,-11.90337 8.79514,-8.32413c2.43443,6.59595 -4.44001,13.36053 -9.98184,19.81298c-3.23865,3.77023 -4.17137,9.90644 -4.17137,9.90644c0,0 -10.67183,1.2963 -15.71767,0.1639c-4.91325,-1.10191 -14.16903,-6.8691 -14.16903,-6.8691c0,0 -0.19957,-24.78122 2.61117,-24.19855z" data-paper-data="{&quot;index&quot;:null}" fill="#786274" stroke="#000000" stroke-width="0"/></g></g></svg>