<svg version="1.1" xmlns="http://www.w3.org/2000/svg" xmlns:xlink="http://www.w3.org/1999/xlink" width="361.17186" height="436.26023" viewBox="0,0,361.17186,436.26023"><defs><linearGradient x1="217.33334" y1="68.896" x2="262.66666" y2="68.896" gradientUnits="userSpaceOnUse" id="color-1"><stop offset="0" stop-color="#cdd3da"/><stop offset="1" stop-color="#9da3ab"/></linearGradient><linearGradient x1="208.83333" y1="173.89601" x2="271.16667" y2="173.89601" gradientUnits="userSpaceOnUse" id="color-2"><stop offset="0" stop-color="#b2b8bd"/><stop offset="1" stop-color="#8c9298"/></linearGradient><linearGradient x1="207.5" y1="178.22935" x2="272.5" y2="178.22935" gradientUnits="userSpaceOnUse" id="color-3"><stop offset="0" stop-color="#777c7f"/><stop offset="1" stop-color="#5f6368"/></linearGradient><radialGradient cx="223.42059" cy="-64.58705" r="24.95866" gradientUnits="userSpaceOnUse" id="color-4"><stop offset="0" stop-color="#bec4ca"/><stop offset="1" stop-color="#8c9098"/></radialGradient><linearGradient x1="257.75933" y1="-39.73466" x2="267.40458" y2="-35.58511" gradientUnits="userSpaceOnUse" id="color-5"><stop offset="0" stop-color="#f0f7ff"/><stop offset="1" stop-color="#afb6be"/></linearGradient><linearGradient x1="266.14204" y1="-36.12829" x2="413.99535" y2="27.48032" gradientUnits="userSpaceOnUse" id="color-6"><stop offset="0" stop-color="#f0f7ff"/><stop offset="1" stop-color="#afb6be"/></linearGradient><linearGradient x1="398.08142" y1="21.2445" x2="433.72119" y2="36.57724" gradientUnits="userSpaceOnUse" id="color-7"><stop offset="0" stop-color="#cbe3ff"/><stop offset="1" stop-color="#86a1bf"/></linearGradient><linearGradient x1="225.78464" y1="-35.81512" x2="217.35304" y2="-29.55745" gradientUnits="userSpaceOnUse" id="color-8"><stop offset="0" stop-color="#f0f7ff"/><stop offset="1" stop-color="#afb6be"/></linearGradient><linearGradient x1="218.45673" y1="-30.37659" x2="89.20811" y2="65.54763" gradientUnits="userSpaceOnUse" id="color-9"><stop offset="0" stop-color="#f0f7ff"/><stop offset="1" stop-color="#afb6be"/></linearGradient><linearGradient x1="103.26004" y1="55.81721" x2="72.10492" y2="78.93954" gradientUnits="userSpaceOnUse" id="color-10"><stop offset="0" stop-color="#cbe3ff"/><stop offset="1" stop-color="#86a1bf"/></linearGradient><linearGradient x1="238.64587" y1="-65.74652" x2="237.69147" y2="-76.20307" gradientUnits="userSpaceOnUse" id="color-11"><stop offset="0" stop-color="#f0f7ff"/><stop offset="1" stop-color="#afb6be"/></linearGradient><linearGradient x1="237.8164" y1="-74.83431" x2="223.18637" y2="-235.12348" gradientUnits="userSpaceOnUse" id="color-12"><stop offset="0" stop-color="#f0f7ff"/><stop offset="1" stop-color="#afb6be"/></linearGradient><linearGradient x1="225.29767" y1="-218.16234" x2="221.77112" y2="-256.79973" gradientUnits="userSpaceOnUse" id="color-13"><stop offset="0" stop-color="#cbe3ff"/><stop offset="1" stop-color="#86a1bf"/></linearGradient><radialGradient cx="247.17772" cy="-45.31086" r="20.5" gradientUnits="userSpaceOnUse" id="color-14"><stop offset="0" stop-color="#e6eef5"/><stop offset="1" stop-color="#c4cad5"/></radialGradient></defs><g transform="translate(-72.26302,256.36422)"><g data-paper-data="{&quot;isPaintingLayer&quot;:true}" fill-rule="nonzero" stroke="none" stroke-width="0" stroke-linecap="butt" stroke-linejoin="miter" stroke-miterlimit="10" stroke-dasharray="" stroke-dashoffset="0" style="mix-blend-mode: normal"><path d="M217.33334,171.22934l8.33333,-204.66667h28.66666l8.33333,204.66667z" fill="url(#color-1)"/><path d="M208.83333,176.89601v-6h62.33333v6z" fill="url(#color-2)"/><path d="M207.5,179.89601v-3.33333h65v3.33333z" fill="url(#color-3)"/><path d="M215.83335,-28.47866c0,-5.48483 0,-26.33483 0,-37c0,-3.59358 3.15873,-6.91731 6.33333,-6.91731c5.84411,0 25.85484,0 36,0c3.63233,0 6,3.22824 6,6.25065c0,10.40972 0,32.86094 0,38.66667c0,2.49943 -1.92973,5 -5,5c-10.75875,0 -34.18908,0 -39,0c-1.59078,0 -4.33333,-3.64513 -4.33333,-6z" fill="url(#color-4)"/><g><g data-paper-data="{&quot;index&quot;:null}"><path d="M254.99297,-33.30447l5.53271,-12.86036l9.64527,4.14954l-5.53273,12.86037z" fill="url(#color-5)"/><path d="M262.23649,-27.05014l7.81109,-18.15629l130.24121,61.86198l-4.03154,9.371z" fill="url(#color-6)"/><path d="M396.04046,25.98859l4.08194,-9.48813c0,0 34.37939,17.19369 33.28699,19.73443c-1.33158,3.09705 -37.3689,-10.24629 -37.3689,-10.24629z" fill="url(#color-7)"/></g><g data-paper-data="{&quot;index&quot;:null}"><path d="M221.52482,-23.93638l-8.34355,-11.24212l8.43159,-6.25767l8.34354,11.24212z" fill="url(#color-8)"/><path d="M106.13565,60.05114l-6.07971,-8.19183l112.51106,-90.17172l11.77942,15.87165z" fill="url(#color-9)"/><path d="M72.32956,78.53462c-1.64774,-2.22119 27.85263,-26.86453 27.85263,-26.86453l6.1557,8.29422c0,0 -31.99982,21.27784 -34.00832,18.57032z" fill="url(#color-10)"/></g><g data-paper-data="{&quot;index&quot;:null}"><path d="M245.61688,-66.38278l-13.94204,1.27254l-0.95439,-10.45655l13.94205,-1.27253z" fill="url(#color-11)"/><path d="M247.65809,-75.73259l-19.6834,1.79656l-7.76317,-143.97712l10.15919,-0.92726z" fill="url(#color-12)"/><path d="M221.61898,-256.36237c3.35714,-0.30717 8.82176,37.73061 8.82176,37.73061l-10.28617,0.93886c0,0 -1.28973,-38.41748 1.4644,-38.66947z" fill="url(#color-13)"/></g><path d="M224.87647,-33.83824c-7.3471,-8.61417 -6.31996,-21.55335 2.29423,-28.90046c8.61417,-7.3471 21.55335,-6.31996 28.90046,2.29423c7.3471,8.61417 6.31996,21.55335 -2.29423,28.90046c-8.61417,7.3471 -21.55335,6.31996 -28.90046,-2.29423z" data-paper-data="{&quot;index&quot;:null}" fill="url(#color-14)"/></g></g></g></svg>