<svg version="1.1" xmlns="http://www.w3.org/2000/svg" xmlns:xlink="http://www.w3.org/1999/xlink" width="88.08802" height="105.11049" viewBox="0,0,88.08802,105.11049"><defs><radialGradient cx="238.34926" cy="177.33115" r="22.57159" gradientUnits="userSpaceOnUse" id="color-1"><stop offset="0" stop-color="#3c3c3c"/><stop offset="1" stop-color="#939393"/></radialGradient><linearGradient x1="239.4427" y1="155.63777" x2="239.48375" y2="162.48869" gradientUnits="userSpaceOnUse" id="color-2"><stop offset="0" stop-color="#696969"/><stop offset="1" stop-color="#a0a0a0"/></linearGradient><radialGradient cx="235.27102" cy="133.01016" r="13.11833" gradientUnits="userSpaceOnUse" id="color-3"><stop offset="0" stop-color="#dcdcdc"/><stop offset="1" stop-color="#a0a0a0"/></radialGradient><radialGradient cx="240.89985" cy="139.86115" r="9.85359" gradientUnits="userSpaceOnUse" id="color-4"><stop offset="0" stop-color="#c5dfff"/><stop offset="1" stop-color="#219cff"/></radialGradient><radialGradient cx="230.04253" cy="133.65583" r="10.07074" gradientUnits="userSpaceOnUse" id="color-5"><stop offset="0" stop-color="#303030"/><stop offset="1" stop-color="#292929"/></radialGradient><radialGradient cx="246.45129" cy="130.37761" r="2.65078" gradientUnits="userSpaceOnUse" id="color-6"><stop offset="0" stop-color="#787878"/><stop offset="1" stop-color="#292929"/></radialGradient><radialGradient cx="235.31217" cy="132.60942" r="4.17314" gradientUnits="userSpaceOnUse" id="color-7"><stop offset="0" stop-color="#a7a7a7"/><stop offset="1" stop-color="#292929"/></radialGradient><linearGradient x1="255.65127" y1="195.54403" x2="263.16381" y2="186.2369" gradientUnits="userSpaceOnUse" id="color-8"><stop offset="0" stop-color="#242424"/><stop offset="1" stop-color="#373737"/></linearGradient><radialGradient cx="252.27931" cy="194.51379" r="3.52256" gradientUnits="userSpaceOnUse" id="color-9"><stop offset="0" stop-color="#bfbfbf"/><stop offset="1" stop-color="#9a9a9a"/></radialGradient><linearGradient x1="264.77999" y1="186.73498" x2="301.05191" y2="159.3702" gradientUnits="userSpaceOnUse" id="color-10"><stop offset="0" stop-color="#b2b2b2"/><stop offset="1" stop-color="#c4c4c4"/></linearGradient><linearGradient x1="265.23559" y1="186.84143" x2="288.9762" y2="168.93072" gradientUnits="userSpaceOnUse" id="color-11"><stop offset="0" stop-color="#cccccc"/><stop offset="1" stop-color="#d8d8d8"/></linearGradient><linearGradient x1="262.52529" y1="187.93313" x2="264.49908" y2="186.49808" gradientUnits="userSpaceOnUse" id="color-12"><stop offset="0" stop-color="#b5b5b5"/><stop offset="1" stop-color="#c5c5c5"/></linearGradient></defs><g transform="translate(-218.71487,-129.2159)"><g data-paper-data="{&quot;isPaintingLayer&quot;:true}" fill-rule="nonzero" stroke-linejoin="miter" stroke-miterlimit="10" stroke-dasharray="" stroke-dashoffset="0" style="mix-blend-mode: normal"><path d="M223.51706,199.99201l-0.27046,-45.14238l29.93484,-0.17935l0.27046,45.14238z" fill="url(#color-1)" stroke="#ed6b00" stroke-width="0" stroke-linecap="butt"/><g><path d="M226.12337,227.23573l3.75904,-33.71008c0,0 6.75518,-2.18267 9.822,-2.18267c3.62872,0 0.6063,4.24407 0.6063,4.24407c0,0 -3.09204,0.08829 -3.39803,1.52409c-0.93579,4.39099 -2.78619,30.12458 -2.78619,30.12458z" fill="#494949" stroke="#000000" stroke-width="0" stroke-linecap="butt"/><path d="M218.71488,232.15169c0,0 0.61145,-1.46541 0.87307,-1.98866c0.21362,-0.42723 1.67337,-1.04283 1.67337,-1.04283c0,0 2.87078,-0.52826 4.24057,-0.6468c2.3149,-0.20032 8.24914,-0.08075 8.24914,-0.08075c0,0 0.18654,1.78201 0.16433,2.53701c-0.01648,0.56041 -0.2856,1.5858 -0.2856,1.5858c0,0 -0.80978,0.42493 -2.37463,0.77781c-0.84924,0.19151 -2.6127,-0.20879 -3.78777,-0.02896c-0.93338,0.14284 -1.58295,0.71166 -2.83553,0.76063c-2.06025,0.08055 -4.1116,0.06689 -4.70436,0.06689c-0.8269,0 -1.2126,-1.94015 -1.2126,-1.94015z" data-paper-data="{&quot;index&quot;:null}" fill="#141415" stroke="#000000" stroke-width="0" stroke-linecap="butt"/><path d="M218.98577,231.51703c0,0 0.36892,-2.43548 0.63055,-2.95873c0.21362,-0.42723 1.67337,-1.04283 1.67337,-1.04283c0,0 3.23456,-0.52826 4.60434,-0.6468c0.23296,-0.02016 0.35598,-3.60004 0.35598,-3.60004c0,0 3.28733,0.24389 3.72275,0.23408c0.80976,-0.01824 -0.72604,3.24957 0.12091,3.24981c0.48368,0.00014 2.04996,0.7565 2.80058,0.01889c0.83894,-0.82441 1.32529,-3.03123 1.32529,-3.03123l-0.07637,3.04773c0,0 0.06762,0.96834 -0.80847,1.8858c-0.59976,0.62808 -0.39071,1.79073 -1.26542,2.3793c-1.27187,0.85581 -1.43643,0.91707 -1.78458,0.97035c-0.99967,0.15299 -1.27796,-0.61058 -3.58733,-0.44204c-1.10442,0.0806 -0.74527,1.01524 -3.8809,1.26883c-3.3205,0.26854 -2.36989,-1.33311 -2.61811,-1.33311c-0.8269,0 -1.21259,0 -1.21259,0z" data-paper-data="{&quot;index&quot;:null}" fill="#252527" stroke="#000000" stroke-width="0" stroke-linecap="butt"/><path d="M225.00075,227.48709l2.66771,1.09134" data-paper-data="{&quot;index&quot;:null}" fill="none" stroke="#ffffff" stroke-width="0.5" stroke-linecap="round"/><path d="M223.18187,227.4871l2.54644,1.45511" data-paper-data="{&quot;index&quot;:null}" fill="none" stroke="#ffffff" stroke-width="0.5" stroke-linecap="round"/><path d="M223.54565,229.18473l-1.45512,-1.45512" data-paper-data="{&quot;index&quot;:null}" fill="none" stroke="#ffffff" stroke-width="0.5" stroke-linecap="round"/><path d="M228.88106,224.69814l-2.18267,-0.24252" data-paper-data="{&quot;index&quot;:null}" fill="none" stroke="#969696" stroke-width="0.5" stroke-linecap="round"/><path d="M226.45587,225.18317l1.94015,0.36378" data-paper-data="{&quot;index&quot;:null}" fill="none" stroke="#969696" stroke-width="0.5" stroke-linecap="round"/></g><g><path d="M245.93091,227.32045c0,0 -1.8504,-25.73359 -2.78619,-30.12458c-0.30599,-1.4358 -3.39803,-1.52409 -3.39803,-1.52409c0,0 -3.02242,-4.24407 0.6063,-4.24407c3.06682,0 9.822,2.18267 9.822,2.18267l3.75904,33.71008z" data-paper-data="{&quot;index&quot;:null}" fill="#494949" stroke="#000000" stroke-width="0" stroke-linecap="butt"/><path d="M259.69259,234.32551c-0.59276,0 -2.64411,0.01365 -4.70436,-0.0669c-1.25258,-0.04897 -1.90215,-0.61779 -2.83553,-0.76063c-1.17507,-0.17982 -2.93854,0.22047 -3.78778,0.02896c-1.56485,-0.35288 -2.37463,-0.77782 -2.37463,-0.77782c0,0 -0.26911,-1.0254 -0.2856,-1.5858c-0.02221,-0.75501 0.16433,-2.53701 0.16433,-2.53701c0,0 5.93425,-0.11957 8.24914,0.08076c1.36979,0.11854 4.24057,0.6468 4.24057,0.6468c0,0 1.45976,0.6156 1.67337,1.04283c0.26162,0.52325 0.87307,1.98865 0.87307,1.98865c0,0 -0.3857,1.94015 -1.21259,1.94015z" data-paper-data="{&quot;index&quot;:null}" fill="#141415" stroke="#000000" stroke-width="0" stroke-linecap="butt"/><path d="M259.4217,231.7507c-0.24822,0 0.7024,1.60165 -2.61811,1.33311c-3.13563,-0.25358 -2.77648,-1.18823 -3.8809,-1.26883c-2.30937,-0.16854 -2.58765,0.59503 -3.58732,0.44205c-0.34815,-0.05328 -0.51271,-0.11454 -1.78459,-0.97035c-0.87472,-0.58857 -0.66566,-1.75122 -1.26542,-2.3793c-0.87609,-0.91745 -0.80847,-1.8858 -0.80847,-1.8858l-0.07637,-3.04773c0,0 0.48635,2.20681 1.32529,3.03122c0.75062,0.73761 2.3169,-0.01875 2.80058,-0.01889c0.84696,-0.00024 -0.68885,-3.26804 0.12091,-3.2498c0.43542,0.00981 3.72275,-0.23409 3.72275,-0.23409c0,0 0.12302,3.57989 0.35598,3.60005c1.36979,0.11854 4.60434,0.6468 4.60434,0.6468c0,0 1.45976,0.6156 1.67338,1.04283c0.26162,0.52325 0.63055,2.95873 0.63055,2.95873c0,0 -0.3857,0 -1.2126,0z" data-paper-data="{&quot;index&quot;:null}" fill="#252527" stroke="#000000" stroke-width="0" stroke-linecap="butt"/><path d="M254.6193,227.72077l-2.6677,1.09133" fill="none" stroke="#ffffff" stroke-width="0.5" stroke-linecap="round"/><path d="M253.89175,229.17588l2.54645,-1.45511" fill="none" stroke="#ffffff" stroke-width="0.5" stroke-linecap="round"/><path d="M256.07442,229.4184l1.45512,-1.45511" fill="none" stroke="#ffffff" stroke-width="0.5" stroke-linecap="round"/><path d="M250.73901,224.93181l2.18266,-0.24252" fill="none" stroke="#969696" stroke-width="0.5" stroke-linecap="round"/><path d="M253.1642,225.41684l-1.94015,0.36378" fill="none" stroke="#969696" stroke-width="0.5" stroke-linecap="round"/></g><g stroke="#000000" stroke-width="0" stroke-linecap="butt"><path d="M258.17458,187.38378c0,0 -0.15579,-3.01774 -1.43216,-6.28714c-0.30693,-0.7862 -1.14354,-3.41529 -1.46615,-4.21991c-0.76348,-1.90435 -1.58287,-3.76637 -2.02467,-4.94505c-0.95024,-2.53515 -2.08541,-5.77311 -2.08541,-5.77311c0,0 -2.07734,-6.39628 -1.16657,-6.87355c5.32649,-2.7913 6.28518,4.733 6.28518,4.733c0,0 1.69066,4.5988 2.70093,7.29416c0.41116,1.09694 0.19576,2.12229 0.77136,3.84516c0.25803,0.7723 0.92984,4.22776 1.43138,6.31914c0.83504,3.48208 1.68316,5.50132 1.68316,5.50132z" data-paper-data="{&quot;index&quot;:null}" fill="#bdbdbd"/><path d="M263.91948,191.38091c-0.20723,0.02213 0.81169,3.63366 -0.05366,3.79303c-0.42563,0.07838 -0.57032,-2.37147 -1.33462,-3.05273c-0.40456,-0.36061 1.28902,4.09578 0.07437,3.87635c-0.41699,-0.07535 -0.89455,-3.48483 -1.47767,-4.19445c-0.31215,-0.37988 1.20989,5.08054 0.4058,4.97905c-0.47733,-0.06025 -0.7422,-3.20432 -1.35317,-4.50794c-0.29765,-0.63509 0.49234,3.84297 -0.11421,3.64763c-0.37128,-0.11957 -1.35691,-4.45189 -1.40421,-4.49272c-0.26581,-0.22952 -0.37622,2.55432 -0.77681,1.97937c-0.73828,-1.05963 -0.14617,-2.65337 0.27228,-4.11866c0.24451,-0.85611 0.0181,-2.0149 0.0181,-2.0149c0,0 1.46027,-0.81152 2.25328,-0.88006c0.77213,-0.06674 2.44379,0.47406 2.44379,0.47406c0,0 1.48572,4.46509 1.04671,4.51198z" data-paper-data="{&quot;index&quot;:null}" fill="#777777"/></g><g stroke-linecap="butt"><path d="M235.65573,162.51163l-0.04104,-6.85092l7.65601,-0.04587l0.04104,6.85092z" fill="url(#color-2)" stroke="#000000" stroke-width="0"/><path d="M252.42962,143.13714c0.04631,7.73078 -5.65377,14.0322 -12.73151,14.07459c-7.07773,0.04241 -12.85292,-6.19027 -12.89923,-13.92104c-0.04631,-7.73078 5.65377,-14.03219 12.73151,-14.07458c7.07773,-0.04241 12.85292,6.19026 12.89923,13.92103z" fill="url(#color-3)" stroke="none" stroke-width="0"/><path d="M253.71429,142.51009c0.02244,3.74479 0.08761,8.21338 -9.54323,8.7488c-10.75933,0.59815 -10.1333,-4.88597 -10.15572,-8.63078c-0.02244,-3.74479 4.36914,-6.80698 9.80888,-6.83956c5.43972,-0.03259 9.86768,2.97674 9.89012,6.72154z" data-paper-data="{&quot;index&quot;:null}" fill="url(#color-4)" stroke="#ed6b00" stroke-width="0"/><path d="M232.73294,133.64924c-0.16974,0.01654 -0.60623,0.06584 -1.07814,0.15027c-0.5206,0.21055 -1.12853,0.42449 -1.59362,0.65727c-0.28373,0.89448 0.7979,1.80227 -0.63938,2.47908c-2.45125,1.15428 -1.72873,-2.02856 -0.91587,-3.03142c1.26404,-1.11412 3.13611,-1.25822 4.7463,-1.57746c2.21789,-0.43975 4.37777,-1.10959 6.5723,-1.25677c0.08197,-0.08672 0.19448,-0.14527 0.32259,-0.15763l0.58579,-0.05641c0.29492,-0.0795 0.61541,-0.1623 0.95212,-0.24078c0.87479,-0.27919 1.92847,-0.4278 2.91043,-0.52611c0.48123,-0.0975 0.93245,-0.14448 1.30603,-0.11319c0.27376,-0.02189 0.52836,-0.04248 0.75573,-0.06439l0.61753,-0.05947c0.28127,-0.02709 0.53122,0.17896 0.5583,0.46022c0.0241,0.25034 -0.13646,0.47587 -0.37038,0.54154l-0.32909,0.09943c0.14572,0.12094 0.27812,0.25946 0.39494,0.41734l0.23342,-0.12048l0.30115,0.58342c0.03212,0.05884 0.05313,0.125 0.05997,0.19594c0.02709,0.28127 -0.17896,0.53122 -0.46021,0.55829c-0.08554,0.00823 -0.16817,-0.00508 -0.24254,-0.03553l-0.5082,-0.19574l0.00576,-0.01495l-0.04789,-0.00348c-0.36342,-0.22157 -0.73281,-0.3881 -1.1014,-0.50019c-0.55958,-0.0167 -1.14847,-0.07433 -1.74864,-0.11973c-1.01358,0.18057 -1.92856,0.81404 -2.57915,1.88646c0,0 -0.26632,0.43684 -0.70315,0.17051c-0.43683,-0.26632 -0.17052,-0.70316 -0.17052,-0.70316c0.05695,-0.093 0.11577,-0.18347 0.17637,-0.2714l-0.28337,0.09223c-0.03792,0.01322 -0.07803,0.02216 -0.1198,0.02618c-0.28127,0.02709 -0.53122,-0.17896 -0.55829,-0.46022c-0.01371,-0.14235 0.03229,-0.27667 0.11754,-0.37814c-0.2451,0.00196 -0.47651,0.01669 -0.67312,0.06644c-1.37319,0.34747 -3.48487,0.47288 -5.47594,0.79068c0.01265,0.24118 -0.14522,0.45523 -0.37205,0.51892l-0.59656,0.18023l-0.00583,-0.01927l-0.00746,0.00198z" fill="url(#color-5)" stroke="none" stroke-width="0.5"/><path d="M247.80436,129.82785c2.7072,-0.3004 2.68408,-0.25958 2.90989,1.56932c0.22581,1.82889 -0.76179,3.36649 -2.20585,3.43429c-1.44408,0.06782 -2.79779,-1.35982 -3.0236,-3.18872c-0.22581,-1.82889 -0.21902,-1.5332 2.31958,-1.8149z" data-paper-data="{&quot;index&quot;:null}" fill="url(#color-6)" stroke="#000000" stroke-width="0"/><path d="M241.20052,132.54832c0.36947,1.98924 -1.15085,3.93987 -3.39576,4.35682c-2.24489,0.41695 -4.36426,-0.85764 -4.73373,-2.84688c-0.36947,-1.98924 -0.42101,-2.02413 3.85536,-2.62457c4.01004,-0.56305 3.90466,-0.87459 4.27413,1.11465z" fill="url(#color-7)" stroke="#000000" stroke-width="0"/></g><path d="M229.55961,193.22073c0,0 0.13378,-5.5606 -0.41824,-10.94151c-0.37508,-3.65629 -1.4464,-6.95065 -1.61822,-9.44386c-0.32251,-4.67948 -0.29067,-13.38073 -0.29067,-13.38073c0,0 3.68821,-0.60687 5.468,-0.25133c2.26556,0.45258 7.02314,2.74664 7.02314,2.74664c0,0 3.66382,-2.1926 5.57472,-2.62031c2.01624,-0.4513 6.22368,-0.02053 6.22368,-0.02053c0,0 -0.01383,9.21736 -0.15106,12.65742c-0.12142,3.04363 -0.8514,6.37332 -1.1183,10.87982c-0.27508,4.64469 -0.0854,10.42224 -0.0854,10.42224c0,0 -2.76154,-0.75279 -5.57678,-0.80414c-1.2785,-0.02332 -1.78519,1.01683 -2.99147,1.18327c-0.96418,0.13302 -2.63985,-0.59711 -3.5649,-0.62832c-0.6993,-0.0236 -2.04691,-0.51835 -2.54117,-0.51949c-0.99798,-0.00233 -1.61051,0.87495 -2.76726,1.04124c-1.34371,0.19316 -3.16608,-0.32042 -3.16608,-0.32042z" fill="#d0d0d0" stroke="#292e32" stroke-width="0" stroke-linecap="butt"/><path d="M242.51717,170.05839l-0.15613,-5.81962l7.64139,0.318l0.03124,5.21406z" fill="#f200ff" stroke="none" stroke-width="0" stroke-linecap="butt"/><g stroke="none" stroke-width="0" stroke-linecap="butt"><path d="M256.50601,196.23397l-3.03227,-4.01605l8.8353,-6.67093l3.03227,4.01606z" fill="url(#color-8)"/><path d="M256.14059,192.13369c1.51381,1.22194 1.75045,3.43971 0.52852,4.9535c-1.22193,1.51383 -3.43971,1.75045 -4.95351,0.52852c-1.51383,-1.22194 -1.75046,-3.4397 -0.52852,-4.95351c1.22193,-1.51383 3.43971,-1.75045 4.95352,-0.52852z" fill="url(#color-9)"/><path d="M267.58109,190.4478l-5.60225,-7.42575l37.15634,-25.65313l7.6677,-2.8227l-4.60949,6.62746z" fill="url(#color-10)"/><path d="M267.06896,189.2716l-3.93727,-5.09436l31.09325,-21.33736l8.83736,-5.16671l-7.14264,6.9182z" fill="url(#color-11)"/><path d="M259.29957,175.62327c0,0 3.05607,7.40012 5.33546,10.62396c2.50271,3.53963 9.07347,9.75503 9.07347,9.75503c0,0 -8.68382,-4.98005 -11.11112,-8.41306c-2.37451,-3.35831 -3.29778,-11.96594 -3.29778,-11.96594z" fill="url(#color-12)"/></g><g stroke="#000000" stroke-width="0" stroke-linecap="butt"><path d="M245.08486,191.75621c0,0 -1.4698,-2.21303 -4.52228,-5.2582c-1.83336,-1.82896 -4.99198,-4.65805 -5.6089,-5.42295c-1.37625,-1.7063 -2.65582,-2.0361 -3.4952,-3.17741c-2.06249,-2.80436 -5.60877,-7.54846 -5.60877,-7.54846c0,0 -7.48287,-5.94956 0.15276,-11.11541c1.21897,-0.82469 6.3722,6.06614 6.3722,6.06614c0,0 2.54245,3.27244 4.48232,5.9101c0.90191,1.22635 2.22648,3.31293 3.64267,5.35534c0.59837,0.86296 2.73297,3.41546 3.32446,4.2485c2.45969,3.46419 5.57386,5.40536 5.57386,5.40536z" fill="#bdbdbd"/><path d="M249.18455,195.74337c-0.41144,0.51333 -3.99409,-3.89257 -3.99409,-3.89257c0,0 0.79279,-2.36989 1.49956,-3.28181c0.72588,-0.93661 2.79991,-2.26577 2.79991,-2.26577c0,0 1.06065,0.94749 2.18288,1.14064c1.92077,0.33058 4.12254,0.52154 4.65558,2.04192c0.28924,0.82494 -2.79696,-0.64586 -2.76859,-0.18618c0.00505,0.08179 3.85606,3.79547 3.67941,4.32151c-0.28859,0.85936 -4.45731,-2.69761 -4.01873,-1.96467c0.90025,1.50447 4.06545,3.64512 3.73774,4.26747c-0.55204,1.04839 -5.17578,-3.97668 -5.02372,-3.37319c0.28404,1.12734 3.5599,3.68299 3.29805,4.23979c-0.76274,1.62183 -4.16508,-3.03494 -4.10976,-2.32879c0.1045,1.33402 2.62153,2.92607 2.18719,3.40476c-0.88311,0.97324 -3.93118,-2.36541 -4.12541,-2.1231z" data-paper-data="{&quot;index&quot;:null}" fill="#777777"/></g></g></g></svg>