<svg version="1.1" xmlns="http://www.w3.org/2000/svg" xmlns:xlink="http://www.w3.org/1999/xlink" width="59" height="59.70662" viewBox="0,0,59,59.70662"><defs><linearGradient x1="240" y1="151.64669" x2="240" y2="208.35331" gradientUnits="userSpaceOnUse" id="color-1"><stop offset="0" stop-color="#191919"/><stop offset="1" stop-color="#050505"/></linearGradient><linearGradient x1="240" y1="151.64669" x2="240" y2="208.35331" gradientUnits="userSpaceOnUse" id="color-2"><stop offset="0" stop-color="#cccccc"/><stop offset="1" stop-color="#898989"/></linearGradient><radialGradient cx="240" cy="180" r="26.8571" gradientUnits="userSpaceOnUse" id="color-3"><stop offset="0" stop-color="#ffffff" stop-opacity="0.35484"/><stop offset="1" stop-color="#ffffff" stop-opacity="0"/></radialGradient><linearGradient x1="240" y1="153.29211" x2="240" y2="206.70789" gradientUnits="userSpaceOnUse" id="color-4"><stop offset="0" stop-color="#cccccc"/><stop offset="1" stop-color="#898989"/></linearGradient><linearGradient x1="243.30169" y1="196.14798" x2="244.46966" y2="196.14798" gradientUnits="userSpaceOnUse" id="color-5"><stop offset="0" stop-color="#525252"/><stop offset="1" stop-color="#363636"/></linearGradient><linearGradient x1="243.30169" y1="196.14798" x2="244.46966" y2="196.14798" gradientUnits="userSpaceOnUse" id="color-6"><stop offset="0" stop-color="#1f1f1f"/><stop offset="1" stop-color="#000000"/></linearGradient><linearGradient x1="234.47516" y1="196.64972" x2="236.00121" y2="197.30836" gradientUnits="userSpaceOnUse" id="color-7"><stop offset="0" stop-color="#525252"/><stop offset="1" stop-color="#2e2e2e"/></linearGradient><linearGradient x1="234.47516" y1="196.64972" x2="236.00121" y2="197.30836" gradientUnits="userSpaceOnUse" id="color-8"><stop offset="0" stop-color="#1f1f1f"/><stop offset="1" stop-color="#000000"/></linearGradient><linearGradient x1="232.6196" y1="197.33466" x2="247.03258" y2="197.33466" gradientUnits="userSpaceOnUse" id="color-9"><stop offset="0" stop-color="#767676"/><stop offset="1" stop-color="#2a2a2a"/></linearGradient><linearGradient x1="232.6196" y1="197.33466" x2="247.03258" y2="197.33466" gradientUnits="userSpaceOnUse" id="color-10"><stop offset="0" stop-color="#1f1f1f"/><stop offset="1" stop-color="#000000"/></linearGradient><linearGradient x1="237.55167" y1="193.37779" x2="242.13372" y2="193.37779" gradientUnits="userSpaceOnUse" id="color-11"><stop offset="0" stop-color="#7f7f7f"/><stop offset="1" stop-color="#545454"/></linearGradient><linearGradient x1="236.06924" y1="196.31358" x2="243.43646" y2="196.31358" gradientUnits="userSpaceOnUse" id="color-12"><stop offset="0" stop-color="#7f7f7f"/><stop offset="1" stop-color="#545454"/></linearGradient><linearGradient x1="234.82567" y1="199.55448" x2="244.71619" y2="199.55448" gradientUnits="userSpaceOnUse" id="color-13"><stop offset="0" stop-color="#7f7f7f"/><stop offset="1" stop-color="#545454"/></linearGradient><linearGradient x1="233.50869" y1="202.78235" x2="246.08686" y2="202.78235" gradientUnits="userSpaceOnUse" id="color-14"><stop offset="0" stop-color="#7f7f7f"/><stop offset="1" stop-color="#545454"/></linearGradient><linearGradient x1="242.17816" y1="192.3186" x2="245.81753" y2="192.3186" gradientUnits="userSpaceOnUse" id="color-15"><stop offset="0" stop-color="#8f8f8f"/><stop offset="1" stop-color="#4e4e4e"/></linearGradient><linearGradient x1="242.17816" y1="192.3186" x2="245.81753" y2="192.3186" gradientUnits="userSpaceOnUse" id="color-16"><stop offset="0" stop-color="#1f1f1f"/><stop offset="1" stop-color="#000000"/></linearGradient><linearGradient x1="232.83242" y1="162.67438" x2="247.24539" y2="162.67438" gradientUnits="userSpaceOnUse" id="color-17"><stop offset="0" stop-color="#89959f"/><stop offset="1" stop-color="#2a3542"/></linearGradient><linearGradient x1="232.83242" y1="162.66986" x2="247.2454" y2="162.66986" gradientUnits="userSpaceOnUse" id="color-18"><stop offset="0" stop-color="#272727"/><stop offset="1" stop-color="#000000"/></linearGradient><linearGradient x1="236.42619" y1="156.40431" x2="243.53933" y2="156.40431" gradientUnits="userSpaceOnUse" id="color-19"><stop offset="0" stop-color="#f1f5f8"/><stop offset="1" stop-color="#6d7680"/></linearGradient><linearGradient x1="236.42619" y1="156.40374" x2="243.53933" y2="156.40374" gradientUnits="userSpaceOnUse" id="color-20"><stop offset="0" stop-color="#272727"/><stop offset="1" stop-color="#000000"/></linearGradient><linearGradient x1="234.80457" y1="160.06665" x2="245.40252" y2="160.06665" gradientUnits="userSpaceOnUse" id="color-21"><stop offset="0" stop-color="#3b4145"/><stop offset="1" stop-color="#171e25"/></linearGradient><linearGradient x1="247.10273" y1="187.3735" x2="254.24673" y2="187.3735" gradientUnits="userSpaceOnUse" id="color-22"><stop offset="0" stop-color="#2c2f36"/><stop offset="1" stop-color="#191d1f"/></linearGradient><linearGradient x1="247.10273" y1="187.61893" x2="251.98913" y2="187.61893" gradientUnits="userSpaceOnUse" id="color-23"><stop offset="0" stop-color="#272727"/><stop offset="1" stop-color="#000000"/></linearGradient><linearGradient x1="232.89727" y1="187.29863" x2="225.75327" y2="187.29863" gradientUnits="userSpaceOnUse" id="color-24"><stop offset="0" stop-color="#575e6b"/><stop offset="1" stop-color="#696d82"/></linearGradient><linearGradient x1="228.01087" y1="187.54405" x2="232.89727" y2="187.54405" gradientUnits="userSpaceOnUse" id="color-25"><stop offset="0" stop-color="#272727"/><stop offset="1" stop-color="#000000"/></linearGradient><linearGradient x1="232.87742" y1="181.59189" x2="247.11983" y2="181.59189" gradientUnits="userSpaceOnUse" id="color-26"><stop offset="0" stop-color="#535863"/><stop offset="1" stop-color="#1a1b21"/></linearGradient><linearGradient x1="232.87742" y1="181.59189" x2="247.11983" y2="181.59189" gradientUnits="userSpaceOnUse" id="color-27"><stop offset="0" stop-color="#272727"/><stop offset="1" stop-color="#000000"/></linearGradient><linearGradient x1="240.50774" y1="182.19303" x2="246.09412" y2="182.19303" gradientUnits="userSpaceOnUse" id="color-28"><stop offset="0" stop-color="#4a382c"/><stop offset="1" stop-color="#301f1b"/></linearGradient><linearGradient x1="240.50774" y1="182.19303" x2="246.09412" y2="182.19303" gradientUnits="userSpaceOnUse" id="color-29"><stop offset="0" stop-color="#351c12"/><stop offset="1" stop-color="#1a1310"/></linearGradient><linearGradient x1="240.49271" y1="182.19514" x2="246.06617" y2="182.19514" gradientUnits="userSpaceOnUse" id="color-30"><stop offset="0" stop-color="#351c12"/><stop offset="1" stop-color="#1a1310"/></linearGradient><linearGradient x1="240.49271" y1="182.1527" x2="246.06617" y2="182.1527" gradientUnits="userSpaceOnUse" id="color-31"><stop offset="0" stop-color="#351c12"/><stop offset="1" stop-color="#1a1310"/></linearGradient><linearGradient x1="233.83091" y1="182.22133" x2="239.41728" y2="182.22133" gradientUnits="userSpaceOnUse" id="color-32"><stop offset="0" stop-color="#4a382c"/><stop offset="1" stop-color="#301f1b"/></linearGradient><linearGradient x1="233.83091" y1="182.22133" x2="239.41728" y2="182.22133" gradientUnits="userSpaceOnUse" id="color-33"><stop offset="0" stop-color="#351c12"/><stop offset="1" stop-color="#1a1310"/></linearGradient><linearGradient x1="233.81589" y1="182.22343" x2="239.38934" y2="182.22343" gradientUnits="userSpaceOnUse" id="color-34"><stop offset="0" stop-color="#351c12"/><stop offset="1" stop-color="#1a1310"/></linearGradient><linearGradient x1="233.81589" y1="182.18099" x2="239.38934" y2="182.18099" gradientUnits="userSpaceOnUse" id="color-35"><stop offset="0" stop-color="#351c12"/><stop offset="1" stop-color="#1a1310"/></linearGradient><linearGradient x1="240.50774" y1="188.93134" x2="246.09412" y2="188.93134" gradientUnits="userSpaceOnUse" id="color-36"><stop offset="0" stop-color="#4a382c"/><stop offset="1" stop-color="#301f1b"/></linearGradient><linearGradient x1="240.50774" y1="188.93134" x2="246.09412" y2="188.93134" gradientUnits="userSpaceOnUse" id="color-37"><stop offset="0" stop-color="#351c12"/><stop offset="1" stop-color="#1a1310"/></linearGradient><linearGradient x1="240.49271" y1="188.93344" x2="246.06617" y2="188.93344" gradientUnits="userSpaceOnUse" id="color-38"><stop offset="0" stop-color="#351c12"/><stop offset="1" stop-color="#1a1310"/></linearGradient><linearGradient x1="240.49271" y1="188.89101" x2="246.06617" y2="188.89101" gradientUnits="userSpaceOnUse" id="color-39"><stop offset="0" stop-color="#351c12"/><stop offset="1" stop-color="#1a1310"/></linearGradient><linearGradient x1="233.83091" y1="188.95963" x2="239.41728" y2="188.95963" gradientUnits="userSpaceOnUse" id="color-40"><stop offset="0" stop-color="#4a382c"/><stop offset="1" stop-color="#301f1b"/></linearGradient><linearGradient x1="233.83091" y1="188.95963" x2="239.41728" y2="188.95963" gradientUnits="userSpaceOnUse" id="color-41"><stop offset="0" stop-color="#351c12"/><stop offset="1" stop-color="#1a1310"/></linearGradient><linearGradient x1="233.81589" y1="188.96174" x2="239.38934" y2="188.96174" gradientUnits="userSpaceOnUse" id="color-42"><stop offset="0" stop-color="#351c12"/><stop offset="1" stop-color="#1a1310"/></linearGradient><linearGradient x1="233.81589" y1="188.9193" x2="239.38934" y2="188.9193" gradientUnits="userSpaceOnUse" id="color-43"><stop offset="0" stop-color="#351c12"/><stop offset="1" stop-color="#1a1310"/></linearGradient><linearGradient x1="233.59853" y1="174.52551" x2="246.31147" y2="174.52551" gradientUnits="userSpaceOnUse" id="color-44"><stop offset="0" stop-color="#515151"/><stop offset="1" stop-color="#131313"/></linearGradient><linearGradient x1="233.59853" y1="174.52551" x2="246.31147" y2="174.52551" gradientUnits="userSpaceOnUse" id="color-45"><stop offset="0" stop-color="#272727"/><stop offset="1" stop-color="#000000"/></linearGradient><linearGradient x1="234.26066" y1="171.75926" x2="245.56105" y2="171.75926" gradientUnits="userSpaceOnUse" id="color-46"><stop offset="0" stop-color="#272727"/><stop offset="1" stop-color="#000000"/></linearGradient><linearGradient x1="234.30481" y1="177.33275" x2="245.42863" y2="177.33275" gradientUnits="userSpaceOnUse" id="color-47"><stop offset="0" stop-color="#272727"/><stop offset="1" stop-color="#000000"/></linearGradient></defs><g transform="translate(-210.5,-150.14669)"><g data-paper-data="{&quot;isPaintingLayer&quot;:true}" fill-rule="nonzero" stroke-linejoin="miter" stroke-miterlimit="10" stroke-dasharray="" stroke-dashoffset="0" style="mix-blend-mode: normal"><path d="M212,208.35331v-56.70662h56v56.70662z" fill="url(#color-1)" stroke="url(#color-2)" stroke-width="3" stroke-linecap="butt"/><path d="M266.8571,180c0,14.75036 -12.02433,26.70789 -26.8571,26.70789c-14.83277,0 -26.8571,-11.95753 -26.8571,-26.70789c0,-14.75036 12.02433,-26.70789 26.8571,-26.70789c14.83277,0 26.8571,11.95753 26.8571,26.70789z" fill="url(#color-3)" stroke="url(#color-4)" stroke-width="0" stroke-linecap="butt"/><g stroke-width="0.5"><path d="M243.30169,198.07963v-3.86329h1.16797v3.86329z" fill="url(#color-5)" stroke="url(#color-6)" stroke-linecap="butt"/><path d="M231.70708,203.06323l5.53617,-12.82703l1.52605,0.65864l-5.53617,12.82703z" fill="url(#color-7)" stroke="url(#color-8)" stroke-linecap="butt"/><path d="M232.6196,204.54143c0,0 5.38172,-14.51866 7.20747,-14.41297c2.08862,0.1209 7.2055,14.41297 7.2055,14.41297z" fill="url(#color-9)" stroke="url(#color-10)" stroke-linecap="butt"/><path d="M242.13372,193.37779h-4.58205" fill="none" stroke="url(#color-11)" stroke-linecap="round"/><path d="M243.43646,196.31358h-7.36721" fill="none" stroke="url(#color-12)" stroke-linecap="round"/><path d="M244.71619,199.55448h-9.89052" fill="none" stroke="url(#color-13)" stroke-linecap="round"/><path d="M233.50869,202.78235h12.57817" fill="none" stroke="url(#color-14)" stroke-linecap="round"/><path d="M245.81753,192.3186c-0.01362,1.7112 -0.05673,1.89429 -1.81969,1.87616c-1.76352,-0.01814 -1.84156,-0.25002 -1.81969,-1.87616c0.02415,-1.79536 0.01902,-1.92016 1.81969,-1.87616c1.72528,0.04216 1.83464,-0.00292 1.81969,1.87616z" fill="url(#color-15)" stroke="url(#color-16)" stroke-linecap="butt"/></g><path d="M232.83242,169.88116c0,0 0.92696,-14.74327 7.1326,-14.41297c6.24391,-0.44062 7.28037,14.41297 7.28037,14.41297z" fill="url(#color-17)" stroke="url(#color-18)" stroke-width="0.5" stroke-linecap="butt"/><path d="M236.42619,157.31613c0,0 0.45747,-1.86535 3.52011,-1.82356c3.08151,-0.05575 3.59303,1.82356 3.59303,1.82356z" fill="url(#color-19)" stroke="url(#color-20)" stroke-width="0.5" stroke-linecap="butt"/><path d="M234.44227,161.88643c0,0 0.17582,-0.5702 0.43412,-1.24877c0.30312,-0.7963 0.80521,-1.74184 2.54018,-2.09021c0.06731,-0.01352 1.33193,-0.21153 1.33193,-0.21153l2.75122,0.00848c0,0 0.95106,0.06789 1.00691,0.08113c1.64194,0.38923 2.25852,1.36658 2.60367,2.18377c0.2943,0.69679 0.47336,1.27713 0.47336,1.27713z" data-paper-data="{&quot;index&quot;:null}" fill="url(#color-21)" stroke="#000000" stroke-width="0.5" stroke-linecap="butt"/><path d="M237.37793,160.19768c0,-0.70027 0.56768,-1.26796 1.26796,-1.26796c0.70028,0 1.26796,0.56769 1.26796,1.26796c0,0.70027 -0.56768,1.26796 -1.26796,1.26796c-0.70028,0 -1.26796,-0.56768 -1.26796,-1.26796z" fill="#ff0000" stroke="none" stroke-width="0.5" stroke-linecap="butt"/><path d="M240.30873,160.22546c0,-0.70027 0.56768,-1.26796 1.26796,-1.26796c0.70028,0 1.26796,0.56769 1.26796,1.26796c0,0.70027 -0.56769,1.26796 -1.26796,1.26796c-0.70028,0 -1.26796,-0.56769 -1.26796,-1.26796z" fill="#4bff00" stroke="none" stroke-width="0.5" stroke-linecap="butt"/><path d="M247.10273,193.23415v-14.56635c0,0 1.83307,9.77808 2.47396,12.13893c0.50706,1.86785 2.41243,5.76334 2.41243,5.76334z" fill="url(#color-22)" stroke="url(#color-23)" stroke-width="0.5" stroke-linecap="butt"/><path d="M228.01087,196.49519c0,0 1.90538,-3.89549 2.41243,-5.76333c0.64089,-2.36085 2.47396,-12.13893 2.47396,-12.13893v14.56635z" data-paper-data="{&quot;index&quot;:null}" fill="url(#color-24)" stroke="url(#color-25)" stroke-width="0.5" stroke-linecap="butt"/><path d="M232.87742,193.27578v-23.36778h14.24241v23.36778z" fill="url(#color-26)" stroke="url(#color-27)" stroke-width="0.5" stroke-linecap="butt"/><g stroke-width="0.5"><path d="M240.50774,185.10115v-5.81624h5.58638v5.81624z" fill="url(#color-28)" stroke="url(#color-29)" stroke-linecap="butt"/><path d="M240.49271,185.02431l5.57346,-5.65833" fill="none" stroke="url(#color-30)" stroke-linecap="round"/><path d="M240.5493,179.30939l5.51687,5.74321" fill="none" stroke="url(#color-31)" stroke-linecap="round"/></g><g stroke-width="0.5"><path d="M233.83091,185.12945v-5.81624h5.58638v5.81624z" fill="url(#color-32)" stroke="url(#color-33)" stroke-linecap="butt"/><path d="M233.81589,185.0526l5.57346,-5.65833" fill="none" stroke="url(#color-34)" stroke-linecap="round"/><path d="M233.87247,179.33768l5.51687,5.74321" fill="none" stroke="url(#color-35)" stroke-linecap="round"/></g><g stroke-width="0.5"><path d="M240.50774,191.83946v-5.81624h5.58638v5.81624z" fill="url(#color-36)" stroke="url(#color-37)" stroke-linecap="butt"/><path d="M240.49271,191.76261l5.57346,-5.65833" fill="none" stroke="url(#color-38)" stroke-linecap="round"/><path d="M240.5493,186.0477l5.51687,5.7432" fill="none" stroke="url(#color-39)" stroke-linecap="round"/></g><g stroke-width="0.5"><path d="M233.83091,191.86775v-5.81624h5.58638v5.81624z" fill="url(#color-40)" stroke="url(#color-41)" stroke-linecap="butt"/><path d="M233.81589,191.7909l5.57346,-5.65833" fill="none" stroke="url(#color-42)" stroke-linecap="round"/><path d="M233.87247,186.07599l5.51687,5.74321" fill="none" stroke="url(#color-43)" stroke-linecap="round"/></g><g stroke-width="0.5"><path d="M233.59853,178.02943v-7.00784h12.71293v7.00784z" fill="url(#color-44)" stroke="url(#color-45)" stroke-linecap="butt"/><path d="M234.26066,171.75926h11.30039" fill="none" stroke="url(#color-46)" stroke-linecap="round"/><path d="M234.30481,177.33275h11.12382" fill="none" stroke="url(#color-47)" stroke-linecap="round"/></g><path d="M215.27327,167.03273v-12.39235h25.93332v8.69862h-15.56684v3.69373z" fill-opacity="0.53453" fill="#000000" stroke="#a60000" stroke-width="0" stroke-linecap="butt"/><text transform="translate(215.70712,161.61518) scale(0.21839,0.21839)" font-size="40" xml:space="preserve" fill="#ffffff" fill-rule="nonzero" stroke="#000000" stroke-width="0" stroke-linecap="butt" stroke-linejoin="miter" stroke-miterlimit="10" stroke-dasharray="" stroke-dashoffset="0" font-family="Serif" font-weight="normal" text-anchor="start" style="mix-blend-mode: normal"><tspan x="0" dy="0">Rocket</tspan></text><text transform="translate(215.56527,166.16682) scale(0.11601,0.11601)" font-size="40" xml:space="preserve" fill="#ffffff" fill-rule="nonzero" stroke="#000000" stroke-width="0" stroke-linecap="butt" stroke-linejoin="miter" stroke-miterlimit="10" stroke-dasharray="" stroke-dashoffset="0" font-family="Serif" font-weight="normal" text-anchor="start" style="mix-blend-mode: normal"><tspan x="0" dy="0">2-2-1</tspan></text></g></g></svg>