<svg version="1.1" xmlns="http://www.w3.org/2000/svg" xmlns:xlink="http://www.w3.org/1999/xlink" width="134.49932" height="167.50074" viewBox="0,0,134.49932,167.50074"><defs><linearGradient x1="237.58595" y1="15.9485" x2="240.08712" y2="80.27355" gradientUnits="userSpaceOnUse" id="color-1"><stop offset="0" stop-color="#4a4a4a" stop-opacity="0"/><stop offset="1" stop-color="#4a4a4a" stop-opacity="0.6549"/></linearGradient><linearGradient x1="244.1432" y1="13.08958" x2="240.83723" y2="82.64203" gradientUnits="userSpaceOnUse" id="color-2"><stop offset="0" stop-color="#292929" stop-opacity="0"/><stop offset="1" stop-color="#292929" stop-opacity="0.58824"/></linearGradient><linearGradient x1="249.64603" y1="17.93575" x2="238.98205" y2="81.64808" gradientUnits="userSpaceOnUse" id="color-3"><stop offset="0" stop-color="#383838" stop-opacity="0"/><stop offset="1" stop-color="#383838" stop-opacity="0.76078"/></linearGradient><linearGradient x1="242.2738" y1="20.44147" x2="240.18766" y2="79.80194" gradientUnits="userSpaceOnUse" id="color-4"><stop offset="0" stop-color="#4b4b4b" stop-opacity="0"/><stop offset="1" stop-color="#4b4b4b" stop-opacity="0.75294"/></linearGradient><linearGradient x1="205.37625" y1="125.56928" x2="276.30167" y2="125.56928" gradientUnits="userSpaceOnUse" id="color-5"><stop offset="0" stop-color="#909090"/><stop offset="1" stop-color="#2f2f2f"/></linearGradient><linearGradient x1="179.86976" y1="149.52782" x2="226.48389" y2="149.52782" gradientUnits="userSpaceOnUse" id="color-6"><stop offset="0" stop-color="#3f3f3f"/><stop offset="1" stop-color="#313131"/></linearGradient><linearGradient x1="203.17683" y1="119.3976" x2="203.17683" y2="179.65803" gradientUnits="userSpaceOnUse" id="color-7"><stop offset="0" stop-color="#348317"/><stop offset="1" stop-color="#3c5b0d"/></linearGradient><radialGradient cx="239.34745" cy="135.4747" r="27.13216" gradientUnits="userSpaceOnUse" id="color-8"><stop offset="0" stop-color="#93bee8"/><stop offset="1" stop-color="#647fba"/></radialGradient><linearGradient x1="250.06522" y1="124.50849" x2="250.06522" y2="178.76799" gradientUnits="userSpaceOnUse" id="color-9"><stop offset="0" stop-color="#348317"/><stop offset="1" stop-color="#3c5b0d"/></linearGradient><radialGradient cx="276.1459" cy="136.63371" r="27.13216" gradientUnits="userSpaceOnUse" id="color-10"><stop offset="0" stop-color="#93bee8"/><stop offset="1" stop-color="#647fba"/></radialGradient><linearGradient x1="286.88595" y1="124.613" x2="286.88595" y2="178.8725" gradientUnits="userSpaceOnUse" id="color-11"><stop offset="0" stop-color="#348317"/><stop offset="1" stop-color="#3c5b0d"/></linearGradient><linearGradient x1="250.34823" y1="113.49719" x2="250.34823" y2="125.57587" gradientUnits="userSpaceOnUse" id="color-12"><stop offset="0" stop-color="#348317"/><stop offset="1" stop-color="#3c5b0d"/></linearGradient><linearGradient x1="287.79907" y1="113.77674" x2="287.79907" y2="125.85541" gradientUnits="userSpaceOnUse" id="color-13"><stop offset="0" stop-color="#348317"/><stop offset="1" stop-color="#3c5b0d"/></linearGradient><linearGradient x1="219.3546" y1="78.82827" x2="261.36857" y2="78.82827" gradientUnits="userSpaceOnUse" id="color-14"><stop offset="0" stop-color="#ffe83c"/><stop offset="1" stop-color="#a67b00"/></linearGradient><linearGradient x1="240.36159" y1="75.20638" x2="240.36159" y2="82.45017" gradientUnits="userSpaceOnUse" id="color-15"><stop offset="0" stop-color="#348317"/><stop offset="1" stop-color="#3c5b0d"/></linearGradient><linearGradient x1="219.13907" y1="91.36182" x2="261.15305" y2="91.36182" gradientUnits="userSpaceOnUse" id="color-16"><stop offset="0" stop-color="#ffe83c"/><stop offset="1" stop-color="#a67b00"/></linearGradient><linearGradient x1="240.14606" y1="87.73992" x2="240.14606" y2="94.98371" gradientUnits="userSpaceOnUse" id="color-17"><stop offset="0" stop-color="#348317"/><stop offset="1" stop-color="#3c5b0d"/></linearGradient><linearGradient x1="174.11977" y1="163.90282" x2="231.23389" y2="163.90282" gradientUnits="userSpaceOnUse" id="color-18"><stop offset="0" stop-color="#4a4a4a"/><stop offset="1" stop-color="#373737"/></linearGradient><linearGradient x1="202.67684" y1="148.1476" x2="202.67684" y2="179.65803" gradientUnits="userSpaceOnUse" id="color-19"><stop offset="0" stop-color="#348317"/><stop offset="1" stop-color="#3c5b0d"/></linearGradient><linearGradient x1="182.86977" y1="132.83015" x2="223.48389" y2="132.83015" gradientUnits="userSpaceOnUse" id="color-20"><stop offset="0" stop-color="#ff458a"/><stop offset="1" stop-color="#ff0053"/></linearGradient><linearGradient x1="203.17683" y1="125.3976" x2="203.17683" y2="140.2627" gradientUnits="userSpaceOnUse" id="color-21"><stop offset="0" stop-color="#348317"/><stop offset="1" stop-color="#3c5b0d"/></linearGradient><linearGradient x1="176.86977" y1="163.99682" x2="227.23389" y2="163.99682" gradientUnits="userSpaceOnUse" id="color-22"><stop offset="0" stop-color="#ff458a"/><stop offset="1" stop-color="#ff0053"/></linearGradient><linearGradient x1="202.05184" y1="156.56426" x2="202.05184" y2="171.42937" gradientUnits="userSpaceOnUse" id="color-23"><stop offset="0" stop-color="#348317"/><stop offset="1" stop-color="#3c5b0d"/></linearGradient><linearGradient x1="239.99999" y1="179.02045" x2="239.99999" y2="180.33096" gradientUnits="userSpaceOnUse" id="color-24"><stop offset="0" stop-color="#348317"/><stop offset="1" stop-color="#3c5b0d"/></linearGradient></defs><g transform="translate(-172.75034,-12.83022)"><g data-paper-data="{&quot;isPaintingLayer&quot;:true}" fill-rule="nonzero" stroke-linecap="butt" stroke-linejoin="miter" stroke-miterlimit="10" stroke-dasharray="" stroke-dashoffset="0" style="mix-blend-mode: normal"><path d="M218.73934,76.88708l-0.03202,-0.01445l-0.01933,-0.05776c-0.19028,-0.28081 -0.30457,-0.60461 -0.31807,-0.95156l-0.02638,-0.67855l0.06167,-0.24513l-0.00974,-0.2506l0.07605,-0.30222l-0.05852,-1.50464l-0.16623,-0.80292l0.01197,-0.14624l-0.0471,-0.14096l-0.00069,-0.0181l-0.02684,-0.05804l-0.17976,-0.22453l-0.11578,-0.2669l-0.76618,-1.2073l-0.04278,-0.14197l-0.09687,-0.12099l-0.23838,-0.54947l-0.1477,-0.17627l-0.11699,-0.25302l-0.17976,-0.22453l-0.52399,-1.20785l-0.04205,-0.32544l-0.10523,-0.31482l-0.00609,-0.15653l-0.09936,-0.29725l-0.00974,-0.25056l-0.08058,-0.24108l-0.00299,-0.07678l-0.04021,-0.09271l-0.04206,-0.32544l-0.10523,-0.31482l-0.10025,-2.57842l0.06167,-0.24513l-0.00974,-0.2506l0.07605,-0.30222l-0.02191,-0.56366l0.06167,-0.24513l-0.00974,-0.2506l0.12579,-0.49994l0.12317,-0.63524l0.05994,-0.11809l0.00656,-0.12857l0.24379,-0.70171l0.1082,-0.55793l0.05994,-0.11809l0.00656,-0.12857l0.23279,-0.67006l0.10259,-0.66031l0.13106,-0.28289l0.06568,-0.29906l0.35237,-0.65574l0.22698,-0.77533l0.10505,-0.16823l0.04117,-0.18743l1.26384,-2.35174l0.52379,-1.50776l0.13351,-0.19314l0.06806,-0.2166l0.35734,-0.54943l0.22628,-0.53409l0.10775,-0.1368l0.05003,-0.15929l0.45012,-0.69205l0.0855,-0.07809l0.04473,-0.09985l0.2747,-0.33559l0.47525,-1.12182l0.05646,-0.07168l0.01866,-0.08494l1.56038,-2.90359l0.33261,-0.95737l0.23486,-1.35859l0.07774,-0.16086l0.01438,-0.17365l0.48128,-1.25953l0.08302,-1.23341l0.03858,-0.10564l-0.01046,-0.11029l0.25862,-1.33369l0.23542,-1.51565l0.08165,-1.60059l-0.18255,-4.69451l-0.1644,-0.96965l-0.30494,-0.91229l-0.34243,-0.90864l-0.00271,-0.03477l-0.02036,-0.03018l-0.13552,-0.40541l-0.27901,-0.54294l-0.01204,-0.06038l-0.04047,-0.05055l-0.23839,-0.54947l-0.1477,-0.17631l-0.06244,-0.13503l-0.03828,-0.0054l-0.17292,-0.216l-0.23906,-0.16361l-0.01615,-0.15514l-0.26551,-0.33167l-0.0231,-0.05324l-0.00216,-0.00284l-0.18089,-0.13141l-0.3335,-0.3981l-0.11698,-0.25302l-0.10971,-0.13703l-0.29469,-0.23557l-0.20796,-0.275l-0.25893,-0.24135l-0.16938,-0.2669l-0.02357,-0.07825l-0.33201,-0.22725l-0.01054,-0.10122l-0.13149,-0.12257l-0.16939,-0.2669l-0.30619,-1.01657l0.34512,-0.47581l0.0146,-0.55965l0.90575,-0.70925l0.17567,-0.08137l0.01251,-0.0202l0.06583,-0.01609l0.05839,-0.02704l0.53046,-0.11664l0.52669,-0.12853l0.06638,-0.0019l0.0663,-0.01458l0.02277,0.01205l4.00111,-0.11358l1.2567,-0.15553l1.06989,-0.16176l0.17115,0.01025l0.16499,-0.04024l0.81854,-0.02322l0.34789,-0.0849l0.29329,-0.00831l0.28219,-0.06885l0.31768,-0.00902l0.28691,0.05271l0.29329,-0.00831l0.6406,0.11764l0.23561,0.09891l0.25802,0.04138l0.36025,0.14131l0.16343,-0.04313l0.26774,0.12713l0.29945,0.05502l0.09565,0.13256l0.4095,0.19442l0.18413,0.0467l0.27415,0.13836l0.30323,0.08295l0.48706,0.25787l0.16546,0.14551l0.20753,0.09854l0.15586,0.1246l0.28641,0.15164l0.16546,0.14551l0.20753,0.09854l0.32823,0.26238l0.12885,0.17038l0.18089,0.13141l0.05602,0.06688l0.0818,0.04332l0.16546,0.14551l0.20752,0.09854l0.32823,0.26242l0.12885,0.17041l0.1809,0.13141l0.62848,0.75022l1.45138,1.54383l0.13165,0.24411l0.19257,0.21258l0.2173,0.42285l0.30017,0.31929l0.13165,0.24411l0.19256,0.21258l0.30419,0.59193l0.24787,0.39055l0.4532,0.59933l0.08474,0.2123l0.14823,0.18516l0.11578,0.2669l0.25802,0.40657l0.06543,0.21723l0.13115,0.19432l0.87458,2.61638l0.14285,0.32924l0.01026,0.07939l0.0467,0.06915l0.33473,1.00142l0.14285,0.32928l0.04205,0.32544l0.10523,0.31482l0.01135,0.29222l0.09936,0.29725l0.00191,0.04963l0.02663,0.04413l0.18521,0.67403l-0.00059,0.03373l0.01692,0.03047l0.13971,0.59388l0.24044,0.46791l0.03704,0.18575l0.10098,0.16754l0.18521,0.67403l-0.00055,0.03373l0.01692,0.03047l0.15364,0.65307l0.28432,0.65538l0.02076,0.16059l0.08111,0.14593l0.15364,0.65307l0.28432,0.65538l0.01651,0.12791l0.06896,0.11443l0.15132,0.55057l0.29775,0.68635l0.01026,0.07939l0.0467,0.06919l0.13552,0.40541l0.15227,0.2963l1.08215,1.15104l0.37209,0.22233l0.19834,0.19496l0.24644,0.14962l0.57588,0.5748l2.40565,1.92319l0.51234,0.30614l0.22233,0.21855l0.26998,0.17504l0.39152,0.41643l0.69684,0.55708l0.12885,0.17038l0.18089,0.13141l0.09585,0.11443l0.31654,0.18914l0.26477,0.26028l0.3075,0.22337l0.667,0.79619l0.05535,0.11971l0.10177,0.09488l0.23632,0.37237l0.36302,0.38613l0.09069,0.16812l0.1464,0.13649l0.33878,0.53382l0.02522,0.08368l0.06191,0.06834l0.30419,0.59193l0.63028,0.99314l0.02522,0.08368l0.06191,0.06834l0.30419,0.59193l0.29151,0.45933l0.02522,0.08368l0.06191,0.06834l0.34405,0.66952l0.02752,0.13812l0.08193,0.12139l0.08253,0.2469l0.31039,0.41046l0.08474,0.2123l0.14823,0.18516l0.34932,0.80521l0.02076,0.16059l0.08111,0.14593l0.13391,0.56921l0.39164,0.71429l0.06433,0.281l0.13128,0.26342l0.1722,0.926l0.29827,0.79141l0.01095,0.14069l0.06731,0.12872l0.38671,1.86755l0.18503,0.78653l-0.00928,0.17007l0.05473,0.16369l0.11611,2.98553l-0.04989,0.19834l0.01918,0.20219l-0.13247,0.68306l-0.05994,0.11809l-0.00656,0.12857l-0.17594,0.50642l0.01354,0.3482l-0.02015,0.08012l0.03848,0.06065l-0.16371,0.43695l-0.11287,0.44854l-0.06876,0.03622l-0.02925,0.07805l-0.08434,0.11625l-0.05091,0.20242l-0.17992,0.31282l-0.12437,0.33198l-0.13368,0.18429l-0.05217,0.15013l-0.16194,0.23425l-0.09707,0.25909l-0.22367,0.30835l-0.08633,0.16069l-0.23957,0.25553l-0.18614,0.28616l-1.3743,1.2549l-0.40116,0.55304l-0.23463,0.43661l-0.12168,0.12979l-0.00265,0.10161l-0.16535,0.12949l-0.01212,0.05529l-0.02771,0.05156l-0.0144,0.05718l-0.02279,0.01201l-0.52823,0.98293l-0.12168,0.12979l-0.00265,0.10161l-0.34837,0.27276l-0.11154,0.11897l-0.00075,0.02891l-0.09909,0.07759l-0.08403,0.08964l-0.03372,0.00257l-0.13153,0.103l-0.11154,0.11897l-0.00075,0.02891l-0.09909,0.07759l-0.08403,0.08964l-0.03372,0.00257l-0.13153,0.103l-0.29545,0.31509l-0.11847,0.00902l-0.14349,0.11236l-0.3124,0.14474l-0.16615,0.03653l-0.14161,0.08277l-0.94245,0.29848l-0.31135,0.02937l-0.01093,0.00505l-0.53046,0.11664l-0.52669,0.12853l-0.06638,0.0019l-0.0663,0.01458l-0.02277,-0.01205l-0.08512,0.0024l-0.41462,0.08318l-0.33208,0.10518l-0.38089,0.03594l-0.36846,0.08991l-0.72522,0.0206l-0.10848,0.03435l-0.38089,0.03594l-0.36846,0.08991l-0.08988,0.00257l-0.10848,0.03435l-0.09292,0.00877l-0.08097,0.03992l-0.63005,0.15374l-0.29329,0.00831l-0.28219,0.06885l-0.56637,0.01609l-0.1085,0.03435l-0.09289,0.00875l-0.08097,0.03992l-0.63005,0.15374l-0.29329,0.00831l-0.28219,0.06885l-1.35241,0.03839l-0.55911,0.11213l-0.23739,-0.00292l-0.22831,0.05572l-19.53651,0.55453l-0.37462,-0.06881l-0.38284,-0.01426l-0.96356,-0.24436l-0.05868,-0.02961l-0.14551,0.00412l-0.02177,0.01332l-0.0673,-0.01079l-0.06638,0.0019l-0.53552,-0.09837l-0.53832,-0.08629l-0.06036,-0.02367l-0.06693,-0.01232l-0.01406,-0.01947l-0.18161,-0.07126l-0.95886,-0.65628l-0.10382,-0.99726l-0.00221,-0.00303l0.00161,-0.00261l-0.06473,-0.62174c-0.59027,-0.13046 -1.09436,-0.44997 -1.41493,-0.8807z" fill="url(#color-1)" stroke="none" stroke-width="0.5"/><path d="M218.12726,77.53487l-0.03318,-0.01775l-0.01545,-0.06364c-0.17904,-0.31585 -0.27211,-0.67287 -0.25427,-1.04805l0.03487,-0.73368l0.08941,-0.26021l0.01289,-0.27096l0.11023,-0.32078l0.07733,-1.62693l-0.10438,-0.87736l0.02657,-0.15694l-0.03766,-0.15526l0.00093,-0.01959l-0.02352,-0.06445l-0.17295,-0.25444l-0.09997,-0.29576l-0.71373,-1.3544l-0.03287,-0.15603l-0.0932,-0.13711l-0.20584,-0.60891l-0.14285,-0.20021l-0.10259,-0.28086l-0.17295,-0.25444l-0.45246,-1.33849l-0.015,-0.35389l-0.08414,-0.34674l0.00805,-0.16926l-0.07942,-0.32737l0.01289,-0.27096l-0.06441,-0.26553l0.00397,-0.08305l-0.03473,-0.10273l-0.015,-0.35389l-0.08414,-0.34674l0.1325,-2.78795l0.08941,-0.26021l0.01289,-0.27096l0.11024,-0.32078l0.02898,-0.60945l0.08941,-0.26021l0.01289,-0.27096l0.18236,-0.5307l0.19215,-0.67675l0.07564,-0.12329l0.01907,-0.13824l0.32843,-0.74024l0.16878,-0.59442l0.07564,-0.12329l0.01907,-0.13824l0.31363,-0.70687l0.17228,-0.70528l0.16776,-0.29622l0.09874,-0.31806l0.44131,-0.68329l0.31716,-0.82081l0.12902,-0.17428l0.06187,-0.19935l1.58269,-2.4505l0.70572,-1.59059l0.16203,-0.19921l0.09363,-0.22905l0.43671,-0.56822l0.2939,-0.56067l0.12899,-0.14023l0.06882,-0.16839l0.55008,-0.7158l0.09951,-0.07836l0.05754,-0.10468l0.32763,-0.34327l0.61732,-1.17762l0.0676,-0.07351l0.02805,-0.09033l1.95406,-3.02554l0.44808,-1.00998l0.38013,-1.4494l0.09889,-0.16823l0.03171,-0.18629l0.63667,-1.32576l0.20467,-1.32472l0.05146,-0.11132l-0.00099,-0.11971l0.40341,-1.42092l0.39541,-1.61877l0.23747,-1.72084l0.24126,-5.07602l-0.08684,-1.05706l-0.24376,-1.00475l-0.28455,-1.00339l0.00032,-0.0377l-0.01914,-0.03396l-0.10833,-0.44651l-0.25028,-0.60465l-0.00736,-0.06593l-0.03893,-0.05726l-0.20584,-0.60891l-0.14285,-0.20021l-0.05474,-0.1499l-0.04077,-0.00844l-0.16636,-0.24478l-0.24258,-0.19279l-0.00293,-0.16845l-0.25545,-0.3758l-0.01994,-0.05898l-0.00208,-0.00322l-0.18285,-0.15405l-0.32256,-0.45211l-0.10259,-0.28086l-0.10553,-0.15526l-0.29585,-0.27419l-0.19864,-0.3108l-0.25673,-0.278l-0.15779,-0.29945l-0.01812,-0.08602l-0.3369,-0.26775l-0.00191,-0.10988l-0.1304,-0.14119l-0.15779,-0.29945l-0.23538,-1.11737l0.41669,-0.48973l0.06799,-0.60267l1.04316,-0.70325l0.19705,-0.07581l0.01539,-0.02099l0.07252,-0.01282l0.06551,-0.02521l0.58304,-0.08968l0.58009,-0.10273l0.07178,0.00249l0.07286,-0.0112l0.02341,0.01454l4.32625,0.15009l1.37003,-0.08218l1.16909,-0.10153l0.18367,0.02268l0.18171,-0.03216l0.88506,0.0307l0.38317,-0.06784l0.31714,0.01098l0.31079,-0.05506l0.3435,0.01193l0.30453,0.07638l0.31714,0.01098l0.67998,0.17057l0.24491,0.12279l0.27444,0.06219l0.37537,0.17698l0.18029,-0.03535l0.27693,0.15534l0.31787,0.07971l0.09078,0.14952l0.42354,0.23764l0.19425,0.06291l0.2828,0.16789l0.31935,0.11011l0.50127,0.31134l0.1649,0.16819l0.21466,0.1204l0.15648,0.14501l0.29478,0.18308l0.16487,0.16819l0.21466,0.1204l0.32953,0.30538l0.12308,0.19256l0.18285,0.15405l0.05416,0.07592l0.0842,0.05229l0.1649,0.16819l0.21466,0.1204l0.32953,0.30538l0.12308,0.19256l0.18285,0.15405l0.60787,0.85202l1.4214,1.76408l0.11918,0.27228l0.18784,0.24238l0.19492,0.47091l0.29396,0.36484l0.11918,0.27228l0.18784,0.24238l0.27287,0.65919l0.2309,0.43815l0.43287,0.67729l0.07158,0.23476l0.1426,0.20977l0.09997,0.29576l0.24036,0.45609l0.0503,0.23876l0.12335,0.21852l0.69911,2.88168l0.12335,0.36487l0.00366,0.08634l0.04392,0.07778l0.2676,1.10293l0.12335,0.36487l0.015,0.35389l0.08414,0.34674l-0.01501,0.31596l0.07942,0.32733l-0.00256,0.05365l0.0246,0.04941l0.13686,0.73962l-0.00377,0.03632l0.01542,0.034l0.09526,0.6501l0.21569,0.52111l0.02263,0.20285l0.09327,0.18759l0.13686,0.73962l-0.00376,0.03632l0.01542,0.034l0.10477,0.71487l0.24551,0.72628l0.00739,0.17461l0.07388,0.16291l0.10477,0.71487l0.24551,0.72628l0.00589,0.13909l0.06372,0.12811l0.1118,0.60417l0.25708,0.76057l0.00366,0.08634l0.04392,0.07778l0.10833,0.44651l0.13658,0.32999l1.05978,1.31528l0.38059,0.26518l0.19574,0.22381l0.25185,0.1782l0.56746,0.65923l2.41529,2.23829l0.52404,0.36511l0.21942,0.25087l0.27489,0.2072l0.38344,0.47588l0.69964,0.64834l0.12309,0.19256l0.18285,0.15405l0.09272,0.12992l0.32377,0.22559l0.2613,0.29879l0.31082,0.26188l0.64511,0.90425l0.04853,0.13288l0.10092,0.10929l0.22015,0.41774l0.35551,0.44122l0.0821,0.18755l0.14519,0.15721l0.31558,0.59885l0.01938,0.092l0.06041,0.07794l0.27287,0.65919l0.58713,1.11417l0.01938,0.092l0.06041,0.07794l0.27287,0.65919l0.27158,0.51533l0.01938,0.092l0.06041,0.07794l0.30863,0.74561l0.01681,0.15087l0.07705,0.13649l0.06598,0.27192l0.29647,0.46384l0.07158,0.23476l0.1426,0.20977l0.30162,0.89231l0.00739,0.17461l0.07388,0.16291l0.09131,0.62309l0.35575,0.79713l0.04314,0.3075l0.11702,0.29309l0.0993,1.01054l0.24786,0.87395l-0.00129,0.15251l0.06057,0.14344l0.24281,2.04071l0.12617,0.86096l-0.02589,0.18277l0.04374,0.18028l-0.15343,3.22817l-0.07233,0.2105l0.00181,0.2194l-0.20661,0.72773l-0.07564,0.12329l-0.01907,0.13824l-0.23703,0.53425l-0.0179,0.3765l-0.02922,0.08505l0.03587,0.06803l-0.21737,0.46014l-0.16362,0.47612l-0.07755,0.03438l-0.03885,0.08218l-0.10181,0.11967l-0.07382,0.21486l-0.22327,0.32517l-0.16514,0.34955l-0.16136,0.18968l-0.07028,0.15841l-0.19651,0.24162l-0.12889,0.27283l-0.27002,0.31735l-0.10815,0.16742l-0.28228,0.25932l-0.22747,0.29599l-1.59946,1.25991l-0.4843,0.56921l-0.29384,0.45494l-0.14336,0.13168l-0.01236,0.10942l-0.19043,0.12838l-0.01825,0.05883l-0.0347,0.05374l-0.02087,0.06073l-0.0257,0.01139l-0.66147,1.02418l-0.14336,0.13168l-0.01236,0.10942l-0.40122,0.2705l-0.13142,0.12072l-0.00352,0.03112l-0.11412,0.07692l-0.09902,0.09095l-0.03658,0.00046l-0.15148,0.10215l-0.13142,0.12072l-0.00352,0.03112l-0.11412,0.07692l-0.09902,0.09095l-0.03658,0.00046l-0.15148,0.10215l-0.34809,0.31974l-0.12862,0.00162l-0.16526,0.1114l-0.35046,0.13481l-0.18264,0.0281l-0.16047,0.07962l-1.04439,0.25772l-0.33856,0.01044l-0.01225,0.0047l-0.58304,0.08968l-0.58008,0.10273l-0.07178,-0.00249l-0.07288,0.0112l-0.02341,-0.01454l-0.09205,-0.0032l-0.45497,0.06146l-0.36798,0.0908l-0.4142,0.01282l-0.40583,0.07189l-0.78415,-0.02719l-0.12023,0.02968l-0.4142,0.01282l-0.40583,0.07189l-0.09718,-0.00339l-0.12023,0.02968l-0.10103,0.00315l-0.09106,0.03753l-0.69393,0.1229l-0.31714,-0.01098l-0.31079,0.05506l-0.6124,-0.02126l-0.12024,0.02968l-0.10103,0.00311l-0.09106,0.03753l-0.69393,0.1229l-0.31714,-0.01098l-0.31079,0.05506l-1.46232,-0.05075l-0.61353,0.08287l-0.25578,-0.01932l-0.25144,0.04452l-21.12417,-0.73297l-0.39767,-0.09973l-0.4116,-0.04146l-1.01651,-0.32922l-0.06055,-0.03594l-0.15734,-0.00547l-0.02473,0.01286l-0.07157,-0.01625l-0.07178,-0.00249l-0.56841,-0.14258l-0.57259,-0.12979l-0.0629,-0.02964l-0.07105,-0.01783l-0.01333,-0.02195l-0.18921,-0.08921l-0.97298,-0.77324l-0.01888,-1.08274l-0.00209,-0.00347l0.00198,-0.00272l-0.01177,-0.67503c-0.62451,-0.18094 -1.13841,-0.55992 -1.44397,-1.04633z" fill="url(#color-2)" stroke="none" stroke-width="0.5"/><path d="M218.65235,75.1333l-0.02859,-0.01901l-0.00723,-0.0598c-0.13006,-0.30484 -0.17655,-0.64071 -0.11901,-0.98437l0.11248,-0.67205l0.11078,-0.23218l0.04155,-0.2482l0.13655,-0.28624l0.24944,-1.49032l0.00014,-0.81538l0.04164,-0.1422l-0.01764,-0.14582l0.003,-0.01794l-0.01459,-0.06115l-0.13119,-0.24789l-0.05955,-0.28005l-0.50809,-1.30294l-0.01312,-0.14617l-0.0707,-0.13358l-0.1226,-0.57656l-0.10945,-0.1956l-0.06356,-0.26658l-0.13119,-0.24789l-0.26948,-1.26737l0.025,-0.32674l-0.03939,-0.32567l0.02596,-0.15503l-0.03716,-0.3075l0.04155,-0.2482l-0.03015,-0.24939l0.01272,-0.07609l-0.02069,-0.09724l0.02499,-0.32674l-0.03939,-0.32567l0.42745,-2.55386l0.11078,-0.23218l0.04155,-0.2482l0.13655,-0.28624l0.09344,-0.55824l0.11077,-0.23218l0.04155,-0.2482l0.2259,-0.47356l0.25092,-0.60714l0.08309,-0.10735l0.03271,-0.1256l0.38324,-0.65465l0.2204,-0.53326l0.08309,-0.10735l0.03271,-0.1256l0.36595,-0.62512l0.23575,-0.63495l0.18678,-0.25905l0.12568,-0.28469l0.48081,-0.59319l0.38171,-0.72963l0.13776,-0.15002l0.07876,-0.17843l1.72439,-2.12745l0.82347,-1.40664l0.17088,-0.1703l0.11122,-0.20318l0.46397,-0.48778l0.3318,-0.49221l0.13404,-0.11864l0.08178,-0.14939l0.58446,-0.61438l0.10011,-0.06414l0.0644,-0.09167l0.33898,-0.28953l0.6969,-1.03383l0.07024,-0.06219l0.0357,-0.08085l2.12903,-2.62667l0.52288,-0.89316l0.50852,-1.30281l0.10938,-0.14682l0.04957,-0.16881l0.73095,-1.16856l0.33345,-1.20214l0.05954,-0.09831l0.01223,-0.11019l0.52682,-1.27472l0.5411,-1.45736l0.40704,-1.5639l0.77827,-4.6498l0.03597,-0.97928l-0.1141,-0.94373l-0.15176,-0.94574l0.00442,-0.03462l-0.01391,-0.03275l-0.0507,-0.41938l-0.16394,-0.57621l0.00047,-0.06123l-0.02953,-0.05579l-0.12261,-0.57656l-0.10945,-0.19564l-0.03392,-0.14229l-0.03658,-0.01102l-0.1262,-0.23845l-0.20199,-0.19672l0.01575,-0.15514l-0.19378,-0.36613l-0.01188,-0.05583l-0.00154,-0.00315l-0.15132,-0.15635l-0.24714,-0.44168l-0.06356,-0.26658l-0.08005,-0.15125l-0.24207,-0.27585l-0.14863,-0.30177l-0.20569,-0.27626l-0.11232,-0.28808l-0.00724,-0.08058l-0.28053,-0.27322l0.01027,-0.10126l-0.10448,-0.14031l-0.11233,-0.28808l-0.09403,-1.04666l0.43694,-0.41715l0.12857,-0.54889l1.03661,-0.56343l0.18958,-0.05397l0.01643,-0.01806l0.06811,-0.00601l0.06302,-0.01794l0.54611,-0.03582l0.54486,-0.0481l0.06576,0.00804l0.06826,-0.00447l0.01995,0.01527l3.963,0.4842l1.2692,0.03404l1.08649,0.00012l0.16646,0.03559l0.17067,-0.01508l0.81073,0.09904l0.35987,-0.03174l0.2905,0.03546l0.29192,-0.02575l0.31464,0.03843l0.27174,0.09465l0.2905,0.03546l0.60678,0.2113l0.21182,0.13254l0.24563,0.07916l0.32589,0.19283l0.16971,-0.0181l0.23768,0.16506l0.28364,0.09877l0.06713,0.1448l0.36357,0.25247l0.17177,0.07339l0.24172,0.17707l0.28167,0.12686l0.42698,0.32648l0.13323,0.16792l0.18425,0.12795l0.12804,0.14593l0.25109,0.19202l0.13323,0.16792l0.18425,0.12795l0.26965,0.30727l0.09211,0.18697l0.15132,0.15635l0.04151,0.07416l0.07171,0.05483l0.13323,0.16792l0.18425,0.12795l0.26965,0.30729l0.09211,0.18697l0.15132,0.15635l0.46577,0.83236l1.11412,1.73641l0.07981,0.25998l0.14622,0.23799l0.12768,0.44877l0.23042,0.35913l0.07981,0.25998l0.14622,0.23799l0.17873,0.62819l0.16437,0.42154l0.32396,0.65765l0.04013,0.22166l0.10816,0.20437l0.05955,0.28005l0.1711,0.43879l0.02009,0.22364l0.0895,0.21086l0.32724,2.7066l0.07346,0.34549l-0.00609,0.0797l0.03185,0.07506l0.12525,1.03596l0.07346,0.34549l-0.025,0.32674l0.03939,0.32567l-0.04845,0.28947l0.03718,0.3075l-0.00823,0.04914l0.01719,0.04743l0.04482,0.69128l-0.00744,0.03311l0.01047,0.03252l0.01637,0.60561l0.14128,0.49659l-0.00143,0.18845l0.06524,0.17997l0.04482,0.69128l-0.00744,0.03311l0.01046,0.03252l0.018,0.66595l0.14622,0.68772l-0.01233,0.16122l0.05009,0.1558l0.018,0.66595l0.14622,0.68772l-0.00982,0.12841l0.04456,0.12294l0.03662,0.5647l0.15312,0.72015l-0.00609,0.0797l0.03185,0.07506l0.0507,0.41938l0.08945,0.31446l0.83066,1.2946l0.32101,0.27435l0.15552,0.22155l0.21213,0.18405l0.44975,0.65177l1.97634,2.25213l0.442,0.37777l0.17434,0.24831l0.23015,0.21258l0.30053,0.46837l0.57247,0.65235l0.09211,0.18697l0.15132,0.15635l0.07103,0.12694l0.27309,0.23339l0.2076,0.29572l0.2572,0.26576l0.49431,0.8834l0.03008,0.12613l0.08086,0.10861l0.15669,0.40186l0.27863,0.43426l0.05497,0.17908l0.11631,0.15621l0.22466,0.57608l0.00773,0.08617l0.04702,0.07655l0.17873,0.62819l0.41794,1.07182l0.00773,0.08617l0.04702,0.07655l0.17873,0.62819l0.19331,0.49574l0.00773,0.08617l0.04702,0.07651l0.20216,0.71052l-0.00108,0.14011l0.0559,0.13172l0.03088,0.25543l0.22186,0.45039l0.04013,0.22166l0.10816,0.20437l0.17965,0.84491l-0.01233,0.16122l0.05009,0.1558l0.01569,0.58046l0.23988,0.76169l0.006,0.28628l0.07551,0.27897l-0.0194,0.93746l0.13219,0.82374l-0.01791,0.14015l0.04001,0.1368l-0.00032,1.89658l0.0217,0.80202l-0.04386,0.16606l0.02047,0.16931l-0.49493,2.95712l-0.08962,0.18786l-0.02239,0.20196l-0.26982,0.65285l-0.08309,0.10735l-0.03271,0.1256l-0.27657,0.47242l-0.05772,0.34486l-0.03618,0.07588l0.02554,0.06547l-0.25036,0.40587l-0.20266,0.42487l-0.0751,0.02542l-0.04473,0.0725l-0.10678,0.10192l-0.09146,0.19175l-0.24099,0.28123l-0.1902,0.30835l-0.16924,0.16155l-0.082,0.14008l-0.20725,0.20651l-0.14845,0.24066l-0.28316,0.2703l-0.11782,0.14536l-0.28807,0.21591l-0.2417,0.25406l-1.60932,1.03095l-0.50788,0.48481l-0.32013,0.39498l-0.14629,0.10969l-0.02334,0.09962l-0.18926,0.10284l-0.02324,0.05265l-0.03783,0.04666l-0.02584,0.05415l-0.02488,0.00844l-0.7207,0.88918l-0.14629,0.10969l-0.02334,0.09962l-0.39872,0.21669l-0.13412,0.10053l-0.00664,0.02833l-0.11342,0.06165l-0.10105,0.07573l-0.03372,-0.00249l-0.15054,0.08183l-0.13412,0.10053l-0.00664,0.02833l-0.11342,0.06165l-0.10105,0.07573l-0.03372,-0.00249l-0.15054,0.08183l-0.35522,0.26626l-0.11849,-0.00877l-0.1642,0.08925l-0.33714,0.09596l-0.17107,0.01124l-0.15634,0.06042l-0.98893,0.15351l-0.31257,-0.01744l-0.01181,0.00334l-0.54611,0.03582l-0.54485,0.0481l-0.06576,-0.00804l-0.06827,0.00447l-0.01995,-0.01527l-0.08434,-0.01029l-0.42523,0.02014l-0.34844,0.0541l-0.38238,-0.02137l-0.38116,0.03365l-0.71831,-0.08776l-0.11384,0.01767l-0.38238,-0.02137l-0.38116,0.03365l-0.08902,-0.01089l-0.11384,0.01767l-0.09327,-0.0052l-0.08788,0.02723l-0.65178,0.05753l-0.2905,-0.03546l-0.29192,0.02575l-0.56097,-0.06854l-0.11384,0.01767l-0.09327,-0.0052l-0.08788,0.02723l-0.65178,0.05753l-0.2905,-0.03546l-0.29192,0.02575l-1.33954,-0.16365l-0.57341,0.02715l-0.23318,-0.03824l-0.23617,0.02087l-19.35044,-2.36433l-0.35487,-0.12356l-0.37406,-0.07108l-0.89893,-0.38415l-0.05173,-0.03793l-0.14411,-0.0176l-0.02415,0.00988l-0.06407,-0.02064l-0.06576,-0.00804l-0.50723,-0.17663l-0.51249,-0.16516l-0.05461,-0.03234l-0.0634,-0.02207l-0.00987,-0.02126l-0.16426,-0.09722l-0.81023,-0.78909l0.1013,-0.99746l-0.00155,-0.00334l0.00211,-0.00234l0.06314,-0.62186c-0.5546,-0.21641 -0.98578,-0.60611 -1.21351,-1.078z" fill="url(#color-3)" stroke="none" stroke-width="0.5"/><path d="M220.75994,75.61999l-0.02851,-0.01489l-0.01385,-0.05415c-0.15606,-0.26804 -0.23922,-0.57192 -0.22797,-0.89212l0.02202,-0.62616l0.07353,-0.22268l0.00813,-0.23126l0.09065,-0.2745l0.0488,-1.38852l-0.0983,-0.74765l0.02102,-0.13404l-0.03377,-0.13214l0.0006,-0.01671l-0.02076,-0.05479l-0.1502,-0.21573l-0.08841,-0.25155l-0.62319,-1.14993l-0.02968,-0.13288l-0.08096,-0.11625l-0.18203,-0.51788l-0.12397,-0.16972l-0.09048,-0.23883l-0.1502,-0.21573l-0.4001,-1.13838l-0.01651,-0.30177l-0.07542,-0.29513l0.00507,-0.14447l-0.07123,-0.27865l0.00813,-0.23126l-0.05778,-0.22602l0.0025,-0.07086l-0.0307,-0.08738l-0.01651,-0.30177l-0.07542,-0.29517l0.08361,-2.37946l0.07353,-0.22268l0.00813,-0.23126l0.09065,-0.2745l0.0183,-0.52013l0.07353,-0.22268l0.00813,-0.23126l0.14998,-0.45413l0.15677,-0.57884l0.06326,-0.10577l0.01481,-0.11809l0.27238,-0.63406l0.1377,-0.50839l0.06326,-0.10577l0.01482,-0.11809l0.26009,-0.60547l0.13951,-0.60298l0.14,-0.25398l0.08089,-0.2721l0.36926,-0.5863l0.26193,-0.70267l0.10822,-0.14971l0.05069,-0.17053l1.32433,-2.10274l0.58524,-1.36237l0.13613,-0.1712l0.07745,-0.1961l0.36656,-0.48816l0.24481,-0.48057l0.10856,-0.12063l0.05696,-0.1442l0.46172,-0.61491l0.08407,-0.06765l0.04798,-0.08975l0.27586,-0.29536l0.5142,-1.00939l0.0569,-0.06322l0.02298,-0.07728l1.63507,-2.59613l0.37162,-0.86505l0.30898,-1.2394l0.08258,-0.14425l0.02508,-0.15918l0.52917,-1.13593l0.16062,-1.13169l0.04272,-0.09534l-0.0021,-0.10211l0.32916,-1.21528l0.32024,-1.38401l0.18441,-1.46987l0.15224,-4.33219l-0.08524,-0.90109l-0.21858,-0.8553l-0.25334,-0.85381l-0.00013,-0.03212l-0.0167,-0.0288l-0.09714,-0.38007l-0.21988,-0.51388l-0.00696,-0.05618l-0.03381,-0.04856l-0.18203,-0.51788l-0.12397,-0.16972l-0.04827,-0.12749l-0.03488,-0.00692l-0.14452,-0.20751l-0.20898,-0.16261l-0.00428,-0.14365l-0.22189,-0.31865l-0.01763,-0.05017l-0.00181,-0.00272l-0.15762,-0.13002l-0.27995,-0.3832l-0.09048,-0.23883l-0.09167,-0.13164l-0.25528,-0.2316l-0.17272,-0.2636l-0.22196,-0.23519l-0.13776,-0.25421l-0.01636,-0.07324l-0.29023,-0.22582l-0.00279,-0.09372l-0.11274,-0.11944l-0.13777,-0.25421l-0.21259,-0.95141l0.35029,-0.42098l0.05162,-0.51466l0.88249,-0.60799l0.16731,-0.0662l0.0129,-0.01798l0.06172,-0.01151l0.05561,-0.02199l0.49645,-0.08097l0.49378,-0.09213l0.06125,0.00154l0.06205,-0.01011l0.02014,0.01224l3.69229,0.09472l1.16788,-0.08066l0.99626,-0.09561l0.15693,0.01794l0.15466,-0.02887l0.75536,0.01938l0.32614,-0.06084l0.27065,0.00696l0.26455,-0.04936l0.29315,0.0075l0.26061,0.06283l0.27065,0.00696l0.58191,0.14027l0.21022,0.10284l0.23477,0.05094l0.32209,0.14808l0.15343,-0.03156l0.23787,0.13038l0.27201,0.06558l0.07902,0.12686l0.36385,0.19944l0.16636,0.05217l0.24301,0.14108l0.27357,0.09149l0.43092,0.26176l0.14243,0.1422l0.18439,0.10111l0.13504,0.12252l0.25342,0.15394l0.14243,0.1422l0.18439,0.10107l0.28435,0.25799l0.10702,0.16334l0.15762,0.13002l0.04702,0.06439l0.07238,0.04394l0.14243,0.1422l0.18439,0.10107l0.28435,0.25799l0.10702,0.16334l0.15763,0.13002l0.52756,0.72218l1.23121,1.49402l0.10456,0.23137l0.16282,0.20534l0.17127,0.40022l0.25463,0.30896l0.10456,0.23137l0.16282,0.2053l0.23973,0.56027l0.20161,0.37203l0.37644,0.57449l0.06354,0.19971l0.12384,0.17788l0.08841,0.25155l0.20988,0.38725l0.04543,0.20327l0.10753,0.18544l0.62685,2.45297l0.10907,0.31034l0.00404,0.07362l0.03828,0.06607l0.23994,0.93886l0.10908,0.31034l0.01651,0.30177l0.07544,0.29517l-0.00947,0.26969l0.07123,0.27865l-0.00161,0.04581l0.02149,0.042l0.12457,0.62994l-0.00284,0.03101l0.01351,0.02891l0.08813,0.55386l0.18952,0.44289l0.02144,0.17289l0.08154,0.15929l0.12457,0.6299l-0.00282,0.03104l0.01351,0.02891l0.09692,0.60903l0.21711,0.6177l0.00816,0.14893l0.06475,0.13843l0.09692,0.60903l0.21711,0.6177l0.0065,0.11863l0.05571,0.10879l0.10177,0.51453l0.22737,0.64688l0.00404,0.07362l0.03828,0.06607l0.09714,0.38007l0.12,0.28046l0.91797,1.11386l0.32748,0.22329l0.16934,0.18941l0.21672,0.15009l0.49108,0.55801l2.08408,1.89091l0.45091,0.30746l0.18986,0.21235l0.2367,0.17465l0.33214,0.40299l0.60369,0.54772l0.10702,0.16334l0.15762,0.13002l0.08045,0.11015l0.27861,0.18995l0.22608,0.25286l0.26793,0.22101l0.55992,0.76643l0.0428,0.11298l0.08726,0.09244l0.19222,0.35466l0.30793,0.37366l0.07203,0.15933l0.12551,0.133l0.27553,0.50844l0.0175,0.07832l0.05234,0.06602l0.23974,0.56027l0.51264,0.94598l0.0175,0.07832l0.05234,0.06602l0.23974,0.56027l0.23711,0.43753l0.0175,0.07832l0.05234,0.06602l0.27114,0.63367l0.01594,0.12857l0.06717,0.11587l0.05914,0.23149l0.25781,0.39344l0.06354,0.19971l0.12384,0.17788l0.26675,0.75893l0.00816,0.14889l0.06475,0.13843l0.08448,0.53086l0.31189,0.67727l0.04006,0.26195l0.10293,0.24912l0.09538,0.86131l0.22067,0.74367l0.0005,0.13007l0.05319,0.12193l0.22868,1.73906l0.11673,0.73351l-0.02015,0.15612l0.03921,0.15347l-0.09681,2.75512l-0.05949,0.18016l0.00384,0.18716l-0.16858,0.6224l-0.06326,0.10577l-0.01482,0.11809l-0.19657,0.45758l-0.01129,0.32132l-0.02404,0.07277l0.03131,0.05776l-0.18059,0.39421l-0.13456,0.40741l-0.06578,0.02991l-0.03225,0.0704l-0.08559,0.10284l-0.06071,0.18386l-0.18703,0.27913l-0.1372,0.29948l-0.13567,0.16307l-0.05828,0.13568l-0.16511,0.20765l-0.10706,0.23375l-0.227,0.27283l-0.0905,0.14369l-0.23806,0.22337l-0.19094,0.25425l-1.3512,1.08717l-0.40717,0.48932l-0.24585,0.39037l-0.12091,0.11344l-0.00939,0.0934l-0.16113,0.11101l-0.01494,0.05032l-0.02906,0.04612l-0.01717,0.05194l-0.02178,0.0099l-0.55352,0.87883l-0.12091,0.11344l-0.00939,0.0934l-0.3394,0.23385l-0.11085,0.10401l-0.00269,0.02657l-0.09657,0.06653l-0.08353,0.07836l-0.03121,0.00066l-0.12816,0.08829l-0.11085,0.10401l-0.00269,0.02657l-0.09657,0.06653l-0.08353,0.07836l-0.03121,0.00066l-0.12816,0.08829l-0.29356,0.27543l-0.10971,0.00236l-0.13979,0.09633l-0.29755,0.11774l-0.15552,0.02538l-0.13607,0.06915l-0.88825,0.22792l-0.28871,0.01155l-0.01041,0.00412l-0.49642,0.08097l-0.49377,0.09213l-0.06125,-0.00158l-0.06206,0.01016l-0.02014,-0.01224l-0.07856,-0.00203l-0.3875,0.05595l-0.31296,0.08031l-0.35322,0.0141l-0.34546,0.06441l-0.66923,-0.01717l-0.10226,0.02623l-0.35318,0.0141l-0.34545,0.06445l-0.08294,-0.00213l-0.10226,0.02623l-0.08617,0.00347l-0.07727,0.0327l-0.59071,0.11019l-0.27065,-0.00696l-0.26455,0.04936l-0.52268,-0.01341l-0.10227,0.02623l-0.08617,0.00347l-0.07727,0.0327l-0.5907,0.11019l-0.27065,-0.00696l-0.26455,0.04936l-1.24804,-0.03202l-0.5225,0.07542l-0.21842,-0.01454l-0.21405,0.03993l-18.02871,-0.46251l-0.34028,-0.08202l-0.35157,-0.0322l-0.87066,-0.27304l-0.05203,-0.03018l-0.13429,-0.00347l-0.02095,0.0112l-0.06123,-0.01328l-0.06125,-0.00154l-0.48642,-0.11725l-0.48985,-0.10627l-0.05396,-0.02483l-0.06081,-0.01464l-0.01162,-0.01865l-0.16236,-0.07465l-0.83821,-0.65212l-0.02756,-0.92356l-0.00182,-0.00292l0.00167,-0.00234l-0.01718,-0.57576c-0.53467,-0.14954 -0.97707,-0.4689 -1.24288,-0.88147z" fill="url(#color-4)" stroke="none" stroke-width="0.5"/><path d="M205.37625,179.46951c0,0 9.42687,-30.462 11.80468,-48.45901c2.35457,-17.82105 2.39314,-59.00037 2.39314,-59.00037l41.66052,-0.34109c0,0 -1.12795,40.94869 1.42617,59.22261c2.46509,17.63697 13.64091,48.57786 13.64091,48.57786z" fill="url(#color-5)" stroke="none" stroke-width="0"/><path d="M179.86976,179.65803v-60.26043h46.61412v60.26043z" fill="url(#color-6)" stroke="url(#color-7)" stroke-width="0"/><path d="M267.87433,151.63824c0,14.98335 0.01372,26.93128 -17.8091,27.12975c-16.49564,0.18369 -17.8091,-12.1464 -17.8091,-27.12975c0,-14.98335 2.64508,-26.92288 17.8091,-27.12975c15.82517,-0.21589 17.8091,12.1464 17.8091,27.12975z" fill="url(#color-8)" stroke="url(#color-9)" stroke-width="0"/><path d="M304.69505,151.74275c0,14.98335 0.01372,26.93128 -17.8091,27.12975c-16.49563,0.18369 -17.8091,-12.1464 -17.8091,-27.12975c0,-14.98335 2.64508,-26.92288 17.8091,-27.12975c15.82517,-0.2159 17.8091,12.1464 17.8091,27.12975z" fill="url(#color-10)" stroke="url(#color-11)" stroke-width="0"/><path d="M248.30844,125.57587v-12.07868h4.07958v12.07868z" fill="#312d29" stroke="url(#color-12)" stroke-width="0"/><path d="M285.75928,125.85541v-12.07868h4.07958v12.07868z" fill="#312d29" stroke="url(#color-13)" stroke-width="0"/><path d="M246.70947,118.28278v-3.56521h44.12864v3.56521z" fill="#36322e" stroke="none" stroke-width="0"/><path d="M219.3546,82.45017v-7.24379h42.01397v7.24379z" fill="url(#color-14)" stroke="url(#color-15)" stroke-width="0"/><path d="M219.13907,94.98371v-7.24379h42.01397v7.24379z" fill="url(#color-16)" stroke="url(#color-17)" stroke-width="0"/><path d="M174.11977,179.65803v-31.51043h57.11412v31.51043z" fill="url(#color-18)" stroke="url(#color-19)" stroke-width="0"/><path d="M182.86977,140.2627v-14.86511h40.61412v14.86511z" fill="url(#color-20)" stroke="url(#color-21)" stroke-width="0"/><path d="M176.86977,171.42937v-14.86511h50.36412v14.86511z" fill="url(#color-22)" stroke="url(#color-23)" stroke-width="0"/><path d="M172.75034,180.33096v-1.31049h134.49932v1.31049z" fill="#312d29" stroke="url(#color-24)" stroke-width="0"/></g></g></svg>