<svg version="1.1" xmlns="http://www.w3.org/2000/svg" xmlns:xlink="http://www.w3.org/1999/xlink" width="96.63866" height="121.57419" viewBox="0,0,96.63866,121.57419"><defs><linearGradient x1="284.63607" y1="186.46093" x2="288.73828" y2="175.22558" gradientUnits="userSpaceOnUse" id="color-1"><stop offset="0" stop-color="#242424"/><stop offset="1" stop-color="#373737"/></linearGradient><radialGradient cx="281.1121" cy="186.57554" r="3.52256" gradientUnits="userSpaceOnUse" id="color-2"><stop offset="0" stop-color="#bfbfbf"/><stop offset="1" stop-color="#9a9a9a"/></radialGradient><linearGradient x1="290.42866" y1="175.1747" x2="315.91258" y2="137.5575" gradientUnits="userSpaceOnUse" id="color-3"><stop offset="0" stop-color="#b2b2b2"/><stop offset="1" stop-color="#c4c4c4"/></linearGradient><linearGradient x1="290.89424" y1="175.12825" x2="307.57391" y2="150.50718" gradientUnits="userSpaceOnUse" id="color-4"><stop offset="0" stop-color="#cccccc"/><stop offset="1" stop-color="#d8d8d8"/></linearGradient><linearGradient x1="288.6821" y1="177.03715" x2="290.08628" y2="175.0413" gradientUnits="userSpaceOnUse" id="color-5"><stop offset="0" stop-color="#b5b5b5"/><stop offset="1" stop-color="#c5c5c5"/></linearGradient><linearGradient x1="257.13087" y1="189.67898" x2="260.99518" y2="178.3596" gradientUnits="userSpaceOnUse" id="color-6"><stop offset="0" stop-color="#242424"/><stop offset="1" stop-color="#373737"/></linearGradient><radialGradient cx="253.61011" cy="189.86789" r="3.52256" gradientUnits="userSpaceOnUse" id="color-7"><stop offset="0" stop-color="#bfbfbf"/><stop offset="1" stop-color="#9a9a9a"/></radialGradient><linearGradient x1="262.68414" y1="178.27307" x2="287.36891" y2="140.12673" gradientUnits="userSpaceOnUse" id="color-8"><stop offset="0" stop-color="#b2b2b2"/><stop offset="1" stop-color="#c4c4c4"/></linearGradient><linearGradient x1="263.14859" y1="178.21681" x2="279.30525" y2="153.24942" gradientUnits="userSpaceOnUse" id="color-9"><stop offset="0" stop-color="#cccccc"/><stop offset="1" stop-color="#d8d8d8"/></linearGradient><linearGradient x1="260.97722" y1="180.17194" x2="262.33899" y2="178.14693" gradientUnits="userSpaceOnUse" id="color-10"><stop offset="0" stop-color="#b5b5b5"/><stop offset="1" stop-color="#c5c5c5"/></linearGradient><linearGradient x1="241.17263" y1="147.41133" x2="241.08184" y2="155.28405" gradientUnits="userSpaceOnUse" id="color-11"><stop offset="0" stop-color="#505050"/><stop offset="1" stop-color="#767676"/></linearGradient><radialGradient cx="236.39303" cy="124.03502" r="13.11833" gradientUnits="userSpaceOnUse" id="color-12"><stop offset="0" stop-color="#ccbe7a"/><stop offset="1" stop-color="#948f62"/></radialGradient><linearGradient x1="252.51946" y1="115.00056" x2="252.41287" y2="124.2424" gradientUnits="userSpaceOnUse" id="color-13"><stop offset="0" stop-color="#464646"/><stop offset="1" stop-color="#343434"/></linearGradient><linearGradient x1="252.51947" y1="115.00056" x2="252.41288" y2="124.2424" gradientUnits="userSpaceOnUse" id="color-14"><stop offset="0" stop-color="#131313"/><stop offset="1" stop-color="#202020"/></linearGradient><linearGradient x1="240.92679" y1="115.89388" x2="240.52284" y2="150.92159" gradientUnits="userSpaceOnUse" id="color-15"><stop offset="0" stop-color="#ffe8b5" stop-opacity="0.32941"/><stop offset="1" stop-color="#c2a53e" stop-opacity="0.63529"/></linearGradient><linearGradient x1="240.92679" y1="115.89388" x2="240.52284" y2="150.92159" gradientUnits="userSpaceOnUse" id="color-16"><stop offset="0" stop-color="#444444"/><stop offset="1" stop-color="#545454"/></linearGradient><linearGradient x1="229.63891" y1="113.30807" x2="229.50162" y2="125.2128" gradientUnits="userSpaceOnUse" id="color-17"><stop offset="0" stop-color="#464646"/><stop offset="1" stop-color="#343434"/></linearGradient><linearGradient x1="229.63891" y1="113.30807" x2="229.50162" y2="125.2128" gradientUnits="userSpaceOnUse" id="color-18"><stop offset="0" stop-color="#131313"/><stop offset="1" stop-color="#202020"/></linearGradient></defs><g transform="translate(-223.15768,-112.75231)"><g data-paper-data="{&quot;isPaintingLayer&quot;:true}" fill-rule="nonzero" stroke-linejoin="miter" stroke-miterlimit="10" stroke-dasharray="" stroke-dashoffset="0" style="mix-blend-mode: normal"><path d="M226.37974,195.41291l0.5251,-45.53284l25.57526,0.29495l-0.22944,45.53625z" fill="#747474" stroke="none" stroke-width="NaN" stroke-linecap="butt"/><g><path d="M226.1234,227.23587l3.75904,-33.71008c0,0 6.75518,-2.18267 9.822,-2.18267c3.62872,0 0.6063,4.24407 0.6063,4.24407c0,0 -3.09204,0.08829 -3.39803,1.52409c-0.93579,4.39099 -2.78619,30.12458 -2.78619,30.12458z" fill="#ffefeb" stroke="#000000" stroke-width="0" stroke-linecap="butt"/><path d="M241.47427,232.29258c0,0 -0.3857,1.94015 -1.2126,1.94015c-0.59276,0 -2.64411,0.01366 -4.70436,-0.06689c-1.25258,-0.04897 -1.90215,-0.61779 -2.83553,-0.76063c-1.17507,-0.17983 -2.93853,0.22047 -3.78777,0.02896c-1.56485,-0.35288 -2.37463,-0.77781 -2.37463,-0.77781c0,0 -0.26912,-1.02539 -0.2856,-1.5858c-0.02221,-0.755 0.16433,-2.53701 0.16433,-2.53701c0,0 5.93424,-0.11957 8.24914,0.08075c1.36979,0.11854 4.24057,0.6468 4.24057,0.6468c0,0 1.45975,0.6156 1.67337,1.04283c0.26162,0.52325 0.87307,1.98866 0.87307,1.98866z" data-paper-data="{&quot;index&quot;:null}" fill="#141415" stroke="#000000" stroke-width="0" stroke-linecap="butt"/><path d="M241.20337,231.65797c0,0 -0.38569,0 -1.21259,0c-0.24822,0 0.70239,1.60165 -2.61811,1.33311c-3.13563,-0.25359 -2.77648,-1.18823 -3.8809,-1.26883c-2.30937,-0.16854 -2.58766,0.59503 -3.58733,0.44204c-0.34815,-0.05328 -0.51271,-0.11454 -1.78458,-0.97035c-0.87471,-0.58857 -0.66566,-1.75122 -1.26542,-2.3793c-0.87609,-0.91746 -0.80847,-1.8858 -0.80847,-1.8858l-0.07637,-3.04773c0,0 0.48635,2.20682 1.32529,3.03123c0.75062,0.73761 2.3169,-0.01875 2.80058,-0.01889c0.84695,-0.00024 -0.68885,-3.26805 0.12091,-3.24981c0.43542,0.00981 3.72275,-0.23408 3.72275,-0.23408c0,0 0.12302,3.57988 0.35598,3.60004c1.36978,0.11854 4.60434,0.6468 4.60434,0.6468c0,0 1.45975,0.6156 1.67337,1.04283c0.26163,0.52325 0.63055,2.95873 0.63055,2.95873z" data-paper-data="{&quot;index&quot;:null}" fill="#252527" stroke="#000000" stroke-width="0" stroke-linecap="butt"/><path d="M235.18839,227.628l-2.66771,1.09134" data-paper-data="{&quot;index&quot;:null}" fill="none" stroke="#ffffff" stroke-width="0.5" stroke-linecap="round"/><path d="M234.46083,229.08313l2.54644,-1.45511" data-paper-data="{&quot;index&quot;:null}" fill="none" stroke="#ffffff" stroke-width="0.5" stroke-linecap="round"/><path d="M236.64349,229.32567l1.45512,-1.45512" data-paper-data="{&quot;index&quot;:null}" fill="none" stroke="#ffffff" stroke-width="0.5" stroke-linecap="round"/><path d="M231.30808,224.83905l2.18267,-0.24252" data-paper-data="{&quot;index&quot;:null}" fill="none" stroke="#969696" stroke-width="0.5" stroke-linecap="round"/><path d="M233.73327,225.32412l-1.94015,0.36378" data-paper-data="{&quot;index&quot;:null}" fill="none" stroke="#969696" stroke-width="0.5" stroke-linecap="round"/></g><path d="M292.53969,180.04121c-0.31294,0.39868 -3.50476,-1.82092 -4.67413,-1.03682c-0.40146,0.26919 3.72268,3.55583 2.97585,4.10984c-0.44333,0.32886 -2.69093,-1.53507 -4.02321,-2.093c-0.64905,-0.27181 -4.75981,-2.84299 -4.75981,-2.84299c0,0 -2.01423,-2.28546 -5.138,-3.88685c-0.75118,-0.38507 -3.10181,-1.82271 -3.87778,-2.21016c-1.83651,-0.91695 -3.69418,-1.75597 -4.80473,-2.34782c-2.38865,-1.27293 -13.40346,-8.08949 -13.40346,-8.08949c0,0 -6.66745,-2.50825 -5.42639,-4.29056c3.82768,-5.49702 7.32844,-0.96265 7.32844,-0.96265c0,0 5.39533,3.76496 11.42428,7.287c4.53526,2.64945 9.64756,5.00992 11.87483,6.3706c2.63598,1.61038 5.76244,4.09654 5.76244,4.09654c0,0 2.29049,1.59229 4.13405,3.04531c1.65881,1.30741 2.90894,2.46717 2.60759,2.8511z" data-paper-data="{&quot;index&quot;:null}" fill="#8c8c8c" stroke="#000000" stroke-width="0" stroke-linecap="butt"/><g stroke="none" stroke-width="0" stroke-linecap="butt"><path d="M285.66791,186.83767l-4.16727,-2.82082l6.20579,-9.16797l4.16727,2.82084z" fill="url(#color-1)"/><path d="M283.99722,183.07542c1.82744,0.66723 2.768,2.68957 2.10078,4.51701c-0.66723,1.82746 -2.68958,2.76801 -4.51702,2.10079c-1.82745,-0.66722 -2.76801,-2.68958 -2.10078,-4.51701c0.66723,-1.82746 2.68958,-2.76801 4.51702,-2.10079z" fill="url(#color-2)"/><path d="M294.27922,177.78328l-7.70116,-5.21716l26.87396,-36.28313l6.34432,-5.14892l-2.22073,7.76136z" fill="url(#color-3)"/><path d="M293.41451,176.83561l-5.37221,-3.54887l22.53067,-30.23977l6.6938,-7.74511l-4.52405,8.85505z" fill="url(#color-4)"/><path d="M281.65177,166.42993c0,0 5.28327,6.01567 8.48212,8.33004c3.51218,2.54107 11.73881,6.29984 11.73881,6.29984c0,0 -9.82716,-1.90691 -13.23353,-4.37147c-3.33229,-2.41092 -6.98739,-10.25843 -6.98739,-10.25843z" fill="url(#color-5)"/></g><g><path d="M239.70443,191.3431c3.62872,0 10.54956,2.18267 10.54956,2.18267l3.03149,33.71008h-7.63934c0,0 -1.32697,-25.53818 -2.03751,-29.57011c-0.20138,-1.1427 -3.2979,-2.07857 -3.2979,-2.07857c0,0 -3.67312,-4.24407 -0.6063,-4.24407z" fill="#ffefeb" stroke="#000000" stroke-width="0" stroke-linecap="butt"/><path d="M259.69261,234.32563c-0.59276,0 -2.64411,0.01365 -4.70436,-0.0669c-1.25258,-0.04897 -1.90215,-0.61779 -2.83553,-0.76063c-1.17507,-0.17982 -2.93854,0.22047 -3.78778,0.02896c-1.56485,-0.35288 -2.37463,-0.77782 -2.37463,-0.77782c0,0 -0.26911,-1.0254 -0.2856,-1.5858c-0.02221,-0.75501 0.16433,-2.53701 0.16433,-2.53701c0,0 5.93425,-0.11957 8.24914,0.08076c1.36979,0.11854 4.24057,0.6468 4.24057,0.6468c0,0 1.45976,0.6156 1.67337,1.04283c0.26162,0.52325 0.87307,1.98865 0.87307,1.98865c0,0 -0.3857,1.94015 -1.21259,1.94015z" data-paper-data="{&quot;index&quot;:null}" fill="#141415" stroke="#000000" stroke-width="0" stroke-linecap="butt"/><path d="M259.4217,231.75086c-0.24822,0 0.7024,1.60165 -2.61811,1.33311c-3.13563,-0.25358 -2.77648,-1.18823 -3.8809,-1.26883c-2.30937,-0.16854 -2.58765,0.59503 -3.58732,0.44205c-0.34815,-0.05328 -0.51271,-0.11454 -1.78459,-0.97035c-0.87472,-0.58857 -0.66566,-1.75122 -1.26542,-2.3793c-0.87609,-0.91745 -0.80847,-1.8858 -0.80847,-1.8858l-0.07637,-3.04773c0,0 0.48635,2.20681 1.32529,3.03122c0.75062,0.73761 2.3169,-0.01875 2.80058,-0.01889c0.84696,-0.00024 -0.68885,-3.26804 0.12091,-3.2498c0.43542,0.00981 3.72275,-0.23409 3.72275,-0.23409c0,0 0.12302,3.57989 0.35598,3.60005c1.36979,0.11854 4.60434,0.6468 4.60434,0.6468c0,0 1.45976,0.6156 1.67338,1.04283c0.26162,0.52325 0.63055,2.95873 0.63055,2.95873c0,0 -0.3857,0 -1.2126,0z" data-paper-data="{&quot;index&quot;:null}" fill="#252527" stroke="#000000" stroke-width="0" stroke-linecap="butt"/><path d="M254.61932,227.7209l-2.6677,1.09133" fill="none" stroke="#ffffff" stroke-width="0.5" stroke-linecap="round"/><path d="M253.89177,229.17601l2.54645,-1.45511" fill="none" stroke="#ffffff" stroke-width="0.5" stroke-linecap="round"/><path d="M257.52956,227.96345l-1.45512,1.45511" fill="none" stroke="#ffffff" stroke-width="0.5" stroke-linecap="round"/><path d="M250.73903,224.93192l2.18266,-0.24252" fill="none" stroke="#969696" stroke-width="0.5" stroke-linecap="round"/><path d="M251.22407,225.78079l1.94015,-0.36378" fill="none" stroke="#969696" stroke-width="0.5" stroke-linecap="round"/></g><path d="M290.29451,186.18639c-0.33526,0.33746 -3.15259,-1.80433 -4.02747,-1.99361c-0.46834,-0.10132 2.91408,3.66277 2.15374,4.10127c-0.45135,0.2603 -2.38605,-1.67952 -3.58763,-2.32451c-0.5854,-0.31422 -4.20775,-3.08866 -4.20775,-3.08866c0,0 -1.67225,-2.30616 -4.46017,-4.08913c-0.67042,-0.42876 -2.74503,-1.98513 -3.43864,-2.41846c-1.64153,-1.02561 -3.31082,-1.98133 -4.29973,-2.63599c-2.12699,-1.40804 -11.84051,-8.77489 -11.84051,-8.77489c0,0 -9.09214,-2.97304 -6.49607,-6.43225c2.28512,-3.04488 8.81724,1.7688 8.81724,1.7688c0,0 4.71526,4.00169 10.05285,7.84102c4.0152,2.88812 8.60396,5.56579 10.56985,7.0391c2.32665,1.74366 5.02857,4.34362 5.02857,4.34362c0,0 2.00237,1.69326 3.59689,3.21435c1.43474,1.36868 2.46169,3.12439 2.13886,3.44936z" data-paper-data="{&quot;index&quot;:null}" fill="#969696" stroke="#000000" stroke-width="0" stroke-linecap="butt"/><g><path d="M229.78198,193.07695c0,0 1.11137,-4.95583 0.65373,-10.34558c-0.14249,-1.67815 -0.1474,-5.69102 -0.62966,-7.54969c-0.57019,-2.1976 -2.50186,-2.80684 -2.57127,-4.15905c-0.1371,-2.67096 -0.9916,-6.80558 -0.2853,-11.37528c0.53242,-3.44475 3.53092,-6.25817 3.53092,-6.25817c0,0 3.99053,-0.24307 5.76381,0.14359c2.25728,0.49222 7.72064,0.55929 9.63874,0.16512c2.02384,-0.4159 5.48391,0.08001 5.48391,0.08001c0,0 2.58034,3.55188 2.75726,7.87328c0.16698,4.0786 -0.73023,8.45998 -0.82612,10.12886c-0.09719,1.69156 -1.51957,2.11391 -2.18144,4.24994c-0.52802,1.70407 -0.60686,5.1838 -0.76032,7.1812c-0.35642,4.63916 0.02935,10.27474 0.02935,10.27474c0,0 -2.74791,-0.80107 -5.56184,-0.90173c-1.27789,-0.04571 -1.80274,0.98538 -3.01174,1.13067c-0.96637,0.1161 -2.62899,-0.64327 -3.55334,-0.69068c-0.69877,-0.03584 -2.03752,-0.55414 -2.53167,-0.56394c-0.99779,-0.0198 -1.62559,0.84659 -2.78508,0.9926c-1.34688,0.16957 -3.15998,-0.37586 -3.15998,-0.37586z" fill="#9d9d9d" stroke="#292e32" stroke-width="0" stroke-linecap="butt"/><path d="M234.53368,168.57755l2.33509,-9.01257" fill="#ff0000" stroke="#ff0000" stroke-width="1" stroke-linecap="round"/><path d="M228.34879,167.05134l4.07699,-8.06292" fill="#ff0000" stroke="#ff0000" stroke-width="1" stroke-linecap="round"/><path d="M231.30536,168.01811l3.26202,-8.79392" fill="#ff0000" stroke="#ff0000" stroke-width="1" stroke-linecap="round"/><path d="M248.45674,168.82203l-1.50348,-9.05683" data-paper-data="{&quot;index&quot;:null}" fill="#ff0000" stroke="#ff0000" stroke-width="1" stroke-linecap="round"/><path d="M252.94284,167.41889l-2.77726,-8.14197" data-paper-data="{&quot;index&quot;:null}" fill="#ff0000" stroke="#ff0000" stroke-width="1" stroke-linecap="round"/><path d="M248.61803,159.47017l2.17561,8.85664" data-paper-data="{&quot;index&quot;:null}" fill="#ff0000" stroke="#ff0000" stroke-width="1" stroke-linecap="round"/><path d="M232.03619,189.71371c0.00523,-0.41418 0.34525,-0.74568 0.75944,-0.74045c0.41418,0.00523 0.74568,0.34525 0.74045,0.75944c-0.00523,0.41418 -0.34524,0.74568 -0.75944,0.74045c-0.41418,-0.00523 -0.74568,-0.34525 -0.74045,-0.75944z" fill="#002dff" stroke="none" stroke-width="0.5" stroke-linecap="butt"/><path d="M235.72294,189.76037c0.00523,-0.41418 0.34525,-0.74568 0.75944,-0.74045c0.41418,0.00523 0.74568,0.34525 0.74045,0.75944c-0.00523,0.41418 -0.34524,0.74568 -0.75944,0.74045c-0.41418,-0.00523 -0.74568,-0.34525 -0.74045,-0.75944z" fill="#002dff" stroke="none" stroke-width="0.5" stroke-linecap="butt"/><path d="M239.51211,189.8083c0.00523,-0.41418 0.34524,-0.74568 0.75944,-0.74045c0.41418,0.00523 0.74568,0.34525 0.74045,0.75944c-0.00523,0.41418 -0.34525,0.74568 -0.75944,0.74045c-0.41418,-0.00523 -0.74568,-0.34525 -0.74045,-0.75944z" fill="#002dff" stroke="none" stroke-width="0.5" stroke-linecap="butt"/><path d="M243.40369,189.85758c0.00523,-0.41418 0.34525,-0.74569 0.75944,-0.74045c0.41418,0.00523 0.74568,0.34525 0.74045,0.75944c-0.00523,0.41418 -0.34525,0.74568 -0.75944,0.74045c-0.41418,-0.00523 -0.74568,-0.34524 -0.74045,-0.75944z" fill="#002dff" stroke="none" stroke-width="0.5" stroke-linecap="butt"/><path d="M247.09044,189.90428c0.00523,-0.41418 0.34525,-0.74569 0.75944,-0.74045c0.41418,0.00523 0.74568,0.34525 0.74045,0.75945c-0.00523,0.41418 -0.34525,0.74568 -0.75943,0.74044c-0.41418,-0.00523 -0.74568,-0.34524 -0.74045,-0.75944z" fill="#002dff" stroke="none" stroke-width="0.5" stroke-linecap="butt"/><path d="M239.34123,177.209c0.01593,-1.38062 1.14805,-2.48693 2.52866,-2.47099c1.38062,0.01593 2.48693,1.14805 2.47099,2.52866c-0.01593,1.38062 -1.14805,2.48693 -2.52866,2.47099c-1.38062,-0.01593 -2.48693,-1.14805 -2.47099,-2.52866z" fill="#797979" stroke="#00ff35" stroke-width="1" stroke-linecap="butt"/><path d="M237.85058,176.88453l-5.73503,-0.06614" fill="none" stroke="#00ff35" stroke-width="1" stroke-linecap="round"/><path d="M249.31948,177.11921l-3.58441,-0.04133" fill="none" stroke="#00ff35" stroke-width="1" stroke-linecap="round"/></g><path d="M259.14717,185.51925c-2.02393,-1.19189 -4.33669,-2.75944 -4.33669,-2.75944c0,0 -3.45322,-2.01229 -5.90444,-3.9068c-2.07113,-1.60074 -6.1024,-5.5857 -10.2049,-8.89459c-5.45366,-4.39866 -10.91501,-8.08531 -10.91501,-8.08531c0,0 -4.76616,-3.27954 -1.56071,-7.45153c2.91569,-3.79487 6.33058,3.12484 6.33058,3.12484c0,0 9.86529,8.22717 11.90994,10.0198c0.95064,0.83346 2.39778,2.28907 3.91131,3.69249c0.63951,0.59297 2.82685,2.28173 3.45543,2.85167c2.61393,2.37008 5.48651,3.38801 5.48651,3.38801c0,0 3.87931,2.93001 4.36471,3.44731c0.99637,1.06177 3.55148,2.47721 3.3955,3.04014c-0.26272,0.94829 -5.83322,-2.00063 -5.60318,-1.53778c0.42968,0.86463 3.55562,3.9676 3.28772,4.43278c-0.25797,0.44795 -1.7957,-0.28917 -3.61679,-1.36162z" data-paper-data="{&quot;index&quot;:null}" fill="#a1a1a1" stroke="#000000" stroke-width="0" stroke-linecap="butt"/><g stroke="none" stroke-width="0" stroke-linecap="butt"><path d="M258.17042,190.03386l-4.22586,-2.73229l6.01103,-9.29683l4.22586,2.73231z" fill="url(#color-6)"/><path d="M256.42075,186.3077c1.8411,0.62853 2.82412,2.63058 2.19558,4.47172c-0.62853,1.84112 -2.63059,2.82413 -4.47172,2.19559c-1.84111,-0.62853 -2.82413,-2.63059 -2.19558,-4.47172c0.62853,-1.84112 2.63059,-2.82413 4.47172,-2.19559z" fill="url(#color-7)"/><path d="M266.58884,180.79988l-7.8095,-5.05357l26.10266,-36.84192l6.2343,-5.28158l-2.05654,7.80649z" fill="url(#color-8)"/><path d="M265.70435,179.87065c0,0 -0.29821,-0.18808 -0.58977,-0.37198c-0.83665,-0.52769 -4.85611,-3.0628 -4.85611,-3.0628l21.88783,-30.70827l6.52894,-7.88456l-4.33626,8.94849z" fill="url(#color-9)"/><path d="M253.72473,169.7154c0,0 5.40898,5.90289 8.65595,8.14927c3.56498,2.46642 11.86907,6.05085 11.86907,6.05085c0,0 -9.86517,-1.69924 -13.3228,-4.09137c-3.38241,-2.34008 -7.20223,-10.10875 -7.20223,-10.10875z" fill="url(#color-10)"/></g><path d="M258.18998,189.6088c-1.94665,-1.205 -4.16668,-2.78233 -4.16668,-2.78233c0,0 -3.32183,-2.03525 -5.66974,-3.93413c-1.98386,-1.60446 -5.82654,-5.57447 -9.75318,-8.8872c-5.21988,-4.40376 -10.4626,-8.11385 -10.4626,-8.11385c0,0 -6.89922,-5.67608 -2.13011,-9.76202c2.59228,-2.22093 6.41542,5.97595 6.41542,5.97595c0,0 9.89256,7.90188 11.84646,9.69276c0.90846,0.83265 2.28734,2.28225 3.73207,3.68243c0.61044,0.5916 2.70565,2.28434 3.30595,2.85327c2.49625,2.36585 5.27366,3.41958 5.27366,3.41958c0,0 7.01434,6.61293 6.89244,7.09586c-0.35513,1.40668 -4.99769,-2.68218 -4.84448,-2.12964c0.28943,1.04381 3.3271,3.84644 3.05603,4.294c-0.26104,0.43098 -1.74366,-0.32042 -3.49524,-1.40468z" data-paper-data="{&quot;index&quot;:null}" fill="#adadad" stroke="#000000" stroke-width="0" stroke-linecap="butt"/><g><path d="M231.44065,155.17287l0.09078,-7.87268c0,0 6.3248,3.49631 9.41981,3.532c3.31706,0.03826 9.86257,-3.30963 9.86257,-3.30963l-0.09078,7.87268c0,0 -6.38488,0.61105 -9.58845,0.57409c-3.22376,-0.03717 -9.69394,-0.79647 -9.69394,-0.79647z" fill="url(#color-11)" stroke="none" stroke-width="0" stroke-linecap="butt"/><path d="M252.23979,117.53702c0,0 -0.30078,3.24121 -0.64129,4.56574c-0.27891,1.08482 -1.25415,2.80684 -1.25415,2.80684" data-paper-data="{&quot;index&quot;:null}" fill="none" stroke="#3b2c16" stroke-width="1.25" stroke-linecap="round"/><path d="M253.59623,121.69121c0,0 -0.21534,2.27617 -0.62599,3.22839c-0.43434,1.00711 -1.91295,2.65885 -1.91295,2.65885" data-paper-data="{&quot;index&quot;:null}" fill="none" stroke="#3b2c16" stroke-width="1.25" stroke-linecap="round"/><path d="M250.00706,115.74714c0,0 0.07887,3.27217 -0.08451,4.69238c-0.1338,1.16318 -0.82482,3.2128 -0.82482,3.2128" data-paper-data="{&quot;index&quot;:null}" fill="none" stroke="#3b2c16" stroke-width="1.25" stroke-linecap="round"/><path d="M253.37672,134.01205c-0.08523,7.39104 -8.38469,17.219 -11.59841,17.24379c-6.69248,0.05163 -14.11633,-10.14831 -14.0311,-17.53937c0.08523,-7.39104 5.8917,-13.3165 12.96909,-13.23489c7.07739,0.08161 12.74565,6.1394 12.66041,13.53045z" fill="url(#color-12)" stroke="none" stroke-width="0" stroke-linecap="butt"/><path d="M242.46157,134.96941c-0.02379,2.06278 -0.89464,3.72517 -1.9451,3.71306c-1.05046,-0.01211 -1.88273,-1.69415 -1.85894,-3.75693c0.02379,-2.06278 0.89464,-3.72516 1.94509,-3.71305c1.05046,0.01211 1.88274,1.69414 1.85895,3.75692z" fill="none" stroke="#191412" stroke-width="1.5" stroke-linecap="butt"/><path d="M247.25943,129.46268c-0.02379,2.06278 -0.89464,3.72517 -1.94509,3.71306c-1.05046,-0.01211 -1.88274,-1.69415 -1.85895,-3.75693c0.02379,-2.06278 0.89464,-3.72517 1.9451,-3.71306c1.05046,0.01211 1.88273,1.69414 1.85894,3.75693z" fill="none" stroke="#191412" stroke-width="1.5" stroke-linecap="butt"/><path d="M251.89177,135.03169c-0.02379,2.06278 -0.89463,3.72517 -1.94509,3.71306c-1.05046,-0.01211 -1.88274,-1.69415 -1.85895,-3.75693c0.02379,-2.06278 0.89464,-3.72516 1.9451,-3.71305c1.05046,0.01211 1.88273,1.69414 1.85894,3.75692z" fill="none" stroke="#191412" stroke-width="1.5" stroke-linecap="butt"/><path d="M247.07947,140.10532c-0.02379,2.06278 -0.89464,3.72517 -1.94509,3.71306c-1.05046,-0.01211 -1.88274,-1.69415 -1.85895,-3.75693c0.02379,-2.06278 0.89464,-3.72516 1.9451,-3.71305c1.05046,0.01211 1.88273,1.69414 1.85894,3.75692z" fill="none" stroke="#191412" stroke-width="1.5" stroke-linecap="butt"/><path d="M233.19913,125.0333c0,0 -1.53631,-1.75007 -1.95824,-2.84271c-0.51517,-1.33408 -0.90928,-4.58305 -0.90928,-4.58305" fill="none" stroke="#47341a" stroke-width="1.5" stroke-linecap="round"/><path d="M231.96049,127.6804c0,0 -2.35748,-1.69457 -3.03463,-2.7141c-0.64023,-0.96395 -0.92367,-3.24568 -0.92367,-3.24568" fill="none" stroke="#47341a" stroke-width="1.5" stroke-linecap="round"/><path d="M235.26461,123.81301c0,0 -1.06419,-2.06922 -1.24771,-3.23593c-0.22407,-1.42454 0.00048,-4.69331 0.00048,-4.69331" fill="none" stroke="#47341a" stroke-width="1.5" stroke-linecap="round"/><path d="M249.22823,118.38596l-0.07463,-3.42422l6.73173,0.07764l-0.10658,9.24184c0,0 -2.57667,-3.05632 -3.78219,-4.14125c-0.85587,-0.77023 -2.76833,-1.75402 -2.76833,-1.75402z" fill="url(#color-13)" stroke="url(#color-14)" stroke-width="1" stroke-linecap="butt"/><path d="M240.52283,150.92159c-9.011,-0.10392 -16.22543,-8.02939 -16.11388,-17.70204c0.11155,-9.67265 7.50684,-17.42962 16.51783,-17.32571c9.01101,0.10392 16.22544,8.02938 16.11389,17.70203c-0.11155,9.67266 -7.50684,17.42963 -16.51784,17.32572z" fill="url(#color-15)" stroke="url(#color-16)" stroke-width="2.5" stroke-linecap="butt"/><path d="M230.15963,119.94209c-1.58469,1.36135 -4.99368,5.22071 -4.99368,5.22071l0.13729,-11.90475l8.67138,0.10001l-0.19783,4.40747c0,0 -2.4921,1.21009 -3.61715,2.17657z" data-paper-data="{&quot;index&quot;:null}" fill="url(#color-17)" stroke="url(#color-18)" stroke-width="1" stroke-linecap="butt"/></g></g></g></svg>