<svg version="1.1" xmlns="http://www.w3.org/2000/svg" xmlns:xlink="http://www.w3.org/1999/xlink" width="1016.36198" height="40.80139" viewBox="0,0,1016.36198,40.80139"><defs><linearGradient x1="110.8647" y1="213.31583" x2="110.8647" y2="229.72768" gradientUnits="userSpaceOnUse" id="color-1"><stop offset="0" stop-color="#5c5450"/><stop offset="1" stop-color="#3f3735"/></linearGradient><linearGradient x1="114.90487" y1="189.52176" x2="114.90487" y2="218.11016" gradientUnits="userSpaceOnUse" id="color-2"><stop offset="0" stop-color="#685855"/><stop offset="1" stop-color="#473f39"/></linearGradient><linearGradient x1="365.8647" y1="213.31583" x2="365.8647" y2="229.72768" gradientUnits="userSpaceOnUse" id="color-3"><stop offset="0" stop-color="#5c5450"/><stop offset="1" stop-color="#3f3735"/></linearGradient><linearGradient x1="369.90488" y1="189.52177" x2="369.90488" y2="218.11016" gradientUnits="userSpaceOnUse" id="color-4"><stop offset="0" stop-color="#685855"/><stop offset="1" stop-color="#473f39"/></linearGradient><linearGradient x1="651.1147" y1="213.31583" x2="651.1147" y2="229.72768" gradientUnits="userSpaceOnUse" id="color-5"><stop offset="0" stop-color="#5c5450"/><stop offset="1" stop-color="#3f3735"/></linearGradient><linearGradient x1="655.15487" y1="189.52176" x2="655.15487" y2="218.11016" gradientUnits="userSpaceOnUse" id="color-6"><stop offset="0" stop-color="#685855"/><stop offset="1" stop-color="#473f39"/></linearGradient><linearGradient x1="906.11471" y1="213.31583" x2="906.11471" y2="229.72768" gradientUnits="userSpaceOnUse" id="color-7"><stop offset="0" stop-color="#5c5450"/><stop offset="1" stop-color="#3f3735"/></linearGradient><linearGradient x1="910.15488" y1="189.52177" x2="910.15488" y2="218.11016" gradientUnits="userSpaceOnUse" id="color-8"><stop offset="0" stop-color="#685855"/><stop offset="1" stop-color="#473f39"/></linearGradient></defs><g transform="translate(-0.30871,-188.9263)"><g data-paper-data="{&quot;isPaintingLayer&quot;:true}" fill-rule="nonzero" stroke="none" stroke-width="0.5" stroke-linecap="butt" stroke-linejoin="miter" stroke-miterlimit="10" stroke-dasharray="" stroke-dashoffset="0" style="mix-blend-mode: normal"><path d="M150.46858,229.57353c-0.28319,0 -0.59519,0.01066 -0.92523,0.02621c-0.441,-0.01276 -0.87234,-0.02699 -1.27351,-0.02654l-0.54401,0.00069c0,0 -0.25598,0.00043 -0.36374,0.13808c-0.93287,0.03313 -1.83944,0.02362 -2.53271,-0.12562c-1.49232,-0.32127 -2.98977,-0.89905 -4.61214,-1.10446c-1.39071,-0.17608 -2.71692,0.2845 -3.84615,-0.37392c-5.7134,-0.13432 -11.2564,-1.82693 -17.04647,-1.88397c-2.93547,-0.01084 -5.89133,-0.39672 -8.86035,-0.67533c-2.67989,-0.25148 -5.5638,-0.08212 -8.2652,-0.07886c-5.66376,-0.64951 -11.52946,-0.38125 -17.2673,-0.38125c-3.52495,0 -7.14992,0.16774 -10.66491,-0.00036c-2.21668,-0.10601 -4.33535,-0.3732 -6.57482,-0.37454c-1.6675,-0.00028 -3.20241,-0.29007 -4.86724,-0.34153c-4.1065,-0.12692 -8.24683,-0.0332 -12.35689,-0.0332c-1.12576,0.00463 -2.07512,-0.32417 -3.20818,-0.34259c-4.66138,-0.07576 -9.32968,-0.03144 -13.9922,-0.03144c-5.75801,0 -11.51603,-0.00015 -17.27404,-0.00015c-1.46199,0 -2.57115,-0.15958 -3.97944,-0.31483c-0.76962,-0.08485 -1.68028,0.08221 -2.4311,-0.05032c-0.54467,-0.09615 -1.0408,-0.3237 -1.59991,-0.3667c-1.23547,-0.09501 -2.79836,-0.15233 -3.98466,-0.37479c-1.18828,-0.22283 -2.42562,-0.50249 -3.68967,-0.64827c0.74191,-0.17983 1.45957,-0.47524 2.11288,-0.65034c0.51259,-0.13739 1.13681,0.092 1.65134,-0.04197c0.25436,-0.06623 0.35869,-0.29992 0.6112,-0.36934c1.10825,-0.3047 2.85949,0.17944 4.05134,0.00762c0.79557,-0.11469 1.47976,-0.55468 2.26666,-0.6828c0.87672,-0.14273 1.55346,-0.03331 2.42859,-0.2829c2.06391,-0.30162 4.33266,-0.14941 6.43711,-0.14941c3.56448,0 7.12896,-0.00006 10.69344,-0.00006c1.00246,0 2.44554,0.17378 3.40601,-0.01135c1.51885,-0.29275 2.93022,-0.79851 4.57681,-0.99608c2.98575,-0.35826 6.07126,-0.32099 8.95326,-1.00026c1.57119,-0.38068 3.20915,-0.06141 4.81785,-0.2388c4.04219,-0.44575 8.05078,-1.23576 12.01424,-1.93957c5.52643,-0.98241 11.17327,-1.93811 16.79153,-2.46919c5.82179,-0.33806 11.31202,0.66568 17.0829,0.66575c1.57286,-0.00905 3.23964,0.2902 4.86447,0.33791c4.10785,0.12059 8.27236,0.03084 12.38334,0.03085c5.75801,0 11.52973,0.00907 17.28774,0.00907c5.75801,0 11.51776,0.00323 17.27577,0.00323c5.75801,0 11.51648,0.00141 17.27449,0.00141c1.84029,-0.00987 3.69741,0.5353 5.48271,0.82909c3.7231,0.61265 7.25343,1.26823 10.7464,2.43228c5.50456,1.29471 10.78238,2.5596 16.74764,2.70402c1.03468,0.00914 2.21822,-0.09475 3.23741,0.01214c0.89588,0.09396 1.35846,0.49047 2.11612,0.68121c1.01014,0.25431 2.31304,-0.09662 3.34614,0.06232c1.02891,0.1583 1.96067,0.65753 2.90637,0.91739c1.62421,0.4463 3.14824,0.09693 4.66255,0.86668c1.23765,0.08734 2.07436,0.43187 3.24411,0.45749c0.43849,0.00961 0.90513,0.031 1.29159,0.17248c0.11389,0.04169 0.44874,0.13173 0.32161,0.14776c-1.10483,0.13925 -2.67376,-0.35559 -3.87761,-0.11333c-0.26603,0.05353 -0.42874,0.25443 -0.69097,0.31605c-1.90511,0.44767 -4.44723,-0.01991 -6.47914,0.30748c-2.33321,0.2129 -5.12974,0.29763 -7.23842,0.81585c-0.84336,0.20726 -2.26211,0.03764 -3.15559,0.04248c-1.1404,0.00619 -2.12384,0.31087 -3.2523,0.35941c-1.1864,0.05103 -2.21168,-0.05376 -3.35365,0.21566c-1.3315,0.32851 -2.67999,-0.0275 -4.02252,0.18088c-1.63319,0.2535 -3.0938,0.25192 -4.78832,0.36562c-2.72137,0.18261 -5.20928,1.08281 -7.9361,1.11647c-5.78361,0.01327 -11.58939,-0.0708 -17.14229,1.07456c-1.56094,0.0627 -3.37974,0.20828 -4.89762,0.43181c-0.79775,0.11749 -1.49025,0.53703 -2.27835,0.67348c-0.48749,0.0844 -1.02697,0.11245 -1.57872,0.11551c-0.11085,-0.04488 -0.23215,-0.04488 -0.23215,-0.04488z" data-paper-data="{&quot;noHover&quot;:false,&quot;origItem&quot;:[&quot;Path&quot;,{&quot;applyMatrix&quot;:true,&quot;segments&quot;:[[[406.00774,241.4209],[-0.20214,-0.12012],[1.00615,-0.0082]],[[408.88641,241.11241],[-0.88896,0.22591],[1.43712,-0.36522]],[[413.04064,239.31148],[-1.45473,0.31445],[2.76794,-0.5983]],[[421.97129,238.15745],[-2.84644,0.16783],[10.12597,-3.06565]],[[453.23043,235.28504],[-10.54668,0.03552],[4.9725,-0.09009]],[[467.70209,232.29849],[-4.96254,0.48877],[3.09004,-0.30435]],[[476.43376,231.32049],[-2.97819,0.67852],[2.44816,-0.55776]],[[483.76899,230.83669],[-2.42806,0.87929],[2.08244,-0.72112]],[[489.88451,230.25978],[-2.16346,0.1366],[2.0578,-0.12993]],[[495.8152,229.29821],[-2.07957,0.01657],[1.6293,-0.01298]],[[501.56955,229.18463],[-1.53791,0.55475],[3.84529,-1.38706]],[[514.76912,227.00172],[-4.25471,0.56985],[3.70528,-0.87629]],[[526.58412,226.17906],[-3.47406,1.19824],[0.47819,-0.16493]],[[527.84412,225.33335],[-0.48512,0.14329],[2.19529,-0.64841]],[[534.91513,225.63667],[-2.01471,0.37271],[0.23183,-0.04289]],[[534.32866,225.24129],[0.20768,0.1116],[-0.70473,-0.37868]],[[531.97338,224.77972],[0.79961,0.02571],[-2.13308,-0.06857]],[[526.05759,223.55549],[2.25692,0.23375],[-2.76142,-2.06031]],[[517.5552,221.23631],[2.96183,1.19455],[-1.72453,-0.69552]],[[512.25531,218.78153],[1.87626,0.4237],[-1.88391,-0.42542]],[[506.15346,218.61476],[1.84204,0.68067],[-1.38162,-0.51053]],[[502.29463,216.79197],[1.63368,0.25149],[-1.85854,-0.2861]],[[496.39107,216.75952],[1.88679,0.02445],[-10.87794,-0.38654]],[[465.85109,209.52491],[10.03782,3.46541],[-6.36959,-3.1157]],[[446.25492,203.01817],[6.78924,1.63982],[-3.25558,-0.78633]],[[436.25722,200.80078],[3.35585,-0.02642],[-10.5,0]],[[404.75722,200.80078],[10.5,0],[-10.5,0]],[[373.25722,200.80078],[10.5,0],[-10.5,0]],[[341.75722,200.80078],[10.5,0.00001],[-7.49657,-0.00003]],[[319.22561,200.71254],[7.49085,0.32279],[-2.96295,-0.12768]],[[310.36295,199.80074],[2.86819,-0.02424],[-10.52347,-0.00019]],[[279.22009,198.00471],[10.6163,-0.90484],[-10.24517,1.42148]],[[248.60276,204.60387],[10.0777,-2.62951],[-7.22757,1.8838]],[[226.69478,209.79115],[7.37113,-1.19307],[-2.93353,0.47481]],[[217.90926,210.4297],[2.86513,-1.01891],[-5.25548,1.81812]],[[201.58266,213.10548],[5.44465,-0.9589],[-3.00263,0.52881]],[[193.23668,215.77048],[2.7697,-0.78356],[-1.75146,0.4955]],[[187.02566,215.80078],[1.82803,0],[-6.5,0]],[[167.52566,215.80078],[6.5,-0.00001],[-3.83755,0.00001]],[[155.7873,216.20049],[3.76364,-0.80731],[-1.59583,0.66808]],[[151.35867,216.95748],[1.59874,-0.38204],[-1.43496,0.3429]],[[147.22531,218.78453],[1.45076,-0.30698],[-2.1734,0.45989]],[[139.8375,218.76413],[2.02095,-0.81555],[-0.46046,0.18582]],[[138.72295,219.75245],[0.46383,-0.17726],[-0.93828,0.35859]],[[135.71165,219.86475],[0.93473,-0.36773],[-1.19134,0.46869]],[[131.85872,221.60502],[1.35291,-0.48133],[2.30505,0.3902]],[[138.58701,223.33974],[-2.16689,-0.59643],[2.16328,0.59543]],[[145.85322,224.34258],[-2.25293,-0.25432],[1.01955,0.11509]],[[148.77072,225.32381],[-0.99323,-0.25735],[1.36916,0.35475]],[[153.20394,225.45843],[-1.40344,-0.22709],[2.56808,0.41554]],[[160.46062,226.30078],[-2.66601,0],[10.5,0]],[[191.96062,226.30078],[-10.5,0],[8.50231,0.00001]],[[217.47603,226.38439],[-8.50024,-0.20277],[2.06618,0.04929]],[[223.32625,227.30078],[-2.05287,0.01239],[7.49488,0.00001]],[[245.85955,227.38872],[-7.48839,-0.33972],[3.03591,0.13773]],[[254.7351,228.3018],[-3.04077,-0.00074],[4.08378,0.0036]],[[266.72439,229.30262],[-4.04222,-0.28376],[6.40974,0.44996]],[[286.17187,229.30078],[-6.42792,0],[10.46321,0]],[[317.65216,230.30333],[-10.32813,-1.73848],[4.92613,-0.00874]],[[332.68596,230.49232],[-4.88691,-0.67311],[5.41415,0.74573]],[[348.80109,232.31819],[-5.35297,-0.029],[10.55848,0.15268]],[[379.87813,237.37469],[-10.41865,-0.35951],[2.05919,1.76232]],[[386.89129,238.3768],[-2.53603,-0.47129],[2.95846,0.54979]],[[395.30175,241.33296],[-2.72131,-0.8599],[1.26422,0.39947]],[[399.91999,241.67001],[-1.70113,0.08866],[0.1965,-0.36845]],[400.58317,241.30078],[[401.57513,241.29914],[0,0],[0.73155,-0.00121]],[[403.89732,241.37057],[-0.80418,-0.03415],[0.60184,-0.04161]],[[405.58441,241.30078],[-0.51641,0],[0,0]]],&quot;closed&quot;:true}]}" fill="url(#color-1)"/><g><path d="M100.87379,208.63301c2.45418,-3.4913 2.80498,-8.32968 2.90875,-12.49346c0.05557,-2.54741 -0.1074,-5.41354 2.86729,-6.21588c4.57299,-0.59467 10.05722,-0.51349 14.60947,0.13812c5.32179,1.28922 4.80577,6.81029 6.27142,10.91675c1.67972,4.19681 6.63099,10.74923 4.82395,15.28178c-4.59516,4.48622 -8.81676,-0.63084 -13.81698,-0.375c-2.50319,0.52989 -4.63673,1.88437 -7.25898,1.87172c-2.79009,-0.01359 -5.0707,-1.82639 -7.75026,-2.06166c-1.32554,0.04877 -4.84995,1.30272 -5.94591,0.24131c-1.99989,-1.93684 2.36802,-5.92335 3.29158,-7.30349z" fill="url(#color-2)"/><path d="M104.81462,191.14482c0.33451,-0.148 0.51738,0.09375 0.58021,0.20309c0.12319,0.06256 0.24617,0.12457 0.36936,0.18713c3.83541,1.07703 7.47306,1.17486 11.41932,1.27347c1.25227,-0.06274 5.66346,-1.72104 6.47541,-1.37746c1.23558,0.52223 2.77581,5.62282 0.33956,4.3751c-3.58918,-4.27265 -0.70081,0.32494 -0.76242,2.42854c-0.06449,2.20069 -2.17164,1.56251 -2.91061,0.24489c-0.84403,-0.33039 -1.25723,3.797 -2.33168,4.02366c-3.57783,0.7555 -2.39647,-3.89969 -1.26716,-5.42865c1.1155,-1.40862 -0.12029,-3.81621 -1.92972,-2.91229c-0.3929,0.19606 -1.21824,7.09885 -2.47402,3.17431c-0.04293,-0.8644 -3.19749,-4.9908 -3.91053,-3.87093c-0.37899,0.5953 0.43565,3.38892 -0.50629,4.82568c-3.39787,3.6414 -2.28164,-4.16283 -3.33664,-6.51861c0,0 -0.18019,-0.44056 0.24455,-0.62833z" fill="#ff6e00"/><path d="M121.26828,192.6912c0,0 -0.10053,0.03085 -0.22185,0.01644c-0.49719,0.12 -1.09716,0.23254 -1.81263,0.33447c-4.09989,0.66104 -8.43446,0.03853 -12.48396,-0.68576c-0.57664,-0.10327 -1.10003,-0.29616 -1.48181,-0.53915c-0.13967,0.00536 -0.31811,-0.04148 -0.42865,-0.27713c-0.02581,-0.05446 -0.04122,-0.10508 -0.04876,-0.15229c-0.36213,-0.51044 -0.11664,-1.1147 1.24741,-1.58887c2.39006,-0.83024 5.42455,-0.9173 7.93435,-0.85768c2.64985,0.06508 5.65531,0.05577 8.17566,0.99139c2.78222,1.03316 1.79877,2.34261 -0.69546,2.69662l-0.18416,0.06249z" fill="#ff8629"/></g><path d="M405.46858,229.57354c-0.28319,0 -0.59519,0.01066 -0.92523,0.02621c-0.441,-0.01276 -0.87234,-0.02698 -1.27352,-0.02653l-0.54401,0.00069c0,0 -0.25599,0.00043 -0.36374,0.13808c-0.93287,0.03313 -1.83944,0.02363 -2.53271,-0.12561c-1.49232,-0.32127 -2.98977,-0.89906 -4.61214,-1.10446c-1.39071,-0.17608 -2.71693,0.2845 -3.84615,-0.37392c-5.7134,-0.13431 -11.25639,-1.82693 -17.04647,-1.88397c-2.93547,-0.01083 -5.89133,-0.39672 -8.86035,-0.67533c-2.67989,-0.25147 -5.56381,-0.08212 -8.2652,-0.07886c-5.66376,-0.64952 -11.52946,-0.38125 -17.2673,-0.38125c-3.52495,0 -7.14992,0.16774 -10.6649,-0.00036c-2.21668,-0.10602 -4.33535,-0.3732 -6.57482,-0.37455c-1.66751,-0.00028 -3.2024,-0.29008 -4.86725,-0.34153c-4.10649,-0.12692 -8.24684,-0.03319 -12.35689,-0.03319c-1.12575,0.00463 -2.07512,-0.32417 -3.20817,-0.34259c-4.66138,-0.07576 -9.32969,-0.03144 -13.9922,-0.03144c-5.75801,0 -11.51603,-0.00015 -17.27404,-0.00015c-1.46199,0 -2.57115,-0.15958 -3.97943,-0.31483c-0.76962,-0.08485 -1.68028,0.08222 -2.4311,-0.05032c-0.54467,-0.09615 -1.0408,-0.3237 -1.59991,-0.3667c-1.23547,-0.09501 -2.79836,-0.15233 -3.98467,-0.37479c-1.18829,-0.22283 -2.42562,-0.5025 -3.68967,-0.64828c0.74191,-0.17983 1.45956,-0.47523 2.11287,-0.65034c0.51259,-0.13739 1.13681,0.092 1.65134,-0.04197c0.25436,-0.06623 0.35868,-0.29992 0.6112,-0.36934c1.10825,-0.3047 2.85949,0.17945 4.05134,0.00763c0.79557,-0.1147 1.47976,-0.55469 2.26666,-0.6828c0.87672,-0.14273 1.55347,-0.03331 2.42859,-0.2829c2.06391,-0.30162 4.33265,-0.14941 6.4371,-0.14941c3.56448,0 7.12897,-0.00006 10.69345,-0.00006c1.00246,0 2.44554,0.17378 3.40601,-0.01135c1.51885,-0.29275 2.93021,-0.79851 4.5768,-0.99608c2.98575,-0.35826 6.07126,-0.32099 8.95326,-1.00026c1.57119,-0.38067 3.20915,-0.06141 4.81785,-0.2388c4.04219,-0.44574 8.05079,-1.23576 12.01424,-1.93957c5.52643,-0.98241 11.17327,-1.93811 16.79153,-2.46919c5.82179,-0.33806 11.31203,0.66568 17.0829,0.66575c1.57286,-0.00905 3.23964,0.2902 4.86447,0.33791c4.10784,0.1206 8.27236,0.03083 12.38334,0.03084c5.75801,0 11.52973,0.00907 17.28774,0.00907c5.75801,0 11.51775,0.00323 17.27576,0.00323c5.75801,0 11.51648,0.00141 17.2745,0.00141c1.84028,-0.00987 3.69741,0.5353 5.48271,0.82909c3.7231,0.61265 7.25343,1.26823 10.7464,2.43228c5.50456,1.2947 10.78238,2.5596 16.74764,2.70401c1.03468,0.00913 2.21822,-0.09474 3.23741,0.01215c0.89588,0.09396 1.35846,0.49047 2.11612,0.68121c1.01014,0.2543 2.31304,-0.09662 3.34614,0.06232c1.02891,0.1583 1.96067,0.65753 2.90637,0.91738c1.62421,0.44629 3.14824,0.09693 4.66255,0.86668c1.23766,0.08733 2.07437,0.43187 3.2441,0.4575c0.43849,0.00961 0.90513,0.031 1.2916,0.17248c0.11389,0.0417 0.44873,0.13173 0.3216,0.14776c-1.10483,0.13925 -2.67376,-0.35559 -3.87761,-0.11334c-0.26603,0.05354 -0.42874,0.25444 -0.69097,0.31605c-1.90511,0.44767 -4.44724,-0.01991 -6.47914,0.30748c-2.3332,0.21291 -5.12974,0.29763 -7.23842,0.81585c-0.84336,0.20726 -2.2621,0.03763 -3.15559,0.04248c-1.1404,0.00619 -2.12384,0.31087 -3.2523,0.35941c-1.1864,0.05103 -2.21168,-0.05375 -3.35365,0.21567c-1.3315,0.32851 -2.67999,-0.0275 -4.02251,0.18088c-1.63318,0.2535 -3.0938,0.25192 -4.78832,0.36562c-2.72136,0.18261 -5.20927,1.08281 -7.9361,1.11647c-5.7836,0.01327 -11.58939,-0.0708 -17.14229,1.07456c-1.56093,0.0627 -3.37973,0.20827 -4.89762,0.4318c-0.79775,0.11748 -1.49026,0.53703 -2.27835,0.67348c-0.48749,0.0844 -1.02696,0.11245 -1.57872,0.11551c-0.11085,-0.04488 -0.23215,-0.04488 -0.23215,-0.04488z" data-paper-data="{&quot;noHover&quot;:false,&quot;origItem&quot;:[&quot;Path&quot;,{&quot;applyMatrix&quot;:true,&quot;segments&quot;:[[[406.00774,241.4209],[-0.20214,-0.12012],[1.00615,-0.0082]],[[408.88641,241.11241],[-0.88896,0.22591],[1.43712,-0.36522]],[[413.04064,239.31148],[-1.45473,0.31445],[2.76794,-0.5983]],[[421.97129,238.15745],[-2.84644,0.16783],[10.12597,-3.06565]],[[453.23043,235.28504],[-10.54668,0.03552],[4.9725,-0.09009]],[[467.70209,232.29849],[-4.96254,0.48877],[3.09004,-0.30435]],[[476.43376,231.32049],[-2.97819,0.67852],[2.44816,-0.55776]],[[483.76899,230.83669],[-2.42806,0.87929],[2.08244,-0.72112]],[[489.88451,230.25978],[-2.16346,0.1366],[2.0578,-0.12993]],[[495.8152,229.29821],[-2.07957,0.01657],[1.6293,-0.01298]],[[501.56955,229.18463],[-1.53791,0.55475],[3.84529,-1.38706]],[[514.76912,227.00172],[-4.25471,0.56985],[3.70528,-0.87629]],[[526.58412,226.17906],[-3.47406,1.19824],[0.47819,-0.16493]],[[527.84412,225.33335],[-0.48512,0.14329],[2.19529,-0.64841]],[[534.91513,225.63667],[-2.01471,0.37271],[0.23183,-0.04289]],[[534.32866,225.24129],[0.20768,0.1116],[-0.70473,-0.37868]],[[531.97338,224.77972],[0.79961,0.02571],[-2.13308,-0.06857]],[[526.05759,223.55549],[2.25692,0.23375],[-2.76142,-2.06031]],[[517.5552,221.23631],[2.96183,1.19455],[-1.72453,-0.69552]],[[512.25531,218.78153],[1.87626,0.4237],[-1.88391,-0.42542]],[[506.15346,218.61476],[1.84204,0.68067],[-1.38162,-0.51053]],[[502.29463,216.79197],[1.63368,0.25149],[-1.85854,-0.2861]],[[496.39107,216.75952],[1.88679,0.02445],[-10.87794,-0.38654]],[[465.85109,209.52491],[10.03782,3.46541],[-6.36959,-3.1157]],[[446.25492,203.01817],[6.78924,1.63982],[-3.25558,-0.78633]],[[436.25722,200.80078],[3.35585,-0.02642],[-10.5,0]],[[404.75722,200.80078],[10.5,0],[-10.5,0]],[[373.25722,200.80078],[10.5,0],[-10.5,0]],[[341.75722,200.80078],[10.5,0.00001],[-7.49657,-0.00003]],[[319.22561,200.71254],[7.49085,0.32279],[-2.96295,-0.12768]],[[310.36295,199.80074],[2.86819,-0.02424],[-10.52347,-0.00019]],[[279.22009,198.00471],[10.6163,-0.90484],[-10.24517,1.42148]],[[248.60276,204.60387],[10.0777,-2.62951],[-7.22757,1.8838]],[[226.69478,209.79115],[7.37113,-1.19307],[-2.93353,0.47481]],[[217.90926,210.4297],[2.86513,-1.01891],[-5.25548,1.81812]],[[201.58266,213.10548],[5.44465,-0.9589],[-3.00263,0.52881]],[[193.23668,215.77048],[2.7697,-0.78356],[-1.75146,0.4955]],[[187.02566,215.80078],[1.82803,0],[-6.5,0]],[[167.52566,215.80078],[6.5,-0.00001],[-3.83755,0.00001]],[[155.7873,216.20049],[3.76364,-0.80731],[-1.59583,0.66808]],[[151.35867,216.95748],[1.59874,-0.38204],[-1.43496,0.3429]],[[147.22531,218.78453],[1.45076,-0.30698],[-2.1734,0.45989]],[[139.8375,218.76413],[2.02095,-0.81555],[-0.46046,0.18582]],[[138.72295,219.75245],[0.46383,-0.17726],[-0.93828,0.35859]],[[135.71165,219.86475],[0.93473,-0.36773],[-1.19134,0.46869]],[[131.85872,221.60502],[1.35291,-0.48133],[2.30505,0.3902]],[[138.58701,223.33974],[-2.16689,-0.59643],[2.16328,0.59543]],[[145.85322,224.34258],[-2.25293,-0.25432],[1.01955,0.11509]],[[148.77072,225.32381],[-0.99323,-0.25735],[1.36916,0.35475]],[[153.20394,225.45843],[-1.40344,-0.22709],[2.56808,0.41554]],[[160.46062,226.30078],[-2.66601,0],[10.5,0]],[[191.96062,226.30078],[-10.5,0],[8.50231,0.00001]],[[217.47603,226.38439],[-8.50024,-0.20277],[2.06618,0.04929]],[[223.32625,227.30078],[-2.05287,0.01239],[7.49488,0.00001]],[[245.85955,227.38872],[-7.48839,-0.33972],[3.03591,0.13773]],[[254.7351,228.3018],[-3.04077,-0.00074],[4.08378,0.0036]],[[266.72439,229.30262],[-4.04222,-0.28376],[6.40974,0.44996]],[[286.17187,229.30078],[-6.42792,0],[10.46321,0]],[[317.65216,230.30333],[-10.32813,-1.73848],[4.92613,-0.00874]],[[332.68596,230.49232],[-4.88691,-0.67311],[5.41415,0.74573]],[[348.80109,232.31819],[-5.35297,-0.029],[10.55848,0.15268]],[[379.87813,237.37469],[-10.41865,-0.35951],[2.05919,1.76232]],[[386.89129,238.3768],[-2.53603,-0.47129],[2.95846,0.54979]],[[395.30175,241.33296],[-2.72131,-0.8599],[1.26422,0.39947]],[[399.91999,241.67001],[-1.70113,0.08866],[0.1965,-0.36845]],[400.58317,241.30078],[[401.57513,241.29914],[0,0],[0.73155,-0.00121]],[[403.89732,241.37057],[-0.80418,-0.03415],[0.60184,-0.04161]],[[405.58441,241.30078],[-0.51641,0],[0,0]]],&quot;closed&quot;:true}],&quot;index&quot;:null}" fill="url(#color-3)"/><g><path d="M355.87379,208.63301c2.45418,-3.49131 2.80498,-8.32968 2.90875,-12.49346c0.05557,-2.54741 -0.10739,-5.41354 2.8673,-6.21588c4.57299,-0.59467 10.05721,-0.51349 14.60947,0.13811c5.32179,1.28922 4.80577,6.81029 6.27142,10.91675c1.67972,4.19681 6.63099,10.74923 4.82396,15.28178c-4.59516,4.48621 -8.81676,-0.63084 -13.81698,-0.375c-2.50319,0.5299 -4.63673,1.88438 -7.25897,1.87172c-2.79009,-0.01359 -5.0707,-1.82639 -7.75026,-2.06167c-1.32555,0.04878 -4.84996,1.30272 -5.94591,0.24131c-1.99989,-1.93684 2.36802,-5.92335 3.29158,-7.30349z" fill="url(#color-4)"/><path d="M359.81462,191.14483c0.33451,-0.148 0.51738,0.09375 0.58021,0.20309c0.12318,0.06256 0.24617,0.12457 0.36936,0.18713c3.83541,1.07703 7.47306,1.17486 11.41932,1.27347c1.25227,-0.06274 5.66345,-1.72104 6.47541,-1.37746c1.23558,0.52223 2.77581,5.62283 0.33957,4.3751c-3.58918,-4.27265 -0.70081,0.32494 -0.76242,2.42854c-0.06449,2.20068 -2.17164,1.56251 -2.91061,0.2449c-0.84403,-0.33039 -1.25723,3.797 -2.33168,4.02365c-3.57783,0.7555 -2.39648,-3.89968 -1.26716,-5.42864c1.11551,-1.40862 -0.12029,-3.81621 -1.92972,-2.91229c-0.3929,0.19606 -1.21824,7.09886 -2.47403,3.17431c-0.04293,-0.8644 -3.19748,-4.99081 -3.91053,-3.87093c-0.37899,0.5953 0.43565,3.38892 -0.50629,4.82568c-3.39787,3.6414 -2.28164,-4.16283 -3.33664,-6.51861c0,0 -0.18019,-0.44056 0.24455,-0.62833z" fill="#ff6e00"/><path d="M376.26829,192.69121c0,0 -0.10053,0.03085 -0.22185,0.01644c-0.49719,0.12 -1.09716,0.23254 -1.81263,0.33447c-4.09989,0.66105 -8.43446,0.03853 -12.48396,-0.68577c-0.57664,-0.10326 -1.10003,-0.29616 -1.48181,-0.53915c-0.13967,0.00536 -0.31811,-0.04148 -0.42865,-0.27713c-0.02581,-0.05446 -0.04122,-0.10508 -0.04876,-0.15228c-0.36213,-0.51044 -0.11664,-1.1147 1.24741,-1.58888c2.39006,-0.83023 5.42455,-0.9173 7.93436,-0.85768c2.64985,0.06508 5.65531,0.05577 8.17565,0.9914c2.78222,1.03316 1.79877,2.34261 -0.69545,2.69662l-0.18417,0.06249z" fill="#ff8629"/></g><path d="M690.71858,229.57353c-0.28319,0 -0.59519,0.01066 -0.92523,0.02621c-0.441,-0.01276 -0.87234,-0.02699 -1.27351,-0.02654l-0.54401,0.00069c0,0 -0.25598,0.00043 -0.36374,0.13808c-0.93287,0.03313 -1.83944,0.02362 -2.53271,-0.12562c-1.49232,-0.32127 -2.98977,-0.89905 -4.61214,-1.10446c-1.39071,-0.17608 -2.71692,0.2845 -3.84615,-0.37392c-5.7134,-0.13432 -11.2564,-1.82693 -17.04647,-1.88397c-2.93547,-0.01084 -5.89133,-0.39672 -8.86035,-0.67533c-2.67989,-0.25148 -5.5638,-0.08212 -8.2652,-0.07886c-5.66376,-0.64951 -11.52946,-0.38125 -17.2673,-0.38125c-3.52495,0 -7.14992,0.16774 -10.66491,-0.00036c-2.21668,-0.10601 -4.33535,-0.3732 -6.57482,-0.37454c-1.6675,-0.00028 -3.20241,-0.29007 -4.86724,-0.34153c-4.1065,-0.12692 -8.24683,-0.0332 -12.35689,-0.0332c-1.12576,0.00463 -2.07512,-0.32417 -3.20818,-0.34259c-4.66138,-0.07576 -9.32968,-0.03144 -13.9922,-0.03144c-5.75801,0 -11.51603,-0.00015 -17.27404,-0.00015c-1.46199,0 -2.57115,-0.15958 -3.97944,-0.31483c-0.76962,-0.08485 -1.68028,0.08221 -2.4311,-0.05032c-0.54467,-0.09615 -1.0408,-0.3237 -1.59991,-0.3667c-1.23547,-0.09501 -2.79836,-0.15233 -3.98466,-0.37479c-1.18828,-0.22283 -2.42562,-0.50249 -3.68967,-0.64827c0.74191,-0.17983 1.45957,-0.47524 2.11288,-0.65034c0.51259,-0.13739 1.13681,0.092 1.65134,-0.04197c0.25436,-0.06623 0.35869,-0.29992 0.6112,-0.36934c1.10825,-0.3047 2.85949,0.17944 4.05134,0.00762c0.79557,-0.11469 1.47976,-0.55468 2.26666,-0.6828c0.87672,-0.14273 1.55346,-0.03331 2.42859,-0.2829c2.06391,-0.30162 4.33266,-0.14941 6.43711,-0.14941c3.56448,0 7.12896,-0.00006 10.69344,-0.00006c1.00246,0 2.44554,0.17378 3.40601,-0.01135c1.51885,-0.29275 2.93022,-0.79851 4.57681,-0.99608c2.98575,-0.35826 6.07126,-0.32099 8.95326,-1.00026c1.57119,-0.38068 3.20915,-0.06141 4.81785,-0.2388c4.04219,-0.44575 8.05078,-1.23576 12.01424,-1.93957c5.52643,-0.98241 11.17327,-1.93811 16.79153,-2.46919c5.82179,-0.33806 11.31202,0.66568 17.0829,0.66575c1.57286,-0.00905 3.23964,0.2902 4.86447,0.33791c4.10785,0.12059 8.27236,0.03084 12.38334,0.03085c5.75801,0 11.52973,0.00907 17.28774,0.00907c5.75801,0 11.51776,0.00323 17.27577,0.00323c5.75801,0 11.51648,0.00141 17.27449,0.00141c1.84029,-0.00987 3.69741,0.5353 5.48271,0.82909c3.7231,0.61265 7.25343,1.26823 10.7464,2.43228c5.50456,1.29471 10.78238,2.5596 16.74764,2.70402c1.03468,0.00914 2.21822,-0.09475 3.23741,0.01214c0.89588,0.09396 1.35846,0.49047 2.11612,0.68121c1.01014,0.25431 2.31304,-0.09662 3.34614,0.06232c1.02891,0.1583 1.96067,0.65753 2.90637,0.91739c1.62421,0.4463 3.14824,0.09693 4.66255,0.86668c1.23765,0.08734 2.07436,0.43187 3.24411,0.45749c0.43849,0.00961 0.90513,0.031 1.29159,0.17248c0.11389,0.04169 0.44874,0.13173 0.32161,0.14776c-1.10483,0.13925 -2.67376,-0.35559 -3.87761,-0.11333c-0.26603,0.05353 -0.42874,0.25443 -0.69097,0.31605c-1.90511,0.44767 -4.44723,-0.01991 -6.47914,0.30748c-2.33321,0.2129 -5.12974,0.29763 -7.23842,0.81585c-0.84336,0.20726 -2.26211,0.03764 -3.15559,0.04248c-1.1404,0.00619 -2.12384,0.31087 -3.2523,0.35941c-1.1864,0.05103 -2.21168,-0.05376 -3.35365,0.21566c-1.3315,0.32851 -2.67999,-0.0275 -4.02252,0.18088c-1.63319,0.2535 -3.0938,0.25192 -4.78832,0.36562c-2.72137,0.18261 -5.20928,1.08281 -7.9361,1.11647c-5.78361,0.01327 -11.58939,-0.0708 -17.14229,1.07456c-1.56094,0.0627 -3.37974,0.20828 -4.89762,0.43181c-0.79775,0.11749 -1.49025,0.53703 -2.27835,0.67348c-0.48749,0.0844 -1.02697,0.11245 -1.57872,0.11551c-0.11085,-0.04488 -0.23215,-0.04488 -0.23215,-0.04488z" data-paper-data="{&quot;noHover&quot;:false,&quot;origItem&quot;:[&quot;Path&quot;,{&quot;applyMatrix&quot;:true,&quot;segments&quot;:[[[406.00774,241.4209],[-0.20214,-0.12012],[1.00615,-0.0082]],[[408.88641,241.11241],[-0.88896,0.22591],[1.43712,-0.36522]],[[413.04064,239.31148],[-1.45473,0.31445],[2.76794,-0.5983]],[[421.97129,238.15745],[-2.84644,0.16783],[10.12597,-3.06565]],[[453.23043,235.28504],[-10.54668,0.03552],[4.9725,-0.09009]],[[467.70209,232.29849],[-4.96254,0.48877],[3.09004,-0.30435]],[[476.43376,231.32049],[-2.97819,0.67852],[2.44816,-0.55776]],[[483.76899,230.83669],[-2.42806,0.87929],[2.08244,-0.72112]],[[489.88451,230.25978],[-2.16346,0.1366],[2.0578,-0.12993]],[[495.8152,229.29821],[-2.07957,0.01657],[1.6293,-0.01298]],[[501.56955,229.18463],[-1.53791,0.55475],[3.84529,-1.38706]],[[514.76912,227.00172],[-4.25471,0.56985],[3.70528,-0.87629]],[[526.58412,226.17906],[-3.47406,1.19824],[0.47819,-0.16493]],[[527.84412,225.33335],[-0.48512,0.14329],[2.19529,-0.64841]],[[534.91513,225.63667],[-2.01471,0.37271],[0.23183,-0.04289]],[[534.32866,225.24129],[0.20768,0.1116],[-0.70473,-0.37868]],[[531.97338,224.77972],[0.79961,0.02571],[-2.13308,-0.06857]],[[526.05759,223.55549],[2.25692,0.23375],[-2.76142,-2.06031]],[[517.5552,221.23631],[2.96183,1.19455],[-1.72453,-0.69552]],[[512.25531,218.78153],[1.87626,0.4237],[-1.88391,-0.42542]],[[506.15346,218.61476],[1.84204,0.68067],[-1.38162,-0.51053]],[[502.29463,216.79197],[1.63368,0.25149],[-1.85854,-0.2861]],[[496.39107,216.75952],[1.88679,0.02445],[-10.87794,-0.38654]],[[465.85109,209.52491],[10.03782,3.46541],[-6.36959,-3.1157]],[[446.25492,203.01817],[6.78924,1.63982],[-3.25558,-0.78633]],[[436.25722,200.80078],[3.35585,-0.02642],[-10.5,0]],[[404.75722,200.80078],[10.5,0],[-10.5,0]],[[373.25722,200.80078],[10.5,0],[-10.5,0]],[[341.75722,200.80078],[10.5,0.00001],[-7.49657,-0.00003]],[[319.22561,200.71254],[7.49085,0.32279],[-2.96295,-0.12768]],[[310.36295,199.80074],[2.86819,-0.02424],[-10.52347,-0.00019]],[[279.22009,198.00471],[10.6163,-0.90484],[-10.24517,1.42148]],[[248.60276,204.60387],[10.0777,-2.62951],[-7.22757,1.8838]],[[226.69478,209.79115],[7.37113,-1.19307],[-2.93353,0.47481]],[[217.90926,210.4297],[2.86513,-1.01891],[-5.25548,1.81812]],[[201.58266,213.10548],[5.44465,-0.9589],[-3.00263,0.52881]],[[193.23668,215.77048],[2.7697,-0.78356],[-1.75146,0.4955]],[[187.02566,215.80078],[1.82803,0],[-6.5,0]],[[167.52566,215.80078],[6.5,-0.00001],[-3.83755,0.00001]],[[155.7873,216.20049],[3.76364,-0.80731],[-1.59583,0.66808]],[[151.35867,216.95748],[1.59874,-0.38204],[-1.43496,0.3429]],[[147.22531,218.78453],[1.45076,-0.30698],[-2.1734,0.45989]],[[139.8375,218.76413],[2.02095,-0.81555],[-0.46046,0.18582]],[[138.72295,219.75245],[0.46383,-0.17726],[-0.93828,0.35859]],[[135.71165,219.86475],[0.93473,-0.36773],[-1.19134,0.46869]],[[131.85872,221.60502],[1.35291,-0.48133],[2.30505,0.3902]],[[138.58701,223.33974],[-2.16689,-0.59643],[2.16328,0.59543]],[[145.85322,224.34258],[-2.25293,-0.25432],[1.01955,0.11509]],[[148.77072,225.32381],[-0.99323,-0.25735],[1.36916,0.35475]],[[153.20394,225.45843],[-1.40344,-0.22709],[2.56808,0.41554]],[[160.46062,226.30078],[-2.66601,0],[10.5,0]],[[191.96062,226.30078],[-10.5,0],[8.50231,0.00001]],[[217.47603,226.38439],[-8.50024,-0.20277],[2.06618,0.04929]],[[223.32625,227.30078],[-2.05287,0.01239],[7.49488,0.00001]],[[245.85955,227.38872],[-7.48839,-0.33972],[3.03591,0.13773]],[[254.7351,228.3018],[-3.04077,-0.00074],[4.08378,0.0036]],[[266.72439,229.30262],[-4.04222,-0.28376],[6.40974,0.44996]],[[286.17187,229.30078],[-6.42792,0],[10.46321,0]],[[317.65216,230.30333],[-10.32813,-1.73848],[4.92613,-0.00874]],[[332.68596,230.49232],[-4.88691,-0.67311],[5.41415,0.74573]],[[348.80109,232.31819],[-5.35297,-0.029],[10.55848,0.15268]],[[379.87813,237.37469],[-10.41865,-0.35951],[2.05919,1.76232]],[[386.89129,238.3768],[-2.53603,-0.47129],[2.95846,0.54979]],[[395.30175,241.33296],[-2.72131,-0.8599],[1.26422,0.39947]],[[399.91999,241.67001],[-1.70113,0.08866],[0.1965,-0.36845]],[400.58317,241.30078],[[401.57513,241.29914],[0,0],[0.73155,-0.00121]],[[403.89732,241.37057],[-0.80418,-0.03415],[0.60184,-0.04161]],[[405.58441,241.30078],[-0.51641,0],[0,0]]],&quot;closed&quot;:true}]}" fill="url(#color-5)"/><g><path d="M641.12379,208.63301c2.45418,-3.4913 2.80498,-8.32968 2.90875,-12.49346c0.05557,-2.54741 -0.1074,-5.41354 2.86729,-6.21588c4.57299,-0.59467 10.05722,-0.51349 14.60947,0.13812c5.32179,1.28922 4.80577,6.81029 6.27142,10.91675c1.67972,4.19681 6.63099,10.74923 4.82395,15.28178c-4.59516,4.48622 -8.81676,-0.63084 -13.81698,-0.375c-2.50319,0.52989 -4.63673,1.88437 -7.25898,1.87172c-2.79009,-0.01359 -5.0707,-1.82639 -7.75026,-2.06166c-1.32554,0.04877 -4.84995,1.30272 -5.94591,0.24131c-1.99989,-1.93684 2.36802,-5.92335 3.29158,-7.30349z" fill="url(#color-6)"/><path d="M645.06462,191.14482c0.33451,-0.148 0.51738,0.09375 0.58021,0.20309c0.12319,0.06256 0.24617,0.12457 0.36936,0.18713c3.83541,1.07703 7.47306,1.17486 11.41932,1.27347c1.25227,-0.06274 5.66346,-1.72104 6.47541,-1.37746c1.23558,0.52223 2.77581,5.62282 0.33956,4.3751c-3.58918,-4.27265 -0.70081,0.32494 -0.76242,2.42854c-0.06449,2.20069 -2.17164,1.56251 -2.91061,0.24489c-0.84403,-0.33039 -1.25723,3.797 -2.33168,4.02366c-3.57783,0.7555 -2.39647,-3.89969 -1.26716,-5.42865c1.1155,-1.40862 -0.12029,-3.81621 -1.92972,-2.91229c-0.3929,0.19606 -1.21824,7.09885 -2.47402,3.17431c-0.04293,-0.8644 -3.19749,-4.9908 -3.91053,-3.87093c-0.37899,0.5953 0.43565,3.38892 -0.50629,4.82568c-3.39787,3.6414 -2.28164,-4.16283 -3.33664,-6.51861c0,0 -0.18019,-0.44056 0.24455,-0.62833z" fill="#ff6e00"/><path d="M661.51828,192.6912c0,0 -0.10053,0.03085 -0.22185,0.01644c-0.49719,0.12 -1.09716,0.23254 -1.81263,0.33447c-4.09989,0.66104 -8.43446,0.03853 -12.48396,-0.68576c-0.57664,-0.10327 -1.10003,-0.29616 -1.48181,-0.53915c-0.13967,0.00536 -0.31811,-0.04148 -0.42865,-0.27713c-0.02581,-0.05446 -0.04122,-0.10508 -0.04876,-0.15229c-0.36213,-0.51044 -0.11664,-1.1147 1.24741,-1.58887c2.39006,-0.83024 5.42455,-0.9173 7.93435,-0.85768c2.64985,0.06508 5.65531,0.05577 8.17566,0.99139c2.78222,1.03316 1.79877,2.34261 -0.69546,2.69662l-0.18416,0.06249z" fill="#ff8629"/></g><path d="M945.71859,229.57354c-0.28319,0 -0.59519,0.01066 -0.92523,0.02621c-0.441,-0.01276 -0.87234,-0.02698 -1.27352,-0.02653l-0.54401,0.00069c0,0 -0.25598,0.00043 -0.36374,0.13808c-0.93287,0.03313 -1.83945,0.02363 -2.53272,-0.12561c-1.49231,-0.32127 -2.98977,-0.89906 -4.61214,-1.10446c-1.39071,-0.17608 -2.71693,0.2845 -3.84615,-0.37392c-5.7134,-0.13431 -11.25639,-1.82693 -17.04647,-1.88397c-2.93547,-0.01083 -5.89133,-0.39672 -8.86035,-0.67533c-2.67989,-0.25147 -5.56381,-0.08212 -8.2652,-0.07886c-5.66376,-0.64952 -11.52946,-0.38125 -17.2673,-0.38125c-3.52496,0 -7.14992,0.16774 -10.66491,-0.00036c-2.21668,-0.10602 -4.33535,-0.3732 -6.57482,-0.37455c-1.66751,-0.00028 -3.2024,-0.29008 -4.86725,-0.34153c-4.10649,-0.12692 -8.24684,-0.03319 -12.35689,-0.03319c-1.12576,0.00463 -2.07512,-0.32417 -3.20817,-0.34259c-4.66138,-0.07576 -9.32969,-0.03144 -13.9922,-0.03144c-5.75801,0 -11.51603,-0.00015 -17.27404,-0.00015c-1.46199,0 -2.57114,-0.15958 -3.97943,-0.31483c-0.76962,-0.08485 -1.68028,0.08222 -2.43109,-0.05032c-0.54467,-0.09615 -1.0408,-0.3237 -1.59991,-0.3667c-1.23546,-0.09501 -2.79836,-0.15233 -3.98466,-0.37479c-1.18828,-0.22283 -2.42563,-0.5025 -3.68967,-0.64828c0.74191,-0.17983 1.45956,-0.47523 2.11288,-0.65034c0.51259,-0.13739 1.13681,0.092 1.65134,-0.04197c0.25435,-0.06623 0.35868,-0.29992 0.61119,-0.36934c1.10825,-0.3047 2.85949,0.17945 4.05135,0.00763c0.79557,-0.1147 1.47975,-0.55469 2.26666,-0.6828c0.87672,-0.14273 1.55346,-0.03331 2.42859,-0.2829c2.06391,-0.30162 4.33265,-0.14941 6.4371,-0.14941c3.56448,0 7.12896,-0.00006 10.69344,-0.00006c1.00246,0 2.44554,0.17378 3.40601,-0.01135c1.51885,-0.29275 2.93021,-0.79851 4.5768,-0.99608c2.98574,-0.35826 6.07126,-0.32099 8.95326,-1.00026c1.57119,-0.38067 3.20915,-0.06141 4.81785,-0.2388c4.04219,-0.44574 8.05079,-1.23576 12.01424,-1.93957c5.52643,-0.98241 11.17327,-1.93811 16.79153,-2.46919c5.82179,-0.33806 11.31203,0.66568 17.0829,0.66575c1.57286,-0.00905 3.23963,0.2902 4.86447,0.33791c4.10784,0.1206 8.27237,0.03083 12.38334,0.03084c5.75801,0 11.52973,0.00907 17.28774,0.00907c5.75801,0 11.51776,0.00323 17.27577,0.00323c5.75801,0 11.51648,0.00141 17.27449,0.00141c1.84028,-0.00987 3.69741,0.5353 5.48271,0.82909c3.7231,0.61265 7.25343,1.26823 10.7464,2.43228c5.50455,1.2947 10.78238,2.5596 16.74765,2.70401c1.03468,0.00913 2.21822,-0.09474 3.23741,0.01215c0.89588,0.09396 1.35847,0.49047 2.11612,0.68121c1.01014,0.2543 2.31304,-0.09662 3.34614,0.06232c1.02891,0.1583 1.96067,0.65753 2.90637,0.91738c1.62421,0.44629 3.14824,0.09693 4.66255,0.86668c1.23765,0.08733 2.07436,0.43187 3.2441,0.4575c0.43849,0.00961 0.90513,0.031 1.2916,0.17248c0.11389,0.0417 0.44873,0.13173 0.32161,0.14776c-1.10483,0.13925 -2.67376,-0.35559 -3.87761,-0.11334c-0.26603,0.05354 -0.42874,0.25444 -0.69097,0.31605c-1.90511,0.44767 -4.44724,-0.01991 -6.47914,0.30748c-2.33321,0.21291 -5.12974,0.29763 -7.23842,0.81585c-0.84336,0.20726 -2.26211,0.03763 -3.15559,0.04248c-1.1404,0.00619 -2.12384,0.31087 -3.2523,0.35941c-1.1864,0.05103 -2.21168,-0.05375 -3.35365,0.21567c-1.3315,0.32851 -2.67999,-0.0275 -4.02251,0.18088c-1.63319,0.2535 -3.0938,0.25192 -4.78832,0.36562c-2.72136,0.18261 -5.20927,1.08281 -7.9361,1.11647c-5.78361,0.01327 -11.58939,-0.0708 -17.14229,1.07456c-1.56093,0.0627 -3.37973,0.20827 -4.89763,0.4318c-0.79774,0.11748 -1.49025,0.53703 -2.27835,0.67348c-0.48749,0.0844 -1.02696,0.11245 -1.57872,0.11551c-0.11085,-0.04488 -0.23215,-0.04488 -0.23215,-0.04488z" data-paper-data="{&quot;noHover&quot;:false,&quot;origItem&quot;:[&quot;Path&quot;,{&quot;applyMatrix&quot;:true,&quot;segments&quot;:[[[406.00774,241.4209],[-0.20214,-0.12012],[1.00615,-0.0082]],[[408.88641,241.11241],[-0.88896,0.22591],[1.43712,-0.36522]],[[413.04064,239.31148],[-1.45473,0.31445],[2.76794,-0.5983]],[[421.97129,238.15745],[-2.84644,0.16783],[10.12597,-3.06565]],[[453.23043,235.28504],[-10.54668,0.03552],[4.9725,-0.09009]],[[467.70209,232.29849],[-4.96254,0.48877],[3.09004,-0.30435]],[[476.43376,231.32049],[-2.97819,0.67852],[2.44816,-0.55776]],[[483.76899,230.83669],[-2.42806,0.87929],[2.08244,-0.72112]],[[489.88451,230.25978],[-2.16346,0.1366],[2.0578,-0.12993]],[[495.8152,229.29821],[-2.07957,0.01657],[1.6293,-0.01298]],[[501.56955,229.18463],[-1.53791,0.55475],[3.84529,-1.38706]],[[514.76912,227.00172],[-4.25471,0.56985],[3.70528,-0.87629]],[[526.58412,226.17906],[-3.47406,1.19824],[0.47819,-0.16493]],[[527.84412,225.33335],[-0.48512,0.14329],[2.19529,-0.64841]],[[534.91513,225.63667],[-2.01471,0.37271],[0.23183,-0.04289]],[[534.32866,225.24129],[0.20768,0.1116],[-0.70473,-0.37868]],[[531.97338,224.77972],[0.79961,0.02571],[-2.13308,-0.06857]],[[526.05759,223.55549],[2.25692,0.23375],[-2.76142,-2.06031]],[[517.5552,221.23631],[2.96183,1.19455],[-1.72453,-0.69552]],[[512.25531,218.78153],[1.87626,0.4237],[-1.88391,-0.42542]],[[506.15346,218.61476],[1.84204,0.68067],[-1.38162,-0.51053]],[[502.29463,216.79197],[1.63368,0.25149],[-1.85854,-0.2861]],[[496.39107,216.75952],[1.88679,0.02445],[-10.87794,-0.38654]],[[465.85109,209.52491],[10.03782,3.46541],[-6.36959,-3.1157]],[[446.25492,203.01817],[6.78924,1.63982],[-3.25558,-0.78633]],[[436.25722,200.80078],[3.35585,-0.02642],[-10.5,0]],[[404.75722,200.80078],[10.5,0],[-10.5,0]],[[373.25722,200.80078],[10.5,0],[-10.5,0]],[[341.75722,200.80078],[10.5,0.00001],[-7.49657,-0.00003]],[[319.22561,200.71254],[7.49085,0.32279],[-2.96295,-0.12768]],[[310.36295,199.80074],[2.86819,-0.02424],[-10.52347,-0.00019]],[[279.22009,198.00471],[10.6163,-0.90484],[-10.24517,1.42148]],[[248.60276,204.60387],[10.0777,-2.62951],[-7.22757,1.8838]],[[226.69478,209.79115],[7.37113,-1.19307],[-2.93353,0.47481]],[[217.90926,210.4297],[2.86513,-1.01891],[-5.25548,1.81812]],[[201.58266,213.10548],[5.44465,-0.9589],[-3.00263,0.52881]],[[193.23668,215.77048],[2.7697,-0.78356],[-1.75146,0.4955]],[[187.02566,215.80078],[1.82803,0],[-6.5,0]],[[167.52566,215.80078],[6.5,-0.00001],[-3.83755,0.00001]],[[155.7873,216.20049],[3.76364,-0.80731],[-1.59583,0.66808]],[[151.35867,216.95748],[1.59874,-0.38204],[-1.43496,0.3429]],[[147.22531,218.78453],[1.45076,-0.30698],[-2.1734,0.45989]],[[139.8375,218.76413],[2.02095,-0.81555],[-0.46046,0.18582]],[[138.72295,219.75245],[0.46383,-0.17726],[-0.93828,0.35859]],[[135.71165,219.86475],[0.93473,-0.36773],[-1.19134,0.46869]],[[131.85872,221.60502],[1.35291,-0.48133],[2.30505,0.3902]],[[138.58701,223.33974],[-2.16689,-0.59643],[2.16328,0.59543]],[[145.85322,224.34258],[-2.25293,-0.25432],[1.01955,0.11509]],[[148.77072,225.32381],[-0.99323,-0.25735],[1.36916,0.35475]],[[153.20394,225.45843],[-1.40344,-0.22709],[2.56808,0.41554]],[[160.46062,226.30078],[-2.66601,0],[10.5,0]],[[191.96062,226.30078],[-10.5,0],[8.50231,0.00001]],[[217.47603,226.38439],[-8.50024,-0.20277],[2.06618,0.04929]],[[223.32625,227.30078],[-2.05287,0.01239],[7.49488,0.00001]],[[245.85955,227.38872],[-7.48839,-0.33972],[3.03591,0.13773]],[[254.7351,228.3018],[-3.04077,-0.00074],[4.08378,0.0036]],[[266.72439,229.30262],[-4.04222,-0.28376],[6.40974,0.44996]],[[286.17187,229.30078],[-6.42792,0],[10.46321,0]],[[317.65216,230.30333],[-10.32813,-1.73848],[4.92613,-0.00874]],[[332.68596,230.49232],[-4.88691,-0.67311],[5.41415,0.74573]],[[348.80109,232.31819],[-5.35297,-0.029],[10.55848,0.15268]],[[379.87813,237.37469],[-10.41865,-0.35951],[2.05919,1.76232]],[[386.89129,238.3768],[-2.53603,-0.47129],[2.95846,0.54979]],[[395.30175,241.33296],[-2.72131,-0.8599],[1.26422,0.39947]],[[399.91999,241.67001],[-1.70113,0.08866],[0.1965,-0.36845]],[400.58317,241.30078],[[401.57513,241.29914],[0,0],[0.73155,-0.00121]],[[403.89732,241.37057],[-0.80418,-0.03415],[0.60184,-0.04161]],[[405.58441,241.30078],[-0.51641,0],[0,0]]],&quot;closed&quot;:true}],&quot;index&quot;:null}" fill="url(#color-7)"/><g><path d="M896.12379,208.63301c2.45418,-3.49131 2.80498,-8.32968 2.90875,-12.49346c0.05557,-2.54741 -0.10739,-5.41354 2.8673,-6.21588c4.57299,-0.59467 10.05722,-0.51349 14.60947,0.13811c5.32179,1.28922 4.80577,6.81029 6.27142,10.91675c1.67972,4.19681 6.63099,10.74923 4.82396,15.28178c-4.59516,4.48621 -8.81677,-0.63084 -13.81698,-0.375c-2.50319,0.5299 -4.63673,1.88438 -7.25897,1.87172c-2.79009,-0.01359 -5.0707,-1.82639 -7.75026,-2.06167c-1.32554,0.04878 -4.84995,1.30272 -5.94591,0.24131c-1.99989,-1.93684 2.36802,-5.92335 3.29158,-7.30349z" fill="url(#color-8)"/><path d="M900.06462,191.14483c0.33451,-0.148 0.51738,0.09375 0.58021,0.20309c0.12319,0.06256 0.24617,0.12457 0.36936,0.18713c3.83541,1.07703 7.47306,1.17486 11.41932,1.27347c1.25227,-0.06274 5.66345,-1.72104 6.47541,-1.37746c1.23558,0.52223 2.77581,5.62283 0.33956,4.3751c-3.58919,-4.27265 -0.70081,0.32494 -0.76242,2.42854c-0.06449,2.20068 -2.17164,1.56251 -2.91061,0.2449c-0.84403,-0.33039 -1.25723,3.797 -2.33168,4.02365c-3.57783,0.7555 -2.39648,-3.89968 -1.26716,-5.42864c1.1155,-1.40862 -0.12029,-3.81621 -1.92972,-2.91229c-0.3929,0.19606 -1.21824,7.09886 -2.47403,3.17431c-0.04293,-0.8644 -3.19749,-4.99081 -3.91053,-3.87093c-0.37899,0.5953 0.43565,3.38892 -0.50629,4.82568c-3.39787,3.6414 -2.28165,-4.16283 -3.33664,-6.51861c0,0 -0.18019,-0.44056 0.24455,-0.62833z" fill="#ff6e00"/><path d="M916.51829,192.69121c0,0 -0.10052,0.03085 -0.22185,0.01644c-0.49719,0.12 -1.09716,0.23254 -1.81263,0.33447c-4.09989,0.66105 -8.43447,0.03853 -12.48396,-0.68577c-0.57665,-0.10326 -1.10003,-0.29616 -1.48181,-0.53915c-0.13967,0.00536 -0.31811,-0.04148 -0.42865,-0.27713c-0.02581,-0.05446 -0.04122,-0.10508 -0.04876,-0.15228c-0.36213,-0.51044 -0.11664,-1.1147 1.2474,-1.58888c2.39006,-0.83023 5.42455,-0.9173 7.93436,-0.85768c2.64985,0.06508 5.65531,0.05577 8.17566,0.9914c2.78222,1.03316 1.79877,2.34261 -0.69546,2.69662l-0.18417,0.06249z" fill="#ff8629"/></g></g></g></svg>