<svg version="1.1" xmlns="http://www.w3.org/2000/svg" xmlns:xlink="http://www.w3.org/1999/xlink" width="151.86124" height="168.62681" viewBox="0,0,151.86124,168.62681"><defs><linearGradient x1="197.59912" y1="84.55697" x2="198.44929" y2="113.19168" gradientUnits="userSpaceOnUse" id="color-1"><stop offset="0" stop-color="#4a4a4a" stop-opacity="0"/><stop offset="1" stop-color="#4a4a4a" stop-opacity="0.58039"/></linearGradient><linearGradient x1="199.82798" y1="83.28427" x2="198.70427" y2="114.246" gradientUnits="userSpaceOnUse" id="color-2"><stop offset="0" stop-color="#292929" stop-opacity="0"/><stop offset="1" stop-color="#292929" stop-opacity="0.46667"/></linearGradient><linearGradient x1="201.69845" y1="85.44159" x2="198.07367" y2="113.80353" gradientUnits="userSpaceOnUse" id="color-3"><stop offset="0" stop-color="#383838" stop-opacity="0"/><stop offset="1" stop-color="#383838" stop-opacity="0.62353"/></linearGradient><linearGradient x1="199.19257" y1="86.55703" x2="198.48347" y2="112.98173" gradientUnits="userSpaceOnUse" id="color-4"><stop offset="0" stop-color="#4a4a4a" stop-opacity="0"/><stop offset="1" stop-color="#4a4a4a" stop-opacity="0.57647"/></linearGradient><linearGradient x1="242.06483" y1="210.48632" x2="242.06483" y2="134.40733" gradientUnits="userSpaceOnUse" id="color-5"><stop offset="0" stop-color="#000000" stop-opacity="0"/><stop offset="1" stop-color="#000000" stop-opacity="0"/></linearGradient><radialGradient cx="187.32384" cy="240.51534" r="44.2973" gradientUnits="userSpaceOnUse" id="color-6"><stop offset="0" stop-color="#a3cdff"/><stop offset="1" stop-color="#446db8"/></radialGradient><linearGradient x1="247.87101" y1="244.27482" x2="175.75722" y2="244.12413" gradientUnits="userSpaceOnUse" id="color-7"><stop offset="0" stop-color="#464646"/><stop offset="1" stop-color="#353535"/></linearGradient><linearGradient x1="212.2802" y1="233.58765" x2="212.2802" y2="247.25432" gradientUnits="userSpaceOnUse" id="color-8"><stop offset="0" stop-color="#2d3b45"/><stop offset="1" stop-color="#1d2836"/></linearGradient><linearGradient x1="283.36733" y1="125.33033" x2="224.68049" y2="191.35026" gradientUnits="userSpaceOnUse" id="color-9"><stop offset="0" stop-color="#5d5d5d"/><stop offset="1" stop-color="#474747"/></linearGradient><radialGradient cx="282.69625" cy="140.51932" r="11.83333" gradientUnits="userSpaceOnUse" id="color-10"><stop offset="0" stop-color="#939393"/><stop offset="1" stop-color="#393939"/></radialGradient><linearGradient x1="287.81115" y1="130.06407" x2="277.58133" y2="150.97454" gradientUnits="userSpaceOnUse" id="color-11"><stop offset="0" stop-color="#666666"/><stop offset="1" stop-color="#4f4f4f"/></linearGradient><radialGradient cx="203.80109" cy="162.24187" r="37.63684" gradientUnits="userSpaceOnUse" id="color-12"><stop offset="0" stop-color="#939393"/><stop offset="1" stop-color="#535353"/></radialGradient><radialGradient cx="203.41208" cy="134.49561" r="37.63684" gradientUnits="userSpaceOnUse" id="color-13"><stop offset="0" stop-color="#393939"/><stop offset="1" stop-color="#1b1b1b"/></radialGradient><radialGradient cx="203.21758" cy="128.98142" r="32.09343" gradientUnits="userSpaceOnUse" id="color-14"><stop offset="0" stop-color="#373737"/><stop offset="1" stop-color="#1b1b1b"/></radialGradient><linearGradient x1="186.56196" y1="119.8755" x2="210.73272" y2="119.8755" gradientUnits="userSpaceOnUse" id="color-15"><stop offset="0" stop-color="#535353"/><stop offset="1" stop-color="#232323"/></linearGradient><radialGradient cx="225.02638" cy="141.63385" r="17.36636" gradientUnits="userSpaceOnUse" id="color-16"><stop offset="0" stop-color="#939393"/><stop offset="1" stop-color="#535353"/></radialGradient><radialGradient cx="242.68983" cy="149.5338" r="9.74286" gradientUnits="userSpaceOnUse" id="color-17"><stop offset="0" stop-color="#1d1d1d"/><stop offset="1" stop-color="#080808"/></radialGradient><linearGradient x1="242.68983" y1="139.79093" x2="242.68983" y2="159.27666" gradientUnits="userSpaceOnUse" id="color-18"><stop offset="0" stop-color="#ffffff"/><stop offset="1" stop-color="#a0a0a0"/></linearGradient><radialGradient cx="192.52272" cy="195.82662" r="50.77276" gradientUnits="userSpaceOnUse" id="color-19"><stop offset="0" stop-color="#adadad"/><stop offset="1" stop-color="#666666"/></radialGradient><radialGradient cx="198.94934" cy="210.76709" r="35.99484" gradientUnits="userSpaceOnUse" id="color-20"><stop offset="0" stop-color="#1e1e1e"/><stop offset="1" stop-color="#171717"/></radialGradient><linearGradient x1="286.7513" y1="139.21398" x2="278.84962" y2="142.14495" gradientUnits="userSpaceOnUse" id="color-21"><stop offset="0" stop-color="#644520"/><stop offset="1" stop-color="#5c401f"/></linearGradient><linearGradient x1="284.30932" y1="144.67577" x2="281.29159" y2="136.68314" gradientUnits="userSpaceOnUse" id="color-22"><stop offset="0" stop-color="#644520"/><stop offset="1" stop-color="#5c401f"/></linearGradient><linearGradient x1="286.66643" y1="142.42827" x2="278.93446" y2="138.9307" gradientUnits="userSpaceOnUse" id="color-23"><stop offset="0" stop-color="#644520"/><stop offset="1" stop-color="#5c401f"/></linearGradient><linearGradient x1="284.53206" y1="136.80691" x2="281.06887" y2="144.55203" gradientUnits="userSpaceOnUse" id="color-24"><stop offset="0" stop-color="#644520"/><stop offset="1" stop-color="#5c401f"/></linearGradient><linearGradient x1="312.84754" y1="128.95742" x2="252.75338" y2="152.40153" gradientUnits="userSpaceOnUse" id="color-25"><stop offset="0" stop-color="#e08200"/><stop offset="1" stop-color="#82491d"/></linearGradient><linearGradient x1="289.30884" y1="138.14042" x2="276.29209" y2="143.21853" gradientUnits="userSpaceOnUse" id="color-26"><stop offset="0" stop-color="#636363"/><stop offset="1" stop-color="#3a3a3a"/></linearGradient><linearGradient x1="289.30884" y1="138.14042" x2="276.29209" y2="143.21853" gradientUnits="userSpaceOnUse" id="color-27"><stop offset="0" stop-color="#adadad"/><stop offset="1" stop-color="#7e7e7e"/></linearGradient><radialGradient cx="229.3134" cy="150.04314" r="20.5" gradientUnits="userSpaceOnUse" id="color-28"><stop offset="0" stop-color="#454545"/><stop offset="1" stop-color="#2f2f2f"/></radialGradient><radialGradient cx="264.08295" cy="143.64042" r="6.16667" gradientUnits="userSpaceOnUse" id="color-29"><stop offset="0" stop-color="#939393"/><stop offset="1" stop-color="#454545"/></radialGradient><radialGradient cx="265.84323" cy="146.13874" r="6.16667" gradientUnits="userSpaceOnUse" id="color-30"><stop offset="0" stop-color="#636363"/><stop offset="1" stop-color="#232323"/></radialGradient></defs><g transform="translate(-164.94688,-83.16873)"><g data-paper-data="{&quot;isPaintingLayer&quot;:true}" fill-rule="nonzero" stroke-linejoin="miter" stroke-miterlimit="10" stroke-dasharray="" stroke-dashoffset="0" style="mix-blend-mode: normal"><path d="M191.19303,111.68415l-0.01088,-0.00644l-0.00657,-0.02571c-0.06469,-0.12502 -0.10353,-0.26915 -0.10811,-0.42359l-0.00897,-0.30207l0.02096,-0.10912l-0.00331,-0.11156l0.02584,-0.13453l-0.01989,-0.66981l-0.05651,-0.35741l0.00407,-0.06508l-0.01601,-0.06275l-0.00023,-0.00805l-0.00911,-0.02585l-0.0611,-0.09995l-0.03937,-0.11881l-0.26042,-0.53744l-0.01454,-0.06319l-0.03292,-0.05386l-0.08103,-0.24458l-0.05021,-0.07848l-0.03977,-0.11264l-0.0611,-0.09995l-0.1781,-0.53768l-0.01429,-0.14486l-0.03577,-0.14014l-0.00207,-0.06969l-0.03377,-0.13233l-0.00331,-0.11154l-0.02739,-0.10734l-0.00102,-0.03418l-0.01367,-0.04125l-0.01429,-0.14486l-0.03577,-0.14014l-0.03407,-1.14781l0.02096,-0.10912l-0.00331,-0.11156l0.02584,-0.13453l-0.00746,-0.25091l0.02096,-0.10912l-0.00331,-0.11156l0.04276,-0.22256l0.04186,-0.28277l0.02037,-0.05258l0.00222,-0.05723l0.08286,-0.31237l0.03678,-0.24838l0.02037,-0.05258l0.00223,-0.05723l0.07911,-0.29827l0.03487,-0.29394l0.04455,-0.12592l0.02232,-0.13312l0.11976,-0.29191l0.07716,-0.34516l0.03571,-0.07487l0.01399,-0.08344l0.42959,-1.0469l0.17806,-0.6712l0.04538,-0.08599l0.02313,-0.09642l0.12146,-0.24458l0.07691,-0.23773l0.03662,-0.06092l0.017,-0.07091l0.15301,-0.30806l0.02905,-0.03476l0.0152,-0.04445l0.09337,-0.1494l0.16154,-0.4994l0.01918,-0.0319l0.00634,-0.03783l0.53039,-1.29254l0.11305,-0.42618l0.07983,-0.60479l0.02642,-0.07162l0.00489,-0.07729l0.16359,-0.56068l0.02822,-0.54906l0.01311,-0.04703l-0.00355,-0.04911l0.08791,-0.59368l0.08003,-0.67474l0.02775,-0.71249l-0.06205,-2.08979l-0.05589,-0.43165l-0.10364,-0.40612l-0.11639,-0.4045l-0.00092,-0.01549l-0.00691,-0.01343l-0.04607,-0.18048l-0.09484,-0.24168l-0.00409,-0.02689l-0.01376,-0.0225l-0.08103,-0.24458l-0.05021,-0.07848l-0.02121,-0.0601l-0.01303,-0.00241l-0.05877,-0.09615l-0.08125,-0.07284l-0.00549,-0.06906l-0.09025,-0.14764l-0.00786,-0.02371l-0.00073,-0.00126l-0.06148,-0.05849l-0.11337,-0.17722l-0.03977,-0.11262l-0.03728,-0.06103l-0.10017,-0.10487l-0.07068,-0.1224l-0.08801,-0.10742l-0.05757,-0.11881l-0.00802,-0.03483l-0.11285,-0.10117l-0.00358,-0.04505l-0.04468,-0.05454l-0.05757,-0.11881l-0.10409,-0.45256l0.11731,-0.21181l0.00496,-0.24913l0.30788,-0.31571l0.0597,-0.03623l0.00425,-0.009l0.02239,-0.00717l0.01984,-0.01203l0.18031,-0.05193l0.17902,-0.05722l0.02256,-0.00085l0.02253,-0.0065l0.00773,0.00536l1.36001,-0.05054l0.42716,-0.06924l0.36366,-0.07202l0.05817,0.00456l0.05608,-0.01791l0.27823,-0.01035l0.11825,-0.03779l0.09968,-0.0037l0.09592,-0.03066l0.10798,-0.00402l0.09753,0.02348l0.09968,-0.0037l0.21774,0.05236l0.0801,0.04404l0.0877,0.01844l0.12245,0.0629l0.05555,-0.01919l0.091,0.05661l0.10178,0.02448l0.03251,0.05902l0.13918,0.08656l0.06259,0.02079l0.09318,0.06159l0.10307,0.03693l0.16555,0.11479l0.05625,0.06477l0.07054,0.04386l0.05297,0.05548l0.09735,0.06749l0.05625,0.06477l0.07054,0.04386l0.11157,0.1168l0.04379,0.07584l0.06148,0.05849l0.01904,0.02976l0.02781,0.0193l0.05625,0.06475l0.07054,0.04386l0.11155,0.11683l0.04379,0.07586l0.06149,0.05851l0.21363,0.33397l0.49335,0.68725l0.04475,0.10867l0.06546,0.09465l0.07386,0.18821l0.10202,0.14213l0.04475,0.10867l0.06545,0.0946l0.1034,0.26349l0.08425,0.17386l0.15405,0.26681l0.02881,0.09449l0.05037,0.08242l0.03937,0.11881l0.0877,0.18099l0.02225,0.0967l0.04457,0.08649l0.29728,1.1647l0.04855,0.14657l0.00348,0.03534l0.01589,0.03078l0.11377,0.44579l0.04855,0.14658l0.01429,0.14487l0.03577,0.14013l0.00386,0.1301l0.03377,0.13235l0.00065,0.02207l0.00904,0.01964l0.06294,0.30006l-0.00021,0.015l0.00575,0.01357l0.04749,0.26437l0.08172,0.2083l0.01258,0.08269l0.03433,0.0746l0.06296,0.30003l-0.0002,0.015l0.00574,0.01357l0.05223,0.29072l0.09664,0.29174l0.00707,0.0715l0.02756,0.06496l0.05223,0.29072l0.09664,0.29174l0.0056,0.05693l0.02344,0.05094l0.05143,0.2451l0.10121,0.30552l0.00348,0.03533l0.01589,0.03081l0.04606,0.18047l0.05176,0.1319l0.36785,0.5124l0.12648,0.09897l0.06742,0.08679l0.08376,0.0666l0.19573,0.25587l0.8177,0.85612l0.17414,0.13629l0.07557,0.09728l0.09176,0.07794l0.13309,0.18537l0.23686,0.248l0.04378,0.07586l0.06148,0.05849l0.03259,0.05094l0.10759,0.08418l0.08998,0.11587l0.10453,0.09943l0.22671,0.35444l0.01882,0.05329l0.03458,0.04223l0.08033,0.16577l0.12339,0.17188l0.03082,0.07484l0.04976,0.06076l0.11516,0.23762l0.00858,0.03726l0.02105,0.03044l0.1034,0.26349l0.21423,0.44209l0.00858,0.03726l0.02105,0.03044l0.1034,0.26349l0.09909,0.20446l0.00858,0.03726l0.02105,0.03044l0.11696,0.29804l0.00935,0.06149l0.02784,0.05403l0.02806,0.10992l0.10551,0.18273l0.02881,0.09449l0.05037,0.08242l0.11874,0.35844l0.00706,0.0715l0.02757,0.06496l0.04551,0.25336l0.13311,0.31797l0.02187,0.12507l0.04463,0.11726l0.05854,0.41221l0.10138,0.3523l0.00373,0.06262l0.02289,0.05732l0.13146,0.83134l0.0629,0.35013l-0.00316,0.07571l0.01861,0.07288l0.03947,1.32902l-0.01696,0.08831l0.00651,0.09002l-0.04503,0.30406l-0.02037,0.05258l-0.00223,0.05722l-0.0598,0.22544l0.0046,0.15499l-0.00685,0.03566l0.01308,0.027l-0.05563,0.19451l-0.03836,0.19967l-0.02337,0.01613l-0.00994,0.03475l-0.02868,0.05174l-0.01731,0.09012l-0.06116,0.13924l-0.04228,0.14778l-0.04545,0.08204l-0.01773,0.06685l-0.05503,0.10427l-0.033,0.11533l-0.07601,0.13728l-0.02936,0.07152l-0.08142,0.11375l-0.06328,0.12738l-0.46713,0.55863l-0.13636,0.24619l-0.07974,0.19433l-0.04136,0.05777l-0.0009,0.04524l-0.05621,0.05763l-0.00412,0.02463l-0.00942,0.02295l-0.00489,0.02548l-0.00774,0.00535l-0.17955,0.43759l-0.04136,0.05777l-0.0009,0.04523l-0.11842,0.12143l-0.03792,0.05296l-0.00024,0.01286l-0.03369,0.03454l-0.02856,0.03989l-0.01146,0.00116l-0.0447,0.04586l-0.03792,0.05296l-0.00026,0.01286l-0.03367,0.03454l-0.02856,0.03989l-0.01146,0.00116l-0.0447,0.04586l-0.10042,0.14025l-0.04026,0.00402l-0.04878,0.05001l-0.10617,0.06443l-0.05648,0.01625l-0.04814,0.03683l-0.32035,0.13287l-0.10584,0.01306l-0.00373,0.00226l-0.1803,0.05193l-0.17902,0.05722l-0.02257,0.00085l-0.02253,0.0065l-0.00773,-0.00536l-0.02895,0.00107l-0.14093,0.03703l-0.11287,0.04681l-0.12946,0.01601l-0.12524,0.04003l-0.24652,0.00916l-0.03688,0.01529l-0.12946,0.01601l-0.12524,0.04003l-0.03057,0.00116l-0.03687,0.01529l-0.03158,0.00389l-0.02754,0.01778l-0.21415,0.06844l-0.09968,0.0037l-0.09592,0.03066l-0.19251,0.00717l-0.03688,0.01529l-0.03157,0.00388l-0.02754,0.01778l-0.21416,0.06844l-0.09969,0.0037l-0.09591,0.03066l-0.45969,0.01709l-0.19003,0.04991l-0.08069,-0.0013l-0.07761,0.0248l-6.64059,0.24685l-0.12734,-0.03065l-0.13013,-0.00634l-0.32751,-0.10879l-0.01994,-0.01317l-0.04946,0.00183l-0.0074,0.00593l-0.02288,-0.00481l-0.02257,0.00086l-0.18203,-0.0438l-0.18299,-0.03841l-0.02053,-0.01055l-0.02275,-0.00548l-0.00478,-0.00865l-0.06175,-0.03174l-0.32592,-0.29212l-0.03529,-0.44395l-0.00075,-0.00136l0.00054,-0.00116l-0.022,-0.27677c-0.20064,-0.05808 -0.37198,-0.20032 -0.48095,-0.39206z" fill="url(#color-1)" stroke="none" stroke-width="0.5" stroke-linecap="butt"/><path d="M190.98498,111.97254l-0.01128,-0.0079l-0.00525,-0.02833c-0.06086,-0.1406 -0.0925,-0.29952 -0.08642,-0.46654l0.01185,-0.32661l0.0304,-0.11585l0.00438,-0.12062l0.03746,-0.14279l0.0263,-0.72425l-0.03548,-0.39056l0.00903,-0.06987l-0.0128,-0.06913l0.00031,-0.00871l-0.008,-0.02868l-0.05878,-0.11327l-0.034,-0.13165l-0.24259,-0.60293l-0.01117,-0.06945l-0.03168,-0.06104l-0.06997,-0.27107l-0.04855,-0.08911l-0.03487,-0.12503l-0.05878,-0.11324l-0.15379,-0.59583l-0.00509,-0.15754l-0.0286,-0.15436l0.00274,-0.07535l-0.02701,-0.14574l0.00438,-0.12062l-0.02189,-0.11819l0.00135,-0.03698l-0.01179,-0.04573l-0.00509,-0.15754l-0.0286,-0.15436l0.04504,-1.24108l0.0304,-0.11583l0.00438,-0.12063l0.03746,-0.14279l0.00985,-0.2713l0.0304,-0.11585l0.00438,-0.12062l0.06199,-0.23626l0.06531,-0.30125l0.02571,-0.05489l0.00648,-0.06156l0.11164,-0.32953l0.05736,-0.26462l0.02573,-0.05489l0.00648,-0.06154l0.10662,-0.31467l0.05855,-0.31395l0.05703,-0.13186l0.03355,-0.14159l0.15001,-0.30418l0.1078,-0.36538l0.04386,-0.07759l0.02101,-0.08874l0.53796,-1.09085l0.23988,-0.70805l0.05508,-0.08867l0.03182,-0.10198l0.14845,-0.25294l0.09989,-0.24958l0.04385,-0.06244l0.0234,-0.07495l0.18698,-0.31864l0.03383,-0.03488l0.01955,-0.04661l0.11135,-0.15281l0.20982,-0.52423l0.02298,-0.03272l0.00954,-0.04019l0.66419,-1.34684l0.15232,-0.4496l0.12921,-0.64519l0.03362,-0.07488l0.01077,-0.08293l0.21642,-0.59015l0.06956,-0.58972l0.0175,-0.04957l-0.00034,-0.05328l0.13712,-0.63254l0.1344,-0.72061l0.08071,-0.76604l0.08202,-2.25962l-0.02951,-0.47056l-0.08285,-0.44727l-0.09672,-0.44666l0.00011,-0.01677l-0.0065,-0.01511l-0.03684,-0.19876l-0.08508,-0.26917l-0.0025,-0.02934l-0.01324,-0.02551l-0.06997,-0.27107l-0.04855,-0.08911l-0.01862,-0.06674l-0.01385,-0.00376l-0.05655,-0.10897l-0.08245,-0.08583l-0.00101,-0.07499l-0.08682,-0.16729l-0.00678,-0.02626l-0.0007,-0.00143l-0.06215,-0.0686l-0.10964,-0.20126l-0.03485,-0.12503l-0.03587,-0.06912l-0.10056,-0.12206l-0.06753,-0.13836l-0.08725,-0.12376l-0.05364,-0.1333l-0.00616,-0.0383l-0.11452,-0.1192l-0.00065,-0.04891l-0.04432,-0.06284l-0.05362,-0.1333l-0.08001,-0.4974l0.14163,-0.21799l0.02311,-0.26829l0.35459,-0.31306l0.06699,-0.03375l0.00523,-0.00935l0.02463,-0.0057l0.02226,-0.01122l0.19819,-0.03994l0.19717,-0.04573l0.02439,0.00109l0.02475,-0.00497l0.00794,0.00649l1.47053,0.0668l0.46568,-0.03659l0.39737,-0.0452l0.06242,0.01009l0.06177,-0.01431l0.30083,0.01368l0.13024,-0.03022l0.10781,0.00489l0.10563,-0.02451l0.11676,0.0053l0.10352,0.03401l0.1078,0.00489l0.23114,0.07592l0.08325,0.05464l0.09329,0.02769l0.12759,0.0788l0.06129,-0.01573l0.09413,0.06914l0.10805,0.03551l0.03086,0.06655l0.14395,0.10577l0.06602,0.02802l0.09613,0.07475l0.10856,0.04901l0.17038,0.1386l0.05605,0.07486l0.07297,0.0536l0.05319,0.06455l0.1002,0.08151l0.05604,0.07486l0.07296,0.0536l0.11201,0.13592l0.04183,0.08574l0.06215,0.0686l0.01842,0.0338l0.02863,0.02327l0.05605,0.07486l0.07296,0.0536l0.11201,0.13592l0.04183,0.08574l0.06215,0.0686l0.20662,0.37929l0.48315,0.78531l0.04051,0.12118l0.06384,0.10789l0.06625,0.20963l0.09992,0.16242l0.04051,0.1212l0.06384,0.10789l0.09276,0.29345l0.07849,0.19505l0.14714,0.30153l0.02433,0.1045l0.04849,0.09338l0.034,0.13168l0.0817,0.20303l0.0171,0.10629l0.04193,0.09728l0.23764,1.28281l0.04193,0.16243l0.00125,0.03842l0.01491,0.03465l0.09096,0.49097l0.04193,0.16243l0.00508,0.15754l0.0286,0.15436l-0.00509,0.14065l0.02701,0.14571l-0.00087,0.02389l0.00837,0.022l0.04652,0.32925l-0.00128,0.01617l0.00523,0.01511l0.03238,0.28941l0.07331,0.23198l0.00769,0.0903l0.03171,0.0835l0.04652,0.32925l-0.00128,0.01617l0.00523,0.01511l0.03562,0.31825l0.08346,0.32333l0.00251,0.07774l0.02511,0.07253l0.03562,0.31825l0.08346,0.32329l0.002,0.06192l0.02166,0.05704l0.038,0.26895l0.08739,0.33855l0.00125,0.03842l0.01492,0.03462l0.0368,0.19876l0.04643,0.14689l0.36021,0.5855l0.12937,0.11806l0.06654,0.09963l0.0856,0.07932l0.19287,0.29347l0.82097,0.99639l0.17811,0.16253l0.07458,0.11167l0.09343,0.09224l0.13033,0.21183l0.23781,0.28862l0.04183,0.08572l0.06215,0.0686l0.03151,0.05785l0.11004,0.10041l0.08882,0.13302l0.10565,0.11658l0.21928,0.40252l0.01649,0.05915l0.0343,0.04865l0.07484,0.18598l0.12084,0.19642l0.02792,0.08349l0.04934,0.06999l0.10728,0.26658l0.00659,0.04095l0.02054,0.03469l0.09276,0.29345l0.19957,0.49599l0.00659,0.04095l0.02054,0.0347l0.09276,0.29345l0.09231,0.22941l0.00659,0.04095l0.02054,0.03469l0.10491,0.33192l0.00571,0.06714l0.02619,0.06075l0.02241,0.12105l0.10078,0.20647l0.02433,0.10451l0.04849,0.09335l0.10252,0.39722l0.00251,0.07772l0.02511,0.07253l0.03103,0.27735l0.12092,0.35486l0.01467,0.13689l0.03977,0.13045l0.03375,0.44985l0.08425,0.38904l-0.00043,0.0679l0.02059,0.06387l0.08254,0.90843l0.04288,0.38325l-0.0088,0.08136l0.01487,0.08025l-0.05215,1.43704l-0.02459,0.09372l0.00061,0.09767l-0.07023,0.32396l-0.02573,0.0549l-0.00648,0.06154l-0.08056,0.23783l-0.00608,0.1676l-0.00993,0.03785l0.01219,0.03029l-0.07387,0.20482l-0.05562,0.21194l-0.02636,0.01531l-0.0132,0.03659l-0.03461,0.05328l-0.02509,0.09563l-0.07588,0.14475l-0.05614,0.15561l-0.05486,0.08445l-0.02389,0.07053l-0.06679,0.10755l-0.04383,0.12147l-0.09178,0.14127l-0.03676,0.07453l-0.09593,0.11545l-0.07731,0.13175l-0.54367,0.56085l-0.16462,0.25336l-0.09988,0.20252l-0.04874,0.05862l-0.00419,0.04871l-0.06473,0.05716l-0.0062,0.02619l-0.01179,0.02393l-0.0071,0.02701l-0.00873,0.00507l-0.22484,0.45593l-0.04874,0.05862l-0.00419,0.04871l-0.13637,0.12042l-0.04467,0.05374l-0.0012,0.01385l-0.03879,0.03424l-0.03366,0.04048l-0.01243,0.00021l-0.05148,0.04546l-0.04467,0.05374l-0.00119,0.01385l-0.03879,0.03426l-0.03366,0.04048l-0.01243,0.00021l-0.05149,0.04546l-0.11831,0.14235l-0.04373,0.00071l-0.05617,0.04962l-0.11912,0.06l-0.06209,0.0125l-0.05453,0.03543l-0.355,0.11474l-0.11507,0.00465l-0.00416,0.00209l-0.19817,0.03994l-0.19717,0.04573l-0.02439,-0.00109l-0.02478,0.00497l-0.00794,-0.00647l-0.0313,-0.00141l-0.15465,0.02734l-0.12508,0.04041l-0.1408,0.0057l-0.13795,0.03202l-0.26653,-0.0121l-0.04088,0.01321l-0.1408,0.0057l-0.13795,0.03201l-0.03302,-0.00152l-0.04088,0.01321l-0.03434,0.00141l-0.03096,0.0167l-0.23587,0.05471l-0.1078,-0.00489l-0.10565,0.02451l-0.20816,-0.00947l-0.04088,0.01321l-0.03434,0.00138l-0.03096,0.0167l-0.23587,0.05471l-0.1078,-0.00489l-0.10565,0.02451l-0.49705,-0.02258l-0.20854,0.03691l-0.08694,-0.00861l-0.08547,0.01983l-7.18026,-0.32628l-0.13516,-0.0444l-0.13991,-0.01845l-0.34552,-0.14655l-0.02058,-0.01601l-0.05347,-0.00244l-0.00841,0.00573l-0.02433,-0.00723l-0.02439,-0.00112l-0.1932,-0.06346l-0.19464,-0.05777l-0.02138,-0.01318l-0.02415,-0.00793l-0.00453,-0.00979l-0.06432,-0.03973l-0.33071,-0.3442l-0.00642,-0.48199l-0.0007,-0.00154l0.00068,-0.0012l-0.00399,-0.30049c-0.21228,-0.08056 -0.38695,-0.24925 -0.49082,-0.46579z" fill="url(#color-2)" stroke="none" stroke-width="0.5" stroke-linecap="butt"/><path d="M191.16346,110.90344l-0.00972,-0.00844l-0.00246,-0.02661c-0.04421,-0.1357 -0.06001,-0.2852 -0.04046,-0.43818l0.03822,-0.29918l0.03766,-0.10336l0.01412,-0.11049l0.04642,-0.12743l0.08478,-0.66342l0.00003,-0.36298l0.01415,-0.0633l-0.00598,-0.06493l0.00103,-0.00797l-0.00496,-0.02723l-0.0446,-0.11035l-0.02024,-0.12468l-0.1727,-0.58003l-0.00446,-0.06507l-0.02403,-0.05947l-0.04166,-0.25667l-0.0372,-0.08707l-0.0216,-0.11867l-0.0446,-0.11035l-0.0916,-0.5642l0.0085,-0.14544l-0.01339,-0.14496l0.00882,-0.06902l-0.01264,-0.13687l0.01412,-0.1105l-0.01025,-0.11104l0.00432,-0.03385l-0.00702,-0.04327l0.0085,-0.14544l-0.01338,-0.14496l0.14531,-1.13688l0.03765,-0.10336l0.01412,-0.11049l0.04641,-0.12743l0.03174,-0.24849l0.03766,-0.10336l0.01412,-0.11049l0.07677,-0.21079l0.08529,-0.27027l0.02825,-0.04779l0.01112,-0.05591l0.13026,-0.29142l0.07493,-0.23739l0.02824,-0.04776l0.01112,-0.05594l0.12439,-0.27827l0.08013,-0.28265l0.06349,-0.11532l0.04272,-0.12674l0.16344,-0.26406l0.12974,-0.32481l0.04682,-0.06677l0.02677,-0.07942l0.58614,-0.94704l0.2799,-0.62618l0.05808,-0.07581l0.0378,-0.09047l0.1577,-0.21712l0.11279,-0.2191l0.04556,-0.05281l0.02779,-0.06652l0.19866,-0.2735l0.03404,-0.02855l0.02189,-0.04081l0.11521,-0.12888l0.23689,-0.46021l0.02387,-0.02769l0.01214,-0.03599l0.72366,-1.16928l0.17773,-0.39758l0.17287,-0.57995l0.03717,-0.06536l0.01685,-0.07515l0.24846,-0.5202l0.11334,-0.53515l0.02024,-0.04377l0.00416,-0.04905l0.17907,-0.56744l0.18392,-0.64877l0.13836,-0.69617l0.26455,-2.06988l0.01222,-0.43592l-0.03878,-0.4201l-0.05159,-0.42099l0.00151,-0.01539l-0.00473,-0.01458l-0.01723,-0.18672l-0.05571,-0.25651l0.00016,-0.02726l-0.01004,-0.02484l-0.04168,-0.25667l-0.0372,-0.08709l-0.01153,-0.06335l-0.01243,-0.00492l-0.04288,-0.10616l-0.06865,-0.08754l0.00535,-0.06906l-0.06587,-0.16298l-0.00404,-0.02485l-0.00053,-0.00141l-0.05143,-0.06959l-0.084,-0.19661l-0.02161,-0.11867l-0.02721,-0.06731l-0.08228,-0.12281l-0.05052,-0.13434l-0.06991,-0.12299l-0.03818,-0.12823l-0.00246,-0.03586l-0.09535,-0.12164l0.00348,-0.04506l-0.03551,-0.06246l-0.03819,-0.12827l-0.03196,-0.46592l0.14851,-0.1857l0.0437,-0.24435l0.35235,-0.25081l0.06445,-0.02404l0.00558,-0.00804l0.02316,-0.00267l0.02144,-0.00798l0.18563,-0.01595l0.1852,-0.02142l0.02236,0.00358l0.02319,-0.002l0.00678,0.00682l1.34706,0.21553l0.4314,0.01516l0.36931,0.00004l0.05658,0.01584l0.05801,-0.00671l0.27558,0.04408l0.12232,-0.01413l0.09875,0.0158l0.09923,-0.01146l0.10695,0.0171l0.09236,0.04213l0.09874,0.0158l0.20626,0.09404l0.072,0.059l0.08349,0.03525l0.11077,0.08583l0.0577,-0.00805l0.08079,0.07347l0.09642,0.04397l0.0228,0.06445l0.12359,0.11237l0.05838,0.03267l0.08216,0.07883l0.09574,0.05647l0.14513,0.14531l0.04529,0.07475l0.06262,0.05697l0.04353,0.06496l0.08533,0.08547l0.04529,0.07476l0.06262,0.05697l0.09165,0.13677l0.03131,0.08323l0.05143,0.06959l0.01411,0.03303l0.02438,0.02439l0.04529,0.07476l0.06262,0.05694l0.09165,0.13681l0.03131,0.08323l0.05143,0.06959l0.15831,0.37053l0.3787,0.77299l0.02713,0.11574l0.0497,0.10594l0.04339,0.19979l0.07831,0.15985l0.02713,0.11574l0.0497,0.10594l0.06075,0.27963l0.05588,0.18765l0.11011,0.29277l0.01364,0.09866l0.03676,0.09099l0.02024,0.12468l0.05816,0.19533l0.00683,0.09954l0.03042,0.09385l0.11123,1.20487l0.02498,0.1538l-0.00209,0.0355l0.01083,0.0334l0.04257,0.46116l0.02498,0.15381l-0.0085,0.14544l0.01338,0.14498l-0.01647,0.12885l0.01265,0.13689l-0.00281,0.02186l0.00585,0.02112l0.01525,0.30773l-0.00254,0.01475l0.00357,0.01446l0.00557,0.26959l0.04802,0.22106l-0.00049,0.08388l0.02217,0.08012l0.01525,0.30773l-0.00254,0.01475l0.00355,0.01447l0.00612,0.29644l0.0497,0.30616l-0.00418,0.07178l0.01703,0.06936l0.00611,0.29644l0.0497,0.30616l-0.00335,0.05717l0.01516,0.05472l0.01244,0.2514l0.05205,0.32058l-0.00207,0.0355l0.01082,0.03341l0.01723,0.18668l0.0304,0.13998l0.28233,0.57629l0.10911,0.12213l0.05286,0.09862l0.0721,0.08193l0.15287,0.29013l0.67177,1.00254l0.15023,0.16816l0.05926,0.11053l0.07821,0.0946l0.10214,0.2085l0.19458,0.29041l0.03131,0.08325l0.05143,0.06959l0.02413,0.05651l0.09282,0.10389l0.07057,0.13164l0.08741,0.1183l0.16803,0.39326l0.01023,0.05613l0.02747,0.04837l0.05327,0.17888l0.09472,0.19334l0.01867,0.07971l0.03953,0.06954l0.07636,0.25647l0.00263,0.03836l0.01599,0.03407l0.06075,0.27962l0.14208,0.47713l0.00263,0.03836l0.01599,0.03407l0.06075,0.27963l0.06572,0.22066l0.00263,0.03836l0.01599,0.03407l0.06871,0.3163l-0.00037,0.06235l0.01901,0.05863l0.0105,0.1137l0.07542,0.2005l0.01364,0.09866l0.03676,0.09099l0.06108,0.3761l-0.00418,0.07178l0.01703,0.06935l0.00533,0.25841l0.08154,0.33907l0.00203,0.12743l0.02566,0.12418l-0.0066,0.41731l0.04494,0.3667l-0.00609,0.06238l0.0136,0.0609l-0.00012,0.84428l0.00737,0.35702l-0.0149,0.07391l0.00697,0.07538l-0.16824,1.31638l-0.03046,0.08361l-0.00761,0.08991l-0.09173,0.29062l-0.02824,0.04779l-0.01112,0.05591l-0.09401,0.21032l-0.01963,0.15351l-0.01229,0.03378l0.00867,0.02914l-0.08509,0.18069l-0.06888,0.18913l-0.02552,0.01132l-0.0152,0.03227l-0.03628,0.04536l-0.03108,0.08537l-0.08192,0.1252l-0.06466,0.13726l-0.05754,0.07191l-0.02786,0.06235l-0.07043,0.09194l-0.05046,0.10714l-0.09625,0.12031l-0.04004,0.06472l-0.09792,0.09612l-0.08215,0.11308l-0.547,0.45894l-0.17263,0.21582l-0.10882,0.17585l-0.04972,0.04882l-0.00793,0.04435l-0.06432,0.04577l-0.0079,0.02342l-0.01285,0.02079l-0.00879,0.02411l-0.00844,0.00376l-0.24498,0.39581l-0.04972,0.04882l-0.00793,0.04435l-0.13552,0.09647l-0.04558,0.04474l-0.00225,0.01261l-0.03856,0.02745l-0.03434,0.0337l-0.01147,-0.00109l-0.05115,0.03643l-0.04559,0.04474l-0.00225,0.01261l-0.03856,0.02743l-0.03435,0.03373l-0.01146,-0.00112l-0.05117,0.03643l-0.12075,0.11852l-0.04028,-0.00389l-0.05581,0.03973l-0.11458,0.04272l-0.05814,0.00502l-0.05316,0.0269l-0.33615,0.06832l-0.10624,-0.00776l-0.00401,0.00148l-0.18563,0.01595l-0.18519,0.02142l-0.02237,-0.00357l-0.0232,0.00198l-0.00678,-0.00682l-0.02866,-0.00457l-0.14455,0.00896l-0.11844,0.02406l-0.12996,-0.00951l-0.12956,0.01498l-0.24414,-0.03908l-0.0387,0.00788l-0.12997,-0.00951l-0.12955,0.01497l-0.03027,-0.00485l-0.0387,0.00787l-0.0317,-0.00231l-0.02987,0.01213l-0.22155,0.0256l-0.09875,-0.0158l-0.09923,0.01146l-0.19067,-0.0305l-0.03869,0.00788l-0.03171,-0.00231l-0.02988,0.01213l-0.22154,0.0256l-0.09875,-0.0158l-0.09923,0.01146l-0.45532,-0.07284l-0.1949,0.01208l-0.07925,-0.017l-0.08028,0.00928l-6.57736,-1.05249l-0.12063,-0.05503l-0.12713,-0.03164l-0.30556,-0.17101l-0.01759,-0.0169l-0.04898,-0.00782l-0.0082,0.0044l-0.02178,-0.00918l-0.02236,-0.00357l-0.17241,-0.07863l-0.1742,-0.07353l-0.01856,-0.01441l-0.02156,-0.00983l-0.00335,-0.00947l-0.05584,-0.0433l-0.2754,-0.35126l0.03443,-0.44403l-0.00053,-0.00148l0.00072,-0.00105l0.02147,-0.27682c-0.18852,-0.09635 -0.33508,-0.26981 -0.41249,-0.47989z" fill="url(#color-3)" stroke="none" stroke-width="0.5" stroke-linecap="butt"/><path d="M191.87985,111.12012l-0.00969,-0.00665l-0.0047,-0.02411c-0.05305,-0.11932 -0.08132,-0.2546 -0.07749,-0.39714l0.00749,-0.27873l0.02499,-0.09913l0.00275,-0.10296l0.03081,-0.12218l0.01659,-0.61811l-0.03341,-0.33281l0.00715,-0.05967l-0.01148,-0.05882l0.00021,-0.00742l-0.00706,-0.02439l-0.05105,-0.09603l-0.03006,-0.11197l-0.21182,-0.5119l-0.0101,-0.05915l-0.02753,-0.05174l-0.06187,-0.23052l-0.04215,-0.07557l-0.03077,-0.10633l-0.05105,-0.09603l-0.136,-0.50677l-0.0056,-0.13432l-0.02563,-0.13137l0.00172,-0.0643l-0.02421,-0.12405l0.00275,-0.10296l-0.01964,-0.10064l0.00085,-0.03153l-0.01044,-0.03891l-0.0056,-0.13432l-0.02564,-0.1314l0.02843,-1.05924l0.02499,-0.09911l0.00276,-0.10296l0.0308,-0.12218l0.00622,-0.23153l0.02499,-0.09913l0.00276,-0.10296l0.05097,-0.20217l0.05329,-0.25767l0.0215,-0.04708l0.00504,-0.05258l0.09258,-0.28225l0.04681,-0.22629l0.02149,-0.04708l0.00504,-0.05258l0.0884,-0.26954l0.04742,-0.26841l0.0476,-0.11308l0.02748,-0.12112l0.12551,-0.26099l0.08903,-0.3128l0.03678,-0.06665l0.01722,-0.07591l0.45015,-0.93605l0.19893,-0.60648l0.04626,-0.07623l0.02633,-0.08729l0.12459,-0.21729l0.08322,-0.21392l0.03689,-0.0537l0.01937,-0.0642l0.15694,-0.27371l0.02857,-0.03013l0.01631,-0.03995l0.09376,-0.13148l0.17477,-0.44933l0.01934,-0.02814l0.00781,-0.03438l0.55577,-1.15569l0.12632,-0.38509l0.10502,-0.55171l0.02808,-0.06421l0.00853,-0.07087l0.17987,-0.50566l0.0546,-0.5038l0.01452,-0.04245l-0.00072,-0.04544l0.11188,-0.54101l0.10886,-0.61611l0.06268,-0.65431l0.05176,-1.9285l-0.02898,-0.40112l-0.07429,-0.38073l-0.08612,-0.38008l-0.00003,-0.0143l-0.00568,-0.01282l-0.03301,-0.16919l-0.07473,-0.22877l-0.00236,-0.025l-0.01149,-0.02162l-0.06188,-0.23052l-0.04214,-0.07555l-0.01642,-0.05674l-0.01186,-0.00309l-0.04911,-0.09238l-0.07103,-0.07239l-0.00144,-0.06394l-0.07543,-0.14184l-0.00598,-0.02233l-0.00062,-0.00122l-0.05357,-0.05788l-0.09515,-0.17059l-0.03077,-0.10633l-0.03116,-0.05862l-0.08677,-0.10309l-0.05872,-0.11734l-0.07545,-0.10471l-0.04683,-0.11316l-0.00556,-0.0326l-0.09866,-0.10053l-0.00094,-0.04172l-0.03832,-0.05317l-0.04683,-0.11317l-0.07225,-0.42352l0.11907,-0.18738l0.01755,-0.22909l0.29996,-0.27064l0.05686,-0.02945l0.00438,-0.00799l0.02097,-0.00513l0.01892,-0.0098l0.16875,-0.03604l0.16785,-0.04102l0.02083,0.00069l0.02109,-0.00451l0.00685,0.00547l1.25503,0.04215l0.39697,-0.03591l0.33863,-0.04256l0.05335,0.00798l0.05256,-0.01286l0.25676,0.00864l0.11085,-0.02708l0.09199,0.00312l0.08993,-0.02199l0.09965,0.00335l0.08857,0.02796l0.09199,0.00312l0.1978,0.06245l0.07145,0.04577l0.0798,0.02268l0.10948,0.06591l0.05215,-0.01403l0.08086,0.05805l0.09245,0.02919l0.02685,0.05647l0.12368,0.08878l0.05655,0.02323l0.08261,0.06281l0.09298,0.04072l0.14647,0.11652l0.04841,0.06332l0.06268,0.04501l0.0459,0.05453l0.08614,0.06853l0.04842,0.0633l0.06267,0.04501l0.09665,0.11483l0.03638,0.07271l0.05358,0.05788l0.01599,0.02867l0.02459,0.01954l0.04841,0.06332l0.06268,0.04501l0.09665,0.11483l0.03638,0.07271l0.05358,0.05788l0.17931,0.32147l0.41849,0.66507l0.03555,0.10299l0.05534,0.09141l0.05822,0.17817l0.08656,0.13752l0.03555,0.10301l0.05535,0.0914l0.08148,0.24942l0.06854,0.16562l0.12795,0.25574l0.02161,0.0889l0.04208,0.07919l0.03006,0.11198l0.07133,0.17239l0.01545,0.09049l0.03655,0.08255l0.21306,1.09198l0.03707,0.13815l0.00139,0.03277l0.01303,0.02941l0.08155,0.41796l0.03709,0.13815l0.0056,0.13434l0.02564,0.13139l-0.00323,0.12006l0.02421,0.12406l-0.00055,0.02039l0.00732,0.01868l0.04234,0.28043l-0.00095,0.0138l0.00458,0.01286l0.02997,0.24653l0.06442,0.19716l0.00728,0.07697l0.02772,0.07091l0.04234,0.28042l-0.00094,0.0138l0.00458,0.01286l0.03295,0.27112l0.0738,0.27498l0.0028,0.0663l0.022,0.06164l0.03295,0.27112l0.0738,0.27496l0.00221,0.05282l0.01893,0.04842l0.0346,0.22903l0.07728,0.28799l0.00139,0.03277l0.013,0.0294l0.03302,0.1692l0.04079,0.12484l0.31202,0.49583l0.11131,0.0994l0.05756,0.08432l0.07366,0.06684l0.16692,0.24839l0.7084,0.84173l0.15326,0.13687l0.06454,0.09454l0.08045,0.07774l0.1129,0.1794l0.20519,0.24383l0.03638,0.07271l0.05358,0.05788l0.02735,0.04904l0.0947,0.08455l0.07686,0.11256l0.09107,0.09837l0.19033,0.3412l0.01455,0.05028l0.02965,0.04115l0.06534,0.15789l0.10467,0.16634l0.02449,0.07095l0.04267,0.05921l0.09366,0.22633l0.00595,0.03487l0.01779,0.0294l0.0815,0.24943l0.17424,0.42111l0.00595,0.03487l0.01779,0.0294l0.0815,0.24942l0.0806,0.19476l0.00595,0.03487l0.01779,0.0294l0.09216,0.28208l0.00541,0.05723l0.02282,0.05157l0.02009,0.10304l0.08763,0.17513l0.0216,0.0889l0.0421,0.07919l0.09067,0.33786l0.00276,0.06627l0.022,0.06161l0.02872,0.23632l0.10602,0.3015l0.01363,0.11661l0.03497,0.11091l0.03243,0.38341l0.07503,0.33106l0.00016,0.0579l0.01809,0.05427l0.07773,0.77415l0.03968,0.32653l-0.00685,0.0695l0.01333,0.06832l-0.03291,1.22646l-0.02022,0.08022l0.0013,0.0833l-0.05731,0.27706l-0.0215,0.04706l-0.00504,0.05258l-0.06682,0.2037l-0.00384,0.14305l-0.00817,0.03238l0.01063,0.02572l-0.06139,0.17547l-0.04572,0.18136l-0.02237,0.01332l-0.01096,0.03134l-0.02909,0.04577l-0.02065,0.08184l-0.06357,0.12427l-0.04662,0.13333l-0.04611,0.0726l-0.01982,0.0604l-0.05612,0.09244l-0.03639,0.10405l-0.07717,0.12147l-0.03077,0.06394l-0.08092,0.09943l-0.0649,0.11319l-0.45927,0.48395l-0.13839,0.21784l-0.08356,0.17376l-0.04111,0.0505l-0.0032,0.04158l-0.05478,0.04942l-0.00507,0.02239l-0.00988,0.02053l-0.00585,0.02313l-0.00739,0.0044l-0.18814,0.39121l-0.04111,0.0505l-0.0032,0.04156l-0.11537,0.10409l-0.03767,0.04629l-0.00091,0.01183l-0.03283,0.0296l-0.02838,0.03489l-0.01061,0.0003l-0.04356,0.03929l-0.03767,0.04629l-0.00092,0.01183l-0.03282,0.0296l-0.02838,0.03489l-0.01061,0.0003l-0.04357,0.03929l-0.09978,0.12261l-0.03729,0.00105l-0.04751,0.04289l-0.10113,0.05242l-0.05286,0.01129l-0.04623,0.03078l-0.30194,0.10145l-0.09813,0.00514l-0.00354,0.00182l-0.16875,0.03606l-0.16784,0.04101l-0.02083,-0.00069l-0.0211,0.00452l-0.00683,-0.00546l-0.02671,-0.0009l-0.13171,0.02489l-0.10638,0.03575l-0.12006,0.00628l-0.11742,0.02867l-0.22748,-0.00763l-0.03476,0.01167l-0.12006,0.00628l-0.11741,0.02868l-0.02819,-0.00095l-0.03476,0.01168l-0.02928,0.00154l-0.02627,0.01455l-0.20078,0.04905l-0.09199,-0.00312l-0.08993,0.02199l-0.17766,-0.00599l-0.03476,0.01168l-0.02928,0.00154l-0.02627,0.01457l-0.20077,0.04907l-0.09199,-0.00312l-0.08993,0.02197l-0.42422,-0.01425l-0.1776,0.03359l-0.07424,-0.00649l-0.07275,0.01778l-6.12808,-0.20587l-0.11567,-0.03651l-0.1195,-0.01432l-0.29593,-0.12154l-0.0177,-0.01343l-0.04566,-0.00154l-0.00712,0.00499l-0.02082,-0.00592l-0.02083,-0.00069l-0.16533,-0.05221l-0.1665,-0.04731l-0.01834,-0.01106l-0.02067,-0.00651l-0.00394,-0.0083l-0.05518,-0.03324l-0.28491,-0.2903l-0.00936,-0.4111l-0.00062,-0.0013l0.00057,-0.00105l-0.00585,-0.25631c-0.18173,-0.06656 -0.33211,-0.20873 -0.42246,-0.39239z" fill="url(#color-4)" stroke="none" stroke-width="0.5" stroke-linecap="butt"/><path d="M284.86814,139.73084l-40.21096,79.08879l-4.54253,-78.07898z" data-paper-data="{&quot;index&quot;:null}" fill-opacity="0.00392" fill="#ffffff" stroke="url(#color-5)" stroke-width="2.5" stroke-linecap="butt"/><path d="M175.80342,238.27575l72.11379,0.15069c0,0 8.88757,0.96743 8.65584,6.03859c-0.2293,5.01845 -8.74821,5.65819 -8.74821,5.65819c0,0 -23.67839,1.44753 -35.90261,1.42199c-11.79863,-0.02465 -36.21117,-1.57268 -36.21117,-1.57268c0,0 -7.53466,-0.7806 -7.72468,-5.86463c-0.19379,-5.18427 7.81705,-5.83216 7.81705,-5.83216z" fill="url(#color-6)" stroke="url(#color-7)" stroke-width="0.5" stroke-linecap="butt"/><path d="M259.61354,240.42098c0,7.10728 -21.19185,6.83333 -47.33333,6.83333c-26.14148,0 -47.33333,0.27395 -47.33333,-6.83333c0,-7.44061 21.19185,-6.83333 47.33333,-6.83333c26.14148,0 47.33333,0.39272 47.33333,6.83333z" fill="#302d29" stroke="url(#color-8)" stroke-width="0" stroke-linecap="butt"/><path d="M262.58295,154.30377l9.95328,9.08292" fill="none" stroke="#666666" stroke-width="5" stroke-linecap="round"/><path d="M249.64492,161.31013l15.89826,14.36757" fill="none" stroke="#666666" stroke-width="5" stroke-linecap="round"/><path d="M259.12883,188.32113l-22.72038,-20.19674" fill="none" stroke="#666666" stroke-width="5" stroke-linecap="round"/><path d="M223.43666,175.64435l28.41816,25.02645" fill="none" stroke="#666666" stroke-width="5" stroke-linecap="round"/><path d="M212.77407,180.49874l72.42883,-41.4949l-38.99216,77.52237" fill="none" stroke="url(#color-9)" stroke-width="5" stroke-linecap="round"/><path d="M293.32573,145.71947c-2.82489,5.77427 -9.87389,8.12704 -15.7444,5.25508c-5.8705,-2.87197 -8.33947,-9.88113 -5.51458,-15.6554c2.82489,-5.77427 9.87389,-8.12704 15.7444,-5.25508c5.8705,2.87197 8.33947,9.88113 5.51458,15.6554z" fill="url(#color-10)" stroke="url(#color-11)" stroke-width="2.5" stroke-linecap="butt"/><path d="M180.84943,222.60346v-75.27368c0,0 20.78146,0 31.31541,0c10.72844,0 32.48244,0 32.48244,0v75.27368c0,0 -9.62345,3.59201 -31.89343,4.0077c-23.38487,0.4365 -31.90442,-4.0077 -31.90442,-4.0077z" fill="url(#color-12)" stroke="none" stroke-width="0" stroke-linecap="butt"/><path d="M180.46042,147.89313v-16.70732h63.79785v16.70732c0,0 -8.65642,3.97004 -30.9264,4.0623c-23.38487,0.09688 -32.87145,-4.0623 -32.87145,-4.0623z" fill="url(#color-13)" stroke="none" stroke-width="0" stroke-linecap="butt"/><path d="M244.84178,131.47757c0,3.06154 -14.36872,4.94341 -32.09343,4.94341c-17.72472,0 -32.09343,-1.88187 -32.09343,-4.94341c0,-3.06154 14.36872,-5.54341 32.09343,-5.54341c17.72472,0 32.09343,2.48187 32.09343,5.54341z" fill="url(#color-14)" stroke="none" stroke-width="0" stroke-linecap="butt"/><path d="M186.56196,131.38907c0,0 0.27112,-6.54174 1.08146,-10.38605c0.29678,-1.4079 3.60741,-2.65864 4.23461,-4.72813c0.29398,-0.96999 -0.66442,-1.54737 -0.67958,-2.5304c-0.03995,-2.59045 0.59052,-2.2484 0.59052,-2.2484l13.64254,0.0315c0,0 0.31754,-0.81958 0.46052,2.21683c0.03381,0.71821 -1.08238,1.87498 -0.87495,2.60522c0.49979,1.75943 3.90032,3.36172 4.17494,4.59322c0.84008,3.76741 1.54074,10.44624 1.54074,10.44624c0,0 -5.88996,1.71443 -12.02652,1.59251c-5.96994,-0.11861 -12.14423,-1.59251 -12.14423,-1.59251z" fill="url(#color-15)" stroke="none" stroke-width="0" stroke-linecap="butt"/><path d="M225.85704,140.19434c6.00707,0.00627 12.82367,-0.03542 12.82367,-0.03542c0,0 8.70302,-0.31469 8.77925,8.84478c-0.32504,8.96069 -8.8305,9.46415 -8.8305,9.46415c0,0 -7.78529,0.17075 -12.81027,0.1655c-7.24042,-0.00756 -13.00714,-1.3829 -13.09101,-9.23319c-0.08752,-8.19256 5.88844,-9.21338 13.12884,-9.20582z" fill="url(#color-16)" stroke="none" stroke-width="0" stroke-linecap="butt"/><path d="M237.92665,149.5338c0,-5.38083 2.13255,-9.74286 4.76318,-9.74286c2.63063,0 4.76318,4.36202 4.76318,9.74286c0,5.38083 -2.13255,9.74286 -4.76318,9.74286c-2.63063,0 -4.76318,-4.36202 -4.76318,-9.74286z" fill="url(#color-17)" stroke="url(#color-18)" stroke-width="1.5" stroke-linecap="butt"/><path d="M245.94711,210.93567c0,12.43105 0.17643,26.53718 0.17643,26.53718c0,0 0.11245,4.45869 -32.99656,4.65536c-32.39201,-0.63457 -33.18606,-4.68364 -33.18606,-4.68364c0,0 -0.6466,-16.11016 -0.6466,-26.50889c0,-14.98335 4.94977,-26.92288 33.3264,-27.12975c29.61384,-0.2159 33.3264,12.1464 33.3264,27.12975z" fill="url(#color-19)" stroke="none" stroke-width="0" stroke-linecap="butt"/><path d="M236.82403,221.34028c0,8.69916 0.12509,19.25116 0.12509,19.25116c0,0 -0.06314,1.69914 -23.53545,1.83676c-22.96399,-0.44407 -23.58558,-1.90333 -23.58558,-1.90333c0,0 -0.25689,-11.90764 -0.25689,-19.18459c0,-10.48524 3.50909,-18.84043 23.62642,-18.9852c20.99444,-0.15109 23.62642,8.49996 23.62642,18.9852z" fill="url(#color-20)" stroke="none" stroke-width="0" stroke-linecap="butt"/><g><path d="M293.96617,169.87551l-22.33142,-58.3921" fill="none" stroke="url(#color-21)" stroke-width="3.5" stroke-linecap="round"/><path d="M311.54224,129.51155l-57.48355,22.33582" fill="none" stroke="url(#color-22)" stroke-width="3.5" stroke-linecap="round"/><path d="M270.66851,169.26096l24.26384,-57.16296" fill="none" stroke="url(#color-23)" stroke-width="3.5" stroke-linecap="round"/><path d="M311.09597,153.46308l-56.59101,-25.56719" fill="none" stroke="url(#color-24)" stroke-width="3.5" stroke-linecap="round"/><path d="M252.75338,152.40153c-6.46835,-16.58033 1.74055,-35.26946 18.3351,-41.74336c16.59456,-6.47392 35.29073,1.71894 41.75907,18.29928c6.46835,16.58033 -1.74056,35.26947 -18.33509,41.74337c-16.59456,6.47392 -35.29073,-1.71894 -41.75908,-18.29929z" fill="none" stroke="url(#color-25)" stroke-width="3.5" stroke-linecap="butt"/><path d="M276.29209,143.21853c-1.38805,-3.55802 0.40059,-7.57912 3.99507,-8.98141c3.59447,-1.40229 7.63361,0.34527 9.02168,3.90329c1.38805,3.55802 -0.40059,7.57912 -3.99506,8.98142c-3.59447,1.40229 -7.63363,-0.34526 -9.0217,-3.90327z" fill="url(#color-26)" stroke="url(#color-27)" stroke-width="1" stroke-linecap="butt"/></g><path d="M261.38764,146.87773l-17.11795,2.5122" fill="none" stroke="url(#color-28)" stroke-width="6" stroke-linecap="round"/><path d="M271.92882,145.14202c0.99596,6.27081 -2.03767,4.64036 -5.39865,5.19084c-3.36099,0.55049 -6.14344,-0.92355 -6.60805,-3.22431c-0.89406,-4.4276 2.47437,-4.03632 5.83534,-4.58682c3.36099,-0.55049 5.176,-3.64665 6.17135,2.6203z" fill="url(#color-29)" stroke="url(#color-30)" stroke-width="0" stroke-linecap="butt"/></g></g></svg>