<svg version="1.1" xmlns="http://www.w3.org/2000/svg" xmlns:xlink="http://www.w3.org/1999/xlink" width="488" height="440.13803" viewBox="0,0,488,440.13803"><defs><radialGradient cx="239.76178" cy="177.81006" r="244" gradientUnits="userSpaceOnUse" id="color-1"><stop offset="0" stop-color="#121212"/><stop offset="1" stop-color="#868686"/></radialGradient><radialGradient cx="240.00005" cy="180" r="173.5" gradientUnits="userSpaceOnUse" id="color-2"><stop offset="0" stop-color="#000000"/><stop offset="1" stop-color="#000000" stop-opacity="0"/></radialGradient><radialGradient cx="237.93829" cy="318.1666" r="116.49049" gradientUnits="userSpaceOnUse" id="color-3"><stop offset="0" stop-color="#33266a"/><stop offset="1" stop-color="#949074"/></radialGradient><linearGradient x1="242.7439" y1="206.71003" x2="247.12426" y2="240.06435" gradientUnits="userSpaceOnUse" id="color-4"><stop offset="0" stop-color="#5fa5c2"/><stop offset="1" stop-color="#7fff7d"/></linearGradient><radialGradient cx="217.12983" cy="96.63091" r="64.41492" gradientUnits="userSpaceOnUse" id="color-5"><stop offset="0" stop-color="#ffa8a8"/><stop offset="1" stop-color="#ffed7d"/></radialGradient><radialGradient cx="232.39258" cy="141.39011" r="13.70696" gradientUnits="userSpaceOnUse" id="color-6"><stop offset="0" stop-color="#daffe3"/><stop offset="1" stop-color="#0c1a0f"/></radialGradient><radialGradient cx="266.89257" cy="159.89011" r="16.12716" gradientUnits="userSpaceOnUse" id="color-7"><stop offset="0" stop-color="#5f6471"/><stop offset="1" stop-color="#171d2c"/></radialGradient><radialGradient cx="291.89257" cy="138.39011" r="13.22358" gradientUnits="userSpaceOnUse" id="color-8"><stop offset="0" stop-color="#ffd0d0"/><stop offset="1" stop-color="#2a0000"/></radialGradient><linearGradient x1="152.94967" y1="122.69101" x2="184.01515" y2="136.95526" gradientUnits="userSpaceOnUse" id="color-9"><stop offset="0" stop-color="#694444"/><stop offset="1" stop-color="#98a1b9"/></linearGradient><radialGradient cx="41.83189" cy="93.82899" r="65.45502" gradientUnits="userSpaceOnUse" id="color-10"><stop offset="0" stop-color="#dcdcdc"/><stop offset="1" stop-color="#a0a0a0"/></radialGradient><radialGradient cx="81.46813" cy="81.9112" r="46.28026" gradientUnits="userSpaceOnUse" id="color-11"><stop offset="0" stop-color="#d1ffc4"/><stop offset="1" stop-color="#2188ff"/></radialGradient><radialGradient cx="81.46813" cy="81.9112" r="46.28026" gradientUnits="userSpaceOnUse" id="color-12"><stop offset="0" stop-color="#ceffc4"/><stop offset="1" stop-color="#ff21cc"/></radialGradient><radialGradient cx="81.46813" cy="81.9112" r="46.28026" gradientUnits="userSpaceOnUse" id="color-13"><stop offset="0" stop-color="#ffe9c4"/><stop offset="1" stop-color="#4fff21"/></radialGradient><radialGradient cx="81.46813" cy="81.9112" r="46.28026" gradientUnits="userSpaceOnUse" id="color-14"><stop offset="0" stop-color="#ffe9c4"/><stop offset="1" stop-color="#4fff21"/></radialGradient><radialGradient cx="81.46809" cy="81.91127" r="46.28024" gradientUnits="userSpaceOnUse" id="color-15"><stop offset="0" stop-color="#ffe9c4"/><stop offset="1" stop-color="#ffa321"/></radialGradient><radialGradient cx="81.46806" cy="81.91131" r="46.28024" gradientUnits="userSpaceOnUse" id="color-16"><stop offset="0" stop-color="#c4f0ff"/><stop offset="1" stop-color="#3d21ff"/></radialGradient><radialGradient cx="30.20871" cy="102.90668" r="50.24886" gradientUnits="userSpaceOnUse" id="color-17"><stop offset="0" stop-color="#1c2f30"/><stop offset="1" stop-color="#142913"/></radialGradient><radialGradient cx="63.86005" cy="26.49829" r="13.22632" gradientUnits="userSpaceOnUse" id="color-18"><stop offset="0" stop-color="#786c41"/><stop offset="1" stop-color="#141a29"/></radialGradient><radialGradient cx="41.04206" cy="78.38679" r="20.82216" gradientUnits="userSpaceOnUse" id="color-19"><stop offset="0" stop-color="#7ba676"/><stop offset="1" stop-color="#291616"/></radialGradient></defs><g transform="translate(4.23828,5.18993)"><g data-paper-data="{&quot;isPaintingLayer&quot;:true}" fill-rule="nonzero" stroke-linecap="butt" stroke-linejoin="miter" stroke-miterlimit="10" stroke-dasharray="" stroke-dashoffset="0" style="mix-blend-mode: normal"><path d="M-4.23828,360.81007v-366h488v366z" fill="url(#color-1)" stroke="none" stroke-width="0"/><path d="M413.5,180c0,97.7544 -77.6786,177 -173.5,177c-95.8214,0 -173.5,-79.2456 -173.5,-177c0,-97.7544 77.6786,-177 173.5,-177c95.8214,0 173.5,79.2456 173.5,177z" fill="url(#color-2)" stroke="none" stroke-width="0"/><path d="M160.25243,434.36546l0.87834,-232.97929l154.49348,0.58264l-0.87834,232.97929z" data-paper-data="{&quot;index&quot;:null}" fill="url(#color-3)" stroke="#ed6b00" stroke-width="0"/><path d="M361.08542,256.2412c-13.95313,-0.73375 -31.61331,-2.04167 -31.61331,-2.04167c0,0 -34.54472,-3.36509 -34.92389,-8.65822c-2.21921,-30.95646 35.35485,-19.97221 35.35485,-19.97221c0,0 26.82343,1.43337 41.65865,2.2129c8.91459,1.16789 2.81164,28.72587 -10.47627,28.45916z" data-paper-data="{&quot;index&quot;:null}" fill="#a3bda9" stroke="#000000" stroke-width="0"/><g><path d="M228.48725,242.5119l-4.38035,-33.35423l37.2739,-4.89511l4.38035,33.35423z" fill="url(#color-4)" stroke="#000000" stroke-width="0"/><path d="M302.57782,144.27643c1.15825,37.94343 -26.06368,69.56234 -60.80191,70.62275c-34.73819,1.06041 -63.8381,-28.83915 -64.99636,-66.78266c-1.15825,-37.94348 26.06372,-69.56234 60.80196,-70.62275c34.73815,-1.06041 63.83806,28.83915 64.99631,66.78267z" fill="url(#color-5)" stroke="none" stroke-width="0"/><path d="M234.24021,154.93526c-2.50656,4.56413 -7.13506,2.1034 -7.13506,2.1034c-4.67209,-2.5948 -12.48175,-5.39491 -11.96181,-12.87968c0.42489,-6.11682 10.39255,-11.81263 15.78488,-10.83296c9.78211,1.7772 18.67383,18.83841 3.31207,21.60924z" data-paper-data="{&quot;index&quot;:null}" fill="url(#color-6)" stroke="none" stroke-width="0.5"/><path d="M257.0938,176.41599c0.6539,-2.32212 2.30108,-2.87228 3.52687,-2.93738c0.38889,-0.03601 0.78833,-0.01594 1.18741,0.06639c-1.57584,-5.26582 -0.89405,-12.15203 -2.76053,-17.23739c0,0 -1.37318,-3.81193 2.43876,-5.18519c3.8119,-1.37313 5.18515,2.4388 5.18515,2.4388c2.25503,6.35973 4.01183,14.21829 4.0846,21.08007c0.02731,2.57134 1.45218,6.00343 -0.48065,7.6995c-2.00564,1.75997 -5.33394,-0.17113 -8.00098,-0.25671l-2.37873,-0.66982c-0.49303,-0.13881 -0.93874,-0.36294 -1.32595,-0.65208c-1.01167,-0.69505 -2.12977,-2.02393 -1.47587,-4.34605z" data-paper-data="{&quot;index&quot;:null}" fill="url(#color-7)" stroke="none" stroke-width="0.5"/><path d="M291.1509,132.11765c7.90861,2.00089 15.22634,20.50137 2.85304,23.36571c-1.98457,4.90829 -5.7402,2.21218 -5.7402,2.21218c-3.79187,-2.84138 -10.11739,-5.93054 -9.76022,-14.00987c0.29187,-6.60261 8.28781,-12.67099 12.64741,-11.56801z" data-paper-data="{&quot;index&quot;:null}" fill="url(#color-8)" stroke="none" stroke-width="0.5"/></g><g><path d="M156.29273,151.42525l-12.57784,-9.21934l17.20497,-36.87309l13.41112,6.80984c0,0 -4.67008,27.77306 -7.38462,35.46825c-2.38229,6.75328 -10.65362,3.81432 -10.65362,3.81432z" data-paper-data="{&quot;index&quot;:null}" fill="url(#color-9)" stroke="#000000" stroke-width="0"/><path d="M123.81508,37.59977c35.05513,16.09656 51.52718,55.16184 36.79073,87.25586c-14.73636,32.09419 -55.10043,45.0632 -90.15622,28.96642c-35.05514,-16.09655 -51.52716,-55.16182 -36.79061,-87.25606c14.73636,-32.09419 55.10043,-45.0632 90.15622,-28.96643z" data-paper-data="{&quot;index&quot;:null}" fill="url(#color-10)" stroke="none" stroke-width="0"/><g data-paper-data="{&quot;index&quot;:null}" stroke="#ed6b00" stroke-width="0"><path d="M141.98262,96.01001c-21.13615,46.01199 -50.32811,35.96853 -66.83447,27.21435c-16.50605,-8.75442 -16.39837,-42.53464 -4.52692,-65.16017c11.87146,-22.62549 39.06988,-35.02984 55.57593,-26.2756c0,0 39.66388,13.58174 15.78511,64.22128z" data-paper-data="{&quot;index&quot;:null}" fill="url(#color-11)"/><path d="M141.9826,96.00993c-16.84296,36.66592 -38.8014,37.73583 -55.37973,32.22786c10.43904,-0.61632 20.06793,-6.26295 25.00808,-15.84023c7.6793,-14.88761 1.1206,-33.63537 -14.64927,-41.87434c-10.50832,-5.49009 -22.45502,-4.92861 -31.52931,0.46214c1.33961,-4.52407 3.07832,-8.89892 5.18877,-12.92119c3.61853,-6.89644 8.66107,-12.84326 14.39076,-17.53073c11.32625,1.70226 22.67834,-2.59914 29.33519,-11.56572c4.27113,0.03749 8.3069,0.94165 11.85002,2.82084c0,0 1.60605,0.54994 3.9772,1.84115c-2.02284,2.03562 -3.76515,4.40075 -5.1428,7.07158c-7.6793,14.88759 -1.1206,33.63537 14.64927,41.87434c2.16861,1.13302 4.39852,2.00825 6.65177,2.63656c-1.12054,3.39666 -2.55606,6.99256 -4.35036,10.7977z" data-paper-data="{&quot;index&quot;:null}" fill="url(#color-12)"/><path d="M70.62119,58.06414c4.043,-7.7054 9.86364,-14.22537 16.43422,-19.12774c2.42558,2.72014 5.34923,5.10147 8.7184,6.99364c-9.48161,1.28871 -18.01688,6.77667 -22.5697,15.60308c-7.67929,14.88757 -1.12058,33.63539 14.64926,41.87437c10.57229,5.52349 22.60054,4.92153 31.69474,-0.56116c1.12152,5.68475 3.85191,11.10639 7.95011,15.57599c-3.75284,3.91114 -7.59679,6.7186 -11.44881,8.65207c-3.00215,-6.0959 -7.99741,-11.40304 -14.61435,-14.86008c-11.71592,-6.12101 -25.21988,-4.71964 -34.53748,2.51018c-7.69065,-13.9607 -5.65289,-38.78984 3.72361,-56.66026z" data-paper-data="{&quot;index&quot;:null}" fill="url(#color-13)"/><path d="M132.94795,72.22362c-1.76832,-8.9629 -7.53591,-17.27177 -16.35818,-22.22635c8.04229,-1.09302 15.40376,-5.20729 20.23165,-11.81732c6.38416,5.39803 13.20459,14.69251 12.79092,29.62821c-5.95057,-0.09237 -11.73797,1.4454 -16.6644,4.41545z" data-paper-data="{&quot;index&quot;:null}" fill="url(#color-14)"/><path d="M118.1517,90.53497c-0.37692,-0.30949 -2.9913,-0.12498 -3.76279,-0.15259c-9.41341,-0.33658 -18.91296,-1.89824 -28.24202,-1.14523c-0.88129,0.07112 -1.85046,3.01376 -2.57509,4.20603c-4.43762,7.30152 -9.9193,14.04562 -13.38431,21.86133c-0.44366,1.00076 -0.60083,2.16975 -0.51906,3.46535c-4.59199,-5.38339 -6.98178,-13.5809 -7.41711,-22.74502c9.64784,-1.18259 18.36724,-6.70131 22.98669,-15.65697c5.96299,-11.56029 3.34108,-25.44813 -5.51222,-34.93591c8.32804,-8.73202 19.01495,-14.50279 29.05481,-16.04867c-4.24552,2.67876 -7.81686,6.44278 -10.25039,11.16064c-7.6793,14.88759 -1.1206,33.63538 14.64927,41.87434c3.91232,2.04398 8.02406,3.24918 12.11271,3.67862c-0.59498,4.56079 -0.09826,9.19794 1.3708,13.57c-3.09106,-3.94808 -6.13938,-7.18453 -8.51117,-9.13198z" data-paper-data="{&quot;index&quot;:null}" fill="url(#color-15)"/><path d="M141.98259,96.0101c-21.13615,46.01199 -50.3281,35.96853 -66.83447,27.21435c-0.7175,-0.38052 -1.40361,-0.80839 -2.05876,-1.28052c5.3767,2.63698 11.91865,3.77461 16.86558,4.01723c0.51128,0.02507 1.02592,0.0392 1.5437,0.04253c13.06407,3.39841 26.80518,-1.44887 33.87473,-12.45835c8.77786,-6.60531 15.68577,-15.23742 18.16416,-24.3918c4.27424,-15.78771 9.02612,-29.50511 -14.64927,-41.87434c-9.59204,-5.01138 -21.85152,-2.4346 -31.9369,0.42494c-5.87904,1.6669 -6.35605,10.55894 -11.55056,13.60838c-6.41354,-0.46737 -12.7233,0.96595 -18.0671,4.05556c0.96758,-2.52649 2.06511,-4.97426 3.28742,-7.30375c4.39302,-8.3726 10.88495,-15.34551 18.15717,-20.36452c0.39723,0.22804 0.80079,0.44923 1.21051,0.66328c13.31222,6.955 28.93288,4.19815 38.09777,-5.78565c1.84984,0.85612 4.84644,2.45492 8.02433,5.01607c0.56204,9.12535 5.28891,17.99583 13.22726,23.88655c1.05886,8.91336 -0.62131,20.24779 -7.356,34.52995z" data-paper-data="{&quot;index&quot;:null}" fill="url(#color-16)"/></g><g data-paper-data="{&quot;index&quot;:null}"><path d="M37.89452,91.90028c-0.41932,0.74059 -1.46905,2.6645 -2.47677,4.83359c-0.6325,2.72983 -1.50172,5.82594 -1.88405,8.39225c2.83943,3.72259 9.64707,1.90796 8.29149,9.71791c-2.31339,13.31984 -13.23995,1.24477 -15.00536,-4.94983c-0.92641,-8.35612 3.85236,-16.41427 7.1643,-23.9054c4.56217,-10.31834 8.0182,-21.05907 13.70812,-30.44315c-0.11913,-0.58363 -0.03531,-1.21065 0.28143,-1.76897l1.44935,-2.55392c0.52096,-1.43232 1.10095,-2.97863 1.74587,-4.57867c1.36752,-4.37236 3.7808,-9.10214 6.19465,-13.3939c0.98139,-2.24495 2.08266,-4.22275 3.28145,-5.65822c0.6952,-1.18064 1.34141,-2.2795 1.90333,-3.27109l1.52735,-2.69233c0.69575,-1.22613 2.25316,-1.65632 3.48008,-0.96062c1.09148,0.61949 1.55215,1.92146 1.15037,3.0648l-0.53689,1.62958c0.91171,-0.24807 1.85729,-0.39177 2.83659,-0.41689l0.17646,-1.29895l3.24602,0.44276c0.33209,0.03766 0.66273,0.14118 0.97223,0.31643c1.22613,0.69575 1.65634,2.25316 0.96063,3.48009c-0.21133,0.37277 -0.50307,0.6731 -0.84039,0.88905l-2.2562,1.51416l-0.04442,-0.06656l-0.1513,0.18552c-1.94664,0.84874 -3.68598,1.87988 -5.20001,3.06438c-1.67236,2.23753 -3.59608,4.47686 -5.50174,6.79797c-2.16813,4.65707 -2.20437,10.20969 0.31055,15.94117c0,0 1.02032,2.33986 -1.31937,3.3605c-2.33987,1.02033 -3.36052,-1.31938 -3.36052,-1.31938c-0.21636,-0.49921 -0.41772,-0.9991 -0.6026,-1.49853l-0.43588,1.42178c-0.05486,0.19228 -0.13332,0.38246 -0.23623,0.56438c-0.69575,1.22613 -2.25316,1.65632 -3.48008,0.96062c-0.62079,-0.35212 -1.03747,-0.92473 -1.20752,-1.56409c-0.69491,1.00667 -1.29762,1.99385 -1.65805,2.93929c-2.51702,6.6037 -8.05912,15.5875 -12.46845,24.62949c1.0209,0.63935 1.4428,1.8981 1.05271,3.00702l-0.97387,2.95331l-0.09557,-0.03154l-0.0133,0.03621z" fill="url(#color-17)" stroke="none" stroke-width="0.5"/><path d="M65.49304,19.39616c6.53409,-11.91692 6.63411,-11.70541 14.75033,-7.38499c8.11602,4.32005 11.56439,12.76156 7.70223,18.85356c-3.86254,6.09186 -13.57398,7.52739 -21.69004,3.20698c-8.11606,-4.32004 -6.88955,-3.50072 -0.76257,-14.67589z" data-paper-data="{&quot;index&quot;:null}" fill="url(#color-18)" stroke="#000000" stroke-width="0"/><path d="M57.67239,54.16396c9.18311,4.19358 12.79096,15.99431 8.05758,26.35727c-4.73242,10.36325 -16.01349,15.36472 -25.19612,11.17092c-9.18313,-4.1936 -9.47355,-4.08302 0.33341,-23.26828c9.19602,-17.99078 7.62158,-18.45306 16.8049,-14.25967z" fill="url(#color-19)" stroke="#000000" stroke-width="0"/></g></g><g data-paper-data="{&quot;index&quot;:null}" stroke-width="0"><path d="M294.72218,399.95812c0,0 -9.41683,2.60817 -16.34674,1.57997c-5.9661,-0.88459 -9.1066,-5.42662 -14.25718,-5.43791c-2.55107,-0.00579 -9.51747,2.51646 -13.12708,2.62171c-4.77536,0.13895 -13.44016,3.86856 -18.41287,3.1592c-6.2213,-0.88678 -8.81206,-6.26697 -15.41093,-6.17634c-14.53055,0.1995 -28.8,4.01986 -28.8,4.01986c0,0 1.11399,-29.81294 -0.1972,-53.79c-1.27161,-23.26373 -4.96149,-40.46454 -5.51716,-56.1754c-0.62782,-17.75666 -0.48394,-65.32681 -0.48394,-65.32681c0,0 21.72426,-2.12502 32.11946,0.2511c9.85177,2.2524 28.70899,13.65354 28.70899,13.65354c0,0 24.60665,-11.7285 36.30975,-14.01141c9.19337,-1.79373 28.21364,1.42453 28.21364,1.42453c0,0 -0.03925,44.90658 -1.81256,69.04977c-0.94465,12.86311 -6.55024,29.8405 -8.57149,48.70113c-2.97476,27.75704 -2.41381,56.45789 -2.41381,56.45789z" fill="#d1b0b0" stroke="#292e32"/><path d="M189.6061,278.45897l0.28277,-26.90828l39.44353,-1.46317l-0.94123,30.03037z" fill="#f200ff" stroke="none"/><path d="M228.79555,267.217c-5.70093,-4.93481 -13.09998,-7.9728 -21.22859,-8.11176c-1.96355,-0.03357 -3.8903,0.10339 -5.76618,0.39718c2.72632,-2.47342 5.04269,-5.39345 6.83222,-8.64713l20.69945,-0.76782z" fill="#eeff00" stroke="none"/><path d="M195.9279,278.72934c1.21163,-3.35948 1.89967,-6.97254 1.96412,-10.74253c0.10265,-6.00583 -1.38994,-11.66769 -4.08716,-16.5814l25.87009,-0.95964c-8.94377,6.68024 -14.50435,17.50653 -14.20686,28.69167z" fill="#00ff5f" stroke="none"/><path d="M195.64873,278.71736c-0.60408,-2.00222 -1.3918,-3.92601 -2.34383,-5.75142c4.8529,-1.47712 9.24257,-4.03358 12.88397,-7.39396c3.87495,6.54599 9.92914,11.66143 17.18158,14.33114l-27.72174,-1.18576z" fill="#004fff" stroke="none"/><path d="M220.83774,279.79475c1.71925,-3.92352 2.70575,-8.24577 2.78355,-12.79665c0.10243,-5.99217 -1.38316,-11.64197 -4.06879,-16.54786l9.78,-0.36276l-0.94123,30.03043z" fill="#ff0000" stroke="none"/><path d="M189.77485,262.40881c3.26643,4.14278 7.49704,7.49525 12.36035,9.71437c0.38161,2.41201 1.02256,4.73956 1.8939,6.95266l-14.42288,-0.61693l0.16865,-16.05015z" fill="#00efff" stroke="none"/><path d="M207.37067,250.90221c-9.65968,5.51866 -16.31304,15.73888 -16.79144,27.59837l-0.97301,-0.04163l0.28275,-26.90829z" fill="#9c00ff" stroke="none"/></g><path d="M136.09817,190.51238c12.85448,8.09578 34.83377,21.7003 34.83377,21.7003c0,0 39.89204,12.21389 17.13071,45.38739c-3.63382,5.2961 -35.5673,-14.46069 -35.5673,-14.46069c0,0 -15.55215,-9.23001 -27.6425,-16.8451c-13.55211,-8.74689 -1.81799,-42.70496 11.2453,-35.78193z" fill="#b8bda6" stroke="#000000" stroke-width="0"/><path d="M94.65563,136.93231c0,0 5.69758,14.9668 18.46795,28.40904c3.07103,3.23266 27.25117,31.1981 30.44431,34.48508c11.68379,13.02044 -20.13271,30.59087 -30.41081,18.02291c-2.75737,-3.28493 -20.82155,-33.927 -27.11478,-43.31431c-10.47795,-15.62903 -18.72097,-23.78177 -18.72097,-23.78177z" data-paper-data="{&quot;index&quot;:null}" fill="#b8bda6" stroke="#000000" stroke-width="0"/><path d="M66.89959,151.89851c1.20089,-0.62852 -10.53808,-16.48509 -5.62836,-19.45002c2.41488,-1.45836 7.11886,10.658 12.74438,12.22539c2.9782,0.82995 -14.10793,-17.65099 -6.52192,-19.55572c2.60402,-0.65389 10.79825,15.52063 15.38765,17.68401c2.45679,1.15778 -15.1807,-22.86281 -10.22752,-24.34657c2.94047,-0.88046 9.44995,14.47187 15.13686,19.59042c2.77091,2.49338 -8.96142,-18.34548 -5.039,-18.85977c2.40075,-0.3147 15.07098,19.29574 15.41709,19.38587c1.94493,0.50721 -1.76236,-13.94454 1.52773,-12.01299c6.06337,3.55927 5.03297,13.14864 4.83557,21.65198c-0.11574,4.9689 3.0517,10.30656 3.0517,10.30656c0,0 -7.43339,7.76616 -12.05413,10.0881c-4.49888,2.26149 -15.3135,3.66641 -15.3135,3.66641c0,0 -15.85985,-19.04241 -13.31639,-20.37306z" data-paper-data="{&quot;index&quot;:null}" fill="#786274" stroke="#000000" stroke-width="0"/><path d="M411.12388,168.99566c0,0 -5.09017,10.09199 -10.63744,27.72027c-3.332,10.58789 -13.24321,46.98712 -14.84844,50.87077c-7.46395,18.09426 -35.65308,9.11114 -28.51222,-5.52954c1.94978,-4.02695 18.47203,-41.04105 20.33397,-44.9791c7.74298,-16.37515 9.62644,-31.85602 9.62644,-31.85602z" data-paper-data="{&quot;index&quot;:null}" fill="#a3bda9" stroke="#000000" stroke-width="0"/><path d="M415.594,163.47408c2.19929,0.59824 -9.02821,22.13388 -9.02821,22.13388c0,0 -8.9611,1.38672 -12.84063,0.41454c-3.98441,-0.99907 -10.76076,-6.32996 -10.76076,-6.32996c0,0 2.10316,-5.71908 1.55828,-10.28145c-0.93208,-7.80928 -2.64459,-16.41494 1.98522,-21.20989c2.51191,-2.6018 0.79541,11.67371 2.33732,10.72203c0.27437,-0.16973 8.84441,-21.43749 10.83426,-21.7433c3.25075,-0.49942 -4.44144,21.67196 -2.40498,18.67954c4.18122,-6.14236 8.10491,-21.94627 10.5867,-21.86237c4.18012,0.14111 -8.04679,26.71896 -6.14502,25.03893c3.55278,-3.13875 8.77837,-20.12094 10.96448,-20.16322c6.36946,-0.12324 -5.91009,21.19786 -3.55298,19.69114c4.45209,-2.84587 7.19553,-15.21047 9.30026,-14.46262c4.27879,1.52038 -3.87064,19.08853 -2.83269,19.37121z" data-paper-data="{&quot;index&quot;:null}" fill="#6c7378" stroke="#000000" stroke-width="0"/></g></g></svg>