<svg version="1.1" xmlns="http://www.w3.org/2000/svg" xmlns:xlink="http://www.w3.org/1999/xlink" width="18.82908" height="18.83363" viewBox="0,0,18.82908,18.83363"><defs><radialGradient cx="240.04735" cy="179.90414" r="9.30224" gradientUnits="userSpaceOnUse" id="color-1"><stop offset="0" stop-color="#bc957e"/><stop offset="1" stop-color="#33291e"/></radialGradient><radialGradient cx="240.00005" cy="180.00003" r="9.41454" gradientUnits="userSpaceOnUse" id="color-2"><stop offset="0" stop-color="#735545" stop-opacity="0.30645"/><stop offset="1" stop-color="#735545" stop-opacity="0"/></radialGradient><radialGradient cx="240.00005" cy="180.00003" r="7.64324" gradientUnits="userSpaceOnUse" id="color-3"><stop offset="0" stop-color="#ea9d73" stop-opacity="0.62903"/><stop offset="1" stop-color="#ea9d73" stop-opacity="0"/></radialGradient><radialGradient cx="240.00005" cy="180.00003" r="6.47063" gradientUnits="userSpaceOnUse" id="color-4"><stop offset="0" stop-color="#ff8c4e"/><stop offset="1" stop-color="#ff8c4e" stop-opacity="0"/></radialGradient><radialGradient cx="240.00005" cy="180.00003" r="5.32083" gradientUnits="userSpaceOnUse" id="color-5"><stop offset="0" stop-color="#ff631f"/><stop offset="1" stop-color="#ff8340"/></radialGradient><radialGradient cx="240.00806" cy="180.03543" r="9.38369" gradientUnits="userSpaceOnUse" id="color-6"><stop offset="0" stop-color="#080504"/><stop offset="1" stop-color="#21150d"/></radialGradient></defs><g transform="translate(-230.58547,-170.58549)"><g data-paper-data="{&quot;isPaintingLayer&quot;:true}" fill-rule="nonzero" stroke-linecap="butt" stroke-linejoin="miter" stroke-miterlimit="10" stroke-dasharray="" stroke-dashoffset="0" style="mix-blend-mode: normal"><path d="M244.9446,170.92771c0,0 0.08057,3.00196 -3.60908,10.67941c-3.1728,6.60199 -5.18268,7.59925 -5.18268,7.59925l-1.00288,-0.11647c0,0 3.67769,-4.40846 5.2551,-7.92509c1.97185,-4.396 3.46688,-10.56291 3.46688,-10.56291z" data-paper-data="{&quot;index&quot;:null}" fill="url(#color-1)" stroke="#676767" stroke-width="0"/><path d="M230.58547,180.00003c0,-5.19949 4.21503,-9.41454 9.41454,-9.41454c5.19949,0 9.41454,4.21503 9.41454,9.41454c0,5.19949 -4.21503,9.41454 -9.41454,9.41454c-5.19949,0 -9.41454,-4.21503 -9.41454,-9.41454z" fill="url(#color-2)" stroke="none" stroke-width="0.5"/><path d="M232.35678,180.00003c0,-4.22123 3.42199,-7.64324 7.64324,-7.64324c4.22123,0 7.64324,3.42199 7.64324,7.64324c0,4.22123 -3.42199,7.64324 -7.64324,7.64324c-4.22123,0 -7.64324,-3.42199 -7.64324,-7.64324z" fill="url(#color-3)" stroke="none" stroke-width="0.5"/><path d="M233.52942,180.00003c0,-3.57362 2.897,-6.47063 6.47063,-6.47063c3.57362,0 6.47063,2.897 6.47063,6.47063c0,3.57362 -2.897,6.47063 -6.47063,6.47063c-3.57362,0 -6.47063,-2.897 -6.47063,-6.47063z" fill="url(#color-4)" stroke="none" stroke-width="0.5"/><path d="M234.67922,180.00003c0,-2.9386 2.38221,-5.32083 5.32083,-5.32083c2.9386,0 5.32083,2.38221 5.32083,5.32083c0,2.9386 -2.38221,5.32083 -5.32083,5.32083c-2.9386,0 -5.32083,-2.38221 -5.32083,-5.32083z" fill="url(#color-5)" stroke="none" stroke-width="0.5"/><path d="M235.07466,189.09045c0,0 -0.41252,-3.11107 3.30943,-10.85575c3.20058,-6.6598 5.5593,-7.58297 5.5593,-7.58297l1.01166,0.1175c0,0 -3.25445,4.73692 -4.84567,8.28435c-1.98912,4.4345 -3.95268,10.36554 -3.95268,10.36554z" fill="url(#color-6)" stroke="#676767" stroke-width="0"/></g></g></svg>