<svg version="1.1" xmlns="http://www.w3.org/2000/svg" xmlns:xlink="http://www.w3.org/1999/xlink" width="84.5" height="38.32609" viewBox="0,0,84.5,38.32609"><defs><linearGradient x1="240" y1="161.58695" x2="240" y2="198.4131" gradientUnits="userSpaceOnUse" id="color-1"><stop offset="0" stop-color="#4b8455"/><stop offset="1" stop-color="#72b235"/></linearGradient><linearGradient x1="240" y1="161.58695" x2="240" y2="198.4131" gradientUnits="userSpaceOnUse" id="color-2"><stop offset="0" stop-color="#246037"/><stop offset="1" stop-color="#a0ff67"/></linearGradient><linearGradient x1="248.37891" y1="181.63126" x2="277.28776" y2="183.20398" gradientUnits="userSpaceOnUse" id="color-3"><stop offset="0" stop-color="#301630"/><stop offset="1" stop-color="#140e17"/></linearGradient><linearGradient x1="248.37891" y1="181.63126" x2="277.28776" y2="183.20398" gradientUnits="userSpaceOnUse" id="color-4"><stop offset="0" stop-color="#272727"/><stop offset="1" stop-color="#000000"/></linearGradient><linearGradient x1="248.78704" y1="181.62862" x2="250.72464" y2="181.73404" gradientUnits="userSpaceOnUse" id="color-5"><stop offset="0" stop-color="#9d9d9d"/><stop offset="1" stop-color="#4c4c4c"/></linearGradient><linearGradient x1="248.78704" y1="181.62862" x2="250.72464" y2="181.73404" gradientUnits="userSpaceOnUse" id="color-6"><stop offset="0" stop-color="#272727"/><stop offset="1" stop-color="#000000"/></linearGradient><linearGradient x1="275.00172" y1="183.05477" x2="276.93933" y2="183.16018" gradientUnits="userSpaceOnUse" id="color-7"><stop offset="0" stop-color="#9d9d9d"/><stop offset="1" stop-color="#4c4c4c"/></linearGradient><linearGradient x1="275.00172" y1="183.05477" x2="276.93933" y2="183.16018" gradientUnits="userSpaceOnUse" id="color-8"><stop offset="0" stop-color="#272727"/><stop offset="1" stop-color="#000000"/></linearGradient><radialGradient cx="262.83333" cy="182.41763" r="12.01053" gradientUnits="userSpaceOnUse" id="color-9"><stop offset="0" stop-color="#654573" stop-opacity="0.40995"/><stop offset="1" stop-color="#654573" stop-opacity="0"/></radialGradient><radialGradient cx="262.83565" cy="182.37498" r="9.75081" gradientUnits="userSpaceOnUse" id="color-10"><stop offset="0" stop-color="#eb73e5" stop-opacity="0.60996"/><stop offset="1" stop-color="#eb73e5" stop-opacity="0"/></radialGradient><radialGradient cx="262.83565" cy="182.37498" r="8.25486" gradientUnits="userSpaceOnUse" id="color-11"><stop offset="0" stop-color="#ff26ff" stop-opacity="0.44355"/><stop offset="1" stop-color="#eda3ff" stop-opacity="0.14516"/></radialGradient><radialGradient cx="262.83565" cy="182.37498" r="6.78801" gradientUnits="userSpaceOnUse" id="color-12"><stop offset="0" stop-color="#f7e3ff" stop-opacity="0.25546"/><stop offset="1" stop-color="#9f07ff"/></radialGradient><linearGradient x1="248.47998" y1="186.29712" x2="276.68112" y2="187.83133" gradientUnits="userSpaceOnUse" id="color-13"><stop offset="0" stop-color="#9a66a2"/><stop offset="1" stop-color="#4d0069"/></linearGradient><linearGradient x1="248.47757" y1="186.3414" x2="276.67871" y2="187.87561" gradientUnits="userSpaceOnUse" id="color-14"><stop offset="0" stop-color="#9a66a2"/><stop offset="1" stop-color="#4d0069"/></linearGradient><linearGradient x1="249.07619" y1="176.53873" x2="277.27733" y2="178.07294" gradientUnits="userSpaceOnUse" id="color-15"><stop offset="0" stop-color="#9a66a2"/><stop offset="1" stop-color="#4d0069"/></linearGradient><linearGradient x1="249.07378" y1="176.58301" x2="277.27492" y2="178.11723" gradientUnits="userSpaceOnUse" id="color-16"><stop offset="0" stop-color="#9a66a2"/><stop offset="1" stop-color="#4d0069"/></linearGradient><linearGradient x1="247.86118" y1="192.5303" x2="276.35541" y2="194.08045" gradientUnits="userSpaceOnUse" id="color-17"><stop offset="0" stop-color="#b695c7"/><stop offset="1" stop-color="#312833"/></linearGradient><linearGradient x1="247.86118" y1="192.5303" x2="276.35541" y2="194.08045" gradientUnits="userSpaceOnUse" id="color-18"><stop offset="0" stop-color="#272727"/><stop offset="1" stop-color="#000000"/></linearGradient><linearGradient x1="249.17366" y1="170.80648" x2="277.66789" y2="172.35664" gradientUnits="userSpaceOnUse" id="color-19"><stop offset="0" stop-color="#b695c7"/><stop offset="1" stop-color="#312833"/></linearGradient><linearGradient x1="249.17366" y1="170.80648" x2="277.66789" y2="172.35664" gradientUnits="userSpaceOnUse" id="color-20"><stop offset="0" stop-color="#272727"/><stop offset="1" stop-color="#000000"/></linearGradient></defs><g transform="translate(-197.75,-160.83701)"><g data-paper-data="{&quot;isPaintingLayer&quot;:true}" fill-rule="nonzero" stroke-linejoin="miter" stroke-miterlimit="10" stroke-dasharray="" stroke-dashoffset="0" style="mix-blend-mode: normal"><path d="M198.5,198.4131v-36.82609h83v36.82609z" fill="url(#color-1)" stroke="url(#color-2)" stroke-width="1.5" stroke-linecap="butt"/><path d="M247.70755,193.97201l1.34273,-24.68149l28.90886,1.57271l-1.34274,24.6815z" fill="url(#color-3)" stroke="url(#color-4)" stroke-width="0.5" stroke-linecap="butt"/><path d="M248.26173,191.28444l1.0506,-19.31164l1.93761,0.10541l-1.0506,19.31164z" fill="url(#color-5)" stroke="url(#color-6)" stroke-width="0" stroke-linecap="butt"/><path d="M274.47642,192.71059l1.0506,-19.31164l1.93761,0.10541l-1.05061,19.31164z" fill="url(#color-7)" stroke="url(#color-8)" stroke-width="0" stroke-linecap="butt"/><path d="M250.84054,181.76519c0.36033,-6.62342 6.02179,-11.70069 12.64524,-11.34036c6.62342,0.36033 11.70069,6.0218 11.34037,12.64524c-0.36033,6.62342 -6.02179,11.70069 -12.64524,11.34036c-6.62342,-0.36033 -11.70069,-6.0218 -11.34036,-12.64524z" fill="url(#color-9)" stroke="none" stroke-width="0.5" stroke-linecap="butt"/><path d="M253.09924,181.84529c0.29253,-5.37725 4.88883,-9.49927 10.26611,-9.20673c5.37725,0.29253 9.49926,4.88882 9.20673,10.2661c-0.29253,5.37725 -4.88882,9.49927 -10.2661,9.20673c-5.37725,-0.29253 -9.49928,-4.88882 -9.20674,-10.2661z" fill="url(#color-10)" stroke="none" stroke-width="0.5" stroke-linecap="butt"/><path d="M254.59297,181.92655c0.24766,-4.55229 4.13879,-8.04191 8.6911,-7.79425c4.55229,0.24766 8.04191,4.13879 7.79426,8.6911c-0.24766,4.55229 -4.1388,8.04192 -8.6911,7.79426c-4.55229,-0.24766 -8.04191,-4.1388 -7.79426,-8.69111z" fill="url(#color-11)" stroke="none" stroke-width="0.5" stroke-linecap="butt"/><path d="M256.05767,182.00624c0.20365,-3.74337 3.40335,-6.6129 7.14674,-6.40925c3.74336,0.20365 6.6129,3.40335 6.40925,7.14673c-0.20365,3.74337 -3.40335,6.6129 -7.14673,6.40925c-3.74336,-0.20365 -6.61291,-3.40335 -6.40926,-7.14673z" fill="url(#color-12)" stroke="none" stroke-width="0.5" stroke-linecap="butt"/><path d="M248.20411,191.36815l2.11487,-10.05703l0.94623,10.22357l2.56596,-9.94366l1.47449,10.11905l4.06153,-9.81787l2.83981,10.23774l3.5405,-9.84622l2.84463,10.14917l2.82165,-9.8409l1.92799,10.18813l2.10764,-9.92416l0.95827,10.00212" fill="none" stroke="url(#color-13)" stroke-width="0.25" stroke-linecap="round"/><path d="M276.95218,182.84886l-2.03769,9.83913l-1.01858,-10.09424l-3.02186,9.91885l-1.73742,-10.08892l-3.92886,9.78066l-2.45144,-10.17219l-3.93368,9.86924l-2.97248,-10.20054l-2.56355,9.89936l-1.47208,-10.16333l-2.04974,10.06058l-1.01136,-10.2271" data-paper-data="{&quot;index&quot;:null}" fill="none" stroke="url(#color-14)" stroke-width="0.25" stroke-linecap="round"/><path d="M248.80031,181.60976l2.11487,-10.05703l0.94623,10.22356l2.56596,-9.94365l1.47449,10.11905l4.06153,-9.81787l2.83981,10.23774l3.5405,-9.84622l2.84463,10.14917l2.82165,-9.84091l1.92799,10.18814l2.10764,-9.92417l0.95827,10.00213" fill="none" stroke="url(#color-15)" stroke-width="0.25" stroke-linecap="round"/><path d="M277.54839,173.09048l-2.03769,9.83913l-1.01858,-10.09424l-3.02186,9.91885l-1.73742,-10.08893l-3.92886,9.78067l-2.45144,-10.17219l-3.93367,9.86924l-2.97248,-10.20054l-2.56354,9.89936l-1.47208,-10.16333l-2.04974,10.06058l-1.01135,-10.22711" data-paper-data="{&quot;index&quot;:null}" fill="none" stroke="url(#color-16)" stroke-width="0.25" stroke-linecap="round"/><path d="M247.80192,193.61967l0.11853,-2.17874l28.49423,1.55016l-0.11853,2.17874z" fill="url(#color-17)" stroke="url(#color-18)" stroke-width="0.5" stroke-linecap="butt"/><path d="M249.1144,171.89586l0.11853,-2.17875l28.49423,1.55016l-0.11853,2.17874z" fill="url(#color-19)" stroke="url(#color-20)" stroke-width="0.5" stroke-linecap="butt"/><text transform="translate(201.08,170.56883) scale(0.21667,0.21667)" font-size="40" xml:space="preserve" fill="#ffffff" fill-rule="nonzero" stroke="none" stroke-width="1" stroke-linecap="butt" stroke-linejoin="miter" stroke-miterlimit="10" stroke-dasharray="" stroke-dashoffset="0" font-family="Serif" font-weight="normal" text-anchor="start" style="mix-blend-mode: normal"><tspan x="0" dy="0">Intergalactic</tspan></text><text transform="translate(201.08,178.36888) scale(0.21667,0.21667)" font-size="40" xml:space="preserve" fill="#ffffff" fill-rule="nonzero" stroke="none" stroke-width="1" stroke-linecap="butt" stroke-linejoin="miter" stroke-miterlimit="10" stroke-dasharray="" stroke-dashoffset="0" font-family="Serif" font-weight="normal" text-anchor="start" style="mix-blend-mode: normal"><tspan x="0" dy="0">Drive</tspan></text></g></g></svg>