<svg version="1.1" xmlns="http://www.w3.org/2000/svg" xmlns:xlink="http://www.w3.org/1999/xlink" width="27.42934" height="26.98292" viewBox="0,0,27.42934,26.98292"><defs><radialGradient cx="240.06323" cy="179.95864" r="12.63063" gradientUnits="userSpaceOnUse" id="color-1"><stop offset="0" stop-color="#cca288"/><stop offset="1" stop-color="#3d3124"/></radialGradient><radialGradient cx="239.98763" cy="179.91363" r="12.49729" gradientUnits="userSpaceOnUse" id="color-2"><stop offset="0" stop-color="#ffcbab"/><stop offset="1" stop-color="#544331"/></radialGradient><radialGradient cx="240.06429" cy="179.86984" r="12.63063" gradientUnits="userSpaceOnUse" id="color-3"><stop offset="0" stop-color="#bc957e"/><stop offset="1" stop-color="#33291e"/></radialGradient><radialGradient cx="239.99999" cy="180" r="13.49146" gradientUnits="userSpaceOnUse" id="color-4"><stop offset="0" stop-color="#525887" stop-opacity="0.35417"/><stop offset="1" stop-color="#525887" stop-opacity="0"/></radialGradient><radialGradient cx="239.99999" cy="180" r="10.95311" gradientUnits="userSpaceOnUse" id="color-5"><stop offset="0" stop-color="#7e90eb" stop-opacity="0.67834"/><stop offset="1" stop-color="#7e90eb" stop-opacity="0"/></radialGradient><radialGradient cx="239.99999" cy="180" r="9.27271" gradientUnits="userSpaceOnUse" id="color-6"><stop offset="0" stop-color="#9bc8ff"/><stop offset="1" stop-color="#9bc8ff" stop-opacity="0"/></radialGradient><radialGradient cx="239.99999" cy="180" r="7.62499" gradientUnits="userSpaceOnUse" id="color-7"><stop offset="0" stop-color="#1b76ff"/><stop offset="1" stop-color="#4a89ff"/></radialGradient><radialGradient cx="240.01095" cy="180.04811" r="12.74122" gradientUnits="userSpaceOnUse" id="color-8"><stop offset="0" stop-color="#080504"/><stop offset="1" stop-color="#21150d"/></radialGradient><radialGradient cx="240.02708" cy="180.01362" r="12.60672" gradientUnits="userSpaceOnUse" id="color-9"><stop offset="0" stop-color="#110b08"/><stop offset="1" stop-color="#26180e"/></radialGradient><radialGradient cx="239.88505" cy="180.00848" r="12.74122" gradientUnits="userSpaceOnUse" id="color-10"><stop offset="0" stop-color="#170e0b"/><stop offset="1" stop-color="#332014"/></radialGradient></defs><g transform="translate(-226.28533,-166.50853)"><g data-paper-data="{&quot;isPaintingLayer&quot;:true}" fill-rule="nonzero" stroke-linecap="butt" stroke-linejoin="miter" stroke-miterlimit="10" stroke-dasharray="" stroke-dashoffset="0" style="mix-blend-mode: normal"><path d="M253.45975,177.30653c0,0 -8.60797,0.37212 -14.98201,1.8445c-5.099,1.17785 -11.93759,4.91943 -11.93759,4.91943l0.1082,-1.36658c0,0 1.85635,-2.4156 11.48451,-4.90853c11.19659,-2.89902 15.17454,-2.00334 15.17454,-2.00334z" data-paper-data="{&quot;index&quot;:null}" fill="url(#color-1)" stroke="#676767" stroke-width="0"/><path d="M227.03012,175.42474c0,0 7.60104,4.05705 13.83812,6.03069c4.98943,1.57884 12.78047,1.83486 12.78047,1.83486l-0.78813,1.12167c0,0 -2.82682,1.13591 -12.3848,-1.61385c-11.11498,-3.19769 -14.08466,-5.99185 -14.08466,-5.99185z" data-paper-data="{&quot;index&quot;:null}" fill="url(#color-2)" stroke="#676767" stroke-width="0"/><path d="M246.71379,167.6816c0,0 0.10941,4.07608 -4.90041,14.50055c-4.30804,8.9642 -7.03707,10.31831 -7.03707,10.31831l-1.36171,-0.15815c0,0 4.99358,-5.98582 7.1354,-10.76072c2.67739,-5.96892 4.70734,-14.34238 4.70734,-14.34238z" data-paper-data="{&quot;index&quot;:null}" fill="url(#color-3)" stroke="#676767" stroke-width="0"/><path d="M226.50854,180c0,-7.45111 6.04033,-13.49146 13.49146,-13.49146c7.45111,0 13.49146,6.04033 13.49146,13.49146c0,7.45111 -6.04033,13.49146 -13.49146,13.49146c-7.45111,0 -13.49146,-6.04033 -13.49146,-13.49146z" fill="url(#color-4)" stroke="none" stroke-width="0.5"/><path d="M229.04688,180c0,-6.04921 4.90387,-10.95311 10.95311,-10.95311c6.04921,0 10.95311,4.90387 10.95311,10.95311c0,6.04921 -4.90387,10.95311 -10.95311,10.95311c-6.04921,0 -10.95311,-4.90387 -10.95311,-10.95311z" fill="url(#color-5)" stroke="none" stroke-width="0.5"/><path d="M230.72728,180c0,-5.12116 4.15153,-9.27271 9.27271,-9.27271c5.12116,0 9.27271,4.15153 9.27271,9.27271c0,5.12116 -4.15153,9.27271 -9.27271,9.27271c-5.12116,0 -9.27271,-4.15153 -9.27271,-9.27271z" fill="url(#color-6)" stroke="none" stroke-width="0.5"/><path d="M232.37501,180c0,-4.21115 3.41382,-7.62499 7.62499,-7.62499c4.21115,0 7.62499,3.41382 7.62499,7.62499c0,4.21115 -3.41382,7.62499 -7.62499,7.62499c-4.21115,0 -7.62499,-3.41382 -7.62499,-7.62499z" data-paper-data="{&quot;index&quot;:null}" fill="url(#color-7)" stroke="none" stroke-width="0.5"/><path d="M233.31235,192.34307c0,0 -0.56012,-4.22423 4.49357,-14.73998c4.34576,-9.0427 7.54843,-10.29619 7.54843,-10.29619l1.37364,0.15954c0,0 -4.4189,6.4318 -6.57946,11.24852c-2.70084,6.02118 -5.36697,14.07438 -5.36697,14.07438z" fill="url(#color-8)" stroke="#676767" stroke-width="0"/><path d="M253.05614,184.69056c0,0 -7.7512,-3.4469 -14.02263,-5.50077c-5.01691,-1.64301 -12.74819,-2.70229 -12.74819,-2.70229l0.80633,-1.12346c0,0 3.08236,-1.5256 12.69575,1.34469c11.17942,3.33786 13.92726,6.59474 13.92726,6.59474z" data-paper-data="{&quot;index&quot;:null}" fill="url(#color-9)" stroke="#676767" stroke-width="0"/><path d="M226.38021,182.71118c0,0 8.41392,-1.08086 14.83976,-2.58342c5.14043,-1.202 12.29711,-4.31274 12.29711,-4.31274l-0.10545,1.37884c0,0 -1.84144,2.90473 -11.54711,5.44559c-11.28672,2.95477 -15.32652,1.59907 -15.32652,1.59907z" data-paper-data="{&quot;index&quot;:null}" fill="url(#color-10)" stroke="#676767" stroke-width="0"/></g></g></svg>