<svg version="1.1" xmlns="http://www.w3.org/2000/svg" xmlns:xlink="http://www.w3.org/1999/xlink" width="139.73571" height="197.98135" viewBox="0,0,139.73571,197.98135"><defs><linearGradient x1="312.65956" y1="54.98949" x2="280.69735" y2="127.95444" gradientUnits="userSpaceOnUse" id="color-1"><stop offset="0" stop-color="#4a4a4a" stop-opacity="0"/><stop offset="1" stop-color="#4a4a4a" stop-opacity="0.28235"/></linearGradient><linearGradient x1="319.92111" y1="54.52012" x2="280.09686" y2="130.91476" gradientUnits="userSpaceOnUse" id="color-2"><stop offset="0" stop-color="#292929" stop-opacity="0"/><stop offset="1" stop-color="#292929" stop-opacity="0.28235"/></linearGradient><linearGradient x1="322.16809" y1="62.22759" x2="278.9996" y2="129.03174" gradientUnits="userSpaceOnUse" id="color-3"><stop offset="0" stop-color="#383838" stop-opacity="0"/><stop offset="1" stop-color="#383838" stop-opacity="0.31765"/></linearGradient><radialGradient cx="297.2701" cy="94.46429" r="35.53768" gradientUnits="userSpaceOnUse" id="color-4"><stop offset="0" stop-color="#4a4a4a" stop-opacity="0"/><stop offset="1" stop-color="#4a4a4a" stop-opacity="0.30588"/></radialGradient><linearGradient x1="234.50531" y1="147.8915" x2="291.71804" y2="177.11565" gradientUnits="userSpaceOnUse" id="color-5"><stop offset="0" stop-color="#d0d0d0"/><stop offset="1" stop-color="#727272"/></linearGradient><linearGradient x1="262.48443" y1="120.95066" x2="296.37544" y2="138.26212" gradientUnits="userSpaceOnUse" id="color-6"><stop offset="0" stop-color="#d10000"/><stop offset="1" stop-color="#730000"/></linearGradient><linearGradient x1="281.07749" y1="126.38092" x2="277.78237" y2="132.83186" gradientUnits="userSpaceOnUse" id="color-7"><stop offset="0" stop-color="#348317"/><stop offset="1" stop-color="#3c5b0d"/></linearGradient><linearGradient x1="256.60919" y1="132.02358" x2="290.50019" y2="149.33504" gradientUnits="userSpaceOnUse" id="color-8"><stop offset="0" stop-color="#d10000"/><stop offset="1" stop-color="#730000"/></linearGradient><linearGradient x1="275.20226" y1="137.45383" x2="271.90714" y2="143.90477" gradientUnits="userSpaceOnUse" id="color-9"><stop offset="0" stop-color="#348317"/><stop offset="1" stop-color="#3c5b0d"/></linearGradient><radialGradient cx="231.55572" cy="201.68744" r="27.13216" gradientUnits="userSpaceOnUse" id="color-10"><stop offset="0" stop-color="#e88c52"/><stop offset="1" stop-color="#ba623d"/></radialGradient><linearGradient x1="242.27349" y1="190.72123" x2="242.27349" y2="244.98073" gradientUnits="userSpaceOnUse" id="color-11"><stop offset="0" stop-color="#348317"/><stop offset="1" stop-color="#3c5b0d"/></linearGradient><radialGradient cx="261.28017" cy="202.84645" r="27.13216" gradientUnits="userSpaceOnUse" id="color-12"><stop offset="0" stop-color="#e88c52"/><stop offset="1" stop-color="#ba623d"/></radialGradient><linearGradient x1="272.02022" y1="190.82574" x2="272.02022" y2="245.08524" gradientUnits="userSpaceOnUse" id="color-13"><stop offset="0" stop-color="#348317"/><stop offset="1" stop-color="#3c5b0d"/></linearGradient><linearGradient x1="242.5565" y1="179.70993" x2="242.5565" y2="191.78861" gradientUnits="userSpaceOnUse" id="color-14"><stop offset="0" stop-color="#348317"/><stop offset="1" stop-color="#3c5b0d"/></linearGradient><linearGradient x1="271.36135" y1="179.98948" x2="271.36135" y2="192.06815" gradientUnits="userSpaceOnUse" id="color-15"><stop offset="0" stop-color="#348317"/><stop offset="1" stop-color="#3c5b0d"/></linearGradient><linearGradient x1="186.226" y1="206.50508" x2="232.84013" y2="206.50508" gradientUnits="userSpaceOnUse" id="color-16"><stop offset="0" stop-color="#5d5d5d"/><stop offset="1" stop-color="#494949"/></linearGradient><linearGradient x1="209.53307" y1="168.71137" x2="209.53307" y2="244.29878" gradientUnits="userSpaceOnUse" id="color-17"><stop offset="0" stop-color="#348317"/><stop offset="1" stop-color="#3c5b0d"/></linearGradient><linearGradient x1="180.47601" y1="206.5356" x2="237.59013" y2="206.5356" gradientUnits="userSpaceOnUse" id="color-18"><stop offset="0" stop-color="#6c6c6c"/><stop offset="1" stop-color="#5c5c5c"/></linearGradient><linearGradient x1="209.03308" y1="190.78038" x2="209.03308" y2="222.29081" gradientUnits="userSpaceOnUse" id="color-19"><stop offset="0" stop-color="#348317"/><stop offset="1" stop-color="#3c5b0d"/></linearGradient><linearGradient x1="188.83301" y1="179.78592" x2="229.44713" y2="179.78592" gradientUnits="userSpaceOnUse" id="color-20"><stop offset="0" stop-color="#4687ff"/><stop offset="1" stop-color="#0067ff"/></linearGradient><linearGradient x1="209.14007" y1="172.35337" x2="209.14007" y2="187.21847" gradientUnits="userSpaceOnUse" id="color-21"><stop offset="0" stop-color="#348317"/><stop offset="1" stop-color="#3c5b0d"/></linearGradient><linearGradient x1="183.22601" y1="206.6296" x2="233.59013" y2="206.6296" gradientUnits="userSpaceOnUse" id="color-22"><stop offset="0" stop-color="#4687ff"/><stop offset="1" stop-color="#0067ff"/></linearGradient><linearGradient x1="208.40808" y1="199.19704" x2="208.40808" y2="214.06215" gradientUnits="userSpaceOnUse" id="color-23"><stop offset="0" stop-color="#348317"/><stop offset="1" stop-color="#3c5b0d"/></linearGradient><linearGradient x1="188.83301" y1="233.23383" x2="229.44713" y2="233.23383" gradientUnits="userSpaceOnUse" id="color-24"><stop offset="0" stop-color="#4687ff"/><stop offset="1" stop-color="#0067ff"/></linearGradient><linearGradient x1="209.14007" y1="225.80128" x2="209.14007" y2="240.66638" gradientUnits="userSpaceOnUse" id="color-25"><stop offset="0" stop-color="#348317"/><stop offset="1" stop-color="#3c5b0d"/></linearGradient></defs><g transform="translate(-180.476,-47.10591)"><g data-paper-data="{&quot;isPaintingLayer&quot;:true}" fill-rule="nonzero" stroke-linecap="butt" stroke-linejoin="miter" stroke-miterlimit="10" stroke-dasharray="" stroke-dashoffset="0" style="mix-blend-mode: normal"><path d="M263.79645,115.2888l-0.02037,-0.02946l0.01377,-0.07265c-0.01758,-0.39311 0.05423,-0.80271 0.22663,-1.19627l0.33714,-0.76967l0.18417,-0.24843l0.12451,-0.28426l0.22707,-0.30628l0.74762,-1.70674l0.28069,-0.96692l0.08813,-0.15854l0.03358,-0.17721l0.009,-0.02054l0.00731,-0.07606l-0.03824,-0.32584l0.04029,-0.34658l-0.03011,-1.66859l0.03792,-0.17654l-0.02062,-0.17557l0.08295,-0.71354l-0.03576,-0.25856l0.03186,-0.33155l-0.03824,-0.32583l0.18233,-1.56848l0.13595,-0.38136l0.07498,-0.39578l0.07777,-0.17756l0.07078,-0.37366l0.12452,-0.28424l0.05742,-0.3031l0.03816,-0.0871l0.014,-0.12038l0.13593,-0.38136l0.07498,-0.39578l1.28117,-2.92475l0.18417,-0.24843l0.12452,-0.28425l0.22707,-0.30629l0.28006,-0.63935l0.18417,-0.24844l0.12452,-0.28425l0.37563,-0.50669l0.44517,-0.65904l0.11519,-0.1071l0.07401,-0.14103l0.58609,-0.6832l0.39101,-0.57887l0.11519,-0.1071l0.07401,-0.14103l0.55966,-0.65241l0.44045,-0.69568l0.265,-0.2618l0.2163,-0.30706l0.65682,-0.58664l0.61047,-0.77253l0.18134,-0.14443l0.13556,-0.19243l2.35566,-2.10394l1.25934,-1.46802l0.21949,-0.16041l0.17462,-0.21391l0.6047,-0.46571l0.48178,-0.50309l0.16702,-0.10818l0.1284,-0.15729l0.76171,-0.58661l0.11635,-0.05173l0.09218,-0.09307l0.4188,-0.261l1.0119,-1.05667l0.08753,-0.05668l0.06144,-0.08722l2.90842,-2.59764l0.79963,-0.93213l0.92706,-1.42143l0.15352,-0.14754l0.10476,-0.18816l1.0903,-1.20816l0.7276,-1.34458l0.08988,-0.10209l0.04943,-0.12769l0.93464,-1.38368l1.01095,-1.59682l0.92134,-1.75571l2.33264,-5.32506l0.37082,-1.15258l0.21726,-1.14689l0.18249,-1.1584l0.01609,-0.03999l-0.00182,-0.04222l0.09654,-0.50967l0.04389,-0.72314l0.02152,-0.07251l-0.00861,-0.07335l0.08294,-0.71355l-0.03575,-0.25858l0.01701,-0.17696l-0.03065,-0.02198l-0.03678,-0.31345l-0.12252,-0.28237l0.06822,-0.18017l-0.05649,-0.48126l0.00803,-0.0691l-0.00037,-0.00409l-0.08868,-0.22217l-0.08075,-0.58386l0.03187,-0.33155l-0.02334,-0.19886l-0.13303,-0.38596l-0.03614,-0.39398l-0.09864,-0.37758l-0.00665,-0.36889l0.0209,-0.09729l-0.17016,-0.39217l0.0445,-0.11755l-0.05009,-0.19177l-0.00666,-0.3689l0.27155,-1.26405l0.55493,-0.38849l0.30994,-0.6197l1.16992,-0.41629l0.19707,-0.01792l0.0217,-0.01741l0.06621,0.0094l0.06552,-0.00596l0.52656,0.09021l0.52957,0.07536l0.05915,0.0255l0.06582,0.01128l0.01353,0.02294l3.56493,1.53718l1.18336,0.34878l1.02301,0.26414l0.14448,0.08266l0.16589,0.0236l0.7293,0.31447l0.34978,0.04979l0.26133,0.11268l0.28373,0.04037l0.28305,0.12204l0.22331,0.17826l0.26133,0.11268l0.49865,0.39802l0.15385,0.20862l0.20405,0.15356l0.24051,0.30784l0.16603,0.01977l0.16702,0.2535l0.23309,0.18606l0.01338,0.18803l0.25546,0.38773l0.13647,0.1288l0.16668,0.26872l0.22158,0.21886l0.28969,0.49093l0.06768,0.2315l0.12947,0.19649l0.07036,0.20414l0.17035,0.2887l0.06768,0.2315l0.12947,0.19649l0.14818,0.42991l0.02239,0.2441l0.08868,0.22217l0.01356,0.09805l0.04866,0.08246l0.06768,0.2315l0.12946,0.19649l0.14817,0.42991l0.0224,0.24411l0.08869,0.22216l0.15216,1.10027l0.45161,2.32989l-0.01431,0.32771l0.05582,0.31776l-0.03417,0.5632l0.0934,0.48185l-0.01431,0.32771l0.05581,0.31775l-0.04784,0.7884l0.00974,0.53981l0.07876,0.85861l-0.0385,0.27262l0.03154,0.26866l-0.04029,0.34658l0.01014,0.56191l-0.05802,0.2701l0.01172,0.27182l-0.6231,3.28925l-0.0497,0.42758l-0.03316,0.09303l0.00417,0.09677l-0.23849,1.25897l-0.04971,0.42759l-0.13594,0.38135l-0.07498,0.39578l-0.14521,0.33146l-0.07078,0.37366l-0.02466,0.0563l-0.00013,0.06043l-0.19564,0.83071l-0.0184,0.03746l-0.00134,0.0411l-0.19295,0.72216l-0.03782,0.62322l-0.06618,0.22309l-0.0005,0.22932l-0.19565,0.8307l-0.01839,0.03748l-0.00135,0.0411l-0.21216,0.79412l-0.09893,0.85106l-0.06707,0.18818l-0.00643,0.1969l-0.21217,0.79411l-0.09893,0.85106l-0.05344,0.14991l-0.00034,0.15661l-0.1598,0.67856l-0.10361,0.89127l-0.03316,0.09303l0.00416,0.09679l-0.09655,0.50966l-0.02395,0.39464l0.33671,1.73711l0.20788,0.40336l0.07021,0.30051l0.13642,0.26982l0.19922,0.88224l1.08604,3.151l0.28622,0.55539l0.07871,0.33686l0.14355,0.30803l0.12183,0.6285l0.31459,0.91276l0.02241,0.24411l0.08868,0.22217l0.02321,0.16779l0.17684,0.34314l0.09373,0.40114l0.15075,0.37766l0.16149,1.1677l-0.01507,0.15686l0.03877,0.14842l0.00929,0.51465l0.11295,0.58272l-0.00985,0.22571l0.05577,0.2135l0.01332,0.73777l-0.02235,0.10407l0.01794,0.10217l-0.04784,0.78839l0.02476,1.37263l-0.02235,0.10407l0.01795,0.10219l-0.04784,0.7884l0.01146,0.63485l-0.02235,0.10407l0.01794,0.10217l-0.05412,0.89171l-0.04921,0.1659l0.00732,0.16978l-0.0588,0.31039l0.05394,0.58803l-0.0385,0.27263l0.03155,0.26865l-0.12155,1.04565l-0.06707,0.18817l-0.00643,0.1969l-0.18492,0.69217l-0.0362,0.96156l-0.09286,0.34094l-0.02487,0.34916l-0.34083,1.10703l-0.15893,1.00895l-0.06509,0.16185l-0.00939,0.17195l-0.65285,2.24904l-0.25551,0.95639l-0.09842,0.18628l-0.03898,0.20579l-1.48347,3.38656l-0.14902,0.20101l-0.09058,0.23405l-0.47867,0.70866l-0.11519,0.1071l-0.07402,0.14104l-0.42297,0.49307l-0.17302,0.39499l-0.06018,0.08118l0.00151,0.08384l-0.37539,0.42048l-0.337,0.45457l-0.07945,0.01189l-0.06705,0.07509l-0.1356,0.09493l-0.15209,0.20517l-0.32369,0.27494l-0.28519,0.31944l-0.21495,0.15048l-0.12541,0.14618l-0.26621,0.19455l-0.22259,0.24931l-0.35963,0.25176l-0.16095,0.14376l-0.34553,0.18608l-0.31499,0.24257l-1.87004,0.83155l-0.64503,0.45155l-0.43734,0.39061l-0.17549,0.0945l-0.05626,0.1125l-0.2136,0.076l-0.03999,0.05677l-0.05165,0.04614l-0.04298,0.05797l-0.02634,0.00394l-0.98456,0.87934l-0.17549,0.0945l-0.05626,0.11249l-0.44997,0.1601l-0.16087,0.08663l-0.016,0.032l-0.12801,0.04556l-0.1212,0.06526l-0.03089,-0.01115l-0.1699,0.06046l-0.16087,0.08663l-0.01599,0.03199l-0.12801,0.04556l-0.1212,0.06527l-0.03089,-0.01115l-0.1699,0.06046l-0.42608,0.22944l-0.10854,-0.03922l-0.18534,0.06594l-0.35046,0.03189l-0.16495,-0.02826l-0.16799,0.03364l-0.98398,-0.05826l-0.28831,-0.09665l-0.01226,0.00112l-0.52656,-0.09022l-0.52957,-0.07536l-0.05915,-0.0255l-0.06583,-0.01128l-0.01353,-0.02294l-0.07585,-0.03271l-0.40732,-0.07945l-0.3467,-0.02053l-0.35271,-0.11825l-0.37048,-0.05272l-0.64616,-0.27862l-0.11327,-0.00672l-0.35271,-0.11825l-0.37048,-0.05272l-0.08008,-0.03452l-0.11327,-0.00672l-0.08604,-0.02884l-0.0921,0.01093l-0.63351,-0.09015l-0.26133,-0.11268l-0.28373,-0.04036l-0.50463,-0.21758l-0.11328,-0.00672l-0.08602,-0.02885l-0.09211,0.01095l-0.63352,-0.09014l-0.26132,-0.11269l-0.28373,-0.04037l-1.20498,-0.51958l-0.54927,-0.10715l-0.20639,-0.102l-0.22956,-0.03266l-17.40683,-7.50568l-0.2916,-0.23276l-0.32777,-0.17518l-0.71426,-0.67401l-0.03569,-0.05752l-0.12964,-0.0559l-0.02614,0.00583l-0.05321,-0.04005l-0.05915,-0.0255l-0.41684,-0.33272l-0.42572,-0.3204l-0.0403,-0.05158l-0.05209,-0.04159l-0.00197,-0.02762l-0.12125,-0.15519l-0.49141,-1.13265l0.43856,-1.15828l-0.00031,-0.00432l0.0028,-0.00225l0.27342,-0.72212c-0.44776,-0.39139 -0.71966,-0.9583 -0.77175,-1.57324z" fill="url(#color-1)" stroke="none" stroke-width="0.5"/><path d="M262.91641,115.75852l-0.01964,-0.03366l0.02027,-0.0776c0.01087,-0.42761 0.11893,-0.86555 0.33374,-1.2776l0.42008,-0.80585l0.21647,-0.25375l0.15515,-0.29761l0.26687,-0.31283l0.93154,-1.78697l0.3744,-1.02443l0.10659,-0.16441l0.04944,-0.18926l0.01121,-0.02151l0.0136,-0.08185l-0.01638,-0.35643l0.06947,-0.37229l0.09394,-1.81127l0.05405,-0.18815l-0.00884,-0.19207l0.143,-0.76647l-0.0188,-0.28331l0.05929,-0.35672l-0.01639,-0.35644l0.31435,-1.6848l0.17476,-0.40193l0.11042,-0.42269l0.09691,-0.1859l0.10424,-0.39908l0.15515,-0.29761l0.08456,-0.3237l0.04755,-0.0912l0.02413,-0.12931l0.17475,-0.40192l0.11042,-0.42269l1.59634,-3.06224l0.21647,-0.25375l0.15515,-0.29761l0.26687,-0.31282l0.34896,-0.6694l0.21646,-0.25375l0.15515,-0.29761l0.4415,-0.51755l0.52764,-0.67681l0.13172,-0.10638l0.09011,-0.14664l0.68071,-0.6911l0.46344,-0.59446l0.13172,-0.10638l0.09011,-0.14664l0.65002,-0.65994l0.52534,-0.71693l0.30422,-0.26142l0.25536,-0.31458l0.74933,-0.58045l0.71363,-0.78587l0.20556,-0.14125l0.16004,-0.19717l2.6874,-2.08176l1.46267,-1.48499l0.2477,-0.15536l0.20361,-0.21713l0.68423,-0.45376l0.55512,-0.50466l0.18745,-0.10316l0.14969,-0.15966l0.86189,-0.57157l0.12878,-0.04625l0.10598,-0.0931l0.46922,-0.24756l1.16597,-1.05999l0.09824,-0.05405l0.07254,-0.08936l3.31801,-2.57025l0.92873,-0.94292l1.10252,-1.46254l0.17593,-0.14697l0.12667,-0.19511l1.26158,-1.21758l0.88262,-1.39608l0.10419,-0.10306l0.06269,-0.13424l1.10779,-1.42099l1.20582,-1.64557l1.12168,-1.82539l2.90642,-5.57539l0.48519,-1.21806l0.31996,-1.22487l0.28351,-1.24029l0.02029,-0.04199l0.00124,-0.04592l0.14219,-0.54432l0.10181,-0.78018l0.02858,-0.07679l-0.00369,-0.08024l0.143,-0.76647l-0.0188,-0.28331l0.03165,-0.19039l-0.03123,-0.02641l-0.01577,-0.34287l-0.11012,-0.31644l0.08685,-0.18954l-0.02421,-0.52645l0.01385,-0.07422l-0.0001,-0.00445l-0.07836,-0.24832l-0.04248,-0.6397l0.05929,-0.35672l-0.01,-0.21752l-0.11357,-0.42961l-0.00898,-0.43012l-0.07728,-0.41761l0.02077,-0.40043l0.0298,-0.10371l-0.15294,-0.43948l0.05667,-0.12367l-0.03925,-0.21211l0.02076,-0.40044l0.38708,-1.34728l0.62499,-0.37427l0.37952,-0.64558l1.28711,-0.35248l0.21286,-0.0028l0.0246,-0.01704l0.07033,0.01581l0.07076,-0.00093l0.55829,0.14224l0.56265,0.12641l0.06155,0.03264l0.06977,0.01778l0.01279,0.02601l3.70974,1.96724l1.24365,0.47796l1.07793,0.37273l0.14882,0.10178l0.17625,0.03959l0.75892,0.40245l0.37164,0.08349l0.27195,0.14421l0.30146,0.06771l0.29454,0.15619l0.22619,0.21208l0.27195,0.14421l0.50505,0.47354l0.14934,0.23912l0.20738,0.18369l0.23483,0.35401l0.1767,0.03545l0.16008,0.28888l0.23609,0.22137l0.00014,0.20495l0.24484,0.44186l0.13672,0.15113l0.15855,0.30536l0.22125,0.25596l0.27376,0.55662l0.05513,0.25665l0.12408,0.22393l0.06008,0.22723l0.16099,0.32733l0.05512,0.25665l0.12409,0.22394l0.12649,0.47853l0.00557,0.26651l0.07836,0.24832l0.00714,0.10744l0.04598,0.09347l0.05513,0.25665l0.12408,0.22393l0.12649,0.47854l0.00557,0.26651l0.07837,0.24831l0.08006,1.20553l0.3084,2.5637l-0.04015,0.35403l0.03585,0.34916l-0.07931,0.60762l0.06378,0.53021l-0.04015,0.35403l0.03585,0.34916l-0.11101,0.85059l-0.03038,0.58597l0.01956,0.93737l-0.06195,0.29228l0.01352,0.29388l-0.06947,0.37229l-0.03162,0.60995l-0.08271,0.28789l-0.00797,0.29562l-0.91763,3.5129l-0.0857,0.4593l-0.04263,0.09803l-0.00285,0.10527l-0.35122,1.34456l-0.0857,0.4593l-0.17475,0.40192l-0.11042,0.42269l-0.18092,0.34706l-0.10424,0.39907l-0.03073,0.05895l-0.00471,0.0655l-0.27283,0.88395l-0.02258,0.03905l-0.00454,0.04443l-0.26172,0.76651l-0.08775,0.67236l-0.0879,0.23625l-0.01788,0.24853l-0.27283,0.88395l-0.02258,0.03906l-0.00454,0.04443l-0.2878,0.8429l-0.17057,0.9142l-0.08623,0.19833l-0.0218,0.2129l-0.2878,0.8429l-0.17057,0.9142l-0.0687,0.15798l-0.01221,0.16975l-0.22285,0.72205l-0.17863,0.95736l-0.04263,0.09803l-0.00285,0.10527l-0.14219,0.54432l-0.05557,0.42575l0.22993,1.91143l0.19258,0.45479l0.05262,0.33168l0.12599,0.30401l0.14705,0.97315l0.92716,3.50733l0.26516,0.6262l0.05899,0.37178l0.13076,0.34601l0.0832,0.69156l0.26857,1.01596l0.00557,0.26651l0.07836,0.24832l0.01221,0.18384l0.16383,0.3869l0.07025,0.44275l0.13321,0.4221l0.08497,1.2794l-0.02806,0.16877l0.03038,0.16417l-0.02897,0.55865l0.07713,0.6412l-0.02766,0.24385l0.0437,0.23614l-0.04155,0.80087l-0.03187,0.11093l0.01153,0.11226l-0.111,0.85058l-0.07728,1.49001l-0.03187,0.11093l0.01153,0.11226l-0.11101,0.85059l-0.03574,0.68914l-0.03187,0.11093l0.01153,0.11226l-0.12555,0.96204l-0.06537,0.17566l-0.00498,0.18465l-0.0866,0.3315l0.01341,0.64197l-0.06195,0.29228l0.01352,0.29388l-0.20957,1.1232l-0.08623,0.19833l-0.0218,0.2129l-0.25085,0.73469l-0.11161,1.03926l-0.12545,0.36175l-0.05311,0.3764l-0.44956,1.17123l-0.24693,1.08028l-0.0821,0.16996l-0.0231,0.18559l-0.87083,2.38281l-0.34661,1.01516l-0.11972,0.19361l-0.05741,0.21978l-1.84838,3.54575l-0.17513,0.20531l-0.11492,0.24606l-0.56735,0.72776l-0.13172,0.10638l-0.09011,0.14664l-0.49126,0.49877l-0.21557,0.41354l-0.07074,0.08293l-0.00472,0.091l-0.4347,0.42409l-0.39609,0.4643l-0.08618,0.00618l-0.07765,0.07574l-0.15271,0.09144l-0.17876,0.20955l-0.36821,0.27071l-0.33026,0.32219l-0.24206,0.14496l-0.14567,0.14788l-0.30043,0.18842l-0.25777,0.25147l-0.40502,0.24254l-0.18362,0.14223l-0.38492,0.17252l-0.35642,0.23635l-2.06994,0.74351l-0.72643,0.43503l-0.49893,0.38649l-0.19549,0.08762l-0.06889,0.11717l-0.23498,0.06435l-0.04721,0.05816l-0.05893,0.04565l-0.05051,0.05921l-0.02857,0.00205l-1.1232,0.87008l-0.19549,0.08762l-0.06889,0.11717l-0.49505,0.13557l-0.1792,0.08033l-0.01961,0.03333l-0.14082,0.03856l-0.13502,0.06052l-0.0323,-0.01469l-0.18691,0.05119l-0.1792,0.08033l-0.01961,0.03333l-0.14082,0.03856l-0.13502,0.06052l-0.0323,-0.01469l-0.18691,0.05119l-0.47465,0.21274l-0.11352,-0.05167l-0.20391,0.05584l-0.37856,0.00499l-0.17488,-0.04455l-0.18283,0.02229l-1.05164,-0.14623l-0.30212,-0.12911l-0.01325,0.00018l-0.55829,-0.14224l-0.56264,-0.1264l-0.06155,-0.03264l-0.06978,-0.01778l-0.01279,-0.02601l-0.07894,-0.04186l-0.43114,-0.12052l-0.37054,-0.05152l-0.3696,-0.15795l-0.39363,-0.08842l-0.6724,-0.35657l-0.12107,-0.01682l-0.3696,-0.15795l-0.39363,-0.08842l-0.08333,-0.04418l-0.12107,-0.01682l-0.09015,-0.03852l-0.09969,0.00407l-0.67309,-0.1512l-0.27195,-0.14421l-0.30146,-0.06771l-0.52513,-0.27847l-0.12107,-0.01683l-0.09015,-0.03853l-0.09969,0.00407l-0.67309,-0.1512l-0.27195,-0.14421l-0.30146,-0.06771l-1.25394,-0.66494l-0.58139,-0.16251l-0.2138,-0.12798l-0.24389,-0.05479l-18.1139,-9.60563l-0.29536,-0.27693l-0.33852,-0.21756l-0.71557,-0.79092l-0.03394,-0.06536l-0.1349,-0.07154l-0.0285,0.00412l-0.05408,-0.04791l-0.06155,-0.03264l-0.42219,-0.39585l-0.43266,-0.38325l-0.03935,-0.05932l-0.05277,-0.04949l-0.00002,-0.03011l-0.11837,-0.17846l-0.44172,-1.26925l0.55833,-1.21853v-0.00472l0.00317,-0.0022l0.34809,-0.75968c-0.45094,-0.46208 -0.69986,-1.09955 -0.70925,-1.77053z" fill="url(#color-2)" stroke="none" stroke-width="0.5"/><path d="M264.65143,113.29165l-0.01494,-0.03312l0.02541,-0.06985c0.04793,-0.39496 0.18555,-0.78984 0.41839,-1.15015l0.45537,-0.70468l0.2203,-0.21355l0.16817,-0.26027l0.27159,-0.26326l1.00976,-1.56263l0.43305,-0.91164l0.11197,-0.1417l0.06198,-0.17038l0.01215,-0.0188l0.01971,-0.07446l0.0167,-0.33173l0.09653,-0.3379l0.24675,-1.66819l0.06611,-0.16891l0.009,-0.17877l0.19874,-0.69568l0.00799,-0.26424l0.08585,-0.32451l0.01669,-0.33172l0.43687,-1.52921l0.19536,-0.35491l0.13842,-0.38051l0.10504,-0.16256l0.1307,-0.35926l0.16817,-0.26026l0.10601,-0.29142l0.05154,-0.07975l0.03354,-0.11736l0.19535,-0.35492l0.13842,-0.38051l1.73038,-2.6778l0.2203,-0.21355l0.16817,-0.26026l0.27159,-0.26326l0.37826,-0.58537l0.22029,-0.21355l0.16817,-0.26026l0.44931,-0.43555l0.54216,-0.57451l0.12978,-0.08546l0.09535,-0.12688l0.68326,-0.57258l0.47619,-0.50461l0.12978,-0.08546l0.09535,-0.12688l0.65245,-0.54678l0.54362,-0.6119l0.30115,-0.21195l0.26123,-0.26602l0.73611,-0.4633l0.72175,-0.65708l0.20033,-0.11045l0.16372,-0.16673l2.63999,-1.66159l1.46813,-1.23031l0.24009,-0.11933l0.2053,-0.18091l0.66538,-0.35241l0.55196,-0.41236l0.1804,-0.07694l0.15094,-0.13301l0.83815,-0.4439l0.12177,-0.03008l0.10509,-0.07571l0.45064,-0.18274l1.15934,-0.8661l0.09455,-0.04032l0.07421,-0.07556l3.25946,-2.05148l0.93222,-0.7812l1.13714,-1.24522l0.17377,-0.11867l0.13305,-0.16814l1.26068,-1.00258l0.93035,-1.20546l0.10433,-0.08513l0.0692,-0.11812l1.13826,-1.20621l1.24776,-1.40449l1.18687,-1.57935l3.15049,-4.87545l0.55146,-1.08001l0.40112,-1.10269l0.36919,-1.12057l0.02226,-0.03688l0.00521,-0.04239l0.17825,-0.49003l0.16233,-0.71245l0.03293,-0.06828l0.00375,-0.07467l0.19873,-0.69567l0.00799,-0.26425l0.04583,-0.17318l-0.02618,-0.02756l0.01606,-0.3191l-0.07248,-0.30399l0.09619,-0.16694l0.02466,-0.48996l0.01925,-0.06736l0.00032,-0.00413l-0.04952,-0.23775l0.01803,-0.59667l0.08585,-0.3245l0.0102,-0.20244l-0.06558,-0.40915l0.03002,-0.39923l-0.0335,-0.39443l0.05455,-0.36879l0.03644,-0.0931l-0.10067,-0.42219l0.06275,-0.10893l-0.01701,-0.20033l0.05455,-0.3688l0.47333,-1.2094l0.60421,-0.28467l0.40407,-0.56027l1.20713,-0.19884l0.19472,0.0185l0.02398,-0.01335l0.06285,0.02161l0.06473,0.00615l0.49738,0.18708l0.50277,0.17285l0.05333,0.03634l0.06217,0.02339l0.00938,0.02536l3.21417,2.18972l1.09363,0.56597l0.95161,0.45205l0.12691,0.10901l0.15749,0.05414l0.65756,0.44797l0.33208,0.11417l0.23562,0.16051l0.26937,0.09261l0.25519,0.17385l0.18779,0.21885l0.23562,0.16051l0.4193,0.48864l0.11518,0.23627l0.17313,0.19068l0.18307,0.35115l0.15827,0.05034l0.12057,0.28342l0.19601,0.22843l-0.01808,0.18983l0.1844,0.43349l0.11148,0.15353l0.11771,0.29853l0.17937,0.25898l0.20064,0.54266l0.02755,0.24316l0.09346,0.21969l0.03468,0.21641l0.11798,0.31912l0.02755,0.24316l0.09346,0.21969l0.07305,0.45573l-0.0186,0.24737l0.04952,0.23775l-0.00303,0.10021l0.0337,0.09113l0.02755,0.24316l0.09345,0.21968l0.07305,0.45574l-0.0186,0.24737l0.04953,0.23773l-0.03398,1.12442l0.05394,2.40494l-0.06814,0.32389l0.00173,0.32693l-0.12641,0.55487l0.01115,0.49736l-0.06814,0.32389l0.00174,0.32691l-0.17698,0.77676l-0.07983,0.53968l-0.06542,0.87009l-0.08255,0.26454l-0.01376,0.27351l-0.09653,0.33791l-0.08309,0.56178l-0.10114,0.25842l-0.03356,0.273l-1.15041,3.16246l-0.1191,0.41687l-0.04765,0.08657l-0.01195,0.0972l-0.44032,1.21044l-0.1191,0.41687l-0.19536,0.35491l-0.13842,0.38052l-0.19612,0.30349l-0.13069,0.35926l-0.03331,0.05155l-0.01012,0.0602l-0.32778,0.79162l-0.0241,0.03392l-0.0081,0.04071l-0.3072,0.68396l-0.1399,0.61402l-0.1013,0.21008l-0.03842,0.22839l-0.32777,0.79161l-0.02409,0.03392l-0.00811,0.04071l-0.33781,0.75211l-0.23704,0.82977l-0.0964,0.17513l-0.03884,0.19502l-0.33781,0.75211l-0.23704,0.82977l-0.0768,0.13951l-0.02624,0.156l-0.26774,0.64663l-0.24824,0.86894l-0.04765,0.08657l-0.01195,0.0972l-0.17825,0.49003l-0.08859,0.3888l0.04022,1.79307l0.13552,0.4403l0.0186,0.31239l0.08809,0.29405l0.04789,0.91586l0.53536,3.3402l0.18659,0.60625l0.02084,0.35018l0.08871,0.33341l0.01455,0.64874l0.15508,0.96755l-0.0186,0.24737l0.04952,0.23775l-0.00519,0.17148l0.11529,0.37456l0.02483,0.41701l0.08419,0.40412l-0.03606,1.19333l-0.04061,0.15352l0.01317,0.15506l-0.07611,0.51452l0.01349,0.60149l-0.04693,0.22309l0.01893,0.22303l-0.1091,0.73759l-0.03897,0.09958l0.00055,0.10512l-0.17698,0.77675l-0.20298,1.3723l-0.03897,0.09958l0.00055,0.10512l-0.17698,0.77676l-0.09389,0.6347l-0.03897,0.09958l0.00055,0.10511l-0.20018,0.87855l-0.07533,0.15621l-0.02097,0.17053l-0.10856,0.29843l-0.0448,0.59588l-0.08256,0.26455l-0.01375,0.2735l-0.29125,1.01947l-0.0964,0.17513l-0.03884,0.19502l-0.29444,0.65556l-0.1943,0.95142l-0.14675,0.32259l-0.08197,0.34332l-0.51475,1.04015l-0.32157,0.97601l-0.0901,0.14927l-0.03759,0.1696l-1.00725,2.12049l-0.40683,0.90581l-0.12658,0.16743l-0.07197,0.19784l-2.0036,3.10062l-0.17823,0.17278l-0.12685,0.2165l-0.58295,0.61776l-0.12978,0.08546l-0.09535,0.12688l-0.4931,0.41322l-0.23367,0.36162l-0.07199,0.06979l-0.0124,0.08381l-0.43479,0.34967l-0.4031,0.39075l-0.07927,-0.00283l-0.07766,0.06245l-0.14763,0.06955l-0.18192,0.17635l-0.36042,0.21421l-0.33033,0.26566l-0.23402,0.11027l-0.14621,0.12253l-0.29119,0.14473l-0.25781,0.20735l-0.39155,0.18447l-0.18038,0.11353l-0.36696,0.12161l-0.34658,0.18356l-1.95702,0.48339l-0.70227,0.33087l-0.49012,0.30848l-0.18638,0.06177l-0.07335,0.10171l-0.22038,0.0363l-0.04829,0.04919l-0.0579,0.03644l-0.0514,0.04983l-0.02628,-0.00094l-1.10339,0.69446l-0.18638,0.06177l-0.07335,0.1017l-0.46428,0.07647l-0.17085,0.05663l-0.02086,0.02892l-0.13207,0.02175l-0.12872,0.04266l-0.0282,-0.01681l-0.1753,0.02887l-0.17085,0.05663l-0.02086,0.02892l-0.13207,0.02175l-0.12872,0.04266l-0.0282,-0.01681l-0.1753,0.02887l-0.45251,0.14996l-0.09912,-0.0591l-0.19123,0.0315l-0.34626,-0.03291l-0.1558,-0.0586l-0.16901,0.00251l-0.94771,-0.23969l-0.26452,-0.14953l-0.01212,-0.00116l-0.49738,-0.18708l-0.50276,-0.17285l-0.05333,-0.03634l-0.06218,-0.02339l-0.00938,-0.02536l-0.06839,-0.0466l-0.38316,-0.15436l-0.33391,-0.08445l-0.32359,-0.18292l-0.35173,-0.12092l-0.58259,-0.39689l-0.1091,-0.02759l-0.32359,-0.18292l-0.35173,-0.12092l-0.0722,-0.04919l-0.1091,-0.02759l-0.07893,-0.04462l-0.09144,-0.0061l-0.60145,-0.20676l-0.23562,-0.16051l-0.26937,-0.09261l-0.45498,-0.30996l-0.1091,-0.02759l-0.07893,-0.04462l-0.09144,-0.0061l-0.60145,-0.20676l-0.23562,-0.16051l-0.26937,-0.09261l-1.08643,-0.74016l-0.51668,-0.20815l-0.18393,-0.13974l-0.21794,-0.07493l-15.69409,-10.69198l-0.24522,-0.28576l-0.28992,-0.23504l-0.58342,-0.80344l-0.02519,-0.0639l-0.11688,-0.07963l-0.02639,0.00098l-0.04515,-0.04972l-0.05333,-0.03634l-0.35051,-0.40847l-0.3612,-0.39783l-0.03067,-0.05884l-0.04382,-0.05106l0.00266,-0.02789l-0.09227,-0.17702l-0.29073,-1.2193l0.61833,-1.07318l0.00041,-0.00436l0.00309,-0.00173l0.38548,-0.66907c-0.37089,-0.47265 -0.54165,-1.08773 -0.49059,-1.71008z" fill="url(#color-3)" stroke="none" stroke-width="0.5"/><path d="M266.2391,114.71243l-0.01706,-0.0285l0.01663,-0.06635c0.00562,-0.36464 0.09413,-0.739 0.27398,-1.09233l0.35174,-0.691l0.18263,-0.21838l0.1299,-0.2552l0.22515,-0.26923l0.77995,-1.53226l0.31086,-0.87689l0.08958,-0.14117l0.04058,-0.16181l0.00938,-0.01844l0.01091,-0.0699l-0.01704,-0.3037l0.0561,-0.31802l0.06469,-1.54499l0.04454,-0.16092l-0.00918,-0.16366l0.11553,-0.65478l-0.01849,-0.24132l0.04755,-0.30466l-0.01704,-0.30369l0.25394,-1.43929l0.14575,-0.34431l0.09064,-0.36139l0.08114,-0.15941l0.08558,-0.3412l0.1299,-0.25519l0.06942,-0.27676l0.0398,-0.07819l0.01949,-0.11047l0.14574,-0.3443l0.09065,-0.3614l1.33659,-2.62577l0.18263,-0.21838l0.1299,-0.2552l0.22515,-0.26923l0.29218,-0.57397l0.18263,-0.2184l0.1299,-0.2552l0.37248,-0.4454l0.44465,-0.58201l0.11155,-0.09194l0.07567,-0.12587l0.57522,-0.59567l0.39055,-0.51119l0.11156,-0.09195l0.07567,-0.12585l0.54927,-0.5688l0.44235,-0.61619l0.25748,-0.22576l0.21531,-0.27061l0.63473,-0.50198l0.6025,-0.67676l0.17428,-0.12238l0.13494,-0.1696l2.27643,-1.80035l1.23598,-1.27992l0.21014,-0.13482l0.17196,-0.18706l0.58024,-0.39335l0.4696,-0.43552l0.15914,-0.08973l0.12643,-0.13752l0.73091,-0.49548l0.10954,-0.04066l0.08967,-0.08037l0.39846,-0.21553l0.98633,-0.91476l0.0834,-0.04701l0.06116,-0.07687l2.8106,-2.2228l0.7848,-0.81268l0.92871,-1.25732l0.14894,-0.12697l0.10647,-0.16754l1.0666,-1.05003l0.74156,-1.19858l0.08805,-0.08886l0.05238,-0.11505l0.93357,-1.22197l1.01533,-1.41435l0.94195,-1.56682l2.43352,-4.7807l0.40378,-1.04302l0.26267,-1.04725l0.23142,-1.06005l0.01696,-0.036l0.00067,-0.03915l0.11673,-0.46539l0.08025,-0.66606l0.02374,-0.06573l-0.00383,-0.06837l0.11552,-0.65477l-0.01848,-0.24133l0.02539,-0.16261l-0.02689,-0.02222l-0.01641,-0.29215l-0.09672,-0.26871l0.07251,-0.16242l-0.02517,-0.44857l0.01119,-0.0634l-0.00012,-0.00381l-0.06902,-0.21094l-0.04174,-0.54495l0.04755,-0.30466l-0.01039,-0.18533l-0.10063,-0.36515l-0.01134,-0.36659l-0.06955,-0.35528l0.01431,-0.34156l0.02455,-0.0887l-0.13432,-0.3732l0.04732,-0.10597l-0.03532,-0.18045l0.0143,-0.34157l0.31893,-1.15223l0.53035,-0.32503l0.31847,-0.55399l1.0958,-0.31278l0.1817,-0.00442l0.02084,-0.01476l0.06019,0.01279l0.0604,-0.00147l0.47784,0.11593l0.48142,0.10239l0.05283,0.02723l0.05973,0.0145l0.01114,0.02205l3.18386,1.64164l1.0658,0.39559l0.92343,0.30744l0.12792,0.08534l0.1508,0.03207l0.65135,0.33584l0.31798,0.06763l0.23339,0.12034l0.25792,0.05485l0.25279,0.13034l0.19492,0.17864l0.23339,0.12034l0.43522,0.39888l0.12953,0.20242l0.17861,0.15461l0.2035,0.29955l0.15115,0.02854l0.13913,0.24474l0.20344,0.18647l0.00187,0.17471l0.2128,0.37433l0.11803,0.12753l0.13797,0.2588l0.19106,0.21608l0.23849,0.47191l0.04925,0.21827l0.10785,0.18972l0.05323,0.19313l0.14024,0.27752l0.04925,0.21827l0.10785,0.18971l0.11209,0.40674l0.00703,0.22714l0.06902,0.21094l0.007,0.09152l0.04005,0.07926l0.04925,0.21827l0.10784,0.1897l0.11209,0.40674l0.00703,0.22714l0.06903,0.21093l0.07865,1.02694l0.28521,2.18259l-0.03125,0.30219l0.03359,0.29731l-0.06249,0.51874l0.05899,0.45137l-0.03126,0.3022l0.0336,0.2973l-0.08749,0.72617l-0.02092,0.49982l0.02472,0.79891l-0.05038,0.24974l0.01405,0.2504l-0.0561,0.31802l-0.02178,0.52031l-0.06814,0.24621l-0.00429,0.25209l-0.75331,3.00347l-0.06923,0.39236l-0.03555,0.08399l-0.00153,0.08975l-0.28834,1.14958l-0.06922,0.39236l-0.14575,0.3443l-0.09064,0.3614l-0.15149,0.29759l-0.08558,0.3412l-0.02573,0.05054l-0.00346,0.05588l-0.22534,0.75616l-0.01894,0.0335l-0.00351,0.03792l-0.21687,0.65595l-0.06915,0.57403l-0.07303,0.20224l-0.01314,0.21204l-0.22534,0.75615l-0.01893,0.03352l-0.00351,0.03792l-0.23847,0.72131l-0.13779,0.78097l-0.07192,0.16989l-0.01679,0.1817l-0.23847,0.72131l-0.13779,0.78097l-0.05729,0.13535l-0.00898,0.14482l-0.18407,0.61767l-0.1443,0.81785l-0.03555,0.08399l-0.00153,0.08975l-0.11673,0.46538l-0.04379,0.36348l0.21266,1.62729l0.16829,0.38586l0.04776,0.28224l0.11016,0.25796l0.13388,0.82819l0.82153,2.98111l0.23172,0.53131l0.05355,0.31638l0.11459,0.29372l0.07695,0.58876l0.23797,0.86354l0.00704,0.22714l0.06902,0.21094l0.01199,0.15661l0.14317,0.32827l0.06376,0.37677l0.11734,0.35856l0.08349,1.08987l-0.0225,0.14414l0.02734,0.13966l-0.01995,0.47652l0.07134,0.54587l-0.02152,0.20814l0.03933,0.20089l-0.0286,0.68313l-0.02626,0.09486l0.0108,0.09559l-0.08747,0.72616l-0.05322,1.27095l-0.02626,0.09486l0.0108,0.09559l-0.08747,0.72616l-0.02461,0.58782l-0.02626,0.09486l0.0108,0.09559l-0.09895,0.82133l-0.0543,0.15037l-0.00267,0.15747l-0.0711,0.28343l0.01693,0.54714l-0.05038,0.24974l0.01405,0.25039l-0.1693,0.95953l-0.07191,0.16988l-0.01679,0.1817l-0.20786,0.62871l-0.08638,0.88701l-0.10401,0.30958l-0.04213,0.32137l-0.37376,1.00276l-0.20156,0.92328l-0.06863,0.14568l-0.01814,0.15844l-0.72305,2.03964l-0.28721,0.86872l-0.10055,0.1662l-0.04713,0.18791l-1.54763,3.04035l-0.14775,0.1767l-0.09601,0.21086l-0.47813,0.62583l-0.11156,0.09195l-0.07568,0.12586l-0.41513,0.42988l-0.1805,0.3546l-0.05968,0.07137l-0.00326,0.07763l-0.36747,0.36569l-0.33416,0.3996l-0.07351,0.00609l-0.06564,0.06531l-0.12959,0.07941l-0.15082,0.18034l-0.31202,0.23429l-0.27918,0.27782l-0.20542,0.12589l-0.12308,0.12746l-0.25486,0.1635l-0.2179,0.21684l-0.3437,0.21064l-0.15553,0.123l-0.32713,0.15075l-0.30225,0.2049l-1.76076,0.6536l-0.61644,0.37778l-0.42263,0.33424l-0.16616,0.07657l-0.05781,0.10055l-0.20006,0.05711l-0.03981,0.05004l-0.04992,0.03948l-0.04261,0.05096l-0.02437,0.00202l-0.95143,0.75245l-0.16615,0.07657l-0.0578,0.10055l-0.42147,0.12029l-0.15231,0.07019l-0.01645,0.02861l-0.11988,0.03421l-0.11475,0.05287l-0.02769,-0.01222l-0.15913,0.04543l-0.15231,0.07019l-0.01645,0.02861l-0.11988,0.03421l-0.11475,0.05287l-0.02769,-0.01222l-0.15913,0.04543l-0.40339,0.1859l-0.09736,-0.04296l-0.17359,0.04955l-0.32313,0.00786l-0.14968,-0.03632l-0.15589,0.02073l-0.89904,-0.11462l-0.25903,-0.10718l-0.01132,0.00029l-0.47783,-0.11594l-0.48142,-0.10237l-0.05282,-0.02724l-0.05974,-0.01449l-0.01114,-0.02205l-0.06775,-0.03494l-0.36911,-0.09861l-0.31677,-0.04038l-0.31688,-0.13112l-0.3368,-0.07164l-0.57708,-0.29756l-0.1035,-0.01319l-0.31687,-0.13111l-0.33679,-0.07162l-0.07152,-0.03688l-0.1035,-0.01319l-0.0773,-0.03198l-0.08507,0.00443l-0.57591,-0.12247l-0.23339,-0.12034l-0.25792,-0.05485l-0.45068,-0.23238l-0.10351,-0.0132l-0.0773,-0.03198l-0.08507,0.00443l-0.5759,-0.12247l-0.23339,-0.12034l-0.25792,-0.05485l-1.07619,-0.55489l-0.49773,-0.13299l-0.18361,-0.10707l-0.20869,-0.04437l-15.54611,-8.01576l-0.25452,-0.23326l-0.29086,-0.18223l-0.61766,-0.66742l-0.02953,-0.0554l-0.11578,-0.05971l-0.02429,0.00378l-0.04658,-0.04033l-0.05283,-0.02723l-0.36382,-0.33343l-0.37264,-0.32258l-0.0341,-0.05019l-0.04548,-0.04168l-0.00028,-0.02567l-0.10258,-0.151l-0.38795,-1.0778l0.46622,-1.04412l-0.00004,-0.00402l0.00269,-0.00192l0.29066,-0.65095c-0.38893,-0.38961 -0.60689,-0.93065 -0.62064,-1.50257z" fill="url(#color-4)" stroke="none" stroke-width="0.5"/><path d="M214.54531,186.96762c0,0 18.88478,-18.19982 27.46741,-30.26738c8.49872,-11.94957 23.7791,-41.7875 23.7791,-41.7875l33.7322,16.91854c0,0 -16.07374,29.22186 -20.78051,43.52233c-4.54272,13.80201 -6.98547,40.83816 -6.98547,40.83816z" fill="url(#color-5)" stroke="none" stroke-width="0"/><path d="M260.83687,124.17613l3.29513,-6.45094l33.89101,17.31146l-3.29513,6.45094z" fill="url(#color-6)" stroke="url(#color-7)" stroke-width="0"/><path d="M254.96163,135.24904l3.29513,-6.45094l33.891,17.31146l-3.29513,6.45094z" fill="url(#color-8)" stroke="url(#color-9)" stroke-width="0"/><path d="M260.08259,217.85098c0,14.98335 0.01372,26.93128 -17.8091,27.12975c-16.49564,0.18369 -17.8091,-12.1464 -17.8091,-27.12975c0,-14.98335 2.64508,-26.92288 17.8091,-27.12975c15.82517,-0.21589 17.8091,12.1464 17.8091,27.12975z" fill="url(#color-10)" stroke="url(#color-11)" stroke-width="0"/><path d="M289.82932,217.95549c0,14.98335 0.01372,26.93128 -17.8091,27.12975c-16.49563,0.18369 -17.8091,-12.1464 -17.8091,-27.12975c0,-14.98335 2.64508,-26.92288 17.8091,-27.12975c15.82517,-0.2159 17.8091,12.1464 17.8091,27.12975z" fill="url(#color-12)" stroke="url(#color-13)" stroke-width="0"/><path d="M240.51671,191.78861v-12.07868h4.07958v12.07868z" fill="#312d29" stroke="url(#color-14)" stroke-width="0"/><path d="M269.32156,192.06815v-12.07868h4.07958v12.07868z" fill="#312d29" stroke="url(#color-15)" stroke-width="0"/><path d="M238.91774,184.49552v-3.56521h35.48265v3.56521z" fill="#36322e" stroke="none" stroke-width="0"/><path d="M186.226,244.29878v-75.58741h46.61412v75.58741z" fill="url(#color-16)" stroke="url(#color-17)" stroke-width="0"/><path d="M180.47601,222.29081v-31.51043h57.11412v31.51043z" fill="url(#color-18)" stroke="url(#color-19)" stroke-width="0"/><path d="M188.83301,187.21847v-14.86511h40.61412v14.86511z" fill="url(#color-20)" stroke="url(#color-21)" stroke-width="0"/><path d="M183.22601,214.06215v-14.86511h50.36412v14.86511z" fill="url(#color-22)" stroke="url(#color-23)" stroke-width="0"/><path d="M188.83301,240.66638v-14.86511h40.61412v14.86511z" fill="url(#color-24)" stroke="url(#color-25)" stroke-width="0"/></g></g></svg>