<svg version="1.1" xmlns="http://www.w3.org/2000/svg" xmlns:xlink="http://www.w3.org/1999/xlink" width="63.23166" height="104.85841" viewBox="0,0,63.23166,104.85841"><defs><linearGradient x1="239.97499" y1="155.88971" x2="240.0113" y2="162.74066" gradientUnits="userSpaceOnUse" id="color-1"><stop offset="0" stop-color="#c28b5f"/><stop offset="1" stop-color="#ffb87d"/></linearGradient><radialGradient cx="235.81899" cy="133.25922" r="13.11833" gradientUnits="userSpaceOnUse" id="color-2"><stop offset="0" stop-color="#ffd9ba"/><stop offset="1" stop-color="#ffb87d"/></radialGradient><radialGradient cx="230.34584" cy="133.62729" r="10.07074" gradientUnits="userSpaceOnUse" id="color-3"><stop offset="0" stop-color="#303030"/><stop offset="1" stop-color="#292929"/></radialGradient><radialGradient cx="246.81216" cy="130.65177" r="2.65078" gradientUnits="userSpaceOnUse" id="color-4"><stop offset="0" stop-color="#787878"/><stop offset="1" stop-color="#292929"/></radialGradient><radialGradient cx="235.63383" cy="132.6781" r="4.17314" gradientUnits="userSpaceOnUse" id="color-5"><stop offset="0" stop-color="#a7a7a7"/><stop offset="1" stop-color="#292929"/></radialGradient><radialGradient cx="274.20443" cy="169.37628" r="0.96706" gradientUnits="userSpaceOnUse" id="color-6"><stop offset="0" stop-color="#c6beb6"/><stop offset="1" stop-color="#a9a4a1"/></radialGradient><radialGradient cx="276.02329" cy="169.96508" r="3.98079" gradientUnits="userSpaceOnUse" id="color-7"><stop offset="0" stop-color="#d9d0c7"/><stop offset="1" stop-color="#b7b1ad"/></radialGradient></defs><g transform="translate(-218.87309,-129.46797)"><g data-paper-data="{&quot;isPaintingLayer&quot;:true}" fill-rule="nonzero" stroke-linejoin="miter" stroke-miterlimit="10" stroke-dasharray="" stroke-dashoffset="0" style="mix-blend-mode: normal"><path d="M236.18326,162.76096l-0.0363,-6.85095l7.65603,-0.04057l0.0363,6.85095z" fill="url(#color-1)" stroke="#000000" stroke-width="0" stroke-linecap="butt"/><path d="M252.97057,143.39811c0.04097,7.73081 -5.66349,14.02827 -12.74126,14.06577c-7.07775,0.0375 -12.84863,-6.19916 -12.88959,-13.92998c-0.04097,-7.73081 5.66349,-14.02826 12.74126,-14.06576c7.07775,-0.0375 12.84863,6.19915 12.88959,13.92997z" fill="url(#color-2)" stroke="none" stroke-width="0" stroke-linecap="butt"/><path d="M240.93601,144.83356c-0.50263,0.91633 -1.37809,0.39159 -1.37809,0.39159c-0.88318,-0.55226 -2.36692,-1.16244 -2.23104,-2.68358c0.11103,-1.24312 2.04958,-2.35152 3.07867,-2.1244c1.86683,0.41202 3.48905,3.93116 0.53047,4.41639z" fill="#191412" stroke="none" stroke-width="0.5" stroke-linecap="butt"/><path d="M245.36399,148.99735c0.11278,-0.4694 0.37573,-0.57295 0.57004,-0.57991c0.0617,-0.00533 0.12486,0.00079 0.1877,0.01962c-0.22844,-1.08014 -0.093,-2.47858 -0.36817,-3.52351c0,0 -0.20216,-0.78312 0.40676,-1.04311c0.60891,-0.26 0.81108,0.52314 0.81108,0.52314c0.33159,1.30635 0.57829,2.9153 0.56243,4.31264c-0.00595,0.52363 0.20592,1.22967 -0.10684,1.56506c-0.32454,0.34803 -0.8437,-0.06222 -1.26555,-0.09334l-0.37388,-0.14857c-0.07748,-0.03079 -0.14716,-0.07873 -0.2073,-0.13958c-0.15739,-0.14672 -0.32907,-0.42301 -0.21628,-0.8924z" fill="#191412" stroke="none" stroke-width="0.5" stroke-linecap="butt"/><path d="M251.57332,143.74334c-0.29996,0.21134 -0.8931,0.2353 -0.8931,0.2353c-0.59908,0.02047 -1.69698,-0.43003 -1.65824,-0.6938c0.03164,-0.21556 1.37134,-0.10063 2.05555,-0.19204c0.67763,-0.09053 1.25655,-0.4508 1.40272,-0.29681c0.12155,0.12807 -0.03102,0.74415 -0.90691,0.94733z" fill="#191412" stroke="none" stroke-width="0.5" stroke-linecap="butt"/><g stroke-linecap="butt"><path d="M233.03592,133.67025c-0.17002,0.01342 -0.60733,0.05469 -1.08072,0.13039c-0.52439,0.20092 -1.13616,0.40364 -1.60543,0.62781c-0.30016,0.88911 0.76458,1.81667 -0.68491,2.46687c-2.47208,1.10896 -1.69109,-2.06005 -0.85988,-3.04777c1.28433,-1.09066 3.15874,-1.20025 4.77454,-1.48979c2.22561,-0.39885 4.39746,-1.02879 6.59433,-1.13553c0.08355,-0.08519 0.19711,-0.14168 0.32544,-0.15165l0.58673,-0.04561c0.29633,-0.07406 0.61828,-0.15095 0.9564,-0.2232c0.87979,-0.26304 1.93601,-0.39222 2.91961,-0.47243c0.48295,-0.08863 0.93495,-0.12729 1.3079,-0.08912c0.27411,-0.01684 0.52905,-0.03273 0.75678,-0.05047l0.61852,-0.04809c0.28171,-0.02191 0.52783,0.18872 0.54975,0.47043c0.01947,0.25073 -0.14518,0.47327 -0.38028,0.53463l-0.33087,0.09335c0.14347,0.1236 0.27328,0.26454 0.38719,0.42454l0.2356,-0.11617l0.29036,0.58886c0.03104,0.05943 0.05083,0.12596 0.05635,0.19702c0.02191,0.28171 -0.18872,0.52783 -0.47041,0.54973c-0.08568,0.00665 -0.16806,-0.00818 -0.24184,-0.03999l-0.50452,-0.20507l0.00604,-0.01484l-0.04781,-0.00437c-0.35928,-0.22822 -0.72553,-0.40154 -1.092,-0.52039c-0.55918,-0.02702 -1.1469,-0.09546 -1.74614,-0.15192c-1.01674,0.16189 -1.94323,0.77839 -2.61343,1.83865c0,0 -0.27432,0.43187 -0.70618,0.15754c-0.43186,-0.27432 -0.15753,-0.70619 -0.15753,-0.70619c0.05866,-0.09194 0.11912,-0.18131 0.18133,-0.2681l-0.28502,0.08699c-0.03818,0.01253 -0.07843,0.02071 -0.12027,0.02397c-0.28171,0.02191 -0.52783,-0.18872 -0.54973,-0.47042c-0.0111,-0.14256 0.03737,-0.27603 0.12448,-0.37592c-0.24508,-0.00255 -0.47673,0.00793 -0.67422,0.05403c-1.37935,0.32213 -3.49296,0.40864 -5.48956,0.68971c0.00821,0.24138 -0.15358,0.45248 -0.38154,0.51198l-0.59977,0.1692l-0.00546,-0.01938l-0.0075,0.00185z" fill="url(#color-3)" stroke="none" stroke-width="0.5"/><path d="M248.17512,130.12701c2.71227,-0.25051 2.6884,-0.21012 2.88049,1.62264c0.1921,1.83274 -0.82364,3.35189 -2.26871,3.39309c-1.44508,0.04122 -2.77229,-1.41111 -2.96439,-3.24386c-0.1921,-1.83274 -0.19075,-1.53697 2.35261,-1.77188z" data-paper-data="{&quot;index&quot;:null}" fill="url(#color-4)" stroke="#000000" stroke-width="0"/><path d="M241.52231,132.72543c0.33279,1.99571 -1.2232,3.918 -3.4754,4.29356c-2.25219,0.37553 -4.34773,-0.93786 -4.68051,-2.93357c-0.33279,-1.99571 -0.38369,-2.03154 3.90303,-2.55313c4.01972,-0.48911 3.9201,-0.80256 4.25287,1.19315z" fill="url(#color-5)" stroke="#000000" stroke-width="0"/></g><g stroke="#000000" stroke-width="0" stroke-linecap="butt"><path d="M278.59515,172.45783c-0.13043,0.16336 2.93391,1.76444 2.43289,2.48993c-0.24643,0.35683 -1.94315,-1.12236 -2.92104,-1.01282c-0.51763,0.05798 3.56851,1.71973 2.57664,2.45166c-0.34051,0.25127 -2.8949,-1.60864 -3.76462,-1.64779c-0.46557,-0.02097 4.15459,2.41307 3.52649,2.9259c-0.37284,0.30443 -2.6057,-1.53695 -3.88178,-1.93996c-0.62167,-0.19633 2.84703,2.12942 2.29588,2.43951c-0.33736,0.1898 -3.84789,-1.90106 -3.90753,-1.8934c-0.33527,0.04287 1.40067,1.92144 0.74625,1.838c-1.20616,-0.15373 -1.83031,-1.60965 -2.49219,-2.85765c-0.3867,-0.72917 -1.29966,-1.31516 -1.29966,-1.31516c0,0 -2.07434,-1.83821 -5.09579,-3.03296c-0.72658,-0.28731 -3.0236,-1.38459 -3.77315,-1.67255c-1.7739,-0.6815 -3.55935,-1.29546 -4.63579,-1.7394c-2.31531,-0.95487 -5.21755,-2.23086 -5.21755,-2.23086l2.18332,-5.06542c0,0 4.17683,1.7559 6.63844,2.77109c1.0018,0.41316 1.51908,1.23074 3.04347,1.93013c0.68335,0.31351 3.40342,2.06341 5.11606,3.0542c2.8515,1.64968 4.75942,2.34458 4.75942,2.34458c0,0 3.94652,1.81692 3.67024,2.16302z" data-paper-data="{&quot;index&quot;:null}" fill="#ffb77d"/><path d="M247.9959,162.20174c1.63586,-4.71586 4.78994,-3.64852 6.45653,-2.91093c1.66662,0.7376 2.00111,-0.79426 0.48079,3.51999c-1.28501,3.64651 -1.35102,3.01694 -3.01765,2.27935c-1.66662,-0.7376 -4.77161,-0.43243 -3.91969,-2.8884z" data-paper-data="{&quot;index&quot;:null}" fill="#ffffff"/></g><path d="M226.12339,227.23573l3.75904,-33.71008c0,0 6.75518,-2.18267 9.822,-2.18267c3.62872,0 10.54956,2.18267 10.54956,2.18267l3.03149,33.71008h-7.63934c0,0 -1.32697,-25.53818 -2.03751,-29.57011c-0.20138,-1.1427 -3.2979,-2.07857 -3.2979,-2.07857c0,0 -3.09204,0.08829 -3.39803,1.52409c-0.93579,4.39099 -2.78619,30.12458 -2.78619,30.12458z" fill="#726f7c" stroke="#000000" stroke-width="0" stroke-linecap="butt"/><path d="M230.04821,193.30295c0,0 0.13763,-5.5605 -0.41066,-10.9418c-0.37255,-3.65656 -1.44157,-6.95165 -1.61168,-9.44498c-0.31926,-4.67971 -0.28139,-13.38093 -0.28139,-13.38093c0,0 3.68863,-0.60432 5.46816,-0.24754c2.26524,0.45414 7.02124,2.75152 7.02124,2.75152c0,0 3.66534,-2.19005 5.57652,-2.61646c2.01656,-0.44991 6.22371,-0.01622 6.22371,-0.01622c0,0 -0.02021,9.21734 -0.15982,12.65731c-0.12353,3.04354 -0.85582,6.37274 -1.12584,10.87904c-0.2783,4.64451 -0.09262,10.42217 -0.09262,10.42217c0,0 -2.76102,-0.7547 -5.57624,-0.808c-1.27849,-0.02421 -1.7859,1.0156 -2.99229,1.18118c-0.96427,0.13235 -2.63943,-0.59894 -3.56446,-0.63077c-0.69929,-0.02407 -2.04656,-0.51975 -2.54083,-0.52126c-0.99798,-0.00301 -1.6111,0.87384 -2.76799,1.03933c-1.34384,0.19221 -3.16585,-0.32262 -3.16585,-0.32262z" fill="#ffffff" stroke="#292e32" stroke-width="0" stroke-linecap="butt"/><g><path d="M259.69261,234.32551c-0.59276,0 -2.64411,0.01365 -4.70436,-0.0669c-1.25258,-0.04897 -1.90215,-0.61779 -2.83553,-0.76063c-1.17507,-0.17982 -2.93854,0.22047 -3.78778,0.02896c-1.56485,-0.35288 -2.37463,-0.77782 -2.37463,-0.77782c0,0 -0.26911,-1.0254 -0.2856,-1.5858c-0.02221,-0.75501 0.16433,-2.53701 0.16433,-2.53701c0,0 5.93425,-0.11957 8.24914,0.08076c1.36979,0.11854 4.24057,0.6468 4.24057,0.6468c0,0 1.45976,0.6156 1.67337,1.04283c0.26162,0.52325 0.87307,1.98865 0.87307,1.98865c0,0 -0.3857,1.94015 -1.21259,1.94015z" data-paper-data="{&quot;index&quot;:null}" fill="#141415" stroke="#000000" stroke-width="0" stroke-linecap="butt"/><path d="M259.4217,231.7507c-0.24822,0 0.7024,1.60165 -2.61811,1.33311c-3.13563,-0.25358 -2.77648,-1.18823 -3.8809,-1.26883c-2.30937,-0.16854 -2.58765,0.59503 -3.58732,0.44205c-0.34815,-0.05328 -0.51271,-0.11454 -1.78459,-0.97035c-0.87472,-0.58857 -0.66566,-1.75122 -1.26542,-2.3793c-0.87609,-0.91745 -0.80847,-1.8858 -0.80847,-1.8858l-0.07637,-3.04773c0,0 0.48635,2.20681 1.32529,3.03122c0.75062,0.73761 2.3169,-0.01875 2.80058,-0.01889c0.84696,-0.00024 -0.68885,-3.26804 0.12091,-3.2498c0.43542,0.00981 3.72275,-0.23409 3.72275,-0.23409c0,0 0.12302,3.57989 0.35598,3.60005c1.36979,0.11854 4.60434,0.6468 4.60434,0.6468c0,0 1.45976,0.6156 1.67338,1.04283c0.26162,0.52325 0.63055,2.95873 0.63055,2.95873c0,0 -0.3857,0 -1.2126,0z" data-paper-data="{&quot;index&quot;:null}" fill="#252527" stroke="#000000" stroke-width="0" stroke-linecap="butt"/><path d="M251.95162,228.8121l2.6677,-1.09133" fill="none" stroke="#ffffff" stroke-width="0.5" stroke-linecap="round"/><path d="M256.43822,227.72077l-2.54645,1.45511" fill="none" stroke="#ffffff" stroke-width="0.5" stroke-linecap="round"/><path d="M256.07443,229.4184l1.45512,-1.45511" fill="none" stroke="#ffffff" stroke-width="0.5" stroke-linecap="round"/><path d="M252.92169,224.68929l-2.18266,0.24252" fill="none" stroke="#969696" stroke-width="0.5" stroke-linecap="round"/><path d="M251.22407,225.78062l1.94015,-0.36378" fill="none" stroke="#969696" stroke-width="0.5" stroke-linecap="round"/></g><g data-paper-data="{&quot;index&quot;:null}"><path d="M218.8731,232.29247c0,0 0.61145,-1.46541 0.87307,-1.98866c0.21362,-0.42723 1.67337,-1.04283 1.67337,-1.04283c0,0 2.87078,-0.52826 4.24057,-0.6468c2.3149,-0.20032 8.24914,-0.08075 8.24914,-0.08075c0,0 0.18654,1.78201 0.16433,2.53701c-0.01648,0.56041 -0.2856,1.5858 -0.2856,1.5858c0,0 -0.80978,0.42493 -2.37463,0.77781c-0.84924,0.19151 -2.6127,-0.20879 -3.78777,-0.02896c-0.93338,0.14284 -1.58295,0.71166 -2.83553,0.76063c-2.06025,0.08055 -4.1116,0.06689 -4.70436,0.06689c-0.8269,0 -1.2126,-1.94015 -1.2126,-1.94015z" data-paper-data="{&quot;index&quot;:null}" fill="#141415" stroke="#000000" stroke-width="0" stroke-linecap="butt"/><path d="M219.144,231.65781c0,0 0.36892,-2.43548 0.63055,-2.95873c0.21362,-0.42723 1.67337,-1.04283 1.67337,-1.04283c0,0 3.23456,-0.52826 4.60434,-0.6468c0.23296,-0.02016 0.35598,-3.60004 0.35598,-3.60004c0,0 3.28733,0.24389 3.72275,0.23408c0.80976,-0.01824 -0.72604,3.24957 0.12091,3.24981c0.48368,0.00014 2.04996,0.7565 2.80058,0.01889c0.83894,-0.82441 1.32529,-3.03123 1.32529,-3.03123l-0.07637,3.04773c0,0 0.06762,0.96834 -0.80847,1.8858c-0.59976,0.62808 -0.39071,1.79073 -1.26542,2.3793c-1.27187,0.85581 -1.43643,0.91707 -1.78458,0.97035c-0.99967,0.15299 -1.27796,-0.61058 -3.58733,-0.44204c-1.10442,0.0806 -0.74527,1.01524 -3.8809,1.26883c-3.3205,0.26854 -2.36989,-1.33311 -2.61811,-1.33311c-0.8269,0 -1.21259,0 -1.21259,0z" data-paper-data="{&quot;index&quot;:null}" fill="#252527" stroke="#000000" stroke-width="0" stroke-linecap="butt"/><path d="M225.15898,227.62787l2.66771,1.09134" fill="none" stroke="#ffffff" stroke-width="0.5" stroke-linecap="round"/><path d="M225.88653,229.08299l-2.54644,-1.45511" fill="none" stroke="#ffffff" stroke-width="0.5" stroke-linecap="round"/><path d="M223.70387,229.32551l-1.45512,-1.45512" fill="none" stroke="#ffffff" stroke-width="0.5" stroke-linecap="round"/><path d="M229.03928,224.83892l-2.18267,-0.24252" fill="none" stroke="#969696" stroke-width="0.5" stroke-linecap="round"/><path d="M228.55424,225.68773l-1.94015,-0.36378" fill="none" stroke="#969696" stroke-width="0.5" stroke-linecap="round"/></g><path d="M263.50861,202.12714c0,0 -11.74465,-22.21872 -11.69016,-33.09809c0.05299,-10.58113 12.01273,-31.3083 12.01273,-31.3083l0.79977,0.00394c0,0 -11.9577,20.64769 -12.01025,31.14108c-0.05486,10.95549 11.68771,33.26532 11.68771,33.26532z" fill="#2e2c2a" stroke="none" stroke-width="0" stroke-linecap="butt"/><g stroke="none" stroke-width="0" stroke-linecap="butt"><path d="M264.77863,130.24865c0,0 -1.63623,4.2582 1.95869,10.54878c4.03728,7.06473 12.31186,17.3962 14.20831,24.51862c0.25741,0.96681 -1.66127,2.49165 -1.66545,3.324c-0.00538,1.07417 1.88966,1.60379 1.59744,2.80705c-2.11373,8.7038 -10.95789,20.36084 -15.33817,28.8374c-2.81899,5.45528 -1.15779,9.23355 -1.15779,9.23355c0,0 -2.79799,-3.83675 -1.39116,-8.89499c2.72022,-9.78041 15.50672,-23.04857 15.55152,-31.99735c0.03567,-7.12243 -12.78179,-20.12987 -15.21979,-27.95341c-1.9436,-6.23699 1.45642,-10.42369 1.45642,-10.42369z" fill="#403c36"/><path d="M268.7894,192.06762l4.43678,-7.79023l2.24487,0.80016l-4.43678,7.79023z" fill="#7d6239"/><path d="M270.56075,144.84207l4.35855,7.83349l-2.25275,0.77801l-4.35858,-7.83349z" data-paper-data="{&quot;index&quot;:null}" fill="#7d6239"/></g><g stroke="none" stroke-width="0" stroke-linecap="butt"><path d="M273.69029,168.2294l-0.08597,1.58266l-19.76284,0.06315l0.08595,-1.58266z" fill="#8c7463"/><path d="M274.20884,170.24666c-0.5422,0.0017 -0.95001,-0.5815 -0.91086,-1.30265c0.03915,-0.72115 0.51042,-1.3072 1.05268,-1.30892c0.5422,-0.0017 0.95001,0.58145 0.91084,1.30261c-0.03915,0.72115 -0.51041,1.30726 -1.05266,1.30897z" fill="url(#color-6)"/><path d="M282.10475,168.91586l-8.21352,2.42919l1.45315,-2.4076l-1.19216,-2.39913z" fill="url(#color-7)"/><path d="M256.17202,168.55078l-1.69785,0.23216l-1.63009,-3.91807z" fill="#d7d7d7"/><path d="M255.15571,168.49353l-1.90361,0.26033l-1.82765,-4.39297z" fill="#e2e2e2"/><path d="M257.94115,168.53168l-1.28309,0.17541l-1.23192,-2.96098z" fill="#d7d7d7"/><path d="M257.17315,168.48846l-1.43865,0.1967l-1.38126,-3.31992z" fill="#e2e2e2"/><path d="M259.35392,168.36066l-1.0757,0.14708l-1.03285,-2.48246z" fill="#d7d7d7"/><path d="M258.7101,168.32442l-1.20615,0.16494l-1.15801,-2.7834z" fill="#e2e2e2"/><path d="M252.20019,173.47701l2.05616,-3.92986l1.6732,0.22138z" fill="#d7d7d7"/><path d="M250.72532,173.99027l2.30538,-4.4062l1.87608,0.24824z" fill="#e2e2e2"/><path d="M254.87883,172.57896l1.55396,-2.96986l1.26451,0.1673z" fill="#d7d7d7"/><path d="M253.76415,172.96679l1.74235,-3.32989l1.41778,0.18765z" fill="#e2e2e2"/><path d="M256.7291,172.28811l1.30278,-2.48993l1.06013,0.1402z" fill="#d7d7d7"/><path d="M255.79455,172.61327l1.46073,-2.79173l1.18866,0.15727z" fill="#e2e2e2"/><path d="M259.55155,168.19928l-0.0931,1.7146l-6.61337,0.02116l0.09312,-1.7146z" fill="#7c6352"/></g><path d="M240.66732,177.10174c-2.54266,0.46123 -5.87275,0.85367 -6.85084,0.9238c-0.42265,0.0303 -4.97381,-0.01992 -6.78564,-1.73594c-3.82637,-2.106 -4.38939,-11.25767 -4.38939,-11.25767l6.87061,-1.36192c0,0 -0.16933,5.23114 1.99039,6.83618c2.32308,0.45857 2.67918,0.35824 5.15928,0.36046c1.0479,0.00093 2.11628,-0.28048 3.79271,-0.76827c3.92204,-0.53562 4.60019,-1.6056 5.39943,-2.41335c1.3679,-1.38255 2.78211,-3.07477 4.33054,-2.64215c0.84016,0.23474 -2.12646,1.91922 -1.73418,2.15868c0.06978,0.04261 5.30834,-0.9862 5.63777,-0.54107c0.53816,0.7271 -4.75368,2.10535 -3.90347,2.16527c1.74522,0.12308 5.30498,-1.24336 5.62687,-0.61971c0.5423,1.05061 -6.21061,1.96229 -5.63,2.18273c1.0846,0.41173 5.04709,-0.80813 5.35302,-0.27579c0.89106,1.55064 -4.86268,1.6735 -4.25336,2.03171c1.1511,0.6767 3.89171,-0.4729 4.03517,0.15597c0.29167,1.27858 -4.18132,1.86472 -4.09403,2.16207c0.18487,0.6299 -4.82448,1.54065 -4.82448,1.54065c0,0 -1.49694,0.33049 -5.73042,1.09836z" fill="#ffb77d" stroke="#000000" stroke-width="0" stroke-linecap="butt"/><path d="M230.41862,163.8852c1.02442,2.14508 1.93968,2.16011 -3.41187,4.30517c-6.33156,2.53788 -4.08963,1.91162 -5.11406,-0.23346c-1.02442,-2.14508 -2.48443,-6.24295 4.43571,-8.98227c3.60392,-1.42659 3.06578,2.7655 4.0902,4.9106z" fill="#ffffff" stroke="#000000" stroke-width="0" stroke-linecap="butt"/></g></g></svg>