<svg version="1.1" xmlns="http://www.w3.org/2000/svg" xmlns:xlink="http://www.w3.org/1999/xlink" width="240.22991" height="207.66934" viewBox="0,0,240.22991,207.66934"><defs><linearGradient x1="131.30869" y1="156.02043" x2="131.30869" y2="173.93104" gradientUnits="userSpaceOnUse" id="color-1"><stop offset="0" stop-color="#000000"/><stop offset="1" stop-color="#2b2b2b"/></linearGradient><linearGradient x1="327.30462" y1="74.52343" x2="327.30462" y2="175.02342" gradientUnits="userSpaceOnUse" id="color-2"><stop offset="0" stop-color="#000000"/><stop offset="1" stop-color="#2b2b2b"/></linearGradient><radialGradient cx="163.74931" cy="126.8528" r="44.01307" gradientUnits="userSpaceOnUse" id="color-3"><stop offset="0" stop-color="#696969"/><stop offset="1" stop-color="#2e2e2e"/></radialGradient><radialGradient cx="163.74931" cy="126.8528" r="44.01307" gradientUnits="userSpaceOnUse" id="color-4"><stop offset="0" stop-color="#e0e0e0"/><stop offset="1" stop-color="#7d7d7d"/></radialGradient><radialGradient cx="226.01576" cy="79.53123" r="34.5" gradientUnits="userSpaceOnUse" id="color-5"><stop offset="0" stop-color="#94c9e0"/><stop offset="1" stop-color="#41687d"/></radialGradient><radialGradient cx="208.68377" cy="93.15431" r="34.5" gradientUnits="userSpaceOnUse" id="color-6"><stop offset="0" stop-color="#b6cee0"/><stop offset="1" stop-color="#4d697d"/></radialGradient><radialGradient cx="195.50929" cy="80.54953" r="44.16667" gradientUnits="userSpaceOnUse" id="color-7"><stop offset="0" stop-color="#e19641"/><stop offset="1" stop-color="#7d4800"/></radialGradient><radialGradient cx="199.62933" cy="74.53484" r="44.16667" gradientUnits="userSpaceOnUse" id="color-8"><stop offset="0" stop-color="#e0ccb5"/><stop offset="1" stop-color="#7d694d"/></radialGradient><linearGradient x1="165.87997" y1="77.23474" x2="153.30983" y2="86.66168" gradientUnits="userSpaceOnUse" id="color-9"><stop offset="0" stop-color="#191919"/><stop offset="1" stop-color="#000000"/></linearGradient><linearGradient x1="189.71744" y1="104.533" x2="177.1473" y2="113.95994" gradientUnits="userSpaceOnUse" id="color-10"><stop offset="0" stop-color="#191919"/><stop offset="1" stop-color="#000000"/></linearGradient><linearGradient x1="162.13212" y1="81.50425" x2="182.49652" y2="108.65868" gradientUnits="userSpaceOnUse" id="color-11"><stop offset="0" stop-color="#303030"/><stop offset="1" stop-color="#212121"/></linearGradient><radialGradient cx="172.89805" cy="88.01144" r="17.57007" gradientUnits="userSpaceOnUse" id="color-12"><stop offset="0" stop-color="#626262"/><stop offset="1" stop-color="#2e2e2e"/></radialGradient><radialGradient cx="173.23009" cy="93.29802" r="4.876" gradientUnits="userSpaceOnUse" id="color-13"><stop offset="0" stop-color="#fff67b"/><stop offset="1" stop-color="#ffd300"/></radialGradient><linearGradient x1="162.46735" y1="102.2166" x2="164.31812" y2="100.82863" gradientUnits="userSpaceOnUse" id="color-14"><stop offset="0" stop-color="#2b281f"/><stop offset="1" stop-color="#1f1c15"/></linearGradient><linearGradient x1="162.46735" y1="102.2166" x2="164.31812" y2="100.82863" gradientUnits="userSpaceOnUse" id="color-15"><stop offset="0" stop-color="#464646"/><stop offset="1" stop-color="#353535"/></linearGradient><radialGradient cx="158.42643" cy="92.64581" r="20.51445" gradientUnits="userSpaceOnUse" id="color-16"><stop offset="0" stop-color="#e8e46e"/><stop offset="1" stop-color="#b59317"/></radialGradient><linearGradient x1="163.61047" y1="101.35933" x2="166.44106" y2="99.23653" gradientUnits="userSpaceOnUse" id="color-17"><stop offset="0" stop-color="#464646"/><stop offset="1" stop-color="#353535"/></linearGradient><linearGradient x1="181.61996" y1="65.43056" x2="169.95953" y2="74.17528" gradientUnits="userSpaceOnUse" id="color-18"><stop offset="0" stop-color="#191919"/><stop offset="1" stop-color="#000000"/></linearGradient><linearGradient x1="203.30359" y1="94.34409" x2="191.64316" y2="103.0888" gradientUnits="userSpaceOnUse" id="color-19"><stop offset="0" stop-color="#191919"/><stop offset="1" stop-color="#000000"/></linearGradient><linearGradient x1="196.45944" y1="76.72432" x2="194.60867" y2="78.1123" gradientUnits="userSpaceOnUse" id="color-20"><stop offset="0" stop-color="#2b281f"/><stop offset="1" stop-color="#1f1c15"/></linearGradient><linearGradient x1="196.45944" y1="76.72432" x2="194.60867" y2="78.1123" gradientUnits="userSpaceOnUse" id="color-21"><stop offset="0" stop-color="#464646"/><stop offset="1" stop-color="#353535"/></linearGradient><linearGradient x1="176.78385" y1="70.51622" x2="197.14825" y2="97.67064" gradientUnits="userSpaceOnUse" id="color-22"><stop offset="0" stop-color="#303030"/><stop offset="1" stop-color="#212121"/></linearGradient><radialGradient cx="187.54979" cy="77.0234" r="17.57006" gradientUnits="userSpaceOnUse" id="color-23"><stop offset="0" stop-color="#626262"/><stop offset="1" stop-color="#2e2e2e"/></radialGradient><radialGradient cx="188.40337" cy="70.16465" r="20.51446" gradientUnits="userSpaceOnUse" id="color-24"><stop offset="0" stop-color="#e8e46e"/><stop offset="1" stop-color="#b59317"/></radialGradient><linearGradient x1="195.31632" y1="77.58159" x2="192.48573" y2="79.70439" gradientUnits="userSpaceOnUse" id="color-25"><stop offset="0" stop-color="#464646"/><stop offset="1" stop-color="#353535"/></linearGradient><radialGradient cx="187.88183" cy="82.30999" r="4.876" gradientUnits="userSpaceOnUse" id="color-26"><stop offset="0" stop-color="#fff67b"/><stop offset="1" stop-color="#ffd300"/></radialGradient><radialGradient cx="173.07815" cy="81.65778" r="20.51446" gradientUnits="userSpaceOnUse" id="color-27"><stop offset="0" stop-color="#e8e46e"/><stop offset="1" stop-color="#b59317"/></radialGradient><linearGradient x1="178.26221" y1="90.37129" x2="181.0928" y2="88.2485" gradientUnits="userSpaceOnUse" id="color-28"><stop offset="0" stop-color="#464646"/><stop offset="1" stop-color="#353535"/></linearGradient><linearGradient x1="190.4532" y1="110.00134" x2="177.88306" y2="119.42828" gradientUnits="userSpaceOnUse" id="color-29"><stop offset="0" stop-color="#191919"/><stop offset="1" stop-color="#000000"/></linearGradient><linearGradient x1="214.29067" y1="137.2996" x2="201.72053" y2="146.72654" gradientUnits="userSpaceOnUse" id="color-30"><stop offset="0" stop-color="#191919"/><stop offset="1" stop-color="#000000"/></linearGradient><linearGradient x1="186.70535" y1="114.27085" x2="207.06975" y2="141.42528" gradientUnits="userSpaceOnUse" id="color-31"><stop offset="0" stop-color="#303030"/><stop offset="1" stop-color="#212121"/></linearGradient><radialGradient cx="197.47129" cy="120.77803" r="17.57006" gradientUnits="userSpaceOnUse" id="color-32"><stop offset="0" stop-color="#626262"/><stop offset="1" stop-color="#2e2e2e"/></radialGradient><radialGradient cx="197.80332" cy="126.0646" r="4.876" gradientUnits="userSpaceOnUse" id="color-33"><stop offset="0" stop-color="#fff67b"/><stop offset="1" stop-color="#ffd300"/></radialGradient><linearGradient x1="187.04059" y1="134.9832" x2="188.89135" y2="133.59523" gradientUnits="userSpaceOnUse" id="color-34"><stop offset="0" stop-color="#2b281f"/><stop offset="1" stop-color="#1f1c15"/></linearGradient><linearGradient x1="187.04059" y1="134.9832" x2="188.89135" y2="133.59523" gradientUnits="userSpaceOnUse" id="color-35"><stop offset="0" stop-color="#464646"/><stop offset="1" stop-color="#353535"/></linearGradient><radialGradient cx="182.99967" cy="125.41241" r="20.51445" gradientUnits="userSpaceOnUse" id="color-36"><stop offset="0" stop-color="#e8e46e"/><stop offset="1" stop-color="#b59317"/></radialGradient><linearGradient x1="188.1837" y1="134.12593" x2="191.0143" y2="132.00313" gradientUnits="userSpaceOnUse" id="color-37"><stop offset="0" stop-color="#464646"/><stop offset="1" stop-color="#353535"/></linearGradient><linearGradient x1="206.1932" y1="98.19716" x2="194.53277" y2="106.94187" gradientUnits="userSpaceOnUse" id="color-38"><stop offset="0" stop-color="#191919"/><stop offset="1" stop-color="#000000"/></linearGradient><linearGradient x1="227.87683" y1="127.11069" x2="216.2164" y2="135.8554" gradientUnits="userSpaceOnUse" id="color-39"><stop offset="0" stop-color="#191919"/><stop offset="1" stop-color="#000000"/></linearGradient><linearGradient x1="221.03267" y1="109.49092" x2="219.18191" y2="110.8789" gradientUnits="userSpaceOnUse" id="color-40"><stop offset="0" stop-color="#2b281f"/><stop offset="1" stop-color="#1f1c15"/></linearGradient><linearGradient x1="221.03267" y1="109.49092" x2="219.18191" y2="110.8789" gradientUnits="userSpaceOnUse" id="color-41"><stop offset="0" stop-color="#464646"/><stop offset="1" stop-color="#353535"/></linearGradient><linearGradient x1="201.35709" y1="103.28282" x2="221.72148" y2="130.43723" gradientUnits="userSpaceOnUse" id="color-42"><stop offset="0" stop-color="#303030"/><stop offset="1" stop-color="#212121"/></linearGradient><radialGradient cx="212.12302" cy="109.79" r="17.57006" gradientUnits="userSpaceOnUse" id="color-43"><stop offset="0" stop-color="#626262"/><stop offset="1" stop-color="#2e2e2e"/></radialGradient><radialGradient cx="212.97661" cy="102.93126" r="20.51446" gradientUnits="userSpaceOnUse" id="color-44"><stop offset="0" stop-color="#e8e46e"/><stop offset="1" stop-color="#b59317"/></radialGradient><linearGradient x1="219.88956" y1="110.3482" x2="217.05897" y2="112.47099" gradientUnits="userSpaceOnUse" id="color-45"><stop offset="0" stop-color="#464646"/><stop offset="1" stop-color="#353535"/></linearGradient><radialGradient cx="212.45505" cy="115.07657" r="4.876" gradientUnits="userSpaceOnUse" id="color-46"><stop offset="0" stop-color="#fff67b"/><stop offset="1" stop-color="#ffd300"/></radialGradient><radialGradient cx="197.65139" cy="114.42437" r="20.51446" gradientUnits="userSpaceOnUse" id="color-47"><stop offset="0" stop-color="#e8e46e"/><stop offset="1" stop-color="#b59317"/></radialGradient><linearGradient x1="202.83544" y1="123.13789" x2="205.66603" y2="121.01509" gradientUnits="userSpaceOnUse" id="color-48"><stop offset="0" stop-color="#464646"/><stop offset="1" stop-color="#353535"/></linearGradient><radialGradient cx="199.71775" cy="73.83736" r="45.17923" gradientUnits="userSpaceOnUse" id="color-49"><stop offset="0" stop-color="#909090"/><stop offset="1" stop-color="#5d5d5d"/></radialGradient><radialGradient cx="198.59388" cy="69.26367" r="45.17923" gradientUnits="userSpaceOnUse" id="color-50"><stop offset="0" stop-color="#181818"/><stop offset="1" stop-color="#000000"/></radialGradient><linearGradient x1="243.17566" y1="16.13758" x2="292.32817" y2="81.57501" gradientUnits="userSpaceOnUse" id="color-51"><stop offset="0" stop-color="#656565" stop-opacity="0.58031"/><stop offset="1" stop-color="#4b4b4b" stop-opacity="0.63676"/></linearGradient><linearGradient x1="243.17566" y1="16.13758" x2="292.32817" y2="81.57501" gradientUnits="userSpaceOnUse" id="color-52"><stop offset="0" stop-color="#454545"/><stop offset="1" stop-color="#000000"/></linearGradient><linearGradient x1="209.8068" y1="41.53591" x2="258.71457" y2="106.64749" gradientUnits="userSpaceOnUse" id="color-53"><stop offset="0" stop-color="#454545"/><stop offset="1" stop-color="#000000"/></linearGradient><linearGradient x1="232.13088" y1="24.77702" x2="281.03864" y2="89.88862" gradientUnits="userSpaceOnUse" id="color-54"><stop offset="0" stop-color="#454545"/><stop offset="1" stop-color="#000000"/></linearGradient><linearGradient x1="254.45495" y1="8.01816" x2="303.36273" y2="73.12975" gradientUnits="userSpaceOnUse" id="color-55"><stop offset="0" stop-color="#454545"/><stop offset="1" stop-color="#000000"/></linearGradient><linearGradient x1="276.77902" y1="-8.74071" x2="325.68682" y2="56.3709" gradientUnits="userSpaceOnUse" id="color-56"><stop offset="0" stop-color="#454545"/><stop offset="1" stop-color="#000000"/></linearGradient><radialGradient cx="305.54103" cy="-6.89927" r="45.17923" gradientUnits="userSpaceOnUse" id="color-57"><stop offset="0" stop-color="#909090"/><stop offset="1" stop-color="#5d5d5d"/></radialGradient><radialGradient cx="308.67441" cy="-8.83249" r="45.17922" gradientUnits="userSpaceOnUse" id="color-58"><stop offset="0" stop-color="#181818"/><stop offset="1" stop-color="#000000"/></radialGradient><radialGradient cx="160.11675" cy="103.53602" r="45.17923" gradientUnits="userSpaceOnUse" id="color-59"><stop offset="0" stop-color="#909090"/><stop offset="1" stop-color="#5d5d5d"/></radialGradient><radialGradient cx="158.99288" cy="98.96233" r="45.17923" gradientUnits="userSpaceOnUse" id="color-60"><stop offset="0" stop-color="#181818"/><stop offset="1" stop-color="#000000"/></radialGradient><radialGradient cx="190.52957" cy="175.23848" r="119.5" gradientUnits="userSpaceOnUse" id="color-61"><stop offset="0" stop-color="#696969"/><stop offset="1" stop-color="#2e2e2e"/></radialGradient><radialGradient cx="173.1828" cy="172.65426" r="119.5" gradientUnits="userSpaceOnUse" id="color-62"><stop offset="0" stop-color="#2d2d2d"/><stop offset="1" stop-color="#0c0c0c"/></radialGradient><radialGradient cx="227.75" cy="83.52365" r="88.22216" gradientUnits="userSpaceOnUse" id="color-63"><stop offset="0" stop-color="#d7f4f7"/><stop offset="1" stop-color="#d7f4f7" stop-opacity="0"/></radialGradient><radialGradient cx="206.67441" cy="66.16751" r="45.17922" gradientUnits="userSpaceOnUse" id="color-64"><stop offset="0" stop-color="#181818"/><stop offset="1" stop-color="#000000"/></radialGradient><radialGradient cx="219.25" cy="84.52365" r="57.70588" gradientUnits="userSpaceOnUse" id="color-65"><stop offset="0" stop-color="#e4fcff"/><stop offset="1" stop-color="#e4fcff" stop-opacity="0"/></radialGradient><radialGradient cx="219.25" cy="84.52365" r="57.70588" gradientUnits="userSpaceOnUse" id="color-66"><stop offset="0" stop-color="#000000" stop-opacity="0"/><stop offset="1" stop-color="#000000" stop-opacity="0"/></radialGradient></defs><g transform="translate(-119.77008,27.85966)"><g data-paper-data="{&quot;isPaintingLayer&quot;:true}" fill-rule="nonzero" stroke-linejoin="miter" stroke-miterlimit="10" stroke-dasharray="" stroke-dashoffset="0" style="mix-blend-mode: normal"><path d="M136.28405,156.02043l-9.95071,17.91061" data-paper-data="{&quot;index&quot;:null}" fill="none" stroke="url(#color-1)" stroke-width="3" stroke-linecap="round"/><path d="M353.11894,175.02343l-51.62864,-100.5" fill="none" stroke="url(#color-2)" stroke-width="3" stroke-linecap="round"/><path d="M189.74814,161.52034c-19.07271,14.30353 -46.17428,10.37765 -60.53304,-8.7687c-14.35876,-19.14635 -10.53734,-46.26284 8.53537,-60.56638c19.07271,-14.30353 46.17428,-10.37766 60.53304,8.76869c14.35876,19.14635 10.53734,46.26285 -8.53537,60.56639z" fill="url(#color-3)" stroke="url(#color-4)" stroke-width="1.5" stroke-linecap="butt"/><path d="M229.38284,120.755c-14.0652,10.54817 -34.7346,6.7419 -46.16638,-8.50155c-11.43178,-15.24345 -9.29698,-36.15166 4.76823,-46.69984c14.0652,-10.54817 34.7346,-6.7419 46.16638,8.50155c11.43179,15.24345 9.29698,36.15167 -4.76823,46.69984z" fill="url(#color-5)" stroke="url(#color-6)" stroke-width="1.5" stroke-linecap="butt"/><path d="M146.98406,84.21891l38.66764,-28.99871l52.99764,70.66845l-38.66764,28.99871z" fill="url(#color-7)" stroke="url(#color-8)" stroke-width="1.5" stroke-linecap="butt"/><path d="M153.28363,86.62673l14.75371,-10.95532" fill="none" stroke="url(#color-9)" stroke-width="0.5" stroke-linecap="round"/><path d="M177.1211,113.925l12.62254,-9.35706" fill="none" stroke="url(#color-10)" stroke-width="0.5" stroke-linecap="round"/><path d="M156.24159,85.92184l11.78106,-8.83517l20.36439,27.15442l-11.78106,8.83518z" fill="url(#color-11)" stroke="none" stroke-width="0.5" stroke-linecap="butt"/><path d="M156.71623,84.69239l9.85356,-7.38965l21.08314,28.11281l-9.85356,7.38966z" fill="url(#color-12)" stroke="none" stroke-width="0.5" stroke-linecap="butt"/><path d="M176.61681,92.59633l-5.94177,1.31837l2.8584,2.03504l-5.94178,1.31838" fill="none" stroke="url(#color-13)" stroke-width="1.5" stroke-linecap="round"/><path d="M176.44254,116.99565l-1.85077,1.38799l-24.24885,-32.33405l1.85077,-1.38799z" data-paper-data="{&quot;index&quot;:null}" fill="url(#color-14)" stroke="url(#color-15)" stroke-width="0.5" stroke-linecap="butt"/><path d="M178.74919,115.64851l-2.83059,2.12279l-24.61625,-32.82396l2.83059,-2.12279z" data-paper-data="{&quot;index&quot;:null}" fill="url(#color-16)" stroke="url(#color-17)" stroke-width="0.5" stroke-linecap="butt"/><path d="M169.93333,74.14032l11.71283,-8.67483" fill="none" stroke="url(#color-18)" stroke-width="0.5" stroke-linecap="round"/><path d="M203.3298,94.37903l-11.71284,8.67483" fill="none" stroke="url(#color-19)" stroke-width="0.5" stroke-linecap="round"/><path d="M182.48425,61.94527l1.85077,-1.38798l24.24885,32.33405l-1.85077,1.38799z" fill="url(#color-20)" stroke="url(#color-21)" stroke-width="0.5" stroke-linecap="butt"/><path d="M170.89332,74.93381l11.78106,-8.83517l20.3644,27.15442l-11.78106,8.83518z" fill="url(#color-22)" stroke="none" stroke-width="0.5" stroke-linecap="butt"/><path d="M171.36796,73.70436l9.85356,-7.38966l21.08315,28.11282l-9.85356,7.38966z" fill="url(#color-23)" stroke="none" stroke-width="0.5" stroke-linecap="butt"/><path d="M180.1776,63.29241l2.83059,-2.12279l24.61625,32.82396l-2.83059,2.12279z" fill="url(#color-24)" stroke="url(#color-25)" stroke-width="0.5" stroke-linecap="butt"/><path d="M182.24341,86.28008l5.94177,-1.31837l-2.8584,-2.03504l5.94177,-1.31837" fill="none" stroke="url(#color-26)" stroke-width="1.5" stroke-linecap="round"/><path d="M193.40092,104.66048l-2.83059,2.12279l-24.61625,-32.82396l2.83059,-2.1228z" data-paper-data="{&quot;index&quot;:null}" fill="url(#color-27)" stroke="url(#color-28)" stroke-width="0.5" stroke-linecap="butt"/><path d="M177.85686,119.39333l14.7537,-10.95532" fill="none" stroke="url(#color-29)" stroke-width="0.5" stroke-linecap="round"/><path d="M214.31686,137.33454l-12.62254,9.35706" fill="none" stroke="url(#color-30)" stroke-width="0.5" stroke-linecap="round"/><path d="M180.81483,118.68844l11.78106,-8.83517l20.3644,27.15442l-11.78106,8.83517z" fill="url(#color-31)" stroke="none" stroke-width="0.5" stroke-linecap="butt"/><path d="M181.28947,117.459l9.85356,-7.38966l21.08314,28.11281l-9.85355,7.38966z" fill="url(#color-32)" stroke="none" stroke-width="0.5" stroke-linecap="butt"/><path d="M201.19005,125.36293l-5.94176,1.31837l2.85839,2.03503l-5.94177,1.31837" fill="none" stroke="url(#color-33)" stroke-width="1.5" stroke-linecap="round"/><path d="M201.01578,149.76225l-1.85077,1.38799l-24.24885,-32.33404l1.85077,-1.38799z" data-paper-data="{&quot;index&quot;:null}" fill="url(#color-34)" stroke="url(#color-35)" stroke-width="0.5" stroke-linecap="butt"/><path d="M203.32242,148.4151l-2.83058,2.12279l-24.61625,-32.82396l2.83058,-2.12279z" data-paper-data="{&quot;index&quot;:null}" fill="url(#color-36)" stroke="url(#color-37)" stroke-width="0.5" stroke-linecap="butt"/><path d="M194.50656,106.90693l11.71284,-8.67483" fill="none" stroke="url(#color-38)" stroke-width="0.5" stroke-linecap="round"/><path d="M227.90302,127.14562l-11.71283,8.67483" fill="none" stroke="url(#color-39)" stroke-width="0.5" stroke-linecap="round"/><path d="M207.05749,94.71187l1.85077,-1.38799l24.24884,32.33406l-1.85077,1.38799z" fill="url(#color-40)" stroke="url(#color-41)" stroke-width="0.5" stroke-linecap="butt"/><path d="M195.46656,107.70041l11.78106,-8.83518l20.3644,27.15443l-11.78106,8.83517z" fill="url(#color-42)" stroke="none" stroke-width="0.5" stroke-linecap="butt"/><path d="M195.9412,106.47096l9.85356,-7.38965l21.08315,28.11281l-9.85356,7.38966z" fill="url(#color-43)" stroke="none" stroke-width="0.5" stroke-linecap="butt"/><path d="M204.75084,96.05901l2.83059,-2.1228l24.61625,32.82397l-2.83059,2.12279z" fill="url(#color-44)" stroke="url(#color-45)" stroke-width="0.5" stroke-linecap="butt"/><path d="M206.81665,119.04668l5.94177,-1.31837l-2.8584,-2.03504l5.94177,-1.31837" fill="none" stroke="url(#color-46)" stroke-width="1.5" stroke-linecap="round"/><path d="M217.97415,137.42707l-2.83059,2.12279l-24.61625,-32.82396l2.83059,-2.12279z" data-paper-data="{&quot;index&quot;:null}" fill="url(#color-47)" stroke="url(#color-48)" stroke-width="0.5" stroke-linecap="butt"/><path d="M181.86687,56.793l5.23166,-3.92347l54.21265,72.28858l-5.23166,3.92347z" fill="url(#color-49)" stroke="url(#color-50)" stroke-width="1.5" stroke-linecap="butt"/><path d="M239.92814,120.91215l-49.15251,-65.43743l104.80008,-78.67426l49.15251,65.43743z" fill="url(#color-51)" stroke="url(#color-52)" stroke-width="2" stroke-linecap="butt"/><path d="M209.8068,41.53589l48.90777,65.1116" fill="none" stroke="url(#color-53)" stroke-width="2" stroke-linecap="round"/><path d="M232.13088,24.77703l48.90776,65.11159" fill="none" stroke="url(#color-54)" stroke-width="2" stroke-linecap="round"/><path d="M303.36273,73.12975l-48.90776,-65.11159" fill="none" stroke="url(#color-55)" stroke-width="2" stroke-linecap="round"/><path d="M325.68681,56.3709l-48.90776,-65.11159" fill="none" stroke="url(#color-56)" stroke-width="2" stroke-linecap="round"/><path d="M319.80264,9.78142l-104.10141,78.14976" fill="none" stroke="#232323" stroke-width="2" stroke-linecap="round"/><path d="M289.61361,-22.8862l5.23166,-3.92347l54.21265,72.28858l-5.23166,3.92347z" fill="url(#color-57)" stroke="url(#color-58)" stroke-width="1.5" stroke-linecap="butt"/><path d="M142.26587,86.49166l5.23166,-3.92347l54.21265,72.28857l-5.23166,3.92347z" fill="url(#color-59)" stroke="url(#color-60)" stroke-width="1.5" stroke-linecap="butt"/><path d="M120.5,179.30967v-5.92732h239v5.92733z" fill="url(#color-61)" stroke="url(#color-62)" stroke-width="1" stroke-linecap="butt"/><path d="M187.61361,52.11379l96.73166,-69.7568l52.71265,69.62191l-95.23166,72.42347z" fill="url(#color-63)" stroke="url(#color-64)" stroke-width="0" stroke-linecap="butt"/><path d="M273.75,84.52365c0,29.82338 -24.40048,54 -54.5,54c-30.09952,0 -54.5,-24.17662 -54.5,-54c0,-29.82338 24.40048,-54 54.5,-54c30.09952,0 54.5,24.17662 54.5,54z" fill="url(#color-65)" stroke="url(#color-66)" stroke-width="0" stroke-linecap="butt"/></g></g></svg>