<svg version="1.1" xmlns="http://www.w3.org/2000/svg" xmlns:xlink="http://www.w3.org/1999/xlink" width="261.47232" height="177.47528" viewBox="0,0,261.47232,177.47528"><defs><radialGradient cx="280.06247" cy="237.95935" r="38.33033" gradientUnits="userSpaceOnUse" id="color-1"><stop offset="0" stop-color="#696969"/><stop offset="1" stop-color="#0a0a0a"/></radialGradient><linearGradient x1="280.06247" y1="200.34215" x2="280.06247" y2="275.57656" gradientUnits="userSpaceOnUse" id="color-2"><stop offset="0" stop-color="#636363"/><stop offset="1" stop-color="#424242"/></linearGradient><linearGradient x1="262.63836" y1="238.55355" x2="298.04687" y2="238.55355" gradientUnits="userSpaceOnUse" id="color-3"><stop offset="0" stop-color="#ffffff"/><stop offset="1" stop-color="#b5b5b5"/></linearGradient><linearGradient x1="249.90462" y1="250.51452" x2="273.17605" y2="250.51452" gradientUnits="userSpaceOnUse" id="color-4"><stop offset="0" stop-color="#c4c4c4"/><stop offset="1" stop-color="#909090"/></linearGradient><linearGradient x1="261.54033" y1="235.47243" x2="261.54033" y2="265.55659" gradientUnits="userSpaceOnUse" id="color-5"><stop offset="0" stop-color="#348317"/><stop offset="1" stop-color="#3c5b0d"/></linearGradient><radialGradient cx="279.598" cy="243.49869" r="13.54535" gradientUnits="userSpaceOnUse" id="color-6"><stop offset="0" stop-color="#d251e8"/><stop offset="1" stop-color="#a23dba"/></radialGradient><linearGradient x1="284.9487" y1="238.02396" x2="284.9487" y2="265.11226" gradientUnits="userSpaceOnUse" id="color-7"><stop offset="0" stop-color="#348317"/><stop offset="1" stop-color="#3c5b0d"/></linearGradient><radialGradient cx="297.96911" cy="244.07731" r="13.54535" gradientUnits="userSpaceOnUse" id="color-8"><stop offset="0" stop-color="#d251e8"/><stop offset="1" stop-color="#a23dba"/></radialGradient><linearGradient x1="303.33093" y1="238.07614" x2="303.33093" y2="265.16443" gradientUnits="userSpaceOnUse" id="color-9"><stop offset="0" stop-color="#348317"/><stop offset="1" stop-color="#3c5b0d"/></linearGradient><linearGradient x1="285.08999" y1="232.52673" x2="285.08999" y2="238.55684" gradientUnits="userSpaceOnUse" id="color-10"><stop offset="0" stop-color="#348317"/><stop offset="1" stop-color="#3c5b0d"/></linearGradient><linearGradient x1="303.78679" y1="232.66629" x2="303.78679" y2="238.69639" gradientUnits="userSpaceOnUse" id="color-11"><stop offset="0" stop-color="#348317"/><stop offset="1" stop-color="#3c5b0d"/></linearGradient><linearGradient x1="269.61685" y1="215.21877" x2="290.59174" y2="215.21877" gradientUnits="userSpaceOnUse" id="color-12"><stop offset="0" stop-color="#008672"/><stop offset="1" stop-color="#004861"/></linearGradient><linearGradient x1="280.1043" y1="213.41059" x2="280.1043" y2="217.02695" gradientUnits="userSpaceOnUse" id="color-13"><stop offset="0" stop-color="#348317"/><stop offset="1" stop-color="#3c5b0d"/></linearGradient><linearGradient x1="269.50925" y1="221.47596" x2="290.48414" y2="221.47596" gradientUnits="userSpaceOnUse" id="color-14"><stop offset="0" stop-color="#008672"/><stop offset="1" stop-color="#004861"/></linearGradient><linearGradient x1="279.9967" y1="219.66778" x2="279.9967" y2="223.28414" gradientUnits="userSpaceOnUse" id="color-15"><stop offset="0" stop-color="#348317"/><stop offset="1" stop-color="#3c5b0d"/></linearGradient><linearGradient x1="247.03401" y1="257.69103" x2="275.54742" y2="257.69103" gradientUnits="userSpaceOnUse" id="color-16"><stop offset="0" stop-color="#d8d8d8"/><stop offset="1" stop-color="#aaaaaa"/></linearGradient><linearGradient x1="261.29072" y1="249.82545" x2="261.29072" y2="265.55659" gradientUnits="userSpaceOnUse" id="color-17"><stop offset="0" stop-color="#348317"/><stop offset="1" stop-color="#3c5b0d"/></linearGradient><linearGradient x1="251.40233" y1="242.17844" x2="271.67835" y2="242.17844" gradientUnits="userSpaceOnUse" id="color-18"><stop offset="0" stop-color="#60ff45"/><stop offset="1" stop-color="#adff00"/></linearGradient><linearGradient x1="261.54033" y1="238.46784" x2="261.54033" y2="245.88903" gradientUnits="userSpaceOnUse" id="color-19"><stop offset="0" stop-color="#348317"/><stop offset="1" stop-color="#3c5b0d"/></linearGradient><linearGradient x1="248.40691" y1="257.73795" x2="273.55048" y2="257.73795" gradientUnits="userSpaceOnUse" id="color-20"><stop offset="0" stop-color="#60ff45"/><stop offset="1" stop-color="#adff00"/></linearGradient><linearGradient x1="260.9787" y1="254.02736" x2="260.9787" y2="261.44855" gradientUnits="userSpaceOnUse" id="color-21"><stop offset="0" stop-color="#348317"/><stop offset="1" stop-color="#3c5b0d"/></linearGradient><linearGradient x1="279.92378" y1="265.23829" x2="279.92378" y2="265.89254" gradientUnits="userSpaceOnUse" id="color-22"><stop offset="0" stop-color="#348317"/><stop offset="1" stop-color="#3c5b0d"/></linearGradient></defs><g transform="translate(-239.7193,-160.0288)"><g data-paper-data="{&quot;isPaintingLayer&quot;:true}" fill-rule="nonzero" stroke-linecap="butt" stroke-linejoin="miter" stroke-miterlimit="10" stroke-dasharray="" stroke-dashoffset="0" style="mix-blend-mode: normal"><text transform="translate(240.03135,187.4892) scale(0.6241,0.6241)" font-size="40" xml:space="preserve" fill="#ffffff" fill-rule="nonzero" stroke="none" stroke-width="1" stroke-linecap="butt" stroke-linejoin="miter" stroke-miterlimit="10" stroke-dasharray="" stroke-dashoffset="0" font-family="Malgun Gothic" font-weight="normal" text-anchor="start" style="mix-blend-mode: normal"><tspan x="0" dy="0">Recreational Factory</tspan></text><text transform="translate(324.45435,215.62294) scale(0.45565,0.45565)" font-size="40" xml:space="preserve" fill="#d8d8d8" fill-rule="nonzero" stroke="none" stroke-width="1" stroke-linecap="butt" stroke-linejoin="miter" stroke-miterlimit="10" stroke-dasharray="" stroke-dashoffset="0" font-family="Malgun Gothic" font-weight="normal" text-anchor="start" style="mix-blend-mode: normal"><tspan x="0" dy="0">Obtained by:</tspan></text><text transform="translate(324.45435,256.62748) scale(0.45566,0.45566)" font-size="40" xml:space="preserve" fill="#d8d8d8" fill-rule="nonzero" stroke="none" stroke-width="1" stroke-linecap="butt" stroke-linejoin="miter" stroke-miterlimit="10" stroke-dasharray="" stroke-dashoffset="0" font-family="Malgun Gothic" font-weight="normal" text-anchor="start" style="mix-blend-mode: normal"><tspan x="0" dy="0">Materials:</tspan></text><text transform="translate(241.38373,296.92705) scale(0.45566,0.45566)" font-size="40" xml:space="preserve" fill="#d8d8d8" fill-rule="nonzero" stroke="none" stroke-width="1" stroke-linecap="butt" stroke-linejoin="miter" stroke-miterlimit="10" stroke-dasharray="" stroke-dashoffset="0" font-family="Malgun Gothic" font-weight="normal" text-anchor="start" style="mix-blend-mode: normal"><tspan x="0" dy="0">Description:</tspan></text><text transform="translate(325.17562,233.72207) scale(0.37382,0.37382)" font-size="40" xml:space="preserve" fill="#9f9f9f" fill-rule="nonzero" stroke="none" stroke-width="1" stroke-linecap="butt" stroke-linejoin="miter" stroke-miterlimit="10" stroke-dasharray="" stroke-dashoffset="0" font-family="Malgun Gothic" font-weight="normal" text-anchor="start" style="mix-blend-mode: normal"><tspan x="0" dy="0">Factory</tspan></text><path d="M241.73214,275.57656v-75.23442h76.66066v75.23442z" fill="url(#color-1)" stroke="url(#color-2)" stroke-width="3.5"/><text transform="translate(241.64328,315.44811) scale(0.37383,0.37383)" font-size="40" xml:space="preserve" fill="#9f9f9f" fill-rule="nonzero" stroke="none" stroke-width="1" stroke-linecap="butt" stroke-linejoin="miter" stroke-miterlimit="10" stroke-dasharray="" stroke-dashoffset="0" font-family="Malgun Gothic" font-weight="normal" text-anchor="start" style="mix-blend-mode: normal"><tspan x="0" dy="0">Variant of the Factory that can</tspan><tspan x="0" dy="48px">make rustic things.</tspan></text><g stroke-width="0"><path d="M262.63836,265.46247c0,0 4.70623,-15.20772 5.89332,-24.19247c1.17549,-8.89691 1.19474,-29.4551 1.19474,-29.4551l20.79843,-0.17028c0,0 -0.56312,20.44305 0.71199,29.56604c1.23066,8.80501 6.81003,24.25181 6.81003,24.25181z" fill="url(#color-3)" stroke="none"/><path d="M249.90462,265.55659v-30.08416h23.27144v30.08416z" fill="url(#color-4)" stroke="url(#color-5)"/><path d="M293.83964,251.56811c0,7.48023 0.00685,13.44506 -8.89094,13.54414c-8.23522,0.0917 -8.89094,-6.06391 -8.89094,-13.54414c0,-7.48022 1.32051,-13.44086 8.89094,-13.54414c7.90049,-0.10778 8.89094,6.06392 8.89094,13.54415z" fill="url(#color-6)" stroke="url(#color-7)"/><path d="M312.22186,251.62029c0,7.48022 0.00685,13.44506 -8.89094,13.54414c-8.23521,0.0917 -8.89094,-6.06392 -8.89094,-13.54414c0,-7.48022 1.32052,-13.44086 8.89094,-13.54414c7.90049,-0.10778 8.89094,6.06392 8.89094,13.54415z" fill="url(#color-8)" stroke="url(#color-9)"/><path d="M284.07165,238.55684v-6.03011h2.03668v6.03011z" fill="#312d29" stroke="url(#color-10)"/><path d="M302.76845,238.69639v-6.03011h2.03667v6.03011z" fill="#312d29" stroke="url(#color-11)"/><path d="M283.27339,234.91587v-1.77988h22.0306v1.77988z" fill="#36322e" stroke="none"/><path d="M269.61685,217.02695v-3.61636h20.97488v3.61636z" fill="url(#color-12)" stroke="url(#color-13)"/><path d="M269.50925,223.28414v-3.61636h20.97488v3.61636z" fill="url(#color-14)" stroke="url(#color-15)"/><path d="M247.03401,265.55659v-15.73114h28.51342v15.73114z" fill="url(#color-16)" stroke="url(#color-17)"/><path d="M251.40233,245.88903v-7.42119h20.27602v7.42119z" fill="url(#color-18)" stroke="url(#color-19)"/><path d="M248.40691,261.44855v-7.42119h25.14357v7.42119z" fill="url(#color-20)" stroke="url(#color-21)"/><path d="M246.35034,265.89254v-0.65424h67.14687v0.65424z" fill="#312d29" stroke="url(#color-22)"/></g><text transform="translate(325.17562,273.62539) scale(0.26788,0.26788)" font-size="40" xml:space="preserve" fill="#9f9f9f" fill-rule="nonzero" stroke="none" stroke-width="1" stroke-linecap="butt" stroke-linejoin="miter" stroke-miterlimit="10" stroke-dasharray="" stroke-dashoffset="0" font-family="Malgun Gothic" font-weight="normal" text-anchor="start" style="mix-blend-mode: normal"><tspan x="0" dy="0">Stone (x10), Iron (x45), Copper (x20)</tspan></text></g></g></svg>