<svg version="1.1" xmlns="http://www.w3.org/2000/svg" xmlns:xlink="http://www.w3.org/1999/xlink" width="253.93783" height="185.31877" viewBox="0,0,253.93783,185.31877"><defs><linearGradient x1="310.06247" y1="200.34215" x2="310.06247" y2="275.57656" gradientUnits="userSpaceOnUse" id="color-1"><stop offset="0" stop-color="#636363"/><stop offset="1" stop-color="#424242"/></linearGradient><radialGradient cx="318.62036" cy="232.60537" r="31.06617" gradientUnits="userSpaceOnUse" id="color-2"><stop offset="0" stop-color="#797979"/><stop offset="1" stop-color="#727272"/></radialGradient><radialGradient cx="298.06485" cy="243.99238" r="25.51877" gradientUnits="userSpaceOnUse" id="color-3"><stop offset="0" stop-color="#6e6e6e" stop-opacity="0.74902"/><stop offset="1" stop-color="#424242" stop-opacity="0.77647"/></radialGradient><radialGradient cx="322.992" cy="241.44003" r="15.48333" gradientUnits="userSpaceOnUse" id="color-4"><stop offset="0" stop-color="#595959" stop-opacity="0.74902"/><stop offset="1" stop-color="#4d4d4d" stop-opacity="0.74902"/></radialGradient><radialGradient cx="319.97787" cy="221.88029" r="18.55694" gradientUnits="userSpaceOnUse" id="color-5"><stop offset="0" stop-color="#626262" stop-opacity="0.74902"/><stop offset="1" stop-color="#4a4a4a" stop-opacity="0.83137"/></radialGradient><radialGradient cx="296.33246" cy="230.98735" r="27.51995" gradientUnits="userSpaceOnUse" id="color-6"><stop offset="0" stop-color="#2d2d2d" stop-opacity="0.96078"/><stop offset="1" stop-color="#3b3b3b" stop-opacity="0.94902"/></radialGradient><linearGradient x1="278.83909" y1="237.90588" x2="341.14141" y2="237.90588" gradientUnits="userSpaceOnUse" id="color-7"><stop offset="0" stop-color="#0f0f0f"/><stop offset="1" stop-color="#0f0f0f" stop-opacity="0"/></linearGradient></defs><g transform="translate(-269.7193,-160.0288)"><g data-paper-data="{&quot;isPaintingLayer&quot;:true}" fill-rule="nonzero" stroke-linecap="butt" stroke-linejoin="miter" stroke-miterlimit="10" stroke-dasharray="" stroke-dashoffset="0" style="mix-blend-mode: normal"><path d="M271.73214,275.57656v-75.23442h76.66066v75.23442z" fill="#0a0a0a" stroke="url(#color-1)" stroke-width="3.5"/><text transform="translate(270.03135,187.4892) scale(0.6241,0.6241)" font-size="40" xml:space="preserve" fill="#ffffff" fill-rule="nonzero" stroke="none" stroke-width="1" stroke-linecap="butt" stroke-linejoin="miter" stroke-miterlimit="10" stroke-dasharray="" stroke-dashoffset="0" font-family="Malgun Gothic" font-weight="normal" text-anchor="start" style="mix-blend-mode: normal"><tspan x="0" dy="0">Lunar (The Moon)</tspan></text><text transform="translate(354.45435,215.62294) scale(0.45565,0.45565)" font-size="40" xml:space="preserve" fill="#d8d8d8" fill-rule="nonzero" stroke="none" stroke-width="1" stroke-linecap="butt" stroke-linejoin="miter" stroke-miterlimit="10" stroke-dasharray="" stroke-dashoffset="0" font-family="Malgun Gothic" font-weight="normal" text-anchor="start" style="mix-blend-mode: normal"><tspan x="0" dy="0">Common Resources:</tspan></text><text transform="translate(354.45435,256.62748) scale(0.45566,0.45566)" font-size="40" xml:space="preserve" fill="#d8d8d8" fill-rule="nonzero" stroke="none" stroke-width="1" stroke-linecap="butt" stroke-linejoin="miter" stroke-miterlimit="10" stroke-dasharray="" stroke-dashoffset="0" font-family="Malgun Gothic" font-weight="normal" text-anchor="start" style="mix-blend-mode: normal"><tspan x="0" dy="0">Rare Resources:</tspan></text><text transform="translate(271.38373,318.32071) scale(0.45566,0.45566)" font-size="40" xml:space="preserve" fill="#d8d8d8" fill-rule="nonzero" stroke="none" stroke-width="1" stroke-linecap="butt" stroke-linejoin="miter" stroke-miterlimit="10" stroke-dasharray="" stroke-dashoffset="0" font-family="Malgun Gothic" font-weight="normal" text-anchor="start" style="mix-blend-mode: normal"><tspan x="0" dy="0">Has water:</tspan></text><text transform="translate(271.38373,296.92705) scale(0.45566,0.45566)" font-size="40" xml:space="preserve" fill="#d8d8d8" fill-rule="nonzero" stroke="none" stroke-width="1" stroke-linecap="butt" stroke-linejoin="miter" stroke-miterlimit="10" stroke-dasharray="" stroke-dashoffset="0" font-family="Malgun Gothic" font-weight="normal" text-anchor="start" style="mix-blend-mode: normal"><tspan x="0" dy="0">Has fossil fuels:</tspan></text><text transform="translate(355.17562,233.72207) scale(0.37382,0.37382)" font-size="40" xml:space="preserve" fill="#9f9f9f" fill-rule="nonzero" stroke="none" stroke-width="1" stroke-linecap="butt" stroke-linejoin="miter" stroke-miterlimit="10" stroke-dasharray="" stroke-dashoffset="0" font-family="Malgun Gothic" font-weight="normal" text-anchor="start" style="mix-blend-mode: normal"><tspan x="0" dy="0">Stone, Iron, Copper</tspan></text><text transform="translate(355.17562,275.43973) scale(0.37383,0.37383)" font-size="40" xml:space="preserve" fill="#9f9f9f" fill-rule="nonzero" stroke="none" stroke-width="1" stroke-linecap="butt" stroke-linejoin="miter" stroke-miterlimit="10" stroke-dasharray="" stroke-dashoffset="0" font-family="Malgun Gothic" font-weight="normal" text-anchor="start" style="mix-blend-mode: normal"><tspan x="0" dy="0">Gold</tspan></text><text transform="translate(401.89328,297.19811) scale(0.37383,0.37383)" font-size="40" xml:space="preserve" fill="#9f9f9f" fill-rule="nonzero" stroke="none" stroke-width="1" stroke-linecap="butt" stroke-linejoin="miter" stroke-miterlimit="10" stroke-dasharray="" stroke-dashoffset="0" font-family="Malgun Gothic" font-weight="normal" text-anchor="start" style="mix-blend-mode: normal"><tspan x="0" dy="0">False</tspan></text><text transform="translate(361.25344,318.59993) scale(0.37383,0.37383)" font-size="40" xml:space="preserve" fill="#9f9f9f" fill-rule="nonzero" stroke="none" stroke-width="1" stroke-linecap="butt" stroke-linejoin="miter" stroke-miterlimit="10" stroke-dasharray="" stroke-dashoffset="0" font-family="Malgun Gothic" font-weight="normal" text-anchor="start" style="mix-blend-mode: normal"><tspan x="0" dy="0">True</tspan></text><text transform="translate(271.38373,340.67705) scale(0.45566,0.45566)" font-size="40" xml:space="preserve" fill="#d8d8d8" fill-rule="nonzero" stroke="none" stroke-width="1" stroke-linecap="butt" stroke-linejoin="miter" stroke-miterlimit="10" stroke-dasharray="" stroke-dashoffset="0" font-family="Malgun Gothic" font-weight="normal" text-anchor="start" style="mix-blend-mode: normal"><tspan x="0" dy="0">Wind data:</tspan></text><text transform="translate(364.50344,340.84993) scale(0.37383,0.37383)" font-size="40" xml:space="preserve" fill="#9f9f9f" fill-rule="nonzero" stroke="none" stroke-width="1" stroke-linecap="butt" stroke-linejoin="miter" stroke-miterlimit="10" stroke-dasharray="" stroke-dashoffset="0" font-family="Malgun Gothic" font-weight="normal" text-anchor="start" style="mix-blend-mode: normal"><tspan x="0" dy="0">N/A</tspan></text><g><path d="M279.16627,241.77702c-2.13786,-17.02362 9.92939,-32.55715 26.95307,-34.69506c17.02362,-2.13786 32.55715,9.92939 34.69506,26.95307c2.13786,17.02362 -9.92939,32.55715 -26.95307,34.69506c-17.02362,2.13786 -32.55715,-9.92939 -34.69506,-26.95307z" fill="url(#color-2)" stroke="none" stroke-width="0.5"/><path d="M313.9044,266.20825c0.18723,1.49068 -1.30357,1.67792 -1.30357,1.67792l-0.46309,0.05067c-4.26851,0.10783 -9.17284,-0.40385 -10.25949,-5.19321c-0.62957,0.9059 -3.47705,-3.25972 -3.47705,-3.25972c-3.00664,-1.188 -1.99273,-3.9904 -4.24906,-4.55282c-4.3334,-1.08005 -5.10506,1.91077 -6.2481,0.69707c-1.2263,-1.3022 -2.16069,-1.30791 -2.5947,-3.34192c-0.4845,-2.27097 -1.55063,-4.12488 -2.64294,-6.65427c-0.5344,-1.23761 0.95217,-3.1548 0.13139,-4.60165c-0.4327,-0.7835 -1.48105,-3.45694 -1.25021,-5.21248c0.24695,-1.87758 1.7977,-2.88947 2.0465,-5.29539c0.14114,-1.36507 -0.7057,-3.09265 -0.51501,-4.38884c0.69238,-4.70662 2.99802,-7.97687 7.09,-5.90765c4.04113,2.04358 -0.75072,8.37019 5.04178,11.79038c2.03175,2.76962 0.68351,4.15009 1.50109,6.81153c0.62118,2.02223 4.6205,-0.84868 6.26969,1.4318c2.24991,3.11126 -7.33368,15.44806 2.4601,10.70099c0.55736,-1.16938 1.12769,-2.26514 1.67233,-3.19239c-0.23131,-4.39098 -0.2143,-12.96167 5.30396,-4.70978c5.86738,8.7741 -10.92843,11.57067 -7.71993,18.50722c0.16416,3.66821 4.63769,3.43595 7.36366,3.36707l0.16457,-0.02813c0,0 1.49074,-0.18723 1.67798,1.30351z" fill="url(#color-3)" stroke="none" stroke-width="0.5"/><path d="M315.21498,235.03776c-4.65756,-4.97261 -6.15341,-10.81525 3.54295,-6.44277c3.45433,2.98071 8.8676,3.94341 11.67077,6.97057c2.96471,3.20173 5.68764,20.34537 -2.93824,20.90285c-3.47764,-0.56848 -4.7203,-5.49065 -5.7796,-8.85148c-1.55171,-4.923 -13.31627,-3.75183 -6.49582,-12.57917z" fill="url(#color-4)" stroke="none" stroke-width="0.5"/><path d="M304.75511,208.87015l0.44079,-0.05537c0.06043,-0.011 0.12443,-0.01951 0.1911,-0.02397l0.61048,-0.07667c7.91745,-0.98524 14.21367,1.14571 19.734,5.72083c6.6124,1.68137 7.42902,15.28973 13.0629,16.94909l0.65717,0.38506c0,0 1.17426,0.91215 0.262,2.08641c-0.81163,1.04466 -1.83054,0.43793 -2.04549,0.29132c-4.71091,-1.52351 -3.27911,-3.11697 -3.36868,-6.70715c-0.05204,-2.08569 -6.28599,-2.24819 -6.97527,-3.47062c-0.56093,-0.99464 -0.13787,-2.93729 -0.15845,-4.52563c-0.52108,-0.08916 -0.88645,-0.46719 -0.88645,-0.46719c-0.65181,-0.68423 -1.31659,-1.32522 -1.99618,-1.9216c-0.30577,0.05829 -0.64301,0.14441 -1.01462,0.26111c-1.2423,1.03282 -33.30739,0.94474 -19.67518,-7.67633c0.33973,-0.66609 1.16189,-0.7694 1.16189,-0.7694z" fill="url(#color-5)" stroke="none" stroke-width="0.5"/><path d="M318.57087,234.32213c-0.00101,0.00226 -0.00208,0.00452 -0.00309,0.00678l0.00452,0.01653c4.86418,1.50823 2.62825,10.16754 -1.79961,5.779c-0.44989,1.17063 -1.14863,2.0029 -2.74125,2.38677l0.14655,0.49087l-1.79776,0.53666c-0.08547,0.02718 -0.17463,0.04699 -0.26688,0.05859c-0.81478,0.1023 -1.55831,-0.47528 -1.66061,-1.29006c-0.07702,-0.61339 0.23119,-1.18634 0.73591,-1.47575l1.05632,-0.63778c1.1626,-1.82774 -0.37816,-3.49394 2.12084,-5.52468c0,0 0.51127,-0.37435 1.11068,-0.30054c0.00404,-0.00874 0.00809,-0.01731 0.01207,-0.02581l-0.33414,-1.22244c-0.02165,-0.07458 -0.03777,-0.15196 -0.04776,-0.23143c-0.1023,-0.81478 0.47528,-1.55831 1.29006,-1.66061c0.72521,-0.09106 1.39385,0.35651 1.60434,1.03045l0.49687,1.48789l-0.0819,0.02736l0.14727,0.53869z" fill-opacity="0.74902" fill="#696969" stroke="none" stroke-width="0.5"/><path d="M316.95987,216.42556c4.16913,-5.7407 6.90639,8.4675 -1.01141,9.49432c-6.44485,0.83578 -4.36118,-8.65354 0.47856,-9.52382c0,0 0.23696,-0.02974 0.53286,0.02956z" fill-opacity="0.74902" fill="#696969" stroke="none" stroke-width="0.5"/><path d="M301.89288,213.38841c4.59433,1.70254 2.09378,2.72561 -1.02753,2.85765c-0.30078,0.13424 -0.733,0.23107 -1.1789,0.00761c-3.76111,-0.1095 -7.26576,-1.50561 0.24154,-4.53979c0,0 1.41039,-0.471 1.88139,0.93939c0.09386,0.28115 0.11307,0.52501 0.08345,0.73514z" fill-opacity="0.74902" fill="#696969" stroke="none" stroke-width="0.5"/><path d="M302.26788,240.19302c-0.80217,1.25206 -2.05417,0.44983 -2.05417,0.44983l-0.55718,-0.4616c-1.62361,-0.45441 -7.95338,-10.64978 -7.74568,-11.83243c0,0 0.33004,-1.44982 1.77986,-1.11984c1.44982,0.33004 1.11978,1.77986 1.11978,1.77986c-0.99952,3.00843 1.54493,0.53333 3.38605,2.10443c2.69801,2.30231 -1.09165,5.75039 2.12007,6.16822l1.50145,0.85737c0,0 1.252,0.80211 0.44983,2.05417z" fill="#6f6f6f" stroke="none" stroke-width="0.5"/><path d="M285.94586,243.48212c-0.02064,-0.0587 -0.04146,-0.11741 -0.06257,-0.17605l-1.11163,-1.15c-0.14512,-0.04389 -0.27407,-0.09195 -0.3819,-0.14477c-2.63176,-1.28745 -2.28649,-3.99997 -2.19822,-6.33958c0,0 0.05972,-1.48575 1.54546,-1.42597c1.48575,0.05977 1.42597,1.54552 1.42597,1.54552c-0.11051,2.56437 4.51832,2.88739 5.71911,5.15586c1.7365,3.28053 -2.17509,3.89815 -2.04186,7.68704l-0.00232,0.00678h0.0025l0.03931,1.55605c0.02855,0.76196 -0.52994,1.43251 -1.30077,1.52928c-0.62576,0.07857 -1.20947,-0.24386 -1.493,-0.76678l-0.99339,-1.73614l0.54618,-0.31249c-1.41657,-2.74155 -0.25159,-4.66921 0.3072,-5.42874zM288.97772,242.60436c-0.12794,-0.00214 -0.33759,-0.0069 -0.60013,-0.01665c0.01237,0.01172 0.02462,0.02355 0.03676,0.03539c0.12948,-0.01261 0.26527,-0.01915 0.4076,-0.01903c0.06221,0.00006 0.1139,0.00018 0.15565,0.00036z" fill-opacity="0.74902" fill="#797979" stroke="none" stroke-width="0.5"/><path d="M335.51961,246.66101c0.07108,0.76512 0.07232,1.56152 -0.0687,2.44l0.40944,0.06882l-0.26539,1.57859c-0.09338,0.64604 -0.60762,1.17652 -1.28661,1.26181c-0.48879,0.06138 -0.952,-0.12193 -1.26645,-0.45435l-1.07583,-1.11294l0.20353,-0.19675l-0.55457,-0.39582c0.48403,-4.95363 -4.49435,-8.6445 -0.26051,-12.9443c0,0 0.8849,-0.8554 1.82274,-0.2046c0.75037,-0.01416 1.40587,0.54017 1.50145,1.30154l0.19503,1.55301l-0.08749,0.011l0.09909,0.17064c-0.04925,0.42116 -0.07435,0.82222 -0.08059,1.20686c0.74305,1.0882 1.01998,2.58096 1.21756,3.98855l-0.11396,0.96151c0,0 -0.08416,0.42199 -0.38892,0.76666z" fill="#6f6f6f" stroke="none" stroke-width="0.5"/><path d="M330.33663,257.0865c0.37358,-0.2573 1.06357,-0.53892 1.80883,0.12401c1.11098,0.98828 0.12264,2.09925 0.12264,2.09925c-1.69409,1.90197 -3.32609,3.38236 -5.60104,4.55692l-1.20733,0.88407c-0.20163,0.15369 -0.44525,0.25772 -0.71498,0.29156c-0.81478,0.1023 -1.55831,-0.47528 -1.66061,-1.29006c-0.03111,-0.24778 0.00065,-0.48896 0.08285,-0.70754l0.68786,-1.95246l0.53547,0.18866c0.70939,-1.70534 2.01991,-2.28322 4.8599,-3.243l0.45233,-0.59549c0,0 0.25581,-0.23607 0.63415,-0.35591z" fill-opacity="0.74902" fill="#696969" stroke="none" stroke-width="0.5"/><path d="M325.9086,217.76333c2.80091,2.75017 -1.62992,5.2098 -0.68227,8.17832c0.93927,2.94205 6.67812,0.20472 8.9561,2.2853c1.92463,3.6236 9.9078,6.64695 5.63846,13.20945c-0.5278,0.81127 -15.02327,-3.40437 -9.85386,-0.36775c10.03883,3.26067 2.50192,13.93109 -2.09693,10.94996c-2.57733,-1.67066 -1.58138,-13.95964 -2.9775,-14.11273c-6.52913,-3.14647 -2.14951,-4.60462 -0.43662,-8.48492c0.04235,-0.09582 -1.08392,-0.6119 -2.42703,-1.20846c0.66585,3.20553 -2.81037,3.27209 -5.00157,1.5909c-0.00791,-0.00613 -0.02968,-0.02207 -0.0637,-0.04651c-0.13394,1.43174 -3.25865,1.50329 -3.52064,3.00932c-0.03509,0.20169 -2.13024,2.53326 -1.13067,5.28653c0.49414,1.36108 2.00504,2.36702 3.13636,3.64138c1.75672,1.97881 3.1658,4.04613 2.81542,4.78061c-0.19015,0.39856 -3.31069,1.90839 -5.58035,1.49372c-1.37482,-0.25117 -1.98405,-2.00147 -2.73792,-2.86324c-0.65836,-1.54855 -7.01375,10.52458 -6.93411,2.27097c0.00535,-0.55165 0.96389,-1.36709 1.03497,-2.10235c-0.42978,0.47154 -1.64735,-2.7152 -3.91998,-2.24706c-1.12085,0.23089 -1.1359,5.88463 -1.60363,5.98931c-5.88761,1.31861 -3.57869,-3.26727 -2.9524,-4.25549c-1.37018,0.17796 -5.31264,0.22946 -5.63257,-1.15737c-0.56129,-3.07546 -3.51672,-6.12171 -4.66767,-9.12109c-0.52745,-1.37458 0.6414,-2.56984 0.30084,-3.91385c-0.39517,-1.55956 -0.78112,-2.46219 -0.95681,-3.98267c-0.49568,-4.28987 0.43276,-9.01308 5.61716,-12.56823c2.94574,-0.61 5.75206,1.06917 6.75467,2.61338c0.48349,-0.35026 -0.10123,0.76518 0.58401,1.40206c0.56914,0.52893 2.43417,0.59775 2.67535,0.41027c1.91226,-1.48616 2.41573,-4.72506 4.37189,-6.39269c2.28988,-1.95205 6.07383,-2.18698 8.957,-1.50442c5.86477,3.91557 0.13674,5.42814 -1.35947,8.99161c-0.45774,1.09028 0.0678,3.37832 0.12746,4.72554c1.12525,-0.10319 2.88013,-0.00208 4.57167,0.32677c-0.86575,-2.95555 1.65466,-5.9475 4.38765,-7.78256c0.01386,-0.02962 0.02867,-0.0596 0.04461,-0.08987c0.39915,-0.75929 1.00535,-0.84839 1.44631,-0.78819c0.5937,-0.30185 1.17004,-0.53762 1.69522,-0.69452c0,0 1.42478,-0.41016 1.83529,1.01903c0.21894,0.76214 -0.08416,1.23451 -0.41468,1.50942z" fill="url(#color-6)" stroke-opacity="0.12941" stroke="#000000" stroke-width="0.25"/><path d="M331.75647,218.75601c0.34366,-0.22679 0.70766,-0.27247 0.70766,-0.27247l1.46534,0.48325c6.18256,7.39369 -4.96856,9.85867 -3.02103,0.85624c0,0 0.17819,-0.7829 0.84803,-1.06708z" fill-opacity="0.74902" fill="#818181" stroke="none" stroke-width="0.5"/><path d="M301.04426,229.42607c0.80348,-0.63052 1.48824,-0.27603 1.83821,0.00779c5.66326,-2.30511 7.11379,4.0177 3.18876,4.3974c0.07571,0.44822 0.03598,1.18003 -0.8654,1.57871c-1.35989,0.60138 -1.96127,-0.75852 -1.96127,-0.75852c-0.23946,-0.59799 -0.55873,-1.21245 -1.05079,-1.62712l-1.29893,-0.21828c-0.64604,-0.09332 -1.17652,-0.60762 -1.26181,-1.28661c-0.08815,-0.70165 0.3279,-1.35037 0.96544,-1.5824c0.09284,-0.1729 0.23559,-0.34598 0.44572,-0.51085z" fill-opacity="0.12941" fill="#b0b0b0" stroke="none" stroke-width="0.5"/><path d="M296.26346,229.18186c-1.47534,0.18527 -1.66061,-1.29006 -1.66061,-1.29006l-0.03063,-0.30304c-0.00886,-0.37054 -0.0248,-0.74115 -0.0477,-1.11133l-0.31083,-0.17736c0,0 -1.29143,-0.73698 -0.55445,-2.02842c0.26878,-0.47112 0.61143,-0.67227 0.9382,-0.73776c0.18587,-0.27669 0.503,-0.51591 1.04121,-0.58353c1.47534,-0.18527 1.66061,1.29006 1.66061,1.29006c0.02046,0.1644 0.03973,0.32903 0.05769,0.49378c0.32766,0.31475 0.73461,0.92838 0.24451,1.78718c-0.02897,0.05079 -0.05882,0.09844 -0.08945,0.14316c0.01463,0.28293 0.02558,0.56605 0.03307,0.8491l0.00839,0.00755c0,0 0.18527,1.47534 -1.29006,1.66061z" fill-opacity="0.12941" fill="#b0b0b0" stroke="none" stroke-width="0.5"/><path d="M300.35848,237.04411c-0.36715,0.3549 -0.73003,0.46184 -1.04835,0.44929c-0.96788,0.97703 -2.02146,0.03973 -2.02146,0.03973c-0.26818,-0.26438 -0.53637,-0.52881 -0.80449,-0.79319l-1.39457,-0.19842c-0.66222,-0.07905 -1.21102,-0.59971 -1.29786,-1.29137c-0.08529,-0.67899 0.30155,-1.3085 0.90447,-1.55866l1.46392,-0.64747l0.30482,0.6894l0.00684,0.00095c0.84702,-0.28638 1.72389,-0.38422 2.53986,-0.15405l1.38249,1.36126c0,0 1.03342,1.06911 -0.03569,2.10253z" fill-opacity="0.12941" fill="#b0b0b0" stroke="none" stroke-width="0.5"/><path d="M328.8833,248.13468c-0.87842,-1.19972 0.32124,-2.07814 0.32124,-2.07814l0.78546,-0.27205c-0.18242,-0.43811 -0.20698,-1.12793 -0.12003,-1.82911c-0.49265,-0.16374 -0.79527,-0.57711 -0.79527,-0.57711c-4.45218,-7.229 6.87642,-5.66409 6.70465,-1.57157c-0.08178,1.94741 -3.25157,3.08414 -3.00301,5.01739l-1.81489,1.632c0,0 -1.19972,0.87842 -2.07814,-0.32124z" fill-opacity="0.12941" fill="#b0b0b0" stroke="none" stroke-width="0.5"/><path d="M320.98625,229.10525c0.10516,-0.8717 0.66299,-1.16665 1.10223,-1.26193c-1.94836,-1.25307 -3.97113,-3.27708 -1.73484,-5.07223c0.88467,-0.7101 3.68575,1.23772 4.96826,3.42417c0.32308,0.13834 1.23588,0.64325 0.86962,1.82013c-0.06073,0.19497 -0.13977,0.35478 -0.23107,0.48551c-0.11497,1.05215 -0.94884,1.9417 -2.96489,2.3427l-0.71111,-0.0841c0,0 -1.47617,-0.17808 -1.29815,-1.65424z" fill-opacity="0.12941" fill="#b0b0b0" stroke="none" stroke-width="0.5"/><path d="M311.6715,221.01751c-1.06893,-0.18444 -0.8943,-1.26039 -0.8943,-1.26039c0.09338,-0.54594 0.20514,-1.16112 0.5413,-1.59453l-0.52637,-0.37382c-0.44287,-0.30286 -0.60905,-0.89228 -0.36757,-1.38927c0.26574,-0.54684 0.92452,-0.77475 1.47135,-0.50901l0.60126,0.29221c1.21649,-0.06792 2.53707,-0.01594 3.10609,0.69315c2.1369,2.66298 -1.48271,2.64805 -0.17338,4.98819l-0.02052,0.18081l0.05847,-0.00803l0.16749,1.22708c0.03224,0.21263 0.00256,0.43698 -0.09855,0.64503c-0.26574,0.54684 -0.92452,0.77469 -1.47141,0.50895c-0.03777,-0.01832 -0.07405,-0.0386 -0.10872,-0.06055l-0.97912,-0.60298l0.24523,-0.39814c-0.57122,-0.42859 -1.05507,-0.95616 -1.35799,-1.57282z" fill-opacity="0.12941" fill="#b0b0b0" stroke="none" stroke-width="0.5"/><path d="M307.65618,248.00734c-0.39083,1.04032 -1.58394,0.87051 -1.58394,0.87051c-3.7733,-1.39498 -2.78295,-8.15013 1.75351,-7.97978c4.7046,0.17665 3.95971,5.54395 0.53774,6.92697z" fill-opacity="0.12941" fill="#b0b0b0" stroke="none" stroke-width="0.5"/><path d="M311.47385,259.1076c-0.23618,0.09528 -0.45946,0.18004 -0.6712,0.25438l0.03973,1.15779c0.03491,0.7669 -0.52536,1.44417 -1.30029,1.54148c-0.73353,0.09213 -1.40932,-0.36686 -1.61148,-1.05382l-0.11051,-0.35127c-0.0499,-0.0232 -0.1007,-0.04943 -0.15226,-0.07887c-0.64509,-0.36817 -0.78409,-0.87456 -0.76161,-1.28929l-1.63914,-0.64414c-0.50336,-0.18658 -0.88818,-0.64016 -0.95967,-1.20965c-0.1023,-0.81478 0.47528,-1.55831 1.29006,-1.66061c0.09225,-0.0116 0.18349,-0.01439 0.27306,-0.00922l1.87461,0.07548l-0.00428,0.10664l0.25623,-0.07482c0.41378,0.2504 0.78855,0.62517 1.08974,1.0656c0.16445,-0.03717 0.32391,-0.08386 0.47279,-0.14988l-0.24588,-0.39963l1.58353,-0.9743c0.18176,-0.11741 0.39202,-0.19687 0.62112,-0.22566c0.81478,-0.1023 1.55831,0.47528 1.66061,1.29006c0.05597,0.44572 -0.09148,0.87015 -0.37001,1.17991l-1.10027,1.23683l-0.10974,-0.0976z" fill-opacity="0.03137" fill="#ffffff" stroke="none" stroke-width="0.5"/><g stroke="none" stroke-width="0.5"><path d="M303.19692,264.81975c-1.06637,-1.03627 -0.03004,-2.10264 -0.03004,-2.10264l0.71278,-0.73324c0.34003,-0.33926 0.6803,-0.63106 1.01778,-0.88003c-0.4669,-0.05948 -0.93136,-0.21703 -1.35739,-0.47844c-0.42372,-0.02831 -0.87152,-0.04062 -1.34419,-0.02421l-0.07012,-0.03723l-0.0025,0.03378l-1.56449,-0.1136c-0.7051,-0.03723 -1.3041,-0.57455 -1.39516,-1.29976c-0.1023,-0.81478 0.47528,-1.55831 1.29006,-1.66061c0.04056,-0.00512 0.08083,-0.00845 0.12086,-0.01029l2.17842,-0.11687l0.01166,0.21739c1.09248,-0.0499 1.92064,-0.20829 2.59536,-0.2341c-0.08113,-0.15678 -0.18706,-0.34301 -0.31856,-0.56391l-1.32349,-1.41009c-0.21418,-0.22286 -0.36091,-0.51406 -0.40242,-0.84434c-0.1023,-0.81478 0.47528,-1.55831 1.29006,-1.66061c0.47885,-0.06013 0.93296,0.11449 1.24694,0.43418l1.25182,1.25033l-0.04015,0.04015l0.04033,0.04294l0.11568,0.04699c0.18426,0.29703 0.34378,0.58496 0.4801,0.86367c0.00856,0.00274 0.01719,0.00559 0.02575,0.00845c0.02795,-1.04817 0.21007,-2.30856 0.26414,-3.06172l0.02694,-0.04794l-0.02064,-0.00291l0.24683,-1.73484c0.07905,-0.66222 0.59977,-1.21102 1.29137,-1.29786c0.81478,-0.1023 1.55831,0.47528 1.66061,1.29006l0.19503,1.55301l-0.36965,0.04645l-0.0028,0.01957c0.27556,1.15963 0.10748,2.05209 0.1845,3.86698c0.20341,0.13424 0.37334,0.31791 0.49099,0.53619c0.95408,-0.89823 2.31855,-1.54826 3.4987,-1.75518c0.53048,-0.3624 1.03199,-0.68262 1.44227,-0.86427l1.46285,-0.64694c0.13793,-0.06483 0.28835,-0.10938 0.44775,-0.12942c0.81478,-0.1023 1.55831,0.47528 1.66061,1.29006c0.07952,0.63326 -0.25165,1.22351 -0.7857,1.50305l-1.44465,0.79944l-0.07,-0.12657l-0.06804,0.0301c-0.64277,0.28412 -1.26276,0.48986 -1.85694,0.62838c-1.477,0.74686 -2.68778,1.07077 -2.93705,1.42157c0.83679,0.37227 1.71687,0.89567 2.5715,1.48801c0.24207,0.0882 0.50306,0.18188 0.78379,0.28145l0.02647,-0.06198l1.97417,0.84202c0.48278,0.19574 0.84844,0.63986 0.91797,1.19347c0.1023,0.81478 -0.47528,1.55831 -1.29006,1.66061c-0.26967,0.03384 -0.53149,-0.00666 -0.76488,-0.10569l-1.44792,-0.58199c-0.35014,-0.12407 -0.68006,-0.24992 -0.99048,-0.37732c-1.58347,0.45595 -2.54016,-0.83601 -3.03644,-1.74293c-0.1456,-0.12633 -0.27746,-0.25296 -0.39642,-0.37964c0.03818,0.30988 0.10623,0.80735 0.19961,1.55081l0.19503,1.55301c0.1023,0.81478 -0.47528,1.55831 -1.29006,1.66061c-0.67899,0.08529 -1.3085,-0.30161 -1.55866,-0.90447l-0.34336,-0.77642c-0.96454,-0.53803 -1.96115,-0.77005 -2.60963,-0.11884l-0.68417,0.70421c0,0 -1.03627,1.06631 -2.10264,0.02998z" fill-opacity="0.09412" fill="#f5f5f5"/><path d="M306.46449,260.64706c-0.78605,-0.27758 -1.56259,-0.58306 -2.32652,-0.91571l-0.02385,0.0433l-1.84772,-1.01867c-0.41039,-0.22001 -0.71159,-0.62885 -0.77398,-1.12603c-0.1023,-0.81478 0.47528,-1.55831 1.29006,-1.66061c0.3213,-0.04033 0.63147,0.02498 0.89561,0.16898l1.6389,0.86534c0.05882,0.02593 0.11771,0.05175 0.17677,0.07732c0.26741,-0.30018 0.44126,-0.62648 0.38375,-0.99226l-0.33801,-1.4795c-0.01303,-0.05389 -0.0232,-0.10914 -0.03027,-0.16541c-0.1023,-0.81478 0.47528,-1.55831 1.29006,-1.66061c0.60893,-0.07649 1.17789,0.22679 1.46933,0.72491l0.14881,0.24178c0.58419,0.07797 1.13459,-0.01975 1.4795,-0.41248l0.10337,-0.03795l-0.02778,-0.03212l1.26532,-1.09403c0.21697,-0.19318 0.49265,-0.32492 0.80265,-0.36382c0.81478,-0.1023 1.55831,0.47528 1.66061,1.29006c0.04241,0.33747 -0.03188,0.66276 -0.19134,0.93528l-1.15624,2.0261l-0.33587,-0.1917c-0.04984,0.29078 0.01047,0.47713 0.25308,0.59097c0.13995,0.02266 0.27871,0.05864 0.41462,0.10855c0.31785,0.04485 0.76321,0.0543 1.36929,0.04336l-0.00006,-0.0003l1.55611,-0.03931c0.76196,-0.02855 1.43251,0.52994 1.52934,1.30083c0.1023,0.81478 -0.47528,1.55831 -1.29006,1.66061l-2.0189,0.25355l-0.01737,-0.13817c-0.22881,0.25218 -0.26961,0.5146 0.00589,0.78433l0.03991,0.29203l0.09957,-0.04401l0.64694,1.46285c0.06483,0.13793 0.10938,0.28835 0.12942,0.44775c0.1023,0.81478 -0.47528,1.55831 -1.29006,1.66061c-0.31,0.03896 -0.60964,-0.02058 -0.8676,-0.15411l-1.49651,-0.74721l0.19806,-0.39671c-1.01492,-0.3461 -1.88085,-0.64093 -2.02437,-0.57437l-0.54446,1.35454c-0.18914,0.49783 -0.64027,0.87735 -1.20549,0.94837c-0.81478,0.1023 -1.55831,-0.47528 -1.66061,-1.29006l-0.19503,-1.55295l0.65039,-0.08166l0.10575,-0.26325c0.0047,-0.28246 0.02456,-0.56611 0.059,-0.84833z" fill-opacity="0.07059" fill="#ffffff"/><path d="M309.82359,263.05327c-1.03449,-0.20627 -1.18872,-1.00011 -1.19103,-1.44405c-1.65573,0.45459 -2.70717,-1.35656 -0.6718,-3.97583c-0.00125,-0.00892 -0.00244,-0.01772 -0.00357,-0.02665c-0.1023,-0.81478 0.47528,-1.55831 1.29006,-1.66061c0.56521,-0.07096 1.09617,0.18521 1.40248,0.62082l0.91851,1.25444c0.15369,0.20163 0.25772,0.44531 0.29156,0.71498c0.06459,0.51412 -0.14156,0.99981 -0.50716,1.31403c0.17516,0.348 0.28983,0.73086 0.33379,1.07398l-0.1139,0.96151c0,0 -0.29078,1.45821 -1.74899,1.16742z" fill-opacity="0.16863" fill="#ffffff"/></g><path d="M309.99025,269.05704c-17.20431,0 -31.15116,-13.94691 -31.15116,-31.15116c0,-17.20431 13.94691,-31.15116 31.15116,-31.15116c17.20431,0 31.15116,13.94691 31.15116,31.15116c0,17.20431 -13.94691,31.15116 -31.15116,31.15116z" data-paper-data="{&quot;index&quot;:null}" fill="url(#color-7)" stroke="none" stroke-width="0.5"/></g></g></g></svg>