<svg version="1.1" xmlns="http://www.w3.org/2000/svg" xmlns:xlink="http://www.w3.org/1999/xlink" width="151.84118" height="183.34965" viewBox="0,0,151.84118,183.34965"><defs><linearGradient x1="197.71456" y1="70.52517" x2="198.69976" y2="113.414" gradientUnits="userSpaceOnUse" id="color-1"><stop offset="0" stop-color="#4a4a4a" stop-opacity="0"/><stop offset="1" stop-color="#4a4a4a" stop-opacity="0.21569"/></linearGradient><linearGradient x1="200.2974" y1="68.61898" x2="198.99522" y2="114.99321" gradientUnits="userSpaceOnUse" id="color-2"><stop offset="0" stop-color="#292929" stop-opacity="0"/><stop offset="1" stop-color="#292929" stop-opacity="0.24706"/></linearGradient><linearGradient x1="202.46494" y1="71.85018" x2="198.26448" y2="114.33046" gradientUnits="userSpaceOnUse" id="color-3"><stop offset="0" stop-color="#383838" stop-opacity="0"/><stop offset="1" stop-color="#383838" stop-opacity="0.22745"/></linearGradient><linearGradient x1="199.56108" y1="73.52087" x2="198.73936" y2="113.09957" gradientUnits="userSpaceOnUse" id="color-4"><stop offset="0" stop-color="#4a4a4a" stop-opacity="0"/><stop offset="1" stop-color="#4a4a4a" stop-opacity="0.11373"/></linearGradient><linearGradient x1="242.06483" y1="210.48632" x2="242.06483" y2="134.40733" gradientUnits="userSpaceOnUse" id="color-5"><stop offset="0" stop-color="#000000" stop-opacity="0"/><stop offset="1" stop-color="#000000" stop-opacity="0"/></linearGradient><radialGradient cx="187.32384" cy="240.51534" r="44.2973" gradientUnits="userSpaceOnUse" id="color-6"><stop offset="0" stop-color="#a3cdff"/><stop offset="1" stop-color="#446db8"/></radialGradient><linearGradient x1="247.87101" y1="244.27482" x2="175.75722" y2="244.12413" gradientUnits="userSpaceOnUse" id="color-7"><stop offset="0" stop-color="#464646"/><stop offset="1" stop-color="#353535"/></linearGradient><linearGradient x1="212.2802" y1="233.58764" x2="212.2802" y2="247.25432" gradientUnits="userSpaceOnUse" id="color-8"><stop offset="0" stop-color="#2d3b45"/><stop offset="1" stop-color="#1d2836"/></linearGradient><linearGradient x1="283.36733" y1="125.33033" x2="224.68049" y2="191.35026" gradientUnits="userSpaceOnUse" id="color-9"><stop offset="0" stop-color="#5d5d5d"/><stop offset="1" stop-color="#474747"/></linearGradient><radialGradient cx="282.69625" cy="140.51932" r="11.83333" gradientUnits="userSpaceOnUse" id="color-10"><stop offset="0" stop-color="#939393"/><stop offset="1" stop-color="#393939"/></radialGradient><linearGradient x1="287.81115" y1="130.06407" x2="277.58133" y2="150.97454" gradientUnits="userSpaceOnUse" id="color-11"><stop offset="0" stop-color="#666666"/><stop offset="1" stop-color="#4f4f4f"/></linearGradient><radialGradient cx="203.80109" cy="162.24188" r="37.63684" gradientUnits="userSpaceOnUse" id="color-12"><stop offset="0" stop-color="#939393"/><stop offset="1" stop-color="#535353"/></radialGradient><radialGradient cx="203.41208" cy="134.49561" r="37.63684" gradientUnits="userSpaceOnUse" id="color-13"><stop offset="0" stop-color="#393939"/><stop offset="1" stop-color="#1b1b1b"/></radialGradient><radialGradient cx="203.21758" cy="128.98142" r="32.09343" gradientUnits="userSpaceOnUse" id="color-14"><stop offset="0" stop-color="#373737"/><stop offset="1" stop-color="#1b1b1b"/></radialGradient><linearGradient x1="186.56196" y1="119.8755" x2="210.73272" y2="119.8755" gradientUnits="userSpaceOnUse" id="color-15"><stop offset="0" stop-color="#535353"/><stop offset="1" stop-color="#232323"/></linearGradient><radialGradient cx="225.02638" cy="141.63385" r="17.36636" gradientUnits="userSpaceOnUse" id="color-16"><stop offset="0" stop-color="#939393"/><stop offset="1" stop-color="#535353"/></radialGradient><radialGradient cx="242.68983" cy="149.5338" r="9.74286" gradientUnits="userSpaceOnUse" id="color-17"><stop offset="0" stop-color="#1d1d1d"/><stop offset="1" stop-color="#080808"/></radialGradient><linearGradient x1="242.68983" y1="139.79093" x2="242.68983" y2="159.27666" gradientUnits="userSpaceOnUse" id="color-18"><stop offset="0" stop-color="#ffffff"/><stop offset="1" stop-color="#a0a0a0"/></linearGradient><radialGradient cx="192.52272" cy="195.82662" r="50.77276" gradientUnits="userSpaceOnUse" id="color-19"><stop offset="0" stop-color="#adadad"/><stop offset="1" stop-color="#666666"/></radialGradient><radialGradient cx="198.94934" cy="210.76708" r="35.99484" gradientUnits="userSpaceOnUse" id="color-20"><stop offset="0" stop-color="#1e1e1e"/><stop offset="1" stop-color="#171717"/></radialGradient><linearGradient x1="281.0358" y1="144.50606" x2="284.56513" y2="136.85289" gradientUnits="userSpaceOnUse" id="color-21"><stop offset="0" stop-color="#644520"/><stop offset="1" stop-color="#5c401f"/></linearGradient><linearGradient x1="278.91106" y1="138.91323" x2="286.68988" y2="142.44577" gradientUnits="userSpaceOnUse" id="color-22"><stop offset="0" stop-color="#644520"/><stop offset="1" stop-color="#5c401f"/></linearGradient><linearGradient x1="278.8274" y1="142.16904" x2="286.77354" y2="139.18991" gradientUnits="userSpaceOnUse" id="color-23"><stop offset="0" stop-color="#644520"/><stop offset="1" stop-color="#5c401f"/></linearGradient><linearGradient x1="284.30684" y1="144.64508" x2="281.29408" y2="136.71387" gradientUnits="userSpaceOnUse" id="color-24"><stop offset="0" stop-color="#644520"/><stop offset="1" stop-color="#5c401f"/></linearGradient><linearGradient x1="269.78677" y1="170.19012" x2="295.81416" y2="111.16885" gradientUnits="userSpaceOnUse" id="color-25"><stop offset="0" stop-color="#e08200"/><stop offset="1" stop-color="#82491d"/></linearGradient><linearGradient x1="279.98161" y1="147.07166" x2="285.61931" y2="134.28733" gradientUnits="userSpaceOnUse" id="color-26"><stop offset="0" stop-color="#636363"/><stop offset="1" stop-color="#3a3a3a"/></linearGradient><linearGradient x1="279.98161" y1="147.07166" x2="285.61931" y2="134.28733" gradientUnits="userSpaceOnUse" id="color-27"><stop offset="0" stop-color="#adadad"/><stop offset="1" stop-color="#7e7e7e"/></linearGradient><radialGradient cx="258.29123" cy="140.14959" r="20.5" gradientUnits="userSpaceOnUse" id="color-28"><stop offset="0" stop-color="#454545"/><stop offset="1" stop-color="#2f2f2f"/></radialGradient><radialGradient cx="287.91254" cy="120.84947" r="6.16667" gradientUnits="userSpaceOnUse" id="color-29"><stop offset="0" stop-color="#939393"/><stop offset="1" stop-color="#454545"/></radialGradient><radialGradient cx="290.49924" cy="122.47709" r="6.16667" gradientUnits="userSpaceOnUse" id="color-30"><stop offset="0" stop-color="#636363"/><stop offset="1" stop-color="#232323"/></radialGradient></defs><g transform="translate(-164.94688,-68.44589)"><g data-paper-data="{&quot;isPaintingLayer&quot;:true}" fill-rule="nonzero" stroke-linejoin="miter" stroke-miterlimit="10" stroke-dasharray="" stroke-dashoffset="0" style="mix-blend-mode: normal"><path d="M190.29108,111.15605l-0.01261,-0.00962l-0.00761,-0.03853c-0.07495,-0.18724 -0.11997,-0.40314 -0.1253,-0.63446l-0.01039,-0.45244l0.02429,-0.16342l-0.00384,-0.16711l0.02994,-0.20149l-0.02305,-1.00325l-0.06547,-0.53534l0.00473,-0.0975l-0.01855,-0.09398l-0.00027,-0.01208l-0.01055,-0.03871l-0.07082,-0.14972l-0.04561,-0.17796l-0.30177,-0.80499l-0.01686,-0.09465l-0.03815,-0.08069l-0.0939,-0.36631l-0.05818,-0.11756l-0.04607,-0.16871l-0.07081,-0.14972l-0.20639,-0.80532l-0.01656,-0.21697l-0.04145,-0.20992l-0.0024,-0.10435l-0.03913,-0.19819l-0.00384,-0.1671l-0.03173,-0.16074l-0.00117,-0.05119l-0.01585,-0.06182l-0.01655,-0.21697l-0.04145,-0.20992l-0.03949,-1.71916l0.02429,-0.16342l-0.00384,-0.16711l0.02994,-0.20152l-0.00862,-0.37581l0.02429,-0.16343l-0.00384,-0.16711l0.04955,-0.33336l0.04852,-0.42354l0.02362,-0.07874l0.00258,-0.08572l0.09604,-0.46787l0.04264,-0.372l0.02361,-0.07875l0.0026,-0.08572l0.09169,-0.44676l0.04042,-0.44026l0.05162,-0.18863l0.02587,-0.19942l0.1388,-0.43722l0.08941,-0.51697l0.04138,-0.11212l0.01621,-0.12498l0.49783,-1.56802l0.20632,-1.00529l0.05259,-0.12883l0.02681,-0.14439l0.14075,-0.36633l0.08915,-0.3561l0.04243,-0.0912l0.0197,-0.10623l0.1773,-0.46142l0.03367,-0.05206l0.01762,-0.06661l0.10822,-0.22377l0.18719,-0.74799l0.02224,-0.04781l0.00734,-0.05666l0.61463,-1.93594l0.13101,-0.63835l0.09251,-0.90582l0.03061,-0.10729l0.00566,-0.11574l0.18957,-0.83978l0.0327,-0.82237l0.0152,-0.07045l-0.00413,-0.07352l0.10187,-0.88919l0.09274,-1.01061l0.03216,-1.0672l-0.07191,-3.13007l-0.06477,-0.64652l-0.1201,-0.60827l-0.13489,-0.60585l-0.00107,-0.0232l-0.00802,-0.02014l-0.05338,-0.2703l-0.10991,-0.36198l-0.00473,-0.04028l-0.01595,-0.03374l-0.09389,-0.36631l-0.05819,-0.11757l-0.0246,-0.09002l-0.01507,-0.00362l-0.06812,-0.14402l-0.09415,-0.10908l-0.00638,-0.10345l-0.10457,-0.22115l-0.00911,-0.0355l-0.00084,-0.00187l-0.07125,-0.08761l-0.13138,-0.26539l-0.04608,-0.16868l-0.0432,-0.09142l-0.11608,-0.15706l-0.0819,-0.18338l-0.10198,-0.16091l-0.06673,-0.17796l-0.00929,-0.05216l-0.13077,-0.15155l-0.00415,-0.06748l-0.05178,-0.08173l-0.06673,-0.17796l-0.12061,-0.67779l0.13594,-0.31722l0.00575,-0.37314l0.35677,-0.47288l0.06918,-0.05423l0.00492,-0.01348l0.02594,-0.01072l0.023,-0.01804l0.20895,-0.07779l0.20747,-0.08569l0.02615,-0.00122l0.02611,-0.00975l0.00896,0.00805l1.57599,-0.07571l0.495,-0.10369l0.42141,-0.10786l0.06742,0.00684l0.06498,-0.02684l0.32241,-0.01551l0.13702,-0.05663l0.11552,-0.00557l0.11116,-0.04589l0.12512,-0.00603l0.11301,0.03519l0.11552,-0.00555l0.25232,0.07844l0.09283,0.06594l0.10162,0.02762l0.14191,0.0942l0.06438,-0.02877l0.10545,0.08477l0.11795,0.0367l0.03769,0.08839l0.16128,0.12962l0.07253,0.03119l0.10798,0.09222l0.11944,0.05528l0.19185,0.17191l0.06519,0.09702l0.08175,0.06571l0.06137,0.08311l0.11281,0.10108l0.06519,0.09702l0.08175,0.06571l0.12929,0.17493l0.05075,0.1136l0.07126,0.08761l0.02207,0.04458l0.03223,0.02886l0.06519,0.09701l0.08175,0.0657l0.12927,0.17499l0.05076,0.11362l0.07127,0.08761l0.24755,0.5002l0.57169,1.02936l0.05184,0.16277l0.07586,0.14172l0.08559,0.28192l0.11824,0.21288l0.05184,0.16276l0.07584,0.14172l0.11983,0.39468l0.09762,0.26037l0.17852,0.39963l0.03339,0.14154l0.05837,0.12347l0.04562,0.17796l0.10161,0.27108l0.02579,0.14486l0.05165,0.12955l0.34448,1.74447l0.05627,0.21953l0.00403,0.05294l0.01841,0.0461l0.13185,0.6677l0.05627,0.21954l0.01656,0.217l0.04145,0.20988l0.00448,0.19485l0.03913,0.19825l0.00075,0.03305l0.01049,0.02938l0.07295,0.44941l-0.00025,0.02253l0.00666,0.02032l0.05503,0.39593l0.09472,0.312l0.01459,0.12386l0.03977,0.11174l0.07296,0.44938l-0.00024,0.02248l0.00665,0.02034l0.06052,0.43546l0.11199,0.43699l0.0082,0.10708l0.03193,0.09732l0.06052,0.43546l0.11199,0.43699l0.0065,0.0853l0.02716,0.07628l0.05962,0.36707l0.11729,0.45767l0.00403,0.05292l0.01841,0.04613l0.05337,0.27028l0.05998,0.19756l0.42625,0.76748l0.14657,0.14823l0.07813,0.13001l0.09708,0.09974l0.22683,0.38325l0.94756,1.28229l0.20181,0.20412l0.08757,0.14569l0.10633,0.11672l0.15423,0.27768l0.27448,0.37143l0.05075,0.11362l0.07126,0.08761l0.03776,0.07629l0.12468,0.12611l0.10428,0.17352l0.12114,0.14892l0.2627,0.53088l0.02183,0.07982l0.04008,0.06326l0.09309,0.24826l0.14299,0.25742l0.03572,0.11209l0.05767,0.09103l0.13344,0.35592l0.00995,0.05581l0.0244,0.04557l0.11982,0.39468l0.24827,0.66216l0.00995,0.05579l0.02439,0.04557l0.11983,0.39465l0.11483,0.30624l0.00995,0.05579l0.02439,0.04557l0.13553,0.44638l0.01085,0.09211l0.03226,0.08094l0.0325,0.16464l0.12226,0.27366l0.03338,0.14153l0.05838,0.12347l0.13761,0.53685l0.00817,0.10709l0.03196,0.0973l0.05274,0.37951l0.15426,0.47626l0.02535,0.18735l0.05171,0.17565l0.06784,0.61743l0.11748,0.52766l0.00432,0.0938l0.02651,0.08586l0.15232,1.2452l0.07289,0.52444l-0.00367,0.11337l0.02155,0.10916l0.04573,1.99059l-0.01966,0.13226l0.00756,0.13486l-0.05218,0.45542l-0.02361,0.07875l-0.0026,0.08568l-0.0693,0.33765l0.00533,0.23216l-0.00794,0.0534l0.01516,0.04042l-0.06448,0.29132l-0.04444,0.29904l-0.02707,0.02416l-0.01153,0.05203l-0.03323,0.07749l-0.02004,0.13499l-0.07086,0.20854l-0.049,0.22134l-0.05267,0.12286l-0.02053,0.10015l-0.06377,0.15617l-0.03823,0.17274l-0.08809,0.2056l-0.03401,0.10712l-0.09436,0.17037l-0.07332,0.19083l-0.54133,0.83673l-0.15801,0.36878l-0.09242,0.29108l-0.04792,0.08653l-0.00104,0.06776l-0.06514,0.08635l-0.00475,0.03686l-0.0109,0.03436l-0.00567,0.03812l-0.00898,0.00802l-0.20805,0.65539l-0.04792,0.08653l-0.00105,0.06775l-0.13722,0.1819l-0.04394,0.07932l-0.0003,0.01926l-0.03903,0.05173l-0.03311,0.05974l-0.01326,0.00172l-0.05182,0.06867l-0.04394,0.07933l-0.0003,0.01926l-0.03902,0.05173l-0.03311,0.05973l-0.01326,0.00174l-0.05181,0.06867l-0.11639,0.21009l-0.04666,0.00599l-0.05653,0.07493l-0.12304,0.09651l-0.06546,0.02434l-0.05579,0.0552l-0.37123,0.199l-0.12263,0.0196l-0.00432,0.0034l-0.20894,0.07779l-0.20746,0.08568l-0.02616,0.00123l-0.02611,0.00971l-0.00896,-0.00805l-0.03354,0.00157l-0.16331,0.05548l-0.1308,0.07013l-0.15004,0.02393l-0.14513,0.05996l-0.28566,0.01371l-0.04273,0.02291l-0.15004,0.02393l-0.14513,0.05996l-0.03542,0.00172l-0.04272,0.02291l-0.03659,0.00586l-0.03191,0.02661l-0.24814,0.10252l-0.11553,0.00556l-0.11116,0.04594l-0.22308,0.01072l-0.04273,0.0229l-0.03659,0.00583l-0.03191,0.02661l-0.24819,0.10252l-0.11553,0.00556l-0.11115,0.04594l-0.53269,0.02559l-0.22022,0.07475l-0.09351,-0.00195l-0.08993,0.03714l-7.69524,0.36974l-0.14757,-0.04587l-0.1508,-0.00949l-0.37953,-0.16297l-0.02311,-0.01975l-0.05733,0.00275l-0.00858,0.00889l-0.02651,-0.00723l-0.02616,0.00128l-0.21094,-0.0656l-0.21204,-0.05752l-0.02378,-0.01578l-0.02635,-0.00822l-0.00553,-0.01296l-0.07156,-0.04753l-0.37768,-0.43756l-0.0409,-0.66495l-0.00088,-0.00204l0.00064,-0.00171l-0.0255,-0.41455c-0.2325,-0.087 -0.43106,-0.30005 -0.55733,-0.58723z" fill="url(#color-1)" stroke="none" stroke-width="0.5" stroke-linecap="butt"/><path d="M190.04998,111.58795l-0.01308,-0.01181l-0.00608,-0.04243c-0.07052,-0.21057 -0.10719,-0.44865 -0.10014,-0.69877l0.01373,-0.48921l0.03522,-0.17348l0.00508,-0.18068l0.04342,-0.21386l0.03047,-1.08475l-0.04112,-0.58496l0.01047,-0.10464l-0.01483,-0.10352l0.00036,-0.01308l-0.00925,-0.04296l-0.06813,-0.16968l-0.03938,-0.19721l-0.28112,-0.90305l-0.01295,-0.10405l-0.03671,-0.09144l-0.08107,-0.40598l-0.05627,-0.13348l-0.04041,-0.18729l-0.06813,-0.16966l-0.17824,-0.89246l-0.00591,-0.23595l-0.03314,-0.23117l0.00318,-0.11283l-0.03128,-0.21825l0.00509,-0.18068l-0.02537,-0.17705l0.00156,-0.05537l-0.01367,-0.06849l-0.00591,-0.23596l-0.03313,-0.23116l0.05218,-1.85887l0.03523,-0.17348l0.00508,-0.18071l0.04343,-0.21388l0.01142,-0.40634l0.03522,-0.17348l0.00509,-0.18068l0.07182,-0.35388l0.07567,-0.45121l0.0298,-0.0822l0.00751,-0.09217l0.12936,-0.49353l0.06647,-0.39635l0.0298,-0.0822l0.00751,-0.09216l0.12354,-0.47131l0.06785,-0.47022l0.06609,-0.19749l0.03888,-0.21209l0.17384,-0.45558l0.12492,-0.54728l0.05082,-0.11621l0.02436,-0.13292l0.6234,-1.63388l0.27799,-1.06054l0.06382,-0.13283l0.03688,-0.15273l0.17202,-0.37886l0.11576,-0.37384l0.05081,-0.09354l0.0271,-0.11228l0.21669,-0.47727l0.0392,-0.05224l0.02266,-0.06982l0.12904,-0.22887l0.24314,-0.78518l0.02662,-0.04901l0.01105,-0.06019l0.76968,-2.01732l0.17651,-0.67341l0.14973,-0.96638l0.03894,-0.11216l0.01248,-0.12422l0.25078,-0.88392l0.08061,-0.88327l0.02028,-0.07425l-0.00039,-0.07981l0.1589,-0.94742l0.15575,-1.07931l0.09352,-1.1474l0.09503,-3.38445l-0.0342,-0.70478l-0.09601,-0.66994l-0.11209,-0.66899l0.00011,-0.02515l-0.00755,-0.02265l-0.04268,-0.29773l-0.0986,-0.40315l-0.00288,-0.04395l-0.01535,-0.03818l-0.08107,-0.40596l-0.05627,-0.13349l-0.02158,-0.09996l-0.01604,-0.00561l-0.06553,-0.16322l-0.09555,-0.12854l-0.00116,-0.11232l-0.10062,-0.25055l-0.00786,-0.03931l-0.00081,-0.00215l-0.07201,-0.10271l-0.12705,-0.30145l-0.0404,-0.18728l-0.04157,-0.10351l-0.11652,-0.18284l-0.07824,-0.20721l-0.10111,-0.18536l-0.06216,-0.19966l-0.00713,-0.05732l-0.13269,-0.17852l-0.00076,-0.07327l-0.05136,-0.09412l-0.06215,-0.19966l-0.09271,-0.745l0.16414,-0.32652l0.02676,-0.40184l0.4109,-0.46889l0.07762,-0.05055l0.00607,-0.01398l0.02855,-0.00859l0.0258,-0.01679l0.22966,-0.05977l0.22848,-0.0685l0.02827,0.00164l0.02869,-0.0075l0.00923,0.00971l1.70406,0.10004l0.53964,-0.05479l0.46049,-0.06769l0.07235,0.01508l0.07158,-0.02144l0.34861,0.02052l0.15093,-0.04526l0.12492,0.00731l0.1224,-0.03671l0.1353,0.00793l0.11995,0.05091l0.12492,0.00734l0.26784,0.1137l0.09646,0.08184l0.10809,0.04146l0.14784,0.11803l0.07101,-0.02357l0.10908,0.10357l0.1252,0.05314l0.03576,0.09968l0.16683,0.1584l0.0765,0.04197l0.11141,0.11192l0.1258,0.07339l0.19743,0.20763l0.06496,0.1121l0.08457,0.08029l0.06163,0.09669l0.11611,0.12207l0.06493,0.1121l0.08454,0.0803l0.12982,0.20359l0.04849,0.12842l0.07201,0.1027l0.02134,0.05062l0.03316,0.03485l0.06495,0.1121l0.08454,0.0803l0.12982,0.20359l0.04848,0.12842l0.07201,0.10271l0.23945,0.56806l0.55988,1.17622l0.04695,0.18149l0.07398,0.16161l0.07676,0.31396l0.11578,0.24324l0.04695,0.18154l0.07398,0.16161l0.10749,0.43952l0.09096,0.2921l0.1705,0.45162l0.0282,0.15651l0.05617,0.13986l0.03938,0.19722l0.09466,0.30413l0.01981,0.15917l0.04859,0.14569l0.27538,1.92136l0.04859,0.24328l0.00145,0.05752l0.01728,0.05187l0.1054,0.73538l0.04859,0.24328l0.00589,0.23595l0.03314,0.23117l-0.00591,0.21067l0.03127,0.21824l-0.001,0.03577l0.00967,0.03297l0.05392,0.49313l-0.00148,0.02424l0.00607,0.02265l0.03751,0.43348l0.08495,0.34743l0.00892,0.13522l0.03673,0.12512l0.05392,0.49313l-0.00149,0.02423l0.00607,0.02265l0.04126,0.47665l0.09671,0.48423l0.00293,0.11642l0.0291,0.10864l0.04127,0.47665l0.09671,0.48421l0.00232,0.09271l0.0251,0.08541l0.04402,0.40283l0.10128,0.50709l0.00145,0.05752l0.01729,0.05186l0.04266,0.29773l0.05381,0.22001l0.41742,0.87696l0.14991,0.17683l0.07711,0.14924l0.09921,0.11878l0.22352,0.43953l0.95136,1.4924l0.2064,0.24347l0.08644,0.16723l0.10828,0.13817l0.15103,0.31728l0.27559,0.43228l0.04848,0.1284l0.07201,0.10271l0.03653,0.08662l0.12753,0.15044l0.10292,0.19918l0.12242,0.17463l0.2541,0.60292l0.01913,0.08858l0.03975,0.07285l0.08673,0.27855l0.14003,0.29418l0.03234,0.12505l0.05718,0.1048l0.12431,0.39928l0.00763,0.06134l0.02379,0.05194l0.10749,0.43953l0.23127,0.74285l0.00763,0.0613l0.0238,0.05195l0.10749,0.43952l0.10697,0.3436l0.00763,0.06131l0.0238,0.05194l0.12156,0.49717l0.00662,0.10057l0.03035,0.09099l0.02598,0.18131l0.11679,0.30926l0.0282,0.15655l0.05617,0.13987l0.1188,0.59495l0.00293,0.11641l0.0291,0.10865l0.03597,0.41541l0.14012,0.53152l0.017,0.20503l0.04608,0.19541l0.03911,0.6738l0.09761,0.58268l-0.0005,0.10167l0.02387,0.09562l0.09564,1.36065l0.04971,0.57407l-0.0102,0.12185l0.01723,0.12022l-0.06043,2.1524l-0.02849,0.14039l0.00072,0.14626l-0.08139,0.48522l-0.0298,0.08223l-0.00751,0.09216l-0.09336,0.35621l-0.00704,0.25103l-0.01152,0.0567l0.01414,0.04539l-0.0856,0.30678l-0.06445,0.31745l-0.03054,0.02295l-0.0153,0.05479l-0.04011,0.07981l-0.02905,0.14324l-0.08795,0.21684l-0.06506,0.23304l-0.06357,0.12646l-0.02767,0.10563l-0.0774,0.16111l-0.05078,0.18192l-0.10636,0.21158l-0.0426,0.11162l-0.11117,0.17293l-0.0896,0.19734l-0.63001,0.84007l-0.19077,0.3795l-0.11574,0.30334l-0.05647,0.0878l-0.00488,0.07294l-0.07501,0.0856l-0.00719,0.03927l-0.01367,0.03585l-0.00822,0.04044l-0.01012,0.0076l-0.26055,0.68288l-0.05647,0.0878l-0.00487,0.07294l-0.15804,0.18039l-0.05177,0.08049l-0.00139,0.02076l-0.04495,0.05125l-0.03901,0.06065l-0.0144,0.00034l-0.05966,0.06813l-0.05177,0.08049l-0.00138,0.02076l-0.04495,0.05132l-0.039,0.06064l-0.0144,0.00034l-0.05967,0.06812l-0.1371,0.21322l-0.05066,0.00106l-0.0651,0.07431l-0.13804,0.08991l-0.07196,0.0187l-0.06322,0.05304l-0.41137,0.17184l-0.13335,0.00699l-0.00483,0.00314l-0.22964,0.05978l-0.22849,0.06849l-0.02826,-0.00165l-0.02872,0.0075l-0.00922,-0.0097l-0.03626,-0.00213l-0.17921,0.04096l-0.14495,0.06054l-0.16315,0.00858l-0.15984,0.04795l-0.30889,-0.01813l-0.04737,0.01979l-0.16314,0.00859l-0.15985,0.04794l-0.03827,-0.00225l-0.04738,0.01979l-0.03978,0.00209l-0.03587,0.02499l-0.27334,0.08196l-0.12491,-0.00732l-0.12242,0.03671l-0.24122,-0.01416l-0.04737,0.01979l-0.03979,0.00207l-0.03586,0.02503l-0.27334,0.08196l-0.12492,-0.00734l-0.12242,0.03671l-0.57599,-0.03382l-0.24166,0.05527l-0.10075,-0.0129l-0.09905,0.0297l-8.3206,-0.48869l-0.15664,-0.06654l-0.16213,-0.02763l-0.40038,-0.21952l-0.02386,-0.02393l-0.06197,-0.00364l-0.00974,0.00859l-0.0282,-0.01084l-0.02827,-0.00168l-0.22389,-0.09505l-0.22555,-0.08653l-0.02478,-0.01976l-0.02798,-0.01192l-0.00525,-0.01467l-0.07452,-0.05948l-0.38324,-0.51553l-0.00744,-0.72191l-0.00082,-0.00232l0.00078,-0.0018l-0.00463,-0.45008c-0.24598,-0.12066 -0.44841,-0.37333 -0.56876,-0.69765z" fill="url(#color-2)" stroke="none" stroke-width="0.5" stroke-linecap="butt"/><path d="M190.25681,109.98673l-0.01128,-0.01265l-0.00285,-0.03987c-0.05123,-0.20327 -0.06954,-0.42718 -0.04689,-0.65632l0.04432,-0.4481l0.04363,-0.15481l0.01636,-0.16547l0.0538,-0.19087l0.09825,-0.99366l0.00005,-0.54366l0.01638,-0.09481l-0.00695,-0.09725l0.00119,-0.01194l-0.00574,-0.04078l-0.05168,-0.16528l-0.02346,-0.18673l-0.20013,-0.86874l-0.00517,-0.09744l-0.02783,-0.08908l-0.04828,-0.38442l-0.04312,-0.13042l-0.02502,-0.17773l-0.05168,-0.16528l-0.10614,-0.84504l0.00985,-0.21784l-0.01552,-0.21714l0.01023,-0.10338l-0.01463,-0.205l0.01636,-0.16548l-0.01188,-0.16631l0.005,-0.05071l-0.00815,-0.06482l0.00985,-0.21784l-0.01551,-0.21714l0.16839,-1.70276l0.04362,-0.1548l0.01636,-0.16547l0.05376,-0.19087l0.03679,-0.37221l0.04363,-0.15481l0.01637,-0.16546l0.08897,-0.31576l0.09883,-0.40481l0.03274,-0.07158l0.01287,-0.08374l0.15095,-0.43651l0.08682,-0.35558l0.03272,-0.07157l0.01288,-0.08376l0.14415,-0.4168l0.09286,-0.42335l0.07357,-0.17271l0.0495,-0.18984l0.18939,-0.39548l0.15035,-0.48648l0.05426,-0.09999l0.03101,-0.11895l0.6792,-1.4185l0.32435,-0.93787l0.06732,-0.11353l0.0438,-0.1355l0.18275,-0.32518l0.13072,-0.32819l0.0528,-0.07906l0.03221,-0.09965l0.23021,-0.4096l0.03944,-0.04279l0.02537,-0.06113l0.1335,-0.19307l0.27451,-0.6893l0.02767,-0.04147l0.01406,-0.05392l0.83859,-1.75131l0.20595,-0.59552l0.2003,-0.86867l0.04308,-0.09791l0.01954,-0.11256l0.28792,-0.77916l0.13134,-0.80154l0.02346,-0.06554l0.00483,-0.07346l0.2075,-0.84995l0.21313,-0.97172l0.16035,-1.04273l0.30656,-3.10027l0.01417,-0.65291l-0.04494,-0.62925l-0.05979,-0.63057l0.00175,-0.02308l-0.00547,-0.02184l-0.01998,-0.27962l-0.06455,-0.38416l0.00017,-0.04084l-0.01163,-0.03715l-0.04829,-0.38442l-0.04312,-0.13047l-0.01337,-0.09488l-0.0144,-0.00737l-0.04971,-0.15898l-0.07954,-0.13115l0.00619,-0.10349l-0.07632,-0.24409l-0.00467,-0.03726l-0.00063,-0.0021l-0.05962,-0.10428l-0.09734,-0.29449l-0.02504,-0.17773l-0.03152,-0.10084l-0.09535,-0.18396l-0.05855,-0.20122l-0.08101,-0.18418l-0.04426,-0.19205l-0.00285,-0.05371l-0.1105,-0.18216l0.00402,-0.06748l-0.04115,-0.09354l-0.04426,-0.19208l-0.03704,-0.69787l0.1721,-0.27811l0.05063,-0.36598l0.40832,-0.37562l0.07469,-0.03598l0.00647,-0.01205l0.02684,-0.00402l0.02483,-0.01194l0.2151,-0.02386l0.21461,-0.03209l0.0259,0.00538l0.02688,-0.00296l0.00786,0.01018l1.56098,0.32288l0.49992,0.02271l0.42796,0.00007l0.06555,0.02375l0.06722,-0.01005l0.31934,0.06606l0.14175,-0.02115l0.11443,0.02364l0.11496,-0.01716l0.12394,0.02562l0.10702,0.06311l0.11442,0.02364l0.23902,0.14089l0.08343,0.08839l0.09676,0.05279l0.12835,0.12854l0.06685,-0.01207l0.09361,0.11006l0.11173,0.06582l0.02644,0.09655l0.14321,0.16833l0.06766,0.04896l0.09521,0.1181l0.11094,0.08458l0.16818,0.21767l0.05248,0.11198l0.07258,0.08531l0.05045,0.09733l0.09889,0.12799l0.05247,0.11198l0.07258,0.08532l0.1062,0.20485l0.03628,0.12466l0.05961,0.10428l0.01635,0.04947l0.02825,0.03653l0.05248,0.11198l0.07258,0.08531l0.1062,0.20492l0.03627,0.12465l0.05962,0.10428l0.18347,0.55496l0.43884,1.15775l0.03144,0.17334l0.05759,0.15867l0.05029,0.29925l0.09074,0.23943l0.03144,0.17334l0.05759,0.15867l0.07041,0.41887l0.06473,0.28108l0.12761,0.4385l0.0158,0.14777l0.04259,0.13627l0.02346,0.1867l0.0674,0.29256l0.00793,0.1491l0.03526,0.14058l0.1289,1.80464l0.02896,0.23036l-0.00242,0.05313l0.01255,0.05l0.04932,0.69074l0.02896,0.23038l-0.00985,0.21784l0.01551,0.21715l-0.01908,0.19299l0.01465,0.20503l-0.00324,0.03274l0.00678,0.03162l0.01766,0.46092l-0.00295,0.0221l0.00414,0.02169l0.00646,0.40379l0.05565,0.33111l-0.00056,0.12563l0.02569,0.12l0.01767,0.46092l-0.00295,0.0221l0.00412,0.02169l0.0071,0.44401l0.05759,0.45852l-0.00486,0.1075l0.01973,0.10388l0.00709,0.44402l0.05759,0.45855l-0.00388,0.08561l0.01757,0.08197l0.01441,0.37653l0.06031,0.48013l-0.00239,0.05313l0.01253,0.05007l0.01997,0.2796l0.03523,0.20965l0.32718,0.86318l0.12645,0.18294l0.06126,0.14771l0.08356,0.12275l0.17714,0.43453l0.77846,1.50162l0.17409,0.25189l0.06866,0.16554l0.09064,0.14172l0.11837,0.31225l0.22548,0.43496l0.03628,0.1247l0.05961,0.10424l0.02797,0.08459l0.10757,0.1556l0.08178,0.19718l0.10129,0.17718l0.19472,0.58899l0.01186,0.08411l0.03185,0.0724l0.06173,0.26789l0.10977,0.28957l0.02165,0.11941l0.04582,0.1041l0.08848,0.38414l0.00305,0.05746l0.01852,0.05104l0.07041,0.41886l0.16463,0.71464l0.00305,0.05747l0.01852,0.05103l0.07041,0.41887l0.07614,0.33052l0.00305,0.05747l0.01852,0.05103l0.07962,0.47373l-0.00042,0.09339l0.02202,0.08783l0.01217,0.17031l0.0874,0.3003l0.0158,0.14778l0.0426,0.13629l0.07079,0.56334l-0.00486,0.1075l0.01973,0.10382l0.00617,0.38704l0.09449,0.50788l0.00235,0.19087l0.02975,0.18597l-0.00764,0.62508l0.05208,0.54922l-0.00706,0.09342l0.01577,0.09118l-0.00013,1.26458l0.00853,0.53473l-0.01728,0.11071l0.00808,0.11289l-0.19496,1.97167l-0.03529,0.12526l-0.00883,0.13465l-0.10629,0.43524l-0.03272,0.07161l-0.01288,0.08374l-0.10894,0.31497l-0.02274,0.22995l-0.01424,0.0506l0.01005,0.04363l-0.09861,0.27063l-0.07984,0.28327l-0.02959,0.01696l-0.01762,0.04836l-0.04205,0.06794l-0.03601,0.12784l-0.09492,0.18752l-0.07493,0.20559l-0.06667,0.10769l-0.0323,0.09339l-0.08163,0.13772l-0.05848,0.16049l-0.11153,0.18025l-0.04641,0.0969l-0.11346,0.14399l-0.09521,0.16936l-0.63389,0.6874l-0.20005,0.32326l-0.1261,0.26335l-0.05761,0.07317l-0.0092,0.06639l-0.07453,0.06857l-0.00916,0.03509l-0.01489,0.03113l-0.01018,0.03607l-0.00978,0.00561l-0.28388,0.59286l-0.05761,0.07317l-0.00919,0.06638l-0.15705,0.14448l-0.05283,0.06703l-0.00262,0.01888l-0.04468,0.04111l-0.03978,0.05049l-0.01327,-0.00165l-0.05929,0.05457l-0.05284,0.06703l-0.00262,0.01888l-0.04468,0.0411l-0.03982,0.05054l-0.01326,-0.00168l-0.0593,0.05457l-0.13992,0.17753l-0.04667,-0.00586l-0.06468,0.05951l-0.13278,0.06399l-0.06739,0.00752l-0.0616,0.04028l-0.38953,0.10236l-0.1231,-0.01163l-0.00465,0.00222l-0.2151,0.02387l-0.2146,0.03209l-0.02591,-0.00537l-0.0269,0.00296l-0.00786,-0.01018l-0.03321,-0.00685l-0.1675,0.01343l-0.13726,0.03601l-0.1506,-0.01424l-0.15014,0.02244l-0.28293,-0.05851l-0.04484,0.01176l-0.15063,-0.01424l-0.15011,0.02241l-0.03508,-0.00726l-0.04483,0.01175l-0.03673,-0.00344l-0.03461,0.01813l-0.25673,0.03836l-0.11443,-0.02365l-0.11497,0.01717l-0.22096,-0.04568l-0.04483,0.01176l-0.03673,-0.00349l-0.03462,0.01818l-0.25672,0.03835l-0.11444,-0.02364l-0.11496,0.01717l-0.52764,-0.10909l-0.22586,0.0181l-0.09185,-0.02544l-0.09303,0.01388l-7.62197,-1.5764l-0.13979,-0.08237l-0.14733,-0.04735l-0.35408,-0.25615l-0.02039,-0.02531l-0.05676,-0.01171l-0.0095,0.00656l-0.02523,-0.01377l-0.02591,-0.00537l-0.19979,-0.11777l-0.20185,-0.11015l-0.02151,-0.02156l-0.02498,-0.01471l-0.00388,-0.01416l-0.06472,-0.06485l-0.31913,-0.52611l0.0399,-0.66504l-0.00063,-0.00223l0.00082,-0.00156l0.02489,-0.41458c-0.21845,-0.14431 -0.38829,-0.40411 -0.478,-0.71875z" fill="url(#color-3)" stroke="none" stroke-width="0.5" stroke-linecap="butt"/><path d="M191.08696,110.31125l-0.01122,-0.00995l-0.00546,-0.03608c-0.06146,-0.1787 -0.09424,-0.38136 -0.08981,-0.59484l0.00869,-0.41749l0.02896,-0.14847l0.00319,-0.1542l0.0357,-0.18301l0.01922,-0.92578l-0.03871,-0.4985l0.00827,-0.08937l-0.01332,-0.0881l0.00025,-0.01114l-0.00817,-0.03652l-0.05916,-0.14384l-0.03484,-0.16774l-0.24544,-0.76673l-0.0117,-0.08861l-0.0319,-0.07749l-0.07169,-0.34529l-0.04885,-0.11319l-0.03565,-0.15924l-0.05916,-0.14385l-0.15759,-0.75905l-0.0065,-0.2012l-0.0297,-0.19676l0.00198,-0.09633l-0.02806,-0.18579l0.00319,-0.1542l-0.02275,-0.15072l0.00099,-0.04722l-0.0121,-0.0583l-0.0065,-0.20119l-0.02971,-0.19681l0.03293,-1.58651l0.02896,-0.14846l0.0032,-0.1542l0.0357,-0.18301l0.00721,-0.34678l0.02896,-0.14847l0.0032,-0.15419l0.05907,-0.30278l0.06176,-0.38597l0.02492,-0.07054l0.00583,-0.07876l0.10727,-0.42276l0.05425,-0.33894l0.0249,-0.07054l0.00583,-0.07876l0.10244,-0.40368l0.05495,-0.40199l0.05515,-0.16936l0.03186,-0.18142l0.14544,-0.39088l0.10317,-0.46852l0.04263,-0.09985l0.01997,-0.11368l0.52164,-1.40196l0.23054,-0.90836l0.05362,-0.11416l0.03052,-0.13077l0.14438,-0.32546l0.09644,-0.32043l0.04276,-0.08041l0.02244,-0.09615l0.18186,-0.40999l0.03312,-0.04512l0.0189,-0.05978l0.10865,-0.19696l0.20254,-0.67301l0.02242,-0.04212l0.00905,-0.05152l0.64404,-1.73099l0.14638,-0.57678l0.12171,-0.82634l0.03253,-0.09616l0.00989,-0.10616l0.20842,-0.75739l0.06326,-0.75456l0.01684,-0.06357l-0.00082,-0.06806l0.12965,-0.81032l0.12616,-0.9228l0.07263,-0.98004l0.05998,-2.88851l-0.03357,-0.60081l-0.08608,-0.57025l-0.09981,-0.56928l-0.00005,-0.02141l-0.00658,-0.01919l-0.03826,-0.25342l-0.08661,-0.34264l-0.00275,-0.03745l-0.01333,-0.03236l-0.07172,-0.34529l-0.04883,-0.11314l-0.01902,-0.08497l-0.01375,-0.00462l-0.05692,-0.13834l-0.08231,-0.10845l-0.00167,-0.09579l-0.08741,-0.21242l-0.00694,-0.03346l-0.00073,-0.00184l-0.06208,-0.08669l-0.11027,-0.25548l-0.03564,-0.15923l-0.0361,-0.0878l-0.10056,-0.15443l-0.06803,-0.17574l-0.08743,-0.1568l-0.05427,-0.16949l-0.00644,-0.04884l-0.11432,-0.15057l-0.00109,-0.06248l-0.04441,-0.07961l-0.05427,-0.16949l-0.08374,-0.63436l0.13798,-0.28069l0.02034,-0.34313l0.3476,-0.40537l0.06591,-0.04415l0.00509,-0.012l0.0243,-0.00767l0.02192,-0.01469l0.19554,-0.054l0.19449,-0.06142l0.02414,0.00101l0.02444,-0.00674l0.00794,0.0082l1.45435,0.06316l0.46003,-0.05381l0.39241,-0.06377l0.06182,0.01196l0.06091,-0.01925l0.29753,0.01292l0.12846,-0.04059l0.1066,0.00462l0.1042,-0.03295l0.11547,0.00502l0.10265,0.04187l0.1066,0.00462l0.22922,0.09354l0.0828,0.06858l0.09247,0.03395l0.12687,0.09871l0.06044,-0.02104l0.0937,0.08695l0.10714,0.04369l0.03113,0.08458l0.14333,0.13296l0.06552,0.0348l0.09573,0.0941l0.10774,0.06103l0.16974,0.17452l0.05609,0.09481l0.07263,0.0674l0.05319,0.08171l0.09982,0.10262l0.05611,0.09482l0.07261,0.06739l0.112,0.17201l0.04216,0.1089l0.06209,0.0867l0.01853,0.04292l0.02849,0.02932l0.0561,0.09482l0.07263,0.06739l0.112,0.172l0.04216,0.10891l0.06209,0.0867l0.2078,0.48153l0.48496,0.99611l0.0412,0.15427l0.06412,0.13689l0.06747,0.26685l0.1003,0.206l0.0412,0.15428l0.06413,0.13687l0.09442,0.37357l0.07942,0.24807l0.14826,0.38303l0.02504,0.1332l0.04877,0.11862l0.03483,0.16773l0.08266,0.2582l0.0179,0.13552l0.04236,0.12364l0.24691,1.63552l0.04295,0.2069l0.00161,0.04908l0.01507,0.04406l0.0945,0.62601l0.04297,0.2069l0.0065,0.20122l0.02971,0.19679l-0.00374,0.17979l0.02806,0.18583l-0.00065,0.03053l0.00847,0.02799l0.04908,0.42001l-0.00113,0.02071l0.00531,0.01926l0.03473,0.36927l0.07465,0.29531l0.00844,0.11529l0.03212,0.10623l0.04907,0.41997l-0.00109,0.02071l0.00532,0.01925l0.03817,0.40608l0.08551,0.41184l0.00322,0.09927l0.0255,0.09232l0.03818,0.40604l0.08551,0.41183l0.00257,0.07914l0.02194,0.07252l0.04009,0.34306l0.08956,0.43131l0.00161,0.04908l0.01506,0.04402l0.03827,0.25344l0.04727,0.18699l0.36159,0.74265l0.12899,0.14891l0.0667,0.12628l0.08536,0.10009l0.19343,0.37204l0.82089,1.26076l0.1776,0.20502l0.07479,0.14161l0.09323,0.11642l0.13082,0.26872l0.2378,0.36519l0.04216,0.1089l0.06209,0.08669l0.03168,0.07346l0.10974,0.12665l0.08907,0.16861l0.10554,0.14734l0.22055,0.51104l0.01686,0.07531l0.03437,0.06164l0.0757,0.23644l0.1213,0.24912l0.02838,0.10627l0.04944,0.08865l0.10851,0.339l0.0069,0.05223l0.02061,0.044l0.09443,0.3736l0.20193,0.63073l0.00689,0.05219l0.02062,0.044l0.09443,0.37358l0.09339,0.29171l0.00689,0.05219l0.02062,0.044l0.1068,0.42251l0.00628,0.08571l0.02646,0.07725l0.02329,0.15433l0.10155,0.26232l0.02502,0.1332l0.04878,0.11862l0.10505,0.50602l0.0032,0.09926l0.0255,0.09228l0.03328,0.35393l0.12286,0.45155l0.01579,0.17467l0.04053,0.1661l0.03757,0.57424l0.08693,0.49585l0.00017,0.08671l0.02095,0.08127l0.09007,1.15955l0.04597,0.48907l-0.00794,0.10409l0.01545,0.10233l-0.03814,1.837l-0.02342,0.12013l0.0015,0.12478l-0.06641,0.41499l-0.02492,0.0705l-0.00583,0.07874l-0.07743,0.30509l-0.00445,0.21428l-0.00947,0.04852l0.01233,0.03852l-0.07114,0.26284l-0.05298,0.27164l-0.02592,0.01993l-0.0127,0.04696l-0.03371,0.06857l-0.02392,0.1226l-0.07366,0.1861l-0.05403,0.19967l-0.05345,0.10872l-0.02297,0.09047l-0.06503,0.13845l-0.04218,0.15584l-0.08942,0.18192l-0.03565,0.0958l-0.09376,0.14892l-0.07521,0.16953l-0.53222,0.72485l-0.16037,0.3263l-0.09683,0.26028l-0.04764,0.07563l-0.0037,0.06229l-0.06348,0.07398l-0.00588,0.03355l-0.01145,0.03076l-0.00678,0.03467l-0.00858,0.00657l-0.21802,0.58594l-0.04763,0.07564l-0.0037,0.06227l-0.13369,0.1559l-0.04366,0.06934l-0.00106,0.01774l-0.03805,0.04434l-0.03289,0.05224l-0.01229,0.00046l-0.05047,0.05886l-0.04366,0.06934l-0.00107,0.01774l-0.03804,0.04434l-0.03289,0.05223l-0.01229,0.00047l-0.05049,0.05885l-0.11562,0.18364l-0.04321,0.00156l-0.05507,0.06421l-0.11721,0.07851l-0.06126,0.0169l-0.05358,0.0461l-0.34989,0.15201l-0.11371,0.00769l-0.0041,0.00274l-0.19554,0.05399l-0.19448,0.06143l-0.02414,-0.00104l-0.02445,0.00675l-0.00793,-0.00816l-0.03095,-0.00134l-0.15263,0.03728l-0.12328,0.05353l-0.13914,0.00941l-0.13607,0.04295l-0.2636,-0.01144l-0.04027,0.0175l-0.13914,0.00941l-0.13606,0.04295l-0.03268,-0.00144l-0.04027,0.01749l-0.03394,0.00232l-0.03044,0.02182l-0.23267,0.07346l-0.1066,-0.00462l-0.10421,0.03295l-0.20588,-0.00896l-0.04027,0.01749l-0.03394,0.00232l-0.03044,0.02182l-0.23266,0.07348l-0.1066,-0.00462l-0.10421,0.0329l-0.4916,-0.02134l-0.20582,0.05029l-0.08604,-0.00971l-0.08432,0.02661l-7.10134,-0.30835l-0.13404,-0.05467l-0.13848,-0.02144l-0.34293,-0.18206l-0.0205,-0.02014l-0.05291,-0.00231l-0.00825,0.0075l-0.02412,-0.00887l-0.02414,-0.00104l-0.19159,-0.07822l-0.19295,-0.07083l-0.02125,-0.01654l-0.02396,-0.00977l-0.00457,-0.01241l-0.06395,-0.04981l-0.33016,-0.4348l-0.01086,-0.61576l-0.00073,-0.00195l0.00066,-0.00157l-0.00678,-0.38387c-0.21059,-0.0997 -0.38486,-0.31262 -0.48955,-0.5877z" fill="url(#color-4)" stroke="none" stroke-width="0.5" stroke-linecap="butt"/><path d="M284.86814,139.73086l-40.21096,79.08879l-4.54253,-78.07898z" data-paper-data="{&quot;index&quot;:null}" fill-opacity="0.00392" fill="#ffffff" stroke="url(#color-5)" stroke-width="2.5" stroke-linecap="butt"/><path d="M175.80342,238.27575l72.11379,0.15069c0,0 8.88757,0.96743 8.65584,6.03859c-0.2293,5.01845 -8.74821,5.65819 -8.74821,5.65819c0,0 -23.67839,1.44753 -35.90261,1.42199c-11.79863,-0.02465 -36.21117,-1.57268 -36.21117,-1.57268c0,0 -7.53466,-0.7806 -7.72468,-5.86463c-0.19379,-5.18427 7.81705,-5.83216 7.81705,-5.83216z" fill="url(#color-6)" stroke="url(#color-7)" stroke-width="0.5" stroke-linecap="butt"/><path d="M259.61354,240.42099c0,7.10728 -21.19185,6.83333 -47.33333,6.83333c-26.14148,0 -47.33333,0.27395 -47.33333,-6.83333c0,-7.44061 21.19185,-6.83333 47.33333,-6.83333c26.14148,0 47.33333,0.39272 47.33333,6.83333z" fill="#302d29" stroke="url(#color-8)" stroke-width="0" stroke-linecap="butt"/><path d="M262.58295,154.30377l9.95328,9.08292" fill="none" stroke="#666666" stroke-width="5" stroke-linecap="round"/><path d="M265.54318,175.6777l-15.89826,-14.36757" fill="none" stroke="#666666" stroke-width="5" stroke-linecap="round"/><path d="M236.40845,168.12439l22.72038,20.19674" fill="none" stroke="#666666" stroke-width="5" stroke-linecap="round"/><path d="M251.85482,200.6708l-28.41816,-25.02645" fill="none" stroke="#666666" stroke-width="5" stroke-linecap="round"/><path d="M212.77407,180.49874l72.42883,-41.4949l-38.99216,77.52237" fill="none" stroke="url(#color-9)" stroke-width="5" stroke-linecap="round"/><path d="M293.32573,145.71947c-2.82489,5.77427 -9.87389,8.12704 -15.7444,5.25508c-5.8705,-2.87197 -8.33947,-9.88113 -5.51458,-15.6554c2.82489,-5.77427 9.87389,-8.12704 15.7444,-5.25508c5.8705,2.87197 8.33947,9.88113 5.51458,15.6554z" fill="url(#color-10)" stroke="url(#color-11)" stroke-width="2.5" stroke-linecap="butt"/><path d="M180.84943,222.60346v-75.27368c0,0 20.78146,0 31.31541,0c10.72844,0 32.48244,0 32.48244,0v75.27368c0,0 -9.62345,3.59201 -31.89343,4.0077c-23.38487,0.4365 -31.90442,-4.0077 -31.90442,-4.0077z" fill="url(#color-12)" stroke="none" stroke-width="0" stroke-linecap="butt"/><path d="M180.46042,147.89313v-16.70732h63.79785v16.70732c0,0 -8.65642,3.97004 -30.9264,4.0623c-23.38487,0.09688 -32.87145,-4.0623 -32.87145,-4.0623z" fill="url(#color-13)" stroke="none" stroke-width="0" stroke-linecap="butt"/><path d="M244.84178,131.47757c0,3.06154 -14.36872,4.94341 -32.09343,4.94341c-17.72472,0 -32.09343,-1.88187 -32.09343,-4.94341c0,-3.06154 14.36872,-5.54341 32.09343,-5.54341c17.72472,0 32.09343,2.48187 32.09343,5.54341z" fill="url(#color-14)" stroke="none" stroke-width="0" stroke-linecap="butt"/><path d="M186.56196,131.38907c0,0 0.27112,-6.54174 1.08146,-10.38605c0.29678,-1.4079 3.60741,-2.65864 4.23461,-4.72813c0.29398,-0.96999 -0.66442,-1.54737 -0.67958,-2.5304c-0.03995,-2.59045 0.59052,-2.2484 0.59052,-2.2484l13.64254,0.0315c0,0 0.31754,-0.81958 0.46052,2.21683c0.03381,0.71821 -1.08238,1.87498 -0.87495,2.60522c0.49979,1.75943 3.90032,3.36172 4.17494,4.59322c0.84008,3.76741 1.54074,10.44624 1.54074,10.44624c0,0 -5.88996,1.71443 -12.02652,1.59251c-5.96994,-0.11861 -12.14423,-1.59251 -12.14423,-1.59251z" fill="url(#color-15)" stroke="none" stroke-width="0" stroke-linecap="butt"/><path d="M225.85704,140.19434c6.00707,0.00627 12.82367,-0.03542 12.82367,-0.03542c0,0 8.70302,-0.31469 8.77925,8.84478c-0.32504,8.96069 -8.8305,9.46415 -8.8305,9.46415c0,0 -7.78529,0.17075 -12.81027,0.1655c-7.24042,-0.00756 -13.00714,-1.3829 -13.09101,-9.23319c-0.08752,-8.19256 5.88844,-9.21338 13.12884,-9.20582z" fill="url(#color-16)" stroke="none" stroke-width="0" stroke-linecap="butt"/><path d="M237.92665,149.5338c0,-5.38083 2.13255,-9.74286 4.76318,-9.74286c2.63063,0 4.76318,4.36202 4.76318,9.74286c0,5.38083 -2.13255,9.74286 -4.76318,9.74286c-2.63063,0 -4.76318,-4.36202 -4.76318,-9.74286z" fill="url(#color-17)" stroke="url(#color-18)" stroke-width="1.5" stroke-linecap="butt"/><path d="M245.94711,210.93567c0,12.43105 0.17643,26.53718 0.17643,26.53718c0,0 0.11245,4.45869 -32.99656,4.65536c-32.39201,-0.63457 -33.18606,-4.68364 -33.18606,-4.68364c0,0 -0.6466,-16.11016 -0.6466,-26.50889c0,-14.98335 4.94977,-26.92288 33.3264,-27.12975c29.61384,-0.2159 33.3264,12.1464 33.3264,27.12975z" fill="url(#color-19)" stroke="none" stroke-width="0" stroke-linecap="butt"/><path d="M236.82403,221.34028c0,8.69916 0.12509,19.25116 0.12509,19.25116c0,0 -0.06314,1.69914 -23.53545,1.83676c-22.96399,-0.44407 -23.58558,-1.90333 -23.58558,-1.90333c0,0 -0.25689,-11.90764 -0.25689,-19.18459c0,-10.48524 3.50909,-18.84043 23.62642,-18.9852c20.99444,-0.15109 23.62642,8.49996 23.62642,18.9852z" fill="url(#color-20)" stroke="none" stroke-width="0" stroke-linecap="butt"/><g><path d="M254.28461,127.87607l57.03176,25.60685" fill="none" stroke="url(#color-21)" stroke-width="3.5" stroke-linecap="round"/><path d="M270.32043,168.87631l24.96007,-56.39363" fill="none" stroke="url(#color-22)" stroke-width="3.5" stroke-linecap="round"/><path d="M271.22344,111.86876l23.15408,57.62141" fill="none" stroke="url(#color-23)" stroke-width="3.5" stroke-linecap="round"/><path d="M311.8685,129.76594l-58.13608,21.82705" fill="none" stroke="url(#color-24)" stroke-width="3.5" stroke-linecap="round"/><path d="M295.81416,111.16885c16.2843,7.18109 23.6589,26.2149 16.47164,42.51317c-7.18726,16.29828 -26.21472,23.68922 -42.49902,16.50809c-16.2843,-7.18109 -23.65889,-26.21491 -16.47165,-42.51317c7.18726,-16.29828 26.21472,-23.68922 42.49903,-16.5081z" fill="none" stroke="url(#color-25)" stroke-width="3.5" stroke-linecap="butt"/><path d="M285.61931,134.28733c3.49448,1.54102 5.06529,5.65211 3.50849,9.18242c-1.55681,3.53031 -5.65167,5.14292 -9.14618,3.60193c-3.49448,-1.54102 -5.06529,-5.65211 -3.50849,-9.18241c1.55681,-3.53031 5.65167,-5.14294 9.14618,-3.60195z" fill="url(#color-26)" stroke="url(#color-27)" stroke-width="1" stroke-linecap="butt"/></g><path d="M244.48986,149.24079l42.18213,-24.36567" fill="none" stroke="url(#color-28)" stroke-width="6" stroke-linecap="round"/><path d="M295.73148,119.21343c3.33429,5.40347 -0.09326,5.06718 -2.98295,6.86966c-2.88969,1.80248 -6.02522,1.51382 -7.3401,-0.43052c-2.53035,-3.7417 0.72891,-4.67795 3.61858,-6.48044c2.88969,-1.80248 3.37222,-5.35885 6.70446,0.04129z" fill="url(#color-29)" stroke="url(#color-30)" stroke-width="0" stroke-linecap="butt"/></g></g></svg>