<svg version="1.1" xmlns="http://www.w3.org/2000/svg" xmlns:xlink="http://www.w3.org/1999/xlink" width="108.07198" height="118.91739" viewBox="0,0,108.07198,118.91739"><defs><linearGradient x1="270.63996" y1="196.83813" x2="282.40089" y2="199.0156" gradientUnits="userSpaceOnUse" id="color-1"><stop offset="0" stop-color="#242424"/><stop offset="1" stop-color="#373737"/></linearGradient><radialGradient cx="269.94116" cy="193.38223" r="3.52256" gradientUnits="userSpaceOnUse" id="color-2"><stop offset="0" stop-color="#bfbfbf"/><stop offset="1" stop-color="#9a9a9a"/></radialGradient><linearGradient x1="282.73207" y1="200.67401" x2="324.06207" y2="219.55028" gradientUnits="userSpaceOnUse" id="color-3"><stop offset="0" stop-color="#b2b2b2"/><stop offset="1" stop-color="#c4c4c4"/></linearGradient><linearGradient x1="282.85526" y1="201.12536" x2="309.90643" y2="213.48025" gradientUnits="userSpaceOnUse" id="color-4"><stop offset="0" stop-color="#cccccc"/><stop offset="1" stop-color="#d8d8d8"/></linearGradient><linearGradient x1="280.6052" y1="199.26135" x2="282.8067" y2="200.31421" gradientUnits="userSpaceOnUse" id="color-5"><stop offset="0" stop-color="#b5b5b5"/><stop offset="1" stop-color="#c5c5c5"/></linearGradient><linearGradient x1="241.64187" y1="149.42847" x2="241.4115" y2="156.27568" gradientUnits="userSpaceOnUse" id="color-6"><stop offset="0" stop-color="#736b4f"/><stop offset="1" stop-color="#bec286"/></linearGradient><linearGradient x1="238.1686" y1="199.51009" x2="250.12806" y2="199.6916" gradientUnits="userSpaceOnUse" id="color-7"><stop offset="0" stop-color="#242424"/><stop offset="1" stop-color="#373737"/></linearGradient><radialGradient cx="236.90212" cy="196.21956" r="3.52256" gradientUnits="userSpaceOnUse" id="color-8"><stop offset="0" stop-color="#bfbfbf"/><stop offset="1" stop-color="#9a9a9a"/></radialGradient><linearGradient x1="250.7317" y1="201.27134" x2="294.63493" y2="212.97556" gradientUnits="userSpaceOnUse" id="color-9"><stop offset="0" stop-color="#b2b2b2"/><stop offset="1" stop-color="#c4c4c4"/></linearGradient><linearGradient x1="250.9286" y1="201.69576" x2="279.66398" y2="209.35641" gradientUnits="userSpaceOnUse" id="color-10"><stop offset="0" stop-color="#cccccc"/><stop offset="1" stop-color="#d8d8d8"/></linearGradient><linearGradient x1="248.39868" y1="200.23392" x2="250.74514" y2="200.90412" gradientUnits="userSpaceOnUse" id="color-11"><stop offset="0" stop-color="#b5b5b5"/><stop offset="1" stop-color="#c5c5c5"/></linearGradient><radialGradient cx="238.1891" cy="124.36078" r="13.11833" gradientUnits="userSpaceOnUse" id="color-12"><stop offset="0" stop-color="#ccbe7a"/><stop offset="1" stop-color="#948f62"/></radialGradient></defs><g transform="translate(-222.96974,-115.40904)"><g data-paper-data="{&quot;isPaintingLayer&quot;:true}" fill-rule="nonzero" stroke-linejoin="miter" stroke-miterlimit="10" stroke-dasharray="" stroke-dashoffset="0" style="mix-blend-mode: normal"><g stroke="#000000" stroke-width="0" stroke-linecap="butt"><path d="M277.72249,197.53024c-0.48021,0.18377 -2.09124,-3.35605 -3.51668,-3.27718c-0.48938,0.02707 1.37331,4.96151 0.43511,5.05772c-0.55693,0.05712 -1.53403,-2.69473 -2.39919,-3.85485c-0.4215,-0.56518 -2.64666,-4.87653 -2.64666,-4.87653c0,0 -0.55404,-2.99588 -2.42923,-5.96851c-0.45093,-0.71483 -1.7404,-3.15206 -2.21163,-3.88158c-1.11529,-1.72655 -2.28968,-3.39676 -2.94459,-4.47296c-1.40861,-2.31477 -7.40911,-13.80428 -7.40911,-13.80428l4.39859,-3.55438c0,0 2.71641,5.99477 6.11006,12.10356c2.55285,4.59531 5.75792,9.23606 6.98049,11.54407c1.44694,2.73156 2.86182,6.46766 2.86182,6.46766c0,0 1.15634,2.53976 1.99747,4.7316c0.75682,1.97221 1.23592,3.60876 0.77348,3.78573z" data-paper-data="{&quot;index&quot;:null}" fill="#8b8560"/><path d="M251.12548,156.10928c4.83935,-3.48084 6.95821,-0.57085 7.9546,1.13118c0.99639,1.70204 2.38878,0.45282 -2.06011,3.6229c-3.76032,2.67942 -3.37362,2.04351 -4.37001,0.34144c-0.99639,-1.70204 -4.04473,-3.28275 -1.52447,-5.09553z" data-paper-data="{&quot;index&quot;:null}" fill="#42352d"/></g><g stroke="none" stroke-width="0" stroke-linecap="butt"><path d="M270.43999,197.91822l2.08884,-4.57821l10.07203,4.59544l-2.08886,4.57822z" fill="url(#color-1)"/><path d="M273.87216,195.64539c-0.35417,1.91293 -2.19202,3.17658 -4.10496,2.82241c-1.91294,-0.35418 -3.1766,-2.19203 -2.82241,-4.105c0.35415,-1.91293 2.19203,-3.1766 4.10496,-2.82241c1.91294,0.35418 3.1766,2.19203 2.82241,4.105z" fill="url(#color-2)"/><path d="M280.79984,204.90463l3.86443,-8.46125l40.24558,20.46873l6.13187,5.40016l-8.02253,-0.89966z" fill="url(#color-3)"/><path d="M281.59059,203.89441l2.60646,-5.88739l33.56431,17.19045l8.75004,5.31321l-9.48387,-2.98913z" fill="url(#color-4)"/><path d="M289.89618,190.56559c0,0 -5.05374,6.20977 -6.80416,9.74882c-1.92189,3.88572 -4.26086,12.6227 -4.26086,12.6227c0,0 0.24683,-10.00741 2.11084,-13.77609c1.82344,-3.68668 8.95419,-8.59545 8.95419,-8.59545z" fill="url(#color-5)"/></g><g><path d="M225.92438,227.14044l4.20132,-33.65782c0,0 6.78326,-2.09379 9.84981,-2.05352c3.6284,0.04764 0.55053,4.25166 0.55053,4.25166c0,0 -3.09293,0.04769 -3.41775,1.47935c-0.99336,4.37832 -3.18147,30.0854 -3.18147,30.0854z" fill="#a69b98" stroke="#000000" stroke-width="0" stroke-linecap="butt"/><path d="M241.20948,232.25041c0,0 -0.41114,1.93492 -1.23797,1.92406c-0.5927,-0.00778 -2.64406,-0.02105 -4.70308,-0.12865c-1.25183,-0.06541 -1.89387,-0.64271 -2.8253,-0.7978c-1.17261,-0.19524 -2.94117,0.18187 -3.78783,-0.02078c-1.56008,-0.3734 -2.36421,-0.80893 -2.36421,-0.80893c0,0 -0.25563,-1.02883 -0.26475,-1.58941c-0.01229,-0.75523 0.19763,-2.53463 0.19763,-2.53463c0,0 5.9353,-0.04164 8.24737,0.18905c1.36812,0.13652 4.23171,0.70242 4.23171,0.70242c0,0 1.45154,0.63472 1.65954,1.06472c0.25472,0.52664 0.84688,1.99995 0.84688,1.99995z" data-paper-data="{&quot;index&quot;:null}" fill="#141415" stroke="#000000" stroke-width="0" stroke-linecap="butt"/><path d="M240.94693,231.61226c0,0 -0.38566,-0.00506 -1.21248,-0.01592c-0.2482,-0.00326 0.6813,1.61073 -2.63539,1.29862c-3.13203,-0.29474 -2.76064,-1.22458 -3.8639,-1.31967c-2.30696,-0.19884 -2.59525,0.56101 -3.59282,0.39491c-0.34742,-0.05784 -0.51116,-0.12127 -1.77168,-0.9937c-0.86691,-0.60001 -0.6426,-1.75981 -1.23407,-2.39571c-0.86397,-0.92889 -0.78364,-1.89625 -0.78364,-1.89625l-0.03635,-3.04847c0,0 0.45734,2.21301 1.28538,3.04836c0.74087,0.7474 2.31695,0.01167 2.80058,0.01789c0.84688,0.01088 -0.64588,-3.27682 0.16356,-3.24794c0.43525,0.01552 3.7255,-0.18518 3.7255,-0.18518c0,0 0.07601,3.58119 0.30869,3.6044c1.36811,0.13652 4.59545,0.7072 4.59545,0.7072c0,0 1.45154,0.63472 1.65954,1.06472c0.25473,0.52664 0.59165,2.96675 0.59165,2.96675z" data-paper-data="{&quot;index&quot;:null}" fill="#252527" stroke="#000000" stroke-width="0" stroke-linecap="butt"/><path d="M234.98538,227.50372l-2.6818,1.05622" data-paper-data="{&quot;index&quot;:null}" fill="none" stroke="#ffffff" stroke-width="0.5" stroke-linecap="round"/><path d="M234.23878,228.94916l2.56532,-1.42155" data-paper-data="{&quot;index&quot;:null}" fill="none" stroke="#ffffff" stroke-width="0.5" stroke-linecap="round"/><path d="M236.41807,229.22029l1.4741,-1.43589" data-paper-data="{&quot;index&quot;:null}" fill="none" stroke="#ffffff" stroke-width="0.5" stroke-linecap="round"/><path d="M231.14203,224.66408l2.18566,-0.21384" data-paper-data="{&quot;index&quot;:null}" fill="none" stroke="#969696" stroke-width="0.5" stroke-linecap="round"/><path d="M231.61587,225.51918l1.94476,-0.33827" data-paper-data="{&quot;index&quot;:null}" fill="none" stroke="#969696" stroke-width="0.5" stroke-linecap="round"/></g><g><path d="M239.70444,191.34303c3.62872,0 10.54956,2.18267 10.54956,2.18267l3.03149,33.71008h-7.63934c0,0 -1.32697,-25.53818 -2.03751,-29.57011c-0.20138,-1.1427 -3.2979,-2.07857 -3.2979,-2.07857c0,0 -3.67312,-4.24407 -0.6063,-4.24407z" fill="#a69b98" stroke="#000000" stroke-width="0" stroke-linecap="butt"/><path d="M259.69262,234.32556c-0.59276,0 -2.64411,0.01365 -4.70436,-0.0669c-1.25258,-0.04897 -1.90215,-0.61779 -2.83553,-0.76063c-1.17507,-0.17982 -2.93854,0.22047 -3.78778,0.02896c-1.56485,-0.35288 -2.37463,-0.77782 -2.37463,-0.77782c0,0 -0.26911,-1.0254 -0.2856,-1.5858c-0.02221,-0.75501 0.16433,-2.53701 0.16433,-2.53701c0,0 5.93425,-0.11957 8.24914,0.08076c1.36979,0.11854 4.24057,0.6468 4.24057,0.6468c0,0 1.45976,0.6156 1.67337,1.04283c0.26162,0.52325 0.87307,1.98865 0.87307,1.98865c0,0 -0.3857,1.94015 -1.21259,1.94015z" data-paper-data="{&quot;index&quot;:null}" fill="#141415" stroke="#000000" stroke-width="0" stroke-linecap="butt"/><path d="M259.4217,231.7508c-0.24822,0 0.7024,1.60165 -2.61811,1.33311c-3.13563,-0.25358 -2.77648,-1.18823 -3.8809,-1.26883c-2.30937,-0.16854 -2.58765,0.59503 -3.58732,0.44205c-0.34815,-0.05328 -0.51271,-0.11454 -1.78459,-0.97035c-0.87472,-0.58857 -0.66566,-1.75122 -1.26542,-2.3793c-0.87609,-0.91745 -0.80847,-1.8858 -0.80847,-1.8858l-0.07637,-3.04773c0,0 0.48635,2.20681 1.32529,3.03122c0.75062,0.73761 2.3169,-0.01875 2.80058,-0.01889c0.84696,-0.00024 -0.68885,-3.26804 0.12091,-3.2498c0.43542,0.00981 3.72275,-0.23409 3.72275,-0.23409c0,0 0.12302,3.57989 0.35598,3.60005c1.36979,0.11854 4.60434,0.6468 4.60434,0.6468c0,0 1.45976,0.6156 1.67338,1.04283c0.26162,0.52325 0.63055,2.95873 0.63055,2.95873c0,0 -0.3857,0 -1.2126,0z" data-paper-data="{&quot;index&quot;:null}" fill="#252527" stroke="#000000" stroke-width="0" stroke-linecap="butt"/><path d="M251.95163,228.81215l2.6677,-1.09133" fill="none" stroke="#ffffff" stroke-width="0.5" stroke-linecap="round"/><path d="M256.43823,227.72082l-2.54645,1.45511" fill="none" stroke="#ffffff" stroke-width="0.5" stroke-linecap="round"/><path d="M256.07445,229.41848l1.45512,-1.45511" fill="none" stroke="#ffffff" stroke-width="0.5" stroke-linecap="round"/><path d="M250.73904,224.93186l2.18266,-0.24252" fill="none" stroke="#969696" stroke-width="0.5" stroke-linecap="round"/><path d="M253.16423,225.41693l-1.94015,0.36378" fill="none" stroke="#969696" stroke-width="0.5" stroke-linecap="round"/></g><path d="M237.55873,156.94523l0.2572,-7.64545l7.65183,0.25741l-0.37892,7.86969z" fill="url(#color-6)" stroke="#000000" stroke-width="0" stroke-linecap="butt"/><g stroke="#000000" stroke-width="0" stroke-linecap="butt"><path d="M274.01949,201.09989c-0.45603,0.13769 -1.89409,-3.04597 -2.56954,-3.61969c-0.36158,-0.30713 0.79128,4.55512 -0.08575,4.58233c-0.52062,0.01616 -1.28259,-2.57908 -2.02503,-3.70281c-0.36171,-0.54746 -2.20077,-4.65879 -2.20077,-4.65879c0,0 -0.35584,-2.79208 -1.94071,-5.64908c-0.38111,-0.68703 -1.4501,-3.01326 -1.84932,-3.71512c-0.94483,-1.66108 -1.94761,-3.27422 -2.49909,-4.30702c-1.1862,-2.22137 -6.1528,-13.18249 -6.1528,-13.18249l4.27654,-2.98226c0,0 2.20623,5.69204 5.03584,11.53311c2.12855,4.39399 4.86079,8.87235 5.87445,11.07533c1.19969,2.60726 2.3163,6.1365 2.3163,6.1365c0,0 0.93986,2.41186 1.60517,4.48304c0.59865,1.86366 0.65391,3.87433 0.21478,4.00691z" data-paper-data="{&quot;index&quot;:null}" fill="#979068"/><path d="M251.80365,160.78553c4.68222,-2.88583 6.49693,-0.07052 7.33257,1.56028c0.83562,1.63079 2.19597,0.57261 -2.1069,3.19807c-3.63691,2.21913 -3.24377,1.65939 -4.0794,0.02859c-0.83562,-1.63079 -3.5847,-3.28402 -1.14627,-4.78694z" data-paper-data="{&quot;index&quot;:null}" fill="#4a3c33"/></g><path d="M230.05418,193.23975c0,0 1.2206,-4.93007 0.88216,-10.32863c-0.10538,-1.6809 -0.02163,-5.69289 -0.46269,-7.56176c-0.52148,-2.20965 -2.43922,-2.86145 -2.47876,-4.21484c-0.07806,-2.67335 -0.84098,-6.82583 -0.03389,-11.37881c0.60841,-3.43215 3.66833,-6.17862 3.66833,-6.17862c0,0 3.99493,-0.15485 5.75923,0.27091c2.24585,0.54198 4.55461,2.6476 4.55461,2.6476c0,0 3.1518,-1.91788 5.07812,-2.26957c2.03253,-0.37109 5.4808,0.20116 5.4808,0.20116c0,0 2.50122,3.60804 2.58263,7.93227c0.07681,4.08129 -0.91697,8.44178 -1.04973,10.10814c-0.13455,1.68898 -1.5659,2.07983 -2.2748,4.20071c-0.56553,1.692 -0.72125,5.1691 -0.9188,7.16265c-0.45883,4.63016 -0.19768,10.27288 -0.19768,10.27288c0,0 -2.72955,-0.86158 -5.54056,-1.0244c-1.27657,-0.07394 -1.82407,0.94532 -3.036,1.06385c-0.96868,0.09472 -2.61413,-0.70121 -3.5372,-0.76903c-0.69782,-0.05127 -2.02478,-0.59901 -2.5186,-0.61974c-0.9971,-0.04184 -1.64389,0.81047 -2.80634,0.93081c-1.35031,0.13979 -3.1509,-0.44557 -3.1509,-0.44557z" fill="#4f4037" stroke="#292e32" stroke-width="0" stroke-linecap="butt"/><g stroke="#000000" stroke-width="0" stroke-linecap="butt"><path d="M239.1952,197.95722c-1.03365,-2.10912 -2.10171,-4.69089 -2.10171,-4.69089c0,0 -1.77536,-3.58081 -2.77902,-6.51171c-0.848,-2.47647 -2.02018,-8.02235 -3.62389,-13.04305c-2.13192,-6.67424 -4.66221,-12.75828 -4.66221,-12.75828l5.78893,-0.95089c0,0 4.28263,12.26307 5.00295,14.88513c0.33489,1.21909 0.74184,3.23092 1.23296,5.23571c0.20751,0.84706 1.10413,3.46099 1.31519,4.2828c0.87771,3.41752 2.71567,5.84855 2.71567,5.84855c0,0 1.62595,4.58152 1.74646,5.28059c0.24738,1.43489 1.60151,4.02303 1.16141,4.40716c-0.74131,0.64707 -3.7688,-4.88111 -3.83151,-4.36808c-0.11721,0.95837 0.78459,5.2696 0.30489,5.51051c-0.46195,0.23201 -1.34001,-1.22983 -2.27008,-3.12761z" data-paper-data="{&quot;index&quot;:null}" fill="#a0986e"/><path d="M232.34638,157.94596c0.5577,1.89816 1.30775,2.03166 -3.37337,3.08563c-5.53836,1.24697 -3.61334,1.02923 -4.17107,-0.86892c-0.5577,-1.89816 -1.21484,-5.45849 4.83383,-6.79309c3.15004,-0.69503 2.15287,2.6782 2.71058,4.57636z" fill="#615046"/></g><g stroke="none" stroke-width="0" stroke-linecap="butt"><path d="M238.15194,200.60842l1.29441,-4.8629l10.69832,2.8477l-1.29445,4.8629z" fill="url(#color-7)"/><path d="M241.15605,197.79398c-0.02952,1.94522 -1.63035,3.49822 -3.57562,3.4687c-1.94524,-0.02952 -3.49824,-1.63036 -3.4687,-3.57561c0.02953,-1.94523 1.63036,-3.49824 3.57562,-3.4687c1.94524,0.02952 3.49824,1.63036 3.4687,3.57561z" fill="url(#color-8)"/><path d="M249.53362,205.76533l2.39613,-8.98806l43.10019,13.4555l6.94809,4.29954l-8.06007,0.45362z" fill="url(#color-9)"/><path d="M250.14445,204.63721l1.58599,-6.24017l35.965,11.33985l9.51489,3.77624l-9.85003,-1.36229z" fill="url(#color-10)"/><path d="M256.10587,190.10788c0,0 -3.94499,6.96696 -5.07936,10.74875c-1.24553,4.15225 -2.09159,13.15723 -2.09159,13.15723c0,0 -1.42897,-9.90792 -0.22094,-13.93511c1.18172,-3.93958 7.39192,-9.97091 7.39192,-9.97091z" fill="url(#color-11)"/></g><g stroke="#000000" stroke-width="0" stroke-linecap="butt"><path d="M237.65942,202.22401c-1.02836,-2.1117 -2.08989,-4.69614 -2.08989,-4.69614c0,0 -1.76637,-3.58525 -2.76264,-6.51867c-0.84178,-2.47857 -1.99997,-8.02743 -3.59109,-13.05211c-2.11514,-6.67957 -4.63011,-12.76996 -4.63011,-12.76996l5.79131,-0.93634c0,0 4.25179,12.27381 4.9655,14.89768c0.33184,1.21994 0.73372,3.23275 1.21976,5.23879c0.20538,0.84757 1.09543,3.46373 1.30442,4.2861c0.86912,3.41972 2.70098,5.85534 2.70098,5.85534c0,0 2.46136,9.57892 2.09105,9.93104c-1.07869,1.02559 -2.86559,-5.06453 -3.03541,-4.50134c-0.32081,1.064 0.77867,5.15919 0.29836,5.3989c-0.46255,0.23082 -1.33692,-1.23321 -2.26225,-3.1333z" data-paper-data="{&quot;index&quot;:null}" fill="#ada477"/><path d="M230.85962,162.0776c0.55293,1.89956 1.30265,2.03496 -3.38112,3.07715c-5.54146,1.23303 -3.61593,1.02014 -4.16888,-0.87942c-0.55293,-1.89956 -1.20109,-5.46155 4.8509,-6.78092c3.15179,-0.68709 2.14615,2.6836 2.69908,4.58316z" fill="#615046"/></g><g><path d="M254.17558,118.21452c0,0 -0.37232,3.23376 -0.74202,4.55046c-0.3028,1.07837 -1.31586,2.77843 -1.31586,2.77843" data-paper-data="{&quot;index&quot;:null}" fill="none" stroke="#3b2c16" stroke-width="1.25" stroke-linecap="round"/><path d="M255.43989,122.39766c0,0 -0.26559,2.27085 -0.69718,3.21377c-0.45648,0.99727 -1.97123,2.61595 -1.97123,2.61595" data-paper-data="{&quot;index&quot;:null}" fill="none" stroke="#3b2c16" stroke-width="1.25" stroke-linecap="round"/><path d="M251.98295,116.37575c0,0 0.00653,3.27311 -0.18816,4.68937c-0.15947,1.15993 -0.89561,3.19378 -0.89561,3.19378" data-paper-data="{&quot;index&quot;:null}" fill="none" stroke="#3b2c16" stroke-width="1.25" stroke-linecap="round"/><path d="M254.9482,134.71065c-0.24852,7.38736 -8.76309,17.02953 -11.97659,16.98333c-6.69199,-0.09626 -13.88866,-10.45774 -13.64012,-17.84511c0.24852,-7.38736 6.18448,-13.18309 13.25833,-12.94508c7.07386,0.23797 12.60687,6.41953 12.35836,13.80689z" fill="url(#color-12)" stroke="none" stroke-width="0" stroke-linecap="butt"/><path d="M244.01455,135.42663c-0.06936,2.06175 -0.97673,3.70451 -2.02667,3.66917c-1.04993,-0.03531 -1.84484,-1.73535 -1.77548,-3.79709c0.06936,-2.06175 0.97672,-3.7045 2.02666,-3.66916c1.04993,0.03531 1.84485,1.73534 1.77549,3.79708z" fill="none" stroke="#191412" stroke-width="1.5" stroke-linecap="butt"/><path d="M248.93291,130.02725c-0.06936,2.06175 -0.97673,3.70451 -2.02666,3.66917c-1.04993,-0.03531 -1.84485,-1.73535 -1.77549,-3.79709c0.06936,-2.06175 0.97673,-3.70451 2.02667,-3.66917c1.04993,0.03531 1.84484,1.73534 1.77548,3.79709z" fill="none" stroke="#191412" stroke-width="1.5" stroke-linecap="butt"/><path d="M253.44107,135.69725c-0.06936,2.06175 -0.97672,3.70451 -2.02666,3.66917c-1.04993,-0.03531 -1.84485,-1.73535 -1.77549,-3.79709c0.06936,-2.06175 0.97672,-3.7045 2.02667,-3.66916c1.04993,0.03531 1.84484,1.73534 1.77548,3.79708z" fill="none" stroke="#191412" stroke-width="1.5" stroke-linecap="butt"/><path d="M248.51785,140.6633c-0.06936,2.06175 -0.97673,3.70451 -2.02666,3.66917c-1.04993,-0.03531 -1.84485,-1.73535 -1.77549,-3.79709c0.06936,-2.06175 0.97672,-3.7045 2.02667,-3.66916c1.04993,0.03531 1.84484,1.73534 1.77548,3.79708z" fill="none" stroke="#191412" stroke-width="1.5" stroke-linecap="butt"/><path d="M234.97393,125.28827c0,0 -1.49727,-1.78358 -1.89494,-2.88527c-0.48557,-1.34515 -0.80779,-4.60202 -0.80779,-4.60202" fill="none" stroke="#47341a" stroke-width="1.5" stroke-linecap="round"/><path d="M233.6771,127.90737c0,0 -2.31946,-1.74624 -2.97391,-2.78048c-0.61878,-0.97786 -0.85173,-3.26531 -0.85173,-3.26531" fill="none" stroke="#47341a" stroke-width="1.5" stroke-linecap="round"/><path d="M237.06588,124.1139c0,0 -1.01821,-2.09222 -1.17591,-3.2627c-0.19253,-1.42915 0.10419,-4.69216 0.10419,-4.69216" fill="none" stroke="#47341a" stroke-width="1.5" stroke-linecap="round"/></g></g></g></svg>