<svg version="1.1" xmlns="http://www.w3.org/2000/svg" xmlns:xlink="http://www.w3.org/1999/xlink" width="195.88069" height="177.47528" viewBox="0,0,195.88069,177.47528"><defs><radialGradient cx="310.06248" cy="237.95935" r="38.33033" gradientUnits="userSpaceOnUse" id="color-1"><stop offset="0" stop-color="#696969"/><stop offset="1" stop-color="#0a0a0a"/></radialGradient><linearGradient x1="310.06248" y1="200.34215" x2="310.06248" y2="275.57656" gradientUnits="userSpaceOnUse" id="color-2"><stop offset="0" stop-color="#636363"/><stop offset="1" stop-color="#424242"/></linearGradient><linearGradient x1="278.54527" y1="238.00003" x2="341.95473" y2="238.00003" gradientUnits="userSpaceOnUse" id="color-3"><stop offset="0" stop-color="#303030"/><stop offset="1" stop-color="#171717"/></linearGradient><linearGradient x1="278.54527" y1="238.00003" x2="341.95473" y2="238.00003" gradientUnits="userSpaceOnUse" id="color-4"><stop offset="0" stop-color="#272727"/><stop offset="1" stop-color="#000000"/></linearGradient><radialGradient cx="310.24999" cy="238.00003" r="26.30533" gradientUnits="userSpaceOnUse" id="color-5"><stop offset="0" stop-color="#734c45" stop-opacity="0.40995"/><stop offset="1" stop-color="#734c45" stop-opacity="0"/></radialGradient><radialGradient cx="310.24999" cy="237.90647" r="21.35612" gradientUnits="userSpaceOnUse" id="color-6"><stop offset="0" stop-color="#eb8c73" stop-opacity="0.60996"/><stop offset="1" stop-color="#eb8c73" stop-opacity="0"/></radialGradient><radialGradient cx="310.24999" cy="237.90648" r="18.07971" gradientUnits="userSpaceOnUse" id="color-7"><stop offset="0" stop-color="#ff734f" stop-opacity="0"/><stop offset="1" stop-color="#ff734f" stop-opacity="0.08997"/></radialGradient><radialGradient cx="310.24999" cy="237.90648" r="14.86702" gradientUnits="userSpaceOnUse" id="color-8"><stop offset="0" stop-color="#ffa282" stop-opacity="0.11996"/><stop offset="1" stop-color="#ffab8f"/></radialGradient><linearGradient x1="279.4375" y1="237.95834" x2="283.6875" y2="237.95834" gradientUnits="userSpaceOnUse" id="color-9"><stop offset="0" stop-color="#9d9d9d"/><stop offset="1" stop-color="#4c4c4c"/></linearGradient><linearGradient x1="279.4375" y1="237.95834" x2="283.6875" y2="237.95834" gradientUnits="userSpaceOnUse" id="color-10"><stop offset="0" stop-color="#272727"/><stop offset="1" stop-color="#000000"/></linearGradient><linearGradient x1="336.9375" y1="238.45834" x2="341.1875" y2="238.45834" gradientUnits="userSpaceOnUse" id="color-11"><stop offset="0" stop-color="#9d9d9d"/><stop offset="1" stop-color="#4c4c4c"/></linearGradient><linearGradient x1="336.9375" y1="238.45834" x2="341.1875" y2="238.45834" gradientUnits="userSpaceOnUse" id="color-12"><stop offset="0" stop-color="#272727"/><stop offset="1" stop-color="#000000"/></linearGradient><linearGradient x1="279.32143" y1="245.8199" x2="341.17857" y2="245.8199" gradientUnits="userSpaceOnUse" id="color-13"><stop offset="0" stop-color="#272727"/><stop offset="1" stop-color="#000000"/></linearGradient><linearGradient x1="279.32143" y1="245.89442" x2="341.17857" y2="245.89442" gradientUnits="userSpaceOnUse" id="color-14"><stop offset="0" stop-color="#272727"/><stop offset="1" stop-color="#000000"/></linearGradient><linearGradient x1="279.46429" y1="229.39133" x2="341.32143" y2="229.39133" gradientUnits="userSpaceOnUse" id="color-15"><stop offset="0" stop-color="#272727"/><stop offset="1" stop-color="#000000"/></linearGradient><linearGradient x1="279.46429" y1="229.46585" x2="341.32143" y2="229.46585" gradientUnits="userSpaceOnUse" id="color-16"><stop offset="0" stop-color="#272727"/><stop offset="1" stop-color="#000000"/></linearGradient><linearGradient x1="278.70974" y1="256.33538" x2="341.20974" y2="256.33538" gradientUnits="userSpaceOnUse" id="color-17"><stop offset="0" stop-color="#c7a895"/><stop offset="1" stop-color="#322c27"/></linearGradient><linearGradient x1="278.70974" y1="256.33538" x2="341.20974" y2="256.33538" gradientUnits="userSpaceOnUse" id="color-18"><stop offset="0" stop-color="#272727"/><stop offset="1" stop-color="#000000"/></linearGradient><linearGradient x1="278.99546" y1="219.76395" x2="341.49546" y2="219.76395" gradientUnits="userSpaceOnUse" id="color-19"><stop offset="0" stop-color="#c7a895"/><stop offset="1" stop-color="#322c27"/></linearGradient><linearGradient x1="278.99546" y1="219.76395" x2="341.49546" y2="219.76395" gradientUnits="userSpaceOnUse" id="color-20"><stop offset="0" stop-color="#272727"/><stop offset="1" stop-color="#000000"/></linearGradient></defs><g transform="translate(-269.71931,-160.0288)"><g data-paper-data="{&quot;isPaintingLayer&quot;:true}" fill-rule="nonzero" stroke-linejoin="miter" stroke-miterlimit="10" stroke-dasharray="" stroke-dashoffset="0" style="mix-blend-mode: normal"><text transform="translate(270.03136,187.4892) scale(0.6241,0.6241)" font-size="40" xml:space="preserve" fill="#ffffff" fill-rule="nonzero" stroke="none" stroke-width="1" stroke-linecap="butt" stroke-linejoin="miter" stroke-miterlimit="10" stroke-dasharray="" stroke-dashoffset="0" font-family="Malgun Gothic" font-weight="normal" text-anchor="start" style="mix-blend-mode: normal"><tspan x="0" dy="0">Interstellar Drive</tspan></text><text transform="translate(354.45435,215.62294) scale(0.45565,0.45565)" font-size="40" xml:space="preserve" fill="#d8d8d8" fill-rule="nonzero" stroke="none" stroke-width="1" stroke-linecap="butt" stroke-linejoin="miter" stroke-miterlimit="10" stroke-dasharray="" stroke-dashoffset="0" font-family="Malgun Gothic" font-weight="normal" text-anchor="start" style="mix-blend-mode: normal"><tspan x="0" dy="0">Obtained by:</tspan></text><text transform="translate(354.45435,256.62748) scale(0.45566,0.45566)" font-size="40" xml:space="preserve" fill="#d8d8d8" fill-rule="nonzero" stroke="none" stroke-width="1" stroke-linecap="butt" stroke-linejoin="miter" stroke-miterlimit="10" stroke-dasharray="" stroke-dashoffset="0" font-family="Malgun Gothic" font-weight="normal" text-anchor="start" style="mix-blend-mode: normal"><tspan x="0" dy="0">Materials:</tspan></text><text transform="translate(271.38374,296.92705) scale(0.45566,0.45566)" font-size="40" xml:space="preserve" fill="#d8d8d8" fill-rule="nonzero" stroke="none" stroke-width="1" stroke-linecap="butt" stroke-linejoin="miter" stroke-miterlimit="10" stroke-dasharray="" stroke-dashoffset="0" font-family="Malgun Gothic" font-weight="normal" text-anchor="start" style="mix-blend-mode: normal"><tspan x="0" dy="0">Description:</tspan></text><text transform="translate(355.17562,233.72207) scale(0.37382,0.37382)" font-size="40" xml:space="preserve" fill="#9f9f9f" fill-rule="nonzero" stroke="none" stroke-width="1" stroke-linecap="butt" stroke-linejoin="miter" stroke-miterlimit="10" stroke-dasharray="" stroke-dashoffset="0" font-family="Malgun Gothic" font-weight="normal" text-anchor="start" style="mix-blend-mode: normal"><tspan x="0" dy="0">VAB; rocket part</tspan></text><path d="M271.73215,275.57656v-75.23442h76.66066v75.23442z" fill="url(#color-1)" stroke="url(#color-2)" stroke-width="3.5" stroke-linecap="butt"/><text transform="translate(271.64329,315.44811) scale(0.37383,0.37383)" font-size="40" xml:space="preserve" fill="#9f9f9f" fill-rule="nonzero" stroke="none" stroke-width="1" stroke-linecap="butt" stroke-linejoin="miter" stroke-miterlimit="10" stroke-dasharray="" stroke-dashoffset="0" font-family="Malgun Gothic" font-weight="normal" text-anchor="start" style="mix-blend-mode: normal"><tspan x="0" dy="0">Unlocks warp capabilities</tspan><tspan x="0" dy="48px">to any star in a galaxy.</tspan></text><text transform="translate(355.17562,275.43973) scale(0.37383,0.37383)" font-size="40" xml:space="preserve" fill="#9f9f9f" fill-rule="nonzero" stroke="none" stroke-width="1" stroke-linecap="butt" stroke-linejoin="miter" stroke-miterlimit="10" stroke-dasharray="" stroke-dashoffset="0" font-family="Malgun Gothic" font-weight="normal" text-anchor="start" style="mix-blend-mode: normal"><tspan x="0" dy="0">Xenon (x600)</tspan></text><path d="M278.54527,258.76856v-41.53706h63.40946v41.53706z" fill="url(#color-3)" stroke="url(#color-4)" stroke-width="1.5" stroke-linecap="butt"/><path d="M283.94467,238.00003c0,-14.528 11.7773,-26.30534 26.30534,-26.30534c14.528,0 26.30534,11.7773 26.30534,26.30534c0,14.528 -11.7773,26.30534 -26.30534,26.30534c-14.528,0 -26.30534,-11.7773 -26.30534,-26.30534z" fill="url(#color-5)" stroke="none" stroke-width="0.5" stroke-linecap="butt"/><path d="M288.89387,237.90647c0,-11.7946 9.56145,-21.35611 21.35612,-21.35611c11.7946,0 21.35612,9.56145 21.35612,21.35611c0,11.7946 -9.56145,21.35612 -21.35612,21.35612c-11.7946,0 -21.35612,-9.56145 -21.35612,-21.35612z" fill="url(#color-6)" stroke="none" stroke-width="0.5" stroke-linecap="butt"/><path d="M292.17027,237.90648c0,-9.98512 8.09456,-18.07971 18.07972,-18.07971c9.98512,0 18.07971,8.09455 18.07971,18.07971c0,9.98512 -8.09456,18.07972 -18.07971,18.07972c-9.98512,0 -18.07972,-8.09456 -18.07972,-18.07972z" fill="url(#color-7)" stroke="none" stroke-width="0.5" stroke-linecap="butt"/><path d="M295.38297,237.90648c0,-8.2108 6.65619,-14.86702 14.86703,-14.86702c8.2108,0 14.86703,6.65618 14.86703,14.86702c0,8.2108 -6.65619,14.86703 -14.86703,14.86703c-8.2108,0 -14.86703,-6.65619 -14.86703,-14.86703z" fill="url(#color-8)" stroke="none" stroke-width="0.5" stroke-linecap="butt"/><path d="M279.4375,254.20834v-32.5h4.25v32.5z" fill="url(#color-9)" stroke="url(#color-10)" stroke-width="0" stroke-linecap="butt"/><path d="M336.9375,254.70834v-32.5h4.25v32.5z" fill="url(#color-11)" stroke="url(#color-12)" stroke-width="0" stroke-linecap="butt"/><path d="M279.32143,254.35407l3.42857,-17.06832l3.28572,17.06832l4.42857,-16.91925l4.42857,16.84472l7.71429,-16.84472l7.42857,16.91925l6.57143,-16.84472l7.42857,16.77018l5,-16.77018l5.42857,16.91925l3.42857,-16.84472l3.28571,16.69565" fill="none" stroke="url(#color-13)" stroke-width="0.5" stroke-linecap="round"/><path d="M341.17857,237.43479l-3.28571,16.69565l-3.42857,-16.84472l-5.42857,16.91925l-5,-16.77018l-7.42857,16.77018l-6.57143,-16.84472l-7.42857,16.91925l-7.71429,-16.84472l-4.42857,16.84472l-4.42857,-16.91925l-3.28572,17.06832l-3.42857,-17.06832" data-paper-data="{&quot;index&quot;:null}" fill="none" stroke="url(#color-14)" stroke-width="0.5" stroke-linecap="round"/><path d="M279.46429,237.92547l3.42857,-17.06832l3.28572,17.06832l4.42857,-16.91925l4.42857,16.84472l7.71429,-16.84472l7.42857,16.91925l6.57143,-16.84472l7.42857,16.77019l5,-16.77019l5.42857,16.91926l3.42857,-16.84472l3.28571,16.69565" fill="none" stroke="url(#color-15)" stroke-width="0.5" stroke-linecap="round"/><path d="M341.32143,221.00624l-3.28571,16.69565l-3.42857,-16.84472l-5.42857,16.91925l-5,-16.77018l-7.42857,16.77018l-6.57143,-16.84472l-7.42857,16.91925l-7.71429,-16.84472l-4.42857,16.84472l-4.42857,-16.91925l-3.28572,17.06832l-3.42857,-17.06832" data-paper-data="{&quot;index&quot;:null}" fill="none" stroke="url(#color-16)" stroke-width="0.5" stroke-linecap="round"/><path d="M278.70974,258.16873v-3.66666h62.5v3.66666z" fill="url(#color-17)" stroke="url(#color-18)" stroke-width="0.5" stroke-linecap="butt"/><path d="M278.99546,221.5973v-3.66666h62.5v3.66666z" fill="url(#color-19)" stroke="url(#color-20)" stroke-width="0.5" stroke-linecap="butt"/></g></g></svg>