<svg version="1.1" xmlns="http://www.w3.org/2000/svg" xmlns:xlink="http://www.w3.org/1999/xlink" width="59" height="59.70662" viewBox="0,0,59,59.70662"><defs><linearGradient x1="270" y1="151.64669" x2="270" y2="208.35331" gradientUnits="userSpaceOnUse" id="color-1"><stop offset="0" stop-color="#191919"/><stop offset="1" stop-color="#050505"/></linearGradient><linearGradient x1="270" y1="151.64669" x2="270" y2="208.35331" gradientUnits="userSpaceOnUse" id="color-2"><stop offset="0" stop-color="#cccccc"/><stop offset="1" stop-color="#898989"/></linearGradient><radialGradient cx="270" cy="180" r="26.8571" gradientUnits="userSpaceOnUse" id="color-3"><stop offset="0" stop-color="#ffe6ca" stop-opacity="0.35294"/><stop offset="1" stop-color="#ffe6ca" stop-opacity="0"/></radialGradient><linearGradient x1="270" y1="153.2921" x2="270" y2="206.70789" gradientUnits="userSpaceOnUse" id="color-4"><stop offset="0" stop-color="#cccccc"/><stop offset="1" stop-color="#898989"/></linearGradient><linearGradient x1="249.76026" y1="184.00862" x2="290.64073" y2="184.00862" gradientUnits="userSpaceOnUse" id="color-5"><stop offset="0" stop-color="#b58383"/><stop offset="1" stop-color="#826767"/></linearGradient><linearGradient x1="249.76026" y1="184.00862" x2="290.64073" y2="184.00862" gradientUnits="userSpaceOnUse" id="color-6"><stop offset="0" stop-color="#160000"/><stop offset="1" stop-color="#000000"/></linearGradient><linearGradient x1="247.38615" y1="196.84072" x2="292.61385" y2="196.84072" gradientUnits="userSpaceOnUse" id="color-7"><stop offset="0" stop-color="#826868"/><stop offset="1" stop-color="#4f4444"/></linearGradient><linearGradient x1="247.38615" y1="196.84071" x2="292.61385" y2="196.84071" gradientUnits="userSpaceOnUse" id="color-8"><stop offset="0" stop-color="#300000"/><stop offset="1" stop-color="#170000"/></linearGradient><linearGradient x1="252.94693" y1="183.49483" x2="254.39825" y2="183.49483" gradientUnits="userSpaceOnUse" id="color-9"><stop offset="0" stop-color="#6b5b5b"/><stop offset="1" stop-color="#4a3d3d"/></linearGradient><linearGradient x1="252.94693" y1="183.49484" x2="254.39825" y2="183.49484" gradientUnits="userSpaceOnUse" id="color-10"><stop offset="0" stop-color="#1c1c1c"/><stop offset="1" stop-color="#0e0e0e"/></linearGradient><linearGradient x1="257.02878" y1="183.49483" x2="258.48011" y2="183.49483" gradientUnits="userSpaceOnUse" id="color-11"><stop offset="0" stop-color="#6b5b5b"/><stop offset="1" stop-color="#4a3d3d"/></linearGradient><linearGradient x1="257.02878" y1="183.49483" x2="258.48011" y2="183.49483" gradientUnits="userSpaceOnUse" id="color-12"><stop offset="0" stop-color="#1c1c1c"/><stop offset="1" stop-color="#0e0e0e"/></linearGradient><linearGradient x1="261.11063" y1="183.49483" x2="262.56196" y2="183.49483" gradientUnits="userSpaceOnUse" id="color-13"><stop offset="0" stop-color="#6b5b5b"/><stop offset="1" stop-color="#4a3d3d"/></linearGradient><linearGradient x1="261.11063" y1="183.49483" x2="262.56196" y2="183.49483" gradientUnits="userSpaceOnUse" id="color-14"><stop offset="0" stop-color="#1c1c1c"/><stop offset="1" stop-color="#0e0e0e"/></linearGradient><linearGradient x1="265.19248" y1="183.49483" x2="266.64381" y2="183.49483" gradientUnits="userSpaceOnUse" id="color-15"><stop offset="0" stop-color="#6b5b5b"/><stop offset="1" stop-color="#4a3d3d"/></linearGradient><linearGradient x1="265.19248" y1="183.49484" x2="266.64381" y2="183.49484" gradientUnits="userSpaceOnUse" id="color-16"><stop offset="0" stop-color="#1c1c1c"/><stop offset="1" stop-color="#0e0e0e"/></linearGradient><linearGradient x1="269.27434" y1="183.49483" x2="270.72566" y2="183.49483" gradientUnits="userSpaceOnUse" id="color-17"><stop offset="0" stop-color="#6b5b5b"/><stop offset="1" stop-color="#4a3d3d"/></linearGradient><linearGradient x1="269.27434" y1="183.49483" x2="270.72566" y2="183.49483" gradientUnits="userSpaceOnUse" id="color-18"><stop offset="0" stop-color="#1c1c1c"/><stop offset="1" stop-color="#0e0e0e"/></linearGradient><linearGradient x1="273.35619" y1="183.49483" x2="274.80752" y2="183.49483" gradientUnits="userSpaceOnUse" id="color-19"><stop offset="0" stop-color="#6b5b5b"/><stop offset="1" stop-color="#4a3d3d"/></linearGradient><linearGradient x1="273.35619" y1="183.49483" x2="274.80752" y2="183.49483" gradientUnits="userSpaceOnUse" id="color-20"><stop offset="0" stop-color="#1c1c1c"/><stop offset="1" stop-color="#0e0e0e"/></linearGradient><linearGradient x1="277.43804" y1="183.49483" x2="278.88936" y2="183.49483" gradientUnits="userSpaceOnUse" id="color-21"><stop offset="0" stop-color="#6b5b5b"/><stop offset="1" stop-color="#4a3d3d"/></linearGradient><linearGradient x1="277.43804" y1="183.49484" x2="278.88936" y2="183.49484" gradientUnits="userSpaceOnUse" id="color-22"><stop offset="0" stop-color="#1c1c1c"/><stop offset="1" stop-color="#0e0e0e"/></linearGradient><linearGradient x1="281.51988" y1="183.49483" x2="282.97122" y2="183.49483" gradientUnits="userSpaceOnUse" id="color-23"><stop offset="0" stop-color="#6b5b5b"/><stop offset="1" stop-color="#4a3d3d"/></linearGradient><linearGradient x1="281.51988" y1="183.49483" x2="282.97122" y2="183.49483" gradientUnits="userSpaceOnUse" id="color-24"><stop offset="0" stop-color="#1c1c1c"/><stop offset="1" stop-color="#0e0e0e"/></linearGradient><linearGradient x1="285.60174" y1="183.49483" x2="287.05305" y2="183.49483" gradientUnits="userSpaceOnUse" id="color-25"><stop offset="0" stop-color="#6b5b5b"/><stop offset="1" stop-color="#4a3d3d"/></linearGradient><linearGradient x1="285.60174" y1="183.49483" x2="287.05305" y2="183.49483" gradientUnits="userSpaceOnUse" id="color-26"><stop offset="0" stop-color="#1c1c1c"/><stop offset="1" stop-color="#0e0e0e"/></linearGradient><linearGradient x1="247.38615" y1="171.38469" x2="292.61385" y2="171.38469" gradientUnits="userSpaceOnUse" id="color-27"><stop offset="0" stop-color="#826868"/><stop offset="1" stop-color="#4f4444"/></linearGradient><linearGradient x1="247.38615" y1="171.38469" x2="292.61385" y2="171.38469" gradientUnits="userSpaceOnUse" id="color-28"><stop offset="0" stop-color="#300000"/><stop offset="1" stop-color="#170000"/></linearGradient><linearGradient x1="289.66457" y1="184.2857" x2="292.79509" y2="184.2857" gradientUnits="userSpaceOnUse" id="color-29"><stop offset="0" stop-color="#443c3c"/><stop offset="1" stop-color="#211c1c"/></linearGradient><linearGradient x1="289.66457" y1="184.2857" x2="292.79509" y2="184.2857" gradientUnits="userSpaceOnUse" id="color-30"><stop offset="0" stop-color="#1c1c1c"/><stop offset="1" stop-color="#0e0e0e"/></linearGradient><linearGradient x1="247.20491" y1="184.2857" x2="250.33543" y2="184.2857" gradientUnits="userSpaceOnUse" id="color-31"><stop offset="0" stop-color="#443c3c"/><stop offset="1" stop-color="#211c1c"/></linearGradient><linearGradient x1="247.20491" y1="184.2857" x2="250.33543" y2="184.2857" gradientUnits="userSpaceOnUse" id="color-32"><stop offset="0" stop-color="#1c1c1c"/><stop offset="1" stop-color="#0e0e0e"/></linearGradient><radialGradient cx="268.10187" cy="181.13572" r="7.62844" gradientUnits="userSpaceOnUse" id="color-33"><stop offset="0" stop-color="#555555"/><stop offset="1" stop-color="#343434"/></radialGradient><linearGradient x1="262.30233" y1="184.01494" x2="277.55918" y2="184.01494" gradientUnits="userSpaceOnUse" id="color-34"><stop offset="0" stop-color="#cacaca"/><stop offset="1" stop-color="#848484"/></linearGradient><linearGradient x1="269.49109" y1="180.71788" x2="270.39337" y2="180.71788" gradientUnits="userSpaceOnUse" id="color-35"><stop offset="0" stop-color="#1c1c1c"/><stop offset="1" stop-color="#0e0e0e"/></linearGradient><linearGradient x1="269.52892" y1="187.31199" x2="270.4312" y2="187.31199" gradientUnits="userSpaceOnUse" id="color-36"><stop offset="0" stop-color="#1c1c1c"/><stop offset="1" stop-color="#0e0e0e"/></linearGradient><linearGradient x1="273.2273" y1="183.57174" x2="273.22828" y2="184.47399" gradientUnits="userSpaceOnUse" id="color-37"><stop offset="0" stop-color="#1c1c1c"/><stop offset="1" stop-color="#0e0e0e"/></linearGradient><linearGradient x1="266.63324" y1="183.61673" x2="266.63421" y2="184.51899" gradientUnits="userSpaceOnUse" id="color-38"><stop offset="0" stop-color="#1c1c1c"/><stop offset="1" stop-color="#0e0e0e"/></linearGradient></defs><g transform="translate(-240.5,-150.14669)"><g data-paper-data="{&quot;isPaintingLayer&quot;:true}" fill-rule="nonzero" stroke-linecap="butt" stroke-linejoin="miter" stroke-miterlimit="10" stroke-dasharray="" stroke-dashoffset="0" style="mix-blend-mode: normal"><path d="M242,208.35331v-56.70662h56v56.70662z" fill="url(#color-1)" stroke="url(#color-2)" stroke-width="3"/><path d="M296.8571,180c0,14.75036 -12.02433,26.70789 -26.8571,26.70789c-14.83277,0 -26.8571,-11.95753 -26.8571,-26.70789c0,-14.75036 12.02433,-26.70789 26.8571,-26.70789c14.83277,0 26.8571,11.95753 26.8571,26.70789z" fill="url(#color-3)" stroke="url(#color-4)" stroke-width="0"/><path d="M245.27327,163.339v-8.69862h39.55134v8.69862z" fill-opacity="0.53453" fill="#000000" stroke="#a60000" stroke-width="0"/><text transform="translate(245.70712,161.61518) scale(0.21839,0.21839)" font-size="40" xml:space="preserve" fill="#ffffff" fill-rule="nonzero" stroke="none" stroke-width="1" stroke-linecap="butt" stroke-linejoin="miter" stroke-miterlimit="10" stroke-dasharray="" stroke-dashoffset="0" font-family="Serif" font-weight="normal" text-anchor="start" style="mix-blend-mode: normal"><tspan x="0" dy="0">Distributor</tspan></text><path d="M249.76026,196.60634v-25.19542h40.88047v25.19543z" fill="url(#color-5)" stroke="url(#color-6)" stroke-width="1"/><path d="M247.38615,198.14235v-2.60328h45.22769v2.60328z" fill="url(#color-7)" stroke="url(#color-8)" stroke-width="0.5"/><path d="M252.94693,195.35784v-23.72601h1.45133v23.72601z" fill="url(#color-9)" stroke="url(#color-10)" stroke-width="0.5"/><path d="M257.02878,195.35784v-23.72601h1.45132v23.72601z" fill="url(#color-11)" stroke="url(#color-12)" stroke-width="0.5"/><path d="M261.11063,195.35783v-23.726h1.45133v23.726z" fill="url(#color-13)" stroke="url(#color-14)" stroke-width="0.5"/><path d="M265.19248,195.35784v-23.72601h1.45132v23.72601z" fill="url(#color-15)" stroke="url(#color-16)" stroke-width="0.5"/><path d="M269.27434,195.35784v-23.72601h1.45132v23.72601z" fill="url(#color-17)" stroke="url(#color-18)" stroke-width="0.5"/><path d="M273.35619,195.35783v-23.726h1.45132v23.726z" fill="url(#color-19)" stroke="url(#color-20)" stroke-width="0.5"/><path d="M277.43804,195.35784v-23.72601h1.45132v23.72601z" fill="url(#color-21)" stroke="url(#color-22)" stroke-width="0.5"/><path d="M281.51988,195.35784v-23.72601h1.45132v23.72601z" fill="url(#color-23)" stroke="url(#color-24)" stroke-width="0.5"/><path d="M285.60174,195.35783v-23.726h1.45132v23.726z" fill="url(#color-25)" stroke="url(#color-26)" stroke-width="0.5"/><path d="M247.38615,172.23597v-1.70256h45.22769v1.70256z" fill="url(#color-27)" stroke="url(#color-28)" stroke-width="0.5"/><path d="M289.66457,198.33183v-28.09224h3.13052v28.09225z" fill="url(#color-29)" stroke="url(#color-30)" stroke-width="0.5"/><path d="M247.20491,198.33183v-28.09225h3.13052v28.09225z" fill="url(#color-31)" stroke="url(#color-32)" stroke-width="0.5"/><path d="M277.55918,184.01494c0,4.20949 -3.41536,7.62196 -7.62843,7.62196c-4.21306,0 -7.62844,-3.41247 -7.62844,-7.62196c0,-4.20949 3.41537,-7.62195 7.62844,-7.62195c4.21306,0 7.62843,3.41247 7.62843,7.62195z" fill="url(#color-33)" stroke="url(#color-34)" stroke-width="0.5"/><path d="M269.49109,182.99611v-4.55644h0.90227v4.55644z" fill="#ffffff" stroke="url(#color-35)" stroke-width="0"/><path d="M267.9906,179.28198l1.94975,-1.92851l1.89268,1.89043l-0.55363,0.49662l-1.3268,-1.3177l-1.4213,1.40582z" fill="#ffffff" stroke="none" stroke-width="0"/><path d="M270.4312,185.03376v4.55644h-0.90227v-4.55644z" data-paper-data="{&quot;index&quot;:null}" fill="#ffffff" stroke="url(#color-36)" stroke-width="0"/><path d="M268.56912,188.20124l1.42131,1.40582l1.32679,-1.3177l0.55363,0.49662l-1.89268,1.89041l-1.94974,-1.92851z" data-paper-data="{&quot;index&quot;:null}" fill="#ffffff" stroke="none" stroke-width="0"/><path d="M270.94908,183.57421l4.55643,-0.00495l0.00099,0.90226l-4.55644,0.00495z" fill="#ffffff" stroke="url(#color-37)" stroke-width="0"/><path d="M274.66158,182.06966l1.93061,1.94764l-1.88836,1.89475l-0.49721,-0.55309l1.31625,-1.32822l-1.40738,-1.41978z" fill="#ffffff" stroke="none" stroke-width="0"/><path d="M268.91244,184.51652l-4.55644,0.00495l-0.00098,-0.90226l4.55643,-0.00495z" data-paper-data="{&quot;index&quot;:null}" fill="#ffffff" stroke="url(#color-38)" stroke-width="0"/><path d="M265.74294,182.65789l-1.40427,1.42285l1.31914,1.32536l-0.49602,0.55417l-1.89248,-1.89063l1.92638,-1.95184z" data-paper-data="{&quot;index&quot;:null}" fill="#ffffff" stroke="none" stroke-width="0"/></g></g></svg>