<svg version="1.1" xmlns="http://www.w3.org/2000/svg" xmlns:xlink="http://www.w3.org/1999/xlink" width="92.73333" height="57.33334" viewBox="0,0,92.73333,57.33334"><defs><linearGradient x1="199.05307" y1="179.43944" x2="281.75819" y2="179.43944" gradientUnits="userSpaceOnUse" id="color-1"><stop offset="0" stop-color="#6d4242"/><stop offset="1" stop-color="#472a2a"/></linearGradient><linearGradient x1="199.05307" y1="179.43944" x2="281.75819" y2="179.43944" gradientUnits="userSpaceOnUse" id="color-2"><stop offset="0" stop-color="#160000"/><stop offset="1" stop-color="#000000"/></linearGradient><linearGradient x1="194.24999" y1="205.40001" x2="285.75" y2="205.40001" gradientUnits="userSpaceOnUse" id="color-3"><stop offset="0" stop-color="#937070"/><stop offset="1" stop-color="#6a4949"/></linearGradient><linearGradient x1="194.24999" y1="205.4" x2="285.75" y2="205.4" gradientUnits="userSpaceOnUse" id="color-4"><stop offset="0" stop-color="#160000"/><stop offset="1" stop-color="#000000"/></linearGradient><linearGradient x1="205.5" y1="178.40001" x2="208.43617" y2="178.40001" gradientUnits="userSpaceOnUse" id="color-5"><stop offset="0" stop-color="#896363"/><stop offset="1" stop-color="#6a4444"/></linearGradient><linearGradient x1="213.75798" y1="178.4" x2="216.69415" y2="178.4" gradientUnits="userSpaceOnUse" id="color-6"><stop offset="0" stop-color="#896363"/><stop offset="1" stop-color="#6a4444"/></linearGradient><linearGradient x1="222.01596" y1="178.39999" x2="224.95212" y2="178.39999" gradientUnits="userSpaceOnUse" id="color-7"><stop offset="0" stop-color="#896363"/><stop offset="1" stop-color="#6a4444"/></linearGradient><linearGradient x1="230.27394" y1="178.40001" x2="233.21011" y2="178.40001" gradientUnits="userSpaceOnUse" id="color-8"><stop offset="0" stop-color="#896363"/><stop offset="1" stop-color="#6a4444"/></linearGradient><linearGradient x1="238.53192" y1="178.4" x2="241.46809" y2="178.4" gradientUnits="userSpaceOnUse" id="color-9"><stop offset="0" stop-color="#896363"/><stop offset="1" stop-color="#6a4444"/></linearGradient><linearGradient x1="246.7899" y1="178.39999" x2="249.72607" y2="178.39999" gradientUnits="userSpaceOnUse" id="color-10"><stop offset="0" stop-color="#896363"/><stop offset="1" stop-color="#6a4444"/></linearGradient><linearGradient x1="255.04786" y1="178.40001" x2="257.98403" y2="178.40001" gradientUnits="userSpaceOnUse" id="color-11"><stop offset="0" stop-color="#896363"/><stop offset="1" stop-color="#6a4444"/></linearGradient><linearGradient x1="263.30585" y1="178.4" x2="266.24202" y2="178.4" gradientUnits="userSpaceOnUse" id="color-12"><stop offset="0" stop-color="#896363"/><stop offset="1" stop-color="#6a4444"/></linearGradient><linearGradient x1="271.56383" y1="178.39999" x2="274.5" y2="178.39999" gradientUnits="userSpaceOnUse" id="color-13"><stop offset="0" stop-color="#896363"/><stop offset="1" stop-color="#6a4444"/></linearGradient><linearGradient x1="194.24999" y1="153.9" x2="285.75" y2="153.9" gradientUnits="userSpaceOnUse" id="color-14"><stop offset="0" stop-color="#937070"/><stop offset="1" stop-color="#6a4949"/></linearGradient><linearGradient x1="194.24999" y1="153.9" x2="285.75" y2="153.9" gradientUnits="userSpaceOnUse" id="color-15"><stop offset="0" stop-color="#160000"/><stop offset="1" stop-color="#000000"/></linearGradient><linearGradient x1="279.78334" y1="179.99999" x2="286.11667" y2="179.99999" gradientUnits="userSpaceOnUse" id="color-16"><stop offset="0" stop-color="#824e4e"/><stop offset="1" stop-color="#633b3b"/></linearGradient><linearGradient x1="279.78334" y1="180.00001" x2="286.11667" y2="180.00001" gradientUnits="userSpaceOnUse" id="color-17"><stop offset="0" stop-color="#160000"/><stop offset="1" stop-color="#000000"/></linearGradient><linearGradient x1="193.88334" y1="179.99999" x2="200.21667" y2="179.99999" gradientUnits="userSpaceOnUse" id="color-18"><stop offset="0" stop-color="#824e4e"/><stop offset="1" stop-color="#633b3b"/></linearGradient><linearGradient x1="193.88334" y1="180" x2="200.21667" y2="180" gradientUnits="userSpaceOnUse" id="color-19"><stop offset="0" stop-color="#160000"/><stop offset="1" stop-color="#000000"/></linearGradient></defs><g transform="translate(-193.63334,-151.33333)"><g data-paper-data="{&quot;isPaintingLayer&quot;:true}" fill-rule="nonzero" stroke-linecap="butt" stroke-linejoin="miter" stroke-miterlimit="10" stroke-dasharray="" stroke-dashoffset="0" style="mix-blend-mode: normal"><path d="M199.05307,204.92584v-50.97279h82.70512v50.97279z" fill="url(#color-1)" stroke="url(#color-2)" stroke-width="1"/><path d="M194.24999,208.03334v-5.26667h91.5v5.26667z" fill="url(#color-3)" stroke="url(#color-4)" stroke-width="0.5"/><path d="M205.5,202.40001v-48h2.93617v48z" fill="url(#color-5)" stroke="none" stroke-width="0"/><path d="M213.75798,202.4v-48h2.93617v48z" fill="url(#color-6)" stroke="none" stroke-width="0"/><path d="M222.01596,202.39999v-48h2.93618v48z" fill="url(#color-7)" stroke="none" stroke-width="0"/><path d="M230.27394,202.40001v-48h2.93617v48z" fill="url(#color-8)" stroke="none" stroke-width="0"/><path d="M238.53192,202.4v-48h2.93617v48z" fill="url(#color-9)" stroke="none" stroke-width="0"/><path d="M246.7899,202.39999v-48h2.93617v48z" fill="url(#color-10)" stroke="none" stroke-width="0"/><path d="M255.04786,202.40001v-48h2.93617v48z" fill="url(#color-11)" stroke="none" stroke-width="0"/><path d="M263.30585,202.4v-48h2.93617v48z" fill="url(#color-12)" stroke="none" stroke-width="0"/><path d="M271.56383,202.39999v-48h2.93617v48z" fill="url(#color-13)" stroke="none" stroke-width="0"/><path d="M194.24999,155.62223v-3.44445h91.5v3.44445z" fill="url(#color-14)" stroke="url(#color-15)" stroke-width="0.5"/><path d="M279.78334,208.41667v-56.83333h6.33333v56.83333z" fill="url(#color-16)" stroke="url(#color-17)" stroke-width="0.5"/><path d="M193.88334,208.41667v-56.83334h6.33334v56.83334z" fill="url(#color-18)" stroke="url(#color-19)" stroke-width="0.5"/></g></g></svg>