<svg version="1.1" xmlns="http://www.w3.org/2000/svg" xmlns:xlink="http://www.w3.org/1999/xlink" width="43.04252" height="105.55751" viewBox="0,0,43.04252,105.55751"><defs><radialGradient cx="238.52448" cy="177.75476" r="22.57159" gradientUnits="userSpaceOnUse" id="color-1"><stop offset="0" stop-color="#3c3c3c"/><stop offset="1" stop-color="#939393"/></radialGradient><linearGradient x1="239.74787" y1="156.06832" x2="239.74787" y2="162.91937" gradientUnits="userSpaceOnUse" id="color-2"><stop offset="0" stop-color="#696969"/><stop offset="1" stop-color="#a0a0a0"/></linearGradient><radialGradient cx="235.71182" cy="133.41612" r="13.11833" gradientUnits="userSpaceOnUse" id="color-3"><stop offset="0" stop-color="#dcdcdc"/><stop offset="1" stop-color="#a0a0a0"/></radialGradient><radialGradient cx="241.29951" cy="140.30072" r="9.85359" gradientUnits="userSpaceOnUse" id="color-4"><stop offset="0" stop-color="#c5dfff"/><stop offset="1" stop-color="#219cff"/></radialGradient><radialGradient cx="230.47957" cy="134.03046" r="10.07074" gradientUnits="userSpaceOnUse" id="color-5"><stop offset="0" stop-color="#303030"/><stop offset="1" stop-color="#292929"/></radialGradient><radialGradient cx="246.90767" cy="130.85061" r="2.65078" gradientUnits="userSpaceOnUse" id="color-6"><stop offset="0" stop-color="#787878"/><stop offset="1" stop-color="#292929"/></radialGradient><radialGradient cx="235.75537" cy="133.01564" r="4.17314" gradientUnits="userSpaceOnUse" id="color-7"><stop offset="0" stop-color="#a7a7a7"/><stop offset="1" stop-color="#292929"/></radialGradient></defs><g transform="translate(-221.2245,-129.64767)"><g data-paper-data="{&quot;isPaintingLayer&quot;:true}" fill-rule="nonzero" stroke-linejoin="miter" stroke-miterlimit="10" stroke-dasharray="" stroke-dashoffset="0" style="mix-blend-mode: normal"><path d="M223.55679,200.32636v-45.14319h29.93538v45.14319z" fill="url(#color-1)" stroke="#ed6b00" stroke-width="0" stroke-linecap="butt"/><g stroke="#000000" stroke-width="0" stroke-linecap="butt"><path d="M248.11242,188.6298c0,0 1.14213,-2.79759 1.37701,-6.29945c0.05649,-0.8421 0.41714,-3.57742 0.46729,-4.44286c0.11871,-2.04825 0.16878,-4.08198 0.2701,-5.33665c0.21787,-2.69861 0.56718,-6.11196 0.56718,-6.11196c0,0 0.83947,-6.67255 1.86674,-6.71728c6.00786,-0.2616 3.67628,6.95627 3.67628,6.95627c0,0 -0.42517,4.88124 -0.65683,7.75038c-0.09426,1.16768 -0.72521,2.00412 -0.93678,3.80823c-0.09485,0.80873 -0.95603,4.22191 -1.39132,6.32808c-0.72477,3.5067 -0.81571,5.69492 -0.81571,5.69492z" data-paper-data="{&quot;index&quot;:null}" fill="#bdbdbd"/><path d="M251.6126,194.69032c-0.19698,-0.06809 -0.81035,3.63396 -1.66136,3.41026c-0.41856,-0.11003 0.49215,-2.38891 0.09004,-3.3305c-0.21283,-0.49842 -0.57483,4.25518 -1.5809,3.54011c-0.34539,-0.2455 0.67207,-3.53449 0.44603,-4.42471c-0.121,-0.47656 -1.06517,5.11285 -1.74977,4.67908c-0.40642,-0.25748 0.6907,-3.21581 0.69201,-4.6555c0.00063,-0.70137 -1.1884,3.6876 -1.65432,3.25291c-0.28519,-0.2661 0.66478,-4.60636 0.63933,-4.66343c-0.14301,-0.32076 -1.42661,2.15195 -1.54471,1.46124c-0.21767,-1.27298 0.9959,-2.46373 1.99769,-3.61204c0.58531,-0.67091 0.8731,-1.81599 0.8731,-1.81599c0,0 1.66675,-0.1136 2.41364,0.16154c0.72723,0.26791 2.0103,1.46816 2.0103,1.46816c0,0 -0.55382,4.67308 -0.97109,4.52885z" data-paper-data="{&quot;index&quot;:null}" fill="#777777"/></g><g><path d="M248.87594,227.61823c0,0 -4.31057,-25.43739 -5.66329,-29.71835c-0.44232,-1.39982 -3.52857,-1.19107 -3.52857,-1.19107c0,0 -3.41563,-3.93455 0.19635,-4.28266c3.05267,-0.29421 9.98609,1.23035 9.98609,1.23035l6.97562,33.19399z" data-paper-data="{&quot;index&quot;:null}" fill="#494949" stroke="#000000" stroke-width="0" stroke-linecap="butt"/><path d="M263.24616,233.27078c-0.59003,0.05686 -2.63061,0.26724 -4.68908,0.38471c-1.2515,0.07142 -1.95265,-0.43246 -2.89542,-0.4851c-1.1869,-0.06626 -2.90384,0.50136 -3.76753,0.3922c-1.59149,-0.20113 -2.4383,-0.54642 -2.4383,-0.54642c0,0 -0.36624,-0.99486 -0.43641,-1.55108c-0.09454,-0.7494 -0.07982,-2.54108 -0.07982,-2.54108c0,0 5.89541,-0.68831 8.21884,-0.71098c1.37484,-0.01341 4.28307,0.23701 4.28307,0.23701c0,0 1.51209,0.47272 1.76569,0.87748c0.31061,0.49574 1.05982,1.89572 1.05982,1.89572c0,0 -0.19779,1.9682 -1.02087,2.04753z" data-paper-data="{&quot;index&quot;:null}" fill="#141415" stroke="#000000" stroke-width="0" stroke-linecap="butt"/><path d="M262.72952,230.73383c-0.24708,0.02381 0.85281,1.52687 -2.47815,1.57812c-3.14549,0.0484 -2.87766,-0.91639 -3.98472,-0.89067c-2.31489,0.05378 -2.51863,0.84053 -3.52836,0.78415c-0.35165,-0.01964 -0.52134,-0.06483 -1.86945,-0.79467c-0.92715,-0.50194 -0.83059,-1.67928 -1.48784,-2.24693c-0.96006,-0.82918 -0.98565,-1.79954 -0.98565,-1.79954l-0.3684,-3.02635c0,0 0.69582,2.14998 1.60997,2.8901c0.81792,0.6622 2.30442,-0.24093 2.78585,-0.28747c0.84303,-0.08149 -0.99919,-3.18689 -0.19142,-3.24641c0.43435,-0.032 3.68312,-0.59014 3.68312,-0.59014c0,0 0.46588,3.55158 0.69971,3.54929c1.37484,-0.01341 4.64515,0.2021 4.64515,0.2021c0,0 1.51209,0.47272 1.7657,0.87748c0.31061,0.49574 0.91148,2.8846 0.91148,2.8846c0,0 -0.38392,0.037 -1.20701,0.11632z" data-paper-data="{&quot;index&quot;:null}" fill="#252527" stroke="#000000" stroke-width="0" stroke-linecap="butt"/><path d="M255.01197,228.52541l2.5507,-1.34222" fill="none" stroke="#ffffff" stroke-width="0.5" stroke-linecap="round"/><path d="M259.37317,227.0087l-2.39511,1.69269" fill="none" stroke="#ffffff" stroke-width="0.5" stroke-linecap="round"/><path d="M259.17392,228.7334l1.30882,-1.58799" fill="none" stroke="#ffffff" stroke-width="0.5" stroke-linecap="round"/><path d="M253.43271,224.77934l2.14933,-0.45079" fill="none" stroke="#969696" stroke-width="0.5" stroke-linecap="round"/><path d="M253.99695,225.57771l1.8963,-0.54823" fill="none" stroke="#969696" stroke-width="0.5" stroke-linecap="round"/></g><g><path d="M223.85174,227.20719l6.16476,-33.35409c0,0 6.89421,-1.69304 9.95315,-1.4733c3.6194,0.26 0.30065,4.2766 0.30065,4.2766c0,0 -3.09042,-0.13349 -3.4985,1.27669c-1.24801,4.31265 -4.93751,29.84751 -4.93751,29.84751z" fill="#494949" stroke="#000000" stroke-width="0" stroke-linecap="butt"/><path d="M238.86644,233.35555c0,0 -0.52372,1.90752 -1.34849,1.84828c-0.59123,-0.04247 -2.63829,-0.17583 -4.68747,-0.40379c-1.24585,-0.13859 -1.853,-0.75249 -2.77374,-0.96184c-1.15917,-0.26356 -2.94677,0.00935 -3.78011,-0.24251c-1.53554,-0.46409 -2.3128,-0.94596 -2.3128,-0.94596c0,0 -0.19496,-1.04204 -0.17125,-1.60219c0.03195,-0.75465 0.34569,-2.51872 0.34569,-2.51872c0,0 5.92756,0.30593 8.22216,0.67161c1.35778,0.21639 4.18333,0.94898 4.18333,0.94898c0,0 1.41189,0.71861 1.59435,1.16005c0.22346,0.54065 0.72834,2.04611 0.72834,2.04611z" data-paper-data="{&quot;index&quot;:null}" fill="#141415" stroke="#000000" stroke-width="0" stroke-linecap="butt"/><path d="M238.6417,232.70313c0,0 -0.3847,-0.02764 -1.20947,-0.08689c-0.24758,-0.01778 0.58582,1.64786 -2.7069,1.1421c-3.1094,-0.47762 -2.6842,-1.38412 -3.78001,-1.54364c-2.29136,-0.33357 -2.62364,0.40809 -3.60978,0.18386c-0.34344,-0.07809 -0.50319,-0.15098 -1.71046,-1.09572c-0.83029,-0.64973 -0.53847,-1.79442 -1.09169,-2.46386c-0.80811,-0.97788 -0.67127,-1.93888 -0.67127,-1.93888l0.1422,-3.04537c0,0 0.32698,2.23599 1.10469,3.1184c0.69584,0.7895 2.31228,0.14731 2.79474,0.18183c0.84479,0.06045 -0.45292,-3.30901 0.35345,-3.23279c0.4336,0.04099 3.72996,0.03326 3.72996,0.03326c0,0 -0.1338,3.5795 0.09712,3.61629c1.35777,0.21639 4.54616,0.97505 4.54616,0.97505c0,0 1.41189,0.71861 1.59435,1.16005c0.22347,0.54065 0.41693,2.9963 0.41693,2.9963z" data-paper-data="{&quot;index&quot;:null}" fill="#252527" stroke="#000000" stroke-width="0" stroke-linecap="butt"/><path d="M232.93093,228.25256l-2.73905,0.89739" fill="none" stroke="#ffffff" stroke-width="0.5" stroke-linecap="round"/><path d="M232.10098,229.65181l2.64416,-1.26891" fill="none" stroke="#ffffff" stroke-width="0.5" stroke-linecap="round"/><path d="M234.26066,230.05009l1.55564,-1.34712" fill="none" stroke="#ffffff" stroke-width="0.5" stroke-linecap="round"/><path d="M229.26043,225.19275l2.19444,-0.0855" fill="none" stroke="#969696" stroke-width="0.5" stroke-linecap="round"/><path d="M229.68341,226.07413l1.96123,-0.22383" fill="none" stroke="#969696" stroke-width="0.5" stroke-linecap="round"/></g><g stroke-linecap="butt"><path d="M235.91979,162.91937v-6.85104h7.65615v6.85104z" fill="url(#color-2)" stroke="#000000" stroke-width="0"/><path d="M252.80944,143.64573c0,7.73092 -5.73774,13.99807 -12.8156,13.99807c-7.07786,0 -12.8156,-6.26715 -12.8156,-13.99807c0,-7.73092 5.73774,-13.99806 12.8156,-13.99806c7.07786,0 12.8156,6.26714 12.8156,13.99806z" fill="url(#color-3)" stroke="none" stroke-width="0"/><path d="M254.09785,143.02638c0,3.74486 0.0384,8.21376 -9.59547,8.69146c-10.76272,0.53367 -10.10384,-4.9466 -10.10384,-8.69146c0,-3.74486 4.40985,-6.78067 9.84967,-6.78067c5.43982,0 9.84967,3.03581 9.84967,6.78067z" data-paper-data="{&quot;index&quot;:null}" fill="url(#color-4)" stroke="#ed6b00" stroke-width="0"/><path d="M233.16997,134.03999c-0.16984,0.01553 -0.60661,0.06221 -1.07903,0.1438c-0.52185,0.20742 -1.13106,0.41772 -1.59752,0.64771c-0.28909,0.89276 0.78709,1.80702 -0.65422,2.4752c-2.45813,1.13958 -1.71655,-2.03888 -0.89769,-3.03685c1.27069,-1.10653 3.14359,-1.2394 4.75566,-1.549c2.22048,-0.42645 4.38435,-1.08334 6.57971,-1.21737c0.08249,-0.08622 0.19535,-0.14411 0.32353,-0.15569l0.58612,-0.0529c0.29539,-0.07774 0.61637,-0.15861 0.95355,-0.23507c0.87645,-0.27394 1.93099,-0.41625 2.91353,-0.50866c0.4818,-0.09462 0.9333,-0.1389 1.30669,-0.10536c0.27388,-0.02025 0.5286,-0.03932 0.7561,-0.05986l0.61787,-0.05577c0.28142,-0.0254 0.53014,0.18214 0.55554,0.46356c0.0226,0.25047 -0.13931,0.47504 -0.37361,0.53931l-0.32968,0.09745c0.145,0.12181 0.27656,0.26112 0.39244,0.4197l0.23414,-0.11908l0.29765,0.58522c0.03177,0.05903 0.05238,0.12532 0.05879,0.19629c0.0254,0.28142 -0.18214,0.53014 -0.46355,0.55553c-0.08558,0.00772 -0.16814,-0.00609 -0.24232,-0.03698l-0.50702,-0.19878l0.00585,-0.01492l-0.04787,-0.00377c-0.36209,-0.22374 -0.73047,-0.39249 -1.09838,-0.50678c-0.55947,-0.02006 -1.148,-0.08122 -1.74789,-0.1302c-1.01464,0.1745 -1.9334,0.80247 -2.5904,1.87097c0,0 -0.26893,0.43524 -0.70416,0.1663c-0.43523,-0.26893 -0.1663,-0.70417 -0.1663,-0.70417c0.0575,-0.09265 0.11686,-0.18277 0.17799,-0.27034l-0.28392,0.09053c-0.03801,0.01299 -0.07817,0.02169 -0.11996,0.02546c-0.28142,0.0254 -0.53014,-0.18214 -0.55553,-0.46356c-0.01286,-0.14243 0.03395,-0.27647 0.11981,-0.37743c-0.2451,0.00049 -0.4766,0.01384 -0.6735,0.06241c-1.37524,0.33924 -3.48763,0.45199 -5.48058,0.75785c0.01121,0.24126 -0.14794,0.45435 -0.37516,0.51668l-0.59763,0.17665l-0.00571,-0.01931l-0.00747,0.00194z" fill="url(#color-5)" stroke="none" stroke-width="0.5"/><path d="M248.26401,130.30896c2.70896,-0.28418 2.68558,-0.24349 2.90043,1.58673c0.21485,1.83022 -0.78194,3.36186 -2.22639,3.42102c-1.44446,0.05917 -2.7896,-1.37656 -3.00445,-3.20678c-0.21485,-1.83022 -0.20983,-1.53449 2.33041,-1.80097z" data-paper-data="{&quot;index&quot;:null}" fill="url(#color-6)" stroke="#000000" stroke-width="0"/><path d="M241.64399,132.98982c0.35755,1.99142 -1.17444,3.9329 -3.4218,4.33639c-2.24735,0.40349 -4.35904,-0.88377 -4.71659,-2.8752c-0.35755,-1.99142 -0.40888,-2.02662 3.87102,-2.60142c4.01334,-0.53901 3.90982,-0.85119 4.26737,1.14023z" fill="url(#color-7)" stroke="#000000" stroke-width="0"/></g><path d="M229.63979,193.59141c0,0 0.16709,-5.5597 -0.35268,-10.94382c-0.35317,-3.65847 -1.40473,-6.95919 -1.56162,-9.45339c-0.29447,-4.68133 -0.2105,-13.38223 -0.2105,-13.38223c0,0 3.69178,-0.58477 5.4694,-0.21857c2.26281,0.46615 7.00656,2.78867 7.00656,2.78867c0,0 3.67689,-2.17061 5.59031,-2.58687c2.01891,-0.43921 6.22369,0.01677 6.22369,0.01677c0,0 -0.06905,9.21711 -0.22689,12.65629c-0.13965,3.04285 -0.88957,6.36811 -1.18346,10.87293c-0.3029,4.64296 -0.14784,10.42155 -0.14784,10.42155c0,0 -2.75697,-0.76932 -5.57187,-0.83754c-1.27833,-0.03098 -1.79126,1.00612 -2.99851,1.16532c-0.96496,0.12724 -2.63623,-0.61291 -3.56107,-0.64966c-0.69915,-0.02778 -2.04377,-0.5306 -2.53801,-0.53471c-0.99795,-0.0083 -1.61572,0.86529 -2.77345,1.02464c-1.34484,0.1851 -3.1641,-0.33939 -3.1641,-0.33939z" fill="#d0d0d0" stroke="#292e32" stroke-width="0" stroke-linecap="butt"/><path d="M242.73589,170.5071l-0.12126,-5.82045l7.63934,0.36378v5.21415z" fill="#f200ff" stroke="none" stroke-width="0" stroke-linecap="butt"/><g stroke="#000000" stroke-width="0" stroke-linecap="butt"><path d="M226.38527,190.9801c0,0 -0.11064,-2.20356 -0.99833,-5.67261c-0.53316,-2.08356 -1.58825,-5.44338 -1.70426,-6.25119c-0.25881,-1.80208 -1.0325,-2.58035 -1.14768,-3.75129c-0.28298,-2.87717 -0.80253,-7.76871 -0.80253,-7.76871c0,0 -2.81887,-7.42212 4.8242,-7.87144c1.22016,-0.07173 1.9764,7.03421 1.9764,7.03421c0,0 0.4271,3.41496 0.69326,6.12113c0.12373,1.25818 0.18434,3.30985 0.32909,5.36885c0.06116,0.86997 0.50248,3.59791 0.5714,4.44359c0.28667,3.51678 1.68671,6.22376 1.68671,6.22376z" fill="#bdbdbd"/><path d="M227.62103,195.56595c-0.51153,0.19196 -1.20051,-4.47351 -1.20051,-4.47351c0,0 1.57134,-1.35577 2.46279,-1.70705c0.91559,-0.36081 2.96023,-0.43002 2.96023,-0.43002c0,0 0.35537,1.12643 1.07469,1.74036c1.23117,1.05081 2.7222,2.12114 2.45783,3.43279c-0.14342,0.7117 -1.72301,-1.64759 -1.89774,-1.30735c-0.03109,0.06053 1.14314,4.34565 0.79387,4.64629c-0.57059,0.49114 -2.03812,-3.81684 -2.0359,-3.10748c0.00457,1.45606 1.35642,4.32711 0.85845,4.63245c-0.83888,0.51436 -2.00853,-5.03485 -2.15596,-4.53947c-0.27542,0.92539 0.97939,4.13971 0.55625,4.42618c-1.23257,0.83441 -1.6864,-3.93371 -1.94643,-3.40609c-0.49127,0.99681 0.63051,3.20122 0.11731,3.35874c-1.04337,0.32027 -1.80341,-3.35647 -2.04487,-3.26585z" data-paper-data="{&quot;index&quot;:null}" fill="#777777"/></g></g></g></svg>