<svg version="1.1" xmlns="http://www.w3.org/2000/svg" xmlns:xlink="http://www.w3.org/1999/xlink" width="551.85324" height="440.13803" viewBox="0,0,551.85324,440.13803"><defs><radialGradient cx="239.76178" cy="177.81006" r="244" gradientUnits="userSpaceOnUse" id="color-1"><stop offset="0" stop-color="#121212"/><stop offset="1" stop-color="#868686"/></radialGradient><radialGradient cx="240.00005" cy="180" r="173.5" gradientUnits="userSpaceOnUse" id="color-2"><stop offset="0" stop-color="#000000"/><stop offset="1" stop-color="#000000" stop-opacity="0"/></radialGradient><radialGradient cx="237.93829" cy="318.1666" r="116.49049" gradientUnits="userSpaceOnUse" id="color-3"><stop offset="0" stop-color="#33266a"/><stop offset="1" stop-color="#949074"/></radialGradient><linearGradient x1="242.7439" y1="206.71003" x2="247.12426" y2="240.06435" gradientUnits="userSpaceOnUse" id="color-4"><stop offset="0" stop-color="#5fa5c2"/><stop offset="1" stop-color="#7fff7d"/></linearGradient><radialGradient cx="217.12983" cy="96.63091" r="64.41492" gradientUnits="userSpaceOnUse" id="color-5"><stop offset="0" stop-color="#ffa8a8"/><stop offset="1" stop-color="#ffed7d"/></radialGradient><radialGradient cx="232.39258" cy="141.39011" r="13.70696" gradientUnits="userSpaceOnUse" id="color-6"><stop offset="0" stop-color="#daffe3"/><stop offset="1" stop-color="#0c1a0f"/></radialGradient><radialGradient cx="266.89257" cy="159.89011" r="16.12716" gradientUnits="userSpaceOnUse" id="color-7"><stop offset="0" stop-color="#5f6471"/><stop offset="1" stop-color="#171d2c"/></radialGradient><radialGradient cx="291.89257" cy="138.39011" r="13.22358" gradientUnits="userSpaceOnUse" id="color-8"><stop offset="0" stop-color="#ffd0d0"/><stop offset="1" stop-color="#2a0000"/></radialGradient><linearGradient x1="55.14827" y1="243.41291" x2="73.54596" y2="214.60219" gradientUnits="userSpaceOnUse" id="color-9"><stop offset="0" stop-color="#694444"/><stop offset="1" stop-color="#98a1b9"/></linearGradient><radialGradient cx="11.29118" cy="349.51067" r="65.45502" gradientUnits="userSpaceOnUse" id="color-10"><stop offset="0" stop-color="#dcdcdc"/><stop offset="1" stop-color="#a0a0a0"/></radialGradient><radialGradient cx="4.93292" cy="308.61277" r="46.28026" gradientUnits="userSpaceOnUse" id="color-11"><stop offset="0" stop-color="#d1ffc4"/><stop offset="1" stop-color="#2188ff"/></radialGradient><radialGradient cx="4.93292" cy="308.61277" r="46.28026" gradientUnits="userSpaceOnUse" id="color-12"><stop offset="0" stop-color="#ceffc4"/><stop offset="1" stop-color="#ff21cc"/></radialGradient><radialGradient cx="4.93292" cy="308.61277" r="46.28026" gradientUnits="userSpaceOnUse" id="color-13"><stop offset="0" stop-color="#ffe9c4"/><stop offset="1" stop-color="#4fff21"/></radialGradient><radialGradient cx="4.93292" cy="308.61277" r="46.28026" gradientUnits="userSpaceOnUse" id="color-14"><stop offset="0" stop-color="#ffe9c4"/><stop offset="1" stop-color="#4fff21"/></radialGradient><radialGradient cx="4.93298" cy="308.61282" r="46.28024" gradientUnits="userSpaceOnUse" id="color-15"><stop offset="0" stop-color="#ffe9c4"/><stop offset="1" stop-color="#ffa321"/></radialGradient><radialGradient cx="4.93302" cy="308.61286" r="46.28024" gradientUnits="userSpaceOnUse" id="color-16"><stop offset="0" stop-color="#c4f0ff"/><stop offset="1" stop-color="#3d21ff"/></radialGradient><radialGradient cx="18.68561" cy="362.27096" r="50.24886" gradientUnits="userSpaceOnUse" id="color-17"><stop offset="0" stop-color="#1c2f30"/><stop offset="1" stop-color="#142913"/></radialGradient><radialGradient cx="-52.3739" cy="318.43945" r="13.22632" gradientUnits="userSpaceOnUse" id="color-18"><stop offset="0" stop-color="#786c41"/><stop offset="1" stop-color="#141a29"/></radialGradient><radialGradient cx="-4.11307" cy="348.17107" r="20.82216" gradientUnits="userSpaceOnUse" id="color-19"><stop offset="0" stop-color="#7ba676"/><stop offset="1" stop-color="#291616"/></radialGradient></defs><g transform="translate(68.09152,5.18993)"><g data-paper-data="{&quot;isPaintingLayer&quot;:true}" fill-rule="nonzero" stroke-linecap="butt" stroke-linejoin="miter" stroke-miterlimit="10" stroke-dasharray="" stroke-dashoffset="0" style="mix-blend-mode: normal"><path d="M-4.23828,360.81007v-366h488v366z" fill="url(#color-1)" stroke="none" stroke-width="0"/><path d="M413.5,180c0,97.7544 -77.6786,177 -173.5,177c-95.8214,0 -173.5,-79.2456 -173.5,-177c0,-97.7544 77.6786,-177 173.5,-177c95.8214,0 173.5,79.2456 173.5,177z" fill="url(#color-2)" stroke="none" stroke-width="0"/><path d="M160.25243,434.36546l0.87834,-232.97929l154.49348,0.58264l-0.87834,232.97929z" data-paper-data="{&quot;index&quot;:null}" fill="url(#color-3)" stroke="#ed6b00" stroke-width="0"/><path d="M317.75618,291.95257c-5.0309,-13.03527 -11.05226,-29.68868 -11.05226,-29.68868c0,0 -11.04198,-32.90496 -6.36567,-35.41357c27.34834,-14.67296 32.67371,24.10983 32.67371,24.10983c0,0 9.65055,25.06826 15.00005,38.92735c2.57612,8.6138 -25.07037,14.30237 -30.25576,2.06507z" data-paper-data="{&quot;index&quot;:null}" fill="#a3bda9" stroke="#000000" stroke-width="0"/><g><path d="M228.48725,242.5119l-4.38035,-33.35423l37.2739,-4.89511l4.38035,33.35423z" fill="url(#color-4)" stroke="#000000" stroke-width="0"/><path d="M302.57782,144.27643c1.15825,37.94343 -26.06368,69.56234 -60.80191,70.62275c-34.73819,1.06041 -63.8381,-28.83915 -64.99636,-66.78266c-1.15825,-37.94348 26.06372,-69.56234 60.80196,-70.62275c34.73815,-1.06041 63.83806,28.83915 64.99631,66.78267z" fill="url(#color-5)" stroke="none" stroke-width="0"/><path d="M234.24021,154.93526c-2.50656,4.56413 -7.13506,2.1034 -7.13506,2.1034c-4.67209,-2.5948 -12.48175,-5.39491 -11.96181,-12.87968c0.42489,-6.11682 10.39255,-11.81263 15.78488,-10.83296c9.78211,1.7772 18.67383,18.83841 3.31207,21.60924z" data-paper-data="{&quot;index&quot;:null}" fill="url(#color-6)" stroke="none" stroke-width="0.5"/><path d="M257.0938,176.41599c0.6539,-2.32212 2.30108,-2.87228 3.52687,-2.93738c0.38889,-0.03601 0.78833,-0.01594 1.18741,0.06639c-1.57584,-5.26582 -0.89405,-12.15203 -2.76053,-17.23739c0,0 -1.37318,-3.81193 2.43876,-5.18519c3.8119,-1.37313 5.18515,2.4388 5.18515,2.4388c2.25503,6.35973 4.01183,14.21829 4.0846,21.08007c0.02731,2.57134 1.45218,6.00343 -0.48065,7.6995c-2.00564,1.75997 -5.33394,-0.17113 -8.00098,-0.25671l-2.37873,-0.66982c-0.49303,-0.13881 -0.93874,-0.36294 -1.32595,-0.65208c-1.01167,-0.69505 -2.12977,-2.02393 -1.47587,-4.34605z" data-paper-data="{&quot;index&quot;:null}" fill="url(#color-7)" stroke="none" stroke-width="0.5"/><path d="M291.1509,132.11765c7.90861,2.00089 15.22634,20.50137 2.85304,23.36571c-1.98457,4.90829 -5.7402,2.21218 -5.7402,2.21218c-3.79187,-2.84138 -10.11739,-5.93054 -9.76022,-14.00987c0.29187,-6.60261 8.28781,-12.67099 12.64741,-11.56801z" data-paper-data="{&quot;index&quot;:null}" fill="url(#color-8)" stroke="none" stroke-width="0.5"/></g><g><path d="M84.06931,244.04997l-10.86022,11.19168l-34.15915,-22.10855l8.58807,-12.34814c0,0 26.86787,8.44212 34.11707,12.18831c6.36186,3.28767 2.3142,11.0767 2.3142,11.0767z" data-paper-data="{&quot;index&quot;:null}" fill="url(#color-9)" stroke="#000000" stroke-width="0"/><path d="M-33.13922,260.57861c20.76083,-32.51075 61.719,-43.45853 91.48362,-24.4518c29.76481,19.00668 37.06431,60.76995 16.30315,93.28133c-20.76083,32.51076 -61.71898,43.45852 -91.4838,24.45164c-29.76481,-19.00668 -37.06431,-60.76995 -16.30317,-93.28132z" data-paper-data="{&quot;index&quot;:null}" fill="url(#color-10)" stroke="none" stroke-width="0"/><g data-paper-data="{&quot;index&quot;:null}" stroke="#ed6b00" stroke-width="0"><path d="M27.21338,250.60963c42.67118,27.25823 28.71168,54.7932 17.77238,69.94005c-10.93949,15.14651 -44.38449,10.39807 -65.16412,-4.46976c-20.77958,-14.86785 -29.32891,-43.51277 -18.38959,-58.65932c0,0 18.90318,-37.42135 65.78115,-6.81063z" data-paper-data="{&quot;index&quot;:null}" fill="url(#color-11)"/><path d="M27.21329,250.60966c34.00369,21.7215 32.04612,43.61867 24.31234,59.28289c0.82397,-10.42471 -3.44599,-20.73817 -12.25358,-26.94747c-13.69116,-9.65218 -33.16231,-5.73185 -43.4901,8.75631c-6.88198,9.65424 -7.96743,21.56477 -3.87472,31.29372c-4.29708,-1.94857 -8.3915,-4.27194 -12.08563,-6.91507c-6.3338,-4.53185 -11.5313,-10.34372 -15.38698,-16.66317c3.24246,-10.9849 0.54178,-22.82036 -7.42503,-30.64616c0.62403,-4.22547 2.07417,-8.0987 4.42241,-11.35c0,0 0.7654,-1.51525 2.37018,-3.68648c1.73835,2.28337 3.84162,4.33413 6.29783,6.06573c13.69115,9.65217 33.16231,5.73185 43.4901,-8.75631c1.42027,-1.99235 2.59361,-4.08084 3.52559,-6.22638c3.21046,1.57665 6.575,3.49266 10.09749,5.79281z" data-paper-data="{&quot;index&quot;:null}" fill="url(#color-12)"/><path d="M-20.17842,316.07996c-7.07675,-5.06347 -12.73505,-11.7248 -16.68804,-18.90671c3.02764,-2.0288 5.78813,-4.59749 8.12532,-7.67469c-0.0264,9.56875 4.23667,18.77718 12.35373,24.49965c13.69111,9.65217 33.16235,5.73185 43.49013,-8.75629c6.92384,-9.713 7.98041,-21.70987 3.79936,-31.47119c5.78493,-0.32972 11.53034,-2.28922 16.52069,-5.73437c3.35835,4.25467 5.61098,8.44795 6.9968,12.5291c-6.45061,2.13604 -12.39382,6.35464 -16.72729,12.43377c-7.67284,10.76369 -8.14038,24.33212 -2.25947,34.55478c-14.88504,5.69934 -39.19866,0.26909 -55.61111,-11.47405z" data-paper-data="{&quot;index&quot;:null}" fill="url(#color-13)"/><path d="M2.41116,256.2901c-9.12085,0.51995 -18.14344,5.09108 -24.26331,13.14886c0.02246,-8.11621 -3.04124,-15.97319 -8.92516,-21.66357c6.22408,-5.58186 16.3676,-11.0604 31.10478,-8.59834c-0.90917,5.88144 -0.18124,11.82523 2.08369,17.11306z" data-paper-data="{&quot;index&quot;:null}" fill="url(#color-14)"/><path d="M18.51561,273.46218c-0.35835,0.33081 -0.53482,2.94576 -0.66819,3.70612c-1.62689,9.27786 -4.47909,18.47272 -5.01514,27.81675c-0.05066,0.88271 2.73089,2.24703 3.81228,3.12862c6.62249,5.39883 12.54935,11.75524 19.8148,16.26134c0.9303,0.57696 2.06661,0.8933 3.36116,0.99032c-5.96332,3.80868 -14.41146,5.04938 -23.54846,4.22134c0.15435,-9.71883 -4.11387,-19.11384 -12.34981,-24.92007c-10.63124,-7.49494 -24.74763,-6.80624 -35.36195,0.65933c-7.50483,-9.44894 -11.75235,-20.82743 -11.90398,-30.98447c2.06997,4.57334 5.30755,8.62804 9.64624,11.68676c13.69115,9.65217 33.16233,5.73184 43.4901,-8.75631c2.56218,-3.59434 4.32095,-7.50147 5.30815,-11.49232c4.43576,1.21604 9.09719,1.36122 13.62963,0.50688c-4.33536,2.51924 -7.96,5.09391 -10.21488,7.17559z" data-paper-data="{&quot;index&quot;:null}" fill="url(#color-15)"/><path d="M27.21345,250.60971c42.67118,27.25823 28.71168,54.79318 17.77238,69.94005c-0.47551,0.65841 -0.99359,1.27922 -1.55127,1.86327c3.35078,-4.96334 5.37656,-11.28691 6.29665,-16.15358c0.09509,-0.50298 0.17981,-1.01079 0.25424,-1.52322c5.16133,-12.47317 2.24821,-26.74999 -7.6854,-35.26531c-5.33647,-9.60225 -12.93747,-17.63077 -21.66445,-21.34357c-15.05062,-6.40312 -27.98493,-12.99484 -43.4901,8.75631c-6.28189,8.81242 -5.41414,21.30968 -3.96759,31.69234c0.84323,6.05232 9.5854,7.74668 11.89212,13.31094c-1.34424,6.28849 -0.79153,12.73534 1.53447,18.453c-2.36957,-1.30557 -4.64331,-2.72904 -6.78274,-4.25986c-7.68953,-5.50183 -13.70424,-12.89034 -17.67634,-20.78326c0.28047,-0.36212 0.55501,-0.73146 0.82332,-1.10788c8.71829,-12.23024 8.13404,-28.08156 -0.49571,-38.53139c1.10219,-1.71466 3.09759,-4.46314 6.07112,-7.25895c9.11602,0.69721 18.55189,-2.76591 25.47753,-9.8195c8.97429,0.17599 19.97035,3.39769 33.19161,12.03103z" data-paper-data="{&quot;index&quot;:null}" fill="url(#color-16)"/></g><g data-paper-data="{&quot;index&quot;:null}"><path d="M8.83975,353.14567c0.67595,0.51711 2.43736,1.82126 4.4474,3.11749c2.61704,1.00161 5.56431,2.28801 8.05375,3.01937c4.07746,-2.30097 3.21549,-9.2934 10.76507,-6.87748c12.87559,4.12175 -0.58635,13.28539 -6.96478,14.18286c-8.40415,-0.2306 -15.72921,-6.07133 -22.69418,-10.38123c-9.59356,-5.93675 -19.7575,-10.8359 -28.27072,-17.76132c-0.59447,0.0378 -1.20403,-0.13138 -1.71353,-0.52183l-2.33054,-1.78653c-1.34715,-0.71282 -2.79909,-1.49979 -4.29534,-2.35846c-4.14298,-1.95536 -8.49627,-4.99567 -12.41563,-7.97637c-2.0888,-1.28055 -3.89651,-2.64316 -5.15364,-4.02784c-1.07392,-0.85083 -2.07355,-1.64192 -2.97852,-2.33476l-2.45692,-1.88283c-1.11889,-0.85763 -1.331,-2.45939 -0.47332,-3.57907c0.76359,-0.996 2.11652,-1.2734 3.19381,-0.71832l1.54035,0.75572c-0.12043,-0.93715 -0.13283,-1.8935 -0.02315,-2.86697l-1.26238,-0.35327l0.8846,-3.15439c0.08294,-0.32377 0.23091,-0.63704 0.44702,-0.91952c0.85763,-1.11889 2.4594,-1.33102 3.57908,-0.47332c0.34018,0.26055 0.59759,0.59078 0.76514,0.95458l1.18978,2.44286l-0.07204,0.03485l0.16297,0.17536c0.5732,2.0448 1.35554,3.90934 2.32077,5.57176c1.98651,1.96396 3.94025,4.17713 5.97748,6.38367c4.31497,2.7875 9.80994,3.58638 15.83263,1.88289c0,0 2.45787,-0.68911 3.14733,1.76862c0.68913,2.45787 -1.76864,3.14735 -1.76864,3.14735c-0.5242,0.14571 -1.04703,0.27647 -1.56712,0.39097l1.34839,0.62711c0.18292,0.08077 0.3605,0.18462 0.52657,0.31155c1.11889,0.85763 1.331,2.45939 0.47332,3.57907c-0.43409,0.56652 -1.05851,0.90055 -1.71518,0.98114c0.90163,0.82664 1.79663,1.5593 2.68357,2.04621c6.19519,3.40057 14.33222,10.12457 22.68255,15.73455c0.77356,-0.92336 2.07835,-1.16829 3.12314,-0.62952l2.79148,1.37045l-0.04438,0.09033l0.03404,0.01815z" fill="url(#color-17)" stroke="none" stroke-width="0.5"/><path d="M-59.18426,315.84605c-10.90602,-8.10964 -10.68277,-8.17963 -5.28807,-15.62519c5.39431,-7.44541 14.22959,-9.70112 19.73309,-5.03848c5.50332,4.66299 5.59077,14.47957 0.19609,21.92496c-5.39431,7.44545 -4.41422,6.34317 -14.64145,-1.2613z" data-paper-data="{&quot;index&quot;:null}" fill="url(#color-18)" stroke="#000000" stroke-width="0"/><path d="M-25.82092,328.36999c5.41568,-8.51976 17.60021,-10.47182 27.21446,-4.35936c9.61466,6.11154 13.01853,17.97287 7.60272,26.49212c-5.41569,8.51977 -5.34606,8.82263 -23.00174,-3.52757c-16.55648,-11.58093 -17.23072,-10.08494 -11.81521,-18.60494z" fill="url(#color-19)" stroke="#000000" stroke-width="0"/></g></g><g data-paper-data="{&quot;index&quot;:null}" stroke-width="0"><path d="M294.72218,399.95812c0,0 -9.41683,2.60817 -16.34674,1.57997c-5.9661,-0.88459 -9.1066,-5.42662 -14.25718,-5.43791c-2.55107,-0.00579 -9.51747,2.51646 -13.12708,2.62171c-4.77536,0.13895 -13.44016,3.86856 -18.41287,3.1592c-6.2213,-0.88678 -8.81206,-6.26697 -15.41093,-6.17634c-14.53055,0.1995 -28.8,4.01986 -28.8,4.01986c0,0 1.11399,-29.81294 -0.1972,-53.79c-1.27161,-23.26373 -4.96149,-40.46454 -5.51716,-56.1754c-0.62782,-17.75666 -0.48394,-65.32681 -0.48394,-65.32681c0,0 21.72426,-2.12502 32.11946,0.2511c9.85177,2.2524 28.70899,13.65354 28.70899,13.65354c0,0 24.60665,-11.7285 36.30975,-14.01141c9.19337,-1.79373 28.21364,1.42453 28.21364,1.42453c0,0 -0.03925,44.90658 -1.81256,69.04977c-0.94465,12.86311 -6.55024,29.8405 -8.57149,48.70113c-2.97476,27.75704 -2.41381,56.45789 -2.41381,56.45789z" fill="#d1b0b0" stroke="#292e32"/><path d="M189.6061,278.45897l0.28277,-26.90828l39.44353,-1.46317l-0.94123,30.03037z" fill="#f200ff" stroke="none"/><path d="M228.79555,267.217c-5.70093,-4.93481 -13.09998,-7.9728 -21.22859,-8.11176c-1.96355,-0.03357 -3.8903,0.10339 -5.76618,0.39718c2.72632,-2.47342 5.04269,-5.39345 6.83222,-8.64713l20.69945,-0.76782z" fill="#eeff00" stroke="none"/><path d="M195.9279,278.72934c1.21163,-3.35948 1.89967,-6.97254 1.96412,-10.74253c0.10265,-6.00583 -1.38994,-11.66769 -4.08716,-16.5814l25.87009,-0.95964c-8.94377,6.68024 -14.50435,17.50653 -14.20686,28.69167z" fill="#00ff5f" stroke="none"/><path d="M195.64873,278.71736c-0.60408,-2.00222 -1.3918,-3.92601 -2.34383,-5.75142c4.8529,-1.47712 9.24257,-4.03358 12.88397,-7.39396c3.87495,6.54599 9.92914,11.66143 17.18158,14.33114l-27.72174,-1.18576z" fill="#004fff" stroke="none"/><path d="M220.83774,279.79475c1.71925,-3.92352 2.70575,-8.24577 2.78355,-12.79665c0.10243,-5.99217 -1.38316,-11.64197 -4.06879,-16.54786l9.78,-0.36276l-0.94123,30.03043z" fill="#ff0000" stroke="none"/><path d="M189.77485,262.40881c3.26643,4.14278 7.49704,7.49525 12.36035,9.71437c0.38161,2.41201 1.02256,4.73956 1.8939,6.95266l-14.42288,-0.61693l0.16865,-16.05015z" fill="#00efff" stroke="none"/><path d="M207.37067,250.90221c-9.65968,5.51866 -16.31304,15.73888 -16.79144,27.59837l-0.97301,-0.04163l0.28275,-26.90829z" fill="#9c00ff" stroke="none"/></g><path d="M112.37938,262.19266c11.54491,-9.87392 31.05767,-26.8275 31.05767,-26.8275c0,0 23.49902,-34.47244 48.42623,-2.89407c3.9796,5.04144 -24.36164,29.67584 -24.36164,29.67584c0,0 -13.42841,12.11363 -24.28759,21.40043c-12.37367,10.34698 -41.32165,-10.93342 -30.83473,-21.35468z" fill="#b8bda6" stroke="#000000" stroke-width="0"/><path d="M53.07022,306.52212c0,0 15.07128,-5.41517 28.75124,-17.93056c3.28984,-3.00971 31.70495,-26.65976 35.05139,-29.79057c13.23781,-11.43692 30.20694,20.7043 17.44795,30.7443c-3.3362,2.69511 -34.31247,20.17999 -43.81647,26.29561c-15.82329,10.18224 -24.12955,18.27053 -24.12955,18.27053z" data-paper-data="{&quot;index&quot;:null}" fill="#b8bda6" stroke="#000000" stroke-width="0"/><path d="M67.51193,334.55462c-0.60584,-1.21248 -16.6803,10.22627 -19.55239,5.26168c-1.4127,-2.44187 10.78997,-6.91721 12.46284,-12.51227c0.8858,-2.96207 -17.91312,13.77357 -19.67488,6.15309c-0.6048,-2.61586 15.72091,-10.50453 17.9702,-15.05243c1.20377,-2.43459 -23.14419,14.74816 -24.53456,9.76796c-0.82502,-2.9565 14.64697,-9.17619 19.87155,-14.76585c2.54504,-2.72356 -18.51071,8.61492 -18.95117,4.68352c-0.26951,-2.40623 19.57569,-14.70552 19.67231,-15.04988c0.54369,-1.93505 -13.97522,1.49986 -11.98214,-1.7533c3.67264,-5.99538 13.24094,-4.78488 21.73907,-4.42762c4.96584,0.20914 10.36212,-2.85738 10.36212,-2.85738c0,0 7.62503,7.57808 9.85969,12.24167c2.1765,4.5406 3.37785,15.37972 3.37785,15.37972c0,0 -19.33722,15.49903 -20.61982,12.93099z" data-paper-data="{&quot;index&quot;:null}" fill="#786274" stroke="#000000" stroke-width="0"/><path d="M388.83305,351.22246c0,0 -7.81938,-8.16184 -22.59212,-19.26562c-8.87273,-6.66935 -39.88987,-28.14196 -43.01676,-30.94948c-14.57348,-13.06622 3.28858,-36.65162 14.71347,-25.0407c3.14722,3.18009 32.54138,31.09087 35.63406,34.15854c12.85963,12.75654 26.8284,19.69039 26.8284,19.69039z" data-paper-data="{&quot;index&quot;:null}" fill="#a3bda9" stroke="#000000" stroke-width="0"/><path d="M392.54974,357.27688c-1.29683,1.87431 -17.86109,-15.88706 -17.86109,-15.88706c0,0 1.67824,-8.9111 3.88748,-12.24506c2.26954,-3.42387 9.55362,-8.03686 9.55362,-8.03686c0,0 4.69155,3.88851 9.17477,4.89487c7.6736,1.72312 16.35814,2.97576 19.33652,8.93864c1.61621,3.23527 -11.27169,-3.13957 -10.88815,-1.36867c0.06862,0.31525 17.26574,15.48173 16.89109,17.45977c-0.61223,3.23141 -18.95381,-11.40846 -16.81089,-8.49133c4.39826,5.98887 17.99185,14.95398 17.08583,17.26602c-1.5258,3.89425 -22.51119,-16.48938 -21.56079,-14.13652c1.77567,4.39557 16.04643,14.9808 15.35791,17.05608c-2.00602,6.04658 -18.01747,-12.63523 -17.3822,-9.91078c1.19988,5.1459 11.9439,11.85231 10.53753,13.5876c-2.85914,3.52774 -16.70818,-10.00951 -17.32055,-9.12505z" data-paper-data="{&quot;index&quot;:null}" fill="#6c7378" stroke="#000000" stroke-width="0"/></g></g></svg>