<svg version="1.1" xmlns="http://www.w3.org/2000/svg" xmlns:xlink="http://www.w3.org/1999/xlink" width="44.15782" height="104.89938" viewBox="0,0,44.15782,104.89938"><defs><radialGradient cx="238.52449" cy="177.75476" r="22.57159" gradientUnits="userSpaceOnUse" id="color-1"><stop offset="0" stop-color="#3c3c3c"/><stop offset="1" stop-color="#939393"/></radialGradient><linearGradient x1="239.74788" y1="156.06832" x2="239.74788" y2="162.91937" gradientUnits="userSpaceOnUse" id="color-2"><stop offset="0" stop-color="#696969"/><stop offset="1" stop-color="#a0a0a0"/></linearGradient><radialGradient cx="235.71183" cy="133.41612" r="13.11833" gradientUnits="userSpaceOnUse" id="color-3"><stop offset="0" stop-color="#dcdcdc"/><stop offset="1" stop-color="#a0a0a0"/></radialGradient><radialGradient cx="240.03559" cy="142.12639" r="9.85359" gradientUnits="userSpaceOnUse" id="color-4"><stop offset="0" stop-color="#c5dfff"/><stop offset="1" stop-color="#219cff"/></radialGradient><radialGradient cx="230.76045" cy="135.29438" r="10.07074" gradientUnits="userSpaceOnUse" id="color-5"><stop offset="0" stop-color="#303030"/><stop offset="1" stop-color="#292929"/></radialGradient><radialGradient cx="247.18855" cy="132.11453" r="2.65078" gradientUnits="userSpaceOnUse" id="color-6"><stop offset="0" stop-color="#787878"/><stop offset="1" stop-color="#292929"/></radialGradient><radialGradient cx="236.03625" cy="134.27956" r="4.17314" gradientUnits="userSpaceOnUse" id="color-7"><stop offset="0" stop-color="#a7a7a7"/><stop offset="1" stop-color="#292929"/></radialGradient></defs><g transform="translate(-217.79209,-129.64767)"><g data-paper-data="{&quot;isPaintingLayer&quot;:true}" fill-rule="nonzero" stroke-linejoin="miter" stroke-miterlimit="10" stroke-dasharray="" stroke-dashoffset="0" style="mix-blend-mode: normal"><path d="M223.5568,200.32636v-45.14319h29.93538v45.14319z" fill="url(#color-1)" stroke="#ed6b00" stroke-width="0" stroke-linecap="butt"/><g stroke="#000000" stroke-width="0" stroke-linecap="butt"><path d="M254.84352,188.80893c0,0 0.25455,-3.01101 -0.56705,-6.42321c-0.19757,-0.82055 -0.67022,-3.53875 -0.88082,-4.37967c-0.49838,-1.99023 -1.05793,-3.94611 -1.33592,-5.17379c-0.59797,-2.64052 -1.28393,-6.00244 -1.28393,-6.00244c0,0 -1.19149,-6.61876 -0.22445,-6.96823c5.65559,-2.04381 5.5859,5.54099 5.5859,5.54099c0,0 1.05192,4.78546 1.68766,7.59286c0.25875,1.14254 -0.09362,2.12925 0.24322,3.9142c0.151,0.80015 0.3484,4.31476 0.56194,6.45481c0.35552,3.56312 0.9222,5.67865 0.9222,5.67865z" data-paper-data="{&quot;index&quot;:null}" fill="#bdbdbd"/><path d="M259.99383,193.54762c-0.20832,-0.00616 0.31184,3.71013 -0.56713,3.75077c-0.43232,0.01998 -0.24372,-2.42687 -0.90866,-3.20542c-0.35197,-0.41211 0.72214,4.23268 -0.45156,3.85067c-0.40295,-0.13115 -0.41411,-3.5739 -0.89569,-4.356c-0.25781,-0.41867 0.51031,5.19763 -0.27261,4.9881c-0.46478,-0.12436 -0.30116,-3.27534 -0.72985,-4.64972c-0.20885,-0.66956 -0.03293,3.87423 -0.60741,3.5985c-0.35165,-0.16879 -0.74117,-4.59469 -0.78249,-4.64156c-0.23226,-0.26341 -0.71886,2.47978 -1.03785,1.85585c-0.58789,-1.14989 0.21471,-2.64871 0.82786,-4.04378c0.35825,-0.81509 0.29094,-1.99386 0.29094,-1.99386c0,0 1.55677,-0.60616 2.35175,-0.56663c0.77406,0.0385 2.35701,0.80082 2.35701,0.80082c0,0 0.86699,4.62523 0.42568,4.61219z" data-paper-data="{&quot;index&quot;:null}" fill="#777777"/></g><g><path d="M246.85401,227.41084c0,0 -2.49152,-25.67945 -3.53651,-30.04574c-0.3417,-1.42772 -3.43498,-1.43888 -3.43498,-1.43888c0,0 -3.12731,-4.16738 0.50028,-4.25787c3.06587,-0.07647 9.87337,1.93707 9.87337,1.93707l4.59847,33.60586z" data-paper-data="{&quot;index&quot;:null}" fill="#494949" stroke="#000000" stroke-width="0" stroke-linecap="butt"/><path d="M260.78609,234.07056c-0.59258,0.01478 -2.64295,0.07958 -4.70457,0.05043c-1.25341,-0.01772 -1.91696,-0.57017 -2.85362,-0.68969c-1.17919,-0.15046 -2.93213,0.29368 -3.78588,0.1234c-1.57316,-0.31375 -2.39329,-0.71836 -2.39329,-0.71836c0,0 -0.2946,-1.01837 -0.32505,-1.57819c-0.04103,-0.75422 0.10102,-2.54032 0.10102,-2.54032c0,0 5.92942,-0.26751 8.24859,-0.12497c1.37232,0.08435 4.25538,0.54086 4.25538,0.54086c0,0 1.47466,0.57901 1.69885,1.00078c0.27459,0.51656 0.92239,1.96626 0.92239,1.96626c0,0 -0.3372,1.94916 -1.16383,1.96978z" data-paper-data="{&quot;index&quot;:null}" fill="#141415" stroke="#000000" stroke-width="0" stroke-linecap="butt"/><path d="M260.45107,231.5033c-0.24814,0.00619 0.74212,1.58364 -2.58405,1.39798c-3.14098,-0.17531 -2.80525,-1.11863 -3.91133,-1.17166c-2.31285,-0.1109 -2.57201,0.65937 -3.57518,0.53137c-0.34937,-0.04458 -0.51541,-0.10172 -1.80823,-0.92555c-0.88912,-0.56657 -0.70912,-1.73408 -1.32436,-2.34701c-0.8987,-0.89532 -0.85524,-1.86505 -0.85524,-1.86505l-0.15234,-3.04488c0,0 0.54123,2.194 1.40046,2.99723c0.76878,0.71866 2.31571,-0.07652 2.79924,-0.08872c0.84669,-0.02136 -0.77013,-3.24985 0.03983,-3.2518c0.43553,-0.00105 3.71576,-0.32685 3.71576,-0.32685c0,0 0.21225,3.57571 0.44564,3.59005c1.37232,0.08435 4.61904,0.53178 4.61904,0.53178c0,0 1.47466,0.57901 1.69886,1.00078c0.27459,0.51656 0.70413,2.94209 0.70413,2.94209c0,0 -0.38558,0.00962 -1.21222,0.03024z" data-paper-data="{&quot;index&quot;:null}" fill="#252527" stroke="#000000" stroke-width="0" stroke-linecap="butt"/><path d="M255.54968,227.59438l-2.63966,1.15751" fill="none" stroke="#ffffff" stroke-width="0.5" stroke-linecap="round"/><path d="M257.36802,227.54902l-2.50937,1.51816" fill="none" stroke="#ffffff" stroke-width="0.5" stroke-linecap="round"/><path d="M258.46506,227.76425l-1.41838,1.49094" fill="none" stroke="#ffffff" stroke-width="0.5" stroke-linecap="round"/><path d="M253.77699,224.60617l-2.17593,0.29687" fill="none" stroke="#969696" stroke-width="0.5" stroke-linecap="round"/><path d="M252.10711,225.7395l1.93048,-0.41205" fill="none" stroke="#969696" stroke-width="0.5" stroke-linecap="round"/></g><g><path d="M224.6734,226.81351l5.52333,-33.46629c0,0 6.86044,-1.82508 9.92303,-1.6641c3.62372,0.19047 0.38269,4.27004 0.38269,4.27004c0,0 -3.09241,-0.07414 -3.47335,1.34362c-1.16499,4.33582 -4.36361,29.9368 -4.36361,29.9368z" fill="#494949" stroke="#000000" stroke-width="0" stroke-linecap="butt"/><path d="M239.80336,232.6725c0,0 -0.48701,1.91723 -1.31277,1.87382c-0.59194,-0.03111 -2.64118,-0.12515 -4.69436,-0.31373c-1.24828,-0.11465 -1.8671,-0.71678 -2.79169,-0.90842c-1.16401,-0.24126 -2.94605,0.06592 -3.78407,-0.1699c-1.54417,-0.43453 -2.33053,-0.90138 -2.33053,-0.90138c0,0 -0.21493,-1.0381 -0.20197,-1.59861c0.01745,-0.75512 0.29727,-2.52489 0.29727,-2.52489c0,0 5.93234,0.19209 8.23353,0.51364c1.36168,0.19028 4.20077,0.8685 4.20077,0.8685c0,0 1.42542,0.69137 1.61632,1.12923c0.23379,0.53626 0.76748,2.03175 0.76748,2.03175z" data-paper-data="{&quot;index&quot;:null}" fill="#141415" stroke="#000000" stroke-width="0" stroke-linecap="butt"/><path d="M239.56614,232.02451c0,0 -0.38516,-0.02025 -1.21092,-0.06365c-0.24788,-0.01303 0.61735,1.63631 -2.68448,1.19385c-3.118,-0.41783 -2.71028,-1.33233 -3.80895,-1.47079c-2.29734,-0.28953 -2.61533,0.45838 -3.60559,0.25313c-0.34487,-0.07148 -0.50599,-0.14129 -1.73119,-1.06269c-0.84261,-0.63367 -0.57282,-1.78375 -1.13878,-2.44244c-0.82672,-0.96218 -0.70837,-1.92564 -0.70837,-1.92564l0.08371,-3.04754c0,0 0.36984,2.22931 1.16435,3.09662c0.71087,0.77599 2.31469,0.10289 2.79771,0.12814c0.84579,0.04422 -0.51636,-3.2997 0.29133,-3.23898c0.4343,0.03265 3.7299,-0.03835 3.7299,-0.03835c0,0 -0.06506,3.5814 0.16652,3.61376c1.36167,0.19028 4.56404,0.88759 4.56404,0.88759c0,0 1.42542,0.69137 1.61632,1.12923c0.2338,0.53626 0.47437,2.98775 0.47437,2.98775z" data-paper-data="{&quot;index&quot;:null}" fill="#252527" stroke="#000000" stroke-width="0" stroke-linecap="butt"/><path d="M233.77099,227.68438l-2.72132,0.94981" fill="none" stroke="#ffffff" stroke-width="0.5" stroke-linecap="round"/><path d="M232.96805,229.09931l2.61931,-1.31944" fill="none" stroke="#ffffff" stroke-width="0.5" stroke-linecap="round"/><path d="M235.13497,229.45607l1.52949,-1.37673" fill="none" stroke="#ffffff" stroke-width="0.5" stroke-linecap="round"/><path d="M230.04242,224.6956l2.19239,-0.12762" fill="none" stroke="#969696" stroke-width="0.5" stroke-linecap="round"/><path d="M230.48224,225.5687l1.95657,-0.26144" fill="none" stroke="#969696" stroke-width="0.5" stroke-linecap="round"/></g><path d="M235.9198,162.91937v-6.85104h7.65615v6.85104z" fill="url(#color-2)" stroke="#000000" stroke-width="0" stroke-linecap="butt"/><path d="M252.80945,143.64573c0,7.73092 -5.73774,13.99807 -12.8156,13.99807c-7.07786,0 -12.8156,-6.26715 -12.8156,-13.99807c0,-7.73092 5.73774,-13.99806 12.8156,-13.99806c7.07786,0 12.8156,6.26714 12.8156,13.99806z" fill="url(#color-3)" stroke="none" stroke-width="0" stroke-linecap="butt"/><path d="M229.6398,193.59141c0,0 0.16709,-5.5597 -0.35268,-10.94382c-0.35317,-3.65847 -1.40473,-6.95919 -1.56162,-9.45339c-0.29447,-4.68133 -0.2105,-13.38223 -0.2105,-13.38223c0,0 3.69178,-0.58477 5.4694,-0.21857c2.26281,0.46615 7.00656,2.78867 7.00656,2.78867c0,0 3.67689,-2.17061 5.59031,-2.58687c2.01891,-0.43921 6.22369,0.01677 6.22369,0.01677c0,0 -0.06905,9.21711 -0.22689,12.65629c-0.13965,3.04285 -0.88957,6.36811 -1.18346,10.87293c-0.3029,4.64296 -0.14784,10.42155 -0.14784,10.42155c0,0 -2.75697,-0.76932 -5.57187,-0.83754c-1.27833,-0.03098 -1.79126,1.00612 -2.99851,1.16532c-0.96496,0.12724 -2.63623,-0.61291 -3.56107,-0.64966c-0.69915,-0.02778 -2.04377,-0.5306 -2.53801,-0.53471c-0.99795,-0.0083 -1.61572,0.86529 -2.77345,1.02464c-1.34484,0.1851 -3.1641,-0.33939 -3.1641,-0.33939z" fill="#d0d0d0" stroke="#292e32" stroke-width="0" stroke-linecap="butt"/><path d="M242.7359,170.5071l-0.12126,-5.82045l7.63934,0.36378v5.21415z" fill="#f200ff" stroke="none" stroke-width="0" stroke-linecap="butt"/><g stroke="#000000" stroke-width="0" stroke-linecap="butt"><path d="M218.28811,189.63175c0,0 0.60809,-2.12089 0.89025,-5.69058c0.16947,-2.144 0.25789,-5.66448 0.40942,-6.46639c0.33802,-1.78891 -0.14234,-2.77561 0.12746,-3.92085c0.6629,-2.81404 1.75354,-7.61065 1.75354,-7.61065c0,0 -0.2665,-7.93492 7.11101,-5.88778c1.17776,0.32681 -0.4052,7.29535 -0.4052,7.29535c0,0 -0.70049,3.36952 -1.324,6.01629c-0.2899,1.23058 -0.8962,3.19153 -1.42526,5.18667c-0.22353,0.84299 -0.68835,3.56702 -0.89668,4.38953c-0.86631,3.42045 -0.41716,6.43477 -0.41716,6.43477z" fill="#bdbdbd"/><path d="M217.97406,194.37079c-0.54612,0.01619 0.31107,-4.62135 0.31107,-4.62135c0,0 1.92541,-0.77459 2.88257,-0.81865c0.98307,-0.04525 2.94019,0.55065 2.94019,0.55065c0,0 -0.0281,1.18082 0.45396,1.99443c0.82508,1.39257 1.88973,2.88765 1.21529,4.04328c-0.36593,0.62704 -1.09744,-2.11636 -1.37283,-1.85093c-0.049,0.04723 -0.324,4.48179 -0.75174,4.6533c-0.69878,0.28016 -0.69393,-4.27091 -0.92128,-3.59898c-0.46666,1.37926 -0.11619,4.53324 -0.68616,4.66108c-0.96016,0.21536 -0.27192,-5.41386 -0.57168,-4.99281c-0.55995,0.78655 -0.41232,4.23396 -0.90539,4.36814c-1.43621,0.39085 -0.3233,-4.26773 -0.74003,-3.85258c-0.7873,0.78431 -0.43888,3.23308 -0.97543,3.21613c-1.09088,-0.03445 -0.62073,-3.75937 -0.87853,-3.75174z" data-paper-data="{&quot;index&quot;:null}" fill="#777777"/></g><g stroke-linecap="butt"><path d="M252.83393,144.85205c0,3.74486 0.0384,8.21376 -9.59547,8.69146c-10.76272,0.53367 -10.10384,-4.9466 -10.10384,-8.69146c0,-3.74486 4.40985,-6.78067 9.84967,-6.78067c5.43982,0 9.84967,3.03581 9.84967,6.78067z" data-paper-data="{&quot;index&quot;:null}" fill="url(#color-4)" stroke="#ed6b00" stroke-width="0"/><path d="M233.45085,135.30391c-0.16984,0.01553 -0.60661,0.06221 -1.07903,0.1438c-0.52185,0.20742 -1.13106,0.41772 -1.59752,0.64771c-0.28909,0.89276 0.78709,1.80702 -0.65422,2.4752c-2.45813,1.13958 -1.71655,-2.03888 -0.89769,-3.03685c1.27069,-1.10653 3.14359,-1.2394 4.75566,-1.549c2.22048,-0.42645 4.38435,-1.08334 6.57971,-1.21737c0.08249,-0.08622 0.19535,-0.14411 0.32353,-0.15569l0.58612,-0.0529c0.29539,-0.07774 0.61637,-0.15861 0.95355,-0.23507c0.87645,-0.27394 1.93099,-0.41625 2.91353,-0.50866c0.4818,-0.09462 0.9333,-0.1389 1.30669,-0.10536c0.27388,-0.02025 0.5286,-0.03932 0.7561,-0.05986l0.61787,-0.05577c0.28142,-0.0254 0.53014,0.18214 0.55554,0.46356c0.0226,0.25047 -0.13931,0.47504 -0.37361,0.53931l-0.32968,0.09745c0.145,0.12181 0.27656,0.26112 0.39244,0.4197l0.23414,-0.11908l0.29765,0.58522c0.03177,0.05903 0.05238,0.12532 0.05879,0.19629c0.0254,0.28142 -0.18214,0.53014 -0.46355,0.55553c-0.08558,0.00772 -0.16814,-0.00609 -0.24232,-0.03698l-0.50702,-0.19878l0.00585,-0.01492l-0.04787,-0.00377c-0.36209,-0.22374 -0.73047,-0.39249 -1.09838,-0.50678c-0.55947,-0.02006 -1.148,-0.08122 -1.74789,-0.1302c-1.01464,0.1745 -1.9334,0.80247 -2.5904,1.87097c0,0 -0.26893,0.43524 -0.70416,0.1663c-0.43523,-0.26893 -0.1663,-0.70417 -0.1663,-0.70417c0.0575,-0.09265 0.11686,-0.18277 0.17799,-0.27034l-0.28392,0.09053c-0.03801,0.01299 -0.07817,0.02169 -0.11996,0.02546c-0.28142,0.0254 -0.53014,-0.18214 -0.55553,-0.46356c-0.01286,-0.14243 0.03395,-0.27647 0.11981,-0.37743c-0.2451,0.00049 -0.4766,0.01384 -0.6735,0.06241c-1.37524,0.33924 -3.48763,0.45199 -5.48058,0.75785c0.01121,0.24126 -0.14794,0.45435 -0.37516,0.51668l-0.59763,0.17665l-0.00571,-0.01931l-0.00747,0.00194z" fill="url(#color-5)" stroke="none" stroke-width="0.5"/><path d="M248.54489,131.57288c2.70896,-0.28418 2.68558,-0.24349 2.90043,1.58673c0.21485,1.83022 -0.78194,3.36186 -2.22639,3.42102c-1.44446,0.05917 -2.7896,-1.37656 -3.00445,-3.20678c-0.21485,-1.83022 -0.20983,-1.53449 2.33041,-1.80097z" data-paper-data="{&quot;index&quot;:null}" fill="url(#color-6)" stroke="#000000" stroke-width="0"/><path d="M241.92487,134.25374c0.35755,1.99142 -1.17444,3.9329 -3.4218,4.33639c-2.24735,0.40349 -4.35904,-0.88377 -4.71659,-2.8752c-0.35755,-1.99142 -0.40888,-2.02662 3.87102,-2.60142c4.01334,-0.53901 3.90982,-0.85119 4.26737,1.14023z" fill="url(#color-7)" stroke="#000000" stroke-width="0"/></g></g></g></svg>