<svg version="1.1" xmlns="http://www.w3.org/2000/svg" xmlns:xlink="http://www.w3.org/1999/xlink" width="192.28625" height="177.47528" viewBox="0,0,192.28625,177.47528"><defs><radialGradient cx="280.06247" cy="237.95935" r="38.33033" gradientUnits="userSpaceOnUse" id="color-1"><stop offset="0" stop-color="#696969"/><stop offset="1" stop-color="#0a0a0a"/></radialGradient><linearGradient x1="280.06247" y1="200.34215" x2="280.06247" y2="275.57656" gradientUnits="userSpaceOnUse" id="color-2"><stop offset="0" stop-color="#636363"/><stop offset="1" stop-color="#424242"/></linearGradient><linearGradient x1="280.63485" y1="270.39892" x2="280.63485" y2="272.06942" gradientUnits="userSpaceOnUse" id="color-3"><stop offset="0" stop-color="#6a736a"/><stop offset="1" stop-color="#4d524c"/></linearGradient><linearGradient x1="280.63485" y1="270.39892" x2="280.63485" y2="272.06942" gradientUnits="userSpaceOnUse" id="color-4"><stop offset="0" stop-color="#131313"/><stop offset="1" stop-color="#080808"/></linearGradient><linearGradient x1="270.81844" y1="236.08255" x2="274.64896" y2="236.08255" gradientUnits="userSpaceOnUse" id="color-5"><stop offset="0" stop-color="#272727"/><stop offset="1" stop-color="#101010"/></linearGradient><linearGradient x1="278.74436" y1="236.00944" x2="274.91384" y2="236.00944" gradientUnits="userSpaceOnUse" id="color-6"><stop offset="0" stop-color="#101010"/><stop offset="1" stop-color="#272727"/></linearGradient><linearGradient x1="274.48891" y1="236.27812" x2="275.06805" y2="236.27812" gradientUnits="userSpaceOnUse" id="color-7"><stop offset="0" stop-color="#272727"/><stop offset="1" stop-color="#101010"/></linearGradient><linearGradient x1="257.61692" y1="257.38337" x2="292.07533" y2="257.38337" gradientUnits="userSpaceOnUse" id="color-8"><stop offset="0" stop-color="#494949"/><stop offset="1" stop-color="#343434"/></linearGradient><linearGradient x1="257.61692" y1="266.11863" x2="292.07533" y2="266.11863" gradientUnits="userSpaceOnUse" id="color-9"><stop offset="0" stop-color="#abff96"/><stop offset="1" stop-color="#4cc500"/></linearGradient><linearGradient x1="257.61692" y1="234.84545" x2="292.07533" y2="234.84545" gradientUnits="userSpaceOnUse" id="color-10"><stop offset="0" stop-color="#828282"/><stop offset="1" stop-color="#464646"/></linearGradient><radialGradient cx="273.06046" cy="260.85013" r="6.75655" gradientUnits="userSpaceOnUse" id="color-11"><stop offset="0" stop-color="#afbfc9"/><stop offset="1" stop-color="#5e8097"/></radialGradient><radialGradient cx="272.17246" cy="256.98495" r="6.75655" gradientUnits="userSpaceOnUse" id="color-12"><stop offset="0" stop-color="#515e74"/><stop offset="1" stop-color="#36434d"/></radialGradient><linearGradient x1="257.61692" y1="248.35855" x2="292.07533" y2="248.35855" gradientUnits="userSpaceOnUse" id="color-13"><stop offset="0" stop-color="#abff96"/><stop offset="1" stop-color="#4cc500"/></linearGradient><radialGradient cx="264.21351" cy="248.30224" r="6.75655" gradientUnits="userSpaceOnUse" id="color-14"><stop offset="0" stop-color="#bdf5ff"/><stop offset="1" stop-color="#0099ff"/></radialGradient><radialGradient cx="279.65705" cy="248.30224" r="6.75655" gradientUnits="userSpaceOnUse" id="color-15"><stop offset="0" stop-color="#bdf5ff"/><stop offset="1" stop-color="#0099ff"/></radialGradient><radialGradient cx="277.32031" cy="263.70932" r="0.72392" gradientUnits="userSpaceOnUse" id="color-16"><stop offset="0" stop-color="#57657c"/><stop offset="1" stop-color="#36434d"/></radialGradient><linearGradient x1="274.94353" y1="203.73029" x2="274.94353" y2="217.79985" gradientUnits="userSpaceOnUse" id="color-17"><stop offset="0" stop-color="#00ff18" stop-opacity="0"/><stop offset="1" stop-color="#00ff18" stop-opacity="0.35996"/></linearGradient><radialGradient cx="269.63768" cy="219.55854" r="17.45166" gradientUnits="userSpaceOnUse" id="color-18"><stop offset="0" stop-color="#87859e"/><stop offset="1" stop-color="#595761"/></radialGradient><linearGradient x1="257.32682" y1="223.3465" x2="292.09485" y2="223.3465" gradientUnits="userSpaceOnUse" id="color-19"><stop offset="0" stop-color="#272727"/><stop offset="1" stop-color="#101010"/></linearGradient><linearGradient x1="270.81844" y1="223.20091" x2="274.64897" y2="223.20091" gradientUnits="userSpaceOnUse" id="color-20"><stop offset="0" stop-color="#272727"/><stop offset="1" stop-color="#101010"/></linearGradient><linearGradient x1="278.74436" y1="222.96548" x2="274.91384" y2="222.96548" gradientUnits="userSpaceOnUse" id="color-21"><stop offset="0" stop-color="#101010"/><stop offset="1" stop-color="#272727"/></linearGradient><linearGradient x1="274.48891" y1="223.83069" x2="275.06805" y2="223.83069" gradientUnits="userSpaceOnUse" id="color-22"><stop offset="0" stop-color="#272727"/><stop offset="1" stop-color="#101010"/></linearGradient><radialGradient cx="265.14739" cy="223.62101" r="18.58686" gradientUnits="userSpaceOnUse" id="color-23"><stop offset="0" stop-color="#a9a7c7"/><stop offset="1" stop-color="#878593"/></radialGradient><linearGradient x1="256.31758" y1="224.80914" x2="293.37467" y2="224.80914" gradientUnits="userSpaceOnUse" id="color-24"><stop offset="0" stop-color="#272727"/><stop offset="1" stop-color="#101010"/></linearGradient><radialGradient cx="274.87478" cy="217.29888" r="1.19001" gradientUnits="userSpaceOnUse" id="color-25"><stop offset="0" stop-color="#c4c4c4"/><stop offset="1" stop-color="#a4a4a4"/></radialGradient><linearGradient x1="273.72083" y1="217.29888" x2="276.02873" y2="217.29888" gradientUnits="userSpaceOnUse" id="color-26"><stop offset="0" stop-color="#272727"/><stop offset="1" stop-color="#101010"/></linearGradient><radialGradient cx="275.01465" cy="217.33384" r="4.02134" gradientUnits="userSpaceOnUse" id="color-27"><stop offset="0" stop-color="#5aff3d"/><stop offset="1" stop-color="#0ce800" stop-opacity="0.01999"/></radialGradient><linearGradient x1="270.99332" y1="217.33384" x2="279.03599" y2="217.33384" gradientUnits="userSpaceOnUse" id="color-28"><stop offset="0" stop-color="#000000" stop-opacity="0"/><stop offset="1" stop-color="#000000" stop-opacity="0"/></linearGradient><radialGradient cx="275.06376" cy="217.32457" r="2.69255" gradientUnits="userSpaceOnUse" id="color-29"><stop offset="0" stop-color="#6bff6b"/><stop offset="1" stop-color="#01e800" stop-opacity="0.10996"/></radialGradient><linearGradient x1="272.37121" y1="217.32457" x2="277.75631" y2="217.32457" gradientUnits="userSpaceOnUse" id="color-30"><stop offset="0" stop-color="#000000" stop-opacity="0"/><stop offset="1" stop-color="#000000" stop-opacity="0"/></linearGradient><radialGradient cx="275.02113" cy="217.35954" r="1.81068" gradientUnits="userSpaceOnUse" id="color-31"><stop offset="0" stop-color="#b4ffb0"/><stop offset="1" stop-color="#00e816" stop-opacity="0.30998"/></radialGradient><linearGradient x1="273.21045" y1="217.35954" x2="276.8318" y2="217.35954" gradientUnits="userSpaceOnUse" id="color-32"><stop offset="0" stop-color="#000000" stop-opacity="0"/><stop offset="1" stop-color="#000000" stop-opacity="0"/></linearGradient><radialGradient cx="299.97847" cy="256.08882" r="9.19539" gradientUnits="userSpaceOnUse" id="color-33"><stop offset="0" stop-color="#b1ffa3"/><stop offset="1" stop-color="#44b844"/></radialGradient><linearGradient x1="301.00898" y1="251.74117" x2="301.00898" y2="268.837" gradientUnits="userSpaceOnUse" id="color-34"><stop offset="0" stop-color="#464646"/><stop offset="1" stop-color="#353535"/></linearGradient><radialGradient cx="294.2127" cy="256.0217" r="9.19539" gradientUnits="userSpaceOnUse" id="color-35"><stop offset="0" stop-color="#b1ffa3"/><stop offset="1" stop-color="#44b844"/></radialGradient><linearGradient x1="295.24322" y1="251.67405" x2="295.24322" y2="268.76988" gradientUnits="userSpaceOnUse" id="color-36"><stop offset="0" stop-color="#464646"/><stop offset="1" stop-color="#353535"/></linearGradient><linearGradient x1="292.17553" y1="255.01959" x2="304.22821" y2="255.01959" gradientUnits="userSpaceOnUse" id="color-37"><stop offset="0" stop-color="#404f43"/><stop offset="1" stop-color="#2e362e"/></linearGradient><linearGradient x1="298.20187" y1="254.15215" x2="298.20187" y2="255.88701" gradientUnits="userSpaceOnUse" id="color-38"><stop offset="0" stop-color="#222b22"/><stop offset="1" stop-color="#1a241c"/></linearGradient><linearGradient x1="292.17553" y1="264.60694" x2="304.22821" y2="264.60694" gradientUnits="userSpaceOnUse" id="color-39"><stop offset="0" stop-color="#404f43"/><stop offset="1" stop-color="#2e362e"/></linearGradient><linearGradient x1="298.20187" y1="263.73952" x2="298.20187" y2="265.47437" gradientUnits="userSpaceOnUse" id="color-40"><stop offset="0" stop-color="#222b22"/><stop offset="1" stop-color="#1a241c"/></linearGradient></defs><g transform="translate(-239.7193,-160.0288)"><g data-paper-data="{&quot;isPaintingLayer&quot;:true}" fill-rule="nonzero" stroke-linejoin="miter" stroke-miterlimit="10" stroke-dasharray="" stroke-dashoffset="0" style="mix-blend-mode: normal"><text transform="translate(240.03135,187.4892) scale(0.6241,0.6241)" font-size="40" xml:space="preserve" fill="#ffffff" fill-rule="nonzero" stroke="none" stroke-width="1" stroke-linecap="butt" stroke-linejoin="miter" stroke-miterlimit="10" stroke-dasharray="" stroke-dashoffset="0" font-family="Malgun Gothic" font-weight="normal" text-anchor="start" style="mix-blend-mode: normal"><tspan x="0" dy="0">Research Site</tspan></text><text transform="translate(324.45435,215.62294) scale(0.45565,0.45565)" font-size="40" xml:space="preserve" fill="#d8d8d8" fill-rule="nonzero" stroke="none" stroke-width="1" stroke-linecap="butt" stroke-linejoin="miter" stroke-miterlimit="10" stroke-dasharray="" stroke-dashoffset="0" font-family="Malgun Gothic" font-weight="normal" text-anchor="start" style="mix-blend-mode: normal"><tspan x="0" dy="0">Obtained by:</tspan></text><text transform="translate(324.45435,256.62748) scale(0.45566,0.45566)" font-size="40" xml:space="preserve" fill="#d8d8d8" fill-rule="nonzero" stroke="none" stroke-width="1" stroke-linecap="butt" stroke-linejoin="miter" stroke-miterlimit="10" stroke-dasharray="" stroke-dashoffset="0" font-family="Malgun Gothic" font-weight="normal" text-anchor="start" style="mix-blend-mode: normal"><tspan x="0" dy="0">Materials:</tspan></text><text transform="translate(241.38373,296.92705) scale(0.45566,0.45566)" font-size="40" xml:space="preserve" fill="#d8d8d8" fill-rule="nonzero" stroke="none" stroke-width="1" stroke-linecap="butt" stroke-linejoin="miter" stroke-miterlimit="10" stroke-dasharray="" stroke-dashoffset="0" font-family="Malgun Gothic" font-weight="normal" text-anchor="start" style="mix-blend-mode: normal"><tspan x="0" dy="0">Description:</tspan></text><text transform="translate(325.17562,233.72207) scale(0.37382,0.37382)" font-size="40" xml:space="preserve" fill="#9f9f9f" fill-rule="nonzero" stroke="none" stroke-width="1" stroke-linecap="butt" stroke-linejoin="miter" stroke-miterlimit="10" stroke-dasharray="" stroke-dashoffset="0" font-family="Malgun Gothic" font-weight="normal" text-anchor="start" style="mix-blend-mode: normal"><tspan x="0" dy="0">Factory</tspan></text><text transform="translate(325.17562,275.43973) scale(0.37383,0.37383)" font-size="40" xml:space="preserve" fill="#9f9f9f" fill-rule="nonzero" stroke="none" stroke-width="1" stroke-linecap="butt" stroke-linejoin="miter" stroke-miterlimit="10" stroke-dasharray="" stroke-dashoffset="0" font-family="Malgun Gothic" font-weight="normal" text-anchor="start" style="mix-blend-mode: normal"><tspan x="0" dy="0">Stone (x35)</tspan></text><path d="M241.73214,275.57656v-75.23442h76.66066v75.23442z" fill="url(#color-1)" stroke="url(#color-2)" stroke-width="3.5" stroke-linecap="butt"/><text transform="translate(241.64328,315.44811) scale(0.37383,0.37383)" font-size="40" xml:space="preserve" fill="#9f9f9f" fill-rule="nonzero" stroke="none" stroke-width="1" stroke-linecap="butt" stroke-linejoin="miter" stroke-miterlimit="10" stroke-dasharray="" stroke-dashoffset="0" font-family="Malgun Gothic" font-weight="normal" text-anchor="start" style="mix-blend-mode: normal"><tspan x="0" dy="0">Generates research with no</tspan><tspan x="0" dy="48px">other cost to you.</tspan></text><g><path d="M257.22099,272.06942v-1.67051h46.82773v1.67051z" fill="url(#color-3)" stroke="url(#color-4)" stroke-width="0.5" stroke-linecap="butt"/><path d="M274.64896,234.0828l-3.83052,3.99951" fill="none" stroke="url(#color-5)" stroke-width="0.5" stroke-linecap="round"/><path d="M274.91384,234.00969l3.83052,3.99951" data-paper-data="{&quot;index&quot;:null}" fill="none" stroke="url(#color-6)" stroke-width="0.5" stroke-linecap="round"/><path d="M274.77848,238.10445v-3.65267" fill="none" stroke="url(#color-7)" stroke-width="0.5" stroke-linecap="round"/><path d="M257.61692,270.36561v-25.96446h34.45841v25.96446z" fill="url(#color-8)" stroke="#000000" stroke-width="0.5" stroke-linecap="butt"/><path d="M257.61692,267.18037v-2.12349h34.45841v2.12349z" fill="url(#color-9)" stroke="#000000" stroke-width="0.5" stroke-linecap="butt"/><path d="M257.61692,244.30462l13.5131,-6.27394h7.43221l13.5131,6.27394z" fill="url(#color-10)" stroke="#000000" stroke-width="0.5" stroke-linecap="butt"/><path d="M271.05135,270.51039v-13.5131h7.58955v13.5131z" fill="url(#color-11)" stroke="url(#color-12)" stroke-width="0.5" stroke-linecap="butt"/><path d="M257.61692,249.42029v-2.12349h34.45841v2.12349z" fill="url(#color-13)" stroke="#000000" stroke-width="0.5" stroke-linecap="butt"/><path d="M260.3678,254.92206v-8.78352h13.5131v8.78352z" fill="url(#color-14)" stroke="#002c4c" stroke-width="0.5" stroke-linecap="butt"/><path d="M275.81134,254.92206v-8.78352h13.5131v8.78352z" fill="url(#color-15)" stroke="#002c4c" stroke-width="0.5" stroke-linecap="butt"/><path d="M276.69935,263.83588c0,-0.39981 0.32411,-0.72392 0.72392,-0.72392c0.39981,0 0.72392,0.32411 0.72392,0.72392c0,0.39981 -0.32411,0.72392 -0.72392,0.72392c-0.39981,0 -0.72392,-0.32411 -0.72392,-0.72392z" fill="url(#color-16)" stroke="none" stroke-width="0.5" stroke-linecap="butt"/><path d="M273.43183,217.79985l-4.59966,-14.06956l12.22273,-0.13529l-4.59966,14.20484z" fill="url(#color-17)" stroke="#000000" stroke-width="0" stroke-linecap="butt"/><path d="M257.46211,222.12894l-0.13529,-5.68193c0,0 11.42382,1.62341 17.31637,1.62341c5.68969,0 17.58694,-1.48813 17.58694,-1.48813v5.27608c0,0 -1.84197,11.05338 -17.17586,10.68372c-15.46789,-0.37288 -17.59218,-10.41316 -17.59218,-10.41316z" fill="url(#color-18)" stroke="url(#color-19)" stroke-width="0.5" stroke-linecap="butt"/><path d="M274.64897,216.76104l-3.83052,12.87974" fill="none" stroke="url(#color-20)" stroke-width="0.5" stroke-linecap="round"/><path d="M278.74436,229.40535l-3.83052,-12.87974" data-paper-data="{&quot;index&quot;:null}" fill="none" stroke="url(#color-21)" stroke-width="0.5" stroke-linecap="round"/><path d="M274.77848,217.94929v11.7628" fill="none" stroke="url(#color-22)" stroke-width="0.5" stroke-linecap="round"/><path d="M293.37467,215.82404c0,0 -0.10805,3.75093 -0.29962,5.30651c-0.19462,1.5804 -0.8591,4.10262 -0.8591,4.10262c0,0 -0.23337,6.71731 -12.1954,7.92482c-1.33649,0.13491 -5.26008,0.86865 -5.26008,0.86865c0,0 -3.65672,-0.69366 -5.32112,-0.91975c-11.55975,-1.57025 -11.84833,-7.87372 -11.84833,-7.87372c0,0 -0.89729,-2.14017 -1.10259,-3.52986c-0.24941,-1.68823 -0.15218,-5.87927 -0.15218,-5.87927c0,0 0.84613,-0.76982 1.5406,0.49271c0.27834,0.50602 0.07811,2.70113 0.48702,3.3099c1.15847,1.72467 1.86967,5.93959 4.20508,7.82835c1.66604,1.34742 4.62372,0.51449 7.04348,1.28458c1.5159,0.48244 5.14804,1.55986 5.14804,1.55986c0,0 3.6645,-1.01448 5.28611,-1.5524c1.84308,-0.61138 5.63046,-0.10833 7.0489,-1.07714c3.24391,-2.21562 3.25428,-6.4066 4.54982,-8.43935c0.37968,-0.59574 0.14832,-2.22971 0.39526,-2.70804c0.55546,-1.07596 1.33412,-0.69847 1.33412,-0.69847z" data-paper-data="{&quot;index&quot;:null}" fill="url(#color-23)" stroke="url(#color-24)" stroke-width="0.5" stroke-linecap="butt"/><path d="M276.02873,217.29888c0,0.63731 -0.51664,1.15395 -1.15395,1.15395c-0.63731,0 -1.15395,-0.51664 -1.15395,-1.15395c0,-0.63731 0.51664,-1.15395 1.15395,-1.15395c0.63731,0 1.15395,0.51664 1.15395,1.15395z" fill="url(#color-25)" stroke="url(#color-26)" stroke-width="0.5" stroke-linecap="butt"/><path d="M275.01465,221.32021c-2.22092,0 -4.02134,-1.78476 -4.02134,-3.98637c0,-2.20161 1.80041,-3.98637 4.02134,-3.98637c2.22092,0 4.02134,1.78476 4.02134,3.98637c0,2.20161 -1.80041,3.98637 -4.02134,3.98637z" fill="url(#color-27)" stroke="url(#color-28)" stroke-width="0.5" stroke-linecap="butt"/><path d="M275.06376,219.9937c-1.48705,0 -2.69255,-1.19501 -2.69255,-2.66913c0,-1.47412 1.2055,-2.66913 2.69255,-2.66913c1.48705,0 2.69255,1.19501 2.69255,2.66913c0,1.47412 -1.2055,2.66913 -2.69255,2.66913z" fill="url(#color-29)" stroke="url(#color-30)" stroke-width="0.5" stroke-linecap="butt"/><path d="M275.02113,219.15447c-1.00001,0 -1.81068,-0.80362 -1.81068,-1.79493c0,-0.99131 0.81067,-1.79493 1.81068,-1.79493c1.00001,0 1.81068,0.80362 1.81068,1.79493c0,0.99131 -0.81067,1.79493 -1.81068,1.79493z" fill="url(#color-31)" stroke="url(#color-32)" stroke-width="0.5" stroke-linecap="butt"/><path d="M298.31378,268.837v-17.09583c0,0 0.43727,-2.10873 2.77447,-2.06329c2.31291,0.04497 2.61593,2.06329 2.61593,2.06329v17.09583c0,0 -0.35247,1.78765 -2.6952,1.84222c-2.38892,0.05564 -2.6952,-1.84222 -2.6952,-1.84222z" fill="url(#color-33)" stroke="url(#color-34)" stroke-width="0.5" stroke-linecap="butt"/><path d="M292.54803,268.76988v-17.09583c0,0 0.43727,-2.10873 2.77447,-2.06329c2.31291,0.04497 2.61593,2.06329 2.61593,2.06329v17.09583c0,0 -0.35247,1.78765 -2.6952,1.84222c-2.38892,0.05565 -2.6952,-1.84222 -2.6952,-1.84222z" fill="url(#color-35)" stroke="url(#color-36)" stroke-width="0.5" stroke-linecap="butt"/><path d="M292.17553,255.88701v-1.73486h12.05268v1.73486z" fill="url(#color-37)" stroke="url(#color-38)" stroke-width="0.5" stroke-linecap="butt"/><path d="M292.17553,265.47437v-1.73485h12.05268v1.73485z" fill="url(#color-39)" stroke="url(#color-40)" stroke-width="0.5" stroke-linecap="butt"/></g></g></g></svg>