<svg version="1.1" xmlns="http://www.w3.org/2000/svg" xmlns:xlink="http://www.w3.org/1999/xlink" width="619.063" height="471.58011" viewBox="0,0,619.063,471.58011"><defs><radialGradient cx="240" cy="180.00003" r="250.5" gradientUnits="userSpaceOnUse" id="color-1"><stop offset="0" stop-color="#949494"/><stop offset="1" stop-color="#7d7d7d"/></radialGradient><radialGradient cx="243.51172" cy="115.5508" r="114.5" gradientUnits="userSpaceOnUse" id="color-2"><stop offset="0" stop-color="#484848"/><stop offset="1" stop-color="#3a3a3a"/></radialGradient><radialGradient cx="313.80117" cy="294.91333" r="270.53072" gradientUnits="userSpaceOnUse" id="color-3"><stop offset="0" stop-color="#4d4d4d"/><stop offset="1" stop-color="#3c3c3c"/></radialGradient><radialGradient cx="228.97824" cy="289.72909" r="66" gradientUnits="userSpaceOnUse" id="color-4"><stop offset="0" stop-color="#2a2a2a"/><stop offset="1" stop-color="#2a2a2a"/></radialGradient><radialGradient cx="222.20341" cy="294.86247" r="66" gradientUnits="userSpaceOnUse" id="color-5"><stop offset="0" stop-color="#1d1d1d"/><stop offset="1" stop-color="#1b1b1b"/></radialGradient><radialGradient cx="349.5834" cy="454.2388" r="249.95744" gradientUnits="userSpaceOnUse" id="color-6"><stop offset="0" stop-color="#222222"/><stop offset="1" stop-color="#202020"/></radialGradient><radialGradient cx="308.17227" cy="315.18154" r="65" gradientUnits="userSpaceOnUse" id="color-7"><stop offset="0" stop-color="#090909"/><stop offset="1" stop-color="#080808"/></radialGradient><radialGradient cx="465.65055" cy="218.71996" r="26.5" gradientUnits="userSpaceOnUse" id="color-8"><stop offset="0" stop-color="#525252"/><stop offset="1" stop-color="#424242"/></radialGradient><radialGradient cx="389.18019" cy="263.01041" r="84" gradientUnits="userSpaceOnUse" id="color-9"><stop offset="0" stop-color="#1d1d1d"/><stop offset="1" stop-color="#1b1b1b"/></radialGradient><radialGradient cx="423.82281" cy="229.41893" r="44.75" gradientUnits="userSpaceOnUse" id="color-10"><stop offset="0" stop-color="#3a3a3a"/><stop offset="1" stop-color="#2f2f2f"/></radialGradient><radialGradient cx="376.45226" cy="269.17481" r="48.5" gradientUnits="userSpaceOnUse" id="color-11"><stop offset="0" stop-color="#343434"/><stop offset="1" stop-color="#262626"/></radialGradient><radialGradient cx="333.55169" cy="245.02495" r="26.25" gradientUnits="userSpaceOnUse" id="color-12"><stop offset="0" stop-color="#121212"/><stop offset="1" stop-color="#161616"/></radialGradient><radialGradient cx="315.50967" cy="312.64928" r="65" gradientUnits="userSpaceOnUse" id="color-13"><stop offset="0" stop-color="#101010"/><stop offset="1" stop-color="#111111"/></radialGradient><radialGradient cx="483.58941" cy="200.60374" r="36.25" gradientUnits="userSpaceOnUse" id="color-14"><stop offset="0" stop-color="#313131"/><stop offset="1" stop-color="#1b1b1b"/></radialGradient><radialGradient cx="374.11467" cy="343.70192" r="26.25" gradientUnits="userSpaceOnUse" id="color-15"><stop offset="0" stop-color="#121212"/><stop offset="1" stop-color="#161616"/></radialGradient><radialGradient cx="264.13766" cy="206.43717" r="57.27136" gradientUnits="userSpaceOnUse" id="color-16"><stop offset="0" stop-color="#33266a"/><stop offset="1" stop-color="#949074"/></radialGradient><linearGradient x1="-11.98828" y1="179.28453" x2="150.92969" y2="179.28453" gradientUnits="userSpaceOnUse" id="color-17"><stop offset="0" stop-color="#7d7d7d"/><stop offset="1" stop-color="#818181"/></linearGradient><linearGradient x1="267.28166" y1="145.99054" x2="265.40916" y2="163.27271" gradientUnits="userSpaceOnUse" id="color-18"><stop offset="0" stop-color="#694444"/><stop offset="1" stop-color="#98a1b9"/></linearGradient><radialGradient cx="273.33604" cy="87.09524" r="33.28545" gradientUnits="userSpaceOnUse" id="color-19"><stop offset="0" stop-color="#dcdcdc"/><stop offset="1" stop-color="#a0a0a0"/></radialGradient><radialGradient cx="286.78601" cy="85.92239" r="25.55275" gradientUnits="userSpaceOnUse" id="color-20"><stop offset="0" stop-color="#1c2f30"/><stop offset="1" stop-color="#142913"/></radialGradient><radialGradient cx="244.3709" cy="84.03854" r="6.72592" gradientUnits="userSpaceOnUse" id="color-21"><stop offset="0" stop-color="#786c41"/><stop offset="1" stop-color="#141a29"/></radialGradient><radialGradient cx="273.16694" cy="85.33353" r="10.58856" gradientUnits="userSpaceOnUse" id="color-22"><stop offset="0" stop-color="#7ba676"/><stop offset="1" stop-color="#291616"/></radialGradient><radialGradient cx="264.097" cy="108.48178" r="25.00169" gradientUnits="userSpaceOnUse" id="color-23"><stop offset="0" stop-color="#d1ffc4"/><stop offset="1" stop-color="#2188ff"/></radialGradient><radialGradient cx="264.097" cy="108.48178" r="25.00169" gradientUnits="userSpaceOnUse" id="color-24"><stop offset="0" stop-color="#ceffc4"/><stop offset="1" stop-color="#ff21cc"/></radialGradient><radialGradient cx="264.097" cy="108.48178" r="25.00169" gradientUnits="userSpaceOnUse" id="color-25"><stop offset="0" stop-color="#ffe9c4"/><stop offset="1" stop-color="#4fff21"/></radialGradient><radialGradient cx="264.097" cy="108.48178" r="25.00169" gradientUnits="userSpaceOnUse" id="color-26"><stop offset="0" stop-color="#ffe9c4"/><stop offset="1" stop-color="#4fff21"/></radialGradient><radialGradient cx="264.09705" cy="108.48181" r="25.00169" gradientUnits="userSpaceOnUse" id="color-27"><stop offset="0" stop-color="#ffe9c4"/><stop offset="1" stop-color="#ffa321"/></radialGradient><radialGradient cx="264.09709" cy="108.48181" r="25.00169" gradientUnits="userSpaceOnUse" id="color-28"><stop offset="0" stop-color="#c4f0ff"/><stop offset="1" stop-color="#3d21ff"/></radialGradient></defs><g transform="translate(11.98828,8.48171)"><g data-paper-data="{&quot;isPaintingLayer&quot;:true}" fill-rule="nonzero" stroke-linejoin="miter" stroke-miterlimit="10" stroke-dasharray="" stroke-dashoffset="0" style="mix-blend-mode: normal"><path d="M-10.5,368.00001v-376h501v376z" fill="url(#color-1)" stroke="none" stroke-width="0" stroke-linecap="butt"/><path d="M55.63703,350.09237c-3.89444,-35.12313 -28.86024,-260.28391 -28.86024,-260.28391c0,0 6.13498,-58.73673 90.38049,-83.32369c88.94305,-19.99889 123.11201,33.7383 123.11201,33.7383c0,0 65.07454,148.36123 76.16367,173.64299c3.0985,7.06417 1.47154,14.99796 -6.00481,17.45295c-24.82515,8.15175 -82.74364,27.48408 -119.81421,42.36863c-36.09995,14.49483 -99.11668,64.98273 -123.29164,84.94994c-6.18411,5.10773 -10.69693,0.36836 -11.68526,-8.54521z" fill="#000000" stroke="none" stroke-width="NaN" stroke-linecap="butt"/><path d="M165.01172,165.05081l-2,-164c0,0 26.59426,3.29414 40.84201,7.29545c21.80408,6.12342 42.158,33.70455 42.158,33.70455c0,0 56.32326,135.7535 68.65762,165.48248c4.54989,10.96641 3.54663,20.14819 -2.69066,17.59835c-21.79808,-8.91117 -146.96696,-60.08083 -146.96696,-60.08083z" fill="url(#color-2)" stroke="none" stroke-width="0" stroke-linecap="butt"/><path d="M605.69258,270.32998c14.79035,54.92892 -90.81001,131.12039 -235.86501,170.17842c-145.055,39.05803 -274.63528,26.19214 -289.42563,-28.73678c-14.79036,-54.92892 90.81,-131.1204 235.86501,-170.17843c145.05501,-39.05803 274.63528,-26.19213 289.42564,28.73679z" fill="url(#color-3)" stroke="none" stroke-width="NaN" stroke-linecap="butt"/><g data-paper-data="{&quot;index&quot;:null}"><path d="M221.7213,237.51417l18.63568,7.20842l33.462,93.83653l-22.25925,-11.99065z" fill="url(#color-4)" stroke="none" stroke-width="0" stroke-linecap="butt"/><path d="M252.45332,325.26406l21.46221,12.59458l-6.87139,5.83387l-22.95973,-12.08721z" fill="url(#color-5)" stroke="none" stroke-width="0" stroke-linecap="butt"/><path d="M243.98785,332.3058l-29.01224,-87.79835l7.58732,-5.8825l30.00994,86.54853z" data-paper-data="{&quot;index&quot;:null}" fill="url(#color-6)" stroke="none" stroke-width="0" stroke-linecap="butt"/><path d="M226.6818,241.0668l49.6744,5.71874l-37.99309,0.88027" fill="none" stroke="#747474" stroke-width="1.5" stroke-linecap="round"/><path d="M255.92492,322.04882l55.24453,10.40635l-43.1397,-2.28397" fill="none" stroke="#747474" stroke-width="1.5" stroke-linecap="round"/><path d="M261.55145,288.70273c-6.53341,-17.0944 -5.97747,-42.56344 -2.56125,-48.30337c2.17588,-3.65591 19.20595,5.0226 28.79083,9.47131c7.94194,3.68615 20.28707,15.94247 20.28707,15.94247l45.54771,97.12701c0,0 -20.99459,-3.76071 -30.44393,-7.83954c-9.80806,-4.23367 -25.97957,-9.11744 -30.68559,-14.8801c-4.67276,-5.72192 -24.85768,-35.61715 -30.93484,-51.51779z" fill="url(#color-7)" stroke="none" stroke-width="0" stroke-linecap="butt"/><path d="M447.24607,198.5637l11.4751,-7.12896l27.95706,45.07108l-12.43968,8.3818z" fill="url(#color-8)" stroke="none" stroke-width="0" stroke-linecap="butt"/><path d="M314.43797,263.93278l123.01751,-82.28573l54.9052,82.38124l-141.83002,91.94697z" fill="url(#color-9)" stroke="none" stroke-width="0" stroke-linecap="butt"/><path d="M386.04112,216.89275l43.80938,-30.72438l47.9381,75.62035l-47.68542,32.13022z" fill="url(#color-10)" stroke="none" stroke-width="0" stroke-linecap="butt"/><path d="M321.12863,270.87994l69.10339,-47.76737l35.25675,63.06316l-75.46736,50.84956z" fill="url(#color-11)" stroke="none" stroke-width="0" stroke-linecap="butt"/><path d="M299.11864,250.74142c0,0 17.84291,-8.94866 28.21866,-11.42355c8.73093,-2.08255 31.61593,-3.57052 31.61593,-3.57052l-43.12421,29.0569z" fill="url(#color-12)" stroke="none" stroke-width="0" stroke-linecap="butt"/><path d="M268.88886,286.17044c-6.53341,-17.0944 -10.41229,-41.98691 -6.99608,-47.72684c2.17588,-3.65591 23.64077,4.44607 33.22565,8.89478c7.94194,3.68615 20.28707,15.94247 20.28707,15.94247l42.23047,99.36215c0,0 -17.67735,-5.99585 -27.12668,-10.07468c-9.80806,-4.23367 -25.97957,-9.11744 -30.68559,-14.8801c-4.67276,-5.72192 -24.85768,-35.61715 -30.93484,-51.51779z" fill="url(#color-13)" stroke="none" stroke-width="0" stroke-linecap="butt"/><path d="M449.82493,187.1795l31.23445,-21.64854l44.65857,57.33116l-34.41643,23.18963z" fill="url(#color-14)" stroke="none" stroke-width="0" stroke-linecap="butt"/><path d="M335.68806,355.12375c0,0 20.54692,-17.4247 32.57751,-22.08748c10.09842,-3.91392 30.79164,-7.34635 30.79164,-7.34635l-43.07987,38.07066z" fill="url(#color-15)" stroke="none" stroke-width="0" stroke-linecap="butt"/></g><path d="M217.68757,257.08044l17.87492,-113.13934l75.02511,11.85316l-17.87492,113.13934z" fill="url(#color-16)" stroke="#ed6b00" stroke-width="0" stroke-linecap="butt"/><g><path d="M184.77008,298.61071l49.37907,-70.4885c0,0 17.69675,3.3578 24.5256,7.08865c8.07989,4.41436 -3.81308,10.18759 -3.81308,10.18759c0,0 -6.99234,-3.56481 -9.42038,-0.74004c-7.42544,8.63906 -42.85114,63.68825 -42.85114,63.68825z" data-paper-data="{&quot;index&quot;:null}" fill="#4a433c" stroke="#000000" stroke-width="0" stroke-linecap="butt"/><path d="M163.42534,307.20248c-1.84118,-1.00594 -0.33982,-5.79519 -0.33982,-5.79519c0,0 3.14384,-2.51917 4.3632,-3.36585c0.9953,-0.69165 4.99472,-0.28648 4.99472,-0.28648c0,0 7.03509,2.31635 10.22941,3.71867c5.39833,2.36998 18.46653,9.85552 18.46653,9.85552c0,0 -1.75251,4.19476 -2.7204,5.84896c-0.71832,1.22766 -2.56498,3.1837 -2.56498,3.1837c0,0 -2.31993,-0.03873 -6.2338,-1.15668c-2.12387,-0.60669 -5.56372,-3.64365 -8.39896,-4.67245c-2.25226,-0.81742 -4.39027,-0.34101 -7.23915,-1.75568c-4.68521,-2.32689 -9.23646,-4.85262 -10.55637,-5.57394z" data-paper-data="{&quot;index&quot;:null}" fill="#140d0d" stroke="#000000" stroke-width="0" stroke-linecap="butt"/><path d="M167.16068,301.79868c-1.84119,-1.00577 -2.70003,-1.47526 -2.70003,-1.47526c0,0 3.78421,-4.97417 5.00357,-5.82086c0.99519,-0.69145 4.99461,-0.28628 4.99461,-0.28628c0,0 7.8451,2.75868 11.03942,4.161c0.54311,0.2386 5.17214,-7.58308 5.17214,-7.58308c0,0 7.0232,4.54212 8.00462,5.05012c1.82541,0.94444 -5.56992,6.35247 -3.68426,7.38333c1.07687,0.58876 3.64425,4.17849 6.21301,3.44918c2.87111,-0.81484 6.63857,-5.13713 6.63857,-5.13713l-3.87766,6.69341c0,0 -1.0274,2.23868 -4.09435,3.2157c-2.09958,0.66895 -3.0484,3.51232 -5.71217,3.7587c-3.87317,0.35847 -4.31384,0.29469 -5.15399,-0.01025c-2.41215,-0.8756 -2.10275,-2.91423 -7.4501,-5.34847c-2.55752,-1.16422 -2.89459,1.35407 -10.18516,-1.896c-7.72007,-3.44136 -3.65515,-5.85129 -4.20787,-6.15324z" data-paper-data="{&quot;index&quot;:null}" fill="#1f261f" stroke="#000000" stroke-width="0" stroke-linecap="butt"/><path d="M182.75731,298.66818l4.61251,5.67544" fill="none" stroke="#ffb5b5" stroke-width="0.5" stroke-linecap="round"/><path d="M178.7068,296.45565l3.90012,6.33789" fill="none" stroke="#bffdff" stroke-width="0.5" stroke-linecap="round"/><path d="M177.45185,300.67812l-1.46984,-5.00991" fill="none" stroke="#eaffc1" stroke-width="0.5" stroke-linecap="round"/><path d="M194.78985,297.1786l-4.56504,-3.19523" fill="none" stroke="#8d967b" stroke-width="0.5" stroke-linecap="round"/><path d="M188.80007,295.30847l3.87746,3.17033" fill="none" stroke="#767796" stroke-width="0.5" stroke-linecap="round"/></g><g data-paper-data="{&quot;index&quot;:null}" stroke="#000000" stroke-width="0" stroke-linecap="butt"><path d="M303.01964,226.14468c0,0 2.1952,-8.0397 0.94922,-17.60776c-0.29959,-2.30094 -0.02385,-9.61096 -0.35819,-11.97224c-0.45954,-3.24606 1.42151,-13.49324 -1.23228,-18.96295c-1.91493,-3.94679 -9.24117,0.90822 -10.58309,-8.10437c-3.74699,-6.98923 8.50799,-17.35343 21.00851,-6.36178c6.22684,5.47523 6.97717,18.85145 7.27298,21.46336c0.36203,3.19702 -1.26129,5.7208 -0.92236,10.68774c0.15178,2.22674 -0.74705,11.81451 -0.98049,17.69126c-0.3886,9.78432 0.57633,15.74007 0.57633,15.74007z" fill="#b8bda6"/><path d="M317.85999,241.0383c-0.16518,2.71985 1.18142,5.87845 0.02256,5.77076c-3.64221,0.36472 -3.1361,-1.88175 -5.02042,-4.26611c-0.99749,-1.26236 4.67249,6.39517 -0.84297,5.41914c-2.97979,-0.41152 -2.19248,-5.03432 -3.45836,-7.35144c-0.6778,-1.24026 3.14487,8.42005 -1.63847,7.6743c-2.8394,0.29461 -1.06335,-3.28442 -1.88424,-7.18054c-0.08875,-0.42093 0.80495,6.28619 -2.78834,6.62929c-3.24723,0.31007 -1.38049,-9.99335 -1.41338,-10.03353c-0.29711,-0.36338 0.33338,2.11545 -1.19502,1.95089c-3.99782,-0.43049 -0.00729,-6.01764 1.47613,-7.95493c1.57268,-2.05347 1.87818,-5.269 1.87818,-5.269c0,0 5.50701,-0.98506 8.1618,-0.54401c2.58497,0.4291 7.56247,3.15542 7.56247,3.15542c0,0 -0.53891,6.71362 -0.85993,11.99978z" data-paper-data="{&quot;index&quot;:null}" fill="#786274"/></g><g data-paper-data="{&quot;index&quot;:null}" stroke="#000000" stroke-width="0" stroke-linecap="butt"><path d="M191.09491,232.99095c0,0 2.44409,-4.70989 4.81051,-12.99037c1.42126,-4.97351 3.30742,-13.23013 4.0466,-15.04859c1.64918,-4.05606 3.09528,-9.02054 4.27699,-11.59167c0.59963,-1.30462 5.38778,-12.1278 11.19692,-22.72624c6.92667,-12.63729 11.93325,-26.83071 20.65479,-19.29228c13.45466,5.65899 -8.58471,34.09234 -8.58471,34.09234c0,0 -5.38873,7.53074 -8.12004,13.47276c-1.26991,2.76274 -3.97911,6.91946 -6.17696,11.37025c-0.92869,1.8806 -3.32245,8.08052 -4.20558,9.9203c-3.67235,7.65032 -4.04975,14.97026 -4.04975,14.97026z" fill="#b8bda6"/><path d="M187.75438,243.77075c-1.29491,-0.22197 2.93576,-10.74585 2.93576,-10.74585c0,0 4.90792,-0.90856 7.18539,-0.55605c2.33907,0.3617 6.6686,2.69923 6.6686,2.69923c0,0 -0.6292,2.77017 0.11982,4.91816c1.28148,3.67594 3.0785,7.7078 0.93793,10.11054c-1.16145,1.30386 -1.57855,-5.51194 -2.35435,-5.01755c-0.13807,0.08791 -2.8996,10.41075 -3.9895,10.61122c-1.78074,0.32747 0.39957,-10.39856 -0.45677,-8.92297c-1.75734,3.02897 -2.43417,10.63102 -3.83872,10.66092c-2.36601,0.05011 1.93899,-12.89192 1.03171,-12.04226c-1.69481,1.58751 -2.98981,9.7845 -4.21601,9.8658c-3.57192,0.23691 1.27176,-10.21478 0.09129,-9.43456c-2.22986,1.47362 -2.57522,7.4123 -3.83208,7.1166c-2.55527,-0.60114 0.32836,-9.158 -0.28306,-9.26294z" data-paper-data="{&quot;index&quot;:null}" fill="#786274"/></g><g><path d="M239.52136,322.17108c0,0 17.42404,-63.10148 18.91492,-74.39491c0.4875,-3.69306 -6.83082,-6.52938 -6.83082,-6.52938c0,0 -3.62331,-12.71414 5.05322,-9.63311c7.33286,2.6037 21.6317,13.55807 21.6317,13.55807l-19.63317,83.79399z" fill="#413a4a" stroke="#000000" stroke-width="0" stroke-linecap="butt"/><path d="M217.50175,327.96729c0,0 2.70614,-2.98481 3.776,-4.01384c0.87358,-0.84035 4.88652,-1.07286 4.88652,-1.07286c0,0 7.31247,1.17457 10.68853,2.05412c5.70545,1.48655 19.79286,6.81089 19.79286,6.81089c0,0 -1.06662,4.41881 -1.761,6.20542c-0.51539,1.32592 -2.02945,3.54915 -2.02945,3.54915c0,0 -2.29679,0.32876 -6.33804,-0.15628c-2.19325,-0.26317 -6.06979,-2.71743 -9.03225,-3.28515c-2.35293,-0.45066 -4.38908,0.3578 -7.4256,-0.58862c-4.99486,-1.55668 -9.88809,-3.33083 -11.30538,-3.83421c-1.97719,-0.70197 -1.25215,-5.66859 -1.25215,-5.66859z" data-paper-data="{&quot;index&quot;:null}" fill="#12140d" stroke="#000000" stroke-width="0" stroke-linecap="butt"/><path d="M218.68903,326.68048c0,0 2.94993,-5.51012 4.01979,-6.53915c0.87358,-0.84035 4.88652,-1.07286 4.88652,-1.07286c0,0 8.18234,1.48309 11.55829,2.3628c0.57426,0.14955 3.90785,-8.30569 3.90785,-8.30569c0,0 7.65323,3.37422 8.70269,3.7205c1.95154,0.64396 -4.49504,7.15352 -2.47016,7.8731c1.15637,0.41111 4.25896,3.5494 6.68012,2.42303c2.70605,-1.25897 5.74247,-6.1227 5.74247,-6.1227l-2.7703,7.22231c0,0 -0.66065,2.37269 -3.53438,3.82273c-1.96743,0.99245 -2.45485,3.95014 -5.04594,4.61471c-3.76787,0.96622 -4.21328,0.97341 -5.09099,0.80511c-2.51993,-0.4832 -2.5373,-2.5449 -8.20207,-4.10288c-2.70929,-0.74526 -2.64364,1.79467 -10.35674,-0.26126c-8.16779,-2.17714 -4.53481,-5.19949 -5.12844,-5.41047c-1.97717,-0.70216 -2.89937,-1.02973 -2.89937,-1.02973z" data-paper-data="{&quot;index&quot;:null}" fill="#1e1e26" stroke="#000000" stroke-width="0" stroke-linecap="butt"/><path d="M236.49233,322.15124l5.45195,4.87438" fill="none" stroke="#c1ffce" stroke-width="0.5" stroke-linecap="round"/><path d="M232.14328,320.60707l4.85322,5.64126" fill="none" stroke="#eaffc1" stroke-width="0.5" stroke-linecap="round"/><path d="M229.32794,320.26018l2.24374,4.71468" fill="none" stroke="#ffb5b5" stroke-width="0.5" stroke-linecap="round"/><path d="M248.13788,318.77733l-5.01274,-2.43305" fill="none" stroke="#7d967f" stroke-width="0.5" stroke-linecap="round"/><path d="M241.9277,317.87798l4.32996,2.51698" fill="none" stroke="#966262" stroke-width="0.5" stroke-linecap="round"/></g><path d="M-11.98828,369.05082l1,-377l160.91797,-0.53253l0.08203,9.53253c0,0 -39.46962,6.29142 -75.5582,25.97667c-26.80308,14.62028 -51.53474,44.21584 -49.36246,61.1415c8.78971,68.48644 35.92067,279.88184 35.92067,279.88184z" fill="url(#color-17)" stroke="none" stroke-width="0" stroke-linecap="butt"/><g stroke-linecap="butt"><path d="M255.75257,162.22645l1.87252,-17.28222l19.31319,2.09267l-1.87252,17.28222z" fill="url(#color-18)" stroke="#000000" stroke-width="0"/><path d="M234.21721,119.11759c-2.86961,-19.40517 9.20625,-37.26543 26.97198,-39.89232c17.76573,-2.62698 34.49338,10.97425 37.36296,30.37908c2.86961,19.40517 -9.20625,37.26543 -26.97198,39.89232c-17.76559,2.62698 -34.49325,-10.97426 -37.36282,-30.37908z" fill="url(#color-19)" stroke="none" stroke-width="0"/><path d="M279.93515,86.88595l-0.01952,-0.00211l-0.00715,0.05065l-1.56574,-0.22175c-0.59342,-0.07218 -1.07209,-0.54821 -1.1334,-1.1577c-5.11558,-0.02823 -10.45999,0.47303 -14.03755,0.13178c-0.51218,-0.04882 -1.09804,0.00341 -1.71356,0.09323c0.25312,0.22161 0.42023,0.5406 0.4408,0.90296c0.04053,0.71609 -0.50661,1.329 -1.22236,1.3698c-0.10616,0.00591 -0.21052,-0.00118 -0.31054,-0.01952l-0.74634,-0.12182c0.18601,0.19686 0.36849,0.40131 0.54725,0.61249c0,0 0.83645,0.99264 -0.15607,1.82924c-0.99264,0.83645 -1.82924,-0.15607 -1.82924,-0.15607c-2.04568,-2.43834 -4.58495,-3.67339 -7.19652,-3.73488c-1.48762,0.34547 -2.942,0.71762 -4.33891,0.97556c-0.88119,0.42316 -1.7433,0.98357 -2.56899,1.67959l-0.11867,0.02713l0.02031,0.03523l-1.19879,0.68715c-0.17447,0.10511 -0.37715,0.17042 -0.59471,0.18268c-0.71609,0.04053 -1.32902,-0.50661 -1.3698,-1.22236c-0.01017,-0.18061 0.0172,-0.35463 0.07491,-0.5145l0.52985,-1.57943l0.63188,0.21236c0.23217,-0.44075 0.51082,-0.83941 0.82941,-1.19906l-0.86383,-0.12258c-0.61175,-0.07458 -1.10137,-0.5781 -1.13775,-1.21523c-0.04053,-0.71609 0.50661,-1.329 1.22236,-1.3698l1.57156,-0.08934c0.57865,-0.03261 1.2252,-0.07948 1.92008,-0.13025c0.92454,-0.22285 2.07437,-0.27902 3.31889,-0.22036c2.50046,-0.1329 5.20045,-0.16679 7.5018,0.19541c0.87474,0.06664 1.71035,0.15083 2.48066,0.23623l1.49088,-0.08498c0.32592,-0.01855 0.63059,0.08458 0.86979,0.27044c5.56012,-0.47837 11.23517,0.36736 16.967,0.61359c4.16125,0.1789 8.91166,-0.18302 12.51183,2.12283c2.42578,2.20109 5.46706,9.90368 -1.12609,7.95575c-3.86559,-1.14253 -1.50389,-3.83667 -2.56074,-5.9701c-1.25599,-0.40417 -2.86326,-0.70586 -4.25018,-1.03288c-1.21592,-0.02958 -2.32952,0.01523 -2.76161,0.03946z" fill="url(#color-20)" stroke="none" stroke-width="0.5"/><path d="M240.76519,83.18185c6.47514,-0.27388 6.37811,-1.01764 6.5179,3.65574c0.13996,4.67348 -2.70346,8.77667 -6.35101,9.1642c-3.64754,0.38729 -6.71815,-3.0874 -6.85796,-7.76076c-0.13993,-4.67352 -0.21377,-4.7668 6.69126,-5.05904z" data-paper-data="{&quot;index&quot;:null}" fill="url(#color-21)" stroke="#000000" stroke-width="0"/><path d="M258.37685,87.45412c0.15855,-5.13129 0.01437,-4.30943 10.28809,-4.44595c10.95593,-0.1458 10.84006,-0.03836 10.68166,5.09294c-0.15817,5.13108 -4.98094,9.14599 -10.7716,8.96721c-5.7908,-0.17831 -10.35673,-4.48288 -10.19832,-9.61418z" fill="url(#color-22)" stroke="#000000" stroke-width="0"/><path d="M253.98467,138.59557c-30.11206,-2.72686 -25.50152,-23.59324 -25.50152,-23.59324c0.47683,-9.48992 13.7323,-18.15306 27.51742,-17.46031c13.78512,0.69276 29.51507,9.42677 29.03829,18.91672c-0.47695,9.49005 -3.8482,24.85971 -31.05423,22.13705z" data-paper-data="{&quot;index&quot;:null}" fill="url(#color-23)" stroke="#ed6b00" stroke-width="0"/><path d="M253.9847,138.59559c-2.26267,-0.20487 -4.32928,-0.51217 -6.21655,-0.90542c0.32855,-1.14816 0.53584,-2.35028 0.60645,-3.59266c0.51356,-9.03423 -6.39376,-16.77424 -15.42798,-17.28784c-1.62073,-0.09214 -3.19981,0.05456 -4.70299,0.40953c0.05288,-1.37203 0.23956,-2.21692 0.23956,-2.21692c0.10237,-2.0371 0.79352,-4.03602 1.95231,-5.91255c6.00065,-0.57869 11.12612,-4.42217 13.45409,-9.81505c3.75651,-1.28581 7.90915,-1.94389 12.11098,-1.73274c2.45064,0.12312 4.96277,0.50042 7.4344,1.09096c-5.00448,2.56483 -8.55543,7.64041 -8.89767,13.6604c-0.51356,9.03423 6.39376,16.77424 15.42798,17.28784c5.81179,0.33042 11.08788,-2.4103 14.24919,-6.81264c-2.00552,8.67766 -8.54998,17.99693 -30.22985,15.82728z" data-paper-data="{&quot;index&quot;:null}" fill="url(#color-24)" stroke="#ed6b00" stroke-width="0"/><path d="M256.00066,97.54208c10.88798,0.54717 22.98918,6.11072 27.35985,13.10114c-5.9262,2.19304 -10.29644,7.73095 -10.67798,14.44277c-0.21552,3.79068 0.87549,7.35355 2.88198,10.25031c-1.95948,1.18098 -4.32291,2.13127 -7.1742,2.75485c-0.94874,-2.95306 -2.71669,-5.55573 -5.04997,-7.52369c5.05269,-2.54958 8.64491,-7.65031 8.98925,-13.70694c0.51355,-9.03421 -6.39377,-16.77424 -15.42798,-17.28784c-5.35615,-0.3045 -10.25739,1.99945 -13.46746,5.80858c0.0484,-1.96442 -0.2532,-3.86127 -0.84953,-5.6285c4.08796,-1.59747 8.72127,-2.44667 13.41594,-2.21073z" data-paper-data="{&quot;index&quot;:null}" fill="url(#color-25)" stroke="#ed6b00" stroke-width="0"/><path d="M239.59193,115.53645c-0.12681,5.14391 2.14662,9.8246 5.82539,12.92736c-2.7371,1.38113 -5.04564,3.51091 -6.64144,6.13573c-7.05567,-3.70167 -9.49731,-9.09873 -10.24802,-13.29227c4.40176,-0.39189 8.34124,-2.53984 11.06403,-5.77078z" data-paper-data="{&quot;index&quot;:null}" fill="url(#color-26)" stroke="#ed6b00" stroke-width="0"/><path d="M258.00284,126.75683c0.25195,1.54286 0.91669,3.71652 1.90043,6.0938c-1.62751,-1.77858 -3.64596,-3.20113 -5.92955,-4.1266c0.92639,-1.89864 1.49857,-4.00908 1.62599,-6.25034c0.51356,-9.03423 -6.39376,-16.77424 -15.42798,-17.28784c-2.86289,-0.16276 -5.59583,0.41971 -8.01004,1.57897c3.48335,-3.98627 9.10854,-7.1571 15.46048,-8.52718c1.97158,6.3358 7.70428,11.09189 14.71938,11.49067c5.43456,0.30897 10.40073,-2.0674 13.60733,-5.9768c4.13938,2.57246 7.29127,5.74787 8.52877,9.15428c-0.57967,-0.37253 -1.16629,-0.60771 -1.75357,-0.67394c-4.58684,-0.51719 -9.23091,0.12558 -13.84661,0.16711c-0.75373,0.00681 -2.38831,-0.33457 -2.66405,0.03215c-2.91909,3.88174 -4.80941,8.43965 -7.2453,12.64146c-0.19969,0.34438 -1.00537,1.43908 -0.96534,1.68427z" data-paper-data="{&quot;index&quot;:null}" fill="url(#color-27)" stroke="#ed6b00" stroke-width="0"/><path d="M253.98464,138.59556c-8.49268,-0.7691 -14.22335,-2.98107 -18.07451,-5.76085c-0.55169,-5.00089 -3.37276,-9.37269 -7.45924,-11.99045c-0.31518,-2.05471 -0.23306,-3.78007 -0.12152,-4.8111c7.16417,-1.41045 12.74731,-7.52109 13.18083,-15.14742c0.01335,-0.23473 0.0217,-0.4686 0.02511,-0.70149c4.33545,-1.8738 9.36408,-2.89864 14.46529,-2.64228c1.4193,0.07132 2.85925,0.22792 4.29997,0.46177c-2.90763,1.5325 -5.31145,3.91768 -6.86047,6.84236c-2.84786,1.47766 -7.112,-0.62528 -9.50579,1.51098c-4.10649,3.66472 -8.6803,8.35316 -8.99266,13.84821c-0.77105,13.56315 6.91311,15.05203 15.42798,17.28784c4.9373,1.2964 10.8517,0.52106 16.33903,-1.59847c7.06384,-0.228 13.10096,-4.97376 15.11917,-11.5671c0.14103,-0.22718 0.27619,-0.45578 0.40535,-0.68577c1.24961,-2.22522 2.52241,-5.38026 2.77751,-8.4157c0.03901,0.4091 0.0489,0.82018 0.02818,1.23269c-0.47695,9.49005 -3.84818,24.85973 -31.05423,22.13705z" data-paper-data="{&quot;index&quot;:null}" fill="url(#color-28)" stroke="#ed6b00" stroke-width="0"/></g><g stroke-width="0" stroke-linecap="butt"><path d="M280.16661,244.18764c0,0 -4.74595,0.74439 -8.07279,-0.14747c-2.86419,-0.76754 -4.14266,-3.1625 -6.65763,-3.45763c-1.24567,-0.14626 -4.78995,0.69392 -6.55886,0.54235c-2.34016,-0.20065 -6.78187,1.13372 -9.17072,0.50764c-2.98872,-0.78293 -3.95156,-3.55637 -7.17962,-3.88316c-7.10812,-0.7196 -14.29233,0.34393 -14.29233,0.34393c0,0 2.22045,-14.49838 2.92829,-26.28283c0.68703,-11.43385 -0.14797,-20.04241 0.46406,-27.74707c0.69183,-8.70791 3.43695,-31.93372 3.43695,-31.93372c0,0 10.72993,0.18366 15.67347,1.92871c4.68508,1.65406 13.25413,8.28287 13.25413,8.28287c0,0 12.67768,-4.34474 18.52203,-4.80167c4.59103,-0.35911 13.69982,2.28222 13.69982,2.28222c0,0 -2.54427,21.93076 -4.76793,33.62292c-1.18468,6.22939 -4.87716,14.2062 -6.92489,23.30434c-3.01368,13.38965 -4.35354,27.43908 -4.35354,27.43908z" fill="#d1b0b0" stroke="#292e32"/><path d="M235.65834,178.93523l1.65113,-13.12645l19.34702,1.50327l-2.14828,14.61431z" fill="#f200ff" stroke="none"/><path d="M255.4311,175.64812c-2.50691,-2.73078 -5.9499,-4.6306 -9.91221,-5.15556c-0.95713,-0.12679 -1.90588,-0.16823 -2.83861,-0.13022c1.47065,-1.05476 2.7662,-2.35068 3.82319,-3.83919l10.15304,0.7889z" fill="#eeff00" stroke="none"/><path d="M238.7308,179.42279c0.78067,-1.57269 1.3199,-3.29867 1.56336,-5.13638c0.38785,-2.92756 -0.02282,-5.77683 -1.06387,-8.32841l12.68926,0.98597c-4.74389,2.75983 -8.06849,7.73487 -8.55214,13.21456z" fill="#00ff5f" stroke="none"/><path d="M238.59509,179.4012c-0.18245,-1.0119 -0.45901,-1.99577 -0.82136,-2.94086c2.45329,-0.44855 4.74101,-1.45034 6.70846,-2.88684c1.52451,3.41504 4.1938,6.25393 7.58588,7.96565l-13.47299,-2.13791z" fill="#004fff" stroke="none"/><path d="M250.83716,181.34386c1.06034,-1.81964 1.78518,-3.87521 2.07907,-6.09354c0.38696,-2.92092 -0.02093,-5.76388 -1.05676,-8.311l4.7971,0.37271l-2.14831,14.61435z" fill="#ff0000" stroke="none"/><path d="M236.64323,171.10562c1.36244,2.20708 3.24021,4.08236 5.49074,5.43967c0.05075,1.19949 0.23292,2.37236 0.53406,3.50226l-7.00966,-1.1123l0.98487,-7.82964z" fill="#00efff" stroke="none"/><path d="M245.88429,166.47502c-5.02823,2.15224 -8.85252,6.76979 -9.75301,12.53524l-0.47289,-0.07504l1.65112,-13.12647z" fill="#9c00ff" stroke="none"/></g></g></g></svg>