<svg version="1.1" xmlns="http://www.w3.org/2000/svg" xmlns:xlink="http://www.w3.org/1999/xlink" width="64.98376" height="121.18884" viewBox="0,0,64.98376,121.18884"><defs><linearGradient x1="240.50311" y1="147.79764" x2="240.50311" y2="155.67091" gradientUnits="userSpaceOnUse" id="color-1"><stop offset="0" stop-color="#505050"/><stop offset="1" stop-color="#767676"/></linearGradient><radialGradient cx="235.45425" cy="124.47808" r="13.11833" gradientUnits="userSpaceOnUse" id="color-2"><stop offset="0" stop-color="#ccbe7a"/><stop offset="1" stop-color="#948f62"/></radialGradient><linearGradient x1="251.47543" y1="115.25825" x2="251.47543" y2="124.50071" gradientUnits="userSpaceOnUse" id="color-3"><stop offset="0" stop-color="#464646"/><stop offset="1" stop-color="#343434"/></linearGradient><linearGradient x1="251.47544" y1="115.25825" x2="251.47544" y2="124.50071" gradientUnits="userSpaceOnUse" id="color-4"><stop offset="0" stop-color="#131313"/><stop offset="1" stop-color="#202020"/></linearGradient><linearGradient x1="239.89383" y1="116.2852" x2="239.89383" y2="151.31516" gradientUnits="userSpaceOnUse" id="color-5"><stop offset="0" stop-color="#ffe8b5" stop-opacity="0.32941"/><stop offset="1" stop-color="#c2a53e" stop-opacity="0.63529"/></linearGradient><linearGradient x1="239.89383" y1="116.2852" x2="239.89383" y2="151.31516" gradientUnits="userSpaceOnUse" id="color-6"><stop offset="0" stop-color="#444444"/><stop offset="1" stop-color="#545454"/></linearGradient><linearGradient x1="228.57689" y1="113.82972" x2="228.57689" y2="125.73526" gradientUnits="userSpaceOnUse" id="color-7"><stop offset="0" stop-color="#464646"/><stop offset="1" stop-color="#343434"/></linearGradient><linearGradient x1="228.57689" y1="113.82972" x2="228.57689" y2="125.73526" gradientUnits="userSpaceOnUse" id="color-8"><stop offset="0" stop-color="#131313"/><stop offset="1" stop-color="#202020"/></linearGradient></defs><g transform="translate(-207.30479,-113.3297)"><g data-paper-data="{&quot;isPaintingLayer&quot;:true}" fill-rule="nonzero" stroke-linejoin="miter" stroke-miterlimit="10" stroke-dasharray="" stroke-dashoffset="0" style="mix-blend-mode: normal"><path d="M226.26474,195.96666v-45.53587h25.57697l0.29568,45.53587z" fill="#747474" stroke="none" stroke-width="NaN" stroke-linecap="butt"/><g><path d="M221.55463,225.46209l8.80334,-32.7567c0,0 7.00721,-1.13822 10.03891,-0.67539c3.58716,0.54763 -0.04114,4.28696 -0.04114,4.28696c0,0 -3.06995,-0.37936 -3.58912,0.99381c-1.58775,4.19948 -7.30053,29.35907 -7.30053,29.35907z" fill="#ffefeb" stroke="#000000" stroke-width="0" stroke-linecap="butt"/><path d="M235.96656,232.77761c0,0 -0.67409,1.85972 -1.49151,1.73493c-0.58597,-0.08946 -2.61589,-0.38553 -4.64039,-0.77608c-1.23085,-0.23745 -1.78714,-0.89778 -2.68827,-1.17984c-1.13447,-0.3551 -2.93815,-0.22552 -3.74876,-0.54301c-1.49367,-0.585 -2.23005,-1.12727 -2.23005,-1.12727c0,0 -0.11129,-1.05425 -0.043,-1.61073c0.09199,-0.74971 0.54532,-2.48315 0.54532,-2.48315c0,0 5.88432,0.77736 8.14248,1.32474c1.33622,0.3239 4.09439,1.27935 4.09439,1.27935c0,0 1.35013,0.82885 1.49683,1.28342c0.17966,0.55675 0.56294,2.09765 0.56294,2.09765z" data-paper-data="{&quot;index&quot;:null}" fill="#141415" stroke="#000000" stroke-width="0" stroke-linecap="butt"/><path d="M235.79454,232.10929c0,0 -0.38128,-0.0582 -1.19871,-0.183c-0.24538,-0.03746 0.45263,1.6893 -2.78932,0.92273c-3.06144,-0.7239 -2.56535,-1.59364 -3.64498,-1.83999c-2.25748,-0.51513 -2.64782,0.19769 -3.61295,-0.10442c-0.33611,-0.10521 -0.48955,-0.1906 -1.6177,-1.22856c-0.77586,-0.71383 -0.39376,-1.83161 -0.89186,-2.54302c-0.72759,-1.03917 -0.51461,-1.98622 -0.51461,-1.98622l0.38445,-3.02435c0,0 0.14773,2.25495 0.85265,3.19652c0.6307,0.84243 2.29319,0.33112 2.77135,0.40397c0.83728,0.12758 -0.18776,-3.33458 0.60997,-3.19434c0.42896,0.07541 3.71544,0.33042 3.71544,0.33042c0,0 -0.41865,3.55744 -0.1914,3.61253c1.33621,0.3239 4.454,1.33425 4.454,1.33425c0,0 1.35013,0.82885 1.49683,1.28342c0.17967,0.55675 0.17681,3.01999 0.17681,3.01999z" data-paper-data="{&quot;index&quot;:null}" fill="#252527" stroke="#000000" stroke-width="0" stroke-linecap="butt"/><path d="M227.65477,227.89401l2.80186,-0.67624" data-paper-data="{&quot;index&quot;:null}" fill="none" stroke="#ffffff" stroke-width="0.5" stroke-linecap="round"/><path d="M229.5178,228.54645l2.73687,-1.05414" data-paper-data="{&quot;index&quot;:null}" fill="none" stroke="#ffffff" stroke-width="0.5" stroke-linecap="round"/><path d="M231.63886,229.11557l1.65806,-1.21885" data-paper-data="{&quot;index&quot;:null}" fill="none" stroke="#ffffff" stroke-width="0.5" stroke-linecap="round"/><path d="M227.04165,223.87516l2.19427,0.08966" data-paper-data="{&quot;index&quot;:null}" fill="none" stroke="#969696" stroke-width="0.5" stroke-linecap="round"/><path d="M227.39303,224.78749l1.97283,-0.06681" data-paper-data="{&quot;index&quot;:null}" fill="none" stroke="#969696" stroke-width="0.5" stroke-linecap="round"/></g><path d="M272.05801,199.35574c-0.48904,0.13308 -1.72511,-3.55291 -3.13133,-3.62177c-0.48278,-0.02365 0.86442,5.07496 -0.06546,5.0737c-0.55198,-0.00075 -1.24277,-2.83779 -1.97867,-4.08066c-0.35852,-0.60549 -2.12201,-5.12205 -2.12201,-5.12205c0,0 -0.25195,-3.03596 -1.80239,-6.18531c-0.37284,-0.75733 -1.40074,-3.31383 -1.79206,-4.08783c-0.92617,-1.83189 -1.91584,-3.61385 -2.45362,-4.75158c-1.1567,-2.44705 -5.92555,-14.49071 -5.92555,-14.49071c0,0 -3.85237,-5.9921 -1.7928,-6.68134c6.35214,-2.12575 6.45442,3.60183 6.45442,3.60183c0,0 2.08161,6.2411 4.81657,12.6655c2.05737,4.83273 4.75021,9.77806 5.72506,12.19917c1.15373,2.86542 2.17825,6.72627 2.17825,6.72627c0,0 0.88732,2.64469 1.49918,4.91087c0.55056,2.0391 0.86132,3.71578 0.3904,3.84395z" data-paper-data="{&quot;index&quot;:null}" fill="#8c8c8c" stroke="#000000" stroke-width="0" stroke-linecap="butt"/><path d="M248.66805,208.22126c-0.48772,-0.13781 0.0507,-3.86971 -0.22538,-4.78254c-0.14777,-0.48867 -1.90521,4.60845 -2.70683,4.12691c-0.47586,-0.28585 0.33077,-3.09112 0.31032,-4.54394c-0.00997,-0.70779 0.70149,-5.5167 0.70149,-5.5167c0,0 1.2836,-2.75018 1.50294,-6.26914c0.05274,-0.84622 0.42983,-3.58353 0.47487,-4.45371c0.1066,-2.05944 0.13375,-4.1086 0.23225,-5.36832c0.21184,-2.70942 2.05174,-15.56702 2.05174,-15.56702c0,0 -1.93178,-10.00687 2.63294,-9.37719c4.01796,0.55426 2.91141,9.12812 2.91141,9.12812c0,0 -1.2896,6.46156 -2.10616,13.41888c-0.61425,5.23364 -0.73588,10.89275 -1.09182,13.48583c-0.42124,3.06895 -1.4461,6.9302 -1.4461,6.9302c0,0 -0.54197,2.74081 -1.13444,5.01265c-0.5331,2.04419 -1.63761,3.90867 -2.10726,3.77597z" data-paper-data="{&quot;index&quot;:null}" fill="#969696" stroke="#000000" stroke-width="0" stroke-linecap="butt"/><g><path d="M239.27896,192.39278c3.59191,-0.51559 10.75266,0.6616 10.75266,0.6616l7.7904,32.93735l-7.56185,1.08543c0,0 -4.94208,-25.09054 -6.21828,-28.98061c-0.3617,-1.1025 -3.55978,-1.58891 -3.55978,-1.58891c0,0 -4.23887,-3.67912 -1.20317,-4.11487z" fill="#ffefeb" stroke="#000000" stroke-width="0" stroke-linecap="butt"/><path d="M265.17148,232.09918c-0.58675,0.08422 -2.61534,0.3892 -4.66614,0.60218c-1.24684,0.12949 -1.97063,-0.34126 -2.91484,-0.35003c-1.1887,-0.01103 -2.8774,0.63575 -3.74524,0.56685c-1.59911,-0.12696 -2.46104,-0.43253 -2.46104,-0.43253c0,0 -0.41206,-0.97676 -0.50802,-1.52912c-0.12926,-0.74419 -0.19781,-2.53462 -0.19781,-2.53462c0,0 5.85705,-0.96152 8.17692,-1.09213c1.37274,-0.07729 4.28945,0.03772 4.28945,0.03772c0,0 1.53242,0.40194 1.80456,0.79449c0.33332,0.48077 1.14676,1.84443 1.14676,1.84443c0,0 -0.10612,1.97527 -0.92462,2.09275z" data-paper-data="{&quot;index&quot;:null}" fill="#141415" stroke="#000000" stroke-width="0" stroke-linecap="butt"/><path d="M264.53749,229.58905c-0.24571,0.03527 0.92285,1.48559 -2.40213,1.69158c-3.13985,0.19452 -2.91713,-0.78168 -4.02181,-0.70454c-2.30989,0.1613 -2.47686,0.95666 -3.48811,0.94727c-0.35218,-0.00327 -0.52378,-0.04052 -1.90436,-0.70694c-0.94947,-0.45832 -0.90772,-1.63886 -1.59064,-2.17536c-0.99756,-0.78367 -1.06821,-1.7518 -1.06821,-1.7518l-0.50863,-3.00596c0,0 0.79496,2.11532 1.74254,2.81217c0.84782,0.62348 2.29073,-0.34775 2.76948,-0.41662c0.83833,-0.12057 -1.1462,-3.13702 -0.34206,-3.23401c0.43239,-0.05216 3.65172,-0.76066 3.65172,-0.76066c0,0 0.63042,3.52609 0.86388,3.51295c1.37274,-0.07729 4.64953,-0.01396 4.64953,-0.01396c0,0 1.53242,0.40194 1.80457,0.79449c0.33332,0.48077 1.04454,2.83911 1.04454,2.83911c0,0 -0.38177,0.0548 -1.2003,0.1723z" data-paper-data="{&quot;index&quot;:null}" fill="#252527" stroke="#000000" stroke-width="0" stroke-linecap="butt"/><path d="M256.72567,227.74159l2.48558,-1.45929" fill="none" stroke="#ffffff" stroke-width="0.5" stroke-linecap="round"/><path d="M261.0117,226.02391l-2.31387,1.80215" fill="none" stroke="#ffffff" stroke-width="0.5" stroke-linecap="round"/><path d="M262.12643,226.10893l-1.23362,1.6471" fill="none" stroke="#ffffff" stroke-width="0.5" stroke-linecap="round"/><path d="M254.97405,224.07297l2.12606,-0.55019" fill="none" stroke="#969696" stroke-width="0.5" stroke-linecap="round"/><path d="M257.44357,224.20851l-1.86878,0.63575" fill="none" stroke="#969696" stroke-width="0.5" stroke-linecap="round"/></g><g><path d="M229.63982,193.59157c0,0 1.05415,-4.96832 0.53438,-10.35244c-0.16183,-1.6764 -0.21302,-5.68895 -0.71668,-7.54193c-0.59549,-2.19087 -2.53406,-2.77781 -2.61907,-4.12911c-0.1679,-2.66921 -1.07001,-6.79369 -0.41646,-11.37123c0.49266,-3.45066 3.45852,-6.29847 3.45852,-6.29847c0,0 3.98746,-0.28908 5.76508,0.07712c2.26281,0.46615 7.72658,0.47022 9.64,0.05396c2.01891,-0.43921 5.48447,0.01677 5.48447,0.01677c0,0 2.62113,3.52189 2.84787,7.84095c0.214,4.0764 -0.63262,8.46783 -0.70926,10.13771c-0.07768,1.69256 -1.49509,2.1313 -2.13228,4.27482c-0.50833,1.71005 -0.54704,5.19044 -0.67745,7.18949c-0.3029,4.64296 0.14784,10.27371 0.14784,10.27371c0,0 -2.75697,-0.76932 -5.57187,-0.83754c-1.27833,-0.03098 -1.79126,1.00612 -2.99851,1.16532c-0.96496,0.12724 -2.63623,-0.61291 -3.56107,-0.64966c-0.69915,-0.02778 -2.04377,-0.5306 -2.53801,-0.53471c-0.99795,-0.0083 -1.61572,0.86529 -2.77345,1.02464c-1.34484,0.1851 -3.1641,-0.33939 -3.1641,-0.33939z" fill="#9d9d9d" stroke="#292e32" stroke-width="0" stroke-linecap="butt"/><path d="M234.10868,169.03909l2.23101,-9.03889" fill="#ff0000" stroke="#ff0000" stroke-width="1" stroke-linecap="round"/><path d="M231.89036,159.47483l-3.98374,8.1094" fill="#ff0000" stroke="#ff0000" stroke-width="1" stroke-linecap="round"/><path d="M230.87412,168.51689l3.1604,-8.83095" fill="#ff0000" stroke="#ff0000" stroke-width="1" stroke-linecap="round"/><path d="M248.03363,169.12297l-1.60782,-9.03889" data-paper-data="{&quot;index&quot;:null}" fill="#ff0000" stroke="#ff0000" stroke-width="1" stroke-linecap="round"/><path d="M252.50326,167.66821l-2.87096,-8.1094" data-paper-data="{&quot;index&quot;:null}" fill="#ff0000" stroke="#ff0000" stroke-width="1" stroke-linecap="round"/><path d="M250.36467,168.60079l-2.2776,-8.83096" data-paper-data="{&quot;index&quot;:null}" fill="#ff0000" stroke="#ff0000" stroke-width="1" stroke-linecap="round"/><path d="M231.85509,190.20259c0.00046,-0.41422 0.33663,-0.74962 0.75084,-0.74916c0.41422,0.00046 0.74962,0.33663 0.74916,0.75084c-0.00046,0.41422 -0.33662,0.74962 -0.75084,0.74916c-0.41422,-0.00046 -0.74962,-0.33663 -0.74916,-0.75084z" fill="#002dff" stroke="none" stroke-width="0.5" stroke-linecap="butt"/><path d="M235.54214,190.20673c0.00046,-0.41422 0.33663,-0.74962 0.75084,-0.74916c0.41422,0.00046 0.74962,0.33663 0.74916,0.75084c-0.00046,0.41422 -0.33662,0.74962 -0.75084,0.74916c-0.41422,-0.00046 -0.74962,-0.33663 -0.74916,-0.75084z" fill="#002dff" stroke="none" stroke-width="0.5" stroke-linecap="butt"/><path d="M239.33161,190.21094c0.00046,-0.41422 0.33662,-0.74962 0.75084,-0.74916c0.41422,0.00046 0.74962,0.33663 0.74916,0.75084c-0.00046,0.41422 -0.33663,0.74962 -0.75084,0.74916c-0.41422,-0.00046 -0.74962,-0.33663 -0.74916,-0.75084z" fill="#002dff" stroke="none" stroke-width="0.5" stroke-linecap="butt"/><path d="M243.22349,190.2154c0.00046,-0.41422 0.33663,-0.74963 0.75084,-0.74916c0.41422,0.00046 0.74962,0.33663 0.74916,0.75084c-0.00046,0.41422 -0.33663,0.74962 -0.75084,0.74916c-0.41422,-0.00046 -0.74962,-0.33662 -0.74916,-0.75084z" fill="#002dff" stroke="none" stroke-width="0.5" stroke-linecap="butt"/><path d="M246.91054,190.21961c0.00046,-0.41422 0.33663,-0.74963 0.75084,-0.74916c0.41422,0.00046 0.74962,0.33663 0.74916,0.75085c-0.00046,0.41422 -0.33663,0.74962 -0.75084,0.74915c-0.41422,-0.00046 -0.74962,-0.33662 -0.74916,-0.75084z" fill="#002dff" stroke="none" stroke-width="0.5" stroke-linecap="butt"/><path d="M239.01546,177.61449c0,-1.38071 1.11929,-2.5 2.5,-2.5c1.38071,0 2.5,1.11929 2.5,2.5c0,1.38071 -1.11929,2.5 -2.5,2.5c-1.38071,0 -2.5,-1.11929 -2.5,-2.5z" fill="#797979" stroke="#00ff35" stroke-width="1" stroke-linecap="butt"/><path d="M231.78574,177.30719h5.73541" fill="none" stroke="#00ff35" stroke-width="1" stroke-linecap="round"/><path d="M248.99199,177.40963h-3.58464" fill="none" stroke="#00ff35" stroke-width="1" stroke-linecap="round"/></g><path d="M207.91016,195.01739c0.61081,-2.26799 1.50697,-4.91432 1.50697,-4.91432c0,0 1.02163,-3.86398 2.19614,-6.7307c0.99241,-2.42221 3.76197,-7.36796 5.86088,-12.2026c2.79018,-6.42694 4.89194,-12.67196 4.89194,-12.67196c0,0 1.89416,-5.46661 6.76829,-3.48588c4.43355,1.80167 -1.32903,6.93357 -1.32903,6.93357c0,0 -5.3078,11.69777 -6.49222,14.14547c-0.55068,1.13804 -1.5691,2.92011 -2.51955,4.75234c-0.40159,0.77415 -1.44792,3.3318 -1.83021,4.08932c-1.58972,3.15004 -1.80717,6.18988 -1.80717,6.18988c0,0 -1.79303,4.51874 -2.16263,5.12423c-0.75863,1.24282 -1.44368,4.08233 -2.02782,4.08164c-0.98401,-0.00112 0.37754,-6.15519 -0.00749,-5.81037c-0.71925,0.64412 -2.87931,4.48261 -3.39898,4.34805c-0.50042,-0.12958 -0.19872,-1.80793 0.35089,-3.84864z" data-paper-data="{&quot;index&quot;:null}" fill="#a1a1a1" stroke="#000000" stroke-width="0" stroke-linecap="butt"/><path d="M227.54744,204.57338c-0.62081,-2.26526 -1.18695,-5.00126 -1.18695,-5.00126c0,0 -1.07407,-3.84973 -1.51165,-6.91666c-0.36973,-2.5914 -0.48355,-8.25866 -1.11963,-13.49075c-0.84557,-6.95524 -2.19289,-13.40525 -2.19289,-13.40525c0,0 -1.21854,-9.08435 5.21907,-8.82273c3.49919,0.14221 0.64555,8.97169 0.64555,8.97169c0,0 1.91268,12.8478 2.12967,15.55832c0.10089,1.26023 0.12426,3.31265 0.23162,5.37393c0.04538,0.87093 0.43711,3.60645 0.49068,4.45324c0.22282,3.52141 1.5735,6.25336 1.5735,6.25336c0,0 0.65056,9.86868 0.22161,10.14636c-1.24948,0.80882 -1.88129,-5.50651 -2.15217,-4.98435c-0.51172,0.98646 -0.18723,5.21426 -0.70355,5.36116c-0.49719,0.14146 -1.08626,-1.45883 -1.64487,-3.49709z" data-paper-data="{&quot;index&quot;:null}" fill="#adadad" stroke="#000000" stroke-width="0" stroke-linecap="butt"/><g><path d="M230.86128,155.67091v-7.87321c0,0 6.36471,3.42314 9.45991,3.42314c3.31728,0 9.82375,-3.42314 9.82375,-3.42314v7.87321c0,0 -6.37741,0.68463 -9.58119,0.68463c-3.22398,0 -9.70247,-0.68463 -9.70247,-0.68463z" fill="url(#color-1)" stroke="none" stroke-width="0" stroke-linecap="butt"/><path d="M251.22504,117.79778c0,0 -0.26338,3.24445 -0.58861,4.57283c-0.26638,1.08795 -1.2217,2.82111 -1.2217,2.82111" data-paper-data="{&quot;index&quot;:null}" fill="none" stroke="#3b2c16" stroke-width="1.25" stroke-linecap="round"/><path d="M252.62929,121.93604c0,0 -0.18908,2.27851 -0.58872,3.23539c-0.42269,1.01206 -1.88216,2.68074 -1.88216,2.68074" data-paper-data="{&quot;index&quot;:null}" fill="none" stroke="#3b2c16" stroke-width="1.25" stroke-linecap="round"/><path d="M248.97182,116.03375c0,0 0.11659,3.27103 -0.03039,4.69304c-0.12038,1.16464 -0.78772,3.22209 -0.78772,3.22209" data-paper-data="{&quot;index&quot;:null}" fill="none" stroke="#3b2c16" stroke-width="1.25" stroke-linecap="round"/><path d="M252.55187,134.25851c0,7.39154 -8.18556,17.31455 -11.39879,17.3764c-6.69145,0.1288 -14.23242,-9.98486 -14.23242,-17.3764c0,-7.39154 5.73774,-13.38356 12.8156,-13.38356c7.07786,0 12.8156,5.99202 12.8156,13.38356z" fill="url(#color-2)" stroke="none" stroke-width="0" stroke-linecap="butt"/><path d="M241.64848,135.34168c0,2.06292 -0.85162,3.73524 -1.90215,3.73524c-1.05053,0 -1.90214,-1.67233 -1.90214,-3.73524c0,-2.06292 0.85162,-3.73523 1.90214,-3.73523c1.05053,0 1.90215,1.67232 1.90215,3.73523z" fill="none" stroke="#191412" stroke-width="1.5" stroke-linecap="butt"/><path d="M246.38252,129.77999c0,2.06292 -0.85162,3.73524 -1.90214,3.73524c-1.05053,0 -1.90215,-1.67233 -1.90215,-3.73524c0,-2.06292 0.85162,-3.73524 1.90215,-3.73524c1.05053,0 1.90214,1.67232 1.90214,3.73524z" fill="none" stroke="#191412" stroke-width="1.5" stroke-linecap="butt"/><path d="M251.07877,135.29521c0,2.06292 -0.85161,3.73524 -1.90214,3.73524c-1.05053,0 -1.90215,-1.67233 -1.90215,-3.73524c0,-2.06292 0.85162,-3.73523 1.90215,-3.73523c1.05053,0 1.90214,1.67232 1.90214,3.73523z" fill="none" stroke="#191412" stroke-width="1.5" stroke-linecap="butt"/><path d="M246.3253,140.42404c0,2.06292 -0.85162,3.73524 -1.90214,3.73524c-1.05053,0 -1.90215,-1.67233 -1.90215,-3.73524c0,-2.06292 0.85162,-3.73523 1.90215,-3.73523c1.05053,0 1.90214,1.67232 1.90214,3.73523z" fill="none" stroke="#191412" stroke-width="1.5" stroke-linecap="butt"/><path d="M232.27208,125.51313c0,0 -1.55639,-1.73224 -1.99089,-2.81993c-0.53052,-1.32806 -0.96207,-4.57226 -0.96207,-4.57226" fill="none" stroke="#47341a" stroke-width="1.5" stroke-linecap="round"/><path d="M231.06405,128.17424c0,0 -2.37686,-1.66727 -3.06571,-2.67893c-0.6513,-0.9565 -0.96105,-3.23482 -0.96105,-3.23482" fill="none" stroke="#47341a" stroke-width="1.5" stroke-linecap="round"/><path d="M234.32336,124.26909c0,0 -1.08798,-2.05681 -1.28494,-3.22133c-0.24048,-1.42187 -0.05363,-4.693 -0.05363,-4.693" fill="none" stroke="#47341a" stroke-width="1.5" stroke-linecap="round"/><path d="M248.22346,118.68138l-0.1141,-3.42313h6.73217v9.24246c0,0 -2.61174,-3.02641 -3.82969,-4.09736c-0.86469,-0.76032 -2.78838,-1.72198 -2.78838,-1.72198z" fill="url(#color-3)" stroke="url(#color-4)" stroke-width="1" stroke-linecap="butt"/><path d="M239.89382,151.31516c-9.01159,0 -16.31694,-7.84175 -16.31694,-17.51504c0,-9.67328 7.30535,-17.51503 16.31694,-17.51503c9.0116,0 16.31695,7.84174 16.31695,17.51503c0,9.67329 -7.30535,17.51504 -16.31695,17.51504z" fill="url(#color-5)" stroke="url(#color-6)" stroke-width="2.5" stroke-linecap="butt"/><path d="M229.17407,120.45731c-1.56888,1.37953 -4.93315,5.27795 -4.93315,5.27795v-11.90555h8.67195l-0.14699,4.40945c0,0 -2.47798,1.23874 -3.59181,2.21814z" data-paper-data="{&quot;index&quot;:null}" fill="url(#color-7)" stroke="url(#color-8)" stroke-width="1" stroke-linecap="butt"/></g></g></g></svg>