<svg version="1.1" xmlns="http://www.w3.org/2000/svg" xmlns:xlink="http://www.w3.org/1999/xlink" width="119.04801" height="138.17414" viewBox="0,0,119.04801,138.17414"><defs><linearGradient x1="286.29125" y1="111.61631" x2="280.20612" y2="127.09596" gradientUnits="userSpaceOnUse" id="color-1"><stop offset="0" stop-color="#4a4a4a" stop-opacity="0"/><stop offset="1" stop-color="#4a4a4a" stop-opacity="0.6549"/></linearGradient><linearGradient x1="290.36278" y1="112.86335" x2="280.35714" y2="127.85688" gradientUnits="userSpaceOnUse" id="color-2"><stop offset="0" stop-color="#292929" stop-opacity="0"/><stop offset="1" stop-color="#292929" stop-opacity="0.58824"/></linearGradient><linearGradient x1="292.9336" y1="115.5717" x2="279.41571" y2="127.09057" gradientUnits="userSpaceOnUse" id="color-3"><stop offset="0" stop-color="#383838" stop-opacity="0"/><stop offset="1" stop-color="#383838" stop-opacity="0.76078"/></linearGradient><linearGradient x1="288.43876" y1="114.00715" x2="280.31849" y2="127.01697" gradientUnits="userSpaceOnUse" id="color-4"><stop offset="0" stop-color="#4b4b4b" stop-opacity="0"/><stop offset="1" stop-color="#4b4b4b" stop-opacity="0.75294"/></linearGradient><linearGradient x1="234.5053" y1="147.8915" x2="291.71803" y2="177.11565" gradientUnits="userSpaceOnUse" id="color-5"><stop offset="0" stop-color="#8f8f8f"/><stop offset="1" stop-color="#302e2d"/></linearGradient><linearGradient x1="262.48442" y1="120.95066" x2="296.37543" y2="138.26212" gradientUnits="userSpaceOnUse" id="color-6"><stop offset="0" stop-color="#ffe83c"/><stop offset="1" stop-color="#a77c00"/></linearGradient><linearGradient x1="281.07749" y1="126.38092" x2="277.78236" y2="132.83186" gradientUnits="userSpaceOnUse" id="color-7"><stop offset="0" stop-color="#348317"/><stop offset="1" stop-color="#3c5b0d"/></linearGradient><linearGradient x1="256.60918" y1="132.02358" x2="290.50019" y2="149.33504" gradientUnits="userSpaceOnUse" id="color-8"><stop offset="0" stop-color="#ffe83c"/><stop offset="1" stop-color="#a77c00"/></linearGradient><linearGradient x1="275.20225" y1="137.45383" x2="271.90713" y2="143.90477" gradientUnits="userSpaceOnUse" id="color-9"><stop offset="0" stop-color="#348317"/><stop offset="1" stop-color="#3c5b0d"/></linearGradient><radialGradient cx="231.55571" cy="201.68744" r="27.13216" gradientUnits="userSpaceOnUse" id="color-10"><stop offset="0" stop-color="#93bde8"/><stop offset="1" stop-color="#52607f"/></radialGradient><linearGradient x1="242.27348" y1="190.72123" x2="242.27348" y2="244.98073" gradientUnits="userSpaceOnUse" id="color-11"><stop offset="0" stop-color="#348317"/><stop offset="1" stop-color="#3c5b0d"/></linearGradient><radialGradient cx="261.28017" cy="202.84645" r="27.13216" gradientUnits="userSpaceOnUse" id="color-12"><stop offset="0" stop-color="#93bde8"/><stop offset="1" stop-color="#52607f"/></radialGradient><linearGradient x1="272.02022" y1="190.82574" x2="272.02022" y2="245.08524" gradientUnits="userSpaceOnUse" id="color-13"><stop offset="0" stop-color="#348317"/><stop offset="1" stop-color="#3c5b0d"/></linearGradient><linearGradient x1="242.55649" y1="179.70993" x2="242.55649" y2="191.78861" gradientUnits="userSpaceOnUse" id="color-14"><stop offset="0" stop-color="#348317"/><stop offset="1" stop-color="#3c5b0d"/></linearGradient><linearGradient x1="271.36134" y1="179.98948" x2="271.36134" y2="192.06815" gradientUnits="userSpaceOnUse" id="color-15"><stop offset="0" stop-color="#348317"/><stop offset="1" stop-color="#3c5b0d"/></linearGradient><linearGradient x1="186.22599" y1="206.50508" x2="232.84012" y2="206.50508" gradientUnits="userSpaceOnUse" id="color-16"><stop offset="0" stop-color="#3f3f3f"/><stop offset="1" stop-color="#313131"/></linearGradient><linearGradient x1="209.53306" y1="168.71137" x2="209.53306" y2="244.29878" gradientUnits="userSpaceOnUse" id="color-17"><stop offset="0" stop-color="#348317"/><stop offset="1" stop-color="#3c5b0d"/></linearGradient><linearGradient x1="180.476" y1="206.5356" x2="237.59012" y2="206.5356" gradientUnits="userSpaceOnUse" id="color-18"><stop offset="0" stop-color="#4a4a4a"/><stop offset="1" stop-color="#373737"/></linearGradient><linearGradient x1="209.03307" y1="190.78038" x2="209.03307" y2="222.29081" gradientUnits="userSpaceOnUse" id="color-19"><stop offset="0" stop-color="#348317"/><stop offset="1" stop-color="#3c5b0d"/></linearGradient><linearGradient x1="188.833" y1="179.78592" x2="229.44712" y2="179.78592" gradientUnits="userSpaceOnUse" id="color-20"><stop offset="0" stop-color="#ff4489"/><stop offset="1" stop-color="#ff0053"/></linearGradient><linearGradient x1="209.14006" y1="172.35337" x2="209.14006" y2="187.21847" gradientUnits="userSpaceOnUse" id="color-21"><stop offset="0" stop-color="#348317"/><stop offset="1" stop-color="#3c5b0d"/></linearGradient><linearGradient x1="183.226" y1="206.6296" x2="233.59012" y2="206.6296" gradientUnits="userSpaceOnUse" id="color-22"><stop offset="0" stop-color="#ff4489"/><stop offset="1" stop-color="#ff0053"/></linearGradient><linearGradient x1="208.40807" y1="199.19704" x2="208.40807" y2="214.06215" gradientUnits="userSpaceOnUse" id="color-23"><stop offset="0" stop-color="#348317"/><stop offset="1" stop-color="#3c5b0d"/></linearGradient><linearGradient x1="188.833" y1="233.23383" x2="229.44712" y2="233.23383" gradientUnits="userSpaceOnUse" id="color-24"><stop offset="0" stop-color="#ff4489"/><stop offset="1" stop-color="#ff0053"/></linearGradient><linearGradient x1="209.14006" y1="225.80128" x2="209.14006" y2="240.66638" gradientUnits="userSpaceOnUse" id="color-25"><stop offset="0" stop-color="#348317"/><stop offset="1" stop-color="#3c5b0d"/></linearGradient></defs><g transform="translate(-180.476,-106.91312)"><g data-paper-data="{&quot;isPaintingLayer&quot;:true}" fill-rule="nonzero" stroke-linecap="butt" stroke-linejoin="miter" stroke-miterlimit="10" stroke-dasharray="" stroke-dashoffset="0" style="mix-blend-mode: normal"><path d="M268.43302,120.12455l-0.01656,-0.01261l-0.00427,-0.01886c-0.07568,-0.11962 -0.10301,-0.22705 -0.07019,-0.31055l0.06419,-0.16329l0.06378,-0.03833l0.02371,-0.06031l0.07863,-0.04725l0.14233,-0.3621l-0.00101,-0.2324l0.0239,-0.03007l-0.01039,-0.046l0.00171,-0.00436l-0.00852,-0.0211l-0.07625,-0.10366l-0.03484,-0.09481l-0.29577,-0.49924l-0.00781,-0.04498l-0.04109,-0.05586l-0.07172,-0.1952l-0.06361,-0.08329l-0.03714,-0.09198l-0.07625,-0.10366l-0.15765,-0.42909l0.01403,-0.08685l-0.02322,-0.10275l0.0148,-0.03767l-0.02193,-0.09701l0.02371,-0.0603l-0.01778,-0.07868l0.00726,-0.01848l-0.0121,-0.03293l0.01402,-0.08685l-0.02322,-0.10275l0.24391,-0.62049l0.06378,-0.03833l0.02371,-0.06031l0.07863,-0.04725l0.05332,-0.13564l0.06378,-0.03833l0.02371,-0.06031l0.13008,-0.07816l0.14439,-0.10995l0.04795,-0.00969l0.01875,-0.02758l0.22089,-0.0902l0.12682,-0.09658l0.04795,-0.00969l0.01875,-0.02758l0.21093,-0.08614l0.13557,-0.12169l0.10774,-0.02685l0.07236,-0.04953l0.27743,-0.04815l0.21991,-0.11197l0.07952,-0.00811l0.04535,-0.03104l0.995,-0.17267l0.47463,-0.19383l0.09866,-0.00556l0.06408,-0.02993l0.26784,-0.02233l0.19134,-0.05684l0.07739,-0.00011l0.04713,-0.02202l0.33738,-0.02812l0.05786,0.0069l0.03715,-0.00993l0.19577,0.00274l0.40189,-0.1194l0.04056,-0.00006l0.02055,-0.01407l1.22847,-0.21319l0.30137,-0.12307l0.29251,-0.24346l0.0631,-0.01433l0.02846,-0.03566l0.4214,-0.14923l0.19135,-0.25881l0.03432,-0.01304l0.00693,-0.02833l0.30314,-0.23086l0.31116,-0.27932l0.23344,-0.34342l0.4441,-1.12973l0.0195,-0.27011l-0.0673,-0.29774l-0.0891,-0.30778l0.00252,-0.00876l-0.00809,-0.01284l-0.02991,-0.13231l-0.09564,-0.20549l0.00019,-0.01734l-0.01716,-0.02334l-0.07173,-0.1952l-0.0636,-0.0833l-0.01982,-0.04908l-0.02119,-0.01235l-0.07335,-0.09972l-0.11716,-0.10689l0.00891,-0.04027l-0.11262,-0.15312l-0.00695,-0.01891l-0.0009,-0.00128l-0.08777,-0.08263l-0.14361,-0.18808l-0.03713,-0.09198l-0.04653,-0.06327l-0.14046,-0.13954l-0.08642,-0.12342l-0.1194,-0.13049l-0.06539,-0.11037l-0.00429,-0.02478l-0.16271,-0.14847l0.00581,-0.02627l-0.06064,-0.06627l-0.0654,-0.11037l-0.05584,-0.32202l0.25228,-0.00898l0.07367,-0.12413l0.5991,0.10016l0.10963,0.03231l0.00949,-0.001l0.03941,0.01541l0.03644,0.01074l0.31598,0.12717l0.31522,0.12335l0.03806,0.01883l0.0395,0.0159l0.01157,0.00937l2.29394,1.13499l0.7345,0.329l0.62874,0.27336l0.09637,0.05202l0.09875,0.03864l0.46928,0.23219l0.20821,0.08147l0.16815,0.0832l0.16889,0.06609l0.18213,0.09011l0.15738,0.09535l0.16815,0.0832l0.35142,0.21288l0.12275,0.09106l0.14225,0.08436l0.18884,0.13695l0.09819,0.03753l0.13777,0.10685l0.16427,0.09952l0.03904,0.05816l0.21072,0.16342l0.0995,0.06414l0.14011,0.11129l0.16317,0.10702l0.24752,0.20048l0.07732,0.08139l0.1068,0.08282l0.07429,0.07381l0.14556,0.11789l0.07732,0.08139l0.1068,0.08282l0.15646,0.15542l0.05356,0.07647l0.08777,0.08263l0.02412,0.03159l0.04158,0.03368l0.07732,0.08139l0.10679,0.08282l0.15645,0.15543l0.05355,0.07648l0.08777,0.08263l0.27064,0.35445l0.64705,0.77526l0.04653,0.09419l0.08494,0.10463l0.07449,0.16004l0.13382,0.16034l0.04653,0.09419l0.08494,0.10463l0.10428,0.22404l0.09568,0.16151l0.18834,0.26897l0.02351,0.07328l0.06287,0.08548l0.03484,0.09481l0.09961,0.16813l0.01193,0.06881l0.05207,0.08263l0.19302,0.85389l0.04298,0.11697l-0.00342,0.02118l0.01854,0.02941l0.07388,0.32683l0.04298,0.11698l-0.01403,0.08685l0.02322,0.10275l-0.02765,0.07032l0.02193,0.09701l-0.0047,0.01194l0.01002,0.01785l0.02687,0.20835l-0.00427,0.00757l0.00609,0.0119l0.01029,0.17676l0.08243,0.1771l-0.00058,0.05335l0.038,0.06773l0.02687,0.20835l-0.00426,0.00757l0.00609,0.0119l0.01132,0.19437l0.08554,0.23283l-0.00692,0.04286l0.02919,0.05701l0.01132,0.19437l0.08554,0.23283l-0.00552,0.03413l0.02595,0.04626l0.02196,0.17018l0.08958,0.24383l-0.00342,0.02118l0.01854,0.02942l0.02991,0.13231l0.05219,0.11214l0.48243,0.57802l0.18614,0.15897l0.0903,0.10228l0.123,0.10583l0.26114,0.29894l1.14669,1.13918l0.25629,0.21888l0.10121,0.11464l0.13346,0.11849l0.17455,0.20913l0.33216,0.32999l0.05356,0.07647l0.08777,0.08263l0.04128,0.05406l0.15834,0.13523l0.12054,0.13653l0.1492,0.14047l0.28722,0.37616l0.01757,0.04352l0.04693,0.05129l0.09123,0.15399l0.16183,0.1939l0.03206,0.06487l0.06751,0.07379l0.13078,0.22074l0.0046,0.02651l0.02731,0.03364l0.10428,0.22404l0.2433,0.41068l0.0046,0.02651l0.02731,0.03364l0.10428,0.22404l0.11253,0.18994l0.0046,0.02651l0.02731,0.03364l0.11793,0.2534l-0.00043,0.03967l0.03252,0.05161l0.01821,0.08058l0.129,0.18421l0.02351,0.07328l0.06287,0.08548l0.10509,0.28605l-0.00692,0.04286l0.02919,0.05701l0.00987,0.16941l0.13983,0.27748l0.00385,0.08311l0.04407,0.09852l-0.00997,0.26236l0.07761,0.26807l-0.01018,0.03545l0.02333,0.04905l0.00237,0.54056l0.01363,0.23409l-0.02515,0.03631l0.01208,0.05342l-0.28242,0.71846l-0.05161,0.03101l-0.01268,0.05194l-0.15526,0.11823l-0.04795,0.00969l-0.01875,0.02758l-0.15941,0.0651l-0.03294,0.0838l-0.02084,0.01253l0.01486,0.02508l-0.14433,0.05272l-0.11671,0.07013l-0.04342,-0.01165l-0.02579,0.00942l-0.06164,0.00219l-0.05266,0.03165l-0.13908,0.01954l-0.10965,0.04005l-0.09771,0.00348l-0.04726,0.0193l-0.11966,0.00674l-0.08558,0.03125l-0.16349,0.00582l-0.06798,0.0118l-0.1664,-0.01091l-0.13952,0.01162l-0.92989,-0.11096l-0.29324,0.01044l-0.18473,0.03205l-0.08451,-0.00554l-0.01338,0.02253l-0.10938,-0.01828l-0.01337,0.00916l-0.02181,0.00379l-0.01489,0.00894l-0.0144,-0.00386l-0.41587,0.07217l-0.08451,-0.00554l-0.01338,0.02253l-0.23043,-0.03853l-0.07748,-0.00508l-0.0038,0.00641l-0.06554,-0.01096l-0.05837,-0.00383l-0.01951,-0.00919l-0.087,-0.01454l-0.07748,-0.00508l-0.0038,0.00641l-0.06554,-0.01096l-0.05837,-0.00383l-0.01951,-0.00919l-0.087,-0.01454l-0.2052,-0.01346l-0.06858,-0.03231l-0.09491,-0.01587l-0.19496,-0.05745l-0.09898,-0.03984l-0.09039,-0.02211l-0.57206,-0.20502l-0.18091,-0.08361l-0.00682,-0.00201l-0.31598,-0.12717l-0.31522,-0.12335l-0.03806,-0.01883l-0.0395,-0.0159l-0.01157,-0.00937l-0.04881,-0.02415l-0.24605,-0.10123l-0.20157,-0.07224l-0.22131,-0.10228l-0.22053,-0.0863l-0.41579,-0.20572l-0.06585,-0.0236l-0.22131,-0.10228l-0.22053,-0.0863l-0.05153,-0.02549l-0.06585,-0.0236l-0.05399,-0.02495l-0.05081,-0.01434l-0.37709,-0.14757l-0.16815,-0.0832l-0.16889,-0.06609l-0.32471,-0.16066l-0.06586,-0.02361l-0.05397,-0.02495l-0.05081,-0.01434l-0.37709,-0.14757l-0.16815,-0.0832l-0.16889,-0.06609l-0.77537,-0.38363l-0.33179,-0.13652l-0.13497,-0.06955l-0.13664,-0.05347l-11.20081,-5.5419l-0.20551,-0.12449l-0.21656,-0.11436l-0.52071,-0.33565l-0.03,-0.02382l-0.08342,-0.04128l-0.01397,-0.00326l-0.03709,-0.022l-0.03806,-0.01883l-0.29377,-0.17796l-0.29678,-0.17601l-0.03165,-0.02294l-0.03671,-0.02225l-0.00574,-0.00854l-0.0952,-0.06904l-0.46992,-0.42876l0.05726,-0.25886l-0.0009,-0.00133l0.00122,-0.00013l0.0357,-0.16139c-0.32123,-0.20121 -0.57126,-0.42077 -0.70369,-0.61258z" fill="url(#color-1)" stroke="none" stroke-width="0.5"/><path d="M268.0085,120.09552l-0.01684,-0.0137l-0.00137,-0.01908c-0.06517,-0.12439 -0.07653,-0.23329 -0.02256,-0.31416l0.10554,-0.15816l0.08135,-0.03374l0.03898,-0.05841l0.10028,-0.04159l0.23404,-0.35072l0.04294,-0.23153l0.03346,-0.02829l-0.00334,-0.04654l0.00281,-0.00422l-0.00589,-0.02161l-0.06887,-0.10855l-0.02246,-0.09685l-0.24869,-0.51776l-0.00052,-0.04533l-0.03711,-0.05849l-0.04623,-0.19939l-0.05805,-0.08737l-0.02567,-0.09419l-0.06887,-0.10855l-0.10162,-0.43829l0.03277,-0.08552l-0.00747,-0.10394l0.02435,-0.03648l-0.00705,-0.09814l0.03898,-0.05841l-0.00571,-0.07959l0.01195,-0.0179l-0.0078,-0.03364l0.03277,-0.08552l-0.00747,-0.10394l0.40107,-0.60101l0.08135,-0.03374l0.03898,-0.05841l0.10029,-0.04159l0.08768,-0.13138l0.08134,-0.03374l0.03898,-0.05841l0.16591,-0.06881l0.18855,-0.09947l0.05752,-0.00632l0.02701,-0.02617l0.27364,-0.07448l0.16561,-0.08737l0.05752,-0.00632l0.02701,-0.02617l0.2613,-0.07112l0.18055,-0.11177l0.13022,-0.01926l0.09341,-0.0443l0.33133,-0.02866l0.27663,-0.09623l0.09389,-0.00254l0.05855,-0.02777l1.18829,-0.10279l0.58799,-0.16004l0.11562,0.00133l0.08012,-0.02536l0.31528,-0.00361l0.233,-0.04331l0.0899,0.00527l0.05889,-0.01865l0.39714,-0.00456l0.06587,0.0109l0.04503,-0.00731l0.22684,0.01634l0.48938,-0.09097l0.04712,0.00276l0.02654,-0.01258l1.46712,-0.12692l0.37335,-0.10162l0.38592,-0.22214l0.07601,-0.00989l0.03983,-0.03353l0.51771,-0.11934l0.27134,-0.24445l0.04233,-0.0106l0.01342,-0.02774l0.39587,-0.20884l0.4144,-0.25655l0.33629,-0.32579l0.73022,-1.09425l0.07393,-0.26765l-0.02163,-0.30119l-0.04503,-0.31271l0.00458,-0.00855l-0.00695,-0.01335l-0.00961,-0.13385l-0.07206,-0.21131l0.00351,-0.01726l-0.0155,-0.02443l-0.04623,-0.19939l-0.05805,-0.08737l-0.0137,-0.05026l-0.02226,-0.01377l-0.06625,-0.10442l-0.11575,-0.11461l0.01799,-0.03949l-0.10173,-0.16032l-0.00448,-0.01931l-0.0008,-0.00134l-0.08623,-0.08839l-0.13108,-0.1973l-0.02567,-0.09419l-0.04203,-0.06624l-0.13662,-0.14874l-0.07693,-0.12892l-0.11388,-0.13826l-0.05498,-0.11447l-0.00028,-0.02499l-0.16078,-0.15917l0.01173,-0.02576l-0.05785,-0.07023l-0.05498,-0.11447l-0.00371,-0.32459l0.2947,0.00859l0.10912,-0.1185l0.67673,0.1414l0.12117,0.03979l0.01122,-0.00035l0.04283,0.0181l0.04028,0.01323l0.34281,0.14862l0.34265,0.14477l0.04062,0.0214l0.04284,0.01858l0.01165,0.01013l2.44849,1.28981l0.79053,0.3787l0.67825,0.31596l0.10205,0.0585l0.10734,0.04535l0.50091,0.26386l0.22633,0.09563l0.17949,0.09455l0.18358,0.07756l0.1944,0.10241l0.16467,0.10589l0.17949,0.09455l0.36768,0.23644l0.12527,0.09923l0.14917,0.09391l0.1933,0.14952l0.1069,0.04421l0.13971,0.11599l0.17187,0.11052l0.03429,0.06064l0.21368,0.17741l0.10337,0.07079l0.14159,0.12057l0.16917,0.11792l0.24938,0.21687l0.07435,0.08643l0.1083,0.08991l0.07227,0.07867l0.14665,0.12753l0.07434,0.08642l0.1083,0.08991l0.15218,0.16567l0.04767,0.07988l0.08623,0.08839l0.02201,0.03313l0.04188,0.03643l0.07435,0.08643l0.1083,0.08991l0.15218,0.16567l0.04767,0.07988l0.08623,0.08839l0.24701,0.37182l0.60423,0.81708l0.03615,0.09704l0.07877,0.1101l0.05612,0.16457l0.12496,0.16898l0.03615,0.09704l0.07877,0.1101l0.07857,0.23038l0.08046,0.1675l0.16766,0.28096l0.0134,0.07462l0.05679,0.08949l0.02246,0.09685l0.08375,0.17436l0.00079,0.06936l0.04479,0.08591l0.06203,0.86382l0.0277,0.11948l-0.008,0.02086l0.01595,0.03058l0.02375,0.33063l0.0277,0.11948l-0.03277,0.08552l0.00747,0.10394l-0.04545,0.06811l0.00705,0.09813l-0.00772,0.01157l0.00825,0.01847l-0.00835,0.20936l-0.00639,0.00724l0.00482,0.01227l-0.02161,0.17675l0.0621,0.18211l-0.01079,0.05309l0.03126,0.07009l-0.00835,0.20936l-0.00638,0.00724l0.00482,0.01227l-0.02375,0.19437l0.05514,0.23783l-0.01617,0.0422l0.02309,0.0588l-0.02375,0.19437l0.05514,0.23783l-0.01288,0.03361l0.02136,0.04787l-0.00682,0.17102l0.05774,0.24905l-0.008,0.02086l0.01595,0.03058l0.00961,0.13385l0.03932,0.11532l0.4505,0.6092l0.18597,0.17126l0.08544,0.10813l0.12275,0.11395l0.24649,0.31587l1.11539,1.21425l0.25607,0.2358l0.09578,0.12122l0.13249,0.12729l0.16299,0.22041l0.32309,0.35173l0.04768,0.07988l0.08623,0.08839l0.03768,0.0567l0.15821,0.14569l0.11405,0.14435l0.1466,0.15026l0.26214,0.3946l0.01215,0.04456l0.04476,0.05435l0.07671,0.1597l0.15112,0.20436l0.0249,0.06684l0.0644,0.07818l0.10996,0.22893l0.0003,0.02672l0.02533,0.03541l0.07857,0.23038l0.20458,0.42593l0.0003,0.02672l0.02533,0.03541l0.07857,0.23038l0.09463,0.197l0.0003,0.02672l0.02533,0.03541l0.08886,0.26057l-0.00804,0.03948l0.02798,0.05366l0.00585,0.08152l0.11483,0.19242l0.0134,0.07462l0.05679,0.08949l0.06774,0.29219l-0.01617,0.0422l0.02309,0.0588l-0.02071,0.16941l0.10971,0.28607l-0.01131,0.08305l0.03248,0.10118l-0.06139,0.2606l0.03923,0.27237l-0.01855,0.0346l0.01778,0.05048l-0.09987,0.53853l-0.02861,0.23409l-0.0361,0.03441l0.00388,0.05404l-0.46439,0.6959l-0.06581,0.02729l-0.02459,0.05085l-0.20274,0.10696l-0.05752,0.00632l-0.02701,0.02617l-0.19749,0.05375l-0.05416,0.08116l-0.02659,0.01103l0.0125,0.02601l-0.17763,0.04247l-0.14885,0.06173l-0.04822,-0.01462l-0.03173,0.00758l-0.07201,-0.0021l-0.06717,0.02786l-0.16524,0.00979l-0.13495,0.03226l-0.11413,-0.00332l-0.05855,0.01594l-0.14023,-0.0016l-0.10532,0.02518l-0.19097,-0.00556l-0.08119,0.00702l-0.19118,-0.02243l-0.16423,0.00188l-1.05882,-0.17515l-0.34252,-0.00998l-0.22062,0.01908l-0.0971,-0.0114l-0.01982,0.02151l-0.12354,-0.02582l-0.01728,0.00819l-0.02606,0.00225l-0.01898,0.00788l-0.01598,-0.00485l-0.49664,0.04296l-0.0971,-0.0114l-0.01982,0.02151l-0.26029,-0.05438l-0.08901,-0.01045l-0.00564,0.00612l-0.07404,-0.01547l-0.06706,-0.00787l-0.02091,-0.01051l-0.09827,-0.02053l-0.08901,-0.01045l-0.00564,0.00612l-0.07404,-0.01547l-0.06706,-0.00787l-0.02091,-0.01051l-0.09827,-0.02053l-0.23574,-0.02767l-0.0735,-0.03694l-0.1072,-0.0224l-0.21551,-0.07077l-0.10739,-0.04655l-0.10077,-0.0283l-0.62541,-0.24395l-0.1942,-0.09585l-0.00754,-0.00248l-0.34281,-0.14862l-0.34265,-0.14476l-0.04062,-0.0214l-0.04285,-0.01858l-0.01165,-0.01013l-0.0521,-0.02744l-0.26652,-0.11792l-0.22036,-0.08595l-0.23759,-0.11725l-0.23972,-0.10128l-0.4438,-0.23378l-0.072,-0.02808l-0.23759,-0.11725l-0.23972,-0.10128l-0.055,-0.02898l-0.072,-0.02808l-0.05795,-0.02859l-0.05629,-0.01782l-0.4099,-0.17318l-0.17949,-0.09455l-0.18358,-0.07756l-0.3466,-0.18258l-0.07201,-0.02808l-0.05795,-0.0286l-0.05629,-0.01782l-0.4099,-0.17318l-0.17949,-0.09455l-0.18358,-0.07756l-0.82762,-0.43598l-0.35939,-0.15902l-0.14355,-0.07865l-0.14853,-0.06275l-11.95546,-6.29791l-0.21503,-0.13827l-0.22978,-0.12895l-0.54098,-0.37048l-0.03031,-0.02581l-0.08904,-0.04691l-0.0156,-0.00423l-0.0389,-0.02449l-0.04062,-0.0214l-0.30735,-0.19765l-0.31124,-0.19592l-0.03239,-0.02505l-0.03842,-0.02471l-0.00504,-0.0089l-0.09744,-0.07537l-0.46432,-0.45969l0.11566,-0.25382l-0.00078,-0.0014l0.00145,-0.00005l0.07211,-0.15825c-0.33485,-0.22272 -0.58353,-0.45877 -0.7009,-0.659z" fill="url(#color-2)" stroke="none" stroke-width="0.5"/><path d="M268.58821,119.69705l-0.01407,-0.01265l0.00286,-0.01581c-0.03854,-0.10766 -0.02582,-0.19818 0.0471,-0.26031l0.14259,-0.1215l0.09025,-0.02111l0.05266,-0.04487l0.11126,-0.02603l0.3162,-0.26944l0.09529,-0.18698l0.04034,-0.02054l0.00697,-0.03856l0.00381,-0.00325l-0.00117,-0.01826l-0.04583,-0.09492l-0.00124,-0.08152l-0.13748,-0.44628l0.00958,-0.03734l-0.0247,-0.05115l-0.00256,-0.16781l-0.03955,-0.07662l-0.00511,-0.07959l-0.04583,-0.09492l-0.00562,-0.36889l0.0524,-0.06768l0.01558,-0.08613l0.03289,-0.02803l0.01472,-0.08131l0.05266,-0.04487l0.01193,-0.06596l0.01614,-0.01376l-0.00043,-0.02831l0.05239,-0.06769l0.01558,-0.08613l0.54185,-0.46173l0.09025,-0.02111l0.05266,-0.04487l0.11126,-0.02603l0.11845,-0.10093l0.09024,-0.02112l0.05266,-0.04487l0.18406,-0.04306l0.21392,-0.06644l0.0599,-0.00051l0.03331,-0.01932l0.29489,-0.03894l0.18789,-0.05836l0.0599,-0.00051l0.03331,-0.01932l0.28159,-0.03719l0.20852,-0.07723l0.13671,-0.00521l0.10488,-0.02883l0.34333,0.00347l0.30277,-0.05659l0.09605,0.00557l0.06573,-0.01807l1.23133,0.01242l0.63363,-0.08368l0.11729,0.01053l0.08712,-0.01433l0.32143,0.02276l0.2466,-0.01661l0.09026,0.01168l0.06405,-0.01054l0.40488,0.02868l0.06456,0.01434l0.04741,-0.00234l0.22703,0.03196l0.51796,-0.03489l0.0473,0.00612l0.0298,-0.00818l1.52027,0.01533l0.40233,-0.05314l0.44198,-0.15126l0.0795,-0.00193l0.04797,-0.02434l0.55309,-0.05592l0.33044,-0.17896l0.04541,-0.00527l0.01984,-0.02173l0.44913,-0.13951l0.47861,-0.17725l0.41462,-0.24059l0.98655,-0.84066l0.13485,-0.21417l0.04515,-0.24956l0.02392,-0.26096l0.00656,-0.00666l-0.0041,-0.01155l0.02007,-0.11091l-0.02617,-0.17973l0.00742,-0.01391l-0.01032,-0.02137l-0.00257,-0.16782l-0.03955,-0.07663l-0.00272,-0.04248l-0.01956,-0.01315l-0.04409,-0.09131l-0.09217,-0.10373l0.0271,-0.03101l-0.0677,-0.1402l-0.00024,-0.01625l-0.00051,-0.00117l-0.06799,-0.07977l-0.0893,-0.17302l-0.00511,-0.07959l-0.02798,-0.05793l-0.10578,-0.13352l-0.04949,-0.11235l-0.085,-0.12305l-0.03039,-0.09866l0.00528,-0.02058l-0.12801,-0.14407l0.01768,-0.02024l-0.04317,-0.06249l-0.0304,-0.09867l0.06861,-0.26735l0.29777,0.03112l0.13738,-0.08859l0.65667,0.17157l0.11436,0.04263l0.01148,0.00062l0.03952,0.01838l0.03802,0.01417l0.31548,0.15026l0.31619,0.14707l0.03654,0.02093l0.03943,0.01878l0.00959,0.00929l2.20243,1.26104l0.71949,0.3761l0.6193,0.31531l0.09073,0.05647l0.09904,0.04607l0.45057,0.25798l0.20884,0.09715l0.16145,0.09243l0.1694,0.0788l0.17486,0.10012l0.14385,0.10057l0.16145,0.09243l0.3212,0.22454l0.10526,0.09186l0.13077,0.08943l0.16325,0.1388l0.09885,0.04509l0.11621,0.10683l0.15015,0.10496l0.02136,0.05269l0.17775,0.1634l0.08934,0.06668l0.11711,0.11075l0.14574,0.11083l0.20526,0.19878l0.05634,0.07718l0.09008,0.08281l0.05595,0.07063l0.1207,0.1169l0.05634,0.07718l0.09008,0.08281l0.11783,0.14872l0.03067,0.06961l0.06799,0.07977l0.015,0.02906l0.03448,0.03338l0.05634,0.07718l0.09008,0.08281l0.11783,0.14873l0.03067,0.06961l0.06799,0.07977l0.1683,0.32607l0.43231,0.72156l0.01513,0.08278l0.05556,0.09702l0.02038,0.13998l0.08941,0.14923l0.01513,0.08278l0.05556,0.09702l0.02853,0.19595l0.04447,0.14438l0.10787,0.24484l-0.00301,0.06248l0.0378,0.07827l0.00124,0.08152l0.0463,0.15029l-0.01466,0.05713l0.0264,0.07434l-0.1295,0.71576l0.00154,0.10056l-0.01278,0.01651l0.0094,0.02646l-0.04957,0.27396l0.00154,0.10056l-0.0524,0.06768l-0.01558,0.08613l-0.06142,0.05233l-0.01471,0.08132l-0.01043,0.00889l0.00426,0.01587l-0.05517,0.17156l-0.00811,0.00543l0.00216,0.01049l-0.06137,0.14366l0.02255,0.1549l-0.02282,0.0428l0.01617,0.06021l-0.05517,0.17156l-0.00811,0.00543l0.00216,0.01049l-0.06749,0.15797l0.00305,0.20017l-0.02585,0.0334l0.01036,0.05027l-0.06749,0.15797l0.00305,0.20017l-0.0206,0.0266l0.01104,0.04113l-0.04507,0.14015l0.00319,0.20961l-0.01278,0.01651l0.0094,0.02646l-0.02007,0.11091l0.01428,0.09808l0.32232,0.53798l0.15095,0.15608l0.06278,0.09594l0.09943,0.10377l0.18026,0.28l0.86357,1.09005l0.20784,0.21491l0.07038,0.10754l0.10636,0.11554l0.11662,0.19464l0.25015,0.31575l0.03067,0.06961l0.06799,0.07977l0.02566,0.04972l0.12842,0.13278l0.08381,0.12807l0.11558,0.13559l0.17861,0.34605l0.00242,0.03766l0.03341,0.04837l0.0424,0.13765l0.10813,0.18046l0.01042,0.05703l0.04806,0.06957l0.06079,0.19732l-0.00565,0.02201l0.01786,0.0312l0.02853,0.19595l0.11309,0.36712l-0.00565,0.02201l0.01786,0.0312l0.02853,0.19595l0.0523,0.1698l-0.00565,0.02201l0.01786,0.03119l0.03227,0.22163l-0.01697,0.03182l0.01649,0.04643l-0.01222,0.06755l0.07388,0.16768l-0.00301,0.06248l0.0378,0.07827l0.00375,0.24593l-0.02585,0.0334l0.01036,0.05027l-0.05883,0.1377l0.04779,0.24431l-0.03001,0.0674l0.01047,0.0859l-0.12052,0.20939l-0.02083,0.22729l-0.02657,0.02695l0.00683,0.04299l-0.22163,0.43492l-0.08128,0.19025l-0.04439,0.02536l-0.00811,0.04478l-0.62741,0.53464l-0.07302,0.01708l-0.03635,0.03982l-0.23003,0.07145l-0.0599,0.00051l-0.03331,0.01932l-0.21281,0.0281l-0.07317,0.06235l-0.02949,0.0069l0.00691,0.02242l-0.1901,0.02044l-0.16513,0.03864l-0.04578,-0.01597l-0.03395,0.00365l-0.07276,-0.00761l-0.07452,0.01744l-0.17021,-0.00543l-0.14442,0.01553l-0.11533,-0.01206l-0.0631,0.00833l-0.14225,-0.01277l-0.11273,0.01212l-0.19297,-0.02017l-0.08413,-0.00085l-0.18941,-0.03407l-0.16743,-0.01186l-1.03771,-0.23053l-0.34611,-0.03618l-0.2286,-0.0023l-0.0962,-0.0173l-0.02494,0.01608l-0.11988,-0.03133l-0.01939,0.00533l-0.02701,-0.00027l-0.02106,0.00492l-0.01517,-0.00529l-0.51463,-0.00519l-0.0962,-0.0173l-0.02494,0.01608l-0.25257,-0.06599l-0.08819,-0.01587l-0.00709,0.00457l-0.07185,-0.01877l-0.06644,-0.01195l-0.01892,-0.01035l-0.09536,-0.02492l-0.08819,-0.01587l-0.00709,0.00457l-0.07185,-0.01877l-0.06644,-0.01195l-0.01892,-0.01035l-0.09536,-0.02492l-0.23357,-0.04201l-0.06652,-0.0364l-0.10402,-0.02718l-0.20338,-0.07582l-0.09882,-0.04707l-0.09617,-0.03151l-0.58162,-0.25176l-0.17613,-0.0947l-0.00712,-0.00266l-0.31548,-0.15026l-0.31618,-0.14707l-0.03654,-0.02093l-0.03944,-0.01879l-0.00959,-0.00929l-0.04687,-0.02683l-0.24474,-0.11878l-0.20493,-0.0887l-0.21547,-0.11586l-0.2212,-0.10289l-0.3992,-0.22857l-0.06696,-0.02898l-0.21547,-0.11586l-0.2212,-0.10289l-0.04947,-0.02833l-0.06696,-0.02898l-0.05256,-0.02826l-0.05327,-0.01925l-0.37824,-0.17593l-0.16145,-0.09243l-0.1694,-0.0788l-0.31176,-0.1785l-0.06696,-0.02898l-0.05256,-0.02826l-0.05327,-0.01925l-0.37824,-0.17593l-0.16145,-0.09243l-0.1694,-0.0788l-0.74444,-0.42624l-0.33003,-0.16016l-0.12844,-0.07643l-0.13706,-0.06375l-10.75393,-6.15739l-0.18785,-0.13131l-0.20492,-0.12484l-0.46755,-0.34896l-0.02506,-0.02371l-0.08009,-0.04586l-0.01492,-0.00475l-0.0341,-0.02332l-0.03654,-0.02093l-0.26851,-0.1877l-0.27284,-0.1866l-0.02735,-0.02326l-0.03356,-0.02346l-0.00314,-0.00774l-0.08228,-0.06996l-0.3697,-0.4161l0.17421,-0.19939l-0.00049,-0.00122l0.00148,0.00008l0.1086,-0.12431c-0.29086,-0.21057 -0.49114,-0.42508 -0.56585,-0.59939z" fill="url(#color-3)" stroke="none" stroke-width="0.5"/><path d="M269.73274,120.42026l-0.01451,-0.01168l-0.00157,-0.01644c-0.05766,-0.10677 -0.06958,-0.2006 -0.02577,-0.27077l0.08566,-0.13723l0.06791,-0.02974l0.03164,-0.05068l0.08372,-0.03666l0.18994,-0.30432l0.03126,-0.20001l0.02763,-0.02465l-0.00382,-0.04011l0.00229,-0.00366l-0.00544,-0.01859l-0.06044,-0.09307l-0.02102,-0.08335l-0.22095,-0.44458l-0.00141,-0.03909l-0.03257,-0.05015l-0.04329,-0.1716l-0.05085,-0.0749l-0.02368,-0.08103l-0.06044,-0.09307l-0.09515,-0.37721l0.02582,-0.07401l-0.00853,-0.08958l0.01976,-0.03166l-0.00806,-0.08458l0.03164,-0.05068l-0.00654,-0.0686l0.0097,-0.01553l-0.0073,-0.02895l0.02582,-0.07401l-0.00852,-0.08959l0.32549,-0.5215l0.06791,-0.02974l0.03164,-0.05068l0.08372,-0.03666l0.07116,-0.11399l0.06791,-0.02974l0.03164,-0.05068l0.13851,-0.06064l0.15695,-0.08727l0.04841,-0.0059l0.02223,-0.02279l0.22929,-0.06639l0.13786,-0.07665l0.04841,-0.0059l0.02224,-0.02278l0.21895,-0.0634l0.14993,-0.09781l0.10946,-0.01763l0.07787,-0.03894l0.27894,-0.02733l0.23134,-0.08516l0.07917,-0.00293l0.0488,-0.02441l1.0004,-0.098l0.49268,-0.14265l0.09758,0.00024l0.06705,-0.0225l0.26594,-0.0056l0.19566,-0.03919l0.07597,0.00383l0.0493,-0.01654l0.33499,-0.00705l0.05582,0.00888l0.03783,-0.00666l0.19173,0.0123l0.41096,-0.0823l0.03981,0.00201l0.02212,-0.01106l1.23515,-0.121l0.31284,-0.09057l0.32085,-0.19461l0.06392,-0.00913l0.03288,-0.02923l0.43426,-0.10699l0.2237,-0.21296l0.03549,-0.00947l0.01073,-0.02403l0.32953,-0.18322l0.34414,-0.22452l0.27675,-0.28362l0.59263,-0.94947l0.05663,-0.23141l-0.02472,-0.2596l-0.04471,-0.26935l0.00368,-0.00741l-0.00616,-0.01145l-0.01099,-0.11536l-0.06533,-0.18167l0.00259,-0.01491l-0.01361,-0.02095l-0.04329,-0.1716l-0.05085,-0.0749l-0.01263,-0.04325l-0.01907,-0.01171l-0.05815,-0.08953l-0.10013,-0.09793l0.01433,-0.03419l-0.08927,-0.13747l-0.00419,-0.01662l-0.00071,-0.00115l-0.07466,-0.07555l-0.11483,-0.16913l-0.02368,-0.08103l-0.03689,-0.0568l-0.11847,-0.1272l-0.06768,-0.11058l-0.09906,-0.11835l-0.04885,-0.09829l-0.00078,-0.02155l-0.13907,-0.13601l0.00935,-0.02231l-0.05032,-0.06011l-0.04885,-0.09829l-0.01009,-0.27991l0.24883,0.00509l0.08952,-0.10306l0.57402,0.11663l0.1031,0.03337l0.00945,-0.00038l0.03653,0.01527l0.03427,0.01109l0.29244,0.12549l0.29222,0.12216l0.03473,0.01813l0.03655,0.01569l0.01005,0.00865l2.0936,1.09315l0.67513,0.3204l0.57905,0.26717l0.08735,0.04965l0.09153,0.03826l0.4283,0.22364l0.19301,0.08068l0.15347,0.08013l0.15656,0.06545l0.16623,0.08679l0.14121,0.09003l0.15347,0.08013l0.31532,0.20103l0.10782,0.08459l0.12788,0.07981l0.16631,0.12743l0.09114,0.03729l0.12037,0.09893l0.1474,0.09398l0.03024,0.05203l0.18411,0.15132l0.08874,0.06024l0.12205,0.10288l0.14526,0.10038l0.21507,0.18508l0.06459,0.07395l0.0933,0.07669l0.06267,0.06728l0.12648,0.10884l0.06459,0.07395l0.0933,0.07669l0.13196,0.14169l0.04194,0.06852l0.07466,0.07555l0.01928,0.02841l0.03612,0.03108l0.06459,0.07395l0.0933,0.07669l0.13196,0.14169l0.04194,0.06852l0.07467,0.07556l0.21639,0.31873l0.52736,0.69994l0.03259,0.08341l0.06883,0.09434l0.05089,0.14149l0.10907,0.14476l0.03259,0.08341l0.06883,0.09433l0.07122,0.19807l0.07148,0.14383l0.1475,0.241l0.0129,0.06424l0.04983,0.07674l0.02102,0.08335l0.07441,0.14972l0.00216,0.05981l0.03963,0.07373l0.07089,0.74452l0.02593,0.10283l-0.0063,0.01806l0.01411,0.02626l0.02713,0.28496l0.02594,0.10283l-0.02582,0.07401l0.00853,0.08959l-0.03689,0.05911l0.00806,0.08458l-0.00627,0.01004l0.00735,0.01587l-0.00255,0.18063l-0.00523,0.00629l0.00432,0.01055l-0.01444,0.15261l0.05631,0.15658l-0.00797,0.04588l0.02788,0.0602l-0.00254,0.18062l-0.00523,0.0063l0.00432,0.01055l-0.01587,0.16781l0.05163,0.20468l-0.01274,0.03653l0.02074,0.05054l-0.01587,0.16781l0.05163,0.20468l-0.01014,0.02909l0.01905,0.04112l-0.00207,0.14755l0.05406,0.21434l-0.0063,0.01806l0.01411,0.02626l0.01099,0.11536l0.03566,0.09915l0.39319,0.52185l0.16059,0.14624l0.07441,0.09259l0.10602,0.09732l0.21477,0.27049l0.96717,1.03846l0.22112,0.20136l0.08342,0.10379l0.11452,0.10874l0.14227,0.18881l0.28016,0.30081l0.04194,0.06852l0.07466,0.07555l0.033,0.04861l0.13663,0.12441l0.09934,0.1236l0.12691,0.12844l0.22966,0.33827l0.01121,0.03834l0.03894,0.04652l0.06815,0.13712l0.1319,0.17506l0.02245,0.05745l0.05601,0.06693l0.09769,0.19657l0.00083,0.02304l0.02213,0.03033l0.07123,0.19807l0.18176,0.36573l0.00083,0.02304l0.02213,0.03033l0.07123,0.19807l0.08407,0.16916l0.00083,0.02304l0.02213,0.03033l0.08057,0.22402l-0.00593,0.03411l0.02476,0.04606l0.00668,0.07026l0.10101,0.16505l0.0129,0.06424l0.04983,0.07674l0.06344,0.25148l-0.01273,0.03652l0.02074,0.05054l-0.01384,0.14627l0.09871,0.24585l-0.00775,0.07171l0.02958,0.08701l-0.0462,0.22523l0.03895,0.2346l-0.0149,0.02998l0.01608,0.0434l-0.07271,0.46524l-0.01911,0.20211l-0.02972,0.02996l0.00443,0.04658l-0.37689,0.60383l-0.05495,0.02406l-0.01967,0.04404l-0.16877,0.09384l-0.04841,0.0059l-0.02224,0.02278l-0.16548,0.04791l-0.04395,0.07042l-0.02219,0.00972l0.0111,0.02234l-0.14896,0.03802l-0.12427,0.05441l-0.04099,-0.01223l-0.02661,0.00679l-0.0608,-0.00125l-0.05608,0.02455l-0.1392,0.00975l-0.11317,0.02888l-0.09638,-0.00197l-0.04906,0.01421l-0.11835,-0.00028l-0.08832,0.02255l-0.16125,-0.0033l-0.06836,0.0067l-0.16178,-0.01785l-0.13853,0.00291l-0.89714,-0.14273l-0.28922,-0.00592l-0.18573,0.01819l-0.08217,-0.00906l-0.01625,0.0187l-0.10481,-0.02129l-0.01439,0.0072l-0.02194,0.00215l-0.01585,0.00693l-0.01358,-0.00405l-0.41813,0.04096l-0.08217,-0.00906l-0.01625,0.0187l-0.22078,-0.04485l-0.07533,-0.00831l-0.00463,0.00532l-0.06281,-0.01276l-0.05676,-0.00626l-0.01786,-0.0089l-0.08336,-0.01694l-0.07533,-0.00831l-0.00463,0.00532l-0.06281,-0.01276l-0.05676,-0.00626l-0.01786,-0.0089l-0.08336,-0.01694l-0.1995,-0.02201l-0.06281,-0.03129l-0.09093,-0.01848l-0.18335,-0.05934l-0.09161,-0.03931l-0.08563,-0.02362l-0.53293,-0.20548l-0.16592,-0.08113l-0.00642,-0.00208l-0.29243,-0.12548l-0.29221,-0.12215l-0.03473,-0.01814l-0.03656,-0.01568l-0.01005,-0.00865l-0.04455,-0.02326l-0.22741,-0.09961l-0.18777,-0.0724l-0.20298,-0.09926l-0.20443,-0.08547l-0.37947,-0.19814l-0.06134,-0.02365l-0.20297,-0.09925l-0.20443,-0.08545l-0.04703,-0.02456l-0.06134,-0.02365l-0.04952,-0.02421l-0.04787,-0.01492l-0.34958,-0.14614l-0.15347,-0.08013l-0.15656,-0.06545l-0.29636,-0.15474l-0.06135,-0.02366l-0.04952,-0.02421l-0.04787,-0.01492l-0.34957,-0.14613l-0.15347,-0.08013l-0.15656,-0.06545l-0.70766,-0.3695l-0.30664,-0.13432l-0.12281,-0.06672l-0.12667,-0.05295l-10.22259,-5.33764l-0.18439,-0.11756l-0.19665,-0.10941l-0.4644,-0.31527l-0.02612,-0.02202l-0.07614,-0.03976l-0.01325,-0.00351l-0.03335,-0.02081l-0.03473,-0.01813l-0.26358,-0.16805l-0.26681,-0.16652l-0.02786,-0.02136l-0.03295,-0.021l-0.00444,-0.00765l-0.08383,-0.06423l-0.40164,-0.3928l0.09214,-0.21982l-0.00069,-0.00119l0.00122,-0.00005l0.05744,-0.13705c-0.28731,-0.18945 -0.5022,-0.39107 -0.60553,-0.56283z" fill="url(#color-4)" stroke="none" stroke-width="0.5"/><path d="M214.5453,186.96762c0,0 18.88478,-18.19982 27.46741,-30.26738c8.49872,-11.94957 23.7791,-41.7875 23.7791,-41.7875l33.7322,16.91854c0,0 -16.07374,29.22186 -20.78051,43.52233c-4.54272,13.80201 -6.98547,40.83816 -6.98547,40.83816z" fill="url(#color-5)" stroke="none" stroke-width="0"/><path d="M260.83686,124.17613l3.29513,-6.45094l33.89101,17.31146l-3.29513,6.45094z" fill="url(#color-6)" stroke="url(#color-7)" stroke-width="0"/><path d="M254.96162,135.24904l3.29513,-6.45094l33.891,17.31146l-3.29513,6.45094z" fill="url(#color-8)" stroke="url(#color-9)" stroke-width="0"/><path d="M260.08259,217.85098c0,14.98335 0.01372,26.93128 -17.8091,27.12975c-16.49564,0.18369 -17.8091,-12.1464 -17.8091,-27.12975c0,-14.98335 2.64508,-26.92288 17.8091,-27.12975c15.82517,-0.21589 17.8091,12.1464 17.8091,27.12975z" fill="url(#color-10)" stroke="url(#color-11)" stroke-width="0"/><path d="M289.82932,217.95549c0,14.98335 0.01372,26.93128 -17.8091,27.12975c-16.49563,0.18369 -17.8091,-12.1464 -17.8091,-27.12975c0,-14.98335 2.64508,-26.92288 17.8091,-27.12975c15.82517,-0.2159 17.8091,12.1464 17.8091,27.12975z" fill="url(#color-12)" stroke="url(#color-13)" stroke-width="0"/><path d="M240.5167,191.78861v-12.07868h4.07958v12.07868z" fill="#312d29" stroke="url(#color-14)" stroke-width="0"/><path d="M269.32155,192.06815v-12.07868h4.07958v12.07868z" fill="#312d29" stroke="url(#color-15)" stroke-width="0"/><path d="M238.91773,184.49552v-3.56521h35.48265v3.56521z" fill="#36322e" stroke="none" stroke-width="0"/><path d="M186.22599,244.29878v-75.58741h46.61412v75.58741z" fill="url(#color-16)" stroke="url(#color-17)" stroke-width="0"/><path d="M180.476,222.29081v-31.51043h57.11412v31.51043z" fill="url(#color-18)" stroke="url(#color-19)" stroke-width="0"/><path d="M188.833,187.21847v-14.86511h40.61412v14.86511z" fill="url(#color-20)" stroke="url(#color-21)" stroke-width="0"/><path d="M183.226,214.06215v-14.86511h50.36412v14.86511z" fill="url(#color-22)" stroke="url(#color-23)" stroke-width="0"/><path d="M188.833,240.66638v-14.86511h40.61412v14.86511z" fill="url(#color-24)" stroke="url(#color-25)" stroke-width="0"/></g></g></svg>