<svg version="1.1" xmlns="http://www.w3.org/2000/svg" xmlns:xlink="http://www.w3.org/1999/xlink" width="84.5" height="38.32609" viewBox="0,0,84.5,38.32609"><defs><linearGradient x1="240" y1="161.58695" x2="240" y2="198.41312" gradientUnits="userSpaceOnUse" id="color-1"><stop offset="0" stop-color="#2b4b31"/><stop offset="1" stop-color="#395a1b"/></linearGradient><linearGradient x1="240" y1="161.58695" x2="240" y2="198.41312" gradientUnits="userSpaceOnUse" id="color-2"><stop offset="0" stop-color="#12301b"/><stop offset="1" stop-color="#446d2c"/></linearGradient><linearGradient x1="258.65234" y1="194.73149" x2="261.25361" y2="188.66562" gradientUnits="userSpaceOnUse" id="color-3"><stop offset="0" stop-color="#242424"/><stop offset="1" stop-color="#373737"/></linearGradient><radialGradient cx="256.70723" cy="194.68767" r="1.94379" gradientUnits="userSpaceOnUse" id="color-4"><stop offset="0" stop-color="#bfbfbf"/><stop offset="1" stop-color="#9a9a9a"/></radialGradient><linearGradient x1="262.18651" y1="188.6889" x2="277.36944" y2="168.73637" gradientUnits="userSpaceOnUse" id="color-5"><stop offset="0" stop-color="#b2b2b2"/><stop offset="1" stop-color="#c4c4c4"/></linearGradient><linearGradient x1="262.44444" y1="188.67744" x2="272.38194" y2="175.61818" gradientUnits="userSpaceOnUse" id="color-6"><stop offset="0" stop-color="#cccccc"/><stop offset="1" stop-color="#d8d8d8"/></linearGradient><linearGradient x1="261.16766" y1="189.66204" x2="262.00192" y2="188.605" gradientUnits="userSpaceOnUse" id="color-7"><stop offset="0" stop-color="#b5b5b5"/><stop offset="1" stop-color="#c5c5c5"/></linearGradient></defs><g transform="translate(-197.75,-160.83703)"><g data-paper-data="{&quot;isPaintingLayer&quot;:true}" fill-rule="nonzero" stroke-linecap="butt" stroke-linejoin="miter" stroke-miterlimit="10" stroke-dasharray="" stroke-dashoffset="0" style="mix-blend-mode: normal"><path d="M198.5,198.41312v-36.82609h83v36.82609z" fill="url(#color-1)" stroke="url(#color-2)" stroke-width="1.5"/><text transform="translate(201.08,170.56883) scale(0.21667,0.21667)" font-size="40" xml:space="preserve" fill="#ff0000" fill-rule="nonzero" stroke="none" stroke-width="1" stroke-linecap="butt" stroke-linejoin="miter" stroke-miterlimit="10" stroke-dasharray="" stroke-dashoffset="0" font-family="Serif" font-weight="normal" text-anchor="start" style="mix-blend-mode: normal"><tspan x="0" dy="0">Combat Skills</tspan></text><text transform="translate(200.3,195.63118) scale(0.12749,0.12749)" font-size="40" xml:space="preserve" fill="#ff0000" fill-rule="nonzero" stroke="none" stroke-width="1" stroke-linecap="butt" stroke-linejoin="miter" stroke-miterlimit="10" stroke-dasharray="" stroke-dashoffset="0" font-family="Serif" font-weight="normal" text-anchor="start" style="mix-blend-mode: normal"><tspan x="0" dy="0">15k R</tspan></text><path d="M259.20941,194.97038l-2.21044,-1.68071l3.69756,-4.86294l2.21043,1.68071z" fill="url(#color-3)" stroke="none" stroke-width="0"/><path d="M258.40311,192.84676c0.98662,0.4231 1.44346,1.56592 1.02035,2.55254c-0.42311,0.98662 -1.56591,1.44346 -2.55253,1.02035c-0.98662,-0.4231 -1.44346,-1.56591 -1.02036,-2.55253c0.4231,-0.98662 1.56592,-1.44346 2.55254,-1.02036z" fill="url(#color-4)" stroke="none" stroke-width="0"/><path d="M264.22889,190.24305l-4.08477,-3.10832l15.9083,-19.17531l3.65186,-2.64433l-1.45917,4.20891z" fill="url(#color-5)" stroke="none" stroke-width="0"/><path d="M263.78123,189.69467l-2.85222,-2.11842l13.3318,-15.9774l3.92324,-4.06417l-2.76144,4.74157z" fill="url(#color-6)" stroke="none" stroke-width="0"/><path d="M257.61613,183.60432c0,0 2.72835,3.47487 4.42057,4.84712c1.85798,1.50668 6.27655,3.82742 6.27655,3.82742c0,0 -5.35663,-1.34899 -7.15864,-2.81029c-1.76283,-1.42951 -3.53848,-5.86426 -3.53848,-5.86426z" fill="url(#color-7)" stroke="none" stroke-width="0"/></g></g></svg>