<svg version="1.1" xmlns="http://www.w3.org/2000/svg" xmlns:xlink="http://www.w3.org/1999/xlink" width="47.20644" height="104.23364" viewBox="0,0,47.20644,104.23364"><defs><radialGradient cx="235.52448" cy="177.50476" r="21.06357" gradientUnits="userSpaceOnUse" id="color-1"><stop offset="0" stop-color="#353535"/><stop offset="1" stop-color="#8c8c8c"/></radialGradient><linearGradient x1="239.74787" y1="156.81832" x2="239.74787" y2="163.66937" gradientUnits="userSpaceOnUse" id="color-2"><stop offset="0" stop-color="#696969"/><stop offset="1" stop-color="#a0a0a0"/></linearGradient><radialGradient cx="235.71182" cy="134.16612" r="13.11833" gradientUnits="userSpaceOnUse" id="color-3"><stop offset="0" stop-color="#dcdcdc"/><stop offset="1" stop-color="#a0a0a0"/></radialGradient><radialGradient cx="242.43512" cy="139.6674" r="8.83664" gradientUnits="userSpaceOnUse" id="color-4"><stop offset="0" stop-color="#ffc4c4"/><stop offset="1" stop-color="#ff2121"/></radialGradient></defs><g transform="translate(-218.32192,-130.39767)"><g data-paper-data="{&quot;isPaintingLayer&quot;:true}" fill-rule="nonzero" stroke-linejoin="miter" stroke-miterlimit="10" stroke-dasharray="" stroke-dashoffset="0" style="mix-blend-mode: normal"><path d="M221.55679,200.07636v-45.14319h27.93538v45.14319z" fill="url(#color-1)" stroke="#ed6b00" stroke-width="0" stroke-linecap="butt"/><g><path d="M222.59242,226.20506l7.58023,-33.06116c0,0 10.48046,-0.72425 12.17753,0.21676c0.93036,0.51587 -0.07718,1.86872 -1.85221,2.78238c-1.45376,0.74828 -3.65824,1.09205 -3.74998,1.36498c-1.43062,4.25556 -6.20469,29.61005 -6.20469,29.61005z" fill="#494949" stroke="#000000" stroke-width="0" stroke-linecap="butt"/><path d="M235.92385,232.8259c0,0 -0.56721,1.88777 -1.30875,1.80261c-0.53156,-0.06104 -2.3727,-0.25871 -4.21105,-0.55089c-1.11767,-0.17763 -1.63528,-0.80964 -2.456,-1.04766c-1.03324,-0.29966 -2.66031,-0.08357 -3.40002,-0.36128c-1.36304,-0.51172 -2.04074,-1.01726 -2.04074,-1.01726c0,0 -0.12435,-1.04641 -0.07521,-1.60486c0.06622,-0.75236 0.43679,-2.50352 0.43679,-2.50352c0,0 5.33522,0.4923 7.38828,0.92969c1.21486,0.25882 3.72898,1.07926 3.72898,1.07926c0,0 1.23881,0.7619 1.38165,1.20834c0.17491,0.54677 0.55605,2.06558 0.55605,2.06558z" data-paper-data="{&quot;index&quot;:null}" fill="#141415" stroke="#000000" stroke-width="0" stroke-linecap="butt"/><path d="M235.75332,232.1675c0,0 -0.34587,-0.03972 -1.0874,-0.12487c-0.22261,-0.02556 0.44717,1.66353 -2.4999,1.05481c-2.78298,-0.57484 -2.35428,-1.46638 -3.33548,-1.66019c-2.05171,-0.40525 -2.38838,0.32468 -3.2674,0.06975c-0.30612,-0.08878 -0.44671,-0.16659 -1.48963,-1.14778c-0.71727,-0.67481 -0.39716,-1.80833 -0.86335,-2.49408c-0.68099,-1.00169 -0.50987,-1.95675 -0.50987,-1.95675l0.2792,-3.0357c0,0 0.18439,2.24249 0.84266,3.14791c0.58897,0.81009 2.07983,0.21996 2.5136,0.26963c0.75954,0.08698 -0.2449,-3.31765 0.47918,-3.21614c0.38933,0.05459 3.36511,0.1508 3.36511,0.1508c0,0 -0.29808,3.56917 -0.09147,3.6132c1.21484,0.25882 4.05519,1.11672 4.05519,1.11672c0,0 1.23881,0.7619 1.38165,1.20834c0.17492,0.54677 0.22792,3.00435 0.22792,3.00435z" data-paper-data="{&quot;index&quot;:null}" fill="#252527" stroke="#000000" stroke-width="0" stroke-linecap="butt"/><path d="M228.30226,228.35396l2.51681,-0.8095" fill="none" stroke="#ffffff" stroke-width="0.5" stroke-linecap="round"/><path d="M230.0006,228.91515l2.44955,-1.18338" fill="none" stroke="#ffffff" stroke-width="0.5" stroke-linecap="round"/><path d="M233.40117,228.08508l-1.4709,1.29578" fill="none" stroke="#ffffff" stroke-width="0.5" stroke-linecap="round"/><path d="M227.65754,224.37414l1.985,-0.01617" fill="none" stroke="#969696" stroke-width="0.5" stroke-linecap="round"/><path d="M227.99567,225.26736l1.78133,-0.16162" fill="none" stroke="#969696" stroke-width="0.5" stroke-linecap="round"/></g><g><path d="M249.6066,227.05773c0,0 -4.84398,-25.34123 -6.28632,-29.59282c-0.0925,-0.27267 -2.29793,-0.61035 -3.75373,-1.35463c-1.77754,-0.90877 -2.78883,-2.25882 -1.85988,-2.77727c1.69446,-0.94568 12.17689,-0.25034 12.17689,-0.25034l7.67138,33.04012z" data-paper-data="{&quot;index&quot;:null}" fill="#494949" stroke="#000000" stroke-width="0" stroke-linecap="butt"/><path d="M264.55074,231.93511c-0.5887,0.06924 -2.62441,0.32245 -4.67997,0.48313c-1.24973,0.0977 -1.9613,-0.39135 -2.90497,-0.42417c-1.18803,-0.04132 -2.89266,0.56225 -3.75846,0.47126c-1.59536,-0.16765 -2.44924,-0.49509 -2.44924,-0.49509c0,0 -0.38706,-0.98694 -0.4689,-1.54158c-0.11026,-0.74725 -0.13317,-2.53883 -0.13317,-2.53883c0,0 5.87965,-0.81201 8.20209,-0.88347c1.37426,-0.0423 4.28709,0.14698 4.28709,0.14698c0,0 1.52168,0.44085 1.78373,0.8402c0.32095,0.4891 1.09941,1.87304 1.09941,1.87304c0,0 -0.15641,1.97193 -0.97763,2.06852z" data-paper-data="{&quot;index&quot;:null}" fill="#141415" stroke="#000000" stroke-width="0" stroke-linecap="butt"/><path d="M263.98091,229.40958c-0.24652,0.029 0.8847,1.50863 -2.44445,1.62983c-3.14378,0.11446 -2.89628,-0.85574 -4.00256,-0.80677c-2.31325,0.1024 -2.50042,0.89325 -3.51112,0.8581c-0.35199,-0.01224 -0.52258,-0.05386 -1.88573,-0.75522c-0.93749,-0.48235 -0.86568,-1.66147 -1.53471,-2.21518c-0.97727,-0.80882 -1.02323,-1.77844 -1.02323,-1.77844l-0.43189,-3.01794c0,0 0.74082,2.13488 1.67033,2.85564c0.83165,0.64487 2.29884,-0.28929 2.7792,-0.34593c0.84113,-0.09918 -1.06591,-3.16519 -0.25957,-3.24167c0.43358,-0.04112 3.66991,-0.66739 3.66991,-0.66739c0,0 0.54039,3.541 0.7741,3.53382c1.37426,-0.0423 4.64838,0.10448 4.64838,0.10448c0,0 1.52168,0.44085 1.78374,0.8402c0.32095,0.4891 0.97188,2.86481 0.97188,2.86481c0,0 -0.38305,0.04506 -1.2043,0.14166z" data-paper-data="{&quot;index&quot;:null}" fill="#252527" stroke="#000000" stroke-width="0" stroke-linecap="butt"/><path d="M258.74061,225.96827l-2.52194,1.3955" fill="none" stroke="#ffffff" stroke-width="0.5" stroke-linecap="round"/><path d="M258.18803,227.49841l2.35902,-1.74263" fill="none" stroke="#ffffff" stroke-width="0.5" stroke-linecap="round"/><path d="M260.38408,227.48429l1.27517,-1.61514" fill="none" stroke="#ffffff" stroke-width="0.5" stroke-linecap="round"/><path d="M256.70046,223.15587l-2.13938,0.49585" fill="none" stroke="#969696" stroke-width="0.5" stroke-linecap="round"/><path d="M257.02632,223.8501l-1.88436,0.58795" fill="none" stroke="#969696" stroke-width="0.5" stroke-linecap="round"/></g><g stroke="#000000" stroke-width="0" stroke-linecap="butt"><path d="M255.38483,188.81111c0,0 0.05974,-3.02027 -0.97034,-6.37477c-0.24771,-0.80667 -0.88844,-3.49006 -1.15031,-4.31626c-0.61978,-1.95539 -1.29783,-3.87274 -1.65104,-5.08075c-0.7597,-2.5982 -1.65244,-5.91082 -1.65244,-5.91082c0,0 -1.60031,-6.53154 -0.66627,-6.93968c5.46261,-2.38699 5.8773,5.18602 5.8773,5.18602c0,0 1.3454,4.7107 2.15312,7.47308c0.32872,1.12422 0.0432,2.13049 0.49012,3.89098c0.20034,0.78917 0.61966,4.28421 0.96729,6.40661c0.57878,3.53372 1.27408,5.60996 1.27408,5.60996z" data-paper-data="{&quot;index&quot;:null}" fill="#bdbdbd"/><path d="M260.78023,193.2233c-0.20639,0.00666 0.54496,3.6831 -0.32168,3.77767c-0.42626,0.04651 -0.39576,-2.40676 -1.10299,-3.14278c-0.37435,-0.3896 0.98403,4.17933 -0.20103,3.87026c-0.40685,-0.10612 -0.63741,-3.54088 -1.16352,-4.29173c-0.28163,-0.40195 0.83608,5.15526 0.04848,4.9943c-0.46754,-0.09555 -0.50666,-3.24989 -1.01826,-4.59503c-0.24923,-0.65532 0.21448,3.86805 -0.37122,3.62821c-0.35852,-0.14682 -1.02592,-4.53941 -1.06977,-4.58364c-0.24649,-0.2486 -0.55279,2.5187 -0.90801,1.9157c-0.6547,-1.11134 0.04344,-2.65629 0.56085,-4.08609c0.30231,-0.83538 0.16058,-2.00751 0.16058,-2.00751c0,0 1.50086,-0.70053 2.28956,-0.70993c0.76792,-0.00915 2.38196,0.6543 2.38196,0.6543c0,0 1.15231,4.56215 0.71506,4.57627z" data-paper-data="{&quot;index&quot;:null}" fill="#5c4747"/></g><g stroke-width="0" stroke-linecap="butt"><path d="M235.91979,163.66937v-6.85104h7.65615v6.85104z" fill="url(#color-2)" stroke="#000000"/><path d="M252.80944,144.39573c0,7.73092 -5.73774,13.99807 -12.8156,13.99807c-7.07786,0 -12.8156,-6.26715 -12.8156,-13.99807c0,-7.73092 5.73774,-13.99806 12.8156,-13.99806c7.07786,0 12.8156,6.26714 12.8156,13.99806z" fill="url(#color-3)" stroke="none"/><path d="M253.91261,143.22429c0,4.88691 0.03443,10.71868 -8.60517,11.34206c-9.65195,0.69642 -9.06107,-6.45514 -9.06107,-11.34206c0,-4.88691 3.95473,-8.84854 8.83313,-8.84854c4.8784,0 8.83313,3.96163 8.83313,8.84854z" data-paper-data="{&quot;index&quot;:null}" fill="url(#color-4)" stroke="#ed6b00"/></g><g stroke-width="0" stroke-linecap="butt"><path d="M229.63979,193.59141c0,0 0.16709,-5.5597 -0.35268,-10.94382c-0.35317,-3.65847 -1.40473,-6.95919 -1.56162,-9.45339c-0.29447,-4.68133 -0.2105,-13.38223 -0.2105,-13.38223c0,0 3.69178,-0.58477 5.4694,-0.21857c2.26281,0.46615 7.00656,2.78867 7.00656,2.78867c0,0 3.67689,-2.17061 5.59031,-2.58687c2.01891,-0.43921 6.22369,0.01677 6.22369,0.01677c0,0 -0.06905,9.21711 -0.22689,12.65629c-0.13965,3.04285 -0.88957,6.36811 -1.18346,10.87293c-0.3029,4.64296 -0.14784,10.42155 -0.14784,10.42155c0,0 -2.75697,-0.76932 -5.57187,-0.83754c-1.27833,-0.03098 -1.79126,1.00612 -2.99851,1.16532c-0.96496,0.12724 -2.63623,-0.61291 -3.56107,-0.64966c-0.69915,-0.02778 -2.04377,-0.5306 -2.53801,-0.53471c-0.99795,-0.0083 -1.61572,0.86529 -2.77345,1.02464c-1.34484,0.1851 -3.1641,-0.33939 -3.1641,-0.33939z" fill="#d0d0d0" stroke="#292e32"/><path d="M245.9343,170.5071l-0.06967,-5.82045l4.38934,0.36378v5.21415z" fill="#ff0000" stroke="none"/></g><g stroke="#000000" stroke-width="0" stroke-linecap="butt"><path d="M219.15324,188.47325c0,0 0.7754,-2.06559 1.34155,-5.60139c0.34003,-2.12364 0.70912,-5.62583 0.92416,-6.4131c0.4797,-1.75623 0.07962,-2.77812 0.43995,-3.89817c0.88537,-2.75215 2.35532,-7.44644 2.35532,-7.44644c0,0 0.36759,-7.93087 7.5582,-5.30151c1.14793,0.41975 -0.9861,7.23974 -0.9861,7.23974c0,0 -0.96716,3.30288 -1.79991,5.89144c-0.38718,1.20351 -1.14806,3.10984 -1.83463,5.05637c-0.29009,0.82246 -0.97082,3.5007 -1.24412,4.30399c-1.13651,3.3404 -0.92935,6.38095 -0.92935,6.38095z" fill="#bdbdbd"/><path d="M218.462,193.17213c-0.54567,-0.02744 0.67889,-4.58178 0.67889,-4.58178c0,0 1.98108,-0.61847 2.93871,-0.58599c0.98355,0.03335 2.88686,0.78354 2.88686,0.78354c0,0 -0.12225,1.17481 0.29335,2.0243c0.71131,1.45397 1.65324,3.02926 0.88875,4.12736c-0.4148,0.59583 -0.92504,-2.1972 -1.22074,-1.95459c-0.05261,0.04317 -0.68063,4.44164 -1.12071,4.57845c-0.71892,0.22351 -0.35088,-4.31267 -0.63112,-3.66102c-0.57525,1.33762 -0.4776,4.50952 -1.05595,4.59146c-0.97428,0.13805 0.16099,-5.41829 -0.1714,-5.0225c-0.62093,0.73936 -0.7489,4.18754 -1.2511,4.28196c-1.46281,0.27499 0.01832,-4.27992 -0.43022,-3.89935c-0.84738,0.71897 -0.6955,3.18773 -1.22898,3.12802c-1.08465,-0.1214 -0.31875,-3.79691 -0.57632,-3.80987z" data-paper-data="{&quot;index&quot;:null}" fill="#5c4747"/></g></g></g></svg>