<svg version="1.1" xmlns="http://www.w3.org/2000/svg" xmlns:xlink="http://www.w3.org/1999/xlink" width="47.23763" height="105.13679" viewBox="0,0,47.23763,105.13679"><defs><linearGradient x1="239.74787" y1="156.34919" x2="239.74787" y2="163.20024" gradientUnits="userSpaceOnUse" id="color-1"><stop offset="0" stop-color="#c28b5f"/><stop offset="1" stop-color="#ffb87d"/></linearGradient><radialGradient cx="235.71182" cy="133.69699" r="13.11833" gradientUnits="userSpaceOnUse" id="color-2"><stop offset="0" stop-color="#ffd9ba"/><stop offset="1" stop-color="#ffb87d"/></radialGradient><radialGradient cx="229.21564" cy="134.31133" r="10.07074" gradientUnits="userSpaceOnUse" id="color-3"><stop offset="0" stop-color="#303030"/><stop offset="1" stop-color="#292929"/></radialGradient><radialGradient cx="245.64374" cy="131.13148" r="2.65078" gradientUnits="userSpaceOnUse" id="color-4"><stop offset="0" stop-color="#787878"/><stop offset="1" stop-color="#292929"/></radialGradient><radialGradient cx="234.49144" cy="133.29651" r="4.17314" gradientUnits="userSpaceOnUse" id="color-5"><stop offset="0" stop-color="#a7a7a7"/><stop offset="1" stop-color="#292929"/></radialGradient></defs><g transform="translate(-217.30771,-129.92854)"><g data-paper-data="{&quot;isPaintingLayer&quot;:true}" fill-rule="nonzero" stroke-linejoin="miter" stroke-miterlimit="10" stroke-dasharray="" stroke-dashoffset="0" style="mix-blend-mode: normal"><g><path d="M248.85735,227.34394c0,0 -4.1051,-25.47135 -5.42321,-29.7631c-0.431,-1.40335 -3.51884,-1.21952 -3.51884,-1.21952c0,0 -3.38376,-3.96199 0.23092,-4.28094c3.05495,-0.26956 9.97583,1.31092 9.97583,1.31092l6.70744,33.24921z" data-paper-data="{&quot;index&quot;:null}" fill="#726f7c" stroke="#000000" stroke-width="0" stroke-linecap="butt"/><path d="M263.50798,233.21222c-0.59047,0.0521 -2.63268,0.246 -4.69203,0.34685c-1.25204,0.06131 -1.94909,-0.44821 -2.89141,-0.50846c-1.18633,-0.07585 -2.90779,0.4779 -3.77057,0.36177c-1.58981,-0.21397 -2.4338,-0.56609 -2.4338,-0.56609c0,0 -0.3582,-0.99778 -0.42387,-1.55456c-0.08848,-0.75014 -0.0593,-2.54164 -0.0593,-2.54164c0,0 5.90078,-0.6407 8.22431,-0.64461c1.3749,-0.00232 4.281,0.27157 4.281,0.27157c0,0 1.50822,0.48491 1.75856,0.89171c0.30659,0.49823 1.04448,1.90421 1.04448,1.90421c0,0 -0.21368,1.96654 -1.03737,2.03922z" data-paper-data="{&quot;index&quot;:null}" fill="#141415" stroke="#000000" stroke-width="0" stroke-linecap="butt"/><path d="M263.01183,230.67118c-0.24726,0.02182 0.84046,1.53371 -2.49081,1.55807c-3.14578,0.02301 -2.87018,-0.93959 -3.9774,-0.92281c-2.31524,0.0351 -2.52534,0.82017 -3.53458,0.75565c-0.35148,-0.02248 -0.52079,-0.06903 -1.86297,-0.80974c-0.92307,-0.50941 -0.81701,-1.68593 -1.46965,-2.25887c-0.95334,-0.83689 -0.97109,-1.80744 -0.97109,-1.80744l-0.34395,-3.02922c0,0 0.67843,2.15552 1.58659,2.90301c0.81255,0.66878 2.30629,-0.22232 2.78808,-0.26498c0.84366,-0.07468 -0.97343,-3.19485 -0.1652,-3.24785c0.4346,-0.0285 3.68777,-0.5604 3.68777,-0.5604c0,0 0.4372,3.55522 0.67103,3.55482c1.3749,-0.00232 4.64337,0.2396 4.64337,0.2396c0,0 1.50822,0.48491 1.75857,0.89171c0.30659,0.49823 0.88817,2.89186 0.88817,2.89186c0,0 -0.38421,0.0339 -1.20791,0.10658z" data-paper-data="{&quot;index&quot;:null}" fill="#252527" stroke="#000000" stroke-width="0" stroke-linecap="butt"/><path d="M257.8738,227.07896l-2.56145,1.32159" fill="none" stroke="#ffffff" stroke-width="0.5" stroke-linecap="round"/><path d="M257.27696,228.59238l2.4087,-1.6733" fill="none" stroke="#ffffff" stroke-width="0.5" stroke-linecap="round"/><path d="M259.4725,228.64212l1.3216,-1.57738" fill="none" stroke="#ffffff" stroke-width="0.5" stroke-linecap="round"/><path d="M253.76339,224.64185l2.1529,-0.43343" fill="none" stroke="#969696" stroke-width="0.5" stroke-linecap="round"/><path d="M254.32115,225.44474l1.90067,-0.5329" fill="none" stroke="#969696" stroke-width="0.5" stroke-linecap="round"/></g><g><path d="M222.71593,226.64326l7.23653,-33.13808c0,0 6.94519,-1.46996 9.99546,-1.15175c3.60914,0.37652 0.16266,4.28407 0.16266,4.28407c0,0 -3.08451,-0.23301 -3.53783,1.16328c-1.38635,4.27019 -5.8969,29.67288 -5.8969,29.67288z" fill="#726f7c" stroke="#000000" stroke-width="0" stroke-linecap="butt"/><path d="M237.39346,233.25864c0,0 -0.58493,1.88966 -1.40737,1.80386c-0.58956,-0.0615 -2.63125,-0.26077 -4.67202,-0.55465c-1.24074,-0.17868 -1.82778,-0.81182 -2.7413,-1.05074c-1.15007,-0.30078 -2.94554,-0.08562 -3.77033,-0.36421c-1.51979,-0.51334 -2.28111,-1.02 -2.28111,-1.02c0,0 -0.16128,-1.04778 -0.11951,-1.60687c0.05625,-0.75323 0.42668,-2.50626 0.42668,-2.50626c0,0 5.91462,0.49682 8.19624,0.93625c1.3501,0.26003 4.15057,1.08332 4.15057,1.08332c0,0 1.38799,0.76374 1.55613,1.21083c0.20592,0.54757 0.66202,2.06852 0.66202,2.06852z" data-paper-data="{&quot;index&quot;:null}" fill="#141415" stroke="#000000" stroke-width="0" stroke-linecap="butt"/><path d="M237.18987,232.59932c0,0 -0.38361,-0.04002 -1.20605,-0.12582c-0.24688,-0.02575 0.53241,1.66588 -2.7423,1.05425c-3.09239,-0.57758 -2.6382,-1.46991 -3.7283,-1.66467c-2.27941,-0.40725 -2.63543,0.32332 -3.61383,0.06743c-0.34074,-0.08912 -0.49805,-0.16712 -1.67426,-1.15028c-0.80892,-0.67615 -0.48036,-1.81084 -1.01171,-2.49776c-0.77616,-1.00341 -0.60844,-1.95951 -0.60844,-1.95951l0.24028,-3.0392c0,0 0.25475,2.24537 1.00361,3.15239c0.67004,0.81151 2.30634,0.22175 2.78742,0.27181c0.8424,0.08765 -0.34604,-3.32188 0.45746,-3.21972c0.43205,0.05493 3.72695,0.15346 3.72695,0.15346c0,0 -0.24909,3.57332 -0.01949,3.61755c1.35009,0.26003 4.51238,1.12105 4.51238,1.12105c0,0 1.38799,0.76374 1.55613,1.21083c0.20593,0.54758 0.32015,3.00819 0.32015,3.00819z" data-paper-data="{&quot;index&quot;:null}" fill="#252527" stroke="#000000" stroke-width="0" stroke-linecap="butt"/><path d="M228.85896,228.77565l2.76655,-0.80865" fill="none" stroke="#ffffff" stroke-width="0.5" stroke-linecap="round"/><path d="M233.43457,228.15574l-2.68367,1.18304" fill="none" stroke="#ffffff" stroke-width="0.5" stroke-linecap="round"/><path d="M232.89661,229.80647l1.59825,-1.29628" fill="none" stroke="#ffffff" stroke-width="0.5" stroke-linecap="round"/><path d="M228.05553,224.79048l2.19605,-0.01474" fill="none" stroke="#969696" stroke-width="0.5" stroke-linecap="round"/><path d="M230.4173,225.52453l-1.96742,0.1605" fill="none" stroke="#969696" stroke-width="0.5" stroke-linecap="round"/></g><path d="M260.85239,193.33342c-0.22257,-0.0021 0.3541,3.70637 -0.58467,3.76419c-0.46174,0.02844 -0.27407,-2.42364 -0.98882,-3.18968c-0.37834,-0.40549 0.79536,4.22123 -0.46066,3.86189c-0.43121,-0.12337 -0.46258,-3.56806 -0.98145,-4.34124c-0.27777,-0.4139 0.57451,5.19093 -0.26306,4.99656c-0.4972,-0.11538 -0.34022,-3.27151 -0.80596,-4.63839c-0.2269,-0.66591 -0.0133,3.87731 -0.62856,3.61262c-0.37662,-0.16202 -0.81771,-4.5831 -0.86212,-4.6292c-0.24961,-0.25906 -0.75395,2.49537 -1.09823,1.87728c-0.63454,-1.13915 0.21442,-2.65456 0.86157,-4.06247c0.37811,-0.82259 0.29954,-2.00079 0.29954,-2.00079c0,0 0.25493,-3.01787 -0.64205,-6.41618c-0.21569,-0.81721 -0.73598,-3.52789 -0.9657,-4.36521c-0.54367,-1.98176 -1.15245,-3.92794 -1.45638,-5.15097c-0.6537,-2.63051 -1.40549,-5.98114 -1.40549,-5.98114l5.7195,-1.53278c0,0 1.15077,4.76794 1.84579,7.56469c0.28285,1.1382 -0.08799,2.13241 0.28194,3.91192c0.16583,0.7977 0.39654,4.31066 0.63675,6.44789c0.39993,3.55841 1.01725,5.66421 1.01725,5.66421c0,0 0.95231,4.61121 0.48079,4.60677z" data-paper-data="{&quot;index&quot;:null}" fill="#ffb77d" stroke="#000000" stroke-width="0" stroke-linecap="butt"/><path d="M250.19137,160.15791c5.07281,-1.76773 6.163,1.65872 6.59057,3.58605c0.42756,1.92733 1.95032,1.18405 -2.70559,2.78083c-3.93528,1.34963 -3.43867,0.86942 -3.86623,-1.05791c-0.42756,-1.92733 -2.66059,-4.38836 -0.01874,-5.30897z" data-paper-data="{&quot;index&quot;:null}" fill="#ffffff" stroke="#000000" stroke-width="0" stroke-linecap="butt"/><path d="M235.91979,163.20024v-6.85104h7.65615v6.85104z" fill="url(#color-1)" stroke="#000000" stroke-width="0" stroke-linecap="butt"/><path d="M229.63979,193.73184c0,0 0.16709,-5.5597 -0.35268,-10.94382c-0.35317,-3.65847 -1.40473,-6.95919 -1.56162,-9.45339c-0.29447,-4.68133 -0.2105,-13.38223 -0.2105,-13.38223c0,0 3.69178,-0.58477 5.4694,-0.21857c2.26281,0.46615 7.00656,2.78867 7.00656,2.78867c0,0 3.67689,-2.17061 5.59031,-2.58687c2.01891,-0.43921 6.22369,0.01677 6.22369,0.01677c0,0 -0.06905,9.21711 -0.22689,12.65629c-0.13965,3.04285 -0.88957,6.36811 -1.18346,10.87293c-0.3029,4.64296 -0.14784,10.42155 -0.14784,10.42155c0,0 -2.75697,-0.76932 -5.57187,-0.83754c-1.27833,-0.03098 -1.79126,1.00612 -2.99851,1.16532c-0.96496,0.12724 -2.63623,-0.61291 -3.56107,-0.64966c-0.69915,-0.02778 -2.04377,-0.5306 -2.53801,-0.53471c-0.99795,-0.0083 -1.61572,0.86529 -2.77345,1.02464c-1.34484,0.1851 -3.1641,-0.33939 -3.1641,-0.33939z" fill="#ffffff" stroke="#292e32" stroke-width="0" stroke-linecap="butt"/><path d="M252.80944,143.9266c0,7.73092 -5.73774,13.99807 -12.8156,13.99807c-7.07786,0 -12.8156,-6.26715 -12.8156,-13.99807c0,-7.73092 5.73774,-13.99806 12.8156,-13.99806c7.07786,0 12.8156,6.26714 12.8156,13.99806z" fill="url(#color-2)" stroke="none" stroke-width="0" stroke-linecap="butt"/><path d="M238.36341,145.29516c-0.5265,0.91349 -1.43258,0.38383 -1.43258,0.38383c-0.91393,-0.55722 -2.45095,-1.17574 -2.30203,-2.6961c0.1217,-1.24248 2.13973,-2.33997 3.2068,-2.10706c1.93572,0.42253 3.60144,3.95074 0.5278,4.41932z" fill="#191412" stroke="none" stroke-width="0.5" stroke-linecap="butt"/><path d="M242.78052,149.80976c0.14423,-0.46863 0.47533,-0.57039 0.71965,-0.57602c0.0776,-0.00492 0.15695,0.00165 0.23587,0.02089c-0.28158,-1.08168 -0.10408,-2.4792 -0.44462,-3.52597c0,0 -0.2501,-0.78449 0.51677,-1.04033c0.76687,-0.25584 1.01697,0.52865 1.01697,0.52865c0.4101,1.30859 0.71193,2.9192 0.68474,4.31641c-0.01019,0.5236 0.25251,1.23107 -0.14241,1.56432c-0.4098,0.34581 -1.06036,-0.06797 -1.59055,-0.10196l-0.46926,-0.15113c-0.09725,-0.03132 -0.18459,-0.07973 -0.25988,-0.14099c-0.1971,-0.14779 -0.41151,-0.42524 -0.26729,-0.89386z" fill="#191412" stroke="none" stroke-width="0.5" stroke-linecap="butt"/><path d="M250.25235,145.77806c-0.42472,0.9868 -1.15568,0.41464 -1.15568,0.41464c-0.73728,-0.60194 -1.97722,-1.27009 -1.85707,-2.91248c0.09818,-1.3422 1.72614,-2.52778 2.58696,-2.27617c1.56156,0.45643 2.90532,4.26783 0.42578,4.77401z" fill="#191412" stroke="none" stroke-width="0.5" stroke-linecap="butt"/><g stroke-linecap="butt"><path d="M231.90604,134.32086c-0.16984,0.01553 -0.60661,0.06221 -1.07903,0.1438c-0.52185,0.20742 -1.13106,0.41772 -1.59752,0.64771c-0.28909,0.89276 0.78709,1.80702 -0.65422,2.4752c-2.45813,1.13958 -1.71655,-2.03888 -0.89769,-3.03685c1.27069,-1.10653 3.14359,-1.2394 4.75566,-1.549c2.22048,-0.42645 4.38435,-1.08334 6.57971,-1.21737c0.08249,-0.08622 0.19535,-0.14411 0.32353,-0.15569l0.58612,-0.0529c0.29539,-0.07774 0.61637,-0.15861 0.95355,-0.23507c0.87645,-0.27394 1.93099,-0.41625 2.91353,-0.50866c0.4818,-0.09462 0.9333,-0.1389 1.30669,-0.10536c0.27388,-0.02025 0.5286,-0.03932 0.7561,-0.05986l0.61787,-0.05577c0.28142,-0.0254 0.53014,0.18214 0.55554,0.46356c0.0226,0.25047 -0.13931,0.47504 -0.37361,0.53931l-0.32968,0.09745c0.145,0.12181 0.27656,0.26112 0.39244,0.4197l0.23414,-0.11908l0.29765,0.58522c0.03177,0.05903 0.05238,0.12532 0.05879,0.19629c0.0254,0.28142 -0.18214,0.53014 -0.46355,0.55553c-0.08558,0.00772 -0.16814,-0.00609 -0.24232,-0.03698l-0.50702,-0.19878l0.00585,-0.01492l-0.04787,-0.00377c-0.36209,-0.22374 -0.73047,-0.39249 -1.09838,-0.50678c-0.55947,-0.02006 -1.148,-0.08122 -1.74789,-0.1302c-1.01464,0.1745 -1.9334,0.80247 -2.5904,1.87097c0,0 -0.26893,0.43524 -0.70416,0.1663c-0.43523,-0.26893 -0.1663,-0.70417 -0.1663,-0.70417c0.0575,-0.09265 0.11686,-0.18277 0.17799,-0.27034l-0.28392,0.09053c-0.03801,0.01299 -0.07817,0.02169 -0.11996,0.02546c-0.28142,0.0254 -0.53014,-0.18214 -0.55553,-0.46356c-0.01286,-0.14243 0.03395,-0.27647 0.11981,-0.37743c-0.2451,0.00049 -0.4766,0.01384 -0.6735,0.06241c-1.37524,0.33924 -3.48763,0.45199 -5.48058,0.75785c0.01121,0.24126 -0.14794,0.45435 -0.37516,0.51668l-0.59763,0.17665l-0.00571,-0.01931l-0.00747,0.00194z" fill="url(#color-3)" stroke="none" stroke-width="0.5"/><path d="M247.00008,130.58983c2.70896,-0.28418 2.68558,-0.24349 2.90043,1.58673c0.21485,1.83022 -0.78194,3.36186 -2.22639,3.42102c-1.44446,0.05917 -2.7896,-1.37656 -3.00445,-3.20678c-0.21485,-1.83022 -0.20983,-1.53449 2.33041,-1.80097z" data-paper-data="{&quot;index&quot;:null}" fill="url(#color-4)" stroke="#000000" stroke-width="0"/><path d="M240.38006,133.27069c0.35755,1.99142 -1.17444,3.9329 -3.4218,4.33639c-2.24735,0.40349 -4.35904,-0.88377 -4.71659,-2.8752c-0.35755,-1.99142 -0.40888,-2.02662 3.87102,-2.60142c4.01334,-0.53901 3.90982,-0.85119 4.26737,1.14023z" fill="url(#color-5)" stroke="#000000" stroke-width="0"/></g><path d="M217.89746,188.8289c0,0 0.65399,-2.10718 1.01364,-5.66991c0.21599,-2.13981 0.38085,-5.65754 0.54975,-6.45598c0.37679,-1.78116 -0.08203,-2.77805 0.21258,-3.91715c0.72386,-2.79897 1.91843,-7.57077 1.91843,-7.57077l6.67367,1.55287c0,0 -0.77351,3.35353 -1.45435,5.98611c-0.31656,1.22399 -0.96531,3.17132 -1.53757,5.15448c-0.24178,0.83793 -0.76566,3.55123 -0.99179,4.36903c-0.94038,3.40082 -0.5568,6.42419 -0.5568,6.42419c0,0 -0.05665,1.17979 0.40559,2.00483c0.79115,1.41211 1.81933,2.9325 1.11716,4.07148c-0.38098,0.618 -1.04593,-2.14228 -1.32767,-1.88359c-0.05013,0.04603 -0.4323,4.47265 -0.86408,4.63375c-0.70536,0.26319 -0.59044,-4.28645 -0.83397,-3.6202c-0.49988,1.36758 -0.22579,4.52911 -0.79869,4.64313c-0.96509,0.19207 -0.14092,-5.41884 -0.45076,-5.00516c-0.5788,0.77279 -0.5146,4.22275 -1.01077,4.34498c-1.44524,0.35601 -0.21999,-4.27429 -0.64665,-3.86934c-0.80604,0.76503 -0.51696,3.22151 -1.05293,3.1916c-1.08973,-0.06082 -0.52964,-3.77328 -0.78754,-3.77188c-0.54636,0.00299 0.42276,-4.61246 0.42276,-4.61246z" fill="#ffb77d" stroke="#000000" stroke-width="0" stroke-linecap="butt"/><path d="M228.88971,165.2568c-0.43451,1.93009 0.15624,2.41113 -4.4475,1.05857c-5.44679,-1.60024 -3.65839,-0.85551 -3.22387,-2.7856c0.43451,-1.93009 1.58957,-5.36137 7.52496,-3.58983c3.09108,0.9226 0.58091,3.38675 0.1464,5.31685z" fill="#ffffff" stroke="#000000" stroke-width="0" stroke-linecap="butt"/></g></g></svg>