<svg version="1.1" xmlns="http://www.w3.org/2000/svg" xmlns:xlink="http://www.w3.org/1999/xlink" width="84.5" height="38.32609" viewBox="0,0,84.5,38.32609"><defs><linearGradient x1="240" y1="161.58694" x2="240" y2="198.41309" gradientUnits="userSpaceOnUse" id="color-1"><stop offset="0" stop-color="#2b4b31"/><stop offset="1" stop-color="#395a1b"/></linearGradient><linearGradient x1="240" y1="161.58694" x2="240" y2="198.41309" gradientUnits="userSpaceOnUse" id="color-2"><stop offset="0" stop-color="#12301b"/><stop offset="1" stop-color="#446d2c"/></linearGradient><radialGradient cx="258.13576" cy="184.43671" r="8.75666" gradientUnits="userSpaceOnUse" id="color-3"><stop offset="0" stop-color="#69d8fd" stop-opacity="0.79839"/><stop offset="1" stop-color="#7edfff"/></radialGradient><radialGradient cx="271.27076" cy="183.69633" r="9.4075" gradientUnits="userSpaceOnUse" id="color-4"><stop offset="0" stop-color="#50cbf0" stop-opacity="0.76999"/><stop offset="1" stop-color="#90dcf5"/></radialGradient><radialGradient cx="263.34243" cy="173.66748" r="13.3125" gradientUnits="userSpaceOnUse" id="color-5"><stop offset="0" stop-color="#8fe3fa" stop-opacity="0.80805"/><stop offset="1" stop-color="#9ae6ff"/></radialGradient><linearGradient x1="262.09993" y1="170.97517" x2="262.09993" y2="173.12902" gradientUnits="userSpaceOnUse" id="color-6"><stop offset="0" stop-color="#12301b"/><stop offset="1" stop-color="#446d2c"/></linearGradient></defs><g transform="translate(-197.75,-160.83699)"><g data-paper-data="{&quot;isPaintingLayer&quot;:true}" fill-rule="nonzero" stroke-linecap="butt" stroke-linejoin="miter" stroke-miterlimit="10" stroke-dasharray="" stroke-dashoffset="0" style="mix-blend-mode: normal"><path d="M198.5,198.41309v-36.82609h83v36.82609z" fill="url(#color-1)" stroke="url(#color-2)" stroke-width="1.5"/><text transform="translate(201.08,170.5688) scale(0.21667,0.21667)" font-size="40" xml:space="preserve" fill="#ff0000" fill-rule="nonzero" stroke="none" stroke-width="1" stroke-linecap="butt" stroke-linejoin="miter" stroke-miterlimit="10" stroke-dasharray="" stroke-dashoffset="0" font-family="Serif" font-weight="normal" text-anchor="start" style="mix-blend-mode: normal"><tspan x="0" dy="0">Cold Regions A</tspan></text><path d="M256.76164,196.48663c-0.40093,-0.07008 -1.33359,-0.44683 -2.25935,-0.95601c-1.1124,0.16651 -2.23951,0.28442 -3.28644,0.10148c-1.2976,-0.22674 -3.51917,-0.98808 -3.87944,-2.12151c-1.17696,-3.70281 4.47924,-2.35086 5.65781,-2.94022c1.27167,-0.63592 3.94141,-1.37092 5.50328,-1.18325c0.48217,0.05793 0.88639,0.16945 1.26387,0.29512c0.82279,0.27392 1.5185,0.61507 2.61729,0.61507l0.18647,-0.03667c3.54429,0 13.50079,-0.94748 16.06842,0.26421c1.37777,0.65018 1.94267,2.76664 0.23145,3.36772c-3.13223,1.1002 -7.57237,2.60539 -11.21161,2.60539c-1.42437,0 -2.81618,-0.16076 -4.19502,-0.38692c-1.60086,0.82345 -4.99746,0.67258 -6.69673,0.37558z" fill="#b2e9ff" stroke="none" stroke-width="0.5"/><text transform="translate(200.3,195.63119) scale(0.12749,0.12749)" font-size="40" xml:space="preserve" fill="#ff0000" fill-rule="nonzero" stroke="none" stroke-width="1" stroke-linecap="butt" stroke-linejoin="miter" stroke-miterlimit="10" stroke-dasharray="" stroke-dashoffset="0" font-family="Serif" font-weight="normal" text-anchor="start" style="mix-blend-mode: normal"><tspan x="0" dy="0">1k R</tspan></text><path d="M250.02993,192.64825v-18.17307l16.21166,1.07692v18.84615z" fill="url(#color-3)" stroke="none" stroke-width="0"/><path d="M266.08957,194.39825l-0.08464,-18.84615l10.53166,-2.55769v18.03846z" data-paper-data="{&quot;index&quot;:null}" fill="url(#color-4)" stroke="none" stroke-width="0"/><path d="M250.02993,174.47517l10.53167,-2.82692l16.09333,1.34615l-10.76833,2.69231z" fill="url(#color-5)" stroke="url(#color-6)" stroke-width="0"/></g></g></svg>