<svg version="1.1" xmlns="http://www.w3.org/2000/svg" xmlns:xlink="http://www.w3.org/1999/xlink" width="42.46998" height="104.65922" viewBox="0,0,42.46998,104.65922"><defs><radialGradient cx="238.52448" cy="177.8952" r="22.57159" gradientUnits="userSpaceOnUse" id="color-1"><stop offset="0" stop-color="#3c3c3c"/><stop offset="1" stop-color="#939393"/></radialGradient><linearGradient x1="239.74787" y1="156.34919" x2="239.74787" y2="163.20024" gradientUnits="userSpaceOnUse" id="color-2"><stop offset="0" stop-color="#696969"/><stop offset="1" stop-color="#a0a0a0"/></linearGradient><radialGradient cx="235.71182" cy="133.69699" r="13.11833" gradientUnits="userSpaceOnUse" id="color-3"><stop offset="0" stop-color="#dcdcdc"/><stop offset="1" stop-color="#a0a0a0"/></radialGradient><radialGradient cx="241.29951" cy="140.58159" r="9.85359" gradientUnits="userSpaceOnUse" id="color-4"><stop offset="0" stop-color="#c5dfff"/><stop offset="1" stop-color="#219cff"/></radialGradient><radialGradient cx="230.47957" cy="134.31133" r="10.07074" gradientUnits="userSpaceOnUse" id="color-5"><stop offset="0" stop-color="#303030"/><stop offset="1" stop-color="#292929"/></radialGradient><radialGradient cx="246.90767" cy="131.13148" r="2.65078" gradientUnits="userSpaceOnUse" id="color-6"><stop offset="0" stop-color="#787878"/><stop offset="1" stop-color="#292929"/></radialGradient><radialGradient cx="235.75537" cy="133.29651" r="4.17314" gradientUnits="userSpaceOnUse" id="color-7"><stop offset="0" stop-color="#a7a7a7"/><stop offset="1" stop-color="#292929"/></radialGradient></defs><g transform="translate(-219.65774,-129.92854)"><g data-paper-data="{&quot;isPaintingLayer&quot;:true}" fill-rule="nonzero" stroke-linejoin="miter" stroke-miterlimit="10" stroke-dasharray="" stroke-dashoffset="0" style="mix-blend-mode: normal"><path d="M223.55679,200.4668v-45.14319h29.93538v45.14319z" fill="url(#color-1)" stroke="#ed6b00" stroke-width="0" stroke-linecap="butt"/><g><path d="M246.95586,227.60656c0,0 -2.91845,-25.63444 -4.03595,-29.98273c-0.36541,-1.42184 -3.45844,-1.38153 -3.45844,-1.38153c0,0 -3.19622,-4.11477 0.42937,-4.2656c3.06417,-0.12748 9.90424,1.77252 9.90424,1.77252l5.157,33.5247z" data-paper-data="{&quot;index&quot;:null}" fill="#494949" stroke="#000000" stroke-width="0" stroke-linecap="butt"/><path d="M260.99683,234.03355c-0.59225,0.02464 -2.64126,0.12354 -4.70308,0.1287c-1.25353,0.00314 -1.92619,-0.53819 -2.8647,-0.64211c-1.18153,-0.13082 -2.92684,0.34242 -3.7833,0.18638c-1.57817,-0.28753 -2.40491,-0.67844 -2.40491,-0.67844c0,0 -0.3115,-1.01333 -0.35127,-1.57256c-0.05357,-0.75343 0.05873,-2.54165 0.05873,-2.54165c0,0 5.92415,-0.36613 8.24537,-0.2622c1.37353,0.0615 4.26379,0.46998 4.26379,0.46998c0,0 1.48409,0.55439 1.71527,0.97237c0.28314,0.51192 0.95498,1.95064 0.95498,1.95064c0,0 -0.30472,1.95451 -1.1309,1.98888z" data-paper-data="{&quot;index&quot;:null}" fill="#141415" stroke="#000000" stroke-width="0" stroke-linecap="butt"/><path d="M260.61914,231.47222c-0.24801,0.01032 0.76837,1.57107 -2.56043,1.44078c-3.14346,-0.12302 -2.82347,-1.07179 -3.93029,-1.10642c-2.31438,-0.0724 -2.56068,0.70207 -3.56585,0.59078c-0.35006,-0.03876 -0.51703,-0.09313 -1.82338,-0.89533c-0.89843,-0.5517 -0.73788,-1.72204 -1.36323,-2.32464c-0.91347,-0.88024 -0.88616,-1.85057 -0.88616,-1.85057l-0.20299,-3.04192c0,0 0.57766,2.18469 1.45014,2.97351c0.78063,0.70577 2.31412,-0.11504 2.79737,-0.13528c0.84622,-0.03544 -0.8241,-3.23658 -0.01428,-3.25202c0.43545,-0.0083 3.7098,-0.38863 3.7098,-0.38863c0,0 0.27172,3.57168 0.50531,3.58214c1.37353,0.0615 4.62725,0.45486 4.62725,0.45486c0,0 1.48409,0.55439 1.71528,0.97237c0.28314,0.51192 0.75299,2.92996 0.75299,2.92996c0,0 -0.38537,0.01603 -1.21155,0.0504z" data-paper-data="{&quot;index&quot;:null}" fill="#252527" stroke="#000000" stroke-width="0" stroke-linecap="butt"/><path d="M253.03335,228.84667l2.62003,-1.20127" fill="none" stroke="#ffffff" stroke-width="0.5" stroke-linecap="round"/><path d="M254.98695,229.12949l2.48377,-1.5597" fill="none" stroke="#ffffff" stroke-width="0.5" stroke-linecap="round"/><path d="M257.17781,229.28107l1.39338,-1.51434" fill="none" stroke="#ffffff" stroke-width="0.5" stroke-linecap="round"/><path d="M251.66053,225.02014l2.17069,-0.33304" fill="none" stroke="#969696" stroke-width="0.5" stroke-linecap="round"/><path d="M252.18043,225.84805l1.92335,-0.44411" fill="none" stroke="#969696" stroke-width="0.5" stroke-linecap="round"/></g><g><path d="M225.34727,227.11283l4.90028,-33.56318c0,0 6.82533,-1.95229 9.89038,-1.84826c3.62663,0.12308 0.462,4.26219 0.462,4.26219c0,0 -3.09326,-0.01664 -3.44777,1.40796c-1.08419,4.35672 -3.80637,30.01274 -3.80637,30.01274z" fill="#494949" stroke="#000000" stroke-width="0" stroke-linecap="butt"/><path d="M240.58352,232.68956c0,0 -0.45129,1.92595 -1.27771,1.8979c-0.59242,-0.02011 -2.64305,-0.07603 -4.69938,-0.22642c-1.2502,-0.09143 -1.8801,-0.68195 -2.8081,-0.85637c-1.16829,-0.21958 -2.94432,0.12067 -3.78657,-0.09953c-1.55198,-0.40575 -2.34688,-0.85791 -2.34688,-0.85791c0,0 -0.23419,-1.03393 -0.23165,-1.59457c0.00341,-0.75532 0.25029,-2.52998 0.25029,-2.52998c0,0 5.93488,0.08178 8.24165,0.3605c1.36498,0.16493 4.21619,0.79026 4.21619,0.79026c0,0 1.43803,0.66476 1.63704,1.09899c0.24372,0.53182 0.80511,2.01713 0.80511,2.01713z" data-paper-data="{&quot;index&quot;:null}" fill="#141415" stroke="#000000" stroke-width="0" stroke-linecap="butt"/><path d="M240.3343,232.0461c0,0 -0.38547,-0.01308 -1.21189,-0.04113c-0.24808,-0.00842 0.64766,1.62455 -2.66182,1.24354c-3.12522,-0.3598 -2.73458,-1.28172 -3.83563,-1.39973c-2.30232,-0.24677 -2.60635,0.50692 -3.60026,0.32011c-0.34614,-0.06506 -0.50853,-0.13186 -1.75064,-1.03032c-0.85424,-0.6179 -0.60588,-1.77279 -1.18399,-2.42085c-0.84447,-0.94665 -0.74404,-1.91214 -0.74404,-1.91214l0.02705,-3.04857c0,0 0.41122,2.22205 1.22171,3.07444c0.72517,0.76265 2.3162,0.05985 2.79961,0.07611c0.84647,0.02849 -0.57761,-3.28953 0.23107,-3.24384c0.43484,0.02457 3.72855,-0.10767 3.72855,-0.10767c0,0 0.00152,3.58199 0.23367,3.61004c1.36497,0.16493 4.57975,0.8026 4.57975,0.8026c0,0 1.43803,0.66476 1.63704,1.09899c0.24373,0.53182 0.52983,2.97841 0.52983,2.97841z" data-paper-data="{&quot;index&quot;:null}" fill="#252527" stroke="#000000" stroke-width="0" stroke-linecap="butt"/><path d="M234.45947,227.81445l-2.70319,1.00023" fill="none" stroke="#ffffff" stroke-width="0.5" stroke-linecap="round"/><path d="M233.68297,229.24405l2.59433,-1.3679" fill="none" stroke="#ffffff" stroke-width="0.5" stroke-linecap="round"/><path d="M235.85615,229.56047l1.50364,-1.40493" fill="none" stroke="#ffffff" stroke-width="0.5" stroke-linecap="round"/><path d="M230.67599,224.89549l2.18964,-0.16835" fill="none" stroke="#969696" stroke-width="0.5" stroke-linecap="round"/><path d="M231.13196,225.76026l1.95137,-0.29776" fill="none" stroke="#969696" stroke-width="0.5" stroke-linecap="round"/></g><g stroke="#000000" stroke-width="0" stroke-linecap="butt"><path d="M253.40832,189.16029c0,0 0.42859,-2.9912 -0.19392,-6.44528c-0.14969,-0.83062 -0.46406,-3.57163 -0.62557,-4.42334c-0.38223,-2.01577 -0.8275,-4.00078 -1.0339,-5.24251c-0.44396,-2.67074 -0.93397,-6.06674 -0.93397,-6.06674c0,0 -0.80597,-6.67668 0.17969,-6.96953c5.76451,-1.71267 5.25544,5.85534 5.25544,5.85534c0,0 0.77288,4.83838 1.24488,7.6779c0.1921,1.15561 -0.21683,2.12024 0.01602,3.92173c0.10439,0.80755 0.0978,4.3277 0.18698,6.47653c0.14846,3.57773 0.59162,5.72255 0.59162,5.72255z" data-paper-data="{&quot;index&quot;:null}" fill="#bdbdbd"/><path d="M258.27542,194.18945c-0.20762,-0.01821 0.09635,3.72196 -0.78351,3.71161c-0.43276,-0.0051 -0.10269,-2.43692 -0.72141,-3.25268c-0.3275,-0.43181 0.47568,4.2674 -0.67392,3.81804c-0.39466,-0.15428 -0.20633,-3.59189 -0.64179,-4.40057c-0.2331,-0.4329 0.20829,5.21847 -0.56118,4.96394c-0.45679,-0.15109 -0.11087,-3.28728 -0.45921,-4.6842c-0.1697,-0.68054 -0.25736,3.86581 -0.81489,3.55727c-0.34128,-0.18887 -0.47369,-4.62991 -0.51223,-4.6791c-0.21661,-0.27644 -0.86134,2.43397 -1.14364,1.7926c-0.52028,-1.18203 0.36782,-2.63182 1.06077,-3.98902c0.40488,-0.79296 0.40599,-1.97365 0.40599,-1.97365c0,0 1.58927,-0.51494 2.38063,-0.42941c0.77052,0.08328 2.30665,0.93605 2.30665,0.93605c0,0 0.59754,4.66769 0.15773,4.6291z" data-paper-data="{&quot;index&quot;:null}" fill="#777777"/></g><g stroke-linecap="butt"><path d="M235.91979,163.20024v-6.85104h7.65615v6.85104z" fill="url(#color-2)" stroke="#000000" stroke-width="0"/><path d="M252.80944,143.9266c0,7.73092 -5.73774,13.99807 -12.8156,13.99807c-7.07786,0 -12.8156,-6.26715 -12.8156,-13.99807c0,-7.73092 5.73774,-13.99806 12.8156,-13.99806c7.07786,0 12.8156,6.26714 12.8156,13.99806z" fill="url(#color-3)" stroke="none" stroke-width="0"/><path d="M254.09785,143.30725c0,3.74486 0.0384,8.21376 -9.59547,8.69146c-10.76272,0.53367 -10.10384,-4.9466 -10.10384,-8.69146c0,-3.74486 4.40985,-6.78067 9.84967,-6.78067c5.43982,0 9.84967,3.03581 9.84967,6.78067z" data-paper-data="{&quot;index&quot;:null}" fill="url(#color-4)" stroke="#ed6b00" stroke-width="0"/><path d="M233.16997,134.32086c-0.16984,0.01553 -0.60661,0.06221 -1.07903,0.1438c-0.52185,0.20742 -1.13106,0.41772 -1.59752,0.64771c-0.28909,0.89276 0.78709,1.80702 -0.65422,2.4752c-2.45813,1.13958 -1.71655,-2.03888 -0.89769,-3.03685c1.27069,-1.10653 3.14359,-1.2394 4.75566,-1.549c2.22048,-0.42645 4.38435,-1.08334 6.57971,-1.21737c0.08249,-0.08622 0.19535,-0.14411 0.32353,-0.15569l0.58612,-0.0529c0.29539,-0.07774 0.61637,-0.15861 0.95355,-0.23507c0.87645,-0.27394 1.93099,-0.41625 2.91353,-0.50866c0.4818,-0.09462 0.9333,-0.1389 1.30669,-0.10536c0.27388,-0.02025 0.5286,-0.03932 0.7561,-0.05986l0.61787,-0.05577c0.28142,-0.0254 0.53014,0.18214 0.55554,0.46356c0.0226,0.25047 -0.13931,0.47504 -0.37361,0.53931l-0.32968,0.09745c0.145,0.12181 0.27656,0.26112 0.39244,0.4197l0.23414,-0.11908l0.29765,0.58522c0.03177,0.05903 0.05238,0.12532 0.05879,0.19629c0.0254,0.28142 -0.18214,0.53014 -0.46355,0.55553c-0.08558,0.00772 -0.16814,-0.00609 -0.24232,-0.03698l-0.50702,-0.19878l0.00585,-0.01492l-0.04787,-0.00377c-0.36209,-0.22374 -0.73047,-0.39249 -1.09838,-0.50678c-0.55947,-0.02006 -1.148,-0.08122 -1.74789,-0.1302c-1.01464,0.1745 -1.9334,0.80247 -2.5904,1.87097c0,0 -0.26893,0.43524 -0.70416,0.1663c-0.43523,-0.26893 -0.1663,-0.70417 -0.1663,-0.70417c0.0575,-0.09265 0.11686,-0.18277 0.17799,-0.27034l-0.28392,0.09053c-0.03801,0.01299 -0.07817,0.02169 -0.11996,0.02546c-0.28142,0.0254 -0.53014,-0.18214 -0.55553,-0.46356c-0.01286,-0.14243 0.03395,-0.27647 0.11981,-0.37743c-0.2451,0.00049 -0.4766,0.01384 -0.6735,0.06241c-1.37524,0.33924 -3.48763,0.45199 -5.48058,0.75785c0.01121,0.24126 -0.14794,0.45435 -0.37516,0.51668l-0.59763,0.17665l-0.00571,-0.01931l-0.00747,0.00194z" fill="url(#color-5)" stroke="none" stroke-width="0.5"/><path d="M248.26401,130.58983c2.70896,-0.28418 2.68558,-0.24349 2.90043,1.58673c0.21485,1.83022 -0.78194,3.36186 -2.22639,3.42102c-1.44446,0.05917 -2.7896,-1.37656 -3.00445,-3.20678c-0.21485,-1.83022 -0.20983,-1.53449 2.33041,-1.80097z" data-paper-data="{&quot;index&quot;:null}" fill="url(#color-6)" stroke="#000000" stroke-width="0"/><path d="M241.64399,133.27069c0.35755,1.99142 -1.17444,3.9329 -3.4218,4.33639c-2.24735,0.40349 -4.35904,-0.88377 -4.71659,-2.8752c-0.35755,-1.99142 -0.40888,-2.02662 3.87102,-2.60142c4.01334,-0.53901 3.90982,-0.85119 4.26737,1.14023z" fill="url(#color-7)" stroke="#000000" stroke-width="0"/></g><path d="M229.63979,193.73185c0,0 0.16709,-5.5597 -0.35268,-10.94382c-0.35317,-3.65847 -1.40473,-6.95919 -1.56162,-9.45339c-0.29447,-4.68133 -0.2105,-13.38223 -0.2105,-13.38223c0,0 3.69178,-0.58477 5.4694,-0.21857c2.26281,0.46615 7.00656,2.78867 7.00656,2.78867c0,0 3.67689,-2.17061 5.59031,-2.58687c2.01891,-0.43921 6.22369,0.01677 6.22369,0.01677c0,0 -0.06905,9.21711 -0.22689,12.65629c-0.13965,3.04285 -0.88957,6.36811 -1.18346,10.87293c-0.3029,4.64296 -0.14784,10.42155 -0.14784,10.42155c0,0 -2.75697,-0.76932 -5.57187,-0.83754c-1.27833,-0.03098 -1.79126,1.00612 -2.99851,1.16532c-0.96496,0.12724 -2.63623,-0.61291 -3.56107,-0.64966c-0.69915,-0.02778 -2.04377,-0.5306 -2.53801,-0.53471c-0.99795,-0.0083 -1.61572,0.86529 -2.77345,1.02464c-1.34484,0.1851 -3.1641,-0.33939 -3.1641,-0.33939z" fill="#d0d0d0" stroke="#292e32" stroke-width="0" stroke-linecap="butt"/><path d="M242.73589,170.64754l-0.12126,-5.82045l7.63934,0.36378v5.21415z" fill="#f200ff" stroke="none" stroke-width="0" stroke-linecap="butt"/><g stroke="#000000" stroke-width="0" stroke-linecap="butt"><path d="M220.02827,189.70491c0,0 0.54101,-2.13898 0.71068,-5.71579c0.1019,-2.14827 0.07945,-5.66979 0.20566,-6.47608c0.28154,-1.79867 -0.22964,-2.76975 0.00396,-3.92291c0.57399,-2.83351 1.5131,-7.66208 1.5131,-7.66208c0,0 -0.51616,-7.92259 6.92214,-6.10872c1.18747,0.28957 -0.17533,7.30449 -0.17533,7.30449c0,0 -0.59407,3.38992 -1.13396,6.05499c-0.25102,1.23909 -0.7953,3.21817 -1.26128,5.22896c-0.19688,0.8496 -0.57572,3.58691 -0.75805,4.41559c-0.7582,3.44602 -0.21439,6.44471 -0.21439,6.44471z" fill="#bdbdbd"/><path d="M219.86357,194.45149c-0.54534,0.03338 0.16545,-4.62885 0.16545,-4.62885c0,0 1.90007,-0.83482 2.85538,-0.90899c0.98116,-0.07618 2.95606,0.45782 2.95606,0.45782c0,0 0.00908,1.18112 0.51652,1.97916c0.86851,1.36591 1.97969,2.82674 1.34198,4.00301c-0.34601,0.63824 -1.16352,-2.08077 -1.43042,-1.80681c-0.04749,0.04875 -0.18275,4.48977 -0.60489,4.67465c-0.68962,0.30203 -0.82803,-4.24695 -1.03412,-3.56818c-0.42302,1.39327 0.02657,4.53466 -0.53909,4.68038c-0.9529,0.24548 -0.44222,-5.40262 -0.72856,-4.97233c-0.53491,0.80379 -0.27883,4.24484 -0.76743,4.39449c-1.42319,0.43587 -0.45748,-4.25544 -0.86095,-3.82737c-0.76222,0.80869 -0.33689,3.24528 -0.87371,3.24524c-1.09142,-0.00009 -0.73878,-3.73797 -0.9962,-3.72221z" data-paper-data="{&quot;index&quot;:null}" fill="#777777"/></g></g></g></svg>