<svg version="1.1" xmlns="http://www.w3.org/2000/svg" xmlns:xlink="http://www.w3.org/1999/xlink" width="110.59566" height="339.96344" viewBox="0,0,110.59566,339.96344"><defs><linearGradient x1="202.33333" y1="150.99212" x2="277.66667" y2="150.99212" gradientUnits="userSpaceOnUse" id="color-1"><stop offset="0" stop-color="#b89a9a"/><stop offset="1" stop-color="#8d7070"/></linearGradient><linearGradient x1="202.33333" y1="150.99212" x2="277.66667" y2="150.99212" gradientUnits="userSpaceOnUse" id="color-2"><stop offset="0" stop-color="#260000"/><stop offset="1" stop-color="#100000"/></linearGradient><linearGradient x1="271.82285" y1="177.50127" x2="303.62907" y2="177.50127" gradientUnits="userSpaceOnUse" id="color-3"><stop offset="0" stop-color="#362424"/><stop offset="1" stop-color="#1f1414"/></linearGradient><linearGradient x1="271.82285" y1="178.59395" x2="293.57785" y2="178.59395" gradientUnits="userSpaceOnUse" id="color-4"><stop offset="0" stop-color="#272727"/><stop offset="1" stop-color="#000000"/></linearGradient><linearGradient x1="208.57785" y1="177.16794" x2="176.77164" y2="177.16794" gradientUnits="userSpaceOnUse" id="color-5"><stop offset="0" stop-color="#6b4a4a"/><stop offset="1" stop-color="#825959"/></linearGradient><linearGradient x1="186.82285" y1="178.26061" x2="208.57785" y2="178.26061" gradientUnits="userSpaceOnUse" id="color-6"><stop offset="0" stop-color="#272727"/><stop offset="1" stop-color="#000000"/></linearGradient><linearGradient x1="208.48951" y1="151.51061" x2="271.89896" y2="151.51061" gradientUnits="userSpaceOnUse" id="color-7"><stop offset="0" stop-color="#634343"/><stop offset="1" stop-color="#211414"/></linearGradient><linearGradient x1="208.48951" y1="151.51061" x2="271.89897" y2="151.51061" gradientUnits="userSpaceOnUse" id="color-8"><stop offset="0" stop-color="#272727"/><stop offset="1" stop-color="#000000"/></linearGradient><linearGradient x1="212.66667" y1="115.5" x2="267.33333" y2="115.5" gradientUnits="userSpaceOnUse" id="color-9"><stop offset="0" stop-color="#b89a9a"/><stop offset="1" stop-color="#8d7070"/></linearGradient><linearGradient x1="212.66667" y1="115.5" x2="267.33333" y2="115.5" gradientUnits="userSpaceOnUse" id="color-10"><stop offset="0" stop-color="#260000"/><stop offset="1" stop-color="#100000"/></linearGradient><linearGradient x1="212.66667" y1="134.83333" x2="267.33333" y2="134.83333" gradientUnits="userSpaceOnUse" id="color-11"><stop offset="0" stop-color="#b89a9a"/><stop offset="1" stop-color="#8d7070"/></linearGradient><linearGradient x1="212.66667" y1="134.83333" x2="267.33333" y2="134.83333" gradientUnits="userSpaceOnUse" id="color-12"><stop offset="0" stop-color="#260000"/><stop offset="1" stop-color="#100000"/></linearGradient><linearGradient x1="242.46088" y1="154.43702" x2="267.33232" y2="154.43702" gradientUnits="userSpaceOnUse" id="color-13"><stop offset="0" stop-color="#2c4a2e"/><stop offset="1" stop-color="#1d301b"/></linearGradient><linearGradient x1="242.46088" y1="154.43702" x2="267.33232" y2="154.43702" gradientUnits="userSpaceOnUse" id="color-14"><stop offset="0" stop-color="#123614"/><stop offset="1" stop-color="#0d1a0e"/></linearGradient><linearGradient x1="242.39399" y1="154.44639" x2="267.2079" y2="154.44639" gradientUnits="userSpaceOnUse" id="color-15"><stop offset="0" stop-color="#123614"/><stop offset="1" stop-color="#0d1a0e"/></linearGradient><linearGradient x1="242.39399" y1="154.25746" x2="267.2079" y2="154.25746" gradientUnits="userSpaceOnUse" id="color-16"><stop offset="0" stop-color="#123614"/><stop offset="1" stop-color="#0d1a0e"/></linearGradient><linearGradient x1="212.73457" y1="154.56298" x2="237.60601" y2="154.56298" gradientUnits="userSpaceOnUse" id="color-17"><stop offset="0" stop-color="#2c4a2e"/><stop offset="1" stop-color="#1d301b"/></linearGradient><linearGradient x1="212.73457" y1="154.56298" x2="237.60601" y2="154.56298" gradientUnits="userSpaceOnUse" id="color-18"><stop offset="0" stop-color="#123614"/><stop offset="1" stop-color="#0d1a0e"/></linearGradient><linearGradient x1="212.66769" y1="154.57235" x2="237.48159" y2="154.57235" gradientUnits="userSpaceOnUse" id="color-19"><stop offset="0" stop-color="#123614"/><stop offset="1" stop-color="#0d1a0e"/></linearGradient><linearGradient x1="212.66769" y1="154.38341" x2="237.48159" y2="154.38341" gradientUnits="userSpaceOnUse" id="color-20"><stop offset="0" stop-color="#123614"/><stop offset="1" stop-color="#0d1a0e"/></linearGradient><linearGradient x1="242.46088" y1="184.43702" x2="267.33232" y2="184.43702" gradientUnits="userSpaceOnUse" id="color-21"><stop offset="0" stop-color="#2c4a2e"/><stop offset="1" stop-color="#1d301b"/></linearGradient><linearGradient x1="242.46088" y1="184.43702" x2="267.33232" y2="184.43702" gradientUnits="userSpaceOnUse" id="color-22"><stop offset="0" stop-color="#123614"/><stop offset="1" stop-color="#0d1a0e"/></linearGradient><linearGradient x1="242.39399" y1="184.44639" x2="267.2079" y2="184.44639" gradientUnits="userSpaceOnUse" id="color-23"><stop offset="0" stop-color="#123614"/><stop offset="1" stop-color="#0d1a0e"/></linearGradient><linearGradient x1="242.39399" y1="184.25746" x2="267.2079" y2="184.25746" gradientUnits="userSpaceOnUse" id="color-24"><stop offset="0" stop-color="#123614"/><stop offset="1" stop-color="#0d1a0e"/></linearGradient><linearGradient x1="212.73457" y1="184.56298" x2="237.60601" y2="184.56298" gradientUnits="userSpaceOnUse" id="color-25"><stop offset="0" stop-color="#2c4a2e"/><stop offset="1" stop-color="#1d301b"/></linearGradient><linearGradient x1="212.73457" y1="184.56298" x2="237.60601" y2="184.56298" gradientUnits="userSpaceOnUse" id="color-26"><stop offset="0" stop-color="#123614"/><stop offset="1" stop-color="#0d1a0e"/></linearGradient><linearGradient x1="212.66769" y1="184.57235" x2="237.48159" y2="184.57235" gradientUnits="userSpaceOnUse" id="color-27"><stop offset="0" stop-color="#123614"/><stop offset="1" stop-color="#0d1a0e"/></linearGradient><linearGradient x1="212.66769" y1="184.38341" x2="237.48159" y2="184.38341" gradientUnits="userSpaceOnUse" id="color-28"><stop offset="0" stop-color="#123614"/><stop offset="1" stop-color="#0d1a0e"/></linearGradient><linearGradient x1="249.08759" y1="229.45493" x2="253.30453" y2="230.59014" gradientUnits="userSpaceOnUse" id="color-29"><stop offset="0" stop-color="#524c43"/><stop offset="1" stop-color="#36312c"/></linearGradient><linearGradient x1="249.08759" y1="229.45493" x2="253.30453" y2="230.59014" gradientUnits="userSpaceOnUse" id="color-30"><stop offset="0" stop-color="#1f1f1f"/><stop offset="1" stop-color="#000000"/></linearGradient><linearGradient x1="250.74038" y1="216.02442" x2="258.72056" y2="218.17261" gradientUnits="userSpaceOnUse" id="color-31"><stop offset="0" stop-color="#ab966a"/><stop offset="1" stop-color="#4f3f2d"/></linearGradient><linearGradient x1="250.74038" y1="216.02442" x2="258.72056" y2="218.17261" gradientUnits="userSpaceOnUse" id="color-32"><stop offset="0" stop-color="#1f1f1f"/><stop offset="1" stop-color="#000000"/></linearGradient><linearGradient x1="227.31976" y1="229.21612" x2="231.81034" y2="228.70995" gradientUnits="userSpaceOnUse" id="color-33"><stop offset="0" stop-color="#523f2b"/><stop offset="1" stop-color="#2e2316"/></linearGradient><linearGradient x1="227.31976" y1="229.21612" x2="231.81034" y2="228.70995" gradientUnits="userSpaceOnUse" id="color-34"><stop offset="0" stop-color="#1f1f1f"/><stop offset="1" stop-color="#000000"/></linearGradient><linearGradient x1="253.83759" y1="229.95493" x2="258.05453" y2="231.09014" gradientUnits="userSpaceOnUse" id="color-35"><stop offset="0" stop-color="#524c43"/><stop offset="1" stop-color="#36312c"/></linearGradient><linearGradient x1="253.83759" y1="229.95493" x2="258.05453" y2="231.09014" gradientUnits="userSpaceOnUse" id="color-36"><stop offset="0" stop-color="#1f1f1f"/><stop offset="1" stop-color="#000000"/></linearGradient><linearGradient x1="255.49038" y1="216.52442" x2="263.47056" y2="218.67261" gradientUnits="userSpaceOnUse" id="color-37"><stop offset="0" stop-color="#ab966a"/><stop offset="1" stop-color="#4f3f2d"/></linearGradient><linearGradient x1="255.49038" y1="216.52442" x2="263.47056" y2="218.67261" gradientUnits="userSpaceOnUse" id="color-38"><stop offset="0" stop-color="#1f1f1f"/><stop offset="1" stop-color="#000000"/></linearGradient><linearGradient x1="260.35408" y1="216.92886" x2="268.33425" y2="219.07707" gradientUnits="userSpaceOnUse" id="color-39"><stop offset="0" stop-color="#ab966a"/><stop offset="1" stop-color="#4f3f2d"/></linearGradient><linearGradient x1="260.35408" y1="216.92886" x2="268.33425" y2="219.07707" gradientUnits="userSpaceOnUse" id="color-40"><stop offset="0" stop-color="#1f1f1f"/><stop offset="1" stop-color="#000000"/></linearGradient><linearGradient x1="258.75642" y1="230.36772" x2="262.97336" y2="231.50293" gradientUnits="userSpaceOnUse" id="color-41"><stop offset="0" stop-color="#524c43"/><stop offset="1" stop-color="#36312c"/></linearGradient><linearGradient x1="258.75642" y1="230.36772" x2="262.97336" y2="231.50293" gradientUnits="userSpaceOnUse" id="color-42"><stop offset="0" stop-color="#1f1f1f"/><stop offset="1" stop-color="#000000"/></linearGradient><linearGradient x1="219.81976" y1="227.96612" x2="224.31034" y2="227.45995" gradientUnits="userSpaceOnUse" id="color-43"><stop offset="0" stop-color="#523f2b"/><stop offset="1" stop-color="#2e2316"/></linearGradient><linearGradient x1="219.81976" y1="227.96612" x2="224.31034" y2="227.45995" gradientUnits="userSpaceOnUse" id="color-44"><stop offset="0" stop-color="#1f1f1f"/><stop offset="1" stop-color="#000000"/></linearGradient><linearGradient x1="207.34165" y1="241.89368" x2="271.5105" y2="241.89368" gradientUnits="userSpaceOnUse" id="color-45"><stop offset="0" stop-color="#b8a687"/><stop offset="1" stop-color="#4a443b"/></linearGradient><linearGradient x1="207.34165" y1="241.89368" x2="271.5105" y2="241.89368" gradientUnits="userSpaceOnUse" id="color-46"><stop offset="0" stop-color="#1f1a11"/><stop offset="1" stop-color="#191100"/></linearGradient><linearGradient x1="229.30001" y1="221.28132" x2="249.70001" y2="221.28132" gradientUnits="userSpaceOnUse" id="color-47"><stop offset="0" stop-color="#5c503f"/><stop offset="1" stop-color="#241c12"/></linearGradient><linearGradient x1="222.70001" y1="236.57465" x2="255.50001" y2="236.57465" gradientUnits="userSpaceOnUse" id="color-48"><stop offset="0" stop-color="#5c503f"/><stop offset="1" stop-color="#241c12"/></linearGradient><linearGradient x1="217.16343" y1="253.45735" x2="261.19757" y2="253.45735" gradientUnits="userSpaceOnUse" id="color-49"><stop offset="0" stop-color="#5c503f"/><stop offset="1" stop-color="#241c12"/></linearGradient><linearGradient x1="211.30001" y1="270.27213" x2="267.30001" y2="270.27213" gradientUnits="userSpaceOnUse" id="color-50"><stop offset="0" stop-color="#5c503f"/><stop offset="1" stop-color="#241c12"/></linearGradient><linearGradient x1="207.87501" y1="208.43029" x2="271.87501" y2="208.43029" gradientUnits="userSpaceOnUse" id="color-51"><stop offset="0" stop-color="#a89d8a"/><stop offset="1" stop-color="#665a54"/></linearGradient><linearGradient x1="207.87501" y1="208.43029" x2="271.87501" y2="208.43029" gradientUnits="userSpaceOnUse" id="color-52"><stop offset="0" stop-color="#1f1f1f"/><stop offset="1" stop-color="#000000"/></linearGradient><linearGradient x1="207.95583" y1="24.8702" x2="272.12466" y2="24.8702" gradientUnits="userSpaceOnUse" id="color-53"><stop offset="0" stop-color="#9c5555"/><stop offset="1" stop-color="#453131"/></linearGradient><linearGradient x1="207.95583" y1="24.85009" x2="272.12467" y2="24.85009" gradientUnits="userSpaceOnUse" id="color-54"><stop offset="0" stop-color="#272727"/><stop offset="1" stop-color="#000000"/></linearGradient><linearGradient x1="225.95583" y1="-3.04513" x2="252.12467" y2="-3.04513" gradientUnits="userSpaceOnUse" id="color-55"><stop offset="0" stop-color="#f7d6d6"/><stop offset="1" stop-color="#805e5e"/></linearGradient><linearGradient x1="225.95583" y1="-3.04767" x2="252.12467" y2="-3.04767" gradientUnits="userSpaceOnUse" id="color-56"><stop offset="0" stop-color="#272727"/><stop offset="1" stop-color="#000000"/></linearGradient><linearGradient x1="222.74586" y1="9.85799" x2="256.22595" y2="9.85799" gradientUnits="userSpaceOnUse" id="color-57"><stop offset="0" stop-color="#452a2a"/><stop offset="1" stop-color="#260f0f"/></linearGradient><linearGradient x1="219.58718" y1="20.85799" x2="259.91234" y2="20.85799" gradientUnits="userSpaceOnUse" id="color-58"><stop offset="0" stop-color="#452a2a"/><stop offset="1" stop-color="#260f0f"/></linearGradient><linearGradient x1="216.62984" y1="31.65799" x2="262.89988" y2="31.65799" gradientUnits="userSpaceOnUse" id="color-59"><stop offset="0" stop-color="#452a2a"/><stop offset="1" stop-color="#260f0f"/></linearGradient><linearGradient x1="213.47963" y1="42.05799" x2="266.32316" y2="42.05799" gradientUnits="userSpaceOnUse" id="color-60"><stop offset="0" stop-color="#452a2a"/><stop offset="1" stop-color="#260f0f"/></linearGradient><linearGradient x1="234.16667" y1="-18.94445" x2="244.5" y2="-18.94445" gradientUnits="userSpaceOnUse" id="color-61"><stop offset="0" stop-color="#443939"/><stop offset="1" stop-color="#251e1e"/></linearGradient><linearGradient x1="234.16667" y1="-18.94445" x2="244.5" y2="-18.94445" gradientUnits="userSpaceOnUse" id="color-62"><stop offset="0" stop-color="#262626"/><stop offset="1" stop-color="#0f0f0f"/></linearGradient><linearGradient x1="237.5" y1="-39.11112" x2="241.5" y2="-39.11112" gradientUnits="userSpaceOnUse" id="color-63"><stop offset="0" stop-color="#ccbebe"/><stop offset="1" stop-color="#656161"/></linearGradient><linearGradient x1="237.5" y1="-39.11112" x2="241.5" y2="-39.11112" gradientUnits="userSpaceOnUse" id="color-64"><stop offset="0" stop-color="#262626"/><stop offset="1" stop-color="#0f0f0f"/></linearGradient><linearGradient x1="208.29528" y1="78.33336" x2="271.70474" y2="78.33336" gradientUnits="userSpaceOnUse" id="color-65"><stop offset="0" stop-color="#303030"/><stop offset="1" stop-color="#171717"/></linearGradient><linearGradient x1="208.29528" y1="78.33336" x2="271.70474" y2="78.33336" gradientUnits="userSpaceOnUse" id="color-66"><stop offset="0" stop-color="#272727"/><stop offset="1" stop-color="#000000"/></linearGradient><radialGradient cx="240" cy="78.33336" r="26.30533" gradientUnits="userSpaceOnUse" id="color-67"><stop offset="0" stop-color="#734c45" stop-opacity="0.40995"/><stop offset="1" stop-color="#734c45" stop-opacity="0"/></radialGradient><radialGradient cx="240" cy="78.23981" r="21.35612" gradientUnits="userSpaceOnUse" id="color-68"><stop offset="0" stop-color="#eb8c73" stop-opacity="0.60996"/><stop offset="1" stop-color="#eb8c73" stop-opacity="0"/></radialGradient><radialGradient cx="240" cy="78.23981" r="18.07971" gradientUnits="userSpaceOnUse" id="color-69"><stop offset="0" stop-color="#ff734f" stop-opacity="0"/><stop offset="1" stop-color="#ff734f" stop-opacity="0.08997"/></radialGradient><radialGradient cx="240" cy="78.23981" r="14.86702" gradientUnits="userSpaceOnUse" id="color-70"><stop offset="0" stop-color="#ffa282" stop-opacity="0.11996"/><stop offset="1" stop-color="#ffab8f"/></radialGradient><linearGradient x1="209.18751" y1="78.29167" x2="213.43751" y2="78.29167" gradientUnits="userSpaceOnUse" id="color-71"><stop offset="0" stop-color="#9d9d9d"/><stop offset="1" stop-color="#4c4c4c"/></linearGradient><linearGradient x1="209.18751" y1="78.29167" x2="213.43751" y2="78.29167" gradientUnits="userSpaceOnUse" id="color-72"><stop offset="0" stop-color="#272727"/><stop offset="1" stop-color="#000000"/></linearGradient><linearGradient x1="266.68751" y1="78.29167" x2="270.93751" y2="78.29167" gradientUnits="userSpaceOnUse" id="color-73"><stop offset="0" stop-color="#9d9d9d"/><stop offset="1" stop-color="#4c4c4c"/></linearGradient><linearGradient x1="266.68751" y1="78.29167" x2="270.93751" y2="78.29167" gradientUnits="userSpaceOnUse" id="color-74"><stop offset="0" stop-color="#272727"/><stop offset="1" stop-color="#000000"/></linearGradient><linearGradient x1="209.07144" y1="86.15324" x2="270.92858" y2="86.15324" gradientUnits="userSpaceOnUse" id="color-75"><stop offset="0" stop-color="#272727"/><stop offset="1" stop-color="#000000"/></linearGradient><linearGradient x1="209.07144" y1="86.22775" x2="270.92858" y2="86.22775" gradientUnits="userSpaceOnUse" id="color-76"><stop offset="0" stop-color="#272727"/><stop offset="1" stop-color="#000000"/></linearGradient><linearGradient x1="209.2143" y1="69.72466" x2="271.07142" y2="69.72466" gradientUnits="userSpaceOnUse" id="color-77"><stop offset="0" stop-color="#272727"/><stop offset="1" stop-color="#000000"/></linearGradient><linearGradient x1="209.2143" y1="69.79918" x2="271.07142" y2="69.79918" gradientUnits="userSpaceOnUse" id="color-78"><stop offset="0" stop-color="#272727"/><stop offset="1" stop-color="#000000"/></linearGradient><linearGradient x1="208.45975" y1="96.66873" x2="270.95975" y2="96.66873" gradientUnits="userSpaceOnUse" id="color-79"><stop offset="0" stop-color="#c7a895"/><stop offset="1" stop-color="#322c27"/></linearGradient><linearGradient x1="208.45975" y1="96.66873" x2="270.95975" y2="96.66873" gradientUnits="userSpaceOnUse" id="color-80"><stop offset="0" stop-color="#272727"/><stop offset="1" stop-color="#000000"/></linearGradient><linearGradient x1="208.74547" y1="60.09729" x2="271.24547" y2="60.09729" gradientUnits="userSpaceOnUse" id="color-81"><stop offset="0" stop-color="#c7a895"/><stop offset="1" stop-color="#322c27"/></linearGradient><linearGradient x1="208.74547" y1="60.09729" x2="271.24547" y2="60.09729" gradientUnits="userSpaceOnUse" id="color-82"><stop offset="0" stop-color="#272727"/><stop offset="1" stop-color="#000000"/></linearGradient></defs><g transform="translate(-184.90252,59.77778)"><g data-paper-data="{&quot;isPaintingLayer&quot;:true}" fill-rule="nonzero" stroke-linejoin="miter" stroke-miterlimit="10" stroke-dasharray="" stroke-dashoffset="0" style="mix-blend-mode: normal"><g stroke-width="1.5" stroke-linecap="butt"><path d="M202.33333,182.66667v-63.34908c0,0 24.64933,-8.48425 36.88735,-8.48425c12.8438,0 38.44598,8.48425 38.44598,8.48425v63.34908z" fill="url(#color-1)" stroke="url(#color-2)"/><path d="M271.82285,203.5938v-64.85172c0,0 8.16113,43.53356 11.01446,54.04444c2.25749,8.31596 10.74054,25.65929 10.74054,25.65929z" fill="url(#color-3)" stroke="url(#color-4)"/><path d="M186.82285,218.11247c0,0 8.48305,-17.34332 10.74054,-25.65928c2.85333,-10.51089 11.01446,-54.04444 11.01446,-54.04444v64.85172z" data-paper-data="{&quot;index&quot;:null}" fill="url(#color-5)" stroke="url(#color-6)"/><path d="M208.48951,203.52914v-104.03706h63.40946v104.03706z" fill="url(#color-7)" stroke="url(#color-8)"/><path d="M212.66667,128.16667v-25.33333h54.66667v25.33333z" fill="url(#color-9)" stroke="url(#color-10)"/><path d="M212.66667,138.5v-7.33333h54.66667v7.33333z" fill="url(#color-11)" stroke="url(#color-12)"/></g><g stroke-width="3"><path d="M242.46088,167.38443v-25.89482h24.87144v25.89482z" fill="url(#color-13)" stroke="url(#color-14)" stroke-linecap="butt"/><path d="M242.39399,167.04229l24.81391,-25.19178" fill="none" stroke="url(#color-15)" stroke-linecap="round"/><path d="M242.64591,141.59858l24.56199,25.56966" fill="none" stroke="url(#color-16)" stroke-linecap="round"/><path d="M212.73457,167.51039v-25.89482h24.87144v25.89482z" fill="url(#color-17)" stroke="url(#color-18)" stroke-linecap="butt"/><path d="M212.66769,167.16825l24.81391,-25.19179" fill="none" stroke="url(#color-19)" stroke-linecap="round"/><path d="M212.9196,141.72454l24.56199,25.56966" fill="none" stroke="url(#color-20)" stroke-linecap="round"/><path d="M242.46088,197.38443v-25.89482h24.87144v25.89482z" fill="url(#color-21)" stroke="url(#color-22)" stroke-linecap="butt"/><path d="M242.39399,197.04229l24.81391,-25.19178" fill="none" stroke="url(#color-23)" stroke-linecap="round"/><path d="M242.64591,171.59859l24.56199,25.56965" fill="none" stroke="url(#color-24)" stroke-linecap="round"/><path d="M212.73457,197.51039v-25.89482h24.87144v25.89482z" fill="url(#color-25)" stroke="url(#color-26)" stroke-linecap="butt"/><path d="M212.66769,197.16825l24.81391,-25.19179" fill="none" stroke="url(#color-27)" stroke-linecap="round"/><path d="M237.48159,197.2942l-24.56199,-25.56966" fill="none" stroke="url(#color-28)" stroke-linecap="round"/></g><g><path d="M247.33075,235.98118l3.51367,-13.0525l4.21694,1.13518l-3.51367,13.0525z" fill="url(#color-29)" stroke="url(#color-30)" stroke-width="1.5" stroke-linecap="butt"/><path d="M258.72056,218.17261c-1.5862,5.77341 -1.84724,6.36656 -5.69644,5.26467c-3.85043,-1.10226 -3.81066,-1.93174 -2.28372,-7.41289c1.68585,-6.05154 1.7881,-6.47621 5.69645,-5.26466c3.74473,1.16083 4.02552,1.07307 2.28371,7.41288z" fill="url(#color-31)" stroke="url(#color-32)" stroke-width="1.5" stroke-linecap="butt"/><path d="M230.72507,251.04268l-10.33112,-39.58451l6.4105,-0.83507l5.16121,40.16343z" fill="url(#color-33)" stroke="url(#color-34)" stroke-width="1.5" stroke-linecap="butt"/><path d="M252.08075,236.48118l3.51367,-13.0525l4.21694,1.13518l-3.51367,13.0525z" fill="url(#color-35)" stroke="url(#color-36)" stroke-width="1.5" stroke-linecap="butt"/><path d="M263.47056,218.67261c-1.5862,5.77341 -1.84724,6.36656 -5.69644,5.26467c-3.85043,-1.10226 -3.81066,-1.93174 -2.28372,-7.41289c1.68584,-6.05154 1.7881,-6.47621 5.69645,-5.26466c3.74473,1.16083 4.02552,1.07307 2.28371,7.41288z" fill="url(#color-37)" stroke="url(#color-38)" stroke-width="1.5" stroke-linecap="butt"/><path d="M268.33425,219.07707c-1.5862,5.77341 -1.84725,6.36655 -5.69645,5.26466c-3.85042,-1.10226 -3.81066,-1.93174 -2.28372,-7.41289c1.68584,-6.05154 1.78809,-6.47621 5.69645,-5.26467c3.74473,1.16083 4.02553,1.07308 2.28372,7.41289z" fill="url(#color-39)" stroke="url(#color-40)" stroke-width="1.5" stroke-linecap="butt"/><path d="M254.01424,233.44534c0,0 3.88077,0.12237 4.3983,-1.80013c0.63104,-2.34416 2.10072,-7.80369 2.10072,-7.80369l4.21694,1.13518c0,0 -1.37843,5.12058 -1.99856,7.42425c-0.23189,0.86142 -1.51268,2.46744 -3.24478,3.4621c-2.301,1.32136 -5.16649,1.93746 -5.16649,1.93746z" fill="url(#color-41)" stroke="url(#color-42)" stroke-width="1.5" stroke-linecap="butt"/><path d="M223.22507,249.79268l-10.33112,-39.58451l6.4105,-0.83507l5.16121,40.16343z" fill="url(#color-43)" stroke="url(#color-44)" stroke-width="1.5" stroke-linecap="butt"/><path d="M207.34165,279.43566c0,0 23.96029,-75.63152 32.08881,-75.08097c9.29886,0.62981 32.08004,75.08097 32.08004,75.08097z" fill="url(#color-45)" stroke="url(#color-46)" stroke-width="1.5" stroke-linecap="butt"/><path d="M229.30001,221.28132h20.4" fill="none" stroke="url(#color-47)" stroke-width="4.5" stroke-linecap="round"/><path d="M222.70001,236.57465h32.8" fill="none" stroke="url(#color-48)" stroke-width="4.5" stroke-linecap="round"/><path d="M261.19757,253.45735h-44.03415" fill="none" stroke="url(#color-49)" stroke-width="4.5" stroke-linecap="round"/><path d="M211.30001,270.27213h56" fill="none" stroke="url(#color-50)" stroke-width="4.5" stroke-linecap="round"/><path d="M207.87501,203.75006h64c0,0 -0.14445,4.61077 -0.98682,6.27077c-0.72248,1.42372 -3.76318,3.08965 -3.76318,3.08965h-55c0,0 -2.31812,-1.76745 -2.93964,-3.13632c-0.76509,-1.68508 -1.31036,-6.2241 -1.31036,-6.2241z" fill="url(#color-51)" stroke="url(#color-52)" stroke-width="1.5" stroke-linecap="butt"/></g><g stroke-linecap="butt"><path d="M207.95583,56.95591c0,0 21.61061,-79.25 31.89763,-79.25c6.5993,0 32.27121,79.25 32.27121,79.25z" fill="url(#color-53)" stroke="url(#color-54)" stroke-width="1.5"/><path d="M225.95583,1.01441c0,0 10.25995,-24.02019 13.45027,-24.11876c2.90033,-0.0896 12.96857,24.11876 12.96857,24.11876z" fill="url(#color-55)" stroke="url(#color-56)" stroke-width="1.5"/><path d="M221.60132,13.96211c0,0 0.55545,-1.28597 1.37144,-2.81632c0.95758,-1.79589 2.54375,-3.92834 8.02471,-4.71401c0.21265,-0.03048 4.20771,-0.47706 4.20771,-0.47706l8.6914,0.01912c0,0 3.0045,0.1531 3.18094,0.18296c5.18707,0.87782 7.13492,3.08204 8.22529,4.92503c0.92973,1.57146 1.49541,2.88029 1.49541,2.88029z" data-paper-data="{&quot;index&quot;:null}" fill="url(#color-57)" stroke="#000000" stroke-width="0"/><path d="M218.20864,24.96211c0,0 0.66901,-1.28597 1.65183,-2.81632c1.15336,-1.79589 3.06382,-3.92834 9.66537,-4.71401c0.25613,-0.03048 5.06799,-0.47706 5.06799,-0.47706l10.46837,0.01912c0,0 3.61878,0.1531 3.83129,0.18296c6.24757,0.87782 8.59367,3.08204 9.90697,4.92503c1.11981,1.57146 1.80115,2.88029 1.80115,2.88029z" data-paper-data="{&quot;index&quot;:null}" fill="url(#color-58)" stroke="#000000" stroke-width="0"/><path d="M215.04807,35.76211c0,0 0.76764,-1.28597 1.89535,-2.81632c1.32339,-1.79589 3.5155,-3.92834 11.09027,-4.71401c0.29389,-0.03048 5.81513,-0.47706 5.81513,-0.47706l12.01166,0.01912c0,0 4.15227,0.1531 4.39611,0.18296c7.16861,0.87782 9.86058,3.08204 11.36749,4.92503c1.2849,1.57146 2.06668,2.88029 2.06668,2.88029z" data-paper-data="{&quot;index&quot;:null}" fill="url(#color-59)" stroke="#000000" stroke-width="0"/><path d="M211.67314,46.16211c0,0 0.8767,-1.28596 2.16462,-2.81632c1.51141,-1.79589 4.01494,-3.92834 12.66585,-4.71401c0.33564,-0.03048 6.64127,-0.47706 6.64127,-0.47706l13.71813,0.01912c0,0 4.74217,0.1531 5.02066,0.18296c8.18705,0.87782 11.26144,3.08204 12.98244,4.92502c1.46744,1.57146 2.36029,2.88029 2.36029,2.88029z" data-paper-data="{&quot;index&quot;:null}" fill="url(#color-60)" stroke="#000000" stroke-width="0"/><path d="M244.5,-18.94445c0,1.10457 -2.3132,2 -5.16667,2c-2.85347,0 -5.16667,-0.89543 -5.16667,-2c0,-1.10457 2.3132,-2 5.16667,-2c2.85347,0 5.16667,0.89543 5.16667,2z" fill="url(#color-61)" stroke="url(#color-62)" stroke-width="1"/><path d="M237.5,-18.94445v-40.33333h4v40.33333z" fill="url(#color-63)" stroke="url(#color-64)" stroke-width="1"/></g><g><path d="M208.29528,99.10189v-41.53706h63.40946v41.53706z" fill="url(#color-65)" stroke="url(#color-66)" stroke-width="1.5" stroke-linecap="butt"/><path d="M213.69468,78.33336c0,-14.528 11.7773,-26.30534 26.30534,-26.30534c14.528,0 26.30534,11.7773 26.30534,26.30534c0,14.528 -11.7773,26.30534 -26.30534,26.30534c-14.528,0 -26.30534,-11.7773 -26.30534,-26.30534z" fill="url(#color-67)" stroke="none" stroke-width="0.5" stroke-linecap="butt"/><path d="M218.64388,78.23981c0,-11.7946 9.56145,-21.35611 21.35612,-21.35611c11.7946,0 21.35612,9.56145 21.35612,21.35611c0,11.7946 -9.56145,21.35612 -21.35612,21.35612c-11.7946,0 -21.35612,-9.56145 -21.35612,-21.35612z" fill="url(#color-68)" stroke="none" stroke-width="0.5" stroke-linecap="butt"/><path d="M221.92028,78.23981c0,-9.98512 8.09456,-18.07971 18.07972,-18.07971c9.98512,0 18.07971,8.09455 18.07971,18.07971c0,9.98512 -8.09456,18.07972 -18.07971,18.07972c-9.98512,0 -18.07972,-8.09456 -18.07972,-18.07972z" fill="url(#color-69)" stroke="none" stroke-width="0.5" stroke-linecap="butt"/><path d="M225.13298,78.23981c0,-8.2108 6.65619,-14.86702 14.86703,-14.86702c8.2108,0 14.86703,6.65618 14.86703,14.86702c0,8.2108 -6.65619,14.86703 -14.86703,14.86703c-8.2108,0 -14.86703,-6.65619 -14.86703,-14.86703z" fill="url(#color-70)" stroke="none" stroke-width="0.5" stroke-linecap="butt"/><path d="M209.18751,94.54167v-32.5h4.25v32.5z" fill="url(#color-71)" stroke="url(#color-72)" stroke-width="0" stroke-linecap="butt"/><path d="M266.68751,94.54167v-32.5h4.25v32.5z" fill="url(#color-73)" stroke="url(#color-74)" stroke-width="0" stroke-linecap="butt"/><path d="M209.07144,94.6874l3.42857,-17.06832l3.28572,17.06832l4.42857,-16.91925l4.42857,16.84472l7.71429,-16.84472l7.42857,16.91925l6.57143,-16.84472l7.42857,16.77018l5,-16.77018l5.42857,16.91925l3.42857,-16.84472l3.28571,16.69565" fill="none" stroke="url(#color-75)" stroke-width="0.5" stroke-linecap="round"/><path d="M270.92858,77.76812l-3.28571,16.69565l-3.42857,-16.84472l-5.42857,16.91925l-5,-16.77018l-7.42857,16.77018l-6.57143,-16.84472l-7.42857,16.91925l-7.71429,-16.84472l-4.42857,16.84472l-4.42857,-16.91925l-3.28572,17.06832l-3.42857,-17.06832" data-paper-data="{&quot;index&quot;:null}" fill="none" stroke="url(#color-76)" stroke-width="0.5" stroke-linecap="round"/><path d="M209.2143,78.2588l3.42857,-17.06832l3.28572,17.06832l4.42857,-16.91925l4.42857,16.84472l7.71429,-16.84472l7.42857,16.91925l6.57143,-16.84472l7.42857,16.77019l5,-16.77019l5.42857,16.91926l3.42857,-16.84472l3.28571,16.69565" fill="none" stroke="url(#color-77)" stroke-width="0.5" stroke-linecap="round"/><path d="M271.07142,61.33957l-3.28571,16.69565l-3.42857,-16.84472l-5.42857,16.91925l-5,-16.77018l-7.42857,16.77018l-6.57143,-16.84472l-7.42857,16.91925l-7.71429,-16.84472l-4.42857,16.84472l-4.42857,-16.91925l-3.28572,17.06832l-3.42857,-17.06832" data-paper-data="{&quot;index&quot;:null}" fill="none" stroke="url(#color-78)" stroke-width="0.5" stroke-linecap="round"/><path d="M208.45975,98.50206v-3.66666h62.5v3.66666z" fill="url(#color-79)" stroke="url(#color-80)" stroke-width="0.5" stroke-linecap="butt"/><path d="M208.74547,61.93063v-3.66666h62.5v3.66666z" fill="url(#color-81)" stroke="url(#color-82)" stroke-width="0.5" stroke-linecap="butt"/></g></g></g></svg>