<svg version="1.1" xmlns="http://www.w3.org/2000/svg" xmlns:xlink="http://www.w3.org/1999/xlink" width="85.65668" height="85.65668" viewBox="0,0,85.65668,85.65668"><defs><radialGradient cx="239.99994" cy="180" r="42.82833" gradientUnits="userSpaceOnUse" id="color-1"><stop offset="0" stop-color="#734545" stop-opacity="0.30998"/><stop offset="1" stop-color="#734545" stop-opacity="0"/></radialGradient><radialGradient cx="239.9647" cy="179.75362" r="35.64997" gradientUnits="userSpaceOnUse" id="color-2"><stop offset="0" stop-color="#ffcbab"/><stop offset="1" stop-color="#544331"/></radialGradient><radialGradient cx="240.1834" cy="179.6287" r="36.03033" gradientUnits="userSpaceOnUse" id="color-3"><stop offset="0" stop-color="#bc957e"/><stop offset="1" stop-color="#33291e"/></radialGradient><radialGradient cx="239.99994" cy="180" r="34.77044" gradientUnits="userSpaceOnUse" id="color-4"><stop offset="0" stop-color="#eb7373" stop-opacity="0.62996"/><stop offset="1" stop-color="#eb7373" stop-opacity="0"/></radialGradient><radialGradient cx="239.99994" cy="180" r="29.43598" gradientUnits="userSpaceOnUse" id="color-5"><stop offset="0" stop-color="#ff4f4f"/><stop offset="1" stop-color="#ff4f4f" stop-opacity="0"/></radialGradient><radialGradient cx="239.99994" cy="180" r="24.20537" gradientUnits="userSpaceOnUse" id="color-6"><stop offset="0" stop-color="#ea3939"/><stop offset="1" stop-color="#bd4b4b"/></radialGradient><radialGradient cx="240.03122" cy="180.13725" r="36.34581" gradientUnits="userSpaceOnUse" id="color-7"><stop offset="0" stop-color="#080504"/><stop offset="1" stop-color="#21150d"/></radialGradient><radialGradient cx="240.07724" cy="180.03886" r="35.96212" gradientUnits="userSpaceOnUse" id="color-8"><stop offset="0" stop-color="#110b08"/><stop offset="1" stop-color="#26180e"/></radialGradient></defs><g transform="translate(-197.17166,-137.17166)"><g data-paper-data="{&quot;isPaintingLayer&quot;:true}" fill-rule="nonzero" stroke-linecap="butt" stroke-linejoin="miter" stroke-miterlimit="10" stroke-dasharray="" stroke-dashoffset="0" style="mix-blend-mode: normal"><path d="M197.17166,180c0,-23.65334 19.17486,-42.82834 42.82834,-42.82834c23.65335,0 42.82834,19.17486 42.82834,42.82834c0,23.65335 -19.17487,42.82834 -42.82834,42.82834c-23.65334,0 -42.82834,-19.17486 -42.82834,-42.82834z" fill="url(#color-1)" stroke="none" stroke-width="0.5"/><path d="M203.0019,166.94854c0,0 21.68285,11.57322 39.47484,17.20326c14.23291,4.50382 36.45778,5.23414 36.45778,5.23414l-2.24822,3.19968c0,0 -8.06381,3.2403 -35.32906,-4.60369c-31.70677,-9.12177 -40.17815,-17.09243 -40.17815,-17.09243z" data-paper-data="{&quot;index&quot;:null}" fill="url(#color-2)" stroke="#676767" stroke-width="0"/><path d="M259.15186,144.86035c0,0 0.31209,11.62748 -13.979,41.36451c-12.28918,25.57144 -20.07403,29.43416 -20.07403,29.43416l-3.88444,-0.45114c0,0 14.24478,-17.07524 20.35456,-30.69621c7.63756,-17.02702 13.42824,-40.91328 13.42824,-40.91328z" data-paper-data="{&quot;index&quot;:null}" fill="url(#color-3)" stroke="#676767" stroke-width="0"/><path d="M205.22956,180c0,-19.2031 15.56721,-34.77044 34.77044,-34.77044c19.2031,0 34.77044,15.56721 34.77044,34.77044c0,19.2031 -15.56721,34.77044 -34.77044,34.77044c-19.2031,0 -34.77044,-15.56721 -34.77044,-34.77044z" fill="url(#color-4)" stroke="none" stroke-width="0.5"/><path d="M210.56396,180c0,-16.25699 13.17892,-29.43598 29.43598,-29.43598c16.25699,0 29.43598,13.17892 29.43598,29.43598c0,16.25699 -13.17893,29.43598 -29.43598,29.43598c-16.25699,0 -29.43598,-13.17892 -29.43598,-29.43598z" fill="url(#color-5)" stroke="none" stroke-width="0.5"/><path d="M215.79463,180c0,-13.36821 10.83709,-24.20537 24.20537,-24.20537c13.36821,0 24.20537,10.83709 24.20537,24.20537c0,13.36821 -10.8371,24.20537 -24.20537,24.20537c-13.36821,0 -24.20537,-10.83709 -24.20537,-24.20537z" fill="url(#color-6)" stroke="none" stroke-width="0.5"/><path d="M220.9227,215.21003c0,0 -1.59782,-12.0501 12.8184,-42.04751c12.39678,-25.79534 21.5328,-29.37108 21.5328,-29.37108l3.91845,0.4551c0,0 -12.60543,18.34748 -18.76869,32.08772c-7.70444,17.17611 -15.30991,40.1488 -15.30991,40.1488z" fill="url(#color-7)" stroke="#676767" stroke-width="0"/><path d="M277.24416,193.38036c0,0 -22.11122,-9.8327 -40.00118,-15.69157c-14.3113,-4.68688 -36.36568,-7.70863 -36.36568,-7.70863l2.30013,-3.2048c0,0 8.79279,-4.35195 36.21612,3.8359c31.8906,9.52165 39.72913,18.81225 39.72913,18.81225z" data-paper-data="{&quot;index&quot;:null}" fill="url(#color-8)" stroke="#676767" stroke-width="0"/></g></g></svg>