<svg version="1.1" xmlns="http://www.w3.org/2000/svg" xmlns:xlink="http://www.w3.org/1999/xlink" width="59" height="59.70662" viewBox="0,0,59,59.70662"><defs><linearGradient x1="270" y1="151.64669" x2="270" y2="208.35331" gradientUnits="userSpaceOnUse" id="color-1"><stop offset="0" stop-color="#191919"/><stop offset="1" stop-color="#050505"/></linearGradient><linearGradient x1="270" y1="151.64669" x2="270" y2="208.35331" gradientUnits="userSpaceOnUse" id="color-2"><stop offset="0" stop-color="#cccccc"/><stop offset="1" stop-color="#898989"/></linearGradient><radialGradient cx="270" cy="180" r="26.8571" gradientUnits="userSpaceOnUse" id="color-3"><stop offset="0" stop-color="#d8ffd1" stop-opacity="0.40995"/><stop offset="1" stop-color="#d8ffd1" stop-opacity="0"/></radialGradient><linearGradient x1="270" y1="153.2921" x2="270" y2="206.70789" gradientUnits="userSpaceOnUse" id="color-4"><stop offset="0" stop-color="#cccccc"/><stop offset="1" stop-color="#898989"/></linearGradient><linearGradient x1="274.70655" y1="186.43417" x2="275.21601" y2="186.93613" gradientUnits="userSpaceOnUse" id="color-5"><stop offset="0" stop-color="#000000" stop-opacity="0"/><stop offset="1" stop-color="#000000" stop-opacity="0"/></linearGradient><linearGradient x1="257.64824" y1="205.01896" x2="293.03618" y2="169.102" gradientUnits="userSpaceOnUse" id="color-6"><stop offset="0" stop-color="#454545"/><stop offset="1" stop-color="#232323"/></linearGradient><linearGradient x1="275.16947" y1="186.89028" x2="275.51497" y2="187.23068" gradientUnits="userSpaceOnUse" id="color-7"><stop offset="0" stop-color="#1d1d1d"/><stop offset="1" stop-color="#000000"/></linearGradient><linearGradient x1="262.96066" y1="174.86129" x2="266.71137" y2="178.55676" gradientUnits="userSpaceOnUse" id="color-8"><stop offset="0" stop-color="#888888" stop-opacity="0.30645"/><stop offset="1" stop-color="#c4c4c4" stop-opacity="0.37802"/></linearGradient><linearGradient x1="262.96066" y1="174.86129" x2="266.71137" y2="178.55676" gradientUnits="userSpaceOnUse" id="color-9"><stop offset="0" stop-color="#454545"/><stop offset="1" stop-color="#303030"/></linearGradient><linearGradient x1="266.69829" y1="178.54387" x2="275.25454" y2="186.97409" gradientUnits="userSpaceOnUse" id="color-10"><stop offset="0" stop-color="#ffffff" stop-opacity="0.29032"/><stop offset="1" stop-color="#c4c4c4" stop-opacity="0.32157"/></linearGradient><linearGradient x1="266.69829" y1="178.54387" x2="275.25454" y2="186.97409" gradientUnits="userSpaceOnUse" id="color-11"><stop offset="0" stop-color="#303030"/><stop offset="1" stop-color="#000000"/></linearGradient><linearGradient x1="249.25103" y1="188.88057" x2="261.469" y2="200.91858" gradientUnits="userSpaceOnUse" id="color-12"><stop offset="0" stop-color="#454545"/><stop offset="1" stop-color="#000000"/></linearGradient><linearGradient x1="253.26071" y1="184.81095" x2="265.47868" y2="196.84897" gradientUnits="userSpaceOnUse" id="color-13"><stop offset="0" stop-color="#454545"/><stop offset="1" stop-color="#000000"/></linearGradient><linearGradient x1="257.27038" y1="180.74133" x2="269.48835" y2="192.77934" gradientUnits="userSpaceOnUse" id="color-14"><stop offset="0" stop-color="#454545"/><stop offset="1" stop-color="#000000"/></linearGradient><linearGradient x1="261.28006" y1="176.67171" x2="273.49803" y2="188.70973" gradientUnits="userSpaceOnUse" id="color-15"><stop offset="0" stop-color="#454545"/><stop offset="1" stop-color="#000000"/></linearGradient><linearGradient x1="265.28973" y1="172.60209" x2="277.50771" y2="184.64011" gradientUnits="userSpaceOnUse" id="color-16"><stop offset="0" stop-color="#454545"/><stop offset="1" stop-color="#000000"/></linearGradient><linearGradient x1="269.29941" y1="168.53248" x2="281.51739" y2="180.5705" gradientUnits="userSpaceOnUse" id="color-17"><stop offset="0" stop-color="#454545"/><stop offset="1" stop-color="#000000"/></linearGradient><linearGradient x1="273.30909" y1="164.46286" x2="285.52706" y2="176.50087" gradientUnits="userSpaceOnUse" id="color-18"><stop offset="0" stop-color="#454545"/><stop offset="1" stop-color="#000000"/></linearGradient><linearGradient x1="277.31877" y1="160.39324" x2="289.53674" y2="172.43126" gradientUnits="userSpaceOnUse" id="color-19"><stop offset="0" stop-color="#454545"/><stop offset="1" stop-color="#000000"/></linearGradient></defs><g transform="translate(-240.5,-150.14669)"><g data-paper-data="{&quot;isPaintingLayer&quot;:true}" fill-rule="nonzero" stroke-linejoin="miter" stroke-miterlimit="10" stroke-dasharray="" stroke-dashoffset="0" style="mix-blend-mode: normal"><path d="M242,208.35331v-56.70662h56v56.70662z" fill="url(#color-1)" stroke="url(#color-2)" stroke-width="3" stroke-linecap="butt"/><path d="M296.8571,180c0,14.75036 -12.02433,26.70789 -26.8571,26.70789c-14.83277,0 -26.8571,-11.95753 -26.8571,-26.70789c0,-14.75036 12.02433,-26.70789 26.8571,-26.70789c14.83277,0 26.8571,11.95753 26.8571,26.70789z" fill="url(#color-3)" stroke="url(#color-4)" stroke-width="0" stroke-linecap="butt"/><path d="M257.60569,204.8097l-0.50946,-0.50195l35.22062,-35.74713l0.50946,0.50195z" fill="#382718" stroke="url(#color-5)" stroke-width="0.5" stroke-linecap="butt"/><g stroke-width="0.5"><path d="M257.821,205.18916l-0.34549,-0.3404l35.38794,-35.91695l0.34549,0.3404z" fill="url(#color-6)" stroke="url(#color-7)" stroke-linecap="butt"/><path d="M249.01741,196.51524l-3.75072,-3.69548l35.38794,-35.91695l3.75072,3.69548z" fill="url(#color-8)" stroke="url(#color-9)" stroke-linecap="butt"/><path d="M257.56057,204.93256l-8.55624,-8.43022l35.38794,-35.91695l8.55624,8.43022z" fill="url(#color-10)" stroke="url(#color-11)" stroke-linecap="butt"/><path d="M261.469,200.91858l-12.21797,-12.03802" fill="none" stroke="url(#color-12)" stroke-linecap="round"/><path d="M253.26071,184.81095l12.21797,12.03802" fill="none" stroke="url(#color-13)" stroke-linecap="round"/><path d="M269.48835,192.77935l-12.21797,-12.03802" fill="none" stroke="url(#color-14)" stroke-linecap="round"/><path d="M261.28006,176.67171l12.21797,12.03802" fill="none" stroke="url(#color-15)" stroke-linecap="round"/><path d="M265.28973,172.60209l12.21797,12.03802" fill="none" stroke="url(#color-16)" stroke-linecap="round"/><path d="M281.51739,180.5705l-12.21797,-12.03802" fill="none" stroke="url(#color-17)" stroke-linecap="round"/><path d="M285.52706,176.50087l-12.21797,-12.03802" fill="none" stroke="url(#color-18)" stroke-linecap="round"/><path d="M289.53674,172.43126l-12.21797,-12.03802" fill="none" stroke="url(#color-19)" stroke-linecap="round"/></g><path d="M245.27327,163.339v-8.69862h42.60286v8.69862z" fill-opacity="0.53453" fill="#000000" stroke="#a60000" stroke-width="0" stroke-linecap="butt"/><text transform="translate(245.70712,161.61518) scale(0.21839,0.21839)" font-size="40" xml:space="preserve" fill="#ffffff" fill-rule="nonzero" stroke="none" stroke-width="1" stroke-linecap="butt" stroke-linejoin="miter" stroke-miterlimit="10" stroke-dasharray="" stroke-dashoffset="0" font-family="Serif" font-weight="normal" text-anchor="start" style="mix-blend-mode: normal"><tspan x="0" dy="0">Greenhouse</tspan></text></g></g></svg>