<svg version="1.1" xmlns="http://www.w3.org/2000/svg" xmlns:xlink="http://www.w3.org/1999/xlink" width="59" height="59.70662" viewBox="0,0,59,59.70662"><defs><linearGradient x1="270" y1="151.64671" x2="270" y2="208.35333" gradientUnits="userSpaceOnUse" id="color-1"><stop offset="0" stop-color="#191919"/><stop offset="1" stop-color="#050505"/></linearGradient><linearGradient x1="270" y1="151.64671" x2="270" y2="208.35333" gradientUnits="userSpaceOnUse" id="color-2"><stop offset="0" stop-color="#cccccc"/><stop offset="1" stop-color="#898989"/></linearGradient><radialGradient cx="270" cy="180" r="26.8571" gradientUnits="userSpaceOnUse" id="color-3"><stop offset="0" stop-color="#ffffff" stop-opacity="0.35484"/><stop offset="1" stop-color="#ffffff" stop-opacity="0"/></radialGradient><linearGradient x1="270" y1="153.2921" x2="270" y2="206.70789" gradientUnits="userSpaceOnUse" id="color-4"><stop offset="0" stop-color="#cccccc"/><stop offset="1" stop-color="#898989"/></linearGradient><radialGradient cx="279.93475" cy="160.50426" r="14.23191" gradientUnits="userSpaceOnUse" id="color-5"><stop offset="0" stop-color="#ffa5a5"/><stop offset="1" stop-color="#9c4b4b"/></radialGradient><linearGradient x1="271.9749" y1="179.57543" x2="266.87641" y2="196.43904" gradientUnits="userSpaceOnUse" id="color-6"><stop offset="0" stop-color="#3b3d45"/><stop offset="1" stop-color="#575666"/></linearGradient><linearGradient x1="255.74478" y1="183.871" x2="283.10655" y2="192.14347" gradientUnits="userSpaceOnUse" id="color-7"><stop offset="0" stop-color="#160000"/><stop offset="1" stop-color="#000000"/></linearGradient><linearGradient x1="251.55908" y1="191.97926" x2="281.83051" y2="201.13141" gradientUnits="userSpaceOnUse" id="color-8"><stop offset="0" stop-color="#948357"/><stop offset="1" stop-color="#6b653a"/></linearGradient><linearGradient x1="251.55908" y1="191.97925" x2="281.83052" y2="201.13141" gradientUnits="userSpaceOnUse" id="color-9"><stop offset="0" stop-color="#453e00" stop-opacity="0.50196"/><stop offset="1" stop-color="#3d2c00" stop-opacity="0.50196"/></linearGradient><linearGradient x1="257.95277" y1="184.11811" x2="258.92415" y2="184.41178" gradientUnits="userSpaceOnUse" id="color-10"><stop offset="0" stop-color="#848594"/><stop offset="1" stop-color="#5a607d"/></linearGradient><linearGradient x1="260.6848" y1="184.94408" x2="261.65619" y2="185.23777" gradientUnits="userSpaceOnUse" id="color-11"><stop offset="0" stop-color="#848594"/><stop offset="1" stop-color="#5a607d"/></linearGradient><linearGradient x1="263.41683" y1="185.77007" x2="264.38822" y2="186.06376" gradientUnits="userSpaceOnUse" id="color-12"><stop offset="0" stop-color="#848594"/><stop offset="1" stop-color="#5a607d"/></linearGradient><linearGradient x1="266.14884" y1="186.59608" x2="267.12023" y2="186.88977" gradientUnits="userSpaceOnUse" id="color-13"><stop offset="0" stop-color="#848594"/><stop offset="1" stop-color="#5a607d"/></linearGradient><linearGradient x1="268.88088" y1="187.42206" x2="269.85229" y2="187.71575" gradientUnits="userSpaceOnUse" id="color-14"><stop offset="0" stop-color="#848594"/><stop offset="1" stop-color="#5a607d"/></linearGradient><linearGradient x1="271.65429" y1="188.26056" x2="272.62567" y2="188.55423" gradientUnits="userSpaceOnUse" id="color-15"><stop offset="0" stop-color="#848594"/><stop offset="1" stop-color="#5a607d"/></linearGradient><linearGradient x1="274.38631" y1="189.08656" x2="275.35769" y2="189.38025" gradientUnits="userSpaceOnUse" id="color-16"><stop offset="0" stop-color="#848594"/><stop offset="1" stop-color="#5a607d"/></linearGradient><linearGradient x1="277.10584" y1="189.9539" x2="278.07723" y2="190.24759" gradientUnits="userSpaceOnUse" id="color-17"><stop offset="0" stop-color="#848594"/><stop offset="1" stop-color="#5a607d"/></linearGradient><linearGradient x1="279.83787" y1="190.77988" x2="280.80926" y2="191.07357" gradientUnits="userSpaceOnUse" id="color-18"><stop offset="0" stop-color="#848594"/><stop offset="1" stop-color="#5a607d"/></linearGradient><linearGradient x1="256.71029" y1="174.94122" x2="286.98174" y2="184.09339" gradientUnits="userSpaceOnUse" id="color-19"><stop offset="0" stop-color="#948357"/><stop offset="1" stop-color="#6b653a"/></linearGradient><linearGradient x1="256.71029" y1="174.94122" x2="286.98174" y2="184.09339" gradientUnits="userSpaceOnUse" id="color-20"><stop offset="0" stop-color="#453e00" stop-opacity="0.50196"/><stop offset="1" stop-color="#3d2c00" stop-opacity="0.50196"/></linearGradient><linearGradient x1="282.39713" y1="192.13138" x2="284.49243" y2="192.76486" gradientUnits="userSpaceOnUse" id="color-21"><stop offset="0" stop-color="#717787"/><stop offset="1" stop-color="#59606f"/></linearGradient><linearGradient x1="282.39713" y1="192.13138" x2="284.49243" y2="192.76486" gradientUnits="userSpaceOnUse" id="color-22"><stop offset="0" stop-color="#2d3552" stop-opacity="0.50196"/><stop offset="1" stop-color="#2b2d4f" stop-opacity="0.50196"/></linearGradient><linearGradient x1="253.97838" y1="183.53935" x2="256.07367" y2="184.17283" gradientUnits="userSpaceOnUse" id="color-23"><stop offset="0" stop-color="#717787"/><stop offset="1" stop-color="#59606f"/></linearGradient><linearGradient x1="253.97838" y1="183.53935" x2="256.07367" y2="184.17283" gradientUnits="userSpaceOnUse" id="color-24"><stop offset="0" stop-color="#2d3552" stop-opacity="0.50196"/><stop offset="1" stop-color="#2b2d4f" stop-opacity="0.50196"/></linearGradient></defs><g transform="translate(-240.5,-150.1467)"><g data-paper-data="{&quot;isPaintingLayer&quot;:true}" fill-rule="nonzero" stroke-linejoin="miter" stroke-miterlimit="10" stroke-dasharray="" stroke-dashoffset="0" style="mix-blend-mode: normal"><path d="M242,208.35333v-56.70662h56v56.70662z" fill="url(#color-1)" stroke="url(#color-2)" stroke-width="3" stroke-linecap="butt"/><path d="M296.8571,180c0,14.75036 -12.02433,26.70789 -26.8571,26.70789c-14.83277,0 -26.8571,-11.95753 -26.8571,-26.70789c0,-14.75036 12.02433,-26.70789 26.8571,-26.70789c14.83277,0 26.8571,11.95753 26.8571,26.70789z" fill="url(#color-3)" stroke="url(#color-4)" stroke-width="0" stroke-linecap="butt"/><g fill="none" stroke="#a5a5a5" stroke-width="1" stroke-linecap="round"><path d="M270.89644,182.40258l-7.64374,-19.1913"/><path d="M287.94128,170.67555l-16.99596,11.74182" data-paper-data="{&quot;index&quot;:null}"/><path d="M270.90429,182.40496l-3.69164,-17.99643"/><path d="M270.93748,182.41499l13.04385,-12.93668" data-paper-data="{&quot;index&quot;:null}"/><path d="M271.61258,165.73877l-0.6996,16.6688"/><path d="M270.92877,182.41236l8.65262,-14.26431" data-paper-data="{&quot;index&quot;:null}"/><path d="M270.93282,182.45872l4.82614,-15.96281"/></g><path d="M261.6941,163.88785c0,0 5.73304,-8.51519 16.48754,-5.34785c10.35866,3.13996 10.68233,13.56229 10.68233,13.56229c0,0 -0.02646,0.9382 -0.5265,0.91368c-0.18282,-0.00896 -0.54557,-0.9248 -0.8277,-0.95611c-0.35646,-0.03955 -0.89626,0.81744 -1.44266,0.72379c-0.54518,-0.09345 -1.09651,-1.13739 -1.86565,-1.30517c-0.55338,-0.12071 -1.09231,0.52724 -1.77713,0.35896c-0.56803,-0.13959 -1.26043,-1.0874 -1.92705,-1.26451c-0.65669,-0.17448 -1.43515,0.46754 -2.19465,0.25246c-0.51462,-0.14573 -0.9815,-1.137 -1.54605,-1.30297c-0.54179,-0.15928 -1.33213,0.4162 -1.92189,0.23711c-0.58918,-0.17891 -0.92788,-1.09721 -1.46726,-1.26616c-0.57567,-0.18033 -1.56791,0.36822 -2.08936,0.19913c-0.7357,-0.23857 -0.97441,-1.18925 -1.60843,-1.40576c-0.69401,-0.237 -1.78612,0.30369 -2.36744,0.09269c-0.74971,-0.27212 -0.95284,-1.28737 -1.53329,-1.51709c-0.56329,-0.22293 -1.44314,0.30151 -1.93622,0.08498c-0.47971,-0.21066 -0.57621,-1.16333 -0.87223,-1.30607c-0.35904,-0.17312 -1.0318,0.46793 -1.21616,0.36203c-0.45249,-0.25991 -0.05018,-1.11543 -0.05018,-1.11543z" fill="url(#color-5)" stroke="none" stroke-width="0" stroke-linecap="butt"/><g fill="none" stroke-opacity="0.44706" stroke="#572222" stroke-width="0.5" stroke-linecap="round"><path d="M274.74226,169.76668l3.40465,-11.11184"/><path d="M278.44889,158.701c0,0 0.86186,3.06435 0.87775,5.20694c0.01601,2.15819 -1.0154,6.89263 -1.0154,6.89263"/><path d="M271.23963,168.66257c0,0 1.76439,-4.51284 2.97341,-6.30066c1.20029,-1.7749 3.61554,-3.84846 3.61554,-3.84846" data-paper-data="{&quot;index&quot;:null}"/><path d="M278.80803,158.80959c0,0 2.75914,3.63796 3.47913,5.99343c0.72523,2.37261 0.16434,6.93337 0.16434,6.93337"/><path d="M267.23692,167.27187c0,0 2.09737,-4.23163 4.01563,-5.80501c1.90439,-1.56202 6.21691,-3.06197 6.21691,-3.06197" data-paper-data="{&quot;index&quot;:null}"/><path d="M279.13813,158.90938c0,0 3.64236,2.23502 5.87029,6.71637c1.37715,2.56971 1.11977,7.08683 1.11977,7.08683"/><path d="M263.6939,165.7042c0,0 2.26719,-3.68381 4.83736,-5.0601c3.88168,-2.18284 8.60808,-2.33903 8.60808,-2.33903" data-paper-data="{&quot;index&quot;:null}"/><path d="M279.34491,158.97189c0,0 3.35757,0.25326 7.36807,7.1692c1.7855,2.69317 1.7859,6.79174 1.7859,6.79174"/><path d="M261.57714,164.79341c0,0 2.27108,-3.41182 5.24959,-4.66465c7.60892,-3.49323 10.10584,-1.8862 10.10584,-1.8862" data-paper-data="{&quot;index&quot;:null}"/></g><path d="M253.19554,192.3028l5.09848,-16.86361l27.36179,8.27247l-5.09849,16.86361z" fill="url(#color-6)" stroke="url(#color-7)" stroke-width="1" stroke-linecap="butt"/><path d="M251.29568,192.85046l0.52679,-1.74241l30.27145,9.15217l-0.5268,1.7424z" fill="url(#color-8)" stroke="url(#color-9)" stroke-width="0.5" stroke-linecap="butt"/><path d="M255.5522,192.05816l4.80114,-15.8801l0.97139,0.29369l-4.80113,15.8801z" fill="url(#color-10)" stroke="none" stroke-width="0" stroke-linecap="butt"/><path d="M258.28423,192.88415l4.80113,-15.8801l0.97139,0.29369l-4.80114,15.88011z" fill="url(#color-11)" stroke="none" stroke-width="0" stroke-linecap="butt"/><path d="M261.01626,193.71013l4.80113,-15.88011l0.9714,0.29369l-4.80114,15.88011z" fill="url(#color-12)" stroke="none" stroke-width="0" stroke-linecap="butt"/><path d="M263.74827,194.53613l4.80114,-15.8801l0.97139,0.29368l-4.80114,15.88011z" fill="url(#color-13)" stroke="none" stroke-width="0" stroke-linecap="butt"/><path d="M266.48031,195.36213l4.80114,-15.8801l0.97139,0.29369l-4.80113,15.8801z" fill="url(#color-14)" stroke="none" stroke-width="0" stroke-linecap="butt"/><path d="M269.25372,196.20062l4.80113,-15.8801l0.97139,0.29368l-4.80113,15.88011z" fill="url(#color-15)" stroke="none" stroke-width="0" stroke-linecap="butt"/><path d="M271.98574,197.02662l4.80114,-15.8801l0.97139,0.29368l-4.80114,15.8801z" fill="url(#color-16)" stroke="none" stroke-width="0" stroke-linecap="butt"/><path d="M274.70527,197.89396l4.80113,-15.88011l0.97139,0.29369l-4.80113,15.8801z" fill="url(#color-17)" stroke="none" stroke-width="0" stroke-linecap="butt"/><path d="M277.4373,198.71996l4.80113,-15.8801l0.97139,0.29368l-4.80114,15.88011z" fill="url(#color-18)" stroke="none" stroke-width="0" stroke-linecap="butt"/><path d="M256.53803,175.51099l0.34453,-1.13955l30.27144,9.15217l-0.34452,1.13954z" fill="url(#color-19)" stroke="url(#color-20)" stroke-width="0.5" stroke-linecap="butt"/><path d="M279.55478,201.53263l5.68468,-18.80249l2.09529,0.63349l-5.68468,18.80248z" fill="url(#color-21)" stroke="url(#color-22)" stroke-width="0.5" stroke-linecap="butt"/><path d="M251.13603,192.94059l5.68468,-18.80248l2.09529,0.63348l-5.68468,18.80249z" fill="url(#color-23)" stroke="url(#color-24)" stroke-width="0.5" stroke-linecap="butt"/><path d="M245.27327,163.339v-8.69862h31.60425v8.69862z" fill-opacity="0.53453" fill="#000000" stroke="#a60000" stroke-width="0" stroke-linecap="butt"/><text transform="translate(245.70712,161.6152) scale(0.21839,0.21839)" font-size="40" xml:space="preserve" fill="#ffffff" fill-rule="nonzero" stroke="#000000" stroke-width="0" stroke-linecap="butt" stroke-linejoin="miter" stroke-miterlimit="10" stroke-dasharray="" stroke-dashoffset="0" font-family="Serif" font-weight="normal" text-anchor="start" style="mix-blend-mode: normal"><tspan x="0" dy="0">Supplies</tspan></text></g></g></svg>