<svg version="1.1" xmlns="http://www.w3.org/2000/svg" xmlns:xlink="http://www.w3.org/1999/xlink" width="33.123" height="33.41037" viewBox="0,0,33.123,33.41037"><defs><radialGradient cx="240.01834" cy="180.03297" r="12.49729" gradientUnits="userSpaceOnUse" id="color-1"><stop offset="0" stop-color="#dcb094"/><stop offset="1" stop-color="#50402f"/></radialGradient><radialGradient cx="240.06322" cy="179.95865" r="12.63062" gradientUnits="userSpaceOnUse" id="color-2"><stop offset="0" stop-color="#cca288"/><stop offset="1" stop-color="#3d3124"/></radialGradient><radialGradient cx="239.98762" cy="179.91364" r="12.49729" gradientUnits="userSpaceOnUse" id="color-3"><stop offset="0" stop-color="#ffcbab"/><stop offset="1" stop-color="#544331"/></radialGradient><radialGradient cx="240.06429" cy="179.86985" r="12.63062" gradientUnits="userSpaceOnUse" id="color-4"><stop offset="0" stop-color="#bc957e"/><stop offset="1" stop-color="#33291e"/></radialGradient><radialGradient cx="239.99999" cy="180.00001" r="13.49146" gradientUnits="userSpaceOnUse" id="color-5"><stop offset="0" stop-color="#525887" stop-opacity="0.35417"/><stop offset="1" stop-color="#525887" stop-opacity="0"/></radialGradient><radialGradient cx="239.99999" cy="180.00001" r="10.95311" gradientUnits="userSpaceOnUse" id="color-6"><stop offset="0" stop-color="#7e90eb" stop-opacity="0.67834"/><stop offset="1" stop-color="#7e90eb" stop-opacity="0"/></radialGradient><radialGradient cx="239.99999" cy="180.00001" r="9.27271" gradientUnits="userSpaceOnUse" id="color-7"><stop offset="0" stop-color="#9bc8ff"/><stop offset="1" stop-color="#9bc8ff" stop-opacity="0"/></radialGradient><radialGradient cx="239.99999" cy="180.00001" r="7.62499" gradientUnits="userSpaceOnUse" id="color-8"><stop offset="0" stop-color="#1b76ff"/><stop offset="1" stop-color="#4a89ff"/></radialGradient><radialGradient cx="240.01094" cy="180.04812" r="12.74122" gradientUnits="userSpaceOnUse" id="color-9"><stop offset="0" stop-color="#080504"/><stop offset="1" stop-color="#21150d"/></radialGradient><radialGradient cx="240.02708" cy="180.01363" r="12.60671" gradientUnits="userSpaceOnUse" id="color-10"><stop offset="0" stop-color="#110b08"/><stop offset="1" stop-color="#26180e"/></radialGradient><radialGradient cx="239.88504" cy="180.00848" r="12.74122" gradientUnits="userSpaceOnUse" id="color-11"><stop offset="0" stop-color="#170e0b"/><stop offset="1" stop-color="#332014"/></radialGradient><radialGradient cx="239.91753" cy="179.99468" r="12.60671" gradientUnits="userSpaceOnUse" id="color-12"><stop offset="0" stop-color="#231511"/><stop offset="1" stop-color="#312014"/></radialGradient><radialGradient cx="240.00002" cy="180.00001" r="16.55529" gradientUnits="userSpaceOnUse" id="color-13"><stop offset="0" stop-color="#ffffff" stop-opacity="0.26479"/><stop offset="1" stop-color="#ffffff" stop-opacity="0"/></radialGradient><linearGradient x1="256.3498" y1="182.60043" x2="223.65024" y2="177.3996" gradientUnits="userSpaceOnUse" id="color-14"><stop offset="0" stop-color="#080808"/><stop offset="1" stop-color="#414141"/></linearGradient></defs><g transform="translate(-223.4385,-163.29481)"><g data-paper-data="{&quot;isPaintingLayer&quot;:true}" fill-rule="nonzero" stroke-linecap="butt" stroke-linejoin="miter" stroke-miterlimit="10" stroke-dasharray="" stroke-dashoffset="0" style="mix-blend-mode: normal"><path d="M245.54268,192.83931c0,0 -3.2869,-2.41301 -8.44952,-12.76267c-4.43943,-8.89987 -3.83565,-11.88593 -3.83565,-11.88593l0.95992,-0.97868c0,0 1.66633,7.61507 4.12483,12.23491c3.07326,5.77507 8.44296,12.51316 8.44296,12.51316z" data-paper-data="{&quot;index&quot;:null}" fill="url(#color-1)" stroke="#676767" stroke-width="0"/><path d="M253.45974,177.30654c0,0 -8.60796,0.37212 -14.98201,1.84451c-5.099,1.17786 -11.9376,4.91944 -11.9376,4.91944l0.1082,-1.36659c0,0 1.85635,-2.4156 11.48451,-4.90853c11.19659,-2.89903 15.17454,-2.00334 15.17454,-2.00334z" data-paper-data="{&quot;index&quot;:null}" fill="url(#color-2)" stroke="#676767" stroke-width="0"/><path d="M227.03011,175.42475c0,0 7.60104,4.05705 13.83812,6.0307c4.98942,1.57884 12.78047,1.83486 12.78047,1.83486l-0.78813,1.12166c0,0 -2.82681,1.13591 -12.38479,-1.61385c-11.11498,-3.19769 -14.08467,-5.99185 -14.08467,-5.99185z" data-paper-data="{&quot;index&quot;:null}" fill="url(#color-3)" stroke="#676767" stroke-width="0"/><path d="M246.71379,167.68162c0,0 0.1094,4.07607 -4.90042,14.50055c-4.30804,8.96421 -7.03706,10.3183 -7.03706,10.3183l-1.36171,-0.15815c0,0 4.99359,-5.98582 7.1354,-10.76072c2.67739,-5.96891 4.70734,-14.34237 4.70734,-14.34237z" data-paper-data="{&quot;index&quot;:null}" fill="url(#color-4)" stroke="#676767" stroke-width="0"/><path d="M226.50854,180.00001c0,-7.45111 6.04033,-13.49146 13.49146,-13.49146c7.45111,0 13.49146,6.04033 13.49146,13.49146c0,7.45111 -6.04033,13.49146 -13.49146,13.49146c-7.45111,0 -13.49146,-6.04033 -13.49146,-13.49146z" fill="url(#color-5)" stroke="none" stroke-width="0.5"/><path d="M229.04688,180.00001c0,-6.04921 4.90387,-10.95311 10.95311,-10.95311c6.04921,0 10.95311,4.90387 10.95311,10.95311c0,6.04921 -4.90387,10.95311 -10.95311,10.95311c-6.04921,0 -10.95311,-4.90387 -10.95311,-10.95311z" fill="url(#color-6)" stroke="none" stroke-width="0.5"/><path d="M230.72728,180.00001c0,-5.12116 4.15153,-9.27271 9.27271,-9.27271c5.12116,0 9.27271,4.15153 9.27271,9.27271c0,5.12116 -4.15153,9.27271 -9.27271,9.27271c-5.12116,0 -9.27271,-4.15153 -9.27271,-9.27271z" fill="url(#color-7)" stroke="none" stroke-width="0.5"/><path d="M232.37501,180.00001c0,-4.21115 3.41382,-7.62499 7.62499,-7.62499c4.21115,0 7.62499,3.41382 7.62499,7.62499c0,4.21115 -3.41382,7.62499 -7.62499,7.62499c-4.21115,0 -7.62499,-3.41382 -7.62499,-7.62499z" data-paper-data="{&quot;index&quot;:null}" fill="url(#color-8)" stroke="none" stroke-width="0.5"/><path d="M233.31235,192.34307c0,0 -0.56012,-4.22423 4.49356,-14.73998c4.34576,-9.0427 7.54844,-10.29619 7.54844,-10.29619l1.37363,0.15954c0,0 -4.4189,6.43181 -6.57947,11.24852c-2.70083,6.02118 -5.36697,14.07438 -5.36697,14.07438z" fill="url(#color-9)" stroke="#676767" stroke-width="0"/><path d="M253.05614,184.69056c0,0 -7.75121,-3.4469 -14.02263,-5.50077c-5.0169,-1.64301 -12.74818,-2.7023 -12.74818,-2.7023l0.80632,-1.12346c0,0 3.08236,-1.5256 12.69575,1.34469c11.17942,3.33787 13.92726,6.59474 13.92726,6.59474z" data-paper-data="{&quot;index&quot;:null}" fill="url(#color-10)" stroke="#676767" stroke-width="0"/><path d="M226.3802,182.71119c0,0 8.41392,-1.08085 14.83976,-2.58342c5.14043,-1.202 12.29711,-4.31274 12.29711,-4.31274l-0.10544,1.37884c0,0 -1.84145,2.90473 -11.54712,5.44559c-11.28672,2.95477 -15.32652,1.59907 -15.32652,1.59907z" data-paper-data="{&quot;index&quot;:null}" fill="url(#color-11)" stroke="#676767" stroke-width="0"/><path d="M234.21338,167.12471c0,0 3.69899,2.11549 8.99808,12.50974c4.55679,8.93821 3.61203,12.24515 3.61203,12.24515l-0.95964,0.9957c0,0 -2.43608,-7.41352 -4.95684,-12.0519c-3.1511,-5.79825 -7.93924,-12.80082 -7.93924,-12.80082z" data-paper-data="{&quot;index&quot;:null}" fill="url(#color-12)" stroke="#676767" stroke-width="0"/><path d="M242.62418,163.50091c9.02975,1.43618 15.17491,9.98732 13.7256,19.0995c-1.44929,9.1122 -9.94421,15.33484 -18.97396,13.89868c-9.02975,-1.43618 -15.17491,-9.98733 -13.7256,-19.09951c1.44929,-9.1122 9.94421,-15.33485 18.97396,-13.89867z" fill="url(#color-13)" stroke="url(#color-14)" stroke-width="0"/></g></g></svg>