<svg version="1.1" xmlns="http://www.w3.org/2000/svg" xmlns:xlink="http://www.w3.org/1999/xlink" width="65.42289" height="64.90928" viewBox="0,0,65.42289,64.90928"><defs><linearGradient x1="240.00006" y1="149.04536" x2="240.00006" y2="210.95464" gradientUnits="userSpaceOnUse" id="color-1"><stop offset="0" stop-color="#06261d"/><stop offset="1" stop-color="#00110e"/></linearGradient><linearGradient x1="240.00006" y1="149.04536" x2="240.00006" y2="210.95464" gradientUnits="userSpaceOnUse" id="color-2"><stop offset="0" stop-color="#c5ffd7"/><stop offset="1" stop-color="#6fb696"/></linearGradient><radialGradient cx="240" cy="180" r="29.8557" gradientUnits="userSpaceOnUse" id="color-3"><stop offset="0" stop-color="#ffffff" stop-opacity="0.35484"/><stop offset="1" stop-color="#ffffff" stop-opacity="0"/></radialGradient><linearGradient x1="240" y1="150.31016" x2="240" y2="209.68984" gradientUnits="userSpaceOnUse" id="color-4"><stop offset="0" stop-color="#cccccc"/><stop offset="1" stop-color="#898989"/></linearGradient><radialGradient cx="240" cy="179.99999" r="24.80864" gradientUnits="userSpaceOnUse" id="color-5"><stop offset="0" stop-color="#000000"/><stop offset="1" stop-color="#474747"/></radialGradient><linearGradient x1="240" y1="154.73554" x2="240" y2="205.26446" gradientUnits="userSpaceOnUse" id="color-6"><stop offset="0" stop-color="#1c1c1c"/><stop offset="1" stop-color="#050505"/></linearGradient><radialGradient cx="259.43625" cy="193.0578" r="3.2494" gradientUnits="userSpaceOnUse" id="color-7"><stop offset="0" stop-color="#c5b5ff"/><stop offset="1" stop-color="#7066ff"/></radialGradient><radialGradient cx="259.43625" cy="163.57247" r="3.2494" gradientUnits="userSpaceOnUse" id="color-8"><stop offset="0" stop-color="#c5b5ff"/><stop offset="1" stop-color="#7066ff"/></radialGradient><radialGradient cx="247.40347" cy="175.72764" r="13.84005" gradientUnits="userSpaceOnUse" id="color-9"><stop offset="0" stop-color="#b87da3"/><stop offset="1" stop-color="#96668f"/></radialGradient><radialGradient cx="222.13032" cy="170.9137" r="14.50202" gradientUnits="userSpaceOnUse" id="color-10"><stop offset="0" stop-color="#4f3b4a"/><stop offset="1" stop-color="#332630"/></radialGradient><radialGradient cx="231.87853" cy="192.93745" r="11.61362" gradientUnits="userSpaceOnUse" id="color-11"><stop offset="0" stop-color="#292127"/><stop offset="1" stop-color="#171215"/></radialGradient><radialGradient cx="250.41217" cy="193.0578" r="6.49881" gradientUnits="userSpaceOnUse" id="color-12"><stop offset="0" stop-color="#786874"/><stop offset="1" stop-color="#473643"/></radialGradient><radialGradient cx="232.96167" cy="163.57247" r="11.61362" gradientUnits="userSpaceOnUse" id="color-13"><stop offset="0" stop-color="#292127"/><stop offset="1" stop-color="#171215"/></radialGradient><radialGradient cx="250.89358" cy="160.80446" r="6.49881" gradientUnits="userSpaceOnUse" id="color-14"><stop offset="0" stop-color="#786874"/><stop offset="1" stop-color="#473643"/></radialGradient><radialGradient cx="224.46675" cy="171.66623" r="7.33085" gradientUnits="userSpaceOnUse" id="color-15"><stop offset="0" stop-color="#ff73e5"/><stop offset="1" stop-color="#ff00b1"/></radialGradient><radialGradient cx="241.4046" cy="172.09323" r="7.33085" gradientUnits="userSpaceOnUse" id="color-16"><stop offset="0" stop-color="#ff73e5"/><stop offset="1" stop-color="#ff00b1"/></radialGradient><radialGradient cx="224.3244" cy="187.89242" r="7.33085" gradientUnits="userSpaceOnUse" id="color-17"><stop offset="0" stop-color="#ff73e5"/><stop offset="1" stop-color="#ff00b1"/></radialGradient><radialGradient cx="256.76327" cy="186.73546" r="3.66945" gradientUnits="userSpaceOnUse" id="color-18"><stop offset="0" stop-color="#ffcec9"/><stop offset="1" stop-color="#ff1700"/></radialGradient><radialGradient cx="255.80049" cy="185.89302" r="3.66945" gradientUnits="userSpaceOnUse" id="color-19"><stop offset="0" stop-color="#ff534a"/><stop offset="1" stop-color="#750c00"/></radialGradient><radialGradient cx="256.64292" cy="172.6547" r="3.66947" gradientUnits="userSpaceOnUse" id="color-20"><stop offset="0" stop-color="#ffcec9"/><stop offset="1" stop-color="#ff1700"/></radialGradient><radialGradient cx="255.80049" cy="171.09018" r="3.66947" gradientUnits="userSpaceOnUse" id="color-21"><stop offset="0" stop-color="#ff534a"/><stop offset="1" stop-color="#750c00"/></radialGradient><radialGradient cx="254.90589" cy="179.39204" r="3.80999" gradientUnits="userSpaceOnUse" id="color-22"><stop offset="0" stop-color="#ffcec9"/><stop offset="1" stop-color="#ff1700"/></radialGradient><radialGradient cx="254.18381" cy="178.66995" r="3.80999" gradientUnits="userSpaceOnUse" id="color-23"><stop offset="0" stop-color="#ff534a"/><stop offset="1" stop-color="#750c00"/></radialGradient><radialGradient cx="255.78843" cy="183.45153" r="1.96143" gradientUnits="userSpaceOnUse" id="color-24"><stop offset="0" stop-color="#ffcec9"/><stop offset="1" stop-color="#ff1700"/></radialGradient><radialGradient cx="255.27379" cy="183.00123" r="1.96143" gradientUnits="userSpaceOnUse" id="color-25"><stop offset="0" stop-color="#ff534a"/><stop offset="1" stop-color="#750c00"/></radialGradient><radialGradient cx="255.83644" cy="176.02186" r="1.96144" gradientUnits="userSpaceOnUse" id="color-26"><stop offset="0" stop-color="#ffcec9"/><stop offset="1" stop-color="#ff1700"/></radialGradient><radialGradient cx="255.83644" cy="175.31018" r="1.96144" gradientUnits="userSpaceOnUse" id="color-27"><stop offset="0" stop-color="#ff534a"/><stop offset="1" stop-color="#750c00"/></radialGradient><radialGradient cx="241.83161" cy="187.89242" r="7.33085" gradientUnits="userSpaceOnUse" id="color-28"><stop offset="0" stop-color="#ff73e5"/><stop offset="1" stop-color="#ff00b1"/></radialGradient></defs><g transform="translate(-207.28862,-147.54536)"><g data-paper-data="{&quot;isPaintingLayer&quot;:true}" fill-rule="nonzero" stroke-linecap="butt" stroke-linejoin="miter" stroke-miterlimit="10" stroke-dasharray="" stroke-dashoffset="0" style="mix-blend-mode: normal"><path d="M208.78862,210.95464v-61.90928h62.42289v61.90928z" fill="url(#color-1)" stroke="url(#color-2)" stroke-width="3"/><path d="M269.8557,180c0,16.39724 -13.36685,29.68983 -29.8557,29.68983c-16.48885,0 -29.8557,-13.29259 -29.8557,-29.68983c0,-16.39724 13.36685,-29.68983 29.8557,-29.68983c16.48885,0 29.8557,13.29259 29.8557,29.68983z" fill="url(#color-3)" stroke="url(#color-4)" stroke-width="0"/><path d="M215.66071,205.26446v-50.52892h48.67857v50.52892z" fill="url(#color-5)" stroke="url(#color-6)" stroke-width="2.5"/><path d="M258.71415,197.99207v-6.49881h2.28661v6.49881z" fill="url(#color-7)" stroke="none" stroke-width="NaN"/><path d="M258.71415,168.50673v-6.49881h2.28661v6.49881z" fill="url(#color-8)" stroke="none" stroke-width="NaN"/><path d="M250.13998,180.29477c0,7.64364 6.15427,13.59936 2.16627,13.59936c-3.98801,0 -7.22089,-6.19641 -7.22089,-13.84005c0,-7.64364 3.23291,-13.84005 7.22089,-13.84005c3.98801,0 -2.16627,6.43711 -2.16627,14.08075z" fill="url(#color-9)" stroke="none" stroke-width="0"/><path d="M223.72354,192.81098c0,0 -5.20362,-0.14547 -5.17498,-12.87115c0.02613,-11.60818 5.65637,-12.76303 5.65637,-12.76303h23.34759c0,0 -1.32383,8.29068 -1.32383,12.52234c0,4.34994 1.32383,13.23221 1.32383,13.23221z" fill="url(#color-10)" stroke="none" stroke-width="0"/><path d="M224.0559,195.5851v-2.76801h23.22721v5.53602z" fill="url(#color-11)" stroke="#000000" stroke-width="0"/><path d="M247.16275,198.23277c0,-2.24013 0,-8.18368 0,-8.18368c0,0 5.7039,0 8.06334,0c1.8457,0 4.93428,1.28854 4.93428,2.04592c0,0.77664 0,1.03198 0,1.80523c0,2.24273 -2.06351,8.30403 -4.33254,8.30403c-1.90764,0 -3.96052,0 -5.05463,0c-1.48562,0 -3.61044,-2.41095 -3.61044,-3.97149z" fill="url(#color-12)" stroke="none" stroke-width="0"/><path d="M247.40347,161.64688v5.53602h-23.22721v-2.76801z" data-paper-data="{&quot;index&quot;:null}" fill="url(#color-13)" stroke="#000000" stroke-width="0"/><path d="M250.89358,157.79574c1.09411,0 3.147,0 5.05463,0c2.26903,0 4.33254,6.06129 4.33254,8.30403c0,0.77325 0,1.02857 0,1.80523c0,0.75738 -3.08858,2.04592 -4.93428,2.04592c-2.35942,0 -8.06334,0 -8.06334,0c0,0 0,-5.94356 0,-8.18368c0,-1.56054 2.12484,-3.97149 3.61044,-3.97149z" data-paper-data="{&quot;index&quot;:null}" fill="url(#color-14)" stroke="none" stroke-width="0"/><path d="M229.74914,184.13204c-4.04841,-0.04983 -7.28988,-3.37214 -7.24002,-7.42054c0.04983,-4.04841 3.37214,-7.28988 7.42054,-7.24002c4.04841,0.04983 7.28988,3.37214 7.24002,7.42054c-0.04983,4.04841 -3.37214,7.28988 -7.42054,7.24002z" fill="none" stroke="url(#color-15)" stroke-width="1"/><path d="M235.85975,184.14452c-4.04841,-0.04983 -7.28988,-3.37214 -7.24002,-7.42054c0.04983,-4.04841 3.37214,-7.28988 7.42054,-7.24002c4.04841,0.04983 7.28988,3.37214 7.24002,7.42054c-0.04983,4.04841 -3.37214,7.28988 -7.42054,7.24002z" fill="none" stroke="url(#color-16)" stroke-width="1"/><path d="M229.66163,190.52852c-4.04841,-0.04983 -7.28988,-3.37214 -7.24002,-7.42054c0.04983,-4.04841 3.37214,-7.28988 7.42054,-7.24002c4.04841,0.04983 7.28988,3.37214 7.24002,7.42054c-0.04983,4.04841 -3.37214,7.28988 -7.42054,7.24002z" fill="none" stroke="url(#color-17)" stroke-width="1"/><path d="M255.57277,186.00349l2.90755,-0.789l2.61018,0.82191l-1.83666,2.02863l-2.90755,0.789l-2.59472,-0.76491z" fill="url(#color-18)" stroke="url(#color-19)" stroke-width="0.5"/><path d="M254.11263,172.01899l2.59471,-0.76491l2.90755,0.789l1.83666,2.02863l-2.61019,0.82191l-2.90755,-0.789z" data-paper-data="{&quot;index&quot;:null}" fill="url(#color-20)" stroke="url(#color-21)" stroke-width="0.5"/><path d="M252.10671,180.07317l2.27425,-1.46472l3.01208,-0.06181l2.33366,1.42922l-2.27306,1.52377l-3.01208,0.06181z" data-paper-data="{&quot;index&quot;:null}" fill="url(#color-22)" stroke="url(#color-23)" stroke-width="0.5"/><path d="M255.15207,183.06028l1.55419,-0.42174l1.39523,0.43935l-0.98175,1.08437l-1.55419,0.42174l-1.38695,-0.40887z" fill="url(#color-24)" stroke="url(#color-25)" stroke-width="0.25"/><path d="M254.32092,175.78831l1.38695,-0.40887l1.55419,0.42174l0.98175,1.08437l-1.39523,0.43935l-1.55419,-0.42174z" data-paper-data="{&quot;index&quot;:null}" fill="url(#color-26)" stroke="url(#color-27)" stroke-width="0.25"/><path d="M235.92436,190.52852c-4.04841,-0.04983 -7.28988,-3.37214 -7.24002,-7.42054c0.04983,-4.04841 3.37214,-7.28988 7.42054,-7.24002c4.04841,0.04983 7.28988,3.37214 7.24002,7.42054c-0.04983,4.04841 -3.37214,7.28988 -7.42054,7.24002z" fill="none" stroke="url(#color-28)" stroke-width="1"/><path d="M211.15778,160.00635v-8.5h36.4v8.5z" fill-opacity="0.4902" fill="#08130e" stroke="none" stroke-width="0"/><text transform="translate(211.90778,158.35305) scale(0.17331,0.17331)" font-size="40" xml:space="preserve" fill="#c1ffe1" fill-rule="nonzero" stroke="none" stroke-width="1" stroke-linecap="butt" stroke-linejoin="miter" stroke-miterlimit="10" stroke-dasharray="" stroke-dashoffset="0" font-family="Pixel" font-weight="normal" text-anchor="start" style="mix-blend-mode: normal"><tspan x="0" dy="0">Advanced</tspan></text><path d="M211.15778,168.33968v-8.5h34.7v8.5z" fill-opacity="0.4902" fill="#08130e" stroke="none" stroke-width="0"/><text transform="translate(211.90778,166.68638) scale(0.17331,0.17331)" font-size="40" xml:space="preserve" fill="#c1ffe1" fill-rule="nonzero" stroke="none" stroke-width="1" stroke-linecap="butt" stroke-linejoin="miter" stroke-miterlimit="10" stroke-dasharray="" stroke-dashoffset="0" font-family="Pixel" font-weight="normal" text-anchor="start" style="mix-blend-mode: normal"><tspan x="0" dy="0">Wormhole</tspan></text><path d="M211.15778,176.70635v-8.5h40.4v8.5z" fill-opacity="0.4902" fill="#08130e" stroke="none" stroke-width="0"/><text transform="translate(211.90778,175.05305) scale(0.17331,0.17331)" font-size="40" xml:space="preserve" fill="#c1ffe1" fill-rule="nonzero" stroke="none" stroke-width="1" stroke-linecap="butt" stroke-linejoin="miter" stroke-miterlimit="10" stroke-dasharray="" stroke-dashoffset="0" font-family="Pixel" font-weight="normal" text-anchor="start" style="mix-blend-mode: normal"><tspan x="0" dy="0">Generator</tspan></text></g></g></svg>