<svg version="1.1" xmlns="http://www.w3.org/2000/svg" xmlns:xlink="http://www.w3.org/1999/xlink" width="865.33874" height="198.91456" viewBox="0,0,865.33874,198.91456"><defs><linearGradient x1="270.4586" y1="232.08547" x2="270.4586" y2="332.33359" gradientUnits="userSpaceOnUse" id="color-1"><stop offset="0" stop-color="#6d3d48"/><stop offset="1" stop-color="#985346"/></linearGradient><linearGradient x1="270.4586" y1="232.08547" x2="270.4586" y2="332.33359" gradientUnits="userSpaceOnUse" id="color-2"><stop offset="0" stop-color="#7058bd" stop-opacity="0.09804"/><stop offset="1" stop-color="#7058bd" stop-opacity="0"/></linearGradient><linearGradient x1="270.4586" y1="242.18277" x2="270.4586" y2="337.83359" gradientUnits="userSpaceOnUse" id="color-3"><stop offset="0" stop-color="#000000" stop-opacity="0"/><stop offset="1" stop-color="#000000" stop-opacity="0.20392"/></linearGradient><linearGradient x1="270.45868" y1="242.18276" x2="270.45868" y2="337.8336" gradientUnits="userSpaceOnUse" id="color-4"><stop offset="0" stop-color="#000000" stop-opacity="0"/><stop offset="1" stop-color="#000000" stop-opacity="0.02353"/></linearGradient><linearGradient x1="334.43714" y1="292.31409" x2="334.43714" y2="382.58361" gradientUnits="userSpaceOnUse" id="color-5"><stop offset="0" stop-color="#93515f"/><stop offset="1" stop-color="#86493b"/></linearGradient><linearGradient x1="333.59195" y1="291.05078" x2="333.59195" y2="360.05078" gradientUnits="userSpaceOnUse" id="color-6"><stop offset="0" stop-color="#5f5194" stop-opacity="0.33725"/><stop offset="1" stop-color="#5f5194" stop-opacity="0"/></linearGradient><linearGradient x1="334.51018" y1="319.80629" x2="334.51018" y2="383.58362" gradientUnits="userSpaceOnUse" id="color-7"><stop offset="0" stop-color="#2e2118" stop-opacity="0"/><stop offset="1" stop-color="#2e2118" stop-opacity="0.9451"/></linearGradient><linearGradient x1="493.87652" y1="239.06934" x2="564.80166" y2="239.06934" gradientUnits="userSpaceOnUse" id="color-8"><stop offset="0" stop-color="#d0d0d0"/><stop offset="1" stop-color="#727272"/></linearGradient><linearGradient x1="468.37004" y1="263.02791" x2="514.98394" y2="263.02791" gradientUnits="userSpaceOnUse" id="color-9"><stop offset="0" stop-color="#5d5d5d"/><stop offset="1" stop-color="#494949"/></linearGradient><linearGradient x1="491.67705" y1="232.89766" x2="491.67705" y2="293.1581" gradientUnits="userSpaceOnUse" id="color-10"><stop offset="0" stop-color="#348317"/><stop offset="1" stop-color="#3c5b0d"/></linearGradient><radialGradient cx="527.8475" cy="248.97475" r="27.13216" gradientUnits="userSpaceOnUse" id="color-11"><stop offset="0" stop-color="#e88c52"/><stop offset="1" stop-color="#ba623d"/></radialGradient><linearGradient x1="538.56526" y1="238.00856" x2="538.56526" y2="292.26805" gradientUnits="userSpaceOnUse" id="color-12"><stop offset="0" stop-color="#348317"/><stop offset="1" stop-color="#3c5b0d"/></linearGradient><radialGradient cx="564.64595" cy="250.13377" r="27.13216" gradientUnits="userSpaceOnUse" id="color-13"><stop offset="0" stop-color="#e88c52"/><stop offset="1" stop-color="#ba623d"/></radialGradient><linearGradient x1="575.38609" y1="238.11306" x2="575.38609" y2="292.37256" gradientUnits="userSpaceOnUse" id="color-14"><stop offset="0" stop-color="#348317"/><stop offset="1" stop-color="#3c5b0d"/></linearGradient><linearGradient x1="538.84831" y1="226.99725" x2="538.84831" y2="239.07593" gradientUnits="userSpaceOnUse" id="color-15"><stop offset="0" stop-color="#348317"/><stop offset="1" stop-color="#3c5b0d"/></linearGradient><linearGradient x1="576.29914" y1="227.27681" x2="576.29914" y2="239.35547" gradientUnits="userSpaceOnUse" id="color-16"><stop offset="0" stop-color="#348317"/><stop offset="1" stop-color="#3c5b0d"/></linearGradient><linearGradient x1="507.85485" y1="192.32834" x2="549.86871" y2="192.32834" gradientUnits="userSpaceOnUse" id="color-17"><stop offset="0" stop-color="#d10000"/><stop offset="1" stop-color="#730000"/></linearGradient><linearGradient x1="528.86164" y1="188.70645" x2="528.86164" y2="195.95024" gradientUnits="userSpaceOnUse" id="color-18"><stop offset="0" stop-color="#348317"/><stop offset="1" stop-color="#3c5b0d"/></linearGradient><linearGradient x1="507.63926" y1="204.86188" x2="549.65311" y2="204.86188" gradientUnits="userSpaceOnUse" id="color-19"><stop offset="0" stop-color="#d10000"/><stop offset="1" stop-color="#730000"/></linearGradient><linearGradient x1="528.64613" y1="201.23998" x2="528.64613" y2="208.48376" gradientUnits="userSpaceOnUse" id="color-20"><stop offset="0" stop-color="#348317"/><stop offset="1" stop-color="#3c5b0d"/></linearGradient><linearGradient x1="462.62004" y1="277.40291" x2="519.73394" y2="277.40291" gradientUnits="userSpaceOnUse" id="color-21"><stop offset="0" stop-color="#6c6c6c"/><stop offset="1" stop-color="#5c5c5c"/></linearGradient><linearGradient x1="491.17708" y1="261.64761" x2="491.17708" y2="293.1581" gradientUnits="userSpaceOnUse" id="color-22"><stop offset="0" stop-color="#348317"/><stop offset="1" stop-color="#3c5b0d"/></linearGradient><linearGradient x1="471.37004" y1="246.33021" x2="511.98409" y2="246.33021" gradientUnits="userSpaceOnUse" id="color-23"><stop offset="0" stop-color="#4687ff"/><stop offset="1" stop-color="#0067ff"/></linearGradient><linearGradient x1="491.67705" y1="238.89766" x2="491.67705" y2="253.76276" gradientUnits="userSpaceOnUse" id="color-24"><stop offset="0" stop-color="#348317"/><stop offset="1" stop-color="#3c5b0d"/></linearGradient><linearGradient x1="465.37004" y1="277.49684" x2="515.73394" y2="277.49684" gradientUnits="userSpaceOnUse" id="color-25"><stop offset="0" stop-color="#4687ff"/><stop offset="1" stop-color="#0067ff"/></linearGradient><linearGradient x1="490.55208" y1="270.06426" x2="490.55208" y2="284.9294" gradientUnits="userSpaceOnUse" id="color-26"><stop offset="0" stop-color="#348317"/><stop offset="1" stop-color="#3c5b0d"/></linearGradient><linearGradient x1="528.50006" y1="292.52048" x2="528.50006" y2="293.831" gradientUnits="userSpaceOnUse" id="color-27"><stop offset="0" stop-color="#348317"/><stop offset="1" stop-color="#3c5b0d"/></linearGradient><linearGradient x1="373.55496" y1="267.16306" x2="451.16678" y2="267.16306" gradientUnits="userSpaceOnUse" id="color-28"><stop offset="0" stop-color="#5d6e43"/><stop offset="1" stop-color="#3c472a"/></linearGradient><linearGradient x1="373.55496" y1="267.16306" x2="451.16678" y2="267.16306" gradientUnits="userSpaceOnUse" id="color-29"><stop offset="0" stop-color="#160000"/><stop offset="1" stop-color="#000000"/></linearGradient><linearGradient x1="369.04769" y1="291.52488" x2="454.91276" y2="291.52488" gradientUnits="userSpaceOnUse" id="color-30"><stop offset="0" stop-color="#869470"/><stop offset="1" stop-color="#5e6b4a"/></linearGradient><linearGradient x1="369.04769" y1="291.52487" x2="454.91276" y2="291.52487" gradientUnits="userSpaceOnUse" id="color-31"><stop offset="0" stop-color="#160000"/><stop offset="1" stop-color="#000000"/></linearGradient><linearGradient x1="379.60487" y1="266.18764" x2="382.36023" y2="266.18764" gradientUnits="userSpaceOnUse" id="color-32"><stop offset="0" stop-color="#7b8a63"/><stop offset="1" stop-color="#5c6b45"/></linearGradient><linearGradient x1="387.35429" y1="266.18763" x2="390.10964" y2="266.18763" gradientUnits="userSpaceOnUse" id="color-33"><stop offset="0" stop-color="#7b8a63"/><stop offset="1" stop-color="#5c6b45"/></linearGradient><linearGradient x1="395.10372" y1="266.18762" x2="397.85908" y2="266.18762" gradientUnits="userSpaceOnUse" id="color-34"><stop offset="0" stop-color="#7b8a63"/><stop offset="1" stop-color="#5c6b45"/></linearGradient><linearGradient x1="402.85315" y1="266.18764" x2="405.60847" y2="266.18764" gradientUnits="userSpaceOnUse" id="color-35"><stop offset="0" stop-color="#7b8a63"/><stop offset="1" stop-color="#5c6b45"/></linearGradient><linearGradient x1="410.60257" y1="266.18763" x2="413.35791" y2="266.18763" gradientUnits="userSpaceOnUse" id="color-36"><stop offset="0" stop-color="#7b8a63"/><stop offset="1" stop-color="#5c6b45"/></linearGradient><linearGradient x1="418.35199" y1="266.18762" x2="421.10735" y2="266.18762" gradientUnits="userSpaceOnUse" id="color-37"><stop offset="0" stop-color="#7b8a63"/><stop offset="1" stop-color="#5c6b45"/></linearGradient><linearGradient x1="426.1014" y1="266.18764" x2="428.85674" y2="266.18764" gradientUnits="userSpaceOnUse" id="color-38"><stop offset="0" stop-color="#7b8a63"/><stop offset="1" stop-color="#5c6b45"/></linearGradient><linearGradient x1="433.85084" y1="266.18763" x2="436.60619" y2="266.18763" gradientUnits="userSpaceOnUse" id="color-39"><stop offset="0" stop-color="#7b8a63"/><stop offset="1" stop-color="#5c6b45"/></linearGradient><linearGradient x1="441.60023" y1="266.18762" x2="444.35561" y2="266.18762" gradientUnits="userSpaceOnUse" id="color-40"><stop offset="0" stop-color="#7b8a63"/><stop offset="1" stop-color="#5c6b45"/></linearGradient><linearGradient x1="369.04769" y1="243.19643" x2="454.91276" y2="243.19643" gradientUnits="userSpaceOnUse" id="color-41"><stop offset="0" stop-color="#869470"/><stop offset="1" stop-color="#5e6b4a"/></linearGradient><linearGradient x1="369.04769" y1="243.19643" x2="454.91276" y2="243.19643" gradientUnits="userSpaceOnUse" id="color-42"><stop offset="0" stop-color="#160000"/><stop offset="1" stop-color="#000000"/></linearGradient><linearGradient x1="449.31358" y1="267.68909" x2="455.25687" y2="267.68909" gradientUnits="userSpaceOnUse" id="color-43"><stop offset="0" stop-color="#6e824e"/><stop offset="1" stop-color="#5e6b4a"/></linearGradient><linearGradient x1="449.31358" y1="267.6891" x2="455.25687" y2="267.6891" gradientUnits="userSpaceOnUse" id="color-44"><stop offset="0" stop-color="#160000"/><stop offset="1" stop-color="#000000"/></linearGradient><linearGradient x1="368.70361" y1="267.68909" x2="374.64688" y2="267.68909" gradientUnits="userSpaceOnUse" id="color-45"><stop offset="0" stop-color="#6e824e"/><stop offset="1" stop-color="#54633c"/></linearGradient><linearGradient x1="368.70361" y1="267.6891" x2="374.64688" y2="267.6891" gradientUnits="userSpaceOnUse" id="color-46"><stop offset="0" stop-color="#160000"/><stop offset="1" stop-color="#000000"/></linearGradient><linearGradient x1="458.96046" y1="297.60605" x2="494.47659" y2="338.32922" gradientUnits="userSpaceOnUse" id="color-47"><stop offset="0" stop-color="#000000" stop-opacity="0.18431"/><stop offset="1" stop-color="#000000" stop-opacity="0.06275"/></linearGradient><linearGradient x1="496.37005" y1="294.81715" x2="535.96961" y2="340.22241" gradientUnits="userSpaceOnUse" id="color-48"><stop offset="0" stop-color="#000000" stop-opacity="0.18431"/><stop offset="1" stop-color="#000000" stop-opacity="0.06275"/></linearGradient><linearGradient x1="415.00951" y1="294.81715" x2="454.60908" y2="340.22243" gradientUnits="userSpaceOnUse" id="color-49"><stop offset="0" stop-color="#000000" stop-opacity="0.18431"/><stop offset="1" stop-color="#000000" stop-opacity="0.06275"/></linearGradient><linearGradient x1="589.70021" y1="294.35284" x2="763.57544" y2="359.65213" gradientUnits="userSpaceOnUse" id="color-50"><stop offset="0" stop-color="#000000" stop-opacity="0.0902"/><stop offset="1" stop-color="#000000" stop-opacity="0.04314"/></linearGradient><linearGradient x1="530.17108" y1="294.23861" x2="627.36727" y2="330.74089" gradientUnits="userSpaceOnUse" id="color-51"><stop offset="0" stop-color="#000000" stop-opacity="0.0902"/><stop offset="1" stop-color="#000000" stop-opacity="0.04314"/></linearGradient><linearGradient x1="663.95868" y1="330.74089" x2="493.57959" y2="294.23861" gradientUnits="userSpaceOnUse" id="color-52"><stop offset="0" stop-color="#348317"/><stop offset="1" stop-color="#3c5b0d"/></linearGradient><linearGradient x1="575.78847" y1="294.77651" x2="663.31334" y2="327.64669" gradientUnits="userSpaceOnUse" id="color-53"><stop offset="0" stop-color="#000000" stop-opacity="0.0902"/><stop offset="1" stop-color="#000000" stop-opacity="0.04314"/></linearGradient><linearGradient x1="696.39653" y1="327.64501" x2="542.98434" y2="294.77775" gradientUnits="userSpaceOnUse" id="color-54"><stop offset="0" stop-color="#348317"/><stop offset="1" stop-color="#3c5b0d"/></linearGradient><linearGradient x1="612.31387" y1="294.71322" x2="699.83871" y2="327.5834" gradientUnits="userSpaceOnUse" id="color-55"><stop offset="0" stop-color="#000000" stop-opacity="0.0902"/><stop offset="1" stop-color="#000000" stop-opacity="0.04314"/></linearGradient><linearGradient x1="732.92185" y1="327.58171" x2="579.50965" y2="294.71444" gradientUnits="userSpaceOnUse" id="color-56"><stop offset="0" stop-color="#348317"/><stop offset="1" stop-color="#3c5b0d"/></linearGradient><linearGradient x1="700.99622" y1="326.99845" x2="720.47835" y2="334.31502" gradientUnits="userSpaceOnUse" id="color-57"><stop offset="0" stop-color="#000000" stop-opacity="0.0902"/><stop offset="1" stop-color="#000000" stop-opacity="0.04314"/></linearGradient><linearGradient x1="727.81272" y1="334.31502" x2="693.6617" y2="326.99845" gradientUnits="userSpaceOnUse" id="color-58"><stop offset="0" stop-color="#348317"/><stop offset="1" stop-color="#3c5b0d"/></linearGradient><linearGradient x1="737.65659" y1="326.82912" x2="757.13872" y2="334.14569" gradientUnits="userSpaceOnUse" id="color-59"><stop offset="0" stop-color="#000000" stop-opacity="0.0902"/><stop offset="1" stop-color="#000000" stop-opacity="0.04314"/></linearGradient><linearGradient x1="764.47314" y1="334.14568" x2="730.32218" y2="326.82912" gradientUnits="userSpaceOnUse" id="color-60"><stop offset="0" stop-color="#348317"/><stop offset="1" stop-color="#3c5b0d"/></linearGradient><linearGradient x1="734.87247" y1="331.41619" x2="740.62293" y2="333.57579" gradientUnits="userSpaceOnUse" id="color-61"><stop offset="0" stop-color="#000000" stop-opacity="0.0902"/><stop offset="1" stop-color="#000000" stop-opacity="0.04314"/></linearGradient><linearGradient x1="810.00646" y1="353.1215" x2="821.69023" y2="357.50937" gradientUnits="userSpaceOnUse" id="color-62"><stop offset="0" stop-color="#000000" stop-opacity="0.0902"/><stop offset="1" stop-color="#000000" stop-opacity="0.04314"/></linearGradient><linearGradient x1="826.08868" y1="357.50937" x2="805.60774" y2="353.1215" gradientUnits="userSpaceOnUse" id="color-63"><stop offset="0" stop-color="#348317"/><stop offset="1" stop-color="#3c5b0d"/></linearGradient><linearGradient x1="774.35386" y1="345.52942" x2="786.03762" y2="349.91729" gradientUnits="userSpaceOnUse" id="color-64"><stop offset="0" stop-color="#000000" stop-opacity="0.0902"/><stop offset="1" stop-color="#000000" stop-opacity="0.04314"/></linearGradient><linearGradient x1="790.43614" y1="349.91729" x2="769.95522" y2="345.52942" gradientUnits="userSpaceOnUse" id="color-65"><stop offset="0" stop-color="#348317"/><stop offset="1" stop-color="#3c5b0d"/></linearGradient><linearGradient x1="512.21345" y1="294.23861" x2="563.0377" y2="313.3258" gradientUnits="userSpaceOnUse" id="color-66"><stop offset="0" stop-color="#000000" stop-opacity="0.0902"/><stop offset="1" stop-color="#000000" stop-opacity="0.04314"/></linearGradient><linearGradient x1="582.17171" y1="313.32584" x2="493.07962" y2="294.23861" gradientUnits="userSpaceOnUse" id="color-67"><stop offset="0" stop-color="#348317"/><stop offset="1" stop-color="#3c5b0d"/></linearGradient><linearGradient x1="613.99159" y1="318.10202" x2="637.96809" y2="327.10645" gradientUnits="userSpaceOnUse" id="color-68"><stop offset="0" stop-color="#000000" stop-opacity="0.0902"/><stop offset="1" stop-color="#000000" stop-opacity="0.04314"/></linearGradient><linearGradient x1="646.99443" y1="327.10644" x2="604.96512" y2="318.10202" gradientUnits="userSpaceOnUse" id="color-69"><stop offset="0" stop-color="#348317"/><stop offset="1" stop-color="#3c5b0d"/></linearGradient><linearGradient x1="524.74668" y1="299.22308" x2="548.72313" y2="308.2275" gradientUnits="userSpaceOnUse" id="color-70"><stop offset="0" stop-color="#000000" stop-opacity="0.0902"/><stop offset="1" stop-color="#000000" stop-opacity="0.04314"/></linearGradient><linearGradient x1="557.74965" y1="308.22752" x2="515.72025" y2="299.22308" gradientUnits="userSpaceOnUse" id="color-71"><stop offset="0" stop-color="#348317"/><stop offset="1" stop-color="#3c5b0d"/></linearGradient><linearGradient x1="529.2959" y1="293.831" x2="531.40964" y2="294.62482" gradientUnits="userSpaceOnUse" id="color-72"><stop offset="0" stop-color="#000000" stop-opacity="0.0902"/><stop offset="1" stop-color="#000000" stop-opacity="0.04314"/></linearGradient><linearGradient x1="532.20545" y1="294.62484" x2="528.50006" y2="293.831" gradientUnits="userSpaceOnUse" id="color-73"><stop offset="0" stop-color="#348317"/><stop offset="1" stop-color="#3c5b0d"/></linearGradient></defs><g transform="translate(8.37535,-185.16905)"><g stroke-miterlimit="10"><path d="M253.06237,277.75628c2.83561,1.22734 4.28312,-12.95281 7.58331,-12.12717c3.1342,0.78411 3.42948,1.4786 6.76544,1.9556c2.01121,0.28758 4.08925,-0.30994 6.09499,0.01355c1.04064,0.16784 1.9613,0.82049 3,1c2.26805,0.39197 4.62045,-0.29377 6.90501,-0.01355c3.93504,0.48266 6.6557,0.98127 10.69454,0.98127c5.00187,0 10.66268,0.73766 15.59955,0.03228c2.35275,-0.33616 4.53231,-1.45413 6.85199,-1.97138c4.53355,-1.01091 9.99209,-1.19874 14.33423,-2.82604c1.19337,-0.44724 2.05935,-1.54677 3.23628,-2.03565c5.99595,-2.49063 13.021,-3.03236 19.2088,-5.07796c2.58923,-0.85596 5.22101,-1.65095 7.66364,-2.86354c1.10719,-0.54964 1.95629,-1.56104 3.09415,-2.04401c0.28219,-0.11978 7.87555,-2.0067 8.40504,-2.13908c5.92937,-1.45573 11.37559,-0.47401 17.36,-1.06247c4.09609,-0.40278 7.86062,-2.41074 11.84589,-2.97988c2.63988,-0.377 5.36155,0.38689 8,0c3.01928,-0.44273 5.98487,-1.51371 9,-2c3.25002,-0.52417 6.77364,0.55758 10,0c1.0387,-0.17951 1.95601,-0.85438 3,-1c5.86277,-0.81779 12.47048,-0.03228 18.40045,-0.03228c4.37381,0 9.29655,0.66325 13.59955,0.03228c1.04294,-0.15293 1.95936,-0.83216 3,-1c2.92503,-0.47176 6.09481,0.4934 9,0c2.42369,-0.41162 4.65601,-1.70522 7.095,-2.01355c2.2835,-0.28868 4.63582,0.39894 6.905,0.01355c4.35497,-0.73962 8.66019,-2.30006 13,-3c4.85221,-0.78258 10.47912,-0.03228 15.40046,-0.03228c0.48001,0 6.14144,-0.00949 6.40045,0.03228c1.04065,0.16784 1.96025,0.82671 3,1c3.30932,0.55156 9.85127,0.42133 12.91387,2.34109c3.97964,2.4946 0.12579,91.17017 0.12579,91.17017c0,0 -540.03047,15.16346 -541.61562,12.1882c-0.79879,-1.49929 250.55648,-68.0891 254.13219,-66.54143z" fill="url(#color-1)" stroke="none" stroke-width="0.5"/><path d="M253.06235,277.75627c2.83561,1.22734 4.28312,-12.95281 7.58331,-12.12717c3.1342,0.78411 3.42948,1.4786 6.76544,1.9556c2.01121,0.28758 4.08925,-0.30994 6.09499,0.01355c1.04064,0.16784 1.9613,0.82049 3,1c2.26805,0.39197 4.62045,-0.29377 6.90501,-0.01355c3.93504,0.48266 6.6557,0.98127 10.69454,0.98127c5.00187,0 10.66268,0.73766 15.59955,0.03228c2.35275,-0.33616 4.53231,-1.45413 6.85199,-1.97138c4.53355,-1.01091 9.99209,-1.19874 14.33423,-2.82604c1.19337,-0.44724 2.05935,-1.54677 3.23628,-2.03565c5.99595,-2.49063 13.021,-3.03236 19.2088,-5.07796c2.58923,-0.85596 5.22101,-1.65095 7.66364,-2.86354c1.10719,-0.54964 1.95629,-1.56104 3.09415,-2.04401c0.28219,-0.11978 7.87555,-2.0067 8.40504,-2.13908c5.92937,-1.45573 11.37559,-0.47401 17.36,-1.06247c4.09609,-0.40278 7.86062,-2.41074 11.84589,-2.97988c2.63988,-0.377 5.36155,0.38689 8,0c3.01928,-0.44273 5.98487,-1.51371 9,-2c3.25002,-0.52417 6.77364,0.55758 10,0c1.0387,-0.17951 1.95601,-0.85438 3,-1c5.86277,-0.81779 12.47048,-0.03228 18.40045,-0.03228c4.37381,0 9.29655,0.66325 13.59955,0.03228c1.04294,-0.15293 1.95936,-0.83216 3,-1c2.92503,-0.47176 6.09481,0.4934 9,0c2.42369,-0.41162 4.65601,-1.70522 7.095,-2.01355c2.2835,-0.28868 4.63582,0.39894 6.905,0.01355c4.35497,-0.73962 8.66019,-2.30006 13,-3c4.85221,-0.78258 10.47912,-0.03228 15.40046,-0.03228c0.48001,0 6.14144,-0.00949 6.40045,0.03228c1.04065,0.16784 1.96025,0.82671 3,1c3.30932,0.55156 9.85127,0.42133 12.91387,2.34109c3.97964,2.4946 0.12579,91.17017 0.12579,91.17017c0,0 -540.03047,15.16346 -541.61562,12.1882c-0.79879,-1.49929 250.55648,-68.0891 254.13219,-66.54143z" fill="url(#color-2)" stroke="none" stroke-width="0.5"/><path d="M253.06238,286.40119c2.83561,1.17106 4.28312,-13.00083 7.58331,-12.21306c3.1342,0.74815 3.42948,1.41079 6.76544,1.86592c2.01121,0.27439 4.08925,-0.29573 6.09499,0.01293c1.04064,0.16014 1.9613,0.78286 3,0.95414c2.26805,0.37399 4.62045,-0.2803 6.90501,-0.01293c3.93504,0.46053 6.6557,0.93627 10.69454,0.93627c5.00187,0 10.66268,0.70383 15.59955,0.0308c2.35275,-0.32074 4.53231,-1.38744 6.85199,-1.88097c4.53355,-0.96455 9.99209,-1.14377 14.33423,-2.69644c1.19337,-0.42673 2.05935,-1.47584 3.23628,-1.9423c5.99595,-2.37641 13.021,-2.8933 19.2088,-4.84509c2.58923,-0.81671 5.22101,-1.57524 7.66364,-2.73222c1.10719,-0.52443 1.95629,-1.48945 3.09415,-1.95027c0.28219,-0.11429 7.87555,-1.91467 8.40504,-2.04098c5.92937,-1.38897 11.37559,-0.45227 17.36,-1.01375c4.09609,-0.38431 7.86062,-2.30019 11.84589,-2.84323c2.63988,-0.35971 5.36155,0.36915 8,0c3.01928,-0.42243 5.98487,-1.44429 9,-1.90828c3.25002,-0.50013 6.77364,0.53201 10,0c1.0387,-0.17128 1.95601,-0.8152 3,-0.95414c5.86277,-0.78029 12.47048,-0.0308 18.40045,-0.0308c4.37381,0 9.29655,0.63283 13.59955,0.0308c1.04294,-0.14592 1.95936,-0.794 3,-0.95414c2.92503,-0.45013 6.09481,0.47077 9,0c2.42369,-0.39274 4.65601,-1.62702 7.095,-1.92121c2.2835,-0.27544 4.63582,0.38064 6.905,0.01293c4.35497,-0.7057 8.66019,-2.19458 13,-2.86242c4.85221,-0.74669 10.47912,-0.0308 15.40046,-0.0308c0.48001,0 6.14144,-0.00905 6.40045,0.0308c1.04065,0.16014 1.96025,0.7888 3,0.95414c3.30932,0.52627 9.85127,0.40201 12.91387,2.23373c3.97964,2.3802 0.12579,86.98919 0.12579,86.98919c0,0 -540.03047,15.1101 -541.61562,12.27129c-0.79879,-1.43053 250.55648,-64.9666 254.13219,-63.48991z" fill="url(#color-3)" stroke="none" stroke-width="0.5"/><path d="M253.06237,286.40118c2.83561,1.17106 4.28312,-13.00083 7.58331,-12.21306c3.1342,0.74815 3.42948,1.41079 6.76544,1.86592c2.01121,0.27439 4.08925,-0.29573 6.09499,0.01293c1.04064,0.16014 1.9613,0.78286 3,0.95414c2.26805,0.37399 4.62045,-0.2803 6.90501,-0.01293c3.93504,0.46053 6.6557,0.93627 10.69454,0.93627c5.00187,0 10.66268,0.70383 15.59955,0.0308c2.35275,-0.32074 4.53231,-1.38744 6.85199,-1.88097c4.53355,-0.96455 9.99209,-1.14377 14.33423,-2.69644c1.19337,-0.42673 2.05935,-1.47584 3.23628,-1.9423c5.99595,-2.37641 13.021,-2.8933 19.2088,-4.84509c2.58923,-0.81671 5.22101,-1.57524 7.66364,-2.73222c1.10719,-0.52443 1.95629,-1.48945 3.09415,-1.95027c0.28219,-0.11429 7.87555,-1.91467 8.40504,-2.04098c5.92937,-1.38897 11.37559,-0.45227 17.36,-1.01375c4.09609,-0.38431 7.86062,-2.30019 11.84589,-2.84323c2.63988,-0.35971 5.36155,0.36915 8,0c3.01928,-0.42243 5.98487,-1.44429 9,-1.90828c3.25002,-0.50013 6.77364,0.53201 10,0c1.0387,-0.17128 1.95601,-0.8152 3,-0.95414c5.86277,-0.78029 12.47048,-0.0308 18.40045,-0.0308c4.37381,0 9.29655,0.63283 13.59955,0.0308c1.04294,-0.14592 1.95936,-0.794 3,-0.95414c2.92503,-0.45013 6.09481,0.47077 9,0c2.42369,-0.39274 4.65601,-1.62702 7.095,-1.92121c2.2835,-0.27544 4.63582,0.38064 6.905,0.01293c4.35497,-0.7057 8.66019,-2.19458 13,-2.86242c4.85221,-0.74669 10.47912,-0.0308 15.40046,-0.0308c0.48001,0 6.14144,-0.00905 6.40045,0.0308c1.04065,0.16014 1.96025,0.7888 3,0.95414c3.30932,0.52627 9.85127,0.40201 12.91387,2.23373c3.97964,2.3802 0.12579,86.98919 0.12579,86.98919c0,0 -540.03047,15.1101 -541.61562,12.27129c-0.79879,-1.43053 250.55648,-64.9666 254.13219,-63.48991z" fill="url(#color-4)" stroke="none" stroke-width="0.5"/><path d="M-1.06767,382.58361c0,0 61.35319,-41.1902 141.2652,-70.50847c59.81045,-21.94337 146.79285,-19.3823 146.79285,-19.3823l382.95152,-0.37875v90.26952z" fill="url(#color-5)" stroke="#793226" stroke-width="3"/><path d="M294.87787,291.05078h371.21878v69h-631.21878c0,0 90.31459,-44.54118 137.26509,-57.00112c37.64287,-9.98984 122.73491,-11.99888 122.73491,-11.99888z" fill="url(#color-6)" stroke="none" stroke-width="0"/><path d="M-8.37535,383.58362c0,0 46.54949,-25.4201 67.45273,-36.14397c16.76353,-8.6001 48.31078,-23.24554 48.31078,-23.24554l565.00771,-4.38137v63.77088z" fill="url(#color-7)" stroke="#793226" stroke-width="0"/><g stroke-width="0"><path d="M493.87652,292.96952c0,0 9.42687,-30.462 11.80468,-48.45901c2.35457,-17.82105 2.39314,-59.00037 2.39314,-59.00037l41.66052,-0.34109c0,0 -1.12795,40.94869 1.42617,59.22261c2.46509,17.63697 13.64091,48.57786 13.64091,48.57786z" fill="url(#color-8)" stroke="none"/><path d="M468.37004,293.1581v-60.26043h46.61412v60.26043z" fill="url(#color-9)" stroke="url(#color-10)"/><path d="M556.37434,265.13832c0,14.98335 0.01372,26.93128 -17.8091,27.12975c-16.49564,0.18369 -17.8091,-12.1464 -17.8091,-27.12975c0,-14.98335 2.64508,-26.92288 17.8091,-27.12975c15.82517,-0.21589 17.8091,12.1464 17.8091,27.12975z" fill="url(#color-11)" stroke="url(#color-12)"/><path d="M593.19512,265.2428c0,14.98335 0.01372,26.93128 -17.8091,27.12975c-16.49563,0.18369 -17.8091,-12.1464 -17.8091,-27.12975c0,-14.98335 2.64508,-26.92288 17.8091,-27.12975c15.82517,-0.2159 17.8091,12.1464 17.8091,27.12975z" fill="url(#color-13)" stroke="url(#color-14)"/><path d="M536.8086,239.07593v-12.07868h4.07958v12.07868z" fill="#312d29" stroke="url(#color-15)"/><path d="M574.25938,239.35547v-12.07868h4.07958v12.07868z" fill="#312d29" stroke="url(#color-16)"/><path d="M535.20953,231.78284v-3.56521h44.12864v3.56521z" fill="#36322e" stroke="none"/><path d="M507.85485,195.95024v-7.24379h42.01397v7.24379z" fill="url(#color-17)" stroke="url(#color-18)"/><path d="M507.63926,208.48376v-7.24379h42.01397v7.24379z" fill="url(#color-19)" stroke="url(#color-20)"/><path d="M462.62004,293.1581v-31.51043h57.11412v31.51043z" fill="url(#color-21)" stroke="url(#color-22)"/><path d="M471.37004,253.76276v-14.86511h40.61412v14.86511z" fill="url(#color-23)" stroke="url(#color-24)"/><path d="M465.37004,284.9294v-14.86511h50.36412v14.86511z" fill="url(#color-25)" stroke="url(#color-26)"/><path d="M461.25053,293.831v-1.31049h134.49932v1.31049z" fill="#312d29" stroke="url(#color-27)"/></g><g><path d="M373.55496,291.07991v-47.8337h77.61184v47.8337z" fill="url(#color-28)" stroke="url(#color-29)" stroke-width="1"/><path d="M369.04769,293.99604v-4.94233h85.8651v4.94233z" fill="url(#color-30)" stroke="url(#color-31)" stroke-width="0.5"/><path d="M379.60487,288.70963v-45.04399h2.75535v45.04399z" fill="url(#color-32)" stroke="none" stroke-width="0"/><path d="M387.35429,288.70962v-45.04399h2.75535v45.04399z" fill="url(#color-33)" stroke="none" stroke-width="0"/><path d="M395.10372,288.70961v-45.04399h2.75536v45.04399z" fill="url(#color-34)" stroke="none" stroke-width="0"/><path d="M402.85315,288.70963v-45.04399h2.75535v45.04399z" fill="url(#color-35)" stroke="none" stroke-width="0"/><path d="M410.60257,288.70962v-45.04399h2.75535v45.04399z" fill="url(#color-36)" stroke="none" stroke-width="0"/><path d="M418.35199,288.70961v-45.04399h2.75535v45.04399z" fill="url(#color-37)" stroke="none" stroke-width="0"/><path d="M426.1014,288.70963v-45.04399h2.75535v45.04399z" fill="url(#color-38)" stroke="none" stroke-width="0"/><path d="M433.85084,288.70962v-45.04399h2.75535v45.04399z" fill="url(#color-39)" stroke="none" stroke-width="0"/><path d="M441.60023,288.70961v-45.04399h2.75535v45.04399z" fill="url(#color-40)" stroke="none" stroke-width="0"/><path d="M369.04769,244.8126v-3.23233h85.8651v3.23233z" fill="url(#color-41)" stroke="url(#color-42)" stroke-width="0.5"/><path d="M449.31358,294.35577v-53.33333h5.9433v53.33333z" fill="url(#color-43)" stroke="url(#color-44)" stroke-width="0.5"/><path d="M368.70361,294.35577v-53.33334h5.94331v53.33334z" fill="url(#color-45)" stroke="url(#color-46)" stroke-width="0.5"/></g><g stroke="none" stroke-width="0"><path d="M459.89147,297.60605l111.26596,40.72317h-77.61184l-111.26596,-40.72317z" fill="url(#color-47)"/><path d="M454.23245,293.55048l11.49635,4.20764h-85.8651l-11.49635,-4.20764z" fill-opacity="0.18431" fill="#000000"/><path d="M456.36157,294.81715l125.55981,45.40527h-5.9433l-125.55981,-45.40527z" fill="url(#color-48)"/><path d="M375.75161,294.81715l124.05868,45.40528h-5.94331l-124.05868,-45.40528z" fill="url(#color-49)"/></g><g stroke-width="0"><path d="M567.23763,294.35283c0,0 76.30581,18.7422 123.70713,29.42565c49.11319,11.06929 166.01863,35.87364 166.01863,35.87364l-42.62492,-0.20661c0,0 -116.46813,-24.94405 -169.20957,-35.73901c-53.26218,-10.90154 -148.81669,-29.35366 -148.81669,-29.35366z" fill="url(#color-50)" stroke="none"/><path d="M516.8867,294.23861l170.37909,36.50228h-46.61412l-170.37909,-36.50228z" fill="url(#color-51)" stroke="url(#color-52)"/><path d="M696.39648,327.645c-15.74891,-0.12531 -52.15157,-7.35758 -94.51519,-16.43363c-42.36361,-9.07605 -75.91199,-16.5449 -58.89699,-16.43363c18.38396,0.12022 52.15157,7.35758 94.51519,16.43363c42.36361,9.07604 75.33257,16.56441 58.89699,16.43363z" fill="url(#color-53)" stroke="url(#color-54)"/><path d="M732.92184,327.58171c-15.74892,-0.12531 -52.15157,-7.35758 -94.51519,-16.43363c-42.36362,-9.07604 -75.91199,-16.5449 -58.897,-16.43363c18.38396,0.12022 52.15158,7.35758 94.5152,16.43363c42.36362,9.07605 75.33259,16.56441 58.89699,16.43363z" fill="url(#color-55)" stroke="url(#color-56)"/><path d="M695.70158,326.99845l34.15101,7.31657h-4.07958l-34.15102,-7.31657z" fill="url(#color-57)" stroke="url(#color-58)"/><path d="M732.36194,326.82912l34.15101,7.31657h-4.07958l-34.15101,-7.31657z" fill="url(#color-59)" stroke="url(#color-60)"/><path d="M754.77192,331.41619l10.08021,2.1596h-44.12864l-10.08022,-2.1596z" fill="url(#color-61)" stroke="none"/><path d="M826.61485,353.1215l20.48095,4.38787h-42.01397l-20.48094,-4.38787z" fill="url(#color-62)" stroke="url(#color-63)"/><path d="M790.96226,345.52942l20.48094,4.38787h-42.01397l-20.48094,-4.38787z" fill="url(#color-64)" stroke="url(#color-65)"/><path d="M521.6367,294.23861l89.09195,19.0872h-57.11412l-89.09195,-19.0872z" fill="url(#color-66)" stroke="url(#color-67)"/><path d="M625.27226,318.10202l42.02931,9.00443h-40.61412l-42.02931,-9.00443z" fill="url(#color-68)" stroke="url(#color-69)"/><path d="M540.90235,299.22308l42.02932,9.00443h-50.36412l-42.02932,-9.00443z" fill="url(#color-70)" stroke="url(#color-71)"/><path d="M595.74983,293.831l3.70525,0.79382h-134.49932l-3.70525,-0.79382z" fill="url(#color-72)" stroke="url(#color-73)"/></g><text transform="translate(454.88241,333.04244) scale(0.285,0.285)" font-size="40" xml:space="preserve" fill="#7bbae3" stroke="none" stroke-width="1" font-family="&quot;pdark&quot;, Sans Serif" font-weight="normal" text-anchor="start"><tspan x="0" dy="0">A game by </tspan><tspan x="0" dy="46.15px"> vexplay</tspan></text></g></g></svg>