<svg version="1.1" xmlns="http://www.w3.org/2000/svg" xmlns:xlink="http://www.w3.org/1999/xlink" width="42.03209" height="102.92871" viewBox="0,0,42.03209,102.92871"><defs><radialGradient cx="238.52448" cy="178.75476" r="22.57159" gradientUnits="userSpaceOnUse" id="color-1"><stop offset="0" stop-color="#3c3c3c"/><stop offset="1" stop-color="#939393"/></radialGradient><linearGradient x1="239.74787" y1="158.56832" x2="239.74787" y2="165.41937" gradientUnits="userSpaceOnUse" id="color-2"><stop offset="0" stop-color="#696969"/><stop offset="1" stop-color="#a0a0a0"/></linearGradient><radialGradient cx="235.71182" cy="135.91612" r="13.11833" gradientUnits="userSpaceOnUse" id="color-3"><stop offset="0" stop-color="#dcdcdc"/><stop offset="1" stop-color="#a0a0a0"/></radialGradient><radialGradient cx="237.18799" cy="141.4174" r="11.33664" gradientUnits="userSpaceOnUse" id="color-4"><stop offset="0" stop-color="#ffc4c4"/><stop offset="1" stop-color="#ff2121"/></radialGradient></defs><g transform="translate(-218.87308,-132.14767)"><g data-paper-data="{&quot;isPaintingLayer&quot;:true}" fill-rule="nonzero" stroke-linejoin="miter" stroke-miterlimit="10" stroke-dasharray="" stroke-dashoffset="0" style="mix-blend-mode: normal"><path d="M223.55679,201.32636v-45.14319h29.93538v45.14319z" fill="url(#color-1)" stroke="#ed6b00" stroke-width="0" stroke-linecap="butt"/><g stroke-width="0" stroke-linecap="butt"><path d="M235.91979,165.41937v-6.85104h7.65615v6.85104z" fill="url(#color-2)" stroke="#000000"/><path d="M252.80944,146.14573c0,7.73092 -5.73774,13.99807 -12.8156,13.99807c-7.07786,0 -12.8156,-6.26715 -12.8156,-13.99807c0,-7.73092 5.73774,-13.99806 12.8156,-13.99806c7.07786,0 12.8156,6.26714 12.8156,13.99806z" fill="url(#color-3)" stroke="none"/><path d="M251.91261,144.97429c0,4.88691 0.04417,10.71868 -11.03968,11.34206c-12.38261,0.69642 -11.62457,-6.45514 -11.62457,-11.34206c0,-4.88691 5.07357,-8.84854 11.33213,-8.84854c6.25856,0 11.33213,3.96163 11.33213,8.84854z" data-paper-data="{&quot;index&quot;:null}" fill="url(#color-4)" stroke="#ed6b00"/></g><path d="M226.12337,227.98573l3.75904,-33.71008c0,0 6.75518,-2.18267 9.822,-2.18267c3.62872,0 10.54956,2.18267 10.54956,2.18267l3.03149,33.71008h-7.63934c0,0 -1.32697,-25.53818 -2.03751,-29.57011c-0.20138,-1.1427 -3.2979,-2.07857 -3.2979,-2.07857c0,0 -3.09204,0.08829 -3.39803,1.52409c-0.93579,4.39099 -2.78619,30.12458 -2.78619,30.12458z" fill="#494949" stroke="#000000" stroke-width="0" stroke-linecap="butt"/><g><path d="M259.69259,235.07551c-0.59276,0 -2.64411,0.01365 -4.70436,-0.0669c-1.25258,-0.04897 -1.90215,-0.61779 -2.83553,-0.76063c-1.17507,-0.17982 -2.93854,0.22047 -3.78778,0.02896c-1.56485,-0.35288 -2.37463,-0.77782 -2.37463,-0.77782c0,0 -0.26911,-1.0254 -0.2856,-1.5858c-0.02221,-0.75501 0.16433,-2.53701 0.16433,-2.53701c0,0 5.93425,-0.11957 8.24914,0.08076c1.36979,0.11854 4.24057,0.6468 4.24057,0.6468c0,0 1.45976,0.6156 1.67337,1.04283c0.26162,0.52325 0.87307,1.98865 0.87307,1.98865c0,0 -0.3857,1.94015 -1.21259,1.94015z" data-paper-data="{&quot;index&quot;:null}" fill="#141415" stroke="#000000" stroke-width="0" stroke-linecap="butt"/><path d="M259.4217,232.5007c-0.24822,0 0.7024,1.60165 -2.61811,1.33311c-3.13563,-0.25358 -2.77648,-1.18823 -3.8809,-1.26883c-2.30937,-0.16854 -2.58765,0.59503 -3.58732,0.44205c-0.34815,-0.05328 -0.51271,-0.11454 -1.78459,-0.97035c-0.87472,-0.58857 -0.66566,-1.75122 -1.26542,-2.3793c-0.87609,-0.91745 -0.80847,-1.8858 -0.80847,-1.8858l-0.07637,-3.04773c0,0 0.48635,2.20681 1.32529,3.03122c0.75062,0.73761 2.3169,-0.01875 2.80058,-0.01889c0.84696,-0.00024 -0.68885,-3.26804 0.12091,-3.2498c0.43542,0.00981 3.72275,-0.23409 3.72275,-0.23409c0,0 0.12302,3.57989 0.35598,3.60005c1.36979,0.11854 4.60434,0.6468 4.60434,0.6468c0,0 1.45976,0.6156 1.67338,1.04283c0.26162,0.52325 0.63055,2.95873 0.63055,2.95873c0,0 -0.3857,0 -1.2126,0z" data-paper-data="{&quot;index&quot;:null}" fill="#252527" stroke="#000000" stroke-width="0" stroke-linecap="butt"/><path d="M251.9516,229.5621l2.6677,-1.09133" fill="none" stroke="#ffffff" stroke-width="0.5" stroke-linecap="round"/><path d="M256.4382,228.47077l-2.54645,1.45511" fill="none" stroke="#ffffff" stroke-width="0.5" stroke-linecap="round"/><path d="M257.52954,228.71329l-1.45512,1.45511" fill="none" stroke="#ffffff" stroke-width="0.5" stroke-linecap="round"/><path d="M250.73901,225.68181l2.18266,-0.24252" fill="none" stroke="#969696" stroke-width="0.5" stroke-linecap="round"/><path d="M251.22405,226.53062l1.94015,-0.36378" fill="none" stroke="#969696" stroke-width="0.5" stroke-linecap="round"/></g><g data-paper-data="{&quot;index&quot;:null}"><path d="M218.87309,233.04247c0,0 0.61145,-1.46541 0.87307,-1.98866c0.21362,-0.42723 1.67337,-1.04283 1.67337,-1.04283c0,0 2.87078,-0.52826 4.24057,-0.6468c2.3149,-0.20032 8.24914,-0.08075 8.24914,-0.08075c0,0 0.18654,1.78201 0.16433,2.53701c-0.01648,0.56041 -0.2856,1.5858 -0.2856,1.5858c0,0 -0.80978,0.42493 -2.37463,0.77781c-0.84924,0.19151 -2.6127,-0.20879 -3.78777,-0.02896c-0.93338,0.14284 -1.58295,0.71166 -2.83553,0.76063c-2.06025,0.08055 -4.1116,0.06689 -4.70436,0.06689c-0.8269,0 -1.2126,-1.94015 -1.2126,-1.94015z" data-paper-data="{&quot;index&quot;:null}" fill="#141415" stroke="#000000" stroke-width="0" stroke-linecap="butt"/><path d="M219.14398,232.40781c0,0 0.36892,-2.43548 0.63055,-2.95873c0.21362,-0.42723 1.67337,-1.04283 1.67337,-1.04283c0,0 3.23456,-0.52826 4.60434,-0.6468c0.23296,-0.02016 0.35598,-3.60004 0.35598,-3.60004c0,0 3.28733,0.24389 3.72275,0.23408c0.80976,-0.01824 -0.72604,3.24957 0.12091,3.24981c0.48368,0.00014 2.04996,0.7565 2.80058,0.01889c0.83894,-0.82441 1.32529,-3.03123 1.32529,-3.03123l-0.07637,3.04773c0,0 0.06762,0.96834 -0.80847,1.8858c-0.59976,0.62808 -0.39071,1.79073 -1.26542,2.3793c-1.27187,0.85581 -1.43643,0.91707 -1.78458,0.97035c-0.99967,0.15299 -1.27796,-0.61058 -3.58733,-0.44204c-1.10442,0.0806 -0.74527,1.01524 -3.8809,1.26883c-3.3205,0.26854 -2.36989,-1.33311 -2.61811,-1.33311c-0.8269,0 -1.21259,0 -1.21259,0z" data-paper-data="{&quot;index&quot;:null}" fill="#252527" stroke="#000000" stroke-width="0" stroke-linecap="butt"/><path d="M225.15896,228.37787l2.66771,1.09134" fill="none" stroke="#ffffff" stroke-width="0.5" stroke-linecap="round"/><path d="M225.88652,229.83299l-2.54644,-1.45511" fill="none" stroke="#ffffff" stroke-width="0.5" stroke-linecap="round"/><path d="M223.70386,230.07551l-1.45512,-1.45512" fill="none" stroke="#ffffff" stroke-width="0.5" stroke-linecap="round"/><path d="M229.03927,225.58892l-2.18267,-0.24252" fill="none" stroke="#969696" stroke-width="0.5" stroke-linecap="round"/><path d="M228.55423,226.43773l-1.94015,-0.36378" fill="none" stroke="#969696" stroke-width="0.5" stroke-linecap="round"/></g><g stroke="#000000" stroke-width="0" stroke-linecap="butt"><path d="M254.11889,190.97551c0,0 0.66892,-2.97328 0.05571,-6.44804c-0.14746,-0.83559 -0.41132,-3.58637 -0.57245,-4.44347c-0.38136,-2.02854 -0.84228,-4.02868 -1.04117,-5.2772c-0.42779,-2.68535 -0.87937,-6.09717 -0.87937,-6.09717c0,0 -0.69261,-6.70195 0.5431,-6.95809c7.22691,-1.49802 6.24788,6.04595 6.24788,6.04595c0,0 0.73605,4.86368 1.19088,7.71873c0.1851,1.16193 -0.36631,2.11076 -0.16035,3.91963c0.09233,0.81086 -0.0776,4.32835 -0.06576,6.47901c0.0197,3.58077 0.47066,5.74053 0.47066,5.74053z" data-paper-data="{&quot;index&quot;:null}" fill="#bdbdbd"/><path d="M259.92316,196.18146c-0.2566,-0.02589 -0.05156,3.72298 -1.14214,3.68005c-0.5364,-0.02112 -0.01536,-2.43905 -0.74511,-3.27716c-0.38628,-0.44364 0.39376,4.28209 -1.01114,3.79046c-0.48232,-0.16879 -0.09081,-3.59707 -0.59362,-4.42132c-0.26916,-0.44124 0.01849,5.2226 -0.92399,4.93975c-0.55948,-0.1679 0.01358,-3.28913 -0.35419,-4.69799c-0.17917,-0.68636 -0.49678,3.85363 -1.17396,3.52465c-0.41452,-0.20138 -0.37463,-4.64428 -0.42016,-4.69486c-0.2559,-0.28427 -1.17995,2.4004 -1.50053,1.74902c-0.59085,-1.20049 0.57705,-2.61639 1.49872,-3.947c0.5385,-0.77742 0.59413,-1.95726 0.59413,-1.95726c0,0 1.99442,-0.45573 2.97181,-0.34095c0.95164,0.11176 2.81732,1.02083 2.81732,1.02083c0,0 0.52647,4.68662 -0.01713,4.63177z" data-paper-data="{&quot;index&quot;:null}" fill="#5c4747"/></g><g stroke="#000000" stroke-width="0" stroke-linecap="butt"><path d="M219.17401,191.99033c0,0 0.45628,-2.15864 0.48483,-5.73936c0.01714,-2.15062 -0.1441,-5.66852 -0.04977,-6.47915c0.21042,-1.80837 -0.33864,-2.75855 -0.15067,-3.92002c0.46186,-2.85393 1.20991,-7.71577 1.20991,-7.71577c0,0 -0.82804,-7.89609 6.67598,-6.37682c1.19796,0.24254 0.11272,7.30572 0.11272,7.30572c0,0 -0.45999,3.4107 -0.89441,6.09498c-0.20198,1.24802 -0.66783,3.24702 -1.05419,5.27461c-0.16324,0.8567 -0.43389,3.60682 -0.58341,4.44204c-0.62178,3.47323 0.03981,6.44815 0.03981,6.44815z" fill="#bdbdbd"/><path d="M219.19653,196.73972c-0.5436,0.05485 -0.01713,-4.63177 -0.01713,-4.63177c0,0 1.86569,-0.90907 2.81733,-1.02083c0.97739,-0.11479 2.97181,0.34095 2.97181,0.34095c0,0 0.05563,1.17984 0.59413,1.95726c0.92167,1.33061 2.08957,2.74651 1.49872,3.947c-0.32058,0.65138 -1.24463,-2.03329 -1.50053,-1.74902c-0.04553,0.05058 -0.00564,4.49348 -0.42016,4.69486c-0.67718,0.32898 -0.99479,-4.21101 -1.17396,-3.52465c-0.36777,1.40886 0.20529,4.53009 -0.35419,4.69799c-0.94248,0.28285 -0.65483,-5.38099 -0.92399,-4.93975c-0.50281,0.82425 -0.1113,4.25253 -0.59362,4.42132c-1.4049,0.49163 -0.62486,-4.2341 -1.01114,-3.79046c-0.72975,0.83811 -0.20871,3.25604 -0.74511,3.27716c-1.09058,0.04293 -0.88554,-3.70594 -1.14214,-3.68005z" data-paper-data="{&quot;index&quot;:null}" fill="#5c4747"/></g><g stroke-width="0" stroke-linecap="butt"><path d="M229.63979,194.84141c0,0 0.16709,-5.5597 -0.35268,-10.94382c-0.35317,-3.65847 -1.40473,-6.95919 -1.56162,-9.45339c-0.29447,-4.68133 -0.2105,-13.38223 -0.2105,-13.38223c0,0 3.69178,-0.58477 5.4694,-0.21857c2.26281,0.46615 7.00656,2.78867 7.00656,2.78867c0,0 3.67689,-2.17061 5.59031,-2.58687c2.01891,-0.43921 6.22369,0.01677 6.22369,0.01677c0,0 -0.06905,9.21711 -0.22689,12.65629c-0.13965,3.04285 -0.88957,6.36811 -1.18346,10.87293c-0.3029,4.64296 -0.14784,10.42155 -0.14784,10.42155c0,0 -2.75697,-0.76932 -5.57187,-0.83754c-1.27833,-0.03098 -1.79126,1.00612 -2.99851,1.16532c-0.96496,0.12724 -2.63623,-0.61291 -3.56107,-0.64966c-0.69915,-0.02778 -2.04377,-0.5306 -2.53801,-0.53471c-0.99795,-0.0083 -1.61572,0.86529 -2.77345,1.02464c-1.34484,0.1851 -3.1641,-0.33939 -3.1641,-0.33939z" fill="#d0d0d0" stroke="#292e32"/><path d="M242.73589,171.7571l-0.12126,-5.82045l7.63934,0.36378v5.21415z" fill="#ff0000" stroke="none"/></g></g></g></svg>