<svg version="1.1" xmlns="http://www.w3.org/2000/svg" xmlns:xlink="http://www.w3.org/1999/xlink" width="65.66964" height="105.20502" viewBox="0,0,65.66964,105.20502"><defs><linearGradient x1="239.74787" y1="156.06832" x2="239.74787" y2="162.91937" gradientUnits="userSpaceOnUse" id="color-1"><stop offset="0" stop-color="#c28b5f"/><stop offset="1" stop-color="#ffb87d"/></linearGradient><radialGradient cx="235.71182" cy="133.41612" r="13.11833" gradientUnits="userSpaceOnUse" id="color-2"><stop offset="0" stop-color="#ffd9ba"/><stop offset="1" stop-color="#ffb87d"/></radialGradient><radialGradient cx="230.94379" cy="136.1806" r="10.07074" gradientUnits="userSpaceOnUse" id="color-3"><stop offset="0" stop-color="#303030"/><stop offset="1" stop-color="#292929"/></radialGradient><radialGradient cx="247.41639" cy="133.23996" r="2.65078" gradientUnits="userSpaceOnUse" id="color-4"><stop offset="0" stop-color="#787878"/><stop offset="1" stop-color="#292929"/></radialGradient><radialGradient cx="236.23379" cy="135.2426" r="4.17314" gradientUnits="userSpaceOnUse" id="color-5"><stop offset="0" stop-color="#a7a7a7"/><stop offset="1" stop-color="#292929"/></radialGradient></defs><g transform="translate(-207.79085,-129.64767)"><g data-paper-data="{&quot;isPaintingLayer&quot;:true}" fill-rule="nonzero" stroke-linejoin="miter" stroke-miterlimit="10" stroke-dasharray="" stroke-dashoffset="0" style="mix-blend-mode: normal"><g><path d="M252.82079,226.34142c0,0 -6.61532,-24.9375 -8.35328,-29.07705c-0.56829,-1.35358 -3.62259,-0.86389 -3.62259,-0.86389c0,0 -3.76064,-3.60623 -0.19552,-4.2827c3.01305,-0.57173 10.05672,0.31335 10.05672,0.31335l9.9775,32.41834z" data-paper-data="{&quot;index&quot;:null}" fill="#726f7c" stroke="#000000" stroke-width="0" stroke-linecap="butt"/><path d="M267.98193,230.72514c-0.58236,0.11051 -2.59522,0.50634 -4.63436,0.81127c-1.23975,0.18539 -1.98398,-0.25235 -2.92762,-0.21869c-1.188,0.04239 -2.84591,0.76443 -3.71598,0.73458c-1.60321,-0.05498 -2.478,-0.32151 -2.478,-0.32151c0,0 -0.45555,-0.95726 -0.57622,-1.50476c-0.16257,-0.73764 -0.31151,-2.52318 -0.31151,-2.52318c0,0 5.80792,-1.22376 8.11957,-1.45849c1.36788,-0.1389 4.28681,-0.15508 4.28681,-0.15508c0,0 1.54893,0.33267 1.83844,0.71259c0.35457,0.4653 1.22849,1.79103 1.22849,1.79103c0,0 -0.01724,1.97804 -0.82966,2.13218z" data-paper-data="{&quot;index&quot;:null}" fill="#141415" stroke="#000000" stroke-width="0" stroke-linecap="butt"/><path d="M267.23579,228.24597c-0.24387,0.04628 0.98868,1.44263 -2.32369,1.79782c-3.12794,0.33542 -2.94933,-0.64979 -4.0494,-0.5231c-2.3003,0.26493 -2.43135,1.067 -3.44203,1.10306c-0.35198,0.01255 -0.52507,-0.01695 -1.93421,-0.62066c-0.96911,-0.41519 -0.98047,-1.59643 -1.68679,-2.10169c-1.03176,-0.73803 -1.14586,-1.70202 -1.14586,-1.70202l-0.6432,-2.98005c0,0 0.88922,2.07746 1.86715,2.73101c0.87497,0.58474 2.27278,-0.45036 2.74796,-0.54066c0.83207,-0.15813 -1.28602,-3.08233 -0.48704,-3.21537c0.42962,-0.07153 3.61386,-0.924 3.61386,-0.924c0,0 0.78824,3.49421 1.02088,3.47058c1.36788,-0.1389 4.6442,-0.22291 4.6442,-0.22291c0,0 1.54893,0.33267 1.83845,0.71259c0.35457,0.4653 1.17107,2.78932 1.17107,2.78932c0,0 -0.37894,0.0719 -1.19134,0.22606z" data-paper-data="{&quot;index&quot;:null}" fill="#252527" stroke="#000000" stroke-width="0" stroke-linecap="butt"/><path d="M261.7663,225.18197l-2.41748,1.56952" fill="none" stroke="#ffffff" stroke-width="0.5" stroke-linecap="round"/><path d="M263.5533,224.84289l-2.23053,1.90432" fill="none" stroke="#ffffff" stroke-width="0.5" stroke-linecap="round"/><path d="M264.67073,224.87771l-1.15834,1.70087" fill="none" stroke="#ffffff" stroke-width="0.5" stroke-linecap="round"/><path d="M257.43411,223.16528l2.09918,-0.64517" fill="none" stroke="#969696" stroke-width="0.5" stroke-linecap="round"/><path d="M258.06888,223.90879l1.83831,-0.7191" fill="none" stroke="#969696" stroke-width="0.5" stroke-linecap="round"/></g><g><path d="M221.93315,226.01352l8.28002,-32.89286c0,0 6.98816,-1.24979 10.02685,-0.83533c3.59544,0.49036 0.02721,4.28706 0.02721,4.28706c0,0 -3.07561,-0.33037 -3.57281,1.05092c-1.52058,4.22426 -6.83154,29.47174 -6.83154,29.47174z" fill="#726f7c" stroke="#000000" stroke-width="0" stroke-linecap="butt"/><path d="M236.3943,233.0894c0,0 -0.64436,1.87022 -1.46367,1.75848c-0.58732,-0.0801 -2.6217,-0.34377 -4.65216,-0.70199c-1.23446,-0.2178 -1.80121,-0.86916 -2.70673,-1.13684c-1.14,-0.33697 -2.94137,-0.17865 -3.75694,-0.48317c-1.5028,-0.56111 -2.24773,-1.09158 -2.24773,-1.09158c0,0 -0.12808,-1.05235 -0.06868,-1.60986c0.08002,-0.75108 0.50566,-2.49153 0.50566,-2.49153c0,0 5.89597,0.68346 8.16257,1.19476c1.34122,0.30257 4.11427,1.21393 4.11427,1.21393c0,0 1.36317,0.80722 1.51708,1.2594c0.18851,0.5538 0.59632,2.08841 0.59632,2.08841z" data-paper-data="{&quot;index&quot;:null}" fill="#141415" stroke="#000000" stroke-width="0" stroke-linecap="butt"/><path d="M236.21166,232.42396c0,0 -0.38215,-0.05212 -1.20148,-0.16387c-0.24596,-0.03355 0.47951,1.68187 -2.77424,0.96707c-3.0726,-0.67501 -2.59044,-1.55253 -3.67383,-1.78164c-2.26541,-0.47907 -2.64433,0.23989 -3.61415,-0.0468c-0.33775,-0.09984 -0.49254,-0.18278 -1.63708,-1.20261c-0.78715,-0.70138 -0.4229,-1.82511 -0.93228,-2.52848c-0.74406,-1.02745 -0.54621,-1.97776 -0.54621,-1.97776l0.3362,-3.0301c0,0 0.18367,2.2523 0.9035,3.18252c0.64405,0.83227 2.29817,0.29453 2.77744,0.35975c0.83922,0.11422 -0.2409,-3.33117 0.55895,-3.20365c0.4301,0.06856 3.72023,0.27115 3.72023,0.27115c0,0 -0.36187,3.56367 -0.13379,3.61513c1.34121,0.30257 4.47469,1.26309 4.47469,1.26309c0,0 1.36317,0.80722 1.51708,1.2594c0.18852,0.5538 0.22493,3.01679 0.22493,3.01679z" data-paper-data="{&quot;index&quot;:null}" fill="#252527" stroke="#000000" stroke-width="0" stroke-linecap="butt"/><path d="M230.79646,227.61814l-2.79072,0.72083" fill="none" stroke="#ffffff" stroke-width="0.5" stroke-linecap="round"/><path d="M229.87891,228.96159l2.71972,-1.09765" fill="none" stroke="#ffffff" stroke-width="0.5" stroke-linecap="round"/><path d="M232.00879,229.49683l1.63841,-1.24513" fill="none" stroke="#ffffff" stroke-width="0.5" stroke-linecap="round"/><path d="M229.52405,224.38505l-2.19542,-0.05467" fill="none" stroke="#969696" stroke-width="0.5" stroke-linecap="round"/><path d="M229.66601,225.1387l-1.97152,0.09826" fill="none" stroke="#969696" stroke-width="0.5" stroke-linecap="round"/></g><path d="M235.91979,162.91937v-6.85104h7.65615v6.85104z" fill="url(#color-1)" stroke="#000000" stroke-width="0" stroke-linecap="butt"/><path d="M229.63979,193.59141c0,0 0.16709,-5.5597 -0.35268,-10.94382c-0.35317,-3.65847 -1.40473,-6.95919 -1.56162,-9.45339c-0.29447,-4.68133 -0.2105,-13.38223 -0.2105,-13.38223c0,0 3.69178,-0.58477 5.4694,-0.21857c2.26281,0.46615 7.00656,2.78867 7.00656,2.78867c0,0 3.67689,-2.17061 5.59031,-2.58687c2.01891,-0.43921 6.22369,0.01677 6.22369,0.01677c0,0 -0.06905,9.21711 -0.22689,12.65629c-0.13965,3.04285 -0.88957,6.36811 -1.18346,10.87293c-0.3029,4.64296 -0.14784,10.42155 -0.14784,10.42155c0,0 -2.75697,-0.76932 -5.57187,-0.83754c-1.27833,-0.03098 -1.79126,1.00612 -2.99851,1.16532c-0.96496,0.12724 -2.63623,-0.61291 -3.56107,-0.64966c-0.69915,-0.02778 -2.04377,-0.5306 -2.53801,-0.53471c-0.99795,-0.0083 -1.61572,0.86529 -2.77345,1.02464c-1.34484,0.1851 -3.1641,-0.33939 -3.1641,-0.33939z" fill="#ffffff" stroke="#292e32" stroke-width="0" stroke-linecap="butt"/><path d="M252.80944,143.64573c0,7.73092 -5.73774,13.99807 -12.8156,13.99807c-7.07786,0 -12.8156,-6.26715 -12.8156,-13.99807c0,-7.73092 5.73774,-13.99806 12.8156,-13.99806c7.07786,0 12.8156,6.26714 12.8156,13.99806z" fill="url(#color-2)" stroke="none" stroke-width="0" stroke-linecap="butt"/><g stroke-linecap="butt"><path d="M238.50384,146.81148c-0.5265,0.91349 -1.43258,0.38383 -1.43258,0.38383c-0.91393,-0.55722 -2.45095,-1.17574 -2.30203,-2.6961c0.1217,-1.24248 2.13973,-2.33997 3.2068,-2.10706c1.93572,0.42253 3.60144,3.95074 0.5278,4.41932z" fill="#191412" stroke="none" stroke-width="0.5"/><path d="M242.92095,151.32608c0.14423,-0.46863 0.47533,-0.57039 0.71965,-0.57602c0.0776,-0.00492 0.15695,0.00165 0.23587,0.02089c-0.28158,-1.08168 -0.10408,-2.4792 -0.44462,-3.52597c0,0 -0.2501,-0.78449 0.51677,-1.04033c0.76687,-0.25584 1.01697,0.52865 1.01697,0.52865c0.4101,1.30859 0.71193,2.9192 0.68474,4.31641c-0.01019,0.5236 0.25251,1.23107 -0.14241,1.56432c-0.4098,0.34581 -1.06036,-0.06797 -1.59055,-0.10196l-0.46926,-0.15113c-0.09725,-0.03132 -0.18459,-0.07973 -0.25988,-0.14099c-0.1971,-0.14779 -0.41151,-0.42524 -0.26729,-0.89386z" fill="#191412" stroke="none" stroke-width="0.5"/><path d="M250.39278,147.29438c-0.42472,0.9868 -1.15568,0.41464 -1.15568,0.41464c-0.73728,-0.60194 -1.97722,-1.27009 -1.85707,-2.91248c0.09818,-1.3422 1.72614,-2.52778 2.58696,-2.27617c1.56156,0.45643 2.90532,4.26783 0.42578,4.77401z" fill="#191412" stroke="none" stroke-width="0.5"/><path d="M233.63377,136.22925c-0.17005,0.01306 -0.60745,0.05338 -1.08101,0.12809c-0.52481,0.19981 -1.13701,0.40123 -1.60677,0.62441c-0.30204,0.88846 0.76073,1.81827 -0.69014,2.46543c-2.47444,1.10372 -1.68672,-2.06362 -0.85344,-3.04958c1.28665,-1.08794 3.16128,-1.19356 4.77768,-1.47968c2.22645,-0.39412 4.39964,-1.01947 6.59672,-1.12157c0.08373,-0.08501 0.19742,-0.14125 0.32576,-0.15097l0.58683,-0.04437c0.29649,-0.07344 0.61861,-0.14963 0.95687,-0.22118c0.88034,-0.26117 1.93684,-0.38813 2.92062,-0.46624c0.48312,-0.0876 0.93522,-0.12531 1.30808,-0.08635c0.27415,-0.01627 0.52912,-0.03163 0.75689,-0.04886l0.61862,-0.04678c0.28176,-0.02131 0.52744,0.18983 0.54874,0.47159c0.01896,0.25077 -0.1462,0.47296 -0.38141,0.53382l-0.33106,0.09265c0.14321,0.12391 0.27273,0.26511 0.3863,0.42536l0.23585,-0.11566l0.28911,0.58949c0.03091,0.05949 0.05055,0.12607 0.05593,0.19712c0.02131,0.28176 -0.18983,0.52744 -0.47158,0.54873c-0.08568,0.00647 -0.16803,-0.00853 -0.24176,-0.0405l-0.50408,-0.20613l0.00607,-0.01483l-0.04781,-0.00447c-0.3588,-0.22898 -0.72469,-0.40307 -1.09089,-0.5227c-0.55912,-0.02819 -1.1467,-0.0979 -1.74581,-0.1556c-1.01707,0.15973 -1.94486,0.77427 -2.61733,1.83311c0,0 -0.27523,0.43128 -0.7065,0.15604c-0.43127,-0.27523 -0.15604,-0.70651 -0.15604,-0.70651c0.05884,-0.0918 0.11951,-0.18105 0.1819,-0.26772l-0.28521,0.08639c-0.03819,0.01244 -0.07848,0.02055 -0.12032,0.02371c-0.28176,0.02131 -0.52744,-0.18983 -0.54873,-0.47159c-0.01079,-0.1426 0.03797,-0.27595 0.12529,-0.37565c-0.24508,-0.00307 -0.47675,0.00691 -0.67434,0.05261c-1.38003,0.31921 -3.49383,0.40123 -5.49102,0.67808c0.0077,0.2414 -0.15453,0.45215 -0.38263,0.51117l-0.60014,0.16794l-0.00543,-0.01939l-0.0075,0.00183z" fill="url(#color-3)" stroke="none" stroke-width="0.5"/><path d="M248.78046,132.71809c2.71281,-0.24476 2.68884,-0.20441 2.87705,1.62874c0.18821,1.83315 -0.83074,3.35013 -2.2759,3.38828c-1.44517,0.03816 -2.76929,-1.41698 -2.9575,-3.25013c-0.18821,-1.83315 -0.18749,-1.53738 2.35635,-1.76689z" data-paper-data="{&quot;index&quot;:null}" fill="url(#color-4)" stroke="#000000" stroke-width="0"/><path d="M242.12216,135.30241c0.32856,1.99641 -1.2315,3.91541 -3.48449,4.28618c-2.25298,0.37077 -4.34573,-0.94706 -4.67428,-2.94348c-0.32856,-1.99641 -0.37937,-2.03235 3.90844,-2.54486c4.02075,-0.4806 3.92178,-0.79425 4.25034,1.20216z" fill="url(#color-5)" stroke="#000000" stroke-width="0"/></g><g stroke="#000000" stroke-width="0" stroke-linecap="butt"><path d="M272.41339,187.53967c-0.2081,0.07897 1.67752,3.32392 0.82404,3.71913c-0.41979,0.19438 -1.13658,-2.15809 -2.08095,-2.61181c-0.49988,-0.24018 2.2758,3.64309 0.97509,3.76506c-0.44655,0.04187 -1.72831,-3.15564 -2.49279,-3.68722c-0.40925,-0.28457 2.42266,4.62672 1.57173,4.75021c-0.50513,0.07332 -1.5065,-2.92388 -2.43735,-4.02784c-0.45349,-0.53782 1.39742,3.61675 0.72805,3.5939c-0.40974,-0.014 -2.4282,-3.97207 -2.48633,-3.99886c-0.32673,-0.15057 0.20499,2.59871 -0.34047,2.14811c-1.00532,-0.83044 -0.76549,-2.55083 -0.67456,-4.09768c0.05312,-0.90377 -0.44846,-1.97275 -0.44846,-1.97275c0,0 -0.85984,-2.904 -2.93109,-5.74353c-0.49808,-0.68284 -1.96837,-3.01879 -2.48682,-3.7153c-1.22704,-1.64842 -2.50182,-3.24003 -3.22963,-4.26884c-1.56545,-2.21276 -3.48411,-5.06069 -3.48411,-5.06069l4.77067,-3.50752c0,0 2.80568,4.02314 4.47005,6.37575c0.67735,0.95745 0.69341,2.01843 1.68505,3.54164c0.44453,0.68281 1.93681,3.87142 2.93768,5.77502c1.66643,3.16942 3.00718,4.90662 3.00718,4.90662c0,0 2.56381,3.9493 2.12295,4.11661z" data-paper-data="{&quot;index&quot;:null}" fill="#ffb77d"/><path d="M250.41918,160.51142c4.08281,-3.49125 6.34428,-0.69574 7.44337,0.94419c1.09908,1.63995 2.24735,0.39385 -1.50925,3.57427c-3.17517,2.68815 -2.88717,2.06025 -3.98625,0.4203c-1.09908,-1.63995 -4.07412,-3.12058 -1.94784,-4.93877z" data-paper-data="{&quot;index&quot;:null}" fill="#ffffff"/></g><g stroke="#000000" stroke-width="0" stroke-linecap="butt"><path d="M210.14737,184.6848c0,0 1.21949,-1.83868 2.56528,-5.15701c0.8083,-1.99301 1.95449,-5.32287 2.34085,-6.04171c0.86187,-1.60363 0.7015,-2.68927 1.30418,-3.69978c1.48086,-2.483 3.96753,-6.72723 3.96753,-6.72723l5.9689,3.36473c0,0 -1.68423,3.0013 -3.07708,5.33669c-0.64758,1.08581 -1.81717,2.77256 -2.92337,4.51517c-0.46738,0.73629 -1.73222,3.19325 -2.17897,3.91463c-1.85769,2.99982 -2.33869,6.00923 -2.33869,6.00923c0,0 -0.38573,1.11638 -0.1738,2.03806c0.36271,1.57749 0.92247,3.32543 -0.07131,4.22136c-0.53923,0.48613 -0.40217,-2.3498 -0.74522,-2.18066c-0.06105,0.0301 -1.67109,4.1712 -2.13074,4.20455c-0.75089,0.05449 0.63721,-4.27974 0.21638,-3.70872c-0.86385,1.17213 -1.48876,4.28339 -2.07061,4.23192c-0.98018,-0.08672 1.38669,-5.24029 0.97313,-4.9303c-0.77255,0.57911 -1.67988,3.90824 -2.19042,3.88619c-1.48705,-0.06423 0.98935,-4.16403 0.46611,-3.8952c-0.98847,0.50785 -1.40093,2.94664 -1.90694,2.76741c-1.02879,-0.36444 0.55145,-3.77017 0.30352,-3.84123c-0.5252,-0.15059 1.7012,-4.30807 1.7012,-4.30807z" fill="#ffb77d"/><path d="M227.31762,165.14878c-0.95911,1.73036 -0.52724,2.35796 -4.56579,-0.23316c-4.77811,-3.0656 -3.27085,-1.84855 -2.31174,-3.57893c0.95911,-1.73036 3.03137,-4.69912 8.23031,-1.33187c2.70753,1.75361 -0.39366,3.41359 -1.35278,5.14396z" fill="#ffffff"/></g></g></g></svg>