<svg version="1.1" xmlns="http://www.w3.org/2000/svg" xmlns:xlink="http://www.w3.org/1999/xlink" width="142.17202" height="136.0287" viewBox="0,0,142.17202,136.0287"><defs><linearGradient x1="259.87539" y1="97.96372" x2="259.87539" y2="174.0427" gradientUnits="userSpaceOnUse" id="color-1"><stop offset="0" stop-color="#000000" stop-opacity="0"/><stop offset="1" stop-color="#000000" stop-opacity="0"/></linearGradient><linearGradient x1="190.83347" y1="45.02467" x2="191.53402" y2="62.38446" gradientUnits="userSpaceOnUse" id="color-2"><stop offset="0" stop-color="#4a4a4a" stop-opacity="0"/><stop offset="1" stop-color="#4a4a4a" stop-opacity="0.6549"/></linearGradient><linearGradient x1="192.67007" y1="44.25311" x2="191.74412" y2="63.02366" gradientUnits="userSpaceOnUse" id="color-3"><stop offset="0" stop-color="#292929" stop-opacity="0"/><stop offset="1" stop-color="#292929" stop-opacity="0.58824"/></linearGradient><linearGradient x1="194.21135" y1="45.56097" x2="191.2245" y2="62.75541" gradientUnits="userSpaceOnUse" id="color-4"><stop offset="0" stop-color="#383838" stop-opacity="0"/><stop offset="1" stop-color="#383838" stop-opacity="0.76078"/></linearGradient><linearGradient x1="192.14648" y1="46.23721" x2="191.56218" y2="62.25719" gradientUnits="userSpaceOnUse" id="color-5"><stop offset="0" stop-color="#4b4b4b" stop-opacity="0"/><stop offset="1" stop-color="#4b4b4b" stop-opacity="0.75294"/></linearGradient><linearGradient x1="263.55" y1="87.3135" x2="263.55" y2="175.64683" gradientUnits="userSpaceOnUse" id="color-6"><stop offset="0" stop-color="#5d5d5d"/><stop offset="1" stop-color="#474747"/></linearGradient><radialGradient cx="279.53333" cy="98.20194" r="11.83333" gradientUnits="userSpaceOnUse" id="color-7"><stop offset="0" stop-color="#939393"/><stop offset="1" stop-color="#393939"/></radialGradient><linearGradient x1="279.53333" y1="86.56259" x2="279.53333" y2="109.84128" gradientUnits="userSpaceOnUse" id="color-8"><stop offset="0" stop-color="#666666"/><stop offset="1" stop-color="#4f4f4f"/></linearGradient><linearGradient x1="240.37499" y1="173.13949" x2="240.37499" y2="180.21186" gradientUnits="userSpaceOnUse" id="color-9"><stop offset="0" stop-color="#348317"/><stop offset="1" stop-color="#3c5b0d"/></linearGradient><radialGradient cx="197.27832" cy="111.47475" r="37.63684" gradientUnits="userSpaceOnUse" id="color-10"><stop offset="0" stop-color="#939393"/><stop offset="1" stop-color="#535353"/></radialGradient><radialGradient cx="196.88931" cy="83.72848" r="37.63684" gradientUnits="userSpaceOnUse" id="color-11"><stop offset="0" stop-color="#393939"/><stop offset="1" stop-color="#1b1b1b"/></radialGradient><radialGradient cx="196.69481" cy="78.21429" r="32.09343" gradientUnits="userSpaceOnUse" id="color-12"><stop offset="0" stop-color="#373737"/><stop offset="1" stop-color="#1b1b1b"/></radialGradient><linearGradient x1="180.03919" y1="69.10837" x2="204.20995" y2="69.10837" gradientUnits="userSpaceOnUse" id="color-13"><stop offset="0" stop-color="#535353"/><stop offset="1" stop-color="#232323"/></linearGradient><radialGradient cx="218.50361" cy="90.86672" r="17.36636" gradientUnits="userSpaceOnUse" id="color-14"><stop offset="0" stop-color="#939393"/><stop offset="1" stop-color="#535353"/></radialGradient><radialGradient cx="236.16706" cy="98.76667" r="9.74286" gradientUnits="userSpaceOnUse" id="color-15"><stop offset="0" stop-color="#1d1d1d"/><stop offset="1" stop-color="#080808"/></radialGradient><linearGradient x1="236.16706" y1="89.02381" x2="236.16706" y2="108.50953" gradientUnits="userSpaceOnUse" id="color-16"><stop offset="0" stop-color="#ffffff"/><stop offset="1" stop-color="#a0a0a0"/></linearGradient><radialGradient cx="185.99995" cy="130.0595" r="50.77276" gradientUnits="userSpaceOnUse" id="color-17"><stop offset="0" stop-color="#adadad"/><stop offset="1" stop-color="#666666"/></radialGradient><radialGradient cx="192.42657" cy="144.99996" r="35.99484" gradientUnits="userSpaceOnUse" id="color-18"><stop offset="0" stop-color="#1e1e1e"/><stop offset="1" stop-color="#171717"/></radialGradient><linearGradient x1="279.79248" y1="94.0872" x2="279.60221" y2="102.51281" gradientUnits="userSpaceOnUse" id="color-19"><stop offset="0" stop-color="#644520"/><stop offset="1" stop-color="#5c401f"/></linearGradient><linearGradient x1="283.96841" y1="98.3716" x2="275.42626" y2="98.2284" gradientUnits="userSpaceOnUse" id="color-20"><stop offset="0" stop-color="#644520"/><stop offset="1" stop-color="#5c401f"/></linearGradient><linearGradient x1="282.7488" y1="95.35166" x2="276.64589" y2="101.24836" gradientUnits="userSpaceOnUse" id="color-21"><stop offset="0" stop-color="#644520"/><stop offset="1" stop-color="#5c401f"/></linearGradient><linearGradient x1="276.73656" y1="95.2621" x2="282.65815" y2="101.3379" gradientUnits="userSpaceOnUse" id="color-22"><stop offset="0" stop-color="#644520"/><stop offset="1" stop-color="#5c401f"/></linearGradient><linearGradient x1="279.88482" y1="66.04788" x2="279.50987" y2="130.55211" gradientUnits="userSpaceOnUse" id="color-23"><stop offset="0" stop-color="#e08200"/><stop offset="1" stop-color="#82491d"/></linearGradient><linearGradient x1="279.73796" y1="91.31401" x2="279.65674" y2="105.28599" gradientUnits="userSpaceOnUse" id="color-24"><stop offset="0" stop-color="#636363"/><stop offset="1" stop-color="#3a3a3a"/></linearGradient><linearGradient x1="279.73796" y1="91.31401" x2="279.65674" y2="105.28599" gradientUnits="userSpaceOnUse" id="color-25"><stop offset="0" stop-color="#adadad"/><stop offset="1" stop-color="#7e7e7e"/></linearGradient><radialGradient cx="247.62359" cy="100.91852" r="20.5" gradientUnits="userSpaceOnUse" id="color-26"><stop offset="0" stop-color="#454545"/><stop offset="1" stop-color="#2f2f2f"/></radialGradient><radialGradient cx="279.83751" cy="114.899" r="6.16667" gradientUnits="userSpaceOnUse" id="color-27"><stop offset="0" stop-color="#939393"/><stop offset="1" stop-color="#454545"/></radialGradient><radialGradient cx="279.89864" cy="117.95457" r="6.16667" gradientUnits="userSpaceOnUse" id="color-28"><stop offset="0" stop-color="#636363"/><stop offset="1" stop-color="#232323"/></radialGradient></defs><g transform="translate(-171.50034,-44.18316)"><g data-paper-data="{&quot;isPaintingLayer&quot;:true}" fill-rule="nonzero" stroke-linejoin="miter" stroke-miterlimit="10" stroke-dasharray="" stroke-dashoffset="0" style="mix-blend-mode: normal"><path d="M236.92521,174.0427v-76.07898h44.2092l14.54429,76.75546z" fill-opacity="0.00392" fill="#ffffff" stroke="url(#color-1)" stroke-width="2.5" stroke-linecap="butt"/><path d="M185.55477,61.47053l-0.00897,-0.00389l-0.00541,-0.0156c-0.0533,-0.07579 -0.08531,-0.16316 -0.08909,-0.2568l-0.00739,-0.18313l0.01727,-0.06615l-0.00272,-0.06763l0.02129,-0.08155l-0.01639,-0.40607l-0.04656,-0.21669l0.00336,-0.03945l-0.01319,-0.03804l-0.00019,-0.00489l-0.00751,-0.01567l-0.05035,-0.0606l-0.03244,-0.07203l-0.21459,-0.32582l-0.01198,-0.03831l-0.02713,-0.03265l-0.06677,-0.14828l-0.04137,-0.04758l-0.03277,-0.06828l-0.05035,-0.0606l-0.14676,-0.32596l-0.01178,-0.08783l-0.02948,-0.08496l-0.00171,-0.04225l-0.02783,-0.08023l-0.00272,-0.06762l-0.02257,-0.06507l-0.00084,-0.02072l-0.01126,-0.02501l-0.01178,-0.08783l-0.02948,-0.08496l-0.02808,-0.69586l0.01727,-0.06615l-0.00272,-0.06763l0.02129,-0.08155l-0.00614,-0.15212l0.01727,-0.06615l-0.00272,-0.06763l0.03524,-0.13493l0.0345,-0.17144l0.01679,-0.03187l0.00183,-0.03469l0.06828,-0.18937l0.03031,-0.15058l0.01679,-0.03187l0.00184,-0.03469l0.06519,-0.18084l0.02874,-0.17821l0.03671,-0.07634l0.0184,-0.08071l0.09869,-0.17697l0.06358,-0.20924l0.02942,-0.04539l0.01153,-0.05059l0.35399,-0.63468l0.14672,-0.40691l0.03739,-0.05213l0.01906,-0.05846l0.10009,-0.14827l0.06338,-0.14414l0.03017,-0.03692l0.01401,-0.04299l0.12608,-0.18677l0.02394,-0.02107l0.01253,-0.02694l0.07694,-0.09057l0.13311,-0.30275l0.01581,-0.01934l0.00522,-0.02292l0.43705,-0.7836l0.09316,-0.25837l0.06578,-0.36666l0.02177,-0.04342l0.00403,-0.04685l0.1348,-0.33992l0.02325,-0.33287l0.01081,-0.02851l-0.00293,-0.02977l0.07244,-0.35993l0.06595,-0.40905l0.02287,-0.43196l-0.05113,-1.26695l-0.04605,-0.26168l-0.0854,-0.24621l-0.09592,-0.24523l-0.00076,-0.00939l-0.0057,-0.00815l-0.03796,-0.10941l-0.07815,-0.14652l-0.00337,-0.01629l-0.01134,-0.01363l-0.06677,-0.14828l-0.04137,-0.04758l-0.01748,-0.03644l-0.01073,-0.00147l-0.04843,-0.0583l-0.06695,-0.04416l-0.00453,-0.04188l-0.07437,-0.0895l-0.00647,-0.01437l-0.0006,-0.00076l-0.05066,-0.03546l-0.09342,-0.10744l-0.03277,-0.06828l-0.03072,-0.03698l-0.08254,-0.06358l-0.05824,-0.07422l-0.07252,-0.06514l-0.04744,-0.07203l-0.00661,-0.02112l-0.09299,-0.06132l-0.00295,-0.02731l-0.03682,-0.03308l-0.04744,-0.07203l-0.08577,-0.27435l0.09667,-0.12841l0.00409,-0.15104l0.25369,-0.1914l0.0492,-0.02196l0.0035,-0.00545l0.01845,-0.00433l0.01635,-0.00729l0.14858,-0.03148l0.14752,-0.03469l0.01859,-0.00051l0.01857,-0.00394l0.00637,0.00325l1.12066,-0.03065l0.35199,-0.04197l0.29966,-0.04366l0.04794,0.00277l0.04621,-0.01087l0.22925,-0.00626l0.09744,-0.02291l0.08214,-0.00224l0.07904,-0.01859l0.08898,-0.00243l0.08036,0.01422l0.08214,-0.00224l0.17942,0.03175l0.066,0.0267l0.07226,0.01118l0.1009,0.03813l0.04578,-0.01163l0.07499,0.03431l0.08387,0.01483l0.02679,0.03577l0.11469,0.05246l0.05157,0.01261l0.07678,0.03734l0.08493,0.02239l0.13642,0.06958l0.04635,0.03927l0.05813,0.02658l0.04365,0.03363l0.08022,0.04092l0.04635,0.03927l0.05813,0.02658l0.09194,0.07082l0.03609,0.04597l0.05066,0.03546l0.01569,0.01805l0.02291,0.01169l0.04635,0.03927l0.05813,0.02658l0.09193,0.07083l0.03609,0.04598l0.05067,0.03547l0.17603,0.20247l0.40652,0.41664l0.03687,0.06588l0.05394,0.05736l0.06086,0.11411l0.08407,0.08616l0.03687,0.06589l0.05393,0.05736l0.0852,0.15974l0.06942,0.10541l0.12694,0.16174l0.02374,0.05729l0.04151,0.04997l0.03244,0.07203l0.07226,0.10973l0.01833,0.05862l0.03673,0.05244l0.24496,0.7061l0.04001,0.08885l0.00287,0.02142l0.01309,0.01866l0.09375,0.27026l0.04001,0.08887l0.01178,0.08783l0.02948,0.08495l0.00318,0.07887l0.02783,0.08023l0.00054,0.01339l0.00745,0.01191l0.05187,0.18191l-0.00017,0.0091l0.00474,0.00823l0.03913,0.16027l0.06734,0.12628l0.01037,0.05012l0.02829,0.04522l0.05188,0.1819l-0.00016,0.0091l0.00473,0.00823l0.04303,0.17625l0.07963,0.17687l0.00582,0.04335l0.02271,0.03938l0.04303,0.17625l0.07963,0.17687l0.00462,0.03452l0.01932,0.03088l0.04238,0.14858l0.0834,0.18522l0.00287,0.02142l0.01309,0.01867l0.03795,0.10941l0.04265,0.07997l0.30311,0.31064l0.10422,0.06l0.05555,0.05261l0.06902,0.04037l0.16129,0.15511l0.67379,0.51902l0.1435,0.08263l0.06227,0.05897l0.07561,0.04724l0.10967,0.11238l0.19518,0.15034l0.03608,0.04598l0.05066,0.03546l0.02685,0.03088l0.08866,0.05104l0.07415,0.07025l0.08613,0.06027l0.18681,0.21488l0.01551,0.03231l0.0285,0.0256l0.06619,0.1005l0.10168,0.10421l0.0254,0.04537l0.04101,0.03683l0.09489,0.14407l0.00707,0.02259l0.01734,0.01845l0.0852,0.15974l0.17653,0.26802l0.00707,0.02259l0.01734,0.01845l0.0852,0.15974l0.08165,0.12395l0.00707,0.02259l0.01734,0.01845l0.09637,0.18069l0.00771,0.03727l0.02294,0.03275l0.02312,0.06664l0.08694,0.11077l0.02374,0.05729l0.04151,0.04997l0.09785,0.21731l0.00581,0.04335l0.02272,0.03938l0.0375,0.15361l0.10969,0.19276l0.01802,0.07582l0.03677,0.07109l0.04824,0.24991l0.08354,0.21358l0.00307,0.03796l0.01886,0.03474l0.10831,0.504l0.05183,0.21227l-0.00261,0.0459l0.01533,0.04418l0.03252,0.80573l-0.01398,0.05351l0.00537,0.05458l-0.0371,0.18434l-0.01679,0.03187l-0.00184,0.03469l-0.04928,0.13666l0.00379,0.09396l-0.00564,0.02162l0.01078,0.01637l-0.04584,0.11792l-0.03161,0.12105l-0.01925,0.00977l-0.00819,0.02107l-0.02363,0.03137l-0.01426,0.05463l-0.05039,0.08442l-0.03484,0.08959l-0.03745,0.04974l-0.01461,0.04052l-0.04535,0.06322l-0.02719,0.06991l-0.06264,0.08323l-0.02419,0.04337l-0.06709,0.06896l-0.05214,0.07722l-0.38492,0.33866l-0.11236,0.14925l-0.06571,0.11783l-0.03408,0.03502l-0.00074,0.02743l-0.04632,0.03495l-0.00339,0.01493l-0.00776,0.01391l-0.00403,0.01542l-0.00638,0.00323l-0.14795,0.26527l-0.03408,0.03502l-0.00074,0.02743l-0.09758,0.07363l-0.03125,0.03211l-0.0002,0.0078l-0.02776,0.02095l-0.02353,0.02419l-0.00944,0.0007l-0.03685,0.0278l-0.03125,0.03211l-0.00021,0.0078l-0.02775,0.02095l-0.02353,0.02419l-0.00944,0.0007l-0.03685,0.0278l-0.08275,0.08503l-0.03318,0.00243l-0.04019,0.03032l-0.0875,0.03907l-0.04654,0.00987l-0.03967,0.02233l-0.26397,0.08056l-0.08721,0.00792l-0.00307,0.00136l-0.14857,0.03148l-0.14752,0.03469l-0.0186,0.00051l-0.01857,0.00394l-0.00637,-0.00326l-0.02384,0.00065l-0.11613,0.02245l-0.09301,0.02837l-0.10668,0.0097l-0.1032,0.02426l-0.20313,0.00556l-0.03039,0.00928l-0.10668,0.0097l-0.1032,0.02426l-0.02519,0.0007l-0.03038,0.00928l-0.02602,0.00237l-0.02269,0.01078l-0.17646,0.04149l-0.08214,0.00224l-0.07904,0.01859l-0.15863,0.00433l-0.03039,0.00928l-0.02601,0.00236l-0.02269,0.01078l-0.17647,0.04149l-0.08215,0.00224l-0.07903,0.01859l-0.37879,0.01036l-0.15659,0.03026l-0.06649,-0.00079l-0.06395,0.01504l-5.47193,0.14965l-0.10493,-0.01858l-0.10723,-0.00385l-0.26988,-0.06596l-0.01643,-0.00798l-0.04076,0.00112l-0.0061,0.00359l-0.01885,-0.00292l-0.0186,0.00051l-0.15,-0.02655l-0.15078,-0.02329l-0.0169,-0.00639l-0.01874,-0.00333l-0.00394,-0.00526l-0.05088,-0.01924l-0.26856,-0.17711l-0.02908,-0.26914l-0.00062,-0.00082l0.00045,-0.0007l-0.01813,-0.16779c-0.16533,-0.0352 -0.30652,-0.12144 -0.39631,-0.23769z" fill="url(#color-2)" stroke="none" stroke-width="0.5" stroke-linecap="butt"/><path d="M185.38333,61.64535l-0.0093,-0.00478l-0.00432,-0.01717c-0.05015,-0.08524 -0.07622,-0.18159 -0.07121,-0.28284l0.00976,-0.19801l0.02505,-0.07023l0.00361,-0.07312l0.03087,-0.08657l0.02167,-0.43906l-0.02924,-0.23677l0.00744,-0.04235l-0.01055,-0.0419l0.00026,-0.00528l-0.00659,-0.0174l-0.04844,-0.06867l-0.02801,-0.07981l-0.1999,-0.36552l-0.00921,-0.0421l-0.0261,-0.037l-0.05765,-0.16433l-0.04001,-0.05403l-0.02874,-0.0758l-0.04844,-0.06866l-0.12673,-0.36122l-0.0042,-0.09551l-0.02357,-0.09358l0.00226,-0.04567l-0.02225,-0.08835l0.00361,-0.07312l-0.01804,-0.07166l0.00112,-0.02242l-0.00972,-0.02773l-0.0042,-0.09551l-0.02357,-0.09358l0.03711,-0.7524l0.02505,-0.07023l0.00361,-0.07313l0.03087,-0.08657l0.00812,-0.16448l0.02505,-0.07023l0.00361,-0.07312l0.05108,-0.14324l0.05381,-0.18264l0.02118,-0.03327l0.00534,-0.03732l0.09199,-0.19978l0.04727,-0.16042l0.0212,-0.03327l0.00534,-0.03732l0.08785,-0.19076l0.04825,-0.19034l0.04699,-0.07994l0.02765,-0.08584l0.12361,-0.18441l0.08883,-0.22152l0.03614,-0.04704l0.01732,-0.05379l0.44329,-0.66132l0.19767,-0.42927l0.04538,-0.05376l0.02622,-0.06182l0.12232,-0.15336l0.08231,-0.15131l0.03613,-0.03785l0.01928,-0.04544l0.15407,-0.19318l0.02788,-0.02114l0.01611,-0.02825l0.09176,-0.09263l0.1729,-0.31781l0.01893,-0.01984l0.00786,-0.02438l0.5473,-0.81652l0.12551,-0.27257l0.10647,-0.39115l0.0277,-0.04539l0.00888,-0.05027l0.17833,-0.35779l0.05732,-0.35751l0.01442,-0.03004l-0.00028,-0.0323l0.11299,-0.38348l0.11075,-0.43686l0.0665,-0.46441l0.06758,-1.3699l-0.02432,-0.28527l-0.06827,-0.27115l-0.0797,-0.27079l0.00009,-0.01018l-0.00536,-0.00916l-0.03034,-0.1205l-0.07011,-0.16319l-0.00206,-0.01778l-0.01091,-0.01546l-0.05765,-0.16433l-0.04001,-0.05403l-0.01534,-0.04046l-0.01141,-0.00228l-0.0466,-0.06605l-0.06794,-0.05202l-0.00083,-0.04546l-0.07154,-0.10142l-0.00559,-0.01592l-0.00058,-0.00087l-0.05121,-0.04158l-0.09035,-0.12201l-0.02873,-0.0758l-0.02956,-0.0419l-0.08286,-0.074l-0.05564,-0.08388l-0.0719,-0.07503l-0.0442,-0.08081l-0.00507,-0.02321l-0.09436,-0.07225l-0.00054,-0.02966l-0.03652,-0.0381l-0.04419,-0.08081l-0.06594,-0.30155l0.11671,-0.13217l0.01904,-0.16265l0.29218,-0.18978l0.0552,-0.02047l0.00431,-0.00566l0.02031,-0.00346l0.01834,-0.0068l0.16331,-0.0242l0.16247,-0.02773l0.0201,0.00067l0.0204,-0.00302l0.00655,0.00393l1.21173,0.04049l0.38373,-0.02217l0.32744,-0.0274l0.05144,0.00611l0.0509,-0.00868l0.24789,0.00828l0.10732,-0.01831l0.08884,0.00297l0.08704,-0.01487l0.0962,0.00322l0.0853,0.02061l0.08883,0.00297l0.19046,0.04604l0.0686,0.03312l0.07687,0.01679l0.10513,0.04776l0.0505,-0.00954l0.07757,0.04191l0.08903,0.02152l0.02543,0.04034l0.11862,0.06413l0.0544,0.01698l0.07921,0.04531l0.08945,0.02971l0.1404,0.08403l0.04619,0.04538l0.06013,0.0325l0.04383,0.03913l0.08257,0.04942l0.04618,0.04538l0.06012,0.0325l0.0923,0.08241l0.03447,0.05198l0.05121,0.04158l0.01518,0.02048l0.02359,0.01412l0.04619,0.04538l0.06012,0.0325l0.0923,0.08241l0.03447,0.05198l0.05121,0.04158l0.17026,0.22994l0.39812,0.47609l0.03338,0.07348l0.05261,0.06541l0.05459,0.1271l0.08234,0.09847l0.03338,0.07349l0.05261,0.06541l0.07643,0.17791l0.06468,0.11825l0.12124,0.18279l0.02005,0.06335l0.03995,0.05661l0.02801,0.07981l0.06732,0.1231l0.01409,0.06443l0.03455,0.05897l0.19582,0.77769l0.03455,0.09847l0.00103,0.0233l0.01229,0.02099l0.07495,0.29765l0.03455,0.09847l0.00419,0.09551l0.02357,0.09358l-0.0042,0.08527l0.02225,0.08834l-0.00071,0.01448l0.00689,0.01333l0.03834,0.19961l-0.00105,0.0098l0.00431,0.00917l0.02668,0.17545l0.06041,0.14062l0.00634,0.05475l0.02613,0.05063l0.03834,0.19961l-0.00105,0.0098l0.00431,0.00917l0.02935,0.19294l0.06877,0.19601l0.00207,0.04713l0.02069,0.04397l0.02935,0.19294l0.06877,0.196l0.00165,0.03754l0.01785,0.03458l0.03131,0.16305l0.07201,0.20525l0.00103,0.0233l0.0123,0.02098l0.03033,0.1205l0.03826,0.08905l0.29682,0.35496l0.1066,0.07157l0.05483,0.0604l0.07054,0.0481l0.15893,0.17791l0.67649,0.60406l0.14677,0.09853l0.06146,0.0677l0.07699,0.05592l0.10739,0.12844l0.19596,0.17497l0.03447,0.05198l0.05121,0.04158l0.02597,0.03506l0.09068,0.06087l0.07319,0.08064l0.08706,0.07068l0.18069,0.24404l0.01359,0.03586l0.02826,0.02949l0.06167,0.11274l0.09957,0.11907l0.023,0.05063l0.04066,0.04242l0.0884,0.16161l0.00543,0.02483l0.01692,0.02103l0.07643,0.17791l0.16445,0.30069l0.00543,0.02482l0.01692,0.02105l0.07643,0.17789l0.07607,0.13909l0.00543,0.02482l0.01692,0.02103l0.08644,0.20123l0.00471,0.04071l0.02158,0.03683l0.01847,0.07339l0.08304,0.12518l0.02005,0.06336l0.03995,0.0566l0.08448,0.24081l0.00207,0.04713l0.02069,0.04397l0.02557,0.16815l0.09964,0.21513l0.01209,0.083l0.03277,0.0791l0.02781,0.27272l0.06942,0.23586l-0.00036,0.04116l0.01697,0.03871l0.06801,0.55075l0.03534,0.23235l-0.00725,0.04933l0.01225,0.04865l-0.04297,0.87121l-0.02026,0.05682l0.0005,0.05921l-0.05787,0.1964l-0.0212,0.03327l-0.00534,0.0373l-0.06639,0.14418l-0.00501,0.10161l-0.00818,0.02295l0.01005,0.01836l-0.06087,0.12417l-0.04583,0.12849l-0.02172,0.00928l-0.01088,0.02217l-0.02852,0.0323l-0.02067,0.05798l-0.06253,0.08776l-0.04626,0.09433l-0.0452,0.05119l-0.01968,0.04276l-0.05504,0.06519l-0.0361,0.07364l-0.07563,0.08564l-0.03029,0.04518l-0.07905,0.06999l-0.06371,0.07988l-0.44799,0.34002l-0.13565,0.15361l-0.0823,0.12278l-0.04016,0.03554l-0.00346,0.02953l-0.05334,0.03465l-0.00511,0.01588l-0.00972,0.0145l-0.00585,0.01638l-0.0072,0.00307l-0.18527,0.27641l-0.04016,0.03554l-0.00346,0.02953l-0.11237,0.073l-0.03681,0.03258l-0.00099,0.0084l-0.03196,0.02076l-0.02774,0.02454l-0.01024,0.00013l-0.04242,0.02757l-0.03681,0.03258l-0.00098,0.0084l-0.03196,0.02077l-0.02774,0.02454l-0.01024,0.00013l-0.04243,0.02757l-0.09749,0.08629l-0.03603,0.00044l-0.04628,0.03007l-0.09816,0.03637l-0.05116,0.00758l-0.04494,0.02148l-0.29252,0.06956l-0.09482,0.00282l-0.00343,0.00127l-0.1633,0.0242l-0.16247,0.02773l-0.0201,-0.00068l-0.02042,0.00302l-0.00655,-0.00393l-0.02579,-0.00087l-0.12743,0.01658l-0.10307,0.0245l-0.11602,0.00346l-0.11367,0.0194l-0.21963,-0.00735l-0.03368,0.00801l-0.11602,0.00346l-0.11367,0.0194l-0.02721,-0.00091l-0.03368,0.00801l-0.0283,0.00085l-0.02551,0.01013l-0.19436,0.03317l-0.08883,-0.00297l-0.08706,0.01487l-0.17153,-0.00574l-0.03368,0.00801l-0.0283,0.00084l-0.02551,0.01013l-0.19436,0.03317l-0.08883,-0.00297l-0.08706,0.01487l-0.40958,-0.0137l-0.17184,0.02236l-0.07164,-0.00521l-0.07043,0.01202l-5.91662,-0.19781l-0.11138,-0.02692l-0.11529,-0.01119l-0.28471,-0.08885l-0.01696,-0.0097l-0.04406,-0.00147l-0.00693,0.00348l-0.02005,-0.00439l-0.0201,-0.00068l-0.1592,-0.03848l-0.16038,-0.03502l-0.01762,-0.00799l-0.0199,-0.00482l-0.00373,-0.00593l-0.053,-0.02408l-0.27251,-0.20867l-0.00529,-0.29221l-0.00058,-0.00092l0.00056,-0.00074l-0.00329,-0.18218c-0.17492,-0.04883 -0.31885,-0.1511 -0.40444,-0.28238z" fill="url(#color-3)" stroke="none" stroke-width="0.5" stroke-linecap="butt"/><path d="M185.5304,60.99722l-0.00801,-0.00513l-0.00203,-0.01614c-0.03643,-0.08227 -0.04945,-0.1729 -0.03334,-0.26565l0.0315,-0.18137l0.03103,-0.06266l0.01164,-0.06698l0.03825,-0.07724l0.06986,-0.4022l0.00003,-0.22005l0.01166,-0.03838l-0.00493,-0.03936l0.00085,-0.00484l-0.00409,-0.01651l-0.03675,-0.0669l-0.01668,-0.07558l-0.14231,-0.35164l-0.00368,-0.03944l-0.0198,-0.03605l-0.03434,-0.15561l-0.03066,-0.0528l-0.0178,-0.07194l-0.03675,-0.06689l-0.07548,-0.34204l0.007,-0.08817l-0.01104,-0.08788l0.00727,-0.04183l-0.0104,-0.08299l0.01164,-0.06698l-0.00845,-0.06731l0.00356,-0.02053l-0.00579,-0.02624l0.007,-0.08817l-0.01103,-0.08788l0.11973,-0.68922l0.03102,-0.06266l0.01164,-0.06698l0.03824,-0.07724l0.02616,-0.15065l0.03103,-0.06266l0.01164,-0.06698l0.06326,-0.1278l0.07028,-0.16386l0.02328,-0.02898l0.00916,-0.03391l0.10734,-0.17667l0.06174,-0.14392l0.02327,-0.02896l0.00916,-0.03391l0.1025,-0.1687l0.06603,-0.17136l0.05231,-0.06991l0.0352,-0.07683l0.13467,-0.16008l0.10691,-0.1969l0.03858,-0.04048l0.02206,-0.04815l0.48298,-0.57414l0.23064,-0.37962l0.04786,-0.04596l0.03115,-0.05483l0.12995,-0.13164l0.09294,-0.13284l0.03754,-0.03202l0.0229,-0.04032l0.1637,-0.16581l0.02805,-0.01731l0.01804,-0.02475l0.09494,-0.07813l0.1952,-0.27901l0.01967,-0.01679l0.01,-0.02182l0.59631,-0.70888l0.14645,-0.24103l0.14244,-0.3516l0.03063,-0.03963l0.01389,-0.04555l0.20473,-0.31538l0.09339,-0.32442l0.01668,-0.02654l0.00343,-0.02973l0.14755,-0.34403l0.15155,-0.3933l0.11401,-0.42206l0.21799,-1.25487l0.01007,-0.26429l-0.03195,-0.2547l-0.04251,-0.25522l0.00124,-0.00934l-0.00389,-0.00884l-0.0142,-0.11317l-0.04591,-0.1555l0.00013,-0.01653l-0.00827,-0.01505l-0.03435,-0.15561l-0.03066,-0.0528l-0.0095,-0.0384l-0.01024,-0.00298l-0.03534,-0.06435l-0.05657,-0.05308l0.00441,-0.04188l-0.05428,-0.0988l-0.00333,-0.01507l-0.00044,-0.00085l-0.04238,-0.0422l-0.06922,-0.11919l-0.01781,-0.07194l-0.02242,-0.04081l-0.0678,-0.07445l-0.04163,-0.08145l-0.05761,-0.07456l-0.03146,-0.07774l-0.00203,-0.02174l-0.07857,-0.07374l0.00287,-0.02732l-0.02926,-0.03786l-0.03147,-0.07774l-0.02633,-0.28247l0.12238,-0.11257l0.03601,-0.14812l0.29034,-0.15206l0.05311,-0.01457l0.0046,-0.00488l0.01908,-0.00162l0.01766,-0.00484l0.15296,-0.00966l0.15261,-0.01299l0.01842,0.00218l0.01911,-0.00121l0.00559,0.00412l1.10999,0.13068l0.35548,0.00919l0.30432,0.00002l0.04662,0.0096l0.0478,-0.00408l0.22708,0.02673l0.10079,-0.00857l0.08137,0.00958l0.08176,-0.00694l0.08813,0.01036l0.0761,0.02554l0.08136,0.00958l0.16996,0.05701l0.05933,0.03577l0.0688,0.02137l0.09127,0.05204l0.04754,-0.00489l0.06657,0.04455l0.07945,0.02664l0.01879,0.03908l0.10184,0.06813l0.04811,0.01981l0.0677,0.04779l0.07889,0.03423l0.11959,0.08811l0.03732,0.04531l0.0516,0.03453l0.03587,0.03938l0.07032,0.05182l0.03732,0.04532l0.0516,0.03453l0.07552,0.08293l0.0258,0.05046l0.04238,0.0422l0.01163,0.02002l0.02009,0.01479l0.03732,0.04532l0.0516,0.03452l0.07552,0.08294l0.0258,0.05046l0.04238,0.0422l0.13045,0.22463l0.31205,0.46862l0.02235,0.07016l0.04095,0.06422l0.03576,0.12111l0.06453,0.09692l0.02235,0.07016l0.04095,0.06422l0.05006,0.16953l0.04604,0.11375l0.09073,0.17749l0.01124,0.05982l0.03029,0.05514l0.01668,0.07558l0.04793,0.11842l0.00563,0.06035l0.02507,0.0569l0.09166,0.73046l0.02058,0.09323l-0.00172,0.02151l0.00892,0.02025l0.03508,0.27957l0.02058,0.09323l-0.007,0.08817l0.01103,0.08788l-0.01357,0.07812l0.01042,0.083l-0.00231,0.01326l0.00482,0.0128l0.01256,0.18656l-0.00209,0.00894l0.00294,0.00877l0.00459,0.16344l0.03957,0.13403l-0.0004,0.05085l0.01827,0.04857l0.01256,0.18656l-0.00209,0.00894l0.00293,0.00877l0.00505,0.17972l0.04095,0.1856l-0.00345,0.04351l0.01403,0.04205l0.00504,0.17972l0.04095,0.1856l-0.00276,0.03466l0.01249,0.03318l0.01025,0.1524l0.04289,0.19435l-0.00171,0.02151l0.00891,0.02025l0.0142,0.11317l0.02505,0.08487l0.23266,0.34939l0.08991,0.07403l0.04356,0.05979l0.05941,0.04967l0.12597,0.17588l0.55355,0.6078l0.12379,0.10195l0.04883,0.06702l0.06445,0.05736l0.08417,0.1264l0.16034,0.17606l0.0258,0.05046l0.04238,0.04219l0.01989,0.03425l0.07649,0.06299l0.05815,0.0798l0.07203,0.07172l0.13846,0.23842l0.00843,0.03405l0.02264,0.02932l0.04389,0.10844l0.07805,0.11721l0.01539,0.04833l0.03258,0.04215l0.06292,0.15548l0.00217,0.02325l0.01317,0.02066l0.05006,0.16953l0.11707,0.28927l0.00217,0.02325l0.01317,0.02066l0.05006,0.16953l0.05415,0.13378l0.00217,0.02325l0.01317,0.02066l0.05662,0.19176l-0.0003,0.03781l0.01566,0.03555l0.00865,0.06894l0.06214,0.12155l0.01124,0.05982l0.03029,0.05517l0.05033,0.22802l-0.00345,0.04351l0.01403,0.04204l0.00439,0.15666l0.06719,0.20556l0.00167,0.07726l0.02115,0.07529l-0.00544,0.25299l0.03703,0.22231l-0.00502,0.03781l0.01121,0.03692l-0.0001,0.51184l0.00607,0.21645l-0.01228,0.0448l0.00574,0.04569l-0.13863,0.79805l-0.0251,0.0507l-0.00627,0.0545l-0.07558,0.17618l-0.02327,0.02898l-0.00916,0.03391l-0.07747,0.12749l-0.01616,0.09307l-0.01013,0.02048l0.00714,0.01768l-0.07012,0.10953l-0.05676,0.11465l-0.02103,0.00686l-0.01253,0.01956l-0.02991,0.0275l-0.02561,0.05175l-0.0675,0.0759l-0.05328,0.08322l-0.04741,0.0436l-0.02297,0.0378l-0.05804,0.05573l-0.04158,0.06495l-0.07931,0.07295l-0.03301,0.03923l-0.08068,0.05827l-0.06769,0.06856l-0.45074,0.27822l-0.14225,0.13084l-0.08967,0.1066l-0.04097,0.0296l-0.00654,0.02688l-0.053,0.02775l-0.00651,0.0142l-0.01059,0.01259l-0.00724,0.01461l-0.00696,0.00228l-0.20186,0.23997l-0.04097,0.0296l-0.00654,0.02688l-0.11167,0.05848l-0.03756,0.02714l-0.00186,0.00765l-0.03177,0.01665l-0.0283,0.02044l-0.00945,-0.00068l-0.04215,0.02209l-0.03757,0.02714l-0.00186,0.00765l-0.03177,0.01664l-0.02831,0.02044l-0.00944,-0.00068l-0.04217,0.02209l-0.0995,0.07186l-0.03319,-0.00237l-0.04599,0.02409l-0.09442,0.02589l-0.04791,0.00304l-0.0438,0.0163l-0.27699,0.04143l-0.08754,-0.0047l-0.0033,0.0009l-0.15296,0.00966l-0.1526,0.01299l-0.01843,-0.00217l-0.01913,0.0012l-0.00559,-0.00412l-0.02362,-0.00278l-0.11911,0.00544l-0.0976,0.01459l-0.10709,-0.00577l-0.10676,0.00909l-0.20118,-0.02368l-0.03189,0.00477l-0.1071,-0.00577l-0.10675,0.00907l-0.02494,-0.00293l-0.03189,0.00476l-0.02612,-0.00141l-0.02461,0.00735l-0.18256,0.01553l-0.08137,-0.00958l-0.08176,0.00694l-0.15712,-0.0185l-0.03188,0.00477l-0.02613,-0.00141l-0.02462,0.00735l-0.18255,0.01553l-0.08137,-0.00958l-0.08176,0.00694l-0.37519,-0.04417l-0.1606,0.00732l-0.06531,-0.01032l-0.06615,0.00563l-5.41982,-0.63808l-0.0994,-0.03335l-0.10476,-0.01918l-0.25178,-0.10368l-0.01449,-0.01024l-0.04036,-0.00475l-0.00676,0.00267l-0.01795,-0.00558l-0.01842,-0.00217l-0.14207,-0.04767l-0.14354,-0.04457l-0.0153,-0.00872l-0.01776,-0.00595l-0.00276,-0.00574l-0.04602,-0.02625l-0.22693,-0.21295l0.02837,-0.2692l-0.00044,-0.0009l0.00059,-0.00064l0.01769,-0.16782c-0.15534,-0.05841 -0.27611,-0.16358 -0.3399,-0.29093z" fill="url(#color-4)" stroke="none" stroke-width="0.5" stroke-linecap="butt"/><path d="M186.12072,61.12858l-0.00798,-0.00402l-0.00388,-0.01461c-0.04371,-0.07233 -0.06701,-0.15435 -0.06385,-0.24076l0.00617,-0.16899l0.02059,-0.0601l0.00227,-0.06242l0.02539,-0.07408l0.01367,-0.37474l-0.02753,-0.20176l0.00589,-0.03617l-0.00946,-0.03568l0.00017,-0.00452l-0.00581,-0.01479l-0.04207,-0.05822l-0.02477,-0.06789l-0.17454,-0.31034l-0.00832,-0.03586l-0.02268,-0.03137l-0.05098,-0.13976l-0.03473,-0.04581l-0.02535,-0.06447l-0.04207,-0.05822l-0.11206,-0.30722l-0.00462,-0.08145l-0.02112,-0.07964l0.00142,-0.03899l-0.01995,-0.0752l0.00227,-0.06242l-0.01618,-0.061l0.0007,-0.01911l-0.0086,-0.02359l-0.00462,-0.08145l-0.02113,-0.07966l0.02342,-0.64217l0.02059,-0.0601l0.00228,-0.06242l0.02538,-0.07408l0.00513,-0.14037l0.02059,-0.0601l0.00228,-0.06242l0.042,-0.12257l0.04391,-0.15621l0.01772,-0.02855l0.00415,-0.03187l0.07629,-0.17112l0.03857,-0.13719l0.01771,-0.02855l0.00415,-0.03187l0.07284,-0.16341l0.03908,-0.16273l0.03922,-0.06854l0.02265,-0.07343l0.10342,-0.15822l0.07336,-0.18963l0.03031,-0.0404l0.01419,-0.04603l0.37093,-0.56748l0.16392,-0.36768l0.03812,-0.04621l0.0217,-0.05291l0.10266,-0.13174l0.06857,-0.12968l0.0304,-0.03257l0.01596,-0.03892l0.12932,-0.16595l0.02354,-0.01826l0.01344,-0.02422l0.07726,-0.07972l0.14402,-0.27241l0.01594,-0.01705l0.00644,-0.02085l0.45796,-0.70064l0.10409,-0.23347l0.08654,-0.33447l0.02314,-0.03893l0.00703,-0.04297l0.14821,-0.30656l0.04499,-0.30542l0.01197,-0.02573l-0.00059,-0.02757l0.09219,-0.32798l0.0897,-0.37351l0.05165,-0.39668l0.04265,-1.16915l-0.02388,-0.24319l-0.06122,-0.23082l-0.07097,-0.23042l-0.00003,-0.00868l-0.00468,-0.00777l-0.0272,-0.10258l-0.06158,-0.13868l-0.00195,-0.01516l-0.00947,-0.01311l-0.05099,-0.13976l-0.03472,-0.04581l-0.01353,-0.03441l-0.00977,-0.00187l-0.04047,-0.056l-0.05853,-0.04388l-0.00119,-0.03877l-0.06215,-0.08599l-0.00493,-0.01354l-0.00051,-0.00074l-0.04414,-0.03509l-0.07841,-0.10341l-0.02535,-0.06447l-0.02567,-0.03554l-0.0715,-0.06249l-0.04838,-0.07114l-0.06217,-0.06347l-0.03859,-0.0686l-0.00458,-0.01977l-0.0813,-0.06095l-0.00078,-0.02529l-0.03158,-0.03223l-0.03859,-0.06861l-0.05954,-0.25677l0.09811,-0.1136l0.01446,-0.1389l0.24717,-0.16408l0.04686,-0.01786l0.00361,-0.00485l0.01728,-0.00311l0.01559,-0.00594l0.13905,-0.02185l0.13831,-0.02486l0.01716,0.00042l0.01738,-0.00274l0.00564,0.0033l1.03416,0.02556l0.32711,-0.02177l0.27904,-0.0258l0.04396,0.00484l0.04331,-0.0078l0.21157,0.00522l0.09135,-0.01642l0.0758,0.00188l0.0741,-0.01332l0.08211,0.00203l0.07299,0.01695l0.0758,0.00188l0.16299,0.03785l0.05888,0.02775l0.06575,0.01375l0.09021,0.03996l0.04297,-0.00851l0.06663,0.03518l0.07618,0.0177l0.02213,0.03423l0.10191,0.05384l0.0466,0.01407l0.06807,0.03808l0.07662,0.02469l0.12069,0.07064l0.03989,0.03838l0.05165,0.02729l0.03782,0.03306l0.07098,0.04155l0.0399,0.03838l0.05164,0.02728l0.07964,0.06962l0.02998,0.04409l0.04415,0.03509l0.01317,0.01739l0.02026,0.01185l0.03989,0.03838l0.05165,0.02728l0.07964,0.06962l0.02998,0.04409l0.04415,0.03509l0.14776,0.1949l0.34484,0.40319l0.02929,0.06244l0.0456,0.05541l0.04797,0.10801l0.07132,0.08338l0.02929,0.06244l0.04561,0.05541l0.06714,0.15121l0.05647,0.10041l0.10543,0.15504l0.01781,0.0539l0.03468,0.048l0.02477,0.0679l0.05878,0.10451l0.01273,0.05485l0.03012,0.05005l0.17557,0.66199l0.03055,0.08376l0.00114,0.01987l0.01073,0.01783l0.0672,0.25338l0.03056,0.08375l0.00462,0.08145l0.02113,0.07966l-0.00266,0.07278l0.01995,0.0752l-0.00046,0.01236l0.00603,0.01133l0.03489,0.17l-0.00079,0.00838l0.00378,0.0078l0.02469,0.14947l0.05308,0.11952l0.006,0.04666l0.02284,0.04299l0.03489,0.16999l-0.00078,0.00838l0.00378,0.0078l0.02715,0.16437l0.06081,0.1667l0.0023,0.04018l0.01813,0.03736l0.02715,0.16437l0.06081,0.1667l0.00182,0.03202l0.0156,0.02936l0.02851,0.13886l0.06368,0.17458l0.00114,0.01987l0.01072,0.01783l0.02721,0.10258l0.03361,0.07567l0.25711,0.30061l0.09172,0.06026l0.04743,0.05111l0.0607,0.04051l0.13754,0.15059l0.58373,0.51031l0.12629,0.08297l0.05318,0.05732l0.06629,0.04713l0.09303,0.10875l0.16908,0.14781l0.02998,0.04409l0.04415,0.03509l0.02254,0.02973l0.07803,0.05126l0.06333,0.06824l0.07504,0.05965l0.15683,0.20685l0.01199,0.03048l0.02443,0.02495l0.05384,0.09571l0.08625,0.10085l0.02018,0.043l0.03516,0.0359l0.07717,0.1372l0.0049,0.02113l0.01466,0.01783l0.06715,0.15121l0.14358,0.2553l0.0049,0.02113l0.01466,0.01783l0.06715,0.15121l0.06641,0.11808l0.0049,0.02113l0.01466,0.01783l0.07594,0.17101l0.00446,0.03469l0.01881,0.03127l0.01656,0.06248l0.07221,0.10617l0.0178,0.0539l0.03469,0.048l0.07471,0.20482l0.00228,0.04018l0.01813,0.03735l0.02366,0.14327l0.08736,0.18278l0.01123,0.0707l0.02882,0.06723l0.02672,0.23244l0.06182,0.2007l0.00013,0.03511l0.0149,0.0329l0.06405,0.46933l0.03269,0.19796l-0.00564,0.04212l0.01098,0.04143l-0.02712,0.74353l-0.01666,0.04863l0.00107,0.05051l-0.04722,0.16798l-0.01772,0.02854l-0.00415,0.03187l-0.05506,0.12349l-0.00316,0.08672l-0.00673,0.01963l0.00876,0.0156l-0.05059,0.10638l-0.03768,0.10995l-0.01843,0.00808l-0.00903,0.019l-0.02397,0.02775l-0.01701,0.04962l-0.05238,0.07533l-0.03842,0.08083l-0.038,0.04401l-0.01633,0.03661l-0.04624,0.05603l-0.02999,0.06308l-0.06359,0.07364l-0.02535,0.03877l-0.06668,0.06028l-0.05348,0.06862l-0.37845,0.2934l-0.11404,0.13206l-0.06885,0.10534l-0.03387,0.0306l-0.00263,0.02522l-0.04514,0.02996l-0.00418,0.01359l-0.00814,0.01244l-0.00482,0.01403l-0.00609,0.00267l-0.15503,0.23717l-0.03387,0.03062l-0.00263,0.02521l-0.09507,0.0631l-0.03104,0.02806l-0.00075,0.00717l-0.02705,0.01795l-0.02339,0.02115l-0.00874,0.00017l-0.03589,0.02381l-0.03104,0.02806l-0.00076,0.00717l-0.02704,0.01795l-0.02339,0.02115l-0.00874,0.00017l-0.0359,0.02381l-0.08222,0.07433l-0.03073,0.00064l-0.03915,0.02599l-0.08334,0.03177l-0.04356,0.00684l-0.0381,0.01866l-0.2488,0.06152l-0.08086,0.00311l-0.00292,0.00112l-0.13905,0.02186l-0.1383,0.02485l-0.01716,-0.00043l-0.01739,0.00275l-0.00563,-0.00329l-0.02201,-0.00055l-0.10853,0.01509l-0.08766,0.02167l-0.09893,0.0038l-0.09676,0.01739l-0.18744,-0.00463l-0.02864,0.00707l-0.09893,0.0038l-0.09675,0.0174l-0.02323,-0.00058l-0.02864,0.00708l-0.02413,0.00092l-0.02165,0.00883l-0.16545,0.02973l-0.0758,-0.00188l-0.0741,0.01332l-0.14639,-0.00363l-0.02864,0.00708l-0.02413,0.00092l-0.02165,0.00883l-0.16544,0.02974l-0.0758,-0.00188l-0.0741,0.01332l-0.34956,-0.00865l-0.14635,0.02036l-0.06117,-0.00393l-0.05995,0.01078l-5.04961,-0.12481l-0.09531,-0.02214l-0.09847,-0.00869l-0.24385,-0.07369l-0.01458,-0.00815l-0.03762,-0.00094l-0.00587,0.00304l-0.01715,-0.00358l-0.01716,-0.00043l-0.13624,-0.03164l-0.1372,-0.02868l-0.01511,-0.00669l-0.01703,-0.00395l-0.00325,-0.00503l-0.04547,-0.02015l-0.23477,-0.176l-0.00772,-0.24925l-0.00051,-0.00079l0.00047,-0.00064l-0.00482,-0.15538c-0.14975,-0.04036 -0.27366,-0.12654 -0.34811,-0.23789z" fill="url(#color-5)" stroke="none" stroke-width="0.5" stroke-linecap="butt"/><path d="M284.07207,123.9526l-13.47354,-0.17578" fill="none" stroke="#666666" stroke-width="5" stroke-linecap="round"/><path d="M264.91692,136.60911l21.4278,0.17578" fill="none" stroke="#666666" stroke-width="5" stroke-linecap="round"/><path d="M288.61737,150.4961h-28.73274" fill="none" stroke="#666666" stroke-width="5" stroke-linecap="round"/><path d="M291.05234,164.55889l-36.2,0.17578" fill="none" stroke="#666666" stroke-width="5" stroke-linecap="round"/><path d="M247.775,173.44683l32.56463,-77.13333l15.58537,79.33333" fill="none" stroke="url(#color-6)" stroke-width="5" stroke-linecap="round"/><path d="M291.36667,98.20194c0,6.42823 -5.29796,11.63934 -11.83333,11.63934c-6.53537,0 -11.83333,-5.21111 -11.83333,-11.63934c0,-6.42823 5.29796,-11.63934 11.83333,-11.63934c6.53537,0 11.83333,5.21111 11.83333,11.63934z" fill="url(#color-7)" stroke="url(#color-8)" stroke-width="2.5" stroke-linecap="butt"/><path d="M171.50034,180.21186v-7.07226h137.74932v7.07226z" fill="#312d29" stroke="url(#color-9)" stroke-width="0" stroke-linecap="butt"/><path d="M174.32666,171.83633v-75.27368c0,0 20.78146,0 31.31541,0c10.72844,0 32.48244,0 32.48244,0v75.27368c0,0 -9.62345,3.59201 -31.89343,4.0077c-23.38487,0.4365 -31.90442,-4.0077 -31.90442,-4.0077z" fill="url(#color-10)" stroke="none" stroke-width="0" stroke-linecap="butt"/><path d="M173.93765,97.126v-16.70732h63.79785v16.70732c0,0 -8.65642,3.97004 -30.9264,4.0623c-23.38487,0.09688 -32.87145,-4.0623 -32.87145,-4.0623z" fill="url(#color-11)" stroke="none" stroke-width="0" stroke-linecap="butt"/><path d="M238.31901,80.71044c0,3.06154 -14.36872,4.94341 -32.09343,4.94341c-17.72472,0 -32.09343,-1.88187 -32.09343,-4.94341c0,-3.06154 14.36872,-5.54341 32.09343,-5.54341c17.72472,0 32.09343,2.48187 32.09343,5.54341z" fill="url(#color-12)" stroke="none" stroke-width="0" stroke-linecap="butt"/><path d="M180.03919,80.62194c0,0 0.27112,-6.54174 1.08146,-10.38605c0.29678,-1.4079 3.60741,-2.65864 4.23461,-4.72813c0.29398,-0.96999 -0.66442,-1.54737 -0.67958,-2.5304c-0.03995,-2.59045 0.59052,-2.2484 0.59052,-2.2484l13.64254,0.0315c0,0 0.31754,-0.81958 0.46052,2.21683c0.03381,0.71821 -1.08238,1.87498 -0.87495,2.60522c0.49979,1.75943 3.90032,3.36172 4.17494,4.59322c0.84008,3.76741 1.54074,10.44624 1.54074,10.44624c0,0 -5.88996,1.71443 -12.02652,1.59251c-5.96994,-0.11861 -12.14423,-1.59251 -12.14423,-1.59251z" fill="url(#color-13)" stroke="none" stroke-width="0" stroke-linecap="butt"/><path d="M219.33427,89.42721c6.00707,0.00627 12.82367,-0.03542 12.82367,-0.03542c0,0 8.70302,-0.31469 8.77925,8.84478c-0.32504,8.96069 -8.8305,9.46415 -8.8305,9.46415c0,0 -7.78529,0.17075 -12.81027,0.1655c-7.24042,-0.00756 -13.00714,-1.3829 -13.09101,-9.23319c-0.08752,-8.19256 5.88844,-9.21338 13.12884,-9.20582z" fill="url(#color-14)" stroke="none" stroke-width="0" stroke-linecap="butt"/><path d="M231.40388,98.76667c0,-5.38083 2.13255,-9.74286 4.76318,-9.74286c2.63063,0 4.76318,4.36202 4.76318,9.74286c0,5.38083 -2.13255,9.74286 -4.76318,9.74286c-2.63063,0 -4.76318,-4.36202 -4.76318,-9.74286z" fill="url(#color-15)" stroke="url(#color-16)" stroke-width="1.5" stroke-linecap="butt"/><path d="M239.42434,145.16854c0,12.43105 0.17643,26.53718 0.17643,26.53718c0,0 0.11245,4.45869 -32.99656,4.65536c-32.39201,-0.63457 -33.18606,-4.68364 -33.18606,-4.68364c0,0 -0.6466,-16.11016 -0.6466,-26.50889c0,-14.98335 4.94977,-26.92288 33.3264,-27.12975c29.61384,-0.2159 33.3264,12.1464 33.3264,27.12975z" fill="url(#color-17)" stroke="none" stroke-width="0" stroke-linecap="butt"/><path d="M230.30126,155.57315c0,8.69916 0.12509,19.25116 0.12509,19.25116c0,0 -0.06314,1.69914 -23.53545,1.83676c-22.96399,-0.44407 -23.58558,-1.90333 -23.58558,-1.90333c0,0 -0.25689,-11.90764 -0.25689,-19.18459c0,-10.48524 3.50909,-18.84043 23.62642,-18.9852c20.99444,-0.15109 23.62642,8.49996 23.62642,18.9852z" fill="url(#color-18)" stroke="none" stroke-width="0" stroke-linecap="butt"/><g><path d="M310.95322,98.69068l-62.51177,-0.78135" fill="none" stroke="url(#color-19)" stroke-width="3.5" stroke-linecap="round"/><path d="M279.47628,129.13444l0.44213,-61.66888" fill="none" stroke="url(#color-20)" stroke-width="3.5" stroke-linecap="round"/><path d="M257.60611,76.48116l44.18247,43.63769" fill="none" stroke="url(#color-21)" stroke-width="3.5" stroke-linecap="round"/><path d="M302.01643,76.71496l-44.63817,43.17009" fill="none" stroke="url(#color-22)" stroke-width="3.5" stroke-linecap="round"/><path d="M279.50987,130.55211c-17.79707,-0.10345 -32.14052,-14.62708 -32.03698,-32.43942c0.10354,-17.81235 14.61486,-32.16825 32.41193,-32.0648c17.79707,0.10345 32.14053,14.62709 32.03698,32.43943c-0.10354,17.81235 -14.61486,32.16825 -32.41193,32.06479z" fill="none" stroke="url(#color-23)" stroke-width="3.5" stroke-linecap="butt"/><path d="M279.65674,105.28599c-3.81912,-0.0222 -6.89694,-3.16792 -6.87452,-7.02618c0.02242,-3.85826 3.13662,-6.96799 6.95573,-6.94579c3.81912,0.0222 6.89694,3.16792 6.87451,7.02618c-0.02242,3.85826 -3.13661,6.968 -6.95573,6.9458z" fill="url(#color-24)" stroke="url(#color-25)" stroke-width="1" stroke-linecap="butt"/></g><path d="M237.88506,98.64835l36.93875,16.71913" fill="none" stroke="url(#color-26)" stroke-width="6" stroke-linecap="round"/><path d="M285.50019,120.53341c-2.68311,5.75463 -4.2852,2.70594 -7.37886,1.28169c-3.09366,-1.42426 -4.57509,-4.20279 -3.67286,-6.36967c1.73627,-4.16993 4.30919,-1.96097 7.40285,-0.53673c3.09366,1.42426 6.33033,-0.1264 3.64887,5.6247z" fill="url(#color-27)" stroke="url(#color-28)" stroke-width="0" stroke-linecap="butt"/></g></g></svg>