<svg version="1.1" xmlns="http://www.w3.org/2000/svg" xmlns:xlink="http://www.w3.org/1999/xlink" width="73.06547" height="105.36157" viewBox="0,0,73.06547,105.36157"><defs><radialGradient cx="238.52449" cy="177.75476" r="22.57159" gradientUnits="userSpaceOnUse" id="color-1"><stop offset="0" stop-color="#3c3c3c"/><stop offset="1" stop-color="#939393"/></radialGradient><linearGradient x1="239.74788" y1="156.06832" x2="239.74788" y2="162.91937" gradientUnits="userSpaceOnUse" id="color-2"><stop offset="0" stop-color="#696969"/><stop offset="1" stop-color="#a0a0a0"/></linearGradient><radialGradient cx="235.71183" cy="133.41612" r="13.11833" gradientUnits="userSpaceOnUse" id="color-3"><stop offset="0" stop-color="#dcdcdc"/><stop offset="1" stop-color="#a0a0a0"/></radialGradient><radialGradient cx="240.03559" cy="142.12639" r="9.85359" gradientUnits="userSpaceOnUse" id="color-4"><stop offset="0" stop-color="#c5dfff"/><stop offset="1" stop-color="#219cff"/></radialGradient><radialGradient cx="230.76045" cy="135.29438" r="10.07074" gradientUnits="userSpaceOnUse" id="color-5"><stop offset="0" stop-color="#303030"/><stop offset="1" stop-color="#292929"/></radialGradient><radialGradient cx="247.18855" cy="132.11453" r="2.65078" gradientUnits="userSpaceOnUse" id="color-6"><stop offset="0" stop-color="#787878"/><stop offset="1" stop-color="#292929"/></radialGradient><radialGradient cx="236.03625" cy="134.27956" r="4.17314" gradientUnits="userSpaceOnUse" id="color-7"><stop offset="0" stop-color="#a7a7a7"/><stop offset="1" stop-color="#292929"/></radialGradient></defs><g transform="translate(-200.54259,-129.64767)"><g data-paper-data="{&quot;isPaintingLayer&quot;:true}" fill-rule="nonzero" stroke-linejoin="miter" stroke-miterlimit="10" stroke-dasharray="" stroke-dashoffset="0" style="mix-blend-mode: normal"><path d="M223.5568,200.32636v-45.14319h29.93538v45.14319z" fill="url(#color-1)" stroke="#ed6b00" stroke-width="0" stroke-linecap="butt"/><g stroke="#000000" stroke-width="0" stroke-linecap="butt"><path d="M265.62115,185.62291c0,0 -1.0775,-2.82312 -3.29864,-5.54059c-0.53413,-0.65349 -2.13968,-2.89719 -2.69438,-3.56338c-1.31278,-1.5767 -2.66577,-3.09591 -3.44904,-4.08129c-1.68475,-2.11934 -3.76186,-4.85038 -3.76186,-4.85038c0,0 -3.94606,-5.44575 -3.22654,-6.1803c4.20811,-4.29589 7.43724,2.56754 7.43724,2.56754c0,0 3.02465,3.85469 4.81585,6.10797c0.72899,0.91702 0.83978,1.95888 1.91795,3.42076c0.48332,0.65532 2.18654,3.73598 3.30774,5.57128c1.86674,3.05573 3.29544,4.71568 3.29544,4.71568z" data-paper-data="{&quot;index&quot;:null}" fill="#bdbdbd"/><path d="M272.31776,187.65671c-0.19035,0.08487 1.89119,3.20713 1.11697,3.62523c-0.38081,0.20564 -1.27287,-2.0806 -2.20982,-2.4934c-0.49595,-0.21852 2.48763,3.49981 1.26445,3.66506c-0.41994,0.05673 -1.92421,-3.04001 -2.69751,-3.5356c-0.41397,-0.26529 2.7156,4.46109 1.91932,4.61212c-0.47269,0.08968 -1.69287,-2.82006 -2.67558,-3.87219c-0.47875,-0.51257 1.65182,3.50461 1.01459,3.50554c-0.39005,0.00055 -2.6619,-3.81771 -2.71946,-3.842c-0.32357,-0.1365 0.42864,2.54604 -0.12954,2.1224c-1.02871,-0.78078 -0.95614,-2.47943 -1.00924,-4.00237c-0.03101,-0.8898 -0.60326,-1.92256 -0.60326,-1.92256c0,0 1.13941,-1.22175 1.87277,-1.53118c0.71407,-0.30127 2.47101,-0.30152 2.47101,-0.30152c0,0 2.7885,3.79061 2.38526,3.97039z" data-paper-data="{&quot;index&quot;:null}" fill="#777777"/></g><g><path d="M254.28415,226.82452c0,0 -8.5515,-24.34161 -10.6089,-28.33205c-0.67275,-1.30481 -3.6792,-0.577 -3.6792,-0.577c0,0 -4.03198,-3.30004 -0.53094,-4.25416c2.95892,-0.80637 10.0503,-0.47665 10.0503,-0.47665l12.49026,31.53558z" data-paper-data="{&quot;index&quot;:null}" fill="#494949" stroke="#000000" stroke-width="0" stroke-linecap="butt"/><path d="M269.40348,229.9647c-0.57191,0.15586 -2.54748,0.7084 -4.55642,1.17238c-1.22138,0.2821 -1.99765,-0.09593 -2.93576,0.01168c-1.18101,0.13547 -2.77718,0.98535 -3.64689,1.02387c-1.60257,0.07098 -2.49559,-0.12607 -2.49559,-0.12607c0,0 -0.52926,-0.91856 -0.69251,-1.45492c-0.21994,-0.7226 -0.50852,-2.49096 -0.50852,-2.49096c0,0 5.69401,-1.67567 7.98012,-2.09106c1.35276,-0.24579 4.26143,-0.49094 4.26143,-0.49094c0,0 1.57026,0.21012 1.88868,0.56616c0.38999,0.43605 1.36524,1.68912 1.36524,1.68912c0,0 0.138,1.97329 -0.6598,2.19072z" data-paper-data="{&quot;index&quot;:null}" fill="#141415" stroke="#000000" stroke-width="0" stroke-linecap="butt"/><path d="M268.4651,227.55171c-0.23948,0.06527 1.09881,1.36061 -2.17547,1.9746c-3.09198,0.5798 -2.99122,-0.41639 -4.07796,-0.20377c-2.27242,0.4446 -2.34015,1.25447 -3.34487,1.36972c-0.34991,0.04014 -0.52479,0.0243 -1.97693,-0.46698c-0.9987,-0.33787 -1.10269,-1.51458 -1.84649,-1.96287c-1.08649,-0.65482 -1.27586,-1.60687 -1.27586,-1.60687l-0.87503,-2.92041c0,0 1.04948,2.00129 2.07567,2.5761c0.91815,0.51429 2.23044,-0.62727 2.69707,-0.75459c0.8171,-0.22293 -1.52389,-2.97194 -0.73783,-3.16725c0.42268,-0.10502 3.53022,-1.20468 3.53022,-1.20468c0,0 1.05996,3.42159 1.29002,3.37977c1.35276,-0.24579 4.6124,-0.58659 4.6124,-0.58659c0,0 1.57026,0.21013 1.88869,0.56616c0.38999,0.43605 1.38631,2.68884 1.38631,2.68884c0,0 -0.37213,0.10142 -1.16993,0.31884z" data-paper-data="{&quot;index&quot;:null}" fill="#252527" stroke="#000000" stroke-width="0" stroke-linecap="butt"/><path d="M262.77209,224.92628l-2.2869,1.75435" fill="none" stroke="#ffffff" stroke-width="0.5" stroke-linecap="round"/><path d="M262.45274,226.52149l2.07425,-2.07346" fill="none" stroke="#ffffff" stroke-width="0.5" stroke-linecap="round"/><path d="M265.6437,224.39506l-1.02132,1.7865" fill="none" stroke="#ffffff" stroke-width="0.5" stroke-linecap="round"/><path d="M258.29502,223.2557l2.04209,-0.80787" fill="none" stroke="#969696" stroke-width="0.5" stroke-linecap="round"/><path d="M260.76241,223.08601l-1.77624,0.86111" fill="none" stroke="#969696" stroke-width="0.5" stroke-linecap="round"/></g><g><path d="M217.36263,224.36606l12.85711,-31.38781c0,0 7.09475,-0.24702 10.04406,0.5938c3.48968,0.99486 -0.58051,4.24767 -0.58051,4.24767c0,0 -2.99776,-0.76283 -3.68568,0.53406c-2.10379,3.96619 -10.9385,28.20642 -10.9385,28.20642z" fill="#494949" stroke="#000000" stroke-width="0" stroke-linecap="butt"/><path d="M230.80219,233.45572c0,0 -0.90284,1.76007 -1.69806,1.53336c-0.57005,-0.16251 -2.54654,-0.71179 -4.50575,-1.3541c-1.19116,-0.39051 -1.6599,-1.11562 -2.51835,-1.50888c-1.08074,-0.4951 -2.88638,-0.59362 -3.65057,-1.01061c-1.40815,-0.76837 -2.0704,-1.39904 -2.0704,-1.39904c0,0 0.02231,-1.05988 0.16011,-1.60334c0.18563,-0.73215 0.85359,-2.39476 0.85359,-2.39476c0,0 5.73964,1.51197 7.91092,2.33928c1.2848,0.48955 3.90075,1.78463 3.90075,1.78463c0,0 1.23504,0.99222 1.32334,1.46166c0.10814,0.57493 0.29439,2.15182 0.29439,2.15182z" data-paper-data="{&quot;index&quot;:null}" fill="#141415" stroke="#000000" stroke-width="0" stroke-linecap="butt"/><path d="M230.71566,232.77112c0,0 -0.37092,-0.10575 -1.16613,-0.33245c-0.2387,-0.06805 0.23636,1.73284 -2.88328,0.56424c-2.94596,-1.10355 -2.34432,-1.90391 -3.38433,-2.28422c-2.17467,-0.79523 -2.65165,-0.13722 -3.57106,-0.55842c-0.3202,-0.14669 -0.46166,-0.25071 -1.45017,-1.42243c-0.67984,-0.80583 -0.16003,-1.86662 -0.56461,-2.63507c-0.59098,-1.12249 -0.26048,-2.03519 -0.26048,-2.03519l0.76213,-2.9519c0,0 -0.13733,2.25561 0.44345,3.27844c0.51963,0.91513 2.23327,0.61717 2.69844,0.74964c0.81455,0.23198 0.23352,-3.33169 1.00726,-3.09214c0.41605,0.12881 3.64429,0.79553 3.64429,0.79553c0,0 -0.86317,3.47644 -0.64467,3.55969c1.28479,0.48955 4.25059,1.88436 4.25059,1.88436c0,0 1.23505,0.99221 1.32335,1.46165c0.10815,0.57493 -0.20479,3.01823 -0.20479,3.01823z" data-paper-data="{&quot;index&quot;:null}" fill="#252527" stroke="#000000" stroke-width="0" stroke-linecap="butt"/><path d="M226.03602,227.24649l-2.8647,0.31813" fill="none" stroke="#ffffff" stroke-width="0.5" stroke-linecap="round"/><path d="M227.78521,227.74518l-2.84781,0.70122" fill="none" stroke="#ffffff" stroke-width="0.5" stroke-linecap="round"/><path d="M226.96993,229.27803l1.79829,-1.00042" fill="none" stroke="#ffffff" stroke-width="0.5" stroke-linecap="round"/><path d="M223.06903,223.50058l2.16552,0.36517" fill="none" stroke="#969696" stroke-width="0.5" stroke-linecap="round"/><path d="M225.2683,224.63191l-1.96554,-0.18208" fill="none" stroke="#969696" stroke-width="0.5" stroke-linecap="round"/></g><path d="M235.9198,162.91937v-6.85104h7.65615v6.85104z" fill="url(#color-2)" stroke="#000000" stroke-width="0" stroke-linecap="butt"/><path d="M252.80945,143.64573c0,7.73092 -5.73774,13.99807 -12.8156,13.99807c-7.07786,0 -12.8156,-6.26715 -12.8156,-13.99807c0,-7.73092 5.73774,-13.99806 12.8156,-13.99806c7.07786,0 12.8156,6.26714 12.8156,13.99806z" fill="url(#color-3)" stroke="none" stroke-width="0" stroke-linecap="butt"/><path d="M229.6398,193.59141c0,0 0.16709,-5.5597 -0.35268,-10.94382c-0.35317,-3.65847 -1.40473,-6.95919 -1.56162,-9.45339c-0.29447,-4.68133 -0.2105,-13.38223 -0.2105,-13.38223c0,0 3.69178,-0.58477 5.4694,-0.21857c2.26281,0.46615 7.00656,2.78867 7.00656,2.78867c0,0 3.67689,-2.17061 5.59031,-2.58687c2.01891,-0.43921 6.22369,0.01677 6.22369,0.01677c0,0 -0.06905,9.21711 -0.22689,12.65629c-0.13965,3.04285 -0.88957,6.36811 -1.18346,10.87293c-0.3029,4.64296 -0.14784,10.42155 -0.14784,10.42155c0,0 -2.75697,-0.76932 -5.57187,-0.83754c-1.27833,-0.03098 -1.79126,1.00612 -2.99851,1.16532c-0.96496,0.12724 -2.63623,-0.61291 -3.56107,-0.64966c-0.69915,-0.02778 -2.04377,-0.5306 -2.53801,-0.53471c-0.99795,-0.0083 -1.61572,0.86529 -2.77345,1.02464c-1.34484,0.1851 -3.1641,-0.33939 -3.1641,-0.33939z" fill="#d0d0d0" stroke="#292e32" stroke-width="0" stroke-linecap="butt"/><path d="M242.7359,170.5071l-0.12126,-5.82045l7.63934,0.36378v5.21415z" fill="#f200ff" stroke="none" stroke-width="0" stroke-linecap="butt"/><g stroke="#000000" stroke-width="0" stroke-linecap="butt"><path d="M205.0468,180.78927c0,0 1.69668,-1.41039 3.93972,-4.20164c1.3472,-1.67646 3.40241,-4.53612 3.97915,-5.11353c1.28656,-1.2881 1.44513,-2.37399 2.31291,-3.16856c2.13225,-1.95238 5.73424,-5.3024 5.73424,-5.3024c0,0 4.24739,-6.70773 9.1918,-0.86211c0.78934,0.9332 -4.44241,5.80098 -4.44241,5.80098c0,0 -2.47607,2.39028 -4.48157,4.22661c-0.93245,0.85376 -2.53759,2.133 -4.09815,3.48397c-0.65937,0.57082 -2.57723,2.56034 -3.2125,3.12279c-2.64178,2.33901 -3.96775,5.08303 -3.96775,5.08303z" fill="#bdbdbd"/><path d="M202.11902,184.52896c-0.46044,-0.29411 2.85906,-3.64409 2.85906,-3.64409c0,0 2.02734,0.44392 2.84318,0.94643c0.83791,0.5161 2.11983,2.1105 2.11983,2.1105c0,0 -0.68806,0.96005 -0.74776,1.90386c-0.10219,1.61541 -0.06411,3.45043 -1.27216,4.02575c-0.65547,0.31218 0.28462,-2.36693 -0.09242,-2.30262c-0.06709,0.01144 -2.79117,3.52147 -3.24123,3.42239c-0.73524,-0.16191 1.83118,-3.92033 1.26497,-3.49303c-1.16224,0.87712 -2.64839,3.681 -3.1914,3.46574c-0.91476,-0.36262 2.82346,-4.6273 2.33866,-4.4481c-0.90561,0.33476 -2.72462,3.26694 -3.20766,3.10021c-1.407,-0.48562 2.13568,-3.70903 1.55755,-3.60057c-1.09224,0.2049 -2.18304,2.42482 -2.61692,2.10871c-0.88215,-0.64267 1.60366,-3.45636 1.38631,-3.5952z" data-paper-data="{&quot;index&quot;:null}" fill="#777777"/></g><g stroke-linecap="butt"><path d="M252.83393,144.85205c0,3.74486 0.0384,8.21376 -9.59547,8.69146c-10.76272,0.53367 -10.10384,-4.9466 -10.10384,-8.69146c0,-3.74486 4.40985,-6.78067 9.84967,-6.78067c5.43982,0 9.84967,3.03581 9.84967,6.78067z" data-paper-data="{&quot;index&quot;:null}" fill="url(#color-4)" stroke="#ed6b00" stroke-width="0"/><path d="M233.45085,135.30391c-0.16984,0.01553 -0.60661,0.06221 -1.07903,0.1438c-0.52185,0.20742 -1.13106,0.41772 -1.59752,0.64771c-0.28909,0.89276 0.78709,1.80702 -0.65422,2.4752c-2.45813,1.13958 -1.71655,-2.03888 -0.89769,-3.03685c1.27069,-1.10653 3.14359,-1.2394 4.75566,-1.549c2.22048,-0.42645 4.38435,-1.08334 6.57971,-1.21737c0.08249,-0.08622 0.19535,-0.14411 0.32353,-0.15569l0.58612,-0.0529c0.29539,-0.07774 0.61637,-0.15861 0.95355,-0.23507c0.87645,-0.27394 1.93099,-0.41625 2.91353,-0.50866c0.4818,-0.09462 0.9333,-0.1389 1.30669,-0.10536c0.27388,-0.02025 0.5286,-0.03932 0.7561,-0.05986l0.61787,-0.05577c0.28142,-0.0254 0.53014,0.18214 0.55554,0.46356c0.0226,0.25047 -0.13931,0.47504 -0.37361,0.53931l-0.32968,0.09745c0.145,0.12181 0.27656,0.26112 0.39244,0.4197l0.23414,-0.11908l0.29765,0.58522c0.03177,0.05903 0.05238,0.12532 0.05879,0.19629c0.0254,0.28142 -0.18214,0.53014 -0.46355,0.55553c-0.08558,0.00772 -0.16814,-0.00609 -0.24232,-0.03698l-0.50702,-0.19878l0.00585,-0.01492l-0.04787,-0.00377c-0.36209,-0.22374 -0.73047,-0.39249 -1.09838,-0.50678c-0.55947,-0.02006 -1.148,-0.08122 -1.74789,-0.1302c-1.01464,0.1745 -1.9334,0.80247 -2.5904,1.87097c0,0 -0.26893,0.43524 -0.70416,0.1663c-0.43523,-0.26893 -0.1663,-0.70417 -0.1663,-0.70417c0.0575,-0.09265 0.11686,-0.18277 0.17799,-0.27034l-0.28392,0.09053c-0.03801,0.01299 -0.07817,0.02169 -0.11996,0.02546c-0.28142,0.0254 -0.53014,-0.18214 -0.55553,-0.46356c-0.01286,-0.14243 0.03395,-0.27647 0.11981,-0.37743c-0.2451,0.00049 -0.4766,0.01384 -0.6735,0.06241c-1.37524,0.33924 -3.48763,0.45199 -5.48058,0.75785c0.01121,0.24126 -0.14794,0.45435 -0.37516,0.51668l-0.59763,0.17665l-0.00571,-0.01931l-0.00747,0.00194z" fill="url(#color-5)" stroke="none" stroke-width="0.5"/><path d="M248.54489,131.57288c2.70896,-0.28418 2.68558,-0.24349 2.90043,1.58673c0.21485,1.83022 -0.78194,3.36186 -2.22639,3.42102c-1.44446,0.05917 -2.7896,-1.37656 -3.00445,-3.20678c-0.21485,-1.83022 -0.20983,-1.53449 2.33041,-1.80097z" data-paper-data="{&quot;index&quot;:null}" fill="url(#color-6)" stroke="#000000" stroke-width="0"/><path d="M241.92487,134.25374c0.35755,1.99142 -1.17444,3.9329 -3.4218,4.33639c-2.24735,0.40349 -4.35904,-0.88377 -4.71659,-2.8752c-0.35755,-1.99142 -0.40888,-2.02662 3.87102,-2.60142c4.01334,-0.53901 3.90982,-0.85119 4.26737,1.14023z" fill="url(#color-7)" stroke="#000000" stroke-width="0"/></g></g></g></svg>