<svg version="1.1" xmlns="http://www.w3.org/2000/svg" xmlns:xlink="http://www.w3.org/1999/xlink" width="65.42289" height="64.90928" viewBox="0,0,65.42289,64.90928"><defs><linearGradient x1="240.00005" y1="149.04536" x2="240.00005" y2="210.95464" gradientUnits="userSpaceOnUse" id="color-1"><stop offset="0" stop-color="#06261d"/><stop offset="1" stop-color="#00110e"/></linearGradient><linearGradient x1="240.00005" y1="149.04536" x2="240.00005" y2="210.95464" gradientUnits="userSpaceOnUse" id="color-2"><stop offset="0" stop-color="#c5ffd7"/><stop offset="1" stop-color="#6fb696"/></linearGradient><radialGradient cx="240.00005" cy="180" r="29.92177" gradientUnits="userSpaceOnUse" id="color-3"><stop offset="0" stop-color="#d7ffe8" stop-opacity="0.74902"/><stop offset="1" stop-color="#d7ffe8" stop-opacity="0"/></radialGradient><linearGradient x1="240.00005" y1="150.69895" x2="240.00005" y2="209.30106" gradientUnits="userSpaceOnUse" id="color-4"><stop offset="0" stop-color="#cccccc"/><stop offset="1" stop-color="#898989"/></linearGradient></defs><g transform="translate(-207.28862,-147.54536)"><g data-paper-data="{&quot;isPaintingLayer&quot;:true}" fill-rule="nonzero" stroke-linecap="butt" stroke-linejoin="miter" stroke-miterlimit="10" stroke-dasharray="" stroke-dashoffset="0" style="mix-blend-mode: normal"><path d="M208.78863,210.95464v-61.90928h62.42289v61.90928z" fill="url(#color-1)" stroke="url(#color-2)" stroke-width="3"/><path d="M269.92179,180c0,16.18252 -13.39645,29.30105 -29.92178,29.30105c-16.52534,0 -29.92177,-13.11853 -29.92177,-29.30105c0,-16.18252 13.39645,-29.30105 29.92177,-29.30105c16.52534,0 29.92178,13.11853 29.92178,29.30105z" fill="url(#color-3)" stroke="url(#color-4)" stroke-width="0"/><g fill="none" stroke="#000000" stroke-width="0.5"><path d="M211.05653,180c0,-15.98501 12.95844,-28.94349 28.94349,-28.94349c15.98501,0 28.94349,12.95843 28.94349,28.94349c0,15.98501 -12.95843,28.94349 -28.94349,28.94349c-15.98501,0 -28.94349,-12.95843 -28.94349,-28.94349z"/><path d="M216.5021,180c0,-12.97748 10.52037,-23.49792 23.49792,-23.49792c12.97749,0 23.49792,10.52037 23.49792,23.49792c0,12.97749 -10.52037,23.49792 -23.49792,23.49792c-12.97748,0 -23.49792,-10.52037 -23.49792,-23.49792z"/><path d="M220.10705,179.89706c0,-10.98652 8.90635,-19.89293 19.89292,-19.89293c10.98652,0 19.89293,8.90636 19.89293,19.89293c0,10.98652 -8.90636,19.89292 -19.89293,19.89292c-10.98652,0 -19.89292,-8.90635 -19.89292,-19.89292z"/><path d="M223.64197,179.89706c0,-9.03427 7.32374,-16.35804 16.35805,-16.35804c9.03427,0 16.35805,7.32373 16.35805,16.35804c0,9.03427 -7.32374,16.35804 -16.35805,16.35804c-9.03427,0 -16.35805,-7.32373 -16.35805,-16.35804z"/></g><g fill="none" stroke="#000000" stroke-width="0.5"><path d="M219.32329,180c0,-11.41941 9.25728,-20.67672 20.67672,-20.67672c11.41941,0 20.67672,9.25728 20.67672,20.67672c0,11.41941 -9.25728,20.67672 -20.67672,20.67672c-11.41941,0 -20.67672,-9.25728 -20.67672,-20.67672z"/><path d="M223.21351,180c0,-9.27088 7.51555,-16.7865 16.78648,-16.7865c9.27088,0 16.7865,7.51556 16.7865,16.7865c0,9.27088 -7.51556,16.78648 -16.7865,16.78648c-9.27088,0 -16.78648,-7.51555 -16.78648,-16.78648z"/><path d="M225.78883,179.92647c0,-7.84856 6.36252,-14.21114 14.21114,-14.21114c7.84856,0 14.21116,6.36255 14.21116,14.21114c0,7.84856 -6.36255,14.21114 -14.21116,14.21114c-7.84856,0 -14.21114,-6.36255 -14.21114,-14.21114z"/><path d="M228.31412,179.92647c0,-6.45391 5.23195,-11.68589 11.68589,-11.68589c6.45391,0 11.68589,5.23195 11.68589,11.68589c0,6.45391 -5.23196,11.68587 -11.68589,11.68587c-6.45391,0 -11.68589,-5.23195 -11.68589,-11.68587z"/></g></g></g></svg>