<svg version="1.1" xmlns="http://www.w3.org/2000/svg" xmlns:xlink="http://www.w3.org/1999/xlink" width="59" height="59.70662" viewBox="0,0,59,59.70662"><defs><linearGradient x1="240" y1="151.64669" x2="240" y2="208.35331" gradientUnits="userSpaceOnUse" id="color-1"><stop offset="0" stop-color="#191919"/><stop offset="1" stop-color="#050505"/></linearGradient><linearGradient x1="240" y1="151.64669" x2="240" y2="208.35331" gradientUnits="userSpaceOnUse" id="color-2"><stop offset="0" stop-color="#9061ff"/><stop offset="1" stop-color="#5800de"/></linearGradient><radialGradient cx="240" cy="182.60388" r="18.85606" gradientUnits="userSpaceOnUse" id="color-3"><stop offset="0" stop-color="#93aaff"/><stop offset="1" stop-color="#93aaff" stop-opacity="0"/></radialGradient><linearGradient x1="240" y1="160.93275" x2="240" y2="204.27502" gradientUnits="userSpaceOnUse" id="color-4"><stop offset="0" stop-color="#272727"/><stop offset="1" stop-color="#2c2c2c"/></linearGradient><linearGradient x1="240" y1="163.78803" x2="240" y2="196.21198" gradientUnits="userSpaceOnUse" id="color-5"><stop offset="0" stop-color="#48cbff"/><stop offset="1" stop-color="#4d63ff"/></linearGradient><linearGradient x1="240" y1="174.20156" x2="240" y2="196.21198" gradientUnits="userSpaceOnUse" id="color-6"><stop offset="0" stop-color="#0088ff"/><stop offset="1" stop-color="#432dff"/></linearGradient></defs><g transform="translate(-210.5,-150.14669)"><g data-paper-data="{&quot;isPaintingLayer&quot;:true}" fill-rule="nonzero" stroke-linejoin="miter" stroke-miterlimit="10" stroke-dasharray="" stroke-dashoffset="0" style="mix-blend-mode: normal"><path d="M212,208.35331v-56.70662h56v56.70662z" fill="url(#color-1)" stroke="url(#color-2)" stroke-width="3" stroke-linecap="butt"/><path d="M258.85606,182.60388c0,11.96864 -8.44215,21.67113 -18.85606,21.67113c-10.41391,0 -18.85605,-9.7025 -18.85605,-21.67113c0,-11.96864 8.44215,-21.67113 18.85605,-21.67113c10.41391,0 18.85606,9.7025 18.85606,21.67113z" fill="url(#color-3)" stroke="url(#color-4)" stroke-width="0" stroke-linecap="butt"/><path d="M251.21041,185.20677c0,6.07801 -5.01907,11.00521 -11.21041,11.00521c-6.19134,0 -11.21041,-4.9272 -11.21041,-11.00521c0,-6.07801 11.21041,-21.41874 11.21041,-21.41874c0,0 11.21041,15.34073 11.21041,21.41874z" fill="url(#color-5)" stroke="url(#color-6)" stroke-width="1.5" stroke-linecap="butt"/><path d="M238.72533,169.49493l-4.8965,10.05071" fill="none" stroke="#ffffff" stroke-width="1.5" stroke-linecap="round"/><path d="M215.27327,163.339v-8.69862h21.87384v8.69862z" fill-opacity="0.53453" fill="#000000" stroke="#a60000" stroke-width="0" stroke-linecap="butt"/><text transform="translate(215.70712,161.61518) scale(0.21839,0.21839)" font-size="40" xml:space="preserve" fill="#ffffff" fill-rule="nonzero" stroke="none" stroke-width="1" stroke-linecap="butt" stroke-linejoin="miter" stroke-miterlimit="10" stroke-dasharray="" stroke-dashoffset="0" font-family="Serif" font-weight="normal" text-anchor="start" style="mix-blend-mode: normal"><tspan x="0" dy="0">Water</tspan></text><path d="M215.27327,205.07286v-8.69862h21.67026v8.69862z" fill-opacity="0.53453" fill="#000000" stroke="#a60000" stroke-width="0" stroke-linecap="butt"/><text transform="translate(215.70712,203.34904) scale(0.21839,0.21839)" font-size="40" xml:space="preserve" fill="#ffffff" fill-rule="nonzero" stroke="none" stroke-width="1" stroke-linecap="butt" stroke-linejoin="miter" stroke-miterlimit="10" stroke-dasharray="" stroke-dashoffset="0" font-family="Serif" font-weight="normal" text-anchor="start" style="mix-blend-mode: normal"><tspan x="0" dy="0">$3/ea.</tspan></text></g></g></svg>