<svg version="1.1" xmlns="http://www.w3.org/2000/svg" xmlns:xlink="http://www.w3.org/1999/xlink" width="333.34023" height="421.92639" viewBox="0,0,333.34023,421.92639"><defs><linearGradient x1="217.33334" y1="68.896" x2="262.66666" y2="68.896" gradientUnits="userSpaceOnUse" id="color-1"><stop offset="0" stop-color="#cdd3da"/><stop offset="1" stop-color="#9da3ab"/></linearGradient><linearGradient x1="208.83333" y1="173.89601" x2="271.16667" y2="173.89601" gradientUnits="userSpaceOnUse" id="color-2"><stop offset="0" stop-color="#b2b8bd"/><stop offset="1" stop-color="#8c9298"/></linearGradient><linearGradient x1="207.5" y1="178.22935" x2="272.5" y2="178.22935" gradientUnits="userSpaceOnUse" id="color-3"><stop offset="0" stop-color="#777c7f"/><stop offset="1" stop-color="#5f6368"/></linearGradient><radialGradient cx="223.42058" cy="-64.58705" r="24.95866" gradientUnits="userSpaceOnUse" id="color-4"><stop offset="0" stop-color="#bec4ca"/><stop offset="1" stop-color="#8c9098"/></radialGradient><linearGradient x1="221.53934" y1="-44.47027" x2="211.14417" y2="-42.9904" gradientUnits="userSpaceOnUse" id="color-5"><stop offset="0" stop-color="#f0f7ff"/><stop offset="1" stop-color="#afb6be"/></linearGradient><linearGradient x1="212.50488" y1="-43.18411" x2="53.1561" y2="-20.49881" gradientUnits="userSpaceOnUse" id="color-6"><stop offset="0" stop-color="#f0f7ff"/><stop offset="1" stop-color="#afb6be"/></linearGradient><linearGradient x1="69.98938" y1="-23.46177" x2="31.57865" y2="-17.99352" gradientUnits="userSpaceOnUse" id="color-7"><stop offset="0" stop-color="#cbe3ff"/><stop offset="1" stop-color="#86a1bf"/></linearGradient><linearGradient x1="246.79609" y1="-64.46628" x2="250.73592" y2="-74.19912" gradientUnits="userSpaceOnUse" id="color-8"><stop offset="0" stop-color="#f0f7ff"/><stop offset="1" stop-color="#afb6be"/></linearGradient><linearGradient x1="250.2202" y1="-72.92509" x2="310.61409" y2="-222.12039" gradientUnits="userSpaceOnUse" id="color-9"><stop offset="0" stop-color="#f0f7ff"/><stop offset="1" stop-color="#afb6be"/></linearGradient><linearGradient x1="303.68434" y1="-206.49616" x2="318.24218" y2="-242.45938" gradientUnits="userSpaceOnUse" id="color-10"><stop offset="0" stop-color="#cbe3ff"/><stop offset="1" stop-color="#86a1bf"/></linearGradient><linearGradient x1="251.40189" y1="-32.2159" x2="257.6616" y2="-23.78581" gradientUnits="userSpaceOnUse" id="color-11"><stop offset="0" stop-color="#f0f7ff"/><stop offset="1" stop-color="#afb6be"/></linearGradient><linearGradient x1="256.84221" y1="-24.88931" x2="352.79768" y2="104.33611" gradientUnits="userSpaceOnUse" id="color-12"><stop offset="0" stop-color="#f0f7ff"/><stop offset="1" stop-color="#afb6be"/></linearGradient><linearGradient x1="342.16323" y1="90.95527" x2="365.29311" y2="122.10479" gradientUnits="userSpaceOnUse" id="color-13"><stop offset="0" stop-color="#cbe3ff"/><stop offset="1" stop-color="#86a1bf"/></linearGradient><radialGradient cx="233.4768" cy="-45.21973" r="20.5" gradientUnits="userSpaceOnUse" id="color-14"><stop offset="0" stop-color="#e6eef5"/><stop offset="1" stop-color="#c4cad5"/></radialGradient></defs><g transform="translate(-32.01865,242.03039)"><g data-paper-data="{&quot;isPaintingLayer&quot;:true}" fill-rule="nonzero" stroke="none" stroke-width="0" stroke-linecap="butt" stroke-linejoin="miter" stroke-miterlimit="10" stroke-dasharray="" stroke-dashoffset="0" style="mix-blend-mode: normal"><path d="M217.33334,171.22934l8.33333,-204.66667h28.66666l8.33333,204.66667z" fill="url(#color-1)"/><path d="M208.83333,176.89601v-6h62.33333v6z" fill="url(#color-2)"/><path d="M207.5,179.89601v-3.33333h65v3.33333z" fill="url(#color-3)"/><path d="M215.83334,-28.47866c0,-5.48483 0,-26.33483 0,-37c0,-3.59358 3.15873,-6.91731 6.33333,-6.91731c5.84411,0 25.85484,0 36,0c3.63233,0 6,3.22824 6,6.25065c0,10.40972 0,32.86094 0,38.66667c0,2.49943 -1.92973,5 -5,5c-10.75875,0 -34.18908,0 -39,0c-1.59078,0 -4.33333,-3.64513 -4.33333,-6z" fill="url(#color-4)"/><g><g data-paper-data="{&quot;index&quot;:null}"><path d="M220.55276,-51.4004l1.97318,13.86024l-10.39518,1.47988l-1.97317,-13.86025z" fill="url(#color-5)"/><path d="M211.11201,-52.96807l2.78574,19.56792l-143.40331,15.00551l-1.4378,-10.09959z" fill="url(#color-6)"/><path d="M69.26148,-28.57471l1.45577,10.22583c0,0 -38.30374,3.2232 -38.69413,0.48527c-0.47588,-3.33742 37.23834,-10.71108 37.23834,-10.71108z" fill="url(#color-7)"/></g><g data-paper-data="{&quot;index&quot;:null}"><path d="M244.24736,-76.82566l12.9771,5.25309l-3.93981,9.73283l-12.97709,-5.25309z" fill="url(#color-8)"/><path d="M299.02466,-208.61341l9.45605,3.82779l-49.09997,135.5687l-18.32108,-7.41634z" fill="url(#color-9)"/><path d="M318.26124,-241.99671c2.56333,1.03829 -9.78976,37.43838 -9.78976,37.43838l-9.57424,-3.87564c0,0 16.23944,-34.82838 19.364,-33.56274z" fill="url(#color-10)"/></g><g data-paper-data="{&quot;index&quot;:null}"><path d="M245.78186,-28.04278l11.24009,-8.34626l6.2597,8.43009l-11.2401,8.34627z" fill="url(#color-11)"/><path d="M248.90782,-18.99768l15.86879,-11.78327l81.59906,118.87503l-8.19036,6.0817z" fill="url(#color-12)"/><path d="M365.19525,121.65219c-2.70614,2.01036 -27.17838,-27.61807 -27.17838,-27.61807l8.29272,-6.15771c0,0 21.10574,32.12653 18.88567,33.77578z" fill="url(#color-13)"/></g><path d="M246.54203,-66.62688c10.75798,3.52841 16.61874,15.10981 13.09033,25.86781c-3.52841,10.75798 -15.10981,16.61874 -25.8678,13.09033c-10.75798,-3.52841 -16.61874,-15.10981 -13.09033,-25.8678c3.52841,-10.75798 15.10981,-16.61874 25.8678,-13.09033z" data-paper-data="{&quot;index&quot;:null}" fill="url(#color-14)"/></g></g></g></svg>