<svg version="1.1" xmlns="http://www.w3.org/2000/svg" xmlns:xlink="http://www.w3.org/1999/xlink" width="96.84844" height="121.94987" viewBox="0,0,96.84844,121.94987"><defs><linearGradient x1="260.70834" y1="195.44365" x2="272.38683" y2="198.02706" gradientUnits="userSpaceOnUse" id="color-1"><stop offset="0" stop-color="#242424"/><stop offset="1" stop-color="#373737"/></linearGradient><radialGradient cx="260.12962" cy="191.96563" r="3.52256" gradientUnits="userSpaceOnUse" id="color-2"><stop offset="0" stop-color="#bfbfbf"/><stop offset="1" stop-color="#9a9a9a"/></radialGradient><linearGradient x1="272.66039" y1="199.69592" x2="313.31203" y2="219.99191" gradientUnits="userSpaceOnUse" id="color-3"><stop offset="0" stop-color="#b2b2b2"/><stop offset="1" stop-color="#c4c4c4"/></linearGradient><linearGradient x1="272.76787" y1="200.15129" x2="299.37505" y2="213.43537" gradientUnits="userSpaceOnUse" id="color-4"><stop offset="0" stop-color="#cccccc"/><stop offset="1" stop-color="#d8d8d8"/></linearGradient><linearGradient x1="270.5837" y1="198.21047" x2="272.74742" y2="199.33894" gradientUnits="userSpaceOnUse" id="color-5"><stop offset="0" stop-color="#b5b5b5"/><stop offset="1" stop-color="#c5c5c5"/></linearGradient><linearGradient x1="237.29667" y1="195.55577" x2="249.12643" y2="197.32152" gradientUnits="userSpaceOnUse" id="color-6"><stop offset="0" stop-color="#242424"/><stop offset="1" stop-color="#373737"/></linearGradient><radialGradient cx="236.47769" cy="192.1264" r="3.52256" gradientUnits="userSpaceOnUse" id="color-7"><stop offset="0" stop-color="#bfbfbf"/><stop offset="1" stop-color="#9a9a9a"/></radialGradient><linearGradient x1="249.51528" y1="198.96741" x2="291.47881" y2="216.38986" gradientUnits="userSpaceOnUse" id="color-8"><stop offset="0" stop-color="#b2b2b2"/><stop offset="1" stop-color="#c4c4c4"/></linearGradient><linearGradient x1="249.65414" y1="199.41417" x2="277.11997" y2="210.81751" gradientUnits="userSpaceOnUse" id="color-9"><stop offset="0" stop-color="#cccccc"/><stop offset="1" stop-color="#d8d8d8"/></linearGradient><linearGradient x1="247.3404" y1="197.62977" x2="249.5773" y2="198.60519" gradientUnits="userSpaceOnUse" id="color-10"><stop offset="0" stop-color="#b5b5b5"/><stop offset="1" stop-color="#c5c5c5"/></linearGradient><linearGradient x1="242.02504" y1="147.38788" x2="241.76077" y2="155.25668" gradientUnits="userSpaceOnUse" id="color-11"><stop offset="0" stop-color="#505050"/><stop offset="1" stop-color="#767676"/></linearGradient><radialGradient cx="237.7618" cy="123.9119" r="13.11833" gradientUnits="userSpaceOnUse" id="color-12"><stop offset="0" stop-color="#ccbe7a"/><stop offset="1" stop-color="#948f62"/></radialGradient><linearGradient x1="254.08343" y1="115.23506" x2="253.77317" y2="124.47231" gradientUnits="userSpaceOnUse" id="color-13"><stop offset="0" stop-color="#464646"/><stop offset="1" stop-color="#343434"/></linearGradient><linearGradient x1="254.08344" y1="115.23506" x2="253.77318" y2="124.47231" gradientUnits="userSpaceOnUse" id="color-14"><stop offset="0" stop-color="#131313"/><stop offset="1" stop-color="#202020"/></linearGradient><linearGradient x1="242.47388" y1="115.87266" x2="241.29805" y2="150.88296" gradientUnits="userSpaceOnUse" id="color-15"><stop offset="0" stop-color="#ffe8b5" stop-opacity="0.32941"/><stop offset="1" stop-color="#c2a53e" stop-opacity="0.63529"/></linearGradient><linearGradient x1="242.47388" y1="115.87266" x2="241.29805" y2="150.88296" gradientUnits="userSpaceOnUse" id="color-16"><stop offset="0" stop-color="#444444"/><stop offset="1" stop-color="#545454"/></linearGradient><linearGradient x1="231.24574" y1="113.03871" x2="230.84611" y2="124.93751" gradientUnits="userSpaceOnUse" id="color-17"><stop offset="0" stop-color="#464646"/><stop offset="1" stop-color="#343434"/></linearGradient><linearGradient x1="231.24574" y1="113.03871" x2="230.84611" y2="124.93751" gradientUnits="userSpaceOnUse" id="color-18"><stop offset="0" stop-color="#131313"/><stop offset="1" stop-color="#202020"/></linearGradient></defs><g transform="translate(-223.34339,-112.37664)"><g data-paper-data="{&quot;isPaintingLayer&quot;:true}" fill-rule="nonzero" stroke-linejoin="miter" stroke-miterlimit="10" stroke-dasharray="" stroke-dashoffset="0" style="mix-blend-mode: normal"><path d="M226.17781,195.05177l1.52849,-45.51021l25.56255,0.85854l-1.23298,45.52014z" fill="#747474" stroke="none" stroke-width="NaN" stroke-linecap="butt"/><g><path d="M226.1234,227.23587l3.75904,-33.71008c0,0 6.75518,-2.18267 9.822,-2.18267c3.62872,0 0.6063,4.24407 0.6063,4.24407c0,0 -3.09204,0.08829 -3.39803,1.52409c-0.93579,4.39099 -2.78619,30.12458 -2.78619,30.12458z" fill="#ffefeb" stroke="#000000" stroke-width="0" stroke-linecap="butt"/><path d="M241.47427,232.29258c0,0 -0.3857,1.94015 -1.2126,1.94015c-0.59276,0 -2.64411,0.01366 -4.70436,-0.06689c-1.25258,-0.04897 -1.90215,-0.61779 -2.83553,-0.76063c-1.17507,-0.17983 -2.93853,0.22047 -3.78777,0.02896c-1.56485,-0.35288 -2.37463,-0.77781 -2.37463,-0.77781c0,0 -0.26912,-1.02539 -0.2856,-1.5858c-0.02221,-0.755 0.16433,-2.53701 0.16433,-2.53701c0,0 5.93424,-0.11957 8.24914,0.08075c1.36979,0.11854 4.24057,0.6468 4.24057,0.6468c0,0 1.45975,0.6156 1.67337,1.04283c0.26162,0.52325 0.87307,1.98866 0.87307,1.98866z" data-paper-data="{&quot;index&quot;:null}" fill="#141415" stroke="#000000" stroke-width="0" stroke-linecap="butt"/><path d="M241.20337,231.65797c0,0 -0.38569,0 -1.21259,0c-0.24822,0 0.70239,1.60165 -2.61811,1.33311c-3.13563,-0.25359 -2.77648,-1.18823 -3.8809,-1.26883c-2.30937,-0.16854 -2.58766,0.59503 -3.58733,0.44204c-0.34815,-0.05328 -0.51271,-0.11454 -1.78458,-0.97035c-0.87471,-0.58857 -0.66566,-1.75122 -1.26542,-2.3793c-0.87609,-0.91746 -0.80847,-1.8858 -0.80847,-1.8858l-0.07637,-3.04773c0,0 0.48635,2.20682 1.32529,3.03123c0.75062,0.73761 2.3169,-0.01875 2.80058,-0.01889c0.84695,-0.00024 -0.68885,-3.26805 0.12091,-3.24981c0.43542,0.00981 3.72275,-0.23408 3.72275,-0.23408c0,0 0.12302,3.57988 0.35598,3.60004c1.36978,0.11854 4.60434,0.6468 4.60434,0.6468c0,0 1.45975,0.6156 1.67337,1.04283c0.26163,0.52325 0.63055,2.95873 0.63055,2.95873z" data-paper-data="{&quot;index&quot;:null}" fill="#252527" stroke="#000000" stroke-width="0" stroke-linecap="butt"/><path d="M232.52068,228.71934l2.66771,-1.09134" data-paper-data="{&quot;index&quot;:null}" fill="none" stroke="#ffffff" stroke-width="0.5" stroke-linecap="round"/><path d="M234.46083,229.08313l2.54644,-1.45511" data-paper-data="{&quot;index&quot;:null}" fill="none" stroke="#ffffff" stroke-width="0.5" stroke-linecap="round"/><path d="M238.09861,227.87055l-1.45512,1.45512" data-paper-data="{&quot;index&quot;:null}" fill="none" stroke="#ffffff" stroke-width="0.5" stroke-linecap="round"/><path d="M231.30808,224.83905l2.18267,-0.24252" data-paper-data="{&quot;index&quot;:null}" fill="none" stroke="#969696" stroke-width="0.5" stroke-linecap="round"/><path d="M231.79312,225.6879l1.94015,-0.36378" data-paper-data="{&quot;index&quot;:null}" fill="none" stroke="#969696" stroke-width="0.5" stroke-linecap="round"/></g><path d="M269.91391,200.11713c-0.49928,0.08724 -1.38882,-3.69734 -2.78264,-3.89607c-0.47852,-0.06822 0.39096,5.13317 -0.53483,5.04583c-0.54955,-0.05185 -0.97474,-2.94064 -1.59244,-4.24629c-0.30092,-0.63609 -1.63876,-5.29648 -1.63876,-5.29648c0,0 0.03017,-3.04624 -1.22211,-6.32559c-0.30115,-0.78858 -1.08796,-3.42925 -1.40598,-4.2362c-0.75263,-1.90974 -1.5731,-3.77568 -2.00323,-4.9583c-0.92521,-2.54361 -4.55876,-14.97698 -4.55876,-14.97698c0,0 -3.28116,-6.32297 -1.16663,-6.81863c6.52162,-1.52866 6.0933,4.18385 6.0933,4.18385c0,0 1.49495,6.407 3.6235,13.05697c1.60119,5.00242 3.82471,10.17578 4.57124,12.67673c0.88354,2.95992 1.54626,6.89902 1.54626,6.89902c0,0 0.63871,2.71547 1.03818,5.02855c0.35943,2.0813 0.51368,3.77955 0.03289,3.86358z" data-paper-data="{&quot;index&quot;:null}" fill="#8c8c8c" stroke="#000000" stroke-width="0" stroke-linecap="butt"/><g stroke="none" stroke-width="0" stroke-linecap="butt"><path d="M260.47107,196.51621l2.24612,-4.50312l9.90684,4.94146l-2.24615,4.50312z" fill="url(#color-1)"/><path d="M263.97991,194.36357c-0.42019,1.8995 -2.30069,3.09879 -4.20021,2.67859c-1.89953,-0.42019 -3.09876,-2.30071 -2.6786,-4.20022c0.42017,-1.89953 2.30071,-3.09876 4.20021,-2.67859c1.89953,0.42019 3.09876,2.30071 2.6786,4.20022z" fill="url(#color-2)"/><path d="M270.58283,203.8571l4.15507,-8.32239l39.5127,21.84994l5.94123,5.60924l-7.98656,-1.17689z" fill="url(#color-3)"/><path d="M271.40809,202.87487l2.80875,-5.79363l32.94896,18.34229l8.56084,5.61297l-9.37469,-3.31571z" fill="url(#color-4)"/><path d="M280.1702,189.84163c0,0 -5.26572,6.03105 -7.13766,9.50737c-2.05528,3.81683 -4.69534,12.46762 -4.69534,12.46762c0,0 0.59316,-9.99288 2.58659,-13.69473c1.95001,-3.62134 9.24645,-8.28025 9.24645,-8.28025z" fill="url(#color-5)"/></g><g><path d="M239.70443,191.3431c3.62872,0 10.54956,2.18267 10.54956,2.18267l3.03149,33.71008h-7.63934c0,0 -1.32697,-25.53818 -2.03751,-29.57011c-0.20138,-1.1427 -3.2979,-2.07857 -3.2979,-2.07857c0,0 -3.67312,-4.24407 -0.6063,-4.24407z" fill="#ffefeb" stroke="#000000" stroke-width="0" stroke-linecap="butt"/><path d="M259.69261,234.32563c-0.59276,0 -2.64411,0.01365 -4.70436,-0.0669c-1.25258,-0.04897 -1.90215,-0.61779 -2.83553,-0.76063c-1.17507,-0.17982 -2.93854,0.22047 -3.78778,0.02896c-1.56485,-0.35288 -2.37463,-0.77782 -2.37463,-0.77782c0,0 -0.26911,-1.0254 -0.2856,-1.5858c-0.02221,-0.75501 0.16433,-2.53701 0.16433,-2.53701c0,0 5.93425,-0.11957 8.24914,0.08076c1.36979,0.11854 4.24057,0.6468 4.24057,0.6468c0,0 1.45976,0.6156 1.67337,1.04283c0.26162,0.52325 0.87307,1.98865 0.87307,1.98865c0,0 -0.3857,1.94015 -1.21259,1.94015z" data-paper-data="{&quot;index&quot;:null}" fill="#141415" stroke="#000000" stroke-width="0" stroke-linecap="butt"/><path d="M259.4217,231.75086c-0.24822,0 0.7024,1.60165 -2.61811,1.33311c-3.13563,-0.25358 -2.77648,-1.18823 -3.8809,-1.26883c-2.30937,-0.16854 -2.58765,0.59503 -3.58732,0.44205c-0.34815,-0.05328 -0.51271,-0.11454 -1.78459,-0.97035c-0.87472,-0.58857 -0.66566,-1.75122 -1.26542,-2.3793c-0.87609,-0.91745 -0.80847,-1.8858 -0.80847,-1.8858l-0.07637,-3.04773c0,0 0.48635,2.20681 1.32529,3.03122c0.75062,0.73761 2.3169,-0.01875 2.80058,-0.01889c0.84696,-0.00024 -0.68885,-3.26804 0.12091,-3.2498c0.43542,0.00981 3.72275,-0.23409 3.72275,-0.23409c0,0 0.12302,3.57989 0.35598,3.60005c1.36979,0.11854 4.60434,0.6468 4.60434,0.6468c0,0 1.45976,0.6156 1.67338,1.04283c0.26162,0.52325 0.63055,2.95873 0.63055,2.95873c0,0 -0.3857,0 -1.2126,0z" data-paper-data="{&quot;index&quot;:null}" fill="#252527" stroke="#000000" stroke-width="0" stroke-linecap="butt"/><path d="M254.61932,227.7209l-2.6677,1.09133" fill="none" stroke="#ffffff" stroke-width="0.5" stroke-linecap="round"/><path d="M256.43822,227.7209l-2.54645,1.45511" fill="none" stroke="#ffffff" stroke-width="0.5" stroke-linecap="round"/><path d="M256.07444,229.41856l1.45512,-1.45511" fill="none" stroke="#ffffff" stroke-width="0.5" stroke-linecap="round"/><path d="M250.73903,224.93192l2.18266,-0.24252" fill="none" stroke="#969696" stroke-width="0.5" stroke-linecap="round"/><path d="M251.22407,225.78079l1.94015,-0.36378" fill="none" stroke="#969696" stroke-width="0.5" stroke-linecap="round"/></g><path d="M264.13571,203.18581c-0.47493,0.0268 -1.13803,-3.44954 -1.66206,-4.17524c-0.28052,-0.38846 -0.28187,4.67208 -1.14045,4.48981c-0.50968,-0.1082 -0.65145,-2.84422 -1.11376,-4.12722c-0.22524,-0.62507 -1.064,-5.11007 -1.064,-5.11007c0,0 0.29831,-2.83298 -0.58279,-6.02284c-0.21189,-0.76708 -0.71406,-3.31152 -0.94015,-4.09748c-0.535,-1.86018 -1.13736,-3.68696 -1.43504,-4.83495c-0.64031,-2.46914 -2.93823,-14.44171 -2.93823,-14.44171c0,0 -4.77349,-8.28974 -0.53019,-9.12643c3.73506,-0.73647 5.37422,7.21043 5.37422,7.21043c0,0 0.83095,6.12835 2.23325,12.55205c1.05488,4.83221 2.67699,9.8914 3.15388,12.30137c0.56439,2.85222 0.83534,6.59209 0.83534,6.59209c0,0 0.35693,2.59792 0.52571,4.79513c0.15184,1.97704 -0.25833,3.96925 -0.71566,3.99506z" data-paper-data="{&quot;index&quot;:null}" fill="#969696" stroke="#000000" stroke-width="0" stroke-linecap="butt"/><g><path d="M229.63072,192.79136c0,0 1.22033,-4.93013 0.88158,-10.32867c-0.10547,-1.68088 -0.02193,-5.69289 -0.46312,-7.56173c-0.52162,-2.20963 -2.43939,-2.8613 -2.47898,-4.21471c-0.0782,-2.67334 -0.84136,-6.82579 -0.03452,-11.3788c0.60821,-3.43218 3.66798,-6.17884 3.66798,-6.17884c0,0 3.99492,-0.15506 5.75925,0.27059c2.24588,0.54185 7.70643,0.72932 9.63276,0.37751c2.03251,-0.37119 5.48081,0.20086 5.48081,0.20086c0,0 2.50143,3.60789 2.58307,7.93213c0.07705,4.08129 -0.9165,8.44183 -1.04916,10.10819c-0.13445,1.689 -1.56578,2.0799 -2.27458,4.20084c-0.56544,1.69202 -0.72096,5.16916 -0.9184,7.1627c-0.45858,4.63018 -0.1971,10.27289 -0.1971,10.27289c0,0 -2.72958,-0.86144 -5.54061,-1.02409c-1.27657,-0.07386 -1.82403,0.94542 -3.03593,1.06402c-0.96869,0.09477 -2.61416,-0.70106 -3.53725,-0.76883c-0.69781,-0.05124 -2.02481,-0.59891 -2.51862,-0.6196c-0.99711,-0.04179 -1.64386,0.81056 -2.80628,0.93098c-1.35029,0.13984 -3.15092,-0.44541 -3.15092,-0.44541z" fill="#9d9d9d" stroke="#292e32" stroke-width="0" stroke-linecap="butt"/><path d="M234.92121,168.40264l2.53315,-8.95892" fill="#ff0000" stroke="#ff0000" stroke-width="1" stroke-linecap="round"/><path d="M233.02516,158.76938l-4.2537,7.97111" fill="#ff0000" stroke="#ff0000" stroke-width="1" stroke-linecap="round"/><path d="M235.16104,159.05228l-3.45504,8.7199" fill="#ff0000" stroke="#ff0000" stroke-width="1" stroke-linecap="round"/><path d="M248.8355,168.95392l-1.3035,-9.08776" data-paper-data="{&quot;index&quot;:null}" fill="#ff0000" stroke="#ff0000" stroke-width="1" stroke-linecap="round"/><path d="M250.75428,159.44878l2.59714,8.2012" data-paper-data="{&quot;index&quot;:null}" fill="#ff0000" stroke="#ff0000" stroke-width="1" stroke-linecap="round"/><path d="M251.18275,168.51031l-1.97989,-8.90243" data-paper-data="{&quot;index&quot;:null}" fill="#ff0000" stroke="#ff0000" stroke-width="1" stroke-linecap="round"/><path d="M231.95849,189.47862c0.01435,-0.41396 0.3616,-0.73789 0.77558,-0.72353c0.41396,0.01435 0.73789,0.3616 0.72353,0.77558c-0.01435,0.41396 -0.36159,0.73789 -0.77558,0.72353c-0.41396,-0.01435 -0.73789,-0.3616 -0.72353,-0.77558z" fill="#002dff" stroke="none" stroke-width="0.5" stroke-linecap="butt"/><path d="M235.64332,189.60653c0.01435,-0.41396 0.3616,-0.73789 0.77558,-0.72353c0.41396,0.01435 0.73789,0.3616 0.72353,0.77558c-0.01435,0.41396 -0.36159,0.73789 -0.77558,0.72353c-0.41396,-0.01435 -0.73789,-0.3616 -0.72353,-0.77558z" fill="#002dff" stroke="none" stroke-width="0.5" stroke-linecap="butt"/><path d="M239.43052,189.73796c0.01435,-0.41396 0.36159,-0.73789 0.77558,-0.72353c0.41396,0.01435 0.73789,0.3616 0.72353,0.77558c-0.01435,0.41396 -0.3616,0.73789 -0.77558,0.72353c-0.41396,-0.01435 -0.73789,-0.3616 -0.72353,-0.77558z" fill="#002dff" stroke="none" stroke-width="0.5" stroke-linecap="butt"/><path d="M243.32006,189.87299c0.01435,-0.41396 0.3616,-0.7379 0.77558,-0.72353c0.41396,0.01435 0.73789,0.3616 0.72353,0.77558c-0.01435,0.41396 -0.3616,0.73789 -0.77558,0.72353c-0.41396,-0.01435 -0.73789,-0.36159 -0.72353,-0.77558z" fill="#002dff" stroke="none" stroke-width="0.5" stroke-linecap="butt"/><path d="M247.00489,190.00093c0.01435,-0.41396 0.3616,-0.7379 0.77558,-0.72353c0.41396,0.01435 0.73789,0.3616 0.72353,0.77559c-0.01435,0.41396 -0.3616,0.73789 -0.77557,0.72352c-0.41396,-0.01435 -0.73789,-0.36159 -0.72353,-0.77558z" fill="#002dff" stroke="none" stroke-width="0.5" stroke-linecap="butt"/><path d="M239.53735,177.13794c0.04635,-1.37993 1.20259,-2.46102 2.58251,-2.41466c1.37993,0.04635 2.46102,1.20259 2.41466,2.58251c-0.04635,1.37993 -1.20259,2.46102 -2.58251,2.41466c-1.37993,-0.04635 -2.46102,-1.20259 -2.41466,-2.58251z" fill="#797979" stroke="#00ff35" stroke-width="1" stroke-linecap="butt"/><path d="M232.32203,176.58817l5.73218,0.19253" fill="none" stroke="#00ff35" stroke-width="1" stroke-linecap="round"/><path d="M249.51517,177.26809l-3.58263,-0.12032" fill="none" stroke="#00ff35" stroke-width="1" stroke-linecap="round"/></g><path d="M242.12338,195.93476c-1.20882,-2.01386 -2.49194,-4.49573 -2.49194,-4.49573c0,0 -2.07266,-3.41733 -3.32127,-6.25257c-1.055,-2.3956 -2.69326,-7.82214 -4.717,-12.68872c-2.6903,-6.46938 -5.72745,-12.3169 -5.72745,-12.3169c0,0 -2.62084,-5.1578 2.18808,-7.29201c4.37418,-1.94129 4.06914,5.76913 4.06914,5.76913c0,0 4.73746,11.94013 5.67753,14.49169c0.43709,1.1863 1.01319,3.15637 1.67255,5.11227c0.2786,0.82641 1.39365,3.35487 1.67366,4.15581c1.1644,3.33078 3.20188,5.59717 3.20188,5.59717c0,0 2.00865,4.42711 2.188,5.11344c0.3682,1.40875 1.93691,3.87273 1.531,4.29278c-0.68376,0.70765 -4.16916,-4.54389 -4.18815,-4.02738c-0.0355,0.96485 1.22867,5.18408 0.77112,5.4648c-0.44061,0.27033 -1.43949,-1.11178 -2.52716,-2.92381z" data-paper-data="{&quot;index&quot;:null}" fill="#a1a1a1" stroke="#000000" stroke-width="0" stroke-linecap="butt"/><g stroke="none" stroke-width="0" stroke-linecap="butt"><path d="M237.13452,196.64224l1.92781,-4.64833l10.22622,4.24117l-1.92784,4.64833z" fill="url(#color-6)"/><path d="M240.48527,194.25099c-0.28721,1.92413 -2.07983,3.25114 -4.00398,2.96394c-1.92413,-0.28719 -3.25116,-2.07982 -2.96394,-4.00397c0.2872,-1.92413 2.07982,-3.25116 4.00398,-2.96394c1.92413,0.28719 3.25116,2.07982 2.96394,4.00397z" fill="url(#color-7)"/><path d="M247.73184,203.26284l3.56679,-8.59098l40.93536,19.05182l6.31658,5.18289l-8.04905,-0.61917z" fill="url(#color-8)"/><path d="M248.48686,202.22566c0,0 0.1314,-0.32717 0.25987,-0.64706c0.36862,-0.91791 2.13959,-5.32772 2.13959,-5.32772l34.14377,16.0087l8.93012,5.00462l-9.58242,-2.65634z" fill="url(#color-9)"/><path d="M256.32226,188.61511c0,0 -4.83395,6.38231 -6.4598,9.98032c-1.78513,3.95041 -3.81778,12.76371 -3.81778,12.76371c0,0 -0.1025,-10.0099 1.62882,-13.84135c1.69368,-3.74808 8.64875,-8.90269 8.64875,-8.90269z" fill="url(#color-10)"/></g><path d="M239.32908,199.07042c-1.13465,-1.98847 -2.33166,-4.43464 -2.33166,-4.43464c0,0 -1.94625,-3.37474 -3.10202,-6.16448c-0.97657,-2.35718 -2.45626,-7.68051 -4.32368,-12.46645c-2.48247,-6.36222 -5.31633,-12.12588 -5.31633,-12.12588c0,0 -3.35012,-8.28214 2.79141,-9.59386c3.33827,-0.71301 2.78185,8.31449 2.78185,8.31449c0,0 4.91679,11.66738 5.77797,14.17404c0.40041,1.16546 0.91941,3.09762 1.51989,5.01783c0.25371,0.81133 1.28593,3.29925 1.54159,4.08582c1.06304,3.27085 2.99982,5.52325 2.99982,5.52325c0,0 3.00379,9.16019 2.66602,9.52623c-0.9839,1.06621 -3.10957,-4.74356 -3.2389,-4.18495c-0.2443,1.05528 1.08578,4.96848 0.63386,5.23221c-0.43519,0.25396 -1.37885,-1.11437 -2.39978,-2.90357z" data-paper-data="{&quot;index&quot;:null}" fill="#adadad" stroke="#000000" stroke-width="0" stroke-linecap="butt"/><g><path d="M232.12436,154.93305l0.26426,-7.86876c0,0 6.24621,3.63486 9.33968,3.73876c3.3154,0.11136 9.93312,-3.09147 9.93312,-3.09147l-0.26426,7.86876c0,0 -6.39679,0.47018 -9.59878,0.36263c-3.22216,-0.10822 -9.67403,-1.00993 -9.67403,-1.00993z" fill="url(#color-11)" stroke="none" stroke-width="0" stroke-linecap="butt"/><path d="M253.74793,117.76474c0,0 -0.37215,3.23379 -0.74176,4.5505c-0.30275,1.07841 -1.31571,2.77852 -1.31571,2.77852" data-paper-data="{&quot;index&quot;:null}" fill="none" stroke="#3b2c16" stroke-width="1.25" stroke-linecap="round"/><path d="M255.01249,121.94781c0,0 -0.26545,2.27087 -0.69699,3.21381c-0.45643,0.99729 -1.97108,2.61605 -1.97108,2.61605" data-paper-data="{&quot;index&quot;:null}" fill="none" stroke="#3b2c16" stroke-width="1.25" stroke-linecap="round"/><path d="M251.55518,115.92608c0,0 0.00674,3.27311 -0.18791,4.68938c-0.1594,1.15996 -0.89543,3.19384 -0.89543,3.19384" data-paper-data="{&quot;index&quot;:null}" fill="none" stroke="#3b2c16" stroke-width="1.25" stroke-linecap="round"/><path d="M254.52147,134.26082c-0.2481,7.38737 -8.76216,17.03002 -11.97563,16.98398c-6.69199,-0.09588 -13.88924,-10.45696 -13.64114,-17.84435c0.2481,-7.38737 6.18376,-13.18342 13.25763,-12.94585c7.07387,0.23757 12.60724,6.41882 12.35913,13.80619z" fill="url(#color-12)" stroke="none" stroke-width="0" stroke-linecap="butt"/><path d="M243.58788,134.97738c-0.06925,2.06175 -0.97653,3.70455 -2.02646,3.66929c-1.04994,-0.03526 -1.84493,-1.73523 -1.77568,-3.79698c0.06925,-2.06175 0.97653,-3.70454 2.02645,-3.66928c1.04994,0.03526 1.84494,1.73522 1.77569,3.79697z" fill="none" stroke="#191412" stroke-width="1.5" stroke-linecap="butt"/><path d="M248.50594,129.57773c-0.06925,2.06175 -0.97653,3.70455 -2.02645,3.66929c-1.04994,-0.03526 -1.84494,-1.73523 -1.77569,-3.79698c0.06925,-2.06175 0.97653,-3.70455 2.02646,-3.66929c1.04994,0.03526 1.84493,1.73522 1.77568,3.79698z" fill="none" stroke="#191412" stroke-width="1.5" stroke-linecap="butt"/><path d="M253.01442,135.24749c-0.06925,2.06175 -0.97652,3.70455 -2.02645,3.66929c-1.04994,-0.03526 -1.84494,-1.73523 -1.77569,-3.79698c0.06925,-2.06175 0.97653,-3.70454 2.02646,-3.66928c1.04994,0.03526 1.84493,1.73522 1.77568,3.79697z" fill="none" stroke="#191412" stroke-width="1.5" stroke-linecap="butt"/><path d="M248.09146,140.21383c-0.06925,2.06175 -0.97653,3.70455 -2.02645,3.66929c-1.04994,-0.03526 -1.84494,-1.73523 -1.77569,-3.79698c0.06925,-2.06175 0.97653,-3.70454 2.02646,-3.66928c1.04994,0.03526 1.84493,1.73522 1.77568,3.79697z" fill="none" stroke="#191412" stroke-width="1.5" stroke-linecap="butt"/><path d="M234.54668,124.83955c0,0 -1.49737,-1.78351 -1.89512,-2.88518c-0.48564,-1.34511 -0.80805,-4.60197 -0.80805,-4.60197" fill="none" stroke="#47341a" stroke-width="1.5" stroke-linecap="round"/><path d="M233.25,127.45871c0,0 -2.31957,-1.74612 -2.97408,-2.78033c-0.61883,-0.97782 -0.85192,-3.26525 -0.85192,-3.26525" fill="none" stroke="#47341a" stroke-width="1.5" stroke-linecap="round"/><path d="M236.63855,123.66507c0,0 -1.01833,-2.09217 -1.17609,-3.26265c-0.19262,-1.42913 0.10392,-4.69215 0.10392,-4.69215" fill="none" stroke="#47341a" stroke-width="1.5" stroke-linecap="round"/><path d="M250.71839,118.54709l0.00086,-3.42503l6.72837,0.22599l-0.31024,9.23724c0,0 -2.50868,-3.11236 -3.68999,-4.2236c-0.83868,-0.7889 -2.729,-1.81461 -2.729,-1.81461z" fill="url(#color-13)" stroke="url(#color-14)" stroke-width="1" stroke-linecap="butt"/><path d="M241.29804,150.88296c-9.00653,-0.30249 -16.04453,-8.38504 -15.71982,-18.05289c0.3247,-9.66785 7.88916,-17.25994 16.89566,-16.95746c9.00654,0.30249 16.04454,8.38503 15.71983,18.05288c-0.3247,9.66786 -7.88916,17.25995 -16.89567,16.95747z" fill="url(#color-15)" stroke="url(#color-16)" stroke-width="2.5" stroke-linecap="butt"/><path d="M231.62013,119.68259c-1.61431,1.32609 -5.10753,5.10939 -5.10753,5.10939l0.39963,-11.89884l8.66707,0.2911l-0.29492,4.40204c0,0 -2.51816,1.15487 -3.66424,2.09632z" data-paper-data="{&quot;index&quot;:null}" fill="url(#color-17)" stroke="url(#color-18)" stroke-width="1" stroke-linecap="butt"/></g></g></g></svg>