<svg version="1.1" xmlns="http://www.w3.org/2000/svg" xmlns:xlink="http://www.w3.org/1999/xlink" width="59" height="59.70662" viewBox="0,0,59,59.70662"><defs><linearGradient x1="240.00019" y1="151.64675" x2="240.00019" y2="208.35337" gradientUnits="userSpaceOnUse" id="color-1"><stop offset="0" stop-color="#1a1414" stop-opacity="0.9506"/><stop offset="1" stop-color="#050000" stop-opacity="0.94834"/></linearGradient><linearGradient x1="240.00019" y1="151.64675" x2="240.00019" y2="208.35337" gradientUnits="userSpaceOnUse" id="color-2"><stop offset="0" stop-color="#ccb0b0" stop-opacity="0.77419"/><stop offset="1" stop-color="#8a5858" stop-opacity="0.79839"/></linearGradient><radialGradient cx="240.00006" cy="180" r="26.8571" gradientUnits="userSpaceOnUse" id="color-3"><stop offset="0" stop-color="#ffcece" stop-opacity="0.34997"/><stop offset="1" stop-color="#ffcece" stop-opacity="0"/></radialGradient><linearGradient x1="240.00006" y1="153.29208" x2="240.00006" y2="206.70789" gradientUnits="userSpaceOnUse" id="color-4"><stop offset="0" stop-color="#cccccc"/><stop offset="1" stop-color="#898989"/></linearGradient><linearGradient x1="255.22903" y1="158.90188" x2="228.44446" y2="202.31471" gradientUnits="userSpaceOnUse" id="color-5"><stop offset="0" stop-color="#373737"/><stop offset="1" stop-color="#1f1f1f"/></linearGradient><linearGradient x1="256.66755" y1="159.50712" x2="243.28993" y2="181.18976" gradientUnits="userSpaceOnUse" id="color-6"><stop offset="0" stop-color="#383838"/><stop offset="1" stop-color="#323232"/></linearGradient><radialGradient cx="254.95043" cy="168.16386" r="6.43639" gradientUnits="userSpaceOnUse" id="color-7"><stop offset="0" stop-color="#b1d5ff"/><stop offset="1" stop-color="#56c3ff"/></radialGradient></defs><g transform="translate(-210.50018,-150.14675)"><g data-paper-data="{&quot;isPaintingLayer&quot;:true}" fill-rule="nonzero" stroke-linejoin="miter" stroke-miterlimit="10" stroke-dasharray="" stroke-dashoffset="0" style="mix-blend-mode: normal"><path d="M212.00019,208.35337v-56.70662h56v56.70662z" fill="url(#color-1)" stroke="url(#color-2)" stroke-width="3" stroke-linecap="butt"/><path d="M266.85713,180c0,14.75036 -12.02433,26.70789 -26.8571,26.70789c-14.83277,0 -26.8571,-11.95753 -26.8571,-26.70789c0,-14.75036 12.02433,-26.70789 26.8571,-26.70789c14.83277,0 26.8571,11.95753 26.8571,26.70789z" fill="url(#color-3)" stroke="url(#color-4)" stroke-width="0" stroke-linecap="butt"/><path d="M228.25069,201.47958l-6.68932,-3.96957l9.52267,-0.11202" data-paper-data="{&quot;index&quot;:null}" fill="none" stroke="#5f5f5f" stroke-width="1.5" stroke-linecap="round"/><path d="M225.23485,200.33447c0,0 7.13338,-5.17752 11.76258,-12.68061c1.78646,-2.89552 4.70845,-7.7466 7.729,-13.37033c0.63029,-1.17347 -0.24788,-3.30115 0.32588,-4.51429c3.24872,-6.86901 6.96711,-12.84759 6.96711,-12.84759l6.4192,3.96048l-25.33827,41.06863c0,0 -0.86621,0.99635 -1.31296,1.25591c-0.45369,0.2636 -1.38866,0.31378 -1.38866,0.31378z" data-paper-data="{&quot;index&quot;:null}" fill="url(#color-5)" stroke="none" stroke-width="NaN" stroke-linecap="butt"/><path d="M246.99426,181.05933c-0.66987,1.08574 -1.811,1.31355 -2.34737,0.99361c-0.93158,-0.55568 -3.8244,-2.28122 -3.8244,-2.28122c0,0 1.87819,-3.39042 2.91473,-6.80932c0.40935,-1.35015 3.11609,-8.03052 3.65318,-8.97546c2.22118,-3.90788 4.37002,-7.50738 4.37002,-7.50738c0,0 4.41986,2.72694 5.82008,3.59083c0.74491,0.45959 0.9756,2.24936 0.25668,3.41459c-1.63846,2.65564 -8.22591,13.33267 -10.84291,17.57435z" data-paper-data="{&quot;index&quot;:null}" fill="url(#color-6)" stroke="none" stroke-width="0" stroke-linecap="butt"/><path d="M248.19592,175.02566l6.75922,-10.95544l2.16826,1.33776l-6.75922,10.95544z" data-paper-data="{&quot;index&quot;:null}" fill="url(#color-7)" stroke="none" stroke-width="0" stroke-linecap="butt"/><path d="M215.06993,162.22182v-7.06998h19.435v7.06998z" fill-opacity="0.52999" fill="#0a0000" stroke="#a60000" stroke-width="0" stroke-linecap="butt"/><path d="M214.5482,205.29757v-2.74222h21.83809v2.74222z" fill-opacity="0.52999" fill="#0a0000" stroke="#a60000" stroke-width="0" stroke-linecap="butt"/><text transform="translate(214.71649,204.72768) scale(0.0699,0.0699)" font-size="40" xml:space="preserve" fill="#ffffff" fill-rule="nonzero" stroke="#000000" stroke-width="0" stroke-linecap="butt" stroke-linejoin="miter" stroke-miterlimit="10" stroke-dasharray="" stroke-dashoffset="0" font-family="Serif" font-weight="normal" text-anchor="start" style="mix-blend-mode: normal"><tspan x="0" dy="0">Deployable defense</tspan></text><text transform="translate(215.50375,160.75253) scale(0.18022,0.18022)" font-size="40" xml:space="preserve" fill="#ffffff" fill-rule="nonzero" stroke="#000000" stroke-width="0" stroke-linecap="butt" stroke-linejoin="miter" stroke-miterlimit="10" stroke-dasharray="" stroke-dashoffset="0" font-family="Serif" font-weight="normal" text-anchor="start" style="mix-blend-mode: normal"><tspan x="0" dy="0">Shield</tspan></text></g></g></svg>