<svg version="1.1" xmlns="http://www.w3.org/2000/svg" xmlns:xlink="http://www.w3.org/1999/xlink" width="59" height="59.70662" viewBox="0,0,59,59.70662"><defs><linearGradient x1="240" y1="151.64671" x2="240" y2="208.35333" gradientUnits="userSpaceOnUse" id="color-1"><stop offset="0" stop-color="#191919"/><stop offset="1" stop-color="#050505"/></linearGradient><linearGradient x1="240" y1="151.64671" x2="240" y2="208.35333" gradientUnits="userSpaceOnUse" id="color-2"><stop offset="0" stop-color="#cccccc"/><stop offset="1" stop-color="#898989"/></linearGradient><radialGradient cx="240" cy="180.00002" r="26.8571" gradientUnits="userSpaceOnUse" id="color-3"><stop offset="0" stop-color="#ffffff" stop-opacity="0.35484"/><stop offset="1" stop-color="#ffffff" stop-opacity="0"/></radialGradient><linearGradient x1="240" y1="153.29213" x2="240" y2="206.70791" gradientUnits="userSpaceOnUse" id="color-4"><stop offset="0" stop-color="#cccccc"/><stop offset="1" stop-color="#898989"/></linearGradient><linearGradient x1="242.65132" y1="197.65866" x2="243.58923" y2="197.65866" gradientUnits="userSpaceOnUse" id="color-5"><stop offset="0" stop-color="#525252"/><stop offset="1" stop-color="#363636"/></linearGradient><linearGradient x1="242.65132" y1="197.65866" x2="243.58923" y2="197.65866" gradientUnits="userSpaceOnUse" id="color-6"><stop offset="0" stop-color="#1f1f1f"/><stop offset="1" stop-color="#000000"/></linearGradient><linearGradient x1="234.0734" y1="198.61158" x2="245.64729" y2="198.61158" gradientUnits="userSpaceOnUse" id="color-7"><stop offset="0" stop-color="#2f2f2f"/><stop offset="1" stop-color="#040404"/></linearGradient><linearGradient x1="234.0734" y1="198.61158" x2="245.64729" y2="198.61158" gradientUnits="userSpaceOnUse" id="color-8"><stop offset="0" stop-color="#1f1f1f"/><stop offset="1" stop-color="#000000"/></linearGradient><linearGradient x1="238.03395" y1="195.43414" x2="241.71342" y2="195.43414" gradientUnits="userSpaceOnUse" id="color-9"><stop offset="0" stop-color="#444444"/><stop offset="1" stop-color="#252525"/></linearGradient><linearGradient x1="236.84353" y1="197.79164" x2="242.75954" y2="197.79164" gradientUnits="userSpaceOnUse" id="color-10"><stop offset="0" stop-color="#444444"/><stop offset="1" stop-color="#252525"/></linearGradient><linearGradient x1="235.84492" y1="200.39413" x2="243.78719" y2="200.39413" gradientUnits="userSpaceOnUse" id="color-11"><stop offset="0" stop-color="#444444"/><stop offset="1" stop-color="#252525"/></linearGradient><linearGradient x1="234.78735" y1="202.98618" x2="244.88786" y2="202.98618" gradientUnits="userSpaceOnUse" id="color-12"><stop offset="0" stop-color="#444444"/><stop offset="1" stop-color="#252525"/></linearGradient><linearGradient x1="241.74911" y1="194.58359" x2="244.67159" y2="194.58359" gradientUnits="userSpaceOnUse" id="color-13"><stop offset="0" stop-color="#b2b2b2"/><stop offset="1" stop-color="#363636"/></linearGradient><linearGradient x1="241.74911" y1="194.58359" x2="244.67159" y2="194.58359" gradientUnits="userSpaceOnUse" id="color-14"><stop offset="0" stop-color="#1f1f1f"/><stop offset="1" stop-color="#000000"/></linearGradient><linearGradient x1="233.17007" y1="185.83123" x2="246.75766" y2="185.83123" gradientUnits="userSpaceOnUse" id="color-15"><stop offset="0" stop-color="#b89a9a"/><stop offset="1" stop-color="#8d7070"/></linearGradient><linearGradient x1="233.17007" y1="185.83123" x2="246.75766" y2="185.83123" gradientUnits="userSpaceOnUse" id="color-16"><stop offset="0" stop-color="#260000"/><stop offset="1" stop-color="#100000"/></linearGradient><linearGradient x1="245.70363" y1="190.61258" x2="251.4404" y2="190.61258" gradientUnits="userSpaceOnUse" id="color-17"><stop offset="0" stop-color="#362424"/><stop offset="1" stop-color="#1f1414"/></linearGradient><linearGradient x1="245.70363" y1="190.80966" x2="249.6275" y2="190.80966" gradientUnits="userSpaceOnUse" id="color-18"><stop offset="0" stop-color="#272727"/><stop offset="1" stop-color="#000000"/></linearGradient><linearGradient x1="234.29637" y1="190.55245" x2="228.5596" y2="190.55245" gradientUnits="userSpaceOnUse" id="color-19"><stop offset="0" stop-color="#6b4a4a"/><stop offset="1" stop-color="#825959"/></linearGradient><linearGradient x1="230.3725" y1="190.74953" x2="234.29637" y2="190.74953" gradientUnits="userSpaceOnUse" id="color-20"><stop offset="0" stop-color="#272727"/><stop offset="1" stop-color="#000000"/></linearGradient><linearGradient x1="234.28043" y1="185.92474" x2="245.71736" y2="185.92474" gradientUnits="userSpaceOnUse" id="color-21"><stop offset="0" stop-color="#634343"/><stop offset="1" stop-color="#211414"/></linearGradient><linearGradient x1="234.28043" y1="185.92474" x2="245.71736" y2="185.92474" gradientUnits="userSpaceOnUse" id="color-22"><stop offset="0" stop-color="#272727"/><stop offset="1" stop-color="#000000"/></linearGradient><linearGradient x1="235.03385" y1="179.42964" x2="244.89387" y2="179.42964" gradientUnits="userSpaceOnUse" id="color-23"><stop offset="0" stop-color="#b89a9a"/><stop offset="1" stop-color="#8d7070"/></linearGradient><linearGradient x1="235.03385" y1="179.42964" x2="244.89387" y2="179.42964" gradientUnits="userSpaceOnUse" id="color-24"><stop offset="0" stop-color="#260000"/><stop offset="1" stop-color="#100000"/></linearGradient><linearGradient x1="235.03385" y1="182.91672" x2="244.89387" y2="182.91672" gradientUnits="userSpaceOnUse" id="color-25"><stop offset="0" stop-color="#b89a9a"/><stop offset="1" stop-color="#8d7070"/></linearGradient><linearGradient x1="235.03385" y1="182.91672" x2="244.89387" y2="182.91672" gradientUnits="userSpaceOnUse" id="color-26"><stop offset="0" stop-color="#260000"/><stop offset="1" stop-color="#100000"/></linearGradient><linearGradient x1="240.40772" y1="186.45257" x2="244.89369" y2="186.45257" gradientUnits="userSpaceOnUse" id="color-27"><stop offset="0" stop-color="#2c4a2e"/><stop offset="1" stop-color="#1d301b"/></linearGradient><linearGradient x1="240.40772" y1="186.45257" x2="244.89369" y2="186.45257" gradientUnits="userSpaceOnUse" id="color-28"><stop offset="0" stop-color="#123614"/><stop offset="1" stop-color="#0d1a0e"/></linearGradient><linearGradient x1="240.39566" y1="186.45426" x2="244.87125" y2="186.45426" gradientUnits="userSpaceOnUse" id="color-29"><stop offset="0" stop-color="#123614"/><stop offset="1" stop-color="#0d1a0e"/></linearGradient><linearGradient x1="240.39566" y1="186.42018" x2="244.87125" y2="186.42018" gradientUnits="userSpaceOnUse" id="color-30"><stop offset="0" stop-color="#123614"/><stop offset="1" stop-color="#0d1a0e"/></linearGradient><linearGradient x1="235.0461" y1="186.47529" x2="239.53207" y2="186.47529" gradientUnits="userSpaceOnUse" id="color-31"><stop offset="0" stop-color="#2c4a2e"/><stop offset="1" stop-color="#1d301b"/></linearGradient><linearGradient x1="235.0461" y1="186.47529" x2="239.53207" y2="186.47529" gradientUnits="userSpaceOnUse" id="color-32"><stop offset="0" stop-color="#123614"/><stop offset="1" stop-color="#0d1a0e"/></linearGradient><linearGradient x1="235.03404" y1="186.47698" x2="239.50963" y2="186.47698" gradientUnits="userSpaceOnUse" id="color-33"><stop offset="0" stop-color="#123614"/><stop offset="1" stop-color="#0d1a0e"/></linearGradient><linearGradient x1="235.03404" y1="186.4429" x2="239.50963" y2="186.4429" gradientUnits="userSpaceOnUse" id="color-34"><stop offset="0" stop-color="#123614"/><stop offset="1" stop-color="#0d1a0e"/></linearGradient><linearGradient x1="240.40772" y1="191.86356" x2="244.89369" y2="191.86356" gradientUnits="userSpaceOnUse" id="color-35"><stop offset="0" stop-color="#2c4a2e"/><stop offset="1" stop-color="#1d301b"/></linearGradient><linearGradient x1="240.40772" y1="191.86356" x2="244.89369" y2="191.86356" gradientUnits="userSpaceOnUse" id="color-36"><stop offset="0" stop-color="#123614"/><stop offset="1" stop-color="#0d1a0e"/></linearGradient><linearGradient x1="240.39566" y1="191.86525" x2="244.87125" y2="191.86525" gradientUnits="userSpaceOnUse" id="color-37"><stop offset="0" stop-color="#123614"/><stop offset="1" stop-color="#0d1a0e"/></linearGradient><linearGradient x1="240.39566" y1="191.83117" x2="244.87125" y2="191.83117" gradientUnits="userSpaceOnUse" id="color-38"><stop offset="0" stop-color="#123614"/><stop offset="1" stop-color="#0d1a0e"/></linearGradient><linearGradient x1="235.0461" y1="191.88628" x2="239.53207" y2="191.88628" gradientUnits="userSpaceOnUse" id="color-39"><stop offset="0" stop-color="#2c4a2e"/><stop offset="1" stop-color="#1d301b"/></linearGradient><linearGradient x1="235.0461" y1="191.88628" x2="239.53207" y2="191.88628" gradientUnits="userSpaceOnUse" id="color-40"><stop offset="0" stop-color="#123614"/><stop offset="1" stop-color="#0d1a0e"/></linearGradient><linearGradient x1="235.03404" y1="191.88796" x2="239.50963" y2="191.88796" gradientUnits="userSpaceOnUse" id="color-41"><stop offset="0" stop-color="#123614"/><stop offset="1" stop-color="#0d1a0e"/></linearGradient><linearGradient x1="235.03404" y1="191.85389" x2="239.50963" y2="191.85389" gradientUnits="userSpaceOnUse" id="color-42"><stop offset="0" stop-color="#123614"/><stop offset="1" stop-color="#0d1a0e"/></linearGradient><linearGradient x1="234.18418" y1="170.7787" x2="245.75807" y2="170.7787" gradientUnits="userSpaceOnUse" id="color-43"><stop offset="0" stop-color="#9c5555"/><stop offset="1" stop-color="#453131"/></linearGradient><linearGradient x1="234.18418" y1="170.77509" x2="245.75807" y2="170.77509" gradientUnits="userSpaceOnUse" id="color-44"><stop offset="0" stop-color="#272727"/><stop offset="1" stop-color="#000000"/></linearGradient><linearGradient x1="237.43077" y1="165.74372" x2="242.15074" y2="165.74372" gradientUnits="userSpaceOnUse" id="color-45"><stop offset="0" stop-color="#f7d6d6"/><stop offset="1" stop-color="#805e5e"/></linearGradient><linearGradient x1="237.43077" y1="165.74326" x2="242.15074" y2="165.74326" gradientUnits="userSpaceOnUse" id="color-46"><stop offset="0" stop-color="#272727"/><stop offset="1" stop-color="#000000"/></linearGradient><linearGradient x1="236.8518" y1="168.07102" x2="242.89048" y2="168.07102" gradientUnits="userSpaceOnUse" id="color-47"><stop offset="0" stop-color="#452a2a"/><stop offset="1" stop-color="#260f0f"/></linearGradient><linearGradient x1="236.28208" y1="170.05504" x2="243.55538" y2="170.05504" gradientUnits="userSpaceOnUse" id="color-48"><stop offset="0" stop-color="#452a2a"/><stop offset="1" stop-color="#260f0f"/></linearGradient><linearGradient x1="235.74868" y1="172.003" x2="244.09423" y2="172.003" gradientUnits="userSpaceOnUse" id="color-49"><stop offset="0" stop-color="#452a2a"/><stop offset="1" stop-color="#260f0f"/></linearGradient><linearGradient x1="235.18048" y1="173.87881" x2="244.71167" y2="173.87881" gradientUnits="userSpaceOnUse" id="color-50"><stop offset="0" stop-color="#452a2a"/><stop offset="1" stop-color="#260f0f"/></linearGradient><linearGradient x1="238.91173" y1="162.87603" x2="240.77551" y2="162.87603" gradientUnits="userSpaceOnUse" id="color-51"><stop offset="0" stop-color="#443939"/><stop offset="1" stop-color="#251e1e"/></linearGradient><linearGradient x1="238.91173" y1="162.87603" x2="240.77551" y2="162.87603" gradientUnits="userSpaceOnUse" id="color-52"><stop offset="0" stop-color="#262626"/><stop offset="1" stop-color="#0f0f0f"/></linearGradient><linearGradient x1="239.51295" y1="159.23863" x2="240.23441" y2="159.23863" gradientUnits="userSpaceOnUse" id="color-53"><stop offset="0" stop-color="#ccbebe"/><stop offset="1" stop-color="#656161"/></linearGradient><linearGradient x1="239.51295" y1="159.23863" x2="240.23441" y2="159.23863" gradientUnits="userSpaceOnUse" id="color-54"><stop offset="0" stop-color="#262626"/><stop offset="1" stop-color="#0f0f0f"/></linearGradient></defs><g transform="translate(-210.5,-150.1467)"><g data-paper-data="{&quot;isPaintingLayer&quot;:true}" fill-rule="nonzero" stroke-linejoin="miter" stroke-miterlimit="10" stroke-dasharray="" stroke-dashoffset="0" style="mix-blend-mode: normal"><path d="M212,208.35333v-56.70662h56v56.70662z" fill="url(#color-1)" stroke="url(#color-2)" stroke-width="3" stroke-linecap="butt"/><path d="M266.8571,180.00002c0,14.75036 -12.02433,26.70789 -26.8571,26.70789c-14.83277,0 -26.8571,-11.95753 -26.8571,-26.70789c0,-14.75036 12.02433,-26.70789 26.8571,-26.70789c14.83277,0 26.8571,11.95753 26.8571,26.70789z" fill="url(#color-3)" stroke="url(#color-4)" stroke-width="0" stroke-linecap="butt"/><g stroke-width="0.375"><path d="M242.65132,199.20981v-3.1023h0.9379v3.1023z" fill="url(#color-5)" stroke="url(#color-6)" stroke-linecap="butt"/><path d="M234.0734,204.39876c0,0 4.32163,-11.65876 5.78774,-11.5739c1.6772,0.09709 5.78616,11.5739 5.78616,11.5739z" fill="url(#color-7)" stroke="url(#color-8)" stroke-linecap="butt"/><path d="M241.71342,195.43414h-3.67947" fill="none" stroke="url(#color-9)" stroke-linecap="round"/><path d="M242.75954,197.79164h-5.91601" fill="none" stroke="url(#color-10)" stroke-linecap="round"/><path d="M235.84492,200.39413h7.94227" fill="none" stroke="url(#color-11)" stroke-linecap="round"/><path d="M244.88786,202.98618h-10.10051" fill="none" stroke="url(#color-12)" stroke-linecap="round"/><path d="M244.67159,194.58359c-0.01094,1.37413 -0.04556,1.52115 -1.46124,1.50659c-1.41614,-0.01457 -1.47881,-0.20077 -1.46124,-1.50659c0.0194,-1.44171 0.01528,-1.54192 1.46124,-1.50659c1.38543,0.03386 1.47325,-0.00234 1.46124,1.50659z" fill="url(#color-13)" stroke="url(#color-14)" stroke-linecap="butt"/></g><g stroke-width="0.375" stroke-linecap="butt"><path d="M233.17007,191.54425v-11.42604c0,0 4.44591,-1.53027 6.65323,-1.53027c2.31659,0 6.93436,1.53027 6.93436,1.53027v11.42604z" fill="url(#color-15)" stroke="url(#color-16)"/><path d="M245.70363,195.31879v-11.69706c0,0 1.47199,7.85199 1.98664,9.74779c0.40718,1.49992 1.93723,4.62807 1.93723,4.62807z" fill="url(#color-17)" stroke="url(#color-18)"/><path d="M230.3725,197.93746c0,0 1.53006,-3.12815 1.93723,-4.62807c0.51464,-1.89581 1.98664,-9.74779 1.98664,-9.74779v11.69706z" data-paper-data="{&quot;index&quot;:null}" fill="url(#color-19)" stroke="url(#color-20)"/><path d="M234.28043,195.30713v-18.76478h11.43693v18.76478z" fill="url(#color-21)" stroke="url(#color-22)"/><path d="M235.03385,181.71428v-4.56928h9.86002v4.56928z" fill="url(#color-23)" stroke="url(#color-24)"/><path d="M235.03385,183.57806v-1.32269h9.86002v1.32269z" fill="url(#color-25)" stroke="url(#color-26)"/></g><g stroke-width="0.375"><path d="M240.40772,188.78784v-4.67055h4.48597v4.67055z" fill="url(#color-27)" stroke="url(#color-28)" stroke-linecap="butt"/><path d="M240.39566,188.72613l4.47559,-4.54375" fill="none" stroke="url(#color-29)" stroke-linecap="round"/><path d="M240.4411,184.13695l4.43015,4.6119" fill="none" stroke="url(#color-30)" stroke-linecap="round"/><path d="M235.0461,188.81056v-4.67055h4.48597v4.67055z" fill="url(#color-31)" stroke="url(#color-32)" stroke-linecap="butt"/><path d="M235.03404,188.74885l4.47559,-4.54375" fill="none" stroke="url(#color-33)" stroke-linecap="round"/><path d="M239.50962,188.77156l-4.43015,-4.6119" fill="none" stroke="url(#color-34)" stroke-linecap="round"/><path d="M240.40772,194.19883v-4.67055h4.48597v4.67055z" fill="url(#color-35)" stroke="url(#color-36)" stroke-linecap="butt"/><path d="M240.39566,194.13712l4.47559,-4.54375" fill="none" stroke="url(#color-37)" stroke-linecap="round"/><path d="M240.4411,189.54794l4.43015,4.6119" fill="none" stroke="url(#color-38)" stroke-linecap="round"/><path d="M235.0461,194.22155v-4.67055h4.48597v4.67055z" fill="url(#color-39)" stroke="url(#color-40)" stroke-linecap="butt"/><path d="M235.03404,194.15984l4.47559,-4.54375" fill="none" stroke="url(#color-41)" stroke-linecap="round"/><path d="M239.50963,194.18255l-4.43015,-4.6119" fill="none" stroke="url(#color-42)" stroke-linecap="round"/></g><g stroke-width="0.375" stroke-linecap="butt"><path d="M234.18418,176.56588c0,0 3.89782,-14.29403 5.75326,-14.29403c1.19029,0 5.82064,14.29403 5.82064,14.29403z" fill="url(#color-43)" stroke="url(#color-44)"/><path d="M237.43077,166.47592c0,0 1.85055,-4.33243 2.42597,-4.35021c0.52312,-0.01616 2.33909,4.35021 2.33909,4.35021z" fill="url(#color-45)" stroke="url(#color-46)"/><path d="M236.64536,168.81126c0,0 0.10018,-0.23195 0.24736,-0.50797c0.17272,-0.32392 0.45881,-0.70854 1.44739,-0.85025c0.03835,-0.0055 0.75893,-0.08605 0.75893,-0.08605l1.56764,0.00345c0,0 0.54191,0.02761 0.57373,0.033c0.93557,0.15833 1.2869,0.5559 1.48356,0.88831c0.16769,0.28344 0.26972,0.51951 0.26972,0.51951z" data-paper-data="{&quot;index&quot;:null}" fill="url(#color-47)" stroke="#000000"/><path d="M236.03344,170.79528c0,0 0.12067,-0.23195 0.29793,-0.50797c0.20803,-0.32392 0.55261,-0.70854 1.74331,-0.85025c0.0462,-0.0055 0.91409,-0.08605 0.91409,-0.08605l1.88814,0.00345c0,0 0.65271,0.02761 0.69104,0.033c1.12685,0.15833 1.55001,0.5559 1.78688,0.88831c0.20198,0.28344 0.32487,0.51951 0.32487,0.51951z" data-paper-data="{&quot;index&quot;:null}" fill="url(#color-48)" stroke="#000000"/><path d="M235.46338,172.74324c0,0 0.13846,-0.23195 0.34186,-0.50797c0.23869,-0.32392 0.63408,-0.70854 2.00031,-0.85025c0.05301,-0.0055 1.04885,-0.08605 1.04885,-0.08605l2.1665,0.00345c0,0 0.74893,0.02761 0.79291,0.033c1.29298,0.15833 1.77852,0.5559 2.05031,0.88831c0.23175,0.28344 0.37276,0.51951 0.37276,0.51951z" data-paper-data="{&quot;index&quot;:null}" fill="url(#color-49)" stroke="#000000"/><path d="M234.85465,174.61905c0,0 0.15813,-0.23194 0.39042,-0.50797c0.27261,-0.32392 0.72416,-0.70854 2.28449,-0.85025c0.06054,-0.0055 1.19786,-0.08605 1.19786,-0.08605l2.47429,0.00345c0,0 0.85533,0.02761 0.90556,0.033c1.47667,0.15833 2.03118,0.5559 2.34159,0.88831c0.26468,0.28344 0.42572,0.51951 0.42572,0.51951z" data-paper-data="{&quot;index&quot;:null}" fill="url(#color-50)" stroke="#000000"/><path d="M240.77551,162.87603c0,0.19923 -0.41722,0.36073 -0.93189,0.36073c-0.51467,0 -0.93189,-0.16151 -0.93189,-0.36073c0,-0.19923 0.41722,-0.36073 0.93189,-0.36073c0.51467,0 0.93189,0.16151 0.93189,0.36073z" fill="url(#color-51)" stroke="url(#color-52)"/><path d="M239.51295,162.87603v-7.27477h0.72147v7.27477z" fill="url(#color-53)" stroke="url(#color-54)"/></g><path d="M215.27327,167.03274v-12.39235h25.93332v8.69862h-15.56684v3.69373z" fill-opacity="0.53453" fill="#000000" stroke="#a60000" stroke-width="0" stroke-linecap="butt"/><text transform="translate(215.70712,161.6152) scale(0.21839,0.21839)" font-size="40" xml:space="preserve" fill="#ffffff" fill-rule="nonzero" stroke="#000000" stroke-width="0" stroke-linecap="butt" stroke-linejoin="miter" stroke-miterlimit="10" stroke-dasharray="" stroke-dashoffset="0" font-family="Serif" font-weight="normal" text-anchor="start" style="mix-blend-mode: normal"><tspan x="0" dy="0">Rocket</tspan></text><text transform="translate(215.56527,166.16682) scale(0.11601,0.11601)" font-size="40" xml:space="preserve" fill="#ffffff" fill-rule="nonzero" stroke="#000000" stroke-width="0" stroke-linecap="butt" stroke-linejoin="miter" stroke-miterlimit="10" stroke-dasharray="" stroke-dashoffset="0" font-family="Serif" font-weight="normal" text-anchor="start" style="mix-blend-mode: normal"><tspan x="0" dy="0">4-1-1</tspan></text></g></g></svg>