<svg version="1.1" xmlns="http://www.w3.org/2000/svg" xmlns:xlink="http://www.w3.org/1999/xlink" width="59" height="59.70662" viewBox="0,0,59,59.70662"><defs><linearGradient x1="240" y1="151.64672" x2="240" y2="208.35334" gradientUnits="userSpaceOnUse" id="color-1"><stop offset="0" stop-color="#191919"/><stop offset="1" stop-color="#050505"/></linearGradient><linearGradient x1="240" y1="151.64672" x2="240" y2="208.35334" gradientUnits="userSpaceOnUse" id="color-2"><stop offset="0" stop-color="#cccccc"/><stop offset="1" stop-color="#898989"/></linearGradient><radialGradient cx="240" cy="180.00003" r="26.8571" gradientUnits="userSpaceOnUse" id="color-3"><stop offset="0" stop-color="#ffffff" stop-opacity="0.35484"/><stop offset="1" stop-color="#ffffff" stop-opacity="0"/></radialGradient><linearGradient x1="240" y1="153.29213" x2="240" y2="206.70792" gradientUnits="userSpaceOnUse" id="color-4"><stop offset="0" stop-color="#cccccc"/><stop offset="1" stop-color="#898989"/></linearGradient><linearGradient x1="234.09561" y1="171.99459" x2="245.83024" y2="171.99459" gradientUnits="userSpaceOnUse" id="color-5"><stop offset="0" stop-color="#303030"/><stop offset="1" stop-color="#171717"/></linearGradient><linearGradient x1="234.09561" y1="171.99459" x2="245.83024" y2="171.99459" gradientUnits="userSpaceOnUse" id="color-6"><stop offset="0" stop-color="#272727"/><stop offset="1" stop-color="#000000"/></linearGradient><radialGradient cx="239.96292" cy="171.99459" r="4.86809" gradientUnits="userSpaceOnUse" id="color-7"><stop offset="0" stop-color="#734c45" stop-opacity="0.40995"/><stop offset="1" stop-color="#734c45" stop-opacity="0"/></radialGradient><radialGradient cx="239.96292" cy="171.97729" r="3.95219" gradientUnits="userSpaceOnUse" id="color-8"><stop offset="0" stop-color="#eb8c73" stop-opacity="0.60996"/><stop offset="1" stop-color="#eb8c73" stop-opacity="0"/></radialGradient><radialGradient cx="239.96292" cy="171.97729" r="3.34585" gradientUnits="userSpaceOnUse" id="color-9"><stop offset="0" stop-color="#ff734f" stop-opacity="0"/><stop offset="1" stop-color="#ff734f" stop-opacity="0.08997"/></radialGradient><radialGradient cx="239.96292" cy="171.97729" r="2.75131" gradientUnits="userSpaceOnUse" id="color-10"><stop offset="0" stop-color="#ffa282" stop-opacity="0.11996"/><stop offset="1" stop-color="#ffab8f"/></radialGradient><linearGradient x1="234.26073" y1="171.98689" x2="235.04724" y2="171.98689" gradientUnits="userSpaceOnUse" id="color-11"><stop offset="0" stop-color="#9d9d9d"/><stop offset="1" stop-color="#4c4c4c"/></linearGradient><linearGradient x1="234.26073" y1="171.98689" x2="235.04724" y2="171.98689" gradientUnits="userSpaceOnUse" id="color-12"><stop offset="0" stop-color="#272727"/><stop offset="1" stop-color="#000000"/></linearGradient><linearGradient x1="244.90174" y1="171.98689" x2="245.68825" y2="171.98689" gradientUnits="userSpaceOnUse" id="color-13"><stop offset="0" stop-color="#9d9d9d"/><stop offset="1" stop-color="#4c4c4c"/></linearGradient><linearGradient x1="244.90174" y1="171.98689" x2="245.68825" y2="171.98689" gradientUnits="userSpaceOnUse" id="color-14"><stop offset="0" stop-color="#272727"/><stop offset="1" stop-color="#000000"/></linearGradient><linearGradient x1="234.23925" y1="173.44176" x2="245.6866" y2="173.44176" gradientUnits="userSpaceOnUse" id="color-15"><stop offset="0" stop-color="#272727"/><stop offset="1" stop-color="#000000"/></linearGradient><linearGradient x1="234.23925" y1="173.45555" x2="245.6866" y2="173.45555" gradientUnits="userSpaceOnUse" id="color-16"><stop offset="0" stop-color="#272727"/><stop offset="1" stop-color="#000000"/></linearGradient><linearGradient x1="234.26568" y1="170.40146" x2="245.71304" y2="170.40146" gradientUnits="userSpaceOnUse" id="color-17"><stop offset="0" stop-color="#272727"/><stop offset="1" stop-color="#000000"/></linearGradient><linearGradient x1="234.26568" y1="170.41525" x2="245.71304" y2="170.41525" gradientUnits="userSpaceOnUse" id="color-18"><stop offset="0" stop-color="#272727"/><stop offset="1" stop-color="#000000"/></linearGradient><linearGradient x1="234.12605" y1="175.38776" x2="245.69237" y2="175.38776" gradientUnits="userSpaceOnUse" id="color-19"><stop offset="0" stop-color="#c7a895"/><stop offset="1" stop-color="#322c27"/></linearGradient><linearGradient x1="234.12605" y1="175.38776" x2="245.69237" y2="175.38776" gradientUnits="userSpaceOnUse" id="color-20"><stop offset="0" stop-color="#272727"/><stop offset="1" stop-color="#000000"/></linearGradient><linearGradient x1="234.17892" y1="168.61981" x2="245.74524" y2="168.61981" gradientUnits="userSpaceOnUse" id="color-21"><stop offset="0" stop-color="#c7a895"/><stop offset="1" stop-color="#322c27"/></linearGradient><linearGradient x1="234.17892" y1="168.61981" x2="245.74524" y2="168.61981" gradientUnits="userSpaceOnUse" id="color-22"><stop offset="0" stop-color="#272727"/><stop offset="1" stop-color="#000000"/></linearGradient><linearGradient x1="242.72034" y1="197.36032" x2="243.68265" y2="197.36032" gradientUnits="userSpaceOnUse" id="color-23"><stop offset="0" stop-color="#525252"/><stop offset="1" stop-color="#363636"/></linearGradient><linearGradient x1="242.72034" y1="197.36032" x2="243.68265" y2="197.36032" gradientUnits="userSpaceOnUse" id="color-24"><stop offset="0" stop-color="#1f1f1f"/><stop offset="1" stop-color="#000000"/></linearGradient><linearGradient x1="233.91913" y1="198.33804" x2="245.79429" y2="198.33804" gradientUnits="userSpaceOnUse" id="color-25"><stop offset="0" stop-color="#2f2f2f"/><stop offset="1" stop-color="#040404"/></linearGradient><linearGradient x1="233.91913" y1="198.33804" x2="245.79429" y2="198.33804" gradientUnits="userSpaceOnUse" id="color-26"><stop offset="0" stop-color="#1f1f1f"/><stop offset="1" stop-color="#000000"/></linearGradient><linearGradient x1="237.98277" y1="195.07787" x2="241.75802" y2="195.07787" gradientUnits="userSpaceOnUse" id="color-27"><stop offset="0" stop-color="#444444"/><stop offset="1" stop-color="#252525"/></linearGradient><linearGradient x1="236.76137" y1="197.49674" x2="242.83137" y2="197.49674" gradientUnits="userSpaceOnUse" id="color-28"><stop offset="0" stop-color="#444444"/><stop offset="1" stop-color="#252525"/></linearGradient><linearGradient x1="235.73676" y1="200.167" x2="243.88577" y2="200.167" gradientUnits="userSpaceOnUse" id="color-29"><stop offset="0" stop-color="#444444"/><stop offset="1" stop-color="#252525"/></linearGradient><linearGradient x1="234.65167" y1="202.82651" x2="245.01509" y2="202.82651" gradientUnits="userSpaceOnUse" id="color-30"><stop offset="0" stop-color="#444444"/><stop offset="1" stop-color="#252525"/></linearGradient><linearGradient x1="241.79464" y1="194.20519" x2="244.79319" y2="194.20519" gradientUnits="userSpaceOnUse" id="color-31"><stop offset="0" stop-color="#b2b2b2"/><stop offset="1" stop-color="#363636"/></linearGradient><linearGradient x1="241.79464" y1="194.20519" x2="244.79319" y2="194.20519" gradientUnits="userSpaceOnUse" id="color-32"><stop offset="0" stop-color="#1f1f1f"/><stop offset="1" stop-color="#000000"/></linearGradient><linearGradient x1="245.8521" y1="190.13083" x2="251.73819" y2="190.13083" gradientUnits="userSpaceOnUse" id="color-33"><stop offset="0" stop-color="#353535"/><stop offset="1" stop-color="#1f1f1f"/></linearGradient><linearGradient x1="245.8521" y1="190.33304" x2="249.8781" y2="190.33304" gradientUnits="userSpaceOnUse" id="color-34"><stop offset="0" stop-color="#272727"/><stop offset="1" stop-color="#000000"/></linearGradient><linearGradient x1="234.1479" y1="190.06914" x2="228.26181" y2="190.06914" gradientUnits="userSpaceOnUse" id="color-35"><stop offset="0" stop-color="#6b6b6b"/><stop offset="1" stop-color="#838383"/></linearGradient><linearGradient x1="230.1219" y1="190.27135" x2="234.1479" y2="190.27135" gradientUnits="userSpaceOnUse" id="color-36"><stop offset="0" stop-color="#272727"/><stop offset="1" stop-color="#000000"/></linearGradient><linearGradient x1="234.13156" y1="185.36723" x2="245.86618" y2="185.36723" gradientUnits="userSpaceOnUse" id="color-37"><stop offset="0" stop-color="#646464"/><stop offset="1" stop-color="#222222"/></linearGradient><linearGradient x1="234.13156" y1="185.36723" x2="245.86618" y2="185.36723" gradientUnits="userSpaceOnUse" id="color-38"><stop offset="0" stop-color="#272727"/><stop offset="1" stop-color="#000000"/></linearGradient><linearGradient x1="240.41834" y1="185.86251" x2="245.02107" y2="185.86251" gradientUnits="userSpaceOnUse" id="color-39"><stop offset="0" stop-color="#4a382c"/><stop offset="1" stop-color="#301f1b"/></linearGradient><linearGradient x1="240.41834" y1="185.86251" x2="245.02107" y2="185.86251" gradientUnits="userSpaceOnUse" id="color-40"><stop offset="0" stop-color="#351c12"/><stop offset="1" stop-color="#1a1310"/></linearGradient><linearGradient x1="240.40596" y1="185.86426" x2="244.99805" y2="185.86426" gradientUnits="userSpaceOnUse" id="color-41"><stop offset="0" stop-color="#351c12"/><stop offset="1" stop-color="#1a1310"/></linearGradient><linearGradient x1="240.40596" y1="185.82929" x2="244.99805" y2="185.82929" gradientUnits="userSpaceOnUse" id="color-42"><stop offset="0" stop-color="#351c12"/><stop offset="1" stop-color="#1a1310"/></linearGradient><linearGradient x1="234.91715" y1="185.88584" x2="239.51989" y2="185.88584" gradientUnits="userSpaceOnUse" id="color-43"><stop offset="0" stop-color="#4a382c"/><stop offset="1" stop-color="#301f1b"/></linearGradient><linearGradient x1="234.91715" y1="185.88584" x2="239.51989" y2="185.88584" gradientUnits="userSpaceOnUse" id="color-44"><stop offset="0" stop-color="#351c12"/><stop offset="1" stop-color="#1a1310"/></linearGradient><linearGradient x1="234.90477" y1="185.88757" x2="239.49686" y2="185.88757" gradientUnits="userSpaceOnUse" id="color-45"><stop offset="0" stop-color="#351c12"/><stop offset="1" stop-color="#1a1310"/></linearGradient><linearGradient x1="234.90477" y1="185.85259" x2="239.49686" y2="185.85259" gradientUnits="userSpaceOnUse" id="color-46"><stop offset="0" stop-color="#351c12"/><stop offset="1" stop-color="#1a1310"/></linearGradient><linearGradient x1="240.41834" y1="191.41436" x2="245.02107" y2="191.41436" gradientUnits="userSpaceOnUse" id="color-47"><stop offset="0" stop-color="#4a382c"/><stop offset="1" stop-color="#301f1b"/></linearGradient><linearGradient x1="240.41834" y1="191.41436" x2="245.02107" y2="191.41436" gradientUnits="userSpaceOnUse" id="color-48"><stop offset="0" stop-color="#351c12"/><stop offset="1" stop-color="#1a1310"/></linearGradient><linearGradient x1="240.40596" y1="191.41608" x2="244.99805" y2="191.41608" gradientUnits="userSpaceOnUse" id="color-49"><stop offset="0" stop-color="#351c12"/><stop offset="1" stop-color="#1a1310"/></linearGradient><linearGradient x1="240.40596" y1="191.38114" x2="244.99805" y2="191.38114" gradientUnits="userSpaceOnUse" id="color-50"><stop offset="0" stop-color="#351c12"/><stop offset="1" stop-color="#1a1310"/></linearGradient><linearGradient x1="234.91715" y1="191.43766" x2="239.51989" y2="191.43766" gradientUnits="userSpaceOnUse" id="color-51"><stop offset="0" stop-color="#4a382c"/><stop offset="1" stop-color="#301f1b"/></linearGradient><linearGradient x1="234.91715" y1="191.43766" x2="239.51989" y2="191.43766" gradientUnits="userSpaceOnUse" id="color-52"><stop offset="0" stop-color="#351c12"/><stop offset="1" stop-color="#1a1310"/></linearGradient><linearGradient x1="234.90477" y1="191.43941" x2="239.49686" y2="191.43941" gradientUnits="userSpaceOnUse" id="color-53"><stop offset="0" stop-color="#351c12"/><stop offset="1" stop-color="#1a1310"/></linearGradient><linearGradient x1="234.90477" y1="191.40442" x2="239.49686" y2="191.40442" gradientUnits="userSpaceOnUse" id="color-54"><stop offset="0" stop-color="#351c12"/><stop offset="1" stop-color="#1a1310"/></linearGradient><linearGradient x1="234.72569" y1="179.54509" x2="245.20015" y2="179.54509" gradientUnits="userSpaceOnUse" id="color-55"><stop offset="0" stop-color="#515151"/><stop offset="1" stop-color="#131313"/></linearGradient><linearGradient x1="234.72569" y1="179.54509" x2="245.20015" y2="179.54509" gradientUnits="userSpaceOnUse" id="color-56"><stop offset="0" stop-color="#272727"/><stop offset="1" stop-color="#000000"/></linearGradient><linearGradient x1="235.27124" y1="177.2659" x2="244.58187" y2="177.2659" gradientUnits="userSpaceOnUse" id="color-57"><stop offset="0" stop-color="#272727"/><stop offset="1" stop-color="#000000"/></linearGradient><linearGradient x1="235.30761" y1="181.85803" x2="244.47276" y2="181.85803" gradientUnits="userSpaceOnUse" id="color-58"><stop offset="0" stop-color="#272727"/><stop offset="1" stop-color="#000000"/></linearGradient><linearGradient x1="234.02534" y1="161.97043" x2="245.9005" y2="161.97043" gradientUnits="userSpaceOnUse" id="color-59"><stop offset="0" stop-color="#c9c9c9"/><stop offset="1" stop-color="#3e3e3e"/></linearGradient><linearGradient x1="234.02534" y1="161.97043" x2="245.9005" y2="161.97043" gradientUnits="userSpaceOnUse" id="color-60"><stop offset="0" stop-color="#272727"/><stop offset="1" stop-color="#000000"/></linearGradient><linearGradient x1="237.43059" y1="158.12809" x2="242.47584" y2="158.12809" gradientUnits="userSpaceOnUse" id="color-61"><stop offset="0" stop-color="#8c8c8c"/><stop offset="1" stop-color="#222222"/></linearGradient><linearGradient x1="237.43059" y1="158.12809" x2="242.47585" y2="158.12809" gradientUnits="userSpaceOnUse" id="color-62"><stop offset="0" stop-color="#272727"/><stop offset="1" stop-color="#000000"/></linearGradient><linearGradient x1="237.54151" y1="157.49799" x2="242.32265" y2="157.49799" gradientUnits="userSpaceOnUse" id="color-63"><stop offset="0" stop-color="#ffffff"/><stop offset="1" stop-color="#606060"/></linearGradient><linearGradient x1="237.54151" y1="157.49799" x2="242.32265" y2="157.49799" gradientUnits="userSpaceOnUse" id="color-64"><stop offset="0" stop-color="#272727"/><stop offset="1" stop-color="#000000"/></linearGradient><radialGradient cx="239.40031" cy="161.93302" r="2.21521" gradientUnits="userSpaceOnUse" id="color-65"><stop offset="0" stop-color="#9cd7f7"/><stop offset="1" stop-color="#0087f6"/></radialGradient><linearGradient x1="237.74771" y1="163.11164" x2="242.17814" y2="163.11164" gradientUnits="userSpaceOnUse" id="color-66"><stop offset="0" stop-color="#272727"/><stop offset="1" stop-color="#000000"/></linearGradient><linearGradient x1="237.87173" y1="166.44274" x2="242.05411" y2="166.44274" gradientUnits="userSpaceOnUse" id="color-67"><stop offset="0" stop-color="#272727"/><stop offset="1" stop-color="#000000"/></linearGradient><linearGradient x1="237.87173" y1="165.88758" x2="242.05411" y2="165.88758" gradientUnits="userSpaceOnUse" id="color-68"><stop offset="0" stop-color="#272727"/><stop offset="1" stop-color="#000000"/></linearGradient><linearGradient x1="237.87173" y1="166.99793" x2="242.05411" y2="166.99793" gradientUnits="userSpaceOnUse" id="color-69"><stop offset="0" stop-color="#272727"/><stop offset="1" stop-color="#000000"/></linearGradient></defs><g transform="translate(-210.5,-150.14671)"><g data-paper-data="{&quot;isPaintingLayer&quot;:true}" fill-rule="nonzero" stroke-linejoin="miter" stroke-miterlimit="10" stroke-dasharray="" stroke-dashoffset="0" style="mix-blend-mode: normal"><path d="M212,208.35334v-56.70662h56v56.70662z" fill="url(#color-1)" stroke="url(#color-2)" stroke-width="3" stroke-linecap="butt"/><path d="M266.8571,180.00003c0,14.75036 -12.02433,26.70789 -26.8571,26.70789c-14.83277,0 -26.8571,-11.95753 -26.8571,-26.70789c0,-14.75036 12.02433,-26.70789 26.8571,-26.70789c14.83277,0 26.8571,11.95753 26.8571,26.70789z" fill="url(#color-3)" stroke="url(#color-4)" stroke-width="0" stroke-linecap="butt"/><g stroke-width="0.375"><path d="M234.09561,175.83805v-7.6869h11.73463v7.6869z" fill="url(#color-5)" stroke="url(#color-6)" stroke-linecap="butt"/><path d="M235.09483,171.99459c0,-2.68857 2.17952,-4.8681 4.8681,-4.8681c2.68857,0 4.8681,2.17952 4.8681,4.8681c0,2.68857 -2.17952,4.8681 -4.8681,4.8681c-2.68857,0 -4.8681,-2.17952 -4.8681,-4.8681z" fill="url(#color-7)" stroke="none" stroke-linecap="butt"/><path d="M236.01073,171.97729c0,-2.18272 1.76945,-3.95219 3.95219,-3.95219c2.18272,0 3.95219,1.76945 3.95219,3.95219c0,2.18272 -1.76945,3.95219 -3.95219,3.95219c-2.18272,0 -3.95219,-1.76945 -3.95219,-3.95219z" fill="url(#color-8)" stroke="none" stroke-linecap="butt"/><path d="M236.61707,171.97729c0,-1.84786 1.49799,-3.34585 3.34585,-3.34585c1.84786,0 3.34585,1.49799 3.34585,3.34585c0,1.84786 -1.49799,3.34585 -3.34585,3.34585c-1.84786,0 -3.34585,-1.49799 -3.34585,-3.34585z" fill="url(#color-9)" stroke="none" stroke-linecap="butt"/><path d="M237.21161,171.97729c0,-1.5195 1.2318,-2.75131 2.75131,-2.75131c1.5195,0 2.75131,1.2318 2.75131,2.75131c0,1.5195 -1.2318,2.75131 -2.75131,2.75131c-1.5195,0 -2.75131,-1.2318 -2.75131,-2.75131z" fill="url(#color-10)" stroke="none" stroke-linecap="butt"/><path d="M234.26073,174.99413v-6.01449h0.78651v6.01449z" fill="url(#color-11)" stroke="url(#color-12)" stroke-linecap="butt"/><path d="M244.90174,174.99413v-6.01449h0.78651v6.01449z" fill="url(#color-13)" stroke="url(#color-14)" stroke-linecap="butt"/><path d="M234.23925,175.02109l0.6345,-3.15868l0.60806,3.15868l0.81956,-3.1311l0.81956,3.1173l1.42762,-3.1173l1.37474,3.1311l1.21612,-3.1173l1.37474,3.10351l0.92531,-3.10351l1.00462,3.1311l0.6345,-3.1173l0.60806,3.08972" fill="none" stroke="url(#color-15)" stroke-linecap="round"/><path d="M245.6866,171.89l-0.60806,3.08972l-0.6345,-3.1173l-1.00462,3.1311l-0.92531,-3.10351l-1.37474,3.10351l-1.21612,-3.1173l-1.37474,3.1311l-1.42762,-3.1173l-0.81956,3.1173l-0.81956,-3.1311l-0.60806,3.15868l-0.6345,-3.15868" data-paper-data="{&quot;index&quot;:null}" fill="none" stroke="url(#color-16)" stroke-linecap="round"/><path d="M234.26568,171.9808l0.6345,-3.15868l0.60806,3.15868l0.81956,-3.1311l0.81956,3.1173l1.42762,-3.1173l1.37474,3.1311l1.21612,-3.1173l1.37474,3.10351l0.92531,-3.10351l1.00462,3.1311l0.6345,-3.1173l0.60806,3.08972" fill="none" stroke="url(#color-17)" stroke-linecap="round"/><path d="M245.71304,168.84971l-0.60806,3.08972l-0.6345,-3.1173l-1.00462,3.1311l-0.92531,-3.10351l-1.37474,3.10351l-1.21612,-3.1173l-1.37474,3.1311l-1.42762,-3.1173l-0.81956,3.1173l-0.81956,-3.1311l-0.60806,3.15868l-0.6345,-3.15868" data-paper-data="{&quot;index&quot;:null}" fill="none" stroke="url(#color-18)" stroke-linecap="round"/><path d="M234.12605,175.72704v-0.67856h11.56632v0.67856z" fill="url(#color-19)" stroke="url(#color-20)" stroke-linecap="butt"/><path d="M234.17892,168.9591v-0.67856h11.56632v0.67856z" fill="url(#color-21)" stroke="url(#color-22)" stroke-linecap="butt"/></g><g stroke-width="0.375"><path d="M242.72034,198.95184v-3.18305h0.96232v3.18305z" fill="url(#color-23)" stroke="url(#color-24)" stroke-linecap="butt"/><path d="M233.91913,204.27584c0,0 4.43412,-11.96224 5.93839,-11.87516c1.72086,0.09961 5.93677,11.87516 5.93677,11.87516z" fill="url(#color-25)" stroke="url(#color-26)" stroke-linecap="butt"/><path d="M241.75802,195.07787h-3.77525" fill="none" stroke="url(#color-27)" stroke-linecap="round"/><path d="M242.83137,197.49674h-6.07001" fill="none" stroke="url(#color-28)" stroke-linecap="round"/><path d="M235.73676,200.167h8.14901" fill="none" stroke="url(#color-29)" stroke-linecap="round"/><path d="M234.65167,202.82651h10.36342" fill="none" stroke="url(#color-30)" stroke-linecap="round"/><path d="M244.79319,194.20519c-0.01122,1.40989 -0.04674,1.56075 -1.49928,1.54581c-1.453,-0.01495 -1.5173,-0.206 -1.49928,-1.54581c0.0199,-1.47924 0.01567,-1.58206 1.49928,-1.54581c1.42149,0.03474 1.5116,-0.0024 1.49928,1.54581z" fill="url(#color-31)" stroke="url(#color-32)" stroke-linecap="butt"/></g><path d="M245.8521,194.95954v-12.00153c0,0 1.51031,8.05637 2.03835,10.00153c0.41777,1.53896 1.98766,4.74854 1.98766,4.74854z" fill="url(#color-33)" stroke="url(#color-34)" stroke-width="0.375" stroke-linecap="butt"/><path d="M230.1219,197.64636c0,0 1.56988,-3.20957 1.98766,-4.74854c0.52804,-1.94516 2.03835,-10.00153 2.03835,-10.00153v12.00153z" data-paper-data="{&quot;index&quot;:null}" fill="url(#color-35)" stroke="url(#color-36)" stroke-width="0.375" stroke-linecap="butt"/><path d="M234.13156,194.99384v-19.25322h11.73463v19.25322z" fill="url(#color-37)" stroke="url(#color-38)" stroke-width="0.375" stroke-linecap="butt"/><g stroke-width="0.375"><path d="M240.41834,188.25857v-4.79213h4.60274v4.79213z" fill="url(#color-39)" stroke="url(#color-40)" stroke-linecap="butt"/><path d="M240.40596,188.19527l4.59209,-4.66202" fill="none" stroke="url(#color-41)" stroke-linecap="round"/><path d="M244.99805,188.21858l-4.54547,-4.73195" fill="none" stroke="url(#color-42)" stroke-linecap="round"/></g><g stroke-width="0.375"><path d="M234.91715,188.2819v-4.79213h4.60274v4.79213z" fill="url(#color-43)" stroke="url(#color-44)" stroke-linecap="butt"/><path d="M234.90477,188.21859l4.59209,-4.66202" fill="none" stroke="url(#color-45)" stroke-linecap="round"/><path d="M239.49686,188.24189l-4.54547,-4.73195" fill="none" stroke="url(#color-46)" stroke-linecap="round"/></g><g stroke-width="0.375"><path d="M240.41834,193.81041v-4.79213h4.60274v4.79213z" fill="url(#color-47)" stroke="url(#color-48)" stroke-linecap="butt"/><path d="M244.99805,189.08507l-4.59209,4.66202" fill="none" stroke="url(#color-49)" stroke-linecap="round"/><path d="M244.99805,193.77041l-4.54547,-4.73195" fill="none" stroke="url(#color-50)" stroke-linecap="round"/></g><g stroke-width="0.375"><path d="M234.91715,193.83374v-4.79213h4.60274v4.79213z" fill="url(#color-51)" stroke="url(#color-52)" stroke-linecap="butt"/><path d="M234.90477,193.77042l4.59209,-4.66202" fill="none" stroke="url(#color-53)" stroke-linecap="round"/><path d="M239.49686,193.79372l-4.54547,-4.73195" fill="none" stroke="url(#color-54)" stroke-linecap="round"/></g><g stroke-width="0.375"><path d="M234.72569,182.43205v-5.77391h10.47446v5.77391z" fill="url(#color-55)" stroke="url(#color-56)" stroke-linecap="butt"/><path d="M235.27124,177.2659h9.31063" fill="none" stroke="url(#color-57)" stroke-linecap="round"/><path d="M235.30761,181.85803h9.16515" fill="none" stroke="url(#color-58)" stroke-linecap="round"/></g><path d="M234.02534,167.90827c0,0 4.37243,-11.96224 5.87671,-11.87516c1.72086,0.09961 5.99845,11.87516 5.99845,11.87516z" fill="url(#color-59)" stroke="url(#color-60)" stroke-width="0.375" stroke-linecap="butt"/><path d="M237.47776,159.82741l0.20466,-0.45631l4.54453,-0.01271l0.20172,0.46902z" fill="url(#color-61)" stroke="url(#color-62)" stroke-width="0.375" stroke-linecap="butt"/><path d="M237.54151,159.2718c0,0 1.76042,-3.57347 2.36607,-3.54746c0.69285,0.02976 2.41508,3.54746 2.41508,3.54746z" fill="url(#color-63)" stroke="url(#color-64)" stroke-width="0.375" stroke-linecap="butt"/><path d="M242.17814,163.11164c0,1.19898 -0.99179,2.17095 -2.21521,2.17095c-1.22343,0 -2.21521,-0.97197 -2.21521,-2.17095c0,-1.19898 0.99179,-2.17095 2.21521,-2.17095c1.22343,0 2.21521,0.97197 2.21521,2.17095z" fill="url(#color-65)" stroke="url(#color-66)" stroke-width="0.375" stroke-linecap="butt"/><path d="M242.05411,166.44274h-4.18238" fill="none" stroke="url(#color-67)" stroke-width="0.375" stroke-linecap="round"/><path d="M237.87173,165.88758h4.18238" fill="none" stroke="url(#color-68)" stroke-width="0.375" stroke-linecap="round"/><path d="M237.87173,166.99793h4.18238" fill="none" stroke="url(#color-69)" stroke-width="0.375" stroke-linecap="round"/><path d="M215.27327,167.03273v-12.39235h25.93332v8.69862h-15.56684v3.69373z" fill-opacity="0.53453" fill="#000000" stroke="#a60000" stroke-width="0" stroke-linecap="butt"/><text transform="translate(215.70712,161.6152) scale(0.21839,0.21839)" font-size="40" xml:space="preserve" fill="#ffffff" fill-rule="nonzero" stroke="#000000" stroke-width="0" stroke-linecap="butt" stroke-linejoin="miter" stroke-miterlimit="10" stroke-dasharray="" stroke-dashoffset="0" font-family="Serif" font-weight="normal" text-anchor="start" style="mix-blend-mode: normal"><tspan x="0" dy="0">Rocket</tspan></text><text transform="translate(215.56527,166.16681) scale(0.11601,0.11601)" font-size="40" xml:space="preserve" fill="#ffffff" fill-rule="nonzero" stroke="#000000" stroke-width="0" stroke-linecap="butt" stroke-linejoin="miter" stroke-miterlimit="10" stroke-dasharray="" stroke-dashoffset="0" font-family="Serif" font-weight="normal" text-anchor="start" style="mix-blend-mode: normal"><tspan x="0" dy="0">1-1-2</tspan></text></g></g></svg>