<svg version="1.1" xmlns="http://www.w3.org/2000/svg" xmlns:xlink="http://www.w3.org/1999/xlink" width="44.50231" height="104.11952" viewBox="0,0,44.50231,104.11952"><defs><radialGradient cx="235.52448" cy="177.50476" r="21.06357" gradientUnits="userSpaceOnUse" id="color-1"><stop offset="0" stop-color="#353535"/><stop offset="1" stop-color="#8c8c8c"/></radialGradient><linearGradient x1="239.74787" y1="156.56832" x2="239.74787" y2="163.41937" gradientUnits="userSpaceOnUse" id="color-2"><stop offset="0" stop-color="#696969"/><stop offset="1" stop-color="#a0a0a0"/></linearGradient><radialGradient cx="235.71182" cy="133.91612" r="13.11833" gradientUnits="userSpaceOnUse" id="color-3"><stop offset="0" stop-color="#dcdcdc"/><stop offset="1" stop-color="#a0a0a0"/></radialGradient><radialGradient cx="242.43512" cy="139.4174" r="8.83664" gradientUnits="userSpaceOnUse" id="color-4"><stop offset="0" stop-color="#ffc4c4"/><stop offset="1" stop-color="#ff2121"/></radialGradient></defs><g transform="translate(-219.48757,-130.14767)"><g data-paper-data="{&quot;isPaintingLayer&quot;:true}" fill-rule="nonzero" stroke-linejoin="miter" stroke-miterlimit="10" stroke-dasharray="" stroke-dashoffset="0" style="mix-blend-mode: normal"><path d="M221.55679,200.07636v-45.14319h27.93538v45.14319z" fill="url(#color-1)" stroke="#ed6b00" stroke-width="0" stroke-linecap="butt"/><g><path d="M224.15219,226.37457l6.13236,-33.36007c0,0 10.43894,-1.18026 12.17541,-0.31409c0.95196,0.47484 0.00432,1.87031 -1.72921,2.86045c-1.41977,0.81092 -3.60718,1.25042 -3.68694,1.52709c-1.24382,4.31386 -4.90851,29.8523 -4.90851,29.8523z" fill="#494949" stroke="#000000" stroke-width="0" stroke-linecap="butt"/><path d="M237.75946,232.40819c0,0 -0.48441,1.91069 -1.22896,1.85793c-0.53372,-0.03782 -2.38172,-0.15507 -4.23106,-0.36687c-1.12435,-0.12876 -1.66901,-0.73761 -2.49932,-0.93964c-1.04532,-0.25435 -2.66142,0.03243 -3.41253,-0.21278c-1.38404,-0.45184 -2.08313,-0.92737 -2.08313,-0.92737c0,0 -0.16983,-1.04 -0.14507,-1.60006c0.03337,-0.75453 0.32728,-2.52018 0.32728,-2.52018c0,0 5.3516,0.25935 7.42177,0.60686c1.22498,0.20564 3.77247,0.91574 3.77247,0.91574c0,0 1.27083,0.70719 1.43299,1.14699c0.19857,0.53863 0.64553,2.03939 0.64553,2.03939z" data-paper-data="{&quot;index&quot;:null}" fill="#141415" stroke="#000000" stroke-width="0" stroke-linecap="butt"/><path d="M237.56041,231.75785c0,0 -0.34727,-0.02461 -1.09181,-0.07737c-0.22351,-0.01584 0.51923,1.64246 -2.45156,1.16274c-2.80539,-0.45302 -2.41594,-1.3624 -3.40466,-1.51327c-2.06742,-0.31546 -2.37196,0.42845 -3.26126,0.21206c-0.3097,-0.07536 -0.45355,-0.14697 -1.53823,-1.08178c-0.74599,-0.64291 -0.47558,-1.78931 -0.97121,-2.45409c-0.72399,-0.97106 -0.59465,-1.93267 -0.59465,-1.93267l0.14665,-3.04498c0,0 0.28193,2.23233 0.97903,3.1082c0.62371,0.78366 2.08744,0.12912 2.52296,0.15984c0.76261,0.0538 -0.38924,-3.30383 0.33858,-3.23397c0.39134,0.03757 3.36848,0.00402 3.36848,0.00402c0,0 -0.14227,3.57877 0.06607,3.61375c1.22496,0.20564 4.1,0.93895 4.1,0.93895c0,0 1.27083,0.70719 1.43299,1.14699c0.19858,0.53863 0.35862,2.99156 0.35862,2.99156z" data-paper-data="{&quot;index&quot;:null}" fill="#252527" stroke="#000000" stroke-width="0" stroke-linecap="butt"/><path d="M229.95025,228.27262l2.47914,-0.9184" fill="none" stroke="#ffffff" stroke-width="0.5" stroke-linecap="round"/><path d="M234.06709,227.47027l-2.39566,1.289" fill="none" stroke="#ffffff" stroke-width="0.5" stroke-linecap="round"/><path d="M233.61956,229.14044l1.41304,-1.35864" fill="none" stroke="#ffffff" stroke-width="0.5" stroke-linecap="round"/><path d="M229.13271,224.32467l1.98241,-0.10265" fill="none" stroke="#969696" stroke-width="0.5" stroke-linecap="round"/><path d="M231.28205,224.96322l-1.7726,0.23909" fill="none" stroke="#969696" stroke-width="0.5" stroke-linecap="round"/></g><g><path d="M248.21006,227.20948c0,0 -3.70295,-25.53292 -4.95323,-29.84491c-0.08018,-0.27654 -2.26825,-0.71276 -3.68922,-1.52156c-1.73501,-0.98755 -2.68475,-2.38158 -1.73349,-2.85786c1.73516,-0.86876 12.17587,0.29585 12.17587,0.29585l6.18234,33.35084z" data-paper-data="{&quot;index&quot;:null}" fill="#494949" stroke="#000000" stroke-width="0" stroke-linecap="butt"/><path d="M262.9205,232.75197c-0.59121,0.04278 -2.63623,0.20446 -4.69692,0.27282c-1.25285,0.04157 -1.94178,-0.47889 -2.88303,-0.55399c-1.18498,-0.09454 -2.91496,0.43199 -3.77581,0.30228c-1.58624,-0.23901 -2.42458,-0.6044 -2.42458,-0.6044c0,0 -0.34242,-1.0033 -0.39931,-1.56105c-0.07665,-0.75144 -0.01921,-2.54225 -0.01921,-2.54225c0,0 5.91014,-0.54758 8.23345,-0.51485c1.37477,0.01936 4.27619,0.33904 4.27619,0.33904c0,0 1.50038,0.50863 1.74427,0.91933c0.2987,0.503 1.01433,1.92045 1.01433,1.92045c0,0 -0.24466,1.96293 -1.06939,2.02261z" data-paper-data="{&quot;index&quot;:null}" fill="#141415" stroke="#000000" stroke-width="0" stroke-linecap="butt"/><path d="M262.46447,230.20343c-0.24757,0.01792 0.81617,1.54678 -2.51506,1.5186c-3.14575,-0.0266 -2.855,-0.98473 -3.96236,-0.98541c-2.31551,-0.00142 -2.53795,0.78025 -3.54606,0.69982c-0.35109,-0.02801 -0.51964,-0.07724 -1.84997,-0.83901c-0.91492,-0.5239 -0.79032,-1.69861 -1.43385,-2.28176c-0.94002,-0.85182 -0.94247,-1.82253 -0.94247,-1.82253l-0.29615,-3.03427c0,0 0.64436,2.16595 1.54062,2.92766c0.8019,0.68151 2.3095,-0.18593 2.79191,-0.22098c0.84473,-0.06137 -0.92293,-3.2098 -0.11397,-3.25005c0.43499,-0.02164 3.69614,-0.50218 3.69614,-0.50218c0,0 0.38109,3.56167 0.61489,3.56497c1.37477,0.01936 4.63902,0.31278 4.63902,0.31278c0,0 1.50038,0.50863 1.74428,0.91933c0.2987,0.503 0.84246,2.9055 0.84246,2.9055c0,0 -0.38469,0.02784 -1.20944,0.08752z" data-paper-data="{&quot;index&quot;:null}" fill="#252527" stroke="#000000" stroke-width="0" stroke-linecap="butt"/><path d="M257.38373,226.53063l-2.58197,1.28103" fill="none" stroke="#ffffff" stroke-width="0.5" stroke-linecap="round"/><path d="M256.7631,228.03446l2.43478,-1.63511" fill="none" stroke="#ffffff" stroke-width="0.5" stroke-linecap="round"/><path d="M258.95758,228.11881l1.3463,-1.55634" fill="none" stroke="#ffffff" stroke-width="0.5" stroke-linecap="round"/><path d="M255.47172,223.62959l-2.15946,0.39943" fill="none" stroke="#969696" stroke-width="0.5" stroke-linecap="round"/><path d="M253.8573,224.8406l1.90883,-0.50287" fill="none" stroke="#969696" stroke-width="0.5" stroke-linecap="round"/></g><g stroke="#000000" stroke-width="0" stroke-linecap="butt"><path d="M254.20105,188.81741c0,0 0.19395,-3.01463 -0.68599,-6.4116c-0.2116,-0.81688 -0.73241,-3.52611 -0.95729,-4.36313c-0.53224,-1.98101 -1.12438,-3.92661 -1.42354,-5.14912c-0.64345,-2.6294 -1.38804,-5.97844 -1.38804,-5.97844c0,0 -1.30837,-6.59622 -0.35711,-6.96244c5.56332,-2.14179 5.64095,5.44217 5.64095,5.44217c0,0 1.13466,4.76585 1.81878,7.56141c0.27842,1.13772 -0.05155,2.1303 0.31666,3.90892c0.16506,0.7973 0.42859,4.30752 0.68153,6.44328c0.42112,3.55596 1.02343,5.66105 1.02343,5.66105z" data-paper-data="{&quot;index&quot;:null}" fill="#bdbdbd"/><path d="M259.39497,193.46509c-0.20648,-0.00252 0.38069,3.70369 -0.4893,3.75964c-0.42791,0.02751 -0.28838,-2.42197 -0.96219,-3.18871c-0.35666,-0.40586 0.79727,4.21894 -0.37288,3.8575c-0.40173,-0.1241 -0.47937,-3.56572 -0.97158,-4.33921c-0.26348,-0.41407 0.60608,5.18733 -0.17359,4.99152c-0.46283,-0.11624 -0.36169,-3.2692 -0.81298,-4.63575c-0.21985,-0.66575 0.04231,3.87376 -0.53214,3.60812c-0.35164,-0.16261 -0.82311,-4.58053 -0.86495,-4.62667c-0.23519,-0.25931 -0.66421,2.49164 -0.99227,1.87344c-0.60465,-1.13935 0.16148,-2.65173 0.74194,-4.05712c0.33915,-0.82111 0.24967,-1.99839 0.24967,-1.99839c0,0 1.53052,-0.63312 2.31886,-0.60745c0.76757,0.025 2.35052,0.75954 2.35052,0.75954c0,0 0.94836,4.60887 0.51092,4.60353z" data-paper-data="{&quot;index&quot;:null}" fill="#5c4747"/></g><g stroke-width="0" stroke-linecap="butt"><path d="M235.91979,163.41937v-6.85104h7.65615v6.85104z" fill="url(#color-2)" stroke="#000000"/><path d="M252.80944,144.14573c0,7.73092 -5.73774,13.99807 -12.8156,13.99807c-7.07786,0 -12.8156,-6.26715 -12.8156,-13.99807c0,-7.73092 5.73774,-13.99806 12.8156,-13.99806c7.07786,0 12.8156,6.26714 12.8156,13.99806z" fill="url(#color-3)" stroke="none"/><path d="M253.91261,142.97429c0,4.88691 0.03443,10.71868 -8.60517,11.34206c-9.65195,0.69642 -9.06107,-6.45514 -9.06107,-11.34206c0,-4.88691 3.95473,-8.84854 8.83313,-8.84854c4.8784,0 8.83313,3.96163 8.83313,8.84854z" data-paper-data="{&quot;index&quot;:null}" fill="url(#color-4)" stroke="#ed6b00"/></g><g stroke-width="0" stroke-linecap="butt"><path d="M229.63979,193.59141c0,0 0.16709,-5.5597 -0.35268,-10.94382c-0.35317,-3.65847 -1.40473,-6.95919 -1.56162,-9.45339c-0.29447,-4.68133 -0.2105,-13.38223 -0.2105,-13.38223c0,0 3.69178,-0.58477 5.4694,-0.21857c2.26281,0.46615 7.00656,2.78867 7.00656,2.78867c0,0 3.67689,-2.17061 5.59031,-2.58687c2.01891,-0.43921 6.22369,0.01677 6.22369,0.01677c0,0 -0.06905,9.21711 -0.22689,12.65629c-0.13965,3.04285 -0.88957,6.36811 -1.18346,10.87293c-0.3029,4.64296 -0.14784,10.42155 -0.14784,10.42155c0,0 -2.75697,-0.76932 -5.57187,-0.83754c-1.27833,-0.03098 -1.79126,1.00612 -2.99851,1.16532c-0.96496,0.12724 -2.63623,-0.61291 -3.56107,-0.64966c-0.69915,-0.02778 -2.04377,-0.5306 -2.53801,-0.53471c-0.99795,-0.0083 -1.61572,0.86529 -2.77345,1.02464c-1.34484,0.1851 -3.1641,-0.33939 -3.1641,-0.33939z" fill="#d0d0d0" stroke="#292e32"/><path d="M245.9343,170.5071l-0.06967,-5.82045l4.38934,0.36378v5.21415z" fill="#ff0000" stroke="none"/></g><g stroke="#000000" stroke-width="0" stroke-linecap="butt"><path d="M220.11706,188.7461c0,0 0.67629,-2.10013 1.07366,-5.65885c0.23866,-2.13741 0.44078,-5.65319 0.61814,-6.44979c0.39564,-1.77706 -0.05258,-2.77876 0.25407,-3.91468c0.75349,-2.79114 1.99854,-7.55002 1.99854,-7.55002c0,0 -0.00998,-7.93938 7.29754,-5.65494c1.16659,0.36469 -0.6407,7.27844 -0.6407,7.27844c0,0 -0.809,3.34514 -1.51771,5.97037c-0.32951,1.22056 -0.99887,3.16092 -1.5921,5.1379c-0.25065,0.83532 -0.80325,3.54291 -1.03804,4.35828c-0.97637,3.39067 -0.62485,6.41793 -0.62485,6.41793z" fill="#bdbdbd"/><path d="M219.65006,193.47253c-0.54636,-0.00146 0.46024,-4.60888 0.46024,-4.60888c0,0 1.94943,-0.71198 2.90752,-0.72508c0.98402,-0.01346 2.92086,0.64537 2.92086,0.64537c0,0 -0.06624,1.17929 0.38928,2.00806c0.77965,1.4185 1.79543,2.94721 1.08402,4.08043c-0.386,0.61488 -1.02848,-2.15072 -1.31231,-1.89433c-0.0505,0.04562 -0.46864,4.46898 -0.90171,4.62657c-0.70748,0.25745 -0.55557,-4.2911 -0.80451,-3.62686c-0.51099,1.36346 -0.26261,4.52713 -0.83641,4.63648c-0.96661,0.18423 -0.09686,-5.41982 -0.41005,-5.00867c-0.58507,0.76805 -0.54891,4.21842 -1.04606,4.33661c-1.44808,0.34424 -0.18523,-4.27595 -0.61517,-3.87448c-0.81223,0.75845 -0.54312,3.2172 -1.07884,3.18293c-1.0892,-0.06968 -0.49895,-3.77746 -0.75685,-3.77815z" data-paper-data="{&quot;index&quot;:null}" fill="#5c4747"/></g></g></g></svg>