<svg version="1.1" xmlns="http://www.w3.org/2000/svg" xmlns:xlink="http://www.w3.org/1999/xlink" width="12.21728" height="13.7145" viewBox="0,0,12.21728,13.7145"><defs><radialGradient cx="270.5807" cy="179.98655" r="6.2205" gradientUnits="userSpaceOnUse" id="color-1"><stop offset="0" stop-color="#7d94ff"/><stop offset="1" stop-color="#7d94ff" stop-opacity="0"/></radialGradient><radialGradient cx="270.5807" cy="179.98655" r="6.2205" gradientUnits="userSpaceOnUse" id="color-2"><stop offset="0" stop-color="#7d94ff"/><stop offset="1" stop-color="#7d94ff" stop-opacity="0"/></radialGradient><radialGradient cx="270.5807" cy="179.98655" r="6.2205" gradientUnits="userSpaceOnUse" id="color-3"><stop offset="0" stop-color="#7d94ff"/><stop offset="1" stop-color="#7d94ff" stop-opacity="0"/></radialGradient><radialGradient cx="270.5807" cy="179.98655" r="6.2205" gradientUnits="userSpaceOnUse" id="color-4"><stop offset="0" stop-color="#7d94ff"/><stop offset="1" stop-color="#7d94ff" stop-opacity="0"/></radialGradient><radialGradient cx="270.58757" cy="180.00001" r="5.89864" gradientUnits="userSpaceOnUse" id="color-5"><stop offset="0" stop-color="#3662ff"/><stop offset="1" stop-color="#3662ff" stop-opacity="0"/></radialGradient><radialGradient cx="270.58757" cy="180.00001" r="5.89864" gradientUnits="userSpaceOnUse" id="color-6"><stop offset="0" stop-color="#3662ff"/><stop offset="1" stop-color="#3662ff" stop-opacity="0"/></radialGradient><radialGradient cx="270.60131" cy="180.00001" r="5.58179" gradientUnits="userSpaceOnUse" id="color-7"><stop offset="0" stop-color="#3644ff"/><stop offset="1" stop-color="#3644ff" stop-opacity="0"/></radialGradient><radialGradient cx="271.375" cy="178.1389" r="5.22319" gradientUnits="userSpaceOnUse" id="color-8"><stop offset="0" stop-color="#2474ff"/><stop offset="1" stop-color="#0043db"/></radialGradient><radialGradient cx="265.10627" cy="178.24015" r="5.02073" gradientUnits="userSpaceOnUse" id="color-9"><stop offset="0" stop-color="#ccae91"/><stop offset="1" stop-color="#77ac37"/></radialGradient><linearGradient x1="273.85343" y1="177.09291" x2="273.85343" y2="181.24176" gradientUnits="userSpaceOnUse" id="color-10"><stop offset="0" stop-color="#77ac37"/><stop offset="1" stop-color="#ccd98c"/></linearGradient><linearGradient x1="273.39272" y1="175.6388" x2="273.39272" y2="177.57123" gradientUnits="userSpaceOnUse" id="color-11"><stop offset="0" stop-color="#5f9235"/><stop offset="1" stop-color="#78ad38"/></linearGradient><radialGradient cx="267.02694" cy="179.9428" r="1.39952" gradientUnits="userSpaceOnUse" id="color-12"><stop offset="0" stop-color="#ffffff"/><stop offset="1" stop-color="#ffffff" stop-opacity="0.67843"/></radialGradient><radialGradient cx="272.72964" cy="183.10497" r="2.06182" gradientUnits="userSpaceOnUse" id="color-13"><stop offset="0" stop-color="#ffffff"/><stop offset="1" stop-color="#ffffff" stop-opacity="0.67843"/></radialGradient><radialGradient cx="271.40531" cy="177.8347" r="1.91183" gradientUnits="userSpaceOnUse" id="color-14"><stop offset="0" stop-color="#ffffff"/><stop offset="1" stop-color="#ffffff" stop-opacity="0.67843"/></radialGradient><radialGradient cx="274.56748" cy="177.02389" r="1.76351" gradientUnits="userSpaceOnUse" id="color-15"><stop offset="0" stop-color="#ffffff"/><stop offset="1" stop-color="#ffffff" stop-opacity="0.67843"/></radialGradient><radialGradient cx="265.81072" cy="176.64551" r="1.4527" gradientUnits="userSpaceOnUse" id="color-16"><stop offset="0" stop-color="#ffffff"/><stop offset="1" stop-color="#ffffff" stop-opacity="0.67843"/></radialGradient><radialGradient cx="270.5945" cy="175.02389" r="1.66892" gradientUnits="userSpaceOnUse" id="color-17"><stop offset="0" stop-color="#ffffff"/><stop offset="1" stop-color="#ffffff" stop-opacity="0.67843"/></radialGradient><radialGradient cx="267.27017" cy="184.26713" r="2.43747" gradientUnits="userSpaceOnUse" id="color-18"><stop offset="0" stop-color="#ffffff"/><stop offset="1" stop-color="#ffffff" stop-opacity="0.67843"/></radialGradient><radialGradient cx="267.27017" cy="184.26713" r="2.43747" gradientUnits="userSpaceOnUse" id="color-19"><stop offset="0" stop-color="#ffffff"/><stop offset="1" stop-color="#ffffff" stop-opacity="0.67843"/></radialGradient><radialGradient cx="267.27017" cy="184.26713" r="2.43747" gradientUnits="userSpaceOnUse" id="color-20"><stop offset="0" stop-color="#ffffff"/><stop offset="1" stop-color="#ffffff" stop-opacity="0.67843"/></radialGradient><radialGradient cx="264.72964" cy="180.61848" r="0.85976" gradientUnits="userSpaceOnUse" id="color-21"><stop offset="0" stop-color="#ffffff"/><stop offset="1" stop-color="#ffffff" stop-opacity="0.67843"/></radialGradient><radialGradient cx="270.45936" cy="179.9428" r="0.61487" gradientUnits="userSpaceOnUse" id="color-22"><stop offset="0" stop-color="#ffffff"/><stop offset="1" stop-color="#ffffff" stop-opacity="0.67843"/></radialGradient><radialGradient cx="272.8918" cy="180.37524" r="0.70946" gradientUnits="userSpaceOnUse" id="color-23"><stop offset="0" stop-color="#ffffff"/><stop offset="1" stop-color="#ffffff" stop-opacity="0.67843"/></radialGradient><radialGradient cx="274.20183" cy="179.32359" r="0.41457" gradientUnits="userSpaceOnUse" id="color-24"><stop offset="0" stop-color="#ffffff"/><stop offset="1" stop-color="#ffffff" stop-opacity="0.67843"/></radialGradient><radialGradient cx="268.1891" cy="177.86172" r="0.42568" gradientUnits="userSpaceOnUse" id="color-25"><stop offset="0" stop-color="#ffffff"/><stop offset="1" stop-color="#ffffff" stop-opacity="0.67843"/></radialGradient><radialGradient cx="268.37829" cy="175.99686" r="0.56081" gradientUnits="userSpaceOnUse" id="color-26"><stop offset="0" stop-color="#ffffff"/><stop offset="1" stop-color="#ffffff" stop-opacity="0.67843"/></radialGradient><radialGradient cx="272.56748" cy="176.42929" r="0.42646" gradientUnits="userSpaceOnUse" id="color-27"><stop offset="0" stop-color="#ffffff"/><stop offset="1" stop-color="#ffffff" stop-opacity="0.67843"/></radialGradient><radialGradient cx="265.56748" cy="178.75597" r="0.52027" gradientUnits="userSpaceOnUse" id="color-28"><stop offset="0" stop-color="#ffffff"/><stop offset="1" stop-color="#ffffff" stop-opacity="0.67843"/></radialGradient><radialGradient cx="268.51097" cy="181.75334" r="0.65786" gradientUnits="userSpaceOnUse" id="color-29"><stop offset="0" stop-color="#ffffff"/><stop offset="1" stop-color="#ffffff" stop-opacity="0.67843"/></radialGradient><radialGradient cx="266.24315" cy="181.88875" r="0.49325" gradientUnits="userSpaceOnUse" id="color-30"><stop offset="0" stop-color="#ffffff"/><stop offset="1" stop-color="#ffffff" stop-opacity="0.67843"/></radialGradient><radialGradient cx="270.35126" cy="183.56443" r="0.34459" gradientUnits="userSpaceOnUse" id="color-31"><stop offset="0" stop-color="#ffffff"/><stop offset="1" stop-color="#ffffff" stop-opacity="0.67843"/></radialGradient><radialGradient cx="271.37829" cy="184.8347" r="0.41017" gradientUnits="userSpaceOnUse" id="color-32"><stop offset="0" stop-color="#ffffff"/><stop offset="1" stop-color="#ffffff" stop-opacity="0.67843"/></radialGradient><radialGradient cx="272.83775" cy="184.42929" r="0.39201" gradientUnits="userSpaceOnUse" id="color-33"><stop offset="0" stop-color="#ffffff"/><stop offset="1" stop-color="#ffffff" stop-opacity="0.67843"/></radialGradient><radialGradient cx="275.27017" cy="181.18605" r="0.92568" gradientUnits="userSpaceOnUse" id="color-34"><stop offset="0" stop-color="#ffffff"/><stop offset="1" stop-color="#ffffff" stop-opacity="0.67843"/></radialGradient><radialGradient cx="270.03412" cy="180.00001" r="5.35266" gradientUnits="userSpaceOnUse" id="color-35"><stop offset="0" stop-color="#5b92f1" stop-opacity="0.38039"/><stop offset="1" stop-color="#337be0" stop-opacity="0.12941"/></radialGradient><radialGradient cx="270.03412" cy="180.00001" r="5.48195" gradientUnits="userSpaceOnUse" id="color-36"><stop offset="0" stop-color="#3894ff" stop-opacity="0.28235"/><stop offset="1" stop-color="#3894ff" stop-opacity="0"/></radialGradient><radialGradient cx="270.03412" cy="180.00001" r="5.48195" gradientUnits="userSpaceOnUse" id="color-37"><stop offset="0" stop-color="#3894ff" stop-opacity="0.28235"/><stop offset="1" stop-color="#3894ff" stop-opacity="0"/></radialGradient><radialGradient cx="270.03412" cy="180.00001" r="5.48195" gradientUnits="userSpaceOnUse" id="color-38"><stop offset="0" stop-color="#3894ff" stop-opacity="0.28235"/><stop offset="1" stop-color="#3894ff" stop-opacity="0"/></radialGradient><radialGradient cx="270.03412" cy="180.00001" r="5.48195" gradientUnits="userSpaceOnUse" id="color-39"><stop offset="0" stop-color="#3894ff" stop-opacity="0.28235"/><stop offset="1" stop-color="#3894ff" stop-opacity="0"/></radialGradient><linearGradient x1="264.63414" y1="179.99997" x2="275.23342" y2="179.99997" gradientUnits="userSpaceOnUse" id="color-40"><stop offset="0" stop-color="#130a00"/><stop offset="1" stop-color="#130a00" stop-opacity="0"/></linearGradient><linearGradient x1="264.7075" y1="179.99075" x2="275.27398" y2="179.99075" gradientUnits="userSpaceOnUse" id="color-41"><stop offset="0" stop-color="#000000"/><stop offset="1" stop-color="#000000" stop-opacity="0"/></linearGradient><linearGradient x1="264.7075" y1="179.99075" x2="275.27398" y2="179.99075" gradientUnits="userSpaceOnUse" id="color-42"><stop offset="0" stop-color="#000000"/><stop offset="1" stop-color="#000000" stop-opacity="0"/></linearGradient></defs><g transform="translate(-264.58393,-173.12929)"><g data-paper-data="{&quot;isPaintingLayer&quot;:true}" fill-rule="nonzero" stroke="none" stroke-width="0.5" stroke-linecap="butt" stroke-linejoin="miter" stroke-miterlimit="10" stroke-dasharray="" stroke-dashoffset="0" style="mix-blend-mode: normal"><g><path d="M270.5807,186.8438c-1.65438,0 -3.07488,-0.71194 -4.10311,-1.87306c0.00052,0 0.00106,0 0.00158,0c0.01668,0 0.03296,-0.00163 0.04872,-0.00474c0.00919,0.00456 0.01843,0.00907 0.02774,0.01356c0.22251,0.26653 0.71087,0.49718 1.11539,0.60548c0.04392,0.04068 0.10248,0.06579 0.16689,0.06654c0.0333,0.09895 0.12682,0.17023 0.23701,0.17023c0.13807,0 0.25,-0.11193 0.25,-0.25c0,-0.07904 -0.03668,-0.14952 -0.09395,-0.19532c-0.00724,-0.00924 -0.01503,-0.01873 -0.02339,-0.02849l-0.01083,-0.0006c-0.07065,-0.07772 -0.346,-0.2819 -0.65504,-0.47646c-0.38484,-0.29007 -0.92379,-0.68062 -1.22419,-0.80357c-0.06682,-0.07142 -0.13789,-0.13805 -0.20132,-0.19758c-0.01351,-0.01269 -0.0268,-0.0251 -0.03984,-0.03724c-0.005,-0.01249 -0.01123,-0.02569 -0.01876,-0.03964c-0.01507,-0.04674 -0.04353,-0.08748 -0.08086,-0.11768c-0.00579,-0.00715 -0.01181,-0.01444 -0.01807,-0.02185c-0.00952,-0.0166 -0.02088,-0.03201 -0.03381,-0.04594c-0.01737,-0.02383 -0.0371,-0.04825 -0.05881,-0.07282c0.02367,0.01351 -0.04154,-0.06007 -0.14267,-0.16746c-0.03021,-0.03761 -0.05887,-0.07321 -0.08605,-0.1069c-0.05518,-0.0732 -0.10539,-0.1396 -0.15094,-0.19963c-0.00662,-0.05749 -0.03274,-0.10903 -0.07157,-0.14787v0l-0.00162,-0.00162c-0.01574,-0.02098 -0.03119,-0.04158 -0.04636,-0.0618c-0.09207,-0.20022 -0.21519,-0.42897 -0.34511,-0.60957c-0.03289,-0.11721 -0.06322,-0.23586 -0.09094,-0.35587c-0.05402,-0.30455 -0.08456,-0.45308 -0.09829,-0.49591c-0.07517,-0.45242 -0.11421,-0.92116 -0.11421,-1.40144c0,-0.74326 0.09348,-1.4589 0.26971,-2.12913c0.38749,-0.45489 0.8293,-1.52994 0.80301,-1.77297c0.03625,-0.10461 0.06281,-0.19668 0.07725,-0.27016c1.03531,-1.63258 2.70102,-2.68499 4.71245,-2.68499c3.4355,0 6.2205,3.07011 6.2205,6.85725c0,3.78716 -2.78502,6.85725 -6.2205,6.85725z" data-paper-data="{&quot;index&quot;:null}" fill="url(#color-1)"/><path d="" data-paper-data="{&quot;index&quot;:null}" fill="url(#color-2)"/><path d="M265.51844,183.18287c0.03579,0.04632 0.072,0.09264 0.10705,0.13687c-0.03546,-0.02526 -0.07203,-0.0489 -0.10908,-0.07019v-0.01109c-0.00046,-0.00184 -0.00094,-0.00371 -0.00143,-0.00561c-0.00281,-0.02624 -0.00967,-0.05127 -0.01996,-0.07444c0.00768,0.00802 0.01548,0.01617 0.02342,0.02445z" data-paper-data="{&quot;index&quot;:null}" fill="url(#color-3)"/><path d="" data-paper-data="{&quot;index&quot;:null}" fill="url(#color-4)"/><path d="M270.58757,186.50245c-0.96022,0 -1.84403,-0.25292 -2.61306,-0.70163c0.03073,0.01349 0.0647,0.02098 0.10041,0.02098c0.13807,0 0.25,-0.11193 0.25,-0.25c0,-0.07904 -0.03668,-0.14952 -0.09395,-0.19532c-0.00724,-0.00924 -0.01503,-0.01873 -0.02339,-0.02849l-0.01083,-0.0006c-0.07065,-0.07772 -0.346,-0.2819 -0.65504,-0.47646c-0.38484,-0.29007 -0.92379,-0.68062 -1.22419,-0.80357c-0.06682,-0.07142 -0.13789,-0.13805 -0.20132,-0.19758c-0.01351,-0.01269 -0.02679,-0.0251 -0.03984,-0.03724c-0.005,-0.01249 -0.01124,-0.02569 -0.01876,-0.03964c-0.01507,-0.04674 -0.04353,-0.08748 -0.08086,-0.11768c-0.00579,-0.00715 -0.01181,-0.01444 -0.01807,-0.02185c-0.00951,-0.0166 -0.02088,-0.03201 -0.03381,-0.04594c-0.01737,-0.02383 -0.0371,-0.04825 -0.05881,-0.07282c0.02225,0.01269 -0.03413,-0.05166 -0.12507,-0.14872c-0.5057,-0.98621 -0.78944,-2.14549 -0.78944,-3.38588c0,-3.5912 2.37834,-6.50244 5.63605,-6.50244c3.25773,0 5.89864,2.91126 5.89864,6.50244c0,3.5912 -2.64093,6.50244 -5.89864,6.50244z" data-paper-data="{&quot;index&quot;:null}" fill="url(#color-5)"/><path d="M267.92302,185.77039c-0.10634,-0.06368 -0.21044,-0.13113 -0.31218,-0.20219c0.02024,0.0059 0.0403,0.01151 0.06018,0.01683c0.04392,0.04068 0.10248,0.06579 0.16689,0.06654c0.01603,0.04764 0.04602,0.08887 0.08512,0.11882z" data-paper-data="{&quot;index&quot;:null}" fill="url(#color-6)"/><path d="M270.60131,186.15317c-0.82463,0 -1.59382,-0.19712 -2.27823,-0.55096c0.00121,-0.00997 0.00183,-0.02012 0.00183,-0.03041c0,-0.07904 -0.03668,-0.14952 -0.09395,-0.19532c-0.00724,-0.00924 -0.01503,-0.01873 -0.02339,-0.02849l-0.01083,-0.0006c-0.07065,-0.07772 -0.346,-0.2819 -0.65504,-0.47646c-0.25983,-0.19584 -0.58991,-0.43749 -0.86939,-0.61166c-0.91571,-1.10551 -1.4618,-2.60627 -1.4618,-4.25925c0,-3.3983 2.30808,-6.15316 5.39081,-6.15316c3.08274,0 5.58179,2.75487 5.58179,6.15316c0,3.3983 -2.49905,6.15316 -5.58179,6.15316z" data-paper-data="{&quot;index&quot;:null}" fill="url(#color-7)"/></g><path d="M270,185.2232c-2.88469,0 -5.22319,-2.33851 -5.22319,-5.22319c0,-2.88469 2.33851,-5.22319 5.22319,-5.22319c2.88469,0 5.22319,2.33851 5.22319,5.22319c0,2.88469 -2.33851,5.22319 -5.22319,5.22319z" data-paper-data="{&quot;index&quot;:null}" fill="url(#color-8)"/><path d="M266.35783,183.14948c0.75986,0.15585 1.25627,0.74117 1.87578,1.18435l0.0125,0.02651l0.00741,-0.0066l0.17805,0.19944c0.05185,0.05684 0.07687,0.13676 0.06053,0.21796c-0.02576,0.12805 -0.1451,0.21341 -0.27251,0.19921l-0.26754,-0.02653l-0.05487,-0.03812c-0.03957,-0.01048 -0.06591,-0.02557 -0.06591,-0.02557l-0.22247,-0.12746c-0.47719,-0.27408 -0.92285,-0.57496 -1.32381,-0.95362c0,0 -0.02044,-0.01932 -0.04113,-0.05185l-0.1346,-0.11467l0.0092,-0.0108c-0.10089,-0.09904 -0.20656,-0.22647 -0.30966,-0.37147c-1.07529,-1.13148 -1.22397,-3.54044 -0.84445,-4.8336c0.02772,-0.05248 0.05567,-0.10497 0.08388,-0.15742c0.00214,-0.00661 0.00455,-0.01307 0.0072,-0.01938l0.1098,-0.27621l0.00086,0.00034l-0.00005,-0.00238c0.13084,-0.31162 0.23246,-0.50221 0.39375,-0.6569c0.01345,-0.02346 0.02721,-0.0474 0.04128,-0.0719l0.02379,0.01293c0.00169,-0.00242 0.00337,-0.00483 0.00507,-0.00725l-0.02212,-0.01568l0.00526,-0.00743l-0.01812,-0.01544l0.14407,-0.16911c0.21084,-0.39726 0.47143,-0.7422 0.83008,-0.93245c0.522,-0.50682 1.14631,-0.89511 1.92554,-1.0709l0.06903,-0.02571c0.03223,-0.03015 0.0711,-0.05088 0.11908,-0.05882c0.55316,-0.09153 0.55872,0.33662 0.64116,0.66245c0.01092,0.04317 0.82572,-0.23827 0.84708,-0.23481c0.94905,0.15368 0.69459,1.41198 0.15462,1.79174c-0.40976,0.09676 -0.5135,0.32153 -0.83203,0.46324c-0.35852,0.1595 0.86881,0.53601 0.7477,0.90926c-0.34616,1.06683 -1.58423,1.07 -1.9879,2.03576c-0.15762,0.27204 -0.18501,1.06723 -0.56008,1.12878c-0.83081,0.13636 -0.28639,-1.14741 -0.98252,-1.38863c-0.93662,-0.32456 -1.2815,0.31464 -1.07926,1.21624c-0.00028,0.24995 0.10862,0.58825 0.26494,0.9095c0.14033,0.21079 0.32103,0.44414 0.40593,0.64988c0.01772,0.02174 0.03546,0.04265 0.05315,0.06268c0.0015,0.00026 0.00229,0.00042 0.00229,0.00042z" fill="url(#color-9)"/><path d="M272.58702,179.1817c-0.02263,-0.24898 0.22634,-0.2716 0.22634,-0.2716c0.16669,-0.01515 0.3295,-0.03018 0.49217,-0.05177c0.30205,-0.83623 0.70007,-1.59318 0.78612,-1.68685c0,0 0.17678,-0.17677 0.35355,0c0.03438,0.03438 0.05539,0.06876 0.06692,0.10184c0.0358,0.02315 0.0653,0.0552 0.08537,0.09302l0.13271,0.23888c0.76337,1.38959 0.4178,3.13449 -1.1122,3.63615c-0.46259,0.01253 -0.64619,-0.28109 -0.66602,-0.71591c-0.12338,-0.11365 -0.04569,-0.28197 -0.04569,-0.28197c0.01187,-0.02571 0.02374,-0.05142 0.03561,-0.07713c-0.09496,-0.26529 -0.19953,-0.52554 -0.28903,-0.79309c0,0 -0.00607,-0.01824 -0.0098,-0.04628c-0.02855,-0.03325 -0.05011,-0.0799 -0.05605,-0.14528zM273.85652,180.59633c-0.02317,0.01155 -0.04685,0.02231 -0.07095,0.03226l-0.03319,0.02434c0.03584,-0.01793 0.07055,-0.03682 0.10414,-0.0566z" fill="url(#color-10)"/><path d="M273.98575,176.84936c-0.0806,0.0806 -0.16121,0.0877 -0.22505,0.07157c-0.02448,0.08893 -0.06525,0.1794 -0.12559,0.26844l0.09173,0.08027l-0.18825,0.21515c-0.04584,0.05294 -0.11354,0.08644 -0.18908,0.08644c-0.13807,0 -0.25,-0.11193 -0.25,-0.25c0,-0.00869 0.00044,-0.01729 0.00131,-0.02575l0.02371,-0.26082c-0.0195,-0.05751 -0.10848,-0.08774 -0.17118,-0.0956c0,0 -0.23946,-0.07184 -0.16762,-0.3113c0.03255,-0.10851 0.09952,-0.15309 0.16303,-0.16941l-0.00624,-0.00547c0.00858,-0.02639 0.01772,-0.05125 0.02735,-0.07461l-0.04487,-0.13461c-0.00696,-0.01934 -0.0116,-0.0398 -0.01358,-0.06103l-0.11706,-0.11706c-0.04524,-0.04524 -0.07322,-0.10774 -0.07322,-0.17678c0,-0.13807 0.11193,-0.25 0.25,-0.25c0.05719,0 0.10989,0.0192 0.15202,0.05151l0.2142,0.16065l-0.02165,0.02885l0.04399,0.04399c0.1935,0.11294 0.31619,0.26555 0.572,0.51794l0.05406,0.05405c0,0 0.17678,0.17678 0,0.35355z" fill="url(#color-11)"/><path d="M273.23395,184.23497c0,0 -0.10947,0.10238 -0.23816,0.06382c-0.04406,0.03327 -0.09939,0.05222 -0.15887,0.05023c-0.13799,-0.00462 -0.24612,-0.12024 -0.2415,-0.25823c0.00062,-0.01856 0.00325,-0.03659 0.00768,-0.05387l0.06189,-0.26328l0.01249,0.00294l-0.00274,-0.03473c0.45981,-0.81283 1.08542,-1.41605 1.81237,-2.01721c0.01407,-0.0442 0.02607,-0.08861 0.03574,-0.13328l0.10437,-0.23528c0,0 0.10612,-0.22636 0.33248,-0.12025c0.22636,0.10611 0.12025,0.33248 0.12025,0.33248l-0.07036,0.13746c-0.07093,0.28545 -0.41056,0.89425 -0.7801,1.34215c-0.14716,0.23934 -0.33603,0.46433 -0.56878,0.70931l-0.00763,0.00259l0.00234,0.00251l-0.1469,0.13737c-0.07793,0.12213 -0.1707,0.2355 -0.27456,0.33527z" fill="#d9ce9a"/><g><path d="M267.54793,180.95064c-0.0224,-0.00666 -0.0387,-0.01664 -0.05043,-0.02824c-0.18383,-0.08443 -1.56771,-1.39681 -1.55329,-1.44346c0.03619,-0.11709 0.31469,-0.19379 0.41388,-0.24528c0.23379,-0.01775 0.59913,0.05192 0.81435,-0.04866c0.22236,-0.10393 0.29588,-0.53728 0.57981,-0.53888c0.50298,-0.00284 0.41318,0.95532 0.70074,1.04195c0.90395,0.28239 -0.57535,0.81392 -0.76864,1.18514l0.00142,0.00274c0,0 -0.03157,0.10627 -0.13784,0.0747z" fill="url(#color-12)"/><path d="M272.14404,183.7792c-0.00106,0.00534 -0.00237,0.01082 -0.00394,0.01645c-0.04303,0.15434 -0.19738,0.11132 -0.19738,0.11132c-0.67811,-0.18961 -0.37187,-0.68974 -0.52697,-0.81112c-0.88781,-0.69482 -1.92741,-0.3452 -1.10503,-1.8551c0.93117,-0.93481 0.75518,0.37255 1.04463,0.65565c0.15691,0.15347 0.46716,0.02006 0.65754,0.14451c0.25055,0.1638 0.62642,1.08623 1.0961,0.37938c0.27085,-1.42529 1.34719,-0.11979 0.93187,0.78108c-0.34659,0.75179 -1.34379,0.30495 -1.89682,0.57783z" fill="url(#color-13)"/><path d="M270.42185,176.9841c0.34766,-0.02896 0.79477,-0.32465 1.10545,-0.23254c0.33883,0.10046 0.36086,0.65022 0.56253,0.9092l0.04552,0.01384c0,0 0.04338,0.02603 0.06885,0.07337c0.37733,0.22797 0.67439,0.46923 0.7298,0.65555c0.22747,0.76492 -0.57232,1.06724 -1.10692,0.66121c-0.16684,-0.15702 -0.3182,-0.15423 -0.53601,-0.09031l-0.12257,0.09523c0,0 -0.09553,0.07165 -0.18689,0.01554c-0.98088,0.31199 -3.17854,-2.01781 -0.67734,-2.04519c0.0466,-0.04998 0.11759,-0.05589 0.11759,-0.05589z" fill="url(#color-14)"/><path d="M275.25875,178.44525l0.06669,-0.01429l0.07997,0.37318c0.00436,0.01848 0.00666,0.03777 0.00666,0.05758c0,0.13807 -0.11193,0.25 -0.25,0.25c-0.07553,0 -0.14324,-0.03349 -0.18908,-0.08643l-0.18826,-0.21516c-0.50951,-0.58272 -1.66769,-1.00078 -1.2361,-1.80666c-0.16163,-0.21275 -0.2827,-0.42961 -0.31475,-0.65439c-0.04544,-0.04355 -0.09007,-0.08213 -0.1337,-0.11486l-0.009,-0.02669l-0.00915,0.008l-0.18839,-0.21531c-0.03899,-0.04409 -0.06266,-0.10205 -0.06266,-0.16553c0,-0.13807 0.11193,-0.25 0.25,-0.25c0.06466,0 0.12358,0.02454 0.16796,0.06481l0.26956,0.2426l-0.01855,0.02061c0.92505,0.70249 1.62329,1.44398 1.75879,2.53253z" fill="url(#color-15)"/><path d="M266.02132,176.33563c0.0072,-0.00974 0.01448,-0.01951 0.02184,-0.02932c0,0 0.03216,-0.04288 0.08655,-0.07404c0.02374,-0.04527 0.06095,-0.08237 0.1063,-0.10598l0.29283,-0.15973l0.01495,0.0274c0.07596,-0.06833 0.15663,-0.13052 0.24397,-0.18299l0.06875,-0.04296c0.09076,-0.0667 0.1813,-0.12171 0.26721,-0.15484c0.03531,-0.05732 0.08137,-0.11543 0.1408,-0.17426l0.03555,-0.0039l-0.00656,-0.01312l0.26577,-0.13289c0.03474,-0.01829 0.07431,-0.02864 0.1163,-0.02864c0.13807,0 0.25,0.11193 0.25,0.25c0,0.07553 -0.03349,0.14324 -0.08643,0.18908l-0.21516,0.18826l-0.04384,-0.05011l-0.02807,0.01404c-0.03533,0.03996 -0.07164,0.07866 -0.10882,0.11637c-0.15953,0.3102 0.2653,0.82246 -0.16108,1.26227c-0.84597,0.8726 -1.62844,0.98589 -1.78463,0.52487l-0.01721,0.02582c-0.04451,0.06893 -0.12201,0.11455 -0.21017,0.11455c-0.08139,0 -0.15371,-0.0389 -0.19936,-0.09912c0.22424,-0.2894 0.45905,-0.7624 0.60603,-1.1454c0.09098,-0.09389 0.19645,-0.19136 0.31913,-0.30041z" fill="url(#color-16)"/><path d="M269.29721,175.36548c0,0 -0.25,0 -0.25,-0.22075c0,-0.00898 0.00042,-0.01761 0.00121,-0.02588c-0.0008,-0.00719 -0.00121,-0.01448 -0.00121,-0.02185c0,-0.10852 0.08866,-0.19874 0.20551,-0.21727l0.26573,-0.04693l0.0143,0.06315l0.05052,0.00446c0.02793,0.00017 0.05597,0.00042 0.08411,0.00076c0.20042,-0.02477 0.39546,-0.0092 0.60936,0.02366c0.55351,0.03843 1.11539,0.12986 1.60863,0.32823l0.01815,-0.05877l0.29206,0.07034c0.10882,0.0239 0.18946,0.11075 0.18946,0.21424c0,0.12192 -0.11193,0.22075 -0.25,0.22075h-0.19407c-0.0457,0.044 -0.11135,0.0716 -0.1843,0.0716h-0.2973c-0.12875,-0.00315 -0.26177,-0.00781 -0.39607,-0.01621c-0.06446,0.00221 -0.13407,0.00581 -0.20833,0.01822c-0.01108,0.00753 -0.02288,0.01425 -0.03532,0.02008l-0.1985,0.09737c-0.04822,0.19371 -0.27822,0.1647 -0.27822,0.1647l-0.31846,-0.07627c-0.02103,-0.0163 -0.04102,-0.03502 -0.0594,-0.05553c-0.10081,-0.03053 -0.19824,-0.0675 -0.27295,-0.09414l-0.01389,-0.08479l-0.04104,0.01648l-0.13291,-0.25821c-0.01578,-0.02894 -0.02463,-0.06139 -0.02463,-0.09566c0,-0.01291 0.00126,-0.02557 0.00367,-0.03788c-0.07056,-0.00304 -0.13325,-0.00441 -0.1861,-0.00388z" fill="url(#color-17)"/><path d="M268.65782,182.97775c0.12135,0.13039 0.14732,0.28592 0.15853,0.44165c0.00286,0.00152 0.00569,0.0031 0.00848,0.00475l0.23688,0.13289l-0.01806,0.04052c0.04012,0.01927 0.07727,0.0412 0.11386,0.06734c0.14204,0.07076 0.27349,0.19264 0.37304,0.33885l0.00857,0.00428l0.16631,-0.05598l0.01756,0.06569c0.31459,-0.03382 0.61402,-0.02121 0.68046,0.33767c0.16906,0.91326 -0.72786,0.59025 -1.12342,0.38322c-0.11214,0.19119 -0.39118,0.31389 -0.89596,0.31353c-0.05621,0.09954 -0.1707,0.11238 -0.1707,0.11238c-0.06218,0.00672 -0.14032,0.00062 -0.22774,-0.01619c-0.11525,-0.08406 -0.25887,-0.1819 -0.4106,-0.27743c-0.22797,-0.17183 -0.51002,-0.37892 -0.76452,-0.54475c-0.0122,-0.15013 0.08792,-0.29948 0.3635,-0.42811c0.39267,-0.18328 -0.7035,-0.07039 -1.22957,-0.30898c-0.01382,-0.01796 -0.0289,-0.03617 -0.04507,-0.05447c0.02366,0.0135 -0.04154,-0.06007 -0.14267,-0.16746c-0.03021,-0.03761 -0.05887,-0.07321 -0.08605,-0.1069c-0.02702,-0.03584 -0.05284,-0.07004 -0.07752,-0.10268c-0.25599,-0.69468 0.67867,-0.64298 1.12865,-0.59992c0.28028,-0.02516 0.59508,0.04594 0.90661,0.17824c0.37264,-0.00867 0.77837,-0.02792 1.02942,0.24185z" fill="url(#color-18)"/><path d="" fill="url(#color-19)"/><path d="" fill="url(#color-20)"/><path d="M264.79545,181.07794c0,-0.04164 0.00884,-0.0809 0.02447,-0.11543c-0.02316,-0.0202 -0.04074,-0.04352 -0.05272,-0.06225c-0.01909,-0.17097 -0.05822,-0.36147 -0.07892,-0.46993c0.02852,-0.20517 0.03366,-0.42941 0.0009,-0.6319c0.01961,-0.03567 0.03076,-0.07666 0.03076,-0.12025c0,-0.01902 -0.00212,-0.03754 -0.00615,-0.05534c0.20238,-0.0738 0.27002,0.15984 0.27002,0.15984c0.04513,0.15876 0.07164,0.31004 0.09075,0.46439c0.00588,-0.00599 0.0122,-0.01192 0.01897,-0.01777c0.17368,-0.15 0.30394,0.05 0.30394,0.05l0.08083,0.12561c0.03912,0.07207 0.07823,0.14415 0.11735,0.21622c0,0 0.11507,0.212 -0.06904,0.3445c-0.0223,0.01605 -0.04359,0.02704 -0.06378,0.03397c-0.01277,0.12404 -0.10442,0.22025 -0.21558,0.22025c-0.01785,0 -0.0352,-0.00248 -0.0518,-0.00716c-0.03859,0.06932 -0.10609,0.11526 -0.18291,0.11526c-0.11991,0 -0.21711,-0.11193 -0.21711,-0.25z" fill="url(#color-21)"/><path d="M270.29721,180.38199c-0.07346,0 -0.13952,-0.03168 -0.18527,-0.08213c-0.08011,-0.00734 -0.14927,-0.05247 -0.18953,-0.1174c-0.0711,-0.04408 -0.11845,-0.12282 -0.11845,-0.21263c0,-0.13807 0.11193,-0.25 0.25,-0.25c0.08981,0 0.16855,0.04735 0.21263,0.11845c0.01995,0.01236 0.03803,0.02746 0.05372,0.04477c0.05498,0.00503 0.10482,0.02787 0.14368,0.0627c0.01138,-0.00698 0.02336,-0.01308 0.03585,-0.01819c-0.06145,-0.04555 -0.10129,-0.11861 -0.10129,-0.20097c0,-0.13807 0.11193,-0.25 0.25,-0.25c0.13807,0 0.25,0.11193 0.25,0.25c0,0.10457 -0.0642,0.19415 -0.15534,0.23146c0.02233,0.01655 0.0418,0.03672 0.05754,0.05966c0.13011,0.00877 0.23293,0.11709 0.23293,0.24943c0,0.13807 -0.11193,0.25 -0.25,0.25c-0.08562,0 -0.1612,-0.04305 -0.20625,-0.10868c-0.05737,-0.00386 -0.10943,-0.02708 -0.14972,-0.06319c-0.03799,0.0233 -0.08269,0.03673 -0.13052,0.03673z" fill="url(#color-22)"/><path d="M272.42514,180.86848c-0.13355,0 -0.24217,-0.10874 -0.24526,-0.24408c-0.07882,-0.04159 -0.13268,-0.12546 -0.13268,-0.22215c0,-0.13807 0.10983,-0.25 0.24532,-0.25c0.0468,0 0.09054,0.01336 0.12775,0.03653c0.04197,-0.04689 0.09088,-0.06904 0.09088,-0.06904c0.20929,-0.08657 0.45064,-0.10604 0.67396,-0.07157l0.03568,-0.00403c0,0 0.24532,0 0.24532,0.25c0,0.14337 -0.08068,0.20452 -0.1495,0.2306c0.04327,0.04507 0.06994,0.10676 0.06994,0.1748c0,0.13807 -0.10983,0.25 -0.24532,0.25c-0.10107,0 -0.18786,-0.06227 -0.22544,-0.15122c-0.03758,0.08895 -0.12437,0.15122 -0.22544,0.15122c-0.07704,0 -0.14579,-0.03619 -0.19077,-0.0928c-0.02348,0.00761 -0.0485,0.01172 -0.07445,0.01172z" fill="url(#color-23)"/><path d="M274.38106,178.90902c0.12162,0 0.22021,0.11193 0.22021,0.25c0,0.1121 -0.06499,0.20696 -0.15452,0.23869c0.02432,0.06496 0.03095,0.15457 -0.0428,0.25026c-0.14501,0.18814 -0.31072,0.02352 -0.31072,0.02352c-0.06348,-0.06306 -0.12696,-0.12612 -0.19045,-0.18918l-0.07576,-0.1304c0,0 -0.09848,-0.2236 0.09848,-0.33541c0.12196,-0.06923 0.20615,-0.00985 0.25259,0.0454c0.03339,-0.08983 0.11169,-0.15287 0.20297,-0.15287z" fill="url(#color-24)"/><path d="M268.28959,177.66578c0.1171,0 0.213,0.09839 0.22125,0.22309c0.08436,0.03405 0.14447,0.12218 0.14447,0.22553c0,0.13286 -0.09931,0.24057 -0.22183,0.24057c-0.09632,0 -0.17829,-0.06656 -0.20895,-0.15958c-0.03631,0.07917 -0.11166,0.13358 -0.19874,0.13358c-0.12252,0 -0.22183,-0.10771 -0.22183,-0.24057c0,-0.05695 0.01825,-0.10929 0.04875,-0.15049c0.00957,-0.12329 0.10488,-0.22011 0.22104,-0.22011c0.02308,0 0.04533,0.00382 0.06625,0.01091c0.03945,-0.03909 0.09195,-0.06293 0.14959,-0.06293z" fill="url(#color-25)"/><path d="M268.71411,175.96144c0.13173,0 0.2385,0.08368 0.2385,0.18691c0,0.1021 -0.10447,0.18509 -0.23421,0.18689c-0.01572,0.0913 -0.11554,0.16168 -0.23635,0.16168c-0.08301,0 -0.15611,-0.03323 -0.19883,-0.08364c-0.03902,0.06155 -0.12007,0.10385 -0.21372,0.10385c-0.13173,0 -0.23851,-0.08368 -0.23851,-0.18691c0,-0.09107 0.08312,-0.16694 0.19314,-0.18354c0.02216,-0.04241 0.05721,-0.06987 0.05721,-0.06987l0.00227,0.01584c0.03438,-0.06062 0.06876,-0.12124 0.10314,-0.18186c0,0 0.09686,-0.17081 0.31481,-0.09489c0.11033,0.03843 0.13999,0.10117 0.14238,0.15376c0.02218,-0.00535 0.04575,-0.00822 0.07018,-0.00822z" fill="url(#color-26)"/><path d="M272.64855,176.23335c0.13807,0 0.25,0.09856 0.25,0.22015c0,0.0623 -0.02938,0.11856 -0.07662,0.15861c-0.00023,0.02898 -0.00784,0.06141 -0.02601,0.09741c-0.00099,0.00195 -0.00198,0.00386 -0.00299,0.00576c0.01572,0.02882 0.02454,0.06112 0.02454,0.09522c0,0.12159 -0.11193,0.22015 -0.25,0.22015c-0.13634,0 -0.2472,-0.09611 -0.24995,-0.21559c-0.01093,-0.0189 -0.01885,-0.03938 -0.0232,-0.06095c-0.02387,-0.00934 -0.04775,-0.01869 -0.07163,-0.02803l-0.1491,-0.15032c0,0 -0.1118,-0.19691 0.11181,-0.29536c0.12805,-0.05638 0.21944,-0.0159 0.27416,0.029c0.04584,-0.04657 0.11351,-0.07604 0.18899,-0.07604z" fill="url(#color-27)"/><path d="M265.39584,179.13875c-0.03688,0 -0.07142,-0.01267 -0.10101,-0.03476c-0.01572,0.00505 -0.0322,0.00773 -0.04917,0.00773c-0.1096,0 -0.19845,-0.11193 -0.19845,-0.25c0,-0.1355 0.08556,-0.24582 0.19234,-0.24989c0.00074,-0.01343 0.00224,-0.02755 0.00459,-0.04238c0.03892,-0.24515 0.23352,-0.19611 0.23352,-0.19611l0.21094,0.05315c0.01446,0.00328 0.02839,0.00852 0.04158,0.01551c0.03618,-0.06103 0.09398,-0.10054 0.1591,-0.10054c0.1096,0 0.19846,0.11193 0.19846,0.25c0,0.07581 -0.02679,0.14373 -0.06909,0.18958c-0.01973,0.11189 -0.09897,0.19555 -0.19374,0.19555c-0.00604,0 -0.01202,-0.00034 -0.01792,-0.001c-0.00738,0.03276 -0.02176,0.06735 -0.04594,0.10289c-0.1146,0.16843 -0.24615,0.0593 -0.27434,0.03258c-0.02723,0.01771 -0.05813,0.0277 -0.09089,0.0277z" fill="url(#color-28)"/><path d="M268.35126,181.41172c0.03314,0 0.06477,0.00593 0.09371,0.01671c0.03781,-0.08284 0.12682,-0.14102 0.23061,-0.14102c0.13807,0 0.25,0.10297 0.25,0.22999c0,0.03606 -0.00902,0.07017 -0.02509,0.10055c0.01962,0.00466 0.0383,0.01147 0.05574,0.02012c0.12033,0.01661 0.2126,0.11211 0.2126,0.22743c0,0.0828 -0.04756,0.15537 -0.11891,0.19587c-0.05228,0.17678 -0.26407,0.1573 -0.26407,0.1573c-0.18018,-0.01657 -0.36036,-0.03316 -0.54054,-0.04973l-0.24909,-0.09773c0,0 -0.22361,-0.10285 -0.11181,-0.30856c0.05788,-0.10649 0.14571,-0.13029 0.21699,-0.12847c0.00434,-0.12353 0.11454,-0.22244 0.24987,-0.22244z" fill="url(#color-29)"/><path d="M266.56748,182.21983c-0.07391,0 -0.14031,-0.03206 -0.18608,-0.08304c-0.033,-0.00349 -0.05514,-0.01086 -0.05514,-0.01086l-0.23777,-0.07926c-0.10215,-0.03142 -0.17641,-0.12654 -0.17641,-0.239c0,-0.12289 0.08866,-0.22507 0.20551,-0.24605l0.22118,-0.04423c0.03882,-0.0877 0.12662,-0.1489 0.22871,-0.1489c0.13807,0 0.25,0.11193 0.25,0.25c0,0.01024 -0.00062,0.02034 -0.00181,0.03026c0.05089,0.04576 0.08289,0.11212 0.08289,0.18595c0,0.07581 -0.03374,0.14373 -0.08703,0.18958c-0.02485,0.11189 -0.12468,0.19555 -0.24405,0.19555z" fill="url(#color-30)"/><path d="M270.40531,183.20632c0.13807,0 0.25,0.09764 0.25,0.21809c0,0.02042 -0.00322,0.04019 -0.00924,0.05894c0.00602,0.01875 0.00924,0.03852 0.00924,0.05894c0,0.12044 -0.11193,0.21809 -0.25,0.21809c-0.07297,0 -0.13864,-0.02727 -0.18434,-0.07077c-0.00161,0.00002 -0.00323,0.00004 -0.00485,0.00004c-0.13807,0 -0.25,-0.09764 -0.25,-0.21809c0,-0.12044 0.11193,-0.21809 0.25,-0.21809c0.01066,0 0.02116,0.00058 0.03148,0.00171c0.04302,-0.03055 0.09792,-0.04887 0.15772,-0.04887z" fill="url(#color-31)"/><path d="M271.69542,184.68598c0.01833,0.10392 -0.07703,0.20761 -0.213,0.2316c-0.06112,0.01078 -0.12004,0.00362 -0.16806,-0.01696c-0.04058,0.03625 -0.17182,0.13352 -0.33515,0.04891c-0.19756,-0.10234 -0.04695,-0.26611 -0.04695,-0.26611l0.0564,-0.05517c0.03137,-0.02364 0.06275,-0.04729 0.09411,-0.07094c-0.01382,-0.10193 0.08049,-0.20221 0.21391,-0.22575c0.13394,-0.02363 0.25732,0.03889 0.2785,0.1401c0.0385,0.03727 0.05109,0.07472 0.0496,0.10905c0.03725,0.02607 0.06304,0.06232 0.07062,0.10525z" fill="url(#color-32)"/><path d="M272.50402,184.23515c-0.03411,-0.11369 0.04545,-0.23801 0.1777,-0.27769c0.13225,-0.03967 0.26711,0.02033 0.30121,0.13401c0.0141,0.047 0.00878,0.09581 -0.01166,0.13971c0.02213,0.02155 0.04063,0.05091 0.05254,0.09059c0.06176,0.20585 -0.1777,0.27769 -0.1777,0.27769c-0.08629,0.02588 -0.19847,0.05954 -0.28476,0.08543c0,0 -0.23946,0.07184 -0.30121,-0.13401c-0.06176,-0.20585 0.1777,-0.27768 0.1777,-0.27768c0.02399,-0.00719 0.04797,-0.0144 0.07196,-0.02159c-0.00216,-0.00535 -0.00409,-0.01084 -0.00578,-0.01646z" fill="url(#color-33)"/><path d="M275.1891,180.34145c0.25,0 0.25,0.25 0.25,0.25l-0.00124,0.0519c-0.02965,0.28188 -0.04817,0.72566 -0.22823,0.93605c-0.00457,0.0437 -0.0104,0.08923 -0.01758,0.13666l-0.00366,0.00497l0.00262,0.00053l-0.05315,0.26573c-0.02098,0.11685 -0.12316,0.20551 -0.24605,0.20551c-0.13807,0 -0.25,-0.11193 -0.25,-0.25c0,-0.01698 0.00169,-0.03355 0.00492,-0.04957l0.05317,-0.29244l0.00372,0.00068c0.0067,-0.05122 0.01124,-0.10914 0.01634,-0.16836c-0.00942,-0.00473 -0.0147,-0.00803 -0.0147,-0.00803c-0.50439,-0.38791 -0.09606,-0.85482 0.22526,-0.73883c0.00356,-0.03003 0.00685,-0.06088 0.00983,-0.09264l-0.00124,-0.00215c0,0 0,-0.25 0.25,-0.25z" fill="url(#color-34)"/></g><g><path d="M270.03412,185.51983c-0.91518,0 -1.77671,-0.23685 -2.53011,-0.65435c-0.27915,-0.21219 -0.63803,-0.47646 -0.92628,-0.65058c-1.1599,-1.01252 -1.89627,-2.52502 -1.89627,-4.21489c0,-3.04852 2.39648,-5.51982 5.35266,-5.51982c2.9562,0 5.35266,2.47132 5.35266,5.51982c0,3.04852 -2.39647,5.51982 -5.35266,5.51982z" data-paper-data="{&quot;index&quot;:null}" fill="url(#color-35)"/><path d="M270.03412,185.65316c-0.68037,0 -1.3318,-0.12782 -1.93292,-0.36144c-0.11366,-0.09773 -0.34078,-0.26245 -0.59003,-0.4208c-0.38135,-0.29007 -0.91542,-0.68062 -1.21309,-0.80357c-0.06622,-0.07142 -0.13664,-0.13805 -0.1995,-0.19758c-0.01339,-0.01269 -0.02655,-0.02509 -0.03948,-0.03724c-0.00496,-0.01249 -0.01113,-0.0257 -0.01859,-0.03964c-0.01493,-0.04674 -0.04314,-0.08748 -0.08013,-0.11768c-0.00573,-0.00715 -0.0117,-0.01444 -0.01791,-0.02185c-0.00943,-0.0166 -0.02069,-0.03201 -0.0335,-0.04594c-0.01721,-0.02383 -0.03677,-0.04825 -0.05828,-0.07282c0.02346,0.01351 -0.04116,-0.06007 -0.14137,-0.16746c-0.02993,-0.03761 -0.05834,-0.07321 -0.08527,-0.1069c-0.05468,-0.0732 -0.10444,-0.1396 -0.14957,-0.19963c-0.00656,-0.05749 -0.03244,-0.10903 -0.07092,-0.14787v0l-0.00161,-0.00162c-0.0156,-0.02098 -0.03091,-0.04158 -0.04594,-0.0618c-0.09921,-0.21771 -0.2348,-0.46915 -0.37587,-0.65575c-0.00168,-0.00411 -0.00335,-0.00821 -0.00502,-0.01232c-0.1669,-0.98546 -0.17894,-0.92145 -0.13703,-0.57803c-0.03751,-0.12775 -0.08298,-0.25418 -0.12185,-0.38157c0.06765,-0.13374 -0.02867,-0.59582 -0.06565,-0.79132c0.02826,-0.20518 0.03334,-0.42942 0.00089,-0.63191c0.01943,-0.03567 0.03048,-0.07666 0.03048,-0.12025c0,-0.07433 -0.03214,-0.14108 -0.08317,-0.18687c0.00834,-0.03034 0.0045,-0.06481 -0.01486,-0.10349c0.05432,-0.52016 0.17706,-1.0192 0.35874,-1.48732c0.2536,-0.27523 0.53883,-0.84831 0.70164,-1.28709c0.9999,-1.3761 2.59402,-2.26655 4.38981,-2.26655c3.02761,0 5.48195,2.53101 5.48195,5.65315c0,3.12216 -2.45436,5.65315 -5.48195,5.65315z" data-paper-data="{&quot;index&quot;:null}" fill="url(#color-36)"/><path d="" data-paper-data="{&quot;index&quot;:null}" fill="url(#color-37)"/><path d="M265.5812,183.29798c-0.02911,-0.04173 -0.05769,-0.08389 -0.08572,-0.12646c0.00356,0.00376 0.00715,0.00753 0.01077,0.01134c0.03547,0.04632 0.07135,0.09264 0.10608,0.13687c-0.01029,-0.0074 -0.02067,-0.01466 -0.03114,-0.02176z" data-paper-data="{&quot;index&quot;:null}" fill="url(#color-38)"/><path d="" data-paper-data="{&quot;index&quot;:null}" fill="url(#color-39)"/></g><path d="M269.93378,185.22767c-0.54031,0 -1.06174,-0.01157 -1.55284,-0.15981c-0.11621,-0.03508 -0.09191,0.16221 -0.44494,0.0996c-0.1178,-0.08622 -0.26722,-0.18802 -0.42543,-0.28732c-0.23436,-0.1761 -0.5257,-0.38924 -0.78588,-0.55704c-0.00481,-0.04976 -0.01562,-0.09395 -0.08378,-0.14299c-0.14899,-0.12061 -0.31016,-0.24936 -0.4457,-0.38547c-0.02387,-0.02397 -0.08347,-0.08573 -0.17458,-0.13653c-0.05031,-0.02805 -0.09691,-0.04089 -0.13979,-0.05204c-0.01544,-0.02045 -0.03257,-0.04129 -0.05113,-0.06223c0.02373,0.01349 -0.04167,-0.06007 -0.14311,-0.16746c-0.0303,-0.0376 -0.05905,-0.07321 -0.08632,-0.1069c-0.03353,-0.04434 -0.06524,-0.08618 -0.09517,-0.12563c-0.04447,-0.12076 -0.08532,-0.24765 -0.13162,-0.32312c-0.23637,-0.3853 -0.41552,-0.80317 -0.53992,-1.24106c-0.03353,-0.17097 -0.04805,-0.21839 -0.04945,-0.18675c-0.00695,-0.02828 -0.01368,-0.05663 -0.02019,-0.08505c-0.01259,-0.05498 -0.04274,-0.11022 -0.05325,-0.16571c-0.01017,-0.05364 0.00192,-0.11212 -0.01002,-0.16415c-0.01472,-0.18607 -0.06218,-0.4152 -0.08578,-0.53843c0.02861,-0.20519 0.03375,-0.42943 0.0009,-0.63193c0.01967,-0.03567 0.03086,-0.07665 0.03086,-0.12024c0,-0.02431 -0.00348,-0.04781 -0.00997,-0.07003c0.00705,-0.00977 0.01179,-0.02323 0.01327,-0.04224c0.04808,-0.61694 0.18614,-1.13907 0.43253,-1.67748c0.01474,-0.02621 -0.04552,-0.0342 -0.09538,-0.07738c0.23621,-0.29776 0.48603,-0.80386 0.63453,-1.19981c0.09247,-0.09287 0.19281,-0.18418 0.30332,-0.28085c0.05088,-0.04451 0.18773,-0.18561 0.21538,-0.21088c0.14865,-0.13586 0.23603,-0.10246 0.3453,-0.17729c0.05929,-0.0406 0.10089,-0.06204 0.16188,-0.10128c0.09637,-0.062 0.30633,-0.19657 0.40672,-0.25524c0.08385,-0.049 -0.01846,-0.07171 0.27387,-0.22979c0.33698,-0.18222 0.27329,-0.04702 0.39854,-0.10335c0.70239,-0.31589 1.41676,-0.4895 2.20718,-0.4895c0.69988,0 1.37148,0.18633 2.01032,0.45624c0.06852,0.02895 0.21265,0.02856 0.28041,0.05931c0.02971,0.01348 0.07348,0.08799 0.10119,0.10225c0.1812,0.09322 0.29522,0.15576 0.48208,0.25578c0.05278,0.02825 0.24151,-0.0792 0.29257,-0.04962c0.14263,0.08263 0.18987,0.17093 0.32346,0.26463c0.66078,0.46351 1.20304,1.05942 1.54843,1.75706c0.11106,0.22433 0.16932,0.55747 0.23002,0.81512c0.0349,0.14812 0.07617,-0.23149 0.16131,0.29898c0.07723,0.48117 -0.22387,0.28096 -0.21029,0.35725c0.05267,0.29575 0.08014,0.60006 0.08014,0.9107c0,0.05859 -0.09885,0.23549 -0.07869,0.29843c0.03059,0.09551 0.18675,0.07662 0.20515,0.1532c0.04197,0.17464 0.02121,0.29514 0.0107,0.48163c-0.01661,0.29492 -0.20442,0.65228 -0.25163,0.94677c-0.08481,0.52902 -0.34727,0.2384 -0.39209,0.33266c-0.30881,0.64952 -0.73207,1.18268 -1.25396,1.67431c-0.12351,0.11634 -0.2292,0.27264 -0.36215,0.37762c-0.14282,0.11277 -0.11073,0.21878 -0.26836,0.31758c-0.12087,0.07575 -0.28779,0.14442 -0.38763,0.14299c-0.08401,-0.0012 -0.10722,-0.06972 -0.14776,-0.04966c-0.71396,0.35332 -1.52005,0.55218 -2.37323,0.55218z" data-paper-data="{&quot;index&quot;:null}" fill="url(#color-40)"/><path d="" data-paper-data="{&quot;index&quot;:null}" fill="url(#color-41)"/><path d="" data-paper-data="{&quot;index&quot;:null}" fill="url(#color-42)"/></g></g></svg>