<svg version="1.1" xmlns="http://www.w3.org/2000/svg" xmlns:xlink="http://www.w3.org/1999/xlink" width="1103.70643" height="465.78999" viewBox="0,0,1103.70643,465.78999"><defs><linearGradient x1="540.22479" y1="-97.4696" x2="540.22479" y2="202.58762" gradientUnits="userSpaceOnUse" id="color-1"><stop offset="0" stop-color="#364161" stop-opacity="0"/><stop offset="1" stop-color="#364161" stop-opacity="0.76471"/></linearGradient><linearGradient x1="541.29662" y1="8.45055" x2="541.29662" y2="203.08225" gradientUnits="userSpaceOnUse" id="color-2"><stop offset="0" stop-color="#918579" stop-opacity="0"/><stop offset="1" stop-color="#918579" stop-opacity="0.44706"/></linearGradient><linearGradient x1="540.4159" y1="93.64601" x2="540.4159" y2="203.57689" gradientUnits="userSpaceOnUse" id="color-3"><stop offset="0" stop-color="#fcdbcc" stop-opacity="0"/><stop offset="1" stop-color="#fcdbcc" stop-opacity="0.19608"/></linearGradient><linearGradient x1="541.4159" y1="143.64602" x2="541.4159" y2="203.57689" gradientUnits="userSpaceOnUse" id="color-4"><stop offset="0" stop-color="#432300" stop-opacity="0"/><stop offset="1" stop-color="#432300" stop-opacity="0.21961"/></linearGradient><linearGradient x1="274.87041" y1="170.12925" x2="274.87041" y2="368.3204" gradientUnits="userSpaceOnUse" id="color-5"><stop offset="0" stop-color="#9e8d82"/><stop offset="1" stop-color="#685f58"/></linearGradient><linearGradient x1="816.07037" y1="170.12926" x2="816.07037" y2="366.74334" gradientUnits="userSpaceOnUse" id="color-6"><stop offset="0" stop-color="#9e8d82"/><stop offset="1" stop-color="#685f58"/></linearGradient></defs><g transform="translate(6.38284,97.46959)"><g data-paper-data="{&quot;isPaintingLayer&quot;:true}" fill-rule="nonzero" stroke="none" stroke-linecap="butt" stroke-linejoin="miter" stroke-miterlimit="10" stroke-dasharray="" stroke-dashoffset="0" style="mix-blend-mode: normal"><path d="M-0.63135,202.58762v-300.05721h1081.71229v300.05721z" fill="url(#color-1)" stroke-width="0"/><path d="M0.44049,203.08225v-194.6317h1081.71229v194.6317z" fill="url(#color-2)" stroke-width="0"/><path d="M-0.44024,203.57689v-109.93087h1081.71229v109.93087z" fill="url(#color-3)" stroke-width="0"/><path d="M0.55974,203.57689v-59.93087h1081.71229v59.93087z" fill="url(#color-4)" stroke-width="0"/><path d="M-2.53715,193.74982c3.18597,-1.78458 5.30599,-3.12019 9.10122,-2.56257c2.76761,0.40663 5.33967,2.67725 8.13252,3.00008c1.37435,0.15886 2.90305,0.42074 4.13871,-0.26377c1.04662,-0.57979 1.08226,-2.42108 2.04276,-3.16125c0.7974,-0.61449 1.91364,-0.37982 2.86111,-0.61842c3.12149,-0.78609 5.31491,-0.92597 8.48842,-0.92597c1.58935,0 3.33074,-0.58196 4.85326,-0.07725c2.22191,0.73657 2.0241,2.71562 3.57547,4.37452c2.3259,2.4871 3.68864,2.617 6.57074,3.67094c1.44606,0 2.90496,0.21198 4.33825,-0.00026c2.79791,-0.41431 5.36191,-2.48793 8.13284,-3.00105c3.49435,-0.64709 6.80817,0.46061 10.11982,0.99949c3.0502,0.49634 5.28076,-1.60787 8.13279,-1.00079c1.79918,0.38297 3.61298,0.67693 5.42177,0.99977c1.05674,0.18861 2.00243,1.04805 3.07273,1.03224c3.34813,-0.04947 6.35044,-2.71471 9.12562,-4.25584c0.9167,-0.50906 2.05466,-0.48694 2.90616,-1.11965c2.63321,-1.9566 3.23692,-4.50132 6.12865,-5.63019c3.70123,1.0382 4.03417,3.66161 8.40782,2.96928c3.86678,-0.61209 4.69512,-3.15668 7.39654,-5.53633c1.43073,-1.26031 2.70159,-2.7752 4.27416,-3.80801c0.81911,-0.53797 1.89437,-0.45821 2.71113,-1.00054c1.25914,-0.83607 2.2374,-2.44451 3.69283,-2.65991c1.73191,-0.25631 5.02829,-0.46178 6.58347,0.65815c0.71406,0.51422 1.07662,1.51507 1.80715,2.00014c0.81676,0.54233 1.99452,0.46903 2.78705,1.05374c1.06328,0.78446 1.64574,2.21857 2.71097,2.99977c0.85496,0.62699 1.91078,0.56145 2.82974,1.06549c1.07926,0.59196 1.90068,1.74347 3.04873,2.14694c0.38715,0.13606 5.369,0.10633 6.07689,0.10633c2.71085,0 5.42256,-0.00137 8.13341,-0.00137c1.52014,0 3.2298,-1.00991 4.55776,-0.19116c1.11635,0.68828 1.52463,2.47386 2.71074,3.00017c0.40233,0.17853 7.77764,0.26119 8.45641,0.15641c0.94336,-0.14562 1.77194,-0.8271 2.71142,-1.00078c2.19137,-0.40512 4.45791,-0.40207 6.59635,-1.06904c1.58496,-0.49434 3.01011,-2.22834 4.63117,-1.90799c2.28087,0.45075 4.08263,3.01846 6.39954,3.0036c5.85377,-0.03755 8.38557,-5.06195 12.36703,-8.56916c1.33816,-1.17877 2.8484,-2.17919 3.95218,-3.62503c1.43467,0.15272 2.76928,0.93446 4.19644,1.15725c0.66701,0.10413 1.44224,-0.66952 2.00746,-0.26399c0.91125,0.65381 0.84906,2.43437 1.8073,2.99995c1.1136,0.65727 2.51642,0.33161 3.77807,0.29501c0.77735,-0.02254 1.65793,-0.9667 2.29451,-0.47243c0.69686,0.54107 0.02138,2.07762 0.62687,2.7398c0.7951,0.86952 2.16707,0.71448 3.12157,1.35831c0.8264,0.55743 1.22494,1.80598 2.13087,2.18281c0.60999,0.25373 6.54387,0.25224 7.15386,-0.00149c1.49994,-0.62392 1.80067,-2.91133 3.65572,-2.81054c2.12498,0.11545 3.75754,2.30742 5.80877,2.93231c6.73831,2.05276 13.42732,-4.227 18.61195,-8.14847c1.83026,-0.48665 3.53204,-1.81496 5.4142,-1.78627c1.04579,0.01594 1.98232,1.17936 3.01226,0.97797c1.29864,-0.25393 2.21669,-1.59941 3.40514,-2.23193c3.92416,-2.08853 9.16422,-3.7324 13.47142,-3.7446c1.49356,-0.00423 2.87854,-0.32393 4.23597,0.62721c3.09186,2.16643 5.01187,7.56667 8.46058,9.18502c0.98714,0.46323 2.15895,-0.04771 3.21483,0.15868c1.923,0.37588 3.83338,1.06218 5.78598,1.03363c0.68611,-0.01003 1.40781,-0.35288 2.05695,-0.10682c2.05483,0.77889 3.58781,2.7184 5.42433,4.00179c1.93165,0.04823 3.80898,0.73609 5.71648,1.07655c2.66364,0.47542 5.54947,-0.48968 8.19682,0.01216c2.87031,0.54411 5.61621,1.71975 8.42571,2.56771c7.0122,2.11641 14.0553,4.15442 21.04607,6.35573c3.85701,1.21452 5.17741,6.18982 9.69287,6.11069c1.43481,-0.02514 2.82663,-0.55475 4.0049,-1.4612c0.80162,-0.61669 0.7077,-2.15428 1.50221,-2.78213c0.45207,-0.35725 1.1675,0.2059 1.72195,0.24355c1.71533,0.1165 4.69878,-0.1048 6.28671,-0.18932c1.59288,-1.59383 3.3357,-2.83475 5.00764,-4.32613c0.57937,-0.5168 0.95248,-1.46875 1.61627,-1.84099c2.52431,-1.4156 5.43245,-1.75859 8.13885,-2.67375c4.32086,-1.46109 8.64213,-2.92141 12.96301,-4.3825c2.88058,-0.97407 5.84115,-1.69545 8.64197,-2.92173c0.35077,-0.15358 0.55668,-1.05128 0.86389,-0.80902c0.53236,0.41981 0.37023,1.40068 0.68784,2.03297c1.84162,3.66627 3.97601,6.27952 7.84411,7.08328c1.77619,0.36908 3.63947,-0.32953 5.42192,0.00055c1.87887,0.34793 3.54122,1.66627 5.42205,2.00093c0.72826,0.12958 1.52671,-0.46996 2.20827,-0.15785c0.75599,0.34619 1.1386,1.30134 1.7078,1.95173c6.23493,0.84318 12.48366,1.48639 18.73547,2.15594c2.74771,0.29427 5.66533,-0.31836 8.25487,0.74014c0.77309,0.31601 0.97943,1.5542 1.7095,1.97736c1.25051,0.72483 2.64944,1.53838 4.05217,1.3631c4.85172,-0.60625 4.89593,-4.04215 8.17039,-6.33653c2.02927,-1.42188 3.3243,-0.0276 5.7426,-0.72443c2.39389,-0.68979 4.2386,-2.83809 6.46084,-4.04068c1.74671,-0.94525 1.54241,1.32471 2.99909,1.91747c1.76201,0.717 3.84605,-0.55817 5.63166,0.08337c0.88912,0.31945 3.91171,3.52086 4.30845,3.91784c1.31239,0.05267 2.63351,0.33294 3.93726,0.15825c2.79258,-0.37417 5.37831,-2.42711 8.13252,-3.00007c2.02041,-0.42031 2.43657,0.30739 4.42833,0.93294c2.5407,0.79796 5.21963,1.09274 7.86065,1.10023c3.31831,0.00942 6.7475,-0.9599 9.41133,1.43398c2.77635,2.49499 1.88435,6.51481 1.88435,10.06821c0,2.5332 0.34761,5.09208 0.02939,7.60069c-0.26483,2.08771 -1.52762,3.91548 -1.80709,6.00086c-0.17675,1.31891 0.0001,2.66729 0.0001,4.00062c-1.35699,4.50519 -0.39244,8.50311 -0.9156,13.09704c-0.4966,4.36074 -2.15451,8.64603 -2.71081,13.00342c-0.50079,3.92261 0.51828,8.08952 0.00026,12.00058c-1.65899,12.52549 -0.92067,25.58694 -0.92067,38.31174c0,4.63266 0.43191,8.58933 0.8974,13.15725c0.35998,3.53265 -0.3919,4.52393 0.02278,8.15162c0.27879,2.43896 1.44736,4.67237 1.81931,7.09606c0.30259,1.97177 -0.28791,4.02645 -0.00015,6.00093c0.7853,5.38841 1.77284,11.05124 1.77758,16.60982c0.0037,4.33048 -0.02302,8.66364 -0.00047,12.99405c0.00451,0.86656 0.02153,1.73337 0.02907,2.59991c0.00398,0.45743 0.37759,1.17372 0.00531,1.37254c-0.53925,0.288 -1.16789,-0.29305 -1.75183,-0.43959c-3.0622,1.12961 -5.0341,0.4475 -8.13269,1.00055c-0.94034,0.16784 -1.76851,0.84736 -2.71093,1.00029c-3.53058,0.57293 -531.60884,-5.19832 -536.11011,-6.00103c-0.82134,-0.14647 -1.54717,-0.70013 -2.3584,-0.90424c-0.51832,-0.13041 -1.30228,0.4026 -1.59261,-0.09016c-0.32705,-0.55506 0.46468,-1.28054 0.39717,-1.93895c-0.10739,-1.04737 -0.60254,-2.00048 -0.90374,-3.00048c0,-2.02759 -0.59183,-4.00296 -0.90384,-6.00093c-0.80481,-5.15358 0.04932,-11.35649 0.02864,-16.60207c-0.00981,-2.49068 -0.60645,-4.93729 -0.93298,-7.40164c-0.29917,-2.25783 0.26733,-4.58174 0.01801,-6.84697c-0.33,-2.99828 -0.60022,-6.00572 -0.90433,-9.00735c-0.36423,-3.59502 -1.36333,-6.25629 -1.77315,-9.81664c-0.61486,-5.34169 -0.34596,-10.88664 -0.95432,-16.23186c-0.21775,-1.9133 -0.89611,-3.77612 -0.87579,-5.70441c-0.00754,-4.11822 -0.8008,-7.98223 -0.90456,-12.07437c-0.15125,-5.9649 0.00108,-11.96284 0.00108,-17.93044c0,-2.68095 -0.44104,-5.96281 -0.02906,-8.6009c1.50526,-9.63899 2.7921,-19.05664 2.71148,-29.00459c1.60982,-5.34459 1.08745,-11.60666 0.95841,-17.3736z" data-paper-data="{&quot;noHover&quot;:false,&quot;origItem&quot;:[&quot;Path&quot;,{&quot;applyMatrix&quot;:true,&quot;segments&quot;:[[[-37.27854,190.76223],[0,0],[0.1428,5.76694]],[[-38.33857,208.13318],[1.78153,-5.34459],[0.08922,9.94795]],[[-41.33857,237.13318],[1.66582,-9.63899],[-0.45592,2.63809]],[[-41.30629,245.73272],[0,-2.68095],[0,5.9676]],[[-41.30734,263.66029],[-0.16738,-5.9649],[0.11483,4.09214]],[[-40.30629,275.73272],[-0.00834,-4.11822],[-0.02248,1.92829]],[[-39.33711,281.43621],[-0.24098,-1.9133],[0.67325,5.34522]],[[-38.28117,297.66545],[-0.68044,-5.34169],[0.45353,3.56035]],[[-36.31906,307.48048],[-0.40308,-3.59502],[0.33655,3.00163]],[[-35.31847,316.48638],[-0.3652,-2.99828],[0.27592,2.26523]],[[-35.33858,323.33227],[-0.33108,-2.25783],[0.36136,2.46435]],[[-34.3063,330.73273],[-0.01086,-2.49068],[0.02288,5.24558]],[[-34.33858,347.33227],[-0.89065,-5.15358],[0.34529,1.99797]],[[-33.33858,353.33227],[0,-2.02759],[0.33333,1]],[[-32.33858,356.33227],[-0.11884,-1.04737],[0.07471,0.65841]],[[-32.77819,358.27095],[-0.36193,-0.55506],[0.3213,0.49276]],[[-31.01573,358.36102],[-0.57361,-0.13041],[0.89776,0.20411]],[[-28.40584,359.26501],[-0.90895,-0.14647],[4.9814,0.80271]],[[-13.50084,360.25146],[-5.06279,-0.55426],[1.36621,0.14957]],[[-9.50084,361.25146],[-1.35987,-0.1991],[1.99401,0.29194]],[[-3.45506,361.2651],[-1.99957,-0.25099],[2.74312,0.34432]],[[4.59416,363.26501],[-2.7251,-0.46598],[3.63448,0.62148]],[[16.1937,363.23273],[-3.70046,0],[6.33333,0]],[[35.1937,363.23273],[-6.33333,0],[4.15655,0]],[[46.49916,364.25146],[-4.05408,-0.59424],[3.25552,0.47719]],[[56.54304,364.26491],[-3.27608,-0.35885],[5.67647,0.62178]],[[73.49916,366.25146],[-5.6343,-0.71853],[3.72613,0.47519]],[[85.1937,366.23273],[-3.75916,0],[9.33333,0]],[[113.1937,366.23273],[-9.33333,0],[26.33333,0]],[[192.1937,366.23273],[-26.33333,0],[16.33333,0]],[[241.1937,366.23273],[-16.33333,0],[8.25228,0]],[[266.49916,366.25146],[-8.18398,-1.00383],[2.56639,0.31479]],[[274.1937,367.23273],[-2.58558,0.01311],[9.8384,0]],[[303.44004,368.2449],[-9.72085,-1.22971],[2.36586,0.29929]],[[310.59415,368.26501],[-2.36185,-0.32945],[1.04398,0.14562]],[[313.59415,369.26501],[-1.04294,-0.15293],[11.15119,1.63515]],[[347.49915,370.25146],[-11.04896,-2.76224],[3.59349,-0.02498]],[[358.59415,370.26501],[-3.54521,-0.57178],[1.04064,0.16784]],[[361.59415,371.26501],[-1.0387,-0.17951],[4.16595,0.71996]],[[374.49915,371.25146],[-4.20383,-0.58622],[1.3612,0.18982]],[[378.49915,372.25146],[-1.35984,-0.19932],[4.02965,0.59066]],[[391.19369,372.23273],[-4.09154,0],[10,0]],[[421.19369,372.23273],[-10,0],[4.39184,0]],[[434.88823,372.25146],[-4.35357,0.5552],[3.69397,-0.47108]],[[445.88823,370.25146],[-3.69562,0.4533],[3.60079,-0.44167]],[[456.88823,370.25146],[-3.58129,0.52494],[1.35984,-0.19932]],[[460.88823,369.25146],[-1.36414,0.16735],[4.05141,-0.49701]],[[473.22169,369.18875],[-4.06303,0.42506],[3.31958,-0.34728]],[[483.04422,367.24455],[-3.32104,0.33305],[7.38773,-0.74087]],[[505.1937,366.23273],[-7.47071,0],[1.89404,0.02352]],[[510.79324,365.26501],[-1.88004,0.23103],[5.27435,-0.64813]],[[527.1937,365.23273],[-5.32811,0],[4.31261,0]],[[540.49916,365.25146],[-4.25848,-0.59384],[1.3612,0.18982]],[[544.49916,366.25146],[-1.35984,-0.19932],[3.12889,0.45862]],[[552.79325,365.26501],[-2.9424,0.41043],[3.92497,-0.54749]],[[564.79325,365.26501],[-3.90717,0.57293],[1.04294,-0.15293]],[[567.79325,364.26501],[-1.04064,0.16784],[3.4291,-0.55305]],[[576.79325,363.26501],[-3.38883,1.12961],[0.64623,0.14654]],[[578.73193,363.70462],[-0.59677,0.288],[0.41199,-0.19882]],[[578.72599,362.33227],[0.0044,0.45743],[-0.00834,-0.86654]],[[578.69371,359.73273],[0.00499,0.86656],[-0.02496,-4.33041]],[[578.69372,346.74057],[0.0041,4.33048],[-0.00525,-5.55858]],[[576.72599,330.13319],[0.86906,5.38841],[-0.31845,-1.97448]],[[576.72599,324.13319],[0.33487,1.97177],[-0.41163,-2.42369]],[[574.71244,317.03819],[0.30853,2.43896],[-0.45891,-3.62769]],[[574.68705,308.88787],[0.39838,3.53265],[-0.51514,-4.56792]],[[573.69371,295.73273],[0,4.63266],[0,-12.7248]],[[574.71244,257.42727],[-1.83595,12.52549],[0.57327,-3.91106]],[[574.71227,245.42865],[-0.55421,3.92261],[0.61564,-4.35739]],[[577.71244,232.42727],[-0.54957,4.36074],[0.57896,-4.59393]],[[578.72599,219.33227],[-1.50173,4.50519],[0,-1.33333]],[[578.72599,215.33227],[-0.1956,1.31891],[0.30928,-2.08538]],[[580.72599,209.33227],[-0.29308,2.08771],[0.35217,-2.50861]],[[580.69371,201.73273],[0,2.5332],[0,-3.5534]],[[578.60874,191.66609],[3.07249,2.49499],[-2.94797,-2.39388]],[[568.19371,190.23273],[3.67226,0.00942],[-2.92273,-0.00749]],[[559.49474,189.13303],[2.8117,0.79796],[-2.20421,-0.62555]],[[554.59416,188.20045],[2.23592,-0.42031],[-3.04799,0.57296]],[[545.59416,191.20045],[3.09045,-0.37417],[-1.44281,0.17469]],[[541.237,191.04243],[1.45238,0.05267],[-0.43906,-0.39698]],[[536.46925,187.12546],[0.98396,0.31945],[-1.97607,-0.64154]],[[530.237,187.04243],[1.94996,0.717],[-1.61206,-0.59276]],[[526.91817,185.12546],[1.93302,-0.94525],[-2.45928,1.20259]],[[519.76809,189.16585],[2.64924,-0.68979],[-2.67625,0.69683]],[[513.50804,189.85935],[2.24572,-1.42188],[-3.62373,2.29438]],[[504.37093,196.22643],[5.36923,-0.60625],[-1.55236,0.17528]],[[499.8867,194.86385],[1.3839,0.72483],[-0.80794,-0.42316]],[[497.99502,192.88698],[0.85555,0.31601],[-2.86576,-1.0585]],[[488.85989,192.14758],[3.0408,0.29427],[-6.91867,-0.66955]],[[468.12673,189.9936],[6.89998,0.84318],[-0.62991,-0.65039]],[[466.23699,188.04242],[0.83663,0.34619],[-0.75426,-0.31211]],[[463.79324,188.20044],[0.80594,0.12958],[-2.08145,-0.33466]],[[457.79324,186.20044],[2.07928,0.34793],[-1.97257,-0.33008]],[[451.79324,186.20044],[1.96565,0.36908],[-4.28069,-0.80376]],[[443.11357,179.11947],[2.03806,3.66627],[-0.35149,-0.63229]],[[442.35262,177.08699],[0.58914,0.41981],[-0.33998,-0.24226]],[[441.39655,177.89595],[0.38819,-0.15358],[-3.09957,1.22628]],[[431.83303,180.81814],[3.18784,-0.97407],[-4.78176,1.46109]],[[417.48776,185.20142],[4.78175,-1.46109],[-2.99507,0.91516]],[[408.48112,187.87575],[2.79357,-1.4156],[-0.73459,0.37224]],[[406.77867,189.66608],[0.64117,-0.5168],[-1.85028,1.49138]],[[401.15041,194.04242],[1.76279,-1.59383],[-1.75731,0.08452]],[[394.1937,194.23272],[1.8983,0.1165],[-0.61359,-0.03765]],[[392.37334,193.93691],[0.50029,-0.35725],[-0.87925,0.62785]],[[390.71118,196.71949],[0.88712,-0.61669],[-1.30395,0.90645]],[[386.1937,198.23272],[1.58786,-0.02514],[-4.9971,0.07913]],[[375.46924,192.12545],[4.26842,1.21452],[-7.73644,-2.20131]],[[352.18355,185.7758],[7.76016,2.11641],[-3.10917,-0.84796]],[[342.86187,183.2106],[3.17647,0.54411],[-2.92973,-0.50184]],[[333.79325,183.20044],[2.94776,0.47542],[-2.11096,-0.34046]],[[327.46925,182.12545],[2.13769,0.04823],[-2.03241,-1.28339]],[[321.46925,178.12545],[2.27401,0.77889],[-0.71838,-0.24606]],[[319.19371,178.23272],[0.75929,-0.01003],[-2.16087,0.02855]],[[312.79325,177.20044],[2.12812,0.37588],[-1.1685,-0.20639]],[[309.237,177.04242],[1.09243,0.46323],[-3.81657,-1.61835]],[[299.87938,167.85935],[3.42166,2.16643],[-1.50222,-0.95114]],[[295.19371,167.23272],[1.65287,-0.00423],[-4.76662,0.0122]],[[280.29209,170.97851],[4.34273,-2.08853],[-1.31522,0.63252]],[[276.52554,173.2106],[1.43716,-0.25393],[-1.1398,0.20139]],[[273.19371,172.23272],[1.15734,0.01594],[-2.08292,-0.02869]],[[267.20509,174.01901],[2.02548,-0.48665],[-5.73765,3.92147]],[[246.61932,182.16585],[7.45706,2.05276],[-2.27003,-0.62489]],[[240.1937,179.23273],[2.35164,0.11545],[-2.05292,-0.10079]],[[236.15041,182.04243],[1.65993,-0.62392],[-0.67506,0.25373]],[[228.23699,182.04243],[0.67506,0.25373],[-1.00256,-0.37683]],[[225.87937,179.85936],[0.91455,0.55743],[-1.05631,-0.64383]],[[222.42593,178.5005],[0.87991,0.86952],[-0.67008,-0.66218]],[[221.73192,175.76084],[0.77119,0.54107],[-0.70448,-0.49427]],[[219.1937,176.23273],[0.86027,-0.02254],[-1.39622,0.0366]],[[215.01406,175.93692],[1.23238,0.65727],[-1.06046,-0.56558]],[[213.01406,172.93692],[1.00845,0.65381],[-0.62551,-0.40553]],[[210.79325,173.20045],[0.73816,0.10413],[-1.57939,-0.22279]],[[206.15041,172.04243],[1.5877,0.15272],[-1.22151,1.44584]],[[201.77867,175.66609],[1.4809,-1.17877],[-4.40614,3.50721]],[[188.09776,184.23089],[6.47817,-0.03755],[-2.56405,0.01486]],[[181.01648,181.22644],[2.52416,0.45075],[-1.79397,-0.32035]],[[175.89267,183.13303],[1.75402,-0.49434],[-2.36653,0.66697]],[[168.59416,184.20045],[2.42511,-0.40512],[-1.03969,0.17368]],[[165.59416,185.20045],[1.04398,-0.14562],[-0.75117,0.10478]],[[156.237,185.04243],[0.44525,0.17853],[-1.31263,-0.52631]],[[153.237,182.04243],[1.23543,0.68828],[-1.46961,-0.81875]],[[148.19371,182.23273],[1.68229,0],[-3,0]],[[139.19371,182.23273],[3,0],[-0.78339,0]],[[132.46925,182.12546],[0.42844,0.13606],[-1.2705,-0.40347]],[[129.09533,179.97852],[1.19438,0.59196],[-1.01698,-0.50404]],[[125.87938,178.85936],[0.94615,0.62699],[-1.17886,-0.7812]],[[122.87938,175.85936],[1.1767,0.78446],[-0.87706,-0.58471]],[[119.87938,174.85936],[0.90388,0.54233],[-0.80845,-0.48507]],[[117.87938,172.85936],[0.79023,0.51422],[-1.72107,-1.11993]],[[110.59416,172.20045],[1.91664,-0.25631],[-1.61068,0.2154]],[[106.50803,174.85936],[1.39345,-0.83607],[-0.90388,0.54233]],[[103.50803,175.85936],[0.90648,-0.53797],[-1.7403,1.03281]],[[98.77867,179.66609],[1.58334,-1.26031],[-2.98957,2.37965]],[[90.59415,185.20045],[4.27923,-0.61209],[-4.84016,0.69233]],[[81.28964,182.23089],[4.09602,1.0382],[-3.20018,1.12887]],[[74.50803,187.85936],[2.91408,-1.9566],[-0.94233,0.63271]],[[71.29208,188.97852],[1.01448,-0.50906],[-3.0712,1.54113]],[[61.1937,193.23273],[3.70526,-0.04947],[-1.18446,0.01581]],[[57.79324,192.20045],[1.16946,0.18861],[-2.00172,-0.32284]],[[51.79324,191.20045],[1.99109,0.38297],[-3.15624,-0.60708]],[[42.79324,192.20045],[3.37555,0.49634],[-3.66489,-0.53888]],[[31.59415,191.20045],[3.86708,-0.64709],[-3.06649,0.51312]],[[22.59415,194.20045],[3.09635,-0.41431],[-1.58617,0.21224]],[[17.79324,194.20045],[1.6003,0],[-3.18952,-1.05394]],[[10.42593,190.5005],[2.57399,2.4871],[-1.71685,-1.6589]],[[6.46924,186.12546],[2.45891,0.73657],[-1.68491,-0.50471]],[[1.1937,186.23273],[1.75888,0],[-3.51201,0]],[[-8.19996,187.15809],[3.45444,-0.78609],[-1.04853,0.2386]],[[-11.36618,187.77627],[0.88246,-0.61449],[-1.06295,0.74017]],[[-13.62666,190.93692],[1.15826,-0.57979],[-1.36747,0.68451]],[[-18.20676,191.20045],[1.52095,0.15886],[-3.09075,-0.32283]],[[-27.20676,188.20045],[3.06282,0.40663],[-4.20005,-0.55762]],[[-37.27856,190.76224],[3.5258,-1.78458],[0,0]]],&quot;closed&quot;:true,&quot;fillColor&quot;:[0.44314,0.49804,0.23922],&quot;strokeWidth&quot;:0.5}]}" fill="url(#color-5)" stroke-width="0.25"/><path d="M538.66284,193.74983c3.18597,-1.78458 5.30599,-3.12019 9.10122,-2.56257c2.76761,0.40663 5.33968,2.67725 8.13252,3.00008c1.37436,0.15886 2.90305,0.42074 4.13871,-0.26377c1.04662,-0.57979 1.08226,-2.42108 2.04276,-3.16125c0.79741,-0.61449 1.91363,-0.37982 2.86111,-0.61842c3.12148,-0.78609 5.31491,-0.92597 8.48842,-0.92597c1.58935,0 3.33075,-0.58196 4.85325,-0.07725c2.22191,0.73657 2.0241,2.71562 3.57547,4.37452c2.3259,2.4871 3.68864,2.617 6.57074,3.67094c1.44605,0 2.90496,0.21198 4.33825,-0.00026c2.79791,-0.41431 5.36191,-2.48793 8.13284,-3.00105c3.49435,-0.64709 6.80817,0.46061 10.11982,0.99949c3.0502,0.49634 5.28077,-1.60787 8.13279,-1.00079c1.79918,0.38297 3.61298,0.67693 5.42177,0.99977c1.05674,0.18861 2.00243,1.04805 3.07272,1.03224c3.34813,-0.04947 6.35044,-2.71471 9.12562,-4.25584c0.9167,-0.50906 2.05466,-0.48694 2.90616,-1.11965c2.63321,-1.9566 3.23693,-4.50132 6.12866,-5.63019c3.70122,1.0382 4.03417,3.66161 8.40781,2.96928c3.86678,-0.61209 4.69513,-3.15668 7.39654,-5.53633c1.43073,-1.26031 2.70159,-2.7752 4.27416,-3.80801c0.81911,-0.53797 1.89436,-0.45821 2.71113,-1.00054c1.25914,-0.83607 2.2374,-2.44451 3.69283,-2.65991c1.7319,-0.25631 5.02828,-0.46178 6.58347,0.65815c0.71407,0.51422 1.07662,1.51507 1.80715,2.00014c0.81676,0.54233 1.99452,0.46903 2.78705,1.05374c1.06328,0.78446 1.64573,2.21857 2.71097,2.99977c0.85496,0.62699 1.91078,0.56145 2.82974,1.06549c1.07926,0.59196 1.90068,1.74347 3.04873,2.14694c0.38715,0.13606 5.369,0.10633 6.07688,0.10633c2.71085,0 5.42256,-0.00137 8.13341,-0.00137c1.52015,0 3.22981,-1.00991 4.55777,-0.19116c1.11635,0.68828 1.52463,2.47386 2.71074,3.00017c0.40233,0.17853 7.77764,0.26119 8.45641,0.15641c0.94335,-0.14562 1.77194,-0.8271 2.71142,-1.00078c2.19137,-0.40512 4.45792,-0.40207 6.59635,-1.06904c1.58496,-0.49434 3.01011,-2.22834 4.63117,-1.90799c2.28087,0.45075 4.08263,3.01846 6.39954,3.0036c5.85378,-0.03755 8.38557,-5.06195 12.36703,-8.56916c1.33817,-1.17877 2.8484,-2.17919 3.95218,-3.62503c1.43467,0.15272 2.76929,0.93446 4.19645,1.15725c0.66701,0.10413 1.44224,-0.66952 2.00746,-0.26399c0.91125,0.65381 0.84906,2.43437 1.80731,2.99995c1.1136,0.65727 2.51643,0.33161 3.77807,0.29501c0.77735,-0.02254 1.65792,-0.9667 2.2945,-0.47243c0.69686,0.54107 0.02138,2.07762 0.62688,2.7398c0.7951,0.86952 2.16706,0.71448 3.12156,1.35831c0.8264,0.55743 1.22494,1.80598 2.13087,2.18281c0.61,0.25373 6.54387,0.25224 7.15386,-0.00149c1.49994,-0.62392 1.80067,-2.91133 3.65572,-2.81054c2.12498,0.11545 3.75754,2.30742 5.80877,2.93231c6.73832,2.05276 13.42732,-4.227 18.61195,-8.14847c1.83026,-0.48665 3.53204,-1.81496 5.4142,-1.78627c1.04579,0.01594 1.98232,1.17936 3.01226,0.97797c1.29864,-0.25393 2.21668,-1.59941 3.40514,-2.23193c3.92416,-2.08853 9.16423,-3.7324 13.47142,-3.7446c1.49356,-0.00423 2.87854,-0.32393 4.23597,0.62721c3.09186,2.16643 5.01187,7.56667 8.46058,9.18502c0.98714,0.46323 2.15896,-0.04771 3.21483,0.15868c1.923,0.37588 3.83338,1.06218 5.78598,1.03363c0.6861,-0.01003 1.4078,-0.35288 2.05694,-0.10682c2.05483,0.77889 3.58781,2.7184 5.42433,4.00179c1.93165,0.04823 3.80899,0.73609 5.71648,1.07655c2.66364,0.47542 5.54948,-0.48968 8.19682,0.01216c2.8703,0.54411 5.61621,1.71975 8.4257,2.56771c7.0122,2.11641 14.0553,4.15442 21.04607,6.35573c3.85701,1.21452 5.17742,6.18982 9.69287,6.11069c1.43481,-0.02514 2.82662,-0.55475 4.00489,-1.4612c0.80161,-0.61669 0.7077,-2.15428 1.50221,-2.78213c0.45207,-0.35725 1.1675,0.2059 1.72195,0.24355c1.71534,0.1165 4.69879,-0.1048 6.28671,-0.18932c1.59289,-1.59383 3.33569,-2.83475 5.00764,-4.32613c0.57937,-0.5168 0.95249,-1.46875 1.61627,-1.84099c2.52431,-1.4156 5.43246,-1.75859 8.13885,-2.67375c4.32087,-1.46109 8.64213,-2.92141 12.963,-4.3825c2.88058,-0.97407 5.84115,-1.69545 8.64197,-2.92173c0.35077,-0.15358 0.55668,-1.05128 0.86389,-0.80902c0.53236,0.41981 0.37024,1.40068 0.68785,2.03297c1.84163,3.66627 3.976,6.27952 7.84411,7.08328c1.77619,0.36908 3.63947,-0.32953 5.42192,0.00055c1.87887,0.34793 3.54123,1.66627 5.42206,2.00093c0.72826,0.12958 1.52672,-0.46996 2.20828,-0.15785c0.75599,0.34619 1.1386,1.30134 1.70779,1.95173c6.23493,0.84318 12.48366,1.48639 18.73548,2.15594c2.74771,0.29427 5.66532,-0.31836 8.25487,0.74014c0.77309,0.31601 0.97943,1.5542 1.7095,1.97736c1.25051,0.72483 2.64944,1.53838 4.05217,1.3631c4.85172,-0.60625 4.89593,-4.04215 8.17039,-6.33653c2.02927,-1.42188 3.32431,-0.0276 5.74261,-0.72443c2.39389,-0.68979 4.2386,-2.83809 6.46084,-4.04068c1.74671,-0.94525 1.54241,1.32471 2.99909,1.91747c1.76202,0.717 3.84605,-0.55817 5.63165,0.08337c0.88912,0.31945 3.91171,3.52086 4.30845,3.91784c1.3124,0.05267 2.63351,0.33294 3.93726,0.15825c2.79258,-0.37417 5.37831,-2.42711 8.13252,-3.00007c2.02041,-0.42031 2.43657,0.30739 4.42833,0.93294c2.54069,0.79796 5.21962,1.09274 7.86065,1.10023c3.31831,0.00942 6.7475,-0.9599 9.41133,1.43398c2.77635,2.49499 1.88434,6.51481 1.88434,10.06821c0,2.5332 0.34761,5.09208 0.02938,7.60069c-0.26483,2.08771 -1.52761,3.91548 -1.80708,6.00086c-0.17674,1.31891 0.00009,2.66729 0.00009,4.00062c-1.35698,4.50519 -0.39244,8.50311 -0.91559,13.09704c-0.4966,4.36074 -2.15451,8.64603 -2.71081,13.00342c-0.50079,3.92261 0.51828,8.08952 0.00026,12.00058c-1.659,12.52549 -0.92067,25.58694 -0.92067,38.31174c0,4.63266 0.43191,8.58933 0.8974,13.15725c0.35998,3.53265 3.61478,32.29985 3.61953,37.85843c0.0037,4.33048 -0.02302,8.66364 -0.00047,12.99405c0.00451,0.86656 0.02153,1.73337 0.02907,2.59991c0.00397,0.45743 0.3776,1.17372 0.00532,1.37254c-0.53925,0.288 -523.68051,-2.09387 -526.15924,-2.43819c-1.80684,-0.25099 -3.66134,0.27799 -5.46315,-0.01395c-1.2288,-0.1991 -2.38003,-0.85078 -3.61456,-1.00035c-4.57482,-0.55426 -8.96736,-0.18458 -13.46863,-0.98729c-0.82134,-0.14647 -1.54717,-0.70013 -2.3584,-0.90424c-0.51833,-0.13041 -1.30228,0.4026 -1.59261,-0.09016c-0.32704,-0.55506 0.46468,-1.28054 0.39716,-1.93895c-0.10739,-1.04737 -0.60254,-2.00048 -0.90374,-3.00048c0,-2.02759 -0.59183,-4.00296 -0.90385,-6.00093c-0.8048,-5.15358 0.04932,-11.35649 0.02865,-16.60207c-0.00982,-2.49068 -0.60645,-4.93729 -0.93298,-7.40164c-0.29917,-2.25783 0.26734,-4.58174 0.01801,-6.84697c-0.33,-2.99828 -0.60022,-6.00572 -0.90433,-9.00735c-0.36423,-3.59502 -1.36333,-6.25629 -1.77315,-9.81664c-0.61485,-5.34169 -2.63091,-29.9185 -2.73467,-34.01064c-0.15125,-5.9649 0.00108,-11.96284 0.00108,-17.93044c0,-2.68095 -0.44104,-5.96281 -0.02906,-8.6009c1.50526,-9.63899 2.7921,-19.05664 2.71148,-29.00459c1.60982,-5.34459 1.08745,-11.60666 0.95841,-17.3736z" data-paper-data="{&quot;noHover&quot;:false,&quot;origItem&quot;:[&quot;Path&quot;,{&quot;applyMatrix&quot;:true,&quot;segments&quot;:[[[-37.27854,190.76223],[0,0],[0.1428,5.76694]],[[-38.33857,208.13318],[1.78153,-5.34459],[0.08922,9.94795]],[[-41.33857,237.13318],[1.66582,-9.63899],[-0.45592,2.63809]],[[-41.30629,245.73272],[0,-2.68095],[0,5.9676]],[[-41.30734,263.66029],[-0.16738,-5.9649],[0.11483,4.09214]],[[-40.30629,275.73272],[-0.00834,-4.11822],[-0.02248,1.92829]],[[-39.33711,281.43621],[-0.24098,-1.9133],[0.67325,5.34522]],[[-38.28117,297.66545],[-0.68044,-5.34169],[0.45353,3.56035]],[[-36.31906,307.48048],[-0.40308,-3.59502],[0.33655,3.00163]],[[-35.31847,316.48638],[-0.3652,-2.99828],[0.27592,2.26523]],[[-35.33858,323.33227],[-0.33108,-2.25783],[0.36136,2.46435]],[[-34.3063,330.73273],[-0.01086,-2.49068],[0.02288,5.24558]],[[-34.33858,347.33227],[-0.89065,-5.15358],[0.34529,1.99797]],[[-33.33858,353.33227],[0,-2.02759],[0.33333,1]],[[-32.33858,356.33227],[-0.11884,-1.04737],[0.07471,0.65841]],[[-32.77819,358.27095],[-0.36193,-0.55506],[0.3213,0.49276]],[[-31.01573,358.36102],[-0.57361,-0.13041],[0.89776,0.20411]],[[-28.40584,359.26501],[-0.90895,-0.14647],[4.9814,0.80271]],[[-13.50084,360.25146],[-5.06279,-0.55426],[1.36621,0.14957]],[[-9.50084,361.25146],[-1.35987,-0.1991],[1.99401,0.29194]],[[-3.45506,361.2651],[-1.99957,-0.25099],[2.74312,0.34432]],[[4.59416,363.26501],[-2.7251,-0.46598],[3.63448,0.62148]],[[16.1937,363.23273],[-3.70046,0],[6.33333,0]],[[35.1937,363.23273],[-6.33333,0],[4.15655,0]],[[46.49916,364.25146],[-4.05408,-0.59424],[3.25552,0.47719]],[[56.54304,364.26491],[-3.27608,-0.35885],[5.67647,0.62178]],[[73.49916,366.25146],[-5.6343,-0.71853],[3.72613,0.47519]],[[85.1937,366.23273],[-3.75916,0],[9.33333,0]],[[113.1937,366.23273],[-9.33333,0],[26.33333,0]],[[192.1937,366.23273],[-26.33333,0],[16.33333,0]],[[241.1937,366.23273],[-16.33333,0],[8.25228,0]],[[266.49916,366.25146],[-8.18398,-1.00383],[2.56639,0.31479]],[[274.1937,367.23273],[-2.58558,0.01311],[9.8384,0]],[[303.44004,368.2449],[-9.72085,-1.22971],[2.36586,0.29929]],[[310.59415,368.26501],[-2.36185,-0.32945],[1.04398,0.14562]],[[313.59415,369.26501],[-1.04294,-0.15293],[11.15119,1.63515]],[[347.49915,370.25146],[-11.04896,-2.76224],[3.59349,-0.02498]],[[358.59415,370.26501],[-3.54521,-0.57178],[1.04064,0.16784]],[[361.59415,371.26501],[-1.0387,-0.17951],[4.16595,0.71996]],[[374.49915,371.25146],[-4.20383,-0.58622],[1.3612,0.18982]],[[378.49915,372.25146],[-1.35984,-0.19932],[4.02965,0.59066]],[[391.19369,372.23273],[-4.09154,0],[10,0]],[[421.19369,372.23273],[-10,0],[4.39184,0]],[[434.88823,372.25146],[-4.35357,0.5552],[3.69397,-0.47108]],[[445.88823,370.25146],[-3.69562,0.4533],[3.60079,-0.44167]],[[456.88823,370.25146],[-3.58129,0.52494],[1.35984,-0.19932]],[[460.88823,369.25146],[-1.36414,0.16735],[4.05141,-0.49701]],[[473.22169,369.18875],[-4.06303,0.42506],[3.31958,-0.34728]],[[483.04422,367.24455],[-3.32104,0.33305],[7.38773,-0.74087]],[[505.1937,366.23273],[-7.47071,0],[1.89404,0.02352]],[[510.79324,365.26501],[-1.88004,0.23103],[5.27435,-0.64813]],[[527.1937,365.23273],[-5.32811,0],[4.31261,0]],[[540.49916,365.25146],[-4.25848,-0.59384],[1.3612,0.18982]],[[544.49916,366.25146],[-1.35984,-0.19932],[3.12889,0.45862]],[[552.79325,365.26501],[-2.9424,0.41043],[3.92497,-0.54749]],[[564.79325,365.26501],[-3.90717,0.57293],[1.04294,-0.15293]],[[567.79325,364.26501],[-1.04064,0.16784],[3.4291,-0.55305]],[[576.79325,363.26501],[-3.38883,1.12961],[0.64623,0.14654]],[[578.73193,363.70462],[-0.59677,0.288],[0.41199,-0.19882]],[[578.72599,362.33227],[0.0044,0.45743],[-0.00834,-0.86654]],[[578.69371,359.73273],[0.00499,0.86656],[-0.02496,-4.33041]],[[578.69372,346.74057],[0.0041,4.33048],[-0.00525,-5.55858]],[[576.72599,330.13319],[0.86906,5.38841],[-0.31845,-1.97448]],[[576.72599,324.13319],[0.33487,1.97177],[-0.41163,-2.42369]],[[574.71244,317.03819],[0.30853,2.43896],[-0.45891,-3.62769]],[[574.68705,308.88787],[0.39838,3.53265],[-0.51514,-4.56792]],[[573.69371,295.73273],[0,4.63266],[0,-12.7248]],[[574.71244,257.42727],[-1.83595,12.52549],[0.57327,-3.91106]],[[574.71227,245.42865],[-0.55421,3.92261],[0.61564,-4.35739]],[[577.71244,232.42727],[-0.54957,4.36074],[0.57896,-4.59393]],[[578.72599,219.33227],[-1.50173,4.50519],[0,-1.33333]],[[578.72599,215.33227],[-0.1956,1.31891],[0.30928,-2.08538]],[[580.72599,209.33227],[-0.29308,2.08771],[0.35217,-2.50861]],[[580.69371,201.73273],[0,2.5332],[0,-3.5534]],[[578.60874,191.66609],[3.07249,2.49499],[-2.94797,-2.39388]],[[568.19371,190.23273],[3.67226,0.00942],[-2.92273,-0.00749]],[[559.49474,189.13303],[2.8117,0.79796],[-2.20421,-0.62555]],[[554.59416,188.20045],[2.23592,-0.42031],[-3.04799,0.57296]],[[545.59416,191.20045],[3.09045,-0.37417],[-1.44281,0.17469]],[[541.237,191.04243],[1.45238,0.05267],[-0.43906,-0.39698]],[[536.46925,187.12546],[0.98396,0.31945],[-1.97607,-0.64154]],[[530.237,187.04243],[1.94996,0.717],[-1.61206,-0.59276]],[[526.91817,185.12546],[1.93302,-0.94525],[-2.45928,1.20259]],[[519.76809,189.16585],[2.64924,-0.68979],[-2.67625,0.69683]],[[513.50804,189.85935],[2.24572,-1.42188],[-3.62373,2.29438]],[[504.37093,196.22643],[5.36923,-0.60625],[-1.55236,0.17528]],[[499.8867,194.86385],[1.3839,0.72483],[-0.80794,-0.42316]],[[497.99502,192.88698],[0.85555,0.31601],[-2.86576,-1.0585]],[[488.85989,192.14758],[3.0408,0.29427],[-6.91867,-0.66955]],[[468.12673,189.9936],[6.89998,0.84318],[-0.62991,-0.65039]],[[466.23699,188.04242],[0.83663,0.34619],[-0.75426,-0.31211]],[[463.79324,188.20044],[0.80594,0.12958],[-2.08145,-0.33466]],[[457.79324,186.20044],[2.07928,0.34793],[-1.97257,-0.33008]],[[451.79324,186.20044],[1.96565,0.36908],[-4.28069,-0.80376]],[[443.11357,179.11947],[2.03806,3.66627],[-0.35149,-0.63229]],[[442.35262,177.08699],[0.58914,0.41981],[-0.33998,-0.24226]],[[441.39655,177.89595],[0.38819,-0.15358],[-3.09957,1.22628]],[[431.83303,180.81814],[3.18784,-0.97407],[-4.78176,1.46109]],[[417.48776,185.20142],[4.78175,-1.46109],[-2.99507,0.91516]],[[408.48112,187.87575],[2.79357,-1.4156],[-0.73459,0.37224]],[[406.77867,189.66608],[0.64117,-0.5168],[-1.85028,1.49138]],[[401.15041,194.04242],[1.76279,-1.59383],[-1.75731,0.08452]],[[394.1937,194.23272],[1.8983,0.1165],[-0.61359,-0.03765]],[[392.37334,193.93691],[0.50029,-0.35725],[-0.87925,0.62785]],[[390.71118,196.71949],[0.88712,-0.61669],[-1.30395,0.90645]],[[386.1937,198.23272],[1.58786,-0.02514],[-4.9971,0.07913]],[[375.46924,192.12545],[4.26842,1.21452],[-7.73644,-2.20131]],[[352.18355,185.7758],[7.76016,2.11641],[-3.10917,-0.84796]],[[342.86187,183.2106],[3.17647,0.54411],[-2.92973,-0.50184]],[[333.79325,183.20044],[2.94776,0.47542],[-2.11096,-0.34046]],[[327.46925,182.12545],[2.13769,0.04823],[-2.03241,-1.28339]],[[321.46925,178.12545],[2.27401,0.77889],[-0.71838,-0.24606]],[[319.19371,178.23272],[0.75929,-0.01003],[-2.16087,0.02855]],[[312.79325,177.20044],[2.12812,0.37588],[-1.1685,-0.20639]],[[309.237,177.04242],[1.09243,0.46323],[-3.81657,-1.61835]],[[299.87938,167.85935],[3.42166,2.16643],[-1.50222,-0.95114]],[[295.19371,167.23272],[1.65287,-0.00423],[-4.76662,0.0122]],[[280.29209,170.97851],[4.34273,-2.08853],[-1.31522,0.63252]],[[276.52554,173.2106],[1.43716,-0.25393],[-1.1398,0.20139]],[[273.19371,172.23272],[1.15734,0.01594],[-2.08292,-0.02869]],[[267.20509,174.01901],[2.02548,-0.48665],[-5.73765,3.92147]],[[246.61932,182.16585],[7.45706,2.05276],[-2.27003,-0.62489]],[[240.1937,179.23273],[2.35164,0.11545],[-2.05292,-0.10079]],[[236.15041,182.04243],[1.65993,-0.62392],[-0.67506,0.25373]],[[228.23699,182.04243],[0.67506,0.25373],[-1.00256,-0.37683]],[[225.87937,179.85936],[0.91455,0.55743],[-1.05631,-0.64383]],[[222.42593,178.5005],[0.87991,0.86952],[-0.67008,-0.66218]],[[221.73192,175.76084],[0.77119,0.54107],[-0.70448,-0.49427]],[[219.1937,176.23273],[0.86027,-0.02254],[-1.39622,0.0366]],[[215.01406,175.93692],[1.23238,0.65727],[-1.06046,-0.56558]],[[213.01406,172.93692],[1.00845,0.65381],[-0.62551,-0.40553]],[[210.79325,173.20045],[0.73816,0.10413],[-1.57939,-0.22279]],[[206.15041,172.04243],[1.5877,0.15272],[-1.22151,1.44584]],[[201.77867,175.66609],[1.4809,-1.17877],[-4.40614,3.50721]],[[188.09776,184.23089],[6.47817,-0.03755],[-2.56405,0.01486]],[[181.01648,181.22644],[2.52416,0.45075],[-1.79397,-0.32035]],[[175.89267,183.13303],[1.75402,-0.49434],[-2.36653,0.66697]],[[168.59416,184.20045],[2.42511,-0.40512],[-1.03969,0.17368]],[[165.59416,185.20045],[1.04398,-0.14562],[-0.75117,0.10478]],[[156.237,185.04243],[0.44525,0.17853],[-1.31263,-0.52631]],[[153.237,182.04243],[1.23543,0.68828],[-1.46961,-0.81875]],[[148.19371,182.23273],[1.68229,0],[-3,0]],[[139.19371,182.23273],[3,0],[-0.78339,0]],[[132.46925,182.12546],[0.42844,0.13606],[-1.2705,-0.40347]],[[129.09533,179.97852],[1.19438,0.59196],[-1.01698,-0.50404]],[[125.87938,178.85936],[0.94615,0.62699],[-1.17886,-0.7812]],[[122.87938,175.85936],[1.1767,0.78446],[-0.87706,-0.58471]],[[119.87938,174.85936],[0.90388,0.54233],[-0.80845,-0.48507]],[[117.87938,172.85936],[0.79023,0.51422],[-1.72107,-1.11993]],[[110.59416,172.20045],[1.91664,-0.25631],[-1.61068,0.2154]],[[106.50803,174.85936],[1.39345,-0.83607],[-0.90388,0.54233]],[[103.50803,175.85936],[0.90648,-0.53797],[-1.7403,1.03281]],[[98.77867,179.66609],[1.58334,-1.26031],[-2.98957,2.37965]],[[90.59415,185.20045],[4.27923,-0.61209],[-4.84016,0.69233]],[[81.28964,182.23089],[4.09602,1.0382],[-3.20018,1.12887]],[[74.50803,187.85936],[2.91408,-1.9566],[-0.94233,0.63271]],[[71.29208,188.97852],[1.01448,-0.50906],[-3.0712,1.54113]],[[61.1937,193.23273],[3.70526,-0.04947],[-1.18446,0.01581]],[[57.79324,192.20045],[1.16946,0.18861],[-2.00172,-0.32284]],[[51.79324,191.20045],[1.99109,0.38297],[-3.15624,-0.60708]],[[42.79324,192.20045],[3.37555,0.49634],[-3.66489,-0.53888]],[[31.59415,191.20045],[3.86708,-0.64709],[-3.06649,0.51312]],[[22.59415,194.20045],[3.09635,-0.41431],[-1.58617,0.21224]],[[17.79324,194.20045],[1.6003,0],[-3.18952,-1.05394]],[[10.42593,190.5005],[2.57399,2.4871],[-1.71685,-1.6589]],[[6.46924,186.12546],[2.45891,0.73657],[-1.68491,-0.50471]],[[1.1937,186.23273],[1.75888,0],[-3.51201,0]],[[-8.19996,187.15809],[3.45444,-0.78609],[-1.04853,0.2386]],[[-11.36618,187.77627],[0.88246,-0.61449],[-1.06295,0.74017]],[[-13.62666,190.93692],[1.15826,-0.57979],[-1.36747,0.68451]],[[-18.20676,191.20045],[1.52095,0.15886],[-3.09075,-0.32283]],[[-27.20676,188.20045],[3.06282,0.40663],[-4.20005,-0.55762]],[[-37.27856,190.76224],[3.5258,-1.78458],[0,0]]],&quot;closed&quot;:true,&quot;fillColor&quot;:[0.44314,0.49804,0.23922],&quot;strokeWidth&quot;:0.5}]}" fill="url(#color-6)" stroke-width="0.25"/></g></g></svg>