<svg version="1.1" xmlns="http://www.w3.org/2000/svg" xmlns:xlink="http://www.w3.org/1999/xlink" width="663.38723" height="456.20262" viewBox="0,0,663.38723,456.20262"><defs><linearGradient x1="321.41326" y1="-47.16501" x2="319.07112" y2="407.165" gradientUnits="userSpaceOnUse" id="color-1"><stop offset="0" stop-color="#05110f"/><stop offset="1" stop-color="#001605"/></linearGradient></defs><g transform="translate(12.29805,48.10131)"><g data-paper-data="{&quot;isPaintingLayer&quot;:true}" fill-rule="nonzero" stroke-linejoin="miter" stroke-miterlimit="10" stroke-dasharray="" stroke-dashoffset="0" style="mix-blend-mode: normal"><path d="M-10.06367,406.22869l2.34214,-454.33l658.26958,1.87262l-2.34214,454.33z" fill="url(#color-1)" stroke="#000000" stroke-width="0" stroke-linecap="butt"/><path d="M-8.45316,-36.74499l655.57727,1.86496" fill="none" stroke-opacity="0.1518" stroke="#156f39" stroke-width="3.5" stroke-linecap="round"/><path d="M648.35871,-13.2354l-655.57727,-1.86496" fill="none" stroke-opacity="0.13567" stroke="#439966" stroke-width="3.5" stroke-linecap="round"/><path d="M-7.29294,-0.67318l655.57727,1.86496" fill="none" stroke-opacity="0.15188" stroke="#115c41" stroke-width="3.5" stroke-linecap="round"/><path d="M648.14798,27.64163l-655.57727,-1.86496" fill="none" stroke-opacity="0.13567" stroke="#25834b" stroke-width="3.5" stroke-linecap="round"/><path d="M-6.23809,55.83716l655.57727,1.86496" fill="none" stroke-opacity="0.13575" stroke="#156f39" stroke-width="3.5" stroke-linecap="round"/><path d="M649.27721,69.72478l-655.57727,-1.86496" fill="none" stroke-opacity="0.13575" stroke="#156f39" stroke-width="3.5" stroke-linecap="round"/><path d="M-7.76398,90.69904l655.57727,1.86496" fill="none" stroke-opacity="0.15188" stroke="#115c41" stroke-width="3.5" stroke-linecap="round"/><path d="M647.65835,122.62066l-655.57727,-1.86496" fill="none" stroke-opacity="0.13567" stroke="#25834b" stroke-width="3.5" stroke-linecap="round"/><path d="M-6.80415,165.64415l655.57727,1.86496" fill="none" stroke-opacity="0.13575" stroke="#156f39" stroke-width="3.5" stroke-linecap="round"/><path d="M-8.36517,207.31886l655.57727,1.86496" fill="none" stroke-opacity="0.13567" stroke="#439966" stroke-width="3.5" stroke-linecap="round"/><path d="M-8.43334,220.54378l655.57727,1.86496" fill="none" stroke-opacity="0.15188" stroke="#115c41" stroke-width="3.5" stroke-linecap="round"/><path d="M-9.92205,248.19207l655.57727,1.86496" fill="none" stroke-opacity="0.13575" stroke="#156f39" stroke-width="3.5" stroke-linecap="round"/><path d="M-7.3723,275.85185l655.57727,1.86496" fill="none" stroke-opacity="0.13567" stroke="#25834b" stroke-width="3.5" stroke-linecap="round"/><path d="M-7.47146,295.0881l655.57727,1.86496" fill="none" stroke-opacity="0.13575" stroke="#156f39" stroke-width="3.5" stroke-linecap="round"/><path d="M646.58612,330.61269l-655.57727,-1.86496" fill="none" stroke-opacity="0.13567" stroke="#115c41" stroke-width="3.5" stroke-linecap="round"/><path d="M-9.13989,357.60211l655.57727,1.86496" fill="none" stroke-opacity="0.13575" stroke="#156f39" stroke-width="3.5" stroke-linecap="round"/><path d="M645.02923,371.48591l-655.57727,-1.86496" fill="none" stroke-opacity="0.15188" stroke="#115c41" stroke-width="3.5" stroke-linecap="round"/><path d="M648.93754,396.74498l-655.57727,-1.86496" fill="none" stroke-opacity="0.13567" stroke="#439966" stroke-width="3.5" stroke-linecap="round"/></g></g></svg>