<svg version="1.1" xmlns="http://www.w3.org/2000/svg" xmlns:xlink="http://www.w3.org/1999/xlink" width="40.12909" height="104.67871" viewBox="0,0,40.12909,104.67871"><defs><radialGradient cx="238.52448" cy="177.75476" r="22.57159" gradientUnits="userSpaceOnUse" id="color-1"><stop offset="0" stop-color="#3c3c3c"/><stop offset="1" stop-color="#939393"/></radialGradient><linearGradient x1="239.74787" y1="156.06832" x2="239.74787" y2="162.91937" gradientUnits="userSpaceOnUse" id="color-2"><stop offset="0" stop-color="#696969"/><stop offset="1" stop-color="#a0a0a0"/></linearGradient><radialGradient cx="235.71182" cy="133.41612" r="13.11833" gradientUnits="userSpaceOnUse" id="color-3"><stop offset="0" stop-color="#dcdcdc"/><stop offset="1" stop-color="#a0a0a0"/></radialGradient><radialGradient cx="241.29951" cy="140.30072" r="9.85359" gradientUnits="userSpaceOnUse" id="color-4"><stop offset="0" stop-color="#c5dfff"/><stop offset="1" stop-color="#219cff"/></radialGradient><radialGradient cx="230.47957" cy="134.03046" r="10.07074" gradientUnits="userSpaceOnUse" id="color-5"><stop offset="0" stop-color="#303030"/><stop offset="1" stop-color="#292929"/></radialGradient><radialGradient cx="246.90767" cy="130.85061" r="2.65078" gradientUnits="userSpaceOnUse" id="color-6"><stop offset="0" stop-color="#787878"/><stop offset="1" stop-color="#292929"/></radialGradient><radialGradient cx="235.75537" cy="133.01564" r="4.17314" gradientUnits="userSpaceOnUse" id="color-7"><stop offset="0" stop-color="#a7a7a7"/><stop offset="1" stop-color="#292929"/></radialGradient></defs><g transform="translate(-220.77608,-129.64767)"><g data-paper-data="{&quot;isPaintingLayer&quot;:true}" fill-rule="nonzero" stroke-linejoin="miter" stroke-miterlimit="10" stroke-dasharray="" stroke-dashoffset="0" style="mix-blend-mode: normal"><path d="M223.55679,200.32636v-45.14319h29.93538v45.14319z" fill="url(#color-1)" stroke="#ed6b00" stroke-width="0" stroke-linecap="butt"/><g><path d="M245.93091,227.32045c0,0 -1.8504,-25.73359 -2.78619,-30.12458c-0.30599,-1.4358 -3.39803,-1.52409 -3.39803,-1.52409c0,0 -3.02242,-4.24407 0.6063,-4.24407c3.06682,0 9.822,2.18267 9.822,2.18267l3.75904,33.71008z" data-paper-data="{&quot;index&quot;:null}" fill="#494949" stroke="#000000" stroke-width="0" stroke-linecap="butt"/><path d="M259.69259,234.32551c-0.59276,0 -2.64411,0.01365 -4.70436,-0.0669c-1.25258,-0.04897 -1.90215,-0.61779 -2.83553,-0.76063c-1.17507,-0.17982 -2.93854,0.22047 -3.78778,0.02896c-1.56485,-0.35288 -2.37463,-0.77782 -2.37463,-0.77782c0,0 -0.26911,-1.0254 -0.2856,-1.5858c-0.02221,-0.75501 0.16433,-2.53701 0.16433,-2.53701c0,0 5.93425,-0.11957 8.24914,0.08076c1.36979,0.11854 4.24057,0.6468 4.24057,0.6468c0,0 1.45976,0.6156 1.67337,1.04283c0.26162,0.52325 0.87307,1.98865 0.87307,1.98865c0,0 -0.3857,1.94015 -1.21259,1.94015z" data-paper-data="{&quot;index&quot;:null}" fill="#141415" stroke="#000000" stroke-width="0" stroke-linecap="butt"/><path d="M259.4217,231.7507c-0.24822,0 0.7024,1.60165 -2.61811,1.33311c-3.13563,-0.25358 -2.77648,-1.18823 -3.8809,-1.26883c-2.30937,-0.16854 -2.58765,0.59503 -3.58732,0.44205c-0.34815,-0.05328 -0.51271,-0.11454 -1.78459,-0.97035c-0.87472,-0.58857 -0.66566,-1.75122 -1.26542,-2.3793c-0.87609,-0.91745 -0.80847,-1.8858 -0.80847,-1.8858l-0.07637,-3.04773c0,0 0.48635,2.20681 1.32529,3.03122c0.75062,0.73761 2.3169,-0.01875 2.80058,-0.01889c0.84696,-0.00024 -0.68885,-3.26804 0.12091,-3.2498c0.43542,0.00981 3.72275,-0.23409 3.72275,-0.23409c0,0 0.12302,3.57989 0.35598,3.60005c1.36979,0.11854 4.60434,0.6468 4.60434,0.6468c0,0 1.45976,0.6156 1.67338,1.04283c0.26162,0.52325 0.63055,2.95873 0.63055,2.95873c0,0 -0.3857,0 -1.2126,0z" data-paper-data="{&quot;index&quot;:null}" fill="#252527" stroke="#000000" stroke-width="0" stroke-linecap="butt"/><path d="M254.6193,227.72077l-2.6677,1.09133" fill="none" stroke="#ffffff" stroke-width="0.5" stroke-linecap="round"/><path d="M253.89175,229.17588l2.54645,-1.45511" fill="none" stroke="#ffffff" stroke-width="0.5" stroke-linecap="round"/><path d="M257.52954,227.96329l-1.45512,1.45511" fill="none" stroke="#ffffff" stroke-width="0.5" stroke-linecap="round"/><path d="M250.73901,224.93181l2.18266,-0.24252" fill="none" stroke="#969696" stroke-width="0.5" stroke-linecap="round"/><path d="M251.22405,225.78062l1.94015,-0.36378" fill="none" stroke="#969696" stroke-width="0.5" stroke-linecap="round"/></g><g><path d="M226.12337,227.23573l3.75904,-33.71008c0,0 6.75518,-2.18267 9.822,-2.18267c3.62872,0 0.6063,4.24407 0.6063,4.24407c0,0 -3.09204,0.08829 -3.39803,1.52409c-0.93579,4.39099 -2.78619,30.12458 -2.78619,30.12458z" fill="#494949" stroke="#000000" stroke-width="0" stroke-linecap="butt"/><path d="M241.54001,232.29246c0,0 -0.3857,1.94015 -1.2126,1.94015c-0.59276,0 -2.64411,0.01366 -4.70436,-0.06689c-1.25258,-0.04897 -1.90215,-0.61779 -2.83553,-0.76063c-1.17507,-0.17983 -2.93853,0.22047 -3.78777,0.02896c-1.56485,-0.35288 -2.37463,-0.77781 -2.37463,-0.77781c0,0 -0.26912,-1.02539 -0.2856,-1.5858c-0.02221,-0.755 0.16433,-2.53701 0.16433,-2.53701c0,0 5.93424,-0.11957 8.24914,0.08075c1.36979,0.11854 4.24057,0.6468 4.24057,0.6468c0,0 1.45975,0.6156 1.67337,1.04283c0.26162,0.52325 0.87307,1.98866 0.87307,1.98866z" data-paper-data="{&quot;index&quot;:null}" fill="#141415" stroke="#000000" stroke-width="0" stroke-linecap="butt"/><path d="M241.26911,231.65782c0,0 -0.38569,0 -1.21259,0c-0.24822,0 0.70239,1.60165 -2.61811,1.33311c-3.13563,-0.25359 -2.77648,-1.18823 -3.8809,-1.26883c-2.30937,-0.16854 -2.58766,0.59503 -3.58733,0.44204c-0.34815,-0.05328 -0.51271,-0.11454 -1.78458,-0.97035c-0.87471,-0.58857 -0.66566,-1.75122 -1.26542,-2.3793c-0.87609,-0.91746 -0.80847,-1.8858 -0.80847,-1.8858l-0.07637,-3.04773c0,0 0.48635,2.20682 1.32529,3.03123c0.75062,0.73761 2.3169,-0.01875 2.80058,-0.01889c0.84695,-0.00024 -0.68885,-3.26805 0.12091,-3.24981c0.43542,0.00981 3.72275,-0.23408 3.72275,-0.23408c0,0 0.12302,3.57988 0.35598,3.60004c1.36978,0.11854 4.60434,0.6468 4.60434,0.6468c0,0 1.45975,0.6156 1.67337,1.04283c0.26163,0.52325 0.63055,2.95873 0.63055,2.95873z" data-paper-data="{&quot;index&quot;:null}" fill="#252527" stroke="#000000" stroke-width="0" stroke-linecap="butt"/><path d="M235.25413,227.62787l-2.66771,1.09134" fill="none" stroke="#ffffff" stroke-width="0.5" stroke-linecap="round"/><path d="M237.07301,227.62788l-2.54644,1.45511" fill="none" stroke="#ffffff" stroke-width="0.5" stroke-linecap="round"/><path d="M236.70923,229.32551l1.45512,-1.45512" fill="none" stroke="#ffffff" stroke-width="0.5" stroke-linecap="round"/><path d="M233.55649,224.5964l-2.18267,0.24252" fill="none" stroke="#969696" stroke-width="0.5" stroke-linecap="round"/><path d="M233.79901,225.32395l-1.94015,0.36378" fill="none" stroke="#969696" stroke-width="0.5" stroke-linecap="round"/></g><g stroke="#000000" stroke-width="0" stroke-linecap="butt"><path d="M252.4847,188.97551c0,0 0.53907,-2.97328 0.0449,-6.44804c-0.11883,-0.83559 -0.33147,-3.58637 -0.46133,-4.44347c-0.30732,-2.02854 -0.67877,-4.02868 -0.83905,-5.2772c-0.34475,-2.68535 -0.70866,-6.09717 -0.70866,-6.09717c0,0 -0.55816,-6.70195 0.43767,-6.95809c5.82398,-1.49802 5.035,6.04595 5.035,6.04595c0,0 0.59317,4.86368 0.95969,7.71873c0.14917,1.16193 -0.2952,2.11076 -0.12922,3.91963c0.07441,0.81086 -0.06253,4.32835 -0.05299,6.47901c0.01587,3.58077 0.37929,5.74053 0.37929,5.74053z" data-paper-data="{&quot;index&quot;:null}" fill="#bdbdbd"/><path d="M257.16221,194.18146c-0.2068,-0.02589 -0.04155,3.72298 -0.92042,3.68005c-0.43227,-0.02112 -0.01237,-2.43905 -0.60046,-3.27716c-0.31128,-0.44364 0.31732,4.28209 -0.81485,3.79046c-0.38868,-0.16879 -0.07317,-3.59707 -0.47838,-4.42132c-0.21691,-0.44124 0.01489,5.2226 -0.74462,4.93975c-0.45088,-0.1679 0.01094,-3.28913 -0.28543,-4.69799c-0.14438,-0.68636 -0.40034,3.85363 -0.94607,3.52465c-0.33405,-0.20138 -0.30191,-4.64428 -0.3386,-4.69486c-0.20622,-0.28427 -0.95089,2.4004 -1.20924,1.74902c-0.47615,-1.20049 0.46503,-2.61639 1.20777,-3.947c0.43397,-0.77742 0.4788,-1.95726 0.4788,-1.95726c0,0 1.60725,-0.45573 2.3949,-0.34095c0.76691,0.11176 2.2704,1.02083 2.2704,1.02083c0,0 0.42427,4.68662 -0.01381,4.63177z" data-paper-data="{&quot;index&quot;:null}" fill="#777777"/></g><g stroke-linecap="butt"><path d="M235.91979,162.91937v-6.85104h7.65615v6.85104z" fill="url(#color-2)" stroke="#000000" stroke-width="0"/><path d="M252.80944,143.64573c0,7.73092 -5.73774,13.99807 -12.8156,13.99807c-7.07786,0 -12.8156,-6.26715 -12.8156,-13.99807c0,-7.73092 5.73774,-13.99806 12.8156,-13.99806c7.07786,0 12.8156,6.26714 12.8156,13.99806z" fill="url(#color-3)" stroke="none" stroke-width="0"/><path d="M254.09785,143.02638c0,3.74486 0.0384,8.21376 -9.59547,8.69146c-10.76272,0.53367 -10.10384,-4.9466 -10.10384,-8.69146c0,-3.74486 4.40985,-6.78067 9.84967,-6.78067c5.43982,0 9.84967,3.03581 9.84967,6.78067z" data-paper-data="{&quot;index&quot;:null}" fill="url(#color-4)" stroke="#ed6b00" stroke-width="0"/><path d="M233.16997,134.03999c-0.16984,0.01553 -0.60661,0.06221 -1.07903,0.1438c-0.52185,0.20742 -1.13106,0.41772 -1.59752,0.64771c-0.28909,0.89276 0.78709,1.80702 -0.65422,2.4752c-2.45813,1.13958 -1.71655,-2.03888 -0.89769,-3.03685c1.27069,-1.10653 3.14359,-1.2394 4.75566,-1.549c2.22048,-0.42645 4.38435,-1.08334 6.57971,-1.21737c0.08249,-0.08622 0.19535,-0.14411 0.32353,-0.15569l0.58612,-0.0529c0.29539,-0.07774 0.61637,-0.15861 0.95355,-0.23507c0.87645,-0.27394 1.93099,-0.41625 2.91353,-0.50866c0.4818,-0.09462 0.9333,-0.1389 1.30669,-0.10536c0.27388,-0.02025 0.5286,-0.03932 0.7561,-0.05986l0.61787,-0.05577c0.28142,-0.0254 0.53014,0.18214 0.55554,0.46356c0.0226,0.25047 -0.13931,0.47504 -0.37361,0.53931l-0.32968,0.09745c0.145,0.12181 0.27656,0.26112 0.39244,0.4197l0.23414,-0.11908l0.29765,0.58522c0.03177,0.05903 0.05238,0.12532 0.05879,0.19629c0.0254,0.28142 -0.18214,0.53014 -0.46355,0.55553c-0.08558,0.00772 -0.16814,-0.00609 -0.24232,-0.03698l-0.50702,-0.19878l0.00585,-0.01492l-0.04787,-0.00377c-0.36209,-0.22374 -0.73047,-0.39249 -1.09838,-0.50678c-0.55947,-0.02006 -1.148,-0.08122 -1.74789,-0.1302c-1.01464,0.1745 -1.9334,0.80247 -2.5904,1.87097c0,0 -0.26893,0.43524 -0.70416,0.1663c-0.43523,-0.26893 -0.1663,-0.70417 -0.1663,-0.70417c0.0575,-0.09265 0.11686,-0.18277 0.17799,-0.27034l-0.28392,0.09053c-0.03801,0.01299 -0.07817,0.02169 -0.11996,0.02546c-0.28142,0.0254 -0.53014,-0.18214 -0.55553,-0.46356c-0.01286,-0.14243 0.03395,-0.27647 0.11981,-0.37743c-0.2451,0.00049 -0.4766,0.01384 -0.6735,0.06241c-1.37524,0.33924 -3.48763,0.45199 -5.48058,0.75785c0.01121,0.24126 -0.14794,0.45435 -0.37516,0.51668l-0.59763,0.17665l-0.00571,-0.01931l-0.00747,0.00194z" fill="url(#color-5)" stroke="none" stroke-width="0.5"/><path d="M248.26401,130.30896c2.70896,-0.28418 2.68558,-0.24349 2.90043,1.58673c0.21485,1.83022 -0.78194,3.36186 -2.22639,3.42102c-1.44446,0.05917 -2.7896,-1.37656 -3.00445,-3.20678c-0.21485,-1.83022 -0.20983,-1.53449 2.33041,-1.80097z" data-paper-data="{&quot;index&quot;:null}" fill="url(#color-6)" stroke="#000000" stroke-width="0"/><path d="M241.64399,132.98982c0.35755,1.99142 -1.17444,3.9329 -3.4218,4.33639c-2.24735,0.40349 -4.35904,-0.88377 -4.71659,-2.8752c-0.35755,-1.99142 -0.40888,-2.02662 3.87102,-2.60142c4.01334,-0.53901 3.90982,-0.85119 4.26737,1.14023z" fill="url(#color-7)" stroke="#000000" stroke-width="0"/></g><path d="M229.63979,193.59141c0,0 0.16709,-5.5597 -0.35268,-10.94382c-0.35317,-3.65847 -1.40473,-6.95919 -1.56162,-9.45339c-0.29447,-4.68133 -0.2105,-13.38223 -0.2105,-13.38223c0,0 3.69178,-0.58477 5.4694,-0.21857c2.26281,0.46615 7.00656,2.78867 7.00656,2.78867c0,0 3.67689,-2.17061 5.59031,-2.58687c2.01891,-0.43921 6.22369,0.01677 6.22369,0.01677c0,0 -0.06905,9.21711 -0.22689,12.65629c-0.13965,3.04285 -0.88957,6.36811 -1.18346,10.87293c-0.3029,4.64296 -0.14784,10.42155 -0.14784,10.42155c0,0 -2.75697,-0.76932 -5.57187,-0.83754c-1.27833,-0.03098 -1.79126,1.00612 -2.99851,1.16532c-0.96496,0.12724 -2.63623,-0.61291 -3.56107,-0.64966c-0.69915,-0.02778 -2.04377,-0.5306 -2.53801,-0.53471c-0.99795,-0.0083 -1.61572,0.86529 -2.77345,1.02464c-1.34484,0.1851 -3.1641,-0.33939 -3.1641,-0.33939z" fill="#d0d0d0" stroke="#292e32" stroke-width="0" stroke-linecap="butt"/><path d="M242.73589,170.5071l-0.12126,-5.82045l7.63934,0.36378v5.21415z" fill="#f200ff" stroke="none" stroke-width="0" stroke-linecap="butt"/><g stroke="#000000" stroke-width="0" stroke-linecap="butt"><path d="M220.99968,189.74033c0,0 0.45628,-2.15864 0.48483,-5.73936c0.01714,-2.15062 -0.1441,-5.66852 -0.04977,-6.47915c0.21042,-1.80837 -0.33864,-2.75855 -0.15067,-3.92002c0.46186,-2.85393 1.20991,-7.71577 1.20991,-7.71577c0,0 -0.82804,-7.89609 6.67598,-6.37682c1.19796,0.24254 0.11272,7.30572 0.11272,7.30572c0,0 -0.45999,3.4107 -0.89441,6.09498c-0.20198,1.24802 -0.66783,3.24702 -1.05419,5.27461c-0.16324,0.8567 -0.43389,3.60682 -0.58341,4.44204c-0.62178,3.47323 0.03981,6.44815 0.03981,6.44815z" fill="#bdbdbd"/><path d="M221.0222,194.48972c-0.5436,0.05485 -0.01713,-4.63177 -0.01713,-4.63177c0,0 1.86569,-0.90907 2.81733,-1.02083c0.97739,-0.11479 2.97181,0.34095 2.97181,0.34095c0,0 0.05563,1.17984 0.59413,1.95726c0.92167,1.33061 2.08957,2.74651 1.49872,3.947c-0.32058,0.65138 -1.24463,-2.03329 -1.50053,-1.74902c-0.04553,0.05058 -0.00564,4.49348 -0.42016,4.69486c-0.67718,0.32898 -0.99479,-4.21101 -1.17396,-3.52465c-0.36777,1.40886 0.20529,4.53009 -0.35419,4.69799c-0.94248,0.28285 -0.65483,-5.38099 -0.92399,-4.93975c-0.50281,0.82425 -0.1113,4.25253 -0.59362,4.42132c-1.4049,0.49163 -0.62486,-4.2341 -1.01114,-3.79046c-0.72975,0.83811 -0.20871,3.25604 -0.74511,3.27716c-1.09058,0.04293 -0.88554,-3.70594 -1.14214,-3.68005z" data-paper-data="{&quot;index&quot;:null}" fill="#777777"/></g></g></g></svg>