<svg version="1.1" xmlns="http://www.w3.org/2000/svg" xmlns:xlink="http://www.w3.org/1999/xlink" width="59" height="59.70662" viewBox="0,0,59,59.70662"><defs><linearGradient x1="240" y1="151.64669" x2="240" y2="208.35331" gradientUnits="userSpaceOnUse" id="color-1"><stop offset="0" stop-color="#191919"/><stop offset="1" stop-color="#050505"/></linearGradient><linearGradient x1="240" y1="151.64669" x2="240" y2="208.35331" gradientUnits="userSpaceOnUse" id="color-2"><stop offset="0" stop-color="#cccccc"/><stop offset="1" stop-color="#898989"/></linearGradient><radialGradient cx="240" cy="180" r="26.8571" gradientUnits="userSpaceOnUse" id="color-3"><stop offset="0" stop-color="#ffffff" stop-opacity="0.35484"/><stop offset="1" stop-color="#ffffff" stop-opacity="0"/></radialGradient><linearGradient x1="240" y1="153.29211" x2="240" y2="206.70789" gradientUnits="userSpaceOnUse" id="color-4"><stop offset="0" stop-color="#cccccc"/><stop offset="1" stop-color="#898989"/></linearGradient><linearGradient x1="242.33462" y1="198.92429" x2="243.16049" y2="198.92429" gradientUnits="userSpaceOnUse" id="color-5"><stop offset="0" stop-color="#525252"/><stop offset="1" stop-color="#363636"/></linearGradient><linearGradient x1="242.33462" y1="198.92429" x2="243.16049" y2="198.92429" gradientUnits="userSpaceOnUse" id="color-6"><stop offset="0" stop-color="#1f1f1f"/><stop offset="1" stop-color="#000000"/></linearGradient><linearGradient x1="236.0934" y1="199.27907" x2="237.17246" y2="199.7448" gradientUnits="userSpaceOnUse" id="color-7"><stop offset="0" stop-color="#525252"/><stop offset="1" stop-color="#2e2e2e"/></linearGradient><linearGradient x1="236.0934" y1="199.27907" x2="237.17246" y2="199.7448" gradientUnits="userSpaceOnUse" id="color-8"><stop offset="0" stop-color="#1f1f1f"/><stop offset="1" stop-color="#000000"/></linearGradient><linearGradient x1="234.78133" y1="199.76339" x2="244.97273" y2="199.76339" gradientUnits="userSpaceOnUse" id="color-9"><stop offset="0" stop-color="#767676"/><stop offset="1" stop-color="#2a2a2a"/></linearGradient><linearGradient x1="234.78133" y1="199.76339" x2="244.97273" y2="199.76339" gradientUnits="userSpaceOnUse" id="color-10"><stop offset="0" stop-color="#1f1f1f"/><stop offset="1" stop-color="#000000"/></linearGradient><linearGradient x1="238.26879" y1="196.9655" x2="241.50875" y2="196.9655" gradientUnits="userSpaceOnUse" id="color-11"><stop offset="0" stop-color="#7f7f7f"/><stop offset="1" stop-color="#545454"/></linearGradient><linearGradient x1="237.22057" y1="199.04138" x2="242.42992" y2="199.04138" gradientUnits="userSpaceOnUse" id="color-12"><stop offset="0" stop-color="#7f7f7f"/><stop offset="1" stop-color="#545454"/></linearGradient><linearGradient x1="236.34123" y1="201.33303" x2="243.33481" y2="201.33303" gradientUnits="userSpaceOnUse" id="color-13"><stop offset="0" stop-color="#7f7f7f"/><stop offset="1" stop-color="#545454"/></linearGradient><linearGradient x1="235.41" y1="203.61545" x2="244.30401" y2="203.61545" gradientUnits="userSpaceOnUse" id="color-14"><stop offset="0" stop-color="#7f7f7f"/><stop offset="1" stop-color="#545454"/></linearGradient><linearGradient x1="241.54018" y1="196.21654" x2="244.11357" y2="196.21654" gradientUnits="userSpaceOnUse" id="color-15"><stop offset="0" stop-color="#8f8f8f"/><stop offset="1" stop-color="#4e4e4e"/></linearGradient><linearGradient x1="241.54018" y1="196.21654" x2="244.11357" y2="196.21654" gradientUnits="userSpaceOnUse" id="color-16"><stop offset="0" stop-color="#1f1f1f"/><stop offset="1" stop-color="#000000"/></linearGradient><linearGradient x1="233.9859" y1="188.50964" x2="245.95046" y2="188.50964" gradientUnits="userSpaceOnUse" id="color-17"><stop offset="0" stop-color="#b89a9a"/><stop offset="1" stop-color="#8d7070"/></linearGradient><linearGradient x1="233.9859" y1="188.50964" x2="245.95046" y2="188.50964" gradientUnits="userSpaceOnUse" id="color-18"><stop offset="0" stop-color="#260000"/><stop offset="1" stop-color="#100000"/></linearGradient><linearGradient x1="245.02234" y1="192.71987" x2="250.07385" y2="192.71987" gradientUnits="userSpaceOnUse" id="color-19"><stop offset="0" stop-color="#362424"/><stop offset="1" stop-color="#1f1414"/></linearGradient><linearGradient x1="245.02234" y1="192.89341" x2="248.4775" y2="192.89341" gradientUnits="userSpaceOnUse" id="color-20"><stop offset="0" stop-color="#272727"/><stop offset="1" stop-color="#000000"/></linearGradient><linearGradient x1="234.97766" y1="192.66693" x2="229.92615" y2="192.66693" gradientUnits="userSpaceOnUse" id="color-21"><stop offset="0" stop-color="#6b4a4a"/><stop offset="1" stop-color="#825959"/></linearGradient><linearGradient x1="231.5225" y1="192.84046" x2="234.97766" y2="192.84046" gradientUnits="userSpaceOnUse" id="color-22"><stop offset="0" stop-color="#272727"/><stop offset="1" stop-color="#000000"/></linearGradient><linearGradient x1="234.96363" y1="188.59199" x2="245.03442" y2="188.59199" gradientUnits="userSpaceOnUse" id="color-23"><stop offset="0" stop-color="#634343"/><stop offset="1" stop-color="#211414"/></linearGradient><linearGradient x1="234.96363" y1="188.59199" x2="245.03442" y2="188.59199" gradientUnits="userSpaceOnUse" id="color-24"><stop offset="0" stop-color="#272727"/><stop offset="1" stop-color="#000000"/></linearGradient><linearGradient x1="235.62705" y1="182.87272" x2="244.3093" y2="182.87272" gradientUnits="userSpaceOnUse" id="color-25"><stop offset="0" stop-color="#b89a9a"/><stop offset="1" stop-color="#8d7070"/></linearGradient><linearGradient x1="235.62705" y1="182.87272" x2="244.3093" y2="182.87272" gradientUnits="userSpaceOnUse" id="color-26"><stop offset="0" stop-color="#260000"/><stop offset="1" stop-color="#100000"/></linearGradient><linearGradient x1="235.62705" y1="185.94327" x2="244.3093" y2="185.94327" gradientUnits="userSpaceOnUse" id="color-27"><stop offset="0" stop-color="#b89a9a"/><stop offset="1" stop-color="#8d7070"/></linearGradient><linearGradient x1="235.62705" y1="185.94327" x2="244.3093" y2="185.94327" gradientUnits="userSpaceOnUse" id="color-28"><stop offset="0" stop-color="#260000"/><stop offset="1" stop-color="#100000"/></linearGradient><linearGradient x1="240.35902" y1="189.05677" x2="244.30914" y2="189.05677" gradientUnits="userSpaceOnUse" id="color-29"><stop offset="0" stop-color="#2c4a2e"/><stop offset="1" stop-color="#1d301b"/></linearGradient><linearGradient x1="240.35902" y1="189.05677" x2="244.30914" y2="189.05677" gradientUnits="userSpaceOnUse" id="color-30"><stop offset="0" stop-color="#123614"/><stop offset="1" stop-color="#0d1a0e"/></linearGradient><linearGradient x1="240.3484" y1="189.05825" x2="244.28938" y2="189.05825" gradientUnits="userSpaceOnUse" id="color-31"><stop offset="0" stop-color="#123614"/><stop offset="1" stop-color="#0d1a0e"/></linearGradient><linearGradient x1="240.3484" y1="189.02824" x2="244.28938" y2="189.02824" gradientUnits="userSpaceOnUse" id="color-32"><stop offset="0" stop-color="#123614"/><stop offset="1" stop-color="#0d1a0e"/></linearGradient><linearGradient x1="235.63784" y1="189.07677" x2="239.58796" y2="189.07677" gradientUnits="userSpaceOnUse" id="color-33"><stop offset="0" stop-color="#2c4a2e"/><stop offset="1" stop-color="#1d301b"/></linearGradient><linearGradient x1="235.63784" y1="189.07677" x2="239.58796" y2="189.07677" gradientUnits="userSpaceOnUse" id="color-34"><stop offset="0" stop-color="#123614"/><stop offset="1" stop-color="#0d1a0e"/></linearGradient><linearGradient x1="235.62722" y1="189.07825" x2="239.5682" y2="189.07825" gradientUnits="userSpaceOnUse" id="color-35"><stop offset="0" stop-color="#123614"/><stop offset="1" stop-color="#0d1a0e"/></linearGradient><linearGradient x1="235.62722" y1="189.04824" x2="239.5682" y2="189.04824" gradientUnits="userSpaceOnUse" id="color-36"><stop offset="0" stop-color="#123614"/><stop offset="1" stop-color="#0d1a0e"/></linearGradient><linearGradient x1="240.35902" y1="193.82141" x2="244.30914" y2="193.82141" gradientUnits="userSpaceOnUse" id="color-37"><stop offset="0" stop-color="#2c4a2e"/><stop offset="1" stop-color="#1d301b"/></linearGradient><linearGradient x1="240.35902" y1="193.82141" x2="244.30914" y2="193.82141" gradientUnits="userSpaceOnUse" id="color-38"><stop offset="0" stop-color="#123614"/><stop offset="1" stop-color="#0d1a0e"/></linearGradient><linearGradient x1="240.3484" y1="193.8229" x2="244.28938" y2="193.8229" gradientUnits="userSpaceOnUse" id="color-39"><stop offset="0" stop-color="#123614"/><stop offset="1" stop-color="#0d1a0e"/></linearGradient><linearGradient x1="240.3484" y1="193.79289" x2="244.28938" y2="193.79289" gradientUnits="userSpaceOnUse" id="color-40"><stop offset="0" stop-color="#123614"/><stop offset="1" stop-color="#0d1a0e"/></linearGradient><linearGradient x1="235.63784" y1="193.84141" x2="239.58796" y2="193.84141" gradientUnits="userSpaceOnUse" id="color-41"><stop offset="0" stop-color="#2c4a2e"/><stop offset="1" stop-color="#1d301b"/></linearGradient><linearGradient x1="235.63784" y1="193.84141" x2="239.58796" y2="193.84141" gradientUnits="userSpaceOnUse" id="color-42"><stop offset="0" stop-color="#123614"/><stop offset="1" stop-color="#0d1a0e"/></linearGradient><linearGradient x1="235.62722" y1="193.84291" x2="239.5682" y2="193.84291" gradientUnits="userSpaceOnUse" id="color-43"><stop offset="0" stop-color="#123614"/><stop offset="1" stop-color="#0d1a0e"/></linearGradient><linearGradient x1="235.62722" y1="193.8129" x2="239.5682" y2="193.8129" gradientUnits="userSpaceOnUse" id="color-44"><stop offset="0" stop-color="#123614"/><stop offset="1" stop-color="#0d1a0e"/></linearGradient><linearGradient x1="234.87887" y1="168.50523" x2="245.07027" y2="168.50523" gradientUnits="userSpaceOnUse" id="color-45"><stop offset="0" stop-color="#9c5555"/><stop offset="1" stop-color="#453131"/></linearGradient><linearGradient x1="234.87887" y1="168.50203" x2="245.07027" y2="168.50203" gradientUnits="userSpaceOnUse" id="color-46"><stop offset="0" stop-color="#272727"/><stop offset="1" stop-color="#000000"/></linearGradient><linearGradient x1="237.73767" y1="164.07167" x2="241.89384" y2="164.07167" gradientUnits="userSpaceOnUse" id="color-47"><stop offset="0" stop-color="#f7d6d6"/><stop offset="1" stop-color="#805e5e"/></linearGradient><linearGradient x1="237.73767" y1="164.07126" x2="241.89384" y2="164.07126" gradientUnits="userSpaceOnUse" id="color-48"><stop offset="0" stop-color="#272727"/><stop offset="1" stop-color="#000000"/></linearGradient><linearGradient x1="237.22785" y1="166.12096" x2="242.54522" y2="166.12096" gradientUnits="userSpaceOnUse" id="color-49"><stop offset="0" stop-color="#452a2a"/><stop offset="1" stop-color="#260f0f"/></linearGradient><linearGradient x1="236.72618" y1="167.868" x2="243.13069" y2="167.868" gradientUnits="userSpaceOnUse" id="color-50"><stop offset="0" stop-color="#452a2a"/><stop offset="1" stop-color="#260f0f"/></linearGradient><linearGradient x1="236.25649" y1="169.58327" x2="243.60517" y2="169.58327" gradientUnits="userSpaceOnUse" id="color-51"><stop offset="0" stop-color="#452a2a"/><stop offset="1" stop-color="#260f0f"/></linearGradient><linearGradient x1="235.75617" y1="171.23502" x2="244.14887" y2="171.23502" gradientUnits="userSpaceOnUse" id="color-52"><stop offset="0" stop-color="#452a2a"/><stop offset="1" stop-color="#260f0f"/></linearGradient><linearGradient x1="239.04172" y1="161.54651" x2="240.68288" y2="161.54651" gradientUnits="userSpaceOnUse" id="color-53"><stop offset="0" stop-color="#443939"/><stop offset="1" stop-color="#251e1e"/></linearGradient><linearGradient x1="239.04172" y1="161.54651" x2="240.68288" y2="161.54651" gradientUnits="userSpaceOnUse" id="color-54"><stop offset="0" stop-color="#262626"/><stop offset="1" stop-color="#0f0f0f"/></linearGradient><linearGradient x1="239.57112" y1="158.34361" x2="240.20641" y2="158.34361" gradientUnits="userSpaceOnUse" id="color-55"><stop offset="0" stop-color="#ccbebe"/><stop offset="1" stop-color="#656161"/></linearGradient><linearGradient x1="239.57112" y1="158.34361" x2="240.20641" y2="158.34361" gradientUnits="userSpaceOnUse" id="color-56"><stop offset="0" stop-color="#262626"/><stop offset="1" stop-color="#0f0f0f"/></linearGradient><linearGradient x1="234.93278" y1="176.99633" x2="245.00357" y2="176.99633" gradientUnits="userSpaceOnUse" id="color-57"><stop offset="0" stop-color="#303030"/><stop offset="1" stop-color="#171717"/></linearGradient><linearGradient x1="234.93278" y1="176.99633" x2="245.00357" y2="176.99633" gradientUnits="userSpaceOnUse" id="color-58"><stop offset="0" stop-color="#272727"/><stop offset="1" stop-color="#000000"/></linearGradient><radialGradient cx="239.96818" cy="176.99633" r="4.17785" gradientUnits="userSpaceOnUse" id="color-59"><stop offset="0" stop-color="#734c45" stop-opacity="0.40995"/><stop offset="1" stop-color="#734c45" stop-opacity="0"/></radialGradient><radialGradient cx="239.96818" cy="176.98147" r="3.39181" gradientUnits="userSpaceOnUse" id="color-60"><stop offset="0" stop-color="#eb8c73" stop-opacity="0.60996"/><stop offset="1" stop-color="#eb8c73" stop-opacity="0"/></radialGradient><radialGradient cx="239.96818" cy="176.98147" r="2.87145" gradientUnits="userSpaceOnUse" id="color-61"><stop offset="0" stop-color="#ff734f" stop-opacity="0"/><stop offset="1" stop-color="#ff734f" stop-opacity="0.08997"/></radialGradient><radialGradient cx="239.96818" cy="176.98147" r="2.36121" gradientUnits="userSpaceOnUse" id="color-62"><stop offset="0" stop-color="#ffa282" stop-opacity="0.11996"/><stop offset="1" stop-color="#ffab8f"/></radialGradient><linearGradient x1="235.07449" y1="176.98971" x2="235.74948" y2="176.98971" gradientUnits="userSpaceOnUse" id="color-63"><stop offset="0" stop-color="#9d9d9d"/><stop offset="1" stop-color="#4c4c4c"/></linearGradient><linearGradient x1="235.07449" y1="176.98971" x2="235.74948" y2="176.98971" gradientUnits="userSpaceOnUse" id="color-64"><stop offset="0" stop-color="#272727"/><stop offset="1" stop-color="#000000"/></linearGradient><linearGradient x1="244.20673" y1="176.98971" x2="244.88173" y2="176.98971" gradientUnits="userSpaceOnUse" id="color-65"><stop offset="0" stop-color="#9d9d9d"/><stop offset="1" stop-color="#4c4c4c"/></linearGradient><linearGradient x1="244.20673" y1="176.98971" x2="244.88173" y2="176.98971" gradientUnits="userSpaceOnUse" id="color-66"><stop offset="0" stop-color="#272727"/><stop offset="1" stop-color="#000000"/></linearGradient><linearGradient x1="235.05605" y1="178.2383" x2="244.88031" y2="178.2383" gradientUnits="userSpaceOnUse" id="color-67"><stop offset="0" stop-color="#272727"/><stop offset="1" stop-color="#000000"/></linearGradient><linearGradient x1="235.05605" y1="178.25013" x2="244.88031" y2="178.25013" gradientUnits="userSpaceOnUse" id="color-68"><stop offset="0" stop-color="#272727"/><stop offset="1" stop-color="#000000"/></linearGradient><linearGradient x1="235.07875" y1="175.62908" x2="244.90299" y2="175.62908" gradientUnits="userSpaceOnUse" id="color-69"><stop offset="0" stop-color="#272727"/><stop offset="1" stop-color="#000000"/></linearGradient><linearGradient x1="235.07875" y1="175.64092" x2="244.90299" y2="175.64092" gradientUnits="userSpaceOnUse" id="color-70"><stop offset="0" stop-color="#272727"/><stop offset="1" stop-color="#000000"/></linearGradient><linearGradient x1="234.95891" y1="179.90838" x2="244.88525" y2="179.90838" gradientUnits="userSpaceOnUse" id="color-71"><stop offset="0" stop-color="#c7a895"/><stop offset="1" stop-color="#322c27"/></linearGradient><linearGradient x1="234.95891" y1="179.90838" x2="244.88525" y2="179.90838" gradientUnits="userSpaceOnUse" id="color-72"><stop offset="0" stop-color="#272727"/><stop offset="1" stop-color="#000000"/></linearGradient><linearGradient x1="235.00428" y1="174.10005" x2="244.93063" y2="174.10005" gradientUnits="userSpaceOnUse" id="color-73"><stop offset="0" stop-color="#c7a895"/><stop offset="1" stop-color="#322c27"/></linearGradient><linearGradient x1="235.00428" y1="174.10005" x2="244.93063" y2="174.10005" gradientUnits="userSpaceOnUse" id="color-74"><stop offset="0" stop-color="#272727"/><stop offset="1" stop-color="#000000"/></linearGradient></defs><g transform="translate(-210.5,-150.14669)"><g data-paper-data="{&quot;isPaintingLayer&quot;:true}" fill-rule="nonzero" stroke-linejoin="miter" stroke-miterlimit="10" stroke-dasharray="" stroke-dashoffset="0" style="mix-blend-mode: normal"><path d="M212,208.35331v-56.70662h56v56.70662z" fill="url(#color-1)" stroke="url(#color-2)" stroke-width="3" stroke-linecap="butt"/><path d="M266.8571,180c0,14.75036 -12.02433,26.70789 -26.8571,26.70789c-14.83277,0 -26.8571,-11.95753 -26.8571,-26.70789c0,-14.75036 12.02433,-26.70789 26.8571,-26.70789c14.83277,0 26.8571,11.95753 26.8571,26.70789z" fill="url(#color-3)" stroke="url(#color-4)" stroke-width="0" stroke-linecap="butt"/><g stroke-width="0.25"><path d="M242.33462,200.29016v-2.73173h0.82587v2.73173z" fill="url(#color-5)" stroke="url(#color-6)" stroke-linecap="butt"/><path d="M234.13608,203.81406l3.91462,-9.06998l1.07907,0.46573l-3.91462,9.06998z" fill="url(#color-7)" stroke="url(#color-8)" stroke-linecap="butt"/><path d="M234.78133,204.8593c0,0 3.80541,-10.26613 5.09639,-10.1914c1.47686,0.08549 5.095,10.1914 5.095,10.1914z" fill="url(#color-9)" stroke="url(#color-10)" stroke-linecap="butt"/><path d="M238.26879,196.9655h3.23996" fill="none" stroke="url(#color-11)" stroke-linecap="round"/><path d="M242.42992,199.04138h-5.20935" fill="none" stroke="url(#color-12)" stroke-linecap="round"/><path d="M243.33481,201.33303h-6.99357" fill="none" stroke="url(#color-13)" stroke-linecap="round"/><path d="M235.41,203.61545h8.89401" fill="none" stroke="url(#color-14)" stroke-linecap="round"/><path d="M244.11357,196.21654c-0.00963,1.20999 -0.04012,1.33945 -1.2867,1.32663c-1.24698,-0.01283 -1.30217,-0.17679 -1.2867,-1.32663c0.01708,-1.2695 0.01345,-1.35774 1.2867,-1.32663c1.21994,0.02981 1.29728,-0.00206 1.2867,1.32663z" fill="url(#color-15)" stroke="url(#color-16)" stroke-linecap="butt"/></g><g stroke-width="0.25" stroke-linecap="butt"><path d="M233.9859,193.54024v-10.0612c0,0 3.91485,-1.34748 5.8585,-1.34748c2.03987,0 6.10605,1.34748 6.10605,1.34748v10.0612z" fill="url(#color-17)" stroke="url(#color-18)"/><path d="M245.02234,196.86392v-10.29985c0,0 1.29616,6.91407 1.74933,8.58343c0.35854,1.32076 1.70583,4.07525 1.70583,4.07525z" fill="url(#color-19)" stroke="url(#color-20)"/><path d="M231.5225,199.1698c0,0 1.3473,-2.75449 1.70583,-4.07525c0.45317,-1.66935 1.74933,-8.58343 1.74933,-8.58343v10.29985z" data-paper-data="{&quot;index&quot;:null}" fill="url(#color-21)" stroke="url(#color-22)"/><path d="M234.96363,196.85365v-16.52334h10.07079v16.52334z" fill="url(#color-23)" stroke="url(#color-24)"/><path d="M235.62705,184.88446v-4.02348h8.68225v4.02348z" fill="url(#color-25)" stroke="url(#color-26)"/><path d="M235.62705,186.52562v-1.16469h8.68225v1.16469z" fill="url(#color-27)" stroke="url(#color-28)"/></g><g stroke-width="0.25"><path d="M240.35902,191.11309v-4.11266h3.95012v4.11266z" fill="url(#color-29)" stroke="url(#color-30)" stroke-linecap="butt"/><path d="M244.28938,187.05776l-3.94099,4.001" fill="none" stroke="url(#color-31)" stroke-linecap="round"/><path d="M244.28937,191.07876l-3.90097,-4.06102" fill="none" stroke="url(#color-32)" stroke-linecap="round"/><path d="M235.63784,191.1331v-4.11266h3.95012v4.11266z" fill="url(#color-33)" stroke="url(#color-34)" stroke-linecap="butt"/><path d="M239.5682,187.07776l-3.94099,4.001" fill="none" stroke="url(#color-35)" stroke-linecap="round"/><path d="M235.66723,187.03774l3.90097,4.06102" fill="none" stroke="url(#color-36)" stroke-linecap="round"/><path d="M240.35902,195.87774v-4.11266h3.95012v4.11266z" fill="url(#color-37)" stroke="url(#color-38)" stroke-linecap="butt"/><path d="M240.3484,195.8234l3.94099,-4.001" fill="none" stroke="url(#color-39)" stroke-linecap="round"/><path d="M244.28938,195.84341l-3.90097,-4.06102" fill="none" stroke="url(#color-40)" stroke-linecap="round"/><path d="M235.63784,195.89775v-4.11266h3.95012v4.11266z" fill="url(#color-41)" stroke="url(#color-42)" stroke-linecap="butt"/><path d="M239.5682,191.8424l-3.94099,4.001" fill="none" stroke="url(#color-43)" stroke-linecap="round"/><path d="M235.66723,191.80239l3.90097,4.06102" fill="none" stroke="url(#color-44)" stroke-linecap="round"/></g><g stroke-width="0.25" stroke-linecap="butt"><path d="M234.87887,173.60113c0,0 3.43223,-12.58661 5.06604,-12.58661c1.04811,0 5.12537,12.58661 5.12537,12.58661z" fill="url(#color-45)" stroke="url(#color-46)"/><path d="M237.73767,164.71641c0,0 1.6295,-3.81492 2.1362,-3.83058c0.46064,-0.01423 2.05969,3.83058 2.05969,3.83058z" fill="url(#color-47)" stroke="url(#color-48)"/><path d="M237.04607,166.77279c0,0 0.08822,-0.20424 0.21782,-0.44729c0.15209,-0.28523 0.404,-0.62391 1.2745,-0.74868c0.03378,-0.00484 0.66828,-0.07577 0.66828,-0.07577l1.38039,0.00304c0,0 0.47718,0.02431 0.5052,0.02906c0.82382,0.13942 1.13318,0.4895 1.30635,0.7822c0.14766,0.24958 0.2375,0.45745 0.2375,0.45745z" data-paper-data="{&quot;index&quot;:null}" fill="url(#color-49)" stroke="#000000"/><path d="M236.50724,168.51982c0,0 0.10626,-0.20424 0.26235,-0.44729c0.18318,-0.28523 0.4866,-0.62391 1.53507,-0.74868c0.04068,-0.00484 0.80491,-0.07577 0.80491,-0.07577l1.6626,0.00304c0,0 0.57474,0.02431 0.6085,0.02906c0.99225,0.13942 1.36486,0.4895 1.57344,0.7822c0.17785,0.24958 0.28606,0.45745 0.28606,0.45745z" data-paper-data="{&quot;index&quot;:null}" fill="url(#color-50)" stroke="#000000"/><path d="M236.00528,170.2351c0,0 0.12192,-0.20424 0.30102,-0.44729c0.21018,-0.28523 0.55834,-0.62391 1.76137,-0.74868c0.04667,-0.00484 0.92357,-0.07577 0.92357,-0.07577l1.90771,0.00304c0,0 0.65947,0.02431 0.6982,0.02906c1.13853,0.13942 1.56608,0.4895 1.8054,0.7822c0.20407,0.24958 0.32823,0.45745 0.32823,0.45745z" data-paper-data="{&quot;index&quot;:null}" fill="url(#color-51)" stroke="#000000"/><path d="M235.46926,171.88684c0,0 0.13923,-0.20424 0.34379,-0.44729c0.24004,-0.28523 0.63766,-0.62391 2.01161,-0.74868c0.05331,-0.00484 1.05477,-0.07577 1.05477,-0.07577l2.17873,0.00304c0,0 0.75316,0.02431 0.79739,0.02906c1.30028,0.13942 1.78856,0.4895 2.06189,0.7822c0.23306,0.24958 0.37486,0.45745 0.37486,0.45745z" data-paper-data="{&quot;index&quot;:null}" fill="url(#color-52)" stroke="#000000"/><path d="M240.68288,161.54651c0,0.17543 -0.36739,0.31764 -0.82058,0.31764c-0.45319,0 -0.82058,-0.14222 -0.82058,-0.31764c0,-0.17543 0.36739,-0.31764 0.82058,-0.31764c0.45319,0 0.82058,0.14222 0.82058,0.31764z" fill="url(#color-53)" stroke="url(#color-54)"/><path d="M239.57112,161.54651v-6.4058h0.63529v6.4058z" fill="url(#color-55)" stroke="url(#color-56)"/></g><g stroke-width="0.25"><path d="M234.93278,180.29483v-6.59699h10.07079v6.59699z" fill="url(#color-57)" stroke="url(#color-58)" stroke-linecap="butt"/><path d="M235.79033,176.99633c0,-2.30737 1.87049,-4.17785 4.17785,-4.17785c2.30737,0 4.17785,1.87049 4.17785,4.17785c0,2.30737 -1.87049,4.17785 -4.17785,4.17785c-2.30737,0 -4.17785,-1.87049 -4.17785,-4.17785z" fill="url(#color-59)" stroke="none" stroke-linecap="butt"/><path d="M236.57637,176.98147c0,-1.87323 1.51857,-3.39181 3.39181,-3.39181c1.87323,0 3.39181,1.51857 3.39181,3.39181c0,1.87323 -1.51857,3.39181 -3.39181,3.39181c-1.87323,0 -3.39181,-1.51857 -3.39181,-3.39181z" fill="url(#color-60)" stroke="none" stroke-linecap="butt"/><path d="M237.09673,176.98147c0,-1.58585 1.28559,-2.87145 2.87145,-2.87145c1.58585,0 2.87145,1.28559 2.87145,2.87145c0,1.58585 -1.28559,2.87145 -2.87145,2.87145c-1.58585,0 -2.87145,-1.28559 -2.87145,-2.87145z" fill="url(#color-61)" stroke="none" stroke-linecap="butt"/><path d="M237.60697,176.98147c0,-1.30406 1.05715,-2.36121 2.36121,-2.36121c1.30406,0 2.36121,1.05715 2.36121,2.36121c0,1.30406 -1.05715,2.36121 -2.36121,2.36121c-1.30406,0 -2.36121,-1.05715 -2.36121,-2.36121z" fill="url(#color-62)" stroke="none" stroke-linecap="butt"/><path d="M235.07449,179.57056v-5.1617h0.67499v5.1617z" fill="url(#color-63)" stroke="url(#color-64)" stroke-linecap="butt"/><path d="M244.20673,179.57056v-5.1617h0.67499v5.1617z" fill="url(#color-65)" stroke="url(#color-66)" stroke-linecap="butt"/><path d="M235.05605,179.5937l0.54453,-2.71081l0.52184,2.71081l0.70335,-2.68714l0.70335,2.67531l1.22519,-2.67531l1.17981,2.68714l1.04368,-2.67531l1.17981,2.66347l0.7941,-2.66347l0.86217,2.68714l0.54453,-2.67531l0.52184,2.65163" fill="none" stroke="url(#color-67)" stroke-linecap="round"/><path d="M244.88031,176.90656l-0.52184,2.65163l-0.54453,-2.67531l-0.86217,2.68714l-0.7941,-2.66347l-1.17981,2.66347l-1.04368,-2.67531l-1.17981,2.68714l-1.22519,-2.67531l-0.70335,2.67531l-0.70335,-2.68714l-0.52184,2.71081l-0.54453,-2.71081" data-paper-data="{&quot;index&quot;:null}" fill="none" stroke="url(#color-68)" stroke-linecap="round"/><path d="M235.07875,176.98449l0.54453,-2.71081l0.52184,2.71081l0.70335,-2.68714l0.70335,2.67531l1.22519,-2.67531l1.17981,2.68714l1.04368,-2.67531l1.17981,2.66347l0.7941,-2.66347l0.86217,2.68714l0.54453,-2.67531l0.52184,2.65163" fill="none" stroke="url(#color-69)" stroke-linecap="round"/><path d="M244.90299,174.29734l-0.52184,2.65163l-0.54453,-2.67531l-0.86217,2.68714l-0.7941,-2.66347l-1.17981,2.66347l-1.04368,-2.67531l-1.17981,2.68714l-1.22519,-2.67531l-0.70335,2.67531l-0.70335,-2.68714l-0.52184,2.71081l-0.54453,-2.71081" data-paper-data="{&quot;index&quot;:null}" fill="none" stroke="url(#color-70)" stroke-linecap="round"/><path d="M234.95891,180.19956v-0.58235h9.92635v0.58235z" fill="url(#color-71)" stroke="url(#color-72)" stroke-linecap="butt"/><path d="M235.00428,174.39122v-0.58235h9.92635v0.58235z" fill="url(#color-73)" stroke="url(#color-74)" stroke-linecap="butt"/></g><path d="M215.27327,167.03273v-12.39235h25.93332v8.69862h-15.56684v3.69373z" fill-opacity="0.53453" fill="#000000" stroke="#a60000" stroke-width="0" stroke-linecap="butt"/><text transform="translate(215.70712,161.61518) scale(0.21839,0.21839)" font-size="40" xml:space="preserve" fill="#ffffff" fill-rule="nonzero" stroke="#000000" stroke-width="0" stroke-linecap="butt" stroke-linejoin="miter" stroke-miterlimit="10" stroke-dasharray="" stroke-dashoffset="0" font-family="Serif" font-weight="normal" text-anchor="start" style="mix-blend-mode: normal"><tspan x="0" dy="0">Rocket</tspan></text><text transform="translate(215.56527,166.16682) scale(0.11601,0.11601)" font-size="40" xml:space="preserve" fill="#ffffff" fill-rule="nonzero" stroke="#000000" stroke-width="0" stroke-linecap="butt" stroke-linejoin="miter" stroke-miterlimit="10" stroke-dasharray="" stroke-dashoffset="0" font-family="Serif" font-weight="normal" text-anchor="start" style="mix-blend-mode: normal"><tspan x="0" dy="0">4-2-2</tspan></text></g></g></svg>