<svg version="1.1" xmlns="http://www.w3.org/2000/svg" xmlns:xlink="http://www.w3.org/1999/xlink" width="46.28283" height="104.56141" viewBox="0,0,46.28283,104.56141"><defs><radialGradient cx="238.52448" cy="178.17608" r="22.57159" gradientUnits="userSpaceOnUse" id="color-1"><stop offset="0" stop-color="#3c3c3c"/><stop offset="1" stop-color="#939393"/></radialGradient><linearGradient x1="239.74787" y1="156.63007" x2="239.74787" y2="163.48112" gradientUnits="userSpaceOnUse" id="color-2"><stop offset="0" stop-color="#696969"/><stop offset="1" stop-color="#a0a0a0"/></linearGradient><radialGradient cx="235.71182" cy="133.97787" r="13.11833" gradientUnits="userSpaceOnUse" id="color-3"><stop offset="0" stop-color="#dcdcdc"/><stop offset="1" stop-color="#a0a0a0"/></radialGradient><radialGradient cx="241.29951" cy="140.86247" r="9.85359" gradientUnits="userSpaceOnUse" id="color-4"><stop offset="0" stop-color="#c5dfff"/><stop offset="1" stop-color="#219cff"/></radialGradient><radialGradient cx="230.47957" cy="134.59221" r="10.07074" gradientUnits="userSpaceOnUse" id="color-5"><stop offset="0" stop-color="#303030"/><stop offset="1" stop-color="#292929"/></radialGradient><radialGradient cx="246.90767" cy="131.41236" r="2.65078" gradientUnits="userSpaceOnUse" id="color-6"><stop offset="0" stop-color="#787878"/><stop offset="1" stop-color="#292929"/></radialGradient><radialGradient cx="235.75537" cy="133.57739" r="4.17314" gradientUnits="userSpaceOnUse" id="color-7"><stop offset="0" stop-color="#a7a7a7"/><stop offset="1" stop-color="#292929"/></radialGradient></defs><g transform="translate(-217.14771,-130.20942)"><g data-paper-data="{&quot;isPaintingLayer&quot;:true}" fill-rule="nonzero" stroke-linejoin="miter" stroke-miterlimit="10" stroke-dasharray="" stroke-dashoffset="0" style="mix-blend-mode: normal"><path d="M223.55679,200.74768v-45.14319h29.93538v45.14319z" fill="url(#color-1)" stroke="#ed6b00" stroke-width="0" stroke-linecap="butt"/><g><path d="M248.12456,227.70104c0,0 -3.73655,-25.52802 -4.99251,-29.83836c-0.41068,-1.40943 -3.50084,-1.27025 -3.50084,-1.27025c0,0 -3.32614,-4.01048 0.29277,-4.27715c3.05853,-0.22538 9.95585,1.45495 9.95585,1.45495l6.22623,33.34268z" data-paper-data="{&quot;index&quot;:null}" fill="#494949" stroke="#000000" stroke-width="0" stroke-linecap="butt"/><path d="M262.36384,233.67582c-0.59116,0.04356 -2.63596,0.20792 -4.69656,0.279c-1.25279,0.04322 -1.94241,-0.47633 -2.88377,-0.55019c-1.18511,-0.09298 -2.9144,0.43582 -3.77541,0.30725c-1.58656,-0.23693 -2.42537,-0.6012 -2.42537,-0.6012c0,0 -0.34374,-1.00285 -0.40137,-1.56053c-0.07763,-0.75133 -0.02256,-2.54223 -0.02256,-2.54223c0,0 5.90942,-0.55535 8.23277,-0.52569c1.37479,0.01755 4.27664,0.33342 4.27664,0.33342c0,0 1.50106,0.50666 1.74548,0.91703c0.29936,0.50261 1.01686,1.91911 1.01686,1.91911c0,0 -0.24207,1.96325 -1.06673,2.02402z" data-paper-data="{&quot;index&quot;:null}" fill="#141415" stroke="#000000" stroke-width="0" stroke-linecap="butt"/><path d="M261.90445,231.12788c-0.24755,0.01824 0.81821,1.5457 -2.51306,1.52191c-3.14579,-0.02245 -2.85629,-0.98097 -3.96366,-0.98019c-2.31551,0.00163 -2.53692,0.78358 -3.54514,0.70449c-0.35112,-0.02755 -0.51974,-0.07655 -1.85107,-0.83657c-0.91561,-0.52269 -0.79256,-1.69757 -1.43686,-2.27987c-0.94115,-0.85058 -0.94487,-1.82129 -0.94487,-1.82129l-0.30014,-3.03387c0,0 0.64721,2.1651 1.54447,2.92563c0.8028,0.68045 2.30926,-0.18897 2.79161,-0.22465c0.84465,-0.06248 -0.92716,-3.20858 -0.11825,-3.2499c0.43496,-0.02222 3.69548,-0.50704 3.69548,-0.50704c0,0 0.38578,3.56117 0.61958,3.56415c1.37479,0.01755 4.63943,0.30668 4.63943,0.30668c0,0 1.50106,0.50666 1.74549,0.91703c0.29936,0.50261 0.84628,2.90439 0.84628,2.90439c0,0 -0.38466,0.02834 -1.20932,0.08911z" data-paper-data="{&quot;index&quot;:null}" fill="#252527" stroke="#000000" stroke-width="0" stroke-linecap="butt"/><path d="M254.23859,228.74621l2.58028,-1.28442" fill="none" stroke="#ffffff" stroke-width="0.5" stroke-linecap="round"/><path d="M256.20023,228.96642l2.43263,-1.63831" fill="none" stroke="#ffffff" stroke-width="0.5" stroke-linecap="round"/><path d="M259.73907,227.48976l-1.34425,1.55812" fill="none" stroke="#ffffff" stroke-width="0.5" stroke-linecap="round"/><path d="M254.90306,224.56325l-2.15893,0.40227" fill="none" stroke="#969696" stroke-width="0.5" stroke-linecap="round"/><path d="M255.1984,225.27101l-1.90817,0.50538" fill="none" stroke="#969696" stroke-width="0.5" stroke-linecap="round"/></g><g><path d="M224.17233,226.82215l6.04483,-33.37604c0,0 6.88808,-1.71781 9.94778,-1.50906c3.6203,0.24699 0.31602,4.27549 0.31602,4.27549c0,0 -3.09088,-0.12238 -3.49389,1.28927c-1.2325,4.31711 -4.83018,29.86507 -4.83018,29.86507z" fill="#494949" stroke="#000000" stroke-width="0" stroke-linecap="butt"/><path d="M239.20902,232.9165c0,0 -0.51687,1.9094 -1.34185,1.85311c-0.59139,-0.04035 -2.63891,-0.16634 -4.68889,-0.38694c-1.24634,-0.13412 -1.85569,-0.74583 -2.77718,-0.95187c-1.1601,-0.25939 -2.94672,0.01994 -3.78095,-0.22892c-1.5372,-0.45857 -2.31618,-0.93764 -2.31618,-0.93764c0,0 -0.19871,-1.04133 -0.177,-1.60156c0.02923,-0.75476 0.33664,-2.51994 0.33664,-2.51994c0,0 5.92862,0.28463 8.22451,0.64204c1.35854,0.2115 4.18671,0.93394 4.18671,0.93394c0,0 1.41446,0.71353 1.59851,1.15431c0.2254,0.53984 0.73568,2.04347 0.73568,2.04347z" data-paper-data="{&quot;index&quot;:null}" fill="#141415" stroke="#000000" stroke-width="0" stroke-linecap="butt"/><path d="M238.98194,232.2649c0,0 -0.3848,-0.02625 -1.20978,-0.08254c-0.24765,-0.0169 0.59174,1.64574 -2.70278,1.15181c-3.11109,-0.46643 -2.68916,-1.37446 -3.78554,-1.53004c-2.29254,-0.32533 -2.62216,0.41752 -3.6091,0.19684c-0.34371,-0.07686 -0.50372,-0.14917 -1.71439,-1.08957c-0.83262,-0.64674 -0.54492,-1.79247 -1.10054,-2.45991c-0.81161,-0.97497 -0.67824,-1.93646 -0.67824,-1.93646l0.13125,-3.04586c0,0 0.33502,2.23481 1.11589,3.11441c0.69867,0.787 2.3128,0.139 2.79537,0.17177c0.845,0.05741 -0.46481,-3.30735 0.34183,-3.23404c0.43375,0.03942 3.73005,0.01986 3.73005,0.01986c0,0 -0.12094,3.57995 0.11012,3.61592c1.35853,0.2115 4.54963,0.9587 4.54963,0.9587c0,0 1.41446,0.71353 1.59851,1.15431c0.22541,0.53984 0.4277,2.99478 0.4277,2.99478z" data-paper-data="{&quot;index&quot;:null}" fill="#252527" stroke="#000000" stroke-width="0" stroke-linecap="butt"/><path d="M230.51941,228.74211l2.7358,-0.90723" fill="none" stroke="#ffffff" stroke-width="0.5" stroke-linecap="round"/><path d="M235.06987,227.95869l-2.63958,1.27841" fill="none" stroke="#ffffff" stroke-width="0.5" stroke-linecap="round"/><path d="M236.14218,228.27492l-1.55079,1.3527" fill="none" stroke="#ffffff" stroke-width="0.5" stroke-linecap="round"/><path d="M229.57373,224.78829l2.19412,-0.0934" fill="none" stroke="#969696" stroke-width="0.5" stroke-linecap="round"/><path d="M229.99987,225.66814l1.96041,-0.23088" fill="none" stroke="#969696" stroke-width="0.5" stroke-linecap="round"/></g><g stroke="#000000" stroke-width="0" stroke-linecap="butt"><path d="M255.15288,189.06193c0,0 0.23797,-3.01237 -0.60241,-6.41999c-0.20209,-0.81945 -0.6897,-3.535 -0.90493,-4.37474c-0.50934,-1.98746 -1.07964,-3.94022 -1.3644,-5.16636c-0.61249,-2.6372 -1.31696,-5.99526 -1.31696,-5.99526c0,0 -1.22791,-6.6121 -0.26282,-6.96689c5.64425,-2.07491 5.61632,5.51014 5.61632,5.51014c0,0 1.07826,4.7796 1.72945,7.58346c0.26502,1.1411 -0.08188,2.12972 0.26478,3.91281c0.1554,0.79931 0.37215,4.31278 0.59747,6.45162c0.37514,3.5611 0.95346,5.67349 0.95346,5.67349z" data-paper-data="{&quot;index&quot;:null}" fill="#bdbdbd"/><path d="M260.32922,193.77219c-0.20836,-0.00501 0.33227,3.70835 -0.54648,3.75384c-0.43221,0.02236 -0.25708,-2.4255 -0.92631,-3.20036c-0.35424,-0.41017 0.74544,4.22863 -0.43035,3.8531c-0.40365,-0.12894 -0.43378,-3.57157 -0.91966,-4.351c-0.26009,-0.41724 0.53893,5.19475 -0.24514,4.98954c-0.46545,-0.12181 -0.31919,-3.27362 -0.75545,-4.64563c-0.21253,-0.6684 -0.0116,3.87435 -0.58758,3.6018c-0.35258,-0.16684 -0.76645,-4.59053 -0.80804,-4.63719c-0.23371,-0.26215 -0.7052,2.48371 -1.02762,1.86154c-0.59421,-1.14664 0.20012,-2.64985 0.80557,-4.04827c0.35375,-0.81705 0.27997,-1.99543 0.27997,-1.99543c0,0 1.5534,-0.61472 2.34859,-0.57956c0.77425,0.03423 2.36138,0.78783 2.36138,0.78783c0,0 0.89245,4.62038 0.45108,4.60977z" data-paper-data="{&quot;index&quot;:null}" fill="#777777"/></g><g stroke-linecap="butt"><path d="M235.91979,163.48112v-6.85104h7.65615v6.85104z" fill="url(#color-2)" stroke="#000000" stroke-width="0"/><path d="M252.80944,144.20748c0,7.73092 -5.73774,13.99807 -12.8156,13.99807c-7.07786,0 -12.8156,-6.26715 -12.8156,-13.99807c0,-7.73092 5.73774,-13.99806 12.8156,-13.99806c7.07786,0 12.8156,6.26714 12.8156,13.99806z" fill="url(#color-3)" stroke="none" stroke-width="0"/><path d="M254.09785,143.58813c0,3.74486 0.0384,8.21376 -9.59547,8.69146c-10.76272,0.53367 -10.10384,-4.9466 -10.10384,-8.69146c0,-3.74486 4.40985,-6.78067 9.84967,-6.78067c5.43982,0 9.84967,3.03581 9.84967,6.78067z" data-paper-data="{&quot;index&quot;:null}" fill="url(#color-4)" stroke="#ed6b00" stroke-width="0"/><path d="M233.16997,134.60174c-0.16984,0.01553 -0.60661,0.06221 -1.07903,0.1438c-0.52185,0.20742 -1.13106,0.41772 -1.59752,0.64771c-0.28909,0.89276 0.78709,1.80702 -0.65422,2.4752c-2.45813,1.13958 -1.71655,-2.03888 -0.89769,-3.03685c1.27069,-1.10653 3.14359,-1.2394 4.75566,-1.549c2.22048,-0.42645 4.38435,-1.08334 6.57971,-1.21737c0.08249,-0.08622 0.19535,-0.14411 0.32353,-0.15569l0.58612,-0.0529c0.29539,-0.07774 0.61637,-0.15861 0.95355,-0.23507c0.87645,-0.27394 1.93099,-0.41625 2.91353,-0.50866c0.4818,-0.09462 0.9333,-0.1389 1.30669,-0.10536c0.27388,-0.02025 0.5286,-0.03932 0.7561,-0.05986l0.61787,-0.05577c0.28142,-0.0254 0.53014,0.18214 0.55554,0.46356c0.0226,0.25047 -0.13931,0.47504 -0.37361,0.53931l-0.32968,0.09745c0.145,0.12181 0.27656,0.26112 0.39244,0.4197l0.23414,-0.11908l0.29765,0.58522c0.03177,0.05903 0.05238,0.12532 0.05879,0.19629c0.0254,0.28142 -0.18214,0.53014 -0.46355,0.55553c-0.08558,0.00772 -0.16814,-0.00609 -0.24232,-0.03698l-0.50702,-0.19878l0.00585,-0.01492l-0.04787,-0.00377c-0.36209,-0.22374 -0.73047,-0.39249 -1.09838,-0.50678c-0.55947,-0.02006 -1.148,-0.08122 -1.74789,-0.1302c-1.01464,0.1745 -1.9334,0.80247 -2.5904,1.87097c0,0 -0.26893,0.43524 -0.70416,0.1663c-0.43523,-0.26893 -0.1663,-0.70417 -0.1663,-0.70417c0.0575,-0.09265 0.11686,-0.18277 0.17799,-0.27034l-0.28392,0.09053c-0.03801,0.01299 -0.07817,0.02169 -0.11996,0.02546c-0.28142,0.0254 -0.53014,-0.18214 -0.55553,-0.46356c-0.01286,-0.14243 0.03395,-0.27647 0.11981,-0.37743c-0.2451,0.00049 -0.4766,0.01384 -0.6735,0.06241c-1.37524,0.33924 -3.48763,0.45199 -5.48058,0.75785c0.01121,0.24126 -0.14794,0.45435 -0.37516,0.51668l-0.59763,0.17665l-0.00571,-0.01931l-0.00747,0.00194z" fill="url(#color-5)" stroke="none" stroke-width="0.5"/><path d="M248.26401,130.87071c2.70896,-0.28418 2.68558,-0.24349 2.90043,1.58673c0.21485,1.83022 -0.78194,3.36186 -2.22639,3.42102c-1.44446,0.05917 -2.7896,-1.37656 -3.00445,-3.20678c-0.21485,-1.83022 -0.20983,-1.53449 2.33041,-1.80097z" data-paper-data="{&quot;index&quot;:null}" fill="url(#color-6)" stroke="#000000" stroke-width="0"/><path d="M241.64399,133.55157c0.35755,1.99142 -1.17444,3.9329 -3.4218,4.33639c-2.24735,0.40349 -4.35904,-0.88377 -4.71659,-2.8752c-0.35755,-1.99142 -0.40888,-2.02662 3.87102,-2.60142c4.01334,-0.53901 3.90982,-0.85119 4.26737,1.14023z" fill="url(#color-7)" stroke="#000000" stroke-width="0"/></g><path d="M229.63979,194.01273c0,0 0.16709,-5.5597 -0.35268,-10.94382c-0.35317,-3.65847 -1.40473,-6.95919 -1.56162,-9.45339c-0.29447,-4.68133 -0.2105,-13.38223 -0.2105,-13.38223c0,0 3.69178,-0.58477 5.4694,-0.21857c2.26281,0.46615 7.00656,2.78867 7.00656,2.78867c0,0 3.67689,-2.17061 5.59031,-2.58687c2.01891,-0.43921 6.22369,0.01677 6.22369,0.01677c0,0 -0.06905,9.21711 -0.22689,12.65629c-0.13965,3.04285 -0.88957,6.36811 -1.18346,10.87293c-0.3029,4.64296 -0.14784,10.42155 -0.14784,10.42155c0,0 -2.75697,-0.76932 -5.57187,-0.83754c-1.27833,-0.03098 -1.79126,1.00612 -2.99851,1.16532c-0.96496,0.12724 -2.63623,-0.61291 -3.56107,-0.64966c-0.69915,-0.02778 -2.04377,-0.5306 -2.53801,-0.53471c-0.99795,-0.0083 -1.61572,0.86529 -2.77345,1.02464c-1.34484,0.1851 -3.1641,-0.33939 -3.1641,-0.33939z" fill="#d0d0d0" stroke="#292e32" stroke-width="0" stroke-linecap="butt"/><path d="M242.73589,170.92842l-0.12126,-5.82045l7.63934,0.36378v5.21415z" fill="#f200ff" stroke="none" stroke-width="0" stroke-linecap="butt"/><g stroke="#000000" stroke-width="0" stroke-linecap="butt"><path d="M217.79553,189.2193c0,0 0.68547,-2.09716 1.0984,-5.65409c0.24801,-2.13633 0.4655,-5.65121 0.64635,-6.44702c0.40342,-1.77532 -0.04043,-2.77897 0.27119,-3.91353c0.76568,-2.78783 2.03155,-7.5412 2.03155,-7.5412c0,0 0.02476,-7.93935 7.3222,-5.62297c1.16498,0.36978 -0.67253,7.27558 -0.67253,7.27558c0,0 -0.82362,3.34158 -1.54381,5.96368c-0.33484,1.21911 -1.01268,3.15652 -1.61456,5.13089c-0.2543,0.83421 -0.81874,3.53936 -1.05709,4.3537c-0.99119,3.38637 -0.65292,6.41514 -0.65292,6.41514z" fill="#bdbdbd"/><path d="M217.30787,193.94363c-0.54635,-0.00385 0.48039,-4.60682 0.48039,-4.60682c0,0 1.95252,-0.70344 2.91066,-0.71236c0.98407,-0.00916 2.91801,0.65813 2.91801,0.65813c0,0 -0.07141,1.17899 0.3805,2.00975c0.77344,1.4219 1.78252,2.95504 1.06617,4.08513c-0.38869,0.61319 -1.01907,-2.15519 -1.30401,-1.90006c-0.0507,0.04541 -0.48819,4.46689 -0.92194,4.62259c-0.70859,0.25436 -0.53679,-4.29349 -0.78864,-3.63034c-0.51695,1.36121 -0.28241,4.52594 -0.85668,4.63278c-0.96741,0.18 -0.07314,-5.4202 -0.38813,-5.01042c-0.58843,0.76548 -0.56735,4.21598 -1.06502,4.33201c-1.44959,0.33791 -0.16652,-4.27672 -0.59822,-3.87713c-0.81554,0.75488 -0.55718,3.2148 -1.09275,3.17818c-1.08887,-0.07443 -0.48243,-3.77961 -0.74032,-3.78142z" data-paper-data="{&quot;index&quot;:null}" fill="#777777"/></g></g></g></svg>