<svg version="1.1" xmlns="http://www.w3.org/2000/svg" xmlns:xlink="http://www.w3.org/1999/xlink" width="171.90658" height="102.67149" viewBox="0,0,171.90658,102.67149"><defs><radialGradient cx="231.48074" cy="189.13486" r="34.955" gradientUnits="userSpaceOnUse" id="color-1"><stop offset="0" stop-color="#33266a"/><stop offset="1" stop-color="#949074"/></radialGradient><linearGradient x1="266.40287" y1="180.3179" x2="258.83498" y2="187.75383" gradientUnits="userSpaceOnUse" id="color-2"><stop offset="0" stop-color="#694444"/><stop offset="1" stop-color="#98a1b9"/></linearGradient><radialGradient cx="282.86159" cy="148.89623" r="20.31544" gradientUnits="userSpaceOnUse" id="color-3"><stop offset="0" stop-color="#dcdcdc"/><stop offset="1" stop-color="#a0a0a0"/></radialGradient><radialGradient cx="275.67727" cy="144.86057" r="15.59586" gradientUnits="userSpaceOnUse" id="color-4"><stop offset="0" stop-color="#1c2f30"/><stop offset="1" stop-color="#142913"/></radialGradient><radialGradient cx="299.73769" cy="154.48288" r="4.10509" gradientUnits="userSpaceOnUse" id="color-5"><stop offset="0" stop-color="#786c41"/><stop offset="1" stop-color="#141a29"/></radialGradient><radialGradient cx="283.39876" cy="147.9591" r="6.46263" gradientUnits="userSpaceOnUse" id="color-6"><stop offset="0" stop-color="#7ba676"/><stop offset="1" stop-color="#291616"/></radialGradient><radialGradient cx="282.6193" cy="163.11318" r="15.25953" gradientUnits="userSpaceOnUse" id="color-7"><stop offset="0" stop-color="#d1ffc4"/><stop offset="1" stop-color="#2188ff"/></radialGradient><radialGradient cx="282.6193" cy="163.11318" r="15.25953" gradientUnits="userSpaceOnUse" id="color-8"><stop offset="0" stop-color="#ceffc4"/><stop offset="1" stop-color="#ff21cc"/></radialGradient><radialGradient cx="282.6193" cy="163.11318" r="15.25953" gradientUnits="userSpaceOnUse" id="color-9"><stop offset="0" stop-color="#ffe9c4"/><stop offset="1" stop-color="#4fff21"/></radialGradient><radialGradient cx="282.6193" cy="163.11318" r="15.25953" gradientUnits="userSpaceOnUse" id="color-10"><stop offset="0" stop-color="#ffe9c4"/><stop offset="1" stop-color="#4fff21"/></radialGradient><radialGradient cx="282.61929" cy="163.11318" r="15.25953" gradientUnits="userSpaceOnUse" id="color-11"><stop offset="0" stop-color="#ffe9c4"/><stop offset="1" stop-color="#ffa321"/></radialGradient><radialGradient cx="282.61927" cy="163.11317" r="15.25953" gradientUnits="userSpaceOnUse" id="color-12"><stop offset="0" stop-color="#c4f0ff"/><stop offset="1" stop-color="#3d21ff"/></radialGradient></defs><g transform="translate(-147.40935,-143.82103)"><g data-paper-data="{&quot;isPaintingLayer&quot;:true}" fill-rule="nonzero" stroke-linejoin="miter" stroke-miterlimit="10" stroke-dasharray="" stroke-dashoffset="0" style="mix-blend-mode: normal"><path d="M191.61501,176.10165l67.38526,-18.61805l12.34597,44.68461l-67.38526,18.61805z" fill="url(#color-1)" stroke="#ed6b00" stroke-width="0" stroke-linecap="butt"/><path d="M254.68,183.52527l7.5679,-7.43598l8.30989,8.45724l-7.5679,7.43598z" fill="url(#color-2)" stroke="#000000" stroke-width="0" stroke-linecap="butt"/><g><path d="M164.08205,221.95063c0,0 36.84133,-15.46252 42.82061,-19.01069c1.95508,-1.16022 0.55302,-5.74078 0.55302,-5.74078c0,0 4.72992,-6.53707 6.52743,-1.21284c1.51919,4.49987 1.66295,15.49265 1.66295,15.49265l-47.59957,22.21414z" data-paper-data="{&quot;index&quot;:null}" fill="#4a433c" stroke="#000000" stroke-width="0" stroke-linecap="butt"/><path d="M160.62093,245.61266c-0.29377,-0.86976 -1.32984,-3.87297 -2.23217,-6.93562c-0.54856,-1.86224 -0.03573,-3.09691 -0.2885,-4.53725c-0.31804,-1.81318 -1.77916,-4.20247 -1.91885,-5.54336c-0.25738,-2.47097 -0.03492,-3.86953 -0.03492,-3.86953c0,0 1.37134,-0.90279 2.18534,-1.20455c1.09683,-0.40656 3.80385,-1.01563 3.80385,-1.01563c0,0 3.11515,8.6479 3.96788,12.14378c0.50455,2.06858 1.15166,6.54257 1.15166,6.54257c0,0 -0.18011,2.44689 -0.70127,2.97187c-0.63808,0.64323 -2.48531,2.2661 -2.48531,2.2661c0,0 -3.03774,0.39515 -3.44738,-0.81811z" data-paper-data="{&quot;index&quot;:null}" fill="#140d0d" stroke="#000000" stroke-width="0" stroke-linecap="butt"/><path d="M164.26454,243.9398c-0.12296,-0.36419 -2.0021,1.82387 -3.25286,-3.18104c-1.18129,-4.72645 0.36809,-4.66231 -0.06078,-6.32291c-0.89674,-3.47204 -2.15489,-3.50198 -2.4257,-5.04462c-0.0943,-0.53731 -0.08596,-0.80894 0.53977,-3.09905c0.43027,-1.57505 2.23985,-1.84417 2.86433,-3.03532c0.91213,-1.73997 2.36657,-2.1204 2.36657,-2.1204l4.434,-1.62177c0,0 -2.9971,1.80671 -3.791,3.44615c-0.71048,1.46678 1.17528,3.39021 1.41511,4.09985c0.4199,1.24261 4.45389,-2.62972 4.82822,-1.43244c0.20139,0.64372 2.18761,5.34633 2.18761,5.34633c0,0 -5.19177,1.9539 -5.10589,2.30561c0.50455,2.06858 1.33174,7.07634 1.33174,7.07634c0,0 -0.18011,2.44689 -0.70114,2.97184c-0.63808,0.64323 -4.0288,2.39095 -4.0288,2.39095c0,0 -0.19123,-0.56595 -0.60075,-1.77917z" data-paper-data="{&quot;index&quot;:null}" fill="#1f261f" stroke="#000000" stroke-width="0" stroke-linecap="butt"/><path d="M164.87601,231.52329l2.92278,3.37364" fill="none" stroke="#ffb5b5" stroke-width="0.5" stroke-linecap="round"/><path d="M165.30318,234.55032l3.39645,3.01562" fill="none" stroke="#bffdff" stroke-width="0.5" stroke-linecap="round"/><path d="M168.88432,239.28714l-2.85564,-1.41415" fill="none" stroke="#eaffc1" stroke-width="0.5" stroke-linecap="round"/><path d="M171.40573,230.90461l-1.43703,-3.0824" fill="none" stroke="#8d967b" stroke-width="0.5" stroke-linecap="round"/><path d="M170.45831,231.62065l-1.49491,-2.6665" fill="none" stroke="#767796" stroke-width="0.5" stroke-linecap="round"/></g><g data-paper-data="{&quot;index&quot;:null}" stroke="#000000" stroke-width="0" stroke-linecap="butt"><path d="M291.74797,215.78065c0,0 -3.16692,-0.01559 -8.20899,0.98232c-3.0284,0.59941 -7.92705,1.8459 -9.0941,1.94847c-2.60322,0.22856 -5.63358,0.81232 -7.32088,0.88482c-1.87702,0.08062 -10.21322,1.92251 -15.31597,-1.17094c-6.16801,-3.73924 2.23562,-17.47985 9.49868,-17.28683c10.71947,0.01972 -1.94496,9.48578 -1.94496,9.48578c0,0 2.68412,-0.41544 6.58363,-0.5828c1.81308,-0.07784 4.75838,0.22917 7.72063,0.18454c1.25165,-0.01885 5.19621,-0.43572 6.41378,-0.46765c5.063,-0.13274 9.05335,-1.92546 9.05335,-1.92546z" fill="#b8bda6"/><path d="M298.41823,214.37206c0.2347,0.74816 -6.50646,1.36684 -6.50646,1.36684c0,0 -1.81891,-2.35919 -2.25182,-3.66473c-0.44481,-1.34076 -0.38225,-4.27664 -0.38225,-4.27664c0,0 1.64255,-0.42015 2.57939,-1.40281c1.60334,-1.68152 3.25533,-3.73374 5.11427,-3.25115c1.00873,0.26182 -2.49755,2.33921 -2.02374,2.61663c0.08428,0.0494 6.31864,-1.29479 6.72188,-0.77053c0.6588,0.85659 -5.63143,2.61923 -4.61458,2.67224c2.08717,0.10856 6.30888,-1.60195 6.70721,-0.86415c0.67086,1.24293 -7.37484,2.48056 -6.67653,2.73106c1.3046,0.46783 6.01061,-1.07636 6.38766,-0.44729c1.09843,1.83253 -5.77132,2.10596 -5.03551,2.52048c1.3898,0.78303 4.63787,-0.65061 4.82306,0.09742c0.37653,1.5208 -4.95319,2.31926 -4.84243,2.67256z" data-paper-data="{&quot;index&quot;:null}" fill="#786274"/></g><g><path d="M161.83919,171.88043l50.45432,14.61306c0,0 1.55217,10.88372 0.74456,15.56383c-0.95547,5.53777 -6.63651,-0.19224 -6.63651,-0.19224c0,0 0.67949,-4.74196 -1.43119,-5.58702c-6.45458,-2.58412 -45.2387,-12.18438 -45.2387,-12.18438z" fill="#413a4a" stroke="#000000" stroke-width="0" stroke-linecap="butt"/><path d="M150.06272,194.07591c0,0 -2.85934,-1.09951 -2.64153,-2.36144c0.15601,-0.9046 0.67542,-4.03863 1.34091,-7.16171c0.40456,-1.89862 1.44361,-2.74019 1.90748,-4.12685c0.58388,-1.74595 0.43739,-4.54245 0.95325,-5.78809c0.95048,-2.29522 1.81227,-3.41891 1.81227,-3.41891c0,0 1.63565,-0.14071 2.49526,-0.01839c1.15824,0.16484 3.82824,0.91884 3.82824,0.91884c0,0 -1.38007,9.08752 -2.29538,12.5677c-0.54166,2.05929 -2.10355,6.30118 -2.10355,6.30118c0,0 -1.32379,2.06557 -2.03215,2.27905c-0.86745,0.26148 -3.26481,0.80868 -3.26481,0.80868z" data-paper-data="{&quot;index&quot;:null}" fill="#12140d" stroke="#000000" stroke-width="0" stroke-linecap="butt"/><path d="M151.10249,193.82957c0,0 0.10153,-0.58861 0.31921,-1.85057c0.06528,-0.37893 -2.62924,0.65016 -1.34495,-4.34662c1.21277,-4.71861 2.54452,-3.92411 2.95822,-5.58847c0.86514,-3.47988 -0.22661,-4.10567 0.26992,-5.59093c0.17294,-0.5173 0.30997,-0.75217 1.95085,-2.4679c1.12846,-1.17985 2.84789,-0.55466 3.96428,-1.30466c1.6309,-1.09535 3.09087,-0.73729 3.09087,-0.73729l4.67112,0.68594c0,0 -3.49582,0.16101 -4.97491,1.22429c-1.32335,0.95132 -0.58147,3.5406 -0.70853,4.2788c-0.22271,1.29256 5.16861,-0.19068 4.92762,1.04023c-0.12961,0.66193 -0.62308,5.74291 -0.62308,5.74291c0,0 -5.49558,-0.75492 -5.58774,-0.40468c-0.54154,2.05925 -2.19943,6.85623 -2.19943,6.85623c0,0 -1.32379,2.06557 -2.03215,2.27905c-0.86745,0.26148 -4.68131,0.18317 -4.68131,0.18317z" data-paper-data="{&quot;index&quot;:null}" fill="#1e1e26" stroke="#000000" stroke-width="0" stroke-linecap="butt"/><path d="M158.8364,185.71125l-0.96301,-4.35842" fill="none" stroke="#c1ffce" stroke-width="0.5" stroke-linecap="round"/><path d="M158.35739,188.48697l-1.55006,-4.26922" fill="none" stroke="#eaffc1" stroke-width="0.5" stroke-linecap="round"/><path d="M155.86254,187.48489l1.83745,2.60374" fill="none" stroke="#ffb5b5" stroke-width="0.5" stroke-linecap="round"/><path d="M164.11415,180.52418l-0.20456,3.39466" fill="none" stroke="#7d967f" stroke-width="0.5" stroke-linecap="round"/><path d="M162.73544,184.09728l-0.04427,-3.05649" fill="none" stroke="#966262" stroke-width="0.5" stroke-linecap="round"/></g><path d="M207.48449,182.00893c0,0 8.42826,-1.77839 16.34132,-4.52652c5.37685,-1.8673 9.96059,-4.655 13.65701,-5.80168c6.93791,-2.15233 20.06306,-5.20292 20.06306,-5.20292c0,0 2.22803,5.34251 2.32584,8.15145c0.12465,3.57574 -1.63872,11.56289 -1.63872,11.56289c0,0 4.60916,4.74105 5.93434,7.46865c1.39814,2.87808 2.24714,9.37268 2.24714,9.37268c0,0 -13.89673,3.26144 -19.13013,4.27962c-4.63046,0.90082 -9.90859,0.98622 -16.79548,2.18889c-7.0981,1.23938 -15.7381,3.58267 -15.7381,3.58267c0,0 0.15112,-4.43002 -0.77393,-8.69132c-0.4201,-1.93522 -2.16825,-2.32848 -2.84853,-4.08718c-0.54391,-1.4057 -0.04001,-4.19113 -0.32257,-5.59655c-0.21352,-1.06234 0.05236,-3.26957 -0.12198,-4.01495c-0.35187,-1.50493 -1.89221,-2.11563 -2.55457,-3.79987c-0.76957,-1.95628 -0.6444,-4.88566 -0.6444,-4.88566z" fill="#d1b0b0" stroke="#292e32" stroke-width="0" stroke-linecap="butt"/><g><path d="M296.55948,176.54412c-6.47719,10.0689 -19.20074,13.4244 -28.41913,7.49447c-9.21846,-5.92992 -11.4408,-18.89956 -4.96351,-28.96866c6.47719,-10.0689 19.20074,-13.4244 28.4192,-7.49443c9.21846,5.92992 11.4408,18.89956 4.96351,28.96866z" fill="url(#color-3)" stroke="none" stroke-width="0" stroke-linecap="butt"/><path d="M279.17343,147.12709c-0.23419,-0.12216 -0.84218,-0.42722 -1.52577,-0.71665c-0.85352,-0.16704 -1.82318,-0.4036 -2.6233,-0.49479c-1.12439,0.92051 -0.4888,3.01279 -2.92583,2.6757c-4.15637,-0.57534 -0.52751,-4.09359 1.37514,-4.70736c2.58207,-0.3766 5.13266,1.01967 7.49169,1.96699c3.24935,1.30495 6.61791,2.26226 9.5895,3.92698c0.17976,-0.04318 0.37515,-0.02387 0.55172,0.06842l0.80767,0.4223c0.44986,0.1463 0.9357,0.30968 1.43889,0.49266c1.37087,0.3775 2.86376,1.07556 4.2208,1.77847c0.70683,0.28044 1.33209,0.60092 1.79017,0.95744c0.37364,0.20303 0.72139,0.39174 1.03497,0.55545l0.85144,0.44501c0.38776,0.20273 0.53783,0.68121 0.33515,1.06922c-0.18051,0.34517 -0.57944,0.50198 -0.93839,0.38956l-0.5112,-0.14914c0.08669,0.28014 0.14135,0.57193 0.1596,0.87543l0.40481,0.04087l-0.10268,1.0116c-0.00814,0.10341 -0.0367,0.20708 -0.08777,0.30495c-0.20273,0.38776 -0.68121,0.53783 -1.06922,0.33515c-0.11789,-0.06156 -0.21416,-0.14885 -0.28475,-0.25118l-0.49377,-0.68368l0.02016,-0.01449l-0.05917,-0.04495c-0.28406,-0.59476 -0.62249,-1.12327 -1.00607,-1.58026c-0.71192,-0.49484 -1.42707,-1.06765 -2.16741,-1.63398c-1.46773,-0.62279 -3.19047,-0.57474 -4.94145,0.26657c0,0 -0.7149,0.34147 -1.05648,-0.37337c-0.34147,-0.7149 0.37337,-1.05648 0.37337,-1.05648c0.15253,-0.07245 0.30544,-0.14025 0.45839,-0.20292l-0.44567,-0.12001c-0.06023,-0.01497 -0.12005,-0.03726 -0.17759,-0.06725c-0.38776,-0.20273 -0.53783,-0.68121 -0.33515,-1.06922c0.1026,-0.19632 0.27576,-0.33169 0.47227,-0.39125c-0.31968,-0.2048 -0.63233,-0.38122 -0.92944,-0.48291c-2.07528,-0.71022 -4.92114,-2.33338 -7.77295,-3.60455c-0.18742,0.3235 -0.57335,0.46781 -0.9215,0.35866l-0.92648,-0.27055l0.00877,-0.02997l-0.01138,-0.00374z" fill="url(#color-4)" stroke="none" stroke-width="0.5" stroke-linecap="butt"/><path d="M301.95811,154.91357c3.76628,1.89954 3.70175,1.93282 2.44827,4.49651c-1.25336,2.56364 -3.83499,3.72342 -5.76591,2.59048c-1.93087,-1.13307 -2.47987,-4.1301 -1.22639,-6.69375c1.25336,-2.56364 1.01231,-2.17445 4.54416,-0.39327z" data-paper-data="{&quot;index&quot;:null}" fill="url(#color-5)" stroke="#000000" stroke-width="0" stroke-linecap="butt"/><path d="M291.09,152.85898c-1.20274,2.89329 -4.82465,4.13842 -8.08968,2.78085c-3.2651,-1.35727 -4.93698,-4.80312 -3.73417,-7.69625c1.20274,-2.89329 1.16533,-2.9822 7.22111,-0.14506c5.67875,2.66037 5.80531,2.16707 4.60266,5.0604z" fill="url(#color-6)" stroke="#000000" stroke-width="0" stroke-linecap="butt"/><path d="M280.66723,182.40307c-15.81384,-5.32987 -13.82216,-14.72482 -11.70009,-20.12211c2.12216,-5.39719 13.06649,-6.29705 20.90649,-3.21451c7.83999,3.08254 13.0319,11.23453 10.90979,16.63171c0,0 -2.68525,12.76337 -20.11616,6.70479z" data-paper-data="{&quot;index&quot;:null}" fill="url(#color-7)" stroke="#ed6b00" stroke-width="0" stroke-linecap="butt"/><path d="M280.66723,182.40307c-12.60169,-4.24726 -13.89664,-11.07589 -12.82894,-16.40595c0.65049,3.24334 2.89504,6.09467 6.21001,7.37294c5.15301,1.98704 10.94116,-0.57949 12.9282,-5.7325c1.32408,-3.43373 0.62623,-7.14949 -1.51149,-9.83466c1.52298,0.29338 3.01487,0.71552 4.40862,1.26353c2.3897,0.93959 4.53338,2.35017 6.29888,4.01016c-0.06206,3.58453 1.82128,7.0112 5.0126,8.84253c0.17234,1.33502 0.05383,2.62047 -0.40169,3.77901c0,0 -0.10873,0.5168 -0.42446,1.29307c-0.7466,-0.57553 -1.58781,-1.05434 -2.51225,-1.41081c-5.15301,-1.98704 -10.94116,0.57949 -12.9282,5.7325c-0.27326,0.70863 -0.46039,1.42927 -0.56653,2.15038c-1.1484,-0.25611 -2.37492,-0.60508 -3.68471,-1.06034z" data-paper-data="{&quot;index&quot;:null}" fill="url(#color-8)" stroke="#ed6b00" stroke-width="0" stroke-linecap="butt"/><path d="M289.87363,159.06644c2.67,1.04979 5.03289,2.68757 6.90432,4.60426c-0.77615,0.83273 -1.42105,1.81167 -1.8883,2.91624c-0.82687,-2.92574 -2.97281,-5.43987 -6.02789,-6.61794c-5.153,-1.98704 -10.94116,0.5795 -12.9282,5.7325c-1.33213,3.45464 -0.61767,7.19475 1.5507,9.88359c-1.79256,0.50738 -3.43041,1.50997 -4.70087,2.91345c-1.42871,-1.06403 -2.50394,-2.18701 -3.29648,-3.33667c1.84448,-1.10611 3.34745,-2.81291 4.18119,-4.97508c1.47624,-3.82834 0.43913,-8.00726 -2.30468,-10.71758c4.18897,-2.78779 12.31787,-2.83746 18.51017,-0.40277z" data-paper-data="{&quot;index&quot;:null}" fill="url(#color-9)" stroke="#ed6b00" stroke-width="0" stroke-linecap="butt"/><path d="M294.4716,173.20069c0.70134,2.48162 2.3517,4.6671 4.70087,5.99232c-1.47239,2.14311 -4.18782,4.53015 -9.04259,4.81368c-0.22711,-1.86107 -0.9751,-3.62613 -2.14971,-5.08271c2.82625,-0.79997 5.26794,-2.83094 6.49142,-5.7233z" data-paper-data="{&quot;index&quot;:null}" fill="url(#color-10)" stroke="#ed6b00" stroke-width="0" stroke-linecap="butt"/><path d="M281.41098,174.80876c0.08395,-0.12627 -0.08872,-0.93771 -0.11311,-1.17944c-0.29758,-2.94935 -0.20216,-5.95946 -0.84896,-8.85236c-0.06109,-0.27328 -1.05593,-0.49466 -1.47335,-0.68804c-2.55627,-1.18421 -4.97709,-2.70992 -7.65787,-3.57616c-0.34325,-0.11092 -0.72862,-0.12769 -1.14467,-0.06636c1.54507,-1.58295 4.09659,-2.55589 7.04558,-2.9451c0.7997,2.9806 2.96355,5.55138 6.06335,6.74668c4.00134,1.54295 8.38565,0.34027 11.07585,-2.68703c3.18756,2.35976 5.51801,5.53809 6.45229,8.63108c-1.05088,-1.25196 -2.42411,-2.26337 -4.05709,-2.89305c-5.15301,-1.98704 -10.94116,0.57949 -12.9282,5.7325c-0.49296,1.27841 -0.70566,2.59591 -0.66813,3.88477c-1.5027,-0.0598 -2.98298,0.22349 -4.33542,0.80313c1.14507,-1.07452 2.06152,-2.11603 2.58976,-2.91061z" data-paper-data="{&quot;index&quot;:null}" fill="url(#color-11)" stroke="#ed6b00" stroke-width="0" stroke-linecap="butt"/><path d="M280.66721,182.40305c-15.81384,-5.32987 -13.82216,-14.72482 -11.70009,-20.12211c0.09225,-0.23461 0.20116,-0.46072 0.32578,-0.67839c-0.62175,1.75215 -0.70761,3.82681 -0.57251,5.37858c0.01396,0.16038 0.03163,0.32151 0.05291,0.48332c-0.53631,4.17416 1.62701,8.33191 5.49777,10.23568c2.51825,2.55903 5.61212,4.478 8.68382,4.9991c5.29744,0.89868 9.94505,2.00375 12.9282,-5.7325c1.20862,-3.13432 -0.15538,-6.89207 -1.51706,-9.96298c-0.79376,-1.79012 -3.69402,-1.69338 -4.90595,-3.23149c-0.12565,-2.01603 -0.86237,-3.94712 -2.09375,-5.53076c0.86,0.23239 1.70012,0.50755 2.50731,0.82492c2.9012,1.14069 5.43977,2.97559 7.37927,5.10821c-0.05669,0.13036 -0.11088,0.26252 -0.16251,0.3964c-1.67738,4.34996 -0.10987,9.1525 3.51922,11.73904c-0.19735,0.60141 -0.58569,1.58152 -1.27786,2.64482c-2.93095,0.42771 -5.59948,2.14916 -7.1643,4.7913c-2.84085,0.57701 -6.58405,0.36546 -11.5002,-1.34327z" data-paper-data="{&quot;index&quot;:null}" fill="url(#color-12)" stroke="#ed6b00" stroke-width="0" stroke-linecap="butt"/><path d="M301.79606,166.15943c0,0 -2.80635,-1.61492 -3.57061,-2.65802c-0.67887,-0.92668 -0.78892,-3.29354 -0.78892,-3.29354" data-paper-data="{&quot;index&quot;:null}" fill="none" stroke="#191412" stroke-width="1.5" stroke-linecap="round"/><path d="M280.70054,155.04413c0,0 -1.16967,1.78376 -2.21531,2.14306c-1.17711,0.40441 -4.49977,0.16485 -4.49977,0.16485" data-paper-data="{&quot;index&quot;:null}" fill="none" stroke="#191412" stroke-width="1.5" stroke-linecap="round"/></g><g data-paper-data="{&quot;index&quot;:null}" stroke="#000000" stroke-width="0" stroke-linecap="butt"><path d="M301.74187,186.58651c0,0 -4.54362,-2.69358 -10.59993,-3.54145c-1.45644,-0.20392 -6.13224,-1.24057 -7.63137,-1.43341c-3.54791,-0.45646 -7.09178,-0.76671 -9.25646,-1.10671c-4.65572,-0.73118 -10.5218,-1.8122 -10.5218,-1.8122c0,0 -12.2195,-2.01975 -11.97326,-4.12384c1.54237,-13.1794 14.1026,-7.55912 14.1026,-7.55912c0,0 8.41184,1.38863 13.36168,2.16616c2.01449,0.31648 3.28368,1.73289 6.37583,2.36118c1.38622,0.28179 7.09386,2.44356 10.6457,3.57461c5.91354,1.88305 9.7152,2.29508 9.7152,2.29508z" fill="#b8bda6"/><path d="M313.7713,180.00412c-0.18093,0.40881 6.10483,2.09165 5.44623,3.86506c-0.32393,0.87227 -4.02585,-1.28953 -5.79977,-0.53912c-0.93916,0.39723 7.26567,1.65966 5.69858,3.70885c-0.53793,0.70346 -5.97396,-1.78926 -7.6028,-1.40544c-0.87189,0.20557 8.61266,2.78474 7.63875,4.18471c-0.57824,0.83099 -5.41062,-1.7954 -7.92949,-1.94904c-1.2272,-0.0747 6.07983,2.8956 5.17291,3.83369c-0.55511,0.57415 -7.85198,-1.88652 -7.95982,-1.8387c-0.60618,0.2684 3.31793,3.23767 2.0721,3.41459c-2.29592,0.32616 -3.99878,-2.3607 -5.69369,-4.59619c-0.99032,-1.30637 -2.90384,-2.03386 -2.90384,-2.03386c0,0 0.32427,-3.53085 1.04028,-5.07893c0.69697,-1.50744 3.20009,-4.09049 3.20009,-4.09049c0,0 8.0036,1.65915 7.62026,2.52483z" data-paper-data="{&quot;index&quot;:null}" fill="#786274"/></g><g stroke="none" stroke-width="0" stroke-linecap="butt"><path d="M247.00744,193.28973l8.71526,-2.3075l2.24166,11.62978l-7.84712,1.90372z" fill="#f200ff"/><path d="M255.7227,190.98222l1.1764,6.10315c-0.83005,0.74335 -1.52692,1.61812 -2.06548,2.58251c-0.04106,-0.56827 -0.13142,-1.1408 -0.27412,-1.71254c-0.59074,-2.36688 -1.97959,-4.32429 -3.80803,-5.65691z" fill="#eeff00"/><path d="M248.84542,199.92461c3.28995,-0.67 6.07854,-3.02825 7.42614,-6.09493l1.47026,7.62771c-1.61899,-0.45595 -3.37517,-0.50912 -5.12395,-0.07266c-1.09775,0.27398 -2.10741,0.71964 -3.00751,1.3012z" fill="#00ff5f"/><path d="M249.63275,202.76676l-2.22275,-8.02381c1.27127,1.93947 3.17643,3.36313 5.3523,4.05291c-0.73592,1.29193 -1.18619,2.7482 -1.28958,4.26684c-0.59806,-0.15477 -1.21376,-0.25486 -1.83997,-0.29595z" fill="#004fff"/><path d="M247.00743,193.28971l8.71527,-2.30751l0.55582,2.8836c-1.61592,-0.45309 -3.3681,-0.50502 -5.1129,-0.06955c-1.32512,0.33073 -2.5219,0.91163 -3.55254,1.67976z" fill="#ff0000"/><path d="M254.79787,203.38018l-4.68063,1.13552l-1.15644,-4.17458c0.70593,0.10495 1.42975,0.1348 2.16069,0.08312c0.97787,1.27154 2.24422,2.28142 3.67637,2.95594z" fill="#00efff"/><path d="M257.96437,202.61199l-7.84713,1.90371l-0.07802,-0.28163c3.43458,-0.94246 5.97204,-3.57914 6.93161,-6.7765z" fill="#9c00ff"/></g></g></g></svg>