<svg version="1.1" xmlns="http://www.w3.org/2000/svg" xmlns:xlink="http://www.w3.org/1999/xlink" width="59" height="59.70662" viewBox="0,0,59,59.70662"><defs><linearGradient x1="240" y1="151.6467" x2="240" y2="208.35332" gradientUnits="userSpaceOnUse" id="color-1"><stop offset="0" stop-color="#191919"/><stop offset="1" stop-color="#050505"/></linearGradient><linearGradient x1="240" y1="151.6467" x2="240" y2="208.35332" gradientUnits="userSpaceOnUse" id="color-2"><stop offset="0" stop-color="#cccccc"/><stop offset="1" stop-color="#898989"/></linearGradient><radialGradient cx="240" cy="180.00001" r="26.8571" gradientUnits="userSpaceOnUse" id="color-3"><stop offset="0" stop-color="#ffffff" stop-opacity="0.35484"/><stop offset="1" stop-color="#ffffff" stop-opacity="0"/></radialGradient><linearGradient x1="240" y1="153.29212" x2="240" y2="206.7079" gradientUnits="userSpaceOnUse" id="color-4"><stop offset="0" stop-color="#cccccc"/><stop offset="1" stop-color="#898989"/></linearGradient><linearGradient x1="242.23203" y1="198.9848" x2="243.02162" y2="198.9848" gradientUnits="userSpaceOnUse" id="color-5"><stop offset="0" stop-color="#525252"/><stop offset="1" stop-color="#363636"/></linearGradient><linearGradient x1="242.23203" y1="198.9848" x2="243.02162" y2="198.9848" gradientUnits="userSpaceOnUse" id="color-6"><stop offset="0" stop-color="#1f1f1f"/><stop offset="1" stop-color="#000000"/></linearGradient><linearGradient x1="235.01065" y1="199.78702" x2="244.75421" y2="199.78702" gradientUnits="userSpaceOnUse" id="color-7"><stop offset="0" stop-color="#2f2f2f"/><stop offset="1" stop-color="#040404"/></linearGradient><linearGradient x1="235.01065" y1="199.78702" x2="244.75421" y2="199.78702" gradientUnits="userSpaceOnUse" id="color-8"><stop offset="0" stop-color="#1f1f1f"/><stop offset="1" stop-color="#000000"/></linearGradient><linearGradient x1="238.34486" y1="197.11207" x2="241.44245" y2="197.11207" gradientUnits="userSpaceOnUse" id="color-9"><stop offset="0" stop-color="#444444"/><stop offset="1" stop-color="#252525"/></linearGradient><linearGradient x1="237.3427" y1="199.09674" x2="242.32314" y2="199.09674" gradientUnits="userSpaceOnUse" id="color-10"><stop offset="0" stop-color="#444444"/><stop offset="1" stop-color="#252525"/></linearGradient><linearGradient x1="236.50201" y1="201.28768" x2="243.18827" y2="201.28768" gradientUnits="userSpaceOnUse" id="color-11"><stop offset="0" stop-color="#444444"/><stop offset="1" stop-color="#252525"/></linearGradient><linearGradient x1="235.6117" y1="203.46981" x2="244.11488" y2="203.46981" gradientUnits="userSpaceOnUse" id="color-12"><stop offset="0" stop-color="#444444"/><stop offset="1" stop-color="#252525"/></linearGradient><linearGradient x1="241.4725" y1="196.39603" x2="243.93281" y2="196.39603" gradientUnits="userSpaceOnUse" id="color-13"><stop offset="0" stop-color="#b2b2b2"/><stop offset="1" stop-color="#363636"/></linearGradient><linearGradient x1="241.4725" y1="196.39603" x2="243.93281" y2="196.39603" gradientUnits="userSpaceOnUse" id="color-14"><stop offset="0" stop-color="#1f1f1f"/><stop offset="1" stop-color="#000000"/></linearGradient><linearGradient x1="234.25017" y1="189.02779" x2="245.68898" y2="189.02779" gradientUnits="userSpaceOnUse" id="color-15"><stop offset="0" stop-color="#b89a9a"/><stop offset="1" stop-color="#8d7070"/></linearGradient><linearGradient x1="234.25017" y1="189.02779" x2="245.68898" y2="189.02779" gradientUnits="userSpaceOnUse" id="color-16"><stop offset="0" stop-color="#260000"/><stop offset="1" stop-color="#100000"/></linearGradient><linearGradient x1="244.80164" y1="193.05301" x2="249.63118" y2="193.05301" gradientUnits="userSpaceOnUse" id="color-17"><stop offset="0" stop-color="#362424"/><stop offset="1" stop-color="#1f1414"/></linearGradient><linearGradient x1="244.80164" y1="193.21892" x2="248.10498" y2="193.21892" gradientUnits="userSpaceOnUse" id="color-18"><stop offset="0" stop-color="#272727"/><stop offset="1" stop-color="#000000"/></linearGradient><linearGradient x1="235.19836" y1="193.00239" x2="230.36882" y2="193.00239" gradientUnits="userSpaceOnUse" id="color-19"><stop offset="0" stop-color="#6b4a4a"/><stop offset="1" stop-color="#825959"/></linearGradient><linearGradient x1="231.89502" y1="193.16831" x2="235.19836" y2="193.16831" gradientUnits="userSpaceOnUse" id="color-20"><stop offset="0" stop-color="#272727"/><stop offset="1" stop-color="#000000"/></linearGradient><linearGradient x1="235.18494" y1="189.10652" x2="244.8132" y2="189.10652" gradientUnits="userSpaceOnUse" id="color-21"><stop offset="0" stop-color="#634343"/><stop offset="1" stop-color="#211414"/></linearGradient><linearGradient x1="235.18494" y1="189.10652" x2="244.8132" y2="189.10652" gradientUnits="userSpaceOnUse" id="color-22"><stop offset="0" stop-color="#272727"/><stop offset="1" stop-color="#000000"/></linearGradient><linearGradient x1="235.81922" y1="183.63857" x2="244.11994" y2="183.63857" gradientUnits="userSpaceOnUse" id="color-23"><stop offset="0" stop-color="#b89a9a"/><stop offset="1" stop-color="#8d7070"/></linearGradient><linearGradient x1="235.81922" y1="183.63857" x2="244.11994" y2="183.63857" gradientUnits="userSpaceOnUse" id="color-24"><stop offset="0" stop-color="#260000"/><stop offset="1" stop-color="#100000"/></linearGradient><linearGradient x1="235.81922" y1="186.5742" x2="244.11994" y2="186.5742" gradientUnits="userSpaceOnUse" id="color-25"><stop offset="0" stop-color="#b89a9a"/><stop offset="1" stop-color="#8d7070"/></linearGradient><linearGradient x1="235.81922" y1="186.5742" x2="244.11994" y2="186.5742" gradientUnits="userSpaceOnUse" id="color-26"><stop offset="0" stop-color="#260000"/><stop offset="1" stop-color="#100000"/></linearGradient><linearGradient x1="240.34324" y1="189.55087" x2="244.11979" y2="189.55087" gradientUnits="userSpaceOnUse" id="color-27"><stop offset="0" stop-color="#2c4a2e"/><stop offset="1" stop-color="#1d301b"/></linearGradient><linearGradient x1="240.34324" y1="189.55087" x2="244.11979" y2="189.55087" gradientUnits="userSpaceOnUse" id="color-28"><stop offset="0" stop-color="#123614"/><stop offset="1" stop-color="#0d1a0e"/></linearGradient><linearGradient x1="240.33309" y1="189.55229" x2="244.1009" y2="189.55229" gradientUnits="userSpaceOnUse" id="color-29"><stop offset="0" stop-color="#123614"/><stop offset="1" stop-color="#0d1a0e"/></linearGradient><linearGradient x1="240.33309" y1="189.52361" x2="244.1009" y2="189.52361" gradientUnits="userSpaceOnUse" id="color-30"><stop offset="0" stop-color="#123614"/><stop offset="1" stop-color="#0d1a0e"/></linearGradient><linearGradient x1="235.82953" y1="189.57" x2="239.60607" y2="189.57" gradientUnits="userSpaceOnUse" id="color-31"><stop offset="0" stop-color="#2c4a2e"/><stop offset="1" stop-color="#1d301b"/></linearGradient><linearGradient x1="235.82953" y1="189.57" x2="239.60607" y2="189.57" gradientUnits="userSpaceOnUse" id="color-32"><stop offset="0" stop-color="#123614"/><stop offset="1" stop-color="#0d1a0e"/></linearGradient><linearGradient x1="235.81937" y1="189.57142" x2="239.58718" y2="189.57142" gradientUnits="userSpaceOnUse" id="color-33"><stop offset="0" stop-color="#123614"/><stop offset="1" stop-color="#0d1a0e"/></linearGradient><linearGradient x1="235.81937" y1="189.54273" x2="239.58718" y2="189.54273" gradientUnits="userSpaceOnUse" id="color-34"><stop offset="0" stop-color="#123614"/><stop offset="1" stop-color="#0d1a0e"/></linearGradient><linearGradient x1="240.34324" y1="194.10615" x2="244.11979" y2="194.10615" gradientUnits="userSpaceOnUse" id="color-35"><stop offset="0" stop-color="#2c4a2e"/><stop offset="1" stop-color="#1d301b"/></linearGradient><linearGradient x1="240.34324" y1="194.10615" x2="244.11979" y2="194.10615" gradientUnits="userSpaceOnUse" id="color-36"><stop offset="0" stop-color="#123614"/><stop offset="1" stop-color="#0d1a0e"/></linearGradient><linearGradient x1="240.33309" y1="194.10757" x2="244.1009" y2="194.10757" gradientUnits="userSpaceOnUse" id="color-37"><stop offset="0" stop-color="#123614"/><stop offset="1" stop-color="#0d1a0e"/></linearGradient><linearGradient x1="240.33309" y1="194.07888" x2="244.1009" y2="194.07888" gradientUnits="userSpaceOnUse" id="color-38"><stop offset="0" stop-color="#123614"/><stop offset="1" stop-color="#0d1a0e"/></linearGradient><linearGradient x1="235.82953" y1="194.12527" x2="239.60607" y2="194.12527" gradientUnits="userSpaceOnUse" id="color-39"><stop offset="0" stop-color="#2c4a2e"/><stop offset="1" stop-color="#1d301b"/></linearGradient><linearGradient x1="235.82953" y1="194.12527" x2="239.60607" y2="194.12527" gradientUnits="userSpaceOnUse" id="color-40"><stop offset="0" stop-color="#123614"/><stop offset="1" stop-color="#0d1a0e"/></linearGradient><linearGradient x1="235.81937" y1="194.1267" x2="239.58718" y2="194.1267" gradientUnits="userSpaceOnUse" id="color-41"><stop offset="0" stop-color="#123614"/><stop offset="1" stop-color="#0d1a0e"/></linearGradient><linearGradient x1="235.81937" y1="194.09801" x2="239.58718" y2="194.09801" gradientUnits="userSpaceOnUse" id="color-42"><stop offset="0" stop-color="#123614"/><stop offset="1" stop-color="#0d1a0e"/></linearGradient><linearGradient x1="235.10391" y1="168.11827" x2="244.84747" y2="168.11827" gradientUnits="userSpaceOnUse" id="color-43"><stop offset="0" stop-color="#9c5555"/><stop offset="1" stop-color="#453131"/></linearGradient><linearGradient x1="235.10391" y1="168.11521" x2="244.84747" y2="168.11521" gradientUnits="userSpaceOnUse" id="color-44"><stop offset="0" stop-color="#272727"/><stop offset="1" stop-color="#000000"/></linearGradient><linearGradient x1="237.83708" y1="163.87953" x2="241.81062" y2="163.87953" gradientUnits="userSpaceOnUse" id="color-45"><stop offset="0" stop-color="#f7d6d6"/><stop offset="1" stop-color="#805e5e"/></linearGradient><linearGradient x1="237.83708" y1="163.87915" x2="241.81062" y2="163.87915" gradientUnits="userSpaceOnUse" id="color-46"><stop offset="0" stop-color="#272727"/><stop offset="1" stop-color="#000000"/></linearGradient><linearGradient x1="237.34967" y1="165.83878" x2="242.43337" y2="165.83878" gradientUnits="userSpaceOnUse" id="color-47"><stop offset="0" stop-color="#452a2a"/><stop offset="1" stop-color="#260f0f"/></linearGradient><linearGradient x1="236.87004" y1="167.50904" x2="242.99312" y2="167.50904" gradientUnits="userSpaceOnUse" id="color-48"><stop offset="0" stop-color="#452a2a"/><stop offset="1" stop-color="#260f0f"/></linearGradient><linearGradient x1="236.42099" y1="169.14894" x2="243.44676" y2="169.14894" gradientUnits="userSpaceOnUse" id="color-49"><stop offset="0" stop-color="#452a2a"/><stop offset="1" stop-color="#260f0f"/></linearGradient><linearGradient x1="235.94266" y1="170.72811" x2="243.96655" y2="170.72811" gradientUnits="userSpaceOnUse" id="color-50"><stop offset="0" stop-color="#452a2a"/><stop offset="1" stop-color="#260f0f"/></linearGradient><linearGradient x1="239.08383" y1="161.46534" x2="240.65287" y2="161.46534" gradientUnits="userSpaceOnUse" id="color-51"><stop offset="0" stop-color="#443939"/><stop offset="1" stop-color="#251e1e"/></linearGradient><linearGradient x1="239.08383" y1="161.46534" x2="240.65287" y2="161.46534" gradientUnits="userSpaceOnUse" id="color-52"><stop offset="0" stop-color="#262626"/><stop offset="1" stop-color="#0f0f0f"/></linearGradient><linearGradient x1="239.58997" y1="158.40318" x2="240.19734" y2="158.40318" gradientUnits="userSpaceOnUse" id="color-53"><stop offset="0" stop-color="#ccbebe"/><stop offset="1" stop-color="#656161"/></linearGradient><linearGradient x1="239.58997" y1="158.40318" x2="240.19734" y2="158.40318" gradientUnits="userSpaceOnUse" id="color-54"><stop offset="0" stop-color="#262626"/><stop offset="1" stop-color="#0f0f0f"/></linearGradient><linearGradient x1="235.15545" y1="177.122" x2="244.78371" y2="177.122" gradientUnits="userSpaceOnUse" id="color-55"><stop offset="0" stop-color="#301630"/><stop offset="1" stop-color="#140e17"/></linearGradient><linearGradient x1="235.15545" y1="177.122" x2="244.78371" y2="177.122" gradientUnits="userSpaceOnUse" id="color-56"><stop offset="0" stop-color="#272727"/><stop offset="1" stop-color="#000000"/></linearGradient><linearGradient x1="235.29093" y1="177.11375" x2="235.93626" y2="177.11375" gradientUnits="userSpaceOnUse" id="color-57"><stop offset="0" stop-color="#9d9d9d"/><stop offset="1" stop-color="#4c4c4c"/></linearGradient><linearGradient x1="235.29093" y1="177.11375" x2="235.93626" y2="177.11375" gradientUnits="userSpaceOnUse" id="color-58"><stop offset="0" stop-color="#272727"/><stop offset="1" stop-color="#000000"/></linearGradient><linearGradient x1="244.02188" y1="177.11375" x2="244.66721" y2="177.11375" gradientUnits="userSpaceOnUse" id="color-59"><stop offset="0" stop-color="#9d9d9d"/><stop offset="1" stop-color="#4c4c4c"/></linearGradient><linearGradient x1="244.02188" y1="177.11375" x2="244.66721" y2="177.11375" gradientUnits="userSpaceOnUse" id="color-60"><stop offset="0" stop-color="#272727"/><stop offset="1" stop-color="#000000"/></linearGradient><radialGradient cx="239.96958" cy="177.122" r="3.99427" gradientUnits="userSpaceOnUse" id="color-61"><stop offset="0" stop-color="#654573" stop-opacity="0.40995"/><stop offset="1" stop-color="#654573" stop-opacity="0"/></radialGradient><radialGradient cx="239.96958" cy="177.10779" r="3.24277" gradientUnits="userSpaceOnUse" id="color-62"><stop offset="0" stop-color="#eb73e5" stop-opacity="0.60996"/><stop offset="1" stop-color="#eb73e5" stop-opacity="0"/></radialGradient><radialGradient cx="239.96958" cy="177.10779" r="2.74527" gradientUnits="userSpaceOnUse" id="color-63"><stop offset="0" stop-color="#ff26ff" stop-opacity="0.44355"/><stop offset="1" stop-color="#eda3ff" stop-opacity="0.14516"/></radialGradient><radialGradient cx="239.96958" cy="177.10779" r="2.25745" gradientUnits="userSpaceOnUse" id="color-64"><stop offset="0" stop-color="#f7e3ff" stop-opacity="0.25546"/><stop offset="1" stop-color="#9f07ff"/></radialGradient><linearGradient x1="235.27331" y1="178.66957" x2="244.66585" y2="178.66957" gradientUnits="userSpaceOnUse" id="color-65"><stop offset="0" stop-color="#9a66a2"/><stop offset="1" stop-color="#4d0069"/></linearGradient><linearGradient x1="235.27331" y1="178.68432" x2="244.66585" y2="178.68432" gradientUnits="userSpaceOnUse" id="color-66"><stop offset="0" stop-color="#9a66a2"/><stop offset="1" stop-color="#4d0069"/></linearGradient><linearGradient x1="235.295" y1="175.41831" x2="244.68755" y2="175.41831" gradientUnits="userSpaceOnUse" id="color-67"><stop offset="0" stop-color="#9a66a2"/><stop offset="1" stop-color="#4d0069"/></linearGradient><linearGradient x1="235.295" y1="175.43306" x2="244.68755" y2="175.43306" gradientUnits="userSpaceOnUse" id="color-68"><stop offset="0" stop-color="#9a66a2"/><stop offset="1" stop-color="#4d0069"/></linearGradient><linearGradient x1="235.18043" y1="180.75062" x2="244.67059" y2="180.75062" gradientUnits="userSpaceOnUse" id="color-69"><stop offset="0" stop-color="#b695c7"/><stop offset="1" stop-color="#312833"/></linearGradient><linearGradient x1="235.18043" y1="180.75062" x2="244.67059" y2="180.75062" gradientUnits="userSpaceOnUse" id="color-70"><stop offset="0" stop-color="#272727"/><stop offset="1" stop-color="#000000"/></linearGradient><linearGradient x1="235.22381" y1="173.51302" x2="244.71397" y2="173.51302" gradientUnits="userSpaceOnUse" id="color-71"><stop offset="0" stop-color="#b695c7"/><stop offset="1" stop-color="#312833"/></linearGradient><linearGradient x1="235.22381" y1="173.51302" x2="244.71397" y2="173.51302" gradientUnits="userSpaceOnUse" id="color-72"><stop offset="0" stop-color="#272727"/><stop offset="1" stop-color="#000000"/></linearGradient></defs><g transform="translate(-210.5,-150.14669)"><g data-paper-data="{&quot;isPaintingLayer&quot;:true}" fill-rule="nonzero" stroke-linejoin="miter" stroke-miterlimit="10" stroke-dasharray="" stroke-dashoffset="0" style="mix-blend-mode: normal"><path d="M212,208.35332v-56.70662h56v56.70662z" fill="url(#color-1)" stroke="url(#color-2)" stroke-width="3" stroke-linecap="butt"/><path d="M266.8571,180.00001c0,14.75036 -12.02433,26.70789 -26.8571,26.70789c-14.83277,0 -26.8571,-11.95753 -26.8571,-26.70789c0,-14.75036 12.02433,-26.70789 26.8571,-26.70789c14.83277,0 26.8571,11.95753 26.8571,26.70789z" fill="url(#color-3)" stroke="url(#color-4)" stroke-width="0" stroke-linecap="butt"/><g stroke-width="0.175"><path d="M242.23203,200.29064v-2.61169h0.78958v2.61169z" fill="url(#color-5)" stroke="url(#color-6)" stroke-linecap="butt"/><path d="M235.01065,204.659c0,0 3.63819,-9.81501 4.87245,-9.74356c1.41196,0.08173 4.87112,9.74356 4.87112,9.74356z" fill="url(#color-7)" stroke="url(#color-8)" stroke-linecap="butt"/><path d="M241.44245,197.11207h-3.09759" fill="none" stroke="url(#color-9)" stroke-linecap="round"/><path d="M237.3427,199.09674h4.98044" fill="none" stroke="url(#color-10)" stroke-linecap="round"/><path d="M243.18827,201.28768h-6.68626" fill="none" stroke="url(#color-11)" stroke-linecap="round"/><path d="M244.11488,203.46981h-8.50318" fill="none" stroke="url(#color-12)" stroke-linecap="round"/><path d="M243.93281,196.39603c-0.00921,1.15682 -0.03835,1.28059 -1.23016,1.26833c-1.19219,-0.01226 -1.24495,-0.16902 -1.23016,-1.26833c0.01633,-1.21371 0.01286,-1.29808 1.23016,-1.26833c1.16633,0.0285 1.24027,-0.00197 1.23016,1.26833z" fill="url(#color-13)" stroke="url(#color-14)" stroke-linecap="butt"/></g><g stroke-width="0.175" stroke-linecap="butt"><path d="M234.25017,193.83733v-9.61909c0,0 3.74282,-1.28827 5.60107,-1.28827c1.95024,0 5.83774,1.28827 5.83774,1.28827v9.61909z" fill="url(#color-15)" stroke="url(#color-16)"/><path d="M244.80164,197.01496v-9.84725c0,0 1.23921,6.61025 1.67246,8.20625c0.34278,1.26272 1.63087,3.89617 1.63087,3.89617z" fill="url(#color-17)" stroke="url(#color-18)"/><path d="M231.89502,199.21952c0,0 1.28809,-2.63345 1.63087,-3.89617c0.43326,-1.596 1.67246,-8.20625 1.67246,-8.20625v9.84725z" data-paper-data="{&quot;index&quot;:null}" fill="url(#color-19)" stroke="url(#color-20)"/><path d="M235.18494,197.00514v-15.79726h9.62826v15.79726z" fill="url(#color-21)" stroke="url(#color-22)"/><path d="M235.81922,185.56191v-3.84668h8.30073v3.84668z" fill="url(#color-23)" stroke="url(#color-24)"/><path d="M235.81922,187.13095v-1.11351h8.30073v1.11351z" fill="url(#color-25)" stroke="url(#color-26)"/></g><g stroke-width="0.175"><path d="M240.34324,191.51684v-3.93194h3.77654v3.93194z" fill="url(#color-27)" stroke="url(#color-28)" stroke-linecap="butt"/><path d="M240.33309,191.46489l3.76781,-3.82518" fill="none" stroke="url(#color-29)" stroke-linecap="round"/><path d="M240.37134,187.60145l3.72956,3.88256" fill="none" stroke="url(#color-30)" stroke-linecap="round"/><path d="M235.82953,191.53596v-3.93194h3.77654v3.93194z" fill="url(#color-31)" stroke="url(#color-32)" stroke-linecap="butt"/><path d="M235.81937,191.48401l3.76781,-3.82519" fill="none" stroke="url(#color-33)" stroke-linecap="round"/><path d="M235.85762,187.62058l3.72956,3.88256" fill="none" stroke="url(#color-34)" stroke-linecap="round"/><path d="M240.34324,196.07212v-3.93194h3.77654v3.93194z" fill="url(#color-35)" stroke="url(#color-36)" stroke-linecap="butt"/><path d="M244.1009,192.19498l-3.76781,3.82518" fill="none" stroke="url(#color-37)" stroke-linecap="round"/><path d="M240.37134,192.15673l3.72956,3.88256" fill="none" stroke="url(#color-38)" stroke-linecap="round"/><path d="M235.82953,196.09124v-3.93194h3.77654v3.93194z" fill="url(#color-39)" stroke="url(#color-40)" stroke-linecap="butt"/><path d="M235.81937,196.03929l3.76781,-3.82519" fill="none" stroke="url(#color-41)" stroke-linecap="round"/><path d="M235.85762,192.17586l3.72956,3.88256" fill="none" stroke="url(#color-42)" stroke-linecap="round"/></g><g stroke-width="0.175" stroke-linecap="butt"><path d="M235.10391,172.99025c0,0 3.28141,-12.03352 4.84342,-12.03352c1.00205,0 4.90014,12.03352 4.90014,12.03352z" fill="url(#color-43)" stroke="url(#color-44)"/><path d="M237.83708,164.49594c0,0 1.5579,-3.64729 2.04232,-3.66225c0.44039,-0.01361 1.96918,3.66225 1.96918,3.66225z" fill="url(#color-45)" stroke="url(#color-46)"/><path d="M237.17588,166.46195c0,0 0.08434,-0.19526 0.20824,-0.42764c0.1454,-0.27269 0.38625,-0.59649 1.21849,-0.71579c0.03229,-0.00463 0.63891,-0.07244 0.63891,-0.07244l1.31972,0.0029c0,0 0.45621,0.02325 0.483,0.02778c0.78762,0.13329 1.08338,0.46798 1.24895,0.74783c0.14117,0.23861 0.22707,0.43735 0.22707,0.43735z" data-paper-data="{&quot;index&quot;:null}" fill="url(#color-47)" stroke="#000000"/><path d="M236.66072,168.13222c0,0 0.10158,-0.19526 0.25082,-0.42764c0.17513,-0.27269 0.46522,-0.59649 1.46761,-0.71579c0.03889,-0.00463 0.76954,-0.07244 0.76954,-0.07244l1.58954,0.0029c0,0 0.54948,0.02325 0.58175,0.02778c0.94865,0.13329 1.30488,0.46798 1.5043,0.74783c0.17003,0.23861 0.27349,0.43735 0.27349,0.43735z" data-paper-data="{&quot;index&quot;:null}" fill="url(#color-48)" stroke="#000000"/><path d="M236.18081,169.77212c0,0 0.11656,-0.19526 0.28779,-0.42764c0.20095,-0.27269 0.5338,-0.59649 1.68398,-0.71579c0.04463,-0.00463 0.88298,-0.07244 0.88298,-0.07244l1.82388,0.0029c0,0 0.63049,0.02325 0.66752,0.02778c1.0885,0.13329 1.49726,0.46798 1.72607,0.74783c0.1951,0.23861 0.31381,0.43735 0.31381,0.43735z" data-paper-data="{&quot;index&quot;:null}" fill="url(#color-49)" stroke="#000000"/><path d="M235.66835,171.35129c0,0 0.13312,-0.19526 0.32868,-0.42764c0.2295,-0.27269 0.60964,-0.59649 1.92322,-0.71579c0.05096,-0.00463 1.00843,-0.07244 1.00843,-0.07244l2.083,0.0029c0,0 0.72006,0.02325 0.76235,0.02778c1.24314,0.13329 1.70997,0.46798 1.97129,0.74783c0.22282,0.23861 0.35839,0.43735 0.35839,0.43735z" data-paper-data="{&quot;index&quot;:null}" fill="url(#color-50)" stroke="#000000"/><path d="M240.65287,161.46534c0,0.16772 -0.35124,0.30369 -0.78452,0.30369c-0.43328,0 -0.78452,-0.13596 -0.78452,-0.30369c0,-0.16772 0.35124,-0.30369 0.78452,-0.30369c0.43328,0 0.78452,0.13596 0.78452,0.30369z" fill="url(#color-51)" stroke="url(#color-52)"/><path d="M239.58997,161.46534v-6.12432h0.60737v6.12432z" fill="url(#color-53)" stroke="url(#color-54)"/></g><g stroke-width="0.175"><path d="M235.15545,181.23215v-8.22031h9.62826v8.22031z" fill="url(#color-55)" stroke="url(#color-56)" stroke-linecap="butt"/><path d="M235.29093,180.32967v-6.43185h0.64533v6.43185z" fill="url(#color-57)" stroke="url(#color-58)" stroke-linecap="butt"/><path d="M244.02188,180.32967v-6.43185h0.64533v6.43185z" fill="url(#color-59)" stroke="url(#color-60)" stroke-linecap="butt"/><path d="M235.97531,177.122c0,-2.20597 1.7883,-3.99427 3.99427,-3.99427c2.20597,0 3.99427,1.7883 3.99427,3.99427c0,2.20597 -1.7883,3.99427 -3.99427,3.99427c-2.20597,0 -3.99427,-1.7883 -3.99427,-3.99427z" fill="url(#color-61)" stroke="none" stroke-linecap="butt"/><path d="M236.72681,177.10779c0,-1.79092 1.45184,-3.24277 3.24277,-3.24277c1.79092,0 3.24277,1.45184 3.24277,3.24277c0,1.79092 -1.45184,3.24277 -3.24277,3.24277c-1.79092,0 -3.24277,-1.45184 -3.24277,-3.24277z" fill="url(#color-62)" stroke="none" stroke-linecap="butt"/><path d="M237.22431,177.10779c0,-1.51617 1.2291,-2.74527 2.74527,-2.74527c1.51617,0 2.74527,1.2291 2.74527,2.74527c0,1.51617 -1.2291,2.74527 -2.74527,2.74527c-1.51617,0 -2.74527,-1.2291 -2.74527,-2.74527z" fill="url(#color-63)" stroke="none" stroke-linecap="butt"/><path d="M237.71213,177.10779c0,-1.24675 1.01069,-2.25745 2.25745,-2.25745c1.24675,0 2.25745,1.01069 2.25745,2.25745c0,1.24675 -1.01069,2.25745 -2.25745,2.25745c-1.24675,0 -2.25745,-1.01069 -2.25745,-2.25745z" fill="url(#color-64)" stroke="none" stroke-linecap="butt"/><path d="M235.27331,180.35851l0.5206,-3.37787l0.49891,3.37787l0.67245,-3.34837l0.67245,3.33362l1.17136,-3.33362l1.12797,3.34837l0.99782,-3.33362l1.12797,3.31887l0.75921,-3.31887l0.82429,3.34837l0.5206,-3.33362l0.49891,3.30412" fill="none" stroke="url(#color-65)" stroke-linecap="round"/><path d="M244.66585,177.01013l-0.49891,3.30412l-0.5206,-3.33362l-0.82429,3.34837l-0.75921,-3.31887l-1.12797,3.31887l-0.99782,-3.33362l-1.12797,3.34837l-1.17136,-3.33362l-0.67245,3.33362l-0.67245,-3.34837l-0.49891,3.37787l-0.5206,-3.37787" data-paper-data="{&quot;index&quot;:null}" fill="none" stroke="url(#color-66)" stroke-linecap="round"/><path d="M235.295,177.10724l0.5206,-3.37787l0.49891,3.37787l0.67245,-3.34837l0.67245,3.33362l1.17136,-3.33362l1.12797,3.34837l0.99782,-3.33362l1.12797,3.31887l0.75921,-3.31887l0.82429,3.34837l0.5206,-3.33362l0.49891,3.30412" fill="none" stroke="url(#color-67)" stroke-linecap="round"/><path d="M244.68755,173.75887l-0.49891,3.30412l-0.5206,-3.33362l-0.82429,3.34837l-0.75921,-3.31887l-1.12797,3.31887l-0.99782,-3.33362l-1.12797,3.34837l-1.17136,-3.33362l-0.67245,3.33362l-0.67245,-3.34837l-0.49891,3.37787l-0.5206,-3.37787" data-paper-data="{&quot;index&quot;:null}" fill="none" stroke="url(#color-68)" stroke-linecap="round"/><path d="M235.18043,181.11344v-0.72564h9.49016v0.72564z" fill="url(#color-69)" stroke="url(#color-70)" stroke-linecap="butt"/><path d="M235.22381,173.87585v-0.72564h9.49016v0.72564z" fill="url(#color-71)" stroke="url(#color-72)" stroke-linecap="butt"/></g><path d="M215.27327,167.03274v-12.39235h25.93332v8.69862h-15.56684v3.69373z" fill-opacity="0.53453" fill="#000000" stroke="#a60000" stroke-width="0" stroke-linecap="butt"/><text transform="translate(215.70712,161.61519) scale(0.21839,0.21839)" font-size="40" xml:space="preserve" fill="#ffffff" fill-rule="nonzero" stroke="#000000" stroke-width="0" stroke-linecap="butt" stroke-linejoin="miter" stroke-miterlimit="10" stroke-dasharray="" stroke-dashoffset="0" font-family="Serif" font-weight="normal" text-anchor="start" style="mix-blend-mode: normal"><tspan x="0" dy="0">Rocket</tspan></text><text transform="translate(215.56527,166.16682) scale(0.11601,0.11601)" font-size="40" xml:space="preserve" fill="#ffffff" fill-rule="nonzero" stroke="#000000" stroke-width="0" stroke-linecap="butt" stroke-linejoin="miter" stroke-miterlimit="10" stroke-dasharray="" stroke-dashoffset="0" font-family="Serif" font-weight="normal" text-anchor="start" style="mix-blend-mode: normal"><tspan x="0" dy="0">4-1-3</tspan></text></g></g></svg>