<svg version="1.1" xmlns="http://www.w3.org/2000/svg" xmlns:xlink="http://www.w3.org/1999/xlink" width="43.06261" height="103.4497" viewBox="0,0,43.06261,103.4497"><defs><radialGradient cx="227.68085" cy="167.42027" r="20.58604" gradientUnits="userSpaceOnUse" id="color-1"><stop offset="0" stop-color="#ff8700"/><stop offset="1" stop-color="#a77426"/></radialGradient><radialGradient cx="242.51299" cy="166.78727" r="20.58605" gradientUnits="userSpaceOnUse" id="color-2"><stop offset="0" stop-color="#ff8700"/><stop offset="1" stop-color="#a77426"/></radialGradient><radialGradient cx="252.87571" cy="167.44887" r="20.10833" gradientUnits="userSpaceOnUse" id="color-3"><stop offset="0" stop-color="#6f8281"/><stop offset="1" stop-color="#576766"/></radialGradient><linearGradient x1="239.74788" y1="156.06833" x2="239.74788" y2="162.91939" gradientUnits="userSpaceOnUse" id="color-4"><stop offset="0" stop-color="#2b2b2b"/><stop offset="1" stop-color="#3f3f3f"/></linearGradient><radialGradient cx="235.71183" cy="134.47973" r="13.11833" gradientUnits="userSpaceOnUse" id="color-5"><stop offset="0" stop-color="#7bccb1"/><stop offset="1" stop-color="#618c94"/></radialGradient><radialGradient cx="235.71183" cy="134.47973" r="13.11833" gradientUnits="userSpaceOnUse" id="color-6"><stop offset="0" stop-color="#727272"/><stop offset="1" stop-color="#333333"/></radialGradient><radialGradient cx="238.43971" cy="139.97415" r="11.56644" gradientUnits="userSpaceOnUse" id="color-7"><stop offset="0" stop-color="#ffffff" stop-opacity="0.74902"/><stop offset="1" stop-color="#abffe7" stop-opacity="0.56471"/></radialGradient><radialGradient cx="235.77188" cy="168.37063" r="17.31619" gradientUnits="userSpaceOnUse" id="color-8"><stop offset="0" stop-color="#7a908e"/><stop offset="1" stop-color="#576766"/></radialGradient><radialGradient cx="222.45753" cy="167.75612" r="19.92922" gradientUnits="userSpaceOnUse" id="color-9"><stop offset="0" stop-color="#6f8281"/><stop offset="1" stop-color="#576766"/></radialGradient></defs><g transform="translate(-217.99451,-130.8767)"><g data-paper-data="{&quot;isPaintingLayer&quot;:true}" fill-rule="nonzero" stroke-linejoin="miter" stroke-miterlimit="10" stroke-dasharray="" stroke-dashoffset="0" style="mix-blend-mode: normal"><g stroke="none" stroke-width="0" stroke-linecap="butt"><path d="M238.33234,176.42804c-0.32393,21.49106 -0.0929,21.92253 -7.52773,21.814c-7.84376,-0.1145 -7.60283,-0.76234 -7.52773,-21.814c0.07862,-22.03858 0.60596,-21.65002 7.52773,-21.814c7.33196,-0.1737 7.85978,-0.2156 7.52773,21.814z" fill="url(#color-1)"/><path d="M253.16447,175.79504c-0.32393,21.49106 -0.0929,21.92253 -7.52773,21.814c-7.84376,-0.1145 -7.60283,-0.76235 -7.52773,-21.814c0.07862,-22.03858 0.60596,-21.65001 7.52773,-21.81399c7.33196,-0.1737 7.85977,-0.21561 7.52773,21.81399z" fill="url(#color-2)"/></g><g><path d="M239.70442,191.34299c3.62872,0 10.54956,2.18267 10.54956,2.18267l3.03149,33.71008h-7.63934c0,0 -1.32697,-25.53818 -2.03751,-29.57011c-0.20138,-1.1427 -3.2979,-2.07857 -3.2979,-2.07857c0,0 -3.67312,-4.24407 -0.6063,-4.24407z" fill="#343331" stroke="#000000" stroke-width="0" stroke-linecap="butt"/><path d="M259.6926,234.32553c-0.59276,0 -2.64411,0.01365 -4.70436,-0.0669c-1.25258,-0.04897 -1.90215,-0.61779 -2.83553,-0.76063c-1.17507,-0.17982 -2.93854,0.22047 -3.78778,0.02896c-1.56485,-0.35288 -2.37463,-0.77782 -2.37463,-0.77782c0,0 -0.26911,-1.0254 -0.2856,-1.5858c-0.02221,-0.75501 0.16433,-2.53701 0.16433,-2.53701c0,0 5.93425,-0.11957 8.24914,0.08076c1.36979,0.11854 4.24057,0.6468 4.24057,0.6468c0,0 1.45976,0.6156 1.67337,1.04283c0.26162,0.52325 0.87307,1.98865 0.87307,1.98865c0,0 -0.3857,1.94015 -1.21259,1.94015z" data-paper-data="{&quot;index&quot;:null}" fill="#141415" stroke="#000000" stroke-width="0" stroke-linecap="butt"/><path d="M259.4217,231.75072c-0.24822,0 0.7024,1.60165 -2.61811,1.33311c-3.13563,-0.25358 -2.77648,-1.18823 -3.8809,-1.26883c-2.30937,-0.16854 -2.58765,0.59503 -3.58732,0.44205c-0.34815,-0.05328 -0.51271,-0.11454 -1.78459,-0.97035c-0.87472,-0.58857 -0.66566,-1.75122 -1.26542,-2.3793c-0.87609,-0.91745 -0.80847,-1.8858 -0.80847,-1.8858l-0.07637,-3.04773c0,0 0.48635,2.20681 1.32529,3.03122c0.75062,0.73761 2.3169,-0.01875 2.80058,-0.01889c0.84696,-0.00024 -0.68885,-3.26804 0.12091,-3.2498c0.43542,0.00981 3.72275,-0.23409 3.72275,-0.23409c0,0 0.12302,3.57989 0.35598,3.60005c1.36979,0.11854 4.60434,0.6468 4.60434,0.6468c0,0 1.45976,0.6156 1.67338,1.04283c0.26162,0.52325 0.63055,2.95873 0.63055,2.95873c0,0 -0.3857,0 -1.2126,0z" data-paper-data="{&quot;index&quot;:null}" fill="#252527" stroke="#000000" stroke-width="0" stroke-linecap="butt"/><path d="M254.61931,227.72079l-2.6677,1.09133" fill="none" stroke="#ffffff" stroke-width="0.5" stroke-linecap="round"/><path d="M253.89176,229.1759l2.54645,-1.45511" fill="none" stroke="#ffffff" stroke-width="0.5" stroke-linecap="round"/><path d="M256.07443,229.41842l1.45512,-1.45511" fill="none" stroke="#ffffff" stroke-width="0.5" stroke-linecap="round"/><path d="M250.73902,224.93183l2.18266,-0.24252" fill="none" stroke="#969696" stroke-width="0.5" stroke-linecap="round"/><path d="M253.16421,225.41686l-1.94015,0.36378" fill="none" stroke="#969696" stroke-width="0.5" stroke-linecap="round"/></g><g><path d="M226.12338,227.23574l3.75904,-33.71008c0,0 6.75518,-2.18267 9.822,-2.18267c3.62872,0 0.6063,4.24407 0.6063,4.24407c0,0 -3.09204,0.08829 -3.39803,1.52409c-0.93579,4.39099 -2.78619,30.12458 -2.78619,30.12458z" fill="#343331" stroke="#000000" stroke-width="0" stroke-linecap="butt"/><path d="M218.8731,232.29249c0,0 0.61145,-1.46541 0.87307,-1.98866c0.21362,-0.42723 1.67337,-1.04283 1.67337,-1.04283c0,0 2.87078,-0.52826 4.24057,-0.6468c2.3149,-0.20032 8.24914,-0.08075 8.24914,-0.08075c0,0 0.18654,1.78201 0.16433,2.53701c-0.01648,0.56041 -0.2856,1.5858 -0.2856,1.5858c0,0 -0.80978,0.42493 -2.37463,0.77781c-0.84924,0.19151 -2.6127,-0.20879 -3.78777,-0.02896c-0.93338,0.14284 -1.58295,0.71166 -2.83553,0.76063c-2.06025,0.08055 -4.1116,0.06689 -4.70436,0.06689c-0.8269,0 -1.2126,-1.94015 -1.2126,-1.94015z" data-paper-data="{&quot;index&quot;:null}" fill="#141415" stroke="#000000" stroke-width="0" stroke-linecap="butt"/><path d="M219.14399,231.65783c0,0 0.36892,-2.43548 0.63055,-2.95873c0.21362,-0.42723 1.67337,-1.04283 1.67337,-1.04283c0,0 3.23456,-0.52826 4.60434,-0.6468c0.23296,-0.02016 0.35598,-3.60004 0.35598,-3.60004c0,0 3.28733,0.24389 3.72275,0.23408c0.80976,-0.01824 -0.72604,3.24957 0.12091,3.24981c0.48368,0.00014 2.04996,0.7565 2.80058,0.01889c0.83894,-0.82441 1.32529,-3.03123 1.32529,-3.03123l-0.07637,3.04773c0,0 0.06762,0.96834 -0.80847,1.8858c-0.59976,0.62808 -0.39071,1.79073 -1.26542,2.3793c-1.27187,0.85581 -1.43643,0.91707 -1.78458,0.97035c-0.99967,0.15299 -1.27796,-0.61058 -3.58733,-0.44204c-1.10442,0.0806 -0.74527,1.01524 -3.8809,1.26883c-3.3205,0.26854 -2.36989,-1.33311 -2.61811,-1.33311c-0.8269,0 -1.21259,0 -1.21259,0z" data-paper-data="{&quot;index&quot;:null}" fill="#252527" stroke="#000000" stroke-width="0" stroke-linecap="butt"/><path d="M227.82668,228.71923l-2.66771,-1.09134" fill="none" stroke="#ffffff" stroke-width="0.5" stroke-linecap="round"/><path d="M225.88653,229.08301l-2.54644,-1.45511" fill="none" stroke="#ffffff" stroke-width="0.5" stroke-linecap="round"/><path d="M223.70387,229.32553l-1.45512,-1.45512" fill="none" stroke="#ffffff" stroke-width="0.5" stroke-linecap="round"/><path d="M229.03928,224.83894l-2.18267,-0.24252" fill="none" stroke="#969696" stroke-width="0.5" stroke-linecap="round"/><path d="M228.55424,225.68775l-1.94015,-0.36378" fill="none" stroke="#969696" stroke-width="0.5" stroke-linecap="round"/></g><g><path d="M255.21426,199.20117c0,0 0.70303,-2.9654 0.12978,-6.44698c-0.13785,-0.83723 -0.37009,-3.59086 -0.52137,-4.44976c-0.35803,-2.03278 -0.79594,-4.03809 -0.98047,-5.28881c-0.39692,-2.69009 -2.23607,-15.8442 -2.23607,-15.8442c0,0 -0.90041,-7.16188 0.12318,-7.31795c7.48681,-1.14153 6.37771,6.0613 6.37771,6.0613c0,0 0.13477,6.58784 0.87189,13.55542c0.55449,5.24135 1.71558,10.78958 1.93692,13.39783c0.26197,3.08689 0.07938,7.07947 0.07938,7.07947z" data-paper-data="{&quot;index&quot;:null}" fill="url(#color-3)" stroke="#000000" stroke-width="0" stroke-linecap="butt"/><path d="M260.14311,208.86463c-0.53612,-0.02728 -0.38992,-3.05823 -1.11,-3.90467c-0.38116,-0.44805 0.85307,4.59944 -0.54609,4.09171c-0.48035,-0.17432 -0.55801,-3.91099 -1.05132,-4.74096c-0.26407,-0.44431 -0.0415,5.22247 -0.98067,4.92881c-0.55751,-0.17432 -0.36064,-3.08864 -0.7122,-4.50163c-0.17128,-0.68838 -0.52856,-5.53672 -0.52856,-5.53672l5.78095,0.74632c0,0 0.06239,2.79326 -0.03414,5.14007c-0.08686,2.11164 -0.30171,3.80333 -0.81797,3.77707z" data-paper-data="{&quot;index&quot;:null}" fill="#323a3a" stroke="#000000" stroke-width="0" stroke-linecap="butt"/><path d="M251.91119,167.18074l5.92486,-0.64401" fill="none" stroke="#00ffb0" stroke-width="1" stroke-linecap="round"/><path d="M252.03999,168.98396l6.05366,-0.77281" fill="none" stroke="#00ffb0" stroke-width="1" stroke-linecap="round"/><path d="M258.09365,170.14316l-5.92486,0.64401" fill="none" stroke="#00ffb0" stroke-width="1" stroke-linecap="round"/></g><path d="M235.9198,162.91939v-6.85104h7.65615v6.85104z" fill="url(#color-4)" stroke="#000000" stroke-width="0" stroke-linecap="butt"/><g stroke="none" stroke-linecap="butt"><path d="M252.80945,144.26026c0,7.39154 -5.73774,13.38356 -12.8156,13.38356c-7.07786,0 -12.8156,-5.99202 -12.8156,-13.38356c0,-7.39154 5.73774,-13.38356 12.8156,-13.38356c7.07786,0 12.8156,5.99202 12.8156,13.38356z" fill="url(#color-5)" stroke-width="0"/><path d="M252.80945,144.26026c0,7.39154 -5.73774,13.38356 -12.8156,13.38356c-7.07786,0 -12.8156,-5.99202 -12.8156,-13.38356c0,-7.39154 5.73774,-13.38356 12.8156,-13.38356c7.07786,0 12.8156,5.99202 12.8156,13.38356zM252.53148,143.38061c0,-5.52285 -4.47715,-10 -10,-10c-0.69725,0 -1.37783,0.07136 -2.03484,0.20717c-0.0726,-0.00156 -0.14539,-0.00234 -0.21836,-0.00234c-5.52285,0 -10,4.47715 -10,10c0,1.53595 0.34628,2.99102 0.96503,4.2914c1.29609,3.38539 4.3794,5.8864 8.09545,6.34856c0.97319,0.31591 2.0118,0.48664 3.09029,0.48664c5.4864,0 9.94087,-4.41826 9.99942,-9.89081c0.06787,-0.47041 0.103,-0.95142 0.103,-1.44063z" fill="url(#color-6)" stroke-width="0"/><path d="M243.13713,150.33701c-0.98899,0.14802 -1.137,-0.84096 -1.137,-0.84096l-0.04548,-0.30387c-0.18667,-1.25255 -0.2693,-2.49618 -0.35208,-3.75939c0,0 -0.06538,-0.99786 0.93248,-1.06324c0.99786,-0.06538 1.06325,0.93248 1.06325,0.93248c0.07914,1.20785 0.15427,2.39677 0.33431,3.59411l0.04548,0.30387c0,0 0.14803,0.98899 -0.84096,1.13701z" fill="#191412" stroke-width="0.5"/><path d="M246.54339,144.85271c-0.3603,-1.31071 1.73333,-4.12384 1.73333,-4.12384c0,0 2.02159,2.4544 2.0489,4.09576c0.02905,1.74635 -3.34136,1.63194 -3.78223,0.02808z" fill="#191412" stroke-width="0.5"/><path d="M233.44972,144.54291c-0.26739,-1.38612 2.62073,-4.03936 2.62073,-4.03936c0,0 2.33641,2.50751 2.12366,4.18209c-0.22636,1.78169 -4.4172,1.55341 -4.74439,-0.14273z" data-paper-data="{&quot;index&quot;:null}" fill="#191412" stroke-width="0.5"/><g fill="#00ffcc" stroke-width="0.5"><path d="M239.43906,137.37969c0,-0.39455 0.31984,-0.71439 0.71439,-0.71439c0.39455,0 0.71439,0.31984 0.71439,0.71439c0,0.39455 -0.31984,0.71439 -0.71439,0.71439c-0.39455,0 -0.71439,-0.31984 -0.71439,-0.71439z"/><path d="M241.41456,134.52618c0,-0.39455 0.31984,-0.7144 0.71439,-0.7144c0.39455,0 0.71439,0.31985 0.71439,0.7144c0,0.39455 -0.31984,0.71439 -0.71439,0.71439c-0.39455,0 -0.71439,-0.31984 -0.71439,-0.71439z"/><path d="M243.39007,137.45286c0,-0.39455 0.31984,-0.71439 0.71439,-0.71439c0.39455,0 0.71439,0.31984 0.71439,0.71439c0,0.39455 -0.31984,0.71439 -0.71439,0.71439c-0.39455,0 -0.71439,-0.31984 -0.71439,-0.71439z"/></g><path d="M253.09642,143.73216c0,6.02881 -5.17847,10.91612 -11.56644,10.91612c-6.38797,0 -11.56644,-4.88731 -11.56644,-10.91612c0,-6.02881 5.17847,-10.91612 11.56644,-10.91612c6.38797,0 11.56644,4.88731 11.56644,10.91612z" fill="url(#color-7)" stroke-width="0"/></g><g stroke-width="0" stroke-linecap="butt"><path d="M229.6398,193.59143c0,0 0.16709,-5.5597 -0.35268,-10.94382c-0.35317,-3.65847 -1.40473,-6.95919 -1.56162,-9.45339c-0.29447,-4.68133 -0.2105,-13.38223 -0.2105,-13.38223c0,0 3.69178,-0.58477 5.4694,-0.21857c2.26281,0.46615 7.00656,2.78867 7.00656,2.78867c0,0 3.67689,-2.17061 5.59031,-2.58687c2.01891,-0.43921 6.22369,0.01677 6.22369,0.01677c0,0 -0.06905,9.21711 -0.22689,12.65629c-0.13965,3.04285 -0.88957,6.36811 -1.18346,10.87293c-0.3029,4.64296 -0.14784,10.42155 -0.14784,10.42155c0,0 -2.75697,-0.76932 -5.57187,-0.83754c-1.27833,-0.03098 -1.79126,1.00612 -2.99851,1.16532c-0.96496,0.12724 -2.63623,-0.61291 -3.56107,-0.64966c-0.69915,-0.02778 -2.04377,-0.5306 -2.53801,-0.53471c-0.99795,-0.0083 -1.61572,0.86529 -2.77345,1.02464c-1.34484,0.1851 -3.1641,-0.33939 -3.1641,-0.33939z" fill="url(#color-8)" stroke="#292e32"/><path d="M246.91518,166.62653c3.55914,-0.03151 3.40064,0.87953 3.40064,1.96449c0,1.08496 0.79843,2.00343 -3.40064,1.96449c-4.03819,-0.03744 -3.33404,1.01625 -3.40064,-1.96449c-0.05453,-2.44079 -0.63741,-1.92875 3.40064,-1.96449z" data-paper-data="{&quot;index&quot;:null}" fill="#c9ffe7" stroke="#000000"/></g><g><path d="M218.05642,199.62175c0,0 -0.18259,-3.99258 0.07937,-7.07947c0.22135,-2.60826 1.38243,-8.15648 1.93693,-13.39783c0.73711,-6.96758 0.87188,-13.55542 0.87188,-13.55542c0,0 -1.33065,-6.6165 6.2561,-5.74696c1.03914,0.1191 0.2448,7.20844 0.2448,7.20844c0,0 -1.83915,12.94928 -2.23607,15.63936c-0.18454,1.25072 -0.62244,3.25602 -0.98048,5.28881c-0.15127,0.85889 -0.38352,3.61253 -0.52137,4.44976c-0.57325,3.48157 0.12978,6.44698 0.12978,6.44698z" data-paper-data="{&quot;index&quot;:null}" fill="url(#color-9)" stroke="#000000" stroke-width="0" stroke-linecap="butt"/><path d="M218.09057,204.76182c-0.09653,-2.34681 -0.03414,-5.14007 -0.03414,-5.14007l5.78094,-0.74633c0,0 -0.35728,4.84834 -0.52856,5.53672c-0.35156,1.41299 -0.15468,4.32732 -0.7122,4.50163c-0.93917,0.29366 -0.7166,-5.37312 -0.98067,-4.92881c-0.49331,0.82997 -0.57097,4.56664 -1.05131,4.74096c-1.39916,0.50773 -0.16493,-4.53976 -0.54609,-4.09171c-0.72008,0.84644 -0.57388,3.8774 -1.11,3.90467c-0.51626,0.02626 -0.73111,-1.66542 -0.81797,-3.77706z" data-paper-data="{&quot;index&quot;:null}" fill="#323a3a" stroke="#000000" stroke-width="0" stroke-linecap="butt"/><path d="M220.87008,167.18074l6.18246,0.90161" fill="none" stroke="#00ffb0" stroke-width="1" stroke-linecap="round"/><path d="M220.87008,168.98396l5.92486,0.90161" fill="none" stroke="#00ffb0" stroke-width="1" stroke-linecap="round"/><path d="M220.87008,170.91597l5.79606,1.03041" fill="none" stroke="#00ffb0" stroke-width="1" stroke-linecap="round"/></g></g></g></svg>