<svg version="1.1" xmlns="http://www.w3.org/2000/svg" xmlns:xlink="http://www.w3.org/1999/xlink" width="12.90417" height="12.90417" viewBox="0,0,12.90417,12.90417"><defs><radialGradient cx="270" cy="180" r="6.45209" gradientUnits="userSpaceOnUse" id="color-1"><stop offset="0" stop-color="#6899ff"/><stop offset="1" stop-color="#6899ff" stop-opacity="0"/></radialGradient><radialGradient cx="270" cy="180" r="6.15805" gradientUnits="userSpaceOnUse" id="color-2"><stop offset="0" stop-color="#ff782e" stop-opacity="0.64516"/><stop offset="1" stop-color="#ff782e" stop-opacity="0"/></radialGradient><radialGradient cx="270" cy="180" r="5.83077" gradientUnits="userSpaceOnUse" id="color-3"><stop offset="0" stop-color="#ff6d2e"/><stop offset="1" stop-color="#ff6d2e" stop-opacity="0"/></radialGradient><radialGradient cx="271.375" cy="178.13889" r="5.22319" gradientUnits="userSpaceOnUse" id="color-4"><stop offset="0" stop-color="#ffdc7b"/><stop offset="1" stop-color="#e8b556"/></radialGradient></defs><g transform="translate(-263.54791,-173.54791)"><g data-paper-data="{&quot;isPaintingLayer&quot;:true}" fill-rule="nonzero" stroke-linecap="butt" stroke-linejoin="miter" stroke-miterlimit="10" stroke-dasharray="" stroke-dashoffset="0" style="mix-blend-mode: normal"><path d="M270,186.45208c-3.56339,0 -6.45208,-2.88871 -6.45208,-6.45208c0,-3.56339 2.88871,-6.45208 6.45208,-6.45208c3.56339,0 6.45209,2.88871 6.45209,6.45208c0,3.56339 -2.88871,6.45208 -6.45209,6.45208z" data-paper-data="{&quot;index&quot;:null}" fill="url(#color-1)" stroke="none" stroke-width="0.5"/><path d="M270,186.15804c-3.401,0 -6.15804,-2.75706 -6.15804,-6.15804c0,-3.40099 2.75706,-6.15804 6.15804,-6.15804c3.401,0 6.15805,2.75706 6.15805,6.15804c0,3.40099 -2.75707,6.15804 -6.15805,6.15804z" data-paper-data="{&quot;index&quot;:null}" fill="url(#color-2)" stroke="none" stroke-width="0.5"/><path d="M270,185.83077c-3.22025,0 -5.83077,-2.61053 -5.83077,-5.83077c0,-3.22025 2.61053,-5.83077 5.83077,-5.83077c3.22025,0 5.83077,2.61053 5.83077,5.83077c0,3.22025 -2.61053,5.83077 -5.83077,5.83077z" data-paper-data="{&quot;index&quot;:null}" fill="url(#color-3)" stroke="none" stroke-width="0.5"/><path d="M270,185.22319c-2.88469,0 -5.22319,-2.33851 -5.22319,-5.22319c0,-2.88469 2.33851,-5.22319 5.22319,-5.22319c2.88469,0 5.22319,2.33851 5.22319,5.22319c0,2.88469 -2.33851,5.22319 -5.22319,5.22319z" data-paper-data="{&quot;index&quot;:null}" fill="url(#color-4)" stroke-opacity="0.60392" stroke="#946216" stroke-width="0.25"/></g></g></svg>