<svg version="1.1" xmlns="http://www.w3.org/2000/svg" xmlns:xlink="http://www.w3.org/1999/xlink" width="111.69885" height="118.91739" viewBox="0,0,111.69885,118.91739"><defs><linearGradient x1="271.339" y1="195.33867" x2="283.26988" y2="196.18415" gradientUnits="userSpaceOnUse" id="color-1"><stop offset="0" stop-color="#242424"/><stop offset="1" stop-color="#373737"/></linearGradient><radialGradient cx="270.25723" cy="191.98288" r="3.52256" gradientUnits="userSpaceOnUse" id="color-2"><stop offset="0" stop-color="#bfbfbf"/><stop offset="1" stop-color="#9a9a9a"/></radialGradient><linearGradient x1="283.78486" y1="197.79499" x2="326.97023" y2="211.91965" gradientUnits="userSpaceOnUse" id="color-3"><stop offset="0" stop-color="#b2b2b2"/><stop offset="1" stop-color="#c4c4c4"/></linearGradient><linearGradient x1="283.95787" y1="198.22969" x2="312.22342" y2="207.47457" gradientUnits="userSpaceOnUse" id="color-4"><stop offset="0" stop-color="#cccccc"/><stop offset="1" stop-color="#d8d8d8"/></linearGradient><linearGradient x1="281.51306" y1="196.62963" x2="283.81869" y2="197.42909" gradientUnits="userSpaceOnUse" id="color-5"><stop offset="0" stop-color="#b5b5b5"/><stop offset="1" stop-color="#c5c5c5"/></linearGradient><linearGradient x1="241.64187" y1="149.42847" x2="241.4115" y2="156.27568" gradientUnits="userSpaceOnUse" id="color-6"><stop offset="0" stop-color="#736b4f"/><stop offset="1" stop-color="#bec286"/></linearGradient><linearGradient x1="238.29585" y1="199.23411" x2="250.20768" y2="198.15255" gradientUnits="userSpaceOnUse" id="color-7"><stop offset="0" stop-color="#242424"/><stop offset="1" stop-color="#373737"/></linearGradient><radialGradient cx="236.68919" cy="196.0956" r="3.52256" gradientUnits="userSpaceOnUse" id="color-8"><stop offset="0" stop-color="#bfbfbf"/><stop offset="1" stop-color="#9a9a9a"/></radialGradient><linearGradient x1="250.97466" y1="199.65977" x2="295.86787" y2="206.66562" gradientUnits="userSpaceOnUse" id="color-9"><stop offset="0" stop-color="#b2b2b2"/><stop offset="1" stop-color="#c4c4c4"/></linearGradient><linearGradient x1="251.21525" y1="200.06104" x2="280.59859" y2="204.64653" gradientUnits="userSpaceOnUse" id="color-10"><stop offset="0" stop-color="#cccccc"/><stop offset="1" stop-color="#d8d8d8"/></linearGradient><linearGradient x1="248.54519" y1="198.87434" x2="250.94927" y2="199.29318" gradientUnits="userSpaceOnUse" id="color-11"><stop offset="0" stop-color="#b5b5b5"/><stop offset="1" stop-color="#c5c5c5"/></linearGradient><radialGradient cx="238.1891" cy="124.36078" r="13.11833" gradientUnits="userSpaceOnUse" id="color-12"><stop offset="0" stop-color="#ccbe7a"/><stop offset="1" stop-color="#948f62"/></radialGradient></defs><g transform="translate(-222.51666,-115.40904)"><g data-paper-data="{&quot;isPaintingLayer&quot;:true}" fill-rule="nonzero" stroke-linejoin="miter" stroke-miterlimit="10" stroke-dasharray="" stroke-dashoffset="0" style="mix-blend-mode: normal"><g stroke="#000000" stroke-width="0" stroke-linecap="butt"><path d="M278.80247,196.13126c-0.47016,0.20815 -2.26058,-3.2444 -3.6801,-3.09255c-0.48735,0.05213 1.62591,4.88456 0.69388,5.02876c-0.55327,0.0856 -1.67019,-2.61253 -2.5937,-3.72676c-0.44993,-0.54282 -2.89323,-4.7344 -2.89323,-4.7344c0,0 -0.70693,-2.96353 -2.73208,-5.8361c-0.48699,-0.69077 -1.89974,-3.05867 -2.40775,-3.76307c-1.20235,-1.66709 -2.46084,-3.27488 -3.17007,-4.31609c-1.52545,-2.2395 -8.1072,-13.40621 -8.1072,-13.40621l4.21055,-3.77525c0,0 3.02023,5.8476 6.72265,11.77434c2.78512,4.45836 6.22394,8.92866 7.56325,11.17095c1.5851,2.65377 3.18969,6.31241 3.18969,6.31241c0,0 1.28505,2.47713 2.23746,4.62295c0.85695,1.93081 1.41934,3.54064 0.96658,3.74109z" data-paper-data="{&quot;index&quot;:null}" fill="#8b8560"/><path d="M250.11653,156.12859c4.6545,-3.72441 6.91979,-0.92689 8.00214,0.72181c1.08235,1.64871 2.40886,0.32974 -1.87163,3.72377c-3.61798,2.86871 -3.2644,2.21381 -4.34675,0.56507c-1.08235,-1.64871 -4.20774,-3.07103 -1.78375,-5.01066z" data-paper-data="{&quot;index&quot;:null}" fill="#42352d"/></g><g stroke="none" stroke-width="0" stroke-linecap="butt"><path d="M271.26135,196.43438l1.5625,-4.78349l10.52366,3.43752l-1.56252,4.7835z" fill="url(#color-1)"/><path d="M274.41713,193.79115c-0.13752,1.94057 -1.82215,3.40226 -3.76273,3.26474c-1.94058,-0.13752 -3.40228,-1.82215 -3.26475,-3.76276c0.1375,-1.94057 1.82215,-3.40228 3.76273,-3.26474c1.94058,0.13752 3.40228,1.82215 3.26475,3.76276z" fill="url(#color-2)"/><path d="M282.33902,202.21553l2.89166,-8.84108l42.28629,15.82864l6.69853,4.67881l-8.07281,0.00525z" fill="url(#color-3)"/><path d="M283.01155,201.12304l1.93013,-6.14244l35.27966,13.31991l9.29046,4.29894l-9.75916,-1.90725z" fill="url(#color-4)"/><path d="M289.77078,186.94725c0,0 -4.32585,6.73711 -5.66854,10.45006c-1.47423,4.07666 -2.81914,13.02075 -2.81914,13.02075c0,0 -0.87645,-9.97201 0.55339,-13.92588c1.39871,-3.86784 7.93431,-9.54495 7.93431,-9.54495z" fill="url(#color-5)"/></g><g><path d="M225.92438,227.14044l4.20132,-33.65782c0,0 6.78326,-2.09379 9.84981,-2.05352c3.6284,0.04764 0.55053,4.25166 0.55053,4.25166c0,0 -3.09293,0.04769 -3.41775,1.47935c-0.99336,4.37832 -3.18147,30.0854 -3.18147,30.0854z" fill="#a69b98" stroke="#000000" stroke-width="0" stroke-linecap="butt"/><path d="M241.20948,232.25041c0,0 -0.41114,1.93492 -1.23797,1.92406c-0.5927,-0.00778 -2.64406,-0.02105 -4.70308,-0.12865c-1.25183,-0.06541 -1.89387,-0.64271 -2.8253,-0.7978c-1.17261,-0.19524 -2.94117,0.18187 -3.78783,-0.02078c-1.56008,-0.3734 -2.36421,-0.80893 -2.36421,-0.80893c0,0 -0.25563,-1.02883 -0.26475,-1.58941c-0.01229,-0.75523 0.19763,-2.53463 0.19763,-2.53463c0,0 5.9353,-0.04164 8.24737,0.18905c1.36812,0.13652 4.23171,0.70242 4.23171,0.70242c0,0 1.45154,0.63472 1.65954,1.06472c0.25472,0.52664 0.84688,1.99995 0.84688,1.99995z" data-paper-data="{&quot;index&quot;:null}" fill="#141415" stroke="#000000" stroke-width="0" stroke-linecap="butt"/><path d="M240.94693,231.61226c0,0 -0.38566,-0.00506 -1.21248,-0.01592c-0.2482,-0.00326 0.6813,1.61073 -2.63539,1.29862c-3.13203,-0.29474 -2.76064,-1.22458 -3.8639,-1.31967c-2.30696,-0.19884 -2.59525,0.56101 -3.59282,0.39491c-0.34742,-0.05784 -0.51116,-0.12127 -1.77168,-0.9937c-0.86691,-0.60001 -0.6426,-1.75981 -1.23407,-2.39571c-0.86397,-0.92889 -0.78364,-1.89625 -0.78364,-1.89625l-0.03635,-3.04847c0,0 0.45734,2.21301 1.28538,3.04836c0.74087,0.7474 2.31695,0.01167 2.80058,0.01789c0.84688,0.01088 -0.64588,-3.27682 0.16356,-3.24794c0.43525,0.01552 3.7255,-0.18518 3.7255,-0.18518c0,0 0.07601,3.58119 0.30869,3.6044c1.36811,0.13652 4.59545,0.7072 4.59545,0.7072c0,0 1.45154,0.63472 1.65954,1.06472c0.25473,0.52664 0.59165,2.96675 0.59165,2.96675z" data-paper-data="{&quot;index&quot;:null}" fill="#252527" stroke="#000000" stroke-width="0" stroke-linecap="butt"/><path d="M234.98538,227.50372l-2.6818,1.05622" data-paper-data="{&quot;index&quot;:null}" fill="none" stroke="#ffffff" stroke-width="0.5" stroke-linecap="round"/><path d="M234.23878,228.94916l2.56532,-1.42155" data-paper-data="{&quot;index&quot;:null}" fill="none" stroke="#ffffff" stroke-width="0.5" stroke-linecap="round"/><path d="M237.89217,227.7844l-1.4741,1.43589" data-paper-data="{&quot;index&quot;:null}" fill="none" stroke="#ffffff" stroke-width="0.5" stroke-linecap="round"/><path d="M231.14203,224.66408l2.18566,-0.21384" data-paper-data="{&quot;index&quot;:null}" fill="none" stroke="#969696" stroke-width="0.5" stroke-linecap="round"/><path d="M233.56063,225.18091l-1.94476,0.33827" data-paper-data="{&quot;index&quot;:null}" fill="none" stroke="#969696" stroke-width="0.5" stroke-linecap="round"/></g><g><path d="M239.70444,191.34303c3.62872,0 10.54956,2.18267 10.54956,2.18267l3.03149,33.71008h-7.63934c0,0 -1.32697,-25.53818 -2.03751,-29.57011c-0.20138,-1.1427 -3.2979,-2.07857 -3.2979,-2.07857c0,0 -3.67312,-4.24407 -0.6063,-4.24407z" fill="#a69b98" stroke="#000000" stroke-width="0" stroke-linecap="butt"/><path d="M259.69262,234.32556c-0.59276,0 -2.64411,0.01365 -4.70436,-0.0669c-1.25258,-0.04897 -1.90215,-0.61779 -2.83553,-0.76063c-1.17507,-0.17982 -2.93854,0.22047 -3.78778,0.02896c-1.56485,-0.35288 -2.37463,-0.77782 -2.37463,-0.77782c0,0 -0.26911,-1.0254 -0.2856,-1.5858c-0.02221,-0.75501 0.16433,-2.53701 0.16433,-2.53701c0,0 5.93425,-0.11957 8.24914,0.08076c1.36979,0.11854 4.24057,0.6468 4.24057,0.6468c0,0 1.45976,0.6156 1.67337,1.04283c0.26162,0.52325 0.87307,1.98865 0.87307,1.98865c0,0 -0.3857,1.94015 -1.21259,1.94015z" data-paper-data="{&quot;index&quot;:null}" fill="#141415" stroke="#000000" stroke-width="0" stroke-linecap="butt"/><path d="M259.4217,231.7508c-0.24822,0 0.7024,1.60165 -2.61811,1.33311c-3.13563,-0.25358 -2.77648,-1.18823 -3.8809,-1.26883c-2.30937,-0.16854 -2.58765,0.59503 -3.58732,0.44205c-0.34815,-0.05328 -0.51271,-0.11454 -1.78459,-0.97035c-0.87472,-0.58857 -0.66566,-1.75122 -1.26542,-2.3793c-0.87609,-0.91745 -0.80847,-1.8858 -0.80847,-1.8858l-0.07637,-3.04773c0,0 0.48635,2.20681 1.32529,3.03122c0.75062,0.73761 2.3169,-0.01875 2.80058,-0.01889c0.84696,-0.00024 -0.68885,-3.26804 0.12091,-3.2498c0.43542,0.00981 3.72275,-0.23409 3.72275,-0.23409c0,0 0.12302,3.57989 0.35598,3.60005c1.36979,0.11854 4.60434,0.6468 4.60434,0.6468c0,0 1.45976,0.6156 1.67338,1.04283c0.26162,0.52325 0.63055,2.95873 0.63055,2.95873c0,0 -0.3857,0 -1.2126,0z" data-paper-data="{&quot;index&quot;:null}" fill="#252527" stroke="#000000" stroke-width="0" stroke-linecap="butt"/><path d="M251.95163,228.81215l2.6677,-1.09133" fill="none" stroke="#ffffff" stroke-width="0.5" stroke-linecap="round"/><path d="M256.43823,227.72082l-2.54645,1.45511" fill="none" stroke="#ffffff" stroke-width="0.5" stroke-linecap="round"/><path d="M257.52957,227.96337l-1.45512,1.45511" fill="none" stroke="#ffffff" stroke-width="0.5" stroke-linecap="round"/><path d="M250.73904,224.93186l2.18266,-0.24252" fill="none" stroke="#969696" stroke-width="0.5" stroke-linecap="round"/><path d="M253.16423,225.41693l-1.94015,0.36378" fill="none" stroke="#969696" stroke-width="0.5" stroke-linecap="round"/></g><path d="M237.55873,156.94523l0.2572,-7.64545l7.65183,0.25741l-0.37892,7.86969z" fill="url(#color-6)" stroke="#000000" stroke-width="0" stroke-linecap="butt"/><g stroke="#000000" stroke-width="0" stroke-linecap="butt"><path d="M275.28739,199.88609c-0.44837,0.16089 -2.04779,-2.94484 -2.75176,-3.48317c-0.37685,-0.28819 1.02381,4.50855 0.14933,4.5807c-0.51911,0.04283 -1.41315,-2.50992 -2.21223,-3.5941c-0.38931,-0.52819 -2.43676,-4.53981 -2.43676,-4.53981c0,0 -0.49854,-2.77016 -2.22782,-5.54214c-0.41584,-0.66658 -1.6027,-2.93494 -2.03739,-3.61541c-1.02876,-1.61045 -2.11294,-3.17005 -2.71665,-4.17321c-1.29854,-2.15762 -6.82066,-12.84965 -6.82066,-12.84965l4.11799,-3.19762c0,0 2.4952,5.57142 5.62059,11.25972c2.35106,4.27906 5.30934,8.61143 6.43463,10.75954c1.3318,2.54231 2.62791,6.00966 2.62791,6.00966c0,0 1.0623,2.36049 1.83293,4.39484c0.69342,1.83051 0.85171,3.8357 0.41996,3.99063z" data-paper-data="{&quot;index&quot;:null}" fill="#979068"/><path d="M251.03359,160.76391c4.52809,-3.12212 6.48477,-0.40357 7.40293,1.18224c0.91814,1.5858 2.22244,0.45926 -1.94014,3.3019c-3.51834,2.4027 -3.15441,1.82354 -4.07257,0.23773c-0.91814,-1.5858 -3.74838,-3.09589 -1.39022,-4.72187z" data-paper-data="{&quot;index&quot;:null}" fill="#4a3c33"/></g><path d="M230.05418,193.23975c0,0 1.2206,-4.93007 0.88216,-10.32863c-0.10538,-1.6809 -0.02163,-5.69289 -0.46269,-7.56176c-0.52148,-2.20965 -2.43922,-2.86145 -2.47876,-4.21484c-0.07806,-2.67335 -0.84098,-6.82583 -0.03389,-11.37881c0.60841,-3.43215 3.66833,-6.17862 3.66833,-6.17862c0,0 3.99493,-0.15485 5.75923,0.27091c2.24585,0.54198 4.55461,2.6476 4.55461,2.6476c0,0 3.1518,-1.91788 5.07812,-2.26957c2.03253,-0.37109 5.4808,0.20116 5.4808,0.20116c0,0 2.50122,3.60804 2.58263,7.93227c0.07681,4.08129 -0.91697,8.44178 -1.04973,10.10814c-0.13455,1.68898 -1.5659,2.07983 -2.2748,4.20071c-0.56553,1.692 -0.72125,5.1691 -0.9188,7.16265c-0.45883,4.63016 -0.19768,10.27288 -0.19768,10.27288c0,0 -2.72955,-0.86158 -5.54056,-1.0244c-1.27657,-0.07394 -1.82407,0.94532 -3.036,1.06385c-0.96868,0.09472 -2.61413,-0.70121 -3.5372,-0.76903c-0.69782,-0.05127 -2.02478,-0.59901 -2.5186,-0.61974c-0.9971,-0.04184 -1.64389,0.81047 -2.80634,0.93081c-1.35031,0.13979 -3.1509,-0.44557 -3.1509,-0.44557z" fill="#4f4037" stroke="#292e32" stroke-width="0" stroke-linecap="butt"/><g stroke="#000000" stroke-width="0" stroke-linecap="butt"><path d="M239.50863,197.66585c-1.07881,-2.08638 -2.20219,-4.64456 -2.20219,-4.64456c0,0 -1.85203,-3.54177 -2.91854,-6.45038c-0.90111,-2.45764 -2.19239,-7.97701 -3.9038,-12.96202c-2.27509,-6.6268 -4.93575,-12.65497 -4.93575,-12.65497l5.76712,-1.07528c0,0 4.5456,12.16805 5.32219,14.77399c0.36105,1.2116 0.81121,3.2142 1.34537,5.20796c0.22569,0.8424 1.17837,3.43642 1.40707,4.2535c0.95107,3.39784 2.84093,5.78874 2.84093,5.78874c0,0 1.72419,4.54546 1.85972,5.24177c0.27821,1.42923 1.68773,3.98763 1.25601,4.38114c-0.72721,0.66288 -3.87299,-4.79886 -3.92465,-4.28459c-0.09655,0.96067 0.89784,5.25149 0.42343,5.50267c-0.45685,0.2419 -1.36617,-1.2007 -2.33688,-3.07802z" data-paper-data="{&quot;index&quot;:null}" fill="#a0986e"/><path d="M231.80015,157.81128c0.59843,1.88572 1.35118,2.00304 -3.30617,3.15753c-5.51024,1.36589 -3.59035,1.10677 -4.18881,-0.77894c-0.59843,-1.88572 -1.33205,-5.43108 4.68649,-6.89556c3.13435,-0.76267 2.21002,2.63124 2.80846,4.51695z" fill="#615046"/></g><g stroke="none" stroke-width="0" stroke-linecap="butt"><path d="M238.39518,200.32806l0.77401,-4.97234l10.9391,1.70283l-0.77405,4.97234z" fill="url(#color-7)"/><path d="M241.08551,197.21232c0.17591,1.93747 -1.25209,3.65074 -3.18961,3.82666c-1.93749,0.17593 -3.65076,-1.2521 -3.82666,-3.1896c-0.17592,-1.93748 1.2521,-3.65076 3.18961,-3.82666c1.93749,-0.17593 3.65076,1.2521 3.82666,3.1896z" fill="url(#color-8)"/><path d="M250.2575,204.2551l1.43426,-9.19073l44.27946,8.8321l7.36301,3.54231l-7.9672,1.30165z" fill="url(#color-9)"/><path d="M250.74587,203.06881l0.91862,-6.37269l36.96086,7.48122l9.86026,2.75107l-9.93879,-0.31523z" fill="url(#color-10)"/><path d="M255.14076,187.99152c0,0 -3.18775,7.34437 -3.9167,11.22475c-0.8004,4.26051 -0.69146,13.30449 -0.69146,13.30449c0,0 -2.46655,-9.70181 -1.69025,-13.83398c0.75939,-4.04228 6.29843,-10.69529 6.29843,-10.69529z" fill="url(#color-11)"/></g><g stroke="#000000" stroke-width="0" stroke-linecap="butt"><path d="M238.06505,201.96471c-1.07358,-2.08908 -2.19049,-4.65007 -2.19049,-4.65007c0,0 -1.84313,-3.5464 -2.90231,-6.45769c-0.89494,-2.45988 -2.1723,-7.98252 -3.8712,-12.97179c-2.25843,-6.63249 -4.90391,-12.66734 -4.90391,-12.66734l5.76981,-1.06078c0,0 4.515,12.17945 5.28502,14.78735c0.35802,1.21251 0.80314,3.21621 1.33224,5.21132c0.22358,0.84295 1.16973,3.43935 1.39638,4.25703c0.94253,3.40022 2.82639,5.79584 2.82639,5.79584c0,0 2.66698,9.52372 2.30433,9.88373c-1.05636,1.04857 -2.97394,-5.00167 -3.1316,-4.43496c-0.29783,1.07066 0.88954,5.14123 0.4145,5.39123c-0.45747,0.24072 -1.36316,-1.20415 -2.32917,-3.08388z" data-paper-data="{&quot;index&quot;:null}" fill="#ada477"/><path d="M230.40267,161.97397c0.59369,1.88722 1.34615,2.00645 -3.3141,3.14922c-5.51364,1.35202 -3.59313,1.09774 -4.18684,-0.78948c-0.59369,-1.88722 -1.31837,-5.43443 4.70382,-6.88376c3.13627,-0.75477 2.20342,2.63678 2.79711,4.524z" fill="#615046"/></g><g><path d="M254.17558,118.21452c0,0 -0.37232,3.23376 -0.74202,4.55046c-0.3028,1.07837 -1.31586,2.77843 -1.31586,2.77843" data-paper-data="{&quot;index&quot;:null}" fill="none" stroke="#3b2c16" stroke-width="1.25" stroke-linecap="round"/><path d="M255.43989,122.39766c0,0 -0.26559,2.27085 -0.69718,3.21377c-0.45648,0.99727 -1.97123,2.61595 -1.97123,2.61595" data-paper-data="{&quot;index&quot;:null}" fill="none" stroke="#3b2c16" stroke-width="1.25" stroke-linecap="round"/><path d="M251.98295,116.37575c0,0 0.00653,3.27311 -0.18816,4.68937c-0.15947,1.15993 -0.89561,3.19378 -0.89561,3.19378" data-paper-data="{&quot;index&quot;:null}" fill="none" stroke="#3b2c16" stroke-width="1.25" stroke-linecap="round"/><path d="M254.9482,134.71065c-0.24852,7.38736 -8.76309,17.02953 -11.97659,16.98333c-6.69199,-0.09626 -13.88866,-10.45774 -13.64012,-17.84511c0.24852,-7.38736 6.18448,-13.18309 13.25833,-12.94508c7.07386,0.23797 12.60687,6.41953 12.35836,13.80689z" fill="url(#color-12)" stroke="none" stroke-width="0" stroke-linecap="butt"/><path d="M244.01455,135.42663c-0.06936,2.06175 -0.97673,3.70451 -2.02667,3.66917c-1.04993,-0.03531 -1.84484,-1.73535 -1.77548,-3.79709c0.06936,-2.06175 0.97672,-3.7045 2.02666,-3.66916c1.04993,0.03531 1.84485,1.73534 1.77549,3.79708z" fill="none" stroke="#191412" stroke-width="1.5" stroke-linecap="butt"/><path d="M248.93291,130.02725c-0.06936,2.06175 -0.97673,3.70451 -2.02666,3.66917c-1.04993,-0.03531 -1.84485,-1.73535 -1.77549,-3.79709c0.06936,-2.06175 0.97673,-3.70451 2.02667,-3.66917c1.04993,0.03531 1.84484,1.73534 1.77548,3.79709z" fill="none" stroke="#191412" stroke-width="1.5" stroke-linecap="butt"/><path d="M253.44107,135.69725c-0.06936,2.06175 -0.97672,3.70451 -2.02666,3.66917c-1.04993,-0.03531 -1.84485,-1.73535 -1.77549,-3.79709c0.06936,-2.06175 0.97672,-3.7045 2.02667,-3.66916c1.04993,0.03531 1.84484,1.73534 1.77548,3.79708z" fill="none" stroke="#191412" stroke-width="1.5" stroke-linecap="butt"/><path d="M248.51785,140.6633c-0.06936,2.06175 -0.97673,3.70451 -2.02666,3.66917c-1.04993,-0.03531 -1.84485,-1.73535 -1.77549,-3.79709c0.06936,-2.06175 0.97672,-3.7045 2.02667,-3.66916c1.04993,0.03531 1.84484,1.73534 1.77548,3.79708z" fill="none" stroke="#191412" stroke-width="1.5" stroke-linecap="butt"/><path d="M234.97393,125.28827c0,0 -1.49727,-1.78358 -1.89494,-2.88527c-0.48557,-1.34515 -0.80779,-4.60202 -0.80779,-4.60202" fill="none" stroke="#47341a" stroke-width="1.5" stroke-linecap="round"/><path d="M233.6771,127.90737c0,0 -2.31946,-1.74624 -2.97391,-2.78048c-0.61878,-0.97786 -0.85173,-3.26531 -0.85173,-3.26531" fill="none" stroke="#47341a" stroke-width="1.5" stroke-linecap="round"/><path d="M237.06588,124.1139c0,0 -1.01821,-2.09222 -1.17591,-3.2627c-0.19253,-1.42915 0.10419,-4.69216 0.10419,-4.69216" fill="none" stroke="#47341a" stroke-width="1.5" stroke-linecap="round"/></g></g></g></svg>