<svg version="1.1" xmlns="http://www.w3.org/2000/svg" xmlns:xlink="http://www.w3.org/1999/xlink" width="84.5" height="38.32609" viewBox="0,0,84.5,38.32609"><defs><linearGradient x1="240" y1="161.58694" x2="240" y2="198.41307" gradientUnits="userSpaceOnUse" id="color-1"><stop offset="0" stop-color="#4b8455"/><stop offset="1" stop-color="#72b235"/></linearGradient><linearGradient x1="240" y1="161.58694" x2="240" y2="198.41307" gradientUnits="userSpaceOnUse" id="color-2"><stop offset="0" stop-color="#246037"/><stop offset="1" stop-color="#a0ff67"/></linearGradient><linearGradient x1="267.93478" y1="195.46008" x2="267.93478" y2="196.23609" gradientUnits="userSpaceOnUse" id="color-3"><stop offset="0" stop-color="#6a736a"/><stop offset="1" stop-color="#4d524c"/></linearGradient><linearGradient x1="267.93478" y1="195.46008" x2="267.93478" y2="196.23609" gradientUnits="userSpaceOnUse" id="color-4"><stop offset="0" stop-color="#131313"/><stop offset="1" stop-color="#080808"/></linearGradient><linearGradient x1="263.37464" y1="179.51868" x2="265.15407" y2="179.51868" gradientUnits="userSpaceOnUse" id="color-5"><stop offset="0" stop-color="#272727"/><stop offset="1" stop-color="#101010"/></linearGradient><linearGradient x1="267.05656" y1="179.48473" x2="265.27713" y2="179.48473" gradientUnits="userSpaceOnUse" id="color-6"><stop offset="0" stop-color="#101010"/><stop offset="1" stop-color="#272727"/></linearGradient><linearGradient x1="265.07973" y1="179.60954" x2="265.34876" y2="179.60954" gradientUnits="userSpaceOnUse" id="color-7"><stop offset="0" stop-color="#272727"/><stop offset="1" stop-color="#101010"/></linearGradient><linearGradient x1="257.24198" y1="189.41382" x2="273.24935" y2="189.41382" gradientUnits="userSpaceOnUse" id="color-8"><stop offset="0" stop-color="#494949"/><stop offset="1" stop-color="#343434"/></linearGradient><linearGradient x1="257.24198" y1="193.47171" x2="273.24935" y2="193.47171" gradientUnits="userSpaceOnUse" id="color-9"><stop offset="0" stop-color="#abff96"/><stop offset="1" stop-color="#4cc500"/></linearGradient><linearGradient x1="257.24198" y1="178.944" x2="273.24935" y2="178.944" gradientUnits="userSpaceOnUse" id="color-10"><stop offset="0" stop-color="#828282"/><stop offset="1" stop-color="#464646"/></linearGradient><radialGradient cx="264.41615" cy="191.02427" r="3.1387" gradientUnits="userSpaceOnUse" id="color-11"><stop offset="0" stop-color="#afbfc9"/><stop offset="1" stop-color="#5e8097"/></radialGradient><radialGradient cx="264.00363" cy="189.22873" r="3.13871" gradientUnits="userSpaceOnUse" id="color-12"><stop offset="0" stop-color="#515e74"/><stop offset="1" stop-color="#36434d"/></radialGradient><linearGradient x1="257.24198" y1="185.2214" x2="273.24935" y2="185.2214" gradientUnits="userSpaceOnUse" id="color-13"><stop offset="0" stop-color="#abff96"/><stop offset="1" stop-color="#4cc500"/></linearGradient><radialGradient cx="260.30637" cy="185.19525" r="3.1387" gradientUnits="userSpaceOnUse" id="color-14"><stop offset="0" stop-color="#bdf5ff"/><stop offset="1" stop-color="#0099ff"/></radialGradient><radialGradient cx="267.48055" cy="185.19525" r="3.1387" gradientUnits="userSpaceOnUse" id="color-15"><stop offset="0" stop-color="#bdf5ff"/><stop offset="1" stop-color="#0099ff"/></radialGradient><radialGradient cx="266.39503" cy="192.35248" r="0.33628" gradientUnits="userSpaceOnUse" id="color-16"><stop offset="0" stop-color="#57657c"/><stop offset="1" stop-color="#36434d"/></radialGradient><linearGradient x1="265.29092" y1="164.48969" x2="265.29092" y2="171.0256" gradientUnits="userSpaceOnUse" id="color-17"><stop offset="0" stop-color="#00ff18" stop-opacity="0"/><stop offset="1" stop-color="#00ff18" stop-opacity="0.35996"/></linearGradient><radialGradient cx="262.82613" cy="171.84259" r="8.10703" gradientUnits="userSpaceOnUse" id="color-18"><stop offset="0" stop-color="#87859e"/><stop offset="1" stop-color="#595761"/></radialGradient><linearGradient x1="257.10722" y1="173.60226" x2="273.25843" y2="173.60226" gradientUnits="userSpaceOnUse" id="color-19"><stop offset="0" stop-color="#272727"/><stop offset="1" stop-color="#101010"/></linearGradient><linearGradient x1="263.37464" y1="173.53462" x2="265.15408" y2="173.53462" gradientUnits="userSpaceOnUse" id="color-20"><stop offset="0" stop-color="#272727"/><stop offset="1" stop-color="#101010"/></linearGradient><linearGradient x1="267.05656" y1="173.42526" x2="265.27713" y2="173.42526" gradientUnits="userSpaceOnUse" id="color-21"><stop offset="0" stop-color="#101010"/><stop offset="1" stop-color="#272727"/></linearGradient><linearGradient x1="265.07973" y1="173.82719" x2="265.34876" y2="173.82719" gradientUnits="userSpaceOnUse" id="color-22"><stop offset="0" stop-color="#272727"/><stop offset="1" stop-color="#101010"/></linearGradient><radialGradient cx="260.7402" cy="173.72978" r="8.63438" gradientUnits="userSpaceOnUse" id="color-23"><stop offset="0" stop-color="#a9a7c7"/><stop offset="1" stop-color="#878593"/></radialGradient><linearGradient x1="256.63838" y1="174.28172" x2="273.85296" y2="174.28172" gradientUnits="userSpaceOnUse" id="color-24"><stop offset="0" stop-color="#272727"/><stop offset="1" stop-color="#101010"/></linearGradient><radialGradient cx="265.25898" cy="170.79287" r="0.55281" gradientUnits="userSpaceOnUse" id="color-25"><stop offset="0" stop-color="#c4c4c4"/><stop offset="1" stop-color="#a4a4a4"/></radialGradient><linearGradient x1="264.72292" y1="170.79287" x2="265.79504" y2="170.79287" gradientUnits="userSpaceOnUse" id="color-26"><stop offset="0" stop-color="#272727"/><stop offset="1" stop-color="#101010"/></linearGradient><radialGradient cx="265.32396" cy="170.80913" r="1.86808" gradientUnits="userSpaceOnUse" id="color-27"><stop offset="0" stop-color="#5aff3d"/><stop offset="1" stop-color="#0ce800" stop-opacity="0.01999"/></radialGradient><linearGradient x1="263.45588" y1="170.80913" x2="267.19203" y2="170.80913" gradientUnits="userSpaceOnUse" id="color-28"><stop offset="0" stop-color="#000000" stop-opacity="0"/><stop offset="1" stop-color="#000000" stop-opacity="0"/></linearGradient><radialGradient cx="265.34677" cy="170.80482" r="1.25081" gradientUnits="userSpaceOnUse" id="color-29"><stop offset="0" stop-color="#6bff6b"/><stop offset="1" stop-color="#01e800" stop-opacity="0.10996"/></radialGradient><linearGradient x1="264.09596" y1="170.80482" x2="266.59757" y2="170.80482" gradientUnits="userSpaceOnUse" id="color-30"><stop offset="0" stop-color="#000000" stop-opacity="0"/><stop offset="1" stop-color="#000000" stop-opacity="0"/></linearGradient><radialGradient cx="265.32696" cy="170.82106" r="0.84114" gradientUnits="userSpaceOnUse" id="color-31"><stop offset="0" stop-color="#b4ffb0"/><stop offset="1" stop-color="#00e816" stop-opacity="0.30998"/></radialGradient><linearGradient x1="264.48582" y1="170.82106" x2="266.1681" y2="170.82106" gradientUnits="userSpaceOnUse" id="color-32"><stop offset="0" stop-color="#000000" stop-opacity="0"/><stop offset="1" stop-color="#000000" stop-opacity="0"/></linearGradient><radialGradient cx="276.9207" cy="188.81244" r="4.27164" gradientUnits="userSpaceOnUse" id="color-33"><stop offset="0" stop-color="#b1ffa3"/><stop offset="1" stop-color="#44b844"/></radialGradient><linearGradient x1="277.39941" y1="186.79277" x2="277.39941" y2="194.73451" gradientUnits="userSpaceOnUse" id="color-34"><stop offset="0" stop-color="#464646"/><stop offset="1" stop-color="#353535"/></linearGradient><radialGradient cx="274.24226" cy="188.78126" r="4.27164" gradientUnits="userSpaceOnUse" id="color-35"><stop offset="0" stop-color="#b1ffa3"/><stop offset="1" stop-color="#44b844"/></radialGradient><linearGradient x1="274.72098" y1="186.7616" x2="274.72098" y2="194.70332" gradientUnits="userSpaceOnUse" id="color-36"><stop offset="0" stop-color="#464646"/><stop offset="1" stop-color="#353535"/></linearGradient><linearGradient x1="273.29591" y1="188.31574" x2="278.89488" y2="188.31574" gradientUnits="userSpaceOnUse" id="color-37"><stop offset="0" stop-color="#404f43"/><stop offset="1" stop-color="#2e362e"/></linearGradient><linearGradient x1="276.09539" y1="187.91278" x2="276.09539" y2="188.71869" gradientUnits="userSpaceOnUse" id="color-38"><stop offset="0" stop-color="#222b22"/><stop offset="1" stop-color="#1a241c"/></linearGradient><linearGradient x1="273.29591" y1="192.76947" x2="278.89488" y2="192.76947" gradientUnits="userSpaceOnUse" id="color-39"><stop offset="0" stop-color="#404f43"/><stop offset="1" stop-color="#2e362e"/></linearGradient><linearGradient x1="276.09539" y1="192.36651" x2="276.09539" y2="193.17242" gradientUnits="userSpaceOnUse" id="color-40"><stop offset="0" stop-color="#222b22"/><stop offset="1" stop-color="#1a241c"/></linearGradient></defs><g transform="translate(-197.75,-160.83697)"><g data-paper-data="{&quot;isPaintingLayer&quot;:true}" fill-rule="nonzero" stroke-linejoin="miter" stroke-miterlimit="10" stroke-dasharray="" stroke-dashoffset="0" style="mix-blend-mode: normal"><path d="M198.5,198.41307v-36.82609h83v36.82609z" fill="url(#color-1)" stroke="url(#color-2)" stroke-width="1.5" stroke-linecap="butt"/><text transform="translate(201.08,170.56878) scale(0.21667,0.21667)" font-size="40" xml:space="preserve" fill="#ffffff" fill-rule="nonzero" stroke="none" stroke-width="1" stroke-linecap="butt" stroke-linejoin="miter" stroke-miterlimit="10" stroke-dasharray="" stroke-dashoffset="0" font-family="Serif" font-weight="normal" text-anchor="start" style="mix-blend-mode: normal"><tspan x="0" dy="0">Base Research</tspan></text><path d="M257.05805,196.23609v-0.77602h21.75345v0.77602z" fill="url(#color-3)" stroke="url(#color-4)" stroke-width="0.25" stroke-linecap="butt"/><path d="M265.15407,178.58972l-1.77943,1.85795" fill="none" stroke="url(#color-5)" stroke-width="0.25" stroke-linecap="round"/><path d="M265.27713,178.55575l1.77943,1.85794" data-paper-data="{&quot;index&quot;:null}" fill="none" stroke="url(#color-6)" stroke-width="0.25" stroke-linecap="round"/><path d="M265.21424,178.76113v1.69682" fill="none" stroke="url(#color-7)" stroke-width="0.25" stroke-linecap="round"/><path d="M257.24198,195.44461v-12.06158h16.00738v12.06158z" fill="url(#color-8)" stroke="#000000" stroke-width="0.25" stroke-linecap="butt"/><path d="M257.24198,193.96493v-0.98645h16.00738v0.98645z" fill="url(#color-9)" stroke="#000000" stroke-width="0.25" stroke-linecap="butt"/><path d="M257.24198,183.33819l6.2774,-2.91451h3.45257l6.2774,2.91451z" fill="url(#color-10)" stroke="#000000" stroke-width="0.25" stroke-linecap="butt"/><path d="M263.48284,195.51187v-6.2774h3.52567v6.2774z" fill="url(#color-11)" stroke="url(#color-12)" stroke-width="0.25" stroke-linecap="butt"/><path d="M257.24198,185.71463v-0.98645h16.00738v0.98645z" fill="url(#color-13)" stroke="#000000" stroke-width="0.25" stroke-linecap="butt"/><path d="M258.51988,188.27043v-4.08032h6.2774v4.08032z" fill="url(#color-14)" stroke="#002c4c" stroke-width="0.25" stroke-linecap="butt"/><path d="M265.69405,188.27043v-4.08032h6.2774v4.08032z" fill="url(#color-15)" stroke="#002c4c" stroke-width="0.25" stroke-linecap="butt"/><path d="M266.10657,192.41128c0,-0.18572 0.15057,-0.33629 0.33629,-0.33629c0.18572,0 0.33629,0.15057 0.33629,0.33629c0,0.18572 -0.15057,0.33629 -0.33629,0.33629c-0.18572,0 -0.33629,-0.15056 -0.33629,-0.33629z" fill="url(#color-16)" stroke="none" stroke-width="0.25" stroke-linecap="butt"/><path d="M264.58867,171.0256l-2.13673,-6.5359l5.67797,-0.06285l-2.13674,6.59875z" fill="url(#color-17)" stroke="#000000" stroke-width="0" stroke-linecap="butt"/><path d="M257.17006,173.03665l-0.06284,-2.63949c0,0 5.30685,0.75414 8.04418,0.75414c2.6431,0 8.16988,-0.6913 8.16988,-0.6913v2.45097c0,0 -0.85567,5.13475 -7.97891,4.96303c-7.18548,-0.17322 -8.17231,-4.83734 -8.17231,-4.83734z" fill="url(#color-18)" stroke="url(#color-19)" stroke-width="0.25" stroke-linecap="butt"/><path d="M263.37464,176.52621l1.77944,-5.98318" fill="none" stroke="url(#color-20)" stroke-width="0.25" stroke-linecap="round"/><path d="M267.05656,176.41685l-1.77943,-5.98318" data-paper-data="{&quot;index&quot;:null}" fill="none" stroke="url(#color-21)" stroke-width="0.25" stroke-linecap="round"/><path d="M265.21424,171.09503v5.46431" fill="none" stroke="url(#color-22)" stroke-width="0.25" stroke-linecap="round"/><path d="M273.85296,170.10776c0,0 -0.0502,1.74246 -0.13919,2.46509c-0.09041,0.73416 -0.39909,1.90583 -0.39909,1.90583c0,0 -0.10841,3.12048 -5.66528,3.68142c-0.62086,0.06267 -2.44353,0.40352 -2.44353,0.40352c0,0 -1.6987,-0.32224 -2.47188,-0.42726c-5.36999,-0.72944 -5.50405,-3.65768 -5.50405,-3.65768c0,0 -0.41683,-0.9942 -0.5122,-1.63977c-0.11586,-0.78426 -0.0707,-2.73117 -0.0707,-2.73117c0,0 0.39307,-0.35761 0.71568,0.22889c0.1293,0.23506 0.03628,1.25478 0.22624,1.53758c0.53816,0.80118 0.86854,2.75919 1.95344,3.6366c0.77395,0.62593 2.14791,0.239 3.272,0.59674c0.7042,0.22411 2.39148,0.72462 2.39148,0.72462c0,0 1.70231,-0.47127 2.45562,-0.72115c0.85618,-0.28402 2.61559,-0.05033 3.27452,-0.50038c1.50693,-1.02925 1.51175,-2.97613 2.11358,-3.92043c0.17638,-0.27675 0.0689,-1.03579 0.18362,-1.25799c0.25804,-0.49982 0.61975,-0.32447 0.61975,-0.32447z" data-paper-data="{&quot;index&quot;:null}" fill="url(#color-23)" stroke="url(#color-24)" stroke-width="0.25" stroke-linecap="butt"/><path d="M265.79504,170.79287c0,0.29605 -0.24,0.53606 -0.53605,0.53606c-0.29606,0 -0.53606,-0.24001 -0.53606,-0.53606c0,-0.29605 0.24,-0.53606 0.53606,-0.53606c0.29606,0 0.53605,0.24 0.53605,0.53606z" fill="url(#color-25)" stroke="url(#color-26)" stroke-width="0.25" stroke-linecap="butt"/><path d="M265.32396,172.66096c-1.03171,0 -1.86808,-0.8291 -1.86808,-1.85184c0,-1.02274 0.83637,-1.85183 1.86808,-1.85183c1.03171,0 1.86808,0.82909 1.86808,1.85183c0,1.02274 -0.83637,1.85184 -1.86808,1.85184z" fill="url(#color-27)" stroke="url(#color-28)" stroke-width="0.25" stroke-linecap="butt"/><path d="M265.34677,172.04473c-0.6908,0 -1.2508,-0.55514 -1.2508,-1.23992c0,-0.68479 0.56,-1.23992 1.2508,-1.23992c0.6908,0 1.25081,0.55514 1.25081,1.23992c0,0.68479 -0.56,1.23992 -1.25081,1.23992z" fill="url(#color-29)" stroke="url(#color-30)" stroke-width="0.25" stroke-linecap="butt"/><path d="M265.32696,171.65487c-0.46454,0 -0.84114,-0.37331 -0.84114,-0.83382c0,-0.46051 0.37659,-0.83382 0.84114,-0.83382c0.46454,0 0.84114,0.37331 0.84114,0.83382c0,0.46051 -0.37659,0.83382 -0.84114,0.83382z" fill="url(#color-31)" stroke="url(#color-32)" stroke-width="0.25" stroke-linecap="butt"/><path d="M276.14738,194.73451v-7.94173c0,0 0.20313,-0.97959 1.28886,-0.95848c1.07445,0.02089 1.21521,0.95848 1.21521,0.95848v7.94173c0,0 -0.16374,0.83044 -1.25203,0.85579c-1.10976,0.02585 -1.25203,-0.85579 -1.25203,-0.85579z" fill="url(#color-33)" stroke="url(#color-34)" stroke-width="0.25" stroke-linecap="butt"/><path d="M273.46895,194.70332v-7.94173c0,0 0.20312,-0.97959 1.28885,-0.95848c1.07445,0.02089 1.21521,0.95848 1.21521,0.95848v7.94173c0,0 -0.16374,0.83043 -1.25203,0.85578c-1.10976,0.02585 -1.25204,-0.85578 -1.25204,-0.85578z" fill="url(#color-35)" stroke="url(#color-36)" stroke-width="0.25" stroke-linecap="butt"/><path d="M273.29591,188.71869v-0.80591h5.59897v0.80591z" fill="url(#color-37)" stroke="url(#color-38)" stroke-width="0.25" stroke-linecap="butt"/><path d="M273.29591,193.17242v-0.80591h5.59897v0.80591z" fill="url(#color-39)" stroke="url(#color-40)" stroke-width="0.25" stroke-linecap="butt"/></g></g></svg>