<svg version="1.1" xmlns="http://www.w3.org/2000/svg" xmlns:xlink="http://www.w3.org/1999/xlink" width="195.88069" height="159.53144" viewBox="0,0,195.88069,159.53144"><defs><radialGradient cx="310.06248" cy="237.95935" r="38.33033" gradientUnits="userSpaceOnUse" id="color-1"><stop offset="0" stop-color="#696969"/><stop offset="1" stop-color="#0a0a0a"/></radialGradient><linearGradient x1="310.06248" y1="200.34215" x2="310.06248" y2="275.57656" gradientUnits="userSpaceOnUse" id="color-2"><stop offset="0" stop-color="#636363"/><stop offset="1" stop-color="#424242"/></linearGradient><linearGradient x1="277.95582" y1="238.03687" x2="342.12465" y2="238.03687" gradientUnits="userSpaceOnUse" id="color-3"><stop offset="0" stop-color="#89959f"/><stop offset="1" stop-color="#2a3542"/></linearGradient><linearGradient x1="277.95582" y1="238.01676" x2="342.12466" y2="238.01676" gradientUnits="userSpaceOnUse" id="color-4"><stop offset="0" stop-color="#272727"/><stop offset="1" stop-color="#000000"/></linearGradient><linearGradient x1="293.95582" y1="210.12154" x2="325.62466" y2="210.12154" gradientUnits="userSpaceOnUse" id="color-5"><stop offset="0" stop-color="#f1f5f8"/><stop offset="1" stop-color="#6d7680"/></linearGradient><linearGradient x1="293.95582" y1="210.119" x2="325.62466" y2="210.119" gradientUnits="userSpaceOnUse" id="color-6"><stop offset="0" stop-color="#272727"/><stop offset="1" stop-color="#000000"/></linearGradient><linearGradient x1="286.73614" y1="226.42684" x2="333.91989" y2="226.42684" gradientUnits="userSpaceOnUse" id="color-7"><stop offset="0" stop-color="#3b4145"/><stop offset="1" stop-color="#171e25"/></linearGradient></defs><g transform="translate(-269.71931,-160.0288)"><g data-paper-data="{&quot;isPaintingLayer&quot;:true}" fill-rule="nonzero" stroke-linecap="butt" stroke-linejoin="miter" stroke-miterlimit="10" stroke-dasharray="" stroke-dashoffset="0" style="mix-blend-mode: normal"><text transform="translate(270.03136,187.4892) scale(0.6241,0.6241)" font-size="40" xml:space="preserve" fill="#ffffff" fill-rule="nonzero" stroke="none" stroke-width="1" stroke-linecap="butt" stroke-linejoin="miter" stroke-miterlimit="10" stroke-dasharray="" stroke-dashoffset="0" font-family="Malgun Gothic" font-weight="normal" text-anchor="start" style="mix-blend-mode: normal"><tspan x="0" dy="0">Drone Cap</tspan></text><text transform="translate(354.45435,215.62294) scale(0.45565,0.45565)" font-size="40" xml:space="preserve" fill="#d8d8d8" fill-rule="nonzero" stroke="none" stroke-width="1" stroke-linecap="butt" stroke-linejoin="miter" stroke-miterlimit="10" stroke-dasharray="" stroke-dashoffset="0" font-family="Malgun Gothic" font-weight="normal" text-anchor="start" style="mix-blend-mode: normal"><tspan x="0" dy="0">Obtained by:</tspan></text><text transform="translate(354.45435,256.62748) scale(0.45566,0.45566)" font-size="40" xml:space="preserve" fill="#d8d8d8" fill-rule="nonzero" stroke="none" stroke-width="1" stroke-linecap="butt" stroke-linejoin="miter" stroke-miterlimit="10" stroke-dasharray="" stroke-dashoffset="0" font-family="Malgun Gothic" font-weight="normal" text-anchor="start" style="mix-blend-mode: normal"><tspan x="0" dy="0">Materials:</tspan></text><text transform="translate(271.38374,296.92705) scale(0.45566,0.45566)" font-size="40" xml:space="preserve" fill="#d8d8d8" fill-rule="nonzero" stroke="none" stroke-width="1" stroke-linecap="butt" stroke-linejoin="miter" stroke-miterlimit="10" stroke-dasharray="" stroke-dashoffset="0" font-family="Malgun Gothic" font-weight="normal" text-anchor="start" style="mix-blend-mode: normal"><tspan x="0" dy="0">Description:</tspan></text><text transform="translate(355.17562,233.72207) scale(0.37382,0.37382)" font-size="40" xml:space="preserve" fill="#9f9f9f" fill-rule="nonzero" stroke="none" stroke-width="1" stroke-linecap="butt" stroke-linejoin="miter" stroke-miterlimit="10" stroke-dasharray="" stroke-dashoffset="0" font-family="Malgun Gothic" font-weight="normal" text-anchor="start" style="mix-blend-mode: normal"><tspan x="0" dy="0">VAB; rocket part</tspan></text><path d="M271.73215,275.57656v-75.23442h76.66066v75.23442z" fill="url(#color-1)" stroke="url(#color-2)" stroke-width="3.5"/><text transform="translate(271.64329,315.44811) scale(0.37383,0.37383)" font-size="40" xml:space="preserve" fill="#9f9f9f" fill-rule="nonzero" stroke="none" stroke-width="1" stroke-linecap="butt" stroke-linejoin="miter" stroke-miterlimit="10" stroke-dasharray="" stroke-dashoffset="0" font-family="Malgun Gothic" font-weight="normal" text-anchor="start" style="mix-blend-mode: normal"><tspan x="0" dy="0">The brain of cargo drones.</tspan></text><text transform="translate(355.17562,275.43973) scale(0.37383,0.37383)" font-size="40" xml:space="preserve" fill="#9f9f9f" fill-rule="nonzero" stroke="none" stroke-width="1" stroke-linecap="butt" stroke-linejoin="miter" stroke-miterlimit="10" stroke-dasharray="" stroke-dashoffset="0" font-family="Malgun Gothic" font-weight="normal" text-anchor="start" style="mix-blend-mode: normal"><tspan x="0" dy="0">Iron (x150)</tspan></text><path d="M277.95582,270.12258c0,0 4.12696,-65.63938 31.75548,-64.16885c27.79886,-1.96173 32.41336,64.16885 32.41336,64.16885z" fill="url(#color-3)" stroke="url(#color-4)" stroke-width="1.5"/><path d="M293.95582,214.18108c0,0 2.03675,-8.30482 15.67208,-8.11876c13.71939,-0.2482 15.99676,8.11876 15.99676,8.11876z" fill="url(#color-5)" stroke="url(#color-6)" stroke-width="1.5"/><path d="M285.12313,234.52878c0,0 0.7828,-2.53863 1.93278,-5.5597c1.34953,-3.54527 3.58493,-7.75493 11.30928,-9.30593c0.29969,-0.06018 5.92996,-0.94176 5.92996,-0.94176l12.24886,0.03774c0,0 4.23426,0.30224 4.48292,0.36119c7.31017,1.7329 10.0553,6.08425 11.59197,9.72249c1.31027,3.10221 2.10749,5.68597 2.10749,5.68597z" data-paper-data="{&quot;index&quot;:null}" fill="url(#color-7)" stroke="#000000" stroke-width="0"/><path d="M298.19313,227.01022c0,-3.11773 2.52742,-5.64516 5.64516,-5.64516c3.11774,0 5.64516,2.52743 5.64516,5.64516c0,3.11773 -2.52742,5.64516 -5.64516,5.64516c-3.11774,0 -5.64516,-2.52742 -5.64516,-5.64516z" fill="#ff0000" stroke="none" stroke-width="0.5"/><path d="M311.24151,227.13388c0,-3.11773 2.52742,-5.64516 5.64516,-5.64516c3.11774,0 5.64516,2.52743 5.64516,5.64516c0,3.11773 -2.52743,5.64516 -5.64516,5.64516c-3.11774,0 -5.64516,-2.52743 -5.64516,-5.64516z" fill="#4bff00" stroke="none" stroke-width="0.5"/></g></g></svg>