<svg version="1.1" xmlns="http://www.w3.org/2000/svg" xmlns:xlink="http://www.w3.org/1999/xlink" width="24.9829" height="22.67522" viewBox="0,0,24.9829,22.67522"><defs><radialGradient cx="236.92308" cy="178.07693" r="9.41454" gradientUnits="userSpaceOnUse" id="color-1"><stop offset="0" stop-color="#735545" stop-opacity="0.30645"/><stop offset="1" stop-color="#735545" stop-opacity="0"/></radialGradient><radialGradient cx="236.92307" cy="178.07693" r="7.64324" gradientUnits="userSpaceOnUse" id="color-2"><stop offset="0" stop-color="#ea9d73" stop-opacity="0.62903"/><stop offset="1" stop-color="#ea9d73" stop-opacity="0"/></radialGradient><radialGradient cx="236.92308" cy="178.07693" r="6.47063" gradientUnits="userSpaceOnUse" id="color-3"><stop offset="0" stop-color="#ff8c4e"/><stop offset="1" stop-color="#ff8c4e" stop-opacity="0"/></radialGradient><radialGradient cx="236.92308" cy="178.07693" r="5.32083" gradientUnits="userSpaceOnUse" id="color-4"><stop offset="0" stop-color="#ff631f"/><stop offset="1" stop-color="#ff8340"/></radialGradient><radialGradient cx="245.99998" cy="184.84615" r="6.49146" gradientUnits="userSpaceOnUse" id="color-5"><stop offset="0" stop-color="#734545" stop-opacity="0.30998"/><stop offset="1" stop-color="#734545" stop-opacity="0"/></radialGradient><radialGradient cx="245.99998" cy="184.84615" r="5.27013" gradientUnits="userSpaceOnUse" id="color-6"><stop offset="0" stop-color="#eb7373" stop-opacity="0.62996"/><stop offset="1" stop-color="#eb7373" stop-opacity="0"/></radialGradient><radialGradient cx="245.99998" cy="184.84615" r="4.46159" gradientUnits="userSpaceOnUse" id="color-7"><stop offset="0" stop-color="#ff4f4f"/><stop offset="1" stop-color="#ff4f4f" stop-opacity="0"/></radialGradient><radialGradient cx="245.99998" cy="184.84615" r="3.66879" gradientUnits="userSpaceOnUse" id="color-8"><stop offset="0" stop-color="#ea3939"/><stop offset="1" stop-color="#bd4b4b"/></radialGradient></defs><g transform="translate(-227.50855,-168.66239)"><g data-paper-data="{&quot;isPaintingLayer&quot;:true}" fill-rule="nonzero" stroke="none" stroke-width="0.5" stroke-linecap="butt" stroke-linejoin="miter" stroke-miterlimit="10" stroke-dasharray="" stroke-dashoffset="0" style="mix-blend-mode: normal"><path d="M227.50855,178.07693c0,-5.19949 4.21503,-9.41454 9.41454,-9.41454c5.19949,0 9.41454,4.21503 9.41454,9.41454c0,5.19949 -4.21503,9.41454 -9.41454,9.41454c-5.19949,0 -9.41454,-4.21503 -9.41454,-9.41454z" fill="url(#color-1)"/><path d="M229.27983,178.07693c0,-4.22123 3.42199,-7.64324 7.64324,-7.64324c4.22123,0 7.64324,3.42199 7.64324,7.64324c0,4.22123 -3.42199,7.64324 -7.64324,7.64324c-4.22123,0 -7.64324,-3.42199 -7.64324,-7.64324z" fill="url(#color-2)"/><path d="M230.45245,178.07693c0,-3.57362 2.897,-6.47063 6.47063,-6.47063c3.57362,0 6.47063,2.897 6.47063,6.47063c0,3.57362 -2.897,6.47063 -6.47063,6.47063c-3.57362,0 -6.47063,-2.897 -6.47063,-6.47063z" fill="url(#color-3)"/><path d="M231.60226,178.07693c0,-2.9386 2.38221,-5.32083 5.32083,-5.32083c2.9386,0 5.32083,2.38221 5.32083,5.32083c0,2.9386 -2.38221,5.32083 -5.32083,5.32083c-2.9386,0 -5.32083,-2.38221 -5.32083,-5.32083z" fill="url(#color-4)"/><path d="M239.50853,184.84615c0,-3.58512 2.90632,-6.49146 6.49146,-6.49146c3.58512,0 6.49146,2.90632 6.49146,6.49146c0,3.58512 -2.90632,6.49146 -6.49146,6.49146c-3.58512,0 -6.49146,-2.90632 -6.49146,-6.49146z" fill="url(#color-5)"/><path d="M240.72986,184.84615c0,-2.9106 2.35951,-5.27013 5.27013,-5.27013c2.9106,0 5.27013,2.35951 5.27013,5.27013c0,2.9106 -2.35951,5.27013 -5.27013,5.27013c-2.9106,0 -5.27013,-2.35951 -5.27013,-5.27013z" fill="url(#color-6)"/><path d="M241.53839,184.84615c0,-2.46406 1.99752,-4.46159 4.46159,-4.46159c2.46406,0 4.46159,1.99752 4.46159,4.46159c0,2.46406 -1.99752,4.46159 -4.46159,4.46159c-2.46406,0 -4.46159,-1.99752 -4.46159,-4.46159z" fill="url(#color-7)"/><path d="M242.3312,184.84615c0,-2.02621 1.64257,-3.66879 3.66879,-3.66879c2.02621,0 3.66879,1.64257 3.66879,3.66879c0,2.02621 -1.64257,3.66879 -3.66879,3.66879c-2.02621,0 -3.66879,-1.64257 -3.66879,-3.66879z" fill="url(#color-8)"/></g></g></svg>