<svg version="1.1" xmlns="http://www.w3.org/2000/svg" xmlns:xlink="http://www.w3.org/1999/xlink" width="281.43348" height="185.31877" viewBox="0,0,281.43348,185.31877"><defs><linearGradient x1="310.06248" y1="200.34215" x2="310.06248" y2="275.57656" gradientUnits="userSpaceOnUse" id="color-1"><stop offset="0" stop-color="#636363"/><stop offset="1" stop-color="#424242"/></linearGradient><radialGradient cx="598.0503" cy="1088.05557" r="5.48195" gradientUnits="userSpaceOnUse" id="color-2"><stop offset="0" stop-color="#3894ff" stop-opacity="0.28235"/><stop offset="1" stop-color="#3894ff" stop-opacity="0"/></radialGradient><radialGradient cx="598.0503" cy="1088.05557" r="5.48195" gradientUnits="userSpaceOnUse" id="color-3"><stop offset="0" stop-color="#3894ff" stop-opacity="0.28235"/><stop offset="1" stop-color="#3894ff" stop-opacity="0"/></radialGradient><radialGradient cx="312.14966" cy="237.75" r="34.44856" gradientUnits="userSpaceOnUse" id="color-4"><stop offset="0" stop-color="#864337" stop-opacity="0.61176"/><stop offset="1" stop-color="#864337" stop-opacity="0"/></radialGradient><radialGradient cx="312.14959" cy="237.75" r="32.68034" gradientUnits="userSpaceOnUse" id="color-5"><stop offset="0" stop-color="#ff802e" stop-opacity="0.84706"/><stop offset="1" stop-color="#ff802e" stop-opacity="0"/></radialGradient><radialGradient cx="312.14959" cy="237.75" r="30.26219" gradientUnits="userSpaceOnUse" id="color-6"><stop offset="0" stop-color="#ffc64b"/><stop offset="1" stop-color="#ffc64b" stop-opacity="0"/></radialGradient><radialGradient cx="317.51651" cy="227.38773" r="29.08165" gradientUnits="userSpaceOnUse" id="color-7"><stop offset="0" stop-color="#ffa215"/><stop offset="1" stop-color="#ed7500"/></radialGradient><radialGradient cx="304.94404" cy="228.97154" r="17.81216" gradientUnits="userSpaceOnUse" id="color-8"><stop offset="0" stop-color="#6b5f5a"/><stop offset="1" stop-color="#524640"/></radialGradient><radialGradient cx="320.78125" cy="215.98004" r="13.49779" gradientUnits="userSpaceOnUse" id="color-9"><stop offset="0" stop-color="#6b5f5a"/><stop offset="1" stop-color="#524640"/></radialGradient><radialGradient cx="324.74062" cy="234.29191" r="14.07277" gradientUnits="userSpaceOnUse" id="color-10"><stop offset="0" stop-color="#6b5f5a"/><stop offset="1" stop-color="#524640"/></radialGradient><radialGradient cx="311.37796" cy="256.19188" r="16.70629" gradientUnits="userSpaceOnUse" id="color-11"><stop offset="0" stop-color="#6b5f5a"/><stop offset="1" stop-color="#524640"/></radialGradient><radialGradient cx="332.53547" cy="244.31393" r="13.34232" gradientUnits="userSpaceOnUse" id="color-12"><stop offset="0" stop-color="#6b5f5a"/><stop offset="1" stop-color="#524640"/></radialGradient><radialGradient cx="334.39151" cy="224.64108" r="7.36769" gradientUnits="userSpaceOnUse" id="color-13"><stop offset="0" stop-color="#6b5f5a"/><stop offset="1" stop-color="#524640"/></radialGradient><linearGradient x1="313.37712" y1="213.42464" x2="318.3456" y2="214.76497" gradientUnits="userSpaceOnUse" id="color-14"><stop offset="0" stop-color="#39332f"/><stop offset="1" stop-color="#4c4440"/></linearGradient><linearGradient x1="292.61801" y1="220.07549" x2="297.69415" y2="219.23052" gradientUnits="userSpaceOnUse" id="color-15"><stop offset="0" stop-color="#39332f"/><stop offset="1" stop-color="#4c4440"/></linearGradient><linearGradient x1="283.78542" y1="237.00331" x2="287.73326" y2="233.70233" gradientUnits="userSpaceOnUse" id="color-16"><stop offset="0" stop-color="#39332f"/><stop offset="1" stop-color="#4c4440"/></linearGradient><linearGradient x1="304.98391" y1="263.64754" x2="309.88669" y2="265.21092" gradientUnits="userSpaceOnUse" id="color-17"><stop offset="0" stop-color="#39332f"/><stop offset="1" stop-color="#4c4440"/></linearGradient><linearGradient x1="326.24548" y1="258.97483" x2="329.96867" y2="255.42235" gradientUnits="userSpaceOnUse" id="color-18"><stop offset="0" stop-color="#39332f"/><stop offset="1" stop-color="#4c4440"/></linearGradient><linearGradient x1="328.64532" y1="238.81112" x2="331.34335" y2="234.42904" gradientUnits="userSpaceOnUse" id="color-19"><stop offset="0" stop-color="#39332f"/><stop offset="1" stop-color="#4c4440"/></linearGradient><radialGradient cx="292.95277" cy="237.43147" r="7.79225" gradientUnits="userSpaceOnUse" id="color-20"><stop offset="0" stop-color="#5b625b"/><stop offset="1" stop-color="#3e4543" stop-opacity="0.83137"/></radialGradient><radialGradient cx="324.70426" cy="255.03778" r="11.47978" gradientUnits="userSpaceOnUse" id="color-21"><stop offset="0" stop-color="#5b625b"/><stop offset="1" stop-color="#3e4543" stop-opacity="0.83137"/></radialGradient><radialGradient cx="317.33061" cy="225.694" r="10.64468" gradientUnits="userSpaceOnUse" id="color-22"><stop offset="0" stop-color="#5b625b"/><stop offset="1" stop-color="#3e4543" stop-opacity="0.83137"/></radialGradient><radialGradient cx="334.93692" cy="221.17958" r="9.81886" gradientUnits="userSpaceOnUse" id="color-23"><stop offset="0" stop-color="#5b625b"/><stop offset="1" stop-color="#3e4543" stop-opacity="0.83137"/></radialGradient><radialGradient cx="286.18111" cy="219.07284" r="8.08834" gradientUnits="userSpaceOnUse" id="color-24"><stop offset="0" stop-color="#5b625b"/><stop offset="1" stop-color="#3e4543" stop-opacity="0.83137"/></radialGradient><radialGradient cx="312.81618" cy="210.04398" r="9.29226" gradientUnits="userSpaceOnUse" id="color-25"><stop offset="0" stop-color="#5b625b"/><stop offset="1" stop-color="#3e4543" stop-opacity="0.83137"/></radialGradient><radialGradient cx="294.30704" cy="261.50846" r="13.57134" gradientUnits="userSpaceOnUse" id="color-26"><stop offset="0" stop-color="#5b625b"/><stop offset="1" stop-color="#3e4543" stop-opacity="0.83137"/></radialGradient><radialGradient cx="294.30704" cy="261.50846" r="13.57134" gradientUnits="userSpaceOnUse" id="color-27"><stop offset="0" stop-color="#5b625b"/><stop offset="1" stop-color="#3e4543" stop-opacity="0.83137"/></radialGradient><radialGradient cx="294.30704" cy="261.50846" r="13.57134" gradientUnits="userSpaceOnUse" id="color-28"><stop offset="0" stop-color="#5b625b"/><stop offset="1" stop-color="#3e4543" stop-opacity="0.83137"/></radialGradient><radialGradient cx="280.1619" cy="241.19352" r="4.78696" gradientUnits="userSpaceOnUse" id="color-29"><stop offset="0" stop-color="#5b625b"/><stop offset="1" stop-color="#3e4543" stop-opacity="0.83137"/></radialGradient><radialGradient cx="312.06381" cy="237.43147" r="3.42347" gradientUnits="userSpaceOnUse" id="color-30"><stop offset="0" stop-color="#5b625b"/><stop offset="1" stop-color="#3e4543" stop-opacity="0.83137"/></radialGradient><radialGradient cx="325.60706" cy="239.83921" r="3.95013" gradientUnits="userSpaceOnUse" id="color-31"><stop offset="0" stop-color="#5b625b"/><stop offset="1" stop-color="#3e4543" stop-opacity="0.83137"/></radialGradient><radialGradient cx="332.90099" cy="233.98384" r="2.3083" gradientUnits="userSpaceOnUse" id="color-32"><stop offset="0" stop-color="#5b625b"/><stop offset="1" stop-color="#3e4543" stop-opacity="0.83137"/></radialGradient><radialGradient cx="299.42341" cy="225.84445" r="2.3701" gradientUnits="userSpaceOnUse" id="color-33"><stop offset="0" stop-color="#5b625b"/><stop offset="1" stop-color="#3e4543" stop-opacity="0.83137"/></radialGradient><radialGradient cx="300.47677" cy="215.46128" r="3.12248" gradientUnits="userSpaceOnUse" id="color-34"><stop offset="0" stop-color="#5b625b"/><stop offset="1" stop-color="#3e4543" stop-opacity="0.83137"/></radialGradient><radialGradient cx="323.80134" cy="217.86896" r="2.37444" gradientUnits="userSpaceOnUse" id="color-35"><stop offset="0" stop-color="#5b625b"/><stop offset="1" stop-color="#3e4543" stop-opacity="0.83137"/></radialGradient><radialGradient cx="284.82676" cy="230.82345" r="2.89676" gradientUnits="userSpaceOnUse" id="color-36"><stop offset="0" stop-color="#5b625b"/><stop offset="1" stop-color="#3e4543" stop-opacity="0.83137"/></radialGradient><radialGradient cx="301.21552" cy="247.51219" r="3.66287" gradientUnits="userSpaceOnUse" id="color-37"><stop offset="0" stop-color="#5b625b"/><stop offset="1" stop-color="#3e4543" stop-opacity="0.83137"/></radialGradient><radialGradient cx="288.5888" cy="248.26612" r="2.74632" gradientUnits="userSpaceOnUse" id="color-38"><stop offset="0" stop-color="#5b625b"/><stop offset="1" stop-color="#3e4543" stop-opacity="0.83137"/></radialGradient><radialGradient cx="311.46193" cy="257.59596" r="1.9186" gradientUnits="userSpaceOnUse" id="color-39"><stop offset="0" stop-color="#5b625b"/><stop offset="1" stop-color="#3e4543" stop-opacity="0.83137"/></radialGradient><radialGradient cx="317.18016" cy="264.66857" r="2.28374" gradientUnits="userSpaceOnUse" id="color-40"><stop offset="0" stop-color="#5b625b"/><stop offset="1" stop-color="#3e4543" stop-opacity="0.83137"/></radialGradient><radialGradient cx="325.30618" cy="262.41133" r="2.18264" gradientUnits="userSpaceOnUse" id="color-41"><stop offset="0" stop-color="#5b625b"/><stop offset="1" stop-color="#3e4543" stop-opacity="0.83137"/></radialGradient><radialGradient cx="338.84941" cy="244.35363" r="5.154" gradientUnits="userSpaceOnUse" id="color-42"><stop offset="0" stop-color="#5b625b"/><stop offset="1" stop-color="#3e4543" stop-opacity="0.83137"/></radialGradient><radialGradient cx="309.77576" cy="237.75" r="28.63099" gradientUnits="userSpaceOnUse" id="color-43"><stop offset="0" stop-color="#3b4540" stop-opacity="0.30588"/><stop offset="1" stop-color="#6b523b" stop-opacity="0.25098"/></radialGradient><radialGradient cx="309.77576" cy="237.75" r="29.32257" gradientUnits="userSpaceOnUse" id="color-44"><stop offset="0" stop-color="#2f190a" stop-opacity="0.33725"/><stop offset="1" stop-color="#2f190a" stop-opacity="0"/></radialGradient><linearGradient x1="279.98472" y1="237.47852" x2="338.99929" y2="237.47852" gradientUnits="userSpaceOnUse" id="color-45"><stop offset="0" stop-color="#160a00"/><stop offset="1" stop-color="#160a00" stop-opacity="0"/></linearGradient><linearGradient x1="279.98472" y1="237.47852" x2="338.99929" y2="237.47852" gradientUnits="userSpaceOnUse" id="color-46"><stop offset="0" stop-color="#18211d" stop-opacity="0.3451"/><stop offset="1" stop-color="#18211d" stop-opacity="0"/></linearGradient></defs><g transform="translate(-269.25124,-160.0288)"><g data-paper-data="{&quot;isPaintingLayer&quot;:true}" fill-rule="nonzero" stroke-linecap="butt" stroke-linejoin="miter" stroke-miterlimit="10" stroke-dasharray="" stroke-dashoffset="0" style="mix-blend-mode: normal"><text transform="translate(270.03137,187.4892) scale(0.6241,0.6241)" font-size="40" xml:space="preserve" fill="#ffffff" fill-rule="nonzero" stroke="none" stroke-width="1" stroke-linecap="butt" stroke-linejoin="miter" stroke-miterlimit="10" stroke-dasharray="" stroke-dashoffset="0" font-family="Malgun Gothic" font-weight="normal" text-anchor="start" style="mix-blend-mode: normal"><tspan x="0" dy="0">Volcanic</tspan></text><text transform="translate(354.45436,215.62294) scale(0.45565,0.45565)" font-size="40" xml:space="preserve" fill="#d8d8d8" fill-rule="nonzero" stroke="none" stroke-width="1" stroke-linecap="butt" stroke-linejoin="miter" stroke-miterlimit="10" stroke-dasharray="" stroke-dashoffset="0" font-family="Malgun Gothic" font-weight="normal" text-anchor="start" style="mix-blend-mode: normal"><tspan x="0" dy="0">Common Resources:</tspan></text><text transform="translate(354.45436,256.62748) scale(0.45566,0.45566)" font-size="40" xml:space="preserve" fill="#d8d8d8" fill-rule="nonzero" stroke="none" stroke-width="1" stroke-linecap="butt" stroke-linejoin="miter" stroke-miterlimit="10" stroke-dasharray="" stroke-dashoffset="0" font-family="Malgun Gothic" font-weight="normal" text-anchor="start" style="mix-blend-mode: normal"><tspan x="0" dy="0">Rare Resources:</tspan></text><text transform="translate(271.38374,318.32071) scale(0.45566,0.45566)" font-size="40" xml:space="preserve" fill="#d8d8d8" fill-rule="nonzero" stroke="none" stroke-width="1" stroke-linecap="butt" stroke-linejoin="miter" stroke-miterlimit="10" stroke-dasharray="" stroke-dashoffset="0" font-family="Malgun Gothic" font-weight="normal" text-anchor="start" style="mix-blend-mode: normal"><tspan x="0" dy="0">Has water:</tspan></text><text transform="translate(271.38374,296.92705) scale(0.45566,0.45566)" font-size="40" xml:space="preserve" fill="#d8d8d8" fill-rule="nonzero" stroke="none" stroke-width="1" stroke-linecap="butt" stroke-linejoin="miter" stroke-miterlimit="10" stroke-dasharray="" stroke-dashoffset="0" font-family="Malgun Gothic" font-weight="normal" text-anchor="start" style="mix-blend-mode: normal"><tspan x="0" dy="0">Has fossil fuels:</tspan></text><text transform="translate(355.17563,233.72207) scale(0.37382,0.37382)" font-size="40" xml:space="preserve" fill="#9f9f9f" fill-rule="nonzero" stroke="none" stroke-width="1" stroke-linecap="butt" stroke-linejoin="miter" stroke-miterlimit="10" stroke-dasharray="" stroke-dashoffset="0" font-family="Malgun Gothic" font-weight="normal" text-anchor="start" style="mix-blend-mode: normal"><tspan x="0" dy="0">Aluminum, Titanium, Copper</tspan></text><text transform="translate(355.17563,275.43973) scale(0.37383,0.37383)" font-size="40" xml:space="preserve" fill="#9f9f9f" fill-rule="nonzero" stroke="none" stroke-width="1" stroke-linecap="butt" stroke-linejoin="miter" stroke-miterlimit="10" stroke-dasharray="" stroke-dashoffset="0" font-family="Malgun Gothic" font-weight="normal" text-anchor="start" style="mix-blend-mode: normal"><tspan x="0" dy="0">Hydrogen, Gold, Stone</tspan></text><text transform="translate(401.8933,297.19811) scale(0.37383,0.37383)" font-size="40" xml:space="preserve" fill="#9f9f9f" fill-rule="nonzero" stroke="none" stroke-width="1" stroke-linecap="butt" stroke-linejoin="miter" stroke-miterlimit="10" stroke-dasharray="" stroke-dashoffset="0" font-family="Malgun Gothic" font-weight="normal" text-anchor="start" style="mix-blend-mode: normal"><tspan x="0" dy="0">False</tspan></text><text transform="translate(361.25346,318.59993) scale(0.37383,0.37383)" font-size="40" xml:space="preserve" fill="#9f9f9f" fill-rule="nonzero" stroke="none" stroke-width="1" stroke-linecap="butt" stroke-linejoin="miter" stroke-miterlimit="10" stroke-dasharray="" stroke-dashoffset="0" font-family="Malgun Gothic" font-weight="normal" text-anchor="start" style="mix-blend-mode: normal"><tspan x="0" dy="0">False</tspan></text><path d="M271.73215,275.57656v-75.23442h76.66066v75.23442z" fill="#0a0a0a" stroke="url(#color-1)" stroke-width="3.5"/><text transform="translate(271.38374,340.67705) scale(0.45566,0.45566)" font-size="40" xml:space="preserve" fill="#d8d8d8" fill-rule="nonzero" stroke="none" stroke-width="1" stroke-linecap="butt" stroke-linejoin="miter" stroke-miterlimit="10" stroke-dasharray="" stroke-dashoffset="0" font-family="Malgun Gothic" font-weight="normal" text-anchor="start" style="mix-blend-mode: normal"><tspan x="0" dy="0">Wind data:</tspan></text><text transform="translate(364.50345,340.84993) scale(0.37383,0.37383)" font-size="40" xml:space="preserve" fill="#9f9f9f" fill-rule="nonzero" stroke="none" stroke-width="1" stroke-linecap="butt" stroke-linejoin="miter" stroke-miterlimit="10" stroke-dasharray="" stroke-dashoffset="0" font-family="Malgun Gothic" font-weight="normal" text-anchor="start" style="mix-blend-mode: normal"><tspan x="0" dy="0">FRQ: 5/10, STR: 1/5</tspan></text><path d="" data-paper-data="{&quot;index&quot;:null}" fill="url(#color-2)" stroke="none" stroke-width="0.5"/><path d="" data-paper-data="{&quot;index&quot;:null}" fill="url(#color-3)" stroke="none" stroke-width="0.5"/><g stroke="none" stroke-width="0.5"><path d="M312.14966,274.48737c-19.02543,0 -32.59226,-16.44799 -32.59226,-36.73737c0,-20.28949 13.56694,-36.73737 32.59226,-36.73737c19.02543,0 34.44856,16.44794 34.44856,36.73737c0,20.28949 -15.42318,36.73737 -34.44856,36.73737z" data-paper-data="{&quot;index&quot;:null}" fill="url(#color-4)"/><path d="M312.14959,272.60168c-18.04885,0 -31.28805,-15.60369 -31.28805,-34.85162c0,-19.24804 13.23933,-34.85161 31.28805,-34.85161c18.04885,0 32.68034,15.60369 32.68034,34.85161c0,19.24804 -14.63155,34.85162 -32.68034,34.85162z" data-paper-data="{&quot;index&quot;:null}" fill="url(#color-5)"/><path d="M312.14959,270.02284c-16.71341,0 -29.45008,-14.44904 -29.45008,-32.27283c0,-17.82385 12.73672,-32.27283 29.45008,-32.27283c16.71341,0 30.26219,14.44904 30.26219,32.27283c0,17.82385 -13.54884,32.27283 -30.26219,32.27283z" data-paper-data="{&quot;index&quot;:null}" fill="url(#color-6)"/><path d="M309.8608,266.83166c-16.06137,0 -29.08165,-13.02034 -29.08165,-29.08165c0,-16.06136 13.02034,-29.08165 29.08165,-29.08165c16.06137,0 29.08165,13.02034 29.08165,29.08165c0,16.06137 -13.02034,29.08165 -29.08165,29.08165z" data-paper-data="{&quot;index&quot;:null}" fill="url(#color-7)"/><path d="M306.72049,230.56377c1.31383,-0.22266 1.57898,1.10281 1.57898,1.10281l0.14036,0.70299c0.00061,0.00329 0.00118,0.00652 0.00179,0.0098c0.13029,0.22388 0.2324,0.52226 0.16949,0.86418c0.27889,1.33059 0.62759,2.63947 0.92864,3.9705c0.00863,2.15935 0.16174,5.73432 -1.55108,7.44915c-4.65501,4.66053 -7.21737,-3.15415 -11.24967,-1.52423c-5.64675,2.28247 -7.6526,9.7692 -14.2103,2.2976c-4.64454,-11.25079 0.13129,-22.71393 8.75319,-30.35172c11.50842,-7.67638 9.65227,8.33661 15.4386,15.47892z" fill="url(#color-8)"/><path d="M313.9362,209.01589c6.02787,0.51842 12.18847,2.16387 12.16825,6.38053c-0.00579,1.21233 -4.03672,5.86473 -4.78286,7.22683c-8.40999,15.05865 -16.18819,-10.55263 -20.72956,-9.85276c0,0 -1.38905,0.08987 -1.47886,-1.29919c-0.08986,-1.38906 1.29925,-1.47886 1.29925,-1.47886c0.15428,-0.00306 0.31163,0.01481 0.47177,0.052c0.20684,-0.3618 0.57226,-0.62444 1.008,-0.68757l1.4679,-0.22972l0.00033,0.00239l0.00478,-0.00316c0.45629,-0.0676 1.08238,-0.13279 1.83592,-0.18608c2.32962,-0.72076 6.36855,-0.4624 7.91991,-0.11909l0.48751,0.08741c0,0 0.14271,0.02606 0.32761,0.10735z" fill="url(#color-9)"/><path d="M309.87003,245.74925c0.15629,-3.96343 2.81636,-12.97278 1.13923,-14.57742l-0.01548,-0.03892l-0.00968,0.00752l-0.94302,-1.21238c-0.1883,-0.23741 -0.30078,-0.5378 -0.30078,-0.86441c0,-0.76874 0.62321,-1.39194 1.39195,-1.39194c0.04449,0 0.08835,0.00207 0.13179,0.00613l1.61338,0.13446l-0.05623,0.67482c1.86226,0.48066 2.91987,1.69055 5.4909,1.76488c2.77788,0.08029 4.12958,-4.43713 5.90582,-5.77953c5.55917,-4.2014 10.91155,4.2073 11.66236,8.7357c-0.45679,6.07931 -23.48875,27.33092 -26.38913,13.89427z" fill="url(#color-10)"/><path d="M303.13106,249.48002c6.2126,4.3373 28.95482,20.17853 1.65158,16.9453c-7.96924,-1.18471 -16.9492,-7.0015 -20.2763,-14.45428c6.84984,0.74174 9.79525,-6.20297 18.62472,-2.49102z" data-paper-data="{&quot;noHover&quot;:false,&quot;origItem&quot;:[&quot;Path&quot;,{&quot;applyMatrix&quot;:true,&quot;segments&quot;:[[[532.29413,365.8729],[2.2085,0.00088],[1.31654,2.26075]],[[539.67087,369.79629],[-2.37341,-0.21347],[5.65785,0.47581]],[[538.01846,364.51118],[2.12905,1.16866],[-2.94151,-0.8794]]],&quot;closed&quot;:true}]}" fill="url(#color-11)"/><path d="M319.84826,262.4778c0.71312,-1.95925 -1.20164,-3.07092 -2.40768,-4.51314l-1.09152,-0.43662c-0.52867,-0.19737 -0.9051,-0.70695 -0.9051,-1.30442c0,-0.66245 0.46274,-1.21679 1.08261,-1.35749l1.60136,-0.40032l0.00495,0.01966c7.06286,-4.33435 10.9719,-6.97361 16.9614,-14.64932l0.76908,-1.28187c0.24042,-0.41697 0.69085,-0.69764 1.20677,-0.69764c0.64063,0 1.18014,0.43279 1.34222,1.02192l0.39844,1.32803l-0.45851,0.13757c1.76349,5.7026 -1.6327,11.52339 -6.16422,16.16844c-0.07995,0.30712 -0.23206,0.52003 -0.23206,0.52003l-0.89508,1.18906c-2.62794,2.29944 -4.57772,4.26265 -7.3653,5.08952c-0.18201,0.11354 -0.36179,0.22371 -0.53924,0.33061l0.09493,0.28491l-1.59879,0.53295c-0.1471,0.05289 -0.30567,0.08168 -0.47098,0.08168c-0.76875,0 -1.39195,-0.62321 -1.39195,-1.39195c0,-0.04232 0.00183,-0.08413 0.00556,-0.12544c-0.01876,-0.30651 0.05318,-0.54615 0.05318,-0.54615z" fill="url(#color-12)"/><path d="M337.3568,227.31773l0.01871,0.10629l0.03686,0.01018l0.68229,1.65759c0.09727,0.20941 0.0279,0.72125 0.04643,0.90359c0.06586,0.64876 -0.26436,0.47394 -0.97843,-0.01035c-0.35701,-0.24214 -0.69358,-0.59287 -0.94913,-0.96413l-1.10215,-1.60119l0.28708,-0.07283l-0.17216,-0.38307c-1.75051,-2.51391 -3.20582,-5.12872 -5.28451,-7.32126c-0.33909,-0.04321 -0.69709,-0.12543 -1.07842,-0.26084c0,0 -1.17431,-0.42266 -1.72825,-1.82624c-0.01893,-0.04794 -0.0358,-0.09375 -0.05084,-0.13752c-0.27794,-0.38841 -0.4697,-0.80477 -0.50434,-1.14635c-0.0421,-0.41424 0.15696,-0.6183 0.49214,-0.58567l1.40487,0.10851c0,0 0.07515,0.0058 0.20105,0.04399c0.20957,-0.10869 0.3064,-0.0965 0.71541,0.1809c0.2329,0.15796 0.64475,0.42467 0.84341,0.65061l1.43521,1.60391c0,0 1.06836,1.13099 2.08627,2.71653c1.18678,1.84862 2.47994,4.31504 3.59846,6.3273z" fill="url(#color-13)"/><g><path d="M314.52376,212.64554c0.09488,-0.35528 0.16999,-0.76268 0.61452,-0.77354c0.66145,0.07295 1.42753,0.27176 2.04354,0.51874c0.70211,0.36263 0.44108,1.11914 0.50617,1.74496c0.09204,0.64581 0.56234,1.73387 0.15407,2.30757c-0.79764,0.47193 -1.21462,-0.3898 -1.92446,-0.52488c-0.36903,-0.0113 -0.71456,0.10573 -1.08177,0.01431c-0.39069,-0.09727 -0.64848,-0.42938 -1.01617,-0.55399c-0.18752,-0.03842 -0.72454,0.01687 -0.84192,-0.16938c-0.21425,-0.33997 0.53452,-0.74958 0.71113,-0.9115c0.46341,-0.40561 0.67793,-1.07197 0.83483,-1.65225z" fill="url(#color-14)"/><path d="M314.91351,212.02869c0.01515,0.01298 0.03023,0.02588 0.04538,0.03886c0.50094,0.28213 1.00765,0.4202 1.55753,0.56892c0.17778,0.03402 0.85288,-0.04771 0.95499,0.02823c0.15539,0.11548 0.19698,0.88316 -0.1019,0.62498c-0.35717,-0.72175 -0.10934,0.0216 -0.18985,0.31447c-0.08423,0.30634 -0.3579,0.14482 -0.41648,-0.06515c-0.10708,-0.07517 -0.30612,0.48941 -0.46446,0.48451c-0.52749,-0.01643 -0.20272,-0.62872 0.0079,-0.80449c0.20457,-0.1594 0.11358,-0.53912 -0.17099,-0.47426c-0.06175,0.01409 -0.41341,0.95371 -0.45533,0.3605c0.02355,-0.12266 -0.27771,-0.809 -0.41597,-0.67643c-0.07355,0.07055 -0.05485,0.49009 -0.23602,0.65929c-0.60087,0.39436 -0.17761,-0.66169 -0.24499,-1.02804c0,0 -0.01024,-0.06787 0.05579,-0.07967c0.05194,-0.0093 0.06937,0.03079 0.07444,0.04827z" fill="#ff6e00"/><path d="M317.06156,212.75444c-0.07378,-0.0001 -0.16174,-0.00495 -0.26553,-0.01509c-0.59742,-0.04745 -1.18388,-0.28284 -1.72691,-0.52281c-0.07729,-0.03425 -0.14416,-0.07918 -0.1893,-0.12628c-0.01983,-0.00401 -0.04321,-0.01676 -0.05066,-0.05351c-0.00173,-0.00846 -0.00211,-0.01609 -0.00162,-0.02299c-0.03334,-0.08397 0.02171,-0.16024 0.22916,-0.18012c0.36341,-0.03474 0.79192,0.05674 1.14173,0.15089c0.36931,0.09973 0.79107,0.20111 1.11244,0.41842c0.35478,0.23991 0.1721,0.38996 -0.18963,0.35428l-0.02794,0.00244c0,0 -0.01515,0.00089 -0.03168,-0.00529z" fill="#ff8629"/></g><g><path d="M293.33725,218.89043c-0.0613,-0.36257 -0.16224,-0.76441 0.23757,-0.95889c0.63194,-0.20845 1.41144,-0.34588 2.07439,-0.37716c0.78929,0.03819 0.86617,0.83467 1.18538,1.37691c0.352,0.54921 1.23182,1.34351 1.09881,2.03498c-0.52943,0.76067 -1.26677,0.15005 -1.96854,0.32215c-0.34035,0.14309 -0.60606,0.39297 -0.97805,0.4624c-0.39581,0.07383 -0.7683,-0.12115 -1.15448,-0.08174c-0.18653,0.04293 -0.65205,0.31636 -0.83618,0.19571c-0.33607,-0.22021 0.17478,-0.90387 0.26821,-1.12458c0.253,-0.56145 0.17127,-1.25677 0.07293,-1.84974z" fill="url(#color-15)"/><path d="M293.43541,218.16746c0.01915,0.0055 0.03825,0.01103 0.05746,0.01654c0.57287,0.0485 1.09112,-0.03641 1.65313,-0.12968c0.17588,-0.04293 0.756,-0.39771 0.88039,-0.37109c0.1893,0.04048 0.54615,0.72149 0.16698,0.61085c-0.62476,-0.50812 -0.09048,0.06508 -0.0421,0.36496c0.05061,0.31364 -0.26536,0.28045 -0.40589,0.11375c-0.12856,-0.02389 -0.07511,0.57237 -0.22121,0.63367c-0.48663,0.20423 -0.44553,-0.48769 -0.32706,-0.73506c0.11982,-0.22995 -0.12071,-0.53762 -0.35261,-0.36035c-0.05033,0.03847 0.02016,1.03923 -0.26441,0.51708c-0.02956,-0.12138 -0.58874,-0.62048 -0.6594,-0.44242c-0.03758,0.09471 0.15378,0.46854 0.0593,0.69776c-0.38273,0.60839 -0.43646,-0.5281 -0.64999,-0.83333c0,0 -0.03753,-0.05752 0.01765,-0.09571c0.04338,-0.03 0.07589,-0.00078 0.08776,0.01304z" fill="#ff6e00"/><path d="M295.69091,217.93517c-0.06714,0.03051 -0.14916,0.06276 -0.24781,0.09661c-0.56313,0.20506 -1.19447,0.23457 -1.78805,0.24186c-0.08452,0.001 -0.16396,-0.01214 -0.22465,-0.03619c-0.01966,0.00462 -0.04622,0.00273 -0.06833,-0.02761c-0.00511,-0.00702 -0.00869,-0.01381 -0.01103,-0.02026c-0.06525,-0.06259 -0.04682,-0.15484 0.13363,-0.25907c0.31614,-0.18262 0.7439,-0.27739 1.10125,-0.33707c0.37732,-0.06275 0.80311,-0.14571 1.18572,-0.08157c0.42243,0.07088 0.31859,0.28318 -0.02533,0.40105l-0.02438,0.01387c0,0 -0.01342,0.00713 -0.03102,0.00835z" fill="#ff8629"/></g><g><path d="M283.80496,235.61721c-0.23657,-0.28151 -0.52723,-0.57677 -0.28113,-0.94709c0.43913,-0.49999 1.04146,-1.01345 1.59713,-1.37642c0.69982,-0.36709 1.16968,0.28062 1.71967,0.58629c0.58177,0.2951 1.74284,0.53396 1.97857,1.19747c-0.07094,0.92404 -1.01601,0.77137 -1.53376,1.27536c-0.22093,0.29582 -0.32333,0.64592 -0.60878,0.8943c-0.30378,0.26424 -0.72375,0.28492 -1.03666,0.51464c-0.13903,0.13152 -0.40177,0.60316 -0.6217,0.59247c-0.40132,-0.01954 -0.3074,-0.8678 -0.33875,-1.10538c-0.06642,-0.61228 -0.48924,-1.17018 -0.87453,-1.63159z" fill="url(#color-16)"/><path d="M283.52317,234.94417c0.01932,-0.00495 0.03853,-0.00991 0.05784,-0.01486c0.51842,-0.24855 0.92219,-0.58435 1.35944,-0.94954c0.12984,-0.12616 0.45015,-0.72598 0.57092,-0.76607c0.18368,-0.06108 0.83644,0.3452 0.4535,0.44197c-0.79609,-0.12143 -0.04503,0.10195 0.14867,0.33591c0.20261,0.2447 -0.08664,0.37627 -0.29226,0.30378c-0.12293,0.04454 0.22533,0.53144 0.13045,0.65833c-0.31602,0.42271 -0.63128,-0.19459 -0.65445,-0.46786c-0.01319,-0.25895 -0.37649,-0.40227 -0.48656,-0.13195c-0.02389,0.05863 0.54403,0.88567 0.03413,0.57977c-0.08702,-0.08964 -0.82192,-0.23658 -0.79263,-0.04728c0.01565,0.10072 0.36997,0.326 0.40467,0.57153c-0.02161,0.71842 -0.64391,-0.23406 -0.98266,-0.38896c0,0 -0.06153,-0.03063 -0.0333,-0.09143c0.02222,-0.04788 0.06498,-0.03914 0.08223,-0.03324z" fill="#ff6e00"/><path d="M285.34986,233.60088c-0.04242,0.06035 -0.09676,0.12967 -0.16463,0.20885c-0.38155,0.46218 -0.91084,0.80755 -1.41891,1.11467c-0.07238,0.04365 -0.14749,0.07266 -0.21201,0.08263c-0.01464,0.01391 -0.03847,0.02583 -0.07289,0.0108c-0.00796,-0.00346 -0.01448,-0.00752 -0.01976,-0.01186c-0.08792,-0.02087 -0.11888,-0.10975 -0.01609,-0.29102c0.18001,-0.31764 0.50077,-0.61613 0.77855,-0.84869c0.29354,-0.24531 0.61847,-0.53262 0.98088,-0.67121c0.40004,-0.15301 0.41813,0.08263 0.18139,0.35856l-0.01403,0.02434c0,0 -0.00796,0.01292 -0.0225,0.02294z" fill="#ff8629"/></g><g data-paper-data="{&quot;index&quot;:null}"><path d="M305.7188,263.08225c-0.06086,-0.23179 -0.46848,-0.98155 -0.10428,-1.15136c0.19955,-0.09305 0.62103,0.24426 0.79953,0.31347c0.37655,0.09431 0.77314,-0.04532 1.15431,0.08446c0.35823,0.12199 0.58529,0.4074 0.90171,0.59782c0.66992,0.27076 1.4871,-0.22789 1.90213,0.60071c0.03258,0.70344 -0.95192,1.3635 -1.37898,1.85664c-0.39359,0.49097 -0.58373,1.26818 -1.37035,1.1929c-0.65171,-0.12595 -1.40341,-0.37354 -1.999,-0.67036c-0.3678,-0.24978 -0.21035,-0.63301 -0.09778,-0.98311c0.18223,-0.57281 0.3628,-1.24913 0.19281,-1.8411z" fill="url(#color-17)"/><path d="M305.43095,265.65329c-0.0491,-0.04571 -0.00378,-0.09727 -0.00378,-0.09727c0.255,-0.27154 0.47104,-1.38849 0.76262,-0.73156c0.06069,0.24036 -0.18223,0.58294 -0.15863,0.68205c0.04442,0.18629 0.6693,-0.22756 0.71596,-0.34347c0.35645,-0.47599 0.14331,0.50438 0.18764,0.54971c0.20417,0.20862 0.48624,-0.06131 0.40055,-0.30612c-0.08185,-0.2618 -0.02332,-0.95243 0.42894,-0.68061c0.13585,0.08162 -0.00251,0.66407 0.12811,0.65878c0.16297,-0.14488 0.48051,-0.13246 0.38546,0.17071c-0.09081,0.28985 -0.70171,0.78054 -0.01064,0.36719c0.39108,-0.05523 -0.05963,0.56774 -0.25278,0.58066c-0.12696,0.00846 -0.65026,-0.42571 -0.81819,-0.49341c-0.5428,-0.17282 -1.04357,-0.33101 -1.6175,-0.36508c-0.01971,0.00267 -0.03947,0.0054 -0.05924,0.00813c-0.01381,0.01198 -0.05011,0.03625 -0.08875,0.00033z" fill="#ff6e00"/><path d="M307.74804,266.21864l0.02217,0.01727c0.32354,0.16598 0.39587,0.39091 -0.03235,0.40054c-0.38786,0.00863 -0.79742,-0.1344 -1.16183,-0.25054c-0.34515,-0.1103 -0.75488,-0.26531 -1.04163,-0.49136c-0.16368,-0.12901 -0.16859,-0.22293 -0.09515,-0.27555c0.00328,-0.00601 0.00779,-0.01225 0.0138,-0.01848c0.02622,-0.02689 0.05268,-0.02484 0.07155,-0.01754c0.06354,-0.01515 0.14404,-0.01676 0.2275,-0.00367c0.58646,0.09226 1.20704,0.21191 1.73503,0.49554c0.09276,0.04771 0.16927,0.09125 0.2314,0.13111c0.0172,0.00367 0.0295,0.01265 0.0295,0.01265z" fill="#ff8629"/></g><g data-paper-data="{&quot;index&quot;:null}"><path d="M326.10184,258.05882c-0.23257,-0.05774 -1.086,-0.05963 -1.06034,-0.46067c0.01403,-0.21976 0.51219,-0.42782 0.6585,-0.55127c0.26341,-0.28518 0.33106,-0.70015 0.62771,-0.97236c0.27883,-0.25584 0.63818,-0.31826 0.95699,-0.50456c0.5589,-0.45796 0.51318,-1.41416 1.43939,-1.38097c0.63284,0.30874 0.73991,1.48917 0.96785,2.10039c0.24203,0.58083 0.83288,1.12046 0.38957,1.77461c-0.42304,0.51141 -1.00086,1.05231 -1.54701,1.43254c-0.3956,0.20294 -0.65633,-0.11898 -0.90949,-0.38563c-0.41519,-0.43462 -0.92219,-0.9174 -1.52313,-1.05214z" fill="url(#color-18)"/><path d="M328.21988,259.54447c-0.06364,0.02116 -0.08714,-0.04338 -0.08714,-0.04338c-0.11592,-0.354 -0.99252,-1.07926 -0.27622,-1.02008c0.24003,0.06202 0.42411,0.43947 0.52243,0.46631c0.1848,0.05039 0.12132,-0.69647 0.04203,-0.79296c-0.24676,-0.54102 0.51135,0.11609 0.57231,0.09894c0.281,-0.07906 0.17935,-0.45611 -0.0765,-0.49832c-0.26898,-0.05372 -0.84698,-0.4363 -0.39153,-0.70283c0.13675,-0.08002 0.5815,0.32065 0.63957,0.2035c-0.04894,-0.21246 0.11419,-0.48512 0.33463,-0.25628c0.21074,0.2187 0.34843,0.99012 0.31715,0.18547c0.13914,-0.36964 0.46958,0.32455 0.3883,0.50027c-0.0534,0.11548 -0.68545,0.36641 -0.82537,0.48134c-0.41196,0.39347 -0.79096,0.757 -1.09613,1.24424c-0.00712,0.01866 -0.0142,0.03719 -0.02127,0.05584c0.00389,0.01782 0.0078,0.06136 -0.04226,0.07801z" fill="#ff6e00"/><path d="M329.82719,257.78232l0.02572,-0.01119c0.30077,-0.20427 0.53289,-0.15985 0.33596,0.22054c-0.1784,0.34453 -0.50032,0.63523 -0.77704,0.89931c-0.26231,0.24999 -0.59486,0.53517 -0.93071,0.67838c-0.1917,0.08179 -0.27655,0.04104 -0.28741,-0.04867c-0.00373,-0.00579 -0.00701,-0.01269 -0.00957,-0.02098c-0.01102,-0.03592 0.00345,-0.05824 0.01893,-0.07121c0.01715,-0.06303 0.05439,-0.13441 0.1059,-0.20139c0.36223,-0.47037 0.76485,-0.9575 1.26689,-1.28477c0.0863,-0.05852 0.16129,-0.10477 0.22604,-0.14019c0.01153,-0.01336 0.02529,-0.01976 0.02529,-0.01976z" fill="#ff8629"/></g><g data-paper-data="{&quot;index&quot;:null}"><path d="M328.27367,237.96175c-0.23963,0.00322 -1.06552,0.2183 -1.14263,-0.176c-0.04226,-0.21608 0.38664,-0.54397 0.49676,-0.70054c0.18223,-0.34276 0.1422,-0.76129 0.35996,-1.09998c0.20468,-0.31832 0.53634,-0.46999 0.79731,-0.73122c0.42415,-0.58496 0.13691,-1.49818 1.04113,-1.70146c0.69058,0.13774 1.09413,1.25214 1.4699,1.78543c0.38167,0.50027 1.09033,0.87198 0.82788,1.61733c-0.27911,0.60211 -0.70053,1.27213 -1.13209,1.77875c-0.33101,0.29688 -0.66502,0.05178 -0.97766,-0.14181c-0.51202,-0.31485 -1.12509,-0.65288 -1.74054,-0.63044z" fill="url(#color-19)"/><path d="M330.69978,238.86022c-0.05613,0.03663 -0.09527,-0.01982 -0.09527,-0.01982c-0.20211,-0.31292 -1.23427,-0.79152 -0.52643,-0.91635c0.24793,-0.001 0.52193,0.31726 0.62376,0.31821c0.19158,0.00178 -0.05969,-0.70443 -0.16091,-0.77759c-0.37616,-0.46057 0.52404,-0.01765 0.57866,-0.04978c0.25166,-0.14788 0.05751,-0.48674 -0.20067,-0.46252c-0.27382,0.01643 -0.93005,-0.20667 -0.55728,-0.58021c0.11191,-0.1122 0.64386,0.16235 0.67025,0.03424c-0.10132,-0.19303 -0.01286,-0.4982 0.25851,-0.33295c0.2594,0.15796 0.58863,0.86901 0.35384,0.09871c0.04059,-0.39292 0.53668,0.19454 0.50272,0.38512c-0.02227,0.12528 -0.56982,0.52866 -0.67588,0.67526c-0.29838,0.48529 -0.57259,0.93317 -0.74385,1.48198c-0.00212,0.01983 -0.00428,0.03958 -0.0064,0.05941c0.0083,0.0162 0.02315,0.05734 -0.02105,0.08619z" fill="#ff6e00"/><path d="M331.80643,236.74741l0.02206,-0.01737c0.23897,-0.27399 0.47477,-0.29003 0.381,0.12789c-0.08497,0.37856 -0.32243,0.74152 -0.52293,1.06729c-0.19014,0.3084 -0.4393,0.66875 -0.72771,0.89269c-0.16464,0.12779 -0.25707,0.10997 -0.29036,0.026c-0.00511,-0.00462 -0.01002,-0.01047 -0.01459,-0.01788c-0.01983,-0.03191 -0.01147,-0.05719 0.00018,-0.07367c0.00061,-0.06531 0.01843,-0.14382 0.05128,-0.22171c0.23079,-0.54698 0.49631,-1.12046 0.8987,-1.56461c0.0686,-0.07856 0.1294,-0.14232 0.18301,-0.19303c0.00779,-0.01582 0.01943,-0.02555 0.01943,-0.02555z" fill="#ff8629"/></g><g><path d="M295.85355,243.04292c-0.12472,-0.03708 -0.21547,-0.09265 -0.28078,-0.15723c-1.02353,-0.47009 -8.72869,-7.77716 -8.64841,-8.03689c0.2015,-0.65193 1.75213,-1.07899 2.30441,-1.36567c1.30169,-0.09883 3.33583,0.28908 4.53413,-0.27092c1.23805,-0.57865 1.6474,-2.99147 3.22826,-3.00037c2.80048,-0.01582 2.3005,5.31903 3.90158,5.80137c5.03301,1.57228 -3.20343,4.53175 -4.27964,6.59861l0.00792,0.01525c0,0 -0.17577,0.59168 -0.76747,0.41591z" fill="url(#color-20)"/><path d="M321.44374,258.79176c-0.0059,0.02974 -0.01319,0.06025 -0.02193,0.09159c-0.23958,0.85933 -1.09897,0.6198 -1.09897,0.6198c-3.77558,-1.0557 -2.07049,-3.84033 -2.93406,-4.51615c-4.94315,-3.86862 -10.73143,-1.922 -6.15258,-10.32882c5.18456,-5.20484 4.20468,2.07429 5.81622,3.65053c0.87363,0.85449 2.60105,0.11169 3.66105,0.80461c1.39502,0.912 3.48778,6.0479 6.10287,2.1123c1.50803,-7.93571 7.50087,-0.66696 5.18846,4.34889c-1.92974,4.18581 -7.48195,1.6979 -10.56111,3.21724z" fill="url(#color-21)"/><path d="M311.85495,220.95804c1.9357,-0.16125 4.42512,-1.80758 6.15492,-1.29473c1.88653,0.55934 2.00919,3.62028 3.13205,5.06224l0.25345,0.07706c0,0 0.24153,0.14493 0.38334,0.4085c2.10089,1.26928 3.75486,2.61258 4.06338,3.64997c1.2665,4.25892 -3.18656,5.94218 -6.1631,3.68148c-0.92893,-0.87426 -1.77168,-0.85873 -2.9844,-0.50283l-0.68244,0.53023c0,0 -0.53189,0.39893 -1.04057,0.08652c-5.46134,1.7371 -17.69746,-11.23475 -3.7713,-11.38719c0.25946,-0.27828 0.65472,-0.31119 0.65472,-0.31119z" fill="url(#color-22)"/><path d="M338.78583,229.09342l0.37132,-0.07956l0.44526,2.07779c0.02427,0.10289 0.03707,0.2103 0.03707,0.32059c0,0.76874 -0.62321,1.39194 -1.39195,1.39194c-0.42053,0 -0.79753,-0.18647 -1.05275,-0.48122l-1.04819,-1.19797c-2.83685,-3.24446 -9.28536,-5.57213 -6.88236,-10.05911c-0.89992,-1.18455 -1.57401,-2.39198 -1.75245,-3.64351c-0.253,-0.24248 -0.5015,-0.45728 -0.74442,-0.63951l-0.05011,-0.14861l-0.05094,0.04454l-1.04891,-1.19881c-0.21709,-0.24549 -0.34888,-0.56819 -0.34888,-0.92164c0,-0.76874 0.62321,-1.39195 1.39195,-1.39195c0.36001,0 0.68806,0.13663 0.93516,0.36084l1.50085,1.35076l-0.10327,0.11475c5.15049,3.91133 9.03815,8.03978 9.79258,14.10061z" fill="url(#color-23)"/><path d="M287.35369,217.34749c0.0401,-0.05423 0.08063,-0.10863 0.12161,-0.16325c0,0 0.17907,-0.23874 0.4819,-0.41224c0.13218,-0.25206 0.33936,-0.45862 0.59185,-0.59008l1.63042,-0.88934l0.08324,0.15256c0.42293,-0.38045 0.87208,-0.7267 1.35838,-1.01884l0.38278,-0.2392c0.50534,-0.37137 1.00945,-0.67766 1.48777,-0.86212c0.1966,-0.31915 0.45306,-0.64269 0.78395,-0.97024l0.19793,-0.02172l-0.03652,-0.07305l1.47976,-0.73991c0.19342,-0.10183 0.41375,-0.15946 0.64753,-0.15946c0.76875,0 1.39194,0.62321 1.39194,1.39195c0,0.42054 -0.18647,0.79753 -0.48122,1.05275l-1.19797,1.0482l-0.24409,-0.27901l-0.15629,0.07817c-0.19671,0.22249 -0.39888,0.43796 -0.60589,0.64792c-0.88823,1.72713 1.47715,4.57929 -0.89685,7.02807c-4.71019,4.85846 -9.06682,5.48923 -9.93646,2.92236l-0.09582,0.14377c-0.24782,0.38379 -0.67933,0.63779 -1.17018,0.63779c-0.45316,0 -0.85582,-0.21659 -1.10999,-0.55188c1.24852,-1.61132 2.55589,-4.24488 3.37425,-6.37734c0.50656,-0.52275 1.09379,-1.06546 1.77685,-1.67263z" fill="url(#color-24)"/><path d="M305.59319,211.9459c0,0 -1.39195,0 -1.39195,-1.2291c0,-0.05 0.00234,-0.09806 0.00674,-0.14409c-0.00446,-0.04003 -0.00674,-0.08062 -0.00674,-0.12166c0,-0.60422 0.49365,-1.10655 1.14425,-1.20972l1.47952,-0.2613l0.07963,0.35162l0.28129,0.02483c0.15551,0.00095 0.31162,0.00234 0.46831,0.00423c1.1159,-0.13791 2.20184,-0.05122 3.39279,0.13173c3.08183,0.21398 6.21026,0.72303 8.95652,1.82752l0.10106,-0.32721l1.62613,0.39165c0.60589,0.13307 1.05487,0.61663 1.05487,1.19284c0,0.67882 -0.62321,1.22909 -1.39195,1.22909h-1.08054c-0.25445,0.24498 -0.62003,0.39866 -1.02614,0.39866h-1.65531c-0.71686,-0.01754 -1.45749,-0.04349 -2.20524,-0.09026c-0.3589,0.0123 -0.74647,0.03234 -1.15993,0.10144c-0.06169,0.04192 -0.12739,0.07934 -0.19666,0.1118l-1.10521,0.54214c-0.26848,1.07853 -1.54906,0.91702 -1.54906,0.91702l-1.77312,-0.42466c-0.1171,-0.09076 -0.2284,-0.19499 -0.33073,-0.30918c-0.56128,-0.16998 -1.10375,-0.37582 -1.51973,-0.52415l-0.07734,-0.4721l-0.2285,0.09177l-0.73996,-1.43766c-0.08786,-0.16114 -0.13714,-0.3418 -0.13714,-0.53261c0,-0.07189 0.00701,-0.14238 0.02043,-0.21091c-0.39286,-0.01692 -0.74196,-0.02454 -1.03616,-0.02159z" fill="url(#color-25)"/><path d="M302.03319,254.32945c0.67566,0.72599 0.82025,1.59194 0.88267,2.45902c0.01592,0.00846 0.03168,0.01727 0.04721,0.02645l1.3189,0.7399l-0.10055,0.2256c0.22339,0.10729 0.43022,0.2294 0.63395,0.37493c0.79084,0.39398 1.52273,1.07258 2.077,1.88664l0.04772,0.02384l0.92599,-0.31169l0.09777,0.36575c1.75158,-0.1883 3.41873,-0.11809 3.78865,1.88008c0.9413,5.08484 -4.05257,3.28638 -6.25496,2.13368c-0.62437,1.06451 -2.178,1.74768 -4.98852,1.74568c-0.31297,0.55421 -0.95042,0.62572 -0.95042,0.62572c-0.34621,0.03742 -0.78127,0.00345 -1.26801,-0.09015c-0.64168,-0.46803 -1.44134,-1.01279 -2.28614,-1.54467c-1.26929,-0.95671 -2.83969,-2.10976 -4.25668,-3.03306c-0.06793,-0.83589 0.48951,-1.66744 2.02389,-2.38363c2.18631,-1.02047 -3.917,-0.39191 -6.84605,-1.72033c-0.07695,-0.09999 -0.1609,-0.20139 -0.25093,-0.30329c0.13174,0.07517 -0.23129,-0.33445 -0.79437,-0.93237c-0.1682,-0.20941 -0.32778,-0.40762 -0.47911,-0.59519c-0.15044,-0.19956 -0.29419,-0.38996 -0.43161,-0.57169c-1.4253,-3.86784 3.77869,-3.57998 6.28409,-3.34024c1.56054,-0.14008 3.31329,0.25578 5.04782,0.9924c2.07479,-0.04827 4.33381,-0.15545 5.7316,1.34657z" fill="url(#color-26)"/><path d="" fill="url(#color-27)"/><path d="" fill="url(#color-28)"/><path d="M280.52831,243.7517c0,-0.23184 0.04922,-0.45044 0.13624,-0.64269c-0.12894,-0.11247 -0.22683,-0.24231 -0.29353,-0.3466c-0.10629,-0.95192 -0.32416,-2.01259 -0.43941,-2.61647c0.15879,-1.14234 0.18741,-2.39087 0.00501,-3.51829c0.10919,-0.1986 0.17128,-0.42683 0.17128,-0.66953c0,-0.1059 -0.01181,-0.20901 -0.03424,-0.30812c1.1268,-0.4109 1.50342,0.88996 1.50342,0.88996c0.25128,0.88394 0.39888,1.72625 0.50527,2.58563c0.03274,-0.03336 0.06793,-0.06636 0.10562,-0.09894c0.96701,-0.83516 1.69228,0.27838 1.69228,0.27838l0.45004,0.69938c0.21781,0.40127 0.43556,0.8026 0.65337,1.20388c0,0 0.6407,1.18038 -0.3844,1.9181c-0.12415,0.08936 -0.24271,0.15055 -0.35512,0.18913c-0.0711,0.69063 -0.58139,1.2263 -1.2003,1.2263c-0.09938,0 -0.19598,-0.01381 -0.28841,-0.03987c-0.21486,0.38596 -0.59068,0.64175 -1.0184,0.64175c-0.66764,0 -1.20882,-0.62321 -1.20882,-1.39195z" fill="url(#color-29)"/><path d="M311.16099,239.87679c-0.40901,0 -0.77682,-0.17639 -1.03154,-0.45728c-0.44603,-0.04086 -0.8311,-0.29215 -1.05527,-0.65366c-0.39587,-0.24543 -0.6595,-0.68384 -0.6595,-1.18388c0,-0.76874 0.62321,-1.39195 1.39194,-1.39195c0.50004,0 0.93845,0.26363 1.18388,0.6595c0.11108,0.06882 0.21174,0.15288 0.2991,0.24927c0.30612,0.02801 0.58361,0.15518 0.79998,0.34911c0.06336,-0.03887 0.13006,-0.07283 0.19961,-0.10128c-0.34215,-0.25361 -0.56396,-0.66039 -0.56396,-1.11896c0,-0.76874 0.62321,-1.39195 1.39195,-1.39195c0.76875,0 1.39195,0.62321 1.39195,1.39195c0,0.58222 -0.35751,1.08098 -0.86496,1.28871c0.12433,0.09215 0.2328,0.20445 0.32043,0.33218c0.72443,0.04883 1.29691,0.65193 1.29691,1.38878c0,0.76874 -0.62321,1.39195 -1.39194,1.39195c-0.47671,0 -0.89754,-0.2397 -1.14835,-0.60511c-0.31943,-0.02149 -0.60928,-0.15078 -0.83362,-0.35183c-0.21152,0.12973 -0.46041,0.20451 -0.72671,0.20451z" fill="url(#color-30)"/><path d="M323.00881,242.58547c-0.74358,0 -1.34836,-0.60543 -1.36556,-1.35898c-0.43886,-0.23156 -0.73874,-0.69853 -0.73874,-1.23689c0,-0.76874 0.61152,-1.39195 1.36589,-1.39195c0.26058,0 0.5041,0.07439 0.71129,0.20339c0.23368,-0.26107 0.506,-0.3844 0.506,-0.3844c1.16528,-0.48201 2.50907,-0.59041 3.75248,-0.39849l0.19867,-0.02244c0,0 1.36589,0 1.36589,1.39194c0,0.79826 -0.44921,1.13873 -0.83238,1.28394c0.24093,0.25093 0.38941,0.59441 0.38941,0.97325c0,0.76874 -0.61151,1.39194 -1.36589,1.39194c-0.56273,0 -1.04596,-0.34671 -1.2552,-0.84196c-0.20924,0.49525 -0.69246,0.84196 -1.2552,0.84196c-0.42894,0 -0.81173,-0.2015 -1.06217,-0.51669c-0.13073,0.04236 -0.27004,0.06527 -0.41451,0.06527z" fill="url(#color-31)"/><path d="M333.89896,231.6756c0.67716,0 1.22609,0.62321 1.22609,1.39196c0,0.62415 -0.36186,1.15231 -0.86034,1.32897c0.13541,0.36169 0.17232,0.86062 -0.2383,1.3934c-0.80739,1.04753 -1.73003,0.13095 -1.73003,0.13095c-0.35345,-0.3511 -0.70689,-0.70221 -1.06038,-1.05331l-0.42182,-0.72604c0,0 -0.54831,-1.24496 0.54832,-1.86749c0.67904,-0.38546 1.14781,-0.05485 1.40637,0.25278c0.18592,-0.50015 0.62186,-0.85115 1.13009,-0.85115z" fill="url(#color-32)"/><path d="M299.98285,224.75349c0.65199,0 1.18594,0.54782 1.23187,1.24212c0.4697,0.18958 0.80437,0.68027 0.80437,1.25571c0,0.73974 -0.55293,1.33944 -1.2351,1.33944c-0.53629,0 -0.99268,-0.3706 -1.16338,-0.88852c-0.20217,0.44081 -0.62171,0.74375 -1.10655,0.74375c-0.68217,0 -1.2351,-0.59971 -1.2351,-1.33944c0,-0.31709 0.10161,-0.6085 0.27143,-0.8379c0.05328,-0.68645 0.58395,-1.22553 1.23071,-1.22553c0.12851,0 0.25239,0.02127 0.36887,0.06075c0.21965,-0.21765 0.51196,-0.35038 0.83288,-0.35038z" fill="url(#color-33)"/><path d="M302.34659,215.26408c0.73345,0 1.32792,0.46591 1.32792,1.04068c0,0.56847 -0.58166,1.03054 -1.30409,1.04056c-0.08752,0.50834 -0.6433,0.9002 -1.31594,0.9002c-0.46218,0 -0.86919,-0.18502 -1.10704,-0.4657c-0.21725,0.34269 -0.66853,0.57822 -1.18995,0.57822c-0.73345,0 -1.32797,-0.4659 -1.32797,-1.04067c0,-0.50707 0.4628,-0.92949 1.07536,-1.02192c0.12339,-0.23613 0.31852,-0.38903 0.31852,-0.38903l0.01263,0.08819c0.19142,-0.33752 0.38285,-0.67504 0.57427,-1.01256c0,0 0.53929,-0.95102 1.75279,-0.52832c0.6143,0.21398 0.77944,0.5633 0.79275,0.8561c0.12349,-0.02979 0.25473,-0.04577 0.39074,-0.04577z" fill="url(#color-34)"/><path d="M324.25271,216.77801c0.76875,0 1.39195,0.54875 1.39195,1.22575c0,0.34687 -0.16358,0.66012 -0.4266,0.88312c-0.00128,0.16135 -0.04366,0.34192 -0.14482,0.54236c-0.00551,0.01085 -0.01103,0.02149 -0.01665,0.03207c0.08752,0.16046 0.13664,0.34031 0.13664,0.53017c0,0.67699 -0.62321,1.22575 -1.39195,1.22575c-0.75912,0 -1.37635,-0.53512 -1.39166,-1.20036c-0.06086,-0.10523 -0.10496,-0.21926 -0.12918,-0.33936c-0.1329,-0.052 -0.26586,-0.10406 -0.39881,-0.15606l-0.83016,-0.83695c0,0 -0.62248,-1.09636 0.62254,-1.64451c0.71295,-0.31391 1.22179,-0.08852 1.52646,0.16147c0.25522,-0.2593 0.632,-0.42338 1.05226,-0.42338z" fill="url(#color-35)"/><path d="M283.87116,232.95469c-0.20533,0 -0.39765,-0.07055 -0.56241,-0.19354c-0.08752,0.02811 -0.17928,0.04304 -0.27376,0.04304c-0.61023,0 -1.10493,-0.6232 -1.10493,-1.39194c0,-0.75445 0.47638,-1.36868 1.07091,-1.39133c0.00412,-0.07478 0.01247,-0.15339 0.02555,-0.23597c0.2167,-1.36494 1.3002,-1.0919 1.3002,-1.0919l1.17446,0.29594c0.08051,0.01826 0.15807,0.04744 0.23152,0.08635c0.20144,-0.33981 0.52327,-0.55979 0.88583,-0.55979c0.61023,0 1.10498,0.6232 1.10498,1.39194c0,0.4221 -0.14916,0.80026 -0.38468,1.05554c-0.10985,0.62298 -0.55104,1.08877 -1.0787,1.08877c-0.03362,0 -0.06692,-0.00189 -0.09977,-0.00556c-0.04109,0.1824 -0.12116,0.37498 -0.25579,0.57287c-0.63808,0.93778 -1.37051,0.33017 -1.52747,0.1814c-0.15161,0.0986 -0.32366,0.15423 -0.50606,0.15423z" fill="url(#color-36)"/><path d="M300.32633,245.61012c0.18451,0 0.36063,0.03301 0.52177,0.09303c0.21052,-0.46124 0.7061,-0.78517 1.28398,-0.78517c0.76875,0 1.39195,0.57332 1.39195,1.28054c0,0.20077 -0.05023,0.39069 -0.1397,0.55984c0.10924,0.02595 0.21325,0.06385 0.31036,0.11201c0.66998,0.09248 1.1837,0.62421 1.1837,1.26629c0,0.46101 -0.2648,0.86506 -0.66207,1.09056c-0.29109,0.98427 -1.47028,0.87582 -1.47028,0.87582c-1.00321,-0.09226 -2.0064,-0.18463 -3.00961,-0.27689l-1.38689,-0.54414c0,0 -1.24501,-0.57265 -0.62253,-1.718c0.32227,-0.59291 0.81129,-0.72543 1.20816,-0.7153c0.02416,-0.68779 0.63773,-1.23849 1.39122,-1.23849z" fill="url(#color-37)"/><path d="M290.39455,250.10951c-0.41152,0 -0.78121,-0.17851 -1.03605,-0.46236c-0.18374,-0.01943 -0.30701,-0.06047 -0.30701,-0.06047l-1.32385,-0.4413c-0.56876,-0.17494 -0.98216,-0.70454 -0.98216,-1.3307c0,-0.68423 0.49363,-1.25314 1.14423,-1.36996l1.23149,-0.24626c0.21614,-0.4883 0.70499,-0.82905 1.27342,-0.82905c0.76875,0 1.39195,0.6232 1.39195,1.39194c0,0.05702 -0.00346,0.11325 -0.01008,0.16848c0.28334,0.25478 0.46151,0.62426 0.46151,1.03534c0,0.4221 -0.18786,0.80025 -0.48458,1.05554c-0.13836,0.62298 -0.69419,1.08878 -1.35881,1.08878z" fill="url(#color-38)"/><path d="M311.76282,255.60208c0.76875,0 1.39194,0.54363 1.39194,1.21427c0,0.11369 -0.01792,0.22377 -0.05138,0.32817c0.03352,0.1044 0.05138,0.21447 0.05138,0.32817c0,0.67059 -0.6232,1.21429 -1.39194,1.21429c-0.40628,0 -0.77192,-0.15184 -1.02637,-0.39404c-0.00896,0.00011 -0.01798,0.00023 -0.027,0.00023c-0.76875,0 -1.39195,-0.54364 -1.39195,-1.21428c0,-0.67059 0.6232,-1.21428 1.39195,-1.21428c0.05936,0 0.11782,0.00322 0.17527,0.00951c0.23953,-0.1701 0.5452,-0.27209 0.87815,-0.27209z" fill="url(#color-39)"/><path d="M318.94593,263.84053c0.10206,0.57861 -0.42889,1.15592 -1.18594,1.2895c-0.34031,0.06002 -0.66836,0.02015 -0.93572,-0.09443c-0.22594,0.20183 -0.95666,0.74341 -1.86605,0.27232c-1.09997,-0.56981 -0.26141,-1.48164 -0.26141,-1.48164l0.31403,-0.30718c0.17466,-0.13162 0.34938,-0.26331 0.52398,-0.39497c-0.07695,-0.56752 0.44815,-1.12586 1.19101,-1.25693c0.74575,-0.13157 1.43271,0.21653 1.55063,0.78005c0.21436,0.20751 0.28445,0.41603 0.27616,0.60717c0.2074,0.14516 0.351,0.34699 0.39326,0.58602z" fill="url(#color-40)"/><path d="M323.44804,261.3304c-0.18991,-0.63299 0.25305,-1.32518 0.9894,-1.54611c0.73634,-0.22087 1.48722,0.11319 1.67708,0.74614c0.07851,0.26169 0.04888,0.53344 -0.06492,0.77787c0.12322,0.11998 0.22622,0.28346 0.29253,0.50439c0.34387,1.14613 -0.98939,1.54611 -0.98939,1.54611c-0.48044,0.14409 -1.10505,0.33151 -1.5855,0.47566c0,0 -1.33326,0.39999 -1.67706,-0.74614c-0.34387,-1.14613 0.98939,-1.54607 0.98939,-1.54607c0.13358,-0.04003 0.26709,-0.08018 0.40066,-0.1202c-0.01202,-0.02978 -0.02278,-0.06036 -0.03219,-0.09164z" fill="url(#color-41)"/><path d="M338.39797,239.65107c1.39195,0 1.39195,1.39195 1.39195,1.39195l-0.00691,0.28897c-0.16508,1.56945 -0.2682,4.04033 -1.27074,5.21174c-0.02545,0.24331 -0.0579,0.49681 -0.09788,0.76089l-0.02038,0.02768l0.01458,0.00295l-0.29593,1.47953c-0.1168,0.6506 -0.68573,1.14423 -1.36996,1.14423c-0.76875,0 -1.39194,-0.6232 -1.39194,-1.39194c0,-0.09454 0.00941,-0.18679 0.02739,-0.27599l0.29604,-1.62824l0.02071,0.00378c0.03729,-0.28518 0.06257,-0.60766 0.09098,-0.93739c-0.05244,-0.02633 -0.08184,-0.04471 -0.08184,-0.04471c-2.80834,-2.1598 -0.53485,-4.75947 1.25419,-4.11365c0.01983,-0.1672 0.03814,-0.33897 0.05473,-0.51581l-0.0069,-0.01197c0,0 0,-1.39194 1.39194,-1.39194z" fill="url(#color-42)"/></g><g><path d="M309.77576,267.27513c-4.8952,0 -9.50345,-1.2669 -13.53331,-3.50009c-1.49316,-1.135 -3.41284,-2.54855 -4.95467,-3.47993c-6.20425,-5.4159 -10.14301,-13.50613 -10.14301,-22.54517c0,-16.30629 12.81862,-29.52513 28.63099,-29.52513c15.81248,0 28.63099,13.2189 28.63099,29.52513c0,16.30629 -12.81856,29.52513 -28.63099,29.52513z" data-paper-data="{&quot;index&quot;:null}" fill="url(#color-43)"/><path d="M309.77576,267.98831c-3.63927,0 -7.12371,-0.68373 -10.33906,-1.93331c-0.60794,-0.52276 -1.82279,-1.4038 -3.15605,-2.25083c-2.03981,-1.55158 -4.89655,-3.64061 -6.48872,-4.29822c-0.35422,-0.382 -0.73088,-0.73841 -1.06712,-1.05683c-0.0716,-0.06786 -0.14204,-0.13418 -0.21119,-0.19921c-0.02656,-0.0668 -0.05951,-0.13747 -0.09943,-0.21202c-0.07984,-0.24999 -0.23073,-0.46792 -0.42861,-0.62944c-0.03062,-0.03825 -0.06258,-0.07722 -0.09582,-0.11687c-0.05045,-0.0888 -0.1107,-0.1712 -0.17917,-0.24571c-0.09204,-0.12745 -0.19665,-0.25807 -0.31174,-0.38952c0.1255,0.07227 -0.22016,-0.32133 -0.75617,-0.89575c-0.16008,-0.20116 -0.31207,-0.39157 -0.45611,-0.57181c-0.29248,-0.39153 -0.55862,-0.74669 -0.80004,-1.06779c-0.03508,-0.30751 -0.17349,-0.58318 -0.37933,-0.79096v0l-0.00862,-0.00868c-0.08346,-0.11225 -0.16532,-0.22243 -0.24571,-0.33056c-0.53067,-1.1645 -1.25592,-2.50947 -2.01047,-3.50755c-0.00896,-0.022 -0.01792,-0.04393 -0.02684,-0.06592c-0.89274,-5.27114 -0.95716,-4.92879 -0.73294,-3.09186c-0.20067,-0.68333 -0.44385,-1.3596 -0.65177,-2.04099c0.36185,-0.71535 -0.15333,-3.187 -0.35116,-4.23269c0.15116,-1.09747 0.17833,-2.29694 0.00478,-3.38004c0.10395,-0.19081 0.16303,-0.41007 0.16303,-0.64319c0,-0.3976 -0.17193,-0.75459 -0.44487,-0.99953c0.0446,-0.16231 0.02405,-0.34666 -0.07951,-0.55355c0.29053,-2.78228 0.94709,-5.45165 1.91889,-7.95555c1.35649,-1.47218 2.88217,-4.53752 3.75303,-6.88457c5.34837,-7.36068 13.87523,-12.1236 23.48079,-12.1236c16.19448,0 29.32257,13.5382 29.32257,30.2383c0,16.70021 -13.12819,30.2383 -29.32257,30.2383z" data-paper-data="{&quot;index&quot;:null}" fill="url(#color-44)"/></g><path d="M300.84608,265.7765c-0.64704,-0.19588 -0.51173,0.90577 -2.47733,0.55617c-0.65589,-0.48145 -1.48783,-1.04985 -2.3687,-1.60435c-1.30487,-0.98334 -2.92699,-2.17345 -4.37562,-3.1104c-0.02678,-0.27783 -0.08696,-0.52459 -0.46647,-0.79842c-0.82954,-0.67348 -1.72692,-1.3924 -2.48157,-2.1524c-0.1329,-0.13385 -0.46474,-0.47872 -0.97202,-0.76235c-0.28012,-0.15662 -0.53957,-0.22833 -0.77832,-0.29058c-0.08596,-0.11419 -0.18135,-0.23057 -0.28469,-0.34749c0.13212,0.07533 -0.23196,-0.33541 -0.79675,-0.93506c-0.1687,-0.20997 -0.32878,-0.40878 -0.48061,-0.59692c-0.18669,-0.24759 -0.36325,-0.48122 -0.52988,-0.70148c-0.24759,-0.67432 -0.47505,-1.38282 -0.73284,-1.80425c-1.31606,-2.15144 -2.31354,-4.48475 -3.00616,-6.9298c-0.18669,-0.95466 -0.26754,-1.21946 -0.27533,-1.04279c-0.0387,-0.1579 -0.07617,-0.3162 -0.11241,-0.47489c-0.0701,-0.30701 -0.23796,-0.61547 -0.29649,-0.9253c-0.05662,-0.29949 0.01069,-0.62604 -0.05579,-0.91658c-0.08197,-1.03895 -0.34621,-2.31838 -0.4776,-3.0065c0.15929,-1.14574 0.18791,-2.39783 0.00501,-3.52854c0.10951,-0.19916 0.17183,-0.42799 0.17183,-0.67142c0,-0.13574 -0.01937,-0.26697 -0.0555,-0.39102c0.03926,-0.05456 0.06564,-0.12973 0.07388,-0.23585c0.2677,-3.44485 1.03639,-6.36032 2.40825,-9.36671c0.08207,-0.14639 -0.25345,-0.19097 -0.53106,-0.43206c1.31516,-1.66265 2.70611,-4.48859 3.53294,-6.69951c0.51485,-0.51858 1.07353,-1.02843 1.68882,-1.56822c0.28329,-0.24855 1.04525,-1.03639 1.19914,-1.17753c0.82766,-0.75862 1.31416,-0.57209 1.92256,-0.98996c0.33012,-0.22672 0.56173,-0.34642 0.90131,-0.56552c0.53656,-0.34621 1.70558,-1.09758 2.26453,-1.42518c0.46686,-0.27361 -0.10278,-0.40043 1.52485,-1.2831c1.87624,-1.01746 1.52168,-0.26257 2.21904,-0.5771c1.47631,-0.66584 2.6246,-1.38766 4.1391,-1.81767c2.4975,-0.70911 5.41046,-0.91557 8.15004,-0.91557c3.89679,0 7.63605,1.04045 11.19299,2.54755c0.3815,0.16164 1.18399,0.15947 1.56132,0.33118c0.16541,0.07528 0.40912,0.4913 0.56341,0.57091c1.00888,0.52053 1.64373,0.86976 2.68412,1.42821c0.29388,0.15774 1.34467,-0.44226 1.62897,-0.27706c0.79414,0.46141 1.05716,0.95442 1.80097,1.47763c3.67908,2.58814 6.69828,5.91557 8.62134,9.81108c0.61836,1.25258 0.94279,3.1128 1.28075,4.55146c0.19432,0.8271 0.4241,-1.29257 0.89814,1.66944c0.43,2.68674 -1.24645,1.56884 -1.17085,1.99483c0.29326,1.65141 0.4462,3.35059 0.4462,5.08518c0,0.32717 -0.55036,1.31494 -0.43812,1.66638c0.17032,0.53328 1.03978,0.42782 1.14223,0.85544c0.23368,0.97514 0.1181,1.64802 0.05957,2.6893c-0.09248,1.64679 -1.13817,3.64218 -1.40103,5.28657c-0.4722,2.95394 -1.93352,1.33115 -2.18307,1.85752c-1.7194,3.62681 -4.07601,6.60385 -6.98179,9.349c-0.68768,0.64959 -1.27614,1.52235 -2.01638,2.10852c-0.79519,0.62966 -0.61652,1.22163 -1.49417,1.77329c-0.67298,0.42299 -1.60236,0.80638 -2.15824,0.79842c-0.46774,-0.00668 -0.59698,-0.3893 -0.8227,-0.27728c-3.97518,1.97283 -8.63204,3.5909 -13.38236,3.5909c0,0 -0.97809,0.10055 -2.3191,-0.03831c-1.90859,-0.19759 -4.55235,-0.8757 -6.15827,-1.36183z" data-paper-data="{&quot;index&quot;:null}" fill="url(#color-45)"/><path d="M300.84608,265.7765c-0.64704,-0.19588 -0.51173,0.90577 -2.47733,0.55617c-0.65589,-0.48145 -1.48783,-1.04985 -2.3687,-1.60435c-1.30487,-0.98334 -2.92699,-2.17345 -4.37562,-3.1104c-0.02678,-0.27783 -0.08696,-0.52459 -0.46647,-0.79842c-0.82954,-0.67348 -1.72692,-1.3924 -2.48157,-2.1524c-0.1329,-0.13385 -0.46474,-0.47872 -0.97202,-0.76235c-0.28012,-0.15662 -0.53957,-0.22833 -0.77832,-0.29058c-0.08596,-0.11419 -0.18135,-0.23057 -0.28469,-0.34749c0.13212,0.07533 -0.23196,-0.33541 -0.79675,-0.93506c-0.1687,-0.20997 -0.32878,-0.40878 -0.48061,-0.59692c-0.18669,-0.24759 -0.36325,-0.48122 -0.52988,-0.70148c-0.24759,-0.67432 -0.47505,-1.38282 -0.73284,-1.80425c-1.31606,-2.15144 -2.31354,-4.48475 -3.00616,-6.9298c-0.18669,-0.95466 -0.26754,-1.21946 -0.27533,-1.04279c-0.0387,-0.1579 -0.07617,-0.3162 -0.11241,-0.47489c-0.0701,-0.30701 -0.23796,-0.61547 -0.29649,-0.9253c-0.05662,-0.29949 0.01069,-0.62604 -0.05579,-0.91658c-0.08197,-1.03895 -0.34621,-2.31838 -0.4776,-3.0065c0.15929,-1.14574 0.18791,-2.39783 0.00501,-3.52854c0.10951,-0.19916 0.17183,-0.42799 0.17183,-0.67142c0,-0.13574 -0.01937,-0.26697 -0.0555,-0.39102c0.03926,-0.05456 0.06564,-0.12973 0.07388,-0.23585c0.2677,-3.44485 1.03639,-6.36032 2.40825,-9.36671c0.08207,-0.14639 -0.25345,-0.19097 -0.53106,-0.43206c1.31516,-1.66265 2.70611,-4.48859 3.53294,-6.69951c0.51485,-0.51858 1.07353,-1.02843 1.68882,-1.56822c0.28329,-0.24855 1.04525,-1.03639 1.19914,-1.17753c0.82766,-0.75862 1.31416,-0.57209 1.92256,-0.98996c0.33012,-0.22672 0.56173,-0.34642 0.90131,-0.56552c0.53656,-0.34621 1.70558,-1.09758 2.26453,-1.42518c0.46686,-0.27361 -0.10278,-0.40043 1.52485,-1.2831c1.87624,-1.01746 1.52168,-0.26257 2.21904,-0.5771c1.47631,-0.66584 2.6246,-1.38766 4.1391,-1.81767c2.4975,-0.70911 5.41046,-0.91557 8.15004,-0.91557c3.89679,0 7.63605,1.04045 11.19299,2.54755c0.3815,0.16164 1.18399,0.15947 1.56132,0.33118c0.16541,0.07528 0.40912,0.4913 0.56341,0.57091c1.00888,0.52053 1.64373,0.86976 2.68412,1.42821c0.29388,0.15774 1.34467,-0.44226 1.62897,-0.27706c0.79414,0.46141 1.05716,0.95442 1.80097,1.47763c3.67908,2.58814 6.69828,5.91557 8.62134,9.81108c0.61836,1.25258 0.94279,3.1128 1.28075,4.55146c0.19432,0.8271 0.4241,-1.29257 0.89814,1.66944c0.43,2.68674 -1.24645,1.56884 -1.17085,1.99483c0.29326,1.65141 0.4462,3.35059 0.4462,5.08518c0,0.32717 -0.55036,1.31494 -0.43812,1.66638c0.17032,0.53328 1.03978,0.42782 1.14223,0.85544c0.23368,0.97514 0.1181,1.64802 0.05957,2.6893c-0.09248,1.64679 -1.13817,3.64218 -1.40103,5.28657c-0.4722,2.95394 -1.93352,1.33115 -2.18307,1.85752c-1.7194,3.62681 -4.07601,6.60385 -6.98179,9.349c-0.68768,0.64959 -1.27614,1.52235 -2.01638,2.10852c-0.79519,0.62966 -0.61652,1.22163 -1.49417,1.77329c-0.67298,0.42299 -1.60236,0.80638 -2.15824,0.79842c-0.46774,-0.00668 -0.59698,-0.3893 -0.8227,-0.27728c-3.97518,1.97283 -8.63204,3.5909 -13.38236,3.5909c0,0 -0.97809,0.10055 -2.3191,-0.03831c-1.90859,-0.19759 -4.55235,-0.8757 -6.15827,-1.36183z" data-paper-data="{&quot;index&quot;:null}" fill="url(#color-46)"/></g></g></g></svg>