<svg version="1.1" xmlns="http://www.w3.org/2000/svg" xmlns:xlink="http://www.w3.org/1999/xlink" width="274.54427" height="195.41912" viewBox="0,0,274.54427,195.41912"><defs><radialGradient cx="310.0625" cy="237.95935" r="38.33033" gradientUnits="userSpaceOnUse" id="color-1"><stop offset="0" stop-color="#696969"/><stop offset="1" stop-color="#0a0a0a"/></radialGradient><linearGradient x1="310.0625" y1="200.34215" x2="310.0625" y2="275.57656" gradientUnits="userSpaceOnUse" id="color-2"><stop offset="0" stop-color="#636363"/><stop offset="1" stop-color="#424242"/></linearGradient><radialGradient cx="304.60123" cy="208.98072" r="18.9493" gradientUnits="userSpaceOnUse" id="color-3"><stop offset="0" stop-color="#87859e"/><stop offset="1" stop-color="#595761"/></radialGradient><linearGradient x1="291.23393" y1="213.09375" x2="328.98564" y2="213.09375" gradientUnits="userSpaceOnUse" id="color-4"><stop offset="0" stop-color="#272727"/><stop offset="1" stop-color="#101010"/></linearGradient><linearGradient x1="305.88334" y1="212.93567" x2="310.0426" y2="212.93567" gradientUnits="userSpaceOnUse" id="color-5"><stop offset="0" stop-color="#272727"/><stop offset="1" stop-color="#101010"/></linearGradient><linearGradient x1="314.48947" y1="212.68004" x2="310.3302" y2="212.68004" gradientUnits="userSpaceOnUse" id="color-6"><stop offset="0" stop-color="#101010"/><stop offset="1" stop-color="#272727"/></linearGradient><linearGradient x1="305.88334" y1="225.32087" x2="310.0426" y2="225.32087" gradientUnits="userSpaceOnUse" id="color-7"><stop offset="0" stop-color="#272727"/><stop offset="1" stop-color="#101010"/></linearGradient><linearGradient x1="314.48947" y1="225.24149" x2="310.3302" y2="225.24149" gradientUnits="userSpaceOnUse" id="color-8"><stop offset="0" stop-color="#101010"/><stop offset="1" stop-color="#272727"/></linearGradient><linearGradient x1="309.86879" y1="213.6195" x2="310.49762" y2="213.6195" gradientUnits="userSpaceOnUse" id="color-9"><stop offset="0" stop-color="#272727"/><stop offset="1" stop-color="#101010"/></linearGradient><linearGradient x1="309.86879" y1="225.53322" x2="310.49762" y2="225.53322" gradientUnits="userSpaceOnUse" id="color-10"><stop offset="0" stop-color="#272727"/><stop offset="1" stop-color="#101010"/></linearGradient><radialGradient cx="299.7256" cy="213.39182" r="20.18191" gradientUnits="userSpaceOnUse" id="color-11"><stop offset="0" stop-color="#a9a7c7"/><stop offset="1" stop-color="#878593"/></radialGradient><linearGradient x1="290.13806" y1="214.68191" x2="330.37528" y2="214.68191" gradientUnits="userSpaceOnUse" id="color-12"><stop offset="0" stop-color="#272727"/><stop offset="1" stop-color="#101010"/></linearGradient><radialGradient cx="310.28778" cy="206.52714" r="1.29213" gradientUnits="userSpaceOnUse" id="color-13"><stop offset="0" stop-color="#c4c4c4"/><stop offset="1" stop-color="#a4a4a4"/></radialGradient><linearGradient x1="309.03481" y1="206.52714" x2="311.54076" y2="206.52714" gradientUnits="userSpaceOnUse" id="color-14"><stop offset="0" stop-color="#272727"/><stop offset="1" stop-color="#101010"/></linearGradient><radialGradient cx="303.19831" cy="226.73703" r="17.17037" gradientUnits="userSpaceOnUse" id="color-15"><stop offset="0" stop-color="#989898"/><stop offset="1" stop-color="#717171"/></radialGradient><radialGradient cx="300.89558" cy="248.98307" r="19.62328" gradientUnits="userSpaceOnUse" id="color-16"><stop offset="0" stop-color="#fff831"/><stop offset="1" stop-color="#d5a500"/></radialGradient><radialGradient cx="300.69484" cy="260.15876" r="18.43534" gradientUnits="userSpaceOnUse" id="color-17"><stop offset="0" stop-color="#989898"/><stop offset="1" stop-color="#717171"/></radialGradient><radialGradient cx="299.78895" cy="269.09298" r="20.18191" gradientUnits="userSpaceOnUse" id="color-18"><stop offset="0" stop-color="#c4c4c4"/><stop offset="1" stop-color="#a4a4a4"/></radialGradient><radialGradient cx="303.24834" cy="256.50607" r="17.22043" gradientUnits="userSpaceOnUse" id="color-19"><stop offset="0" stop-color="#555555"/><stop offset="1" stop-color="#4b4b4b"/></radialGradient><radialGradient cx="303.19831" cy="237.32035" r="17.17037" gradientUnits="userSpaceOnUse" id="color-20"><stop offset="0" stop-color="#989898"/><stop offset="1" stop-color="#717171"/></radialGradient><radialGradient cx="310.25667" cy="248.38347" r="11.81401" gradientUnits="userSpaceOnUse" id="color-21"><stop offset="0" stop-color="#191919"/><stop offset="1" stop-color="#0f0f0f"/></radialGradient><radialGradient cx="303.24834" cy="229.17365" r="17.22043" gradientUnits="userSpaceOnUse" id="color-22"><stop offset="0" stop-color="#555555"/><stop offset="1" stop-color="#4b4b4b"/></radialGradient><radialGradient cx="310.25667" cy="262.86064" r="11.81401" gradientUnits="userSpaceOnUse" id="color-23"><stop offset="0" stop-color="#626262"/><stop offset="1" stop-color="#515151"/></radialGradient><radialGradient cx="310.25667" cy="265.14335" r="11.81401" gradientUnits="userSpaceOnUse" id="color-24"><stop offset="0" stop-color="#626262"/><stop offset="1" stop-color="#515151"/></radialGradient><radialGradient cx="304.39973" cy="229.16024" r="12.06431" gradientUnits="userSpaceOnUse" id="color-25"><stop offset="0" stop-color="#191919"/><stop offset="1" stop-color="#000000"/></radialGradient><linearGradient x1="310.25667" y1="227.65889" x2="310.25667" y2="234.26673" gradientUnits="userSpaceOnUse" id="color-26"><stop offset="0" stop-color="#262626"/><stop offset="1" stop-color="#050505"/></linearGradient></defs><g transform="translate(-269.71934,-160.0288)"><g data-paper-data="{&quot;isPaintingLayer&quot;:true}" fill-rule="nonzero" stroke-linejoin="miter" stroke-miterlimit="10" stroke-dasharray="" stroke-dashoffset="0" style="mix-blend-mode: normal"><text transform="translate(270.03139,187.4892) scale(0.6241,0.6241)" font-size="40" xml:space="preserve" fill="#ffffff" fill-rule="nonzero" stroke="none" stroke-width="1" stroke-linecap="butt" stroke-linejoin="miter" stroke-miterlimit="10" stroke-dasharray="" stroke-dashoffset="0" font-family="Malgun Gothic" font-weight="normal" text-anchor="start" style="mix-blend-mode: normal"><tspan x="0" dy="0">Megastructure Receiver</tspan></text><text transform="translate(354.45437,215.62294) scale(0.45565,0.45565)" font-size="40" xml:space="preserve" fill="#d8d8d8" fill-rule="nonzero" stroke="none" stroke-width="1" stroke-linecap="butt" stroke-linejoin="miter" stroke-miterlimit="10" stroke-dasharray="" stroke-dashoffset="0" font-family="Malgun Gothic" font-weight="normal" text-anchor="start" style="mix-blend-mode: normal"><tspan x="0" dy="0">Obtained by:</tspan></text><text transform="translate(354.45437,256.62748) scale(0.45566,0.45566)" font-size="40" xml:space="preserve" fill="#d8d8d8" fill-rule="nonzero" stroke="none" stroke-width="1" stroke-linecap="butt" stroke-linejoin="miter" stroke-miterlimit="10" stroke-dasharray="" stroke-dashoffset="0" font-family="Malgun Gothic" font-weight="normal" text-anchor="start" style="mix-blend-mode: normal"><tspan x="0" dy="0">Materials:</tspan></text><text transform="translate(271.38374,296.92705) scale(0.45566,0.45566)" font-size="40" xml:space="preserve" fill="#d8d8d8" fill-rule="nonzero" stroke="none" stroke-width="1" stroke-linecap="butt" stroke-linejoin="miter" stroke-miterlimit="10" stroke-dasharray="" stroke-dashoffset="0" font-family="Malgun Gothic" font-weight="normal" text-anchor="start" style="mix-blend-mode: normal"><tspan x="0" dy="0">Description:</tspan></text><text transform="translate(355.17564,233.72207) scale(0.37382,0.37382)" font-size="40" xml:space="preserve" fill="#9f9f9f" fill-rule="nonzero" stroke="none" stroke-width="1" stroke-linecap="butt" stroke-linejoin="miter" stroke-miterlimit="10" stroke-dasharray="" stroke-dashoffset="0" font-family="Malgun Gothic" font-weight="normal" text-anchor="start" style="mix-blend-mode: normal"><tspan x="0" dy="0">Advanced Factory</tspan></text><path d="M271.73217,275.57656v-75.23442h76.66066v75.23442z" fill="url(#color-1)" stroke="url(#color-2)" stroke-width="3.5" stroke-linecap="butt"/><text transform="translate(271.64333,315.44811) scale(0.37383,0.37383)" font-size="40" xml:space="preserve" fill="#9f9f9f" fill-rule="nonzero" stroke="none" stroke-width="1" stroke-linecap="butt" stroke-linejoin="miter" stroke-miterlimit="10" stroke-dasharray="" stroke-dashoffset="0" font-family="Malgun Gothic" font-weight="normal" text-anchor="start" style="mix-blend-mode: normal"><tspan x="0" dy="0">Teleports resources from Planetary</tspan><tspan x="0" dy="48px">Harvesters down to the surface of</tspan><tspan x="0" dy="48px">the given planet.</tspan></text><g><path d="M291.38081,211.7717l-0.1469,-6.16954c0,0 12.40418,1.76273 18.8024,1.76273c6.17796,0 19.09619,-1.61583 19.09619,-1.61583v5.72886c0,0 -2.00004,12.00194 -18.64983,11.60056c-16.79529,-0.40488 -19.10188,-11.30678 -19.10188,-11.30678z" fill="url(#color-3)" stroke="url(#color-4)" stroke-width="0.5" stroke-linecap="butt"/><path d="M305.88334,219.92819l4.15924,-13.98503" fill="none" stroke="url(#color-5)" stroke-width="0.5" stroke-linecap="round"/><path d="M314.48945,219.67255l-4.15924,-13.98503" data-paper-data="{&quot;index&quot;:null}" fill="none" stroke="url(#color-6)" stroke-width="0.5" stroke-linecap="round"/><path d="M310.04258,223.1495l-4.15924,4.34274" fill="none" stroke="url(#color-7)" stroke-width="0.5" stroke-linecap="round"/><path d="M310.3302,223.07012l4.15924,4.34274" data-paper-data="{&quot;index&quot;:null}" fill="none" stroke="url(#color-8)" stroke-width="0.5" stroke-linecap="round"/><path d="M310.18323,220.00562v-12.77224" fill="none" stroke="url(#color-9)" stroke-width="0.5" stroke-linecap="round"/><path d="M310.18323,227.51628v-3.96613" fill="none" stroke="url(#color-10)" stroke-width="0.5" stroke-linecap="round"/><path d="M330.37528,204.92575c0,0 -0.11732,4.07282 -0.32533,5.76189c-0.21133,1.71603 -0.93283,4.45469 -0.93283,4.45469c0,0 -0.2534,7.29377 -13.24197,8.6049c-1.45118,0.14649 -5.71148,0.9432 -5.71148,0.9432c0,0 -3.97052,-0.75319 -5.77776,-0.99868c-12.55176,-1.705 -12.86512,-8.54942 -12.86512,-8.54942c0,0 -0.97429,-2.32384 -1.19721,-3.83278c-0.27081,-1.83311 -0.16524,-6.38381 -0.16524,-6.38381c0,0 0.91874,-0.83588 1.67281,0.53499c0.30223,0.54944 0.08481,2.93293 0.52882,3.59394c1.25788,1.87267 2.03012,6.4493 4.56594,8.50016c1.80902,1.46305 5.02051,0.55864 7.64793,1.39482c1.64599,0.52384 5.58983,1.69372 5.58983,1.69372c0,0 3.97897,-1.10154 5.73974,-1.68563c2.00124,-0.66385 6.11364,-0.11763 7.65381,-1.16958c3.52229,-2.40576 3.53355,-6.95639 4.94027,-9.16359c0.41227,-0.64686 0.16105,-2.42105 0.42918,-2.94043c0.60313,-1.16829 1.44861,-0.75841 1.44861,-0.75841z" data-paper-data="{&quot;index&quot;:null}" fill="url(#color-11)" stroke="url(#color-12)" stroke-width="0.5" stroke-linecap="butt"/><path d="M311.54076,206.52714c0,0.692 -0.56098,1.25298 -1.25298,1.25298c-0.692,0 -1.25298,-0.56098 -1.25298,-1.25298c0,-0.692 0.56098,-1.25298 1.25298,-1.25298c0.692,0 1.25298,0.56098 1.25298,1.25298z" fill="url(#color-13)" stroke="url(#color-14)" stroke-width="0.5" stroke-linecap="butt"/><path d="M293.08628,228.62019v-2.56151h34.34073v2.56151z" fill="url(#color-15)" stroke="#000000" stroke-width="0.5" stroke-linecap="butt"/><path d="M290.63338,269.55858v-29.13456h39.24655v29.13456z" fill="url(#color-16)" stroke="#000000" stroke-width="0.5" stroke-linecap="butt"/><path d="M291.82133,271.17194l1.37872,-13.29035h34.34268l1.14928,13.29035z" fill="url(#color-17)" stroke="#000000" stroke-width="0.5" stroke-linecap="butt"/><path d="M290.07475,271.10763l1.50934,-2.43121h37.59633l1.25816,2.43121z" fill="url(#color-18)" stroke="#000000" stroke-width="0.5" stroke-linecap="butt"/><path d="M293.03625,257.84469v-1.90225h34.44085v1.90225z" fill="url(#color-19)" stroke="#000000" stroke-width="0.5" stroke-linecap="butt"/><path d="M293.08628,255.94243v-25.33004h34.34073v25.33004z" fill="url(#color-20)" stroke="#000000" stroke-width="0.5" stroke-linecap="butt"/><path d="M299.69413,260.79819v-24.82945h21.12506v24.82945z" fill="url(#color-21)" stroke="#000000" stroke-width="0.5" stroke-linecap="butt"/><path d="M293.03625,230.51227v-1.90226h34.44085v1.90226z" fill="url(#color-22)" stroke="#000000" stroke-width="0.5" stroke-linecap="butt"/><path d="M299.69413,263.52142v-1.32157h21.12506v1.32157z" fill="url(#color-23)" stroke="#000000" stroke-width="0.5" stroke-linecap="butt"/><path d="M299.69413,265.80413v-1.32157h21.12506v1.32157z" fill="url(#color-24)" stroke="#000000" stroke-width="0.5" stroke-linecap="butt"/><path d="M298.19237,234.26673v-6.60784h24.12862v6.60784z" fill="url(#color-25)" stroke="url(#color-26)" stroke-width="0.5" stroke-linecap="butt"/><text transform="translate(302.85042,230.62802) scale(0.06373,0.06373)" font-size="40" xml:space="preserve" fill="#ff0000" fill-rule="nonzero" stroke="none" stroke-width="1" stroke-linecap="butt" stroke-linejoin="miter" stroke-miterlimit="10" stroke-dasharray="" stroke-dashoffset="0" font-family="Pixel" font-weight="normal" text-anchor="start" style="mix-blend-mode: normal"><tspan x="0" dy="0">Waiting for</tspan><tspan x="0" dy="46.150000000000006px">harvester.</tspan></text></g><text transform="translate(355.17564,272.67184) scale(0.22056,0.22056)" font-size="40" xml:space="preserve" fill="#9f9f9f" fill-rule="nonzero" stroke="none" stroke-width="1" stroke-linecap="butt" stroke-linejoin="miter" stroke-miterlimit="10" stroke-dasharray="" stroke-dashoffset="0" font-family="Malgun Gothic" font-weight="normal" text-anchor="start" style="mix-blend-mode: normal"><tspan x="0" dy="0">Copper (x250), Titanium (x150), Gravitite (x100)</tspan></text></g></g></svg>