<svg version="1.1" xmlns="http://www.w3.org/2000/svg" xmlns:xlink="http://www.w3.org/1999/xlink" width="535.67493" height="440.13803" viewBox="0,0,535.67493,440.13803"><defs><radialGradient cx="239.76178" cy="177.81006" r="244" gradientUnits="userSpaceOnUse" id="color-1"><stop offset="0" stop-color="#121212"/><stop offset="1" stop-color="#868686"/></radialGradient><radialGradient cx="240.00005" cy="180" r="173.5" gradientUnits="userSpaceOnUse" id="color-2"><stop offset="0" stop-color="#000000"/><stop offset="1" stop-color="#000000" stop-opacity="0"/></radialGradient><radialGradient cx="237.93829" cy="318.1666" r="116.49049" gradientUnits="userSpaceOnUse" id="color-3"><stop offset="0" stop-color="#33266a"/><stop offset="1" stop-color="#949074"/></radialGradient><linearGradient x1="242.7439" y1="206.71003" x2="247.12426" y2="240.06435" gradientUnits="userSpaceOnUse" id="color-4"><stop offset="0" stop-color="#5fa5c2"/><stop offset="1" stop-color="#7fff7d"/></linearGradient><radialGradient cx="217.12983" cy="96.63091" r="64.41492" gradientUnits="userSpaceOnUse" id="color-5"><stop offset="0" stop-color="#ffa8a8"/><stop offset="1" stop-color="#ffed7d"/></radialGradient><radialGradient cx="232.39258" cy="141.39011" r="13.70696" gradientUnits="userSpaceOnUse" id="color-6"><stop offset="0" stop-color="#daffe3"/><stop offset="1" stop-color="#0c1a0f"/></radialGradient><radialGradient cx="266.89257" cy="159.89011" r="16.12716" gradientUnits="userSpaceOnUse" id="color-7"><stop offset="0" stop-color="#5f6471"/><stop offset="1" stop-color="#171d2c"/></radialGradient><radialGradient cx="291.89257" cy="138.39011" r="13.22358" gradientUnits="userSpaceOnUse" id="color-8"><stop offset="0" stop-color="#ffd0d0"/><stop offset="1" stop-color="#2a0000"/></radialGradient><linearGradient x1="55.88168" y1="264.81428" x2="68.0215" y2="232.85873" gradientUnits="userSpaceOnUse" id="color-9"><stop offset="0" stop-color="#694444"/><stop offset="1" stop-color="#98a1b9"/></linearGradient><radialGradient cx="34.56819" cy="377.62348" r="65.45502" gradientUnits="userSpaceOnUse" id="color-10"><stop offset="0" stop-color="#dcdcdc"/><stop offset="1" stop-color="#a0a0a0"/></radialGradient><radialGradient cx="20.00823" cy="338.87979" r="46.28026" gradientUnits="userSpaceOnUse" id="color-11"><stop offset="0" stop-color="#d1ffc4"/><stop offset="1" stop-color="#2188ff"/></radialGradient><radialGradient cx="20.00823" cy="338.87979" r="46.28026" gradientUnits="userSpaceOnUse" id="color-12"><stop offset="0" stop-color="#ceffc4"/><stop offset="1" stop-color="#ff21cc"/></radialGradient><radialGradient cx="20.00823" cy="338.87979" r="46.28026" gradientUnits="userSpaceOnUse" id="color-13"><stop offset="0" stop-color="#ffe9c4"/><stop offset="1" stop-color="#4fff21"/></radialGradient><radialGradient cx="20.00823" cy="338.87979" r="46.28026" gradientUnits="userSpaceOnUse" id="color-14"><stop offset="0" stop-color="#ffe9c4"/><stop offset="1" stop-color="#4fff21"/></radialGradient><radialGradient cx="20.0083" cy="338.87982" r="46.28024" gradientUnits="userSpaceOnUse" id="color-15"><stop offset="0" stop-color="#ffe9c4"/><stop offset="1" stop-color="#ffa321"/></radialGradient><radialGradient cx="20.00835" cy="338.87986" r="46.28024" gradientUnits="userSpaceOnUse" id="color-16"><stop offset="0" stop-color="#c4f0ff"/><stop offset="1" stop-color="#3d21ff"/></radialGradient><radialGradient cx="44.40802" cy="388.60894" r="50.24886" gradientUnits="userSpaceOnUse" id="color-17"><stop offset="0" stop-color="#1c2f30"/><stop offset="1" stop-color="#142913"/></radialGradient><radialGradient cx="-34.0931" cy="360.17957" r="13.22632" gradientUnits="userSpaceOnUse" id="color-18"><stop offset="0" stop-color="#786c41"/><stop offset="1" stop-color="#141a29"/></radialGradient><radialGradient cx="19.21423" cy="379.45144" r="20.82216" gradientUnits="userSpaceOnUse" id="color-19"><stop offset="0" stop-color="#7ba676"/><stop offset="1" stop-color="#291616"/></radialGradient></defs><g transform="translate(51.91321,5.18993)"><g data-paper-data="{&quot;isPaintingLayer&quot;:true}" fill-rule="nonzero" stroke-linecap="butt" stroke-linejoin="miter" stroke-miterlimit="10" stroke-dasharray="" stroke-dashoffset="0" style="mix-blend-mode: normal"><path d="M-4.23828,360.81007v-366h488v366z" fill="url(#color-1)" stroke="none" stroke-width="0"/><path d="M413.5,180c0,97.7544 -77.6786,177 -173.5,177c-95.8214,0 -173.5,-79.2456 -173.5,-177c0,-97.7544 77.6786,-177 173.5,-177c95.8214,0 173.5,79.2456 173.5,177z" fill="url(#color-2)" stroke="none" stroke-width="0"/><path d="M160.25243,434.36546l0.87834,-232.97929l154.49348,0.58264l-0.87834,232.97929z" data-paper-data="{&quot;index&quot;:null}" fill="url(#color-3)" stroke="#ed6b00" stroke-width="0"/><path d="M317.75618,291.95257c-5.0309,-13.03527 -11.05226,-29.68868 -11.05226,-29.68868c0,0 -11.04198,-32.90496 -6.36567,-35.41357c27.34834,-14.67296 32.67371,24.10983 32.67371,24.10983c0,0 9.65055,25.06826 15.00005,38.92735c2.57612,8.6138 -25.07037,14.30237 -30.25576,2.06507z" data-paper-data="{&quot;index&quot;:null}" fill="#a3bda9" stroke="#000000" stroke-width="0"/><g><path d="M228.48725,242.5119l-4.38035,-33.35423l37.2739,-4.89511l4.38035,33.35423z" fill="url(#color-4)" stroke="#000000" stroke-width="0"/><path d="M302.57782,144.27643c1.15825,37.94343 -26.06368,69.56234 -60.80191,70.62275c-34.73819,1.06041 -63.8381,-28.83915 -64.99636,-66.78266c-1.15825,-37.94348 26.06372,-69.56234 60.80196,-70.62275c34.73815,-1.06041 63.83806,28.83915 64.99631,66.78267z" fill="url(#color-5)" stroke="none" stroke-width="0"/><path d="M234.24021,154.93526c-2.50656,4.56413 -7.13506,2.1034 -7.13506,2.1034c-4.67209,-2.5948 -12.48175,-5.39491 -11.96181,-12.87968c0.42489,-6.11682 10.39255,-11.81263 15.78488,-10.83296c9.78211,1.7772 18.67383,18.83841 3.31207,21.60924z" data-paper-data="{&quot;index&quot;:null}" fill="url(#color-6)" stroke="none" stroke-width="0.5"/><path d="M257.0938,176.41599c0.6539,-2.32212 2.30108,-2.87228 3.52687,-2.93738c0.38889,-0.03601 0.78833,-0.01594 1.18741,0.06639c-1.57584,-5.26582 -0.89405,-12.15203 -2.76053,-17.23739c0,0 -1.37318,-3.81193 2.43876,-5.18519c3.8119,-1.37313 5.18515,2.4388 5.18515,2.4388c2.25503,6.35973 4.01183,14.21829 4.0846,21.08007c0.02731,2.57134 1.45218,6.00343 -0.48065,7.6995c-2.00564,1.75997 -5.33394,-0.17113 -8.00098,-0.25671l-2.37873,-0.66982c-0.49303,-0.13881 -0.93874,-0.36294 -1.32595,-0.65208c-1.01167,-0.69505 -2.12977,-2.02393 -1.47587,-4.34605z" data-paper-data="{&quot;index&quot;:null}" fill="url(#color-7)" stroke="none" stroke-width="0.5"/><path d="M291.1509,132.11765c7.90861,2.00089 15.22634,20.50137 2.85304,23.36571c-1.98457,4.90829 -5.7402,2.21218 -5.7402,2.21218c-3.79187,-2.84138 -10.11739,-5.93054 -9.76022,-14.00987c0.29187,-6.60261 8.28781,-12.67099 12.64741,-11.56801z" data-paper-data="{&quot;index&quot;:null}" fill="url(#color-8)" stroke="none" stroke-width="0.5"/></g><g><path d="M84.32555,259.54376l-8.35138,13.17014l-37.94801,-14.68277l5.89123,-13.83925c0,0 28.0245,2.78916 35.88504,4.97931c6.89838,1.9221 4.5231,10.37258 4.5231,10.37258z" data-paper-data="{&quot;index&quot;:null}" fill="url(#color-9)" stroke="#000000" stroke-width="0"/><path d="M-27.05438,299.61302c13.69929,-36.05954 51.56662,-55.12497 84.58017,-42.5833c33.01373,12.54159 48.67154,51.94065 34.97206,88.00088c-13.69928,36.05955 -51.5666,55.12496 -84.58038,42.58318c-33.01373,-12.54159 -48.67154,-51.94065 -34.97207,-88.00086z" data-paper-data="{&quot;index&quot;:null}" fill="url(#color-10)" stroke="none" stroke-width="0"/><g data-paper-data="{&quot;index&quot;:null}" stroke="#ed6b00" stroke-width="0"><path d="M29.99981,277.55319c47.33092,17.98958 39.27613,47.79164 31.65341,64.85006c-7.62297,17.05812 -41.33377,19.22556 -64.70739,8.90474c-23.37358,-10.32084 -37.58141,-36.62217 -29.95861,-53.6803c0,0 10.87983,-40.48848 63.01249,-20.07413z" data-paper-data="{&quot;index&quot;:null}" fill="url(#color-11)"/><path d="M29.99973,277.55324c37.71693,14.33553 40.26318,36.17207 35.88414,53.0837c-1.31792,-10.37384 -7.60018,-19.60061 -17.48839,-23.88457c-15.37096,-6.65929 -33.63446,1.14705 -40.79275,17.43597c-4.76997,10.85419 -3.40523,22.73596 2.58438,31.4266c-4.60402,-1.03191 -9.08601,-2.47206 -13.24129,-4.30684c-7.12447,-3.14588 -13.39737,-7.7765 -18.46005,-13.17752c0.93564,-11.41517 -4.12046,-22.45182 -13.51499,-28.4897c-0.25023,-4.26396 0.38009,-8.35145 2.01642,-12.01309c0,0 0.44052,-1.63944 1.56912,-4.09216c2.16722,1.88116 4.6443,3.46023 7.40187,4.6549c15.37095,6.65928 33.63446,-1.14705 40.79275,-17.43597c0.98441,-2.23999 1.70748,-4.52378 2.18263,-6.81423c3.46441,0.88926 7.14882,2.07935 11.06616,3.61332z" data-paper-data="{&quot;index&quot;:null}" fill="url(#color-12)"/><path d="M-3.05422,351.30804c-7.96018,-3.51493 -14.85732,-8.88327 -20.19105,-15.10881c2.55062,-2.60326 4.72966,-5.68064 6.39065,-9.16958c1.9243,9.3733 7.97461,17.51963 17.08757,21.46771c15.37091,6.65929 33.6345,-1.14706 40.79278,-17.43596c4.79898,-10.92025 3.38836,-22.88066 -2.69433,-31.58499c5.59632,-1.50179 10.82179,-4.5911 15.00526,-8.98099c4.15498,3.48093 7.21494,7.1271 9.40343,10.84016c-5.87989,3.40587 -10.8386,8.74717 -13.84217,15.58189c-5.31812,12.10153 -3.01055,25.48047 4.83034,34.29002c-13.41108,8.61335 -38.32111,8.25227 -56.78239,0.10052z" data-paper-data="{&quot;index&quot;:null}" fill="url(#color-13)"/><path d="M6.87585,288.16922c-8.82345,2.3679 -16.72506,8.68193 -21.07428,17.81784c-1.63213,-7.95044 -6.23281,-15.01813 -13.15295,-19.38991c4.95584,-6.7332 13.76992,-14.16404 28.69957,-14.75715c0.30857,5.94329 2.23259,11.61398 5.52766,16.32922z" data-paper-data="{&quot;index&quot;:null}" fill="url(#color-14)"/><path d="M26.14203,301.69874c-0.28341,0.3969 0.07676,2.99293 0.10116,3.76451c0.29812,9.4147 -0.62027,18.99787 0.75928,28.25503c0.1303,0.87451 3.13153,1.6433 4.36989,2.286c7.5838,3.93583 14.68172,8.95091 22.71304,11.88171c1.02836,0.37525 2.20529,0.45337 3.49245,0.28452c-5.06194,4.94409 -13.07991,7.88051 -22.19389,8.932c-1.82962,-9.54631 -7.923,-17.87425 -17.16941,-21.8801c-11.93561,-5.17095 -25.61536,-1.61973 -34.48539,7.85239c-9.27305,-7.72111 -15.7504,-17.99513 -17.96889,-27.90809c2.95859,4.05549 6.95458,7.36525 11.82559,9.47554c15.37095,6.65928 33.63448,-1.14707 40.79275,-17.43597c1.77586,-4.04108 2.70143,-8.22465 2.85456,-12.33294c4.59049,0.28649 9.18368,-0.52139 13.44687,-2.28153c-3.73094,3.34993 -6.75478,6.60928 -8.53808,9.10682z" data-paper-data="{&quot;index&quot;:null}" fill="url(#color-15)"/><path d="M29.9999,277.55325c47.33092,17.98958 39.27613,47.79162 31.65341,64.85006c-0.33134,0.7415 -0.71203,1.45487 -1.13897,2.14032c2.26891,-5.54207 2.9634,-12.14578 2.87234,-17.09783c-0.00941,-0.5118 -0.02997,-1.02622 -0.06153,-1.54307c2.51092,-13.26328 -3.25072,-26.64675 -14.7113,-32.95884c-7.18144,-8.31312 -16.25915,-14.62403 -25.55965,-16.48031c-16.03971,-3.20136 -30.04597,-7.01867 -40.79275,17.43597c-4.35404,9.90774 -0.95752,21.96585 2.5747,31.83578c2.05902,5.75344 10.96302,5.63055 14.35534,10.60791c-0.03441,6.43047 1.82059,12.62936 5.26305,17.75297c-2.58592,-0.79524 -5.10204,-1.72544 -7.50856,-2.78811c-8.64943,-3.8192 -16.04371,-9.82682 -21.54105,-16.74455c0.20078,-0.41168 0.39429,-0.82922 0.58025,-1.25242c6.04274,-13.75037 2.2402,-29.14993 -8.33815,-37.62166c0.7296,-1.9033 2.12297,-5.00077 4.4643,-8.34391c9.06678,-1.1753 17.59882,-6.4888 22.94155,-14.80582c8.8218,-1.6567 20.24367,-0.74365 34.94695,5.01395z" data-paper-data="{&quot;index&quot;:null}" fill="url(#color-16)"/></g><g data-paper-data="{&quot;index&quot;:null}"><path d="M32.90904,381.68179c0.76715,0.3685 2.75738,1.28629 4.98941,2.14566c2.76624,0.44723 5.91383,1.10596 8.50007,1.31461c3.52294,-3.08368 1.25397,-9.75368 9.13747,-8.92709c13.44538,1.41115 2.13357,13.12605 -3.92808,15.30463c-8.27476,1.48704 -16.63644,-2.73823 -24.3336,-5.53819c-10.60214,-3.85695 -21.55122,-6.58182 -31.29719,-11.62686c-0.57429,0.15816 -1.20554,0.11676 -1.78392,-0.16165l-2.64573,-1.27406c-1.46415,-0.42331 -3.046,-0.89785 -4.68585,-1.43355c-4.45454,-1.06997 -9.33608,-3.15925 -13.78066,-5.27861c-2.30594,-0.82797 -4.35341,-1.79356 -5.86636,-2.89297c-1.22478,-0.6141 -2.36466,-1.18486 -3.39184,-1.67872l-2.78908,-1.34258c-1.27019,-0.6116 -1.8043,-2.13651 -1.19281,-3.40749c0.54458,-1.13072 1.81257,-1.67803 2.98038,-1.35415l1.66204,0.42593c-0.3089,-0.89294 -0.51594,-1.82669 -0.60696,-2.80208l-1.30788,-0.08858l0.22316,-3.26847c0.01521,-0.33388 0.09623,-0.67073 0.25024,-0.99133c0.6116,-1.27019 2.13651,-1.80432 3.4075,-1.19282c0.38614,0.18575 0.70545,0.45659 0.94363,0.77861l1.66267,2.14911l-0.06343,0.0488l0.19529,0.13847c0.97791,1.88506 2.12383,3.55103 3.40761,4.98184c2.34508,1.51788 4.70887,3.28642 7.15304,5.03146c4.79251,1.84959 10.33496,1.51181 15.88407,-1.38338c0,0 2.26584,-1.17557 3.44172,1.09006c1.17559,2.26584 -1.09008,3.44175 -1.09008,3.44175c-0.4835,0.24949 -0.96871,0.48406 -1.45455,0.70215l1.4479,0.33914c0.19554,0.0418 0.39056,0.10727 0.57901,0.19769c1.27019,0.6116 1.8043,2.13651 1.19281,3.40749c-0.30952,0.6431 -0.85276,1.09738 -1.47922,1.31011c1.05118,0.62553 2.07671,1.16041 3.04427,1.45634c6.75821,2.0666 16.09484,6.99111 25.41324,10.78152c0.56914,-1.06163 1.79663,-1.56735 2.92929,-1.25281l3.01219,0.77277l-0.02504,0.09748l0.03702,0.01083z" fill="url(#color-17)" stroke="none" stroke-width="0.5"/><path d="M-41.28907,359.02857c-12.3299,-5.71675 -12.1256,-5.83077 -8.36155,-14.21952c3.76369,-8.38852 11.95381,-12.39755 18.29207,-8.95441c6.33815,3.44353 8.42442,13.03625 4.66036,21.42483c-3.76368,8.38856 -3.02881,7.10967 -14.59121,1.74915z" data-paper-data="{&quot;index&quot;:null}" fill="url(#color-18)" stroke="#000000" stroke-width="0"/><path d="M-6.07354,364.49009c3.56566,-9.44468 15.09662,-13.83902 25.75482,-9.81427c10.65842,4.02377 16.40823,14.94243 12.84234,24.38663c-3.56566,9.44469 -3.43577,9.72701 -23.23791,1.23431c-18.56923,-7.96359 -18.92443,-6.36159 -15.35899,-15.80647z" fill="url(#color-19)" stroke="#000000" stroke-width="0"/></g></g><g data-paper-data="{&quot;index&quot;:null}" stroke-width="0"><path d="M294.72218,399.95812c0,0 -9.41683,2.60817 -16.34674,1.57997c-5.9661,-0.88459 -9.1066,-5.42662 -14.25718,-5.43791c-2.55107,-0.00579 -9.51747,2.51646 -13.12708,2.62171c-4.77536,0.13895 -13.44016,3.86856 -18.41287,3.1592c-6.2213,-0.88678 -8.81206,-6.26697 -15.41093,-6.17634c-14.53055,0.1995 -28.8,4.01986 -28.8,4.01986c0,0 1.11399,-29.81294 -0.1972,-53.79c-1.27161,-23.26373 -4.96149,-40.46454 -5.51716,-56.1754c-0.62782,-17.75666 -0.48394,-65.32681 -0.48394,-65.32681c0,0 21.72426,-2.12502 32.11946,0.2511c9.85177,2.2524 28.70899,13.65354 28.70899,13.65354c0,0 24.60665,-11.7285 36.30975,-14.01141c9.19337,-1.79373 28.21364,1.42453 28.21364,1.42453c0,0 -0.03925,44.90658 -1.81256,69.04977c-0.94465,12.86311 -6.55024,29.8405 -8.57149,48.70113c-2.97476,27.75704 -2.41381,56.45789 -2.41381,56.45789z" fill="#d1b0b0" stroke="#292e32"/><path d="M189.6061,278.45897l0.28277,-26.90828l39.44353,-1.46317l-0.94123,30.03037z" fill="#f200ff" stroke="none"/><path d="M228.79555,267.217c-5.70093,-4.93481 -13.09998,-7.9728 -21.22859,-8.11176c-1.96355,-0.03357 -3.8903,0.10339 -5.76618,0.39718c2.72632,-2.47342 5.04269,-5.39345 6.83222,-8.64713l20.69945,-0.76782z" fill="#eeff00" stroke="none"/><path d="M195.9279,278.72934c1.21163,-3.35948 1.89967,-6.97254 1.96412,-10.74253c0.10265,-6.00583 -1.38994,-11.66769 -4.08716,-16.5814l25.87009,-0.95964c-8.94377,6.68024 -14.50435,17.50653 -14.20686,28.69167z" fill="#00ff5f" stroke="none"/><path d="M195.64873,278.71736c-0.60408,-2.00222 -1.3918,-3.92601 -2.34383,-5.75142c4.8529,-1.47712 9.24257,-4.03358 12.88397,-7.39396c3.87495,6.54599 9.92914,11.66143 17.18158,14.33114l-27.72174,-1.18576z" fill="#004fff" stroke="none"/><path d="M220.83774,279.79475c1.71925,-3.92352 2.70575,-8.24577 2.78355,-12.79665c0.10243,-5.99217 -1.38316,-11.64197 -4.06879,-16.54786l9.78,-0.36276l-0.94123,30.03043z" fill="#ff0000" stroke="none"/><path d="M189.77485,262.40881c3.26643,4.14278 7.49704,7.49525 12.36035,9.71437c0.38161,2.41201 1.02256,4.73956 1.8939,6.95266l-14.42288,-0.61693l0.16865,-16.05015z" fill="#00efff" stroke="none"/><path d="M207.37067,250.90221c-9.65968,5.51866 -16.31304,15.73888 -16.79144,27.59837l-0.97301,-0.04163l0.28275,-26.90829z" fill="#9c00ff" stroke="none"/></g><path d="M116.30342,270.26001c10.99715,-10.48055 29.56986,-28.45905 29.56986,-28.45905c0,0 21.61098,-35.68639 48.20049,-5.49439c4.24498,4.82011 -22.73032,30.94313 -22.73032,30.94313c0,0 -12.75747,12.81832 -23.10146,22.67572c-11.79927,10.9975 -41.84988,-8.69519 -31.93862,-19.66539z" fill="#b8bda6" stroke="#000000" stroke-width="0"/><path d="M66.70914,327.02246c0,0 13.65133,-8.3731 24.49349,-23.41384c2.6074,-3.61702 25.60616,-32.56181 28.2443,-36.30892c10.62909,-13.89479 33.79256,14.11347 23.34755,26.54307c-2.71691,3.31847 -29.47956,26.74946 -37.5377,34.67367c-13.41601,13.19338 -19.89951,22.80476 -19.89951,22.80476z" data-paper-data="{&quot;index&quot;:null}" fill="#b8bda6" stroke="#000000" stroke-width="0"/><path d="M86.56087,351.52333c-0.84023,-1.06356 -14.24606,13.41115 -18.06967,9.1361c-1.88071,-2.10271 9.15375,-8.97107 9.65122,-14.78963c0.26353,-3.08043 -14.73005,17.13525 -18.00792,10.03376c-1.12523,-2.4377 13.25009,-13.48804 14.5253,-18.3989c0.68233,-2.62883 -19.6527,19.15549 -22.02888,14.56318c-1.41025,-2.72631 12.46941,-11.9687 16.44515,-18.50584c1.93655,-3.18509 -16.36645,12.20666 -17.5989,8.44754c-0.75425,-2.3008 16.16779,-18.38648 16.1922,-18.7433c0.13791,-2.00524 -13.37623,4.31658 -12.08799,0.7255c2.37368,-6.61805 11.98786,-7.38301 20.38044,-8.7652c4.90424,-0.80731 9.56229,-4.90925 9.56229,-4.90925c0,0 9.00943,5.86502 12.14765,9.9753c3.05621,4.00172 6.4414,14.36851 6.4414,14.36851c0,0 -15.77261,19.11473 -17.55166,16.86199z" data-paper-data="{&quot;index&quot;:null}" fill="#786274" stroke="#000000" stroke-width="0"/><path d="M377.93829,359.83319c0,0 -6.372,-9.33573 -19.11944,-22.71596c-7.65627,-8.03661 -34.72358,-34.31392 -37.34665,-37.59706c-12.22844,-15.28325 9.26625,-35.6131 18.62802,-22.28273c2.58191,3.654 26.99042,36.01529 29.53701,39.54943c10.58877,14.69617 23.22835,23.83103 23.22835,23.83103z" data-paper-data="{&quot;index&quot;:null}" fill="#a3bda9" stroke="#000000" stroke-width="0"/><path d="M380.60964,366.41603c-1.58718,1.63575 -15.00786,-18.60595 -15.00786,-18.60595c0,0 3.11964,-8.51423 5.84668,-11.43986c2.80128,-3.00441 10.74434,-6.35783 10.74434,-6.35783c0,0 3.98885,4.60655 8.24577,6.33588c7.28617,2.96058 15.64684,5.62318 17.60496,11.9944c1.06264,3.45686 -10.60261,-4.94899 -10.51526,-3.13914c0.01589,0.32224 14.4872,18.1083 13.79262,19.9979c-1.13488,3.08689 -16.82163,-14.36777 -15.18716,-11.13818c3.35442,6.63016 15.29016,17.70703 14.01656,19.83878c-2.14494,3.59061 -19.49579,-19.96415 -18.94491,-17.48711c1.02929,4.62759 13.36678,17.41383 12.34662,19.34777c-2.97229,5.63478 -15.69644,-15.42401 -15.51747,-12.63221c0.33803,5.27312 9.83406,13.65376 8.16168,15.13438c-3.39994,3.01 -14.83639,-12.61885 -15.58576,-11.84703z" data-paper-data="{&quot;index&quot;:null}" fill="#6c7378" stroke="#000000" stroke-width="0"/></g></g></svg>