<svg version="1.1" xmlns="http://www.w3.org/2000/svg" xmlns:xlink="http://www.w3.org/1999/xlink" width="91.19073" height="121.08822" viewBox="0,0,91.19073,121.08822"><defs><linearGradient x1="286.76662" y1="181.91805" x2="289.01757" y2="170.17095" gradientUnits="userSpaceOnUse" id="color-1"><stop offset="0" stop-color="#242424"/><stop offset="1" stop-color="#373737"/></linearGradient><radialGradient cx="283.30644" cy="182.59525" r="3.52256" gradientUnits="userSpaceOnUse" id="color-2"><stop offset="0" stop-color="#bfbfbf"/><stop offset="1" stop-color="#9a9a9a"/></radialGradient><linearGradient x1="290.67802" y1="169.85016" x2="309.81222" y2="128.63892" gradientUnits="userSpaceOnUse" id="color-3"><stop offset="0" stop-color="#b2b2b2"/><stop offset="1" stop-color="#c4c4c4"/></linearGradient><linearGradient x1="291.13015" y1="169.72978" x2="303.65384" y2="142.75635" gradientUnits="userSpaceOnUse" id="color-4"><stop offset="0" stop-color="#cccccc"/><stop offset="1" stop-color="#d8d8d8"/></linearGradient><linearGradient x1="289.25208" y1="171.96814" x2="290.31869" y2="169.77328" gradientUnits="userSpaceOnUse" id="color-5"><stop offset="0" stop-color="#b5b5b5"/><stop offset="1" stop-color="#c5c5c5"/></linearGradient><linearGradient x1="259.55962" y1="186.15746" x2="261.55274" y2="174.36388" gradientUnits="userSpaceOnUse" id="color-6"><stop offset="0" stop-color="#242424"/><stop offset="1" stop-color="#373737"/></linearGradient><radialGradient cx="256.11511" cy="186.91028" r="3.52256" gradientUnits="userSpaceOnUse" id="color-7"><stop offset="0" stop-color="#bfbfbf"/><stop offset="1" stop-color="#9a9a9a"/></radialGradient><linearGradient x1="263.20577" y1="174.00678" x2="281.43271" y2="132.38635" gradientUnits="userSpaceOnUse" id="color-8"><stop offset="0" stop-color="#b2b2b2"/><stop offset="1" stop-color="#c4c4c4"/></linearGradient><linearGradient x1="263.65514" y1="173.87654" x2="275.58504" y2="146.63528" gradientUnits="userSpaceOnUse" id="color-9"><stop offset="0" stop-color="#cccccc"/><stop offset="1" stop-color="#d8d8d8"/></linearGradient><linearGradient x1="261.82655" y1="176.15551" x2="262.84484" y2="173.9378" gradientUnits="userSpaceOnUse" id="color-10"><stop offset="0" stop-color="#b5b5b5"/><stop offset="1" stop-color="#c5c5c5"/></linearGradient><linearGradient x1="239.8515" y1="147.57392" x2="239.99268" y2="155.44589" gradientUnits="userSpaceOnUse" id="color-11"><stop offset="0" stop-color="#505050"/><stop offset="1" stop-color="#767676"/></linearGradient><radialGradient cx="234.38531" cy="124.34855" r="13.11833" gradientUnits="userSpaceOnUse" id="color-12"><stop offset="0" stop-color="#ccbe7a"/><stop offset="1" stop-color="#948f62"/></radialGradient><linearGradient x1="250.23859" y1="114.84294" x2="250.40431" y2="124.08391" gradientUnits="userSpaceOnUse" id="color-13"><stop offset="0" stop-color="#464646"/><stop offset="1" stop-color="#343434"/></linearGradient><linearGradient x1="250.2386" y1="114.84294" x2="250.40432" y2="124.08391" gradientUnits="userSpaceOnUse" id="color-14"><stop offset="0" stop-color="#131313"/><stop offset="1" stop-color="#202020"/></linearGradient><linearGradient x1="238.67727" y1="116.07739" x2="239.3054" y2="151.10179" gradientUnits="userSpaceOnUse" id="color-15"><stop offset="0" stop-color="#ffe8b5" stop-opacity="0.32941"/><stop offset="1" stop-color="#c2a53e" stop-opacity="0.63529"/></linearGradient><linearGradient x1="238.67727" y1="116.07739" x2="239.3054" y2="151.10179" gradientUnits="userSpaceOnUse" id="color-16"><stop offset="0" stop-color="#444444"/><stop offset="1" stop-color="#545454"/></linearGradient><linearGradient x1="227.31811" y1="113.82523" x2="227.53159" y2="125.72885" gradientUnits="userSpaceOnUse" id="color-17"><stop offset="0" stop-color="#464646"/><stop offset="1" stop-color="#343434"/></linearGradient><linearGradient x1="227.31811" y1="113.82523" x2="227.53159" y2="125.72885" gradientUnits="userSpaceOnUse" id="color-18"><stop offset="0" stop-color="#131313"/><stop offset="1" stop-color="#202020"/></linearGradient></defs><g transform="translate(-221.42701,-113.23828)"><g data-paper-data="{&quot;isPaintingLayer&quot;:true}" fill-rule="nonzero" stroke-linejoin="miter" stroke-miterlimit="10" stroke-dasharray="" stroke-dashoffset="0" style="mix-blend-mode: normal"><path d="M226.47914,195.99046l-0.81651,-45.52855l25.57285,-0.45862l1.11214,45.52325z" fill="#747474" stroke="none" stroke-width="NaN" stroke-linecap="butt"/><g><path d="M226.1234,227.23587l3.75904,-33.71008c0,0 6.75518,-2.18267 9.822,-2.18267c3.62872,0 0.6063,4.24407 0.6063,4.24407c0,0 -3.09204,0.08829 -3.39803,1.52409c-0.93579,4.39099 -2.78619,30.12458 -2.78619,30.12458z" fill="#ffefeb" stroke="#000000" stroke-width="0" stroke-linecap="butt"/><path d="M241.47427,232.29258c0,0 -0.3857,1.94015 -1.2126,1.94015c-0.59276,0 -2.64411,0.01366 -4.70436,-0.06689c-1.25258,-0.04897 -1.90215,-0.61779 -2.83553,-0.76063c-1.17507,-0.17983 -2.93853,0.22047 -3.78777,0.02896c-1.56485,-0.35288 -2.37463,-0.77781 -2.37463,-0.77781c0,0 -0.26912,-1.02539 -0.2856,-1.5858c-0.02221,-0.755 0.16433,-2.53701 0.16433,-2.53701c0,0 5.93424,-0.11957 8.24914,0.08075c1.36979,0.11854 4.24057,0.6468 4.24057,0.6468c0,0 1.45975,0.6156 1.67337,1.04283c0.26162,0.52325 0.87307,1.98866 0.87307,1.98866z" data-paper-data="{&quot;index&quot;:null}" fill="#141415" stroke="#000000" stroke-width="0" stroke-linecap="butt"/><path d="M241.20337,231.65797c0,0 -0.38569,0 -1.21259,0c-0.24822,0 0.70239,1.60165 -2.61811,1.33311c-3.13563,-0.25359 -2.77648,-1.18823 -3.8809,-1.26883c-2.30937,-0.16854 -2.58766,0.59503 -3.58733,0.44204c-0.34815,-0.05328 -0.51271,-0.11454 -1.78458,-0.97035c-0.87471,-0.58857 -0.66566,-1.75122 -1.26542,-2.3793c-0.87609,-0.91746 -0.80847,-1.8858 -0.80847,-1.8858l-0.07637,-3.04773c0,0 0.48635,2.20682 1.32529,3.03123c0.75062,0.73761 2.3169,-0.01875 2.80058,-0.01889c0.84695,-0.00024 -0.68885,-3.26805 0.12091,-3.24981c0.43542,0.00981 3.72275,-0.23408 3.72275,-0.23408c0,0 0.12302,3.57988 0.35598,3.60004c1.36978,0.11854 4.60434,0.6468 4.60434,0.6468c0,0 1.45975,0.6156 1.67337,1.04283c0.26163,0.52325 0.63055,2.95873 0.63055,2.95873z" data-paper-data="{&quot;index&quot;:null}" fill="#252527" stroke="#000000" stroke-width="0" stroke-linecap="butt"/><path d="M232.52068,228.71934l2.66771,-1.09134" data-paper-data="{&quot;index&quot;:null}" fill="none" stroke="#ffffff" stroke-width="0.5" stroke-linecap="round"/><path d="M237.00727,227.62802l-2.54644,1.45511" data-paper-data="{&quot;index&quot;:null}" fill="none" stroke="#ffffff" stroke-width="0.5" stroke-linecap="round"/><path d="M238.09861,227.87055l-1.45512,1.45512" data-paper-data="{&quot;index&quot;:null}" fill="none" stroke="#ffffff" stroke-width="0.5" stroke-linecap="round"/><path d="M233.49075,224.59653l-2.18267,0.24252" data-paper-data="{&quot;index&quot;:null}" fill="none" stroke="#969696" stroke-width="0.5" stroke-linecap="round"/><path d="M231.79312,225.6879l1.94015,-0.36378" data-paper-data="{&quot;index&quot;:null}" fill="none" stroke="#969696" stroke-width="0.5" stroke-linecap="round"/></g><path d="M293.42387,174.29046c-0.25687,0.43692 -3.71663,-1.33632 -4.77075,-0.40301c-0.36189,0.32041 4.16441,3.02656 3.4983,3.67538c-0.39541,0.38515 -2.87191,-1.16177 -4.26679,-1.53669c-0.67955,-0.18266 -5.09698,-2.18153 -5.09698,-2.18153c0,0 -2.30154,-1.99584 -5.61126,-3.16551c-0.7959,-0.28126 -3.31753,-1.39193 -4.13831,-1.67222c-1.94256,-0.66335 -3.89567,-1.24664 -5.07535,-1.6848c-2.53731,-0.94237 -14.36414,-6.2261 -14.36414,-6.2261c0,0 -6.9428,-1.59491 -5.951,-3.52706c3.0589,-5.95915 7.13411,-1.93319 7.13411,-1.93319c0,0 5.85,3.01032 12.29547,5.69525c4.84859,2.01973 10.23044,3.67597 12.61955,4.72686c2.82751,1.24374 6.25813,3.28988 6.25813,3.28988c0,0 2.4827,1.27197 4.50387,2.46564c1.81863,1.07406 3.2125,2.05638 2.96516,2.47713z" data-paper-data="{&quot;index&quot;:null}" fill="#8c8c8c" stroke="#000000" stroke-width="0" stroke-linecap="butt"/><g stroke="none" stroke-width="0" stroke-linecap="butt"><path d="M287.84546,182.12477l-4.56506,-2.11742l4.65832,-10.04309l4.56506,2.11744z" fill="url(#color-1)"/><path d="M285.59411,178.67844c1.91068,0.36613 3.16282,2.21184 2.7967,4.12252c-0.36613,1.9107 -2.21185,3.16283 -4.12253,2.79671c-1.91069,-0.36612 -3.16283,-2.21185 -2.7967,-4.12252c0.36613,-1.9107 2.21185,-3.16283 4.12253,-2.79671z" fill="url(#color-2)"/><path d="M294.89647,171.80877l-8.43695,-3.91723l20.71985,-40.11686l5.43836,-6.09802l-0.94978,8.01676z" fill="url(#color-3)"/><path d="M293.89122,171.01172l-5.87099,-2.64321l17.39989,-33.45622l5.36779,-8.71668l-3.04835,9.46501z" fill="url(#color-4)"/><path d="M280.61457,162.623c0,0 6.17805,5.09245 9.7061,6.86495c3.87363,1.94613 12.59583,4.33967 12.59583,4.33967c0,0 -10.00569,-0.30936 -13.76262,-2.1969c-3.67523,-1.84645 -8.53931,-9.00774 -8.53931,-9.00774z" fill="url(#color-5)"/></g><g><path d="M239.70443,191.3431c3.62872,0 10.54956,2.18267 10.54956,2.18267l3.03149,33.71008h-7.63934c0,0 -1.32697,-25.53818 -2.03751,-29.57011c-0.20138,-1.1427 -3.2979,-2.07857 -3.2979,-2.07857c0,0 -3.67312,-4.24407 -0.6063,-4.24407z" fill="#ffefeb" stroke="#000000" stroke-width="0" stroke-linecap="butt"/><path d="M259.69261,234.32563c-0.59276,0 -2.64411,0.01365 -4.70436,-0.0669c-1.25258,-0.04897 -1.90215,-0.61779 -2.83553,-0.76063c-1.17507,-0.17982 -2.93854,0.22047 -3.78778,0.02896c-1.56485,-0.35288 -2.37463,-0.77782 -2.37463,-0.77782c0,0 -0.26911,-1.0254 -0.2856,-1.5858c-0.02221,-0.75501 0.16433,-2.53701 0.16433,-2.53701c0,0 5.93425,-0.11957 8.24914,0.08076c1.36979,0.11854 4.24057,0.6468 4.24057,0.6468c0,0 1.45976,0.6156 1.67337,1.04283c0.26162,0.52325 0.87307,1.98865 0.87307,1.98865c0,0 -0.3857,1.94015 -1.21259,1.94015z" data-paper-data="{&quot;index&quot;:null}" fill="#141415" stroke="#000000" stroke-width="0" stroke-linecap="butt"/><path d="M259.4217,231.75086c-0.24822,0 0.7024,1.60165 -2.61811,1.33311c-3.13563,-0.25358 -2.77648,-1.18823 -3.8809,-1.26883c-2.30937,-0.16854 -2.58765,0.59503 -3.58732,0.44205c-0.34815,-0.05328 -0.51271,-0.11454 -1.78459,-0.97035c-0.87472,-0.58857 -0.66566,-1.75122 -1.26542,-2.3793c-0.87609,-0.91745 -0.80847,-1.8858 -0.80847,-1.8858l-0.07637,-3.04773c0,0 0.48635,2.20681 1.32529,3.03122c0.75062,0.73761 2.3169,-0.01875 2.80058,-0.01889c0.84696,-0.00024 -0.68885,-3.26804 0.12091,-3.2498c0.43542,0.00981 3.72275,-0.23409 3.72275,-0.23409c0,0 0.12302,3.57989 0.35598,3.60005c1.36979,0.11854 4.60434,0.6468 4.60434,0.6468c0,0 1.45976,0.6156 1.67338,1.04283c0.26162,0.52325 0.63055,2.95873 0.63055,2.95873c0,0 -0.3857,0 -1.2126,0z" data-paper-data="{&quot;index&quot;:null}" fill="#252527" stroke="#000000" stroke-width="0" stroke-linecap="butt"/><path d="M251.95162,228.81223l2.6677,-1.09133" fill="none" stroke="#ffffff" stroke-width="0.5" stroke-linecap="round"/><path d="M253.89177,229.17601l2.54645,-1.45511" fill="none" stroke="#ffffff" stroke-width="0.5" stroke-linecap="round"/><path d="M256.07444,229.41856l1.45512,-1.45511" fill="none" stroke="#ffffff" stroke-width="0.5" stroke-linecap="round"/><path d="M252.92169,224.6894l-2.18266,0.24252" fill="none" stroke="#969696" stroke-width="0.5" stroke-linecap="round"/><path d="M253.16422,225.41701l-1.94015,0.36378" fill="none" stroke="#969696" stroke-width="0.5" stroke-linecap="round"/></g><path d="M292.01989,180.68053c-0.28717,0.37924 -3.3654,-1.36693 -4.25773,-1.43761c-0.47769,-0.03784 3.37734,3.24057 2.6824,3.77674c-0.41253,0.31827 -2.58906,-1.34565 -3.86605,-1.82433c-0.62213,-0.23319 -4.58271,-2.49876 -4.58271,-2.49876c0,0 -1.96538,-2.06205 -4.96653,-3.45654c-0.7217,-0.33534 -2.98566,-1.60056 -3.73094,-1.93734c-1.76384,-0.79708 -3.54586,-1.52119 -4.61337,-2.03786c-2.29605,-1.11123 -12.90677,-7.11418 -12.90677,-7.11418c0,0 -9.40785,-1.73157 -7.29725,-5.50663c1.8578,-3.3229 8.97451,0.57486 8.97451,0.57486c0,0 5.20765,3.3358 11.01036,6.42754c4.36508,2.32574 9.27046,4.36629 11.41558,5.56373c2.53876,1.41716 5.56383,3.63279 5.56383,3.63279c0,0 2.21066,1.41054 3.99411,2.70494c1.60474,1.16471 2.85708,2.76746 2.58056,3.13266z" data-paper-data="{&quot;index&quot;:null}" fill="#969696" stroke="#000000" stroke-width="0" stroke-linecap="butt"/><g><path d="M229.81109,193.55528c0,0 0.96489,-4.98642 0.34867,-10.36035c-0.19186,-1.67323 -0.31499,-5.68421 -0.8518,-7.52787c-0.63468,-2.17984 -2.58347,-2.73192 -2.69268,-4.08149c-0.21573,-2.66577 -1.19166,-6.77341 -0.62029,-11.36193c0.43071,-3.45894 3.34503,-6.35947 3.34503,-6.35947c0,0 3.98164,-0.36053 5.76554,-0.02627c2.2708,0.4255 7.73377,0.3316 9.63942,-0.11891c2.01071,-0.47534 5.48389,-0.08158 5.48389,-0.08158c0,0 2.68386,3.47432 2.98801,7.78863c0.28706,4.07191 -0.48068,8.47782 -0.52737,10.1488c-0.04732,1.69369 -1.45664,2.15776 -2.05529,4.31236c-0.47758,1.71889 -0.45388,5.19942 -0.54843,7.20048c-0.2196,4.64764 0.33203,10.26941 0.33203,10.26941c0,0 -2.77032,-0.71977 -5.58599,-0.73749c-1.27868,-0.00805 -1.77293,1.03807 -2.97713,1.2189c-0.96253,0.14452 -2.6468,-0.56554 -3.57214,-0.5857c-0.69953,-0.01524 -2.05296,-0.49387 -2.54719,-0.48911c-0.99794,0.0096 -1.59994,0.89412 -2.75463,1.07421c-1.3413,0.20918 -3.16968,-0.2826 -3.16968,-0.2826z" fill="#9d9d9d" stroke="#292e32" stroke-width="0" stroke-linecap="butt"/><path d="M235.90755,159.84908l-2.06857,9.07745" fill="#ff0000" stroke="#ff0000" stroke-width="1" stroke-linecap="round"/><path d="M231.44951,159.40366l-3.83769,8.17953" fill="#ff0000" stroke="#ff0000" stroke-width="1" stroke-linecap="round"/><path d="M233.59712,159.57624l-3.00154,8.8862" fill="#ff0000" stroke="#ff0000" stroke-width="1" stroke-linecap="round"/><path d="M247.76319,168.76074l-1.76964,-9.00861" data-paper-data="{&quot;index&quot;:null}" fill="#ff0000" stroke="#ff0000" stroke-width="1" stroke-linecap="round"/><path d="M249.19011,159.16943l3.01591,8.05662" data-paper-data="{&quot;index&quot;:null}" fill="#ff0000" stroke="#ff0000" stroke-width="1" stroke-linecap="round"/><path d="M250.0845,168.19688l-2.43558,-8.7887" data-paper-data="{&quot;index&quot;:null}" fill="#ff0000" stroke="#ff0000" stroke-width="1" stroke-linecap="round"/><path d="M231.96524,190.12709c-0.00697,-0.41416 0.32314,-0.75553 0.73729,-0.7625c0.41416,-0.00697 0.75553,0.32314 0.7625,0.73729c0.00697,0.41416 -0.32313,0.75553 -0.73729,0.7625c-0.41416,0.00697 -0.75553,-0.32314 -0.7625,-0.73729z" fill="#002dff" stroke="none" stroke-width="0.5" stroke-linecap="butt"/><path d="M235.65177,190.06512c-0.00697,-0.41416 0.32314,-0.75553 0.73729,-0.7625c0.41416,-0.00697 0.75553,0.32314 0.7625,0.73729c0.00697,0.41416 -0.32313,0.75553 -0.73729,0.7625c-0.41416,0.00697 -0.75553,-0.32314 -0.7625,-0.73729z" fill="#002dff" stroke="none" stroke-width="0.5" stroke-linecap="butt"/><path d="M239.44071,190.0014c-0.00697,-0.41416 0.32313,-0.75553 0.73729,-0.7625c0.41416,-0.00697 0.75553,0.32314 0.7625,0.73729c0.00697,0.41416 -0.32314,0.75553 -0.73729,0.7625c-0.41416,0.00697 -0.75553,-0.32314 -0.7625,-0.73729z" fill="#002dff" stroke="none" stroke-width="0.5" stroke-linecap="butt"/><path d="M243.33204,189.93602c-0.00697,-0.41416 0.32314,-0.75554 0.73729,-0.7625c0.41416,-0.00697 0.75553,0.32314 0.7625,0.73729c0.00697,0.41416 -0.32314,0.75553 -0.73729,0.7625c-0.41416,0.00697 -0.75553,-0.32313 -0.7625,-0.73729z" fill="#002dff" stroke="none" stroke-width="0.5" stroke-linecap="butt"/><path d="M247.01857,189.87409c-0.00697,-0.41416 0.32314,-0.75554 0.73729,-0.7625c0.41416,-0.00697 0.75553,0.32314 0.7625,0.7373c0.00697,0.41416 -0.32314,0.75553 -0.73729,0.76249c-0.41416,0.00697 -0.75553,-0.32313 -0.7625,-0.73729z" fill="#002dff" stroke="none" stroke-width="0.5" stroke-linecap="butt"/><path d="M238.89873,177.4126c-0.02475,-1.38049 1.07428,-2.51967 2.45477,-2.54442c1.38049,-0.02475 2.51967,1.07428 2.54442,2.45477c0.02475,1.38049 -1.07428,2.51967 -2.45477,2.54442c-1.38049,0.02475 -2.51967,-1.07428 -2.54442,-2.45477z" fill="#797979" stroke="#00ff35" stroke-width="1" stroke-linecap="butt"/><path d="M237.39916,177.13219l-5.73449,0.10284" fill="none" stroke="#00ff35" stroke-width="1" stroke-linecap="round"/><path d="M245.28592,177.09318l3.58407,-0.06428" fill="none" stroke="#00ff35" stroke-width="1" stroke-linecap="round"/></g><path d="M261.2221,181.69517c-2.1592,-0.92452 -4.65271,-2.18488 -4.65271,-2.18488c0,0 -3.6813,-1.55628 -6.35377,-3.1233c-2.25807,-1.32404 -6.76387,-4.76334 -11.25424,-7.52301c-5.96928,-3.66856 -11.85555,-6.62991 -11.85555,-6.62991c0,0 -5.1449,-2.64607 -2.49667,-7.1922c2.40884,-4.13519 6.6769,2.29345 6.6769,2.29345c0,0 10.83243,6.90426 13.08866,8.422c1.04902,0.70565 2.66969,1.96518 4.34958,3.16449c0.70979,0.50673 3.09434,1.90327 3.79037,2.38856c2.8944,2.01801 5.8732,2.66194 5.8732,2.66194c0,0 4.22077,2.41229 4.76808,2.86359c1.12343,0.92629 3.83796,2.00491 3.75492,2.58311c-0.13985,0.97402 -6.04046,-1.24171 -5.75337,-0.81191c0.53626,0.80289 4.03181,3.48264 3.82531,3.97814c-0.19884,0.47715 -1.8179,-0.05821 -3.76071,-0.89007z" data-paper-data="{&quot;index&quot;:null}" fill="#a1a1a1" stroke="#000000" stroke-width="0" stroke-linecap="butt"/><g stroke="none" stroke-width="0" stroke-linecap="butt"><path d="M260.64273,186.3405l-4.61035,-2.01692l4.43722,-10.14272l4.61035,2.01694z" fill="url(#color-6)"/><path d="M258.31644,182.94433c1.91824,0.32418 3.21051,2.14203 2.88632,4.06029c-0.32418,1.91826 -2.14204,3.21052 -4.06029,2.88633c-1.91825,-0.32418 -3.21052,-2.14204 -2.88632,-4.06029c0.32418,-1.91826 2.14204,-3.21052 4.06029,-2.88633z" fill="url(#color-7)"/><path d="M267.4661,175.87255l-8.52072,-3.7315l19.83618,-40.56108l5.30349,-6.21567l-0.77397,8.03565z" fill="url(#color-8)"/><path d="M266.44364,175.09771c0,0 -0.32457,-0.13766 -0.64192,-0.27226c-0.91064,-0.38623 -5.28555,-2.24173 -5.28555,-2.24173l16.66292,-33.8293l5.17557,-8.83215l-2.8403,9.5295z" fill="url(#color-9)"/><path d="M252.98643,167.0018c0,0 6.28811,4.95591 9.85414,6.65071c3.91532,1.86082 12.68786,4.06274 12.68786,4.06274c0,0 -10.01005,-0.09015 -13.80744,-1.89493c-3.71479,-1.7655 -8.73457,-8.81853 -8.73457,-8.81853z" fill="url(#color-10)"/></g><path d="M260.79334,185.8733c-2.08421,-0.94737 -4.487,-2.22922 -4.487,-2.22922c0,0 -3.55391,-1.59578 -6.12446,-3.18029c-2.17198,-1.33884 -6.48882,-4.78732 -10.80526,-7.57319c-5.73805,-3.70338 -11.41044,-6.71581 -11.41044,-6.71581c0,0 -7.56571,-4.75154 -3.3556,-9.4114c2.28843,-2.53289 7.12402,5.11056 7.12402,5.11056c0,0 10.81806,6.57814 12.98407,8.10569c1.00707,0.71021 2.55929,1.97247 4.17052,3.17733c0.68079,0.50907 2.97447,1.92129 3.6423,2.40916c2.77714,2.0288 5.6661,2.72036 5.6661,2.72036c0,0 7.79917,5.66611 7.73974,6.16062c-0.17315,1.44044 -5.2985,-2.02408 -5.07619,-1.49555c0.41997,0.99847 3.78972,3.39157 3.57784,3.86999c-0.20404,0.4607 -1.77026,-0.09582 -3.64563,-0.94826z" data-paper-data="{&quot;index&quot;:null}" fill="#adadad" stroke="#000000" stroke-width="0" stroke-linecap="butt"/><g><path d="M230.3524,155.61878l-0.14118,-7.87194c0,0 6.42506,3.30847 9.51977,3.25296c3.31674,-0.05948 9.76079,-3.59874 9.76079,-3.59874l0.14118,7.87194c0,0 -6.36411,0.79888 -9.56738,0.85632c-3.22346,0.05781 -9.71319,-0.51055 -9.71319,-0.51055z" fill="url(#color-11)" stroke="none" stroke-width="0" stroke-linecap="butt"/><path d="M250.03377,117.38654c0,0 -0.20516,3.24866 -0.50651,4.58265c-0.24683,1.09256 -1.17092,2.84257 -1.17092,2.84257" data-paper-data="{&quot;index&quot;:null}" fill="none" stroke="#3b2c16" stroke-width="1.25" stroke-linecap="round"/><path d="M251.512,121.49896c0,0 -0.14819,2.28153 -0.53061,3.24543c-0.40448,1.01947 -1.83379,2.71405 -1.83379,2.71405" data-paper-data="{&quot;index&quot;:null}" fill="none" stroke="#3b2c16" stroke-width="1.25" stroke-linecap="round"/><path d="M247.74928,115.6632c0,0 0.17523,3.26842 0.05377,4.69283c-0.09948,1.16661 -0.72982,3.2357 -0.72982,3.2357" data-paper-data="{&quot;index&quot;:null}" fill="none" stroke="#3b2c16" stroke-width="1.25" stroke-linecap="round"/><path d="M251.65555,133.82092c0.13254,7.39035 -7.87378,17.45854 -11.08538,17.578c-6.68806,0.24876 -14.40917,-9.72805 -14.54171,-17.1184c-0.13254,-7.39035 5.49684,-13.48429 12.57356,-13.61121c7.07672,-0.12692 12.92098,5.76125 13.05352,13.15161z" fill="url(#color-12)" stroke="none" stroke-width="0" stroke-linecap="butt"/><path d="M240.77334,135.09943c0.03699,2.06259 -0.78451,3.74991 -1.83487,3.76875c-1.05036,0.01884 -1.93182,-1.63795 -1.96881,-3.70053c-0.03699,-2.06259 0.78451,-3.7499 1.83486,-3.76874c1.05036,-0.01884 1.93183,1.63794 1.96882,3.70052z" fill="none" stroke="#191412" stroke-width="1.5" stroke-linecap="butt"/><path d="M245.40689,129.45374c0.03699,2.06259 -0.78451,3.74991 -1.83486,3.76875c-1.05036,0.01884 -1.93183,-1.63795 -1.96882,-3.70053c-0.03699,-2.06259 0.78451,-3.74991 1.83487,-3.76875c1.05036,-0.01884 1.93182,1.63794 1.96881,3.70053z" fill="none" stroke="#191412" stroke-width="1.5" stroke-linecap="butt"/><path d="M250.20128,134.88387c0.03699,2.06259 -0.7845,3.74991 -1.83486,3.76875c-1.05036,0.01884 -1.93183,-1.63795 -1.96882,-3.70053c-0.03699,-2.06259 0.78451,-3.7499 1.83487,-3.76874c1.05036,-0.01884 1.93182,1.63794 1.96881,3.70052z" fill="none" stroke="#191412" stroke-width="1.5" stroke-linecap="butt"/><path d="M245.54054,140.09707c0.03699,2.06259 -0.78451,3.74991 -1.83486,3.76875c-1.05036,0.01884 -1.93183,-1.63795 -1.96882,-3.70053c-0.03699,-2.06259 0.78451,-3.7499 1.83487,-3.76874c1.05036,-0.01884 1.93182,1.63794 1.96881,3.70052z" fill="none" stroke="#191412" stroke-width="1.5" stroke-linecap="butt"/><path d="M231.22221,125.4405c0,0 -1.5872,-1.70405 -2.04114,-2.78378c-0.55425,-1.31833 -1.0439,-4.55427 -1.0439,-4.55427" fill="none" stroke="#47341a" stroke-width="1.5" stroke-linecap="round"/><path d="M230.06209,128.12293c0,0 -2.40637,-1.62438 -3.11326,-2.62353c-0.66835,-0.94467 -1.01889,-3.21706 -1.01889,-3.21706" fill="none" stroke="#47341a" stroke-width="1.5" stroke-linecap="round"/><path d="M233.25085,124.15988c0,0 -1.12469,-2.03697 -1.3425,-3.19777c-0.26594,-1.41733 -0.13778,-4.69129 -0.13778,-4.69129" fill="none" stroke="#47341a" stroke-width="1.5" stroke-linecap="round"/><path d="M247.04852,118.32382l-0.17547,-3.42053l6.73109,-0.12071l0.16572,9.24097c0,0 -2.66559,-2.97909 -3.90255,-4.02803c-0.87819,-0.74469 -2.8188,-1.67171 -2.8188,-1.67171z" fill="url(#color-13)" stroke="url(#color-14)" stroke-width="1" stroke-linecap="butt"/><path d="M239.30539,151.10179c-9.01015,0.16159 -16.45493,-7.54791 -16.62838,-17.21965c-0.17346,-9.67173 6.99011,-17.6432 16.00025,-17.8048c9.01016,-0.16159 16.45494,7.5479 16.62839,17.21964c0.17346,9.67174 -6.99011,17.64321 -16.00026,17.80481z" fill="url(#color-15)" stroke="url(#color-16)" stroke-width="2.5" stroke-linecap="butt"/><path d="M228.03404,120.44104c-1.5439,1.40744 -4.83772,5.36556 -4.83772,5.36556l-0.21348,-11.90363l8.67056,-0.15549l-0.0679,4.41138c0,0 -2.45537,1.28298 -3.55146,2.28219z" data-paper-data="{&quot;index&quot;:null}" fill="url(#color-17)" stroke="url(#color-18)" stroke-width="1" stroke-linecap="butt"/></g></g></g></svg>