<svg version="1.1" xmlns="http://www.w3.org/2000/svg" xmlns:xlink="http://www.w3.org/1999/xlink" width="59" height="59.70662" viewBox="0,0,59,59.70662"><defs><linearGradient x1="270" y1="151.64675" x2="270" y2="208.35337" gradientUnits="userSpaceOnUse" id="color-1"><stop offset="0" stop-color="#191919"/><stop offset="1" stop-color="#050505"/></linearGradient><linearGradient x1="270" y1="151.64675" x2="270" y2="208.35337" gradientUnits="userSpaceOnUse" id="color-2"><stop offset="0" stop-color="#cccccc"/><stop offset="1" stop-color="#898989"/></linearGradient><radialGradient cx="270" cy="180.00006" r="26.8571" gradientUnits="userSpaceOnUse" id="color-3"><stop offset="0" stop-color="#ffffff" stop-opacity="0.35484"/><stop offset="1" stop-color="#ffffff" stop-opacity="0"/></radialGradient><linearGradient x1="270" y1="153.29216" x2="270" y2="206.70795" gradientUnits="userSpaceOnUse" id="color-4"><stop offset="0" stop-color="#cccccc"/><stop offset="1" stop-color="#898989"/></linearGradient><linearGradient x1="269.91101" y1="168.88188" x2="269.91101" y2="191.15577" gradientUnits="userSpaceOnUse" id="color-5"><stop offset="0" stop-color="#a78fba"/><stop offset="1" stop-color="#9e6cab"/></linearGradient><linearGradient x1="249.43656" y1="180.01883" x2="290.38536" y2="180.01883" gradientUnits="userSpaceOnUse" id="color-6"><stop offset="0" stop-color="#d0b6db"/><stop offset="1" stop-color="#bbabcf"/></linearGradient><linearGradient x1="257.04761" y1="179.99492" x2="257.92996" y2="179.99492" gradientUnits="userSpaceOnUse" id="color-7"><stop offset="0" stop-color="#21201f"/><stop offset="1" stop-color="#0e0e0e"/></linearGradient><linearGradient x1="281.88347" y1="179.90589" x2="282.76583" y2="179.90589" gradientUnits="userSpaceOnUse" id="color-8"><stop offset="0" stop-color="#21201f"/><stop offset="1" stop-color="#0e0e0e"/></linearGradient><linearGradient x1="251.21385" y1="180.00979" x2="288.77892" y2="180.00979" gradientUnits="userSpaceOnUse" id="color-9"><stop offset="0" stop-color="#21201f"/><stop offset="1" stop-color="#0e0e0e"/></linearGradient></defs><g transform="translate(-240.5,-150.14675)"><g data-paper-data="{&quot;isPaintingLayer&quot;:true}" fill-rule="nonzero" stroke-linejoin="miter" stroke-miterlimit="10" stroke-dasharray="" stroke-dashoffset="0" style="mix-blend-mode: normal"><path d="M242,208.35337v-56.70662h56v56.70662z" fill="url(#color-1)" stroke="url(#color-2)" stroke-width="3" stroke-linecap="butt"/><path d="M296.8571,180.00006c0,14.75036 -12.02433,26.70789 -26.8571,26.70789c-14.83277,0 -26.8571,-11.95753 -26.8571,-26.70789c0,-14.75036 12.02433,-26.70789 26.8571,-26.70789c14.83277,0 26.8571,11.95753 26.8571,26.70789z" fill="url(#color-3)" stroke="url(#color-4)" stroke-width="0" stroke-linecap="butt"/><g><path d="M249.43656,191.15577l-1.78035,-2.53194l1.78035,-2.84856l-2.13641,-3.20462l2.13641,-2.84855l-2.13641,-2.84856l2.13641,-2.84856l-2.13641,-2.67052l2.13641,-2.47258c0,0 1.47835,0.1241 1.79061,-0.18811c0.33854,-0.33847 1.59246,-1.94832 1.59246,-1.94832l33.98612,-0.03763c0,0 1.42719,1.7101 1.85414,2.10788c0.31882,0.29705 1.72554,0.06616 1.72554,0.06616l2.31444,2.82867l-2.31444,2.67053l2.31444,2.67052l-2.31444,3.02659l2.31444,2.84856l-2.31444,2.84856l2.13641,3.02659l-2.13641,2.3539c0,0 -1.40329,-0.16155 -1.74108,0.19458c-0.32774,0.34551 -1.32466,1.91131 -1.32466,1.91131l-35.03416,0.03053c0,0 -0.65516,-1.36719 -0.99898,-1.71094c-0.36695,-0.36687 -1.84998,-0.42547 -1.84998,-0.42547z" fill="url(#color-5)" stroke="url(#color-6)" stroke-width="0.5" stroke-linecap="butt"/><path d="M257.75586,190.05389l0.17804,-19.76186" fill="none" stroke="url(#color-7)" stroke-width="0.5" stroke-linecap="round"/><path d="M282.14661,189.69783v-19.22776" fill="none" stroke="url(#color-8)" stroke-width="0.5" stroke-linecap="round"/><path d="M288.77892,180.00979c0.10084,10.21496 -0.59867,10.22738 -18.78253,10.22738c-18.55579,0 -18.78253,0.38578 -18.78253,-10.22738c0,-10.216 -0.14583,-10.11959 18.78253,-10.22737c19.11317,-0.10883 18.67971,-0.18852 18.78253,10.22737z" fill="none" stroke="url(#color-9)" stroke-width="0.5" stroke-linecap="butt"/><text transform="translate(261.4121,179.41494) scale(0.13214,0.13214)" font-size="40" xml:space="preserve" fill="#000000" fill-rule="nonzero" stroke="none" stroke-width="1" stroke-linecap="butt" stroke-linejoin="miter" stroke-miterlimit="10" stroke-dasharray="" stroke-dashoffset="0" font-family="Serif" font-weight="normal" text-anchor="start" style="mix-blend-mode: normal"><tspan x="0" dy="0">ADMIT</tspan></text><text transform="translate(258.95868,183.85486) scale(0.13214,0.13214)" font-size="40" xml:space="preserve" fill="#000000" fill-rule="nonzero" stroke="none" stroke-width="1" stroke-linecap="butt" stroke-linejoin="miter" stroke-miterlimit="10" stroke-dasharray="" stroke-dashoffset="0" font-family="Serif" font-weight="normal" text-anchor="start" style="mix-blend-mode: normal"><tspan x="0" dy="0">TWENTY</tspan></text></g><path d="M245.06972,162.22182v-7.06998h22.78327v7.06998z" fill-opacity="0.53453" fill="#000000" stroke="#a60000" stroke-width="0" stroke-linecap="butt"/><text transform="translate(245.50356,160.75253) scale(0.18022,0.18022)" font-size="40" xml:space="preserve" fill="#ffffff" fill-rule="nonzero" stroke="#000000" stroke-width="0" stroke-linecap="butt" stroke-linejoin="miter" stroke-miterlimit="10" stroke-dasharray="" stroke-dashoffset="0" font-family="Serif" font-weight="normal" text-anchor="start" style="mix-blend-mode: normal"><tspan x="0" dy="0">Worker</tspan></text><path d="M245.06973,168.32923v-7.06998h19.32241v7.06998z" fill-opacity="0.53453" fill="#000000" stroke="#a60000" stroke-width="0" stroke-linecap="butt"/><text transform="translate(245.50357,166.85994) scale(0.18022,0.18022)" font-size="40" xml:space="preserve" fill="#ffffff" fill-rule="nonzero" stroke="#000000" stroke-width="0" stroke-linecap="butt" stroke-linejoin="miter" stroke-miterlimit="10" stroke-dasharray="" stroke-dashoffset="0" font-family="Serif" font-weight="normal" text-anchor="start" style="mix-blend-mode: normal"><tspan x="0" dy="0">Ticket</tspan></text><path d="M245.06973,175.90063v-7.64141h16.60813v7.64141z" fill-opacity="0.53453" fill="#000000" stroke="#a60000" stroke-width="0" stroke-linecap="butt"/><text transform="translate(245.50357,173.85993) scale(0.18022,0.18022)" font-size="40" xml:space="preserve" fill="#ffffff" fill-rule="nonzero" stroke="#000000" stroke-width="0" stroke-linecap="butt" stroke-linejoin="miter" stroke-miterlimit="10" stroke-dasharray="" stroke-dashoffset="0" font-family="Serif" font-weight="normal" text-anchor="start" style="mix-blend-mode: normal"><tspan x="0" dy="0">(x20)</tspan></text></g></g></svg>