<svg version="1.1" xmlns="http://www.w3.org/2000/svg" xmlns:xlink="http://www.w3.org/1999/xlink" width="61.0468" height="43.02902" viewBox="0,0,61.0468,43.02902"><defs><radialGradient cx="249.77817" cy="174.16947" r="16.45196" gradientUnits="userSpaceOnUse" id="color-1"><stop offset="0" stop-color="#adadad"/><stop offset="1" stop-color="#6e6e6e"/></radialGradient><radialGradient cx="276.5999" cy="175.36645" r="18.16625" gradientUnits="userSpaceOnUse" id="color-2"><stop offset="0" stop-color="#b3b3b3"/><stop offset="1" stop-color="#747474"/></radialGradient><radialGradient cx="264.53835" cy="157.7255" r="15.09482" gradientUnits="userSpaceOnUse" id="color-3"><stop offset="0" stop-color="#c4c4c4"/><stop offset="1" stop-color="#878787"/></radialGradient></defs><g transform="translate(-229.55312,-151.33802)"><g data-paper-data="{&quot;isPaintingLayer&quot;:true}" fill-rule="nonzero" stroke="#cccccc" stroke-width="0" stroke-linecap="butt" stroke-linejoin="miter" stroke-miterlimit="10" stroke-dasharray="" stroke-dashoffset="0" style="mix-blend-mode: normal"><path d="M246.02627,165.95452c9.07447,0 16.43078,5.84855 16.43078,13.06312c0,7.21457 -0.36961,13.13053 -16.43078,13.06313c-18.13051,-0.07609 -16.43078,-5.84856 -16.43078,-13.06313c0,-7.21456 7.35631,-13.06312 16.43078,-13.06312z" data-paper-data="{&quot;index&quot;:null}" fill="url(#color-1)"/><path d="M272.45705,166.65216c10.02003,0 18.14286,6.20405 18.14286,13.85714c0,7.65309 -0.40812,13.92864 -18.14286,13.85714c-20.0197,-0.08071 -18.14286,-6.20405 -18.14286,-13.85714c0,-7.65309 8.12284,-13.85714 18.14286,-13.85714z" data-paper-data="{&quot;index&quot;:null}" fill="url(#color-2)"/><path d="M261.09594,151.33802c8.3259,0 15.07538,4.54751 15.07538,10.15715c0,5.60965 -0.33911,10.20957 -15.07538,10.15716c-16.6349,-0.05917 -15.07538,-4.54752 -15.07538,-10.15716c0,-5.60964 6.74947,-10.15715 15.07538,-10.15715z" data-paper-data="{&quot;index&quot;:null}" fill="url(#color-3)"/></g></g></svg>