<svg version="1.1" xmlns="http://www.w3.org/2000/svg" xmlns:xlink="http://www.w3.org/1999/xlink" width="619.06293" height="471.58011" viewBox="0,0,619.06293,471.58011"><defs><radialGradient cx="240.00009" cy="180.00006" r="250.5" gradientUnits="userSpaceOnUse" id="color-1"><stop offset="0" stop-color="#949494"/><stop offset="1" stop-color="#7d7d7d"/></radialGradient><radialGradient cx="243.51181" cy="115.55084" r="114.5" gradientUnits="userSpaceOnUse" id="color-2"><stop offset="0" stop-color="#484848"/><stop offset="1" stop-color="#3a3a3a"/></radialGradient><radialGradient cx="313.80125" cy="294.91337" r="270.53072" gradientUnits="userSpaceOnUse" id="color-3"><stop offset="0" stop-color="#4d4d4d"/><stop offset="1" stop-color="#3c3c3c"/></radialGradient><radialGradient cx="228.97833" cy="295.72909" r="66" gradientUnits="userSpaceOnUse" id="color-4"><stop offset="0" stop-color="#2a2a2a"/><stop offset="1" stop-color="#2a2a2a"/></radialGradient><radialGradient cx="222.20351" cy="300.86251" r="66" gradientUnits="userSpaceOnUse" id="color-5"><stop offset="0" stop-color="#1d1d1d"/><stop offset="1" stop-color="#1b1b1b"/></radialGradient><radialGradient cx="349.58353" cy="460.23884" r="249.95744" gradientUnits="userSpaceOnUse" id="color-6"><stop offset="0" stop-color="#222222"/><stop offset="1" stop-color="#202020"/></radialGradient><radialGradient cx="308.17233" cy="321.18156" r="65" gradientUnits="userSpaceOnUse" id="color-7"><stop offset="0" stop-color="#090909"/><stop offset="1" stop-color="#080808"/></radialGradient><radialGradient cx="465.65067" cy="224.72" r="26.5" gradientUnits="userSpaceOnUse" id="color-8"><stop offset="0" stop-color="#525252"/><stop offset="1" stop-color="#424242"/></radialGradient><radialGradient cx="389.18031" cy="269.01043" r="84" gradientUnits="userSpaceOnUse" id="color-9"><stop offset="0" stop-color="#1d1d1d"/><stop offset="1" stop-color="#1b1b1b"/></radialGradient><radialGradient cx="423.82294" cy="235.41897" r="44.75" gradientUnits="userSpaceOnUse" id="color-10"><stop offset="0" stop-color="#3a3a3a"/><stop offset="1" stop-color="#2f2f2f"/></radialGradient><radialGradient cx="376.45237" cy="275.17483" r="48.5" gradientUnits="userSpaceOnUse" id="color-11"><stop offset="0" stop-color="#343434"/><stop offset="1" stop-color="#262626"/></radialGradient><radialGradient cx="333.55179" cy="251.02499" r="26.25" gradientUnits="userSpaceOnUse" id="color-12"><stop offset="0" stop-color="#121212"/><stop offset="1" stop-color="#161616"/></radialGradient><radialGradient cx="315.50973" cy="318.64932" r="65" gradientUnits="userSpaceOnUse" id="color-13"><stop offset="0" stop-color="#101010"/><stop offset="1" stop-color="#111111"/></radialGradient><radialGradient cx="483.58953" cy="206.60378" r="36.25" gradientUnits="userSpaceOnUse" id="color-14"><stop offset="0" stop-color="#313131"/><stop offset="1" stop-color="#1b1b1b"/></radialGradient><radialGradient cx="374.11479" cy="349.70196" r="26.25" gradientUnits="userSpaceOnUse" id="color-15"><stop offset="0" stop-color="#121212"/><stop offset="1" stop-color="#161616"/></radialGradient><radialGradient cx="368.08642" cy="265.03341" r="57.27136" gradientUnits="userSpaceOnUse" id="color-16"><stop offset="0" stop-color="#33266a"/><stop offset="1" stop-color="#949074"/></radialGradient><linearGradient x1="-11.98819" y1="179.28457" x2="150.92972" y2="179.28457" gradientUnits="userSpaceOnUse" id="color-17"><stop offset="0" stop-color="#7d7d7d"/><stop offset="1" stop-color="#818181"/></linearGradient><linearGradient x1="410.94634" y1="222.12461" x2="398.72584" y2="234.48744" gradientUnits="userSpaceOnUse" id="color-18"><stop offset="0" stop-color="#694444"/><stop offset="1" stop-color="#98a1b9"/></linearGradient><radialGradient cx="452.33625" cy="179.79039" r="33.28545" gradientUnits="userSpaceOnUse" id="color-19"><stop offset="0" stop-color="#dcdcdc"/><stop offset="1" stop-color="#a0a0a0"/></radialGradient><radialGradient cx="463.59446" cy="187.24225" r="25.55275" gradientUnits="userSpaceOnUse" id="color-20"><stop offset="0" stop-color="#1c2f30"/><stop offset="1" stop-color="#142913"/></radialGradient><radialGradient cx="431.56522" cy="159.3726" r="6.72592" gradientUnits="userSpaceOnUse" id="color-21"><stop offset="0" stop-color="#786c41"/><stop offset="1" stop-color="#141a29"/></radialGradient><radialGradient cx="453.30022" cy="178.30612" r="10.58856" gradientUnits="userSpaceOnUse" id="color-22"><stop offset="0" stop-color="#7ba676"/><stop offset="1" stop-color="#291616"/></radialGradient><radialGradient cx="431.79523" cy="190.78181" r="25.00169" gradientUnits="userSpaceOnUse" id="color-23"><stop offset="0" stop-color="#d1ffc4"/><stop offset="1" stop-color="#2188ff"/></radialGradient><radialGradient cx="431.79523" cy="190.78181" r="25.00169" gradientUnits="userSpaceOnUse" id="color-24"><stop offset="0" stop-color="#ceffc4"/><stop offset="1" stop-color="#ff21cc"/></radialGradient><radialGradient cx="431.79523" cy="190.78181" r="25.00169" gradientUnits="userSpaceOnUse" id="color-25"><stop offset="0" stop-color="#ffe9c4"/><stop offset="1" stop-color="#4fff21"/></radialGradient><radialGradient cx="431.79523" cy="190.78181" r="25.00169" gradientUnits="userSpaceOnUse" id="color-26"><stop offset="0" stop-color="#ffe9c4"/><stop offset="1" stop-color="#4fff21"/></radialGradient><radialGradient cx="431.79529" cy="190.78186" r="25.00169" gradientUnits="userSpaceOnUse" id="color-27"><stop offset="0" stop-color="#ffe9c4"/><stop offset="1" stop-color="#ffa321"/></radialGradient><radialGradient cx="431.79531" cy="190.78188" r="25.00169" gradientUnits="userSpaceOnUse" id="color-28"><stop offset="0" stop-color="#c4f0ff"/><stop offset="1" stop-color="#3d21ff"/></radialGradient></defs><g transform="translate(11.98819,8.48167)"><g data-paper-data="{&quot;isPaintingLayer&quot;:true}" fill-rule="nonzero" stroke-linejoin="miter" stroke-miterlimit="10" stroke-dasharray="" stroke-dashoffset="0" style="mix-blend-mode: normal"><path d="M-10.49991,368.00005v-376h501v376z" fill="url(#color-1)" stroke="none" stroke-width="0" stroke-linecap="butt"/><path d="M55.63712,350.09241c-3.89444,-35.12313 -28.86024,-260.28391 -28.86024,-260.28391c0,0 6.13498,-58.73673 90.38049,-83.32369c88.94305,-19.99889 123.11201,33.7383 123.11201,33.7383c0,0 65.07454,148.36123 76.16367,173.64299c3.0985,7.06417 1.47154,14.99796 -6.00481,17.45295c-24.82515,8.15175 -82.74364,27.48408 -119.81421,42.36863c-36.09995,14.49483 -99.11668,64.98273 -123.29164,84.94994c-6.18411,5.10773 -10.69693,0.36836 -11.68526,-8.54521z" fill="#000000" stroke="none" stroke-width="NaN" stroke-linecap="butt"/><path d="M165.01174,165.05085l-2,-164c0,0 26.59426,3.29414 40.84201,7.29545c21.80408,6.12342 42.158,33.70455 42.158,33.70455c0,0 56.32326,135.7535 68.65762,165.48248c4.54989,10.96641 3.54663,20.14819 -2.69066,17.59835c-21.79808,-8.91117 -146.96696,-60.08083 -146.96696,-60.08083z" fill="url(#color-2)" stroke="none" stroke-width="0" stroke-linecap="butt"/><path d="M605.6926,270.33002c14.79035,54.92892 -90.81001,131.12039 -235.86501,170.17842c-145.055,39.05803 -274.63528,26.19214 -289.42563,-28.73678c-14.79036,-54.92892 90.81,-131.1204 235.86501,-170.17843c145.05501,-39.05803 274.63528,-26.19213 289.42564,28.73679z" fill="url(#color-3)" stroke="none" stroke-width="NaN" stroke-linecap="butt"/><g data-paper-data="{&quot;index&quot;:null}"><path d="M221.72142,243.5142l18.63568,7.20842l33.462,93.83653l-22.25925,-11.99065z" fill="url(#color-4)" stroke="none" stroke-width="0" stroke-linecap="butt"/><path d="M252.45345,331.2641l21.46221,12.59458l-6.87139,5.83387l-22.95973,-12.08721z" fill="url(#color-5)" stroke="none" stroke-width="0" stroke-linecap="butt"/><path d="M243.98795,338.30584l-29.01224,-87.79835l7.58732,-5.8825l30.00994,86.54853z" data-paper-data="{&quot;index&quot;:null}" fill="url(#color-6)" stroke="none" stroke-width="0" stroke-linecap="butt"/><path d="M226.68191,247.06684l49.6744,5.71874l-37.99309,0.88027" fill="none" stroke="#747474" stroke-width="1.5" stroke-linecap="round"/><path d="M255.92502,328.04884l55.24453,10.40635l-43.1397,-2.28397" fill="none" stroke="#747474" stroke-width="1.5" stroke-linecap="round"/><path d="M261.55152,294.70277c-6.53341,-17.0944 -5.97747,-42.56344 -2.56125,-48.30337c2.17588,-3.65591 19.20595,5.0226 28.79083,9.47131c7.94194,3.68615 20.28707,15.94247 20.28707,15.94247l45.54771,97.12701c0,0 -20.99459,-3.76071 -30.44393,-7.83954c-9.80806,-4.23367 -25.97957,-9.11744 -30.68559,-14.8801c-4.67276,-5.72192 -24.85768,-35.61715 -30.93484,-51.51779z" fill="url(#color-7)" stroke="none" stroke-width="0" stroke-linecap="butt"/><path d="M447.24618,204.56373l11.4751,-7.12896l27.95706,45.07108l-12.43968,8.3818z" fill="url(#color-8)" stroke="none" stroke-width="0" stroke-linecap="butt"/><path d="M314.438,269.9328l123.01751,-82.28573l54.9052,82.38124l-141.83002,91.94697z" fill="url(#color-9)" stroke="none" stroke-width="0" stroke-linecap="butt"/><path d="M386.04125,222.89278l43.80938,-30.72438l47.9381,75.62035l-47.68542,32.13022z" fill="url(#color-10)" stroke="none" stroke-width="0" stroke-linecap="butt"/><path d="M321.12865,276.87998l69.10339,-47.76737l35.25675,63.06316l-75.46736,50.84956z" fill="url(#color-11)" stroke="none" stroke-width="0" stroke-linecap="butt"/><path d="M299.1187,256.74145c0,0 17.84291,-8.94866 28.21866,-11.42355c8.73093,-2.08255 31.61593,-3.57052 31.61593,-3.57052l-43.12421,29.0569z" fill="url(#color-12)" stroke="none" stroke-width="0" stroke-linecap="butt"/><path d="M268.88892,292.17044c-6.53341,-17.0944 -10.41229,-41.98691 -6.99608,-47.72684c2.17588,-3.65591 23.64077,4.44607 33.22565,8.89478c7.94194,3.68615 20.28707,15.94247 20.28707,15.94247l42.23047,99.36215c0,0 -17.67735,-5.99585 -27.12668,-10.07468c-9.80806,-4.23367 -25.97957,-9.11744 -30.68559,-14.8801c-4.67276,-5.72192 -24.85768,-35.61715 -30.93484,-51.51779z" fill="url(#color-13)" stroke="none" stroke-width="0" stroke-linecap="butt"/><path d="M449.82506,193.17954l31.23445,-21.64854l44.65857,57.33116l-34.41643,23.18963z" fill="url(#color-14)" stroke="none" stroke-width="0" stroke-linecap="butt"/><path d="M335.68819,361.12379c0,0 20.54692,-17.4247 32.57751,-22.08748c10.09842,-3.91392 30.79164,-7.34635 30.79164,-7.34635l-43.07987,38.07066z" fill="url(#color-15)" stroke="none" stroke-width="0" stroke-linecap="butt"/></g><path d="M299.64068,271.15999l89.43749,-71.56089l47.4536,59.30785l-89.43749,71.56089z" fill="url(#color-16)" stroke="#ed6b00" stroke-width="0" stroke-linecap="butt"/><g data-paper-data="{&quot;index&quot;:null}" stroke="#000000" stroke-width="0" stroke-linecap="butt"><path d="M307.31152,258.95778c0,0 4.18037,-3.26822 9.77395,-9.81636c3.35961,-3.93304 8.50643,-10.65907 9.93448,-12.0059c3.18564,-3.00386 6.56406,-6.91837 8.70741,-8.76588c1.08756,-0.93744 9.94053,-8.7919 19.62876,-16.01765c11.55197,-8.6158 22.00421,-19.44492 26.80414,-8.96379c9.88604,10.73862 -21.97628,27.44136 -21.97628,27.44136c0,0 -8.03097,4.61021 -12.9846,8.87976c-2.30318,1.98513 -6.49481,4.64003 -10.3435,7.77489c-1.62623,1.32457 -6.38003,5.96898 -7.94787,7.27535c-6.51953,5.43226 -9.90478,11.93333 -9.90478,11.93333z" fill="#b8bda6"/><path d="M299.79329,267.37438c-1.08555,-0.74005 7.13598,-8.55394 7.13598,-8.55394c0,0 4.8416,1.21324 6.76661,2.48033c1.9772,1.30105 4.94375,5.22642 4.94375,5.22642c0,0 -1.72351,2.25815 -1.9349,4.52315c-0.36207,3.87604 -0.40312,8.29002 -3.34861,9.5859c-1.59825,0.70326 0.85486,-5.66943 -0.05624,-5.54216c-0.16211,0.02258 -6.96383,8.26416 -8.03845,7.99357c-1.75578,-0.44218 4.68485,-9.29203 3.29271,-8.30579c-2.85718,2.0247 -6.63202,8.65794 -7.92198,8.10145c-2.17285,-0.93768 7.12122,-10.92016 5.9429,-10.52438c-2.20125,0.73962 -6.78563,7.65708 -7.9347,7.22144c-3.34731,-1.26893 5.40178,-8.76242 4.00382,-8.54334c-2.64058,0.41366 -5.42269,5.6717 -6.443,4.88043c-2.07435,-1.60866 4.10452,-8.19326 3.59202,-8.5428z" data-paper-data="{&quot;index&quot;:null}" fill="#786274"/></g><g><path d="M247.2931,263.26453l85.8357,6.25737c0,0 6.18993,16.91551 6.48774,24.69138c0.35237,9.20038 -10.70174,1.9492 -10.70174,1.9492c0,0 -0.52418,-7.83107 -4.19431,-8.46753c-11.2242,-1.94621 -76.65038,-4.13901 -76.65038,-4.13901z" data-paper-data="{&quot;index&quot;:null}" fill="#4a433c" stroke="#000000" stroke-width="0" stroke-linecap="butt"/><path d="M228.9733,249.34332c-0.08027,-2.09654 4.80139,-3.26287 4.80139,-3.26287c0,0 3.77471,1.40771 5.1268,2.02054c1.10412,0.49996 2.80668,4.14149 2.80668,4.14149c0,0 1.61801,7.22774 2.0517,10.68924c0.73282,5.84994 1.00579,20.90772 1.00579,20.90772c0,0 -4.5,0.64592 -6.41649,0.663c-1.42232,0.01266 -4.04847,-0.57 -4.04847,-0.57c0,0 -1.15614,-2.0117 -2.20288,-5.94521c-0.56797,-2.13456 0.27593,-6.64493 -0.29437,-9.60665c-0.45288,-2.35282 -1.95804,-3.94421 -2.20401,-7.11548c-0.40422,-5.21557 -0.56902,-10.41808 -0.62645,-11.92114z" data-paper-data="{&quot;index&quot;:null}" fill="#140d0d" stroke="#000000" stroke-width="0" stroke-linecap="butt"/><path d="M235.52797,249.77992c-0.08042,-2.09646 -0.11763,-3.07453 -0.11763,-3.07453c0,0 6.21082,0.69886 7.56291,1.31169c1.10389,0.49994 2.80646,4.14149 2.80646,4.14149c0,0 1.65352,8.14994 2.08719,11.61147c0.0736,0.58864 9.16234,0.55297 9.16234,0.55297c0,0 -0.29907,8.35863 -0.23208,9.4617c0.125,2.05147 -8.30968,-1.5254 -8.22802,0.62211c0.04661,1.22643 -1.71919,5.2711 0.22391,7.10268c2.17158,2.0473 7.8141,3.066 7.8141,3.066l-7.73482,0.10234c0,0 -2.44881,0.26563 -4.86004,-1.86668c-1.65077,-1.4597 -4.57846,-0.81657 -6.15566,-2.97731c-2.29349,-3.14162 -2.46464,-3.55267 -2.63358,-4.43036c-0.48491,-2.51992 1.42404,-3.29947 0.77251,-9.13857c-0.31164,-2.79271 -2.64659,-1.79103 -3.59391,-9.7168c-1.00329,-8.39261 3.14983,-6.13809 3.12571,-6.76744z" data-paper-data="{&quot;index&quot;:null}" fill="#1f261f" stroke="#000000" stroke-width="0" stroke-linecap="butt"/><path d="M243.70385,268.43579l2.50804,-6.86991" fill="none" stroke="#ffb5b5" stroke-width="0.5" stroke-linecap="round"/><path d="M246.03489,256.95388l-3.44204,6.59789" fill="none" stroke="#bffdff" stroke-width="0.5" stroke-linecap="round"/><path d="M245.314,254.21073l-3.54782,3.83047" fill="none" stroke="#eaffc1" stroke-width="0.5" stroke-linecap="round"/><path d="M253.65967,271.13307l0.40293,-5.55757" fill="none" stroke="#8d967b" stroke-width="0.5" stroke-linecap="round"/><path d="M252.19443,265.03159l-0.73406,4.95449" fill="none" stroke="#767796" stroke-width="0.5" stroke-linecap="round"/></g><g><path d="M264.36439,309.44154c0,0 62.78673,-18.52624 73.16434,-23.22406c3.39357,-1.53625 1.9375,-9.24874 1.9375,-9.24874c0,0 8.88337,-9.79098 10.84889,-0.79589c1.66128,7.60199 -0.09016,25.52926 -0.09016,25.52926l-81.52528,27.5776z" fill="#413a4a" stroke="#000000" stroke-width="0" stroke-linecap="butt"/><path d="M247.81418,293.80348c0,0 3.96375,0.72181 5.40256,1.08691c1.17494,0.29806 3.49154,3.58305 3.49154,3.58305c0,0 2.86415,6.82997 3.90005,10.16138c1.75056,5.63004 4.66844,20.40469 4.66844,20.40469c0,0 -4.31569,1.42773 -6.19955,1.78153c-1.39813,0.26252 -4.08563,0.15085 -4.08563,0.15085c0,0 -1.49208,-1.77682 -3.21429,-5.46476c-0.93472,-2.00147 -0.8977,-6.58944 -1.98004,-9.40497c-0.85984,-2.23607 -2.62163,-3.53824 -3.42145,-6.61664c-1.31576,-5.06366 -2.39317,-10.15585 -2.71415,-11.62524c-0.44799,-2.04971 4.1525,-4.0568 4.1525,-4.0568z" data-paper-data="{&quot;index&quot;:null}" fill="#12140d" stroke="#000000" stroke-width="0" stroke-linecap="butt"/><path d="M249.53392,294.13218c0,0 6.23697,-0.40474 7.67578,-0.03962c1.17494,0.29806 3.49154,3.58306 3.49154,3.58306c0,0 3.0615,7.7316 4.09724,11.06299c0.17626,0.56663 9.11679,-1.06755 9.11679,-1.06755c0,0 1.17615,8.28095 1.4363,9.35499c0.48372,1.9973 -8.44847,-0.03953 -7.99023,2.06c0.26155,1.19906 -0.76506,5.49105 1.47002,6.95227c2.49811,1.63312 8.23186,1.64319 8.23186,1.64319l-7.59608,1.46143c0,0 -2.36376,0.69196 -5.11268,-0.98266c-1.88174,-1.14665 -4.6508,0.00135 -6.58343,-1.84804c-2.81026,-2.68941 -3.05158,-3.06386 -3.37215,-3.89807c-0.92041,-2.39506 0.82123,-3.49856 -0.84722,-9.1318c-0.79786,-2.69426 -2.92008,-1.29723 -5.24734,-8.93284c-2.46443,-8.08574 2.02063,-6.59668 1.88631,-7.21219c-0.44782,-2.04979 -0.65667,-3.00591 -0.65667,-3.00591z" data-paper-data="{&quot;index&quot;:null}" fill="#1e1e26" stroke="#000000" stroke-width="0" stroke-linecap="butt"/><path d="M261.52143,314.06266l1.26023,-7.20383" fill="none" stroke="#c1ffce" stroke-width="0.5" stroke-linecap="round"/><path d="M261.79635,302.35021l-2.22764,7.10036" fill="none" stroke="#eaffc1" stroke-width="0.5" stroke-linecap="round"/><path d="M257.7854,304.17134l2.8188,-4.39509" fill="none" stroke="#ffb5b5" stroke-width="0.5" stroke-linecap="round"/><path d="M271.21556,309.42483l0.581,5.54164" fill="none" stroke="#7d967f" stroke-width="0.5" stroke-linecap="round"/><path d="M269.28085,309.21789l0.14916,5.00615" fill="none" stroke="#966262" stroke-width="0.5" stroke-linecap="round"/></g><path d="M-11.98819,369.05086l1,-377l160.91797,-0.53253l0.08203,9.53253c0,0 -39.46962,6.29142 -75.5582,25.97667c-26.80308,14.62028 -51.53474,44.21584 -49.36246,61.1415c8.78971,68.48644 35.92067,279.88184 35.92067,279.88184z" fill="url(#color-17)" stroke="none" stroke-width="0" stroke-linecap="butt"/><g stroke-linecap="butt"><path d="M391.81799,227.65912l12.22053,-12.36285l13.81565,13.65674l-12.22053,12.36285z" fill="url(#color-18)" stroke="#000000" stroke-width="0"/><path d="M401.78734,180.51298c9.82963,-16.97569 30.39681,-23.44145 45.93812,-14.44205c15.54138,8.99931 20.17132,30.05571 10.34189,47.03111c-9.82963,16.97569 -30.39681,23.44145 -45.93812,14.44205c-15.54126,-8.99923 -20.17121,-30.05565 -10.34178,-47.03103z" fill="url(#color-19)" stroke="none" stroke-width="0"/><path d="M457.63213,183.73321l-0.01397,-0.01381l-0.03712,0.0352l-1.08762,-1.14794c-0.4196,-0.42579 -0.49806,-1.09629 -0.16675,-1.61154c-3.9868,-3.20554 -8.48221,-6.13901 -11.07028,-8.63245c-0.37054,-0.35694 -0.86166,-0.68064 -1.39934,-0.99337c0.06023,0.33098 -0.00747,0.68467 -0.21685,0.98113c-0.41389,0.58576 -1.2236,0.72505 -1.80927,0.31156c-0.08678,-0.06143 -0.16405,-0.13193 -0.23095,-0.20852l-0.50841,-0.5598c0.02311,0.26984 0.03871,0.54344 0.04722,0.82001c0,0 0.03702,1.29754 -1.26052,1.33477c-1.29754,0.03702 -1.33477,-1.26052 -1.33477,-1.26052c-0.08392,-3.18172 -1.30304,-5.72867 -3.30905,-7.40199c-1.37947,-0.65533 -2.74952,-1.26908 -4.00349,-1.93646c-0.95312,-0.21713 -1.97669,-0.31495 -3.05615,-0.28395l-0.10976,-0.05261l-0.00602,0.04021l-1.36601,-0.20814c-0.20196,-0.0263 -0.40127,-0.1013 -0.5792,-0.22709c-0.58576,-0.41389 -0.72507,-1.22361 -0.31156,-1.80927c0.10443,-0.14769 0.23415,-0.26689 0.37882,-0.35611l1.39764,-0.90662l0.36246,0.55946c0.45601,-0.20052 0.92222,-0.33918 1.39543,-0.42245l-0.5999,-0.63351c-0.43246,-0.43908 -0.50237,-1.1379 -0.13438,-1.65928c0.41389,-0.58576 1.2236,-0.72505 1.80927,-0.31156l1.28578,0.90806c0.47324,0.33456 1.00851,0.70022 1.58404,1.09291c0.8624,0.40091 1.7974,1.07248 2.73508,1.89287c2.04001,1.45202 4.17459,3.1057 5.75063,4.82134c0.64325,0.59649 1.24496,1.18242 1.7948,1.72864l1.21992,0.86126c0.26668,0.1883 0.44099,0.45862 0.51256,0.75297c4.65002,3.08561 8.56603,7.27925 12.89955,11.03891c3.14601,2.72959 7.08974,5.40248 8.47294,9.44783c0.52909,3.23253 -1.8836,11.15453 -5.83236,5.52681c-2.31489,-3.29991 1.21036,-3.93914 1.71072,-6.2668c-0.73163,-1.09799 -1.80204,-2.33434 -2.68419,-3.4534c-0.93339,-0.77982 -1.83296,-1.43776 -2.18628,-1.68767z" fill="url(#color-20)" stroke="none" stroke-width="0.5"/><path d="M429.27586,156.45817c5.23903,3.81511 5.62591,3.17252 2.82708,6.91773c-2.79876,3.74538 -7.57795,5.18781 -10.67433,3.22128c-3.09623,-1.96672 -3.33752,-6.59746 -0.53872,-10.34266c2.7988,-3.7454 2.79905,-3.86436 8.38602,0.20389z" data-paper-data="{&quot;index&quot;:null}" fill="url(#color-21)" stroke="#000000" stroke-width="0"/><path d="M440.40324,170.76217c3.31732,-3.918 2.69302,-3.36439 10.82001,2.92212c8.66679,6.70378 8.50922,6.71576 5.19202,10.63385c-3.31689,3.91806 -9.59055,4.05962 -14.01207,0.31613c-4.42193,-3.7432 -5.31731,-9.9541 -2.00008,-13.8722z" fill="url(#color-22)" stroke="#000000" stroke-width="0"/><path d="M405.13967,208.06124c-21.87409,-20.87332 -5.27987,-34.33791 -5.27987,-34.33791c6.27885,-7.13174 22.04603,-5.66415 32.40559,3.45662c10.35958,9.12079 17.23743,25.74637 10.95858,32.87817c-6.27902,7.13179 -18.48255,17.06486 -38.08446,-1.99676z" data-paper-data="{&quot;index&quot;:null}" fill="url(#color-23)" stroke="#ed6b00" stroke-width="0"/><path d="M405.13967,208.06126c-1.64367,-1.56843 -3.07014,-3.09505 -4.30273,-4.5773c0.97166,-0.69429 1.88202,-1.50631 2.71045,-2.43486c6.02403,-6.75219 5.43377,-17.10933 -1.3184,-23.13339c-1.21133,-1.0807 -2.53869,-1.94855 -3.93624,-2.60614c0.89521,-1.04109 1.56712,-1.58627 1.56712,-1.58627c1.34782,-1.53089 3.13276,-2.66549 5.20762,-3.41327c5.0573,3.28124 11.46121,3.46223 16.63949,0.68953c3.74068,1.33119 7.40079,3.40025 10.55848,6.18035c1.84169,1.62141 3.57334,3.48006 5.14057,5.48041c-5.51348,-1.10662 -11.45163,0.65666 -15.4658,5.15601c-6.02403,6.75219 -5.43377,17.10933 1.3184,23.13339c4.34371,3.87533 10.17926,5.01328 15.39345,3.53453c-6.97,5.54465 -17.89227,8.76689 -33.51258,-6.42288z" data-paper-data="{&quot;index&quot;:null}" fill="url(#color-24)" stroke="#ed6b00" stroke-width="0"/><path d="M432.26542,177.1801c8.18235,7.20392 14.19267,19.08955 13.26379,27.28137c-6.00362,-1.97122 -12.87082,-0.35589 -17.34625,4.66052c-2.52764,2.83315 -3.89083,6.30101 -4.12285,9.81717c-2.26877,-0.29495 -4.71017,-1.02185 -7.33015,-2.3081c1.09504,-2.902 1.33079,-6.0395 0.729,-9.03199c5.54173,1.14856 11.52783,-0.60874 15.56644,-5.13544c6.02401,-6.75219 5.43376,-17.10934 -1.3184,-23.13339c-4.0032,-3.5715 -9.27351,-4.81808 -14.15671,-3.83402c1.26034,-1.50757 2.20468,-3.1801 2.83765,-4.93452c4.19406,1.29349 8.34938,3.51207 11.87742,6.61825z" data-paper-data="{&quot;index&quot;:null}" fill="url(#color-25)" stroke="#ed6b00" stroke-width="0"/><path d="M408.22312,181.05445c-3.30034,3.94762 -4.43356,9.02632 -3.48475,13.74439c-3.002,-0.62219 -6.13447,-0.39164 -9.01705,0.66992c-3.21945,-7.28835 -1.77212,-13.03248 0.2499,-16.78224c3.68947,2.43247 8.10988,3.20265 12.25182,2.36794z" data-paper-data="{&quot;index&quot;:null}" fill="url(#color-26)" stroke="#ed6b00" stroke-width="0"/><path d="M415.65228,201.29468c-0.76291,1.36452 -1.59523,3.47966 -2.30457,5.95274c-0.16716,-2.40504 -0.86189,-4.77466 -2.07353,-6.92018c1.90668,-0.90973 3.6679,-2.20565 5.16239,-3.88077c6.02403,-6.75219 5.43377,-17.10933 -1.3184,-23.13339c-2.13971,-1.909 -4.64147,-3.15375 -7.25267,-3.7487c5.20736,-0.95267 11.58384,0.06585 17.40859,2.94621c-2.39947,6.18644 -0.87177,13.47686 4.37133,18.15454c4.06177,3.6238 9.42801,4.85409 14.37089,3.78938c1.63935,4.58962 2.13053,9.03667 0.97938,12.47323c-0.22192,-0.65234 -0.53476,-1.20147 -0.95325,-1.61879c-3.26863,-3.25925 -7.30389,-5.64612 -10.94279,-8.48596c-0.59424,-0.4637 -1.66129,-1.74815 -2.10537,-1.63269c-4.70062,1.22198 -9.0167,3.61346 -13.53827,5.38667c-0.37063,0.1453 -1.68252,0.50084 -1.80378,0.71767z" data-paper-data="{&quot;index&quot;:null}" fill="url(#color-27)" stroke="#ed6b00" stroke-width="0"/><path d="M405.13964,208.06122c-6.16925,-5.88704 -9.27858,-11.18473 -10.56331,-15.75727c2.68021,-4.25789 3.19254,-9.43561 1.62275,-14.02775c1.03192,-1.80453 2.16991,-3.10397 2.89885,-3.84165c6.48569,3.35421 14.65869,2.04535 19.74392,-3.65459c0.15651,-0.17542 0.3086,-0.35332 0.45618,-0.53348c4.55976,1.23119 9.13383,3.5583 12.96738,6.93348c1.06662,0.93906 2.09632,1.95774 3.07856,3.03734c-3.22969,-0.60984 -6.59567,-0.23866 -9.62823,1.08674c-3.1488,-0.61555 -5.17801,-4.91527 -8.3812,-4.73272c-5.49503,0.31318 -11.99293,1.13689 -15.65702,5.2439c-9.04394,10.13709 -3.95551,16.08442 1.3184,23.13339c3.05804,4.08727 8.1702,7.16091 13.78454,8.91659c5.6713,4.21737 13.35033,4.25941 19.03317,0.35424c0.25177,-0.09009 0.49983,-0.1849 0.74406,-0.28456c2.36293,-0.9642 5.32262,-2.64184 7.41127,-4.85917c-0.22404,0.34452 -0.47211,0.67245 -0.74504,0.98246c-6.27902,7.13179 -18.48253,17.06488 -38.08446,-1.99676z" data-paper-data="{&quot;index&quot;:null}" fill="url(#color-28)" stroke="#ed6b00" stroke-width="0"/></g><g stroke-width="0" stroke-linecap="butt"><path d="M354.49624,303.72877c0,0 -4.00855,-2.64758 -5.86603,-5.5481c-1.59936,-2.49694 -0.93046,-5.1281 -2.59003,-7.04067c-0.82193,-0.94736 -4.00707,-2.71451 -5.2121,-4.01833c-1.59407,-1.72501 -5.77532,-3.73159 -7.11873,-5.80375c-1.68101,-2.59222 -0.52386,-5.29038 -2.68905,-7.70681c-4.76771,-5.32091 -10.79304,-9.37547 -10.79304,-9.37547c0,0 11.40924,-9.21753 19.87219,-17.44872c8.21136,-7.98614 13.39444,-14.91002 19.0378,-20.19102c6.37826,-5.96859 24.0554,-21.28173 24.0554,-21.28173c0,0 7.80515,7.36512 10.28242,11.98538c2.34759,4.37889 4.21347,15.05074 4.21347,15.05074c0,0 12.29549,5.33118 16.92202,8.93121c3.63449,2.8279 8.5858,10.91684 8.5858,10.91684c0,0 -16.65617,14.49151 -26.17706,21.6332c-5.07254,3.80503 -13.17555,7.21164 -20.81868,12.55501c-11.24837,7.86379 -21.70443,17.34286 -21.70443,17.34286z" fill="#d1b0b0" stroke="#292e32"/><path d="M365.57134,225.52261l10.06419,-8.58732l13.28363,14.14609l-11.43402,9.35181z" fill="#f200ff" stroke="none"/><path d="M382.39716,236.4157c-0.01258,-3.70697 -1.27676,-7.43059 -3.851,-10.48816c-0.62185,-0.73857 -1.29501,-1.40841 -2.00984,-2.00876c1.79739,0.21146 3.62788,0.12671 5.41184,-0.26104l6.97106,7.42367z" fill="#eeff00" stroke="none"/><path d="M367.51325,227.95301c1.63649,-0.63616 3.19786,-1.54827 4.61594,-2.74219c2.25908,-1.90201 3.87533,-4.28415 4.82521,-6.87107l8.71241,9.2781c-5.36496,-1.15687 -11.17365,0.27944 -15.22306,4.0028z" fill="#00ff5f" stroke="none"/><path d="M367.4275,227.84559c0.54695,-0.87068 1.00549,-1.78404 1.37448,-2.72654c2.11507,1.32148 4.48055,2.12258 6.90225,2.38666c-1.17438,3.55071 -1.11465,7.44696 0.23866,10.99727l-8.51541,-10.65737z" fill="#004fff" stroke="none"/><path d="M375.16491,237.52938c2.00954,-0.63021 3.93012,-1.66081 5.64192,-3.10201c2.25393,-1.89768 3.868,-4.27333 4.81873,-6.8534l3.2937,3.50751l-11.43406,9.35182z" fill="#ff0000" stroke="none"/><path d="M371.5744,220.40049c-0.48027,2.54887 -0.35618,5.19979 0.39234,7.71909c-0.77067,0.92056 -1.42628,1.90998 -1.96503,2.94782l-4.43036,-5.54477l6.00307,-5.12214z" fill="#00efff" stroke="none"/><path d="M381.523,223.20499c-5.1657,-1.79742 -11.10279,-0.96195 -15.65274,2.69173l-0.29886,-0.37406l10.06419,-8.58734z" fill="#9c00ff" stroke="none"/></g><g data-paper-data="{&quot;index&quot;:null}" stroke="#000000" stroke-width="0" stroke-linecap="butt"><path d="M360.32827,297.11431c0,0 9.1991,-1.84398 18.50275,-8.08435c2.23738,-1.50063 9.86852,-4.98098 12.15311,-6.5492c3.14067,-2.15571 14.47486,-5.46741 18.96608,-11.07055c3.24072,-4.0431 -4.87147,-9.22146 3.82035,-15.27597c5.58722,-7.53296 21.46234,-0.02747 15.49138,18.74787c-2.97431,9.35251 -16.40341,17.03684 -18.96203,18.69387c-3.13182,2.02819 -6.41764,1.62748 -11.37853,4.54411c-2.22409,1.30738 -12.46198,5.30895 -18.60191,8.0946c-10.22247,4.63793 -15.93295,8.72083 -15.93295,8.72083z" fill="#b8bda6"/><path d="M351.34367,320.35517c-2.86602,1.22932 -5.53876,4.27006 -5.9219,2.99939c-1.92696,-3.63095 0.5978,-4.25868 2.24559,-7.464c0.87248,-1.69685 -4.58221,8.19705 -5.92933,1.91056c-0.84681,-3.33665 4.24027,-4.89493 6.08251,-7.4171c0.98599,-1.35026 -7.31447,7.63943 -8.58628,2.23932c-1.51278,-2.82532 2.92278,-2.80862 6.57763,-5.67841c0.39481,-0.31012 -6.11828,4.08558 -8.00217,0.49477c-1.70245,-3.24499 9.68346,-6.60069 9.71075,-6.65589c0.2469,-0.49891 -2.03233,1.44041 -2.51446,-0.24703c-1.26111,-4.41389 6.18217,-3.11069 8.80555,-2.55425c2.78085,0.59014 6.21612,-0.74766 6.21612,-0.74766c0,0 3.35922,5.26639 4.03717,8.2775c0.66049,2.93172 -0.02073,9.55672 -0.02073,9.55672c0,0 -7.13029,2.89687 -12.7005,5.28615z" data-paper-data="{&quot;index&quot;:null}" fill="#786274"/></g></g></g></svg>