<svg version="1.1" xmlns="http://www.w3.org/2000/svg" xmlns:xlink="http://www.w3.org/1999/xlink" width="75" height="46" viewBox="0,0,75,46"><defs><linearGradient x1="240" y1="158.25" x2="240" y2="201.75" gradientUnits="userSpaceOnUse" id="color-1"><stop offset="0" stop-color="#d24040"/><stop offset="1" stop-color="#470000"/></linearGradient><linearGradient x1="240" y1="158.25" x2="240" y2="201.75" gradientUnits="userSpaceOnUse" id="color-2"><stop offset="0" stop-color="#3d1b1b"/><stop offset="1" stop-color="#210d0d"/></linearGradient><radialGradient cx="235.22389" cy="173.91451" r="17.00296" gradientUnits="userSpaceOnUse" id="color-3"><stop offset="0" stop-color="#ffd07b"/><stop offset="1" stop-color="#79552b"/></radialGradient><radialGradient cx="228.50737" cy="162.84264" r="17.45301" gradientUnits="userSpaceOnUse" id="color-4"><stop offset="0" stop-color="#f4d192"/><stop offset="1" stop-color="#785e40"/></radialGradient><radialGradient cx="238.03881" cy="174.7337" r="12.13689" gradientUnits="userSpaceOnUse" id="color-5"><stop offset="0" stop-color="#121212"/><stop offset="1" stop-color="#000000"/></radialGradient><radialGradient cx="234.71073" cy="170.57359" r="12.13689" gradientUnits="userSpaceOnUse" id="color-6"><stop offset="0" stop-color="#ffdb99"/><stop offset="1" stop-color="#785e40"/></radialGradient></defs><g transform="translate(-202.5,-157)"><g data-paper-data="{&quot;isPaintingLayer&quot;:true}" fill-rule="nonzero" stroke-linecap="butt" stroke-linejoin="miter" stroke-miterlimit="10" stroke-dasharray="" stroke-dashoffset="0" style="mix-blend-mode: normal"><path d="M203.75,201.75v-43.5h72.5v43.5z" fill="url(#color-1)" stroke="url(#color-2)" stroke-width="2.5"/><path d="M222.99704,197.45302v-34.90603h34.00593v34.90603z" fill="url(#color-3)" stroke="url(#color-4)" stroke-width="1"/><path d="M247.03061,175.03886c0,2.60968 -1.35656,4.89399 -3.38501,6.14981c-0.43777,0.27103 3.15744,10.94824 3.15744,10.94824l-13.83361,-0.12131c0,0 4.46842,-10.19253 3.40135,-10.87081c-1.98964,-1.26469 -3.31508,-3.52636 -3.31508,-6.10593c0,-3.96305 3.12839,-7.17575 6.98747,-7.17575c3.85906,0 6.98746,3.21269 6.98746,7.17575z" fill="url(#color-5)" stroke="url(#color-6)" stroke-width="1"/></g></g></svg>