<svg version="1.1" xmlns="http://www.w3.org/2000/svg" xmlns:xlink="http://www.w3.org/1999/xlink" width="619.063" height="471.58011" viewBox="0,0,619.063,471.58011"><defs><radialGradient cx="240" cy="180.00003" r="250.5" gradientUnits="userSpaceOnUse" id="color-1"><stop offset="0" stop-color="#949494"/><stop offset="1" stop-color="#7d7d7d"/></radialGradient><radialGradient cx="243.51172" cy="115.5508" r="114.5" gradientUnits="userSpaceOnUse" id="color-2"><stop offset="0" stop-color="#484848"/><stop offset="1" stop-color="#3a3a3a"/></radialGradient><radialGradient cx="313.80117" cy="294.91333" r="270.53072" gradientUnits="userSpaceOnUse" id="color-3"><stop offset="0" stop-color="#4d4d4d"/><stop offset="1" stop-color="#3c3c3c"/></radialGradient><radialGradient cx="228.97824" cy="289.72909" r="66" gradientUnits="userSpaceOnUse" id="color-4"><stop offset="0" stop-color="#2a2a2a"/><stop offset="1" stop-color="#2a2a2a"/></radialGradient><radialGradient cx="222.20341" cy="294.86247" r="66" gradientUnits="userSpaceOnUse" id="color-5"><stop offset="0" stop-color="#1d1d1d"/><stop offset="1" stop-color="#1b1b1b"/></radialGradient><radialGradient cx="349.5834" cy="454.2388" r="249.95744" gradientUnits="userSpaceOnUse" id="color-6"><stop offset="0" stop-color="#222222"/><stop offset="1" stop-color="#202020"/></radialGradient><radialGradient cx="308.17227" cy="315.18154" r="65" gradientUnits="userSpaceOnUse" id="color-7"><stop offset="0" stop-color="#090909"/><stop offset="1" stop-color="#080808"/></radialGradient><radialGradient cx="465.65055" cy="218.71996" r="26.5" gradientUnits="userSpaceOnUse" id="color-8"><stop offset="0" stop-color="#525252"/><stop offset="1" stop-color="#424242"/></radialGradient><radialGradient cx="389.18019" cy="263.01041" r="84" gradientUnits="userSpaceOnUse" id="color-9"><stop offset="0" stop-color="#1d1d1d"/><stop offset="1" stop-color="#1b1b1b"/></radialGradient><radialGradient cx="423.82281" cy="229.41893" r="44.75" gradientUnits="userSpaceOnUse" id="color-10"><stop offset="0" stop-color="#3a3a3a"/><stop offset="1" stop-color="#2f2f2f"/></radialGradient><radialGradient cx="376.45226" cy="269.17481" r="48.5" gradientUnits="userSpaceOnUse" id="color-11"><stop offset="0" stop-color="#343434"/><stop offset="1" stop-color="#262626"/></radialGradient><radialGradient cx="333.55169" cy="245.02495" r="26.25" gradientUnits="userSpaceOnUse" id="color-12"><stop offset="0" stop-color="#121212"/><stop offset="1" stop-color="#161616"/></radialGradient><radialGradient cx="315.50967" cy="312.64928" r="65" gradientUnits="userSpaceOnUse" id="color-13"><stop offset="0" stop-color="#101010"/><stop offset="1" stop-color="#111111"/></radialGradient><radialGradient cx="483.58941" cy="200.60374" r="36.25" gradientUnits="userSpaceOnUse" id="color-14"><stop offset="0" stop-color="#313131"/><stop offset="1" stop-color="#1b1b1b"/></radialGradient><radialGradient cx="374.11467" cy="343.70192" r="26.25" gradientUnits="userSpaceOnUse" id="color-15"><stop offset="0" stop-color="#121212"/><stop offset="1" stop-color="#161616"/></radialGradient><radialGradient cx="157.28422" cy="173.92072" r="57.27136" gradientUnits="userSpaceOnUse" id="color-16"><stop offset="0" stop-color="#33266a"/><stop offset="1" stop-color="#949074"/></radialGradient><linearGradient x1="159.89606" y1="113.44876" x2="160.11852" y2="130.83065" gradientUnits="userSpaceOnUse" id="color-17"><stop offset="0" stop-color="#694444"/><stop offset="1" stop-color="#98a1b9"/></linearGradient><radialGradient cx="150.783" cy="55.69568" r="33.28545" gradientUnits="userSpaceOnUse" id="color-18"><stop offset="0" stop-color="#dcdcdc"/><stop offset="1" stop-color="#a0a0a0"/></radialGradient><radialGradient cx="137.31584" cy="54.74025" r="25.55275" gradientUnits="userSpaceOnUse" id="color-19"><stop offset="0" stop-color="#1c2f30"/><stop offset="1" stop-color="#142913"/></radialGradient><radialGradient cx="179.69499" cy="52.17152" r="6.72592" gradientUnits="userSpaceOnUse" id="color-20"><stop offset="0" stop-color="#786c41"/><stop offset="1" stop-color="#141a29"/></radialGradient><radialGradient cx="150.92362" cy="53.93148" r="10.58856" gradientUnits="userSpaceOnUse" id="color-21"><stop offset="0" stop-color="#7ba676"/><stop offset="1" stop-color="#291616"/></radialGradient><radialGradient cx="160.36628" cy="76.9302" r="25.00169" gradientUnits="userSpaceOnUse" id="color-22"><stop offset="0" stop-color="#d1ffc4"/><stop offset="1" stop-color="#2188ff"/></radialGradient><radialGradient cx="160.36628" cy="76.9302" r="25.00169" gradientUnits="userSpaceOnUse" id="color-23"><stop offset="0" stop-color="#ceffc4"/><stop offset="1" stop-color="#ff21cc"/></radialGradient><radialGradient cx="160.36628" cy="76.9302" r="25.00169" gradientUnits="userSpaceOnUse" id="color-24"><stop offset="0" stop-color="#ffe9c4"/><stop offset="1" stop-color="#4fff21"/></radialGradient><radialGradient cx="160.36628" cy="76.9302" r="25.00169" gradientUnits="userSpaceOnUse" id="color-25"><stop offset="0" stop-color="#ffe9c4"/><stop offset="1" stop-color="#4fff21"/></radialGradient><radialGradient cx="160.36623" cy="76.93024" r="25.00169" gradientUnits="userSpaceOnUse" id="color-26"><stop offset="0" stop-color="#ffe9c4"/><stop offset="1" stop-color="#ffa321"/></radialGradient><radialGradient cx="160.36619" cy="76.93024" r="25.00169" gradientUnits="userSpaceOnUse" id="color-27"><stop offset="0" stop-color="#c4f0ff"/><stop offset="1" stop-color="#3d21ff"/></radialGradient><linearGradient x1="-11.98828" y1="179.28453" x2="150.92969" y2="179.28453" gradientUnits="userSpaceOnUse" id="color-28"><stop offset="0" stop-color="#7d7d7d"/><stop offset="1" stop-color="#818181"/></linearGradient></defs><g transform="translate(11.98828,8.48171)"><g data-paper-data="{&quot;isPaintingLayer&quot;:true}" fill-rule="nonzero" stroke-linejoin="miter" stroke-miterlimit="10" stroke-dasharray="" stroke-dashoffset="0" style="mix-blend-mode: normal"><path d="M-10.5,368.00001v-376h501v376z" fill="url(#color-1)" stroke="none" stroke-width="0" stroke-linecap="butt"/><path d="M55.63703,350.09237c-3.89444,-35.12313 -28.86024,-260.28391 -28.86024,-260.28391c0,0 6.13498,-58.73673 90.38049,-83.32369c88.94305,-19.99889 123.11201,33.7383 123.11201,33.7383c0,0 65.07454,148.36123 76.16367,173.64299c3.0985,7.06417 1.47154,14.99796 -6.00481,17.45295c-24.82515,8.15175 -82.74364,27.48408 -119.81421,42.36863c-36.09995,14.49483 -99.11668,64.98273 -123.29164,84.94994c-6.18411,5.10773 -10.69693,0.36836 -11.68526,-8.54521z" fill="#000000" stroke="none" stroke-width="NaN" stroke-linecap="butt"/><path d="M165.01172,165.05081l-2,-164c0,0 26.59426,3.29414 40.84201,7.29545c21.80408,6.12342 42.158,33.70455 42.158,33.70455c0,0 56.32326,135.7535 68.65762,165.48248c4.54989,10.96641 3.54663,20.14819 -2.69066,17.59835c-21.79808,-8.91117 -146.96696,-60.08083 -146.96696,-60.08083z" fill="url(#color-2)" stroke="none" stroke-width="0" stroke-linecap="butt"/><path d="M605.69258,270.32998c14.79035,54.92892 -90.81001,131.12039 -235.86501,170.17842c-145.055,39.05803 -274.63528,26.19214 -289.42563,-28.73678c-14.79036,-54.92892 90.81,-131.1204 235.86501,-170.17843c145.05501,-39.05803 274.63528,-26.19213 289.42564,28.73679z" fill="url(#color-3)" stroke="none" stroke-width="NaN" stroke-linecap="butt"/><g data-paper-data="{&quot;index&quot;:null}"><path d="M221.7213,237.51417l18.63568,7.20842l33.462,93.83653l-22.25925,-11.99065z" fill="url(#color-4)" stroke="none" stroke-width="0" stroke-linecap="butt"/><path d="M252.45332,325.26406l21.46221,12.59458l-6.87139,5.83387l-22.95973,-12.08721z" fill="url(#color-5)" stroke="none" stroke-width="0" stroke-linecap="butt"/><path d="M243.98785,332.3058l-29.01224,-87.79835l7.58732,-5.8825l30.00994,86.54853z" data-paper-data="{&quot;index&quot;:null}" fill="url(#color-6)" stroke="none" stroke-width="0" stroke-linecap="butt"/><path d="M226.6818,241.0668l49.6744,5.71874l-37.99309,0.88027" fill="none" stroke="#747474" stroke-width="1.5" stroke-linecap="round"/><path d="M255.92492,322.04882l55.24453,10.40635l-43.1397,-2.28397" fill="none" stroke="#747474" stroke-width="1.5" stroke-linecap="round"/><path d="M261.55145,288.70273c-6.53341,-17.0944 -5.97747,-42.56344 -2.56125,-48.30337c2.17588,-3.65591 19.20595,5.0226 28.79083,9.47131c7.94194,3.68615 20.28707,15.94247 20.28707,15.94247l45.54771,97.12701c0,0 -20.99459,-3.76071 -30.44393,-7.83954c-9.80806,-4.23367 -25.97957,-9.11744 -30.68559,-14.8801c-4.67276,-5.72192 -24.85768,-35.61715 -30.93484,-51.51779z" fill="url(#color-7)" stroke="none" stroke-width="0" stroke-linecap="butt"/><path d="M447.24607,198.5637l11.4751,-7.12896l27.95706,45.07108l-12.43968,8.3818z" fill="url(#color-8)" stroke="none" stroke-width="0" stroke-linecap="butt"/><path d="M314.43797,263.93278l123.01751,-82.28573l54.9052,82.38124l-141.83002,91.94697z" fill="url(#color-9)" stroke="none" stroke-width="0" stroke-linecap="butt"/><path d="M386.04112,216.89275l43.80938,-30.72438l47.9381,75.62035l-47.68542,32.13022z" fill="url(#color-10)" stroke="none" stroke-width="0" stroke-linecap="butt"/><path d="M321.12863,270.87994l69.10339,-47.76737l35.25675,63.06316l-75.46736,50.84956z" fill="url(#color-11)" stroke="none" stroke-width="0" stroke-linecap="butt"/><path d="M299.11864,250.74142c0,0 17.84291,-8.94866 28.21866,-11.42355c8.73093,-2.08255 31.61593,-3.57052 31.61593,-3.57052l-43.12421,29.0569z" fill="url(#color-12)" stroke="none" stroke-width="0" stroke-linecap="butt"/><path d="M268.88886,286.17044c-6.53341,-17.0944 -10.41229,-41.98691 -6.99608,-47.72684c2.17588,-3.65591 23.64077,4.44607 33.22565,8.89478c7.94194,3.68615 20.28707,15.94247 20.28707,15.94247l42.23047,99.36215c0,0 -17.67735,-5.99585 -27.12668,-10.07468c-9.80806,-4.23367 -25.97957,-9.11744 -30.68559,-14.8801c-4.67276,-5.72192 -24.85768,-35.61715 -30.93484,-51.51779z" fill="url(#color-13)" stroke="none" stroke-width="0" stroke-linecap="butt"/><path d="M449.82493,187.1795l31.23445,-21.64854l44.65857,57.33116l-34.41643,23.18963z" fill="url(#color-14)" stroke="none" stroke-width="0" stroke-linecap="butt"/><path d="M335.68806,355.12375c0,0 20.54692,-17.4247 32.57751,-22.08748c10.09842,-3.91392 30.79164,-7.34635 30.79164,-7.34635l-43.07987,38.07066z" fill="url(#color-15)" stroke="none" stroke-width="0" stroke-linecap="butt"/></g><g><path d="M122.90207,233.42031l-7.04736,-114.32567l75.81178,-4.67317l7.04736,114.32567z" fill="url(#color-16)" stroke="#ed6b00" stroke-width="0" stroke-linecap="butt"/><path d="M150.40619,130.95507l-0.22247,-17.38194l19.42464,-0.24871l0.22247,17.38194z" fill="url(#color-17)" stroke="#000000" stroke-width="0" stroke-linecap="butt"/><g><path d="M208.87339,281.21561c0,0 -30.03658,-58.16526 -36.60785,-67.47058c-2.14875,-3.04263 -9.44808,-0.15812 -9.44808,-0.15812c0,0 -11.29081,-6.8768 -2.82815,-10.50372c7.15236,-3.06533 25.08804,-4.72699 25.08804,-4.72699l42.46033,74.86015z" data-paper-data="{&quot;index&quot;:null}" fill="#4a433c" stroke="#000000" stroke-width="0" stroke-linecap="butt"/><path d="M247.96936,283.79729c-1.38246,0.59268 -6.15304,2.67468 -11.03809,4.54602c-2.97037,1.13767 -5.05346,0.46033 -7.37318,1.06012c-2.92014,0.75483 -6.63291,3.45132 -8.8048,3.85353c-4.00236,0.74113 -6.31548,0.55932 -6.31548,0.55932c0,0 -1.65251,-2.1226 -2.25097,-3.41294c-0.80639,-1.73866 -2.15253,-6.08092 -2.15253,-6.08092c0,0 13.72014,-6.21039 19.31918,-8.05688c3.31308,-1.09256 10.53638,-2.7302 10.53638,-2.7302c0,0 4.01982,-0.02344 4.94492,0.75962c1.13342,0.95868 4.02376,3.76508 4.02376,3.76508c0,0 1.03966,4.91021 -0.88875,5.73671z" data-paper-data="{&quot;index&quot;:null}" fill="#140d0d" stroke="#000000" stroke-width="0" stroke-linecap="butt"/><path d="M244.76422,278.06341c-0.5789,0.24809 3.23873,3.03323 -4.77332,5.72573c-7.56632,2.54286 -7.66266,0.00394 -10.3192,0.91997c-5.55439,1.91531 -5.44004,3.97411 -7.92445,4.61663c-0.86532,0.22375 -1.31005,0.24539 -5.13166,-0.47936c-2.62833,-0.49829 -3.30277,-3.41893 -5.32932,-4.28429c-2.96028,-1.26392 -3.77039,-3.59007 -3.77039,-3.59007l-3.22434,-7.03147c0,0 3.33986,4.66061 6.12059,5.74448c2.48787,0.97001 5.38461,-2.35962 6.51254,-2.84343c1.97505,-0.84708 -4.87315,-6.93312 -2.96628,-7.6999c1.02523,-0.41248 8.44812,-4.26695 8.44812,-4.26695c0,0 3.86514,8.22601 4.42846,8.04008c3.31308,-1.09256 11.38475,-3.09359 11.38475,-3.09359c0,0 4.01982,-0.02344 4.94483,0.75941c1.13342,0.95868 4.42804,6.26981 4.42804,6.26981c0,0 -0.89955,0.38579 -2.82795,1.21212z" data-paper-data="{&quot;index&quot;:null}" fill="#1f261f" stroke="#000000" stroke-width="0" stroke-linecap="butt"/><path d="M224.40514,278.6764l5.13075,-5.21165" fill="none" stroke="#ffb5b5" stroke-width="0.5" stroke-linecap="round"/><path d="M233.77824,271.64698l-4.4845,5.93877" fill="none" stroke="#bffdff" stroke-width="0.5" stroke-linecap="round"/><path d="M236.56551,271.12193l-1.93907,4.84764" fill="none" stroke="#eaffc1" stroke-width="0.5" stroke-linecap="round"/><path d="M217.69924,270.83898l4.8479,-2.74716" fill="none" stroke="#8d967b" stroke-width="0.5" stroke-linecap="round"/><path d="M223.83958,269.54626l-4.16107,2.78769" fill="none" stroke="#767796" stroke-width="0.5" stroke-linecap="round"/></g><g data-paper-data="{&quot;index&quot;:null}" stroke="#000000" stroke-width="0" stroke-linecap="butt"><path d="M91.01867,187.40973c0,0 2.61833,-5.43566 5.02744,-14.92671c1.44694,-5.70061 3.311,-15.14829 4.08958,-17.23999c1.73704,-4.66562 0.89822,-7.54677 2.15422,-10.50894c1.02616,-2.42003 5.54838,-15.03097 13.07488,-18.50998c15.10962,-6.9842 23.91237,6.43642 18.33296,12.07197c-3.84882,8.25918 -9.49247,1.52166 -12.45045,4.76118c-4.09932,4.48954 -5.20916,14.84865 -6.57259,17.83012c-0.99185,2.16879 -2.80573,9.25556 -3.74711,11.37638c-3.91476,8.81901 -4.09583,17.15105 -4.09583,17.15105z" fill="#b8bda6"/><path d="M88.36955,199.47476c1.19507,-5.15929 2.58708,-11.74909 2.58708,-11.74909c0,0 5.54719,-1.19872 8.14749,-0.87521c2.67063,0.33191 7.67034,2.84196 7.67034,2.84196c0,0 -0.62128,3.16969 0.3027,5.58554c0.87144,2.27909 3.10888,8.77019 -0.84636,8.04634c-1.51212,-0.27675 -0.20291,-2.47405 -0.59107,-2.21013c-0.04295,0.02917 -1.1825,10.43814 -4.20758,9.21768c-3.34748,-1.35051 -0.58382,-7.52679 -0.78858,-7.14846c-1.89468,3.50197 -1.20943,7.43824 -3.84791,6.34855c-4.79797,-0.64492 1.61338,-8.81982 0.61094,-7.82344c-1.8724,1.86162 -2.43183,6.51749 -5.40566,6.06488c-5.56536,-0.63229 2.04769,-6.36186 0.73247,-5.43518c-2.48444,1.75026 -2.63788,4.04792 -6.02611,2.66277c-1.14166,-0.22622 1.04736,-2.87164 1.66225,-5.52622z" data-paper-data="{&quot;index&quot;:null}" fill="#786274"/></g><g data-paper-data="{&quot;index&quot;:null}" stroke="#000000" stroke-width="0" stroke-linecap="butt"><path d="M213.48152,208.14399c0,0 0.31961,-7.32269 -2.60946,-15.28724c-0.70438,-1.91535 -2.49841,-8.31461 -3.24427,-10.27492c-1.76515,-4.63943 -4.06727,-9.0347 -5.06901,-11.90557c-2.15455,-6.17459 -6.80359,-14.18314 -6.80359,-14.18314c0,0 -19.23892,-30.39824 -5.30757,-34.75363c9.39816,-6.67592 13.03391,7.92889 18.72889,21.16698c4.77616,11.10231 8.5146,22.33136 8.9876,23.68704c0.93215,2.67176 1.90015,7.75115 3.1566,11.94552c0.56311,1.88045 1.65647,10.2789 2.59889,15.36492c1.56919,8.46782 3.55485,13.38857 3.55485,13.38857z" fill="#b8bda6"/><path d="M229.77592,218.34118c-0.61863,0.04639 1.43918,8.83847 -1.16164,9.19417c-1.27926,0.17498 -1.05897,-5.76966 -3.13877,-7.44842c-1.10102,-0.88882 2.72799,9.97569 -0.80528,9.40057c-1.21294,-0.19741 -1.72348,-8.48034 -3.25983,-10.22166c-0.82247,-0.932 2.23374,12.36043 -0.11681,12.08581c-1.39536,-0.16317 -1.34704,-7.79514 -2.80872,-10.97734c-0.71231,-1.55026 0.43931,9.33438 -1.30227,8.83924c-1.06593,-0.30309 -2.83444,-10.84156 -2.96354,-10.94219c-0.72534,-0.56585 -1.78796,6.17952 -2.82031,4.77123c-1.90266,-2.5952 0.26921,-6.43813 1.89406,-9.97573c0.94967,-2.06713 0.58644,-4.88454 0.58644,-4.88454c0,0 4.53199,-1.91572 6.89484,-2.0536c2.30065,-0.13459 7.10008,1.23605 7.10008,1.23605c0,0 3.21191,10.87815 1.90177,10.97612z" data-paper-data="{&quot;index&quot;:null}" fill="#786274"/></g><g><path d="M151.1013,296.41585l-11.58508,-85.28001c0,0 15.27471,-9.54664 22.82173,-11.44204c8.92995,-2.24295 4.11535,10.06954 4.11535,10.06954c0,0 -7.55464,2.12835 -7.42014,5.85102c0.41142,11.38398 11.76287,75.8552 11.76287,75.8552z" fill="#413a4a" stroke="#000000" stroke-width="0" stroke-linecap="butt"/><path d="M192.16547,299.33116c0,0 0.25,5.01303 -1.78493,5.52402c-1.45869,0.36648 -6.49832,1.66781 -11.61846,2.74301c-3.11269,0.65371 -5.06284,-0.3445 -7.44794,-0.11938c-3.00299,0.28376 -7.09513,2.3587 -9.30346,2.41235c-4.06905,0.09898 -6.32423,-0.44646 -6.32423,-0.44646c0,0 -1.29604,-2.35699 -1.68315,-3.72587c-0.52154,-1.84448 -1.16361,-6.34463 -1.16361,-6.34463c0,0 14.52945,-3.96215 20.35031,-4.90004c3.44434,-0.55489 10.83532,-1.02956 10.83532,-1.02956c0,0 3.97271,0.61263 4.76252,1.53216c0.96728,1.126 3.37767,4.35436 3.37767,4.35436z" data-paper-data="{&quot;index&quot;:null}" fill="#12140d" stroke="#000000" stroke-width="0" stroke-linecap="butt"/><path d="M191.10653,297.93697c0,0 -0.94914,0.23849 -2.98407,0.74967c-0.61098,0.15364 2.71849,3.50741 -5.61917,4.89887c-7.87351,1.314 -7.5669,-1.20821 -10.33473,-0.72367c-5.78714,1.01286 -6.00027,3.06358 -8.5547,3.30524c-0.88973,0.08416 -1.33244,0.0347 -4.9915,-1.28505c-2.51625,-0.90768 -2.72053,-3.8983 -4.58479,-5.07314c-2.723,-1.71644 -3.15529,-4.14116 -3.15529,-4.14116l-2.07175,-7.4528c0,0 2.5607,5.13016 5.13493,6.64048c2.30322,1.35126 5.68988,-1.47814 6.88007,-1.77755c2.08408,-0.52398 -3.71503,-7.61645 -1.71115,-8.07213c1.07761,-0.24503 9.01674,-2.87704 9.01674,-2.87704c0,0 2.51538,8.73366 3.10125,8.63933c3.44424,-0.55506 11.73046,-1.25423 11.73046,-1.25423c0,0 3.97271,0.61263 4.76252,1.53216c0.96728,1.126 3.38048,6.89141 3.38048,6.89141z" data-paper-data="{&quot;index&quot;:null}" fill="#1e1e26" stroke="#000000" stroke-width="0" stroke-linecap="butt"/><path d="M167.92295,296.07201l5.8903,-4.33448" fill="none" stroke="#c1ffce" stroke-width="0.5" stroke-linecap="round"/><path d="M172.92219,295.7682l5.36712,-5.15476" fill="none" stroke="#eaffc1" stroke-width="0.5" stroke-linecap="round"/><path d="M178.44344,295.01578l2.68143,-4.48024" fill="none" stroke="#ffb5b5" stroke-width="0.5" stroke-linecap="round"/><path d="M167.76201,285.32679l-5.22118,1.94591" fill="none" stroke="#7d967f" stroke-width="0.5" stroke-linecap="round"/><path d="M168.80836,286.9673l-4.54946,2.09431" fill="none" stroke="#966262" stroke-width="0.5" stroke-linecap="round"/></g><path d="M137.74148,209.97843c0,0 0.0007,-14.11317 -1.72751,-27.72854c-1.17427,-9.25151 -4.09237,-17.54299 -4.67998,-23.85674c-1.10301,-11.85052 -1.55264,-33.92379 -1.55264,-33.92379c0,0 9.3185,-1.76417 13.85466,-0.9706c5.77452,1.01 17.98219,6.53931 17.98219,6.53931c0,0 9.15995,-5.78489 13.98096,-6.98645c5.08695,-1.26759 15.78581,-0.43122 15.78581,-0.43122c0,0 0.52656,23.38155 0.38813,32.1158c-0.12258,7.72796 -1.7715,16.21828 -2.17364,27.66569c-0.41473,11.7984 0.41853,26.44214 0.41853,26.44214c0,0 -7.05071,-1.74113 -14.19504,-1.69996c-3.24451,0.01869 -4.46644,2.68813 -7.51601,3.18363c-2.43752,0.39634 -6.7324,-1.3539 -9.08104,-1.37644c-1.77531,-0.01714 -5.22376,-1.19018 -6.47769,-1.1629c-2.53164,0.05491 -4.03181,2.3176 -6.95596,2.80961c-3.39652,0.57182 -8.0503,-0.62001 -8.0503,-0.62001z" fill="#d1b0b0" stroke="#292e32" stroke-width="0" stroke-linecap="butt"/><g stroke="none" stroke-width="0" stroke-linecap="butt"><path d="M169.19833,150.4354l-0.7504,-14.75229l19.40233,0.34124l0.39683,13.22394z" fill="#f200ff"/><path d="M168.4479,135.68312l10.18207,0.17907c0.91082,1.58218 2.07742,2.9953 3.44123,4.18498c-0.9249,-0.12644 -1.87329,-0.1753 -2.83814,-0.14c-3.99426,0.14622 -7.60214,1.71041 -10.3571,4.19072z" fill="#eeff00"/><path d="M180.45668,149.7338c0.03904,-5.50085 -2.79797,-10.76919 -7.25826,-13.96715l12.72554,0.2238c-1.27871,2.44116 -1.95817,5.23854 -1.85015,8.1897c0.0678,1.85252 0.44064,3.62192 1.0684,5.26165z" fill="#00ff5f"/><path d="M185.27937,149.43324l-13.61515,0.84849c3.53933,-1.38178 6.46621,-3.95429 8.30821,-7.20908c1.82211,1.61688 4.00433,2.83145 6.40392,3.511c-0.45048,0.90639 -0.81925,1.85955 -1.09699,2.84954z" fill="#004fff"/><path d="M169.19829,150.43542l-0.75043,-14.75233l4.81081,0.08464c-1.27309,2.43721 -1.94918,5.22857 -1.84142,8.17304c0.08185,2.23621 0.60816,4.35134 1.49086,6.26347z" fill="#ff0000"/><path d="M188.01036,141.36051l0.2367,7.88779l-7.08362,0.44145c0.4071,-1.09619 0.69985,-2.24645 0.86431,-3.4357c2.36928,-1.13741 4.41669,-2.82584 5.98261,-4.89353z" fill="#00efff"/><path d="M187.85023,136.02433l0.39681,13.22395l-0.47788,0.02978c-0.34878,-5.82492 -3.71717,-10.78485 -8.51823,-13.40497z" fill="#9c00ff"/></g><g data-paper-data="{&quot;index&quot;:null}" stroke-linecap="butt"><path d="M190.41383,87.08199c-2.55576,19.44864 -19.06155,33.3183 -36.86725,30.97862c-17.80584,-2.33959 -30.16861,-20.00246 -27.61282,-39.45145c2.55577,-19.44865 19.06155,-33.3183 36.86739,-30.97862c17.80584,2.33959 30.16861,20.00246 27.61282,39.45145z" fill="url(#color-18)" stroke="none" stroke-width="0"/><path d="M144.08109,55.65349c-0.43243,-0.01725 -1.54661,-0.04407 -2.76189,0.00515c-1.38146,0.34938 -2.98364,0.677 -4.23294,1.1014c-1.02225,2.15022 1.38266,4.80586 -2.46397,6.01068c-6.56083,2.05417 -3.64436,-5.69653 -1.25445,-7.93652c3.56246,-2.3637 8.31809,-2.07856 12.47591,-2.32465c5.72711,-0.33878 11.38776,-1.27607 16.95488,-0.88757c0.23617,-0.1897 0.53913,-0.29773 0.86531,-0.28445l1.49206,0.06089c0.76883,-0.09783 1.60297,-0.19551 2.47652,-0.27627c2.29519,-0.39933 4.99538,-0.40905 7.49766,-0.31656c1.24341,-0.07876 2.394,-0.04117 3.32202,0.16672c0.69561,0.03954 1.34283,0.07596 1.92193,0.09922l1.5728,0.06394c0.71632,0.02924 1.27329,0.63323 1.24433,1.34988c-0.02608,0.63764 -0.5075,1.149 -1.11797,1.23345l-0.86174,0.13652c0.32436,0.35446 0.60941,0.74857 0.84867,1.18551l0.62837,-0.22254l0.55529,1.57067c0.06028,0.15891 0.09046,0.33247 0.08321,0.51322c-0.02922,0.71632 -0.63323,1.27329 -1.34988,1.24433c-0.21773,-0.00874 -0.42143,-0.07077 -0.59758,-0.17305l-1.20973,-0.6677l0.01974,-0.03555l-0.11909,-0.02521c-0.83682,-0.6826 -1.70787,-1.22901 -2.59578,-1.63788c-1.40089,-0.23534 -2.86109,-0.58395 -4.3541,-0.90535c-2.61023,0.10366 -5.12922,1.37957 -7.13525,3.85063c0,0 -0.82046,1.00591 -1.82648,0.1856c-1.00591,-0.82046 -0.1856,-1.82648 -0.1856,-1.82648c0.17533,-0.21404 0.35448,-0.42141 0.53729,-0.62125l-0.74427,0.13386c-0.09971,0.01995 -0.20394,0.02872 -0.31018,0.02453c-0.71632,-0.02924 -1.27329,-0.63323 -1.24433,-1.34988c0.01472,-0.36264 0.17665,-0.68429 0.42616,-0.90996c-0.61689,-0.07987 -1.20352,-0.12263 -1.71484,-0.06554c-3.57158,0.39899 -8.92339,-0.01588 -14.03785,0.09498c-0.05145,0.6104 -0.52237,1.0941 -1.11455,1.17586l-1.56195,0.24701l-0.00797,-0.05053l-0.01948,0.00242z" fill="url(#color-19)" stroke="none" stroke-width="0.5"/><path d="M183.28621,51.25685c6.90885,0.18067 6.83652,0.27513 6.7721,4.9503c-0.06431,4.67501 -3.07839,8.19884 -6.73171,7.87052c-3.65334,-0.32856 -6.56266,-4.38529 -6.49821,-9.06042c0.06428,-4.67502 -0.02072,-3.92979 6.458,-3.76054z" data-paper-data="{&quot;index&quot;:null}" fill="url(#color-20)" stroke="#000000" stroke-width="0"/><path d="M165.74622,55.81292c0.24127,5.12807 -4.25454,9.50583 -10.0417,9.77765c-5.78702,0.27229 -10.67401,-3.66419 -10.91504,-8.79205c-0.24127,-5.12807 -0.35886,-5.23362 10.598,-5.26481c10.27458,-0.02945 10.11715,-0.84887 10.35856,4.27919z" fill="url(#color-21)" stroke="#000000" stroke-width="0"/><path d="M170.96375,106.87693c-27.1585,3.16175 -30.77757,-12.15145 -31.40775,-21.63256c-0.63,-9.48101 14.95682,-18.46796 28.72895,-19.38329c13.77213,-0.91532 27.16581,7.53258 27.79586,17.01356c0,0 4.94699,20.78919 -25.1171,24.00208z" data-paper-data="{&quot;index&quot;:null}" fill="url(#color-22)" stroke="#ed6b00" stroke-width="0"/><path d="M170.96376,106.87695c-21.642,2.51955 -28.33614,-6.6928 -30.48156,-15.33693c3.232,4.3507 8.55168,7.00584 14.35737,6.58159c9.02474,-0.65946 15.80614,-8.51003 15.14672,-17.53479c-0.43943,-6.01368 -4.0719,-11.03124 -9.11716,-13.5149c2.46177,-0.63038 4.96748,-1.04821 7.41581,-1.2109c4.19787,-0.27899 8.3606,0.31192 12.13739,1.53689c2.41477,5.35457 7.60166,9.11476 13.61087,9.59645c1.18895,1.85756 1.9123,3.84506 2.04756,5.88024c0,0 0.20031,0.84176 0.27534,2.21276c-1.50872,-0.33064 -3.08996,-0.45182 -4.70899,-0.33351c-9.02474,0.65946 -15.80614,8.51003 -15.14672,17.53479c0.09067,1.24108 0.31735,2.4397 0.6644,3.5824c-1.88067,0.42368 -3.94204,0.76432 -6.20111,1.00571z" data-paper-data="{&quot;index&quot;:null}" fill="url(#color-23)" stroke="#ed6b00" stroke-width="0"/><path d="M168.28494,65.86109c4.69025,-0.31174 9.33667,0.46251 13.4499,1.99374c-0.5677,1.77663 -0.83862,3.67811 -0.7585,5.64149c-3.27118,-3.75678 -8.209,-5.98127 -13.55953,-5.59029c-9.02473,0.65946 -15.80613,8.51005 -15.14672,17.53479c0.44213,6.05028 4.11627,11.09232 9.20948,13.55995c-2.30118,2.00539 -4.02686,4.63628 -4.92778,7.60428c-2.86099,-0.57744 -5.23946,-1.48943 -7.21776,-2.63861c1.95944,-2.92879 2.99276,-6.50882 2.71604,-10.29552c-0.4899,-6.70478 -4.94902,-12.17138 -10.90987,-14.26841c4.25718,-7.0601 16.26694,-12.81839 27.14466,-13.54136z" data-paper-data="{&quot;index&quot;:null}" fill="url(#color-24)" stroke="#ed6b00" stroke-width="0"/><path d="M184.98215,83.58816c2.77462,3.18654 6.74828,5.27058 11.1558,5.59132c-0.68288,4.20512 -3.03702,9.64092 -10.03198,13.45607c-1.63799,-2.5987 -3.98063,-4.69091 -6.73968,-6.02765c3.62817,-3.16178 5.8257,-7.87858 5.61582,-13.01977z" data-paper-data="{&quot;index&quot;:null}" fill="url(#color-25)" stroke="#ed6b00" stroke-width="0"/><path d="M166.75489,95.10443c0.03606,-0.24581 -0.78719,-1.32735 -0.99242,-1.66846c-2.50345,-4.16192 -4.46714,-8.6887 -7.44855,-12.52278c-0.28163,-0.36221 -1.91048,0.00552 -2.66422,0.01089c-4.61577,0.03303 -9.26961,-0.53464 -13.8475,0.05657c-0.58614,0.07571 -1.16888,0.32034 -1.74246,0.70218c1.18231,-3.42596 4.2825,-6.65186 8.37979,-9.29085c3.26933,3.8571 8.27324,6.15294 13.7021,5.75623c7.00775,-0.51204 12.66288,-5.36011 14.53186,-11.72693c6.37324,1.2673 12.04892,4.34685 15.5962,8.27634c-2.43262,-1.12011 -5.17461,-1.65836 -8.0345,-1.44938c-9.02474,0.65946 -15.80614,8.51003 -15.14672,17.53479c0.16361,2.23891 0.7698,4.33983 1.72674,6.22326c-2.26834,0.96224 -4.26355,2.4172 -5.86212,4.22184c0.94521,-2.39286 1.57475,-4.57697 1.80175,-6.1237z" data-paper-data="{&quot;index&quot;:null}" fill="url(#color-26)" stroke="#ed6b00" stroke-width="0"/><path d="M170.96375,106.87699c-27.15852,3.16177 -30.77757,-12.15145 -31.40775,-21.63256c-0.02738,-0.41212 -0.02413,-0.8233 0.00827,-1.23298c0.30409,3.03093 1.62769,6.16499 2.91308,8.36974c0.13285,0.22787 0.27169,0.45426 0.41637,0.67913c2.12445,6.55988 8.23744,11.20751 15.30404,11.32138c5.52085,2.03061 11.447,2.71032 16.36272,1.33434c8.47764,-2.37306 16.13675,-3.98586 15.14672,-17.53479c-0.40108,-5.48929 -5.05002,-10.10324 -9.21517,-13.70115c-2.42799,-2.09732 -6.6576,0.07423 -9.52896,-1.35724c-1.59606,-2.89927 -4.0381,-5.24532 -6.9701,-6.73065c1.43675,-0.2571 2.87399,-0.43693 4.29195,-0.53117c5.0964,-0.33873 10.14093,0.60475 14.50608,2.40828c0.00717,0.2328 0.0193,0.46651 0.03644,0.70099c0.55665,7.61833 6.23776,13.63799 13.42378,14.93254c0.12818,1.0291 0.23816,2.75291 -0.04379,4.81244c-4.04366,2.68342 -6.79375,7.10022 -7.26459,12.10937c-3.80576,2.84163 -9.49995,5.14587 -17.9791,6.05205z" data-paper-data="{&quot;index&quot;:null}" fill="url(#color-27)" stroke="#ed6b00" stroke-width="0"/></g></g><path d="M-11.98828,369.05082l1,-377l160.91797,-0.53253l0.08203,9.53253c0,0 -39.46962,6.29142 -75.5582,25.97667c-26.80308,14.62028 -51.53474,44.21584 -49.36246,61.1415c8.78971,68.48644 35.92067,279.88184 35.92067,279.88184z" fill="url(#color-28)" stroke="none" stroke-width="0" stroke-linecap="butt"/></g></g></svg>