<svg version="1.1" xmlns="http://www.w3.org/2000/svg" xmlns:xlink="http://www.w3.org/1999/xlink" width="36.80001" height="36.80002" viewBox="0,0,36.80001,36.80002"><defs><radialGradient cx="240.00001" cy="180" r="18.4" gradientUnits="userSpaceOnUse" id="color-1"><stop offset="0" stop-color="#000000"/><stop offset="1" stop-color="#000000" stop-opacity="0"/></radialGradient><linearGradient x1="240.00001" y1="161.59999" x2="240.00001" y2="198.4" gradientUnits="userSpaceOnUse" id="color-2"><stop offset="0" stop-color="#7f8782"/><stop offset="1" stop-color="#404543"/></linearGradient><radialGradient cx="240" cy="180.00001" r="14.41334" gradientUnits="userSpaceOnUse" id="color-3"><stop offset="0" stop-color="#344848"/><stop offset="1" stop-color="#0f241d"/></radialGradient><linearGradient x1="240" y1="165.58665" x2="240" y2="194.41334" gradientUnits="userSpaceOnUse" id="color-4"><stop offset="0" stop-color="#6fa08f"/><stop offset="1" stop-color="#456b5a"/></linearGradient><linearGradient x1="239.99892" y1="179.78284" x2="240.0011" y2="180.21716" gradientUnits="userSpaceOnUse" id="color-5"><stop offset="0" stop-color="#b0ffe3"/><stop offset="1" stop-color="#8fffc7"/></linearGradient></defs><g transform="translate(-221.6,-161.59999)"><g data-paper-data="{&quot;isPaintingLayer&quot;:true}" fill-rule="nonzero" stroke-linejoin="miter" stroke-miterlimit="10" stroke-dasharray="" stroke-dashoffset="0" style="mix-blend-mode: normal"><path d="M258.40001,180c0,10.16204 -8.23796,18.40001 -18.4,18.40001c-10.16204,0 -18.40001,-8.23796 -18.40001,-18.40001c0,-10.16204 8.23796,-18.40001 18.40001,-18.40001c10.16204,0 18.4,8.23796 18.4,18.40001z" fill="url(#color-1)" stroke="url(#color-2)" stroke-width="0" stroke-linecap="butt"/><path d="M254.41332,180.00001c0,7.96027 -6.45307,14.41333 -14.41334,14.41333c-7.96027,0 -14.41333,-6.45307 -14.41333,-14.41333c0,-7.96027 6.45307,-14.41334 14.41333,-14.41334c7.96027,0 14.41334,6.45307 14.41334,14.41334z" fill="url(#color-3)" stroke="url(#color-4)" stroke-width="3" stroke-linecap="butt"/><path d="M231.13936,179.92866l17.7213,0.14268" fill="none" stroke="url(#color-5)" stroke-width="4.5" stroke-linecap="round"/></g></g></svg>