<svg version="1.1" xmlns="http://www.w3.org/2000/svg" xmlns:xlink="http://www.w3.org/1999/xlink" width="44.83202" height="103.93353" viewBox="0,0,44.83202,103.93353"><defs><radialGradient cx="226.79379" cy="167.56812" r="20.58604" gradientUnits="userSpaceOnUse" id="color-1"><stop offset="0" stop-color="#ff8700"/><stop offset="1" stop-color="#a77426"/></radialGradient><radialGradient cx="241.62593" cy="166.93512" r="20.58605" gradientUnits="userSpaceOnUse" id="color-2"><stop offset="0" stop-color="#ff8700"/><stop offset="1" stop-color="#a77426"/></radialGradient><linearGradient x1="239.74788" y1="156.06833" x2="239.74788" y2="162.91939" gradientUnits="userSpaceOnUse" id="color-3"><stop offset="0" stop-color="#2b2b2b"/><stop offset="1" stop-color="#3f3f3f"/></linearGradient><radialGradient cx="235.80052" cy="134.5081" r="13.11833" gradientUnits="userSpaceOnUse" id="color-4"><stop offset="0" stop-color="#7bccb1"/><stop offset="1" stop-color="#618c94"/></radialGradient><radialGradient cx="235.80052" cy="134.5081" r="13.11833" gradientUnits="userSpaceOnUse" id="color-5"><stop offset="0" stop-color="#727272"/><stop offset="1" stop-color="#333333"/></radialGradient><radialGradient cx="238.90385" cy="140.20256" r="11.56644" gradientUnits="userSpaceOnUse" id="color-6"><stop offset="0" stop-color="#ffffff" stop-opacity="0.74902"/><stop offset="1" stop-color="#abffe7" stop-opacity="0.56471"/></radialGradient><radialGradient cx="252.48005" cy="167.35378" r="19.42996" gradientUnits="userSpaceOnUse" id="color-7"><stop offset="0" stop-color="#6f8281"/><stop offset="1" stop-color="#576766"/></radialGradient><radialGradient cx="235.77188" cy="168.37063" r="17.31619" gradientUnits="userSpaceOnUse" id="color-8"><stop offset="0" stop-color="#7a908e"/><stop offset="1" stop-color="#576766"/></radialGradient><radialGradient cx="223.04891" cy="167.88492" r="19.92922" gradientUnits="userSpaceOnUse" id="color-9"><stop offset="0" stop-color="#6f8281"/><stop offset="1" stop-color="#576766"/></radialGradient></defs><g transform="translate(-218.58589,-130.87878)"><g data-paper-data="{&quot;isPaintingLayer&quot;:true}" fill-rule="nonzero" stroke-linejoin="miter" stroke-miterlimit="10" stroke-dasharray="" stroke-dashoffset="0" style="mix-blend-mode: normal"><g stroke="none" stroke-width="0" stroke-linecap="butt"><path d="M237.44528,176.57589c-0.32393,21.49106 -0.0929,21.92253 -7.52773,21.814c-7.84376,-0.1145 -7.60283,-0.76234 -7.52773,-21.814c0.07862,-22.03858 0.60596,-21.65002 7.52773,-21.814c7.33196,-0.1737 7.85978,-0.2156 7.52773,21.814z" fill="url(#color-1)"/><path d="M252.27741,175.94289c-0.32393,21.49106 -0.0929,21.92253 -7.52773,21.814c-7.84376,-0.1145 -7.60283,-0.76235 -7.52773,-21.814c0.07862,-22.03858 0.60596,-21.65001 7.52773,-21.81399c7.33196,-0.1737 7.85977,-0.21561 7.52773,21.81399z" fill="url(#color-2)"/></g><g><path d="M239.36623,192.10305c3.61963,-0.25676 10.67756,1.43074 10.67756,1.43074l5.40913,33.41109l-7.62019,0.54054c0,0 -3.13066,-25.38027 -4.12471,-29.35182c-0.28173,-1.12559 -3.43671,-1.84001 -3.43671,-1.84001c0,0 -3.96421,-3.97353 -0.90508,-4.19053z" fill="#343331" stroke="#000000" stroke-width="0" stroke-linecap="butt"/><path d="M262.34565,233.56354c-0.59127,0.04194 -2.63651,0.20071 -4.6973,0.26614c-1.25291,0.03979 -1.9411,-0.48165 -2.88224,-0.55808c-1.18485,-0.09622 -2.91557,0.42784 -3.77624,0.2969c-1.5859,-0.24127 -2.42372,-0.60785 -2.42372,-0.60785c0,0 -0.34099,-1.00379 -0.39709,-1.56162c-0.07558,-0.75154 -0.01559,-2.54228 -0.01559,-2.54228c0,0 5.91092,-0.53916 8.23418,-0.50313c1.37475,0.02132 4.2757,0.34512 4.2757,0.34512c0,0 1.49966,0.51077 1.74296,0.92181c0.29799,0.50342 1.0116,1.92189 1.0116,1.92189c0,0 -0.24746,1.96258 -1.07227,2.02109z" data-paper-data="{&quot;index&quot;:null}" fill="#141415" stroke="#000000" stroke-width="0" stroke-linecap="butt"/><path d="M261.89324,231.01436c-0.2476,0.01756 0.81396,1.54793 -2.51722,1.51502c-3.14571,-0.03107 -2.8536,-0.9888 -3.96095,-0.99105c-2.31551,-0.00471 -2.53906,0.77663 -3.54705,0.69477c-0.35104,-0.02851 -0.51953,-0.07797 -1.84878,-0.84165c-0.91417,-0.5252 -0.7879,-1.69973 -1.4306,-2.2838c-0.93881,-0.85316 -0.93988,-1.82387 -0.93988,-1.82387l-0.29183,-3.03469c0,0 0.64128,2.16687 1.53645,2.92985c0.80093,0.68265 2.30977,-0.18264 2.79223,-0.217c0.84482,-0.06017 -0.91836,-3.21111 -0.10934,-3.25021c0.43502,-0.02103 3.69686,-0.49691 3.69686,-0.49691c0,0 0.37602,3.56221 0.60982,3.56583c1.37475,0.02132 4.63856,0.31938 4.63856,0.31938c0,0 1.49966,0.51077 1.74297,0.92181c0.29799,0.50342 0.83832,2.9067 0.83832,2.9067c0,0 -0.38473,0.02729 -1.20956,0.08581z" data-paper-data="{&quot;index&quot;:null}" fill="#252527" stroke="#000000" stroke-width="0" stroke-linecap="butt"/><path d="M254.23394,228.61169l2.58379,-1.27736" fill="none" stroke="#ffffff" stroke-width="0.5" stroke-linecap="round"/><path d="M256.19497,228.83727l2.43711,-1.63164" fill="none" stroke="#ffffff" stroke-width="0.5" stroke-linecap="round"/><path d="M259.73784,227.37032l-1.34851,1.55442" fill="none" stroke="#ffffff" stroke-width="0.5" stroke-linecap="round"/><path d="M252.74983,224.82691l2.16003,-0.39635" fill="none" stroke="#969696" stroke-width="0.5" stroke-linecap="round"/><path d="M255.20326,225.13914l-1.90954,0.50015" fill="none" stroke="#969696" stroke-width="0.5" stroke-linecap="round"/></g><path d="M235.9198,162.91939v-6.85104h7.65615v6.85104z" fill="url(#color-3)" stroke="#000000" stroke-width="0" stroke-linecap="butt"/><g stroke="none" stroke-linecap="butt"><path d="M252.95749,144.18413c0.04509,7.3914 -5.65598,13.41832 -12.73371,13.4615c-7.07773,0.04318 -12.85192,-5.91372 -12.89701,-13.30512c-0.04509,-7.3914 5.65598,-13.41832 12.73371,-13.4615c7.07773,-0.04318 12.85192,5.91372 12.89701,13.30512z" fill="url(#color-4)" stroke-width="0"/><path d="M252.95749,144.18413c0.04509,7.3914 -5.65598,13.41832 -12.73371,13.4615c-7.07773,0.04318 -12.85192,-5.91372 -12.89701,-13.30512c-0.04509,-7.3914 5.65598,-13.41832 12.73371,-13.4615c7.07773,-0.04318 12.85192,5.91372 12.89701,13.30512zM252.67416,143.3062c-0.03369,-5.52275 -4.53807,-9.9725 -10.06082,-9.9388c-0.69723,0.00425 -1.37737,0.07977 -2.03354,0.21958c-0.07261,-0.00112 -0.1454,-0.00145 -0.21837,-0.001c-5.52275,0.03369 -9.9725,4.53807 -9.9388,10.06082c0.00937,1.53593 0.36452,2.98885 0.99119,4.28544c1.31672,3.37742 4.41523,5.85958 8.13404,6.29905c0.9751,0.30996 2.01473,0.47436 3.0932,0.46778c5.4863,-0.03347 9.91373,-4.47883 9.93889,-9.95163c0.065,-0.47081 0.09719,-0.95203 0.09421,-1.44124z" fill="url(#color-5)" stroke-width="0"/><path d="M245.49316,150.76296c-0.98807,0.15405 -1.14211,-0.83401 -1.14211,-0.83401l-0.04734,-0.30359c-0.19431,-1.25138 -0.28453,-2.49449 -0.37501,-3.75718c0,0 -0.07147,-0.99745 0.92598,-1.06891c0.99745,-0.07147 1.06892,0.92598 1.06892,0.92598c0.08651,1.20734 0.16889,2.39578 0.35623,3.592l0.04734,0.30359c0,0 0.15406,0.98807 -0.83401,1.14212z" fill="#191412" stroke-width="0.5"/><path d="M248.8659,145.25798c-0.36829,-1.30849 1.70814,-4.13433 1.70814,-4.13433c0,0 2.03653,2.44202 2.07385,4.08318c0.0397,1.74614 -3.33134,1.6523 -3.78199,0.05115z" fill="#191412" stroke-width="0.5"/><path d="M235.77059,145.02807c-0.27584,-1.38446 2.59603,-4.05527 2.59603,-4.05527c0,0 2.35166,2.49321 2.14913,4.16906c-0.21548,1.78304 -4.40764,1.58033 -4.74518,-0.11378z" data-paper-data="{&quot;index&quot;:null}" fill="#191412" stroke-width="0.5"/><g fill="#00ffcc" stroke-width="0.5"><path d="M241.7161,137.82844c-0.0024,-0.39455 0.31547,-0.71633 0.71002,-0.71874c0.39455,-0.0024 0.71633,0.31547 0.71874,0.71002c0.0024,0.39455 -0.31547,0.71633 -0.71002,0.71874c-0.39455,0.0024 -0.71633,-0.31547 -0.71874,-0.71002z"/><path d="M243.67416,134.96294c-0.0024,-0.39455 0.31547,-0.71634 0.71002,-0.71875c0.39455,-0.0024 0.71633,0.31548 0.71874,0.71003c0.0024,0.39455 -0.31547,0.71633 -0.71002,0.71874c-0.39455,0.0024 -0.71633,-0.31547 -0.71874,-0.71002z"/><path d="M245.66749,137.87751c-0.0024,-0.39455 0.31547,-0.71633 0.71002,-0.71874c0.39455,-0.0024 0.71633,0.31547 0.71874,0.71002c0.0024,0.39455 -0.31547,0.71633 -0.71002,0.71874c-0.39455,0.0024 -0.71633,-0.31547 -0.71874,-0.71002z"/></g><path d="M253.58322,143.87107c0.03679,6.0287 -5.11177,10.94751 -11.49963,10.98649c-6.38786,0.03897 -11.59604,-4.81665 -11.63282,-10.84535c-0.03679,-6.0287 5.11177,-10.94751 11.49963,-10.98649c6.38786,-0.03897 11.59604,4.81665 11.63282,10.84535z" fill="url(#color-6)" stroke-width="0"/></g><g><path d="M223.41825,226.53703l6.54916,-33.28075c0,0 6.91329,-1.61339 9.96948,-1.35837c3.61615,0.30174 0.25129,4.27979 0.25129,4.27979c0,0 -3.08868,-0.16914 -3.513,1.23625c-1.29768,4.29797 -5.28153,29.78857 -5.28153,29.78857z" fill="#343331" stroke="#000000" stroke-width="0" stroke-linecap="butt"/><path d="M238.56361,232.97789c0,0 -0.5457,1.90136 -1.36974,1.8326c-0.59071,-0.04929 -2.63608,-0.20625 -4.68251,-0.45784c-1.24417,-0.15296 -1.84419,-0.77382 -2.76246,-0.99379c-1.15605,-0.27692 -2.94669,-0.02465 -3.77706,-0.28611c-1.53009,-0.48178 -2.30173,-0.97258 -2.30173,-0.97258c0,0 -0.18293,-1.04422 -0.15275,-1.60405c0.04064,-0.75423 0.37472,-2.51456 0.37472,-2.51456c0,0 5.92363,0.3743 8.21386,0.76642c1.35519,0.23204 4.1721,0.99718 4.1721,0.99718c0,0 1.4035,0.73486 1.58086,1.17836c0.2172,0.54319 0.70468,2.05438 0.70468,2.05438z" data-paper-data="{&quot;index&quot;:null}" fill="#141415" stroke="#000000" stroke-width="0" stroke-linecap="butt"/><path d="M238.34642,232.32292c0,0 -0.38435,-0.03207 -1.20839,-0.10083c-0.24736,-0.02064 0.56678,1.65451 -2.7199,1.11079c-3.10368,-0.51345 -2.66806,-1.41499 -3.76196,-1.58715c-2.28735,-0.35999 -2.62818,0.37779 -3.61166,0.14221c-0.34251,-0.08205 -0.50141,-0.15678 -1.69771,-1.11538c-0.82274,-0.65927 -0.51773,-1.80051 -1.06319,-2.47629c-0.79677,-0.98714 -0.64886,-1.9465 -0.64886,-1.9465l0.17733,-3.04352c0,0 0.30116,2.23962 1.06864,3.13094c0.68669,0.79747 2.31044,0.17397 2.79245,0.21405c0.84404,0.07019 -0.41471,-3.31401 0.39073,-3.2285c0.4331,0.04598 3.72932,0.0763 3.72932,0.0763c0,0 -0.17509,3.57771 0.05538,3.61717c1.35518,0.23204 4.53461,1.02743 4.53461,1.02743c0,0 1.4035,0.73486 1.58086,1.17836c0.21721,0.5432 0.38234,3.00091 0.38234,3.00091z" data-paper-data="{&quot;index&quot;:null}" fill="#252527" stroke="#000000" stroke-width="0" stroke-linecap="butt"/><path d="M229.93816,228.67249l2.74922,-0.86573" data-paper-data="{&quot;index&quot;:null}" fill="none" stroke="#ffffff" stroke-width="0.5" stroke-linecap="round"/><path d="M231.84134,229.19633l2.65862,-1.23833" data-paper-data="{&quot;index&quot;:null}" fill="none" stroke="#ffffff" stroke-width="0.5" stroke-linecap="round"/><path d="M233.99627,229.61952l1.57108,-1.32908" data-paper-data="{&quot;index&quot;:null}" fill="none" stroke="#ffffff" stroke-width="0.5" stroke-linecap="round"/><path d="M229.05242,224.7048l2.19527,-0.06019" data-paper-data="{&quot;index&quot;:null}" fill="none" stroke="#969696" stroke-width="0.5" stroke-linecap="round"/><path d="M229.46519,225.59101l1.96368,-0.20119" data-paper-data="{&quot;index&quot;:null}" fill="none" stroke="#969696" stroke-width="0.5" stroke-linecap="round"/></g><g><path d="M253.76702,199.16421c0,0 0.76968,-2.94165 0.32258,-6.43964c-0.10751,-0.84118 -0.24755,-3.60078 -0.36737,-4.46404c-0.28357,-2.0431 -0.64513,-4.06127 -0.78507,-5.3172c-0.30102,-2.70131 -1.67471,-15.90706 -1.67471,-15.90706c0,0 -0.65045,-7.1868 0.34286,-7.31038c7.26528,-0.90389 5.97379,6.26021 5.97379,6.26021c0,0 -0.0714,6.5888 0.42729,13.57623c0.37513,5.25628 1.3267,10.83849 1.46066,13.45244c0.15855,3.09364 -0.13994,7.07843 -0.13994,7.07843z" data-paper-data="{&quot;index&quot;:null}" fill="url(#color-7)" stroke="#000000" stroke-width="0" stroke-linecap="butt"/><path d="M258.23137,208.9789c-0.51692,-0.04424 -0.283,-3.06904 -0.95251,-3.93786c-0.3544,-0.45989 0.68313,4.62415 -0.65257,4.07237c-0.45856,-0.18944 -0.41924,-3.9267 -0.87026,-4.77187c-0.24143,-0.45245 -0.19986,5.21854 -1.09788,4.89529c-0.53308,-0.19189 -0.25379,-3.09851 -0.55007,-4.52192c-0.14435,-0.69346 -0.34106,-5.55068 -0.34106,-5.55068l5.56009,0.929c0,0 -0.02521,2.79383 -0.19023,5.13641c-0.14849,2.10783 -0.40774,3.79187 -0.90551,3.74928z" data-paper-data="{&quot;index&quot;:null}" fill="#323a3a" stroke="#000000" stroke-width="0" stroke-linecap="butt"/><path d="M251.55678,167.05525l5.74161,-0.45608" fill="none" stroke="#00ffb0" stroke-width="1" stroke-linecap="round"/><path d="M257.49593,168.28091l-5.86994,0.58073" fill="none" stroke="#00ffb0" stroke-width="1" stroke-linecap="round"/><path d="M251.69521,170.66803l5.74161,-0.45608" fill="none" stroke="#00ffb0" stroke-width="1" stroke-linecap="round"/></g><g stroke-width="0" stroke-linecap="butt"><path d="M229.6398,193.59143c0,0 0.16709,-5.5597 -0.35268,-10.94382c-0.35317,-3.65847 -1.40473,-6.95919 -1.56162,-9.45339c-0.29447,-4.68133 -0.2105,-13.38223 -0.2105,-13.38223c0,0 3.69178,-0.58477 5.4694,-0.21857c2.26281,0.46615 7.00656,2.78867 7.00656,2.78867c0,0 3.67689,-2.17061 5.59031,-2.58687c2.01891,-0.43921 6.22369,0.01677 6.22369,0.01677c0,0 -0.06905,9.21711 -0.22689,12.65629c-0.13965,3.04285 -0.88957,6.36811 -1.18346,10.87293c-0.3029,4.64296 -0.14784,10.42155 -0.14784,10.42155c0,0 -2.75697,-0.76932 -5.57187,-0.83754c-1.27833,-0.03098 -1.79126,1.00612 -2.99851,1.16532c-0.96496,0.12724 -2.63623,-0.61291 -3.56107,-0.64966c-0.69915,-0.02778 -2.04377,-0.5306 -2.53801,-0.53471c-0.99795,-0.0083 -1.61572,0.86529 -2.77345,1.02464c-1.34484,0.1851 -3.1641,-0.33939 -3.1641,-0.33939z" fill="url(#color-8)" stroke="#292e32"/><path d="M246.91518,166.62653c3.55914,-0.03151 3.40064,0.87953 3.40064,1.96449c0,1.08496 0.79843,2.00343 -3.40064,1.96449c-4.03819,-0.03744 -3.33404,1.01625 -3.40064,-1.96449c-0.05453,-2.44079 -0.63741,-1.92875 3.40064,-1.96449z" data-paper-data="{&quot;index&quot;:null}" fill="#c9ffe7" stroke="#000000"/></g><g><path d="M218.6478,199.75055c0,0 -0.18259,-3.99258 0.07937,-7.07947c0.22135,-2.60826 1.38243,-8.15648 1.93693,-13.39783c0.73711,-6.96758 0.87188,-13.55542 0.87188,-13.55542c0,0 -1.33065,-6.6165 6.2561,-5.74696c1.03914,0.1191 0.2448,7.20844 0.2448,7.20844c0,0 -1.83915,12.94928 -2.23607,15.63936c-0.18454,1.25072 -0.62244,3.25602 -0.98048,5.28881c-0.15127,0.85889 -0.38352,3.61253 -0.52137,4.44976c-0.57325,3.48157 0.12978,6.44698 0.12978,6.44698z" data-paper-data="{&quot;index&quot;:null}" fill="url(#color-9)" stroke="#000000" stroke-width="0" stroke-linecap="butt"/><path d="M218.68195,204.89062c-0.09653,-2.34681 -0.03414,-5.14007 -0.03414,-5.14007l5.78094,-0.74633c0,0 -0.35728,4.84834 -0.52856,5.53672c-0.35156,1.41299 -0.15468,4.32732 -0.7122,4.50163c-0.93917,0.29366 -0.7166,-5.37312 -0.98067,-4.92881c-0.49331,0.82997 -0.57097,4.56664 -1.05131,4.74096c-1.39916,0.50773 -0.16493,-4.53976 -0.54609,-4.09171c-0.72008,0.84644 -0.57388,3.8774 -1.11,3.90467c-0.51626,0.02626 -0.73111,-1.66542 -0.81797,-3.77706z" data-paper-data="{&quot;index&quot;:null}" fill="#323a3a" stroke="#000000" stroke-width="0" stroke-linecap="butt"/><path d="M221.46146,167.30954l6.18246,0.90161" fill="none" stroke="#00ffb0" stroke-width="1" stroke-linecap="round"/><path d="M221.46146,169.11276l5.92486,0.90161" fill="none" stroke="#00ffb0" stroke-width="1" stroke-linecap="round"/><path d="M227.25752,172.07518l-5.79606,-1.03041" fill="none" stroke="#00ffb0" stroke-width="1" stroke-linecap="round"/></g></g></g></svg>