<svg version="1.1" xmlns="http://www.w3.org/2000/svg" xmlns:xlink="http://www.w3.org/1999/xlink" width="617.57463" height="471.58011" viewBox="0,0,617.57463,471.58011"><defs><radialGradient cx="240.00015" cy="180.00006" r="250.5" gradientUnits="userSpaceOnUse" id="color-1"><stop offset="0" stop-color="#949494"/><stop offset="1" stop-color="#7d7d7d"/></radialGradient><radialGradient cx="243.51188" cy="115.55084" r="114.5" gradientUnits="userSpaceOnUse" id="color-2"><stop offset="0" stop-color="#434343"/><stop offset="1" stop-color="#383838"/></radialGradient><radialGradient cx="313.80135" cy="294.91337" r="270.53072" gradientUnits="userSpaceOnUse" id="color-3"><stop offset="0" stop-color="#4d4d4d"/><stop offset="1" stop-color="#3c3c3c"/></radialGradient><radialGradient cx="228.97839" cy="294.72909" r="66" gradientUnits="userSpaceOnUse" id="color-4"><stop offset="0" stop-color="#2a2a2a"/><stop offset="1" stop-color="#2a2a2a"/></radialGradient><radialGradient cx="222.20359" cy="299.86251" r="66" gradientUnits="userSpaceOnUse" id="color-5"><stop offset="0" stop-color="#1d1d1d"/><stop offset="1" stop-color="#1b1b1b"/></radialGradient><radialGradient cx="349.58379" cy="459.23884" r="249.95744" gradientUnits="userSpaceOnUse" id="color-6"><stop offset="0" stop-color="#222222"/><stop offset="1" stop-color="#202020"/></radialGradient><radialGradient cx="308.17233" cy="320.18156" r="65" gradientUnits="userSpaceOnUse" id="color-7"><stop offset="0" stop-color="#090909"/><stop offset="1" stop-color="#080808"/></radialGradient><radialGradient cx="465.65093" cy="223.72" r="26.5" gradientUnits="userSpaceOnUse" id="color-8"><stop offset="0" stop-color="#525252"/><stop offset="1" stop-color="#424242"/></radialGradient><radialGradient cx="389.18057" cy="268.01043" r="84" gradientUnits="userSpaceOnUse" id="color-9"><stop offset="0" stop-color="#1d1d1d"/><stop offset="1" stop-color="#1b1b1b"/></radialGradient><radialGradient cx="423.8232" cy="234.41897" r="44.75" gradientUnits="userSpaceOnUse" id="color-10"><stop offset="0" stop-color="#3a3a3a"/><stop offset="1" stop-color="#2f2f2f"/></radialGradient><radialGradient cx="376.45247" cy="274.17483" r="48.5" gradientUnits="userSpaceOnUse" id="color-11"><stop offset="0" stop-color="#343434"/><stop offset="1" stop-color="#262626"/></radialGradient><radialGradient cx="333.55189" cy="250.02499" r="26.25" gradientUnits="userSpaceOnUse" id="color-12"><stop offset="0" stop-color="#121212"/><stop offset="1" stop-color="#161616"/></radialGradient><radialGradient cx="315.50973" cy="317.64932" r="65" gradientUnits="userSpaceOnUse" id="color-13"><stop offset="0" stop-color="#101010"/><stop offset="1" stop-color="#111111"/></radialGradient><radialGradient cx="483.58979" cy="205.60378" r="36.25" gradientUnits="userSpaceOnUse" id="color-14"><stop offset="0" stop-color="#313131"/><stop offset="1" stop-color="#1b1b1b"/></radialGradient><radialGradient cx="374.11505" cy="348.70196" r="26.25" gradientUnits="userSpaceOnUse" id="color-15"><stop offset="0" stop-color="#121212"/><stop offset="1" stop-color="#161616"/></radialGradient><linearGradient x1="-9.98817" y1="179.28457" x2="151.9894" y2="179.28457" gradientUnits="userSpaceOnUse" id="color-16"><stop offset="0" stop-color="#7d7d7d"/><stop offset="1" stop-color="#868686"/></linearGradient><radialGradient cx="368.43824" cy="263.70977" r="57.27136" gradientUnits="userSpaceOnUse" id="color-17"><stop offset="0" stop-color="#33266a"/><stop offset="1" stop-color="#949074"/></radialGradient><radialGradient cx="137.88091" cy="121.46038" r="77.50368" gradientUnits="userSpaceOnUse" id="color-18"><stop offset="0" stop-color="#b4dcff"/><stop offset="1" stop-color="#6688ff"/></radialGradient><linearGradient x1="410.62367" y1="220.13787" x2="398.59764" y2="232.68975" gradientUnits="userSpaceOnUse" id="color-19"><stop offset="0" stop-color="#694444"/><stop offset="1" stop-color="#98a1b9"/></linearGradient><radialGradient cx="451.34863" cy="177.1634" r="33.28545" gradientUnits="userSpaceOnUse" id="color-20"><stop offset="0" stop-color="#dcdcdc"/><stop offset="1" stop-color="#a0a0a0"/></radialGradient><radialGradient cx="462.72166" cy="184.4388" r="25.55275" gradientUnits="userSpaceOnUse" id="color-21"><stop offset="0" stop-color="#1c2f30"/><stop offset="1" stop-color="#142913"/></radialGradient><radialGradient cx="430.26174" cy="157.07198" r="6.72592" gradientUnits="userSpaceOnUse" id="color-22"><stop offset="0" stop-color="#786c41"/><stop offset="1" stop-color="#141a29"/></radialGradient><radialGradient cx="452.28915" cy="175.66428" r="10.58856" gradientUnits="userSpaceOnUse" id="color-23"><stop offset="0" stop-color="#7ba676"/><stop offset="1" stop-color="#291616"/></radialGradient><radialGradient cx="430.9815" cy="188.47378" r="25.00169" gradientUnits="userSpaceOnUse" id="color-24"><stop offset="0" stop-color="#d1ffc4"/><stop offset="1" stop-color="#2188ff"/></radialGradient><radialGradient cx="430.9815" cy="188.47378" r="25.00169" gradientUnits="userSpaceOnUse" id="color-25"><stop offset="0" stop-color="#ceffc4"/><stop offset="1" stop-color="#ff21cc"/></radialGradient><radialGradient cx="430.9815" cy="188.47378" r="25.00169" gradientUnits="userSpaceOnUse" id="color-26"><stop offset="0" stop-color="#ffe9c4"/><stop offset="1" stop-color="#4fff21"/></radialGradient><radialGradient cx="430.9815" cy="188.47378" r="25.00169" gradientUnits="userSpaceOnUse" id="color-27"><stop offset="0" stop-color="#ffe9c4"/><stop offset="1" stop-color="#4fff21"/></radialGradient><radialGradient cx="430.98155" cy="188.47383" r="25.00169" gradientUnits="userSpaceOnUse" id="color-28"><stop offset="0" stop-color="#ffe9c4"/><stop offset="1" stop-color="#ffa321"/></radialGradient><radialGradient cx="430.98157" cy="188.47385" r="25.00169" gradientUnits="userSpaceOnUse" id="color-29"><stop offset="0" stop-color="#c4f0ff"/><stop offset="1" stop-color="#3d21ff"/></radialGradient></defs><g transform="translate(10.49989,8.48167)"><g data-paper-data="{&quot;isPaintingLayer&quot;:true}" fill-rule="nonzero" stroke-linejoin="miter" stroke-miterlimit="10" stroke-dasharray="" stroke-dashoffset="0" style="mix-blend-mode: normal"><path d="M-10.49989,368.00005v-376h501v376z" fill="url(#color-1)" stroke="none" stroke-width="0" stroke-linecap="butt"/><path d="M55.63714,350.09241c-3.89444,-35.12313 -28.86024,-260.28391 -28.86024,-260.28391c0,0 6.13498,-58.73673 90.38049,-83.32369c88.94305,-19.99889 123.11201,33.7383 123.11201,33.7383c0,0 65.07454,148.36123 76.16367,173.64299c3.0985,7.06417 1.47154,14.99796 -6.00481,17.45295c-24.82515,8.15175 -82.74364,27.48408 -119.81421,42.36863c-36.09995,14.49483 -99.11668,64.98273 -123.29164,84.94994c-6.18411,5.10773 -10.69693,0.36836 -11.68526,-8.54521z" fill="#000000" stroke="none" stroke-width="NaN" stroke-linecap="butt"/><path d="M24.16817,52.96751c35.25471,-22.9917 112.78702,-54.2979 123.69255,-54.69172c22.09824,-0.79801 47.62028,7.71912 55.99304,10.07052c21.80408,6.12342 42.158,33.70455 42.158,33.70455c0,0 56.32326,135.7535 68.65762,165.48248c4.54989,10.96641 9.54663,29.64819 3.30934,27.09835c-7.13979,-2.91878 -113.36072,35.72391 -153.93548,51.55251c-59.94238,33.6978 -103.53148,72.36666 -103.53148,72.36666c0,0 -51.21531,-295.88462 -36.34359,-305.58335z" fill="url(#color-2)" stroke="none" stroke-width="0" stroke-linecap="butt"/><path d="M605.6926,270.33002c14.79035,54.92892 -90.81001,131.12039 -235.86501,170.17842c-145.055,39.05803 -274.63528,26.19214 -289.42563,-28.73678c-14.79036,-54.92892 90.81,-131.1204 235.86501,-170.17843c145.05501,-39.05803 274.63528,-26.19213 289.42564,28.73679z" fill="url(#color-3)" stroke="none" stroke-width="NaN" stroke-linecap="butt"/><g data-paper-data="{&quot;index&quot;:null}"><path d="M221.7215,242.5142l18.63568,7.20842l33.462,93.83653l-22.25925,-11.99065z" fill="url(#color-4)" stroke="none" stroke-width="0" stroke-linecap="butt"/><path d="M252.45351,330.2641l21.46221,12.59458l-6.87139,5.83387l-22.95973,-12.08721z" fill="url(#color-5)" stroke="none" stroke-width="0" stroke-linecap="butt"/><path d="M243.98797,337.30584l-29.01224,-87.79835l7.58732,-5.8825l30.00994,86.54853z" data-paper-data="{&quot;index&quot;:null}" fill="url(#color-6)" stroke="none" stroke-width="0" stroke-linecap="butt"/><path d="M226.68193,246.06684l49.6744,5.71874l-37.99309,0.88027" fill="none" stroke="#747474" stroke-width="1.5" stroke-linecap="round"/><path d="M255.92512,327.04884l55.24453,10.40635l-43.1397,-2.28397" fill="none" stroke="#747474" stroke-width="1.5" stroke-linecap="round"/><path d="M261.55162,293.70277c-6.53341,-17.0944 -5.97747,-42.56344 -2.56125,-48.30337c2.17588,-3.65591 19.20595,5.0226 28.79083,9.47131c7.94194,3.68615 20.28707,15.94247 20.28707,15.94247l45.54771,97.12701c0,0 -20.99459,-3.76071 -30.44393,-7.83954c-9.80806,-4.23367 -25.97957,-9.11744 -30.68559,-14.8801c-4.67276,-5.72192 -24.85768,-35.61715 -30.93484,-51.51779z" fill="url(#color-7)" stroke="none" stroke-width="0" stroke-linecap="butt"/><path d="M447.24644,203.56373l11.4751,-7.12896l27.95706,45.07108l-12.43968,8.3818z" fill="url(#color-8)" stroke="none" stroke-width="0" stroke-linecap="butt"/><path d="M314.438,268.9328l123.01751,-82.28573l54.9052,82.38124l-141.83002,91.94697z" fill="url(#color-9)" stroke="none" stroke-width="0" stroke-linecap="butt"/><path d="M386.04151,221.89278l43.80938,-30.72438l47.9381,75.62035l-47.68542,32.13022z" fill="url(#color-10)" stroke="none" stroke-width="0" stroke-linecap="butt"/><path d="M321.12865,275.87998l69.10339,-47.76737l35.25675,63.06316l-75.46736,50.84956z" fill="url(#color-11)" stroke="none" stroke-width="0" stroke-linecap="butt"/><path d="M299.1187,255.74145c0,0 17.84291,-8.94866 28.21866,-11.42355c8.73093,-2.08255 31.61593,-3.57052 31.61593,-3.57052l-43.12421,29.0569z" fill="url(#color-12)" stroke="none" stroke-width="0" stroke-linecap="butt"/><path d="M268.88892,291.17044c-6.53341,-17.0944 -10.41229,-41.98691 -6.99608,-47.72684c2.17588,-3.65591 23.64077,4.44607 33.22565,8.89478c7.94194,3.68615 20.28707,15.94247 20.28707,15.94247l42.23047,99.36215c0,0 -17.67735,-5.99585 -27.12668,-10.07468c-9.80806,-4.23367 -25.97957,-9.11744 -30.68559,-14.8801c-4.67276,-5.72192 -24.85768,-35.61715 -30.93484,-51.51779z" fill="url(#color-13)" stroke="none" stroke-width="0" stroke-linecap="butt"/><path d="M449.82532,192.17954l31.23445,-21.64854l44.65857,57.33116l-34.41643,23.18963z" fill="url(#color-14)" stroke="none" stroke-width="0" stroke-linecap="butt"/><path d="M335.68845,360.12379c0,0 20.54692,-17.4247 32.57751,-22.08748c10.09842,-3.91392 30.79164,-7.34635 30.79164,-7.34635l-43.07987,38.07066z" fill="url(#color-15)" stroke="none" stroke-width="0" stroke-linecap="butt"/></g><path d="M-9.98817,369.05086l0.99423,-377l497.06782,-0.53253c0,0 -6.70216,79.05337 4.42311,140.54886c12.20085,67.44083 -171.3765,84.83634 -174.69468,88.70291c-1.17525,1.36947 -26.11591,-70.76592 -51.02414,-130.96378c-6.87176,-16.60758 -11.97962,-29.99687 -18.92604,-43.47872c-13.60321,-26.40159 -39.1521,-37.18452 -39.15078,-37.03006c0.00692,0.80969 -12.01848,-4.35483 -26.71796,-6.66876c-14.10402,-2.22019 -30.9066,-1.57792 -30.9066,-1.57792c0,0 -39.24181,6.29142 -75.12209,25.97667c-26.64837,14.62028 -51.23728,44.21584 -49.07754,61.1415c8.73898,68.48644 35.71334,279.88184 35.71334,279.88184z" fill="url(#color-16)" stroke="none" stroke-width="0" stroke-linecap="butt"/><path d="M300.09611,270.90289l88.31076,-72.9468l48.37263,58.56069l-88.31076,72.9468z" fill="url(#color-17)" stroke="#ed6b00" stroke-width="0" stroke-linecap="butt"/><g data-paper-data="{&quot;index&quot;:null}" stroke="#000000" stroke-width="0" stroke-linecap="butt"><path d="M307.5758,258.58255c0,0 4.1289,-3.33301 9.61969,-9.96757c3.29787,-3.98495 8.33919,-10.79042 9.74606,-12.15935c3.13841,-3.05317 6.45538,-7.01988 8.56966,-8.90059c1.07281,-0.95428 9.80223,-8.94584 19.37661,-16.32178c11.41622,-8.79488 21.69833,-19.78567 26.66111,-9.38066c10.05229,10.58316 -21.54571,27.7807 -21.54571,27.7807c0,0 -7.95811,4.73488 -12.84456,9.08115c-2.27195,2.0208 -6.42167,4.74074 -10.22101,7.93523c-1.60538,1.34977 -6.28618,6.06774 -7.83346,7.3984c-6.43403,5.53326 -9.7175,12.08633 -9.7175,12.08633z" fill="#b8bda6"/><path d="M300.18968,267.11536c-1.09696,-0.72303 7.00173,-8.66417 7.00173,-8.66417c0,0 4.85993,1.1376 6.80446,2.37452c1.99725,1.27006 5.02465,5.1487 5.02465,5.1487c0,0 -1.68809,2.28475 -1.86413,4.55277c-0.30159,3.88121 -0.2738,8.2953 -3.19873,9.63695c-1.58709,0.7281 0.76635,-5.68207 -0.14265,-5.54061c-0.16174,0.02511 -6.83412,8.37174 -7.91283,8.11794c-1.76246,-0.41475 4.53939,-9.36395 3.1628,-8.35612c-2.82526,2.06901 -6.49621,8.7603 -7.79469,8.22399c-2.18721,-0.90368 6.95007,-11.02987 5.77807,-10.61577c-2.18945,0.77385 -6.66541,7.76196 -7.82113,7.34429c-3.36669,-1.21658 5.26449,-8.84559 3.87012,-8.60473c-2.63381,0.45478 -5.33359,5.75557 -6.36612,4.9803c-2.09918,-1.57612 3.97626,-8.25627 3.45837,-8.59777z" data-paper-data="{&quot;index&quot;:null}" fill="#786274"/></g><g><path d="M247.63178,263.82466l85.92284,4.91816c0,0 6.45294,16.81693 6.87197,24.58721c0.49579,9.19377 -10.67004,2.11584 -10.67004,2.11584c0,0 -0.64623,-7.82194 -4.32584,-8.4011c-11.25318,-1.77095 -76.7056,-2.94329 -76.7056,-2.94329z" data-paper-data="{&quot;index&quot;:null}" fill="#4a433c" stroke="#000000" stroke-width="0" stroke-linecap="butt"/><path d="M229.09713,250.19079c-0.11295,-2.09503 4.74993,-3.33734 4.74993,-3.33734c0,0 3.7962,1.34868 5.15768,1.94035c1.11178,0.48268 2.87092,4.09722 2.87092,4.09722c0,0 1.73052,7.20163 2.21813,10.65595c0.82395,5.8378 1.33168,20.88949 1.33168,20.88949c0,0 -4.48938,0.71601 -6.40537,0.76297c-1.42195,0.03484 -4.05687,-0.5068 -4.05687,-0.5068c0,0 -1.18737,-1.99343 -2.29532,-5.91014c-0.60119,-2.12544 0.17228,-6.64842 -0.44413,-9.60089c-0.48951,-2.34547 -2.0193,-3.9132 -2.31469,-7.08025c-0.4855,-5.20863 -0.7314,-10.40794 -0.81226,-11.90992z" data-paper-data="{&quot;index&quot;:null}" fill="#140d0d" stroke="#000000" stroke-width="0" stroke-linecap="butt"/><path d="M235.65783,250.52513c-0.1131,-2.09495 -0.16556,-3.07232 -0.16556,-3.07232c0,0 6.22096,0.60193 7.58244,1.1936c1.11155,0.48267 2.8707,4.09722 2.8707,4.09722c0,0 1.7804,8.12317 2.268,11.57751c0.08277,0.58742 9.16985,0.41003 9.16985,0.41003c0,0 -0.1687,8.36228 -0.08451,9.46417c0.15697,2.04927 -8.33246,-1.39564 -8.21732,0.75033c0.06573,1.22555 -1.63679,5.29727 0.33464,7.09832c2.20324,2.01319 7.86096,2.94378 7.86096,2.94378l-7.73228,0.22294c0,0 -2.44437,0.30378 -4.88856,-1.79067c-1.67333,-1.43378 -4.59064,-0.74508 -6.20134,-2.88096c-2.3422,-3.10548 -2.51974,-3.51381 -2.70234,-4.38876c-0.52414,-2.51205 1.37242,-3.32127 0.62992,-9.1495c-0.35515,-2.78751 -2.6742,-1.74954 -3.74499,-9.65958c-1.13404,-8.37595 3.05374,-6.18646 3.0198,-6.81536z" data-paper-data="{&quot;index&quot;:null}" fill="#1f261f" stroke="#000000" stroke-width="0" stroke-linecap="butt"/><path d="M246.52424,262.14306l-2.40061,6.90818" fill="none" stroke="#ffb5b5" stroke-width="0.5" stroke-linecap="round"/><path d="M242.93659,264.18514l3.33874,-6.65076" fill="none" stroke="#bffdff" stroke-width="0.5" stroke-linecap="round"/><path d="M242.02424,258.68815l3.48766,-3.88533" fill="none" stroke="#eaffc1" stroke-width="0.5" stroke-linecap="round"/><path d="M254.43654,266.02977l-0.31622,5.56318" fill="none" stroke="#8d967b" stroke-width="0.5" stroke-linecap="round"/><path d="M251.90344,270.4804l0.65671,-4.96533" fill="none" stroke="#767796" stroke-width="0.5" stroke-linecap="round"/></g><path d="M238.50363,127.3627c9.41579,30.9212 -16.79311,64.00041 -58.53923,73.88448c-41.74613,9.88408 -83.22105,-7.16987 -92.63684,-38.09107c-9.41579,-30.9212 16.79312,-64.0004 58.53923,-73.88447c41.74613,-9.88408 83.22105,7.16986 92.63684,38.09107z" fill="url(#color-18)" stroke-opacity="0.5098" stroke="#3666d6" stroke-width="3.5" stroke-linecap="butt"/><g><path d="M265.42107,309.72986c0,0 62.49021,-19.50303 72.79331,-24.3621c3.3692,-1.58898 1.79305,-9.27783 1.79305,-9.27783c0,0 8.72962,-9.92831 10.83516,-0.96496c1.77962,7.57516 0.30793,25.52756 0.30793,25.52756l-81.08535,28.84548z" fill="#413a4a" stroke="#000000" stroke-width="0" stroke-linecap="butt"/><path d="M248.6291,294.35177c0,0 3.97452,0.65992 5.41885,1.00254c1.17944,0.2797 3.54699,3.52817 3.54699,3.52817c0,0 2.9703,6.78448 4.05802,10.09933c1.83814,5.60206 4.98605,20.32941 4.98605,20.32941c0,0 -4.2929,1.49485 -6.17102,1.87798c-1.39387,0.28429 -4.08278,0.21454 -4.08278,0.21454c0,0 -1.5196,-1.75334 -3.29911,-5.41397c-0.96582,-1.98665 -1.00034,-6.57464 -2.12645,-9.37295c-0.8946,-2.22239 -2.67648,-3.49693 -3.52421,-6.56248c-1.39456,-5.04253 -2.55124,-10.1173 -2.89509,-11.5815c-0.4799,-2.04248 4.08874,-4.12106 4.08874,-4.12106z" data-paper-data="{&quot;index&quot;:null}" fill="#12140d" stroke="#000000" stroke-width="0" stroke-linecap="butt"/><path d="M250.35366,294.65361c0,0 6.2299,-0.50194 7.67423,-0.1593c1.17944,0.2797 3.54699,3.52818 3.54699,3.52818c0,0 3.18169,7.68292 4.26925,10.99776c0.18507,0.56381 9.09904,-1.20958 9.09904,-1.20958c0,0 1.30513,8.2616 1.582,9.33146c0.51481,1.98951 -8.44806,0.09221 -7.95714,2.18434c0.28022,1.19484 -0.67934,5.50231 1.57825,6.9285c2.52327,1.59397 8.25648,1.51463 8.25648,1.51463l-7.57237,1.5797c0,0 -2.35268,0.72873 -5.12738,-0.90282c-1.89939,-1.11717 -4.65021,0.07387 -6.61145,-1.74516c-2.85185,-2.64526 -3.09898,-3.0159 -3.43252,-3.84501c-0.95764,-2.38042 0.76658,-3.51094 -0.98951,-9.11748c-0.83977,-2.68149 -2.93995,-1.25154 -5.38599,-8.84993c-2.59021,-8.04633 1.91752,-6.62739 1.77362,-7.24073c-0.47973,-2.04256 -0.70346,-2.99531 -0.70346,-2.99531z" data-paper-data="{&quot;index&quot;:null}" fill="#1e1e26" stroke="#000000" stroke-width="0" stroke-linecap="butt"/><path d="M262.65049,314.39473l1.14775,-7.22261" fill="none" stroke="#c1ffce" stroke-width="0.5" stroke-linecap="round"/><path d="M260.6261,309.81366l2.11665,-7.13423" fill="none" stroke="#eaffc1" stroke-width="0.5" stroke-linecap="round"/><path d="M258.76069,304.56288l2.74992,-4.43851" fill="none" stroke="#ffb5b5" stroke-width="0.5" stroke-linecap="round"/><path d="M272.93845,315.13822l-0.66734,-5.53191" fill="none" stroke="#7d967f" stroke-width="0.5" stroke-linecap="round"/><path d="M270.5607,314.43279l-0.2272,-5.00322" fill="none" stroke="#966262" stroke-width="0.5" stroke-linecap="round"/></g><g stroke-linecap="butt"><path d="M391.584,225.96998l12.02627,-12.5519l14.02692,13.43965l-12.02627,12.5519z" fill="url(#color-19)" stroke="#000000" stroke-width="0"/><path d="M400.81712,178.67412c9.56373,-17.1269 30.02759,-23.91258 45.70734,-15.15661c15.67982,8.75588 20.63753,29.73752 11.07399,46.86413c-9.56373,17.1269 -30.02759,23.91258 -45.70734,15.15661c-15.6797,-8.7558 -20.63742,-29.73746 -11.07388,-46.86405z" fill="url(#color-20)" stroke="none" stroke-width="0"/><path d="M456.70534,181.02316l-0.01418,-0.01359l-0.03657,0.03577l-1.10539,-1.13084c-0.42619,-0.4192 -0.51509,-1.08839 -0.19186,-1.60874c-4.0363,-3.14298 -8.57691,-6.006 -11.20354,-8.45878c-0.37606,-0.35112 -0.87217,-0.66712 -1.41466,-0.97143c0.06538,0.33 0.00321,0.6847 -0.20152,0.98439c-0.40471,0.59214 -1.21215,0.74404 -1.80419,0.33973c-0.08773,-0.06007 -0.16609,-0.12936 -0.23417,-0.20489l-0.51708,-0.5518c0.02731,0.26945 0.04718,0.54277 0.06,0.81917c0,0 0.05725,1.2968 -1.23955,1.35426c-1.2968,0.05725 -1.35426,-1.23955 -1.35426,-1.23955c-0.13352,-3.18002 -1.39221,-5.70766 -3.42407,-7.34949c-1.38952,-0.63374 -2.76897,-1.22605 -4.0332,-1.8738c-0.95639,-0.20224 -1.98136,-0.28409 -3.06021,-0.23626l-0.11057,-0.05089l-0.00539,0.0403l-1.36909,-0.18681c-0.20235,-0.02315 -0.4028,-0.09503 -0.58267,-0.21803c-0.59214,-0.40471 -0.74406,-1.21216 -0.33973,-1.80419c0.10211,-0.1493 0.22996,-0.27051 0.37322,-0.36197l1.38333,-0.9283l0.37114,0.55374c0.45283,-0.20761 0.91682,-0.35352 1.38867,-0.44416l-0.60971,-0.62408c-0.43925,-0.43228 -0.52005,-1.12993 -0.16024,-1.65698c0.40471,-0.59214 1.21215,-0.74404 1.80419,-0.33973l1.29978,0.8879c0.4784,0.32714 1.01931,0.68441 1.60089,1.06808c0.86855,0.38741 1.8139,1.04432 2.76426,1.84999c2.0624,1.42003 4.22251,3.04023 5.82511,4.73108c0.65247,0.58639 1.26325,1.16286 1.82154,1.70044l1.2332,0.84213c0.26958,0.18412 0.44809,0.45169 0.52424,0.74489c4.69757,3.01273 8.67849,7.14479 13.07011,10.83642c3.18819,2.6802 7.17312,5.29127 8.61923,9.31456c0.57943,3.22389 -1.70944,11.18255 -5.74547,5.61708c-2.36606,-3.26341 1.14879,-3.95753 1.61279,-6.29271c-0.74866,-1.08645 -1.83822,-2.30596 -2.73771,-3.41113c-0.94544,-0.76517 -1.85516,-1.409 -2.21233,-1.65337z" fill="url(#color-21)" stroke="none" stroke-width="0.5"/><path d="M427.92721,154.19359c5.29788,3.73295 5.6747,3.08441 2.93461,6.87281c-2.74002,3.78857 -7.49613,5.30534 -10.6228,3.38733c-3.12652,-1.9182 -3.43999,-6.54462 -0.69993,-10.333c2.74006,-3.78859 2.73845,-3.90754 8.38818,0.0731z" data-paper-data="{&quot;index&quot;:null}" fill="url(#color-22)" stroke="#000000" stroke-width="0"/><path d="M439.27628,168.32235c3.25582,-3.96925 2.64023,-3.40597 10.86426,2.75305c8.77027,6.56782 8.61291,6.58226 5.3572,10.5516c-3.25539,3.9693 -9.52608,4.20867 -14.00544,0.53458c-4.47976,-3.67379 -5.47188,-9.86998 -2.21615,-13.83933z" fill="url(#color-23)" stroke="#000000" stroke-width="0"/><path d="M404.59861,206.16676c-22.19691,-20.5297 -5.81466,-34.25141 -5.81466,-34.25141c6.16688,-7.22878 21.95503,-6.00723 32.45555,2.9509c10.50054,8.95814 17.6368,25.47445 11.46992,32.70329c-6.16705,7.22883 -18.21421,17.35099 -38.11097,-1.40266z" data-paper-data="{&quot;index&quot;:null}" fill="url(#color-24)" stroke="#ed6b00" stroke-width="0"/><path d="M404.59861,206.16678c-1.66793,-1.54261 -3.11803,-3.0468 -4.37358,-4.50965c0.96072,-0.70936 1.8583,-1.53547 2.67215,-2.47683c5.91801,-6.8453 5.16632,-17.19198 -1.67896,-23.11002c-1.22803,-1.06168 -2.56877,-1.90873 -3.9764,-2.54444c0.87887,-1.05492 1.54219,-1.61051 1.54219,-1.61051c1.32378,-1.55172 3.09082,-2.71402 5.15376,-3.49406c5.10785,3.20198 11.5138,3.28309 16.64822,0.42998c3.76098,1.2727 7.45291,3.28444 10.65357,6.01496c1.86675,1.5925 3.62717,3.42392 5.2254,5.39959c-5.53007,-1.02051 -11.44,0.83515 -15.38352,5.39654c-5.91801,6.8453 -5.16632,17.19198 1.67896,23.11002c4.40361,3.80713 10.2562,4.85394 15.44669,3.29407c-6.88269,5.65266 -17.75339,9.04482 -33.60866,-5.89953z" data-paper-data="{&quot;index&quot;:null}" fill="url(#color-25)" stroke="#ed6b00" stroke-width="0"/><path d="M431.23954,174.86639c8.29369,7.07546 14.48861,18.86592 13.68758,27.07123c-6.03363,-1.87737 -12.8748,-0.15515 -17.27147,4.93044c-2.48316,2.87222 -3.7921,6.36091 -3.96927,9.88026c-2.27309,-0.25954 -4.72553,-0.94828 -7.36525,-2.19352c1.04966,-2.91872 1.23645,-6.05952 0.58807,-9.04226c5.55897,1.06201 11.51694,-0.78842 15.48447,-5.37755c5.91799,-6.8453 5.16631,-17.19199 -1.67896,-23.11002c-4.0584,-3.50864 -9.34751,-4.67289 -14.21477,-3.61281c1.23668,-1.52704 2.15482,-3.21409 2.76036,-4.97817c4.21372,1.22793 8.40313,3.38145 11.97918,6.43224z" data-paper-data="{&quot;index&quot;:null}" fill="url(#color-26)" stroke="#ed6b00" stroke-width="0"/><path d="M407.26056,179.11517c-3.23838,3.9986 -4.29227,9.09436 -3.27001,13.79706c-3.01134,-0.5753 -6.13983,-0.29594 -9.00551,0.81044c-3.33271,-7.23726 -1.97512,-13.00326 -0.01182,-16.7841c3.72695,2.37464 8.15883,3.0758 12.28725,2.17661z" data-paper-data="{&quot;index&quot;:null}" fill="url(#color-27)" stroke="#ed6b00" stroke-width="0"/><path d="M415.00443,199.23709c-0.74154,1.37625 -1.54078,3.50411 -2.21147,5.98795c-0.20464,-2.40214 -0.93624,-4.76064 -2.18119,-6.88701c1.89226,-0.93935 3.63306,-2.26258 5.10125,-3.9608c5.91801,-6.8453 5.16632,-17.19198 -1.67896,-23.11002c-2.16922,-1.8754 -4.69008,-3.08099 -7.31024,-3.63515c5.19187,-1.03375 11.58346,-0.11479 17.45241,2.6744c-2.30271,6.2231 -0.66152,13.48882 4.65388,18.08417c4.11778,3.56002 9.50255,4.70649 14.42823,3.56483c1.71072,4.5635 2.27118,9.00235 1.17376,12.45644c-0.23207,-0.6488 -0.55343,-1.19299 -0.97838,-1.60373c-3.31905,-3.20789 -7.39104,-5.53154 -11.07378,-8.3143c-0.6014,-0.45438 -1.68835,-1.72203 -2.13057,-1.59966c-4.68099,1.29513 -8.95926,3.75362 -13.45263,5.59712c-0.36832,0.15106 -1.67451,0.52701 -1.79237,0.74571z" data-paper-data="{&quot;index&quot;:null}" fill="url(#color-28)" stroke="#ed6b00" stroke-width="0"/><path d="M404.59858,206.16674c-6.2603,-5.79013 -9.45186,-11.03869 -10.80773,-15.59064c2.61349,-4.29917 3.04502,-9.48424 1.40382,-14.05135c1.00366,-1.8204 2.12125,-3.13743 2.83859,-3.88638c6.5372,3.25267 14.6888,1.81653 19.68453,-3.96202c0.15376,-0.17784 0.30305,-0.35809 0.44781,-0.54053c4.5784,1.15994 9.1882,3.41544 13.07392,6.73044c1.08113,0.92231 2.12659,1.92481 3.12555,2.98897c-3.23881,-0.5594 -6.59859,-0.13578 -9.61011,1.23674c-3.15802,-0.56638 -5.25402,-4.83393 -8.45398,-4.60146c-5.48948,0.39883 -11.97374,1.32376 -15.57335,5.4874c-8.88477,10.27688 -3.70422,16.14414 1.67896,23.11002c3.1214,4.03909 8.28087,7.03264 13.9219,8.70056c5.73637,4.12842 13.41512,4.05072 19.03638,0.05741c0.25033,-0.094 0.49689,-0.19267 0.73953,-0.29613c2.34761,-1.00093 5.28078,-2.72452 7.3346,-4.97414c-0.21864,0.34797 -0.46157,0.67973 -0.72963,0.99396c-6.16705,7.22883 -18.21419,17.35101 -38.11097,-1.40266z" data-paper-data="{&quot;index&quot;:null}" fill="url(#color-29)" stroke="#ed6b00" stroke-width="0"/></g><g stroke-width="0" stroke-linecap="butt"><path d="M355.45292,302.61233c0,0 -4.04935,-2.58475 -5.95183,-5.45596c-1.6381,-2.4717 -1.01031,-5.11297 -2.6995,-6.99943c-0.8366,-0.93443 -4.04891,-2.6517 -5.27412,-3.93657c-1.62077,-1.69994 -5.8328,-3.64108 -7.20836,-5.69204c-1.72123,-2.56569 -0.60629,-5.28157 -2.8089,-7.66394c-4.8501,-5.24592 -10.93792,-9.20603 -10.93792,-9.20603c0,0 11.26412,-9.39431 19.59769,-17.75647c8.08583,-8.11321 13.16032,-15.11707 18.72064,-20.48542c6.28442,-6.06732 23.72063,-21.65424 23.72063,-21.65424c0,0 7.91905,7.24252 10.46806,11.82359c2.41559,4.34175 4.44765,14.98321 4.44765,14.98321c0,0 12.37712,5.13881 17.05923,8.66626c3.67814,2.77088 8.75498,10.78163 8.75498,10.78163c0,0 -16.42818,14.74947 -25.83655,22.03875c-5.01259,3.88366 -13.0615,7.41621 -20.62038,12.87811c-11.12438,8.03823 -21.43136,17.67919 -21.43136,17.67919z" fill="#d1b0b0" stroke="#292e32"/><path d="M365.30737,224.243l9.92906,-8.74321l13.5026,13.93724l-11.28681,9.52897z" fill="#f200ff" stroke="none"/><path d="M382.301,234.87239c-0.07038,-3.70632 -1.39247,-7.40978 -4.01408,-10.42684c-0.63329,-0.72878 -1.31681,-1.38805 -2.04092,-1.97718c1.80047,0.18341 3.62941,0.07012 5.40711,-0.3454l7.08597,7.31407z" fill="#eeff00" stroke="none"/><path d="M367.28694,226.64282c1.62637,-0.6616 3.17333,-1.59795 4.57262,-2.81383c2.22915,-1.937 3.80806,-4.34406 4.71748,-6.94547l8.85603,9.14112c-5.38235,-1.07307 -11.16793,0.45364 -15.15879,4.23969z" fill="#00ff5f" stroke="none"/><path d="M367.19952,226.53675c0.53331,-0.8791 0.97755,-1.7995 1.3318,-2.74764c2.13542,1.28834 4.5131,2.05246 6.93863,2.27874c-1.11887,3.56859 -0.99839,7.46344 0.41011,10.99221l-8.68056,-10.52329z" fill="#004fff" stroke="none"/><path d="M375.08699,236.09871c1.99947,-0.66147 3.90374,-1.72189 5.59286,-3.18961c2.22407,-1.9326 3.8009,-4.33312 4.71128,-6.92771l3.34799,3.45572l-11.28685,9.52898z" fill="#ff0000" stroke="none"/><path d="M371.22983,219.02789c-0.44047,2.55605 -0.27506,5.20471 0.51266,7.71203c-0.75622,0.93247 -1.39632,1.93199 -1.91883,2.9781l-4.51628,-5.47501l5.92247,-5.21512z" fill="#00efff" stroke="none"/><path d="M381.22095,221.67692c-5.1931,-1.71665 -11.11644,-0.78871 -15.60886,2.93548l-0.30466,-0.36935l9.92906,-8.74323z" fill="#9c00ff" stroke="none"/></g><g data-paper-data="{&quot;index&quot;:null}" stroke="#000000" stroke-width="0" stroke-linecap="butt"><path d="M361.18128,295.90774c0,0 9.16923,-1.9872 18.37444,-8.37188c2.21371,-1.53534 9.78965,-5.13426 12.04951,-6.73791c3.10667,-2.20442 14.38785,-5.69245 18.79115,-11.36494c3.17728,-4.09314 -5.01467,-9.14438 3.58169,-15.33368c5.46908,-7.61917 21.4593,-0.36213 15.78183,18.50403c-2.82811,9.39775 -16.13576,17.29055 -18.66823,18.98727c-3.09981,2.07678 -6.39148,1.72735 -11.30629,4.72098c-2.20343,1.3419 -12.37768,5.50263 -18.47343,8.38368c-10.14891,4.79677 -15.79503,8.96821 -15.79503,8.96821z" fill="#b8bda6"/><path d="M352.56017,319.28587c-2.8465,1.27386 -5.4715,4.35591 -5.87441,3.09137c-1.98334,-3.60046 0.53132,-4.26748 2.12893,-7.49811c0.84591,-1.71025 -4.45384,8.2675 -5.89882,2.00278c-0.89874,-3.32304 4.16343,-4.96045 5.96611,-7.51104c0.96482,-1.36547 -7.19446,7.75256 -8.55032,2.37293c-1.55665,-2.80139 2.87863,-2.85385 6.48829,-5.78029c0.38993,-0.31624 -6.05383,4.18049 -7.99348,0.61949c-1.75284,-3.21805 9.57936,-6.75088 9.60578,-6.8065c0.23909,-0.5027 -2.00962,1.47193 -2.51801,-0.20779c-1.32978,-4.39369 6.13291,-3.20671 8.76465,-2.69125c2.78971,0.54671 6.20371,-0.8445 6.20371,-0.8445c0,0 3.44093,5.21337 4.16575,8.21354c0.70612,2.92106 0.12829,9.55588 0.12829,9.55588c0,0 -7.08425,3.0077 -12.61653,5.48355z" data-paper-data="{&quot;index&quot;:null}" fill="#786274"/></g></g></g></svg>