<svg version="1.1" xmlns="http://www.w3.org/2000/svg" xmlns:xlink="http://www.w3.org/1999/xlink" width="43.47455" height="104.37665" viewBox="0,0,43.47455,104.37665"><defs><radialGradient cx="235.52448" cy="177.50476" r="21.06357" gradientUnits="userSpaceOnUse" id="color-1"><stop offset="0" stop-color="#353535"/><stop offset="1" stop-color="#8c8c8c"/></radialGradient><linearGradient x1="239.74787" y1="156.56832" x2="239.74787" y2="163.41937" gradientUnits="userSpaceOnUse" id="color-2"><stop offset="0" stop-color="#696969"/><stop offset="1" stop-color="#a0a0a0"/></linearGradient><radialGradient cx="235.71182" cy="133.91612" r="13.11833" gradientUnits="userSpaceOnUse" id="color-3"><stop offset="0" stop-color="#dcdcdc"/><stop offset="1" stop-color="#a0a0a0"/></radialGradient><radialGradient cx="242.43512" cy="139.4174" r="8.83664" gradientUnits="userSpaceOnUse" id="color-4"><stop offset="0" stop-color="#ffc4c4"/><stop offset="1" stop-color="#ff2121"/></radialGradient></defs><g transform="translate(-220.4856,-130.14767)"><g data-paper-data="{&quot;isPaintingLayer&quot;:true}" fill-rule="nonzero" stroke-linejoin="miter" stroke-miterlimit="10" stroke-dasharray="" stroke-dashoffset="0" style="mix-blend-mode: normal"><path d="M221.55679,200.07636v-45.14319h27.93538v45.14319z" fill="url(#color-1)" stroke="#ed6b00" stroke-width="0" stroke-linecap="butt"/><g><path d="M248.18551,227.96473c0,0 -3.66554,-25.53832 -4.9095,-29.85213c-0.07978,-0.27667 -2.26722,-0.71609 -3.687,-1.52696c-1.73356,-0.99009 -2.68125,-2.38552 -1.7293,-2.8604c1.73644,-0.86622 12.17543,0.31368 12.17543,0.31368l6.13348,33.35986z" data-paper-data="{&quot;index&quot;:null}" fill="#494949" stroke="#000000" stroke-width="0" stroke-linecap="butt"/><path d="M262.88782,233.52876c-0.59128,0.04192 -2.63652,0.2006 -4.69732,0.26594c-1.25291,0.03974 -1.94109,-0.48172 -2.88222,-0.5582c-1.18484,-0.09627 -2.91559,0.42772 -3.77625,0.29675c-1.58589,-0.24134 -2.42369,-0.60795 -2.42369,-0.60795c0,0 -0.34095,-1.0038 -0.39702,-1.56164c-0.07554,-0.75155 -0.01549,-2.54229 -0.01549,-2.54229c0,0 5.91094,-0.53892 8.23419,-0.50279c1.37473,0.02137 4.27569,0.3453 4.27569,0.3453c0,0 1.49964,0.51084 1.74292,0.92189c0.29796,0.50343 1.01151,1.92193 1.01151,1.92193c0,0 -0.24753,1.96257 -1.07235,2.02105z" data-paper-data="{&quot;index&quot;:null}" fill="#141415" stroke="#000000" stroke-width="0" stroke-linecap="butt"/><path d="M262.43552,230.97955c-0.2476,0.01756 0.8139,1.54797 -2.51727,1.51492c-3.1457,-0.0312 -2.85356,-0.98891 -3.96091,-0.99121c-2.31551,-0.00481 -2.53909,0.77653 -3.54708,0.69462c-0.35105,-0.02852 -0.51953,-0.078 -1.84875,-0.84172c-0.91416,-0.52524 -0.78784,-1.69976 -1.4305,-2.28385c-0.93877,-0.8532 -0.9398,-1.82391 -0.9398,-1.82391l-0.2917,-3.0347c0,0 0.64118,2.16689 1.53632,2.92991c0.8009,0.68269 2.30977,-0.18255 2.79223,-0.2169c0.84482,-0.06014 -0.91823,-3.21114 -0.10921,-3.25022c0.43501,-0.02101 3.69688,-0.49675 3.69688,-0.49675c0,0 0.37587,3.56223 0.60967,3.56586c1.37473,0.02137 4.63855,0.31958 4.63855,0.31958c0,0 1.49964,0.51083 1.74293,0.92188c0.29796,0.50343 0.8382,2.90674 0.8382,2.90674c0,0 -0.38473,0.02728 -1.20956,0.08574z" data-paper-data="{&quot;index&quot;:null}" fill="#252527" stroke="#000000" stroke-width="0" stroke-linecap="butt"/><path d="M257.36016,227.29931l-2.58384,1.27724" fill="none" stroke="#ffffff" stroke-width="0.5" stroke-linecap="round"/><path d="M256.73735,228.80224l2.43717,-1.63155" fill="none" stroke="#ffffff" stroke-width="0.5" stroke-linecap="round"/><path d="M260.28027,227.33541l-1.34858,1.55437" fill="none" stroke="#ffffff" stroke-width="0.5" stroke-linecap="round"/><path d="M253.29237,224.79174l2.16004,-0.39627" fill="none" stroke="#969696" stroke-width="0.5" stroke-linecap="round"/><path d="M255.74579,225.10405l-1.90957,0.50007" fill="none" stroke="#969696" stroke-width="0.5" stroke-linecap="round"/></g><g><path d="M221.00555,225.17955l10.13962,-32.36801c0,0 10.50502,0.09664 12.12339,1.16734c0.88723,0.58698 -0.22292,1.85699 -2.0639,2.6292c-1.50777,0.63244 -3.73236,0.80295 -3.84515,1.06787c-1.75866,4.13081 -8.4987,29.0349 -8.4987,29.0349z" fill="#494949" stroke="#000000" stroke-width="0" stroke-linecap="butt"/><path d="M233.77906,232.82154c0,0 -0.71295,1.83769 -1.44557,1.69487c-0.52518,-0.10238 -2.34524,-0.44327 -4.15516,-0.87816c-1.10037,-0.2644 -1.56704,-0.9349 -2.36666,-1.23631c-1.00668,-0.37945 -2.64565,-0.29112 -3.36141,-0.62577c-1.31891,-0.61662 -1.95505,-1.17357 -1.95505,-1.17357c0,0 -0.04223,-1.05293 0.05038,-1.60583c0.12478,-0.74488 0.63102,-2.46176 0.63102,-2.46176c0,0 5.28046,0.90756 7.29308,1.50399c1.19093,0.35293 3.63328,1.36725 3.63328,1.36725c0,0 1.17551,0.85635 1.28305,1.31257c0.13167,0.55876 0.393,2.1027 0.393,2.1027z" data-paper-data="{&quot;index&quot;:null}" fill="#141415" stroke="#000000" stroke-width="0" stroke-linecap="butt"/><path d="M233.66049,232.15184c0,0 -0.34171,-0.06661 -1.07433,-0.20942c-0.21994,-0.04288 0.31585,1.69337 -2.57465,0.8563c-2.72958,-0.79047 -2.23254,-1.64581 -3.19561,-1.91567c-2.01378,-0.56428 -2.40643,0.13712 -3.26287,-0.18571c-0.29824,-0.11242 -0.43233,-0.20097 -1.39542,-1.26063c-0.66237,-0.72877 -0.25469,-1.83384 -0.66589,-2.55389c-0.60067,-1.05182 -0.35546,-1.99059 -0.35546,-1.99059l0.51547,-3.00461c0,0 0.00865,2.25005 0.59419,3.20413c0.52388,0.85362 2.0563,0.38175 2.48485,0.46515c0.75043,0.14605 0.015,-3.32664 0.72895,-3.16888c0.38388,0.08483 3.34305,0.4132 3.34305,0.4132c0,0 -0.57598,3.53498 -0.37343,3.595c1.19091,0.35292 3.95557,1.43007 3.95557,1.43007c0,0 1.17551,0.85635 1.28305,1.31257c0.13168,0.55877 -0.00747,3.01298 -0.00747,3.01298z" data-paper-data="{&quot;index&quot;:null}" fill="#252527" stroke="#000000" stroke-width="0" stroke-linecap="butt"/><path d="M226.53008,227.76791l2.57234,-0.61043" fill="none" stroke="#ffffff" stroke-width="0.5" stroke-linecap="round"/><path d="M230.71391,227.47163l-2.53451,0.98843" fill="none" stroke="#ffffff" stroke-width="0.5" stroke-linecap="round"/><path d="M231.63442,227.89815l-1.56762,1.17693" fill="none" stroke="#ffffff" stroke-width="0.5" stroke-linecap="round"/><path d="M226.19822,223.74988l1.9802,0.13894" fill="none" stroke="#969696" stroke-width="0.5" stroke-linecap="round"/><path d="M228.25406,224.64481l-1.78851,0.02198" fill="none" stroke="#969696" stroke-width="0.5" stroke-linecap="round"/></g><g stroke="#000000" stroke-width="0" stroke-linecap="butt"><path d="M240.03498,185.49414c0,0 1.96206,-2.29695 3.29365,-5.54357c0.32022,-0.78073 1.52708,-3.26158 1.84872,-4.0664c0.76126,-1.90478 1.45336,-3.8171 1.94658,-4.97501c1.06084,-2.49045 2.47206,-5.61759 2.47206,-5.61759c0,0 2.90608,-6.06438 3.88705,-5.7874c5.73705,1.61987 1.25378,7.73728 1.25378,7.73728c0,0 -1.94812,4.49506 -3.07599,7.14291c-0.45902,1.0776 -1.31806,1.67438 -2.08932,3.31883c-0.34574,0.73716 -2.23862,3.705 -3.31621,5.56625c-1.79415,3.0989 -2.57369,5.145 -2.57369,5.145z" data-paper-data="{&quot;index&quot;:null}" fill="#bdbdbd"/><path d="M241.40708,192.32751c-0.16378,-0.12578 -1.91506,3.19294 -2.64501,2.7163c-0.35902,-0.23444 1.22076,-2.11161 1.14092,-3.12921c-0.04225,-0.53865 -1.89041,3.85506 -2.61046,2.86441c-0.2472,-0.34011 1.75337,-3.14162 1.82296,-4.0558c0.03726,-0.48937 -2.62385,4.51566 -3.13061,3.89161c-0.30083,-0.37044 1.66985,-2.83374 2.12765,-4.19812c0.22303,-0.66469 -2.28785,3.12626 -2.58849,2.56933c-0.18402,-0.34092 2.08644,-4.16 2.0806,-4.22201c-0.03285,-0.34853 -2.02504,1.59645 -1.91715,0.90495c0.19885,-1.27443 1.71857,-2.0259 3.02553,-2.80299c0.76361,-0.45403 1.39758,-1.45005 1.39758,-1.45005c0,0 1.60463,0.4105 2.22029,0.90354c0.59945,0.48005 1.42634,2.01678 1.42634,2.01678c0,0 -2.00317,4.25775 -2.35012,3.99129z" data-paper-data="{&quot;index&quot;:null}" fill="#5c4747"/></g><g stroke-width="0" stroke-linecap="butt"><path d="M235.91979,163.41937v-6.85104h7.65615v6.85104z" fill="url(#color-2)" stroke="#000000"/><path d="M252.80944,144.14573c0,7.73092 -5.73774,13.99807 -12.8156,13.99807c-7.07786,0 -12.8156,-6.26715 -12.8156,-13.99807c0,-7.73092 5.73774,-13.99806 12.8156,-13.99806c7.07786,0 12.8156,6.26714 12.8156,13.99806z" fill="url(#color-3)" stroke="none"/><path d="M253.91261,142.97429c0,4.88691 0.03443,10.71868 -8.60517,11.34206c-9.65195,0.69642 -9.06107,-6.45514 -9.06107,-11.34206c0,-4.88691 3.95473,-8.84854 8.83313,-8.84854c4.8784,0 8.83313,3.96163 8.83313,8.84854z" data-paper-data="{&quot;index&quot;:null}" fill="url(#color-4)" stroke="#ed6b00"/></g><g stroke-width="0" stroke-linecap="butt"><path d="M229.63979,193.59141c0,0 0.16709,-5.5597 -0.35268,-10.94382c-0.35317,-3.65847 -1.40473,-6.95919 -1.56162,-9.45339c-0.29447,-4.68133 -0.2105,-13.38223 -0.2105,-13.38223c0,0 3.69178,-0.58477 5.4694,-0.21857c2.26281,0.46615 7.00656,2.78867 7.00656,2.78867c0,0 3.67689,-2.17061 5.59031,-2.58687c2.01891,-0.43921 6.22369,0.01677 6.22369,0.01677c0,0 -0.06905,9.21711 -0.22689,12.65629c-0.13965,3.04285 -0.88957,6.36811 -1.18346,10.87293c-0.3029,4.64296 -0.14784,10.42155 -0.14784,10.42155c0,0 -2.75697,-0.76932 -5.57187,-0.83754c-1.27833,-0.03098 -1.79126,1.00612 -2.99851,1.16532c-0.96496,0.12724 -2.63623,-0.61291 -3.56107,-0.64966c-0.69915,-0.02778 -2.04377,-0.5306 -2.53801,-0.53471c-0.99795,-0.0083 -1.61572,0.86529 -2.77345,1.02464c-1.34484,0.1851 -3.1641,-0.33939 -3.1641,-0.33939z" fill="#d0d0d0" stroke="#292e32"/><path d="M245.9343,170.5071l-0.06967,-5.82045l4.38934,0.36378v5.21415z" fill="#ff0000" stroke="none"/></g><g stroke="#000000" stroke-width="0" stroke-linecap="butt"><path d="M237.22525,188.43123c0,0 -0.88386,-2.02155 -2.94256,-4.95143c-1.23648,-1.75971 -3.41307,-4.52811 -3.80765,-5.24248c-0.88024,-1.59363 -1.87941,-2.04745 -2.40178,-3.10172c-1.28358,-2.59049 -3.50178,-6.98101 -3.50178,-6.98101c0,0 -5.2647,-5.9428 1.72391,-9.06977c1.11568,-0.49919 4.33946,5.87838 4.33946,5.87838c0,0 1.60883,3.0424 2.81609,5.47889c0.5613,1.13282 1.34456,3.03007 2.20912,4.90436c0.3653,0.79192 1.7441,3.18677 2.10807,3.95324c1.51355,3.18733 3.78152,5.22306 3.78152,5.22306z" fill="#bdbdbd"/><path d="M240.00501,192.28223c-0.41038,0.36069 -2.70698,-3.75844 -2.70698,-3.75844c0,0 0.98936,-1.82438 1.69864,-2.46862c0.72846,-0.66167 2.6161,-1.4505 2.6161,-1.4505c0,0 0.73125,0.92757 1.6214,1.24698c1.52352,0.5467 3.29697,1.01961 3.51424,2.33988c0.11791,0.71636 -2.19484,-0.93062 -2.23775,-0.55055c-0.00763,0.06762 2.60804,3.65916 2.38788,4.06402c-0.35967,0.66139 -3.25776,-2.84767 -3.00446,-2.18508c0.51993,1.36007 2.80093,3.56631 2.44337,4.02821c-0.60234,0.77811 -3.66143,-3.99723 -3.62386,-3.48173c0.07016,0.96296 2.38198,3.52456 2.08771,3.94232c-0.85717,1.21683 -2.9702,-3.08155 -3.02654,-2.49601c-0.10642,1.10618 1.72334,2.77045 1.29921,3.09952c-0.86232,0.66902 -2.87521,-2.50028 -3.06892,-2.33001z" data-paper-data="{&quot;index&quot;:null}" fill="#5c4747"/></g></g></g></svg>