<svg version="1.1" xmlns="http://www.w3.org/2000/svg" xmlns:xlink="http://www.w3.org/1999/xlink" width="619.063" height="471.58011" viewBox="0,0,619.063,471.58011"><defs><radialGradient cx="240" cy="180.00003" r="250.5" gradientUnits="userSpaceOnUse" id="color-1"><stop offset="0" stop-color="#949494"/><stop offset="1" stop-color="#7d7d7d"/></radialGradient><radialGradient cx="243.51172" cy="115.5508" r="114.5" gradientUnits="userSpaceOnUse" id="color-2"><stop offset="0" stop-color="#484848"/><stop offset="1" stop-color="#3a3a3a"/></radialGradient><radialGradient cx="313.80117" cy="294.91333" r="270.53072" gradientUnits="userSpaceOnUse" id="color-3"><stop offset="0" stop-color="#4d4d4d"/><stop offset="1" stop-color="#3c3c3c"/></radialGradient><radialGradient cx="228.97824" cy="289.72909" r="66" gradientUnits="userSpaceOnUse" id="color-4"><stop offset="0" stop-color="#2a2a2a"/><stop offset="1" stop-color="#2a2a2a"/></radialGradient><radialGradient cx="222.20341" cy="294.86247" r="66" gradientUnits="userSpaceOnUse" id="color-5"><stop offset="0" stop-color="#1d1d1d"/><stop offset="1" stop-color="#1b1b1b"/></radialGradient><radialGradient cx="349.5834" cy="454.2388" r="249.95744" gradientUnits="userSpaceOnUse" id="color-6"><stop offset="0" stop-color="#222222"/><stop offset="1" stop-color="#202020"/></radialGradient><radialGradient cx="308.17227" cy="315.18154" r="65" gradientUnits="userSpaceOnUse" id="color-7"><stop offset="0" stop-color="#090909"/><stop offset="1" stop-color="#080808"/></radialGradient><radialGradient cx="465.65055" cy="218.71996" r="26.5" gradientUnits="userSpaceOnUse" id="color-8"><stop offset="0" stop-color="#525252"/><stop offset="1" stop-color="#424242"/></radialGradient><radialGradient cx="389.18019" cy="263.01041" r="84" gradientUnits="userSpaceOnUse" id="color-9"><stop offset="0" stop-color="#1d1d1d"/><stop offset="1" stop-color="#1b1b1b"/></radialGradient><radialGradient cx="423.82281" cy="229.41893" r="44.75" gradientUnits="userSpaceOnUse" id="color-10"><stop offset="0" stop-color="#3a3a3a"/><stop offset="1" stop-color="#2f2f2f"/></radialGradient><radialGradient cx="376.45226" cy="269.17481" r="48.5" gradientUnits="userSpaceOnUse" id="color-11"><stop offset="0" stop-color="#343434"/><stop offset="1" stop-color="#262626"/></radialGradient><radialGradient cx="333.55169" cy="245.02495" r="26.25" gradientUnits="userSpaceOnUse" id="color-12"><stop offset="0" stop-color="#121212"/><stop offset="1" stop-color="#161616"/></radialGradient><radialGradient cx="315.50967" cy="312.64928" r="65" gradientUnits="userSpaceOnUse" id="color-13"><stop offset="0" stop-color="#101010"/><stop offset="1" stop-color="#111111"/></radialGradient><radialGradient cx="483.58941" cy="200.60374" r="36.25" gradientUnits="userSpaceOnUse" id="color-14"><stop offset="0" stop-color="#313131"/><stop offset="1" stop-color="#1b1b1b"/></radialGradient><radialGradient cx="374.11467" cy="343.70192" r="26.25" gradientUnits="userSpaceOnUse" id="color-15"><stop offset="0" stop-color="#121212"/><stop offset="1" stop-color="#161616"/></radialGradient><radialGradient cx="110.52591" cy="173.05657" r="57.27136" gradientUnits="userSpaceOnUse" id="color-16"><stop offset="0" stop-color="#33266a"/><stop offset="1" stop-color="#949074"/></radialGradient><linearGradient x1="116.26378" y1="112.80081" x2="115.5864" y2="130.17092" gradientUnits="userSpaceOnUse" id="color-17"><stop offset="0" stop-color="#694444"/><stop offset="1" stop-color="#98a1b9"/></linearGradient><radialGradient cx="110.15175" cy="54.6535" r="33.28545" gradientUnits="userSpaceOnUse" id="color-18"><stop offset="0" stop-color="#dcdcdc"/><stop offset="1" stop-color="#a0a0a0"/></radialGradient><radialGradient cx="96.75208" cy="53.0024" r="25.55275" gradientUnits="userSpaceOnUse" id="color-19"><stop offset="0" stop-color="#1c2f30"/><stop offset="1" stop-color="#142913"/></radialGradient><radialGradient cx="139.20738" cy="52.63031" r="6.72592" gradientUnits="userSpaceOnUse" id="color-20"><stop offset="0" stop-color="#786c41"/><stop offset="1" stop-color="#141a29"/></radialGradient><radialGradient cx="110.38348" cy="52.89894" r="10.58856" gradientUnits="userSpaceOnUse" id="color-21"><stop offset="0" stop-color="#7ba676"/><stop offset="1" stop-color="#291616"/></radialGradient><radialGradient cx="118.62327" cy="76.35552" r="25.00169" gradientUnits="userSpaceOnUse" id="color-22"><stop offset="0" stop-color="#d1ffc4"/><stop offset="1" stop-color="#2188ff"/></radialGradient><radialGradient cx="118.62327" cy="76.35552" r="25.00169" gradientUnits="userSpaceOnUse" id="color-23"><stop offset="0" stop-color="#ceffc4"/><stop offset="1" stop-color="#ff21cc"/></radialGradient><radialGradient cx="118.62327" cy="76.35552" r="25.00169" gradientUnits="userSpaceOnUse" id="color-24"><stop offset="0" stop-color="#ffe9c4"/><stop offset="1" stop-color="#4fff21"/></radialGradient><radialGradient cx="118.62327" cy="76.35552" r="25.00169" gradientUnits="userSpaceOnUse" id="color-25"><stop offset="0" stop-color="#ffe9c4"/><stop offset="1" stop-color="#4fff21"/></radialGradient><radialGradient cx="118.62321" cy="76.35555" r="25.00169" gradientUnits="userSpaceOnUse" id="color-26"><stop offset="0" stop-color="#ffe9c4"/><stop offset="1" stop-color="#ffa321"/></radialGradient><radialGradient cx="118.62317" cy="76.35555" r="25.00169" gradientUnits="userSpaceOnUse" id="color-27"><stop offset="0" stop-color="#c4f0ff"/><stop offset="1" stop-color="#3d21ff"/></radialGradient><linearGradient x1="-11.98828" y1="179.28453" x2="150.92969" y2="179.28453" gradientUnits="userSpaceOnUse" id="color-28"><stop offset="0" stop-color="#7d7d7d"/><stop offset="1" stop-color="#818181"/></linearGradient></defs><g transform="translate(11.98828,8.48171)"><g data-paper-data="{&quot;isPaintingLayer&quot;:true}" fill-rule="nonzero" stroke-linejoin="miter" stroke-miterlimit="10" stroke-dasharray="" stroke-dashoffset="0" style="mix-blend-mode: normal"><path d="M-10.5,368.00001v-376h501v376z" fill="url(#color-1)" stroke="none" stroke-width="0" stroke-linecap="butt"/><path d="M55.63703,350.09237c-3.89444,-35.12313 -28.86024,-260.28391 -28.86024,-260.28391c0,0 6.13498,-58.73673 90.38049,-83.32369c88.94305,-19.99889 123.11201,33.7383 123.11201,33.7383c0,0 65.07454,148.36123 76.16367,173.64299c3.0985,7.06417 1.47154,14.99796 -6.00481,17.45295c-24.82515,8.15175 -82.74364,27.48408 -119.81421,42.36863c-36.09995,14.49483 -99.11668,64.98273 -123.29164,84.94994c-6.18411,5.10773 -10.69693,0.36836 -11.68526,-8.54521z" fill="#000000" stroke="none" stroke-width="NaN" stroke-linecap="butt"/><path d="M165.01172,165.05081l-2,-164c0,0 26.59426,3.29414 40.84201,7.29545c21.80408,6.12342 42.158,33.70455 42.158,33.70455c0,0 56.32326,135.7535 68.65762,165.48248c4.54989,10.96641 3.54663,20.14819 -2.69066,17.59835c-21.79808,-8.91117 -146.96696,-60.08083 -146.96696,-60.08083z" fill="url(#color-2)" stroke="none" stroke-width="0" stroke-linecap="butt"/><path d="M605.69258,270.32998c14.79035,54.92892 -90.81001,131.12039 -235.86501,170.17842c-145.055,39.05803 -274.63528,26.19214 -289.42563,-28.73678c-14.79036,-54.92892 90.81,-131.1204 235.86501,-170.17843c145.05501,-39.05803 274.63528,-26.19213 289.42564,28.73679z" fill="url(#color-3)" stroke="none" stroke-width="NaN" stroke-linecap="butt"/><g data-paper-data="{&quot;index&quot;:null}"><path d="M221.7213,237.51417l18.63568,7.20842l33.462,93.83653l-22.25925,-11.99065z" fill="url(#color-4)" stroke="none" stroke-width="0" stroke-linecap="butt"/><path d="M252.45332,325.26406l21.46221,12.59458l-6.87139,5.83387l-22.95973,-12.08721z" fill="url(#color-5)" stroke="none" stroke-width="0" stroke-linecap="butt"/><path d="M243.98785,332.3058l-29.01224,-87.79835l7.58732,-5.8825l30.00994,86.54853z" data-paper-data="{&quot;index&quot;:null}" fill="url(#color-6)" stroke="none" stroke-width="0" stroke-linecap="butt"/><path d="M226.6818,241.0668l49.6744,5.71874l-37.99309,0.88027" fill="none" stroke="#747474" stroke-width="1.5" stroke-linecap="round"/><path d="M255.92492,322.04882l55.24453,10.40635l-43.1397,-2.28397" fill="none" stroke="#747474" stroke-width="1.5" stroke-linecap="round"/><path d="M261.55145,288.70273c-6.53341,-17.0944 -5.97747,-42.56344 -2.56125,-48.30337c2.17588,-3.65591 19.20595,5.0226 28.79083,9.47131c7.94194,3.68615 20.28707,15.94247 20.28707,15.94247l45.54771,97.12701c0,0 -20.99459,-3.76071 -30.44393,-7.83954c-9.80806,-4.23367 -25.97957,-9.11744 -30.68559,-14.8801c-4.67276,-5.72192 -24.85768,-35.61715 -30.93484,-51.51779z" fill="url(#color-7)" stroke="none" stroke-width="0" stroke-linecap="butt"/><path d="M447.24607,198.5637l11.4751,-7.12896l27.95706,45.07108l-12.43968,8.3818z" fill="url(#color-8)" stroke="none" stroke-width="0" stroke-linecap="butt"/><path d="M314.43797,263.93278l123.01751,-82.28573l54.9052,82.38124l-141.83002,91.94697z" fill="url(#color-9)" stroke="none" stroke-width="0" stroke-linecap="butt"/><path d="M386.04112,216.89275l43.80938,-30.72438l47.9381,75.62035l-47.68542,32.13022z" fill="url(#color-10)" stroke="none" stroke-width="0" stroke-linecap="butt"/><path d="M321.12863,270.87994l69.10339,-47.76737l35.25675,63.06316l-75.46736,50.84956z" fill="url(#color-11)" stroke="none" stroke-width="0" stroke-linecap="butt"/><path d="M299.11864,250.74142c0,0 17.84291,-8.94866 28.21866,-11.42355c8.73093,-2.08255 31.61593,-3.57052 31.61593,-3.57052l-43.12421,29.0569z" fill="url(#color-12)" stroke="none" stroke-width="0" stroke-linecap="butt"/><path d="M268.88886,286.17044c-6.53341,-17.0944 -10.41229,-41.98691 -6.99608,-47.72684c2.17588,-3.65591 23.64077,4.44607 33.22565,8.89478c7.94194,3.68615 20.28707,15.94247 20.28707,15.94247l42.23047,99.36215c0,0 -17.67735,-5.99585 -27.12668,-10.07468c-9.80806,-4.23367 -25.97957,-9.11744 -30.68559,-14.8801c-4.67276,-5.72192 -24.85768,-35.61715 -30.93484,-51.51779z" fill="url(#color-13)" stroke="none" stroke-width="0" stroke-linecap="butt"/><path d="M449.82493,187.1795l31.23445,-21.64854l44.65857,57.33116l-34.41643,23.18963z" fill="url(#color-14)" stroke="none" stroke-width="0" stroke-linecap="butt"/><path d="M335.68806,355.12375c0,0 20.54692,-17.4247 32.57751,-22.08748c10.09842,-3.91392 30.79164,-7.34635 30.79164,-7.34635l-43.07987,38.07066z" fill="url(#color-15)" stroke="none" stroke-width="0" stroke-linecap="butt"/></g><g><path d="M73.11063,230.69709l-1.12137,-114.53718l75.95204,-0.74352l1.12137,114.53718z" fill="url(#color-16)" stroke="#ed6b00" stroke-width="0" stroke-linecap="butt"/><path d="M105.88065,129.79254l0.67737,-17.37016l19.41148,0.75688l-0.67737,17.37016z" fill="url(#color-17)" stroke="#000000" stroke-width="0" stroke-linecap="butt"/><g><path d="M156.49327,282.8775c0,0 -26.98618,-59.64176 -33.06708,-69.27469c-1.98841,-3.14975 -9.42724,-0.64686 -9.42724,-0.64686c0,0 -10.91979,-7.4519 -2.28078,-10.63601c7.30141,-2.69108 25.29905,-3.42231 25.29905,-3.42231l38.52929,76.95723z" data-paper-data="{&quot;index&quot;:null}" fill="#4a433c" stroke="#000000" stroke-width="0" stroke-linecap="butt"/><path d="M195.40324,287.479c-1.41128,0.52034 -6.28321,2.35267 -11.25856,3.96869c-3.02527,0.98242 -5.07051,0.19819 -7.41816,0.67713c-2.95529,0.6027 -6.80263,3.10343 -8.99243,3.3927c-4.03535,0.53301 -6.33596,0.23173 -6.33596,0.23173c0,0 -1.54045,-2.20528 -2.07133,-3.52486c-0.71533,-1.77806 -1.83495,-6.18417 -1.83495,-6.18417c0,0 14.02315,-5.49203 19.71025,-7.04628c3.36518,-0.91964 10.66355,-2.18127 10.66355,-2.18127c0,0 4.01565,0.18462 4.89898,1.01451c1.08229,1.01605 3.82352,3.96827 3.82352,3.96827c0,0 0.78416,4.95743 -1.18444,5.68303z" data-paper-data="{&quot;index&quot;:null}" fill="#140d0d" stroke="#000000" stroke-width="0" stroke-linecap="butt"/><path d="M192.49913,281.58695c-0.59096,0.2178 3.07742,3.19678 -5.06324,5.47103c-7.68778,2.14788 -7.6526,-0.39262 -10.35298,0.3847c-5.64607,1.62529 -5.63842,3.68725 -8.15275,4.20034c-0.87574,0.17867 -1.32099,0.17726 -5.09998,-0.74429c-2.59902,-0.63364 -3.12141,-3.58527 -5.10046,-4.55435c-2.8909,-1.41543 -3.57955,-3.78038 -3.57955,-3.78038l-2.85613,-7.18891c0,0 3.09419,4.82721 5.8151,6.05353c2.43434,1.09746 5.49951,-2.0778 6.65097,-2.50258c2.01624,-0.74373 -4.50782,-7.17602 -2.56382,-7.84309c1.0452,-0.35887 8.65762,-3.82403 8.65762,-3.82403c0,0 3.43425,8.41501 4.00644,8.25849c3.36518,-0.91964 11.52959,-2.50026 11.52959,-2.50026c0,0 4.01565,0.18462 4.8989,1.0143c1.08229,1.01605 4.09763,6.49057 4.09763,6.49057c0,0 -0.91831,0.33872 -2.88689,1.06414z" data-paper-data="{&quot;index&quot;:null}" fill="#1f261f" stroke="#000000" stroke-width="0" stroke-linecap="butt"/><path d="M177.5292,276.20634l-5.39359,4.93914" fill="none" stroke="#ffb5b5" stroke-width="0.5" stroke-linecap="round"/><path d="M177.0741,280.30931l4.78583,-5.69873" fill="none" stroke="#bffdff" stroke-width="0.5" stroke-linecap="round"/><path d="M182.4833,278.97125l2.18734,-4.74079" fill="none" stroke="#eaffc1" stroke-width="0.5" stroke-linecap="round"/><path d="M170.82787,270.47893l-4.98357,2.49259" fill="none" stroke="#8d967b" stroke-width="0.5" stroke-linecap="round"/><path d="M172.04331,271.99832l-4.29976,2.56861" fill="none" stroke="#767796" stroke-width="0.5" stroke-linecap="round"/></g><g data-paper-data="{&quot;index&quot;:null}" stroke="#000000" stroke-width="0" stroke-linecap="butt"><path d="M43.65108,183.09815c0,0 2.89613,-5.29287 5.79319,-14.64653c1.74002,-5.61809 4.09051,-14.95664 4.9763,-17.00525c1.97617,-4.56947 1.28757,-7.49017 2.69519,-10.38337c1.15003,-2.36368 6.31882,-14.72369 14.01528,-17.80853c15.45082,-6.19289 23.54723,7.6653 17.68365,13.00455c-4.27109,8.04893 -9.5585,1.02837 -12.68017,4.11047c-4.32617,4.27138 -5.97062,14.55917 -7.48652,17.46608c-1.10276,2.11455 -3.28096,9.09796 -4.33084,11.16722c-4.36591,8.6046 -4.97794,16.9161 -4.97794,16.9161z" fill="#b8bda6"/><path d="M40.38113,195.00992c1.46047,-5.09053 3.19165,-11.59946 3.19165,-11.59946c0,0 5.60179,-0.91004 8.18187,-0.45239c2.64987,0.46967 7.51299,3.2351 7.51299,3.2351c0,0 -0.78448,3.13329 0.01323,5.59372c0.75233,2.32113 2.65084,8.91933 -1.26164,7.99176c-1.49577,-0.35463 -0.0746,-2.48124 -0.4759,-2.23776c-0.0444,0.02691 -1.72111,10.36296 -4.67897,8.98758c-3.2731,-1.52194 -0.19351,-7.54692 -0.41758,-7.17969c-2.07337,3.39922 -1.59275,7.36568 -4.1713,6.14091c-4.75816,-0.89236 2.06766,-8.72451 1.015,-7.78134c-1.96623,1.76223 -2.76586,6.38291 -5.71228,5.777c-5.52518,-0.91946 2.37418,-6.24736 1.01277,-5.38999c-2.57169,1.61934 -2.84383,3.90598 -6.15584,2.34734c-1.12842,-0.285 1.19457,-2.81359 1.94601,-5.43279z" data-paper-data="{&quot;index&quot;:null}" fill="#786274"/></g><g data-paper-data="{&quot;index&quot;:null}" stroke="#000000" stroke-width="0" stroke-linecap="butt"><path d="M164.8768,210.14228c0,0 0.69814,-7.29634 -1.81482,-15.4018c-0.60431,-1.94924 -2.06477,-8.43277 -2.70818,-10.42905c-1.52269,-4.72456 -3.59426,-9.23308 -4.44608,-12.15195c-1.83212,-6.27782 -6.06047,-14.51623 -6.06047,-14.51623c0,0 -17.63998,-31.35315 -3.5019,-34.98174c9.73106,-6.1806 12.60611,8.59279 17.60837,22.10787c4.1952,11.33461 7.34751,22.74208 7.74971,24.12042c0.79263,2.71642 1.49647,7.8391 2.53417,12.09287c0.46504,1.90707 1.1223,10.35085 1.80025,15.47883c1.12886,8.53768 2.85721,13.5546 2.85721,13.5546z" fill="#b8bda6"/><path d="M180.62164,221.16907c-0.6202,0.01431 0.97985,8.90111 -1.6359,9.12173c-1.2866,0.10854 -0.75896,-5.81673 -2.7491,-7.60088c-1.05355,-0.94461 2.20808,10.1035 -1.2907,9.3463c-1.2011,-0.25992 -1.2823,-8.55817 -2.72647,-10.37666c-0.77314,-0.97332 1.59107,12.45947 -0.74211,12.06357c-1.38505,-0.23516 -0.94182,-7.85441 -2.23686,-11.10799c-0.63113,-1.58505 -0.04435,9.34461 -1.75797,8.76c-1.04882,-0.35785 -2.26957,-10.97372 -2.39329,-11.0809c-0.69508,-0.60263 -2.10536,6.07871 -3.06345,4.61888c-1.7658,-2.69019 0.60203,-6.41557 2.40778,-9.86434c1.05537,-2.01521 0.83844,-4.84765 0.83844,-4.84765c0,0 4.62506,-1.67861 6.99188,-1.69403c2.30453,-0.01535 7.0266,1.60183 7.0266,1.60183c0,0 2.64464,11.02979 1.33119,11.05983z" data-paper-data="{&quot;index&quot;:null}" fill="#786274"/></g><g><path d="M98.01195,295.06759l-7.15617,-85.76528c0,0 15.7483,-8.74336 23.38329,-10.24565c9.03406,-1.7778 3.58872,10.26902 3.58872,10.26902c0,0 -7.65466,1.73453 -7.713,5.45917c-0.17827,11.39002 7.82147,76.3623 7.82147,76.3623z" fill="#413a4a" stroke="#000000" stroke-width="0" stroke-linecap="butt"/><path d="M138.87022,300.10412c0,0 -0.00977,5.01925 -2.06842,5.42424c-1.4757,0.2905 -6.57592,1.32928 -11.74485,2.13806c-3.14235,0.49175 -5.03823,-0.60605 -7.43178,-0.50466c-3.01365,0.12797 -7.20769,1.98835 -9.41584,1.92765c-4.06872,-0.11173 -6.29265,-0.77315 -6.29265,-0.77315c0,0 -1.17233,-2.4209 -1.48807,-3.80798c-0.42539,-1.869 -0.83371,-6.39635 -0.83371,-6.39635c0,0 14.71503,-3.20492 20.57663,-3.84031c3.46844,-0.3759 10.87408,-0.46743 10.87408,-0.46743c0,0 3.93568,0.8174 4.67685,1.77658c0.90771,1.17455 3.1478,4.52333 3.1478,4.52333z" data-paper-data="{&quot;index&quot;:null}" fill="#12140d" stroke="#000000" stroke-width="0" stroke-linecap="butt"/><path d="M137.88486,298.65698c0,0 -0.96021,0.18905 -3.01887,0.59423c-0.61811,0.12182 2.53333,3.6434 -5.86516,4.6015c-7.93096,0.90477 -7.49423,-1.59819 -10.28343,-1.25754c-5.8318,0.71201 -6.15077,2.74895 -8.71429,2.85809c-0.89289,0.038 -1.33245,-0.0343 -4.91831,-1.54165c-2.4659,-1.03668 -2.51514,-4.03387 -4.3161,-5.30361c-2.63052,-1.85506 -2.93675,-4.2989 -2.93675,-4.2989l-1.68328,-7.55003c0,0 2.29177,5.25581 4.78439,6.89732c2.2302,1.46864 5.75875,-1.1817 6.96284,-1.41911c2.1084,-0.41542 -3.31589,-7.7985 -1.29111,-8.14987c1.08885,-0.18893 9.15355,-2.40655 9.15355,-2.40655c0,0 2.06003,8.85213 2.64999,8.78825c3.46835,-0.37607 11.77965,-0.64548 11.77965,-0.64548c0,0 3.93568,0.8174 4.67685,1.77658c0.90771,1.17455 3.01931,7.05712 3.01931,7.05712z" data-paper-data="{&quot;index&quot;:null}" fill="#1e1e26" stroke="#000000" stroke-width="0" stroke-linecap="butt"/><path d="M120.93558,291.57089l-6.10672,4.02384" fill="none" stroke="#c1ffce" stroke-width="0.5" stroke-linecap="round"/><path d="M119.83712,295.55005l5.6267,-4.87009" fill="none" stroke="#eaffc1" stroke-width="0.5" stroke-linecap="round"/><path d="M128.29961,290.74892l-2.9097,4.33547" fill="none" stroke="#ffb5b5" stroke-width="0.5" stroke-linecap="round"/><path d="M109.90933,286.52869l5.31489,-1.6731" fill="none" stroke="#7d967f" stroke-width="0.5" stroke-linecap="round"/><path d="M111.53252,288.40411l4.65175,-1.85606" fill="none" stroke="#966262" stroke-width="0.5" stroke-linecap="round"/></g><path d="M89.14332,208.05459c0,0 0.73108,-14.09422 -0.2902,-27.78079c-0.69392,-9.29988 -3.17901,-17.73127 -3.43908,-24.06697c-0.48825,-11.89172 0.20505,-33.95868 0.20505,-33.95868c0,0 9.39731,-1.27956 13.88632,-0.2523c5.71451,1.30749 17.61967,7.46116 17.61967,7.46116c0,0 9.44705,-5.3031 14.32379,-6.25355c5.14573,-1.00263 15.78697,0.3863 15.78697,0.3863c0,0 -0.68418,23.37747 -1.27444,32.09285c-0.52235,7.71126 -2.60845,16.10487 -3.60247,27.51613c-1.02476,11.76113 -0.95046,26.42837 -0.95046,26.42837c0,0 -6.95116,-2.10368 -14.08804,-2.4323c-3.24113,-0.14924 -4.59957,2.45338 -7.6707,2.7904c-2.45476,0.26966 -6.65331,-1.7005 -8.99764,-1.84455c-1.77204,-0.10899 -5.15517,-1.45892 -6.40883,-1.49657c-2.53109,-0.07618 -4.14635,2.10584 -7.09204,2.44586c-3.42156,0.39528 -8.00743,-1.0358 -8.00743,-1.0358z" fill="#d1b0b0" stroke="#292e32" stroke-width="0" stroke-linecap="butt"/><g stroke="none" stroke-width="0" stroke-linecap="butt"><path d="M123.63946,150.21929l0.01406,-14.77136l19.35867,1.34489l-0.28806,13.22676z" fill="#f200ff"/><path d="M123.65349,135.44794l10.15916,0.70577c0.82772,1.6272 1.91962,3.0988 3.22004,4.35746c-0.91712,-0.17414 -1.86171,-0.27201 -2.82709,-0.28669c-3.99647,-0.06069 -7.68047,1.31469 -10.5601,3.64911z" fill="#eeff00"/><path d="M134.91904,150.10127c0.32367,-5.49146 -2.2369,-10.89956 -6.52571,-14.32406l12.69691,0.88207c-1.40333,2.37171 -2.22665,5.13018 -2.2715,8.08298c-0.02816,1.85355 0.25261,3.63987 0.79467,5.30989z" fill="#00ff5f"/><path d="M139.75082,150.0507l-13.64082,0.14275c3.6061,-1.19676 6.66219,-3.61435 8.67016,-6.76946c1.73599,1.70901 3.85243,3.03489 6.21364,3.83771c-0.49678,0.88186 -0.91439,1.81466 -1.24299,2.78895z" fill="#004fff"/><path d="M123.63942,150.21931l0.01403,-14.7714l4.79998,0.33349c-1.39751,2.36806 -2.21716,5.12069 -2.26192,8.06679c-0.03399,2.23745 0.38216,4.37698 1.16472,6.33223z" fill="#ff0000"/><path d="M142.89593,142.13012l-0.17182,7.88947l-7.09697,0.07427c0.46328,-1.07365 0.81517,-2.20722 1.04096,-3.38637c2.42497,-1.01327 4.55701,-2.59348 6.22784,-4.57736z" fill="#00efff"/><path d="M143.01217,136.7928l-0.28808,13.22677l-0.47878,0.00501c-0.04686,-5.83516 -3.15405,-10.96277 -7.81309,-13.82784z" fill="#9c00ff"/></g><g data-paper-data="{&quot;index&quot;:null}" stroke-linecap="butt"><path d="M148.10518,88.04872c-3.55883,19.29031 -20.76028,32.28719 -38.42104,29.02917c-17.6609,-3.25794 -29.09302,-21.53693 -25.53414,-40.82759c3.55885,-19.29032 20.76028,-32.28719 38.42118,-29.02916c17.6609,3.25794 29.09302,21.53693 25.53414,40.82759z" fill="url(#color-18)" stroke="none" stroke-width="0"/><path d="M103.461,54.26453c-0.43096,-0.03961 -1.54226,-0.12405 -2.75846,-0.13779c-1.39769,0.27742 -3.01468,0.52168 -4.28427,0.88086c-1.13216,2.09444 1.1321,4.87098 -2.77173,5.87511c-6.65834,1.71188 -3.34467,-5.8775 -0.84204,-7.9908c3.68001,-2.17617 8.41451,-1.6453 12.5795,-1.67589c5.73697,-0.04194 11.43854,-0.68502 16.97809,-0.00894c0.24567,-0.17722 0.55382,-0.26943 0.87887,-0.23929l1.48691,0.13803c0.77286,-0.05791 1.61094,-0.11229 2.4875,-0.14774c2.31278,-0.28002 5.00986,-0.14998 7.504,0.07188c1.24582,-0.01431 2.39292,0.08278 3.30894,0.33842c0.69263,0.07549 1.3371,0.14535 1.91422,0.19855l1.56738,0.14525c0.71385,0.06627 1.23881,0.69828 1.1728,1.41247c-0.05904,0.63544 -0.56628,1.1212 -1.1803,1.17394l-0.86765,0.09174c0.30558,0.37077 0.56985,0.7791 0.78618,1.22784l0.63904,-0.18972l0.47326,1.5973c0.05198,0.16182 0.07313,0.33671 0.05654,0.51684c-0.06625,0.71385 -0.69828,1.23881 -1.41247,1.1728c-0.21699,-0.02 -0.4172,-0.09248 -0.58782,-0.20374l-1.17355,-0.72941l0.02155,-0.03448l-0.11763,-0.03134c-0.80037,-0.72499 -1.64198,-1.31575 -2.50754,-1.77002c-1.38683,-0.30752 -2.82704,-0.73123 -4.30141,-1.12947c-2.6121,-0.03156 -5.19374,1.11228 -7.32497,3.47621c0,0 -0.87142,0.9621 -1.83364,0.09083c-0.9621,-0.87142 -0.09083,-1.83364 -0.09083,-1.83364c0.18617,-0.20468 0.37581,-0.4025 0.56872,-0.59261l-0.7502,0.09516c-0.10061,0.01476 -0.20515,0.01813 -0.31103,0.00845c-0.71385,-0.06627 -1.23881,-0.69828 -1.1728,-1.41247c0.03347,-0.36139 0.21183,-0.67423 0.47268,-0.88669c-0.61193,-0.11169 -1.19556,-0.18475 -1.70915,-0.1542c-3.58744,0.21362 -8.91061,-0.47766 -14.02395,-0.63163c-0.08297,0.60692 -0.57829,1.0656 -1.17391,1.1166l-1.57264,0.16585l-0.00534,-0.05087l-0.01958,0.00141z" fill="url(#color-19)" stroke="none" stroke-width="0.5"/><path d="M142.84112,51.90271c6.89024,0.53797 6.81312,0.62856 6.50684,5.29413c-0.30616,4.66542 -3.49857,8.02854 -7.13,7.5116c-3.63144,-0.51719 -6.32692,-4.71904 -6.02061,-9.38457c0.30613,-4.66543 0.18268,-3.9256 6.64396,-3.42129z" data-paper-data="{&quot;index&quot;:null}" fill="url(#color-20)" stroke="#000000" stroke-width="0"/><path d="M125.08885,55.54496c-0.02444,5.13368 -4.74078,9.27291 -10.53425,9.24487c-5.79336,-0.02756 -10.47008,-4.21168 -10.44541,-9.34514c0.02444,-5.13368 -0.08753,-5.24518 10.85626,-4.70929c10.26234,0.50232 10.14752,-0.32415 10.12322,4.80953z" fill="url(#color-21)" stroke="#000000" stroke-width="0"/><path d="M127.65674,106.81056c-27.28573,1.75202 -30.10747,-13.72796 -30.24614,-23.22898c-0.1385,-9.50091 15.89253,-17.66917 29.69357,-17.87055c13.80104,-0.20136 26.73958,8.92836 26.87813,18.42924c0,0 3.86449,21.01735 -26.32559,22.67007z" data-paper-data="{&quot;index&quot;:null}" fill="url(#color-22)" stroke="#ed6b00" stroke-width="0"/><path d="M127.65675,106.81058c-21.74339,1.39616 -27.95181,-8.15027 -29.647,-16.89385c3.00251,4.51213 8.17766,7.43902 13.99752,7.31579c9.04677,-0.19153 16.22537,-7.68063 16.03388,-16.72742c-0.12762,-6.02836 -3.49556,-11.22719 -8.40552,-13.96862c2.49109,-0.50213 5.01507,-0.78973 7.46854,-0.8255c4.20668,-0.06137 8.33325,0.74418 12.04159,2.16296c2.13443,5.47236 7.11977,9.49594 13.096,10.28798c1.09123,1.9166 1.71075,3.93887 1.7405,5.97832c0,0 0.15648,0.851 0.16046,2.22404c-1.48959,-0.40828 -3.06244,-0.61113 -4.68542,-0.57676c-9.04677,0.19153 -16.22537,7.68063 -16.03388,16.72742c0.02632,1.24411 0.19067,2.45285 0.47811,3.61198c-1.90008,0.32578 -3.97631,0.55929 -6.24485,0.68344z" data-paper-data="{&quot;index&quot;:null}" fill="url(#color-23)" stroke="#ed6b00" stroke-width="0"/><path d="M127.10416,65.71104c4.7001,-0.06859 9.30022,0.94508 13.3287,2.68712c-0.65888,1.74487 -1.02784,3.62978 -1.04944,5.59468c-3.07238,-3.92104 -7.88846,-6.39808 -13.25205,-6.28453c-9.04676,0.19153 -16.22536,7.68065 -16.03388,16.72742c0.12843,6.06505 3.53671,11.29048 8.49539,14.01839c-2.40188,1.88361 -4.2614,4.42167 -5.31471,7.33907c-2.82727,-0.72473 -5.15536,-1.75858 -7.07154,-3.00861c2.10838,-2.82346 3.32559,-6.34522 3.24521,-10.14116c-0.14226,-6.72115 -4.3125,-12.41119 -10.15684,-14.81389c4.61685,-6.83032 16.90852,-11.95937 27.80907,-12.11843z" data-paper-data="{&quot;index&quot;:null}" fill="url(#color-24)" stroke="#ed6b00" stroke-width="0"/><path d="M142.86159,84.27847c2.60599,3.32586 6.46648,5.61275 10.85149,6.16116c-0.89959,4.16414 -3.53188,9.47083 -10.71491,12.91887c-1.50131,-2.67999 -3.73253,-4.89063 -6.41871,-6.36836c3.78694,-2.96978 6.22562,-7.56653 6.28209,-12.7117z" data-paper-data="{&quot;index&quot;:null}" fill="url(#color-25)" stroke="#ed6b00" stroke-width="0"/><path d="M124.06277,94.83602c0.04873,-0.24361 -0.71744,-1.36631 -0.90474,-1.71758c-2.28471,-4.2859 -4.0115,-8.90824 -6.79049,-12.89147c-0.26251,-0.3763 -1.90821,-0.09336 -2.66121,-0.127c-4.61129,-0.20589 -9.22952,-1.01364 -13.83187,-0.66014c-0.58927,0.04527 -1.18389,0.25942 -1.77646,0.61106c1.35802,-3.36018 4.62101,-6.42132 8.84938,-8.84473c3.06534,4.02112 7.94373,6.57285 13.38584,6.45762c7.02486,-0.14869 12.92331,-4.6976 15.11928,-10.95917c6.29911,1.59543 11.80782,4.96458 15.14699,9.07238c-2.37139,-1.2445 -5.08185,-1.92393 -7.94873,-1.86324c-9.04677,0.19153 -16.22537,7.68063 -16.03388,16.72742c0.04752,2.24438 0.54418,4.37385 1.40236,6.30428c-2.3151,0.84356 -4.38293,2.19332 -6.07275,3.91281c1.06778,-2.34074 1.80951,-4.48934 2.11625,-6.02225z" data-paper-data="{&quot;index&quot;:null}" fill="url(#color-26)" stroke="#ed6b00" stroke-width="0"/><path d="M127.65674,106.81062c-27.28575,1.75203 -30.10747,-13.72796 -30.24614,-23.22898c-0.00602,-0.41298 0.01851,-0.82345 0.07207,-1.2309c0.14683,3.04261 1.30646,6.24096 2.47603,8.50928c0.12088,0.23444 0.24782,0.46771 0.38067,0.69977c1.78212,6.66103 7.64639,11.61879 14.69763,12.09822c5.40836,2.3136 11.2914,3.29909 16.27174,2.17935c8.58909,-1.93115 16.3214,-3.14542 16.03388,-16.72742c-0.11646,-5.50269 -4.52039,-10.35105 -8.49376,-14.15969c-2.3162,-2.22016 -6.65252,-0.27041 -9.44595,-1.84856c-1.44388,-2.97798 -3.76123,-5.44727 -6.61244,-7.08235c1.44813,-0.1824 2.89275,-0.28761 4.31369,-0.30834c5.1071,-0.07453 10.09604,1.12875 14.36201,3.15577c-0.00489,0.23286 -0.00487,0.46688 0.00011,0.70194c0.16164,7.63693 5.52361,13.94253 12.63301,15.60723c0.07475,1.03435 0.09537,2.76155 -0.29278,4.80373c-4.17711,2.47056 -7.15209,6.73912 -7.88154,11.71719c-3.94772,2.64087 -9.75353,4.64734 -18.26821,5.11349z" data-paper-data="{&quot;index&quot;:null}" fill="url(#color-27)" stroke="#ed6b00" stroke-width="0"/></g></g><path d="M-11.98828,369.05082l1,-377l160.91797,-0.53253l0.08203,9.53253c0,0 -39.46962,6.29142 -75.5582,25.97667c-26.80308,14.62028 -51.53474,44.21584 -49.36246,61.1415c8.78971,68.48644 35.92067,279.88184 35.92067,279.88184z" fill="url(#color-28)" stroke="none" stroke-width="0" stroke-linecap="butt"/></g></g></svg>