<svg version="1.1" xmlns="http://www.w3.org/2000/svg" xmlns:xlink="http://www.w3.org/1999/xlink" width="619.063" height="471.58011" viewBox="0,0,619.063,471.58011"><defs><radialGradient cx="240" cy="180.00003" r="250.5" gradientUnits="userSpaceOnUse" id="color-1"><stop offset="0" stop-color="#949494"/><stop offset="1" stop-color="#7d7d7d"/></radialGradient><radialGradient cx="243.51172" cy="115.5508" r="114.5" gradientUnits="userSpaceOnUse" id="color-2"><stop offset="0" stop-color="#484848"/><stop offset="1" stop-color="#3a3a3a"/></radialGradient><radialGradient cx="313.80117" cy="294.91333" r="270.53072" gradientUnits="userSpaceOnUse" id="color-3"><stop offset="0" stop-color="#4d4d4d"/><stop offset="1" stop-color="#3c3c3c"/></radialGradient><radialGradient cx="228.97824" cy="289.72909" r="66" gradientUnits="userSpaceOnUse" id="color-4"><stop offset="0" stop-color="#2a2a2a"/><stop offset="1" stop-color="#2a2a2a"/></radialGradient><radialGradient cx="222.20341" cy="294.86247" r="66" gradientUnits="userSpaceOnUse" id="color-5"><stop offset="0" stop-color="#1d1d1d"/><stop offset="1" stop-color="#1b1b1b"/></radialGradient><radialGradient cx="349.5834" cy="454.2388" r="249.95744" gradientUnits="userSpaceOnUse" id="color-6"><stop offset="0" stop-color="#222222"/><stop offset="1" stop-color="#202020"/></radialGradient><radialGradient cx="308.17227" cy="315.18154" r="65" gradientUnits="userSpaceOnUse" id="color-7"><stop offset="0" stop-color="#090909"/><stop offset="1" stop-color="#080808"/></radialGradient><radialGradient cx="465.65055" cy="218.71996" r="26.5" gradientUnits="userSpaceOnUse" id="color-8"><stop offset="0" stop-color="#525252"/><stop offset="1" stop-color="#424242"/></radialGradient><radialGradient cx="389.18019" cy="263.01041" r="84" gradientUnits="userSpaceOnUse" id="color-9"><stop offset="0" stop-color="#1d1d1d"/><stop offset="1" stop-color="#1b1b1b"/></radialGradient><radialGradient cx="423.82281" cy="229.41893" r="44.75" gradientUnits="userSpaceOnUse" id="color-10"><stop offset="0" stop-color="#3a3a3a"/><stop offset="1" stop-color="#2f2f2f"/></radialGradient><radialGradient cx="376.45226" cy="269.17481" r="48.5" gradientUnits="userSpaceOnUse" id="color-11"><stop offset="0" stop-color="#343434"/><stop offset="1" stop-color="#262626"/></radialGradient><radialGradient cx="333.55169" cy="245.02495" r="26.25" gradientUnits="userSpaceOnUse" id="color-12"><stop offset="0" stop-color="#121212"/><stop offset="1" stop-color="#161616"/></radialGradient><radialGradient cx="315.50967" cy="312.64928" r="65" gradientUnits="userSpaceOnUse" id="color-13"><stop offset="0" stop-color="#101010"/><stop offset="1" stop-color="#111111"/></radialGradient><radialGradient cx="483.58941" cy="200.60374" r="36.25" gradientUnits="userSpaceOnUse" id="color-14"><stop offset="0" stop-color="#313131"/><stop offset="1" stop-color="#1b1b1b"/></radialGradient><radialGradient cx="374.11467" cy="343.70192" r="26.25" gradientUnits="userSpaceOnUse" id="color-15"><stop offset="0" stop-color="#121212"/><stop offset="1" stop-color="#161616"/></radialGradient><radialGradient cx="257.81306" cy="205.09357" r="57.27136" gradientUnits="userSpaceOnUse" id="color-16"><stop offset="0" stop-color="#33266a"/><stop offset="1" stop-color="#949074"/></radialGradient><linearGradient x1="256.19558" y1="144.58684" x2="255.68744" y2="161.96273" gradientUnits="userSpaceOnUse" id="color-17"><stop offset="0" stop-color="#694444"/><stop offset="1" stop-color="#98a1b9"/></linearGradient><radialGradient cx="266.25672" cy="86.99137" r="33.28545" gradientUnits="userSpaceOnUse" id="color-18"><stop offset="0" stop-color="#dcdcdc"/><stop offset="1" stop-color="#a0a0a0"/></radialGradient><radialGradient cx="279.73777" cy="86.25743" r="25.55275" gradientUnits="userSpaceOnUse" id="color-19"><stop offset="0" stop-color="#1c2f30"/><stop offset="1" stop-color="#142913"/></radialGradient><radialGradient cx="237.40657" cy="82.99245" r="6.72592" gradientUnits="userSpaceOnUse" id="color-20"><stop offset="0" stop-color="#786c41"/><stop offset="1" stop-color="#141a29"/></radialGradient><radialGradient cx="266.14512" cy="85.22509" r="10.58856" gradientUnits="userSpaceOnUse" id="color-21"><stop offset="0" stop-color="#7ba676"/><stop offset="1" stop-color="#291616"/></radialGradient><radialGradient cx="256.3257" cy="108.0655" r="25.00169" gradientUnits="userSpaceOnUse" id="color-22"><stop offset="0" stop-color="#d1ffc4"/><stop offset="1" stop-color="#2188ff"/></radialGradient><radialGradient cx="256.3257" cy="108.0655" r="25.00169" gradientUnits="userSpaceOnUse" id="color-23"><stop offset="0" stop-color="#ceffc4"/><stop offset="1" stop-color="#ff21cc"/></radialGradient><radialGradient cx="256.3257" cy="108.0655" r="25.00169" gradientUnits="userSpaceOnUse" id="color-24"><stop offset="0" stop-color="#ffe9c4"/><stop offset="1" stop-color="#4fff21"/></radialGradient><radialGradient cx="256.3257" cy="108.0655" r="25.00169" gradientUnits="userSpaceOnUse" id="color-25"><stop offset="0" stop-color="#ffe9c4"/><stop offset="1" stop-color="#4fff21"/></radialGradient><radialGradient cx="256.32574" cy="108.06553" r="25.00169" gradientUnits="userSpaceOnUse" id="color-26"><stop offset="0" stop-color="#ffe9c4"/><stop offset="1" stop-color="#ffa321"/></radialGradient><radialGradient cx="256.32578" cy="108.06553" r="25.00169" gradientUnits="userSpaceOnUse" id="color-27"><stop offset="0" stop-color="#c4f0ff"/><stop offset="1" stop-color="#3d21ff"/></radialGradient><linearGradient x1="-11.98828" y1="179.28453" x2="150.92969" y2="179.28453" gradientUnits="userSpaceOnUse" id="color-28"><stop offset="0" stop-color="#7d7d7d"/><stop offset="1" stop-color="#818181"/></linearGradient></defs><g transform="translate(11.98828,8.48171)"><g data-paper-data="{&quot;isPaintingLayer&quot;:true}" fill-rule="nonzero" stroke-linejoin="miter" stroke-miterlimit="10" stroke-dasharray="" stroke-dashoffset="0" style="mix-blend-mode: normal"><path d="M-10.5,368.00001v-376h501v376z" fill="url(#color-1)" stroke="none" stroke-width="0" stroke-linecap="butt"/><path d="M55.63703,350.09237c-3.89444,-35.12313 -28.86024,-260.28391 -28.86024,-260.28391c0,0 6.13498,-58.73673 90.38049,-83.32369c88.94305,-19.99889 123.11201,33.7383 123.11201,33.7383c0,0 65.07454,148.36123 76.16367,173.64299c3.0985,7.06417 1.47154,14.99796 -6.00481,17.45295c-24.82515,8.15175 -82.74364,27.48408 -119.81421,42.36863c-36.09995,14.49483 -99.11668,64.98273 -123.29164,84.94994c-6.18411,5.10773 -10.69693,0.36836 -11.68526,-8.54521z" fill="#000000" stroke="none" stroke-width="NaN" stroke-linecap="butt"/><path d="M165.01172,165.05081l-2,-164c0,0 26.59426,3.29414 40.84201,7.29545c21.80408,6.12342 42.158,33.70455 42.158,33.70455c0,0 56.32326,135.7535 68.65762,165.48248c4.54989,10.96641 3.54663,20.14819 -2.69066,17.59835c-21.79808,-8.91117 -146.96696,-60.08083 -146.96696,-60.08083z" fill="url(#color-2)" stroke="none" stroke-width="0" stroke-linecap="butt"/><path d="M605.69258,270.32998c14.79035,54.92892 -90.81001,131.12039 -235.86501,170.17842c-145.055,39.05803 -274.63528,26.19214 -289.42563,-28.73678c-14.79036,-54.92892 90.81,-131.1204 235.86501,-170.17843c145.05501,-39.05803 274.63528,-26.19213 289.42564,28.73679z" fill="url(#color-3)" stroke="none" stroke-width="NaN" stroke-linecap="butt"/><g data-paper-data="{&quot;index&quot;:null}"><path d="M221.7213,237.51417l18.63568,7.20842l33.462,93.83653l-22.25925,-11.99065z" fill="url(#color-4)" stroke="none" stroke-width="0" stroke-linecap="butt"/><path d="M252.45332,325.26406l21.46221,12.59458l-6.87139,5.83387l-22.95973,-12.08721z" fill="url(#color-5)" stroke="none" stroke-width="0" stroke-linecap="butt"/><path d="M243.98785,332.3058l-29.01224,-87.79835l7.58732,-5.8825l30.00994,86.54853z" data-paper-data="{&quot;index&quot;:null}" fill="url(#color-6)" stroke="none" stroke-width="0" stroke-linecap="butt"/><path d="M226.6818,241.0668l49.6744,5.71874l-37.99309,0.88027" fill="none" stroke="#747474" stroke-width="1.5" stroke-linecap="round"/><path d="M255.92492,322.04882l55.24453,10.40635l-43.1397,-2.28397" fill="none" stroke="#747474" stroke-width="1.5" stroke-linecap="round"/><path d="M261.55145,288.70273c-6.53341,-17.0944 -5.97747,-42.56344 -2.56125,-48.30337c2.17588,-3.65591 19.20595,5.0226 28.79083,9.47131c7.94194,3.68615 20.28707,15.94247 20.28707,15.94247l45.54771,97.12701c0,0 -20.99459,-3.76071 -30.44393,-7.83954c-9.80806,-4.23367 -25.97957,-9.11744 -30.68559,-14.8801c-4.67276,-5.72192 -24.85768,-35.61715 -30.93484,-51.51779z" fill="url(#color-7)" stroke="none" stroke-width="0" stroke-linecap="butt"/><path d="M447.24607,198.5637l11.4751,-7.12896l27.95706,45.07108l-12.43968,8.3818z" fill="url(#color-8)" stroke="none" stroke-width="0" stroke-linecap="butt"/><path d="M314.43797,263.93278l123.01751,-82.28573l54.9052,82.38124l-141.83002,91.94697z" fill="url(#color-9)" stroke="none" stroke-width="0" stroke-linecap="butt"/><path d="M386.04112,216.89275l43.80938,-30.72438l47.9381,75.62035l-47.68542,32.13022z" fill="url(#color-10)" stroke="none" stroke-width="0" stroke-linecap="butt"/><path d="M321.12863,270.87994l69.10339,-47.76737l35.25675,63.06316l-75.46736,50.84956z" fill="url(#color-11)" stroke="none" stroke-width="0" stroke-linecap="butt"/><path d="M299.11864,250.74142c0,0 17.84291,-8.94866 28.21866,-11.42355c8.73093,-2.08255 31.61593,-3.57052 31.61593,-3.57052l-43.12421,29.0569z" fill="url(#color-12)" stroke="none" stroke-width="0" stroke-linecap="butt"/><path d="M268.88886,286.17044c-6.53341,-17.0944 -10.41229,-41.98691 -6.99608,-47.72684c2.17588,-3.65591 23.64077,4.44607 33.22565,8.89478c7.94194,3.68615 20.28707,15.94247 20.28707,15.94247l42.23047,99.36215c0,0 -17.67735,-5.99585 -27.12668,-10.07468c-9.80806,-4.23367 -25.97957,-9.11744 -30.68559,-14.8801c-4.67276,-5.72192 -24.85768,-35.61715 -30.93484,-51.51779z" fill="url(#color-13)" stroke="none" stroke-width="0" stroke-linecap="butt"/><path d="M449.82493,187.1795l31.23445,-21.64854l44.65857,57.33116l-34.41643,23.18963z" fill="url(#color-14)" stroke="none" stroke-width="0" stroke-linecap="butt"/><path d="M335.68806,355.12375c0,0 20.54692,-17.4247 32.57751,-22.08748c10.09842,-3.91392 30.79164,-7.34635 30.79164,-7.34635l-43.07987,38.07066z" fill="url(#color-15)" stroke="none" stroke-width="0" stroke-linecap="butt"/></g><g data-paper-data="{&quot;index&quot;:null}"><path d="M215.48782,259.23159l8.92563,-114.19438l75.72472,5.91869l-8.92563,114.19438z" fill="url(#color-16)" stroke="#ed6b00" stroke-width="0" stroke-linecap="butt"/><path d="M245.97848,161.67882l0.50815,-17.37593l19.41793,0.56797l-0.50815,17.37593z" fill="url(#color-17)" stroke="#000000" stroke-width="0" stroke-linecap="butt"/><g><path d="M185.93692,303.22101l43.6851,-74.1521c0,0 17.90594,1.95625 25.00695,5.13873c8.4019,3.76553 -3.00042,10.45581 -3.00042,10.45581c0,0 -7.25093,-3.0041 -9.4494,0.0028c-6.72334,9.19605 -37.71195,66.85972 -37.71195,66.85972z" data-paper-data="{&quot;index&quot;:null}" fill="#4a433c" stroke="#000000" stroke-width="0" stroke-linecap="butt"/><path d="M165.33365,313.46412c-1.91456,-0.85809 -0.79433,-5.75054 -0.79433,-5.75054c0,0 2.93608,-2.75851 4.0851,-3.69843c0.93785,-0.76775 4.95674,-0.67824 4.95674,-0.67824c0,0 7.19541,1.75615 10.49008,2.90302c5.56793,1.93827 19.18414,8.37335 19.18414,8.37335c0,0 -1.41733,4.31955 -2.25219,6.04472c-0.61959,1.28033 -2.30677,3.37548 -2.30677,3.37548c0,0 -2.3158,0.14376 -6.30543,-0.66305c-2.16499,-0.43786 -5.83293,-3.19501 -8.74027,-3.99774c-2.30955,-0.63784 -4.40349,0.00517 -7.35476,-1.18117c-4.85363,-1.95138 -9.58934,-4.11152 -10.96187,-4.72684z" data-paper-data="{&quot;index&quot;:null}" fill="#140d0d" stroke="#000000" stroke-width="0" stroke-linecap="butt"/><path d="M168.63263,307.78341c-1.91456,-0.85792 -2.80764,-1.25844 -2.80764,-1.25844c0,0 3.38148,-5.25626 4.5305,-6.19618c0.93775,-0.76754 4.95664,-0.67803 4.95664,-0.67803c0,0 8.03769,2.13344 11.33236,3.28031c0.56019,0.19516 4.56002,-7.9662 4.56002,-7.9662c0,0 7.35853,3.97596 8.37684,4.40524c1.89401,0.79802 -5.05331,6.77067 -3.09245,7.6501c1.11983,0.50228 3.96144,3.87908 6.46492,2.9501c2.79817,-1.03802 6.21419,-5.6431 6.21419,-5.6431l-3.33948,6.97752c0,0 -0.84824,2.31252 -3.82889,3.52761c-2.0405,0.83193 -2.76286,3.74109 -5.39902,4.19611c-3.83301,0.66183 -4.27732,0.63289 -5.13885,0.39494c-2.47351,-0.68327 -2.32534,-2.73991 -7.84749,-4.74626c-2.64112,-0.95957 -2.77918,1.57742 -10.30268,-1.08947c-7.96671,-2.82383 -4.10381,-5.54585 -4.67856,-5.80342z" data-paper-data="{&quot;index&quot;:null}" fill="#1f261f" stroke="#000000" stroke-width="0" stroke-linecap="butt"/><path d="M183.9349,303.43653l5.04439,5.29528" fill="none" stroke="#ffb5b5" stroke-width="0.5" stroke-linecap="round"/><path d="M179.723,301.54927l4.38628,6.01168" fill="none" stroke="#bffdff" stroke-width="0.5" stroke-linecap="round"/><path d="M178.80387,305.85732l-1.85913,-4.87886" fill="none" stroke="#eaffc1" stroke-width="0.5" stroke-linecap="round"/><path d="M195.81311,301.00567l-4.80209,-2.82648" fill="none" stroke="#8d967b" stroke-width="0.5" stroke-linecap="round"/><path d="M189.69485,299.6122l4.11469,2.85571" fill="none" stroke="#767796" stroke-width="0.5" stroke-linecap="round"/></g><g data-paper-data="{&quot;index&quot;:null}" stroke="#000000" stroke-width="0" stroke-linecap="butt"><path d="M308.00401,221.41488c0,0 -0.04409,-8.33389 -3.81336,-17.21606c-0.90639,-2.13601 -2.60354,-9.25164 -3.5596,-11.43644c-1.31424,-3.00348 -2.25365,-13.37943 -6.27862,-17.93575c-2.90433,-3.2877 -8.65797,3.35614 -12.37051,-4.96519c-5.48602,-5.7265 3.53614,-19.00061 18.52892,-11.76899c7.4683,3.60226 11.78261,16.28583 12.76886,18.7224c1.20714,2.98242 0.32107,5.84939 1.98119,10.54293c0.74409,2.10422 2.4526,11.58126 3.80565,17.30488c2.25278,9.52937 4.7814,15.00733 4.7814,15.00733z" fill="#b8bda6"/><path d="M326.29838,231.77694c0.57117,2.66433 2.71641,5.34537 1.57119,5.5528c-3.41054,1.32927 -3.52619,-0.9706 -5.98153,-2.76146c-1.29981,-0.94817 6.21803,4.90576 0.64303,5.44649c-2.98087,0.40367 -3.46369,-4.26077 -5.30524,-6.15292c-0.98593,-1.01272 5.29018,7.26646 0.48226,7.83243c-2.65604,1.04617 -1.90618,-2.8783 -3.74304,-6.41094c-0.19851,-0.38164 2.46325,5.83923 -0.90598,7.13453c-3.04473,1.17057 -4.01303,-9.25572 -4.0555,-9.2856c-0.38377,-0.27026 0.88915,1.94826 -0.62732,2.20012c-3.9666,0.65874 -1.62277,-5.79471 -0.71398,-8.05916c0.96357,-2.40034 0.39447,-5.57981 0.39447,-5.57981c0,0 5.04029,-2.42753 7.71602,-2.7155c2.60527,-0.28072 8.132,1.00902 8.132,1.00902c0,0 1.2835,6.61179 2.39361,11.79003z" data-paper-data="{&quot;index&quot;:null}" fill="#786274"/></g><g data-paper-data="{&quot;index&quot;:null}" stroke="#000000" stroke-width="0" stroke-linecap="butt"><path d="M187.08377,237.30712c0,0 2.06628,-4.88745 3.77444,-13.32833c1.02589,-5.06984 2.25716,-13.44919 2.8511,-15.32012c1.32523,-4.17315 2.37659,-9.23594 3.35253,-11.89202c0.49522,-1.34772 4.41773,-12.5138 9.37574,-23.53611c5.91181,-13.14269 9.78714,-27.68576 19.07429,-20.85626c13.85788,4.5838 -5.87811,34.66169 -5.87811,34.66169c0,0 -4.78005,7.93105 -7.03581,14.06939c-1.04879,2.85402 -3.42285,7.21085 -5.26402,11.82064c-0.77798,1.94779 -2.67696,8.31669 -3.41273,10.2202c-3.05959,7.91533 -2.86039,15.24228 -2.86039,15.24228z" fill="#b8bda6"/><path d="M184.60098,248.31617c-1.30835,-0.11949 2.08193,-10.94338 2.08193,-10.94338c0,0 4.82131,-1.29156 7.11944,-1.11918c2.36026,0.1767 6.86015,2.16666 6.86015,2.16666c0,0 -0.40949,2.81106 0.50607,4.89352c1.56648,3.56383 3.67489,7.44194 1.72983,10.00552c-1.05536,1.39113 -2.00696,-5.37079 -2.7415,-4.81694c-0.13074,0.09849 -2.07223,10.60647 -3.143,10.892c-1.74948,0.46645 -0.4191,-10.39779 -1.1568,-8.85945c-1.51379,3.15774 -1.59093,10.78948 -2.98878,10.92969c-2.35475,0.23595 0.91954,-13.00445 0.08187,-12.0861c-1.56477,1.71583 -2.21139,9.98925 -3.42741,10.1667c-3.54225,0.51696 0.46483,-10.28314 -0.65065,-9.41254c-2.10711,1.64435 -1.98457,7.5918 -3.26078,7.39582c-2.59462,-0.3984 -0.39257,-9.15547 -1.01035,-9.21202z" data-paper-data="{&quot;index&quot;:null}" fill="#786274"/></g><g><path d="M242.37087,322.40444c0,0 12.40966,-64.27592 13.00815,-75.6516c0.19567,-3.71996 -7.32296,-5.9722 -7.32296,-5.9722c0,0 -4.61156,-12.38997 4.28031,-10.00053c7.51484,2.0192 22.63057,11.81563 22.63057,11.81563l-12.9853,85.07806z" fill="#413a4a" stroke="#000000" stroke-width="0" stroke-linecap="butt"/><path d="M220.87506,329.91368c0,0 2.46313,-3.1883 3.44879,-4.29825c0.80482,-0.90642 4.78706,-1.45367 4.78706,-1.45367c0,0 7.38218,0.59609 10.81693,1.20753c5.80466,1.03344 20.26702,5.23389 20.26702,5.23389c0,0 -0.71595,4.48899 -1.26774,6.32465c-0.40956,1.36233 -1.74417,3.6977 -1.74417,3.6977c0,0 -2.26384,0.5083 -6.33071,0.34245c-2.20715,-0.08994 -6.26463,-2.23187 -9.26255,-2.56495c-2.38108,-0.26429 -4.34737,0.70173 -7.4489,-0.00306c-5.10177,-1.15922 -10.11933,-2.54321 -11.5718,-2.93362c-2.02626,-0.54437 -1.69389,-5.55261 -1.69389,-5.55261z" data-paper-data="{&quot;index&quot;:null}" fill="#12140d" stroke="#000000" stroke-width="0" stroke-linecap="butt"/><path d="M221.9575,328.53752c0,0 2.50764,-5.72496 3.4933,-6.83491c0.80482,-0.90642 4.78706,-1.45367 4.78706,-1.45367c0,0 8.27361,0.83528 11.70826,1.44688c0.58424,0.10395 3.24284,-8.58719 3.24284,-8.58719c0,0 7.89479,2.76215 8.96823,3.02486c1.99612,0.48856 -3.91879,7.48475 -1.8436,8.04291c1.18511,0.31893 4.5248,3.20362 6.84992,1.8904c2.59871,-1.4678 5.24339,-6.55518 5.24339,-6.55518l-2.19398,7.41774c0,0 -0.47209,2.41729 -3.22293,4.08874c-1.88332,1.14404 -2.13673,4.1309 -4.66756,4.99709c-3.68026,1.25943 -4.12372,1.3016 -5.01195,1.20283c-2.55011,-0.28362 -2.72951,-2.33756 -8.49921,-3.44541c-2.75949,-0.52997 -2.49438,1.99694 -10.34523,0.5537c-8.31366,-1.52832 -4.92951,-4.82691 -5.53789,-4.99057c-2.02625,-0.54456 -2.97134,-0.79862 -2.97134,-0.79862z" data-paper-data="{&quot;index&quot;:null}" fill="#1e1e26" stroke="#000000" stroke-width="0" stroke-linecap="butt"/><path d="M239.34966,322.62276l5.81826,4.43072" fill="none" stroke="#c1ffce" stroke-width="0.5" stroke-linecap="round"/><path d="M234.89268,321.42526l5.28166,5.24229" fill="none" stroke="#eaffc1" stroke-width="0.5" stroke-linecap="round"/><path d="M232.05878,321.30076l2.60742,4.52371" fill="none" stroke="#ffb5b5" stroke-width="0.5" stroke-linecap="round"/><path d="M250.69394,318.34384l-5.18849,-2.03147" fill="none" stroke="#7d967f" stroke-width="0.5" stroke-linecap="round"/><path d="M244.43228,317.93546l4.51442,2.16881" fill="none" stroke="#966262" stroke-width="0.5" stroke-linecap="round"/></g><path d="M276.76,241.46717c0,0 -4.67274,1.11517 -8.0594,0.4876c-2.91567,-0.54001 -4.37844,-2.82705 -6.90884,-2.92357c-1.25331,-0.04789 -4.72058,1.06831 -6.49593,1.05627c-2.34869,-0.01607 -6.67176,1.66334 -9.10244,1.22698c-3.04101,-0.54556 -4.2189,-3.23473 -7.46266,-3.30674c-7.14269,-0.1586 -14.22107,1.4664 -14.22107,1.4664c0,0 1.07385,-14.62806 0.85312,-26.43169c-0.21392,-11.45247 -1.72306,-19.96875 -1.71859,-27.69768c0.00516,-8.73535 0.91598,-32.10508 0.91598,-32.10508c0,0 10.71116,-0.66039 15.77659,0.69064c4.80061,1.28064 13.86423,7.21532 13.86423,7.21532c0,0 12.29691,-5.3279 18.08725,-6.24284c4.54859,-0.7189 13.83683,1.1982 13.83683,1.1982c0,0 -0.8124,22.0629 -2.11005,33.89369c-0.69131,6.30324 -3.74531,14.54563 -5.07149,23.77659c-1.95178,13.58512 -2.18306,27.6964 -2.18306,27.6964z" fill="#d1b0b0" stroke="#292e32" stroke-width="0" stroke-linecap="butt"/><g stroke="none" stroke-width="0" stroke-linecap="butt"><path d="M227.25993,179.91552l0.61414,-13.21563l19.40532,-0.02227l-0.99279,14.73796z" fill="#f200ff"/><path d="M246.7131,175.08423c-2.71382,-2.52526 -6.2955,-4.14854 -10.28682,-4.3604c-0.96414,-0.05115 -1.9132,-0.01789 -2.84006,0.09333c1.38318,-1.1671 2.57285,-2.56085 3.50956,-4.12785l10.18364,-0.01168z" fill="#eeff00"/><path d="M230.36121,180.16004c0.65463,-1.62919 1.0565,-3.39222 1.15474,-5.24338c0.15651,-2.94899 -0.47687,-5.75716 -1.71528,-8.21901l12.7275,-0.01459c-4.51225,3.12421 -7.43548,8.34521 -7.48686,13.84596z" fill="#00ff5f"/><path d="M230.22422,180.14919c-0.26143,-0.99442 -0.61448,-1.95351 -1.05,-2.86719c2.41044,-0.64002 4.61233,-1.81855 6.46077,-3.40526c1.78825,3.28463 4.67245,5.9049 8.18859,7.34467l-13.59936,-1.07217z" fill="#004fff"/><path d="M242.58112,181.12347c0.91401,-1.89736 1.47502,-4.00356 1.59361,-6.23812c0.15615,-2.9423 -0.47397,-5.7444 -1.70683,-8.2022l4.81155,-0.00555l-0.99282,14.738z" fill="#ff0000"/><path d="M227.62628,172.03272c1.53172,2.09315 3.5511,3.81501 5.90136,4.99121c0.14489,1.19179 0.41869,2.34671 0.80772,3.44944l-7.07541,-0.55783l0.36632,-7.88283z" fill="#00efff"/><path d="M236.47473,166.69c-4.84348,2.54085 -8.29294,7.44474 -8.73742,13.26314l-0.47733,-0.03763l0.61412,-13.21564z" fill="#9c00ff"/></g><g data-paper-data="{&quot;index&quot;:null}" stroke-linecap="butt"><path d="M226.11519,117.72201c-2.23575,-19.48837 10.41568,-36.94564 28.25757,-38.99224c17.84189,-2.04668 34.11746,12.09241 36.3532,31.58044c2.23575,19.48837 -10.41568,36.94564 -28.25757,38.99224c-17.84175,2.04668 -34.11733,-12.09242 -36.35306,-31.58044z" fill="url(#color-18)" stroke="none" stroke-width="0"/><path d="M272.85915,86.99723l-0.01944,-0.00274l-0.0088,0.05039l-1.55768,-0.27265c-0.59076,-0.09148 -1.05366,-0.58286 -1.09507,-1.19402c-5.11195,-0.19491 -10.46985,0.13193 -14.03439,-0.32571c-0.51031,-0.06549 -1.09757,-0.03238 -1.71569,0.03734c0.24577,0.22974 0.40239,0.55401 0.41114,0.91684c0.01718,0.71703 -0.54965,1.31178 -1.26635,1.32924c-0.10629,0.00244 -0.21037,-0.00804 -0.30973,-0.02963l-0.74197,-0.14608c0.1795,0.20282 0.35522,0.4131 0.52701,0.63c0,0 0.80366,1.01937 -0.2156,1.82318c-1.01937,0.80366 -1.82318,-0.2156 -1.82318,-0.2156c-1.96514,-2.5037 -4.46282,-3.82084 -7.07099,-3.9674c-1.49809,0.29682 -2.96382,0.62138 -4.36839,0.83366c-0.89451,0.39422 -1.77442,0.92624 -2.62235,1.59499l-0.11949,0.02325l0.01915,0.03587l-1.22054,0.64772c-0.17781,0.09937 -0.3825,0.15804 -0.60034,0.1632c-0.71703,0.01718 -1.3118,-0.54965 -1.32924,-1.26635c-0.00428,-0.18084 0.02875,-0.35389 0.09163,-0.51178l0.58103,-1.56133l0.62463,0.23284c0.24641,-0.43295 0.5379,-0.82232 0.86804,-1.1714l-0.85938,-0.15067c-0.609,-0.09447 -1.08195,-0.61368 -1.09754,-1.25166c-0.01718,-0.71703 0.54965,-1.31178 1.26635,-1.32924l1.57364,-0.03808c0.5794,-0.01374 1.22714,-0.03951 1.9233,-0.06761c0.93131,-0.19261 2.08236,-0.21128 3.32431,-0.11209c2.50346,-0.05135 5.20313,0.00276 7.49144,0.43976c0.8721,0.09511 1.70453,0.20649 2.47164,0.31694l1.49286,-0.03636c0.32635,-0.00792 0.6275,0.10508 0.86052,0.29864c5.57275,-0.29694 11.21723,0.73327 16.938,1.16615c4.15321,0.3144 8.91289,0.10747 12.43601,2.52941c2.35277,2.27897 5.14144,10.07656 -1.38474,7.91483c-3.82631,-1.26789 -1.37807,-3.88364 -2.36484,-6.05037c-1.24216,-0.44488 -2.83873,-0.79879 -4.21426,-1.17083c-1.21431,-0.06919 -2.32878,-0.06069 -2.76143,-0.05055z" fill="url(#color-19)" stroke="none" stroke-width="0.5"/><path d="M233.83069,82.01872c6.48063,-0.06273 6.40789,-0.80926 6.39531,3.86619c-0.01241,4.67556 -2.98802,8.68392 -6.64626,8.95238c-3.65822,0.26822 -6.61397,-3.30467 -6.60143,-7.98011c0.01244,-4.6756 -0.05833,-4.77123 6.85256,-4.83832z" data-paper-data="{&quot;index&quot;:null}" fill="url(#color-20)" stroke="#000000" stroke-width="0"/><path d="M251.29378,86.86261c0.32567,-5.1234 0.15479,-4.30668 10.4275,-4.10834c10.95487,0.21129 10.83556,0.31489 10.51003,5.4383c-0.32529,5.12321 -5.27632,8.97882 -11.05808,8.61145c-5.78191,-0.36691 -10.20515,-4.81798 -9.87962,-9.94139z" fill="url(#color-21)" stroke="#000000" stroke-width="0"/><path d="M245.23745,137.83378c-30.00722,-3.70663 -24.71917,-24.4117 -24.71917,-24.4117c0.78581,-9.46934 14.31654,-17.69594 28.07176,-16.55437c13.75522,1.14159 29.19222,10.38353 28.40646,19.8529c-0.78594,9.46947 -4.65623,24.72111 -31.75909,21.11337z" data-paper-data="{&quot;index&quot;:null}" fill="url(#color-22)" stroke="#ed6b00" stroke-width="0"/><path d="M245.23748,137.8338c-2.2548,-0.27849 -4.31029,-0.65297 -6.18374,-1.1075c0.36579,-1.13684 0.61214,-2.33157 0.7232,-3.57099c0.80768,-9.0127 -5.84377,-16.97368 -14.85645,-17.78139c-1.61687,-0.14491 -3.19988,-0.04973 -4.71384,0.25606c0.09756,-1.36958 0.31167,-2.20794 0.31167,-2.20794c0.16869,-2.03268 0.92462,-4.00802 2.14394,-5.84579c6.01632,-0.38285 11.26431,-4.05727 13.76677,-9.37143c3.79642,-1.16272 7.9683,-1.68513 12.16101,-1.33717c2.44533,0.20291 4.94383,0.66187 7.3949,1.33263c-5.0854,2.40039 -8.79986,7.35757 -9.33808,13.36321c-0.80768,9.0127 5.84377,16.97368 14.85645,17.78139c5.79793,0.51962 11.16054,-2.04772 14.46361,-6.3447c-2.28722,8.6077 -9.13188,17.70877 -30.72954,14.83382z" data-paper-data="{&quot;index&quot;:null}" fill="url(#color-23)" stroke="#ed6b00" stroke-width="0"/><path d="M248.59013,96.86778c10.86437,0.90167 22.77785,6.8566 26.91841,13.98572c-5.99451,1.99877 -10.54289,7.39133 -11.14293,14.08715c-0.33893,3.78164 0.63541,7.37817 2.54644,10.33877c-1.99692,1.11651 -4.39006,1.98928 -7.26016,2.51961c-0.85201,-2.98241 -2.53421,-5.64131 -4.80212,-7.68425c5.13308,-2.38358 8.88961,-7.36454 9.43113,-13.40674c0.80766,-9.01268 -5.84378,-16.97368 -14.85645,-17.78139c-5.34338,-0.47888 -10.3171,1.66415 -13.64959,5.36665c0.11238,-1.9618 -0.12725,-3.86747 -0.66567,-5.6532c4.13784,-1.46341 8.79636,-2.16118 13.48085,-1.77239z" data-paper-data="{&quot;index&quot;:null}" fill="url(#color-24)" stroke="#ed6b00" stroke-width="0"/><path d="M231.60375,114.31791c-0.29436,5.13705 1.82534,9.88933 5.40105,13.11032c-2.78065,1.29121 -5.15736,3.34463 -6.83785,5.91605c-6.9313,-3.92961 -9.19577,-9.40338 -9.80944,-13.61915c4.4122,-0.24825 8.41958,-2.26669 11.2462,-5.40719z" data-paper-data="{&quot;index&quot;:null}" fill="url(#color-25)" stroke="#ed6b00" stroke-width="0"/><path d="M249.63926,126.13226c0.20155,1.55025 0.7951,3.74442 1.70085,6.15249c-1.56869,-1.83067 -3.53971,-3.31823 -5.79193,-4.31763c0.98777,-1.86745 1.62841,-3.95812 1.8288,-6.19404c0.80768,-9.0127 -5.84377,-16.97368 -14.85645,-17.78139c-2.85607,-0.25596 -5.60654,0.23714 -8.05724,1.31712c3.61139,-3.87065 9.33692,-6.85649 15.73013,-8.01886c1.76407,6.39668 7.33875,11.33705 14.33714,11.96421c5.42161,0.48589 10.46258,-1.72739 13.79487,-5.53022c4.05336,2.70598 7.1001,5.98241 8.22594,9.42734c-0.56723,-0.39122 -1.14587,-0.64539 -1.73068,-0.73073c-4.56755,-0.66638 -9.2301,-0.17528 -13.8447,-0.28418c-0.75355,-0.01776 -2.37614,-0.41221 -2.66368,-0.05468c-3.04403,3.78456 -5.08186,8.27845 -7.65339,12.39865c-0.21081,0.33769 -1.05173,1.40555 -1.01971,1.65192z" data-paper-data="{&quot;index&quot;:null}" fill="url(#color-26)" stroke="#ed6b00" stroke-width="0"/><path d="M245.23742,137.83377c-8.46311,-1.04543 -14.11865,-3.44296 -17.87719,-6.34676c-0.38844,-5.01621 -3.06556,-9.47762 -7.06456,-12.22715c-0.24806,-2.06389 -0.10976,-3.78566 0.03532,-4.81251c7.20633,-1.17626 12.98562,-7.10172 13.66742,-14.70987c0.02099,-0.23417 0.03696,-0.46765 0.04796,-0.7003c4.39421,-1.73153 9.45356,-2.59197 14.54371,-2.16951c1.41622,0.11753 2.85031,0.32097 4.28264,0.60165c-2.95602,1.43693 -5.43629,3.74253 -7.07979,6.61517c-2.8945,1.38408 -7.08785,-0.8567 -9.54998,1.20042c-4.22373,3.52896 -8.94788,8.06587 -9.43914,13.54782c-1.21261,13.53083 6.41896,15.2693 14.85645,17.78139c4.89244,1.4566 10.82896,0.87439 16.38244,-1.0652c7.06752,0.0023 13.25608,-4.54422 15.48807,-11.06829c0.14836,-0.22246 0.2909,-0.44654 0.42748,-0.67219c1.32146,-2.18332 2.69639,-5.2952 3.05026,-8.32073c0.02566,0.41016 0.02215,0.82134 -0.012,1.23295c-0.78594,9.46947 -4.65621,24.72113 -31.75909,21.11337z" data-paper-data="{&quot;index&quot;:null}" fill="url(#color-27)" stroke="#ed6b00" stroke-width="0"/></g></g><path d="M-11.98828,369.05082l1,-377l160.91797,-0.53253l0.08203,9.53253c0,0 -39.46962,6.29142 -75.5582,25.97667c-26.80308,14.62028 -51.53474,44.21584 -49.36246,61.1415c8.78971,68.48644 35.92067,279.88184 35.92067,279.88184z" fill="url(#color-28)" stroke="none" stroke-width="0" stroke-linecap="butt"/></g></g></svg>