<svg version="1.1" xmlns="http://www.w3.org/2000/svg" xmlns:xlink="http://www.w3.org/1999/xlink" width="43.10098" height="105.3059" viewBox="0,0,43.10098,105.3059"><defs><linearGradient x1="239.74787" y1="156.06832" x2="239.74787" y2="162.91937" gradientUnits="userSpaceOnUse" id="color-1"><stop offset="0" stop-color="#c28b5f"/><stop offset="1" stop-color="#ffb87d"/></linearGradient><radialGradient cx="235.71182" cy="133.41612" r="13.11833" gradientUnits="userSpaceOnUse" id="color-2"><stop offset="0" stop-color="#ffd9ba"/><stop offset="1" stop-color="#ffb87d"/></radialGradient><radialGradient cx="229.21564" cy="134.03046" r="10.07074" gradientUnits="userSpaceOnUse" id="color-3"><stop offset="0" stop-color="#303030"/><stop offset="1" stop-color="#292929"/></radialGradient><radialGradient cx="245.64374" cy="130.85061" r="2.65078" gradientUnits="userSpaceOnUse" id="color-4"><stop offset="0" stop-color="#787878"/><stop offset="1" stop-color="#292929"/></radialGradient><radialGradient cx="234.49144" cy="133.01564" r="4.17314" gradientUnits="userSpaceOnUse" id="color-5"><stop offset="0" stop-color="#a7a7a7"/><stop offset="1" stop-color="#292929"/></radialGradient></defs><g transform="translate(-219.89636,-129.64767)"><g data-paper-data="{&quot;isPaintingLayer&quot;:true}" fill-rule="nonzero" stroke-linejoin="miter" stroke-miterlimit="10" stroke-dasharray="" stroke-dashoffset="0" style="mix-blend-mode: normal"><path d="M248.55247,194.07742c-0.19932,-0.09906 -1.29976,3.48902 -2.16956,3.13114c-0.42781,-0.17602 0.81166,-2.30007 0.50313,-3.30132c-0.16332,-0.52999 -1.12758,4.14487 -2.10066,3.27318c-0.33407,-0.29926 1.14176,-3.41195 1.01257,-4.33409c-0.06918,-0.49364 -1.74967,4.92082 -2.41832,4.38025c-0.39693,-0.32089 1.12237,-3.09174 1.3002,-4.52479c0.08663,-0.69815 -1.70493,3.48236 -2.14286,2.9756c-0.26808,-0.3102 1.26548,-4.48019 1.24566,-4.54105c-0.11145,-0.34205 -1.76785,1.91574 -1.8077,1.20935c-0.07347,-1.30188 1.35196,-2.29453 2.54891,-3.27858c0.69933,-0.57493 1.14309,-1.66919 1.14309,-1.66919c0,0 1.54705,-2.60368 2.22389,-6.05259c0.16277,-0.82937 0.87827,-3.49518 1.03722,-4.34877c0.3762,-2.02024 0.67827,-4.03693 0.93887,-5.26992c0.56047,-2.65195 1.34712,-5.99457 1.34712,-5.99457l5.81475,1.11838c0,0 -1.04655,4.79189 -1.64244,7.61142c-0.24252,1.14747 -1.01023,1.87998 -1.45442,3.64242c-0.19911,0.79004 -1.52543,4.05119 -2.24252,6.07881c-1.19392,3.3759 -1.55802,5.53992 -1.55802,5.53992c0,0 -1.15666,4.56423 -1.57892,4.35436z" data-paper-data="{&quot;index&quot;:null}" fill="#ffb77d" stroke="#000000" stroke-width="0" stroke-linecap="butt"/><path d="M253.4469,159.57645c5.33555,0.62463 4.82024,4.18322 4.36335,6.10381c-0.45689,1.92059 1.23758,1.91679 -3.64825,1.3204c-4.12963,-0.50408 -3.47318,-0.71926 -3.0163,-2.63986c0.45689,-1.92059 -0.47748,-5.10965 2.30122,-4.78435z" data-paper-data="{&quot;index&quot;:null}" fill="#ffffff" stroke="#000000" stroke-width="0" stroke-linecap="butt"/><g><path d="M247.46951,227.69822c0,0 -3.11514,-25.61128 -4.26598,-29.95086c-0.37631,-1.41899 -3.46895,-1.35494 -3.46895,-1.35494c0,0 -3.22771,-4.09011 0.39661,-4.26877c3.0631,-0.151 9.91755,1.69644 9.91755,1.69644l5.41418,33.48412z" data-paper-data="{&quot;index&quot;:null}" fill="#726f7c" stroke="#000000" stroke-width="0" stroke-linecap="butt"/><path d="M261.88176,234.12972c-0.59204,0.02919 -2.64024,0.14382 -4.70195,0.1648c-1.25347,0.01276 -1.93026,-0.52339 -2.86955,-0.6201c-1.1825,-0.12175 -2.92412,0.36488 -3.78176,0.21542c-1.58033,-0.27541 -2.41005,-0.65996 -2.41005,-0.65996c0,0 -0.31927,-1.01091 -0.36333,-1.56981c-0.05936,-0.753 0.03922,-2.54203 0.03922,-2.54203c0,0 5.92117,-0.4116 8.24312,-0.32548c1.37397,0.05096 4.26728,0.43724 4.26728,0.43724c0,0 1.4883,0.54298 1.72268,0.95918c0.28706,0.50974 0.96992,1.94326 0.96992,1.94326c0,0 -0.28971,1.95679 -1.11559,1.99749z" data-paper-data="{&quot;index&quot;:null}" fill="#141415" stroke="#000000" stroke-width="0" stroke-linecap="butt"/><path d="M261.48443,231.57138c-0.24792,0.01222 0.7804,1.56512 -2.5493,1.4604c-3.14431,-0.09888 -2.83161,-1.05009 -3.93866,-1.07621c-2.31487,-0.05463 -2.55521,0.72171 -3.56121,0.61814c-0.35035,-0.03607 -0.51773,-0.08916 -1.83021,-0.88132c-0.90264,-0.54478 -0.75108,-1.71632 -1.38102,-2.31412c-0.92019,-0.87321 -0.90034,-1.84371 -0.90034,-1.84371l-0.22633,-3.04027c0,0 0.59441,2.18019 1.47293,2.96229c0.78603,0.69976 2.31317,-0.1328 2.79626,-0.15675c0.84592,-0.04194 -0.84891,-3.23016 -0.03924,-3.25181c0.43537,-0.01163 3.70671,-0.41709 3.70671,-0.41709c0,0 0.29913,3.56949 0.53279,3.57816c1.37397,0.05096 4.6306,0.41932 4.6306,0.41932c0,0 1.4883,0.54298 1.72269,0.95917c0.28706,0.50974 0.77545,2.9241 0.77545,2.9241c0,0 -0.38524,0.01899 -1.21113,0.05971z" data-paper-data="{&quot;index&quot;:null}" fill="#252527" stroke="#000000" stroke-width="0" stroke-linecap="butt"/><path d="M253.87871,229.00412l2.61073,-1.22134" fill="none" stroke="#ffffff" stroke-width="0.5" stroke-linecap="round"/><path d="M255.83442,229.27195l2.47171,-1.57872" fill="none" stroke="#ffffff" stroke-width="0.5" stroke-linecap="round"/><path d="M259.4081,227.88172l-1.38171,1.52499" fill="none" stroke="#ffffff" stroke-width="0.5" stroke-linecap="round"/><path d="M252.47655,225.18823l2.16807,-0.34968" fill="none" stroke="#969696" stroke-width="0.5" stroke-linecap="round"/><path d="M253.00279,226.01214l1.91988,-0.45887" fill="none" stroke="#969696" stroke-width="0.5" stroke-linecap="round"/></g><g><path d="M224.2676,227.27856l5.39744,-33.48683c0,0 6.85353,-1.85087 9.9167,-1.7014c3.62441,0.17684 0.39874,4.26857 0.39874,4.26857c0,0 -3.09267,-0.06251 -3.46826,1.35667c-1.14867,4.34016 -4.251,29.953 -4.251,29.953z" fill="#726f7c" stroke="#000000" stroke-width="0" stroke-linecap="butt"/><path d="M239.28771,233.07419c0,0 -0.4798,1.91905 -1.30572,1.87875c-0.59206,-0.02888 -2.64163,-0.11521 -4.69551,-0.29609c-1.2487,-0.10995 -1.86977,-0.70976 -2.7951,-0.89792c-1.16491,-0.23688 -2.94579,0.07699 -3.78468,-0.15566c-1.54579,-0.42873 -2.3339,-0.89261 -2.3339,-0.89261c0,0 -0.21883,-1.03728 -0.20797,-1.59783c0.01461,-0.75519 0.28778,-2.52599 0.28778,-2.52599c0,0 5.93302,0.16978 8.2354,0.48268c1.36239,0.18516 4.20401,0.85269 4.20401,0.85269c0,0 1.42802,0.68602 1.62056,1.12314c0.23581,0.53538 0.77511,2.02885 0.77511,2.02885z" data-paper-data="{&quot;index&quot;:null}" fill="#141415" stroke="#000000" stroke-width="0" stroke-linecap="butt"/><path d="M239.04807,232.4271c0,0 -0.38523,-0.0188 -1.21114,-0.05909c-0.24793,-0.0121 0.6235,1.63397 -2.67997,1.20393c-3.11954,-0.4061 -2.71527,-1.32213 -3.81445,-1.45646c-2.29841,-0.28089 -2.61359,0.46821 -3.60461,0.26669c-0.34514,-0.07019 -0.50652,-0.13939 -1.73517,-1.05617c-0.84499,-0.6305 -0.57952,-1.78157 -1.14796,-2.43814c-0.83034,-0.95907 -0.71561,-1.92295 -0.71561,-1.92295l0.07225,-3.04783c0,0 0.37823,2.2279 1.17598,3.09222c0.71378,0.77331 2.31506,0.09419 2.79818,0.11762c0.84596,0.04103 -0.52876,-3.29774 0.27915,-3.24005c0.43443,0.03102 3.72973,-0.05237 3.72973,-0.05237c0,0 -0.05159,3.58163 0.18011,3.61312c1.36238,0.18516 4.56734,0.87042 4.56734,0.87042c0,0 1.42802,0.68602 1.62056,1.12314c0.23582,0.53538 0.4856,2.98594 0.4856,2.98594z" data-paper-data="{&quot;index&quot;:null}" fill="#252527" stroke="#000000" stroke-width="0" stroke-linecap="butt"/><path d="M230.5189,229.06883l2.71773,-0.96003" fill="none" stroke="#ffffff" stroke-width="0.5" stroke-linecap="round"/><path d="M232.43902,229.52674l2.61433,-1.32928" fill="none" stroke="#ffffff" stroke-width="0.5" stroke-linecap="round"/><path d="M236.13157,228.49286l-1.52431,1.38248" fill="none" stroke="#ffffff" stroke-width="0.5" stroke-linecap="round"/><path d="M229.49685,225.13406l2.19189,-0.13586" fill="none" stroke="#969696" stroke-width="0.5" stroke-linecap="round"/><path d="M229.93996,226.0055l1.95557,-0.2688" fill="none" stroke="#969696" stroke-width="0.5" stroke-linecap="round"/></g><path d="M235.91979,162.91937v-6.85104h7.65615v6.85104z" fill="url(#color-1)" stroke="#000000" stroke-width="0" stroke-linecap="butt"/><path d="M229.63979,193.59141c0,0 0.16709,-5.5597 -0.35268,-10.94382c-0.35317,-3.65847 -1.40473,-6.95919 -1.56162,-9.45339c-0.29447,-4.68133 -0.2105,-13.38223 -0.2105,-13.38223c0,0 3.69178,-0.58477 5.4694,-0.21857c2.26281,0.46615 7.00656,2.78867 7.00656,2.78867c0,0 3.67689,-2.17061 5.59031,-2.58687c2.01891,-0.43921 6.22369,0.01677 6.22369,0.01677c0,0 -0.06905,9.21711 -0.22689,12.65629c-0.13965,3.04285 -0.88957,6.36811 -1.18346,10.87293c-0.3029,4.64296 -0.14784,10.42155 -0.14784,10.42155c0,0 -2.75697,-0.76932 -5.57187,-0.83754c-1.27833,-0.03098 -1.79126,1.00612 -2.99851,1.16532c-0.96496,0.12724 -2.63623,-0.61291 -3.56107,-0.64966c-0.69915,-0.02778 -2.04377,-0.5306 -2.53801,-0.53471c-0.99795,-0.0083 -1.61572,0.86529 -2.77345,1.02464c-1.34484,0.1851 -3.1641,-0.33939 -3.1641,-0.33939z" fill="#ffffff" stroke="#292e32" stroke-width="0" stroke-linecap="butt"/><path d="M252.80944,143.64573c0,7.73092 -5.73774,13.99807 -12.8156,13.99807c-7.07786,0 -12.8156,-6.26715 -12.8156,-13.99807c0,-7.73092 5.73774,-13.99806 12.8156,-13.99806c7.07786,0 12.8156,6.26714 12.8156,13.99806z" fill="url(#color-2)" stroke="none" stroke-width="0" stroke-linecap="butt"/><path d="M238.36341,145.01429c-0.5265,0.91349 -1.43258,0.38383 -1.43258,0.38383c-0.91393,-0.55722 -2.45095,-1.17574 -2.30203,-2.6961c0.1217,-1.24248 2.13973,-2.33997 3.2068,-2.10706c1.93572,0.42253 3.60144,3.95074 0.5278,4.41932z" fill="#191412" stroke="none" stroke-width="0.5" stroke-linecap="butt"/><path d="M242.78052,149.52889c0.14423,-0.46863 0.47533,-0.57039 0.71965,-0.57602c0.0776,-0.00492 0.15695,0.00165 0.23587,0.02089c-0.28158,-1.08168 -0.10408,-2.4792 -0.44462,-3.52597c0,0 -0.2501,-0.78449 0.51677,-1.04033c0.76687,-0.25584 1.01697,0.52865 1.01697,0.52865c0.4101,1.30859 0.71193,2.9192 0.68474,4.31641c-0.01019,0.5236 0.25251,1.23107 -0.14241,1.56432c-0.4098,0.34581 -1.06036,-0.06797 -1.59055,-0.10196l-0.46926,-0.15113c-0.09725,-0.03132 -0.18459,-0.07973 -0.25988,-0.14099c-0.1971,-0.14779 -0.41151,-0.42524 -0.26729,-0.89386z" fill="#191412" stroke="none" stroke-width="0.5" stroke-linecap="butt"/><path d="M250.25235,145.49719c-0.42472,0.9868 -1.15568,0.41464 -1.15568,0.41464c-0.73728,-0.60194 -1.97722,-1.27009 -1.85707,-2.91248c0.09818,-1.3422 1.72614,-2.52778 2.58696,-2.27617c1.56156,0.45643 2.90532,4.26783 0.42578,4.77401z" fill="#191412" stroke="none" stroke-width="0.5" stroke-linecap="butt"/><g stroke-linecap="butt"><path d="M231.90604,134.03999c-0.16984,0.01553 -0.60661,0.06221 -1.07903,0.1438c-0.52185,0.20742 -1.13106,0.41772 -1.59752,0.64771c-0.28909,0.89276 0.78709,1.80702 -0.65422,2.4752c-2.45813,1.13958 -1.71655,-2.03888 -0.89769,-3.03685c1.27069,-1.10653 3.14359,-1.2394 4.75566,-1.549c2.22048,-0.42645 4.38435,-1.08334 6.57971,-1.21737c0.08249,-0.08622 0.19535,-0.14411 0.32353,-0.15569l0.58612,-0.0529c0.29539,-0.07774 0.61637,-0.15861 0.95355,-0.23507c0.87645,-0.27394 1.93099,-0.41625 2.91353,-0.50866c0.4818,-0.09462 0.9333,-0.1389 1.30669,-0.10536c0.27388,-0.02025 0.5286,-0.03932 0.7561,-0.05986l0.61787,-0.05577c0.28142,-0.0254 0.53014,0.18214 0.55554,0.46356c0.0226,0.25047 -0.13931,0.47504 -0.37361,0.53931l-0.32968,0.09745c0.145,0.12181 0.27656,0.26112 0.39244,0.4197l0.23414,-0.11908l0.29765,0.58522c0.03177,0.05903 0.05238,0.12532 0.05879,0.19629c0.0254,0.28142 -0.18214,0.53014 -0.46355,0.55553c-0.08558,0.00772 -0.16814,-0.00609 -0.24232,-0.03698l-0.50702,-0.19878l0.00585,-0.01492l-0.04787,-0.00377c-0.36209,-0.22374 -0.73047,-0.39249 -1.09838,-0.50678c-0.55947,-0.02006 -1.148,-0.08122 -1.74789,-0.1302c-1.01464,0.1745 -1.9334,0.80247 -2.5904,1.87097c0,0 -0.26893,0.43524 -0.70416,0.1663c-0.43523,-0.26893 -0.1663,-0.70417 -0.1663,-0.70417c0.0575,-0.09265 0.11686,-0.18277 0.17799,-0.27034l-0.28392,0.09053c-0.03801,0.01299 -0.07817,0.02169 -0.11996,0.02546c-0.28142,0.0254 -0.53014,-0.18214 -0.55553,-0.46356c-0.01286,-0.14243 0.03395,-0.27647 0.11981,-0.37743c-0.2451,0.00049 -0.4766,0.01384 -0.6735,0.06241c-1.37524,0.33924 -3.48763,0.45199 -5.48058,0.75785c0.01121,0.24126 -0.14794,0.45435 -0.37516,0.51668l-0.59763,0.17665l-0.00571,-0.01931l-0.00747,0.00194z" fill="url(#color-3)" stroke="none" stroke-width="0.5"/><path d="M247.00008,130.30896c2.70896,-0.28418 2.68558,-0.24349 2.90043,1.58673c0.21485,1.83022 -0.78194,3.36186 -2.22639,3.42102c-1.44446,0.05917 -2.7896,-1.37656 -3.00445,-3.20678c-0.21485,-1.83022 -0.20983,-1.53449 2.33041,-1.80097z" data-paper-data="{&quot;index&quot;:null}" fill="url(#color-4)" stroke="#000000" stroke-width="0"/><path d="M240.38006,132.98982c0.35755,1.99142 -1.17444,3.9329 -3.4218,4.33639c-2.24735,0.40349 -4.35904,-0.88377 -4.71659,-2.8752c-0.35755,-1.99142 -0.40888,-2.02662 3.87102,-2.60142c4.01334,-0.53901 3.90982,-0.85119 4.26737,1.14023z" fill="url(#color-5)" stroke="#000000" stroke-width="0"/></g><path d="M226.89731,190.47373c0,0 -0.22282,-2.19506 -1.28615,-5.61437c-0.63866,-2.05368 -1.86364,-5.35534 -2.02066,-6.1562c-0.35033,-1.78654 -1.16268,-2.52436 -1.33737,-3.68791c-0.42926,-2.85902 -1.19744,-7.71771 -1.19744,-7.71771l6.7491,-1.18277c0,0 0.6006,3.38876 1.00434,6.07784c0.18771,1.25024 0.35279,3.29616 0.6023,5.34509c0.10544,0.86571 0.6852,3.56762 0.79715,4.4087c0.46554,3.4976 2.00174,6.1297 2.00174,6.1297c0,0 0.40959,1.10786 1.15784,1.6862c1.28069,0.98986 2.82187,1.9866 2.62145,3.30953c-0.10875,0.7178 -1.8009,-1.56208 -1.95894,-1.21377c-0.02812,0.06198 1.35258,4.28509 1.01828,4.60232c-0.5461,0.51824 -2.22087,-3.71349 -2.18423,-3.00508c0.07519,1.45413 1.56471,4.25624 1.08212,4.58536c-0.81295,0.55445 -2.25037,-4.9315 -2.3736,-4.42955c-0.2302,0.93766 1.17904,4.08733 0.77027,4.39399c-1.19064,0.89322 -1.87521,-3.84728 -2.10936,-3.30764c-0.44236,1.01947 0.78503,3.16688 0.28009,3.34911c-1.02663,0.3705 -1.96409,-3.26505 -2.20087,-3.16283c-0.50161,0.21657 -1.41607,-4.41001 -1.41607,-4.41001z" fill="#ffb77d" stroke="#000000" stroke-width="0" stroke-linecap="butt"/><path d="M227.78778,164.47986c0.35549,1.9462 1.08738,2.15767 -3.67849,2.71469c-5.63861,0.65902 -3.7014,0.64446 -4.05689,-1.30175c-0.35549,-1.9462 -0.6354,-5.55583 5.51987,-6.24844c3.20559,-0.36069 1.86,2.88928 2.21549,4.83548z" fill="#ffffff" stroke="#000000" stroke-width="0" stroke-linecap="butt"/></g></g></svg>