<svg version="1.1" xmlns="http://www.w3.org/2000/svg" xmlns:xlink="http://www.w3.org/1999/xlink" width="264.30215" height="177.47528" viewBox="0,0,264.30215,177.47528"><defs><radialGradient cx="310.06248" cy="237.95935" r="38.33033" gradientUnits="userSpaceOnUse" id="color-1"><stop offset="0" stop-color="#696969"/><stop offset="1" stop-color="#0a0a0a"/></radialGradient><linearGradient x1="310.06248" y1="200.34215" x2="310.06248" y2="275.57656" gradientUnits="userSpaceOnUse" id="color-2"><stop offset="0" stop-color="#636363"/><stop offset="1" stop-color="#424242"/></linearGradient><radialGradient cx="300.87785" cy="222.01428" r="30.93733" gradientUnits="userSpaceOnUse" id="color-3"><stop offset="0" stop-color="#705a8f"/><stop offset="1" stop-color="#483f57"/></radialGradient><linearGradient x1="279.05388" y1="229.6838" x2="340.68868" y2="229.6838" gradientUnits="userSpaceOnUse" id="color-4"><stop offset="0" stop-color="#272727"/><stop offset="1" stop-color="#101010"/></linearGradient><linearGradient x1="301.95623" y1="228.29501" x2="309.71191" y2="228.29501" gradientUnits="userSpaceOnUse" id="color-5"><stop offset="0" stop-color="#3e3844"/><stop offset="1" stop-color="#27242b"/></linearGradient><linearGradient x1="318.28666" y1="228.29356" x2="310.24821" y2="228.29356" gradientUnits="userSpaceOnUse" id="color-6"><stop offset="0" stop-color="#3e3844"/><stop offset="1" stop-color="#27242b"/></linearGradient><linearGradient x1="309.38788" y1="229.71193" x2="310.56044" y2="229.71193" gradientUnits="userSpaceOnUse" id="color-7"><stop offset="0" stop-color="#3e3844"/><stop offset="1" stop-color="#27242b"/></linearGradient><linearGradient x1="301.95623" y1="255.73811" x2="309.71191" y2="255.73811" gradientUnits="userSpaceOnUse" id="color-8"><stop offset="0" stop-color="#2a282c"/><stop offset="1" stop-color="#151515"/></linearGradient><linearGradient x1="310.24823" y1="255.54716" x2="318.00391" y2="255.54716" gradientUnits="userSpaceOnUse" id="color-9"><stop offset="0" stop-color="#2a282c"/><stop offset="1" stop-color="#151515"/></linearGradient><linearGradient x1="309.40864" y1="256.24886" x2="310.53968" y2="256.24886" gradientUnits="userSpaceOnUse" id="color-10"><stop offset="0" stop-color="#2a282c"/><stop offset="1" stop-color="#151515"/></linearGradient><radialGradient cx="305.40557" cy="261.19528" r="11.44685" gradientUnits="userSpaceOnUse" id="color-11"><stop offset="0" stop-color="#989898"/><stop offset="1" stop-color="#717171"/></radialGradient><radialGradient cx="292.91774" cy="230.23958" r="32.94971" gradientUnits="userSpaceOnUse" id="color-12"><stop offset="0" stop-color="#aa91c7"/><stop offset="1" stop-color="#827c94"/></radialGradient><linearGradient x1="277.26475" y1="232.64523" x2="342.95746" y2="232.64523" gradientUnits="userSpaceOnUse" id="color-13"><stop offset="0" stop-color="#272727"/><stop offset="1" stop-color="#101010"/></linearGradient><radialGradient cx="309.98956" cy="213.46656" r="2.40945" gradientUnits="userSpaceOnUse" id="color-14"><stop offset="0" stop-color="#ffffff"/><stop offset="1" stop-color="#8000ff"/></radialGradient><linearGradient x1="312.32597" y1="213.46656" x2="307.65313" y2="213.46656" gradientUnits="userSpaceOnUse" id="color-15"><stop offset="0" stop-color="#f7f0ff"/><stop offset="1" stop-color="#e1cdff"/></linearGradient></defs><g transform="translate(-269.71931,-160.0288)"><g data-paper-data="{&quot;isPaintingLayer&quot;:true}" fill-rule="nonzero" stroke-linejoin="miter" stroke-miterlimit="10" stroke-dasharray="" stroke-dashoffset="0" style="mix-blend-mode: normal"><text transform="translate(270.03136,187.4892) scale(0.6241,0.6241)" font-size="40" xml:space="preserve" fill="#ffffff" fill-rule="nonzero" stroke="none" stroke-width="1" stroke-linecap="butt" stroke-linejoin="miter" stroke-miterlimit="10" stroke-dasharray="" stroke-dashoffset="0" font-family="Malgun Gothic" font-weight="normal" text-anchor="start" style="mix-blend-mode: normal"><tspan x="0" dy="0">Locator Relay</tspan></text><text transform="translate(354.45435,215.62294) scale(0.45565,0.45565)" font-size="40" xml:space="preserve" fill="#d8d8d8" fill-rule="nonzero" stroke="none" stroke-width="1" stroke-linecap="butt" stroke-linejoin="miter" stroke-miterlimit="10" stroke-dasharray="" stroke-dashoffset="0" font-family="Malgun Gothic" font-weight="normal" text-anchor="start" style="mix-blend-mode: normal"><tspan x="0" dy="0">Obtained by:</tspan></text><text transform="translate(354.45435,256.62748) scale(0.45566,0.45566)" font-size="40" xml:space="preserve" fill="#d8d8d8" fill-rule="nonzero" stroke="none" stroke-width="1" stroke-linecap="butt" stroke-linejoin="miter" stroke-miterlimit="10" stroke-dasharray="" stroke-dashoffset="0" font-family="Malgun Gothic" font-weight="normal" text-anchor="start" style="mix-blend-mode: normal"><tspan x="0" dy="0">Materials:</tspan></text><text transform="translate(271.38374,296.92705) scale(0.45566,0.45566)" font-size="40" xml:space="preserve" fill="#d8d8d8" fill-rule="nonzero" stroke="none" stroke-width="1" stroke-linecap="butt" stroke-linejoin="miter" stroke-miterlimit="10" stroke-dasharray="" stroke-dashoffset="0" font-family="Malgun Gothic" font-weight="normal" text-anchor="start" style="mix-blend-mode: normal"><tspan x="0" dy="0">Description:</tspan></text><text transform="translate(355.17562,233.72207) scale(0.37382,0.37382)" font-size="40" xml:space="preserve" fill="#9f9f9f" fill-rule="nonzero" stroke="none" stroke-width="1" stroke-linecap="butt" stroke-linejoin="miter" stroke-miterlimit="10" stroke-dasharray="" stroke-dashoffset="0" font-family="Malgun Gothic" font-weight="normal" text-anchor="start" style="mix-blend-mode: normal"><tspan x="0" dy="0">Adv. Factory; augment</tspan></text><path d="M271.73215,275.57656v-75.23442h76.66066v75.23442z" fill="url(#color-1)" stroke="url(#color-2)" stroke-width="3.5" stroke-linecap="butt"/><text transform="translate(271.64329,315.44811) scale(0.37383,0.37383)" font-size="40" xml:space="preserve" fill="#9f9f9f" fill-rule="nonzero" stroke="none" stroke-width="1" stroke-linecap="butt" stroke-linejoin="miter" stroke-miterlimit="10" stroke-dasharray="" stroke-dashoffset="0" font-family="Malgun Gothic" font-weight="normal" text-anchor="start" style="mix-blend-mode: normal"><tspan x="0" dy="0">Allows the Warp Gate to find</tspan><tspan x="0" dy="48px">and pinpoint nearby galaxies.</tspan></text><path d="M279.29369,227.21859l-0.23983,-11.50426c0,0 20.25151,3.28693 30.69752,3.28693c10.08635,0 31.17714,-3.01302 31.17714,-3.01302v10.68253c0,0 -3.26533,22.37984 -30.44839,21.63141c-27.42061,-0.75496 -31.18643,-21.08358 -31.18643,-21.08358z" fill="url(#color-3)" stroke="url(#color-4)" stroke-width="1" stroke-linecap="butt"/><path d="M309.71191,213.8062l-7.75568,28.97755" fill="none" stroke="url(#color-5)" stroke-width="1.5" stroke-linecap="round"/><path d="M310.24821,213.27652l8.03843,30.03402" data-paper-data="{&quot;index&quot;:null}" fill="none" stroke="url(#color-6)" stroke-width="1.5" stroke-linecap="round"/><path d="M309.97415,216.47961v26.46461" fill="none" stroke="url(#color-7)" stroke-width="1.5" stroke-linecap="round"/><path d="M309.71191,250.51545l-7.75568,10.44534" fill="none" stroke="url(#color-8)" stroke-width="1.5" stroke-linecap="round"/><path d="M310.24822,250.32452l7.75568,10.44534" data-paper-data="{&quot;index&quot;:null}" fill="none" stroke="url(#color-9)" stroke-width="1.5" stroke-linecap="round"/><path d="M309.97415,261.01864v-9.53952" fill="none" stroke="url(#color-10)" stroke-width="1.5" stroke-linecap="round"/><path d="M298.66429,264.70677v-4.7764h22.89367v4.7764z" fill="url(#color-11)" stroke="#000000" stroke-width="1" stroke-linecap="butt"/><path d="M342.95746,214.45302c0,0 -0.19156,7.59454 -0.53115,10.74414c-0.34501,3.19984 -1.52296,8.30659 -1.52296,8.30659c0,0 -0.41369,13.60058 -21.61934,16.04543c-1.2477,0.14385 -4.82253,1.36547 -9.06143,1.35214c-3.8102,-0.01196 -8.29962,-1.23892 -9.69631,-1.45562c-20.49247,-3.17928 -21.00406,-15.94198 -21.00406,-15.94198c0,0 -1.59066,-4.33322 -1.95461,-7.14694c-0.44214,-3.41818 -0.26978,-11.90377 -0.26978,-11.90377c0,0 1.49996,-1.55865 2.7311,0.99759c0.49343,1.02452 2.44482,18.72752 6.58491,22.55168c2.95348,2.72812 13.98589,5.70073 23.34545,5.75914c9.35956,0.05841 21.20902,-3.50387 23.72355,-5.46545c5.75059,-4.48597 6.47184,-21.46034 6.90958,-22.42881c0.98468,-2.17848 2.36505,-1.4142 2.36505,-1.4142z" data-paper-data="{&quot;index&quot;:null}" fill="url(#color-12)" stroke="url(#color-13)" stroke-width="1" stroke-linecap="butt"/><path d="M309.98956,211.13015c1.29036,0 2.33641,1.04603 2.33641,2.33641c0,1.29036 -1.04603,2.33641 -2.33641,2.33641c-1.29036,0 -2.33641,-1.04603 -2.33641,-2.33641c0,-1.29036 1.04603,-2.33641 2.33641,-2.33641z" data-paper-data="{&quot;index&quot;:null}" fill="url(#color-14)" stroke="url(#color-15)" stroke-width="0.5" stroke-linecap="butt"/><text transform="translate(355.17563,273.23326) scale(0.2292,0.2292)" font-size="40" xml:space="preserve" fill="#9f9f9f" fill-rule="nonzero" stroke="none" stroke-width="1" stroke-linecap="butt" stroke-linejoin="miter" stroke-miterlimit="10" stroke-dasharray="" stroke-dashoffset="0" font-family="Malgun Gothic" font-weight="normal" text-anchor="start" style="mix-blend-mode: normal"><tspan x="0" dy="0">Xenon (x350), Gold (x1.25k), Titanium (x1k)</tspan></text></g></g></svg>