<svg version="1.1" xmlns="http://www.w3.org/2000/svg" xmlns:xlink="http://www.w3.org/1999/xlink" width="47.82548" height="104.12799" viewBox="0,0,47.82548,104.12799"><defs><radialGradient cx="226.79379" cy="167.56812" r="20.58604" gradientUnits="userSpaceOnUse" id="color-1"><stop offset="0" stop-color="#ff8700"/><stop offset="1" stop-color="#a77426"/></radialGradient><radialGradient cx="241.62593" cy="166.93512" r="20.58605" gradientUnits="userSpaceOnUse" id="color-2"><stop offset="0" stop-color="#ff8700"/><stop offset="1" stop-color="#a77426"/></radialGradient><linearGradient x1="239.74788" y1="156.06833" x2="239.74788" y2="162.91939" gradientUnits="userSpaceOnUse" id="color-3"><stop offset="0" stop-color="#2b2b2b"/><stop offset="1" stop-color="#3f3f3f"/></linearGradient><radialGradient cx="235.80052" cy="134.5081" r="13.11833" gradientUnits="userSpaceOnUse" id="color-4"><stop offset="0" stop-color="#7bccb1"/><stop offset="1" stop-color="#618c94"/></radialGradient><radialGradient cx="235.80052" cy="134.5081" r="13.11833" gradientUnits="userSpaceOnUse" id="color-5"><stop offset="0" stop-color="#727272"/><stop offset="1" stop-color="#333333"/></radialGradient><radialGradient cx="238.90385" cy="140.20256" r="11.56644" gradientUnits="userSpaceOnUse" id="color-6"><stop offset="0" stop-color="#ffffff" stop-opacity="0.74902"/><stop offset="1" stop-color="#abffe7" stop-opacity="0.56471"/></radialGradient><radialGradient cx="252.48005" cy="167.48258" r="19.42996" gradientUnits="userSpaceOnUse" id="color-7"><stop offset="0" stop-color="#6f8281"/><stop offset="1" stop-color="#576766"/></radialGradient><radialGradient cx="235.77188" cy="168.37063" r="17.31619" gradientUnits="userSpaceOnUse" id="color-8"><stop offset="0" stop-color="#7a908e"/><stop offset="1" stop-color="#576766"/></radialGradient><radialGradient cx="223.04891" cy="168.01372" r="19.92922" gradientUnits="userSpaceOnUse" id="color-9"><stop offset="0" stop-color="#6f8281"/><stop offset="1" stop-color="#576766"/></radialGradient></defs><g transform="translate(-218.58589,-130.87877)"><g data-paper-data="{&quot;isPaintingLayer&quot;:true}" fill-rule="nonzero" stroke-linejoin="miter" stroke-miterlimit="10" stroke-dasharray="" stroke-dashoffset="0" style="mix-blend-mode: normal"><g stroke="none" stroke-width="0" stroke-linecap="butt"><path d="M237.44528,176.57589c-0.32393,21.49106 -0.0929,21.92253 -7.52773,21.814c-7.84376,-0.1145 -7.60283,-0.76234 -7.52773,-21.814c0.07862,-22.03858 0.60596,-21.65002 7.52773,-21.814c7.33196,-0.1737 7.85978,-0.2156 7.52773,21.814z" fill="url(#color-1)"/><path d="M252.27741,175.94289c-0.32393,21.49106 -0.0929,21.92253 -7.52773,21.814c-7.84376,-0.1145 -7.60283,-0.76235 -7.52773,-21.814c0.07862,-22.03858 0.60596,-21.65001 7.52773,-21.81399c7.33196,-0.1737 7.85977,-0.21561 7.52773,21.81399z" fill="url(#color-2)"/></g><g><path d="M239.26802,192.70251c3.58729,-0.54681 10.75801,0.56803 10.75801,0.56803l8.07665,32.86834l-7.5521,1.15118c0,0 -5.16017,-25.04659 -6.47017,-28.92541c-0.37128,-1.09931 -3.57346,-1.55788 -3.57346,-1.55788c0,0 -4.27071,-3.6421 -1.23892,-4.10424z" fill="#343331" stroke="#000000" stroke-width="0" stroke-linecap="butt"/><path d="M265.505,232.18221c-0.58599,0.08932 -2.61185,0.41195 -4.66072,0.64277c-1.24566,0.14035 -1.97352,-0.3241 -2.91776,-0.32465c-1.18875,-0.00068 -2.87175,0.66076 -3.74017,0.59941c-1.60016,-0.11304 -2.46473,-0.41111 -2.46473,-0.41111c0,0 -0.42055,-0.97315 -0.5213,-1.52466c-0.13574,-0.74304 -0.21985,-2.5328 -0.21985,-2.5328c0,0 5.84848,-1.01244 8.16712,-1.16322c1.37202,-0.08923 4.28961,0.00039 4.28961,0.00039c0,0 1.53585,0.3886 1.8114,0.77875c0.33748,0.47785 1.16277,1.83437 1.16277,1.83437c0,0 -0.08894,1.97612 -0.90639,2.10072z" data-paper-data="{&quot;index&quot;:null}" fill="#141415" stroke="#000000" stroke-width="0" stroke-linecap="butt"/><path d="M264.8492,229.67764c-0.24539,0.03741 0.93572,1.47751 -2.38733,1.71241c-3.13803,0.22182 -2.92383,-0.75628 -4.02778,-0.66953c-2.30839,0.18138 -2.46843,0.97816 -3.47974,0.97757c-0.35219,-0.00021 -0.52412,-0.03596 -1.91043,-0.69036c-0.95341,-0.45004 -0.92194,-1.63091 -1.6095,-2.16144c-1.00433,-0.77496 -1.08341,-1.74244 -1.08341,-1.74244l-0.53477,-3.00143c0,0 0.81334,2.10832 1.76693,2.7969c0.8532,0.61608 2.28762,-0.36767 2.76576,-0.44069c0.83726,-0.12787 -1.17344,-3.12692 -0.37019,-3.23092c0.43192,-0.05592 3.64497,-0.7924 3.64497,-0.7924c0,0 0.66107,3.52046 0.89441,3.50529c1.37202,-0.08923 4.64923,-0.05442 4.64923,-0.05442c0,0 1.53585,0.3886 1.81141,0.77875c0.33748,0.47785 1.0692,2.82993 1.0692,2.82993c0,0 -0.38129,0.05812 -1.19875,0.18273z" data-paper-data="{&quot;index&quot;:null}" fill="#252527" stroke="#000000" stroke-width="0" stroke-linecap="butt"/><path d="M257.02158,227.89826l2.47278,-1.48087" fill="none" stroke="#ffffff" stroke-width="0.5" stroke-linecap="round"/><path d="M258.9944,227.96552l2.29811,-1.82221" fill="none" stroke="#ffffff" stroke-width="0.5" stroke-linecap="round"/><path d="M261.18869,227.87635l1.21924,-1.65776" fill="none" stroke="#ffffff" stroke-width="0.5" stroke-linecap="round"/><path d="M255.23812,224.245l2.12119,-0.56866" fill="none" stroke="#969696" stroke-width="0.5" stroke-linecap="round"/><path d="M257.7087,224.35905l-1.86316,0.65199" fill="none" stroke="#969696" stroke-width="0.5" stroke-linecap="round"/></g><path d="M235.9198,162.91939v-6.85104h7.65615v6.85104z" fill="url(#color-3)" stroke="#000000" stroke-width="0" stroke-linecap="butt"/><g stroke="none" stroke-linecap="butt"><path d="M252.95749,144.18413c0.04509,7.3914 -5.65598,13.41832 -12.73371,13.4615c-7.07773,0.04318 -12.85192,-5.91372 -12.89701,-13.30512c-0.04509,-7.3914 5.65598,-13.41832 12.73371,-13.4615c7.07773,-0.04318 12.85192,5.91372 12.89701,13.30512z" fill="url(#color-4)" stroke-width="0"/><path d="M252.95749,144.18413c0.04509,7.3914 -5.65598,13.41832 -12.73371,13.4615c-7.07773,0.04318 -12.85192,-5.91372 -12.89701,-13.30512c-0.04509,-7.3914 5.65598,-13.41832 12.73371,-13.4615c7.07773,-0.04318 12.85192,5.91372 12.89701,13.30512zM252.67416,143.3062c-0.03369,-5.52275 -4.53807,-9.9725 -10.06082,-9.9388c-0.69723,0.00425 -1.37737,0.07977 -2.03354,0.21958c-0.07261,-0.00112 -0.1454,-0.00145 -0.21837,-0.001c-5.52275,0.03369 -9.9725,4.53807 -9.9388,10.06082c0.00937,1.53593 0.36452,2.98885 0.99119,4.28544c1.31672,3.37742 4.41523,5.85958 8.13404,6.29905c0.9751,0.30996 2.01473,0.47436 3.0932,0.46778c5.4863,-0.03347 9.91373,-4.47883 9.93889,-9.95163c0.065,-0.47081 0.09719,-0.95203 0.09421,-1.44124z" fill="url(#color-5)" stroke-width="0"/><path d="M245.49316,150.76296c-0.98807,0.15405 -1.14211,-0.83401 -1.14211,-0.83401l-0.04734,-0.30359c-0.19431,-1.25138 -0.28453,-2.49449 -0.37501,-3.75718c0,0 -0.07147,-0.99745 0.92598,-1.06891c0.99745,-0.07147 1.06892,0.92598 1.06892,0.92598c0.08651,1.20734 0.16889,2.39578 0.35623,3.592l0.04734,0.30359c0,0 0.15406,0.98807 -0.83401,1.14212z" fill="#191412" stroke-width="0.5"/><path d="M248.8659,145.25798c-0.36829,-1.30849 1.70814,-4.13433 1.70814,-4.13433c0,0 2.03653,2.44202 2.07385,4.08318c0.0397,1.74614 -3.33134,1.6523 -3.78199,0.05115z" fill="#191412" stroke-width="0.5"/><path d="M235.77059,145.02807c-0.27584,-1.38446 2.59603,-4.05527 2.59603,-4.05527c0,0 2.35166,2.49321 2.14913,4.16906c-0.21548,1.78304 -4.40764,1.58033 -4.74518,-0.11378z" data-paper-data="{&quot;index&quot;:null}" fill="#191412" stroke-width="0.5"/><g fill="#00ffcc" stroke-width="0.5"><path d="M241.7161,137.82844c-0.0024,-0.39455 0.31547,-0.71633 0.71002,-0.71874c0.39455,-0.0024 0.71633,0.31547 0.71874,0.71002c0.0024,0.39455 -0.31547,0.71633 -0.71002,0.71874c-0.39455,0.0024 -0.71633,-0.31547 -0.71874,-0.71002z"/><path d="M243.67416,134.96294c-0.0024,-0.39455 0.31547,-0.71634 0.71002,-0.71875c0.39455,-0.0024 0.71633,0.31548 0.71874,0.71003c0.0024,0.39455 -0.31547,0.71633 -0.71002,0.71874c-0.39455,0.0024 -0.71633,-0.31547 -0.71874,-0.71002z"/><path d="M245.66749,137.87751c-0.0024,-0.39455 0.31547,-0.71633 0.71002,-0.71874c0.39455,-0.0024 0.71633,0.31547 0.71874,0.71002c0.0024,0.39455 -0.31547,0.71633 -0.71002,0.71874c-0.39455,0.0024 -0.71633,-0.31547 -0.71874,-0.71002z"/></g><path d="M253.58322,143.87107c0.03679,6.0287 -5.11177,10.94751 -11.49963,10.98649c-6.38786,0.03897 -11.59604,-4.81665 -11.63282,-10.84535c-0.03679,-6.0287 5.11177,-10.94751 11.49963,-10.98649c6.38786,-0.03897 11.59604,4.81665 11.63282,10.84535z" fill="url(#color-6)" stroke-width="0"/></g><g><path d="M220.65571,225.57177l9.38701,-32.59423c0,0 7.02642,-1.01288 10.04936,-0.49597c3.5768,0.61161 -0.1177,4.28555 -0.1177,4.28555c0,0 -3.06269,-0.43414 -3.60631,0.92955c-1.6625,4.17044 -7.82375,29.224 -7.82375,29.224z" fill="#343331" stroke="#000000" stroke-width="0" stroke-linecap="butt"/><path d="M235.19106,233.29125c0,0 -0.70719,1.84738 -1.52227,1.70801c-0.58429,-0.09991 -2.60857,-0.43219 -4.62579,-0.85883c-1.2264,-0.25938 -1.77081,-0.92954 -2.66676,-1.22768c-1.12796,-0.37531 -2.93365,-0.27797 -3.73846,-0.60988c-1.48299,-0.61158 -2.20957,-1.16692 -2.20957,-1.16692c0,0 -0.09245,-1.05608 -0.01424,-1.61124c0.10535,-0.74794 0.58958,-2.47302 0.58958,-2.47302c0,0 5.86949,0.88235 8.11752,1.46997c1.33021,0.34772 4.07088,1.35228 4.07088,1.35228c0,0 1.3351,0.85284 1.47366,1.30994c0.16968,0.55985 0.52539,2.10737 0.52539,2.10737z" data-paper-data="{&quot;index&quot;:null}" fill="#141415" stroke="#000000" stroke-width="0" stroke-linecap="butt"/><path d="M235.03099,232.62003c0,0 -0.38017,-0.065 -1.19524,-0.20438c-0.24468,-0.04183 0.42239,1.69712 -2.80535,0.87277c-3.04803,-0.77846 -2.53648,-1.63919 -3.61153,-1.90479c-2.24792,-0.55537 -2.65093,0.15037 -3.61051,-0.16891c-0.33418,-0.1112 -0.48608,-0.19933 -1.5955,-1.25725c-0.76299,-0.72759 -0.36097,-1.83836 -0.84629,-2.55854c-0.70893,-1.05201 -0.47906,-1.99509 -0.47906,-1.99509l0.43841,-3.017c0,0 0.10743,2.25723 0.79543,3.21125c0.61556,0.85356 2.28692,0.37203 2.7637,0.4534c0.83489,0.14251 -0.12817,-3.3374 0.66692,-3.18293c0.42754,0.08306 3.70894,0.39673 3.70894,0.39673c0,0 -0.48212,3.54939 -0.25589,3.60853c1.3302,0.34772 4.42944,1.41359 4.42944,1.41359c0,0 1.3351,0.85284 1.47366,1.30994c0.16968,0.55987 0.12284,3.02267 0.12284,3.02267z" data-paper-data="{&quot;index&quot;:null}" fill="#252527" stroke="#000000" stroke-width="0" stroke-linecap="butt"/><path d="M229.78132,227.63394l-2.8135,0.62609" data-paper-data="{&quot;index&quot;:null}" fill="none" stroke="#ffffff" stroke-width="0.5" stroke-linecap="round"/><path d="M231.57417,227.94049l-2.75527,1.0051" data-paper-data="{&quot;index&quot;:null}" fill="none" stroke="#ffffff" stroke-width="0.5" stroke-linecap="round"/><path d="M232.60902,228.36349l-1.67957,1.18905" data-paper-data="{&quot;index&quot;:null}" fill="none" stroke="#ffffff" stroke-width="0.5" stroke-linecap="round"/><path d="M226.42659,224.23085l2.19231,0.12883" data-paper-data="{&quot;index&quot;:null}" fill="none" stroke="#969696" stroke-width="0.5" stroke-linecap="round"/><path d="M228.73532,225.11772l-1.97371,0.03156" data-paper-data="{&quot;index&quot;:null}" fill="none" stroke="#969696" stroke-width="0.5" stroke-linecap="round"/></g><g><path d="M253.76702,199.29301c0,0 0.76968,-2.94165 0.32258,-6.43964c-0.10751,-0.84118 -0.24755,-3.60078 -0.36737,-4.46404c-0.28357,-2.0431 -0.64513,-4.06127 -0.78507,-5.3172c-0.30102,-2.70131 -1.67471,-15.90706 -1.67471,-15.90706c0,0 -0.65045,-7.1868 0.34286,-7.31038c7.26528,-0.90389 5.97379,6.26021 5.97379,6.26021c0,0 -0.0714,6.5888 0.42729,13.57623c0.37513,5.25628 1.3267,10.83849 1.46066,13.45244c0.15855,3.09364 -0.13994,7.07843 -0.13994,7.07843z" data-paper-data="{&quot;index&quot;:null}" fill="url(#color-7)" stroke="#000000" stroke-width="0" stroke-linecap="butt"/><path d="M258.23137,209.1077c-0.51692,-0.04424 -0.283,-3.06904 -0.95251,-3.93786c-0.3544,-0.45989 0.68313,4.62415 -0.65257,4.07237c-0.45856,-0.18944 -0.41924,-3.9267 -0.87026,-4.77187c-0.24143,-0.45245 -0.19986,5.21854 -1.09788,4.89529c-0.53308,-0.19189 -0.25379,-3.09851 -0.55007,-4.52192c-0.14435,-0.69346 -0.34106,-5.55068 -0.34106,-5.55068l5.56009,0.929c0,0 -0.02521,2.79383 -0.19023,5.13641c-0.14849,2.10783 -0.40774,3.79187 -0.90551,3.74928z" data-paper-data="{&quot;index&quot;:null}" fill="#323a3a" stroke="#000000" stroke-width="0" stroke-linecap="butt"/><path d="M257.29839,166.72797l-5.74161,0.45608" fill="none" stroke="#00ffb0" stroke-width="1" stroke-linecap="round"/><path d="M257.49593,168.40971l-5.86994,0.58073" fill="none" stroke="#00ffb0" stroke-width="1" stroke-linecap="round"/><path d="M257.43682,170.34075l-5.74161,0.45608" fill="none" stroke="#00ffb0" stroke-width="1" stroke-linecap="round"/></g><g stroke-width="0" stroke-linecap="butt"><path d="M229.6398,193.59143c0,0 0.16709,-5.5597 -0.35268,-10.94382c-0.35317,-3.65847 -1.40473,-6.95919 -1.56162,-9.45339c-0.29447,-4.68133 -0.2105,-13.38223 -0.2105,-13.38223c0,0 3.69178,-0.58477 5.4694,-0.21857c2.26281,0.46615 7.00656,2.78867 7.00656,2.78867c0,0 3.67689,-2.17061 5.59031,-2.58687c2.01891,-0.43921 6.22369,0.01677 6.22369,0.01677c0,0 -0.06905,9.21711 -0.22689,12.65629c-0.13965,3.04285 -0.88957,6.36811 -1.18346,10.87293c-0.3029,4.64296 -0.14784,10.42155 -0.14784,10.42155c0,0 -2.75697,-0.76932 -5.57187,-0.83754c-1.27833,-0.03098 -1.79126,1.00612 -2.99851,1.16532c-0.96496,0.12724 -2.63623,-0.61291 -3.56107,-0.64966c-0.69915,-0.02778 -2.04377,-0.5306 -2.53801,-0.53471c-0.99795,-0.0083 -1.61572,0.86529 -2.77345,1.02464c-1.34484,0.1851 -3.1641,-0.33939 -3.1641,-0.33939z" fill="url(#color-8)" stroke="#292e32"/><path d="M246.91518,166.62653c3.55914,-0.03151 3.40064,0.87953 3.40064,1.96449c0,1.08496 0.79843,2.00343 -3.40064,1.96449c-4.03819,-0.03744 -3.33404,1.01625 -3.40064,-1.96449c-0.05453,-2.44079 -0.63741,-1.92875 3.40064,-1.96449z" data-paper-data="{&quot;index&quot;:null}" fill="#c9ffe7" stroke="#000000"/></g><g><path d="M218.6478,199.87935c0,0 -0.18259,-3.99258 0.07937,-7.07947c0.22135,-2.60826 1.38243,-8.15648 1.93693,-13.39783c0.73711,-6.96758 0.87188,-13.55542 0.87188,-13.55542c0,0 -1.33065,-6.6165 6.2561,-5.74696c1.03914,0.1191 0.2448,7.20844 0.2448,7.20844c0,0 -1.83915,12.94928 -2.23607,15.63936c-0.18454,1.25072 -0.62244,3.25602 -0.98048,5.28881c-0.15127,0.85889 -0.38352,3.61253 -0.52137,4.44976c-0.57325,3.48157 0.12978,6.44698 0.12978,6.44698z" data-paper-data="{&quot;index&quot;:null}" fill="url(#color-9)" stroke="#000000" stroke-width="0" stroke-linecap="butt"/><path d="M218.68195,205.01942c-0.09653,-2.34681 -0.03414,-5.14007 -0.03414,-5.14007l5.78094,-0.74633c0,0 -0.35728,4.84834 -0.52856,5.53672c-0.35156,1.41299 -0.15468,4.32732 -0.7122,4.50163c-0.93917,0.29366 -0.7166,-5.37312 -0.98067,-4.92881c-0.49331,0.82997 -0.57097,4.56664 -1.05131,4.74096c-1.39916,0.50773 -0.16493,-4.53976 -0.54609,-4.09171c-0.72008,0.84644 -0.57388,3.8774 -1.11,3.90467c-0.51626,0.02626 -0.73111,-1.66542 -0.81797,-3.77706z" data-paper-data="{&quot;index&quot;:null}" fill="#323a3a" stroke="#000000" stroke-width="0" stroke-linecap="butt"/><path d="M221.46146,167.43834l6.18246,0.90161" fill="none" stroke="#00ffb0" stroke-width="1" stroke-linecap="round"/><path d="M221.46146,169.24156l5.92486,0.90161" fill="none" stroke="#00ffb0" stroke-width="1" stroke-linecap="round"/><path d="M227.25752,172.20398l-5.79606,-1.03041" fill="none" stroke="#00ffb0" stroke-width="1" stroke-linecap="round"/></g></g></g></svg>