<svg version="1.1" xmlns="http://www.w3.org/2000/svg" xmlns:xlink="http://www.w3.org/1999/xlink" width="19.28443" height="18.82908" viewBox="0,0,19.28443,18.82908"><defs><radialGradient cx="240.00005" cy="180.00007" r="9.41454" gradientUnits="userSpaceOnUse" id="color-1"><stop offset="0" stop-color="#735545" stop-opacity="0.30645"/><stop offset="1" stop-color="#735545" stop-opacity="0"/></radialGradient><radialGradient cx="240.00003" cy="180.00004" r="7.64324" gradientUnits="userSpaceOnUse" id="color-2"><stop offset="0" stop-color="#ea9d73" stop-opacity="0.62903"/><stop offset="1" stop-color="#ea9d73" stop-opacity="0"/></radialGradient><radialGradient cx="240.00005" cy="180.00007" r="6.47063" gradientUnits="userSpaceOnUse" id="color-3"><stop offset="0" stop-color="#ff8c4e"/><stop offset="1" stop-color="#ff8c4e" stop-opacity="0"/></radialGradient><radialGradient cx="240.00005" cy="180.00007" r="5.32083" gradientUnits="userSpaceOnUse" id="color-4"><stop offset="0" stop-color="#ff631f"/><stop offset="1" stop-color="#ff8340"/></radialGradient><linearGradient x1="230.86572" y1="183.03803" x2="230.65589" y2="182.27889" gradientUnits="userSpaceOnUse" id="color-5"><stop offset="0" stop-color="#7b6f80"/><stop offset="1" stop-color="#382c3f"/></linearGradient><linearGradient x1="231.449" y1="183.04098" x2="231.15299" y2="181.97005" gradientUnits="userSpaceOnUse" id="color-6"><stop offset="0" stop-color="#ababab"/><stop offset="1" stop-color="#7e7e7e"/></linearGradient><linearGradient x1="231.32601" y1="182.59604" x2="231.27486" y2="182.41096" gradientUnits="userSpaceOnUse" id="color-7"><stop offset="0" stop-color="#323232"/><stop offset="1" stop-color="#232323"/></linearGradient><linearGradient x1="231.24781" y1="182.31318" x2="231.20778" y2="182.1683" gradientUnits="userSpaceOnUse" id="color-8"><stop offset="0" stop-color="#272727"/><stop offset="1" stop-color="#191919"/></linearGradient><linearGradient x1="231.3942" y1="182.84273" x2="231.35417" y2="182.69793" gradientUnits="userSpaceOnUse" id="color-9"><stop offset="0" stop-color="#393939"/><stop offset="1" stop-color="#323232"/></linearGradient><linearGradient x1="231.18705" y1="182.09327" x2="231.16389" y2="182.00946" gradientUnits="userSpaceOnUse" id="color-10"><stop offset="0" stop-color="#1f1f1f"/><stop offset="1" stop-color="#191919"/></linearGradient><linearGradient x1="231.4381" y1="183.00157" x2="231.41493" y2="182.91776" gradientUnits="userSpaceOnUse" id="color-11"><stop offset="0" stop-color="#515151"/><stop offset="1" stop-color="#3d3d3d"/></linearGradient><linearGradient x1="231.24186" y1="182.97785" x2="231.00766" y2="182.1306" gradientUnits="userSpaceOnUse" id="color-12"><stop offset="0" stop-color="#4b00bb"/><stop offset="1" stop-color="#30004f"/></linearGradient><linearGradient x1="230.39574" y1="183.18988" x2="230.17279" y2="182.38328" gradientUnits="userSpaceOnUse" id="color-13"><stop offset="0" stop-color="#4b00ba"/><stop offset="1" stop-color="#300050"/></linearGradient><linearGradient x1="230.99861" y1="182.65523" x2="230.96389" y2="182.5296" gradientUnits="userSpaceOnUse" id="color-14"><stop offset="0" stop-color="#806f89"/><stop offset="1" stop-color="#685473"/></linearGradient><linearGradient x1="230.94553" y1="182.46317" x2="230.91835" y2="182.36485" gradientUnits="userSpaceOnUse" id="color-15"><stop offset="0" stop-color="#6a5675"/><stop offset="1" stop-color="#5c4768"/></linearGradient><linearGradient x1="231.0449" y1="182.82276" x2="231.01772" y2="182.72437" gradientUnits="userSpaceOnUse" id="color-16"><stop offset="0" stop-color="#97899e"/><stop offset="1" stop-color="#7f6e88"/></linearGradient><linearGradient x1="230.90427" y1="182.31391" x2="230.88855" y2="182.25703" gradientUnits="userSpaceOnUse" id="color-17"><stop offset="0" stop-color="#544c58"/><stop offset="1" stop-color="#4d3b58"/></linearGradient><linearGradient x1="231.0747" y1="182.93057" x2="231.05898" y2="182.87362" gradientUnits="userSpaceOnUse" id="color-18"><stop offset="0" stop-color="#a594ac"/><stop offset="1" stop-color="#96889d"/></linearGradient><linearGradient x1="230.81161" y1="182.70691" x2="230.77689" y2="182.58127" gradientUnits="userSpaceOnUse" id="color-19"><stop offset="0" stop-color="#806f89"/><stop offset="1" stop-color="#685473"/></linearGradient><linearGradient x1="230.75853" y1="182.51488" x2="230.73135" y2="182.41656" gradientUnits="userSpaceOnUse" id="color-20"><stop offset="0" stop-color="#6a5675"/><stop offset="1" stop-color="#5c4768"/></linearGradient><linearGradient x1="230.85791" y1="182.87442" x2="230.83072" y2="182.77611" gradientUnits="userSpaceOnUse" id="color-21"><stop offset="0" stop-color="#97899e"/><stop offset="1" stop-color="#7f6e88"/></linearGradient><linearGradient x1="230.71728" y1="182.36565" x2="230.70154" y2="182.3087" gradientUnits="userSpaceOnUse" id="color-22"><stop offset="0" stop-color="#544c58"/><stop offset="1" stop-color="#4d3b58"/></linearGradient><linearGradient x1="230.88771" y1="182.98224" x2="230.87198" y2="182.92537" gradientUnits="userSpaceOnUse" id="color-23"><stop offset="0" stop-color="#a594ac"/><stop offset="1" stop-color="#96889d"/></linearGradient><linearGradient x1="230.6246" y1="182.75865" x2="230.58988" y2="182.63301" gradientUnits="userSpaceOnUse" id="color-24"><stop offset="0" stop-color="#806f89"/><stop offset="1" stop-color="#685473"/></linearGradient><linearGradient x1="230.57152" y1="182.56658" x2="230.54434" y2="182.46826" gradientUnits="userSpaceOnUse" id="color-25"><stop offset="0" stop-color="#6a5675"/><stop offset="1" stop-color="#5c4768"/></linearGradient><linearGradient x1="230.6709" y1="182.92609" x2="230.64373" y2="182.82777" gradientUnits="userSpaceOnUse" id="color-26"><stop offset="0" stop-color="#97899e"/><stop offset="1" stop-color="#7f6e88"/></linearGradient><linearGradient x1="230.53027" y1="182.41731" x2="230.51454" y2="182.36038" gradientUnits="userSpaceOnUse" id="color-27"><stop offset="0" stop-color="#544c58"/><stop offset="1" stop-color="#4d3b58"/></linearGradient><linearGradient x1="230.7007" y1="183.03395" x2="230.68497" y2="182.97704" gradientUnits="userSpaceOnUse" id="color-28"><stop offset="0" stop-color="#a594ac"/><stop offset="1" stop-color="#96889d"/></linearGradient><linearGradient x1="230.43759" y1="182.81031" x2="230.40287" y2="182.68468" gradientUnits="userSpaceOnUse" id="color-29"><stop offset="0" stop-color="#806f89"/><stop offset="1" stop-color="#685473"/></linearGradient><linearGradient x1="230.38451" y1="182.61825" x2="230.35733" y2="182.51993" gradientUnits="userSpaceOnUse" id="color-30"><stop offset="0" stop-color="#6a5675"/><stop offset="1" stop-color="#5c4768"/></linearGradient><linearGradient x1="230.48389" y1="182.97777" x2="230.45671" y2="182.87944" gradientUnits="userSpaceOnUse" id="color-31"><stop offset="0" stop-color="#97899e"/><stop offset="1" stop-color="#7f6e88"/></linearGradient><linearGradient x1="230.34326" y1="182.46898" x2="230.32753" y2="182.41211" gradientUnits="userSpaceOnUse" id="color-32"><stop offset="0" stop-color="#544c58"/><stop offset="1" stop-color="#4d3b58"/></linearGradient><linearGradient x1="230.5137" y1="183.08565" x2="230.49797" y2="183.02871" gradientUnits="userSpaceOnUse" id="color-33"><stop offset="0" stop-color="#a594ac"/><stop offset="1" stop-color="#96889d"/></linearGradient><linearGradient x1="233.16911" y1="186.62289" x2="232.6049" y2="186.07329" gradientUnits="userSpaceOnUse" id="color-34"><stop offset="0" stop-color="#7b6f80"/><stop offset="1" stop-color="#382c3f"/></linearGradient><linearGradient x1="233.67418" y1="186.33109" x2="232.87826" y2="185.55583" gradientUnits="userSpaceOnUse" id="color-35"><stop offset="0" stop-color="#ababab"/><stop offset="1" stop-color="#7e7e7e"/></linearGradient><linearGradient x1="233.3435" y1="186.009" x2="233.20596" y2="185.87505" gradientUnits="userSpaceOnUse" id="color-36"><stop offset="0" stop-color="#323232"/><stop offset="1" stop-color="#232323"/></linearGradient><linearGradient x1="233.13325" y1="185.80422" x2="233.0256" y2="185.69937" gradientUnits="userSpaceOnUse" id="color-37"><stop offset="0" stop-color="#272727"/><stop offset="1" stop-color="#191919"/></linearGradient><linearGradient x1="233.52684" y1="186.18757" x2="233.4192" y2="186.08271" gradientUnits="userSpaceOnUse" id="color-38"><stop offset="0" stop-color="#393939"/><stop offset="1" stop-color="#323232"/></linearGradient><linearGradient x1="232.96986" y1="185.64503" x2="232.90756" y2="185.58436" gradientUnits="userSpaceOnUse" id="color-39"><stop offset="0" stop-color="#1f1f1f"/><stop offset="1" stop-color="#191919"/></linearGradient><linearGradient x1="233.64489" y1="186.3026" x2="233.58259" y2="186.2419" gradientUnits="userSpaceOnUse" id="color-40"><stop offset="0" stop-color="#515151"/><stop offset="1" stop-color="#3d3d3d"/></linearGradient><linearGradient x1="233.46349" y1="186.38114" x2="232.8338" y2="185.76778" gradientUnits="userSpaceOnUse" id="color-41"><stop offset="0" stop-color="#4b00bb"/><stop offset="1" stop-color="#30004f"/></linearGradient><linearGradient x1="232.83993" y1="186.99109" x2="232.24046" y2="186.40712" gradientUnits="userSpaceOnUse" id="color-42"><stop offset="0" stop-color="#4b00ba"/><stop offset="1" stop-color="#300050"/></linearGradient><linearGradient x1="233.0907" y1="186.22533" x2="232.99732" y2="186.13436" gradientUnits="userSpaceOnUse" id="color-43"><stop offset="0" stop-color="#806f89"/><stop offset="1" stop-color="#685473"/></linearGradient><linearGradient x1="232.94796" y1="186.08628" x2="232.87489" y2="186.01509" gradientUnits="userSpaceOnUse" id="color-44"><stop offset="0" stop-color="#6a5675"/><stop offset="1" stop-color="#5c4768"/></linearGradient><linearGradient x1="233.21517" y1="186.34658" x2="233.14209" y2="186.27539" gradientUnits="userSpaceOnUse" id="color-45"><stop offset="0" stop-color="#97899e"/><stop offset="1" stop-color="#7f6e88"/></linearGradient><linearGradient x1="232.83704" y1="185.97821" x2="232.79474" y2="185.93701" gradientUnits="userSpaceOnUse" id="color-46"><stop offset="0" stop-color="#544c58"/><stop offset="1" stop-color="#4d3b58"/></linearGradient><linearGradient x1="233.29531" y1="186.42466" x2="233.25301" y2="186.38339" gradientUnits="userSpaceOnUse" id="color-47"><stop offset="0" stop-color="#a594ac"/><stop offset="1" stop-color="#96889d"/></linearGradient><linearGradient x1="232.95533" y1="186.3643" x2="232.86195" y2="186.27333" gradientUnits="userSpaceOnUse" id="color-48"><stop offset="0" stop-color="#806f89"/><stop offset="1" stop-color="#685473"/></linearGradient><linearGradient x1="232.81259" y1="186.22525" x2="232.73952" y2="186.15406" gradientUnits="userSpaceOnUse" id="color-49"><stop offset="0" stop-color="#6a5675"/><stop offset="1" stop-color="#5c4768"/></linearGradient><linearGradient x1="233.0798" y1="186.48554" x2="233.00671" y2="186.41436" gradientUnits="userSpaceOnUse" id="color-50"><stop offset="0" stop-color="#97899e"/><stop offset="1" stop-color="#7f6e88"/></linearGradient><linearGradient x1="232.70167" y1="186.11718" x2="232.65936" y2="186.07599" gradientUnits="userSpaceOnUse" id="color-51"><stop offset="0" stop-color="#544c58"/><stop offset="1" stop-color="#4d3b58"/></linearGradient><linearGradient x1="233.15994" y1="186.56362" x2="233.11764" y2="186.5224" gradientUnits="userSpaceOnUse" id="color-52"><stop offset="0" stop-color="#a594ac"/><stop offset="1" stop-color="#96889d"/></linearGradient><linearGradient x1="232.81995" y1="186.50327" x2="232.72657" y2="186.4123" gradientUnits="userSpaceOnUse" id="color-53"><stop offset="0" stop-color="#806f89"/><stop offset="1" stop-color="#685473"/></linearGradient><linearGradient x1="232.67721" y1="186.36422" x2="232.60414" y2="186.29304" gradientUnits="userSpaceOnUse" id="color-54"><stop offset="0" stop-color="#6a5675"/><stop offset="1" stop-color="#5c4768"/></linearGradient><linearGradient x1="232.94442" y1="186.62451" x2="232.87134" y2="186.55333" gradientUnits="userSpaceOnUse" id="color-55"><stop offset="0" stop-color="#97899e"/><stop offset="1" stop-color="#7f6e88"/></linearGradient><linearGradient x1="232.56629" y1="186.25619" x2="232.52399" y2="186.21496" gradientUnits="userSpaceOnUse" id="color-56"><stop offset="0" stop-color="#544c58"/><stop offset="1" stop-color="#4d3b58"/></linearGradient><linearGradient x1="233.02456" y1="186.70259" x2="232.98226" y2="186.6614" gradientUnits="userSpaceOnUse" id="color-57"><stop offset="0" stop-color="#a594ac"/><stop offset="1" stop-color="#96889d"/></linearGradient><linearGradient x1="232.68457" y1="186.64225" x2="232.59119" y2="186.55127" gradientUnits="userSpaceOnUse" id="color-58"><stop offset="0" stop-color="#806f89"/><stop offset="1" stop-color="#685473"/></linearGradient><linearGradient x1="232.54183" y1="186.50319" x2="232.46875" y2="186.43205" gradientUnits="userSpaceOnUse" id="color-59"><stop offset="0" stop-color="#6a5675"/><stop offset="1" stop-color="#5c4768"/></linearGradient><linearGradient x1="232.80904" y1="186.76348" x2="232.73596" y2="186.6923" gradientUnits="userSpaceOnUse" id="color-60"><stop offset="0" stop-color="#97899e"/><stop offset="1" stop-color="#7f6e88"/></linearGradient><linearGradient x1="232.4309" y1="186.39519" x2="232.38861" y2="186.35397" gradientUnits="userSpaceOnUse" id="color-61"><stop offset="0" stop-color="#544c58"/><stop offset="1" stop-color="#4d3b58"/></linearGradient><linearGradient x1="232.88918" y1="186.84156" x2="232.84689" y2="186.80037" gradientUnits="userSpaceOnUse" id="color-62"><stop offset="0" stop-color="#a594ac"/><stop offset="1" stop-color="#96889d"/></linearGradient><linearGradient x1="236.59399" y1="188.90737" x2="235.88107" y2="188.57257" gradientUnits="userSpaceOnUse" id="color-63"><stop offset="0" stop-color="#7b6f80"/><stop offset="1" stop-color="#382c3f"/></linearGradient><linearGradient x1="236.97587" y1="188.46647" x2="235.97015" y2="187.99414" gradientUnits="userSpaceOnUse" id="color-64"><stop offset="0" stop-color="#ababab"/><stop offset="1" stop-color="#7e7e7e"/></linearGradient><linearGradient x1="236.55801" y1="188.2702" x2="236.38422" y2="188.18862" gradientUnits="userSpaceOnUse" id="color-65"><stop offset="0" stop-color="#323232"/><stop offset="1" stop-color="#232323"/></linearGradient><linearGradient x1="236.29235" y1="188.14547" x2="236.15633" y2="188.08155" gradientUnits="userSpaceOnUse" id="color-66"><stop offset="0" stop-color="#272727"/><stop offset="1" stop-color="#191919"/></linearGradient><linearGradient x1="236.78968" y1="188.379" x2="236.65367" y2="188.31515" gradientUnits="userSpaceOnUse" id="color-67"><stop offset="0" stop-color="#393939"/><stop offset="1" stop-color="#323232"/></linearGradient><linearGradient x1="236.08589" y1="188.04849" x2="236.00717" y2="188.01151" gradientUnits="userSpaceOnUse" id="color-68"><stop offset="0" stop-color="#1f1f1f"/><stop offset="1" stop-color="#191919"/></linearGradient><linearGradient x1="236.93884" y1="188.4491" x2="236.86012" y2="188.41212" gradientUnits="userSpaceOnUse" id="color-69"><stop offset="0" stop-color="#515151"/><stop offset="1" stop-color="#3d3d3d"/></linearGradient><linearGradient x1="236.79312" y1="188.58261" x2="235.99745" y2="188.20895" gradientUnits="userSpaceOnUse" id="color-70"><stop offset="0" stop-color="#4b00bb"/><stop offset="1" stop-color="#30004f"/></linearGradient><linearGradient x1="236.40333" y1="189.36296" x2="235.64586" y2="189.00722" gradientUnits="userSpaceOnUse" id="color-71"><stop offset="0" stop-color="#4b00ba"/><stop offset="1" stop-color="#300050"/></linearGradient><linearGradient x1="236.38986" y1="188.55732" x2="236.27188" y2="188.50192" gradientUnits="userSpaceOnUse" id="color-72"><stop offset="0" stop-color="#806f89"/><stop offset="1" stop-color="#685473"/></linearGradient><linearGradient x1="236.20951" y1="188.47258" x2="236.11716" y2="188.42923" gradientUnits="userSpaceOnUse" id="color-73"><stop offset="0" stop-color="#6a5675"/><stop offset="1" stop-color="#5c4768"/></linearGradient><linearGradient x1="236.54715" y1="188.63119" x2="236.4548" y2="188.58781" gradientUnits="userSpaceOnUse" id="color-74"><stop offset="0" stop-color="#97899e"/><stop offset="1" stop-color="#7f6e88"/></linearGradient><linearGradient x1="236.06934" y1="188.40676" x2="236.0159" y2="188.38168" gradientUnits="userSpaceOnUse" id="color-75"><stop offset="0" stop-color="#544c58"/><stop offset="1" stop-color="#4d3b58"/></linearGradient><linearGradient x1="236.64842" y1="188.67877" x2="236.59496" y2="188.65362" gradientUnits="userSpaceOnUse" id="color-76"><stop offset="0" stop-color="#a594ac"/><stop offset="1" stop-color="#96889d"/></linearGradient><linearGradient x1="236.30739" y1="188.73295" x2="236.18941" y2="188.67752" gradientUnits="userSpaceOnUse" id="color-77"><stop offset="0" stop-color="#806f89"/><stop offset="1" stop-color="#685473"/></linearGradient><linearGradient x1="236.12703" y1="188.64824" x2="236.0347" y2="188.60482" gradientUnits="userSpaceOnUse" id="color-78"><stop offset="0" stop-color="#6a5675"/><stop offset="1" stop-color="#5c4768"/></linearGradient><linearGradient x1="236.46467" y1="188.80681" x2="236.37233" y2="188.7634" gradientUnits="userSpaceOnUse" id="color-79"><stop offset="0" stop-color="#97899e"/><stop offset="1" stop-color="#7f6e88"/></linearGradient><linearGradient x1="235.98687" y1="188.58239" x2="235.93342" y2="188.55727" gradientUnits="userSpaceOnUse" id="color-80"><stop offset="0" stop-color="#544c58"/><stop offset="1" stop-color="#4d3b58"/></linearGradient><linearGradient x1="236.56594" y1="188.85437" x2="236.51249" y2="188.82922" gradientUnits="userSpaceOnUse" id="color-81"><stop offset="0" stop-color="#a594ac"/><stop offset="1" stop-color="#96889d"/></linearGradient><linearGradient x1="236.22491" y1="188.90854" x2="236.10693" y2="188.85312" gradientUnits="userSpaceOnUse" id="color-82"><stop offset="0" stop-color="#806f89"/><stop offset="1" stop-color="#685473"/></linearGradient><linearGradient x1="236.04455" y1="188.82383" x2="235.95221" y2="188.78049" gradientUnits="userSpaceOnUse" id="color-83"><stop offset="0" stop-color="#6a5675"/><stop offset="1" stop-color="#5c4768"/></linearGradient><linearGradient x1="236.38219" y1="188.98241" x2="236.28985" y2="188.939" gradientUnits="userSpaceOnUse" id="color-84"><stop offset="0" stop-color="#97899e"/><stop offset="1" stop-color="#7f6e88"/></linearGradient><linearGradient x1="235.90439" y1="188.75802" x2="235.85095" y2="188.73291" gradientUnits="userSpaceOnUse" id="color-85"><stop offset="0" stop-color="#544c58"/><stop offset="1" stop-color="#4d3b58"/></linearGradient><linearGradient x1="236.48346" y1="189.02996" x2="236.43001" y2="189.00489" gradientUnits="userSpaceOnUse" id="color-86"><stop offset="0" stop-color="#a594ac"/><stop offset="1" stop-color="#96889d"/></linearGradient><linearGradient x1="236.14243" y1="189.08413" x2="236.02444" y2="189.02871" gradientUnits="userSpaceOnUse" id="color-87"><stop offset="0" stop-color="#806f89"/><stop offset="1" stop-color="#685473"/></linearGradient><linearGradient x1="235.96207" y1="188.99943" x2="235.86974" y2="188.95608" gradientUnits="userSpaceOnUse" id="color-88"><stop offset="0" stop-color="#6a5675"/><stop offset="1" stop-color="#5c4768"/></linearGradient><linearGradient x1="236.29971" y1="189.15801" x2="236.20738" y2="189.11466" gradientUnits="userSpaceOnUse" id="color-89"><stop offset="0" stop-color="#97899e"/><stop offset="1" stop-color="#7f6e88"/></linearGradient><linearGradient x1="235.82191" y1="188.93361" x2="235.76847" y2="188.90854" gradientUnits="userSpaceOnUse" id="color-90"><stop offset="0" stop-color="#544c58"/><stop offset="1" stop-color="#4d3b58"/></linearGradient><linearGradient x1="236.40098" y1="189.20555" x2="236.34754" y2="189.18048" gradientUnits="userSpaceOnUse" id="color-91"><stop offset="0" stop-color="#a594ac"/><stop offset="1" stop-color="#96889d"/></linearGradient><radialGradient cx="234.51091" cy="185.19892" r="3.56874" gradientUnits="userSpaceOnUse" id="color-92"><stop offset="0" stop-color="#d699ff"/><stop offset="1" stop-color="#9966ff"/></radialGradient><linearGradient x1="233.16911" y1="173.3772" x2="232.6049" y2="173.92673" gradientUnits="userSpaceOnUse" id="color-93"><stop offset="0" stop-color="#7b6f80"/><stop offset="1" stop-color="#382c3f"/></linearGradient><linearGradient x1="233.67418" y1="173.66893" x2="232.87826" y2="174.44423" gradientUnits="userSpaceOnUse" id="color-94"><stop offset="0" stop-color="#ababab"/><stop offset="1" stop-color="#7e7e7e"/></linearGradient><linearGradient x1="233.3435" y1="173.99102" x2="233.20596" y2="174.12505" gradientUnits="userSpaceOnUse" id="color-95"><stop offset="0" stop-color="#323232"/><stop offset="1" stop-color="#232323"/></linearGradient><linearGradient x1="233.13325" y1="174.19584" x2="233.0256" y2="174.30073" gradientUnits="userSpaceOnUse" id="color-96"><stop offset="0" stop-color="#272727"/><stop offset="1" stop-color="#191919"/></linearGradient><linearGradient x1="233.52684" y1="173.81246" x2="233.4192" y2="173.91731" gradientUnits="userSpaceOnUse" id="color-97"><stop offset="0" stop-color="#393939"/><stop offset="1" stop-color="#323232"/></linearGradient><linearGradient x1="232.96986" y1="174.35499" x2="232.90756" y2="174.4157" gradientUnits="userSpaceOnUse" id="color-98"><stop offset="0" stop-color="#1f1f1f"/><stop offset="1" stop-color="#191919"/></linearGradient><linearGradient x1="233.64489" y1="173.69749" x2="233.58259" y2="173.75819" gradientUnits="userSpaceOnUse" id="color-99"><stop offset="0" stop-color="#515151"/><stop offset="1" stop-color="#3d3d3d"/></linearGradient><linearGradient x1="233.46349" y1="173.61895" x2="232.8338" y2="174.23231" gradientUnits="userSpaceOnUse" id="color-100"><stop offset="0" stop-color="#4b00bb"/><stop offset="1" stop-color="#30004f"/></linearGradient><linearGradient x1="232.83993" y1="173.009" x2="232.24046" y2="173.5929" gradientUnits="userSpaceOnUse" id="color-101"><stop offset="0" stop-color="#4b00ba"/><stop offset="1" stop-color="#300050"/></linearGradient><linearGradient x1="233.0907" y1="173.77476" x2="232.99732" y2="173.8657" gradientUnits="userSpaceOnUse" id="color-102"><stop offset="0" stop-color="#806f89"/><stop offset="1" stop-color="#685473"/></linearGradient><linearGradient x1="232.94796" y1="173.91375" x2="232.87489" y2="173.98497" gradientUnits="userSpaceOnUse" id="color-103"><stop offset="0" stop-color="#6a5675"/><stop offset="1" stop-color="#5c4768"/></linearGradient><linearGradient x1="233.21517" y1="173.65349" x2="233.14209" y2="173.72471" gradientUnits="userSpaceOnUse" id="color-104"><stop offset="0" stop-color="#97899e"/><stop offset="1" stop-color="#7f6e88"/></linearGradient><linearGradient x1="232.83704" y1="174.02181" x2="232.79474" y2="174.06301" gradientUnits="userSpaceOnUse" id="color-105"><stop offset="0" stop-color="#544c58"/><stop offset="1" stop-color="#4d3b58"/></linearGradient><linearGradient x1="233.29531" y1="173.57544" x2="233.25301" y2="173.61663" gradientUnits="userSpaceOnUse" id="color-106"><stop offset="0" stop-color="#a594ac"/><stop offset="1" stop-color="#96889d"/></linearGradient><linearGradient x1="232.95533" y1="173.63579" x2="232.86195" y2="173.72669" gradientUnits="userSpaceOnUse" id="color-107"><stop offset="0" stop-color="#806f89"/><stop offset="1" stop-color="#685473"/></linearGradient><linearGradient x1="232.81259" y1="173.77478" x2="232.73952" y2="173.84596" gradientUnits="userSpaceOnUse" id="color-108"><stop offset="0" stop-color="#6a5675"/><stop offset="1" stop-color="#5c4768"/></linearGradient><linearGradient x1="233.0798" y1="173.51455" x2="233.00671" y2="173.58573" gradientUnits="userSpaceOnUse" id="color-109"><stop offset="0" stop-color="#97899e"/><stop offset="1" stop-color="#7f6e88"/></linearGradient><linearGradient x1="232.70167" y1="173.88285" x2="232.65936" y2="173.92403" gradientUnits="userSpaceOnUse" id="color-110"><stop offset="0" stop-color="#544c58"/><stop offset="1" stop-color="#4d3b58"/></linearGradient><linearGradient x1="233.15994" y1="173.43648" x2="233.11764" y2="173.47766" gradientUnits="userSpaceOnUse" id="color-111"><stop offset="0" stop-color="#a594ac"/><stop offset="1" stop-color="#96889d"/></linearGradient><linearGradient x1="232.81995" y1="173.49679" x2="232.72657" y2="173.58772" gradientUnits="userSpaceOnUse" id="color-112"><stop offset="0" stop-color="#806f89"/><stop offset="1" stop-color="#685473"/></linearGradient><linearGradient x1="232.67721" y1="173.6358" x2="232.60414" y2="173.70699" gradientUnits="userSpaceOnUse" id="color-113"><stop offset="0" stop-color="#6a5675"/><stop offset="1" stop-color="#5c4768"/></linearGradient><linearGradient x1="232.94442" y1="173.37555" x2="232.87134" y2="173.44676" gradientUnits="userSpaceOnUse" id="color-114"><stop offset="0" stop-color="#97899e"/><stop offset="1" stop-color="#7f6e88"/></linearGradient><linearGradient x1="232.56629" y1="173.74387" x2="232.52399" y2="173.78506" gradientUnits="userSpaceOnUse" id="color-115"><stop offset="0" stop-color="#544c58"/><stop offset="1" stop-color="#4d3b58"/></linearGradient><linearGradient x1="233.02456" y1="173.2975" x2="232.98226" y2="173.3387" gradientUnits="userSpaceOnUse" id="color-116"><stop offset="0" stop-color="#a594ac"/><stop offset="1" stop-color="#96889d"/></linearGradient><linearGradient x1="232.68457" y1="173.35777" x2="232.59119" y2="173.44875" gradientUnits="userSpaceOnUse" id="color-117"><stop offset="0" stop-color="#806f89"/><stop offset="1" stop-color="#685473"/></linearGradient><linearGradient x1="232.54183" y1="173.49683" x2="232.46875" y2="173.56801" gradientUnits="userSpaceOnUse" id="color-118"><stop offset="0" stop-color="#6a5675"/><stop offset="1" stop-color="#5c4768"/></linearGradient><linearGradient x1="232.80904" y1="173.23654" x2="232.73596" y2="173.30772" gradientUnits="userSpaceOnUse" id="color-119"><stop offset="0" stop-color="#97899e"/><stop offset="1" stop-color="#7f6e88"/></linearGradient><linearGradient x1="232.4309" y1="173.6049" x2="232.38861" y2="173.64609" gradientUnits="userSpaceOnUse" id="color-120"><stop offset="0" stop-color="#544c58"/><stop offset="1" stop-color="#4d3b58"/></linearGradient><linearGradient x1="232.88918" y1="173.1585" x2="232.84689" y2="173.19972" gradientUnits="userSpaceOnUse" id="color-121"><stop offset="0" stop-color="#a594ac"/><stop offset="1" stop-color="#96889d"/></linearGradient><linearGradient x1="230.86572" y1="176.96199" x2="230.65589" y2="177.72113" gradientUnits="userSpaceOnUse" id="color-122"><stop offset="0" stop-color="#7b6f80"/><stop offset="1" stop-color="#382c3f"/></linearGradient><linearGradient x1="231.449" y1="176.95904" x2="231.15299" y2="178.03001" gradientUnits="userSpaceOnUse" id="color-123"><stop offset="0" stop-color="#ababab"/><stop offset="1" stop-color="#7e7e7e"/></linearGradient><linearGradient x1="231.32601" y1="177.40398" x2="231.27486" y2="177.58906" gradientUnits="userSpaceOnUse" id="color-124"><stop offset="0" stop-color="#323232"/><stop offset="1" stop-color="#232323"/></linearGradient><linearGradient x1="231.24781" y1="177.68692" x2="231.20778" y2="177.83172" gradientUnits="userSpaceOnUse" id="color-125"><stop offset="0" stop-color="#272727"/><stop offset="1" stop-color="#191919"/></linearGradient><linearGradient x1="231.3942" y1="177.15729" x2="231.35417" y2="177.30216" gradientUnits="userSpaceOnUse" id="color-126"><stop offset="0" stop-color="#393939"/><stop offset="1" stop-color="#323232"/></linearGradient><linearGradient x1="231.18705" y1="177.90675" x2="231.16389" y2="177.99056" gradientUnits="userSpaceOnUse" id="color-127"><stop offset="0" stop-color="#1f1f1f"/><stop offset="1" stop-color="#191919"/></linearGradient><linearGradient x1="231.4381" y1="176.99845" x2="231.41493" y2="177.08233" gradientUnits="userSpaceOnUse" id="color-128"><stop offset="0" stop-color="#515151"/><stop offset="1" stop-color="#3d3d3d"/></linearGradient><linearGradient x1="231.24186" y1="177.02217" x2="231.00766" y2="177.86946" gradientUnits="userSpaceOnUse" id="color-129"><stop offset="0" stop-color="#4b00bb"/><stop offset="1" stop-color="#30004f"/></linearGradient><linearGradient x1="230.39574" y1="176.81022" x2="230.17279" y2="177.61681" gradientUnits="userSpaceOnUse" id="color-130"><stop offset="0" stop-color="#4b00ba"/><stop offset="1" stop-color="#300050"/></linearGradient><linearGradient x1="230.99861" y1="177.34479" x2="230.96389" y2="177.47042" gradientUnits="userSpaceOnUse" id="color-131"><stop offset="0" stop-color="#806f89"/><stop offset="1" stop-color="#685473"/></linearGradient><linearGradient x1="230.94553" y1="177.53685" x2="230.91835" y2="177.63517" gradientUnits="userSpaceOnUse" id="color-132"><stop offset="0" stop-color="#6a5675"/><stop offset="1" stop-color="#5c4768"/></linearGradient><linearGradient x1="231.0449" y1="177.17733" x2="231.01772" y2="177.27566" gradientUnits="userSpaceOnUse" id="color-133"><stop offset="0" stop-color="#97899e"/><stop offset="1" stop-color="#7f6e88"/></linearGradient><linearGradient x1="230.90427" y1="177.68612" x2="230.88855" y2="177.74303" gradientUnits="userSpaceOnUse" id="color-134"><stop offset="0" stop-color="#544c58"/><stop offset="1" stop-color="#4d3b58"/></linearGradient><linearGradient x1="231.0747" y1="177.06945" x2="231.05898" y2="177.1264" gradientUnits="userSpaceOnUse" id="color-135"><stop offset="0" stop-color="#a594ac"/><stop offset="1" stop-color="#96889d"/></linearGradient><linearGradient x1="230.81161" y1="177.29312" x2="230.77689" y2="177.41875" gradientUnits="userSpaceOnUse" id="color-136"><stop offset="0" stop-color="#806f89"/><stop offset="1" stop-color="#685473"/></linearGradient><linearGradient x1="230.75853" y1="177.48519" x2="230.73135" y2="177.5835" gradientUnits="userSpaceOnUse" id="color-137"><stop offset="0" stop-color="#6a5675"/><stop offset="1" stop-color="#5c4768"/></linearGradient><linearGradient x1="230.85791" y1="177.12564" x2="230.83072" y2="177.22399" gradientUnits="userSpaceOnUse" id="color-138"><stop offset="0" stop-color="#97899e"/><stop offset="1" stop-color="#7f6e88"/></linearGradient><linearGradient x1="230.71728" y1="177.63445" x2="230.70154" y2="177.69132" gradientUnits="userSpaceOnUse" id="color-139"><stop offset="0" stop-color="#544c58"/><stop offset="1" stop-color="#4d3b58"/></linearGradient><linearGradient x1="230.88771" y1="177.01778" x2="230.87198" y2="177.07473" gradientUnits="userSpaceOnUse" id="color-140"><stop offset="0" stop-color="#a594ac"/><stop offset="1" stop-color="#96889d"/></linearGradient><linearGradient x1="230.6246" y1="177.24145" x2="230.58988" y2="177.36708" gradientUnits="userSpaceOnUse" id="color-141"><stop offset="0" stop-color="#806f89"/><stop offset="1" stop-color="#685473"/></linearGradient><linearGradient x1="230.57152" y1="177.43351" x2="230.54434" y2="177.53184" gradientUnits="userSpaceOnUse" id="color-142"><stop offset="0" stop-color="#6a5675"/><stop offset="1" stop-color="#5c4768"/></linearGradient><linearGradient x1="230.6709" y1="177.07393" x2="230.64373" y2="177.17225" gradientUnits="userSpaceOnUse" id="color-143"><stop offset="0" stop-color="#97899e"/><stop offset="1" stop-color="#7f6e88"/></linearGradient><linearGradient x1="230.53027" y1="177.58275" x2="230.51454" y2="177.63965" gradientUnits="userSpaceOnUse" id="color-144"><stop offset="0" stop-color="#544c58"/><stop offset="1" stop-color="#4d3b58"/></linearGradient><linearGradient x1="230.7007" y1="176.96611" x2="230.68497" y2="177.02305" gradientUnits="userSpaceOnUse" id="color-145"><stop offset="0" stop-color="#a594ac"/><stop offset="1" stop-color="#96889d"/></linearGradient><linearGradient x1="230.43759" y1="177.18971" x2="230.40287" y2="177.31541" gradientUnits="userSpaceOnUse" id="color-146"><stop offset="0" stop-color="#806f89"/><stop offset="1" stop-color="#685473"/></linearGradient><linearGradient x1="230.38451" y1="177.38177" x2="230.35733" y2="177.48009" gradientUnits="userSpaceOnUse" id="color-147"><stop offset="0" stop-color="#6a5675"/><stop offset="1" stop-color="#5c4768"/></linearGradient><linearGradient x1="230.48389" y1="177.02226" x2="230.45671" y2="177.12058" gradientUnits="userSpaceOnUse" id="color-148"><stop offset="0" stop-color="#97899e"/><stop offset="1" stop-color="#7f6e88"/></linearGradient><linearGradient x1="230.34326" y1="177.53104" x2="230.32753" y2="177.58798" gradientUnits="userSpaceOnUse" id="color-149"><stop offset="0" stop-color="#544c58"/><stop offset="1" stop-color="#4d3b58"/></linearGradient><linearGradient x1="230.5137" y1="176.91445" x2="230.49797" y2="176.97131" gradientUnits="userSpaceOnUse" id="color-150"><stop offset="0" stop-color="#a594ac"/><stop offset="1" stop-color="#96889d"/></linearGradient><linearGradient x1="236.59399" y1="171.09269" x2="235.88107" y2="171.42752" gradientUnits="userSpaceOnUse" id="color-151"><stop offset="0" stop-color="#7b6f80"/><stop offset="1" stop-color="#382c3f"/></linearGradient><linearGradient x1="236.97587" y1="171.53359" x2="235.97015" y2="172.00595" gradientUnits="userSpaceOnUse" id="color-152"><stop offset="0" stop-color="#ababab"/><stop offset="1" stop-color="#7e7e7e"/></linearGradient><linearGradient x1="236.55801" y1="171.72982" x2="236.38422" y2="171.81147" gradientUnits="userSpaceOnUse" id="color-153"><stop offset="0" stop-color="#323232"/><stop offset="1" stop-color="#232323"/></linearGradient><linearGradient x1="236.29235" y1="171.85456" x2="236.15633" y2="171.91848" gradientUnits="userSpaceOnUse" id="color-154"><stop offset="0" stop-color="#272727"/><stop offset="1" stop-color="#191919"/></linearGradient><linearGradient x1="236.78968" y1="171.62102" x2="236.65367" y2="171.68488" gradientUnits="userSpaceOnUse" id="color-155"><stop offset="0" stop-color="#393939"/><stop offset="1" stop-color="#323232"/></linearGradient><linearGradient x1="236.08589" y1="171.95157" x2="236.00717" y2="171.98855" gradientUnits="userSpaceOnUse" id="color-156"><stop offset="0" stop-color="#1f1f1f"/><stop offset="1" stop-color="#191919"/></linearGradient><linearGradient x1="236.93884" y1="171.551" x2="236.86012" y2="171.58797" gradientUnits="userSpaceOnUse" id="color-157"><stop offset="0" stop-color="#515151"/><stop offset="1" stop-color="#3d3d3d"/></linearGradient><linearGradient x1="236.79312" y1="171.41741" x2="235.99745" y2="171.79107" gradientUnits="userSpaceOnUse" id="color-158"><stop offset="0" stop-color="#4b00bb"/><stop offset="1" stop-color="#30004f"/></linearGradient><linearGradient x1="236.40333" y1="170.63706" x2="235.64586" y2="170.9928" gradientUnits="userSpaceOnUse" id="color-159"><stop offset="0" stop-color="#4b00ba"/><stop offset="1" stop-color="#300050"/></linearGradient><linearGradient x1="236.38986" y1="171.44274" x2="236.27188" y2="171.49817" gradientUnits="userSpaceOnUse" id="color-160"><stop offset="0" stop-color="#806f89"/><stop offset="1" stop-color="#685473"/></linearGradient><linearGradient x1="236.20951" y1="171.52745" x2="236.11716" y2="171.57079" gradientUnits="userSpaceOnUse" id="color-161"><stop offset="0" stop-color="#6a5675"/><stop offset="1" stop-color="#5c4768"/></linearGradient><linearGradient x1="236.54715" y1="171.36887" x2="236.4548" y2="171.41222" gradientUnits="userSpaceOnUse" id="color-162"><stop offset="0" stop-color="#97899e"/><stop offset="1" stop-color="#7f6e88"/></linearGradient><linearGradient x1="236.06934" y1="171.59326" x2="236.0159" y2="171.61835" gradientUnits="userSpaceOnUse" id="color-163"><stop offset="0" stop-color="#544c58"/><stop offset="1" stop-color="#4d3b58"/></linearGradient><linearGradient x1="236.64842" y1="171.32132" x2="236.59496" y2="171.3464" gradientUnits="userSpaceOnUse" id="color-164"><stop offset="0" stop-color="#a594ac"/><stop offset="1" stop-color="#96889d"/></linearGradient><linearGradient x1="236.30739" y1="171.26715" x2="236.18941" y2="171.32257" gradientUnits="userSpaceOnUse" id="color-165"><stop offset="0" stop-color="#806f89"/><stop offset="1" stop-color="#685473"/></linearGradient><linearGradient x1="236.12703" y1="171.35186" x2="236.0347" y2="171.3952" gradientUnits="userSpaceOnUse" id="color-166"><stop offset="0" stop-color="#6a5675"/><stop offset="1" stop-color="#5c4768"/></linearGradient><linearGradient x1="236.46467" y1="171.19328" x2="236.37233" y2="171.23662" gradientUnits="userSpaceOnUse" id="color-167"><stop offset="0" stop-color="#97899e"/><stop offset="1" stop-color="#7f6e88"/></linearGradient><linearGradient x1="235.98687" y1="171.41767" x2="235.93342" y2="171.44275" gradientUnits="userSpaceOnUse" id="color-168"><stop offset="0" stop-color="#544c58"/><stop offset="1" stop-color="#4d3b58"/></linearGradient><linearGradient x1="236.56594" y1="171.14573" x2="236.51249" y2="171.17081" gradientUnits="userSpaceOnUse" id="color-169"><stop offset="0" stop-color="#a594ac"/><stop offset="1" stop-color="#96889d"/></linearGradient><linearGradient x1="236.22491" y1="171.09149" x2="236.10693" y2="171.1469" gradientUnits="userSpaceOnUse" id="color-170"><stop offset="0" stop-color="#806f89"/><stop offset="1" stop-color="#685473"/></linearGradient><linearGradient x1="236.04455" y1="171.17623" x2="235.95221" y2="171.21961" gradientUnits="userSpaceOnUse" id="color-171"><stop offset="0" stop-color="#6a5675"/><stop offset="1" stop-color="#5c4768"/></linearGradient><linearGradient x1="236.38219" y1="171.01768" x2="236.28985" y2="171.06103" gradientUnits="userSpaceOnUse" id="color-172"><stop offset="0" stop-color="#97899e"/><stop offset="1" stop-color="#7f6e88"/></linearGradient><linearGradient x1="235.90439" y1="171.24208" x2="235.85095" y2="171.26715" gradientUnits="userSpaceOnUse" id="color-173"><stop offset="0" stop-color="#544c58"/><stop offset="1" stop-color="#4d3b58"/></linearGradient><linearGradient x1="236.48346" y1="170.97006" x2="236.43001" y2="170.99521" gradientUnits="userSpaceOnUse" id="color-174"><stop offset="0" stop-color="#a594ac"/><stop offset="1" stop-color="#96889d"/></linearGradient><linearGradient x1="236.14243" y1="170.91589" x2="236.02444" y2="170.97131" gradientUnits="userSpaceOnUse" id="color-175"><stop offset="0" stop-color="#806f89"/><stop offset="1" stop-color="#685473"/></linearGradient><linearGradient x1="235.96207" y1="171.00059" x2="235.86974" y2="171.04394" gradientUnits="userSpaceOnUse" id="color-176"><stop offset="0" stop-color="#6a5675"/><stop offset="1" stop-color="#5c4768"/></linearGradient><linearGradient x1="236.29971" y1="170.84201" x2="236.20738" y2="170.8854" gradientUnits="userSpaceOnUse" id="color-177"><stop offset="0" stop-color="#97899e"/><stop offset="1" stop-color="#7f6e88"/></linearGradient><linearGradient x1="235.82191" y1="171.06641" x2="235.76847" y2="171.09156" gradientUnits="userSpaceOnUse" id="color-178"><stop offset="0" stop-color="#544c58"/><stop offset="1" stop-color="#4d3b58"/></linearGradient><linearGradient x1="236.40098" y1="170.79447" x2="236.34754" y2="170.81955" gradientUnits="userSpaceOnUse" id="color-179"><stop offset="0" stop-color="#a594ac"/><stop offset="1" stop-color="#96889d"/></linearGradient><radialGradient cx="234.51091" cy="174.61556" r="3.64568" gradientUnits="userSpaceOnUse" id="color-180"><stop offset="0" stop-color="#d699ff"/><stop offset="1" stop-color="#9966ff"/></radialGradient></defs><g transform="translate(-230.13012,-170.58553)"><g data-paper-data="{&quot;isPaintingLayer&quot;:true}" fill-rule="nonzero" stroke-linejoin="miter" stroke-miterlimit="10" stroke-dasharray="" stroke-dashoffset="0" style="mix-blend-mode: normal"><path d="M230.58547,180.00007c0,-5.19949 4.21503,-9.41454 9.41454,-9.41454c5.19949,0 9.41454,4.21503 9.41454,9.41454c0,5.19949 -4.21503,9.41454 -9.41454,9.41454c-5.19949,0 -9.41454,-4.21503 -9.41454,-9.41454z" fill="url(#color-1)" stroke="none" stroke-width="0.5" stroke-linecap="butt"/><path d="M232.35676,180.00004c0,-4.22123 3.42199,-7.64324 7.64324,-7.64324c4.22123,0 7.64324,3.42199 7.64324,7.64324c0,4.22123 -3.42199,7.64324 -7.64324,7.64324c-4.22123,0 -7.64324,-3.42199 -7.64324,-7.64324z" fill="url(#color-2)" stroke="none" stroke-width="0.5" stroke-linecap="butt"/><path d="M233.52942,180.00007c0,-3.57362 2.897,-6.47063 6.47063,-6.47063c3.57362,0 6.47063,2.897 6.47063,6.47063c0,3.57362 -2.897,6.47063 -6.47063,6.47063c-3.57362,0 -6.47063,-2.897 -6.47063,-6.47063z" fill="url(#color-3)" stroke="none" stroke-width="0.5" stroke-linecap="butt"/><path d="M234.67922,180.00007c0,-2.9386 2.38221,-5.32083 5.32083,-5.32083c2.9386,0 5.32083,2.38221 5.32083,5.32083c0,2.9386 -2.38221,5.32083 -5.32083,5.32083c-2.9386,0 -5.32083,-2.38221 -5.32083,-5.32083z" fill="url(#color-4)" stroke="none" stroke-width="0.5" stroke-linecap="butt"/><g><g data-paper-data="{&quot;index&quot;:null}" stroke-width="0" stroke-linecap="butt"><path d="M231.3368,182.90783l-0.94218,0.26042l-0.20983,-0.75916l0.94218,-0.26042z" fill="url(#color-5)" stroke="#000000"/><path d="M231.5744,183.00632l-0.25079,0.06932l-0.29602,-1.07095l0.25079,-0.06931z" fill="url(#color-6)" stroke="none"/><path d="M231.41413,182.57169l-0.17624,0.04871l-0.05115,-0.18507l0.17623,-0.04871z" fill="url(#color-7)" stroke="#000000"/><path d="M231.33594,182.28882l-0.17624,0.0487l-0.04003,-0.14484l0.17623,-0.04871z" fill="url(#color-8)" stroke="#000000"/><path d="M231.48232,182.81838l-0.17623,0.04871l-0.04004,-0.14484l0.17624,-0.04871z" fill="url(#color-9)" stroke="#000000"/><path d="M231.27517,182.06892l-0.17624,0.04871l-0.02317,-0.08383l0.17623,-0.04871z" fill="url(#color-10)" stroke="#000000"/><path d="M231.52622,182.97722l-0.17623,0.04871l-0.02318,-0.08383l0.17623,-0.04871z" fill="url(#color-11)" stroke="#000000"/><path d="M231.29268,182.96379l-0.10167,0.02809l-0.23418,-0.84726l0.10167,-0.0281z" fill="url(#color-12)" stroke="#000000"/><path d="M230.43301,183.17958l-0.07456,0.02061l-0.22294,-0.80661l0.07456,-0.02061z" fill="url(#color-13)" stroke="#000000"/><path d="M231.06718,182.63632l-0.13714,0.0379l-0.03473,-0.12565l0.13714,-0.0379z" fill="url(#color-14)" stroke="#000000"/><path d="M231.0141,182.44427l-0.13714,0.0379l-0.02717,-0.09834l0.13714,-0.0379z" fill="url(#color-15)" stroke="#000000"/><path d="M231.11347,182.80378l-0.13714,0.0379l-0.02717,-0.09833l0.13714,-0.0379z" fill="url(#color-16)" stroke="#000000"/><path d="M230.97284,182.295l-0.13714,0.0379l-0.01574,-0.05691l0.13714,-0.0379z" fill="url(#color-17)" stroke="#000000"/><path d="M231.14328,182.91159l-0.13714,0.0379l-0.01574,-0.05692l0.13714,-0.0379z" fill="url(#color-18)" stroke="#000000"/><path d="M230.88017,182.688l-0.13714,0.0379l-0.03473,-0.12565l0.13714,-0.0379z" fill="url(#color-19)" stroke="#000000"/><path d="M230.82709,182.49593l-0.13714,0.0379l-0.02717,-0.09833l0.13714,-0.0379z" fill="url(#color-20)" stroke="#000000"/><path d="M230.92646,182.85545l-0.13714,0.0379l-0.02717,-0.09833l0.13714,-0.0379z" fill="url(#color-21)" stroke="#000000"/><path d="M230.78583,182.34667l-0.13714,0.0379l-0.01574,-0.05692l0.13714,-0.0379z" fill="url(#color-22)" stroke="#000000"/><path d="M230.95627,182.96333l-0.13714,0.0379l-0.01574,-0.05692l0.13714,-0.0379z" fill="url(#color-23)" stroke="#000000"/><path d="M230.69317,182.73967l-0.13714,0.0379l-0.03474,-0.12566l0.13714,-0.0379z" fill="url(#color-24)" stroke="#000000"/><path d="M230.64009,182.5476l-0.13714,0.0379l-0.02717,-0.09833l0.13714,-0.0379z" fill="url(#color-25)" stroke="#000000"/><path d="M230.73947,182.90716l-0.13714,0.0379l-0.02717,-0.09833l0.13714,-0.0379z" fill="url(#color-26)" stroke="#000000"/><path d="M230.59884,182.39834l-0.13714,0.0379l-0.01573,-0.05692l0.13714,-0.0379z" fill="url(#color-27)" stroke="#000000"/><path d="M230.76927,183.015l-0.13714,0.0379l-0.01574,-0.05692l0.13714,-0.0379z" fill="url(#color-28)" stroke="#000000"/><path d="M230.50616,182.79134l-0.13714,0.0379l-0.03473,-0.12565l0.13714,-0.0379z" fill="url(#color-29)" stroke="#000000"/><path d="M230.45308,182.59927l-0.13714,0.0379l-0.02717,-0.09833l0.13714,-0.0379z" fill="url(#color-30)" stroke="#000000"/><path d="M230.55246,182.95886l-0.13714,0.0379l-0.02717,-0.09833l0.13714,-0.0379z" fill="url(#color-31)" stroke="#000000"/><path d="M230.41183,182.45005l-0.13714,0.0379l-0.01574,-0.05692l0.13714,-0.0379z" fill="url(#color-32)" stroke="#000000"/><path d="M230.58226,183.06667l-0.13714,0.0379l-0.01574,-0.05691l0.13714,-0.0379z" fill="url(#color-33)" stroke="#000000"/></g><path d="M231.33142,182.9035l-0.94218,0.26042l-0.20983,-0.75916l0.94218,-0.26042z" fill-opacity="0.68627" fill="#000000" stroke="#000000" stroke-width="0" stroke-linecap="butt"/><path d="M231.56902,183.00199l-0.25079,0.06932l-0.29602,-1.07095l0.25079,-0.06931z" fill-opacity="0.68627" fill="#000000" stroke="none" stroke-width="0" stroke-linecap="butt"/><path d="M231.40875,182.56736l-0.17624,0.04871l-0.05115,-0.18507l0.17623,-0.04871z" fill-opacity="0.68627" fill="#000000" stroke="#000000" stroke-width="0" stroke-linecap="butt"/><path d="M231.33056,182.28443l-0.17624,0.0487l-0.04003,-0.14484l0.17623,-0.04871z" fill-opacity="0.68627" fill="#000000" stroke="#000000" stroke-width="0" stroke-linecap="butt"/><path d="M231.47694,182.81405l-0.17623,0.04871l-0.04004,-0.14484l0.17624,-0.04871z" fill-opacity="0.68627" fill="#000000" stroke="#000000" stroke-width="0" stroke-linecap="butt"/><path d="M231.26979,182.06459l-0.17624,0.04871l-0.02317,-0.08383l0.17623,-0.04871z" fill-opacity="0.68627" fill="#000000" stroke="#000000" stroke-width="0" stroke-linecap="butt"/><path d="M231.52084,182.97289l-0.17623,0.04871l-0.02318,-0.08383l0.17623,-0.04871z" fill-opacity="0.68627" fill="#000000" stroke="#000000" stroke-width="0" stroke-linecap="butt"/><path d="M231.2873,182.95946l-0.10167,0.02809l-0.23418,-0.84726l0.10167,-0.0281z" fill-opacity="0.68627" fill="#000000" stroke="#000000" stroke-width="0" stroke-linecap="butt"/><path d="M230.42763,183.17519l-0.07456,0.02061l-0.22294,-0.80661l0.07456,-0.02061z" fill-opacity="0.68627" fill="#000000" stroke="#000000" stroke-width="0" stroke-linecap="butt"/><path d="M231.0618,182.63194l-0.13714,0.0379l-0.03473,-0.12565l0.13714,-0.0379z" fill-opacity="0.68627" fill="#000000" stroke="#000000" stroke-width="0" stroke-linecap="butt"/><path d="M231.00872,182.43988l-0.13714,0.0379l-0.02717,-0.09834l0.13714,-0.0379z" fill-opacity="0.68627" fill="#000000" stroke="#000000" stroke-width="0" stroke-linecap="butt"/><path d="M231.10809,182.79945l-0.13714,0.0379l-0.02717,-0.09833l0.13714,-0.0379z" fill-opacity="0.68627" fill="#000000" stroke="#000000" stroke-width="0" stroke-linecap="butt"/><path d="M230.96746,182.29062l-0.13714,0.0379l-0.01574,-0.05691l0.13714,-0.0379z" fill-opacity="0.68627" fill="#000000" stroke="#000000" stroke-width="0" stroke-linecap="butt"/><path d="M231.1379,182.90726l-0.13714,0.0379l-0.01574,-0.05692l0.13714,-0.0379z" fill-opacity="0.68627" fill="#000000" stroke="#000000" stroke-width="0" stroke-linecap="butt"/><path d="M230.87479,182.68362l-0.13714,0.0379l-0.03473,-0.12565l0.13714,-0.0379z" fill-opacity="0.68627" fill="#000000" stroke="#000000" stroke-width="0" stroke-linecap="butt"/><path d="M230.82171,182.49156l-0.13714,0.0379l-0.02717,-0.09833l0.13714,-0.0379z" fill-opacity="0.68627" fill="#000000" stroke="#000000" stroke-width="0" stroke-linecap="butt"/><path d="M230.92108,182.85112l-0.13714,0.0379l-0.02717,-0.09833l0.13714,-0.0379z" fill-opacity="0.68627" fill="#000000" stroke="#000000" stroke-width="0" stroke-linecap="butt"/><path d="M230.78045,182.34234l-0.13714,0.0379l-0.01574,-0.05692l0.13714,-0.0379z" fill-opacity="0.68627" fill="#000000" stroke="#000000" stroke-width="0" stroke-linecap="butt"/><path d="M230.95089,182.95895l-0.13714,0.0379l-0.01574,-0.05692l0.13714,-0.0379z" fill-opacity="0.68627" fill="#000000" stroke="#000000" stroke-width="0" stroke-linecap="butt"/><path d="M230.68779,182.73534l-0.13714,0.0379l-0.03474,-0.12566l0.13714,-0.0379z" fill-opacity="0.68627" fill="#000000" stroke="#000000" stroke-width="0" stroke-linecap="butt"/><path d="M230.63471,182.54327l-0.13714,0.0379l-0.02717,-0.09833l0.13714,-0.0379z" fill-opacity="0.68627" fill="#000000" stroke="#000000" stroke-width="0" stroke-linecap="butt"/><path d="M230.73409,182.9028l-0.13714,0.0379l-0.02717,-0.09833l0.13714,-0.0379z" fill-opacity="0.68627" fill="#000000" stroke="#000000" stroke-width="0" stroke-linecap="butt"/><path d="M230.59346,182.39401l-0.13714,0.0379l-0.01573,-0.05692l0.13714,-0.0379z" fill-opacity="0.68627" fill="#000000" stroke="#000000" stroke-width="0" stroke-linecap="butt"/><path d="M230.76389,183.01063l-0.13714,0.0379l-0.01574,-0.05692l0.13714,-0.0379z" fill-opacity="0.68627" fill="#000000" stroke="#000000" stroke-width="0" stroke-linecap="butt"/><path d="M230.50078,182.78701l-0.13714,0.0379l-0.03473,-0.12565l0.13714,-0.0379z" fill-opacity="0.68627" fill="#000000" stroke="#000000" stroke-width="0" stroke-linecap="butt"/><path d="M230.4477,182.59494l-0.13714,0.0379l-0.02717,-0.09833l0.13714,-0.0379z" fill-opacity="0.68627" fill="#000000" stroke="#000000" stroke-width="0" stroke-linecap="butt"/><path d="M230.54708,182.95448l-0.13714,0.0379l-0.02717,-0.09833l0.13714,-0.0379z" fill-opacity="0.68627" fill="#000000" stroke="#000000" stroke-width="0" stroke-linecap="butt"/><path d="M230.40645,182.44569l-0.13714,0.0379l-0.01574,-0.05692l0.13714,-0.0379z" fill-opacity="0.68627" fill="#000000" stroke="#000000" stroke-width="0" stroke-linecap="butt"/><path d="M230.57688,183.06234l-0.13714,0.0379l-0.01574,-0.05691l0.13714,-0.0379z" fill-opacity="0.68627" fill="#000000" stroke="#000000" stroke-width="0" stroke-linecap="butt"/><path d="M240.11752,188.73823c0,0 -2.60424,0.57223 -5.97912,-2.32908c-3.13621,-2.35406 -2.89404,-6.44679 -2.89404,-6.44679h0.87616c0,0 -0.05322,3.49148 2.65047,5.74493c2.76103,2.30127 5.28454,2.14051 5.28454,2.14051z" fill="#000000" stroke="#000000" stroke-width="0.25" stroke-linecap="butt"/><g data-paper-data="{&quot;index&quot;:null}" stroke-width="0" stroke-linecap="butt"><path d="M233.51014,186.27279l-0.68206,0.70022l-0.5642,-0.54957l0.68205,-0.70022z" fill="url(#color-34)" stroke="#000000"/><path d="M233.76497,186.23789l-0.18155,0.18638l-0.79593,-0.77528l0.18155,-0.18639z" fill="url(#color-35)" stroke="none"/><path d="M233.40729,185.94354l-0.12758,0.13098l-0.13754,-0.13397l0.12758,-0.13098z" fill="url(#color-36)" stroke="#000000"/><path d="M233.19704,185.73869l-0.12758,0.13097l-0.10764,-0.10485l0.12758,-0.13098z" fill="url(#color-37)" stroke="#000000"/><path d="M233.59063,186.1221l-0.12759,0.13098l-0.10764,-0.10485l0.12758,-0.13098z" fill="url(#color-38)" stroke="#000000"/><path d="M233.03365,185.57956l-0.12758,0.13098l-0.06231,-0.06069l0.12758,-0.13098z" fill="url(#color-39)" stroke="#000000"/><path d="M233.70868,186.23707l-0.12759,0.13098l-0.06231,-0.06069l0.12759,-0.13098z" fill="url(#color-40)" stroke="#000000"/><path d="M233.50028,186.34335l-0.07361,0.07555l-0.62968,-0.61335l0.0736,-0.07555z" fill="url(#color-41)" stroke="#000000"/><path d="M232.86691,186.96334l-0.05398,0.05541l-0.59947,-0.58392l0.05399,-0.05541z" fill="url(#color-42)" stroke="#000000"/><path d="M233.14034,186.17435l-0.09928,0.10192l-0.09338,-0.09097l0.09928,-0.10191z" fill="url(#color-43)" stroke="#000000"/><path d="M232.9976,186.03533l-0.09928,0.10191l-0.07308,-0.07119l0.09928,-0.10192z" fill="url(#color-44)" stroke="#000000"/><path d="M233.26481,186.29562l-0.09928,0.10192l-0.07307,-0.07119l0.09928,-0.10192z" fill="url(#color-45)" stroke="#000000"/><path d="M232.88668,185.92726l-0.09928,0.10192l-0.0423,-0.0412l0.09928,-0.10192z" fill="url(#color-46)" stroke="#000000"/><path d="M233.34495,186.37363l-0.09928,0.10191l-0.0423,-0.04119l0.09928,-0.10192z" fill="url(#color-47)" stroke="#000000"/><path d="M233.00496,186.31335l-0.09928,0.10192l-0.09339,-0.09096l0.09928,-0.10191z" fill="url(#color-48)" stroke="#000000"/><path d="M232.86222,186.1743l-0.09928,0.10191l-0.07308,-0.07118l0.09928,-0.10192z" fill="url(#color-49)" stroke="#000000"/><path d="M233.12943,186.43459l-0.09928,0.10192l-0.07308,-0.07119l0.09928,-0.10192z" fill="url(#color-50)" stroke="#000000"/><path d="M232.7513,186.06623l-0.09928,0.10191l-0.0423,-0.0412l0.09928,-0.10192z" fill="url(#color-51)" stroke="#000000"/><path d="M233.20957,186.51264l-0.09928,0.10192l-0.0423,-0.0412l0.09928,-0.10191z" fill="url(#color-52)" stroke="#000000"/><path d="M232.86959,186.45232l-0.09928,0.10192l-0.09339,-0.09097l0.09928,-0.10191z" fill="url(#color-53)" stroke="#000000"/><path d="M232.72685,186.31327l-0.09928,0.10191l-0.07308,-0.07118l0.09928,-0.10192z" fill="url(#color-54)" stroke="#000000"/><path d="M232.99406,186.57356l-0.09928,0.10192l-0.07308,-0.07119l0.09928,-0.10191z" fill="url(#color-55)" stroke="#000000"/><path d="M232.61593,186.2052l-0.09928,0.10191l-0.0423,-0.04119l0.09928,-0.10192z" fill="url(#color-56)" stroke="#000000"/><path d="M233.0742,186.65164l-0.09928,0.10192l-0.0423,-0.0412l0.09928,-0.10192z" fill="url(#color-57)" stroke="#000000"/><path d="M232.7342,186.59129l-0.09928,0.10191l-0.09339,-0.09096l0.09928,-0.10192z" fill="url(#color-58)" stroke="#000000"/><path d="M232.59147,186.45224l-0.09928,0.10192l-0.07308,-0.07119l0.09928,-0.10192z" fill="url(#color-59)" stroke="#000000"/><path d="M232.85868,186.71253l-0.09928,0.10191l-0.07308,-0.07119l0.09928,-0.10191z" fill="url(#color-60)" stroke="#000000"/><path d="M232.48054,186.34421l-0.09928,0.10192l-0.0423,-0.0412l0.09928,-0.10191z" fill="url(#color-61)" stroke="#000000"/><path d="M232.93882,186.79061l-0.09928,0.10191l-0.0423,-0.04119l0.09928,-0.10192z" fill="url(#color-62)" stroke="#000000"/></g><g data-paper-data="{&quot;index&quot;:null}" stroke-width="0" stroke-linecap="butt"><path d="M236.80176,188.46496l-0.41553,0.88478l-0.71292,-0.33482l0.41554,-0.88479z" fill="url(#color-63)" stroke="#000000"/><path d="M237.03117,188.34872l-0.1106,0.23551l-1.00572,-0.47233l0.11061,-0.23551z" fill="url(#color-64)" stroke="none"/><path d="M236.59688,188.18747l-0.07773,0.1655l-0.17379,-0.08163l0.07772,-0.1655z" fill="url(#color-65)" stroke="#000000"/><path d="M236.33121,188.06273l-0.07773,0.1655l-0.13602,-0.06389l0.07773,-0.1655z" fill="url(#color-66)" stroke="#000000"/><path d="M236.82855,188.29626l-0.07772,0.1655l-0.13602,-0.06388l0.07773,-0.1655z" fill="url(#color-67)" stroke="#000000"/><path d="M236.12475,187.96576l-0.07773,0.1655l-0.07873,-0.03697l0.07772,-0.1655z" fill="url(#color-68)" stroke="#000000"/><path d="M236.97771,188.36633l-0.07773,0.1655l-0.07873,-0.03697l0.07773,-0.1655z" fill="url(#color-69)" stroke="#000000"/><path d="M236.81553,188.53489l-0.04485,0.09547l-0.79565,-0.37368l0.04484,-0.09547z" fill="url(#color-70)" stroke="#000000"/><path d="M236.41977,189.32796l-0.03289,0.07002l-0.75747,-0.35575l0.03289,-0.07002z" fill="url(#color-71)" stroke="#000000"/><path d="M236.42011,188.49289l-0.06049,0.12878l-0.118,-0.05542l0.06049,-0.12878z" fill="url(#color-72)" stroke="#000000"/><path d="M236.23975,188.40819l-0.06048,0.12878l-0.09234,-0.04337l0.06048,-0.12878z" fill="url(#color-73)" stroke="#000000"/><path d="M236.57739,188.56676l-0.06048,0.12878l-0.09234,-0.04337l0.06048,-0.12878z" fill="url(#color-74)" stroke="#000000"/><path d="M236.09959,188.34237l-0.06049,0.12878l-0.05345,-0.02509l0.06048,-0.12878z" fill="url(#color-75)" stroke="#000000"/><path d="M236.67865,188.61432l-0.06048,0.12878l-0.05346,-0.02509l0.06049,-0.12879z" fill="url(#color-76)" stroke="#000000"/><path d="M236.33762,188.66856l-0.06048,0.12878l-0.118,-0.05541l0.06048,-0.12879z" fill="url(#color-77)" stroke="#000000"/><path d="M236.15727,188.58386l-0.06048,0.12878l-0.09235,-0.04337l0.06049,-0.12878z" fill="url(#color-78)" stroke="#000000"/><path d="M236.49491,188.74243l-0.06048,0.12878l-0.09234,-0.04337l0.06049,-0.12878z" fill="url(#color-79)" stroke="#000000"/><path d="M236.01711,188.51801l-0.06049,0.12879l-0.05345,-0.0251l0.06049,-0.12878z" fill="url(#color-80)" stroke="#000000"/><path d="M236.59617,188.78999l-0.06048,0.12877l-0.05345,-0.02509l0.06048,-0.12878z" fill="url(#color-81)" stroke="#000000"/><path d="M236.25516,188.84416l-0.06048,0.12878l-0.11801,-0.05542l0.06049,-0.12878z" fill="url(#color-82)" stroke="#000000"/><path d="M236.0748,188.75945l-0.06049,0.12878l-0.09234,-0.04337l0.06049,-0.12878z" fill="url(#color-83)" stroke="#000000"/><path d="M236.41243,188.91803l-0.06048,0.12878l-0.09234,-0.04337l0.06048,-0.12878z" fill="url(#color-84)" stroke="#000000"/><path d="M235.93463,188.69363l-0.06048,0.12879l-0.05345,-0.0251l0.06048,-0.12878z" fill="url(#color-85)" stroke="#000000"/><path d="M236.5137,188.96558l-0.06048,0.12878l-0.05345,-0.0251l0.06049,-0.12878z" fill="url(#color-86)" stroke="#000000"/><path d="M236.17267,189.01975l-0.06048,0.12878l-0.118,-0.05541l0.06048,-0.12879z" fill="url(#color-87)" stroke="#000000"/><path d="M235.99231,188.93505l-0.06048,0.12878l-0.09234,-0.04337l0.06048,-0.12877z" fill="url(#color-88)" stroke="#000000"/><path d="M236.32995,189.09362l-0.06048,0.12878l-0.09234,-0.04337l0.06049,-0.12879z" fill="url(#color-89)" stroke="#000000"/><path d="M235.85215,188.86923l-0.06049,0.12878l-0.05345,-0.02509l0.06049,-0.12879z" fill="url(#color-90)" stroke="#000000"/><path d="M236.43122,189.14117l-0.06048,0.12878l-0.05345,-0.0251l0.06049,-0.12878z" fill="url(#color-91)" stroke="#000000"/></g><path d="M240.20253,187.92322c-4.46289,-0.26107 -7.82496,-2.85553 -8.11587,-7.69812" fill="none" stroke="#ffffff" stroke-width="0.5" stroke-linecap="butt"/><path d="M239.52258,187.62367c0,0 -3.05459,-0.33911 -4.93612,-2.27795c-1.86796,-1.92487 -2.20136,-4.76136 -2.20136,-4.76136" fill="none" stroke="url(#color-92)" stroke-width="0.25" stroke-linecap="round"/><g data-paper-data="{&quot;index&quot;:null}" fill-opacity="0.68627" fill="#000000" stroke-width="0" stroke-linecap="butt"><path d="M233.50476,186.26841l-0.68206,0.70022l-0.5642,-0.54957l0.68205,-0.70022z" stroke="#000000"/><path d="M233.75959,186.23356l-0.18155,0.18638l-0.79593,-0.77528l0.18155,-0.18639z" stroke="none"/><path d="M233.40191,185.93916l-0.12758,0.13098l-0.13754,-0.13397l0.12758,-0.13098z" stroke="#000000"/><path d="M233.19166,185.73436l-0.12758,0.13097l-0.10764,-0.10485l0.12758,-0.13098z" stroke="#000000"/><path d="M233.58525,186.11777l-0.12759,0.13098l-0.10764,-0.10485l0.12758,-0.13098z" stroke="#000000"/><path d="M233.02827,185.57523l-0.12758,0.13098l-0.06231,-0.06069l0.12758,-0.13098z" stroke="#000000"/><path d="M233.7033,186.23274l-0.12759,0.13098l-0.06231,-0.06069l0.12759,-0.13098z" stroke="#000000"/><path d="M233.4949,186.33898l-0.07361,0.07555l-0.62968,-0.61335l0.0736,-0.07555z" stroke="#000000"/><path d="M232.86153,186.95901l-0.05398,0.05541l-0.59947,-0.58392l0.05399,-0.05541z" stroke="#000000"/><path d="M233.13496,186.16999l-0.09928,0.10192l-0.09338,-0.09097l0.09928,-0.10191z" stroke="#000000"/><path d="M232.99222,186.03095l-0.09928,0.10191l-0.07308,-0.07119l0.09928,-0.10192z" stroke="#000000"/><path d="M233.25943,186.29124l-0.09928,0.10192l-0.07307,-0.07119l0.09928,-0.10192z" stroke="#000000"/><path d="M232.8813,185.92293l-0.09928,0.10192l-0.0423,-0.0412l0.09928,-0.10192z" stroke="#000000"/><path d="M233.33957,186.3693l-0.09928,0.10191l-0.0423,-0.04119l0.09928,-0.10192z" stroke="#000000"/><path d="M232.99958,186.30897l-0.09928,0.10192l-0.09339,-0.09096l0.09928,-0.10191z" stroke="#000000"/><path d="M232.85684,186.16993l-0.09928,0.10191l-0.07308,-0.07118l0.09928,-0.10192z" stroke="#000000"/><path d="M233.12405,186.43021l-0.09928,0.10192l-0.07308,-0.07119l0.09928,-0.10192z" stroke="#000000"/><path d="M232.74592,186.0619l-0.09928,0.10191l-0.0423,-0.0412l0.09928,-0.10192z" stroke="#000000"/><path d="M233.20419,186.50828l-0.09928,0.10192l-0.0423,-0.0412l0.09928,-0.10191z" stroke="#000000"/><path d="M232.86421,186.44794l-0.09928,0.10192l-0.09339,-0.09097l0.09928,-0.10191z" stroke="#000000"/><path d="M232.72147,186.30893l-0.09928,0.10191l-0.07308,-0.07118l0.09928,-0.10192z" stroke="#000000"/><path d="M232.98868,186.56918l-0.09928,0.10192l-0.07308,-0.07119l0.09928,-0.10191z" stroke="#000000"/><path d="M232.61055,186.20087l-0.09928,0.10191l-0.0423,-0.04119l0.09928,-0.10192z" stroke="#000000"/><path d="M233.06882,186.64726l-0.09928,0.10192l-0.0423,-0.0412l0.09928,-0.10192z" stroke="#000000"/><path d="M232.72882,186.58696l-0.09928,0.10191l-0.09339,-0.09096l0.09928,-0.10192z" stroke="#000000"/><path d="M232.58609,186.44791l-0.09928,0.10192l-0.07308,-0.07119l0.09928,-0.10192z" stroke="#000000"/><path d="M232.8533,186.7082l-0.09928,0.10191l-0.07308,-0.07119l0.09928,-0.10191z" stroke="#000000"/><path d="M232.47516,186.33985l-0.09928,0.10192l-0.0423,-0.0412l0.09928,-0.10191z" stroke="#000000"/><path d="M232.93344,186.78623l-0.09928,0.10191l-0.0423,-0.04119l0.09928,-0.10192z" stroke="#000000"/></g><g data-paper-data="{&quot;index&quot;:null}" fill-opacity="0.68627" fill="#000000" stroke-width="0" stroke-linecap="butt"><path d="M236.79638,188.46063l-0.41553,0.88478l-0.71292,-0.33482l0.41554,-0.88479z" stroke="#000000"/><path d="M237.02579,188.34434l-0.1106,0.23551l-1.00572,-0.47233l0.11061,-0.23551z" stroke="none"/><path d="M236.5915,188.18314l-0.07773,0.1655l-0.17379,-0.08163l0.07772,-0.1655z" stroke="#000000"/><path d="M236.32583,188.05834l-0.07773,0.1655l-0.13602,-0.06389l0.07773,-0.1655z" stroke="#000000"/><path d="M236.82317,188.29193l-0.07772,0.1655l-0.13602,-0.06388l0.07773,-0.1655z" stroke="#000000"/><path d="M236.11937,187.96138l-0.07773,0.1655l-0.07873,-0.03697l0.07772,-0.1655z" stroke="#000000"/><path d="M236.97233,188.36197l-0.07773,0.1655l-0.07873,-0.03697l0.07773,-0.1655z" stroke="#000000"/><path d="M236.81015,188.53056l-0.04485,0.09547l-0.79565,-0.37368l0.04484,-0.09547z" stroke="#000000"/><path d="M236.41439,189.32363l-0.03289,0.07002l-0.75747,-0.35575l0.03289,-0.07002z" stroke="#000000"/><path d="M236.41473,188.48856l-0.06049,0.12878l-0.118,-0.05542l0.06049,-0.12878z" stroke="#000000"/><path d="M236.23437,188.40386l-0.06048,0.12878l-0.09234,-0.04337l0.06048,-0.12878z" stroke="#000000"/><path d="M236.57201,188.56243l-0.06048,0.12878l-0.09234,-0.04337l0.06048,-0.12878z" stroke="#000000"/><path d="M236.09421,188.33804l-0.06049,0.12878l-0.05345,-0.02509l0.06048,-0.12878z" stroke="#000000"/><path d="M236.67327,188.60999l-0.06048,0.12878l-0.05346,-0.02509l0.06049,-0.12879z" stroke="#000000"/><path d="M236.33224,188.66418l-0.06048,0.12878l-0.118,-0.05541l0.06048,-0.12879z" stroke="#000000"/><path d="M236.15189,188.57947l-0.06048,0.12878l-0.09235,-0.04337l0.06049,-0.12878z" stroke="#000000"/><path d="M236.48953,188.73805l-0.06048,0.12878l-0.09234,-0.04337l0.06049,-0.12878z" stroke="#000000"/><path d="M236.01173,188.51365l-0.06049,0.12879l-0.05345,-0.0251l0.06049,-0.12878z" stroke="#000000"/><path d="M236.59079,188.7856l-0.06048,0.12877l-0.05345,-0.02509l0.06048,-0.12878z" stroke="#000000"/><path d="M236.24978,188.83978l-0.06048,0.12878l-0.11801,-0.05542l0.06049,-0.12878z" stroke="#000000"/><path d="M236.06942,188.75507l-0.06049,0.12878l-0.09234,-0.04337l0.06049,-0.12878z" stroke="#000000"/><path d="M236.40705,188.91364l-0.06048,0.12878l-0.09234,-0.04337l0.06048,-0.12878z" stroke="#000000"/><path d="M235.92925,188.68925l-0.06048,0.12879l-0.05345,-0.0251l0.06048,-0.12878z" stroke="#000000"/><path d="M236.50832,188.96124l-0.06048,0.12878l-0.05345,-0.0251l0.06049,-0.12878z" stroke="#000000"/><path d="M236.16729,189.01542l-0.06048,0.12878l-0.118,-0.05541l0.06048,-0.12879z" stroke="#000000"/><path d="M235.98693,188.93072l-0.06048,0.12878l-0.09234,-0.04337l0.06048,-0.12877z" stroke="#000000"/><path d="M236.32457,189.08929l-0.06048,0.12878l-0.09234,-0.04337l0.06049,-0.12879z" stroke="#000000"/><path d="M235.84677,188.86486l-0.06049,0.12878l-0.05345,-0.02509l0.06049,-0.12879z" stroke="#000000"/><path d="M236.42584,189.13684l-0.06048,0.12878l-0.05345,-0.0251l0.06049,-0.12878z" stroke="#000000"/></g></g><g><path d="M240.05552,172.15229c0,0 -2.5235,-0.16074 -5.28454,2.14051c-2.70369,2.25346 -2.65047,5.74493 -2.65047,5.74493h-0.87615c0,0 -0.24218,-4.09271 2.89404,-6.44678c3.37488,-2.90131 5.97912,-2.32909 5.97912,-2.32909z" data-paper-data="{&quot;index&quot;:null}" fill="#000000" stroke="#000000" stroke-width="0.25" stroke-linecap="butt"/><g data-paper-data="{&quot;index&quot;:null}" stroke-width="0" stroke-linecap="butt"><path d="M232.94593,174.27683l-0.68205,-0.70022l0.5642,-0.54957l0.68206,0.70022z" fill="url(#color-93)" stroke="#000000"/><path d="M232.96904,174.53739l-0.18155,-0.18639l0.79593,-0.77528l0.18156,0.18638z" fill="url(#color-94)" stroke="none"/><path d="M233.26975,174.1905l-0.12758,-0.13098l0.13754,-0.13397l0.12758,0.13098z" fill="url(#color-95)" stroke="#000000"/><path d="M233.08939,174.36619l-0.12758,-0.13098l0.10764,-0.10485l0.12758,0.13097z" fill="url(#color-96)" stroke="#000000"/><path d="M233.48299,173.98278l-0.12758,-0.13098l0.10764,-0.10485l0.12758,0.13098z" fill="url(#color-97)" stroke="#000000"/><path d="M232.97134,174.48116l-0.12758,-0.13098l0.06231,-0.06069l0.12758,0.13098z" fill="url(#color-98)" stroke="#000000"/><path d="M233.64637,173.82365l-0.12758,-0.13098l0.06231,-0.06069l0.12758,0.13098z" fill="url(#color-99)" stroke="#000000"/><path d="M232.8706,174.27003l-0.0736,-0.07555l0.62968,-0.61335l0.0736,0.07555z" fill="url(#color-100)" stroke="#000000"/><path d="M232.26745,173.62058l-0.05398,-0.05541l0.59946,-0.58392l0.05398,0.05541z" fill="url(#color-101)" stroke="#000000"/><path d="M233.04695,173.91669l-0.09928,-0.10191l0.09338,-0.09097l0.09928,0.10192z" fill="url(#color-102)" stroke="#000000"/><path d="M232.92453,174.03595l-0.09928,-0.10192l0.07307,-0.07119l0.09928,0.10191z" fill="url(#color-103)" stroke="#000000"/><path d="M233.19174,173.77566l-0.09928,-0.10192l0.07308,-0.07119l0.09928,0.10192z" fill="url(#color-104)" stroke="#000000"/><path d="M232.84438,174.11395l-0.09928,-0.10192l0.0423,-0.0412l0.09928,0.10192z" fill="url(#color-105)" stroke="#000000"/><path d="M233.30265,173.66759l-0.09928,-0.10192l0.0423,-0.04119l0.09928,0.10191z" fill="url(#color-106)" stroke="#000000"/><path d="M232.91157,173.77771l-0.09928,-0.10191l0.09338,-0.09096l0.09928,0.10192z" fill="url(#color-107)" stroke="#000000"/><path d="M232.78915,173.89695l-0.09928,-0.10192l0.07307,-0.07118l0.09928,0.10191z" fill="url(#color-108)" stroke="#000000"/><path d="M233.05635,173.63669l-0.09928,-0.10192l0.07308,-0.07119l0.09928,0.10192z" fill="url(#color-109)" stroke="#000000"/><path d="M232.70899,173.97498l-0.09928,-0.10192l0.0423,-0.0412l0.09928,0.10191z" fill="url(#color-110)" stroke="#000000"/><path d="M233.16727,173.52861l-0.09928,-0.10191l0.0423,-0.0412l0.09928,0.10192z" fill="url(#color-111)" stroke="#000000"/><path d="M232.7762,173.63868l-0.09927,-0.10191l0.09338,-0.09097l0.09928,0.10192z" fill="url(#color-112)" stroke="#000000"/><path d="M232.65377,173.75794l-0.09928,-0.10192l0.07308,-0.07118l0.09928,0.10191z" fill="url(#color-113)" stroke="#000000"/><path d="M232.92098,173.49771l-0.09928,-0.10191l0.07307,-0.07119l0.09928,0.10192z" fill="url(#color-114)" stroke="#000000"/><path d="M232.57362,173.83602l-0.09928,-0.10192l0.0423,-0.04119l0.09928,0.10191z" fill="url(#color-115)" stroke="#000000"/><path d="M233.0319,173.38965l-0.09928,-0.10192l0.0423,-0.0412l0.09928,0.10192z" fill="url(#color-116)" stroke="#000000"/><path d="M232.64082,173.4997l-0.09928,-0.10192l0.09339,-0.09096l0.09928,0.10191z" fill="url(#color-117)" stroke="#000000"/><path d="M232.51839,173.61897l-0.09928,-0.10192l0.07308,-0.07119l0.09928,0.10192z" fill="url(#color-118)" stroke="#000000"/><path d="M232.7856,173.35868l-0.09928,-0.10191l0.07307,-0.07119l0.09928,0.10191z" fill="url(#color-119)" stroke="#000000"/><path d="M232.43824,173.69704l-0.09928,-0.10191l0.0423,-0.0412l0.09928,0.10192z" fill="url(#color-120)" stroke="#000000"/><path d="M232.89652,173.25068l-0.09928,-0.10192l0.0423,-0.04119l0.09928,0.10191z" fill="url(#color-121)" stroke="#000000"/></g><g data-paper-data="{&quot;index&quot;:null}" stroke-width="0" stroke-linecap="butt"><path d="M231.12697,177.85133l-0.94217,-0.26042l0.20983,-0.75916l0.94217,0.26042z" fill="url(#color-122)" stroke="#000000"/><path d="M231.27838,178.06463l-0.25079,-0.06931l0.29602,-1.07095l0.25079,0.06932z" fill="url(#color-123)" stroke="none"/><path d="M231.36298,177.61342l-0.17623,-0.04871l0.05115,-0.18507l0.17623,0.04871z" fill="url(#color-124)" stroke="#000000"/><path d="M231.2959,177.85608l-0.17623,-0.04871l0.04003,-0.14484l0.17624,0.0487z" fill="url(#color-125)" stroke="#000000"/><path d="M231.44228,177.32652l-0.17623,-0.04871l0.04003,-0.14484l0.17623,0.04871z" fill="url(#color-126)" stroke="#000000"/><path d="M231.25199,178.01492l-0.17623,-0.04871l0.02318,-0.08383l0.17623,0.04871z" fill="url(#color-127)" stroke="#000000"/><path d="M231.50304,177.10669l-0.17624,-0.04871l0.02318,-0.08383l0.17623,0.04871z" fill="url(#color-128)" stroke="#000000"/><path d="M231.0585,177.88347l-0.10167,-0.0281l0.23418,-0.84726l0.10167,0.02809z" fill="url(#color-129)" stroke="#000000"/><path d="M230.21006,177.62711l-0.07456,-0.02061l0.22295,-0.80661l0.07456,0.02061z" fill="url(#color-130)" stroke="#000000"/><path d="M231.03245,177.4894l-0.13714,-0.0379l0.03473,-0.12565l0.13714,0.0379z" fill="url(#color-131)" stroke="#000000"/><path d="M230.98692,177.65415l-0.13714,-0.0379l0.02717,-0.09834l0.13714,0.0379z" fill="url(#color-132)" stroke="#000000"/><path d="M231.0863,177.29457l-0.13714,-0.0379l0.02717,-0.09833l0.13714,0.0379z" fill="url(#color-133)" stroke="#000000"/><path d="M230.95711,177.76196l-0.13714,-0.0379l0.01573,-0.05691l0.13714,0.0379z" fill="url(#color-134)" stroke="#000000"/><path d="M231.12755,177.14538l-0.13714,-0.0379l0.01574,-0.05692l0.13714,0.0379z" fill="url(#color-135)" stroke="#000000"/><path d="M230.84544,177.43773l-0.13714,-0.0379l0.03474,-0.12565l0.13714,0.0379z" fill="url(#color-136)" stroke="#000000"/><path d="M230.79991,177.60248l-0.13714,-0.0379l0.02717,-0.09833l0.13714,0.0379z" fill="url(#color-137)" stroke="#000000"/><path d="M230.89929,177.24289l-0.13714,-0.0379l0.02717,-0.09833l0.13714,0.0379z" fill="url(#color-138)" stroke="#000000"/><path d="M230.7701,177.71029l-0.13714,-0.0379l0.01574,-0.05692l0.13714,0.0379z" fill="url(#color-139)" stroke="#000000"/><path d="M230.94054,177.09364l-0.13714,-0.0379l0.01574,-0.05692l0.13714,0.0379z" fill="url(#color-140)" stroke="#000000"/><path d="M230.65844,177.38603l-0.13714,-0.0379l0.03473,-0.12566l0.13714,0.0379z" fill="url(#color-141)" stroke="#000000"/><path d="M230.61292,177.55075l-0.13714,-0.0379l0.02717,-0.09833l0.13714,0.0379z" fill="url(#color-142)" stroke="#000000"/><path d="M230.71229,177.19122l-0.13714,-0.0379l0.02717,-0.09833l0.13714,0.0379z" fill="url(#color-143)" stroke="#000000"/><path d="M230.5831,177.65863l-0.13714,-0.0379l0.01574,-0.05692l0.13714,0.0379z" fill="url(#color-144)" stroke="#000000"/><path d="M230.75354,177.04196l-0.13714,-0.0379l0.01574,-0.05692l0.13714,0.0379z" fill="url(#color-145)" stroke="#000000"/><path d="M230.47143,177.33432l-0.13714,-0.0379l0.03474,-0.12565l0.13714,0.0379z" fill="url(#color-146)" stroke="#000000"/><path d="M230.42591,177.49907l-0.13714,-0.0379l0.02717,-0.09833l0.13714,0.0379z" fill="url(#color-147)" stroke="#000000"/><path d="M230.52529,177.13956l-0.13714,-0.0379l0.02717,-0.09833l0.13714,0.0379z" fill="url(#color-148)" stroke="#000000"/><path d="M230.39609,177.60689l-0.13714,-0.0379l0.01573,-0.05692l0.13714,0.0379z" fill="url(#color-149)" stroke="#000000"/><path d="M230.56653,176.99029l-0.13714,-0.0379l0.01574,-0.05691l0.13714,0.0379z" fill="url(#color-150)" stroke="#000000"/></g><g data-paper-data="{&quot;index&quot;:null}" stroke-width="0" stroke-linecap="butt"><path d="M236.08884,171.86986l-0.41553,-0.88479l0.71292,-0.33482l0.41553,0.88478z" fill="url(#color-151)" stroke="#000000"/><path d="M236.02546,172.1237l-0.11061,-0.23551l1.00572,-0.47233l0.1106,0.23551z" fill="url(#color-152)" stroke="none"/><path d="M236.42308,171.89421l-0.07773,-0.1655l0.17379,-0.08163l0.07773,0.1655z" fill="url(#color-153)" stroke="#000000"/><path d="M236.19519,172.00122l-0.07773,-0.1655l0.13601,-0.06389l0.07774,0.1655z" fill="url(#color-154)" stroke="#000000"/><path d="M236.69253,171.76768l-0.07773,-0.1655l0.13602,-0.06388l0.07773,0.1655z" fill="url(#color-155)" stroke="#000000"/><path d="M236.04602,172.07129l-0.07773,-0.1655l0.07873,-0.03697l0.07772,0.1655z" fill="url(#color-156)" stroke="#000000"/><path d="M236.89898,171.67072l-0.07773,-0.1655l0.07873,-0.03697l0.07773,0.1655z" fill="url(#color-157)" stroke="#000000"/><path d="M236.01987,171.8388l-0.04485,-0.09547l0.79566,-0.37368l0.04484,0.09547z" fill="url(#color-158)" stroke="#000000"/><path d="M235.6623,171.02781l-0.03289,-0.07002l0.75747,-0.35575l0.03288,0.07002z" fill="url(#color-159)" stroke="#000000"/><path d="M236.30211,171.56255l-0.06049,-0.12878l0.118,-0.05542l0.06049,0.12878z" fill="url(#color-160)" stroke="#000000"/><path d="M236.14741,171.63518l-0.06048,-0.12878l0.09234,-0.04337l0.06048,0.12878z" fill="url(#color-161)" stroke="#000000"/><path d="M236.48505,171.47661l-0.06048,-0.12878l0.09234,-0.04337l0.06048,0.12878z" fill="url(#color-162)" stroke="#000000"/><path d="M236.04614,171.68273l-0.06048,-0.12878l0.05344,-0.02509l0.06049,0.12878z" fill="url(#color-163)" stroke="#000000"/><path d="M236.6252,171.41078l-0.06049,-0.12879l0.05345,-0.02509l0.06048,0.12878z" fill="url(#color-164)" stroke="#000000"/><path d="M236.21962,171.38696l-0.06048,-0.12879l0.118,-0.05541l0.06048,0.12878z" fill="url(#color-165)" stroke="#000000"/><path d="M236.06493,171.45958l-0.06048,-0.12878l0.09234,-0.04337l0.06048,0.12878z" fill="url(#color-166)" stroke="#000000"/><path d="M236.40257,171.301l-0.06049,-0.12878l0.09234,-0.04337l0.06048,0.12878z" fill="url(#color-167)" stroke="#000000"/><path d="M235.96366,171.50713l-0.06049,-0.12878l0.05345,-0.0251l0.06049,0.12879z" fill="url(#color-168)" stroke="#000000"/><path d="M236.54272,171.23519l-0.06048,-0.12878l0.05345,-0.02509l0.06048,0.12877z" fill="url(#color-169)" stroke="#000000"/><path d="M236.13716,171.21133l-0.06049,-0.12878l0.118,-0.05542l0.06048,0.12878z" fill="url(#color-170)" stroke="#000000"/><path d="M235.98245,171.28399l-0.06049,-0.12878l0.09234,-0.04337l0.06049,0.12878z" fill="url(#color-171)" stroke="#000000"/><path d="M236.32009,171.12541l-0.06048,-0.12878l0.09234,-0.04337l0.06048,0.12878z" fill="url(#color-172)" stroke="#000000"/><path d="M235.88118,171.33153l-0.06048,-0.12878l0.05345,-0.0251l0.06048,0.12879z" fill="url(#color-173)" stroke="#000000"/><path d="M236.46025,171.05959l-0.06049,-0.12878l0.05345,-0.0251l0.06048,0.12878z" fill="url(#color-174)" stroke="#000000"/><path d="M236.05467,171.03569l-0.06048,-0.12879l0.118,-0.05541l0.06048,0.12878z" fill="url(#color-175)" stroke="#000000"/><path d="M235.89997,171.10839l-0.06048,-0.12877l0.09234,-0.04337l0.06048,0.12878z" fill="url(#color-176)" stroke="#000000"/><path d="M236.23762,170.94982l-0.06049,-0.12879l0.09234,-0.04337l0.06048,0.12878z" fill="url(#color-177)" stroke="#000000"/><path d="M235.7987,171.15594l-0.06049,-0.12879l0.05345,-0.02509l0.06049,0.12878z" fill="url(#color-178)" stroke="#000000"/><path d="M236.37777,170.88393l-0.06049,-0.12878l0.05345,-0.0251l0.06048,0.12878z" fill="url(#color-179)" stroke="#000000"/></g><path d="M232.07501,180.25005c0,-4.48828 3.30754,-8.03256 7.91818,-8.20018" fill="none" stroke="#ffffff" stroke-width="0.5" stroke-linecap="butt"/><path d="M232.36709,179.70949c0,0 0.21642,-2.84641 2.00379,-4.83718c1.80034,-2.00523 4.83872,-2.45418 4.83872,-2.45418" data-paper-data="{&quot;index&quot;:null}" fill="none" stroke="url(#color-180)" stroke-width="0.25" stroke-linecap="round"/><g data-paper-data="{&quot;index&quot;:null}" fill-opacity="0.68627" fill="#000000" stroke-width="0" stroke-linecap="butt"><path d="M232.94055,174.2725l-0.68205,-0.70022l0.5642,-0.54957l0.68206,0.70022z" stroke="#000000"/><path d="M232.96366,174.53306l-0.18155,-0.18639l0.79593,-0.77528l0.18156,0.18638z" stroke="none"/><path d="M233.26437,174.18617l-0.12758,-0.13098l0.13754,-0.13397l0.12758,0.13098z" stroke="#000000"/><path d="M233.08401,174.36185l-0.12758,-0.13098l0.10764,-0.10485l0.12758,0.13097z" stroke="#000000"/><path d="M233.47761,173.97845l-0.12758,-0.13098l0.10764,-0.10485l0.12758,0.13098z" stroke="#000000"/><path d="M232.96596,174.47683l-0.12758,-0.13098l0.06231,-0.06069l0.12758,0.13098z" stroke="#000000"/><path d="M233.64099,173.81928l-0.12758,-0.13098l0.06231,-0.06069l0.12758,0.13098z" stroke="#000000"/><path d="M232.86522,174.2657l-0.0736,-0.07555l0.62968,-0.61335l0.0736,0.07555z" stroke="#000000"/><path d="M232.26207,173.61625l-0.05398,-0.05541l0.59946,-0.58392l0.05398,0.05541z" stroke="#000000"/><path d="M233.04157,173.9123l-0.09928,-0.10191l0.09338,-0.09097l0.09928,0.10192z" stroke="#000000"/><path d="M232.91915,174.03157l-0.09928,-0.10192l0.07307,-0.07119l0.09928,0.10191z" stroke="#000000"/><path d="M233.18636,173.77128l-0.09928,-0.10192l0.07308,-0.07119l0.09928,0.10192z" stroke="#000000"/><path d="M232.839,174.10962l-0.09928,-0.10192l0.0423,-0.0412l0.09928,0.10192z" stroke="#000000"/><path d="M233.29727,173.66326l-0.09928,-0.10192l0.0423,-0.04119l0.09928,0.10191z" stroke="#000000"/><path d="M232.90619,173.77333l-0.09928,-0.10191l0.09338,-0.09096l0.09928,0.10192z" stroke="#000000"/><path d="M232.78377,173.89259l-0.09928,-0.10192l0.07307,-0.07118l0.09928,0.10191z" stroke="#000000"/><path d="M233.05097,173.6323l-0.09928,-0.10192l0.07308,-0.07119l0.09928,0.10192z" stroke="#000000"/><path d="M232.70361,173.97065l-0.09928,-0.10192l0.0423,-0.0412l0.09928,0.10191z" stroke="#000000"/><path d="M233.16189,173.52428l-0.09928,-0.10191l0.0423,-0.0412l0.09928,0.10192z" stroke="#000000"/><path d="M232.77082,173.63435l-0.09927,-0.10191l0.09338,-0.09097l0.09928,0.10192z" stroke="#000000"/><path d="M232.64839,173.75361l-0.09928,-0.10192l0.07308,-0.07118l0.09928,0.10191z" stroke="#000000"/><path d="M232.9156,173.49333l-0.09928,-0.10191l0.07307,-0.07119l0.09928,0.10192z" stroke="#000000"/><path d="M232.56824,173.83169l-0.09928,-0.10192l0.0423,-0.04119l0.09928,0.10191z" stroke="#000000"/><path d="M233.02652,173.38527l-0.09928,-0.10192l0.0423,-0.0412l0.09928,0.10192z" stroke="#000000"/><path d="M232.63544,173.49537l-0.09928,-0.10192l0.09339,-0.09096l0.09928,0.10191z" stroke="#000000"/><path d="M232.51301,173.61464l-0.09928,-0.10192l0.07308,-0.07119l0.09928,0.10192z" stroke="#000000"/><path d="M232.78022,173.35435l-0.09928,-0.10191l0.07307,-0.07119l0.09928,0.10191z" stroke="#000000"/><path d="M232.43286,173.69271l-0.09928,-0.10191l0.0423,-0.0412l0.09928,0.10192z" stroke="#000000"/><path d="M232.89114,173.24629l-0.09928,-0.10192l0.0423,-0.04119l0.09928,0.10191z" stroke="#000000"/></g><g data-paper-data="{&quot;index&quot;:null}" fill-opacity="0.68627" fill="#000000" stroke-width="0" stroke-linecap="butt"><path d="M231.12159,177.847l-0.94217,-0.26042l0.20983,-0.75916l0.94217,0.26042z" stroke="#000000"/><path d="M231.273,178.0603l-0.25079,-0.06931l0.29602,-1.07095l0.25079,0.06932z" stroke="none"/><path d="M231.3576,177.60909l-0.17623,-0.04871l0.05115,-0.18507l0.17623,0.04871z" stroke="#000000"/><path d="M231.29052,177.85175l-0.17623,-0.04871l0.04003,-0.14484l0.17624,0.0487z" stroke="#000000"/><path d="M231.4369,177.32214l-0.17623,-0.04871l0.04003,-0.14484l0.17623,0.04871z" stroke="#000000"/><path d="M231.24661,178.01059l-0.17623,-0.04871l0.02318,-0.08383l0.17623,0.04871z" stroke="#000000"/><path d="M231.49766,177.10231l-0.17624,-0.04871l0.02318,-0.08383l0.17623,0.04871z" stroke="#000000"/><path d="M231.05312,177.87914l-0.10167,-0.0281l0.23418,-0.84726l0.10167,0.02809z" stroke="#000000"/><path d="M230.20468,177.62274l-0.07456,-0.02061l0.22295,-0.80661l0.07456,0.02061z" stroke="#000000"/><path d="M231.02707,177.48507l-0.13714,-0.0379l0.03473,-0.12565l0.13714,0.0379z" stroke="#000000"/><path d="M230.98154,177.64978l-0.13714,-0.0379l0.02717,-0.09834l0.13714,0.0379z" stroke="#000000"/><path d="M231.08092,177.29024l-0.13714,-0.0379l0.02717,-0.09833l0.13714,0.0379z" stroke="#000000"/><path d="M230.95173,177.75763l-0.13714,-0.0379l0.01573,-0.05691l0.13714,0.0379z" stroke="#000000"/><path d="M231.12217,177.14099l-0.13714,-0.0379l0.01574,-0.05692l0.13714,0.0379z" stroke="#000000"/><path d="M230.84006,177.43336l-0.13714,-0.0379l0.03474,-0.12565l0.13714,0.0379z" stroke="#000000"/><path d="M230.79453,177.5981l-0.13714,-0.0379l0.02717,-0.09833l0.13714,0.0379z" stroke="#000000"/><path d="M230.89391,177.23856l-0.13714,-0.0379l0.02717,-0.09833l0.13714,0.0379z" stroke="#000000"/><path d="M230.76472,177.70592l-0.13714,-0.0379l0.01574,-0.05692l0.13714,0.0379z" stroke="#000000"/><path d="M230.93516,177.08931l-0.13714,-0.0379l0.01574,-0.05692l0.13714,0.0379z" stroke="#000000"/><path d="M230.65306,177.38167l-0.13714,-0.0379l0.03473,-0.12566l0.13714,0.0379z" stroke="#000000"/><path d="M230.60754,177.54642l-0.13714,-0.0379l0.02717,-0.09833l0.13714,0.0379z" stroke="#000000"/><path d="M230.70691,177.18689l-0.13714,-0.0379l0.02717,-0.09833l0.13714,0.0379z" stroke="#000000"/><path d="M230.57772,177.65424l-0.13714,-0.0379l0.01574,-0.05692l0.13714,0.0379z" stroke="#000000"/><path d="M230.74816,177.03763l-0.13714,-0.0379l0.01574,-0.05692l0.13714,0.0379z" stroke="#000000"/><path d="M230.46605,177.32999l-0.13714,-0.0379l0.03474,-0.12565l0.13714,0.0379z" stroke="#000000"/><path d="M230.42053,177.49474l-0.13714,-0.0379l0.02717,-0.09833l0.13714,0.0379z" stroke="#000000"/><path d="M230.51991,177.13518l-0.13714,-0.0379l0.02717,-0.09833l0.13714,0.0379z" stroke="#000000"/><path d="M230.39071,177.60256l-0.13714,-0.0379l0.01573,-0.05692l0.13714,0.0379z" stroke="#000000"/><path d="M230.56115,176.98592l-0.13714,-0.0379l0.01574,-0.05691l0.13714,0.0379z" stroke="#000000"/></g><g data-paper-data="{&quot;index&quot;:null}" fill-opacity="0.68627" fill="#000000" stroke-width="0" stroke-linecap="butt"><path d="M236.08346,171.86553l-0.41553,-0.88479l0.71292,-0.33482l0.41553,0.88478z" stroke="#000000"/><path d="M236.02008,172.11932l-0.11061,-0.23551l1.00572,-0.47233l0.1106,0.23551z" stroke="none"/><path d="M236.4177,171.88984l-0.07773,-0.1655l0.17379,-0.08163l0.07773,0.1655z" stroke="#000000"/><path d="M236.18981,171.99689l-0.07773,-0.1655l0.13601,-0.06389l0.07774,0.1655z" stroke="#000000"/><path d="M236.68715,171.7633l-0.07773,-0.1655l0.13602,-0.06388l0.07773,0.1655z" stroke="#000000"/><path d="M236.04064,172.06693l-0.07773,-0.1655l0.07873,-0.03697l0.07772,0.1655z" stroke="#000000"/><path d="M236.8936,171.66633l-0.07773,-0.1655l0.07873,-0.03697l0.07773,0.1655z" stroke="#000000"/><path d="M236.01449,171.83447l-0.04485,-0.09547l0.79566,-0.37368l0.04484,0.09547z" stroke="#000000"/><path d="M235.65692,171.02348l-0.03289,-0.07002l0.75747,-0.35575l0.03288,0.07002z" stroke="#000000"/><path d="M236.29673,171.55822l-0.06049,-0.12878l0.118,-0.05542l0.06049,0.12878z" stroke="#000000"/><path d="M236.14203,171.63085l-0.06048,-0.12878l0.09234,-0.04337l0.06048,0.12878z" stroke="#000000"/><path d="M236.47967,171.47228l-0.06048,-0.12878l0.09234,-0.04337l0.06048,0.12878z" stroke="#000000"/><path d="M236.04076,171.6784l-0.06048,-0.12878l0.05344,-0.02509l0.06049,0.12878z" stroke="#000000"/><path d="M236.61982,171.40645l-0.06049,-0.12879l0.05345,-0.02509l0.06048,0.12878z" stroke="#000000"/><path d="M236.21424,171.38257l-0.06048,-0.12879l0.118,-0.05541l0.06048,0.12878z" stroke="#000000"/><path d="M236.05955,171.45525l-0.06048,-0.12878l0.09234,-0.04337l0.06048,0.12878z" stroke="#000000"/><path d="M236.39719,171.29667l-0.06049,-0.12878l0.09234,-0.04337l0.06048,0.12878z" stroke="#000000"/><path d="M235.95828,171.5028l-0.06049,-0.12878l0.05345,-0.0251l0.06049,0.12879z" stroke="#000000"/><path d="M236.53734,171.23085l-0.06048,-0.12878l0.05345,-0.02509l0.06048,0.12877z" stroke="#000000"/><path d="M236.13178,171.20697l-0.06049,-0.12878l0.118,-0.05542l0.06048,0.12878z" stroke="#000000"/><path d="M235.97707,171.27965l-0.06049,-0.12878l0.09234,-0.04337l0.06049,0.12878z" stroke="#000000"/><path d="M236.31471,171.12108l-0.06048,-0.12878l0.09234,-0.04337l0.06048,0.12878z" stroke="#000000"/><path d="M235.8758,171.3272l-0.06048,-0.12878l0.05345,-0.0251l0.06048,0.12879z" stroke="#000000"/><path d="M236.45487,171.05521l-0.06049,-0.12878l0.05345,-0.0251l0.06048,0.12878z" stroke="#000000"/><path d="M236.04929,171.03136l-0.06048,-0.12879l0.118,-0.05541l0.06048,0.12878z" stroke="#000000"/><path d="M235.89459,171.10401l-0.06048,-0.12877l0.09234,-0.04337l0.06048,0.12878z" stroke="#000000"/><path d="M236.23224,170.94544l-0.06049,-0.12879l0.09234,-0.04337l0.06048,0.12878z" stroke="#000000"/><path d="M235.79332,171.15156l-0.06049,-0.12879l0.05345,-0.02509l0.06049,0.12878z" stroke="#000000"/><path d="M236.37239,170.8796l-0.06049,-0.12878l0.05345,-0.0251l0.06048,0.12878z" stroke="#000000"/></g></g></g></g></svg>