<svg version="1.1" xmlns="http://www.w3.org/2000/svg" xmlns:xlink="http://www.w3.org/1999/xlink" width="82.77456" height="104.77236" viewBox="0,0,82.77456,104.77236"><defs><radialGradient cx="238.03855" cy="177.69082" r="22.57159" gradientUnits="userSpaceOnUse" id="color-1"><stop offset="0" stop-color="#3c3c3c"/><stop offset="1" stop-color="#939393"/></radialGradient><linearGradient x1="238.44142" y1="155.97364" x2="238.70036" y2="162.81979" gradientUnits="userSpaceOnUse" id="color-2"><stop offset="0" stop-color="#696969"/><stop offset="1" stop-color="#a0a0a0"/></linearGradient><radialGradient cx="233.55212" cy="133.49017" r="13.11833" gradientUnits="userSpaceOnUse" id="color-3"><stop offset="0" stop-color="#dcdcdc"/><stop offset="1" stop-color="#a0a0a0"/></radialGradient><radialGradient cx="239.39602" cy="140.15866" r="9.85359" gradientUnits="userSpaceOnUse" id="color-4"><stop offset="0" stop-color="#c5dfff"/><stop offset="1" stop-color="#219cff"/></radialGradient><radialGradient cx="228.34682" cy="134.30182" r="10.07074" gradientUnits="userSpaceOnUse" id="color-5"><stop offset="0" stop-color="#303030"/><stop offset="1" stop-color="#292929"/></radialGradient><radialGradient cx="244.643" cy="130.50334" r="2.65078" gradientUnits="userSpaceOnUse" id="color-6"><stop offset="0" stop-color="#787878"/><stop offset="1" stop-color="#292929"/></radialGradient><radialGradient cx="233.5805" cy="133.08833" r="4.17314" gradientUnits="userSpaceOnUse" id="color-7"><stop offset="0" stop-color="#a7a7a7"/><stop offset="1" stop-color="#292929"/></radialGradient><linearGradient x1="258.64911" y1="193.18715" x2="264.34326" y2="182.6687" gradientUnits="userSpaceOnUse" id="color-8"><stop offset="0" stop-color="#242424"/><stop offset="1" stop-color="#373737"/></linearGradient><radialGradient cx="255.146" cy="192.78749" r="3.52256" gradientUnits="userSpaceOnUse" id="color-9"><stop offset="0" stop-color="#bfbfbf"/><stop offset="1" stop-color="#9a9a9a"/></radialGradient><linearGradient x1="266.02307" y1="182.86448" x2="296.71193" y2="149.3581" gradientUnits="userSpaceOnUse" id="color-10"><stop offset="0" stop-color="#b2b2b2"/><stop offset="1" stop-color="#c4c4c4"/></linearGradient><linearGradient x1="266.49044" y1="182.88628" x2="286.57683" y2="160.95578" gradientUnits="userSpaceOnUse" id="color-11"><stop offset="0" stop-color="#cccccc"/><stop offset="1" stop-color="#d8d8d8"/></linearGradient><linearGradient x1="264.02395" y1="184.45279" x2="265.70376" y2="182.68263" gradientUnits="userSpaceOnUse" id="color-12"><stop offset="0" stop-color="#b5b5b5"/><stop offset="1" stop-color="#c5c5c5"/></linearGradient></defs><g transform="translate(-218.71487,-129.55403)"><g data-paper-data="{&quot;isPaintingLayer&quot;:true}" fill-rule="nonzero" stroke-linejoin="miter" stroke-miterlimit="10" stroke-dasharray="" stroke-dashoffset="0" style="mix-blend-mode: normal"><path d="M223.93464,200.812l-1.70619,-45.11094l29.91399,-1.13141l1.70619,45.11094z" fill="url(#color-1)" stroke="#ed6b00" stroke-width="0" stroke-linecap="butt"/><g><path d="M226.12337,227.23573l3.75904,-33.71008c0,0 6.75518,-2.18267 9.822,-2.18267c3.62872,0 0.6063,4.24407 0.6063,4.24407c0,0 -3.09204,0.08829 -3.39803,1.52409c-0.93579,4.39099 -2.78619,30.12458 -2.78619,30.12458z" fill="#494949" stroke="#000000" stroke-width="0" stroke-linecap="butt"/><path d="M218.71488,232.15169c0,0 0.61145,-1.46541 0.87307,-1.98866c0.21362,-0.42723 1.67337,-1.04283 1.67337,-1.04283c0,0 2.87078,-0.52826 4.24057,-0.6468c2.3149,-0.20032 8.24914,-0.08075 8.24914,-0.08075c0,0 0.18654,1.78201 0.16433,2.53701c-0.01648,0.56041 -0.2856,1.5858 -0.2856,1.5858c0,0 -0.80978,0.42493 -2.37463,0.77781c-0.84924,0.19151 -2.6127,-0.20879 -3.78777,-0.02896c-0.93338,0.14284 -1.58295,0.71166 -2.83553,0.76063c-2.06025,0.08055 -4.1116,0.06689 -4.70436,0.06689c-0.8269,0 -1.2126,-1.94015 -1.2126,-1.94015z" data-paper-data="{&quot;index&quot;:null}" fill="#141415" stroke="#000000" stroke-width="0" stroke-linecap="butt"/><path d="M218.98577,231.51703c0,0 0.36892,-2.43548 0.63055,-2.95873c0.21362,-0.42723 1.67337,-1.04283 1.67337,-1.04283c0,0 3.23456,-0.52826 4.60434,-0.6468c0.23296,-0.02016 0.35598,-3.60004 0.35598,-3.60004c0,0 3.28733,0.24389 3.72275,0.23408c0.80976,-0.01824 -0.72604,3.24957 0.12091,3.24981c0.48368,0.00014 2.04996,0.7565 2.80058,0.01889c0.83894,-0.82441 1.32529,-3.03123 1.32529,-3.03123l-0.07637,3.04773c0,0 0.06762,0.96834 -0.80847,1.8858c-0.59976,0.62808 -0.39071,1.79073 -1.26542,2.3793c-1.27187,0.85581 -1.43643,0.91707 -1.78458,0.97035c-0.99967,0.15299 -1.27796,-0.61058 -3.58733,-0.44204c-1.10442,0.0806 -0.74527,1.01524 -3.8809,1.26883c-3.3205,0.26854 -2.36989,-1.33311 -2.61811,-1.33311c-0.8269,0 -1.21259,0 -1.21259,0z" data-paper-data="{&quot;index&quot;:null}" fill="#252527" stroke="#000000" stroke-width="0" stroke-linecap="butt"/><path d="M227.66846,228.57843l-2.66771,-1.09134" data-paper-data="{&quot;index&quot;:null}" fill="none" stroke="#ffffff" stroke-width="0.5" stroke-linecap="round"/><path d="M225.72831,228.94221l-2.54644,-1.45511" data-paper-data="{&quot;index&quot;:null}" fill="none" stroke="#ffffff" stroke-width="0.5" stroke-linecap="round"/><path d="M223.54565,229.18473l-1.45512,-1.45512" data-paper-data="{&quot;index&quot;:null}" fill="none" stroke="#ffffff" stroke-width="0.5" stroke-linecap="round"/><path d="M226.69839,224.45562l2.18267,0.24252" data-paper-data="{&quot;index&quot;:null}" fill="none" stroke="#969696" stroke-width="0.5" stroke-linecap="round"/><path d="M228.39602,225.54695l-1.94015,-0.36378" data-paper-data="{&quot;index&quot;:null}" fill="none" stroke="#969696" stroke-width="0.5" stroke-linecap="round"/></g><g><path d="M245.93091,227.32045c0,0 -1.8504,-25.73359 -2.78619,-30.12458c-0.30599,-1.4358 -3.39803,-1.52409 -3.39803,-1.52409c0,0 -3.02242,-4.24407 0.6063,-4.24407c3.06682,0 9.822,2.18267 9.822,2.18267l3.75904,33.71008z" data-paper-data="{&quot;index&quot;:null}" fill="#494949" stroke="#000000" stroke-width="0" stroke-linecap="butt"/><path d="M259.69259,234.32551c-0.59276,0 -2.64411,0.01365 -4.70436,-0.0669c-1.25258,-0.04897 -1.90215,-0.61779 -2.83553,-0.76063c-1.17507,-0.17982 -2.93854,0.22047 -3.78778,0.02896c-1.56485,-0.35288 -2.37463,-0.77782 -2.37463,-0.77782c0,0 -0.26911,-1.0254 -0.2856,-1.5858c-0.02221,-0.75501 0.16433,-2.53701 0.16433,-2.53701c0,0 5.93425,-0.11957 8.24914,0.08076c1.36979,0.11854 4.24057,0.6468 4.24057,0.6468c0,0 1.45976,0.6156 1.67337,1.04283c0.26162,0.52325 0.87307,1.98865 0.87307,1.98865c0,0 -0.3857,1.94015 -1.21259,1.94015z" data-paper-data="{&quot;index&quot;:null}" fill="#141415" stroke="#000000" stroke-width="0" stroke-linecap="butt"/><path d="M259.4217,231.7507c-0.24822,0 0.7024,1.60165 -2.61811,1.33311c-3.13563,-0.25358 -2.77648,-1.18823 -3.8809,-1.26883c-2.30937,-0.16854 -2.58765,0.59503 -3.58732,0.44205c-0.34815,-0.05328 -0.51271,-0.11454 -1.78459,-0.97035c-0.87472,-0.58857 -0.66566,-1.75122 -1.26542,-2.3793c-0.87609,-0.91745 -0.80847,-1.8858 -0.80847,-1.8858l-0.07637,-3.04773c0,0 0.48635,2.20681 1.32529,3.03122c0.75062,0.73761 2.3169,-0.01875 2.80058,-0.01889c0.84696,-0.00024 -0.68885,-3.26804 0.12091,-3.2498c0.43542,0.00981 3.72275,-0.23409 3.72275,-0.23409c0,0 0.12302,3.57989 0.35598,3.60005c1.36979,0.11854 4.60434,0.6468 4.60434,0.6468c0,0 1.45976,0.6156 1.67338,1.04283c0.26162,0.52325 0.63055,2.95873 0.63055,2.95873c0,0 -0.3857,0 -1.2126,0z" data-paper-data="{&quot;index&quot;:null}" fill="#252527" stroke="#000000" stroke-width="0" stroke-linecap="butt"/><path d="M251.9516,228.8121l2.6677,-1.09133" fill="none" stroke="#ffffff" stroke-width="0.5" stroke-linecap="round"/><path d="M253.89175,229.17588l2.54645,-1.45511" fill="none" stroke="#ffffff" stroke-width="0.5" stroke-linecap="round"/><path d="M256.07442,229.4184l1.45512,-1.45511" fill="none" stroke="#ffffff" stroke-width="0.5" stroke-linecap="round"/><path d="M252.92167,224.68929l-2.18266,0.24252" fill="none" stroke="#969696" stroke-width="0.5" stroke-linecap="round"/><path d="M253.1642,225.41684l-1.94015,0.36378" fill="none" stroke="#969696" stroke-width="0.5" stroke-linecap="round"/></g><g stroke="#000000" stroke-width="0" stroke-linecap="butt"><path d="M258.93592,186.36124c0,0 -0.34618,-3.00186 -1.82662,-6.18407c-0.356,-0.76524 -1.35709,-3.3362 -1.72989,-4.11883c-0.88229,-1.85229 -1.81772,-3.65881 -2.33312,-4.80722c-1.10855,-2.47003 -2.44608,-5.62978 -2.44608,-5.62978c0,0 -2.4774,-6.25221 -1.59861,-6.78609c5.13945,-3.12232 6.57172,4.32635 6.57172,4.32635c0,0 1.9779,4.48276 3.15649,7.10889c0.47966,1.06876 0.32949,2.10568 1.01282,3.78872c0.30632,0.75445 1.19515,4.16055 1.82786,6.21605c1.05342,3.42235 2.02745,5.38396 2.02745,5.38396z" data-paper-data="{&quot;index&quot;:null}" fill="#bdbdbd"/><path d="M264.92194,189.98733c-0.20542,0.03518 1.0397,3.5751 0.18614,3.78884c-0.41982,0.10512 -0.71904,-2.33069 -1.52487,-2.96228c-0.42654,-0.33433 1.54527,4.00614 0.31919,3.8639c-0.42092,-0.04884 -1.11299,-3.42133 -1.73978,-4.09269c-0.33553,-0.35939 1.52853,4.99393 0.71964,4.94345c-0.48019,-0.02996 -0.94321,-3.15101 -1.63534,-4.41342c-0.33719,-0.61501 0.73421,3.80417 0.11653,3.64755c-0.37809,-0.09587 -1.63554,-4.35724 -1.68532,-4.395c-0.27978,-0.21227 -0.21405,2.57299 -0.65017,2.0245c-0.80377,-1.01086 -0.31356,-2.63883 0.01146,-4.12764c0.18992,-0.86985 -0.10927,-2.01201 -0.10927,-2.01201c0,0 1.40607,-0.90217 2.19316,-1.0207c0.76637,-0.1154 2.46886,0.31868 2.46886,0.31868c0,0 1.76492,4.36228 1.32975,4.43681z" data-paper-data="{&quot;index&quot;:null}" fill="#777777"/></g><g stroke-linecap="butt"><path d="M234.87501,162.96448l-0.25893,-6.84615l7.65068,-0.28936l0.25893,6.84615z" fill="url(#color-2)" stroke="#000000" stroke-width="0"/><path d="M251.02415,143.06626c0.29219,7.7254 -5.20458,14.20493 -12.27739,14.47243c-7.0728,0.26751 -13.04331,-5.77831 -13.3355,-13.5037c-0.29219,-7.7254 5.20458,-14.20492 12.27739,-14.47242c7.0728,-0.26751 13.04331,5.7783 13.3355,13.50369z" fill="url(#color-3)" stroke="none" stroke-width="0"/><path d="M252.28823,142.39866c0.14154,3.74218 0.34881,8.20644 -9.26012,9.04791c-10.73486,0.94007 -10.28358,-4.56119 -10.42511,-8.30338c-0.14154,-3.74218 4.15042,-6.9425 9.58636,-7.14809c5.43593,-0.2056 9.95737,2.66137 10.09891,6.40356z" data-paper-data="{&quot;index&quot;:null}" fill="url(#color-4)" stroke="#ed6b00" stroke-width="0"/><path d="M231.03566,134.20966c-0.16913,0.02194 -0.60383,0.08509 -1.07282,0.18448c-0.51364,0.227 -1.11446,0.46017 -1.5719,0.70763c-0.25514,0.90305 0.85482,1.77598 -0.5602,2.49816c-2.4133,1.23167 -1.79238,-1.97255 -1.01183,-3.00075c1.22796,-1.15377 3.0945,-1.35733 4.69372,-1.72763c2.20278,-0.51007 4.34027,-1.24827 6.529,-1.46518c0.07917,-0.08928 0.18976,-0.15139 0.31741,-0.16781l0.5837,-0.07501c0.29224,-0.08885 0.60993,-0.18179 0.94398,-0.27094c0.86547,-0.30687 1.91388,-0.48893 2.89222,-0.61841c0.47788,-0.11276 0.92738,-0.17407 1.30177,-0.15467c0.27292,-0.03059 0.52674,-0.05927 0.7533,-0.08839l0.61532,-0.07908c0.28026,-0.03602 0.53665,0.16197 0.57266,0.44223c0.03205,0.24944 -0.12126,0.47997 -0.35296,0.55305l-0.32576,0.10984c0.1495,0.11624 0.28623,0.25048 0.40802,0.40457l0.22947,-0.12784l0.31956,0.57355c0.03398,0.05779 0.05708,0.12325 0.06617,0.19393c0.03602,0.28026 -0.16197,0.53665 -0.44222,0.57265c-0.08523,0.01095 -0.16825,0.00027 -0.24354,-0.0278l-0.51417,-0.17948l0.00528,-0.01513l-0.04798,-0.00196c-0.37029,-0.20989 -0.74478,-0.3646 -1.11675,-0.4649c-0.55983,0.0011 -1.15025,-0.03777 -1.75156,-0.06405c-1.00732,0.21272 -1.90169,0.87497 -2.51784,1.96754c0,0 -0.25229,0.44509 -0.69737,0.19279c-0.44508,-0.25229 -0.1928,-0.69738 -0.1928,-0.69738c0.05396,-0.09476 0.10987,-0.18706 0.16765,-0.27687l-0.2803,0.1012c-0.03749,0.01442 -0.07729,0.02463 -0.11891,0.02998c-0.28026,0.03602 -0.53665,-0.16197 -0.57265,-0.44223c-0.01823,-0.14184 0.02348,-0.27756 0.10546,-0.38169c-0.24491,0.00975 -0.47574,0.03184 -0.67066,0.08782c-1.36144,0.39097 -3.46806,0.58348 -5.44802,0.96445c0.02032,0.24066 -0.13066,0.45962 -0.35536,0.53049l-0.59053,0.19911l-0.00644,-0.01908l-0.00739,0.00222z" fill="url(#color-5)" stroke="none" stroke-width="0.5"/><path d="M245.9779,129.91082c2.69628,-0.38636 2.67446,-0.34482 2.95833,1.47597c0.28387,1.82079 -0.65432,3.38901 -2.0955,3.50272c-1.44119,0.11372 -2.83963,-1.27014 -3.1235,-3.09094c-0.28387,-1.82079 -0.26768,-1.52546 2.26068,-1.88776z" data-paper-data="{&quot;index&quot;:null}" fill="url(#color-6)" stroke="#000000" stroke-width="0"/><path d="M239.46394,132.83996c0.43256,1.97648 -1.02496,3.97448 -3.25546,4.46262c-2.23049,0.48814 -4.38933,-0.71839 -4.82189,-2.69488c-0.43256,-1.97648 -0.48518,-2.00972 3.76993,-2.74587c3.9901,-0.69031 3.87486,-0.99835 4.30742,0.97813z" fill="url(#color-7)" stroke="#000000" stroke-width="0"/></g><path d="M229.75875,193.85195c0,0 -0.04316,-5.56204 -0.76605,-10.92267c-0.49119,-3.64251 -1.66675,-6.90113 -1.91779,-9.38761c-0.47119,-4.66686 -0.71613,-13.36471 -0.71613,-13.36471c0,0 3.66704,-0.72388 5.45723,-0.42513c2.27881,0.38029 7.10695,2.52186 7.10695,2.52186c0,0 3.59222,-2.30803 5.48855,-2.79631c2.00087,-0.5152 6.21988,-0.21847 6.21988,-0.21847c0,0 0.27936,9.21313 0.25162,12.65582c-0.02455,3.04595 -0.64825,6.39718 -0.77167,10.90989c-0.1272,4.65109 0.24615,10.41969 0.24615,10.41969c0,0 -2.78408,-0.66457 -5.59954,-0.62635c-1.27859,0.01736 -1.75195,1.0731 -2.95232,1.27782c-0.95946,0.16362 -2.65751,-0.51284 -3.58308,-0.51461c-0.6997,-0.00134 -2.06236,-0.45298 -2.55641,-0.4384c-0.99755,0.02942 -1.58186,0.92574 -2.73274,1.12873c-1.33688,0.2358 -3.17467,-0.21956 -3.17467,-0.21956z" fill="#d0d0d0" stroke="#292e32" stroke-width="0" stroke-linecap="butt"/><path d="M241.97302,170.28917l-0.34116,-5.81171l7.64763,0.07479l0.19707,5.21042z" fill="#f200ff" stroke="none" stroke-width="0" stroke-linecap="butt"/><g stroke="none" stroke-width="0" stroke-linecap="butt"><path d="M259.61509,193.71009l-3.71223,-3.39745l7.47439,-8.16684l3.71223,3.39746z" fill="url(#color-8)"/><path d="M258.50989,189.74469c1.71083,0.92618 2.34696,3.06389 1.42079,4.77471c-0.92617,1.71085 -3.06389,2.34696 -4.77472,1.42079c-1.71085,-0.92618 -2.34697,-3.06388 -1.42079,-4.77472c0.92617,-1.71085 3.06389,-2.34696 4.77473,-1.42079z" fill="url(#color-9)"/><path d="M269.45284,186.00581l-6.85959,-6.28276l31.86988,-31.98417l7.0263,-4.17042l-3.32699,7.35539z" fill="url(#color-10)"/><path d="M268.73529,184.94239l-4.79829,-4.29314l26.69303,-26.63749l7.75004,-6.6881l-5.76498,8.10208z" fill="url(#color-11)"/><path d="M258.61278,172.9351c0,0 4.35122,6.72073 7.17903,9.47613c3.10484,3.02531 10.69661,7.94173 10.69661,7.94173c0,0 -9.44484,-3.3173 -12.45614,-6.25148c-2.9458,-2.87034 -5.41947,-11.1664 -5.41947,-11.1664z" fill="url(#color-12)"/></g><g stroke="#000000" stroke-width="0" stroke-linecap="butt"><path d="M246.14868,191.55213c0,0 -1.60672,-2.11572 -4.84554,-4.9619c-1.94528,-1.70944 -5.27637,-4.33328 -5.94039,-5.05765c-1.48133,-1.61592 -2.77919,-1.8642 -3.68901,-2.95018c-2.23559,-2.66842 -6.07458,-7.17893 -6.07458,-7.17893c0,0 -7.8439,-5.46479 -0.54999,-11.10285c1.16442,-0.90007 6.74281,5.65132 6.74281,5.65132c0,0 2.74417,3.10523 4.84685,5.61503c0.97761,1.1669 2.43139,3.16561 3.97382,5.11444c0.65171,0.82342 2.94335,3.23592 3.5863,4.02992c2.67369,3.30183 5.90431,5.04231 5.90431,5.04231z" fill="#bdbdbd"/><path d="M250.49215,195.27224c-0.37818,0.53831 -4.2321,-3.63238 -4.2321,-3.63238c0,0 0.64144,-2.41525 1.28916,-3.37002c0.66524,-0.98061 2.65113,-2.43818 2.65113,-2.43818c0,0 1.11841,0.87857 2.2506,1.00041c1.93782,0.20853 4.14726,0.25998 4.77531,1.74363c0.34079,0.80501 -2.83219,-0.46781 -2.77482,-0.01085c0.01021,0.08131 4.08821,3.5442 3.94515,4.08035c-0.23371,0.87588 -4.61887,-2.41054 -4.13485,-1.70678c0.99353,1.44458 4.28768,3.38092 3.99996,4.02273c-0.48468,1.08118 -5.41674,-3.64165 -5.22685,-3.04898c0.35471,1.10714 3.78553,3.45067 3.55939,4.0229c-0.65872,1.66679 -4.34855,-2.76566 -4.24872,-2.06442c0.1886,1.32475 2.80121,2.75455 2.39798,3.25974c-0.81984,1.02711 -4.07281,-2.11225 -4.25133,-1.85815z" data-paper-data="{&quot;index&quot;:null}" fill="#777777"/></g></g></g></svg>