<svg version="1.1" xmlns="http://www.w3.org/2000/svg" xmlns:xlink="http://www.w3.org/1999/xlink" width="142.18611" height="166.79138" viewBox="0,0,142.18611,166.79138"><defs><linearGradient x1="259.87539" y1="97.96372" x2="259.87539" y2="174.0427" gradientUnits="userSpaceOnUse" id="color-1"><stop offset="0" stop-color="#000000" stop-opacity="0"/><stop offset="1" stop-color="#000000" stop-opacity="0"/></linearGradient><linearGradient x1="191.27488" y1="15.6668" x2="192.30751" y2="62.00219" gradientUnits="userSpaceOnUse" id="color-2"><stop offset="0" stop-color="#4a4a4a" stop-opacity="0"/><stop offset="1" stop-color="#4a4a4a" stop-opacity="0.08627"/></linearGradient><linearGradient x1="193.98209" y1="13.60741" x2="192.61721" y2="63.70829" gradientUnits="userSpaceOnUse" id="color-3"><stop offset="0" stop-color="#292929" stop-opacity="0"/><stop offset="1" stop-color="#292929" stop-opacity="0.13333"/></linearGradient><linearGradient x1="196.25399" y1="17.09826" x2="191.85127" y2="62.99229" gradientUnits="userSpaceOnUse" id="color-4"><stop offset="0" stop-color="#383838" stop-opacity="0"/><stop offset="1" stop-color="#383838" stop-opacity="0.09804"/></linearGradient><linearGradient x1="193.21031" y1="18.90325" x2="192.34901" y2="61.6625" gradientUnits="userSpaceOnUse" id="color-5"><stop offset="0" stop-color="#4a4a4a" stop-opacity="0"/><stop offset="1" stop-color="#4a4a4a" stop-opacity="0.03922"/></linearGradient><linearGradient x1="263.55" y1="87.3135" x2="263.55" y2="175.64683" gradientUnits="userSpaceOnUse" id="color-6"><stop offset="0" stop-color="#5d5d5d"/><stop offset="1" stop-color="#474747"/></linearGradient><radialGradient cx="279.53333" cy="98.20194" r="11.83333" gradientUnits="userSpaceOnUse" id="color-7"><stop offset="0" stop-color="#939393"/><stop offset="1" stop-color="#393939"/></radialGradient><linearGradient x1="279.53333" y1="86.56259" x2="279.53333" y2="109.84128" gradientUnits="userSpaceOnUse" id="color-8"><stop offset="0" stop-color="#666666"/><stop offset="1" stop-color="#4f4f4f"/></linearGradient><linearGradient x1="240.37499" y1="173.13949" x2="240.37499" y2="180.21186" gradientUnits="userSpaceOnUse" id="color-9"><stop offset="0" stop-color="#348317"/><stop offset="1" stop-color="#3c5b0d"/></linearGradient><radialGradient cx="197.27832" cy="111.47475" r="37.63684" gradientUnits="userSpaceOnUse" id="color-10"><stop offset="0" stop-color="#939393"/><stop offset="1" stop-color="#535353"/></radialGradient><radialGradient cx="196.88931" cy="83.72848" r="37.63684" gradientUnits="userSpaceOnUse" id="color-11"><stop offset="0" stop-color="#393939"/><stop offset="1" stop-color="#1b1b1b"/></radialGradient><radialGradient cx="196.69481" cy="78.21429" r="32.09343" gradientUnits="userSpaceOnUse" id="color-12"><stop offset="0" stop-color="#373737"/><stop offset="1" stop-color="#1b1b1b"/></radialGradient><linearGradient x1="180.03919" y1="69.10837" x2="204.20995" y2="69.10837" gradientUnits="userSpaceOnUse" id="color-13"><stop offset="0" stop-color="#535353"/><stop offset="1" stop-color="#232323"/></linearGradient><radialGradient cx="218.50361" cy="90.86672" r="17.36636" gradientUnits="userSpaceOnUse" id="color-14"><stop offset="0" stop-color="#939393"/><stop offset="1" stop-color="#535353"/></radialGradient><radialGradient cx="236.16706" cy="98.76667" r="9.74286" gradientUnits="userSpaceOnUse" id="color-15"><stop offset="0" stop-color="#1d1d1d"/><stop offset="1" stop-color="#080808"/></radialGradient><linearGradient x1="236.16706" y1="89.02381" x2="236.16706" y2="108.50953" gradientUnits="userSpaceOnUse" id="color-16"><stop offset="0" stop-color="#ffffff"/><stop offset="1" stop-color="#a0a0a0"/></linearGradient><radialGradient cx="185.99995" cy="130.0595" r="50.77276" gradientUnits="userSpaceOnUse" id="color-17"><stop offset="0" stop-color="#adadad"/><stop offset="1" stop-color="#666666"/></radialGradient><radialGradient cx="192.42657" cy="144.99996" r="35.99484" gradientUnits="userSpaceOnUse" id="color-18"><stop offset="0" stop-color="#1e1e1e"/><stop offset="1" stop-color="#171717"/></radialGradient><linearGradient x1="276.63915" y1="101.19904" x2="282.75552" y2="95.40101" gradientUnits="userSpaceOnUse" id="color-19"><stop offset="0" stop-color="#644520"/><stop offset="1" stop-color="#5c401f"/></linearGradient><linearGradient x1="276.74058" y1="95.21705" x2="282.65409" y2="101.38302" gradientUnits="userSpaceOnUse" id="color-20"><stop offset="0" stop-color="#644520"/><stop offset="1" stop-color="#5c401f"/></linearGradient><linearGradient x1="275.45518" y1="98.20957" x2="283.93951" y2="98.39047" gradientUnits="userSpaceOnUse" id="color-21"><stop offset="0" stop-color="#644520"/><stop offset="1" stop-color="#5c401f"/></linearGradient><linearGradient x1="279.62526" y1="102.54148" x2="279.76939" y2="94.05856" gradientUnits="userSpaceOnUse" id="color-22"><stop offset="0" stop-color="#644520"/><stop offset="1" stop-color="#5c401f"/></linearGradient><linearGradient x1="256.66553" y1="120.8781" x2="302.72915" y2="75.72194" gradientUnits="userSpaceOnUse" id="color-23"><stop offset="0" stop-color="#e08200"/><stop offset="1" stop-color="#82491d"/></linearGradient><linearGradient x1="274.70851" y1="103.19056" x2="284.68616" y2="93.40949" gradientUnits="userSpaceOnUse" id="color-24"><stop offset="0" stop-color="#636363"/><stop offset="1" stop-color="#3a3a3a"/></linearGradient><linearGradient x1="274.70851" y1="103.19056" x2="284.68616" y2="93.40949" gradientUnits="userSpaceOnUse" id="color-25"><stop offset="0" stop-color="#adadad"/><stop offset="1" stop-color="#7e7e7e"/></linearGradient><radialGradient cx="257.25843" cy="92.42256" r="20.5" gradientUnits="userSpaceOnUse" id="color-26"><stop offset="0" stop-color="#454545"/><stop offset="1" stop-color="#2f2f2f"/></radialGradient><radialGradient cx="290.83612" cy="81.35661" r="6.16667" gradientUnits="userSpaceOnUse" id="color-27"><stop offset="0" stop-color="#939393"/><stop offset="1" stop-color="#454545"/></radialGradient><radialGradient cx="292.91943" cy="83.59268" r="6.16667" gradientUnits="userSpaceOnUse" id="color-28"><stop offset="0" stop-color="#636363"/><stop offset="1" stop-color="#232323"/></radialGradient></defs><g transform="translate(-171.50034,-13.42048)"><g data-paper-data="{&quot;isPaintingLayer&quot;:true}" fill-rule="nonzero" stroke-linejoin="miter" stroke-miterlimit="10" stroke-dasharray="" stroke-dashoffset="0" style="mix-blend-mode: normal"><path d="M236.92521,174.0427v-76.07898h44.2092l14.54429,76.75546z" fill-opacity="0.00392" fill="#ffffff" stroke="url(#color-1)" stroke-width="2.5" stroke-linecap="butt"/><path d="M183.49393,59.56278l-0.01322,-0.01039l-0.00797,-0.0416c-0.07856,-0.20225 -0.12575,-0.43553 -0.13133,-0.68543l-0.01089,-0.48878l0.02546,-0.17655l-0.00402,-0.18054l0.03138,-0.2177l-0.02415,-1.08388l-0.06864,-0.57836l0.00494,-0.10531l-0.01945,-0.10154l-0.00029,-0.01304l-0.01107,-0.04181l-0.07422,-0.16173l-0.04781,-0.19226l-0.31632,-0.86967l-0.01766,-0.10224l-0.03999,-0.08718l-0.09843,-0.39578l-0.06098,-0.12699l-0.04831,-0.18227l-0.07422,-0.16173l-0.21633,-0.87005l-0.01736,-0.2344l-0.04344,-0.22677l-0.00252,-0.11277l-0.04103,-0.2141l-0.00402,-0.18053l-0.03327,-0.17365l-0.00124,-0.05532l-0.0166,-0.06677l-0.01736,-0.2344l-0.04344,-0.22677l-0.04139,-1.85735l0.02546,-0.17655l-0.00402,-0.18054l0.03138,-0.21771l-0.00904,-0.40602l0.02546,-0.17655l-0.00402,-0.18054l0.05193,-0.36015l0.05085,-0.4576l0.02474,-0.08503l0.0027,-0.09262l0.10066,-0.50546l0.04468,-0.40191l0.02474,-0.08506l0.00273,-0.09262l0.09611,-0.48267l0.04236,-0.47562l0.05411,-0.20378l0.02711,-0.21543l0.14548,-0.47234l0.09371,-0.55851l0.04336,-0.12116l0.01699,-0.13504l0.52179,-1.69402l0.21626,-1.0861l0.05512,-0.13916l0.02809,-0.15602l0.14753,-0.3958l0.09343,-0.38471l0.04447,-0.09854l0.02065,-0.11474l0.18585,-0.4985l0.03529,-0.05625l0.01847,-0.07193l0.11341,-0.24176l0.19622,-0.80809l0.02331,-0.05162l0.00769,-0.06122l0.64422,-2.09153l0.13732,-0.68963l0.09697,-0.97862l0.0321,-0.1159l0.00595,-0.12507l0.19869,-0.90728l0.03427,-0.88847l0.01594,-0.07609l-0.00432,-0.07944l0.10677,-0.96065l0.0972,-1.09181l0.03371,-1.15298l-0.07537,-3.38159l-0.06788,-0.69846l-0.12589,-0.65717l-0.14139,-0.65455l-0.00112,-0.02505l-0.0084,-0.02174l-0.05595,-0.29202l-0.1152,-0.39106l-0.00497,-0.04353l-0.01671,-0.03644l-0.09843,-0.39578l-0.06098,-0.127l-0.02577,-0.09728l-0.01581,-0.0039l-0.07139,-0.15558l-0.09869,-0.11787l-0.00668,-0.11176l-0.10962,-0.2389l-0.00953,-0.03837l-0.00089,-0.00203l-0.07468,-0.09466l-0.1377,-0.28676l-0.04831,-0.18223l-0.04528,-0.09873l-0.12167,-0.1697l-0.08585,-0.19809l-0.1069,-0.17382l-0.06993,-0.19225l-0.00974,-0.05637l-0.13707,-0.1637l-0.00434,-0.07293l-0.05428,-0.08832l-0.06993,-0.19225l-0.12643,-0.73229l0.14248,-0.34273l0.00603,-0.40312l0.37395,-0.51092l0.07253,-0.05858l0.00515,-0.01455l0.02719,-0.01159l0.0241,-0.01951l0.21901,-0.08403l0.21745,-0.0926l0.0274,-0.00133l0.02737,-0.01055l0.00939,0.00871l1.65189,-0.08182l0.51883,-0.11202l0.44172,-0.1165l0.07066,0.00737l0.06812,-0.02898l0.33793,-0.01673l0.14363,-0.06118l0.12108,-0.00603l0.11652,-0.04959l0.13115,-0.00651l0.11846,0.03799l0.12108,-0.006l0.26448,0.08475l0.09728,0.07122l0.10651,0.02983l0.14873,0.10178l0.06748,-0.03107l0.11053,0.09157l0.12362,0.03963l0.03949,0.09551l0.16905,0.14003l0.07602,0.03367l0.11318,0.09965l0.12519,0.05973l0.20108,0.18574l0.06831,0.10482l0.08569,0.07096l0.06434,0.08977l0.11825,0.10921l0.06831,0.10482l0.08569,0.07096l0.13552,0.189l0.0532,0.12272l0.07468,0.09466l0.02314,0.04816l0.03378,0.03118l0.06831,0.10479l0.08569,0.07096l0.13551,0.18906l0.0532,0.12274l0.07469,0.09466l0.25947,0.54042l0.59922,1.11209l0.05435,0.17583l0.07952,0.15311l0.08972,0.30459l0.12392,0.22997l0.05435,0.17586l0.0795,0.15311l0.12559,0.42637l0.10233,0.28133l0.18711,0.43175l0.03499,0.1529l0.06119,0.13338l0.04781,0.19225l0.10651,0.29287l0.02702,0.15649l0.05414,0.13995l0.36108,1.88467l0.05898,0.23717l0.00424,0.0572l0.01929,0.04979l0.13819,0.72136l0.05898,0.23717l0.01736,0.23443l0.04344,0.22676l0.00468,0.21052l0.04103,0.21416l0.0008,0.0357l0.01099,0.03174l0.07646,0.48555l-0.00025,0.0243l0.00699,0.02194l0.05768,0.42775l0.09926,0.33707l0.01529,0.13381l0.04169,0.1207l0.07648,0.48548l-0.00023,0.02428l0.00698,0.02196l0.06344,0.47042l0.11738,0.47209l0.00858,0.11569l0.03347,0.10516l0.06344,0.47046l0.11738,0.47209l0.00682,0.09213l0.02847,0.08244l0.06247,0.39655l0.12293,0.49444l0.00424,0.05715l0.01929,0.04987l0.05594,0.29201l0.06286,0.21346l0.44679,0.82915l0.15362,0.16014l0.08189,0.14042l0.10174,0.10777l0.23775,0.41403l0.99318,1.38534l0.21151,0.22053l0.09179,0.15742l0.11146,0.12608l0.16165,0.29996l0.28769,0.40129l0.05318,0.12274l0.07468,0.09466l0.03957,0.08244l0.13069,0.13625l0.1093,0.1875l0.12696,0.16088l0.27537,0.5735l0.02286,0.08625l0.04201,0.06831l0.09757,0.26823l0.14988,0.27812l0.03744,0.12112l0.06045,0.09834l0.13986,0.38451l0.01042,0.06029l0.02556,0.04923l0.12559,0.42637l0.26021,0.71537l0.01042,0.06029l0.02556,0.04921l0.12559,0.42635l0.12035,0.33086l0.01042,0.06029l0.02556,0.04921l0.14205,0.48225l0.01137,0.09951l0.03382,0.08746l0.03408,0.17787l0.12815,0.29566l0.03499,0.1529l0.06119,0.13338l0.14423,0.58001l0.00857,0.11568l0.03349,0.10512l0.05527,0.41002l0.16168,0.51448l0.02657,0.20244l0.0542,0.18975l0.0711,0.66704l0.12314,0.57007l0.00453,0.10134l0.02779,0.09275l0.15966,1.34526l0.0764,0.56659l-0.00385,0.12248l0.02259,0.11794l0.04794,2.15055l-0.02061,0.14287l0.00792,0.14568l-0.05468,0.49201l-0.02474,0.08509l-0.00273,0.0926l-0.07263,0.36477l0.00558,0.25085l-0.00832,0.05768l0.01589,0.04368l-0.06757,0.31473l-0.0466,0.32309l-0.02838,0.0261l-0.01208,0.05621l-0.03483,0.08373l-0.02101,0.14585l-0.07429,0.22529l-0.05136,0.23914l-0.05519,0.13275l-0.02153,0.10817l-0.06685,0.16875l-0.04008,0.18662l-0.09234,0.22213l-0.03566,0.11575l-0.0989,0.18406l-0.07686,0.20614l-0.56737,0.90397l-0.16562,0.3984l-0.09686,0.31449l-0.05024,0.09348l-0.0011,0.07318l-0.06827,0.09329l-0.005,0.0398l-0.01144,0.03713l-0.00595,0.04119l-0.0094,0.00867l-0.21809,0.70807l-0.05024,0.09348l-0.0011,0.07315l-0.14384,0.1965l-0.04606,0.0857l-0.0003,0.02081l-0.04091,0.05586l-0.03469,0.06457l-0.01392,0.00185l-0.05431,0.07421l-0.04606,0.08571l-0.00031,0.02081l-0.0409,0.05588l-0.03469,0.06452l-0.01392,0.0019l-0.05431,0.07421l-0.12198,0.22698l-0.04891,0.00649l-0.05925,0.08094l-0.12897,0.10426l-0.0686,0.02629l-0.05847,0.05961l-0.38909,0.215l-0.12854,0.02115l-0.00453,0.00366l-0.219,0.08405l-0.21745,0.09258l-0.02741,0.00136l-0.02737,0.01049l-0.00939,-0.00869l-0.03515,0.00171l-0.17119,0.05993l-0.1371,0.07576l-0.15726,0.02588l-0.15212,0.06478l-0.29942,0.01482l-0.0448,0.02475l-0.15726,0.02584l-0.15212,0.06478l-0.03713,0.00185l-0.04477,0.02475l-0.03836,0.00635l-0.03344,0.02874l-0.26011,0.11076l-0.12108,0.006l-0.11652,0.04964l-0.23383,0.01159l-0.0448,0.02473l-0.03834,0.00629l-0.03344,0.02874l-0.26012,0.11076l-0.12109,0.00603l-0.11649,0.04961l-0.55835,0.02765l-0.23083,0.08076l-0.09801,-0.00213l-0.09427,0.04016l-8.06579,0.39946l-0.15466,-0.04956l-0.15807,-0.01028l-0.3978,-0.17604l-0.02422,-0.02132l-0.06008,0.00297l-0.009,0.00964l-0.02778,-0.00783l-0.02741,0.0014l-0.2211,-0.07086l-0.22226,-0.06213l-0.02492,-0.01706l-0.02762,-0.00888l-0.0058,-0.01401l-0.07499,-0.05135l-0.39586,-0.47272l-0.04287,-0.71839l-0.00091,-0.0022l0.00067,-0.00185l-0.02672,-0.44786c-0.2437,-0.09401 -0.45181,-0.32416 -0.58417,-0.63441z" fill="url(#color-2)" stroke="none" stroke-width="0.5" stroke-linecap="butt"/><path d="M183.24121,60.02942l-0.01371,-0.01277l-0.00638,-0.04586c-0.07392,-0.2275 -0.11236,-0.48471 -0.10497,-0.75494l0.01439,-0.52848l0.03692,-0.18745l0.00533,-0.19517l0.0455,-0.23104l0.03194,-1.17193l-0.0431,-0.63194l0.01097,-0.11305l-0.01556,-0.11185l0.00038,-0.0141l-0.0097,-0.04643l-0.0714,-0.18332l-0.04128,-0.21303l-0.29466,-0.97564l-0.01358,-0.11238l-0.03847,-0.09877l-0.08498,-0.43861l-0.05898,-0.14422l-0.04236,-0.20232l-0.0714,-0.18326l-0.18681,-0.96417l-0.00619,-0.2549l-0.03473,-0.24978l0.00334,-0.12193l-0.03279,-0.23578l0.00533,-0.19518l-0.02659,-0.19126l0.00164,-0.05984l-0.01432,-0.074l-0.00619,-0.25492l-0.03473,-0.24978l0.05471,-2.00824l0.03692,-0.18741l0.00533,-0.19524l0.0455,-0.23104l0.01197,-0.43904l0.03692,-0.18741l0.00533,-0.19517l0.07529,-0.38231l0.07932,-0.48748l0.03122,-0.0888l0.00788,-0.09957l0.1356,-0.53319l0.06968,-0.42819l0.03125,-0.0888l0.00788,-0.09957l0.12949,-0.50918l0.07112,-0.50802l0.06927,-0.21339l0.04076,-0.22912l0.18221,-0.49217l0.13093,-0.59125l0.05326,-0.12554l0.02554,-0.1436l0.65342,-1.76519l0.29137,-1.14573l0.06689,-0.1435l0.03864,-0.16502l0.1803,-0.40933l0.12133,-0.40387l0.05325,-0.10102l0.02842,-0.12128l0.22711,-0.51561l0.04109,-0.05646l0.02375,-0.07542l0.13526,-0.24726l0.25485,-0.84831l0.02791,-0.05294l0.01159,-0.06505l0.80674,-2.17943l0.185,-0.72749l0.15695,-1.04404l0.04082,-0.12119l0.01309,-0.1342l0.26286,-0.95497l0.0845,-0.95426l0.02125,-0.08021l-0.00042,-0.08623l0.16656,-1.02357l0.16325,-1.16602l0.09802,-1.23958l0.09961,-3.65642l-0.03584,-0.76144l-0.10063,-0.72377l-0.11748,-0.72277l0.00013,-0.02717l-0.0079,-0.02445l-0.04473,-0.32164l-0.10334,-0.43555l-0.00304,-0.04751l-0.01608,-0.04124l-0.08498,-0.43861l-0.05898,-0.14422l-0.02261,-0.108l-0.01682,-0.00606l-0.06868,-0.17633l-0.10015,-0.13888l-0.00121,-0.12134l-0.10546,-0.2707l-0.00824,-0.0425l-0.00085,-0.00232l-0.07549,-0.11095l-0.13317,-0.32568l-0.04235,-0.20231l-0.04357,-0.11182l-0.12214,-0.19756l-0.08201,-0.22384l-0.10598,-0.20028l-0.06516,-0.2157l-0.00747,-0.06195l-0.13909,-0.19288l-0.0008,-0.07914l-0.05384,-0.1017l-0.06514,-0.2157l-0.09719,-0.80491l0.17204,-0.35274l0.02807,-0.43415l0.43068,-0.50657l0.08137,-0.05461l0.00635,-0.01512l0.02993,-0.00926l0.02704,-0.01815l0.24073,-0.0646l0.23949,-0.074l0.02963,0.00176l0.03007,-0.00809l0.00966,0.01049l1.78613,0.10809l0.56563,-0.05918l0.48267,-0.07313l0.07583,0.0163l0.07502,-0.02312l0.36539,0.02215l0.15819,-0.04888l0.13094,0.00789l0.12831,-0.03967l0.1418,0.00858l0.12572,0.05502l0.13093,0.00794l0.28074,0.12288l0.10111,0.08842l0.11331,0.0448l0.15496,0.12751l0.07444,-0.02544l0.11435,0.11189l0.13123,0.05742l0.03748,0.1077l0.17485,0.17115l0.08019,0.04533l0.11676,0.12092l0.13185,0.07929l0.20695,0.22429l0.06808,0.12113l0.08863,0.08672l0.06461,0.10447l0.12171,0.13191l0.06807,0.12113l0.08862,0.08673l0.13605,0.21994l0.05081,0.13874l0.07549,0.11097l0.02237,0.05467l0.03477,0.03766l0.06808,0.12113l0.08862,0.08673l0.13605,0.21994l0.05081,0.13874l0.07549,0.11097l0.25096,0.61371l0.58685,1.27074l0.04921,0.1961l0.07755,0.17462l0.08047,0.33921l0.12137,0.26278l0.04921,0.19615l0.07755,0.17462l0.11266,0.47484l0.09534,0.3156l0.17871,0.48792l0.02955,0.16911l0.05888,0.15112l0.04128,0.21305l0.09924,0.32855l0.02078,0.17198l0.05093,0.1574l0.28864,2.07579l0.05093,0.26282l0.00151,0.06218l0.01812,0.05605l0.11048,0.79449l0.05093,0.26282l0.00618,0.2549l0.03473,0.24978l-0.00619,0.22758l0.03279,0.23578l-0.00104,0.03863l0.01015,0.0356l0.05651,0.53277l-0.00155,0.02618l0.00635,0.02445l0.03932,0.46829l0.08905,0.37537l0.00934,0.1461l0.03851,0.13515l0.05651,0.53277l-0.00155,0.02618l0.00635,0.02445l0.04326,0.51493l0.10136,0.52318l0.00305,0.12578l0.0305,0.11736l0.04326,0.51493l0.10136,0.52316l0.00244,0.10016l0.02631,0.0923l0.04616,0.43519l0.10613,0.54784l0.00151,0.06218l0.01814,0.05603l0.04471,0.32164l0.05639,0.23774l0.43752,0.9474l0.15713,0.19102l0.08082,0.16121l0.10397,0.12833l0.23427,0.47488l0.99717,1.6123l0.21634,0.26304l0.0906,0.18068l0.11349,0.14926l0.1583,0.34278l0.28885,0.46702l0.05081,0.13871l0.07549,0.11097l0.03828,0.09359l0.13367,0.16253l0.10788,0.2152l0.12832,0.18868l0.26634,0.65136l0.02003,0.09568l0.04166,0.07873l0.0909,0.30092l0.14677,0.3178l0.0339,0.13511l0.05994,0.11322l0.1303,0.43136l0.00799,0.06628l0.02494,0.05613l0.11266,0.47488l0.2424,0.80257l0.00799,0.06624l0.02494,0.05616l0.11266,0.47484l0.11213,0.3712l0.00799,0.06627l0.02494,0.05613l0.12742,0.53713l0.00694,0.10868l0.03181,0.09832l0.02723,0.19588l0.12241,0.33411l0.02955,0.16913l0.05888,0.15108l0.12452,0.6428l0.00305,0.12576l0.0305,0.11736l0.03769,0.44881l0.14686,0.57421l0.01782,0.22153l0.04831,0.21111l0.041,0.72793l0.10233,0.62952l-0.00053,0.10984l0.02501,0.10333l0.10024,1.46998l0.0521,0.62017l-0.01069,0.13164l0.01805,0.12986l-0.06334,2.32537l-0.02987,0.15166l0.00074,0.15804l-0.08529,0.52421l-0.03125,0.08884l-0.00788,0.09957l-0.09785,0.38483l-0.00738,0.27125l-0.01206,0.06122l0.01482,0.04905l-0.08973,0.33143l-0.06756,0.34295l-0.03202,0.02477l-0.01603,0.05918l-0.04205,0.08623l-0.03047,0.15474l-0.09218,0.23427l-0.0682,0.25176l-0.06663,0.13664l-0.02902,0.11412l-0.08112,0.17408l-0.05322,0.19653l-0.11148,0.22859l-0.04466,0.1206l-0.11653,0.18681l-0.09391,0.2132l-0.66035,0.90755l-0.19995,0.41002l-0.12132,0.3277l-0.0592,0.09487l-0.00511,0.07879l-0.07863,0.09248l-0.00753,0.04241l-0.01432,0.03873l-0.00862,0.04372l-0.0106,0.00822l-0.27308,0.73774l-0.0592,0.09484l-0.00511,0.0788l-0.16563,0.19486l-0.05427,0.08694l-0.00146,0.02242l-0.04712,0.05536l-0.04089,0.06551l-0.0151,0.00037l-0.06254,0.07358l-0.05427,0.08694l-0.00143,0.02243l-0.04712,0.05544l-0.04089,0.06551l-0.0151,0.00037l-0.06255,0.07358l-0.14371,0.23033l-0.05311,0.00115l-0.06822,0.08029l-0.14469,0.09712l-0.07542,0.02023l-0.06625,0.05731l-0.43118,0.18566l-0.13977,0.00755l-0.00506,0.00336l-0.2407,0.0646l-0.23949,0.07404l-0.02963,-0.00177l-0.0301,0.00809l-0.00966,-0.01046l-0.038,-0.0023l-0.18783,0.04428l-0.15192,0.06541l-0.17102,0.00926l-0.16755,0.05182l-0.32375,-0.0196l-0.04965,0.02138l-0.17102,0.00926l-0.16755,0.05179l-0.04012,-0.00244l-0.04965,0.02138l-0.04171,0.00224l-0.0376,0.02702l-0.28649,0.08853l-0.13093,-0.00789l-0.12832,0.03967l-0.25283,-0.0153l-0.04965,0.02136l-0.04171,0.00224l-0.0376,0.02706l-0.28649,0.08853l-0.13093,-0.00796l-0.12832,0.03967l-0.60372,-0.03653l-0.25329,0.05968l-0.1056,-0.01395l-0.10381,0.03211l-8.72128,-0.52797l-0.16418,-0.07187l-0.16994,-0.02985l-0.41967,-0.23715l-0.025,-0.02584l-0.06495,-0.00395l-0.01021,0.00926l-0.02955,-0.01167l-0.02963,-0.00181l-0.23466,-0.10269l-0.23641,-0.09348l-0.02598,-0.02132l-0.02933,-0.01285l-0.0055,-0.01586l-0.07812,-0.06424l-0.40169,-0.55697l-0.0078,-0.77993l-0.00085,-0.00252l0.00082,-0.00193l-0.00485,-0.48628c-0.25783,-0.13037 -0.47,-0.40336 -0.59616,-0.75369z" fill="url(#color-3)" stroke="none" stroke-width="0.5" stroke-linecap="butt"/><path d="M183.458,58.29949l-0.01182,-0.01368l-0.00299,-0.04308c-0.05369,-0.21959 -0.07289,-0.46151 -0.04914,-0.70907l0.04644,-0.48411l0.04574,-0.16722l0.01715,-0.17878l0.05638,-0.20621l0.10298,-1.0735l0.00005,-0.58737l0.01719,-0.10243l-0.00728,-0.10503l0.00125,-0.01294l-0.00603,-0.04406l-0.05416,-0.17856l-0.02458,-0.20172l-0.20977,-0.93859l-0.00543,-0.10526l-0.02919,-0.09622l-0.05062,-0.41533l-0.04519,-0.14089l-0.02623,-0.19203l-0.05416,-0.17856l-0.11126,-0.91294l0.01033,-0.23534l-0.01626,-0.2346l0.01072,-0.1117l-0.01534,-0.22145l0.01715,-0.1788l-0.01245,-0.17968l0.00524,-0.05478l-0.00854,-0.07003l0.01033,-0.23537l-0.01625,-0.2346l0.17648,-1.83962l0.04572,-0.16722l0.01715,-0.17878l0.05637,-0.20621l0.03856,-0.40212l0.04574,-0.16726l0.01715,-0.17877l0.09325,-0.34112l0.10359,-0.43739l0.03431,-0.0773l0.0135,-0.09048l0.15822,-0.47161l0.09101,-0.38416l0.0343,-0.0773l0.0135,-0.09051l0.15109,-0.45028l0.09733,-0.45738l0.07712,-0.18658l0.05189,-0.20512l0.19851,-0.42728l0.15759,-0.52556l0.05688,-0.10804l0.03253,-0.12854l0.71192,-1.53246l0.33996,-1.01325l0.07054,-0.12266l0.04592,-0.1464l0.19155,-0.35131l0.137,-0.35457l0.05534,-0.08544l0.03375,-0.10762l0.24129,-0.44252l0.04134,-0.04622l0.02659,-0.06604l0.13994,-0.20857l0.28773,-0.7447l0.02899,-0.0448l0.01474,-0.05828l0.87898,-1.89206l0.21587,-0.64336l0.20995,-0.93845l0.04515,-0.10578l0.02048,-0.12158l0.30179,-0.84181l0.13767,-0.86594l0.02458,-0.07083l0.00506,-0.07937l0.2175,-0.91824l0.22339,-1.04979l0.16806,-1.12653l0.32133,-3.34942l0.01484,-0.7054l-0.04711,-0.67982l-0.06265,-0.68127l0.00184,-0.02492l-0.00574,-0.02359l-0.02093,-0.30209l-0.06767,-0.41507l0.0002,-0.04411l-0.01219,-0.04017l-0.05063,-0.41532l-0.04519,-0.14094l-0.01401,-0.1025l-0.0151,-0.00796l-0.0521,-0.17179l-0.08339,-0.14166l0.00649,-0.11177l-0.08,-0.26373l-0.0049,-0.04022l-0.00065,-0.00224l-0.06247,-0.11267l-0.10203,-0.31817l-0.02624,-0.19203l-0.03305,-0.10894l-0.09994,-0.19876l-0.06136,-0.21738l-0.08492,-0.19898l-0.04638,-0.20748l-0.00299,-0.05805l-0.11581,-0.19682l0.00424,-0.07293l-0.04313,-0.10105l-0.04639,-0.20752l-0.03881,-0.75396l0.18038,-0.30045l0.05308,-0.39539l0.42797,-0.40582l0.07828,-0.03886l0.00678,-0.01302l0.02813,-0.00432l0.02602,-0.01294l0.22547,-0.02578l0.22496,-0.03469l0.02715,0.00582l0.02817,-0.00323l0.00824,0.01102l1.63616,0.34881l0.524,0.02451l0.44858,0.00009l0.06872,0.02564l0.07045,-0.01086l0.33472,0.07137l0.14856,-0.02288l0.11995,0.02556l0.12051,-0.01857l0.1299,0.02767l0.11217,0.0682l0.11992,0.02556l0.25052,0.1522l0.08745,0.09551l0.10141,0.05701l0.13454,0.13888l0.07007,-0.01304l0.09813,0.11889l0.11712,0.07112l0.0277,0.10431l0.15011,0.18187l0.07091,0.05286l0.0998,0.1276l0.11629,0.09136l0.17627,0.23518l0.05501,0.12096l0.07606,0.09217l0.05287,0.10516l0.10366,0.13827l0.05501,0.12096l0.07606,0.09217l0.11133,0.22132l0.03803,0.13467l0.06247,0.11263l0.01714,0.05345l0.02962,0.03945l0.05501,0.12096l0.07606,0.09217l0.11133,0.22137l0.03803,0.13467l0.06247,0.11263l0.19229,0.59956l0.45997,1.25076l0.03294,0.18728l0.06037,0.17142l0.05272,0.32328l0.09511,0.25869l0.03294,0.18728l0.06037,0.17141l0.07379,0.45254l0.06786,0.30364l0.13374,0.47376l0.01658,0.15965l0.04466,0.14723l0.02458,0.20169l0.07065,0.3161l0.00829,0.16109l0.03695,0.15189l0.1351,1.94966l0.03034,0.24888l-0.00253,0.05742l0.01316,0.05407l0.0517,0.74626l0.03034,0.24888l-0.01033,0.23534l0.01625,0.23461l-0.02001,0.20851l0.01535,0.22153l-0.0034,0.03538l0.00709,0.03418l0.01852,0.49797l-0.00308,0.02385l0.00433,0.02342l0.00677,0.43624l0.05832,0.3577l-0.00059,0.13574l0.02693,0.12964l0.01852,0.49797l-0.00308,0.02385l0.00432,0.02344l0.00745,0.47969l0.06037,0.49536l-0.00509,0.11614l0.02068,0.11224l0.00743,0.47969l0.06037,0.49538l-0.00407,0.09248l0.0184,0.08857l0.01512,0.4068l0.06323,0.51869l-0.00252,0.05742l0.01313,0.05408l0.02093,0.30208l0.03692,0.22654l0.34294,0.93255l0.13253,0.19762l0.06421,0.15958l0.08758,0.13258l0.18569,0.46949l0.81594,1.62227l0.18247,0.27211l0.07198,0.17884l0.09501,0.15311l0.12407,0.33737l0.23635,0.46991l0.03803,0.13472l0.06247,0.11262l0.02932,0.0914l0.11275,0.16812l0.08571,0.21301l0.10617,0.19144l0.20409,0.63633l0.01243,0.09084l0.03337,0.07824l0.0647,0.28941l0.11504,0.31284l0.02269,0.12898l0.04802,0.1125l0.09275,0.41498l0.0032,0.06211l0.01942,0.05514l0.07379,0.45249l0.17256,0.77208l0.0032,0.06207l0.01942,0.05514l0.07379,0.45254l0.07982,0.35709l0.0032,0.06207l0.01942,0.05513l0.08347,0.51183l-0.00044,0.10091l0.02308,0.09489l0.01274,0.18399l0.09159,0.3244l0.01658,0.15966l0.04466,0.14728l0.07418,0.6086l-0.00509,0.11614l0.02068,0.1122l0.00647,0.41815l0.09904,0.54867l0.00246,0.20624l0.03118,0.20094l-0.00802,0.6753l0.05458,0.59337l-0.00739,0.10094l0.01652,0.09851l-0.00014,1.36616l0.00895,0.5777l-0.0181,0.11959l0.00846,0.12198l-0.20434,2.13009l-0.037,0.13535l-0.00925,0.14547l-0.1114,0.47025l-0.0343,0.07735l-0.0135,0.09048l-0.11418,0.34028l-0.02383,0.24841l-0.01492,0.05467l0.01052,0.04713l-0.10336,0.29239l-0.08368,0.306l-0.031,0.01832l-0.01847,0.05225l-0.04408,0.07341l-0.03776,0.13809l-0.0995,0.20262l-0.07854,0.22209l-0.06988,0.11636l-0.03386,0.10091l-0.08555,0.14874l-0.06128,0.17337l-0.11691,0.19472l-0.04865,0.1047l-0.11893,0.15555l-0.09978,0.18298l-0.66441,0.74264l-0.20969,0.34924l-0.13218,0.28451l-0.0604,0.07901l-0.00965,0.07174l-0.07812,0.07409l-0.0096,0.03789l-0.01561,0.03365l-0.01067,0.03898l-0.01026,0.00606l-0.29755,0.64053l-0.0604,0.07901l-0.00965,0.07174l-0.16461,0.1561l-0.05538,0.07241l-0.00274,0.02041l-0.04683,0.04442l-0.04171,0.05455l-0.01393,-0.00177l-0.06213,0.05896l-0.05539,0.07241l-0.00274,0.02041l-0.04683,0.04438l-0.04172,0.05459l-0.01392,-0.00181l-0.06216,0.05896l-0.14667,0.19178l-0.04892,-0.00634l-0.06779,0.06428l-0.13918,0.06915l-0.07062,0.00813l-0.06456,0.04352l-0.40829,0.11058l-0.12904,-0.01256l-0.00486,0.00239l-0.22547,0.0258l-0.22495,0.03468l-0.02717,-0.00579l-0.0282,0.00321l-0.00824,-0.01102l-0.03482,-0.00742l-0.17557,0.01454l-0.14387,0.0389l-0.15786,-0.01535l-0.15736,0.02423l-0.29655,-0.06324l-0.047,0.01273l-0.15787,-0.01539l-0.15735,0.02421l-0.03677,-0.00783l-0.047,0.01272l-0.0385,-0.00374l-0.03627,0.0196l-0.26911,0.04145l-0.11995,-0.02556l-0.12051,0.01857l-0.2316,-0.04939l-0.04699,0.01273l-0.03851,-0.00377l-0.03628,0.01961l-0.26909,0.04145l-0.11995,-0.02556l-0.12051,0.01855l-0.55304,-0.11787l-0.23672,0.01954l-0.09628,-0.02749l-0.0975,0.01499l-7.98899,-1.70307l-0.14653,-0.08901l-0.15443,-0.05118l-0.37113,-0.27672l-0.02136,-0.02734l-0.0595,-0.01264l-0.00996,0.00709l-0.02645,-0.01487l-0.02715,-0.0058l-0.20941,-0.12722l-0.21158,-0.11901l-0.02255,-0.02329l-0.02619,-0.01587l-0.00407,-0.0153l-0.06783,-0.07007l-0.3345,-0.56838l0.04183,-0.7185l-0.00065,-0.0024l0.00087,-0.00167l0.02607,-0.4479c-0.22898,-0.15593 -0.40699,-0.4366 -0.50102,-0.77651z" fill="url(#color-4)" stroke="none" stroke-width="0.5" stroke-linecap="butt"/><path d="M184.32814,58.6501l-0.01176,-0.01075l-0.00573,-0.03898c-0.06443,-0.19305 -0.09877,-0.41198 -0.09412,-0.64263l0.00909,-0.45104l0.03036,-0.1604l0.00335,-0.16661l0.03743,-0.19771l0.02015,-1.00018l-0.04059,-0.53856l0.00869,-0.09658l-0.01394,-0.09518l0.00025,-0.01201l-0.00857,-0.03946l-0.06201,-0.15541l-0.0365,-0.18118l-0.25728,-0.82836l-0.01227,-0.09573l-0.03343,-0.0837l-0.07515,-0.37305l-0.0512,-0.12225l-0.03736,-0.17205l-0.06201,-0.15539l-0.16518,-0.82003l-0.00682,-0.21736l-0.03113,-0.21258l0.00209,-0.10407l-0.02941,-0.20071l0.00335,-0.16658l-0.02384,-0.16284l0.00103,-0.05099l-0.01268,-0.06298l-0.00682,-0.21733l-0.03114,-0.21263l0.03452,-1.71399l0.03036,-0.1604l0.00336,-0.16658l0.0374,-0.19771l0.00755,-0.37465l0.03036,-0.16043l0.00336,-0.16658l0.06191,-0.32713l0.06473,-0.417l0.02612,-0.07619l0.00612,-0.08509l0.11245,-0.45674l0.05686,-0.36616l0.02611,-0.07622l0.00612,-0.08509l0.10737,-0.43613l0.05761,-0.43431l0.0578,-0.18299l0.03339,-0.19599l0.15245,-0.42228l0.10813,-0.50617l0.04468,-0.10786l0.02092,-0.12284l0.54675,-1.51465l0.24163,-0.98138l0.0562,-0.12334l0.03199,-0.14127l0.15132,-0.35162l0.10107,-0.34616l0.04481,-0.08689l0.02353,-0.10388l0.19062,-0.44292l0.0347,-0.04872l0.01981,-0.06462l0.11388,-0.2128l0.2123,-0.7271l0.0235,-0.0455l0.00948,-0.05568l0.67505,-1.87008l0.15342,-0.62313l0.12756,-0.89277l0.0341,-0.10392l0.01036,-0.11468l0.21846,-0.81823l0.0663,-0.8152l0.01765,-0.06867l-0.00087,-0.07354l0.1359,-0.87542l0.13223,-0.99695l0.07613,-1.05878l0.06286,-3.12064l-0.0352,-0.64911l-0.09024,-0.61605l-0.10461,-0.61503l-0.00005,-0.02312l-0.0069,-0.02072l-0.04009,-0.27379l-0.09077,-0.37018l-0.00288,-0.04043l-0.01395,-0.03499l-0.07516,-0.37304l-0.05118,-0.12225l-0.01994,-0.09179l-0.0144,-0.00501l-0.05965,-0.14946l-0.08629,-0.11714l-0.00176,-0.1035l-0.09161,-0.22948l-0.00728,-0.03615l-0.00076,-0.00197l-0.06507,-0.09367l-0.11558,-0.27604l-0.03736,-0.17202l-0.03783,-0.09487l-0.10539,-0.16683l-0.07131,-0.18985l-0.09165,-0.16941l-0.05689,-0.1831l-0.00676,-0.05278l-0.11983,-0.16268l-0.00115,-0.06753l-0.04655,-0.08604l-0.05689,-0.1831l-0.08777,-0.68532l0.14462,-0.30325l0.02131,-0.37072l0.36434,-0.43793l0.06908,-0.04769l0.00533,-0.01296l0.02547,-0.00829l0.02298,-0.01586l0.20495,-0.05832l0.20387,-0.06638l0.0253,0.0011l0.02561,-0.00729l0.00832,0.00883l1.52439,0.06824l0.48217,-0.05811l0.4113,-0.06886l0.06479,0.01294l0.06384,-0.02078l0.31186,0.01395l0.13464,-0.04383l0.11174,0.00501l0.10923,-0.03557l0.12103,0.00544l0.1076,0.04523l0.11174,0.00501l0.24024,0.10105l0.08678,0.07409l0.09693,0.03669l0.13298,0.10664l0.06334,-0.02271l0.09822,0.09391l0.11229,0.04721l0.03262,0.09136l0.15022,0.14368l0.06868,0.0376l0.10033,0.10164l0.11294,0.06594l0.1779,0.18853l0.05881,0.10243l0.07613,0.07283l0.05575,0.08829l0.10462,0.1109l0.05882,0.10243l0.07611,0.07279l0.1174,0.18582l0.04419,0.11765l0.06508,0.09367l0.01942,0.04635l0.02987,0.03169l0.05881,0.10243l0.07613,0.07279l0.1174,0.18582l0.04419,0.11765l0.06508,0.09365l0.2178,0.52023l0.50831,1.07618l0.04318,0.16664l0.06722,0.14792l0.07071,0.2883l0.10513,0.22255l0.04318,0.16669l0.06723,0.14787l0.09896,0.40356l0.08325,0.26801l0.15541,0.41381l0.02624,0.14388l0.05111,0.12814l0.0365,0.18122l0.08665,0.27893l0.01877,0.14643l0.04439,0.13356l0.25879,1.76694l0.04503,0.22354l0.00168,0.05302l0.01581,0.0476l0.09905,0.6763l0.04505,0.22354l0.00682,0.21738l0.03114,0.21261l-0.00393,0.19426l0.02941,0.20077l-0.00068,0.03298l0.00888,0.03023l0.05144,0.45379l-0.00117,0.02237l0.00557,0.02081l0.0364,0.39899l0.07825,0.31903l0.00884,0.12455l0.03366,0.11474l0.05144,0.45373l-0.00115,0.02237l0.00557,0.02081l0.04001,0.4387l0.08964,0.44496l0.00338,0.10724l0.02672,0.09973l0.04001,0.43868l0.08964,0.44492l0.00269,0.0855l0.02299,0.07834l0.04202,0.37061l0.09388,0.46601l0.00168,0.05302l0.01579,0.04758l0.04012,0.27379l0.04953,0.20201l0.37898,0.80232l0.13521,0.16087l0.06992,0.13642l0.08948,0.10813l0.20275,0.40195l0.86044,1.36206l0.18616,0.2215l0.07839,0.15298l0.09771,0.12578l0.13712,0.29031l0.24923,0.39456l0.04419,0.11765l0.06508,0.09365l0.03322,0.07937l0.11503,0.13682l0.09335,0.18214l0.11061,0.15918l0.23117,0.55213l0.01767,0.08136l0.03602,0.06659l0.07936,0.25544l0.12713,0.26916l0.02974,0.11481l0.05183,0.09577l0.11374,0.36624l0.00723,0.05641l0.02161,0.04756l0.09897,0.40361l0.21164,0.68143l0.00723,0.05637l0.02161,0.04756l0.09897,0.40358l0.09789,0.31514l0.00723,0.05641l0.02161,0.04752l0.11194,0.45647l0.00657,0.09262l0.02773,0.08343l0.02441,0.16674l0.10643,0.28341l0.02623,0.14388l0.05114,0.12814l0.11013,0.54669l0.00336,0.10724l0.02672,0.09972l0.03487,0.38236l0.12876,0.48784l0.01655,0.18869l0.04249,0.17947l0.03939,0.62039l0.09112,0.53573l0.0002,0.09367l0.02196,0.08784l0.09441,1.25273l0.04819,0.52838l-0.00832,0.11246l0.01618,0.11053l-0.03997,1.98462l-0.02456,0.12981l0.00158,0.13481l-0.0696,0.44835l-0.02612,0.07614l-0.00612,0.08506l-0.08116,0.32962l-0.00467,0.23148l-0.00991,0.0524l0.01291,0.04159l-0.07456,0.28397l-0.05555,0.29346l-0.02717,0.02153l-0.01332,0.05071l-0.03534,0.07409l-0.02508,0.13244l-0.07721,0.20105l-0.05664,0.21574l-0.05601,0.11746l-0.02406,0.09774l-0.06816,0.1496l-0.04421,0.16837l-0.09373,0.19655l-0.03736,0.10349l-0.09828,0.16092l-0.07884,0.18315l-0.55784,0.78307l-0.1681,0.35252l-0.10149,0.2812l-0.04994,0.08172l-0.00387,0.06728l-0.06653,0.07992l-0.00617,0.03623l-0.012,0.03323l-0.00709,0.03744l-0.00899,0.00712l-0.22852,0.63305l-0.04994,0.08173l-0.00387,0.06727l-0.14014,0.16844l-0.04575,0.0749l-0.00111,0.01917l-0.03987,0.04788l-0.03448,0.05646l-0.01289,0.00047l-0.0529,0.06359l-0.04575,0.0749l-0.00112,0.01917l-0.03986,0.04789l-0.03448,0.05643l-0.01289,0.00048l-0.05292,0.06357l-0.12119,0.19839l-0.04529,0.0017l-0.05771,0.06937l-0.12285,0.08481l-0.06421,0.01823l-0.05616,0.04979l-0.36674,0.16422l-0.11919,0.00829l-0.0043,0.00293l-0.20495,0.05832l-0.20386,0.06638l-0.0253,-0.00112l-0.02563,0.0073l-0.00829,-0.00883l-0.03245,-0.00145l-0.15997,0.04027l-0.12921,0.05787l-0.14582,0.01017l-0.14263,0.0464l-0.27629,-0.01239l-0.04222,0.01891l-0.14582,0.01017l-0.14261,0.04639l-0.03425,-0.00153l-0.04222,0.01891l-0.03558,0.0025l-0.0319,0.02354l-0.24388,0.07937l-0.11174,-0.00501l-0.10923,0.03557l-0.21579,-0.00968l-0.04222,0.0189l-0.03558,0.0025l-0.0319,0.02358l-0.24387,0.07939l-0.11174,-0.00501l-0.10923,0.03554l-0.51526,-0.02303l-0.21573,0.05433l-0.09017,-0.01049l-0.08837,0.02877l-7.44329,-0.33315l-0.1405,-0.05907l-0.14514,-0.02319l-0.35945,-0.19671l-0.02149,-0.02174l-0.05545,-0.00248l-0.00865,0.00809l-0.02529,-0.00957l-0.0253,-0.00112l-0.20082,-0.0845l-0.20224,-0.07654l-0.02228,-0.01789l-0.02511,-0.01055l-0.00479,-0.01342l-0.06702,-0.05382l-0.34605,-0.46973l-0.01139,-0.66524l-0.00076,-0.00213l0.00069,-0.0017l-0.00709,-0.41476c-0.22073,-0.10771 -0.40339,-0.33775 -0.51313,-0.63493z" fill="url(#color-5)" stroke="none" stroke-width="0.5" stroke-linecap="butt"/><path d="M284.07207,123.9526l-13.47354,-0.17578" fill="none" stroke="#666666" stroke-width="5" stroke-linecap="round"/><path d="M286.34472,136.78489l-21.4278,-0.17578" fill="none" stroke="#666666" stroke-width="5" stroke-linecap="round"/><path d="M288.61737,150.4961h-28.73274" fill="none" stroke="#666666" stroke-width="5" stroke-linecap="round"/><path d="M291.05234,164.55889l-36.2,0.17578" fill="none" stroke="#666666" stroke-width="5" stroke-linecap="round"/><path d="M247.775,173.44683l32.56463,-77.13333l15.58537,79.33333" fill="none" stroke="url(#color-6)" stroke-width="5" stroke-linecap="round"/><path d="M291.36667,98.20194c0,6.42823 -5.29796,11.63934 -11.83333,11.63934c-6.53537,0 -11.83333,-5.21111 -11.83333,-11.63934c0,-6.42823 5.29796,-11.63934 11.83333,-11.63934c6.53537,0 11.83333,5.21111 11.83333,11.63934z" fill="url(#color-7)" stroke="url(#color-8)" stroke-width="2.5" stroke-linecap="butt"/><path d="M171.50034,180.21186v-7.07226h137.74932v7.07226z" fill="#312d29" stroke="url(#color-9)" stroke-width="0" stroke-linecap="butt"/><path d="M174.32666,171.83633v-75.27368c0,0 20.78146,0 31.31541,0c10.72844,0 32.48244,0 32.48244,0v75.27368c0,0 -9.62345,3.59201 -31.89343,4.0077c-23.38487,0.4365 -31.90442,-4.0077 -31.90442,-4.0077z" fill="url(#color-10)" stroke="none" stroke-width="0" stroke-linecap="butt"/><path d="M173.93765,97.126v-16.70732h63.79785v16.70732c0,0 -8.65642,3.97004 -30.9264,4.0623c-23.38487,0.09688 -32.87145,-4.0623 -32.87145,-4.0623z" fill="url(#color-11)" stroke="none" stroke-width="0" stroke-linecap="butt"/><path d="M238.31901,80.71044c0,3.06154 -14.36872,4.94341 -32.09343,4.94341c-17.72472,0 -32.09343,-1.88187 -32.09343,-4.94341c0,-3.06154 14.36872,-5.54341 32.09343,-5.54341c17.72472,0 32.09343,2.48187 32.09343,5.54341z" fill="url(#color-12)" stroke="none" stroke-width="0" stroke-linecap="butt"/><path d="M180.03919,80.62194c0,0 0.27112,-6.54174 1.08146,-10.38605c0.29678,-1.4079 3.60741,-2.65864 4.23461,-4.72813c0.29398,-0.96999 -0.66442,-1.54737 -0.67958,-2.5304c-0.03995,-2.59045 0.59052,-2.2484 0.59052,-2.2484l13.64254,0.0315c0,0 0.31754,-0.81958 0.46052,2.21683c0.03381,0.71821 -1.08238,1.87498 -0.87495,2.60522c0.49979,1.75943 3.90032,3.36172 4.17494,4.59322c0.84008,3.76741 1.54074,10.44624 1.54074,10.44624c0,0 -5.88996,1.71443 -12.02652,1.59251c-5.96994,-0.11861 -12.14423,-1.59251 -12.14423,-1.59251z" fill="url(#color-13)" stroke="none" stroke-width="0" stroke-linecap="butt"/><path d="M219.33427,89.42721c6.00707,0.00627 12.82367,-0.03542 12.82367,-0.03542c0,0 8.70302,-0.31469 8.77925,8.84478c-0.32504,8.96069 -8.8305,9.46415 -8.8305,9.46415c0,0 -7.78529,0.17075 -12.81027,0.1655c-7.24042,-0.00756 -13.00714,-1.3829 -13.09101,-9.23319c-0.08752,-8.19256 5.88844,-9.21338 13.12884,-9.20582z" fill="url(#color-14)" stroke="none" stroke-width="0" stroke-linecap="butt"/><path d="M231.40388,98.76667c0,-5.38083 2.13255,-9.74286 4.76318,-9.74286c2.63063,0 4.76318,4.36202 4.76318,9.74286c0,5.38083 -2.13255,9.74286 -4.76318,9.74286c-2.63063,0 -4.76318,-4.36202 -4.76318,-9.74286z" fill="url(#color-15)" stroke="url(#color-16)" stroke-width="1.5" stroke-linecap="butt"/><path d="M239.42434,145.16854c0,12.43105 0.17643,26.53718 0.17643,26.53718c0,0 0.11245,4.45869 -32.99656,4.65536c-32.39201,-0.63457 -33.18606,-4.68364 -33.18606,-4.68364c0,0 -0.6466,-16.11016 -0.6466,-26.50889c0,-14.98335 4.94977,-26.92288 33.3264,-27.12975c29.61384,-0.2159 33.3264,12.1464 33.3264,27.12975z" fill="url(#color-17)" stroke="none" stroke-width="0" stroke-linecap="butt"/><path d="M230.30126,155.57315c0,8.69916 0.12509,19.25116 0.12509,19.25116c0,0 -0.06314,1.69914 -23.53545,1.83676c-22.96399,-0.44407 -23.58558,-1.90333 -23.58558,-1.90333c0,0 -0.25689,-11.90764 -0.25689,-19.18459c0,-10.48524 3.50909,-18.84043 23.62642,-18.9852c20.99444,-0.15109 23.62642,8.49996 23.62642,18.9852z" fill="url(#color-18)" stroke="none" stroke-width="0" stroke-linecap="butt"/><g><path d="M301.42963,120.76759l-43.46456,-44.93511" fill="none" stroke="url(#color-19)" stroke-width="3.5" stroke-linecap="round"/><path d="M257.64845,119.85598l44.09777,-43.11187" fill="none" stroke="url(#color-20)" stroke-width="3.5" stroke-linecap="round"/><path d="M279.76155,129.34967l-0.12842,-62.09929" fill="none" stroke="url(#color-21)" stroke-width="3.5" stroke-linecap="round"/><path d="M248.65483,97.6526l62.085,1.29483" fill="none" stroke="url(#color-22)" stroke-width="3.5" stroke-linecap="round"/><path d="M302.72915,75.72194c12.45883,12.70921 12.24701,33.12061 -0.4731,45.59013c-12.72012,12.46953 -33.1317,12.27522 -45.59053,-0.43399c-12.45883,-12.70921 -12.24701,-33.12063 0.4731,-45.59015c12.72012,-12.46953 33.1317,-12.27522 45.59053,0.434z" fill="none" stroke="url(#color-23)" stroke-width="3.5" stroke-linecap="butt"/><path d="M284.68616,93.40949c2.67357,2.7273 2.60736,7.12778 -0.14788,9.82876c-2.75525,2.70097 -7.15617,2.67962 -9.82975,-0.04768c-2.67357,-2.7273 -2.60736,-7.12778 0.14789,-9.82875c2.75525,-2.70097 7.15618,-2.67964 9.82976,0.04767z" fill="url(#color-24)" stroke="url(#color-25)" stroke-width="1" stroke-linecap="butt"/></g><path d="M238.535,98.56077l50.0705,-13.63077" fill="none" stroke="url(#color-26)" stroke-width="6" stroke-linecap="round"/><path d="M298.81324,81.77863c1.83845,6.07742 -1.38851,4.87412 -4.64357,5.876c-3.25507,1.00189 -6.21196,-0.08056 -6.98475,-2.2969c-1.48715,-4.26514 1.90321,-4.33501 5.15826,-5.33691c3.25507,-1.00189 4.63274,-4.31589 6.47006,1.75779z" fill="url(#color-27)" stroke="url(#color-28)" stroke-width="0" stroke-linecap="butt"/></g></g></svg>