<svg version="1.1" xmlns="http://www.w3.org/2000/svg" xmlns:xlink="http://www.w3.org/1999/xlink" width="543.9945" height="441.24838" viewBox="0,0,543.9945,441.24838"><defs><linearGradient x1="-4.73829" y1="177.80997" x2="483.26172" y2="177.80997" gradientUnits="userSpaceOnUse" id="color-1"><stop offset="0" stop-color="#7d7d7d"/><stop offset="1" stop-color="#868686"/></linearGradient><linearGradient x1="356.04218" y1="155.08534" x2="356.04218" y2="211.60231" gradientUnits="userSpaceOnUse" id="color-2"><stop offset="0" stop-color="#060606"/><stop offset="1" stop-color="#1d1d1d"/></linearGradient><linearGradient x1="375.81411" y1="155.56842" x2="375.81411" y2="211.75203" gradientUnits="userSpaceOnUse" id="color-3"><stop offset="0" stop-color="#060606"/><stop offset="1" stop-color="#1d1d1d"/></linearGradient><radialGradient cx="366.17815" cy="203.83731" r="28.5" gradientUnits="userSpaceOnUse" id="color-4"><stop offset="0" stop-color="#c9c9c9"/><stop offset="1" stop-color="#b0b0b0"/></radialGradient><radialGradient cx="365.92815" cy="181.81653" r="28.75" gradientUnits="userSpaceOnUse" id="color-5"><stop offset="0" stop-color="#d3d3d3"/><stop offset="1" stop-color="#d1d1d1"/></radialGradient><radialGradient cx="222.05738" cy="323.76944" r="265.97323" gradientUnits="userSpaceOnUse" id="color-6"><stop offset="0" stop-color="#4d4d4d"/><stop offset="1" stop-color="#3c3c3c"/></radialGradient><linearGradient x1="238.34428" y1="263.4833" x2="238.34428" y2="287.68289" gradientUnits="userSpaceOnUse" id="color-7"><stop offset="0" stop-color="#696969"/><stop offset="1" stop-color="#a0a0a0"/></linearGradient><radialGradient cx="193.52968" cy="168.7303" r="40.03535" gradientUnits="userSpaceOnUse" id="color-8"><stop offset="0" stop-color="#263028"/><stop offset="1" stop-color="#222922"/></radialGradient><radialGradient cx="242.67814" cy="193.12619" r="49.44459" gradientUnits="userSpaceOnUse" id="color-9"><stop offset="0" stop-color="#dcdcdc"/><stop offset="1" stop-color="#777777"/></radialGradient><radialGradient cx="240.51172" cy="81.08536" r="156.75" gradientUnits="userSpaceOnUse" id="color-10"><stop offset="0" stop-color="#4a4a4a"/><stop offset="1" stop-color="#303030"/></radialGradient><radialGradient cx="240.26172" cy="80.30997" r="150" gradientUnits="userSpaceOnUse" id="color-11"><stop offset="0" stop-color="#151515"/><stop offset="1" stop-color="#020202"/></radialGradient><radialGradient cx="351.35479" cy="186.79452" r="11.16667" gradientUnits="userSpaceOnUse" id="color-12"><stop offset="0" stop-color="#584fe0"/><stop offset="1" stop-color="#3000ba"/></radialGradient><radialGradient cx="351.35479" cy="183.89409" r="11.16667" gradientUnits="userSpaceOnUse" id="color-13"><stop offset="0" stop-color="#6c59ff"/><stop offset="1" stop-color="#4200ff"/></radialGradient><radialGradient cx="375.54923" cy="186.79452" r="11.16666" gradientUnits="userSpaceOnUse" id="color-14"><stop offset="0" stop-color="#e08e4f"/><stop offset="1" stop-color="#ba6c00"/></radialGradient><radialGradient cx="375.54923" cy="183.89409" r="11.16666" gradientUnits="userSpaceOnUse" id="color-15"><stop offset="0" stop-color="#ffb959"/><stop offset="1" stop-color="#ffad00"/></radialGradient><radialGradient cx="352.11272" cy="169.63327" r="10.5" gradientUnits="userSpaceOnUse" id="color-16"><stop offset="0" stop-color="#e04e4e"/><stop offset="1" stop-color="#b90000"/></radialGradient><radialGradient cx="352.11272" cy="166.90599" r="10.5" gradientUnits="userSpaceOnUse" id="color-17"><stop offset="0" stop-color="#ff5959"/><stop offset="1" stop-color="#ff0000"/></radialGradient><radialGradient cx="374.86272" cy="169.63327" r="10.5" gradientUnits="userSpaceOnUse" id="color-18"><stop offset="0" stop-color="#88e04f"/><stop offset="1" stop-color="#77ba00"/></radialGradient><radialGradient cx="374.86272" cy="166.90599" r="10.5" gradientUnits="userSpaceOnUse" id="color-19"><stop offset="0" stop-color="#c3ff59"/><stop offset="1" stop-color="#b2ff00"/></radialGradient><radialGradient cx="181.35644" cy="296.54877" r="57.68728" gradientUnits="userSpaceOnUse" id="color-20"><stop offset="0" stop-color="#b3dbb1"/><stop offset="1" stop-color="#697868"/></radialGradient><radialGradient cx="183.12256" cy="388.38708" r="20.20716" gradientUnits="userSpaceOnUse" id="color-21"><stop offset="0" stop-color="#42424f"/><stop offset="1" stop-color="#2e3236"/></radialGradient><radialGradient cx="289.97297" cy="300.08101" r="57.68728" gradientUnits="userSpaceOnUse" id="color-22"><stop offset="0" stop-color="#c9dbba"/><stop offset="1" stop-color="#737867"/></radialGradient><radialGradient cx="289.08992" cy="390.1532" r="20.20716" gradientUnits="userSpaceOnUse" id="color-23"><stop offset="0" stop-color="#4a424f"/><stop offset="1" stop-color="#362c34"/></radialGradient><radialGradient cx="220.97619" cy="322.90151" r="72.77997" gradientUnits="userSpaceOnUse" id="color-24"><stop offset="0" stop-color="#92947a"/><stop offset="1" stop-color="#636152"/></radialGradient></defs><g transform="translate(33.94996,5.19004)"><g data-paper-data="{&quot;isPaintingLayer&quot;:true}" fill-rule="nonzero" stroke-linecap="butt" stroke-linejoin="miter" stroke-miterlimit="10" stroke-dasharray="" stroke-dashoffset="0" style="mix-blend-mode: normal"><path d="M-4.73829,360.80997v-366h488v366z" fill="url(#color-1)" stroke="none" stroke-width="0"/><g stroke="none" stroke-width="0"><path d="M353.67815,211.60231v-56.51695h4.72807v56.51695z" fill="url(#color-2)"/><path d="M373.45008,211.75203v-56.18361h4.72807v56.18362z" fill="url(#color-3)"/><path d="M337.67815,209.08536v-10.4961h57v10.4961z" fill="url(#color-4)"/><path d="M337.17815,199.5477l6,-35.46234h46l5.5,35.46234z" fill="url(#color-5)"/></g><path d="M510.04405,362.50946c-0.27717,41.14587 -122.27896,74.072 -272.49862,73.54259c-150.21966,-0.52942 -271.77209,-34.31391 -271.49492,-75.45978c0.27716,-41.14587 122.27895,-74.07201 272.49862,-73.54259c150.21967,0.52942 271.77209,34.31392 271.49493,75.45979z" fill="url(#color-6)" stroke="none" stroke-width="NaN"/><path d="M224.82257,287.68289v-24.19955h27.0434v24.19955z" fill="url(#color-7)" stroke="#000000" stroke-width="0"/><g data-paper-data="{&quot;index&quot;:null}"><path d="M204.10229,170.33807c-0.67808,-0.04529 -3.5989,-4.15159 2.94448,-4.28659c9.01287,-0.18597 17.95536,-1.20782 26.67629,-0.38986c0.3813,-0.25206 0.86335,-0.38766 1.37499,-0.35298l2.33962,0.15874c1.21286,-0.09792 2.52841,-0.19177 3.90476,-0.26078c3.62726,-0.44132 7.86783,-0.31988 11.79233,-0.06676c1.95701,-0.04761 3.76159,0.06238 5.20762,0.39773c1.0903,0.08975 2.10448,0.17241 3.01262,0.23398l2.46635,0.16732c1.12336,0.07622 1.96425,0.94473 1.87821,1.93991c-0.07661,0.88571 -0.86162,1.57323 -1.82536,1.65998l-1.36073,0.14651c0.48967,0.50917 0.91495,1.07144 1.26585,1.69167l0.99934,-0.27778l0.78377,2.21278c0.08594,0.22423 0.12317,0.46721 0.10148,0.71818c-0.08604,0.99518 -1.06641,1.74009 -2.1897,1.66387c-0.34161,-0.02321 -0.65711,-0.11961 -0.92838,-0.27065l-1.86234,-0.98917l0.03284,-0.04853l-0.18572,-0.04115c-1.27596,-0.99129 -2.61298,-1.7947 -3.98416,-2.40815c-2.18664,-0.39731 -4.46037,-0.9548 -6.78685,-1.47648c-4.10493,0.01406 -8.13246,1.66384 -11.42172,5.00135c0,0 -1.34497,1.35874 -2.87867,0.16718c-1.5337,-1.1915 -0.18873,-2.55025 -0.18873,-2.55025c0.28732,-0.28908 0.58024,-0.56826 0.87847,-0.83753l-1.1762,0.1492c-0.15803,0.02299 -0.32171,0.02981 -0.48851,0.01847c-1.12336,-0.07622 -1.96425,-0.94473 -1.87817,-1.93991c0.04351,-0.50366 0.31614,-0.94318 0.72044,-1.24462c-0.96409,-0.14175 -1.88319,-0.23073 -2.68949,-0.17675c-5.6317,0.37686 -14.01231,-0.46665 -22.05081,-0.5676c-0.11529,0.84696 -0.88186,1.49612 -1.81649,1.58026l-2.46663,0.26559z" fill="url(#color-8)" stroke="none" stroke-width="0.5"/><path d="M265.9183,166.17511c10.83961,0.5955 10.72082,0.72355 10.35654,7.22471c-0.36428,6.50116 -5.29561,11.25316 -11.01438,10.61387c-5.71885,-0.63926 -10.05958,-6.42773 -9.6953,-12.92894c0.36428,-6.50116 0.18865,-5.46809 10.35315,-4.90968z" data-paper-data="{&quot;index&quot;:null}" fill="#1f2129" stroke="#000000" stroke-width="0"/><path d="M238.1167,171.63932c0.09032,7.14622 -7.2162,13.01261 -16.31957,13.10289c-9.10334,0.09028 -16.55633,-5.62965 -16.64665,-12.77591c-0.09032,-7.14623 -0.26891,-7.29885 16.9398,-6.79636c16.13692,0.4712 15.93611,-0.67685 16.02643,6.46938z" fill="#291d1d" stroke="#000000" stroke-width="0"/></g><path d="M202.64007,396.024c0,0 0.5902,-19.63822 -1.24575,-38.65625c-1.24748,-12.92261 -4.96185,-24.58157 -5.51602,-33.39169c-1.04014,-16.5356 -0.74354,-47.26931 -0.74354,-47.26931c0,0 13.04027,-2.06555 19.31926,-0.77204c7.9928,1.64656 24.74889,9.85027 24.74889,9.85027c0,0 12.98767,-7.66713 19.74634,-9.13746c7.13128,-1.5514 21.9836,0.05924 21.9836,0.05924c0,0 -0.2439,32.55708 -0.80143,44.70511c-0.49328,10.74809 -3.14218,22.49373 -4.18027,38.40586c-1.06991,16.40007 -0.52221,36.81147 -0.52221,36.81147c0,0 -9.73829,-2.71743 -19.6812,-2.9584c-4.51537,-0.10943 -6.32717,3.55386 -10.59148,4.1162c-3.40848,0.44945 -9.31181,-2.16494 -12.57857,-2.29475c-2.46957,-0.09812 -7.2191,-1.87421 -8.96487,-1.88873c-3.525,-0.02932 -5.70712,3.05641 -9.7965,3.61928c-4.7503,0.65382 -11.17637,-1.1988 -11.17637,-1.1988z" fill="#d0d0d0" stroke="#292e32" stroke-width="0"/><path d="M284.48094,219.6037c0,27.3075 -20.2671,49.44461 -45.26783,49.44461c-25.00073,0 -45.26784,-22.13711 -45.26784,-49.44461c0,-15.20158 6.28069,-28.80089 16.16229,-37.87092c7.86931,-7.22302 18.02229,-11.57365 29.10559,-11.57365c25.00074,0 45.26784,22.13707 45.26784,49.44458z" fill="url(#color-9)" stroke="none" stroke-width="0"/><path d="M83.76171,157.08534v-152h313.5v152z" fill="url(#color-10)" stroke="none" stroke-width="0"/><path d="M90.26172,149.80997v-139h300v139z" fill="url(#color-11)" stroke="none" stroke-width="0"/><g><text transform="translate(93.26172,21.79769) scale(0.24611,0.24611)" font-size="40" xml:space="preserve" fill="#00ff15" fill-rule="nonzero" stroke="none" stroke-width="1" stroke-linecap="butt" stroke-linejoin="miter" stroke-miterlimit="10" stroke-dasharray="" stroke-dashoffset="0" font-family="Sans Serif" font-weight="normal" text-anchor="start" style="mix-blend-mode: normal"><tspan x="0" dy="0">GREEN ORIGIN</tspan></text><path d="M165.89171,21.4842v-6.52434c0,0 1.56319,-2.13296 2.35253,-2.13296c0.79979,0 2.41526,2.13296 2.41526,2.13296v6.52434c0,0 -1.53351,2.50936 -2.35253,2.50936c-0.7668,0 -2.41526,-2.50936 -2.41526,-2.50936z" fill="none" stroke="#00ff10" stroke-width="1"/><path d="M167.0213,19.51154c0,-0.69036 0.55964,-1.25 1.25,-1.25c0.69036,0 1.25,0.55964 1.25,1.25c0,0.69036 -0.55964,1.25 -1.25,1.25c-0.69036,0 -1.25,-0.55964 -1.25,-1.25z" fill="#00ff10" stroke="none" stroke-width="0.5"/><path d="M167.7713,16.42065c0,-0.27614 0.22386,-0.5 0.5,-0.5c0.27614,0 0.5,0.22386 0.5,0.5c0,0.27614 -0.22386,0.5 -0.5,0.5c-0.27614,0 -0.5,-0.22386 -0.5,-0.5z" fill="#00ff10" stroke="none" stroke-width="0.5"/></g><g stroke="none"><path d="M365.44606,189.87623c0,3.74436 -4.99949,6.77976 -11.16667,6.77976c-6.16718,0 -11.16666,-3.0354 -11.16666,-6.77976c0,-3.74436 4.99948,-6.77976 11.16666,-6.77976c6.16718,0 11.16667,3.0354 11.16667,6.77976z" fill="url(#color-12)" stroke-width="NaN"/><path d="M365.44606,187.2175c0,4.03804 -4.99949,7.31151 -11.16667,7.31151c-6.16718,0 -11.16666,-3.27347 -11.16666,-7.31151c0,-4.03804 4.99948,-7.31151 11.16666,-7.31151c6.16718,0 11.16667,3.27347 11.16667,7.31151z" fill="url(#color-13)" stroke-width="NaN"/><text transform="translate(345.75758,189.08935) scale(0.16603,0.1319)" font-size="40" xml:space="preserve" fill="#ffffff" fill-rule="nonzero" stroke="none" stroke-width="1" stroke-linecap="butt" stroke-linejoin="miter" stroke-miterlimit="10" stroke-dasharray="" stroke-dashoffset="0" font-family="Sans Serif" font-weight="normal" text-anchor="start" style="mix-blend-mode: normal"><tspan x="0" dy="0">SCAN</tspan></text></g><g stroke="none"><path d="M389.6405,189.87623c0,3.74436 -4.99949,6.77976 -11.16667,6.77976c-6.16718,0 -11.16667,-3.0354 -11.16667,-6.77976c0,-3.74436 4.99949,-6.77976 11.16667,-6.77976c6.16718,0 11.16667,3.0354 11.16667,6.77976z" fill="url(#color-14)" stroke-width="NaN"/><path d="M389.6405,187.2175c0,4.03804 -4.99949,7.31151 -11.16667,7.31151c-6.16718,0 -11.16667,-3.27347 -11.16667,-7.31151c0,-4.03804 4.99949,-7.31151 11.16667,-7.31151c6.16718,0 11.16667,3.27347 11.16667,7.31151z" fill="url(#color-15)" stroke-width="NaN"/><text transform="translate(369.75758,186.47217) scale(0.09335,0.07416)" font-size="40" xml:space="preserve" fill="#000000" fill-rule="nonzero" stroke="none" stroke-width="1" stroke-linecap="butt" stroke-linejoin="miter" stroke-miterlimit="10" stroke-dasharray="" stroke-dashoffset="0" font-family="Sans Serif" font-weight="normal" text-anchor="start" style="mix-blend-mode: normal"><tspan x="0" dy="0">PRESSURE</tspan><tspan x="0" dy="46.150000000000006px"> CHANGE</tspan></text></g><g stroke="none"><path d="M365.36272,172.53099c0,3.52081 -4.70101,6.375 -10.5,6.375c-5.79899,0 -10.5,-2.85419 -10.5,-6.375c0,-3.52081 4.70101,-6.375 10.5,-6.375c5.79899,0 10.5,2.85419 10.5,6.375z" fill="url(#color-16)" stroke-width="NaN"/><path d="M365.36272,170.03099c0,3.79696 -4.70101,6.875 -10.5,6.875c-5.79899,0 -10.5,-3.07804 -10.5,-6.875c0,-3.79696 4.70101,-6.875 10.5,-6.875c5.79899,0 10.5,3.07804 10.5,6.875z" fill="url(#color-17)" stroke-width="NaN"/><text transform="translate(346.09091,171.11358) scale(0.10747,0.08538)" font-size="40" xml:space="preserve" fill="#ffffff" fill-rule="nonzero" stroke="none" stroke-width="1" stroke-linecap="butt" stroke-linejoin="miter" stroke-miterlimit="10" stroke-dasharray="" stroke-dashoffset="0" font-family="Sans Serif" font-weight="normal" text-anchor="start" style="mix-blend-mode: normal"><tspan x="0" dy="0">LAUNCH</tspan></text></g><g stroke="none"><path d="M388.11272,172.53099c0,3.52081 -4.70101,6.375 -10.5,6.375c-5.79899,0 -10.5,-2.85419 -10.5,-6.375c0,-3.52081 4.70101,-6.375 10.5,-6.375c5.79899,0 10.5,2.85419 10.5,6.375z" fill="url(#color-18)" stroke-width="NaN"/><path d="M388.11272,170.03099c0,3.79696 -4.70101,6.875 -10.5,6.875c-5.79899,0 -10.5,-3.07804 -10.5,-6.875c0,-3.79696 4.70101,-6.875 10.5,-6.875c5.79899,0 10.5,3.07804 10.5,6.875z" fill="url(#color-19)" stroke-width="NaN"/><text transform="translate(370.92425,168.818) scale(0.12762,0.10139)" font-size="40" xml:space="preserve" fill="#000000" fill-rule="nonzero" stroke="none" stroke-width="1" stroke-linecap="butt" stroke-linejoin="miter" stroke-miterlimit="10" stroke-dasharray="" stroke-dashoffset="0" font-family="Sans Serif" font-weight="normal" text-anchor="start" style="mix-blend-mode: normal"><tspan x="0" dy="0">DATA</tspan><tspan x="0" dy="46.150000000000006px">LOGS</tspan></text></g><g stroke-width="0"><path d="M172.36571,390.46686c0,0 0.01141,-8.8132 -2.81683,-22.83441c-1.69866,-8.42129 -5.21733,-22.0411 -5.51408,-25.28748c-0.66216,-7.24202 -3.58866,-10.50567 -3.80744,-15.20048c-0.53764,-11.53575 4.53113,-31.44437 4.53113,-31.44437c0,0 16.63094,-35.50181 32.45455,-13.31101c6.25871,9.68273 -8.24291,25.3824 -8.24291,25.3824c0,0 -1.89321,2.20172 -1.38757,13.05172c0.23507,5.04461 -0.09629,11.02526 0.05807,19.26878c0.06521,3.48304 1.26514,14.45611 1.36634,17.84388c0.42097,14.08804 5.44969,25.17452 5.44969,25.17452z" fill="url(#color-20)" stroke="#000000"/><path d="M176.35312,409.01464c-2.08,0.66074 -3.86978,-18.09247 -3.86978,-18.09247c0,0 6.54694,-5.08555 10.17537,-6.30372c3.72656,-1.25119 11.89734,-1.10715 11.89734,-1.10715c0,0 1.18613,4.5666 3.92948,7.16357c4.69545,4.44491 10.42355,9.02107 9.09938,14.19916c-0.71839,2.80959 -6.5349,-6.9267 -7.30189,-5.60528c-0.13645,0.2351 3.66721,17.57059 2.21214,18.69819c-2.37709,1.84206 -7.34618,-15.64502 -7.48306,-12.81477c-0.28096,5.80941 4.52187,17.54042 2.47257,18.65619c-3.45217,1.87947 -6.97781,-20.49773 -7.66779,-18.55188c-1.28881,3.63496 3.05634,16.71535 1.30944,17.77121c-5.08841,3.07535 -5.91898,-16.03896 -7.06484,-13.98751c-2.16466,3.87551 1.85733,12.89987 -0.22214,13.42289c-4.22803,1.0632 -6.50442,-13.76022 -7.48624,-13.44839z" data-paper-data="{&quot;index&quot;:null}" fill="url(#color-21)" stroke="#000000"/><path d="M277.96299,382.10123c0,0 5.02872,-11.08648 5.44969,-25.17452c0.1012,-3.38777 1.30114,-14.3608 1.36634,-17.84388c0.15436,-8.24348 -0.17704,-14.22418 0.05807,-19.26878c0.50564,-10.84999 -1.38758,-13.05172 -1.38758,-13.05172c0,0 -14.50163,-15.6997 -8.24291,-25.38239c15.82361,-22.19076 32.45459,13.31102 32.45459,13.31102c0,0 5.06877,19.90861 4.53113,31.44436c-0.21879,4.69482 -3.14525,7.95846 -3.80744,15.20049c-0.29674,3.24638 -3.81542,16.86619 -5.51408,25.28749c-2.82823,14.02118 -2.81682,22.83441 -2.81682,22.83441z" data-paper-data="{&quot;index&quot;:null}" fill="url(#color-22)" stroke="#000000"/><path d="M296.06638,408.00545c-0.98182,-0.31182 -3.25821,14.51155 -7.48623,13.44835c-2.07947,-0.52299 1.94252,-9.54737 -0.22214,-13.42289c-1.14586,-2.05145 -1.97644,17.06286 -7.06485,13.98751c-1.74687,-1.05586 2.59829,-14.13626 1.30948,-17.77122c-0.68999,-1.94585 -4.21566,20.43138 -7.6678,18.55188c-2.0493,-1.11577 2.75356,-12.84677 2.47257,-18.65618c-0.13687,-2.83024 -5.10597,14.65684 -7.48306,12.81477c-1.45507,-1.1276 2.34859,-18.46308 2.21211,-18.69819c-0.76699,-1.32142 -6.5835,8.41484 -7.30189,5.60529c-1.32417,-5.17813 4.40396,-9.75426 9.09941,-14.19916c2.74336,-2.59697 3.92945,-7.16357 3.92945,-7.16357c0,0 8.17078,-0.14408 11.89734,1.10711c3.62843,1.21816 10.17538,6.30375 10.17538,6.30375c0,0 -1.78983,18.75322 -3.86979,18.09251z" data-paper-data="{&quot;index&quot;:null}" fill="url(#color-23)" stroke="#000000"/><path d="M187.39108,428.18989v-163.72572h96.52375v163.72572z" fill="url(#color-24)" stroke="#ed6b00"/></g></g></g></svg>