<svg version="1.1" xmlns="http://www.w3.org/2000/svg" xmlns:xlink="http://www.w3.org/1999/xlink" width="110.59566" height="314.29675" viewBox="0,0,110.59566,314.29675"><defs><linearGradient x1="254.90001" y1="242.06667" x2="260.10001" y2="242.06667" gradientUnits="userSpaceOnUse" id="color-1"><stop offset="0" stop-color="#525252"/><stop offset="1" stop-color="#363636"/></linearGradient><linearGradient x1="254.90001" y1="242.06667" x2="260.10001" y2="242.06667" gradientUnits="userSpaceOnUse" id="color-2"><stop offset="0" stop-color="#1f1f1f"/><stop offset="1" stop-color="#000000"/></linearGradient><linearGradient x1="207.34165" y1="247.34993" x2="271.5105" y2="247.34993" gradientUnits="userSpaceOnUse" id="color-3"><stop offset="0" stop-color="#2f2f2f"/><stop offset="1" stop-color="#040404"/></linearGradient><linearGradient x1="207.34165" y1="247.34993" x2="271.5105" y2="247.34993" gradientUnits="userSpaceOnUse" id="color-4"><stop offset="0" stop-color="#1f1f1f"/><stop offset="1" stop-color="#000000"/></linearGradient><linearGradient x1="229.30001" y1="229.73334" x2="249.70001" y2="229.73334" gradientUnits="userSpaceOnUse" id="color-5"><stop offset="0" stop-color="#444444"/><stop offset="1" stop-color="#252525"/></linearGradient><linearGradient x1="222.70001" y1="242.80393" x2="255.50001" y2="242.80393" gradientUnits="userSpaceOnUse" id="color-6"><stop offset="0" stop-color="#444444"/><stop offset="1" stop-color="#252525"/></linearGradient><linearGradient x1="217.16343" y1="257.23293" x2="261.19757" y2="257.23293" gradientUnits="userSpaceOnUse" id="color-7"><stop offset="0" stop-color="#444444"/><stop offset="1" stop-color="#252525"/></linearGradient><linearGradient x1="211.30001" y1="271.60393" x2="267.30001" y2="271.60393" gradientUnits="userSpaceOnUse" id="color-8"><stop offset="0" stop-color="#444444"/><stop offset="1" stop-color="#252525"/></linearGradient><linearGradient x1="249.89788" y1="225.01767" x2="266.10094" y2="225.01767" gradientUnits="userSpaceOnUse" id="color-9"><stop offset="0" stop-color="#b2b2b2"/><stop offset="1" stop-color="#363636"/></linearGradient><linearGradient x1="249.89788" y1="225.01767" x2="266.10094" y2="225.01767" gradientUnits="userSpaceOnUse" id="color-10"><stop offset="0" stop-color="#1f1f1f"/><stop offset="1" stop-color="#000000"/></linearGradient><linearGradient x1="202.33333" y1="176.49212" x2="277.66667" y2="176.49212" gradientUnits="userSpaceOnUse" id="color-11"><stop offset="0" stop-color="#b89a9a"/><stop offset="1" stop-color="#8d7070"/></linearGradient><linearGradient x1="202.33333" y1="176.49212" x2="277.66667" y2="176.49212" gradientUnits="userSpaceOnUse" id="color-12"><stop offset="0" stop-color="#260000"/><stop offset="1" stop-color="#100000"/></linearGradient><linearGradient x1="271.82285" y1="203.00127" x2="303.62907" y2="203.00127" gradientUnits="userSpaceOnUse" id="color-13"><stop offset="0" stop-color="#362424"/><stop offset="1" stop-color="#1f1414"/></linearGradient><linearGradient x1="271.82285" y1="204.09395" x2="293.57785" y2="204.09395" gradientUnits="userSpaceOnUse" id="color-14"><stop offset="0" stop-color="#272727"/><stop offset="1" stop-color="#000000"/></linearGradient><linearGradient x1="208.57785" y1="202.66794" x2="176.77164" y2="202.66794" gradientUnits="userSpaceOnUse" id="color-15"><stop offset="0" stop-color="#6b4a4a"/><stop offset="1" stop-color="#825959"/></linearGradient><linearGradient x1="186.82285" y1="203.76061" x2="208.57785" y2="203.76061" gradientUnits="userSpaceOnUse" id="color-16"><stop offset="0" stop-color="#272727"/><stop offset="1" stop-color="#000000"/></linearGradient><linearGradient x1="208.48951" y1="177.01061" x2="271.89896" y2="177.01061" gradientUnits="userSpaceOnUse" id="color-17"><stop offset="0" stop-color="#634343"/><stop offset="1" stop-color="#211414"/></linearGradient><linearGradient x1="208.48951" y1="177.01061" x2="271.89897" y2="177.01061" gradientUnits="userSpaceOnUse" id="color-18"><stop offset="0" stop-color="#272727"/><stop offset="1" stop-color="#000000"/></linearGradient><linearGradient x1="212.66667" y1="141" x2="267.33333" y2="141" gradientUnits="userSpaceOnUse" id="color-19"><stop offset="0" stop-color="#b89a9a"/><stop offset="1" stop-color="#8d7070"/></linearGradient><linearGradient x1="212.66667" y1="141" x2="267.33333" y2="141" gradientUnits="userSpaceOnUse" id="color-20"><stop offset="0" stop-color="#260000"/><stop offset="1" stop-color="#100000"/></linearGradient><linearGradient x1="212.66667" y1="160.33333" x2="267.33333" y2="160.33333" gradientUnits="userSpaceOnUse" id="color-21"><stop offset="0" stop-color="#b89a9a"/><stop offset="1" stop-color="#8d7070"/></linearGradient><linearGradient x1="212.66667" y1="160.33333" x2="267.33333" y2="160.33333" gradientUnits="userSpaceOnUse" id="color-22"><stop offset="0" stop-color="#260000"/><stop offset="1" stop-color="#100000"/></linearGradient><linearGradient x1="242.46088" y1="179.93702" x2="267.33232" y2="179.93702" gradientUnits="userSpaceOnUse" id="color-23"><stop offset="0" stop-color="#2c4a2e"/><stop offset="1" stop-color="#1d301b"/></linearGradient><linearGradient x1="242.46088" y1="179.93702" x2="267.33232" y2="179.93702" gradientUnits="userSpaceOnUse" id="color-24"><stop offset="0" stop-color="#123614"/><stop offset="1" stop-color="#0d1a0e"/></linearGradient><linearGradient x1="242.39399" y1="179.94639" x2="267.2079" y2="179.94639" gradientUnits="userSpaceOnUse" id="color-25"><stop offset="0" stop-color="#123614"/><stop offset="1" stop-color="#0d1a0e"/></linearGradient><linearGradient x1="242.39399" y1="179.75746" x2="267.2079" y2="179.75746" gradientUnits="userSpaceOnUse" id="color-26"><stop offset="0" stop-color="#123614"/><stop offset="1" stop-color="#0d1a0e"/></linearGradient><linearGradient x1="212.73457" y1="180.06298" x2="237.60601" y2="180.06298" gradientUnits="userSpaceOnUse" id="color-27"><stop offset="0" stop-color="#2c4a2e"/><stop offset="1" stop-color="#1d301b"/></linearGradient><linearGradient x1="212.73457" y1="180.06298" x2="237.60601" y2="180.06298" gradientUnits="userSpaceOnUse" id="color-28"><stop offset="0" stop-color="#123614"/><stop offset="1" stop-color="#0d1a0e"/></linearGradient><linearGradient x1="212.66769" y1="180.07235" x2="237.48159" y2="180.07235" gradientUnits="userSpaceOnUse" id="color-29"><stop offset="0" stop-color="#123614"/><stop offset="1" stop-color="#0d1a0e"/></linearGradient><linearGradient x1="212.66769" y1="179.88341" x2="237.48159" y2="179.88341" gradientUnits="userSpaceOnUse" id="color-30"><stop offset="0" stop-color="#123614"/><stop offset="1" stop-color="#0d1a0e"/></linearGradient><linearGradient x1="242.46088" y1="209.93702" x2="267.33232" y2="209.93702" gradientUnits="userSpaceOnUse" id="color-31"><stop offset="0" stop-color="#2c4a2e"/><stop offset="1" stop-color="#1d301b"/></linearGradient><linearGradient x1="242.46088" y1="209.93702" x2="267.33232" y2="209.93702" gradientUnits="userSpaceOnUse" id="color-32"><stop offset="0" stop-color="#123614"/><stop offset="1" stop-color="#0d1a0e"/></linearGradient><linearGradient x1="242.39399" y1="209.94639" x2="267.2079" y2="209.94639" gradientUnits="userSpaceOnUse" id="color-33"><stop offset="0" stop-color="#123614"/><stop offset="1" stop-color="#0d1a0e"/></linearGradient><linearGradient x1="242.39399" y1="209.75746" x2="267.2079" y2="209.75746" gradientUnits="userSpaceOnUse" id="color-34"><stop offset="0" stop-color="#123614"/><stop offset="1" stop-color="#0d1a0e"/></linearGradient><linearGradient x1="212.73457" y1="210.06298" x2="237.60601" y2="210.06298" gradientUnits="userSpaceOnUse" id="color-35"><stop offset="0" stop-color="#2c4a2e"/><stop offset="1" stop-color="#1d301b"/></linearGradient><linearGradient x1="212.73457" y1="210.06298" x2="237.60601" y2="210.06298" gradientUnits="userSpaceOnUse" id="color-36"><stop offset="0" stop-color="#123614"/><stop offset="1" stop-color="#0d1a0e"/></linearGradient><linearGradient x1="212.66769" y1="210.07235" x2="237.48159" y2="210.07235" gradientUnits="userSpaceOnUse" id="color-37"><stop offset="0" stop-color="#123614"/><stop offset="1" stop-color="#0d1a0e"/></linearGradient><linearGradient x1="212.66769" y1="209.88341" x2="237.48159" y2="209.88341" gradientUnits="userSpaceOnUse" id="color-38"><stop offset="0" stop-color="#123614"/><stop offset="1" stop-color="#0d1a0e"/></linearGradient><linearGradient x1="207.95583" y1="50.53687" x2="272.12466" y2="50.53687" gradientUnits="userSpaceOnUse" id="color-39"><stop offset="0" stop-color="#9c5555"/><stop offset="1" stop-color="#453131"/></linearGradient><linearGradient x1="207.95583" y1="50.51676" x2="272.12467" y2="50.51676" gradientUnits="userSpaceOnUse" id="color-40"><stop offset="0" stop-color="#272727"/><stop offset="1" stop-color="#000000"/></linearGradient><linearGradient x1="225.95583" y1="22.62154" x2="252.12467" y2="22.62154" gradientUnits="userSpaceOnUse" id="color-41"><stop offset="0" stop-color="#f7d6d6"/><stop offset="1" stop-color="#805e5e"/></linearGradient><linearGradient x1="225.95583" y1="22.619" x2="252.12467" y2="22.619" gradientUnits="userSpaceOnUse" id="color-42"><stop offset="0" stop-color="#272727"/><stop offset="1" stop-color="#000000"/></linearGradient><linearGradient x1="222.74586" y1="35.52466" x2="256.22595" y2="35.52466" gradientUnits="userSpaceOnUse" id="color-43"><stop offset="0" stop-color="#452a2a"/><stop offset="1" stop-color="#260f0f"/></linearGradient><linearGradient x1="219.58718" y1="46.52466" x2="259.91234" y2="46.52466" gradientUnits="userSpaceOnUse" id="color-44"><stop offset="0" stop-color="#452a2a"/><stop offset="1" stop-color="#260f0f"/></linearGradient><linearGradient x1="216.62984" y1="57.32466" x2="262.89988" y2="57.32466" gradientUnits="userSpaceOnUse" id="color-45"><stop offset="0" stop-color="#452a2a"/><stop offset="1" stop-color="#260f0f"/></linearGradient><linearGradient x1="213.47963" y1="67.72466" x2="266.32316" y2="67.72466" gradientUnits="userSpaceOnUse" id="color-46"><stop offset="0" stop-color="#452a2a"/><stop offset="1" stop-color="#260f0f"/></linearGradient><linearGradient x1="234.16667" y1="6.72222" x2="244.5" y2="6.72222" gradientUnits="userSpaceOnUse" id="color-47"><stop offset="0" stop-color="#443939"/><stop offset="1" stop-color="#251e1e"/></linearGradient><linearGradient x1="234.16667" y1="6.72222" x2="244.5" y2="6.72222" gradientUnits="userSpaceOnUse" id="color-48"><stop offset="0" stop-color="#262626"/><stop offset="1" stop-color="#0f0f0f"/></linearGradient><linearGradient x1="237.5" y1="-13.44445" x2="241.5" y2="-13.44445" gradientUnits="userSpaceOnUse" id="color-49"><stop offset="0" stop-color="#ccbebe"/><stop offset="1" stop-color="#656161"/></linearGradient><linearGradient x1="237.5" y1="-13.44445" x2="241.5" y2="-13.44445" gradientUnits="userSpaceOnUse" id="color-50"><stop offset="0" stop-color="#262626"/><stop offset="1" stop-color="#0f0f0f"/></linearGradient><linearGradient x1="208.29528" y1="104.00003" x2="271.70474" y2="104.00003" gradientUnits="userSpaceOnUse" id="color-51"><stop offset="0" stop-color="#303030"/><stop offset="1" stop-color="#171717"/></linearGradient><linearGradient x1="208.29528" y1="104.00003" x2="271.70474" y2="104.00003" gradientUnits="userSpaceOnUse" id="color-52"><stop offset="0" stop-color="#272727"/><stop offset="1" stop-color="#000000"/></linearGradient><radialGradient cx="240" cy="104.00003" r="26.30533" gradientUnits="userSpaceOnUse" id="color-53"><stop offset="0" stop-color="#734c45" stop-opacity="0.40995"/><stop offset="1" stop-color="#734c45" stop-opacity="0"/></radialGradient><radialGradient cx="240" cy="103.90648" r="21.35612" gradientUnits="userSpaceOnUse" id="color-54"><stop offset="0" stop-color="#eb8c73" stop-opacity="0.60996"/><stop offset="1" stop-color="#eb8c73" stop-opacity="0"/></radialGradient><radialGradient cx="240" cy="103.90648" r="18.07971" gradientUnits="userSpaceOnUse" id="color-55"><stop offset="0" stop-color="#ff734f" stop-opacity="0"/><stop offset="1" stop-color="#ff734f" stop-opacity="0.08997"/></radialGradient><radialGradient cx="240" cy="103.90648" r="14.86702" gradientUnits="userSpaceOnUse" id="color-56"><stop offset="0" stop-color="#ffa282" stop-opacity="0.11996"/><stop offset="1" stop-color="#ffab8f"/></radialGradient><linearGradient x1="209.18751" y1="103.95834" x2="213.43751" y2="103.95834" gradientUnits="userSpaceOnUse" id="color-57"><stop offset="0" stop-color="#9d9d9d"/><stop offset="1" stop-color="#4c4c4c"/></linearGradient><linearGradient x1="209.18751" y1="103.95834" x2="213.43751" y2="103.95834" gradientUnits="userSpaceOnUse" id="color-58"><stop offset="0" stop-color="#272727"/><stop offset="1" stop-color="#000000"/></linearGradient><linearGradient x1="266.68751" y1="103.95834" x2="270.93751" y2="103.95834" gradientUnits="userSpaceOnUse" id="color-59"><stop offset="0" stop-color="#9d9d9d"/><stop offset="1" stop-color="#4c4c4c"/></linearGradient><linearGradient x1="266.68751" y1="103.95834" x2="270.93751" y2="103.95834" gradientUnits="userSpaceOnUse" id="color-60"><stop offset="0" stop-color="#272727"/><stop offset="1" stop-color="#000000"/></linearGradient><linearGradient x1="209.07144" y1="111.81991" x2="270.92858" y2="111.81991" gradientUnits="userSpaceOnUse" id="color-61"><stop offset="0" stop-color="#272727"/><stop offset="1" stop-color="#000000"/></linearGradient><linearGradient x1="209.07144" y1="111.89442" x2="270.92858" y2="111.89442" gradientUnits="userSpaceOnUse" id="color-62"><stop offset="0" stop-color="#272727"/><stop offset="1" stop-color="#000000"/></linearGradient><linearGradient x1="209.2143" y1="95.39133" x2="271.07142" y2="95.39133" gradientUnits="userSpaceOnUse" id="color-63"><stop offset="0" stop-color="#272727"/><stop offset="1" stop-color="#000000"/></linearGradient><linearGradient x1="209.2143" y1="95.46585" x2="271.07142" y2="95.46585" gradientUnits="userSpaceOnUse" id="color-64"><stop offset="0" stop-color="#272727"/><stop offset="1" stop-color="#000000"/></linearGradient><linearGradient x1="208.45975" y1="122.3354" x2="270.95975" y2="122.3354" gradientUnits="userSpaceOnUse" id="color-65"><stop offset="0" stop-color="#c7a895"/><stop offset="1" stop-color="#322c27"/></linearGradient><linearGradient x1="208.45975" y1="122.3354" x2="270.95975" y2="122.3354" gradientUnits="userSpaceOnUse" id="color-66"><stop offset="0" stop-color="#272727"/><stop offset="1" stop-color="#000000"/></linearGradient><linearGradient x1="208.74547" y1="85.76396" x2="271.24547" y2="85.76396" gradientUnits="userSpaceOnUse" id="color-67"><stop offset="0" stop-color="#c7a895"/><stop offset="1" stop-color="#322c27"/></linearGradient><linearGradient x1="208.74547" y1="85.76396" x2="271.24547" y2="85.76396" gradientUnits="userSpaceOnUse" id="color-68"><stop offset="0" stop-color="#272727"/><stop offset="1" stop-color="#000000"/></linearGradient></defs><g transform="translate(-184.90252,34.11111)"><g data-paper-data="{&quot;isPaintingLayer&quot;:true}" fill-rule="nonzero" stroke-linejoin="miter" stroke-miterlimit="10" stroke-dasharray="" stroke-dashoffset="0" style="mix-blend-mode: normal"><g><path d="M254.90001,250.66667v-17.2h5.2v17.2z" fill="url(#color-1)" stroke="url(#color-2)" stroke-width="1.5" stroke-linecap="butt"/><path d="M207.34165,279.43564c0,0 23.96029,-64.63938 32.08881,-64.16885c9.29886,0.53827 32.08004,64.16885 32.08004,64.16885z" fill="url(#color-3)" stroke="url(#color-4)" stroke-width="1.5" stroke-linecap="butt"/><path d="M249.70001,229.73334h-20.4" fill="none" stroke="url(#color-5)" stroke-width="4.5" stroke-linecap="round"/><path d="M222.70001,242.80393h32.8" fill="none" stroke="url(#color-6)" stroke-width="4.5" stroke-linecap="round"/><path d="M217.16343,257.23293h44.03415" fill="none" stroke="url(#color-7)" stroke-width="4.5" stroke-linecap="round"/><path d="M267.30001,271.60393h-56" fill="none" stroke="url(#color-8)" stroke-width="4.5" stroke-linecap="round"/><path d="M266.10094,225.01767c-0.06063,7.61853 -0.25257,8.43369 -8.10153,8.35295c-7.85147,-0.08077 -8.19893,-1.11312 -8.10153,-8.35295c0.10754,-7.99323 0.08469,-8.54885 8.10153,-8.35295c7.68121,0.18771 8.16811,-0.01299 8.10153,8.35295z" fill="url(#color-9)" stroke="url(#color-10)" stroke-width="1.5" stroke-linecap="butt"/></g><g stroke-width="1.5" stroke-linecap="butt"><path d="M202.33333,208.16667v-63.34908c0,0 24.64933,-8.48425 36.88735,-8.48425c12.8438,0 38.44598,8.48425 38.44598,8.48425v63.34908z" fill="url(#color-11)" stroke="url(#color-12)"/><path d="M271.82285,229.0938v-64.85172c0,0 8.16113,43.53356 11.01446,54.04444c2.25749,8.31596 10.74054,25.65929 10.74054,25.65929z" fill="url(#color-13)" stroke="url(#color-14)"/><path d="M186.82285,243.61247c0,0 8.48305,-17.34332 10.74054,-25.65928c2.85333,-10.51089 11.01446,-54.04444 11.01446,-54.04444v64.85172z" data-paper-data="{&quot;index&quot;:null}" fill="url(#color-15)" stroke="url(#color-16)"/><path d="M208.48951,229.02914v-104.03706h63.40946v104.03706z" fill="url(#color-17)" stroke="url(#color-18)"/><path d="M212.66667,153.66667v-25.33333h54.66667v25.33333z" fill="url(#color-19)" stroke="url(#color-20)"/><path d="M212.66667,164v-7.33333h54.66667v7.33333z" fill="url(#color-21)" stroke="url(#color-22)"/></g><g stroke-width="3"><path d="M242.46088,192.88443v-25.89482h24.87144v25.89482z" fill="url(#color-23)" stroke="url(#color-24)" stroke-linecap="butt"/><path d="M242.39399,192.54229l24.81391,-25.19178" fill="none" stroke="url(#color-25)" stroke-linecap="round"/><path d="M242.64591,167.09858l24.56199,25.56966" fill="none" stroke="url(#color-26)" stroke-linecap="round"/><path d="M212.73457,193.01039v-25.89482h24.87144v25.89482z" fill="url(#color-27)" stroke="url(#color-28)" stroke-linecap="butt"/><path d="M212.66769,192.66825l24.81391,-25.19179" fill="none" stroke="url(#color-29)" stroke-linecap="round"/><path d="M212.9196,167.22454l24.56199,25.56966" fill="none" stroke="url(#color-30)" stroke-linecap="round"/><path d="M242.46088,222.88443v-25.89482h24.87144v25.89482z" fill="url(#color-31)" stroke="url(#color-32)" stroke-linecap="butt"/><path d="M242.39399,222.54229l24.81391,-25.19178" fill="none" stroke="url(#color-33)" stroke-linecap="round"/><path d="M267.2079,222.66824l-24.56199,-25.56965" fill="none" stroke="url(#color-34)" stroke-linecap="round"/><path d="M212.73457,223.01039v-25.89482h24.87144v25.89482z" fill="url(#color-35)" stroke="url(#color-36)" stroke-linecap="butt"/><path d="M237.4816,197.47646l-24.81391,25.19179" fill="none" stroke="url(#color-37)" stroke-linecap="round"/><path d="M212.9196,197.22454l24.56199,25.56966" fill="none" stroke="url(#color-38)" stroke-linecap="round"/></g><g stroke-linecap="butt"><path d="M207.95583,82.62258c0,0 21.61061,-79.25 31.89763,-79.25c6.5993,0 32.27121,79.25 32.27121,79.25z" fill="url(#color-39)" stroke="url(#color-40)" stroke-width="1.5"/><path d="M225.95583,26.68108c0,0 10.25995,-24.02019 13.45027,-24.11876c2.90033,-0.0896 12.96857,24.11876 12.96857,24.11876z" fill="url(#color-41)" stroke="url(#color-42)" stroke-width="1.5"/><path d="M221.60132,39.62878c0,0 0.55545,-1.28597 1.37144,-2.81632c0.95758,-1.79589 2.54375,-3.92834 8.02471,-4.71401c0.21265,-0.03048 4.20771,-0.47706 4.20771,-0.47706l8.6914,0.01912c0,0 3.0045,0.1531 3.18094,0.18296c5.18707,0.87782 7.13492,3.08204 8.22529,4.92503c0.92973,1.57146 1.49541,2.88029 1.49541,2.88029z" data-paper-data="{&quot;index&quot;:null}" fill="url(#color-43)" stroke="#000000" stroke-width="0"/><path d="M218.20864,50.62878c0,0 0.66901,-1.28597 1.65183,-2.81632c1.15336,-1.79589 3.06382,-3.92834 9.66537,-4.71401c0.25613,-0.03048 5.06799,-0.47706 5.06799,-0.47706l10.46837,0.01912c0,0 3.61878,0.1531 3.83129,0.18296c6.24757,0.87782 8.59367,3.08204 9.90697,4.92503c1.11981,1.57146 1.80115,2.88029 1.80115,2.88029z" data-paper-data="{&quot;index&quot;:null}" fill="url(#color-44)" stroke="#000000" stroke-width="0"/><path d="M215.04807,61.42878c0,0 0.76764,-1.28597 1.89535,-2.81632c1.32339,-1.79589 3.5155,-3.92834 11.09027,-4.71401c0.29389,-0.03048 5.81513,-0.47706 5.81513,-0.47706l12.01166,0.01912c0,0 4.15227,0.1531 4.39611,0.18296c7.16861,0.87782 9.86058,3.08204 11.36749,4.92503c1.2849,1.57146 2.06668,2.88029 2.06668,2.88029z" data-paper-data="{&quot;index&quot;:null}" fill="url(#color-45)" stroke="#000000" stroke-width="0"/><path d="M211.67314,71.82878c0,0 0.8767,-1.28596 2.16462,-2.81632c1.51141,-1.79589 4.01494,-3.92834 12.66585,-4.71401c0.33564,-0.03048 6.64127,-0.47706 6.64127,-0.47706l13.71813,0.01912c0,0 4.74217,0.1531 5.02066,0.18296c8.18705,0.87782 11.26144,3.08204 12.98244,4.92502c1.46744,1.57146 2.36029,2.88029 2.36029,2.88029z" data-paper-data="{&quot;index&quot;:null}" fill="url(#color-46)" stroke="#000000" stroke-width="0"/><path d="M244.5,6.72222c0,1.10457 -2.3132,2 -5.16667,2c-2.85347,0 -5.16667,-0.89543 -5.16667,-2c0,-1.10457 2.3132,-2 5.16667,-2c2.85347,0 5.16667,0.89543 5.16667,2z" fill="url(#color-47)" stroke="url(#color-48)" stroke-width="1"/><path d="M237.5,6.72222v-40.33333h4v40.33333z" fill="url(#color-49)" stroke="url(#color-50)" stroke-width="1"/></g><g><path d="M208.29528,124.76856v-41.53706h63.40946v41.53706z" fill="url(#color-51)" stroke="url(#color-52)" stroke-width="1.5" stroke-linecap="butt"/><path d="M213.69468,104.00003c0,-14.528 11.7773,-26.30534 26.30534,-26.30534c14.528,0 26.30534,11.7773 26.30534,26.30534c0,14.528 -11.7773,26.30534 -26.30534,26.30534c-14.528,0 -26.30534,-11.7773 -26.30534,-26.30534z" fill="url(#color-53)" stroke="none" stroke-width="0.5" stroke-linecap="butt"/><path d="M218.64388,103.90648c0,-11.7946 9.56145,-21.35611 21.35612,-21.35611c11.7946,0 21.35612,9.56145 21.35612,21.35611c0,11.7946 -9.56145,21.35612 -21.35612,21.35612c-11.7946,0 -21.35612,-9.56145 -21.35612,-21.35612z" fill="url(#color-54)" stroke="none" stroke-width="0.5" stroke-linecap="butt"/><path d="M221.92028,103.90648c0,-9.98512 8.09456,-18.07971 18.07972,-18.07971c9.98512,0 18.07971,8.09455 18.07971,18.07971c0,9.98512 -8.09456,18.07972 -18.07971,18.07972c-9.98512,0 -18.07972,-8.09456 -18.07972,-18.07972z" fill="url(#color-55)" stroke="none" stroke-width="0.5" stroke-linecap="butt"/><path d="M225.13298,103.90648c0,-8.2108 6.65619,-14.86702 14.86703,-14.86702c8.2108,0 14.86703,6.65618 14.86703,14.86702c0,8.2108 -6.65619,14.86703 -14.86703,14.86703c-8.2108,0 -14.86703,-6.65619 -14.86703,-14.86703z" fill="url(#color-56)" stroke="none" stroke-width="0.5" stroke-linecap="butt"/><path d="M209.18751,120.20834v-32.5h4.25v32.5z" fill="url(#color-57)" stroke="url(#color-58)" stroke-width="0" stroke-linecap="butt"/><path d="M266.68751,120.20834v-32.5h4.25v32.5z" fill="url(#color-59)" stroke="url(#color-60)" stroke-width="0" stroke-linecap="butt"/><path d="M209.07144,120.35407l3.42857,-17.06832l3.28572,17.06832l4.42857,-16.91925l4.42857,16.84472l7.71429,-16.84472l7.42857,16.91925l6.57143,-16.84472l7.42857,16.77018l5,-16.77018l5.42857,16.91925l3.42857,-16.84472l3.28571,16.69565" fill="none" stroke="url(#color-61)" stroke-width="0.5" stroke-linecap="round"/><path d="M270.92858,103.43479l-3.28571,16.69565l-3.42857,-16.84472l-5.42857,16.91925l-5,-16.77018l-7.42857,16.77018l-6.57143,-16.84472l-7.42857,16.91925l-7.71429,-16.84472l-4.42857,16.84472l-4.42857,-16.91925l-3.28572,17.06832l-3.42857,-17.06832" data-paper-data="{&quot;index&quot;:null}" fill="none" stroke="url(#color-62)" stroke-width="0.5" stroke-linecap="round"/><path d="M209.2143,103.92547l3.42857,-17.06832l3.28572,17.06832l4.42857,-16.91925l4.42857,16.84472l7.71429,-16.84472l7.42857,16.91925l6.57143,-16.84472l7.42857,16.77019l5,-16.77019l5.42857,16.91926l3.42857,-16.84472l3.28571,16.69565" fill="none" stroke="url(#color-63)" stroke-width="0.5" stroke-linecap="round"/><path d="M271.07142,87.00624l-3.28571,16.69565l-3.42857,-16.84472l-5.42857,16.91925l-5,-16.77018l-7.42857,16.77018l-6.57143,-16.84472l-7.42857,16.91925l-7.71429,-16.84472l-4.42857,16.84472l-4.42857,-16.91925l-3.28572,17.06832l-3.42857,-17.06832" data-paper-data="{&quot;index&quot;:null}" fill="none" stroke="url(#color-64)" stroke-width="0.5" stroke-linecap="round"/><path d="M208.45975,124.16873v-3.66666h62.5v3.66666z" fill="url(#color-65)" stroke="url(#color-66)" stroke-width="0.5" stroke-linecap="butt"/><path d="M208.74547,87.5973v-3.66666h62.5v3.66666z" fill="url(#color-67)" stroke="url(#color-68)" stroke-width="0.5" stroke-linecap="butt"/></g></g></g></svg>