<svg version="1.1" xmlns="http://www.w3.org/2000/svg" xmlns:xlink="http://www.w3.org/1999/xlink" width="36.80001" height="36.80002" viewBox="0,0,36.80001,36.80002"><defs><radialGradient cx="240.00002" cy="180" r="18.4" gradientUnits="userSpaceOnUse" id="color-1"><stop offset="0" stop-color="#000000"/><stop offset="1" stop-color="#000000" stop-opacity="0"/></radialGradient><linearGradient x1="240.00002" y1="161.59999" x2="240.00002" y2="198.4" gradientUnits="userSpaceOnUse" id="color-2"><stop offset="0" stop-color="#7f8782"/><stop offset="1" stop-color="#404543"/></linearGradient><radialGradient cx="240.00001" cy="180.00001" r="14.41334" gradientUnits="userSpaceOnUse" id="color-3"><stop offset="0" stop-color="#344848"/><stop offset="1" stop-color="#0f241d"/></radialGradient><linearGradient x1="240.00001" y1="165.58665" x2="240.00001" y2="194.41334" gradientUnits="userSpaceOnUse" id="color-4"><stop offset="0" stop-color="#6fa08f"/><stop offset="1" stop-color="#456b5a"/></linearGradient><linearGradient x1="239.99869" y1="179.74117" x2="240.0013" y2="180.25883" gradientUnits="userSpaceOnUse" id="color-5"><stop offset="0" stop-color="#b0ffe3"/><stop offset="1" stop-color="#8fffc7"/></linearGradient><linearGradient x1="239.98127" y1="169.43992" x2="240.01872" y2="190.56008" gradientUnits="userSpaceOnUse" id="color-6"><stop offset="0" stop-color="#b0ffe3"/><stop offset="1" stop-color="#8fffc7"/></linearGradient></defs><g transform="translate(-221.6,-161.59999)"><g data-paper-data="{&quot;isPaintingLayer&quot;:true}" fill-rule="nonzero" stroke-linejoin="miter" stroke-miterlimit="10" stroke-dasharray="" stroke-dashoffset="0" style="mix-blend-mode: normal"><path d="M258.40002,180c0,10.16205 -8.23797,18.40001 -18.4,18.40001c-10.16205,0 -18.40001,-8.23797 -18.40001,-18.40001c0,-10.16205 8.23796,-18.40001 18.40001,-18.40001c10.16205,0 18.4,8.23797 18.4,18.40001z" fill="url(#color-1)" stroke="url(#color-2)" stroke-width="0" stroke-linecap="butt"/><path d="M254.41334,180.00001c0,7.96027 -6.45307,14.41334 -14.41334,14.41334c-7.96027,0 -14.41334,-6.45307 -14.41334,-14.41334c0,-7.96027 6.45307,-14.41334 14.41334,-14.41334c7.96027,0 14.41334,6.45307 14.41334,14.41334z" fill="url(#color-3)" stroke="url(#color-4)" stroke-width="3" stroke-linecap="butt"/><path d="M229.43935,179.91497l21.1213,0.17005" fill="none" stroke="url(#color-5)" stroke-width="3" stroke-linecap="round"/><path d="M239.9152,190.56026l0.16961,-21.12052" fill="none" stroke="url(#color-6)" stroke-width="3" stroke-linecap="round"/></g></g></svg>