<svg version="1.1" xmlns="http://www.w3.org/2000/svg" xmlns:xlink="http://www.w3.org/1999/xlink" width="66.31186" height="68.88766" viewBox="0,0,66.31186,68.88766"><defs><linearGradient x1="284.9" y1="242.06666" x2="290.1" y2="242.06666" gradientUnits="userSpaceOnUse" id="color-1"><stop offset="0" stop-color="#525252"/><stop offset="1" stop-color="#363636"/></linearGradient><linearGradient x1="284.9" y1="242.06666" x2="290.1" y2="242.06666" gradientUnits="userSpaceOnUse" id="color-2"><stop offset="0" stop-color="#1f1f1f"/><stop offset="1" stop-color="#000000"/></linearGradient><linearGradient x1="237.34164" y1="247.34992" x2="301.51049" y2="247.34992" gradientUnits="userSpaceOnUse" id="color-3"><stop offset="0" stop-color="#2f2f2f"/><stop offset="1" stop-color="#040404"/></linearGradient><linearGradient x1="237.34164" y1="247.34992" x2="301.51049" y2="247.34992" gradientUnits="userSpaceOnUse" id="color-4"><stop offset="0" stop-color="#1f1f1f"/><stop offset="1" stop-color="#000000"/></linearGradient><linearGradient x1="259.3" y1="229.73333" x2="279.7" y2="229.73333" gradientUnits="userSpaceOnUse" id="color-5"><stop offset="0" stop-color="#444444"/><stop offset="1" stop-color="#252525"/></linearGradient><linearGradient x1="252.7" y1="242.80392" x2="285.5" y2="242.80392" gradientUnits="userSpaceOnUse" id="color-6"><stop offset="0" stop-color="#444444"/><stop offset="1" stop-color="#252525"/></linearGradient><linearGradient x1="247.16342" y1="257.23292" x2="291.19756" y2="257.23292" gradientUnits="userSpaceOnUse" id="color-7"><stop offset="0" stop-color="#444444"/><stop offset="1" stop-color="#252525"/></linearGradient><linearGradient x1="241.3" y1="271.60392" x2="297.3" y2="271.60392" gradientUnits="userSpaceOnUse" id="color-8"><stop offset="0" stop-color="#444444"/><stop offset="1" stop-color="#252525"/></linearGradient><linearGradient x1="279.89787" y1="225.01766" x2="296.10093" y2="225.01766" gradientUnits="userSpaceOnUse" id="color-9"><stop offset="0" stop-color="#b2b2b2"/><stop offset="1" stop-color="#363636"/></linearGradient><linearGradient x1="279.89787" y1="225.01766" x2="296.10093" y2="225.01766" gradientUnits="userSpaceOnUse" id="color-10"><stop offset="0" stop-color="#1f1f1f"/><stop offset="1" stop-color="#000000"/></linearGradient><linearGradient x1="262.73366" y1="216.04797" x2="276.61103" y2="216.04797" gradientUnits="userSpaceOnUse" id="color-11"><stop offset="0" stop-color="#525252"/><stop offset="1" stop-color="#2e2e2e"/></linearGradient><linearGradient x1="262.73366" y1="216.04797" x2="276.61103" y2="216.04797" gradientUnits="userSpaceOnUse" id="color-12"><stop offset="0" stop-color="#1f1f1f"/><stop offset="1" stop-color="#000000"/></linearGradient></defs><g transform="translate(-236.26377,-211.29797)"><g data-paper-data="{&quot;isPaintingLayer&quot;:true}" fill-rule="nonzero" stroke-linejoin="miter" stroke-miterlimit="10" stroke-dasharray="" stroke-dashoffset="0" style="mix-blend-mode: normal"><path d="M284.9,250.66666v-17.2h5.2v17.2z" fill="url(#color-1)" stroke="url(#color-2)" stroke-width="1.5" stroke-linecap="butt"/><path d="M237.34164,279.43563c0,0 23.96029,-64.63938 32.08881,-64.16885c9.29886,0.53827 32.08004,64.16885 32.08004,64.16885z" fill="url(#color-3)" stroke="url(#color-4)" stroke-width="1.5" stroke-linecap="butt"/><path d="M259.3,229.73333h20.4" fill="none" stroke="url(#color-5)" stroke-width="4.5" stroke-linecap="round"/><path d="M285.5,242.80392h-32.8" fill="none" stroke="url(#color-6)" stroke-width="4.5" stroke-linecap="round"/><path d="M247.16342,257.23292h44.03415" fill="none" stroke="url(#color-7)" stroke-width="4.5" stroke-linecap="round"/><path d="M297.3,271.60392h-56" fill="none" stroke="url(#color-8)" stroke-width="4.5" stroke-linecap="round"/><path d="M296.10093,225.01766c-0.06063,7.61853 -0.25257,8.43369 -8.10153,8.35295c-7.85147,-0.08077 -8.19893,-1.11312 -8.10153,-8.35295c0.10754,-7.99323 0.08469,-8.54885 8.10153,-8.35295c7.68121,0.18771 8.16811,-0.01299 8.10153,8.35295z" fill="url(#color-9)" stroke="url(#color-10)" stroke-width="1.5" stroke-linecap="butt"/><path d="M262.73366,212.04797h13.87737c0,0 -0.03132,3.94065 -0.21398,5.35939c-0.15666,1.2168 -0.81599,2.64061 -0.81599,2.64061h-11.92587c0,0 -0.50265,-1.51057 -0.63741,-2.6805c-0.1659,-1.44017 -0.28413,-5.3195 -0.28413,-5.3195z" fill="url(#color-11)" stroke="url(#color-12)" stroke-width="1.5" stroke-linecap="butt"/></g></g></svg>