<svg version="1.1" xmlns="http://www.w3.org/2000/svg" xmlns:xlink="http://www.w3.org/1999/xlink" width="182.98292" height="188.00378" viewBox="0,0,182.98292,188.00378"><defs><radialGradient cx="240.47308" cy="179.04225" r="92.93912" gradientUnits="userSpaceOnUse" id="color-1"><stop offset="0" stop-color="#bc957e"/><stop offset="1" stop-color="#33291e"/></radialGradient><radialGradient cx="239.99993" cy="180" r="91.49146" gradientUnits="userSpaceOnUse" id="color-2"><stop offset="0" stop-color="#525887" stop-opacity="0.35417"/><stop offset="1" stop-color="#525887" stop-opacity="0"/></radialGradient><radialGradient cx="239.99993" cy="180" r="74.27781" gradientUnits="userSpaceOnUse" id="color-3"><stop offset="0" stop-color="#7e90eb" stop-opacity="0.67834"/><stop offset="1" stop-color="#7e90eb" stop-opacity="0"/></radialGradient><radialGradient cx="239.99993" cy="180" r="62.88228" gradientUnits="userSpaceOnUse" id="color-4"><stop offset="0" stop-color="#9bc8ff"/><stop offset="1" stop-color="#9bc8ff" stop-opacity="0"/></radialGradient><radialGradient cx="239.99993" cy="180" r="51.70837" gradientUnits="userSpaceOnUse" id="color-5"><stop offset="0" stop-color="#1b76ff"/><stop offset="1" stop-color="#4a89ff"/></radialGradient><radialGradient cx="240.08053" cy="180.35403" r="93.75289" gradientUnits="userSpaceOnUse" id="color-6"><stop offset="0" stop-color="#080504"/><stop offset="1" stop-color="#21150d"/></radialGradient></defs><g transform="translate(-148.50854,-86.10314)"><g data-paper-data="{&quot;isPaintingLayer&quot;:true}" fill-rule="nonzero" stroke-linecap="butt" stroke-linejoin="miter" stroke-miterlimit="10" stroke-dasharray="" stroke-dashoffset="0" style="mix-blend-mode: normal"><path d="M289.40164,89.35836c0,0 0.80501,29.99271 -36.05841,106.69847c-31.69956,65.96074 -51.78035,75.92451 -51.78035,75.92451l-10.01979,-1.1637c0,0 36.74398,-44.04506 52.50395,-79.17995c19.70086,-43.92067 34.63776,-105.53455 34.63776,-105.53455z" data-paper-data="{&quot;index&quot;:null}" fill="url(#color-1)" stroke="#676767" stroke-width="0"/><path d="M148.50854,180c0,-50.52922 40.9621,-91.49146 91.49146,-91.49146c50.52922,0 91.49146,40.9621 91.49146,91.49146c0,50.52922 -40.96211,91.49146 -91.49146,91.49146c-50.52922,0 -91.49146,-40.96211 -91.49146,-91.49146z" fill="url(#color-2)" stroke="none" stroke-width="0.5"/><path d="M165.72213,180c0,-41.02232 33.25527,-74.2778 74.2778,-74.2778c41.02233,0 74.27781,33.25527 74.27781,74.27781c0,41.02232 -33.25527,74.27781 -74.2778,74.27781c-41.02232,0 -74.2778,-33.25527 -74.2778,-74.2778z" fill="url(#color-3)" stroke="none" stroke-width="0.5"/><path d="M177.11765,180c0,-34.72881 28.15333,-62.88228 62.88228,-62.88228c34.72881,0 62.88228,28.15333 62.88228,62.88228c0,34.72881 -28.15333,62.88228 -62.88228,62.88228c-34.72881,0 -62.88228,-28.15333 -62.88228,-62.88228z" fill="url(#color-4)" stroke="none" stroke-width="0.5"/><path d="M188.29163,180c0,-28.55764 23.1506,-51.70837 51.70837,-51.70837c28.55764,0 51.70837,23.1506 51.70837,51.70837c0,28.55764 -23.1506,51.70837 -51.70837,51.70837c-28.55764,0 -51.70837,-23.1506 -51.70837,-51.70837z" data-paper-data="{&quot;index&quot;:null}" fill="url(#color-5)" stroke="none" stroke-width="0.5"/><path d="M190.79068,270.82318c0,0 -4.12151,-31.08286 33.06468,-108.46026c31.97713,-66.5383 55.54318,-75.76178 55.54318,-75.76178l10.10752,1.17391c0,0 -32.51531,47.32675 -48.41327,82.76928c-19.87338,44.30525 -39.49143,103.56261 -39.49143,103.56261z" fill="url(#color-6)" stroke="#676767" stroke-width="0"/></g></g></svg>