<svg version="1.1" xmlns="http://www.w3.org/2000/svg" xmlns:xlink="http://www.w3.org/1999/xlink" width="103.98146" height="47.52609" viewBox="0,0,103.98146,47.52609"><defs><linearGradient x1="240" y1="157.48689" x2="240" y2="202.51304" gradientUnits="userSpaceOnUse" id="color-1"><stop offset="0" stop-color="#854c4c"/><stop offset="1" stop-color="#b38036"/></linearGradient><linearGradient x1="240" y1="157.48689" x2="240" y2="202.51304" gradientUnits="userSpaceOnUse" id="color-2"><stop offset="0" stop-color="#ffc4c4"/><stop offset="1" stop-color="#ffe8ad"/></linearGradient><radialGradient cx="271.19754" cy="187.82103" r="12.53846" gradientUnits="userSpaceOnUse" id="color-3"><stop offset="0" stop-color="#494949"/><stop offset="1" stop-color="#1b1b1b"/></radialGradient><linearGradient x1="271.19754" y1="185.2382" x2="271.19754" y2="190.40386" gradientUnits="userSpaceOnUse" id="color-4"><stop offset="0" stop-color="#353535"/><stop offset="1" stop-color="#191919"/></linearGradient><linearGradient x1="276.71706" y1="184.73593" x2="277.89576" y2="184.53758" gradientUnits="userSpaceOnUse" id="color-5"><stop offset="0" stop-color="#8a8a8a"/><stop offset="1" stop-color="#535353"/></linearGradient><linearGradient x1="277.16012" y1="183.59411" x2="277.45269" y2="185.67939" gradientUnits="userSpaceOnUse" id="color-6"><stop offset="0" stop-color="#353535"/><stop offset="1" stop-color="#191919"/></linearGradient><linearGradient x1="265.7355" y1="184.60198" x2="264.5568" y2="184.40362" gradientUnits="userSpaceOnUse" id="color-7"><stop offset="0" stop-color="#8a8a8a"/><stop offset="1" stop-color="#535353"/></linearGradient><linearGradient x1="265.29243" y1="183.46016" x2="264.99986" y2="185.54544" gradientUnits="userSpaceOnUse" id="color-8"><stop offset="0" stop-color="#353535"/><stop offset="1" stop-color="#191919"/></linearGradient><radialGradient cx="271.32964" cy="178.59618" r="13.50724" gradientUnits="userSpaceOnUse" id="color-9"><stop offset="0" stop-color="#735d45" stop-opacity="0.40995"/><stop offset="1" stop-color="#735d45" stop-opacity="0"/></radialGradient><radialGradient cx="271.32964" cy="178.54814" r="10.96592" gradientUnits="userSpaceOnUse" id="color-10"><stop offset="0" stop-color="#ebc173" stop-opacity="0.60996"/><stop offset="1" stop-color="#ebc173" stop-opacity="0"/></radialGradient><radialGradient cx="271.32964" cy="178.54814" r="9.28356" gradientUnits="userSpaceOnUse" id="color-11"><stop offset="0" stop-color="#ffb64f" stop-opacity="0"/><stop offset="1" stop-color="#ffb64f" stop-opacity="0.08997"/></radialGradient><radialGradient cx="271.32964" cy="178.54814" r="7.63391" gradientUnits="userSpaceOnUse" id="color-12"><stop offset="0" stop-color="#ffde82" stop-opacity="0.1119"/><stop offset="1" stop-color="#ffe18f"/></radialGradient><radialGradient cx="267.73238" cy="189.58597" r="12.62259" gradientUnits="userSpaceOnUse" id="color-13"><stop offset="0" stop-color="#8a8a8a"/><stop offset="1" stop-color="#535353"/></radialGradient><linearGradient x1="271.2333" y1="187.67765" x2="271.2333" y2="195.08641" gradientUnits="userSpaceOnUse" id="color-14"><stop offset="0" stop-color="#353535"/><stop offset="1" stop-color="#191919"/></linearGradient><linearGradient x1="270.29679" y1="189.11474" x2="272.17035" y2="189.11474" gradientUnits="userSpaceOnUse" id="color-15"><stop offset="0" stop-color="#8a8a8a"/><stop offset="1" stop-color="#535353"/></linearGradient><linearGradient x1="271.23357" y1="187.60148" x2="271.23357" y2="190.628" gradientUnits="userSpaceOnUse" id="color-16"><stop offset="0" stop-color="#353535"/><stop offset="1" stop-color="#191919"/></linearGradient><linearGradient x1="279.85274" y1="186.94822" x2="281.70457" y2="186.66367" gradientUnits="userSpaceOnUse" id="color-17"><stop offset="0" stop-color="#8a8a8a"/><stop offset="1" stop-color="#535353"/></linearGradient><linearGradient x1="280.54883" y1="185.31024" x2="281.00848" y2="188.30165" gradientUnits="userSpaceOnUse" id="color-18"><stop offset="0" stop-color="#353535"/><stop offset="1" stop-color="#191919"/></linearGradient><linearGradient x1="262.59981" y1="186.75606" x2="260.74799" y2="186.47151" gradientUnits="userSpaceOnUse" id="color-19"><stop offset="0" stop-color="#8a8a8a"/><stop offset="1" stop-color="#535353"/></linearGradient><linearGradient x1="261.90373" y1="185.11807" x2="261.44407" y2="188.10949" gradientUnits="userSpaceOnUse" id="color-20"><stop offset="0" stop-color="#353535"/><stop offset="1" stop-color="#191919"/></linearGradient><radialGradient cx="267.7499" cy="193.63556" r="0.71789" gradientUnits="userSpaceOnUse" id="color-21"><stop offset="0" stop-color="#fff22e"/><stop offset="1" stop-color="#ffbc00"/></radialGradient><radialGradient cx="271.29148" cy="193.91345" r="0.71789" gradientUnits="userSpaceOnUse" id="color-22"><stop offset="0" stop-color="#fff22e"/><stop offset="1" stop-color="#ffbc00"/></radialGradient><radialGradient cx="274.58914" cy="193.68187" r="0.71789" gradientUnits="userSpaceOnUse" id="color-23"><stop offset="0" stop-color="#fff22e"/><stop offset="1" stop-color="#ffbc00"/></radialGradient><radialGradient cx="278.07736" cy="193.16929" r="0.71807" gradientUnits="userSpaceOnUse" id="color-24"><stop offset="0" stop-color="#fff22e"/><stop offset="1" stop-color="#ffbc00"/></radialGradient><radialGradient cx="281.04143" cy="192.19335" r="0.71807" gradientUnits="userSpaceOnUse" id="color-25"><stop offset="0" stop-color="#fff22e"/><stop offset="1" stop-color="#ffbc00"/></radialGradient><radialGradient cx="283.68506" cy="191.32291" r="0.71807" gradientUnits="userSpaceOnUse" id="color-26"><stop offset="0" stop-color="#fff22e"/><stop offset="1" stop-color="#ffbc00"/></radialGradient><radialGradient cx="264.50188" cy="193.07666" r="0.71807" gradientUnits="userSpaceOnUse" id="color-27"><stop offset="0" stop-color="#fff22e"/><stop offset="1" stop-color="#ffbc00"/></radialGradient><radialGradient cx="261.53781" cy="192.10072" r="0.71807" gradientUnits="userSpaceOnUse" id="color-28"><stop offset="0" stop-color="#fff22e"/><stop offset="1" stop-color="#ffbc00"/></radialGradient><radialGradient cx="258.89418" cy="191.23028" r="0.71807" gradientUnits="userSpaceOnUse" id="color-29"><stop offset="0" stop-color="#fff22e"/><stop offset="1" stop-color="#ffbc00"/></radialGradient><radialGradient cx="256.34956" cy="189.9066" r="6.9703" gradientUnits="userSpaceOnUse" id="color-30"><stop offset="0" stop-color="#afafaf"/><stop offset="1" stop-color="#6f6f6f"/></radialGradient><linearGradient x1="257.78235" y1="186.72875" x2="257.78235" y2="198.40248" gradientUnits="userSpaceOnUse" id="color-31"><stop offset="0" stop-color="#353535"/><stop offset="1" stop-color="#191919"/></linearGradient><radialGradient cx="257.02572" cy="189.7913" r="3.42286" gradientUnits="userSpaceOnUse" id="color-32"><stop offset="0" stop-color="#373737"/><stop offset="1" stop-color="#171717"/></radialGradient><linearGradient x1="257.85441" y1="187.77362" x2="257.85441" y2="193.97079" gradientUnits="userSpaceOnUse" id="color-33"><stop offset="0" stop-color="#353535"/><stop offset="1" stop-color="#191919"/></linearGradient></defs><g transform="translate(-188.00927,-156.23695)"><g data-paper-data="{&quot;isPaintingLayer&quot;:true}" fill-rule="nonzero" stroke-linecap="butt" stroke-linejoin="miter" stroke-miterlimit="10" stroke-dasharray="" stroke-dashoffset="0" style="mix-blend-mode: normal"><path d="M189.25927,202.51304v-45.02609h101.48146v45.02609z" fill="url(#color-1)" stroke="url(#color-2)" stroke-width="2.5"/><path d="M271.2696,190.6921c-6.9248,0 -12.61053,-1.44461 -12.61053,-2.87107c0,-1.42646 5.61366,-2.58283 12.53847,-2.58283c6.9248,0 12.53846,1.15637 12.53846,2.58283c0,1.42646 -5.5416,2.87107 -12.4664,2.87107z" fill="url(#color-3)" stroke="url(#color-4)" stroke-width="0.5"/><path d="M277.49796,186.11223l-0.92719,-2.41894l0.56731,-0.36651l1.28057,2.29171z" fill="url(#color-5)" stroke="url(#color-6)" stroke-width="0.5"/><path d="M264.0339,185.48453l1.28057,-2.29171l0.56731,0.36652l-0.92718,2.41894z" data-paper-data="{&quot;index&quot;:null}" fill="url(#color-7)" stroke="url(#color-8)" stroke-width="0.5"/><path d="M257.82241,178.59618c0,-7.45982 6.0474,-13.50724 13.50724,-13.50724c7.45983,0 13.50724,6.04739 13.50724,13.50724c0,7.45982 -6.04739,13.50724 -13.50724,13.50724c-7.45983,0 -13.50724,-6.04739 -13.50724,-13.50724z" fill="url(#color-9)" stroke="none" stroke-width="0.5"/><path d="M260.36372,178.54814c0,-6.05629 4.9096,-10.96592 10.96592,-10.96592c6.05629,0 10.96592,4.90961 10.96592,10.96592c0,6.05629 -4.90961,10.96592 -10.96592,10.96592c-6.05629,0 -10.96592,-4.9096 -10.96592,-10.96592z" fill="url(#color-10)" stroke="none" stroke-width="0.5"/><path d="M262.04609,178.54814c0,-5.12715 4.15639,-9.28356 9.28355,-9.28356c5.12715,0 9.28356,4.15639 9.28356,9.28356c0,5.12715 -4.15639,9.28356 -9.28356,9.28356c-5.12715,0 -9.28355,-4.15638 -9.28355,-9.28356z" fill="url(#color-11)" stroke="none" stroke-width="0.5"/><path d="M263.69575,178.54814c0,-4.21607 3.41781,-7.63391 7.63391,-7.63391c4.21607,0 7.63391,3.41781 7.63391,7.63391c0,4.21607 -3.41781,7.63391 -7.63391,7.63391c-4.21607,0 -7.63391,-3.41782 -7.63391,-7.63391z" fill="url(#color-12)" stroke="none" stroke-width="0.5"/><path d="M257.32597,195.08641l1.28474,-7.40876c0,0 5.88306,2.97473 12.91165,2.97473c6.78235,0 12.33352,-2.97473 12.33352,-2.97473l1.47745,7.35263c0,0 -0.91716,2.65665 -13.49945,2.76621c-12.84652,0.11185 -14.50792,-2.71008 -14.50792,-2.71008z" fill="url(#color-13)" stroke="url(#color-14)" stroke-width="0.5"/><path d="M270.29679,190.628v-3.02652h1.87356v3.02652z" fill="url(#color-15)" stroke="url(#color-16)" stroke-width="0.5"/><path d="M281.07959,188.92258l-1.45668,-3.47007l0.89128,-0.52578l2.01188,3.28754z" fill="url(#color-17)" stroke="url(#color-18)" stroke-width="0.5"/><path d="M259.92648,188.02211l2.01188,-3.28755l0.89128,0.52579l-1.45667,3.47007z" data-paper-data="{&quot;index&quot;:null}" fill="url(#color-19)" stroke="url(#color-20)" stroke-width="0.5"/><g stroke="none" stroke-width="0.5"><path d="M267.03201,193.63556c0,-0.39648 0.32141,-0.71789 0.71789,-0.71789c0.39648,0 0.71789,0.32141 0.71789,0.71789c0,0.39648 -0.32141,0.71789 -0.71789,0.71789c-0.39648,0 -0.71789,-0.32141 -0.71789,-0.71789z" fill="url(#color-21)"/><path d="M270.5736,193.91345c0,-0.39648 0.3214,-0.71789 0.71788,-0.71789c0.39648,0 0.71789,0.32141 0.71789,0.71789c0,0.39648 -0.32141,0.71789 -0.71789,0.71789c-0.39648,0 -0.71788,-0.32141 -0.71788,-0.71789z" fill="url(#color-22)"/><path d="M273.87125,193.68187c0,-0.39648 0.32141,-0.71788 0.71789,-0.71788c0.39648,0 0.71789,0.3214 0.71789,0.71788c0,0.39648 -0.32141,0.71789 -0.71789,0.71789c-0.39648,0 -0.71789,-0.32141 -0.71789,-0.71789z" fill="url(#color-23)"/><path d="M277.47654,193.36711c-0.09512,-0.38112 0.09676,-0.77865 0.42858,-0.88791c0.33182,-0.10925 0.67794,0.11114 0.77306,0.49227c0.09512,0.38112 -0.09677,0.77866 -0.42859,0.88792c-0.33182,0.10925 -0.67793,-0.11114 -0.77306,-0.49227z" fill="url(#color-24)"/><path d="M280.4406,192.39117c-0.09512,-0.38112 0.09677,-0.77866 0.42859,-0.88792c0.33182,-0.10925 0.67793,0.11114 0.77306,0.49227c0.09512,0.38112 -0.09676,0.77866 -0.42858,0.88792c-0.33182,0.10925 -0.67794,-0.11114 -0.77306,-0.49227z" fill="url(#color-25)"/><path d="M283.08423,191.52073c-0.09512,-0.38112 0.09677,-0.77866 0.42859,-0.88791c0.33182,-0.10925 0.67793,0.11114 0.77306,0.49227c0.09512,0.38112 -0.09677,0.77867 -0.42859,0.88792c-0.33182,0.10925 -0.67794,-0.11115 -0.77306,-0.49227z" fill="url(#color-26)"/><path d="M264.32964,193.76675c-0.33182,-0.10925 -0.52371,-0.5068 -0.42859,-0.88792c0.09512,-0.38112 0.44124,-0.60152 0.77306,-0.49227c0.33182,0.10925 0.52371,0.5068 0.42859,0.88792c-0.09512,0.38112 -0.44124,0.60152 -0.77306,0.49227z" data-paper-data="{&quot;index&quot;:null}" fill="url(#color-27)"/><path d="M261.36557,192.79081c-0.33182,-0.10925 -0.52371,-0.5068 -0.42859,-0.88792c0.09512,-0.38112 0.44124,-0.60152 0.77306,-0.49227c0.33182,0.10925 0.52371,0.5068 0.42858,0.88792c-0.09512,0.38112 -0.44124,0.60153 -0.77306,0.49227z" data-paper-data="{&quot;index&quot;:null}" fill="url(#color-28)"/><path d="M258.72194,191.92037c-0.33182,-0.10925 -0.52372,-0.50679 -0.42859,-0.88792c0.09512,-0.38112 0.44124,-0.60153 0.77307,-0.49227c0.33182,0.10925 0.52371,0.50679 0.42858,0.88792c-0.09512,0.38112 -0.44124,0.60153 -0.77306,0.49227z" data-paper-data="{&quot;index&quot;:null}" fill="url(#color-29)"/></g><path d="M253.63889,198.40248v-11.67374h8.28692v11.67374z" fill="url(#color-30)" stroke="url(#color-31)" stroke-width="0.5"/><path d="M254.43155,193.97079v-6.19717h6.84572v6.19717z" fill="url(#color-32)" stroke="url(#color-33)" stroke-width="0.5"/><text transform="translate(255.22421,189.76968) scale(0.02816,0.02816)" font-size="40" xml:space="preserve" fill="#ffde00" fill-rule="nonzero" stroke="none" stroke-width="1" stroke-linecap="butt" stroke-linejoin="miter" stroke-miterlimit="10" stroke-dasharray="" stroke-dashoffset="0" font-family="Pixel" font-weight="normal" text-anchor="start" style="mix-blend-mode: normal"><tspan x="0" dy="0">LEVEL 5</tspan></text><text transform="translate(255.08009,191.35501) scale(0.02816,0.02816)" font-size="40" xml:space="preserve" fill="#01ff00" fill-rule="nonzero" stroke="none" stroke-width="1" stroke-linecap="butt" stroke-linejoin="miter" stroke-miterlimit="10" stroke-dasharray="" stroke-dashoffset="0" font-family="Pixel" font-weight="normal" text-anchor="start" style="mix-blend-mode: normal"><tspan x="0" dy="0">STATUS: </tspan><tspan x="0" dy="48px">READY</tspan></text><text transform="translate(192.41375,168.46872) scale(0.26492,0.26492)" font-size="40" xml:space="preserve" fill="#ffffff" fill-rule="nonzero" stroke="none" stroke-width="1" stroke-linecap="butt" stroke-linejoin="miter" stroke-miterlimit="10" stroke-dasharray="" stroke-dashoffset="0" font-family="Serif" font-weight="normal" text-anchor="start" style="mix-blend-mode: normal"><tspan x="0" dy="0">Warp Gate Upgrade</tspan></text><text transform="translate(192.65829,175.44393) scale(0.15979,0.15979)" font-size="40" xml:space="preserve" fill="#ffffff" fill-rule="nonzero" stroke="none" stroke-width="1" stroke-linecap="butt" stroke-linejoin="miter" stroke-miterlimit="10" stroke-dasharray="" stroke-dashoffset="0" font-family="Serif" font-weight="normal" text-anchor="start" style="mix-blend-mode: normal"><tspan x="0" dy="0">(MAX LEVEL)</tspan></text></g></g></svg>