<svg version="1.1" xmlns="http://www.w3.org/2000/svg" xmlns:xlink="http://www.w3.org/1999/xlink" width="48.37767" height="52.60439" viewBox="0,0,48.37767,52.60439"><defs><linearGradient x1="240.00002" y1="154.94782" x2="240.00002" y2="205.05219" gradientUnits="userSpaceOnUse" id="color-1"><stop offset="0" stop-color="#738392"/><stop offset="1" stop-color="#40434b"/></linearGradient><linearGradient x1="240.05355" y1="180.51551" x2="240.05355" y2="186.75001" gradientUnits="userSpaceOnUse" id="color-2"><stop offset="0" stop-color="#4f6d73"/><stop offset="1" stop-color="#86b9c2"/></linearGradient><radialGradient cx="236.3807" cy="160.86976" r="11.93775" gradientUnits="userSpaceOnUse" id="color-3"><stop offset="0" stop-color="#7bccb1"/><stop offset="1" stop-color="#618c94"/></radialGradient><linearGradient x1="240.00003" y1="154.94783" x2="240.00003" y2="205.0522" gradientUnits="userSpaceOnUse" id="color-4"><stop offset="0" stop-color="#001626"/><stop offset="1" stop-color="#00181f"/></linearGradient></defs><g transform="translate(-215.81118,-153.69781)"><g data-paper-data="{&quot;isPaintingLayer&quot;:true}" fill-rule="nonzero" stroke-linecap="butt" stroke-linejoin="miter" stroke-miterlimit="10" stroke-dasharray="" stroke-dashoffset="0" style="mix-blend-mode: normal"><path d="M217.06118,205.05219v-50.10439h45.87767v50.10439z" fill="url(#color-1)" stroke="none" stroke-width="0"/><g stroke="#000000" stroke-width="0"><path d="" fill="#453d36"/><path d="" data-paper-data="{&quot;index&quot;:null}" fill="#141415"/><path d="" data-paper-data="{&quot;index&quot;:null}" fill="#252527"/></g><g stroke="#000000" stroke-width="0"><path d="" fill="#453d36"/><path d="" data-paper-data="{&quot;index&quot;:null}" fill="#141415"/><path d="" data-paper-data="{&quot;index&quot;:null}" fill="#252527"/></g><path d="M222.14904,201.51491c0.67077,-6.34054 0.79342,-12.33551 0.79342,-12.33551l5.17024,1.32996c0,0 -0.85856,10.90179 -1.24549,13.91207c-0.86306,-0.2386 -1.77226,-0.36609 -2.71124,-0.36609c-0.81135,0 -1.60046,0.09518 -2.35678,0.27499c0.13077,-0.93436 0.25092,-1.88026 0.34985,-2.81542z" data-paper-data="{&quot;index&quot;:null}" fill="#6b999c" stroke="#000000" stroke-width="0"/><path d="M251.59022,190.80579l5.17024,-1.32996c0,0 0.12264,5.99497 0.79342,12.33551c0.11768,1.11235 0.26538,2.23988 0.42525,3.34512c-0.92643,-0.13124 -1.88017,-0.20366 -2.83688,-0.24085c-0.63579,-0.14105 -1.42105,-0.23965 -2.31999,-0.30395c-0.39299,-3.15169 -1.23205,-13.80587 -1.23205,-13.80587z" data-paper-data="{&quot;index&quot;:null}" fill="#6b999c" stroke="#000000" stroke-width="0"/><path d="M229.30717,188.87317c-0.23125,1.78544 0.34453,2.17158 -3.9408,1.33354c-5.07006,-0.9915 -3.38689,-0.46723 -3.15564,-2.25267c0.23125,-1.78544 0.98902,-4.99176 6.51623,-3.88617c2.87849,0.57578 0.81145,3.01985 0.5802,4.80529z" fill="#374a50" stroke="#000000" stroke-width="0"/><path d="M250.93612,184.24041c5.52721,-1.10559 6.28498,2.10073 6.51623,3.88617c0.23125,1.78544 1.91443,1.26117 -3.15563,2.25267c-4.28533,0.83804 -3.70955,0.4519 -3.9408,-1.33354c-0.23125,-1.78544 -2.29831,-4.22952 0.58019,-4.80529z" data-paper-data="{&quot;index&quot;:null}" fill="#374a50" stroke="#000000" stroke-width="0"/><path d="M236.56997,186.75001v-6.23449h6.96714v6.23449z" fill="url(#color-2)" stroke="#000000" stroke-width="0"/><path d="M230.53418,204.7028c-0.32139,-3.32923 -1.27831,-6.3329 -1.42108,-8.60264c-0.26797,-4.26004 -0.19156,-12.17791 -0.19156,-12.17791c0,0 3.35954,-0.53214 4.97718,-0.1989c2.05917,0.4242 6.37601,2.53771 6.37601,2.53771c0,0 3.34599,-1.97527 5.08721,-2.35407c1.83722,-0.39968 5.66359,0.01526 5.66359,0.01526c0,0 -0.06284,8.38762 -0.20647,11.5173c-0.11845,2.58097 -0.71939,5.38523 -1.01703,9.07388c-2.09788,-0.00686 -4.48279,0.08274 -6.90042,0.21087c-3.19492,-0.09703 -7.11968,-0.10176 -10.28839,0.39183c-0.63158,0.05981 -1.2463,0.17749 -1.83881,0.34767c-0.05757,0.00251 -0.11461,0.00495 -0.17113,0.0073c-0.02141,-0.25604 -0.04441,-0.51239 -0.06911,-0.7683z" fill="#374a50" stroke="#292e32" stroke-width="0"/><g stroke="none"><path d="M251.93963,169.7701c0,6.72634 -5.22138,12.17912 -11.66227,12.17912c-6.44089,0 -11.66227,-5.45277 -11.66227,-12.17912c0,-6.72634 5.22138,-12.17912 11.66227,-12.17912c6.44089,0 11.66227,5.45277 11.66227,12.17912z" fill="url(#color-3)" stroke-width="0"/><path d="M244.163,174.55436c-0.89999,0.1347 -1.03468,-0.76528 -1.03468,-0.76528l-0.04139,-0.27652c-0.16987,-1.13983 -0.24506,-2.27154 -0.32039,-3.42107c0,0 -0.0595,-0.90806 0.84856,-0.96755c0.90806,-0.0595 0.96756,0.84856 0.96756,0.84856c0.07202,1.09915 0.14039,2.18107 0.30422,3.27066l0.04139,0.27652c0,0 0.13471,0.89999 -0.76528,1.03469z" fill="#191412" stroke-width="0.5"/><path d="M246.70349,170.30923c-0.32788,-1.19275 1.57734,-3.75272 1.57734,-3.75272c0,0 1.83966,2.23352 1.86451,3.72716c0.02644,1.58919 -3.04066,1.48507 -3.44185,0.02555z" fill="#191412" stroke-width="0.5"/><path d="M235.25417,170.21372c-0.24333,-1.26138 2.38488,-3.67584 2.38488,-3.67584c0,0 2.12615,2.28185 1.93254,3.80573c-0.20599,1.62135 -4.01968,1.41361 -4.31742,-0.12989z" data-paper-data="{&quot;index&quot;:null}" fill="#191412" stroke-width="0.5"/><g fill="#00ffcc" stroke-width="0.5"><path d="M235.31013,178.36879c0,-0.37312 0.30249,-0.67561 0.67561,-0.67561c0.37312,0 0.67561,0.30249 0.67561,0.67561c0,0.37312 -0.30248,0.67561 -0.67561,0.67561c-0.37312,0 -0.67561,-0.30249 -0.67561,-0.67561z"/><path d="M234.61817,175.67022c0,-0.37312 0.30248,-0.67561 0.6756,-0.67561c0.37312,0 0.67561,0.30248 0.67561,0.67561c0,0.37312 -0.30249,0.67561 -0.67561,0.67561c-0.37312,0 -0.6756,-0.30249 -0.6756,-0.67561z"/><path d="M232.54237,176.77732c0,-0.37312 0.30248,-0.67561 0.6756,-0.67561c0.37312,0 0.67561,0.30249 0.67561,0.67561c0,0.37312 -0.30249,0.67561 -0.67561,0.67561c-0.37312,0 -0.6756,-0.30248 -0.6756,-0.67561z"/><path d="M231.85042,174.07874c0,-0.37312 0.30249,-0.6756 0.67561,-0.6756c0.37312,0 0.67561,0.30248 0.67561,0.6756c0,0.37312 -0.30249,0.67561 -0.67561,0.67561c-0.37312,0 -0.67561,-0.30249 -0.67561,-0.67561z"/></g><g data-paper-data="{&quot;index&quot;:null}" fill="#00ffcc" stroke-width="0.5"><path d="M248.43825,178.37516c-0.2141,0 -0.38766,-0.30248 -0.38766,-0.67561c0,-0.37312 0.17357,-0.67561 0.38766,-0.67561c0.2141,0 0.38765,0.30248 0.38765,0.67561c0,0.37312 -0.17356,0.67561 -0.38765,0.67561z"/><path d="M248.83528,175.67659c-0.2141,0 -0.38766,-0.30248 -0.38766,-0.67561c0,-0.37312 0.17357,-0.67561 0.38766,-0.67561c0.2141,0 0.38766,0.30248 0.38766,0.67561c0,0.37312 -0.17357,0.67561 -0.38766,0.67561z"/><path d="M250.02637,176.7837c-0.2141,0 -0.38766,-0.30249 -0.38766,-0.67561c0,-0.37312 0.17357,-0.6756 0.38766,-0.6756c0.2141,0 0.38766,0.30248 0.38766,0.6756c0,0.37312 -0.17357,0.67561 -0.38766,0.67561z"/><path d="M250.4234,174.08512c-0.2141,0 -0.38766,-0.30248 -0.38766,-0.6756c0,-0.37312 0.17356,-0.67561 0.38766,-0.67561c0.2141,0 0.38766,0.30249 0.38766,0.67561c0,0.37312 -0.17357,0.6756 -0.38766,0.6756z"/></g><g fill="#00ffcc" stroke-width="0.5"><path d="M240.61132,163.41554c0,-0.35904 0.29106,-0.6501 0.6501,-0.6501c0.35904,0 0.6501,0.29106 0.6501,0.6501c0,0.35904 -0.29106,0.6501 -0.6501,0.6501c-0.35904,0 -0.6501,-0.29106 -0.6501,-0.6501z"/><path d="M242.40904,160.81883c0,-0.35904 0.29106,-0.65011 0.6501,-0.65011c0.35904,0 0.6501,0.29107 0.6501,0.65011c0,0.35904 -0.29106,0.6501 -0.6501,0.6501c-0.35904,0 -0.6501,-0.29106 -0.6501,-0.6501z"/><path d="M244.20677,163.48213c0,-0.35904 0.29106,-0.6501 0.6501,-0.6501c0.35904,0 0.6501,0.29106 0.6501,0.6501c0,0.35904 -0.29106,0.6501 -0.6501,0.6501c-0.35904,0 -0.6501,-0.29106 -0.6501,-0.6501z"/></g></g><path d="M217.06119,205.0522v-50.10439h45.87767v50.10439z" fill="none" stroke="url(#color-4)" stroke-width="2.5"/></g></g></svg>