<svg version="1.1" xmlns="http://www.w3.org/2000/svg" xmlns:xlink="http://www.w3.org/1999/xlink" width="65.44663" height="131.00074" viewBox="0,0,65.44663,131.00074"><defs><linearGradient x1="248.65915" y1="222.98742" x2="251.72231" y2="222.98742" gradientUnits="userSpaceOnUse" id="color-1"><stop offset="0" stop-color="#525252"/><stop offset="1" stop-color="#363636"/></linearGradient><linearGradient x1="248.65915" y1="222.98742" x2="251.72231" y2="222.98742" gradientUnits="userSpaceOnUse" id="color-2"><stop offset="0" stop-color="#1f1f1f"/><stop offset="1" stop-color="#000000"/></linearGradient><linearGradient x1="220.64393" y1="226.09963" x2="258.44389" y2="226.09963" gradientUnits="userSpaceOnUse" id="color-3"><stop offset="0" stop-color="#2f2f2f"/><stop offset="1" stop-color="#040404"/></linearGradient><linearGradient x1="220.64393" y1="226.09963" x2="258.44389" y2="226.09963" gradientUnits="userSpaceOnUse" id="color-4"><stop offset="0" stop-color="#1f1f1f"/><stop offset="1" stop-color="#000000"/></linearGradient><linearGradient x1="233.57895" y1="215.72223" x2="245.59598" y2="215.72223" gradientUnits="userSpaceOnUse" id="color-5"><stop offset="0" stop-color="#444444"/><stop offset="1" stop-color="#252525"/></linearGradient><linearGradient x1="229.69108" y1="223.42172" x2="249.01259" y2="223.42172" gradientUnits="userSpaceOnUse" id="color-6"><stop offset="0" stop-color="#444444"/><stop offset="1" stop-color="#252525"/></linearGradient><linearGradient x1="226.42965" y1="231.92142" x2="252.36885" y2="231.92142" gradientUnits="userSpaceOnUse" id="color-7"><stop offset="0" stop-color="#444444"/><stop offset="1" stop-color="#252525"/></linearGradient><linearGradient x1="222.97568" y1="240.38694" x2="255.96362" y2="240.38694" gradientUnits="userSpaceOnUse" id="color-8"><stop offset="0" stop-color="#444444"/><stop offset="1" stop-color="#252525"/></linearGradient><linearGradient x1="245.71254" y1="212.94436" x2="255.25728" y2="212.94436" gradientUnits="userSpaceOnUse" id="color-9"><stop offset="0" stop-color="#b2b2b2"/><stop offset="1" stop-color="#363636"/></linearGradient><linearGradient x1="245.71254" y1="212.94436" x2="255.25728" y2="212.94436" gradientUnits="userSpaceOnUse" id="color-10"><stop offset="0" stop-color="#1f1f1f"/><stop offset="1" stop-color="#000000"/></linearGradient><linearGradient x1="258.62789" y1="199.97516" x2="277.36398" y2="199.97516" gradientUnits="userSpaceOnUse" id="color-11"><stop offset="0" stop-color="#353535"/><stop offset="1" stop-color="#1f1f1f"/></linearGradient><linearGradient x1="258.62789" y1="200.61882" x2="271.4431" y2="200.61882" gradientUnits="userSpaceOnUse" id="color-12"><stop offset="0" stop-color="#272727"/><stop offset="1" stop-color="#000000"/></linearGradient><linearGradient x1="221.37214" y1="199.7788" x2="202.63605" y2="199.7788" gradientUnits="userSpaceOnUse" id="color-13"><stop offset="0" stop-color="#6b6b6b"/><stop offset="1" stop-color="#838383"/></linearGradient><linearGradient x1="208.55692" y1="200.42246" x2="221.37214" y2="200.42246" gradientUnits="userSpaceOnUse" id="color-14"><stop offset="0" stop-color="#272727"/><stop offset="1" stop-color="#000000"/></linearGradient><linearGradient x1="221.3201" y1="184.8121" x2="258.67271" y2="184.8121" gradientUnits="userSpaceOnUse" id="color-15"><stop offset="0" stop-color="#646464"/><stop offset="1" stop-color="#222222"/></linearGradient><linearGradient x1="221.3201" y1="184.8121" x2="258.67273" y2="184.8121" gradientUnits="userSpaceOnUse" id="color-16"><stop offset="0" stop-color="#272727"/><stop offset="1" stop-color="#000000"/></linearGradient><linearGradient x1="220.98202" y1="134.88214" x2="258.78195" y2="134.88214" gradientUnits="userSpaceOnUse" id="color-17"><stop offset="0" stop-color="#c9c9c9"/><stop offset="1" stop-color="#3e3e3e"/></linearGradient><linearGradient x1="220.98202" y1="134.88215" x2="258.78197" y2="134.88215" gradientUnits="userSpaceOnUse" id="color-18"><stop offset="0" stop-color="#272727"/><stop offset="1" stop-color="#000000"/></linearGradient><linearGradient x1="231.82129" y1="122.65151" x2="247.8809" y2="122.65151" gradientUnits="userSpaceOnUse" id="color-19"><stop offset="0" stop-color="#8c8c8c"/><stop offset="1" stop-color="#222222"/></linearGradient><linearGradient x1="231.82129" y1="122.65151" x2="247.88091" y2="122.65151" gradientUnits="userSpaceOnUse" id="color-20"><stop offset="0" stop-color="#272727"/><stop offset="1" stop-color="#000000"/></linearGradient><radialGradient cx="238.09112" cy="134.9594" r="7.05127" gradientUnits="userSpaceOnUse" id="color-21"><stop offset="0" stop-color="#9cd7f7"/><stop offset="1" stop-color="#0087f6"/></radialGradient><linearGradient x1="232.83072" y1="138.7111" x2="246.93326" y2="138.7111" gradientUnits="userSpaceOnUse" id="color-22"><stop offset="0" stop-color="#272727"/><stop offset="1" stop-color="#000000"/></linearGradient><linearGradient x1="232.17435" y1="120.64583" x2="247.39327" y2="120.64583" gradientUnits="userSpaceOnUse" id="color-23"><stop offset="0" stop-color="#ffffff"/><stop offset="1" stop-color="#606060"/></linearGradient><linearGradient x1="232.17435" y1="120.64583" x2="247.39328" y2="120.64583" gradientUnits="userSpaceOnUse" id="color-24"><stop offset="0" stop-color="#272727"/><stop offset="1" stop-color="#000000"/></linearGradient><linearGradient x1="241.33162" y1="186.3887" x2="255.98265" y2="186.3887" gradientUnits="userSpaceOnUse" id="color-25"><stop offset="0" stop-color="#4a382c"/><stop offset="1" stop-color="#301f1b"/></linearGradient><linearGradient x1="241.33162" y1="186.3887" x2="255.98265" y2="186.3887" gradientUnits="userSpaceOnUse" id="color-26"><stop offset="0" stop-color="#351c12"/><stop offset="1" stop-color="#1a1310"/></linearGradient><linearGradient x1="241.29222" y1="186.39421" x2="255.90936" y2="186.39421" gradientUnits="userSpaceOnUse" id="color-27"><stop offset="0" stop-color="#351c12"/><stop offset="1" stop-color="#1a1310"/></linearGradient><linearGradient x1="241.29222" y1="186.28292" x2="255.90936" y2="186.28292" gradientUnits="userSpaceOnUse" id="color-28"><stop offset="0" stop-color="#351c12"/><stop offset="1" stop-color="#1a1310"/></linearGradient><linearGradient x1="223.82074" y1="186.46289" x2="238.47176" y2="186.46289" gradientUnits="userSpaceOnUse" id="color-29"><stop offset="0" stop-color="#4a382c"/><stop offset="1" stop-color="#301f1b"/></linearGradient><linearGradient x1="223.82074" y1="186.46289" x2="238.47176" y2="186.46289" gradientUnits="userSpaceOnUse" id="color-30"><stop offset="0" stop-color="#351c12"/><stop offset="1" stop-color="#1a1310"/></linearGradient><linearGradient x1="223.78134" y1="186.46841" x2="238.39847" y2="186.46841" gradientUnits="userSpaceOnUse" id="color-31"><stop offset="0" stop-color="#351c12"/><stop offset="1" stop-color="#1a1310"/></linearGradient><linearGradient x1="223.78134" y1="186.35712" x2="238.39847" y2="186.35712" gradientUnits="userSpaceOnUse" id="color-32"><stop offset="0" stop-color="#351c12"/><stop offset="1" stop-color="#1a1310"/></linearGradient><linearGradient x1="241.33162" y1="204.0608" x2="255.98265" y2="204.0608" gradientUnits="userSpaceOnUse" id="color-33"><stop offset="0" stop-color="#4a382c"/><stop offset="1" stop-color="#301f1b"/></linearGradient><linearGradient x1="241.33162" y1="204.0608" x2="255.98265" y2="204.0608" gradientUnits="userSpaceOnUse" id="color-34"><stop offset="0" stop-color="#351c12"/><stop offset="1" stop-color="#1a1310"/></linearGradient><linearGradient x1="241.29222" y1="204.06632" x2="255.90936" y2="204.06632" gradientUnits="userSpaceOnUse" id="color-35"><stop offset="0" stop-color="#351c12"/><stop offset="1" stop-color="#1a1310"/></linearGradient><linearGradient x1="241.29222" y1="203.95503" x2="255.90936" y2="203.95503" gradientUnits="userSpaceOnUse" id="color-36"><stop offset="0" stop-color="#351c12"/><stop offset="1" stop-color="#1a1310"/></linearGradient><linearGradient x1="223.82074" y1="204.135" x2="238.47176" y2="204.135" gradientUnits="userSpaceOnUse" id="color-37"><stop offset="0" stop-color="#4a382c"/><stop offset="1" stop-color="#301f1b"/></linearGradient><linearGradient x1="223.82074" y1="204.135" x2="238.47176" y2="204.135" gradientUnits="userSpaceOnUse" id="color-38"><stop offset="0" stop-color="#351c12"/><stop offset="1" stop-color="#1a1310"/></linearGradient><linearGradient x1="223.78134" y1="204.14052" x2="238.39847" y2="204.14052" gradientUnits="userSpaceOnUse" id="color-39"><stop offset="0" stop-color="#351c12"/><stop offset="1" stop-color="#1a1310"/></linearGradient><linearGradient x1="223.78134" y1="204.02922" x2="238.39847" y2="204.02922" gradientUnits="userSpaceOnUse" id="color-40"><stop offset="0" stop-color="#351c12"/><stop offset="1" stop-color="#1a1310"/></linearGradient><linearGradient x1="223.2113" y1="166.27959" x2="256.55268" y2="166.27959" gradientUnits="userSpaceOnUse" id="color-41"><stop offset="0" stop-color="#515151"/><stop offset="1" stop-color="#131313"/></linearGradient><linearGradient x1="223.2113" y1="166.27959" x2="256.55268" y2="166.27959" gradientUnits="userSpaceOnUse" id="color-42"><stop offset="0" stop-color="#272727"/><stop offset="1" stop-color="#000000"/></linearGradient><linearGradient x1="224.94784" y1="159.02473" x2="254.58461" y2="159.02473" gradientUnits="userSpaceOnUse" id="color-43"><stop offset="0" stop-color="#272727"/><stop offset="1" stop-color="#000000"/></linearGradient><linearGradient x1="225.06361" y1="173.64194" x2="254.23731" y2="173.64194" gradientUnits="userSpaceOnUse" id="color-44"><stop offset="0" stop-color="#272727"/><stop offset="1" stop-color="#000000"/></linearGradient><linearGradient x1="233.2255" y1="149.31437" x2="246.53849" y2="149.31437" gradientUnits="userSpaceOnUse" id="color-45"><stop offset="0" stop-color="#272727"/><stop offset="1" stop-color="#000000"/></linearGradient><linearGradient x1="233.2255" y1="147.54716" x2="246.53849" y2="147.54716" gradientUnits="userSpaceOnUse" id="color-46"><stop offset="0" stop-color="#272727"/><stop offset="1" stop-color="#000000"/></linearGradient><linearGradient x1="233.2255" y1="151.08158" x2="246.53849" y2="151.08158" gradientUnits="userSpaceOnUse" id="color-47"><stop offset="0" stop-color="#272727"/><stop offset="1" stop-color="#000000"/></linearGradient></defs><g transform="translate(-207.27669,-114.49963)"><g data-paper-data="{&quot;isPaintingLayer&quot;:true}" fill-rule="nonzero" stroke-linejoin="miter" stroke-miterlimit="10" stroke-dasharray="" stroke-dashoffset="0" style="mix-blend-mode: normal"><path d="M248.65915,228.05343v-10.13201h3.06317v10.13201z" fill="url(#color-1)" stroke="url(#color-2)" stroke-width="1" stroke-linecap="butt"/><path d="M220.64393,245.00037c0,0 14.11429,-38.07714 18.90256,-37.79996c5.47768,0.31708 18.8974,37.79996 18.8974,37.79996z" fill="url(#color-3)" stroke="url(#color-4)" stroke-width="1" stroke-linecap="butt"/><path d="M233.57895,215.72223h12.01703" fill="none" stroke="url(#color-5)" stroke-width="2.5" stroke-linecap="round"/><path d="M229.69109,223.42172h19.3215" fill="none" stroke="url(#color-6)" stroke-width="2.5" stroke-linecap="round"/><path d="M252.36886,231.92142h-25.93921" fill="none" stroke="url(#color-7)" stroke-width="2.5" stroke-linecap="round"/><path d="M255.96362,240.38694h-32.98793" fill="none" stroke="url(#color-8)" stroke-width="2.5" stroke-linecap="round"/><path d="M255.25728,212.94436c-0.03572,4.48785 -0.14878,4.96804 -4.77237,4.92047c-4.62507,-0.04758 -4.82975,-0.65571 -4.77237,-4.92047c0.06335,-4.70857 0.04989,-5.03587 4.77237,-4.92047c4.52477,0.11057 4.81159,-0.00765 4.77237,4.92047z" fill="url(#color-9)" stroke="url(#color-10)" stroke-width="1" stroke-linecap="butt"/><path d="M258.62789,215.34549v-38.20222c0,0 4.80748,25.64433 6.48829,31.83597c1.32982,4.89868 6.32693,15.11512 6.32693,15.11512z" fill="url(#color-11)" stroke="url(#color-12)" stroke-width="1" stroke-linecap="butt"/><path d="M208.55692,223.89801c0,0 4.99711,-10.21643 6.32693,-15.11512c1.68081,-6.19165 6.48829,-31.83597 6.48829,-31.83597v38.20222z" data-paper-data="{&quot;index&quot;:null}" fill="url(#color-13)" stroke="url(#color-14)" stroke-width="1" stroke-linecap="butt"/><path d="M221.3201,215.45467v-61.28514h37.35263v61.28514z" fill="url(#color-15)" stroke="url(#color-16)" stroke-width="1" stroke-linecap="butt"/><path d="M220.98202,153.78288c0,0 13.91794,-38.07714 18.70621,-37.79996c5.47768,0.31708 19.09375,37.79996 19.09375,37.79996z" fill="url(#color-17)" stroke="url(#color-18)" stroke-width="1" stroke-linecap="butt"/><path d="M231.97145,128.06065l0.65145,-1.45248l14.46575,-0.04046l0.64209,1.49295z" fill="url(#color-19)" stroke="url(#color-20)" stroke-width="0" stroke-linecap="butt"/><path d="M246.93326,138.7111c0,3.81649 -3.15696,6.91038 -7.05127,6.91038c-3.8943,0 -7.05127,-3.09388 -7.05127,-6.91038c0,-3.81649 3.15696,-6.91038 7.05127,-6.91038c3.8943,0 7.05127,3.09388 7.05127,6.91038z" fill="url(#color-21)" stroke="url(#color-22)" stroke-width="1" stroke-linecap="butt"/><path d="M232.17435,126.29203c0,0 5.60361,-11.37475 7.53145,-11.29195c2.20541,0.09472 7.68748,11.29195 7.68748,11.29195z" fill="url(#color-23)" stroke="url(#color-24)" stroke-width="1" stroke-linecap="butt"/><path d="M241.33162,194.01563v-15.25387h14.65103v15.25387z" fill="url(#color-25)" stroke="url(#color-26)" stroke-width="1" stroke-linecap="butt"/><path d="M255.90936,178.97435l-14.61714,14.83973" fill="none" stroke="url(#color-27)" stroke-width="1" stroke-linecap="round"/><path d="M241.44062,178.82595l14.46874,15.06233" fill="none" stroke="url(#color-28)" stroke-width="1" stroke-linecap="round"/><path d="M223.82074,194.08983v-15.25387h14.65103v15.25387z" fill="url(#color-29)" stroke="url(#color-30)" stroke-width="1" stroke-linecap="butt"/><path d="M223.78134,193.88828l14.61714,-14.83973" fill="none" stroke="url(#color-31)" stroke-width="1" stroke-linecap="round"/><path d="M238.39847,193.96248l-14.46874,-15.06233" fill="none" stroke="url(#color-32)" stroke-width="1" stroke-linecap="round"/><path d="M241.33162,211.68774v-15.25387h14.65103v15.25387z" fill="url(#color-33)" stroke="url(#color-34)" stroke-width="1" stroke-linecap="butt"/><path d="M255.90936,196.64646l-14.61714,14.83973" fill="none" stroke="url(#color-35)" stroke-width="1" stroke-linecap="round"/><path d="M241.44062,196.49807l14.46874,15.06232" fill="none" stroke="url(#color-36)" stroke-width="1" stroke-linecap="round"/><path d="M223.82074,211.76194v-15.25387h14.65103v15.25387z" fill="url(#color-37)" stroke="url(#color-38)" stroke-width="1" stroke-linecap="butt"/><path d="M238.39848,196.72066l-14.61714,14.83973" fill="none" stroke="url(#color-39)" stroke-width="1" stroke-linecap="round"/><path d="M238.39847,211.63458l-14.46874,-15.06233" fill="none" stroke="url(#color-40)" stroke-width="1" stroke-linecap="round"/><path d="M223.2113,175.46909v-18.37899h33.34138v18.37899z" fill="url(#color-41)" stroke="url(#color-42)" stroke-width="1" stroke-linecap="butt"/><path d="M254.58461,159.02473h-29.63678" fill="none" stroke="url(#color-43)" stroke-width="1" stroke-linecap="round"/><path d="M254.23731,173.64194h-29.1737" fill="none" stroke="url(#color-44)" stroke-width="1" stroke-linecap="round"/><path d="M246.53849,149.31437h-13.31299" fill="none" stroke="url(#color-45)" stroke-width="1" stroke-linecap="round"/><path d="M246.53849,147.54716h-13.31299" fill="none" stroke="url(#color-46)" stroke-width="1" stroke-linecap="round"/><path d="M233.2255,151.08158h13.31299" fill="none" stroke="url(#color-47)" stroke-width="1" stroke-linecap="round"/></g></g></svg>