<svg version="1.1" xmlns="http://www.w3.org/2000/svg" xmlns:xlink="http://www.w3.org/1999/xlink" width="240.67316" height="177.19491" viewBox="0,0,240.67316,177.19491"><defs><radialGradient cx="280.06247" cy="237.95935" r="38.33033" gradientUnits="userSpaceOnUse" id="color-1"><stop offset="0" stop-color="#696969"/><stop offset="1" stop-color="#0a0a0a"/></radialGradient><linearGradient x1="280.06247" y1="200.34215" x2="280.06247" y2="275.57656" gradientUnits="userSpaceOnUse" id="color-2"><stop offset="0" stop-color="#636363"/><stop offset="1" stop-color="#424242"/></linearGradient><linearGradient x1="296.18687" y1="217.39981" x2="296.18687" y2="253.69678" gradientUnits="userSpaceOnUse" id="color-3"><stop offset="0" stop-color="#1d1d1d"/><stop offset="1" stop-color="#000000"/></linearGradient><linearGradient x1="280.23784" y1="263.0241" x2="280.23784" y2="265.35821" gradientUnits="userSpaceOnUse" id="color-4"><stop offset="0" stop-color="#348317"/><stop offset="1" stop-color="#3c5b0d"/></linearGradient><linearGradient x1="269.98237" y1="258.71768" x2="291.88064" y2="258.71768" gradientUnits="userSpaceOnUse" id="color-5"><stop offset="0" stop-color="#3a3531"/><stop offset="1" stop-color="#37322f"/></linearGradient><linearGradient x1="280.9315" y1="254.90329" x2="280.9315" y2="262.53208" gradientUnits="userSpaceOnUse" id="color-6"><stop offset="0" stop-color="#131313"/><stop offset="1" stop-color="#080808"/></linearGradient><radialGradient cx="255.67321" cy="250.5124" r="10.94537" gradientUnits="userSpaceOnUse" id="color-7"><stop offset="0" stop-color="#82796f"/><stop offset="1" stop-color="#453b32"/></radialGradient><linearGradient x1="258.25617" y1="244.35508" x2="258.25617" y2="262.26243" gradientUnits="userSpaceOnUse" id="color-8"><stop offset="0" stop-color="#348317"/><stop offset="1" stop-color="#3c5b0d"/></linearGradient><radialGradient cx="262.8004" cy="256.47433" r="11.79056" gradientUnits="userSpaceOnUse" id="color-9"><stop offset="0" stop-color="#181818"/><stop offset="1" stop-color="#0b0b0b"/></radialGradient><linearGradient x1="258.1332" y1="254.50309" x2="258.1332" y2="263.40093" gradientUnits="userSpaceOnUse" id="color-10"><stop offset="0" stop-color="#348317"/><stop offset="1" stop-color="#3c5b0d"/></linearGradient><linearGradient x1="251.01818" y1="241.89177" x2="256.91041" y2="241.89177" gradientUnits="userSpaceOnUse" id="color-11"><stop offset="0" stop-color="#403f3c"/><stop offset="1" stop-color="#242220"/></linearGradient><radialGradient cx="273.41241" cy="230.90999" r="24.81331" gradientUnits="userSpaceOnUse" id="color-12"><stop offset="0" stop-color="#94877f"/><stop offset="1" stop-color="#38332f"/></radialGradient><linearGradient x1="280.94585" y1="212.09549" x2="280.94585" y2="249.56076" gradientUnits="userSpaceOnUse" id="color-13"><stop offset="0" stop-color="#348317"/><stop offset="1" stop-color="#3c5b0d"/></linearGradient><radialGradient cx="278.92975" cy="212.33654" r="7.37071" gradientUnits="userSpaceOnUse" id="color-14"><stop offset="0" stop-color="#b0aba8"/><stop offset="1" stop-color="#6e6057"/></radialGradient><linearGradient x1="281.18191" y1="212.11652" x2="281.18191" y2="214.53675" gradientUnits="userSpaceOnUse" id="color-15"><stop offset="0" stop-color="#1d1d1d"/><stop offset="1" stop-color="#000000"/></linearGradient><linearGradient x1="265.4669" y1="248.22932" x2="269.95533" y2="248.22932" gradientUnits="userSpaceOnUse" id="color-16"><stop offset="0" stop-color="#2e2e2e"/><stop offset="1" stop-color="#1d1d1d"/></linearGradient><linearGradient x1="268.04115" y1="247.65726" x2="268.04115" y2="248.80137" gradientUnits="userSpaceOnUse" id="color-17"><stop offset="0" stop-color="#1d1d1d"/><stop offset="1" stop-color="#000000"/></linearGradient><linearGradient x1="265.4669" y1="249.71446" x2="269.95533" y2="249.71446" gradientUnits="userSpaceOnUse" id="color-18"><stop offset="0" stop-color="#2e2e2e"/><stop offset="1" stop-color="#1d1d1d"/></linearGradient><linearGradient x1="268.04115" y1="249.1424" x2="268.04115" y2="250.28651" gradientUnits="userSpaceOnUse" id="color-19"><stop offset="0" stop-color="#1d1d1d"/><stop offset="1" stop-color="#000000"/></linearGradient><linearGradient x1="294.98897" y1="258.00595" x2="312.24982" y2="258.00595" gradientUnits="userSpaceOnUse" id="color-20"><stop offset="0" stop-color="#6d4242"/><stop offset="1" stop-color="#472a2a"/></linearGradient><linearGradient x1="294.98897" y1="258.00595" x2="312.24982" y2="258.00595" gradientUnits="userSpaceOnUse" id="color-21"><stop offset="0" stop-color="#160000"/><stop offset="1" stop-color="#000000"/></linearGradient><linearGradient x1="293.98656" y1="263.42401" x2="313.08292" y2="263.42401" gradientUnits="userSpaceOnUse" id="color-22"><stop offset="0" stop-color="#937070"/><stop offset="1" stop-color="#6a4949"/></linearGradient><linearGradient x1="293.98656" y1="263.42401" x2="313.08292" y2="263.42401" gradientUnits="userSpaceOnUse" id="color-23"><stop offset="0" stop-color="#160000"/><stop offset="1" stop-color="#000000"/></linearGradient><linearGradient x1="296.33447" y1="257.78902" x2="296.94726" y2="257.78902" gradientUnits="userSpaceOnUse" id="color-24"><stop offset="0" stop-color="#896363"/><stop offset="1" stop-color="#6a4444"/></linearGradient><linearGradient x1="298.05794" y1="257.78902" x2="298.67073" y2="257.78902" gradientUnits="userSpaceOnUse" id="color-25"><stop offset="0" stop-color="#896363"/><stop offset="1" stop-color="#6a4444"/></linearGradient><linearGradient x1="299.78141" y1="257.78902" x2="300.3942" y2="257.78902" gradientUnits="userSpaceOnUse" id="color-26"><stop offset="0" stop-color="#896363"/><stop offset="1" stop-color="#6a4444"/></linearGradient><linearGradient x1="301.50488" y1="257.78902" x2="302.11766" y2="257.78902" gradientUnits="userSpaceOnUse" id="color-27"><stop offset="0" stop-color="#896363"/><stop offset="1" stop-color="#6a4444"/></linearGradient><linearGradient x1="303.22835" y1="257.78902" x2="303.84113" y2="257.78902" gradientUnits="userSpaceOnUse" id="color-28"><stop offset="0" stop-color="#896363"/><stop offset="1" stop-color="#6a4444"/></linearGradient><linearGradient x1="304.95181" y1="257.78902" x2="305.5646" y2="257.78902" gradientUnits="userSpaceOnUse" id="color-29"><stop offset="0" stop-color="#896363"/><stop offset="1" stop-color="#6a4444"/></linearGradient><linearGradient x1="306.67528" y1="257.78902" x2="307.28807" y2="257.78902" gradientUnits="userSpaceOnUse" id="color-30"><stop offset="0" stop-color="#896363"/><stop offset="1" stop-color="#6a4444"/></linearGradient><linearGradient x1="308.39875" y1="257.78902" x2="309.01154" y2="257.78902" gradientUnits="userSpaceOnUse" id="color-31"><stop offset="0" stop-color="#896363"/><stop offset="1" stop-color="#6a4444"/></linearGradient><linearGradient x1="310.12222" y1="257.78902" x2="310.73501" y2="257.78902" gradientUnits="userSpaceOnUse" id="color-32"><stop offset="0" stop-color="#896363"/><stop offset="1" stop-color="#6a4444"/></linearGradient><linearGradient x1="293.98656" y1="252.67578" x2="313.08292" y2="252.67578" gradientUnits="userSpaceOnUse" id="color-33"><stop offset="0" stop-color="#937070"/><stop offset="1" stop-color="#6a4949"/></linearGradient><linearGradient x1="293.98656" y1="252.67578" x2="313.08292" y2="252.67578" gradientUnits="userSpaceOnUse" id="color-34"><stop offset="0" stop-color="#160000"/><stop offset="1" stop-color="#000000"/></linearGradient><linearGradient x1="311.83766" y1="258.12294" x2="313.15945" y2="258.12294" gradientUnits="userSpaceOnUse" id="color-35"><stop offset="0" stop-color="#824e4e"/><stop offset="1" stop-color="#633b3b"/></linearGradient><linearGradient x1="311.83766" y1="258.12295" x2="313.15945" y2="258.12295" gradientUnits="userSpaceOnUse" id="color-36"><stop offset="0" stop-color="#160000"/><stop offset="1" stop-color="#000000"/></linearGradient><linearGradient x1="293.91003" y1="258.12294" x2="295.23182" y2="258.12294" gradientUnits="userSpaceOnUse" id="color-37"><stop offset="0" stop-color="#824e4e"/><stop offset="1" stop-color="#633b3b"/></linearGradient><linearGradient x1="293.91003" y1="258.12294" x2="295.23182" y2="258.12294" gradientUnits="userSpaceOnUse" id="color-38"><stop offset="0" stop-color="#160000"/><stop offset="1" stop-color="#000000"/></linearGradient></defs><g transform="translate(-239.7193,-160.0288)"><g data-paper-data="{&quot;isPaintingLayer&quot;:true}" fill-rule="nonzero" stroke-linecap="butt" stroke-linejoin="miter" stroke-miterlimit="10" stroke-dasharray="" stroke-dashoffset="0" style="mix-blend-mode: normal"><text transform="translate(240.03135,187.4892) scale(0.6241,0.6241)" font-size="40" xml:space="preserve" fill="#ffffff" fill-rule="nonzero" stroke="none" stroke-width="1" stroke-linecap="butt" stroke-linejoin="miter" stroke-miterlimit="10" stroke-dasharray="" stroke-dashoffset="0" font-family="Malgun Gothic" font-weight="normal" text-anchor="start" style="mix-blend-mode: normal"><tspan x="0" dy="0">Refinery</tspan></text><text transform="translate(324.45435,215.62294) scale(0.45565,0.45565)" font-size="40" xml:space="preserve" fill="#d8d8d8" fill-rule="nonzero" stroke="none" stroke-width="1" stroke-linecap="butt" stroke-linejoin="miter" stroke-miterlimit="10" stroke-dasharray="" stroke-dashoffset="0" font-family="Malgun Gothic" font-weight="normal" text-anchor="start" style="mix-blend-mode: normal"><tspan x="0" dy="0">Obtained by:</tspan></text><text transform="translate(324.45435,256.62748) scale(0.45566,0.45566)" font-size="40" xml:space="preserve" fill="#d8d8d8" fill-rule="nonzero" stroke="none" stroke-width="1" stroke-linecap="butt" stroke-linejoin="miter" stroke-miterlimit="10" stroke-dasharray="" stroke-dashoffset="0" font-family="Malgun Gothic" font-weight="normal" text-anchor="start" style="mix-blend-mode: normal"><tspan x="0" dy="0">Materials:</tspan></text><text transform="translate(241.38373,296.92705) scale(0.45566,0.45566)" font-size="40" xml:space="preserve" fill="#d8d8d8" fill-rule="nonzero" stroke="none" stroke-width="1" stroke-linecap="butt" stroke-linejoin="miter" stroke-miterlimit="10" stroke-dasharray="" stroke-dashoffset="0" font-family="Malgun Gothic" font-weight="normal" text-anchor="start" style="mix-blend-mode: normal"><tspan x="0" dy="0">Description:</tspan></text><text transform="translate(325.17562,233.72207) scale(0.37382,0.37382)" font-size="40" xml:space="preserve" fill="#9f9f9f" fill-rule="nonzero" stroke="none" stroke-width="1" stroke-linecap="butt" stroke-linejoin="miter" stroke-miterlimit="10" stroke-dasharray="" stroke-dashoffset="0" font-family="Malgun Gothic" font-weight="normal" text-anchor="start" style="mix-blend-mode: normal"><tspan x="0" dy="0">Factory</tspan></text><text transform="translate(325.17562,275.43973) scale(0.37383,0.37383)" font-size="40" xml:space="preserve" fill="#9f9f9f" fill-rule="nonzero" stroke="none" stroke-width="1" stroke-linecap="butt" stroke-linejoin="miter" stroke-miterlimit="10" stroke-dasharray="" stroke-dashoffset="0" font-family="Malgun Gothic" font-weight="normal" text-anchor="start" style="mix-blend-mode: normal"><tspan x="0" dy="0">Stone (x40), Steel (x30)</tspan></text><path d="M241.73214,275.57656v-75.23442h76.66066v75.23442z" fill="url(#color-1)" stroke="url(#color-2)" stroke-width="3.5"/><text transform="translate(241.64328,315.44811) scale(0.37383,0.37383)" font-size="40" xml:space="preserve" fill="#9f9f9f" fill-rule="nonzero" stroke="none" stroke-width="1" stroke-linecap="butt" stroke-linejoin="miter" stroke-miterlimit="10" stroke-dasharray="" stroke-dashoffset="0" font-family="Malgun Gothic" font-weight="normal" text-anchor="start" style="mix-blend-mode: normal"><tspan x="0" dy="0">Turns various resources into</tspan><tspan x="0" dy="48px">rocket fuel.</tspan></text><g><path d="M295.51381,253.69678v-36.29697h1.34611v36.29697z" fill="#1c1b1a" stroke="url(#color-3)" stroke-width="0"/><path d="M246.30867,265.35821v-2.33407h67.85831v2.33407z" data-paper-data="{&quot;index&quot;:null}" fill="#1c1b1a" stroke="url(#color-4)" stroke-width="0"/><path d="M268.5417,262.53208l1.44068,-7.62879h21.89827l1.32542,7.62879c0,0 -5.0512,1.88207 -12.10167,1.94187c-6.81865,0.05783 -12.56269,-1.94187 -12.56269,-1.94187z" fill="url(#color-5)" stroke="url(#color-6)" stroke-width="0"/><path d="M247.33969,253.30876c0,-4.94498 1.21609,-9.02493 10.91648,-8.95368c9.29512,0.06827 10.91648,4.0087 10.91648,8.95368c0,3.43191 -0.2118,8.74877 -0.2118,8.74877c0,0 -0.19409,1.93038 -10.8045,2.13981c-10.84527,-0.06491 -10.87444,-2.13047 -10.87444,-2.13047c0,0 0.05779,-4.65547 0.05779,-8.75811z" data-paper-data="{&quot;index&quot;:null}" fill="url(#color-7)" stroke="url(#color-8)" stroke-width="0"/><path d="M250.39408,258.95202c0,-2.45707 0.86214,-4.48433 7.73913,-4.44892c6.58968,0.03392 7.73913,1.99185 7.73913,4.44892c0,1.70525 -0.15015,4.63625 -0.15015,4.63625c0,0 -0.1376,0.67003 -7.65974,0.77409c-7.68864,-0.03225 -7.70933,-0.71162 -7.70933,-0.71162c0,0 0.04097,-2.66019 0.04097,-4.69872z" data-paper-data="{&quot;index&quot;:null}" fill="url(#color-9)" stroke="url(#color-10)" stroke-width="0"/><path d="M251.01818,246.36961c0,0 0.06609,-2.54421 0.26363,-4.03933c0.07235,-0.54756 0.87939,-1.034 1.03229,-1.83886c0.07166,-0.37725 -0.16197,-0.6018 -0.16567,-0.98412c-0.00974,-1.00747 0.14395,-0.87444 0.14395,-0.87444l3.32571,0.01225c0,0 0.07741,-0.31875 0.11226,0.86217c0.00824,0.27933 -0.26386,0.72921 -0.21329,1.01322c0.12184,0.68427 0.9508,1.30744 1.01774,1.78639c0.20479,1.46522 0.37559,4.06274 0.37559,4.06274c0,0 -1.81515,0.61936 -2.83694,0.61936c-0.93448,0 -3.05529,-0.61936 -3.05529,-0.61936z" data-paper-data="{&quot;index&quot;:null}" fill="url(#color-11)" stroke="none" stroke-width="0"/><path d="M280.69832,212.09549c9.54264,0.14284 11.164,1.62124 11.164,11.96699c0,7.18015 0.03572,31.50521 0.03572,31.50521c0,0 -0.72215,2.67995 -11.33255,3.11812c-9.93768,-0.30081 -10.51141,-3.42862 -10.51141,-3.42862c0,0 -0.4343,-23.09778 -0.30262,-30.88334c0.12727,-7.52452 1.33645,-11.89547 10.94685,-12.27836z" data-paper-data="{&quot;index&quot;:null}" fill="url(#color-12)" stroke="url(#color-13)" stroke-width="0"/><path d="M281.18191,214.53675c-4.07073,0 -7.37071,-0.54179 -7.37071,-1.21012c0,-0.66833 3.29998,-1.21012 7.37071,-1.21012c4.07073,0 7.37071,0.54179 7.37071,1.21012c0,0.66833 -3.29998,1.21012 -7.37071,1.21012z" fill="url(#color-14)" stroke="url(#color-15)" stroke-width="0"/><path d="M266.12696,248.80137c0,0 -0.66006,-0.38137 -0.66006,-0.57205c0,-0.19068 0.66006,-0.57205 0.66006,-0.57205h3.82837v1.14411z" fill="url(#color-16)" stroke="url(#color-17)" stroke-width="0"/><path d="M266.12696,250.28651c0,0 -0.66006,-0.38137 -0.66006,-0.57205c0,-0.19068 0.66006,-0.57206 0.66006,-0.57206h3.82837v1.14411z" fill="url(#color-18)" stroke="url(#color-19)" stroke-width="0"/><path d="M294.98897,263.32505v-10.6382h17.26084v10.6382z" fill="url(#color-20)" stroke="url(#color-21)" stroke-width="1"/><path d="M293.98656,263.9736v-1.09917h19.09637v1.09917z" fill="url(#color-22)" stroke="url(#color-23)" stroke-width="0.5"/><path d="M296.33447,262.7979v-10.01777h0.61279v10.01777z" fill="url(#color-24)" stroke="none" stroke-width="0"/><path d="M298.05794,262.7979v-10.01777h0.61279v10.01777z" fill="url(#color-25)" stroke="none" stroke-width="0"/><path d="M299.78141,262.7979v-10.01777h0.61279v10.01777z" fill="url(#color-26)" stroke="none" stroke-width="0"/><path d="M301.50488,262.7979v-10.01777h0.61279v10.01777z" fill="url(#color-27)" stroke="none" stroke-width="0"/><path d="M303.22835,262.7979v-10.01777h0.61279v10.01777z" fill="url(#color-28)" stroke="none" stroke-width="0"/><path d="M304.95181,262.7979v-10.01777h0.61279v10.01777z" fill="url(#color-29)" stroke="none" stroke-width="0"/><path d="M306.67528,262.7979v-10.01777h0.61279v10.01777z" fill="url(#color-30)" stroke="none" stroke-width="0"/><path d="M308.39875,262.7979v-10.01777h0.61279v10.01777z" fill="url(#color-31)" stroke="none" stroke-width="0"/><path d="M310.12222,262.7979v-10.01777h0.61279v10.01777z" fill="url(#color-32)" stroke="none" stroke-width="0"/><path d="M293.98656,253.03522v-0.71887h19.09637v0.71887z" fill="url(#color-33)" stroke="url(#color-34)" stroke-width="0.5"/><path d="M311.83766,264.0536v-11.86131h1.32179v11.86131z" fill="url(#color-35)" stroke="url(#color-36)" stroke-width="0.5"/><path d="M293.91003,264.0536v-11.86131h1.32179v11.86131z" fill="url(#color-37)" stroke="url(#color-38)" stroke-width="0.5"/><path d="M290.51396,218.55362v-1.15381h5.57675v1.15381z" fill="#1c1b1a" stroke="none" stroke-width="0"/><path d="M290.51396,225.76494v-1.15381h5.57675v1.15381z" fill="#1c1b1a" stroke="none" stroke-width="0"/><path d="M290.51396,232.97626v-1.15381h5.57675v1.15381z" fill="#1c1b1a" stroke="none" stroke-width="0"/><path d="M290.51396,240.18758v-1.15381h5.57675v1.15381z" fill="#1c1b1a" stroke="none" stroke-width="0"/><path d="M290.51396,247.39889v-1.15381h5.57675v1.15381z" fill="#1c1b1a" stroke="none" stroke-width="0"/></g></g></g></svg>