<svg version="1.1" xmlns="http://www.w3.org/2000/svg" xmlns:xlink="http://www.w3.org/1999/xlink" width="75.62426" height="118.91779" viewBox="0,0,75.62426,118.91779"><defs><radialGradient cx="289.54661" cy="168.84152" r="0.65546" gradientUnits="userSpaceOnUse" id="color-1"><stop offset="0" stop-color="#c6beb6"/><stop offset="1" stop-color="#a9a4a1"/></radialGradient><radialGradient cx="290.66602" cy="169.24057" r="2.69811" gradientUnits="userSpaceOnUse" id="color-2"><stop offset="0" stop-color="#d9d0c7"/><stop offset="1" stop-color="#b7b1ad"/></radialGradient><linearGradient x1="239.74791" y1="149.41539" x2="239.74791" y2="156.26648" gradientUnits="userSpaceOnUse" id="color-3"><stop offset="0" stop-color="#736b4f"/><stop offset="1" stop-color="#bec286"/></linearGradient><radialGradient cx="235.45425" cy="124.47802" r="13.11833" gradientUnits="userSpaceOnUse" id="color-4"><stop offset="0" stop-color="#ccbe7a"/><stop offset="1" stop-color="#948f62"/></radialGradient><radialGradient cx="262.00329" cy="175.03058" r="0.76938" gradientUnits="userSpaceOnUse" id="color-5"><stop offset="0" stop-color="#c6beb6"/><stop offset="1" stop-color="#a9a4a1"/></radialGradient><radialGradient cx="263.31728" cy="175.49905" r="3.16706" gradientUnits="userSpaceOnUse" id="color-6"><stop offset="0" stop-color="#d9d0c7"/><stop offset="1" stop-color="#b7b1ad"/></radialGradient></defs><g transform="translate(-221.03629,-115.4087)"><g data-paper-data="{&quot;isPaintingLayer&quot;:true}" fill-rule="nonzero" stroke-linejoin="miter" stroke-miterlimit="10" stroke-dasharray="" stroke-dashoffset="0" style="mix-blend-mode: normal"><g><path d="M225.92439,227.14051l4.20132,-33.65782c0,0 6.78326,-2.09379 9.84981,-2.05352c3.6284,0.04764 0.55053,4.25166 0.55053,4.25166c0,0 -3.09293,0.04769 -3.41775,1.47935c-0.99336,4.37832 -3.18147,30.0854 -3.18147,30.0854z" fill="#a69b98" stroke="#000000" stroke-width="0" stroke-linecap="butt"/><path d="M241.20949,232.25047c0,0 -0.41114,1.93492 -1.23797,1.92406c-0.5927,-0.00778 -2.64406,-0.02105 -4.70308,-0.12865c-1.25183,-0.06541 -1.89387,-0.64271 -2.8253,-0.7978c-1.17261,-0.19524 -2.94117,0.18187 -3.78783,-0.02078c-1.56008,-0.3734 -2.36421,-0.80893 -2.36421,-0.80893c0,0 -0.25563,-1.02883 -0.26475,-1.58941c-0.01229,-0.75523 0.19763,-2.53463 0.19763,-2.53463c0,0 5.9353,-0.04164 8.24737,0.18905c1.36812,0.13652 4.23171,0.70242 4.23171,0.70242c0,0 1.45154,0.63472 1.65954,1.06472c0.25472,0.52664 0.84688,1.99995 0.84688,1.99995z" data-paper-data="{&quot;index&quot;:null}" fill="#141415" stroke="#000000" stroke-width="0" stroke-linecap="butt"/><path d="M240.94694,231.61232c0,0 -0.38566,-0.00506 -1.21248,-0.01592c-0.2482,-0.00326 0.6813,1.61073 -2.63539,1.29862c-3.13203,-0.29474 -2.76064,-1.22458 -3.8639,-1.31967c-2.30696,-0.19884 -2.59525,0.56101 -3.59282,0.39491c-0.34742,-0.05784 -0.51116,-0.12127 -1.77168,-0.9937c-0.86691,-0.60001 -0.6426,-1.75981 -1.23407,-2.39571c-0.86397,-0.92889 -0.78364,-1.89625 -0.78364,-1.89625l-0.03635,-3.04847c0,0 0.45734,2.21301 1.28538,3.04836c0.74087,0.7474 2.31695,0.01167 2.80058,0.01789c0.84688,0.01088 -0.64588,-3.27682 0.16356,-3.24794c0.43525,0.01552 3.7255,-0.18518 3.7255,-0.18518c0,0 0.07601,3.58119 0.30869,3.6044c1.36811,0.13652 4.59545,0.7072 4.59545,0.7072c0,0 1.45154,0.63472 1.65954,1.06472c0.25473,0.52664 0.59165,2.96675 0.59165,2.96675z" data-paper-data="{&quot;index&quot;:null}" fill="#252527" stroke="#000000" stroke-width="0" stroke-linecap="butt"/><path d="M234.98539,227.50378l-2.6818,1.05622" data-paper-data="{&quot;index&quot;:null}" fill="none" stroke="#ffffff" stroke-width="0.5" stroke-linecap="round"/><path d="M234.23879,228.94921l2.56532,-1.42155" data-paper-data="{&quot;index&quot;:null}" fill="none" stroke="#ffffff" stroke-width="0.5" stroke-linecap="round"/><path d="M236.41808,229.22036l1.4741,-1.43589" data-paper-data="{&quot;index&quot;:null}" fill="none" stroke="#ffffff" stroke-width="0.5" stroke-linecap="round"/><path d="M231.14204,224.66415l2.18566,-0.21384" data-paper-data="{&quot;index&quot;:null}" fill="none" stroke="#969696" stroke-width="0.5" stroke-linecap="round"/><path d="M233.56064,225.18097l-1.94476,0.33827" data-paper-data="{&quot;index&quot;:null}" fill="none" stroke="#969696" stroke-width="0.5" stroke-linecap="round"/></g><g stroke="#000000" stroke-width="0" stroke-linecap="butt"><path d="M296.64509,167.29823c-0.19368,0.4763 -3.87979,-0.76396 -4.79556,0.33124c-0.31439,0.37599 4.56238,2.38477 3.99201,3.13588c-0.33858,0.44587 -3.01617,-0.71945 -4.45448,-0.87962c-0.70071,-0.07802 -5.36984,-1.3965 -5.36984,-1.3965c0,0 -2.56695,-1.64104 -6.0191,-2.30103c-0.83014,-0.15871 -3.49118,-0.88098 -4.34591,-1.03488c-2.0229,-0.36422 -4.04503,-0.64679 -5.27847,-0.90328c-2.65293,-0.55162 -15.14408,-4.01374 -15.14408,-4.01374l0.40701,-5.64053c0,0 6.23441,2.10916 13.01453,3.80139c5.10033,1.27299 10.67923,2.10053 13.20021,2.78345c2.9836,0.80823 6.67915,2.32582 6.67915,2.32582c0,0 2.64505,0.88954 4.82066,1.7718c1.95759,0.79385 3.48034,1.56139 3.29385,2.02005z" data-paper-data="{&quot;index&quot;:null}" fill="#8b8560"/><path d="M248.22304,158.44376c0.7617,-5.9123 4.33447,-5.47312 6.25829,-5.03876c1.92383,0.43435 1.96201,-1.43591 1.23993,3.97895c-0.61032,4.57676 -0.81085,3.86002 -2.73467,3.42565c-1.92382,-0.43435 -5.16021,0.7132 -4.76353,-2.36585z" data-paper-data="{&quot;index&quot;:null}" fill="#42352d"/></g><path d="M280.02094,196.3395c0,0 -2.28441,-18.40956 -2.23944,-27.38904c0.04386,-8.75673 2.50601,-25.83636 2.50601,-25.83636l0.66092,0.00326c0,0 -2.35278,17.34947 -2.39635,26.0481c-0.04523,9.03072 2.1298,27.1773 2.1298,27.1773z" fill="#2e2c2a" stroke="none" stroke-width="0" stroke-linecap="butt"/><g stroke="none" stroke-width="0" stroke-linecap="butt"><path d="M281.07048,136.93917c0,0 -1.35218,3.51898 1.61865,8.71751c3.33641,5.83829 10.17451,14.3762 11.74174,20.26217c0.21272,0.79898 -1.37288,2.0591 -1.37633,2.74695c-0.00444,0.88769 1.56162,1.32538 1.32012,2.31974c-1.74678,7.19281 -9.0556,16.82618 -12.67545,23.8312c-2.32961,4.50824 -0.95679,7.6306 -0.95679,7.6306c0,0 -2.31226,-3.17068 -1.14966,-7.35081c2.24799,-8.08253 12.81473,-19.04732 12.85176,-26.44259c0.02948,-5.88596 -10.56286,-16.63531 -12.57763,-23.10068c-1.60619,-5.15424 1.20358,-8.61413 1.20358,-8.61413z" fill="#403c36"/><path d="M284.38498,188.02636l3.66656,-6.43785l1.85515,0.66125l-3.66656,6.43785z" fill="#7d6239"/><path d="M285.84882,148.99917l3.6019,6.47359l-1.86167,0.64296l-3.60192,-6.47359z" data-paper-data="{&quot;index&quot;:null}" fill="#7d6239"/></g><g stroke="none" stroke-width="0" stroke-linecap="butt"><path d="M289.08474,168.06417l-0.05827,1.0727l-13.39495,0.0428l0.05825,-1.0727z" fill="#8c7463"/><path d="M289.54959,169.43145c-0.3675,0.00116 -0.64391,-0.39413 -0.61737,-0.88292c0.02654,-0.48879 0.34596,-0.886 0.71348,-0.88717c0.3675,-0.00116 0.64391,0.39409 0.61736,0.88289c-0.02654,0.48879 -0.34595,0.88604 -0.71348,0.8872z" fill="url(#color-1)"/><path d="M294.78795,168.52943l-5.567,1.64647l0.98492,-1.63183l-0.80802,-1.62609z" fill="url(#color-2)"/><path d="M277.21114,168.28201l-1.15077,0.15735l-1.10486,-2.65561z" fill="#d7d7d7"/><path d="M276.52229,168.2432l-1.29023,0.17645l-1.23875,-2.97749z" fill="#e2e2e2"/><path d="M278.41021,168.26903l-0.86966,0.11888l-0.83498,-2.0069z" fill="#d7d7d7"/><path d="M277.88968,168.23976l-0.97509,0.13333l-0.9362,-2.2502z" fill="#e2e2e2"/><path d="M279.36777,168.15315l-0.72909,0.09968l-0.70006,-1.68257z" fill="#d7d7d7"/><path d="M278.9314,168.12856l-0.81752,0.11179l-0.78489,-1.88654z" fill="#e2e2e2"/><path d="M274.63246,171.62093l1.39363,-2.6636l1.13407,0.15005z" fill="#d7d7d7"/><path d="M273.63281,171.9688l1.56255,-2.98646l1.27159,0.16825z" fill="#e2e2e2"/><path d="M276.448,171.01223l1.05325,-2.01293l0.85706,0.11339z" fill="#d7d7d7"/><path d="M275.6925,171.27512l1.18094,-2.25695l0.96095,0.12719z" fill="#e2e2e2"/><path d="M277.70208,170.81511l0.88301,-1.68763l0.71853,0.09502z" fill="#d7d7d7"/><path d="M277.06866,171.0355l0.99006,-1.89219l0.80566,0.1066z" fill="#e2e2e2"/><path d="M279.6151,168.04375l-0.06311,1.16213l-4.48244,0.01434l0.06311,-1.16213z" fill="#7c6352"/></g><path d="M285.46716,169.07007c-0.11554,0.42734 -3.14958,0.51612 -3.93403,0.7669c-0.41993,0.13424 4.13395,1.15618 3.7244,1.8613c-0.24312,0.41858 -2.86297,-0.11826 -4.11414,-0.08494c-0.60956,0.01625 -4.69525,-0.88985 -4.69525,-0.88985c0,0 -2.39178,-0.43474 -5.42408,-0.58879c-0.72919,-0.03704 -3.08928,-0.33715 -3.83904,-0.36721c-1.77448,-0.07114 -2.37328,-0.29573 -6.9112,-0.85427c-5.08568,-1.834 -9.22997,-5.80197 -9.22997,-5.80197l3.50747,-3.24625c0,0 3.67224,4.21149 9.66985,4.85036c4.5117,0.48061 5.62501,0.66482 7.86074,0.94798c2.64602,0.33513 5.97833,1.18891 5.97833,1.18891c0,0 2.36417,0.44404 4.32474,0.93719c1.76413,0.44373 3.37715,1.3883 3.2659,1.79982z" data-paper-data="{&quot;index&quot;:null}" fill="#979068" stroke="#000000" stroke-width="0" stroke-linecap="butt"/><path d="M248.17442,159.52698c3.28767,-3.91364 5.71099,-1.96009 6.92457,-0.7655c1.21358,1.19459 2.10455,-0.13632 -0.92449,3.43681c-2.56023,3.02011 -2.37692,2.41146 -3.5905,1.21688c-1.21358,-1.19459 -4.12175,-1.85001 -2.40958,-3.88818z" data-paper-data="{&quot;index&quot;:null}" fill="#4a3c33" stroke="#000000" stroke-width="0" stroke-linecap="butt"/><g><path d="M239.70445,191.34308c3.62872,0 10.54956,2.18267 10.54956,2.18267l3.03149,33.71008h-7.63934c0,0 -1.32697,-25.53818 -2.03751,-29.57011c-0.20138,-1.1427 -3.2979,-2.07857 -3.2979,-2.07857c0,0 -3.67312,-4.24407 -0.6063,-4.24407z" fill="#a69b98" stroke="#000000" stroke-width="0" stroke-linecap="butt"/><path d="M259.69263,234.32563c-0.59276,0 -2.64411,0.01365 -4.70436,-0.0669c-1.25258,-0.04897 -1.90215,-0.61779 -2.83553,-0.76063c-1.17507,-0.17982 -2.93854,0.22047 -3.78778,0.02896c-1.56485,-0.35288 -2.37463,-0.77782 -2.37463,-0.77782c0,0 -0.26911,-1.0254 -0.2856,-1.5858c-0.02221,-0.75501 0.16433,-2.53701 0.16433,-2.53701c0,0 5.93425,-0.11957 8.24914,0.08076c1.36979,0.11854 4.24057,0.6468 4.24057,0.6468c0,0 1.45976,0.6156 1.67337,1.04283c0.26162,0.52325 0.87307,1.98865 0.87307,1.98865c0,0 -0.3857,1.94015 -1.21259,1.94015z" data-paper-data="{&quot;index&quot;:null}" fill="#141415" stroke="#000000" stroke-width="0" stroke-linecap="butt"/><path d="M259.4217,231.75086c-0.24822,0 0.7024,1.60165 -2.61811,1.33311c-3.13563,-0.25358 -2.77648,-1.18823 -3.8809,-1.26883c-2.30937,-0.16854 -2.58765,0.59503 -3.58732,0.44205c-0.34815,-0.05328 -0.51271,-0.11454 -1.78459,-0.97035c-0.87472,-0.58857 -0.66566,-1.75122 -1.26542,-2.3793c-0.87609,-0.91745 -0.80847,-1.8858 -0.80847,-1.8858l-0.07637,-3.04773c0,0 0.48635,2.20681 1.32529,3.03122c0.75062,0.73761 2.3169,-0.01875 2.80058,-0.01889c0.84696,-0.00024 -0.68885,-3.26804 0.12091,-3.2498c0.43542,0.00981 3.72275,-0.23409 3.72275,-0.23409c0,0 0.12302,3.57989 0.35598,3.60005c1.36979,0.11854 4.60434,0.6468 4.60434,0.6468c0,0 1.45976,0.6156 1.67338,1.04283c0.26162,0.52325 0.63055,2.95873 0.63055,2.95873c0,0 -0.3857,0 -1.2126,0z" data-paper-data="{&quot;index&quot;:null}" fill="#252527" stroke="#000000" stroke-width="0" stroke-linecap="butt"/><path d="M254.61934,227.72089l-2.6677,1.09133" fill="none" stroke="#ffffff" stroke-width="0.5" stroke-linecap="round"/><path d="M253.89179,229.176l2.54645,-1.45511" fill="none" stroke="#ffffff" stroke-width="0.5" stroke-linecap="round"/><path d="M256.07446,229.41855l1.45512,-1.45511" fill="none" stroke="#ffffff" stroke-width="0.5" stroke-linecap="round"/><path d="M250.73905,224.93192l2.18266,-0.24252" fill="none" stroke="#969696" stroke-width="0.5" stroke-linecap="round"/><path d="M253.16424,225.41699l-1.94015,0.36378" fill="none" stroke="#969696" stroke-width="0.5" stroke-linecap="round"/></g><path d="M235.91983,157.06522v-7.64977h7.65615l-0.1141,7.87798z" fill="url(#color-3)" stroke="#000000" stroke-width="0" stroke-linecap="butt"/><path d="M229.63983,193.59157c0,0 1.05415,-4.96832 0.53438,-10.35244c-0.16183,-1.6764 -0.21302,-5.68895 -0.71668,-7.54193c-0.59549,-2.19087 -2.53406,-2.77781 -2.61907,-4.12911c-0.1679,-2.66921 -1.07001,-6.79369 -0.41646,-11.37123c0.49266,-3.45066 3.45852,-6.29847 3.45852,-6.29847c0,0 3.98746,-0.28908 5.76508,0.07712c2.26281,0.46615 4.64106,2.49298 4.64106,2.49298c0,0 3.08552,-2.02276 4.99894,-2.43902c2.01891,-0.43921 5.48447,0.01677 5.48447,0.01677c0,0 2.62113,3.52189 2.84787,7.84095c0.214,4.0764 -0.63262,8.46783 -0.70926,10.13771c-0.07768,1.69256 -1.49509,2.1313 -2.13228,4.27482c-0.50833,1.71005 -0.54704,5.19044 -0.67745,7.18949c-0.3029,4.64296 0.14784,10.27371 0.14784,10.27371c0,0 -2.75697,-0.76932 -5.57187,-0.83754c-1.27833,-0.03098 -1.79126,1.00612 -2.99851,1.16532c-0.96496,0.12724 -2.63623,-0.61291 -3.56107,-0.64966c-0.69915,-0.02778 -2.04377,-0.5306 -2.53801,-0.53471c-0.99795,-0.0083 -1.61572,0.86529 -2.77345,1.02464c-1.34484,0.1851 -3.1641,-0.33939 -3.1641,-0.33939z" fill="#4f4037" stroke="#292e32" stroke-width="0" stroke-linecap="butt"/><g stroke="#000000" stroke-width="0" stroke-linecap="butt"><path d="M263.4509,175.06685c-2.27271,-0.59298 -4.92601,-1.4683 -4.92601,-1.4683c0,0 -3.87189,-0.99123 -6.74774,-2.14318c-2.42994,-0.97334 -7.39729,-3.70395 -12.24829,-5.7648c-6.44867,-2.73958 -12.71002,-4.79219 -12.71002,-4.79219l3.05685,-5.00715c0,0 12.0871,4.75667 14.54403,5.92182c1.14233,0.54172 2.93236,1.5461 4.772,2.48212c0.77729,0.39549 3.34309,1.42169 4.10357,1.79802c3.16244,1.56491 6.20389,1.75846 6.20389,1.75846c0,0 4.5327,1.75746 5.14106,2.12229c1.24875,0.74883 4.09354,1.41156 4.09746,1.99567c0.00662,0.98399 -6.15797,-0.32916 -5.81014,0.05315c0.64974,0.71417 4.5051,2.84399 4.37463,3.36471c-0.12563,0.50143 -1.80632,0.21292 -3.85129,-0.32062z" data-paper-data="{&quot;index&quot;:null}" fill="#a0986e"/><path d="M228.66257,154.14842c1.80229,0.81598 2.39287,0.33473 0.13699,4.56969c-2.66899,5.01047 -1.57787,3.40968 -3.38016,2.59372c-1.80229,-0.81598 -4.92897,-2.64125 -1.9934,-8.09558c1.52881,-2.84053 3.43425,0.1162 5.23654,0.93217z" fill="#615046"/></g><g><path d="M251.22504,117.79773c0,0 -0.26338,3.24445 -0.58861,4.57283c-0.26638,1.08795 -1.2217,2.82111 -1.2217,2.82111" data-paper-data="{&quot;index&quot;:null}" fill="none" stroke="#3b2c16" stroke-width="1.25" stroke-linecap="round"/><path d="M252.62929,121.93599c0,0 -0.18908,2.27851 -0.58872,3.23539c-0.42269,1.01206 -1.88216,2.68074 -1.88216,2.68074" data-paper-data="{&quot;index&quot;:null}" fill="none" stroke="#3b2c16" stroke-width="1.25" stroke-linecap="round"/><path d="M248.97182,116.03371c0,0 0.11659,3.27103 -0.03039,4.69304c-0.12038,1.16464 -0.78772,3.22209 -0.78772,3.22209" data-paper-data="{&quot;index&quot;:null}" fill="none" stroke="#3b2c16" stroke-width="1.25" stroke-linecap="round"/><path d="M252.55187,134.25851c0,7.39154 -8.18556,17.31455 -11.39879,17.3764c-6.69145,0.1288 -14.23242,-9.98486 -14.23242,-17.3764c0,-7.39154 5.73774,-13.38356 12.8156,-13.38356c7.07786,0 12.8156,5.99202 12.8156,13.38356z" fill="url(#color-4)" stroke="none" stroke-width="0" stroke-linecap="butt"/><path d="M241.64848,135.3417c0,2.06292 -0.85162,3.73524 -1.90215,3.73524c-1.05053,0 -1.90214,-1.67233 -1.90214,-3.73524c0,-2.06292 0.85162,-3.73523 1.90214,-3.73523c1.05053,0 1.90215,1.67232 1.90215,3.73523z" fill="none" stroke="#191412" stroke-width="1.5" stroke-linecap="butt"/><path d="M246.38252,129.78003c0,2.06292 -0.85162,3.73524 -1.90214,3.73524c-1.05053,0 -1.90215,-1.67233 -1.90215,-3.73524c0,-2.06292 0.85162,-3.73524 1.90215,-3.73524c1.05053,0 1.90214,1.67232 1.90214,3.73524z" fill="none" stroke="#191412" stroke-width="1.5" stroke-linecap="butt"/><path d="M251.07877,135.29525c0,2.06292 -0.85161,3.73524 -1.90214,3.73524c-1.05053,0 -1.90215,-1.67233 -1.90215,-3.73524c0,-2.06292 0.85162,-3.73523 1.90215,-3.73523c1.05053,0 1.90214,1.67232 1.90214,3.73523z" fill="none" stroke="#191412" stroke-width="1.5" stroke-linecap="butt"/><path d="M246.3253,140.42401c0,2.06292 -0.85162,3.73524 -1.90214,3.73524c-1.05053,0 -1.90215,-1.67233 -1.90215,-3.73524c0,-2.06292 0.85162,-3.73523 1.90215,-3.73523c1.05053,0 1.90214,1.67232 1.90214,3.73523z" fill="none" stroke="#191412" stroke-width="1.5" stroke-linecap="butt"/><path d="M232.27208,125.51309c0,0 -1.55639,-1.73224 -1.99089,-2.81993c-0.53052,-1.32806 -0.96207,-4.57226 -0.96207,-4.57226" fill="none" stroke="#47341a" stroke-width="1.5" stroke-linecap="round"/><path d="M231.06405,128.17428c0,0 -2.37686,-1.66727 -3.06571,-2.67893c-0.6513,-0.9565 -0.96105,-3.23482 -0.96105,-3.23482" fill="none" stroke="#47341a" stroke-width="1.5" stroke-linecap="round"/><path d="M234.32336,124.26904c0,0 -1.08798,-2.05681 -1.28494,-3.22133c-0.24048,-1.42187 -0.05363,-4.693 -0.05363,-4.693" fill="none" stroke="#47341a" stroke-width="1.5" stroke-linecap="round"/></g><path d="M250.54049,207.30782c0,0 -2.47866,-21.56481 -2.42484,-32.31117c0.05023,-10.02949 2.73775,-30.16494 2.73775,-30.16494l0.77579,0.00382c0,0 -2.47412,19.796 -2.52494,29.9452c-0.05334,10.65186 2.21207,32.53092 2.21207,32.53092z" fill="#2e2c2a" stroke="none" stroke-width="0" stroke-linecap="butt"/><g stroke="none" stroke-width="0" stroke-linecap="butt"><path d="M251.77244,137.58355c0,0 -1.58719,4.13058 1.89999,10.23262c3.91629,6.853 11.94287,16.87483 13.78248,23.78379c0.24969,0.93784 -1.61148,2.41698 -1.61553,3.22438c-0.00522,1.04197 1.83303,1.55572 1.54956,2.72292c-2.05038,8.44294 -10.62948,19.75062 -14.87847,27.97313c-2.73451,5.29178 -1.12309,8.95682 -1.12309,8.95682c0,0 -2.71413,-3.72176 -1.34948,-8.62841c2.6387,-9.48729 15.04197,-22.3578 15.08543,-31.03838c0.0346,-6.90896 -12.39871,-19.52658 -14.76365,-27.11564c-1.88535,-6.05006 1.41277,-10.11129 1.41277,-10.11129z" fill="#403c36"/><path d="M255.663,197.54982l4.30381,-7.55676l2.17759,0.77618l-4.30381,7.55676z" fill="#7d6239"/><path d="M257.38128,151.7396l4.22792,7.59873l-2.18524,0.7547l-4.22794,-7.59873z" data-paper-data="{&quot;index&quot;:null}" fill="#7d6239"/></g><g stroke="none" stroke-width="0" stroke-linecap="butt"><path d="M261.46116,174.11816l-0.0684,1.25914l-15.72303,0.05023l0.06838,-1.25913z" fill="#8c7463"/><path d="M262.0068,175.72307c-0.43137,0.00135 -0.75582,-0.46264 -0.72467,-1.03637c0.03115,-0.57373 0.40608,-1.03999 0.83749,-1.04136c0.43137,-0.00135 0.75581,0.46258 0.72465,1.03633c-0.03115,0.57373 -0.40607,1.04004 -0.83748,1.04141z" fill="url(#color-5)"/><path d="M268.1556,174.66431l-6.53456,1.93263l1.1561,-1.91545l-0.94846,-1.90872z" fill="url(#color-6)"/><path d="M247.5239,174.37385l-1.35079,0.1847l-1.29688,-3.11716z" fill="#d7d7d7"/><path d="M246.71533,174.3283l-1.51448,0.20711l-1.45405,-3.49498z" fill="#e2e2e2"/><path d="M248.93137,174.35865l-1.02081,0.13955l-0.9801,-2.35571z" fill="#d7d7d7"/><path d="M248.32037,174.32427l-1.14457,0.1565l-1.09892,-2.64128z" fill="#e2e2e2"/><path d="M250.05536,174.22258l-0.85581,0.11702l-0.82173,-1.97501z" fill="#d7d7d7"/><path d="M249.54315,174.19374l-0.9596,0.13122l-0.9213,-2.21442z" fill="#e2e2e2"/><path d="M244.49703,178.29305l1.63585,-3.12654l1.33118,0.17613z" fill="#d7d7d7"/><path d="M243.32365,178.70143l1.83412,-3.50552l1.49259,0.1975z" fill="#e2e2e2"/><path d="M246.62812,177.57858l1.23631,-2.36278l1.00602,0.13311z" fill="#d7d7d7"/><path d="M245.74131,177.88714l1.38619,-2.64921l1.12796,0.14929z" fill="#e2e2e2"/><path d="M248.10017,177.3472l1.03647,-1.98095l0.84342,0.11154z" fill="#d7d7d7"/><path d="M247.35666,177.60589l1.16214,-2.22106l0.94568,0.12512z" fill="#e2e2e2"/><path d="M250.34568,174.0942l-0.07407,1.36411l-5.2615,0.01684l0.07408,-1.36411z" fill="#7c6352"/></g><path d="M253.26929,176.92575c-2.14182,-0.20219 -4.66923,-0.60377 -4.66923,-0.60377c0,0 -3.64613,-0.32733 -6.41538,-0.94629c-2.33987,-0.523 -6.32656,-2.08348 -10.85488,-3.58894c-5.84104,-2.47008 -8.07086,-7.30849 -8.07086,-7.30849l4.33362,-2.29259c0,0 4.13138,4.86102 6.52383,5.55347c1.11234,0.32193 2.87824,0.96701 4.67893,1.54299c0.76083,0.24335 3.2313,0.79418 3.97412,1.02269c3.08901,0.95022 5.86717,0.67836 5.86717,0.67836c0,0 8.66535,2.64058 8.76426,3.09805c0.28802,1.33254 -5.32709,-0.17265 -4.96751,0.22862c0.67929,0.75806 4.40641,1.85008 4.36496,2.34c-0.03993,0.47179 -1.60179,0.45788 -3.529,0.27594z" data-paper-data="{&quot;index&quot;:null}" fill="#ada477" stroke="#000000" stroke-width="0" stroke-linecap="butt"/><path d="M228.05754,160.52477c1.0299,1.49097 1.72062,1.39185 -2.04861,3.65213c-4.45943,2.67418 -2.84754,1.93229 -3.87745,0.44132c-1.0299,-1.49097 -2.62329,-4.39922 2.25488,-7.29607c2.5405,-1.50864 2.64127,1.71164 3.67116,3.20261z" fill="#615046" stroke="#000000" stroke-width="0" stroke-linecap="butt"/></g></g></svg>