<svg version="1.1" xmlns="http://www.w3.org/2000/svg" xmlns:xlink="http://www.w3.org/1999/xlink" width="167.14171" height="236.97218" viewBox="0,0,167.14171,236.97218"><defs><linearGradient x1="241.24999" y1="173.80043" x2="241.24999" y2="179.56942" gradientUnits="userSpaceOnUse" id="color-1"><stop offset="0" stop-color="#6a736a"/><stop offset="1" stop-color="#4d524c"/></linearGradient><linearGradient x1="241.24999" y1="173.80043" x2="241.24999" y2="179.56942" gradientUnits="userSpaceOnUse" id="color-2"><stop offset="0" stop-color="#131313"/><stop offset="1" stop-color="#080808"/></linearGradient><linearGradient x1="207.34963" y1="55.29098" x2="220.57809" y2="55.29098" gradientUnits="userSpaceOnUse" id="color-3"><stop offset="0" stop-color="#272727"/><stop offset="1" stop-color="#101010"/></linearGradient><linearGradient x1="234.7213" y1="55.0385" x2="221.49283" y2="55.0385" gradientUnits="userSpaceOnUse" id="color-4"><stop offset="0" stop-color="#101010"/><stop offset="1" stop-color="#272727"/></linearGradient><linearGradient x1="220.02537" y1="55.96635" x2="222.02537" y2="55.96635" gradientUnits="userSpaceOnUse" id="color-5"><stop offset="0" stop-color="#272727"/><stop offset="1" stop-color="#101010"/></linearGradient><linearGradient x1="161.75897" y1="128.85205" x2="280.75897" y2="128.85205" gradientUnits="userSpaceOnUse" id="color-6"><stop offset="0" stop-color="#494949"/><stop offset="1" stop-color="#343434"/></linearGradient><linearGradient x1="161.75897" y1="159.0187" x2="280.75897" y2="159.0187" gradientUnits="userSpaceOnUse" id="color-7"><stop offset="0" stop-color="#abff96"/><stop offset="1" stop-color="#4cc500"/></linearGradient><linearGradient x1="161.75897" y1="51.01872" x2="280.75897" y2="51.01872" gradientUnits="userSpaceOnUse" id="color-8"><stop offset="0" stop-color="#828282"/><stop offset="1" stop-color="#464646"/></linearGradient><radialGradient cx="215.0923" cy="140.82427" r="23.33334" gradientUnits="userSpaceOnUse" id="color-9"><stop offset="0" stop-color="#afbfc9"/><stop offset="1" stop-color="#5e8097"/></radialGradient><radialGradient cx="212.02564" cy="127.4761" r="23.33334" gradientUnits="userSpaceOnUse" id="color-10"><stop offset="0" stop-color="#515e74"/><stop offset="1" stop-color="#36434d"/></radialGradient><linearGradient x1="161.75897" y1="97.68537" x2="280.75897" y2="97.68537" gradientUnits="userSpaceOnUse" id="color-11"><stop offset="0" stop-color="#abff96"/><stop offset="1" stop-color="#4cc500"/></linearGradient><radialGradient cx="184.53989" cy="97.49092" r="23.33333" gradientUnits="userSpaceOnUse" id="color-12"><stop offset="0" stop-color="#bdf5ff"/><stop offset="1" stop-color="#0099ff"/></radialGradient><radialGradient cx="237.87322" cy="97.49092" r="23.33333" gradientUnits="userSpaceOnUse" id="color-13"><stop offset="0" stop-color="#bdf5ff"/><stop offset="1" stop-color="#0099ff"/></radialGradient><radialGradient cx="229.80341" cy="150.69832" r="2.5" gradientUnits="userSpaceOnUse" id="color-14"><stop offset="0" stop-color="#57657c"/><stop offset="1" stop-color="#36434d"/></radialGradient><linearGradient x1="221.59536" y1="-56.43556" x2="221.59536" y2="-7.84722" gradientUnits="userSpaceOnUse" id="color-15"><stop offset="0" stop-color="#00ff18" stop-opacity="0"/><stop offset="1" stop-color="#00ff18" stop-opacity="0.35996"/></linearGradient><radialGradient cx="203.27194" cy="-1.77368" r="60.26823" gradientUnits="userSpaceOnUse" id="color-16"><stop offset="0" stop-color="#87859e"/><stop offset="1" stop-color="#595761"/></radialGradient><linearGradient x1="160.75715" y1="11.30779" x2="280.8264" y2="11.30779" gradientUnits="userSpaceOnUse" id="color-17"><stop offset="0" stop-color="#272727"/><stop offset="1" stop-color="#101010"/></linearGradient><linearGradient x1="207.34963" y1="10.80503" x2="220.5781" y2="10.80503" gradientUnits="userSpaceOnUse" id="color-18"><stop offset="0" stop-color="#272727"/><stop offset="1" stop-color="#101010"/></linearGradient><linearGradient x1="234.7213" y1="9.99198" x2="221.49283" y2="9.99198" gradientUnits="userSpaceOnUse" id="color-19"><stop offset="0" stop-color="#101010"/><stop offset="1" stop-color="#272727"/></linearGradient><linearGradient x1="220.02537" y1="12.97994" x2="222.02537" y2="12.97994" gradientUnits="userSpaceOnUse" id="color-20"><stop offset="0" stop-color="#272727"/><stop offset="1" stop-color="#101010"/></linearGradient><radialGradient cx="187.765" cy="12.25581" r="64.18856" gradientUnits="userSpaceOnUse" id="color-21"><stop offset="0" stop-color="#a9a7c7"/><stop offset="1" stop-color="#878593"/></radialGradient><linearGradient x1="157.27178" y1="16.35895" x2="285.24616" y2="16.35895" gradientUnits="userSpaceOnUse" id="color-22"><stop offset="0" stop-color="#272727"/><stop offset="1" stop-color="#101010"/></linearGradient><radialGradient cx="221.35794" cy="-9.57729" r="4.10963" gradientUnits="userSpaceOnUse" id="color-23"><stop offset="0" stop-color="#c4c4c4"/><stop offset="1" stop-color="#a4a4a4"/></radialGradient><linearGradient x1="217.37285" y1="-9.57729" x2="225.34303" y2="-9.57729" gradientUnits="userSpaceOnUse" id="color-24"><stop offset="0" stop-color="#272727"/><stop offset="1" stop-color="#101010"/></linearGradient><radialGradient cx="221.84098" cy="-9.45654" r="13.88744" gradientUnits="userSpaceOnUse" id="color-25"><stop offset="0" stop-color="#5aff3d"/><stop offset="1" stop-color="#0ce800" stop-opacity="0.01999"/></radialGradient><linearGradient x1="207.95354" y1="-9.45654" x2="235.72842" y2="-9.45654" gradientUnits="userSpaceOnUse" id="color-26"><stop offset="0" stop-color="#000000" stop-opacity="0"/><stop offset="1" stop-color="#000000" stop-opacity="0"/></linearGradient><radialGradient cx="222.01057" cy="-9.48856" r="9.29855" gradientUnits="userSpaceOnUse" id="color-27"><stop offset="0" stop-color="#6bff6b"/><stop offset="1" stop-color="#01e800" stop-opacity="0.10996"/></radialGradient><linearGradient x1="212.71202" y1="-9.48856" x2="231.30912" y2="-9.48856" gradientUnits="userSpaceOnUse" id="color-28"><stop offset="0" stop-color="#000000" stop-opacity="0"/><stop offset="1" stop-color="#000000" stop-opacity="0"/></linearGradient><radialGradient cx="221.86333" cy="-9.3678" r="6.25306" gradientUnits="userSpaceOnUse" id="color-29"><stop offset="0" stop-color="#b4ffb0"/><stop offset="1" stop-color="#00e816" stop-opacity="0.30998"/></radialGradient><linearGradient x1="215.61027" y1="-9.3678" x2="228.11639" y2="-9.3678" gradientUnits="userSpaceOnUse" id="color-30"><stop offset="0" stop-color="#000000" stop-opacity="0"/><stop offset="1" stop-color="#000000" stop-opacity="0"/></linearGradient><radialGradient cx="308.05197" cy="124.38138" r="31.75572" gradientUnits="userSpaceOnUse" id="color-31"><stop offset="0" stop-color="#b1ffa3"/><stop offset="1" stop-color="#44b844"/></radialGradient><linearGradient x1="311.61078" y1="109.36705" x2="311.61078" y2="168.40643" gradientUnits="userSpaceOnUse" id="color-32"><stop offset="0" stop-color="#464646"/><stop offset="1" stop-color="#353535"/></linearGradient><radialGradient cx="288.14026" cy="124.14959" r="31.75572" gradientUnits="userSpaceOnUse" id="color-33"><stop offset="0" stop-color="#b1ffa3"/><stop offset="1" stop-color="#44b844"/></radialGradient><linearGradient x1="291.6991" y1="109.13526" x2="291.6991" y2="168.17464" gradientUnits="userSpaceOnUse" id="color-34"><stop offset="0" stop-color="#464646"/><stop offset="1" stop-color="#353535"/></linearGradient><linearGradient x1="281.10502" y1="120.68885" x2="322.72821" y2="120.68885" gradientUnits="userSpaceOnUse" id="color-35"><stop offset="0" stop-color="#404f43"/><stop offset="1" stop-color="#2e362e"/></linearGradient><linearGradient x1="301.9166" y1="117.69323" x2="301.9166" y2="123.68446" gradientUnits="userSpaceOnUse" id="color-36"><stop offset="0" stop-color="#222b22"/><stop offset="1" stop-color="#1a241c"/></linearGradient><linearGradient x1="281.10502" y1="153.7982" x2="322.72821" y2="153.7982" gradientUnits="userSpaceOnUse" id="color-37"><stop offset="0" stop-color="#404f43"/><stop offset="1" stop-color="#2e362e"/></linearGradient><linearGradient x1="301.9166" y1="150.80259" x2="301.9166" y2="156.7938" gradientUnits="userSpaceOnUse" id="color-38"><stop offset="0" stop-color="#222b22"/><stop offset="1" stop-color="#1a241c"/></linearGradient></defs><g transform="translate(-156.3365,56.90276)"><g data-paper-data="{&quot;isPaintingLayer&quot;:true}" fill-rule="nonzero" stroke-linejoin="miter" stroke-miterlimit="10" stroke-dasharray="" stroke-dashoffset="0" style="mix-blend-mode: normal"><path d="M160.39167,179.56942v-5.76901h161.71667v5.76901z" fill="url(#color-1)" stroke="url(#color-2)" stroke-width="1" stroke-linecap="butt"/><path d="M220.57809,48.38494l-13.22846,13.81207" fill="none" stroke="url(#color-3)" stroke-width="2" stroke-linecap="round"/><path d="M234.7213,61.94454l-13.22846,-13.81207" data-paper-data="{&quot;index&quot;:null}" fill="none" stroke="url(#color-4)" stroke-width="2" stroke-linecap="round"/><path d="M221.02537,62.27349v-12.61428" fill="none" stroke="url(#color-5)" stroke-width="2" stroke-linecap="round"/><path d="M161.75897,173.68539v-89.66666h119v89.66666z" fill="url(#color-6)" stroke="#000000" stroke-width="1" stroke-linecap="butt"/><path d="M161.75897,162.68537v-7.33333h119v7.33333z" fill="url(#color-7)" stroke="#000000" stroke-width="1" stroke-linecap="butt"/><path d="M161.75897,83.68538l46.66667,-21.66667h25.66667l46.66667,21.66667z" fill="url(#color-8)" stroke="#000000" stroke-width="1" stroke-linecap="butt"/><path d="M208.15395,174.18539v-46.66667h26.21005v46.66667z" fill="url(#color-9)" stroke="url(#color-10)" stroke-width="2" stroke-linecap="butt"/><path d="M161.75897,101.35204v-7.33333h119v7.33333z" fill="url(#color-11)" stroke="#000000" stroke-width="1" stroke-linecap="butt"/><path d="M171.25897,120.35204v-30.33333h46.66667v30.33333z" fill="url(#color-12)" stroke="#002c4c" stroke-width="1.5" stroke-linecap="butt"/><path d="M224.5923,120.35204v-30.33333h46.66666v30.33333z" fill="url(#color-13)" stroke="#002c4c" stroke-width="1.5" stroke-linecap="butt"/><path d="M227.65897,151.13537c0,-1.38071 1.11929,-2.5 2.5,-2.5c1.38071,0 2.5,1.11929 2.5,2.5c0,1.38071 -1.11929,2.5 -2.5,2.5c-1.38071,0 -2.5,-1.11929 -2.5,-2.5z" fill="url(#color-14)" stroke="none" stroke-width="0.5" stroke-linecap="butt"/><path d="M216.37479,-7.84722l-15.88465,-48.58834l42.21045,-0.4672l-15.88465,49.05553z" fill="url(#color-15)" stroke="#000000" stroke-width="0" stroke-linecap="butt"/><path d="M161.22434,7.10303l-0.4672,-19.62221c0,0 39.45147,5.60635 59.80103,5.60635c19.64898,0 60.73542,-5.13915 60.73542,-5.13915v18.22063c0,0 -6.36112,38.17215 -59.31576,36.89558c-53.41739,-1.28772 -60.7535,-35.96119 -60.7535,-35.96119z" fill="url(#color-16)" stroke="url(#color-17)" stroke-width="2" stroke-linecap="butt"/><path d="M220.5781,-11.43467l-13.22847,44.47939" fill="none" stroke="url(#color-18)" stroke-width="4" stroke-linecap="round"/><path d="M234.7213,32.23167l-13.22846,-44.47939" data-paper-data="{&quot;index&quot;:null}" fill="none" stroke="url(#color-19)" stroke-width="4" stroke-linecap="round"/><path d="M221.02537,33.291v-40.62211" fill="none" stroke="url(#color-20)" stroke-width="4" stroke-linecap="round"/><path d="M285.24616,-14.67053c0,0 -0.37315,12.95361 -1.03472,18.3257c-0.67212,5.45782 -2.96685,14.16813 -2.96685,14.16813c0,0 -0.80594,23.19783 -42.11607,27.36787c-4.61547,0.4659 -18.16537,2.99984 -18.16537,2.99984c0,0 -12.62825,-2.39552 -18.37616,-3.1763c-39.92087,-5.42276 -40.91749,-27.19141 -40.91749,-27.19141c0,0 -3.09873,-7.39096 -3.80773,-12.19015c-0.86132,-5.83019 -0.52554,-20.30369 -0.52554,-20.30369c0,0 2.92206,-2.65851 5.32036,1.70153c0.96123,1.7475 0.26975,9.32819 1.6819,11.43053c4.00069,5.95604 6.4568,20.512 14.52197,27.03474c5.75358,4.65324 15.96773,1.77676 24.32424,4.43622c5.23506,1.66606 17.77845,5.38689 17.77845,5.38689c0,0 12.65511,-3.50346 18.25525,-5.36113c6.36495,-2.11137 19.44444,-0.37411 24.34294,-3.71984c11.20263,-7.65152 11.23845,-22.1248 15.71251,-29.14479c1.31121,-2.05735 0.51223,-7.70015 1.36502,-9.35204c1.91826,-3.71575 4.60729,-2.41212 4.60729,-2.41212z" data-paper-data="{&quot;index&quot;:null}" fill="url(#color-21)" stroke="url(#color-22)" stroke-width="2" stroke-linecap="butt"/><path d="M225.34303,-9.57729c0,2.20091 -1.78419,3.98509 -3.98509,3.98509c-2.20091,0 -3.98509,-1.78419 -3.98509,-3.98509c0,-2.20091 1.78419,-3.98509 3.98509,-3.98509c2.20091,0 3.98509,1.78419 3.98509,3.98509z" fill="url(#color-23)" stroke="url(#color-24)" stroke-width="3" stroke-linecap="butt"/><path d="M221.84098,4.31015c-7.66982,0 -13.88744,-6.16355 -13.88744,-13.76668c0,-7.60313 6.21762,-13.76668 13.88744,-13.76668c7.66982,0 13.88744,6.16355 13.88744,13.76668c0,7.60313 -6.21762,13.76668 -13.88744,13.76668z" fill="url(#color-25)" stroke="url(#color-26)" stroke-width="0" stroke-linecap="butt"/><path d="M222.01057,-0.27087c-5.13545,0 -9.29855,-4.1269 -9.29855,-9.21769c0,-5.09079 4.16311,-9.21769 9.29855,-9.21769c5.13544,0 9.29855,4.1269 9.29855,9.21769c0,5.09079 -4.16311,9.21769 -9.29855,9.21769z" fill="url(#color-27)" stroke="url(#color-28)" stroke-width="0" stroke-linecap="butt"/><path d="M221.86333,-3.16911c-3.45347,0 -6.25306,-2.77525 -6.25306,-6.19869c0,-3.42344 2.79959,-6.19868 6.25306,-6.19868c3.45347,0 6.25306,2.77524 6.25306,6.19868c0,3.42344 -2.79959,6.19869 -6.25306,6.19869z" fill="url(#color-29)" stroke="url(#color-30)" stroke-width="0" stroke-linecap="butt"/><path d="M302.30308,168.40643v-59.03938c0,0 1.51007,-7.28236 9.58147,-7.12544c7.98749,0.15529 9.03395,7.12544 9.03395,7.12544v59.03938c0,0 -1.21725,6.17355 -9.3077,6.36201c-8.24999,0.19216 -9.3077,-6.36201 -9.3077,-6.36201z" fill="url(#color-31)" stroke="url(#color-32)" stroke-width="0.5" stroke-linecap="butt"/><path d="M282.3914,168.17464v-59.03938c0,0 1.51009,-7.28237 9.58147,-7.12544c7.98749,0.15529 9.03395,7.12544 9.03395,7.12544v59.03938c0,0 -1.21725,6.17355 -9.30772,6.36199c-8.24998,0.19217 -9.30772,-6.36199 -9.30772,-6.36199z" fill="url(#color-33)" stroke="url(#color-34)" stroke-width="0.5" stroke-linecap="butt"/><path d="M281.10502,123.68446v-5.99122h41.62317v5.99122z" fill="url(#color-35)" stroke="url(#color-36)" stroke-width="1.5" stroke-linecap="butt"/><path d="M281.10502,156.7938v-5.99121h41.62319v5.99121z" fill="url(#color-37)" stroke="url(#color-38)" stroke-width="1.5" stroke-linecap="butt"/></g></g></svg>