<svg version="1.1" xmlns="http://www.w3.org/2000/svg" xmlns:xlink="http://www.w3.org/1999/xlink" width="179.52101" height="177.92884" viewBox="0,0,179.52101,177.92884"><defs><radialGradient cx="239.94162" cy="180.1183" r="76.42773" gradientUnits="userSpaceOnUse" id="color-1"><stop offset="0" stop-color="#dcb094"/><stop offset="1" stop-color="#50402f"/></radialGradient><radialGradient cx="240.21613" cy="179.66378" r="77.24316" gradientUnits="userSpaceOnUse" id="color-2"><stop offset="0" stop-color="#cca288"/><stop offset="1" stop-color="#3d3124"/></radialGradient><radialGradient cx="239.7538" cy="179.38851" r="76.42773" gradientUnits="userSpaceOnUse" id="color-3"><stop offset="0" stop-color="#ffcbab"/><stop offset="1" stop-color="#544331"/></radialGradient><radialGradient cx="240.22266" cy="179.1207" r="77.24316" gradientUnits="userSpaceOnUse" id="color-4"><stop offset="0" stop-color="#bc957e"/><stop offset="1" stop-color="#33291e"/></radialGradient><radialGradient cx="240" cy="180.00002" r="77.453" gradientUnits="userSpaceOnUse" id="color-5"><stop offset="0" stop-color="#735545" stop-opacity="0.30645"/><stop offset="1" stop-color="#735545" stop-opacity="0"/></radialGradient><radialGradient cx="240" cy="180.00005" r="62.88062" gradientUnits="userSpaceOnUse" id="color-6"><stop offset="0" stop-color="#ea9d73" stop-opacity="0.62903"/><stop offset="1" stop-color="#ea9d73" stop-opacity="0"/></radialGradient><radialGradient cx="240" cy="180.00005" r="53.23366" gradientUnits="userSpaceOnUse" id="color-7"><stop offset="0" stop-color="#ff8c4e"/><stop offset="1" stop-color="#ff8c4e" stop-opacity="0"/></radialGradient><radialGradient cx="240.00001" cy="180.00005" r="43.77423" gradientUnits="userSpaceOnUse" id="color-8"><stop offset="0" stop-color="#ff631f"/><stop offset="1" stop-color="#ff8340"/></radialGradient><radialGradient cx="239.89641" cy="180.21094" r="77.9195" gradientUnits="userSpaceOnUse" id="color-9"><stop offset="0" stop-color="#080504"/><stop offset="1" stop-color="#21150d"/></radialGradient><radialGradient cx="239.99506" cy="180" r="77.09693" gradientUnits="userSpaceOnUse" id="color-10"><stop offset="0" stop-color="#110b08"/><stop offset="1" stop-color="#26180e"/></radialGradient><radialGradient cx="239.12646" cy="179.96853" r="77.91951" gradientUnits="userSpaceOnUse" id="color-11"><stop offset="0" stop-color="#170e0b"/><stop offset="1" stop-color="#332014"/></radialGradient><radialGradient cx="239.32514" cy="179.8841" r="77.09693" gradientUnits="userSpaceOnUse" id="color-12"><stop offset="0" stop-color="#231511"/><stop offset="1" stop-color="#312014"/></radialGradient><radialGradient cx="240.00001" cy="180" r="88.94958" gradientUnits="userSpaceOnUse" id="color-13"><stop offset="0" stop-color="#ffffff" stop-opacity="0.26479"/><stop offset="1" stop-color="#ffffff" stop-opacity="0"/></radialGradient><linearGradient x1="231.14401" y1="268.50762" x2="248.856" y2="91.49238" gradientUnits="userSpaceOnUse" id="color-14"><stop offset="0" stop-color="#080808"/><stop offset="1" stop-color="#414141"/></linearGradient></defs><g transform="translate(-150.2395,-91.03558)"><g data-paper-data="{&quot;isPaintingLayer&quot;:true}" fill-rule="nonzero" stroke-linecap="butt" stroke-linejoin="miter" stroke-miterlimit="10" stroke-dasharray="" stroke-dashoffset="0" style="mix-blend-mode: normal"><path d="M273.726,258.43604c0,0 -20.1012,-14.75688 -51.6734,-78.05068c-27.14953,-54.42755 -23.45708,-72.68897 -23.45708,-72.68897l5.87046,-5.98516c0,0 10.19054,46.5703 25.22557,74.82313c18.79468,35.3177 51.63329,76.52482 51.63329,76.52482z" data-paper-data="{&quot;index&quot;:null}" fill="url(#color-1)" stroke="#676767" stroke-width="0"/><path d="M322.14316,163.44466c0,0 -52.6424,2.27569 -91.62315,11.28016c-31.18314,7.20324 -73.00492,30.08505 -73.00492,30.08505l0.66173,-8.35743c0,0 11.35259,-14.77269 70.23405,-30.01831c68.47326,-17.72913 92.8006,-12.25149 92.8006,-12.25149z" data-paper-data="{&quot;index&quot;:null}" fill="url(#color-2)" stroke="#676767" stroke-width="0"/><path d="M160.51156,151.93649c0,0 46.48452,24.8111 84.62764,36.88099c30.51305,9.65546 78.15955,11.22116 78.15955,11.22116l-4.81983,6.85958c0,0 -17.28749,6.94669 -75.73977,-9.86955c-67.97417,-19.5556 -86.13542,-36.6434 -86.13542,-36.6434z" data-paper-data="{&quot;index&quot;:null}" fill="url(#color-3)" stroke="#676767" stroke-width="0"/><path d="M280.88796,104.58301c0,0 0.66906,24.92742 -29.96871,88.67878c-26.346,54.82101 -43.03546,63.10206 -43.03546,63.10206l-8.32761,-0.96717c0,0 30.5385,-36.60654 43.63686,-65.8077c16.3737,-36.50316 28.78798,-87.71143 28.78798,-87.71143z" data-paper-data="{&quot;index&quot;:null}" fill="url(#color-4)" stroke="#676767" stroke-width="0"/><path d="M162.547,180.00002c0,-42.77597 34.67686,-77.453 77.453,-77.453c42.77597,0 77.453,34.67686 77.453,77.453c0,42.77597 -34.67686,77.453 -77.453,77.453c-42.77597,0 -77.453,-34.67686 -77.453,-77.453z" fill="url(#color-5)" stroke="none" stroke-width="0.5"/><path d="M177.11939,180.00005c0,-34.72789 28.15259,-62.88062 62.88062,-62.88062c34.72789,0 62.88062,28.15259 62.88062,62.88062c0,34.72789 -28.15259,62.88062 -62.88062,62.88062c-34.72789,0 -62.88062,-28.15259 -62.88062,-62.88062z" fill="url(#color-6)" stroke="none" stroke-width="0.5"/><path d="M186.76634,180.00005c0,-29.40004 23.8335,-53.23366 53.23366,-53.23366c29.40004,0 53.23366,23.8335 53.23366,53.23366c0,29.40004 -23.8335,53.23366 -53.23366,53.23366c-29.40004,0 -53.23366,-23.8335 -53.23366,-53.23366z" fill="url(#color-7)" stroke="none" stroke-width="0.5"/><path d="M196.22578,180.00005c0,-24.17577 19.59837,-43.77423 43.77423,-43.77423c24.17577,0 43.77423,19.59837 43.77423,43.77423c0,24.17577 -19.59837,43.77423 -43.77423,43.77423c-24.17577,0 -43.77423,-19.59837 -43.77423,-43.77423z" fill="url(#color-8)" stroke="none" stroke-width="0.5"/><path d="M198.93084,255.40128c0,0 -3.42545,-25.83346 27.48058,-90.14303c26.57669,-55.30103 46.16281,-62.96681 46.16281,-62.96681l8.40052,0.97565c0,0 -27.02399,39.334 -40.23703,68.79085c-16.51708,36.82279 -32.82195,86.07251 -32.82195,86.07251z" fill="url(#color-9)" stroke="#676767" stroke-width="0"/><path d="M319.67491,208.60201c0,0 -47.40285,-21.0797 -85.75602,-33.64019c-30.6811,-10.04792 -77.9621,-16.52604 -77.9621,-16.52604l4.93111,-6.87057c0,0 18.8503,-9.32988 77.64147,8.22354c68.36826,20.41287 85.1728,40.33042 85.1728,40.33042z" data-paper-data="{&quot;index&quot;:null}" fill="url(#color-10)" stroke="#676767" stroke-width="0"/><path d="M156.53701,196.49705c0,0 51.45572,-6.61 90.75323,-15.79901c31.43653,-7.35086 75.20354,-26.37476 75.20354,-26.37476l-0.64485,8.43237c0,0 -11.26146,17.76401 -70.61693,33.30276c-69.02447,18.07002 -93.73002,9.7792 -93.73002,9.7792z" data-paper-data="{&quot;index&quot;:null}" fill="url(#color-11)" stroke="#676767" stroke-width="0"/><path d="M204.44116,101.17727c0,0 22.62135,12.9374 55.0282,76.5039c27.86728,54.66205 22.08956,74.88575 22.08956,74.88575l-5.86873,6.08922c0,0 -14.89795,-45.33774 -30.31377,-73.70397c-19.27069,-35.45945 -48.55281,-78.28398 -48.55281,-78.28398z" data-paper-data="{&quot;index&quot;:null}" fill="url(#color-12)" stroke="#676767" stroke-width="0"/><path d="M329.3159,188.93687c-4.89103,48.88141 -48.84408,84.50644 -98.17189,79.57074c-49.32782,-4.9357 -85.35094,-48.56308 -80.45992,-97.44449c4.89103,-48.88141 48.8441,-84.50644 98.1719,-79.57074c49.32781,4.9357 85.35093,48.56308 80.4599,97.44449z" fill="url(#color-13)" stroke="url(#color-14)" stroke-width="0"/></g></g></svg>