<svg version="1.1" xmlns="http://www.w3.org/2000/svg" xmlns:xlink="http://www.w3.org/1999/xlink" width="66.2" height="84.83311" viewBox="0,0,66.2,84.83311"><defs><linearGradient x1="223.5" y1="150.56666" x2="223.5" y2="189.36666" gradientUnits="userSpaceOnUse" id="color-1"><stop offset="0" stop-color="#95979c" stop-opacity="0.30066"/><stop offset="1" stop-color="#969697" stop-opacity="0.20388"/></linearGradient><linearGradient x1="223.5" y1="150.56666" x2="223.5" y2="189.36666" gradientUnits="userSpaceOnUse" id="color-2"><stop offset="0" stop-color="#131313"/><stop offset="1" stop-color="#080808"/></linearGradient><linearGradient x1="223.4" y1="170.01109" x2="223.4" y2="188.6111" gradientUnits="userSpaceOnUse" id="color-3"><stop offset="0" stop-color="#40a4ff" stop-opacity="0.74194"/><stop offset="1" stop-color="#245e96" stop-opacity="0.66129"/></linearGradient><linearGradient x1="223.4" y1="170.01109" x2="223.4" y2="188.6111" gradientUnits="userSpaceOnUse" id="color-4"><stop offset="0" stop-color="#000000" stop-opacity="0"/><stop offset="1" stop-color="#000000" stop-opacity="0"/></linearGradient><linearGradient x1="256.5" y1="150.56666" x2="256.5" y2="189.36666" gradientUnits="userSpaceOnUse" id="color-5"><stop offset="0" stop-color="#95979c" stop-opacity="0.30066"/><stop offset="1" stop-color="#969697" stop-opacity="0.20388"/></linearGradient><linearGradient x1="256.5" y1="150.56666" x2="256.5" y2="189.36666" gradientUnits="userSpaceOnUse" id="color-6"><stop offset="0" stop-color="#131313"/><stop offset="1" stop-color="#080808"/></linearGradient><linearGradient x1="256.4" y1="181.60156" x2="256.4" y2="188.6111" gradientUnits="userSpaceOnUse" id="color-7"><stop offset="0" stop-color="#9a69ff" stop-opacity="0.81452"/><stop offset="1" stop-color="#752496" stop-opacity="0.65995"/></linearGradient><linearGradient x1="256.4" y1="181.60156" x2="256.4" y2="188.6111" gradientUnits="userSpaceOnUse" id="color-8"><stop offset="0" stop-color="#000000" stop-opacity="0"/><stop offset="1" stop-color="#000000" stop-opacity="0"/></linearGradient><linearGradient x1="223.5" y1="189.56666" x2="223.5" y2="193.16666" gradientUnits="userSpaceOnUse" id="color-9"><stop offset="0" stop-color="#353538"/><stop offset="1" stop-color="#2e2d31"/></linearGradient><linearGradient x1="223.5" y1="189.56666" x2="223.5" y2="193.16666" gradientUnits="userSpaceOnUse" id="color-10"><stop offset="0" stop-color="#131313"/><stop offset="1" stop-color="#080808"/></linearGradient><linearGradient x1="256.5" y1="189.56666" x2="256.5" y2="193.16666" gradientUnits="userSpaceOnUse" id="color-11"><stop offset="0" stop-color="#353538"/><stop offset="1" stop-color="#2e2d31"/></linearGradient><linearGradient x1="256.5" y1="189.56666" x2="256.5" y2="193.16666" gradientUnits="userSpaceOnUse" id="color-12"><stop offset="0" stop-color="#131313"/><stop offset="1" stop-color="#080808"/></linearGradient><linearGradient x1="230.2" y1="140.81111" x2="230.2" y2="192.61111" gradientUnits="userSpaceOnUse" id="color-13"><stop offset="0" stop-color="#beffb5"/><stop offset="1" stop-color="#099219"/></linearGradient><linearGradient x1="249.6" y1="140.81111" x2="249.6" y2="192.61111" gradientUnits="userSpaceOnUse" id="color-14"><stop offset="0" stop-color="#ffdcb5"/><stop offset="1" stop-color="#d66400"/></linearGradient><linearGradient x1="223.3" y1="147.56666" x2="223.3" y2="150.36666" gradientUnits="userSpaceOnUse" id="color-15"><stop offset="0" stop-color="#3a3b3f"/><stop offset="1" stop-color="#29272a"/></linearGradient><linearGradient x1="223.3" y1="147.56666" x2="223.3" y2="150.36666" gradientUnits="userSpaceOnUse" id="color-16"><stop offset="0" stop-color="#131313"/><stop offset="1" stop-color="#080808"/></linearGradient><linearGradient x1="256.5" y1="147.56666" x2="256.5" y2="150.36666" gradientUnits="userSpaceOnUse" id="color-17"><stop offset="0" stop-color="#3a3b3f"/><stop offset="1" stop-color="#29272a"/></linearGradient><linearGradient x1="256.5" y1="147.56666" x2="256.5" y2="150.36666" gradientUnits="userSpaceOnUse" id="color-18"><stop offset="0" stop-color="#131313"/><stop offset="1" stop-color="#080808"/></linearGradient><linearGradient x1="240" y1="193.18889" x2="240" y2="219.18889" gradientUnits="userSpaceOnUse" id="color-19"><stop offset="0" stop-color="#393c42"/><stop offset="1" stop-color="#252126"/></linearGradient><linearGradient x1="240" y1="193.18889" x2="240" y2="219.18889" gradientUnits="userSpaceOnUse" id="color-20"><stop offset="0" stop-color="#131313"/><stop offset="1" stop-color="#080808"/></linearGradient><linearGradient x1="240" y1="195.11904" x2="240" y2="216.85873" gradientUnits="userSpaceOnUse" id="color-21"><stop offset="0" stop-color="#eaeff8"/><stop offset="1" stop-color="#bdbabe"/></linearGradient><linearGradient x1="240" y1="195.11904" x2="240" y2="216.85873" gradientUnits="userSpaceOnUse" id="color-22"><stop offset="0" stop-color="#131313"/><stop offset="1" stop-color="#080808"/></linearGradient><radialGradient cx="239.4" cy="200.78889" r="3.8" gradientUnits="userSpaceOnUse" id="color-23"><stop offset="0" stop-color="#f2d1a3"/><stop offset="1" stop-color="#a95f38"/></radialGradient><linearGradient x1="240" y1="197.98889" x2="240" y2="205.58889" gradientUnits="userSpaceOnUse" id="color-24"><stop offset="0" stop-color="#131313"/><stop offset="1" stop-color="#080808"/></linearGradient><radialGradient cx="242.07014" cy="201.3" r="3.37014" gradientUnits="userSpaceOnUse" id="color-25"><stop offset="0" stop-color="#e8c189"/><stop offset="1" stop-color="#d68b62"/></radialGradient><linearGradient x1="242.95701" y1="200.3" x2="242.95701" y2="203.3" gradientUnits="userSpaceOnUse" id="color-26"><stop offset="0" stop-color="#131313"/><stop offset="1" stop-color="#080808"/></linearGradient><radialGradient cx="234.60063" cy="164.42334" r="32.6" gradientUnits="userSpaceOnUse" id="color-27"><stop offset="0" stop-color="#429ee9" stop-opacity="0"/><stop offset="1" stop-color="#429ee9" stop-opacity="0.17162"/></radialGradient><linearGradient x1="240" y1="138.08343" x2="240" y2="221.91655" gradientUnits="userSpaceOnUse" id="color-28"><stop offset="0" stop-color="#2d3b45"/><stop offset="1" stop-color="#1d2836"/></linearGradient></defs><g transform="translate(-206.9,-137.58344)"><g data-paper-data="{&quot;isPaintingLayer&quot;:true}" fill-rule="nonzero" stroke-linejoin="miter" stroke-miterlimit="10" stroke-dasharray="" stroke-dashoffset="0" style="mix-blend-mode: normal"><path d="M212.8,189.36666v-38.8h21.4v38.8z" data-paper-data="{&quot;index&quot;:null}" fill="url(#color-1)" stroke="url(#color-2)" stroke-width="1.5" stroke-linecap="butt"/><path d="M213.4,188.6111v-18.6h20v18.6z" data-paper-data="{&quot;index&quot;:null}" fill="url(#color-3)" stroke="url(#color-4)" stroke-width="0" stroke-linecap="butt"/><path d="M245.8,189.36666v-38.8h21.4v38.8z" data-paper-data="{&quot;index&quot;:null}" fill="url(#color-5)" stroke="url(#color-6)" stroke-width="1.5" stroke-linecap="butt"/><path d="M246.4,188.6111v-7.00952h20v7.00952z" data-paper-data="{&quot;index&quot;:null}" fill="url(#color-7)" stroke="url(#color-8)" stroke-width="0" stroke-linecap="butt"/><path d="M209.3,193.16666v-3.6h28.4v3.6z" data-paper-data="{&quot;index&quot;:null}" fill="url(#color-9)" stroke="url(#color-10)" stroke-width="1.5" stroke-linecap="butt"/><path d="M242.3,193.16666v-3.6h28.4v3.6z" data-paper-data="{&quot;index&quot;:null}" fill="url(#color-11)" stroke="url(#color-12)" stroke-width="1.5" stroke-linecap="butt"/><path d="M223,147.21111v-6.4h14.19429l0.20571,51.8" data-paper-data="{&quot;index&quot;:null}" fill="none" stroke="url(#color-13)" stroke-width="1.5" stroke-linecap="round"/><path d="M242.4,192.61111l0.20571,-51.8h14.19429v6.4" data-paper-data="{&quot;index&quot;:null}" fill="none" stroke="url(#color-14)" stroke-width="1.5" stroke-linecap="round"/><path d="M211.5,150.36666v-2.8h23.6v2.8z" data-paper-data="{&quot;index&quot;:null}" fill="url(#color-15)" stroke="url(#color-16)" stroke-width="1.5" stroke-linecap="butt"/><path d="M244.7,150.36666v-2.8h23.6v2.8z" data-paper-data="{&quot;index&quot;:null}" fill="url(#color-17)" stroke="url(#color-18)" stroke-width="1.5" stroke-linecap="butt"/><path d="M209.08397,219.18889v-26h61.83207v26z" fill="url(#color-19)" stroke="url(#color-20)" stroke-width="1.5" stroke-linecap="butt"/><path d="M250.7,205.98889c0,6.00325 -4.79055,10.86984 -10.7,10.86984c-5.90945,0 -10.7,-4.86659 -10.7,-10.86984c0,-6.00325 4.79055,-10.86984 10.7,-10.86984c5.90945,0 10.7,4.86659 10.7,10.86984z" fill="url(#color-21)" stroke="url(#color-22)" stroke-width="1.5" stroke-linecap="butt"/><path d="M243.8,201.78889c0,2.09868 -1.70132,3.8 -3.8,3.8c-2.09868,0 -3.8,-1.70132 -3.8,-3.8c0,-2.09868 1.70132,-3.8 3.8,-3.8c2.09868,0 3.8,1.70132 3.8,3.8z" fill="url(#color-23)" stroke="url(#color-24)" stroke-width="1" stroke-linecap="butt"/><path d="M239.58688,203.3c0,0 -0.88688,-1.04664 -0.88688,-1.55556c0,-0.4904 0.88688,-1.44444 0.88688,-1.44444h6.74027c0,0 1.08396,1.08634 1.08396,1.55556c0,0.5246 -1.08396,1.44444 -1.08396,1.44444z" fill="url(#color-25)" stroke="url(#color-26)" stroke-width="0.75" stroke-linecap="butt"/><path d="M207.4,221.91655v-83.83311h65.2v83.83311z" fill="url(#color-27)" stroke="url(#color-28)" stroke-width="1" stroke-linecap="butt"/></g></g></svg>