<svg version="1.1" xmlns="http://www.w3.org/2000/svg" xmlns:xlink="http://www.w3.org/1999/xlink" width="348.70032" height="377.94031" viewBox="0,0,348.70032,377.94031"><defs><linearGradient x1="217.33334" y1="68.896" x2="262.66666" y2="68.896" gradientUnits="userSpaceOnUse" id="color-1"><stop offset="0" stop-color="#cdd3da"/><stop offset="1" stop-color="#9da3ab"/></linearGradient><linearGradient x1="208.83333" y1="173.89601" x2="271.16667" y2="173.89601" gradientUnits="userSpaceOnUse" id="color-2"><stop offset="0" stop-color="#b2b8bd"/><stop offset="1" stop-color="#8c9298"/></linearGradient><linearGradient x1="207.5" y1="178.22935" x2="272.5" y2="178.22935" gradientUnits="userSpaceOnUse" id="color-3"><stop offset="0" stop-color="#777c7f"/><stop offset="1" stop-color="#5f6368"/></linearGradient><radialGradient cx="223.42059" cy="-64.58705" r="24.95866" gradientUnits="userSpaceOnUse" id="color-4"><stop offset="0" stop-color="#bec4ca"/><stop offset="1" stop-color="#8c9098"/></radialGradient><linearGradient x1="258.14605" y1="-52.01359" x2="268.25794" y2="-54.84186" gradientUnits="userSpaceOnUse" id="color-5"><stop offset="0" stop-color="#f0f7ff"/><stop offset="1" stop-color="#afb6be"/></linearGradient><linearGradient x1="266.93431" y1="-54.47165" x2="421.94069" y2="-97.82691" gradientUnits="userSpaceOnUse" id="color-6"><stop offset="0" stop-color="#f0f7ff"/><stop offset="1" stop-color="#afb6be"/></linearGradient><linearGradient x1="405.64032" y1="-92.68529" x2="443.00432" y2="-103.13599" gradientUnits="userSpaceOnUse" id="color-7"><stop offset="0" stop-color="#cbe3ff"/><stop offset="1" stop-color="#86a1bf"/></linearGradient><linearGradient x1="235.72504" y1="-28.8826" x2="233.09357" y2="-18.71768" gradientUnits="userSpaceOnUse" id="color-8"><stop offset="0" stop-color="#f0f7ff"/><stop offset="1" stop-color="#afb6be"/></linearGradient><linearGradient x1="233.43802" y1="-20.04827" x2="193.09989" y2="135.77052" gradientUnits="userSpaceOnUse" id="color-9"><stop offset="0" stop-color="#f0f7ff"/><stop offset="1" stop-color="#afb6be"/></linearGradient><linearGradient x1="197.92412" y1="119.37343" x2="188.20068" y2="156.93323" gradientUnits="userSpaceOnUse" id="color-10"><stop offset="0" stop-color="#cbe3ff"/><stop offset="1" stop-color="#86a1bf"/></linearGradient><linearGradient x1="226.93601" y1="-60.25222" x2="219.62636" y2="-67.79007" gradientUnits="userSpaceOnUse" id="color-11"><stop offset="0" stop-color="#f0f7ff"/><stop offset="1" stop-color="#afb6be"/></linearGradient><linearGradient x1="220.58319" y1="-66.80336" x2="108.53299" y2="-182.35167" gradientUnits="userSpaceOnUse" id="color-12"><stop offset="0" stop-color="#f0f7ff"/><stop offset="1" stop-color="#afb6be"/></linearGradient><linearGradient x1="120.82797" y1="-170.47853" x2="93.81848" y2="-198.33121" gradientUnits="userSpaceOnUse" id="color-13"><stop offset="0" stop-color="#cbe3ff"/><stop offset="1" stop-color="#86a1bf"/></linearGradient><radialGradient cx="246.40951" cy="-49.70747" r="20.5" gradientUnits="userSpaceOnUse" id="color-14"><stop offset="0" stop-color="#e6eef5"/><stop offset="1" stop-color="#c4cad5"/></radialGradient></defs><g transform="translate(-93.86306,198.04431)"><g data-paper-data="{&quot;isPaintingLayer&quot;:true}" fill-rule="nonzero" stroke="none" stroke-width="0" stroke-linecap="butt" stroke-linejoin="miter" stroke-miterlimit="10" stroke-dasharray="" stroke-dashoffset="0" style="mix-blend-mode: normal"><path d="M217.33334,171.22934l8.33333,-204.66667h28.66666l8.33333,204.66667z" fill="url(#color-1)"/><path d="M208.83333,176.89601v-6h62.33333v6z" fill="url(#color-2)"/><path d="M207.5,179.89601v-3.33333h65v3.33333z" fill="url(#color-3)"/><path d="M215.83335,-28.47866c0,-5.48483 0,-26.33483 0,-37c0,-3.59358 3.15873,-6.91731 6.33333,-6.91731c5.84411,0 25.85484,0 36,0c3.63233,0 6,3.22824 6,6.25065c0,10.40972 0,32.86094 0,38.66667c0,2.49943 -1.92973,5 -5,5c-10.75875,0 -34.18908,0 -39,0c-1.59078,0 -4.33333,-3.64513 -4.33333,-6z" fill="url(#color-4)"/><g><g data-paper-data="{&quot;index&quot;:null}"><path d="M260.03157,-45.2723l-3.77106,-13.48254l10.11191,-2.82829l3.77106,13.48255z" fill="url(#color-5)"/><path d="M269.59631,-44.95431l-5.324,-19.03468l140.2038,-33.65368l2.74787,9.82436z" fill="url(#color-6)"/><path d="M407.03144,-87.71169l-2.78222,-9.94717c0,0 37.5519,-8.21097 38.29744,-5.54773c0.90879,3.24637 -35.51521,15.49489 -35.51521,15.49489z" fill="url(#color-7)"/></g><g data-paper-data="{&quot;index&quot;:null}"><path d="M239.87018,-16.96336l-13.55322,-3.50863l2.63147,-10.16491l13.55321,3.50863z" fill="url(#color-8)"/><path d="M202.82091,120.86231l-9.87585,-2.55665l30.92574,-140.83067l19.13444,4.95351z" fill="url(#color-9)"/><path d="M188.1212,156.47704c-2.67722,-0.69371 4.80326,-38.39792 4.80326,-38.39792l9.99929,2.58861c0,0 -11.53916,36.65492 -14.80254,35.80931z" fill="url(#color-10)"/></g><g data-paper-data="{&quot;index&quot;:null}"><path d="M231.96123,-65.12531l-10.05045,9.74619l-7.30965,-7.53786l10.05046,-9.7462z" fill="url(#color-11)"/><path d="M227.6778,-73.6832l-14.18925,13.75969l-96.46211,-107.16688l7.32349,-7.10179z" fill="url(#color-12)"/><path d="M93.97477,-197.89532c2.4196,-2.3474 30.56071,23.82152 30.56071,23.82152l-7.41502,7.19055c0,0 -25.1307,-29.08633 -23.1457,-31.01207z" fill="url(#color-13)"/></g><path d="M236.25984,-26.77386c-11.12737,-2.08937 -18.45415,-12.80364 -16.36478,-23.93103c2.08937,-11.12737 12.80364,-18.45415 23.93102,-16.36477c11.12737,2.08937 18.45415,12.80364 16.36477,23.93102c-2.08937,11.12737 -12.80364,18.45415 -23.93102,16.36477z" data-paper-data="{&quot;index&quot;:null}" fill="url(#color-14)"/></g></g></g></svg>