<svg version="1.1" xmlns="http://www.w3.org/2000/svg" xmlns:xlink="http://www.w3.org/1999/xlink" width="59" height="59.70662" viewBox="0,0,59,59.70662"><defs><linearGradient x1="240" y1="151.64669" x2="240" y2="208.35331" gradientUnits="userSpaceOnUse" id="color-1"><stop offset="0" stop-color="#191919"/><stop offset="1" stop-color="#050505"/></linearGradient><linearGradient x1="240" y1="151.64669" x2="240" y2="208.35331" gradientUnits="userSpaceOnUse" id="color-2"><stop offset="0" stop-color="#cccccc"/><stop offset="1" stop-color="#898989"/></linearGradient><radialGradient cx="240" cy="180" r="26.8571" gradientUnits="userSpaceOnUse" id="color-3"><stop offset="0" stop-color="#ffffff" stop-opacity="0.35484"/><stop offset="1" stop-color="#ffffff" stop-opacity="0"/></radialGradient><linearGradient x1="240" y1="153.29211" x2="240" y2="206.70789" gradientUnits="userSpaceOnUse" id="color-4"><stop offset="0" stop-color="#cccccc"/><stop offset="1" stop-color="#898989"/></linearGradient><linearGradient x1="234.71943" y1="161.65084" x2="245.3379" y2="161.65084" gradientUnits="userSpaceOnUse" id="color-5"><stop offset="0" stop-color="#89959f"/><stop offset="1" stop-color="#2a3542"/></linearGradient><linearGradient x1="234.71943" y1="161.64751" x2="245.3379" y2="161.64751" gradientUnits="userSpaceOnUse" id="color-6"><stop offset="0" stop-color="#272727"/><stop offset="1" stop-color="#000000"/></linearGradient><linearGradient x1="237.36706" y1="157.03149" x2="242.60753" y2="157.03149" gradientUnits="userSpaceOnUse" id="color-7"><stop offset="0" stop-color="#f1f5f8"/><stop offset="1" stop-color="#6d7680"/></linearGradient><linearGradient x1="237.36706" y1="157.03107" x2="242.60753" y2="157.03107" gradientUnits="userSpaceOnUse" id="color-8"><stop offset="0" stop-color="#272727"/><stop offset="1" stop-color="#000000"/></linearGradient><linearGradient x1="236.17237" y1="159.72964" x2="243.9802" y2="159.72964" gradientUnits="userSpaceOnUse" id="color-9"><stop offset="0" stop-color="#3b4145"/><stop offset="1" stop-color="#171e25"/></linearGradient><linearGradient x1="245.2328" y1="186.71472" x2="250.496" y2="186.71472" gradientUnits="userSpaceOnUse" id="color-10"><stop offset="0" stop-color="#2c2f36"/><stop offset="1" stop-color="#191d1f"/></linearGradient><linearGradient x1="245.2328" y1="186.89554" x2="248.83275" y2="186.89554" gradientUnits="userSpaceOnUse" id="color-11"><stop offset="0" stop-color="#272727"/><stop offset="1" stop-color="#000000"/></linearGradient><linearGradient x1="234.7672" y1="186.65957" x2="229.504" y2="186.65957" gradientUnits="userSpaceOnUse" id="color-12"><stop offset="0" stop-color="#575e6b"/><stop offset="1" stop-color="#696d82"/></linearGradient><linearGradient x1="231.16725" y1="186.84038" x2="234.7672" y2="186.84038" gradientUnits="userSpaceOnUse" id="color-13"><stop offset="0" stop-color="#272727"/><stop offset="1" stop-color="#000000"/></linearGradient><linearGradient x1="234.75258" y1="182.45524" x2="245.24539" y2="182.45524" gradientUnits="userSpaceOnUse" id="color-14"><stop offset="0" stop-color="#535863"/><stop offset="1" stop-color="#1a1b21"/></linearGradient><linearGradient x1="234.75258" y1="182.45524" x2="245.24539" y2="182.45524" gradientUnits="userSpaceOnUse" id="color-15"><stop offset="0" stop-color="#272727"/><stop offset="1" stop-color="#000000"/></linearGradient><linearGradient x1="240.37407" y1="182.89812" x2="244.48972" y2="182.89812" gradientUnits="userSpaceOnUse" id="color-16"><stop offset="0" stop-color="#4a382c"/><stop offset="1" stop-color="#301f1b"/></linearGradient><linearGradient x1="240.37407" y1="182.89812" x2="244.48972" y2="182.89812" gradientUnits="userSpaceOnUse" id="color-17"><stop offset="0" stop-color="#351c12"/><stop offset="1" stop-color="#1a1310"/></linearGradient><linearGradient x1="240.363" y1="182.89967" x2="244.46913" y2="182.89967" gradientUnits="userSpaceOnUse" id="color-18"><stop offset="0" stop-color="#351c12"/><stop offset="1" stop-color="#1a1310"/></linearGradient><linearGradient x1="240.363" y1="182.86841" x2="244.46913" y2="182.86841" gradientUnits="userSpaceOnUse" id="color-19"><stop offset="0" stop-color="#351c12"/><stop offset="1" stop-color="#1a1310"/></linearGradient><linearGradient x1="235.45504" y1="182.91896" x2="239.5707" y2="182.91896" gradientUnits="userSpaceOnUse" id="color-20"><stop offset="0" stop-color="#4a382c"/><stop offset="1" stop-color="#301f1b"/></linearGradient><linearGradient x1="235.45504" y1="182.91896" x2="239.5707" y2="182.91896" gradientUnits="userSpaceOnUse" id="color-21"><stop offset="0" stop-color="#351c12"/><stop offset="1" stop-color="#1a1310"/></linearGradient><linearGradient x1="235.44398" y1="182.92051" x2="239.55011" y2="182.92051" gradientUnits="userSpaceOnUse" id="color-22"><stop offset="0" stop-color="#351c12"/><stop offset="1" stop-color="#1a1310"/></linearGradient><linearGradient x1="235.44398" y1="182.88925" x2="239.55011" y2="182.88925" gradientUnits="userSpaceOnUse" id="color-23"><stop offset="0" stop-color="#351c12"/><stop offset="1" stop-color="#1a1310"/></linearGradient><linearGradient x1="240.37407" y1="187.86243" x2="244.48972" y2="187.86243" gradientUnits="userSpaceOnUse" id="color-24"><stop offset="0" stop-color="#4a382c"/><stop offset="1" stop-color="#301f1b"/></linearGradient><linearGradient x1="240.37407" y1="187.86243" x2="244.48972" y2="187.86243" gradientUnits="userSpaceOnUse" id="color-25"><stop offset="0" stop-color="#351c12"/><stop offset="1" stop-color="#1a1310"/></linearGradient><linearGradient x1="240.363" y1="187.86398" x2="244.46913" y2="187.86398" gradientUnits="userSpaceOnUse" id="color-26"><stop offset="0" stop-color="#351c12"/><stop offset="1" stop-color="#1a1310"/></linearGradient><linearGradient x1="240.363" y1="187.83272" x2="244.46913" y2="187.83272" gradientUnits="userSpaceOnUse" id="color-27"><stop offset="0" stop-color="#351c12"/><stop offset="1" stop-color="#1a1310"/></linearGradient><linearGradient x1="235.45504" y1="187.88328" x2="239.5707" y2="187.88328" gradientUnits="userSpaceOnUse" id="color-28"><stop offset="0" stop-color="#4a382c"/><stop offset="1" stop-color="#301f1b"/></linearGradient><linearGradient x1="235.45504" y1="187.88328" x2="239.5707" y2="187.88328" gradientUnits="userSpaceOnUse" id="color-29"><stop offset="0" stop-color="#351c12"/><stop offset="1" stop-color="#1a1310"/></linearGradient><linearGradient x1="235.44398" y1="187.88483" x2="239.55011" y2="187.88483" gradientUnits="userSpaceOnUse" id="color-30"><stop offset="0" stop-color="#351c12"/><stop offset="1" stop-color="#1a1310"/></linearGradient><linearGradient x1="235.44398" y1="187.85356" x2="239.55011" y2="187.85356" gradientUnits="userSpaceOnUse" id="color-31"><stop offset="0" stop-color="#351c12"/><stop offset="1" stop-color="#1a1310"/></linearGradient><linearGradient x1="235.28385" y1="177.24923" x2="244.64985" y2="177.24923" gradientUnits="userSpaceOnUse" id="color-32"><stop offset="0" stop-color="#515151"/><stop offset="1" stop-color="#131313"/></linearGradient><linearGradient x1="235.28385" y1="177.24923" x2="244.64985" y2="177.24923" gradientUnits="userSpaceOnUse" id="color-33"><stop offset="0" stop-color="#272727"/><stop offset="1" stop-color="#000000"/></linearGradient><linearGradient x1="235.77166" y1="175.21124" x2="244.09699" y2="175.21124" gradientUnits="userSpaceOnUse" id="color-34"><stop offset="0" stop-color="#272727"/><stop offset="1" stop-color="#000000"/></linearGradient><linearGradient x1="235.80418" y1="179.3174" x2="243.99943" y2="179.3174" gradientUnits="userSpaceOnUse" id="color-35"><stop offset="0" stop-color="#272727"/><stop offset="1" stop-color="#000000"/></linearGradient><linearGradient x1="234.72044" y1="170.41503" x2="245.21325" y2="170.41503" gradientUnits="userSpaceOnUse" id="color-36"><stop offset="0" stop-color="#303030"/><stop offset="1" stop-color="#171717"/></linearGradient><linearGradient x1="234.72044" y1="170.41503" x2="245.21325" y2="170.41503" gradientUnits="userSpaceOnUse" id="color-37"><stop offset="0" stop-color="#272727"/><stop offset="1" stop-color="#000000"/></linearGradient><radialGradient cx="239.96685" cy="170.41503" r="4.35293" gradientUnits="userSpaceOnUse" id="color-38"><stop offset="0" stop-color="#734c45" stop-opacity="0.40995"/><stop offset="1" stop-color="#734c45" stop-opacity="0"/></radialGradient><radialGradient cx="239.96685" cy="170.39955" r="3.53395" gradientUnits="userSpaceOnUse" id="color-39"><stop offset="0" stop-color="#eb8c73" stop-opacity="0.60996"/><stop offset="1" stop-color="#eb8c73" stop-opacity="0"/></radialGradient><radialGradient cx="239.96685" cy="170.39955" r="2.99178" gradientUnits="userSpaceOnUse" id="color-40"><stop offset="0" stop-color="#ff734f" stop-opacity="0"/><stop offset="1" stop-color="#ff734f" stop-opacity="0.08997"/></radialGradient><radialGradient cx="239.96685" cy="170.39955" r="2.46015" gradientUnits="userSpaceOnUse" id="color-41"><stop offset="0" stop-color="#ffa282" stop-opacity="0.11996"/><stop offset="1" stop-color="#ffab8f"/></radialGradient><linearGradient x1="234.86809" y1="170.40813" x2="235.57136" y2="170.40813" gradientUnits="userSpaceOnUse" id="color-42"><stop offset="0" stop-color="#9d9d9d"/><stop offset="1" stop-color="#4c4c4c"/></linearGradient><linearGradient x1="234.86809" y1="170.40813" x2="235.57136" y2="170.40813" gradientUnits="userSpaceOnUse" id="color-43"><stop offset="0" stop-color="#272727"/><stop offset="1" stop-color="#000000"/></linearGradient><linearGradient x1="244.38302" y1="170.40813" x2="245.0863" y2="170.40813" gradientUnits="userSpaceOnUse" id="color-44"><stop offset="0" stop-color="#9d9d9d"/><stop offset="1" stop-color="#4c4c4c"/></linearGradient><linearGradient x1="244.38302" y1="170.40813" x2="245.0863" y2="170.40813" gradientUnits="userSpaceOnUse" id="color-45"><stop offset="0" stop-color="#272727"/><stop offset="1" stop-color="#000000"/></linearGradient><linearGradient x1="234.84888" y1="171.70904" x2="245.08482" y2="171.70904" gradientUnits="userSpaceOnUse" id="color-46"><stop offset="0" stop-color="#272727"/><stop offset="1" stop-color="#000000"/></linearGradient><linearGradient x1="234.84888" y1="171.72137" x2="245.08482" y2="171.72137" gradientUnits="userSpaceOnUse" id="color-47"><stop offset="0" stop-color="#272727"/><stop offset="1" stop-color="#000000"/></linearGradient><linearGradient x1="234.87252" y1="168.99048" x2="245.10845" y2="168.99048" gradientUnits="userSpaceOnUse" id="color-48"><stop offset="0" stop-color="#272727"/><stop offset="1" stop-color="#000000"/></linearGradient><linearGradient x1="234.87252" y1="169.00282" x2="245.10845" y2="169.00282" gradientUnits="userSpaceOnUse" id="color-49"><stop offset="0" stop-color="#272727"/><stop offset="1" stop-color="#000000"/></linearGradient><linearGradient x1="234.74766" y1="173.44911" x2="245.08998" y2="173.44911" gradientUnits="userSpaceOnUse" id="color-50"><stop offset="0" stop-color="#c7a895"/><stop offset="1" stop-color="#322c27"/></linearGradient><linearGradient x1="234.74766" y1="173.44911" x2="245.08998" y2="173.44911" gradientUnits="userSpaceOnUse" id="color-51"><stop offset="0" stop-color="#272727"/><stop offset="1" stop-color="#000000"/></linearGradient><linearGradient x1="234.79494" y1="167.39738" x2="245.13726" y2="167.39738" gradientUnits="userSpaceOnUse" id="color-52"><stop offset="0" stop-color="#c7a895"/><stop offset="1" stop-color="#322c27"/></linearGradient><linearGradient x1="234.79494" y1="167.39738" x2="245.13726" y2="167.39738" gradientUnits="userSpaceOnUse" id="color-53"><stop offset="0" stop-color="#272727"/><stop offset="1" stop-color="#000000"/></linearGradient><linearGradient x1="241.47063" y1="195.3946" x2="242.16844" y2="195.58245" gradientUnits="userSpaceOnUse" id="color-54"><stop offset="0" stop-color="#524c43"/><stop offset="1" stop-color="#36312c"/></linearGradient><linearGradient x1="241.47063" y1="195.3946" x2="242.16844" y2="195.58245" gradientUnits="userSpaceOnUse" id="color-55"><stop offset="0" stop-color="#1f1f1f"/><stop offset="1" stop-color="#000000"/></linearGradient><linearGradient x1="241.74413" y1="193.17216" x2="243.06467" y2="193.52764" gradientUnits="userSpaceOnUse" id="color-56"><stop offset="0" stop-color="#ab966a"/><stop offset="1" stop-color="#4f3f2d"/></linearGradient><linearGradient x1="241.74413" y1="193.17216" x2="243.06467" y2="193.52764" gradientUnits="userSpaceOnUse" id="color-57"><stop offset="0" stop-color="#1f1f1f"/><stop offset="1" stop-color="#000000"/></linearGradient><linearGradient x1="237.86856" y1="195.35509" x2="238.61165" y2="195.27133" gradientUnits="userSpaceOnUse" id="color-58"><stop offset="0" stop-color="#523f2b"/><stop offset="1" stop-color="#2e2316"/></linearGradient><linearGradient x1="237.86856" y1="195.35509" x2="238.61165" y2="195.27133" gradientUnits="userSpaceOnUse" id="color-59"><stop offset="0" stop-color="#1f1f1f"/><stop offset="1" stop-color="#000000"/></linearGradient><linearGradient x1="242.25665" y1="195.47734" x2="242.95446" y2="195.66519" gradientUnits="userSpaceOnUse" id="color-60"><stop offset="0" stop-color="#524c43"/><stop offset="1" stop-color="#36312c"/></linearGradient><linearGradient x1="242.25665" y1="195.47734" x2="242.95446" y2="195.66519" gradientUnits="userSpaceOnUse" id="color-61"><stop offset="0" stop-color="#1f1f1f"/><stop offset="1" stop-color="#000000"/></linearGradient><linearGradient x1="242.53015" y1="193.2549" x2="243.85069" y2="193.61038" gradientUnits="userSpaceOnUse" id="color-62"><stop offset="0" stop-color="#ab966a"/><stop offset="1" stop-color="#4f3f2d"/></linearGradient><linearGradient x1="242.53015" y1="193.2549" x2="243.85069" y2="193.61038" gradientUnits="userSpaceOnUse" id="color-63"><stop offset="0" stop-color="#1f1f1f"/><stop offset="1" stop-color="#000000"/></linearGradient><linearGradient x1="243.33498" y1="193.32182" x2="244.65552" y2="193.6773" gradientUnits="userSpaceOnUse" id="color-64"><stop offset="0" stop-color="#ab966a"/><stop offset="1" stop-color="#4f3f2d"/></linearGradient><linearGradient x1="243.33498" y1="193.32182" x2="244.65552" y2="193.6773" gradientUnits="userSpaceOnUse" id="color-65"><stop offset="0" stop-color="#1f1f1f"/><stop offset="1" stop-color="#000000"/></linearGradient><linearGradient x1="243.0706" y1="195.54565" x2="243.76841" y2="195.7335" gradientUnits="userSpaceOnUse" id="color-66"><stop offset="0" stop-color="#524c43"/><stop offset="1" stop-color="#36312c"/></linearGradient><linearGradient x1="243.0706" y1="195.54565" x2="243.76841" y2="195.7335" gradientUnits="userSpaceOnUse" id="color-67"><stop offset="0" stop-color="#1f1f1f"/><stop offset="1" stop-color="#000000"/></linearGradient><linearGradient x1="236.62748" y1="195.14824" x2="237.37057" y2="195.06448" gradientUnits="userSpaceOnUse" id="color-68"><stop offset="0" stop-color="#523f2b"/><stop offset="1" stop-color="#2e2316"/></linearGradient><linearGradient x1="236.62748" y1="195.14824" x2="237.37057" y2="195.06448" gradientUnits="userSpaceOnUse" id="color-69"><stop offset="0" stop-color="#1f1f1f"/><stop offset="1" stop-color="#000000"/></linearGradient><linearGradient x1="234.56264" y1="197.45293" x2="245.18111" y2="197.45293" gradientUnits="userSpaceOnUse" id="color-70"><stop offset="0" stop-color="#b8a687"/><stop offset="1" stop-color="#4a443b"/></linearGradient><linearGradient x1="234.56264" y1="197.45293" x2="245.18111" y2="197.45293" gradientUnits="userSpaceOnUse" id="color-71"><stop offset="0" stop-color="#1f1a11"/><stop offset="1" stop-color="#191100"/></linearGradient><linearGradient x1="238.19624" y1="194.04206" x2="241.57198" y2="194.04206" gradientUnits="userSpaceOnUse" id="color-72"><stop offset="0" stop-color="#5c503f"/><stop offset="1" stop-color="#241c12"/></linearGradient><linearGradient x1="237.10409" y1="196.57275" x2="242.53174" y2="196.57275" gradientUnits="userSpaceOnUse" id="color-73"><stop offset="0" stop-color="#5c503f"/><stop offset="1" stop-color="#241c12"/></linearGradient><linearGradient x1="236.18792" y1="199.36645" x2="243.47456" y2="199.36645" gradientUnits="userSpaceOnUse" id="color-74"><stop offset="0" stop-color="#5c503f"/><stop offset="1" stop-color="#241c12"/></linearGradient><linearGradient x1="235.21766" y1="202.14891" x2="244.48437" y2="202.14891" gradientUnits="userSpaceOnUse" id="color-75"><stop offset="0" stop-color="#5c503f"/><stop offset="1" stop-color="#241c12"/></linearGradient><linearGradient x1="234.6509" y1="191.91551" x2="245.24143" y2="191.91551" gradientUnits="userSpaceOnUse" id="color-76"><stop offset="0" stop-color="#a89d8a"/><stop offset="1" stop-color="#665a54"/></linearGradient><linearGradient x1="234.6509" y1="191.91551" x2="245.24143" y2="191.91551" gradientUnits="userSpaceOnUse" id="color-77"><stop offset="0" stop-color="#1f1f1f"/><stop offset="1" stop-color="#000000"/></linearGradient></defs><g transform="translate(-210.5,-150.14669)"><g data-paper-data="{&quot;isPaintingLayer&quot;:true}" fill-rule="nonzero" stroke-linejoin="miter" stroke-miterlimit="10" stroke-dasharray="" stroke-dashoffset="0" style="mix-blend-mode: normal"><path d="M212,208.35331v-56.70662h56v56.70662z" fill="url(#color-1)" stroke="url(#color-2)" stroke-width="3" stroke-linecap="butt"/><path d="M266.8571,180c0,14.75036 -12.02433,26.70789 -26.8571,26.70789c-14.83277,0 -26.8571,-11.95753 -26.8571,-26.70789c0,-14.75036 12.02433,-26.70789 26.8571,-26.70789c14.83277,0 26.8571,11.95753 26.8571,26.70789z" fill="url(#color-3)" stroke="url(#color-4)" stroke-width="0" stroke-linecap="butt"/><path d="M234.71943,166.96029c0,0 0.68292,-10.86181 5.2548,-10.61847c4.60007,-0.32462 5.36367,10.61847 5.36367,10.61847z" fill="url(#color-5)" stroke="url(#color-6)" stroke-width="0.375" stroke-linecap="butt"/><path d="M237.36706,157.70325c0,0 0.33704,-1.37426 2.59337,-1.34347c2.27024,-0.04107 2.6471,1.34347 2.6471,1.34347z" fill="url(#color-7)" stroke="url(#color-8)" stroke-width="0.375" stroke-linecap="butt"/><path d="M235.90546,161.07033c0,0 0.12954,-0.42009 0.31983,-0.92c0.22332,-0.58666 0.59322,-1.28326 1.87143,-1.53992c0.04959,-0.00996 0.98127,-0.15584 0.98127,-0.15584l2.02691,0.00625c0,0 0.70067,0.05001 0.74182,0.05977c1.20967,0.28676 1.66392,1.0068 1.91821,1.60885c0.21682,0.51334 0.34874,0.9409 0.34874,0.9409z" data-paper-data="{&quot;index&quot;:null}" fill="url(#color-9)" stroke="#000000" stroke-width="0.375" stroke-linecap="butt"/><path d="M238.06824,159.82618c0,-0.51591 0.41823,-0.93414 0.93414,-0.93414c0.51591,0 0.93414,0.41823 0.93414,0.93414c0,0.51591 -0.41823,0.93414 -0.93414,0.93414c-0.51591,0 -0.93414,-0.41823 -0.93414,-0.93414z" fill="#ff0000" stroke="none" stroke-width="0.375" stroke-linecap="butt"/><path d="M240.22745,159.84664c0,-0.51591 0.41823,-0.93414 0.93414,-0.93414c0.51591,0 0.93414,0.41823 0.93414,0.93414c0,0.51591 -0.41823,0.93414 -0.93414,0.93414c-0.51591,0 -0.93414,-0.41823 -0.93414,-0.93414z" fill="#4bff00" stroke="none" stroke-width="0.375" stroke-linecap="butt"/><path d="M245.2328,191.03244v-10.73147c0,0 1.35048,7.20381 1.82264,8.94312c0.37356,1.3761 1.77731,4.24602 1.77731,4.24602z" fill="url(#color-10)" stroke="url(#color-11)" stroke-width="0.375" stroke-linecap="butt"/><path d="M231.16725,193.43495c0,0 1.40375,-2.86992 1.77731,-4.24602c0.47216,-1.73931 1.82264,-8.94312 1.82264,-8.94312v10.73147z" data-paper-data="{&quot;index&quot;:null}" fill="url(#color-12)" stroke="url(#color-13)" stroke-width="0.375" stroke-linecap="butt"/><path d="M234.75258,191.06311v-17.21575h10.49281v17.21575z" fill="url(#color-14)" stroke="url(#color-15)" stroke-width="0.375" stroke-linecap="butt"/><g stroke-width="0.375"><path d="M240.37407,185.04062v-4.285h4.11565v4.285z" fill="url(#color-16)" stroke="url(#color-17)" stroke-linecap="butt"/><path d="M244.46913,180.81534l-4.10613,4.16866" fill="none" stroke="url(#color-18)" stroke-linecap="round"/><path d="M240.40468,180.77365l4.06445,4.23119" fill="none" stroke="url(#color-19)" stroke-linecap="round"/></g><g stroke-width="0.375"><path d="M235.45504,185.06146v-4.285h4.11565v4.285z" fill="url(#color-20)" stroke="url(#color-21)" stroke-linecap="butt"/><path d="M239.55011,180.83618l-4.10613,4.16866" fill="none" stroke="url(#color-22)" stroke-linecap="round"/><path d="M239.55011,185.02569l-4.06445,-4.23119" fill="none" stroke="url(#color-23)" stroke-linecap="round"/></g><g stroke-width="0.375"><path d="M240.37407,190.00493v-4.285h4.11565v4.285z" fill="url(#color-24)" stroke="url(#color-25)" stroke-linecap="butt"/><path d="M240.363,189.94832l4.10613,-4.16866" fill="none" stroke="url(#color-26)" stroke-linecap="round"/><path d="M244.46913,189.96916l-4.06445,-4.23119" fill="none" stroke="url(#color-27)" stroke-linecap="round"/></g><g stroke-width="0.375"><path d="M235.45504,190.02578v-4.285h4.11565v4.285z" fill="url(#color-28)" stroke="url(#color-29)" stroke-linecap="butt"/><path d="M239.55011,185.8005l-4.10613,4.16866" fill="none" stroke="url(#color-30)" stroke-linecap="round"/><path d="M239.55011,189.99l-4.06445,-4.23119" fill="none" stroke="url(#color-31)" stroke-linecap="round"/></g><g stroke-width="0.375"><path d="M235.28385,179.83067v-5.16288h9.366v5.16288z" fill="url(#color-32)" stroke="url(#color-33)" stroke-linecap="butt"/><path d="M244.09699,175.21124h-8.32534" fill="none" stroke="url(#color-34)" stroke-linecap="round"/><path d="M235.80418,179.3174h8.19525" fill="none" stroke="url(#color-35)" stroke-linecap="round"/></g><g stroke-width="0.375"><path d="M234.72044,173.85174v-6.87343h10.49281v6.87343z" fill="url(#color-36)" stroke="url(#color-37)" stroke-linecap="butt"/><path d="M235.61392,170.41503c0,-2.40405 1.94887,-4.35293 4.35293,-4.35293c2.40405,0 4.35293,1.94887 4.35293,4.35293c0,2.40405 -1.94887,4.35293 -4.35293,4.35293c-2.40405,0 -4.35293,-1.94887 -4.35293,-4.35293z" fill="url(#color-38)" stroke="none" stroke-linecap="butt"/><path d="M236.4329,170.39955c0,-1.95174 1.5822,-3.53395 3.53395,-3.53395c1.95174,0 3.53395,1.5822 3.53395,3.53395c0,1.95174 -1.5822,3.53395 -3.53395,3.53395c-1.95174,0 -3.53395,-1.5822 -3.53395,-3.53395z" fill="url(#color-39)" stroke="none" stroke-linecap="butt"/><path d="M236.97507,170.39955c0,-1.65231 1.33946,-2.99178 2.99178,-2.99178c1.65231,0 2.99178,1.33946 2.99178,2.99178c0,1.65231 -1.33946,2.99178 -2.99178,2.99178c-1.65231,0 -2.99178,-1.33946 -2.99178,-2.99178z" fill="url(#color-40)" stroke="none" stroke-linecap="butt"/><path d="M237.5067,170.39955c0,-1.3587 1.10145,-2.46015 2.46015,-2.46015c1.3587,0 2.46015,1.10145 2.46015,2.46015c0,1.3587 -1.10145,2.46015 -2.46015,2.46015c-1.3587,0 -2.46015,-1.10145 -2.46015,-2.46015z" fill="url(#color-41)" stroke="none" stroke-linecap="butt"/><path d="M234.86809,173.09713v-5.378h0.70328v5.378z" fill="url(#color-42)" stroke="url(#color-43)" stroke-linecap="butt"/><path d="M244.38302,173.09713v-5.378h0.70328v5.378z" fill="url(#color-44)" stroke="url(#color-45)" stroke-linecap="butt"/><path d="M234.84888,173.12125l0.56735,-2.82442l0.54371,2.82442l0.73283,-2.79975l0.73283,2.78742l1.27654,-2.78742l1.22926,2.79975l1.08742,-2.78742l1.22926,2.77508l0.82739,-2.77508l0.8983,2.79975l0.56735,-2.78742l0.54371,2.76275" fill="none" stroke="url(#color-46)" stroke-linecap="round"/><path d="M245.08482,170.32149l-0.54371,2.76275l-0.56735,-2.78742l-0.8983,2.79975l-0.82739,-2.77508l-1.22926,2.77508l-1.08742,-2.78742l-1.22926,2.79975l-1.27654,-2.78742l-0.73283,2.78742l-0.73283,-2.79975l-0.54371,2.82442l-0.56735,-2.82442" data-paper-data="{&quot;index&quot;:null}" fill="none" stroke="url(#color-47)" stroke-linecap="round"/><path d="M234.87252,170.40269l0.56735,-2.82442l0.54371,2.82442l0.73283,-2.79975l0.73283,2.78742l1.27654,-2.78742l1.22926,2.79975l1.08742,-2.78742l1.22926,2.77508l0.82739,-2.77508l0.8983,2.79975l0.56735,-2.78742l0.54371,2.76275" fill="none" stroke="url(#color-48)" stroke-linecap="round"/><path d="M245.10845,167.60294l-0.54371,2.76275l-0.56735,-2.78742l-0.8983,2.79975l-0.82739,-2.77508l-1.22926,2.77508l-1.08742,-2.78742l-1.22926,2.79975l-1.27654,-2.78742l-0.73283,2.78742l-0.73283,-2.79975l-0.54371,2.82442l-0.56735,-2.82442" data-paper-data="{&quot;index&quot;:null}" fill="none" stroke="url(#color-49)" stroke-linecap="round"/><path d="M234.74766,173.75248v-0.60675h10.34232v0.60675z" fill="url(#color-50)" stroke="url(#color-51)" stroke-linecap="butt"/><path d="M234.79494,167.70075v-0.60675h10.34232v0.60675z" fill="url(#color-52)" stroke="url(#color-53)" stroke-linecap="butt"/></g><g stroke-width="0.375"><path d="M241.17992,196.47455l0.58143,-2.15989l0.69781,0.18785l-0.58143,2.15989z" fill="url(#color-54)" stroke="url(#color-55)" stroke-linecap="butt"/><path d="M243.06467,193.52764c-0.26248,0.95537 -0.30568,1.05352 -0.94263,0.87118c-0.63716,-0.1824 -0.63058,-0.31966 -0.3779,-1.22666c0.27897,-1.00139 0.29589,-1.07166 0.94263,-0.87118c0.61967,0.19209 0.66613,0.17757 0.3779,1.22666z" fill="url(#color-56)" stroke="url(#color-57)" stroke-linecap="butt"/><path d="M238.43206,198.96688l-1.70956,-6.55033l1.06079,-0.13818l0.85406,6.64613z" fill="url(#color-58)" stroke="url(#color-59)" stroke-linecap="butt"/><path d="M241.96593,196.55729l0.58143,-2.15989l0.69781,0.18785l-0.58143,2.15989z" fill="url(#color-60)" stroke="url(#color-61)" stroke-linecap="butt"/><path d="M243.85069,193.61038c-0.26248,0.95537 -0.30568,1.05352 -0.94263,0.87118c-0.63716,-0.1824 -0.63058,-0.31966 -0.3779,-1.22666c0.27897,-1.00139 0.29589,-1.07166 0.94263,-0.87118c0.61967,0.19209 0.66613,0.17757 0.3779,1.22666z" fill="url(#color-62)" stroke="url(#color-63)" stroke-linecap="butt"/><path d="M244.65552,193.6773c-0.26248,0.95537 -0.30568,1.05352 -0.94263,0.87118c-0.63716,-0.1824 -0.63058,-0.31966 -0.3779,-1.22666c0.27897,-1.00139 0.29589,-1.07166 0.94263,-0.87118c0.61967,0.19209 0.66613,0.17757 0.3779,1.22666z" fill="url(#color-64)" stroke="url(#color-65)" stroke-linecap="butt"/><path d="M242.28588,196.05492c0,0 0.64218,0.02025 0.72782,-0.29788c0.10442,-0.3879 0.34762,-1.29133 0.34762,-1.29133l0.69781,0.18785c0,0 -0.2281,0.84734 -0.33072,1.22854c-0.03837,0.14255 -0.25031,0.4083 -0.53694,0.5729c-0.38076,0.21865 -0.85494,0.32061 -0.85494,0.32061z" fill="url(#color-66)" stroke="url(#color-67)" stroke-linecap="butt"/><path d="M237.19098,198.76003l-1.70956,-6.55033l1.06079,-0.13818l0.85406,6.64613z" fill="url(#color-68)" stroke="url(#color-69)" stroke-linecap="butt"/><path d="M234.56264,203.66527c0,0 3.96488,-12.51528 5.30996,-12.42418c1.53875,0.10422 5.30851,12.42418 5.30851,12.42418z" fill="url(#color-70)" stroke="url(#color-71)" stroke-linecap="butt"/><path d="M241.57198,194.04206h-3.37573" fill="none" stroke="url(#color-72)" stroke-linecap="round"/><path d="M237.10409,196.57275h5.42765" fill="none" stroke="url(#color-73)" stroke-linecap="round"/><path d="M236.18792,199.36645h7.28664" fill="none" stroke="url(#color-74)" stroke-linecap="round"/><path d="M244.48437,202.14891h-9.26672" fill="none" stroke="url(#color-75)" stroke-linecap="round"/><path d="M234.6509,191.14104h10.59053c0,0 -0.0239,0.76298 -0.1633,1.03767c-0.11955,0.23559 -0.62272,0.51127 -0.62272,0.51127h-9.10124c0,0 -0.3836,-0.29247 -0.48644,-0.51899c-0.1266,-0.27884 -0.21683,-1.02995 -0.21683,-1.02995z" fill="url(#color-76)" stroke="url(#color-77)" stroke-linecap="butt"/></g><path d="M215.27327,167.03273v-12.39235h25.93332v8.69862h-15.56684v3.69373z" fill-opacity="0.53453" fill="#000000" stroke="#a60000" stroke-width="0" stroke-linecap="butt"/><text transform="translate(215.70712,161.61518) scale(0.21839,0.21839)" font-size="40" xml:space="preserve" fill="#ffffff" fill-rule="nonzero" stroke="#000000" stroke-width="0" stroke-linecap="butt" stroke-linejoin="miter" stroke-miterlimit="10" stroke-dasharray="" stroke-dashoffset="0" font-family="Serif" font-weight="normal" text-anchor="start" style="mix-blend-mode: normal"><tspan x="0" dy="0">Rocket</tspan></text><text transform="translate(215.56527,166.16682) scale(0.11601,0.11601)" font-size="40" xml:space="preserve" fill="#ffffff" fill-rule="nonzero" stroke="#000000" stroke-width="0" stroke-linecap="butt" stroke-linejoin="miter" stroke-miterlimit="10" stroke-dasharray="" stroke-dashoffset="0" font-family="Serif" font-weight="normal" text-anchor="start" style="mix-blend-mode: normal"><tspan x="0" dy="0">2-4-2</tspan></text></g></g></svg>