<svg version="1.1" xmlns="http://www.w3.org/2000/svg" xmlns:xlink="http://www.w3.org/1999/xlink" width="59" height="59.70662" viewBox="0,0,59,59.70662"><defs><linearGradient x1="240" y1="151.64669" x2="240" y2="208.35331" gradientUnits="userSpaceOnUse" id="color-1"><stop offset="0" stop-color="#191919"/><stop offset="1" stop-color="#050505"/></linearGradient><linearGradient x1="240" y1="151.64669" x2="240" y2="208.35331" gradientUnits="userSpaceOnUse" id="color-2"><stop offset="0" stop-color="#cccccc"/><stop offset="1" stop-color="#898989"/></linearGradient><radialGradient cx="240" cy="180" r="26.8571" gradientUnits="userSpaceOnUse" id="color-3"><stop offset="0" stop-color="#ffffff" stop-opacity="0.35484"/><stop offset="1" stop-color="#ffffff" stop-opacity="0"/></radialGradient><linearGradient x1="240" y1="153.29211" x2="240" y2="206.70789" gradientUnits="userSpaceOnUse" id="color-4"><stop offset="0" stop-color="#cccccc"/><stop offset="1" stop-color="#898989"/></linearGradient><linearGradient x1="234.49971" y1="161.83533" x2="245.56001" y2="161.83533" gradientUnits="userSpaceOnUse" id="color-5"><stop offset="0" stop-color="#89959f"/><stop offset="1" stop-color="#2a3542"/></linearGradient><linearGradient x1="234.49971" y1="161.83187" x2="245.56001" y2="161.83187" gradientUnits="userSpaceOnUse" id="color-6"><stop offset="0" stop-color="#272727"/><stop offset="1" stop-color="#000000"/></linearGradient><linearGradient x1="237.25751" y1="157.02378" x2="242.71603" y2="157.02378" gradientUnits="userSpaceOnUse" id="color-7"><stop offset="0" stop-color="#f1f5f8"/><stop offset="1" stop-color="#6d7680"/></linearGradient><linearGradient x1="237.25751" y1="157.02334" x2="242.71603" y2="157.02334" gradientUnits="userSpaceOnUse" id="color-8"><stop offset="0" stop-color="#272727"/><stop offset="1" stop-color="#000000"/></linearGradient><linearGradient x1="236.01311" y1="159.8342" x2="244.14581" y2="159.8342" gradientUnits="userSpaceOnUse" id="color-9"><stop offset="0" stop-color="#3b4145"/><stop offset="1" stop-color="#171e25"/></linearGradient><linearGradient x1="245.45053" y1="187.94212" x2="250.93273" y2="187.94212" gradientUnits="userSpaceOnUse" id="color-10"><stop offset="0" stop-color="#2c2f36"/><stop offset="1" stop-color="#191d1f"/></linearGradient><linearGradient x1="245.45053" y1="188.13045" x2="249.20028" y2="188.13045" gradientUnits="userSpaceOnUse" id="color-11"><stop offset="0" stop-color="#272727"/><stop offset="1" stop-color="#000000"/></linearGradient><linearGradient x1="234.54947" y1="187.88466" x2="229.06727" y2="187.88466" gradientUnits="userSpaceOnUse" id="color-12"><stop offset="0" stop-color="#575e6b"/><stop offset="1" stop-color="#696d82"/></linearGradient><linearGradient x1="230.79972" y1="188.073" x2="234.54947" y2="188.073" gradientUnits="userSpaceOnUse" id="color-13"><stop offset="0" stop-color="#272727"/><stop offset="1" stop-color="#000000"/></linearGradient><linearGradient x1="234.53424" y1="183.50539" x2="245.46365" y2="183.50539" gradientUnits="userSpaceOnUse" id="color-14"><stop offset="0" stop-color="#535863"/><stop offset="1" stop-color="#1a1b21"/></linearGradient><linearGradient x1="234.53424" y1="183.50539" x2="245.46365" y2="183.50539" gradientUnits="userSpaceOnUse" id="color-15"><stop offset="0" stop-color="#272727"/><stop offset="1" stop-color="#000000"/></linearGradient><linearGradient x1="240.38963" y1="183.96671" x2="244.67653" y2="183.96671" gradientUnits="userSpaceOnUse" id="color-16"><stop offset="0" stop-color="#4a382c"/><stop offset="1" stop-color="#301f1b"/></linearGradient><linearGradient x1="240.38963" y1="183.96671" x2="244.67653" y2="183.96671" gradientUnits="userSpaceOnUse" id="color-17"><stop offset="0" stop-color="#351c12"/><stop offset="1" stop-color="#1a1310"/></linearGradient><linearGradient x1="240.3781" y1="183.96832" x2="244.65509" y2="183.96832" gradientUnits="userSpaceOnUse" id="color-18"><stop offset="0" stop-color="#351c12"/><stop offset="1" stop-color="#1a1310"/></linearGradient><linearGradient x1="240.3781" y1="183.93576" x2="244.65509" y2="183.93576" gradientUnits="userSpaceOnUse" id="color-19"><stop offset="0" stop-color="#351c12"/><stop offset="1" stop-color="#1a1310"/></linearGradient><linearGradient x1="235.26593" y1="183.98842" x2="239.55283" y2="183.98842" gradientUnits="userSpaceOnUse" id="color-20"><stop offset="0" stop-color="#4a382c"/><stop offset="1" stop-color="#301f1b"/></linearGradient><linearGradient x1="235.26593" y1="183.98842" x2="239.55283" y2="183.98842" gradientUnits="userSpaceOnUse" id="color-21"><stop offset="0" stop-color="#351c12"/><stop offset="1" stop-color="#1a1310"/></linearGradient><linearGradient x1="235.2544" y1="183.99003" x2="239.53139" y2="183.99003" gradientUnits="userSpaceOnUse" id="color-22"><stop offset="0" stop-color="#351c12"/><stop offset="1" stop-color="#1a1310"/></linearGradient><linearGradient x1="235.2544" y1="183.95747" x2="239.53139" y2="183.95747" gradientUnits="userSpaceOnUse" id="color-23"><stop offset="0" stop-color="#351c12"/><stop offset="1" stop-color="#1a1310"/></linearGradient><linearGradient x1="240.38963" y1="189.13758" x2="244.67653" y2="189.13758" gradientUnits="userSpaceOnUse" id="color-24"><stop offset="0" stop-color="#4a382c"/><stop offset="1" stop-color="#301f1b"/></linearGradient><linearGradient x1="240.38963" y1="189.13758" x2="244.67653" y2="189.13758" gradientUnits="userSpaceOnUse" id="color-25"><stop offset="0" stop-color="#351c12"/><stop offset="1" stop-color="#1a1310"/></linearGradient><linearGradient x1="240.3781" y1="189.1392" x2="244.65509" y2="189.1392" gradientUnits="userSpaceOnUse" id="color-26"><stop offset="0" stop-color="#351c12"/><stop offset="1" stop-color="#1a1310"/></linearGradient><linearGradient x1="240.3781" y1="189.10663" x2="244.65509" y2="189.10663" gradientUnits="userSpaceOnUse" id="color-27"><stop offset="0" stop-color="#351c12"/><stop offset="1" stop-color="#1a1310"/></linearGradient><linearGradient x1="235.26593" y1="189.15929" x2="239.55283" y2="189.15929" gradientUnits="userSpaceOnUse" id="color-28"><stop offset="0" stop-color="#4a382c"/><stop offset="1" stop-color="#301f1b"/></linearGradient><linearGradient x1="235.26593" y1="189.15929" x2="239.55283" y2="189.15929" gradientUnits="userSpaceOnUse" id="color-29"><stop offset="0" stop-color="#351c12"/><stop offset="1" stop-color="#1a1310"/></linearGradient><linearGradient x1="235.2544" y1="189.16091" x2="239.53139" y2="189.16091" gradientUnits="userSpaceOnUse" id="color-30"><stop offset="0" stop-color="#351c12"/><stop offset="1" stop-color="#1a1310"/></linearGradient><linearGradient x1="235.2544" y1="189.12834" x2="239.53139" y2="189.12834" gradientUnits="userSpaceOnUse" id="color-31"><stop offset="0" stop-color="#351c12"/><stop offset="1" stop-color="#1a1310"/></linearGradient><linearGradient x1="235.08761" y1="178.08276" x2="244.84333" y2="178.08276" gradientUnits="userSpaceOnUse" id="color-32"><stop offset="0" stop-color="#515151"/><stop offset="1" stop-color="#131313"/></linearGradient><linearGradient x1="235.08761" y1="178.08276" x2="244.84333" y2="178.08276" gradientUnits="userSpaceOnUse" id="color-33"><stop offset="0" stop-color="#272727"/><stop offset="1" stop-color="#000000"/></linearGradient><linearGradient x1="235.59572" y1="175.95998" x2="244.26747" y2="175.95998" gradientUnits="userSpaceOnUse" id="color-34"><stop offset="0" stop-color="#272727"/><stop offset="1" stop-color="#000000"/></linearGradient><linearGradient x1="235.62959" y1="180.23699" x2="244.16585" y2="180.23699" gradientUnits="userSpaceOnUse" id="color-35"><stop offset="0" stop-color="#272727"/><stop offset="1" stop-color="#000000"/></linearGradient><linearGradient x1="234.50076" y1="170.9642" x2="245.43018" y2="170.9642" gradientUnits="userSpaceOnUse" id="color-36"><stop offset="0" stop-color="#303030"/><stop offset="1" stop-color="#171717"/></linearGradient><linearGradient x1="234.50076" y1="170.9642" x2="245.43018" y2="170.9642" gradientUnits="userSpaceOnUse" id="color-37"><stop offset="0" stop-color="#272727"/><stop offset="1" stop-color="#000000"/></linearGradient><radialGradient cx="239.96547" cy="170.9642" r="4.53405" gradientUnits="userSpaceOnUse" id="color-38"><stop offset="0" stop-color="#734c45" stop-opacity="0.40995"/><stop offset="1" stop-color="#734c45" stop-opacity="0"/></radialGradient><radialGradient cx="239.96547" cy="170.94807" r="3.68099" gradientUnits="userSpaceOnUse" id="color-39"><stop offset="0" stop-color="#eb8c73" stop-opacity="0.60996"/><stop offset="1" stop-color="#eb8c73" stop-opacity="0"/></radialGradient><radialGradient cx="239.96547" cy="170.94807" r="3.11626" gradientUnits="userSpaceOnUse" id="color-40"><stop offset="0" stop-color="#ff734f" stop-opacity="0"/><stop offset="1" stop-color="#ff734f" stop-opacity="0.08997"/></radialGradient><radialGradient cx="239.96547" cy="170.94807" r="2.56252" gradientUnits="userSpaceOnUse" id="color-41"><stop offset="0" stop-color="#ffa282" stop-opacity="0.11996"/><stop offset="1" stop-color="#ffab8f"/></radialGradient><linearGradient x1="234.65455" y1="170.95701" x2="235.38709" y2="170.95701" gradientUnits="userSpaceOnUse" id="color-42"><stop offset="0" stop-color="#9d9d9d"/><stop offset="1" stop-color="#4c4c4c"/></linearGradient><linearGradient x1="234.65455" y1="170.95701" x2="235.38709" y2="170.95701" gradientUnits="userSpaceOnUse" id="color-43"><stop offset="0" stop-color="#272727"/><stop offset="1" stop-color="#000000"/></linearGradient><linearGradient x1="244.56539" y1="170.95701" x2="245.29793" y2="170.95701" gradientUnits="userSpaceOnUse" id="color-44"><stop offset="0" stop-color="#9d9d9d"/><stop offset="1" stop-color="#4c4c4c"/></linearGradient><linearGradient x1="244.56539" y1="170.95701" x2="245.29793" y2="170.95701" gradientUnits="userSpaceOnUse" id="color-45"><stop offset="0" stop-color="#272727"/><stop offset="1" stop-color="#000000"/></linearGradient><linearGradient x1="234.63454" y1="172.31205" x2="245.29639" y2="172.31205" gradientUnits="userSpaceOnUse" id="color-46"><stop offset="0" stop-color="#272727"/><stop offset="1" stop-color="#000000"/></linearGradient><linearGradient x1="234.63454" y1="172.32489" x2="245.29639" y2="172.32489" gradientUnits="userSpaceOnUse" id="color-47"><stop offset="0" stop-color="#272727"/><stop offset="1" stop-color="#000000"/></linearGradient><linearGradient x1="234.65917" y1="169.48038" x2="245.32102" y2="169.48038" gradientUnits="userSpaceOnUse" id="color-48"><stop offset="0" stop-color="#272727"/><stop offset="1" stop-color="#000000"/></linearGradient><linearGradient x1="234.65917" y1="169.49322" x2="245.32102" y2="169.49322" gradientUnits="userSpaceOnUse" id="color-49"><stop offset="0" stop-color="#272727"/><stop offset="1" stop-color="#000000"/></linearGradient><linearGradient x1="234.52911" y1="174.12453" x2="245.30177" y2="174.12453" gradientUnits="userSpaceOnUse" id="color-50"><stop offset="0" stop-color="#c7a895"/><stop offset="1" stop-color="#322c27"/></linearGradient><linearGradient x1="234.52911" y1="174.12453" x2="245.30177" y2="174.12453" gradientUnits="userSpaceOnUse" id="color-51"><stop offset="0" stop-color="#272727"/><stop offset="1" stop-color="#000000"/></linearGradient><linearGradient x1="234.57836" y1="167.82098" x2="245.35101" y2="167.82098" gradientUnits="userSpaceOnUse" id="color-52"><stop offset="0" stop-color="#c7a895"/><stop offset="1" stop-color="#322c27"/></linearGradient><linearGradient x1="234.57836" y1="167.82098" x2="245.35101" y2="167.82098" gradientUnits="userSpaceOnUse" id="color-53"><stop offset="0" stop-color="#272727"/><stop offset="1" stop-color="#000000"/></linearGradient><linearGradient x1="242.31822" y1="197.0886" x2="243.2145" y2="197.0886" gradientUnits="userSpaceOnUse" id="color-54"><stop offset="0" stop-color="#525252"/><stop offset="1" stop-color="#363636"/></linearGradient><linearGradient x1="242.31822" y1="197.0886" x2="243.2145" y2="197.0886" gradientUnits="userSpaceOnUse" id="color-55"><stop offset="0" stop-color="#1f1f1f"/><stop offset="1" stop-color="#000000"/></linearGradient><linearGradient x1="237.00018" y1="195.87639" x2="237.76921" y2="195.98211" gradientUnits="userSpaceOnUse" id="color-56"><stop offset="0" stop-color="#525252"/><stop offset="1" stop-color="#2e2e2e"/></linearGradient><linearGradient x1="237.00018" y1="195.87639" x2="237.76921" y2="195.98211" gradientUnits="userSpaceOnUse" id="color-57"><stop offset="0" stop-color="#1f1f1f"/><stop offset="1" stop-color="#000000"/></linearGradient><linearGradient x1="234.33639" y1="198.1716" x2="245.39669" y2="198.1716" gradientUnits="userSpaceOnUse" id="color-58"><stop offset="0" stop-color="#b8b8b8"/><stop offset="1" stop-color="#4a4a4a"/></linearGradient><linearGradient x1="234.33639" y1="198.1716" x2="245.39669" y2="198.1716" gradientUnits="userSpaceOnUse" id="color-59"><stop offset="0" stop-color="#1f1f1f"/><stop offset="1" stop-color="#000000"/></linearGradient><linearGradient x1="238.12119" y1="195.13516" x2="241.63738" y2="195.13516" gradientUnits="userSpaceOnUse" id="color-60"><stop offset="0" stop-color="#5d5d5d"/><stop offset="1" stop-color="#232323"/></linearGradient><linearGradient x1="236.9836" y1="197.38804" x2="242.63709" y2="197.38804" gradientUnits="userSpaceOnUse" id="color-61"><stop offset="0" stop-color="#5d5d5d"/><stop offset="1" stop-color="#232323"/></linearGradient><linearGradient x1="236.0293" y1="199.87506" x2="243.61913" y2="199.87506" gradientUnits="userSpaceOnUse" id="color-62"><stop offset="0" stop-color="#5d5d5d"/><stop offset="1" stop-color="#232323"/></linearGradient><linearGradient x1="235.01866" y1="202.35208" x2="244.67096" y2="202.35208" gradientUnits="userSpaceOnUse" id="color-63"><stop offset="0" stop-color="#5d5d5d"/><stop offset="1" stop-color="#232323"/></linearGradient><linearGradient x1="241.92925" y1="194.14999" x2="243.62539" y2="194.14999" gradientUnits="userSpaceOnUse" id="color-64"><stop offset="0" stop-color="#aaaaaa"/><stop offset="1" stop-color="#4e4e4e"/></linearGradient><linearGradient x1="241.92925" y1="194.14999" x2="243.62539" y2="194.14999" gradientUnits="userSpaceOnUse" id="color-65"><stop offset="0" stop-color="#1f1f1f"/><stop offset="1" stop-color="#000000"/></linearGradient><linearGradient x1="243.6303" y1="194.14999" x2="245.32644" y2="194.14999" gradientUnits="userSpaceOnUse" id="color-66"><stop offset="0" stop-color="#aaaaaa"/><stop offset="1" stop-color="#4e4e4e"/></linearGradient><linearGradient x1="243.6303" y1="194.14999" x2="245.32644" y2="194.14999" gradientUnits="userSpaceOnUse" id="color-67"><stop offset="0" stop-color="#1f1f1f"/><stop offset="1" stop-color="#000000"/></linearGradient><linearGradient x1="244.04184" y1="197.13169" x2="244.93813" y2="197.13169" gradientUnits="userSpaceOnUse" id="color-68"><stop offset="0" stop-color="#525252"/><stop offset="1" stop-color="#363636"/></linearGradient><linearGradient x1="244.04184" y1="197.13169" x2="244.93813" y2="197.13169" gradientUnits="userSpaceOnUse" id="color-69"><stop offset="0" stop-color="#1f1f1f"/><stop offset="1" stop-color="#000000"/></linearGradient><linearGradient x1="234.42832" y1="193.24205" x2="245.45952" y2="193.24205" gradientUnits="userSpaceOnUse" id="color-70"><stop offset="0" stop-color="#525252"/><stop offset="1" stop-color="#2e2e2e"/></linearGradient><linearGradient x1="234.42832" y1="193.24205" x2="245.45952" y2="193.24205" gradientUnits="userSpaceOnUse" id="color-71"><stop offset="0" stop-color="#1f1f1f"/><stop offset="1" stop-color="#000000"/></linearGradient></defs><g transform="translate(-210.5,-150.14669)"><g data-paper-data="{&quot;isPaintingLayer&quot;:true}" fill-rule="nonzero" stroke-linejoin="miter" stroke-miterlimit="10" stroke-dasharray="" stroke-dashoffset="0" style="mix-blend-mode: normal"><path d="M212,208.35331v-56.70662h56v56.70662z" fill="url(#color-1)" stroke="url(#color-2)" stroke-width="3" stroke-linecap="butt"/><path d="M266.8571,180c0,14.75036 -12.02433,26.70789 -26.8571,26.70789c-14.83277,0 -26.8571,-11.95753 -26.8571,-26.70789c0,-14.75036 12.02433,-26.70789 26.8571,-26.70789c14.83277,0 26.8571,11.95753 26.8571,26.70789z" fill="url(#color-3)" stroke="url(#color-4)" stroke-width="0" stroke-linecap="butt"/><path d="M234.49971,167.36571c0,0 0.71133,-11.31377 5.47345,-11.0603c4.79148,-0.33813 5.58685,11.0603 5.58685,11.0603z" fill="url(#color-5)" stroke="url(#color-6)" stroke-width="0.375" stroke-linecap="butt"/><path d="M237.25751,157.72349c0,0 0.35106,-1.43144 2.70128,-1.39937c2.36471,-0.04278 2.75724,1.39937 2.75724,1.39937z" fill="url(#color-7)" stroke="url(#color-8)" stroke-width="0.375" stroke-linecap="butt"/><path d="M235.73508,161.23067c0,0 0.13493,-0.43756 0.33314,-0.95828c0.23261,-0.61107 0.61791,-1.33666 1.9493,-1.60399c0.05166,-0.01037 1.0221,-0.16232 1.0221,-0.16232l2.11124,0.0065c0,0 0.72983,0.05209 0.77269,0.06226c1.26,0.29869 1.73316,1.0487 1.99802,1.67579c0.22584,0.5347 0.36325,0.98005 0.36325,0.98005z" data-paper-data="{&quot;index&quot;:null}" fill="url(#color-9)" stroke="#000000" stroke-width="0.375" stroke-linecap="butt"/><path d="M237.98786,159.93475c0,-0.53738 0.43563,-0.97301 0.97301,-0.97301c0.53738,0 0.97301,0.43563 0.97301,0.97301c0,0.53738 -0.43563,0.97301 -0.97301,0.97301c-0.53738,0 -0.97301,-0.43563 -0.97301,-0.97301z" fill="#ff0000" stroke="none" stroke-width="0.375" stroke-linecap="butt"/><path d="M240.23691,159.95607c0,-0.53738 0.43563,-0.97301 0.97301,-0.97301c0.53738,0 0.97301,0.43563 0.97301,0.97301c0,0.53738 -0.43563,0.97301 -0.97301,0.97301c-0.53738,0 -0.97301,-0.43563 -0.97301,-0.97301z" fill="#4bff00" stroke="none" stroke-width="0.375" stroke-linecap="butt"/><path d="M245.45053,192.43949v-11.17801c0,0 1.40667,7.50355 1.89848,9.31524c0.38911,1.43336 1.85127,4.4227 1.85127,4.4227z" fill="url(#color-10)" stroke="url(#color-11)" stroke-width="0.375" stroke-linecap="butt"/><path d="M230.79972,194.94197c0,0 1.46216,-2.98934 1.85127,-4.4227c0.49181,-1.81168 1.89848,-9.31524 1.89848,-9.31524v11.17801z" data-paper-data="{&quot;index&quot;:null}" fill="url(#color-12)" stroke="url(#color-13)" stroke-width="0.375" stroke-linecap="butt"/><path d="M234.53424,192.47144v-17.93209h10.92941v17.93209z" fill="url(#color-14)" stroke="url(#color-15)" stroke-width="0.375" stroke-linecap="butt"/><g stroke-width="0.375"><path d="M240.38963,186.19835v-4.4633h4.2869v4.4633z" fill="url(#color-16)" stroke="url(#color-17)" stroke-linecap="butt"/><path d="M240.3781,186.13938l4.27699,-4.34212" fill="none" stroke="url(#color-18)" stroke-linecap="round"/><path d="M240.42152,181.75384l4.23357,4.40725" fill="none" stroke="url(#color-19)" stroke-linecap="round"/></g><g stroke-width="0.375"><path d="M235.26593,186.22006v-4.4633h4.2869v4.4633z" fill="url(#color-20)" stroke="url(#color-21)" stroke-linecap="butt"/><path d="M235.2544,186.16109l4.27699,-4.34212" fill="none" stroke="url(#color-22)" stroke-linecap="round"/><path d="M235.29782,181.77555l4.23357,4.40725" fill="none" stroke="url(#color-23)" stroke-linecap="round"/></g><g stroke-width="0.375"><path d="M240.38963,191.36923v-4.4633h4.2869v4.4633z" fill="url(#color-24)" stroke="url(#color-25)" stroke-linecap="butt"/><path d="M240.3781,191.31026l4.27699,-4.34212" fill="none" stroke="url(#color-26)" stroke-linecap="round"/><path d="M240.42152,186.92472l4.23357,4.40725" fill="none" stroke="url(#color-27)" stroke-linecap="round"/></g><g stroke-width="0.375"><path d="M235.26593,191.39094v-4.4633h4.2869v4.4633z" fill="url(#color-28)" stroke="url(#color-29)" stroke-linecap="butt"/><path d="M235.2544,191.33197l4.27699,-4.34212" fill="none" stroke="url(#color-30)" stroke-linecap="round"/><path d="M239.53139,191.35368l-4.23357,-4.40725" fill="none" stroke="url(#color-31)" stroke-linecap="round"/></g><g stroke-width="0.375"><path d="M235.08761,180.77162v-5.37771h9.75572v5.37771z" fill="url(#color-32)" stroke="url(#color-33)" stroke-linecap="butt"/><path d="M244.26747,175.95998h-8.67175" fill="none" stroke="url(#color-34)" stroke-linecap="round"/><path d="M235.62959,180.23699h8.53625" fill="none" stroke="url(#color-35)" stroke-linecap="round"/></g><g stroke-width="0.375"><path d="M234.50076,174.54391v-7.15943h10.92941v7.15943z" fill="url(#color-36)" stroke="url(#color-37)" stroke-linecap="butt"/><path d="M235.43142,170.9642c0,-2.50408 2.02997,-4.53405 4.53405,-4.53405c2.50408,0 4.53405,2.02997 4.53405,4.53405c0,2.50408 -2.02997,4.53405 -4.53405,4.53405c-2.50408,0 -4.53405,-2.02997 -4.53405,-4.53405z" fill="url(#color-38)" stroke="none" stroke-linecap="butt"/><path d="M236.28447,170.94807c0,-2.03295 1.64804,-3.68099 3.68099,-3.68099c2.03295,0 3.68099,1.64804 3.68099,3.68099c0,2.03295 -1.64804,3.68099 -3.68099,3.68099c-2.03295,0 -3.68099,-1.64804 -3.68099,-3.68099z" fill="url(#color-39)" stroke="none" stroke-linecap="butt"/><path d="M236.8492,170.94807c0,-1.72106 1.3952,-3.11626 3.11627,-3.11626c1.72106,0 3.11626,1.3952 3.11626,3.11626c0,1.72106 -1.3952,3.11627 -3.11626,3.11627c-1.72106,0 -3.11627,-1.3952 -3.11627,-3.11627z" fill="url(#color-40)" stroke="none" stroke-linecap="butt"/><path d="M237.40295,170.94807c0,-1.41523 1.14728,-2.56252 2.56252,-2.56252c1.41523,0 2.56252,1.14728 2.56252,2.56252c0,1.41523 -1.14728,2.56252 -2.56252,2.56252c-1.41523,0 -2.56252,-1.14728 -2.56252,-2.56252z" fill="url(#color-41)" stroke="none" stroke-linecap="butt"/><path d="M234.65455,173.7579v-5.60178h0.73254v5.60178z" fill="url(#color-42)" stroke="url(#color-43)" stroke-linecap="butt"/><path d="M244.56539,173.7579v-5.60178h0.73254v5.60178z" fill="url(#color-44)" stroke="url(#color-45)" stroke-linecap="butt"/><path d="M234.63454,173.78302l0.59096,-2.94194l0.56633,2.94194l0.76332,-2.91624l0.76332,2.9034l1.32965,-2.9034l1.28041,2.91624l1.13267,-2.9034l1.28041,2.89055l0.86181,-2.89055l0.93568,2.91624l0.59096,-2.9034l0.56633,2.8777" fill="none" stroke="url(#color-46)" stroke-linecap="round"/><path d="M245.29639,170.86677l-0.56633,2.8777l-0.59096,-2.9034l-0.93568,2.91624l-0.86181,-2.89055l-1.28041,2.89055l-1.13267,-2.9034l-1.28041,2.91624l-1.32965,-2.9034l-0.76332,2.9034l-0.76332,-2.91624l-0.56633,2.94194l-0.59096,-2.94194" data-paper-data="{&quot;index&quot;:null}" fill="none" stroke="url(#color-47)" stroke-linecap="round"/><path d="M234.65917,170.95135l0.59096,-2.94194l0.56633,2.94194l0.76332,-2.91624l0.76332,2.9034l1.32965,-2.9034l1.28041,2.91624l1.13267,-2.9034l1.28041,2.89055l0.86181,-2.89055l0.93568,2.91625l0.59096,-2.9034l0.56633,2.8777" fill="none" stroke="url(#color-48)" stroke-linecap="round"/><path d="M245.32102,168.0351l-0.56633,2.8777l-0.59096,-2.9034l-0.93568,2.91624l-0.86181,-2.89055l-1.28041,2.89055l-1.13267,-2.9034l-1.28041,2.91624l-1.32965,-2.9034l-0.76332,2.9034l-0.76332,-2.91624l-0.56633,2.94194l-0.59096,-2.94194" data-paper-data="{&quot;index&quot;:null}" fill="none" stroke="url(#color-49)" stroke-linecap="round"/><path d="M234.52911,174.44052v-0.63199h10.77266v0.63199z" fill="url(#color-50)" stroke="url(#color-51)" stroke-linecap="butt"/><path d="M234.57836,168.13698v-0.63199h10.77266v0.63199z" fill="url(#color-52)" stroke="url(#color-53)" stroke-linecap="butt"/></g><g stroke-width="0.375"><path d="M242.31822,198.57092v-2.96464h0.89629v2.96464z" fill="url(#color-54)" stroke="url(#color-55)" stroke-linecap="butt"/><path d="M236.55588,199.10836l0.11586,-6.02577l1.91546,-0.4362l-1.26229,6.56769z" fill="url(#color-56)" stroke="url(#color-57)" stroke-linecap="butt"/><path d="M234.33639,203.70197c0,0 4.12986,-11.14141 5.53091,-11.0603c1.60277,0.09278 5.5294,11.0603 5.5294,11.0603z" fill="url(#color-58)" stroke="url(#color-59)" stroke-linecap="butt"/><path d="M238.12119,195.13516h3.5162" fill="none" stroke="url(#color-60)" stroke-linecap="round"/><path d="M242.63709,197.38804h-5.65349" fill="none" stroke="url(#color-61)" stroke-linecap="round"/><path d="M243.61913,199.87506h-7.58984" fill="none" stroke="url(#color-62)" stroke-linecap="round"/><path d="M244.67096,202.35208h-9.6523" fill="none" stroke="url(#color-63)" stroke-linecap="round"/><path d="M243.62539,194.14999c-0.00635,1.31315 -0.02644,1.45365 -0.84807,1.43974c-0.82189,-0.01392 -0.85826,-0.19186 -0.84807,-1.43974c0.01126,-1.37773 0.00886,-1.4735 0.84807,-1.43974c0.80407,0.03235 0.85504,-0.00224 0.84807,1.43974z" fill="url(#color-64)" stroke="url(#color-65)" stroke-linecap="butt"/><path d="M245.32644,194.14999c-0.00635,1.31315 -0.02644,1.45365 -0.84807,1.43974c-0.82189,-0.01392 -0.85826,-0.19186 -0.84807,-1.43974c0.01126,-1.37773 0.00886,-1.4735 0.84807,-1.43974c0.80407,0.03235 0.85504,-0.00224 0.84807,1.43974z" fill="url(#color-66)" stroke="url(#color-67)" stroke-linecap="butt"/><path d="M243.26621,198.05383c0,0 0.77563,-0.19533 0.77563,-0.63199c0,-0.53243 0,-1.77246 0,-1.77246h0.89629c0,0 0,1.16304 0,1.68628c0,0.19566 -0.16815,0.6088 -0.45836,0.91821c-0.38552,0.41103 -0.92055,0.70487 -0.92055,0.70487z" fill="url(#color-68)" stroke="url(#color-69)" stroke-linecap="butt"/><path d="M234.42832,192.5526h11.0312c0,0 -0.0249,0.67922 -0.17009,0.92376c-0.12453,0.20973 -0.64863,0.45514 -0.64863,0.45514h-9.47994c0,0 -0.39956,-0.26037 -0.50668,-0.46202c-0.13187,-0.24823 -0.22586,-0.91688 -0.22586,-0.91688z" fill="url(#color-70)" stroke="url(#color-71)" stroke-linecap="butt"/></g><path d="M215.27327,167.03273v-12.39235h25.93332v8.69862h-15.56684v3.69373z" fill-opacity="0.53453" fill="#000000" stroke="#a60000" stroke-width="0" stroke-linecap="butt"/><text transform="translate(215.70712,161.61518) scale(0.21839,0.21839)" font-size="40" xml:space="preserve" fill="#ffffff" fill-rule="nonzero" stroke="#000000" stroke-width="0" stroke-linecap="butt" stroke-linejoin="miter" stroke-miterlimit="10" stroke-dasharray="" stroke-dashoffset="0" font-family="Serif" font-weight="normal" text-anchor="start" style="mix-blend-mode: normal"><tspan x="0" dy="0">Rocket</tspan></text><text transform="translate(215.56527,166.16682) scale(0.11601,0.11601)" font-size="40" xml:space="preserve" fill="#ffffff" fill-rule="nonzero" stroke="#000000" stroke-width="0" stroke-linecap="butt" stroke-linejoin="miter" stroke-miterlimit="10" stroke-dasharray="" stroke-dashoffset="0" font-family="Serif" font-weight="normal" text-anchor="start" style="mix-blend-mode: normal"><tspan x="0" dy="0">2-3-2</tspan></text></g></g></svg>