<svg version="1.1" xmlns="http://www.w3.org/2000/svg" xmlns:xlink="http://www.w3.org/1999/xlink" width="134.49932" height="121.27309" viewBox="0,0,134.49932,121.27309"><defs><linearGradient x1="236.96438" y1="59.86046" x2="238.56418" y2="76.4161" gradientUnits="userSpaceOnUse" id="color-1"><stop offset="0" stop-color="#4a4a4a" stop-opacity="0"/><stop offset="1" stop-color="#4a4a4a" stop-opacity="0.6549"/></linearGradient><linearGradient x1="241.15855" y1="59.12465" x2="239.04398" y2="77.02569" gradientUnits="userSpaceOnUse" id="color-2"><stop offset="0" stop-color="#292929" stop-opacity="0"/><stop offset="1" stop-color="#292929" stop-opacity="0.58824"/></linearGradient><linearGradient x1="244.67829" y1="60.37193" x2="237.85735" y2="76.76987" gradientUnits="userSpaceOnUse" id="color-3"><stop offset="0" stop-color="#383838" stop-opacity="0"/><stop offset="1" stop-color="#383838" stop-opacity="0.76078"/></linearGradient><linearGradient x1="239.96284" y1="61.01684" x2="238.62849" y2="76.29472" gradientUnits="userSpaceOnUse" id="color-4"><stop offset="0" stop-color="#4b4b4b" stop-opacity="0"/><stop offset="1" stop-color="#4b4b4b" stop-opacity="0.75294"/></linearGradient><linearGradient x1="205.37625" y1="125.56928" x2="276.30167" y2="125.56928" gradientUnits="userSpaceOnUse" id="color-5"><stop offset="0" stop-color="#ffffff"/><stop offset="1" stop-color="#b5b5b5"/></linearGradient><linearGradient x1="179.86976" y1="149.52782" x2="226.48389" y2="149.52782" gradientUnits="userSpaceOnUse" id="color-6"><stop offset="0" stop-color="#c4c4c4"/><stop offset="1" stop-color="#909090"/></linearGradient><linearGradient x1="203.17683" y1="119.3976" x2="203.17683" y2="179.65803" gradientUnits="userSpaceOnUse" id="color-7"><stop offset="0" stop-color="#348317"/><stop offset="1" stop-color="#3c5b0d"/></linearGradient><radialGradient cx="239.34745" cy="135.4747" r="27.13216" gradientUnits="userSpaceOnUse" id="color-8"><stop offset="0" stop-color="#d251e8"/><stop offset="1" stop-color="#a23dba"/></radialGradient><linearGradient x1="250.06522" y1="124.50849" x2="250.06522" y2="178.76799" gradientUnits="userSpaceOnUse" id="color-9"><stop offset="0" stop-color="#348317"/><stop offset="1" stop-color="#3c5b0d"/></linearGradient><radialGradient cx="276.1459" cy="136.63371" r="27.13216" gradientUnits="userSpaceOnUse" id="color-10"><stop offset="0" stop-color="#d251e8"/><stop offset="1" stop-color="#a23dba"/></radialGradient><linearGradient x1="286.88595" y1="124.613" x2="286.88595" y2="178.8725" gradientUnits="userSpaceOnUse" id="color-11"><stop offset="0" stop-color="#348317"/><stop offset="1" stop-color="#3c5b0d"/></linearGradient><linearGradient x1="250.34823" y1="113.49719" x2="250.34823" y2="125.57587" gradientUnits="userSpaceOnUse" id="color-12"><stop offset="0" stop-color="#348317"/><stop offset="1" stop-color="#3c5b0d"/></linearGradient><linearGradient x1="287.79907" y1="113.77674" x2="287.79907" y2="125.85541" gradientUnits="userSpaceOnUse" id="color-13"><stop offset="0" stop-color="#348317"/><stop offset="1" stop-color="#3c5b0d"/></linearGradient><linearGradient x1="219.3546" y1="78.82827" x2="261.36857" y2="78.82827" gradientUnits="userSpaceOnUse" id="color-14"><stop offset="0" stop-color="#008672"/><stop offset="1" stop-color="#004861"/></linearGradient><linearGradient x1="240.36159" y1="75.20638" x2="240.36159" y2="82.45017" gradientUnits="userSpaceOnUse" id="color-15"><stop offset="0" stop-color="#348317"/><stop offset="1" stop-color="#3c5b0d"/></linearGradient><linearGradient x1="219.13907" y1="91.36182" x2="261.15305" y2="91.36182" gradientUnits="userSpaceOnUse" id="color-16"><stop offset="0" stop-color="#008672"/><stop offset="1" stop-color="#004861"/></linearGradient><linearGradient x1="240.14606" y1="87.73992" x2="240.14606" y2="94.98371" gradientUnits="userSpaceOnUse" id="color-17"><stop offset="0" stop-color="#348317"/><stop offset="1" stop-color="#3c5b0d"/></linearGradient><linearGradient x1="174.11977" y1="163.90282" x2="231.23389" y2="163.90282" gradientUnits="userSpaceOnUse" id="color-18"><stop offset="0" stop-color="#d8d8d8"/><stop offset="1" stop-color="#aaaaaa"/></linearGradient><linearGradient x1="202.67684" y1="148.1476" x2="202.67684" y2="179.65803" gradientUnits="userSpaceOnUse" id="color-19"><stop offset="0" stop-color="#348317"/><stop offset="1" stop-color="#3c5b0d"/></linearGradient><linearGradient x1="182.86977" y1="132.83015" x2="223.48389" y2="132.83015" gradientUnits="userSpaceOnUse" id="color-20"><stop offset="0" stop-color="#60ff45"/><stop offset="1" stop-color="#adff00"/></linearGradient><linearGradient x1="203.17683" y1="125.3976" x2="203.17683" y2="140.2627" gradientUnits="userSpaceOnUse" id="color-21"><stop offset="0" stop-color="#348317"/><stop offset="1" stop-color="#3c5b0d"/></linearGradient><linearGradient x1="176.86977" y1="163.99682" x2="227.23389" y2="163.99682" gradientUnits="userSpaceOnUse" id="color-22"><stop offset="0" stop-color="#60ff45"/><stop offset="1" stop-color="#adff00"/></linearGradient><linearGradient x1="202.05184" y1="156.56426" x2="202.05184" y2="171.42937" gradientUnits="userSpaceOnUse" id="color-23"><stop offset="0" stop-color="#348317"/><stop offset="1" stop-color="#3c5b0d"/></linearGradient><linearGradient x1="239.99999" y1="179.02045" x2="239.99999" y2="180.33096" gradientUnits="userSpaceOnUse" id="color-24"><stop offset="0" stop-color="#348317"/><stop offset="1" stop-color="#3c5b0d"/></linearGradient></defs><g transform="translate(-172.75034,-59.05787)"><g data-paper-data="{&quot;isPaintingLayer&quot;:true}" fill-rule="nonzero" stroke-linecap="butt" stroke-linejoin="miter" stroke-miterlimit="10" stroke-dasharray="" stroke-dashoffset="0" style="mix-blend-mode: normal"><path d="M224.90963,75.54451l-0.02048,-0.00372l-0.01236,-0.01487c-0.12171,-0.07227 -0.19481,-0.15561 -0.20344,-0.24491l-0.01688,-0.17464l0.03945,-0.06309l-0.00623,-0.0645l0.04864,-0.07778l-0.03743,-0.38726l-0.10633,-0.20665l0.00766,-0.03764l-0.03013,-0.03628l-0.00045,-0.00466l-0.01717,-0.01494l-0.11498,-0.05779l-0.07406,-0.06869l-0.49007,-0.31073l-0.02736,-0.03654l-0.06196,-0.03114l-0.15247,-0.14142l-0.09447,-0.04537l-0.07483,-0.06512l-0.11498,-0.05779l-0.33516,-0.31087l-0.0269,-0.08376l-0.06731,-0.08103l-0.0039,-0.04029l-0.06355,-0.0765l-0.00623,-0.06449l-0.05154,-0.06205l-0.00191,-0.01976l-0.02572,-0.02386l-0.02691,-0.08376l-0.06731,-0.08103l-0.06413,-0.66362l0.03945,-0.06309l-0.00623,-0.0645l0.04864,-0.07778l-0.01402,-0.14507l0.03945,-0.06309l-0.00623,-0.0645l0.08046,-0.12867l0.07879,-0.16349l0.03833,-0.03039l0.0042,-0.03309l0.15593,-0.1806l0.0692,-0.1436l0.03833,-0.03039l0.0042,-0.03309l0.14889,-0.17246l0.06561,-0.16995l0.08383,-0.07281l0.04201,-0.07697l0.22539,-0.16877l0.14518,-0.19955l0.06719,-0.0433l0.02633,-0.04824l0.80838,-0.60528l0.33504,-0.38806l0.0854,-0.04971l0.04353,-0.05575l0.22856,-0.14141l0.14473,-0.13746l0.06892,-0.03521l0.03201,-0.041l0.28791,-0.17812l0.05469,-0.0201l0.0286,-0.0257l0.17571,-0.08637l0.30398,-0.28873l0.03612,-0.01845l0.01193,-0.02186l0.99806,-0.74731l0.21274,-0.2464l0.15022,-0.34967l0.04973,-0.0414l0.00919,-0.04469l0.30784,-0.32417l0.05311,-0.31745l0.02467,-0.02719l-0.00668,-0.02839l0.16542,-0.34326l0.15058,-0.39009l0.05223,-0.41195l-0.11676,-1.20825l-0.10516,-0.24956l-0.19505,-0.2348l-0.21903,-0.23386l-0.00173,-0.00895l-0.01303,-0.00777l-0.08668,-0.10434l-0.17846,-0.13974l-0.0077,-0.01554l-0.02588,-0.01301l-0.15248,-0.14142l-0.09447,-0.04538l-0.03993,-0.03475l-0.02449,-0.00139l-0.11061,-0.05559l-0.1529,-0.04211l-0.01033,-0.03993l-0.16983,-0.08536l-0.01477,-0.0137l-0.00138,-0.00073l-0.1157,-0.03382l-0.21331,-0.10246l-0.07482,-0.06512l-0.07017,-0.03527l-0.18848,-0.06063l-0.13301,-0.07078l-0.16561,-0.06212l-0.10834,-0.06869l-0.01507,-0.02014l-0.21236,-0.05849l-0.00674,-0.02605l-0.08411,-0.03155l-0.10835,-0.06869l-0.19585,-0.26164l0.22075,-0.12246l0.00934,-0.14404l0.57934,-0.18254l0.11236,-0.02094l0.008,-0.0052l0.04211,-0.00414l0.03735,-0.00696l0.33929,-0.03002l0.33688,-0.03308l0.04246,-0.00049l0.04241,-0.00375l0.01456,0.0031l2.5592,-0.02923l0.80382,-0.04003l0.68433,-0.04163l0.10948,0.00264l0.10553,-0.01036l0.52355,-0.00598l0.22251,-0.02185l0.1876,-0.00214l0.18049,-0.01772l0.20319,-0.00232l0.18351,0.01357l0.1876,-0.00214l0.40975,0.03028l0.1507,0.02546l0.16504,0.01065l0.23042,0.03637l0.10453,-0.0111l0.17125,0.03272l0.19154,0.01416l0.06118,0.03412l0.26193,0.05004l0.11777,0.01202l0.17535,0.03561l0.19396,0.02135l0.31153,0.06637l0.10583,0.03745l0.13275,0.02536l0.09969,0.03207l0.1832,0.03903l0.10583,0.03745l0.13275,0.02536l0.20994,0.06753l0.08242,0.04385l0.1157,0.03382l0.03583,0.01721l0.05233,0.01115l0.10583,0.03745l0.13274,0.02536l0.20994,0.06754l0.08242,0.04386l0.11571,0.03382l0.40199,0.19309l0.92834,0.39734l0.0842,0.06283l0.12317,0.05471l0.13899,0.10883l0.192,0.08218l0.0842,0.06283l0.12316,0.05471l0.19457,0.15235l0.15854,0.10052l0.28987,0.15425l0.0542,0.05464l0.09481,0.04765l0.07406,0.06869l0.16504,0.10464l0.04185,0.05591l0.08389,0.05001l0.5594,0.67339l0.09137,0.08474l0.00656,0.02043l0.02987,0.0178l0.21411,0.25774l0.09137,0.08475l0.0269,0.08376l0.06731,0.08103l0.00726,0.07521l0.06355,0.0765l0.00123,0.01277l0.01703,0.01136l0.11847,0.17348l-0.00037,0.00868l0.01083,0.00784l0.08936,0.15285l0.1538,0.12043l0.02369,0.04781l0.06459,0.04312l0.11847,0.17348l-0.00036,0.00868l0.01082,0.00784l0.09827,0.16808l0.18186,0.16868l0.01328,0.04133l0.05188,0.03756l0.09827,0.16808l0.18186,0.16868l0.01057,0.03292l0.04411,0.02945l0.09678,0.1417l0.19045,0.17665l0.00656,0.02043l0.02987,0.01781l0.08668,0.10434l0.09739,0.07626l0.69216,0.29625l0.238,0.05722l0.12687,0.05018l0.15763,0.03851l0.36834,0.14794l1.53871,0.49498l0.3277,0.07879l0.14221,0.05625l0.17269,0.04505l0.25043,0.10718l0.44572,0.14338l0.08242,0.04385l0.1157,0.03382l0.06131,0.02945l0.20246,0.04868l0.16936,0.06699l0.19669,0.05749l0.42662,0.20492l0.0354,0.03081l0.06509,0.02442l0.15116,0.09584l0.23219,0.09938l0.058,0.04327l0.09364,0.03513l0.21669,0.13739l0.01613,0.02154l0.0396,0.01759l0.19457,0.15235l0.40314,0.25561l0.01613,0.02154l0.0396,0.01759l0.19457,0.15235l0.18645,0.11822l0.01613,0.02154l0.0396,0.01759l0.22006,0.17232l0.01761,0.03555l0.0524,0.03124l0.05278,0.06355l0.19853,0.10564l0.0542,0.05464l0.09481,0.04765l0.22343,0.20724l0.01328,0.04133l0.05188,0.03756l0.08565,0.1465l0.2505,0.18384l0.04114,0.07232l0.08397,0.0678l0.11014,0.23833l0.19078,0.20369l0.00701,0.03621l0.04305,0.03313l0.24735,0.48066l0.11835,0.20243l-0.00594,0.04377l0.035,0.04213l0.07426,0.7684l-0.03192,0.05105l0.01226,0.05204l-0.08472,0.1758l-0.03833,0.03039l-0.0042,0.03309l-0.11253,0.13034l0.00866,0.08962l-0.01289,0.02062l0.02462,0.01561l-0.10471,0.11246l-0.07219,0.11544l-0.04398,0.00932l-0.01871,0.02009l-0.05394,0.02992l-0.03257,0.0521l-0.11508,0.08051l-0.07955,0.08544l-0.0855,0.04743l-0.03336,0.03864l-0.10358,0.06029l-0.06209,0.06668l-0.14306,0.07936l-0.05523,0.04136l-0.15324,0.06577l-0.11906,0.07365l-0.87903,0.32298l-0.25659,0.14234l-0.15008,0.11237l-0.07783,0.0334l-0.0017,0.02615l-0.10577,0.03333l-0.00776,0.01423l-0.01772,0.01327l-0.00921,0.01472l-0.01458,0.00309l-0.33787,0.25298l-0.07783,0.0334l-0.0017,0.02615l-0.22283,0.0702l-0.07135,0.03062l-0.00048,0.00744l-0.06338,0.01997l-0.05375,0.02307l-0.02156,0.00066l-0.08413,0.02651l-0.07135,0.03062l-0.00048,0.00744l-0.06338,0.01997l-0.05375,0.02307l-0.02156,0.00066l-0.08413,0.02651l-0.18897,0.0811l-0.07577,0.00232l-0.09178,0.02892l-0.19981,0.03725l-0.10628,0.0094l-0.09058,0.0213l-0.60281,0.07682l-0.19915,0.00756l-0.00699,0.0013l-0.33929,0.03002l-0.33688,0.03308l-0.04246,0.00049l-0.04241,0.00375l-0.01456,-0.0031l-0.05445,0.00062l-0.2652,0.02141l-0.2124,0.02707l-0.24363,0.00925l-0.23568,0.02314l-0.46387,0.0053l-0.06939,0.00884l-0.24363,0.00925l-0.23568,0.02314l-0.05749,0.00066l-0.06939,0.00884l-0.05943,0.00226l-0.05179,0.01027l-0.403,0.03957l-0.1876,0.00214l-0.18049,0.01772l-0.36226,0.00414l-0.0694,0.00884l-0.05942,0.00225l-0.05179,0.01027l-0.403,0.03957l-0.1876,0.00214l-0.18049,0.01772l-0.86503,0.00988l-0.35762,0.02886l-0.15184,-0.00075l-0.14603,0.01434l-12.49602,0.14272l-0.23962,-0.01771l-0.24487,-0.00367l-0.61632,-0.06289l-0.03754,-0.00762l-0.09307,0.00106l-0.01393,0.00343l-0.04304,-0.00278l-0.04246,0.00049l-0.34253,-0.02532l-0.34433,-0.02221l-0.03861,-0.00609l-0.04281,-0.00317l-0.00899,-0.00501l-0.11616,-0.01834l-0.6133,-0.16891l-0.06641,-0.25667l-0.00141,-0.00078l0.00103,-0.00067l-0.0414,-0.16002c-0.37755,-0.03358 -0.69998,-0.11581 -0.90502,-0.22667z" fill="url(#color-1)" stroke="none" stroke-width="0.5"/><path d="M224.51814,75.71123l-0.02122,-0.00457l-0.00988,-0.01638c-0.11451,-0.08129 -0.17404,-0.17318 -0.16263,-0.26974l0.0223,-0.18883l0.05719,-0.06697l0.00824,-0.06974l0.0705,-0.08256l0.04946,-0.41873l-0.06677,-0.22581l0.01699,-0.04039l-0.02409,-0.03996l0.00059,-0.00504l-0.01505,-0.01659l-0.11062,-0.06549l-0.06395,-0.07612l-0.45652,-0.34859l-0.02103,-0.04016l-0.05961,-0.03529l-0.13166,-0.15672l-0.09137,-0.05153l-0.06561,-0.07229l-0.11062,-0.06549l-0.2894,-0.34449l-0.00959,-0.09108l-0.05381,-0.08924l0.00515,-0.04356l-0.0508,-0.08426l0.00824,-0.06974l-0.0412,-0.06834l0.00253,-0.02137l-0.02221,-0.02644l-0.00959,-0.09108l-0.05381,-0.08924l0.08476,-0.71755l0.05719,-0.06697l0.00824,-0.06974l0.07051,-0.08256l0.01853,-0.15686l0.05718,-0.06697l0.00824,-0.06974l0.11664,-0.13659l0.1229,-0.17418l0.04839,-0.03173l0.0122,-0.03558l0.21007,-0.19052l0.10795,-0.15299l0.04839,-0.03173l0.0122,-0.03558l0.2006,-0.18193l0.11019,-0.18152l0.10731,-0.07624l0.06315,-0.08186l0.28227,-0.17586l0.20287,-0.21126l0.08252,-0.04486l0.03958,-0.05131l1.01233,-0.6307l0.45139,-0.40938l0.10364,-0.05127l0.05989,-0.05895l0.27933,-0.14625l0.18799,-0.1443l0.08251,-0.03609l0.04402,-0.04334l0.35185,-0.18423l0.06365,-0.02017l0.03681,-0.02694l0.20956,-0.08835l0.39485,-0.30309l0.04324,-0.01892l0.01794,-0.02325l1.24987,-0.7787l0.28661,-0.25994l0.24314,-0.37304l0.06325,-0.0433l0.02028,-0.04795l0.40723,-0.34122l0.13091,-0.34095l0.03292,-0.02865l-0.00063,-0.03081l0.25804,-0.36571l0.25291,-0.41663l0.15189,-0.4429l0.15432,-1.30644l-0.05554,-0.27206l-0.15592,-0.2586l-0.182,-0.25825l0.0002,-0.0097l-0.01225,-0.00874l-0.06929,-0.11492l-0.16008,-0.15562l-0.0047,-0.01697l-0.0249,-0.01474l-0.13166,-0.15672l-0.09137,-0.05153l-0.03501,-0.03858l-0.02608,-0.00217l-0.10641,-0.063l-0.15515,-0.04962l-0.00188,-0.04335l-0.16339,-0.09672l-0.01275,-0.01518l-0.00132,-0.00083l-0.11695,-0.03965l-0.20632,-0.11636l-0.06561,-0.07229l-0.06751,-0.03996l-0.18923,-0.07057l-0.12705,-0.07999l-0.16421,-0.07155l-0.10093,-0.07707l-0.01159,-0.02214l-0.21549,-0.06891l-0.00123,-0.02828l-0.08341,-0.03634l-0.10093,-0.07707l-0.15056,-0.28758l0.26652,-0.12604l0.04348,-0.15511l0.66723,-0.181l0.12604,-0.01951l0.00984,-0.0054l0.04638,-0.0033l0.0419,-0.00649l0.37292,-0.02308l0.37104,-0.02644l0.04591,0.00064l0.04661,-0.00288l0.01498,0.00374l2.76717,0.03863l0.8763,-0.02115l0.74778,-0.02613l0.11748,0.00584l0.11623,-0.00828l0.5661,0.0079l0.24508,-0.01746l0.20285,0.00283l0.19879,-0.01417l0.2197,0.00307l0.19479,0.01966l0.20285,0.00283l0.43493,0.0439l0.15665,0.0316l0.17554,0.01601l0.2401,0.04555l0.11532,-0.0091l0.17713,0.03998l0.20331,0.02052l0.05807,0.03848l0.27091,0.06116l0.12424,0.01619l0.18088,0.04321l0.20426,0.02834l0.32063,0.08013l0.10547,0.04329l0.1373,0.03099l0.10009,0.03732l0.18855,0.04712l0.10546,0.04329l0.1373,0.03099l0.21078,0.0786l0.07872,0.04956l0.11695,0.03965l0.03465,0.01954l0.05385,0.01346l0.10547,0.04329l0.1373,0.03099l0.21078,0.0786l0.07872,0.04956l0.11695,0.03965l0.38881,0.21929l0.90916,0.45403l0.07624,0.07008l0.12015,0.06238l0.12467,0.1212l0.18802,0.0939l0.07624,0.07008l0.12015,0.06238l0.17453,0.16966l0.14769,0.11277l0.27688,0.17432l0.04579,0.06042l0.09121,0.05399l0.06395,0.07612l0.15374,0.11739l0.03217,0.06145l0.07889,0.05624l0.44717,0.74167l0.07889,0.09391l0.00234,0.02222l0.02809,0.02002l0.17116,0.28387l0.07889,0.09391l0.00959,0.09108l0.05381,0.08924l-0.0096,0.08132l0.0508,0.08425l-0.00163,0.01381l0.01573,0.01272l0.08754,0.19036l-0.00241,0.00935l0.00986,0.00875l0.06093,0.16732l0.13796,0.13412l0.01447,0.05221l0.05966,0.04828l0.08754,0.19036l-0.0024,0.00935l0.00986,0.00875l0.06701,0.18399l0.15703,0.18693l0.00473,0.04494l0.04725,0.04193l0.06701,0.18399l0.15703,0.18693l0.00377,0.0358l0.04075,0.03297l0.07151,0.1555l0.16444,0.19575l0.00234,0.02222l0.02809,0.02002l0.06929,0.11492l0.08736,0.08493l0.67785,0.33852l0.24343,0.06825l0.1252,0.0576l0.16109,0.04586l0.36297,0.16967l1.54487,0.57608l0.33518,0.09397l0.14035,0.06457l0.17582,0.05333l0.24525,0.12248l0.4475,0.16687l0.07873,0.04956l0.11695,0.03965l0.0593,0.03344l0.20709,0.05806l0.16713,0.0769l0.19881,0.0674l0.41263,0.23273l0.03104,0.0342l0.06455,0.02813l0.14081,0.10752l0.22739,0.11356l0.05251,0.04827l0.09286,0.04046l0.20185,0.15413l0.01239,0.02368l0.03864,0.02006l0.17453,0.16966l0.37555,0.28676l0.01239,0.02368l0.03864,0.02006l0.17453,0.16966l0.1737,0.13263l0.01239,0.02368l0.03864,0.02006l0.1974,0.1919l0.01075,0.03883l0.04928,0.03513l0.0422,0.06999l0.18963,0.11938l0.04579,0.06042l0.09121,0.05399l0.19293,0.22966l0.00473,0.04494l0.04725,0.04193l0.0584,0.16037l0.22755,0.20516l0.0276,0.07914l0.07485,0.07543l0.06352,0.26009l0.15853,0.22493l-0.00083,0.03925l0.03875,0.03692l0.15531,0.52523l0.0807,0.22159l-0.01656,0.04704l0.02798,0.0464l-0.09814,0.83085l-0.04627,0.05418l0.00115,0.05647l-0.13215,0.1873l-0.04839,0.03173l-0.0122,0.03558l-0.15161,0.1375l-0.01144,0.0969l-0.01869,0.02189l0.02294,0.01751l-0.13903,0.11843l-0.10465,0.12254l-0.0496,0.00885l-0.02484,0.02115l-0.06512,0.0308l-0.04722,0.0553l-0.14281,0.08369l-0.10563,0.08997l-0.10322,0.04882l-0.04495,0.04077l-0.1257,0.06219l-0.08244,0.07022l-0.17271,0.08168l-0.06917,0.04309l-0.18055,0.06674l-0.1455,0.07618l-1.02305,0.32427l-0.30977,0.1465l-0.18795,0.11709l-0.0917,0.03389l-0.0079,0.02816l-0.12181,0.03304l-0.01168,0.01514l-0.0222,0.01383l-0.01334,0.01563l-0.01644,0.00293l-0.4231,0.2636l-0.0917,0.03389l-0.0079,0.02816l-0.25663,0.06962l-0.08406,0.03107l-0.00225,0.00801l-0.073,0.0198l-0.06333,0.02341l-0.0234,0.00012l-0.09689,0.02629l-0.08406,0.03107l-0.00225,0.00801l-0.073,0.0198l-0.06333,0.02341l-0.0234,0.00012l-0.09689,0.02629l-0.22264,0.08229l-0.08226,0.00042l-0.1057,0.02867l-0.22416,0.0347l-0.11682,0.00723l-0.10264,0.02049l-0.66802,0.06633l-0.21655,0.00269l-0.00784,0.00121l-0.37292,0.02308l-0.37103,0.02644l-0.04591,-0.00064l-0.04662,0.00288l-0.01498,-0.00374l-0.05888,-0.00082l-0.29101,0.01582l-0.23537,0.02337l-0.26493,0.0033l-0.25958,0.0185l-0.50156,-0.007l-0.0769,0.00764l-0.26493,0.0033l-0.25958,0.0185l-0.06216,-0.00087l-0.0769,0.00764l-0.06462,0.00081l-0.05825,0.00966l-0.44386,0.03163l-0.20285,-0.00283l-0.19879,0.01417l-0.39171,-0.00547l-0.07691,0.00764l-0.06462,0.0008l-0.05825,0.00966l-0.44386,0.03163l-0.20285,-0.00283l-0.19879,0.01417l-0.93534,-0.01306l-0.39242,0.02133l-0.16361,-0.00497l-0.16083,0.01146l-13.51152,-0.18865l-0.25436,-0.02567l-0.26327,-0.01067l-0.65018,-0.08473l-0.03872,-0.00925l-0.10063,-0.00141l-0.01582,0.00331l-0.04578,-0.00418l-0.04591,-0.00064l-0.36357,-0.0367l-0.36625,-0.0334l-0.04023,-0.00763l-0.04545,-0.00459l-0.00853,-0.00565l-0.12103,-0.02296l-0.62234,-0.19901l-0.01208,-0.27867l-0.00133,-0.00089l0.00127,-0.0007l-0.00753,-0.17374c-0.39945,-0.04657 -0.72815,-0.14411 -0.92359,-0.2693z" fill="url(#color-2)" stroke="none" stroke-width="0.5"/><path d="M224.85399,75.09313l-0.01828,-0.00489l-0.00462,-0.01539c-0.08319,-0.07846 -0.11292,-0.1649 -0.07612,-0.25335l0.07195,-0.17297l0.07085,-0.05976l0.02657,-0.06388l0.08734,-0.07367l0.15955,-0.38357l0.00009,-0.20986l0.02663,-0.0366l-0.01128,-0.03753l0.00192,-0.00462l-0.00933,-0.01574l-0.08391,-0.0638l-0.03809,-0.07208l-0.32498,-0.33534l-0.0084,-0.03762l-0.04522,-0.03438l-0.07841,-0.14839l-0.07001,-0.05034l-0.04066,-0.06861l-0.08391,-0.0638l-0.17236,-0.32619l0.01599,-0.08409l-0.02519,-0.08382l0.0166,-0.0399l-0.02377,-0.07914l0.02657,-0.06388l-0.01929,-0.06419l0.00814,-0.01958l-0.01323,-0.02503l0.01598,-0.08409l-0.02519,-0.08382l0.27341,-0.6573l0.07085,-0.05976l0.02657,-0.06388l0.08734,-0.07367l0.05977,-0.14368l0.07084,-0.05976l0.02657,-0.06388l0.14449,-0.12188l0.1605,-0.15626l0.05315,-0.02763l0.02092,-0.03233l0.24513,-0.16849l0.14097,-0.13725l0.05315,-0.02763l0.02092,-0.03233l0.23407,-0.16089l0.15079,-0.16342l0.11947,-0.06667l0.08039,-0.07327l0.30754,-0.15267l0.24415,-0.18779l0.08812,-0.03861l0.05038,-0.04592l1.10296,-0.54755l0.52671,-0.36203l0.1093,-0.04383l0.07114,-0.05229l0.29677,-0.12554l0.21223,-0.12668l0.08573,-0.03054l0.0523,-0.03845l0.37383,-0.15813l0.06404,-0.01651l0.04119,-0.02359l0.21682,-0.07452l0.44576,-0.26608l0.04493,-0.01601l0.02284,-0.02081l1.36177,-0.67604l0.33444,-0.22988l0.32526,-0.33531l0.06997,-0.03779l0.03171,-0.04345l0.46753,-0.30076l0.21329,-0.3094l0.03808,-0.0253l0.00782,-0.02836l0.33696,-0.32808l0.34611,-0.37509l0.26035,-0.40251l0.4978,-1.19674l0.02301,-0.25204l-0.07298,-0.24289l-0.09707,-0.24341l0.00283,-0.00891l-0.00889,-0.00843l-0.03243,-0.10794l-0.10486,-0.1483l0.0003,-0.01576l-0.01889,-0.01436l-0.07842,-0.14839l-0.07001,-0.05035l-0.0217,-0.03662l-0.0234,-0.00284l-0.08072,-0.06137l-0.1292,-0.05063l0.01008,-0.03993l-0.12394,-0.09423l-0.00759,-0.01437l-0.00098,-0.00081l-0.09678,-0.04024l-0.15808,-0.11368l-0.04066,-0.06861l-0.05121,-0.03893l-0.15484,-0.071l-0.09507,-0.07767l-0.13157,-0.0711l-0.07184,-0.07414l-0.00463,-0.02074l-0.17944,-0.07032l0.00657,-0.02606l-0.06682,-0.03611l-0.07185,-0.07414l-0.06015,-0.26938l0.27948,-0.10736l0.08224,-0.14127l0.66304,-0.14501l0.12126,-0.01389l0.01051,-0.00465l0.04356,-0.00155l0.04031,-0.00462l0.34931,-0.00922l0.3485,-0.01238l0.04206,0.00207l0.04366,-0.00115l0.01276,0.00393l2.53483,0.12462l0.81181,0.00876l0.69495,0.00003l0.10647,0.00916l0.10916,-0.00388l0.51857,0.02549l0.23018,-0.00817l0.18581,0.00913l0.18671,-0.00663l0.20125,0.00989l0.17382,0.02436l0.18581,0.00913l0.38811,0.05438l0.13548,0.03411l0.15711,0.02037l0.20845,0.04963l0.10855,-0.00466l0.15203,0.04248l0.18143,0.02542l0.04294,0.03727l0.23254,0.06498l0.10987,0.01889l0.15461,0.04557l0.18016,0.03265l0.2731,0.08403l0.08522,0.04322l0.11785,0.03293l0.0819,0.03756l0.1606,0.04942l0.08522,0.04322l0.11785,0.03293l0.17248,0.07908l0.05891,0.04812l0.09678,0.04024l0.02655,0.01909l0.04587,0.01411l0.08522,0.04322l0.11785,0.03293l0.17248,0.07909l0.05891,0.04812l0.09678,0.04024l0.29791,0.21423l0.71261,0.44691l0.05104,0.06691l0.09353,0.06125l0.08167,0.1155l0.14738,0.09243l0.05104,0.06691l0.09353,0.06125l0.11432,0.16168l0.10513,0.10849l0.20721,0.16926l0.02566,0.05705l0.06919,0.0526l0.03809,0.07208l0.10944,0.11293l0.01285,0.05756l0.05725,0.05427l0.20931,0.69661l0.04699,0.08892l-0.0039,0.02051l0.02038,0.01932l0.08011,0.26663l0.04699,0.08892l-0.01599,0.08409l0.02519,0.08382l-0.03099,0.0745l0.02378,0.07914l-0.00526,0.01265l0.011,0.01221l0.02867,0.17792l-0.00476,0.00852l0.00669,0.00837l0.01048,0.15587l0.09037,0.12781l-0.00092,0.0485l0.04173,0.04632l0.02867,0.17792l-0.00476,0.00852l0.00668,0.00837l0.01152,0.1714l0.09353,0.177l-0.00789,0.04149l0.03204,0.0401l0.01152,0.1714l0.09353,0.177l-0.00629,0.03305l0.0285,0.03164l0.02342,0.14534l0.09794,0.18535l-0.0039,0.02051l0.02038,0.01932l0.03243,0.10794l0.05722,0.08093l0.53131,0.3332l0.20533,0.07061l0.09947,0.05702l0.13569,0.04737l0.28767,0.16775l1.26411,0.57964l0.28272,0.09723l0.11151,0.06391l0.1472,0.05471l0.19223,0.12055l0.36617,0.1679l0.05891,0.04812l0.09678,0.04024l0.04543,0.03267l0.17468,0.06007l0.13279,0.07611l0.16451,0.0684l0.31617,0.22736l0.01924,0.03246l0.05172,0.02795l0.10023,0.10343l0.17823,0.11177l0.03516,0.04609l0.07439,0.0402l0.14369,0.14827l0.00495,0.02218l0.03007,0.0197l0.11432,0.16168l0.26733,0.27586l0.00495,0.02218l0.03007,0.0197l0.11432,0.16168l0.12364,0.12759l0.00495,0.02218l0.03007,0.01969l0.1293,0.18287l-0.00069,0.03606l0.03576,0.0339l0.01975,0.06574l0.14191,0.11592l0.02566,0.05705l0.06919,0.0526l0.11491,0.21746l-0.00789,0.04149l0.03204,0.0401l0.01004,0.1494l0.15343,0.19604l0.00383,0.07368l0.0483,0.0718l-0.01241,0.24128l0.08455,0.21201l-0.01145,0.03607l0.02559,0.03521l-0.0002,0.48813l0.01388,0.20642l-0.02805,0.04274l0.01309,0.04358l-0.31658,0.76109l-0.05732,0.04835l-0.01433,0.05198l-0.17258,0.16803l-0.05315,0.02763l-0.02092,0.03233l-0.1769,0.12159l-0.03692,0.08876l-0.02315,0.01953l0.01633,0.01685l-0.16014,0.10446l-0.12963,0.10935l-0.04804,0.00654l-0.0286,0.01866l-0.06829,0.02623l-0.0585,0.04935l-0.15415,0.07238l-0.12166,0.07936l-0.10825,0.04158l-0.05245,0.03605l-0.13256,0.05315l-0.09496,0.06194l-0.18112,0.06957l-0.07536,0.03741l-0.18425,0.05557l-0.15459,0.06539l-1.02936,0.26534l-0.32485,0.12478l-0.20477,0.10166l-0.09358,0.02823l-0.01493,0.02564l-0.12105,0.02647l-0.01486,0.01355l-0.02419,0.01201l-0.01653,0.01394l-0.01592,0.00217l-0.46098,0.22885l-0.09358,0.02823l-0.01493,0.02564l-0.25502,0.05577l-0.08579,0.02587l-0.00425,0.00729l-0.07254,0.01587l-0.06463,0.01949l-0.02156,-0.00064l-0.09629,0.02106l-0.08579,0.02587l-0.00425,0.00729l-0.07254,0.01587l-0.06463,0.01949l-0.02156,-0.00064l-0.09629,0.02106l-0.22721,0.06853l-0.07579,-0.00226l-0.10503,0.02297l-0.21564,0.0247l-0.10942,0.00289l-0.1,0.01555l-0.63254,0.03951l-0.19993,-0.00449l-0.00755,0.00086l-0.34931,0.00922l-0.34849,0.01238l-0.04206,-0.00207l-0.04367,0.00115l-0.01276,-0.00393l-0.05394,-0.00265l-0.27199,0.00518l-0.22287,0.01392l-0.24458,-0.0055l-0.2438,0.00866l-0.45945,-0.02259l-0.07282,0.00455l-0.24458,-0.0055l-0.2438,0.00866l-0.05694,-0.0028l-0.07282,0.00455l-0.05966,-0.00134l-0.05621,0.00701l-0.41689,0.01481l-0.18581,-0.00913l-0.18671,0.00663l-0.35881,-0.01764l-0.07282,0.00455l-0.05966,-0.00134l-0.05621,0.00701l-0.41689,0.01481l-0.18581,-0.00913l-0.18671,0.00663l-0.8568,-0.04212l-0.36677,0.00699l-0.14914,-0.00984l-0.15106,0.00537l-12.377,-0.60852l-0.22698,-0.0318l-0.23926,-0.01829l-0.57498,-0.09887l-0.03309,-0.00976l-0.09218,-0.00453l-0.01545,0.00254l-0.04097,-0.00531l-0.04206,-0.00207l-0.32444,-0.04546l-0.3278,-0.04251l-0.03493,-0.00832l-0.04055,-0.00568l-0.00631,-0.00547l-0.10507,-0.02502l-0.51824,-0.20309l0.06479,-0.25672l-0.00099,-0.00086l0.00135,-0.0006l0.04039,-0.16005c-0.35474,-0.0557 -0.63053,-0.156 -0.77619,-0.27745z" fill="url(#color-3)" stroke="none" stroke-width="0.5"/><path d="M226.20206,75.21839l-0.01823,-0.00383l-0.00886,-0.01394c-0.09982,-0.06899 -0.15301,-0.1472 -0.14581,-0.22961l0.01408,-0.16116l0.04703,-0.05731l0.0052,-0.05952l0.05798,-0.07065l0.03121,-0.35737l-0.06288,-0.19243l0.01344,-0.0345l-0.0216,-0.03401l0.00038,-0.0043l-0.01328,-0.0141l-0.09608,-0.05552l-0.05655,-0.06474l-0.3986,-0.29596l-0.01899,-0.0342l-0.05178,-0.02992l-0.11643,-0.13329l-0.0793,-0.04368l-0.05787,-0.06147l-0.09608,-0.05552l-0.25592,-0.29299l-0.01057,-0.07767l-0.04824,-0.07596l0.00325,-0.03718l-0.04555,-0.07172l0.0052,-0.05952l-0.03695,-0.05817l0.0016,-0.01824l-0.01964,-0.02249l-0.01057,-0.07767l-0.04824,-0.07597l0.05348,-0.61241l0.04703,-0.05731l0.0052,-0.05952l0.05798,-0.07065l0.0117,-0.13387l0.04703,-0.05731l0.0052,-0.05952l0.09593,-0.11688l0.10028,-0.14898l0.04046,-0.02722l0.00947,-0.03039l0.17422,-0.16319l0.08808,-0.13085l0.04046,-0.02722l0.00948,-0.03039l0.16636,-0.15583l0.08924,-0.15519l0.08955,-0.06537l0.05173,-0.07003l0.23618,-0.1509l0.16753,-0.18085l0.06922,-0.03853l0.03242,-0.04389l0.84707,-0.54119l0.37434,-0.35064l0.08707,-0.04406l0.04954,-0.05047l0.23446,-0.12564l0.15659,-0.12369l0.06944,-0.03105l0.03643,-0.03711l0.29533,-0.15826l0.05377,-0.01741l0.03069,-0.0231l0.17645,-0.07602l0.3289,-0.25979l0.03639,-0.01627l0.0147,-0.01989l1.04583,-0.66818l0.2377,-0.22264l0.19764,-0.31899l0.05282,-0.03713l0.01604,-0.04097l0.33846,-0.29236l0.10274,-0.29127l0.02733,-0.02454l-0.00134,-0.02628l0.21054,-0.31278l0.20483,-0.35621l0.11796,-0.37831l0.09738,-1.115l-0.05452,-0.23192l-0.1398,-0.22013l-0.16204,-0.21975l-0.00008,-0.00827l-0.01068,-0.00741l-0.06213,-0.09782l-0.14064,-0.13226l-0.00445,-0.01446l-0.02163,-0.0125l-0.11643,-0.13329l-0.0793,-0.04368l-0.03088,-0.03281l-0.02231,-0.00178l-0.09244,-0.05341l-0.13366,-0.04185l-0.00274,-0.03697l-0.14192,-0.08201l-0.01127,-0.01291l-0.00115,-0.0007l-0.10081,-0.03346l-0.17906,-0.09863l-0.05787,-0.06147l-0.05864,-0.03388l-0.16328,-0.05961l-0.11048,-0.06784l-0.14197,-0.06053l-0.08812,-0.06543l-0.01047,-0.01885l-0.18564,-0.05812l-0.00179,-0.02412l-0.07211,-0.03074l-0.08813,-0.06543l-0.13598,-0.24487l0.22406,-0.10835l0.03302,-0.13246l0.56446,-0.15648l0.10702,-0.01704l0.00825,-0.00463l0.03948,-0.00296l0.03557,-0.00566l0.31754,-0.02084l0.31584,-0.02371l0.03918,0.0004l0.03969,-0.0026l0.01288,0.00315l2.36168,0.02438l0.74701,-0.02076l0.63724,-0.02461l0.10037,0.00462l0.09893,-0.00743l0.48315,0.00499l0.20861,-0.01566l0.17312,0.00179l0.16921,-0.0127l0.18751,0.00193l0.16669,0.01617l0.17312,0.00179l0.3722,0.0361l0.13446,0.02647l0.15017,0.01311l0.20602,0.03811l0.09814,-0.00812l0.15215,0.03356l0.17399,0.01688l0.05055,0.03265l0.23272,0.05133l0.10641,0.01343l0.15544,0.03631l0.17499,0.02355l0.27563,0.06737l0.09111,0.0366l0.11794,0.02602l0.08637,0.03153l0.16209,0.03962l0.09111,0.0366l0.11794,0.02601l0.18188,0.0664l0.06846,0.04204l0.10081,0.03346l0.03007,0.01657l0.04629,0.01131l0.09111,0.0366l0.11794,0.02601l0.18188,0.0664l0.06846,0.04204l0.10082,0.03346l0.33744,0.18587l0.78751,0.38452l0.06688,0.05955l0.10414,0.05285l0.10954,0.10301l0.16287,0.07952l0.06688,0.05955l0.10414,0.05284l0.15333,0.1442l0.12895,0.09575l0.24078,0.14786l0.04064,0.0514l0.07922,0.04578l0.05655,0.06474l0.13424,0.09967l0.02906,0.05232l0.06877,0.04773l0.40094,0.63133l0.06976,0.07987l0.00258,0.01895l0.02449,0.017l0.15346,0.24164l0.06977,0.07987l0.01057,0.07767l0.04825,0.07597l-0.00606,0.06941l0.04555,0.07172l-0.00103,0.01179l0.01375,0.01081l0.07968,0.16213l-0.00181,0.00798l0.00864,0.00744l0.05637,0.14255l0.12122,0.11399l0.01371,0.0445l0.05216,0.041l0.07968,0.16212l-0.0018,0.00799l0.00864,0.00744l0.06199,0.15675l0.13887,0.15898l0.00522,0.03833l0.04141,0.03563l0.06199,0.15675l0.13887,0.15898l0.00416,0.03053l0.03563,0.028l0.06509,0.13243l0.14542,0.16649l0.00258,0.01895l0.02449,0.017l0.06213,0.09782l0.07676,0.07218l0.58715,0.28668l0.20946,0.05747l0.10832,0.04875l0.13863,0.03863l0.31411,0.14362l1.33303,0.48667l0.28841,0.07913l0.12143,0.05465l0.15139,0.04495l0.21244,0.10372l0.38614,0.14097l0.06846,0.04204l0.10081,0.03346l0.05146,0.02835l0.1782,0.04889l0.1446,0.06508l0.17137,0.05688l0.35813,0.19726l0.02738,0.02908l0.05581,0.02379l0.12294,0.09128l0.19696,0.09617l0.04607,0.04101l0.08028,0.03423l0.17624,0.13086l0.01119,0.02016l0.03348,0.01699l0.15334,0.1442l0.3279,0.24347l0.01119,0.02016l0.03348,0.01699l0.15334,0.1442l0.15166,0.11261l0.01119,0.02016l0.03348,0.01699l0.17343,0.16309l0.01019,0.03309l0.04296,0.02982l0.03783,0.05958l0.1649,0.10126l0.04064,0.0514l0.07922,0.04578l0.17062,0.19533l0.00522,0.03832l0.04141,0.03563l0.05403,0.13663l0.1995,0.17431l0.02562,0.06742l0.06583,0.06412l0.06101,0.22168l0.14114,0.1914l0.00032,0.03348l0.03402,0.03138l0.14627,0.44759l0.07466,0.18879l-0.01289,0.04018l0.02508,0.0395l-0.06193,0.7091l-0.03805,0.04637l0.00245,0.04817l-0.10783,0.16019l-0.04046,0.02722l-0.00948,0.03039l-0.12573,0.11777l-0.00722,0.0827l-0.01537,0.01873l0.02003,0.01487l-0.1155,0.10146l-0.08606,0.10486l-0.04208,0.0077l-0.02063,0.01812l-0.05475,0.02647l-0.03884,0.04732l-0.11963,0.07184l-0.08775,0.07708l-0.08678,0.04197l-0.03728,0.03492l-0.1056,0.05344l-0.06848,0.06016l-0.1452,0.07022l-0.05788,0.03698l-0.15227,0.05749l-0.12213,0.06544l-0.86426,0.27981l-0.26043,0.12594l-0.15726,0.10047l-0.07734,0.0292l-0.006,0.02404l-0.10306,0.02857l-0.00956,0.01295l-0.01858,0.01187l-0.01098,0.01337l-0.01394,0.00255l-0.35404,0.22619l-0.07734,0.0292l-0.006,0.02404l-0.2171,0.06019l-0.0709,0.02677l-0.00171,0.00684l-0.06176,0.01712l-0.05342,0.02017l-0.01996,0.00017l-0.08197,0.02272l-0.0709,0.02677l-0.00171,0.00684l-0.06176,0.01712l-0.05342,0.02017l-0.01996,0.00017l-0.08197,0.02272l-0.18777,0.07089l-0.07017,0.00061l-0.08942,0.02479l-0.19032,0.0303l-0.09947,0.00653l-0.08703,0.0178l-0.56815,0.05866l-0.18467,0.00297l-0.00666,0.00106l-0.31753,0.02084l-0.31583,0.02371l-0.03918,-0.00041l-0.0397,0.00261l-0.01288,-0.00315l-0.05025,-0.00052l-0.24785,0.0144l-0.20018,0.02067l-0.22592,0.00363l-0.22096,0.01658l-0.42806,-0.00442l-0.0654,0.00675l-0.22591,0.00363l-0.22095,0.01659l-0.05305,-0.00055l-0.0654,0.00675l-0.05511,0.00089l-0.04943,0.00842l-0.37783,0.02836l-0.17312,-0.00179l-0.16921,0.0127l-0.33431,-0.00345l-0.06541,0.00675l-0.05511,0.00089l-0.04943,0.00842l-0.37782,0.02836l-0.17312,-0.00179l-0.16921,0.0127l-0.79828,-0.00824l-0.33421,0.01941l-0.13971,-0.00374l-0.13691,0.01028l-11.53159,-0.11904l-0.21766,-0.02111l-0.22488,-0.00829l-0.55689,-0.07027l-0.03327,-0.00777l-0.08589,-0.00089l-0.0134,0.00288l-0.03916,-0.00342l-0.03918,-0.0004l-0.31113,-0.03018l-0.31332,-0.02735l-0.03452,-0.00639l-0.03889,-0.00377l-0.00743,-0.0048l-0.10385,-0.01921l-0.53613,-0.16784l-0.01762,-0.2377l-0.00116,-0.00075l0.00106,-0.0006l-0.01099,-0.14819c-0.34199,-0.03849 -0.62496,-0.12068 -0.79497,-0.22687z" fill="url(#color-4)" stroke="none" stroke-width="0.5"/><path d="M205.37625,179.46951c0,0 9.42687,-30.462 11.80468,-48.45901c2.35457,-17.82105 2.39314,-59.00037 2.39314,-59.00037l41.66052,-0.34109c0,0 -1.12795,40.94869 1.42617,59.22261c2.46509,17.63697 13.64091,48.57786 13.64091,48.57786z" fill="url(#color-5)" stroke="none" stroke-width="0"/><path d="M179.86976,179.65803v-60.26043h46.61412v60.26043z" fill="url(#color-6)" stroke="url(#color-7)" stroke-width="0"/><path d="M267.87433,151.63824c0,14.98335 0.01372,26.93128 -17.8091,27.12975c-16.49564,0.18369 -17.8091,-12.1464 -17.8091,-27.12975c0,-14.98335 2.64508,-26.92288 17.8091,-27.12975c15.82517,-0.21589 17.8091,12.1464 17.8091,27.12975z" fill="url(#color-8)" stroke="url(#color-9)" stroke-width="0"/><path d="M304.69505,151.74275c0,14.98335 0.01372,26.93128 -17.8091,27.12975c-16.49563,0.18369 -17.8091,-12.1464 -17.8091,-27.12975c0,-14.98335 2.64508,-26.92288 17.8091,-27.12975c15.82517,-0.2159 17.8091,12.1464 17.8091,27.12975z" fill="url(#color-10)" stroke="url(#color-11)" stroke-width="0"/><path d="M248.30844,125.57587v-12.07868h4.07958v12.07868z" fill="#312d29" stroke="url(#color-12)" stroke-width="0"/><path d="M285.75928,125.85541v-12.07868h4.07958v12.07868z" fill="#312d29" stroke="url(#color-13)" stroke-width="0"/><path d="M246.70947,118.28278v-3.56521h44.12864v3.56521z" fill="#36322e" stroke="none" stroke-width="0"/><path d="M219.3546,82.45017v-7.24379h42.01397v7.24379z" fill="url(#color-14)" stroke="url(#color-15)" stroke-width="0"/><path d="M219.13907,94.98371v-7.24379h42.01397v7.24379z" fill="url(#color-16)" stroke="url(#color-17)" stroke-width="0"/><path d="M174.11977,179.65803v-31.51043h57.11412v31.51043z" fill="url(#color-18)" stroke="url(#color-19)" stroke-width="0"/><path d="M182.86977,140.2627v-14.86511h40.61412v14.86511z" fill="url(#color-20)" stroke="url(#color-21)" stroke-width="0"/><path d="M176.86977,171.42937v-14.86511h50.36412v14.86511z" fill="url(#color-22)" stroke="url(#color-23)" stroke-width="0"/><path d="M172.75034,180.33096v-1.31049h134.49932v1.31049z" fill="#312d29" stroke="url(#color-24)" stroke-width="0"/></g></g></svg>