<svg version="1.1" xmlns="http://www.w3.org/2000/svg" xmlns:xlink="http://www.w3.org/1999/xlink" width="84.5" height="38.32609" viewBox="0,0,84.5,38.32609"><defs><linearGradient x1="240" y1="161.58695" x2="240" y2="198.41312" gradientUnits="userSpaceOnUse" id="color-1"><stop offset="0" stop-color="#4b8455"/><stop offset="1" stop-color="#72b235"/></linearGradient><linearGradient x1="240" y1="161.58695" x2="240" y2="198.41312" gradientUnits="userSpaceOnUse" id="color-2"><stop offset="0" stop-color="#246037"/><stop offset="1" stop-color="#a0ff67"/></linearGradient><radialGradient cx="263.43592" cy="180.0329" r="14.71752" gradientUnits="userSpaceOnUse" id="color-3"><stop offset="0" stop-color="#000000"/><stop offset="1" stop-color="#474747"/></radialGradient><linearGradient x1="263.43592" y1="165.04495" x2="263.43592" y2="195.02084" gradientUnits="userSpaceOnUse" id="color-4"><stop offset="0" stop-color="#1c1c1c"/><stop offset="1" stop-color="#050505"/></linearGradient><radialGradient cx="274.96631" cy="187.77933" r="1.92768" gradientUnits="userSpaceOnUse" id="color-5"><stop offset="0" stop-color="#b4fdff"/><stop offset="1" stop-color="#66ebff"/></radialGradient><radialGradient cx="274.96631" cy="170.28739" r="1.92768" gradientUnits="userSpaceOnUse" id="color-6"><stop offset="0" stop-color="#b4fdff"/><stop offset="1" stop-color="#66ebff"/></radialGradient><radialGradient cx="267.82797" cy="177.49835" r="8.2105" gradientUnits="userSpaceOnUse" id="color-7"><stop offset="0" stop-color="#a27db7"/><stop offset="1" stop-color="#6f6696"/></radialGradient><radialGradient cx="252.83487" cy="174.64253" r="8.60321" gradientUnits="userSpaceOnUse" id="color-8"><stop offset="0" stop-color="#433c50"/><stop offset="1" stop-color="#2b2633"/></radialGradient><radialGradient cx="258.61792" cy="187.70793" r="6.88968" gradientUnits="userSpaceOnUse" id="color-9"><stop offset="0" stop-color="#26222a"/><stop offset="1" stop-color="#141217"/></radialGradient><radialGradient cx="269.61285" cy="187.77933" r="3.85537" gradientUnits="userSpaceOnUse" id="color-10"><stop offset="0" stop-color="#6a6777"/><stop offset="1" stop-color="#3d3648"/></radialGradient><radialGradient cx="259.26049" cy="170.28739" r="6.88968" gradientUnits="userSpaceOnUse" id="color-11"><stop offset="0" stop-color="#26222a"/><stop offset="1" stop-color="#141217"/></radialGradient><radialGradient cx="269.89844" cy="168.64529" r="3.85537" gradientUnits="userSpaceOnUse" id="color-12"><stop offset="0" stop-color="#6a6777"/><stop offset="1" stop-color="#3d3648"/></radialGradient><radialGradient cx="255.54791" cy="173.99997" r="4.34896" gradientUnits="userSpaceOnUse" id="color-13"><stop offset="0" stop-color="#655dff"/><stop offset="1" stop-color="#6200ff"/></radialGradient><radialGradient cx="265.47191" cy="180.0686" r="4.34897" gradientUnits="userSpaceOnUse" id="color-14"><stop offset="0" stop-color="#8d87ff"/><stop offset="1" stop-color="#6200ff"/></radialGradient><radialGradient cx="254.54837" cy="185.85164" r="4.34896" gradientUnits="userSpaceOnUse" id="color-15"><stop offset="0" stop-color="#8d87ff"/><stop offset="1" stop-color="#6200ff"/></radialGradient><radialGradient cx="273.38059" cy="184.02865" r="2.17687" gradientUnits="userSpaceOnUse" id="color-16"><stop offset="0" stop-color="#ffcaca"/><stop offset="1" stop-color="#ff0000"/></radialGradient><radialGradient cx="272.80942" cy="183.52889" r="2.17688" gradientUnits="userSpaceOnUse" id="color-17"><stop offset="0" stop-color="#ff4a4a"/><stop offset="1" stop-color="#750000"/></radialGradient><radialGradient cx="273.3092" cy="175.67536" r="2.17688" gradientUnits="userSpaceOnUse" id="color-18"><stop offset="0" stop-color="#ffcaca"/><stop offset="1" stop-color="#ff0000"/></radialGradient><radialGradient cx="272.80942" cy="174.74722" r="2.17688" gradientUnits="userSpaceOnUse" id="color-19"><stop offset="0" stop-color="#ff4a4a"/><stop offset="1" stop-color="#750000"/></radialGradient><radialGradient cx="272.27871" cy="179.67223" r="2.26024" gradientUnits="userSpaceOnUse" id="color-20"><stop offset="0" stop-color="#ffcaca"/><stop offset="1" stop-color="#ff0000"/></radialGradient><radialGradient cx="271.85035" cy="179.24385" r="2.26024" gradientUnits="userSpaceOnUse" id="color-21"><stop offset="0" stop-color="#ff4a4a"/><stop offset="1" stop-color="#750000"/></radialGradient></defs><g transform="translate(-197.75,-160.83703)"><g data-paper-data="{&quot;isPaintingLayer&quot;:true}" fill-rule="nonzero" stroke-linecap="butt" stroke-linejoin="miter" stroke-miterlimit="10" stroke-dasharray="" stroke-dashoffset="0" style="mix-blend-mode: normal"><path d="M198.5,198.41312v-36.82609h83v36.82609z" fill="url(#color-1)" stroke="url(#color-2)" stroke-width="1.5"/><text transform="translate(201.08,170.56885) scale(0.21667,0.21667)" font-size="40" xml:space="preserve" fill="#ffffff" fill-rule="nonzero" stroke="none" stroke-width="1" stroke-linecap="butt" stroke-linejoin="miter" stroke-miterlimit="10" stroke-dasharray="" stroke-dashoffset="0" font-family="Serif" font-weight="normal" text-anchor="start" style="mix-blend-mode: normal"><tspan x="0" dy="0">Wormhole</tspan></text><text transform="translate(201.08,178.3689) scale(0.21667,0.21667)" font-size="40" xml:space="preserve" fill="#ffffff" fill-rule="nonzero" stroke="none" stroke-width="1" stroke-linecap="butt" stroke-linejoin="miter" stroke-miterlimit="10" stroke-dasharray="" stroke-dashoffset="0" font-family="Serif" font-weight="normal" text-anchor="start" style="mix-blend-mode: normal"><tspan x="0" dy="0">Generator</tspan></text><path d="M248.99683,195.02084v-29.97588h28.87817v29.97588z" fill="url(#color-3)" stroke="url(#color-4)" stroke-width="2.5"/><path d="M274.53794,190.70655v-3.85537h1.35652v3.85537z" fill="url(#color-5)" stroke="none" stroke-width="NaN"/><path d="M274.53794,173.21461v-3.85537h1.35652v3.85537z" fill="url(#color-6)" stroke="none" stroke-width="NaN"/><path d="M269.45138,180.20776c0,4.53454 3.65098,8.0677 1.28512,8.0677c-2.36585,0 -4.28374,-3.67597 -4.28374,-8.2105c0,-4.53454 1.9179,-8.2105 4.28374,-8.2105c2.36585,0 -1.28512,3.81876 -1.28512,8.35329z" fill="url(#color-7)" stroke="none" stroke-width="0"/><path d="M253.78004,187.63291c0,0 -3.08701,-0.0863 -3.07002,-7.63571c0.0155,-6.88646 3.3556,-7.57156 3.3556,-7.57156h13.85076c0,0 -0.78535,4.91838 -0.78535,7.42878c0,2.58057 0.78535,7.8499 0.78535,7.8499z" fill="url(#color-8)" stroke="none" stroke-width="0"/><path d="M253.97721,189.27863v-1.64209h13.77935v3.2842z" fill="url(#color-9)" stroke="#000000" stroke-width="0"/><path d="M267.68517,190.84934c0,-1.32894 0,-4.85491 0,-4.85491c0,0 3.3838,0 4.78351,0c1.09494,0 2.92722,0.76442 2.92722,1.21373c0,0.46074 0,0.61221 0,1.07093c0,1.33049 -1.22416,4.9263 -2.57024,4.9263c-1.13169,0 -2.34955,0 -2.99861,0c-0.88133,0 -2.14187,-1.43028 -2.14187,-2.35605z" fill="url(#color-10)" stroke="none" stroke-width="0"/><path d="M267.82797,169.14506v3.2842h-13.77936v-1.6421z" data-paper-data="{&quot;index&quot;:null}" fill="url(#color-11)" stroke="#000000" stroke-width="0"/><path d="M269.89844,166.8604c0.64907,0 1.86693,0 2.99861,0c1.34609,0 2.57025,3.59581 2.57025,4.9263c0,0.45872 0,0.61019 0,1.07093c0,0.44931 -1.83227,1.21373 -2.92722,1.21373c-1.39971,0 -4.7835,0 -4.7835,0c0,0 0,-3.52597 0,-4.85491c0,-0.92577 1.26054,-2.35605 2.14187,-2.35605z" data-paper-data="{&quot;index&quot;:null}" fill="url(#color-12)" stroke="none" stroke-width="0"/><path d="M257.30346,182.28165c-2.40168,-0.02956 -4.32466,-2.0005 -4.29508,-4.40217c0.02956,-2.40168 2.0005,-4.32466 4.40218,-4.29508c2.40168,0.02956 4.32466,2.0005 4.29508,4.40217c-0.02956,2.40168 -2.0005,4.32466 -4.40217,4.29509z" fill="none" stroke="url(#color-13)" stroke-width="1"/><path d="M261.0974,184.5689c-2.40168,-0.02956 -4.32466,-2.0005 -4.29508,-4.40217c0.02956,-2.40168 2.0005,-4.32466 4.40218,-4.29508c2.40168,0.02956 4.32466,2.0005 4.29508,4.40218c-0.02956,2.40168 -2.0005,4.32466 -4.40217,4.29509z" fill="none" stroke="url(#color-14)" stroke-width="1"/><path d="M257.25154,186.4985c-2.40168,-0.02956 -4.32466,-2.00049 -4.29508,-4.40217c0.02956,-2.40168 2.0005,-4.32467 4.40218,-4.29509c2.40168,0.02956 4.32466,2.0005 4.29508,4.40218c-0.02956,2.40168 -2.0005,4.32466 -4.40217,4.29509z" fill="none" stroke="url(#color-15)" stroke-width="1"/><path d="M272.67434,183.59442l1.72488,-0.46807l1.54847,0.48759l-1.08958,1.20346l-1.72488,0.46807l-1.5393,-0.45378z" fill="url(#color-16)" stroke="url(#color-17)" stroke-width="0.5"/><path d="M271.80813,175.29823l1.53929,-0.45378l1.72488,0.46807l1.08958,1.20346l-1.54848,0.48759l-1.72488,-0.46807z" data-paper-data="{&quot;index&quot;:null}" fill="url(#color-18)" stroke="url(#color-19)" stroke-width="0.5"/><path d="M270.61812,180.07631l1.34919,-0.86893l1.78688,-0.03668l1.38443,0.84787l-1.34848,0.90397l-1.78688,0.03668z" data-paper-data="{&quot;index&quot;:null}" fill="url(#color-20)" stroke="url(#color-21)" stroke-width="0.5"/></g></g></svg>