<svg version="1.1" xmlns="http://www.w3.org/2000/svg" xmlns:xlink="http://www.w3.org/1999/xlink" width="59" height="59.70662" viewBox="0,0,59,59.70662"><defs><linearGradient x1="270.00005" y1="151.64672" x2="270.00005" y2="208.35335" gradientUnits="userSpaceOnUse" id="color-1"><stop offset="0" stop-color="#191919"/><stop offset="1" stop-color="#050505"/></linearGradient><linearGradient x1="270.00005" y1="151.64672" x2="270.00005" y2="208.35335" gradientUnits="userSpaceOnUse" id="color-2"><stop offset="0" stop-color="#cccccc"/><stop offset="1" stop-color="#898989"/></linearGradient><radialGradient cx="270.00001" cy="180.00001" r="26.8571" gradientUnits="userSpaceOnUse" id="color-3"><stop offset="0" stop-color="#ffe6ca" stop-opacity="0.35294"/><stop offset="1" stop-color="#ffe6ca" stop-opacity="0"/></radialGradient><linearGradient x1="270.00001" y1="153.29211" x2="270.00001" y2="206.70789" gradientUnits="userSpaceOnUse" id="color-4"><stop offset="0" stop-color="#cccccc"/><stop offset="1" stop-color="#898989"/></linearGradient><linearGradient x1="257.77038" y1="184.13359" x2="282.82232" y2="184.13359" gradientUnits="userSpaceOnUse" id="color-5"><stop offset="0" stop-color="#909090"/><stop offset="1" stop-color="#2f2f2f"/></linearGradient><linearGradient x1="270.00003" y1="203.01334" x2="270.00003" y2="203.47622" gradientUnits="userSpaceOnUse" id="color-6"><stop offset="0" stop-color="#348317"/><stop offset="1" stop-color="#3c5b0d"/></linearGradient><linearGradient x1="248.76114" y1="192.59611" x2="265.22594" y2="192.59611" gradientUnits="userSpaceOnUse" id="color-7"><stop offset="0" stop-color="#3f3f3f"/><stop offset="1" stop-color="#313131"/></linearGradient><linearGradient x1="256.99352" y1="181.95366" x2="256.99352" y2="203.23854" gradientUnits="userSpaceOnUse" id="color-8"><stop offset="0" stop-color="#348317"/><stop offset="1" stop-color="#3c5b0d"/></linearGradient><radialGradient cx="269.76954" cy="187.63233" r="9.58348" gradientUnits="userSpaceOnUse" id="color-9"><stop offset="0" stop-color="#93bee8"/><stop offset="1" stop-color="#647fba"/></radialGradient><linearGradient x1="273.55521" y1="183.75891" x2="273.55521" y2="202.92417" gradientUnits="userSpaceOnUse" id="color-10"><stop offset="0" stop-color="#348317"/><stop offset="1" stop-color="#3c5b0d"/></linearGradient><radialGradient cx="282.7673" cy="188.0417" r="9.58348" gradientUnits="userSpaceOnUse" id="color-11"><stop offset="0" stop-color="#93bee8"/><stop offset="1" stop-color="#647fba"/></radialGradient><linearGradient x1="286.56082" y1="183.79581" x2="286.56082" y2="202.96108" gradientUnits="userSpaceOnUse" id="color-12"><stop offset="0" stop-color="#348317"/><stop offset="1" stop-color="#3c5b0d"/></linearGradient><linearGradient x1="273.65515" y1="179.86955" x2="273.65515" y2="184.13592" gradientUnits="userSpaceOnUse" id="color-13"><stop offset="0" stop-color="#348317"/><stop offset="1" stop-color="#3c5b0d"/></linearGradient><linearGradient x1="286.88334" y1="179.96829" x2="286.88334" y2="184.23465" gradientUnits="userSpaceOnUse" id="color-14"><stop offset="0" stop-color="#348317"/><stop offset="1" stop-color="#3c5b0d"/></linearGradient><linearGradient x1="262.70777" y1="167.62397" x2="277.5477" y2="167.62397" gradientUnits="userSpaceOnUse" id="color-15"><stop offset="0" stop-color="#ffe83c"/><stop offset="1" stop-color="#a67b00"/></linearGradient><linearGradient x1="270.12775" y1="166.34467" x2="270.12775" y2="168.90327" gradientUnits="userSpaceOnUse" id="color-16"><stop offset="0" stop-color="#348317"/><stop offset="1" stop-color="#3c5b0d"/></linearGradient><linearGradient x1="262.63163" y1="172.051" x2="277.47159" y2="172.051" gradientUnits="userSpaceOnUse" id="color-17"><stop offset="0" stop-color="#ffe83c"/><stop offset="1" stop-color="#a67b00"/></linearGradient><linearGradient x1="270.05161" y1="170.7717" x2="270.05161" y2="173.33032" gradientUnits="userSpaceOnUse" id="color-18"><stop offset="0" stop-color="#348317"/><stop offset="1" stop-color="#3c5b0d"/></linearGradient><linearGradient x1="246.73015" y1="197.67357" x2="266.9037" y2="197.67357" gradientUnits="userSpaceOnUse" id="color-19"><stop offset="0" stop-color="#4a4a4a"/><stop offset="1" stop-color="#373737"/></linearGradient><linearGradient x1="256.81694" y1="192.10858" x2="256.81694" y2="203.23854" gradientUnits="userSpaceOnUse" id="color-20"><stop offset="0" stop-color="#348317"/><stop offset="1" stop-color="#3c5b0d"/></linearGradient><linearGradient x1="249.82078" y1="186.69824" x2="264.16629" y2="186.69824" gradientUnits="userSpaceOnUse" id="color-21"><stop offset="0" stop-color="#ff458a"/><stop offset="1" stop-color="#ff0053"/></linearGradient><linearGradient x1="256.99352" y1="184.07294" x2="256.99352" y2="189.32353" gradientUnits="userSpaceOnUse" id="color-22"><stop offset="0" stop-color="#348317"/><stop offset="1" stop-color="#3c5b0d"/></linearGradient><linearGradient x1="247.7015" y1="197.70677" x2="265.49083" y2="197.70677" gradientUnits="userSpaceOnUse" id="color-23"><stop offset="0" stop-color="#ff458a"/><stop offset="1" stop-color="#ff0053"/></linearGradient><linearGradient x1="256.59618" y1="195.08148" x2="256.59618" y2="200.33206" gradientUnits="userSpaceOnUse" id="color-24"><stop offset="0" stop-color="#348317"/><stop offset="1" stop-color="#3c5b0d"/></linearGradient></defs><g transform="translate(-240.50004,-150.14672)"><g data-paper-data="{&quot;isPaintingLayer&quot;:true}" fill-rule="nonzero" stroke-linecap="butt" stroke-linejoin="miter" stroke-miterlimit="10" stroke-dasharray="" stroke-dashoffset="0" style="mix-blend-mode: normal"><path d="M242.00005,208.35335v-56.70662h56v56.70662z" fill="url(#color-1)" stroke="url(#color-2)" stroke-width="3"/><path d="M296.85711,180.00001c0,14.75036 -12.02433,26.70789 -26.8571,26.70789c-14.83277,0 -26.8571,-11.95753 -26.8571,-26.70789c0,-14.75036 12.02433,-26.70789 26.8571,-26.70789c14.83277,0 26.8571,11.95753 26.8571,26.70789z" fill="url(#color-3)" stroke="url(#color-4)" stroke-width="0"/><g stroke-width="0"><path d="M257.77038,203.17195c0,0 3.32971,-10.75963 4.16959,-17.11644c0.83167,-6.29466 0.84529,-20.83981 0.84529,-20.83981l14.71511,-0.12048c0,0 -0.39841,14.46369 0.50374,20.9183c0.87071,6.22964 4.81817,17.15842 4.81817,17.15842z" fill="url(#color-5)" stroke="none"/><path d="M246.24645,203.47622v-0.46288h47.50716v0.46288z" fill="#312d29" stroke="url(#color-6)"/><path d="M248.76114,203.23854v-21.28488h16.4648v21.28488z" fill="url(#color-7)" stroke="url(#color-8)"/><path d="M279.84565,193.34154c0,5.29234 0.00485,9.51253 -6.29044,9.58263c-5.8265,0.06488 -6.29044,-4.29029 -6.29044,-9.58263c0,-5.29234 0.93428,-9.50956 6.29044,-9.58263c5.58968,-0.07626 6.29044,4.29029 6.29044,9.58263z" fill="url(#color-9)" stroke="url(#color-10)"/><path d="M292.85125,193.37845c0,5.29234 0.00485,9.51253 -6.29044,9.58263c-5.8265,0.06488 -6.29044,-4.29029 -6.29044,-9.58263c0,-5.29234 0.93428,-9.50956 6.29044,-9.58263c5.58968,-0.07626 6.29044,4.29029 6.29044,9.58263z" fill="url(#color-11)" stroke="url(#color-12)"/><path d="M272.93468,184.13592v-4.26637h1.44097v4.26637z" fill="#312d29" stroke="url(#color-13)"/><path d="M286.16288,184.23465v-4.26637h1.44097v4.26637z" fill="#312d29" stroke="url(#color-14)"/><path d="M272.36991,181.55989v-1.25929h15.58689v1.25929z" fill="#36322e" stroke="none"/><path d="M262.70777,168.90327v-2.55861h14.83996v2.55861z" fill="url(#color-15)" stroke="url(#color-16)"/><path d="M262.63163,173.33032v-2.55861h14.83996v2.55861z" fill="url(#color-17)" stroke="url(#color-18)"/><path d="M246.73015,203.23854v-11.12995h20.17355v11.12995z" fill="url(#color-19)" stroke="url(#color-20)"/><path d="M249.82078,189.32353v-5.25058h14.34551v5.25058z" fill="url(#color-21)" stroke="url(#color-22)"/><path d="M247.7015,200.33206v-5.25058h17.78935v5.25058z" fill="url(#color-23)" stroke="url(#color-24)"/></g><path d="M245.27331,163.339v-8.69862h46.51543v8.69862z" fill-opacity="0.53453" fill="#000000" stroke="#a60000" stroke-width="0"/><text transform="translate(245.70716,161.6152) scale(0.21839,0.21839)" font-size="40" xml:space="preserve" fill="#ffffff" fill-rule="nonzero" stroke="#000000" stroke-width="0" stroke-linecap="butt" stroke-linejoin="miter" stroke-miterlimit="10" stroke-dasharray="" stroke-dashoffset="0" font-family="Serif" font-weight="normal" text-anchor="start" style="mix-blend-mode: normal"><tspan x="0" dy="0">Adv. Factory</tspan></text></g></g></svg>