<svg version="1.1" xmlns="http://www.w3.org/2000/svg" xmlns:xlink="http://www.w3.org/1999/xlink" width="72.35202" height="73.94889" viewBox="0,0,72.35202,73.94889"><defs><radialGradient cx="232.04357" cy="174.24466" r="32.81875" gradientUnits="userSpaceOnUse" id="color-1"><stop offset="0" stop-color="#aaaaaa"/><stop offset="1" stop-color="#444444"/></radialGradient><radialGradient cx="250.83506" cy="191.81309" r="22.19203" gradientUnits="userSpaceOnUse" id="color-2"><stop offset="0" stop-color="#787878"/><stop offset="1" stop-color="#4f4f4f"/></radialGradient><radialGradient cx="216.4921" cy="198.93658" r="22.72913" gradientUnits="userSpaceOnUse" id="color-3"><stop offset="0" stop-color="#aaaaaa"/><stop offset="1" stop-color="#686868"/></radialGradient><radialGradient cx="234.62089" cy="157.82616" r="22.47699" gradientUnits="userSpaceOnUse" id="color-4"><stop offset="0" stop-color="#b3b3b3"/><stop offset="1" stop-color="#747474"/></radialGradient><radialGradient cx="213.11164" cy="190.15619" r="4.80911" gradientUnits="userSpaceOnUse" id="color-5"><stop offset="0" stop-color="#bb2500"/><stop offset="1" stop-color="#ff4d00"/></radialGradient><radialGradient cx="236.55242" cy="191.03872" r="3.36142" gradientUnits="userSpaceOnUse" id="color-6"><stop offset="0" stop-color="#bb2500"/><stop offset="1" stop-color="#ff4d00"/></radialGradient><radialGradient cx="226.30242" cy="203.28872" r="4.251" gradientUnits="userSpaceOnUse" id="color-7"><stop offset="0" stop-color="#bb2500"/><stop offset="1" stop-color="#ff4d00"/></radialGradient><radialGradient cx="264.05242" cy="181.53872" r="4.0002" gradientUnits="userSpaceOnUse" id="color-8"><stop offset="0" stop-color="#bb2500"/><stop offset="1" stop-color="#ff4d00"/></radialGradient><radialGradient cx="266.80242" cy="200.03872" r="2.68945" gradientUnits="userSpaceOnUse" id="color-9"><stop offset="0" stop-color="#bb2500"/><stop offset="1" stop-color="#ff4d00"/></radialGradient><radialGradient cx="251.55242" cy="192.78872" r="3.38406" gradientUnits="userSpaceOnUse" id="color-10"><stop offset="0" stop-color="#bb2500"/><stop offset="1" stop-color="#ff4d00"/></radialGradient><radialGradient cx="241.05242" cy="171.78872" r="5.17084" gradientUnits="userSpaceOnUse" id="color-11"><stop offset="0" stop-color="#bb2500"/><stop offset="1" stop-color="#ff4d00"/></radialGradient><radialGradient cx="229.30242" cy="157.78872" r="3.45036" gradientUnits="userSpaceOnUse" id="color-12"><stop offset="0" stop-color="#bb2500"/><stop offset="1" stop-color="#ff4d00"/></radialGradient><radialGradient cx="252.30242" cy="153.28872" r="4.31795" gradientUnits="userSpaceOnUse" id="color-13"><stop offset="0" stop-color="#bb2500"/><stop offset="1" stop-color="#ff4d00"/></radialGradient></defs><g transform="translate(-203.82399,-143.02556)"><g data-paper-data="{&quot;isPaintingLayer&quot;:true}" fill-rule="nonzero" stroke-width="0" stroke-linecap="butt" stroke-linejoin="miter" stroke-miterlimit="10" stroke-dasharray="" stroke-dashoffset="0" style="mix-blend-mode: normal"><path d="M272.21857,182.79257c0,3.84279 0.1644,9.93039 -1.00291,13.35414c-1.96895,5.775 -4.41798,12.69727 -9.09531,15.90469c-2.16491,1.48456 -5.93275,-0.87784 -8.69639,-0.40834c-4.32039,0.73396 -7.7193,4.16827 -12.20539,4.16827c-4.44271,0 -7.48184,-1.39739 -11.32703,-3.18662c-11.06857,-5.1504 -21.27297,-17.06203 -21.27297,-30.43213c0,-4.81453 5.79771,-6.58544 7.58876,-10.69906c2.13619,-4.90632 2.02246,-10.06492 5.64137,-13.64988c2.73374,-2.7081 6.55915,-3.66059 10.51778,-4.98768c2.84756,-0.95461 5.66753,-2.68213 8.65209,-2.68213c8.8133,0 17.9731,2.02042 23.64691,8.16361c2.7461,2.97328 2.84857,7.35285 4.05727,11.70053c1.17663,4.23229 3.49582,8.4134 3.49582,12.75461z" fill="url(#color-1)" stroke="#000000"/><path d="M239.4466,203.89347c-8.5531,-4.30485 -10.7935,-14.67045 0.69918,-23.49368c13.52883,-1.96128 9.58597,-15.21451 16.20361,-9.64475c2.88397,2.4273 9.75284,2.33859 12.68959,3.98368c4.52323,2.5338 5.47737,6.32735 3.44202,13.65127c-1.42217,5.11749 6.63443,9.26899 2.50488,14.20249c-7.58078,9.05664 -7.92922,0.63091 -14.33024,5.21356c-4.93357,3.53207 -3.79869,7.44353 -9.45694,6.6388c-7.82785,-1.1133 -8.6232,-8.97655 -11.75211,-10.55136z" fill="url(#color-2)" stroke="#cccccc"/><path d="M243.17539,204.57117c0,9.57534 -8.25175,16.2367 -21.29986,9.93769c-7.83415,-11.20277 -17.89986,-1.7225 -15.89986,-10.13769c0.8716,-3.66735 -2.29573,-9.76301 -2.14656,-13.12584c0.22975,-5.17948 3.18935,-7.73724 10.64643,-9.21185c5.21053,-1.03036 5.29676,-10.09327 11.56012,-8.62258c11.49791,2.69981 4.12835,6.79907 11.09951,10.45647c5.37301,2.81894 8.35668,0.04671 10.18168,5.46268c2.52478,7.49268 -4.14144,11.73825 -4.14144,15.24112z" fill="url(#color-3)" stroke="#cccccc"/><path d="M226.6137,176.89133c-8.3647,-4.66037 -10.16767,-15.11094 1.68553,-23.44357c13.59928,-1.3912 10.21667,-14.79837 16.59449,-8.95552c2.77946,2.54632 9.64598,2.74624 12.51103,4.51325c4.4128,2.72158 5.20672,6.55187 2.86549,13.78381c-1.6359,5.05323 6.23918,9.53952 1.90603,14.29518c-7.95455,8.73018 -7.94873,0.29725 -14.53661,4.60695c-5.0776,3.32169 -4.10804,7.27738 -9.72749,6.23565c-7.77418,-1.44116 -8.23848,-9.33089 -11.29847,-11.03575z" fill="url(#color-4)" stroke="#cccccc"/><path d="M218.67444,190.66822c0.57262,2.02967 3.50898,2.76874 -1.58564,4.22917c-2.42166,2.44136 -5.20422,2.70279 -6.4982,1.32508c-0.7168,-0.76318 -0.45697,-2.97248 -0.6611,-3.69601c-0.37607,-1.333 0.68728,-1.75209 1.8415,-2.77325c0.60324,-0.53369 0.86787,-1.9587 1.74414,-2.20592c1.22069,-0.34439 1.187,0.21858 2.18663,0.59998c1.09097,0.41625 2.67385,1.46177 2.97267,2.52095z" fill="url(#color-5)" stroke="#cccccc"/><path d="M238.70758,189.30108c1.38498,0.37863 2.84708,-1.07467 1.91016,2.40984c0.57378,2.26977 -0.25072,3.98464 -1.50868,4.2557c-0.69685,0.15015 -1.89432,-0.77713 -2.38803,-0.9121c-0.90959,-0.24867 -0.78069,-1.01607 -0.97108,-2.04789c-0.0995,-0.53926 -0.8378,-1.19396 -0.67434,-1.7919c0.22772,-0.83296 0.54427,-0.61564 1.11773,-1.06481c0.62585,-0.49022 1.79149,-1.04642 2.51423,-0.84884z" fill="url(#color-6)" stroke="#cccccc"/><path d="M227.30419,208.96208c-1.70758,-0.59397 -3.66853,1.1069 -2.19387,-3.1906c-0.52696,-2.90048 0.65533,-4.98442 2.25884,-5.21749c0.88826,-0.12911 2.31341,1.1381 2.92213,1.34983c1.12146,0.39009 0.89398,1.34316 1.04503,2.65567c0.07894,0.68596 0.95053,1.57151 0.69409,2.30872c-0.35722,1.02698 -0.73634,0.72694 -1.49513,1.24224c-0.82812,0.56239 -2.33999,1.16158 -3.23109,0.85162z" fill="url(#color-7)" stroke="#cccccc"/><path d="M266.78075,186.34083c-1.65946,0.24509 -2.54144,2.48627 -3.17486,-1.68144c-1.67939,-2.15895 -1.60233,-4.38066 -0.38375,-5.26119c0.67503,-0.48777 2.39145,-0.05787 2.98301,-0.14524c1.08986,-0.16096 1.31221,0.72055 2.00027,1.73506c0.35961,0.53021 1.45682,0.88406 1.56263,1.6005c0.1474,0.99804 -0.29328,0.91414 -0.69593,1.6639c-0.43944,0.81826 -1.42538,1.96051 -2.29137,2.08842z" fill="url(#color-8)" stroke="#cccccc"/><path d="M270.06971,201.53372c-0.4397,1.05403 0.55792,2.3554 -2.09554,1.26154c-1.84899,0.22156 -3.11787,-0.60346 -3.20363,-1.62343c-0.0475,-0.56501 0.80591,-1.41526 0.96266,-1.791c0.28877,-0.69224 0.88104,-0.51242 1.7144,-0.55757c0.43554,-0.0236 1.02718,-0.53937 1.48224,-0.34954c0.63392,0.26444 0.43025,0.49204 0.72621,0.99016c0.323,0.54363 0.64311,1.5198 0.41366,2.06984z" fill="url(#color-9)" stroke="#cccccc"/><path d="M249.72055,193.28617c0.64242,-1.2866 -0.49972,-3.00671 2.74034,-1.40586c2.34177,-0.12041 3.86538,1.02444 3.88599,2.31314c0.01142,0.71388 -1.13335,1.70913 -1.36235,2.16778c-0.42191,0.84498 -1.1506,0.56849 -2.20139,0.55403c-0.54918,-0.00756 -1.3365,0.58985 -1.89197,0.31251c-0.77379,-0.38636 -0.4985,-0.65489 -0.82776,-1.30595c-0.35935,-0.71054 -0.67811,-1.96422 -0.34287,-2.63564z" fill="url(#color-10)" stroke="#cccccc"/><path d="M240.8403,170.38712c1.89934,-0.95545 2.0686,-4.00342 4.48972,0.75964c2.88021,1.9295 3.67181,4.63364 2.55593,6.17826c-0.61814,0.85564 -2.85469,1.02152 -3.53177,1.36212c-1.24741,0.62749 -1.86584,-0.34477 -3.09763,-1.29169c-0.64377,-0.49489 -2.10493,-0.48396 -2.51743,-1.30396c-0.57463,-1.1423 -0.01095,-1.21676 0.17515,-2.27924c0.2031,-1.15956 0.93486,-2.92653 1.92603,-3.42513z" fill="url(#color-11)" stroke="#cccccc"/><path d="M227.33525,159.41402c0.10957,-1.44337 -1.6089,-2.61228 2.01951,-2.35216c2.13677,-1.00257 3.99205,-0.51486 4.50124,0.67838c0.28206,0.66099 -0.40646,2.02383 -0.44552,2.53836c-0.07196,0.94794 -0.85623,0.96731 -1.84108,1.35334c-0.51471,0.20175 -1.02137,1.0579 -1.64451,1.01059c-0.86807,-0.06589 -0.71359,-0.42084 -1.268,-0.90244c-0.60506,-0.52561 -1.37882,-1.57285 -1.32165,-2.32607z" fill="url(#color-12)" stroke="#cccccc"/><path d="M258.35505,155.23893c-0.26093,1.80392 1.79811,3.4192 -2.73799,2.78249c-2.77002,1.077 -5.05913,0.30582 -5.59689,-1.23672c-0.29789,-0.85449 0.68351,-2.50777 0.77653,-3.15084c0.17137,-1.18474 1.15828,-1.14207 2.4285,-1.54292c0.66385,-0.20949 1.37349,-1.24177 2.1523,-1.12913c1.08492,0.15693 0.86053,0.58964 1.51589,1.24203c0.71524,0.71199 1.59783,2.09371 1.46167,3.03509z" fill="url(#color-13)" stroke="#cccccc"/></g></g></svg>