<svg version="1.1" xmlns="http://www.w3.org/2000/svg" xmlns:xlink="http://www.w3.org/1999/xlink" width="129.57362" height="167.55878" viewBox="0,0,129.57362,167.55878"><defs><linearGradient x1="298.38745" y1="83.85982" x2="280.87601" y2="128.08132" gradientUnits="userSpaceOnUse" id="color-1"><stop offset="0" stop-color="#4a4a4a" stop-opacity="0"/><stop offset="1" stop-color="#4a4a4a" stop-opacity="0.6549"/></linearGradient><linearGradient x1="304.8459" y1="84.4738" x2="280.79174" y2="129.96411" gradientUnits="userSpaceOnUse" id="color-2"><stop offset="0" stop-color="#292929" stop-opacity="0"/><stop offset="1" stop-color="#292929" stop-opacity="0.58824"/></linearGradient><linearGradient x1="308.05341" y1="89.86104" x2="279.51499" y2="128.57814" gradientUnits="userSpaceOnUse" id="color-3"><stop offset="0" stop-color="#383838" stop-opacity="0"/><stop offset="1" stop-color="#383838" stop-opacity="0.76078"/></linearGradient><linearGradient x1="301.0086" y1="88.69432" x2="281.10566" y2="127.80308" gradientUnits="userSpaceOnUse" id="color-4"><stop offset="0" stop-color="#4b4b4b" stop-opacity="0"/><stop offset="1" stop-color="#4b4b4b" stop-opacity="0.75294"/></linearGradient><linearGradient x1="234.5053" y1="147.8915" x2="291.71803" y2="177.11565" gradientUnits="userSpaceOnUse" id="color-5"><stop offset="0" stop-color="#fefefe"/><stop offset="1" stop-color="#b6b6b6"/></linearGradient><linearGradient x1="262.48442" y1="120.95066" x2="296.37543" y2="138.26212" gradientUnits="userSpaceOnUse" id="color-6"><stop offset="0" stop-color="#008572"/><stop offset="1" stop-color="#004861"/></linearGradient><linearGradient x1="281.07749" y1="126.38092" x2="277.78236" y2="132.83186" gradientUnits="userSpaceOnUse" id="color-7"><stop offset="0" stop-color="#348317"/><stop offset="1" stop-color="#3c5b0d"/></linearGradient><linearGradient x1="256.60918" y1="132.02358" x2="290.50019" y2="149.33504" gradientUnits="userSpaceOnUse" id="color-8"><stop offset="0" stop-color="#008572"/><stop offset="1" stop-color="#004861"/></linearGradient><linearGradient x1="275.20225" y1="137.45383" x2="271.90713" y2="143.90477" gradientUnits="userSpaceOnUse" id="color-9"><stop offset="0" stop-color="#348317"/><stop offset="1" stop-color="#3c5b0d"/></linearGradient><radialGradient cx="231.55571" cy="201.68744" r="27.13216" gradientUnits="userSpaceOnUse" id="color-10"><stop offset="0" stop-color="#cf50e5"/><stop offset="1" stop-color="#a23dba"/></radialGradient><linearGradient x1="242.27348" y1="190.72123" x2="242.27348" y2="244.98073" gradientUnits="userSpaceOnUse" id="color-11"><stop offset="0" stop-color="#348317"/><stop offset="1" stop-color="#3c5b0d"/></linearGradient><radialGradient cx="261.28017" cy="202.84645" r="27.13216" gradientUnits="userSpaceOnUse" id="color-12"><stop offset="0" stop-color="#cf50e5"/><stop offset="1" stop-color="#a23dba"/></radialGradient><linearGradient x1="272.02022" y1="190.82574" x2="272.02022" y2="245.08524" gradientUnits="userSpaceOnUse" id="color-13"><stop offset="0" stop-color="#348317"/><stop offset="1" stop-color="#3c5b0d"/></linearGradient><linearGradient x1="242.55649" y1="179.70993" x2="242.55649" y2="191.78861" gradientUnits="userSpaceOnUse" id="color-14"><stop offset="0" stop-color="#348317"/><stop offset="1" stop-color="#3c5b0d"/></linearGradient><linearGradient x1="271.36134" y1="179.98948" x2="271.36134" y2="192.06815" gradientUnits="userSpaceOnUse" id="color-15"><stop offset="0" stop-color="#348317"/><stop offset="1" stop-color="#3c5b0d"/></linearGradient><linearGradient x1="186.22599" y1="206.50508" x2="232.84012" y2="206.50508" gradientUnits="userSpaceOnUse" id="color-16"><stop offset="0" stop-color="#c4c4c4"/><stop offset="1" stop-color="#919191"/></linearGradient><linearGradient x1="209.53306" y1="168.71137" x2="209.53306" y2="244.29878" gradientUnits="userSpaceOnUse" id="color-17"><stop offset="0" stop-color="#348317"/><stop offset="1" stop-color="#3c5b0d"/></linearGradient><linearGradient x1="180.476" y1="206.5356" x2="237.59012" y2="206.5356" gradientUnits="userSpaceOnUse" id="color-18"><stop offset="0" stop-color="#d8d8d8"/><stop offset="1" stop-color="#ababab"/></linearGradient><linearGradient x1="209.03307" y1="190.78038" x2="209.03307" y2="222.29081" gradientUnits="userSpaceOnUse" id="color-19"><stop offset="0" stop-color="#348317"/><stop offset="1" stop-color="#3c5b0d"/></linearGradient><linearGradient x1="188.833" y1="179.78592" x2="229.44712" y2="179.78592" gradientUnits="userSpaceOnUse" id="color-20"><stop offset="0" stop-color="#60ff44"/><stop offset="1" stop-color="#acff01"/></linearGradient><linearGradient x1="209.14006" y1="172.35337" x2="209.14006" y2="187.21847" gradientUnits="userSpaceOnUse" id="color-21"><stop offset="0" stop-color="#348317"/><stop offset="1" stop-color="#3c5b0d"/></linearGradient><linearGradient x1="183.226" y1="206.6296" x2="233.59012" y2="206.6296" gradientUnits="userSpaceOnUse" id="color-22"><stop offset="0" stop-color="#60ff44"/><stop offset="1" stop-color="#acff01"/></linearGradient><linearGradient x1="208.40807" y1="199.19704" x2="208.40807" y2="214.06215" gradientUnits="userSpaceOnUse" id="color-23"><stop offset="0" stop-color="#348317"/><stop offset="1" stop-color="#3c5b0d"/></linearGradient><linearGradient x1="188.833" y1="233.23383" x2="229.44712" y2="233.23383" gradientUnits="userSpaceOnUse" id="color-24"><stop offset="0" stop-color="#60ff44"/><stop offset="1" stop-color="#acff01"/></linearGradient><linearGradient x1="209.14006" y1="225.80128" x2="209.14006" y2="240.66638" gradientUnits="userSpaceOnUse" id="color-25"><stop offset="0" stop-color="#348317"/><stop offset="1" stop-color="#3c5b0d"/></linearGradient></defs><g transform="translate(-180.476,-77.52848)"><g data-paper-data="{&quot;isPaintingLayer&quot;:true}" fill-rule="nonzero" stroke-linecap="butt" stroke-linejoin="miter" stroke-miterlimit="10" stroke-dasharray="" stroke-dashoffset="0" style="mix-blend-mode: normal"><path d="M263.72606,117.54667l-0.02287,-0.0221l0.00118,-0.04631c-0.07633,-0.26243 -0.07482,-0.52436 0.01963,-0.76289l0.18473,-0.46648l0.12738,-0.14098l0.06822,-0.17228l0.15706,-0.1738l0.4096,-1.0344l0.10358,-0.6042l0.05486,-0.0937l0.00291,-0.113l0.00494,-0.01244l-0.00514,-0.0494l-0.08455,-0.22051l-0.01713,-0.22426l-0.28398,-1.10819l0.00691,-0.11201l-0.04557,-0.11882l-0.03527,-0.46168l-0.07198,-0.17566l-0.0224,-0.21539l-0.08455,-0.22051l-0.07752,-1.01487l0.06356,-0.2351l0.00649,-0.2524l0.04261,-0.10761l0.00613,-0.23831l0.06821,-0.17225l0.00498,-0.19327l0.0209,-0.05278l-0.00594,-0.07789l0.06355,-0.2351l0.00649,-0.2524l0.70193,-1.77259l0.12738,-0.14098l0.06822,-0.17228l0.15706,-0.1738l0.15345,-0.38749l0.12738,-0.14098l0.06822,-0.17228l0.25981,-0.28751l0.29889,-0.3795l0.08711,-0.05623l0.04485,-0.08392l0.42193,-0.37755l0.26253,-0.33332l0.08711,-0.05623l0.04485,-0.08392l0.40289,-0.36053l0.28901,-0.40434l0.19802,-0.13953l0.14727,-0.17569l0.50038,-0.30463l0.43009,-0.43356l0.14085,-0.0725l0.0923,-0.11011l1.79465,-1.09251l0.90658,-0.81125l0.1727,-0.07823l0.12411,-0.11932l0.47216,-0.23123l0.35583,-0.27161l0.13356,-0.05031l0.09126,-0.08776l0.59473,-0.29125l0.09668,-0.01943l0.06858,-0.04984l0.33647,-0.1194l0.74737,-0.57051l0.06999,-0.02636l0.04182,-0.0499l2.21576,-1.34889l0.57565,-0.5151l0.61492,-0.82271l0.11534,-0.0781l0.06527,-0.1112l0.79456,-0.66078l0.44735,-0.79726l0.06512,-0.05612l0.02478,-0.07821l0.62754,-0.79678l0.66335,-0.9281l0.5583,-1.0447l1.27799,-3.22734l0.15605,-0.71561l0.01883,-0.7314l-0.01423,-0.74345l0.00832,-0.02443l-0.00813,-0.02817l0.00836,-0.32503l-0.07187,-0.47301l0.00819,-0.04525l-0.01904,-0.04964l-0.03528,-0.46169l-0.07197,-0.17569l-0.01195,-0.11495l-0.03096,-0.01844l-0.08134,-0.21213l-0.15367,-0.20249l0.03361,-0.11056l-0.12489,-0.32572l-0.00342,-0.04473l-0.00097,-0.00275l-0.11395,-0.15833l-0.16252,-0.3967l-0.02239,-0.21539l-0.0516,-0.13458l-0.17908,-0.27239l-0.09317,-0.26536l-0.14685,-0.26245l-0.06278,-0.24499l0.00382,-0.06173l-0.21341,-0.28123l0.02193,-0.07214l-0.07458,-0.13328l-0.06279,-0.24499l0.04959,-0.80201l0.43927,-0.18645l0.18333,-0.37068l0.98809,-0.12657l0.17448,0.01323l0.01682,-0.00875l0.06099,0.01464l0.058,0.00441l0.48746,0.12676l0.48788,0.1173l0.05712,0.0244l0.06093,0.01584l0.01571,0.01691l3.44282,1.47129l1.11795,0.38152l0.96072,0.30507l0.14266,0.0731l0.15283,0.03676l0.70432,0.301l0.32225,0.07748l0.25236,0.10786l0.26139,0.06285l0.27335,0.11681l0.2283,0.14642l0.25236,0.10786l0.50974,0.32689l0.17049,0.15765l0.20715,0.12763l0.26371,0.23437l0.15237,0.03421l0.18924,0.18905l0.23827,0.15282l0.04099,0.12614l0.28944,0.28913l0.14258,0.10262l0.19127,0.19908l0.23297,0.17307l0.33614,0.3618l0.0965,0.16185l0.14668,0.14654l0.09472,0.14407l0.19766,0.21276l0.0965,0.16185l0.14668,0.14654l0.19947,0.30339l0.05772,0.16441l0.11395,0.15833l0.0273,0.06664l0.05646,0.06077l0.0965,0.16185l0.14667,0.14653l0.19946,0.30342l0.05772,0.16443l0.11396,0.15834l0.30625,0.74757l0.76486,1.59952l0.03759,0.21507l0.09912,0.21743l0.05598,0.36839l0.1582,0.33081l0.03759,0.21507l0.09911,0.21743l0.07836,0.51569l0.09187,0.3585l0.20302,0.57831l0.00736,0.17554l0.06972,0.18184l0.01713,0.22426l0.09564,0.37319l-0.0106,0.17139l0.05237,0.18139l-0.05395,2.09762l0.02114,0.27665l-0.0155,0.05735l0.01866,0.06457l-0.02066,0.80287l0.02112,0.27667l-0.06356,0.2351l-0.00649,0.2524l-0.07956,0.20089l-0.00613,0.23831l-0.01352,0.03411l0.00921,0.03998l-0.04806,0.52488l-0.0108,0.02245l0.00511,0.02703l-0.06234,0.45338l0.06193,0.40765l-0.02517,0.13923l0.03486,0.15172l-0.04806,0.52488l-0.01077,0.02246l0.0051,0.02703l-0.06855,0.49857l0.04205,0.55067l-0.03136,0.11601l0.02453,0.1295l-0.06855,0.49857l0.04205,0.55067l-0.02499,0.09239l0.02379,0.10362l-0.03922,0.42874l0.04404,0.5767l-0.0155,0.05735l0.01865,0.06459l-0.00836,0.32503l0.03923,0.25814l0.5703,1.19258l0.24906,0.29343l0.10942,0.20781l0.16424,0.19594l0.31502,0.60926l1.46188,2.22373l0.34293,0.40404l0.12264,0.23295l0.17652,0.22213l0.20634,0.43147l0.42346,0.64414l0.05772,0.16441l0.11395,0.15833l0.0467,0.11403l0.21186,0.24962l0.14605,0.27744l0.19372,0.26914l0.32502,0.79338l0.01059,0.10191l0.05772,0.10316l0.08759,0.34181l0.19132,0.40006l0.02591,0.14813l0.08303,0.14841l0.12557,0.49l-0.00407,0.06602l0.03187,0.0699l0.07836,0.51569l0.23361,0.91162l-0.00407,0.06602l0.03187,0.0699l0.07836,0.51569l0.10805,0.42163l-0.00407,0.06602l0.03187,0.0699l0.08862,0.58328l-0.01873,0.10352l0.03271,0.11331l-0.00511,0.19794l0.13905,0.39607l0.00736,0.17554l0.06972,0.18184l0.05168,0.67657l-0.03136,0.11601l0.02453,0.1295l-0.05975,0.43454l0.11548,0.6318l-0.03101,0.21384l0.03138,0.22791l-0.13607,0.68928l0.01241,0.64754l-0.03362,0.09885l0.01803,0.11259l-0.24087,1.40537l-0.08257,0.60045l-0.05983,0.11077l-0.00337,0.13124l-0.81274,2.05247l-0.10307,0.11407l-0.0454,0.14338l-0.3214,0.40807l-0.08711,0.05623l-0.04485,0.08392l-0.3045,0.27248l-0.0948,0.23937l-0.04163,0.04608l0.01426,0.05566l-0.27287,0.23049l-0.2331,0.25795l-0.06963,-0.00224l-0.04876,0.04116l-0.10734,0.04554l-0.10517,0.11642l-0.24878,0.14076l-0.20731,0.17512l-0.17015,0.07221l-0.09028,0.08077l-0.20948,0.09488l-0.1618,0.13667l-0.28467,0.12082l-0.1226,0.07465l-0.28209,0.07916l-0.24593,0.12042l-1.55382,0.31224l-0.51059,0.21671l-0.33318,0.20283l-0.14328,0.04021l-0.03328,0.0673l-0.18039,0.02312l-0.02721,0.03248l-0.03934,0.02395l-0.02973,0.03288l-0.02308,-0.00074l-0.7501,0.45663l-0.14328,0.04021l-0.03328,0.0673l-0.38004,0.04866l-0.13134,0.03685l-0.00946,0.01915l-0.10809,0.01384l-0.09894,0.02777l-0.02951,-0.01131l-0.14349,0.01839l-0.13134,0.03685l-0.00946,0.01915l-0.10809,0.01384l-0.09894,0.02777l-0.02951,-0.01131l-0.14349,0.01839l-0.34787,0.09759l-0.10366,-0.03976l-0.15654,0.02005l-0.3103,-0.02351l-0.15269,-0.03971l-0.1459,0.00088l-0.89392,-0.16384l-0.27417,-0.10068l-0.01086,-0.00083l-0.48746,-0.12676l-0.48788,-0.1173l-0.05712,-0.0244l-0.06093,-0.01584l-0.01571,-0.01691l-0.07323,-0.03131l-0.37857,-0.10444l-0.31498,-0.05772l-0.33542,-0.12316l-0.34131,-0.08207l-0.62403,-0.26667l-0.10289,-0.01886l-0.33542,-0.12316l-0.34131,-0.08207l-0.07735,-0.03303l-0.10289,-0.01886l-0.08183,-0.03005l-0.08116,-0.00447l-0.58362,-0.14033l-0.25236,-0.10786l-0.26139,-0.06285l-0.48734,-0.20826l-0.1029,-0.01886l-0.08179,-0.03005l-0.08116,-0.00447l-0.58362,-0.14033l-0.25236,-0.10786l-0.26139,-0.06285l-1.1637,-0.49731l-0.51049,-0.14087l-0.20131,-0.09379l-0.2115,-0.05085l-16.81052,-7.18399l-0.29809,-0.19117l-0.32174,-0.15767l-0.74614,-0.53702l-0.04095,-0.04261l-0.12521,-0.05352l-0.02262,0.00053l-0.05403,-0.03329l-0.05712,-0.0244l-0.42612,-0.2733l-0.4322,-0.26626l-0.04419,-0.03926l-0.05324,-0.03417l-0.00603,-0.01853l-0.13293,-0.11817l-0.61635,-0.8122l0.21608,-0.71075l-0.00096,-0.0029l0.00217,-0.00113l0.13471,-0.44311c-0.46296,-0.31605 -0.79477,-0.72588 -0.93631,-1.13952z" fill="url(#color-1)" stroke="none" stroke-width="0.5"/><path d="M263.00689,117.74551l-0.02284,-0.02478l0.00627,-0.04877c-0.05606,-0.28164 -0.02632,-0.55771 0.10344,-0.80309l0.25373,-0.47986l0.15563,-0.14039l0.09372,-0.17722l0.19185,-0.17306l0.56265,-1.06409l0.17899,-0.63034l0.07055,-0.09525l0.01533,-0.11897l0.00677,-0.01282l-0.00036,-0.05244l-0.06963,-0.238l0.00515,-0.23755l-0.19438,-1.18681l0.01964,-0.11763l-0.03752,-0.12825l0.0106,-0.48907l-0.06053,-0.18988l-0.00162,-0.22854l-0.06963,-0.238l0.02331,-1.07505l0.09529,-0.24376l0.03421,-0.2657l0.05854,-0.1107l0.03232,-0.25086l0.09372,-0.17722l0.02622,-0.20347l0.02874,-0.05431l0.00178,-0.08251l0.09529,-0.24376l0.03421,-0.2657l0.96419,-1.82345l0.15563,-0.14039l0.09372,-0.17722l0.19185,-0.17306l0.21079,-0.3986l0.15562,-0.14039l0.09372,-0.17722l0.31738,-0.28632l0.37032,-0.38074l0.10208,-0.05365l0.05846,-0.08558l0.50579,-0.37072l0.32527,-0.33442l0.10208,-0.05365l0.05846,-0.08558l0.48299,-0.354l0.36211,-0.40761l0.23335,-0.13429l0.18122,-0.17568l0.58455,-0.28876l0.5208,-0.42926l0.16311,-0.06729l0.11357,-0.11012l2.09641,-1.03559l1.08683,-0.79658l0.19885,-0.07128l0.14969,-0.11781l0.5455,-0.21317l0.42155,-0.26332l0.15269,-0.0444l0.11004,-0.08661l0.68714,-0.26855l0.10869,-0.0142l0.08098,-0.04813l0.3839,-0.1041l0.88543,-0.55309l0.08003,-0.02328l0.05148,-0.04989l2.58833,-1.27861l0.69008,-0.50581l0.76638,-0.82758l0.13561,-0.07487l0.0839,-0.11301l0.94714,-0.64521l0.57884,-0.81161l0.07782,-0.05495l0.03571,-0.08088l0.77751,-0.79943l0.83111,-0.93556l0.72774,-1.06529l1.75549,-3.31995l0.24881,-0.74439l0.09917,-0.76991l0.06401,-0.78478l0.01178,-0.02522l-0.00594,-0.03024l0.04406,-0.34214l-0.02855,-0.50339l0.01387,-0.04718l-0.01567,-0.05357l0.0106,-0.48907l-0.06053,-0.18988l-0.00085,-0.12197l-0.03215,-0.02144l-0.06696,-0.22894l-0.14776,-0.22347l0.04894,-0.1144l-0.10283,-0.3515l0.00103,-0.04737l-0.00078,-0.00297l-0.1087,-0.17432l-0.1367,-0.42878l-0.00162,-0.22854l-0.04249,-0.14522l-0.16828,-0.29881l-0.07429,-0.28583l-0.13379,-0.28624l-0.04296,-0.2624l0.01084,-0.06485l-0.20521,-0.31035l0.03192,-0.07463l-0.06796,-0.14538l-0.04296,-0.2624l0.1407,-0.84239l0.50448,-0.16813l0.24194,-0.37896l1.1033,-0.06938l0.191,0.02523l0.01952,-0.00815l0.06569,0.01942l0.06349,0.00839l0.52402,0.16522l0.52549,0.1553l0.06038,0.02944l0.06548,0.02065l0.0155,0.01883l3.63926,1.77435l1.19209,0.47468l1.02683,0.38394l0.14952,0.08629l0.1646,0.04866l0.74452,0.36298l0.3471,0.1026l0.26679,0.13006l0.28154,0.0832l0.28894,0.14089l0.23607,0.16915l0.26679,0.13006l0.52712,0.37772l0.17111,0.1773l0.21477,0.14797l0.2657,0.2642l0.16436,0.04596l0.18846,0.21157l0.24642,0.17656l0.03168,0.13566l0.28821,0.32363l0.14625,0.11743l0.18962,0.22228l0.23841,0.19758l0.33191,0.40325l0.08911,0.17688l0.14609,0.16399l0.08901,0.15804l0.19518,0.23713l0.08908,0.17687l0.14609,0.16399l0.18744,0.33281l0.04604,0.17709l0.1087,0.17432l0.02296,0.072l0.05575,0.06773l0.08911,0.17688l0.14609,0.16399l0.18744,0.33281l0.04604,0.17709l0.1087,0.17432l0.25762,0.80805l0.67208,1.73603l0.01838,0.22919l0.08599,0.23564l0.02224,0.39205l0.13898,0.35904l0.01838,0.22919l0.08599,0.23564l0.03114,0.54881l0.06289,0.38393l0.16191,0.62287l-0.01071,0.18555l0.05741,0.19622l-0.00515,0.23755l0.06547,0.39966l-0.03006,0.18001l0.03834,0.19465l-0.28443,2.20815l-0.00635,0.29306l-0.02325,0.05947l0.01366,0.06929l-0.10885,0.84515l-0.00635,0.29306l-0.09529,0.24376l-0.03421,0.2657l-0.10927,0.20665l-0.0323,0.25083l-0.01856,0.03509l0.00587,0.04274l-0.10926,0.55029l-0.0143,0.02296l0.00274,0.02883l-0.11738,0.47399l0.0246,0.43384l-0.04266,0.14516l0.02217,0.16222l-0.10926,0.55029l-0.01429,0.02296l0.00274,0.02883l-0.12905,0.52122l-0.01265,0.58333l-0.04702,0.12027l0.01318,0.13812l-0.12905,0.52122l-0.01265,0.58333l-0.03746,0.0958l0.01516,0.11079l-0.08926,0.44951l-0.01327,0.61087l-0.02325,0.05947l0.01366,0.06929l-0.04406,0.34214l0.01559,0.27472l0.50109,1.29436l0.24321,0.32554l0.0984,0.22621l0.16012,0.21724l0.28206,0.66278l1.37387,2.43935l0.33488,0.44821l0.1103,0.25356l0.17088,0.24565l0.18131,0.46831l0.39798,0.70659l0.04604,0.17709l0.1087,0.17432l0.0393,0.12323l0.20691,0.27693l0.13134,0.30199l0.18479,0.29632l0.27339,0.85758l0.00076,0.10813l0.05259,0.11252l0.05996,0.36606l0.1681,0.43421l0.01267,0.15787l0.07566,0.16186l0.08595,0.52475l-0.01158,0.06935l0.02766,0.07578l0.03114,0.54881l0.15991,0.9763l-0.01158,0.06935l0.02766,0.07578l0.03114,0.54881l0.07397,0.45157l-0.01158,0.06935l0.02766,0.07578l0.03521,0.62074l-0.03175,0.10795l0.02395,0.12158l-0.02684,0.20837l0.1109,0.42658l-0.01071,0.18555l0.05741,0.19622l-0.01555,0.71668l-0.04702,0.12027l0.01318,0.13812l-0.11249,0.4543l0.05962,0.67362l-0.05715,0.22346l0.01018,0.24234l-0.22399,0.71793l-0.05574,0.68354l-0.04767,0.10205l0.0078,0.11988l-0.41632,1.46615l-0.15542,0.62774l-0.07787,0.11288l-0.0178,0.13815l-1.11643,2.11137l-0.12589,0.11357l-0.06546,0.14823l-0.39821,0.40943l-0.10208,0.05365l-0.05846,0.08558l-0.36505,0.26756l-0.13021,0.24625l-0.05085,0.04589l0.00978,0.05962l-0.32566,0.22533l-0.28476,0.25687l-0.07655,-0.00688l-0.05818,0.04023l-0.12326,0.0411l-0.12849,0.11593l-0.28948,0.13229l-0.24741,0.17118l-0.19537,0.06513l-0.10824,0.07934l-0.24117,0.08646l-0.1931,0.1336l-0.32691,0.10895l-0.14324,0.07074l-0.31963,0.06519l-0.28413,0.11105l-1.74713,0.22851l-0.58634,0.19542l-0.38921,0.19226l-0.16233,0.03309l-0.04394,0.06879l-0.20141,0.01266l-0.03352,0.0325l-0.04596,0.02272l-0.03632,0.03277l-0.02536,-0.00228l-0.87619,0.43282l-0.16233,0.03309l-0.04394,0.06879l-0.42436,0.02669l-0.1488,0.03034l-0.0125,0.01956l-0.12069,0.00759l-0.11211,0.02286l-0.0313,-0.01384l-0.16022,0.0101l-0.1488,0.03034l-0.0125,0.01956l-0.12069,0.00759l-0.11211,0.02286l-0.0313,-0.01384l-0.16022,0.0101l-0.39414,0.08036l-0.11005,-0.04866l-0.17478,0.01098l-0.33968,-0.04491l-0.16415,-0.05175l-0.161,-0.00853l-0.96831,-0.23068l-0.29157,-0.12394l-0.01187,-0.00157l-0.52402,-0.16522l-0.52548,-0.1553l-0.06038,-0.02944l-0.0655,-0.02066l-0.0155,-0.01883l-0.07744,-0.03775l-0.40631,-0.13466l-0.34117,-0.08127l-0.35673,-0.1516l-0.36764,-0.10864l-0.65964,-0.3216l-0.11148,-0.02655l-0.35673,-0.1516l-0.36764,-0.10864l-0.08175,-0.03987l-0.11148,-0.02655l-0.08703,-0.03696l-0.08903,-0.00999l-0.62862,-0.18578l-0.26679,-0.13006l-0.28154,-0.0832l-0.51516,-0.25117l-0.11148,-0.02655l-0.08701,-0.03699l-0.08903,-0.00999l-0.62862,-0.18578l-0.26679,-0.13006l-0.28154,-0.0832l-1.23011,-0.59976l-0.54791,-0.18159l-0.21197,-0.11193l-0.22777,-0.06732l-17.76974,-8.66386l-0.30828,-0.22088l-0.33794,-0.18708l-0.76534,-0.61457l-0.0406,-0.04759l-0.13235,-0.06454l-0.025,-0.00092l-0.05601,-0.03861l-0.06038,-0.02944l-0.44062,-0.31574l-0.4481,-0.30876l-0.04453,-0.04426l-0.05508,-0.03948l-0.00466,-0.01991l-0.13393,-0.13317l-0.59267,-0.89631l0.31454,-0.73537l-0.00072,-0.00314l0.00251,-0.00106l0.1961,-0.45846c-0.4767,-0.36323 -0.79872,-0.81686 -0.91047,-1.26212z" fill="url(#color-2)" stroke="none" stroke-width="0.5"/><path d="M264.18748,116.33373l-0.01854,-0.02384l0.0121,-0.043c-0.0177,-0.25529 0.04526,-0.49912 0.19921,-0.70795l0.30103,-0.4084l0.16525,-0.11328l0.11118,-0.15083l0.20372,-0.13966l0.66755,-0.90565l0.2491,-0.54823l0.07889,-0.07952l0.0295,-0.10488l0.00802,-0.0109l0.00624,-0.04676l-0.03605,-0.21743l0.03479,-0.21134l-0.03493,-1.07267l0.03346,-0.10337l-0.01944,-0.11717l0.07163,-0.43512l-0.0335,-0.17386l0.02726,-0.20384l-0.03605,-0.21743l0.15745,-0.95646l0.12107,-0.21004l0.06589,-0.23422l0.06945,-0.09421l0.06224,-0.22114l0.11118,-0.15083l0.05047,-0.17936l0.03407,-0.04625l0.01208,-0.07338l0.12106,-0.21004l0.06589,-0.23422l1.14393,-1.55195l0.16525,-0.11328l0.11118,-0.15083l0.20372,-0.13966l0.25005,-0.33924l0.16524,-0.11328l0.11118,-0.15083l0.33702,-0.23106l0.39912,-0.3112l0.10356,-0.04005l0.06621,-0.07181l0.52635,-0.29197l0.35057,-0.27332l0.10356,-0.04005l0.06621,-0.07181l0.5026,-0.27879l0.39469,-0.33577l0.2382,-0.10195l0.19398,-0.14283l0.59068,-0.2129l0.54793,-0.34298l0.16316,-0.04759l0.12157,-0.08952l2.11845,-0.76356l1.13096,-0.62734l0.19756,-0.04842l0.15677,-0.09361l0.54415,-0.14853l0.43293,-0.20263l0.15039,-0.02794l0.11527,-0.06883l0.68545,-0.18705l0.10487,-0.0044l0.08285,-0.03673l0.37716,-0.06357l0.90931,-0.42561l0.07882,-0.01465l0.0551,-0.04056l2.61557,-0.94272l0.71812,-0.39833l0.83097,-0.67935l0.13801,-0.05642l0.09377,-0.09435l0.97944,-0.50304l0.65112,-0.67937l0.08074,-0.04307l0.04407,-0.06937l0.83798,-0.65339l0.90593,-0.77067l0.82426,-0.89416l2.08276,-2.82562l0.32967,-0.64459l0.19099,-0.67873l0.15952,-0.69464l0.01434,-0.02157l-0.00184,-0.0274l0.08487,-0.30162l0.03631,-0.45087l0.01909,-0.04099l-0.00813,-0.04893l0.07162,-0.43512l-0.03349,-0.17389l0.01454,-0.1088l-0.02779,-0.02156l-0.03468,-0.20915l-0.11198,-0.21041l0.06079,-0.09823l-0.05326,-0.32115l0.00693,-0.04213l-0.00035,-0.00272l-0.08115,-0.16367l-0.07564,-0.3926l0.02726,-0.20384l-0.022,-0.13267l-0.12196,-0.27913l-0.03446,-0.26041l-0.09085,-0.26532l-0.00771,-0.23716l0.01844,-0.05699l-0.15553,-0.29223l0.03967,-0.06411l-0.04615,-0.13476l-0.00772,-0.23717l0.2395,-0.74018l0.49956,-0.11149l0.27712,-0.31935l1.05503,0.0221l0.17797,0.03704l0.01951,-0.00579l0.05985,0.0223l0.05915,0.01231l0.47611,0.18716l0.47879,0.17841l0.05356,0.03085l0.05951,0.02339l0.01233,0.01799l3.22783,1.85851l1.0707,0.51383l0.92544,0.42035l0.13093,0.08832l0.14998,0.05588l0.66034,0.38019l0.31622,0.11786l0.23663,0.13622l0.25651,0.0956l0.25628,0.14754l0.20257,0.16876l0.23663,0.13622l0.45233,0.37679l0.13995,0.17105l0.18505,0.14824l0.2187,0.25572l0.15009,0.05347l0.15205,0.20293l0.21145,0.17612l0.01296,0.12334l0.2326,0.3104l0.1239,0.11579l0.15183,0.21256l0.20118,0.19425l0.264,0.38469l0.06222,0.16445l0.11788,0.15731l0.0645,0.14766l0.15525,0.22625l0.06222,0.16445l0.11788,0.15731l0.13586,0.31092l0.02137,0.16135l0.08115,0.16367l0.01271,0.06593l0.04435,0.06461l0.06222,0.16445l0.11788,0.15731l0.13585,0.31094l0.02137,0.16135l0.08115,0.16367l0.14258,0.73986l0.41878,1.59856l-0.0114,0.20569l0.05188,0.21659l-0.02827,0.35115l0.08661,0.33062l-0.0114,0.20569l0.05188,0.21659l-0.03959,0.49155l0.0113,0.34703l0.07514,0.56753l-0.0335,0.16458l0.02973,0.17927l-0.03479,0.21134l0.01175,0.36123l-0.05118,0.15815l0.01185,0.1764l-0.54774,1.94657l-0.04292,0.26074l-0.02952,0.05123l0.00421,0.06279l-0.20965,0.74505l-0.04292,0.26074l-0.12107,0.21004l-0.06589,0.23422l-0.12966,0.1759l-0.06223,0.22115l-0.02202,0.02986l0.00016,0.03854l-0.1729,0.48217l-0.01645,0.01939l-0.00102,0.02591l-0.17098,0.41357l-0.03129,0.38858l-0.05876,0.12616l0.00062,0.14625l-0.1729,0.48217l-0.01645,0.01939l-0.00103,0.02592l-0.18801,0.45476l-0.08545,0.519l-0.05972,0.10364l-0.0049,0.12413l-0.18801,0.45476l-0.08545,0.519l-0.04757,0.08255l0.00041,0.0999l-0.14124,0.39389l-0.08948,0.54347l-0.02952,0.05123l0.00421,0.06279l-0.08487,0.30162l-0.01982,0.24605l0.31224,1.19183l0.18966,0.30865l0.06481,0.20914l0.12449,0.20582l0.18408,0.61224l0.99575,2.27886l0.26115,0.42499l0.07267,0.2344l0.13112,0.23196l0.11297,0.43119l0.28843,0.6601l0.02137,0.16135l0.08115,0.16367l0.02174,0.11284l0.16136,0.26257l0.08654,0.27914l0.13793,0.27819l0.1513,0.78522l-0.0129,0.09645l0.0357,0.10431l0.01076,0.33084l0.10474,0.39979l-0.00786,0.14168l0.05138,0.15003l0.01545,0.47427l-0.01973,0.06094l0.01668,0.06966l-0.03959,0.49155l0.02872,0.88238l-0.01973,0.06094l0.01668,0.06966l-0.03959,0.49155l0.01329,0.40812l-0.01973,0.06094l0.0167,0.06963l-0.04476,0.55598l-0.04371,0.09379l0.0074,0.1102l-0.05169,0.18371l0.05145,0.38867l-0.0335,0.16458l0.02973,0.17927l-0.10496,0.63764l-0.05972,0.10364l-0.0049,0.12413l-0.16388,0.39639l-0.02825,0.60497l-0.08231,0.19482l-0.02086,0.2168l-0.30278,0.62287l-0.13893,0.60504l-0.05804,0.08732l-0.00769,0.10747l-0.5794,1.27519l-0.22642,0.54769l-0.08806,0.0947l-0.03426,0.12176l-1.32455,1.79701l-0.13371,0.09166l-0.08074,0.12714l-0.42918,0.33463l-0.10356,0.04005l-0.06621,0.07181l-0.37984,0.21069l-0.15447,0.20956l-0.05399,0.03703l0.00177,0.0539l-0.3372,0.17607l-0.30236,0.2073l-0.07173,-0.01196l-0.06023,0.03145l-0.12207,0.02723l-0.13646,0.09356l-0.29115,0.09588l-0.25617,0.13377l-0.19349,0.04317l-0.11262,0.06248l-0.23959,0.0587l-0.19994,0.1044l-0.32373,0.07223l-0.14475,0.05217l-0.31131,0.03376l-0.28345,0.07735l-1.68563,0.07074l-0.58065,0.12955l-0.3933,0.14177l-0.1581,0.01717l-0.0503,0.05796l-0.19261,-0.00405l-0.03587,0.02641l-0.04648,0.01674l-0.03854,0.02642l-0.02377,-0.00396l-0.8854,0.31914l-0.1581,0.01717l-0.0503,0.05796l-0.40579,-0.00851l-0.14494,0.01572l-0.0143,0.01648l-0.11543,-0.00241l-0.1092,0.01184l-0.02796,-0.01472l-0.15321,-0.00321l-0.14494,0.01572l-0.0143,0.01648l-0.11543,-0.00241l-0.1092,0.01184l-0.02796,-0.01472l-0.15321,-0.00321l-0.38388,0.04164l-0.09825,-0.05174l-0.16711,-0.0035l-0.31648,-0.06588l-0.14915,-0.05862l-0.15162,-0.01985l-0.88925,-0.2793l-0.26092,-0.13263l-0.01108,-0.00232l-0.47611,-0.18716l-0.47878,-0.17841l-0.05356,-0.03085l-0.05952,-0.0234l-0.01233,-0.01799l-0.06869,-0.03955l-0.36836,-0.15094l-0.31332,-0.0984l-0.31918,-0.16228l-0.33494,-0.12481l-0.58506,-0.33686l-0.10236,-0.03215l-0.31918,-0.16228l-0.33494,-0.12481l-0.07251,-0.04176l-0.10236,-0.03215l-0.07786,-0.03958l-0.08316,-0.01568l-0.57276,-0.21343l-0.23663,-0.13622l-0.25651,-0.0956l-0.4569,-0.26308l-0.10236,-0.03215l-0.07786,-0.03958l-0.08316,-0.01568l-0.57276,-0.21343l-0.23663,-0.13622l-0.25651,-0.0956l-1.09105,-0.62819l-0.49672,-0.20354l-0.18694,-0.11591l-0.20754,-0.07732l-15.76073,-9.07474l-0.26454,-0.22035l-0.29692,-0.19249l-0.6484,-0.60603l-0.03248,-0.04552l-0.11738,-0.06758l-0.02359,-0.00269l-0.04827,-0.03866l-0.05356,-0.03085l-0.37812,-0.31497l-0.38611,-0.30929l-0.03664,-0.04287l-0.04726,-0.03937l-0.00191,-0.01811l-0.11023,-0.12891l-0.4492,-0.844l0.39087,-0.63154l-0.0003,-0.00285l0.00251,-0.00076l0.24367,-0.39373c-0.40633,-0.36004 -0.65461,-0.78887 -0.70449,-1.19427z" fill="url(#color-3)" stroke="none" stroke-width="0.5"/><path d="M265.83411,117.47623l-0.01974,-0.02105l0.00474,-0.04177c-0.05109,-0.2406 -0.02913,-0.4771 0.07823,-0.68807l0.20996,-0.41253l0.13063,-0.12129l0.07753,-0.15237l0.16103,-0.14952l0.46555,-0.9148l0.14457,-0.54077l0.05883,-0.082l0.01158,-0.10193l0.00561,-0.011l-0.00095,-0.04487l-0.06207,-0.20316l0.0015,-0.20334l-0.1797,-1.0143l0.01529,-0.10083l-0.03346,-0.10948l0.00309,-0.41865l-0.05377,-0.16208l-0.00414,-0.1956l-0.06207,-0.20316l0.0068,-0.92024l0.07808,-0.20931l0.02588,-0.22763l0.04844,-0.09518l0.02442,-0.21492l0.07753,-0.15237l0.0198,-0.17433l0.02377,-0.04668l0.00053,-0.07063l0.07808,-0.20931l0.02589,-0.22766l0.7978,-1.56768l0.13063,-0.12129l0.07753,-0.15237l0.16103,-0.14952l0.17441,-0.34267l0.13063,-0.12129l0.07753,-0.15237l0.26642,-0.24736l0.31029,-0.32859l0.08618,-0.04665l0.04867,-0.07368l0.42563,-0.321l0.27253,-0.28859l0.08618,-0.04665l0.04868,-0.07367l0.40643,-0.30653l0.30296,-0.35149l0.19681,-0.11664l0.15199,-0.15168l0.49356,-0.25141l0.43767,-0.37119l0.1379,-0.05881l0.09524,-0.09506l1.77015,-0.90168l0.91452,-0.68972l0.16823,-0.06246l0.12585,-0.1019l0.4613,-0.18646l0.35528,-0.22846l0.12931,-0.03913l0.09255,-0.07493l0.58107,-0.23488l0.09227,-0.01297l0.06828,-0.04179l0.32517,-0.0919l0.74622,-0.47985l0.06777,-0.0205l0.04317,-0.04307l2.18549,-1.11325l0.5807,-0.43794l0.64165,-0.71389l0.11439,-0.06506l0.06997,-0.09734l0.7976,-0.55915l0.48239,-0.69885l0.0655,-0.04758l0.02939,-0.06947l0.65147,-0.68986l0.6954,-0.80678l0.60592,-0.91705l1.45252,-2.85421l0.20254,-0.63889l0.07498,-0.65968l0.04492,-0.67212l0.0097,-0.02165l-0.00542,-0.02583l0.03332,-0.29315l-0.03038,-0.4306l0.01123,-0.04047l-0.01397,-0.04573l0.00309,-0.41865l-0.05377,-0.16208l-0.0022,-0.1044l-0.0276,-0.01815l-0.05974,-0.19544l-0.12835,-0.19017l0.04022,-0.09825l-0.0917,-0.3001l0.00031,-0.04055l-0.0007,-0.00253l-0.09456,-0.1484l-0.12146,-0.36597l-0.00414,-0.1956l-0.03789,-0.12398l-0.14673,-0.25448l-0.06663,-0.24406l-0.11725,-0.24401l-0.03972,-0.22423l0.00843,-0.05558l-0.17827,-0.26412l0.02624,-0.0641l-0.05956,-0.12392l-0.03973,-0.22423l0.10943,-0.72199l0.42693,-0.14759l0.20113,-0.3261l0.93736,-0.06748l0.16272,0.0202l0.01648,-0.0071l0.05609,0.01614l0.05408,0.00672l0.44761,0.13758l0.44874,0.12905l0.05171,0.02473l0.05594,0.0172l0.01342,0.01602l3.11616,1.4919l1.01944,0.3975l0.87782,0.32108l0.1282,0.07277l0.14055,0.04041l0.6375,0.3052l0.29639,0.08524l0.22842,0.10937l0.24042,0.06914l0.24742,0.11844l0.2028,0.14306l0.22842,0.10937l0.45284,0.3194l0.14766,0.15047l0.18442,0.12506l0.22914,0.22417l0.14033,0.03813l0.16281,0.17969l0.21167,0.14931l0.02858,0.11588l0.24902,0.27485l0.12578,0.09943l0.16391,0.18886l0.20509,0.16734l0.28713,0.34269l0.0779,0.15071l0.12619,0.13931l0.07762,0.13461l0.16885,0.20154l0.0779,0.15071l0.1262,0.13929l0.16344,0.28347l0.04129,0.15123l0.09456,0.1484l0.0204,0.06148l0.04823,0.05754l0.0779,0.15071l0.1262,0.13929l0.16344,0.28347l0.04129,0.15123l0.09457,0.1484l0.22886,0.68968l0.59254,1.48086l0.01842,0.19602l0.07598,0.20106l0.02367,0.33537l0.12255,0.30625l0.01842,0.19602l0.076,0.20103l0.03312,0.46948l0.05813,0.32815l0.14522,0.53191l-0.00687,0.15887l0.05117,0.16752l-0.0015,0.20334l0.06052,0.34158l-0.02338,0.15426l0.03497,0.16629l-0.21508,1.89191l-0.00185,0.25087l-0.01904,0.05107l0.01243,0.05923l-0.08231,0.72412l-0.00184,0.25088l-0.07808,0.20931l-0.02587,0.22767l-0.09042,0.17768l-0.02442,0.21492l-0.01536,0.03018l0.00548,0.03656l-0.08625,0.47178l-0.01188,0.01975l0.00268,0.02467l-0.09405,0.40652l0.02619,0.37112l-0.03454,0.12455l0.02081,0.13866l-0.08623,0.47174l-0.01188,0.01978l0.00268,0.02467l-0.10341,0.44702l-0.00369,0.49934l-0.03852,0.10331l0.01288,0.11813l-0.10341,0.44702l-0.00369,0.49934l-0.03069,0.08229l0.01423,0.0947l-0.07043,0.38535l-0.00386,0.52293l-0.01904,0.05107l0.01243,0.05923l-0.03332,0.29315l0.01657,0.235l0.4418,1.10407l0.21077,0.27682l0.08641,0.19287l0.13878,0.18476l0.24791,0.56518l1.19783,2.07765l0.2902,0.38115l0.09688,0.21622l0.14829,0.20899l0.15987,0.39945l0.34697,0.60181l0.04129,0.15123l0.09456,0.1484l0.03489,0.10519l0.17931,0.2355l0.11536,0.25748l0.16074,0.25225l0.2429,0.73195l0.00196,0.09253l0.0461,0.09591l0.05544,0.31283l0.14821,0.37037l0.01271,0.135l0.06631,0.13798l0.07944,0.44847l-0.00901,0.05943l0.02442,0.06464l0.03313,0.46948l0.1478,0.83439l-0.00901,0.05943l0.02442,0.06464l0.03313,0.46948l0.06837,0.38592l-0.00901,0.05943l0.02442,0.06464l0.03746,0.53097l-0.02569,0.09262l0.02184,0.1039l-0.02031,0.17854l0.09946,0.36428l-0.00687,0.15887l0.05117,0.16752l-0.00453,0.6135l-0.03851,0.10328l0.01288,0.11813l-0.09014,0.38964l0.05886,0.57605l-0.04586,0.19164l0.0116,0.20733l-0.18176,0.61606l-0.03911,0.58542l-0.0393,0.08766l0.00807,0.10256l-0.33624,1.25785l-0.12455,0.53839l-0.06484,0.09719l-0.01346,0.11837l-0.92375,1.81517l-0.10568,0.09814l-0.05388,0.12734l-0.33365,0.35331l-0.08618,0.04665l-0.04868,0.07367l-0.30716,0.23166l-0.10773,0.2117l-0.0427,0.03963l0.00903,0.05095l-0.2742,0.19523l-0.23902,0.22191l-0.06517,-0.00533l-0.04897,0.03487l-0.1043,0.03604l-0.10786,0.10015l-0.24455,0.11535l-0.20831,0.14831l-0.16536,0.05718l-0.09107,0.06869l-0.20405,0.07576l-0.16258,0.11576l-0.27667,0.09565l-0.12096,0.06162l-0.27098,0.05812l-0.24029,0.09711l-1.48292,0.20839l-0.49624,0.17154l-0.32862,0.16739l-0.13764,0.02951l-0.03652,0.05917l-0.17115,0.01232l-0.0281,0.02805l-0.03883,0.01977l-0.03048,0.02829l-0.02158,-0.00177l-0.73984,0.37685l-0.13764,0.02951l-0.03652,0.05917l-0.36052,0.02596l-0.12618,0.02706l-0.0104,0.01682l-0.10257,0.00738l-0.09507,0.02038l-0.02679,-0.01163l-0.13612,0.0098l-0.12618,0.02706l-0.0104,0.01682l-0.10257,0.00738l-0.09507,0.02038l-0.02679,-0.01163l-0.13612,0.0098l-0.33416,0.07165l-0.09417,-0.04085l-0.1485,0.0107l-0.2894,-0.03593l-0.14022,-0.0431l-0.13702,-0.00613l-0.82621,-0.19033l-0.24944,-0.10391l-0.01012,-0.00126l-0.44758,-0.13757l-0.44873,-0.12905l-0.05169,-0.02475l-0.05597,-0.01718l-0.01342,-0.01602l-0.06629,-0.03175l-0.34716,-0.11226l-0.29111,-0.06706l-0.30518,-0.12715l-0.31393,-0.09031l-0.56481,-0.27041l-0.09511,-0.02191l-0.30515,-0.12714l-0.31394,-0.09028l-0.07,-0.03352l-0.09511,-0.02191l-0.07445,-0.031l-0.0758,-0.0079l-0.53681,-0.15439l-0.22842,-0.10937l-0.24042,-0.06914l-0.44113,-0.21119l-0.09512,-0.02192l-0.07445,-0.031l-0.0758,-0.0079l-0.5368,-0.15439l-0.22842,-0.10937l-0.24042,-0.06914l-1.0533,-0.50429l-0.4681,-0.1514l-0.1816,-0.09427l-0.19452,-0.05595l-15.21561,-7.28465l-0.26481,-0.18678l-0.28964,-0.15764l-0.65826,-0.52038l-0.0351,-0.04041l-0.11333,-0.05427l-0.02127,-0.00058l-0.04809,-0.03261l-0.05171,-0.02473l-0.37853,-0.26699l-0.38481,-0.26094l-0.03838,-0.03757l-0.04733,-0.03337l-0.0042,-0.01704l-0.1155,-0.113l-0.51485,-0.76273l0.25854,-0.63169l-0.00066,-0.00267l0.00214,-0.00093l0.16118,-0.3938c-0.40977,-0.30737 -0.68908,-0.69324 -0.78952,-1.07349z" fill="url(#color-4)" stroke="none" stroke-width="0.5"/><path d="M214.5453,186.96762c0,0 18.88478,-18.19982 27.46741,-30.26738c8.49872,-11.94957 23.7791,-41.7875 23.7791,-41.7875l33.7322,16.91854c0,0 -16.07374,29.22186 -20.78051,43.52233c-4.54272,13.80201 -6.98547,40.83816 -6.98547,40.83816z" fill="url(#color-5)" stroke="none" stroke-width="0"/><path d="M260.83686,124.17613l3.29513,-6.45094l33.89101,17.31146l-3.29513,6.45094z" fill="url(#color-6)" stroke="url(#color-7)" stroke-width="0"/><path d="M254.96162,135.24904l3.29513,-6.45094l33.891,17.31146l-3.29513,6.45094z" fill="url(#color-8)" stroke="url(#color-9)" stroke-width="0"/><path d="M260.08259,217.85098c0,14.98335 0.01372,26.93128 -17.8091,27.12975c-16.49564,0.18369 -17.8091,-12.1464 -17.8091,-27.12975c0,-14.98335 2.64508,-26.92288 17.8091,-27.12975c15.82517,-0.21589 17.8091,12.1464 17.8091,27.12975z" fill="url(#color-10)" stroke="url(#color-11)" stroke-width="0"/><path d="M289.82932,217.95549c0,14.98335 0.01372,26.93128 -17.8091,27.12975c-16.49563,0.18369 -17.8091,-12.1464 -17.8091,-27.12975c0,-14.98335 2.64508,-26.92288 17.8091,-27.12975c15.82517,-0.2159 17.8091,12.1464 17.8091,27.12975z" fill="url(#color-12)" stroke="url(#color-13)" stroke-width="0"/><path d="M240.5167,191.78861v-12.07868h4.07958v12.07868z" fill="#312d29" stroke="url(#color-14)" stroke-width="0"/><path d="M269.32155,192.06815v-12.07868h4.07958v12.07868z" fill="#312d29" stroke="url(#color-15)" stroke-width="0"/><path d="M238.91773,184.49552v-3.56521h35.48265v3.56521z" fill="#36322e" stroke="none" stroke-width="0"/><path d="M186.22599,244.29878v-75.58741h46.61412v75.58741z" fill="url(#color-16)" stroke="url(#color-17)" stroke-width="0"/><path d="M180.476,222.29081v-31.51043h57.11412v31.51043z" fill="url(#color-18)" stroke="url(#color-19)" stroke-width="0"/><path d="M188.833,187.21847v-14.86511h40.61412v14.86511z" fill="url(#color-20)" stroke="url(#color-21)" stroke-width="0"/><path d="M183.226,214.06215v-14.86511h50.36412v14.86511z" fill="url(#color-22)" stroke="url(#color-23)" stroke-width="0"/><path d="M188.833,240.66638v-14.86511h40.61412v14.86511z" fill="url(#color-24)" stroke="url(#color-25)" stroke-width="0"/></g></g></svg>