<svg version="1.1" xmlns="http://www.w3.org/2000/svg" xmlns:xlink="http://www.w3.org/1999/xlink" width="59" height="59.70663" viewBox="0,0,59,59.70663"><defs><linearGradient x1="270" y1="151.64674" x2="270" y2="208.35338" gradientUnits="userSpaceOnUse" id="color-1"><stop offset="0" stop-color="#191919"/><stop offset="1" stop-color="#050505"/></linearGradient><linearGradient x1="270" y1="151.64674" x2="270" y2="208.35338" gradientUnits="userSpaceOnUse" id="color-2"><stop offset="0" stop-color="#cccccc"/><stop offset="1" stop-color="#898989"/></linearGradient><linearGradient x1="270" y1="151.64674" x2="270" y2="208.35337" gradientUnits="userSpaceOnUse" id="color-3"><stop offset="0" stop-color="#191919"/><stop offset="1" stop-color="#050505"/></linearGradient><linearGradient x1="270" y1="151.64674" x2="270" y2="208.35337" gradientUnits="userSpaceOnUse" id="color-4"><stop offset="0" stop-color="#cccccc"/><stop offset="1" stop-color="#898989"/></linearGradient><radialGradient cx="270" cy="180.00006" r="26.8571" gradientUnits="userSpaceOnUse" id="color-5"><stop offset="0" stop-color="#ffffff" stop-opacity="0.35484"/><stop offset="1" stop-color="#ffffff" stop-opacity="0"/></radialGradient><linearGradient x1="270" y1="153.29215" x2="270" y2="206.70795" gradientUnits="userSpaceOnUse" id="color-6"><stop offset="0" stop-color="#cccccc"/><stop offset="1" stop-color="#898989"/></linearGradient><linearGradient x1="275.64378" y1="172.77331" x2="278.15447" y2="173.4492" gradientUnits="userSpaceOnUse" id="color-7"><stop offset="0" stop-color="#524c43"/><stop offset="1" stop-color="#36312c"/></linearGradient><linearGradient x1="275.64378" y1="172.77331" x2="278.15447" y2="173.4492" gradientUnits="userSpaceOnUse" id="color-8"><stop offset="0" stop-color="#1f1f1f"/><stop offset="1" stop-color="#000000"/></linearGradient><linearGradient x1="276.62782" y1="164.77703" x2="281.37907" y2="166.05603" gradientUnits="userSpaceOnUse" id="color-9"><stop offset="0" stop-color="#ab966a"/><stop offset="1" stop-color="#4f3f2d"/></linearGradient><linearGradient x1="276.62782" y1="164.77703" x2="281.37907" y2="166.05603" gradientUnits="userSpaceOnUse" id="color-10"><stop offset="0" stop-color="#1f1f1f"/><stop offset="1" stop-color="#000000"/></linearGradient><linearGradient x1="262.68361" y1="172.63113" x2="265.35722" y2="172.32977" gradientUnits="userSpaceOnUse" id="color-11"><stop offset="0" stop-color="#523f2b"/><stop offset="1" stop-color="#2e2316"/></linearGradient><linearGradient x1="262.68361" y1="172.63113" x2="265.35722" y2="172.32977" gradientUnits="userSpaceOnUse" id="color-12"><stop offset="0" stop-color="#1f1f1f"/><stop offset="1" stop-color="#000000"/></linearGradient><linearGradient x1="278.47184" y1="173.071" x2="280.98253" y2="173.74689" gradientUnits="userSpaceOnUse" id="color-13"><stop offset="0" stop-color="#524c43"/><stop offset="1" stop-color="#36312c"/></linearGradient><linearGradient x1="278.47184" y1="173.071" x2="280.98253" y2="173.74689" gradientUnits="userSpaceOnUse" id="color-14"><stop offset="0" stop-color="#1f1f1f"/><stop offset="1" stop-color="#000000"/></linearGradient><linearGradient x1="279.45588" y1="165.07472" x2="284.20714" y2="166.35372" gradientUnits="userSpaceOnUse" id="color-15"><stop offset="0" stop-color="#ab966a"/><stop offset="1" stop-color="#4f3f2d"/></linearGradient><linearGradient x1="279.45588" y1="165.07472" x2="284.20714" y2="166.35372" gradientUnits="userSpaceOnUse" id="color-16"><stop offset="0" stop-color="#1f1f1f"/><stop offset="1" stop-color="#000000"/></linearGradient><linearGradient x1="282.35164" y1="165.31552" x2="287.10289" y2="166.59452" gradientUnits="userSpaceOnUse" id="color-17"><stop offset="0" stop-color="#ab966a"/><stop offset="1" stop-color="#4f3f2d"/></linearGradient><linearGradient x1="282.35164" y1="165.31552" x2="287.10289" y2="166.59452" gradientUnits="userSpaceOnUse" id="color-18"><stop offset="0" stop-color="#1f1f1f"/><stop offset="1" stop-color="#000000"/></linearGradient><linearGradient x1="281.40042" y1="173.31677" x2="283.91111" y2="173.99266" gradientUnits="userSpaceOnUse" id="color-19"><stop offset="0" stop-color="#524c43"/><stop offset="1" stop-color="#36312c"/></linearGradient><linearGradient x1="281.40042" y1="173.31677" x2="283.91111" y2="173.99266" gradientUnits="userSpaceOnUse" id="color-20"><stop offset="0" stop-color="#1f1f1f"/><stop offset="1" stop-color="#000000"/></linearGradient><linearGradient x1="258.21824" y1="171.8869" x2="260.89185" y2="171.58554" gradientUnits="userSpaceOnUse" id="color-21"><stop offset="0" stop-color="#523f2b"/><stop offset="1" stop-color="#2e2316"/></linearGradient><linearGradient x1="258.21824" y1="171.8869" x2="260.89185" y2="171.58554" gradientUnits="userSpaceOnUse" id="color-22"><stop offset="0" stop-color="#1f1f1f"/><stop offset="1" stop-color="#000000"/></linearGradient><linearGradient x1="250.789" y1="180.17912" x2="288.99397" y2="180.17912" gradientUnits="userSpaceOnUse" id="color-23"><stop offset="0" stop-color="#b8a687"/><stop offset="1" stop-color="#4a443b"/></linearGradient><linearGradient x1="250.789" y1="180.17912" x2="288.99397" y2="180.17912" gradientUnits="userSpaceOnUse" id="color-24"><stop offset="0" stop-color="#1f1a11"/><stop offset="1" stop-color="#191100"/></linearGradient><linearGradient x1="263.86261" y1="167.9069" x2="276.0084" y2="167.9069" gradientUnits="userSpaceOnUse" id="color-25"><stop offset="0" stop-color="#5c503f"/><stop offset="1" stop-color="#241c12"/></linearGradient><linearGradient x1="259.93309" y1="177.01227" x2="279.46162" y2="177.01227" gradientUnits="userSpaceOnUse" id="color-26"><stop offset="0" stop-color="#5c503f"/><stop offset="1" stop-color="#241c12"/></linearGradient><linearGradient x1="256.63671" y1="187.06392" x2="282.85384" y2="187.06392" gradientUnits="userSpaceOnUse" id="color-27"><stop offset="0" stop-color="#5c503f"/><stop offset="1" stop-color="#241c12"/></linearGradient><linearGradient x1="253.14574" y1="197.07513" x2="286.48712" y2="197.07513" gradientUnits="userSpaceOnUse" id="color-28"><stop offset="0" stop-color="#5c503f"/><stop offset="1" stop-color="#241c12"/></linearGradient><linearGradient x1="251.10656" y1="160.25563" x2="289.211" y2="160.25563" gradientUnits="userSpaceOnUse" id="color-29"><stop offset="0" stop-color="#a89d8a"/><stop offset="1" stop-color="#665a54"/></linearGradient><linearGradient x1="251.10656" y1="160.25563" x2="289.211" y2="160.25563" gradientUnits="userSpaceOnUse" id="color-30"><stop offset="0" stop-color="#1f1f1f"/><stop offset="1" stop-color="#000000"/></linearGradient></defs><g transform="translate(-240.5,-150.14675)"><g data-paper-data="{&quot;isPaintingLayer&quot;:true}" fill-rule="nonzero" stroke-linejoin="miter" stroke-miterlimit="10" stroke-dasharray="" stroke-dashoffset="0" style="mix-blend-mode: normal"><path d="M242,208.35338v-56.70662h56v56.70662z" fill="url(#color-1)" stroke="url(#color-2)" stroke-width="3" stroke-linecap="butt"/><path d="M242,208.35337v-56.70662h56v56.70662z" fill="url(#color-3)" stroke="url(#color-4)" stroke-width="3" stroke-linecap="butt"/><path d="M296.8571,180.00006c0,14.75036 -12.02433,26.70789 -26.8571,26.70789c-14.83277,0 -26.8571,-11.95753 -26.8571,-26.70789c0,-14.75036 12.02433,-26.70789 26.8571,-26.70789c14.83277,0 26.8571,11.95753 26.8571,26.70789z" fill="url(#color-5)" stroke="url(#color-6)" stroke-width="0" stroke-linecap="butt"/><path d="M274.59779,176.65892l2.09198,-7.77122l2.51069,0.67587l-2.09198,7.77122z" fill="url(#color-7)" stroke="url(#color-8)" stroke-width="1.5" stroke-linecap="butt"/><path d="M281.37907,166.05603c-0.94439,3.43738 -1.09981,3.79053 -3.39156,3.13449c-2.29248,-0.65627 -2.2688,-1.15012 -1.35969,-4.4135c1.00372,-3.60298 1.0646,-3.85582 3.39156,-3.13448c2.22954,0.69114 2.39672,0.63889 1.35968,4.41349z" fill="url(#color-9)" stroke="url(#color-10)" stroke-width="1.5" stroke-linecap="butt"/><path d="M264.71107,185.62627l-6.15096,-23.5679l3.8167,-0.49719l3.07289,23.91258z" fill="url(#color-11)" stroke="url(#color-12)" stroke-width="1.5" stroke-linecap="butt"/><path d="M277.42585,176.95662l2.09198,-7.77122l2.51069,0.67587l-2.09198,7.77122z" fill="url(#color-13)" stroke="url(#color-14)" stroke-width="1.5" stroke-linecap="butt"/><path d="M284.20714,166.35372c-0.94439,3.43738 -1.09981,3.79053 -3.39156,3.13449c-2.29248,-0.65627 -2.2688,-1.15012 -1.35969,-4.4135c1.00372,-3.60298 1.0646,-3.85582 3.39156,-3.13448c2.22954,0.69114 2.39672,0.63889 1.35968,4.41349z" fill="url(#color-15)" stroke="url(#color-16)" stroke-width="1.5" stroke-linecap="butt"/><path d="M287.10289,166.59452c-0.94439,3.43738 -1.09982,3.79053 -3.39156,3.13448c-2.29247,-0.65627 -2.2688,-1.15012 -1.35969,-4.4135c1.00372,-3.60298 1.0646,-3.85582 3.39156,-3.13449c2.22954,0.69114 2.39673,0.63889 1.35969,4.4135z" fill="url(#color-17)" stroke="url(#color-18)" stroke-width="1.5" stroke-linecap="butt"/><path d="M278.57702,175.14913c0,0 2.31054,0.07286 2.61867,-1.07176c0.37571,-1.39567 1.25073,-4.64618 1.25073,-4.64618l2.51069,0.67587c0,0 -0.82069,3.0487 -1.18991,4.42026c-0.13806,0.51287 -0.90062,1.46907 -1.93188,2.06127c-1.36997,0.78671 -3.07603,1.15353 -3.07603,1.15353z" fill="url(#color-19)" stroke="url(#color-20)" stroke-width="1.5" stroke-linecap="butt"/><path d="M260.2457,184.88204l-6.15096,-23.5679l3.8167,-0.49719l3.07289,23.91258z" fill="url(#color-21)" stroke="url(#color-22)" stroke-width="1.5" stroke-linecap="butt"/><path d="M250.789,202.53094c0,0 14.26552,-45.02963 19.10509,-44.70185c5.53637,0.37498 19.09987,44.70185 19.09987,44.70185z" fill="url(#color-23)" stroke="url(#color-24)" stroke-width="1.5" stroke-linecap="butt"/><path d="M276.0084,167.9069h-12.14579" fill="none" stroke="url(#color-25)" stroke-width="3" stroke-linecap="round"/><path d="M259.93309,177.01227h19.52852" fill="none" stroke="url(#color-26)" stroke-width="3" stroke-linecap="round"/><path d="M256.63671,187.06392h26.21713" fill="none" stroke="url(#color-27)" stroke-width="3" stroke-linecap="round"/><path d="M286.48712,197.07513h-33.34138" fill="none" stroke="url(#color-28)" stroke-width="3" stroke-linecap="round"/><path d="M251.10656,157.4691h38.10444c0,0 -0.086,2.74517 -0.58753,3.7335c-0.43015,0.84766 -2.24053,1.83952 -2.24053,1.83952h-32.746c0,0 -1.38017,-1.05231 -1.75021,-1.86731c-0.45552,-1.00327 -0.78016,-3.70572 -0.78016,-3.70572z" fill="url(#color-29)" stroke="url(#color-30)" stroke-width="1.5" stroke-linecap="butt"/><path d="M245.27327,163.339v-8.69862h31.39989v8.69862z" fill-opacity="0.53453" fill="#000000" stroke="#a60000" stroke-width="0" stroke-linecap="butt"/><text transform="translate(245.70712,161.61522) scale(0.21839,0.21839)" font-size="40" xml:space="preserve" fill="#ffffff" fill-rule="nonzero" stroke="#000000" stroke-width="0" stroke-linecap="butt" stroke-linejoin="miter" stroke-miterlimit="10" stroke-dasharray="" stroke-dashoffset="0" font-family="Serif" font-weight="normal" text-anchor="start" style="mix-blend-mode: normal"><tspan x="0" dy="0">Superior</tspan></text></g></g></svg>