<svg version="1.1" xmlns="http://www.w3.org/2000/svg" xmlns:xlink="http://www.w3.org/1999/xlink" width="97.67679" height="104.40042" viewBox="0,0,97.67679,104.40042"><defs><linearGradient x1="240.27731" y1="203.11467" x2="237.40782" y2="224.79604" gradientUnits="userSpaceOnUse" id="color-1"><stop offset="0" stop-color="#fd0101"/><stop offset="1" stop-color="#fd0101" stop-opacity="0"/></linearGradient><linearGradient x1="240.166" y1="203.97543" x2="237.5281" y2="223.90692" gradientUnits="userSpaceOnUse" id="color-2"><stop offset="0" stop-color="#fc531e"/><stop offset="1" stop-color="#fc531e" stop-opacity="0"/></linearGradient><linearGradient x1="239.93411" y1="203.3952" x2="237.82185" y2="219.35498" gradientUnits="userSpaceOnUse" id="color-3"><stop offset="0" stop-color="#fe761a"/><stop offset="1" stop-color="#fe761a" stop-opacity="0"/></linearGradient><linearGradient x1="239.832" y1="204.25633" x2="237.93617" y2="218.58094" gradientUnits="userSpaceOnUse" id="color-4"><stop offset="0" stop-color="#fe9a1c"/><stop offset="1" stop-color="#fe9a1c" stop-opacity="0"/></linearGradient><linearGradient x1="240.08817" y1="203.44152" x2="238.69678" y2="213.95463" gradientUnits="userSpaceOnUse" id="color-5"><stop offset="0" stop-color="#faf302"/><stop offset="1" stop-color="#faf302" stop-opacity="0"/></linearGradient><linearGradient x1="239.97615" y1="205.21666" x2="239.03696" y2="212.31305" gradientUnits="userSpaceOnUse" id="color-6"><stop offset="0" stop-color="#fdf775"/><stop offset="1" stop-color="#fdf775" stop-opacity="0"/></linearGradient><linearGradient x1="232.05332" y1="202.54262" x2="245.28719" y2="202.54262" gradientUnits="userSpaceOnUse" id="color-7"><stop offset="0" stop-color="#515151"/><stop offset="1" stop-color="#242424"/></linearGradient><linearGradient x1="224.58994" y1="177.30136" x2="252.01048" y2="177.30136" gradientUnits="userSpaceOnUse" id="color-8"><stop offset="0" stop-color="#ffa000"/><stop offset="1" stop-color="#de6b00"/></linearGradient><radialGradient cx="238.21976" cy="177.62112" r="23.84227" gradientUnits="userSpaceOnUse" id="color-9"><stop offset="0" stop-color="#010101"/><stop offset="1" stop-color="#dedede"/></radialGradient><linearGradient x1="238.7676" y1="156.39508" x2="238.7676" y2="163.24613" gradientUnits="userSpaceOnUse" id="color-10"><stop offset="0" stop-color="#c28b5f"/><stop offset="1" stop-color="#ffb87d"/></linearGradient><radialGradient cx="234.73155" cy="133.74288" r="13.11833" gradientUnits="userSpaceOnUse" id="color-11"><stop offset="0" stop-color="#ffd9ba"/><stop offset="1" stop-color="#ffb87d"/></radialGradient><radialGradient cx="229.61139" cy="134.97569" r="10.07074" gradientUnits="userSpaceOnUse" id="color-12"><stop offset="0" stop-color="#303030"/><stop offset="1" stop-color="#292929"/></radialGradient><radialGradient cx="246.08399" cy="132.03505" r="2.65078" gradientUnits="userSpaceOnUse" id="color-13"><stop offset="0" stop-color="#787878"/><stop offset="1" stop-color="#292929"/></radialGradient><radialGradient cx="234.90139" cy="134.03769" r="4.17314" gradientUnits="userSpaceOnUse" id="color-14"><stop offset="0" stop-color="#a7a7a7"/><stop offset="1" stop-color="#292929"/></radialGradient><radialGradient cx="218.30303" cy="192.42544" r="12.35841" gradientUnits="userSpaceOnUse" id="color-15"><stop offset="0" stop-color="#dedede"/><stop offset="1" stop-color="#9c9c9c"/></radialGradient><radialGradient cx="258.13126" cy="192.51016" r="12.35841" gradientUnits="userSpaceOnUse" id="color-16"><stop offset="0" stop-color="#dedede"/><stop offset="1" stop-color="#9c9c9c"/></radialGradient></defs><g transform="translate(-190.10709,-129.97443)"><g data-paper-data="{&quot;isPaintingLayer&quot;:true}" fill-rule="nonzero" stroke-linejoin="miter" stroke-miterlimit="10" stroke-dasharray="" stroke-dashoffset="0" style="mix-blend-mode: normal"><g data-paper-data="{&quot;index&quot;:null}" stroke="none" stroke-width="0.5" stroke-linecap="butt"><path d="M243.95647,205.56912c-0.11463,-0.02231 -0.19703,-0.07811 -0.19703,-0.07811l-0.04584,-0.05613c-1.0278,-0.33208 -1.70189,-1.13872 -2.82296,-1.31631c-1.15288,0.42714 -3.43502,1.86967 -4.56878,1.34626c-0.45512,-0.2101 -0.5933,-0.82272 -0.98282,-1.13823c-0.19069,-0.15445 -0.97936,1.22212 -0.98679,1.23171c-0.95491,1.2328 -2.2029,2.69962 -3.32312,3.83238c0.47302,-0.17877 1.37611,0.00209 1.53036,0.27671c0.23895,0.42541 -0.17545,0.96113 -0.30318,1.43205c-0.16346,0.60266 -0.60935,3.57034 -1.07491,4.75971c0.10581,-0.10332 0.21318,-0.19466 0.2917,-0.24042c0.32996,-0.19228 1.50146,-0.78558 1.93774,-0.41265c0.70527,0.60287 -0.43366,2.9119 -0.71893,3.46683c-1.95994,2.89995 2.29622,-0.90428 3.24719,-0.25715c0.41522,0.28254 0.22384,0.98767 0.22439,1.4899c0.00106,0.97503 0.58057,3.61521 0.60963,3.85405c0.14403,-1.12434 0.2023,-3.83814 1.95422,-3.81738c0.19723,0.00234 1.5055,2.09795 1.81896,2.77295c0.04754,-0.17938 0.14717,-0.42282 0.19545,-0.55134c0.18282,-0.48667 0.46362,-1.70805 0.93582,-1.90157c0.41459,-0.16992 1.63394,1.02549 2.1408,1.85162c0.20424,-1.90951 0.5315,-5.95596 2.38056,-5.37135c1.38437,0.88376 -0.73576,-2.36573 -0.56124,-3.34342c0.08312,-0.46567 0.1935,-1.02524 0.58284,-1.29388c0.35287,-0.24347 0.80609,0.42266 1.23162,0.37046c0.06443,-0.0079 -0.18259,-0.86423 -0.1896,-0.87813c-0.48997,-0.97061 -1.13914,-1.79894 -1.58363,-2.77033l-0.09167,0.05535l-0.30529,-0.50569c-0.05465,-0.08879 -0.08023,-0.19624 -0.06549,-0.30765c0.01291,-0.0975 0.05485,-0.18405 0.11598,-0.25207c-0.53205,-0.74826 -0.85988,-1.55747 -1.37596,-2.24816zM244.175,204.64705c0.24122,-0.01994 0.40485,0.19362 0.40485,0.19362c0.70876,0.96403 0.99755,1.89573 1.85651,2.85517l0.00602,0.0181l0.00522,-0.00399l0.31941,0.41686c0.07313,0.09544 0.10984,0.21876 0.09282,0.34737c-0.01752,0.13229 -0.08848,0.24441 -0.18829,0.31747c0.84344,0.84612 1.88757,2.94517 1.72741,3.61813c-0.44087,1.85242 -1.25778,0.23871 -1.79876,0.55504c-0.32746,0.19148 0.04636,0.76172 0.13975,1.12937c0.34826,1.37094 1.94046,4.86625 -0.96807,3.4854c-0.00855,-0.01228 -0.94675,4.14565 -1.07613,5.12324l-0.07308,0.5522l-0.1616,-0.02138l-0.18286,0.4136c-0.12185,-0.09399 -0.23693,-0.18741 -0.34737,-0.28062l-0.14681,0.11249l-0.39927,-0.52107l0.04656,-0.03568c-0.32673,-0.30271 -0.63952,-0.60949 -1.00932,-0.93283c-0.2466,-0.21561 -0.57497,-1.13254 -0.56335,-0.80518c0.01889,0.53166 -0.3496,2.62141 -1.1331,2.66864c-0.65197,0.0393 -1.6264,-1.68621 -1.96445,-2.18144c-0.15873,-0.23255 -0.11238,-1.06491 -0.23484,-0.81138c-0.51532,1.06687 -0.67468,1.91022 -0.83465,3.1031c-1.2592,2.51483 -2.57863,-1.91064 -2.57709,-3.21195c0.00006,-0.05407 -0.02672,-0.80672 0.05484,-1.25664c-0.15982,0.10631 -0.35136,0.21313 -0.46119,0.28132c-0.85388,0.53022 -1.3786,1.04392 -2.4571,0.71501c-1.65265,-0.50401 -1.21017,-1.05505 -0.36769,-2.29664c0.29837,-0.58396 0.51083,-0.95406 0.59328,-1.60372c0.01339,-0.1055 0.02922,-0.27058 0.05884,-0.41624c-0.19755,0.08606 -0.44755,0.17085 -0.57899,0.25001c-0.27545,0.16589 -1.18872,1.1198 -1.64679,0.66638c-0.30013,-0.2971 -0.08037,-0.84259 -0.07299,-1.26484c0.02009,-1.14856 0.45669,-5.12614 1.50494,-5.69606c0.51567,-0.28036 -1.18138,0.19175 -1.75876,0.08615c0.52508,-2.1993 1.72233,-3.17093 3.21171,-4.76061c0.52102,-0.5561 0.86229,-1.57187 1.59189,-1.87779c1.4159,-0.59369 1.39735,1.4244 2.38758,1.10884c1.19861,-0.38197 2.38402,-1.09921 3.62256,-1.50274c1.31212,0.15439 2.03341,1.02672 3.19171,1.35264l0.18663,0.11066z" fill="url(#color-1)"/><path d="M243.78306,205.4504c0,0 0.08326,0.05631 0.19789,0.07862c0.5161,0.69069 0.8536,1.50775 1.38565,2.25602c-0.06112,0.06803 -0.10268,0.15498 -0.11559,0.25249c-0.01475,0.11141 0.01184,0.21997 0.06648,0.30876l0.30733,0.50822l0.09171,-0.0553c0.44449,0.97139 1.10131,1.81527 1.59128,2.78588c0.00701,0.01391 0.25509,0.87495 0.19066,0.88285c-0.42552,0.0522 -0.87948,-0.6174 -1.23235,-0.37393c-0.38935,0.26865 -0.49848,0.83583 -0.5816,1.3015c-0.17453,0.97769 1.94268,4.24764 0.55831,3.36388c-1.84905,-0.58462 -2.1958,3.48524 -2.40003,5.39476c-0.50686,-0.82614 -1.73142,-2.0188 -2.14601,-1.84889c-0.47221,0.19353 -0.76166,1.41781 -0.94448,1.90447c-0.04828,0.12851 -0.14952,0.3723 -0.19706,0.55168c-0.31347,-0.675 -1.63161,-2.76975 -1.82883,-2.77209c-1.75193,-0.02077 -1.81896,2.69203 -1.96299,3.81638c-0.02906,-0.23883 -0.61813,-2.88213 -0.6192,-3.85717c-0.00056,-0.50223 0.1845,-1.2108 -0.23071,-1.49335c-0.95096,-0.64712 -5.21877,3.14635 -3.25883,0.24639c0.28527,-0.55494 1.41569,-2.88195 0.71042,-3.48482c-0.43627,-0.37293 -1.51621,0.1993 -1.84618,0.39157c-0.07852,0.04576 -0.27728,0.15893 -0.38308,0.26225c0.46556,-1.18938 0.91389,-4.18706 1.07735,-4.78971c0.12773,-0.47093 0.54642,-1.01445 0.30747,-1.43987c-0.15425,-0.27463 -1.0591,-0.4527 -1.53211,-0.27393c1.12021,-1.13276 2.38661,-2.61734 3.34152,-3.85014c0.00743,-0.0096 0.8022,-1.38889 0.99289,-1.23444c0.38954,0.31552 0.5304,0.92725 0.98552,1.13735c1.13376,0.52341 3.43888,-0.92009 4.59176,-1.34723c1.12105,0.17759 1.80891,0.98945 2.83671,1.32152l0.04612,0.05629z" data-paper-data="{&quot;noHover&quot;:false,&quot;origItem&quot;:[&quot;Path&quot;,{&quot;applyMatrix&quot;:true,&quot;segments&quot;:[[[234.62979,205.92019],[0.122,-0.02374],[-0.54928,0.73512]],[[233.16532,208.31298],[0.56627,-0.7964],[0.06506,0.0724]],[[233.28876,208.58126],[-0.01374,-0.10378],[0.01569,0.11858]],[[233.21906,208.9087],[0.05816,-0.0945],[0,0]],[232.89413,209.44691],[[232.79656,209.38801],[0,0],[-0.47308,1.03388]],[[231.11107,212.33655],[0.52149,-1.03305],[-0.00746,0.01479]],[[230.90927,213.27116],[-0.06857,-0.00841],[0.4529,0.05556]],[[232.22012,212.87687],[-0.37557,-0.25913],[0.41439,0.28592]],[[232.84045,214.25398],[-0.08847,-0.49563],[0.18575,1.04058]],[[232.24311,217.81247],[-1.47342,0.94061],[1.968,-0.62222]],[[234.77679,223.52935],[-0.21737,-2.03235],[0.53946,-0.87927]],[[237.0553,221.55862],[-0.44126,-0.18084],[0.50258,0.20597]],[[238.05133,223.58251],[-0.19458,-0.51797],[0.05139,0.13679]],[[238.25935,224.16932],[-0.0506,-0.19092],[0.33362,-0.71842]],[[240.19531,221.218],[-0.20991,0.00249],[1.86462,-0.0221]],[[242.27524,225.28094],[-0.1533,-1.19668],[0.03093,-0.2542]],[[242.92409,221.17897],[-0.00114,1.03776],[0.00059,-0.53454]],[[243.16291,219.59323],[-0.44192,0.30073],[1.01214,-0.68876]],[[246.61897,219.86692],[2.08602,3.0865],[-0.30362,-0.59063]],[[245.8538,216.17708],[-0.75064,0.64165],[0.46434,-0.39692]],[[247.91619,216.61626],[-0.3512,-0.20464],[0.08357,0.0487]],[[248.22664,216.87215],[-0.11261,-0.10997],[-0.49551,-1.26588]],[[247.08258,211.80627],[0.17398,0.64142],[-0.13595,-0.50121]],[[246.7599,210.2821],[-0.25432,0.45279],[0.16417,-0.29229]],[[248.3887,209.98759],[-0.50344,-0.19027],[-1.19228,-1.20563]],[[244.85182,205.90869],[1.01634,1.3121],[-0.00791,-0.01021]],[[243.80155,204.59775],[0.20296,-0.16439],[-0.41458,0.33581]],[[242.7555,205.8092],[0.4844,-0.22362],[-1.20669,0.55708]],[[237.89283,204.37634],[1.22704,0.45462],[-1.19318,0.18901]],[[234.88828,205.77732],[1.09391,-0.35343],[0,0]],[234.8395,205.83706]],&quot;closed&quot;:true}]}" fill="url(#color-2)"/><path d="M242.65414,205.40378c-0.17835,-0.03736 -0.29264,-0.18652 -0.29264,-0.18652l-0.20573,-0.27321c-1.09701,-1.15495 -3.23614,0.0616 -4.41607,0.88799c-0.00639,-0.00055 -1.28229,-0.26297 -1.36502,-0.15819c-0.39277,0.49746 0.09366,0.97902 -0.49876,1.62371c-0.29887,0.32525 -0.95428,0.61929 -1.19437,1.02574c-0.39473,0.66827 0.5487,1.18584 0.62979,1.69753c0.09325,0.5884 -0.5863,1.31974 -0.47502,2.02897c0.07444,0.47448 0.73537,0.37258 1.03204,0.85376c0.3458,0.5609 0.26523,1.60513 0.2723,2.23621c-0.00232,0.31611 0.11842,0.9407 0.07267,1.25057c0.38042,-0.19262 1.15376,-0.4589 1.60845,-0.15927c0.49478,0.32605 1.11749,1.72247 1.13853,2.34546c0.01564,0.46349 0.32712,-0.87732 0.58718,-1.2613c0.39924,-0.58948 1.02703,-2.27642 1.8571,-2.34832c0.36834,-0.03191 0.68611,0.16172 0.90313,0.43789c-0.03091,-0.95466 0.01299,-1.80821 0.40905,-2.7801c2.11876,0.03516 -1.21697,-2.37709 -0.18186,-3.49027c0.10876,-0.11697 0.36864,-0.15577 0.60932,-0.13714c-0.14936,-0.29773 -0.2888,-0.69003 -0.38781,-0.91097c-0.43251,-0.96511 0.1007,-1.66444 0.21123,-2.07934c0.06196,-0.23254 -0.11396,-0.41735 -0.31351,-0.60322zM242.82133,204.28079c0.18584,0.06836 0.27299,0.2599 0.27299,0.2599c0.06688,0.14749 0.77537,1.69854 0.77109,1.74339c-0.03237,0.33876 -0.52866,0.5927 -0.43995,0.92123c0.1327,0.49142 1.33711,2.15524 0.93984,2.6705c-0.25487,0.33054 -0.45348,0.49714 -0.60584,0.55881c0.50864,1.24044 1.12647,3.51092 -0.52555,2.97449c0.07224,0.9938 0.02185,2.02023 0.04369,3.02667l-0.04854,0.07292l0.02846,0.00972l-0.15012,0.43975c-0.06791,0.2125 -0.28012,0.35248 -0.50904,0.32218c-0.14506,-0.01921 -0.26586,-0.10268 -0.33751,-0.21796l-0.38517,-0.61007l0.22206,-0.1402c-0.1641,-0.24988 -0.35294,-0.43349 -0.62663,-0.40803c-0.58092,0.05406 -1.51455,3.79445 -2.44428,3.60962c-1.231,-0.24472 -1.0669,-1.87101 -1.77408,-2.53501c-0.50656,-0.47563 -1.06164,0.82461 -1.81322,0.32709c-0.38972,-0.25798 -0.24112,-1.78692 -0.23843,-2.16459c-0.00449,-0.48083 0.0899,-1.31276 -0.13644,-1.75099c-0.24459,-0.47353 -0.98903,-0.60885 -1.14158,-1.11953c-0.21382,-0.71577 0.56734,-1.72075 0.4534,-2.15584c-0.22169,-0.84657 -1.12802,-1.03142 -0.5396,-2.20306c0.33573,-0.66849 0.86491,-0.80206 1.35549,-1.25887c0.52582,-0.48961 -0.0624,-1.07708 0.49194,-1.6164c0.63111,-0.61399 1.13913,-0.27147 1.81284,-0.11219c1.38429,-1.19764 3.95936,-2.03369 5.32418,-0.64351z" fill="url(#color-3)"/><path d="M242.3845,205.17631c0,0 0.11626,0.15032 0.29461,0.18769c0.19957,0.18587 0.37882,0.37298 0.31687,0.60552c-0.11053,0.4149 -0.63642,1.12109 -0.20392,2.08621c0.09901,0.22094 0.24369,0.62068 0.39305,0.9184c-0.24068,-0.01864 -0.50159,0.01847 -0.61034,0.13543c-1.03512,1.11318 2.30559,3.56444 0.18683,3.52928c-0.39606,0.97189 -0.45416,1.84696 -0.42324,2.80162c-0.21702,-0.27616 -0.53819,-0.46714 -0.90654,-0.43523c-0.83008,0.0719 -1.4798,1.76722 -1.87905,2.3567c-0.26006,0.38398 -0.57628,1.72509 -0.59193,1.26159c-0.02104,-0.62299 -0.65438,-2.0205 -1.14915,-2.34655c-0.45468,-0.29964 -1.24012,-0.03783 -1.62056,0.15477c0.04574,-0.30987 -0.08063,-0.93803 -0.07831,-1.25414c-0.00707,-0.63109 0.05922,-1.69237 -0.28659,-2.25327c-0.29667,-0.48118 -0.96189,-0.3928 -1.03633,-0.86728c-0.11127,-0.70923 0.57094,-1.46494 0.47769,-2.05334c-0.08109,-0.51168 -1.0186,-1.04001 -0.62386,-1.70828c0.24008,-0.40646 0.90563,-0.71058 1.2045,-1.03583c0.59242,-0.6447 0.11489,-1.13136 0.50765,-1.62882c0.08273,-0.10478 1.36801,0.15466 1.37441,0.15522c1.17993,-0.8264 3.34968,-2.03885 4.44669,-0.88389l0.20751,0.27416z" data-paper-data="{&quot;noHover&quot;:false,&quot;origItem&quot;:[&quot;Path&quot;,{&quot;applyMatrix&quot;:true,&quot;segments&quot;:[[[236.01592,205.74418],[0.18982,-0.03977],[-0.21239,0.19783]],[[235.68224,206.3862],[-0.06594,-0.2475],[0.11764,0.44159]],[[235.90706,208.5993],[0.46032,-1.0272],[-0.10538,0.23515]],[[235.4943,209.56887],[0.15897,-0.31687],[0.25616,-0.01983]],[[236.14281,209.71483],[-0.11575,-0.12448],[1.1017,1.18479]],[[235.94926,213.42962],[-2.25505,0.03742],[0.42154,1.03441]],[[236.38461,216.38855],[0.03291,-1.01607],[0.23098,-0.29393]],[[237.34584,215.92249],[-0.39204,-0.03396],[0.88347,0.07653]],[[239.3224,218.42187],[-0.42493,-0.6274],[0.27679,0.40868]],[[239.94736,219.7643],[-0.01666,0.49331],[0.02239,-0.66307]],[[241.15912,217.26797],[-0.5266,0.34702],[0.48394,-0.3189]],[[242.87104,217.43747],[-0.40491,-0.20499],[-0.04869,-0.3298]],[[242.94838,216.10646],[0.00247,0.33644],[0.00752,-0.67168]],[[243.23821,213.7264],[-0.36806,0.59698],[0.31575,-0.51213]],[[244.33664,212.81772],[-0.07923,0.505],[0.11844,-0.75485]],[[243.83106,210.65823],[-0.09925,0.62625],[0.08631,-0.5446]],[[244.50136,208.8515],[0.42013,0.71126],[-0.25553,-0.4326]],[[243.23016,207.75978],[0.3181,0.34617],[-0.63053,-0.68616]],[[242.69931,206.03162],[0.41803,0.52946],[-0.08805,-0.11152]],[[241.24648,206.19999],[0.00681,-0.0006],[-1.25583,-0.87955]],[[236.54634,205.25488],[1.16758,-1.22925],[0,0]],[236.32738,205.54566]],&quot;closed&quot;:true}]}" fill="url(#color-4)"/><path d="M240.53709,205.39304c-0.14513,0.07692 -0.30591,0.05564 -0.30591,0.05564l-0.53669,-0.10492c-1.98368,-1.16949 -2.192,3.35873 -2.29957,4.31607c-0.02826,0.25146 0.56635,-0.01548 0.74023,0.16836c0.37881,0.40054 0.1011,0.77373 0.20926,1.18756c0.09731,0.37232 0.36713,0.80865 0.48177,1.22212c0.14304,-0.41026 0.25121,-0.85276 0.61075,-1.04475c0.55337,-0.2955 1.89148,1.53443 1.61067,0.97346c-0.2652,-0.52981 -1.14657,-3.78956 -0.24983,-3.79198c-0.33006,-1.48056 -0.14404,-2.13826 -0.26069,-2.98156zM240.3146,204.51872c-0.03895,-0.10687 -0.08359,-0.21887 -0.13479,-0.33702c0,0 -0.18676,-0.43106 0.2443,-0.61782c0.43106,-0.18676 0.61782,0.2443 0.61782,0.2443c0.80025,1.84745 0.19848,2.33056 0.66104,4.32923l0.1994,0.46024c0.0351,0.07732 0.04968,0.16509 0.03772,0.25548c-0.03404,0.25722 -0.27015,0.43813 -0.52736,0.40409c-0.02909,-0.00385 -0.05722,-0.01028 -0.08418,-0.01905l-0.017,-0.0052c-0.4591,0.59844 1.18211,2.95334 0.35142,3.64359c-0.31881,0.26492 -0.84285,0.00457 -1.23752,-0.12214c-0.30136,-0.09675 -0.6239,-0.9942 -0.66262,-0.68008c-0.04386,0.35581 -0.12012,0.72129 -0.29493,1.0343l-0.00411,0.00423l0.0012,0.00071l-0.35583,0.59839c-0.09149,0.16213 -0.27511,0.26084 -0.47096,0.23492c-0.18591,-0.0246 -0.33196,-0.15478 -0.38579,-0.32219l-0.1997,-0.57912l0.05604,-0.01933c-0.29135,-0.56578 -0.52081,-1.15916 -0.67759,-1.7896c-0.05687,-0.22868 0.31716,-0.66304 0.08473,-0.70183c-0.39579,-0.06606 -0.92782,-0.23873 -1.02735,-0.62745c-0.27366,-1.06882 0.60443,-1.89009 0.30692,-2.6858c-0.67256,-1.79877 1.95936,-3.45751 3.3594,-2.69685l0.15972,-0.00599z" fill="url(#color-5)"/><path d="M240.24115,205.40276c0,0 0.16449,0.02224 0.30961,-0.05467c0.11665,0.8433 -0.03809,1.5323 0.29197,3.01287c-0.89674,0.00242 -0.04099,3.31861 0.22421,3.84842c0.2808,0.56097 -1.07808,-1.26482 -1.63145,-0.96932c-0.35954,0.19199 -0.47537,0.63362 -0.61841,1.04389c-0.11463,-0.41347 -0.39699,-0.85418 -0.4943,-1.2265c-0.10816,-0.41384 0.15399,-0.8 -0.22481,-1.20054c-0.17387,-0.18384 -0.77457,0.07267 -0.74632,-0.17879c0.10757,-0.95734 0.36166,-5.55078 2.34534,-4.38129l0.54415,0.10593z" data-paper-data="{&quot;noHover&quot;:false,&quot;origItem&quot;:[&quot;Path&quot;,{&quot;applyMatrix&quot;:true,&quot;segments&quot;:[[[238.26916,205.73277],[0.15446,0.08186],[-0.12415,0.89755]],[[237.99171,208.90612],[0.35129,-1.57581],[0.95442,0.00258]],[[237.7258,212.94202],[0.28226,-0.56389],[-0.29887,0.59706]],[[239.44008,211.90594],[-0.58897,-0.31451],[0.38267,0.20434]],[[240.09012,213.0179],[-0.15224,-0.43666],[0.12201,-0.44007]],[[240.60289,211.71717],[-0.10357,0.39627],[0.11512,-0.44045]],[[240.8256,210.45321],[-0.40317,0.4263],[0.18506,-0.19567]],[[241.61345,210.27402],[0.03007,0.26764],[-0.11449,-1.01892]],[[239.16596,205.68031],[2.11128,-1.24472],[0,0]],[238.59475,205.79198]],&quot;closed&quot;:true}]}" fill="url(#color-6)"/></g><path d="M232.05332,204.99334l2.6141,-4.90143h7.51553l3.10424,4.90143z" fill="url(#color-7)" stroke="#000000" stroke-width="0" stroke-linecap="butt"/><path d="M238.28456,201.2444c-14.02176,0.20134 -13.69397,-10.72028 -13.69397,-23.94441c0,-13.22413 0.5759,-23.94441 13.69397,-23.94441c13.63483,0 13.69397,10.72028 13.69397,23.94441c0,13.22413 1.36161,23.72823 -13.69397,23.94441z" fill="url(#color-8)" stroke="#000000" stroke-width="0" stroke-linecap="butt"/><path d="M222.40945,197.38399v-39.52573h31.62062v39.52573z" fill="url(#color-9)" stroke="#ed6b00" stroke-width="0" stroke-linecap="butt"/><g><path d="M252.49166,225.28213c0,0 -7.10119,-24.80352 -8.91969,-28.90834c-0.59463,-1.34222 -3.63877,-0.79297 -3.63877,-0.79297c0,0 -3.83036,-3.53207 -0.27915,-4.27807c3.00131,-0.63047 10.06092,0.11684 10.06092,0.11684l10.60887,32.21726z" data-paper-data="{&quot;index&quot;:null}" fill="#726f7c" stroke="#000000" stroke-width="0" stroke-linecap="butt"/><path d="M267.73554,229.36887c-0.5801,0.12186 -2.58483,0.55694 -4.61763,0.90166c-1.2359,0.20958 -1.98853,-0.21355 -2.93134,-0.16146c-1.18694,0.06559 -2.83045,0.81987 -3.70092,0.80704c-1.60397,-0.02365 -2.48381,-0.27303 -2.48381,-0.27303c0,0 -0.47417,-0.94817 -0.60551,-1.49321c-0.17695,-0.73432 -0.36074,-2.51661 -0.36074,-2.51661c0,0 5.78291,-1.33698 8.08954,-1.61683c1.3649,-0.16559 4.28296,-0.23879 4.28296,-0.23879c0,0 1.55514,0.30235 1.85201,0.67654c0.3636,0.45829 1.26324,1.76669 1.26324,1.76669c0,0 0.0214,1.978 -0.78784,2.14799z" data-paper-data="{&quot;index&quot;:null}" fill="#141415" stroke="#000000" stroke-width="0" stroke-linecap="butt"/><path d="M266.9411,226.90474c-0.24291,0.05103 1.01667,1.42304 -2.28813,1.84287c-3.12079,0.39646 -2.96145,-0.59206 -4.05885,-0.4439c-2.29469,0.30982 -2.41006,1.11429 -3.41982,1.17009c-0.35167,0.01943 -0.52531,-0.00669 -1.94596,-0.58275c-0.97704,-0.39618 -1.01146,-1.57697 -1.72753,-2.06833c-1.04598,-0.71775 -1.17888,-1.67931 -1.17888,-1.67931l-0.70129,-2.96693c0,0 0.92964,2.05969 1.92014,2.69402c0.88622,0.56754 2.26355,-0.49465 2.73688,-0.59423c0.82882,-0.17435 -1.34598,-3.05662 -0.54976,-3.20524c0.42813,-0.07991 3.59511,-0.99441 3.59511,-0.99441c0,0 0.85635,3.47814 1.08847,3.44997c1.3649,-0.16559 4.63896,-0.31358 4.63896,-0.31358c0,0 1.55514,0.30235 1.85202,0.67654c0.3636,0.45829 1.22534,2.76591 1.22534,2.76591c0,0 -0.37747,0.07929 -1.1867,0.24929z" data-paper-data="{&quot;index&quot;:null}" fill="#252527" stroke="#000000" stroke-width="0" stroke-linecap="butt"/><path d="M261.41281,223.94817l-2.38637,1.61645" fill="none" stroke="#ffffff" stroke-width="0.5" stroke-linecap="round"/><path d="M260.99995,225.52177l2.19291,-1.94753" fill="none" stroke="#ffffff" stroke-width="0.5" stroke-linecap="round"/><path d="M264.31073,223.58723l-1.12489,1.72317" fill="none" stroke="#ffffff" stroke-width="0.5" stroke-linecap="round"/><path d="M259.12823,221.33044l-2.08619,0.68605" fill="none" stroke="#969696" stroke-width="0.5" stroke-linecap="round"/><path d="M259.51515,221.99259l-1.82392,0.75487" fill="none" stroke="#969696" stroke-width="0.5" stroke-linecap="round"/></g><g><path d="M232.91902,228.78291l-2.47825,-33.82837c0,0 6.24119,-3.38291 9.25614,-3.94457c3.56735,-0.66457 1.3733,4.06125 1.3733,4.06125c0,0 -3.02357,0.65308 -3.06143,2.12063c-0.11579,4.48811 2.778,30.12534 2.778,30.12534z" fill="#726f7c" stroke="#000000" stroke-width="0" stroke-linecap="butt"/><path d="M248.87133,230.95485c0,0 -0.02385,1.97797 -0.83677,2.12941c-0.58274,0.10856 -2.59688,0.49768 -4.63704,0.7958c-1.24036,0.18125 -1.98312,-0.25897 -2.92688,-0.22846c-1.18813,0.03842 -2.84845,0.7549 -3.71841,0.72216c-1.60301,-0.06032 -2.47691,-0.32976 -2.47691,-0.32976c0,0 -0.45236,-0.95877 -0.57119,-1.50668c-0.1601,-0.73816 -0.30308,-2.52419 -0.30308,-2.52419c0,0 5.81197,-1.20436 8.12441,-1.43137c1.36833,-0.13433 4.2873,-0.14076 4.2873,-0.14076c0,0 1.54781,0.33785 1.83605,0.71873c0.35303,0.46648 1.22251,1.79513 1.22251,1.79513z" data-paper-data="{&quot;index&quot;:null}" fill="#141415" stroke="#000000" stroke-width="0" stroke-linecap="butt"/><path d="M248.48879,230.38054c0,0 -0.37916,0.07064 -1.19209,0.22208c-0.24403,0.04545 0.98384,1.44593 -2.32968,1.79004c-3.12904,0.32496 -2.94714,-0.65964 -4.04763,-0.53662c-2.30118,0.25725 -2.43491,1.05888 -3.4457,1.09155c-0.35202,0.01137 -0.52502,-0.01871 -1.9321,-0.62711c-0.96771,-0.41842 -0.97512,-1.5997 -1.67977,-2.1073c-1.02929,-0.7415 -1.14016,-1.70584 -1.14016,-1.70584l-0.63325,-2.9822c0,0 0.88229,2.08043 1.85802,2.73724c0.87301,0.58767 2.27428,-0.44275 2.74975,-0.53147c0.83258,-0.15536 -1.27572,-3.08662 -0.47632,-3.21699c0.42985,-0.0701 3.61692,-0.91192 3.61692,-0.91192c0,0 0.77657,3.49681 1.00928,3.47396c1.36832,-0.13432 4.64492,-0.20738 4.64492,-0.20738c0,0 1.54781,0.33785 1.83605,0.71873c0.35304,0.46648 1.16175,2.79321 1.16175,2.79321z" data-paper-data="{&quot;index&quot;:null}" fill="#252527" stroke="#000000" stroke-width="0" stroke-linecap="butt"/><path d="M241.83749,227.52035l-2.42271,1.56145" fill="none" stroke="#ffffff" stroke-width="0.5" stroke-linecap="round"/><path d="M241.38872,229.0841l2.23688,-1.89686" fill="none" stroke="#ffffff" stroke-width="0.5" stroke-linecap="round"/><path d="M243.57888,228.92278l1.16401,-1.697" fill="none" stroke="#ffffff" stroke-width="0.5" stroke-linecap="round"/><path d="M237.51204,225.48923l2.10134,-0.63816" fill="none" stroke="#969696" stroke-width="0.5" stroke-linecap="round"/><path d="M239.98503,225.52189l-1.84072,0.71295" fill="none" stroke="#969696" stroke-width="0.5" stroke-linecap="round"/></g><path d="M234.93952,163.24613v-6.85104h7.65615v6.85104z" fill="url(#color-10)" stroke="#000000" stroke-width="0" stroke-linecap="butt"/><path d="M230.49814,194.56428c0,0 -0.11293,-5.56106 -0.90302,-10.9122c-0.53685,-3.63606 -1.7532,-6.87967 -2.03542,-9.36282c-0.5297,-4.66058 -0.88374,-13.35468 -0.88374,-13.35468c0,0 3.65767,-0.76983 5.45147,-0.49356c2.2834,0.35167 7.13803,2.4325 7.13803,2.4325c0,0 3.56299,-2.35291 5.45303,-2.86495c1.99425,-0.54026 6.21665,-0.29648 6.21665,-0.29648c0,0 0.39492,9.2089 0.41037,12.65167c0.01367,3.04602 -0.56794,6.40481 -0.63474,10.91871c-0.06884,4.65232 0.37685,10.41578 0.37685,10.41578c0,0 -2.7922,-0.62959 -5.60696,-0.55605c-1.27827,0.0334 -1.73835,1.095 -2.93606,1.31475c-0.95733,0.17564 -2.66374,-0.47946 -3.58925,-0.46961c-0.69966,0.00744 -2.06788,-0.42707 -2.5617,-0.4063c-0.9971,0.04194 -1.57012,0.94551 -2.71837,1.16293c-1.33382,0.25255 -3.17717,-0.17971 -3.17717,-0.17971z" fill="#ffffff" stroke="#292e32" stroke-width="0" stroke-linecap="butt"/><path d="M251.82917,143.97249c0,7.73092 -5.73774,13.99807 -12.8156,13.99807c-7.07786,0 -12.8156,-6.26715 -12.8156,-13.99807c0,-7.73092 5.73774,-13.99806 12.8156,-13.99806c7.07786,0 12.8156,6.26714 12.8156,13.99806z" fill="url(#color-11)" stroke="none" stroke-width="0" stroke-linecap="butt"/><path d="M238.03343,145.97599c-0.5265,0.91349 -1.43258,0.38383 -1.43258,0.38383c-0.91393,-0.55722 -2.45095,-1.17574 -2.30203,-2.6961c0.1217,-1.24248 2.13973,-2.33997 3.2068,-2.10706c1.93572,0.42253 3.60144,3.95074 0.5278,4.41932z" fill="#191412" stroke="none" stroke-width="0.5" stroke-linecap="butt"/><path d="M242.45054,150.49059c0.14423,-0.46863 0.47533,-0.57039 0.71965,-0.57602c0.0776,-0.00492 0.15695,0.00165 0.23587,0.02089c-0.28158,-1.08168 -0.10408,-2.4792 -0.44462,-3.52597c0,0 -0.2501,-0.78449 0.51677,-1.04033c0.76687,-0.25584 1.01697,0.52865 1.01697,0.52865c0.4101,1.30859 0.71193,2.9192 0.68474,4.31641c-0.01019,0.5236 0.25251,1.23107 -0.14241,1.56432c-0.4098,0.34581 -1.06036,-0.06797 -1.59055,-0.10196l-0.46926,-0.15113c-0.09725,-0.03132 -0.18459,-0.07973 -0.25988,-0.14099c-0.1971,-0.14779 -0.41151,-0.42524 -0.26729,-0.89386z" fill="#191412" stroke="none" stroke-width="0.5" stroke-linecap="butt"/><path d="M249.92237,146.45889c-0.42472,0.9868 -1.15568,0.41464 -1.15568,0.41464c-0.73728,-0.60194 -1.97722,-1.27009 -1.85707,-2.91248c0.09818,-1.3422 1.72614,-2.52778 2.58696,-2.27617c1.56156,0.45643 2.90532,4.26783 0.42578,4.77401z" fill="#191412" stroke="none" stroke-width="0.5" stroke-linecap="butt"/><g stroke-linecap="butt"><path d="M232.30137,135.02434c-0.17005,0.01306 -0.60745,0.05338 -1.08101,0.12809c-0.52481,0.19981 -1.13701,0.40123 -1.60677,0.62441c-0.30204,0.88846 0.76073,1.81827 -0.69014,2.46543c-2.47444,1.10372 -1.68672,-2.06362 -0.85344,-3.04958c1.28665,-1.08794 3.16128,-1.19356 4.77768,-1.47968c2.22645,-0.39412 4.39964,-1.01947 6.59672,-1.12157c0.08373,-0.08501 0.19742,-0.14125 0.32576,-0.15097l0.58683,-0.04437c0.29649,-0.07344 0.61861,-0.14963 0.95687,-0.22118c0.88034,-0.26117 1.93684,-0.38813 2.92062,-0.46624c0.48312,-0.0876 0.93522,-0.12531 1.30808,-0.08635c0.27415,-0.01627 0.52912,-0.03163 0.75689,-0.04886l0.61862,-0.04678c0.28176,-0.02131 0.52744,0.18983 0.54874,0.47159c0.01896,0.25077 -0.1462,0.47296 -0.38141,0.53382l-0.33106,0.09265c0.14321,0.12391 0.27273,0.26511 0.3863,0.42536l0.23585,-0.11566l0.28911,0.58949c0.03091,0.05949 0.05055,0.12607 0.05593,0.19712c0.02131,0.28176 -0.18983,0.52744 -0.47158,0.54873c-0.08568,0.00647 -0.16803,-0.00853 -0.24176,-0.0405l-0.50408,-0.20613l0.00607,-0.01483l-0.04781,-0.00447c-0.3588,-0.22898 -0.72469,-0.40307 -1.09089,-0.5227c-0.55912,-0.02819 -1.1467,-0.0979 -1.74581,-0.1556c-1.01707,0.15973 -1.94486,0.77427 -2.61733,1.83311c0,0 -0.27523,0.43128 -0.7065,0.15604c-0.43127,-0.27523 -0.15604,-0.70651 -0.15604,-0.70651c0.05884,-0.0918 0.11951,-0.18105 0.1819,-0.26772l-0.28521,0.08639c-0.03819,0.01244 -0.07848,0.02055 -0.12032,0.02371c-0.28176,0.02131 -0.52744,-0.18983 -0.54873,-0.47159c-0.01079,-0.1426 0.03797,-0.27595 0.12529,-0.37565c-0.24508,-0.00307 -0.47675,0.00691 -0.67434,0.05261c-1.38003,0.31921 -3.49383,0.40123 -5.49102,0.67808c0.0077,0.2414 -0.15453,0.45215 -0.38263,0.51117l-0.60014,0.16794l-0.00543,-0.01939l-0.0075,0.00183z" fill="url(#color-12)" stroke="none" stroke-width="0.5"/><path d="M247.44806,131.51318c2.71281,-0.24476 2.68884,-0.20441 2.87705,1.62874c0.18821,1.83315 -0.83074,3.35013 -2.2759,3.38828c-1.44517,0.03816 -2.76929,-1.41698 -2.9575,-3.25013c-0.18821,-1.83315 -0.18749,-1.53738 2.35635,-1.76689z" data-paper-data="{&quot;index&quot;:null}" fill="url(#color-13)" stroke="#000000" stroke-width="0"/><path d="M240.78976,134.0975c0.32856,1.99641 -1.2315,3.91541 -3.48449,4.28618c-2.25298,0.37077 -4.34573,-0.94706 -4.67428,-2.94348c-0.32856,-1.99641 -0.37937,-2.03235 3.90844,-2.54486c4.02075,-0.4806 3.92178,-0.79425 4.25034,1.20216z" fill="url(#color-14)" stroke="#000000" stroke-width="0"/></g><path d="M283.54199,161.09003c-0.0521,0.2164 3.69104,0.48867 3.53622,1.41639c-0.07616,0.4563 -2.42318,-0.27811 -3.33037,0.24601c-0.4802,0.27743 4.29197,0.17452 3.65931,1.31754c-0.2172,0.39241 -3.58068,-0.35186 -4.45076,-0.0202c-0.46577,0.17756 5.18713,0.60783 4.80935,1.38022c-0.22426,0.45852 -3.26421,-0.40436 -4.70081,-0.25803c-0.69988,0.07128 3.77495,0.88512 3.37865,1.42506c-0.24259,0.33051 -4.6496,-0.23416 -4.7045,-0.20126c-0.30856,0.18494 2.26184,1.29593 1.58213,1.49237c-1.25269,0.36204 -2.5383,-0.80603 -3.76457,-1.75329c-0.71647,-0.55345 -1.88213,-0.74192 -1.88213,-0.74192c0,0 -2.88318,-0.92723 -6.39617,-0.81762c-0.84479,0.02636 -3.60303,-0.07643 -4.47057,-0.04094c-2.05326,0.08396 -4.08651,0.2394 -5.34656,0.26041c-2.71014,0.04525 -6.14401,0.02412 -6.14401,0.02412l-0.20696,-5.91771c0,0 4.9046,-0.0488 7.78601,-0.09693c1.17266,-0.01958 2.05797,0.56538 3.87509,0.60522c0.81455,0.01785 4.2894,0.58324 6.42588,0.82993c3.55717,0.41073 5.74788,0.2829 5.74788,0.2829c0,0 4.70724,0.10931 4.59686,0.56775z" data-paper-data="{&quot;index&quot;:null}" fill="#ffb77d" stroke="#000000" stroke-width="0" stroke-linecap="butt"/><path d="M248.8186,164.01549c-0.58138,-5.34044 3.00248,-5.63196 4.9766,-5.61505c1.97412,0.01693 1.59241,-1.63401 2.10099,3.26177c0.42986,4.13801 0.07367,3.54611 -1.90045,3.52919c-1.97412,-0.01693 -4.87437,1.60531 -5.17713,-1.17593z" data-paper-data="{&quot;index&quot;:null}" fill="#ffffff" stroke="#000000" stroke-width="0" stroke-linecap="butt"/><path d="M193.56462,168.22974c-0.18668,-0.43301 4.43354,-1.34061 4.43354,-1.34061c0,0 2.18057,-0.24627 5.61621,-1.25548c2.06349,-0.60613 5.39173,-1.75376 6.19141,-1.90976c1.78393,-0.34803 2.55697,-1.07492 3.7159,-1.25489c2.84769,-0.44219 7.68926,-1.22751 7.68926,-1.22751l0.80159,5.86683c0,0 -3.38035,0.60432 -6.05876,1.02024c-1.2453,0.1934 -3.2754,0.38572 -5.31306,0.65187c-0.86095,0.11245 -3.56161,0.68243 -4.39859,0.8c-3.48053,0.48892 -6.16423,1.89258 -6.16423,1.89258c0,0 -1.11668,0.3838 -1.72868,1.05094c-1.04747,1.14185 -2.11592,2.51139 -3.41191,2.36747c-0.7032,-0.07808 1.64103,-1.60967 1.30553,-1.7395c-0.0597,-0.0231 -4.30666,1.28221 -4.60188,0.99773c-0.48228,-0.46475 3.78919,-2.02713 3.08738,-1.97845c-1.44058,0.09991 -4.2897,1.46681 -4.58861,1.05306c-0.50353,-0.69696 4.99405,-2.08155 4.50488,-2.17738c-0.91378,-0.17899 -4.10188,1.12599 -4.3826,0.7762c-0.81768,-1.01889 3.90258,-1.72837 3.38222,-1.92018c-0.98305,-0.36235 -3.17116,0.76019 -3.32374,0.32347c-0.3102,-0.88792 3.33223,-1.79227 3.24411,-1.99667z" data-paper-data="{&quot;index&quot;:null}" fill="#ffb77d" stroke="#000000" stroke-width="0" stroke-linecap="butt"/><path d="M228.28009,165.21233c0.17424,2.79224 -2.9595,1.68641 -4.90203,2.03853c-1.94254,0.35213 -2.19298,0.99594 -2.47251,-3.15493c-0.33072,-4.91099 -0.42634,-3.21921 1.51619,-3.57134c1.94253,-0.35212 5.52381,-0.67381 5.85835,4.68775z" data-paper-data="{&quot;index&quot;:null}" fill="#ffffff" stroke="#000000" stroke-width="0" stroke-linecap="butt"/><path d="M213.87928,204.78384c0,0 4.51981,-6.93576 5.97062,-10.98881c1.49692,-4.18186 2.87688,-13.728 2.87688,-13.728l-0.28088,17.27368z" fill="url(#color-15)" stroke="#000000" stroke-width="0" stroke-linecap="butt"/><path d="M253.98839,197.42543l-0.28088,-17.27367c0,0 1.37996,9.54614 2.87688,13.728c1.45081,4.05304 5.97062,10.98881 5.97062,10.98881z" data-paper-data="{&quot;index&quot;:null}" fill="url(#color-16)" stroke="#000000" stroke-width="0" stroke-linecap="butt"/></g></g></svg>