<svg version="1.1" xmlns="http://www.w3.org/2000/svg" xmlns:xlink="http://www.w3.org/1999/xlink" width="122.99259" height="206.68764" viewBox="0,0,122.99259,206.68764"><defs><linearGradient x1="205.53131" y1="109.4158" x2="194.48894" y2="104.91794" gradientUnits="userSpaceOnUse" id="color-1"><stop offset="0" stop-color="#2f2f2f"/><stop offset="1" stop-color="#252525"/></linearGradient><linearGradient x1="205.29245" y1="109.40725" x2="194.4174" y2="104.97754" gradientUnits="userSpaceOnUse" id="color-2"><stop offset="0" stop-color="#2f2f2f"/><stop offset="1" stop-color="#252525"/></linearGradient><linearGradient x1="205.37611" y1="109.44132" x2="194.50106" y2="105.0116" gradientUnits="userSpaceOnUse" id="color-3"><stop offset="0" stop-color="#2f2f2f"/><stop offset="1" stop-color="#252525"/></linearGradient><linearGradient x1="192.17186" y1="177.90919" x2="179.88291" y2="177.99768" gradientUnits="userSpaceOnUse" id="color-4"><stop offset="0" stop-color="#2f2f2f"/><stop offset="1" stop-color="#252525"/></linearGradient><linearGradient x1="191.93997" y1="177.99627" x2="179.8372" y2="178.08342" gradientUnits="userSpaceOnUse" id="color-5"><stop offset="0" stop-color="#2f2f2f"/><stop offset="1" stop-color="#252525"/></linearGradient><linearGradient x1="192.03305" y1="177.9956" x2="179.93029" y2="178.08276" gradientUnits="userSpaceOnUse" id="color-6"><stop offset="0" stop-color="#2f2f2f"/><stop offset="1" stop-color="#252525"/></linearGradient><linearGradient x1="192.32706" y1="163.84393" x2="180.04533" y2="163.35949" gradientUnits="userSpaceOnUse" id="color-7"><stop offset="0" stop-color="#2f2f2f"/><stop offset="1" stop-color="#252525"/></linearGradient><linearGradient x1="192.09147" y1="163.92009" x2="179.99583" y2="163.443" gradientUnits="userSpaceOnUse" id="color-8"><stop offset="0" stop-color="#2f2f2f"/><stop offset="1" stop-color="#252525"/></linearGradient><linearGradient x1="192.18452" y1="163.92376" x2="180.08886" y2="163.44667" gradientUnits="userSpaceOnUse" id="color-9"><stop offset="0" stop-color="#2f2f2f"/><stop offset="1" stop-color="#252525"/></linearGradient><linearGradient x1="193.91596" y1="150.03538" x2="181.81761" y2="147.79292" gradientUnits="userSpaceOnUse" id="color-10"><stop offset="0" stop-color="#2f2f2f"/><stop offset="1" stop-color="#252525"/></linearGradient><linearGradient x1="193.67214" y1="150.07693" x2="181.7571" y2="147.86847" gradientUnits="userSpaceOnUse" id="color-11"><stop offset="0" stop-color="#2f2f2f"/><stop offset="1" stop-color="#252525"/></linearGradient><linearGradient x1="193.76379" y1="150.09393" x2="181.84875" y2="147.88546" gradientUnits="userSpaceOnUse" id="color-12"><stop offset="0" stop-color="#2f2f2f"/><stop offset="1" stop-color="#252525"/></linearGradient><linearGradient x1="196.97204" y1="136.43409" x2="185.08556" y2="133.20892" gradientUnits="userSpaceOnUse" id="color-13"><stop offset="0" stop-color="#2f2f2f"/><stop offset="1" stop-color="#252525"/></linearGradient><linearGradient x1="196.7257" y1="136.45556" x2="185.01931" y2="133.27925" gradientUnits="userSpaceOnUse" id="color-14"><stop offset="0" stop-color="#2f2f2f"/><stop offset="1" stop-color="#252525"/></linearGradient><linearGradient x1="196.81574" y1="136.47999" x2="185.10935" y2="133.30368" gradientUnits="userSpaceOnUse" id="color-15"><stop offset="0" stop-color="#2f2f2f"/><stop offset="1" stop-color="#252525"/></linearGradient><linearGradient x1="200.99621" y1="122.45238" x2="189.28397" y2="118.61374" gradientUnits="userSpaceOnUse" id="color-16"><stop offset="0" stop-color="#2f2f2f"/><stop offset="1" stop-color="#252525"/></linearGradient><linearGradient x1="200.74908" y1="122.461" x2="189.21429" y2="118.68052" gradientUnits="userSpaceOnUse" id="color-17"><stop offset="0" stop-color="#2f2f2f"/><stop offset="1" stop-color="#252525"/></linearGradient><linearGradient x1="200.8378" y1="122.49008" x2="189.30302" y2="118.7096" gradientUnits="userSpaceOnUse" id="color-18"><stop offset="0" stop-color="#2f2f2f"/><stop offset="1" stop-color="#252525"/></linearGradient><linearGradient x1="192.43918" y1="191.97836" x2="180.15475" y2="192.30527" gradientUnits="userSpaceOnUse" id="color-19"><stop offset="0" stop-color="#2f2f2f"/><stop offset="1" stop-color="#252525"/></linearGradient><linearGradient x1="192.20409" y1="191.89917" x2="180.10581" y2="192.22112" gradientUnits="userSpaceOnUse" id="color-20"><stop offset="0" stop-color="#2f2f2f"/><stop offset="1" stop-color="#252525"/></linearGradient><linearGradient x1="192.29717" y1="191.8967" x2="180.19885" y2="192.21864" gradientUnits="userSpaceOnUse" id="color-21"><stop offset="0" stop-color="#2f2f2f"/><stop offset="1" stop-color="#252525"/></linearGradient><linearGradient x1="193.12856" y1="206.02934" x2="180.87312" y2="206.92858" gradientUnits="userSpaceOnUse" id="color-22"><stop offset="0" stop-color="#2f2f2f"/><stop offset="1" stop-color="#252525"/></linearGradient><linearGradient x1="192.89023" y1="205.9612" x2="180.82048" y2="206.8468" gradientUnits="userSpaceOnUse" id="color-23"><stop offset="0" stop-color="#2f2f2f"/><stop offset="1" stop-color="#252525"/></linearGradient><linearGradient x1="192.98308" y1="205.95439" x2="180.9133" y2="206.83998" gradientUnits="userSpaceOnUse" id="color-24"><stop offset="0" stop-color="#2f2f2f"/><stop offset="1" stop-color="#252525"/></linearGradient><linearGradient x1="195.24099" y1="219.77533" x2="183.23559" y2="222.42525" gradientUnits="userSpaceOnUse" id="color-25"><stop offset="0" stop-color="#2f2f2f"/><stop offset="1" stop-color="#252525"/></linearGradient><linearGradient x1="194.99573" y1="219.74203" x2="183.17224" y2="222.3518" gradientUnits="userSpaceOnUse" id="color-26"><stop offset="0" stop-color="#2f2f2f"/><stop offset="1" stop-color="#252525"/></linearGradient><linearGradient x1="195.08668" y1="219.72196" x2="183.26318" y2="222.33172" gradientUnits="userSpaceOnUse" id="color-27"><stop offset="0" stop-color="#2f2f2f"/><stop offset="1" stop-color="#252525"/></linearGradient><linearGradient x1="198.81177" y1="233.26459" x2="187.05543" y2="236.88944" gradientUnits="userSpaceOnUse" id="color-28"><stop offset="0" stop-color="#2f2f2f"/><stop offset="1" stop-color="#252525"/></linearGradient><linearGradient x1="198.56476" y1="233.25147" x2="186.98655" y2="236.8214" gradientUnits="userSpaceOnUse" id="color-29"><stop offset="0" stop-color="#2f2f2f"/><stop offset="1" stop-color="#252525"/></linearGradient><linearGradient x1="198.65383" y1="233.22401" x2="187.0756" y2="236.79394" gradientUnits="userSpaceOnUse" id="color-30"><stop offset="0" stop-color="#2f2f2f"/><stop offset="1" stop-color="#252525"/></linearGradient><linearGradient x1="203.36447" y1="247.10132" x2="191.80557" y2="251.33335" gradientUnits="userSpaceOnUse" id="color-31"><stop offset="0" stop-color="#2f2f2f"/><stop offset="1" stop-color="#252525"/></linearGradient><linearGradient x1="203.11717" y1="247.10106" x2="191.73339" y2="251.26897" gradientUnits="userSpaceOnUse" id="color-32"><stop offset="0" stop-color="#2f2f2f"/><stop offset="1" stop-color="#252525"/></linearGradient><linearGradient x1="203.20473" y1="247.06899" x2="191.82096" y2="251.2369" gradientUnits="userSpaceOnUse" id="color-33"><stop offset="0" stop-color="#2f2f2f"/><stop offset="1" stop-color="#252525"/></linearGradient><linearGradient x1="208.39187" y1="259.97625" x2="197.52746" y2="264.84443" gradientUnits="userSpaceOnUse" id="color-34"><stop offset="0" stop-color="#2f2f2f"/><stop offset="1" stop-color="#252525"/></linearGradient><linearGradient x1="208.1535" y1="259.99286" x2="197.45369" y2="264.78728" gradientUnits="userSpaceOnUse" id="color-35"><stop offset="0" stop-color="#2f2f2f"/><stop offset="1" stop-color="#252525"/></linearGradient><linearGradient x1="208.2358" y1="259.95599" x2="197.53601" y2="264.75042" gradientUnits="userSpaceOnUse" id="color-36"><stop offset="0" stop-color="#2f2f2f"/><stop offset="1" stop-color="#252525"/></linearGradient><linearGradient x1="273.05715" y1="108.7025" x2="284.00203" y2="103.97238" gradientUnits="userSpaceOnUse" id="color-37"><stop offset="0" stop-color="#2f2f2f"/><stop offset="1" stop-color="#252525"/></linearGradient><linearGradient x1="273.29577" y1="108.68891" x2="284.07481" y2="104.03045" gradientUnits="userSpaceOnUse" id="color-38"><stop offset="0" stop-color="#2f2f2f"/><stop offset="1" stop-color="#252525"/></linearGradient><linearGradient x1="273.21284" y1="108.72474" x2="283.99189" y2="104.06628" gradientUnits="userSpaceOnUse" id="color-39"><stop offset="0" stop-color="#2f2f2f"/><stop offset="1" stop-color="#252525"/></linearGradient><linearGradient x1="287.86048" y1="176.8984" x2="300.14856" y2="176.72727" gradientUnits="userSpaceOnUse" id="color-40"><stop offset="0" stop-color="#2f2f2f"/><stop offset="1" stop-color="#252525"/></linearGradient><linearGradient x1="288.09417" y1="176.98055" x2="300.19607" y2="176.81203" gradientUnits="userSpaceOnUse" id="color-41"><stop offset="0" stop-color="#2f2f2f"/><stop offset="1" stop-color="#252525"/></linearGradient><linearGradient x1="288.00109" y1="176.98186" x2="300.10299" y2="176.81333" gradientUnits="userSpaceOnUse" id="color-42"><stop offset="0" stop-color="#2f2f2f"/><stop offset="1" stop-color="#252525"/></linearGradient><linearGradient x1="287.4082" y1="162.83955" x2="299.67696" y2="162.09578" gradientUnits="userSpaceOnUse" id="color-43"><stop offset="0" stop-color="#2f2f2f"/><stop offset="1" stop-color="#252525"/></linearGradient><linearGradient x1="287.64535" y1="162.91072" x2="299.72822" y2="162.17822" gradientUnits="userSpaceOnUse" id="color-44"><stop offset="0" stop-color="#2f2f2f"/><stop offset="1" stop-color="#252525"/></linearGradient><linearGradient x1="287.55241" y1="162.91635" x2="299.63528" y2="162.18385" gradientUnits="userSpaceOnUse" id="color-45"><stop offset="0" stop-color="#2f2f2f"/><stop offset="1" stop-color="#252525"/></linearGradient><linearGradient x1="285.52796" y1="149.06764" x2="297.57624" y2="146.57012" gradientUnits="userSpaceOnUse" id="color-46"><stop offset="0" stop-color="#2f2f2f"/><stop offset="1" stop-color="#252525"/></linearGradient><linearGradient x1="285.7726" y1="149.10404" x2="297.63834" y2="146.64437" gradientUnits="userSpaceOnUse" id="color-47"><stop offset="0" stop-color="#2f2f2f"/><stop offset="1" stop-color="#252525"/></linearGradient><linearGradient x1="285.68134" y1="149.12297" x2="297.54706" y2="146.66329" gradientUnits="userSpaceOnUse" id="color-48"><stop offset="0" stop-color="#2f2f2f"/><stop offset="1" stop-color="#252525"/></linearGradient><linearGradient x1="282.18524" y1="135.53395" x2="294.00094" y2="132.05841" gradientUnits="userSpaceOnUse" id="color-49"><stop offset="0" stop-color="#2f2f2f"/><stop offset="1" stop-color="#252525"/></linearGradient><linearGradient x1="282.43198" y1="135.55021" x2="294.06866" y2="132.12732" gradientUnits="userSpaceOnUse" id="color-50"><stop offset="0" stop-color="#2f2f2f"/><stop offset="1" stop-color="#252525"/></linearGradient><linearGradient x1="282.34247" y1="135.57654" x2="293.97916" y2="132.15364" gradientUnits="userSpaceOnUse" id="color-51"><stop offset="0" stop-color="#2f2f2f"/><stop offset="1" stop-color="#252525"/></linearGradient><linearGradient x1="277.86663" y1="121.64037" x2="289.49515" y2="117.55517" gradientUnits="userSpaceOnUse" id="color-52"><stop offset="0" stop-color="#2f2f2f"/><stop offset="1" stop-color="#252525"/></linearGradient><linearGradient x1="278.11388" y1="121.64377" x2="289.56623" y2="117.62046" gradientUnits="userSpaceOnUse" id="color-53"><stop offset="0" stop-color="#2f2f2f"/><stop offset="1" stop-color="#252525"/></linearGradient><linearGradient x1="278.02578" y1="121.67471" x2="289.47814" y2="117.65142" gradientUnits="userSpaceOnUse" id="color-54"><stop offset="0" stop-color="#2f2f2f"/><stop offset="1" stop-color="#252525"/></linearGradient><linearGradient x1="287.89044" y1="190.97007" x2="300.17903" y2="191.03741" gradientUnits="userSpaceOnUse" id="color-55"><stop offset="0" stop-color="#2f2f2f"/><stop offset="1" stop-color="#252525"/></linearGradient><linearGradient x1="288.1238" y1="190.88594" x2="300.22617" y2="190.95225" gradientUnits="userSpaceOnUse" id="color-56"><stop offset="0" stop-color="#2f2f2f"/><stop offset="1" stop-color="#252525"/></linearGradient><linearGradient x1="288.03069" y1="190.88543" x2="300.1331" y2="190.95173" gradientUnits="userSpaceOnUse" id="color-57"><stop offset="0" stop-color="#2f2f2f"/><stop offset="1" stop-color="#252525"/></linearGradient><linearGradient x1="287.49802" y1="205.03248" x2="299.76972" y2="205.67263" gradientUnits="userSpaceOnUse" id="color-58"><stop offset="0" stop-color="#2f2f2f"/><stop offset="1" stop-color="#252525"/></linearGradient><linearGradient x1="287.73487" y1="204.95932" x2="299.82063" y2="205.58976" gradientUnits="userSpaceOnUse" id="color-59"><stop offset="0" stop-color="#2f2f2f"/><stop offset="1" stop-color="#252525"/></linearGradient><linearGradient x1="287.64189" y1="204.95447" x2="299.72767" y2="205.5849" gradientUnits="userSpaceOnUse" id="color-60"><stop offset="0" stop-color="#2f2f2f"/><stop offset="1" stop-color="#252525"/></linearGradient><linearGradient x1="285.67645" y1="218.82003" x2="297.73515" y2="221.21575" gradientUnits="userSpaceOnUse" id="color-61"><stop offset="0" stop-color="#2f2f2f"/><stop offset="1" stop-color="#252525"/></linearGradient><linearGradient x1="285.92095" y1="218.78155" x2="297.79692" y2="221.14098" gradientUnits="userSpaceOnUse" id="color-62"><stop offset="0" stop-color="#2f2f2f"/><stop offset="1" stop-color="#252525"/></linearGradient><linearGradient x1="285.82958" y1="218.76341" x2="297.70558" y2="221.12282" gradientUnits="userSpaceOnUse" id="color-63"><stop offset="0" stop-color="#2f2f2f"/><stop offset="1" stop-color="#252525"/></linearGradient><linearGradient x1="282.39141" y1="232.3817" x2="294.22169" y2="235.7574" gradientUnits="userSpaceOnUse" id="color-64"><stop offset="0" stop-color="#2f2f2f"/><stop offset="1" stop-color="#252525"/></linearGradient><linearGradient x1="282.63809" y1="232.36338" x2="294.28912" y2="235.68792" gradientUnits="userSpaceOnUse" id="color-65"><stop offset="0" stop-color="#2f2f2f"/><stop offset="1" stop-color="#252525"/></linearGradient><linearGradient x1="282.54846" y1="232.3378" x2="294.19951" y2="235.66235" gradientUnits="userSpaceOnUse" id="color-66"><stop offset="0" stop-color="#2f2f2f"/><stop offset="1" stop-color="#252525"/></linearGradient><linearGradient x1="278.13203" y1="246.31152" x2="289.77774" y2="250.29843" gradientUnits="userSpaceOnUse" id="color-67"><stop offset="0" stop-color="#2f2f2f"/><stop offset="1" stop-color="#252525"/></linearGradient><linearGradient x1="278.37925" y1="246.30604" x2="289.84855" y2="250.23254" gradientUnits="userSpaceOnUse" id="color-68"><stop offset="0" stop-color="#2f2f2f"/><stop offset="1" stop-color="#252525"/></linearGradient><linearGradient x1="278.29105" y1="246.27583" x2="289.76032" y2="250.20233" gradientUnits="userSpaceOnUse" id="color-69"><stop offset="0" stop-color="#2f2f2f"/><stop offset="1" stop-color="#252525"/></linearGradient><linearGradient x1="273.37772" y1="259.28978" x2="284.34254" y2="263.92737" gradientUnits="userSpaceOnUse" id="color-70"><stop offset="0" stop-color="#2f2f2f"/><stop offset="1" stop-color="#252525"/></linearGradient><linearGradient x1="273.61638" y1="259.30135" x2="284.41508" y2="263.86867" gradientUnits="userSpaceOnUse" id="color-71"><stop offset="0" stop-color="#2f2f2f"/><stop offset="1" stop-color="#252525"/></linearGradient><linearGradient x1="273.53332" y1="259.26623" x2="284.332" y2="263.83356" gradientUnits="userSpaceOnUse" id="color-72"><stop offset="0" stop-color="#2f2f2f"/><stop offset="1" stop-color="#252525"/></linearGradient><radialGradient cx="240.26778" cy="274.66893" r="27.62916" gradientUnits="userSpaceOnUse" id="color-73"><stop offset="0" stop-color="#696969"/><stop offset="1" stop-color="#2e2e2e"/></radialGradient><radialGradient cx="240.26778" cy="274.66893" r="27.62916" gradientUnits="userSpaceOnUse" id="color-74"><stop offset="0" stop-color="#e0e0e0"/><stop offset="1" stop-color="#7d7d7d"/></radialGradient><radialGradient cx="239.55274" cy="199.71467" r="34.5" gradientUnits="userSpaceOnUse" id="color-75"><stop offset="0" stop-color="#94c9e0"/><stop offset="1" stop-color="#41687d"/></radialGradient><radialGradient cx="240.12301" cy="221.75237" r="34.5" gradientUnits="userSpaceOnUse" id="color-76"><stop offset="0" stop-color="#b6cee0"/><stop offset="1" stop-color="#4d697d"/></radialGradient><radialGradient cx="222.14419" cy="224.78704" r="44.16667" gradientUnits="userSpaceOnUse" id="color-77"><stop offset="0" stop-color="#e19641"/><stop offset="1" stop-color="#7d4800"/></radialGradient><radialGradient cx="219.78223" cy="217.88976" r="44.16667" gradientUnits="userSpaceOnUse" id="color-78"><stop offset="0" stop-color="#e0ccb5"/><stop offset="1" stop-color="#7d694d"/></radialGradient><linearGradient x1="201.78483" y1="246.56732" x2="201.83493" y2="262.27952" gradientUnits="userSpaceOnUse" id="color-79"><stop offset="0" stop-color="#191919"/><stop offset="1" stop-color="#000000"/></linearGradient><linearGradient x1="237.91707" y1="243.75987" x2="237.96716" y2="259.47207" gradientUnits="userSpaceOnUse" id="color-80"><stop offset="0" stop-color="#191919"/><stop offset="1" stop-color="#000000"/></linearGradient><linearGradient x1="202.96964" y1="252.12352" x2="236.91166" y2="252.0153" gradientUnits="userSpaceOnUse" id="color-81"><stop offset="0" stop-color="#303030"/><stop offset="1" stop-color="#212121"/></linearGradient><radialGradient cx="214.61972" cy="247.37753" r="17.57007" gradientUnits="userSpaceOnUse" id="color-82"><stop offset="0" stop-color="#626262"/><stop offset="1" stop-color="#2e2e2e"/></radialGradient><radialGradient cx="219.05755" cy="250.26956" r="4.876" gradientUnits="userSpaceOnUse" id="color-83"><stop offset="0" stop-color="#fff67b"/><stop offset="1" stop-color="#ffd300"/></radialGradient><linearGradient x1="219.77975" y1="264.22865" x2="219.77238" y2="261.91526" gradientUnits="userSpaceOnUse" id="color-84"><stop offset="0" stop-color="#2b281f"/><stop offset="1" stop-color="#1f1c15"/></linearGradient><linearGradient x1="219.77975" y1="264.22865" x2="219.77238" y2="261.91526" gradientUnits="userSpaceOnUse" id="color-85"><stop offset="0" stop-color="#464646"/><stop offset="1" stop-color="#353535"/></linearGradient><radialGradient cx="209.69053" cy="261.75141" r="20.51445" gradientUnits="userSpaceOnUse" id="color-86"><stop offset="0" stop-color="#e8e46e"/><stop offset="1" stop-color="#b59317"/></radialGradient><linearGradient x1="219.7752" y1="262.7998" x2="219.76391" y2="259.26166" gradientUnits="userSpaceOnUse" id="color-87"><stop offset="0" stop-color="#464646"/><stop offset="1" stop-color="#353535"/></linearGradient><linearGradient x1="201.72209" y1="226.89292" x2="201.76858" y2="241.46802" gradientUnits="userSpaceOnUse" id="color-88"><stop offset="0" stop-color="#191919"/><stop offset="1" stop-color="#000000"/></linearGradient><linearGradient x1="237.86291" y1="226.7777" x2="237.90938" y2="241.35279" gradientUnits="userSpaceOnUse" id="color-89"><stop offset="0" stop-color="#191919"/><stop offset="1" stop-color="#000000"/></linearGradient><linearGradient x1="219.64428" y1="221.73982" x2="219.65165" y2="224.05321" gradientUnits="userSpaceOnUse" id="color-90"><stop offset="0" stop-color="#2b281f"/><stop offset="1" stop-color="#1f1c15"/></linearGradient><linearGradient x1="219.64428" y1="221.73982" x2="219.65165" y2="224.05321" gradientUnits="userSpaceOnUse" id="color-91"><stop offset="0" stop-color="#464646"/><stop offset="1" stop-color="#353535"/></linearGradient><linearGradient x1="202.91124" y1="233.80941" x2="236.85325" y2="233.70119" gradientUnits="userSpaceOnUse" id="color-92"><stop offset="0" stop-color="#303030"/><stop offset="1" stop-color="#212121"/></linearGradient><radialGradient cx="214.56132" cy="229.0634" r="17.57006" gradientUnits="userSpaceOnUse" id="color-93"><stop offset="0" stop-color="#626262"/><stop offset="1" stop-color="#2e2e2e"/></radialGradient><radialGradient cx="209.57104" cy="224.28136" r="20.51446" gradientUnits="userSpaceOnUse" id="color-94"><stop offset="0" stop-color="#e8e46e"/><stop offset="1" stop-color="#b59317"/></radialGradient><linearGradient x1="219.64883" y1="223.16869" x2="219.66011" y2="226.70681" gradientUnits="userSpaceOnUse" id="color-95"><stop offset="0" stop-color="#464646"/><stop offset="1" stop-color="#353535"/></linearGradient><radialGradient cx="218.99916" cy="231.95545" r="4.876" gradientUnits="userSpaceOnUse" id="color-96"><stop offset="0" stop-color="#fff67b"/><stop offset="1" stop-color="#ffd300"/></radialGradient><radialGradient cx="209.63213" cy="243.4373" r="20.51446" gradientUnits="userSpaceOnUse" id="color-97"><stop offset="0" stop-color="#e8e46e"/><stop offset="1" stop-color="#b59317"/></radialGradient><linearGradient x1="219.7168" y1="244.48568" x2="219.70553" y2="240.94755" gradientUnits="userSpaceOnUse" id="color-98"><stop offset="0" stop-color="#464646"/><stop offset="1" stop-color="#353535"/></linearGradient><linearGradient x1="242.74185" y1="246.43674" x2="242.79193" y2="262.14893" gradientUnits="userSpaceOnUse" id="color-99"><stop offset="0" stop-color="#191919"/><stop offset="1" stop-color="#000000"/></linearGradient><linearGradient x1="278.87408" y1="243.62928" x2="278.92417" y2="259.34148" gradientUnits="userSpaceOnUse" id="color-100"><stop offset="0" stop-color="#191919"/><stop offset="1" stop-color="#000000"/></linearGradient><linearGradient x1="243.92665" y1="251.99293" x2="277.86866" y2="251.88471" gradientUnits="userSpaceOnUse" id="color-101"><stop offset="0" stop-color="#303030"/><stop offset="1" stop-color="#212121"/></linearGradient><radialGradient cx="255.57673" cy="247.24693" r="17.57006" gradientUnits="userSpaceOnUse" id="color-102"><stop offset="0" stop-color="#626262"/><stop offset="1" stop-color="#2e2e2e"/></radialGradient><radialGradient cx="260.01454" cy="250.13897" r="4.876" gradientUnits="userSpaceOnUse" id="color-103"><stop offset="0" stop-color="#fff67b"/><stop offset="1" stop-color="#ffd300"/></radialGradient><linearGradient x1="260.73676" y1="264.09806" x2="260.72939" y2="261.78467" gradientUnits="userSpaceOnUse" id="color-104"><stop offset="0" stop-color="#2b281f"/><stop offset="1" stop-color="#1f1c15"/></linearGradient><linearGradient x1="260.73676" y1="264.09806" x2="260.72939" y2="261.78467" gradientUnits="userSpaceOnUse" id="color-105"><stop offset="0" stop-color="#464646"/><stop offset="1" stop-color="#353535"/></linearGradient><radialGradient cx="250.64754" cy="261.62081" r="20.51445" gradientUnits="userSpaceOnUse" id="color-106"><stop offset="0" stop-color="#e8e46e"/><stop offset="1" stop-color="#b59317"/></radialGradient><linearGradient x1="260.73221" y1="262.66921" x2="260.72093" y2="259.13107" gradientUnits="userSpaceOnUse" id="color-107"><stop offset="0" stop-color="#464646"/><stop offset="1" stop-color="#353535"/></linearGradient><linearGradient x1="242.67911" y1="226.76233" x2="242.72558" y2="241.33742" gradientUnits="userSpaceOnUse" id="color-108"><stop offset="0" stop-color="#191919"/><stop offset="1" stop-color="#000000"/></linearGradient><linearGradient x1="278.81992" y1="226.6471" x2="278.86639" y2="241.22219" gradientUnits="userSpaceOnUse" id="color-109"><stop offset="0" stop-color="#191919"/><stop offset="1" stop-color="#000000"/></linearGradient><linearGradient x1="260.60129" y1="221.60924" x2="260.60867" y2="223.92262" gradientUnits="userSpaceOnUse" id="color-110"><stop offset="0" stop-color="#2b281f"/><stop offset="1" stop-color="#1f1c15"/></linearGradient><linearGradient x1="260.60129" y1="221.60924" x2="260.60867" y2="223.92262" gradientUnits="userSpaceOnUse" id="color-111"><stop offset="0" stop-color="#464646"/><stop offset="1" stop-color="#353535"/></linearGradient><linearGradient x1="243.86826" y1="233.67882" x2="277.81025" y2="233.57059" gradientUnits="userSpaceOnUse" id="color-112"><stop offset="0" stop-color="#303030"/><stop offset="1" stop-color="#212121"/></linearGradient><radialGradient cx="255.51834" cy="228.93282" r="17.57006" gradientUnits="userSpaceOnUse" id="color-113"><stop offset="0" stop-color="#626262"/><stop offset="1" stop-color="#2e2e2e"/></radialGradient><radialGradient cx="250.52806" cy="224.15076" r="20.51446" gradientUnits="userSpaceOnUse" id="color-114"><stop offset="0" stop-color="#e8e46e"/><stop offset="1" stop-color="#b59317"/></radialGradient><linearGradient x1="260.60585" y1="223.03809" x2="260.61713" y2="226.57622" gradientUnits="userSpaceOnUse" id="color-115"><stop offset="0" stop-color="#464646"/><stop offset="1" stop-color="#353535"/></linearGradient><radialGradient cx="259.95615" cy="231.82485" r="4.876" gradientUnits="userSpaceOnUse" id="color-116"><stop offset="0" stop-color="#fff67b"/><stop offset="1" stop-color="#ffd300"/></radialGradient><radialGradient cx="250.58914" cy="243.3067" r="20.51446" gradientUnits="userSpaceOnUse" id="color-117"><stop offset="0" stop-color="#e8e46e"/><stop offset="1" stop-color="#b59317"/></radialGradient><linearGradient x1="260.67382" y1="244.35509" x2="260.66252" y2="240.81695" gradientUnits="userSpaceOnUse" id="color-118"><stop offset="0" stop-color="#464646"/><stop offset="1" stop-color="#353535"/></linearGradient><radialGradient cx="219.27572" cy="217.40216" r="45.17923" gradientUnits="userSpaceOnUse" id="color-119"><stop offset="0" stop-color="#909090"/><stop offset="1" stop-color="#5d5d5d"/></radialGradient><radialGradient cx="214.93653" cy="215.57102" r="45.17923" gradientUnits="userSpaceOnUse" id="color-120"><stop offset="0" stop-color="#181818"/><stop offset="1" stop-color="#000000"/></radialGradient><linearGradient x1="198.96718" y1="149.08104" x2="280.80801" y2="148.75781" gradientUnits="userSpaceOnUse" id="color-121"><stop offset="0" stop-color="#656565" stop-opacity="0.58031"/><stop offset="1" stop-color="#4b4b4b" stop-opacity="0.63676"/></linearGradient><linearGradient x1="198.96718" y1="149.08104" x2="280.80801" y2="148.75781" gradientUnits="userSpaceOnUse" id="color-122"><stop offset="0" stop-color="#454545"/><stop offset="1" stop-color="#000000"/></linearGradient><linearGradient x1="199.39965" y1="191.01395" x2="280.83295" y2="190.6923" gradientUnits="userSpaceOnUse" id="color-123"><stop offset="0" stop-color="#454545"/><stop offset="1" stop-color="#000000"/></linearGradient><linearGradient x1="199.29705" y1="163.09954" x2="280.73037" y2="162.77792" gradientUnits="userSpaceOnUse" id="color-124"><stop offset="0" stop-color="#454545"/><stop offset="1" stop-color="#000000"/></linearGradient><linearGradient x1="199.19446" y1="135.18516" x2="280.62778" y2="134.86351" gradientUnits="userSpaceOnUse" id="color-125"><stop offset="0" stop-color="#454545"/><stop offset="1" stop-color="#000000"/></linearGradient><linearGradient x1="199.09186" y1="107.27076" x2="280.52522" y2="106.9491" gradientUnits="userSpaceOnUse" id="color-126"><stop offset="0" stop-color="#454545"/><stop offset="1" stop-color="#000000"/></linearGradient><radialGradient cx="216.83125" cy="82.00872" r="45.17923" gradientUnits="userSpaceOnUse" id="color-127"><stop offset="0" stop-color="#909090"/><stop offset="1" stop-color="#5d5d5d"/></radialGradient><radialGradient cx="217.15289" cy="78.34103" r="45.17922" gradientUnits="userSpaceOnUse" id="color-128"><stop offset="0" stop-color="#181818"/><stop offset="1" stop-color="#000000"/></radialGradient><radialGradient cx="219.43353" cy="266.90191" r="45.17923" gradientUnits="userSpaceOnUse" id="color-129"><stop offset="0" stop-color="#909090"/><stop offset="1" stop-color="#5d5d5d"/></radialGradient><radialGradient cx="215.09434" cy="265.07076" r="45.17923" gradientUnits="userSpaceOnUse" id="color-130"><stop offset="0" stop-color="#181818"/><stop offset="1" stop-color="#000000"/></radialGradient><radialGradient cx="243.85218" cy="201.55294" r="87.70402" gradientUnits="userSpaceOnUse" id="color-131"><stop offset="0" stop-color="#c3f1f7" stop-opacity="0.51765"/><stop offset="1" stop-color="#c3f1f7" stop-opacity="0"/></radialGradient><radialGradient cx="217.79104" cy="208.11869" r="44.91388" gradientUnits="userSpaceOnUse" id="color-132"><stop offset="0" stop-color="#181818"/><stop offset="1" stop-color="#000000"/></radialGradient><radialGradient cx="240" cy="208.67395" r="57.70588" gradientUnits="userSpaceOnUse" id="color-133"><stop offset="0" stop-color="#c9f9ff" stop-opacity="0.5098"/><stop offset="1" stop-color="#c9f9ff" stop-opacity="0"/></radialGradient><radialGradient cx="240" cy="208.67395" r="57.70588" gradientUnits="userSpaceOnUse" id="color-134"><stop offset="0" stop-color="#000000" stop-opacity="0"/><stop offset="1" stop-color="#000000" stop-opacity="0"/></radialGradient></defs><g transform="translate(-178.50204,-77.65062)"><g data-paper-data="{&quot;isPaintingLayer&quot;:true}" fill-rule="nonzero" stroke-linejoin="miter" stroke-miterlimit="10" stroke-dasharray="" stroke-dashoffset="0" style="mix-blend-mode: normal"><g data-paper-data="{&quot;index&quot;:null}" fill="none" stroke-width="2.5"><path d="M191.99308,111.35663l4.99171,-12.8774l11.04237,4.49786l-4.99171,12.8774z" stroke="url(#color-1)" stroke-linecap="butt"/><path d="M196.84193,98.7228l6.02598,16.93919" stroke="url(#color-2)" stroke-linecap="round"/><path d="M207.87196,103.00262l-15.86675,8.4477" stroke="url(#color-3)" stroke-linecap="round"/><path d="M179.95256,185.17164l-0.1393,-14.34792l12.28897,-0.08849l0.1393,14.34792z" stroke="url(#color-4)" stroke-linecap="butt"/><path d="M192.00761,184.96526l-12.2381,-13.85081" stroke="url(#color-5)" stroke-linecap="round"/><path d="M179.99993,185.25672l11.96346,-14.43507" stroke="url(#color-6)" stroke-linecap="round"/><path d="M179.79475,170.52829l0.50116,-14.33759l12.28174,0.48444l-0.50117,14.33759z" stroke="url(#color-7)" stroke-linecap="butt"/><path d="M191.84805,170.88407l-11.60881,-14.40504" stroke="url(#color-8)" stroke-linecap="round"/><path d="M192.4351,156.75497l-12.59683,13.8605" stroke="url(#color-9)" stroke-linecap="round"/><path d="M180.58409,154.8518l2.46701,-14.11773l12.09836,2.24245l-2.46701,14.11773z" stroke="url(#color-10)" stroke-linecap="butt"/><path d="M182.95535,141.01129l9.51854,15.92283" stroke="url(#color-11)" stroke-linecap="round"/><path d="M194.99729,143.03507l-14.38205,11.90923" stroke="url(#color-12)" stroke-linecap="round"/><path d="M183.30246,140.14248l3.56624,-13.86713l11.88649,3.22518l-3.56623,13.86713z" stroke="url(#color-13)" stroke-linecap="butt"/><path d="M186.75148,126.54378l8.24205,16.64723" stroke="url(#color-14)" stroke-linecap="round"/><path d="M198.59887,129.54641l-15.27263,10.69084" stroke="url(#color-15)" stroke-linecap="round"/><path d="M187.15766,125.44458l4.25258,-13.66169l11.71225,3.83864l-4.25259,13.66169z" stroke="url(#color-16)" stroke-linecap="butt"/><path d="M198.68354,129.09668l-7.40373,-17.05184" stroke="url(#color-17)" stroke-linecap="round"/><path d="M202.9641,115.65923l-15.78737,9.8812" stroke="url(#color-18)" stroke-linecap="round"/><path d="M192.23627,184.80665l0.40582,14.34341l-12.28443,0.32692l-0.40581,-14.34342z" stroke="url(#color-19)" stroke-linecap="butt"/><path d="M180.3029,199.18793l11.70409,-14.25554" stroke="url(#color-20)" stroke-linecap="round"/><path d="M192.50007,199.06839l-12.50411,-14.02145" stroke="url(#color-21)" stroke-linecap="round"/><path d="M192.60583,198.87362l1.04549,14.31145l-12.25545,0.89922l-1.04549,-14.31145z" stroke="url(#color-22)" stroke-linecap="butt"/><path d="M181.32829,213.79807l11.05414,-14.78815" stroke="url(#color-23)" stroke-linecap="round"/><path d="M193.50584,213.1101l-13.11525,-13.42585" stroke="url(#color-24)" stroke-linecap="round"/><path d="M193.74012,212.76269l3.0017,14.02528l-12.00541,2.64992l-3.00169,-14.02528z" stroke="url(#color-25)" stroke-linecap="butt"/><path d="M184.63019,229.16407l8.90758,-16.23431" stroke="url(#color-26)" stroke-linecap="round"/><path d="M181.76233,215.31909l14.8252,11.4155" stroke="url(#color-27)" stroke-linecap="round"/><path d="M196.76642,226.39575l4.09071,13.7377l-11.75635,3.62484l-4.09071,-13.7377z" stroke="url(#color-28)" stroke-linecap="butt"/><path d="M188.97348,243.49399l7.60439,-16.91511" stroke="url(#color-29)" stroke-linecap="round"/><path d="M185.03026,229.92508l15.66893,10.16778" stroke="url(#color-30)" stroke-linecap="round"/><path d="M200.98006,240.34673l4.76882,13.50919l-11.55891,4.23203l-4.76882,-13.50919z" stroke="url(#color-31)" stroke-linecap="butt"/><path d="M194.04967,257.83057l6.75121,-17.29112" stroke="url(#color-32)" stroke-linecap="round"/><path d="M205.58915,253.82357l-16.1526,-9.34127" stroke="url(#color-33)" stroke-linecap="round"/><path d="M205.65304,253.62605l5.47767,12.70042l-10.86441,4.86819l-5.47767,-12.70043z" stroke="url(#color-34)" stroke-linecap="butt"/><path d="M200.11427,270.95606l5.37865,-17.13199" stroke="url(#color-35)" stroke-linecap="round"/><path d="M194.79716,258.40019l16.17748,7.90601" stroke="url(#color-36)" stroke-linecap="round"/></g><g fill="none" stroke-width="2.5"><path d="M275.68846,115.08703l-5.26262,-12.76908l10.94489,-4.73012l5.26262,12.76908z" stroke="url(#color-37)" stroke-linecap="butt"/><path d="M281.51869,97.82832l-5.66681,17.06271" stroke="url(#color-38)" stroke-linecap="round"/><path d="M286.62323,110.45083l-16.04168,-8.11064" stroke="url(#color-39)" stroke-linecap="round"/><path d="M287.94238,184.07222l-0.16381,-14.34766l12.2881,-0.17113l0.16381,14.34766z" stroke="url(#color-40)" stroke-linecap="butt"/><path d="M300.11653,169.84316l-11.94277,14.10625" stroke="url(#color-41)" stroke-linecap="round"/><path d="M287.91918,169.80803l12.26573,14.17913" stroke="url(#color-42)" stroke-linecap="round"/><path d="M287.81016,170.00146l-0.80393,-14.32381l12.26877,-0.74377l0.80392,14.32381z" stroke="url(#color-43)" stroke-linecap="butt"/><path d="M288.03582,169.86801l11.30192,-14.64706" stroke="url(#color-44)" stroke-linecap="round"/><path d="M300.03726,169.34577l-12.88681,-13.59131" stroke="url(#color-45)" stroke-linecap="round"/><path d="M286.91031,156.09888l-2.76468,-14.06246l12.04829,-2.49752l2.76468,14.06246z" stroke="url(#color-46)" stroke-linecap="butt"/><path d="M287.11543,155.93438l9.18006,-16.12035" stroke="url(#color-47)" stroke-linecap="round"/><path d="M298.9294,153.69451l-14.63041,-11.60276" stroke="url(#color-48)" stroke-linecap="round"/><path d="M284.11441,142.4283l-3.85837,-13.7887l11.81571,-3.47555l3.85837,13.7887z" stroke="url(#color-49)" stroke-linecap="butt"/><path d="M284.30605,142.24757l7.88856,-16.81762" stroke="url(#color-50)" stroke-linecap="round"/><path d="M280.41329,128.68217l15.49506,10.36583" stroke="url(#color-51)" stroke-linecap="round"/><path d="M280.13674,128.42477l-4.54023,-13.56881l11.62855,-4.0852l4.54024,13.56881z" stroke="url(#color-52)" stroke-linecap="butt"/><path d="M280.31912,128.23433l7.04187,-17.20443" stroke="url(#color-53)" stroke-linecap="round"/><path d="M275.75566,114.89031l15.99259,9.5455" stroke="url(#color-54)" stroke-linecap="round"/><path d="M300.23039,183.86301l-0.10272,14.3488l-12.28861,-0.06734l0.10273,-14.34879z" stroke="url(#color-55)" stroke-linecap="butt"/><path d="M300.17629,197.92166l-12.00262,-14.00512" stroke="url(#color-56)" stroke-linecap="round"/><path d="M300.18445,183.77734l-12.20513,14.28247" stroke="url(#color-57)" stroke-linecap="round"/><path d="M300.14119,198.50745l-0.74293,14.33034l-12.27171,-0.64013l0.74293,-14.33034z" stroke="url(#color-58)" stroke-linecap="butt"/><path d="M288.0957,197.99886l11.36408,14.55134" stroke="url(#color-59)" stroke-linecap="round"/><path d="M287.27041,212.11963l12.8287,-13.6999" stroke="url(#color-60)" stroke-linecap="round"/><path d="M299.08754,214.17297l-2.70475,14.08556l-12.05871,-2.39572l2.70476,-14.08556z" stroke="url(#color-61)" stroke-linecap="butt"/><path d="M296.4832,227.98253l-9.24853,-16.04252" stroke="url(#color-62)" stroke-linecap="round"/><path d="M284.47721,225.80618l14.58075,-11.72613" stroke="url(#color-63)" stroke-linecap="round"/><path d="M296.12151,228.84687l-3.7996,13.82105l-11.83029,-3.37569l3.79958,-13.82105z" stroke="url(#color-64)" stroke-linecap="butt"/><path d="M284.48359,225.6503l7.96002,16.75069" stroke="url(#color-65)" stroke-linecap="round"/><path d="M280.64866,239.24833l15.45065,-10.49651" stroke="url(#color-66)" stroke-linecap="round"/><path d="M292.01895,243.49498l-4.48238,13.60692l-11.64574,-3.98691l4.48238,-13.60692z" stroke="url(#color-67)" stroke-linecap="butt"/><path d="M287.6714,256.84161l-7.11497,-17.14464" stroke="url(#color-68)" stroke-linecap="round"/><path d="M276.04985,253.07927l15.95167,-9.6804" stroke="url(#color-69)" stroke-linecap="round"/><path d="M286.94663,257.52073l-5.20816,12.81331l-10.96483,-4.6376l5.20816,-12.8133z" stroke="url(#color-70)" stroke-linecap="butt"/><path d="M281.88541,270.09228l-5.73935,-17.01455" stroke="url(#color-71)" stroke-linecap="round"/><path d="M286.9361,257.42689l-16.00686,8.24599" stroke="url(#color-72)" stroke-linecap="round"/></g><path d="M283.59821,274.27723c-0.12378,4.926 -19.62384,9.09469 -43.55457,9.31102c-23.93073,0.21633 -43.23007,-3.60161 -43.1063,-8.52762c0.12378,-4.926 19.62383,-9.09469 43.55456,-9.31103c23.93073,-0.21633 43.23009,3.60161 43.10631,8.52762z" fill="url(#color-73)" stroke="url(#color-74)" stroke-width="1.5" stroke-linecap="butt"/><path d="M274.62285,221.64238c0.05607,17.58098 -15.34459,31.88243 -34.39832,31.94317c-19.05373,0.06074 -34.54527,-14.14217 -34.60133,-31.72316c-0.05606,-17.58097 15.34459,-31.88243 34.39832,-31.94317c19.05374,-0.06075 34.54527,14.14218 34.60133,31.72316z" fill="url(#color-75)" stroke="url(#color-76)" stroke-width="1.5" stroke-linecap="butt"/><path d="M196.09687,265.89298l-0.15411,-48.3331l88.33289,-0.28165l0.15411,48.33309z" fill="url(#color-77)" stroke="url(#color-78)" stroke-width="1.5" stroke-linecap="butt"/><path d="M201.79125,262.27965l0.02876,-18.37635" fill="none" stroke="url(#color-79)" stroke-width="0.5" stroke-linecap="round"/><path d="M237.92349,259.47221l0.03725,-15.71247" fill="none" stroke="url(#color-80)" stroke-width="0.5" stroke-linecap="round"/><path d="M202.99312,259.48646l-0.04695,-14.72588l33.942,-0.10823l0.04695,14.72589z" fill="url(#color-81)" stroke="none" stroke-width="0.5" stroke-linecap="butt"/><path d="M202.29075,258.37134l-0.03927,-12.31657l35.13996,-0.11205l0.03927,12.31658z" fill="url(#color-82)" stroke="none" stroke-width="0.5" stroke-linecap="butt"/><path d="M220.51814,247.13445l-2.49249,5.5525l3.33963,-1.07647l-2.49249,5.55252" fill="none" stroke="url(#color-83)" stroke-width="1.5" stroke-linecap="round"/><path d="M239.98055,261.85082l0.00739,2.3134l-40.41634,0.12887l-0.00739,-2.3134z" data-paper-data="{&quot;index&quot;:null}" fill="url(#color-84)" stroke="url(#color-85)" stroke-width="0.5" stroke-linecap="butt"/><path d="M240.27827,259.19625l0.01128,3.53813l-41.02871,0.13081l-0.01128,-3.53813z" data-paper-data="{&quot;index&quot;:null}" fill="url(#color-86)" stroke="url(#color-87)" stroke-width="0.5" stroke-linecap="butt"/><path d="M201.76576,226.89279l-0.04088,14.57536" fill="none" stroke="url(#color-88)" stroke-width="0.5" stroke-linecap="round"/><path d="M237.9066,226.77756l-0.04089,14.57537" fill="none" stroke="url(#color-89)" stroke-width="0.5" stroke-linecap="round"/><path d="M199.44348,224.11764l-0.00738,-2.31339l40.41634,-0.12887l0.00739,2.31339z" fill="url(#color-90)" stroke="url(#color-91)" stroke-width="0.5" stroke-linecap="butt"/><path d="M202.93473,241.17236l-0.04695,-14.72588l33.942,-0.10823l0.04696,14.72588z" fill="url(#color-92)" stroke="none" stroke-width="0.5" stroke-linecap="butt"/><path d="M202.23235,240.05722l-0.03928,-12.31658l35.13997,-0.11204l0.03928,12.31658z" fill="url(#color-93)" stroke="none" stroke-width="0.5" stroke-linecap="butt"/><path d="M199.14575,226.77223l-0.01128,-3.53813l41.02872,-0.13083l0.01128,3.53813z" fill="url(#color-94)" stroke="url(#color-95)" stroke-width="0.5" stroke-linecap="butt"/><path d="M220.45974,228.82033l-2.49249,5.5525l3.33963,-1.07646l-2.49249,5.5525" fill="none" stroke="url(#color-96)" stroke-width="1.5" stroke-linecap="round"/><path d="M240.21988,240.88215l0.01128,3.53813l-41.02871,0.13081l-0.01128,-3.53813z" data-paper-data="{&quot;index&quot;:null}" fill="url(#color-97)" stroke="url(#color-98)" stroke-width="0.5" stroke-linecap="butt"/><path d="M242.74826,262.14907l0.02876,-18.37634" fill="none" stroke="url(#color-99)" stroke-width="0.5" stroke-linecap="round"/><path d="M278.91773,243.62915l-0.03725,15.71247" fill="none" stroke="url(#color-100)" stroke-width="0.5" stroke-linecap="round"/><path d="M243.95013,259.35586l-0.04694,-14.72588l33.942,-0.10823l0.04695,14.72588z" fill="url(#color-101)" stroke="none" stroke-width="0.5" stroke-linecap="butt"/><path d="M243.24777,258.24075l-0.03928,-12.31658l35.13995,-0.11204l0.03928,12.31657z" fill="url(#color-102)" stroke="none" stroke-width="0.5" stroke-linecap="butt"/><path d="M261.47515,247.00385l-2.49249,5.55249l3.33961,-1.07646l-2.49249,5.5525" fill="none" stroke="url(#color-103)" stroke-width="1.5" stroke-linecap="round"/><path d="M280.93756,261.72024l0.00739,2.31339l-40.41634,0.12888l-0.00739,-2.31339z" data-paper-data="{&quot;index&quot;:null}" fill="url(#color-104)" stroke="url(#color-105)" stroke-width="0.5" stroke-linecap="butt"/><path d="M281.23528,259.06565l0.01128,3.53813l-41.02871,0.13081l-0.01128,-3.53812z" data-paper-data="{&quot;index&quot;:null}" fill="url(#color-106)" stroke="url(#color-107)" stroke-width="0.5" stroke-linecap="butt"/><path d="M242.68191,241.33756l0.04088,-14.57537" fill="none" stroke="url(#color-108)" stroke-width="0.5" stroke-linecap="round"/><path d="M278.82271,241.22233l0.04088,-14.57537" fill="none" stroke="url(#color-109)" stroke-width="0.5" stroke-linecap="round"/><path d="M240.40049,223.98705l-0.00739,-2.31339l40.41635,-0.12886l0.00738,2.31339z" fill="url(#color-110)" stroke="url(#color-111)" stroke-width="0.5" stroke-linecap="butt"/><path d="M243.89174,241.04176l-0.04696,-14.72588l33.94201,-0.10823l0.04694,14.72588z" fill="url(#color-112)" stroke="none" stroke-width="0.5" stroke-linecap="butt"/><path d="M243.18937,239.92664l-0.03927,-12.31657l35.13997,-0.11205l0.03928,12.31658z" fill="url(#color-113)" stroke="none" stroke-width="0.5" stroke-linecap="butt"/><path d="M240.10277,226.64163l-0.01128,-3.53814l41.02872,-0.13081l0.01128,3.53812z" fill="url(#color-114)" stroke="url(#color-115)" stroke-width="0.5" stroke-linecap="butt"/><path d="M259.7714,238.71827l2.49249,-5.5525l-3.33962,1.07647l2.49249,-5.5525" fill="none" stroke="url(#color-116)" stroke-width="1.5" stroke-linecap="round"/><path d="M281.17688,240.75155l0.01128,3.53813l-41.02871,0.13081l-0.01128,-3.53813z" data-paper-data="{&quot;index&quot;:null}" fill="url(#color-117)" stroke="url(#color-118)" stroke-width="0.5" stroke-linecap="butt"/><path d="M194.94289,221.53468l-0.02085,-6.53938l90.358,-0.2881l0.02085,6.53937z" fill="url(#color-119)" stroke="url(#color-120)" stroke-width="1.5" stroke-linecap="butt"/><path d="M281.04882,214.27968l-81.84083,0.32324l-0.48158,-131.04374l81.84083,-0.32324z" fill="url(#color-121)" stroke="url(#color-122)" stroke-width="2" stroke-linecap="butt"/><path d="M199.39962,191.01394l81.43333,-0.32164" fill="none" stroke="url(#color-123)" stroke-width="2" stroke-linecap="round"/><path d="M280.73037,162.77792l-81.43332,0.32163" fill="none" stroke="url(#color-124)" stroke-width="2" stroke-linecap="round"/><path d="M199.19447,135.18513l81.43332,-0.32163" fill="none" stroke="url(#color-125)" stroke-width="2" stroke-linecap="round"/><path d="M199.0919,107.27075l81.43332,-0.32163" fill="none" stroke="url(#color-126)" stroke-width="2" stroke-linecap="round"/><path d="M239.64842,83.83434l0.47838,130.17012" fill="none" stroke="#232323" stroke-width="2" stroke-linecap="round"/><path d="M194.49551,85.23048l-0.02085,-6.53937l90.35799,-0.28811l0.02085,6.53937z" fill="url(#color-127)" stroke="url(#color-128)" stroke-width="1.5" stroke-linecap="butt"/><path d="M195.10071,271.03442l-0.02085,-6.53938l90.35799,-0.28811l0.02085,6.53937z" fill="url(#color-129)" stroke="url(#color-130)" stroke-width="1.5" stroke-linecap="butt"/><path d="M195.51838,215.03679l1.67035,-119.24823l85.87284,-0.78877l1.31436,119.63462z" fill="url(#color-131)" stroke="url(#color-132)" stroke-width="0" stroke-linecap="butt"/><path d="M272.50405,164.92768c23.93875,17.7868 28.79237,51.79172 10.84088,75.95213c-17.95149,24.1604 -51.91024,29.32723 -75.84899,11.54042c-23.93875,-17.7868 -28.79237,-51.79172 -10.84088,-75.95213c17.95149,-24.1604 51.91024,-29.32723 75.84899,-11.54042z" fill="url(#color-133)" stroke="url(#color-134)" stroke-width="0" stroke-linecap="butt"/></g></g></svg>