<svg version="1.1" xmlns="http://www.w3.org/2000/svg" xmlns:xlink="http://www.w3.org/1999/xlink" width="59" height="59.70662" viewBox="0,0,59,59.70662"><defs><linearGradient x1="240" y1="151.64671" x2="240" y2="208.35333" gradientUnits="userSpaceOnUse" id="color-1"><stop offset="0" stop-color="#191919"/><stop offset="1" stop-color="#050505"/></linearGradient><linearGradient x1="240" y1="151.64671" x2="240" y2="208.35333" gradientUnits="userSpaceOnUse" id="color-2"><stop offset="0" stop-color="#cccccc"/><stop offset="1" stop-color="#898989"/></linearGradient><radialGradient cx="240" cy="180.00002" r="26.8571" gradientUnits="userSpaceOnUse" id="color-3"><stop offset="0" stop-color="#ffffff" stop-opacity="0.35484"/><stop offset="1" stop-color="#ffffff" stop-opacity="0"/></radialGradient><linearGradient x1="240" y1="153.29213" x2="240" y2="206.70791" gradientUnits="userSpaceOnUse" id="color-4"><stop offset="0" stop-color="#cccccc"/><stop offset="1" stop-color="#898989"/></linearGradient><linearGradient x1="243.35227" y1="196.39537" x2="244.53814" y2="196.39537" gradientUnits="userSpaceOnUse" id="color-5"><stop offset="0" stop-color="#525252"/><stop offset="1" stop-color="#363636"/></linearGradient><linearGradient x1="243.35227" y1="196.39537" x2="244.53814" y2="196.39537" gradientUnits="userSpaceOnUse" id="color-6"><stop offset="0" stop-color="#1f1f1f"/><stop offset="1" stop-color="#000000"/></linearGradient><linearGradient x1="232.50654" y1="197.60022" x2="247.14031" y2="197.60022" gradientUnits="userSpaceOnUse" id="color-7"><stop offset="0" stop-color="#2f2f2f"/><stop offset="1" stop-color="#040404"/></linearGradient><linearGradient x1="232.50654" y1="197.60022" x2="247.14031" y2="197.60022" gradientUnits="userSpaceOnUse" id="color-8"><stop offset="0" stop-color="#1f1f1f"/><stop offset="1" stop-color="#000000"/></linearGradient><linearGradient x1="237.51417" y1="193.58275" x2="242.16641" y2="193.58275" gradientUnits="userSpaceOnUse" id="color-9"><stop offset="0" stop-color="#444444"/><stop offset="1" stop-color="#252525"/></linearGradient><linearGradient x1="236.00903" y1="196.56351" x2="243.4891" y2="196.56351" gradientUnits="userSpaceOnUse" id="color-10"><stop offset="0" stop-color="#444444"/><stop offset="1" stop-color="#252525"/></linearGradient><linearGradient x1="234.74641" y1="199.85405" x2="244.78844" y2="199.85405" gradientUnits="userSpaceOnUse" id="color-11"><stop offset="0" stop-color="#444444"/><stop offset="1" stop-color="#252525"/></linearGradient><linearGradient x1="233.40925" y1="203.13137" x2="246.1801" y2="203.13137" gradientUnits="userSpaceOnUse" id="color-12"><stop offset="0" stop-color="#444444"/><stop offset="1" stop-color="#252525"/></linearGradient><linearGradient x1="242.21153" y1="192.50732" x2="245.90665" y2="192.50732" gradientUnits="userSpaceOnUse" id="color-13"><stop offset="0" stop-color="#b2b2b2"/><stop offset="1" stop-color="#363636"/></linearGradient><linearGradient x1="242.21153" y1="192.50732" x2="245.90665" y2="192.50732" gradientUnits="userSpaceOnUse" id="color-14"><stop offset="0" stop-color="#1f1f1f"/><stop offset="1" stop-color="#000000"/></linearGradient><linearGradient x1="232.72262" y1="162.40899" x2="247.35638" y2="162.40899" gradientUnits="userSpaceOnUse" id="color-15"><stop offset="0" stop-color="#89959f"/><stop offset="1" stop-color="#2a3542"/></linearGradient><linearGradient x1="232.72262" y1="162.40438" x2="247.35639" y2="162.40438" gradientUnits="userSpaceOnUse" id="color-16"><stop offset="0" stop-color="#272727"/><stop offset="1" stop-color="#000000"/></linearGradient><linearGradient x1="236.37144" y1="156.04286" x2="243.59355" y2="156.04286" gradientUnits="userSpaceOnUse" id="color-17"><stop offset="0" stop-color="#f1f5f8"/><stop offset="1" stop-color="#6d7680"/></linearGradient><linearGradient x1="236.37144" y1="156.04227" x2="243.59355" y2="156.04227" gradientUnits="userSpaceOnUse" id="color-18"><stop offset="0" stop-color="#272727"/><stop offset="1" stop-color="#000000"/></linearGradient><linearGradient x1="234.72498" y1="159.76129" x2="245.48528" y2="159.76129" gradientUnits="userSpaceOnUse" id="color-19"><stop offset="0" stop-color="#3b4145"/><stop offset="1" stop-color="#171e25"/></linearGradient><linearGradient x1="247.21154" y1="187.48646" x2="254.46498" y2="187.48646" gradientUnits="userSpaceOnUse" id="color-20"><stop offset="0" stop-color="#2c2f36"/><stop offset="1" stop-color="#191d1f"/></linearGradient><linearGradient x1="247.21154" y1="187.73565" x2="252.17279" y2="187.73565" gradientUnits="userSpaceOnUse" id="color-21"><stop offset="0" stop-color="#272727"/><stop offset="1" stop-color="#000000"/></linearGradient><linearGradient x1="232.78846" y1="187.41046" x2="225.53502" y2="187.41046" gradientUnits="userSpaceOnUse" id="color-22"><stop offset="0" stop-color="#575e6b"/><stop offset="1" stop-color="#696d82"/></linearGradient><linearGradient x1="227.82721" y1="187.65963" x2="232.78846" y2="187.65963" gradientUnits="userSpaceOnUse" id="color-23"><stop offset="0" stop-color="#272727"/><stop offset="1" stop-color="#000000"/></linearGradient><linearGradient x1="232.76831" y1="181.61628" x2="247.2289" y2="181.61628" gradientUnits="userSpaceOnUse" id="color-24"><stop offset="0" stop-color="#535863"/><stop offset="1" stop-color="#1a1b21"/></linearGradient><linearGradient x1="232.76831" y1="181.61628" x2="247.2289" y2="181.61628" gradientUnits="userSpaceOnUse" id="color-25"><stop offset="0" stop-color="#272727"/><stop offset="1" stop-color="#000000"/></linearGradient><linearGradient x1="240.51552" y1="182.22665" x2="246.18747" y2="182.22665" gradientUnits="userSpaceOnUse" id="color-26"><stop offset="0" stop-color="#4a382c"/><stop offset="1" stop-color="#301f1b"/></linearGradient><linearGradient x1="240.51552" y1="182.22665" x2="246.18747" y2="182.22665" gradientUnits="userSpaceOnUse" id="color-27"><stop offset="0" stop-color="#351c12"/><stop offset="1" stop-color="#1a1310"/></linearGradient><linearGradient x1="240.50026" y1="182.22879" x2="246.1591" y2="182.22879" gradientUnits="userSpaceOnUse" id="color-28"><stop offset="0" stop-color="#351c12"/><stop offset="1" stop-color="#1a1310"/></linearGradient><linearGradient x1="240.50026" y1="182.18569" x2="246.1591" y2="182.18569" gradientUnits="userSpaceOnUse" id="color-29"><stop offset="0" stop-color="#351c12"/><stop offset="1" stop-color="#1a1310"/></linearGradient><linearGradient x1="233.7364" y1="182.25537" x2="239.40836" y2="182.25537" gradientUnits="userSpaceOnUse" id="color-30"><stop offset="0" stop-color="#4a382c"/><stop offset="1" stop-color="#301f1b"/></linearGradient><linearGradient x1="233.7364" y1="182.25537" x2="239.40836" y2="182.25537" gradientUnits="userSpaceOnUse" id="color-31"><stop offset="0" stop-color="#351c12"/><stop offset="1" stop-color="#1a1310"/></linearGradient><linearGradient x1="233.72115" y1="182.2575" x2="239.37998" y2="182.2575" gradientUnits="userSpaceOnUse" id="color-32"><stop offset="0" stop-color="#351c12"/><stop offset="1" stop-color="#1a1310"/></linearGradient><linearGradient x1="233.72115" y1="182.21441" x2="239.37998" y2="182.21441" gradientUnits="userSpaceOnUse" id="color-33"><stop offset="0" stop-color="#351c12"/><stop offset="1" stop-color="#1a1310"/></linearGradient><linearGradient x1="240.51552" y1="189.06818" x2="246.18747" y2="189.06818" gradientUnits="userSpaceOnUse" id="color-34"><stop offset="0" stop-color="#4a382c"/><stop offset="1" stop-color="#301f1b"/></linearGradient><linearGradient x1="240.51552" y1="189.06818" x2="246.18747" y2="189.06818" gradientUnits="userSpaceOnUse" id="color-35"><stop offset="0" stop-color="#351c12"/><stop offset="1" stop-color="#1a1310"/></linearGradient><linearGradient x1="240.50026" y1="189.07031" x2="246.1591" y2="189.07031" gradientUnits="userSpaceOnUse" id="color-36"><stop offset="0" stop-color="#351c12"/><stop offset="1" stop-color="#1a1310"/></linearGradient><linearGradient x1="240.50026" y1="189.02723" x2="246.1591" y2="189.02723" gradientUnits="userSpaceOnUse" id="color-37"><stop offset="0" stop-color="#351c12"/><stop offset="1" stop-color="#1a1310"/></linearGradient><linearGradient x1="233.7364" y1="189.0969" x2="239.40836" y2="189.0969" gradientUnits="userSpaceOnUse" id="color-38"><stop offset="0" stop-color="#4a382c"/><stop offset="1" stop-color="#301f1b"/></linearGradient><linearGradient x1="233.7364" y1="189.0969" x2="239.40836" y2="189.0969" gradientUnits="userSpaceOnUse" id="color-39"><stop offset="0" stop-color="#351c12"/><stop offset="1" stop-color="#1a1310"/></linearGradient><linearGradient x1="233.72115" y1="189.09904" x2="239.37998" y2="189.09904" gradientUnits="userSpaceOnUse" id="color-40"><stop offset="0" stop-color="#351c12"/><stop offset="1" stop-color="#1a1310"/></linearGradient><linearGradient x1="233.72115" y1="189.05594" x2="239.37998" y2="189.05594" gradientUnits="userSpaceOnUse" id="color-41"><stop offset="0" stop-color="#351c12"/><stop offset="1" stop-color="#1a1310"/></linearGradient><linearGradient x1="233.50047" y1="174.44167" x2="246.40815" y2="174.44167" gradientUnits="userSpaceOnUse" id="color-42"><stop offset="0" stop-color="#515151"/><stop offset="1" stop-color="#131313"/></linearGradient><linearGradient x1="233.50047" y1="174.44167" x2="246.40815" y2="174.44167" gradientUnits="userSpaceOnUse" id="color-43"><stop offset="0" stop-color="#272727"/><stop offset="1" stop-color="#000000"/></linearGradient><linearGradient x1="234.17274" y1="171.63303" x2="245.64624" y2="171.63303" gradientUnits="userSpaceOnUse" id="color-44"><stop offset="0" stop-color="#272727"/><stop offset="1" stop-color="#000000"/></linearGradient><linearGradient x1="234.21756" y1="177.29191" x2="245.51179" y2="177.29191" gradientUnits="userSpaceOnUse" id="color-45"><stop offset="0" stop-color="#272727"/><stop offset="1" stop-color="#000000"/></linearGradient></defs><g transform="translate(-210.5,-150.1467)"><g data-paper-data="{&quot;isPaintingLayer&quot;:true}" fill-rule="nonzero" stroke-linejoin="miter" stroke-miterlimit="10" stroke-dasharray="" stroke-dashoffset="0" style="mix-blend-mode: normal"><path d="M212,208.35333v-56.70662h56v56.70662z" fill="url(#color-1)" stroke="url(#color-2)" stroke-width="3" stroke-linecap="butt"/><path d="M266.8571,180.00002c0,14.75036 -12.02433,26.70789 -26.8571,26.70789c-14.83277,0 -26.8571,-11.95753 -26.8571,-26.70789c0,-14.75036 12.02433,-26.70789 26.8571,-26.70789c14.83277,0 26.8571,11.95753 26.8571,26.70789z" fill="url(#color-3)" stroke="url(#color-4)" stroke-width="0" stroke-linecap="butt"/><g stroke-width="0.5"><path d="M243.35227,198.3566v-3.92248h1.18586v3.92248z" fill="url(#color-5)" stroke="url(#color-6)" stroke-linecap="butt"/><path d="M232.50654,204.9174c0,0 5.46417,-14.74107 7.31788,-14.63377c2.12061,0.12275 7.31588,14.63377 7.31588,14.63377z" fill="url(#color-7)" stroke="url(#color-8)" stroke-linecap="butt"/><path d="M237.51417,193.58275h4.65224" fill="none" stroke="url(#color-9)" stroke-linecap="round"/><path d="M243.4891,196.56351h-7.48007" fill="none" stroke="url(#color-10)" stroke-linecap="round"/><path d="M234.74641,199.85405h10.04203" fill="none" stroke="url(#color-11)" stroke-linecap="round"/><path d="M246.1801,203.13137h-12.77085" fill="none" stroke="url(#color-12)" stroke-linecap="round"/><path d="M245.90665,192.50732c-0.01383,1.73741 -0.0576,1.92331 -1.84756,1.9049c-1.79053,-0.01842 -1.86977,-0.25385 -1.84756,-1.9049c0.02452,-1.82286 0.01931,-1.94957 1.84756,-1.9049c1.75171,0.04281 1.86275,-0.00296 1.84756,1.9049z" fill="url(#color-13)" stroke="url(#color-14)" stroke-linecap="butt"/></g><path d="M232.72262,169.72615c0,0 0.94116,-14.96912 7.24187,-14.63377c6.33956,-0.44737 7.3919,14.63377 7.3919,14.63377z" fill="url(#color-15)" stroke="url(#color-16)" stroke-width="0.5" stroke-linecap="butt"/><path d="M236.37144,156.96864c0,0 0.46448,-1.89392 3.57403,-1.85149c3.12872,-0.0566 3.64808,1.85149 3.64808,1.85149z" fill="url(#color-17)" stroke="url(#color-18)" stroke-width="0.5" stroke-linecap="butt"/><path d="M234.35714,161.60896c0,0 0.17852,-0.57894 0.44077,-1.26789c0.30776,-0.8085 0.81755,-1.76852 2.57909,-2.12223c0.06834,-0.01372 1.35233,-0.21477 1.35233,-0.21477l2.79336,0.00861c0,0 0.96563,0.06893 1.02233,0.08237c1.66709,0.39519 2.29312,1.38752 2.64356,2.21722c0.29881,0.70746 0.48062,1.29669 0.48062,1.29669z" data-paper-data="{&quot;index&quot;:null}" fill="url(#color-19)" stroke="#000000" stroke-width="0.5" stroke-linecap="butt"/><path d="M237.33776,159.89434c0,-0.711 0.57638,-1.28738 1.28738,-1.28738c0.711,0 1.28738,0.57638 1.28738,1.28738c0,0.711 -0.57638,1.28738 -1.28738,1.28738c-0.711,0 -1.28738,-0.57638 -1.28738,-1.28738z" fill="#ff0000" stroke="none" stroke-width="0.5" stroke-linecap="butt"/><path d="M240.31346,159.92254c0,-0.711 0.57638,-1.28738 1.28738,-1.28738c0.711,0 1.28738,0.57638 1.28738,1.28738c0,0.711 -0.57638,1.28738 -1.28738,1.28738c-0.711,0 -1.28738,-0.57638 -1.28738,-1.28738z" fill="#4bff00" stroke="none" stroke-width="0.5" stroke-linecap="butt"/><path d="M247.21154,193.4369v-14.78949c0,0 1.86115,9.92787 2.51186,12.32488c0.51482,1.89646 2.44939,5.85162 2.44939,5.85162z" fill="url(#color-20)" stroke="url(#color-21)" stroke-width="0.5" stroke-linecap="butt"/><path d="M227.82721,196.74789c0,0 1.93457,-3.95516 2.44939,-5.85162c0.6507,-2.39702 2.51186,-12.32488 2.51186,-12.32488v14.78949z" data-paper-data="{&quot;index&quot;:null}" fill="url(#color-22)" stroke="url(#color-23)" stroke-width="0.5" stroke-linecap="butt"/><path d="M232.76831,193.47916v-23.72575h14.46059v23.72575z" fill="url(#color-24)" stroke="url(#color-25)" stroke-width="0.5" stroke-linecap="butt"/><g stroke-width="0.5"><path d="M240.51552,185.17931v-5.90534h5.67195v5.90534z" fill="url(#color-26)" stroke="url(#color-27)" stroke-linecap="butt"/><path d="M240.50026,185.10129l5.65884,-5.74501" fill="none" stroke="url(#color-28)" stroke-linecap="round"/><path d="M240.55771,179.29883l5.60138,5.83118" fill="none" stroke="url(#color-29)" stroke-linecap="round"/></g><g stroke-width="0.5"><path d="M233.7364,185.20804v-5.90534h5.67195v5.90534z" fill="url(#color-30)" stroke="url(#color-31)" stroke-linecap="butt"/><path d="M239.37999,179.385l-5.65884,5.74501" fill="none" stroke="url(#color-32)" stroke-linecap="round"/><path d="M239.37998,185.15873l-5.60138,-5.83118" fill="none" stroke="url(#color-33)" stroke-linecap="round"/></g><g stroke-width="0.5"><path d="M240.51552,192.02083v-5.90534h5.67195v5.90534z" fill="url(#color-34)" stroke="url(#color-35)" stroke-linecap="butt"/><path d="M240.50026,191.94282l5.65884,-5.74501" fill="none" stroke="url(#color-36)" stroke-linecap="round"/><path d="M240.55771,186.14036l5.60138,5.83118" fill="none" stroke="url(#color-37)" stroke-linecap="round"/></g><g stroke-width="0.5"><path d="M233.7364,192.04957v-5.90534h5.67195v5.90534z" fill="url(#color-38)" stroke="url(#color-39)" stroke-linecap="butt"/><path d="M239.37999,186.22652l-5.65884,5.74501" fill="none" stroke="url(#color-40)" stroke-linecap="round"/><path d="M233.7786,186.16908l5.60138,5.83118" fill="none" stroke="url(#color-41)" stroke-linecap="round"/></g><g stroke-width="0.5"><path d="M233.50047,177.99925v-7.11519h12.90768v7.11519z" fill="url(#color-42)" stroke="url(#color-43)" stroke-linecap="butt"/><path d="M234.17274,171.63303h11.4735" fill="none" stroke="url(#color-44)" stroke-linecap="round"/><path d="M234.21756,177.29191h11.29422" fill="none" stroke="url(#color-45)" stroke-linecap="round"/></g><path d="M215.27327,167.03273v-12.39235h25.93332v8.69862h-15.56684v3.69373z" fill-opacity="0.53453" fill="#000000" stroke="#a60000" stroke-width="0" stroke-linecap="butt"/><text transform="translate(215.70712,161.6152) scale(0.21839,0.21839)" font-size="40" xml:space="preserve" fill="#ffffff" fill-rule="nonzero" stroke="#000000" stroke-width="0" stroke-linecap="butt" stroke-linejoin="miter" stroke-miterlimit="10" stroke-dasharray="" stroke-dashoffset="0" font-family="Serif" font-weight="normal" text-anchor="start" style="mix-blend-mode: normal"><tspan x="0" dy="0">Rocket</tspan></text><text transform="translate(215.56527,166.16682) scale(0.11601,0.11601)" font-size="40" xml:space="preserve" fill="#ffffff" fill-rule="nonzero" stroke="#000000" stroke-width="0" stroke-linecap="butt" stroke-linejoin="miter" stroke-miterlimit="10" stroke-dasharray="" stroke-dashoffset="0" font-family="Serif" font-weight="normal" text-anchor="start" style="mix-blend-mode: normal"><tspan x="0" dy="0">2-1-1</tspan></text></g></g></svg>