<svg version="1.1" xmlns="http://www.w3.org/2000/svg" xmlns:xlink="http://www.w3.org/1999/xlink" width="108.07315" height="103.25975" viewBox="0,0,108.07315,103.25975"><defs><radialGradient cx="228.2418" cy="167.19014" r="20.58604" gradientUnits="userSpaceOnUse" id="color-1"><stop offset="0" stop-color="#ff8700"/><stop offset="1" stop-color="#a77426"/></radialGradient><radialGradient cx="243.08743" cy="167.17405" r="20.58605" gradientUnits="userSpaceOnUse" id="color-2"><stop offset="0" stop-color="#ff8700"/><stop offset="1" stop-color="#a77426"/></radialGradient><linearGradient x1="241.66258" y1="156.23861" x2="241.37787" y2="163.08375" gradientUnits="userSpaceOnUse" id="color-3"><stop offset="0" stop-color="#2b2b2b"/><stop offset="1" stop-color="#3f3f3f"/></linearGradient><radialGradient cx="238.61457" cy="134.53296" r="13.11833" gradientUnits="userSpaceOnUse" id="color-4"><stop offset="0" stop-color="#7bccb1"/><stop offset="1" stop-color="#618c94"/></radialGradient><radialGradient cx="238.61457" cy="134.53296" r="13.11833" gradientUnits="userSpaceOnUse" id="color-5"><stop offset="0" stop-color="#727272"/><stop offset="1" stop-color="#333333"/></radialGradient><radialGradient cx="241.47859" cy="140.35146" r="11.56644" gradientUnits="userSpaceOnUse" id="color-6"><stop offset="0" stop-color="#ffffff" stop-opacity="0.74902"/><stop offset="1" stop-color="#abffe7" stop-opacity="0.56471"/></radialGradient><radialGradient cx="255.03152" cy="165.74223" r="15.95934" gradientUnits="userSpaceOnUse" id="color-7"><stop offset="0" stop-color="#6f8281"/><stop offset="1" stop-color="#576766"/></radialGradient><radialGradient cx="237.17878" cy="168.36506" r="17.31619" gradientUnits="userSpaceOnUse" id="color-8"><stop offset="0" stop-color="#7a908e"/><stop offset="1" stop-color="#576766"/></radialGradient><linearGradient x1="267.40605" y1="190.86921" x2="278.13941" y2="185.59131" gradientUnits="userSpaceOnUse" id="color-9"><stop offset="0" stop-color="#242424"/><stop offset="1" stop-color="#373737"/></linearGradient><radialGradient cx="264.7815" cy="188.51479" r="3.52256" gradientUnits="userSpaceOnUse" id="color-10"><stop offset="0" stop-color="#bfbfbf"/><stop offset="1" stop-color="#9a9a9a"/></radialGradient><linearGradient x1="279.39552" y1="186.72365" x2="323.8182" y2="177.17856" gradientUnits="userSpaceOnUse" id="color-11"><stop offset="0" stop-color="#b2b2b2"/><stop offset="1" stop-color="#c4c4c4"/></linearGradient><linearGradient x1="279.76391" y1="187.01208" x2="308.83932" y2="180.7647" gradientUnits="userSpaceOnUse" id="color-12"><stop offset="0" stop-color="#cccccc"/><stop offset="1" stop-color="#d8d8d8"/></linearGradient><linearGradient x1="276.84594" y1="186.8609" x2="279.24048" y2="186.3905" gradientUnits="userSpaceOnUse" id="color-13"><stop offset="0" stop-color="#b5b5b5"/><stop offset="1" stop-color="#c5c5c5"/></linearGradient><radialGradient cx="230.10244" cy="168.29155" r="22.04569" gradientUnits="userSpaceOnUse" id="color-14"><stop offset="0" stop-color="#6f8281"/><stop offset="1" stop-color="#576766"/></radialGradient></defs><g transform="translate(-222.99267,-131.07617)"><g data-paper-data="{&quot;isPaintingLayer&quot;:true}" fill-rule="nonzero" stroke-linejoin="miter" stroke-miterlimit="10" stroke-dasharray="" stroke-dashoffset="0" style="mix-blend-mode: normal"><g stroke="none" stroke-width="0" stroke-linecap="butt"><path d="M238.50976,176.63276c-1.21672,21.45903 -1.00382,21.89974 -8.42772,21.48234c-7.83223,-0.44035 -7.56458,-1.07762 -6.61473,-22.10797c0.99438,-22.01627 1.50512,-21.60614 8.42772,-21.48234c7.33285,0.13113 7.86195,0.1112 6.61473,22.10797z" fill="url(#color-1)"/><path d="M253.35538,176.61666c-1.21672,21.45903 -1.00382,21.89974 -8.42772,21.48234c-7.83223,-0.44035 -7.56458,-1.07763 -6.61473,-22.10797c0.99438,-22.01627 1.50512,-21.60613 8.42772,-21.48233c7.33285,0.13113 7.86194,0.11119 6.61473,22.10796z" fill="url(#color-2)"/></g><g><path d="M239.70442,191.34299c3.62872,0 10.54956,2.18267 10.54956,2.18267l3.03149,33.71008h-7.63934c0,0 -1.32697,-25.53818 -2.03751,-29.57011c-0.20138,-1.1427 -3.2979,-2.07857 -3.2979,-2.07857c0,0 -3.67312,-4.24407 -0.6063,-4.24407z" fill="#343331" stroke="#000000" stroke-width="0" stroke-linecap="butt"/><path d="M259.6926,234.32553c-0.59276,0 -2.64411,0.01365 -4.70436,-0.0669c-1.25258,-0.04897 -1.90215,-0.61779 -2.83553,-0.76063c-1.17507,-0.17982 -2.93854,0.22047 -3.78778,0.02896c-1.56485,-0.35288 -2.37463,-0.77782 -2.37463,-0.77782c0,0 -0.26911,-1.0254 -0.2856,-1.5858c-0.02221,-0.75501 0.16433,-2.53701 0.16433,-2.53701c0,0 5.93425,-0.11957 8.24914,0.08076c1.36979,0.11854 4.24057,0.6468 4.24057,0.6468c0,0 1.45976,0.6156 1.67337,1.04283c0.26162,0.52325 0.87307,1.98865 0.87307,1.98865c0,0 -0.3857,1.94015 -1.21259,1.94015z" data-paper-data="{&quot;index&quot;:null}" fill="#141415" stroke="#000000" stroke-width="0" stroke-linecap="butt"/><path d="M259.4217,231.75072c-0.24822,0 0.7024,1.60165 -2.61811,1.33311c-3.13563,-0.25358 -2.77648,-1.18823 -3.8809,-1.26883c-2.30937,-0.16854 -2.58765,0.59503 -3.58732,0.44205c-0.34815,-0.05328 -0.51271,-0.11454 -1.78459,-0.97035c-0.87472,-0.58857 -0.66566,-1.75122 -1.26542,-2.3793c-0.87609,-0.91745 -0.80847,-1.8858 -0.80847,-1.8858l-0.07637,-3.04773c0,0 0.48635,2.20681 1.32529,3.03122c0.75062,0.73761 2.3169,-0.01875 2.80058,-0.01889c0.84696,-0.00024 -0.68885,-3.26804 0.12091,-3.2498c0.43542,0.00981 3.72275,-0.23409 3.72275,-0.23409c0,0 0.12302,3.57989 0.35598,3.60005c1.36979,0.11854 4.60434,0.6468 4.60434,0.6468c0,0 1.45976,0.6156 1.67338,1.04283c0.26162,0.52325 0.63055,2.95873 0.63055,2.95873c0,0 -0.3857,0 -1.2126,0z" data-paper-data="{&quot;index&quot;:null}" fill="#252527" stroke="#000000" stroke-width="0" stroke-linecap="butt"/><path d="M251.95161,228.81212l2.6677,-1.09133" fill="none" stroke="#ffffff" stroke-width="0.5" stroke-linecap="round"/><path d="M253.89176,229.1759l2.54645,-1.45511" fill="none" stroke="#ffffff" stroke-width="0.5" stroke-linecap="round"/><path d="M256.07443,229.41842l1.45512,-1.45511" fill="none" stroke="#ffffff" stroke-width="0.5" stroke-linecap="round"/><path d="M250.73902,224.93183l2.18266,-0.24252" fill="none" stroke="#969696" stroke-width="0.5" stroke-linecap="round"/><path d="M253.16421,225.41686l-1.94015,0.36378" fill="none" stroke="#969696" stroke-width="0.5" stroke-linecap="round"/></g><path d="M237.55311,162.92467l0.2847,-6.84513l7.64954,0.31815l-0.2847,6.84513z" fill="url(#color-3)" stroke="#000000" stroke-width="0" stroke-linecap="butt"/><g stroke="none" stroke-linecap="butt"><path d="M255.35463,144.9136c-0.2621,7.38689 -6.2087,13.17169 -13.28211,12.92071c-7.07341,-0.25098 -12.59507,-6.44268 -12.33297,-13.82957c0.2621,-7.38689 6.2087,-13.17169 13.28211,-12.92071c7.07341,0.25098 12.59507,6.44268 12.33297,13.82957z" fill="url(#color-4)" stroke-width="0"/><path d="M255.35463,144.9136c-0.2621,7.38689 -6.2087,13.17169 -13.28211,12.92071c-7.07341,-0.25098 -12.59507,-6.44268 -12.33297,-13.82957c0.2621,-7.38689 6.2087,-13.17169 13.28211,-12.92071c7.07341,0.25098 12.59507,6.44268 12.33297,13.82957zM255.10803,144.02465c0.19584,-5.51938 -4.11973,-10.15247 -9.63912,-10.3483c-0.6968,-0.02473 -1.37949,0.02247 -2.0409,0.13488c-0.0725,-0.00413 -0.14521,-0.00749 -0.21814,-0.01008c-5.51938,-0.19584 -10.15247,4.11973 -10.3483,9.63912c-0.05446,1.535 0.24,3.00141 0.81225,4.32292c1.17523,3.42922 4.16792,6.038 7.86525,6.63162c0.96138,0.35021 1.99327,0.55767 3.07109,0.59591c5.48295,0.19454 10.09128,-4.06299 10.34385,-9.53002c0.08451,-0.4677 0.13667,-0.94717 0.15402,-1.43608z" fill="url(#color-5)" stroke-width="0"/><path d="M247.62336,151.17657c-0.99362,0.11286 -1.10646,-0.88075 -1.10646,-0.88075l-0.03468,-0.30529c-0.14214,-1.25837 -0.18063,-2.50415 -0.21856,-3.76952c0,0 -0.02995,-0.99956 0.9696,-1.02951c0.99956,-0.02995 1.02952,0.9696 1.02952,0.9696c0.03627,1.20989 0.06919,2.40073 0.20665,3.6037l0.03468,0.30529c0,0 0.11287,0.99362 -0.88075,1.10647z" fill="#191412" stroke-width="0.5"/><path d="M251.22195,145.8165c-0.3136,-1.32266 1.87846,-4.05978 1.87846,-4.05978c0,0 1.93329,2.52454 1.90238,4.16583c-0.0329,1.74628 -3.39713,1.51244 -3.78085,-0.10606z" fill="#191412" stroke-width="0.5"/><path d="M238.14751,145.0426c-0.21807,-1.39472 2.7623,-3.94388 2.7623,-3.94388c0,0 2.24603,2.58878 1.97402,4.25476c-0.28939,1.77254 -4.4695,1.3958 -4.73635,-0.31087z" data-paper-data="{&quot;index&quot;:null}" fill="#191412" stroke-width="0.5"/><g fill="#00ffcc" stroke-width="0.5"><path d="M244.38706,138.09626c0.01399,-0.3943 0.34496,-0.7026 0.73928,-0.68862c0.3943,0.01399 0.7026,0.34496 0.68862,0.73928c-0.01399,0.3943 -0.34496,0.7026 -0.73928,0.68862c-0.3943,-0.01399 -0.7026,-0.34496 -0.68862,-0.73928z"/><path d="M246.46251,135.3146c0.01399,-0.3943 0.34496,-0.70261 0.73928,-0.68863c0.3943,0.01399 0.7026,0.34497 0.68862,0.73929c-0.01399,0.3943 -0.34496,0.7026 -0.73928,0.68862c-0.3943,-0.01399 -0.7026,-0.34496 -0.68862,-0.73928z"/><path d="M248.333,138.30949c0.01399,-0.3943 0.34496,-0.7026 0.73928,-0.68862c0.3943,0.01399 0.7026,0.34496 0.68862,0.73928c-0.01399,0.3943 -0.34496,0.7026 -0.73928,0.68862c-0.3943,-0.01399 -0.7026,-0.34496 -0.68862,-0.73928z"/></g><path d="M255.99282,144.62682c-0.21377,6.02502 -5.56228,10.72563 -11.94624,10.49913c-6.38396,-0.22651 -11.38586,-5.29437 -11.17209,-11.31939c0.21377,-6.02502 5.56228,-10.72563 11.94624,-10.49913c6.38396,0.22651 11.38586,5.29437 11.17209,11.31939z" fill="url(#color-6)" stroke-width="0"/></g><g><path d="M226.12338,227.23574l3.75904,-33.71008c0,0 6.75518,-2.18267 9.822,-2.18267c3.62872,0 0.6063,4.24407 0.6063,4.24407c0,0 -3.09204,0.08829 -3.39803,1.52409c-0.93579,4.39099 -2.78619,30.12458 -2.78619,30.12458z" fill="#343331" stroke="#000000" stroke-width="0" stroke-linecap="butt"/><path d="M241.75187,232.39489c0,0 -0.3857,1.94015 -1.2126,1.94015c-0.59276,0 -2.64411,0.01366 -4.70436,-0.06689c-1.25258,-0.04897 -1.90215,-0.61779 -2.83553,-0.76063c-1.17507,-0.17983 -2.93853,0.22047 -3.78777,0.02896c-1.56485,-0.35288 -2.37463,-0.77781 -2.37463,-0.77781c0,0 -0.26912,-1.02539 -0.2856,-1.5858c-0.02221,-0.755 0.16433,-2.53701 0.16433,-2.53701c0,0 5.93424,-0.11957 8.24914,0.08075c1.36979,0.11854 4.24057,0.6468 4.24057,0.6468c0,0 1.45975,0.6156 1.67337,1.04283c0.26162,0.52325 0.87307,1.98866 0.87307,1.98866z" data-paper-data="{&quot;index&quot;:null}" fill="#141415" stroke="#000000" stroke-width="0" stroke-linecap="butt"/><path d="M241.48097,231.76025c0,0 -0.38569,0 -1.21259,0c-0.24822,0 0.70239,1.60165 -2.61811,1.33311c-3.13563,-0.25359 -2.77648,-1.18823 -3.8809,-1.26883c-2.30937,-0.16854 -2.58766,0.59503 -3.58733,0.44204c-0.34815,-0.05328 -0.51271,-0.11454 -1.78458,-0.97035c-0.87471,-0.58857 -0.66566,-1.75122 -1.26542,-2.3793c-0.87609,-0.91746 -0.80847,-1.8858 -0.80847,-1.8858l-0.07637,-3.04773c0,0 0.48635,2.20682 1.32529,3.03123c0.75062,0.73761 2.3169,-0.01875 2.80058,-0.01889c0.84695,-0.00024 -0.68885,-3.26805 0.12091,-3.24981c0.43542,0.00981 3.72275,-0.23408 3.72275,-0.23408c0,0 0.12302,3.57988 0.35598,3.60004c1.36978,0.11854 4.60434,0.6468 4.60434,0.6468c0,0 1.45975,0.6156 1.67337,1.04283c0.26163,0.52325 0.63055,2.95873 0.63055,2.95873z" data-paper-data="{&quot;index&quot;:null}" fill="#252527" stroke="#000000" stroke-width="0" stroke-linecap="butt"/><path d="M232.79828,228.82164l2.66771,-1.09134" data-paper-data="{&quot;index&quot;:null}" fill="none" stroke="#ffffff" stroke-width="0.5" stroke-linecap="round"/><path d="M234.73843,229.18542l2.54644,-1.45511" data-paper-data="{&quot;index&quot;:null}" fill="none" stroke="#ffffff" stroke-width="0.5" stroke-linecap="round"/><path d="M238.37621,227.97282l-1.45512,1.45512" data-paper-data="{&quot;index&quot;:null}" fill="none" stroke="#ffffff" stroke-width="0.5" stroke-linecap="round"/><path d="M233.76835,224.69883l-2.18267,0.24252" data-paper-data="{&quot;index&quot;:null}" fill="none" stroke="#969696" stroke-width="0.5" stroke-linecap="round"/><path d="M232.07072,225.79016l1.94015,-0.36378" data-paper-data="{&quot;index&quot;:null}" fill="none" stroke="#969696" stroke-width="0.5" stroke-linecap="round"/></g><g><path d="M271.47851,186.07219c0,0 -0.93532,-2.31578 -2.94526,-4.40149c-0.48333,-0.50156 -1.92884,-2.2513 -2.43112,-2.76137c-1.18874,-1.20721 -2.41662,-2.35976 -3.12472,-3.11871c-1.523,-1.63237 -8.9039,-9.66051 -8.9039,-9.66051c0,0 -3.95281,-4.41667 -3.35888,-4.98521c4.34412,-4.1583 7.00618,1.1957 7.00618,1.1957c0,0 3.18392,4.37662 6.93896,8.73635c2.82473,3.2796 6.18909,6.49131 7.55919,8.14804c1.62152,1.96077 3.37886,4.73285 3.37886,4.73285z" data-paper-data="{&quot;index&quot;:null}" fill="url(#color-7)" stroke="#000000" stroke-width="0" stroke-linecap="butt"/><path d="M279.23308,190.35025c-0.36231,0.22433 -1.69145,-1.88352 -2.55865,-2.12771c-0.45905,-0.12925 2.71769,2.71204 1.56697,3.00343c-0.39506,0.10003 -2.2018,-2.38185 -2.91344,-2.7176c-0.38097,-0.17975 2.42733,3.53668 1.67708,3.76406c-0.44536,0.13496 -1.68665,-1.91726 -2.57987,-2.70993c-0.43517,-0.38615 -2.94664,-3.49031 -2.94664,-3.49031l4.11931,-2.11436c0,0 1.3534,1.85332 2.3934,3.47785c0.93578,1.46174 1.59075,2.69854 1.24186,2.91458z" data-paper-data="{&quot;index&quot;:null}" fill="#323a3a" stroke="#000000" stroke-width="0" stroke-linecap="butt"/><path d="M254.27675,165.99826l3.55971,-3.11605" fill="none" stroke="#00ffb0" stroke-width="1" stroke-linecap="round"/><path d="M258.79133,163.8935l-3.58314,3.26112" fill="none" stroke="#00ffb0" stroke-width="1" stroke-linecap="round"/><path d="M256.13957,168.31099l3.55971,-3.11605" fill="none" stroke="#00ffb0" stroke-width="1" stroke-linecap="round"/></g><g stroke-width="0" stroke-linecap="butt"><path d="M230.00394,193.30925c0,0 0.39798,-5.54795 0.1024,-10.94902c-0.20083,-3.66998 -1.11432,-7.01156 -1.16743,-9.51011c-0.09968,-4.68953 0.34579,-13.37942 0.34579,-13.37942c0,0 3.71289,-0.43085 5.47376,0.0089c2.24148,0.55978 6.88462,3.07742 6.88462,3.07742c0,0 3.76392,-2.01594 5.69297,-2.35233c2.03541,-0.35493 6.21761,0.27538 6.21761,0.27538c0,0 -0.45201,9.20628 -0.75263,12.63593c-0.26598,3.03442 -1.15343,6.32564 -1.63427,10.81436c-0.49558,4.62636 -0.58079,10.40641 -0.58079,10.40641c0,0 -2.72262,-0.88322 -5.53225,-1.06836c-1.27594,-0.08408 -1.83152,0.93082 -3.04435,1.03971c-0.96941,0.08703 -2.60849,-0.72193 -3.531,-0.79708c-0.69739,-0.05681 -2.01995,-0.61508 -2.51359,-0.63972c-0.99675,-0.04976 -1.65028,0.7974 -2.81363,0.9085c-1.35137,0.12905 -3.14726,-0.47058 -3.14726,-0.47058z" fill="url(#color-8)" stroke="#292e32"/><path d="M248.38493,167.08553c3.55738,0.11642 3.36115,1.02009 3.31607,2.10411c-0.04509,1.08402 0.71449,2.03488 -3.47933,1.82148c-4.03314,-0.20522 -3.37339,0.87682 -3.31607,-2.10411c0.04695,-2.44095 -0.55671,-1.95357 3.47933,-1.82148z" data-paper-data="{&quot;index&quot;:null}" fill="#c9ffe7" stroke="#000000"/></g><g stroke="none" stroke-width="0" stroke-linecap="butt"><path d="M267.89076,191.85494l-1.05903,-4.91953l10.82292,-2.32983l1.05902,4.91954z" fill="url(#color-9)"/><path d="M269.28606,187.98211c0.85846,1.7458 0.13913,3.85697 -1.60667,4.71543c-1.74581,0.85846 -3.85699,0.13913 -4.71544,-1.60667c-0.85847,-1.7458 -0.13913,-3.85699 1.60667,-4.71543c1.74581,-0.85846 3.85699,-0.13913 4.71544,1.60667z" fill="url(#color-10)"/><path d="M280.37256,191.27083l-1.95411,-9.0944l44.50403,-7.62018l8.14335,0.66885l-6.9718,4.06997z" fill="url(#color-11)"/><path d="M280.40342,189.98833l-1.4258,-6.27871l37.18734,-6.25904l10.19132,-0.96462l-9.3918,3.2669z" fill="url(#color-12)"/><path d="M279.10413,174.33737c0,0 -0.3445,7.99892 0.36532,11.88287c0.77933,4.2644 4.12161,12.66886 4.12161,12.66886c0,0 -5.77906,-8.17385 -6.5349,-12.30979c-0.73943,-4.04598 2.04798,-12.24193 2.04798,-12.24193z" fill="url(#color-13)"/></g><g><path d="M258.7525,189.39654c0,0 -3.97729,-1.93083 -6.83951,-3.81554c-2.4184,-1.59249 -7.77231,-4.32678 -12.57422,-7.63352c-6.3834,-4.3958 -7.10837,-3.78227 -10.28038,-8.71609c-3.17201,-4.93383 -5.66977,-9.1468 -0.42673,-10.15494c4.84404,0.98083 5.81975,5.85917 8.63889,8.19115c2.81913,2.33198 5.98534,5.2564 8.39055,7.06275c1.11827,0.83983 3.24666,1.49667 5.03352,2.91815c0.75499,0.6006 3.30894,2.28042 4.04995,2.85653c3.08146,2.39569 6.33516,3.27825 6.33516,3.27825z" data-paper-data="{&quot;index&quot;:null}" fill="url(#color-14)" stroke="#000000" stroke-width="0" stroke-linecap="butt"/><path d="M263.7668,192.0776c-2.33212,-1.14542 -5.0143,-2.68108 -5.0143,-2.68108l2.32724,-6.01332c0,0 4.52403,2.9075 5.1027,3.43751c1.18781,1.08788 4.12457,2.43543 3.9996,3.0694c-0.2105,1.06796 -5.60121,-2.14079 -5.30877,-1.64947c0.54626,0.91779 4.13737,2.96645 4.05316,3.52541c-0.24532,1.62813 -4.49985,-2.23696 -4.26561,-1.62987c0.44251,1.14691 3.46587,2.60532 3.20927,3.14085c-0.24709,0.51568 -2.00489,-0.16879 -4.10333,-1.19944z" data-paper-data="{&quot;index&quot;:null}" fill="#323a3a" stroke="#000000" stroke-width="0" stroke-linecap="butt"/><path d="M233.58915,163.82961l-4.67974,5.08068" fill="none" stroke="#00ffb0" stroke-width="1" stroke-linecap="round"/><path d="M235.20727,165.44538l-4.83142,5.28575" fill="none" stroke="#00ffb0" stroke-width="1" stroke-linecap="round"/><path d="M236.68971,167.19746l-4.39225,5.25614" fill="none" stroke="#00ffb0" stroke-width="1" stroke-linecap="round"/></g></g></g></svg>