<svg version="1.1" xmlns="http://www.w3.org/2000/svg" xmlns:xlink="http://www.w3.org/1999/xlink" width="59" height="59.70662" viewBox="0,0,59,59.70662"><defs><linearGradient x1="240" y1="151.64669" x2="240" y2="208.35331" gradientUnits="userSpaceOnUse" id="color-1"><stop offset="0" stop-color="#191919"/><stop offset="1" stop-color="#050505"/></linearGradient><linearGradient x1="240" y1="151.64669" x2="240" y2="208.35331" gradientUnits="userSpaceOnUse" id="color-2"><stop offset="0" stop-color="#cccccc"/><stop offset="1" stop-color="#898989"/></linearGradient><radialGradient cx="240" cy="180" r="22.33515" gradientUnits="userSpaceOnUse" id="color-3"><stop offset="0" stop-color="#baedff"/><stop offset="1" stop-color="#baedff" stop-opacity="0"/></radialGradient><linearGradient x1="240" y1="158.32887" x2="240" y2="201.67114" gradientUnits="userSpaceOnUse" id="color-4"><stop offset="0" stop-color="#272727"/><stop offset="1" stop-color="#2c2c2c"/></linearGradient><linearGradient x1="242.65677" y1="167.36628" x2="242.65677" y2="183.34434" gradientUnits="userSpaceOnUse" id="color-5"><stop offset="0" stop-color="#2d2d2d"/><stop offset="1" stop-color="#000000"/></linearGradient><linearGradient x1="239.62867" y1="172.7782" x2="239.62867" y2="192.62192" gradientUnits="userSpaceOnUse" id="color-6"><stop offset="0" stop-color="#2d2d2d"/><stop offset="1" stop-color="#000000"/></linearGradient><linearGradient x1="240.27294" y1="166.46429" x2="240.27294" y2="193.5239" gradientUnits="userSpaceOnUse" id="color-7"><stop offset="0" stop-color="#2d2d2d"/><stop offset="1" stop-color="#000000"/></linearGradient><linearGradient x1="240.01523" y1="169.0414" x2="240.01523" y2="172.64935" gradientUnits="userSpaceOnUse" id="color-8"><stop offset="0" stop-color="#272727"/><stop offset="1" stop-color="#2c2c2c"/></linearGradient></defs><g transform="translate(-210.5,-150.14669)"><g data-paper-data="{&quot;isPaintingLayer&quot;:true}" fill-rule="nonzero" stroke-linejoin="miter" stroke-miterlimit="10" stroke-dasharray="" stroke-dashoffset="0" style="mix-blend-mode: normal"><path d="M212,208.35331v-56.70662h56v56.70662z" fill="url(#color-1)" stroke="url(#color-2)" stroke-width="3" stroke-linecap="butt"/><path d="M262.33515,180c0,11.96864 -9.99979,21.67113 -22.33515,21.67113c-12.33536,0 -22.33515,-9.7025 -22.33515,-21.67113c0,-11.96864 9.99979,-21.67113 22.33515,-21.67113c12.33536,0 22.33515,9.7025 22.33515,21.67113z" fill="url(#color-3)" stroke="url(#color-4)" stroke-width="0" stroke-linecap="butt"/><path d="M221.97549,189.14283l20.35914,-5.66963l16.36462,3.86566" fill="none" stroke="#000000" stroke-width="1.5" stroke-linecap="round"/><path d="M242.72119,183.34434l-0.12885,-15.97806" fill="none" stroke="url(#color-5)" stroke-width="1.5" stroke-linecap="round"/><path d="M240.56128,192.62521l-0.15434,-10.27783l18.19001,-4.54465l-0.02152,9.45942z" fill-opacity="0.75" fill="#84d8e8" stroke="#000000" stroke-width="0" stroke-linecap="butt"/><path d="M221.90977,179.43809l20.90604,-5.34154l16.56298,3.51497l-19.6916,4.94169z" fill-opacity="0.73992" fill="#a8e9ff" stroke="#000000" stroke-width="0" stroke-linecap="butt"/><path d="M222.32348,188.98569l-0.05614,-9.48213l16.6685,2.90243l0.03154,10.21921z" fill-opacity="0.75" fill="#91e8ff" stroke="#000000" stroke-width="0" stroke-linecap="butt"/><path d="M239.49981,172.7782l0.25771,19.84372" fill="none" stroke="url(#color-6)" stroke-width="1.5" stroke-linecap="round"/><path d="M221.58892,189.52939l-0.12886,-19.19944l21.38998,-3.86566l15.97806,1.93283l0.25771,19.32829l-19.19944,5.79849z" fill="none" stroke="url(#color-7)" stroke-width="1.5" stroke-linecap="round"/><path d="M258.31268,169.0414l-18.55516,3.60795l-18.03974,-2.3194" fill="none" stroke="url(#color-8)" stroke-width="1.5" stroke-linecap="round"/><path d="M215.27327,163.339v-8.69862h28.80879v8.69862z" fill-opacity="0.53453" fill="#000000" stroke="#a60000" stroke-width="0" stroke-linecap="butt"/><text transform="translate(215.70712,161.61518) scale(0.21839,0.21839)" font-size="40" xml:space="preserve" fill="#ffffff" fill-rule="nonzero" stroke="none" stroke-width="1" stroke-linecap="butt" stroke-linejoin="miter" stroke-miterlimit="10" stroke-dasharray="" stroke-dashoffset="0" font-family="Serif" font-weight="normal" text-anchor="start" style="mix-blend-mode: normal"><tspan x="0" dy="0">Oxygen</tspan></text></g></g></svg>