<svg version="1.1" xmlns="http://www.w3.org/2000/svg" xmlns:xlink="http://www.w3.org/1999/xlink" width="1084.59379" height="149.3172" viewBox="0,0,1084.59379,149.3172"><defs><linearGradient x1="270.10257" y1="154.74162" x2="270.10257" y2="304.05881" gradientUnits="userSpaceOnUse" id="color-1"><stop offset="0" stop-color="#443a2e"/><stop offset="1" stop-color="#201e15"/></linearGradient><linearGradient x1="810.10257" y1="154.74162" x2="810.10257" y2="304.05881" gradientUnits="userSpaceOnUse" id="color-2"><stop offset="0" stop-color="#443a2e"/><stop offset="1" stop-color="#201e15"/></linearGradient></defs><g transform="translate(2.19433,-154.74161)"><g data-paper-data="{&quot;isPaintingLayer&quot;:true}" fill-rule="nonzero" stroke="none" stroke-width="0.5" stroke-linecap="butt" stroke-linejoin="miter" stroke-miterlimit="10" stroke-dasharray="" stroke-dashoffset="0" style="mix-blend-mode: normal"><path d="M-2.19433,209.38733c0,0 9.55611,0.96729 14.48432,-1.2073c3.41556,-1.50712 6.92337,-3.53954 10.68686,-4.1803c3.61122,-0.61483 7.01542,-0.84518 10.67332,-1.91039c4.59325,-1.33759 8.71721,-4.27917 13.50426,-5.08961c5.15167,-0.87217 10.03265,-1.36863 15.11099,-3c2.81665,-0.02654 6.28597,0.46187 9.0666,0c3.48771,-0.57932 6.56573,-2.60792 10.1697,-3.01355c4.96663,-0.559 10.15781,0.61536 15.11099,0c2.67911,-0.33284 5.2081,-1.43279 7.85407,-1.96635c3.79645,-0.76556 7.49271,-0.40005 11.19082,-1.0201c3.21357,-0.53881 7.45024,-1.31109 10.38257,-2.78013c1.10793,-0.55505 1.96486,-1.5532 3.10557,-2.03843c2.68509,-1.14218 5.59143,-1.7616 8.20427,-3.05843c6.798,-1.68702 11.74141,-5.85023 17.90047,-8.90108c0.87739,-0.43461 1.9573,-0.391 2.80465,-0.88084c2.34286,-1.35437 3.69173,-4.5673 6.0444,-6c0.97465,-0.59353 2.20889,-0.62803 3.23974,-1.11916c1.32546,-0.63148 2.33219,-2.08012 3.79442,-2.23209c4.42267,-0.45967 5.64825,2.72422 8.46387,5.03963c1.49598,1.23021 3.11058,2.31387 4.60193,3.54961c2.19977,1.82274 4.78999,3.14281 6.99837,4.95528c0.55009,0.45147 0.69905,1.41736 1.38189,1.62366c1.10746,0.33459 2.32136,-0.30691 3.46923,-0.15802c2.22095,0.28807 4.40865,0.98766 6.64838,0.96772c3.11464,0 7.51419,0.57503 10.67797,0.03228c1.04638,-0.17951 1.97386,-0.83216 3.0222,-1c1.98909,-0.31845 4.05252,0.30084 6.04439,0c2.1198,-0.32016 3.68549,-2.24701 5.718,-2.92501c0.88139,-0.29402 1.91506,0.40032 2.78823,0.08303c0.64871,-0.23572 0.80111,-1.13599 1.32845,-1.57894c1.42981,-1.20098 2.88973,-2.3946 4.51087,-3.32581c0.86861,-0.49895 2.03213,-0.35939 2.867,-0.91218c2.24953,-1.48949 3.84651,-3.91254 6.26194,-5.11916c0.80543,-0.40235 1.90045,-0.17624 2.59999,-0.74098c0.85598,-0.69103 0.97089,-2.01826 1.76267,-2.781c3.07442,-2.96168 8.1935,-4.67961 12.43347,-3.66536c3.26886,0.78195 6.41318,3.52119 8.99167,5.43312c1.22912,0.92852 2.34938,2.01951 3.68735,2.78555c1.81975,1.04189 4.09976,1.04272 5.98205,1.96866c2.01837,0.99288 4.03535,1.98867 6.04439,3c0.96258,0.48455 1.62879,1.4936 2.64551,1.85306c1.66918,0.59014 3.54333,-0.15478 5.31458,-0.10727c1.35874,0.03644 2.76874,0.56944 4.07321,0.1903c0.8371,-0.2433 0.98912,-1.55198 1.79021,-1.89449c1.54901,-0.66228 3.40584,-0.34174 4.96018,-0.99161c0.80079,-0.33481 1.08399,-1.39835 1.82673,-1.84601c1.66717,-1.00481 3.36263,-2.26904 5.30432,-2.45191c4.79318,-0.45141 4.8457,2.18382 7.16319,4.90874c1.83808,2.16123 4.22028,3.82714 6.0444,6c0.7227,0.86087 1.05433,2.02028 1.84798,2.81721c2.20477,2.21386 5.35925,3.31485 7.6024,5.64114c3.47654,1.09185 5.6665,3.31313 8.84904,4.88084c0.95121,0.46856 2.07512,0.52325 3.0222,1c0.96258,0.48455 1.62225,1.51242 2.64551,1.85306c0.8523,0.28372 1.80931,-0.2231 2.6958,-0.07499c3.42136,0.57164 6.48736,2.5675 9.97829,2.98645c14.47925,1.73766 29.37473,0.98127 44.01784,0.98127c0.47681,0 6.19454,-0.00949 6.44782,0.03228c3.1534,0.52011 6.29102,2.19539 9.36731,3.06742c0.57225,0.16222 7.86091,1.91932 8.22884,2.05559c4.26933,1.58125 8.98647,3.22915 13.18619,5.03501c1.25578,0.53997 2.3164,1.54858 3.64444,1.87658c1.21593,0.30031 2.51508,-0.20014 3.75869,-0.04815c3.29244,0.40239 6.05676,1.49153 9.45855,1c7.37183,-1.06517 13.68063,-4.52785 20.65907,-6.88791c1.69073,-0.51181 2.99734,-1.86124 4.51698,-2.75745c2.21846,-1.30835 4.87368,-1.76063 7.11175,-3.03565c2.39737,-1.36578 4.6687,-3.81657 7.88713,-3.27085c2.2634,0.38378 3.35591,3.27442 5.47723,4.14684c2.28791,0.94093 4.91815,0.95359 7.13942,2.0405c7.06984,3.4594 28.10807,12.47912 28.10807,12.47912l0.20858,93.94095l-544.29174,0.41709z" data-paper-data="{&quot;index&quot;:null}" fill="url(#color-1)"/><path d="M537.80567,209.38733c0,0 9.55611,0.96729 14.48432,-1.2073c3.41556,-1.50712 6.92337,-3.53954 10.68686,-4.1803c3.61122,-0.61483 7.01542,-0.84518 10.67332,-1.91039c4.59325,-1.33759 8.71721,-4.27917 13.50426,-5.08961c5.15167,-0.87217 10.03265,-1.36863 15.11099,-3c2.81665,-0.02654 6.28597,0.46187 9.0666,0c3.48771,-0.57932 6.56573,-2.60792 10.1697,-3.01355c4.96663,-0.559 10.15781,0.61536 15.11099,0c2.67911,-0.33284 5.2081,-1.43279 7.85407,-1.96635c3.79645,-0.76556 7.49271,-0.40005 11.19082,-1.0201c3.21357,-0.53881 7.45024,-1.31109 10.38257,-2.78013c1.10793,-0.55505 1.96486,-1.5532 3.10557,-2.03843c2.68509,-1.14218 5.59143,-1.7616 8.20427,-3.05843c6.798,-1.68702 11.74141,-5.85023 17.90047,-8.90108c0.87739,-0.43461 1.9573,-0.391 2.80465,-0.88084c2.34286,-1.35437 3.69173,-4.5673 6.0444,-6c0.97465,-0.59353 2.20889,-0.62803 3.23974,-1.11916c1.32546,-0.63148 2.33219,-2.08012 3.79442,-2.23209c4.42267,-0.45967 5.64825,2.72422 8.46387,5.03963c1.49598,1.23021 3.11058,2.31387 4.60193,3.54961c2.19977,1.82274 4.78999,3.14281 6.99837,4.95528c0.55009,0.45147 0.69905,1.41736 1.38189,1.62366c1.10746,0.33459 2.32136,-0.30691 3.46923,-0.15802c2.22095,0.28807 4.40865,0.98766 6.64838,0.96772c3.11464,0 7.51419,0.57503 10.67797,0.03228c1.04638,-0.17951 1.97386,-0.83216 3.0222,-1c1.98909,-0.31845 4.05252,0.30084 6.04439,0c2.1198,-0.32016 3.68549,-2.24701 5.718,-2.92501c0.88139,-0.29402 1.91506,0.40032 2.78823,0.08303c0.64871,-0.23572 0.80111,-1.13599 1.32845,-1.57894c1.42981,-1.20098 2.88973,-2.3946 4.51087,-3.32581c0.86861,-0.49895 2.03213,-0.35939 2.867,-0.91218c2.24953,-1.48949 3.84651,-3.91254 6.26194,-5.11916c0.80543,-0.40235 1.90045,-0.17624 2.59999,-0.74098c0.85598,-0.69103 0.97089,-2.01826 1.76267,-2.781c3.07442,-2.96168 8.1935,-4.67961 12.43347,-3.66536c3.26886,0.78195 6.41318,3.52119 8.99167,5.43312c1.22912,0.92852 2.34938,2.01951 3.68735,2.78555c1.81975,1.04189 4.09976,1.04272 5.98205,1.96866c2.01837,0.99288 4.03535,1.98867 6.04439,3c0.96258,0.48455 1.62879,1.4936 2.64551,1.85306c1.66918,0.59014 3.54333,-0.15478 5.31458,-0.10727c1.35874,0.03644 2.76874,0.56944 4.07321,0.1903c0.8371,-0.2433 0.98912,-1.55198 1.79021,-1.89449c1.54901,-0.66228 3.40584,-0.34174 4.96018,-0.99161c0.80079,-0.33481 1.08399,-1.39835 1.82673,-1.84601c1.66717,-1.00481 3.36263,-2.26904 5.30432,-2.45191c4.79318,-0.45141 4.8457,2.18382 7.16319,4.90874c1.83808,2.16123 4.22028,3.82714 6.0444,6c0.7227,0.86087 1.05433,2.02028 1.84798,2.81721c2.20477,2.21386 5.35925,3.31485 7.6024,5.64114c3.47654,1.09185 5.6665,3.31313 8.84904,4.88084c0.95121,0.46856 2.07512,0.52325 3.0222,1c0.96258,0.48455 1.62225,1.51242 2.64551,1.85306c0.8523,0.28372 1.80931,-0.2231 2.6958,-0.07499c3.42136,0.57164 6.48736,2.5675 9.97829,2.98645c14.47925,1.73766 29.37473,0.98127 44.01784,0.98127c0.47681,0 6.19454,-0.00949 6.44782,0.03228c3.1534,0.52011 6.29102,2.19539 9.36731,3.06742c0.57225,0.16222 7.86091,1.91932 8.22884,2.05559c4.26933,1.58125 8.98647,3.22915 13.18619,5.03501c1.25578,0.53997 2.3164,1.54858 3.64444,1.87658c1.21593,0.30031 2.51508,-0.20014 3.75869,-0.04815c3.29244,0.40239 6.05676,1.49153 9.45855,1c7.37183,-1.06517 13.68063,-4.52785 20.65907,-6.88791c1.69073,-0.51181 2.99734,-1.86124 4.51698,-2.75745c2.21846,-1.30835 4.87368,-1.76063 7.11175,-3.03565c2.39737,-1.36578 4.6687,-3.81657 7.88713,-3.27085c2.2634,0.38378 3.35591,3.27442 5.47723,4.14684c2.28791,0.94093 4.91815,0.95359 7.13942,2.0405c7.06984,3.4594 28.10807,12.47912 28.10807,12.47912l0.20858,93.94095l-544.29174,0.41709z" data-paper-data="{&quot;index&quot;:null}" fill="url(#color-2)"/></g></g></svg>