<svg version="1.1" xmlns="http://www.w3.org/2000/svg" xmlns:xlink="http://www.w3.org/1999/xlink" width="619.063" height="471.58011" viewBox="0,0,619.063,471.58011"><defs><radialGradient cx="240" cy="180.00003" r="250.5" gradientUnits="userSpaceOnUse" id="color-1"><stop offset="0" stop-color="#949494"/><stop offset="1" stop-color="#7d7d7d"/></radialGradient><radialGradient cx="243.51172" cy="115.5508" r="114.5" gradientUnits="userSpaceOnUse" id="color-2"><stop offset="0" stop-color="#484848"/><stop offset="1" stop-color="#3a3a3a"/></radialGradient><radialGradient cx="313.80117" cy="294.91333" r="270.53072" gradientUnits="userSpaceOnUse" id="color-3"><stop offset="0" stop-color="#4d4d4d"/><stop offset="1" stop-color="#3c3c3c"/></radialGradient><radialGradient cx="228.97824" cy="289.72909" r="66" gradientUnits="userSpaceOnUse" id="color-4"><stop offset="0" stop-color="#2a2a2a"/><stop offset="1" stop-color="#2a2a2a"/></radialGradient><radialGradient cx="222.20341" cy="294.86247" r="66" gradientUnits="userSpaceOnUse" id="color-5"><stop offset="0" stop-color="#1d1d1d"/><stop offset="1" stop-color="#1b1b1b"/></radialGradient><radialGradient cx="349.5834" cy="454.2388" r="249.95744" gradientUnits="userSpaceOnUse" id="color-6"><stop offset="0" stop-color="#222222"/><stop offset="1" stop-color="#202020"/></radialGradient><radialGradient cx="308.17227" cy="315.18154" r="65" gradientUnits="userSpaceOnUse" id="color-7"><stop offset="0" stop-color="#090909"/><stop offset="1" stop-color="#080808"/></radialGradient><radialGradient cx="465.65055" cy="218.71996" r="26.5" gradientUnits="userSpaceOnUse" id="color-8"><stop offset="0" stop-color="#525252"/><stop offset="1" stop-color="#424242"/></radialGradient><radialGradient cx="389.18019" cy="263.01041" r="84" gradientUnits="userSpaceOnUse" id="color-9"><stop offset="0" stop-color="#1d1d1d"/><stop offset="1" stop-color="#1b1b1b"/></radialGradient><radialGradient cx="423.82281" cy="229.41893" r="44.75" gradientUnits="userSpaceOnUse" id="color-10"><stop offset="0" stop-color="#3a3a3a"/><stop offset="1" stop-color="#2f2f2f"/></radialGradient><radialGradient cx="376.45226" cy="269.17481" r="48.5" gradientUnits="userSpaceOnUse" id="color-11"><stop offset="0" stop-color="#343434"/><stop offset="1" stop-color="#262626"/></radialGradient><radialGradient cx="333.55169" cy="245.02495" r="26.25" gradientUnits="userSpaceOnUse" id="color-12"><stop offset="0" stop-color="#121212"/><stop offset="1" stop-color="#161616"/></radialGradient><radialGradient cx="315.50967" cy="312.64928" r="65" gradientUnits="userSpaceOnUse" id="color-13"><stop offset="0" stop-color="#101010"/><stop offset="1" stop-color="#111111"/></radialGradient><radialGradient cx="483.58941" cy="200.60374" r="36.25" gradientUnits="userSpaceOnUse" id="color-14"><stop offset="0" stop-color="#313131"/><stop offset="1" stop-color="#1b1b1b"/></radialGradient><radialGradient cx="374.11467" cy="343.70192" r="26.25" gradientUnits="userSpaceOnUse" id="color-15"><stop offset="0" stop-color="#121212"/><stop offset="1" stop-color="#161616"/></radialGradient><radialGradient cx="92.75394" cy="176.37855" r="57.27136" gradientUnits="userSpaceOnUse" id="color-16"><stop offset="0" stop-color="#33266a"/><stop offset="1" stop-color="#949074"/></radialGradient><linearGradient x1="101.32055" y1="116.4595" x2="99.82664" y2="133.7785" gradientUnits="userSpaceOnUse" id="color-17"><stop offset="0" stop-color="#694444"/><stop offset="1" stop-color="#98a1b9"/></linearGradient><radialGradient cx="97.95119" cy="58.08901" r="33.28545" gradientUnits="userSpaceOnUse" id="color-18"><stop offset="0" stop-color="#dcdcdc"/><stop offset="1" stop-color="#a0a0a0"/></radialGradient><radialGradient cx="84.64404" cy="55.80927" r="25.55275" gradientUnits="userSpaceOnUse" id="color-19"><stop offset="0" stop-color="#1c2f30"/><stop offset="1" stop-color="#142913"/></radialGradient><radialGradient cx="127.06983" cy="57.43516" r="6.72592" gradientUnits="userSpaceOnUse" id="color-20"><stop offset="0" stop-color="#786c41"/><stop offset="1" stop-color="#141a29"/></radialGradient><radialGradient cx="98.26521" cy="56.3473" r="10.58856" gradientUnits="userSpaceOnUse" id="color-21"><stop offset="0" stop-color="#7ba676"/><stop offset="1" stop-color="#291616"/></radialGradient><radialGradient cx="105.39222" cy="80.16559" r="25.00169" gradientUnits="userSpaceOnUse" id="color-22"><stop offset="0" stop-color="#d1ffc4"/><stop offset="1" stop-color="#2188ff"/></radialGradient><radialGradient cx="105.39222" cy="80.16559" r="25.00169" gradientUnits="userSpaceOnUse" id="color-23"><stop offset="0" stop-color="#ceffc4"/><stop offset="1" stop-color="#ff21cc"/></radialGradient><radialGradient cx="105.39222" cy="80.16559" r="25.00169" gradientUnits="userSpaceOnUse" id="color-24"><stop offset="0" stop-color="#ffe9c4"/><stop offset="1" stop-color="#4fff21"/></radialGradient><radialGradient cx="105.39222" cy="80.16559" r="25.00169" gradientUnits="userSpaceOnUse" id="color-25"><stop offset="0" stop-color="#ffe9c4"/><stop offset="1" stop-color="#4fff21"/></radialGradient><radialGradient cx="105.39216" cy="80.16562" r="25.00169" gradientUnits="userSpaceOnUse" id="color-26"><stop offset="0" stop-color="#ffe9c4"/><stop offset="1" stop-color="#ffa321"/></radialGradient><radialGradient cx="105.39212" cy="80.16562" r="25.00169" gradientUnits="userSpaceOnUse" id="color-27"><stop offset="0" stop-color="#c4f0ff"/><stop offset="1" stop-color="#3d21ff"/></radialGradient><linearGradient x1="-11.98828" y1="179.28453" x2="150.92969" y2="179.28453" gradientUnits="userSpaceOnUse" id="color-28"><stop offset="0" stop-color="#7d7d7d"/><stop offset="1" stop-color="#818181"/></linearGradient></defs><g transform="translate(11.98828,8.48171)"><g data-paper-data="{&quot;isPaintingLayer&quot;:true}" fill-rule="nonzero" stroke-linejoin="miter" stroke-miterlimit="10" stroke-dasharray="" stroke-dashoffset="0" style="mix-blend-mode: normal"><path d="M-10.5,368.00001v-376h501v376z" fill="url(#color-1)" stroke="none" stroke-width="0" stroke-linecap="butt"/><path d="M55.63703,350.09237c-3.89444,-35.12313 -28.86024,-260.28391 -28.86024,-260.28391c0,0 6.13498,-58.73673 90.38049,-83.32369c88.94305,-19.99889 123.11201,33.7383 123.11201,33.7383c0,0 65.07454,148.36123 76.16367,173.64299c3.0985,7.06417 1.47154,14.99796 -6.00481,17.45295c-24.82515,8.15175 -82.74364,27.48408 -119.81421,42.36863c-36.09995,14.49483 -99.11668,64.98273 -123.29164,84.94994c-6.18411,5.10773 -10.69693,0.36836 -11.68526,-8.54521z" fill="#000000" stroke="none" stroke-width="NaN" stroke-linecap="butt"/><path d="M165.01172,165.05081l-2,-164c0,0 26.59426,3.29414 40.84201,7.29545c21.80408,6.12342 42.158,33.70455 42.158,33.70455c0,0 56.32326,135.7535 68.65762,165.48248c4.54989,10.96641 3.54663,20.14819 -2.69066,17.59835c-21.79808,-8.91117 -146.96696,-60.08083 -146.96696,-60.08083z" fill="url(#color-2)" stroke="none" stroke-width="0" stroke-linecap="butt"/><path d="M605.69258,270.32998c14.79035,54.92892 -90.81001,131.12039 -235.86501,170.17842c-145.055,39.05803 -274.63528,26.19214 -289.42563,-28.73678c-14.79036,-54.92892 90.81,-131.1204 235.86501,-170.17843c145.05501,-39.05803 274.63528,-26.19213 289.42564,28.73679z" fill="url(#color-3)" stroke="none" stroke-width="NaN" stroke-linecap="butt"/><g data-paper-data="{&quot;index&quot;:null}"><path d="M221.7213,237.51417l18.63568,7.20842l33.462,93.83653l-22.25925,-11.99065z" fill="url(#color-4)" stroke="none" stroke-width="0" stroke-linecap="butt"/><path d="M252.45332,325.26406l21.46221,12.59458l-6.87139,5.83387l-22.95973,-12.08721z" fill="url(#color-5)" stroke="none" stroke-width="0" stroke-linecap="butt"/><path d="M243.98785,332.3058l-29.01224,-87.79835l7.58732,-5.8825l30.00994,86.54853z" data-paper-data="{&quot;index&quot;:null}" fill="url(#color-6)" stroke="none" stroke-width="0" stroke-linecap="butt"/><path d="M226.6818,241.0668l49.6744,5.71874l-37.99309,0.88027" fill="none" stroke="#747474" stroke-width="1.5" stroke-linecap="round"/><path d="M255.92492,322.04882l55.24453,10.40635l-43.1397,-2.28397" fill="none" stroke="#747474" stroke-width="1.5" stroke-linecap="round"/><path d="M261.55145,288.70273c-6.53341,-17.0944 -5.97747,-42.56344 -2.56125,-48.30337c2.17588,-3.65591 19.20595,5.0226 28.79083,9.47131c7.94194,3.68615 20.28707,15.94247 20.28707,15.94247l45.54771,97.12701c0,0 -20.99459,-3.76071 -30.44393,-7.83954c-9.80806,-4.23367 -25.97957,-9.11744 -30.68559,-14.8801c-4.67276,-5.72192 -24.85768,-35.61715 -30.93484,-51.51779z" fill="url(#color-7)" stroke="none" stroke-width="0" stroke-linecap="butt"/><path d="M447.24607,198.5637l11.4751,-7.12896l27.95706,45.07108l-12.43968,8.3818z" fill="url(#color-8)" stroke="none" stroke-width="0" stroke-linecap="butt"/><path d="M314.43797,263.93278l123.01751,-82.28573l54.9052,82.38124l-141.83002,91.94697z" fill="url(#color-9)" stroke="none" stroke-width="0" stroke-linecap="butt"/><path d="M386.04112,216.89275l43.80938,-30.72438l47.9381,75.62035l-47.68542,32.13022z" fill="url(#color-10)" stroke="none" stroke-width="0" stroke-linecap="butt"/><path d="M321.12863,270.87994l69.10339,-47.76737l35.25675,63.06316l-75.46736,50.84956z" fill="url(#color-11)" stroke="none" stroke-width="0" stroke-linecap="butt"/><path d="M299.11864,250.74142c0,0 17.84291,-8.94866 28.21866,-11.42355c8.73093,-2.08255 31.61593,-3.57052 31.61593,-3.57052l-43.12421,29.0569z" fill="url(#color-12)" stroke="none" stroke-width="0" stroke-linecap="butt"/><path d="M268.88886,286.17044c-6.53341,-17.0944 -10.41229,-41.98691 -6.99608,-47.72684c2.17588,-3.65591 23.64077,4.44607 33.22565,8.89478c7.94194,3.68615 20.28707,15.94247 20.28707,15.94247l42.23047,99.36215c0,0 -17.67735,-5.99585 -27.12668,-10.07468c-9.80806,-4.23367 -25.97957,-9.11744 -30.68559,-14.8801c-4.67276,-5.72192 -24.85768,-35.61715 -30.93484,-51.51779z" fill="url(#color-13)" stroke="none" stroke-width="0" stroke-linecap="butt"/><path d="M449.82493,187.1795l31.23445,-21.64854l44.65857,57.33116l-34.41643,23.18963z" fill="url(#color-14)" stroke="none" stroke-width="0" stroke-linecap="butt"/><path d="M335.68806,355.12375c0,0 20.54692,-17.4247 32.57751,-22.08748c10.09842,-3.91392 30.79164,-7.34635 30.79164,-7.34635l-43.07987,38.07066z" fill="url(#color-15)" stroke="none" stroke-width="0" stroke-linecap="butt"/></g><g><path d="M52.66805,232.19481l4.26897,-114.46309l75.90291,2.83093l-4.26897,114.46309z" fill="url(#color-16)" stroke="#ed6b00" stroke-width="0" stroke-linecap="butt"/><path d="M90.14945,132.94388l1.4939,-17.31905l19.35437,1.66937l-1.4939,17.31905z" fill="url(#color-17)" stroke="#000000" stroke-width="0" stroke-linecap="butt"/><g><path d="M133.5032,288.24068c0,0 -24.15009,-60.84543 -29.77101,-70.75381c-1.83801,-3.23982 -9.38636,-1.0897 -9.38636,-1.0897c0,0 -10.55708,-7.95743 -1.77782,-10.73154c7.41994,-2.34456 25.43205,-2.22817 25.43205,-2.22817l34.8657,78.68484z" data-paper-data="{&quot;index&quot;:null}" fill="#4a433c" stroke="#000000" stroke-width="0" stroke-linecap="butt"/><path d="M172.15358,294.66783c-1.4342,0.45336 -6.38695,2.05443 -11.43282,3.43457c-3.06814,0.83899 -5.07422,-0.0406 -7.4418,0.32735c-2.98037,0.46298 -6.94112,2.77992 -9.1421,2.96584c-4.05596,0.34255 -6.33985,-0.06664 -6.33985,-0.06664c0,0 -1.43498,-2.27532 -1.90319,-3.61841c-0.63088,-1.80975 -1.54195,-6.26366 -1.54195,-6.26366c0,0 14.26602,-4.82614 20.01996,-6.11109c3.40472,-0.76029 10.75437,-1.67712 10.75437,-1.67712c0,0 4.00252,0.37336 4.84582,1.24389c1.03329,1.06585 3.63257,4.14378 3.63257,4.14378c0,0 0.55004,4.98884 -1.45052,5.62101z" data-paper-data="{&quot;index&quot;:null}" fill="#140d0d" stroke="#000000" stroke-width="0" stroke-linecap="butt"/><path d="M169.52991,288.64565c-0.60055,0.18975 2.9236,3.33804 -5.31505,5.22674c-7.78033,1.78378 -7.62565,-0.75225 -10.35961,-0.10284c-5.71629,1.35784 -5.80566,3.41787 -8.34135,3.81209c-0.88318,0.13727 -1.32787,0.11491 -5.05931,-0.98342c-2.56633,-0.75522 -2.94926,-3.72816 -4.88052,-4.78929c-2.8211,-1.54988 -3.39772,-3.94461 -3.39772,-3.94461l-2.51472,-7.31533c0,0 2.86364,4.96745 5.52383,6.32043c2.38001,1.21078 5.59118,-1.81674 6.76135,-2.18687c2.049,-0.64804 -4.16519,-7.38017 -2.19196,-7.95503c1.06093,-0.30929 8.82796,-3.41244 8.82796,-3.41244c0,0 3.03451,8.56728 3.61343,8.43785c3.40472,-0.76029 11.63446,-1.95501 11.63446,-1.95501c0,0 4.00252,0.37336 4.84575,1.24367c1.03329,1.06585 3.7877,6.67618 3.7877,6.67618c0,0 -0.93323,0.29514 -2.93376,0.92713z" data-paper-data="{&quot;index&quot;:null}" fill="#1f261f" stroke="#000000" stroke-width="0" stroke-linecap="butt"/><path d="M154.82972,282.56666l-5.62001,4.6799" fill="none" stroke="#ffb5b5" stroke-width="0.5" stroke-linecap="round"/><path d="M154.18208,286.64366l5.04866,-5.46724" fill="none" stroke="#bffdff" stroke-width="0.5" stroke-linecap="round"/><path d="M159.64824,285.56161l2.40798,-4.63262" fill="none" stroke="#eaffc1" stroke-width="0.5" stroke-linecap="round"/><path d="M148.40529,276.53029l-5.09533,2.25535" fill="none" stroke="#8d967b" stroke-width="0.5" stroke-linecap="round"/><path d="M149.5479,278.10519l-4.41585,2.36346" fill="none" stroke="#767796" stroke-width="0.5" stroke-linecap="round"/></g><g data-paper-data="{&quot;index&quot;:null}" stroke="#000000" stroke-width="0" stroke-linecap="butt"><path d="M25.48071,183.26248c0,0 3.14196,-5.15074 6.47591,-14.35773c2.00243,-5.53 4.78971,-14.74761 5.7709,-16.75228c2.18898,-4.47143 1.63856,-7.42129 3.18075,-10.24506c1.25997,-2.30695 7.00459,-14.41008 14.83767,-17.12937c15.72509,-5.45905 23.16049,8.76473 17.05219,13.82218c-4.64507,7.83906 -9.5963,0.57749 -12.85953,3.5093c-4.52235,4.0631 -6.64903,14.26212 -8.30003,17.09449c-1.20103,2.06032 -3.70539,8.93351 -4.85147,10.95108c-4.76593,8.38965 -5.76835,16.66315 -5.76835,16.66315z" fill="#b8bda6"/><path d="M21.65392,195.00721c1.69837,-5.01618 3.73388,-11.43644 3.73388,-11.43644c0,0 5.6384,-0.64546 8.19409,-0.06692c2.62484,0.59383 7.35245,3.58501 7.35245,3.58501c0,0 -0.93104,3.09291 -0.24998,5.58815c0.64229,2.35396 2.22824,9.03418 -1.63626,7.92355c-1.47743,-0.42461 0.04223,-2.482 -0.37008,-2.25767c-0.04562,0.02479 -2.20679,10.2705 -5.09666,8.75748c-3.19787,-1.67426 0.16179,-7.54767 -0.07931,-7.19139c-2.23101,3.2979 -1.93755,7.28258 -4.45562,5.93784c-4.7109,-1.11525 2.47587,-8.61756 1.38,-7.72497c-2.04697,1.66776 -3.06312,6.2457 -5.97777,5.50183c-5.4758,-1.17841 2.6655,-6.12873 1.26525,-5.33637c-2.64503,1.49655 -3.02446,3.76785 -6.25947,2.0551c-1.11376,-0.33778 1.32563,-2.75427 2.19947,-5.33521z" data-paper-data="{&quot;index&quot;:null}" fill="#786274"/></g><g data-paper-data="{&quot;index&quot;:null}" stroke="#000000" stroke-width="0" stroke-linecap="butt"><path d="M145.29972,215.98046c0,0 1.04067,-7.25541 -1.08814,-15.47013c-0.51193,-1.97551 -1.66571,-8.52058 -2.21448,-10.54492c-1.29871,-4.79097 -3.15585,-9.39197 -3.86939,-12.34768c-1.53471,-6.35707 -5.37075,-14.7853 -5.37075,-14.7853c0,0 -16.14524,-32.14841 -1.85209,-35.10777c10.01109,-5.7159 12.18785,9.1764 16.54867,22.91188c3.65725,11.51945 6.26933,23.0626 6.60624,24.45834c0.66394,2.75071 1.12597,7.90083 1.96238,12.19871c0.3748,1.92684 0.63404,10.39219 1.06996,15.54639c0.7259,8.58134 2.21629,13.67402 2.21629,13.67402z" fill="#b8bda6"/><path d="M160.5083,227.73585c-0.62019,-0.01489 0.55996,8.93735 -2.06328,9.03466c-1.29028,0.04788 -0.48444,-5.846 -2.38843,-7.72181c-1.00794,-0.99313 1.73025,10.1962 -1.72902,9.27522c-1.18754,-0.31615 -0.87821,-8.60903 -2.23522,-10.49345c-0.72649,-1.00862 1.00308,12.52053 -1.30889,12.01529c-1.37245,-0.30007 -0.57122,-7.89002 -1.71174,-11.20093c-0.55585,-1.61299 -0.48397,9.33217 -2.16819,8.66758c-1.03082,-0.4068 -1.75073,-11.06835 -1.86927,-11.18123c-0.66596,-0.63467 -2.38904,5.97292 -3.27738,4.46963c-1.63727,-2.77029 0.90322,-6.38014 2.86924,-9.74013c1.14902,-1.96332 1.0656,-4.80283 1.0656,-4.80283c0,0 4.69892,-1.45914 7.06384,-1.36318c2.3027,0.0931 6.94345,1.93066 6.94345,1.93066c0,0 2.12275,11.14201 0.80934,11.11022z" data-paper-data="{&quot;index&quot;:null}" fill="#786274"/></g><g><path d="M74.5131,297.66564l-3.1129,-86.007c0,0 16.14224,-7.9927 23.83946,-9.13409c9.1077,-1.35077 3.10158,10.4265 3.10158,10.4265c0,0 -7.72779,1.37245 -7.96132,5.09022c-0.71398,11.36902 4.21988,76.64574 4.21988,76.64574z" fill="#413a4a" stroke="#000000" stroke-width="0" stroke-linecap="butt"/><path d="M115.08914,304.61903c0,0 -0.24592,5.01323 -2.32135,5.32091c-1.48773,0.22075 -6.63118,1.0184 -11.83244,1.58308c-3.16201,0.34335 -5.00413,-0.84243 -7.3998,-0.85377c-3.01633,-0.01397 -7.29326,1.64702 -9.49611,1.48249c-4.05896,-0.30304 -6.2493,-1.06837 -6.2493,-1.06837c0,0 -1.05713,-2.47338 -1.30725,-3.87378c-0.33698,-1.88695 -0.53183,-6.42849 -0.53183,-6.42849c0,0 14.84953,-2.50901 20.73453,-2.86791c3.48229,-0.21229 10.88403,0.04472 10.88403,0.04472c0,0 3.89286,1.00167 4.58808,1.99466c0.85144,1.21596 2.93149,4.66643 2.93149,4.66643z" data-paper-data="{&quot;index&quot;:null}" fill="#12140d" stroke="#000000" stroke-width="0" stroke-linecap="butt"/><path d="M114.17296,303.12713c0,0 -0.96804,0.14366 -3.04349,0.45153c-0.62316,0.0926 2.3591,3.75856 -6.07517,4.32044c-7.96475,0.53061 -7.41073,-1.94903 -10.21287,-1.73999c-5.85884,0.43683 -6.2733,2.45651 -8.83911,2.44491c-0.89369,-0.00405 -1.32936,-0.09696 -4.84033,-1.77135c-2.41439,-1.15155 -2.32256,-4.14774 -4.06178,-5.50081c-2.54032,-1.97677 -2.73123,-4.43232 -2.73123,-4.43232l-1.32618,-7.62087c0,0 2.04194,5.35782 4.45457,7.11479c2.15863,1.57195 5.80797,-0.90944 7.0219,-1.08993c2.12561,-0.31576 -2.94529,-7.94588 -0.90622,-8.20159c1.09653,-0.13749 9.25664,-1.9732 9.25664,-1.9732c0,0 1.64125,8.93925 2.23356,8.9032c3.4822,-0.21246 11.79697,-0.09052 11.79697,-0.09052c0,0 3.89286,1.00167 4.58808,1.99466c0.85144,1.21596 2.68392,7.19137 2.68392,7.19137z" data-paper-data="{&quot;index&quot;:null}" fill="#1e1e26" stroke="#000000" stroke-width="0" stroke-linecap="butt"/><path d="M97.57586,295.2514l-6.28928,3.73206" fill="none" stroke="#c1ffce" stroke-width="0.5" stroke-linecap="round"/><path d="M102.14101,294.57453l-5.84961,4.59995" fill="none" stroke="#eaffc1" stroke-width="0.5" stroke-linecap="round"/><path d="M104.97041,294.77682l-3.11047,4.19376" fill="none" stroke="#ffb5b5" stroke-width="0.5" stroke-linecap="round"/><path d="M86.79907,289.69599l5.38772,-1.42118" fill="none" stroke="#7d967f" stroke-width="0.5" stroke-linecap="round"/><path d="M88.33222,291.64572l4.73393,-1.63513" fill="none" stroke="#966262" stroke-width="0.5" stroke-linecap="round"/></g><path d="M69.74834,210.33174c0,0 1.39342,-14.04421 1.01724,-27.76368c-0.25558,-9.32223 -2.34121,-17.86121 -2.3029,-24.20213c0.07181,-11.90152 1.80261,-33.91142 1.80261,-33.91142c0,0 9.44711,-0.83599 13.88281,0.40135c5.64666,1.57492 17.2491,8.28192 17.2491,8.28192c0,0 9.6861,-4.85273 14.60216,-5.57267c5.18721,-0.75941 15.75131,1.12867 15.75131,1.12867c0,0 -1.78336,23.31939 -2.78303,31.99734c-0.88459,7.67814 -3.36331,15.9643 -4.89314,27.31616c-1.577,11.69989 -2.19289,26.35438 -2.19289,26.35438c0,0 -6.84448,-2.42841 -13.958,-3.09246c-3.23052,-0.30157 -4.70991,2.23425 -7.7935,2.42639c-2.46473,0.15386 -6.56593,-2.01166 -8.90089,-2.26586c-1.76495,-0.19225 -5.08082,-1.69986 -6.33132,-1.79645c-2.5247,-0.19519 -4.24084,1.90842 -7.19927,2.10946c-3.43637,0.23385 -7.94983,-1.41141 -7.94983,-1.41141z" fill="#d1b0b0" stroke="#292e32" stroke-width="0" stroke-linecap="butt"/><g stroke="none" stroke-width="0" stroke-linecap="butt"><path d="M106.92749,154.18357l0.70905,-14.75434l19.27395,2.25425l-0.91007,13.19856z" fill="#f200ff"/><path d="M107.63651,139.42924l10.1147,1.18299c0.75024,1.66434 1.77169,3.18569 3.01145,4.50414c-0.90791,-0.2171 -1.84685,-0.3593 -2.81047,-0.41939c-3.98919,-0.24866 -7.73382,0.95186 -10.7201,3.1482z" fill="#eeff00"/><path d="M118.20013,154.5964c0.58169,-5.47015 -1.72159,-10.99274 -5.84452,-14.61524l12.64135,1.4785c-1.51337,2.30306 -2.46556,5.01973 -2.6493,7.96715c-0.11534,1.85017 0.08107,3.64772 0.54395,5.3414z" fill="#00ff5f"/><path d="M123.02894,154.77323l-13.63243,-0.49922c3.65841,-1.02576 6.82487,-3.29688 8.97907,-6.35402c1.65366,1.7888 3.70537,3.21279 6.02619,4.12582c-0.53772,0.85751 -0.99876,1.76963 -1.37284,2.72738z" fill="#004fff"/><path d="M106.92745,154.18359l0.70902,-14.75438l4.77897,0.55896c-1.50738,2.29968 -2.45564,5.0107 -2.63897,7.95143c-0.13923,2.23337 0.1758,4.39011 0.86549,6.38002z" fill="#ff0000"/><path d="M126.54323,147.0094l-0.54284,7.87265l-7.0926,-0.25973c0.51328,-1.05066 0.91812,-2.16642 1.19914,-3.33364c2.46996,-0.89805 4.67399,-2.3762 6.43631,-4.27926z" fill="#00efff"/><path d="M126.91047,141.68346l-0.91009,13.19857l-0.47849,-0.01752c0.22774,-5.8309 -2.63475,-11.09903 -7.15382,-14.18014z" fill="#9c00ff"/></g><g data-paper-data="{&quot;index&quot;:null}" stroke-linecap="butt"><path d="M134.2913,93.233c-4.46252,19.1015 -22.25643,31.27464 -39.74434,27.18927c-17.48805,-4.0853 -28.04746,-22.88193 -23.58488,-41.98378c4.46254,-19.10151 22.25643,-31.27464 39.74448,-27.18925c17.48805,4.0853 28.04746,22.88193 23.58488,41.98378z" fill="url(#color-18)" stroke="none" stroke-width="0"/><path d="M91.28615,57.38567c-0.42862,-0.05984 -1.53472,-0.19648 -2.74892,-0.26743c-1.40919,0.21135 -3.03589,0.37926 -4.32097,0.67831c-1.22945,2.03885 0.90166,4.91885 -3.04509,5.73819c-6.73151,1.3967 -3.06442,-6.02836 -0.46513,-8.02157c3.77833,-2.00061 8.4826,-1.24757 12.64442,-1.08216c5.73259,0.22804 11.4581,-0.14607 16.95971,0.78991c0.25374,-0.16546 0.56588,-0.24307 0.88916,-0.19767l1.47877,0.20784c0.77473,-0.02148 1.61444,-0.03637 2.4917,-0.03054c2.32339,-0.17089 5.01137,0.08591 7.49231,0.42487c1.24511,0.04432 2.38637,0.19528 3.28935,0.49373c0.68831,0.108 1.32878,0.2081 1.90276,0.2884l1.55881,0.21884c0.70994,0.09978 1.20458,0.75579 1.10504,1.46609c-0.08887,0.63196 -0.61841,1.09331 -1.23423,1.11711l-0.87101,0.05081c0.2878,0.38474 0.53256,0.80505 0.72754,1.26347l0.64726,-0.15944l0.39758,1.6178c0.04431,0.16409 0.05721,0.33978 0.03216,0.51893c-0.09976,0.70994 -0.75579,1.20458 -1.46609,1.10504c-0.21581,-0.03019 -0.41239,-0.11201 -0.57758,-0.23117l-1.13793,-0.78382l0.02315,-0.03343l-0.11603,-0.03684c-0.76537,-0.76185 -1.57825,-1.39155 -2.42148,-1.88604c-1.37082,-0.37243 -2.7895,-0.86344 -4.2435,-1.3306c-2.60772,-0.15443 -5.24032,0.86668 -7.48042,3.12771c0,0 -0.91572,0.92003 -1.83588,0.00445c-0.92003,-0.91572 -0.00445,-1.83588 -0.00445,-1.83588c0.19559,-0.19569 0.39433,-0.38437 0.59597,-0.56519l-0.75385,0.05976c-0.10119,0.01001 -0.20578,0.00846 -0.31108,-0.00619c-0.70994,-0.09978 -1.20458,-0.75579 -1.10504,-1.46609c0.05044,-0.35941 0.24332,-0.66352 0.51388,-0.86347c-0.606,-0.14036 -1.18554,-0.2408 -1.7,-0.23445c-3.59352,0.04459 -8.87827,-0.89638 -13.9787,-1.29077c-0.11143,0.60234 -0.62779,1.03721 -1.22515,1.06013l-1.5787,0.09167l-0.00294,-0.05106l-0.01962,0.00049z" fill="url(#color-19)" stroke="none" stroke-width="0.5"/><path d="M130.73378,56.87934c6.8573,0.86157 6.776,0.94843 6.25054,5.59442c-0.52533,4.64585 -3.87245,7.85504 -7.47553,7.16781c-3.60308,-0.68748 -6.09788,-5.0115 -5.57239,-9.65745c0.5253,-4.64586 0.36718,-3.91266 6.79758,-3.1049z" data-paper-data="{&quot;index&quot;:null}" fill="url(#color-20)" stroke="#000000" stroke-width="0"/><path d="M112.8298,59.68229c-0.26596,5.12684 -5.17183,9.03958 -10.95756,8.73898c-5.78565,-0.30011 -10.26032,-4.69964 -9.99414,-9.82626c0.26596,-5.12684 0.15936,-5.24349 11.06581,-4.19328c10.22734,0.98462 10.15153,0.15366 9.88572,5.28051z" fill="url(#color-21)" stroke="#000000" stroke-width="0"/><path d="M112.98274,111.01194c-27.33795,0.46626 -29.42821,-15.12934 -29.11969,-24.62637c0.30868,-9.4969 16.70628,-16.90184 30.50151,-16.45364c13.79523,0.44822 26.28988,10.1766 25.98125,19.67347c0,0 2.87132,21.1759 -27.36308,21.40632z" data-paper-data="{&quot;index&quot;:null}" fill="url(#color-22)" stroke="#ed6b00" stroke-width="0"/><path d="M112.98275,111.01196c-21.785,0.37156 -27.53737,-9.4564 -28.81929,-18.27006c2.78688,4.6484 7.81859,7.81555 13.6378,7.96629c9.04576,0.23434 16.56878,-6.9087 16.80316,-15.95448c0.15616,-6.02769 -2.96344,-11.37923 -7.73897,-14.34864c2.51196,-0.38437 5.04667,-0.55289 7.49911,-0.47318c4.20491,0.13663 8.28901,1.13544 11.92648,2.72713c1.87459,5.56673 6.66509,9.82042 12.59744,10.89277c0.99984,1.96582 1.52353,4.015 1.45729,6.05359c0,0 0.11627,0.85742 0.05564,2.22913c-1.46873,-0.47791 -3.03029,-0.75454 -4.65309,-0.79657c-9.04576,-0.23434 -16.56878,6.9087 -16.80316,15.95448c-0.03225,1.24397 0.07505,2.4591 0.30763,3.63048c-1.9133,0.23602 -3.99822,0.37158 -6.27009,0.38886z" data-paper-data="{&quot;index&quot;:null}" fill="url(#color-23)" stroke="#ed6b00" stroke-width="0"/><path d="M114.36455,69.93194c4.69812,0.15263 9.24545,1.38162 13.18751,3.31127c-0.74025,1.71194 -1.19749,3.5774 -1.31151,5.53911c-2.88449,-4.06126 -7.57869,-6.76215 -12.94168,-6.90109c-9.04575,-0.23434 -16.56877,6.90872 -16.80316,15.95448c-0.15708,6.06438 3.00156,11.44438 7.8264,14.40258c-2.48785,1.76851 -4.46472,4.21627 -5.65413,7.08088c-2.79004,-0.85695 -5.06691,-1.9992 -6.92215,-3.338c2.23889,-2.72113 3.62046,-6.18172 3.71877,-9.97724c0.17413,-6.7204 -3.72376,-12.60035 -9.44858,-15.27537c4.93311,-6.60553 17.45249,-11.15056 28.34846,-10.79656z" data-paper-data="{&quot;index&quot;:null}" fill="url(#color-24)" stroke="#ed6b00" stroke-width="0"/><path d="M129.23091,89.2202c2.44662,3.44479 6.19523,5.91079 10.54958,6.66491c-1.09452,4.1172 -3.97358,9.29416 -11.31089,12.40041c-1.37355,-2.74766 -3.49829,-5.06083 -6.11196,-6.66331c3.92248,-2.78831 6.57474,-7.26523 6.87323,-12.40204z" data-paper-data="{&quot;index&quot;:null}" fill="url(#color-25)" stroke="#ed6b00" stroke-width="0"/><path d="M109.95617,98.88156c0.06014,-0.24105 -0.65236,-1.39855 -0.82292,-1.75825c-2.08052,-4.38865 -3.58792,-9.08712 -6.17641,-13.19669c-0.24451,-0.38823 -1.9017,-0.18304 -2.65229,-0.25207c-4.5965,-0.42263 -9.17161,-1.44678 -13.78549,-1.31021c-0.59075,0.01749 -1.19478,0.20343 -1.80324,0.5268c1.51462,-3.29256 4.91802,-6.19679 9.25573,-8.41856c2.87275,4.16089 7.62567,6.93933 13.06718,7.08029c7.02408,0.182 13.13002,-4.08434 15.61818,-10.23565c6.21707,1.89004 11.56115,5.51465 14.70335,9.77501c-2.31021,-1.3547 -4.9857,-2.16091 -7.85226,-2.23517c-9.04576,-0.23434 -16.56878,6.9087 -16.80316,15.95448c-0.05813,2.24413 0.33778,4.39461 1.10418,6.36328c-2.35223,0.7337 -4.48127,1.98467 -6.25013,3.62275c1.17673,-2.28791 2.01873,-4.39923 2.39726,-5.91601z" data-paper-data="{&quot;index&quot;:null}" fill="url(#color-26)" stroke="#ed6b00" stroke-width="0"/><path d="M112.98274,111.012c-27.33797,0.46627 -29.42821,-15.12934 -29.11969,-24.62637c0.01342,-0.41281 0.05723,-0.82167 0.12991,-1.22615c0.00351,3.04615 1.01137,6.29552 2.07292,8.61636c0.10972,0.23987 0.22554,0.47885 0.34732,0.71691c1.46674,6.7375 7.09125,11.96569 14.11212,12.77636c5.29351,2.56551 11.12367,3.82671 16.15118,2.94254c8.67044,-1.52489 16.45132,-2.374 16.80316,-15.95448c0.14258,-5.50208 -4.02836,-10.55228 -7.81812,-14.54365c-2.20917,-2.32668 -6.63243,-0.58312 -9.34851,-2.29095c-1.30216,-3.04262 -3.50076,-5.61821 -6.27188,-7.38563c1.45511,-0.11406 2.90308,-0.15118 4.32342,-0.10503c5.10495,0.16585 10.03175,1.60253 14.19762,3.82802c-0.01584,0.23237 -0.02683,0.46613 -0.03292,0.70117c-0.19786,7.63608 4.86148,14.18698 11.88468,16.18434c0.026,1.03672 -0.03467,2.76298 -0.51848,4.78463c-4.28873,2.27129 -7.46125,6.39514 -8.42412,11.33338c-4.0676,2.4522 -9.96139,4.18328 -18.48857,4.24829z" data-paper-data="{&quot;index&quot;:null}" fill="url(#color-27)" stroke="#ed6b00" stroke-width="0"/></g></g><path d="M-11.98828,369.05082l1,-377l160.91797,-0.53253l0.08203,9.53253c0,0 -39.46962,6.29142 -75.5582,25.97667c-26.80308,14.62028 -51.53474,44.21584 -49.36246,61.1415c8.78971,68.48644 35.92067,279.88184 35.92067,279.88184z" fill="url(#color-28)" stroke="none" stroke-width="0" stroke-linecap="butt"/></g></g></svg>