<svg version="1.1" xmlns="http://www.w3.org/2000/svg" xmlns:xlink="http://www.w3.org/1999/xlink" width="687.08144" height="653.83548" viewBox="0,0,687.08144,653.83548"><defs><radialGradient cx="188.40462" cy="231.93626" r="319.14583" gradientUnits="userSpaceOnUse" id="color-1"><stop offset="0" stop-color="#2e122d" stop-opacity="0.03922"/><stop offset="1" stop-color="#271029"/></radialGradient><radialGradient cx="451.98038" cy="251.77751" r="72.28971" gradientUnits="userSpaceOnUse" id="color-2"><stop offset="0" stop-color="#33266a"/><stop offset="1" stop-color="#949074"/></radialGradient><linearGradient x1="451.91634" y1="181.80977" x2="449.72794" y2="203.64211" gradientUnits="userSpaceOnUse" id="color-3"><stop offset="0" stop-color="#694444"/><stop offset="1" stop-color="#98a1b9"/></linearGradient><radialGradient cx="472.01373" cy="110.91288" r="42.01394" gradientUnits="userSpaceOnUse" id="color-4"><stop offset="0" stop-color="#dcdcdc"/><stop offset="1" stop-color="#a0a0a0"/></radialGradient><radialGradient cx="442.62618" cy="136.42239" r="25.17693" gradientUnits="userSpaceOnUse" id="color-5"><stop offset="0" stop-color="#d1ffc4"/><stop offset="1" stop-color="#2188ff"/></radialGradient><radialGradient cx="442.62618" cy="136.42239" r="25.17693" gradientUnits="userSpaceOnUse" id="color-6"><stop offset="0" stop-color="#ceffc4"/><stop offset="1" stop-color="#ff21cc"/></radialGradient><radialGradient cx="442.62618" cy="136.42239" r="25.17693" gradientUnits="userSpaceOnUse" id="color-7"><stop offset="0" stop-color="#ffe9c4"/><stop offset="1" stop-color="#4fff21"/></radialGradient><radialGradient cx="442.62618" cy="136.42239" r="25.17693" gradientUnits="userSpaceOnUse" id="color-8"><stop offset="0" stop-color="#ffe9c4"/><stop offset="1" stop-color="#4fff21"/></radialGradient><radialGradient cx="442.6262" cy="136.42239" r="25.17693" gradientUnits="userSpaceOnUse" id="color-9"><stop offset="0" stop-color="#ffe9c4"/><stop offset="1" stop-color="#ffa321"/></radialGradient><radialGradient cx="442.62623" cy="136.42239" r="25.17693" gradientUnits="userSpaceOnUse" id="color-10"><stop offset="0" stop-color="#c4f0ff"/><stop offset="1" stop-color="#3d21ff"/></radialGradient><radialGradient cx="480.81393" cy="107.42452" r="32.25348" gradientUnits="userSpaceOnUse" id="color-11"><stop offset="0" stop-color="#1c2f30"/><stop offset="1" stop-color="#142913"/></radialGradient><radialGradient cx="427.58049" cy="101.2486" r="8.48965" gradientUnits="userSpaceOnUse" id="color-12"><stop offset="0" stop-color="#786c41"/><stop offset="1" stop-color="#141a29"/></radialGradient><radialGradient cx="463.71984" cy="105.46169" r="13.36523" gradientUnits="userSpaceOnUse" id="color-13"><stop offset="0" stop-color="#7ba676"/><stop offset="1" stop-color="#291616"/></radialGradient></defs><g transform="translate(143.24121,94.98148)"><g data-paper-data="{&quot;isPaintingLayer&quot;:true}" fill-rule="nonzero" stroke-linejoin="miter" stroke-miterlimit="10" stroke-dasharray="" stroke-dashoffset="0" style="mix-blend-mode: normal"><path d="M-10.5,370.73968v-381.47936h501v381.47936z" fill="#000000" stroke="none" stroke-width="0" stroke-linecap="butt"/><g stroke="none" stroke-width="0.5" stroke-linecap="butt"><path d="M50.40547,82.07259c0,-0.3592 0.2912,-0.65041 0.65041,-0.65041c0.3592,0 0.65041,0.2912 0.65041,0.65041c0,0.35921 -0.2912,0.65041 -0.65041,0.65041c-0.3592,0 -0.65041,-0.2912 -0.65041,-0.65041z" fill-opacity="0.17162" fill="#ffffff"/><path d="M145.36492,50.85304c0,0.65041 -0.65041,0.65041 -0.65041,0.65041h-1.30082c0,0 -0.65041,0 -0.65041,-0.65041c0,-0.65041 0.65041,-0.65041 0.65041,-0.65041h1.30082c0,0 0.65041,0 0.65041,0.65041z" fill-opacity="0.17162" fill="#ffffff"/><path d="M222.11298,108.08889c0,-0.3592 0.2912,-0.65041 0.65041,-0.65041c0.3592,0 0.65041,0.2912 0.65041,0.65041c0,0.3592 -0.2912,0.65041 -0.65041,0.65041c-0.3592,0 -0.65041,-0.2912 -0.65041,-0.65041z" fill-opacity="0.17162" fill="#ffffff"/><path d="M119.34863,141.91006c0,-0.3592 0.2912,-0.65041 0.65041,-0.65041c0.3592,0 0.65041,0.2912 0.65041,0.65041c0,0.3592 -0.2912,0.65041 -0.65041,0.65041c-0.3592,0 -0.65041,-0.2912 -0.65041,-0.65041z" fill-opacity="0.17162" fill="#ffffff"/><path d="M20.48673,209.55242c0,-0.3592 0.2912,-0.65041 0.65041,-0.65041c0.3592,0 0.65041,0.2912 0.65041,0.65041c0,0.3592 -0.2912,0.65041 -0.65041,0.65041c-0.3592,0 -0.65041,-0.2912 -0.65041,-0.65041z" fill-opacity="0.17162" fill="#ffffff"/><path d="M202.60076,269.38988c0,-0.35921 0.2912,-0.65041 0.65041,-0.65041c0.3592,0 0.65041,0.2912 0.65041,0.65041c0,0.35921 -0.2912,0.65041 -0.65041,0.65041c-0.3592,0 -0.65041,-0.2912 -0.65041,-0.65041z" fill-opacity="0.17162" fill="#ffffff"/><path d="M53.0071,307.1135c0,-0.35921 0.2912,-0.65041 0.65041,-0.65041c0.3592,0 0.65041,0.2912 0.65041,0.65041c0,0.35921 -0.2912,0.65041 -0.65041,0.65041c-0.3592,0 -0.65041,-0.2912 -0.65041,-0.65041z" fill-opacity="0.17162" fill="#ffffff"/><path d="M237.72275,369.55258c0,-0.35921 0.2912,-0.65041 0.65041,-0.65041c0.35921,0 0.65041,0.2912 0.65041,0.65041c0,0.35921 -0.2912,0.65041 -0.65041,0.65041c-0.35921,0 -0.65041,-0.2912 -0.65041,-0.65041z" fill-opacity="0.17162" fill="#ffffff"/><path d="M375.60909,286.30047c0,-0.35921 0.2912,-0.65041 0.65041,-0.65041c0.35921,0 0.65041,0.2912 0.65041,0.65041c0,0.35921 -0.2912,0.65041 -0.65041,0.65041c-0.35921,0 -0.65041,-0.2912 -0.65041,-0.65041z" fill-opacity="0.17162" fill="#ffffff"/><path d="M301.46267,186.13776c0,-0.3592 0.2912,-0.65041 0.65041,-0.65041c0.35921,0 0.65041,0.2912 0.65041,0.65041c0,0.3592 -0.2912,0.65041 -0.65041,0.65041c-0.35921,0 -0.65041,-0.2912 -0.65041,-0.65041z" fill-opacity="0.17162" fill="#ffffff"/><path d="M412.03189,126.30028c0,-0.3592 0.2912,-0.65041 0.65041,-0.65041c0.3592,0 0.65041,0.2912 0.65041,0.65041c0,0.3592 -0.2912,0.65041 -0.65041,0.65041c-0.3592,0 -0.65041,-0.2912 -0.65041,-0.65041z" fill-opacity="0.17162" fill="#ffffff"/><path d="M276.74719,20.93431c0,-0.3592 0.2912,-0.65041 0.65041,-0.65041c0.35921,0 0.65041,0.2912 0.65041,0.65041c0,0.3592 -0.2912,0.65041 -0.65041,0.65041c-0.35921,0 -0.65041,-0.2912 -0.65041,-0.65041z" fill-opacity="0.17162" fill="#ffffff"/><path d="M196.09669,-10.28523c0,-0.3592 0.2912,-0.65041 0.65041,-0.65041c0.3592,0 0.65041,0.2912 0.65041,0.65041c0,0.3592 -0.2912,0.65041 -0.65041,0.65041c-0.3592,0 -0.65041,-0.2912 -0.65041,-0.65041z" fill-opacity="0.17162" fill="#ffffff"/><path d="M16.58429,22.23511c0,-0.3592 0.2912,-0.65041 0.65041,-0.65041c0.3592,0 0.65041,0.2912 0.65041,0.65041c0,0.3592 -0.2912,0.65041 -0.65041,0.65041c-0.3592,0 -0.65041,-0.2912 -0.65041,-0.65041z" fill-opacity="0.17162" fill="#ffffff"/><path d="M438.04818,30.04001c0,-0.3592 0.2912,-0.65041 0.65041,-0.65041c0.3592,0 0.65041,0.2912 0.65041,0.65041c0,0.3592 -0.2912,0.65041 -0.65041,0.65041c-0.3592,0 -0.65041,-0.2912 -0.65041,-0.65041z" fill-opacity="0.17162" fill="#ffffff"/><path d="M443.25143,225.16219c0,-0.3592 0.2912,-0.65041 0.65041,-0.65041c0.3592,0 0.65041,0.2912 0.65041,0.65041c0,0.3592 -0.2912,0.65041 -0.65041,0.65041c-0.3592,0 -0.65041,-0.2912 -0.65041,-0.65041z" fill-opacity="0.17162" fill="#ffffff"/><path d="M113.16977,98.98317c0,-0.1796 0.1456,-0.32521 0.32521,-0.32521c0.1796,0 0.3252,0.1456 0.3252,0.32521c0,0.1796 -0.14559,0.32521 -0.3252,0.32521c-0.1796,0 -0.32521,-0.1456 -0.32521,-0.32521z" fill-opacity="0.17162" fill="#ffffff"/><path d="M-0.00111,135.40598c0,-0.1796 0.14559,-0.32521 0.3252,-0.32521c0.1796,0 0.3252,0.1456 0.3252,0.32521c0,0.1796 -0.14559,0.32521 -0.3252,0.32521c-0.1796,0 -0.3252,-0.1456 -0.3252,-0.32521z" fill-opacity="0.17162" fill="#ffffff"/><path d="M92.35673,193.94265c0,-0.1796 0.1456,-0.3252 0.32521,-0.3252c0.1796,0 0.3252,0.14559 0.3252,0.3252c0,0.1796 -0.14559,0.32521 -0.3252,0.32521c-0.1796,0 -0.32521,-0.1456 -0.32521,-0.32521z" fill-opacity="0.17162" fill="#ffffff"/><path d="M-2.60272,258.98334c0,-0.1796 0.1456,-0.32521 0.32521,-0.32521c0.1796,0 0.3252,0.1456 0.3252,0.32521c0,0.1796 -0.14559,0.3252 -0.3252,0.3252c-0.1796,0 -0.32521,-0.14559 -0.32521,-0.3252z" fill-opacity="0.17162" fill="#ffffff"/><path d="M144.38932,324.0241c0,-0.1796 0.1456,-0.3252 0.3252,-0.3252c0.1796,0 0.3252,0.14559 0.3252,0.3252c0,0.1796 -0.1456,0.32521 -0.3252,0.32521c-0.1796,0 -0.3252,-0.1456 -0.3252,-0.32521z" fill-opacity="0.17162" fill="#ffffff"/><path d="M84.55185,356.54447c0,-0.1796 0.1456,-0.32521 0.32521,-0.32521c0.1796,0 0.3252,0.1456 0.3252,0.32521c0,0.1796 -0.14559,0.32521 -0.3252,0.32521c-0.1796,0 -0.32521,-0.1456 -0.32521,-0.32521z" fill-opacity="0.17162" fill="#ffffff"/><path d="M214.63329,187.43857c0,-0.1796 0.14559,-0.3252 0.3252,-0.3252c0.1796,0 0.3252,0.14559 0.3252,0.3252c0,0.1796 -0.14559,0.32521 -0.3252,0.32521c-0.1796,0 -0.3252,-0.1456 -0.3252,-0.32521z" fill-opacity="0.17162" fill="#ffffff"/><path d="M287.47891,264.18661c0,-0.1796 0.14559,-0.32521 0.3252,-0.32521c0.1796,0 0.32521,0.1456 0.32521,0.32521c0,0.1796 -0.1456,0.3252 -0.32521,0.3252c-0.1796,0 -0.3252,-0.14559 -0.3252,-0.3252z" fill-opacity="0.17162" fill="#ffffff"/><path d="M277.07239,337.03224c0,-0.1796 0.1456,-0.3252 0.32521,-0.3252c0.1796,0 0.3252,0.14559 0.3252,0.3252c0,0.1796 -0.14559,0.32521 -0.3252,0.32521c-0.1796,0 -0.32521,-0.1456 -0.32521,-0.32521z" fill-opacity="0.17162" fill="#ffffff"/><path d="M388.94243,344.83713c0,-0.1796 0.1456,-0.3252 0.32521,-0.3252c0.1796,0 0.3252,0.14559 0.3252,0.3252c0,0.1796 -0.14559,0.32521 -0.3252,0.32521c-0.1796,0 -0.32521,-0.1456 -0.32521,-0.32521z" fill-opacity="0.17162" fill="#ffffff"/><path d="M357.72289,221.25974c0,-0.1796 0.14559,-0.3252 0.3252,-0.3252c0.1796,0 0.32521,0.14559 0.32521,0.3252c0,0.1796 -0.1456,0.32521 -0.32521,0.32521c-0.1796,0 -0.3252,-0.1456 -0.3252,-0.32521z" fill-opacity="0.17162" fill="#ffffff"/><path d="M431.86931,165.32472c0,-0.1796 0.1456,-0.3252 0.32521,-0.3252c0.1796,0 0.3252,0.14559 0.3252,0.3252c0,0.1796 -0.14559,0.3252 -0.3252,0.3252c-0.1796,0 -0.32521,-0.14559 -0.32521,-0.3252z" fill-opacity="0.17162" fill="#ffffff"/><path d="M308.29194,96.38155c0,-0.1796 0.1456,-0.32521 0.32521,-0.32521c0.1796,0 0.3252,0.1456 0.3252,0.32521c0,0.1796 -0.14559,0.32521 -0.3252,0.32521c-0.1796,0 -0.32521,-0.1456 -0.32521,-0.32521z" fill-opacity="0.17162" fill="#ffffff"/><path d="M226.34063,22.23511c0,-0.1796 0.14559,-0.3252 0.3252,-0.3252c0.1796,0 0.3252,0.1456 0.3252,0.3252c0,0.1796 -0.14559,0.32521 -0.3252,0.32521c-0.1796,0 -0.3252,-0.1456 -0.3252,-0.32521z" fill-opacity="0.17162" fill="#ffffff"/><path d="M327.80416,4.02373c0,-0.1796 0.1456,-0.3252 0.32521,-0.3252c0.1796,0 0.3252,0.1456 0.3252,0.3252c0,0.1796 -0.14559,0.32521 -0.3252,0.32521c-0.1796,0 -0.32521,-0.1456 -0.32521,-0.32521z" fill-opacity="0.17162" fill="#ffffff"/><path d="M85.85266,4.02373c0,-0.1796 0.14559,-0.3252 0.3252,-0.3252c0.1796,0 0.32521,0.1456 0.32521,0.3252c0,0.1796 -0.1456,0.32521 -0.32521,0.32521c-0.1796,0 -0.3252,-0.1456 -0.3252,-0.32521z" fill-opacity="0.17162" fill="#ffffff"/><path d="M440.97502,57.35711c0,-0.1796 0.1456,-0.32521 0.32521,-0.32521c0.1796,0 0.3252,0.1456 0.3252,0.32521c0,0.1796 -0.14559,0.3252 -0.3252,0.3252c-0.1796,0 -0.32521,-0.14559 -0.32521,-0.3252z" fill-opacity="0.17162" fill="#ffffff"/><path d="M-9.10681,93.77992c0,-0.1796 0.14559,-0.32521 0.3252,-0.32521c0.1796,0 0.3252,0.1456 0.3252,0.32521c0,0.1796 -0.14559,0.32521 -0.3252,0.32521c-0.1796,0 -0.3252,-0.1456 -0.3252,-0.32521z" fill-opacity="0.17162" fill="#ffffff"/><path d="M45.5274,162.72308c0,-0.1796 0.1456,-0.3252 0.32521,-0.3252c0.1796,0 0.3252,0.14559 0.3252,0.3252c0,0.1796 -0.14559,0.32521 -0.3252,0.32521c-0.1796,0 -0.32521,-0.1456 -0.32521,-0.32521z" fill-opacity="0.17162" fill="#ffffff"/><path d="M143.0885,180.93448c0,-0.1796 0.1456,-0.3252 0.32521,-0.3252c0.1796,0 0.3252,0.14559 0.3252,0.3252c0,0.1796 -0.1456,0.3252 -0.3252,0.3252c-0.1796,0 -0.32521,-0.14559 -0.32521,-0.3252z" fill-opacity="0.17162" fill="#ffffff"/><path d="M196.4219,134.10518c0,-0.1796 0.1456,-0.32521 0.32521,-0.32521c0.1796,0 0.3252,0.1456 0.3252,0.32521c0,0.1796 -0.14559,0.3252 -0.3252,0.3252c-0.1796,0 -0.32521,-0.1456 -0.32521,-0.3252z" fill-opacity="0.17162" fill="#ffffff"/><path d="M173.00723,75.56851c0,-0.1796 0.14559,-0.3252 0.3252,-0.3252c0.1796,0 0.3252,0.14559 0.3252,0.3252c0,0.1796 -0.14559,0.32521 -0.3252,0.32521c-0.1796,0 -0.3252,-0.14559 -0.3252,-0.32521z" fill-opacity="0.17162" fill="#ffffff"/><path d="M235.44633,56.05631c0,-0.1796 0.1456,-0.32521 0.32521,-0.32521c0.1796,0 0.3252,0.1456 0.3252,0.32521c0,0.1796 -0.14559,0.32521 -0.3252,0.32521c-0.1796,0 -0.32521,-0.1456 -0.32521,-0.32521z" fill-opacity="0.17162" fill="#ffffff"/><path d="M65.03963,37.8449c0,-0.1796 0.1456,-0.3252 0.32521,-0.3252c0.1796,0 0.3252,0.1456 0.3252,0.3252c0,0.1796 -0.14559,0.3252 -0.3252,0.3252c-0.1796,0 -0.32521,-0.1456 -0.32521,-0.3252z" fill-opacity="0.17162" fill="#ffffff"/><path d="M145.69013,14.43023c0,-0.1796 0.1456,-0.32521 0.3252,-0.32521c0.1796,0 0.32521,0.1456 0.32521,0.32521c0,0.1796 -0.1456,0.32521 -0.32521,0.32521c-0.1796,0 -0.3252,-0.1456 -0.3252,-0.32521z" fill-opacity="0.17162" fill="#ffffff"/><path d="M240.64959,-6.38279c0,-0.1796 0.1456,-0.32521 0.32521,-0.32521c0.1796,0 0.32521,0.1456 0.32521,0.32521c0,0.1796 -0.1456,0.3252 -0.32521,0.3252c-0.1796,0 -0.32521,-0.14559 -0.32521,-0.3252z" fill-opacity="0.17162" fill="#ffffff"/><path d="M351.21882,109.38967c0,-0.1796 0.1456,-0.32521 0.32521,-0.32521c0.1796,0 0.32521,0.1456 0.32521,0.32521c0,0.1796 -0.1456,0.32521 -0.32521,0.32521c-0.1796,0 -0.32521,-0.1456 -0.32521,-0.32521z" fill-opacity="0.17162" fill="#ffffff"/><path d="M277.07239,152.31658c0,-0.1796 0.1456,-0.32521 0.32521,-0.32521c0.1796,0 0.3252,0.1456 0.3252,0.32521c0,0.1796 -0.14559,0.3252 -0.3252,0.3252c-0.1796,0 -0.32521,-0.14559 -0.32521,-0.3252z" fill-opacity="0.17162" fill="#ffffff"/><path d="M383.73918,205.64997c0,-0.3252 0.3252,-0.32521 0.3252,-0.32521c0.2168,0 1.08402,0 1.30082,0c0,0 0.3252,0.00001 0.3252,0.32521c0,0.3252 -0.3252,0.3252 -0.3252,0.3252c-0.2168,0 -0.43361,0 -0.65041,0h-0.65041c0,0 -0.3252,0 -0.3252,-0.3252z" fill-opacity="0.17162" fill="#ffffff"/><path d="M333.00741,264.18661c0,-0.1796 0.1456,-0.32521 0.32521,-0.32521c0.1796,0 0.32521,0.1456 0.32521,0.32521c0,0.1796 -0.1456,0.3252 -0.32521,0.3252c-0.1796,0 -0.32521,-0.14559 -0.32521,-0.3252z" fill-opacity="0.17162" fill="#ffffff"/><path d="M196.4219,232.96708c0,-0.1796 0.1456,-0.32521 0.32521,-0.32521c0.1796,0 0.3252,0.1456 0.3252,0.32521c0,0.1796 -0.14559,0.32521 -0.3252,0.32521c-0.1796,0 -0.32521,-0.1456 -0.32521,-0.32521z" fill-opacity="0.17162" fill="#ffffff"/><path d="M106.66569,244.6744c0,-0.1796 0.1456,-0.32521 0.32521,-0.32521c0.1796,0 0.32521,0.1456 0.32521,0.32521c0,0.1796 -0.1456,0.3252 -0.32521,0.3252c-0.1796,0 -0.32521,-0.14559 -0.32521,-0.3252z" fill-opacity="0.17162" fill="#ffffff"/><path d="M123.57628,344.83713c0,-0.1796 0.1456,-0.3252 0.32521,-0.3252c0.1796,0 0.3252,0.14559 0.3252,0.3252c0,0.1796 -0.1456,0.32521 -0.3252,0.32521c-0.1796,0 -0.32521,-0.1456 -0.32521,-0.32521z" fill-opacity="0.17162" fill="#ffffff"/><path d="M15.60868,316.21921c0,-0.1796 0.1456,-0.32521 0.32521,-0.32521c0.1796,0 0.3252,0.1456 0.3252,0.32521c0,0.1796 -0.1456,0.32521 -0.3252,0.32521c-0.1796,0 -0.32521,-0.1456 -0.32521,-0.32521z" fill-opacity="0.17162" fill="#ffffff"/><path d="M321.30009,344.83713c0,-0.1796 0.1456,-0.3252 0.32521,-0.3252c0.1796,0 0.3252,0.14559 0.3252,0.3252c0,0.1796 -0.14559,0.32521 -0.3252,0.32521c-0.1796,0 -0.32521,-0.1456 -0.32521,-0.32521z" fill-opacity="0.17162" fill="#ffffff"/><path d="M-19.51331,190.0402c0,-0.1796 0.14559,-0.3252 0.3252,-0.3252c0.1796,0 0.32521,0.14559 0.32521,0.3252c0,0.1796 -0.1456,0.3252 -0.32521,0.3252c-0.1796,0 -0.3252,-0.14559 -0.3252,-0.3252z" fill-opacity="0.17162" fill="#ffffff"/><path d="M444.87745,96.38155c0,-0.1796 0.1456,-0.32521 0.32521,-0.32521c0.1796,0 0.3252,0.1456 0.3252,0.32521c0,0.1796 -0.14559,0.32521 -0.3252,0.32521c-0.1796,0 -0.32521,-0.1456 -0.32521,-0.32521z" fill-opacity="0.17162" fill="#ffffff"/><path d="M57.55994,279.57963c0.3592,0 0.65041,0.2912 0.65041,0.65041c0,0.3592 -0.2912,0.65041 -0.65041,0.65041c-0.3592,0 -0.65041,-0.2912 -0.65041,-0.65041c0,-0.3592 0.2912,-0.65041 0.65041,-0.65041z" fill-opacity="0.83137" fill="#ffffff"/><path d="M151.21859,312.09998h-1.30082c0,0 -0.65041,0 -0.65041,-0.65041c0,-0.65041 0.65041,-0.65041 0.65041,-0.65041h1.30082c0,0 0.65041,0 0.65041,0.65041c0,0.65041 -0.65041,0.65041 -0.65041,0.65041z" fill-opacity="0.83137" fill="#ffffff"/><path d="M229.26745,253.5633c0.35921,0 0.65041,0.2912 0.65041,0.65041c0,0.3592 -0.2912,0.65041 -0.65041,0.65041c-0.35921,0 -0.65041,-0.2912 -0.65041,-0.65041c0,-0.3592 0.29121,-0.65041 0.65041,-0.65041z" fill-opacity="0.83137" fill="#ffffff"/><path d="M126.5031,219.74214c0.3592,0 0.65041,0.2912 0.65041,0.65041c0,0.35921 -0.2912,0.65041 -0.65041,0.65041c-0.3592,0 -0.65041,-0.2912 -0.65041,-0.65041c0,-0.3592 0.2912,-0.65041 0.65041,-0.65041z" fill-opacity="0.83137" fill="#ffffff"/><path d="M27.64121,152.09978c0.35921,0 0.65041,0.2912 0.65041,0.65041c0,0.3592 -0.2912,0.65041 -0.65041,0.65041c-0.35921,0 -0.65041,-0.2912 -0.65041,-0.65041c0,-0.35921 0.29121,-0.65041 0.65041,-0.65041z" fill-opacity="0.83137" fill="#ffffff"/><path d="M209.75524,92.26233c0.3592,0 0.65041,0.2912 0.65041,0.65041c0,0.35921 -0.2912,0.65041 -0.65041,0.65041c-0.35921,0 -0.65041,-0.2912 -0.65041,-0.65041c0,-0.3592 0.29121,-0.65041 0.65041,-0.65041z" fill-opacity="0.83137" fill="#ffffff"/><path d="M60.16158,54.5387c0.35921,0 0.65041,0.2912 0.65041,0.65041c0,0.3592 -0.29121,0.65041 -0.65041,0.65041c-0.3592,0 -0.65041,-0.2912 -0.65041,-0.65041c0,-0.35921 0.2912,-0.65041 0.65041,-0.65041z" fill-opacity="0.83137" fill="#ffffff"/><path d="M244.87722,-7.9004c0.3592,0 0.65041,0.2912 0.65041,0.65041c0,0.35921 -0.2912,0.65041 -0.65041,0.65041c-0.3592,0 -0.65041,-0.2912 -0.65041,-0.65041c0,-0.3592 0.2912,-0.65041 0.65041,-0.65041z" fill-opacity="0.83137" fill="#ffffff"/><path d="M382.76357,75.35173c0.3592,0 0.65041,0.2912 0.65041,0.65041c0,0.35921 -0.2912,0.65041 -0.65041,0.65041c-0.35921,0 -0.65041,-0.2912 -0.65041,-0.65041c0,-0.35921 0.2912,-0.65041 0.65041,-0.65041z" fill-opacity="0.83137" fill="#ffffff"/><path d="M308.61714,175.51446c0.3592,0 0.65041,0.2912 0.65041,0.65041c0,0.35921 -0.2912,0.65041 -0.65041,0.65041c-0.35921,0 -0.65041,-0.29121 -0.65041,-0.65041c0,-0.3592 0.2912,-0.65041 0.65041,-0.65041z" fill-opacity="0.83137" fill="#ffffff"/><path d="M419.18637,235.35192c0.3592,0 0.65041,0.2912 0.65041,0.65041c0,0.3592 -0.2912,0.65041 -0.65041,0.65041c-0.3592,0 -0.65041,-0.2912 -0.65041,-0.65041c0,-0.3592 0.2912,-0.65041 0.65041,-0.65041z" fill-opacity="0.83137" fill="#ffffff"/><path d="M283.90167,340.71791c0.35921,0 0.65041,0.2912 0.65041,0.65041c0,0.3592 -0.2912,0.65041 -0.65041,0.65041c-0.35921,0 -0.65041,-0.2912 -0.65041,-0.65041c0,-0.3592 0.2912,-0.65041 0.65041,-0.65041z" fill-opacity="0.83137" fill="#ffffff"/><path d="M203.25117,371.93744c0.3592,0 0.65041,0.2912 0.65041,0.65041c0,0.35921 -0.2912,0.65041 -0.65041,0.65041c-0.3592,0 -0.65041,-0.29121 -0.65041,-0.65041c0,-0.35921 0.2912,-0.65041 0.65041,-0.65041z" fill-opacity="0.83137" fill="#ffffff"/><path d="M23.73877,339.41709c0.35921,0 0.65041,0.29121 0.65041,0.65041c0,0.3592 -0.29121,0.65041 -0.65041,0.65041c-0.3592,0 -0.65041,-0.2912 -0.65041,-0.65041c0,-0.35921 0.2912,-0.65041 0.65041,-0.65041z" fill-opacity="0.83137" fill="#ffffff"/><path d="M445.20267,331.6122c0.3592,0 0.65041,0.2912 0.65041,0.65041c0,0.35921 -0.2912,0.65041 -0.65041,0.65041c-0.35921,0 -0.65041,-0.2912 -0.65041,-0.65041c0,-0.3592 0.29121,-0.65041 0.65041,-0.65041z" fill-opacity="0.83137" fill="#ffffff"/><path d="M450.40592,136.49001c0.3592,0 0.65041,0.2912 0.65041,0.65041c0,0.35921 -0.2912,0.65041 -0.65041,0.65041c-0.35921,0 -0.65041,-0.29121 -0.65041,-0.65041c0,-0.35921 0.29121,-0.65041 0.65041,-0.65041z" fill-opacity="0.83137" fill="#ffffff"/><path d="M119.99905,262.9942c0.1796,0 0.3252,0.1456 0.3252,0.32521c0,0.1796 -0.14559,0.32521 -0.3252,0.32521c-0.1796,0 -0.32521,-0.1456 -0.32521,-0.32521c0,-0.1796 0.1456,-0.32521 0.32521,-0.32521z" fill-opacity="0.83137" fill="#ffffff"/><path d="M6.82817,226.57142c0.1796,0 0.3252,0.1456 0.3252,0.32521c0,0.1796 -0.14559,0.32521 -0.3252,0.32521c-0.1796,0 -0.3252,-0.1456 -0.3252,-0.32521c0,-0.1796 0.14559,-0.32521 0.3252,-0.32521z" fill-opacity="0.83137" fill="#ffffff"/><path d="M99.18601,168.03478c0.1796,0 0.3252,0.1456 0.3252,0.32521c0,0.1796 -0.14559,0.3252 -0.3252,0.3252c-0.1796,0 -0.32521,-0.14559 -0.32521,-0.3252c0,-0.1796 0.1456,-0.32521 0.32521,-0.32521z" fill-opacity="0.83137" fill="#ffffff"/><path d="M4.22655,102.99405c0.1796,0 0.3252,0.14559 0.3252,0.3252c0,0.1796 -0.14559,0.32521 -0.3252,0.32521c-0.1796,0 -0.32521,-0.1456 -0.32521,-0.32521c0,-0.1796 0.1456,-0.3252 0.32521,-0.3252z" fill-opacity="0.83137" fill="#ffffff"/><path d="M151.21859,37.9533c0.1796,0 0.3252,0.1456 0.3252,0.32521c0,0.1796 -0.14559,0.3252 -0.3252,0.3252c-0.1796,0 -0.3252,-0.14559 -0.3252,-0.3252c0,-0.1796 0.14559,-0.32521 0.3252,-0.32521z" fill-opacity="0.83137" fill="#ffffff"/><path d="M91.38113,5.43296c0.1796,0 0.3252,0.1456 0.3252,0.32521c0,0.1796 -0.14559,0.32521 -0.3252,0.32521c-0.1796,0 -0.32521,-0.1456 -0.32521,-0.32521c0,-0.1796 0.1456,-0.32521 0.32521,-0.32521z" fill-opacity="0.83137" fill="#ffffff"/><path d="M221.46256,174.53884c0.1796,0 0.3252,0.1456 0.3252,0.32521c0,0.1796 -0.14559,0.3252 -0.3252,0.3252c-0.1796,0 -0.3252,-0.14559 -0.3252,-0.3252c0,-0.1796 0.14559,-0.32521 0.3252,-0.32521z" fill-opacity="0.83137" fill="#ffffff"/><path d="M294.30818,97.7908c0.1796,0 0.32521,0.14559 0.32521,0.3252c0,0.1796 -0.1456,0.32521 -0.32521,0.32521c-0.1796,0 -0.3252,-0.1456 -0.3252,-0.32521c0,-0.1796 0.14559,-0.3252 0.3252,-0.3252z" fill-opacity="0.83137" fill="#ffffff"/><path d="M283.90167,24.94517c0.1796,0 0.3252,0.1456 0.3252,0.32521c0,0.1796 -0.14559,0.3252 -0.3252,0.3252c-0.1796,0 -0.32521,-0.14559 -0.32521,-0.3252c0,-0.1796 0.1456,-0.32521 0.32521,-0.32521z" fill-opacity="0.83137" fill="#ffffff"/><path d="M395.77171,17.1403c0.1796,0 0.3252,0.1456 0.3252,0.32521c0,0.1796 -0.14559,0.3252 -0.3252,0.3252c-0.1796,0 -0.32521,-0.14559 -0.32521,-0.3252c0,-0.1796 0.1456,-0.32521 0.32521,-0.32521z" fill-opacity="0.83137" fill="#ffffff"/><path d="M364.55217,140.71766c0.1796,0 0.32521,0.1456 0.32521,0.32521c0,0.1796 -0.1456,0.3252 -0.32521,0.3252c-0.1796,0 -0.3252,-0.14559 -0.3252,-0.3252c0,-0.1796 0.14559,-0.32521 0.3252,-0.32521z" fill-opacity="0.83137" fill="#ffffff"/><path d="M438.69859,196.65269c0.1796,0 0.3252,0.14559 0.3252,0.3252c0,0.1796 -0.14559,0.3252 -0.3252,0.3252c-0.1796,0 -0.32521,-0.14559 -0.32521,-0.3252c0,-0.1796 0.1456,-0.3252 0.32521,-0.3252z" fill-opacity="0.83137" fill="#ffffff"/><path d="M315.12122,265.59585c0.1796,0 0.3252,0.1456 0.3252,0.32521c0,0.1796 -0.14559,0.32521 -0.3252,0.32521c-0.1796,0 -0.32521,-0.1456 -0.32521,-0.32521c0,-0.1796 0.1456,-0.32521 0.32521,-0.32521z" fill-opacity="0.83137" fill="#ffffff"/><path d="M233.1699,339.7423c0.1796,0 0.3252,0.1456 0.3252,0.32521c0,0.1796 -0.14559,0.3252 -0.3252,0.3252c-0.1796,0 -0.3252,-0.14559 -0.3252,-0.3252c0,-0.1796 0.14559,-0.32521 0.3252,-0.32521z" fill-opacity="0.83137" fill="#ffffff"/><path d="M334.63344,357.9537c0.1796,0 0.3252,0.1456 0.3252,0.32521c0,0.1796 -0.14559,0.3252 -0.3252,0.3252c-0.1796,0 -0.32521,-0.14559 -0.32521,-0.3252c0,-0.1796 0.1456,-0.32521 0.32521,-0.32521z" fill-opacity="0.83137" fill="#ffffff"/><path d="M92.68193,357.9537c0.1796,0 0.32521,0.1456 0.32521,0.32521c0,0.1796 -0.1456,0.3252 -0.32521,0.3252c-0.1796,0 -0.3252,-0.14559 -0.3252,-0.3252c0,-0.1796 0.14559,-0.32521 0.3252,-0.32521z" fill-opacity="0.83137" fill="#ffffff"/><path d="M447.80428,304.62031c0.1796,0 0.3252,0.14559 0.3252,0.3252c0,0.1796 -0.14559,0.32521 -0.3252,0.32521c-0.1796,0 -0.32521,-0.1456 -0.32521,-0.32521c0,-0.1796 0.1456,-0.3252 0.32521,-0.3252z" fill-opacity="0.83137" fill="#ffffff"/><path d="M-2.27752,268.19748c0.1796,0 0.3252,0.1456 0.3252,0.32521c0,0.1796 -0.14559,0.32521 -0.3252,0.32521c-0.1796,0 -0.3252,-0.1456 -0.3252,-0.32521c0,-0.1796 0.14559,-0.32521 0.3252,-0.32521z" fill-opacity="0.83137" fill="#ffffff"/><path d="M52.35669,199.25432c0.1796,0 0.3252,0.1456 0.3252,0.32521c0,0.1796 -0.14559,0.3252 -0.3252,0.3252c-0.1796,0 -0.32521,-0.14559 -0.32521,-0.3252c0,-0.1796 0.1456,-0.32521 0.32521,-0.32521z" fill-opacity="0.83137" fill="#ffffff"/><path d="M149.91778,181.04293c0.1796,0 0.3252,0.14559 0.3252,0.3252c0,0.1796 -0.14559,0.3252 -0.3252,0.3252c-0.1796,0 -0.32521,-0.14559 -0.32521,-0.3252c0,-0.1796 0.1456,-0.3252 0.32521,-0.3252z" fill-opacity="0.83137" fill="#ffffff"/><path d="M203.25117,227.87222c0.1796,0 0.3252,0.14559 0.3252,0.3252c0,0.1796 -0.14559,0.32521 -0.3252,0.32521c-0.1796,0 -0.32521,-0.1456 -0.32521,-0.32521c0,-0.1796 0.1456,-0.3252 0.32521,-0.3252z" fill-opacity="0.83137" fill="#ffffff"/><path d="M179.83651,286.40889c0.1796,0 0.3252,0.1456 0.3252,0.32521c0,0.1796 -0.14559,0.3252 -0.3252,0.3252c-0.1796,0 -0.3252,-0.14559 -0.3252,-0.3252c0,-0.17961 0.14559,-0.32521 0.3252,-0.32521z" fill-opacity="0.83137" fill="#ffffff"/><path d="M242.2756,305.92112c0.1796,0 0.3252,0.1456 0.3252,0.32521c0,0.1796 -0.14559,0.32521 -0.3252,0.32521c-0.1796,0 -0.32521,-0.1456 -0.32521,-0.32521c0,-0.1796 0.1456,-0.32521 0.32521,-0.32521z" fill-opacity="0.83137" fill="#ffffff"/><path d="M71.8689,324.13253c0.1796,0 0.3252,0.14559 0.3252,0.3252c0,0.1796 -0.14559,0.3252 -0.3252,0.3252c-0.1796,0 -0.32521,-0.14559 -0.32521,-0.3252c0,-0.1796 0.1456,-0.3252 0.32521,-0.3252z" fill-opacity="0.83137" fill="#ffffff"/><path d="M152.5194,347.54719c0.1796,0 0.32521,0.1456 0.32521,0.32521c0,0.1796 -0.1456,0.32521 -0.32521,0.32521c-0.1796,0 -0.3252,-0.1456 -0.3252,-0.32521c0,-0.1796 0.14559,-0.32521 0.3252,-0.32521z" fill-opacity="0.83137" fill="#ffffff"/><path d="M247.47886,368.3602c0.1796,0 0.32521,0.14559 0.32521,0.3252c0,0.1796 -0.1456,0.32521 -0.32521,0.32521c-0.1796,0 -0.32521,-0.1456 -0.32521,-0.32521c0,-0.1796 0.1456,-0.3252 0.32521,-0.3252z" fill-opacity="0.83137" fill="#ffffff"/><path d="M358.0481,252.58771c0.1796,0 0.32521,0.1456 0.32521,0.32521c0,0.1796 -0.1456,0.32521 -0.32521,0.32521c-0.1796,0 -0.32521,-0.1456 -0.32521,-0.32521c0,-0.1796 0.1456,-0.32521 0.32521,-0.32521z" fill-opacity="0.83137" fill="#ffffff"/><path d="M283.90167,209.66084c0.1796,0 0.3252,0.14559 0.3252,0.3252c0,0.1796 -0.14559,0.32521 -0.3252,0.32521c-0.1796,0 -0.32521,-0.1456 -0.32521,-0.32521c0,-0.1796 0.1456,-0.3252 0.32521,-0.3252z" fill-opacity="0.83137" fill="#ffffff"/><path d="M390.24325,156.65262c0,-0.3252 0.3252,-0.3252 0.3252,-0.3252h0.65041c0.2168,0 0.43361,0 0.65041,0c0,0 0.3252,0 0.3252,0.3252c0,0.3252 -0.3252,0.32521 -0.3252,0.32521c-0.2168,0 -1.08402,0 -1.30082,0c0,0 -0.3252,-0.00001 -0.3252,-0.32521z" fill-opacity="0.83137" fill="#ffffff"/><path d="M339.83669,97.7908c0.1796,0 0.32521,0.14559 0.32521,0.3252c0,0.1796 -0.1456,0.32521 -0.32521,0.32521c-0.1796,0 -0.32521,-0.1456 -0.32521,-0.32521c0,-0.1796 0.1456,-0.3252 0.32521,-0.3252z" fill-opacity="0.83137" fill="#ffffff"/><path d="M203.25117,129.01034c0.1796,0 0.3252,0.1456 0.3252,0.32521c0,0.1796 -0.14559,0.32521 -0.3252,0.32521c-0.1796,0 -0.32521,-0.1456 -0.32521,-0.32521c0,-0.1796 0.1456,-0.32521 0.32521,-0.32521z" fill-opacity="0.83137" fill="#ffffff"/><path d="M113.49497,117.30299c0.1796,0 0.32521,0.14559 0.32521,0.3252c0,0.1796 -0.1456,0.32521 -0.32521,0.32521c-0.1796,0 -0.32521,-0.1456 -0.32521,-0.32521c0,-0.1796 0.1456,-0.3252 0.32521,-0.3252z" fill-opacity="0.83137" fill="#ffffff"/><path d="M130.40556,17.1403c0.1796,0 0.3252,0.1456 0.3252,0.32521c0,0.1796 -0.14559,0.3252 -0.3252,0.3252c-0.1796,0 -0.32521,-0.14559 -0.32521,-0.3252c0,-0.1796 0.1456,-0.32521 0.32521,-0.32521z" fill-opacity="0.83137" fill="#ffffff"/><path d="M22.43796,45.7582c0.1796,0 0.3252,0.1456 0.3252,0.32521c0,0.1796 -0.14559,0.32521 -0.3252,0.32521c-0.1796,0 -0.32521,-0.1456 -0.32521,-0.32521c0,-0.1796 0.1456,-0.32521 0.32521,-0.32521z" fill-opacity="0.83137" fill="#ffffff"/><path d="M328.12936,17.1403c0.1796,0 0.3252,0.1456 0.3252,0.32521c0,0.1796 -0.14559,0.3252 -0.3252,0.3252c-0.1796,0 -0.32521,-0.14559 -0.32521,-0.3252c0,-0.1796 0.1456,-0.32521 0.32521,-0.32521z" fill-opacity="0.83137" fill="#ffffff"/><path d="M-12.68404,171.93721c0.1796,0 0.32521,0.14559 0.32521,0.3252c0,0.1796 -0.1456,0.3252 -0.32521,0.3252c-0.1796,0 -0.3252,-0.14559 -0.3252,-0.3252c0,-0.1796 0.14559,-0.3252 0.3252,-0.3252z" fill-opacity="0.83137" fill="#ffffff"/><path d="M451.70673,265.59585c0.1796,0 0.3252,0.1456 0.3252,0.32521c0,0.1796 -0.14559,0.32521 -0.3252,0.32521c-0.1796,0 -0.32521,-0.1456 -0.32521,-0.32521c0,-0.1796 0.1456,-0.32521 0.32521,-0.32521z" fill-opacity="0.83137" fill="#ffffff"/><path d="M382.11315,280.23002c0,0.3592 -0.2912,0.65041 -0.65041,0.65041c-0.3592,0 -0.65041,-0.2912 -0.65041,-0.65041c0,-0.35921 0.2912,-0.65041 0.65041,-0.65041c0.3592,0 0.65041,0.2912 0.65041,0.65041z" fill-opacity="0.83137" fill="#ffffff"/><path d="M287.15371,311.44957c0,-0.65041 0.65041,-0.65041 0.65041,-0.65041h1.30082c0,0 0.65041,0 0.65041,0.65041c0,0.65041 -0.65041,0.65041 -0.65041,0.65041h-1.30082c0,0 -0.65041,0 -0.65041,-0.65041z" fill-opacity="0.83137" fill="#ffffff"/><path d="M210.40565,254.21373c0,0.3592 -0.2912,0.65041 -0.65041,0.65041c-0.3592,0 -0.65041,-0.2912 -0.65041,-0.65041c0,-0.3592 0.2912,-0.65041 0.65041,-0.65041c0.3592,0 0.65041,0.2912 0.65041,0.65041z" fill-opacity="0.83137" fill="#ffffff"/><path d="M313.16999,220.39256c0,0.3592 -0.2912,0.65041 -0.65041,0.65041c-0.3592,0 -0.65041,-0.2912 -0.65041,-0.65041c0,-0.3592 0.2912,-0.65041 0.65041,-0.65041c0.3592,0 0.65041,0.2912 0.65041,0.65041z" fill-opacity="0.83137" fill="#ffffff"/><path d="M412.03189,152.7502c0,0.3592 -0.2912,0.65041 -0.65041,0.65041c-0.3592,0 -0.65041,-0.2912 -0.65041,-0.65041c0,-0.3592 0.2912,-0.65041 0.65041,-0.65041c0.3592,0 0.65041,0.2912 0.65041,0.65041z" fill-opacity="0.83137" fill="#ffffff"/><path d="M229.91786,92.91273c0,0.35921 -0.2912,0.65041 -0.65041,0.65041c-0.3592,0 -0.65041,-0.2912 -0.65041,-0.65041c0,-0.35921 0.2912,-0.65041 0.65041,-0.65041c0.3592,0 0.65041,0.2912 0.65041,0.65041z" fill-opacity="0.83137" fill="#ffffff"/><path d="M379.51152,55.18911c0,0.35921 -0.2912,0.65041 -0.65041,0.65041c-0.3592,0 -0.65041,-0.2912 -0.65041,-0.65041c0,-0.35921 0.2912,-0.65041 0.65041,-0.65041c0.3592,0 0.65041,0.2912 0.65041,0.65041z" fill-opacity="0.83137" fill="#ffffff"/><path d="M194.79587,-7.25c0,0.35921 -0.2912,0.65041 -0.65041,0.65041c-0.35921,0 -0.65041,-0.2912 -0.65041,-0.65041c0,-0.35921 0.2912,-0.65041 0.65041,-0.65041c0.35921,0 0.65041,0.2912 0.65041,0.65041z" fill-opacity="0.83137" fill="#ffffff"/><path d="M56.90952,76.00215c0,0.35921 -0.2912,0.65041 -0.65041,0.65041c-0.35921,0 -0.65041,-0.2912 -0.65041,-0.65041c0,-0.35921 0.2912,-0.65041 0.65041,-0.65041c0.35921,0 0.65041,0.2912 0.65041,0.65041z" fill-opacity="0.83137" fill="#ffffff"/><path d="M131.05596,176.16487c0,0.3592 -0.2912,0.65041 -0.65041,0.65041c-0.35921,0 -0.65041,-0.2912 -0.65041,-0.65041c0,-0.3592 0.2912,-0.65041 0.65041,-0.65041c0.35921,0 0.65041,0.2912 0.65041,0.65041z" fill-opacity="0.83137" fill="#ffffff"/><path d="M20.48672,236.00234c0,0.3592 -0.2912,0.65041 -0.65041,0.65041c-0.3592,0 -0.65041,-0.2912 -0.65041,-0.65041c0,-0.3592 0.2912,-0.65041 0.65041,-0.65041c0.3592,0 0.65041,0.2912 0.65041,0.65041z" fill-opacity="0.83137" fill="#ffffff"/><path d="M155.77142,341.36831c0,0.3592 -0.2912,0.65041 -0.65041,0.65041c-0.35921,0 -0.65041,-0.2912 -0.65041,-0.65041c0,-0.3592 0.2912,-0.65041 0.65041,-0.65041c0.35921,0 0.65041,0.2912 0.65041,0.65041z" fill-opacity="0.83137" fill="#ffffff"/><path d="M236.42192,372.58783c0,0.3592 -0.2912,0.65041 -0.65041,0.65041c-0.3592,0 -0.65041,-0.2912 -0.65041,-0.65041c0,-0.3592 0.2912,-0.65041 0.65041,-0.65041c0.3592,0 0.65041,0.2912 0.65041,0.65041z" fill-opacity="0.83137" fill="#ffffff"/><path d="M415.93432,340.0675c0,0.3592 -0.2912,0.65041 -0.65041,0.65041c-0.3592,0 -0.65041,-0.2912 -0.65041,-0.65041c0,-0.3592 0.2912,-0.65041 0.65041,-0.65041c0.3592,0 0.65041,0.2912 0.65041,0.65041z" fill-opacity="0.83137" fill="#ffffff"/><path d="M-5.52956,332.26261c0,0.3592 -0.2912,0.65041 -0.65041,0.65041c-0.3592,0 -0.65041,-0.2912 -0.65041,-0.65041c0,-0.3592 0.2912,-0.65041 0.65041,-0.65041c0.3592,0 0.65041,0.2912 0.65041,0.65041z" fill-opacity="0.83137" fill="#ffffff"/><path d="M-10.73283,137.14043c0,0.3592 -0.2912,0.65041 -0.65041,0.65041c-0.3592,0 -0.65041,-0.2912 -0.65041,-0.65041c0,-0.3592 0.2912,-0.65041 0.65041,-0.65041c0.3592,0 0.65041,0.2912 0.65041,0.65041z" fill-opacity="0.83137" fill="#ffffff"/><path d="M319.34886,263.31941c0,0.1796 -0.1456,0.32521 -0.32521,0.32521c-0.1796,0 -0.3252,-0.1456 -0.3252,-0.32521c0,-0.1796 0.14559,-0.32521 0.3252,-0.32521c0.1796,0 0.32521,0.1456 0.32521,0.32521z" fill-opacity="0.83137" fill="#ffffff"/><path d="M432.51972,226.89661c0,0.1796 -0.14559,0.32521 -0.3252,0.32521c-0.1796,0 -0.3252,-0.1456 -0.3252,-0.32521c0,-0.1796 0.14559,-0.32521 0.3252,-0.32521c0.1796,0 0.3252,0.1456 0.3252,0.32521z" fill-opacity="0.83137" fill="#ffffff"/><path d="M340.16189,168.35998c0,0.1796 -0.1456,0.3252 -0.32521,0.3252c-0.1796,0 -0.3252,-0.14559 -0.3252,-0.3252c0,-0.1796 0.14559,-0.32521 0.3252,-0.32521c0.1796,0 0.32521,0.1456 0.32521,0.32521z" fill-opacity="0.83137" fill="#ffffff"/><path d="M435.12133,103.31925c0,0.1796 -0.1456,0.32521 -0.32521,0.32521c-0.1796,0 -0.3252,-0.1456 -0.3252,-0.32521c0,-0.1796 0.14559,-0.3252 0.3252,-0.3252c0.1796,0 0.32521,0.14559 0.32521,0.3252z" fill-opacity="0.83137" fill="#ffffff"/><path d="M288.1293,38.27852c0,0.1796 -0.1456,0.3252 -0.3252,0.3252c-0.1796,0 -0.3252,-0.14559 -0.3252,-0.3252c0,-0.1796 0.1456,-0.32521 0.3252,-0.32521c0.1796,0 0.3252,0.1456 0.3252,0.32521z" fill-opacity="0.83137" fill="#ffffff"/><path d="M347.96677,5.75816c0,0.1796 -0.1456,0.32521 -0.32521,0.32521c-0.1796,0 -0.3252,-0.1456 -0.3252,-0.32521c0,-0.1796 0.14559,-0.32521 0.3252,-0.32521c0.1796,0 0.32521,0.1456 0.32521,0.32521z" fill-opacity="0.83137" fill="#ffffff"/><path d="M217.88533,174.86406c0,0.1796 -0.14559,0.3252 -0.3252,0.3252c-0.1796,0 -0.3252,-0.14559 -0.3252,-0.3252c0,-0.1796 0.14559,-0.32521 0.3252,-0.32521c0.1796,0 0.3252,0.1456 0.3252,0.32521z" fill-opacity="0.83137" fill="#ffffff"/><path d="M145.03971,98.116c0,0.1796 -0.14559,0.32521 -0.3252,0.32521c-0.1796,0 -0.32521,-0.1456 -0.32521,-0.32521c0,-0.1796 0.1456,-0.3252 0.32521,-0.3252c0.1796,0 0.3252,0.14559 0.3252,0.3252z" fill-opacity="0.83137" fill="#ffffff"/><path d="M155.44622,25.27037c0,0.1796 -0.1456,0.3252 -0.32521,0.3252c-0.1796,0 -0.3252,-0.14559 -0.3252,-0.3252c0,-0.1796 0.14559,-0.32521 0.3252,-0.32521c0.1796,0 0.32521,0.1456 0.32521,0.32521z" fill-opacity="0.83137" fill="#ffffff"/><path d="M43.57618,17.46548c0,0.1796 -0.1456,0.3252 -0.32521,0.3252c-0.1796,0 -0.3252,-0.14559 -0.3252,-0.3252c0,-0.1796 0.14559,-0.32521 0.3252,-0.32521c0.1796,0 0.32521,0.1456 0.32521,0.32521z" fill-opacity="0.83137" fill="#ffffff"/><path d="M74.79573,141.04288c0,0.1796 -0.14559,0.3252 -0.3252,0.3252c-0.1796,0 -0.32521,-0.14559 -0.32521,-0.3252c0,-0.1796 0.1456,-0.32521 0.32521,-0.32521c0.1796,0 0.3252,0.1456 0.3252,0.32521z" fill-opacity="0.83137" fill="#ffffff"/><path d="M0.6493,196.9779c0,0.1796 -0.1456,0.3252 -0.32521,0.3252c-0.1796,0 -0.3252,-0.14559 -0.3252,-0.3252c0,-0.1796 0.14559,-0.3252 0.3252,-0.3252c0.1796,0 0.32521,0.14559 0.32521,0.3252z" fill-opacity="0.83137" fill="#ffffff"/><path d="M124.22668,265.92107c0,0.1796 -0.1456,0.32521 -0.32521,0.32521c-0.1796,0 -0.3252,-0.1456 -0.3252,-0.32521c0,-0.1796 0.14559,-0.32521 0.3252,-0.32521c0.1796,0 0.32521,0.1456 0.32521,0.32521z" fill-opacity="0.83137" fill="#ffffff"/><path d="M206.17799,340.0675c0,0.1796 -0.14559,0.3252 -0.3252,0.3252c-0.1796,0 -0.3252,-0.1456 -0.3252,-0.3252c0,-0.1796 0.14559,-0.32521 0.3252,-0.32521c0.1796,0 0.3252,0.1456 0.3252,0.32521z" fill-opacity="0.83137" fill="#ffffff"/><path d="M104.71447,358.2789c0,0.1796 -0.1456,0.3252 -0.32521,0.3252c-0.1796,0 -0.3252,-0.1456 -0.3252,-0.3252c0,-0.1796 0.14559,-0.32521 0.3252,-0.32521c0.1796,0 0.32521,0.1456 0.32521,0.32521z" fill-opacity="0.83137" fill="#ffffff"/><path d="M346.66597,358.2789c0,0.1796 -0.14559,0.3252 -0.3252,0.3252c-0.1796,0 -0.32521,-0.1456 -0.32521,-0.3252c0,-0.1796 0.1456,-0.32521 0.32521,-0.32521c0.1796,0 0.3252,0.1456 0.3252,0.32521z" fill-opacity="0.83137" fill="#ffffff"/><path d="M-8.4564,304.9455c0,0.1796 -0.1456,0.32521 -0.32521,0.32521c-0.1796,0 -0.3252,-0.1456 -0.3252,-0.32521c0,-0.1796 0.14559,-0.3252 0.3252,-0.3252c0.1796,0 0.32521,0.14559 0.32521,0.3252z" fill-opacity="0.83137" fill="#ffffff"/><path d="M441.62541,268.5227c0,0.1796 -0.14559,0.32521 -0.3252,0.32521c-0.1796,0 -0.3252,-0.1456 -0.3252,-0.32521c0,-0.1796 0.14559,-0.32521 0.3252,-0.32521c0.1796,0 0.3252,0.1456 0.3252,0.32521z" fill-opacity="0.83137" fill="#ffffff"/><path d="M386.99121,199.57954c0,0.1796 -0.1456,0.3252 -0.32521,0.3252c-0.1796,0 -0.3252,-0.14559 -0.3252,-0.3252c0,-0.1796 0.14559,-0.32521 0.3252,-0.32521c0.1796,0 0.32521,0.1456 0.32521,0.32521z" fill-opacity="0.83137" fill="#ffffff"/><path d="M289.43013,181.36812c0,0.1796 -0.1456,0.3252 -0.32521,0.3252c-0.1796,0 -0.3252,-0.14559 -0.3252,-0.3252c0,-0.1796 0.1456,-0.3252 0.3252,-0.3252c0.1796,0 0.32521,0.14559 0.32521,0.3252z" fill-opacity="0.83137" fill="#ffffff"/><path d="M236.09672,228.19742c0,0.1796 -0.1456,0.32521 -0.32521,0.32521c-0.1796,0 -0.3252,-0.1456 -0.3252,-0.32521c0,-0.1796 0.14559,-0.3252 0.3252,-0.3252c0.1796,0 0.32521,0.1456 0.32521,0.3252z" fill-opacity="0.83137" fill="#ffffff"/><path d="M259.51138,286.73409c0,0.1796 -0.14559,0.3252 -0.3252,0.3252c-0.1796,0 -0.3252,-0.14559 -0.3252,-0.3252c0,-0.1796 0.14559,-0.32521 0.3252,-0.32521c0.1796,0 0.3252,0.14559 0.3252,0.32521z" fill-opacity="0.83137" fill="#ffffff"/><path d="M197.07229,306.24633c0,0.1796 -0.1456,0.32521 -0.32521,0.32521c-0.1796,0 -0.3252,-0.1456 -0.3252,-0.32521c0,-0.1796 0.14559,-0.32521 0.3252,-0.32521c0.1796,0 0.32521,0.1456 0.32521,0.32521z" fill-opacity="0.83137" fill="#ffffff"/><path d="M367.479,324.45773c0,0.1796 -0.1456,0.3252 -0.32521,0.3252c-0.1796,0 -0.3252,-0.1456 -0.3252,-0.3252c0,-0.1796 0.14559,-0.3252 0.3252,-0.3252c0.1796,0 0.32521,0.1456 0.32521,0.3252z" fill-opacity="0.83137" fill="#ffffff"/><path d="M286.82849,347.87239c0,0.1796 -0.1456,0.32521 -0.3252,0.32521c-0.1796,0 -0.32521,-0.1456 -0.32521,-0.32521c0,-0.1796 0.1456,-0.32521 0.32521,-0.32521c0.1796,0 0.3252,0.1456 0.3252,0.32521z" fill-opacity="0.83137" fill="#ffffff"/><path d="M191.86904,368.68541c0,0.1796 -0.1456,0.32521 -0.32521,0.32521c-0.1796,0 -0.32521,-0.1456 -0.32521,-0.32521c0,-0.1796 0.1456,-0.3252 0.32521,-0.3252c0.1796,0 0.32521,0.14559 0.32521,0.3252z" fill-opacity="0.83137" fill="#ffffff"/><path d="M81.2998,252.91288c0,0.1796 -0.1456,0.32521 -0.32521,0.32521c-0.1796,0 -0.32521,-0.1456 -0.32521,-0.32521c0,-0.1796 0.1456,-0.32521 0.32521,-0.32521c0.1796,0 0.32521,0.1456 0.32521,0.32521z" fill-opacity="0.83137" fill="#ffffff"/><path d="M155.44622,209.98604c0,0.1796 -0.1456,0.32521 -0.32521,0.32521c-0.1796,0 -0.3252,-0.1456 -0.3252,-0.32521c0,-0.1796 0.14559,-0.3252 0.3252,-0.3252c0.1796,0 0.32521,0.14559 0.32521,0.3252z" fill-opacity="0.83137" fill="#ffffff"/><path d="M48.77944,156.65262c0,0.3252 -0.3252,0.32521 -0.3252,0.32521c-0.2168,0 -1.08402,0 -1.30082,0c0,0 -0.3252,-0.00001 -0.3252,-0.32521c0,-0.3252 0.3252,-0.3252 0.3252,-0.3252c0.2168,0 0.43361,0 0.65041,0h0.65041c0,0 0.3252,0 0.3252,0.3252z" fill-opacity="0.83137" fill="#ffffff"/><path d="M99.51121,98.116c0,0.1796 -0.1456,0.32521 -0.32521,0.32521c-0.1796,0 -0.32521,-0.1456 -0.32521,-0.32521c0,-0.1796 0.1456,-0.3252 0.32521,-0.3252c0.1796,0 0.32521,0.14559 0.32521,0.3252z" fill-opacity="0.83137" fill="#ffffff"/><path d="M236.09672,129.33554c0,0.1796 -0.1456,0.32521 -0.32521,0.32521c-0.1796,0 -0.3252,-0.1456 -0.3252,-0.32521c0,-0.1796 0.14559,-0.32521 0.3252,-0.32521c0.1796,0 0.32521,0.1456 0.32521,0.32521z" fill-opacity="0.83137" fill="#ffffff"/><path d="M325.85293,117.6282c0,0.1796 -0.1456,0.32521 -0.32521,0.32521c-0.1796,0 -0.32521,-0.1456 -0.32521,-0.32521c0,-0.1796 0.1456,-0.3252 0.32521,-0.3252c0.1796,0 0.32521,0.14559 0.32521,0.3252z" fill-opacity="0.83137" fill="#ffffff"/><path d="M308.94234,17.46548c0,0.1796 -0.1456,0.3252 -0.32521,0.3252c-0.1796,0 -0.3252,-0.14559 -0.3252,-0.3252c0,-0.1796 0.1456,-0.32521 0.3252,-0.32521c0.1796,0 0.32521,0.1456 0.32521,0.32521z" fill-opacity="0.83137" fill="#ffffff"/><path d="M416.90993,46.08341c0,0.1796 -0.1456,0.32521 -0.32521,0.32521c-0.1796,0 -0.3252,-0.1456 -0.3252,-0.32521c0,-0.1796 0.1456,-0.32521 0.3252,-0.32521c0.1796,0 0.32521,0.1456 0.32521,0.32521z" fill-opacity="0.83137" fill="#ffffff"/><path d="M111.21854,17.46548c0,0.1796 -0.1456,0.3252 -0.32521,0.3252c-0.1796,0 -0.3252,-0.14559 -0.3252,-0.3252c0,-0.1796 0.14559,-0.32521 0.3252,-0.32521c0.1796,0 0.32521,0.1456 0.32521,0.32521z" fill-opacity="0.83137" fill="#ffffff"/><path d="M452.03192,172.26243c0,0.1796 -0.14559,0.3252 -0.3252,0.3252c-0.1796,0 -0.32521,-0.14559 -0.32521,-0.3252c0,-0.1796 0.1456,-0.3252 0.32521,-0.3252c0.1796,0 0.3252,0.14559 0.3252,0.3252z" fill-opacity="0.83137" fill="#ffffff"/><path d="M-12.35883,265.92107c0,0.1796 -0.1456,0.32521 -0.32521,0.32521c-0.1796,0 -0.3252,-0.1456 -0.3252,-0.32521c0,-0.1796 0.14559,-0.32521 0.3252,-0.32521c0.1796,0 0.32521,0.1456 0.32521,0.32521z" fill-opacity="0.83137" fill="#ffffff"/></g><path d="M507.55045,231.93626c0,173.64813 -142.88646,314.41774 -319.14583,314.41774c-176.25938,0 -319.14583,-140.76962 -319.14583,-314.41774c0,-173.64813 142.88646,-314.41774 319.14583,-314.41774c176.25938,0 319.14583,140.76962 319.14583,314.41774z" fill="url(#color-1)" stroke-opacity="0.34118" stroke="#df00ff" stroke-width="25" stroke-linecap="butt"/><path d="M386.57475,308.75029l38.37642,-139.39315l92.43457,25.44809l-38.37642,139.39315z" data-paper-data="{&quot;index&quot;:null}" fill="url(#color-2)" stroke="#ed6b00" stroke-width="0" stroke-linecap="butt"/><path d="M437.52883,202.41936l2.18847,-21.83241l24.39812,2.44576l-2.18847,21.83241z" fill="url(#color-3)" stroke="#000000" stroke-width="0" stroke-linecap="butt"/><path d="M414.26073,138.05014c2.46931,-24.63676 22.75585,-42.77547 45.31107,-40.51448c22.5553,2.26091 38.8375,24.06537 36.36827,48.70169c-2.46931,24.63676 -22.75585,42.77547 -45.31107,40.51448c-22.55514,-2.26089 -38.83734,-24.06536 -36.36811,-48.70168z" fill="url(#color-4)" stroke="none" stroke-width="0" stroke-linecap="butt"/><g data-paper-data="{&quot;index&quot;:null}"><path d="M325.42879,368.17245l68.54785,-84.27398c0,0 21.97591,5.82928 30.2356,11.1445c9.77286,6.28896 -5.72275,12.4808 -5.72275,12.4808c0,0 -8.48059,-5.121 -11.79312,-1.78447c-10.13047,10.20425 -59.7138,76.30345 -59.7138,76.30345z" data-paper-data="{&quot;index&quot;:null}" fill="#4a433c" stroke="#000000" stroke-width="0" stroke-linecap="butt"/><path d="M297.77835,377.05708c-2.22697,-1.43319 0.09677,-7.32683 0.09677,-7.32683c0,0 4.18612,-2.88702 5.79785,-3.8426c1.31566,-0.78067 6.31422,0.09144 6.31422,0.09144c0,0 8.64738,3.55303 12.54202,5.60771c6.58193,3.47242 22.35692,14.07953 22.35692,14.07953c0,0 -2.58609,5.12249 -3.9544,7.1175c-1.01555,1.48056 -3.51752,3.77601 -3.51752,3.77601c0,0 -2.91725,-0.25877 -7.74358,-2.02049c-2.61904,-0.95604 -6.67479,-5.09097 -10.15118,-6.6428c-2.76148,-1.233 -5.49639,-0.82674 -8.955,-2.86567c-5.68798,-3.35357 -11.18931,-6.94543 -12.78573,-7.97302z" data-paper-data="{&quot;index&quot;:null}" fill="#140d0d" stroke="#000000" stroke-width="0" stroke-linecap="butt"/><path d="M302.97006,370.59204c-2.22694,-1.43293 -3.26568,-2.10174 -3.26568,-2.10174c0,0 5.21454,-5.91986 6.82627,-6.87543c1.31553,-0.78042 6.31409,0.09168 6.31409,0.09168c0,0 9.6272,4.18323 13.52185,6.23792c0.66216,0.34952 7.19802,-9.0788 7.19802,-9.0788c0,0 8.43094,6.35415 9.62054,7.08256c2.21273,1.35426 -7.5874,7.49345 -5.30674,8.96198c1.30241,0.8387 4.20977,5.5905 7.50981,4.90483c3.68841,-0.76597 8.82285,-5.86661 8.82285,-5.86661l-5.48778,8.07588c0,0 -1.49617,2.72545 -5.4458,3.67789c-2.70387,0.65214 -4.15579,4.14599 -7.53176,4.21506c-4.9087,0.10066 -5.45775,-0.01953 -6.48789,-0.47948c-2.95759,-1.32074 -2.38347,-3.8593 -8.89538,-7.40801c-3.11449,-1.69724 -3.76681,1.44271 -12.65128,-3.309c-9.40792,-5.0314 -4.07214,-7.69755 -4.74062,-8.12772z" data-paper-data="{&quot;index&quot;:null}" fill="#1f261f" stroke="#000000" stroke-width="0" stroke-linecap="butt"/><path d="M328.18273,375.62519l-5.29331,-7.56278" fill="none" stroke="#ffb5b5" stroke-width="0.5" stroke-linecap="round"/><path d="M322.32671,373.24262l-4.33651,-8.33233" fill="none" stroke="#bffdff" stroke-width="0.5" stroke-linecap="round"/><path d="M314.63108,363.67228l1.39699,6.44043" fill="none" stroke="#eaffc1" stroke-width="0.5" stroke-linecap="round"/><path d="M338.17301,367.27624l-5.45806,-4.43597" fill="none" stroke="#8d967b" stroke-width="0.5" stroke-linecap="round"/><path d="M335.39592,368.72203l-4.5947,-4.3424" fill="none" stroke="#767796" stroke-width="0.5" stroke-linecap="round"/></g><g data-paper-data="{&quot;index&quot;:null}"><path d="M433.00515,410.23638c0,0 -1.01187,-82.62317 -3.16636,-96.83946c-0.70459,-4.64881 -10.57311,-5.52031 -10.57311,-5.52031c0,0 -8.85386,-14.14463 2.74732,-13.45293c9.80451,0.58437 30.98498,8.84986 30.98498,8.84986l5.59303,108.48779z" fill="#413a4a" stroke="#000000" stroke-width="0" stroke-linecap="butt"/><path d="M408.33991,424.98957c0,0 2.23401,-4.56846 3.17016,-6.19151c0.76437,-1.3254 5.54847,-3.01521 5.54847,-3.01521c0,0 9.27843,-1.14128 13.68047,-1.25931c7.4394,-0.19925 26.38826,1.31407 26.38826,1.31407c0,0 0.25708,5.73194 0.04196,8.14183c-0.15972,1.78852 -1.21552,5.01535 -1.21552,5.01535c0,0 -2.66946,1.20443 -7.73965,2.03414c-2.75166,0.45033 -8.31301,-1.1654 -12.10412,-0.81439c-3.01102,0.27905 -5.19618,1.97359 -9.20999,1.89147c-6.60243,-0.13514 -13.15786,-0.56951 -15.0529,-0.68261c-2.64367,-0.15746 -3.50701,-6.43382 -3.50701,-6.43382z" data-paper-data="{&quot;index&quot;:null}" fill="#12140d" stroke="#000000" stroke-width="0" stroke-linecap="butt"/><path d="M409.32814,423.01264c0,0 1.64362,-7.71591 2.57977,-9.33895c0.76437,-1.3254 5.54847,-3.01521 5.54847,-3.01521c0,0 10.44139,-1.07245 14.8433,-1.19024c0.74872,-0.02017 1.82426,-11.44166 1.82426,-11.44166c0,0 10.46326,1.40617 11.85723,1.45784c2.59215,0.09615 -2.94053,10.25065 -0.23287,10.41271c1.54633,0.09283 6.40929,2.80945 8.94971,0.59429c2.8394,-2.47585 4.81464,-9.4384 4.81464,-9.4384l-0.82507,9.72895c0,0 0.0314,3.10866 -2.94429,5.87503c-2.0373,1.89356 -1.59061,5.65079 -4.49913,7.36561c-4.22946,2.49343 -4.76707,2.65841 -5.89031,2.76229c-3.22496,0.29827 -3.9693,-2.19546 -11.3844,-2.09708c-3.54644,0.04689 -2.57575,3.1035 -12.64913,3.31675c-10.66721,0.2259 -7.32257,-4.7133 -8.11639,-4.76083c-2.6437,-0.15773 -3.87678,-0.23129 -3.87678,-0.23129z" data-paper-data="{&quot;index&quot;:null}" fill="#1e1e26" stroke="#000000" stroke-width="0" stroke-linecap="butt"/><path d="M437.64601,415.27241l-8.32055,-3.99741" fill="none" stroke="#c1ffce" stroke-width="0.5" stroke-linecap="round"/><path d="M431.3742,416.0658l-7.86367,-5.13727" fill="none" stroke="#eaffc1" stroke-width="0.5" stroke-linecap="round"/><path d="M424.34986,416.42497l-4.37464,-4.92928" fill="none" stroke="#ffb5b5" stroke-width="0.5" stroke-linecap="round"/><path d="M435.33039,401.90708l6.93154,1.19139" fill="none" stroke="#7d967f" stroke-width="0.5" stroke-linecap="round"/><path d="M440.54966,405.71955l-6.1331,-1.5327" fill="none" stroke="#966262" stroke-width="0.5" stroke-linecap="round"/></g><g data-paper-data="{&quot;index&quot;:null}" stroke="#000000" stroke-width="0" stroke-linecap="butt"><path d="M344.79953,252.78053c0,0 5.02328,-4.89551 11.83529,-14.12149c4.09155,-5.54128 10.3885,-14.89266 12.11409,-16.84794c3.85007,-4.3618 4.495,-7.65466 7.07788,-10.37606c6.34625,-6.6868 17.07608,-18.13736 17.07608,-18.13736c0,0 12.22557,-20.99251 24.44731,-6.10738c2.08988,2.54504 -12.02582,18.81343 -12.02582,18.81343c0,0 -7.39245,8.13118 -13.36111,14.42062c-2.77507,2.92441 -7.51728,7.392 -12.14742,12.05441c-1.95667,1.96984 -7.7075,8.67811 -9.59471,10.6135c-7.84772,8.04757 -12.07638,16.75253 -12.07638,16.75253z" data-paper-data="{&quot;index&quot;:null}" fill="#a3bda9"/><path d="M336.2114,264.45615c-1.23656,-0.6866 8.72239,-11.99882 8.72239,-11.99882c0,0 5.60547,0.49319 7.79907,1.65429c2.2528,1.19286 5.54563,5.41001 5.54563,5.41001c0,0 -2.11538,3.13438 -2.46358,5.96439c-0.59635,4.84398 -0.84049,10.2836 -4.34139,12.48642c-1.89947,1.19532 1.25174,-7.15237 0.18148,-6.80756c-0.19052,0.06157 -8.5084,11.60644 -9.7528,11.49563c-2.0329,-0.18109 5.88998,-12.40062 4.21913,-10.89941c-3.43036,3.08129 -8.13821,12.02269 -9.62127,11.60412c-2.49796,-0.70486 8.81091,-14.90725 7.41581,-14.17689c-2.60628,1.36454 -8.27335,10.82289 -9.59696,10.5242c-3.85641,-0.87022 6.70467,-11.89714 5.0609,-11.33875c-3.10479,1.05471 -6.59143,8.09863 -7.7488,7.3359c-2.35289,-1.55064 5.16294,-10.92853 4.5794,-11.25277z" data-paper-data="{&quot;index&quot;:null}" fill="#6c7378"/></g><g data-paper-data="{&quot;index&quot;:null}" stroke-width="0" stroke-linecap="butt"><path d="M393.14807,289.3062c0,0 4.97774,-17.10451 7.68453,-34.21537c1.83928,-11.62665 1.22654,-22.7047 2.74088,-30.564c2.84215,-14.75143 10.08118,-41.66215 10.08118,-41.66215c0,0 11.91587,1.14795 17.1337,3.70941c6.64235,3.26043 19.48786,14.26672 19.48786,14.26672c0,0 13.14157,-3.78095 19.40823,-3.53711c6.61224,0.25759 19.28398,5.0441 19.28398,5.0441c0,0 -7.60711,28.52344 -10.85496,39.06026c-2.87376,9.32281 -7.86625,19.03139 -12.39044,32.76348c-4.66326,14.15306 -8.81737,32.19472 -8.81737,32.19472c0,0 -7.93125,-4.59658 -16.60451,-7.06607c-3.93885,-1.12149 -6.36113,1.68288 -10.23185,1.20802c-3.09397,-0.37923 -7.68203,-4.01502 -10.52057,-4.87057c-2.14557,-0.64682 -5.91136,-3.28459 -7.44069,-3.6937c-3.08763,-0.82622 -5.70373,1.3871 -9.4212,0.9522c-4.31813,-0.50473 -9.53811,-3.59028 -9.53811,-3.59028z" fill="#d1b0b0" stroke="#292e32"/><path d="M452.27016,228.2348l4.29278,-18.14399l23.39473,7.25564l-4.18235,16.16699z" fill="#f200ff" stroke="none"/><path d="M456.56292,210.0908l12.27725,3.80765c0.54595,2.23874 1.46149,4.36281 2.69486,6.2856c-1.07636,-0.4794 -2.20856,-0.87306 -3.39039,-1.1705c-4.89248,-1.23136 -9.81671,-0.60785 -14.03033,1.4267z" fill="#eeff00" stroke="none"/><path d="M466.16236,231.35462c1.98716,-6.65312 0.40659,-14.03864 -3.87142,-19.48733l15.34407,4.7588c-2.41062,2.50768 -4.22055,5.65842 -5.13034,9.27323c-0.57109,2.2691 -0.7432,4.54503 -0.5606,6.75371z" fill="#00ff5f" stroke="none"/><path d="M472.1133,232.69102l-16.80038,-3.7729c4.77682,-0.42657 9.23131,-2.51222 12.61152,-5.80736c1.63817,2.60218 3.85465,4.84372 6.52323,6.51353c-0.86559,0.93967 -1.64865,1.96485 -2.33438,3.06673z" fill="#004fff" stroke="none"/><path d="M452.27012,228.23479l4.29278,-18.14401l5.80071,1.79902c-2.40241,2.50488 -4.20618,5.64952 -5.1139,9.25611c-0.68939,2.7391 -0.79738,5.48817 -0.40187,8.11688z" fill="#ff0000" stroke="none"/><path d="M478.26995,223.87018l-2.49468,9.64323l-8.7408,-1.96294c0.87994,-1.18499 1.64038,-2.47582 2.25909,-3.85918c3.27259,-0.543 6.34942,-1.86733 8.97639,-3.82108z" fill="#00efff" stroke="none"/><path d="M479.95763,217.34641l-4.18237,16.16699l-0.58968,-0.13242c1.63138,-7.18261 -0.70191,-14.38176 -5.5967,-19.25031z" fill="#9c00ff" stroke="none"/></g><g data-paper-data="{&quot;index&quot;:null}" stroke="#000000" stroke-width="0" stroke-linecap="butt"><path d="M518.69841,289.7206c0,0 -1.2935,-9.67452 -6.99599,-19.43073c-1.37133,-2.34622 -5.21979,-10.31586 -6.65601,-12.71133c-3.39902,-5.66931 -7.00553,-11.16541 -8.99016,-14.69482c-4.26857,-7.59082 -9.41514,-17.33794 -9.41514,-17.33794c0,0 -11.05734,-20.03834 -7.72319,-22.0896c20.88434,-12.84865 27.10861,11.80535 27.10861,11.80535c0,0 7.61439,13.79226 12.1524,21.86281c1.84683,3.2846 1.24489,6.7471 3.87296,11.95196c1.17796,2.3335 4.57536,13.08789 7.00028,19.53506c4.03743,10.73402 7.79134,16.72058 7.79134,16.72058z" fill="#b8bda6"/><path d="M542.01701,299.63653c-0.80016,0.20546 3.95374,11.25032 0.62729,12.32486c-1.63615,0.52855 -2.73759,-7.31622 -5.85675,-9.0306c-1.65129,-0.9077 5.90923,12.43982 1.14272,12.51215c-1.63621,0.02487 -4.24261,-10.71435 -6.6639,-12.63787c-1.29621,-1.02951 5.81899,15.68169 2.67329,15.87136c-1.86741,0.11237 -3.58887,-9.90413 -6.24928,-13.73402c-1.29636,-1.86573 2.75888,12.13428 0.35992,11.89247c-1.46829,-0.14804 -6.25127,-13.55 -6.44405,-13.65172c-1.08323,-0.57214 -0.8988,8.51928 -2.58151,6.9145c-3.1012,-2.95726 -1.1527,-8.50311 0.15012,-13.52077c0.76152,-2.932 -0.37349,-6.54059 -0.37349,-6.54059c0,0 5.49325,-3.57127 8.55861,-4.30461c2.98458,-0.71447 9.597,-0.04004 9.597,-0.04004c0,0 6.75466,13.50969 5.06003,13.94453z" data-paper-data="{&quot;index&quot;:null}" fill="#786274"/></g><g data-paper-data="{&quot;index&quot;:null}" stroke="#ed6b00" stroke-width="0" stroke-linecap="butt"><path d="M432.58999,174.50664c-30.33503,-3.22024 -25.7939,-29.5919 -25.7939,-29.5919c0.43398,-11.98175 13.73957,-23.014 27.62404,-22.24106c13.88446,0.77295 29.76643,11.68127 29.33253,23.66309c-0.4341,11.98193 -3.754,31.40645 -31.16271,28.17012z" data-paper-data="{&quot;index&quot;:null}" fill="url(#color-5)"/><path d="M432.58999,174.50664c-2.27943,-0.24197 -4.36195,-0.61466 -6.26427,-1.09706c0.32521,-1.45161 0.5281,-2.97049 0.59317,-4.53913c0.4732,-11.40684 -6.5199,-21.12551 -15.61953,-21.70727c-1.63246,-0.10437 -3.22183,0.09241 -4.73374,0.55153c0.04658,-1.73214 0.23045,-2.79997 0.23045,-2.79997c0.09314,-2.57196 0.7794,-5.10015 1.93714,-7.47724c6.03966,-0.7746 11.1821,-5.66362 13.50004,-12.48766c3.77643,-1.65057 7.95476,-2.51178 12.18686,-2.27618c2.46832,0.13741 4.9998,0.59513 7.49149,1.32229c-5.02684,3.27414 -8.57783,9.70673 -8.89314,17.30772c-0.4732,11.40684 6.5199,21.12551 15.61953,21.70727c5.85385,0.37424 11.1534,-3.1239 14.31524,-8.70388c-1.97727,10.96777 -8.52191,22.77877 -30.36331,20.19982z" data-paper-data="{&quot;index&quot;:null}" fill="url(#color-6)"/><path d="M434.42013,122.67371c10.96643,0.61049 23.17898,7.54383 27.61411,16.33497c-5.95681,2.81172 -10.33048,9.83385 -10.68203,18.30835c-0.19855,4.78624 0.9174,9.27528 2.95193,12.91681c-1.96735,1.50509 -4.34262,2.72194 -7.21074,3.53c-0.96974,-3.72037 -2.76264,-6.99251 -5.12175,-9.45926c5.07547,-3.25531 8.6679,-9.71989 8.98514,-17.36716c0.4732,-11.40682 -6.51992,-21.12551 -15.61953,-21.70727c-5.3949,-0.34492 -10.31904,2.59921 -13.53296,7.43074c0.03919,-2.47986 -0.27378,-4.87187 -0.88282,-7.0981c4.10869,-2.04638 8.77009,-3.15235 13.49863,-2.88912z" data-paper-data="{&quot;index&quot;:null}" fill="url(#color-7)"/><path d="M423.91368,161.78134c-2.74943,1.76344 -5.06366,4.46863 -6.6578,7.79344c-7.12284,-4.62035 -9.60769,-11.4146 -10.38407,-16.70216c4.43049,-0.52702 8.38696,-3.26724 11.11298,-7.36536c-0.10264,6.49357 2.20939,12.38486 5.92889,16.27409z" data-paper-data="{&quot;index&quot;:null}" fill="url(#color-8)"/><path d="M436.57842,159.5341c0.26123,1.94556 0.94118,4.68425 1.94333,7.67765c-1.64747,-2.23296 -3.68689,-4.01359 -5.9909,-5.16498c0.9236,-2.40331 1.4895,-5.07128 1.6069,-7.90119c0.4732,-11.40684 -6.5199,-21.12551 -15.61953,-21.70727c-2.88365,-0.18436 -5.63279,0.57097 -8.05816,2.05195c3.48824,-5.05713 9.13717,-9.10078 15.52664,-10.87686c2.01615,7.9826 7.81191,13.94354 14.87781,14.39528c5.47389,0.34996 10.46312,-2.6861 13.67299,-7.64414c4.18074,3.21649 7.37001,7.20133 8.6327,11.49182c-0.58551,-0.46593 -1.17734,-0.75847 -1.76905,-0.83774c-4.62125,-0.61906 -9.29457,0.22644 -13.94217,0.31285c-0.75892,0.01413 -2.40653,-0.40469 -2.68242,0.06019c-2.92055,4.92101 -4.80179,10.68795 -7.23424,16.00943c-0.19935,0.43614 -1.00535,1.82382 -0.96384,2.133z" data-paper-data="{&quot;index&quot;:null}" fill="url(#color-9)"/><path d="M432.59004,174.50666c-8.55556,-0.90822 -14.33692,-3.65803 -18.2284,-7.13835c-0.5799,-6.3081 -3.44188,-11.80547 -7.56955,-15.07954c-0.3274,-2.59116 -0.25308,-4.76947 -0.1458,-6.0717c7.20719,-1.833 12.79944,-9.58705 13.19888,-19.2162c0.0123,-0.29637 0.01955,-0.59164 0.02185,-0.88562c4.35649,-2.39702 9.4152,-3.72758 14.55315,-3.44155c1.42953,0.07956 2.88025,0.26661 4.33214,0.55117c-2.9204,1.95571 -5.32936,4.98404 -6.87492,8.68697c-2.86047,1.88609 -7.16458,-0.73691 -9.56462,1.9771c-4.11723,4.65583 -8.70004,10.60725 -8.98786,17.54548c-0.71041,17.12516 7.03451,18.94787 15.61953,21.70727c4.97796,1.6 10.92976,0.57781 16.44499,-2.13783c7.11192,-0.33979 13.16795,-6.37438 15.16813,-14.71137c0.14092,-0.28778 0.27591,-0.57733 0.40484,-0.86856c1.24744,-2.81789 2.51381,-6.80955 2.75589,-10.64281c0.04129,0.51605 0.05327,1.03487 0.0344,1.5557c-0.4341,11.98193 -3.754,31.40645 -31.16271,28.17012z" data-paper-data="{&quot;index&quot;:null}" fill="url(#color-10)"/></g><g stroke-linecap="butt"><path d="M472.10206,108.02328l-0.02437,-0.0044l-0.01356,0.06315l-1.95145,-0.41966c-0.74067,-0.14407 -1.30064,-0.78637 -1.32318,-1.55923c-6.43819,-0.49434 -13.21195,-0.3426 -17.68566,-1.09304c-0.64051,-0.10741 -1.3828,-0.09421 -2.16582,-0.03628c0.29882,0.30174 0.48058,0.71837 0.47398,1.17643c-0.01315,0.90523 -0.75702,1.62788 -1.66183,1.61501c-0.13415,-0.00208 -0.26492,-0.02039 -0.3892,-0.05244l-0.92875,-0.22029c0.21651,0.26452 0.42792,0.53833 0.63408,0.82021c0,0 0.9641,1.32479 -0.36057,2.2891c-1.32479,0.9641 -2.2891,-0.36057 -2.2891,-0.36057c-2.35696,-3.25345 -5.4432,-5.03623 -8.72577,-5.34782c-1.90395,0.30153 -3.76846,0.63962 -5.55037,0.83911c-1.14744,0.45373 -2.28313,1.08201 -3.38512,1.88429l-0.15185,0.02353l0.02242,0.04621l-1.57095,0.75764c-0.2291,0.11666 -0.49011,0.1807 -0.76513,0.17666c-0.90523,-0.01315 -1.62788,-0.75702 -1.61501,-1.66183c0.00344,-0.22827 0.05349,-0.44495 0.14046,-0.64106l0.80878,-1.94107l0.77653,0.32404c0.33186,-0.53408 0.71845,-1.01101 1.15182,-1.43526l-1.07661,-0.23181c-0.76353,-0.14875 -1.33485,-0.82657 -1.32348,-1.63205c0.01315,-0.90523 0.75702,-1.62788 1.66183,-1.61501l1.98665,0.02847c0.73149,0.01081 1.54973,0.00979 2.42917,0.0082c1.18404,-0.19768 2.63672,-0.16529 4.19839,0.02021c3.16009,0.05693 6.56253,0.25639 9.42751,0.91883c1.09533,0.1624 2.13983,0.34333 3.10206,0.51993l1.88468,0.02672c0.41199,0.00589 0.78639,0.16305 1.07086,0.41851c7.04338,-0.10363 14.11264,1.47013 21.30717,2.29427c5.22317,0.59844 11.23656,0.56879 15.56254,3.79486c2.85674,2.98881 5.99502,12.95943 -2.13129,9.9156c-4.7645,-1.78518 -1.54938,-4.96539 -2.68867,-7.74625c-1.5451,-0.62155 -3.54164,-1.14552 -5.25851,-1.68165c-1.52822,-0.14628 -2.93432,-0.18972 -3.48052,-0.198z" fill="url(#color-11)" stroke="none" stroke-width="0.5"/><path d="M423.11767,99.84669c8.17703,0.23591 8.12159,-0.70921 7.87844,5.18729c-0.24295,5.89663 -4.19095,10.80774 -8.81812,10.96849c-4.62713,0.16049 -8.18155,-4.4897 -7.93841,-10.38619c0.243,-5.89672 0.15836,-6.02077 8.87828,-5.76945z" data-paper-data="{&quot;index&quot;:null}" fill="url(#color-12)" stroke="#000000" stroke-width="0"/><path d="M444.90825,106.80508c0.6598,-6.44632 0.40457,-5.42447 13.35187,-4.67496c13.80705,0.79906 13.65152,0.92396 12.99188,7.37025c-0.65934,6.44608 -7.09145,11.0685 -14.36612,10.32404c-7.27483,-0.74383 -12.63745,-6.57301 -11.97782,-13.01929z" fill="url(#color-13)" stroke="#000000" stroke-width="0"/></g></g></g></svg>