<svg version="1.1" xmlns="http://www.w3.org/2000/svg" xmlns:xlink="http://www.w3.org/1999/xlink" width="96.02018" height="119.13724" viewBox="0,0,96.02018,119.13724"><defs><linearGradient x1="282.71092" y1="183.90041" x2="286.93459" y2="172.71016" gradientUnits="userSpaceOnUse" id="color-1"><stop offset="0" stop-color="#242424"/><stop offset="1" stop-color="#373737"/></linearGradient><radialGradient cx="279.18591" cy="183.97685" r="3.52256" gradientUnits="userSpaceOnUse" id="color-2"><stop offset="0" stop-color="#bfbfbf"/><stop offset="1" stop-color="#9a9a9a"/></radialGradient><linearGradient x1="288.62543" y1="172.67759" x2="314.51532" y2="135.33865" gradientUnits="userSpaceOnUse" id="color-3"><stop offset="0" stop-color="#b2b2b2"/><stop offset="1" stop-color="#c4c4c4"/></linearGradient><linearGradient x1="289.09146" y1="172.63618" x2="306.03688" y2="148.19724" gradientUnits="userSpaceOnUse" id="color-4"><stop offset="0" stop-color="#cccccc"/><stop offset="1" stop-color="#d8d8d8"/></linearGradient><linearGradient x1="286.85879" y1="174.52101" x2="288.2845" y2="172.54049" gradientUnits="userSpaceOnUse" id="color-5"><stop offset="0" stop-color="#b5b5b5"/><stop offset="1" stop-color="#c5c5c5"/></linearGradient><linearGradient x1="238.47878" y1="149.45809" x2="238.6847" y2="156.30608" gradientUnits="userSpaceOnUse" id="color-6"><stop offset="0" stop-color="#736b4f"/><stop offset="1" stop-color="#bec286"/></linearGradient><linearGradient x1="259.6117" y1="189.51789" x2="262.95306" y2="178.03328" gradientUnits="userSpaceOnUse" id="color-7"><stop offset="0" stop-color="#242424"/><stop offset="1" stop-color="#373737"/></linearGradient><radialGradient cx="256.1033" cy="189.86801" r="3.52256" gradientUnits="userSpaceOnUse" id="color-8"><stop offset="0" stop-color="#bfbfbf"/><stop offset="1" stop-color="#9a9a9a"/></radialGradient><linearGradient x1="264.63627" y1="177.86941" x2="287.54644" y2="138.6316" gradientUnits="userSpaceOnUse" id="color-9"><stop offset="0" stop-color="#b2b2b2"/><stop offset="1" stop-color="#c4c4c4"/></linearGradient><linearGradient x1="265.09767" y1="177.79192" x2="280.09281" y2="152.11012" gradientUnits="userSpaceOnUse" id="color-10"><stop offset="0" stop-color="#cccccc"/><stop offset="1" stop-color="#d8d8d8"/></linearGradient><linearGradient x1="263.0182" y1="179.84454" x2="264.28571" y2="177.75923" gradientUnits="userSpaceOnUse" id="color-11"><stop offset="0" stop-color="#b5b5b5"/><stop offset="1" stop-color="#c5c5c5"/></linearGradient><radialGradient cx="233.43751" cy="124.66098" r="13.11833" gradientUnits="userSpaceOnUse" id="color-12"><stop offset="0" stop-color="#ccbe7a"/><stop offset="1" stop-color="#948f62"/></radialGradient></defs><g transform="translate(-222.44826,-115.18919)"><g data-paper-data="{&quot;isPaintingLayer&quot;:true}" fill-rule="nonzero" stroke-linejoin="miter" stroke-miterlimit="10" stroke-dasharray="" stroke-dashoffset="0" style="mix-blend-mode: normal"><g stroke="#000000" stroke-width="0" stroke-linecap="butt"><path d="M293.01662,176.29991c-0.28403,0.42861 -3.65214,-1.516 -4.76638,-0.62348c-0.38253,0.30641 4.0008,3.23978 3.29318,3.86327c-0.42005,0.37012 -2.81438,-1.30161 -4.19261,-1.743c-0.67146,-0.21502 -4.98771,-2.43066 -4.98771,-2.43066c0,0 -2.19181,-2.11619 -5.44531,-3.4457c-0.78238,-0.31971 -3.24807,-1.55387 -4.05549,-1.87373c-1.91096,-0.75701 -3.83729,-1.43381 -4.99566,-1.92911c-2.49149,-1.06527 -14.05151,-6.92881 -14.05151,-6.92881l1.51423,-5.4487c0,0 5.69431,3.30019 12.00599,6.2996c4.74795,2.2563 10.05308,4.17058 12.38927,5.33846c2.76489,1.38219 6.08743,3.60052 6.08743,3.60052c0,0 2.41695,1.39496 4.37517,2.68996c1.76198,1.16524 3.10291,2.2187 2.82941,2.63143z" data-paper-data="{&quot;index&quot;:null}" fill="#8b8560"/><path d="M247.30122,158.04615c1.91565,-5.64497 5.33106,-4.50805 7.13101,-3.70189c1.79996,0.80616 2.2072,-1.01963 0.42873,4.14556c-1.5032,4.36573 -1.55805,3.62349 -3.35801,2.81733c-1.79996,-0.80616 -5.19935,-0.32116 -4.20171,-3.261z" data-paper-data="{&quot;index&quot;:null}" fill="#42352d"/></g><g stroke="none" stroke-width="0" stroke-linecap="butt"><path d="M283.73861,184.2883l-4.13648,-2.86579l6.30473,-9.10023l4.13648,2.86581z" fill="url(#color-1)"/><path d="M282.10878,180.50818c1.8201,0.68699 2.73871,2.71939 2.05172,4.53951c-0.687,1.82012 -2.71941,2.73872 -4.53952,2.05173c-1.82011,-0.68698 -2.73872,-2.71941 -2.05172,-4.53951c0.687,-1.82012 2.71941,-2.73872 4.53952,-2.05173z" fill="url(#color-2)"/><path d="M292.4475,175.32774l-7.64419,-5.30029l27.2654,-35.9899l6.39972,-5.07988l-2.30467,7.73686z" fill="url(#color-3)"/><path d="M291.59311,174.37075l-5.33345,-3.60685l22.85691,-29.99393l6.77731,-7.67214l-4.6197,8.80551z" fill="url(#color-4)"/><path d="M279.94378,163.83827c0,0 5.21781,6.07255 8.3914,8.42142c3.48444,2.57897 11.66987,6.42664 11.66987,6.42664c0,0 -9.80592,-2.01327 -13.1854,-4.51455c-3.30598,-2.44687 -6.87588,-10.33352 -6.87588,-10.33352z" fill="url(#color-5)"/></g><g><path d="M225.92438,227.14044l4.20132,-33.65782c0,0 6.78326,-2.09379 9.84981,-2.05352c3.6284,0.04764 0.55053,4.25166 0.55053,4.25166c0,0 -3.09293,0.04769 -3.41775,1.47935c-0.99336,4.37832 -3.18147,30.0854 -3.18147,30.0854z" fill="#a69b98" stroke="#000000" stroke-width="0" stroke-linecap="butt"/><path d="M241.20948,232.25041c0,0 -0.41114,1.93492 -1.23797,1.92406c-0.5927,-0.00778 -2.64406,-0.02105 -4.70308,-0.12865c-1.25183,-0.06541 -1.89387,-0.64271 -2.8253,-0.7978c-1.17261,-0.19524 -2.94117,0.18187 -3.78783,-0.02078c-1.56008,-0.3734 -2.36421,-0.80893 -2.36421,-0.80893c0,0 -0.25563,-1.02883 -0.26475,-1.58941c-0.01229,-0.75523 0.19763,-2.53463 0.19763,-2.53463c0,0 5.9353,-0.04164 8.24737,0.18905c1.36812,0.13652 4.23171,0.70242 4.23171,0.70242c0,0 1.45154,0.63472 1.65954,1.06472c0.25472,0.52664 0.84688,1.99995 0.84688,1.99995z" data-paper-data="{&quot;index&quot;:null}" fill="#141415" stroke="#000000" stroke-width="0" stroke-linecap="butt"/><path d="M240.94693,231.61226c0,0 -0.38566,-0.00506 -1.21248,-0.01592c-0.2482,-0.00326 0.6813,1.61073 -2.63539,1.29862c-3.13203,-0.29474 -2.76064,-1.22458 -3.8639,-1.31967c-2.30696,-0.19884 -2.59525,0.56101 -3.59282,0.39491c-0.34742,-0.05784 -0.51116,-0.12127 -1.77168,-0.9937c-0.86691,-0.60001 -0.6426,-1.75981 -1.23407,-2.39571c-0.86397,-0.92889 -0.78364,-1.89625 -0.78364,-1.89625l-0.03635,-3.04847c0,0 0.45734,2.21301 1.28538,3.04836c0.74087,0.7474 2.31695,0.01167 2.80058,0.01789c0.84688,0.01088 -0.64588,-3.27682 0.16356,-3.24794c0.43525,0.01552 3.7255,-0.18518 3.7255,-0.18518c0,0 0.07601,3.58119 0.30869,3.6044c1.36811,0.13652 4.59545,0.7072 4.59545,0.7072c0,0 1.45154,0.63472 1.65954,1.06472c0.25473,0.52664 0.59165,2.96675 0.59165,2.96675z" data-paper-data="{&quot;index&quot;:null}" fill="#252527" stroke="#000000" stroke-width="0" stroke-linecap="butt"/><path d="M232.30358,228.55994l2.6818,-1.05622" data-paper-data="{&quot;index&quot;:null}" fill="none" stroke="#ffffff" stroke-width="0.5" stroke-linecap="round"/><path d="M236.8041,227.52761l-2.56532,1.42155" data-paper-data="{&quot;index&quot;:null}" fill="none" stroke="#ffffff" stroke-width="0.5" stroke-linecap="round"/><path d="M236.41807,229.22029l1.4741,-1.43589" data-paper-data="{&quot;index&quot;:null}" fill="none" stroke="#ffffff" stroke-width="0.5" stroke-linecap="round"/><path d="M233.32769,224.45024l-2.18566,0.21384" data-paper-data="{&quot;index&quot;:null}" fill="none" stroke="#969696" stroke-width="0.5" stroke-linecap="round"/><path d="M233.56063,225.18091l-1.94476,0.33827" data-paper-data="{&quot;index&quot;:null}" fill="none" stroke="#969696" stroke-width="0.5" stroke-linecap="round"/></g><g><path d="M239.70444,191.34303c3.62872,0 10.54956,2.18267 10.54956,2.18267l3.03149,33.71008h-7.63934c0,0 -1.32697,-25.53818 -2.03751,-29.57011c-0.20138,-1.1427 -3.2979,-2.07857 -3.2979,-2.07857c0,0 -3.67312,-4.24407 -0.6063,-4.24407z" fill="#a69b98" stroke="#000000" stroke-width="0" stroke-linecap="butt"/><path d="M259.69262,234.32556c-0.59276,0 -2.64411,0.01365 -4.70436,-0.0669c-1.25258,-0.04897 -1.90215,-0.61779 -2.83553,-0.76063c-1.17507,-0.17982 -2.93854,0.22047 -3.78778,0.02896c-1.56485,-0.35288 -2.37463,-0.77782 -2.37463,-0.77782c0,0 -0.26911,-1.0254 -0.2856,-1.5858c-0.02221,-0.75501 0.16433,-2.53701 0.16433,-2.53701c0,0 5.93425,-0.11957 8.24914,0.08076c1.36979,0.11854 4.24057,0.6468 4.24057,0.6468c0,0 1.45976,0.6156 1.67337,1.04283c0.26162,0.52325 0.87307,1.98865 0.87307,1.98865c0,0 -0.3857,1.94015 -1.21259,1.94015z" data-paper-data="{&quot;index&quot;:null}" fill="#141415" stroke="#000000" stroke-width="0" stroke-linecap="butt"/><path d="M259.4217,231.7508c-0.24822,0 0.7024,1.60165 -2.61811,1.33311c-3.13563,-0.25358 -2.77648,-1.18823 -3.8809,-1.26883c-2.30937,-0.16854 -2.58765,0.59503 -3.58732,0.44205c-0.34815,-0.05328 -0.51271,-0.11454 -1.78459,-0.97035c-0.87472,-0.58857 -0.66566,-1.75122 -1.26542,-2.3793c-0.87609,-0.91745 -0.80847,-1.8858 -0.80847,-1.8858l-0.07637,-3.04773c0,0 0.48635,2.20681 1.32529,3.03122c0.75062,0.73761 2.3169,-0.01875 2.80058,-0.01889c0.84696,-0.00024 -0.68885,-3.26804 0.12091,-3.2498c0.43542,0.00981 3.72275,-0.23409 3.72275,-0.23409c0,0 0.12302,3.57989 0.35598,3.60005c1.36979,0.11854 4.60434,0.6468 4.60434,0.6468c0,0 1.45976,0.6156 1.67338,1.04283c0.26162,0.52325 0.63055,2.95873 0.63055,2.95873c0,0 -0.3857,0 -1.2126,0z" data-paper-data="{&quot;index&quot;:null}" fill="#252527" stroke="#000000" stroke-width="0" stroke-linecap="butt"/><path d="M254.61933,227.72082l-2.6677,1.09133" fill="none" stroke="#ffffff" stroke-width="0.5" stroke-linecap="round"/><path d="M253.89178,229.17593l2.54645,-1.45511" fill="none" stroke="#ffffff" stroke-width="0.5" stroke-linecap="round"/><path d="M256.07445,229.41848l1.45512,-1.45511" fill="none" stroke="#ffffff" stroke-width="0.5" stroke-linecap="round"/><path d="M250.73904,224.93186l2.18266,-0.24252" fill="none" stroke="#969696" stroke-width="0.5" stroke-linecap="round"/><path d="M253.16423,225.41693l-1.94015,0.36378" fill="none" stroke="#969696" stroke-width="0.5" stroke-linecap="round"/></g><path d="M234.88236,157.2195l-0.22993,-7.64632l7.65269,-0.23013l0.12274,7.87785z" fill="url(#color-6)" stroke="#000000" stroke-width="0" stroke-linecap="butt"/><g stroke="#000000" stroke-width="0" stroke-linecap="butt"><path d="M287.71538,184.55164c-0.32695,0.34645 -3.1592,-1.69853 -4.03062,-1.85978c-0.46649,-0.08633 2.95418,3.55639 2.20713,4.01667c-0.44346,0.27323 -2.39642,-1.59809 -3.59979,-2.20297c-0.58627,-0.29468 -4.22817,-2.94454 -4.22817,-2.94454c0,0 -1.69875,-2.24423 -4.4957,-3.93284c-0.6726,-0.40606 -2.75786,-1.89123 -3.45353,-2.30113c-1.64644,-0.97014 -3.31924,-1.86984 -4.31173,-2.49094c-2.13472,-1.33585 -11.89941,-8.36894 -11.89941,-8.36894l2.22394,-4.71559c0,0 4.74735,3.83787 10.10951,7.49467c4.03368,2.75084 8.63294,5.27429 10.60889,6.68012c2.33856,1.66381 5.06409,4.16855 5.06409,4.16855c0,0 2.01591,1.62371 3.62413,3.08868c1.44707,1.31817 2.4961,3.0344 2.18127,3.36802z" data-paper-data="{&quot;index&quot;:null}" fill="#979068"/><path d="M248.37671,160.65056c2.62378,-4.83395 5.59927,-3.29594 7.13594,-2.2977c1.53665,0.99824 2.18953,-0.59678 -0.23487,3.82251c-2.04918,3.7353 -1.98693,3.05413 -3.52358,2.05589c-1.53665,-0.99824 -4.74388,-1.06323 -3.37747,-3.58069z" data-paper-data="{&quot;index&quot;:null}" fill="#4a3c33"/></g><path d="M229.70309,193.91807c0,0 0.90434,-4.99776 0.22297,-10.36383c-0.21215,-1.67078 -0.38392,-5.67997 -0.94305,-7.51698c-0.66107,-2.17198 -2.61641,-2.70039 -2.742,-4.04853c-0.24805,-2.66296 -1.27373,-6.75846 -0.75806,-11.35358c0.38872,-3.46391 3.26764,-6.39958 3.26764,-6.39958c0,0 3.97697,-0.40881 5.76479,-0.0962c2.2758,0.39793 4.71389,2.35235 4.71389,2.35235c0,0 3.02333,-2.11459 4.92338,-2.58817c2.00479,-0.4997 5.48249,-0.14809 5.48249,-0.14809c0,0 2.7258,3.44152 3.08227,7.75181c0.33643,4.06812 -0.37781,8.48302 -0.40423,10.15445c-0.02678,1.69413 -1.43035,2.17528 -2.00283,4.33698c-0.4567,1.72456 -0.39078,5.20453 -0.46105,7.2066c-0.1632,4.64997 0.45657,10.26463 0.45657,10.26463c0,0 -2.77885,-0.6861 -5.59453,-0.66968c-1.27869,0.00746 -1.76021,1.0595 -2.96213,1.25492c-0.96069,0.15618 -2.65346,-0.5334 -3.57898,-0.54233c-0.69967,-0.00675 -2.0588,-0.46893 -2.55294,-0.45818c-0.99775,0.0217 -1.58898,0.91347 -2.7414,1.10754c-1.33867,0.22544 -3.17287,-0.24413 -3.17287,-0.24413z" fill="#4f4037" stroke="#292e32" stroke-width="0" stroke-linecap="butt"/><g stroke="#000000" stroke-width="0" stroke-linecap="butt"><path d="M260.8877,182.34273c-2.15281,-0.93929 -4.63765,-2.21669 -4.63765,-2.21669c0,0 -3.67057,-1.58146 -6.33223,-3.16673c-2.24895,-1.33948 -6.73109,-4.80954 -11.20245,-7.59991c-5.94402,-3.70935 -11.80986,-6.71096 -11.80986,-6.71096l3.79852,-4.4707c0,0 11.20005,6.57897 13.44582,8.11212c1.04415,0.71282 2.65617,1.98341 4.32781,3.19421c0.7063,0.51158 3.08125,1.92442 3.77393,2.41446c2.88051,2.03779 5.85484,2.70209 5.85484,2.70209c0,0 4.20414,2.44115 4.74835,2.89617c1.11706,0.93397 3.82414,2.03115 3.73715,2.60876c-0.14653,0.97303 -6.03181,-1.28305 -5.74768,-0.8513c0.53074,0.80655 4.00787,3.51016 3.79799,4.00424c-0.20211,0.47579 -1.81745,-0.07065 -3.75453,-0.91581z" data-paper-data="{&quot;index&quot;:null}" fill="#a0986e"/><path d="M229.7768,156.26747c1.65342,1.0864 2.31167,0.70288 -0.57551,4.53537c-3.4159,4.53431 -2.08905,3.12274 -3.74248,2.03634c-1.65342,-1.0864 -4.45812,-3.37582 -0.70983,-8.30712c1.95206,-2.56814 3.37437,0.649 5.0278,1.73539z" fill="#615046"/></g><g stroke="none" stroke-width="0" stroke-linecap="butt"><path d="M260.66643,189.82475l-4.34666,-2.5357l5.57853,-9.56262l4.34666,2.53572z" fill="url(#color-7)"/><path d="M258.74778,186.18272c1.86798,0.54348 2.94174,2.49836 2.39826,4.36636c-0.54348,1.868 -2.49837,2.94175 -4.36636,2.39827c-1.86799,-0.54348 -2.94175,-2.49837 -2.39826,-4.36636c0.54348,-1.868 2.49837,-2.94175 4.36636,-2.39827z" fill="url(#color-8)"/><path d="M268.6527,180.21456l-8.03293,-4.69027l24.38636,-37.99975l5.98564,-5.56182l-1.69651,7.89256z" fill="url(#color-9)"/><path d="M267.72654,179.32686l-5.59759,-3.1815l20.45712,-31.67934l6.16064,-8.17557l-3.9215,9.13786z" fill="url(#color-10)"/><path d="M255.294,169.73143c0,0 5.6739,5.64874 9.02042,7.7439c3.67431,2.30041 12.13397,5.5004 12.13397,5.5004c0,0 -9.93271,-1.24521 -13.49634,-3.47633c-3.48612,-2.18257 -7.65806,-9.76797 -7.65806,-9.76797z" fill="url(#color-11)"/></g><g stroke="#000000" stroke-width="0" stroke-linecap="butt"><path d="M257.9566,190.07072c-2.04427,-1.15661 -4.38387,-2.68386 -4.38387,-2.68386c0,0 -3.48759,-1.95214 -5.97125,-3.80386c-2.09857,-1.56461 -6.1983,-5.47909 -10.35753,-8.71637c-5.52906,-4.30347 -11.05351,-7.89492 -11.05351,-7.89492l4.23999,-4.05443c0,0 10.46059,7.70066 12.53599,9.45758c0.96494,0.81685 2.43708,2.24716 3.9747,3.62416c0.64968,0.58179 2.86599,2.23239 3.50435,2.79136c2.65461,2.32442 5.54442,3.29238 5.54442,3.29238c0,0 7.45793,6.49564 7.35248,6.99563c-0.30719,1.45638 -5.23171,-2.54759 -5.05233,-1.98736c0.3389,1.05836 3.56619,3.80865 3.30641,4.27841c-0.25018,0.45235 -1.80044,-0.258 -3.63987,-1.29871z" data-paper-data="{&quot;index&quot;:null}" fill="#ada477"/><path d="M229.59602,160.85344c1.53236,1.25137 2.22673,0.93791 -1.04089,4.45168c-3.86597,4.15721 -2.40044,2.89025 -3.9328,1.63888c-1.53236,-1.25137 -4.08558,-3.81825 0.15203,-8.336c2.20689,-2.35278 3.2893,0.99406 4.82166,2.24544z" fill="#615046"/></g><g><path d="M249.00038,117.50968c0,0 -0.16574,3.2509 -0.45089,4.58846c-0.23355,1.09547 -1.13636,2.85655 -1.13636,2.85655" data-paper-data="{&quot;index&quot;:null}" fill="none" stroke="#3b2c16" stroke-width="1.25" stroke-linecap="round"/><path d="M250.52838,121.60387c0,0 -0.12051,2.28316 -0.49121,3.25162c-0.39208,1.02431 -1.80074,2.7361 -1.80074,2.7361" data-paper-data="{&quot;index&quot;:null}" fill="none" stroke="#3b2c16" stroke-width="1.25" stroke-linecap="round"/><path d="M246.69516,115.81419c0,0 0.21485,3.26605 0.11069,4.69184c-0.08532,1.16773 -0.69051,3.24431 -0.69051,3.24431" data-paper-data="{&quot;index&quot;:null}" fill="none" stroke="#3b2c16" stroke-width="1.25" stroke-linecap="round"/><path d="M250.82138,133.9232c0.22217,7.3882 -7.66143,17.55276 -10.87136,17.71117c-6.68455,0.32987 -14.52611,-9.55256 -14.74828,-16.94076c-0.22217,-7.3882 5.33287,-13.54998 12.40753,-13.76271c7.07466,-0.21274 12.98991,5.60411 13.21208,12.99231z" fill="url(#color-12)" stroke="none" stroke-width="0" stroke-linecap="butt"/><path d="M239.95547,135.33362c0.062,2.06198 -0.73897,3.75915 -1.78902,3.79073c-1.05005,0.03158 -1.95154,-1.61441 -2.01355,-3.67638c-0.062,-2.06198 0.73896,-3.75914 1.78901,-3.79072c1.05005,-0.03158 1.95155,1.6144 2.01356,3.67637z" fill="none" stroke="#191412" stroke-width="1.5" stroke-linecap="butt"/><path d="M244.5202,129.63215c0.062,2.06198 -0.73897,3.75915 -1.78901,3.79073c-1.05005,0.03158 -1.95155,-1.61441 -2.01356,-3.67638c-0.062,-2.06198 0.73897,-3.75915 1.78902,-3.79073c1.05005,-0.03158 1.95154,1.6144 2.01355,3.67638z" fill="none" stroke="#191412" stroke-width="1.5" stroke-linecap="butt"/><path d="M249.38011,135.00372c0.062,2.06198 -0.73896,3.75915 -1.78901,3.79073c-1.05005,0.03158 -1.95155,-1.61441 -2.01356,-3.67638c-0.062,-2.06198 0.73896,-3.75914 1.78902,-3.79072c1.05005,-0.03158 1.95154,1.6144 2.01355,3.67637z" fill="none" stroke="#191412" stroke-width="1.5" stroke-linecap="butt"/><path d="M244.78294,140.27305c0.062,2.06198 -0.73897,3.75915 -1.78901,3.79073c-1.05005,0.03158 -1.95155,-1.61441 -2.01356,-3.67638c-0.062,-2.06198 0.73896,-3.75914 1.78902,-3.79072c1.05005,-0.03158 1.95154,1.6144 2.01355,3.67637z" fill="none" stroke="#191412" stroke-width="1.5" stroke-linecap="butt"/><path d="M230.28789,125.79123c0,0 -1.60775,-1.68467 -2.07475,-2.75881c-0.5702,-1.31152 -1.09906,-4.54128 -1.09906,-4.54128" fill="none" stroke="#47341a" stroke-width="1.5" stroke-linecap="round"/><path d="M229.16039,128.48756c0,0 -2.4259,-1.59508 -3.14485,-2.58557c-0.67976,-0.93649 -1.05784,-3.20447 -1.05784,-3.20447" fill="none" stroke="#47341a" stroke-width="1.5" stroke-linecap="round"/><path d="M232.30085,124.48609c0,0 -1.14931,-2.02318 -1.38119,-3.18125c-0.2831,-1.414 -0.19467,-4.68927 -0.19467,-4.68927" fill="none" stroke="#47341a" stroke-width="1.5" stroke-linecap="round"/></g></g></g></svg>