<svg version="1.1" xmlns="http://www.w3.org/2000/svg" xmlns:xlink="http://www.w3.org/1999/xlink" width="59" height="59.70662" viewBox="0,0,59,59.70662"><defs><linearGradient x1="240.00014" y1="151.64675" x2="240.00014" y2="208.35337" gradientUnits="userSpaceOnUse" id="color-1"><stop offset="0" stop-color="#1a1414" stop-opacity="0.9506"/><stop offset="1" stop-color="#050000" stop-opacity="0.94834"/></linearGradient><linearGradient x1="240.00014" y1="151.64675" x2="240.00014" y2="208.35337" gradientUnits="userSpaceOnUse" id="color-2"><stop offset="0" stop-color="#ccb0b0" stop-opacity="0.77419"/><stop offset="1" stop-color="#8a5858" stop-opacity="0.79839"/></linearGradient><radialGradient cx="240.00001" cy="180" r="26.8571" gradientUnits="userSpaceOnUse" id="color-3"><stop offset="0" stop-color="#ffcece" stop-opacity="0.34997"/><stop offset="1" stop-color="#ffcece" stop-opacity="0"/></radialGradient><linearGradient x1="240.00001" y1="153.2921" x2="240.00001" y2="206.70789" gradientUnits="userSpaceOnUse" id="color-4"><stop offset="0" stop-color="#cccccc"/><stop offset="1" stop-color="#898989"/></linearGradient><linearGradient x1="221.67721" y1="193.8416" x2="230.93961" y2="193.8416" gradientUnits="userSpaceOnUse" id="color-5"><stop offset="0" stop-color="#373737"/><stop offset="1" stop-color="#242424"/></linearGradient><radialGradient cx="220.96312" cy="197.52335" r="2.85925" gradientUnits="userSpaceOnUse" id="color-6"><stop offset="0" stop-color="#bfbfbf"/><stop offset="1" stop-color="#9a9a9a"/></radialGradient><radialGradient cx="250.3532" cy="167.52502" r="16.55124" gradientUnits="userSpaceOnUse" id="color-7"><stop offset="0" stop-color="#d7d7d7"/><stop offset="1" stop-color="#b2b2b2"/></radialGradient><radialGradient cx="250.50658" cy="169.51897" r="14.64661" gradientUnits="userSpaceOnUse" id="color-8"><stop offset="0" stop-color="#f1f1f1"/><stop offset="1" stop-color="#cccccc"/></radialGradient><linearGradient x1="228.49871" y1="191.12701" x2="229.93236" y2="189.76017" gradientUnits="userSpaceOnUse" id="color-9"><stop offset="0" stop-color="#b5b5b5"/><stop offset="1" stop-color="#c5c5c5"/></linearGradient></defs><g transform="translate(-210.50014,-150.14675)"><g data-paper-data="{&quot;isPaintingLayer&quot;:true}" fill-rule="nonzero" stroke-linecap="butt" stroke-linejoin="miter" stroke-miterlimit="10" stroke-dasharray="" stroke-dashoffset="0" style="mix-blend-mode: normal"><path d="M212.00014,208.35337v-56.70662h56v56.70662z" fill="url(#color-1)" stroke="url(#color-2)" stroke-width="3"/><path d="M266.85711,180c0,14.75036 -12.02433,26.70789 -26.8571,26.70789c-14.83277,0 -26.8571,-11.95753 -26.8571,-26.70789c0,-14.75036 12.02433,-26.70789 26.8571,-26.70789c14.83277,0 26.8571,11.95753 26.8571,26.70789z" fill="url(#color-3)" stroke="url(#color-4)" stroke-width="0"/><path d="M224.54868,198.45271l-2.87148,-2.90497l6.39093,-6.31724l2.87148,2.90497z" fill="url(#color-5)" stroke="none" stroke-width="0"/><path d="M223.81373,195.19317c1.34934,0.82029 1.77824,2.57913 0.95795,3.92847c-0.82029,1.34934 -2.57913,1.77825 -3.92848,0.95795c-1.34934,-0.82029 -1.77825,-2.57913 -0.95795,-3.92847c0.82029,-1.34934 2.57913,-1.77825 3.92848,-0.95795z" fill="url(#color-6)" stroke="none" stroke-width="0"/><path d="M232.83674,192.60643l-5.30584,-5.37181l27.13487,-24.63504l5.86543,-3.09562l-2.99576,5.82779z" fill="url(#color-7)" stroke="none" stroke-width="0"/><path d="M232.29823,191.71518l-3.7156,-3.6752l22.72104,-20.51076l6.55436,-5.10726l-5.00252,6.33414z" fill="url(#color-8)" stroke="none" stroke-width="0"/><path d="M224.5796,181.57013c0,0 3.25459,5.62505 5.43518,7.97359c2.39419,2.57862 8.34909,6.87249 8.34909,6.87249c0,0 -7.52207,-3.07273 -9.84414,-5.57368c-2.27157,-2.44654 -3.94012,-9.27242 -3.94012,-9.27242z" fill="url(#color-9)" stroke="none" stroke-width="0"/><path d="M215.06988,162.22182v-7.06998h19.84414v7.06998z" fill-opacity="0.52999" fill="#0a0000" stroke="#a60000" stroke-width="0"/><text transform="translate(215.50372,160.75253) scale(0.18022,0.18022)" font-size="40" xml:space="preserve" fill="#ffffff" fill-rule="nonzero" stroke="#000000" stroke-width="0" stroke-linecap="butt" stroke-linejoin="miter" stroke-miterlimit="10" stroke-dasharray="" stroke-dashoffset="0" font-family="Serif" font-weight="normal" text-anchor="start" style="mix-blend-mode: normal"><tspan x="0" dy="0">Sword</tspan></text><path d="M214.54815,205.29757v-2.74222h25.36585v2.74222z" fill-opacity="0.52999" fill="#0a0000" stroke="#a60000" stroke-width="0"/><text transform="translate(214.71644,204.72768) scale(0.0699,0.0699)" font-size="40" xml:space="preserve" fill="#ffffff" fill-rule="nonzero" stroke="#000000" stroke-width="0" stroke-linecap="butt" stroke-linejoin="miter" stroke-miterlimit="10" stroke-dasharray="" stroke-dashoffset="0" font-family="Serif" font-weight="normal" text-anchor="start" style="mix-blend-mode: normal"><tspan x="0" dy="0">High damage slashing</tspan></text></g></g></svg>