<svg version="1.1" xmlns="http://www.w3.org/2000/svg" xmlns:xlink="http://www.w3.org/1999/xlink" width="619.06298" height="471.58011" viewBox="0,0,619.06298,471.58011"><defs><radialGradient cx="240.00006" cy="180.00006" r="250.5" gradientUnits="userSpaceOnUse" id="color-1"><stop offset="0" stop-color="#949494"/><stop offset="1" stop-color="#7d7d7d"/></radialGradient><radialGradient cx="243.51178" cy="115.55084" r="114.5" gradientUnits="userSpaceOnUse" id="color-2"><stop offset="0" stop-color="#484848"/><stop offset="1" stop-color="#3a3a3a"/></radialGradient><radialGradient cx="313.80124" cy="294.91337" r="270.53072" gradientUnits="userSpaceOnUse" id="color-3"><stop offset="0" stop-color="#4d4d4d"/><stop offset="1" stop-color="#3c3c3c"/></radialGradient><radialGradient cx="228.9783" cy="290.72909" r="66" gradientUnits="userSpaceOnUse" id="color-4"><stop offset="0" stop-color="#2a2a2a"/><stop offset="1" stop-color="#2a2a2a"/></radialGradient><radialGradient cx="222.20349" cy="295.86251" r="66" gradientUnits="userSpaceOnUse" id="color-5"><stop offset="0" stop-color="#1d1d1d"/><stop offset="1" stop-color="#1b1b1b"/></radialGradient><radialGradient cx="349.58349" cy="455.23884" r="249.95744" gradientUnits="userSpaceOnUse" id="color-6"><stop offset="0" stop-color="#222222"/><stop offset="1" stop-color="#202020"/></radialGradient><radialGradient cx="308.17233" cy="316.18156" r="65" gradientUnits="userSpaceOnUse" id="color-7"><stop offset="0" stop-color="#090909"/><stop offset="1" stop-color="#080808"/></radialGradient><radialGradient cx="465.65063" cy="219.72" r="26.5" gradientUnits="userSpaceOnUse" id="color-8"><stop offset="0" stop-color="#525252"/><stop offset="1" stop-color="#424242"/></radialGradient><radialGradient cx="389.18028" cy="264.01043" r="84" gradientUnits="userSpaceOnUse" id="color-9"><stop offset="0" stop-color="#1d1d1d"/><stop offset="1" stop-color="#1b1b1b"/></radialGradient><radialGradient cx="423.8229" cy="230.41897" r="44.75" gradientUnits="userSpaceOnUse" id="color-10"><stop offset="0" stop-color="#3a3a3a"/><stop offset="1" stop-color="#2f2f2f"/></radialGradient><radialGradient cx="376.45235" cy="270.17483" r="48.5" gradientUnits="userSpaceOnUse" id="color-11"><stop offset="0" stop-color="#343434"/><stop offset="1" stop-color="#262626"/></radialGradient><radialGradient cx="333.55178" cy="246.02499" r="26.25" gradientUnits="userSpaceOnUse" id="color-12"><stop offset="0" stop-color="#121212"/><stop offset="1" stop-color="#161616"/></radialGradient><radialGradient cx="315.50973" cy="313.64932" r="65" gradientUnits="userSpaceOnUse" id="color-13"><stop offset="0" stop-color="#101010"/><stop offset="1" stop-color="#111111"/></radialGradient><radialGradient cx="483.5895" cy="201.60378" r="36.25" gradientUnits="userSpaceOnUse" id="color-14"><stop offset="0" stop-color="#313131"/><stop offset="1" stop-color="#1b1b1b"/></radialGradient><radialGradient cx="374.11476" cy="344.70196" r="26.25" gradientUnits="userSpaceOnUse" id="color-15"><stop offset="0" stop-color="#121212"/><stop offset="1" stop-color="#161616"/></radialGradient><radialGradient cx="332.30292" cy="256.98151" r="57.27136" gradientUnits="userSpaceOnUse" id="color-16"><stop offset="0" stop-color="#33266a"/><stop offset="1" stop-color="#949074"/></radialGradient><linearGradient x1="-11.98824" y1="179.28457" x2="150.92971" y2="179.28457" gradientUnits="userSpaceOnUse" id="color-17"><stop offset="0" stop-color="#7d7d7d"/><stop offset="1" stop-color="#818181"/></linearGradient><linearGradient x1="356.44326" y1="201.34535" x2="349.60731" y2="217.32813" gradientUnits="userSpaceOnUse" id="color-18"><stop offset="0" stop-color="#694444"/><stop offset="1" stop-color="#98a1b9"/></linearGradient><radialGradient cx="379.42665" cy="146.78277" r="33.28545" gradientUnits="userSpaceOnUse" id="color-19"><stop offset="0" stop-color="#dcdcdc"/><stop offset="1" stop-color="#a0a0a0"/></radialGradient><radialGradient cx="392.63316" cy="149.58731" r="25.55275" gradientUnits="userSpaceOnUse" id="color-20"><stop offset="0" stop-color="#1c2f30"/><stop offset="1" stop-color="#142913"/></radialGradient><radialGradient cx="352.61548" cy="135.4037" r="6.72592" gradientUnits="userSpaceOnUse" id="color-21"><stop offset="0" stop-color="#786c41"/><stop offset="1" stop-color="#141a29"/></radialGradient><radialGradient cx="379.7792" cy="145.04842" r="10.58856" gradientUnits="userSpaceOnUse" id="color-22"><stop offset="0" stop-color="#7ba676"/><stop offset="1" stop-color="#291616"/></radialGradient><radialGradient cx="364.34687" cy="164.54071" r="25.00169" gradientUnits="userSpaceOnUse" id="color-23"><stop offset="0" stop-color="#d1ffc4"/><stop offset="1" stop-color="#2188ff"/></radialGradient><radialGradient cx="364.34687" cy="164.54071" r="25.00169" gradientUnits="userSpaceOnUse" id="color-24"><stop offset="0" stop-color="#ceffc4"/><stop offset="1" stop-color="#ff21cc"/></radialGradient><radialGradient cx="364.34687" cy="164.54071" r="25.00169" gradientUnits="userSpaceOnUse" id="color-25"><stop offset="0" stop-color="#ffe9c4"/><stop offset="1" stop-color="#4fff21"/></radialGradient><radialGradient cx="364.34687" cy="164.54071" r="25.00169" gradientUnits="userSpaceOnUse" id="color-26"><stop offset="0" stop-color="#ffe9c4"/><stop offset="1" stop-color="#4fff21"/></radialGradient><radialGradient cx="364.34693" cy="164.54074" r="25.00169" gradientUnits="userSpaceOnUse" id="color-27"><stop offset="0" stop-color="#ffe9c4"/><stop offset="1" stop-color="#ffa321"/></radialGradient><radialGradient cx="364.34696" cy="164.54075" r="25.00169" gradientUnits="userSpaceOnUse" id="color-28"><stop offset="0" stop-color="#c4f0ff"/><stop offset="1" stop-color="#3d21ff"/></radialGradient></defs><g transform="translate(11.98824,8.48167)"><g data-paper-data="{&quot;isPaintingLayer&quot;:true}" fill-rule="nonzero" stroke-linejoin="miter" stroke-miterlimit="10" stroke-dasharray="" stroke-dashoffset="0" style="mix-blend-mode: normal"><path d="M-10.49996,368.00005v-376h501v376z" fill="url(#color-1)" stroke="none" stroke-width="0" stroke-linecap="butt"/><path d="M55.6371,350.09241c-3.89444,-35.12313 -28.86024,-260.28391 -28.86024,-260.28391c0,0 6.13498,-58.73673 90.38049,-83.32369c88.94305,-19.99889 123.11201,33.7383 123.11201,33.7383c0,0 65.07454,148.36123 76.16367,173.64299c3.0985,7.06417 1.47154,14.99796 -6.00481,17.45295c-24.82515,8.15175 -82.74364,27.48408 -119.81421,42.36863c-36.09995,14.49483 -99.11668,64.98273 -123.29164,84.94994c-6.18411,5.10773 -10.69693,0.36836 -11.68526,-8.54521z" fill="#000000" stroke="none" stroke-width="NaN" stroke-linecap="butt"/><path d="M165.01173,165.05085l-2,-164c0,0 26.59426,3.29414 40.84201,7.29545c21.80408,6.12342 42.158,33.70455 42.158,33.70455c0,0 56.32326,135.7535 68.65762,165.48248c4.54989,10.96641 3.54663,20.14819 -2.69066,17.59835c-21.79808,-8.91117 -146.96696,-60.08083 -146.96696,-60.08083z" fill="url(#color-2)" stroke="none" stroke-width="0" stroke-linecap="butt"/><path d="M605.6926,270.33002c14.79035,54.92892 -90.81001,131.12039 -235.86501,170.17842c-145.055,39.05803 -274.63528,26.19214 -289.42563,-28.73678c-14.79036,-54.92892 90.81,-131.1204 235.86501,-170.17843c145.05501,-39.05803 274.63528,-26.19213 289.42564,28.73679z" fill="url(#color-3)" stroke="none" stroke-width="NaN" stroke-linecap="butt"/><g data-paper-data="{&quot;index&quot;:null}"><path d="M221.72139,238.5142l18.63568,7.20842l33.462,93.83653l-22.25925,-11.99065z" fill="url(#color-4)" stroke="none" stroke-width="0" stroke-linecap="butt"/><path d="M252.45341,326.2641l21.46221,12.59458l-6.87139,5.83387l-22.95973,-12.08721z" fill="url(#color-5)" stroke="none" stroke-width="0" stroke-linecap="butt"/><path d="M243.98789,333.30584l-29.01224,-87.79835l7.58732,-5.8825l30.00994,86.54853z" data-paper-data="{&quot;index&quot;:null}" fill="url(#color-6)" stroke="none" stroke-width="0" stroke-linecap="butt"/><path d="M226.68187,242.06684l49.6744,5.71874l-37.99309,0.88027" fill="none" stroke="#747474" stroke-width="1.5" stroke-linecap="round"/><path d="M255.92501,323.04884l55.24453,10.40635l-43.1397,-2.28397" fill="none" stroke="#747474" stroke-width="1.5" stroke-linecap="round"/><path d="M261.55151,289.70277c-6.53341,-17.0944 -5.97747,-42.56344 -2.56125,-48.30337c2.17588,-3.65591 19.20595,5.0226 28.79083,9.47131c7.94194,3.68615 20.28707,15.94247 20.28707,15.94247l45.54771,97.12701c0,0 -20.99459,-3.76071 -30.44393,-7.83954c-9.80806,-4.23367 -25.97957,-9.11744 -30.68559,-14.8801c-4.67276,-5.72192 -24.85768,-35.61715 -30.93484,-51.51779z" fill="url(#color-7)" stroke="none" stroke-width="0" stroke-linecap="butt"/><path d="M447.24616,199.56373l11.4751,-7.12896l27.95706,45.07108l-12.43968,8.3818z" fill="url(#color-8)" stroke="none" stroke-width="0" stroke-linecap="butt"/><path d="M314.438,264.9328l123.01751,-82.28573l54.9052,82.38124l-141.83002,91.94697z" fill="url(#color-9)" stroke="none" stroke-width="0" stroke-linecap="butt"/><path d="M386.04121,217.89278l43.80938,-30.72438l47.9381,75.62035l-47.68542,32.13022z" fill="url(#color-10)" stroke="none" stroke-width="0" stroke-linecap="butt"/><path d="M321.12865,271.87998l69.10339,-47.76737l35.25675,63.06316l-75.46736,50.84956z" fill="url(#color-11)" stroke="none" stroke-width="0" stroke-linecap="butt"/><path d="M299.1187,251.74145c0,0 17.84291,-8.94866 28.21866,-11.42355c8.73093,-2.08255 31.61593,-3.57052 31.61593,-3.57052l-43.12421,29.0569z" fill="url(#color-12)" stroke="none" stroke-width="0" stroke-linecap="butt"/><path d="M268.88892,287.17044c-6.53341,-17.0944 -10.41229,-41.98691 -6.99608,-47.72684c2.17588,-3.65591 23.64077,4.44607 33.22565,8.89478c7.94194,3.68615 20.28707,15.94247 20.28707,15.94247l42.23047,99.36215c0,0 -17.67735,-5.99585 -27.12668,-10.07468c-9.80806,-4.23367 -25.97957,-9.11744 -30.68559,-14.8801c-4.67276,-5.72192 -24.85768,-35.61715 -30.93484,-51.51779z" fill="url(#color-13)" stroke="none" stroke-width="0" stroke-linecap="butt"/><path d="M449.82502,188.17954l31.23445,-21.64854l44.65857,57.33116l-34.41643,23.18963z" fill="url(#color-14)" stroke="none" stroke-width="0" stroke-linecap="butt"/><path d="M335.68815,356.12379c0,0 20.54692,-17.4247 32.57751,-22.08748c10.09842,-3.91392 30.79164,-7.34635 30.79164,-7.34635l-43.07987,38.07066z" fill="url(#color-15)" stroke="none" stroke-width="0" stroke-linecap="butt"/></g><path d="M270.87143,287.77959l56.96709,-99.3719l65.89566,37.77602l-56.96709,99.3719z" fill="url(#color-16)" stroke="#ed6b00" stroke-width="0" stroke-linecap="butt"/><g data-paper-data="{&quot;index&quot;:null}" stroke="#000000" stroke-width="0" stroke-linecap="butt"><path d="M264.47569,267.06724c0,0 3.38015,-4.09039 7.43547,-11.6878c2.43567,-4.56325 6.01643,-12.23837 7.1216,-13.86066c2.46549,-3.61838 4.92353,-8.16759 6.61965,-10.43263c0.86064,-1.1493 7.81836,-10.7231 15.72696,-19.86242c9.43,-10.89748 17.31022,-23.72018 24.25085,-14.51579c11.96322,8.36262 -15.56411,31.5237 -15.56411,31.5237c0,0 -6.85229,6.2287 -10.7724,11.46322c-1.82265,2.4338 -5.34562,5.92762 -8.43053,9.81648c-1.3035,1.64317 -4.94787,7.20083 -6.19827,8.81367c-5.19947,6.70666 -7.10821,13.78341 -7.10821,13.78341z" fill="#b8bda6"/><path d="M258.94234,276.90315c-1.21925,-0.48941 5.13052,-9.88786 5.13052,-9.88786c0,0 4.98922,0.14418 7.14158,0.96788c2.21065,0.84564 5.9516,4.04161 5.9516,4.04161c0,0 -1.19784,2.57583 -0.91742,4.83332c0.47954,3.86326 1.38824,8.1829 -1.20985,10.08162c-1.40973,1.03036 -0.38377,-5.72066 -1.2462,-5.40053c-0.15347,0.0569 -5.02468,9.56786 -6.13235,9.53458c-1.80978,-0.05445 2.57803,-10.08183 1.43044,-8.81941c-2.35518,2.59153 -4.61599,9.88111 -5.9954,9.6149c-2.32361,-0.44871 4.60748,-12.19559 3.54178,-11.55579c-1.99082,1.19548 -4.98114,8.93666 -6.19699,8.75819c-3.54183,-0.51976 3.39204,-9.71871 2.07386,-9.20426c-2.48995,0.97158 -4.07681,6.70474 -5.24336,6.15127c-2.37164,-1.12519 2.24744,-8.88402 1.67178,-9.11522z" data-paper-data="{&quot;index&quot;:null}" fill="#786274"/></g><g><path d="M219.31971,300.86082l81.28134,-28.28897c0,0 12.3895,13.07479 15.74601,20.09522c3.9714,8.30658 -9.05175,6.03262 -9.05175,6.03262c0,0 -3.58621,-6.98137 -7.20787,-6.11048c-11.07589,2.66366 -72.00897,26.59176 -72.00897,26.59176z" data-paper-data="{&quot;index&quot;:null}" fill="#4a433c" stroke="#000000" stroke-width="0" stroke-linecap="butt"/><path d="M196.98176,295.34434c-0.90495,-1.89287 3.11414,-4.89916 3.11414,-4.89916c0,0 4.02346,-0.20433 5.50771,-0.17783c1.21185,0.0212 4.21871,2.68919 4.21871,2.68919c0,0 4.35116,5.99379 6.12177,8.99963c2.99224,5.07989 9.21316,18.79527 9.21316,18.79527c0,0 -3.87506,2.37721 -5.6277,3.15276c-1.30071,0.57557 -3.94266,1.08192 -3.94266,1.08192c0,0 -1.85901,-1.38841 -4.37957,-4.58449c-1.36777,-1.7344 -2.38138,-6.20969 -4.07923,-8.70254c-1.34864,-1.98041 -3.36141,-2.84458 -4.84462,-5.65839c-2.43904,-4.62781 -4.65311,-9.33856 -5.30177,-10.69566z" data-paper-data="{&quot;index&quot;:null}" fill="#140d0d" stroke="#000000" stroke-width="0" stroke-linecap="butt"/><path d="M203.17229,293.14628c-0.90506,-1.89273 -1.32704,-2.77589 -1.32704,-2.77589c0,0 5.97885,-1.82098 7.4631,-1.79448c1.21163,0.02129 4.21851,2.68929 4.21851,2.68929c0,0 4.74941,6.82634 6.52002,9.8322c0.30096,0.51121 8.6306,-3.12519 8.6306,-3.12519c0,0 3.0396,7.79211 3.53847,8.77821c0.92814,1.83376 -8.23342,1.89439 -7.30696,3.83348c0.52905,1.10743 0.51168,5.52072 3.02175,6.43174c2.80533,1.01849 8.38929,-0.28356 8.38929,-0.28356l-7.06028,3.16077c0,0 -2.14279,1.2148 -5.20182,0.2133c-2.09423,-0.68553 -4.52696,1.0657 -6.83162,-0.29259c-3.35115,-1.97477 -3.67126,-2.28427 -4.17433,-3.02303c-1.4443,-2.12111 -0.0009,-3.59365 -2.9142,-8.69584c-1.39339,-2.44025 -3.1398,-0.59486 -7.152,-7.49541c-4.24869,-7.30693 0.45795,-6.88388 0.18626,-7.45209z" data-paper-data="{&quot;index&quot;:null}" fill="#1f261f" stroke="#000000" stroke-width="0" stroke-linecap="butt"/><path d="M217.65358,299.7301l0.42142,7.30125" fill="none" stroke="#ffb5b5" stroke-width="0.5" stroke-linecap="round"/><path d="M215.66245,295.56629l-0.54388,7.42186" fill="none" stroke="#bffdff" stroke-width="0.5" stroke-linecap="round"/><path d="M213.91302,293.3338l-1.73827,4.9232" fill="none" stroke="#eaffc1" stroke-width="0.5" stroke-linecap="round"/><path d="M226.45062,300.29827l1.83365,5.26183" fill="none" stroke="#8d967b" stroke-width="0.5" stroke-linecap="round"/><path d="M224.51994,300.53968l1.29053,4.83945" fill="none" stroke="#767796" stroke-width="0.5" stroke-linecap="round"/></g><g><path d="M258.65914,346.53054c0,0 45.3951,-47.16651 52.0888,-56.38382c2.18888,-3.01415 -2.89262,-8.99588 -2.89262,-8.99588c0,0 2.87508,-12.90393 9.03393,-6.0597c5.20516,5.78415 12.55362,22.22966 12.55362,22.22966l-57.20035,64.30408z" fill="#413a4a" stroke="#000000" stroke-width="0" stroke-linecap="butt"/><path d="M236.53916,341.13011c0,0 3.80167,-1.33401 5.23266,-1.72867c1.16851,-0.32235 4.80707,1.38605 4.80707,1.38605c0,0 5.86845,4.51809 8.41705,6.90053c4.30701,4.02635 14.15322,15.42179 14.15322,15.42179c0,0 -3.0439,3.37612 -4.50593,4.61572c-1.08509,0.91994 -3.47579,2.15268 -3.47579,2.15268c0,0 -2.1758,-0.80578 -5.49721,-3.15846c-1.80262,-1.27678 -4.04059,-5.28207 -6.37427,-7.19323c-1.85362,-1.51771 -4.02894,-1.77755 -6.24719,-4.05693c-3.64892,-3.7493 -7.10484,-7.64133 -8.11082,-8.75942c-1.40352,-1.55954 1.60123,-5.58004 1.60123,-5.58004z" data-paper-data="{&quot;index&quot;:null}" fill="#12140d" stroke="#000000" stroke-width="0" stroke-linecap="butt"/><path d="M238.19624,340.56482c0,0 5.21969,-3.43779 6.65069,-3.83244c1.16851,-0.32235 4.80708,1.38606 4.80708,1.38606c0,0 6.48608,5.20394 9.03453,7.58646c0.43354,0.40519 7.39431,-5.43873 7.39431,-5.43873c0,0 5.11952,6.61421 5.87703,7.41885c1.40863,1.49631 -7.36132,4.14598 -5.92425,5.74374c0.8206,0.91258 2.05215,5.1503 4.71746,5.31418c2.97895,0.18312 7.96658,-2.64521 7.96658,-2.64521l-5.87791,5.02856c0,0 -1.71174,1.77091 -4.92917,1.67583c-2.2026,-0.06534 -4.0409,2.3024 -6.63546,1.65155c-3.77285,-0.94659 -4.16784,-1.15257 -4.85919,-1.71889c-1.98492,-1.62591 -1.01746,-3.44662 -5.25468,-7.51638c-2.02647,-1.94655 -3.17944,0.31757 -8.97996,-5.16628c-6.14246,-5.80714 -1.50813,-6.73236 -1.92941,-7.20079c-1.40341,-1.5597 -2.05798,-2.28723 -2.05798,-2.28723z" data-paper-data="{&quot;index&quot;:null}" fill="#1e1e26" stroke="#000000" stroke-width="0" stroke-linecap="butt"/><path d="M256.00581,345.06928l2.46934,6.88374" fill="none" stroke="#c1ffce" stroke-width="0.5" stroke-linecap="round"/><path d="M254.49612,348.9113l-1.57746,-7.27249" fill="none" stroke="#eaffc1" stroke-width="0.5" stroke-linecap="round"/><path d="M250.60907,339.99192l-0.27483,5.21411" fill="none" stroke="#ffb5b5" stroke-width="0.5" stroke-linecap="round"/><path d="M267.8515,347.65427l-3.24691,-4.52823" fill="none" stroke="#7d967f" stroke-width="0.5" stroke-linecap="round"/><path d="M262.82088,343.90352l2.60668,4.27656" fill="none" stroke="#966262" stroke-width="0.5" stroke-linecap="round"/></g><path d="M-11.98824,369.05086l1,-377l160.91797,-0.53253l0.08203,9.53253c0,0 -39.46962,6.29142 -75.5582,25.97667c-26.80308,14.62028 -51.53474,44.21584 -49.36246,61.1415c8.78971,68.48644 35.92067,279.88184 35.92067,279.88184z" fill="url(#color-17)" stroke="none" stroke-width="0" stroke-linecap="butt"/><g stroke-linecap="butt"><path d="M340.67675,213.50849l6.83598,-15.98283l17.86107,7.63943l-6.83598,15.98283z" fill="url(#color-18)" stroke="#000000" stroke-width="0"/><path d="M332.66373,165.99072c2.92015,-19.39763 19.68378,-32.95476 37.44252,-30.28104c17.75877,2.67362 29.78734,20.56556 26.86726,39.96286c-2.92015,19.39763 -19.68378,32.95476 -37.44252,30.28104c-17.75863,-2.67358 -29.78721,-20.56553 -26.86713,-39.96282z" fill="url(#color-19)" stroke="none" stroke-width="0"/><path d="M385.79942,148.50902l-0.01806,-0.00772l-0.02162,0.04636l-1.4328,-0.66917c-0.5465,-0.24227 -0.86536,-0.8373 -0.74607,-1.43814c-4.88452,-1.52034 -10.14248,-2.60106 -13.46458,-3.97181c-0.47561,-0.19621 -1.05121,-0.31727 -1.66613,-0.41105c0.1774,0.28584 0.24411,0.63972 0.15802,0.99231c-0.17027,0.69673 -0.87251,1.12323 -1.56899,0.9533c-0.10326,-0.02533 -0.201,-0.06259 -0.29132,-0.10931l-0.67827,-0.33438c0.12044,0.24258 0.23529,0.4914 0.34461,0.74557c0,0 0.51024,1.19358 -0.68327,1.70401c-1.19358,0.51024 -1.70401,-0.68327 -1.70401,-0.68327c-1.24476,-2.92931 -3.31291,-4.85182 -5.79278,-5.67301c-1.52368,-0.10384 -3.02335,-0.17246 -4.43471,-0.33355c-0.96634,0.1475 -1.95449,0.43182 -2.9474,0.85649l-0.12141,-0.0087l0.00914,0.03962l-1.34717,0.30727c-0.19755,0.04959 -0.41047,0.0529 -0.62213,0.00111c-0.69673,-0.17027 -1.12325,-0.87251 -0.9533,-1.56899c0.04299,-0.1757 0.11998,-0.33416 0.22184,-0.47022l0.96784,-1.35596l0.54236,0.38758c0.35072,-0.35378 0.73361,-0.65372 1.14332,-0.90471l-0.79042,-0.3694c-0.56333,-0.24991 -0.88464,-0.87443 -0.73345,-1.49443c0.17027,-0.69673 0.87251,-1.12323 1.56899,-0.9533l1.52919,0.37333c0.56296,0.13773 1.19503,0.28164 1.87446,0.43593c0.94933,0.05675 2.06546,0.33869 3.23866,0.75809c2.43034,0.60283 5.02263,1.3586 7.11799,2.37682c0.81718,0.31908 1.59182,0.64354 2.30366,0.95009l1.45075,0.35393c0.31715,0.0774 0.57844,0.26497 0.75296,0.51257c5.45758,1.16557 10.63856,3.63114 16.04885,5.53988c3.92777,1.38586 8.57692,2.42644 11.34715,5.68281c1.67757,2.81336 2.33784,11.06825 -3.39948,7.28049c-3.36368,-2.22121 -0.31838,-4.10858 -0.70641,-6.45758c-1.08329,-0.75322 -2.53249,-1.51095 -3.76354,-2.2286c-1.15432,-0.38324 -2.23249,-0.66547 -2.65284,-0.76843z" fill="url(#color-20)" stroke="none" stroke-width="0.5"/><path d="M349.41691,133.53175c6.27305,1.62827 6.39737,0.88858 5.16681,5.39921c-1.23042,4.51077 -5.14779,7.60519 -8.74959,6.91103c-3.60172,-0.69437 -5.52426,-4.91408 -4.29373,-9.42469c1.23046,-4.5108 1.18706,-4.62157 7.87664,-2.88537z" data-paper-data="{&quot;index&quot;:null}" fill="url(#color-21)" stroke="#000000" stroke-width="0"/><path d="M365.01429,142.75912c1.64957,-4.86151 1.27176,-4.11754 11.13784,-1.24899c10.52129,3.05881 10.37909,3.12774 8.72966,7.9893c-1.64914,4.8614 -7.43389,7.29358 -12.92013,5.43217c-5.48651,-1.86099 -8.59698,-7.31095 -6.94754,-12.17251z" fill="url(#color-22)" stroke="#000000" stroke-width="0"/><path d="M345.88418,190.39082c-28.00443,-11.3984 -17.5034,-30.01 -17.5034,-30.01c3.22637,-8.93736 18.43342,-13.35363 31.41585,-8.6669c12.98245,4.68674 25.47762,17.63221 22.25128,26.56962c-3.22651,8.93746 -10.93764,22.65352 -36.16384,12.10746z" data-paper-data="{&quot;index&quot;:null}" fill="url(#color-23)" stroke="#ed6b00" stroke-width="0"/><path d="M345.88421,190.39084c-2.10431,-0.85646 -3.9912,-1.75367 -5.68146,-2.68071c0.6494,-1.00224 1.19858,-2.09149 1.62882,-3.25914c3.12847,-8.4908 -1.21852,-17.91006 -9.70931,-21.03857c-1.52323,-0.56124 -3.07637,-0.88191 -4.6177,-0.98122c0.4511,-1.29683 0.87629,-2.05042 0.87629,-2.05042c0.69258,-1.91848 1.93715,-3.62858 3.59327,-5.08509c5.90821,1.19823 11.93242,-0.98162 15.73329,-5.46001c3.96825,-0.1332 8.13211,0.44963 12.08928,1.87818c2.30796,0.83315 4.60053,1.92735 6.7921,3.21368c-5.53522,0.9922 -10.41316,4.81011 -12.49786,10.46798c-3.12847,8.4908 1.21852,17.91006 9.70931,21.03857c5.46218,2.01261 11.30853,0.93146 15.61728,-2.35627c-4.45134,7.71424 -13.43124,14.71711 -33.53341,6.31318z" data-paper-data="{&quot;index&quot;:null}" fill="url(#color-24)" stroke="#ed6b00" stroke-width="0"/><path d="M359.79672,151.71403c10.254,3.70176 20.20398,12.55556 22.34364,20.51738c-6.30825,0.36754 -12.10478,4.38847 -14.42902,10.69656c-1.31271,3.56266 -1.3093,7.28882 -0.23582,10.64515c-2.21889,0.55752 -4.75677,0.7765 -7.66591,0.54055c-0.04536,-3.10139 -0.97652,-6.1068 -2.6337,-8.67017c5.57688,-0.96353 10.50164,-4.79346 12.59904,-10.48576c3.12845,-8.49079 -1.21853,-17.91007 -9.70931,-21.03857c-5.03397,-1.8548 -10.39428,-1.08198 -14.5765,1.62414c0.61975,-1.86472 0.88501,-3.76701 0.83056,-5.63133c4.37623,-0.33453 9.05563,0.20581 13.47693,1.80194z" data-paper-data="{&quot;index&quot;:null}" fill="url(#color-25)" stroke="#ed6b00" stroke-width="0"/><path d="M338.84975,164.13456c-1.6229,4.88284 -0.81488,10.02331 1.79789,14.06484c-3.02105,0.52195 -5.85078,1.88507 -8.14331,3.92971c-5.66774,-5.60013 -6.42753,-11.47487 -5.92136,-15.7049c4.32443,0.91015 8.71935,0.00576 12.26671,-2.2896z" data-paper-data="{&quot;index&quot;:null}" fill="url(#color-26)" stroke="#ed6b00" stroke-width="0"/><path d="M353.18331,180.24073c-0.20942,1.54922 -0.20817,3.82224 0.03875,6.38315c-1.03741,-2.17621 -2.55267,-4.12603 -4.46664,-5.67781c1.44028,-1.54551 2.60362,-3.39699 3.37977,-5.50344c3.12847,-8.4908 -1.21852,-17.91006 -9.70931,-21.03857c-2.69067,-0.99141 -5.47461,-1.23211 -8.12208,-0.82811c4.4953,-2.79578 10.8011,-4.18639 17.27632,-3.64253c0.03616,6.63537 4.13076,12.85779 10.72389,15.28705c5.10765,1.88197 10.55122,1.05883 14.75939,-1.74421c3.20812,3.66879 5.29576,7.62597 5.48496,11.24526c-0.44567,-0.52552 -0.93808,-0.9217 -1.48045,-1.15649c-4.23608,-1.83366 -8.86549,-2.57458 -13.29226,-3.88227c-0.72288,-0.21351 -2.1866,-1.0172 -2.5574,-0.74695c-3.92511,2.86053 -7.06362,6.66808 -10.62002,9.97578c-0.29153,0.27109 -1.38168,1.08291 -1.41497,1.3291z" data-paper-data="{&quot;index&quot;:null}" fill="url(#color-27)" stroke="#ed6b00" stroke-width="0"/><path d="M345.88415,190.39081c-7.89824,-3.21479 -12.73359,-7.00331 -15.60552,-10.78624c0.9322,-4.94411 -0.48977,-9.94902 -3.63409,-13.64568c0.29835,-2.05722 0.88057,-3.68345 1.28824,-4.63702c7.26386,0.74235 14.38763,-3.47229 17.02855,-10.63989c0.08129,-0.2206 0.15754,-0.44186 0.22879,-0.6636c4.69361,-0.52658 9.80238,-0.03882 14.60655,1.69553c1.33666,0.48253 2.66817,1.05267 3.97788,1.69691c-3.22834,0.61694 -6.22375,2.19652 -8.55907,4.54161c-3.15518,0.58195 -6.61969,-2.67418 -9.53283,-1.32977c-4.99743,2.30633 -10.74066,5.45536 -12.64353,10.61988c-4.69683,12.74728 2.21799,16.41448 9.70931,21.03857c4.34379,2.68122 10.22692,3.66619 16.09397,3.24086c6.82271,1.844 13.98227,-0.93269 17.83729,-6.64967c0.2012,-0.17613 0.39721,-0.3553 0.58788,-0.53758c1.84477,-1.7635 3.98314,-4.40957 5.11323,-7.23832c-0.08211,0.40267 -0.19265,0.79873 -0.33289,1.18723c-3.22651,8.93746 -10.93762,22.65354 -36.16384,12.10746z" data-paper-data="{&quot;index&quot;:null}" fill="url(#color-28)" stroke="#ed6b00" stroke-width="0"/></g><g stroke-width="0" stroke-linecap="butt"><path d="M333.84853,297.96486c0,0 -4.70016,-0.99326 -7.49184,-3.01063c-2.40356,-1.73655 -2.74606,-4.42971 -4.99135,-5.60051c-1.11207,-0.57998 -4.72333,-1.05609 -6.32251,-1.82722c-2.11557,-1.02031 -6.74136,-1.35392 -8.75102,-2.78913c-2.51445,-1.79525 -2.42729,-4.72978 -5.32774,-6.18394c-6.38672,-3.20202 -13.47911,-4.76473 -13.47911,-4.76473c0,0 7.23456,-12.7591 12.08973,-23.52021c4.71096,-10.44086 6.99411,-18.78303 10.30789,-25.76553c3.74538,-7.89167 14.57604,-28.62016 14.57604,-28.62016c0,0 9.96217,3.99004 13.96108,7.38008c3.78976,3.21304 9.43891,12.45733 9.43891,12.45733c0,0 13.39391,0.45122 19.01827,2.104c4.41828,1.29819 11.99083,7.0081 11.99083,7.0081c0,0 -10.1821,19.5897 -16.42103,29.72514c-3.32394,5.40002 -9.61337,11.54062 -14.76476,19.31445c-7.58129,11.44067 -13.83316,24.09358 -13.83316,24.09358z" fill="#d1b0b0" stroke="#292e32"/><path d="M315.47492,221.14513l6.21429,-11.67958l17.54556,8.28978l-7.20837,12.89313z" fill="#f200ff" stroke="none"/><path d="M335.12307,225.10962c-1.37101,-3.44414 -3.91254,-6.44483 -7.42865,-8.34547c-0.84936,-0.4591 -1.72125,-0.83545 -2.60644,-1.13186c1.74973,-0.46236 3.42163,-1.21242 4.93915,-2.22732l9.20765,4.35036z" fill="#eeff00" stroke="none"/><path d="M318.17274,222.69416c1.28923,-1.19192 2.40738,-2.61304 3.28888,-4.24379c1.40428,-2.59789 2.03444,-5.40678 1.96956,-8.1618l11.50771,5.43709c-5.41547,0.89098 -10.29287,4.35723 -12.6949,9.3061z" fill="#00ff5f" stroke="none"/><path d="M318.05359,222.62568c0.18959,-1.01059 0.28127,-2.02847 0.27896,-3.04063c2.45232,0.45386 4.94678,0.33177 7.29663,-0.31056c0.20943,3.73401 1.69371,7.33696 4.2546,10.14374l-11.8302,-6.79252z" fill="#004fff" stroke="none"/><path d="M328.80296,228.7977c1.63847,-1.32318 3.04736,-2.98625 4.11145,-4.95477c1.40107,-2.592 2.0316,-5.39401 1.97001,-8.143l4.35043,2.05543l-7.20841,12.89314z" fill="#ff0000" stroke="none"/><path d="M319.18161,214.17855c0.48783,2.54744 1.57533,4.9682 3.19552,7.03754c-0.37943,1.13903 -0.62656,2.29994 -0.74723,3.46304l-6.15496,-3.53398l3.7067,-6.96661z" fill="#00efff" stroke="none"/><path d="M329.4656,213.13966c-5.46497,0.22198 -10.68215,3.17632 -13.5754,8.2439l-0.41522,-0.23841l6.21428,-11.6796z" fill="#9c00ff" stroke="none"/></g><g data-paper-data="{&quot;index&quot;:null}" stroke="#000000" stroke-width="0" stroke-linecap="butt"><path d="M338.79198,291.14369c0,0 7.43033,-5.72835 13.00681,-15.44447c1.34108,-2.33651 6.64079,-8.8373 7.99427,-11.2553c1.8607,-3.32395 10.55501,-11.31398 12.09931,-18.32692c1.1143,-5.06035 -8.45246,-6.1092 -3.34217,-15.38766c1.67199,-9.2286 19.22932,-9.53238 22.19362,9.94526c1.4766,9.70234 -7.15877,22.54059 -8.71858,25.1596c-1.90926,3.2057 -5.03259,4.30207 -8.18808,9.11455c-1.41478,2.15737 -8.82059,10.28022 -13.09116,15.49758c-7.11009,8.68654 -10.42095,14.87668 -10.42095,14.87668z" fill="#b8bda6"/><path d="M341.03271,315.95981c-2.02486,2.37175 -3.074,6.28186 -3.9804,5.31242c-3.33605,-2.4016 -1.35065,-4.08283 -1.29331,-7.68644c0.03049,-1.90777 -0.47679,9.37875 -4.46941,4.33953c-2.23731,-2.61626 1.63307,-6.26684 2.16736,-9.34413c0.2858,-1.64733 -3.17335,10.08922 -6.70579,5.8113c-2.60785,-1.86281 1.37613,-3.81277 3.38148,-8.00471c0.21659,-0.45293 -3.67528,6.3732 -6.95495,3.9885c-2.9638,-2.15503 5.75736,-10.20742 5.75736,-10.26899c0.00034,-0.55666 -1.18392,2.19168 -2.36372,0.89244c-3.08596,-3.39848 4.16442,-5.52749 6.76286,-6.19078c2.75452,-0.70283 5.24169,-3.42402 5.24169,-3.42402c0,0 5.34461,3.23332 7.28632,5.63252c1.89087,2.33577 4.21502,8.577 4.21502,8.577c0,0 -5.10916,5.7558 -9.04455,10.36544z" data-paper-data="{&quot;index&quot;:null}" fill="#786274"/></g></g></g></svg>