<svg version="1.1" xmlns="http://www.w3.org/2000/svg" xmlns:xlink="http://www.w3.org/1999/xlink" width="93.2333" height="181.41555" viewBox="0,0,93.2333,181.41555"><defs><radialGradient cx="274.90986" cy="20.80537" r="31.6943" gradientUnits="userSpaceOnUse" id="color-1"><stop offset="0" stop-color="#ffa5a5"/><stop offset="1" stop-color="#9c4b4b"/></radialGradient><linearGradient x1="270.54571" y1="125.89217" x2="270.54571" y2="176.86496" gradientUnits="userSpaceOnUse" id="color-2"><stop offset="0" stop-color="#3b3d45"/><stop offset="1" stop-color="#575666"/></linearGradient><linearGradient x1="229.1932" y1="151.37856" x2="311.89828" y2="151.37856" gradientUnits="userSpaceOnUse" id="color-3"><stop offset="0" stop-color="#160000"/><stop offset="1" stop-color="#000000"/></linearGradient><linearGradient x1="224.39012" y1="177.33913" x2="315.89009" y2="177.33913" gradientUnits="userSpaceOnUse" id="color-4"><stop offset="0" stop-color="#948357"/><stop offset="1" stop-color="#6b653a"/></linearGradient><linearGradient x1="224.39012" y1="177.33912" x2="315.89009" y2="177.33912" gradientUnits="userSpaceOnUse" id="color-5"><stop offset="0" stop-color="#453e00" stop-opacity="0.50196"/><stop offset="1" stop-color="#3d2c00" stop-opacity="0.50196"/></linearGradient><linearGradient x1="235.51512" y1="150.21413" x2="238.45128" y2="150.21413" gradientUnits="userSpaceOnUse" id="color-6"><stop offset="0" stop-color="#848594"/><stop offset="1" stop-color="#5a607d"/></linearGradient><linearGradient x1="243.77309" y1="150.2141" x2="246.70925" y2="150.2141" gradientUnits="userSpaceOnUse" id="color-7"><stop offset="0" stop-color="#848594"/><stop offset="1" stop-color="#5a607d"/></linearGradient><linearGradient x1="252.03106" y1="150.21409" x2="254.96723" y2="150.21409" gradientUnits="userSpaceOnUse" id="color-8"><stop offset="0" stop-color="#848594"/><stop offset="1" stop-color="#5a607d"/></linearGradient><linearGradient x1="260.289" y1="150.21413" x2="263.22519" y2="150.21413" gradientUnits="userSpaceOnUse" id="color-9"><stop offset="0" stop-color="#848594"/><stop offset="1" stop-color="#5a607d"/></linearGradient><linearGradient x1="268.54701" y1="150.2141" x2="271.4832" y2="150.2141" gradientUnits="userSpaceOnUse" id="color-10"><stop offset="0" stop-color="#848594"/><stop offset="1" stop-color="#5a607d"/></linearGradient><linearGradient x1="276.93002" y1="150.21409" x2="279.86617" y2="150.21409" gradientUnits="userSpaceOnUse" id="color-11"><stop offset="0" stop-color="#848594"/><stop offset="1" stop-color="#5a607d"/></linearGradient><linearGradient x1="285.18799" y1="150.21413" x2="288.12414" y2="150.21413" gradientUnits="userSpaceOnUse" id="color-12"><stop offset="0" stop-color="#848594"/><stop offset="1" stop-color="#5a607d"/></linearGradient><linearGradient x1="293.44596" y1="150.3391" x2="296.38212" y2="150.3391" gradientUnits="userSpaceOnUse" id="color-13"><stop offset="0" stop-color="#848594"/><stop offset="1" stop-color="#5a607d"/></linearGradient><linearGradient x1="301.70393" y1="150.33909" x2="304.64009" y2="150.33909" gradientUnits="userSpaceOnUse" id="color-14"><stop offset="0" stop-color="#848594"/><stop offset="1" stop-color="#5a607d"/></linearGradient><linearGradient x1="224.39012" y1="125.83912" x2="315.89009" y2="125.83912" gradientUnits="userSpaceOnUse" id="color-15"><stop offset="0" stop-color="#948357"/><stop offset="1" stop-color="#6b653a"/></linearGradient><linearGradient x1="224.39012" y1="125.83912" x2="315.89009" y2="125.83912" gradientUnits="userSpaceOnUse" id="color-16"><stop offset="0" stop-color="#453e00" stop-opacity="0.50196"/><stop offset="1" stop-color="#3d2c00" stop-opacity="0.50196"/></linearGradient><linearGradient x1="309.92341" y1="151.93911" x2="316.25676" y2="151.93911" gradientUnits="userSpaceOnUse" id="color-17"><stop offset="0" stop-color="#717787"/><stop offset="1" stop-color="#59606f"/></linearGradient><linearGradient x1="309.92341" y1="151.93911" x2="316.25676" y2="151.93911" gradientUnits="userSpaceOnUse" id="color-18"><stop offset="0" stop-color="#2d3552" stop-opacity="0.50196"/><stop offset="1" stop-color="#2b2d4f" stop-opacity="0.50196"/></linearGradient><linearGradient x1="224.02345" y1="151.93911" x2="230.3568" y2="151.93911" gradientUnits="userSpaceOnUse" id="color-19"><stop offset="0" stop-color="#717787"/><stop offset="1" stop-color="#59606f"/></linearGradient><linearGradient x1="224.02345" y1="151.93911" x2="230.3568" y2="151.93911" gradientUnits="userSpaceOnUse" id="color-20"><stop offset="0" stop-color="#2d3552" stop-opacity="0.50196"/><stop offset="1" stop-color="#2b2d4f" stop-opacity="0.50196"/></linearGradient></defs><g transform="translate(-223.52344,0.55977)"><g data-paper-data="{&quot;isPaintingLayer&quot;:true}" fill-rule="nonzero" stroke-linejoin="miter" stroke-miterlimit="10" stroke-dasharray="" stroke-dashoffset="0" style="mix-blend-mode: normal"><g fill="none" stroke="#a5a5a5" stroke-width="1" stroke-linecap="round"><path d="M270.00585,134.51643l-15.98641,-87.35643"/><path d="M286.0557,47.16004l-15.98641,87.35643" data-paper-data="{&quot;index&quot;:null}"/><path d="M270.01603,134.51645l-10.8581,-87.35643"/><path d="M280.9172,47.16002l-10.8581,87.35643" data-paper-data="{&quot;index&quot;:null}"/><path d="M270.02732,134.51643l-5.15997,-87.35643"/><path d="M270.04778,134.51643l5.15997,-87.35643" data-paper-data="{&quot;index&quot;:null}"/><path d="M270.06929,134.75v-90.15931"/></g><path d="M252.40958,53.09985c0,0 3.75535,-53.03645 17.68029,-53.47185c13.44447,0.04225 17.57569,53.47185 17.57569,53.47185c0,0 0.30579,4.89665 -0.29754,5.55208c-0.22058,0.23965 -0.98108,-3.93233 -1.32776,-3.65292c-0.43802,0.35303 -0.77176,5.63263 -1.45506,6.00287c-0.68177,0.36942 -1.71252,-4.17048 -2.68729,-3.83531c-0.70133,0.24114 -1.10917,4.43754 -1.98387,4.63813c-0.72552,0.16638 -1.88945,-3.65525 -2.74568,-3.52881c-0.84348,0.12454 -1.53824,4.66498 -2.51854,4.74027c-0.66423,0.05101 -1.57566,-4.34837 -2.30652,-4.32398c-0.70141,0.02339 -1.43421,4.2381 -2.19977,4.23403c-0.76481,-0.00405 -1.49758,-4.22633 -2.19961,-4.25675c-0.74925,-0.03249 -1.73179,4.3587 -2.41255,4.29951c-0.96046,-0.08353 -1.586,-4.62983 -2.41764,-4.7583c-0.91033,-0.14063 -2.01442,4.36618 -2.78141,4.18378c-0.98918,-0.23522 -1.59562,-5.17139 -2.36831,-5.45199c-0.74986,-0.27233 -1.60742,3.81827 -2.2715,3.4692c-0.64606,-0.3396 -1.10325,-5.11877 -1.50651,-5.39425c-0.48911,-0.33414 -1.05855,4.03594 -1.31581,3.77636c-0.6314,-0.63709 -0.46062,-5.69388 -0.46062,-5.69388z" fill="url(#color-1)" stroke="none" stroke-width="0" stroke-linecap="butt"/><g fill="none" stroke-opacity="0.44706" stroke="#572222" stroke-width="0.75" stroke-linecap="round"><path d="M270.0362,63.10785l0.05366,-62.83123"/><path d="M270.46549,0.04305c0,0 2.12621,14.50967 2.91528,25.57282c0.79481,11.14367 1.27037,37.2584 1.27037,37.2584"/><path d="M265.47491,62.87429c0,0 0.47556,-26.11473 1.27037,-37.2584c0.78906,-11.06315 2.91528,-25.57282 2.91528,-25.57282" data-paper-data="{&quot;index&quot;:null}"/><path d="M270.93152,0.04307c0,0 4.58814,14.50967 6.29086,25.57282c1.71511,11.14367 2.68765,35.62339 2.68765,35.62339"/><path d="M260.21604,61.94c0,0 0.97255,-25.18044 2.68765,-36.32411c1.70272,-11.06315 6.29086,-25.57282 6.29086,-25.57282" data-paper-data="{&quot;index&quot;:null}"/><path d="M271.35987,0.04307c0,0 5.13394,5.86746 9.39367,25.57282c2.56105,11.14367 3.87876,34.92267 3.87876,34.92267"/><path d="M255.44011,59.37069c0,0 1.37137,-22.61113 3.93242,-33.7548c3.83043,-17.36963 9.39367,-25.57282 9.39367,-25.57282" data-paper-data="{&quot;index&quot;:null}"/><path d="M271.62816,0.04305c0,0 4.08296,-3.94262 11.33719,25.57282c3.09092,11.14367 4.56468,32.35336 4.56468,32.35336"/><path d="M252.59602,57.96924c0,0 1.47376,-21.20969 4.56468,-32.35336c7.79084,-29.98259 11.33719,-25.57282 11.33719,-25.57282" data-paper-data="{&quot;index&quot;:null}"/></g><path d="M229.1932,176.86496v-50.97279h82.70512v50.97279z" fill="url(#color-2)" stroke="url(#color-3)" stroke-width="1" stroke-linecap="butt"/><path d="M224.39012,179.97246v-5.26667h91.5v5.26667z" fill="url(#color-4)" stroke="url(#color-5)" stroke-width="1" stroke-linecap="butt"/><path d="M235.51512,174.21413v-48h2.93617v48z" fill="url(#color-6)" stroke="none" stroke-width="0" stroke-linecap="butt"/><path d="M243.77309,174.21412v-48h2.93617v48z" fill="url(#color-7)" stroke="none" stroke-width="0" stroke-linecap="butt"/><path d="M252.03106,174.21411v-48h2.93618v48z" fill="url(#color-8)" stroke="none" stroke-width="0" stroke-linecap="butt"/><path d="M260.289,174.21413v-48h2.93617v48z" fill="url(#color-9)" stroke="none" stroke-width="0" stroke-linecap="butt"/><path d="M268.54701,174.21412v-48h2.93617v48z" fill="url(#color-10)" stroke="none" stroke-width="0" stroke-linecap="butt"/><path d="M276.93002,174.21411v-48h2.93617v48z" fill="url(#color-11)" stroke="none" stroke-width="0" stroke-linecap="butt"/><path d="M285.18799,174.21413v-48h2.93617v48z" fill="url(#color-12)" stroke="none" stroke-width="0" stroke-linecap="butt"/><path d="M293.44596,174.33912v-48h2.93617v48z" fill="url(#color-13)" stroke="none" stroke-width="0" stroke-linecap="butt"/><path d="M301.70393,174.33911v-48h2.93617v48z" fill="url(#color-14)" stroke="none" stroke-width="0" stroke-linecap="butt"/><path d="M224.39012,127.56135v-3.44445h91.5v3.44445z" fill="url(#color-15)" stroke="url(#color-16)" stroke-width="1" stroke-linecap="butt"/><path d="M309.92341,180.35579v-56.83333h6.33333v56.83333z" fill="url(#color-17)" stroke="url(#color-18)" stroke-width="1" stroke-linecap="butt"/><path d="M224.02345,180.35579v-56.83334h6.33334v56.83334z" fill="url(#color-19)" stroke="url(#color-20)" stroke-width="1" stroke-linecap="butt"/></g></g></svg>