<svg version="1.1" xmlns="http://www.w3.org/2000/svg" xmlns:xlink="http://www.w3.org/1999/xlink" width="59" height="59.70662" viewBox="0,0,59,59.70662"><defs><linearGradient x1="240" y1="151.64669" x2="240" y2="208.35331" gradientUnits="userSpaceOnUse" id="color-1"><stop offset="0" stop-color="#191919"/><stop offset="1" stop-color="#050505"/></linearGradient><linearGradient x1="240" y1="151.64669" x2="240" y2="208.35331" gradientUnits="userSpaceOnUse" id="color-2"><stop offset="0" stop-color="#cccccc"/><stop offset="1" stop-color="#898989"/></linearGradient><radialGradient cx="240" cy="180" r="26.8571" gradientUnits="userSpaceOnUse" id="color-3"><stop offset="0" stop-color="#ffffff" stop-opacity="0.35484"/><stop offset="1" stop-color="#ffffff" stop-opacity="0"/></radialGradient><linearGradient x1="240" y1="153.29211" x2="240" y2="206.70789" gradientUnits="userSpaceOnUse" id="color-4"><stop offset="0" stop-color="#cccccc"/><stop offset="1" stop-color="#898989"/></linearGradient><linearGradient x1="244.98788" y1="187.34683" x2="250.00473" y2="187.34683" gradientUnits="userSpaceOnUse" id="color-5"><stop offset="0" stop-color="#2c2f36"/><stop offset="1" stop-color="#191d1f"/></linearGradient><linearGradient x1="244.98788" y1="187.51918" x2="248.41934" y2="187.51918" gradientUnits="userSpaceOnUse" id="color-6"><stop offset="0" stop-color="#272727"/><stop offset="1" stop-color="#000000"/></linearGradient><linearGradient x1="235.01212" y1="187.29426" x2="229.99527" y2="187.29426" gradientUnits="userSpaceOnUse" id="color-7"><stop offset="0" stop-color="#575e6b"/><stop offset="1" stop-color="#696d82"/></linearGradient><linearGradient x1="231.58066" y1="187.46661" x2="235.01212" y2="187.46661" gradientUnits="userSpaceOnUse" id="color-8"><stop offset="0" stop-color="#272727"/><stop offset="1" stop-color="#000000"/></linearGradient><linearGradient x1="234.99819" y1="183.28671" x2="244.99988" y2="183.28671" gradientUnits="userSpaceOnUse" id="color-9"><stop offset="0" stop-color="#535863"/><stop offset="1" stop-color="#1a1b21"/></linearGradient><linearGradient x1="234.99819" y1="183.28671" x2="244.99988" y2="183.28671" gradientUnits="userSpaceOnUse" id="color-10"><stop offset="0" stop-color="#272727"/><stop offset="1" stop-color="#000000"/></linearGradient><linearGradient x1="240.35656" y1="183.70886" x2="244.27958" y2="183.70886" gradientUnits="userSpaceOnUse" id="color-11"><stop offset="0" stop-color="#4a382c"/><stop offset="1" stop-color="#301f1b"/></linearGradient><linearGradient x1="240.35656" y1="183.70886" x2="244.27958" y2="183.70886" gradientUnits="userSpaceOnUse" id="color-12"><stop offset="0" stop-color="#351c12"/><stop offset="1" stop-color="#1a1310"/></linearGradient><linearGradient x1="240.34601" y1="183.71034" x2="244.25995" y2="183.71034" gradientUnits="userSpaceOnUse" id="color-13"><stop offset="0" stop-color="#351c12"/><stop offset="1" stop-color="#1a1310"/></linearGradient><linearGradient x1="240.34601" y1="183.68054" x2="244.25995" y2="183.68054" gradientUnits="userSpaceOnUse" id="color-14"><stop offset="0" stop-color="#351c12"/><stop offset="1" stop-color="#1a1310"/></linearGradient><linearGradient x1="235.66777" y1="183.72873" x2="239.59079" y2="183.72873" gradientUnits="userSpaceOnUse" id="color-15"><stop offset="0" stop-color="#4a382c"/><stop offset="1" stop-color="#301f1b"/></linearGradient><linearGradient x1="235.66777" y1="183.72873" x2="239.59079" y2="183.72873" gradientUnits="userSpaceOnUse" id="color-16"><stop offset="0" stop-color="#351c12"/><stop offset="1" stop-color="#1a1310"/></linearGradient><linearGradient x1="235.65722" y1="183.73021" x2="239.57116" y2="183.73021" gradientUnits="userSpaceOnUse" id="color-17"><stop offset="0" stop-color="#351c12"/><stop offset="1" stop-color="#1a1310"/></linearGradient><linearGradient x1="235.65722" y1="183.70041" x2="239.57116" y2="183.70041" gradientUnits="userSpaceOnUse" id="color-18"><stop offset="0" stop-color="#351c12"/><stop offset="1" stop-color="#1a1310"/></linearGradient><linearGradient x1="240.35656" y1="188.44082" x2="244.27958" y2="188.44082" gradientUnits="userSpaceOnUse" id="color-19"><stop offset="0" stop-color="#4a382c"/><stop offset="1" stop-color="#301f1b"/></linearGradient><linearGradient x1="240.35656" y1="188.44082" x2="244.27958" y2="188.44082" gradientUnits="userSpaceOnUse" id="color-20"><stop offset="0" stop-color="#351c12"/><stop offset="1" stop-color="#1a1310"/></linearGradient><linearGradient x1="240.34601" y1="188.4423" x2="244.25995" y2="188.4423" gradientUnits="userSpaceOnUse" id="color-21"><stop offset="0" stop-color="#351c12"/><stop offset="1" stop-color="#1a1310"/></linearGradient><linearGradient x1="240.34601" y1="188.4125" x2="244.25995" y2="188.4125" gradientUnits="userSpaceOnUse" id="color-22"><stop offset="0" stop-color="#351c12"/><stop offset="1" stop-color="#1a1310"/></linearGradient><linearGradient x1="235.66777" y1="188.46069" x2="239.59079" y2="188.46069" gradientUnits="userSpaceOnUse" id="color-23"><stop offset="0" stop-color="#4a382c"/><stop offset="1" stop-color="#301f1b"/></linearGradient><linearGradient x1="235.66777" y1="188.46069" x2="239.59079" y2="188.46069" gradientUnits="userSpaceOnUse" id="color-24"><stop offset="0" stop-color="#351c12"/><stop offset="1" stop-color="#1a1310"/></linearGradient><linearGradient x1="235.65722" y1="188.46217" x2="239.57116" y2="188.46217" gradientUnits="userSpaceOnUse" id="color-25"><stop offset="0" stop-color="#351c12"/><stop offset="1" stop-color="#1a1310"/></linearGradient><linearGradient x1="235.65722" y1="188.43237" x2="239.57116" y2="188.43237" gradientUnits="userSpaceOnUse" id="color-26"><stop offset="0" stop-color="#351c12"/><stop offset="1" stop-color="#1a1310"/></linearGradient><linearGradient x1="235.50459" y1="178.32437" x2="244.43221" y2="178.32437" gradientUnits="userSpaceOnUse" id="color-27"><stop offset="0" stop-color="#515151"/><stop offset="1" stop-color="#131313"/></linearGradient><linearGradient x1="235.50459" y1="178.32437" x2="244.43221" y2="178.32437" gradientUnits="userSpaceOnUse" id="color-28"><stop offset="0" stop-color="#272727"/><stop offset="1" stop-color="#000000"/></linearGradient><linearGradient x1="235.96957" y1="176.38177" x2="243.90523" y2="176.38177" gradientUnits="userSpaceOnUse" id="color-29"><stop offset="0" stop-color="#272727"/><stop offset="1" stop-color="#000000"/></linearGradient><linearGradient x1="236.00057" y1="180.29574" x2="243.81224" y2="180.29574" gradientUnits="userSpaceOnUse" id="color-30"><stop offset="0" stop-color="#272727"/><stop offset="1" stop-color="#000000"/></linearGradient><linearGradient x1="241.4018" y1="195.62045" x2="242.06695" y2="195.79951" gradientUnits="userSpaceOnUse" id="color-31"><stop offset="0" stop-color="#524c43"/><stop offset="1" stop-color="#36312c"/></linearGradient><linearGradient x1="241.4018" y1="195.62045" x2="242.06695" y2="195.79951" gradientUnits="userSpaceOnUse" id="color-32"><stop offset="0" stop-color="#1f1f1f"/><stop offset="1" stop-color="#000000"/></linearGradient><linearGradient x1="241.6625" y1="193.50203" x2="242.92123" y2="193.84087" gradientUnits="userSpaceOnUse" id="color-33"><stop offset="0" stop-color="#ab966a"/><stop offset="1" stop-color="#4f3f2d"/></linearGradient><linearGradient x1="241.6625" y1="193.50203" x2="242.92123" y2="193.84087" gradientUnits="userSpaceOnUse" id="color-34"><stop offset="0" stop-color="#1f1f1f"/><stop offset="1" stop-color="#000000"/></linearGradient><linearGradient x1="237.96832" y1="195.58278" x2="238.67663" y2="195.50294" gradientUnits="userSpaceOnUse" id="color-35"><stop offset="0" stop-color="#523f2b"/><stop offset="1" stop-color="#2e2316"/></linearGradient><linearGradient x1="237.96832" y1="195.58278" x2="238.67663" y2="195.50294" gradientUnits="userSpaceOnUse" id="color-36"><stop offset="0" stop-color="#1f1f1f"/><stop offset="1" stop-color="#000000"/></linearGradient><linearGradient x1="242.15103" y1="195.69932" x2="242.81617" y2="195.87837" gradientUnits="userSpaceOnUse" id="color-37"><stop offset="0" stop-color="#524c43"/><stop offset="1" stop-color="#36312c"/></linearGradient><linearGradient x1="242.15103" y1="195.69932" x2="242.81617" y2="195.87837" gradientUnits="userSpaceOnUse" id="color-38"><stop offset="0" stop-color="#1f1f1f"/><stop offset="1" stop-color="#000000"/></linearGradient><linearGradient x1="242.41173" y1="193.5809" x2="243.67045" y2="193.91973" gradientUnits="userSpaceOnUse" id="color-39"><stop offset="0" stop-color="#ab966a"/><stop offset="1" stop-color="#4f3f2d"/></linearGradient><linearGradient x1="242.41173" y1="193.5809" x2="243.67045" y2="193.91973" gradientUnits="userSpaceOnUse" id="color-40"><stop offset="0" stop-color="#1f1f1f"/><stop offset="1" stop-color="#000000"/></linearGradient><linearGradient x1="243.17889" y1="193.64469" x2="244.43761" y2="193.98353" gradientUnits="userSpaceOnUse" id="color-41"><stop offset="0" stop-color="#ab966a"/><stop offset="1" stop-color="#4f3f2d"/></linearGradient><linearGradient x1="243.17889" y1="193.64469" x2="244.43761" y2="193.98353" gradientUnits="userSpaceOnUse" id="color-42"><stop offset="0" stop-color="#1f1f1f"/><stop offset="1" stop-color="#000000"/></linearGradient><linearGradient x1="242.92688" y1="195.76443" x2="243.59203" y2="195.94348" gradientUnits="userSpaceOnUse" id="color-43"><stop offset="0" stop-color="#524c43"/><stop offset="1" stop-color="#36312c"/></linearGradient><linearGradient x1="242.92688" y1="195.76443" x2="243.59203" y2="195.94348" gradientUnits="userSpaceOnUse" id="color-44"><stop offset="0" stop-color="#1f1f1f"/><stop offset="1" stop-color="#000000"/></linearGradient><linearGradient x1="236.78533" y1="195.38562" x2="237.49364" y2="195.30578" gradientUnits="userSpaceOnUse" id="color-45"><stop offset="0" stop-color="#523f2b"/><stop offset="1" stop-color="#2e2316"/></linearGradient><linearGradient x1="236.78533" y1="195.38562" x2="237.49364" y2="195.30578" gradientUnits="userSpaceOnUse" id="color-46"><stop offset="0" stop-color="#1f1f1f"/><stop offset="1" stop-color="#000000"/></linearGradient><linearGradient x1="234.81713" y1="197.58244" x2="244.93861" y2="197.58244" gradientUnits="userSpaceOnUse" id="color-47"><stop offset="0" stop-color="#b8a687"/><stop offset="1" stop-color="#4a443b"/></linearGradient><linearGradient x1="234.81713" y1="197.58244" x2="244.93861" y2="197.58244" gradientUnits="userSpaceOnUse" id="color-48"><stop offset="0" stop-color="#1f1a11"/><stop offset="1" stop-color="#191100"/></linearGradient><linearGradient x1="238.28067" y1="194.33121" x2="241.4984" y2="194.33121" gradientUnits="userSpaceOnUse" id="color-49"><stop offset="0" stop-color="#5c503f"/><stop offset="1" stop-color="#241c12"/></linearGradient><linearGradient x1="237.23964" y1="196.74346" x2="242.41324" y2="196.74346" gradientUnits="userSpaceOnUse" id="color-50"><stop offset="0" stop-color="#5c503f"/><stop offset="1" stop-color="#241c12"/></linearGradient><linearGradient x1="236.36634" y1="199.4064" x2="243.31193" y2="199.4064" gradientUnits="userSpaceOnUse" id="color-51"><stop offset="0" stop-color="#5c503f"/><stop offset="1" stop-color="#241c12"/></linearGradient><linearGradient x1="235.44149" y1="202.05862" x2="244.27448" y2="202.05862" gradientUnits="userSpaceOnUse" id="color-52"><stop offset="0" stop-color="#5c503f"/><stop offset="1" stop-color="#241c12"/></linearGradient><linearGradient x1="234.90126" y1="192.30419" x2="244.9961" y2="192.30419" gradientUnits="userSpaceOnUse" id="color-53"><stop offset="0" stop-color="#a89d8a"/><stop offset="1" stop-color="#665a54"/></linearGradient><linearGradient x1="234.90126" y1="192.30419" x2="244.9961" y2="192.30419" gradientUnits="userSpaceOnUse" id="color-54"><stop offset="0" stop-color="#1f1f1f"/><stop offset="1" stop-color="#000000"/></linearGradient><linearGradient x1="234.96659" y1="161.56328" x2="245.08806" y2="161.56328" gradientUnits="userSpaceOnUse" id="color-55"><stop offset="0" stop-color="#89959f"/><stop offset="1" stop-color="#2a3542"/></linearGradient><linearGradient x1="234.96659" y1="161.56011" x2="245.08806" y2="161.56011" gradientUnits="userSpaceOnUse" id="color-56"><stop offset="0" stop-color="#272727"/><stop offset="1" stop-color="#000000"/></linearGradient><linearGradient x1="237.4903" y1="157.16014" x2="242.48548" y2="157.16014" gradientUnits="userSpaceOnUse" id="color-57"><stop offset="0" stop-color="#f1f5f8"/><stop offset="1" stop-color="#6d7680"/></linearGradient><linearGradient x1="237.4903" y1="157.15974" x2="242.48548" y2="157.15974" gradientUnits="userSpaceOnUse" id="color-58"><stop offset="0" stop-color="#272727"/><stop offset="1" stop-color="#000000"/></linearGradient><linearGradient x1="236.35152" y1="159.73201" x2="243.79391" y2="159.73201" gradientUnits="userSpaceOnUse" id="color-59"><stop offset="0" stop-color="#3b4145"/><stop offset="1" stop-color="#171e25"/></linearGradient><linearGradient x1="234.96755" y1="170.91622" x2="244.96925" y2="170.91622" gradientUnits="userSpaceOnUse" id="color-60"><stop offset="0" stop-color="#301630"/><stop offset="1" stop-color="#140e17"/></linearGradient><linearGradient x1="234.96755" y1="170.91622" x2="244.96925" y2="170.91622" gradientUnits="userSpaceOnUse" id="color-61"><stop offset="0" stop-color="#272727"/><stop offset="1" stop-color="#000000"/></linearGradient><linearGradient x1="235.10829" y1="170.90766" x2="235.77865" y2="170.90766" gradientUnits="userSpaceOnUse" id="color-62"><stop offset="0" stop-color="#9d9d9d"/><stop offset="1" stop-color="#4c4c4c"/></linearGradient><linearGradient x1="235.10829" y1="170.90766" x2="235.77865" y2="170.90766" gradientUnits="userSpaceOnUse" id="color-63"><stop offset="0" stop-color="#272727"/><stop offset="1" stop-color="#000000"/></linearGradient><linearGradient x1="244.17787" y1="170.90766" x2="244.84823" y2="170.90766" gradientUnits="userSpaceOnUse" id="color-64"><stop offset="0" stop-color="#9d9d9d"/><stop offset="1" stop-color="#4c4c4c"/></linearGradient><linearGradient x1="244.17787" y1="170.90766" x2="244.84823" y2="170.90766" gradientUnits="userSpaceOnUse" id="color-65"><stop offset="0" stop-color="#272727"/><stop offset="1" stop-color="#000000"/></linearGradient><radialGradient cx="239.9684" cy="170.91623" r="4.14919" gradientUnits="userSpaceOnUse" id="color-66"><stop offset="0" stop-color="#654573" stop-opacity="0.40995"/><stop offset="1" stop-color="#654573" stop-opacity="0"/></radialGradient><radialGradient cx="239.9684" cy="170.90147" r="3.36854" gradientUnits="userSpaceOnUse" id="color-67"><stop offset="0" stop-color="#eb73e5" stop-opacity="0.60996"/><stop offset="1" stop-color="#eb73e5" stop-opacity="0"/></radialGradient><radialGradient cx="239.9684" cy="170.90147" r="2.85175" gradientUnits="userSpaceOnUse" id="color-68"><stop offset="0" stop-color="#ff26ff" stop-opacity="0.44355"/><stop offset="1" stop-color="#eda3ff" stop-opacity="0.14516"/></radialGradient><radialGradient cx="239.9684" cy="170.90147" r="2.345" gradientUnits="userSpaceOnUse" id="color-69"><stop offset="0" stop-color="#f7e3ff" stop-opacity="0.25546"/><stop offset="1" stop-color="#9f07ff"/></radialGradient><linearGradient x1="235.08998" y1="172.52383" x2="244.84682" y2="172.52383" gradientUnits="userSpaceOnUse" id="color-70"><stop offset="0" stop-color="#9a66a2"/><stop offset="1" stop-color="#4d0069"/></linearGradient><linearGradient x1="235.08998" y1="172.53915" x2="244.84682" y2="172.53915" gradientUnits="userSpaceOnUse" id="color-71"><stop offset="0" stop-color="#9a66a2"/><stop offset="1" stop-color="#4d0069"/></linearGradient><linearGradient x1="235.11251" y1="169.14646" x2="244.86936" y2="169.14646" gradientUnits="userSpaceOnUse" id="color-72"><stop offset="0" stop-color="#9a66a2"/><stop offset="1" stop-color="#4d0069"/></linearGradient><linearGradient x1="235.11251" y1="169.16178" x2="244.86936" y2="169.16178" gradientUnits="userSpaceOnUse" id="color-73"><stop offset="0" stop-color="#9a66a2"/><stop offset="1" stop-color="#4d0069"/></linearGradient><linearGradient x1="234.99349" y1="174.68559" x2="244.85174" y2="174.68559" gradientUnits="userSpaceOnUse" id="color-74"><stop offset="0" stop-color="#b695c7"/><stop offset="1" stop-color="#312833"/></linearGradient><linearGradient x1="234.99349" y1="174.68559" x2="244.85174" y2="174.68559" gradientUnits="userSpaceOnUse" id="color-75"><stop offset="0" stop-color="#272727"/><stop offset="1" stop-color="#000000"/></linearGradient><linearGradient x1="235.03856" y1="167.16727" x2="244.89681" y2="167.16727" gradientUnits="userSpaceOnUse" id="color-76"><stop offset="0" stop-color="#b695c7"/><stop offset="1" stop-color="#312833"/></linearGradient><linearGradient x1="235.03856" y1="167.16727" x2="244.89681" y2="167.16727" gradientUnits="userSpaceOnUse" id="color-77"><stop offset="0" stop-color="#272727"/><stop offset="1" stop-color="#000000"/></linearGradient></defs><g transform="translate(-210.5,-150.14669)"><g data-paper-data="{&quot;isPaintingLayer&quot;:true}" fill-rule="nonzero" stroke-linejoin="miter" stroke-miterlimit="10" stroke-dasharray="" stroke-dashoffset="0" style="mix-blend-mode: normal"><path d="M212,208.35331v-56.70662h56v56.70662z" fill="url(#color-1)" stroke="url(#color-2)" stroke-width="3" stroke-linecap="butt"/><path d="M266.8571,180c0,14.75036 -12.02433,26.70789 -26.8571,26.70789c-14.83277,0 -26.8571,-11.95753 -26.8571,-26.70789c0,-14.75036 12.02433,-26.70789 26.8571,-26.70789c14.83277,0 26.8571,11.95753 26.8571,26.70789z" fill="url(#color-3)" stroke="url(#color-4)" stroke-width="0" stroke-linecap="butt"/><path d="M244.98788,191.46246v-10.22919c0,0 1.28727,6.86663 1.73733,8.52453c0.35608,1.31169 1.69413,4.04729 1.69413,4.04729z" fill="url(#color-5)" stroke="url(#color-6)" stroke-width="0.25" stroke-linecap="butt"/><path d="M231.58066,193.75252c0,0 1.33805,-2.7356 1.69413,-4.04729c0.45006,-1.6579 1.73733,-8.52453 1.73733,-8.52453v10.22919z" data-paper-data="{&quot;index&quot;:null}" fill="url(#color-7)" stroke="url(#color-8)" stroke-width="0.25" stroke-linecap="butt"/><path d="M234.99819,191.49169v-16.40996h10.0017v16.40996z" fill="url(#color-9)" stroke="url(#color-10)" stroke-width="0.25" stroke-linecap="butt"/><g stroke-width="0.25"><path d="M240.35656,185.75108v-4.08444h3.92302v4.08444z" fill="url(#color-11)" stroke="url(#color-12)" stroke-linecap="butt"/><path d="M244.25995,181.72357l-3.91395,3.97355" fill="none" stroke="url(#color-13)" stroke-linecap="round"/><path d="M240.38574,181.68383l3.87421,4.03315" fill="none" stroke="url(#color-14)" stroke-linecap="round"/></g><g stroke-width="0.25"><path d="M235.66777,185.77095v-4.08444h3.92302v4.08444z" fill="url(#color-15)" stroke="url(#color-16)" stroke-linecap="butt"/><path d="M235.65722,185.71699l3.91395,-3.97355" fill="none" stroke="url(#color-17)" stroke-linecap="round"/><path d="M235.69696,181.7037l3.87421,4.03315" fill="none" stroke="url(#color-18)" stroke-linecap="round"/></g><g stroke-width="0.25"><path d="M240.35656,190.48304v-4.08444h3.92302v4.08444z" fill="url(#color-19)" stroke="url(#color-20)" stroke-linecap="butt"/><path d="M240.34601,190.42908l3.91395,-3.97355" fill="none" stroke="url(#color-21)" stroke-linecap="round"/><path d="M244.25995,190.44894l-3.87421,-4.03315" fill="none" stroke="url(#color-22)" stroke-linecap="round"/></g><g stroke-width="0.25"><path d="M235.66777,190.50291v-4.08444h3.92302v4.08444z" fill="url(#color-23)" stroke="url(#color-24)" stroke-linecap="butt"/><path d="M235.65722,190.44894l3.91395,-3.97355" fill="none" stroke="url(#color-25)" stroke-linecap="round"/><path d="M235.69695,186.43566l3.87421,4.03315" fill="none" stroke="url(#color-26)" stroke-linecap="round"/></g><g stroke-width="0.25"><path d="M235.50459,180.78499v-4.92124h8.92763v4.92124z" fill="url(#color-27)" stroke="url(#color-28)" stroke-linecap="butt"/><path d="M235.96957,176.38177h7.93567" fill="none" stroke="url(#color-29)" stroke-linecap="round"/><path d="M236.00057,180.29574h7.81167" fill="none" stroke="url(#color-30)" stroke-linecap="round"/></g><g stroke-width="0.25"><path d="M241.12469,196.64985l0.55422,-2.0588l0.66515,0.17905l-0.55422,2.0588z" fill="url(#color-31)" stroke="url(#color-32)" stroke-linecap="butt"/><path d="M242.92123,193.84087c-0.25019,0.91065 -0.29137,1.00421 -0.89851,0.83041c-0.60734,-0.17386 -0.60106,-0.3047 -0.36022,-1.16925c0.26591,-0.95452 0.28204,-1.02151 0.89851,-0.8304c0.59066,0.1831 0.63495,0.16926 0.36021,1.16925z" fill="url(#color-33)" stroke="url(#color-34)" stroke-linecap="butt"/><path d="M238.50545,199.02553l-1.62955,-6.24374l1.01114,-0.13172l0.81409,6.33505z" fill="url(#color-35)" stroke="url(#color-36)" stroke-linecap="butt"/><path d="M241.87392,196.72871l0.55422,-2.0588l0.66515,0.17905l-0.55422,2.0588z" fill="url(#color-37)" stroke="url(#color-38)" stroke-linecap="butt"/><path d="M243.67045,193.91973c-0.25019,0.91065 -0.29137,1.00421 -0.89851,0.83041c-0.60734,-0.17386 -0.60106,-0.3047 -0.36022,-1.16925c0.26591,-0.95452 0.28204,-1.02151 0.89851,-0.8304c0.59066,0.1831 0.63495,0.16926 0.36021,1.16925z" fill="url(#color-39)" stroke="url(#color-40)" stroke-linecap="butt"/><path d="M244.43761,193.98353c-0.25019,0.91065 -0.29137,1.00421 -0.89851,0.8304c-0.60733,-0.17386 -0.60106,-0.3047 -0.36022,-1.16925c0.26591,-0.95452 0.28204,-1.02151 0.89851,-0.83041c0.59066,0.1831 0.63495,0.16926 0.36022,1.16925z" fill="url(#color-41)" stroke="url(#color-42)" stroke-linecap="butt"/><path d="M242.17889,196.24986c0,0 0.61212,0.0193 0.69375,-0.28394c0.09954,-0.36975 0.33135,-1.23089 0.33135,-1.23089l0.66515,0.17905c0,0 -0.21742,0.80768 -0.31524,1.17104c-0.03658,0.13587 -0.2386,0.38919 -0.51181,0.54608c-0.36294,0.20842 -0.81492,0.3056 -0.81492,0.3056z" fill="url(#color-43)" stroke="url(#color-44)" stroke-linecap="butt"/><path d="M237.32246,198.82836l-1.62955,-6.24374l1.01114,-0.13172l0.81409,6.33505z" fill="url(#color-45)" stroke="url(#color-46)" stroke-linecap="butt"/><path d="M234.81713,203.50401c0,0 3.7793,-11.9295 5.06143,-11.84267c1.46673,0.09934 5.06005,11.84267 5.06005,11.84267z" fill="url(#color-47)" stroke="url(#color-48)" stroke-linecap="butt"/><path d="M238.28067,194.33121h3.21773" fill="none" stroke="url(#color-49)" stroke-linecap="round"/><path d="M237.23964,196.74346h5.17361" fill="none" stroke="url(#color-50)" stroke-linecap="round"/><path d="M243.31193,199.4064h-6.94559" fill="none" stroke="url(#color-51)" stroke-linecap="round"/><path d="M244.27448,202.05862h-8.83299" fill="none" stroke="url(#color-52)" stroke-linecap="round"/><path d="M234.90126,191.56597h10.09484c0,0 -0.02278,0.72727 -0.15565,0.9891c-0.11396,0.22457 -0.59357,0.48734 -0.59357,0.48734h-8.67526c0,0 -0.36564,-0.27878 -0.46368,-0.4947c-0.12068,-0.26579 -0.20669,-0.98174 -0.20669,-0.98174z" fill="url(#color-53)" stroke="url(#color-54)" stroke-linecap="butt"/></g><path d="M234.96659,166.62422c0,0 0.65095,-10.35343 5.00885,-10.12148c4.38477,-0.30943 5.11262,10.12148 5.11262,10.12148z" fill="url(#color-55)" stroke="url(#color-56)" stroke-width="0.25" stroke-linecap="butt"/><path d="M237.4903,157.80046c0,0 0.32126,-1.30994 2.47199,-1.28059c2.16399,-0.03915 2.5232,1.28059 2.5232,1.28059z" fill="url(#color-57)" stroke="url(#color-58)" stroke-width="0.25" stroke-linecap="butt"/><path d="M236.0971,161.00994c0,0 0.12347,-0.40042 0.30486,-0.87694c0.21286,-0.5592 0.56546,-1.2232 1.78383,-1.46784c0.04727,-0.00949 0.93534,-0.14855 0.93534,-0.14855l1.93204,0.00595c0,0 0.66788,0.04767 0.7071,0.05697c1.15305,0.27333 1.58604,0.95968 1.82842,1.53355c0.20667,0.48932 0.33242,0.89686 0.33242,0.89686z" data-paper-data="{&quot;index&quot;:null}" fill="url(#color-59)" stroke="#000000" stroke-width="0.25" stroke-linecap="butt"/><path d="M238.15866,159.82403c0,-0.49177 0.39865,-0.89042 0.89042,-0.89042c0.49177,0 0.89042,0.39866 0.89042,0.89042c0,0.49177 -0.39865,0.89042 -0.89042,0.89042c-0.49177,0 -0.89042,-0.39865 -0.89042,-0.89042z" fill="#ff0000" stroke="none" stroke-width="0.25" stroke-linecap="butt"/><path d="M240.2168,159.84353c0,-0.49177 0.39865,-0.89042 0.89042,-0.89042c0.49177,0 0.89042,0.39866 0.89042,0.89042c0,0.49177 -0.39866,0.89042 -0.89042,0.89042c-0.49177,0 -0.89042,-0.39866 -0.89042,-0.89042z" fill="#4bff00" stroke="none" stroke-width="0.25" stroke-linecap="butt"/><g stroke-width="0.25"><path d="M234.96755,175.1858v-8.53914h10.0017v8.53914z" fill="url(#color-60)" stroke="url(#color-61)" stroke-linecap="butt"/><path d="M235.10829,174.24831v-6.68131h0.67036v6.68131z" fill="url(#color-62)" stroke="url(#color-63)" stroke-linecap="butt"/><path d="M244.17787,174.24831v-6.68131h0.67036v6.68131z" fill="url(#color-64)" stroke="url(#color-65)" stroke-linecap="butt"/><path d="M235.81921,170.91623c0,-2.29153 1.85766,-4.14919 4.14919,-4.14919c2.29153,0 4.14919,1.85766 4.14919,4.14919c0,2.29153 -1.85766,4.14919 -4.14919,4.14919c-2.29153,0 -4.14919,-1.85766 -4.14919,-4.14919z" fill="url(#color-66)" stroke="none" stroke-linecap="butt"/><path d="M236.59986,170.90147c0,-1.86038 1.50815,-3.36854 3.36854,-3.36854c1.86038,0 3.36854,1.50815 3.36854,3.36854c0,1.86038 -1.50815,3.36854 -3.36854,3.36854c-1.86038,0 -3.36854,-1.50815 -3.36854,-3.36854z" fill="url(#color-67)" stroke="none" stroke-linecap="butt"/><path d="M237.11665,170.90147c0,-1.57497 1.27677,-2.85175 2.85175,-2.85175c1.57497,0 2.85175,1.27677 2.85175,2.85175c0,1.57497 -1.27677,2.85175 -2.85175,2.85175c-1.57497,0 -2.85175,-1.27677 -2.85175,-2.85175z" fill="url(#color-68)" stroke="none" stroke-linecap="butt"/><path d="M237.62339,170.90147c0,-1.29511 1.04989,-2.345 2.34501,-2.345c1.29511,0 2.34501,1.04989 2.34501,2.345c0,1.29511 -1.04989,2.34501 -2.34501,2.34501c-1.29511,0 -2.34501,-1.04989 -2.34501,-2.34501z" fill="url(#color-69)" stroke="none" stroke-linecap="butt"/><path d="M235.08998,174.27827l0.54079,-3.50889l0.51826,3.50889l0.69853,-3.47824l0.69853,3.46292l1.21679,-3.46292l1.17172,3.47824l1.03652,-3.46292l1.17172,3.4476l0.78866,-3.4476l0.85626,3.47824l0.54079,-3.46292l0.51826,3.43227" fill="none" stroke="url(#color-70)" stroke-linecap="round"/><path d="M244.84682,170.80002l-0.51826,3.43227l-0.54079,-3.46292l-0.85626,3.47824l-0.78866,-3.4476l-1.17172,3.4476l-1.03652,-3.46292l-1.17172,3.47824l-1.21679,-3.46292l-0.69853,3.46292l-0.69853,-3.47824l-0.51826,3.50889l-0.54079,-3.50889" data-paper-data="{&quot;index&quot;:null}" fill="none" stroke="url(#color-71)" stroke-linecap="round"/><path d="M235.11251,170.9009l0.54079,-3.50889l0.51826,3.50889l0.69853,-3.47824l0.69853,3.46292l1.21679,-3.46292l1.17172,3.47824l1.03652,-3.46292l1.17172,3.4476l0.78866,-3.4476l0.85626,3.47824l0.54079,-3.46292l0.51826,3.43227" fill="none" stroke="url(#color-72)" stroke-linecap="round"/><path d="M244.86936,167.42266l-0.51826,3.43227l-0.54079,-3.46292l-0.85626,3.47824l-0.78866,-3.4476l-1.17172,3.4476l-1.03652,-3.46292l-1.17172,3.47824l-1.21679,-3.46292l-0.69853,3.46292l-0.69853,-3.47824l-0.51826,3.50889l-0.54079,-3.50889" data-paper-data="{&quot;index&quot;:null}" fill="none" stroke="url(#color-73)" stroke-linecap="round"/><path d="M234.99349,175.06248v-0.75379h9.85824v0.75379z" fill="url(#color-74)" stroke="url(#color-75)" stroke-linecap="butt"/><path d="M235.03856,167.54417v-0.75379h9.85824v0.75379z" fill="url(#color-76)" stroke="url(#color-77)" stroke-linecap="butt"/></g><path d="M215.27327,167.03273v-12.39235h25.93332v8.69862h-15.56684v3.69373z" fill-opacity="0.53453" fill="#000000" stroke="#a60000" stroke-width="0" stroke-linecap="butt"/><text transform="translate(215.70712,161.61518) scale(0.21839,0.21839)" font-size="40" xml:space="preserve" fill="#ffffff" fill-rule="nonzero" stroke="#000000" stroke-width="0" stroke-linecap="butt" stroke-linejoin="miter" stroke-miterlimit="10" stroke-dasharray="" stroke-dashoffset="0" font-family="Serif" font-weight="normal" text-anchor="start" style="mix-blend-mode: normal"><tspan x="0" dy="0">Rocket</tspan></text><text transform="translate(215.56527,166.16682) scale(0.11601,0.11601)" font-size="40" xml:space="preserve" fill="#ffffff" fill-rule="nonzero" stroke="#000000" stroke-width="0" stroke-linecap="butt" stroke-linejoin="miter" stroke-miterlimit="10" stroke-dasharray="" stroke-dashoffset="0" font-family="Serif" font-weight="normal" text-anchor="start" style="mix-blend-mode: normal"><tspan x="0" dy="0">2-4-3</tspan></text></g></g></svg>