<svg version="1.1" xmlns="http://www.w3.org/2000/svg" xmlns:xlink="http://www.w3.org/1999/xlink" width="59" height="59.70662" viewBox="0,0,59,59.70662"><defs><linearGradient x1="240" y1="151.64669" x2="240" y2="208.35331" gradientUnits="userSpaceOnUse" id="color-1"><stop offset="0" stop-color="#191919"/><stop offset="1" stop-color="#050505"/></linearGradient><linearGradient x1="240" y1="151.64669" x2="240" y2="208.35331" gradientUnits="userSpaceOnUse" id="color-2"><stop offset="0" stop-color="#cccccc"/><stop offset="1" stop-color="#898989"/></linearGradient><radialGradient cx="240" cy="180" r="26.8571" gradientUnits="userSpaceOnUse" id="color-3"><stop offset="0" stop-color="#d8ffd1" stop-opacity="0.40995"/><stop offset="1" stop-color="#d8ffd1" stop-opacity="0"/></radialGradient><linearGradient x1="240" y1="153.2921" x2="240" y2="206.70789" gradientUnits="userSpaceOnUse" id="color-4"><stop offset="0" stop-color="#cccccc"/><stop offset="1" stop-color="#898989"/></linearGradient><linearGradient x1="237.35044" y1="192.58338" x2="242.64957" y2="192.58338" gradientUnits="userSpaceOnUse" id="color-5"><stop offset="0" stop-color="#cdd3da"/><stop offset="1" stop-color="#9da3ab"/></linearGradient><linearGradient x1="236.35685" y1="204.85709" x2="243.64315" y2="204.85709" gradientUnits="userSpaceOnUse" id="color-6"><stop offset="0" stop-color="#b2b8bd"/><stop offset="1" stop-color="#8c9298"/></linearGradient><linearGradient x1="236.201" y1="205.36362" x2="243.79901" y2="205.36362" gradientUnits="userSpaceOnUse" id="color-7"><stop offset="0" stop-color="#777c7f"/><stop offset="1" stop-color="#5f6368"/></linearGradient><radialGradient cx="238.06199" cy="176.98022" r="2.91748" gradientUnits="userSpaceOnUse" id="color-8"><stop offset="0" stop-color="#bec4ca"/><stop offset="1" stop-color="#8c9098"/></radialGradient><linearGradient x1="240.01599" y1="176.81104" x2="240.00327" y2="175.58374" gradientUnits="userSpaceOnUse" id="color-9"><stop offset="0" stop-color="#f0f7ff"/><stop offset="1" stop-color="#afb6be"/></linearGradient><linearGradient x1="240.00494" y1="175.74439" x2="239.8099" y2="156.93092" gradientUnits="userSpaceOnUse" id="color-10"><stop offset="0" stop-color="#f0f7ff"/><stop offset="1" stop-color="#afb6be"/></linearGradient><linearGradient x1="239.89615" y1="158.92699" x2="239.84914" y2="154.39204" gradientUnits="userSpaceOnUse" id="color-11"><stop offset="0" stop-color="#cbe3ff"/><stop offset="1" stop-color="#86a1bf"/></linearGradient><linearGradient x1="241.94755" y1="180.04348" x2="243.01532" y2="180.64873" gradientUnits="userSpaceOnUse" id="color-12"><stop offset="0" stop-color="#f0f7ff"/><stop offset="1" stop-color="#afb6be"/></linearGradient><linearGradient x1="242.87553" y1="180.5695" x2="259.24332" y2="189.84743" gradientUnits="userSpaceOnUse" id="color-13"><stop offset="0" stop-color="#f0f7ff"/><stop offset="1" stop-color="#afb6be"/></linearGradient><linearGradient x1="257.53849" y1="188.80569" x2="261.48391" y2="191.04212" gradientUnits="userSpaceOnUse" id="color-14"><stop offset="0" stop-color="#cbe3ff"/><stop offset="1" stop-color="#86a1bf"/></linearGradient><linearGradient x1="238.1397" y1="180.08463" x2="237.06712" y2="180.68131" gradientUnits="userSpaceOnUse" id="color-15"><stop offset="0" stop-color="#f0f7ff"/><stop offset="1" stop-color="#afb6be"/></linearGradient><linearGradient x1="237.20752" y1="180.6032" x2="220.7659" y2="189.74966" gradientUnits="userSpaceOnUse" id="color-16"><stop offset="0" stop-color="#f0f7ff"/><stop offset="1" stop-color="#afb6be"/></linearGradient><linearGradient x1="222.47904" y1="188.72162" x2="218.51582" y2="190.92635" gradientUnits="userSpaceOnUse" id="color-17"><stop offset="0" stop-color="#cbe3ff"/><stop offset="1" stop-color="#86a1bf"/></linearGradient><radialGradient cx="239.9205" cy="178.20592" r="2.3963" gradientUnits="userSpaceOnUse" id="color-18"><stop offset="0" stop-color="#e6eef5"/><stop offset="1" stop-color="#c4cad5"/></radialGradient></defs><g transform="translate(-210.5,-150.14669)"><g data-paper-data="{&quot;isPaintingLayer&quot;:true}" fill-rule="nonzero" stroke-linecap="butt" stroke-linejoin="miter" stroke-miterlimit="10" stroke-dasharray="" stroke-dashoffset="0" style="mix-blend-mode: normal"><path d="M212,208.35331v-56.70662h56v56.70662z" fill="url(#color-1)" stroke="url(#color-2)" stroke-width="3"/><path d="M266.8571,180c0,14.75036 -12.02433,26.70789 -26.8571,26.70789c-14.83277,0 -26.8571,-11.95753 -26.8571,-26.70789c0,-14.75036 12.02433,-26.70789 26.8571,-26.70789c14.83277,0 26.8571,11.95753 26.8571,26.70789z" fill="url(#color-3)" stroke="url(#color-4)" stroke-width="0"/><path d="M237.35044,204.54537l0.97411,-23.92399h3.35092l0.97411,23.92399z" fill="url(#color-5)" stroke="none" stroke-width="0"/><path d="M236.35685,205.20776v-0.70136h7.28629v0.70136z" fill="url(#color-6)" stroke="none" stroke-width="0"/><path d="M236.201,205.55844v-0.38964h7.59801v0.38964z" fill="url(#color-7)" stroke="none" stroke-width="0"/><path d="M237.1751,181.20101c0,-0.64113 0,-3.07835 0,-4.32502c0,-0.42006 0.36923,-0.80858 0.74032,-0.80858c0.68313,0 3.02223,0 4.20813,0c0.42459,0 0.70136,0.37736 0.70136,0.73065c0,1.21682 0,3.8412 0,4.51984c0,0.29217 -0.22557,0.58447 -0.58447,0.58447c-1.25761,0 -3.99644,0 -4.55881,0c-0.18595,0 -0.50653,-0.42609 -0.50653,-0.70136z" fill="url(#color-8)" stroke="none" stroke-width="0"/><g data-paper-data="{&quot;index&quot;:null}" stroke="none" stroke-width="0"><path d="M240.8342,176.80256l-1.63641,0.01696l-0.01273,-1.22731l1.63641,-0.01696z" fill="url(#color-9)"/><path d="M241.16008,175.73241l-2.31028,0.02395l0.45141,-16.84824l1.19241,-0.01236z" fill="url(#color-10)"/><path d="M240.49982,158.92073l-1.20731,0.01252c0,0 0.21153,-4.48826 0.53479,-4.49169c0.39404,-0.00417 0.67251,4.47917 0.67251,4.47917z" fill="url(#color-11)"/></g><g data-paper-data="{&quot;index&quot;:null}" stroke="none" stroke-width="0"><path d="M243.41881,179.93689l-0.807,1.42368l-1.06776,-0.60525l0.807,-1.42368z" fill="url(#color-12)"/><path d="M257.85503,188.29802l-0.58804,1.0374l-14.96111,-7.76094l1.13932,-2.00995z" fill="url(#color-13)"/><path d="M261.43,191.03727c-0.15948,0.28121 -4.1892,-1.70638 -4.1892,-1.70638l0.59539,-1.05036c0,0 3.78822,2.41397 3.59382,2.75675z" fill="url(#color-14)"/></g><g data-paper-data="{&quot;index&quot;:null}" stroke="none" stroke-width="0"><path d="M237.74191,179.36959l0.79556,1.4301l-1.07258,0.59667l-0.79556,-1.4301z" fill="url(#color-15)"/><path d="M236.64593,179.59369l1.12318,2.01902l-15.02283,7.64078l-0.5797,-1.04208z" fill="url(#color-16)"/><path d="M218.56976,190.92192c-0.19164,-0.34432 3.6158,-2.72786 3.6158,-2.72786l0.58695,1.0551c0,0 -4.04553,1.95524 -4.20275,1.67276z" fill="url(#color-17)"/></g><path d="M242.20183,180.04703c-0.57323,1.19285 -2.00492,1.69515 -3.19777,1.12193c-1.19285,-0.57323 -1.69515,-2.00492 -1.12193,-3.19777c0.57323,-1.19285 2.00492,-1.69515 3.19777,-1.12193c1.19285,0.57323 1.69515,2.00492 1.12193,3.19777z" data-paper-data="{&quot;index&quot;:null}" fill="url(#color-18)" stroke="none" stroke-width="0"/><path d="M215.27327,163.339v-8.69862h49.94306v8.69862z" fill-opacity="0.53453" fill="#000000" stroke="#a60000" stroke-width="0"/><text transform="translate(215.70712,161.61518) scale(0.21839,0.21839)" font-size="40" xml:space="preserve" fill="#ffffff" fill-rule="nonzero" stroke="none" stroke-width="1" stroke-linecap="butt" stroke-linejoin="miter" stroke-miterlimit="10" stroke-dasharray="" stroke-dashoffset="0" font-family="Serif" font-weight="normal" text-anchor="start" style="mix-blend-mode: normal"><tspan x="0" dy="0">Wind Turbine</tspan></text></g></g></svg>