<svg version="1.1" xmlns="http://www.w3.org/2000/svg" xmlns:xlink="http://www.w3.org/1999/xlink" width="134.49932" height="175.56729" viewBox="0,0,134.49932,175.56729"><defs><linearGradient x1="237.96748" y1="8.04821" x2="240.45916" y2="75.80544" gradientUnits="userSpaceOnUse" id="color-1"><stop offset="0" stop-color="#4a4a4a" stop-opacity="0"/><stop offset="1" stop-color="#4a4a4a" stop-opacity="0.6549"/></linearGradient><linearGradient x1="244.49986" y1="5.03675" x2="241.20643" y2="78.30029" gradientUnits="userSpaceOnUse" id="color-2"><stop offset="0" stop-color="#292929" stop-opacity="0"/><stop offset="1" stop-color="#292929" stop-opacity="0.58824"/></linearGradient><linearGradient x1="249.98181" y1="10.1415" x2="239.35828" y2="77.25331" gradientUnits="userSpaceOnUse" id="color-3"><stop offset="0" stop-color="#383838" stop-opacity="0"/><stop offset="1" stop-color="#383838" stop-opacity="0.76078"/></linearGradient><linearGradient x1="242.63755" y1="12.78091" x2="240.55932" y2="75.30867" gradientUnits="userSpaceOnUse" id="color-4"><stop offset="0" stop-color="#4b4b4b" stop-opacity="0"/><stop offset="1" stop-color="#4b4b4b" stop-opacity="0.75294"/></linearGradient><linearGradient x1="205.37625" y1="125.56928" x2="276.30167" y2="125.56928" gradientUnits="userSpaceOnUse" id="color-5"><stop offset="0" stop-color="#909090"/><stop offset="1" stop-color="#2f2f2f"/></linearGradient><linearGradient x1="179.86976" y1="149.52782" x2="226.48389" y2="149.52782" gradientUnits="userSpaceOnUse" id="color-6"><stop offset="0" stop-color="#3f3f3f"/><stop offset="1" stop-color="#313131"/></linearGradient><linearGradient x1="203.17683" y1="119.3976" x2="203.17683" y2="179.65803" gradientUnits="userSpaceOnUse" id="color-7"><stop offset="0" stop-color="#348317"/><stop offset="1" stop-color="#3c5b0d"/></linearGradient><radialGradient cx="239.34745" cy="135.4747" r="27.13216" gradientUnits="userSpaceOnUse" id="color-8"><stop offset="0" stop-color="#93bee8"/><stop offset="1" stop-color="#647fba"/></radialGradient><linearGradient x1="250.06522" y1="124.50849" x2="250.06522" y2="178.76799" gradientUnits="userSpaceOnUse" id="color-9"><stop offset="0" stop-color="#348317"/><stop offset="1" stop-color="#3c5b0d"/></linearGradient><radialGradient cx="276.1459" cy="136.63371" r="27.13216" gradientUnits="userSpaceOnUse" id="color-10"><stop offset="0" stop-color="#93bee8"/><stop offset="1" stop-color="#647fba"/></radialGradient><linearGradient x1="286.88595" y1="124.613" x2="286.88595" y2="178.8725" gradientUnits="userSpaceOnUse" id="color-11"><stop offset="0" stop-color="#348317"/><stop offset="1" stop-color="#3c5b0d"/></linearGradient><linearGradient x1="250.34823" y1="113.49719" x2="250.34823" y2="125.57587" gradientUnits="userSpaceOnUse" id="color-12"><stop offset="0" stop-color="#348317"/><stop offset="1" stop-color="#3c5b0d"/></linearGradient><linearGradient x1="287.79907" y1="113.77674" x2="287.79907" y2="125.85541" gradientUnits="userSpaceOnUse" id="color-13"><stop offset="0" stop-color="#348317"/><stop offset="1" stop-color="#3c5b0d"/></linearGradient><linearGradient x1="219.3546" y1="78.82827" x2="261.36857" y2="78.82827" gradientUnits="userSpaceOnUse" id="color-14"><stop offset="0" stop-color="#ffe83c"/><stop offset="1" stop-color="#a67b00"/></linearGradient><linearGradient x1="240.36159" y1="75.20638" x2="240.36159" y2="82.45017" gradientUnits="userSpaceOnUse" id="color-15"><stop offset="0" stop-color="#348317"/><stop offset="1" stop-color="#3c5b0d"/></linearGradient><linearGradient x1="219.13907" y1="91.36182" x2="261.15305" y2="91.36182" gradientUnits="userSpaceOnUse" id="color-16"><stop offset="0" stop-color="#ffe83c"/><stop offset="1" stop-color="#a67b00"/></linearGradient><linearGradient x1="240.14606" y1="87.73992" x2="240.14606" y2="94.98371" gradientUnits="userSpaceOnUse" id="color-17"><stop offset="0" stop-color="#348317"/><stop offset="1" stop-color="#3c5b0d"/></linearGradient><linearGradient x1="174.11977" y1="163.90282" x2="231.23389" y2="163.90282" gradientUnits="userSpaceOnUse" id="color-18"><stop offset="0" stop-color="#4a4a4a"/><stop offset="1" stop-color="#373737"/></linearGradient><linearGradient x1="202.67684" y1="148.1476" x2="202.67684" y2="179.65803" gradientUnits="userSpaceOnUse" id="color-19"><stop offset="0" stop-color="#348317"/><stop offset="1" stop-color="#3c5b0d"/></linearGradient><linearGradient x1="182.86977" y1="132.83015" x2="223.48389" y2="132.83015" gradientUnits="userSpaceOnUse" id="color-20"><stop offset="0" stop-color="#ff458a"/><stop offset="1" stop-color="#ff0053"/></linearGradient><linearGradient x1="203.17683" y1="125.3976" x2="203.17683" y2="140.2627" gradientUnits="userSpaceOnUse" id="color-21"><stop offset="0" stop-color="#348317"/><stop offset="1" stop-color="#3c5b0d"/></linearGradient><linearGradient x1="176.86977" y1="163.99682" x2="227.23389" y2="163.99682" gradientUnits="userSpaceOnUse" id="color-22"><stop offset="0" stop-color="#ff458a"/><stop offset="1" stop-color="#ff0053"/></linearGradient><linearGradient x1="202.05184" y1="156.56426" x2="202.05184" y2="171.42937" gradientUnits="userSpaceOnUse" id="color-23"><stop offset="0" stop-color="#348317"/><stop offset="1" stop-color="#3c5b0d"/></linearGradient><linearGradient x1="239.99999" y1="179.02045" x2="239.99999" y2="180.33096" gradientUnits="userSpaceOnUse" id="color-24"><stop offset="0" stop-color="#348317"/><stop offset="1" stop-color="#3c5b0d"/></linearGradient></defs><g transform="translate(-172.75034,-4.76367)"><g data-paper-data="{&quot;isPaintingLayer&quot;:true}" fill-rule="nonzero" stroke-linecap="butt" stroke-linejoin="miter" stroke-miterlimit="10" stroke-dasharray="" stroke-dashoffset="0" style="mix-blend-mode: normal"><path d="M219.19236,72.23828l-0.0319,-0.01523l-0.01926,-0.06084c-0.18956,-0.29579 -0.30342,-0.63687 -0.31686,-1.00233l-0.02628,-0.71475l0.06144,-0.25821l-0.0097,-0.26398l0.07576,-0.31835l-0.0583,-1.58492l-0.1656,-0.84576l0.01193,-0.15405l-0.04692,-0.14849l-0.00069,-0.01906l-0.02674,-0.06114l-0.17907,-0.23651l-0.11534,-0.28114l-0.76328,-1.27172l-0.04262,-0.14955l-0.0965,-0.12745l-0.23748,-0.57879l-0.14713,-0.18568l-0.11655,-0.26652l-0.17907,-0.23651l-0.522,-1.2723l-0.04189,-0.3428l-0.10484,-0.33162l-0.00607,-0.16488l-0.09898,-0.31311l-0.0097,-0.26392l-0.08027,-0.25394l-0.00297,-0.08087l-0.04006,-0.09766l-0.0419,-0.3428l-0.10484,-0.33162l-0.09987,-2.71599l0.06144,-0.25821l-0.0097,-0.26398l0.07576,-0.31835l-0.02183,-0.59373l0.06144,-0.25821l-0.0097,-0.26398l0.12531,-0.52662l0.1227,-0.66914l0.05971,-0.12439l0.00654,-0.13543l0.24287,-0.73915l0.10779,-0.5877l0.05971,-0.12439l0.00654,-0.13543l0.2319,-0.70581l0.1022,-0.69554l0.13056,-0.29798l0.06544,-0.31502l0.35103,-0.69073l0.22612,-0.81669l0.10465,-0.17721l0.04101,-0.19743l1.25905,-2.47722l0.52181,-1.58821l0.13301,-0.20344l0.0678,-0.22816l0.35598,-0.57875l0.22542,-0.56259l0.10734,-0.1441l0.04984,-0.16779l0.44841,-0.72898l0.08518,-0.08226l0.04456,-0.10517l0.27366,-0.35349l0.47345,-1.18168l0.05625,-0.07551l0.01859,-0.08947l1.55446,-3.05852l0.33135,-1.00845l0.23397,-1.43108l0.07745,-0.16945l0.01432,-0.18292l0.47945,-1.32673l0.08271,-1.29922l0.03843,-0.11127l-0.01042,-0.11617l0.25764,-1.40485l0.23453,-1.59652l0.08134,-1.68599l-0.18186,-4.945l-0.16378,-1.02139l-0.30378,-0.96096l-0.34113,-0.95713l-0.0027,-0.03662l-0.02028,-0.0318l-0.135,-0.42705l-0.27795,-0.57191l-0.01199,-0.0636l-0.04031,-0.05324l-0.23749,-0.57879l-0.14713,-0.18572l-0.0622,-0.14223l-0.03813,-0.00569l-0.17227,-0.22753l-0.23815,-0.17234l-0.01609,-0.16342l-0.2645,-0.34937l-0.02301,-0.05608l-0.00215,-0.00299l-0.1802,-0.13842l-0.33223,-0.41935l-0.11654,-0.26652l-0.10929,-0.14434l-0.29357,-0.24814l-0.20717,-0.28967l-0.25795,-0.25423l-0.16874,-0.28114l-0.02348,-0.08242l-0.33075,-0.23937l-0.0105,-0.10662l-0.13099,-0.12911l-0.16875,-0.28114l-0.30503,-1.07081l0.34382,-0.5012l0.01455,-0.58951l0.90232,-0.7471l0.175,-0.08571l0.01246,-0.02127l0.06558,-0.01695l0.05817,-0.02849l0.52845,-0.12286l0.52469,-0.13539l0.06613,-0.00201l0.06605,-0.01536l0.02268,0.01269l3.98593,-0.11964l1.25193,-0.16382l1.06583,-0.17039l0.1705,0.0108l0.16437,-0.04239l0.81543,-0.02446l0.34657,-0.08943l0.29218,-0.00876l0.28112,-0.07252l0.31647,-0.0095l0.28582,0.05552l0.29218,-0.00876l0.63817,0.12392l0.23472,0.10418l0.25704,0.04359l0.35888,0.14885l0.16281,-0.04543l0.26672,0.13391l0.29832,0.05796l0.09529,0.13964l0.40795,0.20479l0.18343,0.04919l0.27311,0.14575l0.30208,0.08738l0.48521,0.27163l0.16483,0.15327l0.20674,0.1038l0.15527,0.13124l0.28533,0.15973l0.16483,0.15327l0.20674,0.1038l0.32698,0.27638l0.12836,0.17947l0.1802,0.13842l0.05581,0.07044l0.08149,0.04564l0.16483,0.15327l0.20673,0.1038l0.32698,0.27642l0.12836,0.17951l0.18021,0.13842l0.62609,0.79025l1.44587,1.6262l0.13115,0.25713l0.19184,0.22392l0.21648,0.44541l0.29903,0.33632l0.13115,0.25713l0.19183,0.22392l0.30304,0.62351l0.24693,0.41139l0.45148,0.63131l0.08442,0.22363l0.14767,0.19504l0.11534,0.28114l0.25704,0.42827l0.06518,0.22882l0.13065,0.20469l0.87126,2.75598l0.1423,0.3468l0.01022,0.08362l0.04652,0.07284l0.33346,1.05485l0.1423,0.34684l0.04189,0.3428l0.10484,0.33162l0.01131,0.30781l0.09898,0.31311l0.0019,0.05228l0.02653,0.04648l0.18451,0.70999l-0.00059,0.03553l0.01686,0.0321l0.13918,0.62557l0.23953,0.49288l0.0369,0.19566l0.1006,0.17648l0.18451,0.70999l-0.00055,0.03553l0.01685,0.0321l0.15306,0.68791l0.28324,0.69035l0.02068,0.16916l0.0808,0.15372l0.15306,0.68791l0.28324,0.69035l0.01645,0.13474l0.0687,0.12054l0.15074,0.57994l0.29662,0.72297l0.01022,0.08362l0.04652,0.07288l0.135,0.42705l0.15169,0.31211l1.07804,1.21245l0.37068,0.2342l0.19758,0.20537l0.24551,0.1576l0.57369,0.60547l2.39652,2.02581l0.51039,0.32247l0.22149,0.23021l0.26896,0.18438l0.39003,0.43865l0.6942,0.58681l0.12836,0.17947l0.1802,0.13842l0.09549,0.12054l0.31534,0.19923l0.26377,0.27417l0.30634,0.23529l0.66447,0.83867l0.05514,0.1261l0.10138,0.09994l0.23543,0.39224l0.36165,0.40673l0.09034,0.17709l0.14585,0.14377l0.33749,0.5623l0.02512,0.08814l0.06168,0.07198l0.30304,0.62351l0.62789,1.04614l0.02512,0.08814l0.06168,0.07198l0.30304,0.62351l0.2904,0.48384l0.02512,0.08814l0.06168,0.07198l0.34274,0.70525l0.02742,0.14549l0.08162,0.12786l0.08221,0.26007l0.30921,0.43236l0.08442,0.22363l0.14767,0.19504l0.34799,0.84817l0.02068,0.16916l0.0808,0.15372l0.1334,0.59958l0.39015,0.7524l0.06408,0.29599l0.13078,0.27748l0.17155,0.97541l0.29714,0.83364l0.01091,0.1482l0.06706,0.13559l0.38524,1.9672l0.18432,0.8285l-0.00924,0.17914l0.05453,0.17242l0.11567,3.14483l-0.0497,0.20892l0.01911,0.21298l-0.13196,0.71951l-0.05971,0.12439l-0.00654,0.13543l-0.17527,0.53344l0.01348,0.36678l-0.02008,0.0844l0.03834,0.06389l-0.16309,0.46027l-0.11244,0.47248l-0.06849,0.03815l-0.02914,0.08222l-0.08402,0.12246l-0.05072,0.21322l-0.17924,0.32951l-0.1239,0.3497l-0.13317,0.19412l-0.05197,0.15814l-0.16133,0.24674l-0.0967,0.27292l-0.22282,0.32481l-0.08601,0.16926l-0.23866,0.26916l-0.18543,0.30143l-1.36909,1.32185l-0.39964,0.58255l-0.23374,0.45991l-0.12122,0.13671l-0.00264,0.10704l-0.16472,0.1364l-0.01208,0.05824l-0.0276,0.05431l-0.01434,0.06023l-0.02271,0.01265l-0.52623,1.03538l-0.12122,0.13671l-0.00264,0.10704l-0.34705,0.28732l-0.11112,0.12532l-0.00075,0.03045l-0.09872,0.08173l-0.08371,0.09442l-0.03359,0.00271l-0.13103,0.10849l-0.11112,0.12532l-0.00075,0.03045l-0.09872,0.08173l-0.08371,0.09442l-0.03359,0.00271l-0.13103,0.10849l-0.29433,0.3319l-0.11802,0.0095l-0.14295,0.11835l-0.31121,0.15246l-0.16552,0.03848l-0.14107,0.08719l-0.93887,0.31441l-0.31017,0.03094l-0.01089,0.00532l-0.52845,0.12286l-0.52469,0.13539l-0.06613,0.00201l-0.06605,0.01536l-0.02268,-0.01269l-0.0848,0.00253l-0.41305,0.08762l-0.33082,0.11079l-0.37945,0.03785l-0.36706,0.0947l-0.72247,0.0217l-0.10807,0.03618l-0.37945,0.03785l-0.36706,0.0947l-0.08954,0.00271l-0.10807,0.03618l-0.09257,0.00924l-0.08066,0.04205l-0.62766,0.16194l-0.29218,0.00876l-0.28112,0.07252l-0.56422,0.01695l-0.10809,0.03618l-0.09254,0.00922l-0.08066,0.04205l-0.62766,0.16194l-0.29218,0.00876l-0.28112,0.07252l-1.34728,0.04044l-0.55699,0.11812l-0.23649,-0.00308l-0.22744,0.05869l-19.4624,0.58412l-0.3732,-0.07248l-0.38139,-0.01502l-0.9599,-0.2574l-0.05846,-0.03119l-0.14496,0.00434l-0.02169,0.01403l-0.06705,-0.01137l-0.06613,0.00201l-0.53349,-0.10361l-0.53628,-0.09089l-0.06013,-0.02493l-0.06668,-0.01297l-0.01401,-0.02051l-0.18092,-0.07506l-0.95522,-0.6913l-0.10343,-1.05047l-0.0022,-0.00319l0.0016,-0.00275l-0.06448,-0.65492c-0.58804,-0.13742 -1.0902,-0.47397 -1.40956,-0.92769z" fill="url(#color-1)" stroke="none" stroke-width="0.5"/><path d="M218.58261,72.92063l-0.03306,-0.0187l-0.0154,-0.06703c-0.17836,-0.3327 -0.27108,-0.70877 -0.2533,-1.10397l0.03474,-0.77283l0.08908,-0.2741l0.01284,-0.28541l0.10981,-0.33789l0.07704,-1.71373l-0.10399,-0.92417l0.02647,-0.16531l-0.03752,-0.16355l0.00092,-0.02063l-0.02343,-0.06789l-0.17229,-0.26802l-0.09959,-0.31154l-0.71102,-1.42667l-0.03274,-0.16435l-0.09284,-0.14442l-0.20505,-0.6414l-0.1423,-0.2109l-0.1022,-0.29584l-0.17229,-0.26802l-0.45074,-1.40991l-0.01494,-0.37277l-0.08382,-0.36524l0.00802,-0.1783l-0.07912,-0.34484l0.01284,-0.28541l-0.06417,-0.2797l0.00395,-0.08748l-0.0346,-0.10821l-0.01494,-0.37277l-0.08382,-0.36524l0.132,-2.93671l0.08908,-0.2741l0.01284,-0.28541l0.10982,-0.33789l0.02887,-0.64196l0.08907,-0.2741l0.01284,-0.28541l0.18167,-0.55901l0.19142,-0.71286l0.07536,-0.12987l0.019,-0.14561l0.32719,-0.77974l0.16814,-0.62614l0.07536,-0.12987l0.019,-0.14561l0.31244,-0.74459l0.17162,-0.74291l0.16713,-0.31202l0.09836,-0.33503l0.43963,-0.71975l0.31596,-0.8646l0.12853,-0.18358l0.06163,-0.20999l1.57669,-2.58125l0.70304,-1.67546l0.16141,-0.20984l0.09327,-0.24127l0.43505,-0.59854l0.29279,-0.59058l0.1285,-0.14771l0.06856,-0.17738l0.54799,-0.75399l0.09913,-0.08254l0.05732,-0.11026l0.32639,-0.36158l0.61498,-1.24045l0.06735,-0.07743l0.02794,-0.09515l1.94665,-3.18697l0.44638,-1.06387l0.37869,-1.52674l0.09851,-0.17721l0.03158,-0.19623l0.63425,-1.39649l0.20389,-1.3954l0.05126,-0.11726l-0.00099,-0.1261l0.40188,-1.49674l0.39391,-1.70515l0.23656,-1.81266l0.24034,-5.34686l-0.08651,-1.11346l-0.24283,-1.05836l-0.28347,-1.05693l0.00032,-0.03971l-0.01907,-0.03577l-0.10792,-0.47034l-0.24933,-0.63691l-0.00733,-0.06945l-0.03878,-0.06031l-0.20505,-0.6414l-0.1423,-0.2109l-0.05453,-0.1579l-0.04061,-0.00889l-0.16573,-0.25784l-0.24166,-0.20307l-0.00292,-0.17744l-0.25448,-0.39585l-0.01986,-0.06212l-0.00207,-0.00339l-0.18215,-0.16227l-0.32134,-0.47624l-0.1022,-0.29584l-0.10513,-0.16355l-0.29473,-0.28881l-0.19788,-0.32738l-0.25576,-0.29284l-0.15719,-0.31543l-0.01805,-0.09061l-0.33562,-0.28203l-0.0019,-0.11574l-0.1299,-0.14872l-0.15719,-0.31543l-0.23449,-1.17699l0.41511,-0.51586l0.06773,-0.63482l1.0392,-0.74077l0.1963,-0.07985l0.01533,-0.02211l0.07224,-0.0135l0.06526,-0.02655l0.58083,-0.09447l0.57789,-0.10821l0.07151,0.00263l0.07259,-0.01179l0.02332,0.01532l4.30983,0.1581l1.36483,-0.08657l1.16466,-0.10694l0.18297,0.02389l0.18102,-0.03387l0.8817,0.03233l0.38171,-0.07146l0.31594,0.01157l0.30961,-0.058l0.34219,0.01257l0.30337,0.08046l0.31594,0.01157l0.6774,0.17967l0.24398,0.12934l0.2734,0.06551l0.37395,0.18642l0.17961,-0.03723l0.27588,0.16363l0.31666,0.08396l0.09044,0.1575l0.42193,0.25032l0.19351,0.06627l0.28173,0.17685l0.31814,0.11599l0.49937,0.32795l0.16427,0.17717l0.21385,0.12682l0.15589,0.15274l0.29366,0.19285l0.16425,0.17717l0.21385,0.12682l0.32828,0.32167l0.12261,0.20283l0.18215,0.16227l0.05396,0.07997l0.08388,0.05508l0.16427,0.17717l0.21385,0.12682l0.32828,0.32167l0.12261,0.20283l0.18215,0.16227l0.60557,0.89748l1.41601,1.85821l0.11873,0.28681l0.18713,0.25531l0.19418,0.49603l0.29284,0.3843l0.11873,0.28681l0.18713,0.25531l0.27183,0.69436l0.23003,0.46153l0.43123,0.71343l0.07131,0.24728l0.14206,0.22097l0.09959,0.31154l0.23945,0.48042l0.0501,0.2515l0.12288,0.23018l0.69646,3.03543l0.12288,0.38434l0.00365,0.09095l0.04375,0.08193l0.26658,1.16178l0.12288,0.38434l0.01494,0.37277l0.08382,0.36524l-0.01495,0.33282l0.07912,0.3448l-0.00255,0.05651l0.02451,0.05204l0.13635,0.77908l-0.00376,0.03826l0.01536,0.03582l0.09489,0.68479l0.21487,0.54891l0.02254,0.21368l0.09292,0.19759l0.13635,0.77908l-0.00375,0.03826l0.01536,0.03582l0.10437,0.75301l0.24458,0.76503l0.00736,0.18393l0.0736,0.1716l0.10437,0.75301l0.24458,0.76503l0.00587,0.14651l0.06348,0.13494l0.11137,0.6364l0.2561,0.80115l0.00365,0.09095l0.04375,0.08193l0.10792,0.47034l0.13607,0.3476l1.05576,1.38546l0.37915,0.27933l0.195,0.23575l0.2509,0.18771l0.56531,0.6944l2.40613,2.35772l0.52205,0.38459l0.21859,0.26426l0.27385,0.21826l0.38198,0.50127l0.69698,0.68293l0.12262,0.20283l0.18215,0.16227l0.09237,0.13686l0.32254,0.23763l0.26031,0.31473l0.30964,0.27585l0.64266,0.9525l0.04834,0.13997l0.10054,0.11512l0.21931,0.44003l0.35417,0.46476l0.08179,0.19755l0.14464,0.1656l0.31438,0.6308l0.0193,0.09691l0.06019,0.0821l0.27183,0.69436l0.5849,1.17362l0.0193,0.09691l0.06019,0.0821l0.27183,0.69436l0.27055,0.54283l0.0193,0.09691l0.06019,0.0821l0.30746,0.7854l0.01675,0.15891l0.07676,0.14377l0.06572,0.28643l0.29534,0.48859l0.07131,0.24728l0.14206,0.22097l0.30048,0.93992l0.00736,0.18393l0.0736,0.1716l0.09096,0.65633l0.3544,0.83966l0.04298,0.32391l0.11658,0.30873l0.09892,1.06446l0.24692,0.92058l-0.00129,0.16065l0.06034,0.15109l0.24189,2.1496l0.1257,0.9069l-0.02579,0.19252l0.04358,0.1899l-0.15285,3.40042l-0.07206,0.22173l0.0018,0.23111l-0.20583,0.76656l-0.07536,0.12987l-0.019,0.14561l-0.23614,0.56276l-0.01783,0.39658l-0.0291,0.08959l0.03573,0.07166l-0.21654,0.48469l-0.163,0.50152l-0.07725,0.03622l-0.0387,0.08657l-0.10142,0.12605l-0.07354,0.22632l-0.22242,0.34252l-0.16452,0.3682l-0.16075,0.1998l-0.07001,0.16686l-0.19577,0.25451l-0.1284,0.28739l-0.269,0.33429l-0.10774,0.17635l-0.2812,0.27315l-0.22661,0.31178l-1.59339,1.32714l-0.48246,0.59958l-0.29272,0.47921l-0.14282,0.13871l-0.01231,0.11526l-0.1897,0.13523l-0.01818,0.06197l-0.03457,0.0566l-0.02079,0.06397l-0.0256,0.012l-0.65896,1.07883l-0.14282,0.13871l-0.01231,0.11526l-0.3997,0.28493l-0.13092,0.12716l-0.00351,0.03278l-0.11368,0.08103l-0.09864,0.0958l-0.03644,0.00049l-0.1509,0.1076l-0.13092,0.12716l-0.00351,0.03278l-0.11368,0.08103l-0.09864,0.0958l-0.03644,0.00049l-0.1509,0.1076l-0.34677,0.3368l-0.12813,0.00171l-0.16463,0.11734l-0.34913,0.142l-0.18195,0.0296l-0.15986,0.08387l-1.04043,0.27147l-0.33728,0.011l-0.01221,0.00495l-0.58083,0.09447l-0.57788,0.10821l-0.07151,-0.00263l-0.07261,0.01179l-0.02332,-0.01532l-0.09171,-0.00337l-0.45325,0.06474l-0.36659,0.09564l-0.41263,0.0135l-0.40429,0.07573l-0.78117,-0.02864l-0.11977,0.03127l-0.41263,0.0135l-0.40429,0.07573l-0.09682,-0.00357l-0.11977,0.03127l-0.10065,0.00332l-0.09072,0.03954l-0.6913,0.12946l-0.31594,-0.01157l-0.30961,0.058l-0.61008,-0.0224l-0.11978,0.03127l-0.10065,0.00328l-0.09072,0.03954l-0.6913,0.12946l-0.31594,-0.01157l-0.30961,0.058l-1.45677,-0.05346l-0.6112,0.08729l-0.25481,-0.02035l-0.25049,0.0469l-21.04404,-0.77208l-0.39616,-0.10505l-0.41003,-0.04367l-1.01265,-0.34678l-0.06032,-0.03785l-0.15674,-0.00576l-0.02464,0.01355l-0.0713,-0.01712l-0.07151,-0.00263l-0.56625,-0.15019l-0.57042,-0.13671l-0.06267,-0.03122l-0.07078,-0.01878l-0.01328,-0.02312l-0.18849,-0.09397l-0.96929,-0.81449l-0.01881,-1.14051l-0.00208,-0.00366l0.00197,-0.00286l-0.01172,-0.71104c-0.62214,-0.1906 -1.13409,-0.5898 -1.4385,-1.10216z" fill="url(#color-2)" stroke="none" stroke-width="0.5"/><path d="M219.1057,70.39093l-0.02848,-0.02002l-0.0072,-0.06299c-0.12957,-0.32111 -0.17588,-0.6749 -0.11856,-1.03689l0.11205,-0.70791l0.11036,-0.24456l0.0414,-0.26144l0.13603,-0.30151l0.24849,-1.56984l0.00014,-0.85889l0.04148,-0.14979l-0.01757,-0.1536l0.00298,-0.0189l-0.01454,-0.06442l-0.13069,-0.26111l-0.05933,-0.295l-0.50616,-1.37246l-0.01307,-0.15397l-0.07043,-0.14071l-0.12213,-0.60733l-0.10903,-0.20604l-0.06332,-0.2808l-0.13069,-0.26111l-0.26846,-1.33499l0.02491,-0.34418l-0.03924,-0.34305l0.02586,-0.1633l-0.03702,-0.32391l0.0414,-0.26144l-0.03004,-0.26269l0.01267,-0.08015l-0.02061,-0.10243l0.0249,-0.34418l-0.03924,-0.34305l0.42583,-2.69013l0.11036,-0.24456l0.0414,-0.26144l0.13603,-0.30151l0.09309,-0.58803l0.11035,-0.24456l0.0414,-0.26144l0.22504,-0.49882l0.24997,-0.63954l0.08277,-0.11308l0.03258,-0.1323l0.38179,-0.68959l0.21956,-0.56171l0.08277,-0.11308l0.03258,-0.1323l0.36456,-0.65847l0.23486,-0.66883l0.18607,-0.27288l0.1252,-0.29989l0.47899,-0.62484l0.38026,-0.76856l0.13724,-0.15803l0.07846,-0.18795l1.71784,-2.24096l0.82035,-1.48169l0.17023,-0.17939l0.11079,-0.21402l0.46221,-0.51381l0.33055,-0.51847l0.13353,-0.12497l0.08147,-0.15736l0.58224,-0.64716l0.09973,-0.06756l0.06416,-0.09656l0.3377,-0.30498l0.69426,-1.08899l0.06998,-0.06551l0.03557,-0.08516l2.12095,-2.76682l0.52089,-0.94082l0.50659,-1.37233l0.10897,-0.15466l0.04938,-0.17782l0.72818,-1.23091l0.33219,-1.26628l0.05932,-0.10355l0.01218,-0.11607l0.52482,-1.34273l0.53905,-1.53512l0.40549,-1.64734l0.77532,-4.8979l0.03584,-1.03153l-0.11367,-0.99408l-0.15118,-0.9962l0.0044,-0.03647l-0.01386,-0.03449l-0.05051,-0.44176l-0.16331,-0.60695l0.00047,-0.0645l-0.02942,-0.05876l-0.12214,-0.60733l-0.10903,-0.20608l-0.03379,-0.14988l-0.03644,-0.01161l-0.12572,-0.25117l-0.20122,-0.20722l0.01569,-0.16342l-0.19304,-0.38567l-0.01183,-0.05881l-0.00153,-0.00332l-0.15074,-0.16469l-0.2462,-0.46525l-0.06332,-0.2808l-0.07975,-0.15932l-0.24115,-0.29057l-0.14807,-0.31787l-0.20491,-0.291l-0.11189,-0.30345l-0.00721,-0.08488l-0.27947,-0.2878l0.01023,-0.10666l-0.10408,-0.14779l-0.1119,-0.30345l-0.09367,-1.10251l0.43528,-0.43941l0.12808,-0.57818l1.03268,-0.5935l0.18887,-0.05685l0.01637,-0.01902l0.06785,-0.00633l0.06278,-0.0189l0.54404,-0.03773l0.54279,-0.05067l0.06551,0.00847l0.068,-0.00471l0.01987,0.01608l3.94797,0.51004l1.26438,0.03586l1.08237,0.00012l0.16583,0.03749l0.17002,-0.01589l0.80766,0.10433l0.3585,-0.03343l0.2894,0.03736l0.29081,-0.02712l0.31344,0.04048l0.27071,0.0997l0.2894,0.03736l0.60448,0.22258l0.21101,0.13962l0.2447,0.08339l0.32465,0.20311l0.16907,-0.01906l0.23678,0.17387l0.28257,0.10404l0.06687,0.15253l0.36219,0.26594l0.17112,0.07731l0.2408,0.18651l0.2806,0.13363l0.42536,0.3439l0.13273,0.17688l0.18355,0.13478l0.12755,0.15372l0.25014,0.20227l0.13273,0.17688l0.18355,0.13478l0.26863,0.32367l0.09176,0.19694l0.15074,0.16469l0.04135,0.07811l0.07144,0.05775l0.13273,0.17688l0.18355,0.13478l0.26863,0.32369l0.09176,0.19694l0.15074,0.16469l0.464,0.87677l1.10989,1.82906l0.07951,0.27385l0.14566,0.25069l0.1272,0.47271l0.22954,0.37829l0.07951,0.27385l0.14566,0.25069l0.17805,0.66171l0.16374,0.44403l0.32273,0.69274l0.03998,0.23348l0.10775,0.21527l0.05933,0.295l0.17045,0.4622l0.02001,0.23557l0.08916,0.22211l0.32599,2.85102l0.07319,0.36392l-0.00607,0.08395l0.03173,0.07906l0.12477,1.09123l0.07319,0.36392l-0.02491,0.34418l0.03924,0.34305l-0.04827,0.30492l0.03704,0.32391l-0.0082,0.05177l0.01712,0.04996l0.04465,0.72816l-0.00741,0.03488l0.01043,0.03426l0.01631,0.63792l0.14075,0.52308l-0.00143,0.1985l0.06499,0.18957l0.04465,0.72816l-0.00741,0.03488l0.01042,0.03426l0.01793,0.70148l0.14566,0.72442l-0.01228,0.16982l0.0499,0.16411l0.01793,0.70148l0.14566,0.72442l-0.00978,0.13526l0.04439,0.1295l0.03648,0.59483l0.15253,0.75857l-0.00607,0.08395l0.03173,0.07906l0.05051,0.44176l0.08911,0.33124l0.82751,1.36368l0.31979,0.28899l0.15493,0.23337l0.21132,0.19387l0.44804,0.68655l1.96884,2.3723l0.44032,0.39793l0.17367,0.26156l0.22927,0.22392l0.29939,0.49337l0.5703,0.68716l0.09176,0.19694l0.15074,0.16469l0.07076,0.13371l0.27206,0.24585l0.20681,0.3115l0.25622,0.27994l0.49243,0.93053l0.02996,0.13286l0.08055,0.11441l0.1561,0.4233l0.27758,0.45744l0.05476,0.18863l0.11587,0.16455l0.22381,0.60682l0.0077,0.09077l0.04684,0.08064l0.17805,0.66171l0.41636,1.129l0.0077,0.09077l0.04684,0.08064l0.17805,0.66171l0.19258,0.52219l0.0077,0.09077l0.04684,0.08059l0.20139,0.74843l-0.00107,0.14759l0.05569,0.13875l0.03076,0.26906l0.22102,0.47442l0.03998,0.23348l0.10775,0.21527l0.17897,0.88999l-0.01228,0.16982l0.0499,0.16411l0.01563,0.61143l0.23897,0.80233l0.00598,0.30156l0.07523,0.29386l-0.01933,0.98748l0.13169,0.86769l-0.01784,0.14763l0.03986,0.1441l-0.00032,1.99777l0.02162,0.84481l-0.04369,0.17492l0.02039,0.17835l-0.49306,3.1149l-0.08928,0.19788l-0.02231,0.21274l-0.26879,0.68768l-0.08277,0.11308l-0.03258,0.1323l-0.27553,0.49762l-0.0575,0.36326l-0.03604,0.07993l0.02544,0.06897l-0.24941,0.42752l-0.20189,0.44754l-0.07482,0.02677l-0.04456,0.07637l-0.10637,0.10736l-0.09111,0.20198l-0.24008,0.29624l-0.18948,0.32481l-0.1686,0.17017l-0.08169,0.14755l-0.20646,0.21753l-0.14789,0.2535l-0.28209,0.28472l-0.11737,0.15312l-0.28698,0.22743l-0.24078,0.26761l-1.60322,1.08596l-0.50595,0.51068l-0.31892,0.41606l-0.14574,0.11554l-0.02325,0.10494l-0.18854,0.10833l-0.02315,0.05546l-0.03768,0.04915l-0.02574,0.05704l-0.02479,0.00889l-0.71797,0.93662l-0.14574,0.11554l-0.02325,0.10494l-0.3972,0.22825l-0.13361,0.1059l-0.00661,0.02984l-0.11299,0.06493l-0.10067,0.07977l-0.03359,-0.00263l-0.14997,0.0862l-0.13361,0.1059l-0.00661,0.02984l-0.11299,0.06493l-0.10067,0.07977l-0.03359,-0.00263l-0.14997,0.0862l-0.35387,0.28046l-0.11804,-0.00924l-0.16358,0.09401l-0.33586,0.10108l-0.17042,0.01184l-0.15575,0.06364l-0.98518,0.16171l-0.31138,-0.01837l-0.01177,0.00351l-0.54404,0.03773l-0.54278,0.05067l-0.06551,-0.00847l-0.06801,0.00471l-0.01987,-0.01608l-0.08402,-0.01084l-0.42362,0.02121l-0.34712,0.05699l-0.38093,-0.02251l-0.37972,0.03544l-0.71559,-0.09244l-0.11341,0.01862l-0.38093,-0.02251l-0.37972,0.03544l-0.08868,-0.01147l-0.11341,0.01862l-0.09292,-0.00548l-0.08755,0.02868l-0.64931,0.0606l-0.2894,-0.03736l-0.29081,0.02712l-0.55884,-0.0722l-0.11341,0.01862l-0.09292,-0.00548l-0.08755,0.02868l-0.64931,0.0606l-0.2894,-0.03736l-0.29081,0.02712l-1.33446,-0.17238l-0.57123,0.0286l-0.23229,-0.04028l-0.23528,0.02199l-19.27703,-2.49048l-0.35352,-0.13015l-0.37264,-0.07487l-0.89552,-0.40465l-0.05153,-0.03995l-0.14356,-0.01854l-0.02406,0.01041l-0.06382,-0.02174l-0.06551,-0.00847l-0.5053,-0.18606l-0.51054,-0.17398l-0.0544,-0.03407l-0.06316,-0.02325l-0.00983,-0.0224l-0.16364,-0.1024l-0.80715,-0.8312l0.10092,-1.05068l-0.00155,-0.00351l0.0021,-0.00246l0.0629,-0.65504c-0.5525,-0.22795 -0.98204,-0.63845 -1.20891,-1.13552z" fill="url(#color-3)" stroke="none" stroke-width="0.5"/><path d="M221.20529,70.90358l-0.0284,-0.01568l-0.0138,-0.05704c-0.15547,-0.28234 -0.23831,-0.60244 -0.22711,-0.93972l0.02193,-0.65957l0.07325,-0.23456l0.00809,-0.2436l0.09031,-0.28915l0.04861,-1.46261l-0.09793,-0.78754l0.02094,-0.14119l-0.03365,-0.13919l0.0006,-0.0176l-0.02068,-0.05771l-0.14963,-0.22724l-0.08808,-0.26497l-0.62082,-1.21128l-0.02957,-0.13997l-0.08065,-0.12246l-0.18134,-0.54551l-0.1235,-0.17877l-0.09014,-0.25157l-0.14963,-0.22724l-0.39858,-1.19912l-0.01645,-0.31787l-0.07513,-0.31087l0.00505,-0.15218l-0.07096,-0.29352l0.00809,-0.2436l-0.05756,-0.23808l0.00249,-0.07464l-0.03059,-0.09205l-0.01645,-0.31787l-0.07513,-0.31091l0.08329,-2.50642l0.07325,-0.23456l0.00809,-0.2436l0.09031,-0.28915l0.01823,-0.54788l0.07325,-0.23456l0.00809,-0.2436l0.14941,-0.47836l0.15617,-0.60972l0.06302,-0.11142l0.01475,-0.12439l0.27135,-0.66789l0.13718,-0.53552l0.06302,-0.11142l0.01476,-0.12439l0.2591,-0.63778l0.13898,-0.63515l0.13947,-0.26753l0.08058,-0.28662l0.36786,-0.61758l0.26093,-0.74016l0.10781,-0.1577l0.0505,-0.17963l1.31931,-2.21494l0.58302,-1.43506l0.13561,-0.18033l0.07716,-0.20657l0.36517,-0.5142l0.24388,-0.50621l0.10815,-0.12707l0.05674,-0.1519l0.45997,-0.64772l0.08375,-0.07126l0.0478,-0.09454l0.27482,-0.31112l0.51225,-1.06324l0.05668,-0.06659l0.02289,-0.0814l1.62887,-2.73465l0.37022,-0.9112l0.30781,-1.30553l0.08227,-0.15195l0.02498,-0.16767l0.52716,-1.19654l0.16001,-1.19208l0.04256,-0.10043l-0.00209,-0.10756l0.32792,-1.28013l0.31903,-1.45785l0.18371,-1.5483l0.15166,-4.56334l-0.08492,-0.94917l-0.21775,-0.90094l-0.25238,-0.89937l-0.00013,-0.03383l-0.01664,-0.03034l-0.09677,-0.40035l-0.21904,-0.5413l-0.00693,-0.05918l-0.03368,-0.05116l-0.18134,-0.54551l-0.1235,-0.17877l-0.04809,-0.13429l-0.03475,-0.00729l-0.14397,-0.21858l-0.20819,-0.17129l-0.00426,-0.15132l-0.22105,-0.33565l-0.01756,-0.05285l-0.0018,-0.00286l-0.15702,-0.13696l-0.27889,-0.40364l-0.09014,-0.25157l-0.09132,-0.13867l-0.25431,-0.24395l-0.17206,-0.27766l-0.22112,-0.24774l-0.13724,-0.26777l-0.0163,-0.07715l-0.28913,-0.23787l-0.00278,-0.09872l-0.11231,-0.12582l-0.13725,-0.26777l-0.21179,-1.00217l0.34896,-0.44344l0.05143,-0.54212l0.87914,-0.64043l0.16667,-0.06973l0.01285,-0.01894l0.06148,-0.01212l0.0554,-0.02316l0.49457,-0.08529l0.49191,-0.09705l0.06102,0.00162l0.06182,-0.01065l0.02006,0.01289l3.67829,0.09978l1.16345,-0.08497l0.99248,-0.10071l0.15634,0.0189l0.15407,-0.03041l0.7525,0.02041l0.3249,-0.06409l0.26962,0.00733l0.26354,-0.05199l0.29204,0.0079l0.25963,0.06619l0.26962,0.00733l0.5797,0.14775l0.20942,0.10833l0.23388,0.05366l0.32087,0.15598l0.15285,-0.03324l0.23697,0.13733l0.27098,0.06908l0.07872,0.13363l0.36247,0.21008l0.16573,0.05495l0.24209,0.14861l0.27253,0.09637l0.42928,0.27573l0.14189,0.14979l0.18369,0.10651l0.13453,0.12905l0.25245,0.16215l0.14189,0.14979l0.18369,0.10647l0.28328,0.27176l0.10662,0.17205l0.15702,0.13696l0.04684,0.06783l0.0721,0.04629l0.14189,0.14979l0.18369,0.10647l0.28328,0.27176l0.10662,0.17205l0.15703,0.13696l0.52556,0.76071l1.22654,1.57374l0.10416,0.24372l0.1622,0.21629l0.17062,0.42158l0.25367,0.32545l0.10416,0.24372l0.1622,0.21625l0.23882,0.59017l0.20085,0.39188l0.37501,0.60515l0.0633,0.21037l0.12337,0.18737l0.08808,0.26497l0.20908,0.40791l0.04526,0.21411l0.10712,0.19533l0.62447,2.58385l0.10866,0.32689l0.00403,0.07755l0.03813,0.0696l0.23903,0.98895l0.10867,0.32689l0.01645,0.31787l0.07515,0.31091l-0.00944,0.28408l0.07096,0.29352l-0.0016,0.04825l0.02141,0.04424l0.1241,0.66355l-0.00283,0.03266l0.01346,0.03045l0.0878,0.58341l0.1888,0.46652l0.02135,0.18211l0.08123,0.16779l0.1241,0.66351l-0.00281,0.03269l0.01346,0.03045l0.09655,0.64153l0.21629,0.65066l0.00813,0.15688l0.0645,0.14582l0.09655,0.64153l0.21629,0.65066l0.00647,0.12496l0.05549,0.11459l0.10138,0.54198l0.2265,0.6814l0.00403,0.07755l0.03813,0.0696l0.09677,0.40035l0.11954,0.29542l0.91449,1.1733l0.32624,0.23521l0.16869,0.19952l0.2159,0.1581l0.48922,0.58778l2.07618,1.9918l0.4492,0.32387l0.18914,0.22368l0.2358,0.18397l0.33088,0.42449l0.6014,0.57695l0.10662,0.17205l0.15702,0.13696l0.08014,0.11603l0.27755,0.20009l0.22523,0.26635l0.26691,0.2328l0.55779,0.80733l0.04264,0.11901l0.08693,0.09737l0.19149,0.37359l0.30677,0.3936l0.07176,0.16784l0.12503,0.14009l0.27448,0.53557l0.01743,0.0825l0.05214,0.06954l0.23883,0.59017l0.51069,0.99646l0.01743,0.0825l0.05214,0.06954l0.23883,0.59017l0.23621,0.46088l0.01743,0.0825l0.05214,0.06954l0.27011,0.66749l0.01588,0.13543l0.06692,0.12205l0.05892,0.24384l0.25683,0.41444l0.0633,0.21037l0.12337,0.18737l0.26573,0.79942l0.00813,0.15684l0.0645,0.14582l0.08416,0.55919l0.31071,0.71341l0.03991,0.27593l0.10254,0.26242l0.09502,0.90726l0.21984,0.78335l0.00049,0.13701l0.05299,0.12843l0.22781,1.83185l0.11629,0.77265l-0.02008,0.16446l0.03906,0.16165l-0.09644,2.90212l-0.05926,0.18977l0.00382,0.19715l-0.16794,0.65561l-0.06302,0.11142l-0.01476,0.12439l-0.19582,0.482l-0.01125,0.33846l-0.02395,0.07666l0.03119,0.06084l-0.1799,0.41524l-0.13405,0.42914l-0.06553,0.03151l-0.03213,0.07415l-0.08526,0.10833l-0.06048,0.19367l-0.18632,0.29402l-0.13668,0.31546l-0.13515,0.17177l-0.05806,0.14292l-0.16448,0.21873l-0.10665,0.24622l-0.22614,0.28739l-0.09016,0.15136l-0.23716,0.23529l-0.19022,0.26781l-1.34607,1.14518l-0.40562,0.51542l-0.24492,0.4112l-0.12046,0.11949l-0.00935,0.09838l-0.16052,0.11694l-0.01488,0.05301l-0.02895,0.04858l-0.0171,0.05471l-0.0217,0.01043l-0.55142,0.92572l-0.12046,0.11949l-0.00935,0.09838l-0.33812,0.24633l-0.11043,0.10956l-0.00268,0.02799l-0.0962,0.07008l-0.08321,0.08254l-0.03109,0.00069l-0.12767,0.093l-0.11043,0.10956l-0.00268,0.02799l-0.0962,0.07008l-0.08321,0.08254l-0.03109,0.00069l-0.12767,0.093l-0.29245,0.29013l-0.10929,0.00248l-0.13926,0.10147l-0.29642,0.12402l-0.15493,0.02673l-0.13555,0.07284l-0.88488,0.24008l-0.28761,0.01217l-0.01037,0.00434l-0.49454,0.08529l-0.4919,0.09705l-0.06102,-0.00166l-0.06183,0.0107l-0.02006,-0.01289l-0.07826,-0.00214l-0.38603,0.05894l-0.31177,0.08459l-0.35188,0.01485l-0.34415,0.06785l-0.66669,-0.01809l-0.10187,0.02763l-0.35184,0.01485l-0.34414,0.06789l-0.08262,-0.00224l-0.10187,0.02763l-0.08584,0.00366l-0.07698,0.03444l-0.58846,0.11607l-0.26962,-0.00733l-0.26354,0.05199l-0.5207,-0.01413l-0.10188,0.02763l-0.08584,0.00366l-0.07698,0.03444l-0.58846,0.11607l-0.26962,-0.00733l-0.26354,0.05199l-1.24331,-0.03373l-0.52052,0.07945l-0.21759,-0.01532l-0.21324,0.04206l-17.96032,-0.48718l-0.33899,-0.08639l-0.35024,-0.03391l-0.86736,-0.28761l-0.05183,-0.0318l-0.13378,-0.00366l-0.02087,0.01179l-0.061,-0.01399l-0.06102,-0.00162l-0.48457,-0.1235l-0.48799,-0.11195l-0.05375,-0.02615l-0.06058,-0.01542l-0.01157,-0.01965l-0.16175,-0.07863l-0.83503,-0.68692l-0.02745,-0.97284l-0.00181,-0.00308l0.00166,-0.00246l-0.01711,-0.60648c-0.53264,-0.15752 -0.97337,-0.49392 -1.23817,-0.92851z" fill="url(#color-4)" stroke="none" stroke-width="0.5"/><path d="M205.37625,179.46951c0,0 9.42687,-30.462 11.80468,-48.45901c2.35457,-17.82105 2.39314,-59.00037 2.39314,-59.00037l41.66052,-0.34109c0,0 -1.12795,40.94869 1.42617,59.22261c2.46509,17.63697 13.64091,48.57786 13.64091,48.57786z" fill="url(#color-5)" stroke="none" stroke-width="0"/><path d="M179.86976,179.65803v-60.26043h46.61412v60.26043z" fill="url(#color-6)" stroke="url(#color-7)" stroke-width="0"/><path d="M267.87433,151.63824c0,14.98335 0.01372,26.93128 -17.8091,27.12975c-16.49564,0.18369 -17.8091,-12.1464 -17.8091,-27.12975c0,-14.98335 2.64508,-26.92288 17.8091,-27.12975c15.82517,-0.21589 17.8091,12.1464 17.8091,27.12975z" fill="url(#color-8)" stroke="url(#color-9)" stroke-width="0"/><path d="M304.69505,151.74275c0,14.98335 0.01372,26.93128 -17.8091,27.12975c-16.49563,0.18369 -17.8091,-12.1464 -17.8091,-27.12975c0,-14.98335 2.64508,-26.92288 17.8091,-27.12975c15.82517,-0.2159 17.8091,12.1464 17.8091,27.12975z" fill="url(#color-10)" stroke="url(#color-11)" stroke-width="0"/><path d="M248.30844,125.57587v-12.07868h4.07958v12.07868z" fill="#312d29" stroke="url(#color-12)" stroke-width="0"/><path d="M285.75928,125.85541v-12.07868h4.07958v12.07868z" fill="#312d29" stroke="url(#color-13)" stroke-width="0"/><path d="M246.70947,118.28278v-3.56521h44.12864v3.56521z" fill="#36322e" stroke="none" stroke-width="0"/><path d="M219.3546,82.45017v-7.24379h42.01397v7.24379z" fill="url(#color-14)" stroke="url(#color-15)" stroke-width="0"/><path d="M219.13907,94.98371v-7.24379h42.01397v7.24379z" fill="url(#color-16)" stroke="url(#color-17)" stroke-width="0"/><path d="M174.11977,179.65803v-31.51043h57.11412v31.51043z" fill="url(#color-18)" stroke="url(#color-19)" stroke-width="0"/><path d="M182.86977,140.2627v-14.86511h40.61412v14.86511z" fill="url(#color-20)" stroke="url(#color-21)" stroke-width="0"/><path d="M176.86977,171.42937v-14.86511h50.36412v14.86511z" fill="url(#color-22)" stroke="url(#color-23)" stroke-width="0"/><path d="M172.75034,180.33096v-1.31049h134.49932v1.31049z" fill="#312d29" stroke="url(#color-24)" stroke-width="0"/></g></g></svg>