<svg version="1.1" xmlns="http://www.w3.org/2000/svg" xmlns:xlink="http://www.w3.org/1999/xlink" width="501" height="994.09197" viewBox="0,0,501,994.09197"><defs><radialGradient cx="238.07256" cy="422.49342" r="34.955" gradientUnits="userSpaceOnUse" id="color-1"><stop offset="0" stop-color="#33266a"/><stop offset="1" stop-color="#949074"/></radialGradient><linearGradient x1="239.02412" y1="389.3018" x2="238.95429" y2="399.91129" gradientUnits="userSpaceOnUse" id="color-2"><stop offset="0" stop-color="#694444"/><stop offset="1" stop-color="#98a1b9"/></linearGradient><radialGradient cx="233.00482" cy="354.18161" r="20.31544" gradientUnits="userSpaceOnUse" id="color-3"><stop offset="0" stop-color="#dcdcdc"/><stop offset="1" stop-color="#a0a0a0"/></radialGradient><radialGradient cx="224.77629" cy="354.62015" r="15.59586" gradientUnits="userSpaceOnUse" id="color-4"><stop offset="0" stop-color="#1c2f30"/><stop offset="1" stop-color="#142913"/></radialGradient><radialGradient cx="250.24914" cy="349.86343" r="4.10509" gradientUnits="userSpaceOnUse" id="color-5"><stop offset="0" stop-color="#786c41"/><stop offset="1" stop-color="#141a29"/></radialGradient><radialGradient cx="232.9567" cy="353.10251" r="6.46263" gradientUnits="userSpaceOnUse" id="color-6"><stop offset="0" stop-color="#7ba676"/><stop offset="1" stop-color="#291616"/></radialGradient><radialGradient cx="237.49869" cy="367.72333" r="15.25953" gradientUnits="userSpaceOnUse" id="color-7"><stop offset="0" stop-color="#d1ffc4"/><stop offset="1" stop-color="#2188ff"/></radialGradient><radialGradient cx="237.49869" cy="367.72333" r="15.25953" gradientUnits="userSpaceOnUse" id="color-8"><stop offset="0" stop-color="#ceffc4"/><stop offset="1" stop-color="#ff21cc"/></radialGradient><radialGradient cx="237.49869" cy="367.72333" r="15.25953" gradientUnits="userSpaceOnUse" id="color-9"><stop offset="0" stop-color="#ffe9c4"/><stop offset="1" stop-color="#4fff21"/></radialGradient><radialGradient cx="237.49869" cy="367.72333" r="15.25953" gradientUnits="userSpaceOnUse" id="color-10"><stop offset="0" stop-color="#ffe9c4"/><stop offset="1" stop-color="#4fff21"/></radialGradient><radialGradient cx="237.49868" cy="367.72333" r="15.25953" gradientUnits="userSpaceOnUse" id="color-11"><stop offset="0" stop-color="#ffe9c4"/><stop offset="1" stop-color="#ffa321"/></radialGradient><radialGradient cx="237.49866" cy="367.72333" r="15.25953" gradientUnits="userSpaceOnUse" id="color-12"><stop offset="0" stop-color="#c4f0ff"/><stop offset="1" stop-color="#3d21ff"/></radialGradient></defs><g transform="translate(10.5,181.91085)"><g data-paper-data="{&quot;isPaintingLayer&quot;:true}" fill-rule="nonzero" stroke-linejoin="miter" stroke-miterlimit="10" stroke-dasharray="" stroke-dashoffset="0" style="mix-blend-mode: normal"><path d="M-10.5,812.18112v-994.09197h501v994.09197z" fill="#000000" stroke="none" stroke-width="0" stroke-linecap="butt"/><path d="M214.66372,457.29525l0.45996,-69.90847l46.35778,0.30507l-0.45996,69.90847z" fill="url(#color-1)" stroke="#ed6b00" stroke-width="0" stroke-linecap="butt"/><g stroke-linecap="butt"><path d="M233.02613,399.87238l0.0698,-10.60953l11.85635,0.07795l-0.0698,10.60953z" fill="url(#color-2)" stroke="#000000" stroke-width="0"/><path d="M259.37783,370.19731c-0.07891,11.97208 -9.028,21.61892 -19.98874,21.5468c-10.96078,-0.07208 -19.78239,-9.83577 -19.7035,-21.80807c0.07891,-11.97208 9.028,-21.61892 19.98882,-21.5468c10.96078,0.07208 19.78239,9.83577 19.7035,21.80807z" fill="url(#color-3)" stroke="none" stroke-width="0"/><path d="M228.94263,354.66232c-0.2632,0.02223 -0.94003,0.09014 -1.67234,0.21173c-0.81029,0.31595 -1.7559,0.63537 -2.48048,0.98679c-0.45672,1.37949 1.2004,2.80622 -1.03832,3.82646c-3.81838,1.73965 -2.63745,-3.17483 -1.3592,-4.71198c1.97907,-1.70066 4.88084,-1.88715 7.38044,-2.35024c3.44302,-0.63779 6.80058,-1.633 10.20167,-1.8182c0.12869,-0.13273 0.30405,-0.22104 0.50259,-0.23764l0.90825,-0.07582c0.45827,-0.11732 0.95608,-0.23948 1.47903,-0.35439c1.35991,-0.41522 2.99454,-0.62505 4.51702,-0.75803c0.74713,-0.14163 1.4468,-0.20576 2.02457,-0.14994c0.42428,-0.0286 0.81902,-0.05543 1.17152,-0.08507l0.95738,-0.08007c0.43604,-0.03642 0.819,0.28734 0.85557,0.72357c0.03238,0.38817 -0.22058,0.73422 -0.58393,0.83147l-0.5116,0.14777c0.22322,0.19018 0.42563,0.40734 0.60355,0.65389l0.36377,-0.18224l0.45496,0.90934c0.0485,0.0917 0.07988,0.19455 0.08916,0.30455c0.03642,0.43604 -0.28734,0.819 -0.72357,0.85557c-0.13253,0.01113 -0.26058,-0.01104 -0.37499,-0.05967l-0.7831,-0.31302l0.00927,-0.02304l-0.07404,-0.00628c-0.55837,-0.35021 -1.12719,-0.61536 -1.69585,-0.79592c-0.86623,-0.03673 -1.77693,-0.13756 -2.70544,-0.21944c-1.57306,0.25992 -3.00229,1.22296 -4.03062,2.87108c0,0 -0.42094,0.6712 -1.09219,0.25037c-0.6712,-0.42094 -0.25037,-1.09219 -0.25037,-1.09219c0.09003,-0.14286 0.18287,-0.282 0.27848,-0.41683l-0.44066,0.13728c-0.05888,0.01961 -0.12135,0.03281 -0.18599,0.03829c-0.43604,0.03642 -0.819,-0.28734 -0.85557,-0.72357c-0.01848,-0.22074 0.05529,-0.42779 0.18936,-0.58332c-0.37965,-0.0018 -0.73816,0.01662 -1.04355,0.08982c-2.133,0.51139 -5.40563,0.66438 -8.49482,1.11782c0.01493,0.37357 -0.23374,0.7021 -0.58622,0.79633l-0.92734,0.2676l-0.00865,-0.03001l-0.01161,0.00294z" fill="url(#color-4)" stroke="none" stroke-width="0.5"/><path d="M252.35504,349.03823c4.19798,-0.41241 4.16129,-0.34974 4.47541,2.48664c0.31418,2.83627 -1.24515,5.19814 -3.48257,5.27523c-2.23745,0.07696 -4.3059,-2.16026 -4.61999,-4.9966c-0.31418,-2.83627 -0.30937,-2.37851 3.62724,-2.76535z" data-paper-data="{&quot;index&quot;:null}" fill="url(#color-5)" stroke="#000000" stroke-width="0"/><path d="M242.0761,353.12241c0.53345,3.08757 -1.85876,6.07855 -5.3432,6.68028c-3.48434,0.60203 -6.74145,-1.41299 -7.27475,-4.50047c-0.53345,-3.08757 -0.61265,-3.14263 6.021,-3.98912c6.22057,-0.79388 6.06333,-1.27828 6.59686,1.8093z" fill="url(#color-6)" stroke="#000000" stroke-width="0"/><path d="M242.61756,386.42379c-16.67248,0.71662 -18.19433,-8.76577 -18.15623,-14.56512c0.03822,-5.79929 9.92591,-10.5765 18.34995,-10.5211c8.42404,0.0554 16.20123,5.79353 16.16306,11.59279c0,0 2.08664,12.87479 -16.35681,13.4933z" data-paper-data="{&quot;index&quot;:null}" fill="url(#color-7)" stroke="#ed6b00" stroke-width="0"/><path d="M242.61756,386.42379c-13.28593,0.57106 -16.95099,-5.3344 -17.87247,-10.69166c1.77383,2.79212 4.89395,4.64495 8.44683,4.64495c5.52285,0 10,-4.47715 10,-10c0,-3.68017 -1.98798,-6.89603 -4.94864,-8.63227c1.52655,-0.27421 3.07041,-0.41709 4.568,-0.40724c2.56772,0.01689 5.07535,0.56175 7.31987,1.47538c1.23175,3.36681 4.22184,5.88643 7.85835,6.44693c0.64112,1.18361 0.99304,2.42563 0.98484,3.67048c0,0 0.08449,0.52132 0.06919,1.35919c-0.90367,-0.26838 -1.86082,-0.41247 -2.85161,-0.41247c-5.52285,0 -10,4.47715 -10,10c0,0.75949 0.08467,1.4992 0.24508,2.21021c-1.16363,0.17422 -2.43359,0.2899 -3.81947,0.33637z" data-paper-data="{&quot;index&quot;:null}" fill="url(#color-8)" stroke="#ed6b00" stroke-width="0"/><path d="M242.81128,361.33757c2.86891,0.01887 5.66281,0.69684 8.09852,1.81186c-0.42457,1.05622 -0.67408,2.20163 -0.71263,3.40034c-1.82414,-2.43232 -4.73092,-4.00602 -8.00526,-4.00602c-5.52284,0 -10,4.47716 -10,10c0,3.70258 2.01226,6.93517 5.00283,8.66381c-1.48997,1.11834 -2.65743,2.64307 -3.33786,4.40966c-1.71586,-0.47875 -3.12312,-1.13968 -4.27621,-1.92721c1.323,-1.69565 2.11124,-3.82891 2.11124,-6.14626c0,-4.1031 -2.47116,-7.62904 -6.00637,-9.17069c2.90545,-4.10823 10.47213,-7.07924 17.12573,-7.03548z" data-paper-data="{&quot;index&quot;:null}" fill="url(#color-9)" stroke="#ed6b00" stroke-width="0"/><path d="M252.18664,372.87105c1.54723,2.0631 3.87337,3.50847 6.54203,3.89974c-0.60274,2.52934 -2.2775,5.7335 -6.70516,7.74472c-0.88149,-1.65473 -2.21442,-3.03248 -3.83444,-3.96891c2.34917,-1.76324 3.89664,-4.5367 3.99757,-7.67555z" data-paper-data="{&quot;index&quot;:null}" fill="url(#color-10)" stroke="#ed6b00" stroke-width="0"/><path d="M240.57918,379.07045c0.03289,-0.14802 -0.42016,-0.843 -0.52988,-1.05976c-1.33879,-2.64478 -2.33275,-5.48765 -3.97706,-7.95412c-0.15533,-0.233 -1.16319,-0.08163 -1.62223,-0.11188c-2.81115,-0.18521 -5.6188,-0.73777 -8.43171,-0.5815c-0.36017,0.02001 -0.72577,0.143 -1.09189,0.34992c0.87208,-2.03285 2.90269,-3.85863 5.51417,-5.28277c1.81852,2.49328 4.76239,4.11339 8.08467,4.11339c4.28852,0 7.94653,-2.69955 9.36741,-6.49202c3.82311,1.0549 7.14102,3.18194 9.12555,5.73166c-1.43095,-0.79003 -3.07611,-1.23964 -4.82629,-1.23964c-5.52285,0 -10,4.47715 -10,10c0,1.37016 0.27556,2.67596 0.77429,3.86501c-1.42359,0.48486 -2.70282,1.28175 -3.75615,2.30916c0.68179,-1.41454 1.16215,-2.71603 1.36914,-3.64746z" data-paper-data="{&quot;index&quot;:null}" fill="url(#color-11)" stroke="#ed6b00" stroke-width="0"/><path d="M242.61753,386.42379c-16.67248,0.71662 -18.19433,-8.76577 -18.15623,-14.56512c0.00166,-0.25209 0.02193,-0.50225 0.05989,-0.75017c0.05028,1.85851 0.71661,3.82514 1.40096,5.22438c0.07073,0.14461 0.14518,0.2886 0.22325,0.43192c1.00141,4.08759 4.51575,7.1886 8.81225,7.57224c3.27032,1.48162 6.84743,2.15897 9.9009,1.54003c5.26603,-1.06744 10,-1.70851 10,-10c0,-3.35928 -2.62464,-6.37464 -5,-8.75c-1.38466,-1.38466 -4.05591,-0.25092 -5.74007,-1.25c-0.84258,-1.83582 -2.22474,-3.37254 -3.94343,-4.40709c0.88602,-0.09259 1.76887,-0.13812 2.6362,-0.13241c3.11732,0.0205 6.14607,0.81919 8.72298,2.11118c-0.00599,0.14203 -0.00901,0.28483 -0.00901,0.42833c0,4.66215 3.19042,8.57914 7.50709,9.68678c0.03224,0.63214 0.02253,1.68633 -0.24072,2.92746c-2.5808,1.45358 -4.45128,4.01985 -4.96071,7.04806c-2.44301,1.56047 -6.01167,2.70984 -11.21338,2.88428z" data-paper-data="{&quot;index&quot;:null}" fill="url(#color-12)" stroke="#ed6b00" stroke-width="0"/></g><path d="M247.954,357.78892c0,0 2.2667,-0.69008 3.36738,-0.36129c1.23902,0.3702 3.70154,2.47245 3.70154,2.47245" data-paper-data="{&quot;index&quot;:null}" fill="none" stroke="#191412" stroke-width="1.5" stroke-linecap="round"/><path d="M233.434,360.45421c0,0 -1.19572,1.76641 -2.24652,2.11033c-1.18292,0.38709 -4.50171,0.09882 -4.50171,0.09882" data-paper-data="{&quot;index&quot;:null}" fill="none" stroke="#191412" stroke-width="1.5" stroke-linecap="round"/><g><path d="M262.63654,495.63603c0,0 -14.38685,-37.27454 -17.76,-43.35427c-1.10299,-1.98793 -5.72232,-0.71938 -5.72232,-0.71938c0,0 -6.39705,-4.91764 -1.02289,-6.55987c4.54206,-1.38796 15.53439,-1.21264 15.53439,-1.21264l20.82341,48.22419z" data-paper-data="{&quot;index&quot;:null}" fill="#4a433c" stroke="#000000" stroke-width="0" stroke-linecap="butt"/><path d="M286.18817,499.78238c-0.87792,0.26839 -3.90993,1.21688 -6.99748,2.02996c-1.87737,0.49429 -3.09665,-0.05416 -4.54371,0.15671c-1.82164,0.26529 -4.25233,1.65646 -5.59671,1.75717c-2.4774,0.18556 -3.86892,-0.07739 -3.86892,-0.07739c0,0 -0.86262,-1.39696 -1.14063,-2.21938c-0.37456,-1.10817 -0.90481,-3.83172 -0.90481,-3.83172c0,0 8.73466,-2.86288 12.25382,-3.61379c2.08235,-0.44432 6.57324,-0.96131 6.57324,-0.96131c0,0 2.44064,0.25105 2.95028,0.78722c0.62443,0.65647 2.19301,2.55003 2.19301,2.55003c0,0 0.30683,3.04792 -0.91781,3.42219z" data-paper-data="{&quot;index&quot;:null}" fill="#140d0d" stroke="#000000" stroke-width="0" stroke-linecap="butt"/><path d="M284.62175,496.09176c-0.3676,0.11233 1.76499,2.05419 -3.27409,3.15918c-4.75874,1.04363 -4.64966,-0.50324 -6.322,-0.12273c-3.4966,0.79561 -3.56304,2.05235 -5.11289,2.27828c-0.53981,0.07866 -0.8111,0.06244 -3.08209,-0.62947c-1.5619,-0.47579 -1.7784,-2.29242 -2.95092,-2.95121c-1.71276,-0.96224 -2.05083,-2.42712 -2.05083,-2.42712l-1.49241,-4.4792c0,0 1.71897,3.04827 3.33468,3.88941c1.44554,0.75274 3.4229,-1.0764 4.13918,-1.29553c1.25427,-0.38366 -2.49936,-4.52834 -1.29172,-4.86775c0.64929,-0.18263 5.40757,-2.03154 5.40757,-2.03154c0,0 1.8024,5.24628 2.15646,5.17065c2.08235,-0.44432 7.11201,-1.12581 7.11201,-1.12581c0,0 2.44064,0.25105 2.95025,0.78709c0.62443,0.65647 2.27302,4.09648 2.27302,4.09648c0,0 -0.57126,0.17472 -1.79585,0.54887z" data-paper-data="{&quot;index&quot;:null}" fill="#1f261f" stroke="#000000" stroke-width="0" stroke-linecap="butt"/><path d="M272.22822,495.12022l3.45704,-2.82366" fill="none" stroke="#ffb5b5" stroke-width="0.5" stroke-linecap="round"/><path d="M275.26636,494.78107l3.11293,-3.3075" fill="none" stroke="#bffdff" stroke-width="0.5" stroke-linecap="round"/><path d="M278.60869,494.15232l1.49643,-2.81341" fill="none" stroke="#eaffc1" stroke-width="0.5" stroke-linecap="round"/><path d="M268.6765,489.92226l3.1228,-1.34698" fill="none" stroke="#8d967b" stroke-width="0.5" stroke-linecap="round"/><path d="M272.48754,489.5431l-2.70875,1.41689" fill="none" stroke="#767796" stroke-width="0.5" stroke-linecap="round"/></g><g><path d="M206.79518,494.7985l16.85937,-49.74879c0,0 10.94233,-1.06288 15.58156,-0.04637c5.4894,1.20267 -0.48945,6.62123 -0.48945,6.62123c0,0 -4.70675,-0.89131 -5.64554,1.17938c-2.87078,6.33229 -14.1994,44.64724 -14.1994,44.64724z" fill="#413a4a" stroke="#000000" stroke-width="0" stroke-linecap="butt"/><path d="M228.44063,507.55777c0,0 -1.22654,2.80719 -2.47744,2.53305c-0.8967,-0.1964 -4.00429,-0.85574 -7.09443,-1.6605c-1.87858,-0.48925 -2.67274,-1.56495 -4.03722,-2.09049c-1.71803,-0.66154 -4.51828,-0.64051 -5.73956,-1.21167c-2.25033,-1.05239 -3.33426,-1.96366 -3.33426,-1.96366c0,0 -0.06726,-1.64032 0.09345,-2.49358c0.21659,-1.14969 1.08947,-3.78321 1.08947,-3.78321c0,0 9.01655,1.78592 12.45222,2.85627c2.03294,0.63341 6.20059,2.3838 6.20059,2.3838c0,0 2.00417,1.41503 2.18569,2.13224c0.22234,0.87829 0.66156,3.29776 0.66156,3.29776z" data-paper-data="{&quot;index&quot;:null}" fill="#12140d" stroke="#000000" stroke-width="0" stroke-linecap="butt"/><path d="M228.24112,506.50801c0,0 -0.58347,-0.12781 -1.83442,-0.40183c-0.37564,-0.0822 0.53168,2.65574 -4.40252,1.14881c-4.65953,-1.42301 -3.80615,-2.71781 -5.45029,-3.20568c-3.43762,-1.02022 -4.1117,0.0424 -5.57321,-0.5202c-0.50904,-0.19595 -0.73753,-0.34337 -2.378,-2.05947c-1.1281,-1.18019 -0.42649,-2.86988 -1.12569,-4.01876c-1.02117,-1.67835 -0.59804,-3.12081 -0.59804,-3.12081l0.89457,-4.6357c0,0 0.00419,3.49953 1.00012,5.02478c0.89106,1.36465 3.51099,0.73955 4.24276,0.89956c1.28128,0.28041 0.04113,-5.17196 1.26,-4.87606c0.65546,0.15914 5.70923,0.8798 5.70923,0.8798c0,0 -1.00044,5.45622 -0.65468,5.564c2.03291,0.63328 6.75078,2.50447 6.75078,2.50447c0,0 2.00417,1.41503 2.18569,2.13224c0.22234,0.87829 -0.02679,4.68481 -0.02679,4.68481z" data-paper-data="{&quot;index&quot;:null}" fill="#1e1e26" stroke="#000000" stroke-width="0" stroke-linecap="butt"/><path d="M220.47754,498.41806l-4.3972,0.76673" fill="none" stroke="#c1ffce" stroke-width="0.5" stroke-linecap="round"/><path d="M223.229,499.02099l-4.33439,1.35719" fill="none" stroke="#eaffc1" stroke-width="0.5" stroke-linecap="round"/><path d="M224.79959,499.7495l-2.68347,1.71891" fill="none" stroke="#ffb5b5" stroke-width="0.5" stroke-linecap="round"/><path d="M218.91427,493.26966l-3.38209,-0.35649" fill="none" stroke="#7d967f" stroke-width="0.5" stroke-linecap="round"/><path d="M215.98452,494.35788l3.0554,0.09274" fill="none" stroke="#966262" stroke-width="0.5" stroke-linecap="round"/></g><g stroke-width="0" stroke-linecap="butt"><path d="M222.98843,447.10697c0,0 0.3155,-8.60806 -0.43464,-16.95108c-0.50969,-5.669 -2.10443,-10.79137 -2.32187,-14.65545c-0.40821,-7.25262 -0.18967,-20.72585 -0.18967,-20.72585c0,0 5.72303,-0.868 8.47206,-0.28269c3.4995,0.74495 10.82192,4.38998 10.82192,4.38998c0,0 5.71608,-3.3239 8.6834,-3.94914c3.13099,-0.65958 9.63788,0.0894 9.63788,0.0894c0,0 -0.20081,14.2729 -0.48024,19.5971c-0.24729,4.71078 -1.44256,9.8525 -1.94339,16.82565c-0.51636,7.18696 -0.33504,16.13726 -0.33504,16.13726c0,0 -4.26158,-1.21938 -8.62006,-1.35376c-1.97935,-0.06103 -2.78423,1.53986 -4.65532,1.77401c-1.49557,0.18732 -4.07608,-0.97609 -5.50809,-1.04227c-1.08243,-0.05009 -3.15958,-0.84255 -3.92499,-0.8539c-1.54535,-0.02303 -2.51087,1.32358 -4.30538,1.55838c-2.08441,0.27294 -4.8963,-0.55787 -4.8963,-0.55787z" fill="#d1b0b0" stroke="#292e32"/><path d="M243.50422,411.49206l-0.12837,-9.01465l11.82648,0.64128l-0.05317,8.07457z" fill="#f200ff" stroke="none"/><path d="M243.37584,402.47741l6.20638,0.33653c0.52022,0.98535 1.20021,1.87331 2.00548,2.62938c-0.5613,-0.09777 -1.13867,-0.14874 -1.72795,-0.14874c-2.43949,0 -4.67496,0.87352 -6.41068,2.32484z" fill="#eeff00" stroke="none"/><path d="M250.3867,411.31546c0.14662,-3.35428 -1.46616,-6.63094 -4.11524,-8.68104l7.75672,0.4206c-0.83443,1.46039 -1.31129,3.15143 -1.31129,4.95385c0,1.13142 0.1879,2.21895 0.53419,3.23309z" fill="#00ff5f" stroke="none"/><path d="M253.33492,411.2398l-8.32325,0.21358c2.18959,-0.76378 4.03223,-2.26749 5.22838,-4.21156c1.07527,1.02687 2.37916,1.81638 3.82757,2.28444c-0.29499,0.54278 -0.54119,1.11592 -0.7327,1.71354z" fill="#004fff" stroke="none"/><path d="M243.5042,411.49206l-0.12837,-9.01466l2.93237,0.159c-0.83091,1.45811 -1.3056,3.14556 -1.3056,4.94388c0,1.36577 0.2738,2.6676 0.7695,3.85357z" fill="#ff0000" stroke="none"/><path d="M255.18085,406.37696l-0.03172,4.81629l-4.33037,0.11112c0.27277,-0.65951 0.47701,-1.35455 0.60387,-2.07625c1.47049,-0.64085 2.75697,-1.62497 3.75822,-2.85115z" fill="#00efff" stroke="none"/><path d="M255.20231,403.11868l-0.05318,8.07457l-0.29214,0.0075c-0.0827,-3.56058 -2.02645,-6.66101 -4.89628,-8.36628z" fill="#9c00ff" stroke="none"/></g><g stroke="#000000" stroke-width="0" stroke-linecap="butt"><path d="M295.73648,420.1875c0,0 -3.5446,-3.05518 -8.57016,-5.1254c-1.20856,-0.4979 -5.04662,-2.37504 -6.29262,-2.87493c-2.94867,-1.1834 -5.90979,-2.25884 -7.70197,-3.02583c-3.85457,-1.64946 -8.694,-3.84399 -8.694,-3.84399c0,0 -9.3829,-4.51989 -8.94239,-6.05012c2.57583,-8.94956 12.02422,-1.97018 12.02422,-1.97018c0,0 6.95692,3.0292 11.05523,4.78278c1.66797,0.71366 2.58493,2.05218 5.12968,3.2515c1.14061,0.53768 5.72732,3.48378 8.60517,5.16054c4.79138,2.79178 7.95925,4.00339 7.95925,4.00339z" data-paper-data="{&quot;index&quot;:null}" fill="#a3bda9"/><path d="M306.35858,418.03469c-0.197,0.25572 4.93597,2.98016 4.18825,4.11924c-0.3678,0.5603 -3.26484,-1.89948 -4.84535,-1.77318c-0.83677,0.06687 5.96409,2.94029 4.4185,4.0652c-0.53048,0.3861 -4.85801,-2.72812 -6.27652,-2.83485c-0.75929,-0.05711 6.98172,4.08301 6.00761,4.87435c-0.57832,0.46986 -4.38096,-2.59853 -6.49413,-3.30968c-1.02935,-0.34656 4.82855,3.56162 3.96062,4.03134c-0.53129,0.28751 -6.43537,-3.24547 -6.53175,-3.23632c-0.54123,0.05187 2.45656,3.15476 1.38428,2.9878c-1.97626,-0.3076 -3.12639,-2.67604 -4.31883,-4.71256c-0.69657,-1.18984 -2.23606,-2.17639 -2.23606,-2.17639c0,0 0.6544,-2.50302 1.4262,-3.46408c0.7516,-0.93562 3.14598,-2.22809 3.14598,-2.22809c0,0 6.58815,3.11541 6.17061,3.65707z" data-paper-data="{&quot;index&quot;:null}" fill="#6c7378"/></g><g stroke="#000000" stroke-width="0" stroke-linecap="butt"><path d="M178.87923,418.42976c0,0 3.09588,-1.44564 7.55311,-4.74473c2.67711,-1.98155 6.87978,-5.45692 7.97068,-6.0953c2.4335,-1.42374 3.09797,-2.98782 4.71015,-3.83685c3.96134,-2.08609 10.67391,-5.68813 10.67391,-5.68813c0,0 8.99928,-8.37773 14.1073,2.32207c0.81549,1.70821 -8.93481,6.9429 -8.93481,6.9429c0,0 -4.64857,2.60717 -8.37457,4.56918c-1.7324,0.91227 -4.63968,2.19744 -7.50817,3.60741c-1.21204,0.59575 -4.86688,2.82187 -6.03964,3.41466c-4.87671,2.46493 -7.94155,6.05406 -7.94155,6.05406z" fill="#b8bda6"/><path d="M173.02349,422.88044c-0.57402,-0.62142 5.71525,-4.33439 5.71525,-4.33439c0,0 2.86224,1.46189 3.88668,2.53548c1.05229,1.10246 2.34555,3.99468 2.34555,3.99468c0,0 -1.40817,1.16745 -1.86858,2.55799c-0.78808,2.37958 -1.45262,5.14315 -3.48825,5.52998c-1.10458,0.20996 1.35682,-3.43351 0.76675,-3.48552c-0.10499,-0.0093 -5.56531,4.17749 -6.20042,3.85218c-1.03766,-0.53154 4.28413,-5.15222 3.26794,-4.73487c-2.0857,0.8569 -5.4141,4.47256 -6.14293,3.93673c-1.22763,-0.90277 6.04845,-5.82118 5.25183,-5.74337c-1.48817,0.14552 -5.36565,3.82237 -6.02356,3.38276c-1.91662,-1.28058 4.65733,-4.71616 3.74849,-4.78102c-1.71667,-0.1226 -4.22321,2.77391 -4.74888,2.12978c-1.06875,-1.30955 3.76102,-4.54679 3.49002,-4.84027z" data-paper-data="{&quot;index&quot;:null}" fill="#786274"/></g></g></g></svg>