<svg version="1.1" xmlns="http://www.w3.org/2000/svg" xmlns:xlink="http://www.w3.org/1999/xlink" width="641.33536" height="670.70694" viewBox="0,0,641.33536,670.70694"><defs><radialGradient cx="200.38086" cy="159.60876" r="121.5" gradientUnits="userSpaceOnUse" id="color-1"><stop offset="0" stop-color="#f5f5ff"/><stop offset="1" stop-color="#908e93"/></radialGradient><radialGradient cx="266.88086" cy="279.60875" r="124.25" gradientUnits="userSpaceOnUse" id="color-2"><stop offset="0" stop-color="#a09ea3"/><stop offset="1" stop-color="#676568"/></radialGradient><radialGradient cx="94.88086" cy="200.10876" r="119.25" gradientUnits="userSpaceOnUse" id="color-3"><stop offset="0" stop-color="#4b494c"/><stop offset="1" stop-color="#2a292a"/></radialGradient><radialGradient cx="197.32984" cy="172.15979" r="78.36735" gradientUnits="userSpaceOnUse" id="color-4"><stop offset="0" stop-color="#363636"/><stop offset="1" stop-color="#212121"/></radialGradient><radialGradient cx="197.32984" cy="158.657" r="78.36735" gradientUnits="userSpaceOnUse" id="color-5"><stop offset="0" stop-color="#444444"/><stop offset="1" stop-color="#2c2c2c"/></radialGradient><radialGradient cx="195.82418" cy="158.284" r="64.3758" gradientUnits="userSpaceOnUse" id="color-6"><stop offset="0" stop-color="#650000"/><stop offset="1" stop-color="#630000"/></radialGradient><radialGradient cx="195.82418" cy="150.09966" r="64.37579" gradientUnits="userSpaceOnUse" id="color-7"><stop offset="0" stop-color="#c20000"/><stop offset="1" stop-color="#710000"/></radialGradient><radialGradient cx="152.88086" cy="115.59314" r="7.4462" gradientUnits="userSpaceOnUse" id="color-8"><stop offset="0" stop-color="#ff0000"/><stop offset="1" stop-color="#ff0000" stop-opacity="0"/></radialGradient><radialGradient cx="121.38086" cy="257.7598" r="116.37556" gradientUnits="userSpaceOnUse" id="color-9"><stop offset="0" stop-color="#a78ca7"/><stop offset="1" stop-color="#836b7f"/></radialGradient><radialGradient cx="85.13086" cy="283.2598" r="59.11083" gradientUnits="userSpaceOnUse" id="color-10"><stop offset="0" stop-color="#8e778e"/><stop offset="1" stop-color="#8d748a"/></radialGradient><radialGradient cx="94.63086" cy="189.2598" r="29" gradientUnits="userSpaceOnUse" id="color-11"><stop offset="0" stop-color="#857085"/><stop offset="1" stop-color="#756072"/></radialGradient><radialGradient cx="199.13086" cy="249.2598" r="34.61165" gradientUnits="userSpaceOnUse" id="color-12"><stop offset="0" stop-color="#8b7288"/><stop offset="1" stop-color="#907990"/></radialGradient><radialGradient cx="350.27415" cy="-61.26807" r="70.86853" gradientUnits="userSpaceOnUse" id="color-13"><stop offset="0" stop-color="#7c8489"/><stop offset="1" stop-color="#5e6468"/></radialGradient><radialGradient cx="359.33258" cy="-169.18097" r="71.37916" gradientUnits="userSpaceOnUse" id="color-14"><stop offset="0" stop-color="#7c8489"/><stop offset="1" stop-color="#5e6468"/></radialGradient><radialGradient cx="452.65522" cy="-103.27878" r="97.18491" gradientUnits="userSpaceOnUse" id="color-15"><stop offset="0" stop-color="#131415"/><stop offset="1" stop-color="#697075"/></radialGradient><radialGradient cx="463.8964" cy="-28.99909" r="35.2732" gradientUnits="userSpaceOnUse" id="color-16"><stop offset="0" stop-color="#404448"/><stop offset="1" stop-color="#5d6469"/></radialGradient><linearGradient x1="475.01645" y1="-46.1047" x2="511.52484" y2="-28.73237" gradientUnits="userSpaceOnUse" id="color-17"><stop offset="0" stop-color="#666d72"/><stop offset="1" stop-color="#5b6266"/></linearGradient><radialGradient cx="504.91049" cy="-32.1371" r="33.58452" gradientUnits="userSpaceOnUse" id="color-18"><stop offset="0" stop-color="#7d858a"/><stop offset="1" stop-color="#6c7378"/></radialGradient><radialGradient cx="513.76845" cy="-78.87285" r="25.89321" gradientUnits="userSpaceOnUse" id="color-19"><stop offset="0" stop-color="#8e979c"/><stop offset="1" stop-color="#7d858a"/></radialGradient><radialGradient cx="489.72857" cy="-21.86309" r="28.40702" gradientUnits="userSpaceOnUse" id="color-20"><stop offset="0" stop-color="#5c6265"/><stop offset="1" stop-color="#585d61"/></radialGradient><radialGradient cx="508.55645" cy="-69.00126" r="22.60651" gradientUnits="userSpaceOnUse" id="color-21"><stop offset="0" stop-color="#6a7174"/><stop offset="1" stop-color="#676d71"/></radialGradient><radialGradient cx="429.45537" cy="-41.28076" r="36.31447" gradientUnits="userSpaceOnUse" id="color-22"><stop offset="0" stop-color="#404448"/><stop offset="1" stop-color="#5d6469"/></radialGradient><linearGradient x1="440.90368" y1="-58.89133" x2="478.4898" y2="-41.00616" gradientUnits="userSpaceOnUse" id="color-23"><stop offset="0" stop-color="#666d72"/><stop offset="1" stop-color="#5b6266"/></linearGradient><radialGradient cx="471.6802" cy="-44.5114" r="34.57595" gradientUnits="userSpaceOnUse" id="color-24"><stop offset="0" stop-color="#7d858a"/><stop offset="1" stop-color="#6c7378"/></radialGradient><radialGradient cx="480.79965" cy="-92.62681" r="26.65759" gradientUnits="userSpaceOnUse" id="color-25"><stop offset="0" stop-color="#8e979c"/><stop offset="1" stop-color="#7d858a"/></radialGradient><radialGradient cx="456.05012" cy="-33.93411" r="29.24559" gradientUnits="userSpaceOnUse" id="color-26"><stop offset="0" stop-color="#5c6265"/><stop offset="1" stop-color="#585d61"/></radialGradient><radialGradient cx="475.43378" cy="-82.4638" r="23.27386" gradientUnits="userSpaceOnUse" id="color-27"><stop offset="0" stop-color="#6a7174"/><stop offset="1" stop-color="#676d71"/></radialGradient><radialGradient cx="394.60062" cy="-50.70055" r="37.95076" gradientUnits="userSpaceOnUse" id="color-28"><stop offset="0" stop-color="#404448"/><stop offset="1" stop-color="#5d6469"/></radialGradient><linearGradient x1="406.56478" y1="-69.10463" x2="445.84449" y2="-50.41359" gradientUnits="userSpaceOnUse" id="color-29"><stop offset="0" stop-color="#666d72"/><stop offset="1" stop-color="#5b6266"/></linearGradient><radialGradient cx="438.72805" cy="-54.07677" r="36.13389" gradientUnits="userSpaceOnUse" id="color-30"><stop offset="0" stop-color="#7d858a"/><stop offset="1" stop-color="#6c7378"/></radialGradient><radialGradient cx="448.25841" cy="-104.36018" r="27.85874" gradientUnits="userSpaceOnUse" id="color-31"><stop offset="0" stop-color="#8e979c"/><stop offset="1" stop-color="#7d858a"/></radialGradient><radialGradient cx="422.39369" cy="-43.02287" r="30.56337" gradientUnits="userSpaceOnUse" id="color-32"><stop offset="0" stop-color="#5c6265"/><stop offset="1" stop-color="#585d61"/></radialGradient><radialGradient cx="442.65078" cy="-93.73925" r="24.32255" gradientUnits="userSpaceOnUse" id="color-33"><stop offset="0" stop-color="#6a7174"/><stop offset="1" stop-color="#676d71"/></radialGradient><radialGradient cx="359.87333" cy="-178.88576" r="34.5426" gradientUnits="userSpaceOnUse" id="color-34"><stop offset="0" stop-color="#555b5e"/><stop offset="1" stop-color="#4a4e51"/></radialGradient><radialGradient cx="294.567" cy="-195.77389" r="19.45007" gradientUnits="userSpaceOnUse" id="color-35"><stop offset="0" stop-color="#44494a"/><stop offset="1" stop-color="#3d4243"/></radialGradient><radialGradient cx="542.86714" cy="-228.723" r="105.90619" gradientUnits="userSpaceOnUse" id="color-36"><stop offset="0" stop-color="#a3bda9"/><stop offset="1" stop-color="#647463"/></radialGradient></defs><g transform="translate(10.5,290.22254)"><g data-paper-data="{&quot;isPaintingLayer&quot;:true}" fill-rule="nonzero" stroke-linejoin="miter" stroke-miterlimit="10" stroke-dasharray="" stroke-dashoffset="0" style="mix-blend-mode: normal"><path d="M-10.5,368.50004v-376h501v376z" fill="#000000" stroke="none" stroke-width="0" stroke-linecap="butt"/><g><path d="M152.88086,115.59313l7.5,20" fill="none" stroke="#444444" stroke-width="3.5" stroke-linecap="round"/><path d="M90.76172,307.55082l6.5,-172.5l120,-7l116.5,134z" fill="url(#color-1)" stroke="none" stroke-width="NaN" stroke-linecap="butt"/><path d="M91.38086,372.80082l-0.5,-66l243.5,-45l5,62.5z" fill="url(#color-2)" stroke="none" stroke-width="0" stroke-linecap="butt"/><path d="M89.38086,183.77543l7.5,-49l-5,238z" fill="url(#color-3)" stroke="none" stroke-width="0" stroke-linecap="butt"/><path d="M261.61555,189.60876c0,24.85281 -35.08625,45 -78.36735,45c-43.28109,0 -78.36735,-20.14719 -78.36735,-45c0,-24.85281 35.08625,-45 78.36735,-45c43.28109,0 78.36735,20.14719 78.36735,45z" fill="url(#color-4)" stroke="none" stroke-width="0" stroke-linecap="butt"/><path d="M261.61555,175.15421c0,23.49721 -35.08626,42.54546 -78.36735,42.54546c-43.28109,0 -78.36735,-19.04825 -78.36735,-42.54545c0,-23.49721 35.08626,-42.54545 78.36735,-42.54545c43.28109,0 78.36735,19.04825 78.36735,42.54545z" fill="url(#color-5)" stroke="none" stroke-width="0" stroke-linecap="butt"/><path d="M248.63245,170.24974c0,17.04297 -28.82202,30.85902 -64.3758,30.85902c-35.55377,0 -64.37579,-13.81606 -64.37579,-30.85902c0,-17.04297 28.82201,-30.85902 64.37579,-30.85902c35.55378,0 64.3758,13.81606 64.3758,30.85902z" fill="url(#color-6)" stroke="none" stroke-width="0" stroke-linecap="butt"/><path d="M248.63245,162.67548c0,17.91189 -28.82203,32.43235 -64.3758,32.43235c-35.55377,0 -64.37579,-14.52045 -64.37579,-32.43235c0,-17.91189 28.82202,-32.43234 64.37579,-32.43234c35.55377,0 64.3758,14.52046 64.3758,32.43235z" fill="url(#color-7)" stroke="none" stroke-width="0" stroke-linecap="butt"/><text transform="translate(133.08717,157.92786) rotate(-5.35873) scale(0.42354,0.24468) skewX(14.63463)" font-size="40" xml:space="preserve" fill="#ffffff" fill-rule="nonzero" stroke="none" stroke-width="1" stroke-linecap="butt" stroke-linejoin="miter" stroke-miterlimit="10" stroke-dasharray="" stroke-dashoffset="0" font-family="Sans Serif" font-weight="normal" text-anchor="start" style="mix-blend-mode: normal"><tspan x="0" dy="0">EMERGENCY</tspan><tspan x="0" dy="46.15px">    ENGINE</tspan><tspan x="0" dy="46.15px">  IGNITION</tspan></text><path d="M160.20848,114.26953c0.85353,3.23877 -1.73523,6.4569 -5.78216,7.18791c-4.04693,0.731 -8.01955,-1.30193 -8.87308,-4.54069c-0.85353,-3.23877 1.73523,-6.4569 5.78216,-7.18791c4.04693,-0.731 8.01955,1.30193 8.87308,4.54069z" fill="url(#color-8)" stroke="none" stroke-width="0" stroke-linecap="butt"/></g><path d="M35.92058,380.48441c0,0 -24.18868,-37.14783 -24.66984,-105.72336c-0.11715,-16.6963 8.97366,-20.04857 8.98746,-22.32577c0.011,-1.81384 -0.01669,-9.50867 1.27881,-16.64788c1.8481,-10.18443 12.98757,-8.49653 12.8416,-24.13846c4.56392,-17.33151 3.06536,-27.41031 9.56197,-40.83119c2.06361,-4.26306 11.896,-13.01017 23.76376,-17.52334c13.14768,-4.99991 29.83875,-5.56112 29.83875,-5.56112l-2.93585,62.41779c0,0 -5.65025,27.06307 1.67254,38.03191c6.48987,9.7212 37.47733,13.63785 69.50195,4.43541c3.12181,-0.89706 8.7836,-2.38705 14.15827,-4.77033c7.10852,-3.15211 14.46405,-8.99219 22.15308,-11.90166c9.20954,-3.48481 16.6607,-6.43675 23.01731,-2.12266c9.34212,6.14432 6.08907,10.47146 1.94463,17.03341c-3.93633,6.23244 -8.43198,14.77459 -12.74325,17.95742c-6.20073,4.23619 -10.01383,12.65906 -17.34255,17.54769c-5.60341,3.73776 -18.71594,11.24779 -23.84737,15.65483c-11.79248,10.12777 -17.03147,14.8607 -23.72922,26.73805c-12.57527,22.30016 -9.61872,47.72925 -9.61872,47.72925z" fill="url(#color-9)" stroke="none" stroke-width="0" stroke-linecap="butt"/><path d="M12.63086,310.7598l-1,-27c0,0 3.67789,-5.31338 10.64531,-10.81601c7.37691,-5.82603 18.19937,-11.9247 23.25892,-14.40117c9.99071,-4.8901 21.59577,-6.28282 21.59577,-6.28282c0,0 4.10485,-0.00232 5.94421,2.54036c7.70356,10.64913 25.29112,41.12821 31.55746,55.18184c9.16888,20.56322 19.99833,66.7778 19.99833,66.7778l-90.33598,2.72166c0,0 -9.467,-16.84217 -12.64188,-26.91339c-3.89731,-12.36287 -9.02214,-41.80826 -9.02214,-41.80826z" fill="url(#color-10)" stroke="#000000" stroke-width="0" stroke-linecap="butt"/><path d="M96.63086,166.2598c0,0 -0.3025,24.83166 -1.10151,34.95251c-0.68257,8.64585 -3.39849,23.04749 -3.39849,23.04749c0,0 -5.32495,-13.54927 -5.8198,-20.47716c-0.2997,-4.19573 1.97442,-17.76878 4.46329,-25.66229c2.79303,-8.85816 5.85651,-11.86055 5.85651,-11.86055z" fill="url(#color-11)" stroke="none" stroke-width="0" stroke-linecap="butt"/><path d="M167.13086,258.7598c0,0 8.71887,-4.50006 13.51315,-6.97453c3.01205,-1.5546 12.53086,12.35504 16.42112,10.34717c3.1537,-1.62772 -5.43426,-14.87264 -5.43426,-14.87264c0,0 21.97142,-17.91751 34.18345,-6.68161c4.05395,3.72992 -4.13465,17.69846 -14.24554,24.59053c-3.45168,2.35284 -11.8006,-5.11215 -14.40091,-2.41073c-4.74734,4.93193 2.16543,17.29938 0.963,18.50181c-4.74573,4.74573 -28,16 -28,16c0,0 -11.03178,-10.03724 -12.03804,-16.49407c-0.99358,-6.37547 9.03804,-22.00593 9.03804,-22.00593z" fill="url(#color-12)" stroke="none" stroke-width="0" stroke-linecap="butt"/><g><path d="M278.85936,6.22276l16.0875,-29.89469c0,0 23.53904,-45.18772 25.81829,-43.85728c0.80788,0.47157 16.23514,-25.84955 26.66154,-31.30024c2.66642,-2.69956 33.35593,9.31602 27.07121,19.5974c-7.4085,12.1198 -22.10826,28.8075 -24.82226,33.16633c-8.22164,13.2044 -26.10476,39.10206 -26.10476,39.10206l-18.6143,29.55517c0,0 -6.78055,13.37651 -21.81696,3.88484c-11.87657,-7.49703 -4.28024,-20.2536 -4.28024,-20.2536z" fill="url(#color-13)" stroke="none" stroke-width="0" stroke-linecap="butt"/><path d="M320.40033,-4.69976l-26.96375,-13.84681" fill="none" stroke="#2d3032" stroke-width="2" stroke-linecap="round"/><path d="M321.08163,-67.20382l28.71775,17.9741" fill="none" stroke="#2d3032" stroke-width="2" stroke-linecap="round"/><path d="M279.80309,-169.78164c-15.13621,-11.41713 -22.97447,-36.46718 -19.65189,-41.80337c8.16189,-13.10831 21.61172,0.71008 21.61172,0.71008c0,0 11.40306,19.15912 33.43933,26.79509c16.18554,5.60859 39.48471,3.71259 49.16107,4.54667c15.47875,1.33424 33.10356,7.35701 33.10356,7.35701c0,0 -16.1531,19.62164 -19.44424,24.24595c-3.7928,5.32916 -10.01458,15.32902 -10.01458,15.32902c0,0 -13.52095,-9.44388 -20.39059,-11.29668c-7.41832,-2.00076 -21.21289,-2.46969 -28.00409,-4.80316c-16.19681,-5.56526 -20.19312,-6.28352 -39.81028,-21.0806z" fill="url(#color-14)" stroke="#595f62" stroke-width="0" stroke-linecap="butt"/><path d="M347.3856,-98.74032c-1.47955,-2.61827 11.38705,-25.61162 18.56589,-35.60145c6.17851,-8.5978 17.87946,-24.3067 17.87946,-24.3067c0,0 37.11389,-45.04218 51.03196,-47.17729c12.11291,-1.85819 36.79233,-11.54166 82.34642,19.14949c14.70858,9.90961 59.91451,15.75249 45.59774,57.32326c-7.80004,22.64852 -14.93574,31.82741 -14.93574,31.82741c0,0 -15.80101,57.26665 -40.0564,62.67237c-12.186,2.71585 -122.93966,-48.36211 -122.93966,-48.36211c0,0 -6.19306,3.37701 -9.65405,1.94376c-6.71605,-2.78121 -22.6565,-8.30361 -27.83561,-17.46876z" fill="url(#color-15)" stroke="none" stroke-width="0" stroke-linecap="butt"/><g stroke="none" stroke-width="0" stroke-linecap="butt"><path d="M437.88434,-1.32521c-2.79797,-9.24084 2.2335,-20.33968 5.62829,-29.56123c3.311,-8.99397 11.68668,-28.9677 11.68668,-28.9677l24.93289,8.37415l-14.58759,34.31178c0,0 -3.7022,27.96016 -8.64465,30.49607c-4.50776,2.31287 -16.21764,-5.41222 -19.01561,-14.65305z" fill="url(#color-16)"/><path d="M472.52042,-40.85924l4.99205,-10.49091l34.82984,16.5736c0,0 0.25829,3.78341 -0.51796,5.41474c-0.87573,1.84038 -4.47409,5.07618 -4.47409,5.07618z" fill="url(#color-17)"/><path d="M447.97478,11.80562c-14.45246,-8.51183 -7.67726,-23.83836 2.73992,-29.5523c10.41717,-5.71393 23.14495,-25.92695 23.14495,-25.92695l40.29658,12.65603c0,0 -28.84275,35.3921 -49.55178,45.07334c-6.33232,2.96028 -14.71705,-1.12369 -16.62965,-2.25012z" fill="url(#color-18)"/><path d="M477.31442,-49.85236c0,0 0.37959,-9.87903 2.0563,-15.86461c1.75702,-6.27225 7.07965,-20.63979 7.07965,-20.63979c0,0 3.08687,-8.18574 19.96409,-4.70983c13.12794,2.70373 10.17117,16.00739 10.17117,16.00739c0,0 0.46785,8.60029 1.15075,17.78835c0.42445,5.71067 1.39411,12.66841 0.98059,14.82707c-1.38646,7.23743 -5.149,11.58086 -5.149,11.58086z" fill="url(#color-19)"/><path d="M458.50215,-13.56258c0,0 7.7155,-7.81059 11.4133,-11.65557c2.89494,-3.01016 4.63202,-8.73305 10.19899,-9.96891c5.56696,-1.23586 7.82469,-0.39389 11.66874,1.43528c1.82586,0.86882 6.41341,1.60389 8.73277,3.84887c2.38607,2.30955 3.47724,4.01981 3.47724,4.01981c0,0 -5.97258,10.66244 -9.3886,14.21443c-4.22191,4.38994 -15.43887,13.08527 -15.43887,13.08527c0,0 -17.2478,16.37206 -27.79719,7.32875c-12.12288,-10.39217 7.13363,-22.30793 7.13363,-22.30793z" fill="url(#color-20)"/><path d="M488.06116,-54.05043c-3.4156,-7.75808 -2.48854,-12.54808 -0.21358,-19.03285c2.02902,-5.78372 6.4179,-14.5553 6.4179,-14.5553c0,0 8.99842,-1.08844 11.77495,-0.16899c3.11288,1.03083 6.00893,6.05809 6.00893,6.05809c0,0 1.07026,7.17582 2.12814,15.96994c0.66351,5.51577 1.46786,12.67409 1.54693,15.96879c0.14021,5.84236 1.11052,5.89945 -3.28379,9.41979c-4.39431,3.52035 -3.93507,3.78872 -9.74996,1.02173c-4.4412,-2.11332 -11.2139,-6.92312 -14.62951,-14.68119z" fill="url(#color-21)"/></g><g stroke="none" stroke-width="0" stroke-linecap="butt"><path d="M402.67544,-12.78995c-2.88057,-9.51363 2.29943,-20.94012 5.79443,-30.43388c3.40875,-9.25946 12.03168,-29.82284 12.03168,-29.82284l25.66891,8.62134l-15.01822,35.32467c0,0 -3.8115,28.78556 -8.89985,31.39632c-4.64082,2.38114 -16.69639,-5.57198 -19.57695,-15.08562z" fill="url(#color-22)"/><path d="M438.33398,-53.49102l5.13941,-10.80061l35.85802,17.06286c0,0 0.26593,3.8951 -0.53324,5.57458c-0.90159,1.8947 -4.60617,5.22603 -4.60617,5.22603z" fill="url(#color-23)"/><path d="M413.06374,0.72851c-14.87908,-8.7631 -7.90389,-24.54207 2.8208,-30.42468c10.72469,-5.88261 23.82819,-26.69233 23.82819,-26.69233l41.48614,13.02964c0,0 -29.69421,36.43688 -51.01456,46.40392c-6.51925,3.04768 -15.15151,-1.15686 -17.12056,-2.31654z" fill="url(#color-24)"/><path d="M443.26948,-62.74963c0,0 0.3908,-10.17066 2.11701,-16.33293c1.80888,-6.45741 7.28864,-21.24908 7.28864,-21.24908c0,0 3.17799,-8.42737 20.55343,-4.84886c13.51547,2.78355 10.47142,16.47993 10.47142,16.47993c0,0 0.48166,8.85418 1.18472,18.31345c0.43698,5.87925 1.43527,13.04239 1.00954,15.26477c-1.42739,7.45108 -5.301,11.92273 -5.301,11.92273z" fill="url(#color-25)"/><path d="M423.90187,-25.38857c0,0 7.94327,-8.04116 11.75022,-11.99964c2.98039,-3.09902 4.76875,-8.99085 10.50006,-10.26319c5.73131,-1.27235 8.05568,-0.40552 12.0132,1.47764c1.87976,0.89447 6.60274,1.65123 8.99056,3.96249c2.4565,2.37773 3.57988,4.13848 3.57988,4.13848c0,0 -6.14888,10.97719 -9.66575,14.63404c-4.34653,4.51954 -15.89463,13.47155 -15.89463,13.47155c0,0 -17.75696,16.85537 -28.61777,7.5451c-12.48075,-10.69895 7.34422,-22.96647 7.34422,-22.96647z" fill="url(#color-26)"/><path d="M454.33348,-67.07161c-3.51643,-7.9871 -2.56201,-12.91851 -0.21988,-19.59471c2.08892,-5.95445 6.60736,-14.98498 6.60736,-14.98498c0,0 9.26404,-1.12058 12.12255,-0.17399c3.20477,1.06125 6.18632,6.23693 6.18632,6.23693c0,0 1.10185,7.38765 2.19095,16.44137c0.6831,5.67859 1.5112,13.04822 1.5926,16.44019c0.14435,6.01482 1.14331,6.07361 -3.38073,9.69787c-4.52404,3.62427 -4.05123,3.90056 -10.03778,1.05189c-4.57229,-2.17571 -11.54495,-7.12748 -15.06138,-15.11458z" fill="url(#color-27)"/></g><g stroke="none" stroke-width="0" stroke-linecap="butt"><path d="M366.61402,-20.92598c-3.01036,-9.9423 2.40304,-21.88365 6.05553,-31.8052c3.56235,-9.67669 12.57381,-31.16661 12.57381,-31.16661c0,0 10.30624,1.8902 14.66249,3.35331c4.57488,1.53655 12.16302,5.6565 12.16302,5.6565l-15.69491,36.91636c0,0 -3.98325,30.08259 -9.30087,32.81099c-4.84993,2.48844 -17.4487,-5.82305 -20.45906,-15.76535z" fill="url(#color-28)"/><path d="M403.87929,-63.461l5.37099,-11.28728l37.47374,17.83168c0,0 0.27791,4.07061 -0.55727,5.82576c-0.94221,1.98008 -4.81371,5.46151 -4.81371,5.46151z" fill="url(#color-29)"/><path d="M377.47042,-6.7984c-15.54953,-9.15796 -8.26003,-25.64791 2.9479,-31.79559c11.20793,-6.14768 24.90185,-27.89504 24.90185,-27.89504l43.35545,13.61673c0,0 -31.03218,38.07869 -53.31321,48.49481c-6.813,3.185 -15.83421,-1.20898 -17.89199,-2.42093z" fill="url(#color-30)"/><path d="M409.03718,-73.13678c0,0 0.40841,-10.62893 2.2124,-17.06886c1.89039,-6.74837 7.61706,-22.20654 7.61706,-22.20654c0,0 3.32119,-8.80711 21.47954,-5.06735c14.12447,2.90897 10.94326,17.2225 10.94326,17.2225c0,0 0.50337,9.25313 1.2381,19.13864c0.45666,6.14416 1.49994,13.63005 1.05502,15.95257c-1.4917,7.78681 -5.53985,12.45996 -5.53985,12.45996z" fill="url(#color-31)"/><path d="M388.7969,-34.09228c0,0 8.30118,-8.40348 12.27967,-12.54033c3.11469,-3.23866 4.98363,-9.39596 10.97318,-10.72563c5.98955,-1.32967 8.41865,-0.42381 12.5545,1.54422c1.96445,0.93477 6.90025,1.72563 9.39567,4.14104c2.56719,2.48487 3.74119,4.32496 3.74119,4.32496c0,0 -6.42595,11.47182 -10.10128,15.29343c-4.54238,4.72318 -16.61082,14.07856 -16.61082,14.07856c0,0 -18.55707,17.61485 -29.90725,7.88506c-13.04311,-11.18103 7.67514,-24.00131 7.67514,-24.00131z" fill="url(#color-32)"/><path d="M420.59971,-77.65352c-3.67488,-8.34698 -2.67744,-13.5006 -0.22979,-20.47762c2.18304,-6.22276 6.90507,-15.66018 6.90507,-15.66018c0,0 9.68146,-1.17106 12.66877,-0.18183c3.34917,1.10907 6.46506,6.51795 6.46506,6.51795c0,0 1.1515,7.72053 2.28968,17.1822c0.71388,5.93446 1.57929,13.63616 1.66437,17.18096c0.15086,6.28585 1.19482,6.34728 -3.53306,10.13485c-4.72789,3.78757 -4.23378,4.07631 -10.49007,1.09929c-4.77831,-2.27374 -12.06514,-7.44864 -15.74003,-15.79563z" fill="url(#color-33)"/></g><path d="M302.90164,-155.33908l4.37158,-16.82592" fill="none" stroke="#2d3032" stroke-width="2" stroke-linecap="round"/><path d="M322.1094,-182.07248c0,0 9.28894,1.17043 14.46325,1.6724c5.22546,0.50693 15.2382,-0.42743 25.16138,0.30833c12.08245,0.89586 24.74941,4.54192 24.74941,4.54192c0,0 18.81513,6.65543 -21.33178,-0.81653c-8.86493,-1.64991 -20.30869,2.30919 -25.18,1.65635c-27.82419,-3.7289 -17.86227,-7.36247 -17.86227,-7.36247z" fill="url(#color-34)" stroke="none" stroke-width="0" stroke-linecap="butt"/><path d="M293.82367,-197.32456c4.95466,5.81715 15.51839,10.8652 15.51839,10.8652c0,0 -3.79325,5.35863 -18.5269,-8.93888c-2.55594,-2.48029 -3.51521,-7.44112 -6.63761,-10.65101c-8.26982,-8.50153 -6.44571,-7.66092 -6.44571,-7.66092c0,0 1.94654,-0.222 16.09183,16.38562z" fill="url(#color-35)" stroke="none" stroke-width="0" stroke-linecap="butt"/><path d="M416.81215,-196.531l57.54572,-93.69154l156.47749,63.0921l-69.30285,106.01102c0,0 -5.51836,-4.9594 -14.81576,-8.44248c-9.35905,-3.50618 -22.54504,-5.55625 -37.0596,-11.68411c-9.78653,-4.13175 -20.2909,-14.25179 -29.77146,-18.60772c-15.04617,-6.91309 -31.3724,-12.35768 -38.93679,-16.29937c-14.03962,-7.31583 -24.13674,-20.37789 -24.13674,-20.37789z" fill="url(#color-36)" stroke="#000000" stroke-width="0" stroke-linecap="butt"/></g></g></g></svg>