<svg version="1.1" xmlns="http://www.w3.org/2000/svg" xmlns:xlink="http://www.w3.org/1999/xlink" width="59" height="59.70662" viewBox="0,0,59,59.70662"><defs><linearGradient x1="240" y1="151.64669" x2="240" y2="208.35331" gradientUnits="userSpaceOnUse" id="color-1"><stop offset="0" stop-color="#191919"/><stop offset="1" stop-color="#050505"/></linearGradient><linearGradient x1="240" y1="151.64669" x2="240" y2="208.35331" gradientUnits="userSpaceOnUse" id="color-2"><stop offset="0" stop-color="#cccccc"/><stop offset="1" stop-color="#898989"/></linearGradient><radialGradient cx="240" cy="180.00001" r="26.8571" gradientUnits="userSpaceOnUse" id="color-3"><stop offset="0" stop-color="#ffffff" stop-opacity="0.35484"/><stop offset="1" stop-color="#ffffff" stop-opacity="0"/></radialGradient><linearGradient x1="240" y1="153.29212" x2="240" y2="206.7079" gradientUnits="userSpaceOnUse" id="color-4"><stop offset="0" stop-color="#cccccc"/><stop offset="1" stop-color="#898989"/></linearGradient><radialGradient cx="227.29532" cy="177.02032" r="12.36703" gradientUnits="userSpaceOnUse" id="color-5"><stop offset="0" stop-color="#750b00"/><stop offset="1" stop-color="#e34000"/></radialGradient><linearGradient x1="228.50994" y1="173.8893" x2="228.50994" y2="194.6657" gradientUnits="userSpaceOnUse" id="color-6"><stop offset="0" stop-color="#348317"/><stop offset="1" stop-color="#3c5b0d"/></linearGradient><radialGradient cx="244.07914" cy="176.3425" r="12.30379" gradientUnits="userSpaceOnUse" id="color-7"><stop offset="0" stop-color="#900e00"/><stop offset="1" stop-color="#ff4800"/></radialGradient><linearGradient x1="254.4586" y1="180.97772" x2="254.4586" y2="192.9547" gradientUnits="userSpaceOnUse" id="color-8"><stop offset="0" stop-color="#cccccc"/><stop offset="1" stop-color="#898989"/></linearGradient><radialGradient cx="231.93295" cy="169.79017" r="18.99221" gradientUnits="userSpaceOnUse" id="color-9"><stop offset="0" stop-color="#6f0b00"/><stop offset="1" stop-color="#d53c00"/></radialGradient><linearGradient x1="239.4415" y1="158.97917" x2="239.4415" y2="164.11216" gradientUnits="userSpaceOnUse" id="color-10"><stop offset="0" stop-color="#cccccc"/><stop offset="1" stop-color="#898989"/></linearGradient></defs><g transform="translate(-210.5,-150.14669)"><g data-paper-data="{&quot;isPaintingLayer&quot;:true}" fill-rule="nonzero" stroke-linecap="butt" stroke-linejoin="miter" stroke-miterlimit="10" stroke-dasharray="" stroke-dashoffset="0" style="mix-blend-mode: normal"><path d="M212,208.35331v-56.70662h56v56.70662z" fill="url(#color-1)" stroke="url(#color-2)" stroke-width="3"/><path d="M266.8571,180.00001c0,14.75036 -12.02433,26.70789 -26.8571,26.70789c-14.83277,0 -26.8571,-11.95753 -26.8571,-26.70789c0,-14.75036 12.02433,-26.70789 26.8571,-26.70789c14.83277,0 26.8571,11.95753 26.8571,26.70789z" fill="url(#color-3)" stroke="url(#color-4)" stroke-width="0"/><path d="M215.27327,163.339v-8.69862h21.02811v8.69862z" fill-opacity="0.53453" fill="#000000" stroke="#a60000" stroke-width="0"/><text transform="translate(215.70712,161.61518) scale(0.21839,0.21839)" font-size="40" xml:space="preserve" fill="#ffffff" fill-rule="nonzero" stroke="none" stroke-width="1" stroke-linecap="butt" stroke-linejoin="miter" stroke-miterlimit="10" stroke-dasharray="" stroke-dashoffset="0" font-family="Serif" font-weight="normal" text-anchor="start" style="mix-blend-mode: normal"><tspan x="0" dy="0">Syaul</tspan></text><path d="M218.07126,189.77713l3.48222,-19.79869l18.10886,2.19985l1.32503,21.26527z" fill="url(#color-5)" stroke="url(#color-6)" stroke-width="0"/><path d="M240.98738,193.44356l-1.54587,-21.50969l19.21306,-3.66643l3.27419,19.06541z" fill="url(#color-7)" stroke="url(#color-8)" stroke-width="0"/><path d="M221.1118,170.22287l21.42146,-3.66643l16.56298,1.711l-19.43389,3.91085z" fill="url(#color-9)" stroke="url(#color-10)" stroke-width="0"/></g></g></svg>