<svg version="1.1" xmlns="http://www.w3.org/2000/svg" xmlns:xlink="http://www.w3.org/1999/xlink" width="56.15056" height="105.37592" viewBox="0,0,56.15056,105.37592"><defs><linearGradient x1="239.74787" y1="156.06832" x2="239.74787" y2="162.91937" gradientUnits="userSpaceOnUse" id="color-1"><stop offset="0" stop-color="#c28b5f"/><stop offset="1" stop-color="#ffb87d"/></linearGradient><radialGradient cx="235.71182" cy="133.41612" r="13.11833" gradientUnits="userSpaceOnUse" id="color-2"><stop offset="0" stop-color="#ffd9ba"/><stop offset="1" stop-color="#ffb87d"/></radialGradient><radialGradient cx="230.66292" cy="135.33798" r="10.07074" gradientUnits="userSpaceOnUse" id="color-3"><stop offset="0" stop-color="#303030"/><stop offset="1" stop-color="#292929"/></radialGradient><radialGradient cx="247.13552" cy="132.39734" r="2.65078" gradientUnits="userSpaceOnUse" id="color-4"><stop offset="0" stop-color="#787878"/><stop offset="1" stop-color="#292929"/></radialGradient><radialGradient cx="235.95292" cy="134.39998" r="4.17314" gradientUnits="userSpaceOnUse" id="color-5"><stop offset="0" stop-color="#a7a7a7"/><stop offset="1" stop-color="#292929"/></radialGradient></defs><g transform="translate(-212.36478,-129.64767)"><g data-paper-data="{&quot;isPaintingLayer&quot;:true}" fill-rule="nonzero" stroke-linejoin="miter" stroke-miterlimit="10" stroke-dasharray="" stroke-dashoffset="0" style="mix-blend-mode: normal"><g><path d="M249.22053,227.40643c0,0 -4.02715,-25.48379 -5.33213,-29.77954c-0.42671,-1.40465 -3.51509,-1.23028 -3.51509,-1.23028c0,0 -3.37162,-3.97233 0.24402,-4.28021c3.05576,-0.26021 9.97178,1.34143 9.97178,1.34143l6.60569,33.26957z" data-paper-data="{&quot;index&quot;:null}" fill="#726f7c" stroke="#000000" stroke-width="0" stroke-linecap="butt"/><path d="M263.85313,233.31949c-0.59062,0.0503 -2.63342,0.23795 -4.69307,0.33249c-1.25222,0.05748 -1.94771,-0.45417 -2.88984,-0.51731c-1.1861,-0.07947 -2.90923,0.46901 -3.77167,0.35024c-1.58915,-0.21884 -2.43206,-0.57354 -2.43206,-0.57354c0,0 -0.35514,-0.99887 -0.41912,-1.55585c-0.08618,-0.75041 -0.05152,-2.54181 -0.05152,-2.54181c0,0 5.9027,-0.62265 8.22624,-0.61945c1.37491,0.00189 4.28016,0.28467 4.28016,0.28467c0,0 1.50673,0.48952 1.75581,0.89709c0.30507,0.49916 1.03865,1.90741 1.03865,1.90741c0,0 -0.21968,1.96588 -1.04361,2.03603z" data-paper-data="{&quot;index&quot;:null}" fill="#141415" stroke="#000000" stroke-width="0" stroke-linecap="butt"/><path d="M263.36475,230.77695c-0.24732,0.02106 0.83577,1.53628 -2.49556,1.55044c-3.14584,0.01338 -2.86729,-0.94836 -3.97456,-0.93497c-2.31534,0.02801 -2.52783,0.81244 -3.53688,0.74483c-0.35141,-0.02355 -0.52058,-0.07063 -1.86049,-0.81544c-0.92151,-0.51224 -0.81185,-1.68843 -1.46273,-2.26335c-0.95077,-0.8398 -0.96556,-1.8104 -0.96556,-1.8104l-0.33469,-3.03025c0,0 0.67184,2.15759 1.5777,2.90784c0.8105,0.67126 2.30695,-0.21527 2.78888,-0.25645c0.84388,-0.0721 -0.96365,-3.1978 -0.15525,-3.24833c0.43468,-0.02717 3.68947,-0.54911 3.68947,-0.54911c0,0 0.42632,3.55655 0.66015,3.55687c1.37491,0.00189 4.64261,0.25379 4.64261,0.25379c0,0 1.50673,0.48952 1.75582,0.89709c0.30507,0.49916 0.87931,2.89456 0.87931,2.89456c0,0 -0.38431,0.03272 -1.20823,0.10289z" data-paper-data="{&quot;index&quot;:null}" fill="#252527" stroke="#000000" stroke-width="0" stroke-linecap="butt"/><path d="M258.23774,227.16902l-2.56548,1.31374" fill="none" stroke="#ffffff" stroke-width="0.5" stroke-linecap="round"/><path d="M257.63628,228.68062l2.4138,-1.66592" fill="none" stroke="#ffffff" stroke-width="0.5" stroke-linecap="round"/><path d="M259.83165,228.73708l1.32641,-1.57332" fill="none" stroke="#ffffff" stroke-width="0.5" stroke-linecap="round"/><path d="M256.28902,224.29251l-2.15421,0.42684" fill="none" stroke="#969696" stroke-width="0.5" stroke-linecap="round"/><path d="M254.69012,225.52395l1.90228,-0.52709" fill="none" stroke="#969696" stroke-width="0.5" stroke-linecap="round"/></g><g><path d="M225.75405,228.01346l3.79005,-33.7066c0,0 6.75718,-2.17646 9.824,-2.17363c3.62872,0.00333 0.60239,4.24462 0.60239,4.24462c0,0 -3.09212,0.08545 -3.39943,1.52097c-0.93982,4.39013 -2.81389,30.12201 -2.81389,30.12201z" fill="#726f7c" stroke="#000000" stroke-width="0" stroke-linecap="butt"/><path d="M241.03411,233.08426c0,0 -0.38749,1.93979 -1.21439,1.93903c-0.59276,-0.00055 -2.64412,0.01123 -4.70429,-0.07121c-1.25253,-0.05013 -1.90158,-0.61953 -2.83483,-0.76324c-1.17491,-0.1809 -2.93873,0.21777 -3.7878,0.02547c-1.56452,-0.35432 -2.37391,-0.78 -2.37391,-0.78c0,0 -0.26817,-1.02564 -0.28414,-1.58607c-0.02152,-0.75502 0.16666,-2.53686 0.16666,-2.53686c0,0 5.93435,-0.11411 8.24907,0.08833c1.36969,0.1198 4.23997,0.6507 4.23997,0.6507c0,0 1.45918,0.61695 1.6724,1.04437c0.26114,0.52349 0.87124,1.98947 0.87124,1.98947z" data-paper-data="{&quot;index&quot;:null}" fill="#141415" stroke="#000000" stroke-width="0" stroke-linecap="butt"/><path d="M240.7638,232.44936c0,0 -0.38569,-0.00035 -1.2126,-0.00112c-0.24823,-0.00023 0.70091,1.60229 -2.61934,1.3307c-3.1354,-0.25648 -2.77539,-1.19078 -3.87973,-1.2724c-2.30921,-0.17066 -2.5882,0.59266 -3.58773,0.43873c-0.3481,-0.0536 -0.51261,-0.11501 -1.78369,-0.97199c-0.87417,-0.58938 -0.66405,-1.75183 -1.26323,-2.38046c-0.87524,-0.91827 -0.80673,-1.88655 -0.80673,-1.88655l-0.07356,-3.04781c0,0 0.48432,2.20727 1.3225,3.03245c0.74994,0.7383 2.31691,-0.01661 2.8006,-0.01631c0.84696,0.00054 -0.68584,-3.26869 0.12389,-3.24969c0.43541,0.01021 3.72296,-0.23066 3.72296,-0.23066c0,0 0.11973,3.57999 0.35267,3.60037c1.36968,0.1198 4.60374,0.65104 4.60374,0.65104c0,0 1.45918,0.61695 1.6724,1.04437c0.26115,0.52349 0.62783,2.95931 0.62783,2.95931z" data-paper-data="{&quot;index&quot;:null}" fill="#252527" stroke="#000000" stroke-width="0" stroke-linecap="butt"/><path d="M232.08382,229.50278l2.66871,-1.08889" fill="none" stroke="#ffffff" stroke-width="0.5" stroke-linecap="round"/><path d="M236.5714,228.41556l-2.54778,1.45277" fill="none" stroke="#ffffff" stroke-width="0.5" stroke-linecap="round"/><path d="M237.66252,228.65908l-1.45645,1.45378" fill="none" stroke="#ffffff" stroke-width="0.5" stroke-linecap="round"/><path d="M233.05768,225.38085l-2.18289,0.2405" fill="none" stroke="#969696" stroke-width="0.5" stroke-linecap="round"/><path d="M233.29952,226.10862l-1.94048,0.36199" fill="none" stroke="#969696" stroke-width="0.5" stroke-linecap="round"/></g><path d="M235.91979,162.91937v-6.85104h7.65615v6.85104z" fill="url(#color-1)" stroke="#000000" stroke-width="0" stroke-linecap="butt"/><path d="M229.63979,193.59141c0,0 0.16709,-5.5597 -0.35268,-10.94382c-0.35317,-3.65847 -1.40473,-6.95919 -1.56162,-9.45339c-0.29447,-4.68133 -0.2105,-13.38223 -0.2105,-13.38223c0,0 3.69178,-0.58477 5.4694,-0.21857c2.26281,0.46615 7.00656,2.78867 7.00656,2.78867c0,0 3.67689,-2.17061 5.59031,-2.58687c2.01891,-0.43921 6.22369,0.01677 6.22369,0.01677c0,0 -0.06905,9.21711 -0.22689,12.65629c-0.13965,3.04285 -0.88957,6.36811 -1.18346,10.87293c-0.3029,4.64296 -0.14784,10.42155 -0.14784,10.42155c0,0 -2.75697,-0.76932 -5.57187,-0.83754c-1.27833,-0.03098 -1.79126,1.00612 -2.99851,1.16532c-0.96496,0.12724 -2.63623,-0.61291 -3.56107,-0.64966c-0.69915,-0.02778 -2.04377,-0.5306 -2.53801,-0.53471c-0.99795,-0.0083 -1.61572,0.86529 -2.77345,1.02464c-1.34484,0.1851 -3.1641,-0.33939 -3.1641,-0.33939z" fill="#ffffff" stroke="#292e32" stroke-width="0" stroke-linecap="butt"/><path d="M252.80944,143.64573c0,7.73092 -5.73774,13.99807 -12.8156,13.99807c-7.07786,0 -12.8156,-6.26715 -12.8156,-13.99807c0,-7.73092 5.73774,-13.99806 12.8156,-13.99806c7.07786,0 12.8156,6.26714 12.8156,13.99806z" fill="url(#color-2)" stroke="none" stroke-width="0" stroke-linecap="butt"/><g stroke-linecap="butt"><path d="M238.22297,145.96886c-0.5265,0.91349 -1.43258,0.38383 -1.43258,0.38383c-0.91393,-0.55722 -2.45095,-1.17574 -2.30203,-2.6961c0.1217,-1.24248 2.13973,-2.33997 3.2068,-2.10706c1.93572,0.42253 3.60144,3.95074 0.5278,4.41932z" fill="#191412" stroke="none" stroke-width="0.5"/><path d="M242.64008,150.48346c0.14423,-0.46863 0.47533,-0.57039 0.71965,-0.57602c0.0776,-0.00492 0.15695,0.00165 0.23587,0.02089c-0.28158,-1.08168 -0.10408,-2.4792 -0.44462,-3.52597c0,0 -0.2501,-0.78449 0.51677,-1.04033c0.76687,-0.25584 1.01697,0.52865 1.01697,0.52865c0.4101,1.30859 0.71193,2.9192 0.68474,4.31641c-0.01019,0.5236 0.25251,1.23107 -0.14241,1.56432c-0.4098,0.34581 -1.06036,-0.06797 -1.59055,-0.10196l-0.46926,-0.15113c-0.09725,-0.03132 -0.18459,-0.07973 -0.25988,-0.14099c-0.1971,-0.14779 -0.41151,-0.42524 -0.26729,-0.89386z" fill="#191412" stroke="none" stroke-width="0.5"/><path d="M250.11191,146.45176c-0.42472,0.9868 -1.15568,0.41464 -1.15568,0.41464c-0.73728,-0.60194 -1.97722,-1.27009 -1.85707,-2.91248c0.09818,-1.3422 1.72614,-2.52778 2.58696,-2.27617c1.56156,0.45643 2.90532,4.26783 0.42578,4.77401z" fill="#191412" stroke="none" stroke-width="0.5"/><path d="M233.3529,135.38663c-0.17005,0.01306 -0.60745,0.05338 -1.08101,0.12809c-0.52481,0.19981 -1.13701,0.40123 -1.60677,0.62441c-0.30204,0.88846 0.76073,1.81827 -0.69014,2.46543c-2.47444,1.10372 -1.68672,-2.06362 -0.85344,-3.04958c1.28665,-1.08794 3.16128,-1.19356 4.77768,-1.47968c2.22645,-0.39412 4.39964,-1.01947 6.59672,-1.12157c0.08373,-0.08501 0.19742,-0.14125 0.32576,-0.15097l0.58683,-0.04437c0.29649,-0.07344 0.61861,-0.14963 0.95687,-0.22118c0.88034,-0.26117 1.93684,-0.38813 2.92062,-0.46624c0.48312,-0.0876 0.93522,-0.12531 1.30808,-0.08635c0.27415,-0.01627 0.52912,-0.03163 0.75689,-0.04886l0.61862,-0.04678c0.28176,-0.02131 0.52744,0.18983 0.54874,0.47159c0.01896,0.25077 -0.1462,0.47296 -0.38141,0.53382l-0.33106,0.09265c0.14321,0.12391 0.27273,0.26511 0.3863,0.42536l0.23585,-0.11566l0.28911,0.58949c0.03091,0.05949 0.05055,0.12607 0.05593,0.19712c0.02131,0.28176 -0.18983,0.52744 -0.47158,0.54873c-0.08568,0.00647 -0.16803,-0.00853 -0.24176,-0.0405l-0.50408,-0.20613l0.00607,-0.01483l-0.04781,-0.00447c-0.3588,-0.22898 -0.72469,-0.40307 -1.09089,-0.5227c-0.55912,-0.02819 -1.1467,-0.0979 -1.74581,-0.1556c-1.01707,0.15973 -1.94486,0.77427 -2.61733,1.83311c0,0 -0.27523,0.43128 -0.7065,0.15604c-0.43127,-0.27523 -0.15604,-0.70651 -0.15604,-0.70651c0.05884,-0.0918 0.11951,-0.18105 0.1819,-0.26772l-0.28521,0.08639c-0.03819,0.01244 -0.07848,0.02055 -0.12032,0.02371c-0.28176,0.02131 -0.52744,-0.18983 -0.54873,-0.47159c-0.01079,-0.1426 0.03797,-0.27595 0.12529,-0.37565c-0.24508,-0.00307 -0.47675,0.00691 -0.67434,0.05261c-1.38003,0.31921 -3.49383,0.40123 -5.49102,0.67808c0.0077,0.2414 -0.15453,0.45215 -0.38263,0.51117l-0.60014,0.16794l-0.00543,-0.01939l-0.0075,0.00183z" fill="url(#color-3)" stroke="none" stroke-width="0.5"/><path d="M248.49959,131.87547c2.71281,-0.24476 2.68884,-0.20441 2.87705,1.62874c0.18821,1.83315 -0.83074,3.35013 -2.2759,3.38828c-1.44517,0.03816 -2.76929,-1.41698 -2.9575,-3.25013c-0.18821,-1.83315 -0.18749,-1.53738 2.35635,-1.76689z" data-paper-data="{&quot;index&quot;:null}" fill="url(#color-4)" stroke="#000000" stroke-width="0"/><path d="M241.84129,134.45979c0.32856,1.99641 -1.2315,3.91541 -3.48449,4.28618c-2.25298,0.37077 -4.34573,-0.94706 -4.67428,-2.94348c-0.32856,-1.99641 -0.37937,-2.03235 3.90844,-2.54486c4.02075,-0.4806 3.92178,-0.79425 4.25034,1.20216z" fill="url(#color-5)" stroke="#000000" stroke-width="0"/></g><g stroke="#000000" stroke-width="0" stroke-linecap="butt"><path d="M268.05319,190.32522c-0.21907,0.03937 1.03785,3.57567 0.12626,3.80723c-0.44837,0.11389 -0.72045,-2.33026 -1.56531,-2.94986c-0.44721,-0.32798 1.56725,3.99939 0.26629,3.88015c-0.44664,-0.04094 -1.1187,-3.41959 -1.77243,-4.08266c-0.34996,-0.35495 1.53077,4.99325 0.67165,4.9582c-0.51,-0.0208 -0.94328,-3.151 -1.65531,-4.40728c-0.34689,-0.61203 0.70868,3.81201 0.05492,3.66649c-0.40019,-0.08909 -1.65657,-4.35078 -1.70878,-4.3878c-0.29348,-0.20807 -0.27626,2.5921 -0.72958,2.0489c-0.83551,-1.00111 -0.28349,-2.64808 0.09027,-4.15185c0.21837,-0.8786 -0.07814,-2.02157 -0.07814,-2.02157c0,0 -0.3113,-3.01258 -1.82522,-6.1845c-0.36405,-0.76277 -1.37984,-3.32921 -1.7614,-4.10916c-0.90307,-1.84591 -1.86351,-3.64475 -2.38978,-4.78983c-1.13196,-2.46284 -2.49434,-5.61496 -2.49434,-5.61496l5.3342,-2.57067c0,0 2.01822,4.47038 3.22171,7.08887c0.48978,1.06566 0.31051,2.11151 1.00522,3.79106c0.31142,0.75289 1.19206,4.16151 1.8259,6.21666c1.05534,3.42176 2.05387,5.37584 2.05387,5.37584c0,0 1.79406,4.35333 1.32995,4.43674z" data-paper-data="{&quot;index&quot;:null}" fill="#ffb77d"/><path d="M251.40284,159.71415c4.65507,-2.68114 6.36406,0.48247 7.14292,2.29652c0.77885,1.81406 2.13664,0.8003 -2.14064,3.23588c-3.61525,2.0586 -3.21672,1.49434 -3.99558,-0.31971c-0.77885,-1.81406 -3.43098,-3.81639 -1.00668,-5.21269z" data-paper-data="{&quot;index&quot;:null}" fill="#ffffff"/></g><g stroke="#000000" stroke-width="0" stroke-linecap="butt"><path d="M213.45281,187.03712c0,0 0.88366,-2.02165 1.63622,-5.52251c0.452,-2.10265 1.00597,-5.58041 1.26239,-6.35517c0.57201,-1.72837 0.22658,-2.77001 0.64571,-3.86941c1.02984,-2.70142 2.74625,-7.31129 2.74625,-7.31129l6.46026,2.28346c0,0 -1.14066,3.24705 -2.1093,5.78788c-0.45035,1.18132 -1.3111,3.0447 -2.09976,4.95215c-0.33322,0.80594 -1.15479,3.4444 -1.47025,4.23209c-1.31177,3.27554 -1.26587,6.3228 -1.26587,6.3228c0,0 -0.18716,1.16622 0.18075,2.03745c0.62966,1.49116 1.48286,3.11618 0.65872,4.17026c-0.44718,0.57194 -0.80189,-2.24506 -1.11058,-2.01922c-0.05493,0.04019 -0.92569,4.3971 -1.37268,4.50933c-0.7302,0.18333 -0.11139,-4.32549 -0.4273,-3.69037c-0.64847,1.3037 -0.72673,4.47613 -1.30873,4.5259c-0.98043,0.08385 0.46095,-5.40103 0.10714,-5.02428c-0.66094,0.70382 -0.97976,4.13961 -1.48644,4.20606c-1.4758,0.19352 0.25544,-4.27232 -0.21352,-3.91718c-0.88592,0.67091 -0.87106,3.1443 -1.40041,3.05513c-1.07627,-0.18131 -0.10788,-3.80876 -0.36435,-3.83594c-0.54331,-0.05763 0.93171,-4.53712 0.93171,-4.53712z" fill="#ffb77d"/><path d="M226.9916,164.82959c-0.6459,1.86998 -0.11214,2.41358 -4.53747,0.55878c-5.23571,-2.19445 -3.54093,-1.25596 -2.89503,-3.12597c0.6459,-1.86998 2.17438,-5.152 7.87668,-2.73309c2.96968,1.25973 0.20172,3.43029 -0.44418,5.30029z" fill="#ffffff"/></g></g></g></svg>