<svg version="1.1" xmlns="http://www.w3.org/2000/svg" xmlns:xlink="http://www.w3.org/1999/xlink" width="110.59566" height="222.18799" viewBox="0,0,110.59566,222.18799"><defs><linearGradient x1="207.91558" y1="92.5" x2="272.08441" y2="92.5" gradientUnits="userSpaceOnUse" id="color-1"><stop offset="0" stop-color="#c9c9c9"/><stop offset="1" stop-color="#3e3e3e"/></linearGradient><linearGradient x1="207.91558" y1="92.50001" x2="272.08442" y2="92.50001" gradientUnits="userSpaceOnUse" id="color-2"><stop offset="0" stop-color="#272727"/><stop offset="1" stop-color="#000000"/></linearGradient><linearGradient x1="226.31622" y1="71.73739" x2="253.57887" y2="71.73739" gradientUnits="userSpaceOnUse" id="color-3"><stop offset="0" stop-color="#8c8c8c"/><stop offset="1" stop-color="#222222"/></linearGradient><linearGradient x1="226.31622" y1="71.73739" x2="253.57888" y2="71.73739" gradientUnits="userSpaceOnUse" id="color-4"><stop offset="0" stop-color="#272727"/><stop offset="1" stop-color="#000000"/></linearGradient><linearGradient x1="226.91558" y1="68.33257" x2="252.75108" y2="68.33257" gradientUnits="userSpaceOnUse" id="color-5"><stop offset="0" stop-color="#ffffff"/><stop offset="1" stop-color="#606060"/></linearGradient><linearGradient x1="226.91558" y1="68.33258" x2="252.75109" y2="68.33258" gradientUnits="userSpaceOnUse" id="color-6"><stop offset="0" stop-color="#272727"/><stop offset="1" stop-color="#000000"/></linearGradient><linearGradient x1="254.9" y1="242.06666" x2="260.09999" y2="242.06666" gradientUnits="userSpaceOnUse" id="color-7"><stop offset="0" stop-color="#525252"/><stop offset="1" stop-color="#363636"/></linearGradient><linearGradient x1="254.9" y1="242.06666" x2="260.09999" y2="242.06666" gradientUnits="userSpaceOnUse" id="color-8"><stop offset="0" stop-color="#1f1f1f"/><stop offset="1" stop-color="#000000"/></linearGradient><linearGradient x1="215.6029" y1="244.30047" x2="222.3971" y2="247.23286" gradientUnits="userSpaceOnUse" id="color-9"><stop offset="0" stop-color="#525252"/><stop offset="1" stop-color="#2e2e2e"/></linearGradient><linearGradient x1="215.6029" y1="244.30047" x2="222.3971" y2="247.23286" gradientUnits="userSpaceOnUse" id="color-10"><stop offset="0" stop-color="#1f1f1f"/><stop offset="1" stop-color="#000000"/></linearGradient><linearGradient x1="207.34164" y1="247.34992" x2="271.51049" y2="247.34992" gradientUnits="userSpaceOnUse" id="color-11"><stop offset="0" stop-color="#767676"/><stop offset="1" stop-color="#2a2a2a"/></linearGradient><linearGradient x1="207.34164" y1="247.34992" x2="271.51049" y2="247.34992" gradientUnits="userSpaceOnUse" id="color-12"><stop offset="0" stop-color="#1f1f1f"/><stop offset="1" stop-color="#000000"/></linearGradient><linearGradient x1="229.3" y1="229.73333" x2="249.7" y2="229.73333" gradientUnits="userSpaceOnUse" id="color-13"><stop offset="0" stop-color="#7f7f7f"/><stop offset="1" stop-color="#545454"/></linearGradient><linearGradient x1="222.7" y1="242.80392" x2="255.5" y2="242.80392" gradientUnits="userSpaceOnUse" id="color-14"><stop offset="0" stop-color="#7f7f7f"/><stop offset="1" stop-color="#545454"/></linearGradient><linearGradient x1="217.16342" y1="257.23292" x2="261.19756" y2="257.23292" gradientUnits="userSpaceOnUse" id="color-15"><stop offset="0" stop-color="#7f7f7f"/><stop offset="1" stop-color="#545454"/></linearGradient><linearGradient x1="211.3" y1="271.60392" x2="267.3" y2="271.60392" gradientUnits="userSpaceOnUse" id="color-16"><stop offset="0" stop-color="#7f7f7f"/><stop offset="1" stop-color="#545454"/></linearGradient><linearGradient x1="249.89787" y1="225.01766" x2="266.10093" y2="225.01766" gradientUnits="userSpaceOnUse" id="color-17"><stop offset="0" stop-color="#8f8f8f"/><stop offset="1" stop-color="#4e4e4e"/></linearGradient><linearGradient x1="249.89787" y1="225.01766" x2="266.10093" y2="225.01766" gradientUnits="userSpaceOnUse" id="color-18"><stop offset="0" stop-color="#1f1f1f"/><stop offset="1" stop-color="#000000"/></linearGradient><linearGradient x1="271.82285" y1="203.00127" x2="303.62907" y2="203.00127" gradientUnits="userSpaceOnUse" id="color-19"><stop offset="0" stop-color="#353535"/><stop offset="1" stop-color="#1f1f1f"/></linearGradient><linearGradient x1="271.82285" y1="204.09395" x2="293.57785" y2="204.09395" gradientUnits="userSpaceOnUse" id="color-20"><stop offset="0" stop-color="#272727"/><stop offset="1" stop-color="#000000"/></linearGradient><linearGradient x1="208.57785" y1="202.66794" x2="176.77164" y2="202.66794" gradientUnits="userSpaceOnUse" id="color-21"><stop offset="0" stop-color="#6b6b6b"/><stop offset="1" stop-color="#838383"/></linearGradient><linearGradient x1="186.82285" y1="203.76061" x2="208.57785" y2="203.76061" gradientUnits="userSpaceOnUse" id="color-22"><stop offset="0" stop-color="#272727"/><stop offset="1" stop-color="#000000"/></linearGradient><linearGradient x1="208.48951" y1="177.26061" x2="271.89896" y2="177.26061" gradientUnits="userSpaceOnUse" id="color-23"><stop offset="0" stop-color="#646464"/><stop offset="1" stop-color="#222222"/></linearGradient><linearGradient x1="208.48951" y1="177.26061" x2="271.89897" y2="177.26061" gradientUnits="userSpaceOnUse" id="color-24"><stop offset="0" stop-color="#272727"/><stop offset="1" stop-color="#000000"/></linearGradient><radialGradient cx="236.95984" cy="92.63115" r="11.97017" gradientUnits="userSpaceOnUse" id="color-25"><stop offset="0" stop-color="#9cd7f7"/><stop offset="1" stop-color="#0087f6"/></radialGradient><linearGradient x1="228.02983" y1="99" x2="251.97017" y2="99" gradientUnits="userSpaceOnUse" id="color-26"><stop offset="0" stop-color="#272727"/><stop offset="1" stop-color="#000000"/></linearGradient><linearGradient x1="242.46088" y1="179.93702" x2="267.33232" y2="179.93702" gradientUnits="userSpaceOnUse" id="color-27"><stop offset="0" stop-color="#4a382c"/><stop offset="1" stop-color="#301f1b"/></linearGradient><linearGradient x1="242.46088" y1="179.93702" x2="267.33232" y2="179.93702" gradientUnits="userSpaceOnUse" id="color-28"><stop offset="0" stop-color="#351c12"/><stop offset="1" stop-color="#1a1310"/></linearGradient><linearGradient x1="242.39399" y1="179.94639" x2="267.2079" y2="179.94639" gradientUnits="userSpaceOnUse" id="color-29"><stop offset="0" stop-color="#351c12"/><stop offset="1" stop-color="#1a1310"/></linearGradient><linearGradient x1="242.39399" y1="179.75746" x2="267.2079" y2="179.75746" gradientUnits="userSpaceOnUse" id="color-30"><stop offset="0" stop-color="#351c12"/><stop offset="1" stop-color="#1a1310"/></linearGradient><linearGradient x1="212.73457" y1="180.06298" x2="237.60601" y2="180.06298" gradientUnits="userSpaceOnUse" id="color-31"><stop offset="0" stop-color="#4a382c"/><stop offset="1" stop-color="#301f1b"/></linearGradient><linearGradient x1="212.73457" y1="180.06298" x2="237.60601" y2="180.06298" gradientUnits="userSpaceOnUse" id="color-32"><stop offset="0" stop-color="#351c12"/><stop offset="1" stop-color="#1a1310"/></linearGradient><linearGradient x1="212.66769" y1="180.07235" x2="237.48159" y2="180.07235" gradientUnits="userSpaceOnUse" id="color-33"><stop offset="0" stop-color="#351c12"/><stop offset="1" stop-color="#1a1310"/></linearGradient><linearGradient x1="212.66769" y1="179.88341" x2="237.48159" y2="179.88341" gradientUnits="userSpaceOnUse" id="color-34"><stop offset="0" stop-color="#351c12"/><stop offset="1" stop-color="#1a1310"/></linearGradient><linearGradient x1="242.46088" y1="209.93702" x2="267.33232" y2="209.93702" gradientUnits="userSpaceOnUse" id="color-35"><stop offset="0" stop-color="#4a382c"/><stop offset="1" stop-color="#301f1b"/></linearGradient><linearGradient x1="242.46088" y1="209.93702" x2="267.33232" y2="209.93702" gradientUnits="userSpaceOnUse" id="color-36"><stop offset="0" stop-color="#351c12"/><stop offset="1" stop-color="#1a1310"/></linearGradient><linearGradient x1="242.39399" y1="209.94639" x2="267.2079" y2="209.94639" gradientUnits="userSpaceOnUse" id="color-37"><stop offset="0" stop-color="#351c12"/><stop offset="1" stop-color="#1a1310"/></linearGradient><linearGradient x1="242.39399" y1="209.75746" x2="267.2079" y2="209.75746" gradientUnits="userSpaceOnUse" id="color-38"><stop offset="0" stop-color="#351c12"/><stop offset="1" stop-color="#1a1310"/></linearGradient><linearGradient x1="212.73457" y1="210.06298" x2="237.60601" y2="210.06298" gradientUnits="userSpaceOnUse" id="color-39"><stop offset="0" stop-color="#4a382c"/><stop offset="1" stop-color="#301f1b"/></linearGradient><linearGradient x1="212.73457" y1="210.06298" x2="237.60601" y2="210.06298" gradientUnits="userSpaceOnUse" id="color-40"><stop offset="0" stop-color="#351c12"/><stop offset="1" stop-color="#1a1310"/></linearGradient><linearGradient x1="212.66769" y1="210.07235" x2="237.48159" y2="210.07235" gradientUnits="userSpaceOnUse" id="color-41"><stop offset="0" stop-color="#351c12"/><stop offset="1" stop-color="#1a1310"/></linearGradient><linearGradient x1="212.66769" y1="209.88341" x2="237.48159" y2="209.88341" gradientUnits="userSpaceOnUse" id="color-42"><stop offset="0" stop-color="#351c12"/><stop offset="1" stop-color="#1a1310"/></linearGradient><linearGradient x1="211.7" y1="145.8" x2="268.3" y2="145.8" gradientUnits="userSpaceOnUse" id="color-43"><stop offset="0" stop-color="#515151"/><stop offset="1" stop-color="#131313"/></linearGradient><linearGradient x1="211.7" y1="145.8" x2="268.3" y2="145.8" gradientUnits="userSpaceOnUse" id="color-44"><stop offset="0" stop-color="#272727"/><stop offset="1" stop-color="#000000"/></linearGradient><linearGradient x1="214.64792" y1="133.48421" x2="264.95903" y2="133.48421" gradientUnits="userSpaceOnUse" id="color-45"><stop offset="0" stop-color="#272727"/><stop offset="1" stop-color="#000000"/></linearGradient><linearGradient x1="214.84445" y1="158.29825" x2="264.36945" y2="158.29825" gradientUnits="userSpaceOnUse" id="color-46"><stop offset="0" stop-color="#272727"/><stop offset="1" stop-color="#000000"/></linearGradient><linearGradient x1="228.7" y1="117" x2="251.3" y2="117" gradientUnits="userSpaceOnUse" id="color-47"><stop offset="0" stop-color="#272727"/><stop offset="1" stop-color="#000000"/></linearGradient><linearGradient x1="228.7" y1="114" x2="251.3" y2="114" gradientUnits="userSpaceOnUse" id="color-48"><stop offset="0" stop-color="#272727"/><stop offset="1" stop-color="#000000"/></linearGradient><linearGradient x1="228.7" y1="120" x2="251.3" y2="120" gradientUnits="userSpaceOnUse" id="color-49"><stop offset="0" stop-color="#272727"/><stop offset="1" stop-color="#000000"/></linearGradient></defs><g transform="translate(-184.90252,-57.99764)"><g data-paper-data="{&quot;isPaintingLayer&quot;:true}" fill-rule="nonzero" stroke-linejoin="miter" stroke-miterlimit="10" stroke-dasharray="" stroke-dashoffset="0" style="mix-blend-mode: normal"><path d="M207.91558,124.58571c0,0 23.62696,-64.63938 31.75548,-64.16885c9.29886,0.53827 32.41336,64.16885 32.41336,64.16885z" fill="url(#color-1)" stroke="url(#color-2)" stroke-width="1.5" stroke-linecap="butt"/><path d="M226.57114,80.9199l1.10589,-2.46571l24.55692,-0.06869l1.09001,2.53441z" fill="url(#color-3)" stroke="url(#color-4)" stroke-width="0" stroke-linecap="butt"/><path d="M226.91558,77.91751c0,0 9.51263,-19.30967 12.78532,-19.16911c3.74389,0.1608 13.05019,19.16911 13.05019,19.16911z" fill="url(#color-5)" stroke="url(#color-6)" stroke-width="1.5" stroke-linecap="butt"/><g><path d="M254.9,250.66666v-17.2h5.2v17.2z" fill="url(#color-7)" stroke="url(#color-8)" stroke-width="1.5" stroke-linecap="butt"/><path d="M203.27895,272.85445l24.6479,-57.10797l6.7942,2.93239l-24.6479,57.10798z" fill="url(#color-9)" stroke="url(#color-10)" stroke-width="1.5" stroke-linecap="butt"/><path d="M207.34164,279.43563c0,0 23.96029,-64.63938 32.08881,-64.16885c9.29886,0.53827 32.08004,64.16885 32.08004,64.16885z" fill="url(#color-11)" stroke="url(#color-12)" stroke-width="1.5" stroke-linecap="butt"/><path d="M229.3,229.73333h20.4" fill="none" stroke="url(#color-13)" stroke-width="4.5" stroke-linecap="round"/><path d="M255.5,242.80392h-32.8" fill="none" stroke="url(#color-14)" stroke-width="4.5" stroke-linecap="round"/><path d="M261.19757,257.23292h-44.03415" fill="none" stroke="url(#color-15)" stroke-width="4.5" stroke-linecap="round"/><path d="M211.3,271.60392h56" fill="none" stroke="url(#color-16)" stroke-width="4.5" stroke-linecap="round"/><path d="M266.10093,225.01766c-0.06063,7.61853 -0.25257,8.43369 -8.10153,8.35295c-7.85147,-0.08077 -8.19893,-1.11312 -8.10153,-8.35295c0.10754,-7.99323 0.08469,-8.54885 8.10153,-8.35295c7.68121,0.18771 8.16811,-0.01299 8.10153,8.35295z" fill="url(#color-17)" stroke="url(#color-18)" stroke-width="1.5" stroke-linecap="butt"/></g><path d="M271.82285,229.0938v-64.85172c0,0 8.16113,43.53356 11.01446,54.04444c2.25749,8.31596 10.74054,25.65929 10.74054,25.65929z" fill="url(#color-19)" stroke="url(#color-20)" stroke-width="1.5" stroke-linecap="butt"/><path d="M186.82285,243.61247c0,0 8.48305,-17.34332 10.74054,-25.65928c2.85333,-10.51089 11.01446,-54.04444 11.01446,-54.04444v64.85172z" data-paper-data="{&quot;index&quot;:null}" fill="url(#color-21)" stroke="url(#color-22)" stroke-width="1.5" stroke-linecap="butt"/><path d="M208.48951,229.27914v-104.03706h63.40946v104.03706z" fill="url(#color-23)" stroke="url(#color-24)" stroke-width="1.5" stroke-linecap="butt"/><path d="M251.97017,99c0,6.47884 -5.35923,11.73099 -11.97017,11.73099c-6.61093,0 -11.97017,-5.25214 -11.97017,-11.73099c0,-6.47884 5.35923,-11.73099 11.97017,-11.73099c6.61093,0 11.97017,5.25214 11.97017,11.73099z" fill="url(#color-25)" stroke="url(#color-26)" stroke-width="1.5" stroke-linecap="butt"/><g stroke-width="3"><path d="M242.46088,192.88443v-25.89482h24.87144v25.89482z" fill="url(#color-27)" stroke="url(#color-28)" stroke-linecap="butt"/><path d="M242.39399,192.54229l24.81391,-25.19178" fill="none" stroke="url(#color-29)" stroke-linecap="round"/><path d="M267.2079,192.66824l-24.56199,-25.56966" fill="none" stroke="url(#color-30)" stroke-linecap="round"/></g><g stroke-width="3"><path d="M212.73457,193.01039v-25.89482h24.87144v25.89482z" fill="url(#color-31)" stroke="url(#color-32)" stroke-linecap="butt"/><path d="M212.66769,192.66825l24.81391,-25.19179" fill="none" stroke="url(#color-33)" stroke-linecap="round"/><path d="M212.9196,167.22454l24.56199,25.56966" fill="none" stroke="url(#color-34)" stroke-linecap="round"/></g><g stroke-width="3"><path d="M242.46088,222.88443v-25.89482h24.87144v25.89482z" fill="url(#color-35)" stroke="url(#color-36)" stroke-linecap="butt"/><path d="M242.39399,222.54229l24.81391,-25.19178" fill="none" stroke="url(#color-37)" stroke-linecap="round"/><path d="M242.64591,197.09859l24.56199,25.56965" fill="none" stroke="url(#color-38)" stroke-linecap="round"/></g><g stroke-width="3"><path d="M212.73457,223.01039v-25.89482h24.87144v25.89482z" fill="url(#color-39)" stroke="url(#color-40)" stroke-linecap="butt"/><path d="M212.66769,222.66825l24.81391,-25.19179" fill="none" stroke="url(#color-41)" stroke-linecap="round"/><path d="M212.9196,197.22454l24.56199,25.56966" fill="none" stroke="url(#color-42)" stroke-linecap="round"/></g><g stroke-width="1.5"><path d="M211.7,161.4v-31.2h56.6v31.2z" fill="url(#color-43)" stroke="url(#color-44)" stroke-linecap="butt"/><path d="M264.95903,133.48421h-50.31111" fill="none" stroke="url(#color-45)" stroke-linecap="round"/><path d="M214.84445,158.29825h49.525" fill="none" stroke="url(#color-46)" stroke-linecap="round"/></g><path d="M228.7,117h22.6" fill="none" stroke="url(#color-47)" stroke-width="1.5" stroke-linecap="round"/><path d="M228.7,114h22.6" fill="none" stroke="url(#color-48)" stroke-width="1.5" stroke-linecap="round"/><path d="M228.7,120h22.6" fill="none" stroke="url(#color-49)" stroke-width="1.5" stroke-linecap="round"/></g></g></svg>