<svg version="1.1" xmlns="http://www.w3.org/2000/svg" xmlns:xlink="http://www.w3.org/1999/xlink" width="214.97203" height="159.25107" viewBox="0,0,214.97203,159.25107"><defs><radialGradient cx="310.06248" cy="237.95935" r="38.33033" gradientUnits="userSpaceOnUse" id="color-1"><stop offset="0" stop-color="#696969"/><stop offset="1" stop-color="#0a0a0a"/></radialGradient><linearGradient x1="310.06248" y1="200.34215" x2="310.06248" y2="275.57656" gradientUnits="userSpaceOnUse" id="color-2"><stop offset="0" stop-color="#636363"/><stop offset="1" stop-color="#424242"/></linearGradient><linearGradient x1="283.78915" y1="243.5378" x2="336.45658" y2="243.5378" gradientUnits="userSpaceOnUse" id="color-3"><stop offset="0" stop-color="#9c5555"/><stop offset="1" stop-color="#453131"/></linearGradient><linearGradient x1="283.78915" y1="243.5213" x2="336.45659" y2="243.5213" gradientUnits="userSpaceOnUse" id="color-4"><stop offset="0" stop-color="#272727"/><stop offset="1" stop-color="#000000"/></linearGradient><linearGradient x1="298.5629" y1="220.62592" x2="320.04132" y2="220.62592" gradientUnits="userSpaceOnUse" id="color-5"><stop offset="0" stop-color="#f7d6d6"/><stop offset="1" stop-color="#805e5e"/></linearGradient><linearGradient x1="298.5629" y1="220.62384" x2="320.04132" y2="220.62384" gradientUnits="userSpaceOnUse" id="color-6"><stop offset="0" stop-color="#272727"/><stop offset="1" stop-color="#000000"/></linearGradient><linearGradient x1="295.92826" y1="231.21633" x2="323.4075" y2="231.21633" gradientUnits="userSpaceOnUse" id="color-7"><stop offset="0" stop-color="#452a2a"/><stop offset="1" stop-color="#260f0f"/></linearGradient><linearGradient x1="293.33574" y1="240.24473" x2="326.43316" y2="240.24473" gradientUnits="userSpaceOnUse" id="color-8"><stop offset="0" stop-color="#452a2a"/><stop offset="1" stop-color="#260f0f"/></linearGradient><linearGradient x1="290.90846" y1="249.10897" x2="328.88521" y2="249.10897" gradientUnits="userSpaceOnUse" id="color-9"><stop offset="0" stop-color="#452a2a"/><stop offset="1" stop-color="#260f0f"/></linearGradient><linearGradient x1="288.32289" y1="257.64491" x2="331.69492" y2="257.64491" gradientUnits="userSpaceOnUse" id="color-10"><stop offset="0" stop-color="#452a2a"/><stop offset="1" stop-color="#260f0f"/></linearGradient><linearGradient x1="305.30205" y1="207.57634" x2="313.78327" y2="207.57634" gradientUnits="userSpaceOnUse" id="color-11"><stop offset="0" stop-color="#443939"/><stop offset="1" stop-color="#251e1e"/></linearGradient><linearGradient x1="305.30205" y1="207.57634" x2="313.78327" y2="207.57634" gradientUnits="userSpaceOnUse" id="color-12"><stop offset="0" stop-color="#262626"/><stop offset="1" stop-color="#0f0f0f"/></linearGradient><linearGradient x1="307.87126" y1="191.02428" x2="311.15431" y2="191.02428" gradientUnits="userSpaceOnUse" id="color-13"><stop offset="0" stop-color="#ccbebe"/><stop offset="1" stop-color="#656161"/></linearGradient><linearGradient x1="307.87126" y1="191.02428" x2="311.15431" y2="191.02428" gradientUnits="userSpaceOnUse" id="color-14"><stop offset="0" stop-color="#262626"/><stop offset="1" stop-color="#0f0f0f"/></linearGradient></defs><g transform="translate(-269.71931,-160.0288)"><g data-paper-data="{&quot;isPaintingLayer&quot;:true}" fill-rule="nonzero" stroke-linecap="butt" stroke-linejoin="miter" stroke-miterlimit="10" stroke-dasharray="" stroke-dashoffset="0" style="mix-blend-mode: normal"><text transform="translate(270.03136,187.4892) scale(0.6241,0.6241)" font-size="40" xml:space="preserve" fill="#ffffff" fill-rule="nonzero" stroke="none" stroke-width="1" stroke-linecap="butt" stroke-linejoin="miter" stroke-miterlimit="10" stroke-dasharray="" stroke-dashoffset="0" font-family="Malgun Gothic" font-weight="normal" text-anchor="start" style="mix-blend-mode: normal"><tspan x="0" dy="0">Conqueror Cap</tspan></text><text transform="translate(354.45435,215.62294) scale(0.45565,0.45565)" font-size="40" xml:space="preserve" fill="#d8d8d8" fill-rule="nonzero" stroke="none" stroke-width="1" stroke-linecap="butt" stroke-linejoin="miter" stroke-miterlimit="10" stroke-dasharray="" stroke-dashoffset="0" font-family="Malgun Gothic" font-weight="normal" text-anchor="start" style="mix-blend-mode: normal"><tspan x="0" dy="0">Obtained by:</tspan></text><text transform="translate(354.45435,256.62748) scale(0.45566,0.45566)" font-size="40" xml:space="preserve" fill="#d8d8d8" fill-rule="nonzero" stroke="none" stroke-width="1" stroke-linecap="butt" stroke-linejoin="miter" stroke-miterlimit="10" stroke-dasharray="" stroke-dashoffset="0" font-family="Malgun Gothic" font-weight="normal" text-anchor="start" style="mix-blend-mode: normal"><tspan x="0" dy="0">Materials:</tspan></text><text transform="translate(271.38374,296.92705) scale(0.45566,0.45566)" font-size="40" xml:space="preserve" fill="#d8d8d8" fill-rule="nonzero" stroke="none" stroke-width="1" stroke-linecap="butt" stroke-linejoin="miter" stroke-miterlimit="10" stroke-dasharray="" stroke-dashoffset="0" font-family="Malgun Gothic" font-weight="normal" text-anchor="start" style="mix-blend-mode: normal"><tspan x="0" dy="0">Description:</tspan></text><text transform="translate(355.17562,233.72207) scale(0.37382,0.37382)" font-size="40" xml:space="preserve" fill="#9f9f9f" fill-rule="nonzero" stroke="none" stroke-width="1" stroke-linecap="butt" stroke-linejoin="miter" stroke-miterlimit="10" stroke-dasharray="" stroke-dashoffset="0" font-family="Malgun Gothic" font-weight="normal" text-anchor="start" style="mix-blend-mode: normal"><tspan x="0" dy="0">VAB; rocket part</tspan></text><path d="M271.73215,275.57656v-75.23442h76.66066v75.23442z" fill="url(#color-1)" stroke="url(#color-2)" stroke-width="3.5"/><text transform="translate(271.64329,315.44811) scale(0.37383,0.37383)" font-size="40" xml:space="preserve" fill="#9f9f9f" fill-rule="nonzero" stroke="none" stroke-width="1" stroke-linecap="butt" stroke-linejoin="miter" stroke-miterlimit="10" stroke-dasharray="" stroke-dashoffset="0" font-family="Malgun Gothic" font-weight="normal" text-anchor="start" style="mix-blend-mode: normal"><tspan x="0" dy="0">The brain of conqueror drones.</tspan></text><text transform="translate(355.17562,275.43973) scale(0.37383,0.37383)" font-size="40" xml:space="preserve" fill="#9f9f9f" fill-rule="nonzero" stroke="none" stroke-width="1" stroke-linecap="butt" stroke-linejoin="miter" stroke-miterlimit="10" stroke-dasharray="" stroke-dashoffset="0" font-family="Malgun Gothic" font-weight="normal" text-anchor="start" style="mix-blend-mode: normal"><tspan x="0" dy="0">Titanium (x150)</tspan></text><path d="M283.78915,269.87258c0,0 17.7372,-65.0455 26.18041,-65.0455c5.41647,0 26.48702,65.0455 26.48702,65.0455z" fill="url(#color-3)" stroke="url(#color-4)" stroke-width="1.5"/><path d="M298.5629,223.95784c0,0 8.42099,-19.71489 11.03949,-19.79579c2.38049,-0.07354 10.64413,19.79579 10.64413,19.79579z" fill="url(#color-5)" stroke="url(#color-6)" stroke-width="1.5"/><path d="M294.98887,234.58484c0,0 0.45589,-1.05548 1.12563,-2.31154c0.78595,-1.474 2.08782,-3.22423 6.58639,-3.86908c0.17453,-0.02501 3.45353,-0.39156 3.45353,-0.39156l7.13359,0.01569c0,0 2.46598,0.12566 2.61079,0.15017c4.25736,0.72048 5.85609,2.52962 6.75102,4.04228c0.76309,1.28979 1.22737,2.36404 1.22737,2.36404z" data-paper-data="{&quot;index&quot;:null}" fill="url(#color-7)" stroke="#000000" stroke-width="0"/><path d="M292.20429,243.61324c0,0 0.5491,-1.05548 1.35576,-2.31153c0.94664,-1.474 2.51467,-3.22424 7.93298,-3.86909c0.21022,-0.02501 4.15962,-0.39155 4.15962,-0.39155l8.59205,0.01569c0,0 2.97017,0.12566 3.14459,0.15017c5.12777,0.72048 7.05337,2.52962 8.13128,4.04228c0.9191,1.28979 1.47832,2.36404 1.47832,2.36404z" data-paper-data="{&quot;index&quot;:null}" fill="url(#color-8)" stroke="#000000" stroke-width="0"/><path d="M289.6102,252.47748c0,0 0.63004,-1.05548 1.55563,-2.31153c1.08619,-1.474 2.8854,-3.22424 9.10249,-3.86909c0.24122,-0.02501 4.77284,-0.39156 4.77284,-0.39156l9.85873,0.01569c0,0 3.40803,0.12566 3.60816,0.15017c5.88374,0.72048 8.09321,2.52962 9.33002,4.04228c1.0546,1.28979 1.69626,2.36404 1.69626,2.36404z" data-paper-data="{&quot;index&quot;:null}" fill="url(#color-9)" stroke="#000000" stroke-width="0"/><path d="M286.84019,261.01342c0,0 0.71956,-1.05547 1.77664,-2.31153c1.24051,-1.474 3.29531,-3.22424 10.39566,-3.86909c0.27548,-0.02501 5.45091,-0.39155 5.45091,-0.39155l11.25934,0.01569c0,0 3.8922,0.12565 4.12077,0.15016c6.71963,0.72048 9.24298,2.52963 10.65551,4.04228c1.20442,1.2898 1.93724,2.36404 1.93724,2.36404z" data-paper-data="{&quot;index&quot;:null}" fill="url(#color-10)" stroke="#000000" stroke-width="0"/><path d="M313.78327,207.57634c0,0.90659 -1.89859,1.64153 -4.24061,1.64153c-2.34202,0 -4.24061,-0.73494 -4.24061,-1.64153c0,-0.90659 1.89859,-1.64153 4.24061,-1.64153c2.34202,0 4.24061,0.73494 4.24061,1.64153z" fill="url(#color-11)" stroke="url(#color-12)" stroke-width="1"/><path d="M307.87126,207.57634v-5.09207c0.76851,0.07116 2.96823,-0.06506 3.28305,-0.07681v5.16888z" fill="url(#color-13)" stroke="url(#color-14)" stroke-width="1"/></g></g></svg>