<svg version="1.1" xmlns="http://www.w3.org/2000/svg" xmlns:xlink="http://www.w3.org/1999/xlink" width="68.47308" height="121.04714" viewBox="0,0,68.47308,121.04714"><defs><linearGradient x1="240.50311" y1="147.79764" x2="240.50311" y2="155.67091" gradientUnits="userSpaceOnUse" id="color-1"><stop offset="0" stop-color="#505050"/><stop offset="1" stop-color="#767676"/></linearGradient><radialGradient cx="235.45425" cy="124.47811" r="13.11833" gradientUnits="userSpaceOnUse" id="color-2"><stop offset="0" stop-color="#ccbe7a"/><stop offset="1" stop-color="#948f62"/></radialGradient><linearGradient x1="251.47543" y1="115.25828" x2="251.47543" y2="124.50074" gradientUnits="userSpaceOnUse" id="color-3"><stop offset="0" stop-color="#464646"/><stop offset="1" stop-color="#343434"/></linearGradient><linearGradient x1="251.47544" y1="115.25828" x2="251.47544" y2="124.50074" gradientUnits="userSpaceOnUse" id="color-4"><stop offset="0" stop-color="#131313"/><stop offset="1" stop-color="#202020"/></linearGradient><linearGradient x1="239.89383" y1="116.28523" x2="239.89383" y2="151.31516" gradientUnits="userSpaceOnUse" id="color-5"><stop offset="0" stop-color="#ffe8b5" stop-opacity="0.32941"/><stop offset="1" stop-color="#c2a53e" stop-opacity="0.63529"/></linearGradient><linearGradient x1="239.89383" y1="116.28523" x2="239.89383" y2="151.31516" gradientUnits="userSpaceOnUse" id="color-6"><stop offset="0" stop-color="#444444"/><stop offset="1" stop-color="#545454"/></linearGradient><linearGradient x1="228.57689" y1="113.82975" x2="228.57689" y2="125.73529" gradientUnits="userSpaceOnUse" id="color-7"><stop offset="0" stop-color="#464646"/><stop offset="1" stop-color="#343434"/></linearGradient><linearGradient x1="228.57689" y1="113.82975" x2="228.57689" y2="125.73529" gradientUnits="userSpaceOnUse" id="color-8"><stop offset="0" stop-color="#131313"/><stop offset="1" stop-color="#202020"/></linearGradient></defs><g transform="translate(-205.69337,-113.32973)"><g data-paper-data="{&quot;isPaintingLayer&quot;:true}" fill-rule="nonzero" stroke-linejoin="miter" stroke-miterlimit="10" stroke-dasharray="" stroke-dashoffset="0" style="mix-blend-mode: normal"><path d="M226.26474,195.96666v-45.53587h25.57697l0.29568,45.53587z" fill="#747474" stroke="none" stroke-width="NaN" stroke-linecap="butt"/><g><path d="M219.58246,224.47766l10.95484,-32.10127c0,0 7.06724,-0.67134 10.0616,-0.00861c3.54298,0.78415 -0.32516,4.27481 -0.32516,4.27481c0,0 -3.03806,-0.58198 -3.64709,0.75377c-1.86257,4.08502 -9.23017,28.81071 -9.23017,28.81071z" fill="#ffefeb" stroke="#000000" stroke-width="0" stroke-linecap="butt"/><path d="M233.47789,232.73221c0,0 -0.79586,1.81096 -1.60321,1.63227c-0.57875,-0.1281 -2.58459,-0.55804 -4.57876,-1.0819c-1.21241,-0.3185 -1.72371,-1.01424 -2.60417,-1.3554c-1.10844,-0.4295 -2.91675,-0.41974 -3.70453,-0.79025c-1.45162,-0.6827 -2.15044,-1.27258 -2.15044,-1.27258c0,0 -0.04118,-1.05931 0.06384,-1.61004c0.14147,-0.74197 0.70868,-2.44155 0.70868,-2.44155c0,0 5.81987,1.16562 8.03679,1.86145c1.31182,0.41174 4.0006,1.54788 4.0006,1.54788c0,0 1.29223,0.9165 1.40848,1.3798c0.14237,0.56743 0.42269,2.13035 0.42269,2.13035z" data-paper-data="{&quot;index&quot;:null}" fill="#141415" stroke="#000000" stroke-width="0" stroke-linecap="butt"/><path d="M233.35054,232.05395c0,0 -0.37658,-0.08334 -1.18395,-0.26204c-0.24236,-0.05364 0.33968,1.71558 -2.84434,0.73585c-3.00674,-0.9252 -2.4541,-1.76015 -3.51503,-2.07751c-2.21838,-0.66361 -2.6551,0.02178 -3.59809,-0.34363c-0.3284,-0.12725 -0.47584,-0.22262 -1.53272,-1.33307c-0.72685,-0.76368 -0.27151,-1.85368 -0.72137,-2.59653c-0.65712,-1.0851 -0.38185,-2.01596 -0.38185,-2.01596l0.58403,-2.99222c0,0 -0.00204,2.25978 0.63894,3.246c0.57348,0.88238 2.2662,0.48237 2.73849,0.58675c0.82698,0.18279 0.03364,-3.33969 0.82032,-3.14689c0.42302,0.10367 3.68537,0.57592 3.68537,0.57592c0,0 -0.65349,3.52187 -0.43039,3.5919c1.31181,0.41174 4.35578,1.62649 4.35578,1.62649c0,0 1.29223,0.9165 1.40848,1.3798c0.14238,0.56743 -0.02372,3.02507 -0.02372,3.02507z" data-paper-data="{&quot;index&quot;:null}" fill="#252527" stroke="#000000" stroke-width="0" stroke-linecap="butt"/><path d="M225.50802,227.30851l2.84052,-0.48907" data-paper-data="{&quot;index&quot;:null}" fill="none" stroke="#ffffff" stroke-width="0.5" stroke-linecap="round"/><path d="M227.32372,228.08297l2.80071,-0.87044" data-paper-data="{&quot;index&quot;:null}" fill="none" stroke="#ffffff" stroke-width="0.5" stroke-linecap="round"/><path d="M229.4024,228.79142l1.73519,-1.10629" data-paper-data="{&quot;index&quot;:null}" fill="none" stroke="#ffffff" stroke-width="0.5" stroke-linecap="round"/><path d="M225.16259,223.25786l2.1835,0.23488" data-paper-data="{&quot;index&quot;:null}" fill="none" stroke="#969696" stroke-width="0.5" stroke-linecap="round"/><path d="M225.45273,224.19147l1.97292,0.06408" data-paper-data="{&quot;index&quot;:null}" fill="none" stroke="#969696" stroke-width="0.5" stroke-linecap="round"/></g><path d="M273.96334,198.37457c-0.48209,0.15639 -1.89355,-3.46607 -3.30145,-3.4674c-0.48336,-0.00046 1.10686,5.02765 0.17799,5.071c-0.55138,0.02573 -1.37746,-2.77491 -2.17213,-3.98105c-0.38715,-0.5876 -2.36526,-5.01437 -2.36526,-5.01437c0,0 -0.39729,-3.02038 -2.09701,-6.09173c-0.40874,-0.73857 -1.55808,-3.24282 -1.98608,-3.99716c-1.01298,-1.78535 -2.08698,-3.51779 -2.67872,-4.62842c-1.27275,-2.38875 -6.61382,-14.18979 -6.61382,-14.18979c0,0 -4.13536,-5.80041 -2.11123,-6.58765c6.24286,-2.428 6.61976,3.28808 6.61976,3.28808c0,0 2.37859,6.13407 5.41856,12.41988c2.28682,4.72848 5.21377,9.53895 6.30364,11.91051c1.28985,2.80678 2.49839,6.61404 2.49839,6.61404c0,0 1.01316,2.59908 1.73302,4.8333c0.64774,2.01034 1.03857,3.67019 0.57434,3.8208z" data-paper-data="{&quot;index&quot;:null}" fill="#8c8c8c" stroke="#000000" stroke-width="0" stroke-linecap="butt"/><path d="M244.95187,208.23152c-0.47495,-0.17688 0.36416,-3.85287 0.16297,-4.78507c-0.10768,-0.49904 -2.27244,4.43888 -3.0324,3.89395c-0.45113,-0.32348 0.58021,-3.05414 0.67757,-4.50384c0.04743,-0.70627 1.14629,-5.4417 1.14629,-5.4417c0,0 1.50227,-2.6371 2.00609,-6.12671c0.12115,-0.83916 0.71885,-3.53691 0.83427,-4.40057c0.27316,-2.04403 0.4663,-4.08424 0.66657,-5.33184c0.43073,-2.68334 3.30664,-15.34952 3.30664,-15.34952c0,0 -1.1144,-10.13051 3.38427,-9.13295c3.95982,0.87808 2.16203,9.33405 2.16203,9.33405c0,0 -1.80904,6.33579 -3.18679,13.20404c-1.0364,5.16664 -1.61628,10.79728 -2.18121,13.35298c-0.66858,3.02471 -2.00301,6.7902 -2.00301,6.7902c0,0 -0.76232,2.68787 -1.53697,4.90422c-0.69702,1.99426 -1.94901,3.76309 -2.40636,3.59276z" data-paper-data="{&quot;index&quot;:null}" fill="#969696" stroke="#000000" stroke-width="0" stroke-linecap="butt"/><g><path d="M239.08692,192.6178c3.56889,-0.65626 10.77035,0.23878 10.77035,0.23878l9.07799,32.60597l-7.51339,1.38158c0,0 -5.92369,-24.87708 -7.35168,-28.71403c-0.40472,-1.08744 -3.61944,-1.44788 -3.61944,-1.44788c0,0 -4.3801,-3.5098 -1.36385,-4.06444z" fill="#ffefeb" stroke="#000000" stroke-width="0" stroke-linecap="butt"/><path d="M266.51891,231.27664c-0.58299,0.1072 -2.59804,0.49162 -4.63889,0.78498c-1.24079,0.17836 -1.98251,-0.2636 -2.92634,-0.23528c-1.18822,0.03566 -2.85021,0.74827 -3.72009,0.71351c-1.60286,-0.06406 -2.47613,-0.33554 -2.47613,-0.33554c0,0 -0.4501,-0.95982 -0.56768,-1.50799c-0.15839,-0.73854 -0.2972,-2.5249 -0.2972,-2.5249c0,0 5.81477,-1.19081 8.12772,-1.41243c1.36865,-0.13114 4.28762,-0.13078 4.28762,-0.13078c0,0 1.54702,0.34144 1.83437,0.723c0.35194,0.46731 1.21831,1.79797 1.21831,1.79797c0,0 -0.02846,1.97791 -0.84171,2.12745z" data-paper-data="{&quot;index&quot;:null}" fill="#141415" stroke="#000000" stroke-width="0" stroke-linecap="butt"/><path d="M265.78683,228.79337c-0.24414,0.04489 0.98048,1.4482 -2.33384,1.78462c-3.12979,0.31769 -2.94558,-0.66651 -4.04638,-0.54604c-2.30177,0.2519 -2.43738,1.0532 -3.44822,1.08353c-0.35204,0.01056 -0.52497,-0.01992 -1.93066,-0.6316c-0.96674,-0.42068 -0.97139,-1.60195 -1.67485,-2.11121c-1.02757,-0.74389 -1.13619,-1.70849 -1.13619,-1.70849l-0.6263,-2.98366c0,0 0.87742,2.08247 1.85164,2.74156c0.87165,0.5897 2.2753,-0.43745 2.75098,-0.52507c0.83295,-0.1534 -1.26852,-3.08958 -0.46881,-3.21808c0.43001,-0.0691 3.61903,-0.90349 3.61903,-0.90349c0,0 0.76842,3.49861 1.00118,3.47631c1.36865,-0.13114 4.64539,-0.19656 4.64539,-0.19656c0,0 1.54702,0.34144 1.83438,0.723c0.35194,0.46731 1.15524,2.7959 1.15524,2.7959c0,0 -0.37932,0.06975 -1.19261,0.21931z" data-paper-data="{&quot;index&quot;:null}" fill="#252527" stroke="#000000" stroke-width="0" stroke-linecap="butt"/><path d="M257.90847,227.25413l2.42635,-1.55578" fill="none" stroke="#ffffff" stroke-width="0.5" stroke-linecap="round"/><path d="M259.88243,227.26108l2.24131,-1.89164" fill="none" stroke="#ffffff" stroke-width="0.5" stroke-linecap="round"/><path d="M262.07297,227.1049l1.16798,-1.69428" fill="none" stroke="#ffffff" stroke-width="0.5" stroke-linecap="round"/><path d="M256.01412,223.65715l2.10281,-0.63327" fill="none" stroke="#969696" stroke-width="0.5" stroke-linecap="round"/><path d="M258.48706,223.69559l-1.84237,0.70866" fill="none" stroke="#969696" stroke-width="0.5" stroke-linecap="round"/></g><g><path d="M229.63982,193.59157c0,0 1.05415,-4.96832 0.53438,-10.35244c-0.16183,-1.6764 -0.21302,-5.68895 -0.71668,-7.54193c-0.59549,-2.19087 -2.53406,-2.77781 -2.61907,-4.12911c-0.1679,-2.66921 -1.07001,-6.79369 -0.41646,-11.37123c0.49266,-3.45066 3.45852,-6.29847 3.45852,-6.29847c0,0 3.98746,-0.28908 5.76508,0.07712c2.26281,0.46615 7.72658,0.47022 9.64,0.05396c2.01891,-0.43921 5.48447,0.01677 5.48447,0.01677c0,0 2.62113,3.52189 2.84787,7.84095c0.214,4.0764 -0.63262,8.46783 -0.70926,10.13771c-0.07768,1.69256 -1.49509,2.1313 -2.13228,4.27482c-0.50833,1.71005 -0.54704,5.19044 -0.67745,7.18949c-0.3029,4.64296 0.14784,10.27371 0.14784,10.27371c0,0 -2.75697,-0.76932 -5.57187,-0.83754c-1.27833,-0.03098 -1.79126,1.00612 -2.99851,1.16532c-0.96496,0.12724 -2.63623,-0.61291 -3.56107,-0.64966c-0.69915,-0.02778 -2.04377,-0.5306 -2.53801,-0.53471c-0.99795,-0.0083 -1.61572,0.86529 -2.77345,1.02464c-1.34484,0.1851 -3.1641,-0.33939 -3.1641,-0.33939z" fill="#9d9d9d" stroke="#292e32" stroke-width="0" stroke-linecap="butt"/><path d="M234.10868,169.03912l2.23101,-9.03889" fill="#ff0000" stroke="#ff0000" stroke-width="1" stroke-linecap="round"/><path d="M231.89036,159.47483l-3.98374,8.1094" fill="#ff0000" stroke="#ff0000" stroke-width="1" stroke-linecap="round"/><path d="M230.87412,168.51691l3.1604,-8.83095" fill="#ff0000" stroke="#ff0000" stroke-width="1" stroke-linecap="round"/><path d="M248.03363,169.123l-1.60782,-9.03889" data-paper-data="{&quot;index&quot;:null}" fill="#ff0000" stroke="#ff0000" stroke-width="1" stroke-linecap="round"/><path d="M252.50326,167.66821l-2.87096,-8.1094" data-paper-data="{&quot;index&quot;:null}" fill="#ff0000" stroke="#ff0000" stroke-width="1" stroke-linecap="round"/><path d="M248.08707,159.76984l2.2776,8.83096" data-paper-data="{&quot;index&quot;:null}" fill="#ff0000" stroke="#ff0000" stroke-width="1" stroke-linecap="round"/><path d="M231.85509,190.20259c0.00046,-0.41422 0.33663,-0.74962 0.75084,-0.74916c0.41422,0.00046 0.74962,0.33663 0.74916,0.75084c-0.00046,0.41422 -0.33662,0.74962 -0.75084,0.74916c-0.41422,-0.00046 -0.74962,-0.33663 -0.74916,-0.75084z" fill="#002dff" stroke="none" stroke-width="0.5" stroke-linecap="butt"/><path d="M235.54214,190.20673c0.00046,-0.41422 0.33663,-0.74962 0.75084,-0.74916c0.41422,0.00046 0.74962,0.33663 0.74916,0.75084c-0.00046,0.41422 -0.33662,0.74962 -0.75084,0.74916c-0.41422,-0.00046 -0.74962,-0.33663 -0.74916,-0.75084z" fill="#002dff" stroke="none" stroke-width="0.5" stroke-linecap="butt"/><path d="M239.33161,190.21094c0.00046,-0.41422 0.33662,-0.74962 0.75084,-0.74916c0.41422,0.00046 0.74962,0.33663 0.74916,0.75084c-0.00046,0.41422 -0.33663,0.74962 -0.75084,0.74916c-0.41422,-0.00046 -0.74962,-0.33663 -0.74916,-0.75084z" fill="#002dff" stroke="none" stroke-width="0.5" stroke-linecap="butt"/><path d="M243.22349,190.2154c0.00046,-0.41422 0.33663,-0.74963 0.75084,-0.74916c0.41422,0.00046 0.74962,0.33663 0.74916,0.75084c-0.00046,0.41422 -0.33663,0.74962 -0.75084,0.74916c-0.41422,-0.00046 -0.74962,-0.33662 -0.74916,-0.75084z" fill="#002dff" stroke="none" stroke-width="0.5" stroke-linecap="butt"/><path d="M246.91054,190.21961c0.00046,-0.41422 0.33663,-0.74963 0.75084,-0.74916c0.41422,0.00046 0.74962,0.33663 0.74916,0.75085c-0.00046,0.41422 -0.33663,0.74962 -0.75084,0.74915c-0.41422,-0.00046 -0.74962,-0.33662 -0.74916,-0.75084z" fill="#002dff" stroke="none" stroke-width="0.5" stroke-linecap="butt"/><path d="M239.01546,177.61449c0,-1.38071 1.11929,-2.5 2.5,-2.5c1.38071,0 2.5,1.11929 2.5,2.5c0,1.38071 -1.11929,2.5 -2.5,2.5c-1.38071,0 -2.5,-1.11929 -2.5,-2.5z" fill="#797979" stroke="#00ff35" stroke-width="1" stroke-linecap="butt"/><path d="M231.78574,177.30719h5.73541" fill="none" stroke="#00ff35" stroke-width="1" stroke-linecap="round"/><path d="M245.40735,177.40963h3.58464" fill="none" stroke="#00ff35" stroke-width="1" stroke-linecap="round"/></g><path d="M206.41182,194.61416c0.69026,-2.24509 1.67901,-4.85823 1.67901,-4.85823c0,0 1.157,-3.82563 2.43168,-6.64923c1.07705,-2.38578 4.01897,-7.23098 6.28675,-11.98875c3.01466,-6.32475 5.33493,-12.49192 5.33493,-12.49192c0,0 2.0854,-5.39655 6.88679,-3.24549c4.36739,1.9566 -1.57225,6.8825 -1.57225,6.8825c0,0 -5.71624,11.5037 -6.98608,13.90819c-0.5904,1.11795 -1.67091,2.86307 -2.68526,4.66071c-0.42859,0.75954 -1.56429,3.27877 -1.97301,4.02237c-1.69961,3.09213 -2.02392,6.12244 -2.02392,6.12244c0,0 -1.95097,4.45283 -2.34165,5.04494c-0.8019,1.21535 -1.58647,4.02899 -2.17023,4.00774c-0.98336,-0.03575 0.59395,-6.13809 0.19703,-5.80703c-0.74148,0.61841 -3.0353,4.37849 -3.54991,4.22572c-0.49555,-0.14711 -0.13496,-1.8138 0.48614,-3.8339z" data-paper-data="{&quot;index&quot;:null}" fill="#a1a1a1" stroke="#000000" stroke-width="0" stroke-linecap="butt"/><path d="M230.05091,204.35558c-0.74043,-2.22903 -1.45131,-4.93104 -1.45131,-4.93104c0,0 -1.27733,-3.78715 -1.87744,-6.82646c-0.50705,-2.56806 -0.92218,-8.22125 -1.83568,-13.41209c-1.21435,-6.90041 -2.90287,-13.26962 -2.90287,-13.26962c0,0 -1.70005,-9.00667 4.74236,-9.08786c3.5018,-0.04413 1.12188,8.92465 1.12188,8.92465c0,0 2.5934,12.72787 2.95427,15.42301c0.16778,1.25308 0.3003,3.30135 0.51715,5.354c0.09164,0.86728 0.62833,3.57809 0.72687,4.42083c0.40982,3.50457 1.90392,6.16081 1.90392,6.16081c0,0 1.1746,9.8201 0.76102,10.12021c-1.20469,0.87414 -2.17154,-5.39864 -2.41426,-4.86281c-0.45852,1.01228 0.0904,5.21684 -0.41737,5.39099c-0.48896,0.16771 -1.16232,-1.39898 -1.82857,-3.40464z" data-paper-data="{&quot;index&quot;:null}" fill="#adadad" stroke="#000000" stroke-width="0" stroke-linecap="butt"/><g><path d="M230.86128,155.67091v-7.87321c0,0 6.36471,3.42314 9.45991,3.42314c3.31728,0 9.82375,-3.42314 9.82375,-3.42314v7.87321c0,0 -6.37741,0.68463 -9.58119,0.68463c-3.22398,0 -9.70247,-0.68463 -9.70247,-0.68463z" fill="url(#color-1)" stroke="none" stroke-width="0" stroke-linecap="butt"/><path d="M251.22504,117.79781c0,0 -0.26338,3.24445 -0.58861,4.57283c-0.26638,1.08795 -1.2217,2.82111 -1.2217,2.82111" data-paper-data="{&quot;index&quot;:null}" fill="none" stroke="#3b2c16" stroke-width="1.25" stroke-linecap="round"/><path d="M252.62929,121.93607c0,0 -0.18908,2.27851 -0.58872,3.23539c-0.42269,1.01206 -1.88216,2.68074 -1.88216,2.68074" data-paper-data="{&quot;index&quot;:null}" fill="none" stroke="#3b2c16" stroke-width="1.25" stroke-linecap="round"/><path d="M248.97182,116.03378c0,0 0.11659,3.27103 -0.03039,4.69304c-0.12038,1.16464 -0.78772,3.22209 -0.78772,3.22209" data-paper-data="{&quot;index&quot;:null}" fill="none" stroke="#3b2c16" stroke-width="1.25" stroke-linecap="round"/><path d="M252.55187,134.25851c0,7.39154 -8.18556,17.31455 -11.39879,17.3764c-6.69145,0.1288 -14.23242,-9.98486 -14.23242,-17.3764c0,-7.39154 5.73774,-13.38356 12.8156,-13.38356c7.07786,0 12.8156,5.99202 12.8156,13.38356z" fill="url(#color-2)" stroke="none" stroke-width="0" stroke-linecap="butt"/><path d="M241.64848,135.34168c0,2.06292 -0.85162,3.73524 -1.90215,3.73524c-1.05053,0 -1.90214,-1.67233 -1.90214,-3.73524c0,-2.06292 0.85162,-3.73523 1.90214,-3.73523c1.05053,0 1.90215,1.67232 1.90215,3.73523z" fill="none" stroke="#191412" stroke-width="1.5" stroke-linecap="butt"/><path d="M246.38252,129.77999c0,2.06292 -0.85162,3.73524 -1.90214,3.73524c-1.05053,0 -1.90215,-1.67233 -1.90215,-3.73524c0,-2.06292 0.85162,-3.73524 1.90215,-3.73524c1.05053,0 1.90214,1.67232 1.90214,3.73524z" fill="none" stroke="#191412" stroke-width="1.5" stroke-linecap="butt"/><path d="M251.07877,135.29521c0,2.06292 -0.85161,3.73524 -1.90214,3.73524c-1.05053,0 -1.90215,-1.67233 -1.90215,-3.73524c0,-2.06292 0.85162,-3.73523 1.90215,-3.73523c1.05053,0 1.90214,1.67232 1.90214,3.73523z" fill="none" stroke="#191412" stroke-width="1.5" stroke-linecap="butt"/><path d="M246.3253,140.42404c0,2.06292 -0.85162,3.73524 -1.90214,3.73524c-1.05053,0 -1.90215,-1.67233 -1.90215,-3.73524c0,-2.06292 0.85162,-3.73523 1.90215,-3.73523c1.05053,0 1.90214,1.67232 1.90214,3.73523z" fill="none" stroke="#191412" stroke-width="1.5" stroke-linecap="butt"/><path d="M232.27208,125.51316c0,0 -1.55639,-1.73224 -1.99089,-2.81993c-0.53052,-1.32806 -0.96207,-4.57226 -0.96207,-4.57226" fill="none" stroke="#47341a" stroke-width="1.5" stroke-linecap="round"/><path d="M231.06405,128.17424c0,0 -2.37686,-1.66727 -3.06571,-2.67893c-0.6513,-0.9565 -0.96105,-3.23482 -0.96105,-3.23482" fill="none" stroke="#47341a" stroke-width="1.5" stroke-linecap="round"/><path d="M234.32336,124.26912c0,0 -1.08798,-2.05681 -1.28494,-3.22133c-0.24048,-1.42187 -0.05363,-4.693 -0.05363,-4.693" fill="none" stroke="#47341a" stroke-width="1.5" stroke-linecap="round"/><path d="M248.22346,118.68141l-0.1141,-3.42313h6.73217v9.24246c0,0 -2.61174,-3.02641 -3.82969,-4.09736c-0.86469,-0.76032 -2.78838,-1.72198 -2.78838,-1.72198z" fill="url(#color-3)" stroke="url(#color-4)" stroke-width="1" stroke-linecap="butt"/><path d="M239.89382,151.31516c-9.01159,0 -16.31694,-7.84175 -16.31694,-17.51504c0,-9.67328 7.30535,-17.51503 16.31694,-17.51503c9.0116,0 16.31695,7.84174 16.31695,17.51503c0,9.67329 -7.30535,17.51504 -16.31695,17.51504z" fill="url(#color-5)" stroke="url(#color-6)" stroke-width="2.5" stroke-linecap="butt"/><path d="M229.17407,120.45734c-1.56888,1.37953 -4.93315,5.27795 -4.93315,5.27795v-11.90555h8.67195l-0.14699,4.40945c0,0 -2.47798,1.23874 -3.59181,2.21814z" data-paper-data="{&quot;index&quot;:null}" fill="url(#color-7)" stroke="url(#color-8)" stroke-width="1" stroke-linecap="butt"/></g></g></g></svg>