<svg version="1.1" xmlns="http://www.w3.org/2000/svg" xmlns:xlink="http://www.w3.org/1999/xlink" width="97.30873" height="105.86851" viewBox="0,0,97.30873,105.86851"><defs><linearGradient x1="232.05331" y1="202.54262" x2="245.28718" y2="202.54262" gradientUnits="userSpaceOnUse" id="color-1"><stop offset="0" stop-color="#515151"/><stop offset="1" stop-color="#242424"/></linearGradient><linearGradient x1="224.58993" y1="177.30136" x2="252.01047" y2="177.30136" gradientUnits="userSpaceOnUse" id="color-2"><stop offset="0" stop-color="#ffa000"/><stop offset="1" stop-color="#de6b00"/></linearGradient><radialGradient cx="219.42651" cy="194.9533" r="12.35841" gradientUnits="userSpaceOnUse" id="color-3"><stop offset="0" stop-color="#dedede"/><stop offset="1" stop-color="#9c9c9c"/></radialGradient><radialGradient cx="257.5695" cy="195.31889" r="12.35841" gradientUnits="userSpaceOnUse" id="color-4"><stop offset="0" stop-color="#dedede"/><stop offset="1" stop-color="#9c9c9c"/></radialGradient><radialGradient cx="238.52449" cy="177.75476" r="22.57159" gradientUnits="userSpaceOnUse" id="color-5"><stop offset="0" stop-color="#3c3c3c"/><stop offset="1" stop-color="#939393"/></radialGradient><linearGradient x1="239.74788" y1="156.06832" x2="239.74788" y2="162.91937" gradientUnits="userSpaceOnUse" id="color-6"><stop offset="0" stop-color="#696969"/><stop offset="1" stop-color="#a0a0a0"/></linearGradient><radialGradient cx="235.71183" cy="133.41612" r="13.11833" gradientUnits="userSpaceOnUse" id="color-7"><stop offset="0" stop-color="#dcdcdc"/><stop offset="1" stop-color="#a0a0a0"/></radialGradient><radialGradient cx="240.22191" cy="140.53847" r="9.85359" gradientUnits="userSpaceOnUse" id="color-8"><stop offset="0" stop-color="#c5dfff"/><stop offset="1" stop-color="#219cff"/></radialGradient><radialGradient cx="230.94677" cy="133.70646" r="10.07074" gradientUnits="userSpaceOnUse" id="color-9"><stop offset="0" stop-color="#303030"/><stop offset="1" stop-color="#292929"/></radialGradient><radialGradient cx="247.37487" cy="130.52661" r="2.65078" gradientUnits="userSpaceOnUse" id="color-10"><stop offset="0" stop-color="#787878"/><stop offset="1" stop-color="#292929"/></radialGradient><radialGradient cx="236.22257" cy="132.69164" r="4.17314" gradientUnits="userSpaceOnUse" id="color-11"><stop offset="0" stop-color="#a7a7a7"/><stop offset="1" stop-color="#292929"/></radialGradient></defs><g transform="translate(-190.3704,-129.64767)"><g data-paper-data="{&quot;isPaintingLayer&quot;:true}" fill-rule="nonzero" stroke-linejoin="miter" stroke-miterlimit="10" stroke-dasharray="" stroke-dashoffset="0" style="mix-blend-mode: normal"><path d="M232.05331,204.99334l2.6141,-4.90143h7.51553l3.10424,4.90143z" fill="url(#color-1)" stroke="#000000" stroke-width="0" stroke-linecap="butt"/><path d="M238.28455,201.2444c-14.02176,0.20134 -13.69397,-10.72028 -13.69397,-23.94441c0,-13.22413 0.5759,-23.94441 13.69397,-23.94441c13.63483,0 13.69397,10.72028 13.69397,23.94441c0,13.22413 1.36161,23.72823 -13.69397,23.94441z" fill="url(#color-2)" stroke="#000000" stroke-width="0" stroke-linecap="butt"/><path d="M215.00276,207.3117c0,0 4.51981,-6.93576 5.97062,-10.98881c1.49692,-4.18186 2.87688,-13.728 2.87688,-13.728l-0.28088,17.27368z" fill="url(#color-3)" stroke="#000000" stroke-width="0" stroke-linecap="butt"/><path d="M253.42663,200.23416l-0.28088,-17.27367c0,0 1.37996,9.54614 2.87688,13.728c1.45081,4.05304 5.97062,10.98881 5.97062,10.98881z" data-paper-data="{&quot;index&quot;:null}" fill="url(#color-4)" stroke="#000000" stroke-width="0" stroke-linecap="butt"/><path d="M223.5568,200.32636v-45.14319h29.93538v45.14319z" fill="url(#color-5)" stroke="#ed6b00" stroke-width="0" stroke-linecap="butt"/><g stroke="#000000" stroke-width="0" stroke-linecap="butt"><path d="M277.75637,163.72435c0,0 -2.9756,-0.52609 -6.44817,-0.01678c-0.83507,0.12247 -3.58489,0.34711 -4.44143,0.48071c-2.02718,0.31616 -4.02568,0.69634 -5.27349,0.86205c-2.68382,0.35646 -6.09403,0.73526 -6.09403,0.73526c0,0 -6.69945,0.58739 -6.95994,-0.40731c-1.52341,-5.81739 6.02393,-5.06133 6.02393,-5.06133c0,0 4.86104,-0.61437 7.71447,-0.99334c1.16127,-0.15425 2.11203,0.286 3.92015,0.11213c0.81054,-0.07794 4.32858,0.04365 6.47917,0.02473c3.58067,-0.03149 5.73882,-0.40432 5.73882,-0.40432z" data-paper-data="{&quot;index&quot;:null}" fill="#bdbdbd"/><path d="M282.94187,159.02418c-0.02499,0.20691 3.72312,0.02532 3.68403,0.90436c-0.01924,0.43235 -2.43897,0.02301 -3.27452,0.61474c-0.44228,0.31322 4.28067,-0.33599 3.79398,0.79831c-0.16709,0.38942 -3.59671,0.08886 -4.4192,0.49766c-0.44029,0.21885 5.22249,-0.03766 4.94294,0.72306c-0.16592,0.45161 -3.28915,0.00341 -4.6967,0.30591c-0.68572,0.14738 3.85534,0.38353 3.52874,0.93069c-0.19993,0.33493 -4.64292,0.32216 -4.69334,0.35907c-0.28336,0.20746 2.40452,0.94041 1.75428,1.2016c-1.19839,0.48138 -2.6184,-0.45362 -3.95223,-1.19055c-0.77931,-0.43057 -1.95933,-0.47025 -1.95933,-0.47025c0,0 -0.46274,-1.60525 -0.3514,-2.39339c0.10842,-0.76739 1.01092,-2.27483 1.01092,-2.27483c0,0 4.68472,-0.4447 4.63179,-0.00639z" data-paper-data="{&quot;index&quot;:null}" fill="#777777"/></g><g><path d="M251.94173,227.20601c0,0 -6.41594,-24.98955 -8.12079,-29.14285c-0.55746,-1.35808 -3.61557,-0.8928 -3.61557,-0.8928c0,0 -3.73171,-3.63614 -0.16131,-4.28412c3.01753,-0.54765 10.05389,0.39366 10.05389,0.39366l9.71827,32.497z" data-paper-data="{&quot;index&quot;:null}" fill="#494949" stroke="#000000" stroke-width="0" stroke-linecap="butt"/><path d="M266.73312,231.64103c-0.58323,0.10585 -2.59917,0.48559 -4.64069,0.77424c-1.24119,0.17549 -1.9819,-0.26819 -2.92578,-0.24206c-1.18829,0.0329 -2.85194,0.74167 -3.72173,0.70488c-1.60271,-0.06777 -2.47536,-0.34128 -2.47536,-0.34128c0,0 -0.44789,-0.96086 -0.56419,-1.50931c-0.15668,-0.73891 -0.29135,-2.52558 -0.29135,-2.52558c0,0 5.81752,-1.17733 8.13097,-1.3936c1.36894,-0.12797 4.28791,-0.12084 4.28791,-0.12084c0,0 1.54623,0.34503 1.83269,0.72725c0.35085,0.46812 1.21415,1.80078 1.21415,1.80078c0,0 -0.03305,1.97784 -0.84665,2.1255z" data-paper-data="{&quot;index&quot;:null}" fill="#141415" stroke="#000000" stroke-width="0" stroke-linecap="butt"/><path d="M266.00678,229.15598c-0.24423,0.04432 0.97712,1.45048 -2.33797,1.7792c-3.13051,0.31043 -2.94404,-0.67333 -4.0451,-0.55542c-2.30235,0.24656 -2.4398,1.04755 -3.45072,1.07554c-0.35207,0.00975 -0.52492,-0.02114 -1.92918,-0.63608c-0.96576,-0.42291 -0.96768,-1.6042 -1.66996,-2.11509c-1.02584,-0.74626 -1.13223,-1.71112 -1.13223,-1.71112l-0.61938,-2.98511c0,0 0.87261,2.08449 1.84528,2.74584c0.87027,0.59172 2.27631,-0.43218 2.75219,-0.51869c0.8333,-0.15148 -1.26136,-3.0925 -0.46135,-3.21916c0.43017,-0.0681 3.62111,-0.8951 3.62111,-0.8951c0,0 0.76031,3.50038 0.99312,3.47862c1.36894,-0.12797 4.64583,-0.1858 4.64583,-0.1858c0,0 1.54623,0.34503 1.8327,0.72725c0.35085,0.46812 1.14876,2.79858 1.14876,2.79858c0,0 -0.3795,0.06887 -1.19311,0.21654z" data-paper-data="{&quot;index&quot;:null}" fill="#252527" stroke="#000000" stroke-width="0" stroke-linecap="butt"/><path d="M260.56195,226.04839l-2.42994,1.55016" fill="none" stroke="#ffffff" stroke-width="0.5" stroke-linecap="round"/><path d="M262.35162,225.72359l-2.24568,1.88644" fill="none" stroke="#ffffff" stroke-width="0.5" stroke-linecap="round"/><path d="M263.46872,225.76733l-1.17189,1.69156" fill="none" stroke="#ffffff" stroke-width="0.5" stroke-linecap="round"/><path d="M258.35027,223.36879l-2.10427,0.62838" fill="none" stroke="#969696" stroke-width="0.5" stroke-linecap="round"/><path d="M258.71883,224.04133l-1.84401,0.70439" fill="none" stroke="#969696" stroke-width="0.5" stroke-linecap="round"/></g><g><path d="M229.10953,229.28119l1.33811,-33.89261c0,0 6.58175,-2.66028 9.64071,-2.87965c3.61942,-0.25956 0.90833,4.18983 0.90833,4.18983c0,0 -3.0778,0.30924 -3.28031,1.76325c-0.6193,4.44668 -0.62423,30.24671 -0.62423,30.24671z" fill="#494949" stroke="#000000" stroke-width="0" stroke-linecap="butt"/><path d="M244.84839,233.2222c0,0 -0.24593,1.96277 -1.07071,2.02192c-0.59124,0.0424 -2.63636,0.20276 -4.69709,0.26979c-1.25287,0.04075 -1.94147,-0.48015 -2.88267,-0.55585c-1.18492,-0.09532 -2.91523,0.4301 -3.776,0.29983c-1.58608,-0.24004 -2.42418,-0.60596 -2.42418,-0.60596c0,0 -0.34178,-1.00351 -0.3983,-1.56131c-0.07616,-0.75148 -0.01756,-2.54227 -0.01756,-2.54227c0,0 5.91049,-0.54374 8.23379,-0.50952c1.37476,0.02025 4.27597,0.34181 4.27597,0.34181c0,0 1.50004,0.50961 1.74368,0.92046c0.29838,0.5032 1.01308,1.92111 1.01308,1.92111z" data-paper-data="{&quot;index&quot;:null}" fill="#141415" stroke="#000000" stroke-width="0" stroke-linecap="butt"/><path d="M244.53278,232.60857c0,0 -0.3847,0.02759 -1.20948,0.08674c-0.24758,0.01776 0.81516,1.5473 -2.51605,1.51697c-3.14574,-0.02865 -2.85436,-0.98658 -3.96172,-0.98798c-2.31551,-0.00292 -2.53847,0.7786 -3.54652,0.69751c-0.35107,-0.02824 -0.51959,-0.07757 -1.84942,-0.84021c-0.91457,-0.52449 -0.78922,-1.69912 -1.43237,-2.28269c-0.93947,-0.85244 -0.94129,-1.82314 -0.94129,-1.82314l-0.29418,-3.03446c0,0 0.64296,2.16638 1.53872,2.92867c0.80146,0.68203 2.30962,-0.18443 2.79205,-0.21917c0.84476,-0.06082 -0.92085,-3.2104 -0.11186,-3.25013c0.43501,-0.02136 3.69647,-0.49977 3.69647,-0.49977c0,0 0.37878,3.56191 0.61258,3.56535c1.37475,0.02026 4.63881,0.31579 4.63881,0.31579c0,0 1.50004,0.50961 1.74368,0.92046c0.29839,0.5032 0.84057,2.90605 0.84057,2.90605z" data-paper-data="{&quot;index&quot;:null}" fill="#252527" stroke="#000000" stroke-width="0" stroke-linecap="butt"/><path d="M238.24495,229.01919l-2.58281,1.27937" fill="none" stroke="#ffffff" stroke-width="0.5" stroke-linecap="round"/><path d="M240.05917,228.8891l-2.43583,1.63353" fill="none" stroke="#ffffff" stroke-width="0.5" stroke-linecap="round"/><path d="M241.16506,229.05292l-1.34731,1.55548" fill="none" stroke="#ffffff" stroke-width="0.5" stroke-linecap="round"/><path d="M234.17508,226.51495l2.15973,-0.39803" fill="none" stroke="#969696" stroke-width="0.5" stroke-linecap="round"/><path d="M234.7196,227.32689l1.90916,-0.50163" fill="none" stroke="#969696" stroke-width="0.5" stroke-linecap="round"/></g><path d="M235.9198,162.91937v-6.85104h7.65615v6.85104z" fill="url(#color-6)" stroke="#000000" stroke-width="0" stroke-linecap="butt"/><path d="M252.80945,143.64573c0,7.73092 -5.73774,13.99807 -12.8156,13.99807c-7.07786,0 -12.8156,-6.26715 -12.8156,-13.99807c0,-7.73092 5.73774,-13.99806 12.8156,-13.99806c7.07786,0 12.8156,6.26714 12.8156,13.99806z" fill="url(#color-7)" stroke="none" stroke-width="0" stroke-linecap="butt"/><path d="M229.82836,194.84552c0,0 0.01297,-5.5622 -0.6558,-10.92984c-0.45441,-3.64728 -1.59703,-6.91759 -1.82297,-9.40649c-0.42408,-4.67137 -0.58124,-13.37126 -0.58124,-13.37126c0,0 3.67416,-0.68684 5.46124,-0.37004c2.27486,0.40327 7.08114,2.59345 7.08114,2.59345c0,0 3.61533,-2.27166 5.51648,-2.74078c2.00596,-0.49499 6.22176,-0.15569 6.22176,-0.15569c0,0 0.18638,9.21548 0.1239,12.65772c-0.05528,3.04555 -0.71277,6.39031 -0.88172,10.90155c-0.17413,4.64957 0.141,10.42164 0.141,10.42164c0,0 -2.77723,-0.69263 -5.59294,-0.68282c-1.2787,0.00445 -1.76269,1.05537 -2.96507,1.24796c-0.96106,0.15393 -2.6522,-0.53962 -3.5777,-0.55073c-0.69965,-0.0084 -2.05769,-0.47376 -2.55185,-0.46418c-0.9978,0.01936 -1.59112,0.90973 -2.74399,1.1011c-1.33919,0.22229 -3.17229,-0.25158 -3.17229,-0.25158z" fill="#d0d0d0" stroke="#292e32" stroke-width="0" stroke-linecap="butt"/><path d="M242.7359,170.5071l-0.12126,-5.82045l7.63934,0.36378v5.21415z" fill="#f200ff" stroke="none" stroke-width="0" stroke-linecap="butt"/><g stroke="#000000" stroke-width="0" stroke-linecap="butt"><path d="M197.96417,168.40999c0,0 2.18752,-0.28758 5.5739,-1.4515c2.0339,-0.69907 5.29794,-2.02108 6.0938,-2.2017c1.77541,-0.40296 2.48891,-1.23677 3.64678,-1.44577c2.84508,-0.51356 7.67895,-1.42499 7.67895,-1.42499c0,0 7.17126,-3.4069 8.23407,4.17524c0.16967,1.21043 -6.85239,2.53596 -6.85239,2.53596c0,0 -3.36953,0.70048 -6.0455,1.18351c-1.24416,0.22457 -3.28428,0.45005 -5.32497,0.75999c-0.86223,0.13097 -3.54582,0.79033 -4.38321,0.92707c-3.48231,0.5687 -6.06787,2.182 -6.06787,2.182z" fill="#bdbdbd"/><path d="M193.49262,170.01072c-0.2325,-0.49442 4.36242,-1.55655 4.36242,-1.55655c0,0 1.47779,1.45716 1.89967,2.31746c0.43331,0.88359 0.6668,2.91605 0.6668,2.91605c0,0 -1.09418,0.44485 -1.64825,1.21124c-0.94835,1.31173 -1.89524,2.88404 -3.22391,2.72606c-0.72093,-0.08571 1.50362,-1.84999 1.15043,-1.99678c-0.06284,-0.02612 -4.23959,1.48908 -4.56736,1.16513c-0.53545,-0.52923 3.64048,-2.33861 2.93361,-2.27933c-1.45097,0.12171 -4.20395,1.70018 -4.54836,1.22838c-0.58019,-0.79477 4.85693,-2.4071 4.35128,-2.51421c-0.94455,-0.20008 -4.04749,1.3093 -4.36707,0.91057c-0.93087,-1.16143 3.78528,-1.99743 3.23843,-2.21417c-1.0331,-0.40948 -3.14012,0.88603 -3.33842,0.38718c-0.40318,-1.01422 3.2005,-2.06761 3.09075,-2.30101z" data-paper-data="{&quot;index&quot;:null}" fill="#777777"/></g><g stroke-linecap="butt"><path d="M253.02025,143.26413c0,3.74486 0.0384,8.21376 -9.59547,8.69146c-10.76272,0.53367 -10.10384,-4.9466 -10.10384,-8.69146c0,-3.74486 4.40985,-6.78067 9.84967,-6.78067c5.43982,0 9.84967,3.03581 9.84967,6.78067z" data-paper-data="{&quot;index&quot;:null}" fill="url(#color-8)" stroke="#ed6b00" stroke-width="0"/><path d="M233.63717,133.71599c-0.16984,0.01553 -0.60661,0.06221 -1.07903,0.1438c-0.52185,0.20742 -1.13106,0.41772 -1.59752,0.64771c-0.28909,0.89276 0.78709,1.80702 -0.65422,2.4752c-2.45813,1.13958 -1.71655,-2.03888 -0.89769,-3.03685c1.27069,-1.10653 3.14359,-1.2394 4.75566,-1.549c2.22048,-0.42645 4.38435,-1.08334 6.57971,-1.21737c0.08249,-0.08622 0.19535,-0.14411 0.32353,-0.15569l0.58612,-0.0529c0.29539,-0.07774 0.61637,-0.15861 0.95355,-0.23507c0.87645,-0.27394 1.93099,-0.41625 2.91353,-0.50866c0.4818,-0.09462 0.9333,-0.1389 1.30669,-0.10536c0.27388,-0.02025 0.5286,-0.03932 0.7561,-0.05986l0.61787,-0.05577c0.28142,-0.0254 0.53014,0.18214 0.55554,0.46356c0.0226,0.25047 -0.13931,0.47504 -0.37361,0.53931l-0.32968,0.09745c0.145,0.12181 0.27656,0.26112 0.39244,0.4197l0.23414,-0.11908l0.29765,0.58522c0.03177,0.05903 0.05238,0.12532 0.05879,0.19629c0.0254,0.28142 -0.18214,0.53014 -0.46355,0.55553c-0.08558,0.00772 -0.16814,-0.00609 -0.24232,-0.03698l-0.50702,-0.19878l0.00585,-0.01492l-0.04787,-0.00377c-0.36209,-0.22374 -0.73047,-0.39249 -1.09838,-0.50678c-0.55947,-0.02006 -1.148,-0.08122 -1.74789,-0.1302c-1.01464,0.1745 -1.9334,0.80247 -2.5904,1.87097c0,0 -0.26893,0.43524 -0.70416,0.1663c-0.43523,-0.26893 -0.1663,-0.70417 -0.1663,-0.70417c0.0575,-0.09265 0.11686,-0.18277 0.17799,-0.27034l-0.28392,0.09053c-0.03801,0.01299 -0.07817,0.02169 -0.11996,0.02546c-0.28142,0.0254 -0.53014,-0.18214 -0.55553,-0.46356c-0.01286,-0.14243 0.03395,-0.27647 0.11981,-0.37743c-0.2451,0.00049 -0.4766,0.01384 -0.6735,0.06241c-1.37524,0.33924 -3.48763,0.45199 -5.48058,0.75785c0.01121,0.24126 -0.14794,0.45435 -0.37516,0.51668l-0.59763,0.17665l-0.00571,-0.01931l-0.00747,0.00194z" fill="url(#color-9)" stroke="none" stroke-width="0.5"/><path d="M248.73121,129.98496c2.70896,-0.28418 2.68558,-0.24349 2.90043,1.58673c0.21485,1.83022 -0.78194,3.36186 -2.22639,3.42102c-1.44446,0.05917 -2.7896,-1.37656 -3.00445,-3.20678c-0.21485,-1.83022 -0.20983,-1.53449 2.33041,-1.80097z" data-paper-data="{&quot;index&quot;:null}" fill="url(#color-10)" stroke="#000000" stroke-width="0"/><path d="M242.11119,132.66582c0.35755,1.99142 -1.17444,3.9329 -3.4218,4.33639c-2.24735,0.40349 -4.35904,-0.88377 -4.71659,-2.8752c-0.35755,-1.99142 -0.40888,-2.02662 3.87102,-2.60142c4.01334,-0.53901 3.90982,-0.85119 4.26737,1.14023z" fill="url(#color-11)" stroke="#000000" stroke-width="0"/></g></g></g></svg>