<svg version="1.1" xmlns="http://www.w3.org/2000/svg" xmlns:xlink="http://www.w3.org/1999/xlink" width="240" height="210.66934" viewBox="0,0,240,210.66934"><defs><linearGradient x1="131.30869" y1="156.02043" x2="131.30869" y2="173.93104" gradientUnits="userSpaceOnUse" id="color-1"><stop offset="0" stop-color="#000000"/><stop offset="1" stop-color="#2b2b2b"/></linearGradient><linearGradient x1="327.30462" y1="74.52343" x2="327.30462" y2="175.02342" gradientUnits="userSpaceOnUse" id="color-2"><stop offset="0" stop-color="#000000"/><stop offset="1" stop-color="#2b2b2b"/></linearGradient><radialGradient cx="166.74931" cy="123.8528" r="44.01307" gradientUnits="userSpaceOnUse" id="color-3"><stop offset="0" stop-color="#696969"/><stop offset="1" stop-color="#2e2e2e"/></radialGradient><radialGradient cx="166.74931" cy="123.8528" r="44.01307" gradientUnits="userSpaceOnUse" id="color-4"><stop offset="0" stop-color="#e0e0e0"/><stop offset="1" stop-color="#7d7d7d"/></radialGradient><radialGradient cx="229.01576" cy="76.53123" r="34.5" gradientUnits="userSpaceOnUse" id="color-5"><stop offset="0" stop-color="#94c9e0"/><stop offset="1" stop-color="#41687d"/></radialGradient><radialGradient cx="211.68377" cy="90.15431" r="34.5" gradientUnits="userSpaceOnUse" id="color-6"><stop offset="0" stop-color="#b6cee0"/><stop offset="1" stop-color="#4d697d"/></radialGradient><radialGradient cx="198.50929" cy="77.54953" r="44.16667" gradientUnits="userSpaceOnUse" id="color-7"><stop offset="0" stop-color="#e19641"/><stop offset="1" stop-color="#7d4800"/></radialGradient><radialGradient cx="202.62933" cy="71.53484" r="44.16667" gradientUnits="userSpaceOnUse" id="color-8"><stop offset="0" stop-color="#e0ccb5"/><stop offset="1" stop-color="#7d694d"/></radialGradient><linearGradient x1="168.87997" y1="74.23474" x2="156.30983" y2="83.66168" gradientUnits="userSpaceOnUse" id="color-9"><stop offset="0" stop-color="#191919"/><stop offset="1" stop-color="#000000"/></linearGradient><linearGradient x1="192.71744" y1="101.533" x2="180.1473" y2="110.95994" gradientUnits="userSpaceOnUse" id="color-10"><stop offset="0" stop-color="#191919"/><stop offset="1" stop-color="#000000"/></linearGradient><linearGradient x1="165.13212" y1="78.50425" x2="185.49652" y2="105.65868" gradientUnits="userSpaceOnUse" id="color-11"><stop offset="0" stop-color="#303030"/><stop offset="1" stop-color="#212121"/></linearGradient><radialGradient cx="175.89805" cy="85.01144" r="17.57007" gradientUnits="userSpaceOnUse" id="color-12"><stop offset="0" stop-color="#626262"/><stop offset="1" stop-color="#2e2e2e"/></radialGradient><radialGradient cx="176.23009" cy="90.29802" r="4.876" gradientUnits="userSpaceOnUse" id="color-13"><stop offset="0" stop-color="#fff67b"/><stop offset="1" stop-color="#ffd300"/></radialGradient><linearGradient x1="165.46735" y1="99.2166" x2="167.31812" y2="97.82863" gradientUnits="userSpaceOnUse" id="color-14"><stop offset="0" stop-color="#2b281f"/><stop offset="1" stop-color="#1f1c15"/></linearGradient><linearGradient x1="165.46735" y1="99.2166" x2="167.31812" y2="97.82863" gradientUnits="userSpaceOnUse" id="color-15"><stop offset="0" stop-color="#464646"/><stop offset="1" stop-color="#353535"/></linearGradient><radialGradient cx="161.42643" cy="89.64581" r="20.51445" gradientUnits="userSpaceOnUse" id="color-16"><stop offset="0" stop-color="#e8e46e"/><stop offset="1" stop-color="#b59317"/></radialGradient><linearGradient x1="166.61047" y1="98.35933" x2="169.44106" y2="96.23653" gradientUnits="userSpaceOnUse" id="color-17"><stop offset="0" stop-color="#464646"/><stop offset="1" stop-color="#353535"/></linearGradient><linearGradient x1="184.61996" y1="62.43056" x2="172.95953" y2="71.17528" gradientUnits="userSpaceOnUse" id="color-18"><stop offset="0" stop-color="#191919"/><stop offset="1" stop-color="#000000"/></linearGradient><linearGradient x1="206.30359" y1="91.34409" x2="194.64316" y2="100.0888" gradientUnits="userSpaceOnUse" id="color-19"><stop offset="0" stop-color="#191919"/><stop offset="1" stop-color="#000000"/></linearGradient><linearGradient x1="199.45944" y1="73.72432" x2="197.60867" y2="75.1123" gradientUnits="userSpaceOnUse" id="color-20"><stop offset="0" stop-color="#2b281f"/><stop offset="1" stop-color="#1f1c15"/></linearGradient><linearGradient x1="199.45944" y1="73.72432" x2="197.60867" y2="75.1123" gradientUnits="userSpaceOnUse" id="color-21"><stop offset="0" stop-color="#464646"/><stop offset="1" stop-color="#353535"/></linearGradient><linearGradient x1="179.78385" y1="67.51622" x2="200.14825" y2="94.67064" gradientUnits="userSpaceOnUse" id="color-22"><stop offset="0" stop-color="#303030"/><stop offset="1" stop-color="#212121"/></linearGradient><radialGradient cx="190.54979" cy="74.0234" r="17.57006" gradientUnits="userSpaceOnUse" id="color-23"><stop offset="0" stop-color="#626262"/><stop offset="1" stop-color="#2e2e2e"/></radialGradient><radialGradient cx="191.40337" cy="67.16465" r="20.51446" gradientUnits="userSpaceOnUse" id="color-24"><stop offset="0" stop-color="#e8e46e"/><stop offset="1" stop-color="#b59317"/></radialGradient><linearGradient x1="198.31632" y1="74.58159" x2="195.48573" y2="76.70439" gradientUnits="userSpaceOnUse" id="color-25"><stop offset="0" stop-color="#464646"/><stop offset="1" stop-color="#353535"/></linearGradient><radialGradient cx="190.88183" cy="79.30999" r="4.876" gradientUnits="userSpaceOnUse" id="color-26"><stop offset="0" stop-color="#fff67b"/><stop offset="1" stop-color="#ffd300"/></radialGradient><radialGradient cx="176.07815" cy="78.65778" r="20.51446" gradientUnits="userSpaceOnUse" id="color-27"><stop offset="0" stop-color="#e8e46e"/><stop offset="1" stop-color="#b59317"/></radialGradient><linearGradient x1="181.26221" y1="87.37129" x2="184.0928" y2="85.2485" gradientUnits="userSpaceOnUse" id="color-28"><stop offset="0" stop-color="#464646"/><stop offset="1" stop-color="#353535"/></linearGradient><linearGradient x1="193.4532" y1="107.00134" x2="180.88306" y2="116.42828" gradientUnits="userSpaceOnUse" id="color-29"><stop offset="0" stop-color="#191919"/><stop offset="1" stop-color="#000000"/></linearGradient><linearGradient x1="217.29067" y1="134.2996" x2="204.72053" y2="143.72654" gradientUnits="userSpaceOnUse" id="color-30"><stop offset="0" stop-color="#191919"/><stop offset="1" stop-color="#000000"/></linearGradient><linearGradient x1="189.70535" y1="111.27085" x2="210.06975" y2="138.42528" gradientUnits="userSpaceOnUse" id="color-31"><stop offset="0" stop-color="#303030"/><stop offset="1" stop-color="#212121"/></linearGradient><radialGradient cx="200.47129" cy="117.77803" r="17.57006" gradientUnits="userSpaceOnUse" id="color-32"><stop offset="0" stop-color="#626262"/><stop offset="1" stop-color="#2e2e2e"/></radialGradient><radialGradient cx="200.80332" cy="123.0646" r="4.876" gradientUnits="userSpaceOnUse" id="color-33"><stop offset="0" stop-color="#fff67b"/><stop offset="1" stop-color="#ffd300"/></radialGradient><linearGradient x1="190.04059" y1="131.9832" x2="191.89135" y2="130.59523" gradientUnits="userSpaceOnUse" id="color-34"><stop offset="0" stop-color="#2b281f"/><stop offset="1" stop-color="#1f1c15"/></linearGradient><linearGradient x1="190.04059" y1="131.9832" x2="191.89135" y2="130.59523" gradientUnits="userSpaceOnUse" id="color-35"><stop offset="0" stop-color="#464646"/><stop offset="1" stop-color="#353535"/></linearGradient><radialGradient cx="185.99967" cy="122.41241" r="20.51445" gradientUnits="userSpaceOnUse" id="color-36"><stop offset="0" stop-color="#e8e46e"/><stop offset="1" stop-color="#b59317"/></radialGradient><linearGradient x1="191.1837" y1="131.12593" x2="194.0143" y2="129.00313" gradientUnits="userSpaceOnUse" id="color-37"><stop offset="0" stop-color="#464646"/><stop offset="1" stop-color="#353535"/></linearGradient><linearGradient x1="209.1932" y1="95.19716" x2="197.53277" y2="103.94187" gradientUnits="userSpaceOnUse" id="color-38"><stop offset="0" stop-color="#191919"/><stop offset="1" stop-color="#000000"/></linearGradient><linearGradient x1="230.87683" y1="124.11069" x2="219.2164" y2="132.8554" gradientUnits="userSpaceOnUse" id="color-39"><stop offset="0" stop-color="#191919"/><stop offset="1" stop-color="#000000"/></linearGradient><linearGradient x1="224.03267" y1="106.49092" x2="222.18191" y2="107.8789" gradientUnits="userSpaceOnUse" id="color-40"><stop offset="0" stop-color="#2b281f"/><stop offset="1" stop-color="#1f1c15"/></linearGradient><linearGradient x1="224.03267" y1="106.49092" x2="222.18191" y2="107.8789" gradientUnits="userSpaceOnUse" id="color-41"><stop offset="0" stop-color="#464646"/><stop offset="1" stop-color="#353535"/></linearGradient><linearGradient x1="204.35709" y1="100.28282" x2="224.72148" y2="127.43723" gradientUnits="userSpaceOnUse" id="color-42"><stop offset="0" stop-color="#303030"/><stop offset="1" stop-color="#212121"/></linearGradient><radialGradient cx="215.12302" cy="106.79" r="17.57006" gradientUnits="userSpaceOnUse" id="color-43"><stop offset="0" stop-color="#626262"/><stop offset="1" stop-color="#2e2e2e"/></radialGradient><radialGradient cx="215.97661" cy="99.93126" r="20.51446" gradientUnits="userSpaceOnUse" id="color-44"><stop offset="0" stop-color="#e8e46e"/><stop offset="1" stop-color="#b59317"/></radialGradient><linearGradient x1="222.88956" y1="107.3482" x2="220.05897" y2="109.47099" gradientUnits="userSpaceOnUse" id="color-45"><stop offset="0" stop-color="#464646"/><stop offset="1" stop-color="#353535"/></linearGradient><radialGradient cx="215.45505" cy="112.07657" r="4.876" gradientUnits="userSpaceOnUse" id="color-46"><stop offset="0" stop-color="#fff67b"/><stop offset="1" stop-color="#ffd300"/></radialGradient><radialGradient cx="200.65139" cy="111.42437" r="20.51446" gradientUnits="userSpaceOnUse" id="color-47"><stop offset="0" stop-color="#e8e46e"/><stop offset="1" stop-color="#b59317"/></radialGradient><linearGradient x1="205.83544" y1="120.13789" x2="208.66603" y2="118.01509" gradientUnits="userSpaceOnUse" id="color-48"><stop offset="0" stop-color="#464646"/><stop offset="1" stop-color="#353535"/></linearGradient><radialGradient cx="202.71775" cy="70.83736" r="45.17923" gradientUnits="userSpaceOnUse" id="color-49"><stop offset="0" stop-color="#909090"/><stop offset="1" stop-color="#5d5d5d"/></radialGradient><radialGradient cx="201.59388" cy="66.26367" r="45.17923" gradientUnits="userSpaceOnUse" id="color-50"><stop offset="0" stop-color="#181818"/><stop offset="1" stop-color="#000000"/></radialGradient><linearGradient x1="246.17566" y1="13.13758" x2="295.32817" y2="78.57501" gradientUnits="userSpaceOnUse" id="color-51"><stop offset="0" stop-color="#656565" stop-opacity="0.58031"/><stop offset="1" stop-color="#4b4b4b" stop-opacity="0.63676"/></linearGradient><linearGradient x1="246.17566" y1="13.13758" x2="295.32817" y2="78.57501" gradientUnits="userSpaceOnUse" id="color-52"><stop offset="0" stop-color="#454545"/><stop offset="1" stop-color="#000000"/></linearGradient><linearGradient x1="212.8068" y1="38.53591" x2="261.71457" y2="103.64749" gradientUnits="userSpaceOnUse" id="color-53"><stop offset="0" stop-color="#454545"/><stop offset="1" stop-color="#000000"/></linearGradient><linearGradient x1="235.13088" y1="21.77702" x2="284.03864" y2="86.88862" gradientUnits="userSpaceOnUse" id="color-54"><stop offset="0" stop-color="#454545"/><stop offset="1" stop-color="#000000"/></linearGradient><linearGradient x1="257.45495" y1="5.01816" x2="306.36273" y2="70.12975" gradientUnits="userSpaceOnUse" id="color-55"><stop offset="0" stop-color="#454545"/><stop offset="1" stop-color="#000000"/></linearGradient><linearGradient x1="279.77902" y1="-11.74071" x2="328.68682" y2="53.3709" gradientUnits="userSpaceOnUse" id="color-56"><stop offset="0" stop-color="#454545"/><stop offset="1" stop-color="#000000"/></linearGradient><radialGradient cx="308.54103" cy="-9.89927" r="45.17923" gradientUnits="userSpaceOnUse" id="color-57"><stop offset="0" stop-color="#909090"/><stop offset="1" stop-color="#5d5d5d"/></radialGradient><radialGradient cx="311.67441" cy="-11.83249" r="45.17922" gradientUnits="userSpaceOnUse" id="color-58"><stop offset="0" stop-color="#181818"/><stop offset="1" stop-color="#000000"/></radialGradient><radialGradient cx="163.11675" cy="100.53602" r="45.17923" gradientUnits="userSpaceOnUse" id="color-59"><stop offset="0" stop-color="#909090"/><stop offset="1" stop-color="#5d5d5d"/></radialGradient><radialGradient cx="161.99288" cy="95.96233" r="45.17923" gradientUnits="userSpaceOnUse" id="color-60"><stop offset="0" stop-color="#181818"/><stop offset="1" stop-color="#000000"/></radialGradient><radialGradient cx="190.52957" cy="175.23848" r="119.5" gradientUnits="userSpaceOnUse" id="color-61"><stop offset="0" stop-color="#696969"/><stop offset="1" stop-color="#2e2e2e"/></radialGradient><radialGradient cx="173.1828" cy="172.65426" r="119.5" gradientUnits="userSpaceOnUse" id="color-62"><stop offset="0" stop-color="#2d2d2d"/><stop offset="1" stop-color="#0c0c0c"/></radialGradient><radialGradient cx="230.75" cy="81.02365" r="88.22216" gradientUnits="userSpaceOnUse" id="color-63"><stop offset="0" stop-color="#c3f1f7" stop-opacity="0.47059"/><stop offset="1" stop-color="#c3f1f7" stop-opacity="0"/></radialGradient><radialGradient cx="209.67441" cy="63.66751" r="45.17922" gradientUnits="userSpaceOnUse" id="color-64"><stop offset="0" stop-color="#181818"/><stop offset="1" stop-color="#000000"/></radialGradient><radialGradient cx="222.25" cy="81.52365" r="57.70588" gradientUnits="userSpaceOnUse" id="color-65"><stop offset="0" stop-color="#c9f9ff" stop-opacity="0.39608"/><stop offset="1" stop-color="#c9f9ff" stop-opacity="0"/></radialGradient><radialGradient cx="222.25" cy="81.52365" r="57.70588" gradientUnits="userSpaceOnUse" id="color-66"><stop offset="0" stop-color="#000000" stop-opacity="0"/><stop offset="1" stop-color="#000000" stop-opacity="0"/></radialGradient></defs><g transform="translate(-120,30.85966)"><g data-paper-data="{&quot;isPaintingLayer&quot;:true}" fill-rule="nonzero" stroke-linejoin="miter" stroke-miterlimit="10" stroke-dasharray="" stroke-dashoffset="0" style="mix-blend-mode: normal"><path d="M136.28405,156.02043l-9.95071,17.91061" data-paper-data="{&quot;index&quot;:null}" fill="none" stroke="url(#color-1)" stroke-width="3" stroke-linecap="round"/><path d="M353.11894,175.02343l-51.62864,-100.5" fill="none" stroke="url(#color-2)" stroke-width="3" stroke-linecap="round"/><path d="M192.74814,158.52034c-19.07271,14.30353 -46.17428,10.37765 -60.53304,-8.7687c-14.35876,-19.14635 -10.53734,-46.26284 8.53537,-60.56638c19.07271,-14.30353 46.17428,-10.37766 60.53304,8.76869c14.35876,19.14635 10.53734,46.26285 -8.53537,60.56639z" fill="url(#color-3)" stroke="url(#color-4)" stroke-width="1.5" stroke-linecap="butt"/><path d="M232.38284,117.755c-14.0652,10.54817 -34.7346,6.7419 -46.16638,-8.50155c-11.43178,-15.24345 -9.29698,-36.15166 4.76823,-46.69984c14.0652,-10.54817 34.7346,-6.7419 46.16638,8.50155c11.43179,15.24345 9.29698,36.15167 -4.76823,46.69984z" fill="url(#color-5)" stroke="url(#color-6)" stroke-width="1.5" stroke-linecap="butt"/><path d="M149.98406,81.21891l38.66764,-28.99871l52.99764,70.66845l-38.66764,28.99871z" fill="url(#color-7)" stroke="url(#color-8)" stroke-width="1.5" stroke-linecap="butt"/><path d="M156.28363,83.62673l14.75371,-10.95532" fill="none" stroke="url(#color-9)" stroke-width="0.5" stroke-linecap="round"/><path d="M192.74364,101.56794l-12.62254,9.35706" fill="none" stroke="url(#color-10)" stroke-width="0.5" stroke-linecap="round"/><path d="M159.24159,82.92184l11.78106,-8.83517l20.36439,27.15442l-11.78106,8.83518z" fill="url(#color-11)" stroke="none" stroke-width="0.5" stroke-linecap="butt"/><path d="M159.71623,81.69239l9.85356,-7.38965l21.08314,28.11281l-9.85356,7.38966z" fill="url(#color-12)" stroke="none" stroke-width="0.5" stroke-linecap="butt"/><path d="M179.61681,89.59633l-5.94177,1.31837l2.8584,2.03504l-5.94178,1.31838" fill="none" stroke="url(#color-13)" stroke-width="1.5" stroke-linecap="round"/><path d="M179.44254,113.99565l-1.85077,1.38799l-24.24885,-32.33405l1.85077,-1.38799z" data-paper-data="{&quot;index&quot;:null}" fill="url(#color-14)" stroke="url(#color-15)" stroke-width="0.5" stroke-linecap="butt"/><path d="M181.74919,112.64851l-2.83059,2.12279l-24.61625,-32.82396l2.83059,-2.12279z" data-paper-data="{&quot;index&quot;:null}" fill="url(#color-16)" stroke="url(#color-17)" stroke-width="0.5" stroke-linecap="butt"/><path d="M184.64616,62.46549l-11.71283,8.67483" fill="none" stroke="url(#color-18)" stroke-width="0.5" stroke-linecap="round"/><path d="M206.3298,91.37903l-11.71284,8.67483" fill="none" stroke="url(#color-19)" stroke-width="0.5" stroke-linecap="round"/><path d="M185.48425,58.94527l1.85077,-1.38798l24.24885,32.33405l-1.85077,1.38799z" fill="url(#color-20)" stroke="url(#color-21)" stroke-width="0.5" stroke-linecap="butt"/><path d="M173.89332,71.93381l11.78106,-8.83517l20.3644,27.15442l-11.78106,8.83518z" fill="url(#color-22)" stroke="none" stroke-width="0.5" stroke-linecap="butt"/><path d="M174.36796,70.70436l9.85356,-7.38966l21.08315,28.11282l-9.85356,7.38966z" fill="url(#color-23)" stroke="none" stroke-width="0.5" stroke-linecap="butt"/><path d="M183.1776,60.29241l2.83059,-2.12279l24.61625,32.82396l-2.83059,2.12279z" fill="url(#color-24)" stroke="url(#color-25)" stroke-width="0.5" stroke-linecap="butt"/><path d="M194.26855,78.6083l-5.94177,1.31837l2.8584,2.03504l-5.94177,1.31837" fill="none" stroke="url(#color-26)" stroke-width="1.5" stroke-linecap="round"/><path d="M196.40092,101.66048l-2.83059,2.12279l-24.61625,-32.82396l2.83059,-2.1228z" data-paper-data="{&quot;index&quot;:null}" fill="url(#color-27)" stroke="url(#color-28)" stroke-width="0.5" stroke-linecap="butt"/><path d="M180.85686,116.39333l14.7537,-10.95532" fill="none" stroke="url(#color-29)" stroke-width="0.5" stroke-linecap="round"/><path d="M204.69432,143.6916l12.62254,-9.35706" fill="none" stroke="url(#color-30)" stroke-width="0.5" stroke-linecap="round"/><path d="M183.81483,115.68844l11.78106,-8.83517l20.3644,27.15442l-11.78106,8.83517z" fill="url(#color-31)" stroke="none" stroke-width="0.5" stroke-linecap="butt"/><path d="M184.28947,114.459l9.85356,-7.38966l21.08314,28.11281l-9.85355,7.38966z" fill="url(#color-32)" stroke="none" stroke-width="0.5" stroke-linecap="butt"/><path d="M204.19005,122.36293l-5.94176,1.31837l2.85839,2.03503l-5.94177,1.31837" fill="none" stroke="url(#color-33)" stroke-width="1.5" stroke-linecap="round"/><path d="M204.01578,146.76225l-1.85077,1.38799l-24.24885,-32.33404l1.85077,-1.38799z" data-paper-data="{&quot;index&quot;:null}" fill="url(#color-34)" stroke="url(#color-35)" stroke-width="0.5" stroke-linecap="butt"/><path d="M206.32242,145.4151l-2.83058,2.12279l-24.61625,-32.82396l2.83058,-2.12279z" data-paper-data="{&quot;index&quot;:null}" fill="url(#color-36)" stroke="url(#color-37)" stroke-width="0.5" stroke-linecap="butt"/><path d="M197.50656,103.90693l11.71284,-8.67483" fill="none" stroke="url(#color-38)" stroke-width="0.5" stroke-linecap="round"/><path d="M230.90302,124.14562l-11.71283,8.67483" fill="none" stroke="url(#color-39)" stroke-width="0.5" stroke-linecap="round"/><path d="M210.05749,91.71187l1.85077,-1.38799l24.24884,32.33406l-1.85077,1.38799z" fill="url(#color-40)" stroke="url(#color-41)" stroke-width="0.5" stroke-linecap="butt"/><path d="M198.46656,104.70041l11.78106,-8.83518l20.3644,27.15443l-11.78106,8.83517z" fill="url(#color-42)" stroke="none" stroke-width="0.5" stroke-linecap="butt"/><path d="M198.9412,103.47096l9.85356,-7.38965l21.08315,28.11281l-9.85356,7.38966z" fill="url(#color-43)" stroke="none" stroke-width="0.5" stroke-linecap="butt"/><path d="M207.75084,93.05901l2.83059,-2.1228l24.61625,32.82397l-2.83059,2.12279z" fill="url(#color-44)" stroke="url(#color-45)" stroke-width="0.5" stroke-linecap="butt"/><path d="M218.84179,111.3749l-5.94177,1.31837l2.8584,2.03504l-5.94177,1.31837" fill="none" stroke="url(#color-46)" stroke-width="1.5" stroke-linecap="round"/><path d="M220.97415,134.42707l-2.83059,2.12279l-24.61625,-32.82396l2.83059,-2.12279z" data-paper-data="{&quot;index&quot;:null}" fill="url(#color-47)" stroke="url(#color-48)" stroke-width="0.5" stroke-linecap="butt"/><path d="M184.86687,53.793l5.23166,-3.92347l54.21265,72.28858l-5.23166,3.92347z" fill="url(#color-49)" stroke="url(#color-50)" stroke-width="1.5" stroke-linecap="butt"/><path d="M242.92814,117.91215l-49.15251,-65.43743l104.80008,-78.67426l49.15251,65.43743z" fill="url(#color-51)" stroke="url(#color-52)" stroke-width="2" stroke-linecap="butt"/><path d="M261.71457,103.64749l-48.90777,-65.1116" fill="none" stroke="url(#color-53)" stroke-width="2" stroke-linecap="round"/><path d="M284.03864,86.88862l-48.90776,-65.11159" fill="none" stroke="url(#color-54)" stroke-width="2" stroke-linecap="round"/><path d="M306.36273,70.12975l-48.90776,-65.11159" fill="none" stroke="url(#color-55)" stroke-width="2" stroke-linecap="round"/><path d="M279.77905,-11.74069l48.90776,65.11159" fill="none" stroke="url(#color-56)" stroke-width="2" stroke-linecap="round"/><path d="M218.70123,84.93118l104.10141,-78.14976" fill="none" stroke="#232323" stroke-width="2" stroke-linecap="round"/><path d="M292.61361,-25.8862l5.23166,-3.92347l54.21265,72.28858l-5.23166,3.92347z" fill="url(#color-57)" stroke="url(#color-58)" stroke-width="1.5" stroke-linecap="butt"/><path d="M145.26587,83.49166l5.23166,-3.92347l54.21265,72.28857l-5.23166,3.92347z" fill="url(#color-59)" stroke="url(#color-60)" stroke-width="1.5" stroke-linecap="butt"/><path d="M120.5,179.30967v-5.92732h239v5.92733z" fill="url(#color-61)" stroke="url(#color-62)" stroke-width="1" stroke-linecap="butt"/><path d="M190.61361,49.61379l96.73166,-69.7568l52.71265,69.62191l-95.23166,72.42347z" fill="url(#color-63)" stroke="url(#color-64)" stroke-width="0" stroke-linecap="butt"/><path d="M276.75,81.52365c0,29.82338 -24.40048,54 -54.5,54c-30.09952,0 -54.5,-24.17662 -54.5,-54c0,-29.82338 24.40048,-54 54.5,-54c30.09952,0 54.5,24.17662 54.5,54z" fill="url(#color-65)" stroke="url(#color-66)" stroke-width="0" stroke-linecap="butt"/></g></g></svg>