<svg version="1.1" xmlns="http://www.w3.org/2000/svg" xmlns:xlink="http://www.w3.org/1999/xlink" width="59" height="59.70662" viewBox="0,0,59,59.70662"><defs><linearGradient x1="240" y1="151.64669" x2="240" y2="208.35331" gradientUnits="userSpaceOnUse" id="color-1"><stop offset="0" stop-color="#191919"/><stop offset="1" stop-color="#050505"/></linearGradient><linearGradient x1="240" y1="151.64669" x2="240" y2="208.35331" gradientUnits="userSpaceOnUse" id="color-2"><stop offset="0" stop-color="#cccccc"/><stop offset="1" stop-color="#898989"/></linearGradient><radialGradient cx="240" cy="180" r="26.8571" gradientUnits="userSpaceOnUse" id="color-3"><stop offset="0" stop-color="#ffffff" stop-opacity="0.35484"/><stop offset="1" stop-color="#ffffff" stop-opacity="0"/></radialGradient><linearGradient x1="240" y1="153.29211" x2="240" y2="206.70789" gradientUnits="userSpaceOnUse" id="color-4"><stop offset="0" stop-color="#cccccc"/><stop offset="1" stop-color="#898989"/></linearGradient><linearGradient x1="242.68678" y1="198.24284" x2="243.63723" y2="198.24284" gradientUnits="userSpaceOnUse" id="color-5"><stop offset="0" stop-color="#525252"/><stop offset="1" stop-color="#363636"/></linearGradient><linearGradient x1="242.68678" y1="198.24284" x2="243.63723" y2="198.24284" gradientUnits="userSpaceOnUse" id="color-6"><stop offset="0" stop-color="#1f1f1f"/><stop offset="1" stop-color="#000000"/></linearGradient><linearGradient x1="235.50411" y1="198.65113" x2="236.74595" y2="199.18711" gradientUnits="userSpaceOnUse" id="color-7"><stop offset="0" stop-color="#525252"/><stop offset="1" stop-color="#2e2e2e"/></linearGradient><linearGradient x1="235.50411" y1="198.65113" x2="236.74595" y2="199.18711" gradientUnits="userSpaceOnUse" id="color-8"><stop offset="0" stop-color="#1f1f1f"/><stop offset="1" stop-color="#000000"/></linearGradient><linearGradient x1="233.99413" y1="199.2085" x2="245.72283" y2="199.2085" gradientUnits="userSpaceOnUse" id="color-9"><stop offset="0" stop-color="#767676"/><stop offset="1" stop-color="#2a2a2a"/></linearGradient><linearGradient x1="233.99413" y1="199.2085" x2="245.72283" y2="199.2085" gradientUnits="userSpaceOnUse" id="color-10"><stop offset="0" stop-color="#1f1f1f"/><stop offset="1" stop-color="#000000"/></linearGradient><linearGradient x1="238.00765" y1="195.98857" x2="241.73634" y2="195.98857" gradientUnits="userSpaceOnUse" id="color-11"><stop offset="0" stop-color="#7f7f7f"/><stop offset="1" stop-color="#545454"/></linearGradient><linearGradient x1="236.80131" y1="198.37759" x2="242.79645" y2="198.37759" gradientUnits="userSpaceOnUse" id="color-12"><stop offset="0" stop-color="#7f7f7f"/><stop offset="1" stop-color="#545454"/></linearGradient><linearGradient x1="235.78934" y1="201.0149" x2="243.83784" y2="201.0149" gradientUnits="userSpaceOnUse" id="color-13"><stop offset="0" stop-color="#7f7f7f"/><stop offset="1" stop-color="#545454"/></linearGradient><linearGradient x1="234.71764" y1="203.64162" x2="244.95324" y2="203.64162" gradientUnits="userSpaceOnUse" id="color-14"><stop offset="0" stop-color="#7f7f7f"/><stop offset="1" stop-color="#545454"/></linearGradient><linearGradient x1="241.7725" y1="195.12664" x2="244.73408" y2="195.12664" gradientUnits="userSpaceOnUse" id="color-15"><stop offset="0" stop-color="#8f8f8f"/><stop offset="1" stop-color="#4e4e4e"/></linearGradient><linearGradient x1="241.7725" y1="195.12664" x2="244.73408" y2="195.12664" gradientUnits="userSpaceOnUse" id="color-16"><stop offset="0" stop-color="#1f1f1f"/><stop offset="1" stop-color="#000000"/></linearGradient><linearGradient x1="245.77992" y1="191.10252" x2="251.59342" y2="191.10252" gradientUnits="userSpaceOnUse" id="color-17"><stop offset="0" stop-color="#353535"/><stop offset="1" stop-color="#1f1f1f"/></linearGradient><linearGradient x1="245.77992" y1="191.30223" x2="249.75627" y2="191.30223" gradientUnits="userSpaceOnUse" id="color-18"><stop offset="0" stop-color="#272727"/><stop offset="1" stop-color="#000000"/></linearGradient><linearGradient x1="234.22008" y1="191.04159" x2="228.40659" y2="191.04159" gradientUnits="userSpaceOnUse" id="color-19"><stop offset="0" stop-color="#6b6b6b"/><stop offset="1" stop-color="#838383"/></linearGradient><linearGradient x1="230.24373" y1="191.24131" x2="234.22008" y2="191.24131" gradientUnits="userSpaceOnUse" id="color-20"><stop offset="0" stop-color="#272727"/><stop offset="1" stop-color="#000000"/></linearGradient><linearGradient x1="234.20394" y1="186.39767" x2="245.79383" y2="186.39767" gradientUnits="userSpaceOnUse" id="color-21"><stop offset="0" stop-color="#646464"/><stop offset="1" stop-color="#222222"/></linearGradient><linearGradient x1="234.20394" y1="186.39767" x2="245.79383" y2="186.39767" gradientUnits="userSpaceOnUse" id="color-22"><stop offset="0" stop-color="#272727"/><stop offset="1" stop-color="#000000"/></linearGradient><linearGradient x1="234.09904" y1="161.09612" x2="245.82773" y2="161.09612" gradientUnits="userSpaceOnUse" id="color-23"><stop offset="0" stop-color="#c9c9c9"/><stop offset="1" stop-color="#3e3e3e"/></linearGradient><linearGradient x1="234.09904" y1="161.09612" x2="245.82773" y2="161.09612" gradientUnits="userSpaceOnUse" id="color-24"><stop offset="0" stop-color="#272727"/><stop offset="1" stop-color="#000000"/></linearGradient><linearGradient x1="237.46228" y1="157.30116" x2="242.44531" y2="157.30116" gradientUnits="userSpaceOnUse" id="color-25"><stop offset="0" stop-color="#8c8c8c"/><stop offset="1" stop-color="#222222"/></linearGradient><linearGradient x1="237.46228" y1="157.30116" x2="242.44531" y2="157.30116" gradientUnits="userSpaceOnUse" id="color-26"><stop offset="0" stop-color="#272727"/><stop offset="1" stop-color="#000000"/></linearGradient><radialGradient cx="239.40771" cy="161.05917" r="2.18789" gradientUnits="userSpaceOnUse" id="color-27"><stop offset="0" stop-color="#9cd7f7"/><stop offset="1" stop-color="#0087f6"/></radialGradient><linearGradient x1="237.77549" y1="162.22326" x2="242.15127" y2="162.22326" gradientUnits="userSpaceOnUse" id="color-28"><stop offset="0" stop-color="#272727"/><stop offset="1" stop-color="#000000"/></linearGradient><linearGradient x1="237.57183" y1="156.67883" x2="242.29401" y2="156.67883" gradientUnits="userSpaceOnUse" id="color-29"><stop offset="0" stop-color="#ffffff"/><stop offset="1" stop-color="#606060"/></linearGradient><linearGradient x1="237.57183" y1="156.67883" x2="242.29401" y2="156.67883" gradientUnits="userSpaceOnUse" id="color-30"><stop offset="0" stop-color="#272727"/><stop offset="1" stop-color="#000000"/></linearGradient><linearGradient x1="240.41318" y1="186.88686" x2="244.95915" y2="186.88686" gradientUnits="userSpaceOnUse" id="color-31"><stop offset="0" stop-color="#4a382c"/><stop offset="1" stop-color="#301f1b"/></linearGradient><linearGradient x1="240.41318" y1="186.88686" x2="244.95915" y2="186.88686" gradientUnits="userSpaceOnUse" id="color-32"><stop offset="0" stop-color="#351c12"/><stop offset="1" stop-color="#1a1310"/></linearGradient><linearGradient x1="240.40095" y1="186.88858" x2="244.93641" y2="186.88858" gradientUnits="userSpaceOnUse" id="color-33"><stop offset="0" stop-color="#351c12"/><stop offset="1" stop-color="#1a1310"/></linearGradient><linearGradient x1="240.40095" y1="186.85404" x2="244.93641" y2="186.85404" gradientUnits="userSpaceOnUse" id="color-34"><stop offset="0" stop-color="#351c12"/><stop offset="1" stop-color="#1a1310"/></linearGradient><linearGradient x1="234.97984" y1="186.90989" x2="239.52581" y2="186.90989" gradientUnits="userSpaceOnUse" id="color-35"><stop offset="0" stop-color="#4a382c"/><stop offset="1" stop-color="#301f1b"/></linearGradient><linearGradient x1="234.97984" y1="186.90989" x2="239.52581" y2="186.90989" gradientUnits="userSpaceOnUse" id="color-36"><stop offset="0" stop-color="#351c12"/><stop offset="1" stop-color="#1a1310"/></linearGradient><linearGradient x1="234.96762" y1="186.9116" x2="239.50307" y2="186.9116" gradientUnits="userSpaceOnUse" id="color-37"><stop offset="0" stop-color="#351c12"/><stop offset="1" stop-color="#1a1310"/></linearGradient><linearGradient x1="234.96762" y1="186.87706" x2="239.50307" y2="186.87706" gradientUnits="userSpaceOnUse" id="color-38"><stop offset="0" stop-color="#351c12"/><stop offset="1" stop-color="#1a1310"/></linearGradient><linearGradient x1="240.41318" y1="192.37022" x2="244.95915" y2="192.37022" gradientUnits="userSpaceOnUse" id="color-39"><stop offset="0" stop-color="#4a382c"/><stop offset="1" stop-color="#301f1b"/></linearGradient><linearGradient x1="240.41318" y1="192.37022" x2="244.95915" y2="192.37022" gradientUnits="userSpaceOnUse" id="color-40"><stop offset="0" stop-color="#351c12"/><stop offset="1" stop-color="#1a1310"/></linearGradient><linearGradient x1="240.40095" y1="192.37194" x2="244.93641" y2="192.37194" gradientUnits="userSpaceOnUse" id="color-41"><stop offset="0" stop-color="#351c12"/><stop offset="1" stop-color="#1a1310"/></linearGradient><linearGradient x1="240.40095" y1="192.3374" x2="244.93641" y2="192.3374" gradientUnits="userSpaceOnUse" id="color-42"><stop offset="0" stop-color="#351c12"/><stop offset="1" stop-color="#1a1310"/></linearGradient><linearGradient x1="234.97984" y1="192.39325" x2="239.52581" y2="192.39325" gradientUnits="userSpaceOnUse" id="color-43"><stop offset="0" stop-color="#4a382c"/><stop offset="1" stop-color="#301f1b"/></linearGradient><linearGradient x1="234.97984" y1="192.39325" x2="239.52581" y2="192.39325" gradientUnits="userSpaceOnUse" id="color-44"><stop offset="0" stop-color="#351c12"/><stop offset="1" stop-color="#1a1310"/></linearGradient><linearGradient x1="234.96762" y1="192.39496" x2="239.50307" y2="192.39496" gradientUnits="userSpaceOnUse" id="color-45"><stop offset="0" stop-color="#351c12"/><stop offset="1" stop-color="#1a1310"/></linearGradient><linearGradient x1="234.96762" y1="192.36042" x2="239.50307" y2="192.36042" gradientUnits="userSpaceOnUse" id="color-46"><stop offset="0" stop-color="#351c12"/><stop offset="1" stop-color="#1a1310"/></linearGradient><linearGradient x1="234.79075" y1="180.64734" x2="245.13602" y2="180.64734" gradientUnits="userSpaceOnUse" id="color-47"><stop offset="0" stop-color="#515151"/><stop offset="1" stop-color="#131313"/></linearGradient><linearGradient x1="234.79075" y1="180.64734" x2="245.13602" y2="180.64734" gradientUnits="userSpaceOnUse" id="color-48"><stop offset="0" stop-color="#272727"/><stop offset="1" stop-color="#000000"/></linearGradient><linearGradient x1="235.32956" y1="178.39628" x2="244.52536" y2="178.39628" gradientUnits="userSpaceOnUse" id="color-49"><stop offset="0" stop-color="#272727"/><stop offset="1" stop-color="#000000"/></linearGradient><linearGradient x1="235.36548" y1="182.93176" x2="244.4176" y2="182.93176" gradientUnits="userSpaceOnUse" id="color-50"><stop offset="0" stop-color="#272727"/><stop offset="1" stop-color="#000000"/></linearGradient><linearGradient x1="237.89798" y1="165.51327" x2="242.02878" y2="165.51327" gradientUnits="userSpaceOnUse" id="color-51"><stop offset="0" stop-color="#272727"/><stop offset="1" stop-color="#000000"/></linearGradient><linearGradient x1="237.89798" y1="164.96494" x2="242.02878" y2="164.96494" gradientUnits="userSpaceOnUse" id="color-52"><stop offset="0" stop-color="#272727"/><stop offset="1" stop-color="#000000"/></linearGradient><linearGradient x1="237.89798" y1="166.06161" x2="242.02878" y2="166.06161" gradientUnits="userSpaceOnUse" id="color-53"><stop offset="0" stop-color="#272727"/><stop offset="1" stop-color="#000000"/></linearGradient><linearGradient x1="234.16844" y1="171.94099" x2="245.75833" y2="171.94099" gradientUnits="userSpaceOnUse" id="color-54"><stop offset="0" stop-color="#301630"/><stop offset="1" stop-color="#140e17"/></linearGradient><linearGradient x1="234.16844" y1="171.94099" x2="245.75833" y2="171.94099" gradientUnits="userSpaceOnUse" id="color-55"><stop offset="0" stop-color="#272727"/><stop offset="1" stop-color="#000000"/></linearGradient><linearGradient x1="234.33152" y1="171.93106" x2="235.10833" y2="171.93106" gradientUnits="userSpaceOnUse" id="color-56"><stop offset="0" stop-color="#9d9d9d"/><stop offset="1" stop-color="#4c4c4c"/></linearGradient><linearGradient x1="234.33152" y1="171.93106" x2="235.10833" y2="171.93106" gradientUnits="userSpaceOnUse" id="color-57"><stop offset="0" stop-color="#272727"/><stop offset="1" stop-color="#000000"/></linearGradient><linearGradient x1="244.84129" y1="171.93106" x2="245.6181" y2="171.93106" gradientUnits="userSpaceOnUse" id="color-58"><stop offset="0" stop-color="#9d9d9d"/><stop offset="1" stop-color="#4c4c4c"/></linearGradient><linearGradient x1="244.84129" y1="171.93106" x2="245.6181" y2="171.93106" gradientUnits="userSpaceOnUse" id="color-59"><stop offset="0" stop-color="#272727"/><stop offset="1" stop-color="#000000"/></linearGradient><radialGradient cx="239.96338" cy="171.94099" r="4.80805" gradientUnits="userSpaceOnUse" id="color-60"><stop offset="0" stop-color="#654573" stop-opacity="0.40995"/><stop offset="1" stop-color="#654573" stop-opacity="0"/></radialGradient><radialGradient cx="239.96338" cy="171.92389" r="3.90344" gradientUnits="userSpaceOnUse" id="color-61"><stop offset="0" stop-color="#eb73e5" stop-opacity="0.60996"/><stop offset="1" stop-color="#eb73e5" stop-opacity="0"/></radialGradient><radialGradient cx="239.96338" cy="171.92389" r="3.30458" gradientUnits="userSpaceOnUse" id="color-62"><stop offset="0" stop-color="#ff26ff" stop-opacity="0.44355"/><stop offset="1" stop-color="#eda3ff" stop-opacity="0.14516"/></radialGradient><radialGradient cx="239.96338" cy="171.92389" r="2.71737" gradientUnits="userSpaceOnUse" id="color-63"><stop offset="0" stop-color="#f7e3ff" stop-opacity="0.25546"/><stop offset="1" stop-color="#9f07ff"/></radialGradient><linearGradient x1="234.3103" y1="173.80387" x2="245.61647" y2="173.80387" gradientUnits="userSpaceOnUse" id="color-64"><stop offset="0" stop-color="#9a66a2"/><stop offset="1" stop-color="#4d0069"/></linearGradient><linearGradient x1="234.3103" y1="173.82162" x2="245.61647" y2="173.82162" gradientUnits="userSpaceOnUse" id="color-65"><stop offset="0" stop-color="#9a66a2"/><stop offset="1" stop-color="#4d0069"/></linearGradient><linearGradient x1="234.33642" y1="169.89019" x2="245.64258" y2="169.89019" gradientUnits="userSpaceOnUse" id="color-66"><stop offset="0" stop-color="#9a66a2"/><stop offset="1" stop-color="#4d0069"/></linearGradient><linearGradient x1="234.33642" y1="169.90795" x2="245.64258" y2="169.90795" gradientUnits="userSpaceOnUse" id="color-67"><stop offset="0" stop-color="#9a66a2"/><stop offset="1" stop-color="#4d0069"/></linearGradient><linearGradient x1="234.1985" y1="176.3089" x2="245.62216" y2="176.3089" gradientUnits="userSpaceOnUse" id="color-68"><stop offset="0" stop-color="#b695c7"/><stop offset="1" stop-color="#312833"/></linearGradient><linearGradient x1="234.1985" y1="176.3089" x2="245.62216" y2="176.3089" gradientUnits="userSpaceOnUse" id="color-69"><stop offset="0" stop-color="#272727"/><stop offset="1" stop-color="#000000"/></linearGradient><linearGradient x1="234.25072" y1="167.59673" x2="245.67439" y2="167.59673" gradientUnits="userSpaceOnUse" id="color-70"><stop offset="0" stop-color="#b695c7"/><stop offset="1" stop-color="#312833"/></linearGradient><linearGradient x1="234.25072" y1="167.59673" x2="245.67439" y2="167.59673" gradientUnits="userSpaceOnUse" id="color-71"><stop offset="0" stop-color="#272727"/><stop offset="1" stop-color="#000000"/></linearGradient></defs><g transform="translate(-210.5,-150.14669)"><g data-paper-data="{&quot;isPaintingLayer&quot;:true}" fill-rule="nonzero" stroke-linejoin="miter" stroke-miterlimit="10" stroke-dasharray="" stroke-dashoffset="0" style="mix-blend-mode: normal"><path d="M212,208.35331v-56.70662h56v56.70662z" fill="url(#color-1)" stroke="url(#color-2)" stroke-width="3" stroke-linecap="butt"/><path d="M266.8571,180c0,14.75036 -12.02433,26.70789 -26.8571,26.70789c-14.83277,0 -26.8571,-11.95753 -26.8571,-26.70789c0,-14.75036 12.02433,-26.70789 26.8571,-26.70789c14.83277,0 26.8571,11.95753 26.8571,26.70789z" fill="url(#color-3)" stroke="url(#color-4)" stroke-width="0" stroke-linecap="butt"/><g stroke-width="0.375"><path d="M242.68678,199.81473v-3.14379h0.95045v3.14379z" fill="url(#color-5)" stroke="url(#color-6)" stroke-linecap="butt"/><path d="M233.25156,203.87019l4.50511,-10.43812l1.24183,0.53598l-4.50511,10.43812z" fill="url(#color-7)" stroke="url(#color-8)" stroke-linecap="butt"/><path d="M233.99413,205.07309c0,0 4.37943,-11.8147 5.86515,-11.7287c1.69963,0.09838 5.86355,11.7287 5.86355,11.7287z" fill="url(#color-9)" stroke="url(#color-10)" stroke-linecap="butt"/><path d="M238.00765,195.98857h3.72868" fill="none" stroke="url(#color-11)" stroke-linecap="round"/><path d="M242.79645,198.37759h-5.99514" fill="none" stroke="url(#color-12)" stroke-linecap="round"/><path d="M243.83785,201.0149h-8.0485" fill="none" stroke="url(#color-13)" stroke-linecap="round"/><path d="M234.71764,203.64162h10.2356" fill="none" stroke="url(#color-14)" stroke-linecap="round"/><path d="M244.73408,195.12664c-0.01108,1.3925 -0.04616,1.5415 -1.48079,1.52674c-1.43508,-0.01476 -1.49859,-0.20345 -1.48079,-1.52674c0.01966,-1.46099 0.01548,-1.56255 1.48079,-1.52674c1.40396,0.03431 1.49296,-0.00237 1.48079,1.52674z" fill="url(#color-15)" stroke="url(#color-16)" stroke-linecap="butt"/></g><path d="M245.77992,195.87167v-11.85351c0,0 1.49168,7.95701 2.01321,9.87817c0.41262,1.51998 1.96314,4.68997 1.96314,4.68997z" fill="url(#color-17)" stroke="url(#color-18)" stroke-width="0.375" stroke-linecap="butt"/><path d="M230.24373,198.52538c0,0 1.55052,-3.16999 1.96314,-4.68997c0.52153,-1.92117 2.01321,-9.87817 2.01321,-9.87817v11.85351z" data-paper-data="{&quot;index&quot;:null}" fill="url(#color-19)" stroke="url(#color-20)" stroke-width="0.375" stroke-linecap="butt"/><path d="M234.20394,195.90555v-19.01575h11.5899v19.01575z" fill="url(#color-21)" stroke="url(#color-22)" stroke-width="0.375" stroke-linecap="butt"/><path d="M234.09904,166.9607c0,0 4.3185,-11.8147 5.80422,-11.7287c1.69963,0.09838 5.92447,11.7287 5.92447,11.7287z" fill="url(#color-23)" stroke="url(#color-24)" stroke-width="0.375" stroke-linecap="butt"/><path d="M237.50887,158.97953l0.20213,-0.45068l4.48848,-0.01256l0.19923,0.46324z" fill="url(#color-25)" stroke="url(#color-26)" stroke-width="0.375" stroke-linecap="butt"/><path d="M242.15127,162.22326c0,1.18419 -0.97955,2.14417 -2.18789,2.14417c-1.20834,0 -2.18789,-0.95998 -2.18789,-2.14417c0,-1.18419 0.97955,-2.14417 2.18789,-2.14417c1.20834,0 2.18789,0.95998 2.18789,2.14417z" fill="url(#color-27)" stroke="url(#color-28)" stroke-width="0.375" stroke-linecap="butt"/><path d="M237.57183,158.43075c0,0 1.73871,-3.5294 2.33688,-3.5037c0.6843,0.02939 2.3853,3.5037 2.3853,3.5037z" fill="url(#color-29)" stroke="url(#color-30)" stroke-width="0.375" stroke-linecap="butt"/><g stroke-width="0.375"><path d="M240.41318,189.25337v-4.73302h4.54597v4.73302z" fill="url(#color-31)" stroke="url(#color-32)" stroke-linecap="butt"/><path d="M240.40095,189.19084l4.53545,-4.60452" fill="none" stroke="url(#color-33)" stroke-linecap="round"/><path d="M240.447,184.54027l4.48941,4.67359" fill="none" stroke="url(#color-34)" stroke-linecap="round"/></g><g stroke-width="0.375"><path d="M234.97984,189.2764v-4.73302h4.54597v4.73302z" fill="url(#color-35)" stroke="url(#color-36)" stroke-linecap="butt"/><path d="M239.50307,184.60934l-4.53545,4.60452" fill="none" stroke="url(#color-37)" stroke-linecap="round"/><path d="M235.01366,184.56329l4.48941,4.67359" fill="none" stroke="url(#color-38)" stroke-linecap="round"/></g><g stroke-width="0.375"><path d="M240.41318,194.73673v-4.73302h4.54597v4.73302z" fill="url(#color-39)" stroke="url(#color-40)" stroke-linecap="butt"/><path d="M240.40095,194.6742l4.53545,-4.60452" fill="none" stroke="url(#color-41)" stroke-linecap="round"/><path d="M244.93641,194.69722l-4.48941,-4.67359" fill="none" stroke="url(#color-42)" stroke-linecap="round"/></g><g stroke-width="0.375"><path d="M234.97984,194.75976v-4.73302h4.54597v4.73302z" fill="url(#color-43)" stroke="url(#color-44)" stroke-linecap="butt"/><path d="M234.96762,194.69722l4.53545,-4.60452" fill="none" stroke="url(#color-45)" stroke-linecap="round"/><path d="M235.01366,190.04665l4.48941,4.67359" fill="none" stroke="url(#color-46)" stroke-linecap="round"/></g><g stroke-width="0.375"><path d="M234.79075,183.49869v-5.70269h10.34527v5.70269z" fill="url(#color-47)" stroke="url(#color-48)" stroke-linecap="butt"/><path d="M244.52536,178.39628h-9.1958" fill="none" stroke="url(#color-49)" stroke-linecap="round"/><path d="M244.4176,182.93176h-9.05211" fill="none" stroke="url(#color-50)" stroke-linecap="round"/></g><path d="M242.02878,165.51327h-4.1308" fill="none" stroke="url(#color-51)" stroke-width="0.375" stroke-linecap="round"/><path d="M242.02878,164.96494h-4.1308" fill="none" stroke="url(#color-52)" stroke-width="0.375" stroke-linecap="round"/><path d="M242.02878,166.06161h-4.1308" fill="none" stroke="url(#color-53)" stroke-width="0.375" stroke-linecap="round"/><g stroke-width="0.375"><path d="M234.16844,176.88854v-9.8951h11.5899v9.8951z" fill="url(#color-54)" stroke="url(#color-55)" stroke-linecap="butt"/><path d="M234.33152,175.80219v-7.74226h0.77681v7.74226z" fill="url(#color-56)" stroke="url(#color-57)" stroke-linecap="butt"/><path d="M244.84129,175.80219v-7.74226h0.77681v7.74226z" fill="url(#color-58)" stroke="url(#color-59)" stroke-linecap="butt"/><path d="M235.15533,171.94099c0,-2.65541 2.15264,-4.80805 4.80805,-4.80805c2.65541,0 4.80805,2.15264 4.80805,4.80805c0,2.65541 -2.15264,4.80805 -4.80805,4.80805c-2.65541,0 -4.80805,-2.15264 -4.80805,-4.80805z" fill="url(#color-60)" stroke="none" stroke-linecap="butt"/><path d="M236.05994,171.92389c0,-2.1558 1.74763,-3.90344 3.90344,-3.90344c2.1558,0 3.90344,1.74763 3.90344,3.90344c0,2.1558 -1.74763,3.90344 -3.90344,3.90344c-2.1558,0 -3.90344,-1.74763 -3.90344,-3.90344z" fill="url(#color-61)" stroke="none" stroke-linecap="butt"/><path d="M236.6588,171.92389c0,-1.82507 1.47951,-3.30459 3.30459,-3.30459c1.82507,0 3.30458,1.47951 3.30458,3.30459c0,1.82507 -1.47951,3.30459 -3.30459,3.30459c-1.82507,0 -3.30459,-1.47951 -3.30459,-3.30459z" fill="url(#color-62)" stroke="none" stroke-linecap="butt"/><path d="M237.24601,171.92389c0,-1.50076 1.21661,-2.71737 2.71738,-2.71737c1.50076,0 2.71738,1.21661 2.71738,2.71737c0,1.50076 -1.21661,2.71738 -2.71738,2.71738c-1.50076,0 -2.71738,-1.21661 -2.71738,-2.71738z" fill="url(#color-63)" stroke="none" stroke-linecap="butt"/><path d="M234.3103,175.8369l0.62667,-4.06607l0.60056,4.06607l0.80945,-4.03056l0.80945,4.01281l1.41001,-4.01281l1.35778,4.03056l1.20112,-4.01281l1.35778,3.99505l0.91389,-3.99505l0.99223,4.03056l0.62667,-4.01281l0.60056,3.97729" fill="none" stroke="url(#color-64)" stroke-linecap="round"/><path d="M245.61647,171.80634l-0.60056,3.97729l-0.62667,-4.01281l-0.99223,4.03056l-0.91389,-3.99505l-1.35778,3.99505l-1.20112,-4.01281l-1.35778,4.03056l-1.41001,-4.01281l-0.80945,4.01281l-0.80945,-4.03056l-0.60056,4.06607l-0.62667,-4.06607" data-paper-data="{&quot;index&quot;:null}" fill="none" stroke="url(#color-65)" stroke-linecap="round"/><path d="M234.33642,171.92323l0.62667,-4.06607l0.60056,4.06607l0.80945,-4.03056l0.80945,4.01281l1.41001,-4.01281l1.35778,4.03056l1.20112,-4.01281l1.35778,3.99505l0.91389,-3.99505l0.99223,4.03056l0.62667,-4.01281l0.60056,3.97729" fill="none" stroke="url(#color-66)" stroke-linecap="round"/><path d="M245.64258,167.89267l-0.60056,3.97729l-0.62667,-4.01281l-0.99223,4.03056l-0.91389,-3.99505l-1.35778,3.99505l-1.20112,-4.01281l-1.35778,4.03056l-1.41001,-4.01281l-0.80945,4.01281l-0.80945,-4.03056l-0.60056,4.06607l-0.62667,-4.06607" data-paper-data="{&quot;index&quot;:null}" fill="none" stroke="url(#color-67)" stroke-linecap="round"/><path d="M234.1985,176.74564v-0.87348h11.42366v0.87348z" fill="url(#color-68)" stroke="url(#color-69)" stroke-linecap="butt"/><path d="M234.25072,168.03347v-0.87348h11.42367v0.87348z" fill="url(#color-70)" stroke="url(#color-71)" stroke-linecap="butt"/></g><path d="M215.27327,167.03273v-12.39235h25.93332v8.69862h-15.56684v3.69373z" fill-opacity="0.53453" fill="#000000" stroke="#a60000" stroke-width="0" stroke-linecap="butt"/><text transform="translate(215.70712,161.61518) scale(0.21839,0.21839)" font-size="40" xml:space="preserve" fill="#ffffff" fill-rule="nonzero" stroke="#000000" stroke-width="0" stroke-linecap="butt" stroke-linejoin="miter" stroke-miterlimit="10" stroke-dasharray="" stroke-dashoffset="0" font-family="Serif" font-weight="normal" text-anchor="start" style="mix-blend-mode: normal"><tspan x="0" dy="0">Rocket</tspan></text><text transform="translate(215.56527,166.16681) scale(0.11601,0.11601)" font-size="40" xml:space="preserve" fill="#ffffff" fill-rule="nonzero" stroke="#000000" stroke-width="0" stroke-linecap="butt" stroke-linejoin="miter" stroke-miterlimit="10" stroke-dasharray="" stroke-dashoffset="0" font-family="Serif" font-weight="normal" text-anchor="start" style="mix-blend-mode: normal"><tspan x="0" dy="0">1-2-3</tspan></text></g></g></svg>