<svg version="1.1" xmlns="http://www.w3.org/2000/svg" xmlns:xlink="http://www.w3.org/1999/xlink" width="59" height="59.70662" viewBox="0,0,59,59.70662"><defs><linearGradient x1="240.00001" y1="151.64675" x2="240.00001" y2="208.35337" gradientUnits="userSpaceOnUse" id="color-1"><stop offset="0" stop-color="#191919"/><stop offset="1" stop-color="#050505"/></linearGradient><linearGradient x1="240.00001" y1="151.64675" x2="240.00001" y2="208.35337" gradientUnits="userSpaceOnUse" id="color-2"><stop offset="0" stop-color="#cccccc"/><stop offset="1" stop-color="#898989"/></linearGradient><radialGradient cx="240.00001" cy="180.00006" r="26.8571" gradientUnits="userSpaceOnUse" id="color-3"><stop offset="0" stop-color="#ffffff" stop-opacity="0.35484"/><stop offset="1" stop-color="#ffffff" stop-opacity="0"/></radialGradient><linearGradient x1="240.00001" y1="153.29216" x2="240.00001" y2="206.70795" gradientUnits="userSpaceOnUse" id="color-4"><stop offset="0" stop-color="#cccccc"/><stop offset="1" stop-color="#898989"/></linearGradient><radialGradient cx="222.41961" cy="187.62863" r="7.4446" gradientUnits="userSpaceOnUse" id="color-5"><stop offset="0" stop-color="#ceb8ff"/><stop offset="1" stop-color="#6a00ff"/></radialGradient><linearGradient x1="223.15077" y1="185.74384" x2="223.15077" y2="198.25065" gradientUnits="userSpaceOnUse" id="color-6"><stop offset="0" stop-color="#348317"/><stop offset="1" stop-color="#3c5b0d"/></linearGradient><radialGradient cx="232.52299" cy="187.2206" r="7.40653" gradientUnits="userSpaceOnUse" id="color-7"><stop offset="0" stop-color="#6b00ff"/><stop offset="1" stop-color="#5000d9"/></radialGradient><linearGradient x1="238.77113" y1="190.01087" x2="238.77113" y2="197.22067" gradientUnits="userSpaceOnUse" id="color-8"><stop offset="0" stop-color="#cccccc"/><stop offset="1" stop-color="#898989"/></linearGradient><radialGradient cx="225.21133" cy="183.27628" r="11.43278" gradientUnits="userSpaceOnUse" id="color-9"><stop offset="0" stop-color="#9e66ff"/><stop offset="1" stop-color="#6a00ff"/></radialGradient><linearGradient x1="229.73126" y1="176.76837" x2="229.73126" y2="179.85828" gradientUnits="userSpaceOnUse" id="color-10"><stop offset="0" stop-color="#cccccc"/><stop offset="1" stop-color="#898989"/></linearGradient><radialGradient cx="242.28467" cy="188.38109" r="7.4446" gradientUnits="userSpaceOnUse" id="color-11"><stop offset="0" stop-color="#fff6b7"/><stop offset="1" stop-color="#ffdd00"/></radialGradient><linearGradient x1="243.01584" y1="186.49631" x2="243.01584" y2="199.00311" gradientUnits="userSpaceOnUse" id="color-12"><stop offset="0" stop-color="#348317"/><stop offset="1" stop-color="#3c5b0d"/></linearGradient><radialGradient cx="252.38806" cy="187.97306" r="7.40653" gradientUnits="userSpaceOnUse" id="color-13"><stop offset="0" stop-color="#ffea00"/><stop offset="1" stop-color="#d9bc00"/></radialGradient><linearGradient x1="258.6362" y1="190.76334" x2="258.6362" y2="197.97314" gradientUnits="userSpaceOnUse" id="color-14"><stop offset="0" stop-color="#cccccc"/><stop offset="1" stop-color="#898989"/></linearGradient><radialGradient cx="245.07639" cy="184.02875" r="11.43277" gradientUnits="userSpaceOnUse" id="color-15"><stop offset="0" stop-color="#fffa67"/><stop offset="1" stop-color="#ffd100"/></radialGradient><linearGradient x1="249.59633" y1="177.52083" x2="249.59633" y2="180.61075" gradientUnits="userSpaceOnUse" id="color-16"><stop offset="0" stop-color="#cccccc"/><stop offset="1" stop-color="#898989"/></linearGradient><radialGradient cx="240.68717" cy="177.60225" r="4.23088" gradientUnits="userSpaceOnUse" id="color-17"><stop offset="0" stop-color="#e1e1e1"/><stop offset="1" stop-color="#d0d0d0"/></radialGradient><linearGradient x1="242.56757" y1="174.78165" x2="242.56757" y2="183.08673" gradientUnits="userSpaceOnUse" id="color-18"><stop offset="0" stop-color="#cccccc"/><stop offset="1" stop-color="#898989"/></linearGradient><radialGradient cx="234.82355" cy="177.67707" r="3.7426" gradientUnits="userSpaceOnUse" id="color-19"><stop offset="0" stop-color="#ebebeb"/><stop offset="1" stop-color="#d9d9d9"/></radialGradient><linearGradient x1="236.48692" y1="175.18201" x2="236.48692" y2="182.52858" gradientUnits="userSpaceOnUse" id="color-20"><stop offset="0" stop-color="#cccccc"/><stop offset="1" stop-color="#898989"/></linearGradient><radialGradient cx="231.47321" cy="171.13298" r="5.14643" gradientUnits="userSpaceOnUse" id="color-21"><stop offset="0" stop-color="#ffffff"/><stop offset="1" stop-color="#dbdbdb"/></radialGradient><linearGradient x1="233.76051" y1="167.70203" x2="233.76051" y2="177.80429" gradientUnits="userSpaceOnUse" id="color-22"><stop offset="0" stop-color="#cccccc"/><stop offset="1" stop-color="#898989"/></linearGradient><radialGradient cx="241.99065" cy="170.80186" r="5.29056" gradientUnits="userSpaceOnUse" id="color-23"><stop offset="0" stop-color="#e7e7e7"/><stop offset="1" stop-color="#cbcbcb"/></radialGradient><linearGradient x1="244.342" y1="167.27483" x2="244.342" y2="177.65998" gradientUnits="userSpaceOnUse" id="color-24"><stop offset="0" stop-color="#cccccc"/><stop offset="1" stop-color="#898989"/></linearGradient><radialGradient cx="237.74895" cy="172.63568" r="5.14643" gradientUnits="userSpaceOnUse" id="color-25"><stop offset="0" stop-color="#f7f7f7"/><stop offset="1" stop-color="#d7d7d7"/></radialGradient><linearGradient x1="240.03625" y1="169.20472" x2="240.03625" y2="179.30699" gradientUnits="userSpaceOnUse" id="color-26"><stop offset="0" stop-color="#cccccc"/><stop offset="1" stop-color="#898989"/></linearGradient><radialGradient cx="240.91501" cy="164.88517" r="3.74259" gradientUnits="userSpaceOnUse" id="color-27"><stop offset="0" stop-color="#e2e2e2"/><stop offset="1" stop-color="#c8c8c8"/></radialGradient><linearGradient x1="242.57838" y1="162.39012" x2="242.57838" y2="169.73669" gradientUnits="userSpaceOnUse" id="color-28"><stop offset="0" stop-color="#cccccc"/><stop offset="1" stop-color="#898989"/></linearGradient><radialGradient cx="234.7309" cy="164.65986" r="4.23088" gradientUnits="userSpaceOnUse" id="color-29"><stop offset="0" stop-color="#ebebeb"/><stop offset="1" stop-color="#dbdbdb"/></radialGradient><linearGradient x1="236.6113" y1="161.83926" x2="236.6113" y2="170.14433" gradientUnits="userSpaceOnUse" id="color-30"><stop offset="0" stop-color="#cccccc"/><stop offset="1" stop-color="#898989"/></linearGradient></defs><g transform="translate(-210.5,-150.14675)"><g data-paper-data="{&quot;isPaintingLayer&quot;:true}" fill-rule="nonzero" stroke-linecap="butt" stroke-linejoin="miter" stroke-miterlimit="10" stroke-dasharray="" stroke-dashoffset="0" style="mix-blend-mode: normal"><path d="M212.00001,208.35337v-56.70662h56v56.70662z" fill="url(#color-1)" stroke="url(#color-2)" stroke-width="3"/><path d="M266.85711,180.00006c0,14.75036 -12.02433,26.70789 -26.8571,26.70789c-14.83277,0 -26.8571,-11.95753 -26.8571,-26.70789c0,-14.75036 12.02433,-26.70789 26.8571,-26.70789c14.83277,0 26.8571,11.95753 26.8571,26.70789z" fill="url(#color-3)" stroke="url(#color-4)" stroke-width="0"/><path d="M215.06973,162.22182v-7.06998h17.84667v7.06998z" fill-opacity="0.53453" fill="#000000" stroke="#a60000" stroke-width="0"/><text transform="translate(215.50357,160.75253) scale(0.18022,0.18022)" font-size="40" xml:space="preserve" fill="#ffffff" fill-rule="nonzero" stroke="#000000" stroke-width="0" stroke-linecap="butt" stroke-linejoin="miter" stroke-miterlimit="10" stroke-dasharray="" stroke-dashoffset="0" font-family="Serif" font-weight="normal" text-anchor="start" style="mix-blend-mode: normal"><tspan x="0" dy="0">Other</tspan></text><path d="M216.86698,195.30787l2.0962,-11.91825l10.90102,1.32425l0.79763,12.80109z" fill="url(#color-5)" stroke="url(#color-6)" stroke-width="0"/><path d="M230.66184,197.51495l-0.93057,-12.94823l11.56572,-2.20708l1.97097,11.47683z" fill="url(#color-7)" stroke="url(#color-8)" stroke-width="0"/><path d="M218.6973,183.53676l12.89511,-2.20709l9.97045,1.02998l-11.69865,2.35422z" fill="url(#color-9)" stroke="url(#color-10)" stroke-width="0"/><path d="M236.73205,196.06033l2.0962,-11.91825l10.90102,1.32425l0.79763,12.80109z" fill="url(#color-11)" stroke="url(#color-12)" stroke-width="0"/><path d="M250.5269,198.26742l-0.93057,-12.94823l11.56572,-2.20708l1.97097,11.47683z" fill="url(#color-13)" stroke="url(#color-14)" stroke-width="0"/><path d="M238.56237,184.28922l12.89511,-2.20709l9.97044,1.02998l-11.69865,2.35422z" fill="url(#color-15)" stroke="url(#color-16)" stroke-width="0"/><path d="M247.22519,178.61414c0,1.13308 -0.43131,2.66252 -1.36545,3.59621c-0.95657,0.95612 -2.43003,1.3031 -3.61221,1.3031c-1.04689,0 -1.96214,-0.45884 -2.65357,-1.17163c-0.85184,-0.87815 -1.36395,-2.14175 -1.36395,-3.40763c0,-1.37312 0.45764,-2.41546 1.41204,-3.20211c0.63963,-0.52722 1.56117,-1.05711 2.4988,-1.05711c1.12892,0 2.56713,0.27748 3.53171,0.93322c1.03194,0.70153 1.55263,1.82058 1.55263,3.00594z" data-paper-data="{&quot;index&quot;:null}" fill="url(#color-17)" stroke="url(#color-18)" stroke-width="0"/><path d="M240.607,178.57219c0,1.00232 -0.38153,2.35522 -1.20785,3.18116c-0.84617,0.84577 -2.14957,1.15271 -3.19532,1.15271c-0.92606,0 -1.73569,-0.40589 -2.34732,-1.03642c-0.75353,-0.77681 -1.20653,-1.89457 -1.20653,-3.01435c0,-1.21464 0.40482,-2.13669 1.24908,-2.83256c0.56581,-0.46636 1.381,-0.9351 2.21041,-0.9351c0.99863,0 2.27085,0.24545 3.12411,0.82551c0.91284,0.62056 1.37344,1.61046 1.37344,2.65903z" data-paper-data="{&quot;index&quot;:null}" fill="url(#color-19)" stroke="url(#color-20)" stroke-width="0"/><path d="M239.42602,172.36385c0,1.37829 -0.52465,3.23868 -1.66093,4.37441c-1.16357,1.16302 -2.95587,1.58509 -4.39388,1.58509c-1.27343,0 -2.38674,-0.55814 -3.22779,-1.42518c-1.03617,-1.06818 -1.6591,-2.60522 -1.6591,-4.14503c0,-1.67026 0.55666,-2.93815 1.71759,-3.89503c0.77805,-0.64129 1.89901,-1.28586 3.03953,-1.28586c1.3732,0 3.12265,0.33752 4.29596,1.13516c1.25525,0.85333 1.8886,2.21454 1.8886,3.65643z" fill="url(#color-21)" stroke="url(#color-22)" stroke-width="0"/><path d="M250.16617,172.06719c0,1.41688 -0.53934,3.32936 -1.70743,4.49692c-1.19616,1.19559 -3.03865,1.62948 -4.51693,1.62948c-1.3091,0 -2.45359,-0.57377 -3.31818,-1.46509c-1.06519,-1.0981 -1.70556,-2.67818 -1.70556,-4.2611c0,-1.71704 0.57225,-3.02043 1.76569,-4.00411c0.79984,-0.65926 1.95219,-1.32186 3.12465,-1.32186c1.41166,0 3.21009,0.34697 4.41627,1.16694c1.2904,0.87724 1.94149,2.27656 1.94149,3.75883z" fill="url(#color-23)" stroke="url(#color-24)" stroke-width="0"/><path d="M245.70176,173.86655c0,1.37829 -0.52465,3.23867 -1.66093,4.37441c-1.16357,1.16302 -2.95588,1.58508 -4.39389,1.58508c-1.27343,0 -2.38674,-0.55814 -3.22779,-1.42518c-1.03617,-1.06818 -1.6591,-2.60522 -1.6591,-4.14503c0,-1.67026 0.55667,-2.93816 1.7176,-3.89504c0.77805,-0.64129 1.89901,-1.28585 3.03953,-1.28585c1.3732,0 3.12265,0.33751 4.29596,1.13516c1.25525,0.85333 1.88861,2.21454 1.88861,3.65643z" fill="url(#color-25)" stroke="url(#color-26)" stroke-width="0"/><path d="M246.69846,165.78029c0,1.00232 -0.38153,2.35523 -1.20785,3.18117c-0.84617,0.84577 -2.14957,1.15271 -3.19533,1.15271c-0.92606,0 -1.73569,-0.40589 -2.34731,-1.03642c-0.75353,-0.77681 -1.20653,-1.89456 -1.20653,-3.01434c0,-1.21464 0.40482,-2.13669 1.24907,-2.83256c0.56581,-0.46636 1.381,-0.9351 2.21041,-0.9351c0.99863,0 2.27086,0.24545 3.12412,0.82551c0.91284,0.62056 1.37344,1.61046 1.37344,2.65903z" fill="url(#color-27)" stroke="url(#color-28)" stroke-width="0"/><path d="M241.26892,165.67175c0,1.13308 -0.43131,2.66251 -1.36544,3.59621c-0.95657,0.95612 -2.43003,1.30311 -3.61221,1.30311c-1.04689,0 -1.96214,-0.45884 -2.65357,-1.17164c-0.85184,-0.87815 -1.36395,-2.14175 -1.36395,-3.40763c0,-1.37312 0.45764,-2.41546 1.41204,-3.20211c0.63963,-0.52722 1.56118,-1.05711 2.4988,-1.05711c1.12892,0 2.56713,0.27748 3.53171,0.93322c1.03194,0.70153 1.55263,1.82058 1.55263,3.00594z" fill="url(#color-29)" stroke="url(#color-30)" stroke-width="0"/></g></g></svg>