<svg version="1.1" xmlns="http://www.w3.org/2000/svg" xmlns:xlink="http://www.w3.org/1999/xlink" width="1084.56536" height="143.69099" viewBox="0,0,1084.56536,143.69099"><defs><linearGradient x1="270.45856" y1="207.58546" x2="270.45856" y2="307.83358" gradientUnits="userSpaceOnUse" id="color-1"><stop offset="0" stop-color="#aa5f36"/><stop offset="1" stop-color="#8b5544"/></linearGradient><linearGradient x1="811.95856" y1="207.58546" x2="811.95856" y2="307.83358" gradientUnits="userSpaceOnUse" id="color-2"><stop offset="0" stop-color="#aa5f36"/><stop offset="1" stop-color="#8b5544"/></linearGradient></defs><g transform="translate(0.53362,-207.58547)"><g data-paper-data="{&quot;isPaintingLayer&quot;:true}" fill-rule="nonzero" stroke="none" stroke-width="0.5" stroke-linecap="butt" stroke-linejoin="miter" stroke-miterlimit="10" stroke-dasharray="" stroke-dashoffset="0" style="mix-blend-mode: normal"><path d="M-0.35444,221.16963c-0.49576,-1.63777 1.07323,-2.68377 1.07323,-2.68377c5.69343,-3.74959 13.12269,-7.37016 19.98629,-8.38759c3.97322,-0.58898 8.10731,-0.51509 12.095,-1.01355c1.36375,-0.17047 2.63379,-0.85043 4,-1c10.16009,-1.11229 21.05495,-0.01873 31.30546,-0.01873c8.93214,0 18.37128,-0.85596 27.24634,0.01217c4.32646,0.4232 8.59604,1.4321 12.9107,1.98136c4.62523,0.5888 9.46041,-0.55172 14.0893,0.01864c4.42392,0.5451 8.66984,2.52257 13.05912,3.00656c4.52423,0.49887 7.80248,-0.0485 12.30088,1.05591c3.68293,0.92074 7.02656,1.41566 10.69912,1.94409c4.08002,0.58706 8.07396,2.32363 12.09035,3.0128c2.90496,0.49846 6.07908,-0.47109 9.00465,0.00075c3.03162,0.48895 5.97039,1.49218 9,2c2.66697,0.44703 5.409,0.42578 8.04956,1.0089c2.35331,0.51969 4.5724,1.59988 6.95044,1.9911c2.69859,0.44396 5.48488,0.37348 8.13957,1.03084c3.42553,0.84824 6.72,2.17684 10.15895,3.03657c2.52386,0.84064 4.88696,2.17029 7.46833,2.81298c1.169,0.29105 2.4666,-0.17502 3.60792,0.21055c1.99992,0.67563 3.53713,2.59916 5.62523,2.90905c1.04657,0.15532 2.15657,-0.25596 3.17393,0.03459c3.73321,1.06618 7.80661,3.57575 11.38232,5.12342c2.83561,1.22734 4.28312,1.04719 7.58331,1.87283c3.1342,0.78411 3.42948,1.4786 6.76544,1.9556c2.01121,0.28758 4.08925,-0.30994 6.09499,0.01355c1.04064,0.16784 1.9613,0.82049 3,1c2.26805,0.39197 4.62045,-0.29377 6.90501,-0.01355c3.93504,0.48266 6.6557,0.98127 10.69454,0.98127c5.00187,0 10.66268,0.73766 15.59955,0.03228c2.35275,-0.33616 4.53231,-1.45413 6.85199,-1.97138c4.53355,-1.01091 9.99209,-1.19874 14.33423,-2.82604c1.19337,-0.44724 2.05935,-1.54677 3.23628,-2.03565c5.99595,-2.49063 13.021,-3.03236 19.2088,-5.07796c2.58923,-0.85596 5.22101,-1.65095 7.66364,-2.86354c1.10719,-0.54964 1.95629,-1.56104 3.09415,-2.04401c0.28219,-0.11978 7.87555,-2.0067 8.40504,-2.13908c5.92937,-1.45573 11.37559,-0.47401 17.36,-1.06247c4.09609,-0.40278 7.86062,-2.41074 11.84589,-2.97988c2.63988,-0.377 5.36155,0.38689 8,0c3.01928,-0.44273 5.98487,-1.51371 9,-2c3.25002,-0.52417 6.77364,0.55758 10,0c1.0387,-0.17951 1.95601,-0.85438 3,-1c5.86277,-0.81779 12.47048,-0.03228 18.40045,-0.03228c4.37381,0 9.29655,0.66325 13.59955,0.03228c1.04294,-0.15293 1.95936,-0.83216 3,-1c2.92503,-0.47176 6.09481,0.4934 9,0c2.42369,-0.41162 4.65601,-1.70522 7.095,-2.01355c2.2835,-0.28868 4.63582,0.39894 6.905,0.01355c4.35497,-0.73962 8.66019,-2.30006 13,-3c4.85221,-0.78258 10.47912,-0.03228 15.40046,-0.03228c0.48001,0 6.14144,-0.00949 6.40045,0.03228c1.04065,0.16784 1.96025,0.82671 3,1c3.30932,0.55156 9.85127,0.42133 12.91387,2.34109c3.97964,2.4946 1.11313,134.61305 1.11313,134.61305c0,0 -540.03047,1.16346 -541.61562,-1.8118c-0.79879,-1.49929 -0.28832,-122.78059 -0.31184,-124.67462v-3c0,0 0,-0.1588 0.04002,-0.39636z" fill="url(#color-1)"/><path d="M541.14556,221.16963c-0.49576,-1.63777 1.07323,-2.68377 1.07323,-2.68377c5.69343,-3.74959 13.12269,-7.37016 19.98629,-8.38759c3.97322,-0.58898 8.10731,-0.51509 12.095,-1.01355c1.36375,-0.17047 2.63379,-0.85043 4,-1c10.16009,-1.11229 21.05495,-0.01873 31.30546,-0.01873c8.93214,0 18.37128,-0.85596 27.24634,0.01217c4.32646,0.4232 8.59604,1.4321 12.9107,1.98136c4.62523,0.5888 9.46041,-0.55172 14.0893,0.01864c4.42392,0.5451 8.66984,2.52257 13.05912,3.00656c4.52423,0.49887 7.80248,-0.0485 12.30088,1.05591c3.68293,0.92074 7.02656,1.41566 10.69912,1.94409c4.08002,0.58706 8.07396,2.32363 12.09035,3.0128c2.90496,0.49846 6.07908,-0.47109 9.00465,0.00075c3.03162,0.48895 5.97039,1.49218 9,2c2.66697,0.44703 5.409,0.42578 8.04956,1.0089c2.35331,0.51969 4.5724,1.59988 6.95044,1.9911c2.69859,0.44396 5.48488,0.37348 8.13957,1.03084c3.42553,0.84824 6.72,2.17684 10.15895,3.03657c2.52386,0.84064 4.88696,2.17029 7.46833,2.81298c1.169,0.29105 2.4666,-0.17502 3.60792,0.21055c1.99992,0.67563 3.53713,2.59916 5.62523,2.90905c1.04657,0.15532 2.15657,-0.25596 3.17393,0.03459c3.73321,1.06618 7.80661,3.57575 11.38232,5.12342c2.83561,1.22734 4.28312,1.04719 7.58331,1.87283c3.1342,0.78411 3.42948,1.4786 6.76544,1.9556c2.01121,0.28758 4.08925,-0.30994 6.09499,0.01355c1.04064,0.16784 1.9613,0.82049 3,1c2.26805,0.39197 4.62045,-0.29377 6.90501,-0.01355c3.93504,0.48266 6.6557,0.98127 10.69454,0.98127c5.00187,0 10.66268,0.73766 15.59955,0.03228c2.35275,-0.33616 4.53231,-1.45413 6.85199,-1.97138c4.53355,-1.01091 9.99209,-1.19874 14.33423,-2.82604c1.19337,-0.44724 2.05935,-1.54677 3.23628,-2.03565c5.99595,-2.49063 13.021,-3.03236 19.2088,-5.07796c2.58923,-0.85596 5.22101,-1.65095 7.66364,-2.86354c1.10719,-0.54964 1.95629,-1.56104 3.09415,-2.04401c0.28219,-0.11978 7.87555,-2.0067 8.40504,-2.13908c5.92937,-1.45573 11.37559,-0.47401 17.36,-1.06247c4.09609,-0.40278 7.86062,-2.41074 11.84589,-2.97988c2.63988,-0.377 5.36155,0.38689 8,0c3.01928,-0.44273 5.98487,-1.51371 9,-2c3.25002,-0.52417 6.77364,0.55758 10,0c1.0387,-0.17951 1.95601,-0.85438 3,-1c5.86277,-0.81779 12.47048,-0.03228 18.40045,-0.03228c4.37381,0 9.29655,0.66325 13.59955,0.03228c1.04294,-0.15293 1.95936,-0.83216 3,-1c2.92503,-0.47176 6.09481,0.4934 9,0c2.42369,-0.41162 4.65601,-1.70522 7.095,-2.01355c2.2835,-0.28868 4.63582,0.39894 6.905,0.01355c4.35497,-0.73962 8.66019,-2.30006 13,-3c4.85221,-0.78258 10.47912,-0.03228 15.40046,-0.03228c0.48001,0 6.14144,-0.00949 6.40045,0.03228c1.04065,0.16784 1.96025,0.82671 3,1c3.30932,0.55156 9.85127,0.42133 12.91387,2.34109c3.97964,2.4946 1.11313,134.61305 1.11313,134.61305c0,0 -540.03047,1.16346 -541.61562,-1.8118c-0.79879,-1.49929 -0.28832,-122.78059 -0.31184,-124.67462v-3c0,0 0,-0.1588 0.04002,-0.39636z" fill="url(#color-2)"/></g></g></svg>