<svg version="1.1" xmlns="http://www.w3.org/2000/svg" xmlns:xlink="http://www.w3.org/1999/xlink" width="277.80861" height="185.31877" viewBox="0,0,277.80861,185.31877"><defs><linearGradient x1="310.06247" y1="200.34215" x2="310.06247" y2="275.57656" gradientUnits="userSpaceOnUse" id="color-1"><stop offset="0" stop-color="#636363"/><stop offset="1" stop-color="#424242"/></linearGradient><radialGradient cx="311.13637" cy="255.22533" r="15.04812" gradientUnits="userSpaceOnUse" id="color-2"><stop offset="0" stop-color="#8ba0ff"/><stop offset="1" stop-color="#8ba0ff" stop-opacity="0"/></radialGradient><radialGradient cx="311.36467" cy="255.35172" r="14.27963" gradientUnits="userSpaceOnUse" id="color-3"><stop offset="0" stop-color="#637dff"/><stop offset="1" stop-color="#637dff" stop-opacity="0"/></radialGradient><radialGradient cx="311.4195" cy="255.16934" r="13.69717" gradientUnits="userSpaceOnUse" id="color-4"><stop offset="0" stop-color="#849aff"/><stop offset="1" stop-color="#849aff" stop-opacity="0"/></radialGradient><radialGradient cx="313.24635" cy="253.21938" r="13.74237" gradientUnits="userSpaceOnUse" id="color-5"><stop offset="0" stop-color="#7a94e0"/><stop offset="1" stop-color="#5570ab"/></radialGradient><linearGradient x1="296.07317" y1="255.16929" x2="323.75271" y2="255.16929" gradientUnits="userSpaceOnUse" id="color-6"><stop offset="0" stop-color="#00051a"/><stop offset="1" stop-color="#00051a" stop-opacity="0"/></linearGradient><linearGradient x1="310.81101" y1="210.94294" x2="310.38607" y2="235.99435" gradientUnits="userSpaceOnUse" id="color-7"><stop offset="0" stop-color="#b3bec9" stop-opacity="0.2549"/><stop offset="1" stop-color="#a7bed1" stop-opacity="0.25882"/></linearGradient><linearGradient x1="310.80129" y1="211.70441" x2="310.40698" y2="234.9502" gradientUnits="userSpaceOnUse" id="color-8"><stop offset="0" stop-color="#b6c2cc" stop-opacity="0.23529"/><stop offset="1" stop-color="#bfd2de" stop-opacity="0.29412"/></linearGradient><linearGradient x1="310.81784" y1="210.53388" x2="310.37301" y2="236.75701" gradientUnits="userSpaceOnUse" id="color-9"><stop offset="0" stop-color="#a6b5bf" stop-opacity="0.25098"/><stop offset="1" stop-color="#cfdde6" stop-opacity="0.2549"/></linearGradient><linearGradient x1="310.826" y1="210.05861" x2="310.36026" y2="237.51523" gradientUnits="userSpaceOnUse" id="color-10"><stop offset="0" stop-color="#b6c8d1" stop-opacity="0.19608"/><stop offset="1" stop-color="#cad6e3" stop-opacity="0.20392"/></linearGradient><radialGradient cx="291.62162" cy="219.41154" r="14.78063" gradientUnits="userSpaceOnUse" id="color-11"><stop offset="0" stop-color="#000000" stop-opacity="0.6549"/><stop offset="1" stop-color="#000000" stop-opacity="0.09412"/></radialGradient><radialGradient cx="311.65788" cy="219.88502" r="13.65563" gradientUnits="userSpaceOnUse" id="color-12"><stop offset="0" stop-color="#8cceff"/><stop offset="1" stop-color="#8cceff" stop-opacity="0"/></radialGradient><radialGradient cx="311.86505" cy="219.99972" r="12.95825" gradientUnits="userSpaceOnUse" id="color-13"><stop offset="0" stop-color="#63a3ff"/><stop offset="1" stop-color="#63a3ff" stop-opacity="0"/></radialGradient><radialGradient cx="311.9148" cy="219.83421" r="12.42969" gradientUnits="userSpaceOnUse" id="color-14"><stop offset="0" stop-color="#85bfff"/><stop offset="1" stop-color="#85bfff" stop-opacity="0"/></radialGradient><radialGradient cx="313.57259" cy="218.06469" r="12.47071" gradientUnits="userSpaceOnUse" id="color-15"><stop offset="0" stop-color="#79b1e0"/><stop offset="1" stop-color="#5589ab"/></radialGradient><linearGradient x1="297.98854" y1="219.83412" x2="323.10673" y2="219.83412" gradientUnits="userSpaceOnUse" id="color-16"><stop offset="0" stop-color="#00051a"/><stop offset="1" stop-color="#00051a" stop-opacity="0"/></linearGradient></defs><g transform="translate(-269.7193,-160.0288)"><g data-paper-data="{&quot;isPaintingLayer&quot;:true}" fill-rule="nonzero" stroke-linecap="butt" stroke-linejoin="miter" stroke-miterlimit="10" stroke-dasharray="" stroke-dashoffset="0" style="mix-blend-mode: normal"><path d="M271.73214,275.57656v-75.23442h76.66066v75.23442z" fill="#0a0a0a" stroke="url(#color-1)" stroke-width="3.5"/><text transform="translate(270.03135,187.4892) scale(0.6241,0.6241)" font-size="40" xml:space="preserve" fill="#ffffff" fill-rule="nonzero" stroke="none" stroke-width="1" stroke-linecap="butt" stroke-linejoin="miter" stroke-miterlimit="10" stroke-dasharray="" stroke-dashoffset="0" font-family="Malgun Gothic" font-weight="normal" text-anchor="start" style="mix-blend-mode: normal"><tspan x="0" dy="0">Ice Giant</tspan></text><text transform="translate(354.45435,215.62294) scale(0.45565,0.45565)" font-size="40" xml:space="preserve" fill="#d8d8d8" fill-rule="nonzero" stroke="none" stroke-width="1" stroke-linecap="butt" stroke-linejoin="miter" stroke-miterlimit="10" stroke-dasharray="" stroke-dashoffset="0" font-family="Malgun Gothic" font-weight="normal" text-anchor="start" style="mix-blend-mode: normal"><tspan x="0" dy="0">Common Resources:</tspan></text><text transform="translate(354.45435,256.62748) scale(0.45566,0.45566)" font-size="40" xml:space="preserve" fill="#d8d8d8" fill-rule="nonzero" stroke="none" stroke-width="1" stroke-linecap="butt" stroke-linejoin="miter" stroke-miterlimit="10" stroke-dasharray="" stroke-dashoffset="0" font-family="Malgun Gothic" font-weight="normal" text-anchor="start" style="mix-blend-mode: normal"><tspan x="0" dy="0">Rare Resources:</tspan></text><text transform="translate(271.38373,318.32071) scale(0.45566,0.45566)" font-size="40" xml:space="preserve" fill="#d8d8d8" fill-rule="nonzero" stroke="none" stroke-width="1" stroke-linecap="butt" stroke-linejoin="miter" stroke-miterlimit="10" stroke-dasharray="" stroke-dashoffset="0" font-family="Malgun Gothic" font-weight="normal" text-anchor="start" style="mix-blend-mode: normal"><tspan x="0" dy="0">Has water:</tspan></text><text transform="translate(271.38373,296.92705) scale(0.45566,0.45566)" font-size="40" xml:space="preserve" fill="#d8d8d8" fill-rule="nonzero" stroke="none" stroke-width="1" stroke-linecap="butt" stroke-linejoin="miter" stroke-miterlimit="10" stroke-dasharray="" stroke-dashoffset="0" font-family="Malgun Gothic" font-weight="normal" text-anchor="start" style="mix-blend-mode: normal"><tspan x="0" dy="0">Has fossil fuels:</tspan></text><text transform="translate(355.17562,233.72207) scale(0.37382,0.37382)" font-size="40" xml:space="preserve" fill="#9f9f9f" fill-rule="nonzero" stroke="none" stroke-width="1" stroke-linecap="butt" stroke-linejoin="miter" stroke-miterlimit="10" stroke-dasharray="" stroke-dashoffset="0" font-family="Malgun Gothic" font-weight="normal" text-anchor="start" style="mix-blend-mode: normal"><tspan x="0" dy="0">Hydrogen, Helium, Methane</tspan></text><text transform="translate(355.17562,275.43973) scale(0.37383,0.37383)" font-size="40" xml:space="preserve" fill="#9f9f9f" fill-rule="nonzero" stroke="none" stroke-width="1" stroke-linecap="butt" stroke-linejoin="miter" stroke-miterlimit="10" stroke-dasharray="" stroke-dashoffset="0" font-family="Malgun Gothic" font-weight="normal" text-anchor="start" style="mix-blend-mode: normal"><tspan x="0" dy="0">Oxygen</tspan></text><text transform="translate(401.89328,297.19811) scale(0.37383,0.37383)" font-size="40" xml:space="preserve" fill="#9f9f9f" fill-rule="nonzero" stroke="none" stroke-width="1" stroke-linecap="butt" stroke-linejoin="miter" stroke-miterlimit="10" stroke-dasharray="" stroke-dashoffset="0" font-family="Malgun Gothic" font-weight="normal" text-anchor="start" style="mix-blend-mode: normal"><tspan x="0" dy="0">False</tspan></text><text transform="translate(361.25344,318.59993) scale(0.37383,0.37383)" font-size="40" xml:space="preserve" fill="#9f9f9f" fill-rule="nonzero" stroke="none" stroke-width="1" stroke-linecap="butt" stroke-linejoin="miter" stroke-miterlimit="10" stroke-dasharray="" stroke-dashoffset="0" font-family="Malgun Gothic" font-weight="normal" text-anchor="start" style="mix-blend-mode: normal"><tspan x="0" dy="0">True</tspan></text><text transform="translate(271.38373,340.67705) scale(0.45566,0.45566)" font-size="40" xml:space="preserve" fill="#d8d8d8" fill-rule="nonzero" stroke="none" stroke-width="1" stroke-linecap="butt" stroke-linejoin="miter" stroke-miterlimit="10" stroke-dasharray="" stroke-dashoffset="0" font-family="Malgun Gothic" font-weight="normal" text-anchor="start" style="mix-blend-mode: normal"><tspan x="0" dy="0">Wind data:</tspan></text><text transform="translate(364.50344,340.84993) scale(0.37383,0.37383)" font-size="40" xml:space="preserve" fill="#9f9f9f" fill-rule="nonzero" stroke="none" stroke-width="1" stroke-linecap="butt" stroke-linejoin="miter" stroke-miterlimit="10" stroke-dasharray="" stroke-dashoffset="0" font-family="Malgun Gothic" font-weight="normal" text-anchor="start" style="mix-blend-mode: normal"><tspan x="0" dy="0">FRQ: 9/10, STR: 3/5</tspan></text><g stroke="none" stroke-width="0.5"><path d="M311.13637,270.61014c-8.31082,0 -14.58851,-6.82087 -14.58851,-15.31765c0,-8.49678 6.27766,-15.45193 14.58851,-15.45193c8.31082,0 15.04812,6.88804 15.04812,15.38479c0,8.49678 -6.73731,15.38479 -15.04812,15.38479z" data-paper-data="{&quot;index&quot;:null}" fill="url(#color-2)"/><path d="M311.36467,269.95083c-7.88646,0 -14.27963,-6.53632 -14.27963,-14.59914c0,-8.0629 6.39322,-14.59914 14.27963,-14.59914c7.88646,0 14.27963,6.53629 14.27963,14.59914c0,8.0629 -6.39322,14.59914 -14.27963,14.59914z" data-paper-data="{&quot;index&quot;:null}" fill="url(#color-3)"/><path d="M311.4195,268.91197c-7.56474,0 -13.89789,-6.21994 -13.89789,-13.80978c0,-7.58986 6.33318,-13.67549 13.89789,-13.67549c7.56474,0 13.69717,6.1528 13.69717,13.74263c0,7.58986 -6.13243,13.74263 -13.69717,13.74263z" data-paper-data="{&quot;index&quot;:null}" fill="url(#color-4)"/><path d="M309.91297,268.91171c-7.58971,0 -13.74237,-6.15269 -13.74237,-13.74237c0,-7.58971 6.15269,-13.74237 13.74237,-13.74237c7.58971,0 13.74237,6.15269 13.74237,13.74237c0,7.58971 -6.15269,13.74237 -13.74237,13.74237z" data-paper-data="{&quot;index&quot;:null}" fill="url(#color-5)"/><path d="M305.26636,242.15308c0.27805,-0.09616 0.55928,-0.18025 0.84322,-0.25374c0.99587,-0.32214 2.11324,-0.35779 3.07228,-0.45609c0.76652,-0.07856 2.16165,-0.04118 2.31573,-0.0407l0.03357,0.02339l0.02013,0.0031l0.00337,-0.01868l0.5572,0.10235c1.03984,0.10029 4.34507,1.42339 4.34507,1.67141c0,0.35753 -0.35969,0.45264 -0.40434,0.4427l-1.42486,0.0026l0.00997,-0.05036c-1.85509,0.12516 -3.22499,-0.38652 -5.13293,-0.46303c-1.1294,-0.04525 -2.81281,0.34914 -3.90382,0.33806c-0.256,0.08167 -2.19936,-0.47009 -2.19936,-0.47009c0,0 1.75624,-0.82717 1.86477,-0.83093z" fill-opacity="0.65098" fill="#4f5e99"/><path d="M300.51754,245.14627l0.12789,0.0322c0.01279,-0.10064 0.05478,-0.21056 0.14155,-0.32691c0.39237,-0.52621 0.91552,-0.13155 0.91552,-0.13155c3.3684,2.54781 10.21713,1.29744 14.26826,1.005c0.60895,-0.00029 3.46349,-0.73682 4.01898,0.27139c0.12682,0.23019 0.64097,0.43793 0.40552,0.89487c-0.94167,1.82736 -11.90273,1.25558 -13.8002,0.98269c-2.10998,-0.12484 -3.88635,-0.86335 -5.90756,-1.32904l-0.48716,-0.12237c0,0 -0.27347,-0.3348 -0.22606,-0.52557c0.05667,-0.22798 0.54328,-0.75069 0.54328,-0.75069z" fill-opacity="0.52157" fill="#5c75b5"/><path d="M321.04733,246.97465c0.06546,0.6545 -0.58904,0.71996 -0.58904,0.71996l-0.41044,0.01244c-1.2278,0.50758 -2.72469,1.0628 -4.0215,1.00734c-5.06397,0.31572 -11.42349,0.69241 -16.09664,-1.8127c0,0 -0.57914,-0.31183 -0.26729,-0.89097c0.31183,-0.57914 0.89097,-0.26731 0.89097,-0.26731c4.4546,2.41055 10.65088,1.95764 15.47572,1.65547c1.07267,0.10682 2.48424,-0.47369 3.51279,-0.90613l0.78549,-0.10714c0,0 0.6545,-0.06546 0.71996,0.58904z" fill-opacity="0.45098" fill="#506cb3"/><path d="M321.14631,247.23144c0.52621,0.39465 0.13155,0.92086 0.13155,0.92086l-0.58793,0.49169c-2.18589,0.39529 -4.06197,1.2062 -6.34481,1.20451c-4.56999,0.72858 -10.84895,0.24797 -15.07628,-2.05157c0,0 -0.57743,-0.31496 -0.26247,-0.89242c0.31496,-0.57743 0.89242,-0.26247 0.89242,-0.26247c4.03818,2.20925 9.97816,2.57836 14.34343,1.89497c2.2369,-0.00163 4.06426,-0.79481 6.21239,-1.18733l-0.22916,0.01329c0,0 0.39465,-0.52621 0.92086,-0.13155z" fill-opacity="0.45098" fill="#6877ba"/><path d="M321.79428,248.5026c0.20798,0.624 -0.41602,0.83201 -0.41602,0.83201l-0.57309,0.18996c-2.31762,0.63113 -4.63027,0.85811 -6.94989,1.43865c-5.45423,1.34459 -9.9042,-1.14208 -15.03731,-1.96259c0,0 -0.64881,-0.10814 -0.54068,-0.75695c0.10814,-0.64881 0.75695,-0.54068 0.75695,-0.54068c4.9034,0.84443 9.29751,3.30631 14.50197,1.98395c2.3146,-0.57804 4.61385,-0.80096 6.92282,-1.43157l0.50324,-0.16881c0,0 0.624,-0.20798 0.83201,0.41602z" fill-opacity="0.37647" fill="#8da5d6"/><path d="M322.13613,249.00731c0.36484,0.54728 -0.18244,0.91213 -0.18244,0.91213l-0.75511,0.45241c-2.15131,0.49619 -4.97183,0.79783 -6.91585,1.76987c-5.35551,1.36466 -10.81982,-1.48172 -15.88848,-2.85254c0,0 -0.63458,-0.17307 -0.46151,-0.80765c0.17307,-0.63458 0.80765,-0.46151 0.80765,-0.46151c4.72909,1.29928 10.08006,4.10891 15.08593,2.8879c1.97364,-0.98685 4.89201,-1.31354 7.07644,-1.81788l0.3212,-0.26516c0,0 0.54731,-0.36484 0.91215,0.18244z" fill-opacity="0.4" fill="#677cc7"/><path d="M322.2269,250.46834c0.15952,0.63813 -0.47858,0.79765 -0.47858,0.79765l-0.28105,0.06883c-2.57857,0.45911 -5.1841,1.4979 -7.75662,1.80023c-5.69555,0.62079 -10.34553,-1.49863 -15.82943,-2.76321c0,0 -0.64092,-0.14792 -0.493,-0.78881c0.14792,-0.64092 0.78881,-0.493 0.78881,-0.493c5.29739,1.22335 9.90125,3.42187 15.38413,2.73803c2.50203,-0.25884 5.16242,-1.32017 7.67077,-1.78755l0.19733,-0.05075c0,0 0.6381,-0.15952 0.79765,0.47858z" fill-opacity="0.74902" fill="#6f8cc7"/><path d="M323.29873,252.36963c0.40999,0.5136 -0.1025,0.92452 -0.1025,0.92452l-0.37761,0.2937c-3.1335,1.80205 -6.95618,3.15931 -10.5678,3.4377c-5.12409,0.00268 -10.32364,-3.96749 -15.18931,-3.58922c0,0 -0.65439,0.05044 -0.70472,-0.60537c-0.05033,-0.65584 0.60403,-0.70625 0.60403,-0.70625c4.95612,-0.37908 10.07984,3.58344 15.23961,3.5863c3.35793,-0.25892 7.07005,-1.53705 9.95679,-3.25948l0.21903,-0.18465c0,0 0.5125,-0.41089 0.92249,0.10272z" fill-opacity="0.63529" fill="#7a94cc"/><path d="M322.65547,250.45332c0.29418,0.5883 -0.29415,0.88247 -0.29415,0.88247l-0.25421,0.10958c-2.81436,0.70222 -5.41098,2.35817 -8.28677,2.34848c-4.11475,0.83798 -12.73087,-1.02813 -16.30902,-3.14013c0,0 -0.56401,-0.33843 -0.22561,-0.90244c0.3384,-0.56401 0.90244,-0.22561 0.90244,-0.22561c3.31286,2.02952 11.59166,3.72846 15.50256,2.95907c2.80247,-0.00829 5.34107,-1.62513 8.09734,-2.31562l-0.01502,-0.01c0,0 0.5883,-0.29415 0.88247,0.29418z" fill-opacity="0.67451" fill="#758bc7"/><path d="M323.52274,253.57228c0.2238,0.61816 -0.39166,0.84296 -0.39166,0.84296l-0.65489,0.23919c-3.80223,1.3709 -6.61554,3.66945 -10.83179,3.14521c-5.04866,-0.46098 -9.82329,-2.82512 -14.80212,-3.65271c0,0 -0.64597,-0.10814 -0.53831,-0.75695c0.10766,-0.64881 0.75363,-0.54068 0.75363,-0.54068c4.94855,0.83475 9.71261,3.18455 14.72732,3.64242c3.93113,0.49861 6.68553,-1.75995 10.24365,-3.0736l0.65489,-0.23919c0,0 0.61545,-0.2248 0.83927,0.39337z" fill-opacity="0.67451" fill="#7b95cf"/><path d="M320.99871,248.29856c0.16089,-0.10916 0.51518,-0.27331 0.86945,0.0703c0.47951,0.46509 0,0.93023 0,0.93023l-0.36274,0.22927c-1.72293,0.45167 -3.48843,0.65071 -5.21817,1.12992c-6.45902,2.08625 -11.19551,-1.20428 -17.43815,-1.52631c0,0 -0.6771,-0.03649 -0.63947,-0.69325c0.03762,-0.65676 0.71469,-0.62027 0.71469,-0.62027c6.0454,0.33827 10.73792,3.59722 16.96207,1.58306c1.69196,-0.46903 3.428,-0.66812 5.1123,-1.10295z" fill-opacity="0.58039" fill="#637cb5"/><path d="M322.99282,250.98058c0.361,0.54728 -0.18051,0.91213 -0.18051,0.91213l-0.31612,0.19046c-3.68478,1.3509 -7.28451,3.10298 -11.2726,2.78174c-3.79739,-0.97432 -10.04583,-2.77005 -13.85919,-2.74214c0,0 -0.65084,0 -0.65084,-0.65776c0,-0.65776 0.65084,-0.65776 0.65084,-0.65776c3.9822,0.02323 10.10797,1.77313 14.06772,2.75911c3.72064,0.2771 7.17682,-1.45114 10.61926,-2.71951l0.03891,-0.04873c0,0 0.54152,-0.36484 0.90257,0.18244z" fill-opacity="0.45098" fill="#7795d6"/><path d="M323.22693,252.52144c0.26589,0.60456 -0.3545,0.86369 -0.3545,0.86369l-0.50997,0.20725c-2.76061,0.76608 -5.43768,2.37437 -8.32639,2.59175c-5.8165,0.93231 -10.77378,-3.57594 -16.54797,-3.22533c0,0 -0.67381,0.03862 -0.71343,-0.618c-0.03962,-0.65663 0.63418,-0.69525 0.63418,-0.69525c5.72536,-0.31112 10.78117,4.16866 16.46433,3.23267c2.7965,-0.2088 5.4416,-1.80276 8.11841,-2.55073l0.34909,-0.15152c0,0 0.6204,-0.2591 0.88629,0.34548z" fill-opacity="0.45098" fill="#80a1d6"/><path d="M322.14134,251.56506c0.0909,-0.08017 0.4964,-0.39223 0.90192,0.01744c0.4604,0.46509 0,0.93023 0,0.93023l-0.2284,0.18299c-2.97564,1.50308 -6.9876,3.19807 -10.31914,2.93918c-5.17421,-0.00481 -9.81582,-2.61748 -14.84422,-3.17273c0,0 -0.6471,-0.07264 -0.5752,-0.72637c0.07191,-0.65373 0.71901,-0.58109 0.71901,-0.58109c4.99819,0.56941 9.61376,3.17063 14.75034,3.16566c3.09041,0.24016 6.81745,-1.35793 9.59563,-2.75529z" fill-opacity="0.4" fill="#7b9dd6"/><path d="M322.64458,250.29341c0.08275,0.65268 -0.57933,0.73427 -0.57933,0.73427l-0.357,0.0311c-2.35135,0.75803 -4.24648,1.63629 -6.78109,1.94596c-5.81468,0.00776 -11.33414,-2.65247 -16.90395,-2.62977c0,0 -0.66723,0 -0.66723,-0.65776c0,-0.65776 0.66723,-0.65776 0.66723,-0.65776c5.58284,0.01992 11.0187,2.62379 16.82104,2.63229c2.42289,-0.30141 4.19715,-1.13147 6.44202,-1.88098l0.61348,-0.08848c0,0 0.66207,-0.08159 0.74484,0.57109z" fill-opacity="0.37647" fill="#7592d1"/><path d="M323.68162,254.57441c0,0.65776 -0.65634,0.65776 -0.65634,0.65776l0.00132,-0.02531c-3.77876,1.07299 -6.78561,3.7338 -10.76312,3.73233c-5.24191,-0.34885 -10.26057,-3.95623 -15.43175,-3.8864c0,0 -0.65634,0 -0.65634,-0.65776c0,-0.65776 0.65634,-0.65776 0.65634,-0.65776c5.25851,0.05241 10.1783,3.53168 15.47543,3.88711c3.74717,-0.00145 6.76764,-2.64647 10.35881,-3.68242l0.35929,-0.02531c0,0 0.65634,0 0.65634,0.65776z" fill-opacity="0.37647" fill="#5d79ba"/><path d="M323.14445,256.72709c0,0.65776 -0.65634,0.65776 -0.65634,0.65776l0.07367,-0.02907c-4.02171,1.2399 -6.62888,3.35427 -11.00928,3.0144c-4.67118,-0.73706 -9.83663,-3.37174 -14.50858,-2.69296c0,0 -0.64973,0.09303 -0.74256,-0.55812c-0.09282,-0.65115 0.55691,-0.74416 0.55691,-0.74416c0.19317,-0.02731 0.38689,-0.04936 0.58106,-0.06651c-0.21798,-0.02402 -0.43725,-0.04465 -0.65789,-0.06162c0,0 -0.65439,-0.05044 -0.60406,-0.70627c0.05033,-0.65584 0.70472,-0.60537 0.70472,-0.60537c5.26443,0.4071 9.73005,2.88632 14.9096,3.58728c4.07478,0.00116 7.08521,-2.5547 10.8952,-3.50977l0.21885,-0.01963c0,0 0.65634,0 0.65634,0.65776c0,0.49558 -0.37255,0.61777 -0.55628,0.64789c0.08104,0.09651 0.1386,0.23361 0.1386,0.42844z" fill-opacity="0.54118" fill="#6472ba"/><path d="M296.83044,255.72114c0.6415,-0.11766 0.75816,0.52949 0.75816,0.52949l0.07975,0.45188c4.163,-0.24327 9.11318,1.71433 13.35866,2.90432c3.59754,-0.29168 7.37838,-1.95662 10.17572,-2.03884c0.24279,-0.10821 0.48353,-0.21424 0.72203,-0.31667l0.39331,-0.54557c0.11813,-0.16799 0.31249,-0.27765 0.5322,-0.27765c0.36011,0 0.65202,0.29449 0.65202,0.65776c0,0.04467 -0.00442,0.08827 -0.01281,0.13045l-0.11627,0.645l-0.24355,-0.04467l-0.20838,0.28904c-0.85635,1.82986 -3.92684,2.66005 -7.17061,2.94094c-1.1074,0.2475 -2.21941,0.36387 -3.31284,0.27726c-0.24161,-0.05615 -0.487,-0.11684 -0.73585,-0.18141c-1.69004,-0.05741 -3.16531,-0.22685 -4.07039,-0.42986c-2.31491,-0.68817 -10.97697,-1.36293 -11.21537,-3.62745l-0.11066,-0.59916c0,0 -0.11663,-0.64715 0.52486,-0.76481z" fill-opacity="0.45098" fill="#567bc4"/><path d="M319.55577,245.42942c0,0.65776 -0.65776,0.65776 -0.65776,0.65776h-0.53815c-0.69728,-0.002 -1.28179,0.08432 -1.95357,0.26813c-4.38601,1.58275 -10.59753,0.28163 -15.0266,-0.51792c0,0 -0.64715,-0.11766 -0.52949,-0.76481c0.11766,-0.64715 0.76481,-0.52949 0.76481,-0.52949c4.20457,0.76942 10.23834,2.08175 14.3931,0.55841c0.80278,-0.21838 1.51924,-0.32777 2.35175,-0.32985h0.53815c0,0 0.65776,0 0.65776,0.65776z" fill-opacity="0.33725" fill="#5f6db0"/><path d="M318.31359,244.34417c0.24079,0.61071 -0.36121,0.85498 -0.36121,0.85498l-0.36492,0.14347c-5.20276,1.39666 -9.89922,-0.01868 -15.12924,-0.39705c0,0 -0.64671,-0.04686 -0.60051,-0.70296c0.0462,-0.6561 0.69291,-0.60924 0.69291,-0.60924c5.03942,0.36571 9.69653,1.87671 14.69567,0.44009l0.22451,-0.09572c0,0 0.60201,-0.24429 0.8428,0.36642z" fill-opacity="0.45098" fill="#495bad"/><path d="M317.5825,243.72204c0.54775,0.36413 -0.65776,0.65776 -0.65776,0.65776l-0.12153,-0.01063c-4.52442,0.81749 -8.73613,-0.35153 -13.15323,-0.34816c0,0 -1.09175,-0.16349 -0.65776,-0.65776c0.48324,-0.55036 1.03363,-0.44299 1.03363,-0.44299c4.33873,0.00308 11.19409,-0.76879 13.55665,0.80178z" fill-opacity="0.29804" fill="#304573"/><path d="M316.44313,243.06407c0.20798,0.4658 -0.14755,0.56738 -0.14755,0.56738l-0.32783,0.0678c-3.53266,0.23966 -8.18919,0.38823 -11.58035,-0.23582c0,0 -0.6381,-0.11908 -0.47858,-0.59543c0.15952,-0.47635 0.79765,-0.35724 0.79765,-0.35724c3.25043,0.6165 10.34737,-0.18096 11.73666,0.55331z" fill-opacity="0.29804" fill="#5e6c91"/><path d="M323.08083,258.49743c0.38231,0.53526 -0.15294,0.91755 -0.15294,0.91755l-0.39705,0.28294c-3.05334,2.37422 -6.72597,2.5902 -10.44956,2.5902c-5.04892,-0.0025 -9.76481,-2.43823 -14.76032,-2.81236c0,0 -0.65584,-0.05044 -0.60537,-0.70625c0.05046,-0.65584 0.70627,-0.60537 0.70627,-0.60537c4.96462,0.39087 9.64941,2.8111 14.65942,2.80849c3.42152,0 6.83068,-0.12597 9.64191,-2.31307l0.44009,-0.31504c0,0 0.53523,-0.38231 0.91755,0.15294z" fill-opacity="0.45098" fill="#6a84d6"/><path d="M322.16376,260.20292c0.40707,0.5136 -0.10177,0.92452 -0.10177,0.92452l-0.3032,0.24476c-2.07609,1.62437 -5.1865,1.98451 -7.75094,2.1118c-5.64143,-0.37316 -10.82156,-2.73798 -16.43954,-3.0506c0,0 -0.65063,-0.03649 -0.61448,-0.69322c0.03615,-0.65676 0.68675,-0.62027 0.68675,-0.62027c5.60567,0.3167 10.75955,2.66337 16.37808,3.04863c2.26003,-0.11611 5.11351,-0.39523 6.94,-1.83475l0.28918,-0.23361c0,0 0.50884,-0.41089 0.91589,0.10272z" fill-opacity="0.45098" fill="#5877ba"/><path d="M321.61029,261.68408c0.36235,0.54728 -0.18115,0.91215 -0.18115,0.91215l-0.26679,0.16952c-2.67005,1.24085 -4.97765,1.70428 -7.92348,1.49385c-5.08654,-0.39726 -10.21205,-1.95783 -15.27131,-2.87903c0,0 -0.64271,-0.11766 -0.52584,-0.76481c0.11687,-0.64715 0.75955,-0.52949 0.75955,-0.52949c5.01001,0.92178 10.09724,2.47433 15.13424,2.8614c2.73393,0.19804 4.80402,-0.22601 7.27932,-1.37637l0.08956,-0.06967c0,0 0.54352,-0.36487 0.90586,0.18241z" fill-opacity="0.45098" fill="#7a8ac2"/><path d="M321.1179,262.74657c0.25579,0.60458 -0.34106,0.86369 -0.34106,0.86369l-0.46369,0.19883c-3.9126,1.30831 -7.39606,0.97264 -11.32845,0.37276c-0.19656,0.10151 -0.41002,0.07448 -0.41002,0.07448l-0.58727,-0.08525c-2.84378,-0.91047 -6.29798,-1.98096 -9.25012,-1.70625c0,0 -0.64671,0.05954 -0.70548,-0.59551c-0.0588,-0.65505 0.5879,-0.71461 0.5879,-0.71461c3.12306,-0.28428 6.74951,0.8002 9.75878,1.76192l0.03747,0.0036c0.21067,-0.12453 0.45609,-0.08627 0.45609,-0.08627c3.84628,0.6028 7.22265,1.02715 11.03041,-0.27286l0.36279,-0.15997c0,0 0.59688,-0.2591 0.85266,0.34548z" fill-opacity="0.45098" fill="#7292d6"/><path d="M323.1028,258.19147c0.30678,0.58832 -0.30678,0.88247 -0.30678,0.88247l-0.12771,0.04489c-3.6002,2.70578 -5.48123,3.29455 -10.18735,2.47017c-4.65382,-0.40431 -9.96766,-2.81033 -14.62724,-1.97788c0,0 -0.67494,0.11766 -0.79765,-0.52949c-0.12271,-0.64715 0.55223,-0.76481 0.55223,-0.76481c4.86275,-0.83017 10.21716,1.54534 15.05767,1.96867c4.32918,0.75153 5.88596,0.3463 9.14525,-2.19391l0.37121,-0.19428c0,0 0.61358,-0.29415 0.92036,0.29415z" fill-opacity="0.45098" fill="#6581b8"/><path d="M318.21248,265.63694c0.05857,0.65505 -0.58569,0.71461 -0.58569,0.71461l-0.63345,0.05841c-0.31146,0.04112 -0.62295,0.08225 -0.93441,0.12337c-5.09415,-0.35066 -10.56577,-0.69588 -15.53468,-1.50355c0,0 -0.63813,-0.10814 -0.53176,-0.75695c0.10635,-0.64881 0.74448,-0.54068 0.74448,-0.54068c2.08917,0.37226 4.29371,0.62847 6.52559,0.83035c-2.54068,-0.5913 -5.05147,-1.25787 -7.75462,-1.25787c0,0 -0.64163,0 -0.64163,-0.65776c0,-0.65776 0.64163,-0.65776 0.64163,-0.65776c4.86527,0 9.10713,2.15266 13.99937,2.15266c1.95322,0 3.91542,-0.22677 5.83497,-0.58735l-0.06614,-0.01973c0,0 0.53386,-0.36487 0.88979,0.18244c0.35593,0.54728 -0.17796,0.91215 -0.17796,0.91215l-0.41612,0.21945c-0.55317,0.10237 -1.10951,0.19475 -1.66794,0.27478c0.14626,0.07809 0.2831,0.22785 0.30865,0.51342z" fill-opacity="0.37647" fill="#6383c9"/><path d="M319.34766,264.71114c0.20198,0.624 -0.40399,0.83201 -0.40399,0.83201l-0.23256,0.07669c-1.06091,0.252 -2.00382,0.37576 -3.08836,0.3754c-5.15058,0.27915 -10.66649,-2.54878 -15.58114,-1.62487c0,0 -0.62845,0.11766 -0.74271,-0.52949c-0.11427,-0.64715 0.51418,-0.76481 0.51418,-0.76481c5.03769,-0.93962 10.5308,1.8884 15.7761,1.60411c1.00497,-0.00032 1.8508,-0.10827 2.83467,-0.34217l0.11584,-0.04289c0,0 0.60598,-0.20801 0.80796,0.41599z" fill-opacity="0.67451" fill="#658bc4"/><path d="M316.97852,266.1797c0.28092,0.58832 -0.28092,0.88247 -0.28092,0.88247l-0.50929,0.18904c-0.43667,-0.00332 -0.87384,0.07233 -1.29936,0.17517c-4.63124,0.01242 -9.01843,-1.35435 -13.58882,-1.67152c0,0 -0.62674,-0.04375 -0.58496,-0.70006c0.04178,-0.65631 0.66852,-0.61256 0.66852,-0.61256c4.49922,0.31607 8.80824,1.66018 13.36311,1.67707c0.47164,-0.11398 0.95746,-0.1807 1.44152,-0.18362l-0.05249,-0.05015c0,0 0.5618,-0.29415 0.84272,0.29415z" fill-opacity="0.74902" fill="#597dcc"/><path d="M318.41838,265.03304c0.41081,0.4994 -0.06846,0.92746 -0.06846,0.92746l-0.64642,0.49395c-1.1083,0.31365 -2.14124,0.71356 -3.2831,0.91239c-4.95781,0.72858 -10.37818,-0.8649 -14.66755,-3.05152c0,0 -0.56459,-0.29415 -0.28228,-0.88247c0.28228,-0.58832 0.84688,-0.29415 0.84688,-0.29415c3.9913,2.11561 9.26641,3.62937 13.90991,2.9281c1.09419,-0.18951 2.08157,-0.57841 3.14395,-0.8815l0.15699,-0.22361c0,0 0.47927,-0.42807 0.89008,0.07135z" fill-opacity="0.30196" fill="#6377d2"/><path d="M318.1206,265.69648c0,0.65776 -0.65776,0.65776 -0.65776,0.65776l-0.43815,-0.00766c-5.05873,0.77481 -10.49702,-0.26618 -15.35424,-1.69338c0,0 -0.63103,-0.18559 -0.44543,-0.81662c0.18559,-0.63103 0.81662,-0.44543 0.81662,-0.44543c4.66882,1.37458 9.9168,2.40742 14.78302,1.65521l0.63818,-0.00766c0,0 0.65776,0 0.65776,0.65776z" fill-opacity="0.30196" fill="#6586e0"/><path d="M315.21607,267.13642c0.27763,0.58832 -0.27763,0.88247 -0.27763,0.88247l-0.23053,0.10703c-3.8065,1.07217 -8.39467,-0.84443 -12.21166,-1.41952c0,0 -0.61453,-0.09303 -0.52676,-0.74416c0.0878,-0.65115 0.7023,-0.55812 0.7023,-0.55812c3.60654,0.54862 8.12754,2.46809 11.71616,1.4507l-0.00481,-0.01258c0,0 0.55523,-0.29415 0.83285,0.29415z" fill-opacity="0.39216" fill="#5578c2"/><path d="M313.82142,267.68473c0.27368,0.45204 -0.32372,0.62916 -0.32372,0.62916c-0.19399,0.05751 -0.69778,0.20685 -1.01652,0.30136c-0.11474,0.09906 -0.26168,0.1426 -0.26168,0.1426l-0.2961,0.06728c-2.79721,0.19278 -5.48209,-0.31167 -8.03906,-1.26924c0,0 -0.59874,-0.22456 -0.32801,-0.65502c0.27076,-0.43046 0.8695,-0.2059 0.8695,-0.2059c2.25516,0.84709 4.63516,1.32425 7.10141,1.1767c0.10237,-0.07035 0.20864,-0.10187 0.20864,-0.10187c0.2429,-0.07201 0.48577,-0.144 0.72866,-0.21601l0.48577,-0.144c0,0 0.59743,-0.17712 0.87111,0.27494z" fill-opacity="0.50588" fill="#577dbf"/><path d="M309.91289,268.91166c-7.58971,0 -13.74237,-6.15269 -13.74237,-13.74237c0,-7.58971 6.15269,-13.74237 13.74237,-13.74237c7.58971,0 13.74237,6.15269 13.74237,13.74237c0,7.58971 -6.15269,13.74237 -13.74237,13.74237z" data-paper-data="{&quot;index&quot;:null}" fill-opacity="0.37647" fill="#1f62ff"/><path d="M309.91286,268.96591c-7.64351,0 -13.83974,-6.17697 -13.83974,-13.79665c0,-7.61965 6.19631,-13.79665 13.83977,-13.79665c2.70675,0 5.23199,0.77463 7.36483,2.11359c3.89011,2.44212 6.47494,6.76169 6.47494,11.68306c0,7.61965 -6.19634,13.79665 -13.83977,13.79665z" data-paper-data="{&quot;index&quot;:null}" fill="url(#color-6)"/></g><g><path d="M284.36705,215.61555c3.77445,-5.54173 18.57846,-6.51829 33.06563,-2.18114c14.48724,4.33718 23.17161,12.34555 19.39715,17.8873c-3.77445,5.54173 -18.57846,6.51827 -33.06558,2.18109c-14.48715,-4.33716 -23.17158,-12.34557 -19.39708,-17.88728z" data-paper-data="{&quot;index&quot;:null}" fill="none" stroke="url(#color-7)" stroke-width="1.375"/><path d="M285.69182,216.00231c3.56695,-5.13062 17.61228,-6.01017 31.37098,-1.96468c13.7587,4.04549 22.02071,11.48424 18.45375,16.61476c-3.56695,5.13062 -17.61226,6.01019 -31.37094,1.9647c-13.7587,-4.04549 -22.02078,-11.48421 -18.45383,-16.61478z" data-paper-data="{&quot;index&quot;:null}" fill="none" stroke="url(#color-8)" stroke-width="1.375"/><path d="M283.1858,215.43302c3.94825,-5.80377 19.42072,-6.8318 34.55869,-2.29622c15.13795,4.53559 24.20903,12.91725 20.26074,18.72102c-3.94829,5.80377 -19.42081,6.83185 -34.55874,2.29626c-15.13795,-4.53559 -24.20898,-12.91725 -20.26066,-18.72102z" data-paper-data="{&quot;index&quot;:null}" fill="none" stroke="url(#color-9)" stroke-width="1.375"/><path d="M281.86519,215.19417c4.1419,-6.07919 20.36149,-7.16024 36.22744,-2.41462c15.86599,4.74564 25.37022,13.5209 21.2283,19.6001c-4.1419,6.07919 -20.36149,7.16021 -36.22744,2.41454c-15.86599,-4.74564 -25.3702,-13.52083 -21.22832,-19.60005z" data-paper-data="{&quot;index&quot;:null}" fill="none" stroke="url(#color-10)" stroke-width="1.375"/><path d="M281.86959,223.19803c0,0 -3.97269,-4.37657 -0.12306,-9.40414c3.87385,-3.8633 8.7785,-3.99545 8.7785,-3.99545l15.99184,3.03858c0,0 -15.96001,-2.09366 -20.26341,3.80592c-3.51165,6.62502 12.88848,13.56178 12.88848,13.56178z" fill="url(#color-11)" stroke="none" stroke-width="0"/><path d="M311.65788,233.84619c-7.54177,0 -13.23855,-6.18969 -13.23855,-13.90021c0,-7.71052 5.69675,-14.02208 13.23855,-14.02208c7.54177,0 13.65563,6.25065 13.65563,13.96114c0,7.71052 -6.11386,13.96114 -13.65563,13.96114z" data-paper-data="{&quot;index&quot;:null}" fill="url(#color-12)" stroke="none" stroke-width="0.5"/><path d="M311.86505,233.24789c-7.15668,0 -12.95825,-5.93148 -12.95825,-13.24819c0,-7.31679 5.80162,-13.24819 12.95825,-13.24819c7.15668,0 12.95825,5.93145 12.95825,13.24819c0,7.31679 -5.80162,13.24819 -12.95825,13.24819z" data-paper-data="{&quot;index&quot;:null}" fill="url(#color-13)" stroke="none" stroke-width="0.5"/><path d="M311.9148,232.30516c-6.86473,0 -12.61184,-5.64437 -12.61184,-12.53188c0,-6.88753 5.74713,-12.41002 12.61184,-12.41002c6.86473,0 12.42969,5.58344 12.42969,12.47095c0,6.88753 -5.56496,12.47095 -12.42969,12.47095z" data-paper-data="{&quot;index&quot;:null}" fill="url(#color-14)" stroke="none" stroke-width="0.5"/><path d="M310.54768,232.30492c-6.88739,0 -12.47071,-5.58335 -12.47071,-12.47071c0,-6.88739 5.58335,-12.47071 12.47071,-12.47071c6.88739,0 12.47071,5.58335 12.47071,12.47071c0,6.88739 -5.58335,12.47071 -12.47071,12.47071z" data-paper-data="{&quot;index&quot;:null}" fill="url(#color-15)" stroke="none" stroke-width="0.5"/><path d="M306.33103,208.02243c0.25232,-0.08727 0.50752,-0.16357 0.76519,-0.23026c0.90372,-0.29233 1.91769,-0.32469 2.78798,-0.41388c0.69559,-0.07129 1.96162,-0.03737 2.10144,-0.03694l0.03047,0.02123l0.01826,0.00282l0.00306,-0.01695l0.50564,0.09288c0.94361,0.09101 3.94299,1.29167 3.94299,1.51675c0,0.32445 -0.3264,0.41076 -0.36692,0.40173l-1.29301,0.00236l0.00905,-0.0457c-1.68342,0.11358 -2.92656,-0.35076 -4.65795,-0.42019c-1.02489,-0.04107 -2.55252,0.31683 -3.54257,0.30678c-0.23231,0.07411 -1.99584,-0.42659 -1.99584,-0.42659c0,0 1.59372,-0.75063 1.69221,-0.75404z" fill-opacity="0.65098" fill="#506c99" stroke="none" stroke-width="0.5"/><path d="M302.02166,210.73864l0.11606,0.02922c0.0116,-0.09132 0.04971,-0.19108 0.12845,-0.29665c0.35606,-0.47751 0.8308,-0.11938 0.8308,-0.11938c3.0567,2.31205 9.27168,1.17738 12.94793,0.912c0.5526,-0.00026 3.14299,-0.66864 3.64708,0.24628c0.11508,0.20889 0.58166,0.39741 0.368,0.81206c-0.85453,1.65826 -10.8013,1.13939 -12.52319,0.89176c-1.91473,-0.11329 -3.52672,-0.78346 -5.3609,-1.20605l-0.44208,-0.11105c0,0 -0.24816,-0.30382 -0.20514,-0.47694c0.05143,-0.20688 0.49301,-0.68122 0.49301,-0.68122z" fill-opacity="0.52157" fill="#5c8fb5" stroke="none" stroke-width="0.5"/><path d="M320.65169,212.39783c0.0594,0.59393 -0.53453,0.65333 -0.53453,0.65333l-0.37246,0.01129c-1.11418,0.46061 -2.47256,0.96446 -3.64937,0.91413c-4.59537,0.28651 -10.3664,0.62834 -14.60712,-1.64496c0,0 -0.52555,-0.28297 -0.24255,-0.80853c0.28297,-0.52555 0.80853,-0.24258 0.80853,-0.24258c4.04239,2.18749 9.66529,1.77649 14.04366,1.50228c0.97341,0.09694 2.25436,-0.42986 3.18773,-0.82228l0.71281,-0.09722c0,0 0.59393,-0.0594 0.65333,0.53453z" fill-opacity="0.45098" fill="#5089b3" stroke="none" stroke-width="0.5"/><path d="M320.7079,212.63086c0.47751,0.35813 0.11938,0.83565 0.11938,0.83565l-0.53353,0.44619c-1.98361,0.35871 -3.68609,1.09458 -5.75769,1.09305c-4.14711,0.66116 -9.84503,0.22503 -13.68118,-1.86173c0,0 -0.524,-0.28582 -0.23818,-0.80984c0.28582,-0.524 0.80984,-0.23818 0.80984,-0.23818c3.66451,2.00481 9.05482,2.33977 13.01615,1.71962c2.02991,-0.00148 3.68817,-0.72126 5.63752,-1.07746l-0.20796,0.01206c0,0 0.35813,-0.47751 0.83565,-0.11938z" fill-opacity="0.45098" fill="#689bba" stroke="none" stroke-width="0.5"/><path d="M321.32955,213.78439c0.18874,0.56626 -0.37752,0.75502 -0.37752,0.75502l-0.52006,0.17238c-2.10316,0.57273 -4.2018,0.7787 -6.30678,1.30552c-4.94952,1.22017 -8.9877,-1.03639 -13.64582,-1.78098c0,0 -0.58877,-0.09813 -0.49064,-0.6869c0.09813,-0.58877 0.6869,-0.49064 0.6869,-0.49064c4.44966,0.76629 8.43715,3.00036 13.16002,1.80037c2.10041,-0.52455 4.18691,-0.72685 6.28221,-1.2991l0.45667,-0.15319c0,0 0.56626,-0.18874 0.75502,0.37752z" fill-opacity="0.37647" fill="#8da5d6" stroke="none" stroke-width="0.5"/><path d="M321.63976,214.24239c0.33108,0.49664 -0.16555,0.82772 -0.16555,0.82772l-0.68523,0.41054c-1.95224,0.45027 -4.51176,0.72401 -6.27588,1.60609c-4.85994,1.23838 -9.8186,-1.34461 -14.41822,-2.58857c0,0 -0.57586,-0.15705 -0.4188,-0.73291c0.15705,-0.57586 0.73291,-0.4188 0.73291,-0.4188c4.29148,1.17905 9.14729,3.72868 13.68994,2.62066c1.79101,-0.89553 4.43932,-1.19199 6.42162,-1.64966l0.29147,-0.24062c0,0 0.49666,-0.33108 0.82775,0.16555z" fill-opacity="0.4" fill="#67a6c7" stroke="none" stroke-width="0.5"/><path d="M321.72211,215.56823c0.14476,0.57908 -0.4343,0.72384 -0.4343,0.72384l-0.25504,0.06246c-2.33996,0.41663 -4.70439,1.35929 -7.03885,1.63364c-5.16851,0.56335 -9.38819,-1.35996 -14.36464,-2.50752c0,0 -0.58161,-0.13423 -0.44738,-0.71582c0.13423,-0.58161 0.71582,-0.44738 0.71582,-0.44738c4.8072,1.11015 8.98503,3.10522 13.96055,2.48467c2.2705,-0.23489 4.68471,-1.19801 6.96095,-1.62214l0.17907,-0.04606c0,0 0.57906,-0.14476 0.72384,0.4343z" fill-opacity="0.74902" fill="#6faec7" stroke="none" stroke-width="0.5"/><path d="M322.69478,217.29358c0.37205,0.46608 -0.09302,0.83897 -0.09302,0.83897l-0.34266,0.26652c-2.84354,1.63529 -6.31248,2.86696 -9.58989,3.11959c-4.64993,0.00244 -9.36833,-3.60035 -13.78375,-3.25709c0,0 -0.59384,0.04577 -0.63951,-0.54935c-0.04567,-0.59515 0.54814,-0.64089 0.54814,-0.64089c4.4975,-0.344 9.1471,3.25184 13.8294,3.25444c3.0472,-0.23496 6.41582,-1.39482 9.03543,-2.95786l0.19876,-0.16756c0,0 0.46507,-0.37287 0.83713,0.09321z" fill-opacity="0.63529" fill="#7ab0cc" stroke="none" stroke-width="0.5"/><path d="M322.11102,215.5546c0.26695,0.53386 -0.26693,0.80081 -0.26693,0.80081l-0.23069,0.09944c-2.55393,0.63724 -4.91027,2.13995 -7.51995,2.13116c-3.73398,0.76044 -11.55281,-0.93299 -14.79985,-2.84956c0,0 -0.51182,-0.30711 -0.20473,-0.81893c0.30709,-0.51182 0.81893,-0.20473 0.81893,-0.20473c3.0063,1.84172 10.51902,3.38344 14.06801,2.68525c2.54314,-0.00752 4.84683,-1.47475 7.34804,-2.10134l-0.01363,-0.00907c0,0 0.53386,-0.26693 0.80081,0.26695z" fill-opacity="0.67451" fill="#75abc7" stroke="none" stroke-width="0.5"/><path d="M322.89806,218.38494c0.20309,0.56096 -0.35541,0.76495 -0.35541,0.76495l-0.59429,0.21705c-3.45039,1.24404 -6.00337,3.32989 -9.82946,2.85417c-4.58148,-0.41833 -8.91429,-2.5637 -13.43239,-3.3147c0,0 -0.5862,-0.09813 -0.4885,-0.6869c0.0977,-0.58877 0.68389,-0.49064 0.68389,-0.49064c4.49063,0.7575 8.81384,2.88986 13.36452,3.30537c3.56736,0.45247 6.06688,-1.59709 9.29575,-2.78918l0.59429,-0.21705c0,0 0.5585,-0.20399 0.76161,0.35696z" fill-opacity="0.67451" fill="#7aadcf" stroke="none" stroke-width="0.5"/><path d="M320.60759,213.59923c0.146,-0.09906 0.46751,-0.24802 0.78899,0.0638c0.43513,0.42205 0,0.84415 0,0.84415l-0.32917,0.20805c-1.5635,0.40987 -3.16563,0.59049 -4.73531,1.02536c-5.86133,1.8932 -10.15952,-1.09284 -15.8245,-1.38507c0,0 -0.61444,-0.03312 -0.5803,-0.6291c0.03414,-0.59598 0.64856,-0.56287 0.64856,-0.56287c5.48598,0.30697 9.74427,3.26435 15.39247,1.43657c1.5354,-0.42563 3.11078,-0.6063 4.63923,-1.00089z" fill-opacity="0.58039" fill="#6498b5" stroke="none" stroke-width="0.5"/><path d="M322.41715,216.03307c0.3276,0.49664 -0.16381,0.82772 -0.16381,0.82772l-0.28687,0.17284c-3.34381,1.2259 -6.61043,2.81585 -10.22948,2.52433c-3.446,-0.88416 -9.11623,-2.51372 -12.57672,-2.48839c0,0 -0.59061,0 -0.59061,-0.59689c0,-0.59689 0.59061,-0.59689 0.59061,-0.59689c3.6137,0.02108 9.17262,1.60905 12.76595,2.50379c3.37635,0.25146 6.51271,-1.31686 9.6366,-2.46786l0.03531,-0.04422c0,0 0.49141,-0.33108 0.81905,0.16555z" fill-opacity="0.45098" fill="#78b1d6" stroke="none" stroke-width="0.5"/><path d="M322.62962,217.43134c0.24129,0.54861 -0.3217,0.78377 -0.3217,0.78377l-0.46278,0.18807c-2.50515,0.69519 -4.9345,2.15466 -7.5559,2.35192c-5.27826,0.84603 -9.77682,-3.24504 -15.01669,-2.92687c0,0 -0.61146,0.03505 -0.64741,-0.56082c-0.03596,-0.59586 0.5755,-0.63091 0.5755,-0.63091c5.19556,-0.28233 9.78353,3.78291 14.94079,2.93353c2.53772,-0.18948 4.93806,-1.63594 7.36717,-2.3147l0.31678,-0.1375c0,0 0.56299,-0.23513 0.80428,0.31351z" fill-opacity="0.45098" fill="#81b6d6" stroke="none" stroke-width="0.5"/><path d="M321.64449,216.52982c0.08249,-0.07275 0.45046,-0.35594 0.81846,0.01583c0.4178,0.42205 0,0.84415 0,0.84415l-0.20726,0.16606c-2.70029,1.36399 -6.34099,2.90213 -9.36425,2.6672c-4.69541,-0.00437 -8.9075,-2.37527 -13.4706,-2.87914c0,0 -0.58722,-0.06592 -0.52197,-0.65916c0.06525,-0.59324 0.65247,-0.52732 0.65247,-0.52732c4.53568,0.51672 8.72414,2.87723 13.38541,2.87272c2.80443,0.21794 6.18659,-1.23227 8.70769,-2.50033z" fill-opacity="0.4" fill="#7ab2d6" stroke="none" stroke-width="0.5"/><path d="M322.10114,215.40948c0.07509,0.59228 -0.52572,0.66632 -0.52572,0.66632l-0.32397,0.02822c-2.13377,0.68788 -3.85353,1.48487 -6.15359,1.76589c-5.27661,0.00704 -10.28532,-2.40702 -15.33972,-2.38642c0,0 -0.60549,0 -0.60549,-0.59689c0,-0.59689 0.60549,-0.59689 0.60549,-0.59689c5.06622,0.01807 9.99908,2.381 15.26449,2.38871c2.19868,-0.27352 3.80876,-1.02677 5.84591,-1.70692l0.55671,-0.08029c0,0 0.60081,-0.07404 0.67592,0.51824z" fill-opacity="0.37647" fill="#75add1" stroke="none" stroke-width="0.5"/><path d="M323.04222,219.29434c0,0.59689 -0.5956,0.59689 -0.5956,0.59689l0.00119,-0.02297c-3.42909,0.9737 -6.1577,3.38829 -9.76715,3.38695c-4.75684,-0.31657 -9.3111,-3.59013 -14.00376,-3.52677c0,0 -0.5956,0 -0.5956,-0.59689c0,-0.59689 0.5956,-0.59689 0.5956,-0.59689c4.77191,0.04756 9.23644,3.20488 14.0434,3.52741c3.40042,-0.00131 6.14139,-2.40158 9.40025,-3.34166l0.32605,-0.02297c0,0 0.5956,0 0.5956,0.59689z" fill-opacity="0.37647" fill="#5d99ba" stroke="none" stroke-width="0.5"/><path d="M322.55477,221.24782c0,0.59689 -0.5956,0.59689 -0.5956,0.59689l0.06685,-0.02638c-3.64956,1.12516 -6.01547,3.04388 -9.99053,2.73546c-4.23893,-0.66885 -8.92639,-3.05974 -13.16601,-2.44377c0,0 -0.58961,0.08442 -0.67384,-0.50647c-0.08423,-0.5909 0.50538,-0.6753 0.50538,-0.6753c0.1753,-0.02478 0.35109,-0.04479 0.52729,-0.06036c-0.19781,-0.0218 -0.39679,-0.04052 -0.59701,-0.05592c0,0 -0.59384,-0.04577 -0.54816,-0.64092c0.04567,-0.59515 0.63951,-0.54935 0.63951,-0.54935c4.77728,0.36943 8.82967,2.61923 13.52993,3.25533c3.69772,0.00105 6.42957,-2.3183 9.887,-3.18499l0.1986,-0.01781c0,0 0.5956,0 0.5956,0.59689c0,0.44972 -0.33808,0.5606 -0.5048,0.58794c0.07354,0.08758 0.12578,0.21199 0.12578,0.38879z" fill-opacity="0.54118" fill="#6598ba" stroke="none" stroke-width="0.5"/><path d="M298.67573,220.33496c0.58214,-0.10677 0.688,0.4805 0.688,0.4805l0.07237,0.41006c3.77777,-0.22075 8.26988,1.55569 12.1225,2.63556c3.26464,-0.26469 6.69562,-1.77556 9.2341,-1.85017c0.22032,-0.0982 0.43879,-0.19442 0.65522,-0.28737l0.35692,-0.49509c0.1072,-0.15245 0.28357,-0.25196 0.48296,-0.25196c0.32679,0 0.59169,0.26724 0.59169,0.59689c0,0.04054 -0.00401,0.0801 -0.01163,0.11838l-0.10551,0.58531l-0.22102,-0.04054l-0.1891,0.2623c-0.7771,1.66053 -3.56347,2.4139 -6.50707,2.6688c-1.00493,0.2246 -2.01403,0.3302 -3.00628,0.2516c-0.21925,-0.05095 -0.44194,-0.10603 -0.66775,-0.16462c-1.53365,-0.0521 -2.87241,-0.20586 -3.69373,-0.39008c-2.1007,-0.62449 -9.96121,-1.23681 -10.17755,-3.29178l-0.10042,-0.54372c0,0 -0.10584,-0.58727 0.4763,-0.69404z" fill-opacity="0.45098" fill="#5696c4" stroke="none" stroke-width="0.5"/><path d="M319.29818,210.99559c0,0.59689 -0.59689,0.59689 -0.59689,0.59689h-0.48835c-0.63275,-0.00181 -1.16317,0.07652 -1.77279,0.24332c-3.98014,1.43629 -9.61687,0.25556 -13.6361,-0.46999c0,0 -0.58727,-0.10677 -0.4805,-0.69404c0.10677,-0.58727 0.69404,-0.4805 0.69404,-0.4805c3.8155,0.69822 9.29092,1.88911 13.06122,0.50674c0.72849,-0.19817 1.37865,-0.29744 2.13413,-0.29933h0.48835c0,0 0.59689,0 0.59689,0.59689z" fill-opacity="0.33725" fill="#5f84b0" stroke="none" stroke-width="0.5"/><path d="M318.17092,210.01077c0.21851,0.5542 -0.32779,0.77586 -0.32779,0.77586l-0.33116,0.13019c-4.72131,1.26742 -8.98319,-0.01695 -13.72924,-0.36031c0,0 -0.58686,-0.04252 -0.54494,-0.63791c0.04193,-0.59539 0.62879,-0.55286 0.62879,-0.55286c4.57309,0.33187 8.79925,1.70305 13.33579,0.39937l0.20373,-0.08686c0,0 0.5463,-0.22169 0.76481,0.33252z" fill-opacity="0.45098" fill="#4979ad" stroke="none" stroke-width="0.5"/><path d="M317.50751,209.4462c0.49707,0.33044 -0.59689,0.59689 -0.59689,0.59689l-0.11028,-0.00965c-4.10575,0.74184 -7.92772,-0.319 -11.93608,-0.31595c0,0 -0.99072,-0.14836 -0.59689,-0.59689c0.43852,-0.49943 0.93798,-0.40199 0.93798,-0.40199c3.93724,0.00279 10.15823,-0.69765 12.30217,0.72759z" fill-opacity="0.29804" fill="#305273" stroke="none" stroke-width="0.5"/><path d="M316.47357,208.84912c0.18874,0.42269 -0.13389,0.51488 -0.13389,0.51488l-0.29749,0.06153c-3.20576,0.21748 -7.43139,0.35231 -10.50875,-0.214c0,0 -0.57906,-0.10806 -0.4343,-0.54033c0.14476,-0.43227 0.72384,-0.32418 0.72384,-0.32418c2.94965,0.55945 9.38986,-0.16422 10.65059,0.5021z" fill-opacity="0.29804" fill="#5e7691" stroke="none" stroke-width="0.5"/><path d="M322.49704,222.85434c0.34694,0.48573 -0.13879,0.83264 -0.13879,0.83264l-0.36031,0.25676c-2.77079,2.15452 -6.10357,2.35051 -9.4826,2.35051c-4.58171,-0.00227 -8.86121,-2.2126 -13.39446,-2.55212c0,0 -0.59515,-0.04577 -0.54935,-0.64089c0.04579,-0.59515 0.64092,-0.54935 0.64092,-0.54935c4.50522,0.3547 8.75649,2.55097 13.30289,2.54861c3.10491,0 6.1986,-0.11432 8.74969,-2.09903l0.39937,-0.28589c0,0 0.4857,-0.34694 0.83264,0.13879z" fill-opacity="0.45098" fill="#6b9ed6" stroke="none" stroke-width="0.5"/><path d="M321.66481,224.40201c0.3694,0.46608 -0.09235,0.83897 -0.09235,0.83897l-0.27514,0.22212c-1.88398,1.47406 -4.70656,1.80087 -7.0337,1.91638c-5.11939,-0.33863 -9.82018,-2.48462 -14.9183,-2.76831c0,0 -0.59042,-0.03312 -0.55762,-0.62908c0.03281,-0.59598 0.6232,-0.56287 0.6232,-0.56287c5.08695,0.28739 9.7639,2.41691 14.86252,2.76652c2.05089,-0.10536 4.64033,-0.35866 6.2978,-1.66497l0.26242,-0.21199c0,0 0.46176,-0.37287 0.83114,0.09321z" fill-opacity="0.45098" fill="#578bba" stroke="none" stroke-width="0.5"/><path d="M321.16258,225.74611c0.32882,0.49664 -0.16438,0.82775 -0.16438,0.82775l-0.2421,0.15383c-2.42297,1.12602 -4.51703,1.54657 -7.19027,1.35561c-4.61586,-0.3605 -9.26707,-1.77666 -13.85817,-2.61262c0,0 -0.58323,-0.10677 -0.47718,-0.69404c0.10606,-0.58727 0.68927,-0.4805 0.68927,-0.4805c4.5464,0.83648 9.16288,2.24536 13.73378,2.59662c2.48094,0.17971 4.35948,-0.20509 6.60572,-1.24901l0.08127,-0.06322c0,0 0.49322,-0.33111 0.82204,0.16553z" fill-opacity="0.45098" fill="#7a9fc2" stroke="none" stroke-width="0.5"/><path d="M320.71575,226.71028c0.23212,0.54864 -0.3095,0.78377 -0.3095,0.78377l-0.42078,0.18043c-3.55055,1.18724 -6.71166,0.88264 -10.28016,0.33827c-0.17838,0.09211 -0.37208,0.06759 -0.37208,0.06759l-0.53293,-0.07736c-2.58062,-0.82622 -5.71519,-1.79765 -8.39415,-1.54836c0,0 -0.58686,0.05403 -0.6402,-0.5404c-0.05336,-0.59443 0.5335,-0.64849 0.5335,-0.64849c2.83406,-0.25798 6.12494,0.72615 8.85574,1.59888l0.034,0.00327c0.19117,-0.113 0.41388,-0.07829 0.41388,-0.07829c3.49036,0.54702 6.5543,0.93211 10.0097,-0.24761l0.32922,-0.14516c0,0 0.54164,-0.23513 0.77376,0.31351z" fill-opacity="0.45098" fill="#72a5d6" stroke="none" stroke-width="0.5"/><path d="M322.51698,222.57669c0.27839,0.53388 -0.27839,0.80081 -0.27839,0.80081l-0.11589,0.04073c-3.26705,2.4554 -4.97401,2.98969 -9.24465,2.24159c-4.22317,-0.3669 -9.04529,-2.55028 -13.27369,-1.79485c0,0 -0.61248,0.10677 -0.72384,-0.4805c-0.11136,-0.58727 0.50113,-0.69404 0.50113,-0.69404c4.41277,-0.75335 9.2717,1.40234 13.6643,1.7865c3.92857,0.68198 5.34129,0.31425 8.29899,-1.9909l0.33686,-0.1763c0,0 0.5568,-0.26693 0.83519,0.26693z" fill-opacity="0.45098" fill="#6595b8" stroke="none" stroke-width="0.5"/><path d="M318.07916,229.33319c0.05315,0.59443 -0.5315,0.64849 -0.5315,0.64849l-0.57483,0.053c-0.28264,0.03732 -0.5653,0.07464 -0.84794,0.11195c-4.62276,-0.31821 -9.58806,-0.63149 -14.09716,-1.36442c0,0 -0.57908,-0.09813 -0.48255,-0.6869c0.09651,-0.58877 0.67559,-0.49064 0.67559,-0.49064c1.89585,0.33782 3.89639,0.57032 5.92173,0.75352c-2.30558,-0.53658 -4.58403,-1.14147 -7.03704,-1.14147c0,0 -0.58226,0 -0.58226,-0.59689c0,-0.59689 0.58226,-0.59689 0.58226,-0.59689c4.41506,0 8.26439,1.95346 12.70392,1.95346c1.77248,0 3.5531,-0.20578 5.29502,-0.533l-0.06002,-0.01791c0,0 0.48446,-0.33111 0.80745,0.16555c0.32299,0.49664 -0.16149,0.82775 -0.16149,0.82775l-0.37762,0.19915c-0.50199,0.0929 -1.00684,0.17673 -1.5136,0.24936c0.13272,0.07086 0.2569,0.20676 0.28009,0.46591z" fill-opacity="0.37647" fill="#6397c9" stroke="none" stroke-width="0.5"/><path d="M319.10933,228.49305c0.18329,0.56626 -0.36661,0.75502 -0.36661,0.75502l-0.21104,0.0696c-0.96274,0.22868 -1.81839,0.34099 -2.80257,0.34066c-4.67397,0.25332 -9.67945,-2.31293 -14.13933,-1.47451c0,0 -0.57029,0.10677 -0.67399,-0.4805c-0.10369,-0.58727 0.4666,-0.69404 0.4666,-0.69404c4.57152,-0.85267 9.55633,1.71365 14.31625,1.45567c0.91198,-0.00029 1.67953,-0.09825 2.57236,-0.3105l0.10512,-0.03892c0,0 0.5499,-0.18876 0.7332,0.3775z" fill-opacity="0.67451" fill="#669ac4" stroke="none" stroke-width="0.5"/><path d="M316.9594,229.82572c0.25492,0.53388 -0.25492,0.80081 -0.25492,0.80081l-0.46216,0.17155c-0.39626,-0.00301 -0.79298,0.06563 -1.17912,0.15896c-4.20269,0.01127 -8.18391,-1.22902 -12.33137,-1.51684c0,0 -0.56874,-0.03971 -0.53083,-0.63528c0.03791,-0.59558 0.60666,-0.55587 0.60666,-0.55587c4.08288,0.28682 7.99316,1.50655 12.12654,1.52188c0.42799,-0.10343 0.86886,-0.16398 1.30812,-0.16663l-0.04763,-0.04551c0,0 0.50982,-0.26693 0.76474,0.26693z" fill-opacity="0.74902" fill="#5a9fcc" stroke="none" stroke-width="0.5"/><path d="M318.26601,228.78517c0.37279,0.45318 -0.06212,0.84164 -0.06212,0.84164l-0.5866,0.44824c-1.00574,0.28462 -1.9431,0.64753 -2.9793,0.82796c-4.49903,0.66116 -9.41782,-0.78486 -13.31027,-2.76915c0,0 -0.51235,-0.26693 -0.25616,-0.80081c0.25616,-0.53388 0.76851,-0.26693 0.76851,-0.26693c3.62196,1.91984 8.40893,3.29353 12.62275,2.65715c0.99294,-0.17198 1.88895,-0.52488 2.85302,-0.79993l0.14247,-0.20292c0,0 0.43492,-0.38846 0.80771,0.06475z" fill-opacity="0.30196" fill="#629cd1" stroke="none" stroke-width="0.5"/><path d="M317.99579,229.38722c0,0.59689 -0.59689,0.59689 -0.59689,0.59689l-0.3976,-0.00695c-4.59062,0.70311 -9.52567,-0.24155 -13.93343,-1.53668c0,0 -0.57263,-0.16842 -0.40421,-0.74105c0.16842,-0.57263 0.74105,-0.40421 0.74105,-0.40421c4.23678,1.24738 8.99914,2.18465 13.41506,1.50204l0.57913,-0.00695c0,0 0.59689,0 0.59689,0.59689z" fill-opacity="0.30196" fill="#65a4e0" stroke="none" stroke-width="0.5"/><path d="M315.36004,230.69391c0.25194,0.53388 -0.25194,0.80081 -0.25194,0.80081l-0.2092,0.09713c-3.45426,0.97296 -7.61786,-0.76629 -11.08165,-1.28816c0,0 -0.55766,-0.08442 -0.47801,-0.6753c0.07967,-0.5909 0.63731,-0.50647 0.63731,-0.50647c3.2728,0.49786 7.37545,2.2397 10.632,1.31646l-0.00437,-0.01141c0,0 0.50385,-0.26693 0.75578,0.26693z" fill-opacity="0.39216" fill="#5592c2" stroke="none" stroke-width="0.5"/><path d="M314.09444,231.19148c0.24835,0.41021 -0.29377,0.57094 -0.29377,0.57094c-0.17604,0.05219 -0.63321,0.18771 -0.92246,0.27347c-0.10412,0.08989 -0.23747,0.12941 -0.23747,0.12941l-0.2687,0.06105c-2.53836,0.17494 -4.9748,-0.28283 -7.29516,-1.15179c0,0 -0.54334,-0.20378 -0.29766,-0.59441c0.2457,-0.39063 0.78904,-0.18685 0.78904,-0.18685c2.04648,0.7687 4.20625,1.20171 6.44428,1.06781c0.0929,-0.06384 0.18933,-0.09245 0.18933,-0.09245c0.22042,-0.06535 0.44082,-0.13067 0.66124,-0.19602l0.44082,-0.13067c0,0 0.54214,-0.16073 0.7905,0.2495z" fill-opacity="0.50588" fill="#5897bf" stroke="none" stroke-width="0.5"/><path d="M310.54761,232.3048c-6.88739,0 -12.47071,-5.58335 -12.47071,-12.47071c0,-6.88739 5.58335,-12.47071 12.47071,-12.47071c6.88739,0 12.47071,5.58335 12.47071,12.47071c0,6.88739 -5.58335,12.47071 -12.47071,12.47071z" data-paper-data="{&quot;index&quot;:null}" fill-opacity="0.2" fill="#bee7ff" stroke="none" stroke-width="0"/><path d="M310.54754,232.35406c-6.93621,0 -12.55907,-5.60538 -12.55907,-12.51996c0,-6.91456 5.62293,-12.51996 12.55909,-12.51996c2.45628,0 4.74784,0.70295 6.68332,1.918c3.53013,2.21614 5.87577,6.136 5.87577,10.60196c0,6.91456 -5.62296,12.51996 -12.55909,12.51996z" data-paper-data="{&quot;index&quot;:null}" fill="url(#color-16)" stroke="none" stroke-width="0.5"/></g></g></g></svg>