<svg version="1.1" xmlns="http://www.w3.org/2000/svg" xmlns:xlink="http://www.w3.org/1999/xlink" width="22.21501" height="26.36033" viewBox="0,0,22.21501,26.36033"><defs><radialGradient cx="241.69041" cy="176.23692" r="9.41454" gradientUnits="userSpaceOnUse" id="color-1"><stop offset="0" stop-color="#736445" stop-opacity="0.31804"/><stop offset="1" stop-color="#736445" stop-opacity="0"/></radialGradient><radialGradient cx="241.69041" cy="176.23691" r="7.64324" gradientUnits="userSpaceOnUse" id="color-2"><stop offset="0" stop-color="#ebcb73" stop-opacity="0.62189"/><stop offset="1" stop-color="#ebcb73" stop-opacity="0"/></radialGradient><radialGradient cx="241.69041" cy="176.23692" r="6.47063" gradientUnits="userSpaceOnUse" id="color-3"><stop offset="0" stop-color="#ffb74f"/><stop offset="1" stop-color="#ffb74f" stop-opacity="0"/></radialGradient><radialGradient cx="246.50472" cy="185.57203" r="3.06931" gradientUnits="userSpaceOnUse" id="color-4"><stop offset="0" stop-color="#734545" stop-opacity="0.30998"/><stop offset="1" stop-color="#734545" stop-opacity="0"/></radialGradient><radialGradient cx="246.50472" cy="185.57203" r="2.49184" gradientUnits="userSpaceOnUse" id="color-5"><stop offset="0" stop-color="#eb7373" stop-opacity="0.62996"/><stop offset="1" stop-color="#eb7373" stop-opacity="0"/></radialGradient><radialGradient cx="246.50472" cy="185.57203" r="2.10954" gradientUnits="userSpaceOnUse" id="color-6"><stop offset="0" stop-color="#ff4f4f"/><stop offset="1" stop-color="#ff4f4f" stop-opacity="0"/></radialGradient><radialGradient cx="235.2301" cy="186.84255" r="6.33762" gradientUnits="userSpaceOnUse" id="color-7"><stop offset="0" stop-color="#735545" stop-opacity="0.30645"/><stop offset="1" stop-color="#735545" stop-opacity="0"/></radialGradient><radialGradient cx="235.2301" cy="186.84255" r="5.14523" gradientUnits="userSpaceOnUse" id="color-8"><stop offset="0" stop-color="#ea9d73" stop-opacity="0.62903"/><stop offset="1" stop-color="#ea9d73" stop-opacity="0"/></radialGradient><radialGradient cx="235.2301" cy="186.84255" r="4.35586" gradientUnits="userSpaceOnUse" id="color-9"><stop offset="0" stop-color="#ff8c4e"/><stop offset="1" stop-color="#ff8c4e" stop-opacity="0"/></radialGradient><radialGradient cx="241.69041" cy="176.23692" r="5.32083" gradientUnits="userSpaceOnUse" id="color-10"><stop offset="0" stop-color="#ffa21f"/><stop offset="1" stop-color="#ffb140"/></radialGradient><radialGradient cx="246.50472" cy="185.57203" r="1.73469" gradientUnits="userSpaceOnUse" id="color-11"><stop offset="0" stop-color="#ea3939"/><stop offset="1" stop-color="#bd4b4b"/></radialGradient><radialGradient cx="235.2301" cy="186.84255" r="3.58184" gradientUnits="userSpaceOnUse" id="color-12"><stop offset="0" stop-color="#ff631f"/><stop offset="1" stop-color="#ff8340"/></radialGradient><linearGradient x1="232.53239" y1="179.32375" x2="232.32256" y2="178.56461" gradientUnits="userSpaceOnUse" id="color-13"><stop offset="0" stop-color="#7b6f80"/><stop offset="1" stop-color="#382c3f"/></linearGradient><linearGradient x1="233.11567" y1="179.3267" x2="232.81966" y2="178.25577" gradientUnits="userSpaceOnUse" id="color-14"><stop offset="0" stop-color="#ababab"/><stop offset="1" stop-color="#7e7e7e"/></linearGradient><linearGradient x1="232.99268" y1="178.88176" x2="232.94153" y2="178.69668" gradientUnits="userSpaceOnUse" id="color-15"><stop offset="0" stop-color="#323232"/><stop offset="1" stop-color="#232323"/></linearGradient><linearGradient x1="232.91448" y1="178.59888" x2="232.87445" y2="178.45402" gradientUnits="userSpaceOnUse" id="color-16"><stop offset="0" stop-color="#272727"/><stop offset="1" stop-color="#191919"/></linearGradient><linearGradient x1="233.06087" y1="179.12845" x2="233.02084" y2="178.98363" gradientUnits="userSpaceOnUse" id="color-17"><stop offset="0" stop-color="#393939"/><stop offset="1" stop-color="#323232"/></linearGradient><linearGradient x1="232.85372" y1="178.37899" x2="232.83056" y2="178.29518" gradientUnits="userSpaceOnUse" id="color-18"><stop offset="0" stop-color="#1f1f1f"/><stop offset="1" stop-color="#191919"/></linearGradient><linearGradient x1="233.10477" y1="179.28729" x2="233.0816" y2="179.20347" gradientUnits="userSpaceOnUse" id="color-19"><stop offset="0" stop-color="#515151"/><stop offset="1" stop-color="#3d3d3d"/></linearGradient><linearGradient x1="232.90853" y1="179.26357" x2="232.67433" y2="178.41632" gradientUnits="userSpaceOnUse" id="color-20"><stop offset="0" stop-color="#4b00bb"/><stop offset="1" stop-color="#30004f"/></linearGradient><linearGradient x1="232.06241" y1="179.47558" x2="231.83946" y2="178.66898" gradientUnits="userSpaceOnUse" id="color-21"><stop offset="0" stop-color="#4b00ba"/><stop offset="1" stop-color="#300050"/></linearGradient><linearGradient x1="232.66528" y1="178.94095" x2="232.63056" y2="178.81532" gradientUnits="userSpaceOnUse" id="color-22"><stop offset="0" stop-color="#806f89"/><stop offset="1" stop-color="#685473"/></linearGradient><linearGradient x1="232.6122" y1="178.74889" x2="232.58502" y2="178.65057" gradientUnits="userSpaceOnUse" id="color-23"><stop offset="0" stop-color="#6a5675"/><stop offset="1" stop-color="#5c4768"/></linearGradient><linearGradient x1="232.71157" y1="179.10847" x2="232.68439" y2="179.01009" gradientUnits="userSpaceOnUse" id="color-24"><stop offset="0" stop-color="#97899e"/><stop offset="1" stop-color="#7f6e88"/></linearGradient><linearGradient x1="232.57094" y1="178.59963" x2="232.55522" y2="178.54275" gradientUnits="userSpaceOnUse" id="color-25"><stop offset="0" stop-color="#544c58"/><stop offset="1" stop-color="#4d3b58"/></linearGradient><linearGradient x1="232.74137" y1="179.21629" x2="232.72565" y2="179.15934" gradientUnits="userSpaceOnUse" id="color-26"><stop offset="0" stop-color="#a594ac"/><stop offset="1" stop-color="#96889d"/></linearGradient><linearGradient x1="232.47828" y1="178.99263" x2="232.44356" y2="178.86699" gradientUnits="userSpaceOnUse" id="color-27"><stop offset="0" stop-color="#806f89"/><stop offset="1" stop-color="#685473"/></linearGradient><linearGradient x1="232.4252" y1="178.80058" x2="232.39802" y2="178.70226" gradientUnits="userSpaceOnUse" id="color-28"><stop offset="0" stop-color="#6a5675"/><stop offset="1" stop-color="#5c4768"/></linearGradient><linearGradient x1="232.52458" y1="179.16014" x2="232.49739" y2="179.06181" gradientUnits="userSpaceOnUse" id="color-29"><stop offset="0" stop-color="#97899e"/><stop offset="1" stop-color="#7f6e88"/></linearGradient><linearGradient x1="232.38395" y1="178.65135" x2="232.36821" y2="178.59442" gradientUnits="userSpaceOnUse" id="color-30"><stop offset="0" stop-color="#544c58"/><stop offset="1" stop-color="#4d3b58"/></linearGradient><linearGradient x1="232.55438" y1="179.26796" x2="232.53865" y2="179.21107" gradientUnits="userSpaceOnUse" id="color-31"><stop offset="0" stop-color="#a594ac"/><stop offset="1" stop-color="#96889d"/></linearGradient><linearGradient x1="232.29127" y1="179.04435" x2="232.25655" y2="178.91871" gradientUnits="userSpaceOnUse" id="color-32"><stop offset="0" stop-color="#806f89"/><stop offset="1" stop-color="#685473"/></linearGradient><linearGradient x1="232.23819" y1="178.85229" x2="232.21101" y2="178.75396" gradientUnits="userSpaceOnUse" id="color-33"><stop offset="0" stop-color="#6a5675"/><stop offset="1" stop-color="#5c4768"/></linearGradient><linearGradient x1="232.33757" y1="179.21181" x2="232.3104" y2="179.11349" gradientUnits="userSpaceOnUse" id="color-34"><stop offset="0" stop-color="#97899e"/><stop offset="1" stop-color="#7f6e88"/></linearGradient><linearGradient x1="232.19694" y1="178.70303" x2="232.18121" y2="178.6461" gradientUnits="userSpaceOnUse" id="color-35"><stop offset="0" stop-color="#544c58"/><stop offset="1" stop-color="#4d3b58"/></linearGradient><linearGradient x1="232.36737" y1="179.31965" x2="232.35164" y2="179.26275" gradientUnits="userSpaceOnUse" id="color-36"><stop offset="0" stop-color="#a594ac"/><stop offset="1" stop-color="#96889d"/></linearGradient><linearGradient x1="232.10426" y1="179.09603" x2="232.06954" y2="178.97039" gradientUnits="userSpaceOnUse" id="color-37"><stop offset="0" stop-color="#806f89"/><stop offset="1" stop-color="#685473"/></linearGradient><linearGradient x1="232.05118" y1="178.90397" x2="232.024" y2="178.80565" gradientUnits="userSpaceOnUse" id="color-38"><stop offset="0" stop-color="#6a5675"/><stop offset="1" stop-color="#5c4768"/></linearGradient><linearGradient x1="232.15056" y1="179.26349" x2="232.12338" y2="179.16516" gradientUnits="userSpaceOnUse" id="color-39"><stop offset="0" stop-color="#97899e"/><stop offset="1" stop-color="#7f6e88"/></linearGradient><linearGradient x1="232.00993" y1="178.7547" x2="231.9942" y2="178.69781" gradientUnits="userSpaceOnUse" id="color-40"><stop offset="0" stop-color="#544c58"/><stop offset="1" stop-color="#4d3b58"/></linearGradient><linearGradient x1="232.18037" y1="179.37135" x2="232.16464" y2="179.31443" gradientUnits="userSpaceOnUse" id="color-41"><stop offset="0" stop-color="#a594ac"/><stop offset="1" stop-color="#96889d"/></linearGradient><linearGradient x1="234.83578" y1="182.90859" x2="234.27157" y2="182.35901" gradientUnits="userSpaceOnUse" id="color-42"><stop offset="0" stop-color="#7b6f80"/><stop offset="1" stop-color="#382c3f"/></linearGradient><linearGradient x1="235.34085" y1="182.61681" x2="234.54493" y2="181.84155" gradientUnits="userSpaceOnUse" id="color-43"><stop offset="0" stop-color="#ababab"/><stop offset="1" stop-color="#7e7e7e"/></linearGradient><linearGradient x1="235.01017" y1="182.29472" x2="234.87263" y2="182.16075" gradientUnits="userSpaceOnUse" id="color-44"><stop offset="0" stop-color="#323232"/><stop offset="1" stop-color="#232323"/></linearGradient><linearGradient x1="234.79992" y1="182.08994" x2="234.69227" y2="181.98507" gradientUnits="userSpaceOnUse" id="color-45"><stop offset="0" stop-color="#272727"/><stop offset="1" stop-color="#191919"/></linearGradient><linearGradient x1="235.19351" y1="182.47329" x2="235.08587" y2="182.36843" gradientUnits="userSpaceOnUse" id="color-46"><stop offset="0" stop-color="#393939"/><stop offset="1" stop-color="#323232"/></linearGradient><linearGradient x1="234.63653" y1="181.93075" x2="234.57423" y2="181.87006" gradientUnits="userSpaceOnUse" id="color-47"><stop offset="0" stop-color="#1f1f1f"/><stop offset="1" stop-color="#191919"/></linearGradient><linearGradient x1="235.31156" y1="182.5883" x2="235.24926" y2="182.52761" gradientUnits="userSpaceOnUse" id="color-48"><stop offset="0" stop-color="#515151"/><stop offset="1" stop-color="#3d3d3d"/></linearGradient><linearGradient x1="235.13016" y1="182.66685" x2="234.50047" y2="182.05349" gradientUnits="userSpaceOnUse" id="color-49"><stop offset="0" stop-color="#4b00bb"/><stop offset="1" stop-color="#30004f"/></linearGradient><linearGradient x1="234.5066" y1="183.27679" x2="233.90713" y2="182.69284" gradientUnits="userSpaceOnUse" id="color-50"><stop offset="0" stop-color="#4b00ba"/><stop offset="1" stop-color="#300050"/></linearGradient><linearGradient x1="234.75737" y1="182.51103" x2="234.66399" y2="182.42008" gradientUnits="userSpaceOnUse" id="color-51"><stop offset="0" stop-color="#806f89"/><stop offset="1" stop-color="#685473"/></linearGradient><linearGradient x1="234.61463" y1="182.372" x2="234.54156" y2="182.30081" gradientUnits="userSpaceOnUse" id="color-52"><stop offset="0" stop-color="#6a5675"/><stop offset="1" stop-color="#5c4768"/></linearGradient><linearGradient x1="234.88184" y1="182.63229" x2="234.80876" y2="182.56109" gradientUnits="userSpaceOnUse" id="color-53"><stop offset="0" stop-color="#97899e"/><stop offset="1" stop-color="#7f6e88"/></linearGradient><linearGradient x1="234.50371" y1="182.26393" x2="234.46141" y2="182.22273" gradientUnits="userSpaceOnUse" id="color-54"><stop offset="0" stop-color="#544c58"/><stop offset="1" stop-color="#4d3b58"/></linearGradient><linearGradient x1="234.96198" y1="182.71036" x2="234.91968" y2="182.66911" gradientUnits="userSpaceOnUse" id="color-55"><stop offset="0" stop-color="#a594ac"/><stop offset="1" stop-color="#96889d"/></linearGradient><linearGradient x1="234.622" y1="182.65001" x2="234.52862" y2="182.55905" gradientUnits="userSpaceOnUse" id="color-56"><stop offset="0" stop-color="#806f89"/><stop offset="1" stop-color="#685473"/></linearGradient><linearGradient x1="234.47926" y1="182.51097" x2="234.40619" y2="182.43978" gradientUnits="userSpaceOnUse" id="color-57"><stop offset="0" stop-color="#6a5675"/><stop offset="1" stop-color="#5c4768"/></linearGradient><linearGradient x1="234.74647" y1="182.77125" x2="234.67338" y2="182.70007" gradientUnits="userSpaceOnUse" id="color-58"><stop offset="0" stop-color="#97899e"/><stop offset="1" stop-color="#7f6e88"/></linearGradient><linearGradient x1="234.36834" y1="182.4029" x2="234.32603" y2="182.36171" gradientUnits="userSpaceOnUse" id="color-59"><stop offset="0" stop-color="#544c58"/><stop offset="1" stop-color="#4d3b58"/></linearGradient><linearGradient x1="234.82661" y1="182.84932" x2="234.78431" y2="182.8081" gradientUnits="userSpaceOnUse" id="color-60"><stop offset="0" stop-color="#a594ac"/><stop offset="1" stop-color="#96889d"/></linearGradient><linearGradient x1="234.48662" y1="182.78899" x2="234.39324" y2="182.69802" gradientUnits="userSpaceOnUse" id="color-61"><stop offset="0" stop-color="#806f89"/><stop offset="1" stop-color="#685473"/></linearGradient><linearGradient x1="234.34388" y1="182.64994" x2="234.27081" y2="182.57876" gradientUnits="userSpaceOnUse" id="color-62"><stop offset="0" stop-color="#6a5675"/><stop offset="1" stop-color="#5c4768"/></linearGradient><linearGradient x1="234.61109" y1="182.91023" x2="234.53801" y2="182.83904" gradientUnits="userSpaceOnUse" id="color-63"><stop offset="0" stop-color="#97899e"/><stop offset="1" stop-color="#7f6e88"/></linearGradient><linearGradient x1="234.23296" y1="182.54189" x2="234.19066" y2="182.50068" gradientUnits="userSpaceOnUse" id="color-64"><stop offset="0" stop-color="#544c58"/><stop offset="1" stop-color="#4d3b58"/></linearGradient><linearGradient x1="234.69123" y1="182.9883" x2="234.64893" y2="182.9471" gradientUnits="userSpaceOnUse" id="color-65"><stop offset="0" stop-color="#a594ac"/><stop offset="1" stop-color="#96889d"/></linearGradient><linearGradient x1="234.35124" y1="182.92797" x2="234.25786" y2="182.83699" gradientUnits="userSpaceOnUse" id="color-66"><stop offset="0" stop-color="#806f89"/><stop offset="1" stop-color="#685473"/></linearGradient><linearGradient x1="234.2085" y1="182.78891" x2="234.13542" y2="182.71775" gradientUnits="userSpaceOnUse" id="color-67"><stop offset="0" stop-color="#6a5675"/><stop offset="1" stop-color="#5c4768"/></linearGradient><linearGradient x1="234.47571" y1="183.0492" x2="234.40263" y2="182.97802" gradientUnits="userSpaceOnUse" id="color-68"><stop offset="0" stop-color="#97899e"/><stop offset="1" stop-color="#7f6e88"/></linearGradient><linearGradient x1="234.09757" y1="182.68089" x2="234.05528" y2="182.63967" gradientUnits="userSpaceOnUse" id="color-69"><stop offset="0" stop-color="#544c58"/><stop offset="1" stop-color="#4d3b58"/></linearGradient><linearGradient x1="234.55585" y1="183.12728" x2="234.51356" y2="183.08608" gradientUnits="userSpaceOnUse" id="color-70"><stop offset="0" stop-color="#a594ac"/><stop offset="1" stop-color="#96889d"/></linearGradient><linearGradient x1="238.26066" y1="185.19309" x2="237.54774" y2="184.85827" gradientUnits="userSpaceOnUse" id="color-71"><stop offset="0" stop-color="#7b6f80"/><stop offset="1" stop-color="#382c3f"/></linearGradient><linearGradient x1="238.64254" y1="184.75219" x2="237.63682" y2="184.27985" gradientUnits="userSpaceOnUse" id="color-72"><stop offset="0" stop-color="#ababab"/><stop offset="1" stop-color="#7e7e7e"/></linearGradient><linearGradient x1="238.22468" y1="184.55592" x2="238.05089" y2="184.47433" gradientUnits="userSpaceOnUse" id="color-73"><stop offset="0" stop-color="#323232"/><stop offset="1" stop-color="#232323"/></linearGradient><linearGradient x1="237.95902" y1="184.43119" x2="237.823" y2="184.36727" gradientUnits="userSpaceOnUse" id="color-74"><stop offset="0" stop-color="#272727"/><stop offset="1" stop-color="#191919"/></linearGradient><linearGradient x1="238.45635" y1="184.66472" x2="238.32034" y2="184.60087" gradientUnits="userSpaceOnUse" id="color-75"><stop offset="0" stop-color="#393939"/><stop offset="1" stop-color="#323232"/></linearGradient><linearGradient x1="237.75256" y1="184.33421" x2="237.67384" y2="184.29723" gradientUnits="userSpaceOnUse" id="color-76"><stop offset="0" stop-color="#1f1f1f"/><stop offset="1" stop-color="#191919"/></linearGradient><linearGradient x1="238.60551" y1="184.7348" x2="238.52679" y2="184.69783" gradientUnits="userSpaceOnUse" id="color-77"><stop offset="0" stop-color="#515151"/><stop offset="1" stop-color="#3d3d3d"/></linearGradient><linearGradient x1="238.45979" y1="184.86833" x2="237.66412" y2="184.49467" gradientUnits="userSpaceOnUse" id="color-78"><stop offset="0" stop-color="#4b00bb"/><stop offset="1" stop-color="#30004f"/></linearGradient><linearGradient x1="238.07" y1="185.64868" x2="237.31253" y2="185.29294" gradientUnits="userSpaceOnUse" id="color-79"><stop offset="0" stop-color="#4b00ba"/><stop offset="1" stop-color="#300050"/></linearGradient><linearGradient x1="238.05653" y1="184.84302" x2="237.93855" y2="184.78762" gradientUnits="userSpaceOnUse" id="color-80"><stop offset="0" stop-color="#806f89"/><stop offset="1" stop-color="#685473"/></linearGradient><linearGradient x1="237.87618" y1="184.7583" x2="237.78383" y2="184.71495" gradientUnits="userSpaceOnUse" id="color-81"><stop offset="0" stop-color="#6a5675"/><stop offset="1" stop-color="#5c4768"/></linearGradient><linearGradient x1="238.21382" y1="184.91689" x2="238.12147" y2="184.87353" gradientUnits="userSpaceOnUse" id="color-82"><stop offset="0" stop-color="#97899e"/><stop offset="1" stop-color="#7f6e88"/></linearGradient><linearGradient x1="237.73601" y1="184.69248" x2="237.68257" y2="184.6674" gradientUnits="userSpaceOnUse" id="color-83"><stop offset="0" stop-color="#544c58"/><stop offset="1" stop-color="#4d3b58"/></linearGradient><linearGradient x1="238.31509" y1="184.96448" x2="238.26163" y2="184.93934" gradientUnits="userSpaceOnUse" id="color-84"><stop offset="0" stop-color="#a594ac"/><stop offset="1" stop-color="#96889d"/></linearGradient><linearGradient x1="237.97406" y1="185.01865" x2="237.85608" y2="184.96323" gradientUnits="userSpaceOnUse" id="color-85"><stop offset="0" stop-color="#806f89"/><stop offset="1" stop-color="#685473"/></linearGradient><linearGradient x1="237.7937" y1="184.93394" x2="237.70137" y2="184.89054" gradientUnits="userSpaceOnUse" id="color-86"><stop offset="0" stop-color="#6a5675"/><stop offset="1" stop-color="#5c4768"/></linearGradient><linearGradient x1="238.13134" y1="185.09251" x2="238.039" y2="185.04912" gradientUnits="userSpaceOnUse" id="color-87"><stop offset="0" stop-color="#97899e"/><stop offset="1" stop-color="#7f6e88"/></linearGradient><linearGradient x1="237.65354" y1="184.86809" x2="237.60009" y2="184.84299" gradientUnits="userSpaceOnUse" id="color-88"><stop offset="0" stop-color="#544c58"/><stop offset="1" stop-color="#4d3b58"/></linearGradient><linearGradient x1="238.23261" y1="185.14007" x2="238.17916" y2="185.11494" gradientUnits="userSpaceOnUse" id="color-89"><stop offset="0" stop-color="#a594ac"/><stop offset="1" stop-color="#96889d"/></linearGradient><linearGradient x1="237.89158" y1="185.19426" x2="237.7736" y2="185.13884" gradientUnits="userSpaceOnUse" id="color-90"><stop offset="0" stop-color="#806f89"/><stop offset="1" stop-color="#685473"/></linearGradient><linearGradient x1="237.71122" y1="185.10955" x2="237.61888" y2="185.06619" gradientUnits="userSpaceOnUse" id="color-91"><stop offset="0" stop-color="#6a5675"/><stop offset="1" stop-color="#5c4768"/></linearGradient><linearGradient x1="238.04886" y1="185.26812" x2="237.95652" y2="185.22472" gradientUnits="userSpaceOnUse" id="color-92"><stop offset="0" stop-color="#97899e"/><stop offset="1" stop-color="#7f6e88"/></linearGradient><linearGradient x1="237.57106" y1="185.04372" x2="237.51762" y2="185.01861" gradientUnits="userSpaceOnUse" id="color-93"><stop offset="0" stop-color="#544c58"/><stop offset="1" stop-color="#4d3b58"/></linearGradient><linearGradient x1="238.15013" y1="185.31568" x2="238.09668" y2="185.29059" gradientUnits="userSpaceOnUse" id="color-94"><stop offset="0" stop-color="#a594ac"/><stop offset="1" stop-color="#96889d"/></linearGradient><linearGradient x1="237.8091" y1="185.36985" x2="237.69111" y2="185.31443" gradientUnits="userSpaceOnUse" id="color-95"><stop offset="0" stop-color="#806f89"/><stop offset="1" stop-color="#685473"/></linearGradient><linearGradient x1="237.62874" y1="185.28515" x2="237.53641" y2="185.2418" gradientUnits="userSpaceOnUse" id="color-96"><stop offset="0" stop-color="#6a5675"/><stop offset="1" stop-color="#5c4768"/></linearGradient><linearGradient x1="237.96638" y1="185.44373" x2="237.87405" y2="185.40038" gradientUnits="userSpaceOnUse" id="color-97"><stop offset="0" stop-color="#97899e"/><stop offset="1" stop-color="#7f6e88"/></linearGradient><linearGradient x1="237.48858" y1="185.21933" x2="237.43514" y2="185.19424" gradientUnits="userSpaceOnUse" id="color-98"><stop offset="0" stop-color="#544c58"/><stop offset="1" stop-color="#4d3b58"/></linearGradient><linearGradient x1="238.06765" y1="185.49127" x2="238.01421" y2="185.4662" gradientUnits="userSpaceOnUse" id="color-99"><stop offset="0" stop-color="#a594ac"/><stop offset="1" stop-color="#96889d"/></linearGradient><radialGradient cx="236.17758" cy="181.48462" r="3.56874" gradientUnits="userSpaceOnUse" id="color-100"><stop offset="0" stop-color="#d699ff"/><stop offset="1" stop-color="#9966ff"/></radialGradient><linearGradient x1="234.83578" y1="169.66291" x2="234.27157" y2="170.21245" gradientUnits="userSpaceOnUse" id="color-101"><stop offset="0" stop-color="#7b6f80"/><stop offset="1" stop-color="#382c3f"/></linearGradient><linearGradient x1="235.34085" y1="169.95465" x2="234.54493" y2="170.72993" gradientUnits="userSpaceOnUse" id="color-102"><stop offset="0" stop-color="#ababab"/><stop offset="1" stop-color="#7e7e7e"/></linearGradient><linearGradient x1="235.01017" y1="170.27674" x2="234.87263" y2="170.41075" gradientUnits="userSpaceOnUse" id="color-103"><stop offset="0" stop-color="#323232"/><stop offset="1" stop-color="#232323"/></linearGradient><linearGradient x1="234.79992" y1="170.48154" x2="234.69227" y2="170.58643" gradientUnits="userSpaceOnUse" id="color-104"><stop offset="0" stop-color="#272727"/><stop offset="1" stop-color="#191919"/></linearGradient><linearGradient x1="235.19351" y1="170.09818" x2="235.08587" y2="170.20303" gradientUnits="userSpaceOnUse" id="color-105"><stop offset="0" stop-color="#393939"/><stop offset="1" stop-color="#323232"/></linearGradient><linearGradient x1="234.63653" y1="170.64071" x2="234.57423" y2="170.70142" gradientUnits="userSpaceOnUse" id="color-106"><stop offset="0" stop-color="#1f1f1f"/><stop offset="1" stop-color="#191919"/></linearGradient><linearGradient x1="235.31156" y1="169.9832" x2="235.24926" y2="170.04389" gradientUnits="userSpaceOnUse" id="color-107"><stop offset="0" stop-color="#515151"/><stop offset="1" stop-color="#3d3d3d"/></linearGradient><linearGradient x1="235.13016" y1="169.90465" x2="234.50047" y2="170.51801" gradientUnits="userSpaceOnUse" id="color-108"><stop offset="0" stop-color="#4b00bb"/><stop offset="1" stop-color="#30004f"/></linearGradient><linearGradient x1="234.5066" y1="169.29471" x2="233.90713" y2="169.87862" gradientUnits="userSpaceOnUse" id="color-109"><stop offset="0" stop-color="#4b00ba"/><stop offset="1" stop-color="#300050"/></linearGradient><linearGradient x1="234.75737" y1="170.06047" x2="234.66399" y2="170.1514" gradientUnits="userSpaceOnUse" id="color-110"><stop offset="0" stop-color="#806f89"/><stop offset="1" stop-color="#685473"/></linearGradient><linearGradient x1="234.61463" y1="170.19947" x2="234.54156" y2="170.27067" gradientUnits="userSpaceOnUse" id="color-111"><stop offset="0" stop-color="#6a5675"/><stop offset="1" stop-color="#5c4768"/></linearGradient><linearGradient x1="234.88184" y1="169.93919" x2="234.80876" y2="170.01041" gradientUnits="userSpaceOnUse" id="color-112"><stop offset="0" stop-color="#97899e"/><stop offset="1" stop-color="#7f6e88"/></linearGradient><linearGradient x1="234.50371" y1="170.30753" x2="234.46141" y2="170.34873" gradientUnits="userSpaceOnUse" id="color-113"><stop offset="0" stop-color="#544c58"/><stop offset="1" stop-color="#4d3b58"/></linearGradient><linearGradient x1="234.96198" y1="169.86114" x2="234.91968" y2="169.90235" gradientUnits="userSpaceOnUse" id="color-114"><stop offset="0" stop-color="#a594ac"/><stop offset="1" stop-color="#96889d"/></linearGradient><linearGradient x1="234.622" y1="169.92149" x2="234.52862" y2="170.01241" gradientUnits="userSpaceOnUse" id="color-115"><stop offset="0" stop-color="#806f89"/><stop offset="1" stop-color="#685473"/></linearGradient><linearGradient x1="234.47926" y1="170.0605" x2="234.40619" y2="170.13168" gradientUnits="userSpaceOnUse" id="color-116"><stop offset="0" stop-color="#6a5675"/><stop offset="1" stop-color="#5c4768"/></linearGradient><linearGradient x1="234.74647" y1="169.80025" x2="234.67338" y2="169.87143" gradientUnits="userSpaceOnUse" id="color-117"><stop offset="0" stop-color="#97899e"/><stop offset="1" stop-color="#7f6e88"/></linearGradient><linearGradient x1="234.36834" y1="170.16857" x2="234.32603" y2="170.20975" gradientUnits="userSpaceOnUse" id="color-118"><stop offset="0" stop-color="#544c58"/><stop offset="1" stop-color="#4d3b58"/></linearGradient><linearGradient x1="234.82661" y1="169.72218" x2="234.78431" y2="169.76338" gradientUnits="userSpaceOnUse" id="color-119"><stop offset="0" stop-color="#a594ac"/><stop offset="1" stop-color="#96889d"/></linearGradient><linearGradient x1="234.48662" y1="169.78249" x2="234.39324" y2="169.87344" gradientUnits="userSpaceOnUse" id="color-120"><stop offset="0" stop-color="#806f89"/><stop offset="1" stop-color="#685473"/></linearGradient><linearGradient x1="234.34388" y1="169.92152" x2="234.27081" y2="169.99271" gradientUnits="userSpaceOnUse" id="color-121"><stop offset="0" stop-color="#6a5675"/><stop offset="1" stop-color="#5c4768"/></linearGradient><linearGradient x1="234.61109" y1="169.66125" x2="234.53801" y2="169.73246" gradientUnits="userSpaceOnUse" id="color-122"><stop offset="0" stop-color="#97899e"/><stop offset="1" stop-color="#7f6e88"/></linearGradient><linearGradient x1="234.23296" y1="170.02959" x2="234.19066" y2="170.07078" gradientUnits="userSpaceOnUse" id="color-123"><stop offset="0" stop-color="#544c58"/><stop offset="1" stop-color="#4d3b58"/></linearGradient><linearGradient x1="234.69123" y1="169.5832" x2="234.64893" y2="169.6244" gradientUnits="userSpaceOnUse" id="color-124"><stop offset="0" stop-color="#a594ac"/><stop offset="1" stop-color="#96889d"/></linearGradient><linearGradient x1="234.35124" y1="169.64349" x2="234.25786" y2="169.73447" gradientUnits="userSpaceOnUse" id="color-125"><stop offset="0" stop-color="#806f89"/><stop offset="1" stop-color="#685473"/></linearGradient><linearGradient x1="234.2085" y1="169.78255" x2="234.13542" y2="169.85373" gradientUnits="userSpaceOnUse" id="color-126"><stop offset="0" stop-color="#6a5675"/><stop offset="1" stop-color="#5c4768"/></linearGradient><linearGradient x1="234.47571" y1="169.52226" x2="234.40263" y2="169.59344" gradientUnits="userSpaceOnUse" id="color-127"><stop offset="0" stop-color="#97899e"/><stop offset="1" stop-color="#7f6e88"/></linearGradient><linearGradient x1="234.09757" y1="169.89061" x2="234.05528" y2="169.93181" gradientUnits="userSpaceOnUse" id="color-128"><stop offset="0" stop-color="#544c58"/><stop offset="1" stop-color="#4d3b58"/></linearGradient><linearGradient x1="234.55585" y1="169.4442" x2="234.51356" y2="169.48542" gradientUnits="userSpaceOnUse" id="color-129"><stop offset="0" stop-color="#a594ac"/><stop offset="1" stop-color="#96889d"/></linearGradient><linearGradient x1="232.53239" y1="173.24771" x2="232.32256" y2="174.00685" gradientUnits="userSpaceOnUse" id="color-130"><stop offset="0" stop-color="#7b6f80"/><stop offset="1" stop-color="#382c3f"/></linearGradient><linearGradient x1="233.11567" y1="173.24476" x2="232.81966" y2="174.31571" gradientUnits="userSpaceOnUse" id="color-131"><stop offset="0" stop-color="#ababab"/><stop offset="1" stop-color="#7e7e7e"/></linearGradient><linearGradient x1="232.99268" y1="173.6897" x2="232.94153" y2="173.87478" gradientUnits="userSpaceOnUse" id="color-132"><stop offset="0" stop-color="#323232"/><stop offset="1" stop-color="#232323"/></linearGradient><linearGradient x1="232.91448" y1="173.97262" x2="232.87445" y2="174.11744" gradientUnits="userSpaceOnUse" id="color-133"><stop offset="0" stop-color="#272727"/><stop offset="1" stop-color="#191919"/></linearGradient><linearGradient x1="233.06087" y1="173.44301" x2="233.02084" y2="173.58787" gradientUnits="userSpaceOnUse" id="color-134"><stop offset="0" stop-color="#393939"/><stop offset="1" stop-color="#323232"/></linearGradient><linearGradient x1="232.85372" y1="174.19247" x2="232.83056" y2="174.27628" gradientUnits="userSpaceOnUse" id="color-135"><stop offset="0" stop-color="#1f1f1f"/><stop offset="1" stop-color="#191919"/></linearGradient><linearGradient x1="233.10477" y1="173.28417" x2="233.0816" y2="173.36803" gradientUnits="userSpaceOnUse" id="color-136"><stop offset="0" stop-color="#515151"/><stop offset="1" stop-color="#3d3d3d"/></linearGradient><linearGradient x1="232.90853" y1="173.30789" x2="232.67433" y2="174.15516" gradientUnits="userSpaceOnUse" id="color-137"><stop offset="0" stop-color="#4b00bb"/><stop offset="1" stop-color="#30004f"/></linearGradient><linearGradient x1="232.06241" y1="173.09592" x2="231.83946" y2="173.90252" gradientUnits="userSpaceOnUse" id="color-138"><stop offset="0" stop-color="#4b00ba"/><stop offset="1" stop-color="#300050"/></linearGradient><linearGradient x1="232.66528" y1="173.63051" x2="232.63056" y2="173.75614" gradientUnits="userSpaceOnUse" id="color-139"><stop offset="0" stop-color="#806f89"/><stop offset="1" stop-color="#685473"/></linearGradient><linearGradient x1="232.6122" y1="173.82257" x2="232.58502" y2="173.92089" gradientUnits="userSpaceOnUse" id="color-140"><stop offset="0" stop-color="#6a5675"/><stop offset="1" stop-color="#5c4768"/></linearGradient><linearGradient x1="232.71157" y1="173.46303" x2="232.68439" y2="173.56138" gradientUnits="userSpaceOnUse" id="color-141"><stop offset="0" stop-color="#97899e"/><stop offset="1" stop-color="#7f6e88"/></linearGradient><linearGradient x1="232.57094" y1="173.97184" x2="232.55522" y2="174.02873" gradientUnits="userSpaceOnUse" id="color-142"><stop offset="0" stop-color="#544c58"/><stop offset="1" stop-color="#4d3b58"/></linearGradient><linearGradient x1="232.74137" y1="173.35517" x2="232.72565" y2="173.41212" gradientUnits="userSpaceOnUse" id="color-143"><stop offset="0" stop-color="#a594ac"/><stop offset="1" stop-color="#96889d"/></linearGradient><linearGradient x1="232.47828" y1="173.57884" x2="232.44356" y2="173.70447" gradientUnits="userSpaceOnUse" id="color-144"><stop offset="0" stop-color="#806f89"/><stop offset="1" stop-color="#685473"/></linearGradient><linearGradient x1="232.4252" y1="173.7709" x2="232.39802" y2="173.86922" gradientUnits="userSpaceOnUse" id="color-145"><stop offset="0" stop-color="#6a5675"/><stop offset="1" stop-color="#5c4768"/></linearGradient><linearGradient x1="232.52458" y1="173.41134" x2="232.49739" y2="173.50969" gradientUnits="userSpaceOnUse" id="color-146"><stop offset="0" stop-color="#97899e"/><stop offset="1" stop-color="#7f6e88"/></linearGradient><linearGradient x1="232.38395" y1="173.92015" x2="232.36821" y2="173.97704" gradientUnits="userSpaceOnUse" id="color-147"><stop offset="0" stop-color="#544c58"/><stop offset="1" stop-color="#4d3b58"/></linearGradient><linearGradient x1="232.55438" y1="173.3035" x2="232.53865" y2="173.36043" gradientUnits="userSpaceOnUse" id="color-148"><stop offset="0" stop-color="#a594ac"/><stop offset="1" stop-color="#96889d"/></linearGradient><linearGradient x1="232.29127" y1="173.52715" x2="232.25655" y2="173.65279" gradientUnits="userSpaceOnUse" id="color-149"><stop offset="0" stop-color="#806f89"/><stop offset="1" stop-color="#685473"/></linearGradient><linearGradient x1="232.23819" y1="173.71921" x2="232.21101" y2="173.81754" gradientUnits="userSpaceOnUse" id="color-150"><stop offset="0" stop-color="#6a5675"/><stop offset="1" stop-color="#5c4768"/></linearGradient><linearGradient x1="232.33757" y1="173.35965" x2="232.3104" y2="173.45797" gradientUnits="userSpaceOnUse" id="color-151"><stop offset="0" stop-color="#97899e"/><stop offset="1" stop-color="#7f6e88"/></linearGradient><linearGradient x1="232.19694" y1="173.86845" x2="232.18121" y2="173.92537" gradientUnits="userSpaceOnUse" id="color-152"><stop offset="0" stop-color="#544c58"/><stop offset="1" stop-color="#4d3b58"/></linearGradient><linearGradient x1="232.36737" y1="173.25183" x2="232.35164" y2="173.30875" gradientUnits="userSpaceOnUse" id="color-153"><stop offset="0" stop-color="#a594ac"/><stop offset="1" stop-color="#96889d"/></linearGradient><linearGradient x1="232.10426" y1="173.47543" x2="232.06954" y2="173.60111" gradientUnits="userSpaceOnUse" id="color-154"><stop offset="0" stop-color="#806f89"/><stop offset="1" stop-color="#685473"/></linearGradient><linearGradient x1="232.05118" y1="173.66749" x2="232.024" y2="173.76581" gradientUnits="userSpaceOnUse" id="color-155"><stop offset="0" stop-color="#6a5675"/><stop offset="1" stop-color="#5c4768"/></linearGradient><linearGradient x1="232.15056" y1="173.30798" x2="232.12338" y2="173.4063" gradientUnits="userSpaceOnUse" id="color-156"><stop offset="0" stop-color="#97899e"/><stop offset="1" stop-color="#7f6e88"/></linearGradient><linearGradient x1="232.00993" y1="173.81676" x2="231.9942" y2="173.87369" gradientUnits="userSpaceOnUse" id="color-157"><stop offset="0" stop-color="#544c58"/><stop offset="1" stop-color="#4d3b58"/></linearGradient><linearGradient x1="232.18037" y1="173.20015" x2="232.16464" y2="173.25703" gradientUnits="userSpaceOnUse" id="color-158"><stop offset="0" stop-color="#a594ac"/><stop offset="1" stop-color="#96889d"/></linearGradient><linearGradient x1="238.26066" y1="167.37839" x2="237.54774" y2="167.71323" gradientUnits="userSpaceOnUse" id="color-159"><stop offset="0" stop-color="#7b6f80"/><stop offset="1" stop-color="#382c3f"/></linearGradient><linearGradient x1="238.64254" y1="167.81929" x2="237.63682" y2="168.29165" gradientUnits="userSpaceOnUse" id="color-160"><stop offset="0" stop-color="#ababab"/><stop offset="1" stop-color="#7e7e7e"/></linearGradient><linearGradient x1="238.22468" y1="168.01554" x2="238.05089" y2="168.09717" gradientUnits="userSpaceOnUse" id="color-161"><stop offset="0" stop-color="#323232"/><stop offset="1" stop-color="#232323"/></linearGradient><linearGradient x1="237.95902" y1="168.14028" x2="237.823" y2="168.2042" gradientUnits="userSpaceOnUse" id="color-162"><stop offset="0" stop-color="#272727"/><stop offset="1" stop-color="#191919"/></linearGradient><linearGradient x1="238.45635" y1="167.90674" x2="238.32034" y2="167.9706" gradientUnits="userSpaceOnUse" id="color-163"><stop offset="0" stop-color="#393939"/><stop offset="1" stop-color="#323232"/></linearGradient><linearGradient x1="237.75256" y1="168.23727" x2="237.67384" y2="168.27425" gradientUnits="userSpaceOnUse" id="color-164"><stop offset="0" stop-color="#1f1f1f"/><stop offset="1" stop-color="#191919"/></linearGradient><linearGradient x1="238.60551" y1="167.8367" x2="238.52679" y2="167.87367" gradientUnits="userSpaceOnUse" id="color-165"><stop offset="0" stop-color="#515151"/><stop offset="1" stop-color="#3d3d3d"/></linearGradient><linearGradient x1="238.45979" y1="167.70313" x2="237.66412" y2="168.07679" gradientUnits="userSpaceOnUse" id="color-166"><stop offset="0" stop-color="#4b00bb"/><stop offset="1" stop-color="#30004f"/></linearGradient><linearGradient x1="238.07" y1="166.92278" x2="237.31253" y2="167.27852" gradientUnits="userSpaceOnUse" id="color-167"><stop offset="0" stop-color="#4b00ba"/><stop offset="1" stop-color="#300050"/></linearGradient><linearGradient x1="238.05653" y1="167.72846" x2="237.93855" y2="167.78388" gradientUnits="userSpaceOnUse" id="color-168"><stop offset="0" stop-color="#806f89"/><stop offset="1" stop-color="#685473"/></linearGradient><linearGradient x1="237.87618" y1="167.81317" x2="237.78383" y2="167.85651" gradientUnits="userSpaceOnUse" id="color-169"><stop offset="0" stop-color="#6a5675"/><stop offset="1" stop-color="#5c4768"/></linearGradient><linearGradient x1="238.21382" y1="167.65459" x2="238.12147" y2="167.69794" gradientUnits="userSpaceOnUse" id="color-170"><stop offset="0" stop-color="#97899e"/><stop offset="1" stop-color="#7f6e88"/></linearGradient><linearGradient x1="237.73601" y1="167.87898" x2="237.68257" y2="167.90407" gradientUnits="userSpaceOnUse" id="color-171"><stop offset="0" stop-color="#544c58"/><stop offset="1" stop-color="#4d3b58"/></linearGradient><linearGradient x1="238.31509" y1="167.60702" x2="238.26163" y2="167.63212" gradientUnits="userSpaceOnUse" id="color-172"><stop offset="0" stop-color="#a594ac"/><stop offset="1" stop-color="#96889d"/></linearGradient><linearGradient x1="237.97406" y1="167.55285" x2="237.85608" y2="167.60827" gradientUnits="userSpaceOnUse" id="color-173"><stop offset="0" stop-color="#806f89"/><stop offset="1" stop-color="#685473"/></linearGradient><linearGradient x1="237.7937" y1="167.63756" x2="237.70137" y2="167.68092" gradientUnits="userSpaceOnUse" id="color-174"><stop offset="0" stop-color="#6a5675"/><stop offset="1" stop-color="#5c4768"/></linearGradient><linearGradient x1="238.13134" y1="167.47899" x2="238.039" y2="167.52234" gradientUnits="userSpaceOnUse" id="color-175"><stop offset="0" stop-color="#97899e"/><stop offset="1" stop-color="#7f6e88"/></linearGradient><linearGradient x1="237.65354" y1="167.70339" x2="237.60009" y2="167.72847" gradientUnits="userSpaceOnUse" id="color-176"><stop offset="0" stop-color="#544c58"/><stop offset="1" stop-color="#4d3b58"/></linearGradient><linearGradient x1="238.23261" y1="167.43143" x2="238.17916" y2="167.45653" gradientUnits="userSpaceOnUse" id="color-177"><stop offset="0" stop-color="#a594ac"/><stop offset="1" stop-color="#96889d"/></linearGradient><linearGradient x1="237.89158" y1="167.37721" x2="237.7736" y2="167.43262" gradientUnits="userSpaceOnUse" id="color-178"><stop offset="0" stop-color="#806f89"/><stop offset="1" stop-color="#685473"/></linearGradient><linearGradient x1="237.71122" y1="167.46193" x2="237.61888" y2="167.50531" gradientUnits="userSpaceOnUse" id="color-179"><stop offset="0" stop-color="#6a5675"/><stop offset="1" stop-color="#5c4768"/></linearGradient><linearGradient x1="238.04886" y1="167.30338" x2="237.95652" y2="167.34675" gradientUnits="userSpaceOnUse" id="color-180"><stop offset="0" stop-color="#97899e"/><stop offset="1" stop-color="#7f6e88"/></linearGradient><linearGradient x1="237.57106" y1="167.52778" x2="237.51762" y2="167.55287" gradientUnits="userSpaceOnUse" id="color-181"><stop offset="0" stop-color="#544c58"/><stop offset="1" stop-color="#4d3b58"/></linearGradient><linearGradient x1="238.15013" y1="167.25578" x2="238.09668" y2="167.28091" gradientUnits="userSpaceOnUse" id="color-182"><stop offset="0" stop-color="#a594ac"/><stop offset="1" stop-color="#96889d"/></linearGradient><linearGradient x1="237.8091" y1="167.20161" x2="237.69111" y2="167.25703" gradientUnits="userSpaceOnUse" id="color-183"><stop offset="0" stop-color="#806f89"/><stop offset="1" stop-color="#685473"/></linearGradient><linearGradient x1="237.62874" y1="167.28631" x2="237.53641" y2="167.32966" gradientUnits="userSpaceOnUse" id="color-184"><stop offset="0" stop-color="#6a5675"/><stop offset="1" stop-color="#5c4768"/></linearGradient><linearGradient x1="237.96638" y1="167.12773" x2="237.87405" y2="167.1711" gradientUnits="userSpaceOnUse" id="color-185"><stop offset="0" stop-color="#97899e"/><stop offset="1" stop-color="#7f6e88"/></linearGradient><linearGradient x1="237.48858" y1="167.35213" x2="237.43514" y2="167.37726" gradientUnits="userSpaceOnUse" id="color-186"><stop offset="0" stop-color="#544c58"/><stop offset="1" stop-color="#4d3b58"/></linearGradient><linearGradient x1="238.06765" y1="167.08019" x2="238.01421" y2="167.10527" gradientUnits="userSpaceOnUse" id="color-187"><stop offset="0" stop-color="#a594ac"/><stop offset="1" stop-color="#96889d"/></linearGradient><radialGradient cx="236.17758" cy="170.90128" r="3.64568" gradientUnits="userSpaceOnUse" id="color-188"><stop offset="0" stop-color="#d699ff"/><stop offset="1" stop-color="#9966ff"/></radialGradient></defs><g transform="translate(-228.89249,-166.81983)"><g data-paper-data="{&quot;isPaintingLayer&quot;:true}" fill-rule="nonzero" stroke-linejoin="miter" stroke-miterlimit="10" stroke-dasharray="" stroke-dashoffset="0" style="mix-blend-mode: normal"><path d="M238.69698,167.31096c4.92966,-1.65322 10.26617,1.00286 11.9194,5.93254c1.65322,4.92966 -1.00286,10.26617 -5.93254,11.9194c-4.92966,1.65322 -10.26617,-1.00286 -11.9194,-5.93254c-1.65322,-4.92966 1.00286,-10.26617 5.93254,-11.9194z" fill="url(#color-1)" stroke="none" stroke-width="0.5" stroke-linecap="butt"/><path d="M239.26018,168.99032c4.00217,-1.34217 8.33464,0.81417 9.67682,4.81636c1.34217,4.00217 -0.81417,8.33464 -4.81636,9.67682c-4.00217,1.34217 -8.33464,-0.81417 -9.67682,-4.81636c-1.34217,-4.00217 0.81417,-8.33464 4.81636,-9.67682z" fill="url(#color-2)" stroke="none" stroke-width="0.5" stroke-linecap="butt"/><path d="M239.63302,170.10209c3.38817,-1.13626 7.05596,0.68927 8.19223,4.07744c1.13626,3.38817 -0.68927,7.05596 -4.07744,8.19223c-3.38817,1.13626 -7.05596,-0.68927 -8.19223,-4.07744c-1.13626,-3.38817 0.68927,-7.05596 4.07744,-8.19223z" fill="url(#color-3)" stroke="none" stroke-width="0.5" stroke-linecap="butt"/><path d="M245.52881,182.66201c1.60716,-0.53898 3.34696,0.32695 3.88594,1.93412c0.53898,1.60716 -0.32695,3.34696 -1.93412,3.88594c-1.60716,0.53898 -3.34696,-0.32695 -3.88594,-1.93412c-0.53898,-1.60716 0.32695,-3.34696 1.93412,-3.88594z" fill="url(#color-4)" stroke="none" stroke-width="0.5" stroke-linecap="butt"/><path d="M245.71242,183.20951c1.30478,-0.43757 2.71725,0.26543 3.15483,1.57022c0.43757,1.30478 -0.26543,2.71725 -1.57022,3.15483c-1.30478,0.43757 -2.71725,-0.26543 -3.15483,-1.57022c-0.43757,-1.30478 0.26543,-2.71725 1.57022,-3.15483z" fill="url(#color-5)" stroke="none" stroke-width="0.5" stroke-linecap="butt"/><path d="M245.83397,183.57196c1.1046,-0.37044 2.30037,0.22471 2.67081,1.32932c0.37044,1.1046 -0.22471,2.30037 -1.32932,2.67081c-1.1046,0.37044 -2.30037,-0.22471 -2.67081,-1.32932c-0.37044,-1.1046 0.22471,-2.30037 1.32932,-2.67081z" fill="url(#color-6)" stroke="none" stroke-width="0.5" stroke-linecap="butt"/><path d="M228.89249,186.84255c0,-3.50016 2.83745,-6.33762 6.33762,-6.33762c3.50016,0 6.33762,2.83745 6.33762,6.33762c0,3.50016 -2.83745,6.33762 -6.33762,6.33762c-3.50016,0 -6.33762,-2.83745 -6.33762,-6.33762z" fill="url(#color-7)" stroke="none" stroke-width="0.5" stroke-linecap="butt"/><path d="M230.08488,186.84255c0,-2.84162 2.30359,-5.14523 5.14523,-5.14523c2.84162,0 5.14523,2.30359 5.14523,5.14523c0,2.84162 -2.30359,5.14523 -5.14523,5.14523c-2.84162,0 -5.14523,-2.30359 -5.14523,-5.14523z" fill="url(#color-8)" stroke="none" stroke-width="0.5" stroke-linecap="butt"/><path d="M230.87425,186.84255c0,-2.40567 1.95018,-4.35586 4.35586,-4.35586c2.40567,0 4.35586,1.95018 4.35586,4.35586c0,2.40567 -1.95018,4.35586 -4.35586,4.35586c-2.40567,0 -4.35586,-1.95018 -4.35586,-4.35586z" fill="url(#color-9)" stroke="none" stroke-width="0.5" stroke-linecap="butt"/><path d="M239.99861,171.19223c2.7861,-0.93435 5.80215,0.56678 6.73651,3.3529c0.93435,2.7861 -0.56678,5.80215 -3.3529,6.73651c-2.7861,0.93435 -5.80215,-0.56678 -6.73651,-3.3529c-0.93435,-2.7861 0.56678,-5.80215 3.3529,-6.73651z" fill="url(#color-10)" stroke="none" stroke-width="0.5" stroke-linecap="butt"/><path d="M245.95316,183.92737c0.90832,-0.30462 1.89161,0.18478 2.19623,1.09311c0.30462,0.90832 -0.18478,1.89161 -1.09311,2.19623c-0.90832,0.30462 -1.89161,-0.18478 -2.19623,-1.09311c-0.30462,-0.90832 0.18478,-1.89161 1.09311,-2.19623z" fill="url(#color-11)" stroke="none" stroke-width="0.5" stroke-linecap="butt"/><path d="M231.64827,186.84255c0,-1.97819 1.60364,-3.58184 3.58184,-3.58184c1.97819,0 3.58184,1.60364 3.58184,3.58184c0,1.97819 -1.60364,3.58184 -3.58184,3.58184c-1.97819,0 -3.58184,-1.60364 -3.58184,-3.58184z" fill="url(#color-12)" stroke="none" stroke-width="0.5" stroke-linecap="butt"/><g><g data-paper-data="{&quot;index&quot;:null}" stroke-width="0" stroke-linecap="butt"><path d="M233.00347,179.19355l-0.94218,0.26042l-0.20983,-0.75916l0.94218,-0.26042z" fill="url(#color-13)" stroke="#000000"/><path d="M233.24107,179.29204l-0.25079,0.06932l-0.29602,-1.07095l0.25079,-0.06931z" fill="url(#color-14)" stroke="none"/><path d="M233.0808,178.85741l-0.17624,0.04871l-0.05115,-0.18507l0.17623,-0.04871z" fill="url(#color-15)" stroke="#000000"/><path d="M233.00261,178.57452l-0.17624,0.0487l-0.04003,-0.14484l0.17623,-0.04871z" fill="url(#color-16)" stroke="#000000"/><path d="M233.14899,179.1041l-0.17623,0.04871l-0.04004,-0.14484l0.17624,-0.04871z" fill="url(#color-17)" stroke="#000000"/><path d="M232.94184,178.35464l-0.17624,0.04871l-0.02317,-0.08383l0.17623,-0.04871z" fill="url(#color-18)" stroke="#000000"/><path d="M233.19289,179.26294l-0.17623,0.04871l-0.02318,-0.08383l0.17623,-0.04871z" fill="url(#color-19)" stroke="#000000"/><path d="M232.95935,179.24951l-0.10167,0.02809l-0.23418,-0.84726l0.10167,-0.0281z" fill="url(#color-20)" stroke="#000000"/><path d="M232.09968,179.46528l-0.07456,0.02061l-0.22294,-0.80661l0.07456,-0.02061z" fill="url(#color-21)" stroke="#000000"/><path d="M232.73385,178.92202l-0.13714,0.0379l-0.03473,-0.12565l0.13714,-0.0379z" fill="url(#color-22)" stroke="#000000"/><path d="M232.68077,178.72997l-0.13714,0.0379l-0.02717,-0.09834l0.13714,-0.0379z" fill="url(#color-23)" stroke="#000000"/><path d="M232.78014,179.0895l-0.13714,0.0379l-0.02717,-0.09833l0.13714,-0.0379z" fill="url(#color-24)" stroke="#000000"/><path d="M232.63951,178.58071l-0.13714,0.0379l-0.01574,-0.05691l0.13714,-0.0379z" fill="url(#color-25)" stroke="#000000"/><path d="M232.80995,179.19731l-0.13714,0.0379l-0.01574,-0.05692l0.13714,-0.0379z" fill="url(#color-26)" stroke="#000000"/><path d="M232.54684,178.97371l-0.13714,0.0379l-0.03473,-0.12565l0.13714,-0.0379z" fill="url(#color-27)" stroke="#000000"/><path d="M232.49376,178.78165l-0.13714,0.0379l-0.02717,-0.09833l0.13714,-0.0379z" fill="url(#color-28)" stroke="#000000"/><path d="M232.59313,179.14117l-0.13714,0.0379l-0.02717,-0.09833l0.13714,-0.0379z" fill="url(#color-29)" stroke="#000000"/><path d="M232.4525,178.63239l-0.13714,0.0379l-0.01574,-0.05692l0.13714,-0.0379z" fill="url(#color-30)" stroke="#000000"/><path d="M232.62294,179.24903l-0.13714,0.0379l-0.01574,-0.05692l0.13714,-0.0379z" fill="url(#color-31)" stroke="#000000"/><path d="M232.35984,179.02539l-0.13714,0.0379l-0.03474,-0.12566l0.13714,-0.0379z" fill="url(#color-32)" stroke="#000000"/><path d="M232.30676,178.83332l-0.13714,0.0379l-0.02717,-0.09833l0.13714,-0.0379z" fill="url(#color-33)" stroke="#000000"/><path d="M232.40614,179.19286l-0.13714,0.0379l-0.02717,-0.09833l0.13714,-0.0379z" fill="url(#color-34)" stroke="#000000"/><path d="M232.26551,178.68406l-0.13714,0.0379l-0.01573,-0.05692l0.13714,-0.0379z" fill="url(#color-35)" stroke="#000000"/><path d="M232.43594,179.30072l-0.13714,0.0379l-0.01574,-0.05692l0.13714,-0.0379z" fill="url(#color-36)" stroke="#000000"/><path d="M232.17283,179.07706l-0.13714,0.0379l-0.03473,-0.12565l0.13714,-0.0379z" fill="url(#color-37)" stroke="#000000"/><path d="M232.11975,178.88499l-0.13714,0.0379l-0.02717,-0.09833l0.13714,-0.0379z" fill="url(#color-38)" stroke="#000000"/><path d="M232.21913,179.24457l-0.13714,0.0379l-0.02717,-0.09833l0.13714,-0.0379z" fill="url(#color-39)" stroke="#000000"/><path d="M232.0785,178.73575l-0.13714,0.0379l-0.01574,-0.05692l0.13714,-0.0379z" fill="url(#color-40)" stroke="#000000"/><path d="M232.24893,179.35239l-0.13714,0.0379l-0.01574,-0.05691l0.13714,-0.0379z" fill="url(#color-41)" stroke="#000000"/></g><path d="M232.99809,179.1892l-0.94218,0.26042l-0.20983,-0.75916l0.94218,-0.26042z" fill-opacity="0.68627" fill="#000000" stroke="#000000" stroke-width="0" stroke-linecap="butt"/><path d="M233.23569,179.28769l-0.25079,0.06932l-0.29602,-1.07095l0.25079,-0.06931z" fill-opacity="0.68627" fill="#000000" stroke="none" stroke-width="0" stroke-linecap="butt"/><path d="M233.07542,178.85306l-0.17624,0.04871l-0.05115,-0.18507l0.17623,-0.04871z" fill-opacity="0.68627" fill="#000000" stroke="#000000" stroke-width="0" stroke-linecap="butt"/><path d="M232.99723,178.57015l-0.17624,0.0487l-0.04003,-0.14484l0.17623,-0.04871z" fill-opacity="0.68627" fill="#000000" stroke="#000000" stroke-width="0" stroke-linecap="butt"/><path d="M233.14361,179.09975l-0.17623,0.04871l-0.04004,-0.14484l0.17624,-0.04871z" fill-opacity="0.68627" fill="#000000" stroke="#000000" stroke-width="0" stroke-linecap="butt"/><path d="M232.93646,178.35029l-0.17624,0.04871l-0.02317,-0.08383l0.17623,-0.04871z" fill-opacity="0.68627" fill="#000000" stroke="#000000" stroke-width="0" stroke-linecap="butt"/><path d="M233.18751,179.25859l-0.17623,0.04871l-0.02318,-0.08383l0.17623,-0.04871z" fill-opacity="0.68627" fill="#000000" stroke="#000000" stroke-width="0" stroke-linecap="butt"/><path d="M232.95397,179.24516l-0.10167,0.02809l-0.23418,-0.84726l0.10167,-0.0281z" fill-opacity="0.68627" fill="#000000" stroke="#000000" stroke-width="0" stroke-linecap="butt"/><path d="M232.0943,179.46091l-0.07456,0.02061l-0.22294,-0.80661l0.07456,-0.02061z" fill-opacity="0.68627" fill="#000000" stroke="#000000" stroke-width="0" stroke-linecap="butt"/><path d="M232.72847,178.91766l-0.13714,0.0379l-0.03473,-0.12565l0.13714,-0.0379z" fill-opacity="0.68627" fill="#000000" stroke="#000000" stroke-width="0" stroke-linecap="butt"/><path d="M232.67539,178.7256l-0.13714,0.0379l-0.02717,-0.09834l0.13714,-0.0379z" fill-opacity="0.68627" fill="#000000" stroke="#000000" stroke-width="0" stroke-linecap="butt"/><path d="M232.77476,179.08515l-0.13714,0.0379l-0.02717,-0.09833l0.13714,-0.0379z" fill-opacity="0.68627" fill="#000000" stroke="#000000" stroke-width="0" stroke-linecap="butt"/><path d="M232.63413,178.57634l-0.13714,0.0379l-0.01574,-0.05691l0.13714,-0.0379z" fill-opacity="0.68627" fill="#000000" stroke="#000000" stroke-width="0" stroke-linecap="butt"/><path d="M232.80457,179.19296l-0.13714,0.0379l-0.01574,-0.05692l0.13714,-0.0379z" fill-opacity="0.68627" fill="#000000" stroke="#000000" stroke-width="0" stroke-linecap="butt"/><path d="M232.54146,178.96934l-0.13714,0.0379l-0.03473,-0.12565l0.13714,-0.0379z" fill-opacity="0.68627" fill="#000000" stroke="#000000" stroke-width="0" stroke-linecap="butt"/><path d="M232.48838,178.77728l-0.13714,0.0379l-0.02717,-0.09833l0.13714,-0.0379z" fill-opacity="0.68627" fill="#000000" stroke="#000000" stroke-width="0" stroke-linecap="butt"/><path d="M232.58775,179.13682l-0.13714,0.0379l-0.02717,-0.09833l0.13714,-0.0379z" fill-opacity="0.68627" fill="#000000" stroke="#000000" stroke-width="0" stroke-linecap="butt"/><path d="M232.44712,178.62804l-0.13714,0.0379l-0.01574,-0.05692l0.13714,-0.0379z" fill-opacity="0.68627" fill="#000000" stroke="#000000" stroke-width="0" stroke-linecap="butt"/><path d="M232.61756,179.24467l-0.13714,0.0379l-0.01574,-0.05692l0.13714,-0.0379z" fill-opacity="0.68627" fill="#000000" stroke="#000000" stroke-width="0" stroke-linecap="butt"/><path d="M232.35446,179.02104l-0.13714,0.0379l-0.03474,-0.12566l0.13714,-0.0379z" fill-opacity="0.68627" fill="#000000" stroke="#000000" stroke-width="0" stroke-linecap="butt"/><path d="M232.30138,178.82897l-0.13714,0.0379l-0.02717,-0.09833l0.13714,-0.0379z" fill-opacity="0.68627" fill="#000000" stroke="#000000" stroke-width="0" stroke-linecap="butt"/><path d="M232.40076,179.1885l-0.13714,0.0379l-0.02717,-0.09833l0.13714,-0.0379z" fill-opacity="0.68627" fill="#000000" stroke="#000000" stroke-width="0" stroke-linecap="butt"/><path d="M232.26013,178.67971l-0.13714,0.0379l-0.01573,-0.05692l0.13714,-0.0379z" fill-opacity="0.68627" fill="#000000" stroke="#000000" stroke-width="0" stroke-linecap="butt"/><path d="M232.43056,179.29635l-0.13714,0.0379l-0.01574,-0.05692l0.13714,-0.0379z" fill-opacity="0.68627" fill="#000000" stroke="#000000" stroke-width="0" stroke-linecap="butt"/><path d="M232.16745,179.07271l-0.13714,0.0379l-0.03473,-0.12565l0.13714,-0.0379z" fill-opacity="0.68627" fill="#000000" stroke="#000000" stroke-width="0" stroke-linecap="butt"/><path d="M232.11437,178.88064l-0.13714,0.0379l-0.02717,-0.09833l0.13714,-0.0379z" fill-opacity="0.68627" fill="#000000" stroke="#000000" stroke-width="0" stroke-linecap="butt"/><path d="M232.21375,179.2402l-0.13714,0.0379l-0.02717,-0.09833l0.13714,-0.0379z" fill-opacity="0.68627" fill="#000000" stroke="#000000" stroke-width="0" stroke-linecap="butt"/><path d="M232.07312,178.73139l-0.13714,0.0379l-0.01574,-0.05692l0.13714,-0.0379z" fill-opacity="0.68627" fill="#000000" stroke="#000000" stroke-width="0" stroke-linecap="butt"/><path d="M232.24355,179.34804l-0.13714,0.0379l-0.01574,-0.05691l0.13714,-0.0379z" fill-opacity="0.68627" fill="#000000" stroke="#000000" stroke-width="0" stroke-linecap="butt"/><path d="M241.78419,185.02394c0,0 -2.60424,0.57223 -5.97912,-2.32908c-3.13621,-2.35406 -2.89404,-6.44679 -2.89404,-6.44679h0.87616c0,0 -0.05322,3.49148 2.65047,5.74493c2.76103,2.30127 5.28454,2.14051 5.28454,2.14051z" fill="#000000" stroke="#000000" stroke-width="0.25" stroke-linecap="butt"/><g data-paper-data="{&quot;index&quot;:null}" stroke-width="0" stroke-linecap="butt"><path d="M235.17681,182.55849l-0.68206,0.70022l-0.5642,-0.54957l0.68205,-0.70022z" fill="url(#color-42)" stroke="#000000"/><path d="M235.43164,182.52361l-0.18155,0.18638l-0.79593,-0.77528l0.18155,-0.18639z" fill="url(#color-43)" stroke="none"/><path d="M235.07396,182.22924l-0.12758,0.13098l-0.13754,-0.13397l0.12758,-0.13098z" fill="url(#color-44)" stroke="#000000"/><path d="M234.86371,182.02441l-0.12758,0.13097l-0.10764,-0.10485l0.12758,-0.13098z" fill="url(#color-45)" stroke="#000000"/><path d="M235.2573,182.40782l-0.12759,0.13098l-0.10764,-0.10485l0.12758,-0.13098z" fill="url(#color-46)" stroke="#000000"/><path d="M234.70032,181.86528l-0.12758,0.13098l-0.06231,-0.06069l0.12758,-0.13098z" fill="url(#color-47)" stroke="#000000"/><path d="M235.37535,182.52279l-0.12759,0.13098l-0.06231,-0.06069l0.12759,-0.13098z" fill="url(#color-48)" stroke="#000000"/><path d="M235.16695,182.62907l-0.07361,0.07555l-0.62968,-0.61335l0.0736,-0.07555z" fill="url(#color-49)" stroke="#000000"/><path d="M234.53358,183.24906l-0.05398,0.05541l-0.59947,-0.58392l0.05399,-0.05541z" fill="url(#color-50)" stroke="#000000"/><path d="M234.80701,182.46005l-0.09928,0.10192l-0.09338,-0.09097l0.09928,-0.10191z" fill="url(#color-51)" stroke="#000000"/><path d="M234.66427,182.32104l-0.09928,0.10191l-0.07308,-0.07119l0.09928,-0.10192z" fill="url(#color-52)" stroke="#000000"/><path d="M234.93148,182.58132l-0.09928,0.10192l-0.07307,-0.07119l0.09928,-0.10192z" fill="url(#color-53)" stroke="#000000"/><path d="M234.55335,182.21298l-0.09928,0.10192l-0.0423,-0.0412l0.09928,-0.10192z" fill="url(#color-54)" stroke="#000000"/><path d="M235.01162,182.65935l-0.09928,0.10191l-0.0423,-0.04119l0.09928,-0.10192z" fill="url(#color-55)" stroke="#000000"/><path d="M234.67163,182.59905l-0.09928,0.10192l-0.09339,-0.09096l0.09928,-0.10191z" fill="url(#color-56)" stroke="#000000"/><path d="M234.52889,182.46002l-0.09928,0.10191l-0.07308,-0.07118l0.09928,-0.10192z" fill="url(#color-57)" stroke="#000000"/><path d="M234.7961,182.7203l-0.09928,0.10192l-0.07308,-0.07119l0.09928,-0.10192z" fill="url(#color-58)" stroke="#000000"/><path d="M234.41797,182.35195l-0.09928,0.10191l-0.0423,-0.0412l0.09928,-0.10192z" fill="url(#color-59)" stroke="#000000"/><path d="M234.87624,182.79834l-0.09928,0.10192l-0.0423,-0.0412l0.09928,-0.10191z" fill="url(#color-60)" stroke="#000000"/><path d="M234.53626,182.73803l-0.09928,0.10192l-0.09339,-0.09097l0.09928,-0.10191z" fill="url(#color-61)" stroke="#000000"/><path d="M234.39352,182.59899l-0.09928,0.10191l-0.07308,-0.07118l0.09928,-0.10192z" fill="url(#color-62)" stroke="#000000"/><path d="M234.66073,182.85927l-0.09928,0.10192l-0.07308,-0.07119l0.09928,-0.10191z" fill="url(#color-63)" stroke="#000000"/><path d="M234.2826,182.49092l-0.09928,0.10191l-0.0423,-0.04119l0.09928,-0.10192z" fill="url(#color-64)" stroke="#000000"/><path d="M234.74087,182.93734l-0.09928,0.10192l-0.0423,-0.0412l0.09928,-0.10192z" fill="url(#color-65)" stroke="#000000"/><path d="M234.40087,182.87701l-0.09928,0.10191l-0.09339,-0.09096l0.09928,-0.10192z" fill="url(#color-66)" stroke="#000000"/><path d="M234.25814,182.73796l-0.09928,0.10192l-0.07308,-0.07119l0.09928,-0.10192z" fill="url(#color-67)" stroke="#000000"/><path d="M234.52535,182.99825l-0.09928,0.10191l-0.07308,-0.07119l0.09928,-0.10191z" fill="url(#color-68)" stroke="#000000"/><path d="M234.14721,182.62991l-0.09928,0.10192l-0.0423,-0.0412l0.09928,-0.10191z" fill="url(#color-69)" stroke="#000000"/><path d="M234.60549,183.07632l-0.09928,0.10191l-0.0423,-0.04119l0.09928,-0.10192z" fill="url(#color-70)" stroke="#000000"/></g><g data-paper-data="{&quot;index&quot;:null}" stroke-width="0" stroke-linecap="butt"><path d="M238.46843,184.75068l-0.41553,0.88478l-0.71292,-0.33482l0.41554,-0.88479z" fill="url(#color-71)" stroke="#000000"/><path d="M238.69784,184.63443l-0.1106,0.23551l-1.00572,-0.47233l0.11061,-0.23551z" fill="url(#color-72)" stroke="none"/><path d="M238.26355,184.47319l-0.07773,0.1655l-0.17379,-0.08163l0.07772,-0.1655z" fill="url(#color-73)" stroke="#000000"/><path d="M237.99788,184.34843l-0.07773,0.1655l-0.13602,-0.06389l0.07773,-0.1655z" fill="url(#color-74)" stroke="#000000"/><path d="M238.49522,184.58198l-0.07772,0.1655l-0.13602,-0.06388l0.07773,-0.1655z" fill="url(#color-75)" stroke="#000000"/><path d="M237.79142,184.25147l-0.07773,0.1655l-0.07873,-0.03697l0.07772,-0.1655z" fill="url(#color-76)" stroke="#000000"/><path d="M238.64438,184.65203l-0.07773,0.1655l-0.07873,-0.03697l0.07773,-0.1655z" fill="url(#color-77)" stroke="#000000"/><path d="M238.4822,184.82061l-0.04485,0.09547l-0.79565,-0.37368l0.04484,-0.09547z" fill="url(#color-78)" stroke="#000000"/><path d="M238.08644,185.61368l-0.03289,0.07002l-0.75747,-0.35575l0.03289,-0.07002z" fill="url(#color-79)" stroke="#000000"/><path d="M238.08678,184.77861l-0.06049,0.12878l-0.118,-0.05542l0.06049,-0.12878z" fill="url(#color-80)" stroke="#000000"/><path d="M237.90642,184.69391l-0.06048,0.12878l-0.09234,-0.04337l0.06048,-0.12878z" fill="url(#color-81)" stroke="#000000"/><path d="M238.24406,184.85248l-0.06048,0.12878l-0.09234,-0.04337l0.06048,-0.12878z" fill="url(#color-82)" stroke="#000000"/><path d="M237.76626,184.62809l-0.06049,0.12878l-0.05345,-0.02509l0.06048,-0.12878z" fill="url(#color-83)" stroke="#000000"/><path d="M238.34532,184.90004l-0.06048,0.12878l-0.05346,-0.02509l0.06049,-0.12879z" fill="url(#color-84)" stroke="#000000"/><path d="M238.00429,184.95426l-0.06048,0.12878l-0.118,-0.05541l0.06048,-0.12879z" fill="url(#color-85)" stroke="#000000"/><path d="M237.82394,184.86956l-0.06048,0.12878l-0.09235,-0.04337l0.06049,-0.12878z" fill="url(#color-86)" stroke="#000000"/><path d="M238.16158,185.02813l-0.06048,0.12878l-0.09234,-0.04337l0.06049,-0.12878z" fill="url(#color-87)" stroke="#000000"/><path d="M237.68378,184.80371l-0.06049,0.12879l-0.05345,-0.0251l0.06049,-0.12878z" fill="url(#color-88)" stroke="#000000"/><path d="M238.26284,185.07569l-0.06048,0.12877l-0.05345,-0.02509l0.06048,-0.12878z" fill="url(#color-89)" stroke="#000000"/><path d="M237.92183,185.12987l-0.06048,0.12878l-0.11801,-0.05542l0.06049,-0.12878z" fill="url(#color-90)" stroke="#000000"/><path d="M237.74147,185.04516l-0.06049,0.12878l-0.09234,-0.04337l0.06049,-0.12878z" fill="url(#color-91)" stroke="#000000"/><path d="M238.0791,185.20373l-0.06048,0.12878l-0.09234,-0.04337l0.06048,-0.12878z" fill="url(#color-92)" stroke="#000000"/><path d="M237.6013,184.97933l-0.06048,0.12879l-0.05345,-0.0251l0.06048,-0.12878z" fill="url(#color-93)" stroke="#000000"/><path d="M238.18037,185.2513l-0.06048,0.12878l-0.05345,-0.0251l0.06049,-0.12878z" fill="url(#color-94)" stroke="#000000"/><path d="M237.83934,185.30547l-0.06048,0.12878l-0.118,-0.05541l0.06048,-0.12879z" fill="url(#color-95)" stroke="#000000"/><path d="M237.65898,185.22077l-0.06048,0.12878l-0.09234,-0.04337l0.06048,-0.12877z" fill="url(#color-96)" stroke="#000000"/><path d="M237.99662,185.37934l-0.06048,0.12878l-0.09234,-0.04337l0.06049,-0.12879z" fill="url(#color-97)" stroke="#000000"/><path d="M237.51882,185.15495l-0.06049,0.12878l-0.05345,-0.02509l0.06049,-0.12879z" fill="url(#color-98)" stroke="#000000"/><path d="M238.09789,185.42689l-0.06048,0.12878l-0.05345,-0.0251l0.06049,-0.12878z" fill="url(#color-99)" stroke="#000000"/></g><path d="M241.8692,184.20893c-4.46289,-0.26107 -7.82496,-2.85553 -8.11587,-7.69812" fill="none" stroke="#ffffff" stroke-width="0.5" stroke-linecap="butt"/><path d="M241.18925,183.90937c0,0 -3.05459,-0.33911 -4.93612,-2.27795c-1.86796,-1.92487 -2.20136,-4.76136 -2.20136,-4.76136" fill="none" stroke="url(#color-100)" stroke-width="0.25" stroke-linecap="round"/><g data-paper-data="{&quot;index&quot;:null}" fill-opacity="0.68627" fill="#000000" stroke-width="0" stroke-linecap="butt"><path d="M235.17143,182.55413l-0.68206,0.70022l-0.5642,-0.54957l0.68205,-0.70022z" stroke="#000000"/><path d="M235.42626,182.51926l-0.18155,0.18638l-0.79593,-0.77528l0.18155,-0.18639z" stroke="none"/><path d="M235.06858,182.22488l-0.12758,0.13098l-0.13754,-0.13397l0.12758,-0.13098z" stroke="#000000"/><path d="M234.85833,182.02006l-0.12758,0.13097l-0.10764,-0.10485l0.12758,-0.13098z" stroke="#000000"/><path d="M235.25192,182.40347l-0.12759,0.13098l-0.10764,-0.10485l0.12758,-0.13098z" stroke="#000000"/><path d="M234.69494,181.86093l-0.12758,0.13098l-0.06231,-0.06069l0.12758,-0.13098z" stroke="#000000"/><path d="M235.36997,182.51844l-0.12759,0.13098l-0.06231,-0.06069l0.12759,-0.13098z" stroke="#000000"/><path d="M235.16157,182.6247l-0.07361,0.07555l-0.62968,-0.61335l0.0736,-0.07555z" stroke="#000000"/><path d="M234.5282,183.24471l-0.05398,0.05541l-0.59947,-0.58392l0.05399,-0.05541z" stroke="#000000"/><path d="M234.80163,182.45569l-0.09928,0.10192l-0.09338,-0.09097l0.09928,-0.10191z" stroke="#000000"/><path d="M234.65889,182.31667l-0.09928,0.10191l-0.07308,-0.07119l0.09928,-0.10192z" stroke="#000000"/><path d="M234.9261,182.57696l-0.09928,0.10192l-0.07307,-0.07119l0.09928,-0.10192z" stroke="#000000"/><path d="M234.54797,182.20863l-0.09928,0.10192l-0.0423,-0.0412l0.09928,-0.10192z" stroke="#000000"/><path d="M235.00624,182.655l-0.09928,0.10191l-0.0423,-0.04119l0.09928,-0.10192z" stroke="#000000"/><path d="M234.66625,182.59469l-0.09928,0.10192l-0.09339,-0.09096l0.09928,-0.10191z" stroke="#000000"/><path d="M234.52351,182.45565l-0.09928,0.10191l-0.07308,-0.07118l0.09928,-0.10192z" stroke="#000000"/><path d="M234.79072,182.71593l-0.09928,0.10192l-0.07308,-0.07119l0.09928,-0.10192z" stroke="#000000"/><path d="M234.41259,182.3476l-0.09928,0.10191l-0.0423,-0.0412l0.09928,-0.10192z" stroke="#000000"/><path d="M234.87086,182.79398l-0.09928,0.10192l-0.0423,-0.0412l0.09928,-0.10191z" stroke="#000000"/><path d="M234.53088,182.73366l-0.09928,0.10192l-0.09339,-0.09097l0.09928,-0.10191z" stroke="#000000"/><path d="M234.38814,182.59463l-0.09928,0.10191l-0.07308,-0.07118l0.09928,-0.10192z" stroke="#000000"/><path d="M234.65535,182.8549l-0.09928,0.10192l-0.07308,-0.07119l0.09928,-0.10191z" stroke="#000000"/><path d="M234.27722,182.48657l-0.09928,0.10191l-0.0423,-0.04119l0.09928,-0.10192z" stroke="#000000"/><path d="M234.73549,182.93298l-0.09928,0.10192l-0.0423,-0.0412l0.09928,-0.10192z" stroke="#000000"/><path d="M234.39549,182.87266l-0.09928,0.10191l-0.09339,-0.09096l0.09928,-0.10192z" stroke="#000000"/><path d="M234.25276,182.73361l-0.09928,0.10192l-0.07308,-0.07119l0.09928,-0.10192z" stroke="#000000"/><path d="M234.51997,182.9939l-0.09928,0.10191l-0.07308,-0.07119l0.09928,-0.10191z" stroke="#000000"/><path d="M234.14183,182.62555l-0.09928,0.10192l-0.0423,-0.0412l0.09928,-0.10191z" stroke="#000000"/><path d="M234.60011,183.07195l-0.09928,0.10191l-0.0423,-0.04119l0.09928,-0.10192z" stroke="#000000"/></g><g data-paper-data="{&quot;index&quot;:null}" fill-opacity="0.68627" fill="#000000" stroke-width="0" stroke-linecap="butt"><path d="M238.46305,184.74633l-0.41553,0.88478l-0.71292,-0.33482l0.41554,-0.88479z" stroke="#000000"/><path d="M238.69246,184.63006l-0.1106,0.23551l-1.00572,-0.47233l0.11061,-0.23551z" stroke="none"/><path d="M238.25817,184.46884l-0.07773,0.1655l-0.17379,-0.08163l0.07772,-0.1655z" stroke="#000000"/><path d="M237.9925,184.34406l-0.07773,0.1655l-0.13602,-0.06389l0.07773,-0.1655z" stroke="#000000"/><path d="M238.48984,184.57763l-0.07772,0.1655l-0.13602,-0.06388l0.07773,-0.1655z" stroke="#000000"/><path d="M237.78604,184.2471l-0.07773,0.1655l-0.07873,-0.03697l0.07772,-0.1655z" stroke="#000000"/><path d="M238.639,184.64767l-0.07773,0.1655l-0.07873,-0.03697l0.07773,-0.1655z" stroke="#000000"/><path d="M238.47682,184.81626l-0.04485,0.09547l-0.79565,-0.37368l0.04484,-0.09547z" stroke="#000000"/><path d="M238.08106,185.60933l-0.03289,0.07002l-0.75747,-0.35575l0.03289,-0.07002z" stroke="#000000"/><path d="M238.0814,184.77426l-0.06049,0.12878l-0.118,-0.05542l0.06049,-0.12878z" stroke="#000000"/><path d="M237.90104,184.68956l-0.06048,0.12878l-0.09234,-0.04337l0.06048,-0.12878z" stroke="#000000"/><path d="M238.23868,184.84813l-0.06048,0.12878l-0.09234,-0.04337l0.06048,-0.12878z" stroke="#000000"/><path d="M237.76088,184.62374l-0.06049,0.12878l-0.05345,-0.02509l0.06048,-0.12878z" stroke="#000000"/><path d="M238.33994,184.89569l-0.06048,0.12878l-0.05346,-0.02509l0.06049,-0.12879z" stroke="#000000"/><path d="M237.99891,184.9499l-0.06048,0.12878l-0.118,-0.05541l0.06048,-0.12879z" stroke="#000000"/><path d="M237.81856,184.86519l-0.06048,0.12878l-0.09235,-0.04337l0.06049,-0.12878z" stroke="#000000"/><path d="M238.1562,185.02377l-0.06048,0.12878l-0.09234,-0.04337l0.06049,-0.12878z" stroke="#000000"/><path d="M237.6784,184.79935l-0.06049,0.12879l-0.05345,-0.0251l0.06049,-0.12878z" stroke="#000000"/><path d="M238.25746,185.07132l-0.06048,0.12877l-0.05345,-0.02509l0.06048,-0.12878z" stroke="#000000"/><path d="M237.91645,185.1255l-0.06048,0.12878l-0.11801,-0.05542l0.06049,-0.12878z" stroke="#000000"/><path d="M237.73609,185.04079l-0.06049,0.12878l-0.09234,-0.04337l0.06049,-0.12878z" stroke="#000000"/><path d="M238.07372,185.19936l-0.06048,0.12878l-0.09234,-0.04337l0.06048,-0.12878z" stroke="#000000"/><path d="M237.59592,184.97497l-0.06048,0.12879l-0.05345,-0.0251l0.06048,-0.12878z" stroke="#000000"/><path d="M238.17499,185.24694l-0.06048,0.12878l-0.05345,-0.0251l0.06049,-0.12878z" stroke="#000000"/><path d="M237.83396,185.30112l-0.06048,0.12878l-0.118,-0.05541l0.06048,-0.12879z" stroke="#000000"/><path d="M237.6536,185.21642l-0.06048,0.12878l-0.09234,-0.04337l0.06048,-0.12877z" stroke="#000000"/><path d="M237.99124,185.37499l-0.06048,0.12878l-0.09234,-0.04337l0.06049,-0.12879z" stroke="#000000"/><path d="M237.51344,185.15058l-0.06049,0.12878l-0.05345,-0.02509l0.06049,-0.12879z" stroke="#000000"/><path d="M238.09251,185.42254l-0.06048,0.12878l-0.05345,-0.0251l0.06049,-0.12878z" stroke="#000000"/></g></g><g><path d="M241.72219,168.43801c0,0 -2.5235,-0.16074 -5.28454,2.14051c-2.70369,2.25346 -2.65047,5.74493 -2.65047,5.74493h-0.87615c0,0 -0.24218,-4.09271 2.89404,-6.44678c3.37488,-2.90131 5.97912,-2.32909 5.97912,-2.32909z" data-paper-data="{&quot;index&quot;:null}" fill="#000000" stroke="#000000" stroke-width="0.25" stroke-linecap="butt"/><g data-paper-data="{&quot;index&quot;:null}" stroke-width="0" stroke-linecap="butt"><path d="M234.6126,170.56255l-0.68205,-0.70022l0.5642,-0.54957l0.68206,0.70022z" fill="url(#color-101)" stroke="#000000"/><path d="M234.63571,170.82311l-0.18155,-0.18639l0.79593,-0.77528l0.18156,0.18638z" fill="url(#color-102)" stroke="none"/><path d="M234.93642,170.47622l-0.12758,-0.13098l0.13754,-0.13397l0.12758,0.13098z" fill="url(#color-103)" stroke="#000000"/><path d="M234.75606,170.65191l-0.12758,-0.13098l0.10764,-0.10485l0.12758,0.13097z" fill="url(#color-104)" stroke="#000000"/><path d="M235.14966,170.2685l-0.12758,-0.13098l0.10764,-0.10485l0.12758,0.13098z" fill="url(#color-105)" stroke="#000000"/><path d="M234.63801,170.76688l-0.12758,-0.13098l0.06231,-0.06069l0.12758,0.13098z" fill="url(#color-106)" stroke="#000000"/><path d="M235.31304,170.10937l-0.12758,-0.13098l0.06231,-0.06069l0.12758,0.13098z" fill="url(#color-107)" stroke="#000000"/><path d="M234.53727,170.55575l-0.0736,-0.07555l0.62968,-0.61335l0.0736,0.07555z" fill="url(#color-108)" stroke="#000000"/><path d="M233.93412,169.9063l-0.05398,-0.05541l0.59946,-0.58392l0.05398,0.05541z" fill="url(#color-109)" stroke="#000000"/><path d="M234.71362,170.20239l-0.09928,-0.10191l0.09338,-0.09097l0.09928,0.10192z" fill="url(#color-110)" stroke="#000000"/><path d="M234.5912,170.32165l-0.09928,-0.10192l0.07307,-0.07119l0.09928,0.10191z" fill="url(#color-111)" stroke="#000000"/><path d="M234.85841,170.06137l-0.09928,-0.10192l0.07308,-0.07119l0.09928,0.10192z" fill="url(#color-112)" stroke="#000000"/><path d="M234.51105,170.39967l-0.09928,-0.10192l0.0423,-0.0412l0.09928,0.10192z" fill="url(#color-113)" stroke="#000000"/><path d="M234.96932,169.95331l-0.09928,-0.10192l0.0423,-0.04119l0.09928,0.10191z" fill="url(#color-114)" stroke="#000000"/><path d="M234.57824,170.06341l-0.09928,-0.10191l0.09338,-0.09096l0.09928,0.10192z" fill="url(#color-115)" stroke="#000000"/><path d="M234.45582,170.18265l-0.09928,-0.10192l0.07307,-0.07118l0.09928,0.10191z" fill="url(#color-116)" stroke="#000000"/><path d="M234.72302,169.92239l-0.09928,-0.10192l0.07308,-0.07119l0.09928,0.10192z" fill="url(#color-117)" stroke="#000000"/><path d="M234.37566,170.2607l-0.09928,-0.10192l0.0423,-0.0412l0.09928,0.10191z" fill="url(#color-118)" stroke="#000000"/><path d="M234.83394,169.81433l-0.09928,-0.10191l0.0423,-0.0412l0.09928,0.10192z" fill="url(#color-119)" stroke="#000000"/><path d="M234.44287,169.9244l-0.09927,-0.10191l0.09338,-0.09097l0.09928,0.10192z" fill="url(#color-120)" stroke="#000000"/><path d="M234.32044,170.04366l-0.09928,-0.10192l0.07308,-0.07118l0.09928,0.10191z" fill="url(#color-121)" stroke="#000000"/><path d="M234.58765,169.78341l-0.09928,-0.10191l0.07307,-0.07119l0.09928,0.10192z" fill="url(#color-122)" stroke="#000000"/><path d="M234.24029,170.12174l-0.09928,-0.10192l0.0423,-0.04119l0.09928,0.10191z" fill="url(#color-123)" stroke="#000000"/><path d="M234.69857,169.67536l-0.09928,-0.10192l0.0423,-0.0412l0.09928,0.10192z" fill="url(#color-124)" stroke="#000000"/><path d="M234.30749,169.78542l-0.09928,-0.10192l0.09339,-0.09096l0.09928,0.10191z" fill="url(#color-125)" stroke="#000000"/><path d="M234.18506,169.90469l-0.09928,-0.10192l0.07308,-0.07119l0.09928,0.10192z" fill="url(#color-126)" stroke="#000000"/><path d="M234.45227,169.6444l-0.09928,-0.10191l0.07307,-0.07119l0.09928,0.10191z" fill="url(#color-127)" stroke="#000000"/><path d="M234.10491,169.98276l-0.09928,-0.10191l0.0423,-0.0412l0.09928,0.10192z" fill="url(#color-128)" stroke="#000000"/><path d="M234.56319,169.53638l-0.09928,-0.10192l0.0423,-0.04119l0.09928,0.10191z" fill="url(#color-129)" stroke="#000000"/></g><g data-paper-data="{&quot;index&quot;:null}" stroke-width="0" stroke-linecap="butt"><path d="M232.79364,174.13705l-0.94217,-0.26042l0.20983,-0.75916l0.94217,0.26042z" fill="url(#color-130)" stroke="#000000"/><path d="M232.94505,174.35035l-0.25079,-0.06931l0.29602,-1.07095l0.25079,0.06932z" fill="url(#color-131)" stroke="none"/><path d="M233.02965,173.89914l-0.17623,-0.04871l0.05115,-0.18507l0.17623,0.04871z" fill="url(#color-132)" stroke="#000000"/><path d="M232.96257,174.1418l-0.17623,-0.04871l0.04003,-0.14484l0.17624,0.0487z" fill="url(#color-133)" stroke="#000000"/><path d="M233.10895,173.61223l-0.17623,-0.04871l0.04003,-0.14484l0.17623,0.04871z" fill="url(#color-134)" stroke="#000000"/><path d="M232.91866,174.30064l-0.17623,-0.04871l0.02318,-0.08383l0.17623,0.04871z" fill="url(#color-135)" stroke="#000000"/><path d="M233.16971,173.39239l-0.17624,-0.04871l0.02318,-0.08383l0.17623,0.04871z" fill="url(#color-136)" stroke="#000000"/><path d="M232.72517,174.16919l-0.10167,-0.0281l0.23418,-0.84726l0.10167,0.02809z" fill="url(#color-137)" stroke="#000000"/><path d="M231.87673,173.91283l-0.07456,-0.02061l0.22295,-0.80661l0.07456,0.02061z" fill="url(#color-138)" stroke="#000000"/><path d="M232.69912,173.77512l-0.13714,-0.0379l0.03473,-0.12565l0.13714,0.0379z" fill="url(#color-139)" stroke="#000000"/><path d="M232.65359,173.93987l-0.13714,-0.0379l0.02717,-0.09834l0.13714,0.0379z" fill="url(#color-140)" stroke="#000000"/><path d="M232.75297,173.58029l-0.13714,-0.0379l0.02717,-0.09833l0.13714,0.0379z" fill="url(#color-141)" stroke="#000000"/><path d="M232.62378,174.04768l-0.13714,-0.0379l0.01573,-0.05691l0.13714,0.0379z" fill="url(#color-142)" stroke="#000000"/><path d="M232.79422,173.43108l-0.13714,-0.0379l0.01574,-0.05692l0.13714,0.0379z" fill="url(#color-143)" stroke="#000000"/><path d="M232.51211,173.72345l-0.13714,-0.0379l0.03474,-0.12565l0.13714,0.0379z" fill="url(#color-144)" stroke="#000000"/><path d="M232.46658,173.88818l-0.13714,-0.0379l0.02717,-0.09833l0.13714,0.0379z" fill="url(#color-145)" stroke="#000000"/><path d="M232.56596,173.52861l-0.13714,-0.0379l0.02717,-0.09833l0.13714,0.0379z" fill="url(#color-146)" stroke="#000000"/><path d="M232.43677,173.99601l-0.13714,-0.0379l0.01574,-0.05692l0.13714,0.0379z" fill="url(#color-147)" stroke="#000000"/><path d="M232.60721,173.37936l-0.13714,-0.0379l0.01574,-0.05692l0.13714,0.0379z" fill="url(#color-148)" stroke="#000000"/><path d="M232.32511,173.67173l-0.13714,-0.0379l0.03473,-0.12566l0.13714,0.0379z" fill="url(#color-149)" stroke="#000000"/><path d="M232.27959,173.83647l-0.13714,-0.0379l0.02717,-0.09833l0.13714,0.0379z" fill="url(#color-150)" stroke="#000000"/><path d="M232.37896,173.47694l-0.13714,-0.0379l0.02717,-0.09833l0.13714,0.0379z" fill="url(#color-151)" stroke="#000000"/><path d="M232.24977,173.94433l-0.13714,-0.0379l0.01574,-0.05692l0.13714,0.0379z" fill="url(#color-152)" stroke="#000000"/><path d="M232.42021,173.32768l-0.13714,-0.0379l0.01574,-0.05692l0.13714,0.0379z" fill="url(#color-153)" stroke="#000000"/><path d="M232.1381,173.62004l-0.13714,-0.0379l0.03474,-0.12565l0.13714,0.0379z" fill="url(#color-154)" stroke="#000000"/><path d="M232.09258,173.78479l-0.13714,-0.0379l0.02717,-0.09833l0.13714,0.0379z" fill="url(#color-155)" stroke="#000000"/><path d="M232.19196,173.42527l-0.13714,-0.0379l0.02717,-0.09833l0.13714,0.0379z" fill="url(#color-156)" stroke="#000000"/><path d="M232.06276,173.89261l-0.13714,-0.0379l0.01573,-0.05692l0.13714,0.0379z" fill="url(#color-157)" stroke="#000000"/><path d="M232.2332,173.27601l-0.13714,-0.0379l0.01574,-0.05691l0.13714,0.0379z" fill="url(#color-158)" stroke="#000000"/></g><g data-paper-data="{&quot;index&quot;:null}" stroke-width="0" stroke-linecap="butt"><path d="M237.75551,168.15558l-0.41553,-0.88479l0.71292,-0.33482l0.41553,0.88478z" fill="url(#color-159)" stroke="#000000"/><path d="M237.69213,168.4094l-0.11061,-0.23551l1.00572,-0.47233l0.1106,0.23551z" fill="url(#color-160)" stroke="none"/><path d="M238.08975,168.17993l-0.07773,-0.1655l0.17379,-0.08163l0.07773,0.1655z" fill="url(#color-161)" stroke="#000000"/><path d="M237.86186,168.28694l-0.07773,-0.1655l0.13601,-0.06389l0.07774,0.1655z" fill="url(#color-162)" stroke="#000000"/><path d="M238.3592,168.05338l-0.07773,-0.1655l0.13602,-0.06388l0.07773,0.1655z" fill="url(#color-163)" stroke="#000000"/><path d="M237.71269,168.35699l-0.07773,-0.1655l0.07873,-0.03697l0.07772,0.1655z" fill="url(#color-164)" stroke="#000000"/><path d="M238.56565,167.95642l-0.07773,-0.1655l0.07873,-0.03697l0.07773,0.1655z" fill="url(#color-165)" stroke="#000000"/><path d="M237.68654,168.12452l-0.04485,-0.09547l0.79566,-0.37368l0.04484,0.09547z" fill="url(#color-166)" stroke="#000000"/><path d="M237.32897,167.31353l-0.03289,-0.07002l0.75747,-0.35575l0.03288,0.07002z" fill="url(#color-167)" stroke="#000000"/><path d="M237.96878,167.84827l-0.06049,-0.12878l0.118,-0.05542l0.06049,0.12878z" fill="url(#color-168)" stroke="#000000"/><path d="M237.81408,167.9209l-0.06048,-0.12878l0.09234,-0.04337l0.06048,0.12878z" fill="url(#color-169)" stroke="#000000"/><path d="M238.15172,167.76233l-0.06048,-0.12878l0.09234,-0.04337l0.06048,0.12878z" fill="url(#color-170)" stroke="#000000"/><path d="M237.71281,167.96845l-0.06048,-0.12878l0.05344,-0.02509l0.06049,0.12878z" fill="url(#color-171)" stroke="#000000"/><path d="M238.29187,167.6965l-0.06049,-0.12879l0.05345,-0.02509l0.06048,0.12878z" fill="url(#color-172)" stroke="#000000"/><path d="M237.88629,167.67266l-0.06048,-0.12879l0.118,-0.05541l0.06048,0.12878z" fill="url(#color-173)" stroke="#000000"/><path d="M237.7316,167.7453l-0.06048,-0.12878l0.09234,-0.04337l0.06048,0.12878z" fill="url(#color-174)" stroke="#000000"/><path d="M238.06924,167.58672l-0.06049,-0.12878l0.09234,-0.04337l0.06048,0.12878z" fill="url(#color-175)" stroke="#000000"/><path d="M237.63033,167.79285l-0.06049,-0.12878l0.05345,-0.0251l0.06049,0.12879z" fill="url(#color-176)" stroke="#000000"/><path d="M238.20939,167.52091l-0.06048,-0.12878l0.05345,-0.02509l0.06048,0.12877z" fill="url(#color-177)" stroke="#000000"/><path d="M237.80383,167.49703l-0.06049,-0.12878l0.118,-0.05542l0.06048,0.12878z" fill="url(#color-178)" stroke="#000000"/><path d="M237.64912,167.56971l-0.06049,-0.12878l0.09234,-0.04337l0.06049,0.12878z" fill="url(#color-179)" stroke="#000000"/><path d="M237.98676,167.41113l-0.06048,-0.12878l0.09234,-0.04337l0.06048,0.12878z" fill="url(#color-180)" stroke="#000000"/><path d="M237.54785,167.61725l-0.06048,-0.12878l0.05345,-0.0251l0.06048,0.12879z" fill="url(#color-181)" stroke="#000000"/><path d="M238.12692,167.3453l-0.06049,-0.12878l0.05345,-0.0251l0.06048,0.12878z" fill="url(#color-182)" stroke="#000000"/><path d="M237.72134,167.32141l-0.06048,-0.12879l0.118,-0.05541l0.06048,0.12878z" fill="url(#color-183)" stroke="#000000"/><path d="M237.56664,167.39409l-0.06048,-0.12877l0.09234,-0.04337l0.06048,0.12878z" fill="url(#color-184)" stroke="#000000"/><path d="M237.90429,167.23553l-0.06049,-0.12879l0.09234,-0.04337l0.06048,0.12878z" fill="url(#color-185)" stroke="#000000"/><path d="M237.46537,167.44165l-0.06049,-0.12879l0.05345,-0.02509l0.06049,0.12878z" fill="url(#color-186)" stroke="#000000"/><path d="M238.04444,167.16965l-0.06049,-0.12878l0.05345,-0.0251l0.06048,0.12878z" fill="url(#color-187)" stroke="#000000"/></g><path d="M233.74168,176.53577c0,-4.48828 3.30754,-8.03256 7.91818,-8.20018" fill="none" stroke="#ffffff" stroke-width="0.5" stroke-linecap="butt"/><path d="M234.03376,175.99519c0,0 0.21642,-2.84641 2.00379,-4.83718c1.80034,-2.00523 4.83872,-2.45418 4.83872,-2.45418" data-paper-data="{&quot;index&quot;:null}" fill="none" stroke="url(#color-188)" stroke-width="0.25" stroke-linecap="round"/><g data-paper-data="{&quot;index&quot;:null}" fill-opacity="0.68627" fill="#000000" stroke-width="0" stroke-linecap="butt"><path d="M234.60722,170.5582l-0.68205,-0.70022l0.5642,-0.54957l0.68206,0.70022z" stroke="#000000"/><path d="M234.63033,170.81876l-0.18155,-0.18639l0.79593,-0.77528l0.18156,0.18638z" stroke="none"/><path d="M234.93104,170.47187l-0.12758,-0.13098l0.13754,-0.13397l0.12758,0.13098z" stroke="#000000"/><path d="M234.75068,170.64755l-0.12758,-0.13098l0.10764,-0.10485l0.12758,0.13097z" stroke="#000000"/><path d="M235.14428,170.26415l-0.12758,-0.13098l0.10764,-0.10485l0.12758,0.13098z" stroke="#000000"/><path d="M234.63263,170.76253l-0.12758,-0.13098l0.06231,-0.06069l0.12758,0.13098z" stroke="#000000"/><path d="M235.30766,170.105l-0.12758,-0.13098l0.06231,-0.06069l0.12758,0.13098z" stroke="#000000"/><path d="M234.53189,170.5514l-0.0736,-0.07555l0.62968,-0.61335l0.0736,0.07555z" stroke="#000000"/><path d="M233.92874,169.90195l-0.05398,-0.05541l0.59946,-0.58392l0.05398,0.05541z" stroke="#000000"/><path d="M234.70824,170.19802l-0.09928,-0.10191l0.09338,-0.09097l0.09928,0.10192z" stroke="#000000"/><path d="M234.58582,170.31729l-0.09928,-0.10192l0.07307,-0.07119l0.09928,0.10191z" stroke="#000000"/><path d="M234.85303,170.057l-0.09928,-0.10192l0.07308,-0.07119l0.09928,0.10192z" stroke="#000000"/><path d="M234.50567,170.39532l-0.09928,-0.10192l0.0423,-0.0412l0.09928,0.10192z" stroke="#000000"/><path d="M234.96394,169.94896l-0.09928,-0.10192l0.0423,-0.04119l0.09928,0.10191z" stroke="#000000"/><path d="M234.57286,170.05905l-0.09928,-0.10191l0.09338,-0.09096l0.09928,0.10192z" stroke="#000000"/><path d="M234.45044,170.17829l-0.09928,-0.10192l0.07307,-0.07118l0.09928,0.10191z" stroke="#000000"/><path d="M234.71764,169.91802l-0.09928,-0.10192l0.07308,-0.07119l0.09928,0.10192z" stroke="#000000"/><path d="M234.37028,170.25635l-0.09928,-0.10192l0.0423,-0.0412l0.09928,0.10191z" stroke="#000000"/><path d="M234.82856,169.80998l-0.09928,-0.10191l0.0423,-0.0412l0.09928,0.10192z" stroke="#000000"/><path d="M234.43749,169.92005l-0.09927,-0.10191l0.09338,-0.09097l0.09928,0.10192z" stroke="#000000"/><path d="M234.31506,170.03931l-0.09928,-0.10192l0.07308,-0.07118l0.09928,0.10191z" stroke="#000000"/><path d="M234.58227,169.77905l-0.09928,-0.10191l0.07307,-0.07119l0.09928,0.10192z" stroke="#000000"/><path d="M234.23491,170.11739l-0.09928,-0.10192l0.0423,-0.04119l0.09928,0.10191z" stroke="#000000"/><path d="M234.69319,169.67099l-0.09928,-0.10192l0.0423,-0.0412l0.09928,0.10192z" stroke="#000000"/><path d="M234.30211,169.78107l-0.09928,-0.10192l0.09339,-0.09096l0.09928,0.10191z" stroke="#000000"/><path d="M234.17968,169.90034l-0.09928,-0.10192l0.07308,-0.07119l0.09928,0.10192z" stroke="#000000"/><path d="M234.44689,169.64005l-0.09928,-0.10191l0.07307,-0.07119l0.09928,0.10191z" stroke="#000000"/><path d="M234.09953,169.97841l-0.09928,-0.10191l0.0423,-0.0412l0.09928,0.10192z" stroke="#000000"/><path d="M234.55781,169.53201l-0.09928,-0.10192l0.0423,-0.04119l0.09928,0.10191z" stroke="#000000"/></g><g data-paper-data="{&quot;index&quot;:null}" fill-opacity="0.68627" fill="#000000" stroke-width="0" stroke-linecap="butt"><path d="M232.78826,174.1327l-0.94217,-0.26042l0.20983,-0.75916l0.94217,0.26042z" stroke="#000000"/><path d="M232.93967,174.346l-0.25079,-0.06931l0.29602,-1.07095l0.25079,0.06932z" stroke="none"/><path d="M233.02427,173.89479l-0.17623,-0.04871l0.05115,-0.18507l0.17623,0.04871z" stroke="#000000"/><path d="M232.95719,174.13745l-0.17623,-0.04871l0.04003,-0.14484l0.17624,0.0487z" stroke="#000000"/><path d="M233.10357,173.60786l-0.17623,-0.04871l0.04003,-0.14484l0.17623,0.04871z" stroke="#000000"/><path d="M232.91328,174.29629l-0.17623,-0.04871l0.02318,-0.08383l0.17623,0.04871z" stroke="#000000"/><path d="M233.16433,173.38803l-0.17624,-0.04871l0.02318,-0.08383l0.17623,0.04871z" stroke="#000000"/><path d="M232.71979,174.16484l-0.10167,-0.0281l0.23418,-0.84726l0.10167,0.02809z" stroke="#000000"/><path d="M231.87135,173.90846l-0.07456,-0.02061l0.22295,-0.80661l0.07456,0.02061z" stroke="#000000"/><path d="M232.69374,173.77077l-0.13714,-0.0379l0.03473,-0.12565l0.13714,0.0379z" stroke="#000000"/><path d="M232.64821,173.9355l-0.13714,-0.0379l0.02717,-0.09834l0.13714,0.0379z" stroke="#000000"/><path d="M232.74759,173.57594l-0.13714,-0.0379l0.02717,-0.09833l0.13714,0.0379z" stroke="#000000"/><path d="M232.6184,174.04333l-0.13714,-0.0379l0.01573,-0.05691l0.13714,0.0379z" stroke="#000000"/><path d="M232.78884,173.42671l-0.13714,-0.0379l0.01574,-0.05692l0.13714,0.0379z" stroke="#000000"/><path d="M232.50673,173.71908l-0.13714,-0.0379l0.03474,-0.12565l0.13714,0.0379z" stroke="#000000"/><path d="M232.4612,173.88382l-0.13714,-0.0379l0.02717,-0.09833l0.13714,0.0379z" stroke="#000000"/><path d="M232.56058,173.52426l-0.13714,-0.0379l0.02717,-0.09833l0.13714,0.0379z" stroke="#000000"/><path d="M232.43139,173.99164l-0.13714,-0.0379l0.01574,-0.05692l0.13714,0.0379z" stroke="#000000"/><path d="M232.60183,173.37501l-0.13714,-0.0379l0.01574,-0.05692l0.13714,0.0379z" stroke="#000000"/><path d="M232.31973,173.66737l-0.13714,-0.0379l0.03473,-0.12566l0.13714,0.0379z" stroke="#000000"/><path d="M232.27421,173.83212l-0.13714,-0.0379l0.02717,-0.09833l0.13714,0.0379z" stroke="#000000"/><path d="M232.37358,173.47259l-0.13714,-0.0379l0.02717,-0.09833l0.13714,0.0379z" stroke="#000000"/><path d="M232.24439,173.93996l-0.13714,-0.0379l0.01574,-0.05692l0.13714,0.0379z" stroke="#000000"/><path d="M232.41483,173.32333l-0.13714,-0.0379l0.01574,-0.05692l0.13714,0.0379z" stroke="#000000"/><path d="M232.13272,173.61569l-0.13714,-0.0379l0.03474,-0.12565l0.13714,0.0379z" stroke="#000000"/><path d="M232.0872,173.78044l-0.13714,-0.0379l0.02717,-0.09833l0.13714,0.0379z" stroke="#000000"/><path d="M232.18658,173.4209l-0.13714,-0.0379l0.02717,-0.09833l0.13714,0.0379z" stroke="#000000"/><path d="M232.05738,173.88826l-0.13714,-0.0379l0.01573,-0.05692l0.13714,0.0379z" stroke="#000000"/><path d="M232.22782,173.27164l-0.13714,-0.0379l0.01574,-0.05691l0.13714,0.0379z" stroke="#000000"/></g><g data-paper-data="{&quot;index&quot;:null}" fill-opacity="0.68627" fill="#000000" stroke-width="0" stroke-linecap="butt"><path d="M237.75013,168.15123l-0.41553,-0.88479l0.71292,-0.33482l0.41553,0.88478z" stroke="#000000"/><path d="M237.68675,168.40504l-0.11061,-0.23551l1.00572,-0.47233l0.1106,0.23551z" stroke="none"/><path d="M238.08437,168.17556l-0.07773,-0.1655l0.17379,-0.08163l0.07773,0.1655z" stroke="#000000"/><path d="M237.85648,168.28259l-0.07773,-0.1655l0.13601,-0.06389l0.07774,0.1655z" stroke="#000000"/><path d="M238.35382,168.04902l-0.07773,-0.1655l0.13602,-0.06388l0.07773,0.1655z" stroke="#000000"/><path d="M237.70731,168.35263l-0.07773,-0.1655l0.07873,-0.03697l0.07772,0.1655z" stroke="#000000"/><path d="M238.56027,167.95205l-0.07773,-0.1655l0.07873,-0.03697l0.07773,0.1655z" stroke="#000000"/><path d="M237.68116,168.12017l-0.04485,-0.09547l0.79566,-0.37368l0.04484,0.09547z" stroke="#000000"/><path d="M237.32359,167.30918l-0.03289,-0.07002l0.75747,-0.35575l0.03288,0.07002z" stroke="#000000"/><path d="M237.9634,167.84392l-0.06049,-0.12878l0.118,-0.05542l0.06049,0.12878z" stroke="#000000"/><path d="M237.8087,167.91655l-0.06048,-0.12878l0.09234,-0.04337l0.06048,0.12878z" stroke="#000000"/><path d="M238.14634,167.75798l-0.06048,-0.12878l0.09234,-0.04337l0.06048,0.12878z" stroke="#000000"/><path d="M237.70743,167.9641l-0.06048,-0.12878l0.05344,-0.02509l0.06049,0.12878z" stroke="#000000"/><path d="M238.28649,167.69215l-0.06049,-0.12879l0.05345,-0.02509l0.06048,0.12878z" stroke="#000000"/><path d="M237.88091,167.66829l-0.06048,-0.12879l0.118,-0.05541l0.06048,0.12878z" stroke="#000000"/><path d="M237.72622,167.74095l-0.06048,-0.12878l0.09234,-0.04337l0.06048,0.12878z" stroke="#000000"/><path d="M238.06386,167.58237l-0.06049,-0.12878l0.09234,-0.04337l0.06048,0.12878z" stroke="#000000"/><path d="M237.62495,167.7885l-0.06049,-0.12878l0.05345,-0.0251l0.06049,0.12879z" stroke="#000000"/><path d="M238.20401,167.51655l-0.06048,-0.12878l0.05345,-0.02509l0.06048,0.12877z" stroke="#000000"/><path d="M237.79845,167.49267l-0.06049,-0.12878l0.118,-0.05542l0.06048,0.12878z" stroke="#000000"/><path d="M237.64374,167.56535l-0.06049,-0.12878l0.09234,-0.04337l0.06049,0.12878z" stroke="#000000"/><path d="M237.98138,167.40678l-0.06048,-0.12878l0.09234,-0.04337l0.06048,0.12878z" stroke="#000000"/><path d="M237.54247,167.6129l-0.06048,-0.12878l0.05345,-0.0251l0.06048,0.12879z" stroke="#000000"/><path d="M238.12154,167.34093l-0.06049,-0.12878l0.05345,-0.0251l0.06048,0.12878z" stroke="#000000"/><path d="M237.71596,167.31706l-0.06048,-0.12879l0.118,-0.05541l0.06048,0.12878z" stroke="#000000"/><path d="M237.56126,167.38973l-0.06048,-0.12877l0.09234,-0.04337l0.06048,0.12878z" stroke="#000000"/><path d="M237.89891,167.23116l-0.06049,-0.12879l0.09234,-0.04337l0.06048,0.12878z" stroke="#000000"/><path d="M237.45999,167.43728l-0.06049,-0.12879l0.05345,-0.02509l0.06049,0.12878z" stroke="#000000"/><path d="M238.03906,167.1653l-0.06049,-0.12878l0.05345,-0.0251l0.06048,0.12878z" stroke="#000000"/></g></g></g></g></svg>