<svg version="1.1" xmlns="http://www.w3.org/2000/svg" xmlns:xlink="http://www.w3.org/1999/xlink" width="26.98292" height="26.98292" viewBox="0,0,26.98292,26.98292"><defs><radialGradient cx="239.99999" cy="180.00001" r="13.49146" gradientUnits="userSpaceOnUse" id="color-1"><stop offset="0" stop-color="#525887" stop-opacity="0.35417"/><stop offset="1" stop-color="#525887" stop-opacity="0"/></radialGradient><radialGradient cx="239.99999" cy="180.00001" r="10.95311" gradientUnits="userSpaceOnUse" id="color-2"><stop offset="0" stop-color="#7e90eb" stop-opacity="0.67834"/><stop offset="1" stop-color="#7e90eb" stop-opacity="0"/></radialGradient><radialGradient cx="239.99999" cy="180.00001" r="9.27271" gradientUnits="userSpaceOnUse" id="color-3"><stop offset="0" stop-color="#9bc8ff"/><stop offset="1" stop-color="#9bc8ff" stop-opacity="0"/></radialGradient><radialGradient cx="239.99999" cy="180.00001" r="7.62499" gradientUnits="userSpaceOnUse" id="color-4"><stop offset="0" stop-color="#1b76ff"/><stop offset="1" stop-color="#4a89ff"/></radialGradient><linearGradient x1="227.51916" y1="184.15526" x2="227.23237" y2="183.11769" gradientUnits="userSpaceOnUse" id="color-5"><stop offset="0" stop-color="#7b6f80"/><stop offset="1" stop-color="#382c3f"/></linearGradient><linearGradient x1="228.31637" y1="184.1593" x2="227.91179" y2="182.69558" gradientUnits="userSpaceOnUse" id="color-6"><stop offset="0" stop-color="#ababab"/><stop offset="1" stop-color="#7e7e7e"/></linearGradient><linearGradient x1="228.14827" y1="183.55116" x2="228.07836" y2="183.2982" gradientUnits="userSpaceOnUse" id="color-7"><stop offset="0" stop-color="#323232"/><stop offset="1" stop-color="#232323"/></linearGradient><linearGradient x1="228.04139" y1="183.16453" x2="227.98668" y2="182.96654" gradientUnits="userSpaceOnUse" id="color-8"><stop offset="0" stop-color="#272727"/><stop offset="1" stop-color="#191919"/></linearGradient><linearGradient x1="228.24147" y1="183.88833" x2="228.18676" y2="183.6904" gradientUnits="userSpaceOnUse" id="color-9"><stop offset="0" stop-color="#393939"/><stop offset="1" stop-color="#323232"/></linearGradient><linearGradient x1="227.95834" y1="182.86399" x2="227.92669" y2="182.74944" gradientUnits="userSpaceOnUse" id="color-10"><stop offset="0" stop-color="#1f1f1f"/><stop offset="1" stop-color="#191919"/></linearGradient><linearGradient x1="228.30147" y1="184.10543" x2="228.2698" y2="183.99087" gradientUnits="userSpaceOnUse" id="color-11"><stop offset="0" stop-color="#515151"/><stop offset="1" stop-color="#3d3d3d"/></linearGradient><linearGradient x1="228.03326" y1="184.07301" x2="227.71316" y2="182.91501" gradientUnits="userSpaceOnUse" id="color-12"><stop offset="0" stop-color="#4b00bb"/><stop offset="1" stop-color="#30004f"/></linearGradient><linearGradient x1="226.8768" y1="184.36278" x2="226.57208" y2="183.26034" gradientUnits="userSpaceOnUse" id="color-13"><stop offset="0" stop-color="#4b00ba"/><stop offset="1" stop-color="#300050"/></linearGradient><linearGradient x1="227.70079" y1="183.63206" x2="227.65333" y2="183.46035" gradientUnits="userSpaceOnUse" id="color-14"><stop offset="0" stop-color="#806f89"/><stop offset="1" stop-color="#685473"/></linearGradient><linearGradient x1="227.62824" y1="183.36956" x2="227.59109" y2="183.23518" gradientUnits="userSpaceOnUse" id="color-15"><stop offset="0" stop-color="#6a5675"/><stop offset="1" stop-color="#5c4768"/></linearGradient><linearGradient x1="227.76406" y1="183.86103" x2="227.72691" y2="183.72656" gradientUnits="userSpaceOnUse" id="color-16"><stop offset="0" stop-color="#97899e"/><stop offset="1" stop-color="#7f6e88"/></linearGradient><linearGradient x1="227.57185" y1="183.16556" x2="227.55036" y2="183.08781" gradientUnits="userSpaceOnUse" id="color-17"><stop offset="0" stop-color="#544c58"/><stop offset="1" stop-color="#4d3b58"/></linearGradient><linearGradient x1="227.80479" y1="184.00839" x2="227.7833" y2="183.93055" gradientUnits="userSpaceOnUse" id="color-18"><stop offset="0" stop-color="#a594ac"/><stop offset="1" stop-color="#96889d"/></linearGradient><linearGradient x1="227.4452" y1="183.7027" x2="227.39775" y2="183.53098" gradientUnits="userSpaceOnUse" id="color-19"><stop offset="0" stop-color="#806f89"/><stop offset="1" stop-color="#685473"/></linearGradient><linearGradient x1="227.37265" y1="183.44021" x2="227.3355" y2="183.30583" gradientUnits="userSpaceOnUse" id="color-20"><stop offset="0" stop-color="#6a5675"/><stop offset="1" stop-color="#5c4768"/></linearGradient><linearGradient x1="227.50848" y1="183.93165" x2="227.47132" y2="183.79725" gradientUnits="userSpaceOnUse" id="color-21"><stop offset="0" stop-color="#97899e"/><stop offset="1" stop-color="#7f6e88"/></linearGradient><linearGradient x1="227.31627" y1="183.23624" x2="227.29476" y2="183.15843" gradientUnits="userSpaceOnUse" id="color-22"><stop offset="0" stop-color="#544c58"/><stop offset="1" stop-color="#4d3b58"/></linearGradient><linearGradient x1="227.54921" y1="184.07901" x2="227.52771" y2="184.00126" gradientUnits="userSpaceOnUse" id="color-23"><stop offset="0" stop-color="#a594ac"/><stop offset="1" stop-color="#96889d"/></linearGradient><linearGradient x1="227.1896" y1="183.77339" x2="227.14215" y2="183.60167" gradientUnits="userSpaceOnUse" id="color-24"><stop offset="0" stop-color="#806f89"/><stop offset="1" stop-color="#685473"/></linearGradient><linearGradient x1="227.11705" y1="183.51088" x2="227.0799" y2="183.37649" gradientUnits="userSpaceOnUse" id="color-25"><stop offset="0" stop-color="#6a5675"/><stop offset="1" stop-color="#5c4768"/></linearGradient><linearGradient x1="227.25288" y1="184.00227" x2="227.21575" y2="183.86789" gradientUnits="userSpaceOnUse" id="color-26"><stop offset="0" stop-color="#97899e"/><stop offset="1" stop-color="#7f6e88"/></linearGradient><linearGradient x1="227.06067" y1="183.30688" x2="227.03917" y2="183.22907" gradientUnits="userSpaceOnUse" id="color-27"><stop offset="0" stop-color="#544c58"/><stop offset="1" stop-color="#4d3b58"/></linearGradient><linearGradient x1="227.29361" y1="184.14966" x2="227.27211" y2="184.07189" gradientUnits="userSpaceOnUse" id="color-28"><stop offset="0" stop-color="#a594ac"/><stop offset="1" stop-color="#96889d"/></linearGradient><linearGradient x1="226.934" y1="183.84402" x2="226.88655" y2="183.6723" gradientUnits="userSpaceOnUse" id="color-29"><stop offset="0" stop-color="#806f89"/><stop offset="1" stop-color="#685473"/></linearGradient><linearGradient x1="226.86145" y1="183.58152" x2="226.8243" y2="183.44714" gradientUnits="userSpaceOnUse" id="color-30"><stop offset="0" stop-color="#6a5675"/><stop offset="1" stop-color="#5c4768"/></linearGradient><linearGradient x1="226.99728" y1="184.0729" x2="226.96013" y2="183.93851" gradientUnits="userSpaceOnUse" id="color-31"><stop offset="0" stop-color="#97899e"/><stop offset="1" stop-color="#7f6e88"/></linearGradient><linearGradient x1="226.80507" y1="183.3775" x2="226.78357" y2="183.29975" gradientUnits="userSpaceOnUse" id="color-32"><stop offset="0" stop-color="#544c58"/><stop offset="1" stop-color="#4d3b58"/></linearGradient><linearGradient x1="227.03803" y1="184.22032" x2="227.01653" y2="184.14253" gradientUnits="userSpaceOnUse" id="color-33"><stop offset="0" stop-color="#a594ac"/><stop offset="1" stop-color="#96889d"/></linearGradient><linearGradient x1="230.66738" y1="189.05494" x2="229.89623" y2="188.30378" gradientUnits="userSpaceOnUse" id="color-34"><stop offset="0" stop-color="#7b6f80"/><stop offset="1" stop-color="#382c3f"/></linearGradient><linearGradient x1="231.35769" y1="188.65614" x2="230.26985" y2="187.59653" gradientUnits="userSpaceOnUse" id="color-35"><stop offset="0" stop-color="#ababab"/><stop offset="1" stop-color="#7e7e7e"/></linearGradient><linearGradient x1="230.90573" y1="188.21591" x2="230.71774" y2="188.03281" gradientUnits="userSpaceOnUse" id="color-36"><stop offset="0" stop-color="#323232"/><stop offset="1" stop-color="#232323"/></linearGradient><linearGradient x1="230.61836" y1="187.93603" x2="230.47123" y2="187.79269" gradientUnits="userSpaceOnUse" id="color-37"><stop offset="0" stop-color="#272727"/><stop offset="1" stop-color="#191919"/></linearGradient><linearGradient x1="231.15631" y1="188.45998" x2="231.00919" y2="188.31666" gradientUnits="userSpaceOnUse" id="color-38"><stop offset="0" stop-color="#393939"/><stop offset="1" stop-color="#323232"/></linearGradient><linearGradient x1="230.39505" y1="187.71845" x2="230.30989" y2="187.6355" gradientUnits="userSpaceOnUse" id="color-39"><stop offset="0" stop-color="#1f1f1f"/><stop offset="1" stop-color="#191919"/></linearGradient><linearGradient x1="231.31766" y1="188.61717" x2="231.23251" y2="188.53422" gradientUnits="userSpaceOnUse" id="color-40"><stop offset="0" stop-color="#515151"/><stop offset="1" stop-color="#3d3d3d"/></linearGradient><linearGradient x1="231.06973" y1="188.72453" x2="230.20908" y2="187.88621" gradientUnits="userSpaceOnUse" id="color-41"><stop offset="0" stop-color="#4b00bb"/><stop offset="1" stop-color="#30004f"/></linearGradient><linearGradient x1="230.21746" y1="189.55818" x2="229.39812" y2="188.76006" gradientUnits="userSpaceOnUse" id="color-42"><stop offset="0" stop-color="#4b00ba"/><stop offset="1" stop-color="#300050"/></linearGradient><linearGradient x1="230.56021" y1="188.51156" x2="230.43258" y2="188.38725" gradientUnits="userSpaceOnUse" id="color-43"><stop offset="0" stop-color="#806f89"/><stop offset="1" stop-color="#685473"/></linearGradient><linearGradient x1="230.36511" y1="188.32154" x2="230.26524" y2="188.22424" gradientUnits="userSpaceOnUse" id="color-44"><stop offset="0" stop-color="#6a5675"/><stop offset="1" stop-color="#5c4768"/></linearGradient><linearGradient x1="230.73033" y1="188.6773" x2="230.63044" y2="188.57998" gradientUnits="userSpaceOnUse" id="color-45"><stop offset="0" stop-color="#97899e"/><stop offset="1" stop-color="#7f6e88"/></linearGradient><linearGradient x1="230.21351" y1="188.17383" x2="230.1557" y2="188.11752" gradientUnits="userSpaceOnUse" id="color-46"><stop offset="0" stop-color="#544c58"/><stop offset="1" stop-color="#4d3b58"/></linearGradient><linearGradient x1="230.83986" y1="188.784" x2="230.78205" y2="188.72762" gradientUnits="userSpaceOnUse" id="color-47"><stop offset="0" stop-color="#a594ac"/><stop offset="1" stop-color="#96889d"/></linearGradient><linearGradient x1="230.37519" y1="188.70152" x2="230.24756" y2="188.57719" gradientUnits="userSpaceOnUse" id="color-48"><stop offset="0" stop-color="#806f89"/><stop offset="1" stop-color="#685473"/></linearGradient><linearGradient x1="230.18009" y1="188.51148" x2="230.08022" y2="188.41418" gradientUnits="userSpaceOnUse" id="color-49"><stop offset="0" stop-color="#6a5675"/><stop offset="1" stop-color="#5c4768"/></linearGradient><linearGradient x1="230.54531" y1="188.86722" x2="230.44541" y2="188.76994" gradientUnits="userSpaceOnUse" id="color-50"><stop offset="0" stop-color="#97899e"/><stop offset="1" stop-color="#7f6e88"/></linearGradient><linearGradient x1="230.02849" y1="188.36377" x2="229.97066" y2="188.30747" gradientUnits="userSpaceOnUse" id="color-51"><stop offset="0" stop-color="#544c58"/><stop offset="1" stop-color="#4d3b58"/></linearGradient><linearGradient x1="230.65484" y1="188.97393" x2="230.59703" y2="188.91759" gradientUnits="userSpaceOnUse" id="color-52"><stop offset="0" stop-color="#a594ac"/><stop offset="1" stop-color="#96889d"/></linearGradient><linearGradient x1="230.19015" y1="188.89147" x2="230.06252" y2="188.76714" gradientUnits="userSpaceOnUse" id="color-53"><stop offset="0" stop-color="#806f89"/><stop offset="1" stop-color="#685473"/></linearGradient><linearGradient x1="229.99506" y1="188.70142" x2="229.89519" y2="188.60413" gradientUnits="userSpaceOnUse" id="color-54"><stop offset="0" stop-color="#6a5675"/><stop offset="1" stop-color="#5c4768"/></linearGradient><linearGradient x1="230.36027" y1="189.05718" x2="230.26039" y2="188.95988" gradientUnits="userSpaceOnUse" id="color-55"><stop offset="0" stop-color="#97899e"/><stop offset="1" stop-color="#7f6e88"/></linearGradient><linearGradient x1="229.84346" y1="188.55374" x2="229.78564" y2="188.49742" gradientUnits="userSpaceOnUse" id="color-56"><stop offset="0" stop-color="#544c58"/><stop offset="1" stop-color="#4d3b58"/></linearGradient><linearGradient x1="230.46981" y1="189.16388" x2="230.41199" y2="189.10757" gradientUnits="userSpaceOnUse" id="color-57"><stop offset="0" stop-color="#a594ac"/><stop offset="1" stop-color="#96889d"/></linearGradient><linearGradient x1="230.00512" y1="189.08143" x2="229.87749" y2="188.95708" gradientUnits="userSpaceOnUse" id="color-58"><stop offset="0" stop-color="#806f89"/><stop offset="1" stop-color="#685473"/></linearGradient><linearGradient x1="229.81002" y1="188.89136" x2="229.71014" y2="188.7941" gradientUnits="userSpaceOnUse" id="color-59"><stop offset="0" stop-color="#6a5675"/><stop offset="1" stop-color="#5c4768"/></linearGradient><linearGradient x1="230.17524" y1="189.24712" x2="230.07536" y2="189.14983" gradientUnits="userSpaceOnUse" id="color-60"><stop offset="0" stop-color="#97899e"/><stop offset="1" stop-color="#7f6e88"/></linearGradient><linearGradient x1="229.65841" y1="188.74372" x2="229.60061" y2="188.68738" gradientUnits="userSpaceOnUse" id="color-61"><stop offset="0" stop-color="#544c58"/><stop offset="1" stop-color="#4d3b58"/></linearGradient><linearGradient x1="230.28477" y1="189.35384" x2="230.22697" y2="189.29753" gradientUnits="userSpaceOnUse" id="color-62"><stop offset="0" stop-color="#a594ac"/><stop offset="1" stop-color="#96889d"/></linearGradient><linearGradient x1="235.34842" y1="192.17734" x2="234.37402" y2="191.71971" gradientUnits="userSpaceOnUse" id="color-63"><stop offset="0" stop-color="#7b6f80"/><stop offset="1" stop-color="#382c3f"/></linearGradient><linearGradient x1="235.87036" y1="191.57472" x2="234.49577" y2="190.92914" gradientUnits="userSpaceOnUse" id="color-64"><stop offset="0" stop-color="#ababab"/><stop offset="1" stop-color="#7e7e7e"/></linearGradient><linearGradient x1="235.29924" y1="191.30647" x2="235.06171" y2="191.19495" gradientUnits="userSpaceOnUse" id="color-65"><stop offset="0" stop-color="#323232"/><stop offset="1" stop-color="#232323"/></linearGradient><linearGradient x1="234.93614" y1="191.13599" x2="234.75023" y2="191.04863" gradientUnits="userSpaceOnUse" id="color-66"><stop offset="0" stop-color="#272727"/><stop offset="1" stop-color="#191919"/></linearGradient><linearGradient x1="235.61588" y1="191.45517" x2="235.42999" y2="191.3679" gradientUnits="userSpaceOnUse" id="color-67"><stop offset="0" stop-color="#393939"/><stop offset="1" stop-color="#323232"/></linearGradient><linearGradient x1="234.65396" y1="191.00344" x2="234.54637" y2="190.9529" gradientUnits="userSpaceOnUse" id="color-68"><stop offset="0" stop-color="#1f1f1f"/><stop offset="1" stop-color="#191919"/></linearGradient><linearGradient x1="235.81975" y1="191.55096" x2="235.71216" y2="191.50043" gradientUnits="userSpaceOnUse" id="color-69"><stop offset="0" stop-color="#515151"/><stop offset="1" stop-color="#3d3d3d"/></linearGradient><linearGradient x1="235.62058" y1="191.73346" x2="234.53308" y2="191.22275" gradientUnits="userSpaceOnUse" id="color-70"><stop offset="0" stop-color="#4b00bb"/><stop offset="1" stop-color="#30004f"/></linearGradient><linearGradient x1="235.08783" y1="192.80003" x2="234.05254" y2="192.31381" gradientUnits="userSpaceOnUse" id="color-71"><stop offset="0" stop-color="#4b00ba"/><stop offset="1" stop-color="#300050"/></linearGradient><linearGradient x1="235.06942" y1="191.69887" x2="234.90817" y2="191.62315" gradientUnits="userSpaceOnUse" id="color-72"><stop offset="0" stop-color="#806f89"/><stop offset="1" stop-color="#685473"/></linearGradient><linearGradient x1="234.82292" y1="191.58308" x2="234.6967" y2="191.52383" gradientUnits="userSpaceOnUse" id="color-73"><stop offset="0" stop-color="#6a5675"/><stop offset="1" stop-color="#5c4768"/></linearGradient><linearGradient x1="235.2844" y1="191.79983" x2="235.15818" y2="191.74057" gradientUnits="userSpaceOnUse" id="color-74"><stop offset="0" stop-color="#97899e"/><stop offset="1" stop-color="#7f6e88"/></linearGradient><linearGradient x1="234.63134" y1="191.49311" x2="234.5583" y2="191.45884" gradientUnits="userSpaceOnUse" id="color-75"><stop offset="0" stop-color="#544c58"/><stop offset="1" stop-color="#4d3b58"/></linearGradient><linearGradient x1="235.42281" y1="191.86488" x2="235.34974" y2="191.83052" gradientUnits="userSpaceOnUse" id="color-76"><stop offset="0" stop-color="#a594ac"/><stop offset="1" stop-color="#96889d"/></linearGradient><linearGradient x1="234.9567" y1="191.93892" x2="234.79545" y2="191.86317" gradientUnits="userSpaceOnUse" id="color-77"><stop offset="0" stop-color="#806f89"/><stop offset="1" stop-color="#685473"/></linearGradient><linearGradient x1="234.71019" y1="191.82314" x2="234.58399" y2="191.76382" gradientUnits="userSpaceOnUse" id="color-78"><stop offset="0" stop-color="#6a5675"/><stop offset="1" stop-color="#5c4768"/></linearGradient><linearGradient x1="235.17167" y1="192.03987" x2="235.04546" y2="191.98056" gradientUnits="userSpaceOnUse" id="color-79"><stop offset="0" stop-color="#97899e"/><stop offset="1" stop-color="#7f6e88"/></linearGradient><linearGradient x1="234.51862" y1="191.73313" x2="234.44557" y2="191.69883" gradientUnits="userSpaceOnUse" id="color-80"><stop offset="0" stop-color="#544c58"/><stop offset="1" stop-color="#4d3b58"/></linearGradient><linearGradient x1="235.31008" y1="192.10487" x2="235.23703" y2="192.07052" gradientUnits="userSpaceOnUse" id="color-81"><stop offset="0" stop-color="#a594ac"/><stop offset="1" stop-color="#96889d"/></linearGradient><linearGradient x1="234.84397" y1="192.17894" x2="234.68272" y2="192.10319" gradientUnits="userSpaceOnUse" id="color-82"><stop offset="0" stop-color="#806f89"/><stop offset="1" stop-color="#685473"/></linearGradient><linearGradient x1="234.59746" y1="192.06316" x2="234.47125" y2="192.00389" gradientUnits="userSpaceOnUse" id="color-83"><stop offset="0" stop-color="#6a5675"/><stop offset="1" stop-color="#5c4768"/></linearGradient><linearGradient x1="235.05893" y1="192.27989" x2="234.93273" y2="192.22057" gradientUnits="userSpaceOnUse" id="color-84"><stop offset="0" stop-color="#97899e"/><stop offset="1" stop-color="#7f6e88"/></linearGradient><linearGradient x1="234.40589" y1="191.97318" x2="234.33285" y2="191.93886" gradientUnits="userSpaceOnUse" id="color-85"><stop offset="0" stop-color="#544c58"/><stop offset="1" stop-color="#4d3b58"/></linearGradient><linearGradient x1="235.19735" y1="192.34489" x2="235.12429" y2="192.3106" gradientUnits="userSpaceOnUse" id="color-86"><stop offset="0" stop-color="#a594ac"/><stop offset="1" stop-color="#96889d"/></linearGradient><linearGradient x1="234.73124" y1="192.41893" x2="234.56997" y2="192.34318" gradientUnits="userSpaceOnUse" id="color-87"><stop offset="0" stop-color="#806f89"/><stop offset="1" stop-color="#685473"/></linearGradient><linearGradient x1="234.48473" y1="192.30316" x2="234.35853" y2="192.24391" gradientUnits="userSpaceOnUse" id="color-88"><stop offset="0" stop-color="#6a5675"/><stop offset="1" stop-color="#5c4768"/></linearGradient><linearGradient x1="234.9462" y1="192.5199" x2="234.82001" y2="192.46066" gradientUnits="userSpaceOnUse" id="color-89"><stop offset="0" stop-color="#97899e"/><stop offset="1" stop-color="#7f6e88"/></linearGradient><linearGradient x1="234.29316" y1="192.2132" x2="234.22012" y2="192.17891" gradientUnits="userSpaceOnUse" id="color-90"><stop offset="0" stop-color="#544c58"/><stop offset="1" stop-color="#4d3b58"/></linearGradient><linearGradient x1="235.08462" y1="192.58488" x2="235.01158" y2="192.55062" gradientUnits="userSpaceOnUse" id="color-91"><stop offset="0" stop-color="#a594ac"/><stop offset="1" stop-color="#96889d"/></linearGradient><radialGradient cx="232.50131" cy="187.10869" r="4.87767" gradientUnits="userSpaceOnUse" id="color-92"><stop offset="0" stop-color="#d699ff"/><stop offset="1" stop-color="#9966ff"/></radialGradient><linearGradient x1="230.66738" y1="170.95106" x2="229.89623" y2="171.70216" gradientUnits="userSpaceOnUse" id="color-93"><stop offset="0" stop-color="#7b6f80"/><stop offset="1" stop-color="#382c3f"/></linearGradient><linearGradient x1="231.35769" y1="171.34981" x2="230.26985" y2="172.40944" gradientUnits="userSpaceOnUse" id="color-94"><stop offset="0" stop-color="#ababab"/><stop offset="1" stop-color="#7e7e7e"/></linearGradient><linearGradient x1="230.90573" y1="171.79003" x2="230.71774" y2="171.97319" gradientUnits="userSpaceOnUse" id="color-95"><stop offset="0" stop-color="#323232"/><stop offset="1" stop-color="#232323"/></linearGradient><linearGradient x1="230.61836" y1="172.06995" x2="230.47123" y2="172.21331" gradientUnits="userSpaceOnUse" id="color-96"><stop offset="0" stop-color="#272727"/><stop offset="1" stop-color="#191919"/></linearGradient><linearGradient x1="231.15631" y1="171.54598" x2="231.00919" y2="171.68929" gradientUnits="userSpaceOnUse" id="color-97"><stop offset="0" stop-color="#393939"/><stop offset="1" stop-color="#323232"/></linearGradient><linearGradient x1="230.39505" y1="172.2875" x2="230.30989" y2="172.37047" gradientUnits="userSpaceOnUse" id="color-98"><stop offset="0" stop-color="#1f1f1f"/><stop offset="1" stop-color="#191919"/></linearGradient><linearGradient x1="231.31766" y1="171.38883" x2="231.23251" y2="171.47178" gradientUnits="userSpaceOnUse" id="color-99"><stop offset="0" stop-color="#515151"/><stop offset="1" stop-color="#3d3d3d"/></linearGradient><linearGradient x1="231.06973" y1="171.28147" x2="230.20908" y2="172.11979" gradientUnits="userSpaceOnUse" id="color-100"><stop offset="0" stop-color="#4b00bb"/><stop offset="1" stop-color="#30004f"/></linearGradient><linearGradient x1="230.21746" y1="170.44782" x2="229.39812" y2="171.24589" gradientUnits="userSpaceOnUse" id="color-101"><stop offset="0" stop-color="#4b00ba"/><stop offset="1" stop-color="#300050"/></linearGradient><linearGradient x1="230.56021" y1="171.49444" x2="230.43258" y2="171.61872" gradientUnits="userSpaceOnUse" id="color-102"><stop offset="0" stop-color="#806f89"/><stop offset="1" stop-color="#685473"/></linearGradient><linearGradient x1="230.36511" y1="171.68442" x2="230.26524" y2="171.78173" gradientUnits="userSpaceOnUse" id="color-103"><stop offset="0" stop-color="#6a5675"/><stop offset="1" stop-color="#5c4768"/></linearGradient><linearGradient x1="230.73033" y1="171.32868" x2="230.63044" y2="171.42602" gradientUnits="userSpaceOnUse" id="color-104"><stop offset="0" stop-color="#97899e"/><stop offset="1" stop-color="#7f6e88"/></linearGradient><linearGradient x1="230.21351" y1="171.83211" x2="230.1557" y2="171.88843" gradientUnits="userSpaceOnUse" id="color-105"><stop offset="0" stop-color="#544c58"/><stop offset="1" stop-color="#4d3b58"/></linearGradient><linearGradient x1="230.83986" y1="171.222" x2="230.78205" y2="171.27832" gradientUnits="userSpaceOnUse" id="color-106"><stop offset="0" stop-color="#a594ac"/><stop offset="1" stop-color="#96889d"/></linearGradient><linearGradient x1="230.37519" y1="171.30448" x2="230.24756" y2="171.42875" gradientUnits="userSpaceOnUse" id="color-107"><stop offset="0" stop-color="#806f89"/><stop offset="1" stop-color="#685473"/></linearGradient><linearGradient x1="230.18009" y1="171.49448" x2="230.08022" y2="171.59177" gradientUnits="userSpaceOnUse" id="color-108"><stop offset="0" stop-color="#6a5675"/><stop offset="1" stop-color="#5c4768"/></linearGradient><linearGradient x1="230.54531" y1="171.13878" x2="230.44541" y2="171.23606" gradientUnits="userSpaceOnUse" id="color-109"><stop offset="0" stop-color="#97899e"/><stop offset="1" stop-color="#7f6e88"/></linearGradient><linearGradient x1="230.02849" y1="171.64219" x2="229.97066" y2="171.69847" gradientUnits="userSpaceOnUse" id="color-110"><stop offset="0" stop-color="#544c58"/><stop offset="1" stop-color="#4d3b58"/></linearGradient><linearGradient x1="230.65484" y1="171.03207" x2="230.59703" y2="171.08838" gradientUnits="userSpaceOnUse" id="color-111"><stop offset="0" stop-color="#a594ac"/><stop offset="1" stop-color="#96889d"/></linearGradient><linearGradient x1="230.19015" y1="171.1145" x2="230.06252" y2="171.23881" gradientUnits="userSpaceOnUse" id="color-112"><stop offset="0" stop-color="#806f89"/><stop offset="1" stop-color="#685473"/></linearGradient><linearGradient x1="229.99506" y1="171.30452" x2="229.89519" y2="171.40183" gradientUnits="userSpaceOnUse" id="color-113"><stop offset="0" stop-color="#6a5675"/><stop offset="1" stop-color="#5c4768"/></linearGradient><linearGradient x1="230.36027" y1="170.94879" x2="230.26039" y2="171.04612" gradientUnits="userSpaceOnUse" id="color-114"><stop offset="0" stop-color="#97899e"/><stop offset="1" stop-color="#7f6e88"/></linearGradient><linearGradient x1="229.84346" y1="171.45223" x2="229.78564" y2="171.50853" gradientUnits="userSpaceOnUse" id="color-115"><stop offset="0" stop-color="#544c58"/><stop offset="1" stop-color="#4d3b58"/></linearGradient><linearGradient x1="230.46981" y1="170.84212" x2="230.41199" y2="170.89843" gradientUnits="userSpaceOnUse" id="color-116"><stop offset="0" stop-color="#a594ac"/><stop offset="1" stop-color="#96889d"/></linearGradient><linearGradient x1="230.00512" y1="170.92452" x2="229.87749" y2="171.04887" gradientUnits="userSpaceOnUse" id="color-117"><stop offset="0" stop-color="#806f89"/><stop offset="1" stop-color="#685473"/></linearGradient><linearGradient x1="229.81002" y1="171.11458" x2="229.71014" y2="171.21187" gradientUnits="userSpaceOnUse" id="color-118"><stop offset="0" stop-color="#6a5675"/><stop offset="1" stop-color="#5c4768"/></linearGradient><linearGradient x1="230.17524" y1="170.75883" x2="230.07536" y2="170.85611" gradientUnits="userSpaceOnUse" id="color-119"><stop offset="0" stop-color="#97899e"/><stop offset="1" stop-color="#7f6e88"/></linearGradient><linearGradient x1="229.65841" y1="171.26228" x2="229.60061" y2="171.31859" gradientUnits="userSpaceOnUse" id="color-120"><stop offset="0" stop-color="#544c58"/><stop offset="1" stop-color="#4d3b58"/></linearGradient><linearGradient x1="230.28477" y1="170.65214" x2="230.22697" y2="170.70847" gradientUnits="userSpaceOnUse" id="color-121"><stop offset="0" stop-color="#a594ac"/><stop offset="1" stop-color="#96889d"/></linearGradient><linearGradient x1="227.51916" y1="175.85068" x2="227.23237" y2="176.88825" gradientUnits="userSpaceOnUse" id="color-122"><stop offset="0" stop-color="#7b6f80"/><stop offset="1" stop-color="#382c3f"/></linearGradient><linearGradient x1="228.31637" y1="175.84665" x2="227.91179" y2="177.3104" gradientUnits="userSpaceOnUse" id="color-123"><stop offset="0" stop-color="#ababab"/><stop offset="1" stop-color="#7e7e7e"/></linearGradient><linearGradient x1="228.14827" y1="176.45478" x2="228.07836" y2="176.70774" gradientUnits="userSpaceOnUse" id="color-124"><stop offset="0" stop-color="#323232"/><stop offset="1" stop-color="#232323"/></linearGradient><linearGradient x1="228.04139" y1="176.84147" x2="227.98668" y2="177.03941" gradientUnits="userSpaceOnUse" id="color-125"><stop offset="0" stop-color="#272727"/><stop offset="1" stop-color="#191919"/></linearGradient><linearGradient x1="228.24147" y1="176.11761" x2="228.18676" y2="176.3156" gradientUnits="userSpaceOnUse" id="color-126"><stop offset="0" stop-color="#393939"/><stop offset="1" stop-color="#323232"/></linearGradient><linearGradient x1="227.95834" y1="177.14196" x2="227.92669" y2="177.25651" gradientUnits="userSpaceOnUse" id="color-127"><stop offset="0" stop-color="#1f1f1f"/><stop offset="1" stop-color="#191919"/></linearGradient><linearGradient x1="228.30147" y1="175.90051" x2="228.2698" y2="176.01513" gradientUnits="userSpaceOnUse" id="color-128"><stop offset="0" stop-color="#515151"/><stop offset="1" stop-color="#3d3d3d"/></linearGradient><linearGradient x1="228.03326" y1="175.93293" x2="227.71316" y2="177.09096" gradientUnits="userSpaceOnUse" id="color-129"><stop offset="0" stop-color="#4b00bb"/><stop offset="1" stop-color="#30004f"/></linearGradient><linearGradient x1="226.8768" y1="175.64322" x2="226.57208" y2="176.74566" gradientUnits="userSpaceOnUse" id="color-130"><stop offset="0" stop-color="#4b00ba"/><stop offset="1" stop-color="#300050"/></linearGradient><linearGradient x1="227.70079" y1="176.37388" x2="227.65333" y2="176.54559" gradientUnits="userSpaceOnUse" id="color-131"><stop offset="0" stop-color="#806f89"/><stop offset="1" stop-color="#685473"/></linearGradient><linearGradient x1="227.62824" y1="176.63639" x2="227.59109" y2="176.77077" gradientUnits="userSpaceOnUse" id="color-132"><stop offset="0" stop-color="#6a5675"/><stop offset="1" stop-color="#5c4768"/></linearGradient><linearGradient x1="227.76406" y1="176.14497" x2="227.72691" y2="176.2794" gradientUnits="userSpaceOnUse" id="color-133"><stop offset="0" stop-color="#97899e"/><stop offset="1" stop-color="#7f6e88"/></linearGradient><linearGradient x1="227.57185" y1="176.8404" x2="227.55036" y2="176.91816" gradientUnits="userSpaceOnUse" id="color-134"><stop offset="0" stop-color="#544c58"/><stop offset="1" stop-color="#4d3b58"/></linearGradient><linearGradient x1="227.80479" y1="175.99755" x2="227.7833" y2="176.07539" gradientUnits="userSpaceOnUse" id="color-135"><stop offset="0" stop-color="#a594ac"/><stop offset="1" stop-color="#96889d"/></linearGradient><linearGradient x1="227.4452" y1="176.30326" x2="227.39775" y2="176.47497" gradientUnits="userSpaceOnUse" id="color-136"><stop offset="0" stop-color="#806f89"/><stop offset="1" stop-color="#685473"/></linearGradient><linearGradient x1="227.37265" y1="176.56576" x2="227.3355" y2="176.70015" gradientUnits="userSpaceOnUse" id="color-137"><stop offset="0" stop-color="#6a5675"/><stop offset="1" stop-color="#5c4768"/></linearGradient><linearGradient x1="227.50848" y1="176.07433" x2="227.47132" y2="176.20875" gradientUnits="userSpaceOnUse" id="color-138"><stop offset="0" stop-color="#97899e"/><stop offset="1" stop-color="#7f6e88"/></linearGradient><linearGradient x1="227.31627" y1="176.76976" x2="227.29476" y2="176.84751" gradientUnits="userSpaceOnUse" id="color-139"><stop offset="0" stop-color="#544c58"/><stop offset="1" stop-color="#4d3b58"/></linearGradient><linearGradient x1="227.54921" y1="175.92693" x2="227.52771" y2="176.00474" gradientUnits="userSpaceOnUse" id="color-140"><stop offset="0" stop-color="#a594ac"/><stop offset="1" stop-color="#96889d"/></linearGradient><linearGradient x1="227.1896" y1="176.23261" x2="227.14215" y2="176.40433" gradientUnits="userSpaceOnUse" id="color-141"><stop offset="0" stop-color="#806f89"/><stop offset="1" stop-color="#685473"/></linearGradient><linearGradient x1="227.11705" y1="176.49512" x2="227.0799" y2="176.62951" gradientUnits="userSpaceOnUse" id="color-142"><stop offset="0" stop-color="#6a5675"/><stop offset="1" stop-color="#5c4768"/></linearGradient><linearGradient x1="227.25288" y1="176.00368" x2="227.21575" y2="176.13806" gradientUnits="userSpaceOnUse" id="color-143"><stop offset="0" stop-color="#97899e"/><stop offset="1" stop-color="#7f6e88"/></linearGradient><linearGradient x1="227.06067" y1="176.69909" x2="227.03917" y2="176.77689" gradientUnits="userSpaceOnUse" id="color-144"><stop offset="0" stop-color="#544c58"/><stop offset="1" stop-color="#4d3b58"/></linearGradient><linearGradient x1="227.29361" y1="175.85631" x2="227.27211" y2="175.93411" gradientUnits="userSpaceOnUse" id="color-145"><stop offset="0" stop-color="#a594ac"/><stop offset="1" stop-color="#96889d"/></linearGradient><linearGradient x1="226.934" y1="176.16192" x2="226.88655" y2="176.3337" gradientUnits="userSpaceOnUse" id="color-146"><stop offset="0" stop-color="#806f89"/><stop offset="1" stop-color="#685473"/></linearGradient><linearGradient x1="226.86145" y1="176.42443" x2="226.8243" y2="176.55881" gradientUnits="userSpaceOnUse" id="color-147"><stop offset="0" stop-color="#6a5675"/><stop offset="1" stop-color="#5c4768"/></linearGradient><linearGradient x1="226.99728" y1="175.93306" x2="226.96013" y2="176.06744" gradientUnits="userSpaceOnUse" id="color-148"><stop offset="0" stop-color="#97899e"/><stop offset="1" stop-color="#7f6e88"/></linearGradient><linearGradient x1="226.80507" y1="176.62844" x2="226.78357" y2="176.70626" gradientUnits="userSpaceOnUse" id="color-149"><stop offset="0" stop-color="#544c58"/><stop offset="1" stop-color="#4d3b58"/></linearGradient><linearGradient x1="227.03803" y1="175.78568" x2="227.01653" y2="175.86342" gradientUnits="userSpaceOnUse" id="color-150"><stop offset="0" stop-color="#a594ac"/><stop offset="1" stop-color="#96889d"/></linearGradient><linearGradient x1="235.34842" y1="167.82864" x2="234.37402" y2="168.28629" gradientUnits="userSpaceOnUse" id="color-151"><stop offset="0" stop-color="#7b6f80"/><stop offset="1" stop-color="#382c3f"/></linearGradient><linearGradient x1="235.87036" y1="168.43125" x2="234.49577" y2="169.07686" gradientUnits="userSpaceOnUse" id="color-152"><stop offset="0" stop-color="#ababab"/><stop offset="1" stop-color="#7e7e7e"/></linearGradient><linearGradient x1="235.29924" y1="168.69948" x2="235.06171" y2="168.81105" gradientUnits="userSpaceOnUse" id="color-153"><stop offset="0" stop-color="#323232"/><stop offset="1" stop-color="#232323"/></linearGradient><linearGradient x1="234.93614" y1="168.86997" x2="234.75023" y2="168.95733" gradientUnits="userSpaceOnUse" id="color-154"><stop offset="0" stop-color="#272727"/><stop offset="1" stop-color="#191919"/></linearGradient><linearGradient x1="235.61588" y1="168.55077" x2="235.42999" y2="168.63805" gradientUnits="userSpaceOnUse" id="color-155"><stop offset="0" stop-color="#393939"/><stop offset="1" stop-color="#323232"/></linearGradient><linearGradient x1="234.65396" y1="169.00253" x2="234.54637" y2="169.05308" gradientUnits="userSpaceOnUse" id="color-156"><stop offset="0" stop-color="#1f1f1f"/><stop offset="1" stop-color="#191919"/></linearGradient><linearGradient x1="235.81975" y1="168.45504" x2="235.71216" y2="168.50557" gradientUnits="userSpaceOnUse" id="color-157"><stop offset="0" stop-color="#515151"/><stop offset="1" stop-color="#3d3d3d"/></linearGradient><linearGradient x1="235.62058" y1="168.27248" x2="234.53308" y2="168.78319" gradientUnits="userSpaceOnUse" id="color-158"><stop offset="0" stop-color="#4b00bb"/><stop offset="1" stop-color="#30004f"/></linearGradient><linearGradient x1="235.08783" y1="167.20592" x2="234.05254" y2="167.69214" gradientUnits="userSpaceOnUse" id="color-159"><stop offset="0" stop-color="#4b00ba"/><stop offset="1" stop-color="#300050"/></linearGradient><linearGradient x1="235.06942" y1="168.3071" x2="234.90817" y2="168.38285" gradientUnits="userSpaceOnUse" id="color-160"><stop offset="0" stop-color="#806f89"/><stop offset="1" stop-color="#685473"/></linearGradient><linearGradient x1="234.82292" y1="168.42288" x2="234.6967" y2="168.48212" gradientUnits="userSpaceOnUse" id="color-161"><stop offset="0" stop-color="#6a5675"/><stop offset="1" stop-color="#5c4768"/></linearGradient><linearGradient x1="235.2844" y1="168.20614" x2="235.15818" y2="168.26539" gradientUnits="userSpaceOnUse" id="color-162"><stop offset="0" stop-color="#97899e"/><stop offset="1" stop-color="#7f6e88"/></linearGradient><linearGradient x1="234.63134" y1="168.51283" x2="234.5583" y2="168.54712" gradientUnits="userSpaceOnUse" id="color-163"><stop offset="0" stop-color="#544c58"/><stop offset="1" stop-color="#4d3b58"/></linearGradient><linearGradient x1="235.42281" y1="168.14112" x2="235.34974" y2="168.17543" gradientUnits="userSpaceOnUse" id="color-164"><stop offset="0" stop-color="#a594ac"/><stop offset="1" stop-color="#96889d"/></linearGradient><linearGradient x1="234.9567" y1="168.06708" x2="234.79545" y2="168.14283" gradientUnits="userSpaceOnUse" id="color-165"><stop offset="0" stop-color="#806f89"/><stop offset="1" stop-color="#685473"/></linearGradient><linearGradient x1="234.71019" y1="168.18286" x2="234.58399" y2="168.24213" gradientUnits="userSpaceOnUse" id="color-166"><stop offset="0" stop-color="#6a5675"/><stop offset="1" stop-color="#5c4768"/></linearGradient><linearGradient x1="235.17167" y1="167.96613" x2="235.04546" y2="168.02538" gradientUnits="userSpaceOnUse" id="color-167"><stop offset="0" stop-color="#97899e"/><stop offset="1" stop-color="#7f6e88"/></linearGradient><linearGradient x1="234.51862" y1="168.27284" x2="234.44557" y2="168.30712" gradientUnits="userSpaceOnUse" id="color-168"><stop offset="0" stop-color="#544c58"/><stop offset="1" stop-color="#4d3b58"/></linearGradient><linearGradient x1="235.31008" y1="167.90113" x2="235.23703" y2="167.93544" gradientUnits="userSpaceOnUse" id="color-169"><stop offset="0" stop-color="#a594ac"/><stop offset="1" stop-color="#96889d"/></linearGradient><linearGradient x1="234.84397" y1="167.82702" x2="234.68272" y2="167.90276" gradientUnits="userSpaceOnUse" id="color-170"><stop offset="0" stop-color="#806f89"/><stop offset="1" stop-color="#685473"/></linearGradient><linearGradient x1="234.59746" y1="167.94282" x2="234.47125" y2="168.00211" gradientUnits="userSpaceOnUse" id="color-171"><stop offset="0" stop-color="#6a5675"/><stop offset="1" stop-color="#5c4768"/></linearGradient><linearGradient x1="235.05893" y1="167.72611" x2="234.93273" y2="167.78539" gradientUnits="userSpaceOnUse" id="color-172"><stop offset="0" stop-color="#97899e"/><stop offset="1" stop-color="#7f6e88"/></linearGradient><linearGradient x1="234.40589" y1="168.03282" x2="234.33285" y2="168.06711" gradientUnits="userSpaceOnUse" id="color-173"><stop offset="0" stop-color="#544c58"/><stop offset="1" stop-color="#4d3b58"/></linearGradient><linearGradient x1="235.19735" y1="167.66106" x2="235.12429" y2="167.6954" gradientUnits="userSpaceOnUse" id="color-174"><stop offset="0" stop-color="#a594ac"/><stop offset="1" stop-color="#96889d"/></linearGradient><linearGradient x1="234.73124" y1="167.58702" x2="234.56997" y2="167.66276" gradientUnits="userSpaceOnUse" id="color-175"><stop offset="0" stop-color="#806f89"/><stop offset="1" stop-color="#685473"/></linearGradient><linearGradient x1="234.48473" y1="167.70278" x2="234.35853" y2="167.76203" gradientUnits="userSpaceOnUse" id="color-176"><stop offset="0" stop-color="#6a5675"/><stop offset="1" stop-color="#5c4768"/></linearGradient><linearGradient x1="234.9462" y1="167.48604" x2="234.82001" y2="167.54532" gradientUnits="userSpaceOnUse" id="color-177"><stop offset="0" stop-color="#97899e"/><stop offset="1" stop-color="#7f6e88"/></linearGradient><linearGradient x1="234.29316" y1="167.79275" x2="234.22012" y2="167.82709" gradientUnits="userSpaceOnUse" id="color-178"><stop offset="0" stop-color="#544c58"/><stop offset="1" stop-color="#4d3b58"/></linearGradient><linearGradient x1="235.08462" y1="167.42106" x2="235.01158" y2="167.45534" gradientUnits="userSpaceOnUse" id="color-179"><stop offset="0" stop-color="#a594ac"/><stop offset="1" stop-color="#96889d"/></linearGradient><radialGradient cx="232.50131" cy="172.64364" r="4.98283" gradientUnits="userSpaceOnUse" id="color-180"><stop offset="0" stop-color="#d699ff"/><stop offset="1" stop-color="#9966ff"/></radialGradient></defs><g transform="translate(-226.50854,-166.50855)"><g data-paper-data="{&quot;isPaintingLayer&quot;:true}" fill-rule="nonzero" stroke-linejoin="miter" stroke-miterlimit="10" stroke-dasharray="" stroke-dashoffset="0" style="mix-blend-mode: normal"><path d="M226.50854,180.00001c0,-7.45111 6.04033,-13.49146 13.49146,-13.49146c7.45111,0 13.49146,6.04033 13.49146,13.49146c0,7.45111 -6.04033,13.49146 -13.49146,13.49146c-7.45111,0 -13.49146,-6.04033 -13.49146,-13.49146z" fill="url(#color-1)" stroke="none" stroke-width="0.5" stroke-linecap="butt"/><path d="M229.04688,180.00001c0,-6.04921 4.90387,-10.95311 10.95311,-10.95311c6.04921,0 10.95311,4.90387 10.95311,10.95311c0,6.04921 -4.90387,10.95311 -10.95311,10.95311c-6.04921,0 -10.95311,-4.90387 -10.95311,-10.95311z" fill="url(#color-2)" stroke="none" stroke-width="0.5" stroke-linecap="butt"/><path d="M230.72728,180.00001c0,-5.12116 4.15153,-9.27271 9.27271,-9.27271c5.12116,0 9.27271,4.15153 9.27271,9.27271c0,5.12116 -4.15153,9.27271 -9.27271,9.27271c-5.12116,0 -9.27271,-4.15153 -9.27271,-9.27271z" fill="url(#color-3)" stroke="none" stroke-width="0.5" stroke-linecap="butt"/><path d="M232.37501,180.00001c0,-4.21115 3.41382,-7.62499 7.62499,-7.62499c4.21115,0 7.62499,3.41382 7.62499,7.62499c0,4.21115 -3.41382,7.62499 -7.62499,7.62499c-4.21115,0 -7.62499,-3.41382 -7.62499,-7.62499z" data-paper-data="{&quot;index&quot;:null}" fill="url(#color-4)" stroke="none" stroke-width="0.5" stroke-linecap="butt"/><g><g data-paper-data="{&quot;index&quot;:null}" stroke-width="0" stroke-linecap="butt"><path d="M228.16302,183.97731l-1.28775,0.35594l-0.28679,-1.0376l1.28775,-0.35594z" fill="url(#color-5)" stroke="#000000"/><path d="M228.48776,184.11192l-0.34277,0.09474l-0.40459,-1.46375l0.34277,-0.09473z" fill="url(#color-6)" stroke="none"/><path d="M228.26871,183.51788l-0.24088,0.06658l-0.06991,-0.25295l0.24087,-0.06658z" fill="url(#color-7)" stroke="#000000"/><path d="M228.16184,183.13124l-0.24088,0.06656l-0.05471,-0.19796l0.24087,-0.06658z" fill="url(#color-8)" stroke="#000000"/><path d="M228.36191,183.85505l-0.24087,0.06658l-0.05473,-0.19796l0.24088,-0.06658z" fill="url(#color-9)" stroke="#000000"/><path d="M228.07878,182.83071l-0.24088,0.06658l-0.03167,-0.11458l0.24087,-0.06658z" fill="url(#color-10)" stroke="#000000"/><path d="M228.42191,184.07215l-0.24087,0.06658l-0.03168,-0.11458l0.24087,-0.06658z" fill="url(#color-11)" stroke="#000000"/><path d="M228.10272,184.0538l-0.13896,0.03839l-0.32007,-1.15801l0.13896,-0.03841z" fill="url(#color-12)" stroke="#000000"/><path d="M226.92774,184.3487l-0.10191,0.02817l-0.30471,-1.10245l0.10191,-0.02817z" fill="url(#color-13)" stroke="#000000"/><path d="M227.79451,183.60619l-0.18744,0.0518l-0.04747,-0.17174l0.18744,-0.0518z" fill="url(#color-14)" stroke="#000000"/><path d="M227.72196,183.3437l-0.18744,0.0518l-0.03714,-0.13441l0.18744,-0.0518z" fill="url(#color-15)" stroke="#000000"/><path d="M227.85778,183.8351l-0.18744,0.0518l-0.03714,-0.1344l0.18744,-0.0518z" fill="url(#color-16)" stroke="#000000"/><path d="M227.66557,183.1397l-0.18744,0.0518l-0.02151,-0.07778l0.18744,-0.0518z" fill="url(#color-17)" stroke="#000000"/><path d="M227.89852,183.98245l-0.18744,0.0518l-0.02151,-0.0778l0.18744,-0.0518z" fill="url(#color-18)" stroke="#000000"/><path d="M227.53891,183.67684l-0.18744,0.0518l-0.04747,-0.17174l0.18744,-0.0518z" fill="url(#color-19)" stroke="#000000"/><path d="M227.46636,183.41434l-0.18744,0.0518l-0.03714,-0.1344l0.18744,-0.0518z" fill="url(#color-20)" stroke="#000000"/><path d="M227.60218,183.90572l-0.18744,0.0518l-0.03714,-0.1344l0.18744,-0.0518z" fill="url(#color-21)" stroke="#000000"/><path d="M227.40997,183.21033l-0.18744,0.0518l-0.02151,-0.0778l0.18744,-0.0518z" fill="url(#color-22)" stroke="#000000"/><path d="M227.64292,184.05314l-0.18744,0.0518l-0.02151,-0.0778l0.18744,-0.0518z" fill="url(#color-23)" stroke="#000000"/><path d="M227.28332,183.74747l-0.18744,0.0518l-0.04748,-0.17175l0.18744,-0.0518z" fill="url(#color-24)" stroke="#000000"/><path d="M227.21077,183.48496l-0.18744,0.0518l-0.03714,-0.1344l0.18744,-0.0518z" fill="url(#color-25)" stroke="#000000"/><path d="M227.3466,183.97637l-0.18744,0.0518l-0.03714,-0.1344l0.18744,-0.0518z" fill="url(#color-26)" stroke="#000000"/><path d="M227.15439,183.28095l-0.18744,0.0518l-0.0215,-0.0778l0.18744,-0.0518z" fill="url(#color-27)" stroke="#000000"/><path d="M227.38733,184.12379l-0.18744,0.0518l-0.02151,-0.0778l0.18744,-0.0518z" fill="url(#color-28)" stroke="#000000"/><path d="M227.02772,183.81809l-0.18744,0.0518l-0.04747,-0.17174l0.18744,-0.0518z" fill="url(#color-29)" stroke="#000000"/><path d="M226.95517,183.55558l-0.18744,0.0518l-0.03714,-0.1344l0.18744,-0.0518z" fill="url(#color-30)" stroke="#000000"/><path d="M227.091,184.04704l-0.18744,0.0518l-0.03714,-0.1344l0.18744,-0.0518z" fill="url(#color-31)" stroke="#000000"/><path d="M226.89879,183.3516l-0.18744,0.0518l-0.02151,-0.0778l0.18744,-0.0518z" fill="url(#color-32)" stroke="#000000"/><path d="M227.13173,184.19441l-0.18744,0.0518l-0.02151,-0.07778l0.18744,-0.0518z" fill="url(#color-33)" stroke="#000000"/></g><path d="M228.15567,183.97137l-1.28775,0.35594l-0.28679,-1.0376l1.28775,-0.35594z" fill-opacity="0.68627" fill="#000000" stroke="#000000" stroke-width="0" stroke-linecap="butt"/><path d="M228.48041,184.10598l-0.34277,0.09474l-0.40459,-1.46375l0.34277,-0.09473z" fill-opacity="0.68627" fill="#000000" stroke="none" stroke-width="0" stroke-linecap="butt"/><path d="M228.26136,183.51194l-0.24088,0.06658l-0.06991,-0.25295l0.24087,-0.06658z" fill-opacity="0.68627" fill="#000000" stroke="#000000" stroke-width="0" stroke-linecap="butt"/><path d="M228.15449,183.12526l-0.24088,0.06656l-0.05471,-0.19796l0.24087,-0.06658z" fill-opacity="0.68627" fill="#000000" stroke="#000000" stroke-width="0" stroke-linecap="butt"/><path d="M228.35456,183.84911l-0.24087,0.06658l-0.05473,-0.19796l0.24088,-0.06658z" fill-opacity="0.68627" fill="#000000" stroke="#000000" stroke-width="0" stroke-linecap="butt"/><path d="M228.07143,182.82476l-0.24088,0.06658l-0.03167,-0.11458l0.24087,-0.06658z" fill-opacity="0.68627" fill="#000000" stroke="#000000" stroke-width="0" stroke-linecap="butt"/><path d="M228.41456,184.06621l-0.24087,0.06658l-0.03168,-0.11458l0.24087,-0.06658z" fill-opacity="0.68627" fill="#000000" stroke="#000000" stroke-width="0" stroke-linecap="butt"/><path d="M228.09536,184.04785l-0.13896,0.03839l-0.32007,-1.15801l0.13896,-0.03841z" fill-opacity="0.68627" fill="#000000" stroke="#000000" stroke-width="0" stroke-linecap="butt"/><path d="M226.92039,184.34273l-0.10191,0.02817l-0.30471,-1.10245l0.10191,-0.02817z" fill-opacity="0.68627" fill="#000000" stroke="#000000" stroke-width="0" stroke-linecap="butt"/><path d="M227.78715,183.60023l-0.18744,0.0518l-0.04747,-0.17174l0.18744,-0.0518z" fill-opacity="0.68627" fill="#000000" stroke="#000000" stroke-width="0" stroke-linecap="butt"/><path d="M227.71461,183.33773l-0.18744,0.0518l-0.03714,-0.13441l0.18744,-0.0518z" fill-opacity="0.68627" fill="#000000" stroke="#000000" stroke-width="0" stroke-linecap="butt"/><path d="M227.85042,183.82915l-0.18744,0.0518l-0.03714,-0.1344l0.18744,-0.0518z" fill-opacity="0.68627" fill="#000000" stroke="#000000" stroke-width="0" stroke-linecap="butt"/><path d="M227.65821,183.13372l-0.18744,0.0518l-0.02151,-0.07778l0.18744,-0.0518z" fill-opacity="0.68627" fill="#000000" stroke="#000000" stroke-width="0" stroke-linecap="butt"/><path d="M227.89117,183.9765l-0.18744,0.0518l-0.02151,-0.0778l0.18744,-0.0518z" fill-opacity="0.68627" fill="#000000" stroke="#000000" stroke-width="0" stroke-linecap="butt"/><path d="M227.53155,183.67087l-0.18744,0.0518l-0.04747,-0.17174l0.18744,-0.0518z" fill-opacity="0.68627" fill="#000000" stroke="#000000" stroke-width="0" stroke-linecap="butt"/><path d="M227.45901,183.40836l-0.18744,0.0518l-0.03714,-0.1344l0.18744,-0.0518z" fill-opacity="0.68627" fill="#000000" stroke="#000000" stroke-width="0" stroke-linecap="butt"/><path d="M227.59482,183.89977l-0.18744,0.0518l-0.03714,-0.1344l0.18744,-0.0518z" fill-opacity="0.68627" fill="#000000" stroke="#000000" stroke-width="0" stroke-linecap="butt"/><path d="M227.40261,183.20439l-0.18744,0.0518l-0.02151,-0.0778l0.18744,-0.0518z" fill-opacity="0.68627" fill="#000000" stroke="#000000" stroke-width="0" stroke-linecap="butt"/><path d="M227.63557,184.04718l-0.18744,0.0518l-0.02151,-0.0778l0.18744,-0.0518z" fill-opacity="0.68627" fill="#000000" stroke="#000000" stroke-width="0" stroke-linecap="butt"/><path d="M227.27597,183.74153l-0.18744,0.0518l-0.04748,-0.17175l0.18744,-0.0518z" fill-opacity="0.68627" fill="#000000" stroke="#000000" stroke-width="0" stroke-linecap="butt"/><path d="M227.20342,183.47901l-0.18744,0.0518l-0.03714,-0.1344l0.18744,-0.0518z" fill-opacity="0.68627" fill="#000000" stroke="#000000" stroke-width="0" stroke-linecap="butt"/><path d="M227.33925,183.97041l-0.18744,0.0518l-0.03714,-0.1344l0.18744,-0.0518z" fill-opacity="0.68627" fill="#000000" stroke="#000000" stroke-width="0" stroke-linecap="butt"/><path d="M227.14704,183.27501l-0.18744,0.0518l-0.0215,-0.0778l0.18744,-0.0518z" fill-opacity="0.68627" fill="#000000" stroke="#000000" stroke-width="0" stroke-linecap="butt"/><path d="M227.37998,184.11782l-0.18744,0.0518l-0.02151,-0.0778l0.18744,-0.0518z" fill-opacity="0.68627" fill="#000000" stroke="#000000" stroke-width="0" stroke-linecap="butt"/><path d="M227.02037,183.81215l-0.18744,0.0518l-0.04747,-0.17174l0.18744,-0.0518z" fill-opacity="0.68627" fill="#000000" stroke="#000000" stroke-width="0" stroke-linecap="butt"/><path d="M226.94782,183.54963l-0.18744,0.0518l-0.03714,-0.1344l0.18744,-0.0518z" fill-opacity="0.68627" fill="#000000" stroke="#000000" stroke-width="0" stroke-linecap="butt"/><path d="M227.08365,184.04107l-0.18744,0.0518l-0.03714,-0.1344l0.18744,-0.0518z" fill-opacity="0.68627" fill="#000000" stroke="#000000" stroke-width="0" stroke-linecap="butt"/><path d="M226.89144,183.34564l-0.18744,0.0518l-0.02151,-0.0778l0.18744,-0.0518z" fill-opacity="0.68627" fill="#000000" stroke="#000000" stroke-width="0" stroke-linecap="butt"/><path d="M227.12438,184.18846l-0.18744,0.0518l-0.02151,-0.07778l0.18744,-0.0518z" fill-opacity="0.68627" fill="#000000" stroke="#000000" stroke-width="0" stroke-linecap="butt"/><path d="M240.16429,191.94615c0,0 -3.55941,0.78211 -8.17212,-3.18333c-4.2865,-3.21747 -3.9555,-8.81132 -3.9555,-8.81132h1.19751c0,0 -0.07274,4.77207 3.6226,7.85203c3.77371,3.14532 7.22278,2.9256 7.22278,2.9256z" fill="#000000" stroke="#000000" stroke-width="0.25" stroke-linecap="butt"/><g data-paper-data="{&quot;index&quot;:null}" stroke-width="0" stroke-linecap="butt"><path d="M231.13349,188.57643l-0.93222,0.95704l-0.77113,-0.75114l0.93221,-0.95704z" fill="url(#color-34)" stroke="#000000"/><path d="M231.48178,188.52876l-0.24814,0.25474l-1.08786,-1.05963l0.24814,-0.25475z" fill="url(#color-35)" stroke="none"/><path d="M230.99291,188.12642l-0.17437,0.17902l-0.18799,-0.18311l0.17437,-0.17902z" fill="url(#color-36)" stroke="#000000"/><path d="M230.70555,187.84646l-0.17437,0.17901l-0.14712,-0.14331l0.17437,-0.17902z" fill="url(#color-37)" stroke="#000000"/><path d="M231.2435,188.3705l-0.17439,0.17902l-0.14712,-0.14331l0.17437,-0.17902z" fill="url(#color-38)" stroke="#000000"/><path d="M230.48223,187.62897l-0.17437,0.17902l-0.08516,-0.08295l0.17437,-0.17902z" fill="url(#color-39)" stroke="#000000"/><path d="M231.40485,188.52763l-0.17439,0.17902l-0.08516,-0.08295l0.17439,-0.17902z" fill="url(#color-40)" stroke="#000000"/><path d="M231.12001,188.6729l-0.10061,0.10326l-0.86063,-0.83831l0.10059,-0.10326z" fill="url(#color-41)" stroke="#000000"/><path d="M230.25434,189.52028l-0.07378,0.07573l-0.81934,-0.79809l0.07379,-0.07573z" fill="url(#color-42)" stroke="#000000"/><path d="M230.62805,188.44188l-0.13569,0.1393l-0.12763,-0.12434l0.13569,-0.13929z" fill="url(#color-43)" stroke="#000000"/><path d="M230.43296,188.25189l-0.13569,0.13929l-0.09988,-0.0973l0.13569,-0.1393z" fill="url(#color-44)" stroke="#000000"/><path d="M230.79818,188.60763l-0.13569,0.1393l-0.09987,-0.0973l0.13569,-0.1393z" fill="url(#color-45)" stroke="#000000"/><path d="M230.28136,188.10419l-0.13569,0.1393l-0.05781,-0.05631l0.13569,-0.1393z" fill="url(#color-46)" stroke="#000000"/><path d="M230.90771,188.71428l-0.13569,0.13929l-0.05781,-0.0563l0.13569,-0.1393z" fill="url(#color-47)" stroke="#000000"/><path d="M230.44302,188.63187l-0.13569,0.1393l-0.12764,-0.12432l0.13569,-0.13929z" fill="url(#color-48)" stroke="#000000"/><path d="M230.24793,188.44184l-0.13569,0.13929l-0.09988,-0.09729l0.13569,-0.1393z" fill="url(#color-49)" stroke="#000000"/><path d="M230.61314,188.79759l-0.13569,0.1393l-0.09988,-0.0973l0.13569,-0.1393z" fill="url(#color-50)" stroke="#000000"/><path d="M230.09632,188.29413l-0.13569,0.13929l-0.05781,-0.05631l0.13569,-0.1393z" fill="url(#color-51)" stroke="#000000"/><path d="M230.72267,188.90425l-0.13569,0.1393l-0.05781,-0.05631l0.13569,-0.13929z" fill="url(#color-52)" stroke="#000000"/><path d="M230.258,188.82182l-0.13569,0.1393l-0.12764,-0.12434l0.13569,-0.13929z" fill="url(#color-53)" stroke="#000000"/><path d="M230.0629,188.63178l-0.13569,0.13929l-0.09988,-0.09729l0.13569,-0.1393z" fill="url(#color-54)" stroke="#000000"/><path d="M230.42812,188.98753l-0.13569,0.1393l-0.09988,-0.0973l0.13569,-0.13929z" fill="url(#color-55)" stroke="#000000"/><path d="M229.9113,188.48408l-0.13569,0.13929l-0.05781,-0.0563l0.13569,-0.1393z" fill="url(#color-56)" stroke="#000000"/><path d="M230.53765,189.09423l-0.13569,0.1393l-0.05781,-0.05631l0.13569,-0.1393z" fill="url(#color-57)" stroke="#000000"/><path d="M230.07295,189.01177l-0.13569,0.13929l-0.12764,-0.12432l0.13569,-0.1393z" fill="url(#color-58)" stroke="#000000"/><path d="M229.87787,188.82172l-0.13569,0.1393l-0.09988,-0.0973l0.13569,-0.1393z" fill="url(#color-59)" stroke="#000000"/><path d="M230.24309,189.17748l-0.13569,0.13929l-0.09988,-0.0973l0.13569,-0.13929z" fill="url(#color-60)" stroke="#000000"/><path d="M229.72625,188.67404l-0.13569,0.1393l-0.05781,-0.05631l0.13569,-0.13929z" fill="url(#color-61)" stroke="#000000"/><path d="M230.35262,189.28419l-0.13569,0.13929l-0.05781,-0.0563l0.13569,-0.1393z" fill="url(#color-62)" stroke="#000000"/></g><g data-paper-data="{&quot;index&quot;:null}" stroke-width="0" stroke-linecap="butt"><path d="M235.63239,191.57266l-0.56794,1.2093l-0.9744,-0.45762l0.56795,-1.20931z" fill="url(#color-63)" stroke="#000000"/><path d="M235.94595,191.41377l-0.15117,0.32189l-1.37459,-0.64557l0.15118,-0.32189z" fill="url(#color-64)" stroke="none"/><path d="M235.35237,191.19339l-0.10624,0.2262l-0.23753,-0.11157l0.10623,-0.2262z" fill="url(#color-65)" stroke="#000000"/><path d="M234.98926,191.02288l-0.10624,0.2262l-0.18591,-0.08732l0.10624,-0.2262z" fill="url(#color-66)" stroke="#000000"/><path d="M235.66901,191.34209l-0.10623,0.2262l-0.18591,-0.08731l0.10624,-0.2262z" fill="url(#color-67)" stroke="#000000"/><path d="M234.70707,190.89035l-0.10624,0.2262l-0.10761,-0.05053l0.10623,-0.2262z" fill="url(#color-68)" stroke="#000000"/><path d="M235.87288,191.43783l-0.10624,0.2262l-0.10761,-0.05053l0.10624,-0.2262z" fill="url(#color-69)" stroke="#000000"/><path d="M235.65121,191.66824l-0.0613,0.13049l-1.08748,-0.51074l0.06129,-0.13049z" fill="url(#color-70)" stroke="#000000"/><path d="M235.1103,192.75219l-0.04495,0.0957l-1.03529,-0.48623l0.04495,-0.0957z" fill="url(#color-71)" stroke="#000000"/><path d="M235.11076,191.61083l-0.08268,0.17601l-0.16128,-0.07575l0.08268,-0.17601z" fill="url(#color-72)" stroke="#000000"/><path d="M234.86425,191.49507l-0.08266,0.17601l-0.12621,-0.05928l0.08266,-0.17601z" fill="url(#color-73)" stroke="#000000"/><path d="M235.32573,191.7118l-0.08266,0.17601l-0.12621,-0.05928l0.08266,-0.17601z" fill="url(#color-74)" stroke="#000000"/><path d="M234.67268,191.40511l-0.08268,0.17601l-0.07305,-0.03429l0.08266,-0.17601z" fill="url(#color-75)" stroke="#000000"/><path d="M235.46413,191.7768l-0.08266,0.17601l-0.07307,-0.03429l0.08268,-0.17603z" fill="url(#color-76)" stroke="#000000"/><path d="M234.99802,191.85091l-0.08266,0.17601l-0.16128,-0.07573l0.08266,-0.17603z" fill="url(#color-77)" stroke="#000000"/><path d="M234.75152,191.73514l-0.08266,0.17601l-0.12622,-0.05928l0.08268,-0.17601z" fill="url(#color-78)" stroke="#000000"/><path d="M235.213,191.95187l-0.08266,0.17601l-0.12621,-0.05928l0.08268,-0.17601z" fill="url(#color-79)" stroke="#000000"/><path d="M234.55995,191.64514l-0.08268,0.17603l-0.07305,-0.03431l0.08268,-0.17601z" fill="url(#color-80)" stroke="#000000"/><path d="M235.3514,192.01688l-0.08266,0.176l-0.07305,-0.03429l0.08266,-0.17601z" fill="url(#color-81)" stroke="#000000"/><path d="M234.88531,192.09093l-0.08266,0.17601l-0.16129,-0.07575l0.08268,-0.17601z" fill="url(#color-82)" stroke="#000000"/><path d="M234.6388,191.97515l-0.08268,0.17601l-0.12621,-0.05928l0.08268,-0.17601z" fill="url(#color-83)" stroke="#000000"/><path d="M235.10027,192.19188l-0.08266,0.17601l-0.12621,-0.05928l0.08266,-0.17601z" fill="url(#color-84)" stroke="#000000"/><path d="M234.44722,191.88517l-0.08266,0.17603l-0.07305,-0.03431l0.08266,-0.17601z" fill="url(#color-85)" stroke="#000000"/><path d="M235.23868,192.2569l-0.08266,0.17601l-0.07305,-0.03431l0.08268,-0.17601z" fill="url(#color-86)" stroke="#000000"/><path d="M234.77257,192.33093l-0.08266,0.17601l-0.16128,-0.07573l0.08266,-0.17603z" fill="url(#color-87)" stroke="#000000"/><path d="M234.52606,192.21517l-0.08266,0.17601l-0.12621,-0.05928l0.08266,-0.176z" fill="url(#color-88)" stroke="#000000"/><path d="M234.98753,192.4319l-0.08266,0.17601l-0.12621,-0.05928l0.08268,-0.17603z" fill="url(#color-89)" stroke="#000000"/><path d="M234.33449,192.12521l-0.08268,0.17601l-0.07305,-0.03429l0.08268,-0.17603z" fill="url(#color-90)" stroke="#000000"/><path d="M235.12595,192.49689l-0.08266,0.17601l-0.07305,-0.03431l0.08268,-0.17601z" fill="url(#color-91)" stroke="#000000"/></g><path d="M240.28048,190.83221c-6.09977,-0.35682 -10.69497,-3.90287 -11.09257,-10.5216" fill="none" stroke="#ffffff" stroke-width="0.5" stroke-linecap="butt"/><path d="M239.35114,190.42278c0,0 -4.17494,-0.22539 -6.74657,-2.87535c-2.55308,-2.63087 -3.00877,-6.55533 -3.00877,-6.55533" fill="none" stroke="url(#color-92)" stroke-width="0.25" stroke-linecap="round"/><g data-paper-data="{&quot;index&quot;:null}" fill-opacity="0.68627" fill="#000000" stroke-width="0" stroke-linecap="butt"><path d="M231.12613,188.57047l-0.93222,0.95704l-0.77113,-0.75114l0.93221,-0.95704z" stroke="#000000"/><path d="M231.47443,188.52281l-0.24814,0.25474l-1.08786,-1.05963l0.24814,-0.25475z" stroke="none"/><path d="M230.98556,188.12046l-0.17437,0.17902l-0.18799,-0.18311l0.17437,-0.17902z" stroke="#000000"/><path d="M230.6982,187.84052l-0.17437,0.17901l-0.14712,-0.14331l0.17437,-0.17902z" stroke="#000000"/><path d="M231.23615,188.36455l-0.17439,0.17902l-0.14712,-0.14331l0.17437,-0.17902z" stroke="#000000"/><path d="M230.47488,187.62302l-0.17437,0.17902l-0.08516,-0.08295l0.17437,-0.17902z" stroke="#000000"/><path d="M231.39749,188.52169l-0.17439,0.17902l-0.08516,-0.08295l0.17439,-0.17902z" stroke="#000000"/><path d="M231.11266,188.66692l-0.10061,0.10326l-0.86063,-0.83831l0.10059,-0.10326z" stroke="#000000"/><path d="M230.24698,189.51434l-0.07378,0.07573l-0.81934,-0.79809l0.07379,-0.07573z" stroke="#000000"/><path d="M230.6207,188.43592l-0.13569,0.1393l-0.12763,-0.12434l0.13569,-0.13929z" stroke="#000000"/><path d="M230.42561,188.24592l-0.13569,0.13929l-0.09988,-0.0973l0.13569,-0.1393z" stroke="#000000"/><path d="M230.79082,188.60167l-0.13569,0.1393l-0.09987,-0.0973l0.13569,-0.1393z" stroke="#000000"/><path d="M230.274,188.09825l-0.13569,0.1393l-0.05781,-0.05631l0.13569,-0.1393z" stroke="#000000"/><path d="M230.90036,188.70834l-0.13569,0.13929l-0.05781,-0.0563l0.13569,-0.1393z" stroke="#000000"/><path d="M230.43567,188.62591l-0.13569,0.1393l-0.12764,-0.12432l0.13569,-0.13929z" stroke="#000000"/><path d="M230.24057,188.43587l-0.13569,0.13929l-0.09988,-0.09729l0.13569,-0.1393z" stroke="#000000"/><path d="M230.60579,188.79161l-0.13569,0.1393l-0.09988,-0.0973l0.13569,-0.1393z" stroke="#000000"/><path d="M230.08897,188.28819l-0.13569,0.13929l-0.05781,-0.05631l0.13569,-0.1393z" stroke="#000000"/><path d="M230.71532,188.89829l-0.13569,0.1393l-0.05781,-0.05631l0.13569,-0.13929z" stroke="#000000"/><path d="M230.25065,188.81585l-0.13569,0.1393l-0.12764,-0.12434l0.13569,-0.13929z" stroke="#000000"/><path d="M230.05555,188.62582l-0.13569,0.13929l-0.09988,-0.09729l0.13569,-0.1393z" stroke="#000000"/><path d="M230.42077,188.98155l-0.13569,0.1393l-0.09988,-0.0973l0.13569,-0.13929z" stroke="#000000"/><path d="M229.90395,188.47813l-0.13569,0.13929l-0.05781,-0.0563l0.13569,-0.1393z" stroke="#000000"/><path d="M230.5303,189.08827l-0.13569,0.1393l-0.05781,-0.05631l0.13569,-0.1393z" stroke="#000000"/><path d="M230.0656,189.00583l-0.13569,0.13929l-0.12764,-0.12432l0.13569,-0.1393z" stroke="#000000"/><path d="M229.87052,188.81578l-0.13569,0.1393l-0.09988,-0.0973l0.13569,-0.1393z" stroke="#000000"/><path d="M230.23573,189.17154l-0.13569,0.13929l-0.09988,-0.0973l0.13569,-0.13929z" stroke="#000000"/><path d="M229.7189,188.66808l-0.13569,0.1393l-0.05781,-0.05631l0.13569,-0.13929z" stroke="#000000"/><path d="M230.34527,189.27821l-0.13569,0.13929l-0.05781,-0.0563l0.13569,-0.1393z" stroke="#000000"/></g><g data-paper-data="{&quot;index&quot;:null}" fill-opacity="0.68627" fill="#000000" stroke-width="0" stroke-linecap="butt"><path d="M235.62504,191.56672l-0.56794,1.2093l-0.9744,-0.45762l0.56795,-1.20931z" stroke="#000000"/><path d="M235.93859,191.4078l-0.15117,0.32189l-1.37459,-0.64557l0.15118,-0.32189z" stroke="none"/><path d="M235.34501,191.18745l-0.10624,0.2262l-0.23753,-0.11157l0.10623,-0.2262z" stroke="#000000"/><path d="M234.9819,191.0169l-0.10624,0.2262l-0.18591,-0.08732l0.10624,-0.2262z" stroke="#000000"/><path d="M235.66166,191.33614l-0.10623,0.2262l-0.18591,-0.08731l0.10624,-0.2262z" stroke="#000000"/><path d="M234.69972,190.88438l-0.10624,0.2262l-0.10761,-0.05053l0.10623,-0.2262z" stroke="#000000"/><path d="M235.86552,191.43187l-0.10624,0.2262l-0.10761,-0.05053l0.10624,-0.2262z" stroke="#000000"/><path d="M235.64386,191.66229l-0.0613,0.13049l-1.08748,-0.51074l0.06129,-0.13049z" stroke="#000000"/><path d="M235.10295,192.74624l-0.04495,0.0957l-1.03529,-0.48623l0.04495,-0.0957z" stroke="#000000"/><path d="M235.10341,191.60489l-0.08268,0.17601l-0.16128,-0.07575l0.08268,-0.17601z" stroke="#000000"/><path d="M234.8569,191.48912l-0.08266,0.17601l-0.12621,-0.05928l0.08266,-0.17601z" stroke="#000000"/><path d="M235.31838,191.70585l-0.08266,0.17601l-0.12621,-0.05928l0.08266,-0.17601z" stroke="#000000"/><path d="M234.66533,191.39916l-0.08268,0.17601l-0.07305,-0.03429l0.08266,-0.17601z" stroke="#000000"/><path d="M235.45678,191.77086l-0.08266,0.17601l-0.07307,-0.03429l0.08268,-0.17603z" stroke="#000000"/><path d="M234.99066,191.84495l-0.08266,0.17601l-0.16128,-0.07573l0.08266,-0.17603z" stroke="#000000"/><path d="M234.74417,191.72917l-0.08266,0.17601l-0.12622,-0.05928l0.08268,-0.17601z" stroke="#000000"/><path d="M235.20564,191.94591l-0.08266,0.17601l-0.12621,-0.05928l0.08268,-0.17601z" stroke="#000000"/><path d="M234.5526,191.63918l-0.08268,0.17603l-0.07305,-0.03431l0.08268,-0.17601z" stroke="#000000"/><path d="M235.34404,192.0109l-0.08266,0.176l-0.07305,-0.03429l0.08266,-0.17601z" stroke="#000000"/><path d="M234.87796,192.08496l-0.08266,0.17601l-0.16129,-0.07575l0.08268,-0.17601z" stroke="#000000"/><path d="M234.63145,191.96918l-0.08268,0.17601l-0.12621,-0.05928l0.08268,-0.17601z" stroke="#000000"/><path d="M235.09291,192.18591l-0.08266,0.17601l-0.12621,-0.05928l0.08266,-0.17601z" stroke="#000000"/><path d="M234.43987,191.87922l-0.08266,0.17603l-0.07305,-0.03431l0.08266,-0.17601z" stroke="#000000"/><path d="M235.23133,192.25094l-0.08266,0.17601l-0.07305,-0.03431l0.08268,-0.17601z" stroke="#000000"/><path d="M234.76521,192.32499l-0.08266,0.17601l-0.16128,-0.07573l0.08266,-0.17603z" stroke="#000000"/><path d="M234.5187,192.20922l-0.08266,0.17601l-0.12621,-0.05928l0.08266,-0.176z" stroke="#000000"/><path d="M234.98018,192.42595l-0.08266,0.17601l-0.12621,-0.05928l0.08268,-0.17603z" stroke="#000000"/><path d="M234.32714,192.11923l-0.08268,0.17601l-0.07305,-0.03429l0.08268,-0.17603z" stroke="#000000"/><path d="M235.11859,192.49094l-0.08266,0.17601l-0.07305,-0.03431l0.08268,-0.17601z" stroke="#000000"/></g></g><g><path d="M240.07955,169.2769c0,0 -3.44906,-0.2197 -7.22278,2.9256c-3.69534,3.07997 -3.6226,7.85203 -3.6226,7.85203h-1.1975c0,0 -0.33101,-5.59382 3.9555,-8.8113c4.6127,-3.96544 8.17212,-3.18334 8.17212,-3.18334z" data-paper-data="{&quot;index&quot;:null}" fill="#000000" stroke="#000000" stroke-width="0.25" stroke-linecap="butt"/><g data-paper-data="{&quot;index&quot;:null}" stroke-width="0" stroke-linecap="butt"><path d="M230.36234,172.18067l-0.93221,-0.95704l0.77113,-0.75114l0.93222,0.95704z" fill="url(#color-93)" stroke="#000000"/><path d="M230.39392,172.5368l-0.24814,-0.25475l1.08786,-1.05963l0.24815,0.25474z" fill="url(#color-94)" stroke="none"/><path d="M230.80493,172.06268l-0.17437,-0.17902l0.18799,-0.18311l0.17437,0.17902z" fill="url(#color-95)" stroke="#000000"/><path d="M230.55842,172.3028l-0.17437,-0.17902l0.14712,-0.14331l0.17437,0.17901z" fill="url(#color-96)" stroke="#000000"/><path d="M231.09638,171.77877l-0.17437,-0.17902l0.14712,-0.14331l0.17437,0.17902z" fill="url(#color-97)" stroke="#000000"/><path d="M230.39707,172.45994l-0.17437,-0.17902l0.08516,-0.08295l0.17437,0.17902z" fill="url(#color-98)" stroke="#000000"/><path d="M231.31968,171.56127l-0.17437,-0.17902l0.08516,-0.08295l0.17437,0.17902z" fill="url(#color-99)" stroke="#000000"/><path d="M230.25938,172.17138l-0.10059,-0.10326l0.86063,-0.83831l0.10059,0.10326z" fill="url(#color-100)" stroke="#000000"/><path d="M229.43501,171.28372l-0.07378,-0.07573l0.81933,-0.79809l0.07378,0.07573z" fill="url(#color-101)" stroke="#000000"/><path d="M230.50041,171.68841l-0.13569,-0.13929l0.12763,-0.12434l0.13569,0.1393z" fill="url(#color-102)" stroke="#000000"/><path d="M230.33309,171.85141l-0.13569,-0.1393l0.09987,-0.0973l0.13569,0.13929z" fill="url(#color-103)" stroke="#000000"/><path d="M230.69831,171.49567l-0.13569,-0.1393l0.09988,-0.0973l0.13569,0.1393z" fill="url(#color-104)" stroke="#000000"/><path d="M230.22354,171.95805l-0.13569,-0.1393l0.05781,-0.05631l0.13569,0.1393z" fill="url(#color-105)" stroke="#000000"/><path d="M230.84989,171.34797l-0.13569,-0.1393l0.05781,-0.0563l0.13569,0.13929z" fill="url(#color-106)" stroke="#000000"/><path d="M230.31538,171.49846l-0.13569,-0.13929l0.12763,-0.12432l0.13569,0.1393z" fill="url(#color-107)" stroke="#000000"/><path d="M230.14806,171.66143l-0.13569,-0.1393l0.09987,-0.09729l0.13569,0.13929z" fill="url(#color-108)" stroke="#000000"/><path d="M230.51326,171.30571l-0.13569,-0.1393l0.09988,-0.0973l0.13569,0.1393z" fill="url(#color-109)" stroke="#000000"/><path d="M230.03849,171.76811l-0.13569,-0.1393l0.05781,-0.05631l0.13569,0.13929z" fill="url(#color-110)" stroke="#000000"/><path d="M230.66486,171.15802l-0.13569,-0.13929l0.05781,-0.05631l0.13569,0.1393z" fill="url(#color-111)" stroke="#000000"/><path d="M230.13036,171.30846l-0.13568,-0.13929l0.12763,-0.12434l0.13569,0.1393z" fill="url(#color-112)" stroke="#000000"/><path d="M229.96302,171.47146l-0.13569,-0.1393l0.09988,-0.09729l0.13569,0.13929z" fill="url(#color-113)" stroke="#000000"/><path d="M230.32824,171.11576l-0.13569,-0.13929l0.09987,-0.0973l0.13569,0.1393z" fill="url(#color-114)" stroke="#000000"/><path d="M229.85347,171.57818l-0.13569,-0.1393l0.05781,-0.0563l0.13569,0.13929z" fill="url(#color-115)" stroke="#000000"/><path d="M230.47984,170.96808l-0.13569,-0.1393l0.05781,-0.05631l0.13569,0.1393z" fill="url(#color-116)" stroke="#000000"/><path d="M229.94532,171.11851l-0.13569,-0.1393l0.12764,-0.12432l0.13569,0.13929z" fill="url(#color-117)" stroke="#000000"/><path d="M229.77799,171.28152l-0.13569,-0.1393l0.09988,-0.0973l0.13569,0.1393z" fill="url(#color-118)" stroke="#000000"/><path d="M230.1432,170.92576l-0.13569,-0.13929l0.09987,-0.0973l0.13569,0.13929z" fill="url(#color-119)" stroke="#000000"/><path d="M229.66844,171.38823l-0.13569,-0.13929l0.05781,-0.05631l0.13569,0.1393z" fill="url(#color-120)" stroke="#000000"/><path d="M230.29481,170.77812l-0.13569,-0.1393l0.05781,-0.0563l0.13569,0.13929z" fill="url(#color-121)" stroke="#000000"/></g><g data-paper-data="{&quot;index&quot;:null}" stroke-width="0" stroke-linecap="butt"><path d="M227.87623,177.06621l-1.28774,-0.35594l0.28679,-1.0376l1.28774,0.35594z" fill="url(#color-122)" stroke="#000000"/><path d="M228.08317,177.35774l-0.34277,-0.09473l0.40459,-1.46375l0.34277,0.09474z" fill="url(#color-123)" stroke="none"/><path d="M228.1988,176.74104l-0.24087,-0.06658l0.06991,-0.25295l0.24087,0.06658z" fill="url(#color-124)" stroke="#000000"/><path d="M228.10712,177.0727l-0.24087,-0.06658l0.05471,-0.19796l0.24088,0.06656z" fill="url(#color-125)" stroke="#000000"/><path d="M228.30719,176.3489l-0.24087,-0.06658l0.05471,-0.19796l0.24087,0.06658z" fill="url(#color-126)" stroke="#000000"/><path d="M228.0471,177.2898l-0.24087,-0.06658l0.03168,-0.11458l0.24087,0.06658z" fill="url(#color-127)" stroke="#000000"/><path d="M228.39023,176.04843l-0.24088,-0.06658l0.03168,-0.11458l0.24087,0.06658z" fill="url(#color-128)" stroke="#000000"/><path d="M227.78264,177.11014l-0.13896,-0.03841l0.32007,-1.15801l0.13896,0.03839z" fill="url(#color-129)" stroke="#000000"/><path d="M226.62302,176.75975l-0.10191,-0.02817l0.30472,-1.10245l0.10191,0.02817z" fill="url(#color-130)" stroke="#000000"/><path d="M227.74704,176.57153l-0.18744,-0.0518l0.04747,-0.17174l0.18744,0.0518z" fill="url(#color-131)" stroke="#000000"/><path d="M227.68481,176.79671l-0.18744,-0.0518l0.03714,-0.13441l0.18744,0.0518z" fill="url(#color-132)" stroke="#000000"/><path d="M227.82064,176.30524l-0.18744,-0.0518l0.03714,-0.1344l0.18744,0.0518z" fill="url(#color-133)" stroke="#000000"/><path d="M227.64407,176.94406l-0.18744,-0.0518l0.0215,-0.07778l0.18744,0.0518z" fill="url(#color-134)" stroke="#000000"/><path d="M227.87702,176.10131l-0.18744,-0.0518l0.02151,-0.0778l0.18744,0.0518z" fill="url(#color-135)" stroke="#000000"/><path d="M227.49144,176.50091l-0.18744,-0.0518l0.04748,-0.17174l0.18744,0.0518z" fill="url(#color-136)" stroke="#000000"/><path d="M227.42921,176.72606l-0.18744,-0.0518l0.03714,-0.1344l0.18744,0.0518z" fill="url(#color-137)" stroke="#000000"/><path d="M227.56504,176.23461l-0.18744,-0.0518l0.03714,-0.1344l0.18744,0.0518z" fill="url(#color-138)" stroke="#000000"/><path d="M227.38847,176.87344l-0.18744,-0.0518l0.02151,-0.0778l0.18744,0.0518z" fill="url(#color-139)" stroke="#000000"/><path d="M227.62142,176.03062l-0.18744,-0.0518l0.02151,-0.0778l0.18744,0.0518z" fill="url(#color-140)" stroke="#000000"/><path d="M227.23585,176.43022l-0.18744,-0.0518l0.04747,-0.17175l0.18744,0.0518z" fill="url(#color-141)" stroke="#000000"/><path d="M227.17364,176.65538l-0.18744,-0.0518l0.03714,-0.1344l0.18744,0.0518z" fill="url(#color-142)" stroke="#000000"/><path d="M227.30945,176.16399l-0.18744,-0.0518l0.03714,-0.1344l0.18744,0.0518z" fill="url(#color-143)" stroke="#000000"/><path d="M227.13288,176.8028l-0.18744,-0.0518l0.02151,-0.0778l0.18744,0.0518z" fill="url(#color-144)" stroke="#000000"/><path d="M227.36583,175.95998l-0.18744,-0.0518l0.02151,-0.0778l0.18744,0.0518z" fill="url(#color-145)" stroke="#000000"/><path d="M226.98025,176.35957l-0.18744,-0.0518l0.04748,-0.17174l0.18744,0.0518z" fill="url(#color-146)" stroke="#000000"/><path d="M226.91804,176.58475l-0.18744,-0.0518l0.03714,-0.1344l0.18744,0.0518z" fill="url(#color-147)" stroke="#000000"/><path d="M227.05387,176.09337l-0.18744,-0.0518l0.03714,-0.1344l0.18744,0.0518z" fill="url(#color-148)" stroke="#000000"/><path d="M226.87728,176.73211l-0.18744,-0.0518l0.0215,-0.0778l0.18744,0.0518z" fill="url(#color-149)" stroke="#000000"/><path d="M227.11023,175.88936l-0.18744,-0.0518l0.02151,-0.07778l0.18744,0.0518z" fill="url(#color-150)" stroke="#000000"/></g><g data-paper-data="{&quot;index&quot;:null}" stroke-width="0" stroke-linecap="butt"><path d="M234.65799,168.89088l-0.56794,-1.20931l0.9744,-0.45762l0.56794,1.2093z" fill="url(#color-151)" stroke="#000000"/><path d="M234.57136,169.2378l-0.15118,-0.32189l1.37459,-0.64557l0.15117,0.32189z" fill="url(#color-152)" stroke="none"/><path d="M235.11482,168.92416l-0.10624,-0.2262l0.23753,-0.11157l0.10624,0.2262z" fill="url(#color-153)" stroke="#000000"/><path d="M234.80335,169.07042l-0.10624,-0.2262l0.1859,-0.08732l0.10625,0.2262z" fill="url(#color-154)" stroke="#000000"/><path d="M235.4831,168.7512l-0.10624,-0.2262l0.18591,-0.08731l0.10624,0.2262z" fill="url(#color-155)" stroke="#000000"/><path d="M234.59947,169.16616l-0.10624,-0.2262l0.10761,-0.05053l0.10623,0.2262z" fill="url(#color-156)" stroke="#000000"/><path d="M235.76527,168.61867l-0.10624,-0.2262l0.10761,-0.05053l0.10624,0.2262z" fill="url(#color-157)" stroke="#000000"/><path d="M234.56372,168.84843l-0.0613,-0.13049l1.08749,-0.51074l0.06129,0.13049z" fill="url(#color-158)" stroke="#000000"/><path d="M234.07501,167.73999l-0.04495,-0.0957l1.03529,-0.48623l0.04494,0.0957z" fill="url(#color-159)" stroke="#000000"/><path d="M234.94948,168.47086l-0.08268,-0.17601l0.16128,-0.07575l0.08268,0.17601z" fill="url(#color-160)" stroke="#000000"/><path d="M234.73804,168.57013l-0.08266,-0.17601l0.12621,-0.05928l0.08266,0.17601z" fill="url(#color-161)" stroke="#000000"/><path d="M235.19952,168.3534l-0.08266,-0.17601l0.12621,-0.05928l0.08266,0.17601z" fill="url(#color-162)" stroke="#000000"/><path d="M234.59963,168.63512l-0.08266,-0.17601l0.07304,-0.03429l0.08268,0.17601z" fill="url(#color-163)" stroke="#000000"/><path d="M235.39108,168.26342l-0.08268,-0.17603l0.07305,-0.03429l0.08266,0.17601z" fill="url(#color-164)" stroke="#000000"/><path d="M234.83674,168.23084l-0.08266,-0.17603l0.16128,-0.07573l0.08266,0.17601z" fill="url(#color-165)" stroke="#000000"/><path d="M234.62531,168.33012l-0.08266,-0.17601l0.12621,-0.05928l0.08266,0.17601z" fill="url(#color-166)" stroke="#000000"/><path d="M235.08679,168.11338l-0.08268,-0.17601l0.12621,-0.05928l0.08266,0.17601z" fill="url(#color-167)" stroke="#000000"/><path d="M234.4869,168.39511l-0.08268,-0.17601l0.07305,-0.03431l0.08268,0.17603z" fill="url(#color-168)" stroke="#000000"/><path d="M235.27834,168.02343l-0.08266,-0.17601l0.07305,-0.03429l0.08266,0.176z" fill="url(#color-169)" stroke="#000000"/><path d="M234.72403,167.99079l-0.08268,-0.17601l0.16128,-0.07575l0.08266,0.17601z" fill="url(#color-170)" stroke="#000000"/><path d="M234.51258,168.09013l-0.08268,-0.17601l0.12621,-0.05928l0.08268,0.17601z" fill="url(#color-171)" stroke="#000000"/><path d="M234.97406,167.87338l-0.08266,-0.17601l0.12621,-0.05928l0.08266,0.17601z" fill="url(#color-172)" stroke="#000000"/><path d="M234.37417,168.1551l-0.08266,-0.17601l0.07305,-0.03431l0.08266,0.17603z" fill="url(#color-173)" stroke="#000000"/><path d="M235.16563,167.78341l-0.08268,-0.17601l0.07305,-0.03431l0.08266,0.17601z" fill="url(#color-174)" stroke="#000000"/><path d="M234.61129,167.75076l-0.08266,-0.17603l0.16128,-0.07573l0.08266,0.17601z" fill="url(#color-175)" stroke="#000000"/><path d="M234.39985,167.8501l-0.08266,-0.176l0.12621,-0.05928l0.08266,0.17601z" fill="url(#color-176)" stroke="#000000"/><path d="M234.86134,167.63338l-0.08268,-0.17603l0.12621,-0.05928l0.08266,0.17601z" fill="url(#color-177)" stroke="#000000"/><path d="M234.26143,167.9151l-0.08268,-0.17603l0.07305,-0.03429l0.08268,0.17601z" fill="url(#color-178)" stroke="#000000"/><path d="M235.05289,167.54334l-0.08268,-0.17601l0.07305,-0.03431l0.08266,0.17601z" fill="url(#color-179)" stroke="#000000"/></g><path d="M229.17199,180.34472c0,-6.13447 4.52067,-10.97871 10.82238,-11.20781" fill="none" stroke="#ffffff" stroke-width="0.5" stroke-linecap="butt"/><path d="M229.47596,179.60587c0,0 0.34342,-4.03326 2.78635,-6.7542c2.46066,-2.7407 6.66106,-3.44955 6.66106,-3.44955" data-paper-data="{&quot;index&quot;:null}" fill="none" stroke="url(#color-180)" stroke-width="0.25" stroke-linecap="round"/><g data-paper-data="{&quot;index&quot;:null}" fill-opacity="0.68627" fill="#000000" stroke-width="0" stroke-linecap="butt"><path d="M230.35498,172.17472l-0.93221,-0.95704l0.77113,-0.75114l0.93222,0.95704z" stroke="#000000"/><path d="M230.38657,172.53085l-0.24814,-0.25475l1.08786,-1.05963l0.24815,0.25474z" stroke="none"/><path d="M230.79757,172.05673l-0.17437,-0.17902l0.18799,-0.18311l0.17437,0.17902z" stroke="#000000"/><path d="M230.55106,172.29685l-0.17437,-0.17902l0.14712,-0.14331l0.17437,0.17901z" stroke="#000000"/><path d="M231.08903,171.77282l-0.17437,-0.17902l0.14712,-0.14331l0.17437,0.17902z" stroke="#000000"/><path d="M230.38971,172.454l-0.17437,-0.17902l0.08516,-0.08295l0.17437,0.17902z" stroke="#000000"/><path d="M231.31233,171.5553l-0.17437,-0.17902l0.08516,-0.08295l0.17437,0.17902z" stroke="#000000"/><path d="M230.25203,172.16543l-0.10059,-0.10326l0.86063,-0.83831l0.10059,0.10326z" stroke="#000000"/><path d="M229.42765,171.27778l-0.07378,-0.07573l0.81933,-0.79809l0.07378,0.07573z" stroke="#000000"/><path d="M230.49306,171.68244l-0.13569,-0.13929l0.12763,-0.12434l0.13569,0.1393z" stroke="#000000"/><path d="M230.32574,171.84545l-0.13569,-0.1393l0.09987,-0.0973l0.13569,0.13929z" stroke="#000000"/><path d="M230.69095,171.4897l-0.13569,-0.1393l0.09988,-0.0973l0.13569,0.1393z" stroke="#000000"/><path d="M230.21619,171.9521l-0.13569,-0.1393l0.05781,-0.05631l0.13569,0.1393z" stroke="#000000"/><path d="M230.84254,171.34203l-0.13569,-0.1393l0.05781,-0.0563l0.13569,0.13929z" stroke="#000000"/><path d="M230.30802,171.4925l-0.13569,-0.13929l0.12763,-0.12432l0.13569,0.1393z" stroke="#000000"/><path d="M230.1407,171.65547l-0.13569,-0.1393l0.09987,-0.09729l0.13569,0.13929z" stroke="#000000"/><path d="M230.5059,171.29974l-0.13569,-0.1393l0.09988,-0.0973l0.13569,0.1393z" stroke="#000000"/><path d="M230.03114,171.76216l-0.13569,-0.1393l0.05781,-0.05631l0.13569,0.13929z" stroke="#000000"/><path d="M230.65751,171.15207l-0.13569,-0.13929l0.05781,-0.05631l0.13569,0.1393z" stroke="#000000"/><path d="M230.123,171.30252l-0.13568,-0.13929l0.12763,-0.12434l0.13569,0.1393z" stroke="#000000"/><path d="M229.95567,171.46552l-0.13569,-0.1393l0.09988,-0.09729l0.13569,0.13929z" stroke="#000000"/><path d="M230.32088,171.1098l-0.13569,-0.13929l0.09987,-0.0973l0.13569,0.1393z" stroke="#000000"/><path d="M229.84612,171.57224l-0.13569,-0.1393l0.05781,-0.0563l0.13569,0.13929z" stroke="#000000"/><path d="M230.47249,170.96211l-0.13569,-0.1393l0.05781,-0.05631l0.13569,0.1393z" stroke="#000000"/><path d="M229.93797,171.11256l-0.13569,-0.1393l0.12764,-0.12432l0.13569,0.13929z" stroke="#000000"/><path d="M229.77063,171.27558l-0.13569,-0.1393l0.09988,-0.0973l0.13569,0.1393z" stroke="#000000"/><path d="M230.13585,170.91982l-0.13569,-0.13929l0.09987,-0.0973l0.13569,0.13929z" stroke="#000000"/><path d="M229.66109,171.38228l-0.13569,-0.13929l0.05781,-0.05631l0.13569,0.1393z" stroke="#000000"/><path d="M230.28745,170.77215l-0.13569,-0.1393l0.05781,-0.0563l0.13569,0.13929z" stroke="#000000"/></g><g data-paper-data="{&quot;index&quot;:null}" fill-opacity="0.68627" fill="#000000" stroke-width="0" stroke-linecap="butt"><path d="M227.86887,177.06026l-1.28774,-0.35594l0.28679,-1.0376l1.28774,0.35594z" stroke="#000000"/><path d="M228.07582,177.3518l-0.34277,-0.09473l0.40459,-1.46375l0.34277,0.09474z" stroke="none"/><path d="M228.19145,176.73509l-0.24087,-0.06658l0.06991,-0.25295l0.24087,0.06658z" stroke="#000000"/><path d="M228.09976,177.06676l-0.24087,-0.06658l0.05471,-0.19796l0.24088,0.06656z" stroke="#000000"/><path d="M228.29983,176.34293l-0.24087,-0.06658l0.05471,-0.19796l0.24087,0.06658z" stroke="#000000"/><path d="M228.03975,177.28385l-0.24087,-0.06658l0.03168,-0.11458l0.24087,0.06658z" stroke="#000000"/><path d="M228.38288,176.04247l-0.24088,-0.06658l0.03168,-0.11458l0.24087,0.06658z" stroke="#000000"/><path d="M227.77529,177.10419l-0.13896,-0.03841l0.32007,-1.15801l0.13896,0.03839z" stroke="#000000"/><path d="M226.61566,176.75378l-0.10191,-0.02817l0.30472,-1.10245l0.10191,0.02817z" stroke="#000000"/><path d="M227.73969,176.56559l-0.18744,-0.0518l0.04747,-0.17174l0.18744,0.0518z" stroke="#000000"/><path d="M227.67746,176.79074l-0.18744,-0.0518l0.03714,-0.13441l0.18744,0.0518z" stroke="#000000"/><path d="M227.81329,176.2993l-0.18744,-0.0518l0.03714,-0.1344l0.18744,0.0518z" stroke="#000000"/><path d="M227.63671,176.93811l-0.18744,-0.0518l0.0215,-0.07778l0.18744,0.0518z" stroke="#000000"/><path d="M227.86967,176.09533l-0.18744,-0.0518l0.02151,-0.0778l0.18744,0.0518z" stroke="#000000"/><path d="M227.48409,176.49494l-0.18744,-0.0518l0.04748,-0.17174l0.18744,0.0518z" stroke="#000000"/><path d="M227.42186,176.7201l-0.18744,-0.0518l0.03714,-0.1344l0.18744,0.0518z" stroke="#000000"/><path d="M227.55769,176.22866l-0.18744,-0.0518l0.03714,-0.1344l0.18744,0.0518z" stroke="#000000"/><path d="M227.38111,176.86747l-0.18744,-0.0518l0.02151,-0.0778l0.18744,0.0518z" stroke="#000000"/><path d="M227.61407,176.02467l-0.18744,-0.0518l0.02151,-0.0778l0.18744,0.0518z" stroke="#000000"/><path d="M227.2285,176.42426l-0.18744,-0.0518l0.04747,-0.17175l0.18744,0.0518z" stroke="#000000"/><path d="M227.16628,176.64944l-0.18744,-0.0518l0.03714,-0.1344l0.18744,0.0518z" stroke="#000000"/><path d="M227.3021,176.15804l-0.18744,-0.0518l0.03714,-0.1344l0.18744,0.0518z" stroke="#000000"/><path d="M227.12553,176.79683l-0.18744,-0.0518l0.02151,-0.0778l0.18744,0.0518z" stroke="#000000"/><path d="M227.35848,175.95404l-0.18744,-0.0518l0.02151,-0.0778l0.18744,0.0518z" stroke="#000000"/><path d="M226.9729,176.35363l-0.18744,-0.0518l0.04748,-0.17174l0.18744,0.0518z" stroke="#000000"/><path d="M226.91068,176.5788l-0.18744,-0.0518l0.03714,-0.1344l0.18744,0.0518z" stroke="#000000"/><path d="M227.04651,176.08739l-0.18744,-0.0518l0.03714,-0.1344l0.18744,0.0518z" stroke="#000000"/><path d="M226.86993,176.72617l-0.18744,-0.0518l0.0215,-0.0778l0.18744,0.0518z" stroke="#000000"/><path d="M227.10288,175.88339l-0.18744,-0.0518l0.02151,-0.07778l0.18744,0.0518z" stroke="#000000"/></g><g data-paper-data="{&quot;index&quot;:null}" fill-opacity="0.68627" fill="#000000" stroke-width="0" stroke-linecap="butt"><path d="M234.65064,168.88494l-0.56794,-1.20931l0.9744,-0.45762l0.56794,1.2093z" stroke="#000000"/><path d="M234.56401,169.23184l-0.15118,-0.32189l1.37459,-0.64557l0.15117,0.32189z" stroke="none"/><path d="M235.10747,168.91819l-0.10624,-0.2262l0.23753,-0.11157l0.10624,0.2262z" stroke="#000000"/><path d="M234.79599,169.06448l-0.10624,-0.2262l0.1859,-0.08732l0.10625,0.2262z" stroke="#000000"/><path d="M235.47575,168.74524l-0.10624,-0.2262l0.18591,-0.08731l0.10624,0.2262z" stroke="#000000"/><path d="M234.59211,169.1602l-0.10624,-0.2262l0.10761,-0.05053l0.10623,0.2262z" stroke="#000000"/><path d="M235.75792,168.6127l-0.10624,-0.2262l0.10761,-0.05053l0.10624,0.2262z" stroke="#000000"/><path d="M234.55637,168.84248l-0.0613,-0.13049l1.08749,-0.51074l0.06129,0.13049z" stroke="#000000"/><path d="M234.06765,167.73404l-0.04495,-0.0957l1.03529,-0.48623l0.04494,0.0957z" stroke="#000000"/><path d="M234.94213,168.46491l-0.08268,-0.17601l0.16128,-0.07575l0.08268,0.17601z" stroke="#000000"/><path d="M234.73069,168.56418l-0.08266,-0.17601l0.12621,-0.05928l0.08266,0.17601z" stroke="#000000"/><path d="M235.19217,168.34745l-0.08266,-0.17601l0.12621,-0.05928l0.08266,0.17601z" stroke="#000000"/><path d="M234.59228,168.62917l-0.08266,-0.17601l0.07304,-0.03429l0.08268,0.17601z" stroke="#000000"/><path d="M235.38372,168.25748l-0.08268,-0.17603l0.07305,-0.03429l0.08266,0.17601z" stroke="#000000"/><path d="M234.82938,168.22486l-0.08266,-0.17603l0.16128,-0.07573l0.08266,0.17601z" stroke="#000000"/><path d="M234.61796,168.32417l-0.08266,-0.17601l0.12621,-0.05928l0.08266,0.17601z" stroke="#000000"/><path d="M235.07944,168.10743l-0.08268,-0.17601l0.12621,-0.05928l0.08266,0.17601z" stroke="#000000"/><path d="M234.47955,168.38917l-0.08268,-0.17601l0.07305,-0.03431l0.08268,0.17603z" stroke="#000000"/><path d="M235.27099,168.01747l-0.08266,-0.17601l0.07305,-0.03429l0.08266,0.176z" stroke="#000000"/><path d="M234.71668,167.98483l-0.08268,-0.17601l0.16128,-0.07575l0.08266,0.17601z" stroke="#000000"/><path d="M234.50523,168.08417l-0.08268,-0.17601l0.12621,-0.05928l0.08268,0.17601z" stroke="#000000"/><path d="M234.9667,167.86744l-0.08266,-0.17601l0.12621,-0.05928l0.08266,0.17601z" stroke="#000000"/><path d="M234.36681,168.14916l-0.08266,-0.17601l0.07305,-0.03431l0.08266,0.17603z" stroke="#000000"/><path d="M235.15827,167.77744l-0.08268,-0.17601l0.07305,-0.03431l0.08266,0.17601z" stroke="#000000"/><path d="M234.60394,167.74481l-0.08266,-0.17603l0.16128,-0.07573l0.08266,0.17601z" stroke="#000000"/><path d="M234.3925,167.84414l-0.08266,-0.176l0.12621,-0.05928l0.08266,0.17601z" stroke="#000000"/><path d="M234.85399,167.62741l-0.08268,-0.17603l0.12621,-0.05928l0.08266,0.17601z" stroke="#000000"/><path d="M234.25408,167.90913l-0.08268,-0.17603l0.07305,-0.03429l0.08268,0.17601z" stroke="#000000"/><path d="M235.04554,167.53739l-0.08268,-0.17601l0.07305,-0.03431l0.08266,0.17601z" stroke="#000000"/></g></g></g></g></svg>