<svg version="1.1" xmlns="http://www.w3.org/2000/svg" xmlns:xlink="http://www.w3.org/1999/xlink" width="84.5" height="38.32609" viewBox="0,0,84.5,38.32609"><defs><linearGradient x1="240" y1="161.58695" x2="240" y2="198.4131" gradientUnits="userSpaceOnUse" id="color-1"><stop offset="0" stop-color="#4b8455"/><stop offset="1" stop-color="#72b235"/></linearGradient><linearGradient x1="240" y1="161.58695" x2="240" y2="198.4131" gradientUnits="userSpaceOnUse" id="color-2"><stop offset="0" stop-color="#246037"/><stop offset="1" stop-color="#a0ff67"/></linearGradient><radialGradient cx="265.16667" cy="181.96296" r="15.7294" gradientUnits="userSpaceOnUse" id="color-3"><stop offset="0" stop-color="#ffffff" stop-opacity="0.59123"/><stop offset="1" stop-color="#ffffff" stop-opacity="0"/></radialGradient><linearGradient x1="265.16667" y1="166.51852" x2="265.16667" y2="197.40741" gradientUnits="userSpaceOnUse" id="color-4"><stop offset="0" stop-color="#12301b"/><stop offset="1" stop-color="#446d2c"/></linearGradient><radialGradient cx="256.76362" cy="184.09091" r="5.23556" gradientUnits="userSpaceOnUse" id="color-5"><stop offset="0" stop-color="#dcb094"/><stop offset="1" stop-color="#50402f"/></radialGradient><radialGradient cx="256.78242" cy="184.05978" r="5.29142" gradientUnits="userSpaceOnUse" id="color-6"><stop offset="0" stop-color="#cca288"/><stop offset="1" stop-color="#3d3124"/></radialGradient><radialGradient cx="256.75075" cy="184.04092" r="5.23556" gradientUnits="userSpaceOnUse" id="color-7"><stop offset="0" stop-color="#ffcbab"/><stop offset="1" stop-color="#544331"/></radialGradient><radialGradient cx="256.78286" cy="184.02258" r="5.29141" gradientUnits="userSpaceOnUse" id="color-8"><stop offset="0" stop-color="#bc957e"/><stop offset="1" stop-color="#33291e"/></radialGradient><radialGradient cx="256.76761" cy="184.08281" r="2.99869" gradientUnits="userSpaceOnUse" id="color-9"><stop offset="0" stop-color="#696969" stop-opacity="0.69582"/><stop offset="1" stop-color="#1b1b1b" stop-opacity="0.71195"/></radialGradient><radialGradient cx="256.76052" cy="184.09726" r="5.33776" gradientUnits="userSpaceOnUse" id="color-10"><stop offset="0" stop-color="#080504"/><stop offset="1" stop-color="#21150d"/></radialGradient><radialGradient cx="256.76727" cy="184.08281" r="5.28141" gradientUnits="userSpaceOnUse" id="color-11"><stop offset="0" stop-color="#110b08"/><stop offset="1" stop-color="#26180e"/></radialGradient><radialGradient cx="256.70777" cy="184.08065" r="5.33775" gradientUnits="userSpaceOnUse" id="color-12"><stop offset="0" stop-color="#170e0b"/><stop offset="1" stop-color="#332014"/></radialGradient><radialGradient cx="256.72139" cy="184.07487" r="5.28141" gradientUnits="userSpaceOnUse" id="color-13"><stop offset="0" stop-color="#231511"/><stop offset="1" stop-color="#312014"/></radialGradient><linearGradient x1="268.83169" y1="191.70548" x2="269.43217" y2="191.9772" gradientUnits="userSpaceOnUse" id="color-14"><stop offset="0" stop-color="#525252"/><stop offset="1" stop-color="#363636"/></linearGradient><linearGradient x1="268.83169" y1="191.70548" x2="269.43217" y2="191.9772" gradientUnits="userSpaceOnUse" id="color-15"><stop offset="0" stop-color="#1f1f1f"/><stop offset="1" stop-color="#000000"/></linearGradient><linearGradient x1="263.06367" y1="189.83057" x2="270.47379" y2="193.18353" gradientUnits="userSpaceOnUse" id="color-16"><stop offset="0" stop-color="#2f2f2f"/><stop offset="1" stop-color="#040404"/></linearGradient><linearGradient x1="263.06367" y1="189.83057" x2="270.47379" y2="193.18353" gradientUnits="userSpaceOnUse" id="color-17"><stop offset="0" stop-color="#1f1f1f"/><stop offset="1" stop-color="#000000"/></linearGradient><linearGradient x1="266.51988" y1="188.94359" x2="268.87564" y2="190.00954" gradientUnits="userSpaceOnUse" id="color-18"><stop offset="0" stop-color="#444444"/><stop offset="1" stop-color="#252525"/></linearGradient><linearGradient x1="265.07477" y1="190.10811" x2="268.86244" y2="191.82197" gradientUnits="userSpaceOnUse" id="color-19"><stop offset="0" stop-color="#444444"/><stop offset="1" stop-color="#252525"/></linearGradient><linearGradient x1="263.68146" y1="191.48506" x2="268.76644" y2="193.78592" gradientUnits="userSpaceOnUse" id="color-20"><stop offset="0" stop-color="#444444"/><stop offset="1" stop-color="#252525"/></linearGradient><linearGradient x1="262.25344" y1="192.83822" x2="268.72024" y2="195.76433" gradientUnits="userSpaceOnUse" id="color-21"><stop offset="0" stop-color="#444444"/><stop offset="1" stop-color="#252525"/></linearGradient><linearGradient x1="269.1449" y1="189.47532" x2="271.01599" y2="190.32196" gradientUnits="userSpaceOnUse" id="color-22"><stop offset="0" stop-color="#b2b2b2"/><stop offset="1" stop-color="#363636"/></linearGradient><linearGradient x1="269.1449" y1="189.47532" x2="271.01599" y2="190.32196" gradientUnits="userSpaceOnUse" id="color-23"><stop offset="0" stop-color="#1f1f1f"/><stop offset="1" stop-color="#000000"/></linearGradient><linearGradient x1="271.23626" y1="172.06023" x2="278.64637" y2="175.41318" gradientUnits="userSpaceOnUse" id="color-24"><stop offset="0" stop-color="#9c8f73"/><stop offset="1" stop-color="#443a22"/></linearGradient><linearGradient x1="271.2373" y1="172.05791" x2="278.64742" y2="175.41086" gradientUnits="userSpaceOnUse" id="color-25"><stop offset="0" stop-color="#272727"/><stop offset="1" stop-color="#000000"/></linearGradient><linearGradient x1="274.54254" y1="169.67263" x2="278.19961" y2="171.3274" gradientUnits="userSpaceOnUse" id="color-26"><stop offset="0" stop-color="#f1f5f8"/><stop offset="1" stop-color="#6d7680"/></linearGradient><linearGradient x1="274.54267" y1="169.67234" x2="278.19973" y2="171.32711" gradientUnits="userSpaceOnUse" id="color-27"><stop offset="0" stop-color="#272727"/><stop offset="1" stop-color="#000000"/></linearGradient><linearGradient x1="272.85683" y1="171.17831" x2="278.30555" y2="173.64375" gradientUnits="userSpaceOnUse" id="color-28"><stop offset="0" stop-color="#45423b"/><stop offset="1" stop-color="#262018"/></linearGradient><linearGradient x1="272.82716" y1="188.07852" x2="276.5001" y2="189.74046" gradientUnits="userSpaceOnUse" id="color-29"><stop offset="0" stop-color="#36322b"/><stop offset="1" stop-color="#1f1c19"/></linearGradient><linearGradient x1="272.77006" y1="188.20471" x2="275.28229" y2="189.34145" gradientUnits="userSpaceOnUse" id="color-30"><stop offset="0" stop-color="#272727"/><stop offset="1" stop-color="#000000"/></linearGradient><linearGradient x1="265.54114" y1="184.73535" x2="261.86821" y2="183.07341" gradientUnits="userSpaceOnUse" id="color-31"><stop offset="0" stop-color="#6b6757"/><stop offset="1" stop-color="#827969"/></linearGradient><linearGradient x1="262.97181" y1="183.72478" x2="265.48404" y2="184.86152" gradientUnits="userSpaceOnUse" id="color-32"><stop offset="0" stop-color="#272727"/><stop offset="1" stop-color="#000000"/></linearGradient><linearGradient x1="266.87159" y1="181.76786" x2="274.19401" y2="185.08114" gradientUnits="userSpaceOnUse" id="color-33"><stop offset="0" stop-color="#635f54"/><stop offset="1" stop-color="#211f1a"/></linearGradient><linearGradient x1="266.87159" y1="181.76786" x2="274.19401" y2="185.08114" gradientUnits="userSpaceOnUse" id="color-34"><stop offset="0" stop-color="#272727"/><stop offset="1" stop-color="#000000"/></linearGradient><linearGradient x1="270.64164" y1="183.88087" x2="273.51376" y2="185.18046" gradientUnits="userSpaceOnUse" id="color-35"><stop offset="0" stop-color="#4a382c"/><stop offset="1" stop-color="#301f1b"/></linearGradient><linearGradient x1="270.64164" y1="183.88087" x2="273.51376" y2="185.18046" gradientUnits="userSpaceOnUse" id="color-36"><stop offset="0" stop-color="#351c12"/><stop offset="1" stop-color="#1a1310"/></linearGradient><linearGradient x1="270.63342" y1="183.87847" x2="273.4989" y2="185.17504" gradientUnits="userSpaceOnUse" id="color-37"><stop offset="0" stop-color="#351c12"/><stop offset="1" stop-color="#1a1310"/></linearGradient><linearGradient x1="270.64329" y1="183.85664" x2="273.50877" y2="185.15322" gradientUnits="userSpaceOnUse" id="color-38"><stop offset="0" stop-color="#351c12"/><stop offset="1" stop-color="#1a1310"/></linearGradient><linearGradient x1="267.2023" y1="182.34217" x2="270.07443" y2="183.64174" gradientUnits="userSpaceOnUse" id="color-39"><stop offset="0" stop-color="#4a382c"/><stop offset="1" stop-color="#301f1b"/></linearGradient><linearGradient x1="267.2023" y1="182.34217" x2="270.07443" y2="183.64174" gradientUnits="userSpaceOnUse" id="color-40"><stop offset="0" stop-color="#351c12"/><stop offset="1" stop-color="#1a1310"/></linearGradient><linearGradient x1="267.19408" y1="182.33975" x2="270.05956" y2="183.63632" gradientUnits="userSpaceOnUse" id="color-41"><stop offset="0" stop-color="#351c12"/><stop offset="1" stop-color="#1a1310"/></linearGradient><linearGradient x1="267.20397" y1="182.31793" x2="270.06944" y2="183.6145" gradientUnits="userSpaceOnUse" id="color-42"><stop offset="0" stop-color="#351c12"/><stop offset="1" stop-color="#1a1310"/></linearGradient><linearGradient x1="269.07408" y1="187.34523" x2="271.9462" y2="188.64481" gradientUnits="userSpaceOnUse" id="color-43"><stop offset="0" stop-color="#4a382c"/><stop offset="1" stop-color="#301f1b"/></linearGradient><linearGradient x1="269.07408" y1="187.34523" x2="271.9462" y2="188.64481" gradientUnits="userSpaceOnUse" id="color-44"><stop offset="0" stop-color="#351c12"/><stop offset="1" stop-color="#1a1310"/></linearGradient><linearGradient x1="269.06586" y1="187.34281" x2="271.93134" y2="188.63939" gradientUnits="userSpaceOnUse" id="color-45"><stop offset="0" stop-color="#351c12"/><stop offset="1" stop-color="#1a1310"/></linearGradient><linearGradient x1="269.07574" y1="187.32101" x2="271.94121" y2="188.61758" gradientUnits="userSpaceOnUse" id="color-46"><stop offset="0" stop-color="#351c12"/><stop offset="1" stop-color="#1a1310"/></linearGradient><linearGradient x1="265.63475" y1="185.80651" x2="268.50685" y2="187.10609" gradientUnits="userSpaceOnUse" id="color-47"><stop offset="0" stop-color="#4a382c"/><stop offset="1" stop-color="#301f1b"/></linearGradient><linearGradient x1="265.63475" y1="185.80651" x2="268.50685" y2="187.10609" gradientUnits="userSpaceOnUse" id="color-48"><stop offset="0" stop-color="#351c12"/><stop offset="1" stop-color="#1a1310"/></linearGradient><linearGradient x1="265.62654" y1="185.8041" x2="268.49199" y2="187.10068" gradientUnits="userSpaceOnUse" id="color-49"><stop offset="0" stop-color="#351c12"/><stop offset="1" stop-color="#1a1310"/></linearGradient><linearGradient x1="265.6364" y1="185.78229" x2="268.50188" y2="187.07886" gradientUnits="userSpaceOnUse" id="color-50"><stop offset="0" stop-color="#351c12"/><stop offset="1" stop-color="#1a1310"/></linearGradient><linearGradient x1="268.87315" y1="178.33146" x2="275.40923" y2="181.28893" gradientUnits="userSpaceOnUse" id="color-51"><stop offset="0" stop-color="#515151"/><stop offset="1" stop-color="#131313"/></linearGradient><linearGradient x1="268.87315" y1="178.33146" x2="275.40923" y2="181.28893" gradientUnits="userSpaceOnUse" id="color-52"><stop offset="0" stop-color="#272727"/><stop offset="1" stop-color="#000000"/></linearGradient><linearGradient x1="269.85709" y1="177.06329" x2="275.66695" y2="179.69214" gradientUnits="userSpaceOnUse" id="color-53"><stop offset="0" stop-color="#272727"/><stop offset="1" stop-color="#000000"/></linearGradient><linearGradient x1="268.5832" y1="179.93905" x2="274.30228" y2="182.52683" gradientUnits="userSpaceOnUse" id="color-54"><stop offset="0" stop-color="#272727"/><stop offset="1" stop-color="#000000"/></linearGradient><linearGradient x1="262.14303" y1="178.11503" x2="264.81616" y2="177.78044" gradientUnits="userSpaceOnUse" id="color-55"><stop offset="0" stop-color="#c79c62"/><stop offset="1" stop-color="#af874f"/></linearGradient><radialGradient cx="263.47959" cy="177.94774" r="3.92874" gradientUnits="userSpaceOnUse" id="color-56"><stop offset="0" stop-color="#ffdb99"/><stop offset="1" stop-color="#785e40"/></radialGradient><radialGradient cx="265.69942" cy="170.16368" r="2.80046" gradientUnits="userSpaceOnUse" id="color-57"><stop offset="0" stop-color="#7c7c7c"/><stop offset="1" stop-color="#373737"/></radialGradient><radialGradient cx="258.75099" cy="169.51619" r="3.4071" gradientUnits="userSpaceOnUse" id="color-58"><stop offset="0" stop-color="#7c7c7c"/><stop offset="1" stop-color="#373737"/></radialGradient><radialGradient cx="259.26224" cy="170.72985" r="3.4071" gradientUnits="userSpaceOnUse" id="color-59"><stop offset="0" stop-color="#ffdb99"/><stop offset="1" stop-color="#785e40"/></radialGradient><radialGradient cx="261.60105" cy="169.31916" r="2.69399" gradientUnits="userSpaceOnUse" id="color-60"><stop offset="0" stop-color="#a2a2a2"/><stop offset="1" stop-color="#7a7a7a"/></radialGradient></defs><g transform="translate(-197.75,-160.83701)"><g data-paper-data="{&quot;isPaintingLayer&quot;:true}" fill-rule="nonzero" stroke-linejoin="miter" stroke-miterlimit="10" stroke-dasharray="" stroke-dashoffset="0" style="mix-blend-mode: normal"><path d="M198.5,198.4131v-36.82609h83v36.82609z" fill="url(#color-1)" stroke="url(#color-2)" stroke-width="1.5" stroke-linecap="butt"/><path d="M280.5,181.96296c0,8.52973 -6.86497,15.44445 -15.33333,15.44445c-8.46837,0 -15.33333,-6.91472 -15.33333,-15.44445c0,-8.52973 6.86497,-15.44445 15.33333,-15.44445c8.46837,0 15.33333,6.91472 15.33333,15.44445z" fill="url(#color-3)" stroke="url(#color-4)" stroke-width="0" stroke-linecap="butt"/><g stroke-linecap="butt"><path d="M259.07796,189.45595c0,0 -1.37701,-1.0109 -3.53981,-5.34675c-1.85984,-3.72848 -1.60689,-4.97944 -1.60689,-4.97944l0.40215,-0.41c0,0 0.69809,3.19024 1.72804,5.12564c1.2875,2.41938 3.53706,5.24222 3.53706,5.24222z" data-paper-data="{&quot;index&quot;:null}" fill="url(#color-5)" stroke="#676767" stroke-width="0"/><path d="M262.3947,182.94871c0,0 -3.60618,0.15589 -6.2765,0.77273c-2.13615,0.49345 -5.00108,2.06093 -5.00108,2.06093l0.04533,-0.57251c0,0 0.7777,-1.01198 4.81128,-2.05635c4.69065,-1.21451 6.35716,-0.83927 6.35716,-0.83927z" data-paper-data="{&quot;index&quot;:null}" fill="url(#color-6)" stroke="#676767" stroke-width="0"/><path d="M251.32239,182.16036c0,0 3.18434,1.69964 5.79728,2.52648c2.09024,0.66143 5.3542,0.76869 5.3542,0.76869l-0.33017,0.46991c0,0 -1.18425,0.47587 -5.18843,-0.6761c-4.65646,-1.33963 -5.90058,-2.5102 -5.90058,-2.5102z" data-paper-data="{&quot;index&quot;:null}" fill="url(#color-7)" stroke="#676767" stroke-width="0"/><path d="M259.56858,178.91648c0,0 0.04584,1.70762 -2.05295,6.0748c-1.8048,3.75543 -2.94808,4.3227 -2.94808,4.3227l-0.57047,-0.06625c0,0 2.09199,-2.50768 2.98928,-4.50806c1.12165,-2.50059 1.97207,-6.00853 1.97207,-6.00853z" data-paper-data="{&quot;index&quot;:null}" fill="url(#color-8)" stroke="#676767" stroke-width="0"/><path d="M253.76893,184.08281c0,-1.65612 1.34256,-2.99868 2.99868,-2.99868c1.65612,0 2.99869,1.34256 2.99869,2.99868c0,1.65612 -1.34256,2.99869 -2.99869,2.99869c-1.65612,0 -2.99868,-1.34256 -2.99868,-2.99869z" fill="url(#color-9)" stroke="none" stroke-width="0.5"/><path d="M253.95424,189.24806c0,0 -0.23466,-1.76968 1.88251,-6.17511c1.8206,-3.78831 3.16231,-4.31344 3.16231,-4.31344l0.57547,0.06684c0,0 -1.85124,2.69451 -2.75637,4.71241c-1.13147,2.52248 -2.24842,5.89626 -2.24842,5.89626z" fill="url(#color-10)" stroke="#676767" stroke-width="0"/><path d="M262.22562,186.04215c0,0 -3.24725,-1.44404 -5.87457,-2.30447c-2.10176,-0.68831 -5.34068,-1.13209 -5.34068,-1.13209l0.33779,-0.47065c0,0 1.29131,-0.63913 5.31871,0.56334c4.68346,1.39836 5.83463,2.76278 5.83463,2.76278z" data-paper-data="{&quot;index&quot;:null}" fill="url(#color-11)" stroke="#676767" stroke-width="0"/><path d="M251.05011,185.21292c0,0 3.5249,-0.4528 6.21691,-1.08229c2.15352,-0.50356 5.1517,-1.80676 5.1517,-1.80676l-0.04417,0.57764c0,0 -0.77145,1.21689 -4.8375,2.28135c-4.72842,1.23785 -6.42082,0.66992 -6.42082,0.66992z" data-paper-data="{&quot;index&quot;:null}" fill="url(#color-12)" stroke="#676767" stroke-width="0"/><path d="M254.33171,178.68318c0,0 1.54964,0.88626 3.76961,5.24078c1.909,3.74454 1.51321,5.12993 1.51321,5.12993l-0.40203,0.41714c0,0 -1.02056,-3.10578 -2.07659,-5.04897c-1.32011,-2.42909 -3.32603,-5.36272 -3.32603,-5.36272z" data-paper-data="{&quot;index&quot;:null}" fill="url(#color-13)" stroke="#676767" stroke-width="0"/></g><g stroke-width="0.5"><path d="M268.38232,192.6986l0.89873,-1.98622l0.60049,0.27171l-0.89873,1.98622z" fill="url(#color-14)" stroke="url(#color-15)" stroke-linecap="butt"/><path d="M261.38712,193.53578c0,0 6.14444,-6.21249 7.05851,-5.73342c1.0457,0.54804 0.35161,9.08637 0.35161,9.08637z" fill="url(#color-16)" stroke="url(#color-17)" stroke-linecap="butt"/><path d="M268.87564,190.00954l-2.35576,-1.06594" fill="none" stroke="url(#color-18)" stroke-linecap="round"/><path d="M265.07477,190.10811l3.7877,1.71386" fill="none" stroke="url(#color-19)" stroke-linecap="round"/><path d="M268.76644,193.78592l-5.085,-2.30087" fill="none" stroke="url(#color-20)" stroke-linecap="round"/><path d="M268.72023,195.76433l-6.46679,-2.92611" fill="none" stroke="url(#color-21)" stroke-linecap="round"/><path d="M271.01599,190.32196c-0.40508,0.87661 -0.46984,0.96071 -1.37201,0.54127c-0.90246,-0.41959 -0.88864,-0.55696 -0.4991,-1.38791c0.43008,-0.91743 0.45647,-0.98278 1.37201,-0.54127c0.8772,0.42303 0.94391,0.4253 0.4991,1.38791z" fill="url(#color-22)" stroke="url(#color-23)" stroke-linecap="butt"/><path d="M269.55971,175.76543c0,0 3.90637,-7.36429 7.02002,-5.75083c3.31268,1.22602 0.3901,9.10378 0.3901,9.10378z" fill="url(#color-24)" stroke="url(#color-25)" stroke-linecap="butt"/><path d="M274.33041,170.14143c0,0 0.66914,-0.85261 2.23401,-0.11864c1.59727,0.6882 1.42306,1.7734 1.42306,1.7734z" fill="url(#color-26)" stroke="url(#color-27)" stroke-linecap="butt"/><path d="M272.24722,172.02962c0,0 0.22304,-0.25224 0.51369,-0.54103c0.34109,-0.33889 0.8192,-0.70821 1.79224,-0.4837c0.03775,0.00871 0.73398,0.20109 0.73398,0.20109l1.41252,0.64438c0,0 0.47317,0.25615 0.4988,0.27596c0.75362,0.58209 0.84326,1.22801 0.8306,1.72844c-0.0108,0.4267 -0.05373,0.76673 -0.05373,0.76673z" data-paper-data="{&quot;index&quot;:null}" fill="url(#color-28)" stroke="#000000" stroke-linecap="butt"/><path d="M274.16245,171.81546c0.16291,-0.36003 0.58683,-0.51983 0.94687,-0.35691c0.36003,0.16292 0.51983,0.58683 0.35692,0.94686c-0.16291,0.36003 -0.58683,0.51984 -0.94686,0.35692c-0.36003,-0.16292 -0.51984,-0.58684 -0.35692,-0.94687z" fill="#caff00" stroke="none" stroke-linecap="butt"/><path d="M275.6628,172.51155c0.16291,-0.36003 0.58683,-0.51983 0.94686,-0.35692c0.36003,0.16292 0.51984,0.58683 0.35692,0.94687c-0.16291,0.36003 -0.58683,0.51984 -0.94687,0.35692c-0.36003,-0.16292 -0.51983,-0.58684 -0.35692,-0.94687z" fill="#00fcff" stroke="none" stroke-linecap="butt"/><path d="M271.46378,191.09165l3.38863,-7.48899c0,0 -1.33229,5.45363 -1.552,6.8165c-0.17383,1.07826 -0.10045,3.52431 -0.10045,3.52431z" fill="url(#color-29)" stroke="url(#color-30)" stroke-linecap="butt"/><path d="M260.88946,188.32682c0,0 1.88583,-1.55953 2.58106,-2.40188c0.87872,-1.06469 4.09587,-5.66545 4.09587,-5.66545l-3.38863,7.48899z" data-paper-data="{&quot;index&quot;:null}" fill="url(#color-31)" stroke="url(#color-32)" stroke-linecap="butt"/><path d="M264.15351,187.77489l5.43614,-12.01406l7.32243,3.31327l-5.43614,12.01404z" fill="url(#color-33)" stroke="url(#color-34)" stroke-linecap="butt"/><path d="M269.96512,185.37602l1.35305,-2.9903l2.87213,1.29959l-1.35306,2.99029z" fill="url(#color-35)" stroke="url(#color-36)" stroke-linecap="butt"/><path d="M274.15707,183.72048l-4.1818,1.61254" fill="none" stroke="url(#color-37)" stroke-linecap="round"/><path d="M272.83416,186.64414l-1.50032,-4.23615" fill="none" stroke="url(#color-38)" stroke-linecap="round"/><path d="M266.52576,183.83731l1.35305,-2.99029l2.87212,1.29959l-1.35305,2.99029z" fill="url(#color-39)" stroke="url(#color-40)" stroke-linecap="butt"/><path d="M266.53593,183.79431l4.1818,-1.61254" fill="none" stroke="url(#color-41)" stroke-linecap="round"/><path d="M269.39483,185.10542l-1.50032,-4.23615" fill="none" stroke="url(#color-42)" stroke-linecap="round"/><path d="M268.39754,188.84038l1.35305,-2.9903l2.87213,1.29959l-1.35306,2.9903z" fill="url(#color-43)" stroke="url(#color-44)" stroke-linecap="butt"/><path d="M272.5895,187.18484l-4.1818,1.61254" fill="none" stroke="url(#color-45)" stroke-linecap="round"/><path d="M269.76626,185.87235l1.50032,4.23615" fill="none" stroke="url(#color-46)" stroke-linecap="round"/><path d="M264.95822,187.30166l1.35305,-2.9903l2.87212,1.29958l-1.35305,2.9903z" fill="url(#color-47)" stroke="url(#color-48)" stroke-linecap="butt"/><path d="M269.15017,185.64612l-4.1818,1.61254" fill="none" stroke="url(#color-49)" stroke-linecap="round"/><path d="M266.32695,184.33362l1.50032,4.23616" fill="none" stroke="url(#color-50)" stroke-linecap="round"/><path d="M268.058,180.13292l1.63027,-3.60294l6.53609,2.95746l-1.63027,3.60294z" fill="url(#color-51)" stroke="url(#color-52)" stroke-linecap="butt"/><path d="M275.66694,179.69214l-5.80985,-2.62885" fill="none" stroke="url(#color-53)" stroke-linecap="round"/><path d="M268.5832,179.93905l5.71907,2.58778" fill="none" stroke="url(#color-54)" stroke-linecap="round"/></g><g stroke-width="0" stroke-linecap="butt"><path d="M262.83189,183.61853l-1.37772,-11.007l2.67313,-0.33459l1.37772,11.00701z" fill="url(#color-55)" stroke="url(#color-56)"/><path d="M265.36506,171.95824l-0.44234,-3.53396c0,0 1.48442,0.54213 2.10071,1.42125c0.77062,1.09927 1.66116,3.75251 1.66116,3.75251c0,0 -1.1195,-0.94644 -1.81394,-1.40968c-0.5412,-0.36102 -1.50558,-0.23011 -1.50558,-0.23011z" fill="url(#color-57)" stroke="none"/><path d="M259.01712,174.19422l-0.84632,-6.76145l1.33657,-0.16729l0.84632,6.76145z" fill="url(#color-58)" stroke="url(#color-59)"/><path d="M260.14713,173.01468l-0.54125,-4.32418l5.34626,-0.66917l0.54125,4.32418z" fill="url(#color-60)" stroke="none"/></g><text transform="translate(201.08,170.56883) scale(0.21667,0.21667)" font-size="40" xml:space="preserve" fill="#ffffff" fill-rule="nonzero" stroke="none" stroke-width="1" stroke-linecap="butt" stroke-linejoin="miter" stroke-miterlimit="10" stroke-dasharray="" stroke-dashoffset="0" font-family="Serif" font-weight="normal" text-anchor="start" style="mix-blend-mode: normal"><tspan x="0" dy="0">Megastructures</tspan></text><text transform="translate(201.28,176.27371) scale(0.13069,0.13069)" font-size="40" xml:space="preserve" fill="#ffffff" fill-rule="nonzero" stroke="none" stroke-width="1" stroke-linecap="butt" stroke-linejoin="miter" stroke-miterlimit="10" stroke-dasharray="" stroke-dashoffset="0" font-family="Serif" font-weight="normal" text-anchor="start" style="mix-blend-mode: normal"><tspan x="0" dy="0">(Base Research)</tspan></text></g></g></svg>