<svg version="1.1" xmlns="http://www.w3.org/2000/svg" xmlns:xlink="http://www.w3.org/1999/xlink" width="54.40445" height="118.92079" viewBox="0,0,54.40445,118.92079"><defs><linearGradient x1="239.74789" y1="149.41535" x2="239.74789" y2="156.26644" gradientUnits="userSpaceOnUse" id="color-1"><stop offset="0" stop-color="#736b4f"/><stop offset="1" stop-color="#bec286"/></linearGradient><radialGradient cx="235.45423" cy="124.47792" r="13.11833" gradientUnits="userSpaceOnUse" id="color-2"><stop offset="0" stop-color="#ccbe7a"/><stop offset="1" stop-color="#948f62"/></radialGradient></defs><g transform="translate(-213.15394,-115.40861)"><g data-paper-data="{&quot;isPaintingLayer&quot;:true}" fill-rule="nonzero" stroke-linejoin="miter" stroke-miterlimit="10" stroke-dasharray="" stroke-dashoffset="0" style="mix-blend-mode: normal"><g><path d="M227.60938,227.62577l2.68962,-33.81221c0,0 6.68268,-2.3955 9.74795,-2.49262c3.62689,-0.11492 0.7404,4.22274 0.7404,4.22274c0,0 -3.08769,0.18617 -3.34806,1.63094c-0.79626,4.41842 -1.8308,30.1977 -1.8308,30.1977z" fill="#a69b98" stroke="#000000" stroke-width="0" stroke-linecap="butt"/><path d="M243.10801,232.046c0,0 -0.32407,1.95139 -1.15055,1.97758c-0.59245,0.01877 -2.64235,0.09739 -4.70412,0.08212c-1.2535,-0.00928 -1.92076,-0.55724 -2.8582,-0.67046c-1.18018,-0.14252 -2.93007,0.31342 -3.78496,0.14889c-1.57524,-0.30315 -2.39807,-0.70223 -2.39807,-0.70223c0,0 -0.30145,-1.01635 -0.33567,-1.57596c-0.0461,-0.75392 0.08391,-2.54094 0.08391,-2.54094c0,0 5.92748,-0.30743 8.24756,-0.18053c1.37286,0.07511 4.25892,0.51218 4.25892,0.51218c0,0 1.47851,0.56907 1.70556,0.98932c0.27805,0.5147 0.9356,1.96001 0.9356,1.96001z" data-paper-data="{&quot;index&quot;:null}" fill="#141415" stroke="#000000" stroke-width="0" stroke-linecap="butt"/><path d="M242.81714,231.42027c0,0 -0.3855,0.01222 -1.21198,0.0384c-0.2481,0.00786 0.75276,1.5786 -2.57458,1.41535c-3.14209,-0.15417 -2.81272,-1.09971 -3.91913,-1.14529c-2.31355,-0.09532 -2.56752,0.67668 -3.57153,0.55543c-0.34966,-0.04222 -0.51608,-0.09825 -1.81441,-0.91335c-0.89291,-0.56058 -0.72077,-1.72926 -1.34013,-2.33803c-0.90471,-0.88926 -0.86778,-1.85925 -0.86778,-1.85925l-0.17285,-3.04378c0,0 0.556,2.19031 1.42062,2.98773c0.7736,0.71347 2.31515,-0.09211 2.79857,-0.10756c0.84652,-0.02706 -0.792,-3.2446 0.01793,-3.25201c0.43551,-0.00399 3.71347,-0.35185 3.71347,-0.35185c0,0 0.23633,3.57419 0.46982,3.58696c1.37285,0.07511 4.62251,0.50067 4.62251,0.50067c0,0 1.47851,0.56907 1.70556,0.98932c0.27806,0.5147 0.72393,2.93727 0.72393,2.93727z" data-paper-data="{&quot;index&quot;:null}" fill="#252527" stroke="#000000" stroke-width="0" stroke-linecap="butt"/><path d="M236.67756,227.58286l-2.6318,1.17527" data-paper-data="{&quot;index&quot;:null}" fill="none" stroke="#ffffff" stroke-width="0.5" stroke-linecap="round"/><path d="M238.49553,227.52527l-2.49908,1.53502" data-paper-data="{&quot;index&quot;:null}" fill="none" stroke="#ffffff" stroke-width="0.5" stroke-linecap="round"/><path d="M239.59401,227.73304l-1.40831,1.50047" data-paper-data="{&quot;index&quot;:null}" fill="none" stroke="#ffffff" stroke-width="0.5" stroke-linecap="round"/><path d="M232.71088,224.91821l2.17389,-0.31152" data-paper-data="{&quot;index&quot;:null}" fill="none" stroke="#969696" stroke-width="0.5" stroke-linecap="round"/><path d="M233.22255,225.75121l1.92766,-0.42503" data-paper-data="{&quot;index&quot;:null}" fill="none" stroke="#969696" stroke-width="0.5" stroke-linecap="round"/></g><g stroke="#000000" stroke-width="0" stroke-linecap="butt"><path d="M257.699,202.61211c-0.51221,-0.04477 -0.41284,-3.93268 -1.72921,-4.48519c-0.45192,-0.18969 -0.93497,5.06244 -1.82077,4.73864c-0.52581,-0.19221 -0.20097,-3.09427 -0.4716,-4.51593c-0.13186,-0.6926 -0.2473,-5.54295 -0.2473,-5.54295c0,0 0.81204,-2.93646 0.42583,-6.42985c-0.09287,-0.84007 -0.18654,-3.59578 -0.29125,-4.45792c-0.24785,-2.04043 -0.5735,-4.05607 -0.69173,-5.31033c-0.25435,-2.69771 -0.6255,-15.65446 -0.6255,-15.65446l5.51014,-1.27264c0,0 -0.17904,6.57909 0.20111,13.55685c0.28595,5.24902 1.13855,10.82414 1.22857,13.43443c0.10654,3.0893 -0.25508,7.06791 -0.25508,7.06791c0,0 -0.07089,2.78972 -0.2731,5.12868c-0.18196,2.10457 -0.46686,3.78586 -0.96011,3.74275z" data-paper-data="{&quot;index&quot;:null}" fill="#8b8560"/><path d="M251.89646,153.73034c5.87433,-1.01374 6.5071,2.52987 6.65874,4.49628c0.15164,1.96641 1.95016,1.45197 -3.43714,2.35702c-4.55346,0.76497 -3.9276,0.36221 -4.07923,-1.6042c-0.15163,-1.9664 -2.20164,-4.72115 0.85763,-5.24908z" data-paper-data="{&quot;index&quot;:null}" fill="#42352d"/></g><g stroke="#000000" stroke-width="0" stroke-linecap="butt"><path d="M266.79866,205.78908c-0.51273,0.03849 -1.28401,-3.65237 -1.86167,-4.41477c-0.30922,-0.40814 -0.23079,4.98486 -1.16132,4.80856c-0.55239,-0.10465 -0.74875,-3.01746 -1.26847,-4.37509c-0.2532,-0.66141 -1.23023,-5.42353 -1.23023,-5.42353c0,0 0.27759,-3.0253 -0.72475,-6.40628c-0.24104,-0.81304 -0.82378,-3.51411 -1.08043,-4.347c-0.60739,-1.97119 -1.28704,-3.90537 -1.62679,-5.12257c-0.73079,-2.61797 -3.40255,-15.32898 -3.40255,-15.32898l5.20338,-2.14306c0,0 0.99452,6.51356 2.61102,13.32991c1.21601,5.12759 3.04844,10.48523 3.60172,13.04354c0.65481,3.02778 1.00658,7.00765 1.00658,7.00765c0,0 0.42666,2.76113 0.64368,5.09914c0.19526,2.10373 -0.21644,4.2354 -0.71017,4.27246z" data-paper-data="{&quot;index&quot;:null}" fill="#979068"/><path d="M252.81086,158.11589c5.60833,-1.94662 6.86259,1.44411 7.362,3.35785c0.49941,1.91374 2.18017,1.11661 -2.96756,2.87755c-4.351,1.48839 -3.80592,0.99045 -4.30533,-0.92328c-0.49941,-1.91374 -3.00983,-4.29832 -0.0891,-5.3121z" data-paper-data="{&quot;index&quot;:null}" fill="#4a3c33"/></g><g><path d="M239.10087,190.45311c3.6247,0.17081 10.43512,2.67683 10.43512,2.67683l1.44135,33.81541l-7.63087,-0.35959c0,0 -0.12338,-25.57233 -0.64334,-29.63324c-0.14737,-1.15091 -3.1964,-2.2315 -3.1964,-2.2315c0,0 -3.46927,-4.41226 -0.40585,-4.2679z" fill="#a69b98" stroke="#000000" stroke-width="0" stroke-linecap="butt"/><path d="M257.04365,234.32885c-0.5921,-0.0279 -2.64182,-0.11083 -4.696,-0.28827c-1.24889,-0.10788 -1.87096,-0.70664 -2.79658,-0.89326c-1.1653,-0.23493 -2.94566,0.0819 -3.78494,-0.14937c-1.5465,-0.42615 -2.33538,-0.88874 -2.33538,-0.88874c0,0 -0.22054,-1.03693 -0.21064,-1.59749c0.01335,-0.75522 0.28357,-2.52646 0.28357,-2.52646c0,0 5.9333,0.1599 8.23619,0.46897c1.36269,0.18289 4.20542,0.84569 4.20542,0.84569c0,0 1.42916,0.68363 1.62243,1.12044c0.2367,0.53498 0.77849,2.02754 0.77849,2.02754c0,0 -0.4766,1.91984 -1.30257,1.88092z" data-paper-data="{&quot;index&quot;:null}" fill="#141415" stroke="#000000" stroke-width="0" stroke-linecap="butt"/><path d="M256.89423,231.74421c-0.24794,-0.01168 0.62623,1.63294 -2.67796,1.20839c-3.12022,-0.4009 -2.71747,-1.31761 -3.81687,-1.4501c-2.29888,-0.27706 -2.61279,0.47257 -3.60415,0.2727c-0.34526,-0.06961 -0.50675,-0.13855 -1.73694,-1.05328c-0.84605,-0.62909 -0.58249,-1.78061 -1.15202,-2.43623c-0.83193,-0.95767 -0.71881,-1.92177 -0.71881,-1.92177l0.06718,-3.04795c0,0 0.38193,2.22726 1.18114,3.09024c0.71507,0.77213 2.31521,0.09033 2.79836,0.11296c0.84603,0.03963 -0.53426,-3.29684 0.27375,-3.24051c0.43448,0.03029 3.72964,-0.0586 3.72964,-0.0586c0,0 -0.04563,3.58171 0.18613,3.61282c1.36269,0.18289 4.56879,0.86282 4.56879,0.86282c0,0 1.42916,0.68363 1.62244,1.12044c0.2367,0.53498 0.49058,2.98513 0.49058,2.98513c0,0 -0.38527,-0.01816 -1.21126,-0.05708z" data-paper-data="{&quot;index&quot;:null}" fill="#252527" stroke="#000000" stroke-width="0" stroke-linecap="butt"/><path d="M252.28687,227.49262l-2.71611,0.96455" fill="none" stroke="#ffffff" stroke-width="0.5" stroke-linecap="round"/><path d="M251.49164,228.91187l2.61212,-1.33363" fill="none" stroke="#ffffff" stroke-width="0.5" stroke-linecap="round"/><path d="M255.18247,227.87191l-1.522,1.385" fill="none" stroke="#ffffff" stroke-width="0.5" stroke-linecap="round"/><path d="M248.54216,224.52413l2.19166,-0.13951" fill="none" stroke="#969696" stroke-width="0.5" stroke-linecap="round"/><path d="M248.98671,225.39484l1.95512,-0.27205" fill="none" stroke="#969696" stroke-width="0.5" stroke-linecap="round"/></g><path d="M235.91981,157.06516v-7.64977h7.65615l-0.1141,7.87798z" fill="url(#color-1)" stroke="#000000" stroke-width="0" stroke-linecap="butt"/><path d="M229.63981,193.59147c0,0 1.05415,-4.96832 0.53438,-10.35244c-0.16183,-1.6764 -0.21302,-5.68895 -0.71668,-7.54193c-0.59549,-2.19087 -2.53406,-2.77781 -2.61907,-4.12911c-0.1679,-2.66921 -1.07001,-6.79369 -0.41646,-11.37123c0.49266,-3.45066 3.45852,-6.29847 3.45852,-6.29847c0,0 3.98746,-0.28908 5.76508,0.07712c2.26281,0.46615 4.64106,2.49298 4.64106,2.49298c0,0 3.08552,-2.02276 4.99894,-2.43902c2.01891,-0.43921 5.48447,0.01677 5.48447,0.01677c0,0 2.62113,3.52189 2.84787,7.84095c0.214,4.0764 -0.63262,8.46783 -0.70926,10.13771c-0.07768,1.69256 -1.49509,2.1313 -2.13228,4.27482c-0.50833,1.71005 -0.54704,5.19044 -0.67745,7.18949c-0.3029,4.64296 0.14784,10.27371 0.14784,10.27371c0,0 -2.75697,-0.76932 -5.57187,-0.83754c-1.27833,-0.03098 -1.79126,1.00612 -2.99851,1.16532c-0.96496,0.12724 -2.63623,-0.61291 -3.56107,-0.64966c-0.69915,-0.02778 -2.04377,-0.5306 -2.53801,-0.53471c-0.99795,-0.0083 -1.61572,0.86529 -2.77345,1.02464c-1.34484,0.1851 -3.1641,-0.33939 -3.1641,-0.33939z" fill="#4f4037" stroke="#292e32" stroke-width="0" stroke-linecap="butt"/><g stroke="#000000" stroke-width="0" stroke-linecap="butt"><path d="M222.39316,198.70007c-0.29303,-2.33045 -0.46514,-5.1191 -0.46514,-5.1191c0,0 -0.51683,-3.9632 -0.51471,-7.06118c0.00181,-2.61764 0.69344,-8.24368 0.80637,-13.51308c0.1501,-7.00486 -0.26815,-13.58078 -0.26815,-13.58078l5.7841,0.97981c0,0 0.0699,12.98918 -0.09999,15.70308c-0.07898,1.26179 -0.34715,3.29677 -0.53343,5.35242c-0.0787,0.86856 -0.07916,3.63196 -0.14631,4.4778c-0.27921,3.51739 0.67005,6.41338 0.67005,6.41338c0,0 0.05064,4.86122 -0.06231,5.56154c-0.2318,1.43749 0.20882,4.32505 -0.33211,4.54549c-0.91123,0.3714 -1.9802,-5.84019 -2.20607,-5.3753c-0.42196,0.86843 -0.9685,5.23891 -1.50046,5.31105c-0.51224,0.06947 -0.86821,-1.59823 -1.13188,-3.69514z" data-paper-data="{&quot;index&quot;:null}" fill="#a0986e"/><path d="M228.90363,158.63232c-0.08867,1.97641 0.57741,2.34617 -4.19235,1.82347c-5.64322,-0.61841 -3.75177,-0.19946 -3.66312,-2.17587c0.08867,-1.97641 0.62291,-5.55725 6.77724,-4.85604c3.20508,0.36519 1.16689,3.23202 1.07823,5.20843z" fill="#615046"/></g><g stroke="#000000" stroke-width="0" stroke-linecap="butt"><path d="M213.27039,200.91453c0.20829,-2.33954 0.63199,-5.10118 0.63199,-5.10118c0,0 0.33614,-3.98261 0.99579,-7.00954c0.55736,-2.55761 2.42739,-7.90867 3.65619,-13.03403c1.63349,-6.81338 2.62052,-13.32826 2.62052,-13.32826l5.44435,2.18516c0,0 -2.68868,12.70806 -3.43073,15.32405c-0.345,1.21627 -1.03898,3.14796 -1.65734,5.11724c-0.26125,0.83207 -0.84826,3.53241 -1.0934,4.34473c-1.01943,3.37797 -0.70647,6.40948 -0.70647,6.40948c0,0 -2.83243,9.47583 -3.3313,9.58645c-1.45314,0.32221 0.1575,-5.81689 -0.2785,-5.42199c-0.82366,0.74603 -1.99418,4.82149 -2.52931,4.77909c-0.51531,-0.04085 -0.50921,-1.74609 -0.32179,-3.85119z" data-paper-data="{&quot;index&quot;:null}" fill="#ada477"/><path d="M228.15368,163.01385c-0.50615,1.91255 0.06628,2.41528 -4.48387,0.89209c-5.38336,-1.80211 -3.62396,-0.99126 -3.11782,-2.90381c0.50615,-1.91255 1.78826,-5.29842 7.65352,-3.30691c3.05455,1.03715 0.45431,3.40606 -0.05184,5.31862z" fill="#615046"/></g><g><path d="M251.22502,117.79763c0,0 -0.26338,3.24445 -0.58861,4.57283c-0.26638,1.08795 -1.2217,2.82111 -1.2217,2.82111" data-paper-data="{&quot;index&quot;:null}" fill="none" stroke="#3b2c16" stroke-width="1.25" stroke-linecap="round"/><path d="M252.62927,121.93589c0,0 -0.18908,2.27851 -0.58872,3.23539c-0.42269,1.01206 -1.88216,2.68074 -1.88216,2.68074" data-paper-data="{&quot;index&quot;:null}" fill="none" stroke="#3b2c16" stroke-width="1.25" stroke-linecap="round"/><path d="M248.9718,116.03361c0,0 0.11659,3.27103 -0.03039,4.69304c-0.12038,1.16464 -0.78772,3.22209 -0.78772,3.22209" data-paper-data="{&quot;index&quot;:null}" fill="none" stroke="#3b2c16" stroke-width="1.25" stroke-linecap="round"/><path d="M252.55185,134.25847c0,7.39154 -8.18556,17.31455 -11.39879,17.3764c-6.69145,0.1288 -14.23242,-9.98486 -14.23242,-17.3764c0,-7.39154 5.73774,-13.38356 12.8156,-13.38356c7.07786,0 12.8156,5.99202 12.8156,13.38356z" fill="url(#color-2)" stroke="none" stroke-width="0" stroke-linecap="butt"/><path d="M241.64846,135.34165c0,2.06292 -0.85162,3.73524 -1.90215,3.73524c-1.05053,0 -1.90214,-1.67233 -1.90214,-3.73524c0,-2.06292 0.85162,-3.73523 1.90214,-3.73523c1.05053,0 1.90215,1.67232 1.90215,3.73523z" fill="none" stroke="#191412" stroke-width="1.5" stroke-linecap="butt"/><path d="M246.3825,129.77996c0,2.06292 -0.85162,3.73524 -1.90214,3.73524c-1.05053,0 -1.90215,-1.67233 -1.90215,-3.73524c0,-2.06292 0.85162,-3.73524 1.90215,-3.73524c1.05053,0 1.90214,1.67232 1.90214,3.73524z" fill="none" stroke="#191412" stroke-width="1.5" stroke-linecap="butt"/><path d="M251.07875,135.29518c0,2.06292 -0.85161,3.73524 -1.90214,3.73524c-1.05053,0 -1.90215,-1.67233 -1.90215,-3.73524c0,-2.06292 0.85162,-3.73523 1.90215,-3.73523c1.05053,0 1.90214,1.67232 1.90214,3.73523z" fill="none" stroke="#191412" stroke-width="1.5" stroke-linecap="butt"/><path d="M246.32528,140.42395c0,2.06292 -0.85162,3.73524 -1.90214,3.73524c-1.05053,0 -1.90215,-1.67233 -1.90215,-3.73524c0,-2.06292 0.85162,-3.73523 1.90215,-3.73523c1.05053,0 1.90214,1.67232 1.90214,3.73523z" fill="none" stroke="#191412" stroke-width="1.5" stroke-linecap="butt"/><path d="M232.27206,125.51299c0,0 -1.55639,-1.73224 -1.99089,-2.81993c-0.53052,-1.32806 -0.96207,-4.57226 -0.96207,-4.57226" fill="none" stroke="#47341a" stroke-width="1.5" stroke-linecap="round"/><path d="M231.06403,128.17421c0,0 -2.37686,-1.66727 -3.06571,-2.67893c-0.6513,-0.9565 -0.96105,-3.23482 -0.96105,-3.23482" fill="none" stroke="#47341a" stroke-width="1.5" stroke-linecap="round"/><path d="M234.32334,124.26894c0,0 -1.08798,-2.05681 -1.28494,-3.22133c-0.24048,-1.42187 -0.05363,-4.693 -0.05363,-4.693" fill="none" stroke="#47341a" stroke-width="1.5" stroke-linecap="round"/></g></g></g></svg>