<svg version="1.1" xmlns="http://www.w3.org/2000/svg" xmlns:xlink="http://www.w3.org/1999/xlink" width="20.20124" height="18.96488" viewBox="0,0,20.20124,18.96488"><defs><radialGradient cx="240.01351" cy="180.02427" r="9.20404" gradientUnits="userSpaceOnUse" id="color-1"><stop offset="0" stop-color="#dcb094"/><stop offset="1" stop-color="#50402f"/></radialGradient><radialGradient cx="240.04656" cy="179.96954" r="9.30224" gradientUnits="userSpaceOnUse" id="color-2"><stop offset="0" stop-color="#cca288"/><stop offset="1" stop-color="#3d3124"/></radialGradient><radialGradient cx="239.99089" cy="179.93639" r="9.20404" gradientUnits="userSpaceOnUse" id="color-3"><stop offset="0" stop-color="#ffcbab"/><stop offset="1" stop-color="#544331"/></radialGradient><radialGradient cx="240.04735" cy="179.90414" r="9.30224" gradientUnits="userSpaceOnUse" id="color-4"><stop offset="0" stop-color="#bc957e"/><stop offset="1" stop-color="#33291e"/></radialGradient><radialGradient cx="240.00005" cy="180.00003" r="9.41454" gradientUnits="userSpaceOnUse" id="color-5"><stop offset="0" stop-color="#735545" stop-opacity="0.30645"/><stop offset="1" stop-color="#735545" stop-opacity="0"/></radialGradient><radialGradient cx="240.00005" cy="180.00003" r="7.64324" gradientUnits="userSpaceOnUse" id="color-6"><stop offset="0" stop-color="#ea9d73" stop-opacity="0.62903"/><stop offset="1" stop-color="#ea9d73" stop-opacity="0"/></radialGradient><radialGradient cx="240.00005" cy="180.00003" r="6.47063" gradientUnits="userSpaceOnUse" id="color-7"><stop offset="0" stop-color="#ff8c4e"/><stop offset="1" stop-color="#ff8c4e" stop-opacity="0"/></radialGradient><radialGradient cx="240.00005" cy="180.00003" r="5.32083" gradientUnits="userSpaceOnUse" id="color-8"><stop offset="0" stop-color="#ff631f"/><stop offset="1" stop-color="#ff8340"/></radialGradient><radialGradient cx="240.00806" cy="180.03543" r="9.38369" gradientUnits="userSpaceOnUse" id="color-9"><stop offset="0" stop-color="#080504"/><stop offset="1" stop-color="#21150d"/></radialGradient><radialGradient cx="240.01995" cy="180.01003" r="9.28463" gradientUnits="userSpaceOnUse" id="color-10"><stop offset="0" stop-color="#110b08"/><stop offset="1" stop-color="#26180e"/></radialGradient><radialGradient cx="239.91534" cy="180.00624" r="9.38369" gradientUnits="userSpaceOnUse" id="color-11"><stop offset="0" stop-color="#170e0b"/><stop offset="1" stop-color="#332014"/></radialGradient><radialGradient cx="239.93927" cy="179.99607" r="9.28463" gradientUnits="userSpaceOnUse" id="color-12"><stop offset="0" stop-color="#231511"/><stop offset="1" stop-color="#312014"/></radialGradient></defs><g transform="translate(-229.89938,-170.51756)"><g data-paper-data="{&quot;isPaintingLayer&quot;:true}" fill-rule="nonzero" stroke-linecap="butt" stroke-linejoin="miter" stroke-miterlimit="10" stroke-dasharray="" stroke-dashoffset="0" style="mix-blend-mode: normal"><path d="M244.08209,189.45592c0,0 -2.42075,-1.77714 -6.22293,-9.39949c-3.26957,-6.5546 -2.82489,-8.75379 -2.82489,-8.75379l0.70696,-0.72078c0,0 1.22722,5.60837 3.03787,9.01081c2.2634,4.25324 6.2181,9.21573 6.2181,9.21573z" data-paper-data="{&quot;index&quot;:null}" fill="url(#color-1)" stroke="#676767" stroke-width="0"/><path d="M249.91288,178.0163c0,0 -6.33962,0.27406 -11.034,1.35845c-3.75533,0.86747 -8.79184,3.62308 -8.79184,3.62308l0.07969,-1.00647c0,0 1.36717,-1.77905 8.45815,-3.61505c8.2461,-2.13509 11.17579,-1.47543 11.17579,-1.47543z" data-paper-data="{&quot;index&quot;:null}" fill="url(#color-2)" stroke="#676767" stroke-width="0"/><path d="M230.4479,176.63039c0,0 5.59804,2.98795 10.19154,4.44151c3.67462,1.16279 9.4126,1.35134 9.4126,1.35134l-0.58044,0.82608c0,0 -2.0819,0.83658 -9.12119,-1.18857c-8.186,-2.35504 -10.37312,-4.4129 -10.37312,-4.4129z" data-paper-data="{&quot;index&quot;:null}" fill="url(#color-3)" stroke="#676767" stroke-width="0"/><path d="M244.9446,170.92771c0,0 0.08057,3.00196 -3.60908,10.67941c-3.1728,6.60199 -5.18268,7.59925 -5.18268,7.59925l-1.00288,-0.11647c0,0 3.67769,-4.40846 5.2551,-7.92509c1.97185,-4.396 3.46688,-10.56291 3.46688,-10.56291z" data-paper-data="{&quot;index&quot;:null}" fill="url(#color-4)" stroke="#676767" stroke-width="0"/><path d="M230.58547,180.00003c0,-5.19949 4.21503,-9.41454 9.41454,-9.41454c5.19949,0 9.41454,4.21503 9.41454,9.41454c0,5.19949 -4.21503,9.41454 -9.41454,9.41454c-5.19949,0 -9.41454,-4.21503 -9.41454,-9.41454z" fill="url(#color-5)" stroke="none" stroke-width="0.5"/><path d="M232.35678,180.00003c0,-4.22123 3.42199,-7.64324 7.64324,-7.64324c4.22123,0 7.64324,3.42199 7.64324,7.64324c0,4.22123 -3.42199,7.64324 -7.64324,7.64324c-4.22123,0 -7.64324,-3.42199 -7.64324,-7.64324z" fill="url(#color-6)" stroke="none" stroke-width="0.5"/><path d="M233.52942,180.00003c0,-3.57362 2.897,-6.47063 6.47063,-6.47063c3.57362,0 6.47063,2.897 6.47063,6.47063c0,3.57362 -2.897,6.47063 -6.47063,6.47063c-3.57362,0 -6.47063,-2.897 -6.47063,-6.47063z" fill="url(#color-7)" stroke="none" stroke-width="0.5"/><path d="M234.67922,180.00003c0,-2.9386 2.38221,-5.32083 5.32083,-5.32083c2.9386,0 5.32083,2.38221 5.32083,5.32083c0,2.9386 -2.38221,5.32083 -5.32083,5.32083c-2.9386,0 -5.32083,-2.38221 -5.32083,-5.32083z" fill="url(#color-8)" stroke="none" stroke-width="0.5"/><path d="M235.07466,189.09045c0,0 -0.41252,-3.11107 3.30943,-10.85575c3.20058,-6.6598 5.5593,-7.58297 5.5593,-7.58297l1.01166,0.1175c0,0 -3.25445,4.73692 -4.84567,8.28435c-1.98912,4.4345 -3.95268,10.36554 -3.95268,10.36554z" fill="url(#color-9)" stroke="#676767" stroke-width="0"/><path d="M249.61563,183.45451c0,0 -5.70864,-2.53858 -10.32743,-4.05122c-3.69486,-1.21005 -9.38882,-1.9902 -9.38882,-1.9902l0.59384,-0.82741c0,0 2.27011,-1.12358 9.35021,0.99034c8.23345,2.45829 10.25719,4.85691 10.25719,4.85691z" data-paper-data="{&quot;index&quot;:null}" fill="url(#color-10)" stroke="#676767" stroke-width="0"/><path d="M229.96925,181.99673c0,0 6.19671,-0.79603 10.92923,-1.90265c3.78584,-0.88525 9.05661,-3.17626 9.05661,-3.17626l-0.07765,1.01549c0,0 -1.3562,2.13928 -8.50426,4.01059c-8.31248,2.17614 -11.28772,1.17769 -11.28772,1.17769z" data-paper-data="{&quot;index&quot;:null}" fill="url(#color-11)" stroke="#676767" stroke-width="0"/><path d="M235.73826,170.51756c0,0 2.72424,1.55802 6.62693,9.21321c3.356,6.58284 2.6602,9.01835 2.6602,9.01835l-0.70676,0.73332c0,0 -1.79413,-5.45993 -3.65063,-8.87602c-2.32073,-4.27031 -5.84712,-9.42759 -5.84712,-9.42759z" data-paper-data="{&quot;index&quot;:null}" fill="url(#color-12)" stroke="#676767" stroke-width="0"/></g></g></svg>