<svg version="1.1" xmlns="http://www.w3.org/2000/svg" xmlns:xlink="http://www.w3.org/1999/xlink" width="66.98968" height="118.73301" viewBox="0,0,66.98968,118.73301"><defs><linearGradient x1="239.74789" y1="149.41535" x2="239.74789" y2="156.26644" gradientUnits="userSpaceOnUse" id="color-1"><stop offset="0" stop-color="#736b4f"/><stop offset="1" stop-color="#bec286"/></linearGradient><radialGradient cx="235.45423" cy="124.47792" r="13.11833" gradientUnits="userSpaceOnUse" id="color-2"><stop offset="0" stop-color="#ccbe7a"/><stop offset="1" stop-color="#948f62"/></radialGradient></defs><g transform="translate(-205.87402,-115.40861)"><g data-paper-data="{&quot;isPaintingLayer&quot;:true}" fill-rule="nonzero" stroke-linejoin="miter" stroke-miterlimit="10" stroke-dasharray="" stroke-dashoffset="0" style="mix-blend-mode: normal"><g><path d="M223.89544,226.42819l5.84187,-33.41216c0,0 6.87753,-1.75965 9.93843,-1.5695c3.62173,0.22498 0.342,4.27349 0.342,4.27349c0,0 -3.09157,-0.10358 -3.48598,1.31048c-1.20623,4.32452 -4.64858,29.89387 -4.64858,29.89387z" fill="#a69b98" stroke="#000000" stroke-width="0" stroke-linecap="butt"/><path d="M238.91242,232.27937c0,0 -0.50526,1.91251 -1.33055,1.86124c-0.59161,-0.03675 -2.63987,-0.1503 -4.69117,-0.35844c-1.24713,-0.12654 -1.86019,-0.73453 -2.78292,-0.93498c-1.16167,-0.25234 -2.94655,0.03786 -3.78228,-0.20595c-1.53996,-0.44923 -2.32183,-0.92355 -2.32183,-0.92355c0,0 -0.20502,-1.0401 -0.18672,-1.60046c0.02465,-0.75493 0.32132,-2.52194 0.32132,-2.52194c0,0 5.93024,0.2486 8.22826,0.59205c1.35981,0.20325 4.1923,0.90847 4.1923,0.90847c0,0 1.41877,0.70493 1.6055,1.14458c0.22866,0.53846 0.74808,2.03896 0.74808,2.03896z" data-paper-data="{&quot;index&quot;:null}" fill="#141415" stroke="#000000" stroke-width="0" stroke-linecap="butt"/><path d="M238.68138,231.62917c0,0 -0.38495,-0.02391 -1.21026,-0.07519c-0.24774,-0.01539 0.60174,1.64211 -2.69573,1.16822c-3.11387,-0.44752 -2.69747,-1.35809 -3.79476,-1.507c-2.29448,-0.31139 -2.61958,0.43345 -3.60783,0.21878c-0.34417,-0.07475 -0.50462,-0.14611 -1.72097,-1.07913c-0.83653,-0.64167 -0.55579,-1.78912 -1.11546,-2.45317c-0.81752,-0.97002 -0.68999,-1.93229 -0.68999,-1.93229l0.11274,-3.0466c0,0 0.34859,2.23273 1.1348,3.10756c0.70344,0.78273 2.31361,0.12494 2.79635,0.15479c0.84533,0.05227 -0.4849,-3.30448 0.32217,-3.23606c0.43397,0.03678 3.7301,-0.00281 3.7301,-0.00281c0,0 -0.09917,3.58062 0.1321,3.61519c1.3598,0.20325 4.55538,0.93103 4.55538,0.93103c0,0 1.41877,0.70493 1.6055,1.14458c0.22867,0.53846 0.44589,2.99213 0.44589,2.99213z" data-paper-data="{&quot;index&quot;:null}" fill="#252527" stroke="#000000" stroke-width="0" stroke-linecap="butt"/><path d="M232.92784,227.23406l-2.73023,0.92384" data-paper-data="{&quot;index&quot;:null}" fill="none" stroke="#ffffff" stroke-width="0.5" stroke-linecap="round"/><path d="M232.11147,228.64125l2.63175,-1.29442" data-paper-data="{&quot;index&quot;:null}" fill="none" stroke="#ffffff" stroke-width="0.5" stroke-linecap="round"/><path d="M235.81744,227.65648l-1.54254,1.3621" data-paper-data="{&quot;index&quot;:null}" fill="none" stroke="#ffffff" stroke-width="0.5" stroke-linecap="round"/><path d="M231.42141,224.10319l-2.1935,0.10672" data-paper-data="{&quot;index&quot;:null}" fill="none" stroke="#969696" stroke-width="0.5" stroke-linecap="round"/><path d="M229.65938,225.08714l1.95897,-0.24278" data-paper-data="{&quot;index&quot;:null}" fill="none" stroke="#969696" stroke-width="0.5" stroke-linecap="round"/></g><g stroke="#000000" stroke-width="0" stroke-linecap="butt"><path d="M253.26523,203.3316c-0.50435,-0.09997 0.01539,-3.95426 -1.23342,-4.64605c-0.42872,-0.23751 -1.4776,4.93145 -2.32313,4.51364c-0.50191,-0.24801 0.13524,-3.09784 0.02013,-4.54044c-0.05609,-0.7028 0.35431,-5.53714 0.35431,-5.53714c0,0 1.12521,-2.83127 1.11951,-6.34595c-0.00137,-0.84519 0.20388,-3.59484 0.19313,-4.46324c-0.02547,-2.05527 -0.13097,-4.09432 -0.11269,-5.35401c0.03923,-2.70939 1.07313,-15.63016 1.07313,-15.63016l5.61554,-0.66856c0,0 -0.89033,6.52103 -1.26792,13.49893c-0.28406,5.24912 -0.04011,10.88379 -0.23324,13.48847c-0.22857,3.08267 -1.01884,6.99874 -1.01884,6.99874c0,0 -0.37252,2.76565 -0.82679,5.06896c-0.40876,2.07249 -0.87402,3.71306 -1.3597,3.6168z" data-paper-data="{&quot;index&quot;:null}" fill="#8b8560"/><path d="M252.78938,154.10893c5.94956,-0.37175 6.19492,3.21954 6.13276,5.19081c-0.06216,1.97127 1.78149,1.65458 -3.67214,1.97101c-4.60951,0.26746 -3.94373,-0.06518 -3.88155,-2.03644c0.06217,-1.97125 -1.67752,-4.93177 1.42092,-5.12536z" data-paper-data="{&quot;index&quot;:null}" fill="#42352d"/></g><g stroke="#000000" stroke-width="0" stroke-linecap="butt"><path d="M272.4301,203.56739c-0.50306,0.10631 -1.7582,-3.44923 -2.43209,-4.12806c-0.36074,-0.36341 0.434,4.97129 -0.51171,4.92027c-0.5614,-0.03028 -1.14328,-2.89113 -1.83888,-4.1676c-0.33889,-0.62187 -1.94037,-5.21182 -1.94037,-5.21182c0,0 -0.12709,-3.03535 -1.57004,-6.25306c-0.34699,-0.77377 -1.28367,-3.37339 -1.64878,-4.16477c-0.86406,-1.87294 -1.79483,-3.69958 -2.2934,-4.86082c-1.07236,-2.49757 -5.41034,-14.74053 -5.41034,-14.74053l4.87227,-2.81583c0,0 1.85168,6.32351 4.36006,12.86444c1.88693,4.9204 4.4154,9.98686 5.30389,12.4489c1.05154,2.91384 1.92932,6.81161 1.92932,6.81161c0,0 0.78996,2.67989 1.3159,4.96829c0.47322,2.05909 0.34858,4.22657 -0.13584,4.32895z" data-paper-data="{&quot;index&quot;:null}" fill="#979068"/><path d="M252.22829,158.1771c5.29974,-2.67497 6.99366,0.5189 7.74307,2.34925c0.74941,1.83035 2.30927,0.81684 -2.55864,3.24654c-4.11449,2.05364 -3.64046,1.48766 -4.38987,-0.34268c-0.74941,-1.83035 -3.55457,-3.86 -0.79456,-5.2531z" data-paper-data="{&quot;index&quot;:null}" fill="#4a3c33"/></g><g><path d="M239.40526,191.29199c3.6179,-0.28002 10.68653,1.36207 10.68653,1.36207l5.62379,33.37562l-7.61656,0.58951c0,0 -3.29374,-25.35963 -4.3133,-29.32471c-0.28896,-1.12375 -3.44846,-1.81787 -3.44846,-1.81787c0,0 -3.98967,-3.94797 -0.932,-4.18462z" fill="#a69b98" stroke="#000000" stroke-width="0" stroke-linecap="butt"/><path d="M262.65072,232.60388c-0.59099,0.04574 -2.63517,0.21765 -4.6955,0.29633c-1.25262,0.04784 -1.94415,-0.46916 -2.88576,-0.53955c-1.18544,-0.0886 -2.91276,0.44657 -3.77425,0.32117c-1.58741,-0.23107 -2.42757,-0.59226 -2.42757,-0.59226c0,0 -0.34744,-1.00157 -0.40712,-1.55904c-0.08041,-0.75105 -0.03193,-2.54213 -0.03193,-2.54213c0,0 5.90732,-0.57714 8.23077,-0.55605c1.37485,0.01249 4.27783,0.31763 4.27783,0.31763c0,0 1.5029,0.50112 1.74885,0.91059c0.30122,0.5015 1.02392,1.91534 1.02392,1.91534c0,0 -0.23484,1.96413 -1.05926,2.02793z" data-paper-data="{&quot;index&quot;:null}" fill="#141415" stroke="#000000" stroke-width="0" stroke-linecap="butt"/><path d="M262.18193,230.05773c-0.24747,0.01916 0.82391,1.54267 -2.50743,1.53116c-3.14585,-0.01085 -2.85989,-0.97043 -3.96723,-0.96556c-2.31549,0.01017 -2.53402,0.79295 -3.54251,0.71756c-0.35122,-0.02625 -0.52002,-0.07464 -1.85415,-0.82975c-0.91754,-0.51931 -0.79882,-1.69463 -1.44526,-2.27456c-0.94427,-0.84711 -0.95158,-1.81779 -0.95158,-1.81779l-0.31132,-3.03276c0,0 0.6552,2.1627 1.55525,2.91991c0.8053,0.67749 2.30854,-0.19749 2.79077,-0.23495c0.84441,-0.06559 -0.93899,-3.20513 -0.13023,-3.24944c0.43488,-0.02383 3.69358,-0.52068 3.69358,-0.52068c0,0 0.39891,3.55972 0.63273,3.56185c1.37485,0.01249 4.64052,0.28957 4.64052,0.28957c0,0 1.5029,0.50112 1.74886,0.91059c0.30122,0.5015 0.85699,2.90125 0.85699,2.90125c0,0 -0.38455,0.02976 -1.20898,0.09358z" data-paper-data="{&quot;index&quot;:null}" fill="#252527" stroke="#000000" stroke-width="0" stroke-linecap="butt"/><path d="M257.08287,226.41034l-2.57553,1.29393" fill="none" stroke="#ffffff" stroke-width="0.5" stroke-linecap="round"/><path d="M256.46979,227.91724l2.42657,-1.64727" fill="none" stroke="#ffffff" stroke-width="0.5" stroke-linecap="round"/><path d="M258.66467,227.99066l1.33849,-1.56305" fill="none" stroke="#ffffff" stroke-width="0.5" stroke-linecap="round"/><path d="M252.99894,223.92916l2.15744,-0.41023" fill="none" stroke="#969696" stroke-width="0.5" stroke-linecap="round"/><path d="M253.54804,224.738l1.90629,-0.51241" fill="none" stroke="#969696" stroke-width="0.5" stroke-linecap="round"/></g><path d="M235.91981,157.06516v-7.64977h7.65615l-0.1141,7.87798z" fill="url(#color-1)" stroke="#000000" stroke-width="0" stroke-linecap="butt"/><path d="M229.63981,193.59147c0,0 1.05415,-4.96832 0.53438,-10.35244c-0.16183,-1.6764 -0.21302,-5.68895 -0.71668,-7.54193c-0.59549,-2.19087 -2.53406,-2.77781 -2.61907,-4.12911c-0.1679,-2.66921 -1.07001,-6.79369 -0.41646,-11.37123c0.49266,-3.45066 3.45852,-6.29847 3.45852,-6.29847c0,0 3.98746,-0.28908 5.76508,0.07712c2.26281,0.46615 4.64106,2.49298 4.64106,2.49298c0,0 3.08552,-2.02276 4.99894,-2.43902c2.01891,-0.43921 5.48447,0.01677 5.48447,0.01677c0,0 2.62113,3.52189 2.84787,7.84095c0.214,4.0764 -0.63262,8.46783 -0.70926,10.13771c-0.07768,1.69256 -1.49509,2.1313 -2.13228,4.27482c-0.50833,1.71005 -0.54704,5.19044 -0.67745,7.18949c-0.3029,4.64296 0.14784,10.27371 0.14784,10.27371c0,0 -2.75697,-0.76932 -5.57187,-0.83754c-1.27833,-0.03098 -1.79126,1.00612 -2.99851,1.16532c-0.96496,0.12724 -2.63623,-0.61291 -3.56107,-0.64966c-0.69915,-0.02778 -2.04377,-0.5306 -2.53801,-0.53471c-0.99795,-0.0083 -1.61572,0.86529 -2.77345,1.02464c-1.34484,0.1851 -3.1641,-0.33939 -3.1641,-0.33939z" fill="#4f4037" stroke="#292e32" stroke-width="0" stroke-linecap="butt"/><g stroke="#000000" stroke-width="0" stroke-linecap="butt"><path d="M226.10773,199.11562c-0.54014,-2.28585 -1.00896,-5.04019 -1.00896,-5.04019c0,0 -0.93696,-3.88537 -1.26557,-6.96588c-0.27765,-2.60287 -0.19056,-8.2706 -0.64081,-13.52195c-0.59855,-6.98086 -1.71641,-13.47455 -1.71641,-13.47455l5.85565,0.35673c0,0 1.45614,12.90749 1.57695,15.62402c0.05618,1.26301 0.00677,3.31499 0.041,5.37878c0.01447,0.872 0.30902,3.61965 0.33254,4.46783c0.09788,3.52709 1.35087,6.30521 1.35087,6.30521c0,0 0.5693,4.82804 0.53176,5.53641c-0.07702,1.45402 0.66934,4.27804 0.15503,4.55497c-0.86637,0.46655 -2.59234,-5.59542 -2.7673,-5.10908c-0.32684,0.90851 -0.40369,5.31236 -0.92491,5.44088c-0.5019,0.12376 -1.03387,-1.49641 -1.51988,-3.55319z" data-paper-data="{&quot;index&quot;:null}" fill="#a0986e"/><path d="M228.30362,158.5818c0.12283,1.97458 0.82458,2.27112 -3.97373,2.2606c-5.67699,-0.01244 -3.75163,0.20219 -3.87447,-1.77238c-0.12283,-1.97458 0.02609,-5.59199 6.22011,-5.55179c3.22575,0.02095 1.50525,3.08898 1.62808,5.06356z" fill="#615046"/></g><g stroke="#000000" stroke-width="0" stroke-linecap="butt"><path d="M206.49416,197.52584c0.62134,-2.26512 1.52977,-4.90727 1.52977,-4.90727c0,0 1.03957,-3.8592 2.2274,-6.72042c1.00365,-2.41759 3.79616,-7.3504 5.91752,-12.17524c2.82,-6.41389 4.95075,-12.6491 4.95075,-12.6491l4.96853,3.11922c0,0 -4.90745,12.02668 -6.10322,14.46883c-0.55595,1.13545 -1.58265,2.91279 -2.54161,4.74058c-0.40517,0.77229 -1.46339,3.32505 -1.84918,4.08078c-1.60434,3.14261 -1.8359,6.18142 -1.8359,6.18142c0,0 -4.47365,8.82046 -4.98425,8.84053c-1.48728,0.05845 1.19023,-5.69599 0.69091,-5.38499c-0.94328,0.58753 -2.82043,4.3896 -3.33948,4.25265c-0.49981,-0.13191 -0.19033,-1.80884 0.36876,-3.84697z" data-paper-data="{&quot;index&quot;:null}" fill="#ada477"/><path d="M227.88513,162.87905c-0.83845,1.79193 -0.36463,2.38852 -4.57105,0.07984c-4.97669,-2.73143 -3.38969,-1.6204 -2.55124,-3.41234c0.83845,-1.79193 2.70269,-4.89557 8.11988,-1.892c2.8212,1.56422 -0.15913,3.43253 -0.99758,5.22449z" fill="#615046"/></g><g><path d="M251.22502,117.79763c0,0 -0.26338,3.24445 -0.58861,4.57283c-0.26638,1.08795 -1.2217,2.82111 -1.2217,2.82111" data-paper-data="{&quot;index&quot;:null}" fill="none" stroke="#3b2c16" stroke-width="1.25" stroke-linecap="round"/><path d="M252.62927,121.93589c0,0 -0.18908,2.27851 -0.58872,3.23539c-0.42269,1.01206 -1.88216,2.68074 -1.88216,2.68074" data-paper-data="{&quot;index&quot;:null}" fill="none" stroke="#3b2c16" stroke-width="1.25" stroke-linecap="round"/><path d="M248.9718,116.03361c0,0 0.11659,3.27103 -0.03039,4.69304c-0.12038,1.16464 -0.78772,3.22209 -0.78772,3.22209" data-paper-data="{&quot;index&quot;:null}" fill="none" stroke="#3b2c16" stroke-width="1.25" stroke-linecap="round"/><path d="M252.55185,134.25847c0,7.39154 -8.18556,17.31455 -11.39879,17.3764c-6.69145,0.1288 -14.23242,-9.98486 -14.23242,-17.3764c0,-7.39154 5.73774,-13.38356 12.8156,-13.38356c7.07786,0 12.8156,5.99202 12.8156,13.38356z" fill="url(#color-2)" stroke="none" stroke-width="0" stroke-linecap="butt"/><path d="M241.64846,135.34165c0,2.06292 -0.85162,3.73524 -1.90215,3.73524c-1.05053,0 -1.90214,-1.67233 -1.90214,-3.73524c0,-2.06292 0.85162,-3.73523 1.90214,-3.73523c1.05053,0 1.90215,1.67232 1.90215,3.73523z" fill="none" stroke="#191412" stroke-width="1.5" stroke-linecap="butt"/><path d="M246.3825,129.77996c0,2.06292 -0.85162,3.73524 -1.90214,3.73524c-1.05053,0 -1.90215,-1.67233 -1.90215,-3.73524c0,-2.06292 0.85162,-3.73524 1.90215,-3.73524c1.05053,0 1.90214,1.67232 1.90214,3.73524z" fill="none" stroke="#191412" stroke-width="1.5" stroke-linecap="butt"/><path d="M251.07875,135.29518c0,2.06292 -0.85161,3.73524 -1.90214,3.73524c-1.05053,0 -1.90215,-1.67233 -1.90215,-3.73524c0,-2.06292 0.85162,-3.73523 1.90215,-3.73523c1.05053,0 1.90214,1.67232 1.90214,3.73523z" fill="none" stroke="#191412" stroke-width="1.5" stroke-linecap="butt"/><path d="M246.32528,140.42395c0,2.06292 -0.85162,3.73524 -1.90214,3.73524c-1.05053,0 -1.90215,-1.67233 -1.90215,-3.73524c0,-2.06292 0.85162,-3.73523 1.90215,-3.73523c1.05053,0 1.90214,1.67232 1.90214,3.73523z" fill="none" stroke="#191412" stroke-width="1.5" stroke-linecap="butt"/><path d="M232.27206,125.51299c0,0 -1.55639,-1.73224 -1.99089,-2.81993c-0.53052,-1.32806 -0.96207,-4.57226 -0.96207,-4.57226" fill="none" stroke="#47341a" stroke-width="1.5" stroke-linecap="round"/><path d="M231.06403,128.17421c0,0 -2.37686,-1.66727 -3.06571,-2.67893c-0.6513,-0.9565 -0.96105,-3.23482 -0.96105,-3.23482" fill="none" stroke="#47341a" stroke-width="1.5" stroke-linecap="round"/><path d="M234.32334,124.26894c0,0 -1.08798,-2.05681 -1.28494,-3.22133c-0.24048,-1.42187 -0.05363,-4.693 -0.05363,-4.693" fill="none" stroke="#47341a" stroke-width="1.5" stroke-linecap="round"/></g></g></g></svg>