<svg version="1.1" xmlns="http://www.w3.org/2000/svg" xmlns:xlink="http://www.w3.org/1999/xlink" width="48.97387" height="104.12639" viewBox="0,0,48.97387,104.12639"><defs><linearGradient x1="239.74788" y1="156.06833" x2="239.74788" y2="162.91939" gradientUnits="userSpaceOnUse" id="color-1"><stop offset="0" stop-color="#4f6d73"/><stop offset="1" stop-color="#86b9c2"/></linearGradient><radialGradient cx="235.71183" cy="134.47973" r="13.11833" gradientUnits="userSpaceOnUse" id="color-2"><stop offset="0" stop-color="#7bccb1"/><stop offset="1" stop-color="#618c94"/></radialGradient></defs><g transform="translate(-217.99451,-130.8767)"><g data-paper-data="{&quot;isPaintingLayer&quot;:true}" fill-rule="nonzero" stroke-linejoin="miter" stroke-miterlimit="10" stroke-dasharray="" stroke-dashoffset="0" style="mix-blend-mode: normal"><g><path d="M221.26275,225.91519l9.19052,-32.65018c0,0 7.02018,-1.05517 10.04619,-0.55648c3.58042,0.59006 -0.0919,4.28617 -0.0919,4.28617c0,0 -3.06524,-0.41568 -3.60063,0.95126c-1.63735,4.18039 -7.64759,29.27059 -7.64759,29.27059z" fill="#453d36" stroke="#000000" stroke-width="0" stroke-linecap="butt"/><path d="M235.75698,233.27895c0,0 -0.69604,1.8516 -1.51195,1.71715c-0.58486,-0.09639 -2.61115,-0.41648 -4.63087,-0.83096c-1.22794,-0.252 -1.77637,-0.91886 -2.6741,-1.21157c-1.13019,-0.36851 -2.93527,-0.26029 -3.74206,-0.58734c-1.48664,-0.60264 -2.21654,-1.15358 -2.21654,-1.15358c0,0 -0.09881,-1.0555 -0.02393,-1.61114c0.10084,-0.74857 0.57467,-2.47652 0.57467,-2.47652c0,0 5.8747,0.84697 8.12622,1.42104c1.33228,0.3397 4.07896,1.32774 4.07896,1.32774c0,0 1.34023,0.84478 1.48153,1.30105c0.17305,0.55883 0.53807,2.10416 0.53807,2.10416z" data-paper-data="{&quot;index&quot;:null}" fill="#141415" stroke="#000000" stroke-width="0" stroke-linecap="butt"/><path d="M235.59288,232.6087c0,0 -0.38056,-0.06272 -1.19646,-0.19718c-0.24492,-0.04035 0.43261,1.69455 -2.80004,0.88964c-3.05266,-0.7601 -2.54631,-1.62389 -3.62292,-1.883c-2.25123,-0.54182 -2.64998,0.16633 -3.61146,-0.14717c-0.33485,-0.10918 -0.48726,-0.19639 -1.60305,-1.24762c-0.76737,-0.72297 -0.37204,-1.83615 -0.8617,-2.5534c-0.71525,-1.04772 -0.49106,-1.99216 -0.49106,-1.99216l0.42023,-3.01958c0,0 0.12103,2.25653 0.81476,3.20639c0.62069,0.84985 2.28911,0.35825 2.76638,0.43676c0.83571,0.13749 -0.14828,-3.33655 0.64774,-3.18689c0.42803,0.08048 3.71127,0.37438 3.71127,0.37438c0,0 -0.46074,3.55222 -0.23416,3.61c1.33227,0.3397 4.43789,1.3869 4.43789,1.3869c0,0 1.34023,0.84477 1.48153,1.30105c0.17306,0.55883 0.14104,3.02189 0.14104,3.02189z" data-paper-data="{&quot;index&quot;:null}" fill="#252527" stroke="#000000" stroke-width="0" stroke-linecap="butt"/><path d="M230.31325,227.65431l-2.80967,0.64302" data-paper-data="{&quot;index&quot;:null}" fill="none" stroke="#ffffff" stroke-width="0.5" stroke-linecap="round"/><path d="M229.35877,228.97176l2.74916,-1.02167" data-paper-data="{&quot;index&quot;:null}" fill="none" stroke="#ffffff" stroke-width="0.5" stroke-linecap="round"/><path d="M233.1453,228.36682l-1.67237,1.19914" data-paper-data="{&quot;index&quot;:null}" fill="none" stroke="#ffffff" stroke-width="0.5" stroke-linecap="round"/><path d="M229.13115,224.38712l-2.19306,-0.11562" data-paper-data="{&quot;index&quot;:null}" fill="none" stroke="#969696" stroke-width="0.5" stroke-linecap="round"/><path d="M229.25213,225.14444l-1.97348,0.04346" data-paper-data="{&quot;index&quot;:null}" fill="none" stroke="#969696" stroke-width="0.5" stroke-linecap="round"/></g><g><path d="M239.16991,193.02698c3.57708,-0.61001 10.76635,0.37819 10.76635,0.37819l8.65516,32.72075l-7.53062,1.28421c0,0 -5.60117,-24.9517 -6.97939,-28.8068c-0.39061,-1.09258 -3.60038,-1.49459 -3.60038,-1.49459c0,0 -4.3343,-3.5662 -1.31112,-4.08175z" fill="#453d36" stroke="#000000" stroke-width="0" stroke-linecap="butt"/><path d="M266.09919,232.03774c-0.58432,0.09965 -2.6042,0.45794 -4.64865,0.72488c-1.24299,0.16229 -1.97894,-0.28925 -2.92305,-0.27314c-1.18857,0.02027 -2.85966,0.71132 -3.72901,0.66529c-1.60191,-0.0848 -2.47159,-0.36756 -2.47159,-0.36756c0,0 -0.43764,-0.96556 -0.5481,-1.51523c-0.14881,-0.74053 -0.26449,-2.52854 -0.26449,-2.52854c0,0 5.8297,-1.11544 8.14532,-1.3071c1.37021,-0.11342 4.28895,-0.07527 4.28895,-0.07527c0,0 1.54247,0.36145 1.82487,0.74669c0.34585,0.47183 1.19495,1.81359 1.19495,1.81359c0,0 -0.05407,1.97737 -0.86919,2.11639z" data-paper-data="{&quot;index&quot;:null}" fill="#141415" stroke="#000000" stroke-width="0" stroke-linecap="butt"/><path d="M265.39932,229.54511c-0.24469,0.04173 0.96166,1.46078 -2.35675,1.75425c-3.13364,0.27714 -2.93672,-0.70459 -4.03897,-0.59838c-2.30484,0.22208 -2.45079,1.02155 -3.46196,1.0388c-0.35215,0.00601 -0.52466,-0.02672 -1.92232,-0.65655c-0.96121,-0.43314 -0.95057,-1.61441 -1.64739,-2.13272c-1.01785,-0.75712 -1.11397,-1.72304 -1.11397,-1.72304l-0.58761,-2.99152c0,0 0.8504,2.09366 1.81599,2.76529c0.86393,0.60093 2.28078,-0.40797 2.75755,-0.48941c0.83487,-0.14261 -1.22843,-3.10572 -0.42712,-3.22388c0.43087,-0.06353 3.63042,-0.85657 3.63042,-0.85657c0,0 0.72307,3.50827 0.95609,3.48897c1.37022,-0.11342 4.64754,-0.13642 4.64754,-0.13642c0,0 1.54247,0.36144 1.82487,0.74668c0.34585,0.47183 1.11895,2.81063 1.11895,2.81063c0,0 -0.38021,0.06484 -1.19535,0.20385z" data-paper-data="{&quot;index&quot;:null}" fill="#252527" stroke="#000000" stroke-width="0" stroke-linecap="butt"/><path d="M257.54153,227.90408l2.44628,-1.52425" fill="none" stroke="#ffffff" stroke-width="0.5" stroke-linecap="round"/><path d="M261.78082,226.07407l-2.2656,1.86246" fill="none" stroke="#ffffff" stroke-width="0.5" stroke-linecap="round"/><path d="M261.7076,227.80869l1.1898,-1.67901" fill="none" stroke="#ffffff" stroke-width="0.5" stroke-linecap="round"/><path d="M255.6939,224.28285l2.11083,-0.60598" fill="none" stroke="#969696" stroke-width="0.5" stroke-linecap="round"/><path d="M258.16611,224.3533l-1.85139,0.68474" fill="none" stroke="#969696" stroke-width="0.5" stroke-linecap="round"/></g><path d="M218.09056,205.0575c-0.09653,-2.34681 -0.03414,-5.14007 -0.03414,-5.14007c0,0 -0.18259,-3.99258 0.07937,-7.07947c0.22135,-2.60826 1.38243,-8.15648 1.93693,-13.39783c0.73711,-6.96758 0.87188,-13.55542 0.87188,-13.55542l5.68155,1.46148c0,0 -1.01981,12.94928 -1.41673,15.63936c-0.18454,1.25072 -0.62244,3.25602 -0.98048,5.28881c-0.15127,0.85889 -0.38352,3.61253 -0.52137,4.44976c-0.57325,3.48157 0.12978,6.44698 0.12978,6.44698c0,0 -0.35728,4.84834 -0.52856,5.53672c-0.35156,1.41299 -0.15468,4.32732 -0.7122,4.50163c-0.93917,0.29366 -0.7166,-5.37312 -0.98067,-4.92881c-0.49331,0.82997 -0.57097,4.56664 -1.05131,4.74096c-1.39916,0.50773 -0.16493,-4.53976 -0.54609,-4.09171c-0.72008,0.84644 -0.57388,3.8774 -1.11,3.90467c-0.51626,0.02626 -0.73111,-1.66542 -0.81797,-3.77706z" data-paper-data="{&quot;index&quot;:null}" fill="#6b999c" stroke="#000000" stroke-width="0" stroke-linecap="butt"/><path d="M260.1431,209.16031c-0.53612,-0.02728 -0.38992,-3.05823 -1.11,-3.90467c-0.38116,-0.44805 0.85307,4.59944 -0.54609,4.09171c-0.48035,-0.17432 -0.55801,-3.91099 -1.05132,-4.74096c-0.26407,-0.44431 -0.0415,5.22247 -0.98067,4.92881c-0.55751,-0.17432 -0.36064,-3.08864 -0.7122,-4.50163c-0.17128,-0.68838 -0.52856,-5.53672 -0.52856,-5.53672c0,0 0.70303,-2.9654 0.12978,-6.44698c-0.13785,-0.83723 -0.37009,-3.59086 -0.52137,-4.44976c-0.35803,-2.03278 -0.79594,-4.03809 -0.98047,-5.28881c-0.39692,-2.69009 -1.41673,-15.63936 -1.41673,-15.63936l5.68155,-1.46148c0,0 0.13477,6.58784 0.87189,13.55542c0.55449,5.24135 1.71558,10.78958 1.93692,13.39783c0.26197,3.08689 0.07938,7.07947 0.07938,7.07947c0,0 0.06239,2.79326 -0.03414,5.14007c-0.08686,2.11164 -0.30171,3.80333 -0.81797,3.77707z" data-paper-data="{&quot;index&quot;:null}" fill="#6b999c" stroke="#000000" stroke-width="0" stroke-linecap="butt"/><path d="M227.93875,165.5482c-0.25412,1.96201 0.3786,2.38634 -4.33052,1.46542c-5.57146,-1.08955 -3.72183,-0.51344 -3.46771,-2.47545c0.25412,-1.96201 1.08683,-5.48542 7.16065,-4.27049c3.16316,0.63272 0.8917,3.3185 0.63758,5.28051z" fill="#374a50" stroke="#000000" stroke-width="0" stroke-linecap="butt"/><path d="M251.7067,160.45728c6.07382,-1.21493 6.90653,2.30848 7.16065,4.27049c0.25412,1.96201 2.10376,1.38589 -3.4677,2.47545c-4.70913,0.92092 -4.0764,0.49659 -4.33052,-1.46542c-0.25412,-1.96201 -2.5256,-4.64779 0.63757,-5.28051z" data-paper-data="{&quot;index&quot;:null}" fill="#374a50" stroke="#000000" stroke-width="0" stroke-linecap="butt"/><path d="M235.9198,162.91939v-6.85104h7.65615v6.85104z" fill="url(#color-1)" stroke="#000000" stroke-width="0" stroke-linecap="butt"/><path d="M229.6398,193.59143c0,0 0.16709,-5.5597 -0.35268,-10.94382c-0.35317,-3.65847 -1.40473,-6.95919 -1.56162,-9.45339c-0.29447,-4.68133 -0.2105,-13.38223 -0.2105,-13.38223c0,0 3.69178,-0.58477 5.4694,-0.21857c2.26281,0.46615 7.00656,2.78867 7.00656,2.78867c0,0 3.67689,-2.17061 5.59031,-2.58687c2.01891,-0.43921 6.22369,0.01677 6.22369,0.01677c0,0 -0.06905,9.21711 -0.22689,12.65629c-0.13965,3.04285 -0.88957,6.36811 -1.18346,10.87293c-0.3029,4.64296 -0.14784,10.42155 -0.14784,10.42155c0,0 -2.75697,-0.76932 -5.57187,-0.83754c-1.27833,-0.03098 -1.79126,1.00612 -2.99851,1.16532c-0.96496,0.12724 -2.63623,-0.61291 -3.56107,-0.64966c-0.69915,-0.02778 -2.04377,-0.5306 -2.53801,-0.53471c-0.99795,-0.0083 -1.61572,0.86529 -2.77345,1.02464c-1.34484,0.1851 -3.1641,-0.33939 -3.1641,-0.33939z" fill="#374a50" stroke="#292e32" stroke-width="0" stroke-linecap="butt"/><g stroke="none" stroke-linecap="butt"><path d="M252.80945,144.26026c0,7.39154 -5.73774,13.38356 -12.8156,13.38356c-7.07786,0 -12.8156,-5.99202 -12.8156,-13.38356c0,-7.39154 5.73774,-13.38356 12.8156,-13.38356c7.07786,0 12.8156,5.99202 12.8156,13.38356z" fill="url(#color-2)" stroke-width="0"/><path d="M245.74217,149.66551c-0.98899,0.14802 -1.137,-0.84096 -1.137,-0.84096l-0.04548,-0.30387c-0.18667,-1.25255 -0.2693,-2.49618 -0.35208,-3.75939c0,0 -0.06538,-0.99786 0.93248,-1.06324c0.99786,-0.06538 1.06325,0.93248 1.06325,0.93248c0.07914,1.20785 0.15427,2.39677 0.33431,3.59411l0.04548,0.30387c0,0 0.14803,0.98899 -0.84096,1.13701z" fill="#191412" stroke-width="0.5"/><path d="M248.53392,145.00055c-0.3603,-1.31071 1.73333,-4.12384 1.73333,-4.12384c0,0 2.02159,2.4544 2.0489,4.09576c0.02905,1.74635 -3.34136,1.63194 -3.78223,0.02808z" fill="#191412" stroke-width="0.5"/><path d="M235.95234,144.8956c-0.26739,-1.38612 2.62073,-4.03936 2.62073,-4.03936c0,0 2.33641,2.50751 2.12366,4.18209c-0.22636,1.78169 -4.4172,1.55341 -4.74439,-0.14273z" data-paper-data="{&quot;index&quot;:null}" fill="#191412" stroke-width="0.5"/><path d="M235.75965,153.85716c0,-0.41002 0.3231,-0.74242 0.72166,-0.74242c0.39855,0 0.72166,0.3324 0.72166,0.74242c0,0.41002 -0.32309,0.74242 -0.72166,0.74242c-0.39855,0 -0.72166,-0.3324 -0.72166,-0.74242z" fill="#00ffcc" stroke-width="0.5"/><path d="M235.02054,150.89171c0,-0.41002 0.32309,-0.74242 0.72165,-0.74242c0.39855,0 0.72166,0.33239 0.72166,0.74242c0,0.41002 -0.3231,0.74242 -0.72166,0.74242c-0.39855,0 -0.72165,-0.3324 -0.72165,-0.74242z" fill="#00ffcc" stroke-width="0.5"/><path d="M232.80322,152.1083c0,-0.41002 0.32309,-0.74242 0.72165,-0.74242c0.39855,0 0.72166,0.3324 0.72166,0.74242c0,0.41002 -0.3231,0.74242 -0.72166,0.74242c-0.39855,0 -0.72165,-0.33239 -0.72165,-0.74242z" fill="#00ffcc" stroke-width="0.5"/><path d="M232.06411,149.14285c0,-0.41002 0.3231,-0.74241 0.72166,-0.74241c0.39855,0 0.72166,0.33239 0.72166,0.74241c0,0.41002 -0.3231,0.74242 -0.72166,0.74242c-0.39855,0 -0.72166,-0.3324 -0.72166,-0.74242z" fill="#00ffcc" stroke-width="0.5"/><path d="M249.21595,153.71632c-0.21234,0 -0.38448,-0.33239 -0.38448,-0.74242c0,-0.41002 0.17214,-0.74242 0.38448,-0.74242c0.21234,0 0.38447,0.33239 0.38447,0.74242c0,0.41002 -0.17213,0.74242 -0.38447,0.74242z" fill="#00ffcc" stroke-width="0.5"/><path d="M249.60972,150.75087c-0.21234,0 -0.38448,-0.33239 -0.38448,-0.74242c0,-0.41002 0.17214,-0.74242 0.38448,-0.74242c0.21234,0 0.38448,0.33239 0.38448,0.74242c0,0.41002 -0.17214,0.74242 -0.38448,0.74242z" fill="#00ffcc" stroke-width="0.5"/><path d="M250.79103,151.96747c-0.21234,0 -0.38448,-0.3324 -0.38448,-0.74242c0,-0.41002 0.17214,-0.74241 0.38448,-0.74241c0.21234,0 0.38448,0.33239 0.38448,0.74241c0,0.41002 -0.17214,0.74242 -0.38448,0.74242z" fill="#00ffcc" stroke-width="0.5"/><path d="M251.1848,149.00202c-0.21234,0 -0.38448,-0.33239 -0.38448,-0.74241c0,-0.41002 0.17213,-0.74242 0.38448,-0.74242c0.21234,0 0.38448,0.3324 0.38448,0.74242c0,0.41002 -0.17214,0.74241 -0.38448,0.74241z" fill="#00ffcc" stroke-width="0.5"/><path d="M241.69142,137.42512c0,-0.39455 0.31984,-0.71439 0.71439,-0.71439c0.39455,0 0.71439,0.31984 0.71439,0.71439c0,0.39455 -0.31984,0.71439 -0.71439,0.71439c-0.39455,0 -0.71439,-0.31984 -0.71439,-0.71439z" fill="#00ffcc" stroke-width="0.5"/><path d="M243.66692,134.57161c0,-0.39455 0.31984,-0.7144 0.71439,-0.7144c0.39455,0 0.71439,0.31985 0.71439,0.7144c0,0.39455 -0.31984,0.71439 -0.71439,0.71439c-0.39455,0 -0.71439,-0.31984 -0.71439,-0.71439z" fill="#00ffcc" stroke-width="0.5"/><path d="M245.64243,137.49829c0,-0.39455 0.31984,-0.71439 0.71439,-0.71439c0.39455,0 0.71439,0.31984 0.71439,0.71439c0,0.39455 -0.31984,0.71439 -0.71439,0.71439c-0.39455,0 -0.71439,-0.31984 -0.71439,-0.71439z" fill="#00ffcc" stroke-width="0.5"/></g></g></g></svg>