<svg version="1.1" xmlns="http://www.w3.org/2000/svg" xmlns:xlink="http://www.w3.org/1999/xlink" width="134.49932" height="205.67307" viewBox="0,0,134.49932,205.67307"><defs><linearGradient x1="238.37151" y1="-20.72488" x2="240.79677" y2="74.52517" gradientUnits="userSpaceOnUse" id="color-1"><stop offset="0" stop-color="#4a4a4a" stop-opacity="0"/><stop offset="1" stop-color="#4a4a4a" stop-opacity="0.04706"/></linearGradient><linearGradient x1="244.72977" y1="-24.95827" x2="241.52414" y2="78.03236" gradientUnits="userSpaceOnUse" id="color-2"><stop offset="0" stop-color="#292929" stop-opacity="0"/><stop offset="1" stop-color="#292929" stop-opacity="0.03529"/></linearGradient><linearGradient x1="250.0656" y1="-17.78226" x2="239.72524" y2="76.56053" gradientUnits="userSpaceOnUse" id="color-3"><stop offset="0" stop-color="#383838" stop-opacity="0"/><stop offset="1" stop-color="#383838" stop-opacity="0.02745"/></linearGradient><radialGradient cx="241.40213" cy="29.6302" r="35.53768" gradientUnits="userSpaceOnUse" id="color-4"><stop offset="0" stop-color="#4a4a4a" stop-opacity="0"/><stop offset="1" stop-color="#4a4a4a" stop-opacity="0.01961"/></radialGradient><linearGradient x1="205.37625" y1="125.56928" x2="276.30167" y2="125.56928" gradientUnits="userSpaceOnUse" id="color-5"><stop offset="0" stop-color="#ffffff"/><stop offset="1" stop-color="#b5b5b5"/></linearGradient><linearGradient x1="179.86976" y1="149.52782" x2="226.48389" y2="149.52782" gradientUnits="userSpaceOnUse" id="color-6"><stop offset="0" stop-color="#c4c4c4"/><stop offset="1" stop-color="#909090"/></linearGradient><linearGradient x1="203.17683" y1="119.3976" x2="203.17683" y2="179.65803" gradientUnits="userSpaceOnUse" id="color-7"><stop offset="0" stop-color="#348317"/><stop offset="1" stop-color="#3c5b0d"/></linearGradient><radialGradient cx="239.34745" cy="135.4747" r="27.13216" gradientUnits="userSpaceOnUse" id="color-8"><stop offset="0" stop-color="#d251e8"/><stop offset="1" stop-color="#a23dba"/></radialGradient><linearGradient x1="250.06522" y1="124.50849" x2="250.06522" y2="178.76799" gradientUnits="userSpaceOnUse" id="color-9"><stop offset="0" stop-color="#348317"/><stop offset="1" stop-color="#3c5b0d"/></linearGradient><radialGradient cx="276.1459" cy="136.63371" r="27.13216" gradientUnits="userSpaceOnUse" id="color-10"><stop offset="0" stop-color="#d251e8"/><stop offset="1" stop-color="#a23dba"/></radialGradient><linearGradient x1="286.88595" y1="124.613" x2="286.88595" y2="178.8725" gradientUnits="userSpaceOnUse" id="color-11"><stop offset="0" stop-color="#348317"/><stop offset="1" stop-color="#3c5b0d"/></linearGradient><linearGradient x1="250.34823" y1="113.49719" x2="250.34823" y2="125.57587" gradientUnits="userSpaceOnUse" id="color-12"><stop offset="0" stop-color="#348317"/><stop offset="1" stop-color="#3c5b0d"/></linearGradient><linearGradient x1="287.79907" y1="113.77674" x2="287.79907" y2="125.85541" gradientUnits="userSpaceOnUse" id="color-13"><stop offset="0" stop-color="#348317"/><stop offset="1" stop-color="#3c5b0d"/></linearGradient><linearGradient x1="219.3546" y1="78.82827" x2="261.36857" y2="78.82827" gradientUnits="userSpaceOnUse" id="color-14"><stop offset="0" stop-color="#008672"/><stop offset="1" stop-color="#004861"/></linearGradient><linearGradient x1="240.36159" y1="75.20638" x2="240.36159" y2="82.45017" gradientUnits="userSpaceOnUse" id="color-15"><stop offset="0" stop-color="#348317"/><stop offset="1" stop-color="#3c5b0d"/></linearGradient><linearGradient x1="219.13907" y1="91.36182" x2="261.15305" y2="91.36182" gradientUnits="userSpaceOnUse" id="color-16"><stop offset="0" stop-color="#008672"/><stop offset="1" stop-color="#004861"/></linearGradient><linearGradient x1="240.14606" y1="87.73992" x2="240.14606" y2="94.98371" gradientUnits="userSpaceOnUse" id="color-17"><stop offset="0" stop-color="#348317"/><stop offset="1" stop-color="#3c5b0d"/></linearGradient><linearGradient x1="174.11977" y1="163.90282" x2="231.23389" y2="163.90282" gradientUnits="userSpaceOnUse" id="color-18"><stop offset="0" stop-color="#d8d8d8"/><stop offset="1" stop-color="#aaaaaa"/></linearGradient><linearGradient x1="202.67684" y1="148.1476" x2="202.67684" y2="179.65803" gradientUnits="userSpaceOnUse" id="color-19"><stop offset="0" stop-color="#348317"/><stop offset="1" stop-color="#3c5b0d"/></linearGradient><linearGradient x1="182.86977" y1="132.83015" x2="223.48389" y2="132.83015" gradientUnits="userSpaceOnUse" id="color-20"><stop offset="0" stop-color="#60ff45"/><stop offset="1" stop-color="#adff00"/></linearGradient><linearGradient x1="203.17683" y1="125.3976" x2="203.17683" y2="140.2627" gradientUnits="userSpaceOnUse" id="color-21"><stop offset="0" stop-color="#348317"/><stop offset="1" stop-color="#3c5b0d"/></linearGradient><linearGradient x1="176.86977" y1="163.99682" x2="227.23389" y2="163.99682" gradientUnits="userSpaceOnUse" id="color-22"><stop offset="0" stop-color="#60ff45"/><stop offset="1" stop-color="#adff00"/></linearGradient><linearGradient x1="202.05184" y1="156.56426" x2="202.05184" y2="171.42937" gradientUnits="userSpaceOnUse" id="color-23"><stop offset="0" stop-color="#348317"/><stop offset="1" stop-color="#3c5b0d"/></linearGradient><linearGradient x1="239.99999" y1="179.02045" x2="239.99999" y2="180.33096" gradientUnits="userSpaceOnUse" id="color-24"><stop offset="0" stop-color="#348317"/><stop offset="1" stop-color="#3c5b0d"/></linearGradient></defs><g transform="translate(-172.75034,25.34211)"><g data-paper-data="{&quot;isPaintingLayer&quot;:true}" fill-rule="nonzero" stroke-linecap="butt" stroke-linejoin="miter" stroke-miterlimit="10" stroke-dasharray="" stroke-dashoffset="0" style="mix-blend-mode: normal"><path d="M220.09683,69.51063l-0.03104,-0.02139l-0.01873,-0.08557c-0.18451,-0.41579 -0.29533,-0.89527 -0.30841,-1.40904l-0.02559,-1.00474l0.05981,-0.36298l-0.00945,-0.37107l0.07374,-0.44749l-0.05674,-2.22802l-0.1612,-1.18893l0.01161,-0.21653l-0.04568,-0.20873l-0.00068,-0.02682l-0.02603,-0.08594l-0.17431,-0.33249l-0.11227,-0.3952l-0.74293,-1.78771l-0.04147,-0.21024l-0.09393,-0.17916l-0.23114,-0.81364l-0.14321,-0.26105l-0.11344,-0.37465l-0.17431,-0.33248l-0.50809,-1.78853l-0.04078,-0.48188l-0.10204,-0.46619l-0.00591,-0.23178l-0.09634,-0.44012l-0.00944,-0.37106l-0.07814,-0.357l-0.00289,-0.11371l-0.03899,-0.13727l-0.0408,-0.48187l-0.10204,-0.46619l-0.09722,-3.81802l0.05981,-0.36298l-0.00944,-0.37107l0.07373,-0.44751l-0.02125,-0.83462l0.0598,-0.36298l-0.00944,-0.37107l0.12198,-0.74031l0.11945,-0.94062l0.05811,-0.17485l0.00636,-0.19039l0.23638,-1.03905l0.10491,-0.82619l0.05811,-0.17485l0.00636,-0.19039l0.22572,-0.99221l0.09946,-0.97779l0.12708,-0.41889l0.06368,-0.44281l0.34169,-0.97099l0.22009,-1.14808l0.10186,-0.24913l0.03991,-0.27751l1.22548,-3.48237l0.50791,-2.23262l0.12946,-0.28598l0.06599,-0.32077l0.34649,-0.81355l0.21941,-0.79088l0.10448,-0.20261l0.04852,-0.23587l0.43646,-1.02478l0.08291,-0.11562l0.04335,-0.14786l0.26637,-0.49695l0.46083,-1.66113l0.05476,-0.10617l0.01809,-0.12579l1.51303,-4.29954l0.32251,-1.41763l0.22773,-2.01178l0.07539,-0.23821l0.01393,-0.25709l0.46667,-1.86508l0.08051,-1.82637l0.0374,-0.15645l-0.01013,-0.16335l0.25077,-1.97486l0.22828,-2.24434l0.07918,-2.37007l-0.177,-6.95147l-0.15942,-1.4358l-0.29569,-1.35086l-0.33204,-1.34545l-0.00262,-0.05147l-0.01975,-0.04469l-0.13141,-0.60031l-0.27054,-0.80398l-0.01167,-0.0894l-0.03924,-0.07485l-0.23115,-0.81364l-0.14321,-0.26109l-0.06054,-0.19995l-0.03712,-0.00803l-0.16768,-0.31985l-0.2318,-0.24227l-0.01566,-0.22972l-0.25746,-0.49108l-0.02239,-0.07879l-0.00209,-0.00423l-0.1754,-0.19457l-0.32338,-0.5895l-0.11343,-0.37465l-0.10638,-0.20291l-0.28573,-0.34882l-0.20164,-0.40721l-0.25106,-0.35742l-0.16424,-0.39523l-0.02285,-0.11587l-0.32193,-0.33649l-0.01022,-0.14987l-0.12751,-0.18153l-0.16425,-0.39523l-0.2969,-1.50533l0.33465,-0.70457l0.01416,-0.82871l0.87826,-1.05019l0.17033,-0.12049l0.01213,-0.02996l0.06384,-0.0238l0.05662,-0.04007l0.51435,-0.17272l0.5107,-0.19031l0.06437,-0.00279l0.06429,-0.02158l0.02207,0.01785l3.87968,-0.16817l1.21857,-0.23033l1.03742,-0.2395l0.16597,0.01518l0.15998,-0.05962l0.79369,-0.03441l0.33732,-0.12568l0.2844,-0.01233l0.27362,-0.10195l0.30803,-0.01337l0.27819,0.07805l0.2844,-0.01233l0.62117,0.17424l0.22846,0.14651l0.25019,0.06124l0.34931,0.20925l0.15846,-0.06384l0.25961,0.18823l0.29037,0.08145l0.09274,0.19634l0.39708,0.28792l0.17853,0.06915l0.26583,0.20486l0.29404,0.12281l0.47227,0.38187l0.16044,0.21544l0.20124,0.1459l0.15113,0.1845l0.27772,0.22456l0.16044,0.21544l0.20124,0.1459l0.31826,0.38854l0.12494,0.2523l0.1754,0.19457l0.05431,0.09901l0.07933,0.06413l0.16044,0.21544l0.20123,0.1459l0.31826,0.38855l0.12494,0.25231l0.17541,0.19456l0.60941,1.11092l1.40734,2.28605l0.12764,0.3615l0.18672,0.31475l0.21071,0.62615l0.29106,0.47278l0.12764,0.3615l0.18671,0.31475l0.29496,0.87654l0.24035,0.57835l0.43944,0.88743l0.08216,0.31435l0.14373,0.27413l0.11227,0.3952l0.25019,0.60202l0.06344,0.32166l0.12718,0.28771l0.84803,3.87424l0.13851,0.48756l0.00995,0.11755l0.04528,0.10243l0.32459,1.48288l0.13851,0.48757l0.04078,0.48187l0.10204,0.46619l0.01101,0.43272l0.09634,0.44012l0.00187,0.07349l0.02581,0.06537l0.1796,0.99809l-0.00056,0.04992l0.01642,0.0451l0.13547,0.8794l0.23316,0.69289l0.03591,0.27504l0.09791,0.24806l0.17959,0.99806l-0.00054,0.04994l0.01641,0.0451l0.14898,0.96703l0.27569,0.97046l0.02013,0.23779l0.07865,0.21609l0.14897,0.96702l0.27569,0.97046l0.01603,0.18942l0.06687,0.16942l0.14671,0.81528l0.28871,1.0163l0.00995,0.11754l0.04528,0.10245l0.1314,0.60031l0.14764,0.43876l1.04929,1.70441l0.3608,0.32922l0.19233,0.28871l0.23897,0.22158l0.55839,0.85115l2.33265,2.84781l0.49678,0.45331l0.21559,0.32362l0.2618,0.25921l0.37964,0.61667l0.6757,0.82493l0.12495,0.2523l0.1754,0.19457l0.09294,0.16941l0.30693,0.28008l0.25674,0.38539l0.29817,0.33075l0.64675,1.179l0.05367,0.17724l0.09868,0.14049l0.22915,0.5514l0.35199,0.57175l0.08792,0.24897l0.14195,0.2021l0.32849,0.79045l0.02445,0.12393l0.06003,0.1012l0.29496,0.87653l0.61115,1.47062l0.02445,0.12393l0.06004,0.10121l0.29496,0.87654l0.28266,0.68017l0.02445,0.12393l0.06003,0.1012l0.33361,0.99139l0.0267,0.20453l0.07944,0.17973l0.08002,0.3656l0.30096,0.60777l0.08217,0.31436l0.14373,0.27412l0.33872,1.19235l0.02013,0.23777l0.07865,0.21609l0.12985,0.84288l0.37975,1.05767l0.06236,0.41609l0.1273,0.39008l0.16697,1.3712l0.28921,1.17188l0.01063,0.20831l0.06527,0.19062l0.37497,2.76541l0.17942,1.16464l-0.00901,0.25181l0.05306,0.24239l0.11257,4.42088l-0.04839,0.2937l0.01858,0.2994l-0.12843,1.01142l-0.05811,0.17485l-0.00636,0.1904l-0.17059,0.74987l0.01313,0.51562l-0.01954,0.11862l0.03733,0.08984l-0.15874,0.647l-0.10944,0.66417l-0.06667,0.05362l-0.02836,0.11555l-0.08177,0.17217l-0.04938,0.29975l-0.17446,0.46321l-0.1206,0.49154l-0.12962,0.2729l-0.05058,0.22232l-0.15702,0.34684l-0.09413,0.38363l-0.21687,0.4566l-0.08373,0.23794l-0.23231,0.37838l-0.18049,0.42375l-1.33258,1.8582l-0.38898,0.81896l-0.22751,0.64651l-0.11799,0.19216l-0.00257,0.15044l-0.16035,0.19172l-0.01177,0.08187l-0.02687,0.07637l-0.01396,0.08469l-0.0221,0.01778l-0.5122,1.45548l-0.11799,0.19216l-0.00257,0.15043l-0.3378,0.40391l-0.10816,0.17616l-0.00073,0.04279l-0.09609,0.11491l-0.08149,0.13272l-0.03268,0.00379l-0.12754,0.15252l-0.10816,0.17616l-0.00073,0.04278l-0.09609,0.11491l-0.08149,0.13273l-0.03268,0.00379l-0.12754,0.15252l-0.28647,0.46658l-0.11487,0.01331l-0.13914,0.16637l-0.30291,0.21429l-0.16112,0.05411l-0.13732,0.12255l-0.91385,0.44195l-0.3019,0.04351l-0.0106,0.0075l-0.51435,0.17269l-0.5107,0.19031l-0.06437,0.00279l-0.0643,0.02159l-0.02207,-0.01785l-0.08255,0.00358l-0.40203,0.12315l-0.32199,0.15572l-0.36933,0.0532l-0.35728,0.13314l-0.70321,0.03048l-0.1052,0.05087l-0.36933,0.0532l-0.35728,0.13314l-0.08715,0.00377l-0.1052,0.05087l-0.09009,0.01298l-0.07851,0.05908l-0.61094,0.22766l-0.2844,0.01233l-0.27362,0.10196l-0.54918,0.02381l-0.10521,0.05087l-0.09008,0.01297l-0.07851,0.05909l-0.61094,0.22767l-0.2844,0.01232l-0.27362,0.10195l-1.31137,0.05684l-0.54214,0.16606l-0.23019,-0.00432l-0.22138,0.0825l-18.94365,0.82113l-0.36326,-0.1019l-0.37122,-0.02112l-0.93432,-0.36185l-0.05691,-0.04385l-0.14109,0.00611l-0.02111,0.01971l-0.06525,-0.01598l-0.06437,0.00279l-0.51926,-0.14566l-0.522,-0.12779l-0.05853,-0.03505l-0.0649,-0.01821l-0.01363,-0.02883l-0.17609,-0.10549l-0.92975,-0.97182l-0.10067,-1.47673l-0.00213,-0.00451l0.00156,-0.00386l-0.06276,-0.92065c-0.57236,-0.1932 -1.06115,-0.6663 -1.37198,-1.3041z" fill="url(#color-1)" stroke="none" stroke-width="0.5"/><path d="M219.50333,70.4698l-0.03217,-0.0263l-0.01498,-0.09426c-0.1736,-0.46768 -0.26384,-0.99637 -0.24654,-1.55188l0.03381,-1.0864l0.0867,-0.38529l0.01249,-0.40122l0.10688,-0.475l0.07498,-2.40907l-0.10122,-1.29917l0.02576,-0.23237l-0.03652,-0.22989l0.0009,-0.02899l-0.02282,-0.09542l-0.16769,-0.37676l-0.09694,-0.43795l-0.69207,-2.00554l-0.03188,-0.23105l-0.09037,-0.20302l-0.19959,-0.90165l-0.13851,-0.2965l-0.09946,-0.41591l-0.1677,-0.37676l-0.43872,-1.98198l-0.01454,-0.52402l-0.08157,-0.51344l0.0078,-0.25062l-0.07701,-0.48475l0.01249,-0.40122l-0.06246,-0.39321l0.00383,-0.12296l-0.03367,-0.15212l-0.01454,-0.524l-0.08157,-0.51344l0.1285,-4.12832l0.0867,-0.38529l0.01249,-0.40122l0.10689,-0.475l0.02809,-0.90245l0.08669,-0.38529l0.01249,-0.40122l0.17682,-0.78584l0.18632,-1.00214l0.07336,-0.18255l0.0185,-0.20469l0.31846,-1.09613l0.16365,-0.88021l0.07336,-0.18255l0.0185,-0.20469l0.3041,-1.04671l0.16704,-1.04432l0.16268,-0.43861l0.09574,-0.47097l0.42791,-1.01176l0.30755,-1.21544l0.1251,-0.25813l0.06,-0.29519l1.53466,-3.62864l0.6843,-2.3553l0.15711,-0.295l0.09079,-0.33913l0.42345,-0.84146l0.28499,-0.83021l0.12508,-0.20767l0.06674,-0.24934l0.5334,-1.05992l0.09649,-0.11607l0.0558,-0.15498l0.31768,-0.5083l0.59859,-1.74378l0.06555,-0.10882l0.0272,-0.1338l1.89477,-4.48012l0.4345,-1.49552l0.3686,-2.14623l0.09588,-0.24911l0.03074,-0.27585l0.61735,-1.96314l0.19846,-1.96158l0.04991,-0.16484l-0.00095,-0.17723l0.39118,-2.10403l0.3834,-2.39702l0.23026,-2.54817l0.23395,-7.51639l-0.08419,-1.56526l-0.23637,-1.48784l-0.27591,-1.48578l0.00031,-0.05578l-0.01857,-0.05026l-0.10504,-0.66117l-0.24268,-0.89534l-0.00712,-0.09765l-0.03775,-0.08482l-0.19959,-0.90165l-0.13851,-0.2965l-0.05308,-0.22198l-0.03954,-0.01251l-0.16132,-0.36243l-0.23521,-0.28544l-0.00285,-0.24939l-0.24769,-0.55647l-0.01933,-0.08732l-0.002,-0.00475l-0.1773,-0.22813l-0.31277,-0.66949l-0.09946,-0.41591l-0.10234,-0.22993l-0.28687,-0.40599l-0.19261,-0.4602l-0.24894,-0.41164l-0.153,-0.44338l-0.01757,-0.12736l-0.32667,-0.39646l-0.00186,-0.16272l-0.12644,-0.20907l-0.15301,-0.44338l-0.22824,-1.65456l0.40403,-0.72516l0.06592,-0.89238l1.0115,-1.04138l0.19108,-0.11226l0.01491,-0.03105l0.07031,-0.01901l0.06352,-0.03732l0.56534,-0.13276l0.56248,-0.15212l0.0696,0.00369l0.07066,-0.0166l0.02271,0.02154l4.19496,0.22228l1.32845,-0.12166l1.13361,-0.15036l0.17809,0.03363l0.1762,-0.04767l0.85819,0.04547l0.37153,-0.10047l0.30751,0.01629l0.30136,-0.08152l0.33306,0.01766l0.2953,0.11312l0.30751,0.01629l0.65935,0.25258l0.23747,0.18178l0.26612,0.09209l0.36398,0.26206l0.17482,-0.05237l0.26852,0.23004l0.30822,0.11807l0.08803,0.22141l0.4107,0.35184l0.18834,0.09316l0.27421,0.24863l0.30965,0.16307l0.48606,0.46104l0.15989,0.24907l0.20814,0.17831l0.15174,0.21473l0.28583,0.27111l0.15988,0.24907l0.20815,0.17831l0.31953,0.45221l0.11934,0.28514l0.1773,0.22813l0.05253,0.11244l0.08163,0.07743l0.15989,0.24907l0.20814,0.17831l0.31953,0.45222l0.11934,0.28514l0.1773,0.22811l0.58942,1.26168l1.37826,2.61219l0.11558,0.40319l0.18215,0.35892l0.189,0.69732l0.28504,0.54024l0.11558,0.40319l0.18215,0.35892l0.26458,0.97615l0.2239,0.64881l0.41975,1.00292l0.06941,0.34762l0.13827,0.31065l0.09694,0.43795l0.23307,0.67538l0.04877,0.35355l0.1196,0.32357l0.6779,4.26705l0.1196,0.54031l0.00354,0.12781l0.04258,0.11521l0.25947,1.63322l0.1196,0.54031l0.01454,0.524l0.08157,0.51344l-0.01456,0.46789l0.07701,0.48474l-0.00247,0.07948l0.02384,0.0732l0.13271,1.09522l-0.00365,0.0538l0.01495,0.05034l0.09237,0.96263l0.20914,0.77162l0.02193,0.30042l0.09045,0.27774l0.13271,1.09522l-0.00364,0.0538l0.01495,0.05034l0.10158,1.05857l0.23806,1.07544l0.00717,0.25856l0.07163,0.24126l0.10158,1.05857l0.23806,1.07544l0.00571,0.20598l0.06178,0.18971l0.10841,0.89464l0.24929,1.12623l0.00354,0.12781l0.04258,0.11521l0.10504,0.66117l0.13243,0.48861l1.0276,1.94759l0.36904,0.39265l0.1898,0.33142l0.24421,0.26387l0.55026,0.97617l2.34198,3.3144l0.50813,0.54064l0.21276,0.3715l0.26654,0.30682l0.37179,0.70464l0.6784,0.96008l0.11935,0.28514l0.1773,0.22813l0.08989,0.1924l0.31395,0.33404l0.25337,0.44242l0.30139,0.38779l0.62554,1.33897l0.04705,0.19676l0.09786,0.16182l0.21346,0.61857l0.34471,0.65333l0.07961,0.27771l0.14077,0.23276l0.306,0.88677l0.01879,0.13623l0.05857,0.11541l0.26458,0.97613l0.56932,1.64981l0.01879,0.13623l0.05857,0.11541l0.26458,0.97615l0.26332,0.76305l0.01879,0.13623l0.05857,0.11541l0.29925,1.10404l0.0163,0.22337l0.07471,0.2021l0.06397,0.40266l0.28748,0.68686l0.06941,0.34762l0.13827,0.31065l0.29248,1.32132l0.00717,0.25856l0.07163,0.24126l0.08854,0.92267l0.34496,1.18033l0.04184,0.45529l0.11347,0.434l0.09629,1.49637l0.24032,1.2941l-0.00126,0.2258l0.05874,0.21241l0.23544,3.02184l0.12234,1.27487l-0.0251,0.27066l0.04241,0.26696l-0.14878,4.78017l-0.07014,0.31172l0.00174,0.32488l-0.20034,1.07757l-0.07336,0.18255l-0.0185,0.20469l-0.22983,0.79107l-0.01735,0.55751l-0.02833,0.12591l0.03477,0.10076l-0.21077,0.68137l-0.15864,0.705l-0.07519,0.05091l-0.03765,0.1217l-0.09872,0.17719l-0.07159,0.31817l-0.21649,0.48149l-0.16013,0.51764l-0.15648,0.28085l-0.06815,0.23456l-0.19056,0.35778l-0.12498,0.40403l-0.26183,0.46993l-0.10486,0.24793l-0.27371,0.38395l-0.22058,0.43831l-1.55092,1.86563l-0.46961,0.84287l-0.28492,0.67367l-0.13901,0.19501l-0.01197,0.16198l-0.18466,0.19012l-0.0177,0.08708l-0.03366,0.07957l-0.02023,0.08989l-0.02493,0.01687l-0.64141,1.51661l-0.13901,0.19501l-0.01197,0.16198l-0.38904,0.40054l-0.12743,0.17876l-0.00341,0.04607l-0.11066,0.11394l-0.09601,0.13468l-0.03548,0.0007l-0.14689,0.15124l-0.12743,0.17876l-0.00341,0.04607l-0.11066,0.11394l-0.09601,0.13468l-0.03548,0.0007l-0.14689,0.15124l-0.33751,0.47345l-0.12471,0.00242l-0.16024,0.16497l-0.33982,0.19964l-0.17709,0.0416l-0.1556,0.11791l-1.0127,0.38162l-0.32829,0.01551l-0.01189,0.00698l-0.56534,0.13276l-0.56247,0.15212l-0.0696,-0.00369l-0.07067,0.0166l-0.02271,-0.02154l-0.08926,-0.00472l-0.44116,0.091l-0.35682,0.13447l-0.40162,0.01896l-0.39351,0.10643l-0.76035,-0.04029l-0.11658,0.04394l-0.40162,0.01896l-0.39351,0.10643l-0.09423,-0.00499l-0.11658,0.04394l-0.09796,0.00462l-0.0883,0.05555l-0.67288,0.18199l-0.30751,-0.01629l-0.30136,0.08152l-0.59382,-0.03147l-0.11659,0.04394l-0.09796,0.00461l-0.0883,0.05555l-0.67288,0.18199l-0.30751,-0.01629l-0.30136,0.08152l-1.41795,-0.07513l-0.5949,0.12272l-0.24803,-0.02861l-0.24382,0.06595l-20.48312,-1.08534l-0.3856,-0.1477l-0.39911,-0.06139l-0.98565,-0.48752l-0.0587,-0.05322l-0.15255,-0.00808l-0.02398,0.01906l-0.0694,-0.02402l-0.0696,-0.00369l-0.55117,-0.21114l-0.55523,-0.19215l-0.06099,-0.0439l-0.0689,-0.02639l-0.01293,-0.03254l-0.18348,-0.13211l-0.94345,-1.14496l-0.01832,-1.6033l-0.00202,-0.00511l0.00192,-0.004l-0.01142,-0.99957c-0.60556,-0.26794 -1.10385,-0.82909 -1.40014,-1.54938z" fill="url(#color-2)" stroke="none" stroke-width="0.5"/><path d="M220.01248,66.9137l-0.02771,-0.02812l-0.00701,-0.08853c-0.12612,-0.4514 -0.17118,-0.94874 -0.1154,-1.4576l0.10908,-0.99516l0.1074,-0.34381l0.04028,-0.36755l0.13241,-0.42386l0.24187,-2.20679l0.00014,-1.20738l0.04037,-0.21059l-0.0171,-0.21592l0.00291,-0.02655l-0.01414,-0.09057l-0.12721,-0.36705l-0.05774,-0.41468l-0.49266,-1.92933l-0.01274,-0.21646l-0.06855,-0.19779l-0.11887,-0.85376l-0.10613,-0.28964l-0.06164,-0.39473l-0.12721,-0.36704l-0.2613,-1.8767l0.02424,-0.48378l-0.03818,-0.48224l0.02516,-0.22958l-0.03604,-0.45529l0.04028,-0.36754l-0.02924,-0.36931l0.01234,-0.11263l-0.02005,-0.14402l0.02423,-0.48378l-0.03818,-0.48224l0.41449,-3.78168l0.1074,-0.34381l0.04028,-0.36754l0.13241,-0.42386l0.09061,-0.82668l0.10739,-0.34381l0.04028,-0.36754l0.21905,-0.70122l0.24331,-0.89905l0.08058,-0.15894l0.03171,-0.18603l0.37161,-0.96936l0.21371,-0.78966l0.08058,-0.15894l0.03171,-0.18603l0.35484,-0.92565l0.2286,-0.9402l0.18112,-0.38357l0.12187,-0.42153l0.46622,-0.87838l0.37013,-1.08042l0.13359,-0.22215l0.07638,-0.26419l1.67206,-3.15027l0.79848,-2.08288l0.16569,-0.25215l0.10785,-0.30084l0.4499,-0.72225l0.32173,-0.72886l0.12996,-0.17572l0.07929,-0.2212l0.56672,-0.90979l0.09709,-0.09498l0.06245,-0.13575l0.32869,-0.42873l0.67576,-1.53085l0.06811,-0.09209l0.03462,-0.11974l2.06441,-3.88946l0.50701,-1.32255l0.49309,-1.92914l0.10607,-0.21741l0.04807,-0.24998l0.70876,-1.73035l0.32334,-1.78007l0.05773,-0.14553l0.01185,-0.16315l0.51083,-1.88757l0.5247,-2.15802l0.39469,-2.31575l0.75465,-6.88526l0.03489,-1.45007l-0.11064,-1.39744l-0.14716,-1.40039l0.00429,-0.05129l-0.01348,-0.04848l-0.04917,-0.62102l-0.15896,-0.85321l0.00046,-0.09069l-0.02864,-0.08263l-0.11888,-0.85375l-0.10613,-0.28965l-0.03289,-0.21067l-0.03547,-0.01635l-0.12237,-0.35308l-0.19587,-0.29132l0.01528,-0.22975l-0.18789,-0.54214l-0.01151,-0.08268l-0.00149,-0.00462l-0.14671,-0.23151l-0.23965,-0.65404l-0.06164,-0.39472l-0.07763,-0.224l-0.23474,-0.40849l-0.14413,-0.44684l-0.19945,-0.40905l-0.10891,-0.42652l-0.00702,-0.11931l-0.27203,-0.40457l0.00996,-0.1499l-0.1013,-0.20777l-0.10892,-0.42653l-0.09119,-1.54981l0.42369,-0.61767l0.12468,-0.81281l1.00515,-0.8343l0.18383,-0.07992l0.01594,-0.02673l0.06604,-0.00889l0.06111,-0.02657l0.52955,-0.05305l0.52831,-0.0712l0.06376,0.0119l0.06619,-0.00664l0.01935,0.02258l3.84273,0.717l1.23068,0.05043l1.05353,0.0002l0.1614,0.05268l0.16549,-0.0223l0.78614,0.14669l0.34895,-0.04703l0.28169,0.05255l0.28305,-0.03815l0.30509,0.05694l0.26351,0.14013l0.28169,0.05255l0.58837,0.3129l0.20539,0.19623l0.23818,0.11722l0.316,0.28552l0.16456,-0.02682l0.23048,0.24441l0.27504,0.14627l0.06509,0.21441l0.35252,0.37382l0.16656,0.1087l0.23439,0.2622l0.27312,0.18782l0.41401,0.48347l0.12919,0.24864l0.17866,0.18944l0.12416,0.21606l0.24346,0.28431l0.12919,0.24864l0.17866,0.18944l0.26147,0.455l0.08931,0.27687l0.14671,0.23151l0.04025,0.10985l0.06954,0.08119l0.12919,0.24864l0.17865,0.18944l0.26147,0.45501l0.08931,0.27687l0.14672,0.23148l0.45162,1.23253l1.0803,2.5712l0.07738,0.38499l0.14179,0.35241l0.12381,0.66449l0.22342,0.53176l0.07738,0.38499l0.14179,0.35239l0.17331,0.9302l0.15938,0.62416l0.31412,0.97382l0.0389,0.32822l0.10489,0.30263l0.05774,0.41469l0.16591,0.64972l0.01948,0.33116l0.08679,0.31224l0.31731,4.00781l0.07123,0.51161l-0.00591,0.11802l0.0309,0.11118l0.12145,1.534l0.07123,0.51161l-0.02424,0.48378l0.03818,0.48225l-0.04698,0.42861l0.03605,0.45529l-0.00798,0.07279l0.01668,0.07024l0.04347,1.02364l-0.00722,0.04903l0.01014,0.04815l0.01588,0.89677l0.137,0.73533l-0.00139,0.27901l0.06326,0.26652l0.04347,1.02363l-0.00721,0.04903l0.01013,0.04815l0.01746,0.9861l0.14179,1.01831l-0.01196,0.23873l0.04857,0.23069l0.01746,0.9861l0.14179,1.01831l-0.00953,0.19016l0.04321,0.18204l0.03551,0.83617l0.14848,1.0664l-0.00591,0.11802l0.0309,0.11118l0.04917,0.62102l0.08675,0.46562l0.80545,1.91702l0.31128,0.40625l0.1508,0.32804l0.2057,0.27256l0.4361,0.96513l1.91636,3.33485l0.4286,0.55939l0.16904,0.36772l0.22315,0.31478l0.29141,0.69358l0.55511,0.96599l0.08931,0.27687l0.14671,0.23151l0.06887,0.18797l0.26481,0.34561l0.20131,0.43791l0.2494,0.39351l0.4793,1.30807l0.02916,0.18674l0.0784,0.1608l0.15195,0.59507l0.27019,0.64308l0.0533,0.26515l0.11277,0.23131l0.21783,0.85306l0.00751,0.12761l0.04559,0.11332l0.17331,0.93019l0.40527,1.58713l0.00751,0.12761l0.04559,0.11332l0.17331,0.9302l0.18744,0.73406l0.00751,0.12761l0.04559,0.1133l0.19602,1.05211l-0.00104,0.20746l0.05421,0.19504l0.02994,0.3782l0.21513,0.66693l0.0389,0.32823l0.10489,0.30262l0.1742,1.25113l-0.01196,0.23871l0.04857,0.23069l0.01522,0.85951l0.23259,1.12785l0.00581,0.42391l0.07322,0.41308l-0.01882,1.38818l0.12817,1.21973l-0.01736,0.20755l0.03879,0.20255l-0.00031,2.80836l0.02104,1.18761l-0.04252,0.24589l0.01985,0.25074l-0.47993,4.37878l-0.08689,0.27818l-0.02172,0.29905l-0.26162,0.96672l-0.08058,0.15894l-0.03171,0.18603l-0.26818,0.69957l-0.05597,0.5107l-0.0351,0.11237l0.02475,0.09694l-0.24277,0.60097l-0.19652,0.62911l-0.07282,0.03762l-0.04336,0.10733l-0.10352,0.15091l-0.08869,0.28392l-0.23369,0.41643l-0.18444,0.45659l-0.1641,0.23924l-0.07952,0.20743l-0.20096,0.30581l-0.14395,0.35636l-0.27457,0.40026l-0.11424,0.21525l-0.27932,0.31972l-0.23435,0.37621l-1.56049,1.52658l-0.49246,0.71792l-0.31042,0.58487l-0.14187,0.16239l-0.02263,0.14755l-0.18351,0.15232l-0.02253,0.07793l-0.03667,0.06908l-0.02506,0.08022l-0.02414,0.01248l-0.69884,1.31665l-0.14187,0.16239l-0.02263,0.14754l-0.3866,0.32088l-0.13005,0.14887l-0.00644,0.04195l-0.10997,0.09128l-0.09798,0.11216l-0.03268,-0.0037l-0.14597,0.12116l-0.13005,0.14887l-0.00644,0.04195l-0.10997,0.09128l-0.09798,0.11216l-0.03268,-0.0037l-0.14597,0.12116l-0.34444,0.39427l-0.11489,-0.013l-0.15923,0.13216l-0.3269,0.14212l-0.16588,0.01662l-0.15159,0.08943l-0.95891,0.22729l-0.30309,-0.02586l-0.01144,0.00497l-0.52955,0.05305l-0.5283,0.0712l-0.06376,-0.0119l-0.0662,0.00664l-0.01935,-0.02258l-0.08177,-0.01527l-0.41233,0.02981l-0.33786,0.08009l-0.37078,-0.03164l-0.3696,0.04981l-0.69651,-0.12996l-0.11039,0.02616l-0.37078,-0.03164l-0.3696,0.04981l-0.08632,-0.01611l-0.11039,0.02616l-0.09044,-0.00772l-0.08521,0.04033l-0.632,0.08519l-0.28169,-0.05255l-0.28305,0.03815l-0.54395,-0.10149l-0.11039,0.02616l-0.09044,-0.00772l-0.08521,0.04033l-0.632,0.08519l-0.28169,-0.05255l-0.28305,0.03815l-1.29889,-0.24237l-0.55602,0.0402l-0.22609,-0.05663l-0.22901,0.03087l-18.76321,-3.50099l-0.34409,-0.18298l-0.36271,-0.10522l-0.87165,-0.56886l-0.05017,-0.05613l-0.13974,-0.02607l-0.02342,0.01461l-0.06211,-0.03058l-0.06376,-0.0119l-0.49184,-0.26156l-0.49693,-0.24457l-0.05295,-0.04785l-0.06148,-0.03269l-0.00956,-0.03151l-0.15929,-0.14395l-0.78564,-1.16845l0.09822,-1.47701l-0.0015,-0.00493l0.00205,-0.00346l0.06123,-0.92083c-0.53778,-0.32045 -0.95586,-0.8975 -1.17669,-1.59624z" fill="url(#color-3)" stroke="none" stroke-width="0.5"/><path d="M222.05611,67.43436l-0.02763,-0.02205l-0.01343,-0.08024c-0.15133,-0.39693 -0.23196,-0.8469 -0.22105,-1.32101l0.02134,-0.92721l0.0713,-0.32972l0.00788,-0.34242l0.0879,-0.40648l0.04731,-2.05604l-0.09533,-1.10712l0.02037,-0.19852l-0.03275,-0.19568l0.00057,-0.02474l-0.02013,-0.08115l-0.14566,-0.31945l-0.08573,-0.37248l-0.60427,-1.70279l-0.02879,-0.19674l-0.07849,-0.17215l-0.1765,-0.76686l-0.12021,-0.25129l-0.08773,-0.35363l-0.14566,-0.31942l-0.38797,-1.68566l-0.01602,-0.44686l-0.07313,-0.43704l0.00492,-0.21389l-0.06905,-0.41263l0.00788,-0.34241l-0.05601,-0.3347l0.00242,-0.10493l-0.02978,-0.12937l-0.01603,-0.44685l-0.07313,-0.43705l0.08108,-3.52337l0.0713,-0.32972l0.00788,-0.34242l0.0879,-0.40648l0.01773,-0.77019l0.07129,-0.32973l0.00788,-0.34242l0.14542,-0.67245l0.15202,-0.85711l0.06133,-0.15659l0.01436,-0.17485l0.26411,-0.93887l0.13353,-0.75283l0.06133,-0.15661l0.01437,-0.17483l0.25219,-0.89652l0.13528,-0.89286l0.13575,-0.37608l0.07842,-0.40292l0.35805,-0.86817l0.25397,-1.0405l0.10494,-0.22168l0.04915,-0.25252l1.28413,-3.11365l0.56749,-2.01735l0.13199,-0.25351l0.0751,-0.29037l0.35543,-0.72283l0.23739,-0.71161l0.10527,-0.17863l0.05522,-0.21349l0.44772,-0.9105l0.08151,-0.10015l0.04653,-0.13288l0.26749,-0.43737l0.4986,-1.49465l0.05517,-0.0936l0.02228,-0.11445l1.58545,-3.84428l0.36034,-1.28093l0.29961,-1.83527l0.08008,-0.21363l0.02431,-0.23569l0.51309,-1.68203l0.15575,-1.67575l0.04143,-0.14121l-0.00203,-0.15119l0.31917,-1.79956l0.31051,-2.04942l0.17882,-2.17653l0.14763,-6.41495l-0.08265,-1.33433l-0.21193,-1.26648l-0.24565,-1.26428l-0.00012,-0.04759l-0.01619,-0.04266l-0.09418,-0.56282l-0.21321,-0.76095l-0.00675,-0.08322l-0.03279,-0.07192l-0.1765,-0.76685l-0.12021,-0.2513l-0.04681,-0.18875l-0.03382,-0.01021l-0.14013,-0.3073l-0.20263,-0.24074l-0.00416,-0.21273l-0.21515,-0.47183l-0.01709,-0.07425l-0.00174,-0.00406l-0.15283,-0.19253l-0.27145,-0.56746l-0.08773,-0.35363l-0.08889,-0.19494l-0.24753,-0.34297l-0.16749,-0.39033l-0.21522,-0.34824l-0.13359,-0.37645l-0.01587,-0.10845l-0.28142,-0.33437l-0.00271,-0.13879l-0.10931,-0.17687l-0.1336,-0.37645l-0.20614,-1.40881l0.33967,-0.62338l0.05006,-0.76209l0.85571,-0.9003l0.16224,-0.098l0.0125,-0.02665l0.05985,-0.01706l0.05393,-0.03258l0.48138,-0.11992l0.4788,-0.13639l0.0594,0.00232l0.06017,-0.01497l0.01952,0.01811l3.58025,0.14027l1.13245,-0.11941l0.96604,-0.14161l0.15216,0.0266l0.14998,-0.04273l0.73244,0.02869l0.31625,-0.09009l0.26245,0.01029l0.25652,-0.07309l0.28426,0.01113l0.2527,0.09303l0.26245,0.01029l0.56424,0.20771l0.20384,0.15227l0.22766,0.07542l0.31232,0.21928l0.14878,-0.04674l0.23066,0.19309l0.26376,0.0971l0.07663,0.18784l0.3528,0.29532l0.16132,0.07725l0.23565,0.20888l0.26528,0.13547l0.41785,0.38759l0.13812,0.2106l0.1788,0.14967l0.13093,0.1814l0.24572,0.22793l0.13812,0.2106l0.1788,0.14966l0.27572,0.38202l0.10378,0.24184l0.15283,0.19253l0.04559,0.09532l0.07018,0.06509l0.13812,0.2106l0.17879,0.14966l0.27572,0.38202l0.10378,0.24184l0.15284,0.19251l0.51155,1.0694l1.19385,2.21225l0.10139,0.34259l0.15787,0.30406l0.16606,0.59265l0.2469,0.45752l0.10139,0.34261l0.15787,0.30404l0.23245,0.82963l0.19549,0.55086l0.36502,0.85066l0.06161,0.29574l0.1201,0.26339l0.08573,0.37248l0.2035,0.57345l0.04405,0.30104l0.10426,0.27461l0.60782,3.63223l0.10576,0.45953l0.00391,0.109l0.03712,0.09778l0.23264,1.39024l0.10577,0.45952l0.01602,0.44685l0.07314,0.43705l-0.00919,0.39933l0.06905,0.41263l-0.00156,0.06782l0.02084,0.06217l0.12079,0.93276l-0.00274,0.04592l0.0131,0.04278l0.08546,0.82012l0.18376,0.65581l0.02078,0.25601l0.07908,0.23588l0.12079,0.93275l-0.00273,0.04593l0.0131,0.04278l0.09398,0.90186l0.21052,0.91465l0.00791,0.2205l0.06277,0.20497l0.09398,0.90186l0.21052,0.91465l0.0063,0.17566l0.05401,0.1611l0.09867,0.76195l0.22046,0.95786l0.00391,0.109l0.03712,0.09778l0.09418,0.56281l0.11636,0.41526l0.89011,1.64939l0.31754,0.33062l0.16421,0.28049l0.21016,0.22225l0.47618,0.82629l2.02084,2.79996l0.43722,0.45525l0.18408,0.31443l0.2295,0.25859l0.32205,0.59676l0.58538,0.81105l0.10379,0.24184l0.15283,0.19253l0.07801,0.16309l0.27014,0.28127l0.21921,0.37445l0.2598,0.32726l0.54291,1.13492l0.0415,0.16731l0.0846,0.1369l0.18638,0.52519l0.29859,0.55329l0.06984,0.23597l0.1217,0.1969l0.26718,0.75289l0.01697,0.11599l0.05076,0.09776l0.23246,0.82961l0.49709,1.40075l0.01697,0.11599l0.05076,0.09776l0.23246,0.82961l0.22991,0.64786l0.01697,0.11599l0.05076,0.09776l0.26292,0.93835l0.01545,0.19036l0.06513,0.17154l0.05735,0.34277l0.24999,0.58258l0.06161,0.29574l0.1201,0.26338l0.25865,1.12379l0.00791,0.22048l0.06277,0.20497l0.08191,0.78608l0.30244,1.00287l0.03884,0.38792l0.0998,0.3689l0.09249,1.27543l0.21396,1.10116l0.00049,0.19264l0.05158,0.18051l0.22174,2.57515l0.11318,1.08616l-0.01954,0.23119l0.03802,0.22724l-0.09389,4.07968l-0.05768,0.26676l0.00372,0.27713l-0.16346,0.92164l-0.06133,0.15661l-0.01437,0.17485l-0.1906,0.67756l-0.01095,0.47582l-0.0233,0.10774l0.03036,0.08556l-0.17509,0.58374l-0.13046,0.60331l-0.06379,0.0443l-0.03128,0.10426l-0.083,0.15232l-0.05888,0.27227l-0.18136,0.41331l-0.13302,0.44349l-0.13156,0.24145l-0.05651,0.20091l-0.16009,0.30745l-0.10382,0.34614l-0.22012,0.40398l-0.08774,0.21274l-0.23084,0.33077l-0.18514,0.37651l-1.31019,1.60982l-0.3948,0.72456l-0.2384,0.57806l-0.11725,0.16801l-0.00909,0.13833l-0.15623,0.16436l-0.0145,0.0745l-0.02816,0.06828l-0.01664,0.07693l-0.02114,0.01469l-0.53671,1.30135l-0.11724,0.16801l-0.00909,0.13832l-0.32912,0.34627l-0.10748,0.154l-0.00259,0.03935l-0.09362,0.09848l-0.08098,0.11601l-0.03026,0.00101l-0.12426,0.13074l-0.10748,0.154l-0.00259,0.03935l-0.09362,0.09848l-0.08098,0.11601l-0.03026,0.00101l-0.12426,0.13074l-0.28466,0.40789l-0.10638,0.00352l-0.13556,0.14263l-0.28852,0.17431l-0.15079,0.03757l-0.13193,0.1024l-0.8613,0.33747l-0.27996,0.01709l-0.0101,0.00611l-0.48137,0.1199l-0.47879,0.1364l-0.0594,-0.00233l-0.06018,0.01498l-0.01952,-0.01811l-0.07618,-0.003l-0.37573,0.08285l-0.30347,0.11891l-0.34249,0.02091l-0.33497,0.09541l-0.64893,-0.02543l-0.09915,0.03886l-0.34248,0.02091l-0.33496,0.09542l-0.08042,-0.00316l-0.09915,0.03886l-0.08354,0.00511l-0.07494,0.04843l-0.57278,0.16317l-0.26245,-0.01029l-0.25652,0.07309l-0.5068,-0.01986l-0.09916,0.03886l-0.08354,0.00511l-0.07494,0.04843l-0.57277,0.16317l-0.26245,-0.01029l-0.25652,0.07309l-1.21017,-0.04742l-0.50666,0.11169l-0.21179,-0.02149l-0.20755,0.05913l-17.48159,-0.68489l-0.32997,-0.12147l-0.34091,-0.04768l-0.84423,-0.40429l-0.05044,-0.04471l-0.1302,-0.00511l-0.02032,0.01656l-0.05937,-0.01967l-0.0594,-0.00232l-0.47167,-0.17363l-0.47499,-0.15738l-0.05233,-0.03674l-0.05896,-0.0217l-0.01126,-0.0276l-0.15744,-0.11055l-0.81276,-0.96566l-0.02671,-1.36755l-0.00176,-0.00432l0.00161,-0.00345l-0.01666,-0.8526c-0.51845,-0.22145 -0.94742,-0.6943 -1.20516,-1.30527z" fill="url(#color-4)" stroke="none" stroke-width="0.5"/><path d="M205.37625,179.46951c0,0 9.42687,-30.462 11.80468,-48.45901c2.35457,-17.82105 2.39314,-59.00037 2.39314,-59.00037l41.66052,-0.34109c0,0 -1.12795,40.94869 1.42617,59.22261c2.46509,17.63697 13.64091,48.57786 13.64091,48.57786z" fill="url(#color-5)" stroke="none" stroke-width="0"/><path d="M179.86976,179.65803v-60.26043h46.61412v60.26043z" fill="url(#color-6)" stroke="url(#color-7)" stroke-width="0"/><path d="M267.87433,151.63824c0,14.98335 0.01372,26.93128 -17.8091,27.12975c-16.49564,0.18369 -17.8091,-12.1464 -17.8091,-27.12975c0,-14.98335 2.64508,-26.92288 17.8091,-27.12975c15.82517,-0.21589 17.8091,12.1464 17.8091,27.12975z" fill="url(#color-8)" stroke="url(#color-9)" stroke-width="0"/><path d="M304.69505,151.74275c0,14.98335 0.01372,26.93128 -17.8091,27.12975c-16.49563,0.18369 -17.8091,-12.1464 -17.8091,-27.12975c0,-14.98335 2.64508,-26.92288 17.8091,-27.12975c15.82517,-0.2159 17.8091,12.1464 17.8091,27.12975z" fill="url(#color-10)" stroke="url(#color-11)" stroke-width="0"/><path d="M248.30844,125.57587v-12.07868h4.07958v12.07868z" fill="#312d29" stroke="url(#color-12)" stroke-width="0"/><path d="M285.75928,125.85541v-12.07868h4.07958v12.07868z" fill="#312d29" stroke="url(#color-13)" stroke-width="0"/><path d="M246.70947,118.28278v-3.56521h44.12864v3.56521z" fill="#36322e" stroke="none" stroke-width="0"/><path d="M219.3546,82.45017v-7.24379h42.01397v7.24379z" fill="url(#color-14)" stroke="url(#color-15)" stroke-width="0"/><path d="M219.13907,94.98371v-7.24379h42.01397v7.24379z" fill="url(#color-16)" stroke="url(#color-17)" stroke-width="0"/><path d="M174.11977,179.65803v-31.51043h57.11412v31.51043z" fill="url(#color-18)" stroke="url(#color-19)" stroke-width="0"/><path d="M182.86977,140.2627v-14.86511h40.61412v14.86511z" fill="url(#color-20)" stroke="url(#color-21)" stroke-width="0"/><path d="M176.86977,171.42937v-14.86511h50.36412v14.86511z" fill="url(#color-22)" stroke="url(#color-23)" stroke-width="0"/><path d="M172.75034,180.33096v-1.31049h134.49932v1.31049z" fill="#312d29" stroke="url(#color-24)" stroke-width="0"/></g></g></svg>