<svg version="1.1" xmlns="http://www.w3.org/2000/svg" xmlns:xlink="http://www.w3.org/1999/xlink" width="117.59687" height="118.91739" viewBox="0,0,117.59687,118.91739"><defs><linearGradient x1="275.50757" y1="191.98785" x2="286.75581" y2="187.92118" gradientUnits="userSpaceOnUse" id="color-1"><stop offset="0" stop-color="#242424"/><stop offset="1" stop-color="#373737"/></linearGradient><radialGradient cx="273.15758" cy="189.35931" r="3.52256" gradientUnits="userSpaceOnUse" id="color-2"><stop offset="0" stop-color="#bfbfbf"/><stop offset="1" stop-color="#9a9a9a"/></radialGradient><linearGradient x1="287.87992" y1="189.18467" x2="333.08237" y2="184.57805" gradientUnits="userSpaceOnUse" id="color-3"><stop offset="0" stop-color="#b2b2b2"/><stop offset="1" stop-color="#c4c4c4"/></linearGradient><linearGradient x1="288.21438" y1="189.51181" x2="317.80017" y2="186.49676" gradientUnits="userSpaceOnUse" id="color-4"><stop offset="0" stop-color="#cccccc"/><stop offset="1" stop-color="#d8d8d8"/></linearGradient><linearGradient x1="285.3307" y1="189.04097" x2="287.76242" y2="188.83649" gradientUnits="userSpaceOnUse" id="color-5"><stop offset="0" stop-color="#b5b5b5"/><stop offset="1" stop-color="#c5c5c5"/></linearGradient><linearGradient x1="241.64187" y1="149.42847" x2="241.4115" y2="156.27568" gradientUnits="userSpaceOnUse" id="color-6"><stop offset="0" stop-color="#736b4f"/><stop offset="1" stop-color="#bec286"/></linearGradient><linearGradient x1="248.27234" y1="195.12412" x2="258.65356" y2="189.18343" gradientUnits="userSpaceOnUse" id="color-7"><stop offset="0" stop-color="#242424"/><stop offset="1" stop-color="#373737"/></linearGradient><radialGradient cx="245.5053" cy="192.93894" r="3.52256" gradientUnits="userSpaceOnUse" id="color-8"><stop offset="0" stop-color="#bfbfbf"/><stop offset="1" stop-color="#9a9a9a"/></radialGradient><linearGradient x1="259.97822" y1="190.23475" x2="303.71477" y2="177.9223" gradientUnits="userSpaceOnUse" id="color-9"><stop offset="0" stop-color="#b2b2b2"/><stop offset="1" stop-color="#c4c4c4"/></linearGradient><linearGradient x1="260.36398" y1="190.4995" x2="288.99029" y2="182.44084" gradientUnits="userSpaceOnUse" id="color-10"><stop offset="0" stop-color="#cccccc"/><stop offset="1" stop-color="#d8d8d8"/></linearGradient><linearGradient x1="257.44226" y1="190.53162" x2="259.80258" y2="189.91198" gradientUnits="userSpaceOnUse" id="color-11"><stop offset="0" stop-color="#b5b5b5"/><stop offset="1" stop-color="#c5c5c5"/></linearGradient><radialGradient cx="238.1891" cy="124.36078" r="13.11833" gradientUnits="userSpaceOnUse" id="color-12"><stop offset="0" stop-color="#ccbe7a"/><stop offset="1" stop-color="#948f62"/></radialGradient></defs><g transform="translate(-222.9039,-115.40904)"><g data-paper-data="{&quot;isPaintingLayer&quot;:true}" fill-rule="nonzero" stroke-linejoin="miter" stroke-miterlimit="10" stroke-dasharray="" stroke-dashoffset="0" style="mix-blend-mode: normal"><g stroke="#000000" stroke-width="0" stroke-linecap="butt"><path d="M286.51117,190.71675c-0.42306,0.29223 -2.82633,-2.76554 -4.19258,-2.35144c-0.46906,0.14216 2.50889,4.49533 1.62014,4.81092c-0.52757,0.18735 -2.12839,-2.25495 -3.24361,-3.17726c-0.54332,-0.44932 -3.72593,-4.1113 -3.72593,-4.1113c0,0 -1.24756,-2.77955 -3.7732,-5.22372c-0.60735,-0.58775 -2.43716,-2.65041 -3.06771,-3.24763c-1.49234,-1.41342 -3.02876,-2.75811 -3.91984,-3.64868c-1.91658,-1.91548 -10.46661,-11.65775 -10.46661,-11.65775l3.43206,-4.49469c0,0 4.05844,5.18124 8.80186,10.31292c3.5682,3.86029 7.78085,7.61031 9.51508,9.56327c2.0525,2.31134 4.31166,5.60626 4.31166,5.60626c0,0 1.72475,2.1938 3.06088,4.12419c1.20222,1.73697 2.05515,3.21356 1.64776,3.49498z" data-paper-data="{&quot;index&quot;:null}" fill="#8b8560"/><path d="M250.86394,156.77014c3.87769,-4.52759 6.62525,-2.20197 7.99627,-0.78421c1.37101,1.41776 2.42808,-0.12559 -1.14383,4.00763c-3.01906,3.49349 -2.79392,2.78411 -4.16494,1.36633c-1.37101,-1.41776 -4.70693,-2.23184 -2.68749,-4.58976z" data-paper-data="{&quot;index&quot;:null}" fill="#42352d"/></g><g stroke="none" stroke-width="0" stroke-linecap="butt"><path d="M275.88104,193.02087l-0.51212,-5.00609l11.01338,-1.12664l0.5121,5.0061z" fill="url(#color-1)"/><path d="M277.69339,189.32478c0.66144,1.82954 -0.28546,3.84891 -2.11502,4.51037c-1.82955,0.66145 -3.84893,-0.28546 -4.51038,-2.11504c-0.66146,-1.82953 0.28546,-3.84893 2.11502,-4.51037c1.82955,-0.66145 3.84893,0.28546 4.51038,2.11504z" fill="url(#color-2)"/><path d="M288.35145,193.81168l-0.94308,-9.25403l45.07184,-2.68441l8.02057,1.55952l-7.37673,3.27934z" fill="url(#color-3)"/><path d="M288.52303,192.5403l-0.72732,-6.39735l37.64989,-2.13542l10.23561,0.16095l-9.69388,2.21526z" fill="url(#color-4)"/><path d="M288.95117,176.84135c0,0 -1.22125,7.91266 -0.94245,11.85106c0.30609,4.32421 2.70475,13.04499 2.70475,13.04499c0,0 -4.84602,-8.7593 -5.14288,-12.95327c-0.29042,-4.10271 3.38059,-11.94282 3.38059,-11.94282z" fill="url(#color-5)"/></g><g><path d="M225.92438,227.14044l4.20132,-33.65782c0,0 6.78326,-2.09379 9.84981,-2.05352c3.6284,0.04764 0.55053,4.25166 0.55053,4.25166c0,0 -3.09293,0.04769 -3.41775,1.47935c-0.99336,4.37832 -3.18147,30.0854 -3.18147,30.0854z" fill="#a69b98" stroke="#000000" stroke-width="0" stroke-linecap="butt"/><path d="M241.20948,232.25041c0,0 -0.41114,1.93492 -1.23797,1.92406c-0.5927,-0.00778 -2.64406,-0.02105 -4.70308,-0.12865c-1.25183,-0.06541 -1.89387,-0.64271 -2.8253,-0.7978c-1.17261,-0.19524 -2.94117,0.18187 -3.78783,-0.02078c-1.56008,-0.3734 -2.36421,-0.80893 -2.36421,-0.80893c0,0 -0.25563,-1.02883 -0.26475,-1.58941c-0.01229,-0.75523 0.19763,-2.53463 0.19763,-2.53463c0,0 5.9353,-0.04164 8.24737,0.18905c1.36812,0.13652 4.23171,0.70242 4.23171,0.70242c0,0 1.45154,0.63472 1.65954,1.06472c0.25472,0.52664 0.84688,1.99995 0.84688,1.99995z" data-paper-data="{&quot;index&quot;:null}" fill="#141415" stroke="#000000" stroke-width="0" stroke-linecap="butt"/><path d="M240.94693,231.61226c0,0 -0.38566,-0.00506 -1.21248,-0.01592c-0.2482,-0.00326 0.6813,1.61073 -2.63539,1.29862c-3.13203,-0.29474 -2.76064,-1.22458 -3.8639,-1.31967c-2.30696,-0.19884 -2.59525,0.56101 -3.59282,0.39491c-0.34742,-0.05784 -0.51116,-0.12127 -1.77168,-0.9937c-0.86691,-0.60001 -0.6426,-1.75981 -1.23407,-2.39571c-0.86397,-0.92889 -0.78364,-1.89625 -0.78364,-1.89625l-0.03635,-3.04847c0,0 0.45734,2.21301 1.28538,3.04836c0.74087,0.7474 2.31695,0.01167 2.80058,0.01789c0.84688,0.01088 -0.64588,-3.27682 0.16356,-3.24794c0.43525,0.01552 3.7255,-0.18518 3.7255,-0.18518c0,0 0.07601,3.58119 0.30869,3.6044c1.36811,0.13652 4.59545,0.7072 4.59545,0.7072c0,0 1.45154,0.63472 1.65954,1.06472c0.25473,0.52664 0.59165,2.96675 0.59165,2.96675z" data-paper-data="{&quot;index&quot;:null}" fill="#252527" stroke="#000000" stroke-width="0" stroke-linecap="butt"/><path d="M234.98538,227.50372l-2.6818,1.05622" data-paper-data="{&quot;index&quot;:null}" fill="none" stroke="#ffffff" stroke-width="0.5" stroke-linecap="round"/><path d="M234.23878,228.94916l2.56532,-1.42155" data-paper-data="{&quot;index&quot;:null}" fill="none" stroke="#ffffff" stroke-width="0.5" stroke-linecap="round"/><path d="M237.89217,227.7844l-1.4741,1.43589" data-paper-data="{&quot;index&quot;:null}" fill="none" stroke="#ffffff" stroke-width="0.5" stroke-linecap="round"/><path d="M231.14203,224.66408l2.18566,-0.21384" data-paper-data="{&quot;index&quot;:null}" fill="none" stroke="#969696" stroke-width="0.5" stroke-linecap="round"/><path d="M231.61587,225.51918l1.94476,-0.33827" data-paper-data="{&quot;index&quot;:null}" fill="none" stroke="#969696" stroke-width="0.5" stroke-linecap="round"/></g><g><path d="M239.70444,191.34303c3.62872,0 10.54956,2.18267 10.54956,2.18267l3.03149,33.71008h-7.63934c0,0 -1.32697,-25.53818 -2.03751,-29.57011c-0.20138,-1.1427 -3.2979,-2.07857 -3.2979,-2.07857c0,0 -3.67312,-4.24407 -0.6063,-4.24407z" fill="#a69b98" stroke="#000000" stroke-width="0" stroke-linecap="butt"/><path d="M259.69262,234.32556c-0.59276,0 -2.64411,0.01365 -4.70436,-0.0669c-1.25258,-0.04897 -1.90215,-0.61779 -2.83553,-0.76063c-1.17507,-0.17982 -2.93854,0.22047 -3.78778,0.02896c-1.56485,-0.35288 -2.37463,-0.77782 -2.37463,-0.77782c0,0 -0.26911,-1.0254 -0.2856,-1.5858c-0.02221,-0.75501 0.16433,-2.53701 0.16433,-2.53701c0,0 5.93425,-0.11957 8.24914,0.08076c1.36979,0.11854 4.24057,0.6468 4.24057,0.6468c0,0 1.45976,0.6156 1.67337,1.04283c0.26162,0.52325 0.87307,1.98865 0.87307,1.98865c0,0 -0.3857,1.94015 -1.21259,1.94015z" data-paper-data="{&quot;index&quot;:null}" fill="#141415" stroke="#000000" stroke-width="0" stroke-linecap="butt"/><path d="M259.4217,231.7508c-0.24822,0 0.7024,1.60165 -2.61811,1.33311c-3.13563,-0.25358 -2.77648,-1.18823 -3.8809,-1.26883c-2.30937,-0.16854 -2.58765,0.59503 -3.58732,0.44205c-0.34815,-0.05328 -0.51271,-0.11454 -1.78459,-0.97035c-0.87472,-0.58857 -0.66566,-1.75122 -1.26542,-2.3793c-0.87609,-0.91745 -0.80847,-1.8858 -0.80847,-1.8858l-0.07637,-3.04773c0,0 0.48635,2.20681 1.32529,3.03122c0.75062,0.73761 2.3169,-0.01875 2.80058,-0.01889c0.84696,-0.00024 -0.68885,-3.26804 0.12091,-3.2498c0.43542,0.00981 3.72275,-0.23409 3.72275,-0.23409c0,0 0.12302,3.57989 0.35598,3.60005c1.36979,0.11854 4.60434,0.6468 4.60434,0.6468c0,0 1.45976,0.6156 1.67338,1.04283c0.26162,0.52325 0.63055,2.95873 0.63055,2.95873c0,0 -0.3857,0 -1.2126,0z" data-paper-data="{&quot;index&quot;:null}" fill="#252527" stroke="#000000" stroke-width="0" stroke-linecap="butt"/><path d="M254.61933,227.72082l-2.6677,1.09133" fill="none" stroke="#ffffff" stroke-width="0.5" stroke-linecap="round"/><path d="M256.43823,227.72082l-2.54645,1.45511" fill="none" stroke="#ffffff" stroke-width="0.5" stroke-linecap="round"/><path d="M256.07445,229.41848l1.45512,-1.45511" fill="none" stroke="#ffffff" stroke-width="0.5" stroke-linecap="round"/><path d="M250.73904,224.93186l2.18266,-0.24252" fill="none" stroke="#969696" stroke-width="0.5" stroke-linecap="round"/><path d="M253.16423,225.41693l-1.94015,0.36378" fill="none" stroke="#969696" stroke-width="0.5" stroke-linecap="round"/></g><path d="M237.55873,156.94523l0.2572,-7.64545l7.65183,0.25741l-0.37892,7.86969z" fill="url(#color-6)" stroke="#000000" stroke-width="0" stroke-linecap="butt"/><g stroke="#000000" stroke-width="0" stroke-linecap="butt"><path d="M281.1954,194.41009c-0.41047,0.24173 -2.56138,-2.51095 -3.35344,-2.90845c-0.42401,-0.2128 1.8472,4.23828 1.00155,4.47236c-0.502,0.13895 -1.85672,-2.20211 -2.84409,-3.11812c-0.48104,-0.44625 -3.24117,-4.00532 -3.24117,-4.00532c0,0 -1.00674,-2.62846 -3.22295,-5.02902c-0.53294,-0.57727 -2.12226,-2.58429 -2.6763,-3.17168c-1.31123,-1.39018 -2.6674,-2.72005 -3.44772,-3.59292c-1.67838,-1.87738 -9.09882,-11.35106 -9.09882,-11.35106l3.44892,-3.90994c0,0 3.49109,5.00789 7.62311,10.01302c3.1083,3.76513 6.82312,7.46933 8.32952,9.36971c1.78285,2.24911 3.70325,5.41367 3.70325,5.41367c0,0 1.48414,2.12078 2.62088,3.97558c1.02285,1.66895 1.55256,3.60938 1.1573,3.84215z" data-paper-data="{&quot;index&quot;:null}" fill="#979068"/><path d="M250.06677,160.50139c3.8659,-3.9123 6.29554,-1.60666 7.49351,-0.22005c1.19795,1.3866 2.26911,0.03644 -1.28986,3.60596c-3.00814,3.01707 -2.75869,2.38017 -3.95666,0.99357c-1.19795,-1.3866 -4.26028,-2.34198 -2.24699,-4.37947z" data-paper-data="{&quot;index&quot;:null}" fill="#4a3c33"/></g><path d="M230.05418,193.23975c0,0 1.2206,-4.93007 0.88216,-10.32863c-0.10538,-1.6809 -0.02163,-5.69289 -0.46269,-7.56176c-0.52148,-2.20965 -2.43922,-2.86145 -2.47876,-4.21484c-0.07806,-2.67335 -0.84098,-6.82583 -0.03389,-11.37881c0.60841,-3.43215 3.66833,-6.17862 3.66833,-6.17862c0,0 3.99493,-0.15485 5.75923,0.27091c2.24585,0.54198 4.55461,2.6476 4.55461,2.6476c0,0 3.1518,-1.91788 5.07812,-2.26957c2.03253,-0.37109 5.4808,0.20116 5.4808,0.20116c0,0 2.50122,3.60804 2.58263,7.93227c0.07681,4.08129 -0.91697,8.44178 -1.04973,10.10814c-0.13455,1.68898 -1.5659,2.07983 -2.2748,4.20071c-0.56553,1.692 -0.72125,5.1691 -0.9188,7.16265c-0.45883,4.63016 -0.19768,10.27288 -0.19768,10.27288c0,0 -2.72955,-0.86158 -5.54056,-1.0244c-1.27657,-0.07394 -1.82407,0.94532 -3.036,1.06385c-0.96868,0.09472 -2.61413,-0.70121 -3.5372,-0.76903c-0.69782,-0.05127 -2.02478,-0.59901 -2.5186,-0.61974c-0.9971,-0.04184 -1.64389,0.81047 -2.80634,0.93081c-1.35031,0.13979 -3.1509,-0.44557 -3.1509,-0.44557z" fill="#4f4037" stroke="#292e32" stroke-width="0" stroke-linecap="butt"/><g stroke="#000000" stroke-width="0" stroke-linecap="butt"><path d="M249.82258,193.00022c-1.57802,-1.73973 -3.32016,-3.92403 -3.32016,-3.92403c0,0 -2.69877,-2.94801 -4.47588,-5.4856c-1.50153,-2.14416 -4.16573,-7.14744 -7.0989,-11.52645c-3.89923,-5.82122 -8.01753,-10.9649 -8.01753,-10.9649l5.29816,-2.51902c0,0 7.5155,10.59439 8.93473,12.91384c0.65984,1.07841 1.60876,2.89845 2.63659,4.68842c0.43428,0.75629 2.02064,3.01903 2.45133,3.75008c1.79105,3.04007 4.2311,4.86603 4.2311,4.86603c0,0 2.83274,3.9509 3.14239,4.58912c0.63561,1.31 2.65437,3.4211 2.33808,3.9122c-0.53278,0.82728 -4.97462,-3.64448 -4.8926,-3.13417c0.15317,0.95328 2.21521,4.84531 1.82113,5.20982c-0.37949,0.35102 -1.62851,-0.80997 -3.0484,-2.37538z" data-paper-data="{&quot;index&quot;:null}" fill="#a0986e"/><path d="M232.14627,156.45771c1.06223,1.66904 1.81988,1.58931 -2.38533,3.90012c-4.97531,2.73398 -3.18619,1.99093 -4.24844,0.3219c-1.06223,-1.66904 -2.68095,-4.90749 2.76035,-7.86718c2.83374,-1.54135 2.81116,1.97611 3.8734,3.64514z" fill="#615046"/></g><g stroke="none" stroke-width="0" stroke-linecap="butt"><path d="M248.81793,196.07751l-1.3655,-4.84342l10.65548,-3.00406l1.36547,4.84344z" fill="url(#color-7)"/><path d="M249.96757,192.12478c0.96626,1.68852 0.38078,3.84065 -1.30777,4.80694c-1.68853,0.96628 -3.84067,0.38078 -4.80694,-1.30776c-0.96627,-1.68853 -0.38078,-3.84067 1.30777,-4.80694c1.68853,-0.96628 3.84067,-0.38078 4.80694,1.30776z" fill="url(#color-8)"/><path d="M261.23851,194.7117l-2.52066,-8.95393l43.93848,-10.39644l8.16929,0.15678l-6.70281,4.49921z" fill="url(#color-9)"/><path d="M261.18889,193.42977l-1.81677,-6.17692l36.72156,-8.57907l10.11074,-1.60193l-9.16843,3.84951z" fill="url(#color-10)"/><path d="M258.91054,177.89114c0,0 0.15785,8.00478 1.10989,11.83655c1.04526,4.20714 4.90807,12.3854 4.90807,12.3854c0,0 -6.28033,-7.79529 -7.2941,-11.87569c-0.99174,-3.99164 1.27615,-12.34629 1.27615,-12.34629z" fill="url(#color-11)"/></g><g stroke="#000000" stroke-width="0" stroke-linecap="butt"><path d="M248.28541,197.19483c-1.57366,-1.74368 -3.31027,-3.93236 -3.31027,-3.93236c0,0 -2.69136,-2.95477 -4.46206,-5.49683c-1.49614,-2.14791 -4.14774,-7.15792 -7.06991,-11.54426c-3.88459,-5.83099 -7.98992,-10.98503 -7.98992,-10.98503l5.30448,-2.50568c0,0 7.48886,10.61326 8.90223,12.93628c0.65714,1.08005 1.60146,2.90247 2.62476,4.69503c0.43238,0.75736 2.01304,3.02409 2.4419,3.75624c1.7834,3.04456 4.21886,4.87662 4.21886,4.87662c0,0 5.0213,8.5206 4.76316,8.9616c-0.75195,1.28451 -4.15771,-4.07117 -4.16468,-3.48298c-0.01315,1.11123 2.17889,4.74088 1.7839,5.1044c-0.38039,0.35004 -1.62649,-0.81408 -3.04245,-2.38303z" data-paper-data="{&quot;index&quot;:null}" fill="#ada477"/><path d="M230.61871,160.50887c1.05804,1.67171 1.8159,1.59389 -2.39514,3.89413c-4.98215,2.72145 -3.19119,1.98292 -4.24924,0.31121c-1.05804,-1.67171 -2.66859,-4.91423 2.78012,-7.86022c2.83762,-1.53421 2.8062,1.98316 3.86424,3.65487z" fill="#615046"/></g><g><path d="M254.17558,118.21452c0,0 -0.37232,3.23376 -0.74202,4.55046c-0.3028,1.07837 -1.31586,2.77843 -1.31586,2.77843" data-paper-data="{&quot;index&quot;:null}" fill="none" stroke="#3b2c16" stroke-width="1.25" stroke-linecap="round"/><path d="M255.43989,122.39766c0,0 -0.26559,2.27085 -0.69718,3.21377c-0.45648,0.99727 -1.97123,2.61595 -1.97123,2.61595" data-paper-data="{&quot;index&quot;:null}" fill="none" stroke="#3b2c16" stroke-width="1.25" stroke-linecap="round"/><path d="M251.98295,116.37575c0,0 0.00653,3.27311 -0.18816,4.68937c-0.15947,1.15993 -0.89561,3.19378 -0.89561,3.19378" data-paper-data="{&quot;index&quot;:null}" fill="none" stroke="#3b2c16" stroke-width="1.25" stroke-linecap="round"/><path d="M254.9482,134.71065c-0.24852,7.38736 -8.76309,17.02953 -11.97659,16.98333c-6.69199,-0.09626 -13.88866,-10.45774 -13.64012,-17.84511c0.24852,-7.38736 6.18448,-13.18309 13.25833,-12.94508c7.07386,0.23797 12.60687,6.41953 12.35836,13.80689z" fill="url(#color-12)" stroke="none" stroke-width="0" stroke-linecap="butt"/><path d="M244.01455,135.42663c-0.06936,2.06175 -0.97673,3.70451 -2.02667,3.66917c-1.04993,-0.03531 -1.84484,-1.73535 -1.77548,-3.79709c0.06936,-2.06175 0.97672,-3.7045 2.02666,-3.66916c1.04993,0.03531 1.84485,1.73534 1.77549,3.79708z" fill="none" stroke="#191412" stroke-width="1.5" stroke-linecap="butt"/><path d="M248.93291,130.02725c-0.06936,2.06175 -0.97673,3.70451 -2.02666,3.66917c-1.04993,-0.03531 -1.84485,-1.73535 -1.77549,-3.79709c0.06936,-2.06175 0.97673,-3.70451 2.02667,-3.66917c1.04993,0.03531 1.84484,1.73534 1.77548,3.79709z" fill="none" stroke="#191412" stroke-width="1.5" stroke-linecap="butt"/><path d="M253.44107,135.69725c-0.06936,2.06175 -0.97672,3.70451 -2.02666,3.66917c-1.04993,-0.03531 -1.84485,-1.73535 -1.77549,-3.79709c0.06936,-2.06175 0.97672,-3.7045 2.02667,-3.66916c1.04993,0.03531 1.84484,1.73534 1.77548,3.79708z" fill="none" stroke="#191412" stroke-width="1.5" stroke-linecap="butt"/><path d="M248.51785,140.6633c-0.06936,2.06175 -0.97673,3.70451 -2.02666,3.66917c-1.04993,-0.03531 -1.84485,-1.73535 -1.77549,-3.79709c0.06936,-2.06175 0.97672,-3.7045 2.02667,-3.66916c1.04993,0.03531 1.84484,1.73534 1.77548,3.79708z" fill="none" stroke="#191412" stroke-width="1.5" stroke-linecap="butt"/><path d="M234.97393,125.28827c0,0 -1.49727,-1.78358 -1.89494,-2.88527c-0.48557,-1.34515 -0.80779,-4.60202 -0.80779,-4.60202" fill="none" stroke="#47341a" stroke-width="1.5" stroke-linecap="round"/><path d="M233.6771,127.90737c0,0 -2.31946,-1.74624 -2.97391,-2.78048c-0.61878,-0.97786 -0.85173,-3.26531 -0.85173,-3.26531" fill="none" stroke="#47341a" stroke-width="1.5" stroke-linecap="round"/><path d="M237.06588,124.1139c0,0 -1.01821,-2.09222 -1.17591,-3.2627c-0.19253,-1.42915 0.10419,-4.69216 0.10419,-4.69216" fill="none" stroke="#47341a" stroke-width="1.5" stroke-linecap="round"/></g></g></g></svg>