<svg version="1.1" xmlns="http://www.w3.org/2000/svg" xmlns:xlink="http://www.w3.org/1999/xlink" width="59" height="59.70662" viewBox="0,0,59,59.70662"><defs><linearGradient x1="240" y1="151.64669" x2="240" y2="208.35331" gradientUnits="userSpaceOnUse" id="color-1"><stop offset="0" stop-color="#191919"/><stop offset="1" stop-color="#050505"/></linearGradient><linearGradient x1="240" y1="151.64669" x2="240" y2="208.35331" gradientUnits="userSpaceOnUse" id="color-2"><stop offset="0" stop-color="#cccccc"/><stop offset="1" stop-color="#898989"/></linearGradient><radialGradient cx="240" cy="180" r="26.8571" gradientUnits="userSpaceOnUse" id="color-3"><stop offset="0" stop-color="#ffffff" stop-opacity="0.35484"/><stop offset="1" stop-color="#ffffff" stop-opacity="0"/></radialGradient><linearGradient x1="240" y1="153.29211" x2="240" y2="206.70789" gradientUnits="userSpaceOnUse" id="color-4"><stop offset="0" stop-color="#cccccc"/><stop offset="1" stop-color="#898989"/></linearGradient><linearGradient x1="242.5422" y1="197.17494" x2="243.4415" y2="197.17494" gradientUnits="userSpaceOnUse" id="color-5"><stop offset="0" stop-color="#525252"/><stop offset="1" stop-color="#363636"/></linearGradient><linearGradient x1="242.5422" y1="197.17494" x2="243.4415" y2="197.17494" gradientUnits="userSpaceOnUse" id="color-6"><stop offset="0" stop-color="#1f1f1f"/><stop offset="1" stop-color="#000000"/></linearGradient><linearGradient x1="235.74605" y1="197.56126" x2="236.92106" y2="198.0684" gradientUnits="userSpaceOnUse" id="color-7"><stop offset="0" stop-color="#525252"/><stop offset="1" stop-color="#2e2e2e"/></linearGradient><linearGradient x1="235.74605" y1="197.56126" x2="236.92106" y2="198.0684" gradientUnits="userSpaceOnUse" id="color-8"><stop offset="0" stop-color="#1f1f1f"/><stop offset="1" stop-color="#000000"/></linearGradient><linearGradient x1="234.31733" y1="198.08864" x2="245.41486" y2="198.08864" gradientUnits="userSpaceOnUse" id="color-9"><stop offset="0" stop-color="#767676"/><stop offset="1" stop-color="#2a2a2a"/></linearGradient><linearGradient x1="234.31733" y1="198.08864" x2="245.41486" y2="198.08864" gradientUnits="userSpaceOnUse" id="color-10"><stop offset="0" stop-color="#1f1f1f"/><stop offset="1" stop-color="#000000"/></linearGradient><linearGradient x1="238.11486" y1="195.04198" x2="241.64289" y2="195.04198" gradientUnits="userSpaceOnUse" id="color-11"><stop offset="0" stop-color="#7f7f7f"/><stop offset="1" stop-color="#545454"/></linearGradient><linearGradient x1="236.97344" y1="197.30245" x2="242.64596" y2="197.30245" gradientUnits="userSpaceOnUse" id="color-12"><stop offset="0" stop-color="#7f7f7f"/><stop offset="1" stop-color="#545454"/></linearGradient><linearGradient x1="236.01593" y1="199.79784" x2="243.63131" y2="199.79784" gradientUnits="userSpaceOnUse" id="color-13"><stop offset="0" stop-color="#7f7f7f"/><stop offset="1" stop-color="#545454"/></linearGradient><linearGradient x1="235.0019" y1="202.2832" x2="244.68669" y2="202.2832" gradientUnits="userSpaceOnUse" id="color-14"><stop offset="0" stop-color="#7f7f7f"/><stop offset="1" stop-color="#545454"/></linearGradient><linearGradient x1="241.67711" y1="194.22644" x2="244.47932" y2="194.22644" gradientUnits="userSpaceOnUse" id="color-15"><stop offset="0" stop-color="#8f8f8f"/><stop offset="1" stop-color="#4e4e4e"/></linearGradient><linearGradient x1="241.67711" y1="194.22644" x2="244.47932" y2="194.22644" gradientUnits="userSpaceOnUse" id="color-16"><stop offset="0" stop-color="#1f1f1f"/><stop offset="1" stop-color="#000000"/></linearGradient><linearGradient x1="245.46888" y1="190.41887" x2="250.96953" y2="190.41887" gradientUnits="userSpaceOnUse" id="color-17"><stop offset="0" stop-color="#2c2f36"/><stop offset="1" stop-color="#191d1f"/></linearGradient><linearGradient x1="245.46888" y1="190.60784" x2="249.23125" y2="190.60784" gradientUnits="userSpaceOnUse" id="color-18"><stop offset="0" stop-color="#272727"/><stop offset="1" stop-color="#000000"/></linearGradient><linearGradient x1="234.53112" y1="190.36122" x2="229.03047" y2="190.36122" gradientUnits="userSpaceOnUse" id="color-19"><stop offset="0" stop-color="#575e6b"/><stop offset="1" stop-color="#696d82"/></linearGradient><linearGradient x1="230.76875" y1="190.55019" x2="234.53112" y2="190.55019" gradientUnits="userSpaceOnUse" id="color-20"><stop offset="0" stop-color="#272727"/><stop offset="1" stop-color="#000000"/></linearGradient><linearGradient x1="234.51584" y1="185.96721" x2="245.48204" y2="185.96721" gradientUnits="userSpaceOnUse" id="color-21"><stop offset="0" stop-color="#535863"/><stop offset="1" stop-color="#1a1b21"/></linearGradient><linearGradient x1="234.51584" y1="185.96721" x2="245.48204" y2="185.96721" gradientUnits="userSpaceOnUse" id="color-22"><stop offset="0" stop-color="#272727"/><stop offset="1" stop-color="#000000"/></linearGradient><linearGradient x1="240.39094" y1="186.43008" x2="244.69228" y2="186.43008" gradientUnits="userSpaceOnUse" id="color-23"><stop offset="0" stop-color="#4a382c"/><stop offset="1" stop-color="#301f1b"/></linearGradient><linearGradient x1="240.39094" y1="186.43008" x2="244.69228" y2="186.43008" gradientUnits="userSpaceOnUse" id="color-24"><stop offset="0" stop-color="#351c12"/><stop offset="1" stop-color="#1a1310"/></linearGradient><linearGradient x1="240.37937" y1="186.4317" x2="244.67076" y2="186.4317" gradientUnits="userSpaceOnUse" id="color-25"><stop offset="0" stop-color="#351c12"/><stop offset="1" stop-color="#1a1310"/></linearGradient><linearGradient x1="240.37937" y1="186.39902" x2="244.67076" y2="186.39902" gradientUnits="userSpaceOnUse" id="color-26"><stop offset="0" stop-color="#351c12"/><stop offset="1" stop-color="#1a1310"/></linearGradient><linearGradient x1="235.25" y1="186.45186" x2="239.55133" y2="186.45186" gradientUnits="userSpaceOnUse" id="color-27"><stop offset="0" stop-color="#4a382c"/><stop offset="1" stop-color="#301f1b"/></linearGradient><linearGradient x1="235.25" y1="186.45186" x2="239.55133" y2="186.45186" gradientUnits="userSpaceOnUse" id="color-28"><stop offset="0" stop-color="#351c12"/><stop offset="1" stop-color="#1a1310"/></linearGradient><linearGradient x1="235.23843" y1="186.45348" x2="239.52981" y2="186.45348" gradientUnits="userSpaceOnUse" id="color-29"><stop offset="0" stop-color="#351c12"/><stop offset="1" stop-color="#1a1310"/></linearGradient><linearGradient x1="235.23843" y1="186.42081" x2="239.52981" y2="186.42081" gradientUnits="userSpaceOnUse" id="color-30"><stop offset="0" stop-color="#351c12"/><stop offset="1" stop-color="#1a1310"/></linearGradient><linearGradient x1="240.39094" y1="191.61836" x2="244.69228" y2="191.61836" gradientUnits="userSpaceOnUse" id="color-31"><stop offset="0" stop-color="#4a382c"/><stop offset="1" stop-color="#301f1b"/></linearGradient><linearGradient x1="240.39094" y1="191.61836" x2="244.69228" y2="191.61836" gradientUnits="userSpaceOnUse" id="color-32"><stop offset="0" stop-color="#351c12"/><stop offset="1" stop-color="#1a1310"/></linearGradient><linearGradient x1="240.37937" y1="191.61998" x2="244.67076" y2="191.61998" gradientUnits="userSpaceOnUse" id="color-33"><stop offset="0" stop-color="#351c12"/><stop offset="1" stop-color="#1a1310"/></linearGradient><linearGradient x1="240.37937" y1="191.5873" x2="244.67076" y2="191.5873" gradientUnits="userSpaceOnUse" id="color-34"><stop offset="0" stop-color="#351c12"/><stop offset="1" stop-color="#1a1310"/></linearGradient><linearGradient x1="235.25" y1="191.64014" x2="239.55133" y2="191.64014" gradientUnits="userSpaceOnUse" id="color-35"><stop offset="0" stop-color="#4a382c"/><stop offset="1" stop-color="#301f1b"/></linearGradient><linearGradient x1="235.25" y1="191.64014" x2="239.55133" y2="191.64014" gradientUnits="userSpaceOnUse" id="color-36"><stop offset="0" stop-color="#351c12"/><stop offset="1" stop-color="#1a1310"/></linearGradient><linearGradient x1="235.23843" y1="191.64176" x2="239.52981" y2="191.64176" gradientUnits="userSpaceOnUse" id="color-37"><stop offset="0" stop-color="#351c12"/><stop offset="1" stop-color="#1a1310"/></linearGradient><linearGradient x1="235.23843" y1="191.60909" x2="239.52981" y2="191.60909" gradientUnits="userSpaceOnUse" id="color-38"><stop offset="0" stop-color="#351c12"/><stop offset="1" stop-color="#1a1310"/></linearGradient><linearGradient x1="235.07107" y1="180.52633" x2="244.85963" y2="180.52633" gradientUnits="userSpaceOnUse" id="color-39"><stop offset="0" stop-color="#515151"/><stop offset="1" stop-color="#131313"/></linearGradient><linearGradient x1="235.07107" y1="180.52633" x2="244.85963" y2="180.52633" gradientUnits="userSpaceOnUse" id="color-40"><stop offset="0" stop-color="#272727"/><stop offset="1" stop-color="#000000"/></linearGradient><linearGradient x1="235.58089" y1="178.3964" x2="244.28183" y2="178.3964" gradientUnits="userSpaceOnUse" id="color-41"><stop offset="0" stop-color="#272727"/><stop offset="1" stop-color="#000000"/></linearGradient><linearGradient x1="235.61488" y1="182.68781" x2="244.17987" y2="182.68781" gradientUnits="userSpaceOnUse" id="color-42"><stop offset="0" stop-color="#272727"/><stop offset="1" stop-color="#000000"/></linearGradient><linearGradient x1="234.48119" y1="161.91831" x2="245.57872" y2="161.91831" gradientUnits="userSpaceOnUse" id="color-43"><stop offset="0" stop-color="#89959f"/><stop offset="1" stop-color="#2a3542"/></linearGradient><linearGradient x1="234.48119" y1="161.91483" x2="245.57872" y2="161.91483" gradientUnits="userSpaceOnUse" id="color-44"><stop offset="0" stop-color="#272727"/><stop offset="1" stop-color="#000000"/></linearGradient><linearGradient x1="237.24828" y1="157.09056" x2="242.72517" y2="157.09056" gradientUnits="userSpaceOnUse" id="color-45"><stop offset="0" stop-color="#f1f5f8"/><stop offset="1" stop-color="#6d7680"/></linearGradient><linearGradient x1="237.24828" y1="157.09012" x2="242.72517" y2="157.09012" gradientUnits="userSpaceOnUse" id="color-46"><stop offset="0" stop-color="#272727"/><stop offset="1" stop-color="#000000"/></linearGradient><linearGradient x1="235.99969" y1="159.91044" x2="244.15977" y2="159.91044" gradientUnits="userSpaceOnUse" id="color-47"><stop offset="0" stop-color="#3b4145"/><stop offset="1" stop-color="#171e25"/></linearGradient><linearGradient x1="234.48225" y1="172.1732" x2="245.44845" y2="172.1732" gradientUnits="userSpaceOnUse" id="color-48"><stop offset="0" stop-color="#301630"/><stop offset="1" stop-color="#140e17"/></linearGradient><linearGradient x1="234.48225" y1="172.1732" x2="245.44845" y2="172.1732" gradientUnits="userSpaceOnUse" id="color-49"><stop offset="0" stop-color="#272727"/><stop offset="1" stop-color="#000000"/></linearGradient><linearGradient x1="234.63656" y1="172.16381" x2="235.37156" y2="172.16381" gradientUnits="userSpaceOnUse" id="color-50"><stop offset="0" stop-color="#9d9d9d"/><stop offset="1" stop-color="#4c4c4c"/></linearGradient><linearGradient x1="234.63656" y1="172.16381" x2="235.37156" y2="172.16381" gradientUnits="userSpaceOnUse" id="color-51"><stop offset="0" stop-color="#272727"/><stop offset="1" stop-color="#000000"/></linearGradient><linearGradient x1="244.58076" y1="172.16381" x2="245.31577" y2="172.16381" gradientUnits="userSpaceOnUse" id="color-52"><stop offset="0" stop-color="#9d9d9d"/><stop offset="1" stop-color="#4c4c4c"/></linearGradient><linearGradient x1="244.58076" y1="172.16381" x2="245.31577" y2="172.16381" gradientUnits="userSpaceOnUse" id="color-53"><stop offset="0" stop-color="#272727"/><stop offset="1" stop-color="#000000"/></linearGradient><radialGradient cx="239.96535" cy="172.1732" r="4.54931" gradientUnits="userSpaceOnUse" id="color-54"><stop offset="0" stop-color="#654573" stop-opacity="0.40995"/><stop offset="1" stop-color="#654573" stop-opacity="0"/></radialGradient><radialGradient cx="239.96535" cy="172.15702" r="3.69338" gradientUnits="userSpaceOnUse" id="color-55"><stop offset="0" stop-color="#eb73e5" stop-opacity="0.60996"/><stop offset="1" stop-color="#eb73e5" stop-opacity="0"/></radialGradient><radialGradient cx="239.96535" cy="172.15702" r="3.12675" gradientUnits="userSpaceOnUse" id="color-56"><stop offset="0" stop-color="#ff26ff" stop-opacity="0.44355"/><stop offset="1" stop-color="#eda3ff" stop-opacity="0.14516"/></radialGradient><radialGradient cx="239.96535" cy="172.15702" r="2.57114" gradientUnits="userSpaceOnUse" id="color-57"><stop offset="0" stop-color="#f7e3ff" stop-opacity="0.25546"/><stop offset="1" stop-color="#9f07ff"/></radialGradient><linearGradient x1="234.61648" y1="173.93583" x2="245.31422" y2="173.93583" gradientUnits="userSpaceOnUse" id="color-58"><stop offset="0" stop-color="#9a66a2"/><stop offset="1" stop-color="#4d0069"/></linearGradient><linearGradient x1="234.61648" y1="173.95263" x2="245.31422" y2="173.95263" gradientUnits="userSpaceOnUse" id="color-59"><stop offset="0" stop-color="#9a66a2"/><stop offset="1" stop-color="#4d0069"/></linearGradient><linearGradient x1="234.64119" y1="170.23277" x2="245.33893" y2="170.23277" gradientUnits="userSpaceOnUse" id="color-60"><stop offset="0" stop-color="#9a66a2"/><stop offset="1" stop-color="#4d0069"/></linearGradient><linearGradient x1="234.64119" y1="170.24957" x2="245.33893" y2="170.24957" gradientUnits="userSpaceOnUse" id="color-61"><stop offset="0" stop-color="#9a66a2"/><stop offset="1" stop-color="#4d0069"/></linearGradient><linearGradient x1="234.5107" y1="176.30606" x2="245.31961" y2="176.30606" gradientUnits="userSpaceOnUse" id="color-62"><stop offset="0" stop-color="#b695c7"/><stop offset="1" stop-color="#312833"/></linearGradient><linearGradient x1="234.5107" y1="176.30606" x2="245.31961" y2="176.30606" gradientUnits="userSpaceOnUse" id="color-63"><stop offset="0" stop-color="#272727"/><stop offset="1" stop-color="#000000"/></linearGradient><linearGradient x1="234.56011" y1="168.06272" x2="245.36903" y2="168.06272" gradientUnits="userSpaceOnUse" id="color-64"><stop offset="0" stop-color="#b695c7"/><stop offset="1" stop-color="#312833"/></linearGradient><linearGradient x1="234.56011" y1="168.06272" x2="245.36903" y2="168.06272" gradientUnits="userSpaceOnUse" id="color-65"><stop offset="0" stop-color="#272727"/><stop offset="1" stop-color="#000000"/></linearGradient></defs><g transform="translate(-210.5,-150.14669)"><g data-paper-data="{&quot;isPaintingLayer&quot;:true}" fill-rule="nonzero" stroke-linejoin="miter" stroke-miterlimit="10" stroke-dasharray="" stroke-dashoffset="0" style="mix-blend-mode: normal"><path d="M212,208.35331v-56.70662h56v56.70662z" fill="url(#color-1)" stroke="url(#color-2)" stroke-width="3" stroke-linecap="butt"/><path d="M266.8571,180c0,14.75036 -12.02433,26.70789 -26.8571,26.70789c-14.83277,0 -26.8571,-11.95753 -26.8571,-26.70789c0,-14.75036 12.02433,-26.70789 26.8571,-26.70789c14.83277,0 26.8571,11.95753 26.8571,26.70789z" fill="url(#color-3)" stroke="url(#color-4)" stroke-width="0" stroke-linecap="butt"/><g stroke-width="0.25"><path d="M242.5422,198.66225v-2.97461h0.8993v2.97461z" fill="url(#color-5)" stroke="url(#color-6)" stroke-linecap="butt"/><path d="M233.61471,202.49946l4.26267,-9.8764l1.17501,0.50714l-4.26267,9.87641z" fill="url(#color-7)" stroke="url(#color-8)" stroke-linecap="butt"/><path d="M234.31733,203.63763c0,0 4.14376,-11.17891 5.54952,-11.09753c1.60817,0.09309 5.54801,11.09753 5.54801,11.09753z" fill="url(#color-9)" stroke="url(#color-10)" stroke-linecap="butt"/><path d="M241.64289,195.04198h-3.52803" fill="none" stroke="url(#color-11)" stroke-linecap="round"/><path d="M242.64596,197.30245h-5.67252" fill="none" stroke="url(#color-12)" stroke-linecap="round"/><path d="M243.63132,199.79784h-7.61538" fill="none" stroke="url(#color-13)" stroke-linecap="round"/><path d="M235.0019,202.2832h9.68479" fill="none" stroke="url(#color-14)" stroke-linecap="round"/><path d="M244.47932,194.22644c-0.01049,1.31757 -0.04368,1.45854 -1.4011,1.44458c-1.35785,-0.01397 -1.41794,-0.19251 -1.4011,-1.44458c0.0186,-1.38237 0.01465,-1.47846 1.4011,-1.44458c1.32841,0.03246 1.41261,-0.00225 1.4011,1.44458z" fill="url(#color-15)" stroke="url(#color-16)" stroke-linecap="butt"/></g><path d="M245.46888,194.93138v-11.21563c0,0 1.41141,7.52881 1.90487,9.34659c0.39042,1.43818 1.8575,4.43759 1.8575,4.43759z" fill="url(#color-17)" stroke="url(#color-18)" stroke-width="0.25" stroke-linecap="butt"/><path d="M230.76875,197.44228c0,0 1.46708,-2.9994 1.8575,-4.43758c0.49346,-1.81778 1.90487,-9.34659 1.90487,-9.34659v11.21563z" data-paper-data="{&quot;index&quot;:null}" fill="url(#color-19)" stroke="url(#color-20)" stroke-width="0.25" stroke-linecap="butt"/><path d="M234.51584,194.96343v-17.99245h10.9662v17.99245z" fill="url(#color-21)" stroke="url(#color-22)" stroke-width="0.25" stroke-linecap="butt"/><g stroke-width="0.25"><path d="M240.39094,188.66924v-4.47832h4.30133v4.47832z" fill="url(#color-23)" stroke="url(#color-24)" stroke-linecap="butt"/><path d="M244.67076,184.25333l-4.29138,4.35673" fill="none" stroke="url(#color-25)" stroke-linecap="round"/><path d="M244.67076,188.63184l-4.24782,-4.42208" fill="none" stroke="url(#color-26)" stroke-linecap="round"/></g><g stroke-width="0.25"><path d="M235.25,188.69102v-4.47832h4.30133v4.47832z" fill="url(#color-27)" stroke="url(#color-28)" stroke-linecap="butt"/><path d="M235.23843,188.63185l4.29138,-4.35674" fill="none" stroke="url(#color-29)" stroke-linecap="round"/><path d="M235.28199,184.23155l4.24782,4.42208" fill="none" stroke="url(#color-30)" stroke-linecap="round"/></g><g stroke-width="0.25"><path d="M240.39094,193.85752v-4.47832h4.30133v4.47832z" fill="url(#color-31)" stroke="url(#color-32)" stroke-linecap="butt"/><path d="M240.37937,193.79835l4.29138,-4.35673" fill="none" stroke="url(#color-33)" stroke-linecap="round"/><path d="M240.42294,189.39804l4.24782,4.42208" fill="none" stroke="url(#color-34)" stroke-linecap="round"/></g><g stroke-width="0.25"><path d="M235.25,193.8793v-4.47832h4.30133v4.47832z" fill="url(#color-35)" stroke="url(#color-36)" stroke-linecap="butt"/><path d="M239.52981,189.46339l-4.29138,4.35674" fill="none" stroke="url(#color-37)" stroke-linecap="round"/><path d="M239.52981,193.84191l-4.24782,-4.42208" fill="none" stroke="url(#color-38)" stroke-linecap="round"/></g><g stroke-width="0.25"><path d="M235.07107,183.22424v-5.39581h9.78855v5.39581z" fill="url(#color-39)" stroke="url(#color-40)" stroke-linecap="butt"/><path d="M244.28183,178.3964h-8.70094" fill="none" stroke="url(#color-41)" stroke-linecap="round"/><path d="M235.61488,182.68781h8.56499" fill="none" stroke="url(#color-42)" stroke-linecap="round"/></g><path d="M234.48119,167.4673c0,0 0.71373,-11.35185 5.49188,-11.09753c4.80761,-0.33927 5.60565,11.09753 5.60565,11.09753z" fill="url(#color-43)" stroke="url(#color-44)" stroke-width="0.25" stroke-linecap="butt"/><path d="M237.24828,157.79263c0,0 0.35224,-1.43626 2.71037,-1.40408c2.37267,-0.04292 2.76652,1.40408 2.76652,1.40408z" fill="url(#color-45)" stroke="url(#color-46)" stroke-width="0.25" stroke-linecap="butt"/><path d="M235.72073,161.31161c0,0 0.13538,-0.43904 0.33426,-0.96151c0.23339,-0.61313 0.61999,-1.34116 1.95586,-1.60939c0.05183,-0.01041 1.02554,-0.16287 1.02554,-0.16287l2.11835,0.00653c0,0 0.73228,0.05227 0.77529,0.06247c1.26424,0.29969 1.73899,1.05223 2.00475,1.68143c0.2266,0.5365 0.36447,0.98335 0.36447,0.98335z" data-paper-data="{&quot;index&quot;:null}" fill="url(#color-47)" stroke="#000000" stroke-width="0.25" stroke-linecap="butt"/><path d="M237.98109,160.01133c0,-0.53919 0.4371,-0.97629 0.97629,-0.97629c0.53919,0 0.97629,0.4371 0.97629,0.97629c0,0.53919 -0.4371,0.97629 -0.97629,0.97629c-0.53919,0 -0.97629,-0.4371 -0.97629,-0.97629z" fill="#ff0000" stroke="none" stroke-width="0.25" stroke-linecap="butt"/><path d="M240.23771,160.03272c0,-0.53919 0.4371,-0.97629 0.97629,-0.97629c0.53919,0 0.97629,0.4371 0.97629,0.97629c0,0.53919 -0.4371,0.97629 -0.97629,0.97629c-0.53919,0 -0.97629,-0.4371 -0.97629,-0.97629z" fill="#4bff00" stroke="none" stroke-width="0.25" stroke-linecap="butt"/><g stroke-width="0.25"><path d="M234.48225,176.8545v-9.36261h10.9662v9.36261z" fill="url(#color-48)" stroke="url(#color-49)" stroke-linecap="butt"/><path d="M234.63656,175.82662v-7.32562h0.73501v7.32562z" fill="url(#color-50)" stroke="url(#color-51)" stroke-linecap="butt"/><path d="M244.58076,175.82662v-7.32562h0.73501v7.32562z" fill="url(#color-52)" stroke="url(#color-53)" stroke-linecap="butt"/><path d="M235.41604,172.1732c0,-2.51251 2.0368,-4.54932 4.54932,-4.54932c2.51251,0 4.54932,2.0368 4.54932,4.54932c0,2.51251 -2.0368,4.54932 -4.54932,4.54932c-2.51251,0 -4.54932,-2.0368 -4.54932,-4.54932z" fill="url(#color-54)" stroke="none" stroke-linecap="butt"/><path d="M236.27197,172.15702c0,-2.03979 1.65358,-3.69338 3.69338,-3.69338c2.03979,0 3.69338,1.65358 3.69338,3.69338c0,2.03979 -1.65358,3.69338 -3.69338,3.69338c-2.03979,0 -3.69338,-1.65358 -3.69338,-3.69338z" fill="url(#color-55)" stroke="none" stroke-linecap="butt"/><path d="M236.8386,172.15702c0,-1.72685 1.39989,-3.12675 3.12675,-3.12675c1.72685,0 3.12675,1.39989 3.12675,3.12675c0,1.72685 -1.39989,3.12675 -3.12675,3.12675c-1.72685,0 -3.12675,-1.39989 -3.12675,-3.12675z" fill="url(#color-56)" stroke="none" stroke-linecap="butt"/><path d="M237.39421,172.15702c0,-1.42 1.15114,-2.57114 2.57114,-2.57114c1.42,0 2.57114,1.15114 2.57114,2.57114c0,1.42 -1.15114,2.57114 -2.57114,2.57114c-1.42,0 -2.57114,-1.15114 -2.57114,-2.57114z" fill="url(#color-57)" stroke="none" stroke-linecap="butt"/><path d="M234.61648,175.85946l0.59295,-3.84726l0.56824,3.84726l0.76589,-3.81366l0.76589,3.79686l1.33413,-3.79686l1.28472,3.81366l1.13648,-3.79686l1.28472,3.78006l0.86471,-3.78006l0.93883,3.81366l0.59295,-3.79686l0.56824,3.76326" fill="none" stroke="url(#color-58)" stroke-linecap="round"/><path d="M245.31422,172.04579l-0.56824,3.76326l-0.59295,-3.79686l-0.93883,3.81366l-0.86471,-3.78006l-1.28472,3.78006l-1.13648,-3.79686l-1.28472,3.81366l-1.33413,-3.79686l-0.76589,3.79686l-0.76589,-3.81366l-0.56824,3.84726l-0.59295,-3.84726" data-paper-data="{&quot;index&quot;:null}" fill="none" stroke="url(#color-59)" stroke-linecap="round"/><path d="M234.64119,172.1564l0.59295,-3.84726l0.56824,3.84726l0.76589,-3.81366l0.76589,3.79686l1.33413,-3.79686l1.28472,3.81366l1.13648,-3.79686l1.28472,3.78006l0.86471,-3.78006l0.93883,3.81366l0.59295,-3.79686l0.56824,3.76326" fill="none" stroke="url(#color-60)" stroke-linecap="round"/><path d="M245.33893,168.34274l-0.56824,3.76326l-0.59295,-3.79686l-0.93883,3.81366l-0.86471,-3.78006l-1.28472,3.78006l-1.13648,-3.79686l-1.28472,3.81366l-1.33413,-3.79686l-0.76589,3.79686l-0.76589,-3.81366l-0.56824,3.84726l-0.59295,-3.84726" data-paper-data="{&quot;index&quot;:null}" fill="none" stroke="url(#color-61)" stroke-linecap="round"/><path d="M234.5107,176.7193v-0.82648h10.80892v0.82648z" fill="url(#color-62)" stroke="url(#color-63)" stroke-linecap="butt"/><path d="M234.56011,168.47596v-0.82648h10.80892v0.82648z" fill="url(#color-64)" stroke="url(#color-65)" stroke-linecap="butt"/></g><path d="M215.27327,167.03273v-12.39235h25.93332v8.69862h-15.56684v3.69373z" fill-opacity="0.53453" fill="#000000" stroke="#a60000" stroke-width="0" stroke-linecap="butt"/><text transform="translate(215.70712,161.61518) scale(0.21839,0.21839)" font-size="40" xml:space="preserve" fill="#ffffff" fill-rule="nonzero" stroke="#000000" stroke-width="0" stroke-linecap="butt" stroke-linejoin="miter" stroke-miterlimit="10" stroke-dasharray="" stroke-dashoffset="0" font-family="Serif" font-weight="normal" text-anchor="start" style="mix-blend-mode: normal"><tspan x="0" dy="0">Rocket</tspan></text><text transform="translate(215.56527,166.16682) scale(0.11601,0.11601)" font-size="40" xml:space="preserve" fill="#ffffff" fill-rule="nonzero" stroke="#000000" stroke-width="0" stroke-linecap="butt" stroke-linejoin="miter" stroke-miterlimit="10" stroke-dasharray="" stroke-dashoffset="0" font-family="Serif" font-weight="normal" text-anchor="start" style="mix-blend-mode: normal"><tspan x="0" dy="0">2-2-3</tspan></text></g></g></svg>