<svg version="1.1" xmlns="http://www.w3.org/2000/svg" xmlns:xlink="http://www.w3.org/1999/xlink" width="59" height="59.70662" viewBox="0,0,59,59.70662"><defs><linearGradient x1="240" y1="151.64669" x2="240" y2="208.35331" gradientUnits="userSpaceOnUse" id="color-1"><stop offset="0" stop-color="#191919"/><stop offset="1" stop-color="#050505"/></linearGradient><linearGradient x1="240" y1="151.64669" x2="240" y2="208.35331" gradientUnits="userSpaceOnUse" id="color-2"><stop offset="0" stop-color="#cccccc"/><stop offset="1" stop-color="#898989"/></linearGradient><radialGradient cx="240" cy="180" r="26.8571" gradientUnits="userSpaceOnUse" id="color-3"><stop offset="0" stop-color="#ffffff" stop-opacity="0.35484"/><stop offset="1" stop-color="#ffffff" stop-opacity="0"/></radialGradient><linearGradient x1="240" y1="153.29211" x2="240" y2="206.70789" gradientUnits="userSpaceOnUse" id="color-4"><stop offset="0" stop-color="#cccccc"/><stop offset="1" stop-color="#898989"/></linearGradient><linearGradient x1="234.58069" y1="187.50704" x2="245.36197" y2="187.50704" gradientUnits="userSpaceOnUse" id="color-5"><stop offset="0" stop-color="#b89a9a"/><stop offset="1" stop-color="#8d7070"/></linearGradient><linearGradient x1="234.58069" y1="187.50704" x2="245.36197" y2="187.50704" gradientUnits="userSpaceOnUse" id="color-6"><stop offset="0" stop-color="#260000"/><stop offset="1" stop-color="#100000"/></linearGradient><linearGradient x1="244.52563" y1="191.30088" x2="249.07756" y2="191.30088" gradientUnits="userSpaceOnUse" id="color-7"><stop offset="0" stop-color="#362424"/><stop offset="1" stop-color="#1f1414"/></linearGradient><linearGradient x1="244.52563" y1="191.45726" x2="247.63909" y2="191.45726" gradientUnits="userSpaceOnUse" id="color-8"><stop offset="0" stop-color="#272727"/><stop offset="1" stop-color="#000000"/></linearGradient><linearGradient x1="235.47437" y1="191.25318" x2="230.92244" y2="191.25318" gradientUnits="userSpaceOnUse" id="color-9"><stop offset="0" stop-color="#6b4a4a"/><stop offset="1" stop-color="#825959"/></linearGradient><linearGradient x1="232.36091" y1="191.40956" x2="235.47437" y2="191.40956" gradientUnits="userSpaceOnUse" id="color-10"><stop offset="0" stop-color="#272727"/><stop offset="1" stop-color="#000000"/></linearGradient><linearGradient x1="235.46172" y1="187.58125" x2="244.53653" y2="187.58125" gradientUnits="userSpaceOnUse" id="color-11"><stop offset="0" stop-color="#634343"/><stop offset="1" stop-color="#211414"/></linearGradient><linearGradient x1="235.46172" y1="187.58125" x2="244.53653" y2="187.58125" gradientUnits="userSpaceOnUse" id="color-12"><stop offset="0" stop-color="#272727"/><stop offset="1" stop-color="#000000"/></linearGradient><linearGradient x1="236.05953" y1="182.42761" x2="243.88312" y2="182.42761" gradientUnits="userSpaceOnUse" id="color-13"><stop offset="0" stop-color="#b89a9a"/><stop offset="1" stop-color="#8d7070"/></linearGradient><linearGradient x1="236.05953" y1="182.42761" x2="243.88312" y2="182.42761" gradientUnits="userSpaceOnUse" id="color-14"><stop offset="0" stop-color="#260000"/><stop offset="1" stop-color="#100000"/></linearGradient><linearGradient x1="236.05953" y1="185.19449" x2="243.88312" y2="185.19449" gradientUnits="userSpaceOnUse" id="color-15"><stop offset="0" stop-color="#b89a9a"/><stop offset="1" stop-color="#8d7070"/></linearGradient><linearGradient x1="236.05953" y1="185.19449" x2="243.88312" y2="185.19449" gradientUnits="userSpaceOnUse" id="color-16"><stop offset="0" stop-color="#260000"/><stop offset="1" stop-color="#100000"/></linearGradient><linearGradient x1="240.32351" y1="188.00006" x2="243.88297" y2="188.00006" gradientUnits="userSpaceOnUse" id="color-17"><stop offset="0" stop-color="#2c4a2e"/><stop offset="1" stop-color="#1d301b"/></linearGradient><linearGradient x1="240.32351" y1="188.00006" x2="243.88297" y2="188.00006" gradientUnits="userSpaceOnUse" id="color-18"><stop offset="0" stop-color="#123614"/><stop offset="1" stop-color="#0d1a0e"/></linearGradient><linearGradient x1="240.31394" y1="188.0014" x2="243.86517" y2="188.0014" gradientUnits="userSpaceOnUse" id="color-19"><stop offset="0" stop-color="#123614"/><stop offset="1" stop-color="#0d1a0e"/></linearGradient><linearGradient x1="240.31394" y1="187.97436" x2="243.86517" y2="187.97436" gradientUnits="userSpaceOnUse" id="color-20"><stop offset="0" stop-color="#123614"/><stop offset="1" stop-color="#0d1a0e"/></linearGradient><linearGradient x1="236.06925" y1="188.01809" x2="239.62871" y2="188.01809" gradientUnits="userSpaceOnUse" id="color-21"><stop offset="0" stop-color="#2c4a2e"/><stop offset="1" stop-color="#1d301b"/></linearGradient><linearGradient x1="236.06925" y1="188.01809" x2="239.62871" y2="188.01809" gradientUnits="userSpaceOnUse" id="color-22"><stop offset="0" stop-color="#123614"/><stop offset="1" stop-color="#0d1a0e"/></linearGradient><linearGradient x1="236.05968" y1="188.01943" x2="239.61091" y2="188.01943" gradientUnits="userSpaceOnUse" id="color-23"><stop offset="0" stop-color="#123614"/><stop offset="1" stop-color="#0d1a0e"/></linearGradient><linearGradient x1="236.05968" y1="187.99239" x2="239.61091" y2="187.99239" gradientUnits="userSpaceOnUse" id="color-24"><stop offset="0" stop-color="#123614"/><stop offset="1" stop-color="#0d1a0e"/></linearGradient><linearGradient x1="240.32351" y1="192.29349" x2="243.88297" y2="192.29349" gradientUnits="userSpaceOnUse" id="color-25"><stop offset="0" stop-color="#2c4a2e"/><stop offset="1" stop-color="#1d301b"/></linearGradient><linearGradient x1="240.32351" y1="192.29349" x2="243.88297" y2="192.29349" gradientUnits="userSpaceOnUse" id="color-26"><stop offset="0" stop-color="#123614"/><stop offset="1" stop-color="#0d1a0e"/></linearGradient><linearGradient x1="240.31394" y1="192.29483" x2="243.86517" y2="192.29483" gradientUnits="userSpaceOnUse" id="color-27"><stop offset="0" stop-color="#123614"/><stop offset="1" stop-color="#0d1a0e"/></linearGradient><linearGradient x1="240.31394" y1="192.26779" x2="243.86517" y2="192.26779" gradientUnits="userSpaceOnUse" id="color-28"><stop offset="0" stop-color="#123614"/><stop offset="1" stop-color="#0d1a0e"/></linearGradient><linearGradient x1="236.06925" y1="192.31152" x2="239.62871" y2="192.31152" gradientUnits="userSpaceOnUse" id="color-29"><stop offset="0" stop-color="#2c4a2e"/><stop offset="1" stop-color="#1d301b"/></linearGradient><linearGradient x1="236.06925" y1="192.31152" x2="239.62871" y2="192.31152" gradientUnits="userSpaceOnUse" id="color-30"><stop offset="0" stop-color="#123614"/><stop offset="1" stop-color="#0d1a0e"/></linearGradient><linearGradient x1="236.05968" y1="192.31286" x2="239.61091" y2="192.31286" gradientUnits="userSpaceOnUse" id="color-31"><stop offset="0" stop-color="#123614"/><stop offset="1" stop-color="#0d1a0e"/></linearGradient><linearGradient x1="236.05968" y1="192.28582" x2="239.61091" y2="192.28582" gradientUnits="userSpaceOnUse" id="color-32"><stop offset="0" stop-color="#123614"/><stop offset="1" stop-color="#0d1a0e"/></linearGradient><linearGradient x1="241.9964" y1="198.82375" x2="242.74059" y2="198.82375" gradientUnits="userSpaceOnUse" id="color-33"><stop offset="0" stop-color="#525252"/><stop offset="1" stop-color="#363636"/></linearGradient><linearGradient x1="241.9964" y1="198.82375" x2="242.74059" y2="198.82375" gradientUnits="userSpaceOnUse" id="color-34"><stop offset="0" stop-color="#1f1f1f"/><stop offset="1" stop-color="#000000"/></linearGradient><linearGradient x1="237.58078" y1="197.81724" x2="238.21931" y2="197.90501" gradientUnits="userSpaceOnUse" id="color-35"><stop offset="0" stop-color="#525252"/><stop offset="1" stop-color="#2e2e2e"/></linearGradient><linearGradient x1="237.58078" y1="197.81724" x2="238.21931" y2="197.90501" gradientUnits="userSpaceOnUse" id="color-36"><stop offset="0" stop-color="#1f1f1f"/><stop offset="1" stop-color="#000000"/></linearGradient><linearGradient x1="235.369" y1="199.72297" x2="244.55249" y2="199.72297" gradientUnits="userSpaceOnUse" id="color-37"><stop offset="0" stop-color="#b8b8b8"/><stop offset="1" stop-color="#4a4a4a"/></linearGradient><linearGradient x1="235.369" y1="199.72297" x2="244.55249" y2="199.72297" gradientUnits="userSpaceOnUse" id="color-38"><stop offset="0" stop-color="#1f1f1f"/><stop offset="1" stop-color="#000000"/></linearGradient><linearGradient x1="238.51156" y1="197.20179" x2="241.43109" y2="197.20179" gradientUnits="userSpaceOnUse" id="color-39"><stop offset="0" stop-color="#5d5d5d"/><stop offset="1" stop-color="#232323"/></linearGradient><linearGradient x1="237.56701" y1="199.07237" x2="242.26116" y2="199.07237" gradientUnits="userSpaceOnUse" id="color-40"><stop offset="0" stop-color="#5d5d5d"/><stop offset="1" stop-color="#232323"/></linearGradient><linearGradient x1="236.77464" y1="201.13737" x2="243.07656" y2="201.13737" gradientUnits="userSpaceOnUse" id="color-41"><stop offset="0" stop-color="#5d5d5d"/><stop offset="1" stop-color="#232323"/></linearGradient><linearGradient x1="235.9355" y1="203.19407" x2="243.94991" y2="203.19407" gradientUnits="userSpaceOnUse" id="color-42"><stop offset="0" stop-color="#5d5d5d"/><stop offset="1" stop-color="#232323"/></linearGradient><linearGradient x1="241.67344" y1="196.38379" x2="243.08176" y2="196.38379" gradientUnits="userSpaceOnUse" id="color-43"><stop offset="0" stop-color="#aaaaaa"/><stop offset="1" stop-color="#4e4e4e"/></linearGradient><linearGradient x1="241.67344" y1="196.38379" x2="243.08176" y2="196.38379" gradientUnits="userSpaceOnUse" id="color-44"><stop offset="0" stop-color="#1f1f1f"/><stop offset="1" stop-color="#000000"/></linearGradient><linearGradient x1="243.08584" y1="196.38379" x2="244.49416" y2="196.38379" gradientUnits="userSpaceOnUse" id="color-45"><stop offset="0" stop-color="#aaaaaa"/><stop offset="1" stop-color="#4e4e4e"/></linearGradient><linearGradient x1="243.08584" y1="196.38379" x2="244.49416" y2="196.38379" gradientUnits="userSpaceOnUse" id="color-46"><stop offset="0" stop-color="#1f1f1f"/><stop offset="1" stop-color="#000000"/></linearGradient><linearGradient x1="243.42754" y1="198.85953" x2="244.17173" y2="198.85953" gradientUnits="userSpaceOnUse" id="color-47"><stop offset="0" stop-color="#525252"/><stop offset="1" stop-color="#363636"/></linearGradient><linearGradient x1="243.42754" y1="198.85953" x2="244.17173" y2="198.85953" gradientUnits="userSpaceOnUse" id="color-48"><stop offset="0" stop-color="#1f1f1f"/><stop offset="1" stop-color="#000000"/></linearGradient><linearGradient x1="235.44534" y1="195.62991" x2="244.60465" y2="195.62991" gradientUnits="userSpaceOnUse" id="color-49"><stop offset="0" stop-color="#525252"/><stop offset="1" stop-color="#2e2e2e"/></linearGradient><linearGradient x1="235.44534" y1="195.62991" x2="244.60465" y2="195.62991" gradientUnits="userSpaceOnUse" id="color-50"><stop offset="0" stop-color="#1f1f1f"/><stop offset="1" stop-color="#000000"/></linearGradient><linearGradient x1="235.4569" y1="167.72789" x2="244.64038" y2="167.72789" gradientUnits="userSpaceOnUse" id="color-51"><stop offset="0" stop-color="#9c5555"/><stop offset="1" stop-color="#453131"/></linearGradient><linearGradient x1="235.4569" y1="167.72501" x2="244.64039" y2="167.72501" gradientUnits="userSpaceOnUse" id="color-52"><stop offset="0" stop-color="#272727"/><stop offset="1" stop-color="#000000"/></linearGradient><linearGradient x1="238.03296" y1="163.7328" x2="241.7781" y2="163.7328" gradientUnits="userSpaceOnUse" id="color-53"><stop offset="0" stop-color="#f7d6d6"/><stop offset="1" stop-color="#805e5e"/></linearGradient><linearGradient x1="238.03296" y1="163.73244" x2="241.7781" y2="163.73244" gradientUnits="userSpaceOnUse" id="color-54"><stop offset="0" stop-color="#272727"/><stop offset="1" stop-color="#000000"/></linearGradient><linearGradient x1="237.57357" y1="165.57942" x2="242.36505" y2="165.57942" gradientUnits="userSpaceOnUse" id="color-55"><stop offset="0" stop-color="#452a2a"/><stop offset="1" stop-color="#260f0f"/></linearGradient><linearGradient x1="237.12152" y1="167.15368" x2="242.89263" y2="167.15368" gradientUnits="userSpaceOnUse" id="color-56"><stop offset="0" stop-color="#452a2a"/><stop offset="1" stop-color="#260f0f"/></linearGradient><linearGradient x1="236.69828" y1="168.69932" x2="243.32019" y2="168.69932" gradientUnits="userSpaceOnUse" id="color-57"><stop offset="0" stop-color="#452a2a"/><stop offset="1" stop-color="#260f0f"/></linearGradient><linearGradient x1="236.24744" y1="170.18771" x2="243.81011" y2="170.18771" gradientUnits="userSpaceOnUse" id="color-58"><stop offset="0" stop-color="#452a2a"/><stop offset="1" stop-color="#260f0f"/></linearGradient><linearGradient x1="239.20805" y1="161.45738" x2="240.6869" y2="161.45738" gradientUnits="userSpaceOnUse" id="color-59"><stop offset="0" stop-color="#443939"/><stop offset="1" stop-color="#251e1e"/></linearGradient><linearGradient x1="239.20805" y1="161.45738" x2="240.6869" y2="161.45738" gradientUnits="userSpaceOnUse" id="color-60"><stop offset="0" stop-color="#262626"/><stop offset="1" stop-color="#0f0f0f"/></linearGradient><linearGradient x1="239.6851" y1="158.57124" x2="240.25756" y2="158.57124" gradientUnits="userSpaceOnUse" id="color-61"><stop offset="0" stop-color="#ccbebe"/><stop offset="1" stop-color="#656161"/></linearGradient><linearGradient x1="239.6851" y1="158.57124" x2="240.25756" y2="158.57124" gradientUnits="userSpaceOnUse" id="color-62"><stop offset="0" stop-color="#262626"/><stop offset="1" stop-color="#0f0f0f"/></linearGradient><linearGradient x1="235.50548" y1="176.21406" x2="244.58029" y2="176.21406" gradientUnits="userSpaceOnUse" id="color-63"><stop offset="0" stop-color="#301630"/><stop offset="1" stop-color="#140e17"/></linearGradient><linearGradient x1="235.50548" y1="176.21406" x2="244.58029" y2="176.21406" gradientUnits="userSpaceOnUse" id="color-64"><stop offset="0" stop-color="#272727"/><stop offset="1" stop-color="#000000"/></linearGradient><linearGradient x1="235.63317" y1="176.20629" x2="236.24141" y2="176.20629" gradientUnits="userSpaceOnUse" id="color-65"><stop offset="0" stop-color="#9d9d9d"/><stop offset="1" stop-color="#4c4c4c"/></linearGradient><linearGradient x1="235.63317" y1="176.20629" x2="236.24141" y2="176.20629" gradientUnits="userSpaceOnUse" id="color-66"><stop offset="0" stop-color="#272727"/><stop offset="1" stop-color="#000000"/></linearGradient><linearGradient x1="243.86225" y1="176.20629" x2="244.47049" y2="176.20629" gradientUnits="userSpaceOnUse" id="color-67"><stop offset="0" stop-color="#9d9d9d"/><stop offset="1" stop-color="#4c4c4c"/></linearGradient><linearGradient x1="243.86225" y1="176.20629" x2="244.47049" y2="176.20629" gradientUnits="userSpaceOnUse" id="color-68"><stop offset="0" stop-color="#272727"/><stop offset="1" stop-color="#000000"/></linearGradient><radialGradient cx="240.04288" cy="176.21406" r="3.76467" gradientUnits="userSpaceOnUse" id="color-69"><stop offset="0" stop-color="#654573" stop-opacity="0.40995"/><stop offset="1" stop-color="#654573" stop-opacity="0"/></radialGradient><radialGradient cx="240.04288" cy="176.20068" r="3.05637" gradientUnits="userSpaceOnUse" id="color-70"><stop offset="0" stop-color="#eb73e5" stop-opacity="0.60996"/><stop offset="1" stop-color="#eb73e5" stop-opacity="0"/></radialGradient><radialGradient cx="240.04288" cy="176.20068" r="2.58747" gradientUnits="userSpaceOnUse" id="color-71"><stop offset="0" stop-color="#ff26ff" stop-opacity="0.44355"/><stop offset="1" stop-color="#eda3ff" stop-opacity="0.14516"/></radialGradient><radialGradient cx="240.04288" cy="176.20068" r="2.12768" gradientUnits="userSpaceOnUse" id="color-72"><stop offset="0" stop-color="#f7e3ff" stop-opacity="0.25546"/><stop offset="1" stop-color="#9f07ff"/></radialGradient><linearGradient x1="235.61656" y1="177.67268" x2="244.46921" y2="177.67268" gradientUnits="userSpaceOnUse" id="color-73"><stop offset="0" stop-color="#9a66a2"/><stop offset="1" stop-color="#4d0069"/></linearGradient><linearGradient x1="235.61656" y1="177.68658" x2="244.46921" y2="177.68658" gradientUnits="userSpaceOnUse" id="color-74"><stop offset="0" stop-color="#9a66a2"/><stop offset="1" stop-color="#4d0069"/></linearGradient><linearGradient x1="235.63701" y1="174.60831" x2="244.48965" y2="174.60831" gradientUnits="userSpaceOnUse" id="color-75"><stop offset="0" stop-color="#9a66a2"/><stop offset="1" stop-color="#4d0069"/></linearGradient><linearGradient x1="235.63701" y1="174.62221" x2="244.48965" y2="174.62221" gradientUnits="userSpaceOnUse" id="color-76"><stop offset="0" stop-color="#9a66a2"/><stop offset="1" stop-color="#4d0069"/></linearGradient><linearGradient x1="235.52902" y1="179.63411" x2="244.47367" y2="179.63411" gradientUnits="userSpaceOnUse" id="color-77"><stop offset="0" stop-color="#b695c7"/><stop offset="1" stop-color="#312833"/></linearGradient><linearGradient x1="235.52902" y1="179.63411" x2="244.47367" y2="179.63411" gradientUnits="userSpaceOnUse" id="color-78"><stop offset="0" stop-color="#272727"/><stop offset="1" stop-color="#000000"/></linearGradient><linearGradient x1="235.56991" y1="172.81254" x2="244.51456" y2="172.81254" gradientUnits="userSpaceOnUse" id="color-79"><stop offset="0" stop-color="#b695c7"/><stop offset="1" stop-color="#312833"/></linearGradient><linearGradient x1="235.56991" y1="172.81254" x2="244.51456" y2="172.81254" gradientUnits="userSpaceOnUse" id="color-80"><stop offset="0" stop-color="#272727"/><stop offset="1" stop-color="#000000"/></linearGradient></defs><g transform="translate(-210.5,-150.14669)"><g data-paper-data="{&quot;isPaintingLayer&quot;:true}" fill-rule="nonzero" stroke-linejoin="miter" stroke-miterlimit="10" stroke-dasharray="" stroke-dashoffset="0" style="mix-blend-mode: normal"><path d="M212,208.35331v-56.70662h56v56.70662z" fill="url(#color-1)" stroke="url(#color-2)" stroke-width="3" stroke-linecap="butt"/><path d="M266.8571,180c0,14.75036 -12.02433,26.70789 -26.8571,26.70789c-14.83277,0 -26.8571,-11.95753 -26.8571,-26.70789c0,-14.75036 12.02433,-26.70789 26.8571,-26.70789c14.83277,0 26.8571,11.95753 26.8571,26.70789z" fill="url(#color-3)" stroke="url(#color-4)" stroke-width="0" stroke-linecap="butt"/><g stroke-width="0.175" stroke-linecap="butt"><path d="M234.58069,192.04013v-9.06616c0,0 3.52767,-1.21422 5.27911,-1.21422c1.83813,0 5.50217,1.21422 5.50217,1.21422v9.06616z" fill="url(#color-5)" stroke="url(#color-6)"/><path d="M244.52563,195.0351v-9.28121c0,0 1.16797,6.23028 1.57633,7.73454c0.32308,1.19013 1.53713,3.67221 1.53713,3.67221z" fill="url(#color-7)" stroke="url(#color-8)"/><path d="M232.36091,197.11293c0,0 1.21405,-2.48208 1.53713,-3.67221c0.40835,-1.50426 1.57633,-7.73454 1.57633,-7.73454v9.28121z" data-paper-data="{&quot;index&quot;:null}" fill="url(#color-9)" stroke="url(#color-10)"/><path d="M235.46172,195.02585v-14.8892h9.0748v14.8892z" fill="url(#color-11)" stroke="url(#color-12)"/><path d="M236.05953,184.24039v-3.62556h7.82359v3.62556z" fill="url(#color-13)" stroke="url(#color-14)"/><path d="M236.05953,185.71924v-1.0495h7.82359v1.0495z" fill="url(#color-15)" stroke="url(#color-16)"/></g><g stroke-width="0.175"><path d="M240.32351,189.85302v-3.70592h3.55946v3.70592z" fill="url(#color-17)" stroke="url(#color-18)" stroke-linecap="butt"/><path d="M243.86517,186.19875l-3.55123,3.60531" fill="none" stroke="url(#color-19)" stroke-linecap="round"/><path d="M240.34999,186.16269l3.51517,3.65939" fill="none" stroke="url(#color-20)" stroke-linecap="round"/><path d="M236.06925,189.87105v-3.70592h3.55946v3.70592z" fill="url(#color-21)" stroke="url(#color-22)" stroke-linecap="butt"/><path d="M239.61091,186.21677l-3.55123,3.60531" fill="none" stroke="url(#color-23)" stroke-linecap="round"/><path d="M236.09573,186.18072l3.51517,3.65939" fill="none" stroke="url(#color-24)" stroke-linecap="round"/><path d="M240.32351,194.14645v-3.70592h3.55946v3.70592z" fill="url(#color-25)" stroke="url(#color-26)" stroke-linecap="butt"/><path d="M240.31394,194.09748l3.55123,-3.60531" fill="none" stroke="url(#color-27)" stroke-linecap="round"/><path d="M240.34999,190.45613l3.51517,3.65938" fill="none" stroke="url(#color-28)" stroke-linecap="round"/><path d="M236.06925,194.16448v-3.70592h3.55946v3.70592z" fill="url(#color-29)" stroke="url(#color-30)" stroke-linecap="butt"/><path d="M239.61091,190.5102l-3.55123,3.60531" fill="none" stroke="url(#color-31)" stroke-linecap="round"/><path d="M239.61091,194.13354l-3.51517,-3.65939" fill="none" stroke="url(#color-32)" stroke-linecap="round"/></g><g stroke-width="0.175"><path d="M241.9964,200.05453v-2.46157h0.74419v2.46157z" fill="url(#color-33)" stroke="url(#color-34)" stroke-linecap="butt"/><path d="M237.21187,200.50077l0.0962,-5.00326l1.59043,-0.36218l-1.04809,5.45322z" fill="url(#color-35)" stroke="url(#color-36)" stroke-linecap="butt"/><path d="M235.369,204.3149c0,0 3.42906,-9.25082 4.59237,-9.18348c1.3308,0.07703 4.59111,9.18348 4.59111,9.18348z" fill="url(#color-37)" stroke="url(#color-38)" stroke-linecap="butt"/><path d="M238.51156,197.20179h2.91953" fill="none" stroke="url(#color-39)" stroke-linecap="round"/><path d="M237.56701,199.07237h4.69415" fill="none" stroke="url(#color-40)" stroke-linecap="round"/><path d="M243.07656,201.13737h-6.30192" fill="none" stroke="url(#color-41)" stroke-linecap="round"/><path d="M243.94991,203.19407h-8.0144" fill="none" stroke="url(#color-42)" stroke-linecap="round"/><path d="M243.08176,196.38379c-0.00527,1.09032 -0.02195,1.20698 -0.70416,1.19543c-0.68243,-0.01156 -0.71263,-0.1593 -0.70416,-1.19543c0.00935,-1.14395 0.00736,-1.22346 0.70416,-1.19543c0.66763,0.02686 0.70995,-0.00186 0.70416,1.19543z" fill="url(#color-43)" stroke="url(#color-44)" stroke-linecap="butt"/><path d="M244.49416,196.38379c-0.00527,1.09032 -0.02195,1.20698 -0.70416,1.19543c-0.68243,-0.01156 -0.71263,-0.1593 -0.70416,-1.19543c0.00935,-1.14395 0.00736,-1.22346 0.70416,-1.19543c0.66763,0.02686 0.70995,-0.00186 0.70416,1.19543z" fill="url(#color-45)" stroke="url(#color-46)" stroke-linecap="butt"/><path d="M242.78352,199.62519c0,0 0.64401,-0.16219 0.64401,-0.52475c0,-0.44208 0,-1.47169 0,-1.47169h0.74419c0,0 0,0.96569 0,1.40014c0,0.16245 -0.13962,0.5055 -0.38058,0.7624c-0.32011,0.34128 -0.76434,0.58526 -0.76434,0.58526z" fill="url(#color-47)" stroke="url(#color-48)" stroke-linecap="butt"/><path d="M235.44534,195.05746h9.15932c0,0 -0.02067,0.56396 -0.14123,0.76701c-0.1034,0.17414 -0.53857,0.37791 -0.53857,0.37791h-7.87129c0,0 -0.33176,-0.21618 -0.4207,-0.38362c-0.1095,-0.20611 -0.18753,-0.7613 -0.18753,-0.7613z" fill="url(#color-49)" stroke="url(#color-50)" stroke-linecap="butt"/></g><g stroke-width="0.175" stroke-linecap="butt"><path d="M235.4569,172.31981c0,0 3.09279,-11.34181 4.56501,-11.34181c0.94445,0 4.61847,11.34181 4.61847,11.34181z" fill="url(#color-51)" stroke="url(#color-52)"/><path d="M238.03296,164.31378c0,0 1.46835,-3.43763 1.92493,-3.45174c0.41508,-0.01282 1.85599,3.45174 1.85599,3.45174z" fill="url(#color-53)" stroke="url(#color-54)"/><path d="M237.40977,166.16678c0,0 0.07949,-0.18404 0.19627,-0.40306c0.13704,-0.25702 0.36405,-0.5622 1.14845,-0.67464c0.03043,-0.00436 0.60218,-0.06827 0.60218,-0.06827l1.24386,0.00274c0,0 0.42999,0.02191 0.45524,0.02618c0.74234,0.12563 1.02111,0.44108 1.17716,0.70484c0.13306,0.2249 0.21401,0.41221 0.21401,0.41221z" data-paper-data="{&quot;index&quot;:null}" fill="url(#color-55)" stroke="#000000"/><path d="M236.92423,167.74104c0,0 0.09574,-0.18404 0.2364,-0.40306c0.16506,-0.25702 0.43848,-0.5622 1.38325,-0.67464c0.03666,-0.00436 0.7253,-0.06827 0.7253,-0.06827l1.49817,0.00274c0,0 0.5179,0.02191 0.54831,0.02618c0.89412,0.12563 1.22988,0.44108 1.41783,0.70484c0.16026,0.2249 0.25777,0.41221 0.25777,0.41221z" data-paper-data="{&quot;index&quot;:null}" fill="url(#color-56)" stroke="#000000"/><path d="M236.4719,169.28668c0,0 0.10986,-0.18404 0.27125,-0.40306c0.1894,-0.25702 0.50312,-0.5622 1.58718,-0.67464c0.04206,-0.00436 0.83223,-0.06827 0.83223,-0.06827l1.71904,0.00274c0,0 0.59425,0.02191 0.62915,0.02618c1.02593,0.12563 1.41119,0.44108 1.62685,0.70484c0.18389,0.2249 0.29577,0.41221 0.29577,0.41221z" data-paper-data="{&quot;index&quot;:null}" fill="url(#color-57)" stroke="#000000"/><path d="M235.9889,170.77507c0,0 0.12547,-0.18404 0.30979,-0.40306c0.2163,-0.25702 0.5746,-0.5622 1.81267,-0.67464c0.04803,-0.00436 0.95046,-0.06827 0.95046,-0.06827l1.96326,0.00274c0,0 0.67867,0.02191 0.71853,0.02618c1.17168,0.12563 1.61167,0.44108 1.85797,0.70484c0.21001,0.2249 0.33779,0.41221 0.33779,0.41221z" data-paper-data="{&quot;index&quot;:null}" fill="url(#color-58)" stroke="#000000"/><path d="M240.6869,161.45738c0,0.15808 -0.33105,0.28623 -0.73942,0.28623c-0.40837,0 -0.73942,-0.12815 -0.73942,-0.28623c0,-0.15808 0.33105,-0.28623 0.73942,-0.28623c0.40837,0 0.73942,0.12815 0.73942,0.28623z" fill="url(#color-59)" stroke="url(#color-60)"/><path d="M239.6851,161.45738v-5.77228h0.57246v5.77228z" fill="url(#color-61)" stroke="url(#color-62)"/></g><g stroke-width="0.175"><path d="M235.50548,180.08796v-7.74779h9.0748v7.74779z" fill="url(#color-63)" stroke="url(#color-64)" stroke-linecap="butt"/><path d="M235.63317,179.23736v-6.06213h0.60824v6.06213z" fill="url(#color-65)" stroke="url(#color-66)" stroke-linecap="butt"/><path d="M243.86225,179.23736v-6.06213h0.60824v6.06213z" fill="url(#color-67)" stroke="url(#color-68)" stroke-linecap="butt"/><path d="M236.27822,176.21406c0,-2.07917 1.6855,-3.76467 3.76467,-3.76467c2.07917,0 3.76467,1.6855 3.76467,3.76467c0,2.07917 -1.6855,3.76467 -3.76467,3.76467c-2.07917,0 -3.76467,-1.6855 -3.76467,-3.76467z" fill="url(#color-69)" stroke="none" stroke-linecap="butt"/><path d="M236.98652,176.20068c0,-1.68798 1.36838,-3.05637 3.05637,-3.05637c1.68798,0 3.05637,1.36838 3.05637,3.05637c0,1.68798 -1.36838,3.05637 -3.05637,3.05637c-1.68798,0 -3.05637,-1.36838 -3.05637,-3.05637z" fill="url(#color-70)" stroke="none" stroke-linecap="butt"/><path d="M237.45542,176.20068c0,-1.42901 1.15845,-2.58747 2.58747,-2.58747c1.42901,0 2.58747,1.15845 2.58747,2.58747c0,1.42901 -1.15845,2.58747 -2.58747,2.58747c-1.42901,0 -2.58747,-1.15845 -2.58747,-2.58747z" fill="url(#color-71)" stroke="none" stroke-linecap="butt"/><path d="M237.9152,176.20068c0,-1.17508 0.9526,-2.12768 2.12769,-2.12768c1.17508,0 2.12769,0.95259 2.12769,2.12768c0,1.17508 -0.9526,2.12769 -2.12769,2.12769c-1.17508,0 -2.12769,-0.9526 -2.12769,-2.12769z" fill="url(#color-72)" stroke="none" stroke-linecap="butt"/><path d="M235.61656,179.26454l0.49068,-3.18371l0.47023,3.18371l0.63379,-3.1559l0.63379,3.142l1.10403,-3.142l1.06314,3.1559l0.94047,-3.142l1.06314,3.12809l0.71557,-3.12809l0.77691,3.1559l0.49068,-3.142l0.47023,3.11419" fill="none" stroke="url(#color-73)" stroke-linecap="round"/><path d="M244.46921,176.10863l-0.47023,3.11419l-0.49068,-3.142l-0.77691,3.1559l-0.71557,-3.12809l-1.06314,3.12809l-0.94047,-3.142l-1.06314,3.1559l-1.10403,-3.142l-0.63379,3.142l-0.63379,-3.1559l-0.47023,3.18371l-0.49068,-3.18371" data-paper-data="{&quot;index&quot;:null}" fill="none" stroke="url(#color-74)" stroke-linecap="round"/><path d="M235.63701,176.20016l0.49068,-3.18371l0.47023,3.18371l0.63379,-3.1559l0.63379,3.142l1.10403,-3.142l1.06314,3.1559l0.94047,-3.142l1.06314,3.1281l0.71557,-3.1281l0.77691,3.1559l0.49068,-3.142l0.47023,3.11419" fill="none" stroke="url(#color-75)" stroke-linecap="round"/><path d="M244.48965,173.04426l-0.47023,3.11419l-0.49068,-3.142l-0.77691,3.1559l-0.71557,-3.12809l-1.06314,3.12809l-0.94047,-3.142l-1.06314,3.1559l-1.10403,-3.142l-0.63379,3.142l-0.63379,-3.1559l-0.47023,3.18371l-0.49068,-3.18371" data-paper-data="{&quot;index&quot;:null}" fill="none" stroke="url(#color-76)" stroke-linecap="round"/><path d="M235.52902,179.97607v-0.68393h8.94465v0.68393z" fill="url(#color-77)" stroke="url(#color-78)" stroke-linecap="butt"/><path d="M235.56991,173.15451v-0.68393h8.94465v0.68393z" fill="url(#color-79)" stroke="url(#color-80)" stroke-linecap="butt"/></g><path d="M215.27327,167.03273v-12.39235h25.93332v8.69862h-15.56684v3.69373z" fill-opacity="0.53453" fill="#000000" stroke="#a60000" stroke-width="0" stroke-linecap="butt"/><text transform="translate(215.70712,161.61518) scale(0.21839,0.21839)" font-size="40" xml:space="preserve" fill="#ffffff" fill-rule="nonzero" stroke="#000000" stroke-width="0" stroke-linecap="butt" stroke-linejoin="miter" stroke-miterlimit="10" stroke-dasharray="" stroke-dashoffset="0" font-family="Serif" font-weight="normal" text-anchor="start" style="mix-blend-mode: normal"><tspan x="0" dy="0">Rocket</tspan></text><text transform="translate(215.56527,166.16682) scale(0.11601,0.11601)" font-size="40" xml:space="preserve" fill="#ffffff" fill-rule="nonzero" stroke="#000000" stroke-width="0" stroke-linecap="butt" stroke-linejoin="miter" stroke-miterlimit="10" stroke-dasharray="" stroke-dashoffset="0" font-family="Serif" font-weight="normal" text-anchor="start" style="mix-blend-mode: normal"><tspan x="0" dy="0">4-3-3</tspan></text></g></g></svg>