<svg version="1.1" xmlns="http://www.w3.org/2000/svg" xmlns:xlink="http://www.w3.org/1999/xlink" width="59" height="59.70662" viewBox="0,0,59,59.70662"><defs><linearGradient x1="270" y1="151.64669" x2="270" y2="208.35331" gradientUnits="userSpaceOnUse" id="color-1"><stop offset="0" stop-color="#191919"/><stop offset="1" stop-color="#050505"/></linearGradient><linearGradient x1="270" y1="151.64669" x2="270" y2="208.35331" gradientUnits="userSpaceOnUse" id="color-2"><stop offset="0" stop-color="#cccccc"/><stop offset="1" stop-color="#898989"/></linearGradient><radialGradient cx="270" cy="180.00001" r="26.8571" gradientUnits="userSpaceOnUse" id="color-3"><stop offset="0" stop-color="#cff8ff" stop-opacity="0.7098"/><stop offset="1" stop-color="#cff8ff" stop-opacity="0"/></radialGradient><linearGradient x1="270" y1="153.29212" x2="270" y2="206.7079" gradientUnits="userSpaceOnUse" id="color-4"><stop offset="0" stop-color="#cccccc"/><stop offset="1" stop-color="#898989"/></linearGradient><radialGradient cx="256.52993" cy="176.78953" r="13.11206" gradientUnits="userSpaceOnUse" id="color-5"><stop offset="0" stop-color="#e8f7ff" stop-opacity="0.25098"/><stop offset="1" stop-color="#c7d3d9" stop-opacity="0.25098"/></radialGradient><linearGradient x1="257.81772" y1="173.41598" x2="257.81772" y2="195.80166" gradientUnits="userSpaceOnUse" id="color-6"><stop offset="0" stop-color="#348317"/><stop offset="1" stop-color="#3c5b0d"/></linearGradient><radialGradient cx="274.32488" cy="176.05919" r="13.04501" gradientUnits="userSpaceOnUse" id="color-7"><stop offset="0" stop-color="#e1ebf2" stop-opacity="0.25098"/><stop offset="1" stop-color="#c0ccd1" stop-opacity="0.25098"/></radialGradient><linearGradient x1="285.32965" y1="181.05344" x2="285.32965" y2="193.95813" gradientUnits="userSpaceOnUse" id="color-8"><stop offset="0" stop-color="#cccccc"/><stop offset="1" stop-color="#898989"/></linearGradient><radialGradient cx="261.44696" cy="168.99935" r="20.13639" gradientUnits="userSpaceOnUse" id="color-9"><stop offset="0" stop-color="#ebf7ff" stop-opacity="0.25098"/><stop offset="1" stop-color="#c5d0d9" stop-opacity="0.25098"/></radialGradient><linearGradient x1="269.40786" y1="157.35095" x2="269.40786" y2="162.88154" gradientUnits="userSpaceOnUse" id="color-10"><stop offset="0" stop-color="#cccccc"/><stop offset="1" stop-color="#898989"/></linearGradient><radialGradient cx="257.29531" cy="177.02032" r="12.36702" gradientUnits="userSpaceOnUse" id="color-11"><stop offset="0" stop-color="#e9f7ff"/><stop offset="1" stop-color="#c7d2d8"/></radialGradient><radialGradient cx="274.07913" cy="176.34249" r="12.30378" gradientUnits="userSpaceOnUse" id="color-12"><stop offset="0" stop-color="#e0eaf1"/><stop offset="1" stop-color="#bfcbd0"/></radialGradient><radialGradient cx="261.93295" cy="169.79017" r="18.99222" gradientUnits="userSpaceOnUse" id="color-13"><stop offset="0" stop-color="#ebf7ff"/><stop offset="1" stop-color="#c4cfd8"/></radialGradient><radialGradient cx="255.74841" cy="173.71157" r="8.69915" gradientUnits="userSpaceOnUse" id="color-14"><stop offset="0" stop-color="#ffffff" stop-opacity="0.61961"/><stop offset="1" stop-color="#ffffff" stop-opacity="0"/></radialGradient></defs><g transform="translate(-240.5,-150.14669)"><g data-paper-data="{&quot;isPaintingLayer&quot;:true}" fill-rule="nonzero" stroke-linecap="butt" stroke-linejoin="miter" stroke-miterlimit="10" stroke-dasharray="" stroke-dashoffset="0" style="mix-blend-mode: normal"><path d="M242,208.35331v-56.70662h56v56.70662z" fill="url(#color-1)" stroke="url(#color-2)" stroke-width="3"/><path d="M296.8571,180.00001c0,14.75036 -12.02433,26.70789 -26.8571,26.70789c-14.83277,0 -26.8571,-11.95753 -26.8571,-26.70789c0,-14.75036 12.02433,-26.70789 26.8571,-26.70789c14.83277,0 26.8571,11.95753 26.8571,26.70789z" fill="url(#color-3)" stroke="url(#color-4)" stroke-width="0"/><path d="M246.75017,190.53444l3.692,-21.33223l19.19981,2.37024l1.40486,22.9124z" fill="url(#color-5)" stroke="url(#color-6)" stroke-width="0"/><path d="M271.04687,194.48486l-1.63901,-23.17576l20.37054,-3.95042l3.47144,20.54216z" fill="url(#color-7)" stroke="url(#color-8)" stroke-width="0"/><path d="M249.9739,169.46557l22.71197,-3.95042l17.5608,1.84353l-20.60468,4.21377z" fill="url(#color-9)" stroke="url(#color-10)" stroke-width="0"/><path d="M248.07125,189.77713l3.48222,-19.79869l18.10886,2.19985l1.32503,21.26526z" fill="url(#color-11)" stroke-opacity="0.25098" stroke="#ffffff" stroke-width="0"/><path d="M270.98738,193.44356l-1.54588,-21.50969l19.21306,-3.66643l3.27419,19.06541z" fill="url(#color-12)" stroke-opacity="0.25098" stroke="#ffffff" stroke-width="0"/><path d="M251.1118,170.22287l21.42145,-3.66643l16.56298,1.711l-19.4339,3.91085z" fill="url(#color-13)" stroke-opacity="0.25098" stroke="#ffffff" stroke-width="0"/><path d="M245.27327,163.339v-8.69862h32.83607v8.69862z" fill-opacity="0.53453" fill="#000000" stroke="#a60000" stroke-width="0"/><text transform="translate(245.70712,161.61518) scale(0.21839,0.21839)" font-size="40" xml:space="preserve" fill="#ffffff" fill-rule="nonzero" stroke="none" stroke-width="1" stroke-linecap="butt" stroke-linejoin="miter" stroke-miterlimit="10" stroke-dasharray="" stroke-dashoffset="0" font-family="Serif" font-weight="normal" text-anchor="start" style="mix-blend-mode: normal"><tspan x="0" dy="0">Platinum</tspan></text><path d="M264.44756,173.71157c0,-4.62088 -3.89474,-8.36684 -8.69915,-8.36684c-4.80441,0 -8.69915,3.74596 -8.69915,8.36684c0,4.62088 3.89474,8.36684 8.69915,8.36684c4.80441,0 8.69915,-3.74596 8.69915,-8.36684z" fill="url(#color-14)" stroke="none" stroke-width="0"/></g></g></svg>