<svg version="1.1" xmlns="http://www.w3.org/2000/svg" xmlns:xlink="http://www.w3.org/1999/xlink" width="109.94389" height="121.94987" viewBox="0,0,109.94389,121.94987"><defs><linearGradient x1="269.37193" y1="195.55582" x2="280.5438" y2="191.28379" gradientUnits="userSpaceOnUse" id="color-1"><stop offset="0" stop-color="#242424"/><stop offset="1" stop-color="#373737"/></linearGradient><radialGradient cx="266.9742" cy="192.97078" r="3.52256" gradientUnits="userSpaceOnUse" id="color-2"><stop offset="0" stop-color="#bfbfbf"/><stop offset="1" stop-color="#9a9a9a"/></radialGradient><linearGradient x1="281.69086" y1="192.52644" x2="326.80135" y2="187.09255" gradientUnits="userSpaceOnUse" id="color-3"><stop offset="0" stop-color="#b2b2b2"/><stop offset="1" stop-color="#c4c4c4"/></linearGradient><linearGradient x1="282.03126" y1="192.84744" x2="311.55684" y2="189.29088" gradientUnits="userSpaceOnUse" id="color-4"><stop offset="0" stop-color="#cccccc"/><stop offset="1" stop-color="#d8d8d8"/></linearGradient><linearGradient x1="279.13943" y1="192.42949" x2="281.567" y2="192.18051" gradientUnits="userSpaceOnUse" id="color-5"><stop offset="0" stop-color="#b5b5b5"/><stop offset="1" stop-color="#c5c5c5"/></linearGradient><linearGradient x1="245.29523" y1="194.23556" x2="256.47643" y2="189.98799" gradientUnits="userSpaceOnUse" id="color-6"><stop offset="0" stop-color="#242424"/><stop offset="1" stop-color="#373737"/></linearGradient><radialGradient cx="242.90317" cy="191.6453" r="3.52256" gradientUnits="userSpaceOnUse" id="color-7"><stop offset="0" stop-color="#bfbfbf"/><stop offset="1" stop-color="#9a9a9a"/></radialGradient><linearGradient x1="257.6208" y1="191.23321" x2="302.74304" y2="185.89806" gradientUnits="userSpaceOnUse" id="color-8"><stop offset="0" stop-color="#b2b2b2"/><stop offset="1" stop-color="#c4c4c4"/></linearGradient><linearGradient x1="257.96048" y1="191.55491" x2="287.49376" y2="188.06302" gradientUnits="userSpaceOnUse" id="color-9"><stop offset="0" stop-color="#cccccc"/><stop offset="1" stop-color="#d8d8d8"/></linearGradient><linearGradient x1="255.06956" y1="191.13063" x2="257.49768" y2="190.88696" gradientUnits="userSpaceOnUse" id="color-10"><stop offset="0" stop-color="#b5b5b5"/><stop offset="1" stop-color="#c5c5c5"/></linearGradient><linearGradient x1="242.02504" y1="147.38788" x2="241.76077" y2="155.25668" gradientUnits="userSpaceOnUse" id="color-11"><stop offset="0" stop-color="#505050"/><stop offset="1" stop-color="#767676"/></linearGradient><radialGradient cx="237.7618" cy="123.9119" r="13.11833" gradientUnits="userSpaceOnUse" id="color-12"><stop offset="0" stop-color="#ccbe7a"/><stop offset="1" stop-color="#948f62"/></radialGradient><linearGradient x1="254.08343" y1="115.23506" x2="253.77317" y2="124.47231" gradientUnits="userSpaceOnUse" id="color-13"><stop offset="0" stop-color="#464646"/><stop offset="1" stop-color="#343434"/></linearGradient><linearGradient x1="254.08344" y1="115.23506" x2="253.77318" y2="124.47231" gradientUnits="userSpaceOnUse" id="color-14"><stop offset="0" stop-color="#131313"/><stop offset="1" stop-color="#202020"/></linearGradient><linearGradient x1="242.47388" y1="115.87266" x2="241.29805" y2="150.88296" gradientUnits="userSpaceOnUse" id="color-15"><stop offset="0" stop-color="#ffe8b5" stop-opacity="0.32941"/><stop offset="1" stop-color="#c2a53e" stop-opacity="0.63529"/></linearGradient><linearGradient x1="242.47388" y1="115.87266" x2="241.29805" y2="150.88296" gradientUnits="userSpaceOnUse" id="color-16"><stop offset="0" stop-color="#444444"/><stop offset="1" stop-color="#545454"/></linearGradient><linearGradient x1="231.24574" y1="113.03871" x2="230.84611" y2="124.93751" gradientUnits="userSpaceOnUse" id="color-17"><stop offset="0" stop-color="#464646"/><stop offset="1" stop-color="#343434"/></linearGradient><linearGradient x1="231.24574" y1="113.03871" x2="230.84611" y2="124.93751" gradientUnits="userSpaceOnUse" id="color-18"><stop offset="0" stop-color="#131313"/><stop offset="1" stop-color="#202020"/></linearGradient></defs><g transform="translate(-224.2536,-112.37664)"><g data-paper-data="{&quot;isPaintingLayer&quot;:true}" fill-rule="nonzero" stroke-linejoin="miter" stroke-miterlimit="10" stroke-dasharray="" stroke-dashoffset="0" style="mix-blend-mode: normal"><path d="M226.17781,195.05177l1.52849,-45.51021l25.56255,0.85854l-1.23298,45.52014z" fill="#747474" stroke="none" stroke-width="NaN" stroke-linecap="butt"/><g><path d="M226.1234,227.23587l3.75904,-33.71008c0,0 6.75518,-2.18267 9.822,-2.18267c3.62872,0 0.6063,4.24407 0.6063,4.24407c0,0 -3.09204,0.08829 -3.39803,1.52409c-0.93579,4.39099 -2.78619,30.12458 -2.78619,30.12458z" fill="#ffefeb" stroke="#000000" stroke-width="0" stroke-linecap="butt"/><path d="M241.47427,232.29258c0,0 -0.3857,1.94015 -1.2126,1.94015c-0.59276,0 -2.64411,0.01366 -4.70436,-0.06689c-1.25258,-0.04897 -1.90215,-0.61779 -2.83553,-0.76063c-1.17507,-0.17983 -2.93853,0.22047 -3.78777,0.02896c-1.56485,-0.35288 -2.37463,-0.77781 -2.37463,-0.77781c0,0 -0.26912,-1.02539 -0.2856,-1.5858c-0.02221,-0.755 0.16433,-2.53701 0.16433,-2.53701c0,0 5.93424,-0.11957 8.24914,0.08075c1.36979,0.11854 4.24057,0.6468 4.24057,0.6468c0,0 1.45975,0.6156 1.67337,1.04283c0.26162,0.52325 0.87307,1.98866 0.87307,1.98866z" data-paper-data="{&quot;index&quot;:null}" fill="#141415" stroke="#000000" stroke-width="0" stroke-linecap="butt"/><path d="M241.20337,231.65797c0,0 -0.38569,0 -1.21259,0c-0.24822,0 0.70239,1.60165 -2.61811,1.33311c-3.13563,-0.25359 -2.77648,-1.18823 -3.8809,-1.26883c-2.30937,-0.16854 -2.58766,0.59503 -3.58733,0.44204c-0.34815,-0.05328 -0.51271,-0.11454 -1.78458,-0.97035c-0.87471,-0.58857 -0.66566,-1.75122 -1.26542,-2.3793c-0.87609,-0.91746 -0.80847,-1.8858 -0.80847,-1.8858l-0.07637,-3.04773c0,0 0.48635,2.20682 1.32529,3.03123c0.75062,0.73761 2.3169,-0.01875 2.80058,-0.01889c0.84695,-0.00024 -0.68885,-3.26805 0.12091,-3.24981c0.43542,0.00981 3.72275,-0.23408 3.72275,-0.23408c0,0 0.12302,3.57988 0.35598,3.60004c1.36978,0.11854 4.60434,0.6468 4.60434,0.6468c0,0 1.45975,0.6156 1.67337,1.04283c0.26163,0.52325 0.63055,2.95873 0.63055,2.95873z" data-paper-data="{&quot;index&quot;:null}" fill="#252527" stroke="#000000" stroke-width="0" stroke-linecap="butt"/><path d="M232.52068,228.71934l2.66771,-1.09134" data-paper-data="{&quot;index&quot;:null}" fill="none" stroke="#ffffff" stroke-width="0.5" stroke-linecap="round"/><path d="M237.00727,227.62802l-2.54644,1.45511" data-paper-data="{&quot;index&quot;:null}" fill="none" stroke="#ffffff" stroke-width="0.5" stroke-linecap="round"/><path d="M238.09861,227.87055l-1.45512,1.45512" data-paper-data="{&quot;index&quot;:null}" fill="none" stroke="#ffffff" stroke-width="0.5" stroke-linecap="round"/><path d="M231.30808,224.83905l2.18267,-0.24252" data-paper-data="{&quot;index&quot;:null}" fill="none" stroke="#969696" stroke-width="0.5" stroke-linecap="round"/><path d="M233.73327,225.32412l-1.94015,0.36378" data-paper-data="{&quot;index&quot;:null}" fill="none" stroke="#969696" stroke-width="0.5" stroke-linecap="round"/></g><path d="M279.69164,194.65552c-0.45928,0.21435 -2.30446,-3.20759 -3.70191,-3.03617c-0.47976,0.05886 1.71531,4.85386 0.79875,5.01083c-0.54407,0.09317 -1.70748,-2.58496 -2.64412,-3.68449c-0.4563,-0.53567 -2.96256,-4.68632 -2.96256,-4.68632c0,0 -0.76482,-2.94882 -2.82851,-5.78845c-0.49627,-0.68283 -1.94413,-3.02717 -2.46147,-3.72335c-1.22436,-1.64758 -2.50279,-3.23518 -3.22629,-4.26482c-1.55618,-2.21456 -8.30467,-13.2712 -8.30467,-13.2712c0,0 -4.81573,-5.24927 -2.90346,-6.2789c5.89781,-3.17556 6.97315,2.45114 6.97315,2.45114c0,0 3.11315,5.79594 6.90133,11.6613c2.84964,4.41221 6.34465,8.82725 7.71721,11.0472c1.62445,2.62734 3.29092,6.25757 3.29092,6.25757c0,0 1.32437,2.45515 2.31289,4.58418c0.88946,1.91569 1.48099,3.51504 1.03872,3.72147z" data-paper-data="{&quot;index&quot;:null}" fill="#8c8c8c" stroke="#000000" stroke-width="0" stroke-linecap="butt"/><g stroke="none" stroke-width="0" stroke-linecap="butt"><path d="M269.76427,196.58185l-0.60371,-4.99587l10.99088,-1.32817l0.60369,4.99589z" fill="url(#color-1)"/><path d="M271.50862,192.85318c0.69484,1.8171 -0.21491,3.8535 -2.03202,4.54835c-1.81713,0.69486 -3.8535,-0.21493 -4.54836,-2.03202c-0.69488,-1.81712 0.21493,-3.8535 2.03202,-4.54835c1.81713,-0.69486 3.8535,0.21493 4.54836,2.03202z" fill="url(#color-2)"/><path d="M282.24707,197.14405l-1.11247,-9.23521l45.01507,-3.50962l8.04781,1.41232l-7.31541,3.41393z" fill="url(#color-3)"/><path d="M282.39534,195.86974l-0.8444,-6.38296l37.60445,-2.82476l10.23684,-0.02661l-9.65167,2.39247z" fill="url(#color-4)"/><path d="M282.5358,180.1656c0,0 -1.07609,7.93368 -0.72523,11.86635c0.38524,4.31787 2.9433,12.99326 2.9433,12.99326c0,0 -5.0057,-8.66905 -5.37929,-12.85688c-0.36552,-4.09671 3.16126,-12.00274 3.16126,-12.00274z" fill="url(#color-5)"/></g><g><path d="M239.70443,191.3431c3.62872,0 10.54956,2.18267 10.54956,2.18267l3.03149,33.71008h-7.63934c0,0 -1.32697,-25.53818 -2.03751,-29.57011c-0.20138,-1.1427 -3.2979,-2.07857 -3.2979,-2.07857c0,0 -3.67312,-4.24407 -0.6063,-4.24407z" fill="#ffefeb" stroke="#000000" stroke-width="0" stroke-linecap="butt"/><path d="M259.69261,234.32563c-0.59276,0 -2.64411,0.01365 -4.70436,-0.0669c-1.25258,-0.04897 -1.90215,-0.61779 -2.83553,-0.76063c-1.17507,-0.17982 -2.93854,0.22047 -3.78778,0.02896c-1.56485,-0.35288 -2.37463,-0.77782 -2.37463,-0.77782c0,0 -0.26911,-1.0254 -0.2856,-1.5858c-0.02221,-0.75501 0.16433,-2.53701 0.16433,-2.53701c0,0 5.93425,-0.11957 8.24914,0.08076c1.36979,0.11854 4.24057,0.6468 4.24057,0.6468c0,0 1.45976,0.6156 1.67337,1.04283c0.26162,0.52325 0.87307,1.98865 0.87307,1.98865c0,0 -0.3857,1.94015 -1.21259,1.94015z" data-paper-data="{&quot;index&quot;:null}" fill="#141415" stroke="#000000" stroke-width="0" stroke-linecap="butt"/><path d="M259.4217,231.75086c-0.24822,0 0.7024,1.60165 -2.61811,1.33311c-3.13563,-0.25358 -2.77648,-1.18823 -3.8809,-1.26883c-2.30937,-0.16854 -2.58765,0.59503 -3.58732,0.44205c-0.34815,-0.05328 -0.51271,-0.11454 -1.78459,-0.97035c-0.87472,-0.58857 -0.66566,-1.75122 -1.26542,-2.3793c-0.87609,-0.91745 -0.80847,-1.8858 -0.80847,-1.8858l-0.07637,-3.04773c0,0 0.48635,2.20681 1.32529,3.03122c0.75062,0.73761 2.3169,-0.01875 2.80058,-0.01889c0.84696,-0.00024 -0.68885,-3.26804 0.12091,-3.2498c0.43542,0.00981 3.72275,-0.23409 3.72275,-0.23409c0,0 0.12302,3.57989 0.35598,3.60005c1.36979,0.11854 4.60434,0.6468 4.60434,0.6468c0,0 1.45976,0.6156 1.67338,1.04283c0.26162,0.52325 0.63055,2.95873 0.63055,2.95873c0,0 -0.3857,0 -1.2126,0z" data-paper-data="{&quot;index&quot;:null}" fill="#252527" stroke="#000000" stroke-width="0" stroke-linecap="butt"/><path d="M254.61932,227.7209l-2.6677,1.09133" fill="none" stroke="#ffffff" stroke-width="0.5" stroke-linecap="round"/><path d="M253.89177,229.17601l2.54645,-1.45511" fill="none" stroke="#ffffff" stroke-width="0.5" stroke-linecap="round"/><path d="M257.52956,227.96345l-1.45512,1.45511" fill="none" stroke="#ffffff" stroke-width="0.5" stroke-linecap="round"/><path d="M252.92169,224.6894l-2.18266,0.24252" fill="none" stroke="#969696" stroke-width="0.5" stroke-linecap="round"/><path d="M251.22407,225.78079l1.94015,-0.36378" fill="none" stroke="#969696" stroke-width="0.5" stroke-linecap="round"/></g><path d="M274.91294,199.12411c-0.45153,0.14966 -1.99776,-3.03371 -2.69281,-3.59775c-0.37207,-0.30192 0.94556,4.58407 0.06915,4.63187c-0.52026,0.02838 -1.37023,-2.57613 -2.15095,-3.6943c-0.38037,-0.54476 -2.35907,-4.65615 -2.35907,-4.65615c0,0 -0.45036,-2.81282 -2.13239,-5.66278c-0.40449,-0.68534 -1.55247,-3.01096 -1.97559,-3.71083c-1.00133,-1.65646 -2.05898,-3.2631 -2.64558,-4.29383c-1.26171,-2.21692 -6.60065,-13.17678 -6.60065,-13.17678c0,0 -6.76908,-6.75911 -2.8905,-8.67282c3.41402,-1.68449 7.06774,5.56053 7.06774,5.56053c0,0 2.39947,5.69997 5.42753,11.53617c2.27785,4.39027 5.16248,8.85183 6.251,11.05422c1.28826,2.60654 2.52457,6.14654 2.52457,6.14654c0,0 1.0217,2.41511 1.7573,4.49238c0.66187,1.86914 0.78511,3.8994 0.35031,4.04351z" data-paper-data="{&quot;index&quot;:null}" fill="#969696" stroke="#000000" stroke-width="0" stroke-linecap="butt"/><g><path d="M229.63072,192.79136c0,0 1.22033,-4.93013 0.88158,-10.32867c-0.10547,-1.68088 -0.02193,-5.69289 -0.46312,-7.56173c-0.52162,-2.20963 -2.43939,-2.8613 -2.47898,-4.21471c-0.0782,-2.67334 -0.84136,-6.82579 -0.03452,-11.3788c0.60821,-3.43218 3.66798,-6.17884 3.66798,-6.17884c0,0 3.99492,-0.15506 5.75925,0.27059c2.24588,0.54185 7.70643,0.72932 9.63276,0.37751c2.03251,-0.37119 5.48081,0.20086 5.48081,0.20086c0,0 2.50143,3.60789 2.58307,7.93213c0.07705,4.08129 -0.9165,8.44183 -1.04916,10.10819c-0.13445,1.689 -1.56578,2.0799 -2.27458,4.20084c-0.56544,1.69202 -0.72096,5.16916 -0.9184,7.1627c-0.45858,4.63018 -0.1971,10.27289 -0.1971,10.27289c0,0 -2.72958,-0.86144 -5.54061,-1.02409c-1.27657,-0.07386 -1.82403,0.94542 -3.03593,1.06402c-0.96869,0.09477 -2.61416,-0.70106 -3.53725,-0.76883c-0.69781,-0.05124 -2.02481,-0.59891 -2.51862,-0.6196c-0.99711,-0.04179 -1.64386,0.81056 -2.80628,0.93098c-1.35029,0.13984 -3.15092,-0.44541 -3.15092,-0.44541z" fill="#9d9d9d" stroke="#292e32" stroke-width="0" stroke-linecap="butt"/><path d="M234.92121,168.40264l2.53315,-8.95892" fill="#ff0000" stroke="#ff0000" stroke-width="1" stroke-linecap="round"/><path d="M233.02516,158.76938l-4.2537,7.97111" fill="#ff0000" stroke="#ff0000" stroke-width="1" stroke-linecap="round"/><path d="M231.706,167.77218l3.45504,-8.7199" fill="#ff0000" stroke="#ff0000" stroke-width="1" stroke-linecap="round"/><path d="M247.532,159.86616l1.3035,9.08776" data-paper-data="{&quot;index&quot;:null}" fill="#ff0000" stroke="#ff0000" stroke-width="1" stroke-linecap="round"/><path d="M253.35142,167.64998l-2.59714,-8.2012" data-paper-data="{&quot;index&quot;:null}" fill="#ff0000" stroke="#ff0000" stroke-width="1" stroke-linecap="round"/><path d="M249.20286,159.60788l1.97989,8.90243" data-paper-data="{&quot;index&quot;:null}" fill="#ff0000" stroke="#ff0000" stroke-width="1" stroke-linecap="round"/><path d="M231.95849,189.47862c0.01435,-0.41396 0.3616,-0.73789 0.77558,-0.72353c0.41396,0.01435 0.73789,0.3616 0.72353,0.77558c-0.01435,0.41396 -0.36159,0.73789 -0.77558,0.72353c-0.41396,-0.01435 -0.73789,-0.3616 -0.72353,-0.77558z" fill="#002dff" stroke="none" stroke-width="0.5" stroke-linecap="butt"/><path d="M235.64332,189.60653c0.01435,-0.41396 0.3616,-0.73789 0.77558,-0.72353c0.41396,0.01435 0.73789,0.3616 0.72353,0.77558c-0.01435,0.41396 -0.36159,0.73789 -0.77558,0.72353c-0.41396,-0.01435 -0.73789,-0.3616 -0.72353,-0.77558z" fill="#002dff" stroke="none" stroke-width="0.5" stroke-linecap="butt"/><path d="M239.43052,189.73796c0.01435,-0.41396 0.36159,-0.73789 0.77558,-0.72353c0.41396,0.01435 0.73789,0.3616 0.72353,0.77558c-0.01435,0.41396 -0.3616,0.73789 -0.77558,0.72353c-0.41396,-0.01435 -0.73789,-0.3616 -0.72353,-0.77558z" fill="#002dff" stroke="none" stroke-width="0.5" stroke-linecap="butt"/><path d="M243.32006,189.87299c0.01435,-0.41396 0.3616,-0.7379 0.77558,-0.72353c0.41396,0.01435 0.73789,0.3616 0.72353,0.77558c-0.01435,0.41396 -0.3616,0.73789 -0.77558,0.72353c-0.41396,-0.01435 -0.73789,-0.36159 -0.72353,-0.77558z" fill="#002dff" stroke="none" stroke-width="0.5" stroke-linecap="butt"/><path d="M247.00489,190.00093c0.01435,-0.41396 0.3616,-0.7379 0.77558,-0.72353c0.41396,0.01435 0.73789,0.3616 0.72353,0.77559c-0.01435,0.41396 -0.3616,0.73789 -0.77557,0.72352c-0.41396,-0.01435 -0.73789,-0.36159 -0.72353,-0.77558z" fill="#002dff" stroke="none" stroke-width="0.5" stroke-linecap="butt"/><path d="M239.53735,177.13794c0.04635,-1.37993 1.20259,-2.46102 2.58251,-2.41466c1.37993,0.04635 2.46102,1.20259 2.41466,2.58251c-0.04635,1.37993 -1.20259,2.46102 -2.58251,2.41466c-1.37993,-0.04635 -2.46102,-1.20259 -2.41466,-2.58251z" fill="#797979" stroke="#00ff35" stroke-width="1" stroke-linecap="butt"/><path d="M238.05421,176.7807l-5.73218,-0.19253" fill="none" stroke="#00ff35" stroke-width="1" stroke-linecap="round"/><path d="M249.51517,177.26809l-3.58263,-0.12032" fill="none" stroke="#00ff35" stroke-width="1" stroke-linecap="round"/></g><path d="M249.07171,193.53999c-1.5317,-1.78067 -3.21571,-4.01006 -3.21571,-4.01006c0,0 -2.62025,-3.01801 -4.32994,-5.60152c-1.44459,-2.18291 -3.97616,-7.25463 -6.79306,-11.70932c-3.74468,-5.92182 -7.72615,-11.17212 -7.72615,-11.17212c0,0 -3.45461,-4.64083 0.92458,-7.55687c3.9833,-2.65244 4.98538,4.99867 4.98538,4.99867c0,0 6.68674,10.96804 8.0444,13.32408c0.63124,1.0954 1.53192,2.9398 2.51227,4.75618c0.41422,0.76746 1.94045,3.07116 2.35176,3.81329c1.71042,3.08616 4.10154,4.97571 4.10154,4.97571c0,0 2.72777,4.02409 3.02051,4.67024c0.60093,1.32628 2.56339,3.48979 2.23429,3.97239c-0.55437,0.813 -4.87695,-3.77415 -4.8084,-3.26185c0.12803,0.95698 2.0869,4.90195 1.68336,5.25594c-0.3886,0.34089 -1.60664,-0.85258 -2.98483,-2.45479z" data-paper-data="{&quot;index&quot;:null}" fill="#a1a1a1" stroke="#000000" stroke-width="0" stroke-linecap="butt"/><g stroke="none" stroke-width="0" stroke-linecap="butt"><path d="M245.68534,195.26245l-0.59279,-4.9972l10.99375,-1.30411l0.59278,4.99722z" fill="url(#color-6)"/><path d="M247.43782,191.5376c0.69087,1.81864 -0.22334,3.85302 -2.04201,4.5439c-1.81864,0.69089 -3.85303,-0.22333 -4.5439,-2.042c-0.69088,-1.81864 0.22333,-3.85303 2.04201,-4.5439c1.81864,-0.69089 3.85303,0.22333 4.5439,2.042z" fill="url(#color-7)"/><path d="M258.16687,195.852l-1.09225,-9.23764l45.02266,-3.41107l8.04467,1.42994l-7.3229,3.39789z" fill="url(#color-8)"/><path d="M258.31792,194.57804c0,0 -0.04547,-0.34962 -0.08992,-0.69147c-0.12758,-0.9809 -0.74048,-5.69335 -0.74048,-5.69335l37.61056,-2.74242l10.23686,-0.00417l-9.65689,2.37136z" fill="url(#color-9)"/><path d="M258.49277,178.87421c0,0 -1.09347,7.93129 -0.75117,11.86472c0.37579,4.3187 2.91481,12.99968 2.91481,12.99968c0,0 -4.98663,-8.67999 -5.35114,-12.86862c-0.35657,-4.09749 3.18748,-11.99578 3.18748,-11.99578z" fill="url(#color-10)"/></g><path d="M246.84738,197.10268c-1.45431,-1.76817 -3.04741,-3.97693 -3.04741,-3.97693c0,0 -2.48846,-2.99739 -4.09897,-5.55174c-1.36079,-2.1583 -3.71863,-7.15508 -6.36783,-11.5567c-3.52173,-5.85131 -7.28867,-11.05331 -7.28867,-11.05331c0,0 -4.7013,-7.59704 1.13032,-9.92757c3.16981,-1.26679 4.14667,7.72494 4.14667,7.72494c0,0 6.8174,10.66891 8.08972,12.99402c0.59157,1.08105 1.42957,2.89774 2.34584,4.68889c0.38715,0.7568 1.82488,3.03455 2.20976,3.76661c1.6004,3.04422 3.88989,4.93699 3.88989,4.93699c0,0 4.5083,8.52098 4.23723,8.93883c-0.78961,1.21712 -3.86633,-4.14997 -3.89942,-3.57755c-0.06249,1.08139 1.90964,4.7136 1.50877,5.04989c-0.38603,0.32384 -1.54731,-0.86538 -2.85587,-2.45637z" data-paper-data="{&quot;index&quot;:null}" fill="#adadad" stroke="#000000" stroke-width="0" stroke-linecap="butt"/><g><path d="M232.12436,154.93305l0.26426,-7.86876c0,0 6.24621,3.63486 9.33968,3.73876c3.3154,0.11136 9.93312,-3.09147 9.93312,-3.09147l-0.26426,7.86876c0,0 -6.39679,0.47018 -9.59878,0.36263c-3.22216,-0.10822 -9.67403,-1.00993 -9.67403,-1.00993z" fill="url(#color-11)" stroke="none" stroke-width="0" stroke-linecap="butt"/><path d="M253.74793,117.76474c0,0 -0.37215,3.23379 -0.74176,4.5505c-0.30275,1.07841 -1.31571,2.77852 -1.31571,2.77852" data-paper-data="{&quot;index&quot;:null}" fill="none" stroke="#3b2c16" stroke-width="1.25" stroke-linecap="round"/><path d="M255.01249,121.94781c0,0 -0.26545,2.27087 -0.69699,3.21381c-0.45643,0.99729 -1.97108,2.61605 -1.97108,2.61605" data-paper-data="{&quot;index&quot;:null}" fill="none" stroke="#3b2c16" stroke-width="1.25" stroke-linecap="round"/><path d="M251.55518,115.92608c0,0 0.00674,3.27311 -0.18791,4.68938c-0.1594,1.15996 -0.89543,3.19384 -0.89543,3.19384" data-paper-data="{&quot;index&quot;:null}" fill="none" stroke="#3b2c16" stroke-width="1.25" stroke-linecap="round"/><path d="M254.52147,134.26082c-0.2481,7.38737 -8.76216,17.03002 -11.97563,16.98398c-6.69199,-0.09588 -13.88924,-10.45696 -13.64114,-17.84435c0.2481,-7.38737 6.18376,-13.18342 13.25763,-12.94585c7.07387,0.23757 12.60724,6.41882 12.35913,13.80619z" fill="url(#color-12)" stroke="none" stroke-width="0" stroke-linecap="butt"/><path d="M243.58788,134.97738c-0.06925,2.06175 -0.97653,3.70455 -2.02646,3.66929c-1.04994,-0.03526 -1.84493,-1.73523 -1.77568,-3.79698c0.06925,-2.06175 0.97653,-3.70454 2.02645,-3.66928c1.04994,0.03526 1.84494,1.73522 1.77569,3.79697z" fill="none" stroke="#191412" stroke-width="1.5" stroke-linecap="butt"/><path d="M248.50594,129.57773c-0.06925,2.06175 -0.97653,3.70455 -2.02645,3.66929c-1.04994,-0.03526 -1.84494,-1.73523 -1.77569,-3.79698c0.06925,-2.06175 0.97653,-3.70455 2.02646,-3.66929c1.04994,0.03526 1.84493,1.73522 1.77568,3.79698z" fill="none" stroke="#191412" stroke-width="1.5" stroke-linecap="butt"/><path d="M253.01442,135.24749c-0.06925,2.06175 -0.97652,3.70455 -2.02645,3.66929c-1.04994,-0.03526 -1.84494,-1.73523 -1.77569,-3.79698c0.06925,-2.06175 0.97653,-3.70454 2.02646,-3.66928c1.04994,0.03526 1.84493,1.73522 1.77568,3.79697z" fill="none" stroke="#191412" stroke-width="1.5" stroke-linecap="butt"/><path d="M248.09146,140.21383c-0.06925,2.06175 -0.97653,3.70455 -2.02645,3.66929c-1.04994,-0.03526 -1.84494,-1.73523 -1.77569,-3.79698c0.06925,-2.06175 0.97653,-3.70454 2.02646,-3.66928c1.04994,0.03526 1.84493,1.73522 1.77568,3.79697z" fill="none" stroke="#191412" stroke-width="1.5" stroke-linecap="butt"/><path d="M234.54668,124.83955c0,0 -1.49737,-1.78351 -1.89512,-2.88518c-0.48564,-1.34511 -0.80805,-4.60197 -0.80805,-4.60197" fill="none" stroke="#47341a" stroke-width="1.5" stroke-linecap="round"/><path d="M233.25,127.45871c0,0 -2.31957,-1.74612 -2.97408,-2.78033c-0.61883,-0.97782 -0.85192,-3.26525 -0.85192,-3.26525" fill="none" stroke="#47341a" stroke-width="1.5" stroke-linecap="round"/><path d="M236.63855,123.66507c0,0 -1.01833,-2.09217 -1.17609,-3.26265c-0.19262,-1.42913 0.10392,-4.69215 0.10392,-4.69215" fill="none" stroke="#47341a" stroke-width="1.5" stroke-linecap="round"/><path d="M250.71839,118.54709l0.00086,-3.42503l6.72837,0.22599l-0.31024,9.23724c0,0 -2.50868,-3.11236 -3.68999,-4.2236c-0.83868,-0.7889 -2.729,-1.81461 -2.729,-1.81461z" fill="url(#color-13)" stroke="url(#color-14)" stroke-width="1" stroke-linecap="butt"/><path d="M241.29804,150.88296c-9.00653,-0.30249 -16.04453,-8.38504 -15.71982,-18.05289c0.3247,-9.66785 7.88916,-17.25994 16.89566,-16.95746c9.00654,0.30249 16.04454,8.38503 15.71983,18.05288c-0.3247,9.66786 -7.88916,17.25995 -16.89567,16.95747z" fill="url(#color-15)" stroke="url(#color-16)" stroke-width="2.5" stroke-linecap="butt"/><path d="M231.62013,119.68259c-1.61431,1.32609 -5.10753,5.10939 -5.10753,5.10939l0.39963,-11.89884l8.66707,0.2911l-0.29492,4.40204c0,0 -2.51816,1.15487 -3.66424,2.09632z" data-paper-data="{&quot;index&quot;:null}" fill="url(#color-17)" stroke="url(#color-18)" stroke-width="1" stroke-linecap="butt"/></g></g></g></svg>