<svg version="1.1" xmlns="http://www.w3.org/2000/svg" xmlns:xlink="http://www.w3.org/1999/xlink" width="141.77084" height="203.12786" viewBox="0,0,141.77084,203.12786"><defs><linearGradient x1="314.85963" y1="49.99954" x2="281.09837" y2="127.59354" gradientUnits="userSpaceOnUse" id="color-1"><stop offset="0" stop-color="#4a4a4a" stop-opacity="0"/><stop offset="1" stop-color="#4a4a4a" stop-opacity="0.17647"/></linearGradient><linearGradient x1="322.2129" y1="49.29951" x2="280.4328" y2="130.72184" gradientUnits="userSpaceOnUse" id="color-2"><stop offset="0" stop-color="#292929" stop-opacity="0"/><stop offset="1" stop-color="#292929" stop-opacity="0.11373"/></linearGradient><linearGradient x1="324.33373" y1="57.33587" x2="279.36015" y2="128.77407" gradientUnits="userSpaceOnUse" id="color-3"><stop offset="0" stop-color="#383838" stop-opacity="0"/><stop offset="1" stop-color="#383838" stop-opacity="0.16471"/></linearGradient><radialGradient cx="298.51848" cy="91.92455" r="35.53768" gradientUnits="userSpaceOnUse" id="color-4"><stop offset="0" stop-color="#4a4a4a" stop-opacity="0"/><stop offset="1" stop-color="#4a4a4a" stop-opacity="0.15294"/></radialGradient><linearGradient x1="234.50531" y1="147.8915" x2="291.71804" y2="177.11565" gradientUnits="userSpaceOnUse" id="color-5"><stop offset="0" stop-color="#d0d0d0"/><stop offset="1" stop-color="#727272"/></linearGradient><linearGradient x1="262.48443" y1="120.95066" x2="296.37544" y2="138.26212" gradientUnits="userSpaceOnUse" id="color-6"><stop offset="0" stop-color="#d10000"/><stop offset="1" stop-color="#730000"/></linearGradient><linearGradient x1="281.07749" y1="126.38092" x2="277.78237" y2="132.83186" gradientUnits="userSpaceOnUse" id="color-7"><stop offset="0" stop-color="#348317"/><stop offset="1" stop-color="#3c5b0d"/></linearGradient><linearGradient x1="256.60919" y1="132.02358" x2="290.50019" y2="149.33504" gradientUnits="userSpaceOnUse" id="color-8"><stop offset="0" stop-color="#d10000"/><stop offset="1" stop-color="#730000"/></linearGradient><linearGradient x1="275.20226" y1="137.45383" x2="271.90714" y2="143.90477" gradientUnits="userSpaceOnUse" id="color-9"><stop offset="0" stop-color="#348317"/><stop offset="1" stop-color="#3c5b0d"/></linearGradient><radialGradient cx="231.55572" cy="201.68744" r="27.13216" gradientUnits="userSpaceOnUse" id="color-10"><stop offset="0" stop-color="#e88c52"/><stop offset="1" stop-color="#ba623d"/></radialGradient><linearGradient x1="242.27349" y1="190.72123" x2="242.27349" y2="244.98073" gradientUnits="userSpaceOnUse" id="color-11"><stop offset="0" stop-color="#348317"/><stop offset="1" stop-color="#3c5b0d"/></linearGradient><radialGradient cx="261.28017" cy="202.84645" r="27.13216" gradientUnits="userSpaceOnUse" id="color-12"><stop offset="0" stop-color="#e88c52"/><stop offset="1" stop-color="#ba623d"/></radialGradient><linearGradient x1="272.02022" y1="190.82574" x2="272.02022" y2="245.08524" gradientUnits="userSpaceOnUse" id="color-13"><stop offset="0" stop-color="#348317"/><stop offset="1" stop-color="#3c5b0d"/></linearGradient><linearGradient x1="242.5565" y1="179.70993" x2="242.5565" y2="191.78861" gradientUnits="userSpaceOnUse" id="color-14"><stop offset="0" stop-color="#348317"/><stop offset="1" stop-color="#3c5b0d"/></linearGradient><linearGradient x1="271.36135" y1="179.98948" x2="271.36135" y2="192.06815" gradientUnits="userSpaceOnUse" id="color-15"><stop offset="0" stop-color="#348317"/><stop offset="1" stop-color="#3c5b0d"/></linearGradient><linearGradient x1="186.226" y1="206.50508" x2="232.84013" y2="206.50508" gradientUnits="userSpaceOnUse" id="color-16"><stop offset="0" stop-color="#5d5d5d"/><stop offset="1" stop-color="#494949"/></linearGradient><linearGradient x1="209.53307" y1="168.71137" x2="209.53307" y2="244.29878" gradientUnits="userSpaceOnUse" id="color-17"><stop offset="0" stop-color="#348317"/><stop offset="1" stop-color="#3c5b0d"/></linearGradient><linearGradient x1="180.47601" y1="206.5356" x2="237.59013" y2="206.5356" gradientUnits="userSpaceOnUse" id="color-18"><stop offset="0" stop-color="#6c6c6c"/><stop offset="1" stop-color="#5c5c5c"/></linearGradient><linearGradient x1="209.03308" y1="190.78038" x2="209.03308" y2="222.29081" gradientUnits="userSpaceOnUse" id="color-19"><stop offset="0" stop-color="#348317"/><stop offset="1" stop-color="#3c5b0d"/></linearGradient><linearGradient x1="188.83301" y1="179.78592" x2="229.44713" y2="179.78592" gradientUnits="userSpaceOnUse" id="color-20"><stop offset="0" stop-color="#4687ff"/><stop offset="1" stop-color="#0067ff"/></linearGradient><linearGradient x1="209.14007" y1="172.35337" x2="209.14007" y2="187.21847" gradientUnits="userSpaceOnUse" id="color-21"><stop offset="0" stop-color="#348317"/><stop offset="1" stop-color="#3c5b0d"/></linearGradient><linearGradient x1="183.22601" y1="206.6296" x2="233.59013" y2="206.6296" gradientUnits="userSpaceOnUse" id="color-22"><stop offset="0" stop-color="#4687ff"/><stop offset="1" stop-color="#0067ff"/></linearGradient><linearGradient x1="208.40808" y1="199.19704" x2="208.40808" y2="214.06215" gradientUnits="userSpaceOnUse" id="color-23"><stop offset="0" stop-color="#348317"/><stop offset="1" stop-color="#3c5b0d"/></linearGradient><linearGradient x1="188.83301" y1="233.23383" x2="229.44713" y2="233.23383" gradientUnits="userSpaceOnUse" id="color-24"><stop offset="0" stop-color="#4687ff"/><stop offset="1" stop-color="#0067ff"/></linearGradient><linearGradient x1="209.14007" y1="225.80128" x2="209.14007" y2="240.66638" gradientUnits="userSpaceOnUse" id="color-25"><stop offset="0" stop-color="#348317"/><stop offset="1" stop-color="#3c5b0d"/></linearGradient></defs><g transform="translate(-180.476,-41.9594)"><g data-paper-data="{&quot;isPaintingLayer&quot;:true}" fill-rule="nonzero" stroke-linecap="butt" stroke-linejoin="miter" stroke-miterlimit="10" stroke-dasharray="" stroke-dashoffset="0" style="mix-blend-mode: normal"><path d="M264.25475,114.76348l-0.02002,-0.03038l0.01536,-0.07675c-0.01005,-0.41265 0.07064,-0.84516 0.25275,-1.2637l0.35612,-0.8185l0.19116,-0.26634l0.13152,-0.3023l0.23567,-0.32835l0.78971,-1.81503l0.30291,-1.0242l0.09225,-0.16911l0.03745,-0.1872l0.00951,-0.02185l0.00888,-0.08014l-0.03226,-0.34136l0.04757,-0.3654l0.00239,-1.75279l0.04183,-0.18662l-0.01739,-0.18394l0.09794,-0.75228l-0.03107,-0.27071l0.03875,-0.34937l-0.03226,-0.34136l0.21527,-1.65362l0.145,-0.40468l0.08362,-0.4181l0.08214,-0.18882l0.07894,-0.39473l0.13153,-0.30228l0.06404,-0.32017l0.04031,-0.09263l0.01653,-0.12691l0.14498,-0.40467l0.08362,-0.4181l1.35329,-3.1103l0.19116,-0.26634l0.13153,-0.30229l0.23567,-0.32837l0.29583,-0.6799l0.19115,-0.26634l0.13153,-0.30229l0.38987,-0.54321l0.4632,-0.70529l0.11861,-0.11585l0.07763,-0.15034l0.60619,-0.73471l0.40684,-0.6195l0.11861,-0.11585l0.07763,-0.15034l0.57887,-0.70159l0.45914,-0.74368l0.27315,-0.28269l0.2248,-0.32886l0.67583,-0.63525l0.6326,-0.82928l0.18625,-0.15695l0.14088,-0.2061l2.42382,-2.27823l1.30254,-1.5787l0.22514,-0.17484l0.18081,-0.22978l0.62074,-0.50665l0.49715,-0.54244l0.17105,-0.11844l0.13295,-0.16896l0.78191,-0.63819l0.11869,-0.05769l0.09506,-0.10043l0.4287,-0.28622l1.04419,-1.13934l0.08964,-0.06206l0.06387,-0.09343l2.99258,-2.81285l0.82707,-1.00241l0.96557,-1.52029l0.15816,-0.15943l0.10966,-0.20073l1.12646,-1.30079l0.76232,-1.43383l0.09291,-0.10986l0.05249,-0.13561l0.97249,-1.48082l1.05385,-1.70699l0.96636,-1.87143l2.46393,-5.6629l0.3977,-1.22187l0.2423,-1.21154l0.20735,-1.22263l0.01706,-0.04249l-0.00101,-0.04432l0.10767,-0.5384l0.05862,-0.76126l0.02319,-0.07683l-0.00727,-0.07685l0.09793,-0.75228l-0.03106,-0.27074l0.02068,-0.18645l-0.03057,-0.02223l-0.03104,-0.32838l-0.11835,-0.29328l0.07254,-0.19131l-0.04765,-0.50418l0.00948,-0.07285l-0.00029,-0.00428l-0.08531,-0.23096l-0.07017,-0.61132l0.03876,-0.34937l-0.01969,-0.20833l-0.12695,-0.40185l-0.0288,-0.41303l-0.09233,-0.39401l0.00054,-0.38751l0.02305,-0.10284l-0.16437,-0.40733l0.04733,-0.12481l-0.04689,-0.20012l0.00053,-0.38751l0.29951,-1.3362l0.56889,-0.42409l0.32565,-0.66011l1.19141,-0.47082l0.19966,-0.02444l0.02229,-0.01892l0.06677,0.00801l0.06638,-0.00813l0.53077,0.07981l0.5341,0.06412l0.05932,0.02511l0.06634,0.00999l0.01324,0.02373l3.57518,1.51403l1.18994,0.33286l1.02943,0.24849l0.1445,0.08275l0.16731,0.02008l0.7314,0.30973l0.35277,0.04237l0.26208,0.11099l0.28616,0.03436l0.28386,0.1202l0.22234,0.18099l0.26208,0.11099l0.49648,0.40412l0.15148,0.21488l0.20334,0.15557l0.23718,0.31669l0.16753,0.01605l0.16393,0.26167l0.23208,0.18891l0.00983,0.19724l0.25073,0.40023l0.13549,0.13148l0.16328,0.27767l0.21979,0.2237l0.28332,0.5077l0.06389,0.24137l0.12708,0.20281l0.06715,0.21256l0.16661,0.29856l0.06389,0.24137l0.12708,0.20281l0.1414,0.4476l0.01785,0.25591l0.08531,0.23096l0.01179,0.10267l0.04759,0.08527l0.06389,0.24137l0.12707,0.20281l0.1414,0.44761l0.01785,0.25592l0.08532,0.23095l0.13224,1.15202l0.41088,2.4358l-0.02093,0.34483l0.05019,0.33237l-0.04565,0.59288l0.08498,0.50376l-0.02093,0.34483l0.05018,0.33236l-0.0639,0.82995l-0.00077,0.56705l0.06276,0.90013l-0.0443,0.28761l0.02662,0.28145l-0.04757,0.3654l-0.0008,0.59026l-0.064,0.28552l0.00651,0.28533l-0.69491,3.47464l-0.05868,0.45079l-0.03536,0.09871l0.00232,0.10158l-0.26598,1.32993l-0.05868,0.4508l-0.145,0.40467l-0.08362,0.4181l-0.15339,0.3525l-0.07894,0.39473l-0.02605,0.05988l-0.00131,0.06351l-0.2142,0.87862l-0.01936,0.03989l-0.00216,0.04323l-0.20935,0.76446l-0.05052,0.65607l-0.07132,0.23635l-0.00502,0.24102l-0.21421,0.8786l-0.01935,0.03991l-0.00217,0.04323l-0.2302,0.84064l-0.1168,0.89726l-0.07154,0.19969l-0.01038,0.20712l-0.2302,0.84062l-0.1168,0.89726l-0.057,0.15907l-0.00342,0.1646l-0.17497,0.71769l-0.12233,0.93964l-0.03536,0.0987l0.00231,0.10159l-0.10768,0.5384l-0.03199,0.41543l0.30636,1.81607l0.2023,0.418l0.0651,0.31383l0.13266,0.27969l0.18412,0.92154l1.03636,3.2807l0.27853,0.57555l0.07297,0.35178l0.13912,0.31963l0.11084,0.65706l0.30021,0.95032l0.01786,0.25592l0.08531,0.23096l0.02017,0.17568l0.17209,0.3556l0.0869,0.41893l0.14503,0.39262l0.14034,1.22262l-0.01833,0.16529l0.03628,0.15488l-0.00073,0.54062l0.10277,0.6092l-0.01441,0.2375l0.0522,0.22279l-0.00105,0.77501l-0.02465,0.11001l0.01613,0.10687l-0.0639,0.82995l-0.00197,1.44189l-0.02465,0.11001l0.01614,0.10688l-0.0639,0.82995l-0.00091,0.66689l-0.02465,0.11001l0.01613,0.10687l-0.07228,0.9387l-0.05304,0.17574l0.00406,0.17823l-0.06558,0.32789l0.04299,0.61646l-0.04429,0.28762l0.02662,0.28144l-0.14351,1.10241l-0.07153,0.19967l-0.01038,0.20712l-0.20065,0.73271l-0.05554,1.0116l-0.10063,0.36096l-0.03203,0.36766l-0.36649,1.17315l-0.1806,1.06492l-0.06902,0.17196l-0.01288,0.18097l-0.70452,2.38226l-0.27724,1.01242l-0.10321,0.19857l-0.04347,0.21739l-1.56697,3.60141l-0.15467,0.21551l-0.0962,0.24856l-0.49806,0.7584l-0.11861,0.11585l-0.07764,0.15035l-0.43749,0.53024l-0.18276,0.42004l-0.06247,0.08703l-0.00013,0.08808l-0.38793,0.45259l-0.34978,0.48734l-0.08059,0.01477l-0.0693,0.08083l-0.13901,0.10363l-0.15785,0.21995l-0.33277,0.29817l-0.29472,0.34384l-0.22034,0.16426l-0.12971,0.15721l-0.27306,0.21205l-0.23002,0.26835l-0.36867,0.27483l-0.16561,0.15567l-0.35311,0.20539l-0.32334,0.2639l-1.90764,0.92717l-0.66124,0.49294l-0.44999,0.42296l-0.17934,0.10431l-0.05912,0.11983l-0.21752,0.08595l-0.04156,0.0608l-0.05315,0.04996l-0.04461,0.06214l-0.02671,0.0049l-1.01306,0.9522l-0.17934,0.10431l-0.05911,0.11982l-0.45824,0.18108l-0.1644,0.09563l-0.01681,0.03408l-0.13036,0.05153l-0.12387,0.07204l-0.03102,-0.01085l-0.17302,0.06838l-0.1644,0.09563l-0.01681,0.03407l-0.13036,0.05153l-0.12387,0.07205l-0.03102,-0.01085l-0.17302,0.06838l-0.43543,0.25327l-0.109,-0.03813l-0.18875,0.07458l-0.35507,0.04348l-0.16626,-0.025l-0.17056,0.04014l-0.99401,-0.03322l-0.28969,-0.09336l-0.01243,0.00152l-0.53076,-0.07983l-0.5341,-0.06412l-0.05932,-0.02511l-0.06635,-0.00997l-0.01324,-0.02373l-0.07607,-0.03222l-0.41039,-0.07191l-0.35023,-0.0117l-0.35438,-0.11424l-0.37366,-0.04486l-0.64802,-0.27442l-0.11442,-0.00384l-0.35438,-0.11424l-0.37366,-0.04486l-0.08031,-0.03401l-0.11442,-0.00384l-0.08644,-0.02786l-0.09337,0.01412l-0.63893,-0.07671l-0.26208,-0.11099l-0.28616,-0.03436l-0.50607,-0.21432l-0.11443,-0.00384l-0.08643,-0.02786l-0.09337,0.01413l-0.63893,-0.0767l-0.26207,-0.11099l-0.28616,-0.03436l-1.20845,-0.51175l-0.55341,-0.09696l-0.20672,-0.10132l-0.23153,-0.0278l-17.45686,-7.39269l-0.29034,-0.23633l-0.32804,-0.17478l-0.7091,-0.68803l-0.03496,-0.05944l-0.13002,-0.05506l-0.02655,0.00687l-0.05303,-0.04058l-0.05932,-0.02511l-0.41502,-0.33781l-0.42425,-0.32462l-0.03975,-0.05306l-0.05186,-0.04223l-0.00146,-0.02897l-0.11957,-0.15964l-0.4747,-1.17639l0.46634,-1.22981l-0.00023,-0.00454l0.00287,-0.00244l0.29074,-0.7667c-0.44514,-0.3986 -0.70898,-0.98666 -0.74956,-1.63146z" fill="url(#color-1)" stroke="none" stroke-width="0.5"/><path d="M263.35546,115.28218l-0.01918,-0.03482l0.02202,-0.08214c0.01941,-0.44972 0.13731,-0.91305 0.36268,-1.35222l0.44072,-0.85888l0.22392,-0.27284l0.16277,-0.31719l0.27605,-0.33637l0.97728,-1.90456l0.39881,-1.08731l0.11104,-0.17583l0.05372,-0.20031l0.01176,-0.02291l0.01537,-0.0864l-0.00956,-0.37414l0.07758,-0.39324l0.13065,-1.90627l0.05836,-0.19927l-0.00516,-0.20161l0.15971,-0.80959l-0.01344,-0.2972l0.06698,-0.3766l-0.00956,-0.37415l0.35108,-1.77963l0.18465,-0.42739l0.11999,-0.44738l0.10167,-0.19814l0.11329,-0.42238l0.16277,-0.31719l0.09189,-0.34261l0.04989,-0.09721l0.02694,-0.13658l0.18465,-0.42738l0.11999,-0.44738l1.67473,-3.26376l0.22392,-0.27284l0.16277,-0.31719l0.27606,-0.33637l0.3661,-0.71346l0.22391,-0.27284l0.16277,-0.31719l0.4567,-0.5565l0.54695,-0.72633l0.13531,-0.11555l0.09402,-0.15668l0.70204,-0.74571l0.48041,-0.63796l0.13531,-0.11555l0.09402,-0.15668l0.67039,-0.71208l0.54542,-0.76843l0.31283,-0.2834l0.26445,-0.33787l0.76926,-0.63137l0.7372,-0.84625l0.21067,-0.1543l0.16575,-0.21177l2.75889,-2.26438l1.50851,-1.60233l0.25357,-0.17032l0.2102,-0.234l0.70093,-0.49637l0.57136,-0.54619l0.19161,-0.11375l0.15453,-0.17205l0.88292,-0.62523l0.13115,-0.05229l0.10901,-0.10085l0.47943,-0.27354l1.20008,-1.14721l0.10041,-0.05961l0.07513,-0.09597l3.40628,-2.79572l0.95784,-1.01741l1.14384,-1.56848l0.18083,-0.15948l0.13195,-0.20866l1.29987,-1.31556l0.92013,-1.49238l0.1074,-0.11128l0.06605,-0.14286l1.14834,-1.52496l1.2519,-1.76377l1.17035,-1.95037l3.04916,-5.9423l0.51467,-1.29396l0.3477,-1.29642l0.31113,-1.31157l0.02134,-0.04471l0.00216,-0.04829l0.15451,-0.57612l0.11832,-0.82284l0.03042,-0.08152l-0.00215,-0.08423l0.15971,-0.80959l-0.01344,-0.2972l0.03576,-0.201l-0.03106,-0.02687l-0.0092,-0.35991l-0.10515,-0.32943l0.09156,-0.20168l-0.01413,-0.55259l0.01546,-0.0784l-0.00002,-0.00467l-0.07437,-0.25873l-0.03038,-0.67109l0.06698,-0.3766l-0.00584,-0.22832l-0.10641,-0.44828l-0.00062,-0.45179l-0.06993,-0.4367l0.02889,-0.42143l0.03218,-0.10984l-0.14602,-0.45754l0.05974,-0.13158l-0.03553,-0.2218l0.02888,-0.42144l0.418,-1.42697l0.63945,-0.41114l0.39654,-0.68929l1.30867,-0.40709l0.21534,-0.00901l0.02521,-0.01862l0.07082,0.01461l0.07158,-0.00299l0.56184,0.13361l0.56655,0.11684l0.06161,0.03255l0.07022,0.0167l0.01243,0.02696l3.71317,1.9619l1.24837,0.46693l1.08285,0.36103l0.1485,0.10273l0.17748,0.03658l0.75963,0.40136l0.37422,0.07716l0.27219,0.14382l0.30355,0.06258l0.29481,0.15577l0.22458,0.21646l0.27219,0.14382l0.50146,0.4833l0.14632,0.24706l0.20611,0.18715l0.23053,0.36537l0.17801,0.03223l0.15621,0.29906l0.23442,0.22593l-0.0039,0.21539l0.23893,0.4574l0.13531,0.15495l0.15435,0.31641l0.21873,0.2627l0.26592,0.5772l0.05069,0.26818l0.12109,0.23181l0.05629,0.2371l0.15638,0.33943l0.05069,0.26817l0.12109,0.23181l0.11852,0.49932l0.00039,0.27993l0.07437,0.25873l0.0051,0.11271l0.04466,0.09694l0.05069,0.26818l0.12109,0.23181l0.11851,0.49933l0.00039,0.27993l0.07437,0.25872l0.05724,1.26471l0.26144,2.68559l-0.04758,0.37322l0.02938,0.36594l-0.09216,0.64085l0.05407,0.55542l-0.04758,0.37322l0.02938,0.36594l-0.129,0.89711l-0.04226,0.6167l0.00134,0.98459l-0.0684,0.30894l0.00789,0.30848l-0.07758,0.39324l-0.04398,0.64195l-0.08932,0.30491l-0.01389,0.31093l-0.99719,3.71806l-0.09571,0.48515l-0.04504,0.10424l-0.00495,0.1107l-0.38167,1.42309l-0.09571,0.48515l-0.18465,0.42738l-0.11999,0.44738l-0.1898,0.3699l-0.11328,0.42237l-0.03224,0.06284l-0.00606,0.06897l-0.29332,0.93676l-0.02361,0.04169l-0.00547,0.04681l-0.27978,0.81303l-0.10198,0.70914l-0.09356,0.2508l-0.02298,0.26171l-0.29332,0.93676l-0.0236,0.04169l-0.00547,0.04681l-0.30765,0.89407l-0.1905,0.96564l-0.09111,0.21088l-0.02623,0.22437l-0.30765,0.89407l-0.1905,0.96564l-0.07259,0.168l-0.01569,0.17875l-0.2396,0.7652l-0.19951,1.01125l-0.04504,0.10424l-0.00495,0.1107l-0.15451,0.57612l-0.06457,0.44904l0.19492,2.00232l0.18581,0.47249l0.04669,0.34708l0.12143,0.31591l0.12957,1.01857l0.86868,3.6597l0.25585,0.65056l0.05235,0.38905l0.12544,0.35993l0.07053,0.72445l0.25163,1.0601l0.0004,0.27993l0.07437,0.25873l0.00873,0.19287l0.15808,0.40195l0.06232,0.46333l0.12642,0.43983l0.06075,1.34219l-0.03169,0.17816l0.02749,0.17167l-0.0403,0.58796l0.06538,0.67169l-0.03278,0.25706l0.03956,0.24694l-0.05778,0.84287l-0.03442,0.11749l0.00945,0.11766l-0.129,0.8971l-0.10748,1.56815l-0.03442,0.11749l0.00945,0.11766l-0.129,0.89711l-0.04971,0.72528l-0.03442,0.11749l0.00945,0.11766l-0.1459,1.01464l-0.06956,0.18647l-0.00867,0.1942l-0.09411,0.35086l0.00092,0.67431l-0.0684,0.30894l0.00789,0.30848l-0.23406,1.18642l-0.09111,0.21088l-0.02623,0.22437l-0.26816,0.77929l-0.13333,1.0954l-0.134,0.38376l-0.06112,0.39709l-0.47771,1.24373l-0.27099,1.14237l-0.08638,0.18097l-0.02702,0.19571l-0.92762,2.52907l-0.37053,1.07676l-0.12489,0.20688l-0.06239,0.23261l-1.93916,3.77911l-0.18117,0.22075l-0.12106,0.26187l-0.58811,0.78101l-0.13531,0.11555l-0.09402,0.15668l-0.50665,0.53817l-0.22616,0.44076l-0.07318,0.08917l-0.00657,0.09577l-0.44799,0.45809l-0.40973,0.49925l-0.08727,0.00895l-0.08002,0.08181l-0.15624,0.10046l-0.18491,0.22531l-0.37771,0.29499l-0.34035,0.34801l-0.24766,0.15924l-0.15023,0.15957l-0.30754,0.20658l-0.26565,0.27163l-0.41439,0.26642l-0.18851,0.15471l-0.39269,0.19227l-0.36511,0.25855l-2.10808,0.84033l-0.74325,0.47788l-0.5122,0.42038l-0.19945,0.09766l-0.07198,0.12511l-0.23891,0.07431l-0.04889,0.06247l-0.0605,0.04965l-0.05225,0.06366l-0.02894,0.00296l-1.15309,0.94642l-0.19945,0.09766l-0.07198,0.12511l-0.50334,0.15658l-0.18283,0.08952l-0.02048,0.03559l-0.14317,0.04454l-0.13774,0.06745l-0.03238,-0.01453l-0.19005,0.05913l-0.18283,0.08952l-0.02048,0.03559l-0.14317,0.04454l-0.13774,0.06745l-0.03238,-0.01453l-0.19005,0.05913l-0.48423,0.2371l-0.1138,-0.05106l-0.20732,0.0645l-0.38296,0.01602l-0.176,-0.04184l-0.18535,0.02863l-1.06071,-0.12374l-0.303,-0.12709l-0.0134,0.00056l-0.56184,-0.13361l-0.56654,-0.11683l-0.06161,-0.03255l-0.07023,-0.0167l-0.01243,-0.02696l-0.07901,-0.04174l-0.43366,-0.11439l-0.37375,-0.04359l-0.37069,-0.15548l-0.39637,-0.08172l-0.67302,-0.3556l-0.12211,-0.01425l-0.37069,-0.15548l-0.39637,-0.08172l-0.08341,-0.04407l-0.12211,-0.01425l-0.09041,-0.03792l-0.1009,0.00713l-0.67775,-0.13975l-0.27219,-0.14382l-0.30355,-0.06258l-0.52561,-0.27773l-0.12212,-0.01425l-0.09041,-0.03793l-0.1009,0.00713l-0.67775,-0.13975l-0.27219,-0.14382l-0.30355,-0.06258l-1.25509,-0.66315l-0.58479,-0.15425l-0.2137,-0.12843l-0.24559,-0.05063l-18.13062,-9.57956l-0.29327,-0.28265l-0.33808,-0.219l-0.70813,-0.81086l-0.03304,-0.06772l-0.13503,-0.07135l-0.0289,0.00513l-0.05375,-0.04882l-0.06161,-0.03255l-0.41919,-0.40401l-0.43003,-0.39047l-0.03863,-0.06122l-0.0524,-0.05051l0.00058,-0.03166l-0.11621,-0.18419l-0.42175,-1.32138l0.58865,-1.29653l0.0001,-0.00497l0.00325,-0.0024l0.367,-0.80832c-0.44697,-0.4728 -0.68618,-1.13566 -0.68246,-1.84059z" fill="url(#color-2)" stroke="none" stroke-width="0.5"/><path d="M265.15873,112.64018l-0.01446,-0.03439l0.02708,-0.07415c0.05624,-0.41646 0.2032,-0.83538 0.44578,-1.22068l0.47441,-0.75356l0.227,-0.2307l0.17521,-0.27832l0.27986,-0.28441l1.05198,-1.67103l0.45591,-0.97044l0.11603,-0.15211l0.06604,-0.18084l0.01266,-0.02011l0.02139,-0.0788l0.02342,-0.34912l0.10427,-0.35786l0.28239,-1.76025l0.07018,-0.17941l0.01262,-0.18813l0.21469,-0.73678l0.01327,-0.27793l0.09322,-0.3435l0.02341,-0.34911l0.47193,-1.61958l0.20456,-0.37855l0.14748,-0.40386l0.10943,-0.17384l0.13925,-0.38129l0.1752,-0.27831l0.11295,-0.30929l0.05369,-0.08529l0.03622,-0.12429l0.20455,-0.37856l0.14748,-0.40386l1.80274,-2.86355l0.227,-0.2307l0.1752,-0.27831l0.27986,-0.28441l0.39408,-0.62597l0.22699,-0.23071l0.1752,-0.27831l0.46298,-0.47053l0.55962,-0.61924l0.13294,-0.09351l0.09893,-0.13605l0.7023,-0.62121l0.49153,-0.54389l0.13294,-0.09351l0.09893,-0.13605l0.67062,-0.59321l0.56184,-0.65857l0.30874,-0.23132l0.26944,-0.28702l0.75358,-0.50787l0.74288,-0.71112l0.20478,-0.12178l0.16887,-0.17989l2.70268,-1.82144l1.50903,-1.33481l0.24516,-0.13225l0.21119,-0.19597l0.67987,-0.38931l0.56635,-0.4491l0.18397,-0.08599l0.15527,-0.1441l0.85641,-0.49039l0.12374,-0.03508l0.10777,-0.08257l0.45936,-0.2049l1.18955,-0.94326l0.09642,-0.04507l0.07654,-0.08153l3.33686,-2.24883l0.95818,-0.84756l1.17457,-1.34107l0.17808,-0.12967l0.13787,-0.1805l1.29473,-1.08959l0.96465,-1.2934l0.10719,-0.09244l0.07231,-0.1261l1.17492,-1.3001l1.28957,-1.51159l1.23144,-1.69365l3.28223,-5.21366l0.57898,-1.15075l0.42738,-1.17031l0.39544,-1.1882l0.02324,-0.03939l0.0061,-0.0447l0.18993,-0.52008l0.1782,-0.75339l0.03465,-0.07271l0.00527,-0.07859l0.21468,-0.73678l0.01328,-0.27793l0.04976,-0.18332l-0.02593,-0.02822l0.02251,-0.33582l-0.06732,-0.31743l0.10056,-0.17818l0.03459,-0.51565l0.0208,-0.07136l0.0004,-0.00435l-0.04541,-0.24845l0.02998,-0.6276l0.09322,-0.34349l0.01429,-0.21305l-0.05827,-0.42813l0.03822,-0.42044l-0.02611,-0.41359l0.06244,-0.38914l0.03868,-0.09889l-0.09351,-0.44084l0.06561,-0.11626l-0.01327,-0.21006l0.06243,-0.38915l0.50251,-1.28452l0.61667,-0.31638l0.41968,-0.60034l1.22476,-0.24334l0.19657,0.01389l0.02451,-0.0147l0.06313,0.02093l0.06534,0.00463l0.49935,0.18246l0.50507,0.16735l0.05322,0.03667l0.06242,0.0228l0.00899,0.02637l3.20758,2.20984l1.09492,0.56368l0.95353,0.448l0.1262,0.11096l0.15822,0.05241l0.6562,0.45208l0.33361,0.11052l0.23513,0.16198l0.2706,0.08966l0.25466,0.17546l0.18562,0.22465l0.23513,0.16198l0.41445,0.50162l0.11183,0.24504l0.17134,0.19548l0.17824,0.36383l0.15908,0.04839l0.11635,0.29444l0.19373,0.23449l-0.02202,0.20001l0.17797,0.45032l0.10973,0.15818l0.11318,0.3104l0.17631,0.26707l0.19224,0.56461l0.02308,0.25478l0.0902,0.22822l0.03083,0.22645l0.11304,0.33203l0.02308,0.25478l0.0902,0.22822l0.06491,0.47687l-0.02368,0.26051l0.04541,0.24845l-0.00504,0.1054l0.0323,0.09482l0.02308,0.25478l0.09019,0.22822l0.06491,0.47688l-0.02368,0.26051l0.04542,0.24844l-0.05649,1.18269l0.00722,2.52598l-0.07528,0.34234l-0.00469,0.34354l-0.13877,0.58675l0.0015,0.5224l-0.07528,0.34234l-0.00468,0.34352l-0.19427,0.82139l-0.09136,0.56945l-0.08328,0.91629l-0.08869,0.28036l-0.0193,0.28785l-0.10428,0.35787l-0.09509,0.59278l-0.10738,0.27446l-0.0393,0.28787l-1.22572,3.35641l-0.12865,0.44152l-0.04989,0.09235l-0.014,0.1025l-0.46914,1.28467l-0.12865,0.44152l-0.20456,0.37855l-0.14749,0.40387l-0.20432,0.32455l-0.13924,0.3813l-0.0347,0.05512l-0.01142,0.06355l-0.34707,0.84129l-0.02504,0.03634l-0.009,0.04301l-0.32415,0.72758l-0.15357,0.64929l-0.10658,0.22368l-0.04335,0.24112l-0.34707,0.84128l-0.02503,0.03635l-0.00901,0.04301l-0.35645,0.80006l-0.25606,0.87881l-0.10094,0.18681l-0.04312,0.20608l-0.35645,0.80006l-0.25606,0.87881l-0.08041,0.1488l-0.02961,0.1647l-0.2835,0.68722l-0.26817,0.9203l-0.04989,0.09235l-0.014,0.1025l-0.18993,0.52008l-0.09724,0.41115l0.00539,1.88331l0.1284,0.45887l0.01266,0.32778l0.0833,0.30653l0.03041,0.96117l0.47571,3.49521l0.17678,0.63184l0.0142,0.36743l0.08315,0.34789l0.00195,0.68139l0.1378,1.01245l-0.02368,0.26051l0.04541,0.24845l-0.00862,0.18037l0.10923,0.39037l0.01691,0.43757l0.07719,0.42233l-0.05995,1.25519l-0.0441,0.16249l0.01026,0.16257l-0.0871,0.54292l0.0018,0.63177l-0.05185,0.2358l0.01475,0.23386l-0.12486,0.7783l-0.04138,0.10577l-0.00151,0.11047l-0.19427,0.82138l-0.23231,1.44803l-0.04138,0.10577l-0.00151,0.11047l-0.19427,0.82139l-0.10744,0.66972l-0.04138,0.10577l-0.00151,0.11046l-0.21974,0.92903l-0.07925,0.16631l-0.02455,0.17982l-0.11567,0.31673l-0.05704,0.62754l-0.08869,0.28037l-0.01929,0.28784l-0.31462,1.07973l-0.10094,0.1868l-0.04312,0.20608l-0.31068,0.69735l-0.21522,1.00545l-0.15476,0.3432l-0.08966,0.36316l-0.54107,1.10784l-0.34443,1.03492l-0.09407,0.15945l-0.04136,0.17931l-1.06043,2.25726l-0.42927,0.96355l-0.13131,0.17957l-0.07669,0.20999l-2.08738,3.3157l-0.18365,0.18666l-0.13255,0.23116l-0.60173,0.66584l-0.13294,0.09351l-0.09893,0.13605l-0.50682,0.44832l-0.24345,0.38671l-0.07419,0.0754l-0.01419,0.08843l-0.44661,0.37987l-0.41537,0.42215l-0.08012,-0.00072l-0.07976,0.06784l-0.15067,0.07729l-0.18745,0.19051l-0.36873,0.23538l-0.33931,0.28861l-0.23885,0.12256l-0.15028,0.13293l-0.29735,0.16039l-0.26482,0.22525l-0.39963,0.20502l-0.18466,0.12446l-0.37352,0.13826l-0.35414,0.20279l-1.98876,0.56374l-0.71676,0.36773l-0.50176,0.33816l-0.18971,0.07023l-0.07618,0.10897l-0.22361,0.04443l-0.04981,0.05306l-0.05927,0.03994l-0.05296,0.05382l-0.02656,-0.00023l-1.12959,0.76126l-0.18971,0.07023l-0.07617,0.10896l-0.47106,0.09358l-0.17391,0.06438l-0.02167,0.03099l-0.13399,0.02663l-0.13102,0.0485l-0.02818,-0.01686l-0.17786,0.03533l-0.17391,0.06438l-0.02167,0.03099l-0.13399,0.02663l-0.13102,0.0485l-0.02818,-0.01686l-0.17786,0.03533l-0.4606,0.17049l-0.09908,-0.05929l-0.19402,0.03855l-0.34955,-0.02473l-0.15643,-0.05715l-0.17098,0.00745l-0.95376,-0.22492l-0.26459,-0.14962l-0.01224,-0.00086l-0.49935,-0.18246l-0.50507,-0.16735l-0.05322,-0.03667l-0.06243,-0.0228l-0.00899,-0.02637l-0.06825,-0.04703l-0.38447,-0.1513l-0.33604,-0.07924l-0.32367,-0.18304l-0.35335,-0.11707l-0.58138,-0.40054l-0.1098,-0.0259l-0.32367,-0.18304l-0.35335,-0.11707l-0.07205,-0.04963l-0.1098,-0.0259l-0.07895,-0.04465l-0.09235,-0.00381l-0.60422,-0.20018l-0.23513,-0.16198l-0.2706,-0.08966l-0.45405,-0.31281l-0.1098,-0.0259l-0.07895,-0.04465l-0.09235,-0.00381l-0.60422,-0.20018l-0.23513,-0.16198l-0.2706,-0.08966l-1.0842,-0.74696l-0.51845,-0.20404l-0.18327,-0.14163l-0.21895,-0.07253l-15.66194,-10.79016l-0.24238,-0.29335l-0.28858,-0.23877l-0.57423,-0.82778l-0.02422,-0.06645l-0.11665,-0.08035l-0.02672,0.00178l-0.04467,-0.05098l-0.05322,-0.03667l-0.34645,-0.41931l-0.35747,-0.40783l-0.02986,-0.06097l-0.0433,-0.05242l0.00324,-0.02939l-0.08984,-0.18342l-0.27004,-1.27318l0.64646,-1.14548l0.0005,-0.0046l0.00317,-0.00191l0.40303,-0.71415c-0.3658,-0.48618 -0.5264,-1.12774 -0.46251,-1.78327z" fill="url(#color-3)" stroke="none" stroke-width="0.5"/><path d="M266.73649,114.08818l-0.01668,-0.02947l0.01813,-0.07021c0.01286,-0.38338 0.10974,-0.77934 0.29859,-1.15581l0.36933,-0.73623l0.18901,-0.23472l0.1364,-0.27189l0.23301,-0.28937l0.81897,-1.63256l0.33164,-0.93043l0.09337,-0.15091l0.04422,-0.17121l0.00986,-0.01965l0.01241,-0.07378l-0.01125,-0.31869l0.06301,-0.33584l0.09583,-1.62559l0.04821,-0.17039l-0.00606,-0.17174l0.12973,-0.69143l-0.01394,-0.2531l0.05409,-0.32155l-0.01126,-0.31867l0.28516,-1.51988l0.15419,-0.366l0.09878,-0.38238l0.08519,-0.16985l0.09327,-0.36103l0.13639,-0.27189l0.07564,-0.29284l0.0418,-0.08331l0.02188,-0.11666l0.15417,-0.366l0.09879,-0.38238l1.40345,-2.79766l0.18901,-0.23472l0.1364,-0.27189l0.23301,-0.28937l0.30679,-0.61155l0.189,-0.23474l0.1364,-0.27189l0.38547,-0.4787l0.46115,-0.62433l0.11463,-0.0998l0.079,-0.13445l0.59348,-0.6424l0.40505,-0.54837l0.11463,-0.09981l0.079,-0.13443l0.5667,-0.61343l0.4595,-0.66019l0.26484,-0.24458l0.22309,-0.29054l0.65182,-0.54564l0.62267,-0.72841l0.17867,-0.13358l0.13981,-0.18209l2.33772,-1.95691l1.2752,-1.38034l0.21517,-0.14767l0.17759,-0.20148l0.59458,-0.42993l0.4835,-0.47108l0.16272,-0.09883l0.13058,-0.14813l0.74897,-0.54155l0.11158,-0.04585l0.09228,-0.08703l0.40723,-0.23787l1.01553,-0.98947l0.08527,-0.05178l0.06337,-0.08253l2.88627,-2.41612l0.80971,-0.87645l0.964,-1.34785l0.15313,-0.13767l0.11097,-0.17911l1.09938,-1.13392l0.77356,-1.28078l0.09081,-0.0959l0.05524,-0.1224l0.96822,-1.31083l1.0547,-1.51535l0.98349,-1.67351l2.55525,-5.09365l0.42888,-1.10767l0.28627,-1.1081l0.25491,-1.12066l0.01786,-0.03831l0.00145,-0.04117l0.12721,-0.49244l0.09427,-0.70229l0.0253,-0.06976l-0.00253,-0.07175l0.12973,-0.69142l-0.01394,-0.2531l0.02888,-0.17162l-0.02676,-0.02259l-0.01084,-0.30657l-0.09253,-0.27965l0.07654,-0.17276l-0.01663,-0.47072l0.01256,-0.06695l-0.00004,-0.004l-0.06565,-0.21972l-0.03148,-0.57152l0.05409,-0.32155l-0.00686,-0.19448l-0.09458,-0.38091l-0.00425,-0.38495l-0.06335,-0.3714l0.02119,-0.35938l0.02657,-0.09392l-0.1285,-0.3884l0.04994,-0.11271l-0.03218,-0.18864l0.02118,-0.35939l0.34524,-1.22005l0.54278,-0.35669l0.33299,-0.59129l1.11441,-0.35991l0.18385,-0.00981l0.02137,-0.01611l0.06061,0.01173l0.06112,-0.00327l0.48099,0.10824l0.48488,0.0939l0.0529,0.02711l0.06012,0.01354l0.01083,0.02286l3.18772,1.63468l1.07012,0.38541l0.92787,0.29682l0.12769,0.08606l0.15189,0.02941l0.65214,0.33441l0.32027,0.06201l0.23367,0.11984l0.25977,0.05029l0.2531,0.12978l0.19361,0.1822l0.23367,0.11984l0.43231,0.40682l0.12702,0.20906l0.1776,0.15741l0.19992,0.30902l0.15231,0.02568l0.1359,0.25325l0.20208,0.19017l-0.00154,0.18357l0.20785,0.38735l0.11685,0.13067l0.13445,0.26807l0.18898,0.22166l0.2319,0.48917l0.04552,0.228l0.10534,0.19632l0.05003,0.20147l0.13637,0.28766l0.04552,0.228l0.10534,0.19631l0.10536,0.42428l0.00264,0.23852l0.06565,0.21972l0.00529,0.096l0.03895,0.08215l0.04552,0.228l0.10533,0.19631l0.10536,0.42428l0.00264,0.23852l0.06567,0.21971l0.05934,1.07705l0.2455,2.28572l-0.03755,0.31848l0.02812,0.31151l-0.07341,0.54698l0.05078,0.4727l-0.03756,0.3185l0.02813,0.31149l-0.10278,0.76567l-0.031,0.52589l0.00928,0.83893l-0.05587,0.26391l0.00928,0.26278l-0.06301,0.33584l-0.03228,0.54744l-0.07377,0.2607l-0.00929,0.26506l-0.82098,3.17801l-0.07774,0.41434l-0.03761,0.08927l-0.00331,0.09437l-0.31423,1.21637l-0.07773,0.41433l-0.15418,0.366l-0.09878,0.38239l-0.15907,0.31708l-0.09327,0.36103l-0.02702,0.05385l-0.00461,0.05883l-0.24278,0.80112l-0.01982,0.03575l-0.0043,0.03996l-0.23225,0.69556l-0.08123,0.60526l-0.07783,0.21462l-0.01746,0.22321l-0.24277,0.8011l-0.01981,0.03576l-0.0043,0.03996l-0.25538,0.76488l-0.15473,0.82469l-0.07608,0.18061l-0.02056,0.19144l-0.25538,0.76488l-0.15473,0.82469l-0.06061,0.14387l-0.01193,0.15246l-0.19832,0.6544l-0.16204,0.86364l-0.03761,0.08927l-0.00331,0.09437l-0.12721,0.49243l-0.05143,0.38325l0.18304,1.70418l0.16261,0.40073l0.04275,0.29527l0.10634,0.26798l0.11909,0.8666l0.7722,3.10967l0.2239,0.55179l0.04793,0.33098l0.11011,0.30542l0.06623,0.61659l0.22369,0.90078l0.00265,0.23852l0.06565,0.21972l0.00905,0.16424l0.13834,0.34092l0.05707,0.39417l0.11162,0.3735l0.06299,1.14305l-0.02559,0.15213l0.02489,0.14601l-0.02955,0.50138l0.06141,0.57166l-0.02586,0.21936l0.03583,0.21l-0.04238,0.71876l-0.02843,0.10046l0.00904,0.10016l-0.10276,0.76566l-0.07883,1.33725l-0.02843,0.10046l0.00904,0.10016l-0.10276,0.76566l-0.03647,0.6185l-0.02843,0.10046l0.00904,0.10016l-0.11624,0.86602l-0.05787,0.15958l-0.00581,0.16557l-0.07749,0.29991l0.00636,0.57455l-0.05587,0.26391l0.00928,0.26277l-0.19011,1.01326l-0.07607,0.1806l-0.02056,0.19144l-0.2226,0.66667l-0.10483,0.93469l-0.11129,0.32833l-0.04892,0.33896l-0.39775,1.06452l-0.22202,0.97608l-0.07228,0.15506l-0.02145,0.16703l-0.7714,2.1642l-0.30757,0.92117l-0.10496,0.17753l-0.05136,0.19882l-1.62505,3.23939l-0.15291,0.1899l-0.10125,0.22433l-0.49587,0.67134l-0.11463,0.09981l-0.07901,0.13445l-0.4283,0.46361l-0.18953,0.37782l-0.06176,0.0767l-0.00483,0.08169l-0.37884,0.3948l-0.34584,0.42949l-0.07447,0.0085l-0.06768,0.07052l-0.13263,0.08716l-0.15608,0.19383l-0.32018,0.25512l-0.28782,0.29993l-0.21023,0.13815l-0.12699,0.13746l-0.26097,0.17908l-0.22463,0.2341l-0.35174,0.23115l-0.15972,0.1337l-0.33381,0.16776l-0.30971,0.22395l-1.79363,0.73705l-0.63087,0.41458l-0.434,0.36331l-0.16955,0.08521l-0.06045,0.10733l-0.20346,0.06572l-0.04125,0.05372l-0.05126,0.04292l-0.0441,0.05477l-0.02468,0.00282l-0.97706,0.81788l-0.16954,0.08521l-0.06045,0.10732l-0.42862,0.13844l-0.15543,0.07811l-0.0172,0.03053l-0.12191,0.03937l-0.1171,0.05883l-0.02778,-0.01205l-0.16182,0.05227l-0.15543,0.07811l-0.0172,0.03053l-0.12191,0.03937l-0.1171,0.05883l-0.02778,-0.01205l-0.16182,0.05227l-0.41163,0.20686l-0.09762,-0.04239l-0.17655,0.05702l-0.32695,0.01746l-0.15067,-0.0339l-0.15808,0.02624l-0.90701,-0.09487l-0.25986,-0.10527l-0.01145,0.00062l-0.48098,-0.10824l-0.48486,-0.09389l-0.05289,-0.02712l-0.06013,-0.01354l-0.01083,-0.02286l-0.06783,-0.03479l-0.37137,-0.09313l-0.31957,-0.03341l-0.31789,-0.12879l-0.33922,-0.0657l-0.57778,-0.29629l-0.10442,-0.01091l-0.31788,-0.12879l-0.33921,-0.06569l-0.0716,-0.03672l-0.10442,-0.01091l-0.07755,-0.0314l-0.08612,0.00708l-0.58005,-0.11232l-0.23367,-0.11984l-0.25977,-0.05029l-0.45123,-0.2314l-0.10443,-0.01092l-0.07755,-0.0314l-0.08612,0.00708l-0.58004,-0.11232l-0.23367,-0.11984l-0.25977,-0.05029l-1.07749,-0.55254l-0.50077,-0.1256l-0.18359,-0.1073l-0.21019,-0.04069l-15.56495,-7.98174l-0.25282,-0.23791l-0.29057,-0.18325l-0.61154,-0.68384l-0.02877,-0.05739l-0.11592,-0.05946l-0.02464,0.00467l-0.04631,-0.04105l-0.0529,-0.02711l-0.36138,-0.34007l-0.37053,-0.32842l-0.0335,-0.05178l-0.04518,-0.04251l0.00023,-0.02697l-0.10078,-0.15578l-0.37114,-1.12171l0.49206,-1.1106l0.00004,-0.00422l0.00275,-0.00208l0.30677,-0.69241c-0.38568,-0.39839 -0.59547,-0.96082 -0.59811,-1.5615z" fill="url(#color-4)" stroke="none" stroke-width="0.5"/><path d="M214.54531,186.96762c0,0 18.88478,-18.19982 27.46741,-30.26738c8.49872,-11.94957 23.7791,-41.7875 23.7791,-41.7875l33.7322,16.91854c0,0 -16.07374,29.22186 -20.78051,43.52233c-4.54272,13.80201 -6.98547,40.83816 -6.98547,40.83816z" fill="url(#color-5)" stroke="none" stroke-width="0"/><path d="M260.83687,124.17613l3.29513,-6.45094l33.89101,17.31146l-3.29513,6.45094z" fill="url(#color-6)" stroke="url(#color-7)" stroke-width="0"/><path d="M254.96163,135.24904l3.29513,-6.45094l33.891,17.31146l-3.29513,6.45094z" fill="url(#color-8)" stroke="url(#color-9)" stroke-width="0"/><path d="M260.08259,217.85098c0,14.98335 0.01372,26.93128 -17.8091,27.12975c-16.49564,0.18369 -17.8091,-12.1464 -17.8091,-27.12975c0,-14.98335 2.64508,-26.92288 17.8091,-27.12975c15.82517,-0.21589 17.8091,12.1464 17.8091,27.12975z" fill="url(#color-10)" stroke="url(#color-11)" stroke-width="0"/><path d="M289.82932,217.95549c0,14.98335 0.01372,26.93128 -17.8091,27.12975c-16.49563,0.18369 -17.8091,-12.1464 -17.8091,-27.12975c0,-14.98335 2.64508,-26.92288 17.8091,-27.12975c15.82517,-0.2159 17.8091,12.1464 17.8091,27.12975z" fill="url(#color-12)" stroke="url(#color-13)" stroke-width="0"/><path d="M240.51671,191.78861v-12.07868h4.07958v12.07868z" fill="#312d29" stroke="url(#color-14)" stroke-width="0"/><path d="M269.32156,192.06815v-12.07868h4.07958v12.07868z" fill="#312d29" stroke="url(#color-15)" stroke-width="0"/><path d="M238.91774,184.49552v-3.56521h35.48265v3.56521z" fill="#36322e" stroke="none" stroke-width="0"/><path d="M186.226,244.29878v-75.58741h46.61412v75.58741z" fill="url(#color-16)" stroke="url(#color-17)" stroke-width="0"/><path d="M180.47601,222.29081v-31.51043h57.11412v31.51043z" fill="url(#color-18)" stroke="url(#color-19)" stroke-width="0"/><path d="M188.83301,187.21847v-14.86511h40.61412v14.86511z" fill="url(#color-20)" stroke="url(#color-21)" stroke-width="0"/><path d="M183.22601,214.06215v-14.86511h50.36412v14.86511z" fill="url(#color-22)" stroke="url(#color-23)" stroke-width="0"/><path d="M188.83301,240.66638v-14.86511h40.61412v14.86511z" fill="url(#color-24)" stroke="url(#color-25)" stroke-width="0"/></g></g></svg>