<svg version="1.1" xmlns="http://www.w3.org/2000/svg" xmlns:xlink="http://www.w3.org/1999/xlink" width="26.98292" height="26.98292" viewBox="0,0,26.98292,26.98292"><defs><radialGradient cx="239.99999" cy="180" r="13.49146" gradientUnits="userSpaceOnUse" id="color-1"><stop offset="0" stop-color="#525887" stop-opacity="0.35417"/><stop offset="1" stop-color="#525887" stop-opacity="0"/></radialGradient><radialGradient cx="239.99999" cy="180" r="10.95311" gradientUnits="userSpaceOnUse" id="color-2"><stop offset="0" stop-color="#7e90eb" stop-opacity="0.67834"/><stop offset="1" stop-color="#7e90eb" stop-opacity="0"/></radialGradient><radialGradient cx="239.99999" cy="180" r="9.27271" gradientUnits="userSpaceOnUse" id="color-3"><stop offset="0" stop-color="#9bc8ff"/><stop offset="1" stop-color="#9bc8ff" stop-opacity="0"/></radialGradient><radialGradient cx="239.99999" cy="180" r="7.62499" gradientUnits="userSpaceOnUse" id="color-4"><stop offset="0" stop-color="#1b76ff"/><stop offset="1" stop-color="#4a89ff"/></radialGradient></defs><g transform="translate(-226.50854,-166.50854)"><g data-paper-data="{&quot;isPaintingLayer&quot;:true}" fill-rule="nonzero" stroke="none" stroke-width="0.5" stroke-linecap="butt" stroke-linejoin="miter" stroke-miterlimit="10" stroke-dasharray="" stroke-dashoffset="0" style="mix-blend-mode: normal"><path d="M226.50854,180c0,-7.45111 6.04033,-13.49146 13.49146,-13.49146c7.45111,0 13.49146,6.04033 13.49146,13.49146c0,7.45111 -6.04033,13.49146 -13.49146,13.49146c-7.45111,0 -13.49146,-6.04033 -13.49146,-13.49146z" fill="url(#color-1)"/><path d="M229.04688,180c0,-6.04921 4.90387,-10.95311 10.95311,-10.95311c6.04921,0 10.95311,4.90387 10.95311,10.95311c0,6.04921 -4.90387,10.95311 -10.95311,10.95311c-6.04921,0 -10.95311,-4.90387 -10.95311,-10.95311z" fill="url(#color-2)"/><path d="M230.72728,180c0,-5.12116 4.15153,-9.27271 9.27271,-9.27271c5.12116,0 9.27271,4.15153 9.27271,9.27271c0,5.12116 -4.15153,9.27271 -9.27271,9.27271c-5.12116,0 -9.27271,-4.15153 -9.27271,-9.27271z" fill="url(#color-3)"/><path d="M232.37501,180c0,-4.21115 3.41382,-7.62499 7.62499,-7.62499c4.21115,0 7.62499,3.41382 7.62499,7.62499c0,4.21115 -3.41382,7.62499 -7.62499,7.62499c-4.21115,0 -7.62499,-3.41382 -7.62499,-7.62499z" data-paper-data="{&quot;index&quot;:null}" fill="url(#color-4)"/></g></g></svg>