<svg version="1.1" xmlns="http://www.w3.org/2000/svg" xmlns:xlink="http://www.w3.org/1999/xlink" width="84.5" height="38.32609" viewBox="0,0,84.5,38.32609"><defs><linearGradient x1="240" y1="161.58695" x2="240" y2="198.4131" gradientUnits="userSpaceOnUse" id="color-1"><stop offset="0" stop-color="#4b8455"/><stop offset="1" stop-color="#72b235"/></linearGradient><linearGradient x1="240" y1="161.58695" x2="240" y2="198.4131" gradientUnits="userSpaceOnUse" id="color-2"><stop offset="0" stop-color="#246037"/><stop offset="1" stop-color="#a0ff67"/></linearGradient></defs><g transform="translate(-197.75,-160.83701)"><g data-paper-data="{&quot;isPaintingLayer&quot;:true}" fill-rule="nonzero" stroke-linejoin="miter" stroke-miterlimit="10" stroke-dasharray="" stroke-dashoffset="0" style="mix-blend-mode: normal"><path d="M198.5,198.4131v-36.82609h83v36.82609z" fill="url(#color-1)" stroke="url(#color-2)" stroke-width="1.5" stroke-linecap="butt"/><path d="M250.67599,193.60658h26.43355" fill="none" stroke="#ffffff" stroke-width="3" stroke-linecap="round"/><g fill="none" stroke="#e05757" stroke-width="0.75" stroke-linecap="round"><path d="M251.07906,173.43773v14.22822"/><path d="M252.37819,184.31137l-1.29913,4.20915l-1.29913,-4.20915"/></g><g fill="none" stroke="#e05757" stroke-width="0.75" stroke-linecap="round"><path d="M255.28213,187.66595v-14.22822"/><path d="M256.58125,184.31137l-1.29913,4.20915l-1.29913,-4.20915"/></g><g fill="none" stroke="#e05757" stroke-width="0.75" stroke-linecap="round"><path d="M259.56162,187.79095v-14.35321"/><path d="M260.86073,184.31138l-1.29913,4.20915l-1.29913,-4.20915"/></g><g fill="none" stroke="#e05757" stroke-width="0.75" stroke-linecap="round"><path d="M263.76468,173.43774v14.35321"/><path d="M265.06381,184.31138l-1.29913,4.20915l-1.29913,-4.20915"/></g><g fill="none" stroke="#e05757" stroke-width="0.75" stroke-linecap="round"><path d="M268.03262,173.43773v14.22822"/><path d="M269.33175,184.31137l-1.29913,4.20915l-1.29913,-4.20915"/></g><g fill="none" stroke="#e05757" stroke-width="0.75" stroke-linecap="round"><path d="M272.23569,173.43773v14.22822"/><path d="M273.53482,184.31137l-1.29913,4.20915l-1.29913,-4.20915"/></g><g fill="none" stroke="#e05757" stroke-width="0.75" stroke-linecap="round"><path d="M276.51517,173.60441v14.35321"/><path d="M277.8143,184.47805l-1.29913,4.20915l-1.29913,-4.20915"/></g><text transform="translate(201.08,170.56881) scale(0.21667,0.21667)" font-size="40" xml:space="preserve" fill="#ffffff" fill-rule="nonzero" stroke="none" stroke-width="1" stroke-linecap="butt" stroke-linejoin="miter" stroke-miterlimit="10" stroke-dasharray="" stroke-dashoffset="0" font-family="Serif" font-weight="normal" text-anchor="start" style="mix-blend-mode: normal"><tspan x="0" dy="0">Gas Regions B</tspan></text></g></g></svg>