<svg version="1.1" xmlns="http://www.w3.org/2000/svg" xmlns:xlink="http://www.w3.org/1999/xlink" width="169.62504" height="100.85233" viewBox="0,0,169.62504,100.85233"><defs><radialGradient cx="231.48074" cy="189.13486" r="34.955" gradientUnits="userSpaceOnUse" id="color-1"><stop offset="0" stop-color="#33266a"/><stop offset="1" stop-color="#949074"/></radialGradient><linearGradient x1="266.40287" y1="180.3179" x2="258.83498" y2="187.75383" gradientUnits="userSpaceOnUse" id="color-2"><stop offset="0" stop-color="#694444"/><stop offset="1" stop-color="#98a1b9"/></linearGradient><radialGradient cx="283.68227" cy="148.98334" r="20.31544" gradientUnits="userSpaceOnUse" id="color-3"><stop offset="0" stop-color="#dcdcdc"/><stop offset="1" stop-color="#a0a0a0"/></radialGradient><radialGradient cx="276.61312" cy="144.74918" r="15.59586" gradientUnits="userSpaceOnUse" id="color-4"><stop offset="0" stop-color="#1c2f30"/><stop offset="1" stop-color="#142913"/></radialGradient><radialGradient cx="300.39625" cy="155.03778" r="4.10509" gradientUnits="userSpaceOnUse" id="color-5"><stop offset="0" stop-color="#786c41"/><stop offset="1" stop-color="#141a29"/></radialGradient><radialGradient cx="284.24535" cy="148.06154" r="6.46263" gradientUnits="userSpaceOnUse" id="color-6"><stop offset="0" stop-color="#7ba676"/><stop offset="1" stop-color="#291616"/></radialGradient><radialGradient cx="283.04418" cy="163.18803" r="15.25953" gradientUnits="userSpaceOnUse" id="color-7"><stop offset="0" stop-color="#d1ffc4"/><stop offset="1" stop-color="#2188ff"/></radialGradient><radialGradient cx="283.04418" cy="163.18803" r="15.25953" gradientUnits="userSpaceOnUse" id="color-8"><stop offset="0" stop-color="#ceffc4"/><stop offset="1" stop-color="#ff21cc"/></radialGradient><radialGradient cx="283.04418" cy="163.18803" r="15.25953" gradientUnits="userSpaceOnUse" id="color-9"><stop offset="0" stop-color="#ffe9c4"/><stop offset="1" stop-color="#4fff21"/></radialGradient><radialGradient cx="283.04418" cy="163.18803" r="15.25953" gradientUnits="userSpaceOnUse" id="color-10"><stop offset="0" stop-color="#ffe9c4"/><stop offset="1" stop-color="#4fff21"/></radialGradient><radialGradient cx="283.04417" cy="163.18803" r="15.25953" gradientUnits="userSpaceOnUse" id="color-11"><stop offset="0" stop-color="#ffe9c4"/><stop offset="1" stop-color="#ffa321"/></radialGradient><radialGradient cx="283.04414" cy="163.18802" r="15.25953" gradientUnits="userSpaceOnUse" id="color-12"><stop offset="0" stop-color="#c4f0ff"/><stop offset="1" stop-color="#3d21ff"/></radialGradient></defs><g transform="translate(-152.87704,-143.67081)"><g data-paper-data="{&quot;isPaintingLayer&quot;:true}" fill-rule="nonzero" stroke-linejoin="miter" stroke-miterlimit="10" stroke-dasharray="" stroke-dashoffset="0" style="mix-blend-mode: normal"><path d="M191.61501,176.10165l67.38526,-18.61805l12.34597,44.68461l-67.38526,18.61805z" fill="url(#color-1)" stroke="#ed6b00" stroke-width="0" stroke-linecap="butt"/><path d="M254.68,183.52527l7.5679,-7.43598l8.30989,8.45724l-7.5679,7.43598z" fill="url(#color-2)" stroke="#000000" stroke-width="0" stroke-linecap="butt"/><g><path d="M173.60631,171.17567c0,0 35.15531,18.98624 41.66972,21.41602c2.13012,0.79445 4.81723,-3.17123 4.81723,-3.17123c0,0 8.05794,-0.41837 5.03986,4.32184c-2.5508,4.00626 -11.0205,11.01528 -11.0205,11.01528l-47.1626,-23.12741z" data-paper-data="{&quot;index&quot;:null}" fill="#4a433c" stroke="#000000" stroke-width="0" stroke-linecap="butt"/><path d="M153.00953,183.32654c0.49296,-0.77445 2.18145,-3.46549 4.00014,-6.08969c1.10592,-1.59556 2.38908,-1.97088 3.35207,-3.0714c1.21234,-1.38528 2.15613,-4.02211 3.1126,-4.97217c1.76261,-1.75076 2.99122,-2.45501 2.99122,-2.45501c0,0 1.56339,0.5014 2.30908,0.94594c1.00475,0.599 3.17746,2.32477 3.17746,2.32477c0,0 -4.77947,7.85156 -6.96664,10.70894c-1.29421,1.69074 -4.37201,5.00171 -4.37201,5.00171c0,0 -2.01836,1.39497 -2.75413,1.31854c-0.90122,-0.09328 -3.3239,-0.51348 -3.3239,-0.51348c0,0 -2.21362,-2.11752 -1.5259,-3.1977z" data-paper-data="{&quot;index&quot;:null}" fill="#140d0d" stroke="#000000" stroke-width="0" stroke-linecap="butt"/><path d="M156.59822,185.11416c0.20645,-0.32424 -2.67636,-0.41466 0.43612,-4.52878c2.93925,-3.88531 3.86142,-2.63858 4.8854,-4.01444c2.14097,-2.87669 1.37492,-3.87519 2.40624,-5.05394c0.35923,-0.41055 0.57597,-0.57447 2.75183,-1.52409c1.4964,-0.65317 2.84134,0.58707 4.16068,0.326c1.92718,-0.38143 3.13595,0.51243 3.13595,0.51243l4.04482,2.43515c0,0 -3.28728,-1.20023 -5.06199,-0.78982c-1.58792,0.36705 -1.9025,3.04226 -2.30462,3.67426c-0.70416,1.1066 4.84216,1.81823 4.14473,2.86091c-0.3749,0.5607 -2.79055,5.05784 -2.79055,5.05784c0,0 -4.77887,-2.81683 -4.99887,-2.52929c-1.29421,1.69074 -4.67466,5.47681 -4.67466,5.47681c0,0 -2.01836,1.39497 -2.75402,1.31862c-0.90122,-0.09328 -4.38953,-1.63703 -4.38953,-1.63703c0,0 0.3207,-0.50399 1.00849,-1.58408z" data-paper-data="{&quot;index&quot;:null}" fill="#1f261f" stroke="#000000" stroke-width="0" stroke-linecap="butt"/><path d="M165.85722,182.19257l0.79319,-4.39261" fill="none" stroke="#ffb5b5" stroke-width="0.5" stroke-linecap="round"/><path d="M164.34408,184.56863l0.21723,-4.53681" fill="none" stroke="#bffdff" stroke-width="0.5" stroke-linecap="round"/><path d="M162.42919,182.68144l0.6905,3.11091" fill="none" stroke="#eaffc1" stroke-width="0.5" stroke-linecap="round"/><path d="M171.22902,182.49636l1.49859,-3.05294" fill="none" stroke="#8d967b" stroke-width="0.5" stroke-linecap="round"/><path d="M171.21544,179.37082l-1.13842,2.83706" fill="none" stroke="#767796" stroke-width="0.5" stroke-linecap="round"/></g><g data-paper-data="{&quot;index&quot;:null}" stroke="#000000" stroke-width="0" stroke-linecap="butt"><path d="M289.73258,178.08264c0,0 -4.37222,-2.59941 -10.2034,-3.42321c-1.40229,-0.19814 -5.90382,-1.20209 -7.34725,-1.38959c-3.41608,-0.44385 -6.82842,-0.74691 -8.91259,-1.07694c-0.76587,-0.12127 -1.5464,-2.04184 -3.2983,-0.08282c-2.03993,2.2811 -4.33572,4.95432 -12.71969,3.26887c-4.66662,-2.80847 -1.49197,-7.7385 7.00778,-13.30362c4.23395,-2.77213 12.22464,-1.03716 13.80924,-0.78621c1.93956,0.30721 3.16007,1.67275 6.13703,2.28151c1.33458,0.27303 6.8284,2.36171 10.24743,3.4552c5.69243,1.82053 9.35292,2.22191 9.35292,2.22191z" fill="#b8bda6"/><path d="M301.32481,171.75839c-0.17473,0.39346 5.8764,2.02163 5.24002,3.72861c-0.31299,0.8396 -3.87532,-1.24669 -5.58451,-0.52618c-0.90489,0.3814 6.9948,1.60703 5.48323,3.5785c-0.51887,0.67678 -5.75074,-1.73027 -7.31976,-1.36262c-0.83987,0.19692 8.29058,2.6921 7.35102,4.03909c-0.55784,0.79954 -5.20824,-1.7355 -7.63371,-1.88651c-1.1817,-0.07342 5.85134,2.79581 4.97686,3.69809c-0.53527,0.55223 -7.55913,-1.8262 -7.66305,-1.78029c-0.58408,0.25773 3.19123,3.12188 1.99129,3.29075c-2.21136,0.31132 -3.84795,-2.27818 -5.47744,-4.43299c-0.95209,-1.25923 -2.79393,-1.96212 -2.79393,-1.96212c0,0 0.31654,-3.39979 1.00793,-4.88973c0.673,-1.45081 3.08662,-3.93525 3.08662,-3.93525c0,0 7.70542,1.60744 7.33522,2.44062z" data-paper-data="{&quot;index&quot;:null}" fill="#786274"/></g><g><path d="M166.16799,220.47468l43.28951,-29.75227c0,0 9.40068,5.70016 12.50785,9.29197c3.67667,4.24994 -4.35633,5.01024 -4.35633,5.01024c0,0 -3.23623,-3.53196 -5.22794,-2.43551c-6.09067,3.35306 -38.10456,27.25878 -38.10456,27.25878z" fill="#413a4a" stroke="#000000" stroke-width="0" stroke-linecap="butt"/><path d="M175.86564,243.65397c0,0 -2.66315,1.51406 -3.50092,0.54555c-0.60064,-0.69418 -2.69491,-3.08289 -4.68812,-5.57761c-1.21175,-1.51661 -1.20376,-2.8537 -1.98199,-4.09159c-0.97999,-1.55849 -3.23545,-3.21824 -3.87165,-4.40692c-1.17231,-2.19023 -1.49489,-3.56912 -1.49489,-3.56912c0,0 0.92823,-1.35409 1.56782,-1.94128c0.86182,-0.79117 3.13772,-2.3779 3.13772,-2.3779c0,0 6.15256,6.82889 8.26351,9.74321c1.24906,1.7245 3.53912,5.62177 3.53912,5.62177c0,0 0.75803,2.33332 0.47401,3.01646c-0.34777,0.8366 -1.44458,3.03745 -1.44458,3.03745z" data-paper-data="{&quot;index&quot;:null}" fill="#12140d" stroke="#000000" stroke-width="0" stroke-linecap="butt"/><path d="M176.33438,242.69372c0,0 -0.39083,-0.4517 -1.22869,-1.42014c-0.25165,-0.29073 -1.16421,2.44545 -4.21405,-1.71576c-2.88007,-3.92956 -1.42131,-4.45569 -2.4461,-5.83084c-2.14254,-2.87533 -3.31866,-2.42785 -4.15243,-3.75348c-0.2904,-0.46173 -0.38513,-0.71659 -0.67159,-3.07332c-0.19694,-1.62071 1.37668,-2.55399 1.50451,-3.89282c0.18697,-1.95566 1.38951,-2.85767 1.38951,-2.85767l3.49202,-3.17737c0,0 -2.0919,2.80546 -2.20742,4.62341c-0.10335,1.62654 2.36935,2.69446 2.85965,3.26076c0.85835,0.99172 3.12955,-4.11787 3.92863,-3.1511c0.4297,0.51991 4.04607,4.12296 4.04607,4.12296c0,0 -4.06809,3.77119 -3.85567,4.06453c1.24911,1.7244 3.90757,6.04782 3.90757,6.04782c0,0 0.75803,2.33332 0.47401,3.01646c-0.34777,0.8366 -2.82638,3.73628 -2.82638,3.73628z" data-paper-data="{&quot;index&quot;:null}" fill="#1e1e26" stroke="#000000" stroke-width="0" stroke-linecap="butt"/><path d="M170.97877,229.54717l3.98101,2.01861" fill="none" stroke="#c1ffce" stroke-width="0.5" stroke-linecap="round"/><path d="M176.80259,233.69607l-4.28423,-1.50807" fill="none" stroke="#eaffc1" stroke-width="0.5" stroke-linecap="round"/><path d="M174.44588,234.99004l3.1785,0.22989" fill="none" stroke="#ffb5b5" stroke-width="0.5" stroke-linecap="round"/><path d="M174.29473,224.1957l2.49546,2.31047" fill="none" stroke="#7d967f" stroke-width="0.5" stroke-linecap="round"/><path d="M173.79204,225.62365l2.3917,1.90363" fill="none" stroke="#966262" stroke-width="0.5" stroke-linecap="round"/></g><path d="M207.48449,182.00893c0,0 8.42826,-1.77839 16.34132,-4.52652c5.37685,-1.8673 9.96059,-4.655 13.65701,-5.80168c6.93791,-2.15233 20.06306,-5.20292 20.06306,-5.20292c0,0 2.22803,5.34251 2.32584,8.15145c0.12465,3.57574 -1.63872,11.56289 -1.63872,11.56289c0,0 4.60916,4.74105 5.93434,7.46865c1.39814,2.87808 2.24714,9.37268 2.24714,9.37268c0,0 -13.89673,3.26144 -19.13013,4.27962c-4.63046,0.90082 -9.90859,0.98622 -16.79548,2.18889c-7.0981,1.23938 -15.7381,3.58267 -15.7381,3.58267c0,0 0.15112,-4.43002 -0.77393,-8.69132c-0.4201,-1.93522 -2.16825,-2.32848 -2.84853,-4.08718c-0.54391,-1.4057 -0.04001,-4.19113 -0.32257,-5.59655c-0.21352,-1.06234 0.05236,-3.26957 -0.12198,-4.01495c-0.35187,-1.50493 -1.89221,-2.11563 -2.55457,-3.79987c-0.76957,-1.95628 -0.6444,-4.88566 -0.6444,-4.88566z" fill="#d1b0b0" stroke="#292e32" stroke-width="0" stroke-linecap="butt"/><g stroke="none" stroke-width="0" stroke-linecap="butt"><path d="M247.00744,193.28973l8.71526,-2.3075l2.24166,11.62978l-7.84712,1.90372z" fill="#f200ff"/><path d="M255.7227,190.98222l1.1764,6.10315c-0.83005,0.74335 -1.52692,1.61812 -2.06548,2.58251c-0.04106,-0.56827 -0.13142,-1.1408 -0.27412,-1.71254c-0.59074,-2.36688 -1.97959,-4.32429 -3.80803,-5.65691z" fill="#eeff00"/><path d="M248.84542,199.92461c3.28995,-0.67 6.07854,-3.02825 7.42614,-6.09493l1.47026,7.62771c-1.61899,-0.45595 -3.37517,-0.50912 -5.12395,-0.07266c-1.09775,0.27398 -2.10741,0.71964 -3.00751,1.3012z" fill="#00ff5f"/><path d="M249.63275,202.76676l-2.22275,-8.02381c1.27127,1.93947 3.17643,3.36313 5.3523,4.05291c-0.73592,1.29193 -1.18619,2.7482 -1.28958,4.26684c-0.59806,-0.15477 -1.21376,-0.25486 -1.83997,-0.29595z" fill="#004fff"/><path d="M247.00743,193.28971l8.71527,-2.30751l0.55582,2.8836c-1.61592,-0.45309 -3.3681,-0.50502 -5.1129,-0.06955c-1.32512,0.33073 -2.5219,0.91163 -3.55254,1.67976z" fill="#ff0000"/><path d="M254.79787,203.38018l-4.68063,1.13552l-1.15644,-4.17458c0.70593,0.10495 1.42975,0.1348 2.16069,0.08312c0.97787,1.27154 2.24422,2.28142 3.67637,2.95594z" fill="#00efff"/><path d="M257.96437,202.61199l-7.84713,1.90371l-0.07802,-0.28163c3.43458,-0.94246 5.97204,-3.57914 6.93161,-6.7765z" fill="#9c00ff"/></g><g data-paper-data="{&quot;index&quot;:null}" stroke="#000000" stroke-width="0" stroke-linecap="butt"><path d="M311.39383,198.6599c0,0 -3.20796,0.44474 -8.16667,2.18807c-2.97832,1.04713 -7.75569,3.02123 -8.92212,3.29476c-2.60186,0.60991 -5.58445,1.64149 -7.28186,1.96023c-0.8613,0.16172 -7.9408,1.59623 -15.26865,2.44298c-8.73753,1.00964 -16.3225,-4.72543 -12.64579,-10.97877c5.82064,-6.19728 13.00728,1.24552 13.00728,1.24552c0,0 8.40177,-1.47367 12.32468,-2.21014c1.82396,-0.34244 4.84998,-0.45997 7.84201,-0.93592c1.26423,-0.20109 5.19647,-1.19667 6.42431,-1.40604c5.10569,-0.87061 8.88422,-3.26555 8.88422,-3.26555z" fill="#b8bda6"/><path d="M317.94093,196.51975c0.34637,0.7232 -6.38737,2.32972 -6.38737,2.32972c0,0 -2.18425,-2.12358 -2.81231,-3.38215c-0.64522,-1.29249 -1.00882,-4.27343 -1.00882,-4.27343c0,0 1.60157,-0.66414 2.40698,-1.79508c1.37845,-1.93526 2.75224,-4.25284 4.70412,-4.03466c1.05916,0.11834 -2.18797,2.73104 -1.66801,2.94295c0.0925,0.03775 6.20773,-2.22948 6.69214,-1.75744c0.79143,0.77127 -5.31951,3.47021 -4.2825,3.376c2.12852,-0.19362 6.15319,-2.53898 6.66368,-1.85006c0.85982,1.16059 -7.10442,3.58336 -6.36114,3.73539c1.3886,0.28385 5.92768,-1.96359 6.40084,-1.38163c1.37836,1.69524 -5.53575,2.971 -4.73065,3.28358c1.52069,0.59051 4.60006,-1.333 4.89628,-0.60274c0.60229,1.48466 -4.67658,3.06793 -4.51309,3.40945z" data-paper-data="{&quot;index&quot;:null}" fill="#786274"/></g><g><path d="M296.60494,177.00196c-6.75508,9.88462 -19.56713,12.8845 -28.61681,6.70017c-9.04976,-6.18433 -10.91006,-19.21082 -4.15489,-29.09564c6.75508,-9.88462 19.56713,-12.8845 28.61688,-6.70012c9.04976,6.18433 10.91006,19.21082 4.15489,29.09564z" fill="url(#color-3)" stroke="none" stroke-width="0" stroke-linecap="butt"/><path d="M280.04482,147.11218c-0.23069,-0.12864 -0.82995,-0.45051 -1.50522,-0.75886c-0.84853,-0.19074 -1.81124,-0.45421 -2.60851,-0.56765c-1.14958,0.88884 -0.57251,2.99801 -2.9992,2.59319c-4.13874,-0.69086 -0.41331,-4.10669 1.50569,-4.66724c2.59155,-0.30455 5.10228,1.1622 7.43401,2.17484c3.21175,1.39494 6.55235,2.44568 9.47642,4.1925c0.1809,-0.03816 0.37566,-0.01342 0.5496,0.08376l0.7956,0.44463c0.4456,0.15877 0.92671,0.33561 1.42461,0.53254c1.35982,0.41553 2.8327,1.15489 4.16964,1.89532c0.69874,0.30002 1.31484,0.63779 1.76281,1.00692c0.36784,0.21336 0.7102,0.41168 1.0191,0.58406l0.83872,0.46855c0.38197,0.21346 0.51865,0.69592 0.30525,1.07814c-0.19005,0.34 -0.59319,0.48565 -0.94887,0.36328l-0.50685,-0.16332c0.07885,0.28245 0.12537,0.57564 0.13515,0.87953l0.40351,0.05212l-0.13081,1.00835c-0.01101,0.10315 -0.04245,0.20598 -0.09623,0.30239c-0.21346,0.38197 -0.69592,0.51865 -1.07814,0.30525c-0.11614,-0.06482 -0.20993,-0.15475 -0.27764,-0.25902l-0.47454,-0.69717l0.02056,-0.01392l-0.0579,-0.04658c-0.26739,-0.60244 -0.59097,-1.14017 -0.96167,-1.60766c-0.69786,-0.51447 -1.39678,-1.10698 -2.12106,-1.69371c-1.44982,-0.66341 -3.17323,-0.66337 -4.94695,0.12886c0,0 -0.72413,0.32143 -1.04567,-0.40265c-0.32143,-0.72413 0.40265,-1.04567 0.40265,-1.04567c0.15449,-0.06818 0.30922,-0.13169 0.46387,-0.19008l-0.44215,-0.13237c-0.05979,-0.01663 -0.11896,-0.0406 -0.17565,-0.07217c-0.38197,-0.21346 -0.51865,-0.69592 -0.30525,-1.07814c0.10803,-0.19339 0.28489,-0.32388 0.48298,-0.37794c-0.31385,-0.21362 -0.62146,-0.39867 -0.91562,-0.50861c-2.05469,-0.76773 -4.85426,-2.46952 -7.66956,-3.81961c-0.19635,0.31816 -0.58615,0.45166 -0.93113,0.33286l-0.91858,-0.29625l0.0096,-0.02971l-0.01127,-0.00406z" fill="url(#color-4)" stroke="none" stroke-width="0.5" stroke-linecap="butt"/><path d="M302.60382,155.53013c3.71192,2.00369 3.64649,2.03516 2.32211,4.56294c-1.32427,2.52774 -3.93719,3.61518 -5.83581,2.42891c-1.89857,-1.1864 -2.36389,-4.19755 -1.03951,-6.7253c1.32427,-2.52774 1.07247,-2.14542 4.55335,-0.26657z" data-paper-data="{&quot;index&quot;:null}" fill="url(#color-5)" stroke="#000000" stroke-width="0" stroke-linecap="butt"/><path d="M291.79715,153.1737c-1.28284,2.85868 -4.93802,4.00246 -8.16398,2.55449c-3.22603,-1.44767 -4.80131,-4.93874 -3.5184,-7.79725c1.28284,-2.85868 1.24792,-2.94859 7.22234,0.05608c5.60246,2.81748 5.74271,2.32789 4.45995,5.18661z" fill="url(#color-6)" stroke="#000000" stroke-width="0" stroke-linecap="butt"/><path d="M280.55569,182.41607c-15.65929,-5.76818 -13.40675,-15.10402 -11.1352,-20.44012c2.27163,-5.33599 13.23679,-5.93074 20.9879,-2.63107c7.75111,3.29967 12.714,11.59308 10.44241,16.92907c0,0 -3.03964,12.68364 -20.29507,6.142z" data-paper-data="{&quot;index&quot;:null}" fill="url(#color-7)" stroke="#ed6b00" stroke-width="0" stroke-linecap="butt"/><path d="M280.55569,182.41607c-12.47853,-4.59654 -13.58282,-11.45858 -12.3671,-16.75684c0.55993,3.26019 2.72419,6.17293 6.00228,7.54301c5.09568,2.12977 10.95305,-0.27458 13.08282,-5.37026c1.41918,-3.39552 0.82508,-7.12927 -1.23703,-9.87294c1.51422,0.33568 2.99377,0.7992 4.37172,1.38581c2.36261,1.00577 4.46618,2.4755 6.18476,4.18402c-0.16186,3.58142 1.62533,7.0592 4.76441,8.97868c0.1351,1.3393 -0.01916,2.62095 -0.50677,3.76636c0,0 -0.12308,0.51357 -0.46031,1.28074c-0.73029,-0.5961 -1.55783,-1.09815 -2.47199,-1.48022c-5.09568,-2.12977 -10.95305,0.27458 -13.08282,5.37026c-0.29289,0.70075 -0.50001,1.4159 -0.62619,2.13378c-1.14083,-0.28798 -2.35716,-0.67097 -3.65376,-1.16254z" data-paper-data="{&quot;index&quot;:null}" fill="url(#color-8)" stroke="#ed6b00" stroke-width="0" stroke-linecap="butt"/><path d="M290.40839,159.34488c2.63974,1.12373 4.9561,2.82668 6.77342,4.79474c-0.79905,0.81079 -1.47095,1.7714 -1.96878,2.86252c-0.74507,-2.94763 -2.82017,-5.52055 -5.84126,-6.78323c-5.09567,-2.12977 -10.95305,0.27459 -13.08282,5.37026c-1.42781,3.4162 -0.81778,7.17477 1.27487,9.92294c-1.806,0.45727 -3.47114,1.41386 -4.78018,2.78142c-1.39852,-1.1034 -2.44206,-2.25589 -3.20228,-3.42717c1.87457,-1.05431 3.42449,-2.7186 4.31811,-4.85671c1.58228,-3.78574 0.66194,-7.99193 -2.00533,-10.7776c4.26498,-2.67006 12.3921,-2.49334 18.5142,0.11285z" data-paper-data="{&quot;index&quot;:null}" fill="url(#color-9)" stroke="#ed6b00" stroke-width="0" stroke-linecap="butt"/><path d="M294.61097,173.60168c0.63196,2.50018 2.22082,4.73077 4.53218,6.1209c-1.5315,2.10128 -4.31235,4.41177 -9.17313,4.56c-0.17519,-1.86667 -0.87374,-3.65188 -2.00734,-5.1406c2.84743,-0.72096 5.34474,-2.68314 6.64829,-5.54032z" data-paper-data="{&quot;index&quot;:null}" fill="url(#color-10)" stroke="#ed6b00" stroke-width="0" stroke-linecap="butt"/><path d="M281.51064,174.84543c0.08743,-0.12389 -0.06257,-0.93981 -0.08023,-1.18213c-0.21533,-2.95649 -0.03613,-5.96278 -0.60211,-8.87257c-0.05345,-0.27488 -1.04174,-0.52387 -1.45362,-0.7288c-2.52231,-1.25494 -4.89969,-2.84746 -7.55532,-3.78802c-0.34002,-0.12043 -0.72478,-0.14793 -1.14238,-0.09821c1.58855,-1.53932 4.16618,-2.44082 7.12486,-2.74776c0.71639,3.00172 2.8078,5.63175 5.87312,6.91291c3.95682,1.65378 8.37292,0.57365 11.14638,-2.37755c3.12062,2.44761 5.36165,5.68961 6.20943,8.80741c-1.01561,-1.28074 -2.36014,-2.32999 -3.97495,-3.0049c-5.09568,-2.12977 -10.95305,0.27458 -13.08282,5.37026c-0.52837,1.26419 -0.77768,2.57525 -0.77605,3.86465c-1.50044,-0.10163 -2.98804,0.14034 -4.35611,0.68208c1.17455,-1.04221 2.11965,-2.0578 2.66981,-2.83736z" data-paper-data="{&quot;index&quot;:null}" fill="url(#color-11)" stroke="#ed6b00" stroke-width="0" stroke-linecap="butt"/><path d="M280.55567,182.41606c-15.65929,-5.76818 -13.40675,-15.10402 -11.1352,-20.44012c0.09875,-0.23195 0.21391,-0.45493 0.34454,-0.66906c-0.67029,1.73416 -0.81391,3.80562 -0.72206,5.36055c0.00949,0.16071 0.02267,0.32227 0.03942,0.48461c-0.65234,4.15762 1.39436,8.37399 5.2106,10.38481c2.44601,2.62816 5.48525,4.63255 8.54124,5.23899c5.27036,1.04585 9.8854,2.27992 13.08282,-5.37026c1.29544,-3.09944 0.03661,-6.89372 -1.23902,-10.00137c-0.7436,-1.81153 -3.64543,-1.79559 -4.81406,-3.36686c-0.06947,-2.01875 -0.75212,-3.9696 -1.93893,-5.58692c0.85319,0.25625 1.68533,0.55469 2.48337,0.89442c2.86831,1.22104 5.35479,3.12592 7.23416,5.31172c-0.0603,0.12873 -0.11815,0.25933 -0.17349,0.39172c-1.79787,4.30155 -0.3647,9.14589 3.19095,11.83249c-0.21401,0.59568 -0.62951,1.5646 -1.35101,2.60821c-2.94173,0.34593 -5.65715,1.99239 -7.29495,4.58994c-2.85582,0.49768 -6.59167,0.18197 -11.45833,-1.663z" data-paper-data="{&quot;index&quot;:null}" fill="url(#color-12)" stroke="#ed6b00" stroke-width="0" stroke-linecap="butt"/><path d="M302.12868,166.76712c0,0 -2.76029,-1.69245 -3.49521,-2.75642c-0.6528,-0.94523 -0.69689,-3.31423 -0.69689,-3.31423" data-paper-data="{&quot;index&quot;:null}" fill="none" stroke="#191412" stroke-width="1.5" stroke-linecap="round"/><path d="M281.35087,155.06867c0,0 -1.21889,1.7505 -2.27413,2.08053c-1.18792,0.37148 -4.50262,0.03948 -4.50262,0.03948" data-paper-data="{&quot;index&quot;:null}" fill="none" stroke="#191412" stroke-width="1.5" stroke-linecap="round"/></g></g></g></svg>