<svg version="1.1" xmlns="http://www.w3.org/2000/svg" xmlns:xlink="http://www.w3.org/1999/xlink" width="1096.32417" height="131.72579" viewBox="0,0,1096.32417,131.72579"><defs><linearGradient x1="270.10959" y1="189.75923" x2="270.10959" y2="328.3089" gradientUnits="userSpaceOnUse" id="color-1"><stop offset="0" stop-color="#5b5b5b"/><stop offset="1" stop-color="#404040"/></linearGradient><linearGradient x1="810.60959" y1="189.75923" x2="810.60959" y2="328.3089" gradientUnits="userSpaceOnUse" id="color-2"><stop offset="0" stop-color="#5b5b5b"/><stop offset="1" stop-color="#404040"/></linearGradient></defs><g transform="translate(7.80247,-189.75916)"><g data-paper-data="{&quot;isPaintingLayer&quot;:true}" fill-rule="nonzero" stroke="none" stroke-width="0.5" stroke-linecap="butt" stroke-linejoin="miter" stroke-miterlimit="10" stroke-dasharray="" stroke-dashoffset="0" style="mix-blend-mode: normal"><path d="M-7.41953,218.16886c-0.85295,-2.87558 -0.02287,-6.47702 0.0336,-9.48188c3.28239,-0.0358 6.65732,-0.40812 9.79059,-1.125c2.47565,-0.56643 6.45921,-1.37532 9.16411,-0.78937c1.68457,0.36491 3.03997,1.27682 4.69952,1.69347c6.0078,1.50835 16.11049,2.59286 21.94258,0.58135c4.40693,-0.44424 8.60125,-1.51596 12.93668,-2.1045c5.14197,-0.69803 10.95495,0.69728 16.00185,-0.15728c2.09251,-0.35431 5.24994,-1.23297 7.19017,-1.87846c1.39876,-0.46535 2.31274,-1.51669 3.75844,-1.90662c0.63709,-0.17183 1.47689,0.17877 2.04666,-0.08349c0.63873,-0.294 0.60778,-1.0058 1.1446,-1.38571c0.93978,-0.66507 2.41685,-0.81075 3.59887,-1.25116c0.2183,-0.37202 0.18173,-0.88572 0.65505,-1.11632c0.38477,-0.18746 0.94196,0.188 1.39992,0.11494c0.65357,-0.10426 1.15088,-0.5072 1.79945,-0.62559c2.06503,-0.37694 4.72798,0.3769 6.67119,0.63805c2.46535,0.33133 4.72751,1.51335 7.11518,1.8649c0.9069,0.13353 1.86519,-0.08833 2.78116,0.01089c1.56678,0.16974 2.87101,0.97513 4.41069,1.23871c1.63669,0.28019 4.00594,0.02366 5.70195,0.02366c3.29871,0 6.59801,-0.00076 9.89672,-0.00076c2.59665,-0.0156 4.24036,-0.84543 6.60197,-1.27562c1.06247,-0.19354 2.19673,0.02379 3.29508,0.02379c2.99882,0 5.99841,-0.00083 8.99723,-0.00083c1.49942,0 3.00288,0.07209 4.49866,-0.00044c0.36854,-0.01787 0.8715,-0.26156 1.16389,-0.10459c0.40351,0.21661 0.2164,0.71361 0.51451,1.00111c0.09022,0.087 3.7814,2.64961 3.90447,2.71378c0.48049,0.2505 1.20735,0.23394 1.63408,0.52774c0.54427,0.37474 0.41303,1.07631 1.06972,1.35053c1.16721,0.4874 4.70377,0.13946 6.10797,0.13946c1.79487,0 3.60477,0.04093 5.39853,-0.00063c0.42875,-0.00993 0.90712,-0.21523 1.28305,-0.07157c0.65605,0.2507 0.92099,0.83919 1.52658,1.14515c1.14006,0.576 2.71065,0.5394 4.07795,0.77701c0.65054,0.11305 1.14726,0.51676 1.79939,0.62528c5.00179,0.83238 10.4236,-1.22017 15.01753,-1.87859c3.95603,-0.56699 8.93225,0.03369 13.02275,0.0161c4.04856,0.71257 9.86276,1.28926 13.9736,0.60515c1.84901,-0.30771 3.95276,-1.12375 5.91709,-1.19579c3.4013,-0.12473 6.88323,1.29577 10.14628,1.71768c5.06122,0.65441 10.76501,-0.68972 15.71803,0.09893c1.30587,0.20793 2.57127,0.63418 3.91077,0.65011c2.60683,0 6.97346,0.22596 8.95179,1.60396c0.53966,0.37591 0.48541,1.10887 1.14047,1.38218c1.51411,0.63174 4.23818,-0.44978 5.59466,0.0686c0.65605,0.2507 0.93333,0.82869 1.52772,1.14508c2.52446,1.34379 6.1926,3.43756 9.48258,3.90471c4.21054,0.59786 9.49449,0.027 13.8138,0.027c0.83626,-0.0467 1.80726,0.17872 2.51014,-0.13967c3.03754,-1.37592 2.29629,-5.34499 4.74303,-7.01367c0.54683,-0.37294 1.56875,-0.3522 1.99369,-0.79528c0.28965,-0.30202 -0.52141,-0.79789 -0.19414,-1.08074c0.25271,-0.21842 0.76373,0.31553 1.15572,0.24985c1.63027,-0.27313 3.11457,-0.86725 4.67811,-1.28864c2.95497,-0.7964 5.56807,-0.23546 8.67617,-0.56753c2.68987,-0.28739 4.0335,-1.47755 6.44422,-1.89345c2.19788,-0.37918 3.43033,0.05748 5.69282,-0.69855c3.29383,-1.14481 6.12028,-1.19033 9.62023,-1.80369c2.0595,-0.36092 3.89623,-0.89457 6.06641,-1.20424c1.30944,-0.18685 2.49842,0.18526 3.81591,-0.04271c1.90879,-0.33029 3.50923,-1.56054 5.39842,-1.87574c0.58321,-0.0973 1.21894,0.10457 1.79962,0.00023c3.18105,-0.57155 5.83619,-2.57081 8.99721,-3.12631c1.06281,-0.18677 2.19281,0.02548 3.28906,0.02548c2.04196,0 4.92295,-0.36967 6.88811,-0.02433c2.32553,0.40867 3.27344,1.67714 6.01902,1.25162c2.95799,-0.45844 5.41079,-2.09052 7.67638,-3.27863c0.5915,-0.31019 1.36708,-0.32219 1.89327,-0.68481c0.4762,-0.32817 0.42564,-0.921 0.8998,-1.25059c0.47416,-0.3296 1.32998,-0.29246 1.79922,-0.62543c0.40448,-0.28701 0.2525,-0.92393 0.72583,-1.15454c0.38477,-0.18746 0.94208,0.18822 1.40005,0.11515c0.95378,-0.15215 1.94522,-1.0351 2.77228,-0.67153c2.2394,0.98442 2.6197,1.92325 5.60517,1.92325c2.07272,0.7204 3.36945,0.25558 5.39847,0.62595c0.64857,0.11839 1.14743,0.5171 1.79956,0.62563c1.69695,0.2824 3.73622,-0.30295 5.3983,0.00044c0.64857,0.11839 1.1474,0.5171 1.79953,0.62562c2.7558,0.45861 6.46581,0.02582 9.30715,0.02582c1.70902,0 4.05566,0.25033 5.70827,-0.02469c0.65213,-0.10853 1.14877,-0.5123 1.7993,-0.62535c2.45193,-0.4261 4.85562,-0.43654 7.19741,-1.25046c2.60226,0 2.28555,1.02997 4.5719,1.8304c0.4791,0.16773 1.15993,-0.27538 1.60633,-0.0686c0.481,0.2228 0.25059,0.8293 0.65507,1.11632c0.46925,0.33297 1.3253,0.29599 1.79946,0.62559c0.47416,0.3296 0.41458,0.92931 0.89985,1.25101c0.61148,0.40537 1.45791,0.6021 2.2373,0.82899c1.47173,0.42844 3.14281,0.39628 4.68925,0.66944c2.09426,0.36993 4.04519,0.96111 6.25305,1.23296c0.47719,0.05876 1.05069,-0.29403 1.44676,-0.09991c0.55177,0.27043 0.33124,1.0193 0.91343,1.25693c0.41044,0.16752 3.59745,0.1446 4.3082,0.14034c2.26869,-0.0136 5.08375,0.30675 7.14291,0.9765c1.03993,1.6188 1.47066,2.82911 4.24319,3.37726c1.08781,0.21507 2.37862,-0.39481 3.39228,-0.04617c2.20714,0.75913 3.22198,3.68241 4.96059,4.80062c1.86505,1.19953 4.38826,0.80214 6.60303,1.42418c4.72335,1.3266 12.25021,2.40676 17.15294,0.70276c3.81497,0.06428 6.43422,-0.53102 9.08371,-2.50679c0.23189,0.04713 0.50231,0.03032 0.50231,0.03032l0.89966,0.00003c0.00012,0 0.00022,-0.00001 0.00034,-0.00001c0.00131,-0.00001 0.00661,-0.00004 0.01546,-0.00024c1.20065,-0.01758 3.59329,0.24626 4.38765,1.00665c0.58889,0.5637 0.38571,1.45907 1.10528,1.94399c0.39254,0.26453 1.2298,-0.35344 1.63414,-0.09765c0.34331,0.21718 -0.4944,0.656 -0.29248,0.94654c0.4127,0.5938 1.38556,0.91118 1.9514,1.44052c1.10052,1.02952 3.02937,3.41963 3.38023,4.67077c0.18535,0.66092 -0.29724,1.39585 0.06672,2.01988c0.35646,0.61115 1.30094,0.96043 1.95137,1.44051c0.62108,0.83698 0.39737,1.86484 0.67842,2.78611c0.50706,1.66211 2.28211,3.21869 2.6832,4.9467c0.25517,1.09932 -0.21899,2.24887 0.09758,3.34045c0.48155,1.66044 2.16083,3.26013 2.62029,4.85591c0.46452,1.61338 -0.03599,3.76412 -0.03599,5.41364c0,4.81439 0.00013,9.63113 0.00013,14.44552c0,6.24031 0.18585,12.42683 -0.88973,18.58962c-0.82304,4.71582 1.13401,9.76169 -0.03748,14.43882c-0.43438,1.73422 -0.90004,3.0363 -0.83681,4.84969c-1.44929,2.01487 -0.49593,3.81915 -1.05318,5.96738c-0.47436,1.82866 -2.13548,3.5178 -2.56467,5.35629c-0.25116,1.07587 0.87905,3.60655 -0.52208,4.49057c-0.56725,0.35789 -1.57756,0.34831 -1.99308,0.79568c-0.39866,0.42921 0.00634,1.03188 -0.16554,1.52861c-0.38002,1.09818 -1.51263,1.26326 -2.48049,2.16889c-0.75798,0.70924 -0.80558,1.73227 -1.65895,2.38705c-0.81374,0.62438 -2.72101,0.35403 -3.5441,0.35079c-2.65032,-0.01042 -527.50416,2.58181 -529.02371,1.52554c-1.35691,-0.94322 -0.36603,-3.95209 -0.51183,-5.06179c-0.30524,-2.3233 -1.07708,-4.88864 -1.89319,-7.14395c-1.37146,-2.79907 -0.46217,-5.58558 -0.80614,-8.48903c-0.39764,-3.35648 -2.2961,-6.62171 -2.69742,-9.99242c-0.49356,-4.1454 0.4889,-8.37781 -0.00235,-12.5244c-0.17636,-1.48864 -0.90102,-2.83068 -0.89475,-4.34639c-0.0036,-2.6119 -0.44887,-5.00554 -0.90828,-7.55969c-0.48421,-2.69207 0.69412,-5.60178 -0.05617,-8.27405c-0.17132,-0.61017 -0.67381,-1.1597 -0.85081,-1.76909c-0.42579,-1.46593 0.01746,-3.36069 0.01746,-4.85346c0,-4.60049 1.18305,-10.16632 -0.9168,-14.53601c0.05861,-3.70151 0.0178,-7.40633 0.0178,-11.10809c0,-1.78301 0.56477,-4.10074 -0.03586,-5.84472c-0.15612,-0.45331 -0.76418,-0.79438 -0.89959,-1.2509z" data-paper-data="{&quot;noHover&quot;:false,&quot;origItem&quot;:[&quot;Path&quot;,{&quot;applyMatrix&quot;:true,&quot;segments&quot;:[[[-53.82787,217.19842],[0,0],[0.15052,0.73]],[[-52.82787,219.19842],[-0.17354,-0.72487],[0.66763,2.78872]],[[-52.78774,228.54305],[0,-2.85114],[0,5.91934]],[[-52.80711,246.30278],[0.06515,-5.91895],[2.33409,6.98741]],[[-51.78774,269.54305],[0,-7.35647],[0,2.38704]],[[-51.80711,277.30278],[-0.47328,-2.34412],[0.19674,0.97445]],[[-50.86139,280.13121],[-0.19043,-0.9757],[0.83399,4.27313]],[[-50.79898,293.35978],[-0.53822,-4.30479],[0.51065,4.08426]],[[-49.7895,305.44623],[-0.004,-4.1766],[-0.00697,2.42373]],[[-48.79504,312.39525],[-0.19603,-2.38043],[0.54604,6.63065]],[[-48.79285,332.41934],[-0.54861,-6.62876],[0.44609,5.38997]],[[-45.79504,348.39525],[-0.442,-5.36723],[0.38234,4.64279]],[[-44.89949,361.96763],[-1.52444,-4.47589],[0.90715,3.60638]],[[-42.79563,373.38947],[-0.33929,-3.7151],[0.16206,1.77448]],[[-42.22709,381.48239],[-1.50827,-1.50827],[1.68905,1.68905]],[[-33.21303,382.04491],[-2.07122,-0.1033],[9.01203,0.44948]],[[-6.40757,385.20626],[-9.00122,-0.53177],[10.72437,0.63357]],[[25.69704,387.92971],[-10.70725,-0.59831],[9.69874,0.54196]],[[54.78863,388.90182],[-9.71242,-0.69374],[10.65091,0.76092]],[[86.71093,390.93725],[-10.64718,-0.60045],[5.68085,0.32038]],[[103.78697,391.0449],[-5.67763,-0.28317],[3.98862,0.19893]],[[115.67866,391.96093],[-4.00392,-0.02761],[7.74453,0.05761]],[[138.73335,393.04089],[-7.71991,-0.32221],[12.58618,0.52533]],[[176.63753,393.0449],[-12.5987,-0.01193],[19.89464,-2.00226]],[[236.52957,389.19951],[-19.79358,2.80988],[14.60352,-0.32616]],[[280.61904,389.04594],[-14.55369,1.08128],[5.77703,-0.42921]],[[297.71225,388.04304],[-5.82294,0],[14.69816,0]],[[341.56661,385.05126],[-14.6671,0.61395],[5.99986,-0.25115]],[[359.47017,384.5102],[-5.99586,0.54131],[9.34789,-0.84393]],[[387.60826,382.0478],[-9.37848,0.39134],[10.6574,-0.4447]],[[419.53321,381.45346],[-10.6316,1.06316],[11.9479,-1.18879]],[[455.58852,381.04815],[-11.90958,1.19482],[7.76176,-0.77869]],[[478.71224,380.04304],[-7.83541,0],[19.61698,0]],[[537.56443,380.05034],[-19.61681,-0.07732],[2.87091,-0.58183]],[[545.71224,379.04304],[-2.94595,-0.01666],[0.9149,0.00518]],[[549.65158,378.48238],[-0.90451,0.99842],[0.94856,-1.04704]],[[551.49538,374.66597],[-0.84253,1.13412],[1.07582,-1.44815]],[[554.25237,371.19841],[-0.42241,1.75606],[0.19106,-0.7943]],[[554.43627,368.75444],[-0.44313,0.68634],[0.46187,-0.71537]],[[556.65159,367.48238],[-0.63053,0.57229],[1.55743,-1.4136]],[[557.23162,360.30277],[-0.27918,1.72038],[0.47707,-2.93986]],[[560.08203,351.73912],[-0.52727,2.92414],[0.61941,-3.43514]],[[561.25237,342.19841],[-1.61095,3.2219],[-0.07029,-2.89973]],[[562.1823,334.44468],[-0.48283,2.77313],[1.30216,-7.47902]],[[562.22348,311.35976],[-0.91485,7.5409],[1.19556,-9.85469]],[[563.21224,281.6386],[0,9.97865],[0,-7.69852]],[[563.21224,258.54303],[0,7.69852],[0,-2.63769]],[[563.25237,249.88766],[0.51634,2.5799],[-0.51071,-2.55176]],[[560.33995,242.12404],[0.53527,2.65515],[-0.35188,-1.7455]],[[560.23161,236.7833],[0.28363,1.75788],[-0.44583,-2.7632]],[[557.24933,228.87454],[0.56362,2.65782],[-0.3124,-1.47318]],[[556.49537,224.42009],[0.69036,1.33838],[-0.72299,-0.76768]],[[554.32641,222.11705],[0.39622,0.97727],[-0.40456,-0.99786]],[[554.25236,218.88765],[0.20602,1.05686],[-0.39,-2.00065]],[[550.49537,211.42009],[1.22328,1.64626],[-0.62896,-0.84644]],[[548.32641,209.11705],[0.45874,0.94953],[-0.22445,-0.46459]],[[548.65157,207.60369],[0.3816,0.34728],[-0.44944,-0.40903]],[[546.83516,207.75989],[0.43633,0.423],[-0.79984,-0.77541]],[[545.60673,204.65186],[0.65458,0.90139],[-0.88296,-1.2159]],[[540.72978,203.04263],[1.33458,-0.02811],[-0.00983,0.00033]],[[540.7126,203.04302],[0.00146,-0.00001],[-0.00013,0]],[[540.71222,203.04303],[0.00013,0],[0,0]],[539.71222,203.04303],[[539.2502,202.96766],[0.25776,0.07537],[-2.94503,3.15937]],[[529.05688,207.0029],[4.24051,0.10279],[-5.44961,2.72481]],[[509.99092,205.88026],[5.25022,2.12132],[-2.46182,-0.99468]],[[502.65159,203.60369],[2.07309,1.91813],[-1.93254,-1.78809]],[[497.13823,195.92885],[2.45334,1.21389],[-1.12673,-0.55749]],[[493.36763,196.0029],[1.20915,0.34391],[-3.08179,-0.87652]],[[488.6516,190.60369],[1.15593,2.58857],[-2.28885,-1.07098]],[[480.71226,189.04303],[2.52175,-0.02174],[-0.79003,0.00681]],[[475.92366,188.81901],[0.45622,0.26788],[-0.64713,-0.37999]],[[474.90852,186.80953],[0.61332,0.43244],[-0.44025,-0.31041]],[[473.30042,186.96938],[0.53042,0.09396],[-2.45413,-0.43471]],[[466.35027,184.9987],[2.32787,0.59154],[-1.71894,-0.4368]],[[461.13824,183.92885],[1.6359,0.68511],[-0.86633,-0.36281]],[[458.6516,182.60369],[0.67969,0.64821],[-0.53939,-0.51441]],[[457.6516,180.60369],[0.52705,0.52705],[-0.52705,-0.52705]],[[455.6516,179.60369],[0.52159,0.53244],[-0.4496,-0.45895]],[[454.92366,177.81901],[0.53465,0.35627],[-0.49619,-0.33065]],[[453.13823,177.92885],[0.53254,0.26821],[-2.54139,-1.27994]],[[448.05688,175.0029],[2.89253,0],[-2.603,1.3015]],[[440.05688,177.0029],[2.72543,-0.68136],[-0.7231,0.18078]],[[438.05688,178.0029],[0.72487,-0.17354],[-1.83696,0.43978]],[[431.71225,178.04303],[1.89965,0],[-3.15828,0]],[[421.36762,178.0029],[3.0632,0.73335],[-0.72487,-0.17354]],[[419.36762,177.0029],[0.72091,0.18931],[-1.84748,-0.48514]],[[413.36762,177.0029],[1.88624,0.45157],[-0.72487,-0.17354]],[[411.36762,176.0029],[0.72091,0.18931],[-2.25535,-0.59224]],[[405.36762,175.0029],[2.30392,1.15196],[-3.31848,0]],[[399.13822,171.92885],[2.4892,1.57415],[-0.91932,-0.58137]],[[396.05687,173.0029],[1.06017,-0.2433],[-0.50905,0.11683]],[[394.50084,172.819],[0.42769,-0.29976],[-0.52612,0.36875]],[[393.7729,174.60368],[0.4496,-0.45895],[-0.52159,0.53244]],[[391.7729,175.60368],[0.52705,-0.52705],[-0.52705,0.52705]],[[390.7729,177.60368],[0.52932,-0.52476],[-0.58489,0.57985]],[[388.58931,178.75988],[0.65748,-0.49602],[-2.51831,1.89987]],[[380.05687,184.00289],[3.28794,-0.73307],[-3.05184,0.68043]],[[373.36761,182.00289],[2.58493,0.65349],[-2.18436,-0.55222]],[[365.71224,182.04302],[2.26973,0],[-1.21853,0]],[[362.05687,182.00289],[1.18136,-0.29865],[-3.51362,0.88827]],[[352.05687,187.00289],[3.53588,-0.91395],[-0.64545,0.16684]],[[350.05687,187.00289],[0.64826,-0.15559],[-2.09992,0.50401]],[[344.05687,190.00289],[2.12171,-0.52815],[-1.46445,0.36454]],[[339.81618,190.072],[1.4555,-0.29879],[-2.41225,0.49518]],[[333.07423,191.99868],[2.28923,-0.57713],[-3.89036,0.98079]],[[322.38306,194.88466],[3.66124,-1.83063],[-2.51486,1.20893]],[[316.05687,196.00289],[2.44305,-0.60634],[-2.67963,0.66505]],[[308.89552,199.03178],[2.98991,-0.45956],[-3.45479,0.53101]],[[299.25504,199.94137],[3.28459,-1.2735],[-1.73795,0.67383]],[[294.05688,202.0029],[1.81212,-0.43676],[-0.43572,0.10502]],[[292.77291,201.60369],[0.2809,-0.34926],[-0.36377,0.4523]],[[292.98823,203.33163],[0.32196,-0.48295],[-0.47234,0.70851]],[[290.77291,204.60369],[0.60783,-0.59635],[-2.71967,2.66832]],[[285.50085,215.81901],[3.37637,-2.20018],[-0.78129,0.50912]],[[282.71225,216.04303],[0.92954,-0.07467],[-4.80112,0]],[[267.36762,216.0029],[4.68021,0.95601],[-3.65697,-0.747]],[[256.83518,209.75989],[2.80605,2.14881],[-0.66069,-0.50594]],[[255.13822,207.92885],[0.72923,0.40089],[-1.50779,-0.82892]],[[248.92365,207.81901],[1.683,1.01019],[-0.72812,-0.43704]],[[247.65668,205.60876],[0.59986,0.6011],[-2.19901,-2.20351]],[[237.71225,203.04303],[2.89761,0],[-1.48892,-0.02548]],[[233.36761,202.0029],[1.45154,0.33249],[-5.5055,-1.2611]],[[215.90517,201.84144],[5.62578,1.04644],[-3.62703,-0.67466]],[[204.63118,199.09257],[3.7807,-0.19945],[-2.18345,0.11519]],[[198.05687,201.0029],[2.05526,-0.49204],[-4.56939,1.09393]],[[182.52897,200.03179],[4.50016,1.13945],[-4.54678,0.02813]],[[168.05687,200.0029],[4.39731,-0.90666],[-5.10637,1.05286]],[[151.36761,203.0029],[5.55972,1.33103],[-0.72487,-0.17354]],[[149.36761,202.0029],[0.7231,0.18078],[-1.51982,-0.37996]],[[144.83517,200.75989],[1.26723,0.92106],[-0.67314,-0.48926]],[[143.13821,198.92885],[0.72923,0.40089],[-0.41786,-0.22972]],[[141.71224,199.04303],[0.47658,-0.01588],[-1.99385,0.06645]],[[135.71224,199.04303],[1.99508,0],[-1.56083,0]],[[128.92364,198.81901],[1.29741,0.77938],[-0.72994,-0.43849]],[[127.65158,196.60369],[0.60498,0.59924],[-0.47432,-0.46981]],[[125.83517,195.75989],[0.53409,0.40057],[-0.1368,-0.1026]],[[121.49537,191.42009],[0.10028,0.13912],[-0.33136,-0.45973]],[[120.92364,189.819],[0.44852,0.34638],[-0.32501,-0.251]],[[119.71224,190.04302],[0.40965,-0.02857],[-1.66263,0.11598]],[[114.71224,190.04302],[1.66667,0],[-3.33333,0]],[[104.71224,190.04302],[3.33333,0],[-1.22086,0]],[[101.04988,190.00453],[1.18098,-0.30948],[-2.62504,0.6879]],[[93.71224,192.04302],[2.8863,-0.02495],[-3.66667,0]],[[82.71224,192.04302],[3.66667,0],[-1.88519,0]],[[76.3746,192.00453],[1.81926,0.44804],[-1.71143,-0.42149]],[[71.47196,190.02365],[1.74155,0.27142],[-1.01814,-0.15867]],[[68.38072,190.00593],[1.00806,0.21352],[-2.65401,-0.56216]],[[60.47196,187.02365],[2.74035,0.52981],[-2.15996,-0.4176]],[[53.05686,186.00289],[2.29538,-0.60275],[-0.72091,0.18931]],[[51.05686,187.00289],[0.72647,-0.16672],[-0.50905,0.11683]],[[49.50083,186.81899],[0.42769,-0.29976],[-0.52612,0.36875]],[[48.77289,188.60367],[0.24265,-0.59489],[-1.31387,0.70425]],[[44.77289,190.60367],[1.04461,-1.06349],[-0.5967,0.60749]],[[43.50083,192.81899],[0.70998,-0.47012],[-0.63333,0.41937]],[[41.22596,192.9523],[0.70815,-0.27477],[-1.60696,0.62352]],[[37.04864,196.00022],[1.55479,-0.74413],[-2.15666,1.03219]],[[29.05686,199.00289],[2.32592,-0.56657],[-5.60986,1.3665]],[[11.27049,199.25322],[5.71554,-1.11619],[-4.81903,0.94111]],[[-3.10878,202.61707],[4.89851,-0.71036],[-6.48264,3.21653]],[[-27.49866,201.68643],[6.67795,2.41194],[-1.84466,-0.66625]],[[-32.72244,198.97866],[1.87248,0.58352],[-3.00662,-0.93696]],[[-42.90859,200.24029],[2.7518,-0.90575],[-3.48277,1.14634]],[[-53.79109,202.03854],[3.64853,-0.05724],[-0.06277,4.80496]],[[-53.8279,217.1984],[-0.94809,-4.59823],[0,0]]],&quot;closed&quot;:true,&quot;fillColor&quot;:[0,0,0,1]}]}" fill="url(#color-1)"/><path d="M533.08047,218.16886c-0.85294,-2.87558 -0.02287,-6.47702 0.0336,-9.48188c3.28239,-0.0358 6.65732,-0.40812 9.79059,-1.125c2.47565,-0.56643 6.45921,-1.37532 9.16411,-0.78937c1.68457,0.36491 3.03998,1.27682 4.69952,1.69347c6.0078,1.50835 16.11049,2.59286 21.94258,0.58135c4.40693,-0.44424 8.60126,-1.51596 12.93669,-2.1045c5.14198,-0.69803 10.95494,0.69728 16.00185,-0.15728c2.09251,-0.35431 5.24994,-1.23297 7.19017,-1.87846c1.39877,-0.46535 2.31274,-1.51669 3.75844,-1.90662c0.63708,-0.17183 1.47689,0.17877 2.04666,-0.08349c0.63873,-0.294 0.60778,-1.0058 1.1446,-1.38571c0.93978,-0.66507 2.41685,-0.81075 3.59887,-1.25116c0.2183,-0.37202 0.18173,-0.88572 0.65505,-1.11632c0.38477,-0.18746 0.94196,0.188 1.39992,0.11494c0.65356,-0.10426 1.15089,-0.5072 1.79945,-0.62559c2.06503,-0.37694 4.72798,0.3769 6.67119,0.63805c2.46535,0.33133 4.72751,1.51335 7.11518,1.8649c0.9069,0.13353 1.8652,-0.08833 2.78116,0.01089c1.56678,0.16974 2.87101,0.97513 4.41069,1.23871c1.6367,0.28019 4.00594,0.02366 5.70195,0.02366c3.29871,0 6.59801,-0.00076 9.89672,-0.00076c2.59666,-0.0156 4.24036,-0.84543 6.60197,-1.27562c1.06246,-0.19354 2.19673,0.02379 3.29507,0.02379c2.99883,0 5.99841,-0.00083 8.99724,-0.00083c1.49941,0 3.00288,0.07209 4.49866,-0.00044c0.36854,-0.01787 0.8715,-0.26156 1.1639,-0.10459c0.40351,0.21661 0.21641,0.71361 0.51451,1.00111c0.09021,0.087 3.7814,2.64961 3.90447,2.71378c0.4805,0.2505 1.20736,0.23394 1.63408,0.52774c0.54427,0.37474 0.41302,1.07631 1.06971,1.35053c1.16721,0.4874 4.70378,0.13946 6.10797,0.13946c1.79487,0 3.60477,0.04093 5.39854,-0.00063c0.42876,-0.00993 0.90712,-0.21523 1.28305,-0.07157c0.65605,0.2507 0.92099,0.83919 1.52658,1.14515c1.14006,0.576 2.71064,0.5394 4.07795,0.77701c0.65053,0.11305 1.14725,0.51676 1.79939,0.62528c5.00179,0.83238 10.4236,-1.22017 15.01753,-1.87859c3.95603,-0.56699 8.93225,0.03369 13.02275,0.0161c4.04856,0.71257 9.86276,1.28926 13.9736,0.60515c1.84901,-0.30771 3.95276,-1.12375 5.91709,-1.19579c3.4013,-0.12473 6.88324,1.29577 10.14629,1.71768c5.06122,0.65441 10.76502,-0.68972 15.71803,0.09893c1.30588,0.20793 2.57126,0.63418 3.91077,0.65011c2.60683,0 6.97345,0.22596 8.95179,1.60396c0.53967,0.37591 0.48542,1.10887 1.14047,1.38218c1.5141,0.63174 4.23817,-0.44978 5.59465,0.0686c0.65605,0.2507 0.93333,0.82869 1.52772,1.14508c2.52445,1.34379 6.1926,3.43756 9.48258,3.90471c4.21054,0.59786 9.49449,0.027 13.81381,0.027c0.83626,-0.0467 1.80725,0.17872 2.51014,-0.13967c3.03755,-1.37592 2.29629,-5.34499 4.74303,-7.01367c0.54683,-0.37294 1.56875,-0.3522 1.99369,-0.79528c0.28965,-0.30202 -0.5214,-0.79789 -0.19414,-1.08074c0.25271,-0.21842 0.76373,0.31553 1.15572,0.24985c1.63027,-0.27313 3.11457,-0.86725 4.67811,-1.28864c2.95497,-0.7964 5.56808,-0.23546 8.67617,-0.56753c2.68987,-0.28739 4.0335,-1.47755 6.44422,-1.89345c2.19789,-0.37918 3.43033,0.05748 5.69282,-0.69855c3.29382,-1.14481 6.12027,-1.19033 9.62023,-1.80369c2.0595,-0.36092 3.89623,-0.89457 6.06641,-1.20424c1.30944,-0.18685 2.49842,0.18526 3.81591,-0.04271c1.90879,-0.33029 3.50923,-1.56054 5.39842,-1.87574c0.58321,-0.0973 1.21894,0.10457 1.79962,0.00023c3.18105,-0.57155 5.83619,-2.57081 8.99721,-3.12631c1.06281,-0.18677 2.19281,0.02548 3.28906,0.02548c2.04196,0 4.92296,-0.36967 6.88811,-0.02433c2.32552,0.40867 3.27344,1.67714 6.01902,1.25162c2.95799,-0.45844 5.41079,-2.09052 7.67638,-3.27863c0.5915,-0.31019 1.36708,-0.32219 1.89328,-0.68481c0.4762,-0.32817 0.42564,-0.921 0.8998,-1.25059c0.47416,-0.3296 1.32997,-0.29246 1.79922,-0.62543c0.40448,-0.28701 0.25251,-0.92393 0.72583,-1.15454c0.38477,-0.18746 0.94209,0.18822 1.40005,0.11515c0.95378,-0.15215 1.94522,-1.0351 2.77228,-0.67153c2.23941,0.98442 2.6197,1.92325 5.60516,1.92325c2.07272,0.7204 3.36946,0.25558 5.39848,0.62595c0.64856,0.11839 1.14742,0.5171 1.79955,0.62563c1.69695,0.2824 3.73622,-0.30295 5.3983,0.00044c0.64856,0.11839 1.1474,0.5171 1.79953,0.62562c2.7558,0.45861 6.46582,0.02582 9.30715,0.02582c1.70902,0 4.05566,0.25033 5.70827,-0.02469c0.65213,-0.10853 1.14877,-0.5123 1.79931,-0.62535c2.45192,-0.4261 4.85562,-0.43654 7.19741,-1.25046c2.60226,0 2.28555,1.02997 4.57191,1.8304c0.4791,0.16773 1.15993,-0.27538 1.60633,-0.0686c0.481,0.2228 0.25059,0.8293 0.65507,1.11632c0.46925,0.33297 1.3253,0.29599 1.79946,0.62559c0.47416,0.3296 0.41458,0.92931 0.89984,1.25101c0.61148,0.40537 1.45791,0.6021 2.2373,0.82899c1.47173,0.42844 3.14281,0.39628 4.68925,0.66944c2.09426,0.36993 4.0452,0.96111 6.25305,1.23296c0.47719,0.05876 1.05069,-0.29403 1.44676,-0.09991c0.55177,0.27043 0.33124,1.0193 0.91343,1.25693c0.41044,0.16752 3.59744,0.1446 4.30819,0.14034c2.26869,-0.0136 5.08375,0.30675 7.14291,0.9765c1.03993,1.6188 1.47066,2.82911 4.24318,3.37726c1.08781,0.21507 2.37863,-0.39481 3.39229,-0.04617c2.20714,0.75913 3.22198,3.68241 4.96059,4.80062c1.86505,1.19953 4.38826,0.80214 6.60303,1.42418c4.72335,1.3266 12.25021,2.40676 17.15294,0.70276c3.81497,0.06428 6.43421,-0.53102 9.08371,-2.50679c0.23189,0.04713 0.50231,0.03032 0.50231,0.03032l0.89965,0.00003c0.00012,0 0.00023,-0.00001 0.00034,-0.00001c0.00131,-0.00001 0.00661,-0.00004 0.01545,-0.00024c1.20065,-0.01758 3.59329,0.24626 4.38765,1.00665c0.58889,0.5637 0.3857,1.45907 1.10528,1.94399c0.39254,0.26453 1.2298,-0.35344 1.63414,-0.09765c0.34331,0.21718 -0.4944,0.656 -0.29247,0.94654c0.4127,0.5938 1.38555,0.91118 1.95139,1.44052c1.10052,1.02952 3.02936,3.41963 3.38023,4.67077c0.18535,0.66092 -0.29724,1.39585 0.06672,2.01988c0.35646,0.61115 1.30093,0.96043 1.95137,1.44051c0.62108,0.83698 0.39737,1.86484 0.67842,2.78611c0.50706,1.66211 2.28211,3.21869 2.6832,4.9467c0.25517,1.09932 -0.21899,2.24887 0.09758,3.34045c0.48156,1.66044 2.16083,3.26013 2.62029,4.85591c0.46453,1.61338 -0.03598,3.76412 -0.03598,5.41364c0,4.81439 0.00014,9.63113 0.00014,14.44552c0,6.24031 0.18585,12.42683 -0.88973,18.58962c-0.82305,4.71582 1.134,9.76169 -0.03748,14.43882c-0.43438,1.73422 -0.90004,3.0363 -0.8368,4.84969c-1.44929,2.01487 -0.49593,3.81915 -1.05318,5.96738c-0.47436,1.82866 -2.13548,3.5178 -2.56467,5.35629c-0.25116,1.07587 0.87905,3.60655 -0.52209,4.49057c-0.56725,0.35789 -1.57756,0.34831 -1.99308,0.79568c-0.39866,0.42921 0.00634,1.03188 -0.16555,1.52861c-0.38002,1.09818 -1.51263,1.26326 -2.48049,2.16889c-0.75798,0.70924 -0.80558,1.73227 -1.65895,2.38705c-0.81374,0.62438 -516.35051,2.50953 -524.45817,2.22844c-1.86337,-0.0646 -6.59009,0.70416 -8.10964,-0.35211c-1.35691,-0.94322 -0.36604,-3.95209 -0.51183,-5.06179c-0.30524,-2.3233 -1.07708,-4.88864 -1.89319,-7.14395c-1.37146,-2.79907 -0.46217,-5.58558 -0.80614,-8.48903c-0.39765,-3.35648 -2.2961,-6.62171 -2.69742,-9.99242c-0.49356,-4.1454 0.4889,-8.37781 -0.00235,-12.5244c-0.17636,-1.48864 -0.90103,-2.83068 -0.89476,-4.34639c-0.0036,-2.6119 -0.44887,-5.00554 -0.90828,-7.55969c-0.48421,-2.69207 0.69412,-5.60178 -0.05617,-8.27405c-0.17132,-0.61017 -0.67381,-1.1597 -0.85081,-1.76909c-0.42579,-1.46593 0.01747,-3.36069 0.01747,-4.85346c0,-4.60049 1.18306,-10.16632 -0.9168,-14.53601c0.05861,-3.70151 0.01779,-7.40633 0.01779,-11.10809c0,-1.78301 0.56477,-4.10074 -0.03586,-5.84472c-0.15612,-0.45331 -0.76418,-0.79438 -0.89959,-1.2509z" data-paper-data="{&quot;noHover&quot;:false,&quot;origItem&quot;:[&quot;Path&quot;,{&quot;applyMatrix&quot;:true,&quot;segments&quot;:[[[-53.82787,217.19842],[0,0],[0.15052,0.73]],[[-52.82787,219.19842],[-0.17354,-0.72487],[0.66763,2.78872]],[[-52.78774,228.54305],[0,-2.85114],[0,5.91934]],[[-52.80711,246.30278],[0.06515,-5.91895],[2.33409,6.98741]],[[-51.78774,269.54305],[0,-7.35647],[0,2.38704]],[[-51.80711,277.30278],[-0.47328,-2.34412],[0.19674,0.97445]],[[-50.86139,280.13121],[-0.19043,-0.9757],[0.83399,4.27313]],[[-50.79898,293.35978],[-0.53822,-4.30479],[0.51065,4.08426]],[[-49.7895,305.44623],[-0.004,-4.1766],[-0.00697,2.42373]],[[-48.79504,312.39525],[-0.19603,-2.38043],[0.54604,6.63065]],[[-48.79285,332.41934],[-0.54861,-6.62876],[0.44609,5.38997]],[[-45.79504,348.39525],[-0.442,-5.36723],[0.38234,4.64279]],[[-44.89949,361.96763],[-1.52444,-4.47589],[0.90715,3.60638]],[[-42.79563,373.38947],[-0.33929,-3.7151],[0.16206,1.77448]],[[-42.22709,381.48239],[-1.50827,-1.50827],[1.68905,1.68905]],[[-33.21303,382.04491],[-2.07122,-0.1033],[9.01203,0.44948]],[[-6.40757,385.20626],[-9.00122,-0.53177],[10.72437,0.63357]],[[25.69704,387.92971],[-10.70725,-0.59831],[9.69874,0.54196]],[[54.78863,388.90182],[-9.71242,-0.69374],[10.65091,0.76092]],[[86.71093,390.93725],[-10.64718,-0.60045],[5.68085,0.32038]],[[103.78697,391.0449],[-5.67763,-0.28317],[3.98862,0.19893]],[[115.67866,391.96093],[-4.00392,-0.02761],[7.74453,0.05761]],[[138.73335,393.04089],[-7.71991,-0.32221],[12.58618,0.52533]],[[176.63753,393.0449],[-12.5987,-0.01193],[19.89464,-2.00226]],[[236.52957,389.19951],[-19.79358,2.80988],[14.60352,-0.32616]],[[280.61904,389.04594],[-14.55369,1.08128],[5.77703,-0.42921]],[[297.71225,388.04304],[-5.82294,0],[14.69816,0]],[[341.56661,385.05126],[-14.6671,0.61395],[5.99986,-0.25115]],[[359.47017,384.5102],[-5.99586,0.54131],[9.34789,-0.84393]],[[387.60826,382.0478],[-9.37848,0.39134],[10.6574,-0.4447]],[[419.53321,381.45346],[-10.6316,1.06316],[11.9479,-1.18879]],[[455.58852,381.04815],[-11.90958,1.19482],[7.76176,-0.77869]],[[478.71224,380.04304],[-7.83541,0],[19.61698,0]],[[537.56443,380.05034],[-19.61681,-0.07732],[2.87091,-0.58183]],[[545.71224,379.04304],[-2.94595,-0.01666],[0.9149,0.00518]],[[549.65158,378.48238],[-0.90451,0.99842],[0.94856,-1.04704]],[[551.49538,374.66597],[-0.84253,1.13412],[1.07582,-1.44815]],[[554.25237,371.19841],[-0.42241,1.75606],[0.19106,-0.7943]],[[554.43627,368.75444],[-0.44313,0.68634],[0.46187,-0.71537]],[[556.65159,367.48238],[-0.63053,0.57229],[1.55743,-1.4136]],[[557.23162,360.30277],[-0.27918,1.72038],[0.47707,-2.93986]],[[560.08203,351.73912],[-0.52727,2.92414],[0.61941,-3.43514]],[[561.25237,342.19841],[-1.61095,3.2219],[-0.07029,-2.89973]],[[562.1823,334.44468],[-0.48283,2.77313],[1.30216,-7.47902]],[[562.22348,311.35976],[-0.91485,7.5409],[1.19556,-9.85469]],[[563.21224,281.6386],[0,9.97865],[0,-7.69852]],[[563.21224,258.54303],[0,7.69852],[0,-2.63769]],[[563.25237,249.88766],[0.51634,2.5799],[-0.51071,-2.55176]],[[560.33995,242.12404],[0.53527,2.65515],[-0.35188,-1.7455]],[[560.23161,236.7833],[0.28363,1.75788],[-0.44583,-2.7632]],[[557.24933,228.87454],[0.56362,2.65782],[-0.3124,-1.47318]],[[556.49537,224.42009],[0.69036,1.33838],[-0.72299,-0.76768]],[[554.32641,222.11705],[0.39622,0.97727],[-0.40456,-0.99786]],[[554.25236,218.88765],[0.20602,1.05686],[-0.39,-2.00065]],[[550.49537,211.42009],[1.22328,1.64626],[-0.62896,-0.84644]],[[548.32641,209.11705],[0.45874,0.94953],[-0.22445,-0.46459]],[[548.65157,207.60369],[0.3816,0.34728],[-0.44944,-0.40903]],[[546.83516,207.75989],[0.43633,0.423],[-0.79984,-0.77541]],[[545.60673,204.65186],[0.65458,0.90139],[-0.88296,-1.2159]],[[540.72978,203.04263],[1.33458,-0.02811],[-0.00983,0.00033]],[[540.7126,203.04302],[0.00146,-0.00001],[-0.00013,0]],[[540.71222,203.04303],[0.00013,0],[0,0]],[539.71222,203.04303],[[539.2502,202.96766],[0.25776,0.07537],[-2.94503,3.15937]],[[529.05688,207.0029],[4.24051,0.10279],[-5.44961,2.72481]],[[509.99092,205.88026],[5.25022,2.12132],[-2.46182,-0.99468]],[[502.65159,203.60369],[2.07309,1.91813],[-1.93254,-1.78809]],[[497.13823,195.92885],[2.45334,1.21389],[-1.12673,-0.55749]],[[493.36763,196.0029],[1.20915,0.34391],[-3.08179,-0.87652]],[[488.6516,190.60369],[1.15593,2.58857],[-2.28885,-1.07098]],[[480.71226,189.04303],[2.52175,-0.02174],[-0.79003,0.00681]],[[475.92366,188.81901],[0.45622,0.26788],[-0.64713,-0.37999]],[[474.90852,186.80953],[0.61332,0.43244],[-0.44025,-0.31041]],[[473.30042,186.96938],[0.53042,0.09396],[-2.45413,-0.43471]],[[466.35027,184.9987],[2.32787,0.59154],[-1.71894,-0.4368]],[[461.13824,183.92885],[1.6359,0.68511],[-0.86633,-0.36281]],[[458.6516,182.60369],[0.67969,0.64821],[-0.53939,-0.51441]],[[457.6516,180.60369],[0.52705,0.52705],[-0.52705,-0.52705]],[[455.6516,179.60369],[0.52159,0.53244],[-0.4496,-0.45895]],[[454.92366,177.81901],[0.53465,0.35627],[-0.49619,-0.33065]],[[453.13823,177.92885],[0.53254,0.26821],[-2.54139,-1.27994]],[[448.05688,175.0029],[2.89253,0],[-2.603,1.3015]],[[440.05688,177.0029],[2.72543,-0.68136],[-0.7231,0.18078]],[[438.05688,178.0029],[0.72487,-0.17354],[-1.83696,0.43978]],[[431.71225,178.04303],[1.89965,0],[-3.15828,0]],[[421.36762,178.0029],[3.0632,0.73335],[-0.72487,-0.17354]],[[419.36762,177.0029],[0.72091,0.18931],[-1.84748,-0.48514]],[[413.36762,177.0029],[1.88624,0.45157],[-0.72487,-0.17354]],[[411.36762,176.0029],[0.72091,0.18931],[-2.25535,-0.59224]],[[405.36762,175.0029],[2.30392,1.15196],[-3.31848,0]],[[399.13822,171.92885],[2.4892,1.57415],[-0.91932,-0.58137]],[[396.05687,173.0029],[1.06017,-0.2433],[-0.50905,0.11683]],[[394.50084,172.819],[0.42769,-0.29976],[-0.52612,0.36875]],[[393.7729,174.60368],[0.4496,-0.45895],[-0.52159,0.53244]],[[391.7729,175.60368],[0.52705,-0.52705],[-0.52705,0.52705]],[[390.7729,177.60368],[0.52932,-0.52476],[-0.58489,0.57985]],[[388.58931,178.75988],[0.65748,-0.49602],[-2.51831,1.89987]],[[380.05687,184.00289],[3.28794,-0.73307],[-3.05184,0.68043]],[[373.36761,182.00289],[2.58493,0.65349],[-2.18436,-0.55222]],[[365.71224,182.04302],[2.26973,0],[-1.21853,0]],[[362.05687,182.00289],[1.18136,-0.29865],[-3.51362,0.88827]],[[352.05687,187.00289],[3.53588,-0.91395],[-0.64545,0.16684]],[[350.05687,187.00289],[0.64826,-0.15559],[-2.09992,0.50401]],[[344.05687,190.00289],[2.12171,-0.52815],[-1.46445,0.36454]],[[339.81618,190.072],[1.4555,-0.29879],[-2.41225,0.49518]],[[333.07423,191.99868],[2.28923,-0.57713],[-3.89036,0.98079]],[[322.38306,194.88466],[3.66124,-1.83063],[-2.51486,1.20893]],[[316.05687,196.00289],[2.44305,-0.60634],[-2.67963,0.66505]],[[308.89552,199.03178],[2.98991,-0.45956],[-3.45479,0.53101]],[[299.25504,199.94137],[3.28459,-1.2735],[-1.73795,0.67383]],[[294.05688,202.0029],[1.81212,-0.43676],[-0.43572,0.10502]],[[292.77291,201.60369],[0.2809,-0.34926],[-0.36377,0.4523]],[[292.98823,203.33163],[0.32196,-0.48295],[-0.47234,0.70851]],[[290.77291,204.60369],[0.60783,-0.59635],[-2.71967,2.66832]],[[285.50085,215.81901],[3.37637,-2.20018],[-0.78129,0.50912]],[[282.71225,216.04303],[0.92954,-0.07467],[-4.80112,0]],[[267.36762,216.0029],[4.68021,0.95601],[-3.65697,-0.747]],[[256.83518,209.75989],[2.80605,2.14881],[-0.66069,-0.50594]],[[255.13822,207.92885],[0.72923,0.40089],[-1.50779,-0.82892]],[[248.92365,207.81901],[1.683,1.01019],[-0.72812,-0.43704]],[[247.65668,205.60876],[0.59986,0.6011],[-2.19901,-2.20351]],[[237.71225,203.04303],[2.89761,0],[-1.48892,-0.02548]],[[233.36761,202.0029],[1.45154,0.33249],[-5.5055,-1.2611]],[[215.90517,201.84144],[5.62578,1.04644],[-3.62703,-0.67466]],[[204.63118,199.09257],[3.7807,-0.19945],[-2.18345,0.11519]],[[198.05687,201.0029],[2.05526,-0.49204],[-4.56939,1.09393]],[[182.52897,200.03179],[4.50016,1.13945],[-4.54678,0.02813]],[[168.05687,200.0029],[4.39731,-0.90666],[-5.10637,1.05286]],[[151.36761,203.0029],[5.55972,1.33103],[-0.72487,-0.17354]],[[149.36761,202.0029],[0.7231,0.18078],[-1.51982,-0.37996]],[[144.83517,200.75989],[1.26723,0.92106],[-0.67314,-0.48926]],[[143.13821,198.92885],[0.72923,0.40089],[-0.41786,-0.22972]],[[141.71224,199.04303],[0.47658,-0.01588],[-1.99385,0.06645]],[[135.71224,199.04303],[1.99508,0],[-1.56083,0]],[[128.92364,198.81901],[1.29741,0.77938],[-0.72994,-0.43849]],[[127.65158,196.60369],[0.60498,0.59924],[-0.47432,-0.46981]],[[125.83517,195.75989],[0.53409,0.40057],[-0.1368,-0.1026]],[[121.49537,191.42009],[0.10028,0.13912],[-0.33136,-0.45973]],[[120.92364,189.819],[0.44852,0.34638],[-0.32501,-0.251]],[[119.71224,190.04302],[0.40965,-0.02857],[-1.66263,0.11598]],[[114.71224,190.04302],[1.66667,0],[-3.33333,0]],[[104.71224,190.04302],[3.33333,0],[-1.22086,0]],[[101.04988,190.00453],[1.18098,-0.30948],[-2.62504,0.6879]],[[93.71224,192.04302],[2.8863,-0.02495],[-3.66667,0]],[[82.71224,192.04302],[3.66667,0],[-1.88519,0]],[[76.3746,192.00453],[1.81926,0.44804],[-1.71143,-0.42149]],[[71.47196,190.02365],[1.74155,0.27142],[-1.01814,-0.15867]],[[68.38072,190.00593],[1.00806,0.21352],[-2.65401,-0.56216]],[[60.47196,187.02365],[2.74035,0.52981],[-2.15996,-0.4176]],[[53.05686,186.00289],[2.29538,-0.60275],[-0.72091,0.18931]],[[51.05686,187.00289],[0.72647,-0.16672],[-0.50905,0.11683]],[[49.50083,186.81899],[0.42769,-0.29976],[-0.52612,0.36875]],[[48.77289,188.60367],[0.24265,-0.59489],[-1.31387,0.70425]],[[44.77289,190.60367],[1.04461,-1.06349],[-0.5967,0.60749]],[[43.50083,192.81899],[0.70998,-0.47012],[-0.63333,0.41937]],[[41.22596,192.9523],[0.70815,-0.27477],[-1.60696,0.62352]],[[37.04864,196.00022],[1.55479,-0.74413],[-2.15666,1.03219]],[[29.05686,199.00289],[2.32592,-0.56657],[-5.60986,1.3665]],[[11.27049,199.25322],[5.71554,-1.11619],[-4.81903,0.94111]],[[-3.10878,202.61707],[4.89851,-0.71036],[-6.48264,3.21653]],[[-27.49866,201.68643],[6.67795,2.41194],[-1.84466,-0.66625]],[[-32.72244,198.97866],[1.87248,0.58352],[-3.00662,-0.93696]],[[-42.90859,200.24029],[2.7518,-0.90575],[-3.48277,1.14634]],[[-53.79109,202.03854],[3.64853,-0.05724],[-0.06277,4.80496]],[[-53.8279,217.1984],[-0.94809,-4.59823],[0,0]]],&quot;closed&quot;:true,&quot;fillColor&quot;:[0,0,0,1]}]}" fill="url(#color-2)"/></g></g></svg>