<svg version="1.1" xmlns="http://www.w3.org/2000/svg" xmlns:xlink="http://www.w3.org/1999/xlink" width="95.89226" height="103.38729" viewBox="0,0,95.89226,103.38729"><defs><radialGradient cx="226.58391" cy="167.83109" r="20.58604" gradientUnits="userSpaceOnUse" id="color-1"><stop offset="0" stop-color="#ff8700"/><stop offset="1" stop-color="#a77426"/></radialGradient><radialGradient cx="241.40517" cy="166.98059" r="20.58605" gradientUnits="userSpaceOnUse" id="color-2"><stop offset="0" stop-color="#ff8700"/><stop offset="1" stop-color="#a77426"/></radialGradient><linearGradient x1="239.36792" y1="156.14252" x2="239.46842" y2="162.99284" gradientUnits="userSpaceOnUse" id="color-3"><stop offset="0" stop-color="#2b2b2b"/><stop offset="1" stop-color="#3f3f3f"/></linearGradient><radialGradient cx="235.10473" cy="134.64251" r="13.11833" gradientUnits="userSpaceOnUse" id="color-4"><stop offset="0" stop-color="#7bccb1"/><stop offset="1" stop-color="#618c94"/></radialGradient><radialGradient cx="235.10473" cy="134.64251" r="13.11833" gradientUnits="userSpaceOnUse" id="color-5"><stop offset="0" stop-color="#727272"/><stop offset="1" stop-color="#333333"/></radialGradient><radialGradient cx="238.29126" cy="140.29084" r="11.56644" gradientUnits="userSpaceOnUse" id="color-6"><stop offset="0" stop-color="#ffffff" stop-opacity="0.74902"/><stop offset="1" stop-color="#abffe7" stop-opacity="0.56471"/></radialGradient><radialGradient cx="253.49483" cy="164.90659" r="15.95934" gradientUnits="userSpaceOnUse" id="color-7"><stop offset="0" stop-color="#6f8281"/><stop offset="1" stop-color="#576766"/></radialGradient><radialGradient cx="235.57281" cy="168.50182" r="17.31619" gradientUnits="userSpaceOnUse" id="color-8"><stop offset="0" stop-color="#7a908e"/><stop offset="1" stop-color="#576766"/></radialGradient><linearGradient x1="269.99269" y1="186.79046" x2="276.83771" y2="176.98194" gradientUnits="userSpaceOnUse" id="color-9"><stop offset="0" stop-color="#242424"/><stop offset="1" stop-color="#373737"/></linearGradient><radialGradient cx="266.55707" cy="185.99798" r="3.52256" gradientUnits="userSpaceOnUse" id="color-10"><stop offset="0" stop-color="#bfbfbf"/><stop offset="1" stop-color="#9a9a9a"/></radialGradient><linearGradient x1="278.48466" y1="177.36604" x2="312.75928" y2="147.53766" gradientUnits="userSpaceOnUse" id="color-11"><stop offset="0" stop-color="#b2b2b2"/><stop offset="1" stop-color="#c4c4c4"/></linearGradient><linearGradient x1="278.94658" y1="177.44048" x2="301.37994" y2="157.91732" gradientUnits="userSpaceOnUse" id="color-12"><stop offset="0" stop-color="#cccccc"/><stop offset="1" stop-color="#d8d8d8"/></linearGradient><linearGradient x1="276.31907" y1="178.71858" x2="278.18791" y2="177.14934" gradientUnits="userSpaceOnUse" id="color-13"><stop offset="0" stop-color="#b5b5b5"/><stop offset="1" stop-color="#c5c5c5"/></linearGradient><radialGradient cx="229.90446" cy="168.30991" r="22.04569" gradientUnits="userSpaceOnUse" id="color-14"><stop offset="0" stop-color="#6f8281"/><stop offset="1" stop-color="#576766"/></radialGradient></defs><g transform="translate(-222.26748,-130.94863)"><g data-paper-data="{&quot;isPaintingLayer&quot;:true}" fill-rule="nonzero" stroke-linejoin="miter" stroke-miterlimit="10" stroke-dasharray="" stroke-dashoffset="0" style="mix-blend-mode: normal"><g stroke="none" stroke-width="0" stroke-linecap="butt"><path d="M237.36639,176.68165c-0.00865,21.4935 0.22868,21.92153 -7.20694,21.92207c-7.8446,0.00057 -7.61319,-0.65074 -7.8469,-21.70123c-0.24466,-22.03736 0.28832,-21.65658 7.20694,-21.92207c7.32862,-0.28123 7.85577,-0.33087 7.8469,21.70123z" fill="url(#color-1)"/><path d="M252.18764,175.83115c-0.00865,21.4935 0.22868,21.92153 -7.20694,21.92207c-7.8446,0.00057 -7.61319,-0.65075 -7.8469,-21.70123c-0.24466,-22.03736 0.28832,-21.65657 7.20694,-21.92206c7.32862,-0.28123 7.85576,-0.33088 7.8469,21.70122z" fill="url(#color-2)"/></g><g><path d="M239.70442,191.34299c3.62872,0 10.54956,2.18267 10.54956,2.18267l3.03149,33.71008h-7.63934c0,0 -1.32697,-25.53818 -2.03751,-29.57011c-0.20138,-1.1427 -3.2979,-2.07857 -3.2979,-2.07857c0,0 -3.67312,-4.24407 -0.6063,-4.24407z" fill="#343331" stroke="#000000" stroke-width="0" stroke-linecap="butt"/><path d="M259.6926,234.32553c-0.59276,0 -2.64411,0.01365 -4.70436,-0.0669c-1.25258,-0.04897 -1.90215,-0.61779 -2.83553,-0.76063c-1.17507,-0.17982 -2.93854,0.22047 -3.78778,0.02896c-1.56485,-0.35288 -2.37463,-0.77782 -2.37463,-0.77782c0,0 -0.26911,-1.0254 -0.2856,-1.5858c-0.02221,-0.75501 0.16433,-2.53701 0.16433,-2.53701c0,0 5.93425,-0.11957 8.24914,0.08076c1.36979,0.11854 4.24057,0.6468 4.24057,0.6468c0,0 1.45976,0.6156 1.67337,1.04283c0.26162,0.52325 0.87307,1.98865 0.87307,1.98865c0,0 -0.3857,1.94015 -1.21259,1.94015z" data-paper-data="{&quot;index&quot;:null}" fill="#141415" stroke="#000000" stroke-width="0" stroke-linecap="butt"/><path d="M259.4217,231.75072c-0.24822,0 0.7024,1.60165 -2.61811,1.33311c-3.13563,-0.25358 -2.77648,-1.18823 -3.8809,-1.26883c-2.30937,-0.16854 -2.58765,0.59503 -3.58732,0.44205c-0.34815,-0.05328 -0.51271,-0.11454 -1.78459,-0.97035c-0.87472,-0.58857 -0.66566,-1.75122 -1.26542,-2.3793c-0.87609,-0.91745 -0.80847,-1.8858 -0.80847,-1.8858l-0.07637,-3.04773c0,0 0.48635,2.20681 1.32529,3.03122c0.75062,0.73761 2.3169,-0.01875 2.80058,-0.01889c0.84696,-0.00024 -0.68885,-3.26804 0.12091,-3.2498c0.43542,0.00981 3.72275,-0.23409 3.72275,-0.23409c0,0 0.12302,3.57989 0.35598,3.60005c1.36979,0.11854 4.60434,0.6468 4.60434,0.6468c0,0 1.45976,0.6156 1.67338,1.04283c0.26162,0.52325 0.63055,2.95873 0.63055,2.95873c0,0 -0.3857,0 -1.2126,0z" data-paper-data="{&quot;index&quot;:null}" fill="#252527" stroke="#000000" stroke-width="0" stroke-linecap="butt"/><path d="M251.95161,228.81212l2.6677,-1.09133" fill="none" stroke="#ffffff" stroke-width="0.5" stroke-linecap="round"/><path d="M253.89176,229.1759l2.54645,-1.45511" fill="none" stroke="#ffffff" stroke-width="0.5" stroke-linecap="round"/><path d="M257.52955,227.96331l-1.45512,1.45511" fill="none" stroke="#ffffff" stroke-width="0.5" stroke-linecap="round"/><path d="M250.73902,224.93183l2.18266,-0.24252" fill="none" stroke="#969696" stroke-width="0.5" stroke-linecap="round"/><path d="M251.22406,225.78064l1.94015,-0.36378" fill="none" stroke="#969696" stroke-width="0.5" stroke-linecap="round"/></g><path d="M235.64075,163.049l-0.10049,-6.8503l7.65533,-0.1123l0.10049,6.8503z" fill="url(#color-3)" stroke="#000000" stroke-width="0" stroke-linecap="butt"/><g stroke="none" stroke-linecap="butt"><path d="M252.40179,144.06584c0.15351,7.38994 -5.45855,13.49984 -12.53488,13.64684c-7.07634,0.14699 -12.93728,-5.72457 -13.09079,-13.11451c-0.15351,-7.38994 5.45855,-13.49984 12.53488,-13.64684c7.07634,-0.14699 12.93728,5.72457 13.09079,13.11451z" fill="url(#color-4)" stroke-width="0"/><path d="M252.40179,144.06584c0.15351,7.38994 -5.45855,13.49984 -12.53488,13.64684c-7.07634,0.14699 -12.93728,-5.72457 -13.09079,-13.11451c-0.15351,-7.38994 5.45855,-13.49984 12.53488,-13.64684c7.07634,-0.14699 12.93728,5.72457 13.09079,13.11451zM252.10561,143.19216c-0.1147,-5.52166 -4.68386,-9.90486 -10.20552,-9.79015c-0.69709,0.01448 -1.37605,0.09997 -2.0301,0.24939c-0.07262,-0.00005 -0.14541,0.00068 -0.21836,0.0022c-5.52166,0.1147 -9.90486,4.68386 -9.79015,10.20552c0.0319,1.53563 0.40832,2.98318 1.05394,4.27044c1.36612,3.35774 4.50071,5.79418 8.22556,6.17906c0.97954,0.29562 2.02147,0.44476 3.09973,0.42236c5.48522,-0.11394 9.84697,-4.62377 9.79185,-10.09635c0.05809,-0.47171 0.08321,-0.95335 0.07306,-1.44247z" fill="url(#color-5)" stroke-width="0"/><path d="M245.03476,150.75345c-0.9857,0.16853 -1.15422,-0.81717 -1.15422,-0.81717l-0.05179,-0.30286c-0.21264,-1.2484 -0.32109,-2.49005 -0.43008,-3.75127c0,0 -0.08609,-0.99629 0.9102,-1.08238c0.99629,-0.08609 1.08239,0.9102 1.08239,0.9102c0.10421,1.20594 0.20401,2.39304 0.40888,3.58639l0.05179,0.30286c0,0 0.16854,0.9857 -0.81717,1.15423z" fill="#191412" stroke-width="0.5"/><path d="M248.32639,145.19959c-0.38744,-1.30295 1.64731,-4.15894 1.64731,-4.15894c0,0 2.07213,2.41188 2.13352,4.05232c0.06531,1.74537 -3.30674,1.70099 -3.78083,0.10662z" fill="#191412" stroke-width="0.5"/><path d="M235.22912,145.16179c-0.29612,-1.38026 2.53627,-4.09291 2.53627,-4.09291c0,0 2.38798,2.45845 2.21005,4.13709c-0.1893,1.78601 -4.38398,1.64481 -4.74634,-0.04416z" data-paper-data="{&quot;index&quot;:null}" fill="#191412" stroke-width="0.5"/><g fill="#00ffcc" stroke-width="0.5"><path d="M241.06838,137.87572c-0.00819,-0.39447 0.30493,-0.72088 0.6994,-0.72908c0.39447,-0.00819 0.72088,0.30493 0.72908,0.6994c0.00819,0.39447 -0.30493,0.72088 -0.6994,0.72908c-0.39447,0.00819 -0.72088,-0.30493 -0.72908,-0.6994z"/><path d="M242.9842,134.98181c-0.00819,-0.39447 0.30493,-0.72089 0.6994,-0.72909c0.39447,-0.00819 0.72088,0.30494 0.72908,0.69941c0.00819,0.39447 -0.30493,0.72088 -0.6994,0.72908c-0.39447,0.00819 -0.72088,-0.30493 -0.72908,-0.6994z"/><path d="M245.02007,137.86683c-0.00819,-0.39447 0.30493,-0.72088 0.6994,-0.72908c0.39447,-0.00819 0.72088,0.30493 0.72908,0.6994c0.00819,0.39447 -0.30493,0.72088 -0.6994,0.72908c-0.39447,0.00819 -0.72088,-0.30493 -0.72908,-0.6994z"/></g><path d="M253.02286,143.74363c0.12522,6.02751 -4.95064,11.02131 -11.33724,11.15399c-6.3866,0.13267 -11.66545,-4.64604 -11.79065,-10.67355c-0.12522,-6.02751 4.95064,-11.02131 11.33724,-11.15399c6.3866,-0.13267 11.66545,4.64604 11.79065,10.67355z" fill="url(#color-6)" stroke-width="0"/></g><g><path d="M226.12338,227.23574l3.75904,-33.71008c0,0 6.75518,-2.18267 9.822,-2.18267c3.62872,0 0.6063,4.24407 0.6063,4.24407c0,0 -3.09204,0.08829 -3.39803,1.52409c-0.93579,4.39099 -2.78619,30.12458 -2.78619,30.12458z" fill="#343331" stroke="#000000" stroke-width="0" stroke-linecap="butt"/><path d="M241.75187,232.39489c0,0 -0.3857,1.94015 -1.2126,1.94015c-0.59276,0 -2.64411,0.01366 -4.70436,-0.06689c-1.25258,-0.04897 -1.90215,-0.61779 -2.83553,-0.76063c-1.17507,-0.17983 -2.93853,0.22047 -3.78777,0.02896c-1.56485,-0.35288 -2.37463,-0.77781 -2.37463,-0.77781c0,0 -0.26912,-1.02539 -0.2856,-1.5858c-0.02221,-0.755 0.16433,-2.53701 0.16433,-2.53701c0,0 5.93424,-0.11957 8.24914,0.08075c1.36979,0.11854 4.24057,0.6468 4.24057,0.6468c0,0 1.45975,0.6156 1.67337,1.04283c0.26162,0.52325 0.87307,1.98866 0.87307,1.98866z" data-paper-data="{&quot;index&quot;:null}" fill="#141415" stroke="#000000" stroke-width="0" stroke-linecap="butt"/><path d="M241.48097,231.76025c0,0 -0.38569,0 -1.21259,0c-0.24822,0 0.70239,1.60165 -2.61811,1.33311c-3.13563,-0.25359 -2.77648,-1.18823 -3.8809,-1.26883c-2.30937,-0.16854 -2.58766,0.59503 -3.58733,0.44204c-0.34815,-0.05328 -0.51271,-0.11454 -1.78458,-0.97035c-0.87471,-0.58857 -0.66566,-1.75122 -1.26542,-2.3793c-0.87609,-0.91746 -0.80847,-1.8858 -0.80847,-1.8858l-0.07637,-3.04773c0,0 0.48635,2.20682 1.32529,3.03123c0.75062,0.73761 2.3169,-0.01875 2.80058,-0.01889c0.84695,-0.00024 -0.68885,-3.26805 0.12091,-3.24981c0.43542,0.00981 3.72275,-0.23408 3.72275,-0.23408c0,0 0.12302,3.57988 0.35598,3.60004c1.36978,0.11854 4.60434,0.6468 4.60434,0.6468c0,0 1.45975,0.6156 1.67337,1.04283c0.26163,0.52325 0.63055,2.95873 0.63055,2.95873z" data-paper-data="{&quot;index&quot;:null}" fill="#252527" stroke="#000000" stroke-width="0" stroke-linecap="butt"/><path d="M235.46599,227.7303l-2.66771,1.09134" data-paper-data="{&quot;index&quot;:null}" fill="none" stroke="#ffffff" stroke-width="0.5" stroke-linecap="round"/><path d="M234.73843,229.18542l2.54644,-1.45511" data-paper-data="{&quot;index&quot;:null}" fill="none" stroke="#ffffff" stroke-width="0.5" stroke-linecap="round"/><path d="M238.37621,227.97282l-1.45512,1.45512" data-paper-data="{&quot;index&quot;:null}" fill="none" stroke="#ffffff" stroke-width="0.5" stroke-linecap="round"/><path d="M233.76835,224.69883l-2.18267,0.24252" data-paper-data="{&quot;index&quot;:null}" fill="none" stroke="#969696" stroke-width="0.5" stroke-linecap="round"/><path d="M234.01087,225.42638l-1.94015,0.36378" data-paper-data="{&quot;index&quot;:null}" fill="none" stroke="#969696" stroke-width="0.5" stroke-linecap="round"/></g><g><path d="M275.11642,179.61433c0,0 -1.56482,-1.94655 -4.09186,-3.36221c-0.60769,-0.34043 -2.49727,-1.59762 -3.12555,-1.94072c-1.48696,-0.81205 -2.99559,-1.56045 -3.89284,-2.08231c-1.92985,-1.12243 -11.31633,-6.67424 -11.31633,-6.67424c0,0 -5.06078,-3.08549 -4.65655,-3.80143c2.95663,-5.23652 7.05271,-0.88061 7.05271,-0.88061c0,0 4.31313,3.26939 9.16813,6.35754c3.65216,2.32305 7.80131,4.4251 9.59182,5.61506c2.11909,1.40833 4.60273,3.55408 4.60273,3.55408z" data-paper-data="{&quot;index&quot;:null}" fill="url(#color-7)" stroke="#000000" stroke-width="0" stroke-linecap="butt"/><path d="M283.77659,181.46815c-0.28199,0.31949 -2.16371,-1.31416 -3.06448,-1.29725c-0.47681,0.00897 3.38563,1.81065 2.36828,2.42225c-0.34928,0.20996 -2.79632,-1.6437 -3.57463,-1.7594c-0.41665,-0.06194 3.34605,2.68404 2.69355,3.11858c-0.38734,0.25794 -2.16886,-1.34786 -3.25309,-1.84847c-0.52821,-0.24388 -3.82978,-2.48952 -3.82978,-2.48952l3.33225,-3.21485c0,0 1.83136,1.38298 3.29656,2.63752c1.31837,1.12883 2.30291,2.1235 2.03136,2.43116z" data-paper-data="{&quot;index&quot;:null}" fill="#323a3a" stroke="#000000" stroke-width="0" stroke-linecap="butt"/><path d="M255.35328,161.35785l-2.50699,4.01203" fill="none" stroke="#00ffb0" stroke-width="1" stroke-linecap="round"/><path d="M256.55971,162.04996l-2.48748,4.15766" fill="none" stroke="#00ffb0" stroke-width="1" stroke-linecap="round"/><path d="M257.80511,163.03336l-2.50699,4.01203" fill="none" stroke="#00ffb0" stroke-width="1" stroke-linecap="round"/></g><g stroke-width="0" stroke-linecap="butt"><path d="M229.81134,193.80985c0,0 0.08552,-5.56155 -0.51317,-10.93747c-0.4068,-3.6529 -1.50666,-6.93784 -1.70012,-9.42947c-0.36311,-4.67651 -0.40677,-13.3777 -0.40677,-13.3777c0,0 3.68281,-0.63886 5.46561,-0.29877c2.2694,0.43291 7.04671,2.68559 7.04671,2.68559c0,0 3.64465,-2.22431 5.55176,-2.66859c2.01225,-0.46878 6.22327,-0.07452 6.22327,-0.07452c0,0 0.06616,9.21713 -0.04122,12.65826c-0.095,3.04457 -0.79606,6.38047 -1.02384,10.88912c-0.23476,4.6469 0.00504,10.4226 0.00504,10.4226c0,0 -2.76796,-0.7288 -5.58356,-0.75572c-1.27865,-0.01223 -1.77631,1.03229 -2.98109,1.20918c-0.96299,0.14138 -2.64494,-0.57417 -3.57022,-0.59735c-0.69948,-0.01752 -2.05133,-0.50056 -2.54558,-0.49742c-0.99796,0.00634 -1.60285,0.8889 -2.75812,1.06521c-1.34198,0.20481 -3.16874,-0.29294 -3.16874,-0.29294z" fill="url(#color-8)" stroke="#292e32"/><path d="M246.68933,166.59445c3.55829,-0.08371 3.41318,0.82955 3.42909,1.9144c0.01591,1.08484 0.82773,1.9915 -3.37146,2.01416c-4.0383,0.0218 -3.31877,1.06505 -3.42909,-1.9144c-0.09033,-2.43973 -0.66563,-1.91919 3.37146,-2.01416z" data-paper-data="{&quot;index&quot;:null}" fill="#c9ffe7" stroke="#000000"/></g><g stroke="none" stroke-width="0" stroke-linecap="butt"><path d="M270.89349,187.41908l-3.30502,-3.79474l8.34843,-7.27102l3.30502,3.79475z" fill="url(#color-9)"/><path d="M270.24296,183.3543c1.59536,1.11335 1.98613,3.30922 0.87278,4.90458c-1.11336,1.59538 -3.30923,1.98614 -4.90459,0.87278c-1.59538,-1.11335 -1.98614,-3.30923 -0.87278,-4.90458c1.11336,-1.59538 3.30923,-1.98614 4.90459,-0.87278z" fill="url(#color-10)"/><path d="M281.53794,180.87445l-6.10661,-7.01685l35.27628,-28.18262l7.45214,-3.35071l-4.13594,6.93286z" fill="url(#color-11)"/><path d="M280.94502,179.73681l-4.28309,-4.80732l29.52906,-23.4544l8.4554,-5.77059l-6.64264,7.3996z" fill="url(#color-12)"/><path d="M272.24246,166.66372c0,0 3.56484,7.16893 6.06359,10.22589c2.74352,3.35643 9.73185,9.09829 9.73185,9.09829c0,0 -9.01005,-4.36214 -11.67092,-7.61746c-2.603,-3.18451 -4.12451,-11.70673 -4.12451,-11.70673z" fill="url(#color-13)"/></g><g><path d="M261.99351,183.68974c0,0 -4.26803,-1.15365 -7.432,-2.47034c-2.67338,-1.11255 -8.4439,-2.79828 -13.77912,-5.14952c-7.09236,-3.1256 -7.68992,-2.38742 -11.72796,-6.64163c-4.03806,-4.25422 -7.27904,-7.92627 -2.31672,-9.89635c4.942,0.05842 6.81207,4.66852 10.01729,6.43265c3.20522,1.76413 6.86211,4.04543 9.56249,5.37053c1.2555,0.61608 3.46914,0.86366 5.49014,1.92621c0.85391,0.44894 3.67677,1.62196 4.51238,2.04946c3.47483,1.77771 6.83613,2.03675 6.83613,2.03675z" data-paper-data="{&quot;index&quot;:null}" fill="url(#color-14)" stroke="#000000" stroke-width="0" stroke-linecap="butt"/><path d="M267.42047,185.38664c-2.50507,-0.68948 -5.42696,-1.69692 -5.42696,-1.69692l1.16262,-6.34226c0,0 4.98763,2.01096 5.65515,2.42349c1.37017,0.84676 4.507,1.62184 4.50269,2.268c-0.00723,1.08848 -5.90257,-1.05646 -5.52348,-0.62845c0.70812,0.79955 4.61879,2.14112 4.64052,2.70596c0.06323,1.6453 -4.83858,-1.35674 -4.49503,-0.8041c0.64902,1.04402 3.89165,1.91182 3.73964,2.48585c-0.14638,0.55278 -2.00112,0.20881 -4.25518,-0.41158z" data-paper-data="{&quot;index&quot;:null}" fill="#323a3a" stroke="#000000" stroke-width="0" stroke-linecap="butt"/><path d="M232.49603,163.27504l-3.64796,5.86563" fill="none" stroke="#00ffb0" stroke-width="1" stroke-linecap="round"/><path d="M230.62891,170.65543l3.75866,-6.09543" fill="none" stroke="#00ffb0" stroke-width="1" stroke-linecap="round"/><path d="M236.17128,166.00422l-3.33275,5.98429" fill="none" stroke="#00ffb0" stroke-width="1" stroke-linecap="round"/></g></g></g></svg>