<svg version="1.1" xmlns="http://www.w3.org/2000/svg" xmlns:xlink="http://www.w3.org/1999/xlink" width="59" height="59.70662" viewBox="0,0,59,59.70662"><defs><linearGradient x1="240" y1="151.6467" x2="240" y2="208.35332" gradientUnits="userSpaceOnUse" id="color-1"><stop offset="0" stop-color="#191919"/><stop offset="1" stop-color="#050505"/></linearGradient><linearGradient x1="240" y1="151.6467" x2="240" y2="208.35332" gradientUnits="userSpaceOnUse" id="color-2"><stop offset="0" stop-color="#cccccc"/><stop offset="1" stop-color="#898989"/></linearGradient><radialGradient cx="240" cy="180.00001" r="26.8571" gradientUnits="userSpaceOnUse" id="color-3"><stop offset="0" stop-color="#ffffff" stop-opacity="0.35484"/><stop offset="1" stop-color="#ffffff" stop-opacity="0"/></radialGradient><linearGradient x1="240" y1="153.29212" x2="240" y2="206.7079" gradientUnits="userSpaceOnUse" id="color-4"><stop offset="0" stop-color="#cccccc"/><stop offset="1" stop-color="#898989"/></linearGradient><linearGradient x1="242.32427" y1="198.84034" x2="243.14647" y2="198.84034" gradientUnits="userSpaceOnUse" id="color-5"><stop offset="0" stop-color="#525252"/><stop offset="1" stop-color="#363636"/></linearGradient><linearGradient x1="242.32427" y1="198.84034" x2="243.14647" y2="198.84034" gradientUnits="userSpaceOnUse" id="color-6"><stop offset="0" stop-color="#1f1f1f"/><stop offset="1" stop-color="#000000"/></linearGradient><linearGradient x1="234.80448" y1="199.67571" x2="244.95067" y2="199.67571" gradientUnits="userSpaceOnUse" id="color-7"><stop offset="0" stop-color="#2f2f2f"/><stop offset="1" stop-color="#040404"/></linearGradient><linearGradient x1="234.80448" y1="199.67571" x2="244.95067" y2="199.67571" gradientUnits="userSpaceOnUse" id="color-8"><stop offset="0" stop-color="#1f1f1f"/><stop offset="1" stop-color="#000000"/></linearGradient><linearGradient x1="238.27647" y1="196.89023" x2="241.50206" y2="196.89023" gradientUnits="userSpaceOnUse" id="color-9"><stop offset="0" stop-color="#444444"/><stop offset="1" stop-color="#252525"/></linearGradient><linearGradient x1="237.2329" y1="198.95691" x2="242.41914" y2="198.95691" gradientUnits="userSpaceOnUse" id="color-10"><stop offset="0" stop-color="#444444"/><stop offset="1" stop-color="#252525"/></linearGradient><linearGradient x1="236.35747" y1="201.23838" x2="243.32002" y2="201.23838" gradientUnits="userSpaceOnUse" id="color-11"><stop offset="0" stop-color="#444444"/><stop offset="1" stop-color="#252525"/></linearGradient><linearGradient x1="235.43037" y1="203.51068" x2="244.28492" y2="203.51068" gradientUnits="userSpaceOnUse" id="color-12"><stop offset="0" stop-color="#444444"/><stop offset="1" stop-color="#252525"/></linearGradient><linearGradient x1="241.53334" y1="196.14461" x2="244.09532" y2="196.14461" gradientUnits="userSpaceOnUse" id="color-13"><stop offset="0" stop-color="#b2b2b2"/><stop offset="1" stop-color="#363636"/></linearGradient><linearGradient x1="241.53334" y1="196.14461" x2="244.09532" y2="196.14461" gradientUnits="userSpaceOnUse" id="color-14"><stop offset="0" stop-color="#1f1f1f"/><stop offset="1" stop-color="#000000"/></linearGradient><linearGradient x1="234.01258" y1="188.47189" x2="245.92406" y2="188.47189" gradientUnits="userSpaceOnUse" id="color-15"><stop offset="0" stop-color="#b89a9a"/><stop offset="1" stop-color="#8d7070"/></linearGradient><linearGradient x1="234.01258" y1="188.47189" x2="245.92406" y2="188.47189" gradientUnits="userSpaceOnUse" id="color-16"><stop offset="0" stop-color="#260000"/><stop offset="1" stop-color="#100000"/></linearGradient><linearGradient x1="245.00005" y1="192.66344" x2="250.02916" y2="192.66344" gradientUnits="userSpaceOnUse" id="color-17"><stop offset="0" stop-color="#362424"/><stop offset="1" stop-color="#1f1414"/></linearGradient><linearGradient x1="245.00005" y1="192.83621" x2="248.43989" y2="192.83621" gradientUnits="userSpaceOnUse" id="color-18"><stop offset="0" stop-color="#272727"/><stop offset="1" stop-color="#000000"/></linearGradient><linearGradient x1="234.99995" y1="192.61073" x2="229.97085" y2="192.61073" gradientUnits="userSpaceOnUse" id="color-19"><stop offset="0" stop-color="#6b4a4a"/><stop offset="1" stop-color="#825959"/></linearGradient><linearGradient x1="231.56011" y1="192.7835" x2="234.99995" y2="192.7835" gradientUnits="userSpaceOnUse" id="color-20"><stop offset="0" stop-color="#272727"/><stop offset="1" stop-color="#000000"/></linearGradient><linearGradient x1="234.98598" y1="188.55388" x2="245.01209" y2="188.55388" gradientUnits="userSpaceOnUse" id="color-21"><stop offset="0" stop-color="#634343"/><stop offset="1" stop-color="#211414"/></linearGradient><linearGradient x1="234.98598" y1="188.55388" x2="245.01209" y2="188.55388" gradientUnits="userSpaceOnUse" id="color-22"><stop offset="0" stop-color="#272727"/><stop offset="1" stop-color="#000000"/></linearGradient><linearGradient x1="235.64646" y1="182.85999" x2="244.29018" y2="182.85999" gradientUnits="userSpaceOnUse" id="color-23"><stop offset="0" stop-color="#b89a9a"/><stop offset="1" stop-color="#8d7070"/></linearGradient><linearGradient x1="235.64646" y1="182.85999" x2="244.29018" y2="182.85999" gradientUnits="userSpaceOnUse" id="color-24"><stop offset="0" stop-color="#260000"/><stop offset="1" stop-color="#100000"/></linearGradient><linearGradient x1="235.64646" y1="185.91691" x2="244.29018" y2="185.91691" gradientUnits="userSpaceOnUse" id="color-25"><stop offset="0" stop-color="#b89a9a"/><stop offset="1" stop-color="#8d7070"/></linearGradient><linearGradient x1="235.64646" y1="185.91691" x2="244.29018" y2="185.91691" gradientUnits="userSpaceOnUse" id="color-26"><stop offset="0" stop-color="#260000"/><stop offset="1" stop-color="#100000"/></linearGradient><linearGradient x1="240.35743" y1="189.01659" x2="244.29002" y2="189.01659" gradientUnits="userSpaceOnUse" id="color-27"><stop offset="0" stop-color="#2c4a2e"/><stop offset="1" stop-color="#1d301b"/></linearGradient><linearGradient x1="240.35743" y1="189.01659" x2="244.29002" y2="189.01659" gradientUnits="userSpaceOnUse" id="color-28"><stop offset="0" stop-color="#123614"/><stop offset="1" stop-color="#0d1a0e"/></linearGradient><linearGradient x1="240.34685" y1="189.01807" x2="244.27035" y2="189.01807" gradientUnits="userSpaceOnUse" id="color-29"><stop offset="0" stop-color="#123614"/><stop offset="1" stop-color="#0d1a0e"/></linearGradient><linearGradient x1="240.34685" y1="188.9882" x2="244.27035" y2="188.9882" gradientUnits="userSpaceOnUse" id="color-30"><stop offset="0" stop-color="#123614"/><stop offset="1" stop-color="#0d1a0e"/></linearGradient><linearGradient x1="235.65719" y1="189.03651" x2="239.58979" y2="189.03651" gradientUnits="userSpaceOnUse" id="color-31"><stop offset="0" stop-color="#2c4a2e"/><stop offset="1" stop-color="#1d301b"/></linearGradient><linearGradient x1="235.65719" y1="189.03651" x2="239.58979" y2="189.03651" gradientUnits="userSpaceOnUse" id="color-32"><stop offset="0" stop-color="#123614"/><stop offset="1" stop-color="#0d1a0e"/></linearGradient><linearGradient x1="235.64662" y1="189.03799" x2="239.57012" y2="189.03799" gradientUnits="userSpaceOnUse" id="color-33"><stop offset="0" stop-color="#123614"/><stop offset="1" stop-color="#0d1a0e"/></linearGradient><linearGradient x1="235.64662" y1="189.00811" x2="239.57012" y2="189.00811" gradientUnits="userSpaceOnUse" id="color-34"><stop offset="0" stop-color="#123614"/><stop offset="1" stop-color="#0d1a0e"/></linearGradient><linearGradient x1="240.35743" y1="193.7601" x2="244.29002" y2="193.7601" gradientUnits="userSpaceOnUse" id="color-35"><stop offset="0" stop-color="#2c4a2e"/><stop offset="1" stop-color="#1d301b"/></linearGradient><linearGradient x1="240.35743" y1="193.7601" x2="244.29002" y2="193.7601" gradientUnits="userSpaceOnUse" id="color-36"><stop offset="0" stop-color="#123614"/><stop offset="1" stop-color="#0d1a0e"/></linearGradient><linearGradient x1="240.34685" y1="193.76158" x2="244.27035" y2="193.76158" gradientUnits="userSpaceOnUse" id="color-37"><stop offset="0" stop-color="#123614"/><stop offset="1" stop-color="#0d1a0e"/></linearGradient><linearGradient x1="240.34685" y1="193.73171" x2="244.27035" y2="193.73171" gradientUnits="userSpaceOnUse" id="color-38"><stop offset="0" stop-color="#123614"/><stop offset="1" stop-color="#0d1a0e"/></linearGradient><linearGradient x1="235.65719" y1="193.78002" x2="239.58979" y2="193.78002" gradientUnits="userSpaceOnUse" id="color-39"><stop offset="0" stop-color="#2c4a2e"/><stop offset="1" stop-color="#1d301b"/></linearGradient><linearGradient x1="235.65719" y1="193.78002" x2="239.58979" y2="193.78002" gradientUnits="userSpaceOnUse" id="color-40"><stop offset="0" stop-color="#123614"/><stop offset="1" stop-color="#0d1a0e"/></linearGradient><linearGradient x1="235.64662" y1="193.7815" x2="239.57012" y2="193.7815" gradientUnits="userSpaceOnUse" id="color-41"><stop offset="0" stop-color="#123614"/><stop offset="1" stop-color="#0d1a0e"/></linearGradient><linearGradient x1="235.64662" y1="193.75162" x2="239.57012" y2="193.75162" gradientUnits="userSpaceOnUse" id="color-42"><stop offset="0" stop-color="#123614"/><stop offset="1" stop-color="#0d1a0e"/></linearGradient><linearGradient x1="234.90159" y1="168.55623" x2="245.04777" y2="168.55623" gradientUnits="userSpaceOnUse" id="color-43"><stop offset="0" stop-color="#9c5555"/><stop offset="1" stop-color="#453131"/></linearGradient><linearGradient x1="234.90159" y1="168.55305" x2="245.04778" y2="168.55305" gradientUnits="userSpaceOnUse" id="color-44"><stop offset="0" stop-color="#272727"/><stop offset="1" stop-color="#000000"/></linearGradient><linearGradient x1="237.7477" y1="164.14235" x2="241.88544" y2="164.14235" gradientUnits="userSpaceOnUse" id="color-45"><stop offset="0" stop-color="#f7d6d6"/><stop offset="1" stop-color="#805e5e"/></linearGradient><linearGradient x1="237.7477" y1="164.14195" x2="241.88544" y2="164.14195" gradientUnits="userSpaceOnUse" id="color-46"><stop offset="0" stop-color="#272727"/><stop offset="1" stop-color="#000000"/></linearGradient><linearGradient x1="237.24015" y1="166.18255" x2="242.53392" y2="166.18255" gradientUnits="userSpaceOnUse" id="color-47"><stop offset="0" stop-color="#452a2a"/><stop offset="1" stop-color="#260f0f"/></linearGradient><linearGradient x1="236.74071" y1="167.92184" x2="243.1168" y2="167.92184" gradientUnits="userSpaceOnUse" id="color-48"><stop offset="0" stop-color="#452a2a"/><stop offset="1" stop-color="#260f0f"/></linearGradient><linearGradient x1="236.2731" y1="169.6295" x2="243.58918" y2="169.6295" gradientUnits="userSpaceOnUse" id="color-49"><stop offset="0" stop-color="#452a2a"/><stop offset="1" stop-color="#260f0f"/></linearGradient><linearGradient x1="235.775" y1="171.27391" x2="244.13046" y2="171.27391" gradientUnits="userSpaceOnUse" id="color-50"><stop offset="0" stop-color="#452a2a"/><stop offset="1" stop-color="#260f0f"/></linearGradient><linearGradient x1="239.04597" y1="161.62839" x2="240.67985" y2="161.62839" gradientUnits="userSpaceOnUse" id="color-51"><stop offset="0" stop-color="#443939"/><stop offset="1" stop-color="#251e1e"/></linearGradient><linearGradient x1="239.04597" y1="161.62839" x2="240.67985" y2="161.62839" gradientUnits="userSpaceOnUse" id="color-52"><stop offset="0" stop-color="#262626"/><stop offset="1" stop-color="#0f0f0f"/></linearGradient><linearGradient x1="239.57303" y1="158.4397" x2="240.2055" y2="158.4397" gradientUnits="userSpaceOnUse" id="color-53"><stop offset="0" stop-color="#ccbebe"/><stop offset="1" stop-color="#656161"/></linearGradient><linearGradient x1="239.57303" y1="158.4397" x2="240.2055" y2="158.4397" gradientUnits="userSpaceOnUse" id="color-54"><stop offset="0" stop-color="#262626"/><stop offset="1" stop-color="#0f0f0f"/></linearGradient><linearGradient x1="234.95527" y1="177.00967" x2="244.98138" y2="177.00967" gradientUnits="userSpaceOnUse" id="color-55"><stop offset="0" stop-color="#303030"/><stop offset="1" stop-color="#171717"/></linearGradient><linearGradient x1="234.95527" y1="177.00967" x2="244.98138" y2="177.00967" gradientUnits="userSpaceOnUse" id="color-56"><stop offset="0" stop-color="#272727"/><stop offset="1" stop-color="#000000"/></linearGradient><radialGradient cx="239.96832" cy="177.00967" r="4.15932" gradientUnits="userSpaceOnUse" id="color-57"><stop offset="0" stop-color="#734c45" stop-opacity="0.40995"/><stop offset="1" stop-color="#734c45" stop-opacity="0"/></radialGradient><radialGradient cx="239.96832" cy="176.99487" r="3.37676" gradientUnits="userSpaceOnUse" id="color-58"><stop offset="0" stop-color="#eb8c73" stop-opacity="0.60996"/><stop offset="1" stop-color="#eb8c73" stop-opacity="0"/></radialGradient><radialGradient cx="239.96832" cy="176.99487" r="2.85871" gradientUnits="userSpaceOnUse" id="color-59"><stop offset="0" stop-color="#ff734f" stop-opacity="0"/><stop offset="1" stop-color="#ff734f" stop-opacity="0.08997"/></radialGradient><radialGradient cx="239.96832" cy="176.99487" r="2.35073" gradientUnits="userSpaceOnUse" id="color-60"><stop offset="0" stop-color="#ffa282" stop-opacity="0.11996"/><stop offset="1" stop-color="#ffab8f"/></radialGradient><linearGradient x1="235.09634" y1="177.00307" x2="235.76834" y2="177.00307" gradientUnits="userSpaceOnUse" id="color-61"><stop offset="0" stop-color="#9d9d9d"/><stop offset="1" stop-color="#4c4c4c"/></linearGradient><linearGradient x1="235.09634" y1="177.00307" x2="235.76834" y2="177.00307" gradientUnits="userSpaceOnUse" id="color-62"><stop offset="0" stop-color="#272727"/><stop offset="1" stop-color="#000000"/></linearGradient><linearGradient x1="244.18807" y1="177.00307" x2="244.86007" y2="177.00307" gradientUnits="userSpaceOnUse" id="color-63"><stop offset="0" stop-color="#9d9d9d"/><stop offset="1" stop-color="#4c4c4c"/></linearGradient><linearGradient x1="244.18807" y1="177.00307" x2="244.86007" y2="177.00307" gradientUnits="userSpaceOnUse" id="color-64"><stop offset="0" stop-color="#272727"/><stop offset="1" stop-color="#000000"/></linearGradient><linearGradient x1="235.07799" y1="178.24612" x2="244.85865" y2="178.24612" gradientUnits="userSpaceOnUse" id="color-65"><stop offset="0" stop-color="#272727"/><stop offset="1" stop-color="#000000"/></linearGradient><linearGradient x1="235.07799" y1="178.2579" x2="244.85865" y2="178.2579" gradientUnits="userSpaceOnUse" id="color-66"><stop offset="0" stop-color="#272727"/><stop offset="1" stop-color="#000000"/></linearGradient><linearGradient x1="235.10058" y1="175.64848" x2="244.88124" y2="175.64848" gradientUnits="userSpaceOnUse" id="color-67"><stop offset="0" stop-color="#272727"/><stop offset="1" stop-color="#000000"/></linearGradient><linearGradient x1="235.10058" y1="175.66027" x2="244.88124" y2="175.66027" gradientUnits="userSpaceOnUse" id="color-68"><stop offset="0" stop-color="#272727"/><stop offset="1" stop-color="#000000"/></linearGradient><linearGradient x1="234.98127" y1="179.9088" x2="244.86358" y2="179.9088" gradientUnits="userSpaceOnUse" id="color-69"><stop offset="0" stop-color="#c7a895"/><stop offset="1" stop-color="#322c27"/></linearGradient><linearGradient x1="234.98127" y1="179.9088" x2="244.86358" y2="179.9088" gradientUnits="userSpaceOnUse" id="color-70"><stop offset="0" stop-color="#272727"/><stop offset="1" stop-color="#000000"/></linearGradient><linearGradient x1="235.02645" y1="174.12623" x2="244.90876" y2="174.12623" gradientUnits="userSpaceOnUse" id="color-71"><stop offset="0" stop-color="#c7a895"/><stop offset="1" stop-color="#322c27"/></linearGradient><linearGradient x1="235.02645" y1="174.12623" x2="244.90876" y2="174.12623" gradientUnits="userSpaceOnUse" id="color-72"><stop offset="0" stop-color="#272727"/><stop offset="1" stop-color="#000000"/></linearGradient></defs><g transform="translate(-210.5,-150.14669)"><g data-paper-data="{&quot;isPaintingLayer&quot;:true}" fill-rule="nonzero" stroke-linejoin="miter" stroke-miterlimit="10" stroke-dasharray="" stroke-dashoffset="0" style="mix-blend-mode: normal"><path d="M212,208.35332v-56.70662h56v56.70662z" fill="url(#color-1)" stroke="url(#color-2)" stroke-width="3" stroke-linecap="butt"/><path d="M266.8571,180.00001c0,14.75036 -12.02433,26.70789 -26.8571,26.70789c-14.83277,0 -26.8571,-11.95753 -26.8571,-26.70789c0,-14.75036 12.02433,-26.70789 26.8571,-26.70789c14.83277,0 26.8571,11.95753 26.8571,26.70789z" fill="url(#color-3)" stroke="url(#color-4)" stroke-width="0" stroke-linecap="butt"/><g stroke-width="0.25"><path d="M242.32427,200.20015v-2.71961h0.82221v2.71961z" fill="url(#color-5)" stroke="url(#color-6)" stroke-linecap="butt"/><path d="M234.80448,204.74901c0,0 3.78853,-10.22058 5.07378,-10.14618c1.47031,0.08511 5.0724,10.14618 5.0724,10.14618z" fill="url(#color-7)" stroke="url(#color-8)" stroke-linecap="butt"/><path d="M238.27647,196.89023h3.22559" fill="none" stroke="url(#color-9)" stroke-linecap="round"/><path d="M237.2329,198.95691h5.18624" fill="none" stroke="url(#color-10)" stroke-linecap="round"/><path d="M236.35747,201.23838h6.96255" fill="none" stroke="url(#color-11)" stroke-linecap="round"/><path d="M244.28492,203.51068h-8.85455" fill="none" stroke="url(#color-12)" stroke-linecap="round"/><path d="M244.09532,196.14461c-0.00959,1.20462 -0.03994,1.33351 -1.28099,1.32074c-1.24145,-0.01277 -1.29639,-0.176 -1.28099,-1.32074c0.017,-1.26387 0.01339,-1.35172 1.28099,-1.32074c1.21453,0.02968 1.29152,-0.00205 1.28099,1.32074z" fill="url(#color-13)" stroke="url(#color-14)" stroke-linecap="butt"/></g><g stroke-width="0.25" stroke-linecap="butt"><path d="M234.01258,193.48018v-10.01656c0,0 3.89748,-1.3415 5.83252,-1.3415c2.03082,0 6.07896,1.3415 6.07896,1.3415v10.01656z" fill="url(#color-15)" stroke="url(#color-16)"/><path d="M245.00005,196.78911v-10.25416c0,0 1.29041,6.88339 1.74157,8.54534c0.35695,1.31489 1.69826,4.05717 1.69826,4.05717z" fill="url(#color-17)" stroke="url(#color-18)"/><path d="M231.56011,199.08476c0,0 1.34131,-2.74227 1.69826,-4.05717c0.45116,-1.66195 1.74157,-8.54534 1.74157,-8.54534v10.25416z" data-paper-data="{&quot;index&quot;:null}" fill="url(#color-19)" stroke="url(#color-20)"/><path d="M234.98598,196.77889v-16.45002h10.02611v16.45002z" fill="url(#color-21)" stroke="url(#color-22)"/><path d="M235.64646,184.8628v-4.00563h8.64373v4.00563z" fill="url(#color-23)" stroke="url(#color-24)"/><path d="M235.64646,186.49668v-1.15952h8.64373v1.15952z" fill="url(#color-25)" stroke="url(#color-26)"/></g><g stroke-width="0.25"><path d="M240.35743,191.0638v-4.09441h3.9326v4.09441z" fill="url(#color-27)" stroke="url(#color-28)" stroke-linecap="butt"/><path d="M244.27035,187.02645l-3.9235,3.98325" fill="none" stroke="url(#color-29)" stroke-linecap="round"/><path d="M240.38668,186.98662l3.88367,4.043" fill="none" stroke="url(#color-30)" stroke-linecap="round"/><path d="M235.65719,191.08371v-4.09441h3.9326v4.09441z" fill="url(#color-31)" stroke="url(#color-32)" stroke-linecap="butt"/><path d="M239.57012,187.04636l-3.9235,3.98325" fill="none" stroke="url(#color-33)" stroke-linecap="round"/><path d="M235.68645,187.00653l3.88367,4.043" fill="none" stroke="url(#color-34)" stroke-linecap="round"/><path d="M240.35743,195.8073v-4.09441h3.9326v4.09441z" fill="url(#color-35)" stroke="url(#color-36)" stroke-linecap="butt"/><path d="M240.34685,195.75321l3.9235,-3.98325" fill="none" stroke="url(#color-37)" stroke-linecap="round"/><path d="M244.27035,195.77312l-3.88367,-4.043" fill="none" stroke="url(#color-38)" stroke-linecap="round"/><path d="M235.65719,195.82722v-4.09441h3.9326v4.09441z" fill="url(#color-39)" stroke="url(#color-40)" stroke-linecap="butt"/><path d="M235.64662,195.77312l3.9235,-3.98325" fill="none" stroke="url(#color-41)" stroke-linecap="round"/><path d="M235.68645,191.75004l3.88367,4.043" fill="none" stroke="url(#color-42)" stroke-linecap="round"/></g><g stroke-width="0.25" stroke-linecap="butt"><path d="M234.90159,173.62953c0,0 3.417,-12.53077 5.04356,-12.53077c1.04346,0 5.10263,12.53077 5.10263,12.53077z" fill="url(#color-43)" stroke="url(#color-44)"/><path d="M237.7477,164.78423c0,0 1.62227,-3.798 2.12672,-3.81358c0.45859,-0.01417 2.05055,3.81358 2.05055,3.81358z" fill="url(#color-45)" stroke="url(#color-46)"/><path d="M237.05918,166.83148c0,0 0.08783,-0.20333 0.21685,-0.44531c0.15141,-0.28396 0.40221,-0.62114 1.26884,-0.74536c0.03362,-0.00482 0.66531,-0.07543 0.66531,-0.07543l1.37426,0.00302c0,0 0.47506,0.02421 0.50296,0.02893c0.82016,0.1388 1.12815,0.48732 1.30056,0.77873c0.14701,0.24847 0.23645,0.45542 0.23645,0.45542z" data-paper-data="{&quot;index&quot;:null}" fill="url(#color-47)" stroke="#000000"/><path d="M236.52274,168.57077c0,0 0.10578,-0.20333 0.26118,-0.44531c0.18237,-0.28396 0.48444,-0.62114 1.52826,-0.74536c0.0405,-0.00482 0.80134,-0.07543 0.80134,-0.07543l1.65523,0.00302c0,0 0.57219,0.02421 0.60579,0.02893c0.98785,0.1388 1.3588,0.48732 1.56646,0.77873c0.17706,0.24847 0.28479,0.45542 0.28479,0.45542z" data-paper-data="{&quot;index&quot;:null}" fill="url(#color-48)" stroke="#000000"/><path d="M236.023,170.27843c0,0 0.12138,-0.20333 0.29969,-0.44531c0.20925,-0.28396 0.55586,-0.62114 1.75356,-0.74536c0.04647,-0.00482 0.91947,-0.07543 0.91947,-0.07543l1.89925,0.00302c0,0 0.65654,0.02421 0.6951,0.02893c1.13348,0.1388 1.55912,0.48732 1.79739,0.77873c0.20316,0.24847 0.32678,0.45542 0.32678,0.45542z" data-paper-data="{&quot;index&quot;:null}" fill="url(#color-49)" stroke="#000000"/><path d="M235.48936,171.92285c0,0 0.13862,-0.20333 0.34226,-0.44531c0.23898,-0.28396 0.63483,-0.62114 2.00269,-0.74536c0.05307,-0.00482 1.0501,-0.07543 1.0501,-0.07543l2.16907,0.00302c0,0 0.74982,0.02421 0.79385,0.02893c1.29451,0.1388 1.78062,0.48732 2.05274,0.77873c0.23203,0.24847 0.3732,0.45542 0.3732,0.45542z" data-paper-data="{&quot;index&quot;:null}" fill="url(#color-50)" stroke="#000000"/><path d="M240.67985,161.62839c0,0.17465 -0.36576,0.31623 -0.81694,0.31623c-0.45118,0 -0.81694,-0.14158 -0.81694,-0.31623c0,-0.17465 0.36576,-0.31623 0.81694,-0.31623c0.45118,0 0.81694,0.14158 0.81694,0.31623z" fill="url(#color-51)" stroke="url(#color-52)"/><path d="M239.57303,161.62839v-6.37738h0.63247v6.37738z" fill="url(#color-53)" stroke="url(#color-54)"/></g><g stroke-width="0.25"><path d="M234.95527,180.29352v-6.56771h10.02611v6.56771z" fill="url(#color-55)" stroke="url(#color-56)" stroke-linecap="butt"/><path d="M235.809,177.00967c0,-2.29712 1.86219,-4.15932 4.15932,-4.15932c2.29712,0 4.15932,1.86219 4.15932,4.15932c0,2.29712 -1.86219,4.15932 -4.15932,4.15932c-2.29712,0 -4.15932,-1.86219 -4.15932,-4.15932z" fill="url(#color-57)" stroke="none" stroke-linecap="butt"/><path d="M236.59156,176.99487c0,-1.86493 1.51183,-3.37676 3.37676,-3.37676c1.86493,0 3.37676,1.51183 3.37676,3.37676c0,1.86493 -1.51183,3.37676 -3.37676,3.37676c-1.86493,0 -3.37676,-1.51183 -3.37676,-3.37676z" fill="url(#color-58)" stroke="none" stroke-linecap="butt"/><path d="M237.10961,176.99487c0,-1.57882 1.27989,-2.85871 2.85871,-2.85871c1.57882,0 2.85871,1.27989 2.85871,2.85871c0,1.57882 -1.27989,2.85871 -2.85871,2.85871c-1.57882,0 -2.85871,-1.27989 -2.85871,-2.85871z" fill="url(#color-59)" stroke="none" stroke-linecap="butt"/><path d="M237.61759,176.99487c0,-1.29827 1.05246,-2.35073 2.35073,-2.35073c1.29827,0 2.35073,1.05245 2.35073,2.35073c0,1.29827 -1.05246,2.35073 -2.35073,2.35073c-1.29827,0 -2.35073,-1.05246 -2.35073,-2.35073z" fill="url(#color-60)" stroke="none" stroke-linecap="butt"/><path d="M235.09634,179.57247v-5.1388h0.672v5.1388z" fill="url(#color-61)" stroke="url(#color-62)" stroke-linecap="butt"/><path d="M244.18807,179.57247v-5.1388h0.672v5.1388z" fill="url(#color-63)" stroke="url(#color-64)" stroke-linecap="butt"/><path d="M235.07799,179.59552l0.54212,-2.69879l0.51953,2.69879l0.70023,-2.67522l0.70023,2.66344l1.21976,-2.66344l1.17458,2.67522l1.03905,-2.66344l1.17458,2.65165l0.79058,-2.65165l0.85835,2.67522l0.54212,-2.66344l0.51953,2.63987" fill="none" stroke="url(#color-65)" stroke-linecap="round"/><path d="M244.85865,176.92029l-0.51953,2.63987l-0.54212,-2.66344l-0.85835,2.67522l-0.79058,-2.65165l-1.17458,2.65165l-1.03905,-2.66344l-1.17458,2.67522l-1.21976,-2.66344l-0.70023,2.66344l-0.70023,-2.67522l-0.51953,2.69879l-0.54212,-2.69879" data-paper-data="{&quot;index&quot;:null}" fill="none" stroke="url(#color-66)" stroke-linecap="round"/><path d="M235.10058,176.99788l0.54212,-2.69879l0.51953,2.69879l0.70023,-2.67522l0.70023,2.66344l1.21976,-2.66344l1.17458,2.67522l1.03905,-2.66344l1.17458,2.65165l0.79058,-2.65165l0.85835,2.67522l0.54212,-2.66344l0.51953,2.63987" fill="none" stroke="url(#color-67)" stroke-linecap="round"/><path d="M244.88124,174.32266l-0.51953,2.63987l-0.54212,-2.66344l-0.85835,2.67522l-0.79058,-2.65165l-1.17458,2.65165l-1.03905,-2.66344l-1.17458,2.67522l-1.21976,-2.66344l-0.70023,2.66344l-0.70023,-2.67522l-0.51953,2.69879l-0.54212,-2.69879" data-paper-data="{&quot;index&quot;:null}" fill="none" stroke="url(#color-68)" stroke-linecap="round"/><path d="M234.98127,180.19868v-0.57976h9.88231v0.57976z" fill="url(#color-69)" stroke="url(#color-70)" stroke-linecap="butt"/><path d="M235.02645,174.41612v-0.57976h9.88231v0.57976z" fill="url(#color-71)" stroke="url(#color-72)" stroke-linecap="butt"/></g><path d="M215.27327,167.03274v-12.39235h25.93332v8.69862h-15.56684v3.69373z" fill-opacity="0.53453" fill="#000000" stroke="#a60000" stroke-width="0" stroke-linecap="butt"/><text transform="translate(215.70712,161.61519) scale(0.21839,0.21839)" font-size="40" xml:space="preserve" fill="#ffffff" fill-rule="nonzero" stroke="#000000" stroke-width="0" stroke-linecap="butt" stroke-linejoin="miter" stroke-miterlimit="10" stroke-dasharray="" stroke-dashoffset="0" font-family="Serif" font-weight="normal" text-anchor="start" style="mix-blend-mode: normal"><tspan x="0" dy="0">Rocket</tspan></text><text transform="translate(215.56527,166.16682) scale(0.11601,0.11601)" font-size="40" xml:space="preserve" fill="#ffffff" fill-rule="nonzero" stroke="#000000" stroke-width="0" stroke-linecap="butt" stroke-linejoin="miter" stroke-miterlimit="10" stroke-dasharray="" stroke-dashoffset="0" font-family="Serif" font-weight="normal" text-anchor="start" style="mix-blend-mode: normal"><tspan x="0" dy="0">4-1-2</tspan></text></g></g></svg>