<svg version="1.1" xmlns="http://www.w3.org/2000/svg" xmlns:xlink="http://www.w3.org/1999/xlink" width="151.84069" height="176.95201" viewBox="0,0,151.84069,176.95201"><defs><linearGradient x1="197.56537" y1="76.60085" x2="198.47392" y2="112.84774" gradientUnits="userSpaceOnUse" id="color-1"><stop offset="0" stop-color="#4a4a4a" stop-opacity="0"/><stop offset="1" stop-color="#4a4a4a" stop-opacity="0.33725"/></linearGradient><linearGradient x1="199.9473" y1="74.98987" x2="198.74641" y2="114.18237" gradientUnits="userSpaceOnUse" id="color-2"><stop offset="0" stop-color="#292929" stop-opacity="0"/><stop offset="1" stop-color="#292929" stop-opacity="0.36863"/></linearGradient><linearGradient x1="201.94622" y1="77.72068" x2="198.0725" y2="113.62227" gradientUnits="userSpaceOnUse" id="color-3"><stop offset="0" stop-color="#383838" stop-opacity="0"/><stop offset="1" stop-color="#383838" stop-opacity="0.33333"/></linearGradient><linearGradient x1="199.26824" y1="79.13264" x2="198.51044" y2="112.58201" gradientUnits="userSpaceOnUse" id="color-4"><stop offset="0" stop-color="#4a4a4a" stop-opacity="0"/><stop offset="1" stop-color="#4a4a4a" stop-opacity="0.21176"/></linearGradient><linearGradient x1="242.06483" y1="210.48631" x2="242.06483" y2="134.40733" gradientUnits="userSpaceOnUse" id="color-5"><stop offset="0" stop-color="#000000" stop-opacity="0"/><stop offset="1" stop-color="#000000" stop-opacity="0"/></linearGradient><radialGradient cx="187.32384" cy="240.51533" r="44.2973" gradientUnits="userSpaceOnUse" id="color-6"><stop offset="0" stop-color="#a3cdff"/><stop offset="1" stop-color="#446db8"/></radialGradient><linearGradient x1="247.87101" y1="244.27481" x2="175.75722" y2="244.12412" gradientUnits="userSpaceOnUse" id="color-7"><stop offset="0" stop-color="#464646"/><stop offset="1" stop-color="#353535"/></linearGradient><linearGradient x1="212.2802" y1="233.58764" x2="212.2802" y2="247.25431" gradientUnits="userSpaceOnUse" id="color-8"><stop offset="0" stop-color="#2d3b45"/><stop offset="1" stop-color="#1d2836"/></linearGradient><linearGradient x1="283.36733" y1="125.33032" x2="224.68049" y2="191.35026" gradientUnits="userSpaceOnUse" id="color-9"><stop offset="0" stop-color="#5d5d5d"/><stop offset="1" stop-color="#474747"/></linearGradient><radialGradient cx="282.69625" cy="140.51931" r="11.83333" gradientUnits="userSpaceOnUse" id="color-10"><stop offset="0" stop-color="#939393"/><stop offset="1" stop-color="#393939"/></radialGradient><linearGradient x1="287.81115" y1="130.06406" x2="277.58133" y2="150.97454" gradientUnits="userSpaceOnUse" id="color-11"><stop offset="0" stop-color="#666666"/><stop offset="1" stop-color="#4f4f4f"/></linearGradient><radialGradient cx="203.80109" cy="162.24187" r="37.63684" gradientUnits="userSpaceOnUse" id="color-12"><stop offset="0" stop-color="#939393"/><stop offset="1" stop-color="#535353"/></radialGradient><radialGradient cx="203.41208" cy="134.4956" r="37.63684" gradientUnits="userSpaceOnUse" id="color-13"><stop offset="0" stop-color="#393939"/><stop offset="1" stop-color="#1b1b1b"/></radialGradient><radialGradient cx="203.21758" cy="128.98141" r="32.09343" gradientUnits="userSpaceOnUse" id="color-14"><stop offset="0" stop-color="#373737"/><stop offset="1" stop-color="#1b1b1b"/></radialGradient><linearGradient x1="186.56196" y1="119.87549" x2="210.73272" y2="119.87549" gradientUnits="userSpaceOnUse" id="color-15"><stop offset="0" stop-color="#535353"/><stop offset="1" stop-color="#232323"/></linearGradient><radialGradient cx="225.02638" cy="141.63384" r="17.36636" gradientUnits="userSpaceOnUse" id="color-16"><stop offset="0" stop-color="#939393"/><stop offset="1" stop-color="#535353"/></radialGradient><radialGradient cx="242.68983" cy="149.53379" r="9.74286" gradientUnits="userSpaceOnUse" id="color-17"><stop offset="0" stop-color="#1d1d1d"/><stop offset="1" stop-color="#080808"/></radialGradient><linearGradient x1="242.68983" y1="139.79093" x2="242.68983" y2="159.27665" gradientUnits="userSpaceOnUse" id="color-18"><stop offset="0" stop-color="#ffffff"/><stop offset="1" stop-color="#a0a0a0"/></linearGradient><radialGradient cx="192.52272" cy="195.82662" r="50.77276" gradientUnits="userSpaceOnUse" id="color-19"><stop offset="0" stop-color="#adadad"/><stop offset="1" stop-color="#666666"/></radialGradient><radialGradient cx="198.94934" cy="210.76708" r="35.99484" gradientUnits="userSpaceOnUse" id="color-20"><stop offset="0" stop-color="#1e1e1e"/><stop offset="1" stop-color="#171717"/></radialGradient><linearGradient x1="284.20442" y1="144.65259" x2="281.39651" y2="136.70636" gradientUnits="userSpaceOnUse" id="color-21"><stop offset="0" stop-color="#644520"/><stop offset="1" stop-color="#5c401f"/></linearGradient><linearGradient x1="278.78122" y1="142.1261" x2="286.81973" y2="139.23285" gradientUnits="userSpaceOnUse" id="color-22"><stop offset="0" stop-color="#644520"/><stop offset="1" stop-color="#5c401f"/></linearGradient><linearGradient x1="280.99186" y1="144.51783" x2="284.60906" y2="136.8411" gradientUnits="userSpaceOnUse" id="color-23"><stop offset="0" stop-color="#644520"/><stop offset="1" stop-color="#5c401f"/></linearGradient><linearGradient x1="286.64567" y1="142.47101" x2="278.95525" y2="138.88796" gradientUnits="userSpaceOnUse" id="color-24"><stop offset="0" stop-color="#644520"/><stop offset="1" stop-color="#5c401f"/></linearGradient><linearGradient x1="294.05453" y1="170.90495" x2="271.54639" y2="110.454" gradientUnits="userSpaceOnUse" id="color-25"><stop offset="0" stop-color="#e08200"/><stop offset="1" stop-color="#82491d"/></linearGradient><linearGradient x1="285.23815" y1="147.22649" x2="280.36277" y2="134.13247" gradientUnits="userSpaceOnUse" id="color-26"><stop offset="0" stop-color="#636363"/><stop offset="1" stop-color="#3a3a3a"/></linearGradient><linearGradient x1="285.23815" y1="147.22649" x2="280.36277" y2="134.13247" gradientUnits="userSpaceOnUse" id="color-27"><stop offset="0" stop-color="#adadad"/><stop offset="1" stop-color="#7e7e7e"/></linearGradient><radialGradient cx="247.95971" cy="146.10827" r="20.5" gradientUnits="userSpaceOnUse" id="color-28"><stop offset="0" stop-color="#454545"/><stop offset="1" stop-color="#2f2f2f"/></radialGradient><radialGradient cx="273.33831" cy="121.4944" r="6.16667" gradientUnits="userSpaceOnUse" id="color-29"><stop offset="0" stop-color="#939393"/><stop offset="1" stop-color="#454545"/></radialGradient><radialGradient cx="276.18876" cy="122.59671" r="6.16667" gradientUnits="userSpaceOnUse" id="color-30"><stop offset="0" stop-color="#636363"/><stop offset="1" stop-color="#232323"/></radialGradient></defs><g transform="translate(-164.94688,-74.84353)"><g data-paper-data="{&quot;isPaintingLayer&quot;:true}" fill-rule="nonzero" stroke-linejoin="miter" stroke-miterlimit="10" stroke-dasharray="" stroke-dashoffset="0" style="mix-blend-mode: normal"><path d="M190.7193,110.93946l-0.01163,-0.00813l-0.007,-0.03254c-0.06913,-0.15822 -0.11063,-0.34069 -0.11554,-0.53619l-0.00958,-0.38238l0.0224,-0.1381l-0.00353,-0.14124l0.02761,-0.17029l-0.02125,-0.84787l-0.06038,-0.45244l0.00436,-0.08239l-0.01711,-0.07942l-0.00025,-0.0102l-0.00974,-0.03272l-0.0653,-0.12653l-0.04207,-0.15039l-0.27831,-0.68034l-0.01554,-0.07999l-0.03518,-0.0682l-0.0866,-0.30961l-0.05366,-0.09934l-0.0425,-0.14258l-0.0653,-0.12653l-0.19034,-0.68061l-0.01528,-0.18337l-0.03823,-0.17741l-0.00221,-0.08821l-0.03609,-0.16748l-0.00353,-0.14119l-0.02927,-0.13585l-0.00109,-0.04328l-0.0146,-0.05225l-0.01528,-0.18336l-0.03823,-0.17741l-0.03642,-1.45293l0.0224,-0.1381l-0.00353,-0.14124l0.02761,-0.17032l-0.00796,-0.31763l0.0224,-0.1381l-0.00353,-0.14125l0.0457,-0.28175l0.04474,-0.35795l0.02177,-0.06653l0.00238,-0.07245l0.08856,-0.3954l0.03932,-0.31439l0.02177,-0.06654l0.00239,-0.07244l0.08455,-0.37758l0.03727,-0.37208l0.04761,-0.15942l0.02387,-0.16851l0.12799,-0.36951l0.08245,-0.4369l0.03816,-0.09475l0.01495,-0.10563l0.4591,-1.32518l0.19028,-0.84961l0.0485,-0.10887l0.02472,-0.12205l0.12981,-0.30962l0.0822,-0.30094l0.03913,-0.07708l0.01816,-0.08976l0.16351,-0.38997l0.03105,-0.044l0.01624,-0.05629l0.09979,-0.18912l0.17264,-0.63214l0.02051,-0.04039l0.00678,-0.04789l0.56682,-1.63614l0.12081,-0.53949l0.08532,-0.76555l0.02824,-0.09066l0.00523,-0.09786l0.17481,-0.70972l0.03017,-0.69503l0.01403,-0.05955l-0.00379,-0.06213l0.09394,-0.75151l0.08553,-0.8541l0.02966,-0.90194l-0.06632,-2.64532l-0.05973,-0.54641l-0.11075,-0.51408l-0.12439,-0.51203l-0.00099,-0.0196l-0.00739,-0.01699l-0.04922,-0.22845l-0.10136,-0.30593l-0.00437,-0.03403l-0.01471,-0.02851l-0.0866,-0.3096l-0.05366,-0.09937l-0.02268,-0.0761l-0.01391,-0.00305l-0.06282,-0.1217l-0.08684,-0.0922l-0.00587,-0.08744l-0.09644,-0.1869l-0.00838,-0.03l-0.00078,-0.00158l-0.06571,-0.07402l-0.12116,-0.22432l-0.0425,-0.14256l-0.03984,-0.07726l-0.10705,-0.13274l-0.07554,-0.15497l-0.09405,-0.13599l-0.06153,-0.15039l-0.00858,-0.04408l-0.12059,-0.12806l-0.00382,-0.05705l-0.04776,-0.06908l-0.06153,-0.15039l-0.11123,-0.57283l0.12537,-0.2681l0.00529,-0.31536l0.32901,-0.39966l0.06382,-0.04584l0.00455,-0.0114l0.02393,-0.00906l0.0212,-0.01525l0.19271,-0.06573l0.19131,-0.07242l0.02411,-0.00106l0.02408,-0.00824l0.00826,0.00681l1.4534,-0.06401l0.4565,-0.08765l0.38864,-0.09113l0.06217,0.00577l0.05993,-0.02269l0.29734,-0.01311l0.12637,-0.04785l0.10654,-0.00472l0.10251,-0.0388l0.1154,-0.0051l0.10423,0.02974l0.10653,-0.00469l0.23271,0.06629l0.08559,0.05572l0.09372,0.02333l0.13087,0.07962l0.05937,-0.02431l0.09726,0.07163l0.10877,0.03102l0.03475,0.0747l0.14874,0.10956l0.06689,0.02632l0.09958,0.07794l0.11014,0.04673l0.17693,0.14528l0.06012,0.08201l0.07539,0.05552l0.0566,0.07022l0.10404,0.08543l0.06011,0.08201l0.07539,0.05551l0.11923,0.14785l0.04682,0.09599l0.0657,0.07402l0.02034,0.03767l0.02971,0.0244l0.06011,0.08198l0.07538,0.05552l0.11922,0.14787l0.04681,0.09604l0.06573,0.07402l0.22829,0.42273l0.52723,0.86995l0.04781,0.13755l0.06995,0.11978l0.07895,0.23827l0.10903,0.17992l0.04782,0.13755l0.06994,0.11978l0.1105,0.33355l0.09004,0.22006l0.16463,0.33775l0.03078,0.11962l0.05384,0.10434l0.04206,0.1504l0.09372,0.22909l0.02378,0.12242l0.04762,0.10948l0.31769,1.47431l0.05189,0.18551l0.00372,0.04474l0.01696,0.03896l0.12159,0.56431l0.05188,0.18554l0.01528,0.18339l0.03823,0.17737l0.00411,0.1647l0.0361,0.16754l0.00069,0.02795l0.00967,0.02484l0.06728,0.37982l-0.00023,0.01902l0.00616,0.01715l0.05075,0.33462l0.08733,0.26367l0.01345,0.10467l0.03669,0.09442l0.06729,0.37978l-0.00021,0.01896l0.00615,0.01718l0.0558,0.36801l0.10327,0.3693l0.00755,0.09051l0.02946,0.08226l0.0558,0.36801l0.10328,0.3693l0.00599,0.07207l0.02506,0.06448l0.05496,0.31023l0.10817,0.38678l0.00373,0.04472l0.01696,0.039l0.04922,0.22843l0.05531,0.16698l0.39309,0.64863l0.13516,0.12527l0.07204,0.10987l0.08952,0.0843l0.20918,0.3239l0.87386,1.08372l0.18612,0.17252l0.08075,0.12314l0.09806,0.09865l0.14222,0.23467l0.25313,0.31392l0.04679,0.09604l0.06571,0.07402l0.03482,0.06448l0.115,0.10659l0.09617,0.14665l0.11171,0.12587l0.24228,0.44866l0.02011,0.06746l0.03697,0.05345l0.08584,0.20983l0.13186,0.21755l0.03294,0.09474l0.05318,0.07692l0.12306,0.3008l0.00917,0.04716l0.02249,0.03851l0.1105,0.33356l0.22895,0.55961l0.00917,0.04715l0.02249,0.03851l0.1105,0.33354l0.10589,0.25882l0.00917,0.04715l0.02249,0.03851l0.12498,0.37727l0.01,0.07783l0.02975,0.06841l0.02999,0.13916l0.11274,0.23128l0.03079,0.11962l0.05383,0.10435l0.1269,0.45372l0.00754,0.09051l0.02946,0.08224l0.04862,0.32075l0.14226,0.40247l0.02338,0.15836l0.0477,0.14843l0.06255,0.5218l0.10834,0.44594l0.00398,0.07928l0.02446,0.07254l0.14049,1.05235l0.06722,0.44321l-0.00339,0.09582l0.01988,0.09225l0.04219,1.68232l-0.01813,0.11176l0.00697,0.11397l-0.04812,0.38489l-0.02177,0.06654l-0.00239,0.07242l-0.06391,0.28537l0.00491,0.19622l-0.00731,0.04513l0.01398,0.03417l-0.05946,0.24619l-0.041,0.25274l-0.02497,0.02041l-0.01063,0.04397l-0.03065,0.06549l-0.0185,0.11409l-0.06535,0.17626l-0.04519,0.18706l-0.04856,0.10383l-0.01895,0.08464l-0.05882,0.13199l-0.03527,0.146l-0.08125,0.17374l-0.03137,0.09054l-0.08702,0.14399l-0.06762,0.16127l-0.4992,0.70716l-0.14572,0.31166l-0.08522,0.24601l-0.04421,0.07312l-0.00096,0.05726l-0.06006,0.07298l-0.00439,0.03115l-0.01006,0.02904l-0.00523,0.03221l-0.00828,0.00679l-0.19188,0.5539l-0.0442,0.07312l-0.00096,0.05725l-0.12655,0.15372l-0.04053,0.06704l-0.00028,0.01628l-0.036,0.04372l-0.03052,0.0505l-0.01224,0.00146l-0.04779,0.05804l-0.04053,0.06705l-0.00028,0.01629l-0.03599,0.04372l-0.03051,0.05048l-0.01225,0.00147l-0.04779,0.05804l-0.10734,0.17755l-0.04303,0.00507l-0.05212,0.06331l-0.11346,0.08156l-0.06036,0.02059l-0.05145,0.04666l-0.34234,0.16819l-0.1131,0.01656l-0.00398,0.00286l-0.19269,0.06573l-0.19132,0.07243l-0.02412,0.00106l-0.02408,0.0082l-0.00826,-0.00681l-0.03093,0.00133l-0.15061,0.0469l-0.12062,0.05927l-0.13836,0.02024l-0.13385,0.05065l-0.26343,0.01159l-0.03941,0.01936l-0.13836,0.02024l-0.13384,0.05066l-0.03266,0.00146l-0.0394,0.01936l-0.03375,0.00497l-0.02941,0.0225l-0.22886,0.08665l-0.10654,0.00469l-0.1025,0.03883l-0.20574,0.00906l-0.03941,0.01935l-0.03374,0.00492l-0.02942,0.0225l-0.22886,0.08665l-0.10655,0.00469l-0.1025,0.03883l-0.49126,0.02162l-0.20309,0.06318l-0.08624,-0.00167l-0.08294,0.0314l-7.09668,0.31248l-0.13608,-0.03877l-0.13907,-0.00802l-0.35001,-0.13772l-0.02132,-0.01668l-0.05286,0.00233l-0.0079,0.00751l-0.02444,-0.00611l-0.02412,0.00109l-0.19454,-0.05543l-0.19555,-0.04862l-0.02193,-0.01336l-0.0243,-0.00694l-0.0051,-0.01095l-0.06599,-0.04017l-0.34829,-0.36981l-0.03772,-0.56197l-0.00081,-0.00171l0.00059,-0.00146l-0.02351,-0.35035c-0.21442,-0.07353 -0.39753,-0.25356 -0.51398,-0.49627z" fill="url(#color-1)" stroke="none" stroke-width="0.5" stroke-linecap="butt"/><path d="M190.49696,111.3045l-0.01206,-0.00997l-0.0056,-0.03587c-0.06503,-0.17797 -0.09887,-0.37917 -0.09236,-0.59054l0.01267,-0.41343l0.03248,-0.14663l0.00468,-0.1527l0.04003,-0.18072l0.0281,-0.9168l-0.03793,-0.49436l0.00966,-0.08845l-0.01369,-0.08749l0.00034,-0.01103l-0.00854,-0.03632l-0.06283,-0.1434l-0.03633,-0.16666l-0.25924,-0.7632l-0.01196,-0.08792l-0.03385,-0.07727l-0.07477,-0.34312l-0.05188,-0.11281l-0.03727,-0.15828l-0.06283,-0.14337l-0.16436,-0.75425l-0.00546,-0.19939l-0.03057,-0.1954l0.00293,-0.09538l-0.02886,-0.18446l0.00469,-0.1527l-0.0234,-0.14964l0.00146,-0.0468l-0.01261,-0.05791l-0.00546,-0.19941l-0.03056,-0.19537l0.04813,-1.571l0.03248,-0.14663l0.00469,-0.15272l0.04003,-0.18074l0.01054,-0.34342l0.03248,-0.14663l0.00469,-0.15269l0.06624,-0.29907l0.06979,-0.38133l0.02748,-0.06949l0.00693,-0.0779l0.11931,-0.41711l0.06131,-0.33497l0.02749,-0.06948l0.00693,-0.07788l0.11393,-0.39834l0.06257,-0.39741l0.06095,-0.1669l0.03586,-0.17925l0.16031,-0.38503l0.11519,-0.46251l0.04688,-0.09823l0.02247,-0.11232l0.57492,-1.38086l0.25636,-0.8963l0.05886,-0.11225l0.03399,-0.12908l0.15864,-0.32019l0.10675,-0.31592l0.04684,-0.07905l0.025,-0.09488l0.19982,-0.40336l0.03616,-0.04415l0.0209,-0.05902l0.11901,-0.19343l0.22424,-0.6636l0.02455,-0.04142l0.01019,-0.05088l0.7098,-1.7049l0.16277,-0.56911l0.13809,-0.81671l0.03592,-0.0948l0.01152,-0.105l0.23127,-0.74702l0.07433,-0.74648l0.0187,-0.06276l-0.00036,-0.06743l0.14654,-0.80069l0.14363,-0.91218l0.08625,-0.96968l0.08764,-2.86031l-0.03154,-0.59564l-0.08854,-0.5662l-0.10336,-0.56538l0.00011,-0.02127l-0.00695,-0.01914l-0.03936,-0.25161l-0.09092,-0.3407l-0.00267,-0.03716l-0.01415,-0.03229l-0.07477,-0.34311l-0.05188,-0.11284l-0.0199,-0.08448l-0.01481,-0.00474l-0.06043,-0.13792l-0.08811,-0.10864l-0.00108,-0.09492l-0.09278,-0.21175l-0.00725,-0.03322l-0.00076,-0.00181l-0.06641,-0.08682l-0.11718,-0.25474l-0.03725,-0.15827l-0.03834,-0.08749l-0.10746,-0.15454l-0.07216,-0.17514l-0.09325,-0.15666l-0.05733,-0.16874l-0.00658,-0.04846l-0.12238,-0.15088l-0.00069,-0.0619l-0.04738,-0.07955l-0.05732,-0.16873l-0.08552,-0.62964l0.15138,-0.27594l0.0247,-0.3396l0.37893,-0.39628l0.07159,-0.04272l0.00559,-0.01181l0.02633,-0.00725l0.02379,-0.01418l0.2118,-0.05054l0.21072,-0.05791l0.02608,0.00137l0.02645,-0.00632l0.00849,0.00821l1.57152,0.08454l0.49766,-0.04628l0.42467,-0.05721l0.06673,0.01276l0.06601,-0.01811l0.32148,0.01733l0.13919,-0.03824l0.11522,0.00619l0.11289,-0.03104l0.12477,0.00671l0.11062,0.04302l0.1152,0.00622l0.247,0.09611l0.08896,0.06917l0.09969,0.03504l0.13634,0.09973l0.0655,-0.01992l0.1006,0.08752l0.11547,0.04491l0.03298,0.08425l0.15384,0.13388l0.07055,0.03547l0.10273,0.0946l0.11601,0.06205l0.18209,0.17546l0.05989,0.09475l0.07799,0.06784l0.05684,0.08171l0.10708,0.10318l0.05988,0.09474l0.07797,0.06787l0.11971,0.17206l0.04471,0.10853l0.06641,0.08682l0.01968,0.04279l0.03059,0.02945l0.05989,0.09475l0.07797,0.06786l0.1197,0.17206l0.04471,0.10854l0.06641,0.08681l0.22081,0.48009l0.51633,0.99406l0.04329,0.15339l0.06823,0.1366l0.07079,0.26534l0.10677,0.20556l0.0433,0.15342l0.06823,0.1366l0.09911,0.37144l0.08388,0.24688l0.15724,0.38169l0.026,0.13228l0.05181,0.1182l0.03633,0.16667l0.08731,0.25704l0.01828,0.13453l0.04481,0.12315l0.25396,1.62382l0.04481,0.20558l0.00133,0.04863l0.01594,0.04385l0.09721,0.6215l0.04481,0.20558l0.00545,0.1994l0.03056,0.19537l-0.00546,0.17805l0.02886,0.18443l-0.00091,0.03024l0.00894,0.02785l0.04972,0.41678l-0.00137,0.02049l0.00559,0.01913l0.03459,0.36633l0.07835,0.29364l0.00823,0.1143l0.03389,0.10572l0.04972,0.41678l-0.00137,0.02049l0.00559,0.01913l0.03806,0.40281l0.08919,0.40925l0.00269,0.0984l0.02684,0.09181l0.03805,0.40281l0.08919,0.40924l0.00215,0.07836l0.02314,0.0722l0.04061,0.34044l0.09339,0.42855l0.00132,0.04863l0.01596,0.04382l0.03934,0.25162l0.04961,0.18595l0.38495,0.74113l0.13825,0.14944l0.07111,0.12613l0.09149,0.10039l0.20612,0.37147l0.87736,1.26128l0.19034,0.20575l0.07971,0.14136l0.09986,0.11675l0.13929,0.26814l0.25415,0.36533l0.0447,0.10852l0.06641,0.08682l0.03368,0.07321l0.1176,0.12713l0.09492,0.16836l0.11291,0.1476l0.23433,0.50954l0.01762,0.07488l0.03665,0.06159l0.07997,0.2354l0.12915,0.24862l0.02982,0.1057l0.05274,0.08858l0.11464,0.33743l0.00705,0.05185l0.02193,0.04389l0.09912,0.37147l0.21328,0.62781l0.00705,0.05181l0.02193,0.04393l0.09912,0.37144l0.09866,0.29039l0.00705,0.05181l0.02193,0.04389l0.11211,0.42016l0.0061,0.08501l0.02799,0.07691l0.02396,0.15323l0.1077,0.26136l0.026,0.13232l0.05181,0.11819l0.10956,0.50283l0.00268,0.09837l0.02684,0.09181l0.03316,0.35112l0.12922,0.4492l0.01567,0.17327l0.0425,0.16514l0.03607,0.56945l0.09004,0.49245l-0.00047,0.08594l0.02201,0.08082l0.0882,1.14993l0.04583,0.48514l-0.0094,0.10299l0.01589,0.1016l-0.05573,1.81905l-0.02628,0.11866l0.00066,0.12362l-0.07505,0.41007l-0.02749,0.06949l-0.00693,0.07787l-0.08611,0.30105l-0.0065,0.21216l-0.01062,0.04792l0.01304,0.03836l-0.07896,0.25925l-0.05945,0.26829l-0.02817,0.0194l-0.01411,0.04629l-0.03698,0.06743l-0.0268,0.12105l-0.0811,0.18324l-0.06,0.19695l-0.05862,0.10686l-0.02553,0.08928l-0.07138,0.13615l-0.04682,0.15376l-0.0981,0.17883l-0.03928,0.09434l-0.10252,0.14615l-0.08264,0.16678l-0.58101,0.70995l-0.17592,0.32075l-0.10674,0.25636l-0.05209,0.0742l-0.00449,0.06164l-0.06919,0.07232l-0.00662,0.03316l-0.01261,0.03028l-0.00759,0.03419l-0.00934,0.00643l-0.24027,0.57713l-0.05209,0.0742l-0.0045,0.06164l-0.14572,0.15244l-0.04773,0.068l-0.00128,0.01753l-0.04145,0.04331l-0.03597,0.05125l-0.01328,0.0003l-0.05501,0.05756l-0.04774,0.068l-0.00126,0.01753l-0.04145,0.04337l-0.03598,0.05125l-0.01328,0.0003l-0.05503,0.05756l-0.12644,0.18019l-0.04673,0.0009l-0.06003,0.0628l-0.12729,0.07597l-0.06635,0.01582l-0.05828,0.04484l-0.37937,0.14523l-0.12298,0.0059l-0.00446,0.00264l-0.21179,0.05054l-0.21072,0.05791l-0.02607,-0.00139l-0.02649,0.00632l-0.00849,-0.00818l-0.03345,-0.00179l-0.16526,0.03463l-0.13367,0.05117l-0.15046,0.00725l-0.14741,0.04052l-0.28485,-0.01532l-0.04368,0.01671l-0.15046,0.00724l-0.14742,0.04051l-0.03528,-0.00191l-0.04369,0.01671l-0.03669,0.00178l-0.03308,0.02113l-0.25207,0.06925l-0.11519,-0.00619l-0.11291,0.03104l-0.22246,-0.01198l-0.04369,0.01672l-0.03669,0.00176l-0.03308,0.02116l-0.25206,0.06926l-0.1152,-0.00622l-0.11291,0.03104l-0.53119,-0.02857l-0.22287,0.04668l-0.09291,-0.01091l-0.09134,0.02511l-7.67339,-0.41302l-0.14446,-0.05624l-0.14951,-0.02336l-0.36925,-0.18549l-0.02199,-0.02025l-0.05715,-0.00308l-0.00898,0.00724l-0.026,-0.00916l-0.02608,-0.00141l-0.20647,-0.08031l-0.208,-0.07312l-0.02286,-0.0167l-0.0258,-0.01008l-0.00485,-0.01237l-0.06873,-0.05028l-0.35343,-0.43568l-0.00687,-0.61011l-0.00076,-0.00195l0.00072,-0.00155l-0.00427,-0.38038c-0.22686,-0.10198 -0.41352,-0.31552 -0.52453,-0.58959z" fill="url(#color-2)" stroke="none" stroke-width="0.5" stroke-linecap="butt"/><path d="M190.6877,109.95124l-0.01038,-0.01069l-0.00262,-0.03372c-0.04724,-0.17178 -0.06414,-0.36101 -0.04324,-0.55468l0.04085,-0.3787l0.04025,-0.13085l0.0151,-0.13983l0.04961,-0.1613l0.0906,-0.83978l0.00004,-0.45947l0.01512,-0.08013l-0.0064,-0.08216l0.0011,-0.0101l-0.0053,-0.03447l-0.04766,-0.13969l-0.02163,-0.15781l-0.18456,-0.73423l-0.00477,-0.08236l-0.02568,-0.07527l-0.04452,-0.3249l-0.03976,-0.11023l-0.02308,-0.15021l-0.04767,-0.13969l-0.09789,-0.71417l0.00908,-0.18411l-0.01432,-0.18351l0.00943,-0.08738l-0.01349,-0.17325l0.0151,-0.13985l-0.01096,-0.14058l0.00462,-0.04286l-0.00751,-0.05477l0.00908,-0.18413l-0.01431,-0.18351l0.15527,-1.43908l0.04024,-0.13085l0.0151,-0.13983l0.0496,-0.1613l0.03393,-0.31456l0.04024,-0.13085l0.0151,-0.13984l0.08205,-0.26685l0.09115,-0.34213l0.03018,-0.06048l0.01187,-0.07079l0.13921,-0.36891l0.08007,-0.30052l0.03018,-0.06048l0.01187,-0.07081l0.13295,-0.35225l0.08564,-0.35779l0.06784,-0.14595l0.04565,-0.16044l0.17466,-0.33423l0.13865,-0.41114l0.05003,-0.08451l0.02862,-0.10055l0.62639,-1.19882l0.29912,-0.79264l0.06207,-0.09596l0.04041,-0.11453l0.16853,-0.27483l0.12053,-0.27734l0.04869,-0.06683l0.0297,-0.08421l0.2123,-0.34616l0.03637,-0.03616l0.0234,-0.05166l0.12312,-0.16315l0.25316,-0.58255l0.02551,-0.03504l0.01297,-0.04558l0.77337,-1.48011l0.18993,-0.50328l0.18472,-0.73415l0.03973,-0.08276l0.01802,-0.09513l0.26552,-0.65849l0.12112,-0.67741l0.02163,-0.0554l0.00446,-0.06206l0.19136,-0.71833l0.19656,-0.82123l0.14786,-0.88125l0.28271,-2.62016l0.01306,-0.55179l-0.04144,-0.53181l-0.05514,-0.53293l0.00161,-0.01949l-0.00505,-0.01848l-0.01843,-0.23633l-0.05954,-0.3247l0.00017,-0.03451l-0.01073,-0.03142l-0.04453,-0.3249l-0.03976,-0.11025l-0.01233,-0.08019l-0.01328,-0.00623l-0.04583,-0.13435l-0.07337,-0.11082l0.00571,-0.08744l-0.0704,-0.20629l-0.00431,-0.03147l-0.00057,-0.00178l-0.05496,-0.08814l-0.08976,-0.24889l-0.0231,-0.15021l-0.02907,-0.08525l-0.08793,-0.15547l-0.05399,-0.17006l-0.07471,-0.15565l-0.0408,-0.16231l-0.00262,-0.04542l-0.1019,-0.15394l0.00373,-0.05706l-0.03795,-0.07906l-0.04082,-0.16233l-0.03415,-0.58978l0.15871,-0.23506l0.0467,-0.3093l0.37655,-0.31747l0.06888,-0.03041l0.00597,-0.01017l0.02476,-0.0034l0.0229,-0.0101l0.19838,-0.02019l0.19792,-0.02711l0.02389,0.00456l0.02479,-0.00252l0.00725,0.00861l1.43956,0.27286l0.46103,0.01918l0.39468,0.00007l0.06045,0.02006l0.06199,-0.00849l0.2945,0.05583l0.13071,-0.01788l0.10554,0.01997l0.10603,-0.0145l0.1143,0.02164l0.0987,0.05335l0.10552,0.01997l0.22042,0.11907l0.07695,0.0747l0.08922,0.0446l0.11837,0.10864l0.06165,-0.0102l0.08633,0.09302l0.10304,0.05561l0.02438,0.0816l0.13207,0.14227l0.06238,0.04138l0.08781,0.0998l0.10231,0.07146l0.15509,0.18398l0.04839,0.09463l0.06692,0.0721l0.04652,0.08226l0.09121,0.10817l0.04839,0.09464l0.06692,0.07209l0.09795,0.17313l0.03346,0.10536l0.05496,0.08813l0.01507,0.0418l0.02606,0.03088l0.04839,0.09463l0.06692,0.0721l0.09795,0.17319l0.03346,0.10536l0.05496,0.08813l0.16919,0.46903l0.40471,0.97846l0.02899,0.14648l0.05311,0.13411l0.04638,0.2529l0.08369,0.20236l0.02899,0.14648l0.05311,0.13411l0.06492,0.35399l0.05971,0.23754l0.11768,0.3706l0.01457,0.12488l0.03929,0.11517l0.02163,0.15781l0.06216,0.24725l0.0073,0.12603l0.0325,0.11881l0.11887,1.52517l0.0267,0.19468l-0.00222,0.04491l0.01157,0.04228l0.04549,0.58377l0.02669,0.19469l-0.00908,0.18411l0.01431,0.18353l-0.01761,0.16311l0.01352,0.17327l-0.00298,0.02766l0.00625,0.02672l0.01629,0.38954l-0.00271,0.01866l0.0038,0.01832l0.00595,0.34126l0.05132,0.27982l-0.00052,0.10619l0.0237,0.10142l0.01629,0.38954l-0.00271,0.01866l0.0038,0.01832l0.00655,0.37524l0.05311,0.38753l-0.00448,0.09086l0.01819,0.08779l0.00654,0.37524l0.05311,0.38754l-0.00357,0.07236l0.0162,0.06927l0.0133,0.31823l0.05564,0.40577l-0.00221,0.0449l0.01156,0.0423l0.01843,0.23631l0.03248,0.1772l0.30174,0.72952l0.1166,0.15461l0.05649,0.12484l0.07706,0.10374l0.16337,0.36724l0.71791,1.26907l0.16054,0.21288l0.06332,0.13992l0.08359,0.11977l0.10916,0.2639l0.20794,0.36759l0.03346,0.10538l0.05496,0.08809l0.02579,0.0715l0.0992,0.1315l0.07541,0.16665l0.09341,0.14975l0.17956,0.4978l0.01093,0.07107l0.02936,0.06119l0.05693,0.2264l0.10121,0.24472l0.01996,0.10091l0.04225,0.08801l0.0816,0.32464l0.0028,0.04857l0.01709,0.04313l0.06492,0.35398l0.15183,0.60397l0.00281,0.04857l0.01708,0.04313l0.06492,0.35399l0.07023,0.27933l0.0028,0.04857l0.01708,0.04312l0.07344,0.40037l-0.00039,0.07894l0.02031,0.07424l0.01122,0.14392l0.08058,0.25379l0.01458,0.1249l0.03928,0.11518l0.06527,0.47612l-0.00448,0.09086l0.0182,0.08777l0.00568,0.3271l0.08714,0.42922l0.00218,0.16132l0.02743,0.15718l-0.00706,0.52828l0.04802,0.46418l-0.00651,0.07895l0.01454,0.07705l-0.00012,1.06874l0.00787,0.45193l-0.01593,0.09356l0.00745,0.09542l-0.17979,1.66632l-0.03256,0.10585l-0.00814,0.11379l-0.09801,0.36785l-0.03017,0.06051l-0.01188,0.07079l-0.10047,0.26622l-0.02097,0.19432l-0.01314,0.04275l0.00926,0.03687l-0.09094,0.22872l-0.07361,0.23938l-0.02728,0.01435l-0.01624,0.04087l-0.03878,0.05743l-0.03322,0.10804l-0.08755,0.15848l-0.0691,0.17374l-0.06148,0.09101l-0.02978,0.07893l-0.07528,0.11636l-0.05392,0.13561l-0.10286,0.15231l-0.04281,0.0819l-0.10464,0.12169l-0.08779,0.14313l-0.58459,0.58095l-0.18449,0.2732l-0.1163,0.22256l-0.05315,0.06182l-0.00849,0.05611l-0.06873,0.05796l-0.00844,0.02965l-0.01373,0.02631l-0.00938,0.03048l-0.00903,0.00475l-0.2618,0.50104l-0.05315,0.06182l-0.00848,0.05611l-0.14482,0.1221l-0.04872,0.05665l-0.00241,0.01597l-0.0412,0.03475l-0.03669,0.0427l-0.01226,-0.00139l-0.05467,0.04612l-0.04872,0.05665l-0.00241,0.01597l-0.04121,0.03473l-0.03671,0.0427l-0.01225,-0.00141l-0.05468,0.04612l-0.12905,0.15002l-0.04304,-0.00497l-0.05964,0.0503l-0.12247,0.05407l-0.06213,0.00636l-0.05679,0.03404l-0.35923,0.08652l-0.11353,-0.00982l-0.00428,0.00185l-0.19838,0.02018l-0.19792,0.02712l-0.0239,-0.00452l-0.02479,0.0025l-0.00725,-0.00861l-0.03064,-0.0058l-0.15447,0.01135l-0.12658,0.03045l-0.13889,-0.01204l-0.13845,0.01895l-0.26093,-0.04947l-0.04136,0.00996l-0.1389,-0.01204l-0.13844,0.01895l-0.03235,-0.00613l-0.04136,0.00994l-0.03387,-0.00292l-0.0319,0.01532l-0.23676,0.03242l-0.10553,-0.01997l-0.10604,0.0145l-0.20378,-0.03862l-0.04134,0.00996l-0.03389,-0.00293l-0.03193,0.01535l-0.23676,0.03242l-0.10553,-0.01997l-0.10604,0.0145l-0.48659,-0.09222l-0.20827,0.01528l-0.08471,-0.02151l-0.08578,0.01173l-7.02908,-1.33228l-0.12891,-0.06963l-0.13587,-0.04003l-0.32655,-0.21648l-0.0188,-0.02139l-0.05235,-0.00988l-0.00877,0.00554l-0.02328,-0.01164l-0.02389,-0.00453l-0.18425,-0.09953l-0.18616,-0.09309l-0.01984,-0.01824l-0.02304,-0.01243l-0.00358,-0.01197l-0.05967,-0.05482l-0.29431,-0.44462l0.0368,-0.56206l-0.00058,-0.00189l0.00077,-0.00132l0.02294,-0.35039c-0.20147,-0.12199 -0.3581,-0.34154 -0.44081,-0.60744z" fill="url(#color-3)" stroke="none" stroke-width="0.5" stroke-linecap="butt"/><path d="M191.45329,110.22548l-0.01036,-0.0084l-0.00504,-0.03049c-0.05668,-0.15103 -0.08691,-0.32229 -0.08282,-0.50271l0.00799,-0.35282l0.02671,-0.1255l0.00296,-0.13032l0.03294,-0.15468l0.01772,-0.78242l-0.03572,-0.4213l0.00764,-0.07555l-0.01227,-0.07447l0.00022,-0.0094l-0.00754,-0.03088l-0.05455,-0.12157l-0.03213,-0.14175l-0.22636,-0.64798l-0.01079,-0.07489l-0.02941,-0.06547l-0.06611,-0.29183l-0.04504,-0.09565l-0.03287,-0.13458l-0.05456,-0.12157l-0.14533,-0.64149l-0.00599,-0.17003l-0.02739,-0.16629l0.00183,-0.08143l-0.02588,-0.15702l0.00296,-0.13032l-0.02098,-0.12736l0.0009,-0.03991l-0.01116,-0.04926l-0.00599,-0.17004l-0.0274,-0.16634l0.03036,-1.34081l0.02671,-0.12546l0.00296,-0.13032l0.03292,-0.15467l0.00665,-0.29309l0.02671,-0.1255l0.00297,-0.13032l0.05447,-0.25591l0.05695,-0.32619l0.02299,-0.05963l0.00539,-0.06654l0.09893,-0.3573l0.05002,-0.28646l0.02298,-0.05963l0.00538,-0.06654l0.09448,-0.34117l0.05068,-0.33975l0.05086,-0.14314l0.02938,-0.15331l0.13414,-0.33036l0.09514,-0.39597l0.03931,-0.08438l0.01842,-0.09609l0.48107,-1.18487l0.21259,-0.76769l0.04944,-0.09648l0.02814,-0.11051l0.13314,-0.27506l0.08894,-0.27079l0.03942,-0.06796l0.02069,-0.08125l0.16772,-0.34649l0.03053,-0.03813l0.01743,-0.05054l0.1002,-0.16644l0.18679,-0.5688l0.02068,-0.03558l0.00835,-0.04354l0.59394,-1.46292l0.135,-0.48746l0.11223,-0.69838l0.03,-0.08127l0.00911,-0.08972l0.19221,-0.6401l0.05835,-0.63769l0.01552,-0.05373l-0.00076,-0.05753l0.11957,-0.68483l0.11634,-0.77987l0.06699,-0.82826l0.05531,-2.44118l-0.03097,-0.50778l-0.07939,-0.48193l-0.09204,-0.48111l-0.00004,-0.0181l-0.00606,-0.01622l-0.03528,-0.21417l-0.07986,-0.28957l-0.00253,-0.03164l-0.01228,-0.02734l-0.06614,-0.29184l-0.04503,-0.09562l-0.01754,-0.07182l-0.01267,-0.00391l-0.05248,-0.11693l-0.07592,-0.09165l-0.00155,-0.08097l-0.0806,-0.17954l-0.00639,-0.02827l-0.00067,-0.00155l-0.05725,-0.07325l-0.10168,-0.21592l-0.03288,-0.13458l-0.03329,-0.0742l-0.09273,-0.13052l-0.06274,-0.14854l-0.08063,-0.13251l-0.05005,-0.14322l-0.00594,-0.04129l-0.10544,-0.12726l-0.00102,-0.0528l-0.04095,-0.0673l-0.05005,-0.14322l-0.07722,-0.53611l0.12725,-0.23723l0.01875,-0.29l0.32056,-0.34259l0.06078,-0.0373l0.00468,-0.01016l0.02241,-0.00647l0.02022,-0.01241l0.18033,-0.04562l0.17937,-0.05192l0.02227,0.00087l0.02253,-0.00568l0.00731,0.00692l1.34123,0.05338l0.42424,-0.04546l0.36189,-0.05388l0.057,0.01011l0.05618,-0.01629l0.27438,0.01093l0.11848,-0.03431l0.0983,0.00391l0.0961,-0.02784l0.10648,0.00426l0.09467,0.03539l0.09831,0.00391l0.21138,0.07906l0.07636,0.05796l0.08528,0.0287l0.117,0.08343l0.05573,-0.01777l0.08642,0.07346l0.0988,0.03694l0.02869,0.07147l0.13217,0.11238l0.06043,0.02942l0.08827,0.07953l0.09937,0.05156l0.15654,0.14749l0.05174,0.08013l0.06698,0.05698l0.04906,0.06903l0.09205,0.08676l0.05175,0.08013l0.06697,0.05694l0.10328,0.14536l0.03888,0.09202l0.05726,0.07325l0.01709,0.03628l0.02627,0.02477l0.05174,0.08013l0.06698,0.05694l0.10328,0.14537l0.03888,0.09201l0.05726,0.07325l0.19163,0.40695l0.44724,0.84186l0.03798,0.13038l0.05915,0.1157l0.06222,0.22554l0.0925,0.1741l0.03798,0.13039l0.05916,0.11569l0.08707,0.31569l0.07323,0.20965l0.13674,0.3237l0.0231,0.11256l0.04498,0.10025l0.03213,0.14175l0.07623,0.21821l0.01652,0.11455l0.03906,0.10449l0.22769,1.38222l0.03962,0.17486l0.00148,0.04148l0.01391,0.03723l0.08715,0.52907l0.03964,0.17487l0.00599,0.17005l0.0274,0.16633l-0.00345,0.15196l0.02588,0.15704l-0.0006,0.02579l0.00782,0.02366l0.04524,0.35499l-0.00102,0.01748l0.0049,0.01629l0.03203,0.31211l0.06884,0.24958l0.00778,0.09745l0.02962,0.08976l0.04524,0.35494l-0.00101,0.01749l0.0049,0.01629l0.03521,0.34319l0.07886,0.34806l0.00298,0.08388l0.02351,0.07803l0.03521,0.34317l0.07886,0.34805l0.00237,0.06688l0.02022,0.06129l0.03698,0.28992l0.08258,0.36453l0.00147,0.04148l0.01391,0.0372l0.03528,0.21419l0.04359,0.15803l0.33345,0.62764l0.11895,0.12585l0.06152,0.10672l0.07872,0.08456l0.17838,0.31442l0.75705,1.06551l0.16379,0.17327l0.06898,0.11967l0.08597,0.09839l0.12065,0.22709l0.21928,0.30862l0.03888,0.09202l0.05726,0.07325l0.02922,0.06207l0.1012,0.10704l0.08214,0.14249l0.09732,0.12454l0.2034,0.4319l0.01555,0.06366l0.03169,0.0521l0.06983,0.19985l0.11185,0.21054l0.02616,0.0898l0.0456,0.07492l0.10008,0.2865l0.00636,0.04413l0.01901,0.03719l0.08708,0.31574l0.18622,0.53307l0.00636,0.04411l0.01902,0.03719l0.08708,0.3157l0.08613,0.24655l0.00636,0.04411l0.01902,0.03719l0.0985,0.35708l0.00579,0.07244l0.02441,0.06528l0.02148,0.13045l0.09365,0.22171l0.02308,0.11255l0.04499,0.10025l0.0969,0.42766l0.00297,0.08388l0.02352,0.07798l0.03069,0.29913l0.11329,0.38162l0.01457,0.14762l0.03738,0.14039l0.03466,0.48531l0.08017,0.41908l0.00017,0.0733l0.01932,0.0687l0.08306,0.97995l0.0424,0.41333l-0.00731,0.08798l0.01424,0.08647l-0.03516,1.55251l-0.0216,0.10153l0.00138,0.10547l-0.06124,0.35072l-0.02299,0.05958l-0.00538,0.06653l-0.07141,0.25784l-0.0041,0.18109l-0.00872,0.04099l0.01137,0.03255l-0.06561,0.22213l-0.04887,0.22957l-0.0239,0.01684l-0.01172,0.03968l-0.03108,0.05796l-0.02206,0.10361l-0.06793,0.15728l-0.04983,0.16875l-0.04928,0.09189l-0.02117,0.07645l-0.05997,0.11702l-0.0389,0.1317l-0.08247,0.15376l-0.03287,0.08097l-0.08647,0.12587l-0.06936,0.14327l-0.49081,0.61259l-0.14791,0.27576l-0.08929,0.21995l-0.04393,0.06391l-0.0034,0.05265l-0.05854,0.06253l-0.00541,0.02835l-0.01056,0.02599l-0.00625,0.0293l-0.00789,0.00557l-0.20106,0.49522l-0.04393,0.06393l-0.0034,0.05261l-0.1233,0.13174l-0.04026,0.05861l-0.00098,0.01498l-0.03508,0.03746l-0.03034,0.04415l-0.01134,0.00037l-0.04654,0.04973l-0.04026,0.05861l-0.00099,0.01498l-0.03508,0.03746l-0.03034,0.04415l-0.01134,0.00037l-0.04658,0.04973l-0.10663,0.15521l-0.03985,0.00132l-0.05078,0.05427l-0.10808,0.06635l-0.05649,0.01429l-0.04942,0.03896l-0.32267,0.12846l-0.10486,0.00649l-0.00379,0.00231l-0.18033,0.04562l-0.17936,0.05192l-0.02227,-0.00089l-0.02254,0.00569l-0.0073,-0.00691l-0.02855,-0.00113l-0.14075,0.03152l-0.11369,0.04526l-0.12829,0.00794l-0.12549,0.03628l-0.2431,-0.00968l-0.03715,0.01478l-0.1283,0.00794l-0.12548,0.03629l-0.03014,-0.00118l-0.03715,0.01478l-0.0313,0.00196l-0.02807,0.01843l-0.21458,0.06207l-0.09831,-0.00391l-0.0961,0.02784l-0.18986,-0.00758l-0.03714,0.01478l-0.0313,0.00195l-0.02808,0.01845l-0.21457,0.06211l-0.0983,-0.00391l-0.0961,0.02781l-0.45335,-0.01803l-0.18981,0.0425l-0.07934,-0.0082l-0.07775,0.0225l-6.54896,-0.26061l-0.12361,-0.04622l-0.1277,-0.01812l-0.31626,-0.15387l-0.0189,-0.017l-0.04879,-0.00194l-0.0076,0.00631l-0.02224,-0.00748l-0.02227,-0.00088l-0.17669,-0.06609l-0.17794,-0.05987l-0.01961,-0.01398l-0.0221,-0.00825l-0.00421,-0.01051l-0.05897,-0.0421l-0.30447,-0.36747l-0.01002,-0.5204l-0.00066,-0.00167l0.00061,-0.00133l-0.00625,-0.32446c-0.19421,-0.08427 -0.35492,-0.2642 -0.45147,-0.49669z" fill="url(#color-4)" stroke="none" stroke-width="0.5" stroke-linecap="butt"/><path d="M284.86814,139.73085l-40.21096,79.08879l-4.54253,-78.07898z" data-paper-data="{&quot;index&quot;:null}" fill-opacity="0.00392" fill="#ffffff" stroke="url(#color-5)" stroke-width="2.5" stroke-linecap="butt"/><path d="M175.80342,238.27574l72.11379,0.15069c0,0 8.88757,0.96743 8.65584,6.03859c-0.2293,5.01845 -8.74821,5.65819 -8.74821,5.65819c0,0 -23.67839,1.44753 -35.90261,1.42199c-11.79863,-0.02465 -36.21117,-1.57268 -36.21117,-1.57268c0,0 -7.53466,-0.7806 -7.72468,-5.86463c-0.19379,-5.18427 7.81705,-5.83216 7.81705,-5.83216z" fill="url(#color-6)" stroke="url(#color-7)" stroke-width="0.5" stroke-linecap="butt"/><path d="M259.61354,240.42098c0,7.10728 -21.19185,6.83333 -47.33333,6.83333c-26.14148,0 -47.33333,0.27395 -47.33333,-6.83333c0,-7.44061 21.19185,-6.83333 47.33333,-6.83333c26.14148,0 47.33333,0.39272 47.33333,6.83333z" fill="#302d29" stroke="url(#color-8)" stroke-width="0" stroke-linecap="butt"/><path d="M262.58295,154.30376l9.95328,9.08292" fill="none" stroke="#666666" stroke-width="5" stroke-linecap="round"/><path d="M265.54318,175.67769l-15.89826,-14.36757" fill="none" stroke="#666666" stroke-width="5" stroke-linecap="round"/><path d="M236.40845,168.12438l22.72038,20.19674" fill="none" stroke="#666666" stroke-width="5" stroke-linecap="round"/><path d="M223.43666,175.64434l28.41816,25.02645" fill="none" stroke="#666666" stroke-width="5" stroke-linecap="round"/><path d="M212.77407,180.49873l72.42883,-41.4949l-38.99216,77.52237" fill="none" stroke="url(#color-9)" stroke-width="5" stroke-linecap="round"/><path d="M293.32573,145.71947c-2.82489,5.77427 -9.87389,8.12704 -15.7444,5.25508c-5.8705,-2.87197 -8.33947,-9.88113 -5.51458,-15.6554c2.82489,-5.77427 9.87389,-8.12704 15.7444,-5.25508c5.8705,2.87197 8.33947,9.88113 5.51458,15.6554z" fill="url(#color-10)" stroke="url(#color-11)" stroke-width="2.5" stroke-linecap="butt"/><path d="M180.84943,222.60345v-75.27368c0,0 20.78146,0 31.31541,0c10.72844,0 32.48244,0 32.48244,0v75.27368c0,0 -9.62345,3.59201 -31.89343,4.0077c-23.38487,0.4365 -31.90442,-4.0077 -31.90442,-4.0077z" fill="url(#color-12)" stroke="none" stroke-width="0" stroke-linecap="butt"/><path d="M180.46042,147.89312v-16.70732h63.79785v16.70732c0,0 -8.65642,3.97004 -30.9264,4.0623c-23.38487,0.09688 -32.87145,-4.0623 -32.87145,-4.0623z" fill="url(#color-13)" stroke="none" stroke-width="0" stroke-linecap="butt"/><path d="M244.84178,131.47756c0,3.06154 -14.36872,4.94341 -32.09343,4.94341c-17.72472,0 -32.09343,-1.88187 -32.09343,-4.94341c0,-3.06154 14.36872,-5.54341 32.09343,-5.54341c17.72472,0 32.09343,2.48187 32.09343,5.54341z" fill="url(#color-14)" stroke="none" stroke-width="0" stroke-linecap="butt"/><path d="M186.56196,131.38906c0,0 0.27112,-6.54174 1.08146,-10.38605c0.29678,-1.4079 3.60741,-2.65864 4.23461,-4.72813c0.29398,-0.96999 -0.66442,-1.54737 -0.67958,-2.5304c-0.03995,-2.59045 0.59052,-2.2484 0.59052,-2.2484l13.64254,0.0315c0,0 0.31754,-0.81958 0.46052,2.21683c0.03381,0.71821 -1.08238,1.87498 -0.87495,2.60522c0.49979,1.75943 3.90032,3.36172 4.17494,4.59322c0.84008,3.76741 1.54074,10.44624 1.54074,10.44624c0,0 -5.88996,1.71443 -12.02652,1.59251c-5.96994,-0.11861 -12.14423,-1.59251 -12.14423,-1.59251z" fill="url(#color-15)" stroke="none" stroke-width="0" stroke-linecap="butt"/><path d="M225.85704,140.19433c6.00707,0.00627 12.82367,-0.03542 12.82367,-0.03542c0,0 8.70302,-0.31469 8.77925,8.84478c-0.32504,8.96069 -8.8305,9.46415 -8.8305,9.46415c0,0 -7.78529,0.17075 -12.81027,0.1655c-7.24042,-0.00756 -13.00714,-1.3829 -13.09101,-9.23319c-0.08752,-8.19256 5.88844,-9.21338 13.12884,-9.20582z" fill="url(#color-16)" stroke="none" stroke-width="0" stroke-linecap="butt"/><path d="M237.92665,149.53379c0,-5.38083 2.13255,-9.74286 4.76318,-9.74286c2.63063,0 4.76318,4.36202 4.76318,9.74286c0,5.38083 -2.13255,9.74286 -4.76318,9.74286c-2.63063,0 -4.76318,-4.36202 -4.76318,-9.74286z" fill="url(#color-17)" stroke="url(#color-18)" stroke-width="1.5" stroke-linecap="butt"/><path d="M245.94711,210.93566c0,12.43105 0.17643,26.53718 0.17643,26.53718c0,0 0.11245,4.45869 -32.99656,4.65536c-32.39201,-0.63457 -33.18606,-4.68364 -33.18606,-4.68364c0,0 -0.6466,-16.11016 -0.6466,-26.50889c0,-14.98335 4.94977,-26.92288 33.3264,-27.12975c29.61384,-0.2159 33.3264,12.1464 33.3264,27.12975z" fill="url(#color-19)" stroke="none" stroke-width="0" stroke-linecap="butt"/><path d="M236.82403,221.34027c0,8.69916 0.12509,19.25116 0.12509,19.25116c0,0 -0.06314,1.69914 -23.53545,1.83676c-22.96399,-0.44407 -23.58558,-1.90333 -23.58558,-1.90333c0,0 -0.25689,-11.90764 -0.25689,-19.18459c0,-10.48524 3.50909,-18.84043 23.62642,-18.9852c20.99444,-0.15109 23.62642,8.49996 23.62642,18.9852z" fill="url(#color-20)" stroke="none" stroke-width="0" stroke-linecap="butt"/><g><path d="M253.43457,151.39048l58.73183,-21.42205" fill="none" stroke="url(#color-21)" stroke-width="3.5" stroke-linecap="round"/><path d="M272.08021,111.76776l21.44055,57.82344" fill="none" stroke="url(#color-22)" stroke-width="3.5" stroke-linecap="round"/><path d="M254.4108,128.10519l56.7793,25.14851" fill="none" stroke="url(#color-23)" stroke-width="3.5" stroke-linecap="round"/><path d="M296.02187,112.58589l-26.44283,56.18719" fill="none" stroke="url(#color-24)" stroke-width="3.5" stroke-linecap="round"/><path d="M271.54639,110.454c16.67875,-6.21013 35.23818,2.28799 41.45363,18.98106c6.21546,16.69308 -2.26673,35.25977 -18.94549,41.4699c-16.67875,6.21013 -35.23818,-2.288 -41.45364,-18.98106c-6.21546,-16.69308 2.26673,-35.25977 18.9455,-41.46991z" fill="none" stroke="url(#color-25)" stroke-width="3.5" stroke-linecap="butt"/><path d="M280.36277,134.13247c3.57915,-1.33264 7.57199,0.51823 8.91831,4.13404c1.34631,3.61583 -0.46376,7.62733 -4.04291,8.95997c-3.57915,1.33264 -7.57199,-0.51823 -8.9183,-4.13403c-1.34631,-3.61583 0.46375,-7.62734 4.0429,-8.95999z" fill="url(#color-26)" stroke="url(#color-27)" stroke-width="1" stroke-linecap="butt"/></g><path d="M244.50818,149.37341l28.3832,-23.69033" fill="none" stroke="url(#color-28)" stroke-width="6" stroke-linecap="round"/><path d="M280.69943,118.39176c4.30706,4.66521 0.87852,4.99131 -1.61264,7.31365c-2.49116,2.32235 -5.62397,2.63928 -7.28676,0.98264c-3.19987,-3.18808 -0.18012,-4.73096 2.31103,-7.05333c2.49116,-2.32235 2.28394,-5.90532 6.58836,-1.24298z" fill="url(#color-29)" stroke="url(#color-30)" stroke-width="0" stroke-linecap="butt"/></g></g></svg>