<svg version="1.1" xmlns="http://www.w3.org/2000/svg" xmlns:xlink="http://www.w3.org/1999/xlink" width="47.6367" height="103.98922" viewBox="0,0,47.6367,103.98922"><defs><linearGradient x1="239.74788" y1="156.06833" x2="239.74788" y2="162.91939" gradientUnits="userSpaceOnUse" id="color-1"><stop offset="0" stop-color="#4f6d73"/><stop offset="1" stop-color="#86b9c2"/></linearGradient><radialGradient cx="235.71183" cy="134.47973" r="13.11833" gradientUnits="userSpaceOnUse" id="color-2"><stop offset="0" stop-color="#7bccb1"/><stop offset="1" stop-color="#618c94"/></radialGradient></defs><g transform="translate(-217.99451,-130.8767)"><g data-paper-data="{&quot;isPaintingLayer&quot;:true}" fill-rule="nonzero" stroke-linejoin="miter" stroke-miterlimit="10" stroke-dasharray="" stroke-dashoffset="0" style="mix-blend-mode: normal"><g><path d="M222.66728,226.32418l7.83629,-33.0014c0,0 6.9707,-1.34377 10.0147,-0.97029c3.60171,0.44191 0.08493,4.28631 0.08493,4.28631c0,0 -3.07977,-0.28892 -3.55834,1.09893c-1.46357,4.24435 -6.43404,29.56106 -6.43404,29.56106z" fill="#453d36" stroke="#000000" stroke-width="0" stroke-linecap="butt"/><path d="M237.45284,233.08397c0,0 -0.61909,1.87873 -1.43985,1.77804c-0.58834,-0.07219 -2.6261,-0.30845 -4.6612,-0.63929c-1.23729,-0.20115 -1.81275,-0.84483 -2.72179,-1.10027c-1.14443,-0.32159 -2.94351,-0.13903 -3.7631,-0.43253c-1.51023,-0.54082 -2.26223,-1.06119 -2.26223,-1.06119c0,0 -0.14225,-1.05053 -0.09035,-1.60878c0.06989,-0.75209 0.47206,-2.49811 0.47206,-2.49811c0,0 5.90463,0.60399 8.17791,1.08473c1.34516,0.28447 4.13024,1.15841 4.13024,1.15841c0,0 1.37393,0.78879 1.53392,1.23885c0.19595,0.55122 0.62438,2.08018 0.62438,2.08018z" data-paper-data="{&quot;index&quot;:null}" fill="#141415" stroke="#000000" stroke-width="0" stroke-linecap="butt"/><path d="M237.26124,232.42106c0,0 -0.38282,-0.04697 -1.20357,-0.14767c-0.24638,-0.03022 0.50212,1.67527 -2.76097,1.00435c-3.08141,-0.63357 -2.61111,-1.51751 -3.69749,-1.732c-2.27166,-0.44852 -2.64087,0.27547 -3.61446,0.00188c-0.33907,-0.09528 -0.49494,-0.17613 -1.65313,-1.18045c-0.79653,-0.69071 -0.44744,-1.81925 -0.96626,-2.51569c-0.75785,-1.01733 -0.57279,-1.97022 -0.57279,-1.97022l0.29535,-3.03434c0,0 0.21398,2.24962 0.94629,3.17006c0.65521,0.82353 2.30194,0.26355 2.78204,0.32231c0.84067,0.10291 -0.28574,-3.3276 0.51577,-3.21089c0.43098,0.06276 3.72355,0.22102 3.72355,0.22102c0,0 -0.31386,3.5682 -0.08509,3.61659c1.34515,0.28447 4.49131,1.20271 4.49131,1.20271c0,0 1.37393,0.78878 1.53392,1.23885c0.19596,0.55122 0.26553,3.0135 0.26553,3.0135z" data-paper-data="{&quot;index&quot;:null}" fill="#252527" stroke="#000000" stroke-width="0" stroke-linecap="butt"/><path d="M229.00104,228.44694l2.78076,-0.75834" data-paper-data="{&quot;index&quot;:null}" fill="none" stroke="#ffffff" stroke-width="0.5" stroke-linecap="round"/><path d="M230.88246,229.04429l2.70469,-1.13417" data-paper-data="{&quot;index&quot;:null}" fill="none" stroke="#ffffff" stroke-width="0.5" stroke-linecap="round"/><path d="M234.64082,228.28372l-1.6215,1.26708" data-paper-data="{&quot;index&quot;:null}" fill="none" stroke="#ffffff" stroke-width="0.5" stroke-linecap="round"/><path d="M228.27001,224.44785l2.19596,0.02509" data-paper-data="{&quot;index&quot;:null}" fill="none" stroke="#969696" stroke-width="0.5" stroke-linecap="round"/><path d="M230.61808,225.22462l-1.97001,0.1248" data-paper-data="{&quot;index&quot;:null}" fill="none" stroke="#969696" stroke-width="0.5" stroke-linecap="round"/></g><g><path d="M239.12261,192.72435c3.596,-0.48619 10.74688,0.74953 10.74688,0.74953l7.52075,32.99996l-7.57045,1.02355c0,0 -4.7367,-25.13014 -5.98105,-29.03051c-0.35267,-1.10541 -3.54665,-1.61796 -3.54665,-1.61796c0,0 -4.20864,-3.71366 -1.16947,-4.12457z" fill="#453d36" stroke="#000000" stroke-width="0" stroke-linecap="butt"/><path d="M264.68951,232.64125c-0.58741,0.07942 -2.61845,0.36779 -4.6709,0.56401c-1.24785,0.1193 -1.96778,-0.35737 -2.91188,-0.37386c-1.18856,-0.02076 -2.88251,0.6122 -3.74975,0.5362c-1.59803,-0.14003 -2.45743,-0.45264 -2.45743,-0.45264c0,0 -0.40406,-0.98009 -0.49548,-1.53324c-0.12316,-0.74522 -0.17707,-2.53616 -0.17707,-2.53616c0,0 5.86472,-0.91358 8.18558,-1.02521c1.37331,-0.06606 4.28899,0.07279 4.28899,0.07279c0,0 1.52908,0.41447 1.79801,0.80922c0.32936,0.48348 1.13165,1.85375 1.13165,1.85375c0,0 -0.12228,1.97433 -0.94171,2.08513z" data-paper-data="{&quot;index&quot;:null}" fill="#141415" stroke="#000000" stroke-width="0" stroke-linecap="butt"/><path d="M264.07608,230.12595c-0.24598,0.03326 0.91067,1.4931 -2.41589,1.67187c-3.14134,0.16883 -2.91065,-0.80552 -4.01591,-0.73742c-2.31113,0.1424 -2.48459,0.93636 -3.49575,0.9187c-0.35215,-0.00615 -0.52343,-0.04481 -1.89852,-0.7225c-0.94569,-0.46606 -0.89429,-1.64625 -1.5728,-2.1883c-0.99111,-0.7918 -1.05384,-1.76046 -1.05384,-1.76046l-0.48402,-3.01002c0,0 0.77764,2.12176 1.71947,2.82632c0.84268,0.63039 2.2935,-0.32901 2.7728,-0.39395c0.83929,-0.11371 -1.12051,-3.14627 -0.3156,-3.2367c0.43281,-0.04862 3.65782,-0.73077 3.65782,-0.73077c0,0 0.60156,3.53113 0.83511,3.51989c1.37332,-0.06606 4.64948,0.02406 4.64948,0.02406c0,0 1.52908,0.41446 1.79801,0.80921c0.32936,0.48348 1.02128,2.84757 1.02128,2.84757c0,0 -0.38222,0.05168 -1.20167,0.16247z" data-paper-data="{&quot;index&quot;:null}" fill="#252527" stroke="#000000" stroke-width="0" stroke-linecap="butt"/><path d="M256.27961,228.21471l2.49743,-1.43892" fill="none" stroke="#ffffff" stroke-width="0.5" stroke-linecap="round"/><path d="M260.57953,226.5321l-2.32853,1.78316" fill="none" stroke="#ffffff" stroke-width="0.5" stroke-linecap="round"/><path d="M261.69353,226.62621l-1.24704,1.63695" fill="none" stroke="#ffffff" stroke-width="0.5" stroke-linecap="round"/><path d="M254.55806,224.53187l2.13049,-0.53277" fill="none" stroke="#969696" stroke-width="0.5" stroke-linecap="round"/><path d="M255.15244,225.30804l1.87392,-0.62044" fill="none" stroke="#969696" stroke-width="0.5" stroke-linecap="round"/></g><path d="M218.09056,204.90966c-0.09653,-2.34681 -0.03414,-5.14007 -0.03414,-5.14007c0,0 -0.18259,-3.99258 0.07937,-7.07947c0.22135,-2.60826 1.38243,-8.15648 1.93693,-13.39783c0.73711,-6.96758 0.87188,-13.55542 0.87188,-13.55542l5.68155,1.46148c0,0 -1.01981,12.94928 -1.41673,15.63936c-0.18454,1.25072 -0.62244,3.25602 -0.98048,5.28881c-0.15127,0.85889 -0.38352,3.61253 -0.52137,4.44976c-0.57325,3.48157 0.12978,6.44698 0.12978,6.44698c0,0 -0.35728,4.84834 -0.52856,5.53672c-0.35156,1.41299 -0.15468,4.32732 -0.7122,4.50163c-0.93917,0.29366 -0.7166,-5.37312 -0.98067,-4.92881c-0.49331,0.82997 -0.57097,4.56664 -1.05131,4.74096c-1.39916,0.50773 -0.16493,-4.53976 -0.54609,-4.09171c-0.72008,0.84644 -0.57388,3.8774 -1.11,3.90467c-0.51626,0.02626 -0.73111,-1.66542 -0.81797,-3.77706z" data-paper-data="{&quot;index&quot;:null}" fill="#6b999c" stroke="#000000" stroke-width="0" stroke-linecap="butt"/><path d="M260.1431,209.01247c-0.53612,-0.02728 -0.38992,-3.05823 -1.11,-3.90467c-0.38116,-0.44805 0.85307,4.59944 -0.54609,4.09171c-0.48035,-0.17432 -0.55801,-3.91099 -1.05132,-4.74096c-0.26407,-0.44431 -0.0415,5.22247 -0.98067,4.92881c-0.55751,-0.17432 -0.36064,-3.08864 -0.7122,-4.50163c-0.17128,-0.68838 -0.52856,-5.53672 -0.52856,-5.53672c0,0 0.70303,-2.9654 0.12978,-6.44698c-0.13785,-0.83723 -0.37009,-3.59086 -0.52137,-4.44976c-0.35803,-2.03278 -0.79594,-4.03809 -0.98047,-5.28881c-0.39692,-2.69009 -1.41673,-15.63936 -1.41673,-15.63936l5.68155,-1.46148c0,0 0.13477,6.58784 0.87189,13.55542c0.55449,5.24135 1.71558,10.78958 1.93692,13.39783c0.26197,3.08689 0.07938,7.07947 0.07938,7.07947c0,0 0.06239,2.79326 -0.03414,5.14007c-0.08686,2.11164 -0.30171,3.80333 -0.81797,3.77707z" data-paper-data="{&quot;index&quot;:null}" fill="#6b999c" stroke="#000000" stroke-width="0" stroke-linecap="butt"/><path d="M227.93875,165.40036c-0.25412,1.96201 0.3786,2.38634 -4.33052,1.46542c-5.57146,-1.08955 -3.72183,-0.51344 -3.46771,-2.47545c0.25412,-1.96201 1.08683,-5.48542 7.16065,-4.27049c3.16316,0.63272 0.8917,3.3185 0.63758,5.28051z" fill="#374a50" stroke="#000000" stroke-width="0" stroke-linecap="butt"/><path d="M251.7067,160.30944c6.07382,-1.21493 6.90653,2.30848 7.16065,4.27049c0.25412,1.96201 2.10376,1.38589 -3.4677,2.47545c-4.70913,0.92092 -4.0764,0.49659 -4.33052,-1.46542c-0.25412,-1.96201 -2.5256,-4.64779 0.63757,-5.28051z" data-paper-data="{&quot;index&quot;:null}" fill="#374a50" stroke="#000000" stroke-width="0" stroke-linecap="butt"/><path d="M235.9198,162.91939v-6.85104h7.65615v6.85104z" fill="url(#color-1)" stroke="#000000" stroke-width="0" stroke-linecap="butt"/><path d="M229.6398,193.59143c0,0 0.16709,-5.5597 -0.35268,-10.94382c-0.35317,-3.65847 -1.40473,-6.95919 -1.56162,-9.45339c-0.29447,-4.68133 -0.2105,-13.38223 -0.2105,-13.38223c0,0 3.69178,-0.58477 5.4694,-0.21857c2.26281,0.46615 7.00656,2.78867 7.00656,2.78867c0,0 3.67689,-2.17061 5.59031,-2.58687c2.01891,-0.43921 6.22369,0.01677 6.22369,0.01677c0,0 -0.06905,9.21711 -0.22689,12.65629c-0.13965,3.04285 -0.88957,6.36811 -1.18346,10.87293c-0.3029,4.64296 -0.14784,10.42155 -0.14784,10.42155c0,0 -2.75697,-0.76932 -5.57187,-0.83754c-1.27833,-0.03098 -1.79126,1.00612 -2.99851,1.16532c-0.96496,0.12724 -2.63623,-0.61291 -3.56107,-0.64966c-0.69915,-0.02778 -2.04377,-0.5306 -2.53801,-0.53471c-0.99795,-0.0083 -1.61572,0.86529 -2.77345,1.02464c-1.34484,0.1851 -3.1641,-0.33939 -3.1641,-0.33939z" fill="#374a50" stroke="#292e32" stroke-width="0" stroke-linecap="butt"/><g stroke="none" stroke-linecap="butt"><path d="M252.80945,144.26026c0,7.39154 -5.73774,13.38356 -12.8156,13.38356c-7.07786,0 -12.8156,-5.99202 -12.8156,-13.38356c0,-7.39154 5.73774,-13.38356 12.8156,-13.38356c7.07786,0 12.8156,5.99202 12.8156,13.38356z" fill="url(#color-2)" stroke-width="0"/><path d="M245.74217,149.66551c-0.98899,0.14802 -1.137,-0.84096 -1.137,-0.84096l-0.04548,-0.30387c-0.18667,-1.25255 -0.2693,-2.49618 -0.35208,-3.75939c0,0 -0.06538,-0.99786 0.93248,-1.06324c0.99786,-0.06538 1.06325,0.93248 1.06325,0.93248c0.07914,1.20785 0.15427,2.39677 0.33431,3.59411l0.04548,0.30387c0,0 0.14803,0.98899 -0.84096,1.13701z" fill="#191412" stroke-width="0.5"/><path d="M248.53392,145.00055c-0.3603,-1.31071 1.73333,-4.12384 1.73333,-4.12384c0,0 2.02159,2.4544 2.0489,4.09576c0.02905,1.74635 -3.34136,1.63194 -3.78223,0.02808z" fill="#191412" stroke-width="0.5"/><path d="M235.95234,144.8956c-0.26739,-1.38612 2.62073,-4.03936 2.62073,-4.03936c0,0 2.33641,2.50751 2.12366,4.18209c-0.22636,1.78169 -4.4172,1.55341 -4.74439,-0.14273z" data-paper-data="{&quot;index&quot;:null}" fill="#191412" stroke-width="0.5"/><path d="M235.75965,153.85716c0,-0.41002 0.3231,-0.74242 0.72166,-0.74242c0.39855,0 0.72166,0.3324 0.72166,0.74242c0,0.41002 -0.32309,0.74242 -0.72166,0.74242c-0.39855,0 -0.72166,-0.3324 -0.72166,-0.74242z" fill="#00ffcc" stroke-width="0.5"/><path d="M235.02054,150.89171c0,-0.41002 0.32309,-0.74242 0.72165,-0.74242c0.39855,0 0.72166,0.33239 0.72166,0.74242c0,0.41002 -0.3231,0.74242 -0.72166,0.74242c-0.39855,0 -0.72165,-0.3324 -0.72165,-0.74242z" fill="#00ffcc" stroke-width="0.5"/><path d="M232.80322,152.1083c0,-0.41002 0.32309,-0.74242 0.72165,-0.74242c0.39855,0 0.72166,0.3324 0.72166,0.74242c0,0.41002 -0.3231,0.74242 -0.72166,0.74242c-0.39855,0 -0.72165,-0.33239 -0.72165,-0.74242z" fill="#00ffcc" stroke-width="0.5"/><path d="M232.06411,149.14285c0,-0.41002 0.3231,-0.74241 0.72166,-0.74241c0.39855,0 0.72166,0.33239 0.72166,0.74241c0,0.41002 -0.3231,0.74242 -0.72166,0.74242c-0.39855,0 -0.72166,-0.3324 -0.72166,-0.74242z" fill="#00ffcc" stroke-width="0.5"/><path d="M249.21595,153.71632c-0.21234,0 -0.38448,-0.33239 -0.38448,-0.74242c0,-0.41002 0.17214,-0.74242 0.38448,-0.74242c0.21234,0 0.38447,0.33239 0.38447,0.74242c0,0.41002 -0.17213,0.74242 -0.38447,0.74242z" fill="#00ffcc" stroke-width="0.5"/><path d="M249.60972,150.75087c-0.21234,0 -0.38448,-0.33239 -0.38448,-0.74242c0,-0.41002 0.17214,-0.74242 0.38448,-0.74242c0.21234,0 0.38448,0.33239 0.38448,0.74242c0,0.41002 -0.17214,0.74242 -0.38448,0.74242z" fill="#00ffcc" stroke-width="0.5"/><path d="M250.79103,151.96747c-0.21234,0 -0.38448,-0.3324 -0.38448,-0.74242c0,-0.41002 0.17214,-0.74241 0.38448,-0.74241c0.21234,0 0.38448,0.33239 0.38448,0.74241c0,0.41002 -0.17214,0.74242 -0.38448,0.74242z" fill="#00ffcc" stroke-width="0.5"/><path d="M251.1848,149.00202c-0.21234,0 -0.38448,-0.33239 -0.38448,-0.74241c0,-0.41002 0.17213,-0.74242 0.38448,-0.74242c0.21234,0 0.38448,0.3324 0.38448,0.74242c0,0.41002 -0.17214,0.74241 -0.38448,0.74241z" fill="#00ffcc" stroke-width="0.5"/><path d="M241.69142,137.42512c0,-0.39455 0.31984,-0.71439 0.71439,-0.71439c0.39455,0 0.71439,0.31984 0.71439,0.71439c0,0.39455 -0.31984,0.71439 -0.71439,0.71439c-0.39455,0 -0.71439,-0.31984 -0.71439,-0.71439z" fill="#00ffcc" stroke-width="0.5"/><path d="M243.66692,134.57161c0,-0.39455 0.31984,-0.7144 0.71439,-0.7144c0.39455,0 0.71439,0.31985 0.71439,0.7144c0,0.39455 -0.31984,0.71439 -0.71439,0.71439c-0.39455,0 -0.71439,-0.31984 -0.71439,-0.71439z" fill="#00ffcc" stroke-width="0.5"/><path d="M245.64243,137.49829c0,-0.39455 0.31984,-0.71439 0.71439,-0.71439c0.39455,0 0.71439,0.31984 0.71439,0.71439c0,0.39455 -0.31984,0.71439 -0.71439,0.71439c-0.39455,0 -0.71439,-0.31984 -0.71439,-0.71439z" fill="#00ffcc" stroke-width="0.5"/></g></g></g></svg>