<svg version="1.1" xmlns="http://www.w3.org/2000/svg" xmlns:xlink="http://www.w3.org/1999/xlink" width="59" height="59.70662" viewBox="0,0,59,59.70662"><defs><linearGradient x1="240" y1="151.64669" x2="240" y2="208.35331" gradientUnits="userSpaceOnUse" id="color-1"><stop offset="0" stop-color="#191919"/><stop offset="1" stop-color="#050505"/></linearGradient><linearGradient x1="240" y1="151.64669" x2="240" y2="208.35331" gradientUnits="userSpaceOnUse" id="color-2"><stop offset="0" stop-color="#cccccc"/><stop offset="1" stop-color="#898989"/></linearGradient><radialGradient cx="240" cy="180" r="26.8571" gradientUnits="userSpaceOnUse" id="color-3"><stop offset="0" stop-color="#ffffff" stop-opacity="0.35484"/><stop offset="1" stop-color="#ffffff" stop-opacity="0"/></radialGradient><linearGradient x1="240" y1="153.29211" x2="240" y2="206.70789" gradientUnits="userSpaceOnUse" id="color-4"><stop offset="0" stop-color="#cccccc"/><stop offset="1" stop-color="#898989"/></linearGradient><linearGradient x1="243.19771" y1="195.87472" x2="244.3289" y2="195.87472" gradientUnits="userSpaceOnUse" id="color-5"><stop offset="0" stop-color="#525252"/><stop offset="1" stop-color="#363636"/></linearGradient><linearGradient x1="243.19771" y1="195.87472" x2="244.3289" y2="195.87472" gradientUnits="userSpaceOnUse" id="color-6"><stop offset="0" stop-color="#1f1f1f"/><stop offset="1" stop-color="#000000"/></linearGradient><linearGradient x1="232.85204" y1="197.02402" x2="246.81109" y2="197.02402" gradientUnits="userSpaceOnUse" id="color-7"><stop offset="0" stop-color="#2f2f2f"/><stop offset="1" stop-color="#040404"/></linearGradient><linearGradient x1="232.85204" y1="197.02402" x2="246.81109" y2="197.02402" gradientUnits="userSpaceOnUse" id="color-8"><stop offset="0" stop-color="#1f1f1f"/><stop offset="1" stop-color="#000000"/></linearGradient><linearGradient x1="237.62878" y1="193.19177" x2="242.06652" y2="193.19177" gradientUnits="userSpaceOnUse" id="color-9"><stop offset="0" stop-color="#444444"/><stop offset="1" stop-color="#252525"/></linearGradient><linearGradient x1="236.19304" y1="196.0351" x2="243.32823" y2="196.0351" gradientUnits="userSpaceOnUse" id="color-10"><stop offset="0" stop-color="#444444"/><stop offset="1" stop-color="#252525"/></linearGradient><linearGradient x1="234.98863" y1="199.17393" x2="244.56766" y2="199.17393" gradientUnits="userSpaceOnUse" id="color-11"><stop offset="0" stop-color="#444444"/><stop offset="1" stop-color="#252525"/></linearGradient><linearGradient x1="233.71313" y1="202.30014" x2="245.89516" y2="202.30014" gradientUnits="userSpaceOnUse" id="color-12"><stop offset="0" stop-color="#444444"/><stop offset="1" stop-color="#252525"/></linearGradient><linearGradient x1="242.10956" y1="192.16594" x2="245.63432" y2="192.16594" gradientUnits="userSpaceOnUse" id="color-13"><stop offset="0" stop-color="#b2b2b2"/><stop offset="1" stop-color="#363636"/></linearGradient><linearGradient x1="242.10956" y1="192.16594" x2="245.63432" y2="192.16594" gradientUnits="userSpaceOnUse" id="color-14"><stop offset="0" stop-color="#1f1f1f"/><stop offset="1" stop-color="#000000"/></linearGradient><linearGradient x1="246.87904" y1="187.37658" x2="253.79805" y2="187.37658" gradientUnits="userSpaceOnUse" id="color-15"><stop offset="0" stop-color="#353535"/><stop offset="1" stop-color="#1f1f1f"/></linearGradient><linearGradient x1="246.87904" y1="187.61427" x2="251.61154" y2="187.61427" gradientUnits="userSpaceOnUse" id="color-16"><stop offset="0" stop-color="#272727"/><stop offset="1" stop-color="#000000"/></linearGradient><linearGradient x1="233.12096" y1="187.30406" x2="226.20196" y2="187.30406" gradientUnits="userSpaceOnUse" id="color-17"><stop offset="0" stop-color="#6b6b6b"/><stop offset="1" stop-color="#838383"/></linearGradient><linearGradient x1="228.38846" y1="187.54176" x2="233.12096" y2="187.54176" gradientUnits="userSpaceOnUse" id="color-18"><stop offset="0" stop-color="#272727"/><stop offset="1" stop-color="#000000"/></linearGradient><linearGradient x1="233.10174" y1="181.77705" x2="246.8956" y2="181.77705" gradientUnits="userSpaceOnUse" id="color-19"><stop offset="0" stop-color="#646464"/><stop offset="1" stop-color="#222222"/></linearGradient><linearGradient x1="233.10174" y1="181.77705" x2="246.8956" y2="181.77705" gradientUnits="userSpaceOnUse" id="color-20"><stop offset="0" stop-color="#272727"/><stop offset="1" stop-color="#000000"/></linearGradient><linearGradient x1="232.97689" y1="163.33854" x2="246.93594" y2="163.33854" gradientUnits="userSpaceOnUse" id="color-21"><stop offset="0" stop-color="#c9c9c9"/><stop offset="1" stop-color="#3e3e3e"/></linearGradient><linearGradient x1="232.97689" y1="163.33854" x2="246.93594" y2="163.33854" gradientUnits="userSpaceOnUse" id="color-22"><stop offset="0" stop-color="#272727"/><stop offset="1" stop-color="#000000"/></linearGradient><linearGradient x1="236.9797" y1="158.82192" x2="242.91031" y2="158.82192" gradientUnits="userSpaceOnUse" id="color-23"><stop offset="0" stop-color="#8c8c8c"/><stop offset="1" stop-color="#222222"/></linearGradient><linearGradient x1="236.9797" y1="158.82192" x2="242.91032" y2="158.82192" gradientUnits="userSpaceOnUse" id="color-24"><stop offset="0" stop-color="#272727"/><stop offset="1" stop-color="#000000"/></linearGradient><radialGradient cx="239.29507" cy="163.36707" r="2.60395" gradientUnits="userSpaceOnUse" id="color-25"><stop offset="0" stop-color="#9cd7f7"/><stop offset="1" stop-color="#0087f6"/></radialGradient><linearGradient x1="237.35247" y1="164.75253" x2="242.56036" y2="164.75253" gradientUnits="userSpaceOnUse" id="color-26"><stop offset="0" stop-color="#272727"/><stop offset="1" stop-color="#000000"/></linearGradient><linearGradient x1="237.11008" y1="158.08125" x2="242.73024" y2="158.08125" gradientUnits="userSpaceOnUse" id="color-27"><stop offset="0" stop-color="#ffffff"/><stop offset="1" stop-color="#606060"/></linearGradient><linearGradient x1="237.11008" y1="158.08125" x2="242.73024" y2="158.08125" gradientUnits="userSpaceOnUse" id="color-28"><stop offset="0" stop-color="#272727"/><stop offset="1" stop-color="#000000"/></linearGradient><linearGradient x1="240.49175" y1="182.35926" x2="245.90219" y2="182.35926" gradientUnits="userSpaceOnUse" id="color-29"><stop offset="0" stop-color="#4a382c"/><stop offset="1" stop-color="#301f1b"/></linearGradient><linearGradient x1="240.49175" y1="182.35926" x2="245.90219" y2="182.35926" gradientUnits="userSpaceOnUse" id="color-30"><stop offset="0" stop-color="#351c12"/><stop offset="1" stop-color="#1a1310"/></linearGradient><linearGradient x1="240.4772" y1="182.3613" x2="245.87512" y2="182.3613" gradientUnits="userSpaceOnUse" id="color-31"><stop offset="0" stop-color="#351c12"/><stop offset="1" stop-color="#1a1310"/></linearGradient><linearGradient x1="240.4772" y1="182.3202" x2="245.87512" y2="182.3202" gradientUnits="userSpaceOnUse" id="color-32"><stop offset="0" stop-color="#351c12"/><stop offset="1" stop-color="#1a1310"/></linearGradient><linearGradient x1="234.0252" y1="182.38667" x2="239.43564" y2="182.38667" gradientUnits="userSpaceOnUse" id="color-33"><stop offset="0" stop-color="#4a382c"/><stop offset="1" stop-color="#301f1b"/></linearGradient><linearGradient x1="234.0252" y1="182.38667" x2="239.43564" y2="182.38667" gradientUnits="userSpaceOnUse" id="color-34"><stop offset="0" stop-color="#351c12"/><stop offset="1" stop-color="#1a1310"/></linearGradient><linearGradient x1="234.01065" y1="182.3887" x2="239.40857" y2="182.3887" gradientUnits="userSpaceOnUse" id="color-35"><stop offset="0" stop-color="#351c12"/><stop offset="1" stop-color="#1a1310"/></linearGradient><linearGradient x1="234.01065" y1="182.3476" x2="239.40857" y2="182.3476" gradientUnits="userSpaceOnUse" id="color-36"><stop offset="0" stop-color="#351c12"/><stop offset="1" stop-color="#1a1310"/></linearGradient><linearGradient x1="240.49175" y1="188.88535" x2="245.90219" y2="188.88535" gradientUnits="userSpaceOnUse" id="color-37"><stop offset="0" stop-color="#4a382c"/><stop offset="1" stop-color="#301f1b"/></linearGradient><linearGradient x1="240.49175" y1="188.88535" x2="245.90219" y2="188.88535" gradientUnits="userSpaceOnUse" id="color-38"><stop offset="0" stop-color="#351c12"/><stop offset="1" stop-color="#1a1310"/></linearGradient><linearGradient x1="240.4772" y1="188.88739" x2="245.87512" y2="188.88739" gradientUnits="userSpaceOnUse" id="color-39"><stop offset="0" stop-color="#351c12"/><stop offset="1" stop-color="#1a1310"/></linearGradient><linearGradient x1="240.4772" y1="188.84629" x2="245.87512" y2="188.84629" gradientUnits="userSpaceOnUse" id="color-40"><stop offset="0" stop-color="#351c12"/><stop offset="1" stop-color="#1a1310"/></linearGradient><linearGradient x1="234.0252" y1="188.91275" x2="239.43564" y2="188.91275" gradientUnits="userSpaceOnUse" id="color-41"><stop offset="0" stop-color="#4a382c"/><stop offset="1" stop-color="#301f1b"/></linearGradient><linearGradient x1="234.0252" y1="188.91275" x2="239.43564" y2="188.91275" gradientUnits="userSpaceOnUse" id="color-42"><stop offset="0" stop-color="#351c12"/><stop offset="1" stop-color="#1a1310"/></linearGradient><linearGradient x1="234.01065" y1="188.91479" x2="239.40857" y2="188.91479" gradientUnits="userSpaceOnUse" id="color-43"><stop offset="0" stop-color="#351c12"/><stop offset="1" stop-color="#1a1310"/></linearGradient><linearGradient x1="234.01065" y1="188.87369" x2="239.40857" y2="188.87369" gradientUnits="userSpaceOnUse" id="color-44"><stop offset="0" stop-color="#351c12"/><stop offset="1" stop-color="#1a1310"/></linearGradient><linearGradient x1="233.80014" y1="174.93323" x2="246.11269" y2="174.93323" gradientUnits="userSpaceOnUse" id="color-45"><stop offset="0" stop-color="#515151"/><stop offset="1" stop-color="#131313"/></linearGradient><linearGradient x1="233.80014" y1="174.93323" x2="246.11269" y2="174.93323" gradientUnits="userSpaceOnUse" id="color-46"><stop offset="0" stop-color="#272727"/><stop offset="1" stop-color="#000000"/></linearGradient><linearGradient x1="234.44142" y1="172.25409" x2="245.38591" y2="172.25409" gradientUnits="userSpaceOnUse" id="color-47"><stop offset="0" stop-color="#272727"/><stop offset="1" stop-color="#000000"/></linearGradient><linearGradient x1="234.48417" y1="177.65205" x2="245.25766" y2="177.65205" gradientUnits="userSpaceOnUse" id="color-48"><stop offset="0" stop-color="#272727"/><stop offset="1" stop-color="#000000"/></linearGradient><linearGradient x1="237.49826" y1="168.66818" x2="242.41458" y2="168.66818" gradientUnits="userSpaceOnUse" id="color-49"><stop offset="0" stop-color="#272727"/><stop offset="1" stop-color="#000000"/></linearGradient><linearGradient x1="237.49826" y1="168.01557" x2="242.41458" y2="168.01557" gradientUnits="userSpaceOnUse" id="color-50"><stop offset="0" stop-color="#272727"/><stop offset="1" stop-color="#000000"/></linearGradient><linearGradient x1="237.49826" y1="169.32079" x2="242.41458" y2="169.32079" gradientUnits="userSpaceOnUse" id="color-51"><stop offset="0" stop-color="#272727"/><stop offset="1" stop-color="#000000"/></linearGradient></defs><g transform="translate(-210.5,-150.14669)"><g data-paper-data="{&quot;isPaintingLayer&quot;:true}" fill-rule="nonzero" stroke-linejoin="miter" stroke-miterlimit="10" stroke-dasharray="" stroke-dashoffset="0" style="mix-blend-mode: normal"><path d="M212,208.35331v-56.70662h56v56.70662z" fill="url(#color-1)" stroke="url(#color-2)" stroke-width="3" stroke-linecap="butt"/><path d="M266.8571,180c0,14.75036 -12.02433,26.70789 -26.8571,26.70789c-14.83277,0 -26.8571,-11.95753 -26.8571,-26.70789c0,-14.75036 12.02433,-26.70789 26.8571,-26.70789c14.83277,0 26.8571,11.95753 26.8571,26.70789z" fill="url(#color-3)" stroke="url(#color-4)" stroke-width="0" stroke-linecap="butt"/><g stroke-width="0.5"><path d="M243.19771,197.74553v-3.74162h1.13119v3.74162z" fill="url(#color-5)" stroke="url(#color-6)" stroke-linecap="butt"/><path d="M232.85204,204.00382c0,0 5.21223,-14.06141 6.98048,-13.95905c2.02284,0.11709 6.97857,13.95905 6.97857,13.95905z" fill="url(#color-7)" stroke="url(#color-8)" stroke-linecap="butt"/><path d="M242.06652,193.19177h-4.43774" fill="none" stroke="url(#color-9)" stroke-linecap="round"/><path d="M243.32823,196.0351h-7.13519" fill="none" stroke="url(#color-10)" stroke-linecap="round"/><path d="M244.56765,199.17393h-9.57902" fill="none" stroke="url(#color-11)" stroke-linecap="round"/><path d="M233.71313,202.30014h12.18203" fill="none" stroke="url(#color-12)" stroke-linecap="round"/><path d="M245.63432,192.16594c-0.01319,1.65731 -0.05494,1.83463 -1.76238,1.81707c-1.70798,-0.01757 -1.78356,-0.24214 -1.76238,-1.81707c0.02339,-1.73882 0.01842,-1.85968 1.76238,-1.81707c1.67094,0.04083 1.77686,-0.00283 1.76238,1.81707z" fill="url(#color-13)" stroke="url(#color-14)" stroke-linecap="butt"/></g><path d="M246.87904,193.05265v-14.1076c0,0 1.77534,9.47013 2.39604,11.75663c0.49109,1.80902 2.33646,5.58183 2.33646,5.58183z" fill="url(#color-15)" stroke="url(#color-16)" stroke-width="0.5" stroke-linecap="butt"/><path d="M228.38846,196.21098c0,0 1.84537,-3.7728 2.33646,-5.58182c0.6207,-2.2865 2.39604,-11.75663 2.39604,-11.75663v14.1076z" data-paper-data="{&quot;index&quot;:null}" fill="url(#color-17)" stroke="url(#color-18)" stroke-width="0.5" stroke-linecap="butt"/><path d="M233.10174,193.09296v-22.63183h13.79386v22.63183z" fill="url(#color-19)" stroke="url(#color-20)" stroke-width="0.5" stroke-linecap="butt"/><path d="M232.97689,170.31835c0,0 5.13972,-14.06141 6.90797,-13.95905c2.02284,0.11709 7.05108,13.95905 7.05108,13.95905z" fill="url(#color-21)" stroke="url(#color-22)" stroke-width="0.5" stroke-linecap="butt"/><path d="M237.03515,160.81945l0.24057,-0.53638l5.34202,-0.01494l0.23712,0.55133z" fill="url(#color-23)" stroke="url(#color-24)" stroke-width="0.5" stroke-linecap="butt"/><path d="M242.56036,164.75253c0,1.40938 -1.16583,2.55192 -2.60395,2.55192c-1.43812,0 -2.60395,-1.14253 -2.60395,-2.55192c0,-1.40938 1.16583,-2.55192 2.60395,-2.55192c1.43812,0 2.60395,1.14253 2.60395,2.55192z" fill="url(#color-25)" stroke="url(#color-26)" stroke-width="0.5" stroke-linecap="butt"/><path d="M237.11008,160.16632c0,0 2.06934,-4.20055 2.78127,-4.16998c0.81443,0.03498 2.83889,4.16998 2.83889,4.16998z" fill="url(#color-27)" stroke="url(#color-28)" stroke-width="0.5" stroke-linecap="butt"/><g stroke-width="0.5"><path d="M240.49175,185.1758v-5.63306h5.41044v5.63306z" fill="url(#color-29)" stroke="url(#color-30)" stroke-linecap="butt"/><path d="M240.4772,185.10137l5.39793,-5.48013" fill="none" stroke="url(#color-31)" stroke-linecap="round"/><path d="M245.87512,185.12877l-5.34312,-5.56233" fill="none" stroke="url(#color-32)" stroke-linecap="round"/></g><g stroke-width="0.5"><path d="M234.0252,185.2032v-5.63306h5.41044v5.63306z" fill="url(#color-33)" stroke="url(#color-34)" stroke-linecap="butt"/><path d="M239.40858,179.64864l-5.39793,5.48013" fill="none" stroke="url(#color-35)" stroke-linecap="round"/><path d="M234.06545,179.59384l5.34312,5.56233" fill="none" stroke="url(#color-36)" stroke-linecap="round"/></g><g stroke-width="0.5"><path d="M240.49175,191.70188v-5.63306h5.41044v5.63306z" fill="url(#color-37)" stroke="url(#color-38)" stroke-linecap="butt"/><path d="M245.87513,186.14733l-5.39793,5.48013" fill="none" stroke="url(#color-39)" stroke-linecap="round"/><path d="M240.532,186.09253l5.34312,5.56233" fill="none" stroke="url(#color-40)" stroke-linecap="round"/></g><g stroke-width="0.5"><path d="M234.0252,191.72928v-5.63306h5.41044v5.63306z" fill="url(#color-41)" stroke="url(#color-42)" stroke-linecap="butt"/><path d="M239.40857,186.17473l-5.39793,5.48013" fill="none" stroke="url(#color-43)" stroke-linecap="round"/><path d="M239.40857,191.68226l-5.34312,-5.56233" fill="none" stroke="url(#color-44)" stroke-linecap="round"/></g><g stroke-width="0.5"><path d="M233.80014,178.32679v-6.78713h12.31255v6.78713z" fill="url(#color-45)" stroke="url(#color-46)" stroke-linecap="butt"/><path d="M234.44142,172.25409h10.94449" fill="none" stroke="url(#color-47)" stroke-linecap="round"/><path d="M245.25766,177.65205h-10.77348" fill="none" stroke="url(#color-48)" stroke-linecap="round"/></g><path d="M237.49826,168.66818h4.91632" fill="none" stroke="url(#color-49)" stroke-width="0.5" stroke-linecap="round"/><path d="M237.49826,168.01557h4.91632" fill="none" stroke="url(#color-50)" stroke-width="0.5" stroke-linecap="round"/><path d="M242.41458,169.32079h-4.91632" fill="none" stroke="url(#color-51)" stroke-width="0.5" stroke-linecap="round"/><path d="M215.27327,167.03272v-12.39235h25.93332v8.69862h-15.56684l0,3.69373z" fill-opacity="0.53453" fill="#000000" stroke="#a60000" stroke-width="0" stroke-linecap="butt"/><text transform="translate(215.70712,161.61518) scale(0.21839,0.21839)" font-size="40" xml:space="preserve" fill="#ffffff" fill-rule="nonzero" stroke="#000000" stroke-width="0" stroke-linecap="butt" stroke-linejoin="miter" stroke-miterlimit="10" stroke-dasharray="" stroke-dashoffset="0" font-family="Serif" font-weight="normal" text-anchor="start" style="mix-blend-mode: normal"><tspan x="0" dy="0">Rocket</tspan></text><text transform="translate(215.56527,166.16681) scale(0.11601,0.11601)" font-size="40" xml:space="preserve" fill="#ffffff" fill-rule="nonzero" stroke="#000000" stroke-width="0" stroke-linecap="butt" stroke-linejoin="miter" stroke-miterlimit="10" stroke-dasharray="" stroke-dashoffset="0" font-family="Serif" font-weight="normal" text-anchor="start" style="mix-blend-mode: normal"><tspan x="0" dy="0">1-1-1</tspan></text></g></g></svg>