<svg version="1.1" xmlns="http://www.w3.org/2000/svg" xmlns:xlink="http://www.w3.org/1999/xlink" width="488" height="456.96171" viewBox="0,0,488,456.96171"><defs><radialGradient cx="239.76178" cy="177.81006" r="244" gradientUnits="userSpaceOnUse" id="color-1"><stop offset="0" stop-color="#121212"/><stop offset="1" stop-color="#868686"/></radialGradient><radialGradient cx="240.00006" cy="180.00007" r="173.5" gradientUnits="userSpaceOnUse" id="color-2"><stop offset="0" stop-color="#000000"/><stop offset="1" stop-color="#000000" stop-opacity="0"/></radialGradient><radialGradient cx="237.93829" cy="318.1666" r="116.49049" gradientUnits="userSpaceOnUse" id="color-3"><stop offset="0" stop-color="#33266a"/><stop offset="1" stop-color="#949074"/></radialGradient><linearGradient x1="242.7439" y1="206.71003" x2="247.12426" y2="240.06435" gradientUnits="userSpaceOnUse" id="color-4"><stop offset="0" stop-color="#5fa5c2"/><stop offset="1" stop-color="#7fff7d"/></linearGradient><radialGradient cx="217.12983" cy="96.63091" r="64.41492" gradientUnits="userSpaceOnUse" id="color-5"><stop offset="0" stop-color="#ffa8a8"/><stop offset="1" stop-color="#ffed7d"/></radialGradient><radialGradient cx="232.39258" cy="141.39011" r="13.70696" gradientUnits="userSpaceOnUse" id="color-6"><stop offset="0" stop-color="#daffe3"/><stop offset="1" stop-color="#0c1a0f"/></radialGradient><radialGradient cx="266.89257" cy="159.89011" r="16.12716" gradientUnits="userSpaceOnUse" id="color-7"><stop offset="0" stop-color="#5f6471"/><stop offset="1" stop-color="#171d2c"/></radialGradient><radialGradient cx="291.89257" cy="138.39011" r="13.22358" gradientUnits="userSpaceOnUse" id="color-8"><stop offset="0" stop-color="#ffd0d0"/><stop offset="1" stop-color="#2a0000"/></radialGradient><linearGradient x1="200.14008" y1="114.57175" x2="222.25791" y2="140.63579" gradientUnits="userSpaceOnUse" id="color-9"><stop offset="0" stop-color="#694444"/><stop offset="1" stop-color="#98a1b9"/></linearGradient><radialGradient cx="111.65526" cy="41.42386" r="65.45502" gradientUnits="userSpaceOnUse" id="color-10"><stop offset="0" stop-color="#dcdcdc"/><stop offset="1" stop-color="#a0a0a0"/></radialGradient><radialGradient cx="152.61257" cy="47.38738" r="46.28026" gradientUnits="userSpaceOnUse" id="color-11"><stop offset="0" stop-color="#d1ffc4"/><stop offset="1" stop-color="#2188ff"/></radialGradient><radialGradient cx="152.61257" cy="47.38738" r="46.28026" gradientUnits="userSpaceOnUse" id="color-12"><stop offset="0" stop-color="#ceffc4"/><stop offset="1" stop-color="#ff21cc"/></radialGradient><radialGradient cx="152.61257" cy="47.38738" r="46.28026" gradientUnits="userSpaceOnUse" id="color-13"><stop offset="0" stop-color="#ffe9c4"/><stop offset="1" stop-color="#4fff21"/></radialGradient><radialGradient cx="152.61257" cy="47.38738" r="46.28026" gradientUnits="userSpaceOnUse" id="color-14"><stop offset="0" stop-color="#ffe9c4"/><stop offset="1" stop-color="#4fff21"/></radialGradient><radialGradient cx="152.6125" cy="47.38742" r="46.28024" gradientUnits="userSpaceOnUse" id="color-15"><stop offset="0" stop-color="#ffe9c4"/><stop offset="1" stop-color="#ffa321"/></radialGradient><radialGradient cx="152.61246" cy="47.38746" r="46.28024" gradientUnits="userSpaceOnUse" id="color-16"><stop offset="0" stop-color="#c4f0ff"/><stop offset="1" stop-color="#3d21ff"/></radialGradient><radialGradient cx="97.28357" cy="44.73407" r="50.24886" gradientUnits="userSpaceOnUse" id="color-17"><stop offset="0" stop-color="#1c2f30"/><stop offset="1" stop-color="#142913"/></radialGradient><radialGradient cx="160.09203" cy="-10.27278" r="13.22632" gradientUnits="userSpaceOnUse" id="color-18"><stop offset="0" stop-color="#786c41"/><stop offset="1" stop-color="#141a29"/></radialGradient><radialGradient cx="117.47037" cy="27.09662" r="20.82216" gradientUnits="userSpaceOnUse" id="color-19"><stop offset="0" stop-color="#7ba676"/><stop offset="1" stop-color="#291616"/></radialGradient></defs><g transform="translate(4.23828,22.01361)"><g data-paper-data="{&quot;isPaintingLayer&quot;:true}" fill-rule="nonzero" stroke-linecap="butt" stroke-linejoin="miter" stroke-miterlimit="10" stroke-dasharray="" stroke-dashoffset="0" style="mix-blend-mode: normal"><path d="M-4.23828,360.81007v-366h488v366z" fill="url(#color-1)" stroke="none" stroke-width="0"/><path d="M413.50001,180.00007c0,97.7544 -77.6786,177 -173.5,177c-95.8214,0 -173.5,-79.2456 -173.5,-177c0,-97.7544 77.6786,-177 173.5,-177c95.8214,0 173.5,79.2456 173.5,177z" fill="url(#color-2)" stroke="none" stroke-width="0"/><path d="M160.25243,434.36546l0.87834,-232.97929l154.49348,0.58264l-0.87834,232.97929z" data-paper-data="{&quot;index&quot;:null}" fill="url(#color-3)" stroke="#ed6b00" stroke-width="0"/><path d="M361.56086,233.40763c-13.3428,4.147 -30.36195,9.04003 -30.36195,9.04003c0,0 -33.57032,8.81447 -35.76027,3.98071c-12.80928,-28.26923 26.243,-30.98643 26.243,-30.98643c0,0 25.65807,-7.95077 39.84417,-12.36051c8.76693,-1.99371 12.59201,25.97157 0.03505,30.32614z" data-paper-data="{&quot;index&quot;:null}" fill="#a3bda9" stroke="#000000" stroke-width="0"/><g><path d="M228.48725,242.5119l-4.38035,-33.35423l37.2739,-4.89511l4.38035,33.35423z" fill="url(#color-4)" stroke="#000000" stroke-width="0"/><path d="M302.57782,144.27643c1.15825,37.94343 -26.06368,69.56234 -60.80191,70.62275c-34.73819,1.06041 -63.8381,-28.83915 -64.99636,-66.78266c-1.15825,-37.94348 26.06372,-69.56234 60.80196,-70.62275c34.73815,-1.06041 63.83806,28.83915 64.99631,66.78267z" fill="url(#color-5)" stroke="none" stroke-width="0"/><path d="M234.24021,154.93526c-2.50656,4.56413 -7.13506,2.1034 -7.13506,2.1034c-4.67209,-2.5948 -12.48175,-5.39491 -11.96181,-12.87968c0.42489,-6.11682 10.39255,-11.81263 15.78488,-10.83296c9.78211,1.7772 18.67383,18.83841 3.31207,21.60924z" data-paper-data="{&quot;index&quot;:null}" fill="url(#color-6)" stroke="none" stroke-width="0.5"/><path d="M257.0938,176.41599c0.6539,-2.32212 2.30108,-2.87228 3.52687,-2.93738c0.38889,-0.03601 0.78833,-0.01594 1.18741,0.06639c-1.57584,-5.26582 -0.89405,-12.15203 -2.76053,-17.23739c0,0 -1.37318,-3.81193 2.43876,-5.18519c3.8119,-1.37313 5.18515,2.4388 5.18515,2.4388c2.25503,6.35973 4.01183,14.21829 4.0846,21.08007c0.02731,2.57134 1.45218,6.00343 -0.48065,7.6995c-2.00564,1.75997 -5.33394,-0.17113 -8.00098,-0.25671l-2.37873,-0.66982c-0.49303,-0.13881 -0.93874,-0.36294 -1.32595,-0.65208c-1.01167,-0.69505 -2.12977,-2.02393 -1.47587,-4.34605z" data-paper-data="{&quot;index&quot;:null}" fill="url(#color-7)" stroke="none" stroke-width="0.5"/><path d="M291.1509,132.11765c7.90861,2.00089 15.22634,20.50137 2.85304,23.36571c-1.98457,4.90829 -5.7402,2.21218 -5.7402,2.21218c-3.79187,-2.84138 -10.11739,-5.93054 -9.76022,-14.00987c0.29187,-6.60261 8.28781,-12.67099 12.64741,-11.56801z" data-paper-data="{&quot;index&quot;:null}" fill="url(#color-8)" stroke="none" stroke-width="0.5"/></g><g><path d="M191.01713,142.0236l-7.49856,-13.6737l31.18498,-26.13681l9.27268,11.84271c0,0 -4.56506,26.78295 -10.27936,32.60803c-5.01485,5.11208 -22.67974,-4.64025 -22.67974,-4.64025z" data-paper-data="{&quot;index&quot;:null}" fill="url(#color-9)" stroke="#000000" stroke-width="0"/><path d="M209.72621,25.1433c24.9582,29.41172 23.36308,71.77776 -3.56385,94.62791c-26.92692,22.85035 -68.98835,17.5316 -93.94705,-11.8806c-24.95822,-29.41172 -23.36306,-71.77774 3.56405,-94.62805c26.92692,-22.85035 68.98835,-17.5316 93.94705,11.88059z" data-paper-data="{&quot;index&quot;:null}" fill="url(#color-10)" stroke="none" stroke-width="0"/><g data-paper-data="{&quot;index&quot;:null}" stroke="#ed6b00" stroke-width="0"><path d="M201.48608,85.75612c-38.61232,32.75559 -60.8175,11.30863 -72.07269,-3.60501c-11.25479,-14.91372 3.12916,-45.47869 23.45549,-60.96049c20.32632,-15.48176 50.21868,-15.21937 61.47355,-0.30581c0,0 30.19806,29.08203 -12.85662,64.87102z" data-paper-data="{&quot;index&quot;:null}" fill="url(#color-11)"/><path d="M201.48608,85.75604c-30.76932,26.10217 -51.11982,17.785 -63.8131,5.78252c9.72016,3.85641 20.83363,2.81188 29.36064,-3.77743c13.25501,-10.24292 15.24057,-30.00531 4.43488,-44.14061c-7.20041,-9.41912 -18.26356,-13.96285 -28.76625,-12.91564c3.12723,-3.53302 6.55303,-6.76201 10.16655,-9.5143c6.19564,-4.71897 13.28006,-7.97519 20.45455,-9.7996c9.54355,6.33264 21.64957,7.23589 31.47395,1.92601c3.8545,1.84032 7.12918,4.36645 9.5451,7.56778c0,0 1.22276,1.17758 2.82535,3.35043c-2.69394,0.9891 -5.27302,2.39546 -7.65095,4.23303c-13.25501,10.24289 -15.24057,30.00531 -4.43488,44.14061c1.48595,1.94385 3.13646,3.68004 4.91256,5.20234c-2.45193,2.60403 -5.27352,5.25541 -8.50873,7.94465z" data-paper-data="{&quot;index&quot;:null}" fill="url(#color-12)"/><path d="M152.86888,21.19058c6.92241,-5.2725 14.95431,-8.719 22.98167,-10.38253c1.04758,3.49073 2.68976,6.88509 4.94256,10.0246c-9.13694,-2.84218 -19.1923,-1.47894 -27.05078,4.59377c-13.25499,10.24288 -15.24057,30.00534 -4.4349,44.14063c7.24425,9.47645 18.39843,14.01798 28.95803,12.89588c-1.38792,5.62564 -1.20666,11.69328 0.6167,17.47671c-5.05481,1.95697 -9.72539,2.87533 -14.03367,2.99827c-0.14236,-6.79357 -2.42439,-13.71533 -6.95838,-19.64643c-8.02787,-10.50156 -20.85738,-14.9428 -32.3583,-12.332c-1.06473,-15.90325 11.2826,-37.54078 27.33704,-49.76882z" data-paper-data="{&quot;index&quot;:null}" fill="url(#color-13)"/><path d="M203.35893,60.38074c2.18822,-8.86973 0.47581,-18.8382 -5.42323,-27.059c7.74991,2.4108 16.16065,1.79592 23.33103,-2.15206c3.50216,7.59152 5.75177,18.89837 -0.93971,32.25764c-5.35314,-2.60033 -11.24784,-3.65446 -16.9681,-3.04659z" data-paper-data="{&quot;index&quot;:null}" fill="url(#color-14)"/><path d="M182.20681,70.71622c-0.21066,-0.43986 -2.65776,-1.37834 -3.34518,-1.72964c-8.38777,-4.28612 -16.33548,-9.71882 -25.10763,-12.98193c-0.82867,-0.30827 -2.9514,1.94837 -4.11228,2.7223c-7.10919,4.73963 -14.92874,8.53258 -21.37404,14.14948c-0.82527,0.71923 -1.46208,1.71205 -1.93592,2.92066c-1.88436,-6.82029 -0.58301,-15.2593 2.89823,-23.74762c9.24269,3.00866 19.4779,1.69539 27.45143,-4.46625c10.29255,-7.95367 13.79013,-21.64722 9.78016,-33.98898c11.23954,-4.39056 23.36425,-5.10011 33.11581,-2.25487c-4.98005,0.63189 -9.80816,2.53231 -14.00863,5.77828c-13.25501,10.24289 -15.24058,30.00532 -4.43488,44.14061c2.68077,3.5068 5.89699,6.33784 9.42036,8.45617c-2.468,3.88121 -3.97905,8.29331 -4.49687,12.87641c-1.13128,-4.88489 -2.52482,-9.10686 -3.85042,-11.87466z" data-paper-data="{&quot;index&quot;:null}" fill="url(#color-15)"/><path d="M201.48601,85.7562c-38.61232,32.75559 -60.81749,11.30863 -72.07269,-3.60501c-0.48924,-0.64827 -0.93002,-1.32615 -1.32402,-2.03107c3.75695,4.66346 9.20392,8.46109 13.58406,10.7731c0.4527,0.23895 0.91308,0.46941 1.38086,0.6914c10.40096,8.60459 24.90271,10.02357 35.96504,3.03701c10.74773,-2.27318 20.65814,-7.1738 26.77557,-14.42102c10.55013,-12.49862 20.65751,-22.91919 4.43488,-44.14061c-6.57257,-8.59783 -18.77146,-11.44762 -29.11986,-13.12174c-6.03236,-0.97588 -10.22524,6.88005 -16.222,7.44647c-5.61407,-3.13594 -11.93795,-4.50564 -18.08698,-3.96595c1.9453,-1.88021 3.97506,-3.63412 6.06786,-5.22809c7.52176,-5.72907 16.35353,-9.30211 25.06601,-10.77458c0.26352,0.37463 0.53566,0.74575 0.81641,1.11299c9.12166,11.93241 24.44252,16.04056 36.96979,10.8696c1.3142,1.55813 3.35343,4.27424 5.14997,7.93906c-3.35,8.50679 -2.81819,18.54401 1.88396,27.23928c-2.81015,8.5248 -9.12624,18.0851 -21.26922,28.17887z" data-paper-data="{&quot;index&quot;:null}" fill="url(#color-16)"/></g><g data-paper-data="{&quot;index&quot;:null}"><path d="M108.90303,38.01094c-0.69318,0.49375 -2.45807,1.7932 -4.2886,3.33256c-1.72765,2.20619 -3.82473,4.64417 -5.25652,6.80798c0.99862,4.57415 7.93494,5.80888 3.40356,12.3127c-7.72956,11.09161 -12.52402,-4.47149 -11.50396,-10.83147c2.69449,-7.96383 10.43282,-13.24481 16.60215,-18.63234c8.49794,-7.42069 16.17216,-15.69195 25.2969,-21.7891c0.13888,-0.57926 0.48002,-1.11198 1.00317,-1.48395l2.39346,-1.70133c1.07784,-1.07759 2.25737,-2.23353 3.51847,-3.41066c3.08836,-3.38373 7.27552,-6.64907 11.27795,-9.51725c1.83874,-1.61924 3.67314,-2.94571 5.36652,-3.73949c1.12929,-0.77584 2.17959,-1.4983 3.10816,-2.15919l2.52267,-1.79375c1.14902,-0.81683 2.74223,-0.548 3.55979,0.60132c0.72706,1.02297 0.59388,2.3976 -0.25375,3.26374l-1.17569,1.24961c0.93107,0.16078 1.8487,0.43048 2.74673,0.82189l0.70925,-1.10244l2.75419,1.77402c0.28501,0.17457 0.54083,0.40821 0.74717,0.69791c0.81683,1.14902 0.548,2.74224 -0.6013,3.5598c-0.34914,0.24842 -0.74053,0.39718 -1.13753,0.4502l-2.68486,0.41789l-0.01212,-0.0791l-0.21556,0.10413c-2.12293,-0.05419 -4.13516,0.14461 -6.00806,0.57765c-2.46173,1.3203 -5.152,2.53592 -7.8605,3.83329c-3.93426,3.30313 -6.31542,8.3194 -6.46046,14.57669c0,0 -0.065,2.55182 -2.6168,2.48718c-2.55183,-0.06499 -2.48719,-2.61681 -2.48719,-2.61681c0.01507,-0.54387 0.04402,-1.08201 0.0877,-1.61277l-0.99628,1.10403c-0.13103,0.15103 -0.28256,0.29019 -0.45275,0.41152c-1.14902,0.81683 -2.74223,0.548 -3.55979,-0.60132c-0.41362,-0.58163 -0.54904,-1.27673 -0.43272,-1.92801c-1.05546,0.61831 -2.01911,1.25797 -2.74555,1.96226c-5.07369,4.91955 -13.89519,10.71649 -21.71483,17.04524c0.65471,1.01112 0.50467,2.33018 -0.3178,3.17008l-2.13151,2.26431l-0.07326,-0.069l-0.02736,0.0272z" fill="url(#color-17)" stroke="none" stroke-width="0.5"/><path d="M164.57543,-16.01785c10.96089,-8.03531 10.96208,-7.80134 16.48951,-0.4538c5.52742,7.34713 5.08213,16.45492 -0.99408,20.34189c-6.07648,3.88669 -15.48377,1.08035 -21.01108,-6.26712c-5.52746,-7.34713 -4.76255,-6.08598 5.51573,-13.62131z" data-paper-data="{&quot;index&quot;:null}" fill="url(#color-18)" stroke="#000000" stroke-width="0"/><path d="M142.78458,12.18003c6.54787,7.68382 4.8264,19.90307 -3.84555,27.29179c-8.67119,7.38939 -21.00895,7.15054 -27.5563,-0.53328c-6.54789,-7.68384 -6.85782,-7.70647 10.14278,-20.94393c15.94182,-12.41344 14.71063,-13.49821 21.25876,-5.81448z" fill="url(#color-19)" stroke="#000000" stroke-width="0"/></g></g><g data-paper-data="{&quot;index&quot;:null}" stroke-width="0"><path d="M294.72218,399.95812c0,0 -9.41683,2.60817 -16.34674,1.57997c-5.9661,-0.88459 -9.1066,-5.42662 -14.25718,-5.43791c-2.55107,-0.00579 -9.51747,2.51646 -13.12708,2.62171c-4.77536,0.13895 -13.44016,3.86856 -18.41287,3.1592c-6.2213,-0.88678 -8.81206,-6.26697 -15.41093,-6.17634c-14.53055,0.1995 -28.8,4.01986 -28.8,4.01986c0,0 1.11399,-29.81294 -0.1972,-53.79c-1.27161,-23.26373 -4.96149,-40.46454 -5.51716,-56.1754c-0.62782,-17.75666 -0.48394,-65.32681 -0.48394,-65.32681c0,0 21.72426,-2.12502 32.11946,0.2511c9.85177,2.2524 28.70899,13.65354 28.70899,13.65354c0,0 24.60665,-11.7285 36.30975,-14.01141c9.19337,-1.79373 28.21364,1.42453 28.21364,1.42453c0,0 -0.03925,44.90658 -1.81256,69.04977c-0.94465,12.86311 -6.55024,29.8405 -8.57149,48.70113c-2.97476,27.75704 -2.41381,56.45789 -2.41381,56.45789z" fill="#d1b0b0" stroke="#292e32"/><path d="M189.6061,278.45897l0.28277,-26.90828l39.44353,-1.46317l-0.94123,30.03037z" fill="#f200ff" stroke="none"/><path d="M228.79555,267.217c-5.70093,-4.93481 -13.09998,-7.9728 -21.22859,-8.11176c-1.96355,-0.03357 -3.8903,0.10339 -5.76618,0.39718c2.72632,-2.47342 5.04269,-5.39345 6.83222,-8.64713l20.69945,-0.76782z" fill="#eeff00" stroke="none"/><path d="M195.9279,278.72934c1.21163,-3.35948 1.89967,-6.97254 1.96412,-10.74253c0.10265,-6.00583 -1.38994,-11.66769 -4.08716,-16.5814l25.87009,-0.95964c-8.94377,6.68024 -14.50435,17.50653 -14.20686,28.69167z" fill="#00ff5f" stroke="none"/><path d="M195.64873,278.71736c-0.60408,-2.00222 -1.3918,-3.92601 -2.34383,-5.75142c4.8529,-1.47712 9.24257,-4.03358 12.88397,-7.39396c3.87495,6.54599 9.92914,11.66143 17.18158,14.33114l-27.72174,-1.18576z" fill="#004fff" stroke="none"/><path d="M220.83774,279.79475c1.71925,-3.92352 2.70575,-8.24577 2.78355,-12.79665c0.10243,-5.99217 -1.38316,-11.64197 -4.06879,-16.54786l9.78,-0.36276l-0.94123,30.03043z" fill="#ff0000" stroke="none"/><path d="M189.77485,262.40881c3.26643,4.14278 7.49704,7.49525 12.36035,9.71437c0.38161,2.41201 1.02256,4.73956 1.8939,6.95266l-14.42288,-0.61693l0.16865,-16.05015z" fill="#00efff" stroke="none"/><path d="M207.37067,250.90221c-9.65968,5.51866 -16.31304,15.73888 -16.79144,27.59837l-0.97301,-0.04163l0.28275,-26.90829z" fill="#9c00ff" stroke="none"/></g><path d="M156.84727,171.14282c9.64043,11.74059 26.19933,31.58938 26.19933,31.58938c0,0 33.9943,24.18558 1.92242,48.47453c-5.12023,3.8777 -29.18136,-24.95181 -29.18136,-24.95181c0,0 -11.84192,-13.66863 -20.90909,-24.71184c-10.09676,-12.57868 11.75983,-41.0941 21.96871,-30.40032z" fill="#b8bda6" stroke="#000000" stroke-width="0"/><path d="M143.84556,105.14699c0,0 -1.58102,15.93636 3.84767,33.66504c1.30547,4.26345 10.46286,40.08088 11.85336,44.44743c4.6446,16.86626 -31.66916,18.38999 -35.25776,2.55602c-1.00146,-4.17025 -3.49119,-39.65337 -4.93332,-50.86259c-2.40128,-18.66247 -6.13924,-29.63709 -6.13924,-29.63709z" data-paper-data="{&quot;index&quot;:null}" fill="#b8bda6" stroke="#000000" stroke-width="0"/><path d="M112.32774,106.15245c1.35517,-0.0265 -2.07304,-19.45539 3.64385,-19.91744c2.8119,-0.2273 1.61386,12.71482 5.94852,16.62812c2.29474,2.07188 -4.7473,-22.09195 2.89139,-20.41082c2.62212,0.57703 2.73629,18.70842 5.87774,22.69264c1.68183,2.13255 -3.38125,-27.2347 1.71348,-26.35188c3.02433,0.52443 1.99779,17.16815 4.80249,24.28673c1.36684,3.46794 0.16818,-20.41654 3.90781,-19.12619c2.28885,0.78985 4.87505,23.99362 5.14455,24.22875c1.51412,1.32191 4.64636,-13.26527 6.72855,-10.06839c3.83749,5.89122 -1.36433,14.01271 -5.33604,21.5341c-2.3212,4.39494 -1.86892,10.58513 -1.86892,10.58513c0,0 -10.11806,3.63228 -15.28936,3.64789c-5.03527,0.01592 -15.34011,-3.55342 -15.34011,-3.55342c0,0 -5.69405,-24.119 -2.82408,-24.17463z" data-paper-data="{&quot;index&quot;:null}" fill="#786274" stroke="#000000" stroke-width="0"/><path d="M410.43329,143.9404c0,0 -5.52428,9.86105 -11.83302,27.23138c-3.78935,10.43294 -15.27433,46.36666 -17.04695,50.17682c-8.24387,17.7525 -36.01563,7.55183 -28.24474,-6.7644c2.12308,-3.93834 20.23958,-40.19879 22.27104,-44.05213c8.44788,-16.02288 11.00287,-31.40718 11.00287,-31.40718z" data-paper-data="{&quot;index&quot;:null}" fill="#a3bda9" stroke="#000000" stroke-width="0"/><path d="M415.13933,138.61847c2.17119,0.69332 -9.98236,21.72026 -9.98236,21.72026c0,0 -9.01293,0.99565 -12.84651,-0.14434c-3.93719,-1.17142 -10.47527,-6.792 -10.47527,-6.792c0,0 2.34991,-5.62219 2.00398,-10.20395c-0.59154,-7.84243 -1.92814,-16.51443 2.90583,-21.10348c2.62269,-2.49008 0.28691,11.69726 1.86877,10.81354c0.2815,-0.15764 9.76844,-21.03253 11.76971,-21.2515c3.26939,-0.35756 -5.37983,21.45828 -3.21515,18.55726c4.44441,-5.95469 9.05177,-21.57299 11.52756,-21.38122c4.17002,0.32278 -9.20129,26.34369 -7.22825,24.74796c3.68594,-2.98125 9.6452,-19.7201 11.83108,-19.66726c6.3688,0.1539 -6.82647,20.92075 -4.40606,19.51797c4.57166,-2.64954 7.85028,-14.88313 9.92049,-14.04444c4.20861,1.70505 -4.69721,18.90212 -3.67254,19.22968z" data-paper-data="{&quot;index&quot;:null}" fill="#6c7378" stroke="#000000" stroke-width="0"/></g></g></svg>