<svg version="1.1" xmlns="http://www.w3.org/2000/svg" xmlns:xlink="http://www.w3.org/1999/xlink" width="45.875" height="46.18734" viewBox="0,0,45.875,46.18734"><defs><linearGradient x1="240" y1="128.02875" x2="240" y2="167.50375" gradientUnits="userSpaceOnUse" id="color-1"><stop offset="0" stop-color="#696969"/><stop offset="1" stop-color="#434343"/></linearGradient><linearGradient x1="240" y1="128.02875" x2="240" y2="167.50375" gradientUnits="userSpaceOnUse" id="color-2"><stop offset="0" stop-color="#cdcdcd"/><stop offset="1" stop-color="#868686"/></linearGradient><linearGradient x1="240" y1="129.14286" x2="240" y2="166.28572" gradientUnits="userSpaceOnUse" id="color-3"><stop offset="0" stop-color="#161616"/><stop offset="1" stop-color="#0f0f0f"/></linearGradient><linearGradient x1="240" y1="129.14286" x2="240" y2="166.28572" gradientUnits="userSpaceOnUse" id="color-4"><stop offset="0" stop-color="#cdcdcd"/><stop offset="1" stop-color="#868686"/></linearGradient><radialGradient cx="239.27363" cy="160.25591" r="13.42283" gradientUnits="userSpaceOnUse" id="color-5"><stop offset="0" stop-color="#3c3c3c"/><stop offset="1" stop-color="#939393"/></radialGradient><linearGradient x1="240.00115" y1="147.35946" x2="240.00115" y2="151.43363" gradientUnits="userSpaceOnUse" id="color-6"><stop offset="0" stop-color="#696969"/><stop offset="1" stop-color="#a0a0a0"/></linearGradient><radialGradient cx="237.601" cy="133.88869" r="7.80118" gradientUnits="userSpaceOnUse" id="color-7"><stop offset="0" stop-color="#dcdcdc"/><stop offset="1" stop-color="#a0a0a0"/></radialGradient><radialGradient cx="239.16239" cy="137.89929" r="6.44431" gradientUnits="userSpaceOnUse" id="color-8"><stop offset="0" stop-color="#c5dfff"/><stop offset="1" stop-color="#219cff"/></radialGradient><radialGradient cx="233.73786" cy="134.25402" r="5.98885" gradientUnits="userSpaceOnUse" id="color-9"><stop offset="0" stop-color="#303030"/><stop offset="1" stop-color="#292929"/></radialGradient><radialGradient cx="243.50729" cy="132.36304" r="1.57636" gradientUnits="userSpaceOnUse" id="color-10"><stop offset="0" stop-color="#787878"/><stop offset="1" stop-color="#292929"/></radialGradient><radialGradient cx="236.87527" cy="133.65053" r="2.48167" gradientUnits="userSpaceOnUse" id="color-11"><stop offset="0" stop-color="#a7a7a7"/><stop offset="1" stop-color="#292929"/></radialGradient><linearGradient x1="240" y1="129.14285" x2="240" y2="166.28571" gradientUnits="userSpaceOnUse" id="color-12"><stop offset="0" stop-color="#cdcdcd"/><stop offset="1" stop-color="#868686"/></linearGradient></defs><g transform="translate(-217.0625,-127.77875)"><g data-paper-data="{&quot;isPaintingLayer&quot;:true}" fill-rule="nonzero" stroke-linecap="butt" stroke-linejoin="miter" stroke-miterlimit="10" stroke-dasharray="" stroke-dashoffset="0" style="mix-blend-mode: normal"><path d="M217.3125,167.50375v-39.475h45.375v39.475h-18.90179l-3.76623,6l-3.94805,-6z" fill="url(#color-1)" stroke="url(#color-2)" stroke-width="0.5"/><path d="M219.42857,166.28572v-37.14286h41.14286v37.14286z" fill="url(#color-3)" stroke="url(#color-4)" stroke-width="0"/><path d="" data-paper-data="{&quot;index&quot;:null}" fill="#777777" stroke="#000000" stroke-width="0"/><path d="" data-paper-data="{&quot;index&quot;:null}" fill="#777777" stroke="#000000" stroke-width="0"/><path d="" fill="#494949" stroke="#000000" stroke-width="0"/><path d="" data-paper-data="{&quot;index&quot;:null}" fill="#141415" stroke="#000000" stroke-width="0"/><path d="" data-paper-data="{&quot;index&quot;:null}" fill="#252527" stroke="#000000" stroke-width="0"/><path d="" data-paper-data="{&quot;index&quot;:null}" fill="#141415" stroke="#000000" stroke-width="0"/><path d="" data-paper-data="{&quot;index&quot;:null}" fill="#252527" stroke="#000000" stroke-width="0"/><g><path d="M230.37267,146.83308h17.80191v19.51897c-5.58336,-0.32637 -12.24947,-0.26579 -17.53315,0.02062c-0.08915,-0.01945 -0.17874,-0.03771 -0.26876,-0.05477z" fill="url(#color-5)" stroke="#ed6b00" stroke-width="0"/><path d="M228.05464,163.97039c0.0102,-1.27892 -0.08569,-3.37094 -0.0296,-3.853c0.12513,-1.0754 -0.20138,-1.64045 -0.0896,-2.33115c0.27466,-1.69717 0.71951,-4.5884 0.71951,-4.5884c0,0 -0.49242,-4.69563 3.97006,-3.79216c0.7124,0.14424 0.06703,4.34455 0.06703,4.34455c0,0 -0.27354,2.02827 -0.53188,3.62455c-0.12011,0.74217 -0.39714,1.93093 -0.6269,3.1367c-0.09707,0.50946 -0.25803,2.1449 -0.34694,2.64158c-0.23434,1.30901 -0.16214,2.499 -0.07782,3.19505c-0.15685,0.00798 -0.31258,0.01618 -0.46712,0.02455c-0.68988,-0.15051 -1.40637,-0.2298 -2.14138,-0.2298c-0.18821,0 -0.3752,0.00519 -0.56085,0.01546c0.0573,-0.56171 0.10843,-1.30155 0.1155,-2.18792z" fill="#bdbdbd" stroke="#000000" stroke-width="0"/><path d="M248.58041,163.09414c-0.08769,-0.4969 -0.24461,-2.13273 -0.34043,-2.64244c-0.22679,-1.20633 -0.50088,-2.39577 -0.61916,-3.13824c-0.25439,-1.59692 -0.52294,-3.62586 -0.52294,-3.62586c0,0 -0.41188,-3.9855 0.32297,-4.13782c4.29769,-0.89084 3.71548,3.59539 3.71548,3.59539c0,0 0.43771,2.89232 0.70819,4.59016c0.11007,0.69098 -0.21784,1.25522 -0.09536,2.33092c0.0549,0.4822 -0.04614,2.57398 -0.0391,3.85293c0.00564,1.0248 0.07068,1.85386 0.13664,2.43825c-0.39467,-0.04736 -0.79641,-0.07172 -1.20384,-0.07172c-0.53463,0 -1.05946,0.04196 -1.57137,0.12275c-0.14344,-0.00969 -0.2877,-0.0191 -0.43277,-0.02825c0.0903,-0.67992 0.18321,-1.91761 -0.05829,-3.28609z" data-paper-data="{&quot;index&quot;:null}" fill="#bdbdbd" stroke="#000000" stroke-width="0"/><path d="M237.72467,151.43363v-4.07416h4.55294v4.07416z" fill="url(#color-6)" stroke="#000000" stroke-width="0"/><path d="M233.78036,163.16557c-0.21002,-2.17561 -0.83536,-4.13848 -0.92866,-5.62172c-0.17512,-2.78388 -0.12518,-7.95811 -0.12518,-7.95811c0,0 2.19543,-0.34775 3.25253,-0.12998c1.34564,0.27721 4.16665,1.65836 4.16665,1.65836c0,0 2.18657,-1.29082 3.32443,-1.53836c1.2006,-0.26119 3.7011,0.00998 3.7011,0.00998c0,0 -0.04107,5.48121 -0.13493,7.52641c-0.08304,1.80952 -0.52901,3.78697 -0.70378,6.46589c-0.05665,0.86832 -0.08637,1.80345 -0.10048,2.67747c-3.97475,-0.16486 -8.3267,-0.15647 -12.26147,-0.02672c-0.03142,-0.95212 -0.08885,-2.01328 -0.19021,-3.06321z" fill="#d0d0d0" stroke="#292e32" stroke-width="0"/><path d="M247.76858,139.97201c0,4.59741 -3.4121,8.32435 -7.62115,8.32435c-4.20905,0 -7.62116,-3.72694 -7.62116,-8.32435c0,-4.59741 3.41211,-8.32434 7.62116,-8.32434c4.20905,0 7.62115,3.72693 7.62115,8.32434z" fill="url(#color-7)" stroke="none" stroke-width="0"/><path d="M247.53259,139.52019c0,2.22699 0.02511,4.88454 -6.27551,5.16862c-7.03889,0.31736 -6.60799,-2.94163 -6.60799,-5.16862c0,-2.22699 2.88407,-4.03232 6.44175,-4.03232c3.55768,0 6.44175,1.80534 6.44175,4.03232z" data-paper-data="{&quot;index&quot;:null}" fill="url(#color-8)" stroke="#ed6b00" stroke-width="0"/><path d="M235.33778,134.25969c-0.101,0.00923 -0.36074,0.037 -0.64168,0.08552c-0.31034,0.12335 -0.67261,0.24841 -0.95001,0.38518c-0.17192,0.5309 0.46806,1.0746 -0.38905,1.47195c-1.46179,0.67768 -1.0208,-1.21248 -0.53384,-1.80595c0.75565,-0.65803 1.86942,-0.73704 2.82809,-0.92115c1.32047,-0.2536 2.60728,-0.64424 3.91281,-0.72395c0.04906,-0.05128 0.11617,-0.0857 0.19239,-0.09258l0.34856,-0.03146c0.17566,-0.04623 0.36654,-0.09432 0.56706,-0.13979c0.52121,-0.1629 1.14832,-0.24753 1.73262,-0.30249c0.28652,-0.05627 0.55501,-0.0826 0.77706,-0.06266c0.16287,-0.01204 0.31435,-0.02338 0.44964,-0.0356l0.36744,-0.03316c0.16735,-0.01511 0.31526,0.10832 0.33037,0.27567c0.01344,0.14895 -0.08284,0.2825 -0.22217,0.32072l-0.19606,0.05795c0.08623,0.07244 0.16447,0.15529 0.23337,0.24959l0.13924,-0.07082l0.17701,0.34802c0.01889,0.0351 0.03115,0.07453 0.03496,0.11673c0.01511,0.16735 -0.10831,0.31527 -0.27566,0.33037c-0.05089,0.00459 -0.09999,-0.00362 -0.1441,-0.022l-0.30151,-0.11821l0.00348,-0.00887l-0.02847,-0.00224c-0.21533,-0.13306 -0.43439,-0.23341 -0.65318,-0.30137c-0.33271,-0.01193 -0.68269,-0.0483 -1.03943,-0.07743c-0.60339,0.10377 -1.14975,0.47721 -1.54046,1.11263c0,0 -0.15993,0.25883 -0.41875,0.09889c-0.25882,-0.15992 -0.09889,-0.41876 -0.09889,-0.41876c0.0342,-0.05509 0.06949,-0.10869 0.10584,-0.16076l-0.16884,0.05383c-0.0226,0.00772 -0.04649,0.0129 -0.07134,0.01514c-0.16735,0.01511 -0.31527,-0.10832 -0.33037,-0.27567c-0.00765,-0.0847 0.02019,-0.16441 0.07125,-0.22445c-0.14576,0.00029 -0.28342,0.00823 -0.40051,0.03712c-0.81782,0.20174 -2.07402,0.26879 -3.25918,0.45068c0.00666,0.14347 -0.08798,0.27019 -0.2231,0.30725l-0.3554,0.10505l-0.0034,-0.01148l-0.00444,0.00115z" fill="url(#color-9)" stroke="none" stroke-width="0.5"/><path d="M244.31388,132.04093c1.61096,-0.16899 1.59705,-0.1448 1.72482,0.94359c0.12777,1.08839 -0.465,1.99923 -1.32398,2.03441c-0.85899,0.03519 -1.65892,-0.81861 -1.78668,-1.907c-0.12777,-1.08839 -0.12478,-0.91253 1.38585,-1.071z" data-paper-data="{&quot;index&quot;:null}" fill="url(#color-10)" stroke="#000000" stroke-width="0"/><path d="M240.3771,133.63518c0.21263,1.18426 -0.69841,2.33882 -2.03487,2.57876c-1.33645,0.23995 -2.59223,-0.52556 -2.80485,-1.70982c-0.21263,-1.18426 -0.24316,-1.20519 2.30201,-1.54701c2.38664,-0.32054 2.32509,-0.50619 2.53771,0.67807z" fill="url(#color-11)" stroke="#000000" stroke-width="0"/><path d="M241.77806,155.94589l-0.07211,-3.46129l4.54295,0.21633v3.10074z" fill="#f200ff" stroke="none" stroke-width="0"/></g><path d="M219.42857,166.28571v-37.14286h41.14286v37.14286z" fill="none" stroke="url(#color-12)" stroke-width="0.5"/></g></g></svg>