<svg version="1.1" xmlns="http://www.w3.org/2000/svg" xmlns:xlink="http://www.w3.org/1999/xlink" width="102.29048" height="103.13363" viewBox="0,0,102.29048,103.13363"><defs><linearGradient x1="242.94252" y1="156.31766" x2="242.36127" y2="163.14403" gradientUnits="userSpaceOnUse" id="color-1"><stop offset="0" stop-color="#4f6d73"/><stop offset="1" stop-color="#86b9c2"/></linearGradient><radialGradient cx="240.75261" cy="134.46448" r="13.11833" gradientUnits="userSpaceOnUse" id="color-2"><stop offset="0" stop-color="#7bccb1"/><stop offset="1" stop-color="#618c94"/></radialGradient><linearGradient x1="267.32355" y1="190.16871" x2="276.96369" y2="183.08854" gradientUnits="userSpaceOnUse" id="color-3"><stop offset="0" stop-color="#242424"/><stop offset="1" stop-color="#373737"/></linearGradient><radialGradient cx="264.32644" cy="188.3116" r="3.52256" gradientUnits="userSpaceOnUse" id="color-4"><stop offset="0" stop-color="#bfbfbf"/><stop offset="1" stop-color="#9a9a9a"/></radialGradient><linearGradient x1="278.39907" y1="183.98278" x2="320.45626" y2="166.78752" gradientUnits="userSpaceOnUse" id="color-5"><stop offset="0" stop-color="#b2b2b2"/><stop offset="1" stop-color="#c4c4c4"/></linearGradient><linearGradient x1="278.81239" y1="184.20208" x2="306.33954" y2="172.94752" gradientUnits="userSpaceOnUse" id="color-6"><stop offset="0" stop-color="#cccccc"/><stop offset="1" stop-color="#d8d8d8"/></linearGradient><linearGradient x1="275.91319" y1="184.56549" x2="278.18797" y2="183.68202" gradientUnits="userSpaceOnUse" id="color-7"><stop offset="0" stop-color="#b5b5b5"/><stop offset="1" stop-color="#c5c5c5"/></linearGradient></defs><g transform="translate(-224.95796,-131.19277)"><g data-paper-data="{&quot;isPaintingLayer&quot;:true}" fill-rule="nonzero" stroke-linejoin="miter" stroke-miterlimit="10" stroke-dasharray="" stroke-dashoffset="0" style="mix-blend-mode: normal"><path d="M280.16268,189.44287c-0.34278,0.31885 -2.15025,-1.61402 -3.1173,-1.67776c-0.51189,-0.03374 3.39588,2.26059 2.22818,2.82751c-0.40089,0.19463 -2.78589,-2.02694 -3.60486,-2.22253c-0.4384,-0.10473 3.24219,3.19879 2.48789,3.60796c-0.44776,0.2429 -2.15149,-1.65082 -3.2491,-2.28931c-0.53474,-0.31105 -3.78513,-3.03305 -3.78513,-3.03305c0,0 -1.42816,-2.24143 -3.95466,-3.99795c-0.60755,-0.42239 -2.47144,-1.95002 -3.10071,-2.37718c-1.48931,-1.01098 -4.13286,-4.2737 -5.02749,-4.9181c-1.92418,-1.38599 -5.7591,-9.64497 -5.7591,-9.64497l4.52907,-2.8169c0,0 2.32125,4.59499 5.44855,9.09455c3.2618,3.52419 5.59965,5.79968 7.36596,7.2458c2.09046,1.71149 4.47745,4.25134 4.47745,4.25134c0,0 1.78549,1.65796 3.19511,3.14412c1.26836,1.33723 2.19623,2.4994 1.86616,2.80646z" data-paper-data="{&quot;index&quot;:null}" fill="#669093" stroke="#000000" stroke-width="0" stroke-linecap="butt"/><path d="M251.26035,160.27077c4.7812,-2.51384 6.34649,0.2282 7.04282,1.80676c0.69632,1.57857 2.1015,0.6406 -2.2904,2.92571c-3.71212,1.93142 -3.28748,1.42046 -3.98379,-0.1581c-0.69632,-1.57857 -3.25862,-3.26518 -0.76862,-4.57435z" data-paper-data="{&quot;index&quot;:null}" fill="#314247" stroke="#000000" stroke-width="0" stroke-linecap="butt"/><g><path d="M226.1234,227.23575l3.75904,-33.71008c0,0 6.75518,-2.18267 9.822,-2.18267c3.62872,0 0.6063,4.24407 0.6063,4.24407c0,0 -3.09204,0.08829 -3.39803,1.52409c-0.93579,4.39099 -2.78619,30.12458 -2.78619,30.12458z" fill="#453d36" stroke="#000000" stroke-width="0" stroke-linecap="butt"/><path d="M241.62211,232.14463c0,0 -0.3857,1.94015 -1.2126,1.94015c-0.59276,0 -2.64411,0.01366 -4.70436,-0.06689c-1.25258,-0.04897 -1.90215,-0.61779 -2.83553,-0.76063c-1.17507,-0.17983 -2.93853,0.22047 -3.78777,0.02896c-1.56485,-0.35288 -2.37463,-0.77781 -2.37463,-0.77781c0,0 -0.26912,-1.02539 -0.2856,-1.5858c-0.02221,-0.755 0.16433,-2.53701 0.16433,-2.53701c0,0 5.93424,-0.11957 8.24914,0.08075c1.36979,0.11854 4.24057,0.6468 4.24057,0.6468c0,0 1.45975,0.6156 1.67337,1.04283c0.26162,0.52325 0.87307,1.98866 0.87307,1.98866z" data-paper-data="{&quot;index&quot;:null}" fill="#141415" stroke="#000000" stroke-width="0" stroke-linecap="butt"/><path d="M241.35122,231.50999c0,0 -0.38569,0 -1.21259,0c-0.24822,0 0.70239,1.60165 -2.61811,1.33311c-3.13563,-0.25359 -2.77648,-1.18823 -3.8809,-1.26883c-2.30937,-0.16854 -2.58766,0.59503 -3.58733,0.44204c-0.34815,-0.05328 -0.51271,-0.11454 -1.78458,-0.97035c-0.87471,-0.58857 -0.66566,-1.75122 -1.26542,-2.3793c-0.87609,-0.91746 -0.80847,-1.8858 -0.80847,-1.8858l-0.07637,-3.04773c0,0 0.48635,2.20682 1.32529,3.03123c0.75062,0.73761 2.3169,-0.01875 2.80058,-0.01889c0.84695,-0.00024 -0.68885,-3.26805 0.12091,-3.24981c0.43542,0.00981 3.72275,-0.23408 3.72275,-0.23408c0,0 0.12302,3.57988 0.35598,3.60004c1.36978,0.11854 4.60434,0.6468 4.60434,0.6468c0,0 1.45975,0.6156 1.67337,1.04283c0.26163,0.52325 0.63055,2.95873 0.63055,2.95873z" data-paper-data="{&quot;index&quot;:null}" fill="#252527" stroke="#000000" stroke-width="0" stroke-linecap="butt"/><path d="M232.66853,228.57138l2.66771,-1.09134" data-paper-data="{&quot;index&quot;:null}" fill="none" stroke="#ffffff" stroke-width="0.5" stroke-linecap="round"/><path d="M237.15511,227.48005l-2.54644,1.45511" data-paper-data="{&quot;index&quot;:null}" fill="none" stroke="#ffffff" stroke-width="0.5" stroke-linecap="round"/><path d="M238.24645,227.72256l-1.45512,1.45512" data-paper-data="{&quot;index&quot;:null}" fill="none" stroke="#ffffff" stroke-width="0.5" stroke-linecap="round"/><path d="M233.63859,224.44857l-2.18267,0.24252" data-paper-data="{&quot;index&quot;:null}" fill="none" stroke="#969696" stroke-width="0.5" stroke-linecap="round"/><path d="M231.94097,225.5399l1.94015,-0.36378" data-paper-data="{&quot;index&quot;:null}" fill="none" stroke="#969696" stroke-width="0.5" stroke-linecap="round"/></g><g><path d="M239.70443,191.343c3.62872,0 10.54956,2.18267 10.54956,2.18267l3.03149,33.71008h-7.63934c0,0 -1.32697,-25.53818 -2.03751,-29.57011c-0.20138,-1.1427 -3.2979,-2.07857 -3.2979,-2.07857c0,0 -3.67312,-4.24407 -0.6063,-4.24407z" fill="#453d36" stroke="#000000" stroke-width="0" stroke-linecap="butt"/><path d="M259.69261,234.32553c-0.59276,0 -2.64411,0.01365 -4.70436,-0.0669c-1.25258,-0.04897 -1.90215,-0.61779 -2.83553,-0.76063c-1.17507,-0.17982 -2.93854,0.22047 -3.78778,0.02896c-1.56485,-0.35288 -2.37463,-0.77782 -2.37463,-0.77782c0,0 -0.26911,-1.0254 -0.2856,-1.5858c-0.02221,-0.75501 0.16433,-2.53701 0.16433,-2.53701c0,0 5.93425,-0.11957 8.24914,0.08076c1.36979,0.11854 4.24057,0.6468 4.24057,0.6468c0,0 1.45976,0.6156 1.67337,1.04283c0.26162,0.52325 0.87307,1.98865 0.87307,1.98865c0,0 -0.3857,1.94015 -1.21259,1.94015z" data-paper-data="{&quot;index&quot;:null}" fill="#141415" stroke="#000000" stroke-width="0" stroke-linecap="butt"/><path d="M259.4217,231.75072c-0.24822,0 0.7024,1.60165 -2.61811,1.33311c-3.13563,-0.25358 -2.77648,-1.18823 -3.8809,-1.26883c-2.30937,-0.16854 -2.58765,0.59503 -3.58732,0.44205c-0.34815,-0.05328 -0.51271,-0.11454 -1.78459,-0.97035c-0.87472,-0.58857 -0.66566,-1.75122 -1.26542,-2.3793c-0.87609,-0.91745 -0.80847,-1.8858 -0.80847,-1.8858l-0.07637,-3.04773c0,0 0.48635,2.20681 1.32529,3.03122c0.75062,0.73761 2.3169,-0.01875 2.80058,-0.01889c0.84696,-0.00024 -0.68885,-3.26804 0.12091,-3.2498c0.43542,0.00981 3.72275,-0.23409 3.72275,-0.23409c0,0 0.12302,3.57989 0.35598,3.60005c1.36979,0.11854 4.60434,0.6468 4.60434,0.6468c0,0 1.45976,0.6156 1.67338,1.04283c0.26162,0.52325 0.63055,2.95873 0.63055,2.95873c0,0 -0.3857,0 -1.2126,0z" data-paper-data="{&quot;index&quot;:null}" fill="#252527" stroke="#000000" stroke-width="0" stroke-linecap="butt"/><path d="M254.61932,227.72079l-2.6677,1.09133" fill="none" stroke="#ffffff" stroke-width="0.5" stroke-linecap="round"/><path d="M253.89177,229.1759l2.54645,-1.45511" fill="none" stroke="#ffffff" stroke-width="0.5" stroke-linecap="round"/><path d="M256.07444,229.41842l1.45512,-1.45511" fill="none" stroke="#ffffff" stroke-width="0.5" stroke-linecap="round"/><path d="M252.92169,224.68931l-2.18266,0.24252" fill="none" stroke="#969696" stroke-width="0.5" stroke-linecap="round"/><path d="M253.16422,225.41686l-1.94015,0.36378" fill="none" stroke="#969696" stroke-width="0.5" stroke-linecap="round"/></g><path d="M238.54699,162.81925l0.58125,-6.82634l7.62855,0.64955l-0.58125,6.82634z" fill="url(#color-1)" stroke="#000000" stroke-width="0" stroke-linecap="butt"/><path d="M229.68738,192.8479c0,0 0.63817,-5.52547 0.57708,-10.93429c-0.04151,-3.67524 -0.80923,-7.05328 -0.75396,-9.5518c0.10376,-4.68943 0.92562,-13.35184 0.92562,-13.35184c0,0 3.72809,-0.26945 5.46823,0.24625c2.21511,0.65645 6.74471,3.37306 6.74471,3.37306c0,0 3.84779,-1.85084 5.78963,-2.10326c2.0489,-0.26634 6.19983,0.54473 6.19983,0.54473c0,0 -0.85079,9.17802 -1.29985,12.59141c-0.39731,3.02003 -1.42664,6.26968 -2.10167,10.73333c-0.69572,4.60052 -1.03149,10.37143 -1.03149,10.37143c0,0 -2.68176,-1.00045 -5.48072,-1.30724c-1.27109,-0.13932 -1.87016,0.85052 -3.08657,0.90673c-0.97228,0.04492 -2.57473,-0.83436 -3.49311,-0.94944c-0.69428,-0.087 -1.99138,-0.70209 -2.48349,-0.74811c-0.99365,-0.09294 -1.68331,0.72509 -2.85039,0.78565c-1.3557,0.07034 -3.1239,-0.60661 -3.1239,-0.60661z" fill="#374a50" stroke="#292e32" stroke-width="0" stroke-linecap="butt"/><g stroke="none" stroke-linecap="butt"><path d="M256.9588,145.66034c-0.62711,7.36489 -6.85253,12.84851 -13.90487,12.24801c-7.05234,-0.60049 -12.26103,-7.05771 -11.63392,-14.4226c0.62711,-7.36489 6.85253,-12.84851 13.90487,-12.24801c7.05234,0.60049 12.26103,7.05771 11.63392,14.4226z" fill="url(#color-2)" stroke-width="0"/><path d="M249.45841,150.4465c-0.99798,0.06358 -1.06155,-0.93439 -1.06155,-0.93439l-0.01954,-0.30663c-0.07973,-1.26387 -0.05655,-2.51003 -0.03186,-3.77571c0,0 0.01951,-0.99981 1.01932,-0.98029c0.99981,0.01951 0.9803,1.01932 0.9803,1.01932c-0.02362,1.21021 -0.04963,2.40122 0.02818,3.60951l0.01954,0.30663c0,0 0.06359,0.99798 -0.93439,1.06156z" fill="#191412" stroke-width="0.5"/><path d="M252.63588,146.03521c-0.2478,-1.33656 2.07695,-3.96191 2.07695,-3.96191c0,0 1.80607,2.61707 1.69402,4.25482c-0.11921,1.74252 -3.46777,1.34257 -3.77097,-0.29291z" fill="#191412" stroke-width="0.5"/><path d="M240.10856,144.86319c-0.14882,-1.40381 2.95398,-3.80246 2.95398,-3.80246c0,0 2.11524,2.69669 1.76119,4.34719c-0.37671,1.75606 -4.53307,1.17305 -4.71517,-0.54473z" data-paper-data="{&quot;index&quot;:null}" fill="#191412" stroke-width="0.5"/><path d="M239.15626,153.77611c0.03479,-0.40854 0.38492,-0.71233 0.78205,-0.67852c0.39712,0.03381 0.69086,0.39243 0.65607,0.80097c-0.03479,0.40854 -0.38491,0.71233 -0.78205,0.67852c-0.39712,-0.03381 -0.69086,-0.39243 -0.65607,-0.80097z" fill="#00ffcc" stroke-width="0.5"/><path d="M238.67142,150.75865c0.03479,-0.40854 0.38491,-0.71233 0.78204,-0.67852c0.39712,0.03381 0.69086,0.39242 0.65607,0.80097c-0.03479,0.40854 -0.38492,0.71233 -0.78205,0.67852c-0.39712,-0.03381 -0.69085,-0.39242 -0.65606,-0.80097z" fill="#00ffcc" stroke-width="0.5"/><path d="M236.35887,151.78273c0.03479,-0.40854 0.38491,-0.71233 0.78204,-0.67852c0.39712,0.03381 0.69086,0.39243 0.65607,0.80097c-0.03479,0.40854 -0.38492,0.71233 -0.78205,0.67852c-0.39712,-0.03381 -0.69085,-0.39241 -0.65606,-0.80097z" fill="#00ffcc" stroke-width="0.5"/><path d="M235.87402,148.76526c0.03479,-0.40854 0.38492,-0.71232 0.78204,-0.67851c0.39712,0.03381 0.69086,0.39242 0.65607,0.80096c-0.03479,0.40854 -0.38492,0.71233 -0.78205,0.67852c-0.39712,-0.03381 -0.69086,-0.39243 -0.65607,-0.80097z" fill="#00ffcc" stroke-width="0.5"/><path d="M252.57599,154.77742c-0.21157,-0.01801 -0.35489,-0.36381 -0.32011,-0.77236c0.03479,-0.40854 0.23451,-0.72514 0.44608,-0.70712c0.21157,0.01801 0.35488,0.36381 0.3201,0.77236c-0.03479,0.40854 -0.2345,0.72514 -0.44607,0.70712z" fill="#00ffcc" stroke-width="0.5"/><path d="M253.21994,151.85607c-0.21157,-0.01801 -0.35489,-0.36381 -0.32011,-0.77236c0.03479,-0.40854 0.23451,-0.72514 0.44608,-0.70712c0.21157,0.01801 0.35489,0.36381 0.32011,0.77236c-0.03479,0.40854 -0.23451,0.72514 -0.44608,0.70712z" fill="#00ffcc" stroke-width="0.5"/><path d="M254.29378,153.16851c-0.21157,-0.01801 -0.35489,-0.36382 -0.32011,-0.77236c0.03479,-0.40854 0.23451,-0.72513 0.44608,-0.70711c0.21157,0.01801 0.35489,0.36381 0.32011,0.77235c-0.03479,0.40854 -0.23451,0.72514 -0.44608,0.70712z" fill="#00ffcc" stroke-width="0.5"/><path d="M254.93771,150.24716c-0.21157,-0.01801 -0.35489,-0.36381 -0.32011,-0.77235c0.03479,-0.40854 0.2345,-0.72514 0.44608,-0.70712c0.21157,0.01801 0.35489,0.36382 0.32011,0.77236c-0.03479,0.40854 -0.23451,0.72513 -0.44608,0.70711z" fill="#00ffcc" stroke-width="0.5"/><path d="M246.46076,137.90657c0.03347,-0.39313 0.3793,-0.68467 0.77243,-0.6512c0.39313,0.03347 0.68467,0.3793 0.6512,0.77243c-0.03347,0.39313 -0.3793,0.68467 -0.77243,0.6512c-0.39313,-0.03347 -0.68467,-0.3793 -0.6512,-0.77243z" fill="#00ffcc" stroke-width="0.5"/><path d="M248.67123,135.23096c0.03347,-0.39313 0.3793,-0.68468 0.77243,-0.65121c0.39313,0.03347 0.68467,0.37931 0.6512,0.77244c-0.03347,0.39313 -0.3793,0.68467 -0.77243,0.6512c-0.39313,-0.03347 -0.68467,-0.3793 -0.6512,-0.77243z" fill="#00ffcc" stroke-width="0.5"/><path d="M250.39131,138.31469c0.03347,-0.39313 0.3793,-0.68467 0.77243,-0.6512c0.39313,0.03347 0.68467,0.3793 0.6512,0.77243c-0.03347,0.39313 -0.3793,0.68467 -0.77243,0.6512c-0.39313,-0.03347 -0.68467,-0.3793 -0.6512,-0.77243z" fill="#00ffcc" stroke-width="0.5"/></g><g stroke="none" stroke-width="0" stroke-linecap="butt"><path d="M267.97378,191.05404l-1.9062,-4.65721l10.24586,-4.19362l1.9062,4.65722z" fill="url(#color-3)"/><path d="M268.66754,186.99641c1.15159,1.56798 0.81406,3.77267 -0.75392,4.92425c-1.56799,1.1516 -3.77267,0.81407 -4.92426,-0.75392c-1.15161,-1.56799 -0.81407,-3.77267 0.75392,-4.92425c1.56799,-1.1516 3.77267,-0.81407 4.92426,0.75392z" fill="url(#color-4)"/><path d="M280.15922,188.28783l-3.52029,-8.61012l42.47519,-15.31453l8.13432,-0.77111l-6.14904,5.23067z" fill="url(#color-5)"/><path d="M279.96444,187.01982l-2.50588,-5.93091l35.51107,-12.69008l9.86372,-2.73873l-8.67244,4.86491z" fill="url(#color-6)"/><path d="M275.93781,171.84c0,0 1.06507,7.93519 2.44568,11.6342c1.51585,4.06136 6.28163,11.74857 6.28163,11.74857c0,0 -7.12422,-7.0324 -8.5944,-10.97143c-1.43822,-3.85334 -0.1329,-12.41136 -0.1329,-12.41136z" fill="url(#color-7)"/></g><path d="M263.73498,190.01566c-2.41412,-0.74159 -5.22405,-1.80403 -5.22405,-1.80403c0,0 -4.11365,-1.24304 -7.14993,-2.61286c-2.5655,-1.15743 -5.89572,-3.36304 -10.57916,-6.04928c-5.74303,-4.55806 -12.16381,-11.66132 -12.16381,-11.66132l4.51144,-4.34396c0,0 8.18616,9.99315 10.77182,11.35788c1.20217,0.63451 3.07884,1.79584 5.01194,2.88603c0.81677,0.46062 3.52578,1.68111 4.32539,2.12037c3.32512,1.82663 6.58343,2.17454 6.58343,2.17454c0,0 4.78824,2.09656 5.42497,2.51647c1.30697,0.86191 4.33241,1.70476 4.30974,2.33241c-0.03819,1.05733 -5.70448,-1.19541 -5.34843,-0.7687c0.6651,0.79709 4.42617,2.21246 4.43111,2.76188c0.01433,1.60031 -4.66214,-1.45667 -4.34418,-0.90993c0.60068,1.03291 3.72626,1.96886 3.56214,2.52223c-0.15804,0.53286 -1.9502,0.14558 -4.1224,-0.52169z" data-paper-data="{&quot;index&quot;:null}" fill="#72a2a6" stroke="#000000" stroke-width="0" stroke-linecap="butt"/><path d="M232.89418,161.69516c1.49312,1.5151 2.27167,1.26043 -1.62816,4.63812c-4.61395,3.99622 -2.90065,2.81159 -4.39377,1.29649c-1.49312,-1.5151 -3.92517,-4.55465 1.12779,-8.89322c2.63151,-2.25948 3.401,1.4435 4.89412,2.9586z" fill="#3e5359" stroke="#000000" stroke-width="0" stroke-linecap="butt"/></g></g></svg>