<svg version="1.1" xmlns="http://www.w3.org/2000/svg" xmlns:xlink="http://www.w3.org/1999/xlink" width="59" height="59.70662" viewBox="0,0,59,59.70662"><defs><linearGradient x1="240" y1="151.64669" x2="240" y2="208.35331" gradientUnits="userSpaceOnUse" id="color-1"><stop offset="0" stop-color="#191919"/><stop offset="1" stop-color="#050505"/></linearGradient><linearGradient x1="240" y1="151.64669" x2="240" y2="208.35331" gradientUnits="userSpaceOnUse" id="color-2"><stop offset="0" stop-color="#cccccc"/><stop offset="1" stop-color="#898989"/></linearGradient><radialGradient cx="240" cy="180" r="26.8571" gradientUnits="userSpaceOnUse" id="color-3"><stop offset="0" stop-color="#ffffff" stop-opacity="0.35484"/><stop offset="1" stop-color="#ffffff" stop-opacity="0"/></radialGradient><linearGradient x1="240" y1="153.29211" x2="240" y2="206.70789" gradientUnits="userSpaceOnUse" id="color-4"><stop offset="0" stop-color="#cccccc"/><stop offset="1" stop-color="#898989"/></linearGradient><linearGradient x1="242.72672" y1="198.16083" x2="243.69129" y2="198.16083" gradientUnits="userSpaceOnUse" id="color-5"><stop offset="0" stop-color="#525252"/><stop offset="1" stop-color="#363636"/></linearGradient><linearGradient x1="242.72672" y1="198.16083" x2="243.69129" y2="198.16083" gradientUnits="userSpaceOnUse" id="color-6"><stop offset="0" stop-color="#1f1f1f"/><stop offset="1" stop-color="#000000"/></linearGradient><linearGradient x1="235.43728" y1="198.57519" x2="236.69758" y2="199.11913" gradientUnits="userSpaceOnUse" id="color-7"><stop offset="0" stop-color="#525252"/><stop offset="1" stop-color="#2e2e2e"/></linearGradient><linearGradient x1="235.43728" y1="198.57519" x2="236.69758" y2="199.11913" gradientUnits="userSpaceOnUse" id="color-8"><stop offset="0" stop-color="#1f1f1f"/><stop offset="1" stop-color="#000000"/></linearGradient><linearGradient x1="233.90486" y1="199.14085" x2="245.80789" y2="199.14085" gradientUnits="userSpaceOnUse" id="color-9"><stop offset="0" stop-color="#767676"/><stop offset="1" stop-color="#2a2a2a"/></linearGradient><linearGradient x1="233.90486" y1="199.14085" x2="245.80789" y2="199.14085" gradientUnits="userSpaceOnUse" id="color-10"><stop offset="0" stop-color="#1f1f1f"/><stop offset="1" stop-color="#000000"/></linearGradient><linearGradient x1="237.97803" y1="195.87305" x2="241.76214" y2="195.87305" gradientUnits="userSpaceOnUse" id="color-11"><stop offset="0" stop-color="#7f7f7f"/><stop offset="1" stop-color="#545454"/></linearGradient><linearGradient x1="236.75376" y1="198.29759" x2="242.83802" y2="198.29759" gradientUnits="userSpaceOnUse" id="color-12"><stop offset="0" stop-color="#7f7f7f"/><stop offset="1" stop-color="#545454"/></linearGradient><linearGradient x1="235.72675" y1="200.9741" x2="243.89489" y2="200.9741" gradientUnits="userSpaceOnUse" id="color-13"><stop offset="0" stop-color="#7f7f7f"/><stop offset="1" stop-color="#545454"/></linearGradient><linearGradient x1="234.63911" y1="203.63986" x2="245.02686" y2="203.63986" gradientUnits="userSpaceOnUse" id="color-14"><stop offset="0" stop-color="#7f7f7f"/><stop offset="1" stop-color="#545454"/></linearGradient><linearGradient x1="241.79885" y1="194.99831" x2="244.80444" y2="194.99831" gradientUnits="userSpaceOnUse" id="color-15"><stop offset="0" stop-color="#8f8f8f"/><stop offset="1" stop-color="#4e4e4e"/></linearGradient><linearGradient x1="241.79885" y1="194.99831" x2="244.80444" y2="194.99831" gradientUnits="userSpaceOnUse" id="color-16"><stop offset="0" stop-color="#1f1f1f"/><stop offset="1" stop-color="#000000"/></linearGradient><linearGradient x1="232.97584" y1="185.99704" x2="246.94983" y2="185.99704" gradientUnits="userSpaceOnUse" id="color-17"><stop offset="0" stop-color="#b89a9a"/><stop offset="1" stop-color="#8d7070"/></linearGradient><linearGradient x1="232.97584" y1="185.99704" x2="246.94983" y2="185.99704" gradientUnits="userSpaceOnUse" id="color-18"><stop offset="0" stop-color="#260000"/><stop offset="1" stop-color="#100000"/></linearGradient><linearGradient x1="245.86583" y1="190.91437" x2="251.76574" y2="190.91437" gradientUnits="userSpaceOnUse" id="color-19"><stop offset="0" stop-color="#362424"/><stop offset="1" stop-color="#1f1414"/></linearGradient><linearGradient x1="245.86583" y1="191.11706" x2="249.90129" y2="191.11706" gradientUnits="userSpaceOnUse" id="color-20"><stop offset="0" stop-color="#272727"/><stop offset="1" stop-color="#000000"/></linearGradient><linearGradient x1="234.13417" y1="190.85254" x2="228.23426" y2="190.85254" gradientUnits="userSpaceOnUse" id="color-21"><stop offset="0" stop-color="#6b4a4a"/><stop offset="1" stop-color="#825959"/></linearGradient><linearGradient x1="230.09871" y1="191.05523" x2="234.13417" y2="191.05523" gradientUnits="userSpaceOnUse" id="color-22"><stop offset="0" stop-color="#272727"/><stop offset="1" stop-color="#000000"/></linearGradient><linearGradient x1="234.11778" y1="186.09322" x2="245.87995" y2="186.09322" gradientUnits="userSpaceOnUse" id="color-23"><stop offset="0" stop-color="#634343"/><stop offset="1" stop-color="#211414"/></linearGradient><linearGradient x1="234.11778" y1="186.09322" x2="245.87995" y2="186.09322" gradientUnits="userSpaceOnUse" id="color-24"><stop offset="0" stop-color="#272727"/><stop offset="1" stop-color="#000000"/></linearGradient><linearGradient x1="234.89263" y1="179.41341" x2="245.03305" y2="179.41341" gradientUnits="userSpaceOnUse" id="color-25"><stop offset="0" stop-color="#b89a9a"/><stop offset="1" stop-color="#8d7070"/></linearGradient><linearGradient x1="234.89263" y1="179.41341" x2="245.03305" y2="179.41341" gradientUnits="userSpaceOnUse" id="color-26"><stop offset="0" stop-color="#260000"/><stop offset="1" stop-color="#100000"/></linearGradient><linearGradient x1="234.89263" y1="182.99966" x2="245.03305" y2="182.99966" gradientUnits="userSpaceOnUse" id="color-27"><stop offset="0" stop-color="#b89a9a"/><stop offset="1" stop-color="#8d7070"/></linearGradient><linearGradient x1="234.89263" y1="182.99966" x2="245.03305" y2="182.99966" gradientUnits="userSpaceOnUse" id="color-28"><stop offset="0" stop-color="#260000"/><stop offset="1" stop-color="#100000"/></linearGradient><linearGradient x1="240.41932" y1="186.63606" x2="245.03286" y2="186.63606" gradientUnits="userSpaceOnUse" id="color-29"><stop offset="0" stop-color="#2c4a2e"/><stop offset="1" stop-color="#1d301b"/></linearGradient><linearGradient x1="240.41932" y1="186.63606" x2="245.03286" y2="186.63606" gradientUnits="userSpaceOnUse" id="color-30"><stop offset="0" stop-color="#123614"/><stop offset="1" stop-color="#0d1a0e"/></linearGradient><linearGradient x1="240.40691" y1="186.6378" x2="245.00978" y2="186.6378" gradientUnits="userSpaceOnUse" id="color-31"><stop offset="0" stop-color="#123614"/><stop offset="1" stop-color="#0d1a0e"/></linearGradient><linearGradient x1="240.40691" y1="186.60275" x2="245.00978" y2="186.60275" gradientUnits="userSpaceOnUse" id="color-32"><stop offset="0" stop-color="#123614"/><stop offset="1" stop-color="#0d1a0e"/></linearGradient><linearGradient x1="234.90522" y1="186.65942" x2="239.51876" y2="186.65942" gradientUnits="userSpaceOnUse" id="color-33"><stop offset="0" stop-color="#2c4a2e"/><stop offset="1" stop-color="#1d301b"/></linearGradient><linearGradient x1="234.90522" y1="186.65942" x2="239.51876" y2="186.65942" gradientUnits="userSpaceOnUse" id="color-34"><stop offset="0" stop-color="#123614"/><stop offset="1" stop-color="#0d1a0e"/></linearGradient><linearGradient x1="234.89281" y1="186.66116" x2="239.49568" y2="186.66116" gradientUnits="userSpaceOnUse" id="color-35"><stop offset="0" stop-color="#123614"/><stop offset="1" stop-color="#0d1a0e"/></linearGradient><linearGradient x1="234.89281" y1="186.62611" x2="239.49568" y2="186.62611" gradientUnits="userSpaceOnUse" id="color-36"><stop offset="0" stop-color="#123614"/><stop offset="1" stop-color="#0d1a0e"/></linearGradient><linearGradient x1="240.41932" y1="192.20092" x2="245.03286" y2="192.20092" gradientUnits="userSpaceOnUse" id="color-37"><stop offset="0" stop-color="#2c4a2e"/><stop offset="1" stop-color="#1d301b"/></linearGradient><linearGradient x1="240.41932" y1="192.20092" x2="245.03286" y2="192.20092" gradientUnits="userSpaceOnUse" id="color-38"><stop offset="0" stop-color="#123614"/><stop offset="1" stop-color="#0d1a0e"/></linearGradient><linearGradient x1="240.40691" y1="192.20266" x2="245.00978" y2="192.20266" gradientUnits="userSpaceOnUse" id="color-39"><stop offset="0" stop-color="#123614"/><stop offset="1" stop-color="#0d1a0e"/></linearGradient><linearGradient x1="240.40691" y1="192.16762" x2="245.00978" y2="192.16762" gradientUnits="userSpaceOnUse" id="color-40"><stop offset="0" stop-color="#123614"/><stop offset="1" stop-color="#0d1a0e"/></linearGradient><linearGradient x1="234.90522" y1="192.22429" x2="239.51876" y2="192.22429" gradientUnits="userSpaceOnUse" id="color-41"><stop offset="0" stop-color="#2c4a2e"/><stop offset="1" stop-color="#1d301b"/></linearGradient><linearGradient x1="234.90522" y1="192.22429" x2="239.51876" y2="192.22429" gradientUnits="userSpaceOnUse" id="color-42"><stop offset="0" stop-color="#123614"/><stop offset="1" stop-color="#0d1a0e"/></linearGradient><linearGradient x1="234.89281" y1="192.22603" x2="239.49568" y2="192.22603" gradientUnits="userSpaceOnUse" id="color-43"><stop offset="0" stop-color="#123614"/><stop offset="1" stop-color="#0d1a0e"/></linearGradient><linearGradient x1="234.89281" y1="192.19098" x2="239.49568" y2="192.19098" gradientUnits="userSpaceOnUse" id="color-44"><stop offset="0" stop-color="#123614"/><stop offset="1" stop-color="#0d1a0e"/></linearGradient><linearGradient x1="234.01878" y1="170.51647" x2="245.92181" y2="170.51647" gradientUnits="userSpaceOnUse" id="color-45"><stop offset="0" stop-color="#9c5555"/><stop offset="1" stop-color="#453131"/></linearGradient><linearGradient x1="234.01878" y1="170.51274" x2="245.92182" y2="170.51274" gradientUnits="userSpaceOnUse" id="color-46"><stop offset="0" stop-color="#272727"/><stop offset="1" stop-color="#000000"/></linearGradient><linearGradient x1="237.3577" y1="165.3383" x2="242.21191" y2="165.3383" gradientUnits="userSpaceOnUse" id="color-47"><stop offset="0" stop-color="#f7d6d6"/><stop offset="1" stop-color="#805e5e"/></linearGradient><linearGradient x1="237.3577" y1="165.33783" x2="242.21191" y2="165.33783" gradientUnits="userSpaceOnUse" id="color-48"><stop offset="0" stop-color="#272727"/><stop offset="1" stop-color="#000000"/></linearGradient><linearGradient x1="236.76227" y1="167.73177" x2="242.97268" y2="167.73177" gradientUnits="userSpaceOnUse" id="color-49"><stop offset="0" stop-color="#452a2a"/><stop offset="1" stop-color="#260f0f"/></linearGradient><linearGradient x1="236.17635" y1="169.77222" x2="243.65648" y2="169.77222" gradientUnits="userSpaceOnUse" id="color-50"><stop offset="0" stop-color="#452a2a"/><stop offset="1" stop-color="#260f0f"/></linearGradient><linearGradient x1="235.62777" y1="171.77557" x2="244.21066" y2="171.77557" gradientUnits="userSpaceOnUse" id="color-51"><stop offset="0" stop-color="#452a2a"/><stop offset="1" stop-color="#260f0f"/></linearGradient><linearGradient x1="235.04342" y1="173.70473" x2="244.84566" y2="173.70473" gradientUnits="userSpaceOnUse" id="color-52"><stop offset="0" stop-color="#452a2a"/><stop offset="1" stop-color="#260f0f"/></linearGradient><linearGradient x1="238.88078" y1="162.38905" x2="240.79756" y2="162.38905" gradientUnits="userSpaceOnUse" id="color-53"><stop offset="0" stop-color="#443939"/><stop offset="1" stop-color="#251e1e"/></linearGradient><linearGradient x1="238.88078" y1="162.38905" x2="240.79756" y2="162.38905" gradientUnits="userSpaceOnUse" id="color-54"><stop offset="0" stop-color="#262626"/><stop offset="1" stop-color="#0f0f0f"/></linearGradient><linearGradient x1="239.4991" y1="158.64822" x2="240.24108" y2="158.64822" gradientUnits="userSpaceOnUse" id="color-55"><stop offset="0" stop-color="#ccbebe"/><stop offset="1" stop-color="#656161"/></linearGradient><linearGradient x1="239.4991" y1="158.64822" x2="240.24108" y2="158.64822" gradientUnits="userSpaceOnUse" id="color-56"><stop offset="0" stop-color="#262626"/><stop offset="1" stop-color="#0f0f0f"/></linearGradient></defs><g transform="translate(-210.5,-150.14669)"><g data-paper-data="{&quot;isPaintingLayer&quot;:true}" fill-rule="nonzero" stroke-linejoin="miter" stroke-miterlimit="10" stroke-dasharray="" stroke-dashoffset="0" style="mix-blend-mode: normal"><path d="M212,208.35331v-56.70662h56v56.70662z" fill="url(#color-1)" stroke="url(#color-2)" stroke-width="3" stroke-linecap="butt"/><path d="M266.8571,180c0,14.75036 -12.02433,26.70789 -26.8571,26.70789c-14.83277,0 -26.8571,-11.95753 -26.8571,-26.70789c0,-14.75036 12.02433,-26.70789 26.8571,-26.70789c14.83277,0 26.8571,11.95753 26.8571,26.70789z" fill="url(#color-3)" stroke="url(#color-4)" stroke-width="0" stroke-linecap="butt"/><g stroke-width="0.375"><path d="M242.72672,199.75609v-3.19052h0.96458v3.19052z" fill="url(#color-5)" stroke="url(#color-6)" stroke-linecap="butt"/><path d="M233.15125,203.87182l4.57208,-10.59327l1.26029,0.54395l-4.57208,10.59327z" fill="url(#color-7)" stroke="url(#color-8)" stroke-linecap="butt"/><path d="M233.90486,205.0926c0,0 4.44453,-11.99032 5.95233,-11.90303c1.7249,0.09985 5.9507,11.90303 5.9507,11.90303z" fill="url(#color-9)" stroke="url(#color-10)" stroke-linecap="butt"/><path d="M237.97803,195.87305h3.78411" fill="none" stroke="url(#color-11)" stroke-linecap="round"/><path d="M242.83802,198.29759h-6.08425" fill="none" stroke="url(#color-12)" stroke-linecap="round"/><path d="M243.89489,200.9741h-8.16814" fill="none" stroke="url(#color-13)" stroke-linecap="round"/><path d="M245.02686,203.63986h-10.38775" fill="none" stroke="url(#color-14)" stroke-linecap="round"/><path d="M244.80444,194.99831c-0.01125,1.4132 -0.04685,1.56441 -1.5028,1.54943c-1.45641,-0.01498 -1.52086,-0.20648 -1.5028,-1.54943c0.01995,-1.48271 0.01571,-1.58577 1.5028,-1.54943c1.42483,0.03482 1.51515,-0.00241 1.5028,1.54943z" fill="url(#color-15)" stroke="url(#color-16)" stroke-linecap="butt"/></g><g stroke-width="0.375" stroke-linecap="butt"><path d="M232.97584,191.87253v-11.75097c0,0 4.57234,-1.57379 6.84244,-1.57379c2.38247,0 7.13156,1.57379 7.13156,1.57379v11.75097z" fill="url(#color-17)" stroke="url(#color-18)"/><path d="M245.86583,195.75442v-12.0297c0,0 1.51385,8.07528 2.04313,10.025c0.41875,1.54257 1.99232,4.75968 1.99232,4.75968z" fill="url(#color-19)" stroke="url(#color-20)"/><path d="M230.09871,198.44757c0,0 1.57357,-3.21711 1.99232,-4.75968c0.52928,-1.94972 2.04313,-10.025 2.04313,-10.025v12.0297z" data-paper-data="{&quot;index&quot;:null}" fill="url(#color-21)" stroke="url(#color-22)"/><path d="M234.11778,195.74243v-19.29841h11.76217v19.29841z" fill="url(#color-23)" stroke="url(#color-24)"/><path d="M234.89263,181.76303v-4.69922h10.14042v4.69922z" fill="url(#color-25)" stroke="url(#color-26)"/><path d="M234.89263,183.67981v-1.3603h10.14042v1.3603z" fill="url(#color-27)" stroke="url(#color-28)"/></g><g stroke-width="0.375"><path d="M240.41932,189.03774v-4.80337h4.61354v4.80337z" fill="url(#color-29)" stroke="url(#color-30)" stroke-linecap="butt"/><path d="M240.40691,188.97428l4.60287,-4.67296" fill="none" stroke="url(#color-31)" stroke-linecap="round"/><path d="M240.45364,184.25458l4.55614,4.74306" fill="none" stroke="url(#color-32)" stroke-linecap="round"/><path d="M234.90522,189.06111v-4.80337h4.61354v4.80337z" fill="url(#color-33)" stroke="url(#color-34)" stroke-linecap="butt"/><path d="M234.89281,188.99764l4.60287,-4.67296" fill="none" stroke="url(#color-35)" stroke-linecap="round"/><path d="M234.93954,184.27795l4.55614,4.74306" fill="none" stroke="url(#color-36)" stroke-linecap="round"/><path d="M240.41932,194.60261v-4.80337h4.61354v4.80337z" fill="url(#color-37)" stroke="url(#color-38)" stroke-linecap="butt"/><path d="M240.40691,194.53914l4.60287,-4.67296" fill="none" stroke="url(#color-39)" stroke-linecap="round"/><path d="M240.45364,189.81945l4.55614,4.74306" fill="none" stroke="url(#color-40)" stroke-linecap="round"/><path d="M234.90522,194.62597v-4.80337h4.61354v4.80337z" fill="url(#color-41)" stroke="url(#color-42)" stroke-linecap="butt"/><path d="M234.89281,194.56251l4.60287,-4.67296" fill="none" stroke="url(#color-43)" stroke-linecap="round"/><path d="M239.49568,194.58587l-4.55614,-4.74306" fill="none" stroke="url(#color-44)" stroke-linecap="round"/></g><g stroke-width="0.375" stroke-linecap="butt"><path d="M234.01878,176.46822c0,0 4.00867,-14.70052 5.91687,-14.70052c1.22414,0 5.98616,14.70052 5.98616,14.70052z" fill="url(#color-45)" stroke="url(#color-46)"/><path d="M237.3577,166.09133c0,0 1.90317,-4.45564 2.49496,-4.47392c0.538,-0.01662 2.40561,4.47392 2.40561,4.47392z" fill="url(#color-47)" stroke="url(#color-48)"/><path d="M236.54996,168.49307c0,0 0.10303,-0.23854 0.2544,-0.52241c0.17763,-0.33313 0.47185,-0.72869 1.48855,-0.87443c0.03945,-0.00565 0.78051,-0.08849 0.78051,-0.08849l1.61222,0.00355c0,0 0.55732,0.0284 0.59005,0.03394c0.96218,0.16283 1.3235,0.5717 1.52575,0.91357c0.17246,0.2915 0.27739,0.53428 0.27739,0.53428z" data-paper-data="{&quot;index&quot;:null}" fill="url(#color-49)" stroke="#000000"/><path d="M235.92063,170.53352c0,0 0.1241,-0.23854 0.30641,-0.52241c0.21394,-0.33313 0.56832,-0.72869 1.79288,-0.87443c0.04751,-0.00565 0.94009,-0.08849 0.94009,-0.08849l1.94184,0.00355c0,0 0.67127,0.0284 0.71069,0.03394c1.1589,0.16283 1.59409,0.5717 1.8377,0.91357c0.20772,0.2915 0.33411,0.53428 0.33411,0.53428z" data-paper-data="{&quot;index&quot;:null}" fill="url(#color-50)" stroke="#000000"/><path d="M235.33436,172.53687c0,0 0.14239,-0.23854 0.35158,-0.52241c0.24548,-0.33313 0.65211,-0.72869 2.0572,-0.87443c0.05452,-0.00565 1.07868,-0.08849 1.07868,-0.08849l2.22811,0.00355c0,0 0.77023,0.0284 0.81546,0.03394c1.32975,0.16283 1.82909,0.5717 2.10862,0.91357c0.23834,0.2915 0.38336,0.53428 0.38336,0.53428z" data-paper-data="{&quot;index&quot;:null}" fill="url(#color-51)" stroke="#000000"/><path d="M234.70833,174.46602c0,0 0.16262,-0.23854 0.40153,-0.52241c0.28036,-0.33313 0.74475,-0.72869 2.34946,-0.87443c0.06226,-0.00565 1.23193,-0.08849 1.23193,-0.08849l2.54465,0.00355c0,0 0.87965,0.0284 0.93131,0.03394c1.51866,0.16283 2.08895,0.5717 2.40818,0.91357c0.2722,0.2915 0.43782,0.53428 0.43782,0.53428z" data-paper-data="{&quot;index&quot;:null}" fill="url(#color-52)" stroke="#000000"/><path d="M240.79756,162.38905c0,0.20489 -0.42909,0.37099 -0.95839,0.37099c-0.52931,0 -0.95839,-0.1661 -0.95839,-0.37099c0,-0.20489 0.42909,-0.37099 0.95839,-0.37099c0.52931,0 0.95839,0.1661 0.95839,0.37099z" fill="url(#color-53)" stroke="url(#color-54)"/><path d="M239.4991,162.38905v-7.48165h0.74198v7.48165z" fill="url(#color-55)" stroke="url(#color-56)"/></g><path d="M215.27327,167.03273v-12.39235h25.93332v8.69862h-15.56684v3.69373z" fill-opacity="0.53453" fill="#000000" stroke="#a60000" stroke-width="0" stroke-linecap="butt"/><text transform="translate(215.70712,161.61518) scale(0.21839,0.21839)" font-size="40" xml:space="preserve" fill="#ffffff" fill-rule="nonzero" stroke="#000000" stroke-width="0" stroke-linecap="butt" stroke-linejoin="miter" stroke-miterlimit="10" stroke-dasharray="" stroke-dashoffset="0" font-family="Serif" font-weight="normal" text-anchor="start" style="mix-blend-mode: normal"><tspan x="0" dy="0">Rocket</tspan></text><text transform="translate(215.56527,166.16682) scale(0.11601,0.11601)" font-size="40" xml:space="preserve" fill="#ffffff" fill-rule="nonzero" stroke="#000000" stroke-width="0" stroke-linecap="butt" stroke-linejoin="miter" stroke-miterlimit="10" stroke-dasharray="" stroke-dashoffset="0" font-family="Serif" font-weight="normal" text-anchor="start" style="mix-blend-mode: normal"><tspan x="0" dy="0">4-2-1</tspan></text></g></g></svg>