<svg version="1.1" xmlns="http://www.w3.org/2000/svg" xmlns:xlink="http://www.w3.org/1999/xlink" width="84.5" height="38.32609" viewBox="0,0,84.5,38.32609"><defs><linearGradient x1="240" y1="161.58695" x2="240" y2="198.41312" gradientUnits="userSpaceOnUse" id="color-1"><stop offset="0" stop-color="#2b4b31"/><stop offset="1" stop-color="#395a1b"/></linearGradient><linearGradient x1="240" y1="161.58695" x2="240" y2="198.41312" gradientUnits="userSpaceOnUse" id="color-2"><stop offset="0" stop-color="#12301b"/><stop offset="1" stop-color="#446d2c"/></linearGradient><linearGradient x1="272.07837" y1="192.24003" x2="272.07837" y2="192.57738" gradientUnits="userSpaceOnUse" id="color-3"><stop offset="0" stop-color="#1f1f1f"/><stop offset="1" stop-color="#0c0c0c"/></linearGradient><linearGradient x1="278.33401" y1="194.89661" x2="273.2448" y2="194.97481" gradientUnits="userSpaceOnUse" id="color-4"><stop offset="0" stop-color="#ff6300"/><stop offset="1" stop-color="#cf4900"/></linearGradient><linearGradient x1="275.78971" y1="193.72854" x2="275.78971" y2="196.14921" gradientUnits="userSpaceOnUse" id="color-5"><stop offset="0" stop-color="#1f1f1f"/><stop offset="1" stop-color="#0c0c0c"/></linearGradient><linearGradient x1="278.2404" y1="192.40457" x2="273.15119" y2="192.48276" gradientUnits="userSpaceOnUse" id="color-6"><stop offset="0" stop-color="#00a5ff"/><stop offset="1" stop-color="#0072cf"/></linearGradient><linearGradient x1="275.6961" y1="191.2365" x2="275.6961" y2="193.65717" gradientUnits="userSpaceOnUse" id="color-7"><stop offset="0" stop-color="#1f1f1f"/><stop offset="1" stop-color="#0c0c0c"/></linearGradient><linearGradient x1="278.72863" y1="192.33023" x2="278.72863" y2="194.95895" gradientUnits="userSpaceOnUse" id="color-8"><stop offset="0" stop-color="#1f1f1f"/><stop offset="1" stop-color="#0c0c0c"/></linearGradient><linearGradient x1="262.02815" y1="190.63912" x2="262.02815" y2="196.15957" gradientUnits="userSpaceOnUse" id="color-9"><stop offset="0" stop-color="#989898"/><stop offset="1" stop-color="#5b5b5b"/></linearGradient><linearGradient x1="262.07208" y1="190.53855" x2="262.07208" y2="191.30294" gradientUnits="userSpaceOnUse" id="color-10"><stop offset="0" stop-color="#69754a"/><stop offset="1" stop-color="#c9c872"/></linearGradient><linearGradient x1="262.07208" y1="192.19694" x2="262.07208" y2="196.25728" gradientUnits="userSpaceOnUse" id="color-11"><stop offset="0" stop-color="#1b1b1b"/><stop offset="1" stop-color="#070707"/></linearGradient><linearGradient x1="262.05534" y1="184.82654" x2="262.05534" y2="189.79814" gradientUnits="userSpaceOnUse" id="color-12"><stop offset="0" stop-color="#ff4d4d"/><stop offset="1" stop-color="#ff4d4d" stop-opacity="0"/></linearGradient><linearGradient x1="262.05495" y1="184.97842" x2="262.05495" y2="189.59843" gradientUnits="userSpaceOnUse" id="color-13"><stop offset="0" stop-color="#ff0000"/><stop offset="1" stop-color="#ff0000" stop-opacity="0"/></linearGradient><linearGradient x1="262.05534" y1="184.87313" x2="262.05534" y2="188.79544" gradientUnits="userSpaceOnUse" id="color-14"><stop offset="0" stop-color="#ff9a4c"/><stop offset="1" stop-color="#ff9a4c" stop-opacity="0"/></linearGradient><linearGradient x1="262.05504" y1="184.99224" x2="262.05504" y2="188.63869" gradientUnits="userSpaceOnUse" id="color-15"><stop offset="0" stop-color="#ff7b00"/><stop offset="1" stop-color="#ff7b00" stop-opacity="0"/></linearGradient><linearGradient x1="262.0459" y1="184.91972" x2="262.0459" y2="187.83446" gradientUnits="userSpaceOnUse" id="color-16"><stop offset="0" stop-color="#fff480"/><stop offset="1" stop-color="#fff480" stop-opacity="0"/></linearGradient><linearGradient x1="262.04568" y1="185.00737" x2="262.04568" y2="187.71898" gradientUnits="userSpaceOnUse" id="color-17"><stop offset="0" stop-color="#ffea00"/><stop offset="1" stop-color="#ffea00" stop-opacity="0"/></linearGradient><linearGradient x1="262.05367" y1="184.98183" x2="262.05367" y2="186.80232" gradientUnits="userSpaceOnUse" id="color-18"><stop offset="0" stop-color="#fff8a9"/><stop offset="1" stop-color="#fff8a9" stop-opacity="0"/></linearGradient><linearGradient x1="262.05353" y1="185.0156" x2="262.05353" y2="186.71193" gradientUnits="userSpaceOnUse" id="color-19"><stop offset="0" stop-color="#fff68d"/><stop offset="1" stop-color="#fff68d" stop-opacity="0"/></linearGradient><linearGradient x1="263.27346" y1="182.08889" x2="263.68362" y2="182.08889" gradientUnits="userSpaceOnUse" id="color-20"><stop offset="0" stop-color="#525252"/><stop offset="1" stop-color="#363636"/></linearGradient><linearGradient x1="263.27346" y1="182.08889" x2="263.68362" y2="182.08889" gradientUnits="userSpaceOnUse" id="color-21"><stop offset="0" stop-color="#1f1f1f"/><stop offset="1" stop-color="#000000"/></linearGradient><linearGradient x1="259.52225" y1="182.50561" x2="264.58363" y2="182.50561" gradientUnits="userSpaceOnUse" id="color-22"><stop offset="0" stop-color="#2f2f2f"/><stop offset="1" stop-color="#040404"/></linearGradient><linearGradient x1="259.52225" y1="182.50561" x2="264.58363" y2="182.50561" gradientUnits="userSpaceOnUse" id="color-23"><stop offset="0" stop-color="#1f1f1f"/><stop offset="1" stop-color="#000000"/></linearGradient><linearGradient x1="261.25423" y1="181.11609" x2="262.86331" y2="181.11609" gradientUnits="userSpaceOnUse" id="color-24"><stop offset="0" stop-color="#444444"/><stop offset="1" stop-color="#252525"/></linearGradient><linearGradient x1="260.73365" y1="182.14704" x2="263.32079" y2="182.14704" gradientUnits="userSpaceOnUse" id="color-25"><stop offset="0" stop-color="#444444"/><stop offset="1" stop-color="#252525"/></linearGradient><linearGradient x1="260.29695" y1="183.28515" x2="263.77019" y2="183.28515" gradientUnits="userSpaceOnUse" id="color-26"><stop offset="0" stop-color="#444444"/><stop offset="1" stop-color="#252525"/></linearGradient><linearGradient x1="259.83447" y1="184.41867" x2="264.25152" y2="184.41867" gradientUnits="userSpaceOnUse" id="color-27"><stop offset="0" stop-color="#444444"/><stop offset="1" stop-color="#252525"/></linearGradient><linearGradient x1="262.87891" y1="180.74414" x2="264.15694" y2="180.74414" gradientUnits="userSpaceOnUse" id="color-28"><stop offset="0" stop-color="#b2b2b2"/><stop offset="1" stop-color="#363636"/></linearGradient><linearGradient x1="262.87891" y1="180.74414" x2="264.15694" y2="180.74414" gradientUnits="userSpaceOnUse" id="color-29"><stop offset="0" stop-color="#1f1f1f"/><stop offset="1" stop-color="#000000"/></linearGradient><linearGradient x1="259.59698" y1="170.33402" x2="264.65836" y2="170.33402" gradientUnits="userSpaceOnUse" id="color-30"><stop offset="0" stop-color="#89959f"/><stop offset="1" stop-color="#2a3542"/></linearGradient><linearGradient x1="259.59698" y1="170.33243" x2="264.65836" y2="170.33243" gradientUnits="userSpaceOnUse" id="color-31"><stop offset="0" stop-color="#272727"/><stop offset="1" stop-color="#000000"/></linearGradient><linearGradient x1="260.859" y1="168.13217" x2="263.35691" y2="168.13217" gradientUnits="userSpaceOnUse" id="color-32"><stop offset="0" stop-color="#f1f5f8"/><stop offset="1" stop-color="#6d7680"/></linearGradient><linearGradient x1="260.859" y1="168.13197" x2="263.35691" y2="168.13197" gradientUnits="userSpaceOnUse" id="color-33"><stop offset="0" stop-color="#272727"/><stop offset="1" stop-color="#000000"/></linearGradient><linearGradient x1="260.28954" y1="169.41827" x2="264.0112" y2="169.41827" gradientUnits="userSpaceOnUse" id="color-34"><stop offset="0" stop-color="#3b4145"/><stop offset="1" stop-color="#171e25"/></linearGradient><linearGradient x1="264.60827" y1="179.00757" x2="267.11701" y2="179.00757" gradientUnits="userSpaceOnUse" id="color-35"><stop offset="0" stop-color="#2c2f36"/><stop offset="1" stop-color="#191d1f"/></linearGradient><linearGradient x1="264.60827" y1="179.09376" x2="266.32421" y2="179.09376" gradientUnits="userSpaceOnUse" id="color-36"><stop offset="0" stop-color="#272727"/><stop offset="1" stop-color="#000000"/></linearGradient><linearGradient x1="259.61975" y1="178.98128" x2="257.11101" y2="178.98128" gradientUnits="userSpaceOnUse" id="color-37"><stop offset="0" stop-color="#575e6b"/><stop offset="1" stop-color="#696d82"/></linearGradient><linearGradient x1="257.90381" y1="179.06746" x2="259.61975" y2="179.06746" gradientUnits="userSpaceOnUse" id="color-38"><stop offset="0" stop-color="#272727"/><stop offset="1" stop-color="#000000"/></linearGradient><linearGradient x1="259.61279" y1="176.97725" x2="264.61427" y2="176.97725" gradientUnits="userSpaceOnUse" id="color-39"><stop offset="0" stop-color="#535863"/><stop offset="1" stop-color="#1a1b21"/></linearGradient><linearGradient x1="259.61279" y1="176.97725" x2="264.61427" y2="176.97725" gradientUnits="userSpaceOnUse" id="color-40"><stop offset="0" stop-color="#272727"/><stop offset="1" stop-color="#000000"/></linearGradient><linearGradient x1="262.29231" y1="177.18835" x2="264.25407" y2="177.18835" gradientUnits="userSpaceOnUse" id="color-41"><stop offset="0" stop-color="#4a382c"/><stop offset="1" stop-color="#301f1b"/></linearGradient><linearGradient x1="262.29231" y1="177.18835" x2="264.25407" y2="177.18835" gradientUnits="userSpaceOnUse" id="color-42"><stop offset="0" stop-color="#351c12"/><stop offset="1" stop-color="#1a1310"/></linearGradient><linearGradient x1="262.28704" y1="177.18909" x2="264.24426" y2="177.18909" gradientUnits="userSpaceOnUse" id="color-43"><stop offset="0" stop-color="#351c12"/><stop offset="1" stop-color="#1a1310"/></linearGradient><linearGradient x1="262.28704" y1="177.17419" x2="264.24426" y2="177.17419" gradientUnits="userSpaceOnUse" id="color-44"><stop offset="0" stop-color="#351c12"/><stop offset="1" stop-color="#1a1310"/></linearGradient><linearGradient x1="259.94762" y1="177.19829" x2="261.90938" y2="177.19829" gradientUnits="userSpaceOnUse" id="color-45"><stop offset="0" stop-color="#4a382c"/><stop offset="1" stop-color="#301f1b"/></linearGradient><linearGradient x1="259.94762" y1="177.19829" x2="261.90938" y2="177.19829" gradientUnits="userSpaceOnUse" id="color-46"><stop offset="0" stop-color="#351c12"/><stop offset="1" stop-color="#1a1310"/></linearGradient><linearGradient x1="259.94234" y1="177.19903" x2="261.89957" y2="177.19903" gradientUnits="userSpaceOnUse" id="color-47"><stop offset="0" stop-color="#351c12"/><stop offset="1" stop-color="#1a1310"/></linearGradient><linearGradient x1="259.94234" y1="177.18413" x2="261.89957" y2="177.18413" gradientUnits="userSpaceOnUse" id="color-48"><stop offset="0" stop-color="#351c12"/><stop offset="1" stop-color="#1a1310"/></linearGradient><linearGradient x1="262.29231" y1="179.55463" x2="264.25407" y2="179.55463" gradientUnits="userSpaceOnUse" id="color-49"><stop offset="0" stop-color="#4a382c"/><stop offset="1" stop-color="#301f1b"/></linearGradient><linearGradient x1="262.29231" y1="179.55463" x2="264.25407" y2="179.55463" gradientUnits="userSpaceOnUse" id="color-50"><stop offset="0" stop-color="#351c12"/><stop offset="1" stop-color="#1a1310"/></linearGradient><linearGradient x1="262.28704" y1="179.55537" x2="264.24426" y2="179.55537" gradientUnits="userSpaceOnUse" id="color-51"><stop offset="0" stop-color="#351c12"/><stop offset="1" stop-color="#1a1310"/></linearGradient><linearGradient x1="262.28704" y1="179.54047" x2="264.24426" y2="179.54047" gradientUnits="userSpaceOnUse" id="color-52"><stop offset="0" stop-color="#351c12"/><stop offset="1" stop-color="#1a1310"/></linearGradient><linearGradient x1="259.94762" y1="179.56457" x2="261.90938" y2="179.56457" gradientUnits="userSpaceOnUse" id="color-53"><stop offset="0" stop-color="#4a382c"/><stop offset="1" stop-color="#301f1b"/></linearGradient><linearGradient x1="259.94762" y1="179.56457" x2="261.90938" y2="179.56457" gradientUnits="userSpaceOnUse" id="color-54"><stop offset="0" stop-color="#351c12"/><stop offset="1" stop-color="#1a1310"/></linearGradient><linearGradient x1="259.94234" y1="179.56531" x2="261.89957" y2="179.56531" gradientUnits="userSpaceOnUse" id="color-55"><stop offset="0" stop-color="#351c12"/><stop offset="1" stop-color="#1a1310"/></linearGradient><linearGradient x1="259.94234" y1="179.55041" x2="261.89957" y2="179.55041" gradientUnits="userSpaceOnUse" id="color-56"><stop offset="0" stop-color="#351c12"/><stop offset="1" stop-color="#1a1310"/></linearGradient><linearGradient x1="259.86602" y1="174.49576" x2="264.3304" y2="174.49576" gradientUnits="userSpaceOnUse" id="color-57"><stop offset="0" stop-color="#515151"/><stop offset="1" stop-color="#131313"/></linearGradient><linearGradient x1="259.86602" y1="174.49576" x2="264.3304" y2="174.49576" gradientUnits="userSpaceOnUse" id="color-58"><stop offset="0" stop-color="#272727"/><stop offset="1" stop-color="#000000"/></linearGradient><linearGradient x1="260.09854" y1="173.52434" x2="264.06688" y2="173.52434" gradientUnits="userSpaceOnUse" id="color-59"><stop offset="0" stop-color="#272727"/><stop offset="1" stop-color="#000000"/></linearGradient><linearGradient x1="260.11404" y1="175.48157" x2="264.02037" y2="175.48157" gradientUnits="userSpaceOnUse" id="color-60"><stop offset="0" stop-color="#272727"/><stop offset="1" stop-color="#000000"/></linearGradient></defs><g transform="translate(-197.75,-160.83703)"><g data-paper-data="{&quot;isPaintingLayer&quot;:true}" fill-rule="nonzero" stroke-linejoin="miter" stroke-miterlimit="10" stroke-dasharray="" stroke-dashoffset="0" style="mix-blend-mode: normal"><path d="M198.5,198.41312v-36.82609h83v36.82609z" fill="url(#color-1)" stroke="url(#color-2)" stroke-width="1.5" stroke-linecap="butt"/><g stroke-width="0.25"><path d="M273.15733,192.4087h-2.15791" fill="none" stroke="url(#color-3)" stroke-linecap="round"/><path d="M275.82426,196.13932c-1.40535,0.02159 -2.55541,0.11095 -2.57945,-1.16452c-0.02199,-1.16669 1.10441,-1.22112 2.50977,-1.24271c1.40535,-0.02159 2.54632,0.01999 2.57945,1.16452c0.03818,1.319 -1.10441,1.22112 -2.50977,1.24271z" fill="url(#color-4)" stroke="url(#color-5)" stroke-linecap="butt"/><path d="M275.73064,193.64727c-1.40535,0.02159 -2.55541,0.11095 -2.57945,-1.16452c-0.02199,-1.16669 1.10441,-1.22112 2.50977,-1.24271c1.40535,-0.02159 2.54632,0.01999 2.57945,1.16452c0.03818,1.319 -1.10441,1.22112 -2.50977,1.24271z" fill="url(#color-6)" stroke="url(#color-7)" stroke-linecap="butt"/><path d="M278.29706,192.33023l0.86316,1.41244l-0.82393,1.21628" fill="none" stroke="url(#color-8)" stroke-linecap="round"/></g><path d="M249.76223,196.15957l4.52902,-5.52045h15.56196l4.44085,5.52045z" fill="url(#color-9)" stroke="#000000" stroke-width="0.25" stroke-linecap="butt"/><path d="M253.71065,191.30294l0.61719,-0.76438h15.48848l0.61719,0.76438z" fill="url(#color-10)" stroke="#000000" stroke-width="0.25" stroke-linecap="butt"/><path d="M257.16833,196.25728l1.81064,-4.06035h6.22146l1.77539,4.06035z" fill="url(#color-11)" stroke="#000000" stroke-width="0.25" stroke-linecap="butt"/><path d="M267.82531,196.04618l-1.71931,-3.70313" fill="none" stroke="#000000" stroke-width="0.25" stroke-linecap="round"/><path d="M266.9561,192.35555l1.71931,3.70313" fill="none" stroke="#000000" stroke-width="0.25" stroke-linecap="round"/><path d="M257.93119,192.39963l-1.71931,3.70313" data-paper-data="{&quot;index&quot;:null}" fill="none" stroke="#000000" stroke-width="0.25" stroke-linecap="round"/><path d="M255.36178,196.11525l1.71931,-3.70313" data-paper-data="{&quot;index&quot;:null}" fill="none" stroke="#000000" stroke-width="0.25" stroke-linecap="round"/><path d="M249.65346,196.46364v-0.36101h24.83724v0.36101z" fill="#3e3e3e" stroke="#000000" stroke-width="0.25" stroke-linecap="butt"/><path d="M264.19841,185.09081c-0.22212,-0.02195 -0.4413,-0.06193 -0.66559,-0.06193c-0.74263,-0.10609 -1.52698,0.0002 -2.27723,0.0002c-0.53668,0 -1.07345,0.04303 -1.61174,0.04638c0.12097,0.37788 0.26068,0.76759 0.35867,1.15319c0.00551,-0.00139 0.01126,-0.00213 0.01717,-0.00213c0.02594,0 0.04875,0.01417 0.06185,0.03558l0.08099,0.12821l-0.01555,0.01094c0.24622,0.32628 0.43221,0.78968 0.55464,1.17127c0.00158,-0.00011 0.00317,-0.00016 0.00478,-0.00016c0.02032,0 0.03871,0.00869 0.05203,0.02274l0.0981,0.10353l-0.01266,0.01335c0.18577,0.18237 0.24688,0.38603 0.36613,0.66685c0.03481,0.08197 0.11307,0.17895 0.13362,0.27834c0.00106,-0.00888 0.00245,-0.01669 0.00422,-0.02235c0.02009,-0.06427 0.06614,-0.23654 0.14055,-0.2342c0.06732,0.00212 0.08867,0.10703 0.13439,0.15921c0.1729,0.19729 0.21614,0.47379 0.32681,0.71219c0.04949,0.10544 0.07366,0.21282 0.10418,0.32254h0.01023c0.02738,-0.10074 0.05148,-0.19952 0.09707,-0.29666c0.11066,-0.2384 0.1539,-0.5149 0.32681,-0.71219c0.04573,-0.05218 0.06707,-0.15709 0.13439,-0.15921c0.07442,-0.00234 0.12046,0.16993 0.14055,0.2342c0.00177,0.00565 0.00316,0.01347 0.00422,0.02235c0.02055,-0.09939 0.09881,-0.19637 0.13362,-0.27834c0.11925,-0.28082 0.18036,-0.48448 0.36613,-0.66685l-0.01265,-0.01335l0.0981,-0.10353c0.01332,-0.01405 0.03171,-0.02274 0.05203,-0.02274c0.00161,0 0.0032,0.00005 0.00478,0.00016c0.12243,-0.38159 0.30842,-0.84499 0.55464,-1.17127l-0.01555,-0.01094l0.08099,-0.12821c0.0131,-0.02141 0.03591,-0.03558 0.06185,-0.03558c0.00591,0 0.01166,0.00074 0.01717,0.00213c0.09778,-0.38475 0.23709,-0.7736 0.35788,-1.1507c-0.08795,-0.02384 -0.17342,-0.0037 -0.26764,-0.01301zM259.57847,184.92037c0.56023,0 1.11864,-0.04659 1.67711,-0.04659c0.7539,0 1.54199,-0.10641 2.28824,0.0002c0.22562,0 0.44652,0.03965 0.66989,0.0623c0.12482,0.01265 0.22587,-0.01034 0.34729,0.03623l-0.01331,-0.00555c0,0 0.06374,0 0.07572,0.05776c0.01369,0.02907 0.00338,0.0617 0.00338,0.0617c-0.14348,0.45315 -0.30589,0.91786 -0.41945,1.37857l-0.01009,0.00883l0.00402,0.00283l-0.04842,0.07664c-0.0131,0.02141 -0.03591,0.03558 -0.06185,0.03558c-0.02038,0 -0.03882,-0.00874 -0.05214,-0.02286c-0.02777,0.06612 -0.06964,0.12585 -0.10631,0.20073c-0.15145,0.30925 -0.30617,0.64025 -0.41315,0.96922l-0.00785,0.00678l0.003,0.00211l-0.04842,0.07664c-0.0131,0.02141 -0.03591,0.03558 -0.06185,0.03558c-0.02251,0 -0.04265,-0.01066 -0.05615,-0.02746c-0.05592,0.11873 -0.16583,0.21893 -0.22037,0.3446c-0.06199,0.14286 -0.10072,0.28899 -0.16677,0.43119c-0.0378,0.08139 -0.08984,0.29219 -0.19263,0.31279c-0.08542,0.01712 -0.12708,-0.15178 -0.14513,-0.20836c-0.00537,-0.01683 -0.00797,-0.0491 -0.00896,-0.07806c-0.01578,0.08485 -0.08973,0.12286 -0.12305,0.21262c-0.06493,0.17492 -0.12016,0.35299 -0.19822,0.5223c-0.04444,0.09279 -0.06653,0.18898 -0.09251,0.28657c0.00152,0.00606 0.00233,0.01241 0.00233,0.01895c0,0.02169 -0.00889,0.0413 -0.02323,0.05538c-0.00176,0.00582 -0.00355,0.01165 -0.00539,0.01748l-0.09433,0.05309c0,0 -0.04094,0 -0.06174,-0.03222c-0.01307,-0.00246 -0.02706,-0.00932 -0.04104,-0.0233c-0.00042,-0.00042 -0.00084,-0.00085 -0.00125,-0.00127l-0.03941,-0.02218c-0.04064,-0.12896 -0.06047,-0.25661 -0.11879,-0.37838c-0.07805,-0.16932 -0.13329,-0.34739 -0.19822,-0.5223c-0.03332,-0.08976 -0.10727,-0.12778 -0.12305,-0.21262c-0.00098,0.02895 -0.00359,0.06123 -0.00896,0.07806c-0.01805,0.05658 -0.05971,0.22548 -0.14513,0.20836c-0.1028,-0.0206 -0.15483,-0.2314 -0.19263,-0.31279c-0.06605,-0.1422 -0.10478,-0.28833 -0.16677,-0.43119c-0.05453,-0.12567 -0.16445,-0.22587 -0.22037,-0.3446c-0.0135,0.0168 -0.03364,0.02746 -0.05615,0.02746c-0.02594,0 -0.04875,-0.01417 -0.06185,-0.03558l-0.04842,-0.07664l0.003,-0.00211l-0.00785,-0.00678c-0.10698,-0.32897 -0.2617,-0.65997 -0.41315,-0.96922c-0.03667,-0.07488 -0.07854,-0.13461 -0.10631,-0.20072c-0.01332,0.01412 -0.03177,0.02286 -0.05214,0.02286c-0.02594,0 -0.04875,-0.01417 -0.06185,-0.03558l-0.04842,-0.07664l0.00402,-0.00283l-0.01009,-0.00883c-0.11356,-0.46071 -0.27597,-0.92542 -0.41945,-1.37857c0,0 -0.01616,-0.05116 0.01886,-0.08242c0.01198,-0.05774 0.07571,-0.05774 0.07571,-0.05774z" fill="url(#color-12)" stroke="none" stroke-width="0.25" stroke-linecap="butt"/><path d="M264.46892,185.10121c-0.12079,0.37711 -0.25951,0.76681 -0.35728,1.15156c-0.00551,-0.00139 -0.01819,0.00138 -0.0241,0.00138c-0.02594,0 -0.04183,0.01066 -0.05493,0.03206l-0.08093,0.12834l0.01556,0.01096c-0.24622,0.32628 -0.43196,0.79214 -0.55439,1.17374c-0.00158,-0.00011 -0.00317,-0.00016 -0.00478,-0.00016c-0.02032,0 -0.03874,0.00879 -0.05205,0.02284l-0.09821,0.10389l0.01265,0.01338c-0.18577,0.18237 -0.24817,0.38778 -0.36743,0.6686c-0.03481,0.08197 -0.11365,0.17931 -0.1342,0.2787c-0.00106,-0.00888 -0.006,-0.0236 -0.00776,-0.02925c-0.02009,-0.06427 -0.06263,-0.22962 -0.13704,-0.22728c-0.06732,0.00212 -0.08917,0.10724 -0.1349,0.15942c-0.1729,0.19729 -0.21717,0.47399 -0.32783,0.71238c-0.0456,0.09714 -0.06988,0.19593 -0.09726,0.29666h-0.01024c-0.03053,-0.10971 -0.05489,-0.2171 -0.10439,-0.32254c-0.11066,-0.2384 -0.15494,-0.5151 -0.32785,-0.71239c-0.04573,-0.05218 -0.06759,-0.15731 -0.13491,-0.15943c-0.07442,-0.00234 -0.1169,0.16303 -0.13699,0.22731c-0.00177,0.00565 -0.00675,0.02035 -0.00781,0.02923c-0.02055,-0.09939 -0.0994,-0.19675 -0.13421,-0.27871c-0.11925,-0.28082 -0.18165,-0.48626 -0.36742,-0.66864l0.01265,-0.01338l-0.09821,-0.10389c-0.01332,-0.01405 -0.03173,-0.02284 -0.05205,-0.02284c-0.00161,0 -0.0032,0.00005 -0.00478,0.00016c-0.12243,-0.38159 -0.30814,-0.84742 -0.55436,-1.17371l0.01556,-0.01096l-0.08093,-0.12833c-0.0131,-0.02141 -0.02902,-0.03199 -0.05497,-0.03199c-0.00591,0 -0.01855,-0.00284 -0.02406,-0.00145c-0.09799,-0.3856 -0.23711,-0.77615 -0.35808,-1.15403c0.53829,-0.00335 1.07662,-0.04742 1.6133,-0.04742c0.75025,0 1.53803,-0.10587 2.28065,0.00022c0.22429,0 0.44406,0.04045 0.66618,0.0624c0.09422,0.00931 0.17985,-0.01066 0.26781,0.01318z" data-paper-data="{&quot;noHover&quot;:false,&quot;origItem&quot;:[&quot;Path&quot;,{&quot;applyMatrix&quot;:true,&quot;segments&quot;:[[[266.62657,280.12531],[1.19453,0.11806],[-2.81607,-0.27832]],[[258.1881,279.34012],[2.84356,0],[-9.41511,-1.34502]],[[229.31704,279.34259],[9.51175,0],[-6.80416,0]],[[208.88323,279.93061],[6.82445,-0.04245],[1.53369,4.79087]],[[213.43052,294.55091],[-1.24233,-4.88864],[0.06984,-0.01762]],[[213.6482,294.52396],[-0.07495,0],[0.32892,0]],[[214.43238,294.97501],[-0.16609,-0.2714],[0,0]],[215.45922,296.60042],[[215.26214,296.73907],[0,0],[3.1216,4.13668]],[[222.29392,311.58863],[-1.55219,-4.83791],[0.02003,-0.00136]],[[222.35451,311.58659],[-0.02036,0],[0.25759,0]],[[223.01412,311.87491],[-0.16881,-0.17814],[0,0]],[224.25788,313.18742],[[224.09743,313.35673],[0,0],[2.35521,2.31215]],[[228.73927,321.81117],[-1.51188,-3.56025],[0.4413,1.03919]],[[230.43334,325.33997],[-0.26051,-1.2601],[0.01345,-0.11253]],[[230.48681,325.05665],[-0.0224,0.07166],[0.25474,-0.81486]],[[232.26879,322.08739],[-0.94345,-0.02964],[0.85349,0.02682]],[[233.97266,324.10589],[-0.57976,-0.66153],[2.19211,2.5013]],[[238.11594,333.13512],[-1.403,-3.02244],[0.6275,1.33684]],[[239.43678,337.22428],[-0.387,-1.39096],[0,0]],[[239.56643,337.22428],[0,0],[0.34711,-1.27714]],[[240.79712,333.46325],[-0.57807,1.23154],[1.403,-3.02244]],[[244.94041,324.43401],[-2.19211,2.5013],[0.57976,-0.66153]],[[246.64428,322.41552],[-0.85349,0.02682],[0.94345,-0.02964]],[[248.42625,325.38478],[-0.25474,-0.81486],[0.0224,0.07166]],[[248.47973,325.66809],[-0.01345,-0.11253],[0.26051,-1.2601]],[[250.17379,322.13929],[-0.4413,1.03919],[1.51188,-3.56025]],[[254.81564,313.68486],[-2.35521,2.31215],[0,0]],[254.65519,313.51554],[[255.89895,312.20304],[0,0],[0.16881,-0.17814]],[[256.55855,311.91472],[-0.25759,0],[0.02035,0]],[[256.61914,311.91676],[-0.02003,-0.00135],[1.55219,-4.83791]],[[263.65093,297.0672],[-3.1216,4.13668],[0,0]],[263.45384,296.92855],[[264.48069,295.30313],[0,0],[0.16609,-0.27139]],[[265.26486,294.85208],[-0.32893,0],[0.07496,0]],[[265.48255,294.87903],[-0.06984,-0.01762],[1.23961,-4.87791]],[[270.01974,280.29028],[-1.53136,4.78101],[-1.11507,-0.30226]]],&quot;closed&quot;:true}]}" fill="url(#color-13)" stroke="none" stroke-width="0.25" stroke-linecap="butt"/><path d="M263.7461,185.08162c-0.17524,-0.01732 -0.34816,-0.04886 -0.52511,-0.04886c-0.58589,-0.0837 -1.2047,0.00015 -1.79661,0.00015c-0.42341,0 -0.84689,0.03395 -1.27157,0.03659c0.09544,0.29813 0.20566,0.60559 0.28297,0.9098c0.00435,-0.0011 0.00888,-0.00168 0.01355,-0.00168c0.02047,0 0.03846,0.01118 0.0488,0.02807l0.0639,0.10115l-0.01226,0.00863c0.19425,0.25742 0.34099,0.62301 0.43758,0.92407c0.00125,-0.00008 0.0025,-0.00013 0.00377,-0.00013c0.01603,0 0.03054,0.00686 0.04105,0.01794l0.0774,0.08168l-0.00998,0.01054c0.14656,0.14388 0.19477,0.30456 0.28886,0.52611c0.02746,0.06467 0.08921,0.14118 0.10542,0.21959c0.00084,-0.007 0.00193,-0.01317 0.00333,-0.01763c0.01585,-0.05071 0.05218,-0.18662 0.11089,-0.18477c0.05311,0.00167 0.06995,0.08444 0.10603,0.12561c0.13641,0.15565 0.17052,0.37379 0.25783,0.56188c0.03905,0.08319 0.05811,0.1679 0.08219,0.25446h0.00807c0.0216,-0.07947 0.04061,-0.15741 0.07658,-0.23404c0.08731,-0.18808 0.12142,-0.40622 0.25783,-0.56188c0.03608,-0.04117 0.05292,-0.12394 0.10603,-0.12561c0.05871,-0.00184 0.09504,0.13407 0.11089,0.18477c0.00139,0.00446 0.00249,0.01063 0.00333,0.01763c0.01621,-0.07841 0.07796,-0.15493 0.10542,-0.21959c0.09408,-0.22155 0.14229,-0.38223 0.28886,-0.52611l-0.00998,-0.01054l0.0774,-0.08168c0.0105,-0.01109 0.02502,-0.01794 0.04105,-0.01794c0.00127,0 0.00252,0.00004 0.00377,0.00013c0.09659,-0.30106 0.24333,-0.66665 0.43758,-0.92407l-0.01226,-0.00863l0.0639,-0.10115c0.01034,-0.01689 0.02833,-0.02807 0.0488,-0.02807c0.00466,0 0.0092,0.00058 0.01355,0.00168c0.07714,-0.30355 0.18705,-0.61032 0.28234,-0.90784c-0.06939,-0.01881 -0.13682,-0.00292 -0.21115,-0.01027zM260.10123,184.94715c0.44199,0 0.88254,-0.03675 1.32315,-0.03675c0.59478,0 1.21654,-0.08395 1.80529,0.00015c0.178,0 0.35228,0.03128 0.5285,0.04915c0.09847,0.00998 0.1782,-0.00816 0.27399,0.02859l-0.0105,-0.00438c0,0 0.05029,0 0.05974,0.04557c0.0108,0.02293 0.00267,0.04868 0.00267,0.04868c-0.1132,0.35751 -0.24133,0.72414 -0.33092,1.08761l-0.00796,0.00697l0.00317,0.00223l-0.0382,0.06047c-0.01034,0.01689 -0.02833,0.02807 -0.0488,0.02807c-0.01608,0 -0.03063,-0.0069 -0.04114,-0.01804c-0.02191,0.05216 -0.05494,0.09929 -0.08387,0.15836c-0.11949,0.24398 -0.24155,0.50512 -0.32595,0.76466l-0.00619,0.00535l0.00237,0.00167l-0.0382,0.06047c-0.01034,0.01689 -0.02833,0.02807 -0.0488,0.02807c-0.01776,0 -0.03365,-0.00841 -0.0443,-0.02167c-0.04411,0.09367 -0.13083,0.17272 -0.17386,0.27187c-0.04891,0.11271 -0.07946,0.228 -0.13157,0.34018c-0.02983,0.06421 -0.07088,0.23052 -0.15198,0.24677c-0.06739,0.01351 -0.10026,-0.11975 -0.1145,-0.16438c-0.00423,-0.01327 -0.00629,-0.03874 -0.00707,-0.06158c-0.01245,0.06694 -0.07079,0.09693 -0.09708,0.16775c-0.05123,0.138 -0.0948,0.27849 -0.15638,0.41207c-0.03506,0.0732 -0.05249,0.1491 -0.07298,0.22609c0.0012,0.00478 0.00184,0.00979 0.00184,0.01495c0,0.01711 -0.00701,0.03258 -0.01832,0.04369c-0.00139,0.00459 -0.0028,0.00919 -0.00425,0.01379l-0.07442,0.04189c0,0 -0.0323,0 -0.04871,-0.02542c-0.01031,-0.00194 -0.02134,-0.00735 -0.03237,-0.01838c-0.00033,-0.00033 -0.00066,-0.00067 -0.00099,-0.001l-0.03109,-0.0175c-0.03207,-0.10174 -0.04771,-0.20245 -0.09372,-0.29852c-0.06158,-0.13358 -0.10515,-0.27407 -0.15638,-0.41207c-0.02629,-0.07082 -0.08463,-0.10081 -0.09708,-0.16775c-0.00077,0.02284 -0.00283,0.04831 -0.00707,0.06158c-0.01424,0.04464 -0.0471,0.17789 -0.1145,0.16438c-0.0811,-0.01625 -0.12215,-0.18256 -0.15198,-0.24677c-0.05211,-0.11219 -0.08266,-0.22748 -0.13157,-0.34018c-0.04302,-0.09915 -0.12974,-0.1782 -0.17386,-0.27187c-0.01065,0.01326 -0.02654,0.02167 -0.0443,0.02167c-0.02047,0 -0.03846,-0.01118 -0.0488,-0.02807l-0.0382,-0.06047l0.00237,-0.00167l-0.00619,-0.00535c-0.0844,-0.25954 -0.20646,-0.52068 -0.32595,-0.76466c-0.02893,-0.05907 -0.06197,-0.1062 -0.08387,-0.15836c-0.01051,0.01114 -0.02506,0.01804 -0.04114,0.01804c-0.02047,0 -0.03846,-0.01118 -0.0488,-0.02807l-0.0382,-0.06047l0.00317,-0.00223l-0.00796,-0.00697c-0.08959,-0.36347 -0.21772,-0.7301 -0.33092,-1.08761c0,0 -0.01275,-0.04036 0.01488,-0.06502c0.00945,-0.04555 0.05973,-0.04555 0.05973,-0.04555z" fill="url(#color-14)" stroke="none" stroke-width="0.25" stroke-linecap="butt"/><path d="M263.96012,185.08928c-0.09529,0.29752 -0.20461,0.60515 -0.28175,0.9087c-0.00435,-0.0011 -0.01581,0.00183 -0.02047,0.00183c-0.02047,0 -0.03154,0.00767 -0.04188,0.02455l-0.06384,0.10128l0.01228,0.00866c-0.19425,0.25742 -0.34074,0.62547 -0.43733,0.92653c-0.00125,-0.00008 -0.00251,-0.00012 -0.00377,-0.00012c-0.01603,0 -0.03056,0.00695 -0.04107,0.01804l-0.07751,0.08204l0.00998,0.01056c-0.14656,0.14388 -0.19607,0.3063 -0.29015,0.52785c-0.02746,0.06467 -0.08979,0.14154 -0.106,0.21996c-0.00084,-0.007 -0.00548,-0.02008 -0.00687,-0.02454c-0.01585,-0.05071 -0.04867,-0.17969 -0.10738,-0.17785c-0.05311,0.00167 -0.07046,0.08465 -0.10653,0.12582c-0.13641,0.15565 -0.17155,0.37399 -0.25886,0.56207c-0.03597,0.07664 -0.05517,0.15457 -0.07677,0.23405h-0.00809c-0.02408,-0.08656 -0.04335,-0.17128 -0.0824,-0.25447c-0.08731,-0.18808 -0.12246,-0.40643 -0.25887,-0.56208c-0.03608,-0.04117 -0.05343,-0.12416 -0.10654,-0.12582c-0.05871,-0.00184 -0.09147,0.12717 -0.10732,0.17788c-0.00139,0.00446 -0.00609,0.01751 -0.00692,0.02451c-0.01621,-0.07841 -0.07854,-0.1553 -0.10601,-0.21997c-0.09408,-0.22155 -0.14358,-0.38401 -0.29014,-0.52789l0.00998,-0.01056l-0.0775,-0.08204c-0.0105,-0.01109 -0.02504,-0.01804 -0.04107,-0.01804c-0.00127,0 -0.00252,0.00004 -0.00377,0.00012c-0.09659,-0.30106 -0.24305,-0.66908 -0.4373,-0.9265l0.01228,-0.00866l-0.06384,-0.10127c-0.01034,-0.01689 -0.02144,-0.02448 -0.04191,-0.02448c-0.00466,0 -0.01609,-0.003 -0.02044,-0.0019c-0.07731,-0.30421 -0.18694,-0.61252 -0.28238,-0.91064c0.42468,-0.00264 0.84972,-0.03763 1.27313,-0.03763c0.5919,0 1.21414,-0.08344 1.80003,0.00026c0.17695,0 0.35046,0.03201 0.5257,0.04933c0.07433,0.00735 0.14193,-0.00837 0.21132,0.01044z" data-paper-data="{&quot;noHover&quot;:false,&quot;origItem&quot;:[&quot;Path&quot;,{&quot;applyMatrix&quot;:true,&quot;segments&quot;:[[[260.89213,280.00882],[0.94242,0.09314],[-2.22172,-0.21958]],[[254.23466,279.38935],[2.2434,0],[-7.42798,-1.06114]],[[231.45706,279.3913],[7.50423,0],[-5.36809,0]],[[215.33596,279.85521],[5.3841,-0.03349],[1.21,3.77972]],[[218.92351,291.38978],[-0.98013,-3.85685],[0.0551,-0.0139]],[[219.09525,291.36852],[-0.05914,0],[0.2595,0]],[[219.71392,291.72438],[-0.13104,-0.21411],[0,0]],[220.52404,293.00673],[[220.36855,293.11612],[0,0],[2.46276,3.2636]],[[225.91622,304.83157],[-1.22459,-3.81684],[0.0158,-0.00107]],[[225.96402,304.82996],[-0.01606,0],[0.20323,0]],[[226.48441,305.05743],[-0.13318,-0.14054],[0,0]],[227.46567,306.09292],[[227.33909,306.2265],[0,0],[1.85813,1.82415]],[[231.00124,312.89656],[-1.19279,-2.80883],[0.34816,0.81986]],[[232.33775,315.68058],[-0.20553,-0.99415],[0.01061,-0.08878]],[[232.37994,315.45707],[-0.01768,0.05654],[0.20097,-0.64288]],[[233.78581,313.11449],[-0.74433,-0.02339],[0.67335,0.02116]],[[235.13007,314.70696],[-0.45739,-0.52191],[1.72945,1.97338]],[[238.39889,321.83051],[-1.10689,-2.38453],[0.49506,1.05469]],[[239.44095,325.05662],[-0.30532,-1.09739],[0,0]],[[239.54324,325.05662],[0,0],[0.27385,-1.00759]],[[240.51418,322.08938],[-0.45607,0.97162],[1.10689,-2.38453]],[[243.783,314.96584],[-1.72945,1.97338],[0.45739,-0.52191]],[[245.12725,313.37337],[-0.67336,0.02116],[0.74433,-0.02339]],[[246.53313,315.71594],[-0.20097,-0.64288],[0.01767,0.05654]],[[246.57532,315.93946],[-0.01061,-0.08878],[0.20553,-0.99415]],[[247.91183,313.15544],[-0.34816,0.81986],[1.19278,-2.80883]],[[251.57398,306.48537],[-1.85813,1.82415],[0,0]],[251.4474,306.35179],[[252.42865,305.3163],[0,0],[0.13318,-0.14054]],[[252.94904,305.08883],[-0.20322,0],[0.01606,0]],[[252.99685,305.09044],[-0.0158,-0.00107],[1.22459,-3.81684]],[[258.54452,293.375],[-2.46276,3.2636],[0,0]],[258.38903,293.26561],[[259.19915,291.98325],[0,0],[0.13104,-0.21411]],[[259.81782,291.6274],[-0.2595,0],[0.05914,0]],[[259.98956,291.64866],[-0.0551,-0.0139],[0.97798,-3.84839]],[[263.56914,280.13897],[-1.20816,3.77194],[-0.87973,-0.23846]]],&quot;closed&quot;:true}]}" fill="url(#color-15)" stroke="none" stroke-width="0.25" stroke-linecap="butt"/><path d="M263.30234,185.07465c-0.13022,-0.01287 -0.25873,-0.03631 -0.39022,-0.03631c-0.43539,-0.0622 -0.89524,0.00011 -1.3351,0.00011c-0.31465,0 -0.62934,0.02523 -0.94493,0.02719c0.07092,0.22155 0.15283,0.45003 0.21028,0.67609c0.00323,-0.00081 0.0066,-0.00125 0.01007,-0.00125c0.01521,0 0.02858,0.00831 0.03626,0.02086l0.04748,0.07516l-0.00911,0.00641c0.14435,0.19129 0.2534,0.46297 0.32517,0.68669c0.00093,-0.00006 0.00186,-0.00009 0.0028,-0.00009c0.01191,0 0.0227,0.0051 0.0305,0.01333l0.05752,0.0607l-0.00742,0.00783c0.10891,0.10692 0.14474,0.22632 0.21465,0.39096c0.02041,0.04806 0.06629,0.10491 0.07834,0.16318c0.00062,-0.0052 0.00144,-0.00979 0.00247,-0.0131c0.01178,-0.03768 0.03878,-0.13868 0.0824,-0.13731c0.03947,0.00124 0.05198,0.06275 0.07879,0.09334c0.10137,0.11567 0.12672,0.27777 0.1916,0.41754c0.02902,0.06182 0.04318,0.12477 0.06108,0.1891h0.006c0.01605,-0.05906 0.03018,-0.11697 0.05691,-0.17392c0.06488,-0.13977 0.09023,-0.30187 0.1916,-0.41754c0.02681,-0.03059 0.03932,-0.0921 0.07879,-0.09334c0.04363,-0.00137 0.07062,0.09963 0.0824,0.13731c0.00104,0.00331 0.00185,0.0079 0.00247,0.0131c0.01205,-0.05827 0.05793,-0.11513 0.07834,-0.16318c0.06991,-0.16464 0.10574,-0.28404 0.21465,-0.39096l-0.00742,-0.00783l0.05752,-0.0607c0.00781,-0.00824 0.01859,-0.01333 0.0305,-0.01333c0.00094,0 0.00188,0.00003 0.0028,0.00009c0.07178,-0.22372 0.18082,-0.4954 0.32517,-0.68669l-0.00911,-0.00641l0.04748,-0.07516c0.00768,-0.01255 0.02105,-0.02086 0.03626,-0.02086c0.00347,0 0.00684,0.00043 0.01007,0.00125c0.05732,-0.22557 0.139,-0.45354 0.20981,-0.67463c-0.05156,-0.01398 -0.10167,-0.00217 -0.15691,-0.00763zM260.59376,184.97472c0.32845,0 0.65584,-0.02731 0.98326,-0.02731c0.442,0 0.90404,-0.06239 1.34155,0.00011c0.13228,0 0.26178,0.02325 0.39274,0.03652c0.07318,0.00742 0.13243,-0.00606 0.20361,0.02124l-0.0078,-0.00326c0,0 0.03737,0 0.04439,0.03386c0.00802,0.01704 0.00198,0.03617 0.00198,0.03617c-0.08412,0.26567 -0.17934,0.53812 -0.24591,0.80823l-0.00591,0.00518l0.00236,0.00166l-0.02839,0.04493c-0.00768,0.01255 -0.02105,0.02086 -0.03626,0.02086c-0.01195,0 -0.02276,-0.00512 -0.03057,-0.0134c-0.01628,0.03876 -0.04083,0.07378 -0.06233,0.11768c-0.08879,0.18131 -0.1795,0.37537 -0.24222,0.56823l-0.0046,0.00397l0.00176,0.00124l-0.02839,0.04493c-0.00768,0.01255 -0.02105,0.02086 -0.03626,0.02086c-0.0132,0 -0.02501,-0.00625 -0.03292,-0.0161c-0.03278,0.06961 -0.09722,0.12835 -0.1292,0.20203c-0.03634,0.08375 -0.05905,0.16943 -0.09777,0.2528c-0.02216,0.04772 -0.05267,0.1713 -0.11294,0.18338c-0.05008,0.01004 -0.07451,-0.08899 -0.08509,-0.12216c-0.00315,-0.00987 -0.00467,-0.02879 -0.00525,-0.04576c-0.00925,0.04974 -0.05261,0.07203 -0.07214,0.12466c-0.03807,0.10255 -0.07045,0.20695 -0.11621,0.30622c-0.02605,0.0544 -0.039,0.1108 -0.05423,0.16801c0.00089,0.00356 0.00137,0.00728 0.00137,0.01111c0,0.01271 -0.00521,0.02421 -0.01362,0.03247c-0.00103,0.00341 -0.00208,0.00683 -0.00316,0.01025l-0.0553,0.03113c0,0 -0.024,0 -0.0362,-0.01889c-0.00767,-0.00144 -0.01586,-0.00546 -0.02406,-0.01366c-0.00025,-0.00025 -0.00049,-0.0005 -0.00073,-0.00074l-0.0231,-0.013c-0.02383,-0.07561 -0.03545,-0.15044 -0.06965,-0.22184c-0.04576,-0.09927 -0.07814,-0.20367 -0.11621,-0.30622c-0.01954,-0.05263 -0.06289,-0.07491 -0.07214,-0.12466c-0.00058,0.01698 -0.0021,0.0359 -0.00525,0.04576c-0.01058,0.03317 -0.035,0.13219 -0.08509,0.12216c-0.06027,-0.01208 -0.09077,-0.13566 -0.11294,-0.18338c-0.03872,-0.08337 -0.06143,-0.16904 -0.09777,-0.2528c-0.03197,-0.07368 -0.09641,-0.13242 -0.1292,-0.20203c-0.00791,0.00985 -0.01972,0.0161 -0.03292,0.0161c-0.01521,0 -0.02858,-0.00831 -0.03626,-0.02086l-0.02839,-0.04493l0.00176,-0.00124l-0.0046,-0.00397c-0.06272,-0.19287 -0.15343,-0.38693 -0.24222,-0.56823c-0.0215,-0.0439 -0.04605,-0.07892 -0.06233,-0.11768c-0.00781,0.00828 -0.01862,0.0134 -0.03057,0.0134c-0.01521,0 -0.02858,-0.00831 -0.03626,-0.02086l-0.02839,-0.04493l0.00236,-0.00166l-0.00591,-0.00518c-0.06658,-0.27011 -0.16179,-0.54256 -0.24591,-0.80823c0,0 -0.00947,-0.02999 0.01106,-0.04832c0.00703,-0.03385 0.04439,-0.03385 0.04439,-0.03385z" fill="url(#color-16)" stroke="none" stroke-width="0.25" stroke-linecap="butt"/><path d="M263.46213,185.07967c-0.07082,0.22109 -0.1519,0.44992 -0.20922,0.67549c-0.00323,-0.00081 -0.01353,0.00226 -0.01699,0.00226c-0.01521,0 -0.02166,0.00479 -0.02934,0.01734l-0.04742,0.0753l0.00913,0.00644c-0.14435,0.19129 -0.25315,0.46544 -0.32493,0.68916c-0.00093,-0.00006 -0.00186,-0.00009 -0.0028,-0.00009c-0.01191,0 -0.02272,0.00519 -0.03053,0.01343l-0.05763,0.06106l0.00741,0.00785c-0.10891,0.10692 -0.14604,0.22807 -0.21595,0.39271c-0.02041,0.04806 -0.06687,0.10528 -0.07892,0.16355c-0.00062,-0.0052 -0.00498,-0.01669 -0.00602,-0.02001c-0.01178,-0.03768 -0.03527,-0.13176 -0.07889,-0.13038c-0.03947,0.00124 -0.05249,0.06296 -0.0793,0.09355c-0.10137,0.11567 -0.12774,0.27797 -0.19262,0.41774c-0.02673,0.05695 -0.04105,0.11487 -0.0571,0.17393h-0.00601c-0.0179,-0.06432 -0.03227,-0.12728 -0.06128,-0.1891c-0.06488,-0.13977 -0.09127,-0.30208 -0.19264,-0.41774c-0.02681,-0.03059 -0.03984,-0.09232 -0.07931,-0.09356c-0.04363,-0.00137 -0.06706,0.09273 -0.07884,0.13041c-0.00104,0.00331 -0.00545,0.01478 -0.00607,0.01998c-0.01205,-0.05827 -0.05852,-0.1155 -0.07893,-0.16356c-0.06991,-0.16464 -0.10703,-0.28583 -0.21594,-0.39275l0.00741,-0.00785l-0.05762,-0.06106c-0.00781,-0.00824 -0.01861,-0.01343 -0.03052,-0.01343c-0.00094,0 -0.00188,0.00003 -0.0028,0.00009c-0.07178,-0.22372 -0.18054,-0.49783 -0.32489,-0.68913l0.00913,-0.00644l-0.04742,-0.07529c-0.00768,-0.01255 -0.01417,-0.01727 -0.02938,-0.01727c-0.00347,0 -0.01373,-0.00314 -0.01696,-0.00233c-0.05745,-0.22607 -0.13877,-0.45539 -0.20969,-0.67694c0.31559,-0.00196 0.63185,-0.02823 0.94649,-0.02823c0.43986,0 0.90313,-0.0619 1.33852,0.0003c0.1315,0 0.26058,0.02391 0.39081,0.03678c0.05524,0.00546 0.10551,-0.00618 0.15708,0.0078z" data-paper-data="{&quot;noHover&quot;:false,&quot;origItem&quot;:[&quot;Path&quot;,{&quot;applyMatrix&quot;:true,&quot;segments&quot;:[[[255.26611,279.92046],[0.70033,0.06922],[-1.651,-0.16318]],[[250.3188,279.46012],[1.66712,0],[-5.51989,-0.78856]],[[233.39228,279.46157],[5.57655,0],[-3.98914,0]],[[221.41235,279.80631],[4.00103,-0.02489],[0.89917,2.80879]],[[224.07834,288.37789],[-0.72836,-2.86611],[0.04094,-0.01033]],[[224.20596,288.36209],[-0.04395,0],[0.19284,0]],[[224.66571,288.62654],[-0.09738,-0.15911],[0,0]],[225.26772,289.57948],[[225.15217,289.66077],[0,0],[1.83013,2.42525]],[[229.27477,298.36677],[-0.91002,-2.83637],[0.01174,-0.00079]],[[229.31029,298.36557],[-0.01193,0],[0.15102,0]],[[229.69701,298.53461],[-0.09897,-0.10444],[0,0]],[230.4262,299.30411],[[230.33213,299.40337],[0,0],[1.38082,1.35557]],[[233.05355,304.36004],[-0.88638,-2.0873],[0.25873,0.60926]],[[234.04674,306.4289],[-0.15274,-0.73877],[0.00788,-0.06598]],[[234.0781,306.2628],[-0.01313,0.04201],[0.14935,-0.47774]],[[235.12283,304.52198],[-0.55312,-0.01738],[0.50038,0.01572]],[[236.12177,305.70538],[-0.3399,-0.38784],[1.28519,1.46646]],[[238.5509,310.99904],[-0.82255,-1.772],[0.36789,0.78376]],[[239.32528,313.39643],[-0.22689,-0.8155],[0,0]],[[239.40129,313.39643],[0,0],[0.2035,-0.74876]],[[240.12282,311.19141],[-0.33891,0.72203],[0.82255,-1.772]],[[242.55195,305.89776],[-1.28519,1.46646],[0.3399,-0.38784]],[[243.55089,304.71436],[-0.50039,0.01572],[0.55312,-0.01738]],[[244.59563,306.45518],[-0.14935,-0.47774],[0.01313,0.04201]],[[244.62698,306.62127],[-0.00788,-0.06598],[0.15273,-0.73877]],[[245.62017,304.55241],[-0.25873,0.60926],[0.88638,-2.0873]],[[248.34159,299.59575],[-1.38082,1.35557],[0,0]],[248.24753,299.49648],[[248.97672,298.72698],[0,0],[0.09897,-0.10444]],[[249.36343,298.55794],[-0.15102,0],[0.01193,0]],[[249.39896,298.55914],[-0.01174,-0.00079],[0.91002,-2.83637]],[[253.52155,289.85315],[-1.83013,2.42525],[0,0]],[253.406,289.77186],[[254.00801,288.81891],[0,0],[0.09738,-0.15911]],[[254.46776,288.55447],[-0.19284,0],[0.04395,0]],[[254.59539,288.57027],[-0.04095,-0.01033],[0.72676,-2.85982]],[[257.25545,280.01718],[-0.89781,2.80301],[-0.65374,-0.17721]]],&quot;closed&quot;:true}]}" fill="url(#color-17)" stroke="none" stroke-width="0.25" stroke-linecap="butt"/><path d="M262.83841,185.0786c-0.08134,-0.00804 -0.1616,-0.02268 -0.24373,-0.02268c-0.27193,-0.03885 -0.55915,0.00007 -0.83387,0.00007c-0.19652,0 -0.39307,0.01576 -0.59018,0.01698c0.0443,0.13837 0.09546,0.28108 0.13134,0.42227c0.00202,-0.00051 0.00412,-0.00078 0.00629,-0.00078c0.0095,0 0.01785,0.00519 0.02265,0.01303l0.02966,0.04695l-0.00569,0.004c0.09016,0.11948 0.15826,0.28916 0.2031,0.42889c0.00058,-0.00004 0.00116,-0.00006 0.00175,-0.00006c0.00744,0 0.01418,0.00318 0.01905,0.00833l0.03592,0.03791l-0.00463,0.00489c0.06803,0.06678 0.0904,0.14136 0.13407,0.24419c0.01275,0.03001 0.0414,0.06553 0.04893,0.10192c0.00039,-0.00325 0.0009,-0.00611 0.00154,-0.00818c0.00736,-0.02354 0.02422,-0.08662 0.05147,-0.08576c0.02465,0.00077 0.03247,0.03919 0.04921,0.0583c0.06331,0.07224 0.07915,0.17349 0.11967,0.26079c0.01812,0.03861 0.02697,0.07793 0.03815,0.11811h0.00375c0.01003,-0.03689 0.01885,-0.07306 0.03555,-0.10863c0.04052,-0.0873 0.05636,-0.18854 0.11967,-0.26079c0.01674,-0.01911 0.02456,-0.05752 0.04921,-0.0583c0.02725,-0.00086 0.04411,0.06222 0.05147,0.08576c0.00065,0.00207 0.00116,0.00493 0.00154,0.00818c0.00752,-0.03639 0.03618,-0.07191 0.04893,-0.10192c0.04367,-0.10283 0.06604,-0.1774 0.13407,-0.24419l-0.00463,-0.00489l0.03592,-0.03791c0.00488,-0.00515 0.01161,-0.00833 0.01905,-0.00833c0.00059,0 0.00117,0.00002 0.00175,0.00006c0.04483,-0.13973 0.11294,-0.30942 0.2031,-0.42889l-0.00569,-0.004l0.02966,-0.04695c0.0048,-0.00784 0.01315,-0.01303 0.02265,-0.01303c0.00217,0 0.00427,0.00027 0.00629,0.00078c0.0358,-0.14089 0.08682,-0.28327 0.13105,-0.42136c-0.03221,-0.00873 -0.0635,-0.00136 -0.098,-0.00476zM261.14669,185.01619c0.20514,0 0.40962,-0.01706 0.61412,-0.01706c0.27606,0 0.56464,-0.03897 0.8379,0.00007c0.08262,0 0.1635,0.01452 0.2453,0.02281c0.0457,0.00463 0.08271,-0.00379 0.12717,0.01327l-0.00487,-0.00203c0,0 0.02334,0 0.02773,0.02115c0.00501,0.01064 0.00124,0.02259 0.00124,0.02259c-0.05254,0.16593 -0.11201,0.3361 -0.15359,0.5048l-0.00369,0.00323l0.00147,0.00103l-0.01773,0.02806c-0.0048,0.00784 -0.01315,0.01303 -0.02265,0.01303c-0.00746,0 -0.01421,-0.0032 -0.01909,-0.00837c-0.01017,0.02421 -0.0255,0.04608 -0.03893,0.0735c-0.05546,0.11324 -0.11211,0.23445 -0.15129,0.3549l-0.00287,0.00248l0.0011,0.00077l-0.01773,0.02806c-0.0048,0.00784 -0.01315,0.01303 -0.02265,0.01303c-0.00824,0 -0.01562,-0.00391 -0.02056,-0.01006c-0.02047,0.04348 -0.06072,0.08017 -0.08069,0.12619c-0.0227,0.05231 -0.03688,0.10582 -0.06107,0.15789c-0.01384,0.0298 -0.0329,0.10699 -0.07054,0.11454c-0.03128,0.00627 -0.04654,-0.05558 -0.05314,-0.0763c-0.00196,-0.00616 -0.00292,-0.01798 -0.00328,-0.02858c-0.00578,0.03107 -0.03286,0.04499 -0.04506,0.07786c-0.02378,0.06405 -0.044,0.12926 -0.07258,0.19126c-0.01627,0.03398 -0.02436,0.0692 -0.03387,0.10494c0.00056,0.00222 0.00085,0.00455 0.00085,0.00694c0,0.00794 -0.00326,0.01512 -0.00851,0.02028c-0.00064,0.00213 -0.0013,0.00427 -0.00197,0.0064l-0.03454,0.01944c0,0 -0.01499,0 -0.02261,-0.0118c-0.00479,-0.0009 -0.00991,-0.00341 -0.01503,-0.00853c-0.00015,-0.00015 -0.00031,-0.00031 -0.00046,-0.00046l-0.01443,-0.00812c-0.01488,-0.04722 -0.02214,-0.09396 -0.0435,-0.13856c-0.02858,-0.062 -0.04881,-0.1272 -0.07258,-0.19126c-0.0122,-0.03287 -0.03928,-0.04679 -0.04506,-0.07786c-0.00036,0.0106 -0.00131,0.02242 -0.00328,0.02858c-0.00661,0.02072 -0.02186,0.08256 -0.05314,0.0763c-0.03764,-0.00754 -0.0567,-0.08473 -0.07054,-0.11454c-0.02418,-0.05207 -0.03837,-0.10558 -0.06107,-0.15789c-0.01997,-0.04602 -0.06022,-0.08271 -0.08069,-0.12619c-0.00494,0.00615 -0.01232,0.01006 -0.02056,0.01006c-0.0095,0 -0.01785,-0.00519 -0.02265,-0.01303l-0.01773,-0.02806l0.0011,-0.00077l-0.00287,-0.00248c-0.03917,-0.12046 -0.09583,-0.24166 -0.15129,-0.3549c-0.01343,-0.02742 -0.02876,-0.04929 -0.03893,-0.0735c-0.00488,0.00517 -0.01163,0.00837 -0.01909,0.00837c-0.0095,0 -0.01785,-0.00519 -0.02265,-0.01303l-0.01773,-0.02806l0.00147,-0.00103l-0.00369,-0.00323c-0.04158,-0.1687 -0.10105,-0.33887 -0.15359,-0.5048c0,0 -0.00592,-0.01873 0.0069,-0.03018c0.00439,-0.02114 0.02772,-0.02114 0.02772,-0.02114z" fill="url(#color-18)" stroke="none" stroke-width="0.25" stroke-linecap="butt"/><path d="M262.93929,185.06104c-0.04423,0.13809 -0.09465,0.28133 -0.13046,0.42222c-0.00202,-0.00051 -0.01105,0.00273 -0.01321,0.00273c-0.0095,0 -0.01093,0.00167 -0.01573,0.00951l-0.02959,0.04708l0.00571,0.00403c-0.09016,0.11948 -0.15802,0.29163 -0.20285,0.43136c-0.00058,-0.00004 -0.00116,-0.00006 -0.00175,-0.00006c-0.00744,0 -0.0142,0.00328 -0.01907,0.00842l-0.03604,0.03827l0.00463,0.00491c-0.06803,0.06678 -0.0917,0.1431 -0.13536,0.24593c-0.01275,0.03001 -0.04198,0.06589 -0.04951,0.10228c-0.00039,-0.00325 -0.00444,-0.01302 -0.00509,-0.01509c-0.00736,-0.02354 -0.02071,-0.07969 -0.04796,-0.07883c-0.02465,0.00077 -0.03297,0.0394 -0.04971,0.05851c-0.06331,0.07224 -0.08017,0.17369 -0.12069,0.26098c-0.0167,0.03557 -0.02571,0.07175 -0.03573,0.10863h-0.00376c-0.01118,-0.04017 -0.02023,-0.0795 -0.03835,-0.11811c-0.04052,-0.0873 -0.0574,-0.18874 -0.12071,-0.26099c-0.01674,-0.01911 -0.02507,-0.05774 -0.04972,-0.05851c-0.02725,-0.00086 -0.04054,0.05533 -0.0479,0.07886c-0.00065,0.00207 -0.00475,0.01181 -0.00514,0.01506c-0.00752,-0.03639 -0.03677,-0.07228 -0.04952,-0.1023c-0.04367,-0.10283 -0.06733,-0.17919 -0.13536,-0.24597l0.00463,-0.00491l-0.03603,-0.03827c-0.00488,-0.00515 -0.01163,-0.00842 -0.01907,-0.00842c-0.00059,0 -0.00117,0.00002 -0.00175,0.00006c-0.04483,-0.13973 -0.11266,-0.31185 -0.20282,-0.43133l0.00571,-0.00403l-0.0296,-0.04707c-0.0048,-0.00784 -0.00626,-0.00944 -0.01576,-0.00944c-0.00217,0 -0.01116,-0.00331 -0.01318,-0.0028c-0.03588,-0.1412 -0.08645,-0.28474 -0.13075,-0.42312c0.19711,-0.00123 0.39522,-0.01802 0.59175,-0.01802c0.27472,0 0.56536,-0.03851 0.83729,0.00034c0.08213,0 0.16298,0.01511 0.24431,0.02315c0.0345,0.00341 0.06596,-0.00379 0.09817,0.00494z" data-paper-data="{&quot;noHover&quot;:false,&quot;origItem&quot;:[&quot;Path&quot;,{&quot;applyMatrix&quot;:true,&quot;segments&quot;:[[[249.38434,279.97054],[0.43741,0.04323],[-1.03118,-0.10192]],[[246.29437,279.68302],[1.04125,0],[-3.44759,-0.49251]],[[235.72245,279.68393],[3.48298,0],[-2.49153,0]],[[228.24006,279.89925],[2.49895,-0.01555],[0.5616,1.75431]],[[229.90517,285.25286],[-0.45491,-1.79011],[0.02557,-0.00645]],[[229.98489,285.24299],[-0.02745,0],[0.12044,0]],[[230.27203,285.40816],[-0.06082,-0.09938],[0,0]],[230.64804,286.00335],[[230.57587,286.05412],[0,0],[1.14306,1.51476]],[[233.15075,291.49168],[-0.56838,-1.77153],[0.00733,-0.00049]],[[233.17294,291.49094],[-0.00745,0],[0.09432,0]],[[233.41447,291.59651],[-0.06181,-0.06523],[0,0]],[233.8699,292.07712],[[233.81115,292.13912],[0,0],[0.86243,0.84666]],[[235.51089,295.23494],[-0.55361,-1.30368],[0.16159,0.38053]],[[236.13121,296.5271],[-0.0954,-0.46142],[0.00492,-0.04121]],[[236.1508,296.42337],[-0.0082,0.02624],[0.09328,-0.29839]],[[236.80331,295.33609],[-0.34547,-0.01085],[0.31253,0.00982]],[[237.42723,296.07521],[-0.21229,-0.24224],[0.8027,0.91592]],[[238.94441,299.38151],[-0.51375,-1.10675],[0.22977,0.48952]],[[239.42806,300.87887],[-0.14171,-0.50934],[0,0]],[[239.47554,300.87887],[0,0],[0.12711,-0.46766]],[[239.92619,299.50166],[-0.21168,0.45096],[0.51375,-1.10675]],[[241.44337,296.19537],[-0.8027,0.91592],[0.21229,-0.24224]],[[242.06729,295.45624],[-0.31253,0.00982],[0.34547,-0.01085]],[[242.7198,296.54352],[-0.09328,-0.29839],[0.0082,0.02624]],[[242.73939,296.64726],[-0.00492,-0.04121],[0.09539,-0.46142]],[[243.35971,295.3551],[-0.16159,0.38053],[0.55361,-1.30368]],[[245.05945,292.25928],[-0.86243,0.84666],[0,0]],[245.0007,292.19728],[[245.45613,291.71667],[0,0],[0.06181,-0.06523]],[[245.69766,291.61109],[-0.09432,0],[0.00745,0]],[[245.71985,291.61184],[-0.00733,-0.00049],[0.56838,-1.77153]],[[248.29473,286.17427],[-1.14306,1.51476],[0,0]],[248.22256,286.1235],[[248.59857,285.52831],[0,0],[0.06082,-0.09938]],[[248.88572,285.36315],[-0.12044,0],[0.02745,0]],[[248.96543,285.37302],[-0.02557,-0.00645],[0.45391,-1.78618]],[[250.62684,280.03095],[-0.56075,1.7507],[-0.40831,-0.11068]]],&quot;closed&quot;:true}]}" fill="url(#color-19)" stroke="none" stroke-width="0.25" stroke-linecap="butt"/><g stroke-width="0.25"><path d="M263.27346,182.76723v-1.35667h0.41016v1.35667z" fill="url(#color-20)" stroke="url(#color-21)" stroke-linecap="butt"/><path d="M259.52225,185.03641c0,0 1.88989,-5.09849 2.53104,-5.06138c0.73346,0.04246 2.53034,5.06138 2.53034,5.06138z" fill="url(#color-22)" stroke="url(#color-23)" stroke-linecap="butt"/><path d="M262.86331,181.11609h-1.60907" fill="none" stroke="url(#color-24)" stroke-linecap="round"/><path d="M260.73365,182.14704h2.58713" fill="none" stroke="url(#color-25)" stroke-linecap="round"/><path d="M260.29695,183.28515h3.47324" fill="none" stroke="url(#color-26)" stroke-linecap="round"/><path d="M259.83446,184.41867h4.41706" fill="none" stroke="url(#color-27)" stroke-linecap="round"/><path d="M264.15694,180.74414c-0.00478,0.60092 -0.01992,0.66522 -0.63902,0.65885c-0.61929,-0.00637 -0.6467,-0.0878 -0.63902,-0.65885c0.00848,-0.63047 0.00668,-0.6743 0.63902,-0.65885c0.60586,0.01481 0.64427,-0.00102 0.63902,0.65885z" fill="url(#color-28)" stroke="url(#color-29)" stroke-linecap="butt"/></g><path d="M259.59698,172.86481c0,0 0.32552,-5.17737 2.50474,-5.06138c2.19266,-0.15473 2.55664,5.06138 2.55664,5.06138z" fill="url(#color-30)" stroke="url(#color-31)" stroke-width="0.25" stroke-linecap="butt"/><path d="M260.859,168.45237c0,0 0.16065,-0.65505 1.23615,-0.64038c1.08213,-0.01958 1.26176,0.64038 1.26176,0.64038z" fill="url(#color-32)" stroke="url(#color-33)" stroke-width="0.25" stroke-linecap="butt"/><path d="M260.16231,170.05732c0,0 0.06174,-0.20024 0.15245,-0.43853c0.10645,-0.27964 0.28276,-0.61168 0.89203,-0.73401c0.02364,-0.00475 0.46773,-0.07428 0.46773,-0.07428l0.96614,0.00298c0,0 0.33398,0.02384 0.35359,0.02849c0.5766,0.13668 0.79312,0.4799 0.91433,0.76687c0.10335,0.24469 0.16623,0.44849 0.16623,0.44849z" data-paper-data="{&quot;index&quot;:null}" fill="url(#color-34)" stroke="#000000" stroke-width="0.25" stroke-linecap="butt"/><path d="M261.19322,169.46428c0,-0.24591 0.19935,-0.44527 0.44527,-0.44527c0.24591,0 0.44527,0.19935 0.44527,0.44527c0,0.24591 -0.19935,0.44527 -0.44527,0.44527c-0.24591,0 -0.44527,-0.19935 -0.44527,-0.44527z" fill="#ff0000" stroke="none" stroke-width="0.25" stroke-linecap="butt"/><path d="M262.22243,169.47404c0,-0.24591 0.19935,-0.44527 0.44527,-0.44527c0.24591,0 0.44527,0.19935 0.44527,0.44527c0,0.24591 -0.19935,0.44527 -0.44527,0.44527c-0.24591,0 -0.44527,-0.19935 -0.44527,-0.44527z" fill="#4bff00" stroke="none" stroke-width="0.25" stroke-linecap="butt"/><path d="M264.60827,181.06564v-5.11524c0,0 0.64372,3.43375 0.86878,4.26281c0.17806,0.65593 0.84717,2.0239 0.84717,2.0239z" fill="url(#color-35)" stroke="url(#color-36)" stroke-width="0.25" stroke-linecap="butt"/><path d="M257.90381,182.21082c0,0 0.66911,-1.36797 0.84717,-2.0239c0.22506,-0.82906 0.86878,-4.26281 0.86878,-4.26281v5.11524z" data-paper-data="{&quot;index&quot;:null}" fill="url(#color-37)" stroke="url(#color-38)" stroke-width="0.25" stroke-linecap="butt"/><path d="M259.61279,181.08026v-8.20603h5.00148v8.20603z" fill="url(#color-39)" stroke="url(#color-40)" stroke-width="0.25" stroke-linecap="butt"/><g stroke-width="0.25"><path d="M262.29231,178.20959v-2.04248h1.96176v2.04248z" fill="url(#color-41)" stroke="url(#color-42)" stroke-linecap="butt"/><path d="M264.24426,176.19558l-1.95722,1.98703" fill="none" stroke="url(#color-43)" stroke-linecap="round"/><path d="M264.24426,178.19254l-1.93735,-2.01683" fill="none" stroke="url(#color-44)" stroke-linecap="round"/></g><g stroke-width="0.25"><path d="M259.94762,178.21953v-2.04248h1.96176v2.04248z" fill="url(#color-45)" stroke="url(#color-46)" stroke-linecap="butt"/><path d="M261.89957,176.20552l-1.95722,1.98703" fill="none" stroke="url(#color-47)" stroke-linecap="round"/><path d="M261.89957,178.20248l-1.93735,-2.01683" fill="none" stroke="url(#color-48)" stroke-linecap="round"/></g><g stroke-width="0.25"><path d="M262.29231,180.57587v-2.04248h1.96176v2.04248z" fill="url(#color-49)" stroke="url(#color-50)" stroke-linecap="butt"/><path d="M264.24426,178.56186l-1.95722,1.98703" fill="none" stroke="url(#color-51)" stroke-linecap="round"/><path d="M262.30691,178.54199l1.93735,2.01683" fill="none" stroke="url(#color-52)" stroke-linecap="round"/></g><g stroke-width="0.25"><path d="M259.94762,180.58581v-2.04248h1.96176v2.04248z" fill="url(#color-53)" stroke="url(#color-54)" stroke-linecap="butt"/><path d="M259.94234,180.55882l1.95722,-1.98703" fill="none" stroke="url(#color-55)" stroke-linecap="round"/><path d="M259.96221,178.55192l1.93735,2.01683" fill="none" stroke="url(#color-56)" stroke-linecap="round"/></g><g stroke-width="0.25"><path d="M259.86602,175.72623v-2.46093h4.46438v2.46093z" fill="url(#color-57)" stroke="url(#color-58)" stroke-linecap="butt"/><path d="M260.09854,173.52434h3.96834" fill="none" stroke="url(#color-59)" stroke-linecap="round"/><path d="M260.11404,175.48157h3.90633" fill="none" stroke="url(#color-60)" stroke-linecap="round"/></g><text transform="translate(201.08,170.56883) scale(0.21667,0.21667)" font-size="40" xml:space="preserve" fill="#ff0000" fill-rule="nonzero" stroke="none" stroke-width="1" stroke-linecap="butt" stroke-linejoin="miter" stroke-miterlimit="10" stroke-dasharray="" stroke-dashoffset="0" font-family="Serif" font-weight="normal" text-anchor="start" style="mix-blend-mode: normal"><tspan x="0" dy="0">Drone Ships</tspan></text><text transform="translate(200.3,195.63118) scale(0.12749,0.12749)" font-size="40" xml:space="preserve" fill="#ff0000" fill-rule="nonzero" stroke="none" stroke-width="1" stroke-linecap="butt" stroke-linejoin="miter" stroke-miterlimit="10" stroke-dasharray="" stroke-dashoffset="0" font-family="Serif" font-weight="normal" text-anchor="start" style="mix-blend-mode: normal"><tspan x="0" dy="0">10k R</tspan></text></g></g></svg>