<svg version="1.1" xmlns="http://www.w3.org/2000/svg" xmlns:xlink="http://www.w3.org/1999/xlink" width="59" height="59.70662" viewBox="0,0,59,59.70662"><defs><linearGradient x1="270" y1="151.64674" x2="270" y2="208.35337" gradientUnits="userSpaceOnUse" id="color-1"><stop offset="0" stop-color="#191919"/><stop offset="1" stop-color="#050505"/></linearGradient><linearGradient x1="270" y1="151.64674" x2="270" y2="208.35337" gradientUnits="userSpaceOnUse" id="color-2"><stop offset="0" stop-color="#cccccc"/><stop offset="1" stop-color="#898989"/></linearGradient><radialGradient cx="270" cy="180.00006" r="26.8571" gradientUnits="userSpaceOnUse" id="color-3"><stop offset="0" stop-color="#ffffff" stop-opacity="0.35484"/><stop offset="1" stop-color="#ffffff" stop-opacity="0"/></radialGradient><linearGradient x1="270" y1="153.29215" x2="270" y2="206.70795" gradientUnits="userSpaceOnUse" id="color-4"><stop offset="0" stop-color="#cccccc"/><stop offset="1" stop-color="#898989"/></linearGradient><linearGradient x1="269.91092" y1="168.87574" x2="269.91092" y2="191.16192" gradientUnits="userSpaceOnUse" id="color-5"><stop offset="0" stop-color="#8fbaba"/><stop offset="1" stop-color="#6c9eab"/></linearGradient><linearGradient x1="249.4252" y1="180.01883" x2="290.39659" y2="180.01883" gradientUnits="userSpaceOnUse" id="color-6"><stop offset="0" stop-color="#b6cddb"/><stop offset="1" stop-color="#abc5cf"/></linearGradient><linearGradient x1="257.04048" y1="179.99492" x2="257.92331" y2="179.99492" gradientUnits="userSpaceOnUse" id="color-7"><stop offset="0" stop-color="#21201f"/><stop offset="1" stop-color="#0e0e0e"/></linearGradient><linearGradient x1="281.89003" y1="179.90584" x2="282.77288" y2="179.90584" gradientUnits="userSpaceOnUse" id="color-8"><stop offset="0" stop-color="#21201f"/><stop offset="1" stop-color="#0e0e0e"/></linearGradient><linearGradient x1="251.20351" y1="180.00978" x2="288.78928" y2="180.00978" gradientUnits="userSpaceOnUse" id="color-9"><stop offset="0" stop-color="#21201f"/><stop offset="1" stop-color="#0e0e0e"/></linearGradient></defs><g transform="translate(-240.5,-150.14675)"><g data-paper-data="{&quot;isPaintingLayer&quot;:true}" fill-rule="nonzero" stroke-linejoin="miter" stroke-miterlimit="10" stroke-dasharray="" stroke-dashoffset="0" style="mix-blend-mode: normal"><path d="M242,208.35337v-56.70662h56v56.70662z" fill="url(#color-1)" stroke="url(#color-2)" stroke-width="3" stroke-linecap="butt"/><path d="M296.8571,180.00006c0,14.75036 -12.02433,26.70789 -26.8571,26.70789c-14.83277,0 -26.8571,-11.95753 -26.8571,-26.70789c0,-14.75036 12.02433,-26.70789 26.8571,-26.70789c14.83277,0 26.8571,11.95753 26.8571,26.70789z" fill="url(#color-3)" stroke="url(#color-4)" stroke-width="0" stroke-linecap="butt"/><g><path d="M249.4252,191.16192l-1.78134,-2.53333l1.78134,-2.85014l-2.13759,-3.20641l2.13759,-2.85012l-2.13759,-2.85014l2.13759,-2.85013l-2.13759,-2.67201l2.13759,-2.47395c0,0 1.47916,0.12417 1.79161,-0.18821c0.33872,-0.33866 1.59333,-1.94938 1.59333,-1.94938l34.00488,-0.03765c0,0 1.42796,1.71103 1.85516,2.10905c0.319,0.29722 1.72649,0.06619 1.72649,0.06619l2.31572,2.83022l-2.31572,2.672l2.31572,2.67201l-2.31572,3.02826l2.31572,2.85014l-2.31572,2.85014l2.13759,3.02826l-2.13759,2.35519c0,0 -1.40406,-0.16164 -1.74204,0.19468c-0.32793,0.34571 -1.32539,1.91238 -1.32539,1.91238l-35.05349,0.03053c0,0 -0.65552,-1.36794 -0.99952,-1.71188c-0.36715,-0.36709 -1.85101,-0.42572 -1.85101,-0.42572z" fill="url(#color-5)" stroke="url(#color-6)" stroke-width="0.5" stroke-linecap="butt"/><path d="M257.7491,190.05943l0.17813,-19.77277" fill="none" stroke="url(#color-7)" stroke-width="0.5" stroke-linecap="round"/><path d="M282.15331,170.46479v19.23838" fill="none" stroke="url(#color-8)" stroke-width="0.5" stroke-linecap="round"/><path d="M288.78928,180.00978c0.1009,10.2206 -0.59902,10.23302 -18.79289,10.23302c-18.56602,0 -18.79289,0.386 -18.79289,-10.23302c0,-10.22162 -0.14592,-10.12518 18.79289,-10.23301c19.12372,-0.10889 18.69001,-0.18862 18.79289,10.23301z" fill="none" stroke="url(#color-9)" stroke-width="0.5" stroke-linecap="butt"/><text transform="translate(259.37987,179.19733) scale(0.16203,0.16203)" font-size="40" xml:space="preserve" fill="#000000" fill-rule="nonzero" stroke="none" stroke-width="1" stroke-linecap="butt" stroke-linejoin="miter" stroke-miterlimit="10" stroke-dasharray="" stroke-dashoffset="0" font-family="Serif" font-weight="normal" text-anchor="start" style="mix-blend-mode: normal"><tspan x="0" dy="0">ADMIT</tspan></text><text transform="translate(263.72727,184.54134) scale(0.16203,0.16203)" font-size="40" xml:space="preserve" fill="#000000" fill-rule="nonzero" stroke="none" stroke-width="1" stroke-linecap="butt" stroke-linejoin="miter" stroke-miterlimit="10" stroke-dasharray="" stroke-dashoffset="0" font-family="Serif" font-weight="normal" text-anchor="start" style="mix-blend-mode: normal"><tspan x="0" dy="0">TEN</tspan></text></g><path d="M245.06972,162.22182v-7.06998h22.78327v7.06998z" fill-opacity="0.53453" fill="#000000" stroke="#a60000" stroke-width="0" stroke-linecap="butt"/><text transform="translate(245.50356,160.75252) scale(0.18022,0.18022)" font-size="40" xml:space="preserve" fill="#ffffff" fill-rule="nonzero" stroke="#000000" stroke-width="0" stroke-linecap="butt" stroke-linejoin="miter" stroke-miterlimit="10" stroke-dasharray="" stroke-dashoffset="0" font-family="Serif" font-weight="normal" text-anchor="start" style="mix-blend-mode: normal"><tspan x="0" dy="0">Worker</tspan></text><path d="M245.06973,168.32922v-7.06998h19.32241v7.06998z" fill-opacity="0.53453" fill="#000000" stroke="#a60000" stroke-width="0" stroke-linecap="butt"/><text transform="translate(245.50357,166.85994) scale(0.18022,0.18022)" font-size="40" xml:space="preserve" fill="#ffffff" fill-rule="nonzero" stroke="#000000" stroke-width="0" stroke-linecap="butt" stroke-linejoin="miter" stroke-miterlimit="10" stroke-dasharray="" stroke-dashoffset="0" font-family="Serif" font-weight="normal" text-anchor="start" style="mix-blend-mode: normal"><tspan x="0" dy="0">Ticket</tspan></text><path d="M245.06973,175.90063v-7.64141h16.60812v7.64141z" fill-opacity="0.53453" fill="#000000" stroke="#a60000" stroke-width="0" stroke-linecap="butt"/><text transform="translate(245.50357,173.85993) scale(0.18022,0.18022)" font-size="40" xml:space="preserve" fill="#ffffff" fill-rule="nonzero" stroke="#000000" stroke-width="0" stroke-linecap="butt" stroke-linejoin="miter" stroke-miterlimit="10" stroke-dasharray="" stroke-dashoffset="0" font-family="Serif" font-weight="normal" text-anchor="start" style="mix-blend-mode: normal"><tspan x="0" dy="0">(x10)</tspan></text></g></g></svg>