<svg version="1.1" xmlns="http://www.w3.org/2000/svg" xmlns:xlink="http://www.w3.org/1999/xlink" width="10.58621" height="10.47496" viewBox="0,0,10.58621,10.47496"><defs><radialGradient cx="271.45099" cy="179.10882" r="5.22319" gradientUnits="userSpaceOnUse" id="color-1"><stop offset="0" stop-color="#797979"/><stop offset="1" stop-color="#727272"/></radialGradient><radialGradient cx="267.99497" cy="181.02333" r="4.2905" gradientUnits="userSpaceOnUse" id="color-2"><stop offset="0" stop-color="#6e6e6e" stop-opacity="0.74902"/><stop offset="1" stop-color="#424242" stop-opacity="0.77647"/></radialGradient><radialGradient cx="272.186" cy="180.5942" r="2.60323" gradientUnits="userSpaceOnUse" id="color-3"><stop offset="0" stop-color="#595959" stop-opacity="0.74902"/><stop offset="1" stop-color="#4d4d4d" stop-opacity="0.74902"/></radialGradient><radialGradient cx="271.67923" cy="177.3056" r="3.12" gradientUnits="userSpaceOnUse" id="color-4"><stop offset="0" stop-color="#626262" stop-opacity="0.74902"/><stop offset="1" stop-color="#4a4a4a" stop-opacity="0.83137"/></radialGradient><radialGradient cx="267.7037" cy="178.83678" r="4.62696" gradientUnits="userSpaceOnUse" id="color-5"><stop offset="0" stop-color="#2d2d2d" stop-opacity="0.96078"/><stop offset="1" stop-color="#3b3b3b" stop-opacity="0.94902"/></radialGradient><linearGradient x1="264.76252" y1="180" x2="275.23748" y2="180" gradientUnits="userSpaceOnUse" id="color-6"><stop offset="0" stop-color="#0f0f0f"/><stop offset="1" stop-color="#0f0f0f" stop-opacity="0"/></linearGradient></defs><g transform="translate(-264.76252,-174.76252)"><g data-paper-data="{&quot;isPaintingLayer&quot;:true}" fill-rule="nonzero" stroke-linecap="butt" stroke-linejoin="miter" stroke-miterlimit="10" stroke-dasharray="" stroke-dashoffset="0" style="mix-blend-mode: normal"><path d="M264.81753,180.65086c-0.35944,-2.8622 1.66944,-5.47387 4.53165,-5.83332c2.8622,-0.35944 5.47387,1.66944 5.83332,4.53165c0.35944,2.8622 -1.66944,5.47387 -4.53165,5.83332c-2.8622,0.35944 -5.47387,-1.66944 -5.83332,-4.53165z" fill="url(#color-1)" stroke="none" stroke-width="0.5"/><path d="M270.65809,184.75851c0.03148,0.25063 -0.21917,0.28211 -0.21917,0.28211l-0.07786,0.00852c-0.71767,0.01813 -1.54224,-0.0679 -1.72494,-0.87314c-0.10585,0.15231 -0.5846,-0.54806 -0.5846,-0.54806c-0.50551,-0.19974 -0.33504,-0.67091 -0.7144,-0.76547c-0.72858,-0.18159 -0.85832,0.32126 -1.0505,0.1172c-0.20618,-0.21894 -0.36328,-0.2199 -0.43625,-0.56188c-0.08146,-0.38182 -0.26071,-0.69352 -0.44436,-1.11879c-0.08985,-0.20808 0.16009,-0.53042 0.02209,-0.77368c-0.07275,-0.13173 -0.24901,-0.58122 -0.2102,-0.87638c0.04152,-0.31568 0.30225,-0.48581 0.34408,-0.89032c0.02373,-0.22951 -0.11865,-0.51997 -0.08659,-0.7379c0.11641,-0.79133 0.50406,-1.34116 1.19205,-0.99326c0.67944,0.34359 -0.12622,1.40729 0.84768,1.98233c0.3416,0.46566 0.11492,0.69776 0.25238,1.14523c0.10444,0.34 0.77685,-0.14269 1.05413,0.24073c0.37828,0.5231 -1.23302,2.5973 0.41362,1.79917c0.09371,-0.19661 0.1896,-0.38084 0.28117,-0.53674c-0.03889,-0.73826 -0.03603,-2.17926 0.89176,-0.79186c0.98649,1.4752 -1.83741,1.94539 -1.29796,3.11164c0.0276,0.61674 0.77974,0.57769 1.23806,0.56611l0.02767,-0.00473c0,0 0.25064,-0.03148 0.28212,0.21916z" fill="url(#color-2)" stroke="none" stroke-width="0.5"/><path d="M270.87844,179.51778c-0.78308,-0.83605 -1.03458,-1.81838 0.59568,-1.08323c0.58078,0.50115 1.49092,0.66301 1.96222,1.17197c0.49846,0.53831 0.95627,3.42069 -0.49401,3.51442c-0.5847,-0.09558 -0.79363,-0.92315 -0.97173,-1.48821c-0.26089,-0.82771 -2.23888,-0.6308 -1.09215,-2.11495z" fill="url(#color-3)" stroke="none" stroke-width="0.5"/><path d="M269.11981,175.11819l0.07411,-0.00931c0.01016,-0.00185 0.02092,-0.00328 0.03213,-0.00403l0.10264,-0.01289c1.33117,-0.16565 2.38976,0.19263 3.3179,0.96185c1.11175,0.28269 1.24905,2.57068 2.19628,2.84967l0.11049,0.06474c0,0 0.19743,0.15336 0.04405,0.35079c-0.13646,0.17564 -0.30777,0.07363 -0.34391,0.04898c-0.79205,-0.25615 -0.55132,-0.52406 -0.56638,-1.12768c-0.00875,-0.35067 -1.05687,-0.37799 -1.17276,-0.58352c-0.09431,-0.16723 -0.02318,-0.49385 -0.02664,-0.7609c-0.08761,-0.01499 -0.14904,-0.07855 -0.14904,-0.07855c-0.10959,-0.11504 -0.22136,-0.22281 -0.33562,-0.32308c-0.05141,0.0098 -0.10811,0.02428 -0.17059,0.0439c-0.20887,0.17365 -5.60001,0.15884 -3.30801,-1.29063c0.05712,-0.11199 0.19535,-0.12936 0.19535,-0.12936z" fill="url(#color-4)" stroke="none" stroke-width="0.5"/><path d="M271.44267,179.39746c-0.00017,0.00038 -0.00035,0.00076 -0.00052,0.00114l0.00076,0.00278c0.81782,0.25358 0.44189,1.70948 -0.30257,0.97163c-0.07564,0.19682 -0.19312,0.33675 -0.46089,0.40129l0.02464,0.08253l-0.30226,0.09023c-0.01437,0.00457 -0.02936,0.0079 -0.04487,0.00985c-0.13699,0.0172 -0.262,-0.07991 -0.2792,-0.2169c-0.01295,-0.10313 0.03887,-0.19946 0.12373,-0.24812l0.1776,-0.10723c0.19547,-0.3073 -0.06358,-0.58744 0.35658,-0.92887c0,0 0.08596,-0.06294 0.18674,-0.05053c0.00068,-0.00147 0.00136,-0.00291 0.00203,-0.00434l-0.05618,-0.20553c-0.00364,-0.01254 -0.00635,-0.02555 -0.00803,-0.03891c-0.0172,-0.13699 0.07991,-0.262 0.2169,-0.2792c0.12193,-0.01531 0.23435,0.05994 0.26974,0.17325l0.08354,0.25016l-0.01377,0.0046l0.02476,0.09057z" fill-opacity="0.74902" fill="#696969" stroke="none" stroke-width="0.5"/><path d="M271.17181,176.38849c0.70096,-0.96519 1.16118,1.42365 -0.17005,1.59629c-1.08358,0.14052 -0.73325,-1.45493 0.08046,-1.60125c0,0 0.03984,-0.005 0.08959,0.00497z" fill-opacity="0.74902" fill="#696969" stroke="none" stroke-width="0.5"/><path d="M268.63858,175.87785c0.77245,0.28625 0.35203,0.45826 -0.17276,0.48046c-0.05057,0.02257 -0.12324,0.03885 -0.19821,0.00128c-0.63236,-0.01841 -1.2216,-0.25314 0.04061,-0.76328c0,0 0.23713,-0.07919 0.31632,0.15794c0.01578,0.04727 0.01901,0.08827 0.01403,0.1236z" fill-opacity="0.74902" fill="#696969" stroke="none" stroke-width="0.5"/><path d="M268.70163,180.38454c-0.13487,0.21051 -0.34537,0.07563 -0.34537,0.07563l-0.09368,-0.07761c-0.27298,-0.0764 -1.33721,-1.79056 -1.30229,-1.9894c0,0 0.05549,-0.24376 0.29925,-0.18828c0.24376,0.05549 0.18827,0.29925 0.18827,0.29925c-0.16805,0.50581 0.25975,0.08967 0.5693,0.35382c0.45362,0.38709 -0.18354,0.96682 0.35645,1.03707l0.25244,0.14415c0,0 0.2105,0.13486 0.07563,0.34537z" fill="#6f6f6f" stroke="none" stroke-width="0.5"/><path d="M265.95739,180.93754c-0.00347,-0.00987 -0.00697,-0.01974 -0.01052,-0.0296l-0.1869,-0.19335c-0.0244,-0.00738 -0.04608,-0.01546 -0.06421,-0.02434c-0.44248,-0.21646 -0.38443,-0.67252 -0.36959,-1.06588c0,0 0.01004,-0.2498 0.25984,-0.23975c0.2498,0.01005 0.23975,0.25985 0.23975,0.25985c-0.01858,0.43115 0.75967,0.48546 0.96156,0.86686c0.29196,0.55156 -0.3657,0.6554 -0.3433,1.29243l-0.00039,0.00114h0.00042l0.00661,0.26162c0.0048,0.12811 -0.0891,0.24085 -0.2187,0.25712c-0.10521,0.01321 -0.20335,-0.041 -0.25102,-0.12892l-0.16702,-0.2919l0.09183,-0.05254c-0.23817,-0.46094 -0.0423,-0.78504 0.05165,-0.91274zM266.46714,180.78996c-0.02151,-0.00036 -0.05676,-0.00116 -0.1009,-0.0028c0.00208,0.00197 0.00414,0.00396 0.00618,0.00595c0.02177,-0.00212 0.0446,-0.00322 0.06853,-0.0032c0.01046,0.00001 0.01915,0.00003 0.02617,0.00006z" fill-opacity="0.74902" fill="#797979" stroke="none" stroke-width="0.5"/><path d="M274.29228,181.47201c0.01195,0.12864 0.01216,0.26254 -0.01155,0.41024l0.06884,0.01157l-0.04462,0.26541c-0.0157,0.10862 -0.10216,0.19781 -0.21632,0.21215c-0.08218,0.01032 -0.16006,-0.0205 -0.21293,-0.07639l-0.18088,-0.18712l0.03422,-0.03308l-0.09324,-0.06655c0.08138,-0.83286 -0.75564,-1.45341 -0.0438,-2.17634c0,0 0.14878,-0.14382 0.30646,-0.0344c0.12616,-0.00238 0.23637,0.09082 0.25244,0.21883l0.03279,0.26111l-0.01471,0.00185l0.01666,0.02869c-0.00828,0.07081 -0.0125,0.13824 -0.01355,0.20291c0.12493,0.18296 0.17149,0.43394 0.20471,0.6706l-0.01916,0.16166c0,0 -0.01415,0.07095 -0.06539,0.1289z" fill="#6f6f6f" stroke="none" stroke-width="0.5"/><path d="M273.42086,183.22486c0.06281,-0.04326 0.17882,-0.09061 0.30412,0.02085c0.18679,0.16616 0.02062,0.35295 0.02062,0.35295c-0.28483,0.31978 -0.55922,0.56868 -0.94171,0.76616l-0.20299,0.14864c-0.0339,0.02584 -0.07486,0.04333 -0.12021,0.04902c-0.13699,0.0172 -0.262,-0.07991 -0.2792,-0.2169c-0.00523,-0.04166 0.00011,-0.08221 0.01393,-0.11896l0.11565,-0.32827l0.09003,0.03172c0.11927,-0.28672 0.33961,-0.38388 0.8171,-0.54525l0.07605,-0.10012c0,0 0.04301,-0.03969 0.10662,-0.05984z" fill-opacity="0.74902" fill="#696969" stroke="none" stroke-width="0.5"/><path d="M272.67637,176.61341c0.47092,0.46239 -0.27404,0.87593 -0.11471,1.37503c0.15792,0.49465 1.1228,0.03442 1.5058,0.38423c0.32359,0.60924 1.66581,1.11756 0.948,2.22092c-0.08874,0.1364 -2.52588,-0.57238 -1.65674,-0.06183c1.68784,0.54822 0.42065,2.34225 -0.35256,1.84103c-0.43333,-0.28089 -0.26588,-2.34705 -0.50061,-2.37279c-1.09775,-0.52902 -0.3614,-0.77418 -0.07341,-1.42658c0.00712,-0.01611 -0.18224,-0.10288 -0.40806,-0.20318c0.11195,0.53895 -0.47251,0.55014 -0.84092,0.26748c-0.00133,-0.00103 -0.00499,-0.00371 -0.01071,-0.00782c-0.02252,0.24072 -0.54788,0.25275 -0.59193,0.50596c-0.0059,0.03391 -0.35816,0.42592 -0.1901,0.88883c0.08308,0.22884 0.33711,0.39797 0.52732,0.61223c0.29536,0.3327 0.53227,0.68028 0.47336,0.80377c-0.03197,0.06701 -0.55663,0.32086 -0.93823,0.25114c-0.23115,-0.04223 -0.33358,-0.33651 -0.46033,-0.4814c-0.11069,-0.26036 -1.17923,1.76951 -1.16584,0.38182c0.0009,-0.09275 0.16206,-0.22985 0.17401,-0.35347c-0.07226,0.07928 -0.27697,-0.45651 -0.65907,-0.3778c-0.18845,0.03882 -0.19098,0.98939 -0.26962,1.00699c-0.98989,0.2217 -0.60169,-0.54933 -0.49639,-0.71548c-0.23037,0.02992 -0.89322,0.03858 -0.94701,-0.19459c-0.09437,-0.51708 -0.59127,-1.02925 -0.78478,-1.53354c-0.08868,-0.23111 0.10784,-0.43207 0.05058,-0.65804c-0.06644,-0.26221 -0.13133,-0.41397 -0.16087,-0.66961c-0.08334,-0.72126 0.07276,-1.51538 0.94442,-2.11311c0.49527,-0.10256 0.9671,0.17976 1.13567,0.43939c0.08129,-0.05889 -0.01702,0.12865 0.09819,0.23573c0.09569,0.08893 0.40926,0.1005 0.44981,0.06898c0.32151,-0.24987 0.40616,-0.79443 0.73505,-1.07481c0.385,-0.3282 1.0212,-0.3677 1.50595,-0.25294c0.98605,0.65833 0.02299,0.91264 -0.22857,1.51177c-0.07696,0.18331 0.0114,0.568 0.02143,0.79451c0.18919,-0.01735 0.48424,-0.00035 0.76864,0.05494c-0.14556,-0.49692 0.2782,-0.99996 0.7377,-1.30849c0.00233,-0.00498 0.00482,-0.01002 0.0075,-0.01511c0.06711,-0.12766 0.16903,-0.14264 0.24317,-0.13252c0.09982,-0.05075 0.19672,-0.09039 0.28502,-0.11677c0,0 0.23955,-0.06896 0.30857,0.17133c0.03681,0.12814 -0.01415,0.20756 -0.06972,0.25378z" fill="url(#color-5)" stroke-opacity="0.12941" stroke="#000000" stroke-width="0.25"/><path d="M273.65958,176.78031c0.05778,-0.03813 0.11898,-0.04581 0.11898,-0.04581l0.24637,0.08125c1.03948,1.24311 -0.83537,1.65755 -0.50793,0.14396c0,0 0.02996,-0.13163 0.14258,-0.17941z" fill-opacity="0.74902" fill="#818181" stroke="none" stroke-width="0.5"/><path d="M268.4959,178.57428c0.13509,-0.10601 0.25022,-0.04641 0.30906,0.00131c0.95217,-0.38756 1.19605,0.6755 0.53613,0.73934c0.01273,0.07536 0.00605,0.1984 -0.1455,0.26543c-0.22864,0.10111 -0.32975,-0.12753 -0.32975,-0.12753c-0.04026,-0.10054 -0.09394,-0.20385 -0.17667,-0.27357l-0.21839,-0.0367c-0.10862,-0.01569 -0.19781,-0.10216 -0.21215,-0.21632c-0.01482,-0.11797 0.05513,-0.22704 0.16232,-0.26605c0.01561,-0.02907 0.03961,-0.05817 0.07494,-0.08589z" fill-opacity="0.12941" fill="#b0b0b0" stroke="none" stroke-width="0.5"/><path d="M267.6921,178.53322c-0.24805,0.03115 -0.2792,-0.2169 -0.2792,-0.2169l-0.00515,-0.05095c-0.00149,-0.0623 -0.00417,-0.12461 -0.00802,-0.18685l-0.05226,-0.02982c0,0 -0.21713,-0.12391 -0.09322,-0.34104c0.04519,-0.07921 0.1028,-0.11303 0.15774,-0.12404c0.03125,-0.04652 0.08457,-0.08674 0.17506,-0.09811c0.24805,-0.03115 0.2792,0.2169 0.2792,0.2169c0.00344,0.02764 0.00668,0.05532 0.0097,0.08302c0.05509,0.05292 0.12351,0.15609 0.04111,0.30048c-0.00487,0.00854 -0.00989,0.01655 -0.01504,0.02407c0.00246,0.04757 0.0043,0.09517 0.00556,0.14276l0.00141,0.00127c0,0 0.03115,0.24805 -0.2169,0.2792z" fill-opacity="0.12941" fill="#b0b0b0" stroke="none" stroke-width="0.5"/><path d="M268.3806,179.85511c-0.06173,0.05967 -0.12274,0.07765 -0.17626,0.07554c-0.16273,0.16427 -0.33987,0.00668 -0.33987,0.00668c-0.04509,-0.04445 -0.09018,-0.08891 -0.13526,-0.13336l-0.23447,-0.03336c-0.11134,-0.01329 -0.20361,-0.10083 -0.21821,-0.21712c-0.01434,-0.11416 0.0507,-0.22 0.15207,-0.26206l0.24613,-0.10886l0.05125,0.11591l0.00115,0.00016c0.14241,-0.04815 0.28984,-0.0646 0.42703,-0.0259l0.23244,0.22887c0,0 0.17375,0.17975 -0.006,0.3535z" fill-opacity="0.12941" fill="#b0b0b0" stroke="none" stroke-width="0.5"/><path d="M273.17651,181.71978c-0.14769,-0.20171 0.05401,-0.3494 0.05401,-0.3494l0.13206,-0.04574c-0.03067,-0.07366 -0.0348,-0.18964 -0.02018,-0.30753c-0.08283,-0.02753 -0.13371,-0.09703 -0.13371,-0.09703c-0.74855,-1.21542 1.15614,-0.95231 1.12726,-0.26423c-0.01375,0.32742 -0.54669,0.51854 -0.5049,0.84358l-0.30514,0.27439c0,0 -0.20171,0.14769 -0.3494,-0.05401z" fill-opacity="0.12941" fill="#b0b0b0" stroke="none" stroke-width="0.5"/><path d="M271.84877,178.52034c0.01768,-0.14656 0.11147,-0.19615 0.18532,-0.21217c-0.32758,-0.21068 -0.66767,-0.55098 -0.29168,-0.8528c0.14874,-0.11939 0.61969,0.2081 0.83532,0.57571c0.05432,0.02326 0.20779,0.10815 0.14621,0.30602c-0.01021,0.03278 -0.0235,0.05965 -0.03885,0.08163c-0.01933,0.1769 -0.15953,0.32646 -0.49849,0.39388l-0.11956,-0.01414c0,0 -0.24819,-0.02994 -0.21826,-0.27813z" fill-opacity="0.12941" fill="#b0b0b0" stroke="none" stroke-width="0.5"/><path d="M270.28267,177.16054c-0.17972,-0.03101 -0.15036,-0.21191 -0.15036,-0.21191c0.0157,-0.09179 0.03449,-0.19522 0.09101,-0.26809l-0.0885,-0.06285c-0.07446,-0.05092 -0.1024,-0.15002 -0.0618,-0.23358c0.04468,-0.09194 0.15544,-0.13026 0.24738,-0.08558l0.10109,0.04913c0.20453,-0.01142 0.42656,-0.00268 0.52223,0.11654c0.35928,0.44773 -0.24929,0.44522 -0.02915,0.83867l-0.00345,0.0304l0.00983,-0.00135l0.02816,0.20631c0.00542,0.03575 0.00043,0.07347 -0.01657,0.10845c-0.04468,0.09194 -0.15544,0.13025 -0.24739,0.08557c-0.00635,-0.00308 -0.01245,-0.00649 -0.01828,-0.01018l-0.16462,-0.10138l0.04123,-0.06694c-0.09604,-0.07206 -0.17739,-0.16076 -0.22832,-0.26444z" fill-opacity="0.12941" fill="#b0b0b0" stroke="none" stroke-width="0.5"/><path d="M269.60757,181.69837c-0.06571,0.17491 -0.26631,0.14636 -0.26631,0.14636c-0.63441,-0.23454 -0.4679,-1.37029 0.29482,-1.34165c0.79099,0.0297 0.66575,0.93211 0.09041,1.16464z" fill-opacity="0.12941" fill="#b0b0b0" stroke="none" stroke-width="0.5"/><path d="M270.24944,183.56467c-0.03971,0.01602 -0.07725,0.03027 -0.11285,0.04277l0.00668,0.19466c0.00587,0.12894 -0.08833,0.24281 -0.21862,0.25917c-0.12333,0.01549 -0.23695,-0.06168 -0.27094,-0.17718l-0.01858,-0.05906c-0.00839,-0.0039 -0.01693,-0.00831 -0.0256,-0.01326c-0.10846,-0.0619 -0.13183,-0.14704 -0.12805,-0.21677l-0.27559,-0.1083c-0.08463,-0.03137 -0.14933,-0.10763 -0.16135,-0.20338c-0.0172,-0.13699 0.07991,-0.262 0.2169,-0.2792c0.01551,-0.00195 0.03085,-0.00242 0.04591,-0.00155l0.31518,0.01269l-0.00072,0.01793l0.04308,-0.01258c0.06957,0.0421 0.13258,0.10511 0.18322,0.17916c0.02765,-0.00625 0.05446,-0.0141 0.07949,-0.0252l-0.04134,-0.06719l0.26624,-0.16381c0.03056,-0.01974 0.06591,-0.0331 0.10443,-0.03794c0.13699,-0.0172 0.262,0.07991 0.2792,0.2169c0.00941,0.07494 -0.01538,0.1463 -0.06221,0.19838l-0.18499,0.20795l-0.01845,-0.01641z" fill-opacity="0.03137" fill="#ffffff" stroke="none" stroke-width="0.5"/><g stroke="none" stroke-width="0.5"><path d="M268.85783,184.52506c-0.17929,-0.17423 -0.00505,-0.35352 -0.00505,-0.35352l0.11984,-0.12328c0.05717,-0.05704 0.11438,-0.1061 0.17112,-0.14796c-0.0785,-0.01 -0.15659,-0.03649 -0.22822,-0.08044c-0.07124,-0.00476 -0.14653,-0.00683 -0.226,-0.00407l-0.01179,-0.00626l-0.00042,0.00568l-0.26304,-0.0191c-0.11855,-0.00626 -0.21926,-0.0966 -0.23457,-0.21853c-0.0172,-0.13699 0.07991,-0.262 0.2169,-0.2792c0.00682,-0.00086 0.01359,-0.00142 0.02032,-0.00173l0.36626,-0.01965l0.00196,0.03655c0.18368,-0.00839 0.32292,-0.03502 0.43636,-0.03936c-0.01364,-0.02636 -0.03145,-0.05767 -0.05356,-0.09481l-0.22252,-0.23708c-0.03601,-0.03747 -0.06068,-0.08643 -0.06766,-0.14196c-0.0172,-0.13699 0.07991,-0.262 0.2169,-0.2792c0.08051,-0.01011 0.15686,0.01925 0.20965,0.073l0.21047,0.21022l-0.00675,0.00675l0.00678,0.00722l0.01945,0.0079c0.03098,0.04994 0.0578,0.09835 0.08072,0.14521c0.00144,0.00046 0.00289,0.00094 0.00433,0.00142c0.0047,-0.17623 0.03532,-0.38814 0.04441,-0.51477l0.00453,-0.00806l-0.00347,-0.00049l0.0415,-0.29168c0.01329,-0.11134 0.10084,-0.20361 0.21712,-0.21821c0.13699,-0.0172 0.262,0.07991 0.2792,0.2169l0.03279,0.26111l-0.06215,0.00781l-0.00047,0.00329c0.04633,0.19497 0.01807,0.34502 0.03102,0.65016c0.0342,0.02257 0.06277,0.05345 0.08255,0.09015c0.16041,-0.15102 0.38982,-0.26031 0.58824,-0.2951c0.08919,-0.06093 0.17351,-0.11477 0.24249,-0.14531l0.24595,-0.10877c0.02319,-0.0109 0.04848,-0.01839 0.07528,-0.02176c0.13699,-0.0172 0.262,0.07991 0.2792,0.2169c0.01337,0.10647 -0.04231,0.20571 -0.1321,0.25271l-0.24289,0.13441l-0.01177,-0.02128l-0.01144,0.00506c-0.10807,0.04777 -0.21231,0.08236 -0.31221,0.10565c-0.24833,0.12557 -0.4519,0.18003 -0.49381,0.23901c0.14069,0.06259 0.28866,0.15059 0.43235,0.25018c0.0407,0.01483 0.08458,0.03058 0.13178,0.04732l0.00445,-0.01042l0.33192,0.14157c0.08117,0.03291 0.14265,0.10758 0.15434,0.20066c0.0172,0.13699 -0.07991,0.262 -0.2169,0.2792c-0.04534,0.00569 -0.08936,-0.00112 -0.1286,-0.01777l-0.24344,-0.09785c-0.05887,-0.02086 -0.11434,-0.04202 -0.16653,-0.06344c-0.26623,0.07666 -0.42708,-0.14056 -0.51052,-0.29304c-0.02448,-0.02124 -0.04665,-0.04253 -0.06665,-0.06383c0.00642,0.0521 0.01786,0.13574 0.03356,0.26074l0.03279,0.26111c0.0172,0.13699 -0.07991,0.262 -0.2169,0.2792c-0.11416,0.01434 -0.22,-0.05071 -0.26206,-0.15207l-0.05773,-0.13054c-0.16217,-0.09046 -0.32973,-0.12947 -0.43876,-0.01998l-0.11503,0.1184c0,0 -0.17423,0.17928 -0.35352,0.00504z" fill-opacity="0.09412" fill="#f5f5f5"/><path d="M269.40721,183.8235c-0.13216,-0.04667 -0.26272,-0.09803 -0.39116,-0.15396l-0.00401,0.00728l-0.31066,-0.17127c-0.069,-0.03699 -0.11964,-0.10573 -0.13013,-0.18932c-0.0172,-0.13699 0.07991,-0.262 0.2169,-0.2792c0.05402,-0.00678 0.10617,0.0042 0.15058,0.02841l0.27555,0.14549c0.00989,0.00436 0.01979,0.0087 0.02972,0.013c0.04496,-0.05047 0.07419,-0.10533 0.06452,-0.16683l-0.05683,-0.24875c-0.00219,-0.00906 -0.0039,-0.01835 -0.00509,-0.02781c-0.0172,-0.13699 0.07991,-0.262 0.2169,-0.2792c0.10238,-0.01286 0.19804,0.03813 0.24704,0.12188l0.02502,0.04065c0.09822,0.01311 0.19076,-0.00332 0.24875,-0.06935l0.01738,-0.00638l-0.00467,-0.0054l0.21274,-0.18394c0.03648,-0.03248 0.08283,-0.05463 0.13495,-0.06117c0.13699,-0.0172 0.262,0.07991 0.2792,0.2169c0.00713,0.05674 -0.00536,0.11143 -0.03217,0.15725l-0.1944,0.34065l-0.05647,-0.03223c-0.00838,0.04889 0.00176,0.08022 0.04255,0.09936c0.02353,0.00381 0.04686,0.00986 0.06971,0.01825c0.05344,0.00754 0.12832,0.00913 0.23022,0.00729l-0.00001,-0.00005l0.26163,-0.00661c0.12811,-0.0048 0.24085,0.0891 0.25713,0.21871c0.0172,0.13699 -0.07991,0.262 -0.2169,0.2792l-0.33944,0.04263l-0.00292,-0.02323c-0.03847,0.0424 -0.04533,0.08652 0.00099,0.13187l0.00671,0.0491l0.01674,-0.0074l0.10877,0.24595c0.0109,0.02319 0.01839,0.04848 0.02176,0.07528c0.0172,0.13699 -0.07991,0.262 -0.2169,0.2792c-0.05212,0.00655 -0.1025,-0.00346 -0.14587,-0.02591l-0.25161,-0.12563l0.0333,-0.0667c-0.17064,-0.05819 -0.31623,-0.10776 -0.34036,-0.09657l-0.09154,0.22774c-0.0318,0.0837 -0.10765,0.14751 -0.20268,0.15945c-0.13699,0.0172 -0.262,-0.07991 -0.2792,-0.2169l-0.03279,-0.2611l0.10935,-0.01373l0.01778,-0.04426c0.00079,-0.04749 0.00413,-0.09518 0.00992,-0.14263z" fill-opacity="0.07059" fill="#ffffff"/><path d="M269.97198,184.22806c-0.17393,-0.03468 -0.19986,-0.16815 -0.20025,-0.24279c-0.27838,0.07643 -0.45516,-0.22808 -0.11295,-0.66846c-0.00021,-0.0015 -0.00041,-0.00298 -0.0006,-0.00448c-0.0172,-0.13699 0.07991,-0.262 0.2169,-0.2792c0.09503,-0.01193 0.1843,0.03114 0.2358,0.10438l0.15443,0.21091c0.02584,0.0339 0.04333,0.07487 0.04902,0.12021c0.01086,0.08644 -0.0238,0.1681 -0.08527,0.22093c0.02945,0.05851 0.04873,0.12288 0.05612,0.18057l-0.01915,0.16166c0,0 -0.04889,0.24517 -0.29406,0.19628z" fill-opacity="0.16863" fill="#ffffff"/></g><path d="M270,185.23748c-2.89258,0 -5.23748,-2.34491 -5.23748,-5.23748c0,-2.89258 2.34491,-5.23748 5.23748,-5.23748c2.89258,0 5.23748,2.34491 5.23748,5.23748c0,2.89258 -2.34491,5.23748 -5.23748,5.23748z" data-paper-data="{&quot;index&quot;:null}" fill="url(#color-6)" stroke="none" stroke-width="0.5"/></g></g></svg>