<svg version="1.1" xmlns="http://www.w3.org/2000/svg" xmlns:xlink="http://www.w3.org/1999/xlink" width="195.88069" height="177.47528" viewBox="0,0,195.88069,177.47528"><defs><radialGradient cx="310.06248" cy="237.95935" r="38.33033" gradientUnits="userSpaceOnUse" id="color-1"><stop offset="0" stop-color="#696969"/><stop offset="1" stop-color="#0a0a0a"/></radialGradient><linearGradient x1="310.06248" y1="200.34215" x2="310.06248" y2="275.57656" gradientUnits="userSpaceOnUse" id="color-2"><stop offset="0" stop-color="#636363"/><stop offset="1" stop-color="#424242"/></linearGradient><linearGradient x1="323.64623" y1="232.36737" x2="328.65865" y2="232.36737" gradientUnits="userSpaceOnUse" id="color-3"><stop offset="0" stop-color="#525252"/><stop offset="1" stop-color="#363636"/></linearGradient><linearGradient x1="323.64623" y1="232.36737" x2="328.65865" y2="232.36737" gradientUnits="userSpaceOnUse" id="color-4"><stop offset="0" stop-color="#1f1f1f"/><stop offset="1" stop-color="#000000"/></linearGradient><linearGradient x1="293.90541" y1="225.58814" x2="298.20613" y2="226.17936" gradientUnits="userSpaceOnUse" id="color-5"><stop offset="0" stop-color="#525252"/><stop offset="1" stop-color="#2e2e2e"/></linearGradient><linearGradient x1="293.90541" y1="225.58814" x2="298.20613" y2="226.17936" gradientUnits="userSpaceOnUse" id="color-6"><stop offset="0" stop-color="#1f1f1f"/><stop offset="1" stop-color="#000000"/></linearGradient><linearGradient x1="279.0083" y1="238.42398" x2="340.86246" y2="238.42398" gradientUnits="userSpaceOnUse" id="color-7"><stop offset="0" stop-color="#b8b8b8"/><stop offset="1" stop-color="#4a4a4a"/></linearGradient><linearGradient x1="279.0083" y1="238.42398" x2="340.86246" y2="238.42398" gradientUnits="userSpaceOnUse" id="color-8"><stop offset="0" stop-color="#1f1f1f"/><stop offset="1" stop-color="#000000"/></linearGradient><linearGradient x1="300.17458" y1="221.44285" x2="319.83871" y2="221.44285" gradientUnits="userSpaceOnUse" id="color-9"><stop offset="0" stop-color="#5d5d5d"/><stop offset="1" stop-color="#232323"/></linearGradient><linearGradient x1="293.81265" y1="234.04196" x2="325.42949" y2="234.04196" gradientUnits="userSpaceOnUse" id="color-10"><stop offset="0" stop-color="#5d5d5d"/><stop offset="1" stop-color="#232323"/></linearGradient><linearGradient x1="288.47579" y1="247.95048" x2="330.92153" y2="247.95048" gradientUnits="userSpaceOnUse" id="color-11"><stop offset="0" stop-color="#5d5d5d"/><stop offset="1" stop-color="#232323"/></linearGradient><linearGradient x1="282.82387" y1="261.80309" x2="336.80385" y2="261.80309" gradientUnits="userSpaceOnUse" id="color-12"><stop offset="0" stop-color="#5d5d5d"/><stop offset="1" stop-color="#232323"/></linearGradient><linearGradient x1="321.47098" y1="215.93336" x2="330.95654" y2="215.93336" gradientUnits="userSpaceOnUse" id="color-13"><stop offset="0" stop-color="#aaaaaa"/><stop offset="1" stop-color="#4e4e4e"/></linearGradient><linearGradient x1="321.47098" y1="215.93336" x2="330.95654" y2="215.93336" gradientUnits="userSpaceOnUse" id="color-14"><stop offset="0" stop-color="#1f1f1f"/><stop offset="1" stop-color="#000000"/></linearGradient><linearGradient x1="330.98401" y1="215.93336" x2="340.46958" y2="215.93336" gradientUnits="userSpaceOnUse" id="color-15"><stop offset="0" stop-color="#aaaaaa"/><stop offset="1" stop-color="#4e4e4e"/></linearGradient><linearGradient x1="330.98401" y1="215.93336" x2="340.46958" y2="215.93336" gradientUnits="userSpaceOnUse" id="color-16"><stop offset="0" stop-color="#1f1f1f"/><stop offset="1" stop-color="#000000"/></linearGradient><linearGradient x1="333.28551" y1="232.60835" x2="338.29794" y2="232.60835" gradientUnits="userSpaceOnUse" id="color-17"><stop offset="0" stop-color="#525252"/><stop offset="1" stop-color="#363636"/></linearGradient><linearGradient x1="333.28551" y1="232.60835" x2="338.29794" y2="232.60835" gradientUnits="userSpaceOnUse" id="color-18"><stop offset="0" stop-color="#1f1f1f"/><stop offset="1" stop-color="#000000"/></linearGradient><linearGradient x1="279.52242" y1="210.85571" x2="341.21382" y2="210.85571" gradientUnits="userSpaceOnUse" id="color-19"><stop offset="0" stop-color="#525252"/><stop offset="1" stop-color="#2e2e2e"/></linearGradient><linearGradient x1="279.52242" y1="210.85571" x2="341.21382" y2="210.85571" gradientUnits="userSpaceOnUse" id="color-20"><stop offset="0" stop-color="#1f1f1f"/><stop offset="1" stop-color="#000000"/></linearGradient></defs><g transform="translate(-269.71931,-160.0288)"><g data-paper-data="{&quot;isPaintingLayer&quot;:true}" fill-rule="nonzero" stroke-linejoin="miter" stroke-miterlimit="10" stroke-dasharray="" stroke-dashoffset="0" style="mix-blend-mode: normal"><text transform="translate(270.03136,187.4892) scale(0.6241,0.6241)" font-size="40" xml:space="preserve" fill="#ffffff" fill-rule="nonzero" stroke="none" stroke-width="1" stroke-linecap="butt" stroke-linejoin="miter" stroke-miterlimit="10" stroke-dasharray="" stroke-dashoffset="0" font-family="Malgun Gothic" font-weight="normal" text-anchor="start" style="mix-blend-mode: normal"><tspan x="0" dy="0">Complex Engine</tspan></text><text transform="translate(354.45435,215.62294) scale(0.45565,0.45565)" font-size="40" xml:space="preserve" fill="#d8d8d8" fill-rule="nonzero" stroke="none" stroke-width="1" stroke-linecap="butt" stroke-linejoin="miter" stroke-miterlimit="10" stroke-dasharray="" stroke-dashoffset="0" font-family="Malgun Gothic" font-weight="normal" text-anchor="start" style="mix-blend-mode: normal"><tspan x="0" dy="0">Obtained by:</tspan></text><text transform="translate(354.45435,256.62748) scale(0.45566,0.45566)" font-size="40" xml:space="preserve" fill="#d8d8d8" fill-rule="nonzero" stroke="none" stroke-width="1" stroke-linecap="butt" stroke-linejoin="miter" stroke-miterlimit="10" stroke-dasharray="" stroke-dashoffset="0" font-family="Malgun Gothic" font-weight="normal" text-anchor="start" style="mix-blend-mode: normal"><tspan x="0" dy="0">Materials:</tspan></text><text transform="translate(271.38374,296.92705) scale(0.45566,0.45566)" font-size="40" xml:space="preserve" fill="#d8d8d8" fill-rule="nonzero" stroke="none" stroke-width="1" stroke-linecap="butt" stroke-linejoin="miter" stroke-miterlimit="10" stroke-dasharray="" stroke-dashoffset="0" font-family="Malgun Gothic" font-weight="normal" text-anchor="start" style="mix-blend-mode: normal"><tspan x="0" dy="0">Description:</tspan></text><text transform="translate(355.17562,233.72207) scale(0.37382,0.37382)" font-size="40" xml:space="preserve" fill="#9f9f9f" fill-rule="nonzero" stroke="none" stroke-width="1" stroke-linecap="butt" stroke-linejoin="miter" stroke-miterlimit="10" stroke-dasharray="" stroke-dashoffset="0" font-family="Malgun Gothic" font-weight="normal" text-anchor="start" style="mix-blend-mode: normal"><tspan x="0" dy="0">VAB; rocket part</tspan></text><path d="M271.73215,275.57656v-75.23442h76.66066v75.23442z" fill="url(#color-1)" stroke="url(#color-2)" stroke-width="3.5" stroke-linecap="butt"/><text transform="translate(271.64329,315.44811) scale(0.37383,0.37383)" font-size="40" xml:space="preserve" fill="#9f9f9f" fill-rule="nonzero" stroke="none" stroke-width="1" stroke-linecap="butt" stroke-linejoin="miter" stroke-miterlimit="10" stroke-dasharray="" stroke-dashoffset="0" font-family="Malgun Gothic" font-weight="normal" text-anchor="start" style="mix-blend-mode: normal"><tspan x="0" dy="0">Allows you to venture to </tspan><tspan x="0" dy="48px">most planets in a system.</tspan></text><text transform="translate(355.17562,275.43973) scale(0.37383,0.37383)" font-size="40" xml:space="preserve" fill="#9f9f9f" fill-rule="nonzero" stroke="none" stroke-width="1" stroke-linecap="butt" stroke-linejoin="miter" stroke-miterlimit="10" stroke-dasharray="" stroke-dashoffset="0" font-family="Malgun Gothic" font-weight="normal" text-anchor="start" style="mix-blend-mode: normal"><tspan x="0" dy="0">Titanium (x250)</tspan></text><path d="M323.64623,240.65715v-16.57956h5.01243v16.57956z" fill="url(#color-3)" stroke="url(#color-4)" stroke-width="1.5" stroke-linecap="butt"/><path d="M291.42066,243.66275l0.64792,-33.69882l10.7121,-2.43942l-7.0593,36.72948z" fill="url(#color-5)" stroke="url(#color-6)" stroke-width="1.5" stroke-linecap="butt"/><path d="M279.0083,269.3523c0,0 23.096,-62.30771 30.93131,-61.85416c8.96343,0.51885 30.92285,61.85416 30.92285,61.85416z" fill="url(#color-7)" stroke="url(#color-8)" stroke-width="1.5" stroke-linecap="butt"/><path d="M300.17458,221.44285h19.66413" fill="none" stroke="url(#color-9)" stroke-width="4.5" stroke-linecap="round"/><path d="M325.42949,234.04196h-31.61684" fill="none" stroke="url(#color-10)" stroke-width="4.5" stroke-linecap="round"/><path d="M288.47579,247.95048h42.44575" fill="none" stroke="url(#color-11)" stroke-width="4.5" stroke-linecap="round"/><path d="M282.82387,261.80309h53.97997" fill="none" stroke="url(#color-12)" stroke-width="4.5" stroke-linecap="round"/><path d="M330.95654,215.93336c-0.03549,7.34372 -0.14786,8.12947 -4.74278,8.05164c-4.59639,-0.07786 -4.79979,-1.07297 -4.74278,-8.05164c0.06295,-7.7049 0.04957,-8.24048 4.74278,-8.05164c4.49671,0.18094 4.78176,-0.01252 4.74278,8.05164z" fill="url(#color-13)" stroke="url(#color-14)" stroke-width="1.5" stroke-linecap="butt"/><path d="M340.46958,215.93336c-0.03549,7.34372 -0.14786,8.12947 -4.74278,8.05164c-4.59639,-0.07786 -4.79979,-1.07297 -4.74278,-8.05164c0.06295,-7.7049 0.04957,-8.24048 4.74278,-8.05164c4.49671,0.18094 4.78176,-0.01252 4.74278,8.05164z" fill="url(#color-15)" stroke="url(#color-16)" stroke-width="1.5" stroke-linecap="butt"/><path d="M328.94783,237.76537c0,0 4.33768,-1.09239 4.33768,-3.5344c0,-2.9776 0,-9.9124 0,-9.9124h5.01243c0,0 0,6.50426 0,9.43044c0,1.09419 -0.94036,3.4047 -2.56333,5.13502c-2.15603,2.29864 -5.1481,3.94196 -5.1481,3.94196z" fill="url(#color-17)" stroke="url(#color-18)" stroke-width="1.5" stroke-linecap="butt"/><path d="M279.52242,207h61.6914c0,0 -0.13924,3.7985 -0.95122,5.16607c-0.69642,1.17291 -3.62743,2.54536 -3.62743,2.54536h-53.01605c0,0 -2.2345,-1.45608 -2.8336,-2.58381c-0.73749,-1.38822 -1.26309,-5.12762 -1.26309,-5.12762z" fill="url(#color-19)" stroke="url(#color-20)" stroke-width="1.5" stroke-linecap="butt"/></g></g></svg>