<svg version="1.1" xmlns="http://www.w3.org/2000/svg" xmlns:xlink="http://www.w3.org/1999/xlink" width="40.68126" height="105.11833" viewBox="0,0,40.68126,105.11833"><defs><radialGradient cx="238.52448" cy="177.75476" r="22.57159" gradientUnits="userSpaceOnUse" id="color-1"><stop offset="0" stop-color="#3c3c3c"/><stop offset="1" stop-color="#939393"/></radialGradient><linearGradient x1="239.74787" y1="156.06832" x2="239.74787" y2="162.91937" gradientUnits="userSpaceOnUse" id="color-2"><stop offset="0" stop-color="#696969"/><stop offset="1" stop-color="#a0a0a0"/></linearGradient><radialGradient cx="235.71182" cy="133.41612" r="13.11833" gradientUnits="userSpaceOnUse" id="color-3"><stop offset="0" stop-color="#dcdcdc"/><stop offset="1" stop-color="#a0a0a0"/></radialGradient><radialGradient cx="241.29951" cy="140.30072" r="9.85359" gradientUnits="userSpaceOnUse" id="color-4"><stop offset="0" stop-color="#c5dfff"/><stop offset="1" stop-color="#219cff"/></radialGradient><radialGradient cx="230.47957" cy="134.03046" r="10.07074" gradientUnits="userSpaceOnUse" id="color-5"><stop offset="0" stop-color="#303030"/><stop offset="1" stop-color="#292929"/></radialGradient><radialGradient cx="246.90767" cy="130.85061" r="2.65078" gradientUnits="userSpaceOnUse" id="color-6"><stop offset="0" stop-color="#787878"/><stop offset="1" stop-color="#292929"/></radialGradient><radialGradient cx="235.75537" cy="133.01564" r="4.17314" gradientUnits="userSpaceOnUse" id="color-7"><stop offset="0" stop-color="#a7a7a7"/><stop offset="1" stop-color="#292929"/></radialGradient></defs><g transform="translate(-222.29585,-129.64767)"><g data-paper-data="{&quot;isPaintingLayer&quot;:true}" fill-rule="nonzero" stroke-linejoin="miter" stroke-miterlimit="10" stroke-dasharray="" stroke-dashoffset="0" style="mix-blend-mode: normal"><path d="M223.55679,200.32636v-45.14319h29.93538v45.14319z" fill="url(#color-1)" stroke="#ed6b00" stroke-width="0" stroke-linecap="butt"/><g stroke="#000000" stroke-width="0" stroke-linecap="butt"><path d="M248.9887,188.75733c0,0 1.00695,-2.84904 1.074,-6.35813c0.01613,-0.84384 0.24548,-3.59328 0.25416,-4.46013c0.02056,-2.05158 -0.02674,-4.08538 0.01443,-5.34346c0.08849,-2.70594 0.27407,-6.1321 0.27407,-6.1321c0,0 0.51922,-6.70508 1.54317,-6.79891c5.98846,-0.54878 4.00493,6.77239 4.00493,6.77239c0,0 -0.19111,4.89599 -0.28521,7.77293c-0.03828,1.17085 -0.62848,2.03653 -0.75348,3.84869c-0.05604,0.81234 -0.75291,4.26282 -1.08692,6.38741c-0.55614,3.53736 -0.54227,5.72743 -0.54227,5.72743z" data-paper-data="{&quot;index&quot;:null}" fill="#bdbdbd"/><path d="M252.77487,194.64342c-0.20001,-0.05859 -0.63553,3.66857 -1.49627,3.48585c-0.42335,-0.08988 0.37727,-2.40972 -0.06943,-3.33099c-0.23644,-0.48766 -0.37056,4.27781 -1.40969,3.6117c-0.35674,-0.22869 0.50217,-3.5626 0.23379,-4.44098c-0.14367,-0.47022 -0.81929,5.15796 -1.52387,4.75745c-0.41828,-0.23774 0.53603,-3.24518 0.46845,-4.68328c-0.03293,-0.7006 -1.01058,3.74024 -1.49677,3.32834c-0.2976,-0.25215 0.4436,-4.63289 0.41545,-4.68868c-0.15819,-0.31355 -1.322,2.21775 -1.47302,1.53348c-0.27833,-1.26111 0.87687,-2.50856 1.82256,-3.70349c0.55254,-0.69815 0.7852,-1.85569 0.7852,-1.85569c0,0 1.6594,-0.19323 2.41861,0.04586c0.73922,0.2328 2.07825,1.37028 2.07825,1.37028c0,0 -0.32957,4.69423 -0.75327,4.57013z" data-paper-data="{&quot;index&quot;:null}" fill="#777777"/></g><g><path d="M247.7086,227.53492c0,0 -3.49859,-25.56172 -4.71434,-29.88358c-0.39753,-1.41319 -3.48886,-1.3028 -3.48886,-1.3028c0,0 -3.28864,-4.04129 0.33259,-4.27424c3.06049,-0.19688 9.94186,1.54763 9.94186,1.54763l5.91536,33.39923z" data-paper-data="{&quot;index&quot;:null}" fill="#494949" stroke="#000000" stroke-width="0" stroke-linecap="butt"/><path d="M261.89159,233.64208c-0.59154,0.03805 -2.63778,0.18336 -4.69895,0.23524c-1.25314,0.03154 -1.93789,-0.4944 -2.87851,-0.57703c-1.18419,-0.10401 -2.91833,0.40866 -3.77811,0.27206c-1.58428,-0.25169 -2.41967,-0.62377 -2.41967,-0.62377c0,0 -0.33438,-1.00601 -0.38681,-1.56419c-0.07063,-0.75203 0.00112,-2.54233 0.00112,-2.54233c0,0 5.91433,-0.50028 8.23731,-0.44897c1.37457,0.03036 4.27335,0.37324 4.27335,0.37324c0,0 1.49627,0.52062 1.73686,0.93325c0.29467,0.50538 0.99893,1.9285 0.99893,1.9285c0,0 -0.26035,1.96091 -1.08554,2.01399z" data-paper-data="{&quot;index&quot;:null}" fill="#141415" stroke="#000000" stroke-width="0" stroke-linecap="butt"/><path d="M261.45597,231.08997c-0.24771,0.01593 0.80377,1.55325 -2.52713,1.49843c-3.14544,-0.05176 -2.84703,-1.00754 -3.95435,-1.01707c-2.31543,-0.01994 -2.54411,0.75992 -3.55154,0.67143c-0.35085,-0.03082 -0.51901,-0.08139 -1.8432,-0.85378c-0.9107,-0.5312 -0.77671,-1.70487 -1.41555,-2.29316c-0.93318,-0.85932 -0.92786,-1.83001 -0.92786,-1.83001l-0.27187,-3.03654c0,0 0.62702,2.17104 1.51715,2.93989c0.79642,0.6879 2.31092,-0.16745 2.79359,-0.19864c0.8452,-0.05461 -0.89723,-3.21708 -0.08797,-3.25086c0.43515,-0.01816 3.70004,-0.47259 3.70004,-0.47259c0,0 0.35258,3.56461 0.58636,3.56977c1.37457,0.03036 4.63636,0.34988 4.63636,0.34988c0,0 1.49627,0.52062 1.73687,0.93325c0.29467,0.50538 0.81919,2.91215 0.81919,2.91215c0,0 -0.3849,0.02476 -1.2101,0.07784z" data-paper-data="{&quot;index&quot;:null}" fill="#252527" stroke="#000000" stroke-width="0" stroke-linecap="butt"/><path d="M253.81263,228.63699l2.59214,-1.26034" fill="none" stroke="#ffffff" stroke-width="0.5" stroke-linecap="round"/><path d="M258.21991,227.25988l-2.44778,1.61558" fill="none" stroke="#ffffff" stroke-width="0.5" stroke-linecap="round"/><path d="M257.96586,228.97736l1.35871,-1.54552" fill="none" stroke="#ffffff" stroke-width="0.5" stroke-linecap="round"/><path d="M252.35344,224.84254l2.16259,-0.38214" fill="none" stroke="#969696" stroke-width="0.5" stroke-linecap="round"/><path d="M254.80476,225.17088l-1.91279,0.48758" fill="none" stroke="#969696" stroke-width="0.5" stroke-linecap="round"/></g><g><path d="M224.83037,227.18734l5.14968,-33.52582c0,0 6.83965,-1.90149 9.90385,-1.77468c3.62562,0.15004 0.4303,4.26551 0.4303,4.26551c0,0 -3.09305,-0.03964 -3.45814,1.38228c-1.11655,4.34854 -4.02941,29.98361 -4.02941,29.98361z" fill="#494949" stroke="#000000" stroke-width="0" stroke-linecap="butt"/><path d="M240.02474,232.8772c0,0 -0.46559,1.92254 -1.29178,1.88835c-0.59225,-0.02451 -2.64241,-0.09568 -4.69757,-0.26135c-1.24948,-0.10072 -1.87498,-0.69591 -2.80165,-0.87722c-1.16663,-0.22826 -2.94513,0.09878 -3.78573,-0.12768c-1.54892,-0.41728 -2.34044,-0.87533 -2.34044,-0.87533c0,0 -0.22649,-1.03564 -0.21979,-1.59625c0.00903,-0.75527 0.26909,-2.52805 0.26909,-2.52805c0,0 5.93411,0.1259 8.23875,0.42177c1.36372,0.17508 4.2102,0.82159 4.2102,0.82159c0,0 1.43305,0.67543 1.62882,1.11113c0.23976,0.53362 0.7901,2.02306 0.7901,2.02306z" data-paper-data="{&quot;index&quot;:null}" fill="#141415" stroke="#000000" stroke-width="0" stroke-linecap="butt"/><path d="M239.78031,232.2319c0,0 -0.38536,-0.01595 -1.21155,-0.05014c-0.24801,-0.01026 0.63556,1.62932 -2.67099,1.22372c-3.12246,-0.38303 -2.72497,-1.30202 -3.82512,-1.42821c-2.30043,-0.26388 -2.61005,0.48753 -3.60254,0.29333c-0.34565,-0.06763 -0.50754,-0.13564 -1.74293,-1.04331c-0.84963,-0.62423 -0.59268,-1.77725 -1.16596,-2.42959c-0.83741,-0.9529 -0.7298,-1.91762 -0.7298,-1.91762l0.04971,-3.04828c0,0 0.39469,2.22504 1.19882,3.08344c0.71948,0.76802 2.31569,0.07707 2.79897,0.09693c0.84624,0.03478 -0.55313,-3.29374 0.25518,-3.24203c0.43464,0.02781 3.72925,-0.07995 3.72925,-0.07995c0,0 -0.02511,3.58191 0.20682,3.61168c1.36371,0.17508 4.57366,0.83663 4.57366,0.83663c0,0 1.43305,0.67543 1.62882,1.11113c0.23977,0.53362 0.50767,2.98227 0.50767,2.98227z" data-paper-data="{&quot;index&quot;:null}" fill="#252527" stroke="#000000" stroke-width="0" stroke-linecap="butt"/><path d="M231.22655,228.93679l2.71055,-0.9801" fill="none" stroke="#ffffff" stroke-width="0.5" stroke-linecap="round"/><path d="M233.15,229.38048l2.60443,-1.34857" fill="none" stroke="#ffffff" stroke-width="0.5" stroke-linecap="round"/><path d="M235.32077,229.71304l1.51404,-1.39371" fill="none" stroke="#ffffff" stroke-width="0.5" stroke-linecap="round"/><path d="M230.17543,225.00968l2.19083,-0.15206" fill="none" stroke="#969696" stroke-width="0.5" stroke-linecap="round"/><path d="M232.57849,225.59457l-1.95353,0.28325" fill="none" stroke="#969696" stroke-width="0.5" stroke-linecap="round"/></g><g stroke-linecap="butt"><path d="M235.91979,162.91937v-6.85104h7.65615v6.85104z" fill="url(#color-2)" stroke="#000000" stroke-width="0"/><path d="M252.80944,143.64573c0,7.73092 -5.73774,13.99807 -12.8156,13.99807c-7.07786,0 -12.8156,-6.26715 -12.8156,-13.99807c0,-7.73092 5.73774,-13.99806 12.8156,-13.99806c7.07786,0 12.8156,6.26714 12.8156,13.99806z" fill="url(#color-3)" stroke="none" stroke-width="0"/><path d="M254.09785,143.02638c0,3.74486 0.0384,8.21376 -9.59547,8.69146c-10.76272,0.53367 -10.10384,-4.9466 -10.10384,-8.69146c0,-3.74486 4.40985,-6.78067 9.84967,-6.78067c5.43982,0 9.84967,3.03581 9.84967,6.78067z" data-paper-data="{&quot;index&quot;:null}" fill="url(#color-4)" stroke="#ed6b00" stroke-width="0"/><path d="M233.16997,134.03999c-0.16984,0.01553 -0.60661,0.06221 -1.07903,0.1438c-0.52185,0.20742 -1.13106,0.41772 -1.59752,0.64771c-0.28909,0.89276 0.78709,1.80702 -0.65422,2.4752c-2.45813,1.13958 -1.71655,-2.03888 -0.89769,-3.03685c1.27069,-1.10653 3.14359,-1.2394 4.75566,-1.549c2.22048,-0.42645 4.38435,-1.08334 6.57971,-1.21737c0.08249,-0.08622 0.19535,-0.14411 0.32353,-0.15569l0.58612,-0.0529c0.29539,-0.07774 0.61637,-0.15861 0.95355,-0.23507c0.87645,-0.27394 1.93099,-0.41625 2.91353,-0.50866c0.4818,-0.09462 0.9333,-0.1389 1.30669,-0.10536c0.27388,-0.02025 0.5286,-0.03932 0.7561,-0.05986l0.61787,-0.05577c0.28142,-0.0254 0.53014,0.18214 0.55554,0.46356c0.0226,0.25047 -0.13931,0.47504 -0.37361,0.53931l-0.32968,0.09745c0.145,0.12181 0.27656,0.26112 0.39244,0.4197l0.23414,-0.11908l0.29765,0.58522c0.03177,0.05903 0.05238,0.12532 0.05879,0.19629c0.0254,0.28142 -0.18214,0.53014 -0.46355,0.55553c-0.08558,0.00772 -0.16814,-0.00609 -0.24232,-0.03698l-0.50702,-0.19878l0.00585,-0.01492l-0.04787,-0.00377c-0.36209,-0.22374 -0.73047,-0.39249 -1.09838,-0.50678c-0.55947,-0.02006 -1.148,-0.08122 -1.74789,-0.1302c-1.01464,0.1745 -1.9334,0.80247 -2.5904,1.87097c0,0 -0.26893,0.43524 -0.70416,0.1663c-0.43523,-0.26893 -0.1663,-0.70417 -0.1663,-0.70417c0.0575,-0.09265 0.11686,-0.18277 0.17799,-0.27034l-0.28392,0.09053c-0.03801,0.01299 -0.07817,0.02169 -0.11996,0.02546c-0.28142,0.0254 -0.53014,-0.18214 -0.55553,-0.46356c-0.01286,-0.14243 0.03395,-0.27647 0.11981,-0.37743c-0.2451,0.00049 -0.4766,0.01384 -0.6735,0.06241c-1.37524,0.33924 -3.48763,0.45199 -5.48058,0.75785c0.01121,0.24126 -0.14794,0.45435 -0.37516,0.51668l-0.59763,0.17665l-0.00571,-0.01931l-0.00747,0.00194z" fill="url(#color-5)" stroke="none" stroke-width="0.5"/><path d="M248.26401,130.30896c2.70896,-0.28418 2.68558,-0.24349 2.90043,1.58673c0.21485,1.83022 -0.78194,3.36186 -2.22639,3.42102c-1.44446,0.05917 -2.7896,-1.37656 -3.00445,-3.20678c-0.21485,-1.83022 -0.20983,-1.53449 2.33041,-1.80097z" data-paper-data="{&quot;index&quot;:null}" fill="url(#color-6)" stroke="#000000" stroke-width="0"/><path d="M241.64399,132.98982c0.35755,1.99142 -1.17444,3.9329 -3.4218,4.33639c-2.24735,0.40349 -4.35904,-0.88377 -4.71659,-2.8752c-0.35755,-1.99142 -0.40888,-2.02662 3.87102,-2.60142c4.01334,-0.53901 3.90982,-0.85119 4.26737,1.14023z" fill="url(#color-7)" stroke="#000000" stroke-width="0"/></g><path d="M229.63979,193.59141c0,0 0.16709,-5.5597 -0.35268,-10.94382c-0.35317,-3.65847 -1.40473,-6.95919 -1.56162,-9.45339c-0.29447,-4.68133 -0.2105,-13.38223 -0.2105,-13.38223c0,0 3.69178,-0.58477 5.4694,-0.21857c2.26281,0.46615 7.00656,2.78867 7.00656,2.78867c0,0 3.67689,-2.17061 5.59031,-2.58687c2.01891,-0.43921 6.22369,0.01677 6.22369,0.01677c0,0 -0.06905,9.21711 -0.22689,12.65629c-0.13965,3.04285 -0.88957,6.36811 -1.18346,10.87293c-0.3029,4.64296 -0.14784,10.42155 -0.14784,10.42155c0,0 -2.75697,-0.76932 -5.57187,-0.83754c-1.27833,-0.03098 -1.79126,1.00612 -2.99851,1.16532c-0.96496,0.12724 -2.63623,-0.61291 -3.56107,-0.64966c-0.69915,-0.02778 -2.04377,-0.5306 -2.53801,-0.53471c-0.99795,-0.0083 -1.61572,0.86529 -2.77345,1.02464c-1.34484,0.1851 -3.1641,-0.33939 -3.1641,-0.33939z" fill="#d0d0d0" stroke="#292e32" stroke-width="0" stroke-linecap="butt"/><path d="M242.73589,170.5071l-0.12126,-5.82045l7.63934,0.36378v5.21415z" fill="#f200ff" stroke="none" stroke-width="0" stroke-linecap="butt"/><g stroke="#000000" stroke-width="0" stroke-linecap="butt"><path d="M225.05782,190.75466c0,0 0.09128,-2.20445 -0.47554,-5.74013c-0.34044,-2.12357 -1.08395,-5.56578 -1.12562,-6.38082c-0.09297,-1.8182 -0.79228,-2.66394 -0.79991,-3.8405c-0.01876,-2.891 -0.08893,-7.80954 -0.08893,-7.80954c0,0 -2.12851,-7.64875 5.52363,-7.39743c1.2216,0.04012 1.32504,7.18544 1.32504,7.18544c0,0 0.1131,3.43971 0.13074,6.15887c0.00819,1.26423 -0.11903,3.31284 -0.16313,5.37645c-0.01863,0.87192 0.17144,3.62878 0.16276,4.47722c-0.03604,3.52826 1.11065,6.3519 1.11065,6.3519z" fill="#bdbdbd"/><path d="M225.86915,195.43428c-0.52693,0.1444 -0.7865,-4.56454 -0.7865,-4.56454c0,0 1.68871,-1.20643 2.60854,-1.47475c0.94474,-0.27559 2.98715,-0.15758 2.98715,-0.15758c0,0 0.2509,1.1542 0.91108,1.83133c1.12995,1.15897 2.51688,2.36113 2.1337,3.64312c-0.20789,0.6956 -1.56517,-1.79822 -1.77027,-1.47538c-0.03649,0.05744 0.74106,4.43196 0.36577,4.69941c-0.6131,0.43692 -1.68064,-3.98718 -1.74328,-3.2806c-0.12857,1.45038 0.95514,4.433 0.43134,4.69153c-0.88239,0.43552 -1.53981,-5.19739 -1.73192,-4.71756c-0.35887,0.89633 0.59683,4.21191 0.14926,4.45849c-1.30369,0.71823 -1.3197,-4.07142 -1.62688,-3.56977c-0.58035,0.94772 0.33521,3.24546 -0.19024,3.3554c-1.06828,0.22354 -1.48899,-3.50729 -1.73773,-3.43913z" data-paper-data="{&quot;index&quot;:null}" fill="#777777"/></g></g></g></svg>