<svg version="1.1" xmlns="http://www.w3.org/2000/svg" xmlns:xlink="http://www.w3.org/1999/xlink" width="1088.77012" height="399.30306" viewBox="0,0,1088.77012,399.30306"><defs><linearGradient x1="535.97969" y1="-27.46955" x2="535.97969" y2="235.53662" gradientUnits="userSpaceOnUse" id="color-1"><stop offset="0" stop-color="#1b34b2" stop-opacity="0"/><stop offset="1" stop-color="#1b34b2" stop-opacity="0.58431"/></linearGradient><linearGradient x1="537.05236" y1="65.37158" x2="537.05236" y2="235.97018" gradientUnits="userSpaceOnUse" id="color-2"><stop offset="0" stop-color="#2159dc" stop-opacity="0"/><stop offset="1" stop-color="#2159dc" stop-opacity="0.78039"/></linearGradient><linearGradient x1="536.17095" y1="139.17058" x2="536.17095" y2="235.5272" gradientUnits="userSpaceOnUse" id="color-3"><stop offset="0" stop-color="#3f7dfc" stop-opacity="0"/><stop offset="1" stop-color="#3f7dfc" stop-opacity="0.58039"/></linearGradient><linearGradient x1="537.42643" y1="217.74921" x2="537.42643" y2="369.58354" gradientUnits="userSpaceOnUse" id="color-4"><stop offset="0" stop-color="#51a2ff"/><stop offset="1" stop-color="#5892e3"/></linearGradient><linearGradient x1="-0.04722" y1="216.85548" x2="46.45656" y2="216.85548" gradientUnits="userSpaceOnUse" id="color-5"><stop offset="0" stop-color="#1d1b19"/><stop offset="1" stop-color="#312e2b"/></linearGradient><linearGradient x1="74.03625" y1="218.54414" x2="119.77993" y2="218.54414" gradientUnits="userSpaceOnUse" id="color-6"><stop offset="0" stop-color="#1d1b19"/><stop offset="1" stop-color="#312e2b"/></linearGradient><linearGradient x1="210.28005" y1="220.39089" x2="254.38456" y2="220.39089" gradientUnits="userSpaceOnUse" id="color-7"><stop offset="0" stop-color="#1d1b19"/><stop offset="1" stop-color="#312e2b"/></linearGradient><linearGradient x1="257.73347" y1="218.334" x2="311.94248" y2="218.334" gradientUnits="userSpaceOnUse" id="color-8"><stop offset="0" stop-color="#1d1b19"/><stop offset="1" stop-color="#312e2b"/></linearGradient><linearGradient x1="342.838" y1="212.40733" x2="428.47254" y2="212.40733" gradientUnits="userSpaceOnUse" id="color-9"><stop offset="0" stop-color="#1d1b19"/><stop offset="1" stop-color="#312e2b"/></linearGradient><linearGradient x1="444.96919" y1="213.58795" x2="515.39422" y2="213.58795" gradientUnits="userSpaceOnUse" id="color-10"><stop offset="0" stop-color="#1d1b19"/><stop offset="1" stop-color="#312e2b"/></linearGradient><linearGradient x1="129.14144" y1="210.621" x2="176.99661" y2="210.621" gradientUnits="userSpaceOnUse" id="color-11"><stop offset="0" stop-color="#1d1b19"/><stop offset="1" stop-color="#312e2b"/></linearGradient><linearGradient x1="540.70278" y1="216.85547" x2="587.20656" y2="216.85547" gradientUnits="userSpaceOnUse" id="color-12"><stop offset="0" stop-color="#1d1b19"/><stop offset="1" stop-color="#312e2b"/></linearGradient><linearGradient x1="614.78625" y1="218.54413" x2="660.52994" y2="218.54413" gradientUnits="userSpaceOnUse" id="color-13"><stop offset="0" stop-color="#1d1b19"/><stop offset="1" stop-color="#312e2b"/></linearGradient><linearGradient x1="751.03005" y1="220.39088" x2="795.13456" y2="220.39088" gradientUnits="userSpaceOnUse" id="color-14"><stop offset="0" stop-color="#1d1b19"/><stop offset="1" stop-color="#312e2b"/></linearGradient><linearGradient x1="798.48347" y1="218.33399" x2="852.69249" y2="218.33399" gradientUnits="userSpaceOnUse" id="color-15"><stop offset="0" stop-color="#1d1b19"/><stop offset="1" stop-color="#312e2b"/></linearGradient><linearGradient x1="883.588" y1="212.40732" x2="969.22254" y2="212.40732" gradientUnits="userSpaceOnUse" id="color-16"><stop offset="0" stop-color="#1d1b19"/><stop offset="1" stop-color="#312e2b"/></linearGradient><linearGradient x1="985.71919" y1="213.58795" x2="1056.14422" y2="213.58795" gradientUnits="userSpaceOnUse" id="color-17"><stop offset="0" stop-color="#1d1b19"/><stop offset="1" stop-color="#312e2b"/></linearGradient><linearGradient x1="669.89144" y1="210.62099" x2="717.74661" y2="210.62099" gradientUnits="userSpaceOnUse" id="color-18"><stop offset="0" stop-color="#1d1b19"/><stop offset="1" stop-color="#312e2b"/></linearGradient></defs><g transform="translate(6.95863,27.46953)"><g data-paper-data="{&quot;isPaintingLayer&quot;:true}" fill-rule="nonzero" stroke-linecap="butt" stroke-linejoin="miter" stroke-miterlimit="10" stroke-dasharray="" stroke-dashoffset="0" style="mix-blend-mode: normal"><path d="M-5.31236,235.53662v-263.00614h1082.5841v263.00614z" fill="url(#color-1)" stroke="none" stroke-width="0"/><path d="M-4.23966,235.97018v-170.59857h1082.5841v170.59857z" fill="url(#color-2)" stroke="none" stroke-width="0"/><path d="M-5.12109,235.5272v-96.35661h1082.58409v96.35661z" fill="url(#color-3)" stroke="none" stroke-width="0"/><path d="M-4.70863,369.58354v-151.83433h1084.27012v151.83433z" fill="url(#color-4)" stroke-opacity="0.22353" stroke="#001e9e" stroke-width="4.5"/><path d="M21.85554,223.35777c0,-0.02333 0.00218,-0.04448 0.00613,-0.06366c-1.79322,-0.29285 -3.5839,-0.68514 -5.54274,-0.68559c-3.49998,-0.00081 -6.99996,-0.00075 -10.49994,-0.00075c-1.50075,0 -2.59637,0.01264 -3.9699,-0.63975c-0.72996,-0.34671 -0.53583,-1.16013 -1.20888,-1.2416l-0.48449,-0.1025c-0.11557,-0.02202 -0.20294,-0.12359 -0.20294,-0.24558c0,-0.1364 0.10924,-0.2473 0.24501,-0.24995l0.18813,-0.00429c0.73802,-0.66459 -0.16332,-2.16114 0.53899,-2.89137c0.65087,-0.67675 6.09815,0.37499 5.92983,-0.37537c0.11337,-1.03409 1.19621,-0.74492 2.12043,-1.05299c2.21891,-0.73963 5.746,-0.32382 7.29129,-1.97469c2.39773,-2.34849 5.10849,-5.51894 8.70897,-5.71509c1.66539,-0.00387 4.55176,-0.57836 6.09603,0.00953c1.16137,0.44213 2.58472,1.96661 3.66592,2.68763c1.36348,0.9498 3.76084,-0.05374 5.331,0.30219c2.0303,0.46024 2.64758,1.4241 3.88682,2.72387c1.07813,1.09114 2.99589,4.85241 2.38329,6.48496c-0.34816,0.92784 -1.45507,2.07524 -1.96559,3.01312c-2.38135,0.79397 -4.58742,0.76654 -6.94262,1.26565c-1.20659,0.2557 -2.05448,0.91039 -3.36232,0.96601c-1.85943,0.07802 -4.81164,0.58 -6.58418,0.02891c-0.25151,-0.0782 -2.19375,-0.90931 -2.32221,-1.02636c-0.53236,-0.48507 0.24238,-1.01455 -0.55685,-0.93705c-0.82802,-0.04155 -1.65792,-0.02528 -2.48689,-0.02528h-0.01229c0,0 -0.25,0 -0.25,-0.25z" fill="url(#color-5)" stroke="none" stroke-width="0.5"/><path d="M99.72468,226.33239c0,0 -0.25,0 -0.25,-0.25c0,-0.25 0.25,-0.25 0.25,-0.25c1.15605,0 1.54901,-0.43461 2.13294,-0.73578c-0.65726,-0.45629 -1.69436,-0.26317 -2.47361,-0.26394c-2.27183,-0.00222 -3.47146,-0.50028 -5.6515,-0.50029c-3.5,0 -7,0 -10.5,0c-2.82909,-0.0046 -6.27303,-0.78593 -8.51948,-2.46172l-0.44375,-0.03412c-0.13016,-0.00872 -0.23304,-0.11706 -0.23304,-0.24943c0,-0.09705 0.0553,-0.18118 0.13611,-0.22261l0.43583,-0.2344l0.0038,0.00707c0.71748,-0.60688 1.27269,-0.93731 2.44037,-1.24233c2.21641,-0.57898 4.21893,0.69169 5.99317,-1.00809c0.75239,-0.6971 1.94907,-1.48219 2.85926,-1.97053c1.19568,-0.6415 1.66184,-2.20726 2.6109,-2.91895c0.70901,-0.53167 1.73964,-0.33347 2.02584,-1.53352c3.23123,-0.63963 6.90978,-3.2525 9.98595,-0.40463c0.52886,0.53266 1.41443,-0.11284 1.87382,0.34645c0.38462,0.38454 0.4925,2.16857 0.95965,2.75669c1.05402,1.32697 3.42857,1.58878 4.96281,1.73216c0.34804,1.59961 2.03934,1.07129 3.22083,1.44288c1.67124,0.52563 4.79981,1.21856 6.0669,2.31458c0.4863,0.46386 0.68642,0.40757 1.17854,0.70852c1.32019,0.80733 1.34883,2.55838 -0.08884,3.18056c-1.56049,0.67533 -3.9155,0.29084 -5.57825,0.29129c-3.49177,0.00027 -7.06239,0.37112 -10.37023,0.49944c-0.64947,-0.13424 -1.69754,1.00067 -3.02804,1.00067z" fill="url(#color-6)" stroke="none" stroke-width="0.5"/><path d="M216.31657,221.57452c0.60421,-0.17836 2.65777,-2.52838 3.1407,-2.81431c1.02577,-0.60734 2.67139,-0.23272 3.86373,-0.78486c2.0736,-0.95122 4.38067,-0.08735 6.28963,-0.87489c1.4874,-0.61363 1.77536,-1.51804 3.59617,-1.51806c1.4473,-0.00001 1.7077,1.21946 3.29088,1.44378c2.086,0.29556 4.35661,0.05621 6.46135,0.05621c3.64558,0 6.27502,2.96058 9.00681,4.77349c0.60248,0.51386 1.62537,0.76916 2.1279,1.22263c0.74502,0.67229 -0.09975,1.72346 -0.7624,1.884c-1.85992,0.45058 -4.12917,0.11987 -6.04005,0.11987c-3.3105,0 -6.65006,-1.49529 -10.1949,-1.49907c-3.54256,-0.00378 -6.95252,0.42875 -10.42782,0.49115c-3.3363,0.02804 -7.27809,0.56316 -10.54327,-0.09751c-1.81765,-0.37238 -3.48494,-1.13109 -5.28859,-1.38595l-0.04347,-0.04739l-0.01202,0.01611l-0.39833,-0.2973c-0.06233,-0.04547 -0.10283,-0.11906 -0.10283,-0.20211c0,-0.13032 0.09972,-0.23735 0.22702,-0.24895l0.49448,-0.05136l0.00385,0.03708c1.69881,-0.38321 3.56104,-0.25779 5.31117,-0.22255z" fill="url(#color-7)" stroke="none" stroke-width="0.5"/><path d="M272.66962,224.1669c0.03206,0.0368 0.05506,0.08964 0.05506,0.16549c0,0.25 -0.25,0.25 -0.25,0.25c-2.7865,0 -6.33716,-0.30835 -8.72785,-1.79313c-1.66045,-0.42463 -3.24071,-1.18478 -4.97407,-1.70183c-0.1559,-0.0465 -1.03519,-0.61273 -1.03896,-0.74244c-0.03816,-1.31437 3.19596,-1.0986 3.79256,-1.50953c3.09476,-0.85979 7.46065,0.01703 9.86717,-2.29201c0.96058,-0.9161 1.60333,-2.1921 2.84679,-2.8216c0.33628,-0.17024 1.04419,-0.13856 1.32719,-0.45559c1.41712,-1.58748 1.49045,-2.18387 3.89929,-2.18388c2.67596,0 6.27705,2.41855 9.66559,2.49247c2.16557,0.00882 4.33114,0.00753 6.49674,0.00753c0.61314,0 2.08911,-0.26865 2.61612,0.0286c0.37601,0.21209 0.3972,0.95938 0.82731,0.99642c1.42554,1.35771 2.98118,3.4683 4.96378,3.9819c1.06237,0.27521 2.94473,0.52911 3.46771,1.73486c1.96487,0.94916 1.51959,2.81045 3.73129,3.14391l0.49063,0.07398c0.12223,0.01637 0.21651,0.12106 0.21651,0.24777c0,0.13369 -0.10494,0.24287 -0.23695,0.24966l-0.49738,0.02948l-0.0005,-0.00851c-2.71915,0.91942 -5.78039,1.50937 -8.97057,1.51949c-3.50021,0.0111 -7.00056,0.00242 -10.50079,0.00242c-3.5,0 -7,0 -10.5,0c-2.94404,0 -5.5633,-1.09873 -8.56667,-1.41549z" fill="url(#color-8)" stroke="none" stroke-width="0.5"/><path d="M377.13086,225.83239c0,-0.24985 0.24971,-0.25 0.25,-0.25c0.16037,0.03632 0.27445,-0.01813 0.36559,-0.11764c-1.85404,0.23067 -3.71699,0.31375 -5.14827,-0.68242c-3.4468,-0.3525 -6.54483,1.21892 -9.90384,1.75288c-1.81092,0.05394 -2.64807,-2.22059 -3.9148,-2.95244c-1.01736,-0.58777 -4.16447,-0.00038 -5.37507,-0.00038c-2.85001,0 -5.99339,-0.35632 -8.92447,-0.5c-0.43381,-0.02126 -0.76142,-0.54852 -1.1948,-0.51982c-0.8997,-0.92806 -0.26017,-1.68145 0.333,-2.36096c0.20751,-0.23772 -0.09477,-0.65723 0.03223,-0.94609c0.77252,-1.75709 3.62389,-3.66997 4.99078,-5.03703c1.01189,-0.98444 1.57332,-2.43681 2.78348,-3.31493c0.54412,-0.39482 2.63423,-0.60259 2.76425,-0.75032c0.84483,-0.95989 -0.19351,-1.90107 1.66213,-2.03364c1.16788,-0.0654 1.78386,0.79704 2.77164,1.24881c2.776,1.26962 4.11919,0.22741 5.80953,-1.8712c0.88311,-3.06157 3.63198,-6.28825 5.15529,-9.08345c3.73194,-1.06185 6.64175,2.38599 8.70551,4.4862c1.00976,2.90163 5.3947,-1.32571 6.41192,-0.76552c0.66744,0.36756 1.01399,2.03863 1.55755,2.63739c1.95832,2.17544 3.01511,5.13137 5.759,2.57819l0.08642,-0.42884c0.02112,-0.11668 0.12322,-0.20517 0.24599,-0.20517c0.08274,0 0.15608,0.04019 0.20159,0.10211l0.29866,0.39739l-0.01397,0.0105c2.11327,2.05159 4.12203,4.95518 5.99199,6.72636c1.102,0.24309 3.74039,0.7491 4.71533,0.58666c1.86479,-0.3107 2.69878,-2.48055 4.71432,-2.44597c0.23223,-0.15789 1.37455,-1.25737 1.45585,-1.27606c0.94246,-0.21672 1.4493,1.55661 1.67387,2.11827c0.62116,1.55355 1.37852,4.08485 3.01711,4.16304c2.46544,2.12695 8.75799,-0.96495 9.21571,2.67063c-0.00036,0.30794 0.06468,1.00686 0.34591,1.22581c0.86514,0.67356 1.79908,0.29068 2.75585,0.59732c2.65779,0.85181 2.16846,3.56326 -0.69815,3.47305c-0.70533,0.6438 -2.02428,0.5101 -2.95366,0.51422c-2.5003,0.01109 -5.00078,0.00306 -7.5011,0.00306c-1.85476,0 -4.13886,-0.36941 -5.95069,-0.00491c-1.58628,0.31913 -2.63591,0.96792 -4.35617,0.99236c-3.51042,0.04985 -7.02512,0.02433 -10.53586,0.01045c-3.37059,-0.88121 -6.50061,-1.98098 -10.06441,-1.99664c-1.16464,-0.00187 -2.12259,0.24756 -3.07496,0.39423c-0.07052,0.10451 -0.2103,0.10452 -0.2103,0.10452c-0.93741,0 -1.97598,0.15937 -3.03308,0.30343c-0.18257,0.35035 -0.25476,0.61954 -0.96692,0.69657c0,0 -0.25,0 -0.25,-0.25z" fill="url(#color-9)" stroke="none" stroke-width="0.5"/><path d="M447.4195,222.7187c-0.1162,-0.16231 0.03458,-0.31309 0.03458,-0.31309c1.58017,-1.58016 3.96836,-1.74515 5.70363,-2.80798c0.68037,-0.41672 1.76396,-0.53611 1.80079,-1.19505c2.11053,-0.21834 5.97259,-5.02779 6.83172,-7.10111c0.613,-0.35675 0.86705,-1.26176 1.84499,-0.94938c0.8635,0.27582 0.56564,1.28316 1.0607,1.77963c0.91881,0.92141 3.36442,3.82432 4.43274,3.68394c2.0111,0.03349 2.23467,-0.55532 3.62467,-1.62717c1.48163,-1.14251 3.69192,-1.32905 4.5717,-3.39085c1.22875,-2.80236 3.63957,-6.76896 5.67766,-8.91771c0.89679,0.05597 -0.15243,-2.38582 1.72367,-1.52858c0.84659,0.38683 0.25794,0.90792 0.59609,1.44297c1.0169,1.60903 2.70433,2.89989 3.83573,3.96389c0.32806,0.33394 0.87421,1.80092 1.34576,1.90711c0.72888,0.16414 1.57883,-2.51619 2.00846,-2.63786c0.85336,-0.24167 2.60447,2.76196 3.08179,3.2072c0.89384,0.86249 1.57795,1.4496 2.50067,1.97628c0.67135,0.38321 1.28647,-0.12321 1.93967,0.48776c0.56136,0.52507 1.16872,2.07394 1.6343,2.38754c0.10742,0.07235 1.25663,-0.6509 1.82977,-0.36258c1.18826,0.99761 1.98424,3.09616 3.05479,3.86933c1.19417,0.86246 3.73011,1.00559 5.18957,1.18943c0.95677,0.27254 2.71818,0.40433 3.38832,1.07731c0.19006,0.19086 0.33843,1.02511 0.22149,1.27104c-0.37398,0.78647 -4.38342,2.95203 -5.08508,3.20618c-3.5978,1.11478 -6.36788,1.49532 -10.2513,1.49543c-3.52056,0.00003 -6.77536,-0.49999 -10.37076,-0.49999c-2.20457,0 -4.24886,-0.49992 -6.44086,-0.5c-0.30268,-0.00001 -2.19515,-0.21009 -2.33665,-0.06074c-0.36083,0.38084 -0.38432,0.662 -1.06034,0.99649c-0.96195,0.07212 -1.12127,1.01136 -1.91905,1.39453c-2.83291,1.36064 -4.9241,1.10343 -7.40772,-0.9628c-0.61645,-0.53527 -1.09962,-0.14225 -1.79962,-0.38066c-2.73668,-0.93206 -5.1712,-0.98554 -8.17802,-0.98668c-3.44662,-0.00056 -6.85456,0.99745 -10.38896,0.99957c-0.80857,0.00016 -4.91673,0.48592 -5.13494,-0.646c-0.1454,-0.75426 1.28419,-1.20037 2.44005,-1.4674z" fill="url(#color-10)" stroke="none" stroke-width="0.5"/><path d="M148.43849,226.03864c-2.38803,0.75762 -5.66779,1.46524 -7.92522,0.15966c-2.91457,-1.70017 -5.6762,-3.08061 -9.08358,-3.56501c-0.38461,-0.05494 -2.04359,-0.14932 -2.24145,-0.60685c-0.23246,-0.53753 0.46481,-1.47645 0.69783,-1.90087c0.84379,-1.53688 1.6791,-3.14756 2.54941,-4.67166c0.86366,-1.49348 2.01062,-0.20233 3.20665,-0.67281c1.35758,-0.53403 1.99284,-2.80666 2.39695,-4.01899c0.90886,-2.72235 2.1121,-6.08653 2.34102,-8.90231c1.41313,-5.66311 3.36333,1.2303 5.40609,2.76556c0.20693,0.25496 0.77053,-1.12402 0.96582,-1.41863c1.17521,-1.77295 2.02007,-3.48733 2.9565,-5.36155c0.5233,-1.04436 0.83938,-1.98103 1.35153,-3.03484l0.10543,-0.3163c0.03142,-0.10216 0.12653,-0.17641 0.23899,-0.17641c0.0998,0 0.18594,0.05848 0.22603,0.14304l0.22118,0.44237l-0.06335,0.03167c0.47087,0.8653 0.70275,1.85727 1.18299,2.73893c0.97419,1.78848 2.38377,3.34917 3.33302,5.13723c-0.11421,0.71337 1.06097,-1.37797 1.4581,-1.38092c0.22726,-0.00169 0.78912,1.01872 0.90517,1.1928c1.03683,1.55525 1.85694,3.28089 2.80502,4.8998c0.37531,0.64176 1.54945,3.75316 2.32261,3.91287c1.64135,0.33906 1.41007,-3.36968 3.0987,-0.32265c0.94781,2.39995 2.44988,3.99932 4.2444,5.44722c0.47683,0.38473 0.31499,1.03152 0.968,1.20456c0.974,0.00384 4.69758,4.42356 4.86916,5.61448c0.12104,0.84014 -0.2965,0.70401 -0.78119,1.18391c-2.93385,0.73346 -5.94901,0.40074 -9.12708,-0.07869c-3.2864,0.3793 -6.48348,1.1065 -9.75323,1.43238c-2.06334,0.05396 -4.1485,-0.45068 -6.21232,-0.212c-1.027,0.11877 -1.32543,1.51755 -2.41127,0.50076z" fill="url(#color-11)" stroke="none" stroke-width="0.5"/><path d="M562.60554,223.35777c0,-0.02333 0.00218,-0.04448 0.00612,-0.06366c-1.79322,-0.29285 -3.5839,-0.68514 -5.54274,-0.68559c-3.49998,-0.00081 -6.99996,-0.00075 -10.49995,-0.00075c-1.50075,0 -2.59636,0.01264 -3.96989,-0.63975c-0.72996,-0.34671 -0.53583,-1.16013 -1.20888,-1.2416l-0.48449,-0.1025c-0.11558,-0.02202 -0.20294,-0.12359 -0.20294,-0.24558c0,-0.1364 0.10924,-0.2473 0.24501,-0.24995l0.18813,-0.00429c0.73802,-0.66459 -0.16332,-2.16114 0.53899,-2.89137c0.65087,-0.67675 6.09815,0.37499 5.92983,-0.37537c0.11337,-1.03409 1.19621,-0.74492 2.12043,-1.05299c2.21891,-0.73963 5.746,-0.32382 7.29129,-1.97469c2.39773,-2.34849 5.10849,-5.51894 8.70897,-5.71509c1.6654,-0.00387 4.55176,-0.57836 6.09603,0.00953c1.16136,0.44213 2.58472,1.96661 3.66592,2.68763c1.36348,0.9498 3.76084,-0.05374 5.331,0.30219c2.0303,0.46024 2.64758,1.4241 3.88682,2.72387c1.07813,1.09114 2.99589,4.85241 2.38329,6.48496c-0.34816,0.92784 -1.45507,2.07524 -1.96558,3.01312c-2.38135,0.79397 -4.58742,0.76654 -6.94263,1.26565c-1.20659,0.2557 -2.05448,0.91039 -3.36231,0.96601c-1.85943,0.07802 -4.81164,0.58 -6.58418,0.02891c-0.25152,-0.0782 -2.19375,-0.90931 -2.32222,-1.02636c-0.53235,-0.48507 0.24239,-1.01455 -0.55684,-0.93705c-0.82802,-0.04155 -1.65792,-0.02528 -2.48689,-0.02528h-0.01229c0,0 -0.25,0 -0.25,-0.25z" fill="url(#color-12)" stroke="none" stroke-width="0.5"/><path d="M640.47468,226.33238c0,0 -0.25,0 -0.25,-0.25c0,-0.25 0.25,-0.25 0.25,-0.25c1.15605,0 1.54901,-0.43461 2.13294,-0.73578c-0.65725,-0.45629 -1.69435,-0.26317 -2.47361,-0.26394c-2.27183,-0.00222 -3.47146,-0.50028 -5.6515,-0.50029c-3.5,0 -7,0 -10.5,0c-2.8291,-0.0046 -6.27303,-0.78593 -8.51948,-2.46172l-0.44375,-0.03412c-0.13016,-0.00872 -0.23303,-0.11706 -0.23303,-0.24943c0,-0.09705 0.0553,-0.18118 0.1361,-0.22261l0.43583,-0.2344l0.00381,0.00707c0.71749,-0.60688 1.27269,-0.93731 2.44038,-1.24233c2.21641,-0.57898 4.21893,0.69169 5.99317,-1.00809c0.75239,-0.6971 1.94907,-1.48219 2.85926,-1.97053c1.19568,-0.6415 1.66184,-2.20726 2.6109,-2.91895c0.709,-0.53167 1.73964,-0.33347 2.02584,-1.53352c3.23123,-0.63963 6.90978,-3.2525 9.98594,-0.40463c0.52886,0.53266 1.41443,-0.11284 1.87382,0.34645c0.38463,0.38454 0.4925,2.16857 0.95965,2.75669c1.05402,1.32697 3.42858,1.58878 4.96281,1.73216c0.34804,1.59961 2.03935,1.07129 3.22083,1.44288c1.67124,0.52563 4.79981,1.21856 6.06691,2.31458c0.4863,0.46386 0.68642,0.40757 1.17854,0.70852c1.32019,0.80733 1.34883,2.55838 -0.08884,3.18056c-1.56049,0.67533 -3.91549,0.29084 -5.57825,0.29129c-3.49177,0.00027 -7.06239,0.37112 -10.37022,0.49944c-0.64948,-0.13424 -1.69754,1.00067 -3.02805,1.00067z" fill="url(#color-13)" stroke="none" stroke-width="0.5"/><path d="M757.06657,221.57451c0.60421,-0.17836 2.65778,-2.52838 3.14071,-2.81431c1.02577,-0.60734 2.67139,-0.23272 3.86374,-0.78486c2.0736,-0.95122 4.38067,-0.08735 6.28963,-0.87489c1.4874,-0.61363 1.77536,-1.51804 3.59617,-1.51806c1.4473,-0.00001 1.7077,1.21946 3.29088,1.44378c2.086,0.29556 4.35661,0.05621 6.46135,0.05621c3.64558,0 6.27502,2.96058 9.0068,4.77349c0.60248,0.51386 1.62537,0.76916 2.1279,1.22263c0.74501,0.67229 -0.09974,1.72346 -0.7624,1.884c-1.85992,0.45058 -4.12916,0.11987 -6.04004,0.11987c-3.31051,0 -6.65006,-1.49529 -10.1949,-1.49907c-3.54256,-0.00378 -6.95252,0.42875 -10.42782,0.49115c-3.3363,0.02804 -7.27809,0.56316 -10.54327,-0.09751c-1.81765,-0.37238 -3.48494,-1.13109 -5.28859,-1.38595l-0.04347,-0.04739l-0.01202,0.01611l-0.39833,-0.2973c-0.06233,-0.04547 -0.10284,-0.11906 -0.10284,-0.20211c0,-0.13032 0.09972,-0.23735 0.22702,-0.24895l0.49448,-0.05136l0.00385,0.03708c1.69881,-0.38321 3.56103,-0.25779 5.31117,-0.22255z" fill="url(#color-14)" stroke="none" stroke-width="0.5"/><path d="M813.41962,224.16689c0.03206,0.0368 0.05507,0.08964 0.05507,0.16549c0,0.25 -0.25,0.25 -0.25,0.25c-2.78651,0 -6.33716,-0.30835 -8.72786,-1.79313c-1.66045,-0.42463 -3.24071,-1.18478 -4.97407,-1.70183c-0.1559,-0.0465 -1.03519,-0.61273 -1.03895,-0.74244c-0.03816,-1.31437 3.19596,-1.0986 3.79256,-1.50953c3.09476,-0.85979 7.46065,0.01703 9.86716,-2.29201c0.96058,-0.9161 1.60333,-2.1921 2.84679,-2.8216c0.33628,-0.17024 1.04419,-0.13856 1.32719,-0.45559c1.41712,-1.58748 1.49045,-2.18387 3.89929,-2.18388c2.67596,0 6.27705,2.41855 9.66559,2.49247c2.16557,0.00882 4.33114,0.00753 6.49674,0.00753c0.61314,0 2.08911,-0.26865 2.61612,0.0286c0.37601,0.21209 0.3972,0.95938 0.82731,0.99642c1.42555,1.35771 2.98119,3.4683 4.96379,3.9819c1.06237,0.27521 2.94473,0.52911 3.46771,1.73486c1.96487,0.94916 1.51959,2.81045 3.7313,3.14391l0.49063,0.07398c0.12223,0.01637 0.21651,0.12106 0.21651,0.24777c0,0.13369 -0.10495,0.24287 -0.23695,0.24966l-0.49738,0.02948l-0.0005,-0.00851c-2.71915,0.91942 -5.78039,1.50937 -8.97057,1.51949c-3.50021,0.0111 -7.00056,0.00242 -10.50079,0.00242c-3.5,0 -7,0 -10.5,0c-2.94404,0 -5.5633,-1.09873 -8.56668,-1.41549z" fill="url(#color-15)" stroke="none" stroke-width="0.5"/><path d="M917.88086,225.83238c0,-0.24985 0.2497,-0.25 0.25,-0.25c0.16037,0.03632 0.27445,-0.01813 0.36559,-0.11764c-1.85404,0.23067 -3.71699,0.31375 -5.14827,-0.68242c-3.4468,-0.3525 -6.54483,1.21892 -9.90384,1.75288c-1.81092,0.05394 -2.64807,-2.22059 -3.9148,-2.95244c-1.01736,-0.58777 -4.16447,-0.00038 -5.37506,-0.00038c-2.85001,0 -5.99339,-0.35632 -8.92447,-0.5c-0.43381,-0.02126 -0.76142,-0.54852 -1.1948,-0.51982c-0.89969,-0.92806 -0.26017,-1.68145 0.333,-2.36096c0.20751,-0.23772 -0.09477,-0.65723 0.03223,-0.94609c0.77252,-1.75709 3.62389,-3.66997 4.99078,-5.03703c1.01189,-0.98444 1.57332,-2.43681 2.78347,-3.31493c0.54412,-0.39482 2.63423,-0.60259 2.76426,-0.75032c0.84483,-0.95989 -0.19351,-1.90107 1.66213,-2.03364c1.16788,-0.0654 1.78386,0.79704 2.77164,1.24881c2.776,1.26962 4.11919,0.22741 5.80953,-1.8712c0.88311,-3.06157 3.63198,-6.28825 5.15529,-9.08345c3.73194,-1.06185 6.64175,2.38599 8.70551,4.4862c1.00976,2.90163 5.3947,-1.32571 6.41192,-0.76552c0.66743,0.36756 1.01399,2.03863 1.55755,2.63739c1.95831,2.17544 3.01511,5.13137 5.759,2.57819l0.08642,-0.42884c0.02112,-0.11668 0.12322,-0.20517 0.24599,-0.20517c0.08273,0 0.15608,0.04019 0.20159,0.10211l0.29867,0.39739l-0.01398,0.0105c2.11328,2.05159 4.12204,4.95518 5.992,6.72636c1.102,0.24309 3.74038,0.7491 4.71532,0.58666c1.86479,-0.3107 2.69879,-2.48055 4.71433,-2.44597c0.23223,-0.15789 1.37455,-1.25737 1.45585,-1.27606c0.94246,-0.21672 1.4493,1.55661 1.67387,2.11827c0.62116,1.55355 1.37852,4.08485 3.01711,4.16304c2.46544,2.12695 8.758,-0.96495 9.21571,2.67063c-0.00035,0.30794 0.06469,1.00686 0.34591,1.22581c0.86514,0.67356 1.79908,0.29068 2.75585,0.59732c2.65779,0.85181 2.16846,3.56326 -0.69815,3.47305c-0.70533,0.6438 -2.02428,0.5101 -2.95366,0.51422c-2.5003,0.01109 -5.00078,0.00306 -7.5011,0.00306c-1.85476,0 -4.13886,-0.36941 -5.95069,-0.00491c-1.58628,0.31913 -2.63591,0.96792 -4.35617,0.99236c-3.51042,0.04985 -7.02512,0.02433 -10.53585,0.01045c-3.37059,-0.88121 -6.50062,-1.98098 -10.06442,-1.99664c-1.16464,-0.00187 -2.12259,0.24756 -3.07496,0.39423c-0.07052,0.10451 -0.2103,0.10452 -0.2103,0.10452c-0.93741,0 -1.97598,0.15937 -3.03309,0.30343c-0.18257,0.35035 -0.25476,0.61954 -0.96691,0.69657c0,0 -0.25,0 -0.25,-0.25z" fill="url(#color-16)" stroke="none" stroke-width="0.5"/><path d="M988.1695,222.71869c-0.11619,-0.16231 0.03459,-0.31309 0.03459,-0.31309c1.58016,-1.58016 3.96836,-1.74515 5.70363,-2.80798c0.68037,-0.41672 1.76395,-0.53611 1.80079,-1.19505c2.11053,-0.21834 5.97259,-5.02779 6.83172,-7.10111c0.613,-0.35675 0.86706,-1.26176 1.84499,-0.94938c0.8635,0.27582 0.56564,1.28316 1.0607,1.77963c0.91881,0.92141 3.36442,3.82432 4.43274,3.68394c2.0111,0.03349 2.23467,-0.55532 3.62467,-1.62717c1.48163,-1.14251 3.69192,-1.32905 4.57169,-3.39085c1.22875,-2.80236 3.63957,-6.76896 5.67767,-8.91771c0.89679,0.05597 -0.15243,-2.38582 1.72367,-1.52858c0.84659,0.38683 0.25794,0.90792 0.59609,1.44297c1.0169,1.60903 2.70433,2.89989 3.83573,3.96389c0.32806,0.33394 0.87421,1.80092 1.34576,1.90711c0.72888,0.16414 1.57883,-2.51619 2.00846,-2.63786c0.85336,-0.24167 2.60447,2.76196 3.08179,3.2072c0.89384,0.86249 1.57795,1.4496 2.50067,1.97628c0.67135,0.38321 1.28647,-0.12321 1.93967,0.48776c0.56137,0.52507 1.16872,2.07394 1.6343,2.38754c0.10742,0.07235 1.25662,-0.6509 1.82976,-0.36258c1.18826,0.99761 1.98425,3.09616 3.05479,3.86933c1.19417,0.86246 3.73011,1.00559 5.18956,1.18943c0.95677,0.27254 2.71818,0.40433 3.38832,1.07731c0.19006,0.19086 0.33843,1.02511 0.22149,1.27104c-0.37398,0.78647 -4.38342,2.95203 -5.08508,3.20618c-3.5978,1.11478 -6.36788,1.49532 -10.2513,1.49543c-3.52056,0.00003 -6.77535,-0.49999 -10.37076,-0.49999c-2.20457,0 -4.24886,-0.49992 -6.44087,-0.5c-0.30268,-0.00001 -2.19515,-0.21009 -2.33665,-0.06074c-0.36083,0.38084 -0.38432,0.662 -1.06034,0.99649c-0.96195,0.07212 -1.12127,1.01136 -1.91905,1.39453c-2.83291,1.36064 -4.9241,1.10343 -7.40772,-0.9628c-0.61645,-0.53527 -1.09962,-0.14225 -1.79962,-0.38066c-2.73668,-0.93206 -5.1712,-0.98554 -8.17802,-0.98668c-3.44662,-0.00056 -6.85457,0.99745 -10.38896,0.99957c-0.80857,0.00016 -4.91673,0.48592 -5.13494,-0.646c-0.1454,-0.75426 1.28419,-1.20037 2.44005,-1.4674z" fill="url(#color-17)" stroke="none" stroke-width="0.5"/><path d="M689.18849,226.03864c-2.38803,0.75762 -5.66778,1.46524 -7.92522,0.15966c-2.91457,-1.70016 -5.67621,-3.08061 -9.08358,-3.56501c-0.38461,-0.05495 -2.04359,-0.14932 -2.24146,-0.60685c-0.23246,-0.53753 0.46482,-1.47645 0.69783,-1.90087c0.8438,-1.53689 1.6791,-3.14756 2.5494,-4.67166c0.86366,-1.49348 2.01063,-0.20233 3.20665,-0.67281c1.35758,-0.53403 1.99284,-2.80666 2.39695,-4.019c0.90885,-2.72235 2.1121,-6.08653 2.34102,-8.9023c1.41314,-5.66312 3.36333,1.2303 5.40609,2.76556c0.20694,0.25495 0.77053,-1.12402 0.96582,-1.41863c1.17522,-1.77295 2.02007,-3.48733 2.9565,-5.36155c0.5233,-1.04436 0.83938,-1.98103 1.35153,-3.03484l0.10544,-0.3163c0.03141,-0.10216 0.12653,-0.17641 0.23899,-0.17641c0.0998,0 0.18595,0.05848 0.22603,0.14304l0.22118,0.44237l-0.06335,0.03168c0.47087,0.8653 0.70275,1.85727 1.18299,2.73893c0.97419,1.78848 2.38377,3.34917 3.33301,5.13724c-0.1142,0.71338 1.06097,-1.37797 1.4581,-1.38092c0.22726,-0.00169 0.78912,1.01872 0.90517,1.1928c1.03683,1.55525 1.85694,3.28088 2.80502,4.89979c0.37531,0.64175 1.54945,3.75316 2.32261,3.91288c1.64135,0.33907 1.41007,-3.36968 3.0987,-0.32265c0.94781,2.39996 2.44988,3.99932 4.2444,5.44722c0.47683,0.38473 0.31499,1.03152 0.968,1.20456c0.974,0.00385 4.69758,4.42356 4.86916,5.61449c0.12104,0.84014 -0.2965,0.70401 -0.78118,1.18391c-2.93385,0.73346 -5.94901,0.40074 -9.12708,-0.07869c-3.28639,0.3793 -6.48347,1.1065 -9.75324,1.43238c-2.06334,0.05396 -4.1485,-0.45067 -6.21231,-0.212c-1.027,0.11877 -1.32543,1.51755 -2.41126,0.50077z" fill="url(#color-18)" stroke="none" stroke-width="0.5"/></g></g></svg>