<svg version="1.1" xmlns="http://www.w3.org/2000/svg" xmlns:xlink="http://www.w3.org/1999/xlink" width="253.93783" height="185.31877" viewBox="0,0,253.93783,185.31877"><defs><linearGradient x1="310.06247" y1="200.34215" x2="310.06247" y2="275.57656" gradientUnits="userSpaceOnUse" id="color-1"><stop offset="0" stop-color="#636363"/><stop offset="1" stop-color="#424242"/></linearGradient><radialGradient cx="312.90246" cy="238.01472" r="33.27725" gradientUnits="userSpaceOnUse" id="color-2"><stop offset="0" stop-color="#bed2d9" stop-opacity="0.67843"/><stop offset="1" stop-color="#bed2d9" stop-opacity="0"/></radialGradient><linearGradient x1="279.25779" y1="238.01472" x2="340.66848" y2="238.01472" gradientUnits="userSpaceOnUse" id="color-3"><stop offset="0" stop-color="#000000"/><stop offset="1" stop-color="#000000" stop-opacity="0"/></linearGradient></defs><g transform="translate(-269.7193,-160.0288)"><g data-paper-data="{&quot;isPaintingLayer&quot;:true}" fill-rule="nonzero" stroke-linecap="butt" stroke-linejoin="miter" stroke-miterlimit="10" stroke-dasharray="" stroke-dashoffset="0" style="mix-blend-mode: normal"><text transform="translate(270.03135,187.4892) scale(0.6241,0.6241)" font-size="40" xml:space="preserve" fill="#ffffff" fill-rule="nonzero" stroke="none" stroke-width="1" stroke-linecap="butt" stroke-linejoin="miter" stroke-miterlimit="10" stroke-dasharray="" stroke-dashoffset="0" font-family="Malgun Gothic" font-weight="normal" text-anchor="start" style="mix-blend-mode: normal"><tspan x="0" dy="0">Icy</tspan></text><text transform="translate(354.45435,215.62294) scale(0.45565,0.45565)" font-size="40" xml:space="preserve" fill="#d8d8d8" fill-rule="nonzero" stroke="none" stroke-width="1" stroke-linecap="butt" stroke-linejoin="miter" stroke-miterlimit="10" stroke-dasharray="" stroke-dashoffset="0" font-family="Malgun Gothic" font-weight="normal" text-anchor="start" style="mix-blend-mode: normal"><tspan x="0" dy="0">Common Resources:</tspan></text><text transform="translate(354.45435,256.62748) scale(0.45566,0.45566)" font-size="40" xml:space="preserve" fill="#d8d8d8" fill-rule="nonzero" stroke="none" stroke-width="1" stroke-linecap="butt" stroke-linejoin="miter" stroke-miterlimit="10" stroke-dasharray="" stroke-dashoffset="0" font-family="Malgun Gothic" font-weight="normal" text-anchor="start" style="mix-blend-mode: normal"><tspan x="0" dy="0">Rare Resources:</tspan></text><text transform="translate(271.38373,318.32071) scale(0.45566,0.45566)" font-size="40" xml:space="preserve" fill="#d8d8d8" fill-rule="nonzero" stroke="none" stroke-width="1" stroke-linecap="butt" stroke-linejoin="miter" stroke-miterlimit="10" stroke-dasharray="" stroke-dashoffset="0" font-family="Malgun Gothic" font-weight="normal" text-anchor="start" style="mix-blend-mode: normal"><tspan x="0" dy="0">Has water:</tspan></text><text transform="translate(271.38373,296.92705) scale(0.45566,0.45566)" font-size="40" xml:space="preserve" fill="#d8d8d8" fill-rule="nonzero" stroke="none" stroke-width="1" stroke-linecap="butt" stroke-linejoin="miter" stroke-miterlimit="10" stroke-dasharray="" stroke-dashoffset="0" font-family="Malgun Gothic" font-weight="normal" text-anchor="start" style="mix-blend-mode: normal"><tspan x="0" dy="0">Has fossil fuels:</tspan></text><text transform="translate(355.17562,233.72207) scale(0.37382,0.37382)" font-size="40" xml:space="preserve" fill="#9f9f9f" fill-rule="nonzero" stroke="none" stroke-width="1" stroke-linecap="butt" stroke-linejoin="miter" stroke-miterlimit="10" stroke-dasharray="" stroke-dashoffset="0" font-family="Malgun Gothic" font-weight="normal" text-anchor="start" style="mix-blend-mode: normal"><tspan x="0" dy="0">Stone</tspan></text><text transform="translate(355.17562,275.43973) scale(0.37383,0.37383)" font-size="40" xml:space="preserve" fill="#9f9f9f" fill-rule="nonzero" stroke="none" stroke-width="1" stroke-linecap="butt" stroke-linejoin="miter" stroke-miterlimit="10" stroke-dasharray="" stroke-dashoffset="0" font-family="Malgun Gothic" font-weight="normal" text-anchor="start" style="mix-blend-mode: normal"><tspan x="0" dy="0">Hydrogen, Copper</tspan></text><text transform="translate(401.89328,297.19811) scale(0.37383,0.37383)" font-size="40" xml:space="preserve" fill="#9f9f9f" fill-rule="nonzero" stroke="none" stroke-width="1" stroke-linecap="butt" stroke-linejoin="miter" stroke-miterlimit="10" stroke-dasharray="" stroke-dashoffset="0" font-family="Malgun Gothic" font-weight="normal" text-anchor="start" style="mix-blend-mode: normal"><tspan x="0" dy="0">True</tspan></text><text transform="translate(361.25344,318.59993) scale(0.37383,0.37383)" font-size="40" xml:space="preserve" fill="#9f9f9f" fill-rule="nonzero" stroke="none" stroke-width="1" stroke-linecap="butt" stroke-linejoin="miter" stroke-miterlimit="10" stroke-dasharray="" stroke-dashoffset="0" font-family="Malgun Gothic" font-weight="normal" text-anchor="start" style="mix-blend-mode: normal"><tspan x="0" dy="0">True</tspan></text><path d="M271.73214,275.57656v-75.23442h76.66066v75.23442z" fill="#0a0a0a" stroke="url(#color-1)" stroke-width="3.5"/><text transform="translate(271.38373,340.67705) scale(0.45566,0.45566)" font-size="40" xml:space="preserve" fill="#d8d8d8" fill-rule="nonzero" stroke="none" stroke-width="1" stroke-linecap="butt" stroke-linejoin="miter" stroke-miterlimit="10" stroke-dasharray="" stroke-dashoffset="0" font-family="Malgun Gothic" font-weight="normal" text-anchor="start" style="mix-blend-mode: normal"><tspan x="0" dy="0">Wind data:</tspan></text><text transform="translate(364.50344,340.84993) scale(0.37383,0.37383)" font-size="40" xml:space="preserve" fill="#9f9f9f" fill-rule="nonzero" stroke="none" stroke-width="1" stroke-linecap="butt" stroke-linejoin="miter" stroke-miterlimit="10" stroke-dasharray="" stroke-dashoffset="0" font-family="Malgun Gothic" font-weight="normal" text-anchor="start" style="mix-blend-mode: normal"><tspan x="0" dy="0">FRQ: 3/10, STR: 1/5</tspan></text><g><path d="M312.90246,274.2313c-18.37849,0 -33.27726,-16.21474 -33.27726,-36.21658c0,-20.00183 14.89875,-36.21659 33.27726,-36.21659c18.37849,0 33.27725,16.21474 33.27725,36.21659c0,20.00184 -14.89875,36.21658 -33.27725,36.21658z" data-paper-data="{&quot;index&quot;:null}" fill="url(#color-2)" stroke="none" stroke-width="0.5"/><path d="M309.96312,268.72006c-16.9581,0 -30.70533,-13.74729 -30.70533,-30.70533c0,-16.9581 13.74729,-30.70535 30.70533,-30.70535c16.9581,0 30.70533,13.74731 30.70533,30.70535c0,16.9581 -13.7473,30.70533 -30.70533,30.70533z" data-paper-data="{&quot;index&quot;:null}" fill="#edfffe" stroke="none" stroke-width="0.5"/><path d="M288.01787,257.43292c-0.00516,-1.40747 1.40846,-1.40688 1.40846,-1.40688l0.80532,0.00523c2.02531,-0.13892 4.09255,-1.32905 5.77426,-2.92469c-2.75856,-2.80237 -5.99106,-5.43088 -9.02632,-7.36983c-0.80032,0.48012 -1.62492,0.90572 -2.46985,1.26644l-1.33428,0.56969c0,0 -1.29725,0.55388 -1.85878,-0.74006c-0.56153,-1.29396 0.73578,-1.84778 0.73578,-1.84778l1.33422,-0.5697c0.24319,-0.10381 0.48469,-0.21398 0.72425,-0.33015c-0.56117,-0.2843 -1.10607,-0.53513 -1.62962,-0.7484c-0.2264,0.0265 -0.46272,-0.00129 -0.68969,-0.09171c-0.72583,-0.28899 -1.08143,-1.1083 -0.79413,-1.82992c0.26061,-0.65447 0.96045,-1.00383 1.62992,-0.84752c0.40393,-0.03985 0.74564,0.09617 0.74564,0.09617c1.11735,0.44631 2.30837,1.03805 3.53672,1.74642c2.50414,-1.79018 4.69553,-4.1645 6.36148,-6.63083c0.2339,-0.25631 0.46641,-0.51526 0.69756,-0.77652c-1.42711,-1.48553 -2.97677,-2.89253 -4.47625,-4.17631c-2.16164,1.1996 -4.24039,2.54757 -6.21827,4.15702l-0.51092,0.64102c0,0 -0.90913,1.07403 -1.99151,0.16442c-1.08238,-0.9096 -0.17318,-1.98375 -0.17318,-1.98375l0.88308,-1.00577c1.82574,-1.48077 3.7283,-2.75573 5.69853,-3.90062c-1.26797,-1.03475 -2.41937,-1.94842 -3.32527,-2.70777c0,0 -1.08238,-0.90961 -0.17325,-1.98374c0.90913,-1.07404 1.99152,-0.16442 1.99152,-0.16442c1.1999,1.01066 2.62352,2.15965 4.12734,3.42362c2.14301,-1.10519 4.35721,-2.1018 6.63166,-3.07942c-2.20832,-2.64444 -4.05146,-5.51117 -5.36522,-8.53399c0,0 -0.56152,-1.29395 0.73578,-1.84784c1.2973,-0.55388 1.85877,0.74005 1.85877,0.74005c1.28901,2.97472 3.14332,5.78925 5.37315,8.36969c1.75648,-0.88656 3.53659,-1.7472 5.33241,-2.58778c0.74077,-1.22788 1.46121,-2.46433 2.1617,-3.70249c-1.31182,-1.78116 -2.67914,-3.55783 -4.0243,-5.37886c0,0 -0.83888,-1.1363 0.29888,-1.96694c1.13781,-0.83066 1.97664,0.30563 1.97664,0.30563c1.08525,1.47083 2.17521,2.91464 3.23726,4.35355c0.29899,-0.55059 0.59397,-1.10067 0.88503,-1.64938c-0.6757,-0.56324 -1.33628,-1.13663 -1.98028,-1.71909c0,0 -1.04799,-0.94876 -0.09942,-1.98846c0.94858,-1.03969 1.99662,-0.09087 1.99662,-0.09087c0.46276,0.41944 0.93495,0.83423 1.41582,1.24398c0.14985,-0.29193 0.29858,-0.58322 0.44619,-0.87363c0,0 0.63713,-1.25379 1.89886,-0.61437c1.26185,0.63948 0.62479,1.89335 0.62479,1.89335c-0.23949,0.47141 -0.48199,0.94476 -0.72737,1.41963c1.43455,1.1153 2.93192,2.18421 4.47807,3.19664c2.20689,-0.9417 4.40958,-1.87347 6.59363,-2.80606c0,0 1.29724,-0.55395 1.85877,0.74005c0.56153,1.29396 -0.73571,1.84784 -0.73571,1.84784c-1.58682,0.67757 -3.18358,1.35478 -4.78464,2.03565c2.35652,1.38096 4.79991,2.62582 7.2856,3.70215c0.36042,-0.91089 0.73261,-1.84273 1.11295,-2.80052c0,0 0.52026,-1.30665 1.83455,-0.78333c1.31435,0.52332 0.79414,1.82992 0.79414,1.82992c-0.38552,0.9661 -0.76335,1.90291 -1.12912,2.81664c1.72721,0.65717 3.46712,1.22917 5.2052,1.7054l0.08207,-0.22433c0,0 1.36361,-0.3653 1.73602,0.99396c0.37241,1.35925 -0.9912,1.72457 -0.9912,1.72457l-1.57078,0.21851c-1.83603,-0.50856 -3.67117,-1.1157 -5.49113,-1.81109c-1.98188,5.12178 -3.40956,9.65145 -3.43184,14.81345c3.92672,1.22653 7.9601,2.02949 12.09081,1.7616c0.26372,-0.19118 1.12788,-0.69779 1.91521,0.18095c0.94294,1.05239 -0.1101,1.98704 -0.1101,1.98704l-1.10589,0.60356c-4.33074,0.35236 -8.54286,-0.37147 -12.65023,-1.57083c0.14103,1.44303 0.39205,2.94662 0.76898,4.53356c0.57346,-0.15472 1.15352,-0.29358 1.7395,-0.41609c2.83846,-0.73818 5.39355,-0.35665 8.25733,0.10994l0.41821,-0.07672c0,0 1.40823,-0.11623 1.53074,1.28642c0.12246,1.4027 -1.28578,1.51893 -1.28578,1.51893l-1.10859,0.04933c-2.46828,-0.40211 -4.70639,-0.82612 -7.14303,-0.15013c-0.54237,0.1137 -1.08044,0.24289 -1.61328,0.38734c0.68545,2.14512 1.3451,4.3753 2.53488,6.25713c0.60867,0.02105 1.21752,0.03998 1.82661,0.05338l0.89197,0.00006c0,0 1.41353,0.00059 1.4187,1.40817c0.00516,1.40747 -1.40846,1.40688 -1.40846,1.40688l-0.67433,-0.00052c0.05743,0.35613 -0.0211,0.7878 -0.48205,1.19684c-1.05305,0.93465 -1.99604,-0.11775 -1.99604,-0.11775l-0.2117,-0.23837c-0.29476,-0.30523 -0.56905,-0.6209 -0.82553,-0.94587c-0.92553,-0.03415 -1.85119,-0.06725 -2.77784,-0.08771c-1.84566,-0.04333 -3.61061,0.08613 -5.31866,0.33355c-0.15784,2.76279 -0.82848,5.58172 -2.40778,8.55074l-1.23968,0.98138c0,0 -1.20483,0.73131 -1.94413,-0.47129c-0.7393,-1.2026 0.46541,-1.9339 0.46541,-1.9339l0.22068,0.09501c1.22546,-2.28814 1.84978,-4.51134 2.09175,-6.70632c-2.00439,0.43948 -3.94463,1.00759 -5.8632,1.6064c-1.23159,1.97994 -2.18904,4.16098 -2.8097,6.51631c0,0 -0.35236,1.28519 -1.62885,1.00702c-1.25221,0.48586 -1.79546,-0.76587 -1.79546,-0.76587l-0.09623,-0.2218c-0.60867,-1.40247 -1.29689,-2.71119 -2.00432,-4.03612c-2.29497,0.56911 -4.64555,0.98356 -7.12157,1.0825c0,0 -1.41236,0.05249 -1.47079,-1.35403c-0.05842,-1.40652 1.35393,-1.45897 1.35393,-1.45897c2.04724,-0.06943 4.02305,-0.36318 5.96231,-0.78663c-0.89685,-1.72316 -2.2233,-3.55894 -3.80685,-5.37485c-2.11131,1.98487 -4.72967,3.42612 -7.4345,3.67775l-1.04005,0.00436c0,0 -1.41353,-0.00053 -1.41869,-1.40811zM299.22236,248.48796c1.54021,-3.7166 -0.34244,-7.7032 -3.36043,-11.36709c-0.1221,0.13591 -0.24443,0.27124 -0.36724,0.40586c-1.6375,2.37739 -3.68992,4.64773 -6.02797,6.48875c2.86773,1.94043 5.80029,4.38095 8.37296,6.9835c0.59028,-0.82778 1.06451,-1.68506 1.38261,-2.51101zM301.85112,249.53453c-0.49475,1.21194 -1.1993,2.42071 -2.06248,3.54707c2.00439,2.26892 3.66658,4.59076 4.72432,6.75682c1.65601,-0.45623 3.29721,-0.97545 4.94647,-1.49606c1.95395,-2.92863 4.43181,-5.44434 7.29271,-7.45972c-0.69833,-4.12917 -1.80093,-8.31894 -1.82385,-12.81795c-4.58587,-1.99562 -9.17758,-4.84655 -13.20093,-8.32054c-1.30395,1.82992 -2.65822,3.60244 -4.06346,5.29091c3.731,4.42545 6.14737,9.42348 4.18719,14.49941zM299.621,227.81637c-0.40991,-0.39804 -0.81214,-0.80267 -1.20578,-1.214c-0.00876,0.00459 -0.01758,0.00916 -0.02634,0.01376c-2.14659,0.91824 -4.24345,1.83666 -6.27705,2.8415c1.23017,1.09149 2.46539,2.24835 3.63365,3.45871c1.33916,-1.63168 2.63082,-3.33978 3.87545,-5.09998zM301.5312,225.02159c-0.16584,0.08201 -0.33155,0.16425 -0.49698,0.24678c0.06648,0.06684 0.13315,0.13339 0.20011,0.19983c0.09929,-0.14862 0.19822,-0.29747 0.29687,-0.44655zM307.51208,261.75996c-0.57669,0.18018 -1.15391,0.35723 -1.73302,0.52842c0.27941,0.52702 0.55484,1.05375 0.82267,1.58619c0.2763,-0.72167 0.58017,-1.42681 0.91037,-2.11467zM309.59742,221.23704c-1.08609,0.48698 -2.16876,0.97968 -3.24614,1.47924c-0.97174,1.59036 -1.97705,3.16425 -3.01622,4.70674c3.50209,3.06071 7.47989,5.62047 11.47361,7.50023c-0.51357,-5.1755 -2.55469,-9.54612 -5.21126,-13.68622zM317.30963,256.13156c-0.01458,-0.69068 -0.05826,-1.38014 -0.12404,-2.06952c-1.11683,0.87457 -2.16069,1.83744 -3.11721,2.88231c1.0668,-0.29834 2.14536,-0.57452 3.24121,-0.81279zM326.15489,223.08699c-3.24836,-1.40183 -6.42449,-3.07477 -9.44347,-4.95858c-1.52033,0.65148 -3.04138,1.30858 -4.5583,1.97481c3.02691,4.81385 5.26892,9.90784 5.57103,16.07243c1.58465,0.63002 3.18923,1.26026 4.81279,1.84338c0.18887,-5.1249 1.63768,-9.74834 3.61791,-14.93196zM319.18363,249.34248c1.38576,-0.78563 2.8421,-1.46391 4.35597,-2.02637c-0.54118,-2.23907 -0.85182,-4.32646 -0.96922,-6.31668c-1.61286,-0.55253 -3.20952,-1.15786 -4.79122,-1.77812c0.13633,3.54384 0.82267,6.86581 1.40435,10.12123zM320.00506,255.63599c1.73121,-0.25608 3.51455,-0.3931 5.37067,-0.35448c0.3198,0.00705 0.63943,0.01563 0.95904,0.02527c-0.80897,-1.67665 -1.38936,-3.47463 -1.98323,-5.27374c-1.63526,0.6222 -3.20375,1.39265 -4.67957,2.3002c0.15532,1.10108 0.27494,2.1999 0.33315,3.30268zM309.85443,216.67531c0.24401,0.34548 0.48534,0.69144 0.72343,1.03829c1.10095,-0.48493 2.20432,-0.96492 3.30821,-1.44133c-0.93118,-0.64354 -1.84343,-1.30682 -2.73417,-1.98769c-0.42438,0.79514 -0.85686,1.59277 -1.29748,2.3908z" fill-opacity="0.07843" fill="#ffa68b" stroke-opacity="0.17255" stroke="#ffd2b5" stroke-width="0.15"/><path d="M299.68342,210.59119c1.33029,0.47283 0.84987,1.80681 0.84987,1.80681l-0.27824,0.75834c-0.5563,1.95871 -0.1345,4.31371 0.80085,6.44248c3.5811,-1.65255 7.15909,-3.81144 10.01923,-6.01828c-0.18153,-0.91824 -0.30334,-1.84113 -0.35712,-2.76097l-0.08483,-1.45268c0,0 -0.08253,-1.41241 1.32927,-1.50323c1.41181,-0.09088 1.49435,1.32153 1.49435,1.32153l0.08489,1.45268c0.01547,0.26477 0.0375,0.53003 0.06584,0.79562c0.45877,-0.4332 0.88045,-0.8624 1.25939,-1.2842c0.05178,-0.22268 0.15825,-0.43626 0.32057,-0.61979c0.51914,-0.58704 1.41311,-0.64458 1.99668,-0.1285c0.52931,0.46806 0.62155,1.24715 0.24685,1.82602c-0.09947,0.39481 -0.34384,0.67117 -0.34384,0.67117c-0.80043,0.90321 -1.76318,1.82646 -2.84863,2.74534c0.83983,2.97096 2.33713,5.84514 4.09954,8.25457c0.16255,0.30775 0.32797,0.61503 0.49615,0.92194c1.88646,-0.84277 3.74035,-1.8279 5.46079,-2.80741c-0.39864,-2.44735 -0.9654,-4.86677 -1.81326,-7.27989l-0.43167,-0.6998c0,0 -0.7052,-1.22258 0.52068,-1.93549c1.22588,-0.71291 1.93114,0.50975 1.93114,0.50975l0.6496,1.17485c0.77798,2.22577 1.33575,4.45421 1.74761,6.70226c1.40688,-0.8456 2.66009,-1.62222 3.68427,-2.21954c0,0 1.22581,-0.71291 1.93107,0.50973c0.7052,1.22264 -0.52068,1.93555 -0.52068,1.93555c-1.36115,0.7895 -2.92868,1.74326 -4.63209,2.73369c0.3158,2.39773 0.50499,4.82579 0.65589,7.30429c3.24537,-1.18696 6.57674,-1.95354 9.87556,-2.16758c0,0 1.41183,-0.09088 1.4943,1.32153c0.08253,1.41235 -1.32929,1.50324 -1.32929,1.50324c-3.24519,0.20704 -6.53095,1.00202 -9.72318,2.2309c0.24073,1.95865 0.44895,3.93099 0.63277,5.91123c0.90749,1.11584 1.83002,2.21549 2.76091,3.2968c2.12631,-0.63367 4.2672,-1.32123 6.44248,-1.97282c0,0 1.35715,-0.40616 1.75502,0.94964c0.39787,1.35579 -0.95929,1.7619 -0.95929,1.7619c-1.7566,0.52514 -3.48916,1.06393 -5.20773,1.57789c0.41827,0.46906 0.8373,0.93417 1.25638,1.39512c0.76099,-0.44654 1.52634,-0.87538 2.29462,-1.2856c0,0 1.25121,-0.66711 1.9105,0.58105c0.65929,1.24815 -0.59181,1.91533 -0.59181,1.91533c-0.55302,0.29441 -1.10472,0.59927 -1.6546,0.91413c0.22463,0.24055 0.44913,0.47975 0.67316,0.71766c0,0 0.96715,1.02688 -0.06455,2.0008c-1.0317,0.97398 -1.99898,-0.05284 -1.99898,-0.05284c-0.36366,-0.38605 -0.72814,-0.77551 -1.09309,-1.16826c-1.53956,0.97556 -3.0566,2.02596 -4.53685,3.14167c0.13973,2.40249 0.27179,4.79774 0.41069,7.1756c0,0 0.08253,1.41241 -1.32928,1.50324c-1.41181,0.09089 -1.49435,-1.32153 -1.49435,-1.32153c-0.10089,-1.72767 -0.19822,-3.46452 -0.29759,-5.20677c-2.10321,1.75555 -4.10737,3.63924 -5.96678,5.62c0.73742,0.6493 1.49059,1.31687 2.26557,2.00091c0,0 1.05675,0.93442 0.11675,1.99739c-0.93999,1.06291 -1.99669,0.12857 -1.99669,0.12857c-0.78098,-0.6918 -1.53703,-1.36632 -2.27521,-2.02156c-1.20641,1.40724 -2.33683,2.85528 -3.37611,4.33417l0.18382,0.15355c0,0 -0.11792,1.41111 -1.52732,1.30124c-1.40929,-0.10981 -1.29137,-1.5208 -1.29137,-1.5208l0.32686,-1.55667c1.10307,-1.56031 2.29886,-3.08635 3.57293,-4.56806c-4.1615,-3.6088 -7.9523,-6.49356 -12.81689,-8.26651c-2.49026,3.28987 -4.61698,6.82424 -5.76597,10.8139c0.09089,0.31381 0.27583,1.30141 -0.82077,1.74626c-1.31335,0.53284 -1.83808,-0.77834 -1.83808,-0.77834l-0.1944,-1.24863c1.13723,-4.20711 3.2499,-7.93702 5.77584,-11.40671c-1.40982,-0.35666 -2.91423,-0.62996 -4.53991,-0.81279c-0.04856,0.59374 -0.1144,1.18832 -0.19764,1.783c-0.26655,2.92946 -1.49388,5.21171 -2.90611,7.75636l-0.06949,0.42073c0,0 -0.36818,1.36856 -1.73373,1.00815c-1.3655,-0.36042 -0.99732,-1.72909 -0.99732,-1.72909l0.32963,-1.0631c1.21724,-2.19321 2.37698,-4.16174 2.56597,-6.69085c0.07678,-0.55054 0.13732,-1.10232 0.18188,-1.65414c-2.25729,-0.08106 -4.586,-0.21528 -6.76597,0.26906c-0.22656,0.56735 -0.45107,1.13552 -0.67033,1.70593l-0.30282,0.84183c0,0 -0.48028,1.33393 -1.8105,0.86117c-1.33029,-0.47283 -0.84987,-1.80681 -0.84987,-1.80681l0.22938,-0.63637c-0.35559,-0.06667 -0.73635,-0.28729 -0.96604,-0.86116c-0.52479,-1.31112 0.78855,-1.8439 0.78855,-1.8439l0.29688,-0.11887c0.38811,-0.17466 0.77916,-0.32637 1.17292,-0.45812c0.34638,-0.86199 0.69174,-1.72445 1.02554,-2.59208c0.66722,-1.72733 1.14405,-3.43713 1.49018,-5.13324c-2.55405,-1.08661 -4.9871,-2.67625 -7.25344,-5.17451l-0.50563,-1.50312c0,0 -0.28135,-1.3853 1.10466,-1.67506c1.38596,-0.2897 1.66737,1.0956 1.66737,1.0956l-0.16455,0.17601c1.74372,1.93313 3.63018,3.277 5.61975,4.25033c0.26547,-2.04101 0.38776,-4.06509 0.47359,-6.07907c-1.45074,-1.83426 -3.18435,-3.47822 -5.19678,-4.86335c0,0 -1.09343,-0.76875 -0.39764,-1.87922c-0.03363,-1.3468 1.33222,-1.43475 1.33222,-1.43475l0.24209,-0.01557c1.53028,-0.09847 2.99899,-0.30405 4.48964,-0.5221c0.24167,-2.35923 0.6483,-4.71851 1.39524,-7.08901c0,0 0.42979,-1.35087 1.77712,-0.9286c1.3474,0.4222 0.91753,1.77301 0.91753,1.77301c-0.62926,1.95582 -1.02254,3.92036 -1.28103,5.89447c1.93078,-0.26172 4.11366,-0.89062 6.36506,-1.76894c-1.15679,-2.66633 -1.62862,-5.62681 -0.94806,-8.26515l0.34879,-0.98316c0,0 0.48029,-1.33392 1.81051,-0.86115zM304.32362,224.20217c2.98512,2.715 7.3867,2.29109 11.86906,0.68604c-0.08689,-0.16143 -0.17301,-0.3228 -0.25836,-0.48434c-1.68811,-2.3524 -3.13443,-5.05999 -4.07855,-7.89156c-2.80465,2.04807 -6.10346,3.98779 -9.43288,5.53274c0.58104,0.83801 1.22922,1.57666 1.9008,2.15718zM302.44368,226.32812c-0.97598,-0.87822 -1.8777,-1.95347 -2.64786,-3.15042c-2.82175,1.12177 -5.57738,1.90263 -7.98069,2.16587c-0.13133,1.7178 -0.19835,3.44313 -0.26672,5.17645c2.10104,2.83816 3.63461,6.03056 4.56585,9.41472c4.13422,0.74218 8.4629,1.12354 12.71706,2.62876c3.43984,-3.65105 7.68904,-7.01741 12.33336,-9.63583c-1.28461,-1.85178 -2.49791,-3.73154 -3.61474,-5.63087c-5.44311,2.01962 -10.98055,2.60401 -15.10614,-0.96868zM323.69892,231.59382c0.51479,-0.25184 1.03328,-0.4941 1.55503,-0.72608c-0.00135,-0.00988 -0.00264,-0.0197 -0.004,-0.02951c-0.13821,-2.3377 -0.29341,-4.62851 -0.55166,-6.88891c-1.44768,0.79062 -2.95879,1.5639 -4.49769,2.25588c1.08555,1.81769 2.25928,3.61644 3.49827,5.38862zM325.68842,234.34526c-0.02116,-0.18435 -0.04262,-0.36865 -0.06426,-0.55289c-0.08554,0.0401 -0.17102,0.08041 -0.25648,0.12111c0.10658,0.14416 0.21346,0.28805 0.32074,0.43173zM288.98355,227.52214c0.02558,-0.60544 0.05445,-1.21036 0.08937,-1.81503c-0.59227,0.08483 -1.18284,0.16608 -1.77636,0.23815c0.5874,0.50573 1.14981,1.03182 1.68699,1.57689zM326.52308,243.24278c-0.09106,-1.19037 -0.18858,-2.37939 -0.29451,-3.56576c-1.17133,-1.45696 -2.3156,-2.93991 -3.4188,-4.4442c-4.07738,2.26664 -7.8433,5.15234 -10.97287,8.28379c5.05917,1.27174 9.87698,0.82854 14.68617,-0.27377zM290.9709,238.67954c0.65688,0.22056 1.32234,0.41344 1.99527,0.58534c-0.44643,-1.35086 -1.0009,-2.66291 -1.66249,-3.92036c-0.08047,1.10819 -0.18577,2.21984 -0.33279,3.33503zM319.15765,258.24264c2.42559,-2.59026 5.08239,-5.02018 7.88498,-7.23028c-0.09893,-1.65608 -0.20299,-3.31468 -0.31698,-4.97251c-5.57085,1.22329 -11.13952,1.61051 -17.06033,-0.19642c-1.13241,1.28184 -2.27193,2.58231 -3.37322,3.91689c4.77294,1.91762 8.6451,4.85406 12.86555,8.48232zM296.74256,242.75245c0.2713,1.57447 0.41716,3.17928 0.43426,4.79905c2.29703,0.24908 4.3726,0.66436 6.2908,1.22905c1.06885,-1.3347 2.18205,-2.6364 3.30428,-3.91877c-3.39104,-1.07397 -6.75945,-1.5536 -10.02939,-2.10938zM290.52377,241.39178c-0.34584,1.72092 -0.82171,3.45058 -1.48813,5.18931c-0.11523,0.29945 -0.23172,0.59822 -0.34936,0.89661c1.85707,-0.19451 3.751,-0.13209 5.65062,-0.08208c-0.03226,-1.75455 -0.22717,-3.49651 -0.58287,-5.19743c-1.0919,-0.2271 -2.16969,-0.48711 -3.23026,-0.8065zM330.74123,245.0336c-0.40891,0.11311 -0.81736,0.22333 -1.22546,0.3305c0.08407,1.20372 0.16272,2.40802 0.23773,3.61155c0.92343,-0.66047 1.85901,-1.29648 2.80394,-1.90604c-0.60649,-0.6704 -1.21247,-1.34927 -1.81615,-2.03596z" fill-opacity="0.12941" fill="#ff997a" stroke-opacity="0.13333" stroke="#ffc7ab" stroke-width="0.15"/><g><g fill-opacity="0.18039" fill="#c3c9d6" stroke="none" stroke-width="0.5"><path d="M283.13918,235.70776c-1.46661,-0.11769 -1.34898,-1.58436 -1.34898,-1.58436l0.04374,-0.45414c0.74741,-4.11424 2.2156,-8.71463 7.02429,-8.80187c-0.74307,-0.78421 3.81854,-2.68408 3.81854,-2.68408c1.73832,-2.64604 4.22329,-1.11531 5.21226,-3.16666c1.89933,-3.9397 -0.81449,-5.27574 0.57704,-6.12978c1.493,-0.91625 1.68464,-1.81098 3.72148,-1.82173c2.27398,-0.01188 4.26409,-0.66464 6.90707,-1.20777c1.29312,-0.26572 2.83515,1.54186 4.38595,1.04317c0.83747,-0.25878 3.60985,-0.731 5.24706,-0.15978c1.75108,0.61103 2.4122,2.29961 4.66948,3.01776c1.28067,0.4074 3.10593,-0.06015 4.31075,0.38099c4.37483,1.60205 7.05086,4.46454 4.25122,7.97558c-2.76491,3.46734 -7.87587,-2.3882 -12.30986,2.48408c-3.06056,1.39601 -4.11541,-0.17183 -6.83017,0.08153c-2.06276,0.19253 -0.10728,4.59946 -2.62259,5.72617c-3.43161,1.53709 -13.35019,-10.11093 -10.75072,0.2258c1.01013,0.76752 1.94708,1.5328 2.72759,2.23982c4.25627,0.65342 12.47063,2.37808 3.45858,6.02427c-9.58233,3.87692 -8.91592,-12.78473 -16.20634,-11.09097c-3.54989,-0.57376 -4.21888,3.76188 -4.69622,6.38929l-0.00581,0.16336c0,0 -0.11769,1.46666 -1.5843,1.3491z"/><path d="M312.7649,243.17741c5.69625,-3.47457 11.59642,-3.74429 5.47121,4.68124c-3.54653,2.71799 -5.54851,7.71644 -9.0098,9.80077c-3.66081,2.20443 -20.64132,1.39812 -19.45654,-6.98368c1.23823,-3.22109 6.20546,-3.43154 9.639,-3.77726c5.0296,-0.50651 6.2516,-12.02014 13.35591,-3.72101z"/><path d="M339.93988,238.36409l-0.03474,0.43366c-0.00154,0.06008 -0.0061,0.12316 -0.01511,0.188l-0.04815,0.60068c-0.63342,7.78786 -3.93169,13.40005 -9.41872,17.78112c-2.93011,6.00499 -16.14098,4.07549 -18.85498,9.14665l-0.50015,0.55336c0,0 -1.10871,0.94404 -2.05277,-0.16467c-0.83988,-0.98644 -0.05502,-1.84249 0.12839,-2.01931c2.39979,-4.21323 3.64224,-2.52276 7.10241,-1.89304c2.0102,0.36584 3.4085,-5.57897 4.71803,-5.9963c1.06556,-0.33956 2.8438,0.4533 4.3709,0.75017c0.18935,-0.48188 0.62466,-0.7568 0.62466,-0.7568c0.78605,-0.48858 1.53309,-0.99826 2.24035,-1.53098c0.00506,-0.30481 -0.01035,-0.6453 -0.04815,-1.02489c-0.74264,-1.397 5.73311,-32.12422 11.28197,-17.33492c0.57093,0.45854 0.50615,1.26744 0.50615,1.26744z"/><path d="M336.17812,234.7192c-2.54822,4.0658 -3.03069,1.46437 -2.53518,-1.55479c-0.06871,-0.31521 -0.07541,-0.74894 0.22775,-1.13188c0.85464,-3.58444 2.89183,-6.66652 4.30471,1.13646c0,0 0.17047,1.44621 -1.27568,1.61669c-0.28829,0.03392 -0.52591,0.00375 -0.72149,-0.06649z"/><path d="M288.60997,253.28165c0.17224,0.4095 0.30475,1.12716 -0.47947,1.70962c-1.16903,0.86821 -2.03724,-0.30086 -2.03724,-0.30086c-1.486,-2.00345 -2.58014,-3.86333 -3.2529,-6.27876l-0.6071,-1.33386c-0.10711,-0.22393 -0.15831,-0.47835 -0.13709,-0.74365c0.06432,-0.80167 0.76634,-1.39935 1.56802,-1.33504c0.24379,0.01958 0.46871,0.09806 0.66188,0.22046l1.73496,1.04869l-0.28758,0.47581c1.49371,1.02012 1.78659,2.39192 2.14078,5.3062l0.48075,0.55236c0,0 0.1753,0.29236 0.21486,0.67899z"/></g><g fill-opacity="0.23529" fill="#dedede" stroke-opacity="0.08627" stroke="#cbd7dd" stroke-width="0.25"><path d="M306.0556,266.22904c-0.17548,1.46078 -1.63644,1.2853 -1.63644,1.2853l-0.45201,-0.0616c-4.08143,-0.90954 -8.62022,-2.55838 -8.51728,-7.36683c-0.81296,0.71149 -2.53106,-3.92171 -2.53106,-3.92171c-2.5752,-1.84161 -0.94747,-4.26409 -2.95802,-5.33336c-3.86145,-2.0536 -5.30378,0.60533 -6.10216,-0.81895c-0.85647,-1.52804 -1.74303,-1.75501 -1.67318,-3.79062c0.07795,-2.27269 -0.49545,-4.28701 -0.93371,-6.9494c-0.21439,-1.30265 1.65273,-2.77197 1.21582,-4.34138c-0.22539,-0.847 -0.58775,-3.63583 0.04779,-5.24923c0.67975,-1.7255 2.39315,-2.31936 3.19999,-4.54649c0.45771,-1.26356 0.06266,-3.10599 0.55112,-4.29236c1.77378,-4.30805 4.73985,-6.86875 8.13742,-3.93248c3.35536,2.89982 -2.69767,7.7753 1.99544,12.39845c1.27389,3.11339 -0.33437,4.10542 -0.18851,6.82811c0.11082,2.06876 4.5916,0.28906 5.61794,2.84686c1.4003,3.48975 -10.6308,12.94003 -0.19941,10.75123c0.80684,-0.97897 1.60851,-1.88494 2.34587,-2.63694c0.82113,-4.22705 2.86932,-12.36687 6.15638,-3.2178c3.49503,9.72813 -13.12727,8.40354 -11.72311,15.75527c-0.71366,3.52437 3.59214,4.36433 6.19863,4.9452l0.16307,0.01223c0,0 1.46084,0.1756 1.28531,1.63639z"/><path d="M314.69075,236.9217c-3.24666,-5.82915 -3.28292,-11.73539 4.89393,-5.28185c2.57561,3.65117 7.49106,5.84932 9.43689,9.39028c2.058,3.74517 0.58099,20.68052 -7.74742,19.16512c-3.16965,-1.36461 -3.18353,-6.33625 -3.39328,-9.78079c-0.30734,-5.0457 -11.76355,-6.72194 -3.19011,-13.49263z"/><path d="M310.95557,209.57771l0.43196,0.05191c0.06009,0.00383 0.12292,0.011 0.18729,0.02251l0.59827,0.0719c7.75671,0.94088 13.23402,4.4583 17.39484,10.1144c5.88436,3.16525 3.43419,16.28947 8.39402,19.20187l0.53313,0.52168c0,0 0.89949,1.14504 -0.24566,2.04459c-1.01889,0.8002 -1.84326,-0.01781 -2.01268,-0.20804c-4.11507,-2.56456 -2.3768,-3.73917 -1.61075,-7.17173c0.44502,-1.99417 -5.43993,-3.62643 -5.80505,-4.95137c-0.29717,-1.07809 0.56535,-2.82363 0.92236,-4.3378c-0.47394,-0.20828 -0.73154,-0.65405 -0.73154,-0.65405c-0.45713,-0.80472 -0.93683,-1.57137 -1.44121,-2.29914c-0.30434,-0.01705 -0.64519,-0.01522 -1.02594,0.00758c-1.42521,0.68687 -31.87243,-6.99872 -16.87534,-11.95848c0.48069,-0.55236 1.28649,-0.45566 1.28649,-0.45566z"/><path d="M307.16477,213.19239c3.96192,2.70694 1.34333,3.08623 -1.65385,2.47174c-0.31763,0.0562 -0.75124,0.04579 -1.12194,-0.27224c-3.54789,-0.99572 -6.547,-3.15313 1.30577,-4.25638c0,0 1.45186,-0.11322 1.56502,1.33863c0.02251,0.28946 -0.01704,0.52566 -0.09501,0.71831z"/><path d="M323.83188,261.45733c0.41597,-0.15591 1.13835,-0.2599 1.68935,0.54665c0.82137,1.20241 -0.38117,2.02379 -0.38117,2.02379c-2.06065,1.4056 -3.96227,2.42535 -6.40244,3.00205l-1.35679,0.55384c-0.22803,0.09823 -0.48417,0.13932 -0.74848,0.10753c-0.7985,-0.09595 -1.36802,-0.82101 -1.27209,-1.61951c0.02921,-0.24284 0.11652,-0.46442 0.2465,-0.65265l1.11648,-1.69218l0.46412,0.30622c1.07837,-1.45227 2.46063,-1.69058 5.38666,-1.92937l0.57093,-0.45853c0,0 0.29904,-0.16366 0.68698,-0.18788z"/></g><g fill-opacity="0.13725" fill="#a2a4a6" stroke-opacity="0.08627" stroke="#b5bbc9" stroke-width="0.25"><path d="M337.94684,233.45141c1.44004,-0.30181 1.7419,1.13822 1.7419,1.13822l0.08647,0.4479c0.44643,4.15774 0.33896,8.98551 -4.24897,10.42891c0.93447,0.54213 -2.90369,3.65424 -2.90369,3.65424c-0.91929,3.02956 -3.73559,2.26399 -4.10419,4.51122c-0.70785,4.31593 2.27305,4.83009 1.17973,6.0428c-1.17304,1.30101 -1.1039,2.21349 -3.05448,2.7997c-2.1778,0.65441 -3.9022,1.8432 -6.28375,3.11145c-1.16526,0.62056 -3.15537,-0.67723 -4.502,0.23955c-0.73019,0.48492 -3.25572,1.72187 -4.98775,1.63685c-1.85242,-0.091 -2.96396,-1.52369 -5.33218,-1.57424c-1.34368,-0.02863 -2.9622,0.93587 -4.24257,0.85339c-4.64931,-0.29964 -8.02542,-2.28874 -6.33277,-6.44806c1.67165,-4.10771 8.2297,0.06373 11.10507,-5.86343c2.54093,-2.20443 3.99607,-0.99877 6.52848,-2.00956c1.92414,-0.76792 -1.19771,-4.4421 0.89633,-6.23402c2.85697,-2.44469 15.66439,5.92339 10.2482,-3.25642c-1.1859,-0.45054 -2.30107,-0.91966 -3.24955,-1.37713c-4.26732,0.5767 -12.63418,1.24505 -5.02096,-4.80057c8.09508,-6.42813 12.16706,9.742 18.68107,6.05596c3.56723,-0.45336 2.983,-4.80128 2.69795,-7.45643l-0.04061,-0.15838c0,0 -0.30187,-1.44015 1.1381,-1.74196z"/><path d="M307.41802,234.66354c-4.48124,4.94349 -10.0645,6.87044 -6.5717,-2.94322c2.63324,-3.60985 3.14032,-8.97047 5.87096,-11.94842c2.88813,-3.14962 19.40362,-7.17754 20.63714,1.19725c-0.27701,3.43983 -4.98187,5.04619 -8.17757,6.34871c-4.68111,1.90804 -2.59772,13.29729 -11.75877,7.34569z"/><path d="M282.71297,246.96426l-0.08924,-0.42579c-0.01551,-0.05808 -0.02898,-0.11993 -0.03861,-0.1846l-0.12363,-0.58975c-1.5944,-7.64919 -0.01781,-13.96493 4.0066,-19.71872c1.11266,-6.58845 14.32987,-8.47314 15.49926,-14.10466l0.32333,-0.67216c0,0 0.79651,-1.21905 2.01556,-0.42255c1.0845,0.70867 0.57375,1.75172 0.44789,1.97323c-1.11054,4.71986 -2.78032,3.44971 -6.27735,3.82406c-2.03161,0.21751 -1.69187,6.31514 -2.82991,7.08566c-0.92595,0.62696 -2.85598,0.3693 -4.40465,0.51639c-0.04539,0.51573 -0.38517,0.90255 -0.38517,0.90255c-0.61573,0.69087 -1.18831,1.39095 -1.71603,2.10197c0.08137,0.29375 0.19234,0.61602 0.33602,0.96949c1.10742,1.13 3.58416,32.43432 -5.92005,19.81755c-0.67728,-0.27836 -0.84382,-1.07256 -0.84382,-1.07256z"/><path d="M287.35182,249.39679c1.29453,-4.62038 2.49291,-2.26152 2.87138,0.77452c0.15502,0.28282 0.28418,0.69703 0.10163,1.15004c0.19376,3.67981 -0.88885,7.21212 -4.45044,0.12709c0,0 -0.57241,-1.33893 0.76657,-1.91145c0.2669,-0.1141 0.50332,-0.15232 0.71084,-0.14021z"/><path d="M327.73025,218.14162c-0.281,-0.34408 -0.61103,-0.99501 -0.02357,-1.77541c0.87579,-1.16338 2.0392,-0.28748 2.0392,-0.28748c1.99181,1.50159 3.56723,2.97614 4.89551,5.10274l0.95938,1.10771c0.16613,0.18453 0.28706,0.41405 0.34173,0.67452c0.16495,0.78715 -0.33932,1.55902 -1.1264,1.72397c-0.23944,0.05021 -0.47735,0.03844 -0.69727,-0.02427l-1.96066,-0.51533l0.14139,-0.53784c-1.72116,-0.55618 -2.38996,-1.78911 -3.55382,-4.48429l-0.61738,-0.39383c0,0 -0.25079,-0.23091 -0.39804,-0.59057z"/></g></g><path d="M309.96312,268.72006c-16.9581,0 -30.70533,-13.74729 -30.70533,-30.70533c0,-16.9581 13.74729,-30.70535 30.70533,-30.70535c16.9581,0 30.70533,13.74731 30.70533,30.70535c0,16.9581 -13.7473,30.70533 -30.70533,30.70533z" data-paper-data="{&quot;index&quot;:null}" fill-opacity="0.08235" fill="#ffd9cc" stroke="none" stroke-width="0.5"/><path d="M309.96312,268.80913c-16.9581,0 -30.70533,-13.78716 -30.70533,-30.79441c0,-17.00731 13.74729,-30.79441 30.70533,-30.79441c16.9581,0 30.70533,13.78716 30.70533,30.79441c0,17.00731 -13.7473,30.79441 -30.70533,30.79441z" data-paper-data="{&quot;index&quot;:null}" fill="url(#color-3)" stroke="none" stroke-width="0.5"/></g></g></g></svg>