<svg version="1.1" xmlns="http://www.w3.org/2000/svg" xmlns:xlink="http://www.w3.org/1999/xlink" width="12.95425" height="16.6033" viewBox="0,0,12.95425,16.6033"><defs><radialGradient cx="271.48612" cy="181.27294" r="4.6514" gradientUnits="userSpaceOnUse" id="color-1"><stop offset="0" stop-color="#757575"/><stop offset="1" stop-color="#414141"/></radialGradient><linearGradient x1="274.58917" y1="183.13148" x2="265.30245" y2="183.60409" gradientUnits="userSpaceOnUse" id="color-2"><stop offset="0" stop-color="#141414"/><stop offset="1" stop-color="#191919"/></linearGradient><radialGradient cx="270.13615" cy="177.16656" r="5.97241" gradientUnits="userSpaceOnUse" id="color-3"><stop offset="0" stop-color="#6bbfff" stop-opacity="0.26667"/><stop offset="1" stop-color="#59c5ff" stop-opacity="0.8549"/></radialGradient><linearGradient x1="270.07682" y1="171.32167" x2="270.07682" y2="177.89309" gradientUnits="userSpaceOnUse" id="color-4"><stop offset="0" stop-color="#020098" stop-opacity="0.20784"/><stop offset="1" stop-color="#000b75" stop-opacity="0.69355"/></linearGradient><radialGradient cx="267.65792" cy="179.39199" r="6.47319" gradientUnits="userSpaceOnUse" id="color-5"><stop offset="0" stop-color="#9e9e9e"/><stop offset="1" stop-color="#676767"/></radialGradient><linearGradient x1="263.52285" y1="182.24557" x2="276.46923" y2="182.24557" gradientUnits="userSpaceOnUse" id="color-6"><stop offset="0" stop-color="#2a2a2a"/><stop offset="1" stop-color="#232323"/></linearGradient><radialGradient cx="270.04767" cy="181.82949" r="3.05301" gradientUnits="userSpaceOnUse" id="color-7"><stop offset="0" stop-color="#00b1ff" stop-opacity="0.39608"/><stop offset="1" stop-color="#00b1ff" stop-opacity="0"/></radialGradient><radialGradient cx="270.04768" cy="181.82951" r="2.39587" gradientUnits="userSpaceOnUse" id="color-8"><stop offset="0" stop-color="#00fff6"/><stop offset="1" stop-color="#00fff6" stop-opacity="0"/></radialGradient><radialGradient cx="270.04769" cy="181.82951" r="1.91015" gradientUnits="userSpaceOnUse" id="color-9"><stop offset="0" stop-color="#7bffee"/><stop offset="1" stop-color="#7bffee" stop-opacity="0"/></radialGradient><radialGradient cx="270.04768" cy="181.82951" r="1.51362" gradientUnits="userSpaceOnUse" id="color-10"><stop offset="0" stop-color="#d779ff"/><stop offset="1" stop-color="#a58aff"/></radialGradient><radialGradient cx="270.07881" cy="176.6586" r="6.22857" gradientUnits="userSpaceOnUse" id="color-11"><stop offset="0" stop-color="#525252"/><stop offset="1" stop-color="#272727"/></radialGradient></defs><g transform="translate(-263.58009,-170.94665)"><g data-paper-data="{&quot;isPaintingLayer&quot;:true}" fill-rule="nonzero" stroke-linecap="butt" stroke-linejoin="miter" stroke-miterlimit="10" stroke-dasharray="" stroke-dashoffset="0" style="mix-blend-mode: normal"><path d="M274.21624,184.03731l-1.40947,2.04595l-0.76036,-1.48714l-0.29667,2.3295l-1.37342,-2.06877l-1.17195,2.22957l-1.02146,-2.132l-0.83987,1.44729c0,0 -1.01643,-1.49859 -1.59512,-2.36116c-0.34875,-0.51983 8.46832,-0.00322 8.46832,-0.00322z" data-paper-data="{&quot;index&quot;:null}" fill="url(#color-1)" stroke="url(#color-2)" stroke-width="0.25"/><path d="M270.17978,177.80755c-5.15197,0 -6.03556,1.76268 -6.07537,-1.8617c-0.02022,-1.84004 1.51057,-4.6242 5.97241,-4.6242c4.32497,0 5.97241,2.71235 5.97241,4.6242c0,3.90926 -0.40854,1.8617 -5.86943,1.8617z" fill="url(#color-3)" stroke="url(#color-4)" stroke-width="0.75"/><path d="M269.99604,176.71098c7.66361,0.22189 6.2589,0.04694 6.38747,3.92844c-0.00924,0.49882 -0.05656,1.4951 -0.49187,2.25585c-0.72232,1.26233 -1.9926,3.45625 -1.9926,3.45625l-1.30375,-1.98763l-1.92546,2.94308l-1.15662,-2.11524l-1.37614,1.50108l-0.94308,-2.5577l-1.49004,1.3123l-1.57729,-1.94682c0,0 -0.44449,-1.5392 -0.41911,-3.12523c0.06703,-4.188 -0.78925,-3.03031 6.28848,-3.66439z" fill="url(#color-5)" stroke="url(#color-6)" stroke-width="0.25"/><path d="M266.99466,181.82949c0,-1.68613 1.36688,-3.05301 3.05301,-3.05301c1.68613,0 3.05301,1.36688 3.05301,3.05301c0,1.68613 -1.36688,3.05301 -3.05301,3.05301c-1.68613,0 -3.05301,-1.36688 -3.05301,-3.05301z" fill="url(#color-7)" stroke="none" stroke-width="0.5"/><path d="M267.65182,181.82951c0,-1.3232 1.07266,-2.39586 2.39586,-2.39586c1.3232,0 2.39587,1.07266 2.39587,2.39586c0,1.3232 -1.07267,2.39587 -2.39587,2.39587c-1.3232,0 -2.39586,-1.07267 -2.39586,-2.39587z" fill="url(#color-8)" stroke="none" stroke-width="0.5"/><path d="M268.13754,181.82951c0,-1.05495 0.8552,-1.91015 1.91015,-1.91015c1.05495,0 1.91015,0.8552 1.91015,1.91015c0,1.05495 -0.85521,1.91015 -1.91015,1.91015c-1.05495,0 -1.91015,-0.85521 -1.91015,-1.91015z" fill="url(#color-9)" stroke="none" stroke-width="0.5"/><path d="M270.13225,178.74773c-0.10671,0 -0.4257,0.37734 -0.55233,0.44315c-0.1749,0.09091 -0.21824,-0.36391 -0.38519,-0.47924c-0.13067,-0.09027 -0.40916,0.33084 -0.53607,0.32699c-0.35026,-0.01062 -0.35205,-0.35962 -0.67907,-0.37945c-0.15141,-0.00918 -0.38459,0.59651 -0.53019,0.58549c-0.16561,-0.01253 -0.32729,-0.61638 -0.48465,-0.63117c-0.30165,-0.02836 -0.27744,0.37545 -0.54462,0.33948c-0.06492,-0.00874 -0.21523,-0.4094 -0.36573,-0.34572c-0.09739,0.04121 -0.44849,0.44684 -0.52296,0.40106c-0.17054,-0.10484 -0.16542,-0.71874 -0.25088,-0.73356c-0.18111,-0.03142 -0.37836,0.19187 -0.53419,0.15687c-0.18352,-0.04122 -0.06685,-0.39268 -0.21164,-0.43826c-0.19165,-0.06033 -0.29128,0.10672 -0.40702,0.04007c-0.15463,-0.08905 -0.2656,-0.43967 -0.2656,-0.53687c0,-0.56346 2.782,-1.02024 6.21378,-1.02024c3.43177,0 6.15741,0.45678 6.15741,1.02024c0,0.08737 0.03033,0.78931 -0.10614,0.91961c-0.09137,0.08724 -0.15063,-0.27908 -0.282,-0.17702c-0.15201,0.1181 -0.22451,0.52522 -0.44105,0.57715c-0.10692,0.02564 -0.22078,-0.48839 -0.34113,-0.46451c-0.20186,0.04006 -0.30927,0.64203 -0.54559,0.6766c-0.08341,0.0122 -0.42246,-0.5148 -0.5098,-0.50334c-0.08554,0.01122 -0.1463,0.45787 -0.2835,0.48515c-0.10649,0.02117 -0.26447,-0.3426 -0.32947,-0.23801c-0.14373,0.23125 -0.2645,0.45772 -0.4316,0.47233c-0.21832,0.01908 -0.41621,-0.52841 -0.64905,-0.51365c-0.19038,0.01207 -0.21897,0.38565 -0.45484,0.44649c-0.20754,0.05353 -0.50738,-0.29565 -0.71309,-0.43882c-0.1719,-0.11964 -0.27908,0.55168 -0.49024,0.39051c-0.13229,-0.10098 -0.34722,-0.38131 -0.52354,-0.38131z" fill="#565656" stroke-opacity="0.26275" stroke="#9c9c9c" stroke-width="0.25"/><path d="M268.53405,181.82951c0,-0.83594 0.67767,-1.51362 1.51362,-1.51362c0.83594,0 1.51362,0.67767 1.51362,1.51362c0,0.83594 -0.67767,1.51362 -1.51362,1.51362c-0.83594,0 -1.51362,-0.67767 -1.51362,-1.51362z" fill="url(#color-10)" stroke-opacity="0.67059" stroke="#00abff" stroke-width="0.25"/><path d="M270.06462,178.63003c-3.43994,0 -6.22857,-0.48609 -6.22857,-1.08571c0,-0.59962 2.78862,-1.08571 6.22857,-1.08571c3.43994,0 6.22857,0.48609 6.22857,1.08571c0,0.59962 -2.78862,1.08571 -6.22857,1.08571z" fill="url(#color-11)" stroke-opacity="0.74902" stroke="#000000" stroke-width="0.25"/></g></g></svg>