<svg version="1.1" xmlns="http://www.w3.org/2000/svg" xmlns:xlink="http://www.w3.org/1999/xlink" width="98.95091" height="105.14845" viewBox="0,0,98.95091,105.14845"><defs><linearGradient x1="239.5979" y1="155.59695" x2="239.55896" y2="162.44789" gradientUnits="userSpaceOnUse" id="color-1"><stop offset="0" stop-color="#c28b5f"/><stop offset="1" stop-color="#ffb87d"/></linearGradient><radialGradient cx="235.69063" cy="132.92218" r="13.11833" gradientUnits="userSpaceOnUse" id="color-2"><stop offset="0" stop-color="#ffd9ba"/><stop offset="1" stop-color="#ffb87d"/></radialGradient><radialGradient cx="230.21377" cy="133.23013" r="10.07074" gradientUnits="userSpaceOnUse" id="color-3"><stop offset="0" stop-color="#303030"/><stop offset="1" stop-color="#292929"/></radialGradient><radialGradient cx="246.71177" cy="130.4356" r="2.65078" gradientUnits="userSpaceOnUse" id="color-4"><stop offset="0" stop-color="#787878"/><stop offset="1" stop-color="#292929"/></radialGradient><radialGradient cx="235.51187" cy="132.33905" r="4.17314" gradientUnits="userSpaceOnUse" id="color-5"><stop offset="0" stop-color="#a7a7a7"/><stop offset="1" stop-color="#292929"/></radialGradient><linearGradient x1="257.89488" y1="192.53872" x2="267.53613" y2="185.46008" gradientUnits="userSpaceOnUse" id="color-6"><stop offset="0" stop-color="#242424"/><stop offset="1" stop-color="#373737"/></linearGradient><radialGradient cx="254.89807" cy="190.68112" r="3.52256" gradientUnits="userSpaceOnUse" id="color-7"><stop offset="0" stop-color="#bfbfbf"/><stop offset="1" stop-color="#9a9a9a"/></radialGradient><linearGradient x1="268.97138" y1="186.35458" x2="311.03132" y2="169.16607" gradientUnits="userSpaceOnUse" id="color-8"><stop offset="0" stop-color="#b2b2b2"/><stop offset="1" stop-color="#c4c4c4"/></linearGradient><linearGradient x1="269.38467" y1="186.57392" x2="296.91363" y2="175.32376" gradientUnits="userSpaceOnUse" id="color-9"><stop offset="0" stop-color="#cccccc"/><stop offset="1" stop-color="#d8d8d8"/></linearGradient><linearGradient x1="266.48539" y1="186.93687" x2="268.76034" y2="186.05377" gradientUnits="userSpaceOnUse" id="color-10"><stop offset="0" stop-color="#b5b5b5"/><stop offset="1" stop-color="#c5c5c5"/></linearGradient></defs><g transform="translate(-218.87308,-129.17794)"><g data-paper-data="{&quot;isPaintingLayer&quot;:true}" fill-rule="nonzero" stroke-linejoin="miter" stroke-miterlimit="10" stroke-dasharray="" stroke-dashoffset="0" style="mix-blend-mode: normal"><g stroke-linecap="butt"><path d="M235.73094,162.42614l0.03894,-6.85094l7.65602,0.04351l-0.03894,6.85094z" fill="url(#color-1)" stroke="#000000" stroke-width="0"/><path d="M252.72985,143.2488c-0.04393,7.7308 -5.81719,13.96523 -12.89494,13.92501c-7.07774,-0.04022 -12.77978,-6.33988 -12.73585,-14.07068c0.04393,-7.7308 5.81719,-13.96522 12.89494,-13.925c7.07774,0.04022 12.77978,6.33987 12.73585,14.07067z" fill="url(#color-2)" stroke="none" stroke-width="0"/><path d="M240.09221,144.54555c-0.54377,0.91042 -1.46763,0.3755 -1.46763,0.3755c-0.93174,-0.56253 -2.50053,-1.18997 -2.33954,-2.70944c0.13155,-1.24175 2.20214,-2.32749 3.29238,-2.08838c1.97775,0.43377 3.66165,3.97161 0.51479,4.42232z" fill="#191412" stroke="none" stroke-width="0.5"/><path d="M244.42306,148.75715c0.1502,-0.46778 0.48948,-0.56761 0.73944,-0.57183c0.07941,-0.00446 0.16056,0.00256 0.24117,0.02227c-0.2819,-1.0833 -0.09238,-2.47976 -0.43478,-3.5285c0,0 -0.25138,-0.78593 0.53454,-1.0373c0.78592,-0.25138 1.0373,0.53455 1.0373,0.53455c0.41208,1.31095 0.71167,2.92329 0.67593,4.32032c-0.01339,0.52353 0.25131,1.23251 -0.15457,1.56346c-0.42117,0.34343 -1.08432,-0.07413 -1.62648,-0.1112l-0.47918,-0.15385c-0.0993,-0.03188 -0.18838,-0.0808 -0.26505,-0.1425c-0.20079,-0.14894 -0.41854,-0.42763 -0.26834,-0.8954z" fill="#191412" stroke="none" stroke-width="0.5"/><path d="M250.59392,144.76045c-0.345,0.98485 -0.92588,0.40938 -0.92588,0.40938c-0.58576,-0.60528 -1.57282,-1.27905 -1.46746,-2.92087c0.08609,-1.34173 1.39376,-2.5199 2.08022,-2.26439c1.24528,0.46352 2.29744,4.28095 0.31312,4.77586z" fill="#191412" stroke="none" stroke-width="0.5"/><g><path d="M232.90321,133.30262c-0.17016,0.01155 -0.6079,0.048 -1.0821,0.11851c-0.52657,0.19515 -1.14052,0.39114 -1.61224,0.61015c-0.3099,0.88576 0.74459,1.82495 -0.71196,2.45921c-2.48412,1.08175 -1.66837,-2.07849 -0.82637,-3.05703c1.29623,-1.07649 3.17173,-1.1655 4.79061,-1.43728c2.22985,-0.37437 4.4085,-0.98045 6.6064,-1.06306c0.08448,-0.08426 0.19866,-0.1395 0.32708,-0.14808l0.5872,-0.03917c0.29712,-0.07081 0.61991,-0.14414 0.95879,-0.21269c0.88262,-0.25336 1.9402,-0.37094 2.92463,-0.44034c0.48388,-0.08332 0.9363,-0.11702 1.3088,-0.07475c0.27428,-0.01383 0.52938,-0.02693 0.75729,-0.04215l0.61901,-0.0413c0.28193,-0.01881 0.52573,0.1945 0.54454,0.47643c0.01673,0.25093 -0.15039,0.47165 -0.38613,0.53042l-0.33187,0.08971c0.14211,0.12517 0.27037,0.26752 0.38251,0.42877l0.23686,-0.11357l0.28388,0.59202c0.03038,0.05976 0.04944,0.12651 0.05418,0.19762c0.01881,0.28193 -0.1945,0.52573 -0.47642,0.54453c-0.08574,0.00571 -0.16795,-0.01003 -0.24139,-0.04264l-0.50223,-0.21059l0.0062,-0.01478l-0.04777,-0.00489c-0.35675,-0.23215 -0.72108,-0.40948 -1.08622,-0.53235c-0.55885,-0.03315 -1.14578,-0.10806 -1.74437,-0.17107c-1.01845,0.15071 -1.95165,0.75701 -2.63347,1.80983c0,0 -0.27904,0.42883 -0.70786,0.14977c-0.42882,-0.27904 -0.14977,-0.70787 -0.14977,-0.70787c0.05966,-0.09128 0.12111,-0.17999 0.18427,-0.2661l-0.28596,0.08386c-0.03831,0.0121 -0.07866,0.01986 -0.12053,0.02265c-0.28193,0.01881 -0.52573,-0.1945 -0.54453,-0.47643c-0.00953,-0.14269 0.04041,-0.2756 0.12861,-0.37453c-0.24505,-0.00525 -0.47679,0.00269 -0.67478,0.04663c-1.3828,0.30697 -3.49725,0.37025 -5.49681,0.62939c0.00556,0.24146 -0.15854,0.45076 -0.38715,0.50776l-0.6016,0.16261l-0.00525,-0.01944l-0.00752,0.00177z" fill="url(#color-3)" stroke="none" stroke-width="0.5"/><path d="M248.08042,129.92584c2.71487,-0.22071 2.69055,-0.18058 2.86251,1.65417c0.17196,1.83475 -0.8604,3.34264 -2.30584,3.36798c-1.44545,0.02535 -2.75663,-1.44147 -2.92859,-3.27621c-0.17196,-1.83475 -0.17386,-1.53898 2.37192,-1.74594z" data-paper-data="{&quot;index&quot;:null}" fill="url(#color-4)" stroke="#000000" stroke-width="0"/><path d="M241.39948,132.45104c0.31085,1.99924 -1.26615,3.90434 -3.52234,4.25513c-2.25617,0.35078 -4.33717,-0.98554 -4.64801,-2.98479c-0.31085,-1.99924 -0.36134,-2.03563 3.93083,-2.51012c4.02485,-0.44495 3.92867,-0.75946 4.23952,1.23978z" fill="url(#color-5)" stroke="#000000" stroke-width="0"/></g></g><g stroke="#000000" stroke-width="0" stroke-linecap="butt"><path d="M266.32464,189.26934c-0.21729,0.04145 1.14233,3.438 0.24021,3.67591c-0.44371,0.11701 -0.78842,-2.23986 -1.64956,-2.82523c-0.45582,-0.30986 1.68301,3.83907 0.38205,3.74415c-0.44662,-0.03259 -1.21827,-3.28596 -1.89011,-3.91632c-0.35964,-0.33745 1.67648,4.79973 0.81867,4.77927c-0.5092,-0.01214 -1.03527,-3.02922 -1.78306,-4.23174c-0.36431,-0.58584 0.82119,3.67143 0.16483,3.54106c-0.40176,-0.07981 -1.78262,-4.17714 -1.83581,-4.21207c-0.2989,-0.19642 -0.19769,2.50836 -0.66606,1.99068c-0.86325,-0.95408 -0.36221,-2.55369 -0.03463,-4.01221c0.1914,-0.85215 -0.13862,-1.95166 -0.13862,-1.95166c0,0 -0.40088,-2.90536 -2.00585,-5.94593c-0.38595,-0.73117 -1.47597,-3.19458 -1.87991,-3.94208c-0.95601,-1.76911 -1.9678,-3.49187 -2.527,-4.58982c-1.20277,-2.36155 -2.65602,-5.3853 -2.65602,-5.3853l5.24235,-2.56651c0,0 2.14687,4.28703 3.42566,6.7978c0.52043,1.02181 0.37305,2.03494 1.11626,3.64658c0.33317,0.72246 1.31371,4.00153 2.00751,5.97696c1.15515,3.28905 2.20961,5.16119 2.20961,5.16119c0,0 1.9198,4.17747 1.4595,4.26529z" data-paper-data="{&quot;index&quot;:null}" fill="#ffb77d"/><path d="M248.80115,159.95789c4.56177,-2.66263 6.36102,0.36687 7.19219,2.10714c0.83118,1.74029 2.15478,0.7398 -2.03759,3.15932c-3.54349,2.04503 -3.16301,1.49374 -3.99419,-0.24656c-0.83118,-1.74029 -3.53611,-3.63322 -1.16041,-5.0199z" data-paper-data="{&quot;index&quot;:null}" fill="#ffffff"/></g><path d="M226.12337,227.23573l3.75904,-33.71008c0,0 6.75518,-2.18267 9.822,-2.18267c3.62872,0 10.54956,2.18267 10.54956,2.18267l3.03149,33.71008h-7.63934c0,0 -1.32697,-25.53818 -2.03751,-29.57011c-0.20138,-1.1427 -3.2979,-2.07857 -3.2979,-2.07857c0,0 -3.09204,0.08829 -3.39803,1.52409c-0.93579,4.39099 -2.78619,30.12458 -2.78619,30.12458z" fill="#726f7c" stroke="#000000" stroke-width="0" stroke-linecap="butt"/><path d="M229.27674,193.062c0,0 0.19868,-5.55866 -0.29049,-10.94565c-0.33238,-3.66042 -1.36516,-6.96706 -1.50787,-9.46211c-0.26785,-4.68293 -0.13445,-13.38321 -0.13445,-13.38321c0,0 3.69504,-0.56378 5.47055,-0.18749c2.26012,0.47899 6.9906,2.82844 6.9906,2.82844c0,0 3.68917,-2.14968 5.60491,-2.55506c2.02138,-0.42773 6.2235,0.05213 6.2235,0.05213c0,0 -0.12142,9.21657 -0.2988,12.6548c-0.15694,3.042 -0.92575,6.36296 -1.24523,10.86603c-0.32928,4.64117 -0.20706,10.42053 -0.20706,10.42053c0,0 -2.75256,-0.78497 -5.56703,-0.86919c-1.27814,-0.03824 -1.79694,0.99592 -3.00508,1.14826c-0.96567,0.12175 -2.6327,-0.62788 -3.55732,-0.66988c-0.69898,-0.03175 -2.04073,-0.5422 -2.53494,-0.54913c-0.99788,-0.01397 -1.62061,0.85609 -2.77923,1.00887c-1.34587,0.17745 -3.16212,-0.35736 -3.16212,-0.35736z" fill="#ffffff" stroke="#292e32" stroke-width="0" stroke-linecap="butt"/><g><path d="M259.69259,234.32551c-0.59276,0 -2.64411,0.01365 -4.70436,-0.0669c-1.25258,-0.04897 -1.90215,-0.61779 -2.83553,-0.76063c-1.17507,-0.17982 -2.93854,0.22047 -3.78778,0.02896c-1.56485,-0.35288 -2.37463,-0.77782 -2.37463,-0.77782c0,0 -0.26911,-1.0254 -0.2856,-1.5858c-0.02221,-0.75501 0.16433,-2.53701 0.16433,-2.53701c0,0 5.93425,-0.11957 8.24914,0.08076c1.36979,0.11854 4.24057,0.6468 4.24057,0.6468c0,0 1.45976,0.6156 1.67337,1.04283c0.26162,0.52325 0.87307,1.98865 0.87307,1.98865c0,0 -0.3857,1.94015 -1.21259,1.94015z" data-paper-data="{&quot;index&quot;:null}" fill="#141415" stroke="#000000" stroke-width="0" stroke-linecap="butt"/><path d="M259.4217,231.7507c-0.24822,0 0.7024,1.60165 -2.61811,1.33311c-3.13563,-0.25358 -2.77648,-1.18823 -3.8809,-1.26883c-2.30937,-0.16854 -2.58765,0.59503 -3.58732,0.44205c-0.34815,-0.05328 -0.51271,-0.11454 -1.78459,-0.97035c-0.87472,-0.58857 -0.66566,-1.75122 -1.26542,-2.3793c-0.87609,-0.91745 -0.80847,-1.8858 -0.80847,-1.8858l-0.07637,-3.04773c0,0 0.48635,2.20681 1.32529,3.03122c0.75062,0.73761 2.3169,-0.01875 2.80058,-0.01889c0.84696,-0.00024 -0.68885,-3.26804 0.12091,-3.2498c0.43542,0.00981 3.72275,-0.23409 3.72275,-0.23409c0,0 0.12302,3.57989 0.35598,3.60005c1.36979,0.11854 4.60434,0.6468 4.60434,0.6468c0,0 1.45976,0.6156 1.67338,1.04283c0.26162,0.52325 0.63055,2.95873 0.63055,2.95873c0,0 -0.3857,0 -1.2126,0z" data-paper-data="{&quot;index&quot;:null}" fill="#252527" stroke="#000000" stroke-width="0" stroke-linecap="butt"/><path d="M251.9516,228.8121l2.6677,-1.09133" fill="none" stroke="#ffffff" stroke-width="0.5" stroke-linecap="round"/><path d="M256.4382,227.72077l-2.54645,1.45511" fill="none" stroke="#ffffff" stroke-width="0.5" stroke-linecap="round"/><path d="M256.07442,229.4184l1.45512,-1.45511" fill="none" stroke="#ffffff" stroke-width="0.5" stroke-linecap="round"/><path d="M252.92167,224.68929l-2.18266,0.24252" fill="none" stroke="#969696" stroke-width="0.5" stroke-linecap="round"/><path d="M251.22405,225.78062l1.94015,-0.36378" fill="none" stroke="#969696" stroke-width="0.5" stroke-linecap="round"/></g><g data-paper-data="{&quot;index&quot;:null}"><path d="M218.87309,232.29247c0,0 0.61145,-1.46541 0.87307,-1.98866c0.21362,-0.42723 1.67337,-1.04283 1.67337,-1.04283c0,0 2.87078,-0.52826 4.24057,-0.6468c2.3149,-0.20032 8.24914,-0.08075 8.24914,-0.08075c0,0 0.18654,1.78201 0.16433,2.53701c-0.01648,0.56041 -0.2856,1.5858 -0.2856,1.5858c0,0 -0.80978,0.42493 -2.37463,0.77781c-0.84924,0.19151 -2.6127,-0.20879 -3.78777,-0.02896c-0.93338,0.14284 -1.58295,0.71166 -2.83553,0.76063c-2.06025,0.08055 -4.1116,0.06689 -4.70436,0.06689c-0.8269,0 -1.2126,-1.94015 -1.2126,-1.94015z" data-paper-data="{&quot;index&quot;:null}" fill="#141415" stroke="#000000" stroke-width="0" stroke-linecap="butt"/><path d="M219.14398,231.65781c0,0 0.36892,-2.43548 0.63055,-2.95873c0.21362,-0.42723 1.67337,-1.04283 1.67337,-1.04283c0,0 3.23456,-0.52826 4.60434,-0.6468c0.23296,-0.02016 0.35598,-3.60004 0.35598,-3.60004c0,0 3.28733,0.24389 3.72275,0.23408c0.80976,-0.01824 -0.72604,3.24957 0.12091,3.24981c0.48368,0.00014 2.04996,0.7565 2.80058,0.01889c0.83894,-0.82441 1.32529,-3.03123 1.32529,-3.03123l-0.07637,3.04773c0,0 0.06762,0.96834 -0.80847,1.8858c-0.59976,0.62808 -0.39071,1.79073 -1.26542,2.3793c-1.27187,0.85581 -1.43643,0.91707 -1.78458,0.97035c-0.99967,0.15299 -1.27796,-0.61058 -3.58733,-0.44204c-1.10442,0.0806 -0.74527,1.01524 -3.8809,1.26883c-3.3205,0.26854 -2.36989,-1.33311 -2.61811,-1.33311c-0.8269,0 -1.21259,0 -1.21259,0z" data-paper-data="{&quot;index&quot;:null}" fill="#252527" stroke="#000000" stroke-width="0" stroke-linecap="butt"/><path d="M225.15896,227.62787l2.66771,1.09134" fill="none" stroke="#ffffff" stroke-width="0.5" stroke-linecap="round"/><path d="M223.34008,227.62788l2.54644,1.45511" fill="none" stroke="#ffffff" stroke-width="0.5" stroke-linecap="round"/><path d="M223.70386,229.32551l-1.45512,-1.45512" fill="none" stroke="#ffffff" stroke-width="0.5" stroke-linecap="round"/><path d="M229.03927,224.83892l-2.18267,-0.24252" fill="none" stroke="#969696" stroke-width="0.5" stroke-linecap="round"/><path d="M226.61408,225.32395l1.94015,0.36378" fill="none" stroke="#969696" stroke-width="0.5" stroke-linecap="round"/></g><g stroke="none" stroke-width="0" stroke-linecap="butt"><path d="M258.54496,193.42416l-1.90546,-4.65752l10.24654,-4.19196l1.90546,4.65753z" fill="url(#color-6)"/><path d="M259.23934,189.36663c1.15132,1.56818 0.81347,3.77279 -0.7547,4.92412c-1.56818,1.15134 -3.77279,0.81347 -4.92413,-0.75471c-1.15135,-1.56818 -0.81348,-3.7728 0.75471,-4.92413c1.56818,-1.15134 3.77279,-0.81347 4.92413,0.75472z" fill="url(#color-7)"/><path d="M270.73084,190.65988l-3.51892,-8.6107l42.47765,-15.30771l8.13442,-0.7698l-6.14987,5.22967z" fill="url(#color-8)"/><path d="M270.53625,189.39186l-2.50492,-5.93129l35.5131,-12.68439l9.86418,-2.73716l-8.67321,4.86353z" fill="url(#color-9)"/><path d="M266.51206,174.21141c0,0 1.0638,7.93535 2.44381,11.63458c1.5152,4.06161 6.27976,11.74958 6.27976,11.74958c0,0 -7.12309,-7.03355 -8.59265,-10.9728c-1.4376,-3.85355 -0.13088,-12.41138 -0.13088,-12.41138z" fill="url(#color-10)"/></g><g stroke="#000000" stroke-width="0" stroke-linecap="butt"><path d="M248.61991,188.21008c0,0 -1.7117,-1.94941 -5.06378,-4.49717c-2.01331,-1.53019 -5.43984,-3.855 -6.13686,-4.51452c-1.55492,-1.47129 -2.83629,-1.62314 -3.7978,-2.61785c-2.36257,-2.44417 -6.41462,-6.57145 -6.41462,-6.57145l5.65413,-5.73939c0,0 2.88822,2.83437 5.11033,5.13325c1.03315,1.06883 2.58775,2.91487 4.22526,4.7062c0.69189,0.75686 3.09128,2.94787 3.77261,3.67667c2.83321,3.03077 6.10065,4.50208 6.10065,4.50208c0,0 1.14837,0.78105 2.25953,0.82399c1.9018,0.07347 4.05769,-0.02431 4.76886,1.37908c0.38586,0.76146 -2.79045,-0.26621 -2.704,0.17514c0.01538,0.07852 4.22001,3.17919 4.11649,3.7111c-0.16907,0.86893 -4.66111,-2.03925 -4.14244,-1.38605c1.06459,1.34083 4.40337,3.00678 4.16604,3.65128c-0.39982,1.08572 -5.52075,-3.18522 -5.29612,-2.62053c0.41967,1.05486 3.91884,3.10832 3.73686,3.68094c-0.53017,1.6679 -4.4215,-2.4033 -4.2773,-1.72683c0.2724,1.27798 2.91333,2.49604 2.5543,3.01519c-0.72996,1.05551 -4.10917,-1.7852 -4.26606,-1.52571c-0.33241,0.54973 -4.36605,-3.25547 -4.36605,-3.25547z" fill="#ffb77d"/><path d="M231.72872,162.71607c1.66883,1.6206 2.5139,1.32346 -1.66866,5.10999c-4.94847,4.47994 -3.10374,3.14361 -4.7726,1.52303c-1.66883,-1.6206 -4.40081,-4.88534 1.0194,-9.7501c2.82277,-2.53348 3.75301,1.49649 5.42186,3.11708z" fill="#ffffff"/></g></g></g></svg>