<svg version="1.1" xmlns="http://www.w3.org/2000/svg" xmlns:xlink="http://www.w3.org/1999/xlink" width="59" height="59.70662" viewBox="0,0,59,59.70662"><defs><linearGradient x1="240" y1="151.64669" x2="240" y2="208.35331" gradientUnits="userSpaceOnUse" id="color-1"><stop offset="0" stop-color="#191919"/><stop offset="1" stop-color="#050505"/></linearGradient><linearGradient x1="240" y1="151.64669" x2="240" y2="208.35331" gradientUnits="userSpaceOnUse" id="color-2"><stop offset="0" stop-color="#cccccc"/><stop offset="1" stop-color="#898989"/></linearGradient><radialGradient cx="240" cy="180" r="26.8571" gradientUnits="userSpaceOnUse" id="color-3"><stop offset="0" stop-color="#ffffff" stop-opacity="0.35484"/><stop offset="1" stop-color="#ffffff" stop-opacity="0"/></radialGradient><linearGradient x1="240" y1="153.29211" x2="240" y2="206.70789" gradientUnits="userSpaceOnUse" id="color-4"><stop offset="0" stop-color="#cccccc"/><stop offset="1" stop-color="#898989"/></linearGradient><linearGradient x1="242.69917" y1="196.99756" x2="243.65401" y2="196.99756" gradientUnits="userSpaceOnUse" id="color-5"><stop offset="0" stop-color="#525252"/><stop offset="1" stop-color="#363636"/></linearGradient><linearGradient x1="242.69917" y1="196.99756" x2="243.65401" y2="196.99756" gradientUnits="userSpaceOnUse" id="color-6"><stop offset="0" stop-color="#1f1f1f"/><stop offset="1" stop-color="#000000"/></linearGradient><linearGradient x1="235.48338" y1="197.40774" x2="236.73094" y2="197.94619" gradientUnits="userSpaceOnUse" id="color-7"><stop offset="0" stop-color="#525252"/><stop offset="1" stop-color="#2e2e2e"/></linearGradient><linearGradient x1="235.48338" y1="197.40774" x2="236.73094" y2="197.94619" gradientUnits="userSpaceOnUse" id="color-8"><stop offset="0" stop-color="#1f1f1f"/><stop offset="1" stop-color="#000000"/></linearGradient><linearGradient x1="233.96643" y1="197.96769" x2="245.74922" y2="197.96769" gradientUnits="userSpaceOnUse" id="color-9"><stop offset="0" stop-color="#767676"/><stop offset="1" stop-color="#2a2a2a"/></linearGradient><linearGradient x1="233.96643" y1="197.96769" x2="245.74922" y2="197.96769" gradientUnits="userSpaceOnUse" id="color-10"><stop offset="0" stop-color="#1f1f1f"/><stop offset="1" stop-color="#000000"/></linearGradient><linearGradient x1="237.99846" y1="194.7329" x2="241.74434" y2="194.7329" gradientUnits="userSpaceOnUse" id="color-11"><stop offset="0" stop-color="#7f7f7f"/><stop offset="1" stop-color="#545454"/></linearGradient><linearGradient x1="236.78656" y1="197.13294" x2="242.80935" y2="197.13294" gradientUnits="userSpaceOnUse" id="color-12"><stop offset="0" stop-color="#7f7f7f"/><stop offset="1" stop-color="#545454"/></linearGradient><linearGradient x1="235.76992" y1="199.78242" x2="243.85554" y2="199.78242" gradientUnits="userSpaceOnUse" id="color-13"><stop offset="0" stop-color="#7f7f7f"/><stop offset="1" stop-color="#545454"/></linearGradient><linearGradient x1="234.69327" y1="202.42124" x2="244.97608" y2="202.42124" gradientUnits="userSpaceOnUse" id="color-14"><stop offset="0" stop-color="#7f7f7f"/><stop offset="1" stop-color="#545454"/></linearGradient><linearGradient x1="241.78067" y1="193.867" x2="244.75591" y2="193.867" gradientUnits="userSpaceOnUse" id="color-15"><stop offset="0" stop-color="#8f8f8f"/><stop offset="1" stop-color="#4e4e4e"/></linearGradient><linearGradient x1="241.78067" y1="193.867" x2="244.75591" y2="193.867" gradientUnits="userSpaceOnUse" id="color-16"><stop offset="0" stop-color="#1f1f1f"/><stop offset="1" stop-color="#000000"/></linearGradient><linearGradient x1="245.80657" y1="189.82431" x2="251.64688" y2="189.82431" gradientUnits="userSpaceOnUse" id="color-17"><stop offset="0" stop-color="#36322b"/><stop offset="1" stop-color="#1f1c19"/></linearGradient><linearGradient x1="245.80657" y1="190.02495" x2="249.80126" y2="190.02495" gradientUnits="userSpaceOnUse" id="color-18"><stop offset="0" stop-color="#272727"/><stop offset="1" stop-color="#000000"/></linearGradient><linearGradient x1="234.19343" y1="189.76311" x2="228.35312" y2="189.76311" gradientUnits="userSpaceOnUse" id="color-19"><stop offset="0" stop-color="#6b6757"/><stop offset="1" stop-color="#827969"/></linearGradient><linearGradient x1="230.19874" y1="189.96375" x2="234.19343" y2="189.96375" gradientUnits="userSpaceOnUse" id="color-20"><stop offset="0" stop-color="#272727"/><stop offset="1" stop-color="#000000"/></linearGradient><linearGradient x1="234.1772" y1="185.05187" x2="245.82055" y2="185.05187" gradientUnits="userSpaceOnUse" id="color-21"><stop offset="0" stop-color="#635f54"/><stop offset="1" stop-color="#211f1a"/></linearGradient><linearGradient x1="234.1772" y1="185.05187" x2="245.82055" y2="185.05187" gradientUnits="userSpaceOnUse" id="color-22"><stop offset="0" stop-color="#272727"/><stop offset="1" stop-color="#000000"/></linearGradient><linearGradient x1="240.41508" y1="185.58922" x2="244.98202" y2="185.58922" gradientUnits="userSpaceOnUse" id="color-23"><stop offset="0" stop-color="#4a382c"/><stop offset="1" stop-color="#301f1b"/></linearGradient><linearGradient x1="240.41508" y1="185.58922" x2="244.98202" y2="185.58922" gradientUnits="userSpaceOnUse" id="color-24"><stop offset="0" stop-color="#351c12"/><stop offset="1" stop-color="#1a1310"/></linearGradient><linearGradient x1="240.4028" y1="185.59094" x2="244.95917" y2="185.59094" gradientUnits="userSpaceOnUse" id="color-25"><stop offset="0" stop-color="#351c12"/><stop offset="1" stop-color="#1a1310"/></linearGradient><linearGradient x1="240.4028" y1="185.55625" x2="244.95917" y2="185.55625" gradientUnits="userSpaceOnUse" id="color-26"><stop offset="0" stop-color="#351c12"/><stop offset="1" stop-color="#1a1310"/></linearGradient><linearGradient x1="234.95669" y1="185.61235" x2="239.52362" y2="185.61235" gradientUnits="userSpaceOnUse" id="color-27"><stop offset="0" stop-color="#4a382c"/><stop offset="1" stop-color="#301f1b"/></linearGradient><linearGradient x1="234.95669" y1="185.61235" x2="239.52362" y2="185.61235" gradientUnits="userSpaceOnUse" id="color-28"><stop offset="0" stop-color="#351c12"/><stop offset="1" stop-color="#1a1310"/></linearGradient><linearGradient x1="234.94441" y1="185.61407" x2="239.50078" y2="185.61407" gradientUnits="userSpaceOnUse" id="color-29"><stop offset="0" stop-color="#351c12"/><stop offset="1" stop-color="#1a1310"/></linearGradient><linearGradient x1="234.94441" y1="185.57937" x2="239.50078" y2="185.57937" gradientUnits="userSpaceOnUse" id="color-30"><stop offset="0" stop-color="#351c12"/><stop offset="1" stop-color="#1a1310"/></linearGradient><linearGradient x1="240.41508" y1="191.09787" x2="244.98202" y2="191.09787" gradientUnits="userSpaceOnUse" id="color-31"><stop offset="0" stop-color="#4a382c"/><stop offset="1" stop-color="#301f1b"/></linearGradient><linearGradient x1="240.41508" y1="191.09787" x2="244.98202" y2="191.09787" gradientUnits="userSpaceOnUse" id="color-32"><stop offset="0" stop-color="#351c12"/><stop offset="1" stop-color="#1a1310"/></linearGradient><linearGradient x1="240.4028" y1="191.09959" x2="244.95917" y2="191.09959" gradientUnits="userSpaceOnUse" id="color-33"><stop offset="0" stop-color="#351c12"/><stop offset="1" stop-color="#1a1310"/></linearGradient><linearGradient x1="240.4028" y1="191.0649" x2="244.95917" y2="191.0649" gradientUnits="userSpaceOnUse" id="color-34"><stop offset="0" stop-color="#351c12"/><stop offset="1" stop-color="#1a1310"/></linearGradient><linearGradient x1="234.95669" y1="191.121" x2="239.52362" y2="191.121" gradientUnits="userSpaceOnUse" id="color-35"><stop offset="0" stop-color="#4a382c"/><stop offset="1" stop-color="#301f1b"/></linearGradient><linearGradient x1="234.95669" y1="191.121" x2="239.52362" y2="191.121" gradientUnits="userSpaceOnUse" id="color-36"><stop offset="0" stop-color="#351c12"/><stop offset="1" stop-color="#1a1310"/></linearGradient><linearGradient x1="234.94441" y1="191.12272" x2="239.50078" y2="191.12272" gradientUnits="userSpaceOnUse" id="color-37"><stop offset="0" stop-color="#351c12"/><stop offset="1" stop-color="#1a1310"/></linearGradient><linearGradient x1="234.94441" y1="191.08802" x2="239.50078" y2="191.08802" gradientUnits="userSpaceOnUse" id="color-38"><stop offset="0" stop-color="#351c12"/><stop offset="1" stop-color="#1a1310"/></linearGradient><linearGradient x1="234.76672" y1="179.32092" x2="245.1597" y2="179.32092" gradientUnits="userSpaceOnUse" id="color-39"><stop offset="0" stop-color="#515151"/><stop offset="1" stop-color="#131313"/></linearGradient><linearGradient x1="234.76672" y1="179.32092" x2="245.1597" y2="179.32092" gradientUnits="userSpaceOnUse" id="color-40"><stop offset="0" stop-color="#272727"/><stop offset="1" stop-color="#000000"/></linearGradient><linearGradient x1="235.30802" y1="177.05948" x2="244.54623" y2="177.05948" gradientUnits="userSpaceOnUse" id="color-41"><stop offset="0" stop-color="#272727"/><stop offset="1" stop-color="#000000"/></linearGradient><linearGradient x1="235.34411" y1="181.61587" x2="244.43797" y2="181.61587" gradientUnits="userSpaceOnUse" id="color-42"><stop offset="0" stop-color="#272727"/><stop offset="1" stop-color="#000000"/></linearGradient><linearGradient x1="234.07182" y1="162.0397" x2="245.8546" y2="162.0397" gradientUnits="userSpaceOnUse" id="color-43"><stop offset="0" stop-color="#9c8f73"/><stop offset="1" stop-color="#443a22"/></linearGradient><linearGradient x1="234.07182" y1="162.03601" x2="245.8546" y2="162.03601" gradientUnits="userSpaceOnUse" id="color-44"><stop offset="0" stop-color="#272727"/><stop offset="1" stop-color="#000000"/></linearGradient><linearGradient x1="237.00976" y1="156.91384" x2="242.82485" y2="156.91384" gradientUnits="userSpaceOnUse" id="color-45"><stop offset="0" stop-color="#f1f5f8"/><stop offset="1" stop-color="#6d7680"/></linearGradient><linearGradient x1="237.00976" y1="156.91338" x2="242.82485" y2="156.91338" gradientUnits="userSpaceOnUse" id="color-46"><stop offset="0" stop-color="#272727"/><stop offset="1" stop-color="#000000"/></linearGradient><linearGradient x1="235.68407" y1="159.90785" x2="244.34803" y2="159.90785" gradientUnits="userSpaceOnUse" id="color-47"><stop offset="0" stop-color="#45423b"/><stop offset="1" stop-color="#262018"/></linearGradient><linearGradient x1="234.14154" y1="171.73736" x2="245.78489" y2="171.73736" gradientUnits="userSpaceOnUse" id="color-48"><stop offset="0" stop-color="#303030"/><stop offset="1" stop-color="#171717"/></linearGradient><linearGradient x1="234.14154" y1="171.73736" x2="245.78489" y2="171.73736" gradientUnits="userSpaceOnUse" id="color-49"><stop offset="0" stop-color="#272727"/><stop offset="1" stop-color="#000000"/></linearGradient><radialGradient cx="239.96321" cy="171.73736" r="4.83023" gradientUnits="userSpaceOnUse" id="color-50"><stop offset="0" stop-color="#734c45" stop-opacity="0.40995"/><stop offset="1" stop-color="#734c45" stop-opacity="0"/></radialGradient><radialGradient cx="239.96321" cy="171.72018" r="3.92145" gradientUnits="userSpaceOnUse" id="color-51"><stop offset="0" stop-color="#eb8c73" stop-opacity="0.60996"/><stop offset="1" stop-color="#eb8c73" stop-opacity="0"/></radialGradient><radialGradient cx="239.96321" cy="171.72018" r="3.31983" gradientUnits="userSpaceOnUse" id="color-52"><stop offset="0" stop-color="#ff734f" stop-opacity="0"/><stop offset="1" stop-color="#ff734f" stop-opacity="0.08997"/></radialGradient><radialGradient cx="239.96321" cy="171.72018" r="2.72991" gradientUnits="userSpaceOnUse" id="color-53"><stop offset="0" stop-color="#ffa282" stop-opacity="0.11996"/><stop offset="1" stop-color="#ffab8f"/></radialGradient><linearGradient x1="234.30537" y1="171.7297" x2="235.08576" y2="171.7297" gradientUnits="userSpaceOnUse" id="color-54"><stop offset="0" stop-color="#9d9d9d"/><stop offset="1" stop-color="#4c4c4c"/></linearGradient><linearGradient x1="234.30537" y1="171.7297" x2="235.08576" y2="171.7297" gradientUnits="userSpaceOnUse" id="color-55"><stop offset="0" stop-color="#272727"/><stop offset="1" stop-color="#000000"/></linearGradient><linearGradient x1="244.86362" y1="171.7297" x2="245.64401" y2="171.7297" gradientUnits="userSpaceOnUse" id="color-56"><stop offset="0" stop-color="#9d9d9d"/><stop offset="1" stop-color="#4c4c4c"/></linearGradient><linearGradient x1="244.86362" y1="171.7297" x2="245.64401" y2="171.7297" gradientUnits="userSpaceOnUse" id="color-57"><stop offset="0" stop-color="#272727"/><stop offset="1" stop-color="#000000"/></linearGradient><linearGradient x1="234.28406" y1="173.17326" x2="245.64237" y2="173.17326" gradientUnits="userSpaceOnUse" id="color-58"><stop offset="0" stop-color="#272727"/><stop offset="1" stop-color="#000000"/></linearGradient><linearGradient x1="234.28406" y1="173.18694" x2="245.64237" y2="173.18694" gradientUnits="userSpaceOnUse" id="color-59"><stop offset="0" stop-color="#272727"/><stop offset="1" stop-color="#000000"/></linearGradient><linearGradient x1="234.31029" y1="170.15661" x2="245.6686" y2="170.15661" gradientUnits="userSpaceOnUse" id="color-60"><stop offset="0" stop-color="#272727"/><stop offset="1" stop-color="#000000"/></linearGradient><linearGradient x1="234.31029" y1="170.1703" x2="245.6686" y2="170.1703" gradientUnits="userSpaceOnUse" id="color-61"><stop offset="0" stop-color="#272727"/><stop offset="1" stop-color="#000000"/></linearGradient><linearGradient x1="234.17174" y1="175.10413" x2="245.64809" y2="175.10413" gradientUnits="userSpaceOnUse" id="color-62"><stop offset="0" stop-color="#c7a895"/><stop offset="1" stop-color="#322c27"/></linearGradient><linearGradient x1="234.17174" y1="175.10413" x2="245.64809" y2="175.10413" gradientUnits="userSpaceOnUse" id="color-63"><stop offset="0" stop-color="#272727"/><stop offset="1" stop-color="#000000"/></linearGradient><linearGradient x1="234.2242" y1="168.38882" x2="245.70056" y2="168.38882" gradientUnits="userSpaceOnUse" id="color-64"><stop offset="0" stop-color="#c7a895"/><stop offset="1" stop-color="#322c27"/></linearGradient><linearGradient x1="234.2242" y1="168.38882" x2="245.70056" y2="168.38882" gradientUnits="userSpaceOnUse" id="color-65"><stop offset="0" stop-color="#272727"/><stop offset="1" stop-color="#000000"/></linearGradient></defs><g transform="translate(-210.5,-150.14669)"><g data-paper-data="{&quot;isPaintingLayer&quot;:true}" fill-rule="nonzero" stroke-linejoin="miter" stroke-miterlimit="10" stroke-dasharray="" stroke-dashoffset="0" style="mix-blend-mode: normal"><path d="M212,208.35331v-56.70662h56v56.70662z" fill="url(#color-1)" stroke="url(#color-2)" stroke-width="3" stroke-linecap="butt"/><path d="M266.8571,180c0,14.75036 -12.02433,26.70789 -26.8571,26.70789c-14.83277,0 -26.8571,-11.95753 -26.8571,-26.70789c0,-14.75036 12.02433,-26.70789 26.8571,-26.70789c14.83277,0 26.8571,11.95753 26.8571,26.70789z" fill="url(#color-3)" stroke="url(#color-4)" stroke-width="0" stroke-linecap="butt"/><g stroke-width="0.375"><path d="M242.69917,198.57671v-3.15829h0.95483v3.15829z" fill="url(#color-5)" stroke="url(#color-6)" stroke-linecap="butt"/><path d="M233.22043,202.65087l4.52589,-10.48626l1.24756,0.53845l-4.52589,10.48626z" fill="url(#color-7)" stroke="url(#color-8)" stroke-linecap="butt"/><path d="M233.96643,203.85932c0,0 4.39963,-11.86919 5.8922,-11.78279c1.70747,0.09884 5.89059,11.78279 5.89059,11.78279z" fill="url(#color-9)" stroke="url(#color-10)" stroke-linecap="butt"/><path d="M241.74434,194.7329h-3.74588" fill="none" stroke="url(#color-11)" stroke-linecap="round"/><path d="M236.78656,197.13294h6.02279" fill="none" stroke="url(#color-12)" stroke-linecap="round"/><path d="M235.76992,199.78242h8.08562" fill="none" stroke="url(#color-13)" stroke-linecap="round"/><path d="M244.97608,202.42124h-10.28281" fill="none" stroke="url(#color-14)" stroke-linecap="round"/><path d="M244.75591,193.867c-0.01113,1.39893 -0.04638,1.54861 -1.48762,1.53378c-1.4417,-0.01483 -1.5055,-0.20439 -1.48762,-1.53378c0.01975,-1.46773 0.01555,-1.56975 1.48762,-1.53378c1.41044,0.03447 1.49984,-0.00239 1.48762,1.53378z" fill="url(#color-15)" stroke="url(#color-16)" stroke-linecap="butt"/></g><path d="M245.80657,194.61547v-11.90818c0,0 1.49856,7.9937 2.02249,9.92373c0.41452,1.52699 1.9722,4.7116 1.9722,4.7116z" fill="url(#color-17)" stroke="url(#color-18)" stroke-width="0.375" stroke-linecap="butt"/><path d="M230.19874,197.28141c0,0 1.55767,-3.18461 1.9722,-4.7116c0.52393,-1.93003 2.02249,-9.92373 2.02249,-9.92373v11.90818z" data-paper-data="{&quot;index&quot;:null}" fill="url(#color-19)" stroke="url(#color-20)" stroke-width="0.375" stroke-linecap="butt"/><path d="M234.1772,194.60359v-19.10345h11.64335v19.10345z" fill="url(#color-21)" stroke="url(#color-22)" stroke-width="0.375" stroke-linecap="butt"/><g stroke-width="0.375"><path d="M240.41508,187.96664v-4.75485h4.56693v4.75485z" fill="url(#color-23)" stroke="url(#color-24)" stroke-linecap="butt"/><path d="M240.4028,187.90382l4.55637,-4.62576" fill="none" stroke="url(#color-25)" stroke-linecap="round"/><path d="M240.44906,183.2318l4.51011,4.69514" fill="none" stroke="url(#color-26)" stroke-linecap="round"/></g><g stroke-width="0.375"><path d="M234.95669,187.98977v-4.75485h4.56693v4.75485z" fill="url(#color-27)" stroke="url(#color-28)" stroke-linecap="butt"/><path d="M234.94441,187.92695l4.55637,-4.62576" fill="none" stroke="url(#color-29)" stroke-linecap="round"/><path d="M234.99066,183.25493l4.51011,4.69514" fill="none" stroke="url(#color-30)" stroke-linecap="round"/></g><g stroke-width="0.375"><path d="M240.41508,193.47529v-4.75485h4.56693v4.75485z" fill="url(#color-31)" stroke="url(#color-32)" stroke-linecap="butt"/><path d="M240.4028,193.41247l4.55637,-4.62576" fill="none" stroke="url(#color-33)" stroke-linecap="round"/><path d="M240.44906,188.74045l4.51011,4.69514" fill="none" stroke="url(#color-34)" stroke-linecap="round"/></g><g stroke-width="0.375"><path d="M234.95669,193.49842v-4.75485h4.56693v4.75485z" fill="url(#color-35)" stroke="url(#color-36)" stroke-linecap="butt"/><path d="M239.50078,188.80984l-4.55637,4.62576" fill="none" stroke="url(#color-37)" stroke-linecap="round"/><path d="M234.99066,188.76358l4.51011,4.69514" fill="none" stroke="url(#color-38)" stroke-linecap="round"/></g><g stroke-width="0.375"><path d="M234.76672,182.18542v-5.72899h10.39298v5.72899z" fill="url(#color-39)" stroke="url(#color-40)" stroke-linecap="butt"/><path d="M235.30802,177.05948h9.23821" fill="none" stroke="url(#color-41)" stroke-linecap="round"/><path d="M235.34411,181.61587h9.09386" fill="none" stroke="url(#color-42)" stroke-linecap="round"/></g><path d="M234.07182,167.93133c0,0 0.7578,-12.05281 5.83099,-11.78279c5.10447,-0.36022 5.95179,11.78279 5.95179,11.78279z" fill="url(#color-43)" stroke="url(#color-44)" stroke-width="0.375" stroke-linecap="butt"/><path d="M237.00976,157.65926c0,0 0.37399,-1.52494 2.87773,-1.49078c2.51918,-0.04557 2.93735,1.49078 2.93735,1.49078z" fill="url(#color-45)" stroke="url(#color-46)" stroke-width="0.375" stroke-linecap="butt"/><path d="M235.38789,161.39554c0,0 0.14374,-0.46615 0.3549,-1.02088c0.2478,-0.65099 0.65827,-1.42397 2.07663,-1.70877c0.05503,-0.01105 1.08887,-0.17293 1.08887,-0.17293l2.24916,0.00693c0,0 0.7775,0.0555 0.82316,0.06632c1.34231,0.3182 1.84637,1.1172 2.12854,1.78526c0.24059,0.56963 0.38698,1.04407 0.38698,1.04407z" data-paper-data="{&quot;index&quot;:null}" fill="url(#color-47)" stroke="#000000" stroke-width="0.375" stroke-linecap="butt"/><path d="M237.78783,159.96906c0,-0.57248 0.46409,-1.03657 1.03657,-1.03657c0.57248,0 1.03657,0.46409 1.03657,1.03657c0,0.57248 -0.46409,1.03657 -1.03657,1.03657c-0.57248,0 -1.03657,-0.46409 -1.03657,-1.03657z" fill="#caff00" stroke="none" stroke-width="0.375" stroke-linecap="butt"/><path d="M240.18379,159.99177c0,-0.57248 0.46409,-1.03657 1.03657,-1.03657c0.57248,0 1.03657,0.46409 1.03657,1.03657c0,0.57248 -0.46409,1.03657 -1.03657,1.03657c-0.57248,0 -1.03657,-0.46409 -1.03657,-1.03657z" fill="#00fcff" stroke="none" stroke-width="0.375" stroke-linecap="butt"/><g stroke-width="0.375"><path d="M234.14154,175.55091v-7.6271h11.64335v7.6271z" fill="url(#color-48)" stroke="url(#color-49)" stroke-linecap="butt"/><path d="M235.13299,171.73736c0,-2.66765 2.16257,-4.83023 4.83023,-4.83023c2.66765,0 4.83023,2.16257 4.83023,4.83023c0,2.66765 -2.16257,4.83023 -4.83023,4.83023c-2.66765,0 -4.83023,-2.16257 -4.83023,-4.83023z" fill="url(#color-50)" stroke="none" stroke-linecap="butt"/><path d="M236.04177,171.72018c0,-2.16574 1.75569,-3.92144 3.92145,-3.92144c2.16574,0 3.92145,1.75569 3.92145,3.92144c0,2.16574 -1.75569,3.92145 -3.92145,3.92145c-2.16574,0 -3.92145,-1.75569 -3.92145,-3.92145z" fill="url(#color-51)" stroke="none" stroke-linecap="butt"/><path d="M236.64338,171.72018c0,-1.83348 1.48634,-3.31983 3.31983,-3.31983c1.83348,0 3.31983,1.48633 3.31983,3.31983c0,1.83348 -1.48634,3.31983 -3.31983,3.31983c-1.83348,0 -3.31983,-1.48634 -3.31983,-3.31983z" fill="url(#color-52)" stroke="none" stroke-linecap="butt"/><path d="M237.23331,171.72018c0,-1.50768 1.22222,-2.72991 2.72991,-2.72991c1.50768,0 2.72991,1.22222 2.72991,2.72991c0,1.50768 -1.22222,2.72991 -2.72991,2.72991c-1.50768,0 -2.72991,-1.22222 -2.72991,-2.72991z" fill="url(#color-53)" stroke="none" stroke-linecap="butt"/><path d="M234.30537,174.71355v-5.9677h0.78039v5.9677z" fill="url(#color-54)" stroke="url(#color-55)" stroke-linecap="butt"/><path d="M244.86362,174.71355v-5.9677h0.78039v5.9677z" fill="url(#color-56)" stroke="url(#color-57)" stroke-linecap="butt"/><path d="M234.28406,174.74031l0.62956,-3.13411l0.60333,3.13411l0.81318,-3.10674l0.81318,3.09305l1.41651,-3.09305l1.36405,3.10674l1.20666,-3.09305l1.36405,3.07937l0.91811,-3.07937l0.9968,3.10674l0.62956,-3.09305l0.60333,3.06568" fill="none" stroke="url(#color-58)" stroke-linecap="round"/><path d="M245.64237,171.63357l-0.60333,3.06568l-0.62956,-3.09305l-0.9968,3.10674l-0.91811,-3.07937l-1.36405,3.07937l-1.20666,-3.09305l-1.36405,3.10674l-1.41651,-3.09305l-0.81318,3.09305l-0.81318,-3.10674l-0.60333,3.13411l-0.62956,-3.13411" data-paper-data="{&quot;index&quot;:null}" fill="none" stroke="url(#color-59)" stroke-linecap="round"/><path d="M234.31029,171.72367l0.62956,-3.13411l0.60333,3.13411l0.81318,-3.10674l0.81318,3.09305l1.41651,-3.09305l1.36405,3.10674l1.20666,-3.09305l1.36405,3.07937l0.91811,-3.07937l0.9968,3.10674l0.62956,-3.09305l0.60333,3.06568" fill="none" stroke="url(#color-60)" stroke-linecap="round"/><path d="M245.6686,168.61693l-0.60333,3.06568l-0.62956,-3.09305l-0.9968,3.10674l-0.91811,-3.07937l-1.36405,3.07937l-1.20666,-3.09305l-1.36405,3.10674l-1.41651,-3.09305l-0.81318,3.09305l-0.81318,-3.10674l-0.60333,3.13411l-0.62956,-3.13411" data-paper-data="{&quot;index&quot;:null}" fill="none" stroke="url(#color-61)" stroke-linecap="round"/><path d="M234.17174,175.44077v-0.67328h11.47635v0.67328z" fill="url(#color-62)" stroke="url(#color-63)" stroke-linecap="butt"/><path d="M234.2242,168.72546v-0.67328h11.47635v0.67328z" fill="url(#color-64)" stroke="url(#color-65)" stroke-linecap="butt"/></g><path d="M215.27327,167.03273v-12.39235h25.93332v8.69862h-15.56684v3.69373z" fill-opacity="0.53453" fill="#000000" stroke="#a60000" stroke-width="0" stroke-linecap="butt"/><text transform="translate(215.70712,161.61518) scale(0.21839,0.21839)" font-size="40" xml:space="preserve" fill="#ffffff" fill-rule="nonzero" stroke="#000000" stroke-width="0" stroke-linecap="butt" stroke-linejoin="miter" stroke-miterlimit="10" stroke-dasharray="" stroke-dashoffset="0" font-family="Serif" font-weight="normal" text-anchor="start" style="mix-blend-mode: normal"><tspan x="0" dy="0">Rocket</tspan></text><text transform="translate(215.56527,166.16682) scale(0.11601,0.11601)" font-size="40" xml:space="preserve" fill="#ffffff" fill-rule="nonzero" stroke="#000000" stroke-width="0" stroke-linecap="butt" stroke-linejoin="miter" stroke-miterlimit="10" stroke-dasharray="" stroke-dashoffset="0" font-family="Serif" font-weight="normal" text-anchor="start" style="mix-blend-mode: normal"><tspan x="0" dy="0">3-2-2</tspan></text></g></g></svg>