<svg version="1.1" xmlns="http://www.w3.org/2000/svg" xmlns:xlink="http://www.w3.org/1999/xlink" width="59" height="59.70662" viewBox="0,0,59,59.70662"><defs><linearGradient x1="240" y1="151.64669" x2="240" y2="208.35331" gradientUnits="userSpaceOnUse" id="color-1"><stop offset="0" stop-color="#191919"/><stop offset="1" stop-color="#050505"/></linearGradient><linearGradient x1="240" y1="151.64669" x2="240" y2="208.35331" gradientUnits="userSpaceOnUse" id="color-2"><stop offset="0" stop-color="#cccccc"/><stop offset="1" stop-color="#898989"/></linearGradient><radialGradient cx="240" cy="180" r="26.8571" gradientUnits="userSpaceOnUse" id="color-3"><stop offset="0" stop-color="#e4d2ff" stop-opacity="0.35294"/><stop offset="1" stop-color="#e4d2ff" stop-opacity="0"/></radialGradient><linearGradient x1="240" y1="153.2921" x2="240" y2="206.70789" gradientUnits="userSpaceOnUse" id="color-4"><stop offset="0" stop-color="#cccccc"/><stop offset="1" stop-color="#898989"/></linearGradient><linearGradient x1="248.29944" y1="164.80093" x2="248.79735" y2="165.35364" gradientUnits="userSpaceOnUse" id="color-5"><stop offset="0" stop-color="#1f1f1f"/><stop offset="1" stop-color="#0c0c0c"/></linearGradient><linearGradient x1="262.46946" y1="159.92055" x2="254.24682" y2="167.55996" gradientUnits="userSpaceOnUse" id="color-6"><stop offset="0" stop-color="#ff6300"/><stop offset="1" stop-color="#cf4900"/></linearGradient><linearGradient x1="256.57696" y1="161.76201" x2="260.14969" y2="165.72797" gradientUnits="userSpaceOnUse" id="color-7"><stop offset="0" stop-color="#1f1f1f"/><stop offset="1" stop-color="#0c0c0c"/></linearGradient><linearGradient x1="258.63802" y1="155.9758" x2="250.41538" y2="163.61522" gradientUnits="userSpaceOnUse" id="color-8"><stop offset="0" stop-color="#00a5ff"/><stop offset="1" stop-color="#0072cf"/></linearGradient><linearGradient x1="252.74552" y1="157.81727" x2="256.31824" y2="161.78323" gradientUnits="userSpaceOnUse" id="color-9"><stop offset="0" stop-color="#1f1f1f"/><stop offset="1" stop-color="#0c0c0c"/></linearGradient><linearGradient x1="259.32821" y1="155.13343" x2="263.208" y2="159.44026" gradientUnits="userSpaceOnUse" id="color-10"><stop offset="0" stop-color="#1f1f1f"/><stop offset="1" stop-color="#0c0c0c"/></linearGradient><linearGradient x1="229.47058" y1="177.01142" x2="237.61836" y2="186.056" gradientUnits="userSpaceOnUse" id="color-11"><stop offset="0" stop-color="#989898"/><stop offset="1" stop-color="#5b5b5b"/></linearGradient><linearGradient x1="229.39412" y1="176.78181" x2="230.52229" y2="178.03415" gradientUnits="userSpaceOnUse" id="color-12"><stop offset="0" stop-color="#69754a"/><stop offset="1" stop-color="#c9c872"/></linearGradient><linearGradient x1="231.84178" y1="179.49887" x2="237.83454" y2="186.15124" gradientUnits="userSpaceOnUse" id="color-13"><stop offset="0" stop-color="#1b1b1b"/><stop offset="1" stop-color="#070707"/></linearGradient></defs><g transform="translate(-210.5,-150.14669)"><g data-paper-data="{&quot;isPaintingLayer&quot;:true}" fill-rule="nonzero" stroke-linejoin="miter" stroke-miterlimit="10" stroke-dasharray="" stroke-dashoffset="0" style="mix-blend-mode: normal"><path d="M212,208.35331v-56.70662h56v56.70662z" fill="url(#color-1)" stroke="url(#color-2)" stroke-width="3" stroke-linecap="butt"/><path d="M266.8571,180c0,14.75036 -12.02433,26.70789 -26.8571,26.70789c-14.83277,0 -26.8571,-11.95753 -26.8571,-26.70789c0,-14.75036 12.02433,-26.70789 26.8571,-26.70789c14.83277,0 26.8571,11.95753 26.8571,26.70789z" fill="url(#color-3)" stroke="url(#color-4)" stroke-width="0" stroke-linecap="butt"/><g stroke-width="0.5"><path d="M246.78066,166.66974l3.53546,-3.18491" fill="none" stroke="url(#color-5)" stroke-linecap="round"/><path d="M260.19168,165.6608c-2.27062,2.10957 -4.02298,3.95337 -5.94486,1.89916c-1.75798,-1.87902 0.00716,-3.63068 2.27778,-5.74025c2.27062,-2.10957 4.20133,-3.72543 5.94485,-1.89917c2.00931,2.10465 -0.00716,3.63069 -2.27778,5.74025z" fill="url(#color-6)" stroke="url(#color-7)" stroke-linecap="butt"/><path d="M256.36023,161.71606c-2.27062,2.10957 -4.02298,3.95337 -5.94486,1.89916c-1.75798,-1.87902 0.00717,-3.63068 2.27779,-5.74025c2.27062,-2.10957 4.20133,-3.72543 5.94485,-1.89916c2.00931,2.10465 -0.00716,3.63068 -2.27778,5.74025z" fill="url(#color-8)" stroke="url(#color-9)" stroke-linecap="butt"/><path d="M258.62113,155.77041l3.49885,1.04016l0.44522,3.20876" fill="none" stroke="url(#color-10)" stroke-linecap="round"/><path d="M217.52217,204.15956l-0.72753,-15.72907l25.49634,-22.96829l15.42356,2.49021z" fill="url(#color-11)" stroke="#000000" stroke-linecap="butt"/><path d="M216.82313,190.375l-0.11699,-2.16327l25.37596,-22.85984l2.13936,0.34143z" fill="url(#color-12)" stroke="#000000" stroke-linecap="butt"/><path d="M229.80036,193.3888l-3.02625,-9.32474l10.19309,-9.18241l8.90152,4.03203z" fill="url(#color-13)" stroke="#000000" stroke-linecap="butt"/><path d="M238.66651,173.78451l8.28242,3.52955" fill="none" stroke="#000000" stroke-linecap="round"/><path d="M240.07774,172.55028l8.28242,3.52955" fill="none" stroke="#000000" stroke-linecap="round"/><path d="M225.35662,185.94259l2.64867,8.60469" data-paper-data="{&quot;index&quot;:null}" fill="none" stroke="#000000" stroke-linecap="round"/><path d="M223.98226,187.21775l2.64866,8.60469" data-paper-data="{&quot;index&quot;:null}" fill="none" stroke="#000000" stroke-linecap="round"/><path d="M217.79273,204.81827l-0.53281,-0.59146l40.69273,-36.65791l0.53282,0.59146z" fill="#3e3e3e" stroke="#000000" stroke-linecap="butt"/></g><path d="M215.27327,163.339v-8.69862h42.50956v8.69862z" fill-opacity="0.53453" fill="#000000" stroke="#a60000" stroke-width="0" stroke-linecap="butt"/><text transform="translate(215.70712,161.61518) scale(0.21839,0.21839)" font-size="40" xml:space="preserve" fill="#ffffff" fill-rule="nonzero" stroke="#000000" stroke-width="0" stroke-linecap="butt" stroke-linejoin="miter" stroke-miterlimit="10" stroke-dasharray="" stroke-dashoffset="0" font-family="Serif" font-weight="normal" text-anchor="start" style="mix-blend-mode: normal"><tspan x="0" dy="0">Launch Pad</tspan></text></g></g></svg>