<svg version="1.1" xmlns="http://www.w3.org/2000/svg" xmlns:xlink="http://www.w3.org/1999/xlink" width="84.5" height="38.32609" viewBox="0,0,84.5,38.32609"><defs><linearGradient x1="240" y1="161.58695" x2="240" y2="198.41312" gradientUnits="userSpaceOnUse" id="color-1"><stop offset="0" stop-color="#2b4b31"/><stop offset="1" stop-color="#395a1b"/></linearGradient><linearGradient x1="240" y1="161.58695" x2="240" y2="198.41312" gradientUnits="userSpaceOnUse" id="color-2"><stop offset="0" stop-color="#12301b"/><stop offset="1" stop-color="#446d2c"/></linearGradient><linearGradient x1="277.01463" y1="167.16291" x2="269.95424" y2="196.23124" gradientUnits="userSpaceOnUse" id="color-3"><stop offset="0" stop-color="#373737"/><stop offset="1" stop-color="#1f1f1f"/></linearGradient><linearGradient x1="277.92662" y1="167.23944" x2="274.40029" y2="181.75769" gradientUnits="userSpaceOnUse" id="color-4"><stop offset="0" stop-color="#383838"/><stop offset="1" stop-color="#323232"/></linearGradient><radialGradient cx="278.53958" cy="172.37838" r="3.77441" gradientUnits="userSpaceOnUse" id="color-5"><stop offset="0" stop-color="#b1d5ff"/><stop offset="1" stop-color="#56c3ff"/></radialGradient></defs><g transform="translate(-197.75,-160.83703)"><g data-paper-data="{&quot;isPaintingLayer&quot;:true}" fill-rule="nonzero" stroke-linejoin="miter" stroke-miterlimit="10" stroke-dasharray="" stroke-dashoffset="0" style="mix-blend-mode: normal"><path d="M198.5,198.41312v-36.82609h83v36.82609z" fill="url(#color-1)" stroke="url(#color-2)" stroke-width="1.5" stroke-linecap="butt"/><text transform="translate(201.08,170.56883) scale(0.21667,0.21667)" font-size="40" xml:space="preserve" fill="#ff0000" fill-rule="nonzero" stroke="none" stroke-width="1" stroke-linecap="butt" stroke-linejoin="miter" stroke-miterlimit="10" stroke-dasharray="" stroke-dashoffset="0" font-family="Serif" font-weight="normal" text-anchor="start" style="mix-blend-mode: normal"><tspan x="0" dy="0">Combat Skills 3</tspan></text><text transform="translate(200.3,195.63118) scale(0.12749,0.12749)" font-size="40" xml:space="preserve" fill="#ff0000" fill-rule="nonzero" stroke="none" stroke-width="1" stroke-linecap="butt" stroke-linejoin="miter" stroke-miterlimit="10" stroke-dasharray="" stroke-dashoffset="0" font-family="Serif" font-weight="normal" text-anchor="start" style="mix-blend-mode: normal"><tspan x="0" dy="0">30k R</tspan></text><path d="M269.69467,195.80068l-4.45044,-1.00005l5.28998,-1.79007" data-paper-data="{&quot;index&quot;:null}" fill="none" stroke="#5f5f5f" stroke-width="0.5" stroke-linecap="round"/><path d="M267.80515,195.70925c0,0 3.03861,-4.18137 4.25886,-9.20528c0.47091,-1.93878 1.22027,-5.17408 1.88441,-8.85813c0.13859,-0.76873 -0.73712,-1.79591 -0.63726,-2.57651c0.56547,-4.41987 1.55438,-8.42841 1.55438,-8.42841l4.29816,1.04398l-6.67915,27.4987c0,0 -0.30228,0.71276 -0.50432,0.93855c-0.20518,0.22931 -0.71746,0.42691 -0.71746,0.42691z" data-paper-data="{&quot;index&quot;:null}" fill="url(#color-3)" stroke="none" stroke-width="NaN" stroke-linecap="butt"/><path d="M276.44234,181.01292c-0.17658,0.72699 -0.77159,1.06105 -1.12874,0.97995c-0.62031,-0.14087 -2.54653,-0.5783 -2.54653,-0.5783c0,0 0.43228,-2.2314 0.39005,-4.32599c-0.01667,-0.82717 0.28078,-5.04352 0.40886,-5.66791c0.52967,-2.58219 1.07494,-4.97929 1.07494,-4.97929c0,0 2.95945,0.71882 3.897,0.94654c0.49877,0.12115 0.95212,1.07736 0.76261,1.85757c-0.4319,1.77816 -2.16834,8.92728 -2.85819,11.76742z" data-paper-data="{&quot;index&quot;:null}" fill="url(#color-4)" stroke="none" stroke-width="0" stroke-linecap="butt"/><path d="M276.01782,177.43025l1.78173,-7.33553l1.45182,0.35263l-1.78173,7.33553z" data-paper-data="{&quot;index&quot;:null}" fill="url(#color-5)" stroke="none" stroke-width="0" stroke-linecap="butt"/></g></g></svg>