<svg version="1.1" xmlns="http://www.w3.org/2000/svg" xmlns:xlink="http://www.w3.org/1999/xlink" width="222.4591" height="107.13915" viewBox="0,0,222.4591,107.13915"><defs><radialGradient cx="239.08333" cy="224.41228" r="87" gradientUnits="userSpaceOnUse" id="color-1"><stop offset="0" stop-color="#494949"/><stop offset="1" stop-color="#1b1b1b"/></radialGradient><linearGradient x1="239.08333" y1="206.49093" x2="239.08333" y2="242.33363" gradientUnits="userSpaceOnUse" id="color-2"><stop offset="0" stop-color="#353535"/><stop offset="1" stop-color="#191919"/></linearGradient><radialGradient cx="215.03975" cy="236.6586" r="87.58372" gradientUnits="userSpaceOnUse" id="color-3"><stop offset="0" stop-color="#8a8a8a"/><stop offset="1" stop-color="#535353"/></radialGradient><linearGradient x1="239.33142" y1="223.41745" x2="239.33142" y2="274.82426" gradientUnits="userSpaceOnUse" id="color-4"><stop offset="0" stop-color="#353535"/><stop offset="1" stop-color="#191919"/></linearGradient><linearGradient x1="232.83334" y1="233.38891" x2="245.83334" y2="233.38891" gradientUnits="userSpaceOnUse" id="color-5"><stop offset="0" stop-color="#8a8a8a"/><stop offset="1" stop-color="#535353"/></linearGradient><linearGradient x1="239.33334" y1="222.88891" x2="239.33334" y2="243.88891" gradientUnits="userSpaceOnUse" id="color-6"><stop offset="0" stop-color="#353535"/><stop offset="1" stop-color="#191919"/></linearGradient><linearGradient x1="299.13871" y1="218.35619" x2="311.98791" y2="216.3818" gradientUnits="userSpaceOnUse" id="color-7"><stop offset="0" stop-color="#8a8a8a"/><stop offset="1" stop-color="#535353"/></linearGradient><linearGradient x1="303.96861" y1="206.9908" x2="307.15801" y2="227.74719" gradientUnits="userSpaceOnUse" id="color-8"><stop offset="0" stop-color="#353535"/><stop offset="1" stop-color="#191919"/></linearGradient><linearGradient x1="179.42671" y1="217.02285" x2="166.57752" y2="215.04846" gradientUnits="userSpaceOnUse" id="color-9"><stop offset="0" stop-color="#8a8a8a"/><stop offset="1" stop-color="#535353"/></linearGradient><linearGradient x1="174.59681" y1="205.65746" x2="171.40742" y2="226.41385" gradientUnits="userSpaceOnUse" id="color-10"><stop offset="0" stop-color="#353535"/><stop offset="1" stop-color="#191919"/></linearGradient><radialGradient cx="215.16137" cy="264.7573" r="4.98118" gradientUnits="userSpaceOnUse" id="color-11"><stop offset="0" stop-color="#272727"/><stop offset="1" stop-color="#464646"/></radialGradient><radialGradient cx="239.73515" cy="266.6855" r="4.98118" gradientUnits="userSpaceOnUse" id="color-12"><stop offset="0" stop-color="#272727"/><stop offset="1" stop-color="#464646"/></radialGradient><radialGradient cx="262.61642" cy="265.07867" r="4.98118" gradientUnits="userSpaceOnUse" id="color-13"><stop offset="0" stop-color="#272727"/><stop offset="1" stop-color="#464646"/></radialGradient><radialGradient cx="286.81998" cy="261.52202" r="4.98246" gradientUnits="userSpaceOnUse" id="color-14"><stop offset="0" stop-color="#272727"/><stop offset="1" stop-color="#464646"/></radialGradient><radialGradient cx="307.38662" cy="254.75029" r="4.98246" gradientUnits="userSpaceOnUse" id="color-15"><stop offset="0" stop-color="#272727"/><stop offset="1" stop-color="#464646"/></radialGradient><radialGradient cx="325.72985" cy="248.71063" r="4.98246" gradientUnits="userSpaceOnUse" id="color-16"><stop offset="0" stop-color="#272727"/><stop offset="1" stop-color="#464646"/></radialGradient><radialGradient cx="192.62447" cy="260.87929" r="4.98246" gradientUnits="userSpaceOnUse" id="color-17"><stop offset="0" stop-color="#272727"/><stop offset="1" stop-color="#464646"/></radialGradient><radialGradient cx="172.05783" cy="254.10756" r="4.98246" gradientUnits="userSpaceOnUse" id="color-18"><stop offset="0" stop-color="#272727"/><stop offset="1" stop-color="#464646"/></radialGradient><radialGradient cx="153.71461" cy="248.06791" r="4.98246" gradientUnits="userSpaceOnUse" id="color-19"><stop offset="0" stop-color="#272727"/><stop offset="1" stop-color="#464646"/></radialGradient><radialGradient cx="136.05841" cy="238.88333" r="48.36449" gradientUnits="userSpaceOnUse" id="color-20"><stop offset="0" stop-color="#afafaf"/><stop offset="1" stop-color="#6f6f6f"/></radialGradient><linearGradient x1="146" y1="216.83333" x2="146" y2="297.83333" gradientUnits="userSpaceOnUse" id="color-21"><stop offset="0" stop-color="#353535"/><stop offset="1" stop-color="#191919"/></linearGradient><radialGradient cx="140.75" cy="238.08333" r="23.75" gradientUnits="userSpaceOnUse" id="color-22"><stop offset="0" stop-color="#373737"/><stop offset="1" stop-color="#171717"/></radialGradient><linearGradient x1="146.5" y1="224.08333" x2="146.5" y2="267.08333" gradientUnits="userSpaceOnUse" id="color-23"><stop offset="0" stop-color="#353535"/><stop offset="1" stop-color="#191919"/></linearGradient><linearGradient x1="277.38132" y1="203.00591" x2="285.5599" y2="201.62959" gradientUnits="userSpaceOnUse" id="color-24"><stop offset="0" stop-color="#8a8a8a"/><stop offset="1" stop-color="#535353"/></linearGradient><linearGradient x1="280.45558" y1="195.08325" x2="282.48564" y2="209.55226" gradientUnits="userSpaceOnUse" id="color-25"><stop offset="0" stop-color="#353535"/><stop offset="1" stop-color="#191919"/></linearGradient><linearGradient x1="201.1841" y1="202.07646" x2="193.00553" y2="200.70014" gradientUnits="userSpaceOnUse" id="color-26"><stop offset="0" stop-color="#8a8a8a"/><stop offset="1" stop-color="#535353"/></linearGradient><linearGradient x1="198.10985" y1="194.15379" x2="196.07979" y2="208.62281" gradientUnits="userSpaceOnUse" id="color-27"><stop offset="0" stop-color="#353535"/><stop offset="1" stop-color="#191919"/></linearGradient></defs><g transform="translate(-116,-191.94419)"><g data-paper-data="{&quot;isPaintingLayer&quot;:true}" fill-rule="nonzero" stroke-linecap="butt" stroke-linejoin="miter" stroke-miterlimit="10" stroke-dasharray="" stroke-dashoffset="0" style="mix-blend-mode: normal"><path d="M239.58333,244.33363c-48.04878,0 -87.5,-10.02366 -87.5,-19.92135c0,-9.89769 38.95122,-17.92135 87,-17.92135c48.04878,0 87,8.02366 87,17.92135c0,9.89769 -38.45122,19.92135 -86.5,19.92135z" fill="url(#color-1)" stroke="url(#color-2)" stroke-width="2.5"/><path d="M142.83333,274.82426l8.91438,-51.40681c0,0 40.82049,20.64061 89.58945,20.64061c47.06037,0 85.57798,-20.64061 85.57798,-20.64061l10.25153,51.01736c0,0 -6.36384,18.43356 -93.66795,19.19372c-89.13754,0.77613 -100.66538,-18.80428 -100.66538,-18.80428z" fill="url(#color-3)" stroke="url(#color-4)" stroke-width="2.5"/><path d="M232.83334,243.88891v-21h13v21z" fill="url(#color-5)" stroke="url(#color-6)" stroke-width="1"/><path d="M307.6514,232.05557l-10.10739,-24.07757l6.18433,-3.64824l13.95974,22.81114z" fill="url(#color-7)" stroke="url(#color-8)" stroke-width="1"/><path d="M160.87735,225.80756l13.95973,-22.81114l6.18433,3.64824l-10.10738,24.07757z" data-paper-data="{&quot;index&quot;:null}" fill="url(#color-9)" stroke="url(#color-10)" stroke-width="1"/><g stroke="none" stroke-width="0.5"><path d="M210.18019,264.7573c0,-2.75102 2.23015,-4.98117 4.98117,-4.98117c2.75102,0 4.98118,2.23015 4.98118,4.98117c0,2.75102 -2.23015,4.98118 -4.98118,4.98118c-2.75102,0 -4.98117,-2.23015 -4.98117,-4.98118z" fill="url(#color-11)"/><path d="M234.75398,266.6855c0,-2.75102 2.23015,-4.98117 4.98117,-4.98117c2.75102,0 4.98117,2.23015 4.98117,4.98117c0,2.75102 -2.23015,4.98118 -4.98117,4.98118c-2.75102,0 -4.98117,-2.23015 -4.98117,-4.98118z" fill="url(#color-12)"/><path d="M257.63524,265.07867c0,-2.75102 2.23015,-4.98117 4.98118,-4.98117c2.75102,0 4.98117,2.23015 4.98117,4.98117c0,2.75102 -2.23015,4.98118 -4.98117,4.98118c-2.75102,0 -4.98118,-2.23015 -4.98118,-4.98118z" fill="url(#color-13)"/><path d="M282.65106,262.89466c-0.66003,-2.64451 0.6714,-5.40286 2.97382,-6.16096c2.30243,-0.75809 4.70397,0.77115 5.36401,3.41566c0.66003,2.64451 -0.6714,5.40287 -2.97383,6.16097c-2.30243,0.75809 -4.70397,-0.77116 -5.364,-3.41567z" fill="url(#color-14)"/><path d="M303.2177,256.12294c-0.66003,-2.64451 0.6714,-5.40286 2.97382,-6.16096c2.30243,-0.75809 4.70397,0.77115 5.36401,3.41566c0.66003,2.64451 -0.6714,5.40287 -2.97382,6.16096c-2.30243,0.75809 -4.70397,-0.77115 -5.36401,-3.41566z" fill="url(#color-15)"/><path d="M321.56093,250.08328c-0.66003,-2.64451 0.6714,-5.40287 2.97383,-6.16096c2.30243,-0.75809 4.70397,0.77115 5.364,3.41566c0.66003,2.64451 -0.6714,5.40287 -2.97382,6.16096c-2.30243,0.75809 -4.70397,-0.77115 -5.36401,-3.41566z" fill="url(#color-16)"/><path d="M191.42938,265.6676c-2.30243,-0.75809 -3.63386,-3.51646 -2.97383,-6.16097c0.66003,-2.64451 3.06158,-4.17375 5.36401,-3.41566c2.30243,0.75809 3.63385,3.51645 2.97382,6.16096c-0.66003,2.64451 -3.06158,4.17376 -5.364,3.41567z" data-paper-data="{&quot;index&quot;:null}" fill="url(#color-17)"/><path d="M170.86273,258.89587c-2.30243,-0.75809 -3.63385,-3.51645 -2.97382,-6.16096c0.66003,-2.64451 3.06158,-4.17375 5.36401,-3.41566c2.30243,0.75809 3.63385,3.51645 2.97382,6.16096c-0.66003,2.64451 -3.06158,4.17376 -5.36401,3.41566z" data-paper-data="{&quot;index&quot;:null}" fill="url(#color-18)"/><path d="M152.51951,252.85622c-2.30243,-0.75809 -3.63385,-3.51645 -2.97382,-6.16096c0.66003,-2.64451 3.06158,-4.17376 5.364,-3.41566c2.30243,0.75809 3.63386,3.51645 2.97383,6.16096c-0.66003,2.64451 -3.06158,4.17376 -5.36401,3.41566z" data-paper-data="{&quot;index&quot;:null}" fill="url(#color-19)"/></g><path d="M117.25,297.83333v-81h57.5v81z" fill="url(#color-20)" stroke="url(#color-21)" stroke-width="2.5"/><path d="M122.75,267.08333v-43h47.5v43z" fill="url(#color-22)" stroke="url(#color-23)" stroke-width="2.5"/><text transform="translate(128.25,237.93333) scale(0.19536,0.19536)" font-size="40" xml:space="preserve" fill="#ff0000" fill-rule="nonzero" stroke="none" stroke-width="1" stroke-linecap="butt" stroke-linejoin="miter" stroke-miterlimit="10" stroke-dasharray="" stroke-dashoffset="0" font-family="Pixel" font-weight="normal" text-anchor="start" style="mix-blend-mode: normal"><tspan x="0" dy="0">???</tspan></text><text transform="translate(127.25,248.93333) scale(0.19537,0.19537)" font-size="40" xml:space="preserve" fill="#ff0000" fill-rule="nonzero" stroke="none" stroke-width="1" stroke-linecap="butt" stroke-linejoin="miter" stroke-miterlimit="10" stroke-dasharray="" stroke-dashoffset="0" font-family="Pixel" font-weight="normal" text-anchor="start" style="mix-blend-mode: normal"><tspan x="0" dy="0">STATUS: </tspan><tspan x="0" dy="48px">BROKEN</tspan></text><path d="M282.79969,212.55558l-6.4334,-16.78416l3.93635,-2.54314l8.88544,15.90135z" fill="url(#color-24)" stroke="url(#color-25)" stroke-width="0.5"/><path d="M189.37735,208.20017l8.88543,-15.90135l3.93635,2.54314l-6.43339,16.78416z" data-paper-data="{&quot;index&quot;:null}" fill="url(#color-26)" stroke="url(#color-27)" stroke-width="0.5"/></g></g></svg>