<svg version="1.1" xmlns="http://www.w3.org/2000/svg" xmlns:xlink="http://www.w3.org/1999/xlink" width="66.33156" height="77.18561" viewBox="0,0,66.33156,77.18561"><defs><linearGradient x1="249.08759" y1="229.45492" x2="253.30453" y2="230.59013" gradientUnits="userSpaceOnUse" id="color-1"><stop offset="0" stop-color="#524c43"/><stop offset="1" stop-color="#36312c"/></linearGradient><linearGradient x1="249.08759" y1="229.45492" x2="253.30453" y2="230.59013" gradientUnits="userSpaceOnUse" id="color-2"><stop offset="0" stop-color="#1f1f1f"/><stop offset="1" stop-color="#000000"/></linearGradient><linearGradient x1="250.74038" y1="216.02441" x2="258.72056" y2="218.1726" gradientUnits="userSpaceOnUse" id="color-3"><stop offset="0" stop-color="#ab966a"/><stop offset="1" stop-color="#4f3f2d"/></linearGradient><linearGradient x1="250.74038" y1="216.02441" x2="258.72056" y2="218.1726" gradientUnits="userSpaceOnUse" id="color-4"><stop offset="0" stop-color="#1f1f1f"/><stop offset="1" stop-color="#000000"/></linearGradient><linearGradient x1="227.31976" y1="229.21611" x2="231.81034" y2="228.70994" gradientUnits="userSpaceOnUse" id="color-5"><stop offset="0" stop-color="#523f2b"/><stop offset="1" stop-color="#2e2316"/></linearGradient><linearGradient x1="227.31976" y1="229.21611" x2="231.81034" y2="228.70994" gradientUnits="userSpaceOnUse" id="color-6"><stop offset="0" stop-color="#1f1f1f"/><stop offset="1" stop-color="#000000"/></linearGradient><linearGradient x1="253.83759" y1="229.95492" x2="258.05453" y2="231.09013" gradientUnits="userSpaceOnUse" id="color-7"><stop offset="0" stop-color="#524c43"/><stop offset="1" stop-color="#36312c"/></linearGradient><linearGradient x1="253.83759" y1="229.95492" x2="258.05453" y2="231.09013" gradientUnits="userSpaceOnUse" id="color-8"><stop offset="0" stop-color="#1f1f1f"/><stop offset="1" stop-color="#000000"/></linearGradient><linearGradient x1="255.49038" y1="216.52441" x2="263.47056" y2="218.6726" gradientUnits="userSpaceOnUse" id="color-9"><stop offset="0" stop-color="#ab966a"/><stop offset="1" stop-color="#4f3f2d"/></linearGradient><linearGradient x1="255.49038" y1="216.52441" x2="263.47056" y2="218.6726" gradientUnits="userSpaceOnUse" id="color-10"><stop offset="0" stop-color="#1f1f1f"/><stop offset="1" stop-color="#000000"/></linearGradient><linearGradient x1="260.35408" y1="216.92885" x2="268.33425" y2="219.07706" gradientUnits="userSpaceOnUse" id="color-11"><stop offset="0" stop-color="#ab966a"/><stop offset="1" stop-color="#4f3f2d"/></linearGradient><linearGradient x1="260.35408" y1="216.92885" x2="268.33425" y2="219.07706" gradientUnits="userSpaceOnUse" id="color-12"><stop offset="0" stop-color="#1f1f1f"/><stop offset="1" stop-color="#000000"/></linearGradient><linearGradient x1="258.75642" y1="230.36771" x2="262.97336" y2="231.50292" gradientUnits="userSpaceOnUse" id="color-13"><stop offset="0" stop-color="#524c43"/><stop offset="1" stop-color="#36312c"/></linearGradient><linearGradient x1="258.75642" y1="230.36771" x2="262.97336" y2="231.50292" gradientUnits="userSpaceOnUse" id="color-14"><stop offset="0" stop-color="#1f1f1f"/><stop offset="1" stop-color="#000000"/></linearGradient><linearGradient x1="219.81976" y1="227.96611" x2="224.31034" y2="227.45994" gradientUnits="userSpaceOnUse" id="color-15"><stop offset="0" stop-color="#523f2b"/><stop offset="1" stop-color="#2e2316"/></linearGradient><linearGradient x1="219.81976" y1="227.96611" x2="224.31034" y2="227.45994" gradientUnits="userSpaceOnUse" id="color-16"><stop offset="0" stop-color="#1f1f1f"/><stop offset="1" stop-color="#000000"/></linearGradient><linearGradient x1="207.34165" y1="241.89367" x2="271.5105" y2="241.89367" gradientUnits="userSpaceOnUse" id="color-17"><stop offset="0" stop-color="#b8a687"/><stop offset="1" stop-color="#4a443b"/></linearGradient><linearGradient x1="207.34165" y1="241.89367" x2="271.5105" y2="241.89367" gradientUnits="userSpaceOnUse" id="color-18"><stop offset="0" stop-color="#1f1a11"/><stop offset="1" stop-color="#191100"/></linearGradient><linearGradient x1="229.30001" y1="221.28131" x2="249.70001" y2="221.28131" gradientUnits="userSpaceOnUse" id="color-19"><stop offset="0" stop-color="#5c503f"/><stop offset="1" stop-color="#241c12"/></linearGradient><linearGradient x1="222.70001" y1="236.57464" x2="255.50001" y2="236.57464" gradientUnits="userSpaceOnUse" id="color-20"><stop offset="0" stop-color="#5c503f"/><stop offset="1" stop-color="#241c12"/></linearGradient><linearGradient x1="217.16343" y1="253.45734" x2="261.19757" y2="253.45734" gradientUnits="userSpaceOnUse" id="color-21"><stop offset="0" stop-color="#5c503f"/><stop offset="1" stop-color="#241c12"/></linearGradient><linearGradient x1="211.30001" y1="270.27212" x2="267.30001" y2="270.27212" gradientUnits="userSpaceOnUse" id="color-22"><stop offset="0" stop-color="#5c503f"/><stop offset="1" stop-color="#241c12"/></linearGradient><linearGradient x1="207.87501" y1="208.43028" x2="271.87501" y2="208.43028" gradientUnits="userSpaceOnUse" id="color-23"><stop offset="0" stop-color="#a89d8a"/><stop offset="1" stop-color="#665a54"/></linearGradient><linearGradient x1="207.87501" y1="208.43028" x2="271.87501" y2="208.43028" gradientUnits="userSpaceOnUse" id="color-24"><stop offset="0" stop-color="#1f1f1f"/><stop offset="1" stop-color="#000000"/></linearGradient></defs><g transform="translate(-206.31731,-203.00005)"><g data-paper-data="{&quot;isPaintingLayer&quot;:true}" fill-rule="nonzero" stroke-linejoin="miter" stroke-miterlimit="10" stroke-dasharray="" stroke-dashoffset="0" style="mix-blend-mode: normal"><g><path d="M247.33075,235.98117l3.51367,-13.0525l4.21694,1.13518l-3.51367,13.0525z" fill="url(#color-1)" stroke="url(#color-2)" stroke-width="1.5" stroke-linecap="butt"/><path d="M258.72056,218.1726c-1.5862,5.77341 -1.84724,6.36656 -5.69644,5.26467c-3.85043,-1.10226 -3.81066,-1.93174 -2.28372,-7.41289c1.68585,-6.05154 1.7881,-6.47621 5.69645,-5.26466c3.74473,1.16083 4.02552,1.07307 2.28371,7.41288z" fill="url(#color-3)" stroke="url(#color-4)" stroke-width="1.5" stroke-linecap="butt"/><path d="M230.72507,251.04267l-10.33112,-39.58451l6.4105,-0.83507l5.16121,40.16343z" fill="url(#color-5)" stroke="url(#color-6)" stroke-width="1.5" stroke-linecap="butt"/><path d="M252.08075,236.48117l3.51367,-13.0525l4.21694,1.13518l-3.51367,13.0525z" fill="url(#color-7)" stroke="url(#color-8)" stroke-width="1.5" stroke-linecap="butt"/><path d="M263.47056,218.6726c-1.5862,5.77341 -1.84724,6.36656 -5.69644,5.26467c-3.85043,-1.10226 -3.81066,-1.93174 -2.28372,-7.41289c1.68584,-6.05154 1.7881,-6.47621 5.69645,-5.26466c3.74473,1.16083 4.02552,1.07307 2.28371,7.41288z" fill="url(#color-9)" stroke="url(#color-10)" stroke-width="1.5" stroke-linecap="butt"/><path d="M268.33425,219.07706c-1.5862,5.77341 -1.84725,6.36655 -5.69645,5.26466c-3.85042,-1.10226 -3.81066,-1.93174 -2.28372,-7.41289c1.68584,-6.05154 1.78809,-6.47621 5.69645,-5.26467c3.74473,1.16083 4.02553,1.07308 2.28372,7.41289z" fill="url(#color-11)" stroke="url(#color-12)" stroke-width="1.5" stroke-linecap="butt"/><path d="M254.01424,233.44533c0,0 3.88077,0.12237 4.3983,-1.80013c0.63104,-2.34416 2.10072,-7.80369 2.10072,-7.80369l4.21694,1.13518c0,0 -1.37843,5.12058 -1.99856,7.42425c-0.23189,0.86142 -1.51268,2.46744 -3.24478,3.4621c-2.301,1.32136 -5.16649,1.93746 -5.16649,1.93746z" fill="url(#color-13)" stroke="url(#color-14)" stroke-width="1.5" stroke-linecap="butt"/><path d="M223.22507,249.79267l-10.33112,-39.58451l6.4105,-0.83507l5.16121,40.16343z" fill="url(#color-15)" stroke="url(#color-16)" stroke-width="1.5" stroke-linecap="butt"/><path d="M207.34165,279.43566c0,0 23.96029,-75.63152 32.08881,-75.08097c9.29886,0.62981 32.08004,75.08097 32.08004,75.08097z" fill="url(#color-17)" stroke="url(#color-18)" stroke-width="1.5" stroke-linecap="butt"/><path d="M229.30001,221.28131h20.4" fill="none" stroke="url(#color-19)" stroke-width="4.5" stroke-linecap="round"/><path d="M222.70001,236.57464h32.8" fill="none" stroke="url(#color-20)" stroke-width="4.5" stroke-linecap="round"/><path d="M217.16342,253.45734h44.03415" fill="none" stroke="url(#color-21)" stroke-width="4.5" stroke-linecap="round"/><path d="M211.30001,270.27212h56" fill="none" stroke="url(#color-22)" stroke-width="4.5" stroke-linecap="round"/><path d="M207.87501,203.75005h64c0,0 -0.14445,4.61077 -0.98682,6.27077c-0.72248,1.42372 -3.76318,3.08965 -3.76318,3.08965h-55c0,0 -2.31812,-1.76745 -2.93964,-3.13632c-0.76509,-1.68508 -1.31036,-6.2241 -1.31036,-6.2241z" fill="url(#color-23)" stroke="url(#color-24)" stroke-width="1.5" stroke-linecap="butt"/></g></g></g></svg>