<svg version="1.1" xmlns="http://www.w3.org/2000/svg" xmlns:xlink="http://www.w3.org/1999/xlink" width="1182.84985" height="181.09654" viewBox="0,0,1182.84985,181.09654"><defs><linearGradient x1="315.15494" y1="184.69114" x2="315.15494" y2="368.51728" gradientUnits="userSpaceOnUse" id="color-1"><stop offset="0" stop-color="#7f8f44"/><stop offset="1" stop-color="#6b7347"/></linearGradient><linearGradient x1="855.33494" y1="184.69114" x2="855.33494" y2="368.51728" gradientUnits="userSpaceOnUse" id="color-2"><stop offset="0" stop-color="#7f8f44"/><stop offset="1" stop-color="#6b7347"/></linearGradient></defs><g transform="translate(6.17998,-184.69114)"><g data-paper-data="{&quot;isPaintingLayer&quot;:true}" fill-rule="nonzero" stroke="none" stroke-width="0.25" stroke-linecap="butt" stroke-linejoin="miter" stroke-miterlimit="10" stroke-dasharray="" stroke-dashoffset="0" style="mix-blend-mode: normal"><path d="M2.91797,211.10316c0.01129,0.00388 -0.07523,-0.0128 -0.0638,-0.00899c2.37171,0.79057 3.16235,-1.58148 3.16235,-1.58148c0.33376,-1.02798 1.07901,-4.01459 2.14596,-4.8046c0.71933,-0.53262 1.7798,-0.34206 2.58094,-0.74118c2.67773,-1.334 4.78348,-2.85759 8.1773,-1.85365c1.02734,0.30391 1.75962,1.40877 2.72311,1.87726c2.53477,1.23252 4.47268,1.5379 7.24767,1.21794c3.61814,-0.41718 8.49864,-1.5801 11.8523,-3.24307c2.02919,-1.00621 3.95322,-2.5434 6.20729,-2.76526c2.36203,-0.23249 4.84658,-0.72938 7.12026,-0.04851c2.36073,0.70694 4.54335,2.18319 6.87973,2.96687c2.14851,0.69756 3.92543,2.29973 6.06617,3.0208c0.94768,0.31921 2.04536,-0.29778 2.99995,0.00016c2.64029,0.82407 4.17124,3.778 6.7042,4.88899c3.21047,1.40815 8.5905,1.61387 12.17058,1.17824c3.02378,-0.36794 7.81922,-1.94697 11.02946,-1.09598c2.70592,0.7173 2.11017,3.01431 4.86345,3.94598c1.56622,0.52998 3.20779,0.12993 4.86094,0.16153c4.70288,0.08989 9.92624,-0.6583 14.59986,-0.03329c1.74276,0.23306 2.90406,2.22557 4.5389,2.87274c1.10328,0.43675 2.27565,0.07468 3.46107,0.12735c5.54578,1.84859 12.18148,1.43072 17.49944,-1.22369c0.95857,-0.47847 1.60877,-1.51861 2.62635,-1.85377c0.94981,-0.31284 2.05243,0.31892 3.00011,-0.00029c1.26329,-0.42551 2.18934,-1.53719 3.37428,-2.14783c1.97953,-1.02012 4.4869,-0.23642 6.62648,-0.85399c1.28075,-0.36967 2.17996,-1.55592 3.37434,-2.14788c1.01699,-0.50404 2.24878,-0.5263 3.21627,-1.11983c0.21367,-0.13108 4.07823,-3.95274 4.45428,-4.36053c0.42514,-0.46102 0.59986,-1.24427 1.18922,-1.45859c0.73774,-0.26828 1.5705,0.27286 2.3489,0.17129c2.43409,-0.31762 4.8697,-1.39492 7.29482,-1.01484c1.04138,0.16321 1.95948,0.83196 3.00012,0.9998c0.25902,0.04177 5.92105,0.03129 6.40107,0.03129c4.91089,-0.01138 5.7842,0.32285 10.61271,-1.08513c1.53761,-0.44837 2.89488,-1.44828 4.45862,-1.79465c2.60237,-0.57643 5.43189,-0.28289 7.88911,-1.3157c2.80987,-1.18104 6.37142,-4.50781 9.64538,-3.84484c3.79743,0.76897 4.93614,2.05504 7.81617,4.46493c0.85942,0.71913 2.09425,1.11402 2.88774,1.9053c0.92702,0.92445 1.12643,2.37062 2.17975,3.14811c2.0585,1.51945 5.09903,0.63007 7.56242,1.32136c1.72291,0.48349 2.12296,3.06851 3.72502,3.86575c5.38242,2.67847 13.26005,1.61591 18.78705,0.25836c6.95831,-1.40814 13.97447,0.16787 20.86349,-0.97678c6.16607,-1.02453 11.85876,-5.01069 18.01262,-6.00234c0.98726,-0.15909 2.0164,0.16898 3.00201,-0.00007c3.0843,-0.52901 5.93415,-2.48575 9.00581,-2.99974c2.90831,-0.48666 6.08007,0.48114 9.00559,0.00089c2.49516,-0.40961 4.84935,-1.45313 7.30241,-2.0664c4.02624,-1.34208 7.93315,-1.9889 11.62045,-4.27181c2.6739,-1.65549 4.58836,-4.51367 7.47835,-5.75396c0.79999,-0.34333 1.75224,0.23966 2.61095,0.09654c3.59534,-0.59922 7.79219,-3.38292 11.64661,-2.15587c0.65341,0.20802 0.7991,1.13284 1.31947,1.57943c3.14581,2.69978 6.81555,4.52281 10.05761,7.04811c0.93178,0.72578 1.52906,1.94848 2.62951,2.37741c2.86045,1.11493 7.87579,0.1928 10.95932,0.1928c1.68229,0 3.5052,-0.86852 5.04427,-0.18927c0.7469,0.32964 1.09561,1.21205 1.64307,1.81769c10.25542,3.51403 21.39395,-0.25408 31.91852,1.34725c2.79912,0.42589 2.58093,1.42381 5.30301,2.77958c0.87127,0.43395 1.9498,0.38063 2.78442,0.88147c0.75878,0.45533 1.11373,1.41583 1.85297,1.90223c1.65917,1.09167 5.83695,3.06081 8.06234,3.44158c3.08405,0.52768 7.2977,0.13127 10.40106,0.03355c0.6837,-0.02153 1.44043,-0.51319 2.04337,-0.19011c1.72489,0.92425 2.63375,2.89957 4.024,4.27678c2.03227,3.07009 4.30358,7.82588 7.70281,9.59374c0.3206,0.16674 8.37094,2.22745 8.92671,2.3071c0.9013,0.12916 1.85667,-0.30156 2.73114,-0.04795c1.35414,0.39273 2.42392,1.49176 3.76326,1.93232c3.31543,1.09056 6.94264,0.72873 10.41111,1.11743c4.8106,0.53911 9.84915,1.7957 14.80122,0.98765c2.81734,-0.45972 5.50172,-1.15522 8.20975,-2.05819c1.89309,-0.63124 4.56716,-2.58447 6.79018,-2.94211c2.22965,-0.35871 3.94615,0.6631 6.22678,-0.05159c1.14686,-0.35939 1.86305,-1.61032 3.00006,-1.99974c0.8144,-0.27893 1.81788,0.03555 2.67821,0.06506c2.63821,-0.65955 5.40503,-0.61462 8.09504,-1.01337c3.75347,-0.5564 9.19746,-2.51223 12.60065,-4.19873c1.07687,-0.53366 1.92587,-1.46074 3.00006,-1.99977c1.01448,-0.50906 2.24186,-0.53649 3.21596,-1.1191c0.78257,-0.46806 1.10531,-1.5363 1.91748,-1.95087c1.02634,-0.52389 2.25351,-0.48364 3.37459,-0.75016c2.29294,-0.54511 4.5675,-1.58754 6.89107,-1.98216c2.19923,-0.3735 5.48815,-0.25891 7.50128,0.77851c1.18494,0.61063 2.10354,1.74396 3.37404,2.14743c1.18375,0.37592 2.48262,0.09018 3.7245,0.10743c5.04396,0.07005 9.96738,0.4314 14.79065,-1.12794c1.78977,-0.61992 3.74159,-0.59255 5.6099,-0.90394c3.12396,-0.52066 7.37692,-2.00396 10.64288,-1.15784c1.61004,0.41712 1.01853,3.17238 1.67058,4.70244c0.90051,2.11306 2.5484,4.01255 2.80521,6.29509c0.09066,0.80583 -0.13622,6.16632 0.01373,7.09606c0.16784,1.04064 0.82056,1.96178 1.00007,3.00048c0.50053,2.89625 -0.03209,6.69253 -0.03209,9.601c0,6.86657 -0.01564,13.73629 0.03255,20.60271c-1.68958,5.06874 -0.11872,9.90334 -0.99993,15.00233c-3.61189,20.89962 -4.03319,42.03465 -4.03319,63.41031c0,3.9436 -0.61541,8.5185 0.03189,12.40229c0.15201,0.91202 0.96764,1.67528 0.96764,2.59989c0,0.9246 -0.81582,1.68792 -0.96782,2.59995c-0.18635,1.11812 -0.02668,2.26743 -0.0324,3.40095c-0.00942,1.86652 0.01411,3.73388 0.03207,5.60034c0.0044,0.45743 0.43691,1.21927 0.00589,1.37254c-0.81083,0.28833 -1.67989,-0.40991 -2.53823,-0.47186c-2.99222,-0.21596 -625.59304,-1.37423 -626.96971,-3.81491c-2.03575,-3.60915 -0.21931,-10.09684 -0.64587,-13.99319c-0.37475,-3.42315 -1.43545,-6.74956 -2.01388,-10.09657c-0.34059,-1.97079 0.31828,-4.02642 -0.00017,-6.0009c-0.16784,-1.04064 -0.82057,-1.96178 -1.00008,-3.00048c-0.83163,-4.81207 0.69003,-10.05387 0.01323,-14.90728c-0.55907,-4.00917 -1.01456,-8.05942 -2.00018,-12.00189c0.02007,-2.88646 0.44452,-6.25568 -0.01364,-9.09642c-0.16784,-1.04064 -0.82051,-1.96178 -1.00002,-3.00048c-0.9409,-5.44437 0.68782,-11.41013 0.01351,-16.90764c-0.16732,-1.36415 -0.80067,-2.64078 -0.99999,-4.00062c-0.53636,-3.65924 0.01881,-8.0251 0.01881,-11.69636c0,-4.646 -0.70672,-10.00099 -0.03209,-14.60179c0.15293,-1.04294 0.83221,-1.95984 1.00005,-3.00048c0.4535,-2.81181 0.03566,-6.1445 0.00018,-9.00137c0.29835,-0.86135 1.90359,-5.43796 2.00015,-6.00095c0.30197,-1.76058 -0.05083,-3.72065 0.77821,-5.3029c0.55779,-1.06457 1.46427,-1.92471 2.00009,-3.00051c0.74475,-1.49528 1.30641,-3.18568 2.52213,-4.33134l0.40762,-0.40767z" data-paper-data="{&quot;noHover&quot;:false,&quot;origItem&quot;:[&quot;Path&quot;,{&quot;applyMatrix&quot;:true,&quot;segments&quot;:[[-41.63093,217.09289],[[-42.03853,217.50049],[0,0],[-1.21572,1.14566]],[[-44.56051,221.8311],[0.74475,-1.49528],[-0.53582,1.0758]],[[-46.56051,224.8311],[0.55779,-1.06457],[-0.82904,1.58225]],[[-47.33858,230.13318],[0.30197,-1.76058],[-0.09656,0.56299]],[[-49.33858,236.13318],[0.29835,-0.86135],[0.03548,2.85687]],[[-49.33858,245.13318],[0.4535,-2.81181],[-0.16784,1.04064]],[[-50.33858,248.13318],[0.15293,-1.04294],[-0.67463,4.6008]],[[-50.3063,262.73272],[0,-4.646],[0,3.67126]],[[-50.32503,274.42726],[-0.53636,-3.65924],[0.19932,1.35984]],[[-49.32503,278.42726],[-0.16732,-1.36415],[0.67431,5.49751]],[[-49.33858,295.33226],[-0.9409,-5.44437],[0.17951,1.0387]],[[-48.33858,298.33226],[-0.16784,-1.04064],[0.45816,2.84074]],[[-48.32503,307.42726],[0.02007,-2.88646],[0.98562,3.94247]],[[-46.32503,319.42726],[-0.55907,-4.00917],[0.6768,4.85341]],[[-46.33858,334.33226],[-0.83163,-4.81207],[0.17951,1.0387]],[[-45.33858,337.33226],[-0.16784,-1.04064],[0.31845,1.97448]],[[-45.33858,343.33226],[-0.34059,-1.97079],[0.57843,3.34701]],[[-43.32503,353.42726],[-0.37475,-3.42315],[0.42656,3.89635]],[[-42.67967,367.41839],[-2.03575,-3.60915],[1.37667,2.44068]],[[-36.40584,369.265],[-2.15482,-0.35914],[1.03975,0.17329]],[[-33.40584,370.265],[-1,-0.33333],[4.83849,-0.06008]],[[-19.55995,371.24489],[-4.78161,-0.53497],[3.31736,0.37115]],[[-9.40584,371.265],[-3.30278,-0.53268],[3.03476,0.48945]],[[-0.40584,373.265],[-3.03099,-0.52382],[2.62771,0.45412]],[[7.59416,373.265],[-2.64676,-0.32524],[1.04622,0.12856]],[[10.59416,374.265],[-1.04294,-0.15293],[2.1766,0.31916]],[[17.1937,374.23272],[-2.19987,0],[7,0]],[[38.1937,374.23272],[-7,0],[12,0]],[[74.1937,374.23272],[-12,0],[5.50715,0]],[[91.03971,374.22594],[-5.46806,0.55888],[1.6596,-0.16962]],[[95.94735,373.24489],[-1.65851,0.17995],[3.51835,-0.38175]],[[106.79324,373.265],[-3.47732,0.60096],[1.0387,-0.17951]],[[109.79324,372.265],[-1.04064,0.16784],[2.92752,-0.47216]],[[119.18777,372.23273],[-2.97233,-0.00001],[2.93836,-0.00509]],[[127.94735,371.24489],[-2.92441,0.28605],[0.1639,-0.01603]],[[138.19369,371.23272],[-0.3166,0],[9.98155,0]],[[168.14823,371.23313],[-9.98047,0.13718],[4.35752,-0.05989]],[[181.01646,370.23901],[-4.32021,0.33772],[11.89557,-0.92992]],[[217.19368,370.23272],[-11.94053,0],[7.33333,0]],[[239.19368,370.23272],[-7.33333,0],[3.95541,0]],[[251.59414,370.265],[-3.89932,-0.62889],[1.04064,0.16784]],[[254.59414,371.265],[-1.0387,-0.17951],[3.59174,0.62073]],[[266.1937,371.23272],[-3.65549,-0.00002],[6.5255,0.00003]],[[285.39989,372.24124],[-6.46154,-0.53582],[3.04128,0.25219]],[[294.49915,373.25145],[-2.96061,-0.74015],[6.89815,-0.02752]],[[315.19369,373.23272],[-6.8982,0],[3.85489,0]],[[327.49915,373.25145],[-3.84491,-0.47161],[1.36415,0.16732]],[[331.49915,374.25145],[-1.36333,-0.17386],[4.05079,0.51659]],[[344.19369,374.23272],[-4.09494,0],[10,0]],[[374.19369,374.23272],[-10,0],[10.33333,0]],[[405.19369,374.23272],[-10.33333,0],[4.22065,0]],[[418.13374,374.20683],[-4.19243,0.42865],[5.26589,-0.53841]],[[433.79323,371.265],[-5.13536,0.82824],[3.2911,-0.5308]],[[443.88823,371.25145],[-3.28755,0.48188],[4.43716,-0.65039]],[[456.19369,370.23272],[-4.5893,0],[8.33333,0]],[[481.19369,370.23272],[-8.33333,0],[3.20648,0]],[[491.03664,370.22625],[-3.17772,0.40445],[9.36175,-1.19152]],[[519.19369,369.23272],[-9.47656,0],[8.40478,0]],[[544.44003,370.24489],[-8.25457,-1.65222],[4.57922,-0.01484]],[[557.49914,371.25145],[-4.47143,-0.65541],[5.62273,0.82417]],[[575.19368,371.23272],[-5.68154,0],[3,0]],[[584.19368,371.23272],[-2.99222,-0.21596],[0.85834,0.06195]],[[586.7319,371.70461],[-0.81083,0.28833],[0.43102,-0.15327]],[[586.72596,370.33226],[0.0044,0.45743],[-0.01796,-1.86646]],[[586.69368,364.73272],[-0.00942,1.86652],[0.00572,-1.13352]],[[586.72596,361.33226],[-0.18635,1.11812],[0.152,-0.91203]],[[587.69368,358.73272],[0,0.9246],[0,-0.92461]],[[586.72596,356.13318],[0.15201,0.91202],[-0.6473,-3.88379]],[[586.69368,343.73272],[0,3.9436],[0,-21.37566]],[[590.72596,280.33226],[-3.61189,20.89962],[0.88121,-5.09899]],[[591.72596,265.33226],[-1.68958,5.06874],[-0.04819,-6.86642]],[[591.69368,244.73272],[0,6.86657],[0,-2.90847]],[[591.72596,235.13318],[0.50053,2.89625],[-0.17951,-1.0387]],[[590.72596,232.13318],[0.16784,1.04064],[-0.14995,-0.92974]],[[590.71241,225.03818],[0.09066,0.80583],[-0.25681,-2.28254]],[[587.90739,218.74411],[0.90051,2.11306],[-0.65205,-1.53006]],[[586.23697,214.04242],[1.61004,0.41712],[-3.26596,-0.84612]],[[575.59413,215.20044],[3.12396,-0.52066],[-1.86831,0.31139]],[[569.98424,216.10443],[1.78977,-0.61992],[-4.82327,1.55934]],[[555.19367,217.23272],[5.04396,0.07005],[-1.24188,-0.01725]],[[551.46921,217.12545],[1.18375,0.37592],[-1.2705,-0.40347]],[[548.09529,214.97851],[1.18494,0.61063],[-2.01313,-1.03742]],[[540.59412,214.20044],[2.19923,-0.3735],[-2.32357,0.39462]],[[533.8,216.15808],[2.29294,-0.54511],[-1.12108,0.26652]],[[530.42541,216.90822],[1.02634,-0.52389],[-0.81217,0.41457]],[[528.50799,218.85935],[0.78257,-0.46806],[-0.9741,0.58261]],[[525.29204,219.97851],[1.01448,-0.50906],[-1.07419,0.53903]],[[522.29204,221.97851],[1.07687,-0.53366],[-3.40319,1.6865]],[[509.59412,226.20044],[3.75347,-0.5564],[-2.69001,0.39875]],[[501.49912,227.21399],[2.63821,-0.65955],[-0.86033,-0.02951]],[[498.91812,227.12545],[0.8144,-0.27893],[-1.13701,0.38942]],[[495.91812,229.12545],[1.14686,-0.35939],[-2.28063,0.71469]],[[489.59412,229.20044],[2.22965,-0.35871],[-2.22302,0.35764]],[[482.90116,232.11913],[1.89309,-0.63124],[-2.70803,0.90297]],[[474.59412,234.20044],[2.81734,-0.45972],[-4.95207,0.80805]],[[459.79317,233.21388],[4.8106,0.53911],[-3.46847,-0.3887]],[[449.38232,232.09741],[3.31543,1.09056],[-1.33934,-0.44056]],[[445.61928,230.16585],[1.35414,0.39273],[-0.87447,-0.25361]],[[442.8882,230.214],[0.9013,0.12916],[-0.55577,-0.07965]],[[433.96191,227.90823],[0.3206,0.16674],[-3.39923,-1.76786]],[[426.2603,218.3177],[2.03227,3.07009],[-1.39025,-1.37721]],[[422.23695,214.04243],[1.72489,0.92425],[-0.60294,-0.32308]],[[420.19366,214.23273],[0.6837,-0.02153],[-3.10336,0.09772]],[[409.7932,214.20045],[3.08405,0.52768],[-2.22539,-0.38077]],[[401.73188,210.76084],[1.65917,1.09167],[-0.73924,-0.4864]],[[399.87933,208.85936],[0.75878,0.45533],[-0.83462,-0.50084]],[[397.09528,207.97852],[0.87127,0.43395],[-2.72208,-1.35577]],[[391.7932,205.20045],[2.79912,0.42589],[-10.52457,-1.60133]],[[359.87933,203.85936],[10.25542,3.51403],[-0.54746,-0.60564]],[[358.23695,202.04243],[0.7469,0.32964],[-1.53907,-0.67925]],[[353.19366,202.23273],[1.68229,0],[-3.08353,0]],[[342.23695,202.04243],[2.86045,1.11493],[-1.10045,-0.42893]],[[339.60869,199.66609],[0.93178,0.72578],[-3.24206,-2.5253]],[[329.55566,192.62137],[3.14581,2.69978],[-0.52037,-0.44659]],[[328.23696,191.04243],[0.65341,0.20802],[-3.85442,-1.22705]],[[316.59412,193.20045],[3.59534,-0.59922],[-0.85871,0.14312]],[[313.98423,193.10444],[0.79999,-0.34333],[-2.88999,1.24029]],[[306.50799,198.85936],[2.6739,-1.65549],[-3.6873,2.28291]],[[294.89263,203.13303],[4.02624,-1.34208],[-2.45306,0.61327]],[[287.59412,205.20045],[2.49516,-0.40961],[-2.92552,0.48025]],[[278.59412,205.20045],[2.90831,-0.48666],[-3.07166,0.51399]],[[269.59412,208.20045],[3.0843,-0.52901],[-0.98561,0.16905]],[[266.59412,208.20045],[0.98726,-0.15909],[-6.15386,0.99165]],[[248.59412,214.20045],[6.16607,-1.02453],[-6.88902,1.14465]],[[227.74213,215.17183],[6.95831,-1.40814],[-5.527,1.35755]],[[208.96191,214.90824],[5.38242,2.67847],[-1.60206,-0.79724]],[[205.23695,211.04244],[1.72291,0.48349],[-2.46339,-0.69129]],[[197.67617,209.71951],[2.0585,1.51945],[-1.05332,-0.77749]],[[195.42589,206.50051],[0.92702,0.92445],[-0.79349,-0.79128]],[[192.60868,204.6661],[0.85942,0.71913],[-2.88003,-2.40989]],[[184.7932,200.20046],[3.79743,0.76897],[-3.27396,-0.66297]],[[175.15036,204.04244],[2.80987,-1.18104],[-2.45722,1.03281]],[[167.26269,205.3563],[2.60237,-0.57643],[-1.56374,0.34637]],[[162.80498,207.14969],[1.53761,-0.44837],[-4.82851,1.40798]],[[152.19365,208.23274],[4.91089,-0.01138],[-0.48002,0]],[[145.79319,208.20046],[0.25902,0.04177],[-1.04064,-0.16784]],[[142.79319,207.20046],[1.04138,0.16321],[-2.42512,-0.38008]],[[135.4991,208.21401],[2.43409,-0.31762],[-0.7784,0.10157]],[[133.15035,208.04244],[0.73774,-0.26828],[-0.58936,0.21432]],[[131.96141,209.50051],[0.42514,-0.46102],[-0.37605,0.40779]],[[127.50797,213.85937],[0.21367,-0.13108],[-0.96749,0.59353]],[[124.29202,214.97853],[1.01699,-0.50404],[-1.19438,0.59196]],[[120.9181,217.12547],[1.28075,-0.36967],[-2.13958,0.61757]],[[114.29202,217.97853],[1.97953,-1.02012],[-1.18494,0.61064]],[[110.9181,220.12547],[1.26329,-0.42551],[-0.94768,0.31921]],[[107.9181,220.12547],[0.94981,-0.31284],[-1.01758,0.33516]],[[105.29202,221.97853],[0.95857,-0.47847],[-5.31796,2.65441]],[[87.79319,223.20046],[5.54578,1.84859],[-1.18542,-0.05267]],[[84.23694,223.04244],[1.10328,0.43675],[-1.63484,-0.64717]],[[79.79319,220.20046],[1.74276,0.23306],[-4.67362,-0.62501]],[[65.19365,220.23274],[4.70288,0.08989],[-1.65315,-0.0316]],[[60.23694,220.04244],[1.56622,0.52998],[-2.75328,-0.93167]],[[55.46919,216.12547],[2.70592,0.7173],[-3.21024,-0.85099]],[[44.43999,217.22057],[3.02378,-0.36794],[-3.58008,0.43563]],[[32.17322,216.015],[3.21047,1.40815],[-2.53296,-1.11099]],[[25.46918,211.12546],[2.64029,0.82407],[-0.95459,-0.29794]],[[22.46918,211.12546],[0.94768,0.31921],[-2.14074,-0.72107]],[[16.40307,208.10444],[2.14851,0.69756],[-2.33638,-0.78368]],[[9.61926,205.16585],[2.36073,0.70694],[-2.27368,-0.68087]],[[2.4991,205.214],[2.36203,-0.23249],[-2.25407,0.22186]],[[-3.70798,207.97852],[2.02919,-1.00621],[-3.35366,1.66297]],[[-15.56001,211.22057],[3.61814,-0.41718],[-2.77499,0.31996]],[[-22.90473,209.97852],[2.53477,1.23252],[-0.96349,-0.46849]],[[-25.53081,208.12546],[1.02734,0.30391],[-3.39382,-1.00394]],[[-33.70797,209.97852],[2.67773,-1.334],[-0.80114,0.39912]],[[-36.28886,210.7195],[0.71933,-0.53262],[-1.06695,0.79001]],[[-38.43464,215.5233],[0.33376,-1.02798],[0,0]],[[-41.59692,217.10444],[2.37171,0.79057],[-0.01143,-0.00381]],[[-41.63099,217.0929],[0.01129,0.00388],[0,0]]],&quot;closed&quot;:true,&quot;fillColor&quot;:[0.52941,0.66275,0.17255],&quot;strokeWidth&quot;:0.5}]}" fill="url(#color-1)"/><path d="M543.09795,211.10316c0.01129,0.00388 -0.07523,-0.0128 -0.0638,-0.00899c2.37171,0.79057 3.16235,-1.58148 3.16235,-1.58148c0.33376,-1.02798 1.07901,-4.01459 2.14596,-4.8046c0.71933,-0.53262 1.7798,-0.34206 2.58094,-0.74118c2.67773,-1.334 4.78348,-2.85759 8.1773,-1.85365c1.02734,0.30391 1.75962,1.40877 2.72311,1.87726c2.53477,1.23252 4.47268,1.5379 7.24767,1.21794c3.61814,-0.41718 8.49864,-1.5801 11.8523,-3.24307c2.02919,-1.00621 3.95322,-2.5434 6.20729,-2.76526c2.36203,-0.23249 4.84658,-0.72938 7.12026,-0.04851c2.36073,0.70694 4.54335,2.18319 6.87973,2.96687c2.14851,0.69756 3.92543,2.29973 6.06617,3.0208c0.94768,0.31921 2.04536,-0.29778 2.99995,0.00016c2.64029,0.82407 4.17124,3.778 6.7042,4.88899c3.21047,1.40815 8.5905,1.61387 12.17058,1.17824c3.02378,-0.36794 7.81922,-1.94697 11.02946,-1.09598c2.70592,0.7173 2.11017,3.01431 4.86345,3.94598c1.56622,0.52998 3.20779,0.12993 4.86094,0.16153c4.70288,0.08989 9.92624,-0.6583 14.59986,-0.03329c1.74276,0.23306 2.90406,2.22557 4.5389,2.87274c1.10328,0.43675 2.27565,0.07468 3.46107,0.12735c5.54578,1.84859 12.18148,1.43072 17.49944,-1.22369c0.95857,-0.47847 1.60877,-1.51861 2.62635,-1.85377c0.94981,-0.31284 2.05243,0.31892 3.00011,-0.00029c1.26329,-0.42551 2.18934,-1.53719 3.37428,-2.14783c1.97953,-1.02012 4.4869,-0.23642 6.62648,-0.85399c1.28075,-0.36967 2.17996,-1.55592 3.37434,-2.14788c1.01699,-0.50404 2.24878,-0.5263 3.21627,-1.11983c0.21367,-0.13108 4.07823,-3.95274 4.45428,-4.36053c0.42514,-0.46102 0.59986,-1.24427 1.18922,-1.45859c0.73774,-0.26828 1.5705,0.27286 2.3489,0.17129c2.43409,-0.31762 4.8697,-1.39492 7.29482,-1.01484c1.04138,0.16321 1.95948,0.83196 3.00012,0.9998c0.25902,0.04177 5.92105,0.03129 6.40107,0.03129c4.91089,-0.01138 5.7842,0.32285 10.61271,-1.08513c1.53761,-0.44837 2.89488,-1.44828 4.45862,-1.79465c2.60237,-0.57643 5.43189,-0.28289 7.88911,-1.3157c2.80987,-1.18104 6.37142,-4.50781 9.64538,-3.84484c3.79743,0.76897 4.93614,2.05504 7.81617,4.46493c0.85942,0.71913 2.09425,1.11402 2.88774,1.9053c0.92702,0.92445 1.12643,2.37062 2.17975,3.14811c2.0585,1.51945 5.09903,0.63007 7.56242,1.32136c1.72291,0.48349 2.12296,3.06851 3.72502,3.86575c5.38242,2.67847 13.26005,1.61591 18.78705,0.25836c6.95831,-1.40814 13.97447,0.16787 20.86349,-0.97678c6.16607,-1.02453 11.85876,-5.01069 18.01262,-6.00234c0.98726,-0.15909 2.0164,0.16898 3.00201,-0.00007c3.0843,-0.52901 5.93415,-2.48575 9.00581,-2.99974c2.90831,-0.48666 6.08007,0.48114 9.00559,0.00089c2.49516,-0.40961 4.84935,-1.45313 7.30241,-2.0664c4.02624,-1.34208 7.93315,-1.9889 11.62045,-4.27181c2.6739,-1.65549 4.58836,-4.51367 7.47835,-5.75396c0.79999,-0.34333 1.75224,0.23966 2.61095,0.09654c3.59534,-0.59922 7.79219,-3.38292 11.64661,-2.15587c0.65341,0.20802 0.7991,1.13284 1.31947,1.57943c3.14581,2.69978 6.81555,4.52281 10.05761,7.04811c0.93178,0.72578 1.52906,1.94848 2.62951,2.37741c2.86045,1.11493 7.87579,0.1928 10.95932,0.1928c1.68229,0 3.5052,-0.86852 5.04427,-0.18927c0.7469,0.32964 1.09561,1.21205 1.64307,1.81769c10.25542,3.51403 21.39395,-0.25408 31.91852,1.34725c2.79912,0.42589 2.58093,1.42381 5.30301,2.77958c0.87127,0.43395 1.9498,0.38063 2.78442,0.88147c0.75878,0.45533 1.11373,1.41583 1.85297,1.90223c1.65917,1.09167 5.83695,3.06081 8.06234,3.44158c3.08405,0.52768 7.2977,0.13127 10.40106,0.03355c0.6837,-0.02153 1.44043,-0.51319 2.04337,-0.19011c1.72489,0.92425 2.63375,2.89957 4.024,4.27678c2.03227,3.07009 4.30358,7.82588 7.70281,9.59374c0.3206,0.16674 8.37094,2.22745 8.92671,2.3071c0.9013,0.12916 1.85667,-0.30156 2.73114,-0.04795c1.35414,0.39273 2.42392,1.49176 3.76326,1.93232c3.31543,1.09056 6.94264,0.72873 10.41111,1.11743c4.8106,0.53911 9.84915,1.7957 14.80122,0.98765c2.81734,-0.45972 5.50172,-1.15522 8.20975,-2.05819c1.89309,-0.63124 4.56716,-2.58447 6.79018,-2.94211c2.22965,-0.35871 3.94615,0.6631 6.22678,-0.05159c1.14686,-0.35939 1.86305,-1.61032 3.00006,-1.99974c0.8144,-0.27893 1.81788,0.03555 2.67821,0.06506c2.63821,-0.65955 5.40503,-0.61462 8.09504,-1.01337c3.75347,-0.5564 9.19746,-2.51223 12.60065,-4.19873c1.07687,-0.53366 1.92587,-1.46074 3.00006,-1.99977c1.01448,-0.50906 2.24186,-0.53649 3.21596,-1.1191c0.78257,-0.46806 1.10531,-1.5363 1.91748,-1.95087c1.02634,-0.52389 2.25351,-0.48364 3.37459,-0.75016c2.29294,-0.54511 4.5675,-1.58754 6.89107,-1.98216c2.19923,-0.3735 5.48815,-0.25891 7.50128,0.77851c1.18494,0.61063 2.10354,1.74396 3.37404,2.14743c1.18375,0.37592 2.48262,0.09018 3.7245,0.10743c5.04396,0.07005 9.96738,0.4314 14.79065,-1.12794c1.78977,-0.61992 3.74159,-0.59255 5.6099,-0.90394c3.12396,-0.52066 7.37692,-2.00396 10.64288,-1.15784c1.61004,0.41712 1.01853,3.17238 1.67058,4.70244c0.90051,2.11306 2.5484,4.01255 2.80521,6.29509c0.09066,0.80583 -0.13622,6.16632 0.01373,7.09606c0.16784,1.04064 0.82056,1.96178 1.00007,3.00048c0.50053,2.89625 -0.03209,6.69253 -0.03209,9.601c0,6.86657 -0.01564,13.73629 0.03255,20.60271c-1.68958,5.06874 -0.11872,9.90334 -0.99993,15.00233c-3.61189,20.89962 -4.03319,42.03465 -4.03319,63.41031c0,3.9436 -0.61541,8.5185 0.03189,12.40229c0.15201,0.91202 0.96764,1.67528 0.96764,2.59989c0,0.9246 -0.81582,1.68792 -0.96782,2.59995c-0.18635,1.11812 -0.02668,2.26743 -0.0324,3.40095c-0.00942,1.86652 0.01411,3.73388 0.03207,5.60034c0.0044,0.45743 0.43691,1.21927 0.00589,1.37254c-0.81083,0.28833 -1.67989,-0.40991 -2.53823,-0.47186c-2.99222,-0.21596 -6.00011,0.00037 -9.00011,0.00037c-5.68154,0 -12.07205,0.84369 -17.69478,0.01952c-4.47143,-0.65541 -8.48004,-1.02092 -13.05926,-1.00608c-8.25457,-1.65222 -585.83889,1.11346 -587.21556,-1.32722c-2.03575,-3.60915 -0.21931,-11.59834 -0.64587,-15.49469c-0.37475,-3.42315 -1.43545,-6.74956 -2.01388,-10.09657c-0.34059,-1.97079 0.31828,-4.02642 -0.00017,-6.0009c-0.16784,-1.04064 -0.82057,-1.96178 -1.00008,-3.00048c-0.83163,-4.81207 0.69003,-10.05387 0.01323,-14.90728c-0.55907,-4.00917 -1.01456,-8.05942 -2.00018,-12.00189c0.02007,-2.88646 0.44452,-6.25568 -0.01364,-9.09642c-0.16784,-1.04064 -0.82051,-1.96178 -1.00002,-3.00048c-0.9409,-5.44437 0.68782,-11.41013 0.01351,-16.90764c-0.16732,-1.36415 -0.80067,-2.64078 -0.99999,-4.00062c-0.53636,-3.65924 0.01881,-8.0251 0.01881,-11.69636c0,-4.646 -0.70672,-10.00099 -0.03209,-14.60179c0.15293,-1.04294 0.83221,-1.95984 1.00005,-3.00048c0.4535,-2.81181 0.03566,-6.1445 0.00018,-9.00137c0.29835,-0.86135 1.90359,-5.43796 2.00015,-6.00095c0.30197,-1.76058 -0.05083,-3.72065 0.77821,-5.3029c0.55779,-1.06457 1.46427,-1.92471 2.00009,-3.00051c0.74475,-1.49528 1.30641,-3.18568 2.52213,-4.33134l0.40762,-0.40767z" data-paper-data="{&quot;noHover&quot;:false,&quot;origItem&quot;:[&quot;Path&quot;,{&quot;applyMatrix&quot;:true,&quot;segments&quot;:[[-41.63093,217.09289],[[-42.03853,217.50049],[0,0],[-1.21572,1.14566]],[[-44.56051,221.8311],[0.74475,-1.49528],[-0.53582,1.0758]],[[-46.56051,224.8311],[0.55779,-1.06457],[-0.82904,1.58225]],[[-47.33858,230.13318],[0.30197,-1.76058],[-0.09656,0.56299]],[[-49.33858,236.13318],[0.29835,-0.86135],[0.03548,2.85687]],[[-49.33858,245.13318],[0.4535,-2.81181],[-0.16784,1.04064]],[[-50.33858,248.13318],[0.15293,-1.04294],[-0.67463,4.6008]],[[-50.3063,262.73272],[0,-4.646],[0,3.67126]],[[-50.32503,274.42726],[-0.53636,-3.65924],[0.19932,1.35984]],[[-49.32503,278.42726],[-0.16732,-1.36415],[0.67431,5.49751]],[[-49.33858,295.33226],[-0.9409,-5.44437],[0.17951,1.0387]],[[-48.33858,298.33226],[-0.16784,-1.04064],[0.45816,2.84074]],[[-48.32503,307.42726],[0.02007,-2.88646],[0.98562,3.94247]],[[-46.32503,319.42726],[-0.55907,-4.00917],[0.6768,4.85341]],[[-46.33858,334.33226],[-0.83163,-4.81207],[0.17951,1.0387]],[[-45.33858,337.33226],[-0.16784,-1.04064],[0.31845,1.97448]],[[-45.33858,343.33226],[-0.34059,-1.97079],[0.57843,3.34701]],[[-43.32503,353.42726],[-0.37475,-3.42315],[0.42656,3.89635]],[[-42.67967,367.41839],[-2.03575,-3.60915],[1.37667,2.44068]],[[-36.40584,369.265],[-2.15482,-0.35914],[1.03975,0.17329]],[[-33.40584,370.265],[-1,-0.33333],[4.83849,-0.06008]],[[-19.55995,371.24489],[-4.78161,-0.53497],[3.31736,0.37115]],[[-9.40584,371.265],[-3.30278,-0.53268],[3.03476,0.48945]],[[-0.40584,373.265],[-3.03099,-0.52382],[2.62771,0.45412]],[[7.59416,373.265],[-2.64676,-0.32524],[1.04622,0.12856]],[[10.59416,374.265],[-1.04294,-0.15293],[2.1766,0.31916]],[[17.1937,374.23272],[-2.19987,0],[7,0]],[[38.1937,374.23272],[-7,0],[12,0]],[[74.1937,374.23272],[-12,0],[5.50715,0]],[[91.03971,374.22594],[-5.46806,0.55888],[1.6596,-0.16962]],[[95.94735,373.24489],[-1.65851,0.17995],[3.51835,-0.38175]],[[106.79324,373.265],[-3.47732,0.60096],[1.0387,-0.17951]],[[109.79324,372.265],[-1.04064,0.16784],[2.92752,-0.47216]],[[119.18777,372.23273],[-2.97233,-0.00001],[2.93836,-0.00509]],[[127.94735,371.24489],[-2.92441,0.28605],[0.1639,-0.01603]],[[138.19369,371.23272],[-0.3166,0],[9.98155,0]],[[168.14823,371.23313],[-9.98047,0.13718],[4.35752,-0.05989]],[[181.01646,370.23901],[-4.32021,0.33772],[11.89557,-0.92992]],[[217.19368,370.23272],[-11.94053,0],[7.33333,0]],[[239.19368,370.23272],[-7.33333,0],[3.95541,0]],[[251.59414,370.265],[-3.89932,-0.62889],[1.04064,0.16784]],[[254.59414,371.265],[-1.0387,-0.17951],[3.59174,0.62073]],[[266.1937,371.23272],[-3.65549,-0.00002],[6.5255,0.00003]],[[285.39989,372.24124],[-6.46154,-0.53582],[3.04128,0.25219]],[[294.49915,373.25145],[-2.96061,-0.74015],[6.89815,-0.02752]],[[315.19369,373.23272],[-6.8982,0],[3.85489,0]],[[327.49915,373.25145],[-3.84491,-0.47161],[1.36415,0.16732]],[[331.49915,374.25145],[-1.36333,-0.17386],[4.05079,0.51659]],[[344.19369,374.23272],[-4.09494,0],[10,0]],[[374.19369,374.23272],[-10,0],[10.33333,0]],[[405.19369,374.23272],[-10.33333,0],[4.22065,0]],[[418.13374,374.20683],[-4.19243,0.42865],[5.26589,-0.53841]],[[433.79323,371.265],[-5.13536,0.82824],[3.2911,-0.5308]],[[443.88823,371.25145],[-3.28755,0.48188],[4.43716,-0.65039]],[[456.19369,370.23272],[-4.5893,0],[8.33333,0]],[[481.19369,370.23272],[-8.33333,0],[3.20648,0]],[[491.03664,370.22625],[-3.17772,0.40445],[9.36175,-1.19152]],[[519.19369,369.23272],[-9.47656,0],[8.40478,0]],[[544.44003,370.24489],[-8.25457,-1.65222],[4.57922,-0.01484]],[[557.49914,371.25145],[-4.47143,-0.65541],[5.62273,0.82417]],[[575.19368,371.23272],[-5.68154,0],[3,0]],[[584.19368,371.23272],[-2.99222,-0.21596],[0.85834,0.06195]],[[586.7319,371.70461],[-0.81083,0.28833],[0.43102,-0.15327]],[[586.72596,370.33226],[0.0044,0.45743],[-0.01796,-1.86646]],[[586.69368,364.73272],[-0.00942,1.86652],[0.00572,-1.13352]],[[586.72596,361.33226],[-0.18635,1.11812],[0.152,-0.91203]],[[587.69368,358.73272],[0,0.9246],[0,-0.92461]],[[586.72596,356.13318],[0.15201,0.91202],[-0.6473,-3.88379]],[[586.69368,343.73272],[0,3.9436],[0,-21.37566]],[[590.72596,280.33226],[-3.61189,20.89962],[0.88121,-5.09899]],[[591.72596,265.33226],[-1.68958,5.06874],[-0.04819,-6.86642]],[[591.69368,244.73272],[0,6.86657],[0,-2.90847]],[[591.72596,235.13318],[0.50053,2.89625],[-0.17951,-1.0387]],[[590.72596,232.13318],[0.16784,1.04064],[-0.14995,-0.92974]],[[590.71241,225.03818],[0.09066,0.80583],[-0.25681,-2.28254]],[[587.90739,218.74411],[0.90051,2.11306],[-0.65205,-1.53006]],[[586.23697,214.04242],[1.61004,0.41712],[-3.26596,-0.84612]],[[575.59413,215.20044],[3.12396,-0.52066],[-1.86831,0.31139]],[[569.98424,216.10443],[1.78977,-0.61992],[-4.82327,1.55934]],[[555.19367,217.23272],[5.04396,0.07005],[-1.24188,-0.01725]],[[551.46921,217.12545],[1.18375,0.37592],[-1.2705,-0.40347]],[[548.09529,214.97851],[1.18494,0.61063],[-2.01313,-1.03742]],[[540.59412,214.20044],[2.19923,-0.3735],[-2.32357,0.39462]],[[533.8,216.15808],[2.29294,-0.54511],[-1.12108,0.26652]],[[530.42541,216.90822],[1.02634,-0.52389],[-0.81217,0.41457]],[[528.50799,218.85935],[0.78257,-0.46806],[-0.9741,0.58261]],[[525.29204,219.97851],[1.01448,-0.50906],[-1.07419,0.53903]],[[522.29204,221.97851],[1.07687,-0.53366],[-3.40319,1.6865]],[[509.59412,226.20044],[3.75347,-0.5564],[-2.69001,0.39875]],[[501.49912,227.21399],[2.63821,-0.65955],[-0.86033,-0.02951]],[[498.91812,227.12545],[0.8144,-0.27893],[-1.13701,0.38942]],[[495.91812,229.12545],[1.14686,-0.35939],[-2.28063,0.71469]],[[489.59412,229.20044],[2.22965,-0.35871],[-2.22302,0.35764]],[[482.90116,232.11913],[1.89309,-0.63124],[-2.70803,0.90297]],[[474.59412,234.20044],[2.81734,-0.45972],[-4.95207,0.80805]],[[459.79317,233.21388],[4.8106,0.53911],[-3.46847,-0.3887]],[[449.38232,232.09741],[3.31543,1.09056],[-1.33934,-0.44056]],[[445.61928,230.16585],[1.35414,0.39273],[-0.87447,-0.25361]],[[442.8882,230.214],[0.9013,0.12916],[-0.55577,-0.07965]],[[433.96191,227.90823],[0.3206,0.16674],[-3.39923,-1.76786]],[[426.2603,218.3177],[2.03227,3.07009],[-1.39025,-1.37721]],[[422.23695,214.04243],[1.72489,0.92425],[-0.60294,-0.32308]],[[420.19366,214.23273],[0.6837,-0.02153],[-3.10336,0.09772]],[[409.7932,214.20045],[3.08405,0.52768],[-2.22539,-0.38077]],[[401.73188,210.76084],[1.65917,1.09167],[-0.73924,-0.4864]],[[399.87933,208.85936],[0.75878,0.45533],[-0.83462,-0.50084]],[[397.09528,207.97852],[0.87127,0.43395],[-2.72208,-1.35577]],[[391.7932,205.20045],[2.79912,0.42589],[-10.52457,-1.60133]],[[359.87933,203.85936],[10.25542,3.51403],[-0.54746,-0.60564]],[[358.23695,202.04243],[0.7469,0.32964],[-1.53907,-0.67925]],[[353.19366,202.23273],[1.68229,0],[-3.08353,0]],[[342.23695,202.04243],[2.86045,1.11493],[-1.10045,-0.42893]],[[339.60869,199.66609],[0.93178,0.72578],[-3.24206,-2.5253]],[[329.55566,192.62137],[3.14581,2.69978],[-0.52037,-0.44659]],[[328.23696,191.04243],[0.65341,0.20802],[-3.85442,-1.22705]],[[316.59412,193.20045],[3.59534,-0.59922],[-0.85871,0.14312]],[[313.98423,193.10444],[0.79999,-0.34333],[-2.88999,1.24029]],[[306.50799,198.85936],[2.6739,-1.65549],[-3.6873,2.28291]],[[294.89263,203.13303],[4.02624,-1.34208],[-2.45306,0.61327]],[[287.59412,205.20045],[2.49516,-0.40961],[-2.92552,0.48025]],[[278.59412,205.20045],[2.90831,-0.48666],[-3.07166,0.51399]],[[269.59412,208.20045],[3.0843,-0.52901],[-0.98561,0.16905]],[[266.59412,208.20045],[0.98726,-0.15909],[-6.15386,0.99165]],[[248.59412,214.20045],[6.16607,-1.02453],[-6.88902,1.14465]],[[227.74213,215.17183],[6.95831,-1.40814],[-5.527,1.35755]],[[208.96191,214.90824],[5.38242,2.67847],[-1.60206,-0.79724]],[[205.23695,211.04244],[1.72291,0.48349],[-2.46339,-0.69129]],[[197.67617,209.71951],[2.0585,1.51945],[-1.05332,-0.77749]],[[195.42589,206.50051],[0.92702,0.92445],[-0.79349,-0.79128]],[[192.60868,204.6661],[0.85942,0.71913],[-2.88003,-2.40989]],[[184.7932,200.20046],[3.79743,0.76897],[-3.27396,-0.66297]],[[175.15036,204.04244],[2.80987,-1.18104],[-2.45722,1.03281]],[[167.26269,205.3563],[2.60237,-0.57643],[-1.56374,0.34637]],[[162.80498,207.14969],[1.53761,-0.44837],[-4.82851,1.40798]],[[152.19365,208.23274],[4.91089,-0.01138],[-0.48002,0]],[[145.79319,208.20046],[0.25902,0.04177],[-1.04064,-0.16784]],[[142.79319,207.20046],[1.04138,0.16321],[-2.42512,-0.38008]],[[135.4991,208.21401],[2.43409,-0.31762],[-0.7784,0.10157]],[[133.15035,208.04244],[0.73774,-0.26828],[-0.58936,0.21432]],[[131.96141,209.50051],[0.42514,-0.46102],[-0.37605,0.40779]],[[127.50797,213.85937],[0.21367,-0.13108],[-0.96749,0.59353]],[[124.29202,214.97853],[1.01699,-0.50404],[-1.19438,0.59196]],[[120.9181,217.12547],[1.28075,-0.36967],[-2.13958,0.61757]],[[114.29202,217.97853],[1.97953,-1.02012],[-1.18494,0.61064]],[[110.9181,220.12547],[1.26329,-0.42551],[-0.94768,0.31921]],[[107.9181,220.12547],[0.94981,-0.31284],[-1.01758,0.33516]],[[105.29202,221.97853],[0.95857,-0.47847],[-5.31796,2.65441]],[[87.79319,223.20046],[5.54578,1.84859],[-1.18542,-0.05267]],[[84.23694,223.04244],[1.10328,0.43675],[-1.63484,-0.64717]],[[79.79319,220.20046],[1.74276,0.23306],[-4.67362,-0.62501]],[[65.19365,220.23274],[4.70288,0.08989],[-1.65315,-0.0316]],[[60.23694,220.04244],[1.56622,0.52998],[-2.75328,-0.93167]],[[55.46919,216.12547],[2.70592,0.7173],[-3.21024,-0.85099]],[[44.43999,217.22057],[3.02378,-0.36794],[-3.58008,0.43563]],[[32.17322,216.015],[3.21047,1.40815],[-2.53296,-1.11099]],[[25.46918,211.12546],[2.64029,0.82407],[-0.95459,-0.29794]],[[22.46918,211.12546],[0.94768,0.31921],[-2.14074,-0.72107]],[[16.40307,208.10444],[2.14851,0.69756],[-2.33638,-0.78368]],[[9.61926,205.16585],[2.36073,0.70694],[-2.27368,-0.68087]],[[2.4991,205.214],[2.36203,-0.23249],[-2.25407,0.22186]],[[-3.70798,207.97852],[2.02919,-1.00621],[-3.35366,1.66297]],[[-15.56001,211.22057],[3.61814,-0.41718],[-2.77499,0.31996]],[[-22.90473,209.97852],[2.53477,1.23252],[-0.96349,-0.46849]],[[-25.53081,208.12546],[1.02734,0.30391],[-3.39382,-1.00394]],[[-33.70797,209.97852],[2.67773,-1.334],[-0.80114,0.39912]],[[-36.28886,210.7195],[0.71933,-0.53262],[-1.06695,0.79001]],[[-38.43464,215.5233],[0.33376,-1.02798],[0,0]],[[-41.59692,217.10444],[2.37171,0.79057],[-0.01143,-0.00381]],[[-41.63099,217.0929],[0.01129,0.00388],[0,0]]],&quot;closed&quot;:true,&quot;fillColor&quot;:[0.52941,0.66275,0.17255],&quot;strokeWidth&quot;:0.5}]}" fill="url(#color-2)"/></g></g></svg>