<svg version="1.1" xmlns="http://www.w3.org/2000/svg" xmlns:xlink="http://www.w3.org/1999/xlink" width="27.81428" height="30.02145" viewBox="0,0,27.81428,30.02145"><defs><linearGradient x1="240" y1="193.90231" x2="240" y2="164.98928" gradientUnits="userSpaceOnUse" id="color-1"><stop offset="0" stop-color="#ff0000"/><stop offset="1" stop-color="#ff0000" stop-opacity="0"/></linearGradient><linearGradient x1="240.00049" y1="194.18155" x2="240.00049" y2="171.36128" gradientUnits="userSpaceOnUse" id="color-2"><stop offset="0" stop-color="#ff7b00"/><stop offset="1" stop-color="#ff7b00" stop-opacity="0"/></linearGradient><linearGradient x1="239.94657" y1="194.69647" x2="239.94657" y2="177.72661" gradientUnits="userSpaceOnUse" id="color-3"><stop offset="0" stop-color="#ffea00"/><stop offset="1" stop-color="#ffea00" stop-opacity="0"/></linearGradient><linearGradient x1="239.99181" y1="195.01072" x2="239.99181" y2="184.39473" gradientUnits="userSpaceOnUse" id="color-4"><stop offset="0" stop-color="#fff68d"/><stop offset="1" stop-color="#fff68d" stop-opacity="0"/></linearGradient></defs><g transform="translate(-226.09286,-164.98927)"><g data-paper-data="{&quot;isPaintingLayer&quot;:true}" fill-rule="nonzero" stroke="none" stroke-width="0.5" stroke-linecap="butt" stroke-linejoin="miter" stroke-miterlimit="10" stroke-dasharray="" stroke-dashoffset="0" style="mix-blend-mode: normal"><path d="M253.90714,193.13383c-0.5067,0.1492 -1.00005,0.02424 -1.54286,0.08251c-1.27966,0.13739 -2.54578,0.39053 -3.83793,0.39053c-4.27835,0.66393 -8.81683,0.00135 -13.13909,0.00135c-3.0919,0 -6.19329,-0.27578 -9.2944,-0.29674c0.69693,-2.36488 1.49842,-4.80905 2.06295,-7.2222c0.03174,0.0087 0.10457,-0.00908 0.13862,-0.00908c0.14946,0 0.24119,-0.06624 0.31667,-0.2002l0.46625,-0.80313l-0.08963,-0.06861c1.4185,-2.04196 2.48839,-4.95722 3.19373,-7.34532c0.0091,0.00067 0.01829,0.00099 0.02754,0.00099c0.11705,0 0.22314,-0.05498 0.29985,-0.14291l0.56578,-0.65016l-0.07286,-0.08373c1.07024,-1.14134 1.42971,-2.42706 2.11673,-4.18449c0.20053,-0.51297 0.65481,-1.12224 0.77319,-1.74426c0.00611,0.05555 0.03483,0.14755 0.04501,0.18292c0.11576,0.40223 0.36049,1.43716 0.7892,1.42253c0.38784,-0.01324 0.51376,-0.67118 0.77721,-0.99773c0.99613,-1.2347 1.25123,-2.96635 1.88878,-4.45829c0.28515,-0.65989 0.42552,-1.33193 0.60138,-2.01854h0.05902c0.15773,0.63042 0.29765,1.24865 0.56033,1.85657c0.63754,1.49195 0.89254,3.22355 1.88866,4.45826c0.26345,0.32655 0.38933,0.98444 0.77716,0.99768c0.42872,0.01463 0.67376,-1.02013 0.78952,-1.42236c0.01018,-0.03537 0.03861,-0.12753 0.04472,-0.18308c0.11838,0.62201 0.57261,1.2312 0.77314,1.74417c0.68702,1.75742 1.04654,3.04289 2.11678,4.18422l-0.07286,0.08372l0.56583,0.65016c0.07671,0.08793 0.18281,0.14292 0.29986,0.14292c0.00925,0 0.01844,-0.00033 0.02754,-0.00099c0.70534,2.38811 1.77543,5.30354 3.19393,7.34551l-0.08963,0.06861l0.46625,0.80316c0.07548,0.13397 0.16699,0.20065 0.31645,0.20065c0.03406,0 0.10709,0.01733 0.13882,0.00864c0.56329,2.40785 1.36249,4.84672 2.05836,7.20673z" data-paper-data="{&quot;noHover&quot;:false,&quot;origItem&quot;:[&quot;Path&quot;,{&quot;applyMatrix&quot;:true,&quot;segments&quot;:[[[266.62657,280.12531],[1.19453,0.11806],[-2.81607,-0.27832]],[[258.1881,279.34012],[2.84356,0],[-9.41511,-1.34502]],[[229.31704,279.34259],[9.51175,0],[-6.80416,0]],[[208.88323,279.93061],[6.82445,-0.04245],[1.53369,4.79087]],[[213.43052,294.55091],[-1.24233,-4.88864],[0.06984,-0.01762]],[[213.6482,294.52396],[-0.07495,0],[0.32892,0]],[[214.43238,294.97501],[-0.16609,-0.2714],[0,0]],[215.45922,296.60042],[[215.26214,296.73907],[0,0],[3.1216,4.13668]],[[222.29392,311.58863],[-1.55219,-4.83791],[0.02003,-0.00136]],[[222.35451,311.58659],[-0.02036,0],[0.25759,0]],[[223.01412,311.87491],[-0.16881,-0.17814],[0,0]],[224.25788,313.18742],[[224.09743,313.35673],[0,0],[2.35521,2.31215]],[[228.73927,321.81117],[-1.51188,-3.56025],[0.4413,1.03919]],[[230.43334,325.33997],[-0.26051,-1.2601],[0.01345,-0.11253]],[[230.48681,325.05665],[-0.0224,0.07166],[0.25474,-0.81486]],[[232.26879,322.08739],[-0.94345,-0.02964],[0.85349,0.02682]],[[233.97266,324.10589],[-0.57976,-0.66153],[2.19211,2.5013]],[[238.11594,333.13512],[-1.403,-3.02244],[0.6275,1.33684]],[[239.43678,337.22428],[-0.387,-1.39096],[0,0]],[[239.56643,337.22428],[0,0],[0.34711,-1.27714]],[[240.79712,333.46325],[-0.57807,1.23154],[1.403,-3.02244]],[[244.94041,324.43401],[-2.19211,2.5013],[0.57976,-0.66153]],[[246.64428,322.41552],[-0.85349,0.02682],[0.94345,-0.02964]],[[248.42625,325.38478],[-0.25474,-0.81486],[0.0224,0.07166]],[[248.47973,325.66809],[-0.01345,-0.11253],[0.26051,-1.2601]],[[250.17379,322.13929],[-0.4413,1.03919],[1.51188,-3.56025]],[[254.81564,313.68486],[-2.35521,2.31215],[0,0]],[254.65519,313.51554],[[255.89895,312.20304],[0,0],[0.16881,-0.17814]],[[256.55855,311.91472],[-0.25759,0],[0.02035,0]],[[256.61914,311.91676],[-0.02003,-0.00135],[1.55219,-4.83791]],[[263.65093,297.0672],[-3.1216,4.13668],[0,0]],[263.45384,296.92855],[[264.48069,295.30313],[0,0],[0.16609,-0.27139]],[[265.26486,294.85208],[-0.32893,0],[0.07496,0]],[[265.48255,294.87903],[-0.06984,-0.01762],[1.23961,-4.87791]],[[270.01974,280.29028],[-1.53136,4.78101],[-1.11507,-0.30226]]],&quot;closed&quot;:true}],&quot;index&quot;:null}" fill="url(#color-1)"/><path d="M250.97591,193.57427c-0.39976,0.11771 -0.78918,0.01935 -1.21743,0.06532c-1.00958,0.10839 -2.00919,0.30873 -3.02862,0.30873c-3.37537,0.5238 -6.96013,0.00161 -10.37015,0.00161c-2.43933,0 -4.88805,-0.21894 -7.33466,-0.23547c0.54983,-1.86575 1.18145,-3.79518 1.62683,-5.69901c0.02503,0.00686 0.09087,-0.01189 0.11774,-0.01189c0.11792,0 0.18191,-0.04752 0.24146,-0.15321l0.36776,-0.63379l-0.07073,-0.05417c1.11911,-1.61099 1.96286,-3.91417 2.51933,-5.79825c0.00718,0.00053 0.01443,0.00078 0.02173,0.00078c0.09235,0 0.17608,-0.0435 0.23659,-0.11287l0.4465,-0.51342l-0.05747,-0.06609c0.84436,-0.90045 1.12952,-1.91718 1.67154,-3.30368c0.15821,-0.40471 0.51732,-0.88588 0.61071,-1.37661c0.00482,0.04383 0.03185,0.1255 0.03988,0.15341c0.09132,0.31734 0.28006,1.12474 0.6183,1.11319c0.30599,-0.01045 0.40596,-0.52981 0.6138,-0.78744c0.78588,-0.97411 0.98842,-2.34055 1.49141,-3.51761c0.22496,-0.52062 0.33596,-1.05082 0.4747,-1.59252h0.04658c0.12445,0.49737 0.23506,0.98512 0.44231,1.46474c0.50298,1.17706 0.70541,2.54345 1.49129,3.51756c0.20784,0.25763 0.30776,0.77694 0.61374,0.78738c0.33823,0.01155 0.5273,-0.79567 0.61862,-1.11301c0.00803,-0.02791 0.03477,-0.10975 0.03959,-0.15357c0.0934,0.49074 0.45246,0.97183 0.61066,1.37653c0.54202,1.38651 0.82724,2.40297 1.67159,3.30342l-0.05747,0.06608l0.44654,0.51341c0.06052,0.06938 0.14426,0.11288 0.2366,0.11288c0.0073,0 0.01455,-0.00025 0.02173,-0.00078c0.55647,1.88408 1.40041,4.18745 2.51952,5.79844l-0.07073,0.05417l0.36776,0.63382c0.05955,0.10569 0.12333,0.15366 0.24125,0.15366c0.02687,0 0.09291,0.01831 0.11795,0.01145c0.44441,1.89965 1.0742,3.82492 1.62321,5.68684z" data-paper-data="{&quot;noHover&quot;:false,&quot;origItem&quot;:[&quot;Path&quot;,{&quot;applyMatrix&quot;:true,&quot;segments&quot;:[[[260.89213,280.00882],[0.94242,0.09314],[-2.22172,-0.21958]],[[254.23466,279.38935],[2.2434,0],[-7.42798,-1.06114]],[[231.45706,279.3913],[7.50423,0],[-5.36809,0]],[[215.33596,279.85521],[5.3841,-0.03349],[1.21,3.77972]],[[218.92351,291.38978],[-0.98013,-3.85685],[0.0551,-0.0139]],[[219.09525,291.36852],[-0.05914,0],[0.2595,0]],[[219.71392,291.72438],[-0.13104,-0.21411],[0,0]],[220.52404,293.00673],[[220.36855,293.11612],[0,0],[2.46276,3.2636]],[[225.91622,304.83157],[-1.22459,-3.81684],[0.0158,-0.00107]],[[225.96402,304.82996],[-0.01606,0],[0.20323,0]],[[226.48441,305.05743],[-0.13318,-0.14054],[0,0]],[227.46567,306.09292],[[227.33909,306.2265],[0,0],[1.85813,1.82415]],[[231.00124,312.89656],[-1.19279,-2.80883],[0.34816,0.81986]],[[232.33775,315.68058],[-0.20553,-0.99415],[0.01061,-0.08878]],[[232.37994,315.45707],[-0.01768,0.05654],[0.20097,-0.64288]],[[233.78581,313.11449],[-0.74433,-0.02339],[0.67335,0.02116]],[[235.13007,314.70696],[-0.45739,-0.52191],[1.72945,1.97338]],[[238.39889,321.83051],[-1.10689,-2.38453],[0.49506,1.05469]],[[239.44095,325.05662],[-0.30532,-1.09739],[0,0]],[[239.54324,325.05662],[0,0],[0.27385,-1.00759]],[[240.51418,322.08938],[-0.45607,0.97162],[1.10689,-2.38453]],[[243.783,314.96584],[-1.72945,1.97338],[0.45739,-0.52191]],[[245.12725,313.37337],[-0.67336,0.02116],[0.74433,-0.02339]],[[246.53313,315.71594],[-0.20097,-0.64288],[0.01767,0.05654]],[[246.57532,315.93946],[-0.01061,-0.08878],[0.20553,-0.99415]],[[247.91183,313.15544],[-0.34816,0.81986],[1.19278,-2.80883]],[[251.57398,306.48537],[-1.85813,1.82415],[0,0]],[251.4474,306.35179],[[252.42865,305.3163],[0,0],[0.13318,-0.14054]],[[252.94904,305.08883],[-0.20322,0],[0.01606,0]],[[252.99685,305.09044],[-0.0158,-0.00107],[1.22459,-3.81684]],[[258.54452,293.375],[-2.46276,3.2636],[0,0]],[258.38903,293.26561],[[259.19915,291.98325],[0,0],[0.13104,-0.21411]],[[259.81782,291.6274],[-0.2595,0],[0.05914,0]],[[259.98956,291.64866],[-0.0551,-0.0139],[0.97798,-3.84839]],[[263.56914,280.13897],[-1.20816,3.77194],[-0.87973,-0.23846]]],&quot;closed&quot;:true}],&quot;index&quot;:null}" fill="url(#color-2)"/><path d="M248.10689,194.24399c-0.29707,0.08747 -0.58671,0.01465 -0.90494,0.04882c-0.75023,0.08055 -1.49393,0.23018 -2.25149,0.23018c-2.50831,0.38925 -5.17728,0.00186 -7.71134,0.00186c-1.81272,0 -3.63473,-0.16437 -5.45285,-0.17665c0.40859,-1.38649 0.87709,-2.82164 1.20806,-4.23642c0.0186,0.0051 0.07772,-0.01458 0.0977,-0.01458c0.08763,0 0.12499,-0.02955 0.16924,-0.10809l0.2732,-0.47119l-0.05258,-0.0403c0.83164,-1.19716 1.45823,-2.91262 1.87175,-4.31272c0.00533,0.0004 0.01072,0.00058 0.01614,0.00058c0.06862,0 0.13088,-0.03247 0.17585,-0.08403l0.33196,-0.38212l-0.0427,-0.04915c0.62746,-0.66914 0.84128,-1.42757 1.24406,-2.45791c0.11757,-0.30074 0.3853,-0.65892 0.4547,-1.02359c0.00358,0.03256 0.02899,0.10432 0.03496,0.12506c0.06787,0.23582 0.20285,0.82472 0.45419,0.81615c0.22739,-0.00776 0.30243,-0.39406 0.45689,-0.58551c0.58401,-0.72388 0.73606,-1.73963 1.10984,-2.61433c0.16717,-0.38688 0.24996,-0.78089 0.35306,-1.18344h0.03464c0.09247,0.36961 0.17496,0.73208 0.32896,1.08849c0.37378,0.8747 0.52572,1.89041 1.10973,2.61428c0.15446,0.19145 0.22944,0.5777 0.45683,0.58546c0.25135,0.00858 0.38665,-0.58015 0.45452,-0.81597c0.00597,-0.02074 0.03108,-0.09266 0.03467,-0.12522c0.0694,0.36467 0.33708,0.72277 0.45466,1.02351c0.40278,1.03035 0.61665,1.7885 1.24411,2.45764l-0.0427,0.04915l0.332,0.38211c0.04497,0.05155 0.10724,0.08404 0.17586,0.08404c0.00542,0 0.01081,-0.00019 0.01614,-0.00058c0.41352,1.4001 1.04031,3.11573 1.87195,4.31289l-0.05258,0.0403l0.2732,0.47121c0.04425,0.07854 0.0814,0.10854 0.16903,0.10854c0.01997,0 0.0793,0.01924 0.09791,0.01414c0.33025,1.41167 0.79739,2.84376 1.20537,4.22739z" data-paper-data="{&quot;noHover&quot;:false,&quot;origItem&quot;:[&quot;Path&quot;,{&quot;applyMatrix&quot;:true,&quot;segments&quot;:[[[255.26611,279.92046],[0.70033,0.06922],[-1.651,-0.16318]],[[250.3188,279.46012],[1.66712,0],[-5.51989,-0.78856]],[[233.39228,279.46157],[5.57655,0],[-3.98914,0]],[[221.41235,279.80631],[4.00103,-0.02489],[0.89917,2.80879]],[[224.07834,288.37789],[-0.72836,-2.86611],[0.04094,-0.01033]],[[224.20596,288.36209],[-0.04395,0],[0.19284,0]],[[224.66571,288.62654],[-0.09738,-0.15911],[0,0]],[225.26772,289.57948],[[225.15217,289.66077],[0,0],[1.83013,2.42525]],[[229.27477,298.36677],[-0.91002,-2.83637],[0.01174,-0.00079]],[[229.31029,298.36557],[-0.01193,0],[0.15102,0]],[[229.69701,298.53461],[-0.09897,-0.10444],[0,0]],[230.4262,299.30411],[[230.33213,299.40337],[0,0],[1.38082,1.35557]],[[233.05355,304.36004],[-0.88638,-2.0873],[0.25873,0.60926]],[[234.04674,306.4289],[-0.15274,-0.73877],[0.00788,-0.06598]],[[234.0781,306.2628],[-0.01313,0.04201],[0.14935,-0.47774]],[[235.12283,304.52198],[-0.55312,-0.01738],[0.50038,0.01572]],[[236.12177,305.70538],[-0.3399,-0.38784],[1.28519,1.46646]],[[238.5509,310.99904],[-0.82255,-1.772],[0.36789,0.78376]],[[239.32528,313.39643],[-0.22689,-0.8155],[0,0]],[[239.40129,313.39643],[0,0],[0.2035,-0.74876]],[[240.12282,311.19141],[-0.33891,0.72203],[0.82255,-1.772]],[[242.55195,305.89776],[-1.28519,1.46646],[0.3399,-0.38784]],[[243.55089,304.71436],[-0.50039,0.01572],[0.55312,-0.01738]],[[244.59563,306.45518],[-0.14935,-0.47774],[0.01313,0.04201]],[[244.62698,306.62127],[-0.00788,-0.06598],[0.15273,-0.73877]],[[245.62017,304.55241],[-0.25873,0.60926],[0.88638,-2.0873]],[[248.34159,299.59575],[-1.38082,1.35557],[0,0]],[248.24753,299.49648],[[248.97672,298.72698],[0,0],[0.09897,-0.10444]],[[249.36343,298.55794],[-0.15102,0],[0.01193,0]],[[249.39896,298.55914],[-0.01174,-0.00079],[0.91002,-2.83637]],[[253.52155,289.85315],[-1.83013,2.42525],[0,0]],[253.406,289.77186],[[254.00801,288.81891],[0,0],[0.09738,-0.15911]],[[254.46776,288.55447],[-0.19284,0],[0.04395,0]],[[254.59539,288.57027],[-0.04095,-0.01033],[0.72676,-2.85982]],[[257.25545,280.01718],[-0.89781,2.80301],[-0.65374,-0.17721]]],&quot;closed&quot;:true}],&quot;index&quot;:null}" fill="url(#color-3)"/><path d="M245.09475,194.72636c-0.18554,0.05463 -0.36679,0.00955 -0.56556,0.03089c-0.46858,0.05031 -0.93434,0.14487 -1.4075,0.14487c-1.56663,0.24311 -3.24102,0.00212 -4.82373,0.00212c-1.13218,0 -2.27355,-0.10508 -3.40911,-0.11276c0.2552,-0.86597 0.54654,-1.76431 0.75326,-2.64795c0.01162,0.00318 0.06346,-0.01751 0.07593,-0.01751c0.05473,0 0.06317,-0.01003 0.09081,-0.05909l0.1705,-0.29459l-0.03287,-0.02524c0.51942,-0.74772 0.91018,-1.82488 1.16845,-2.69934c0.00333,0.00025 0.0067,0.00036 0.01008,0.00036c0.04286,0 0.08179,-0.0205 0.10988,-0.0527l0.20756,-0.23952l-0.02665,-0.03076c0.3919,-0.41793 0.52823,-0.89582 0.7798,-1.53935c0.07343,-0.18784 0.24192,-0.41243 0.28527,-0.64019c0.00224,0.02034 0.02589,0.08132 0.02961,0.09428c0.04239,0.14729 0.11898,0.4989 0.27597,0.49354c0.14202,-0.00485 0.19,-0.24662 0.28647,-0.3662c0.36476,-0.45212 0.46198,-1.08701 0.69543,-1.63333c0.10441,-0.24164 0.15656,-0.48775 0.22096,-0.73917h0.02167c0.05776,0.23085 0.10968,0.45725 0.20587,0.67985c0.23346,0.54632 0.33057,1.18116 0.69533,1.63328c0.09647,0.11958 0.1444,0.3613 0.28641,0.36615c0.15698,0.00536 0.2339,-0.34608 0.27628,-0.49337c0.00373,-0.01295 0.02708,-0.0741 0.02932,-0.09444c0.04335,0.22777 0.21179,0.45228 0.28522,0.64012c0.25157,0.64353 0.38794,1.12115 0.77984,1.53908l-0.02664,0.03075l0.2076,0.23951c0.02809,0.0322 0.06703,0.05271 0.10989,0.05271c0.00339,0 0.00676,-0.00011 0.01009,-0.00036c0.25828,0.87447 0.64922,1.9518 1.16865,2.69953l-0.03287,0.02523l0.1705,0.29461c0.02764,0.04905 0.03587,0.05954 0.0906,0.05954c0.01247,0 0.06451,0.02025 0.07613,0.01707c0.20627,0.8817 0.49676,1.77817 0.75157,2.64236z" data-paper-data="{&quot;noHover&quot;:false,&quot;origItem&quot;:[&quot;Path&quot;,{&quot;applyMatrix&quot;:true,&quot;segments&quot;:[[[249.38434,279.97054],[0.43741,0.04323],[-1.03118,-0.10192]],[[246.29437,279.68302],[1.04125,0],[-3.44759,-0.49251]],[[235.72245,279.68393],[3.48298,0],[-2.49153,0]],[[228.24006,279.89925],[2.49895,-0.01555],[0.5616,1.75431]],[[229.90517,285.25286],[-0.45491,-1.79011],[0.02557,-0.00645]],[[229.98489,285.24299],[-0.02745,0],[0.12044,0]],[[230.27203,285.40816],[-0.06082,-0.09938],[0,0]],[230.64804,286.00335],[[230.57587,286.05412],[0,0],[1.14306,1.51476]],[[233.15075,291.49168],[-0.56838,-1.77153],[0.00733,-0.00049]],[[233.17294,291.49094],[-0.00745,0],[0.09432,0]],[[233.41447,291.59651],[-0.06181,-0.06523],[0,0]],[233.8699,292.07712],[[233.81115,292.13912],[0,0],[0.86243,0.84666]],[[235.51089,295.23494],[-0.55361,-1.30368],[0.16159,0.38053]],[[236.13121,296.5271],[-0.0954,-0.46142],[0.00492,-0.04121]],[[236.1508,296.42337],[-0.0082,0.02624],[0.09328,-0.29839]],[[236.80331,295.33609],[-0.34547,-0.01085],[0.31253,0.00982]],[[237.42723,296.07521],[-0.21229,-0.24224],[0.8027,0.91592]],[[238.94441,299.38151],[-0.51375,-1.10675],[0.22977,0.48952]],[[239.42806,300.87887],[-0.14171,-0.50934],[0,0]],[[239.47554,300.87887],[0,0],[0.12711,-0.46766]],[[239.92619,299.50166],[-0.21168,0.45096],[0.51375,-1.10675]],[[241.44337,296.19537],[-0.8027,0.91592],[0.21229,-0.24224]],[[242.06729,295.45624],[-0.31253,0.00982],[0.34547,-0.01085]],[[242.7198,296.54352],[-0.09328,-0.29839],[0.0082,0.02624]],[[242.73939,296.64726],[-0.00492,-0.04121],[0.09539,-0.46142]],[[243.35971,295.3551],[-0.16159,0.38053],[0.55361,-1.30368]],[[245.05945,292.25928],[-0.86243,0.84666],[0,0]],[245.0007,292.19728],[[245.45613,291.71667],[0,0],[0.06181,-0.06523]],[[245.69766,291.61109],[-0.09432,0],[0.00745,0]],[[245.71985,291.61184],[-0.00733,-0.00049],[0.56838,-1.77153]],[[248.29473,286.17427],[-1.14306,1.51476],[0,0]],[248.22256,286.1235],[[248.59857,285.52831],[0,0],[0.06082,-0.09938]],[[248.88572,285.36315],[-0.12044,0],[0.02745,0]],[[248.96543,285.37302],[-0.02557,-0.00645],[0.45391,-1.78618]],[[250.62684,280.03095],[-0.56075,1.7507],[-0.40831,-0.11068]]],&quot;closed&quot;:true}],&quot;index&quot;:null}" fill="url(#color-4)"/></g></g></svg>