<svg version="1.1" xmlns="http://www.w3.org/2000/svg" xmlns:xlink="http://www.w3.org/1999/xlink" width="134.49932" height="192.27298" viewBox="0,0,134.49932,192.27298"><defs><linearGradient x1="238.37151" y1="-7.92202" x2="240.79677" y2="75.00906" gradientUnits="userSpaceOnUse" id="color-1"><stop offset="0" stop-color="#4a4a4a" stop-opacity="0"/><stop offset="1" stop-color="#4a4a4a" stop-opacity="0.22353"/></linearGradient><linearGradient x1="244.72977" y1="-11.60789" x2="241.52414" y2="78.06264" gradientUnits="userSpaceOnUse" id="color-2"><stop offset="0" stop-color="#292929" stop-opacity="0"/><stop offset="1" stop-color="#292929" stop-opacity="0.25882"/></linearGradient><linearGradient x1="250.0656" y1="-5.35998" x2="239.72524" y2="76.78117" gradientUnits="userSpaceOnUse" id="color-3"><stop offset="0" stop-color="#383838" stop-opacity="0"/><stop offset="1" stop-color="#383838" stop-opacity="0.22745"/></linearGradient><radialGradient cx="241.40213" cy="36.09461" r="35.53768" gradientUnits="userSpaceOnUse" id="color-4"><stop offset="0" stop-color="#4a4a4a" stop-opacity="0"/><stop offset="1" stop-color="#4a4a4a" stop-opacity="0.25098"/></radialGradient><linearGradient x1="205.37625" y1="125.56928" x2="276.30167" y2="125.56928" gradientUnits="userSpaceOnUse" id="color-5"><stop offset="0" stop-color="#ffffff"/><stop offset="1" stop-color="#b5b5b5"/></linearGradient><linearGradient x1="179.86976" y1="149.52782" x2="226.48389" y2="149.52782" gradientUnits="userSpaceOnUse" id="color-6"><stop offset="0" stop-color="#c4c4c4"/><stop offset="1" stop-color="#909090"/></linearGradient><linearGradient x1="203.17683" y1="119.3976" x2="203.17683" y2="179.65803" gradientUnits="userSpaceOnUse" id="color-7"><stop offset="0" stop-color="#348317"/><stop offset="1" stop-color="#3c5b0d"/></linearGradient><radialGradient cx="239.34745" cy="135.4747" r="27.13216" gradientUnits="userSpaceOnUse" id="color-8"><stop offset="0" stop-color="#d251e8"/><stop offset="1" stop-color="#a23dba"/></radialGradient><linearGradient x1="250.06522" y1="124.50849" x2="250.06522" y2="178.76799" gradientUnits="userSpaceOnUse" id="color-9"><stop offset="0" stop-color="#348317"/><stop offset="1" stop-color="#3c5b0d"/></linearGradient><radialGradient cx="276.1459" cy="136.63371" r="27.13216" gradientUnits="userSpaceOnUse" id="color-10"><stop offset="0" stop-color="#d251e8"/><stop offset="1" stop-color="#a23dba"/></radialGradient><linearGradient x1="286.88595" y1="124.613" x2="286.88595" y2="178.8725" gradientUnits="userSpaceOnUse" id="color-11"><stop offset="0" stop-color="#348317"/><stop offset="1" stop-color="#3c5b0d"/></linearGradient><linearGradient x1="250.34823" y1="113.49719" x2="250.34823" y2="125.57587" gradientUnits="userSpaceOnUse" id="color-12"><stop offset="0" stop-color="#348317"/><stop offset="1" stop-color="#3c5b0d"/></linearGradient><linearGradient x1="287.79907" y1="113.77674" x2="287.79907" y2="125.85541" gradientUnits="userSpaceOnUse" id="color-13"><stop offset="0" stop-color="#348317"/><stop offset="1" stop-color="#3c5b0d"/></linearGradient><linearGradient x1="219.3546" y1="78.82827" x2="261.36857" y2="78.82827" gradientUnits="userSpaceOnUse" id="color-14"><stop offset="0" stop-color="#008672"/><stop offset="1" stop-color="#004861"/></linearGradient><linearGradient x1="240.36159" y1="75.20638" x2="240.36159" y2="82.45017" gradientUnits="userSpaceOnUse" id="color-15"><stop offset="0" stop-color="#348317"/><stop offset="1" stop-color="#3c5b0d"/></linearGradient><linearGradient x1="219.13907" y1="91.36182" x2="261.15305" y2="91.36182" gradientUnits="userSpaceOnUse" id="color-16"><stop offset="0" stop-color="#008672"/><stop offset="1" stop-color="#004861"/></linearGradient><linearGradient x1="240.14606" y1="87.73992" x2="240.14606" y2="94.98371" gradientUnits="userSpaceOnUse" id="color-17"><stop offset="0" stop-color="#348317"/><stop offset="1" stop-color="#3c5b0d"/></linearGradient><linearGradient x1="174.11977" y1="163.90282" x2="231.23389" y2="163.90282" gradientUnits="userSpaceOnUse" id="color-18"><stop offset="0" stop-color="#d8d8d8"/><stop offset="1" stop-color="#aaaaaa"/></linearGradient><linearGradient x1="202.67684" y1="148.1476" x2="202.67684" y2="179.65803" gradientUnits="userSpaceOnUse" id="color-19"><stop offset="0" stop-color="#348317"/><stop offset="1" stop-color="#3c5b0d"/></linearGradient><linearGradient x1="182.86977" y1="132.83015" x2="223.48389" y2="132.83015" gradientUnits="userSpaceOnUse" id="color-20"><stop offset="0" stop-color="#60ff45"/><stop offset="1" stop-color="#adff00"/></linearGradient><linearGradient x1="203.17683" y1="125.3976" x2="203.17683" y2="140.2627" gradientUnits="userSpaceOnUse" id="color-21"><stop offset="0" stop-color="#348317"/><stop offset="1" stop-color="#3c5b0d"/></linearGradient><linearGradient x1="176.86977" y1="163.99682" x2="227.23389" y2="163.99682" gradientUnits="userSpaceOnUse" id="color-22"><stop offset="0" stop-color="#60ff45"/><stop offset="1" stop-color="#adff00"/></linearGradient><linearGradient x1="202.05184" y1="156.56426" x2="202.05184" y2="171.42937" gradientUnits="userSpaceOnUse" id="color-23"><stop offset="0" stop-color="#348317"/><stop offset="1" stop-color="#3c5b0d"/></linearGradient><linearGradient x1="239.99999" y1="179.02045" x2="239.99999" y2="180.33096" gradientUnits="userSpaceOnUse" id="color-24"><stop offset="0" stop-color="#348317"/><stop offset="1" stop-color="#3c5b0d"/></linearGradient></defs><g transform="translate(-172.75034,11.94202)"><g data-paper-data="{&quot;isPaintingLayer&quot;:true}" fill-rule="nonzero" stroke-linecap="butt" stroke-linejoin="miter" stroke-miterlimit="10" stroke-dasharray="" stroke-dashoffset="0" style="mix-blend-mode: normal"><path d="M220.09683,70.64306l-0.03104,-0.01862l-0.01873,-0.07451c-0.18451,-0.36202 -0.29533,-0.77948 -0.30841,-1.2268l-0.02559,-0.87479l0.05981,-0.31603l-0.00945,-0.32308l0.07374,-0.38962l-0.05674,-1.93986l-0.1612,-1.03516l0.01161,-0.18853l-0.04568,-0.18173l-0.00068,-0.02335l-0.02603,-0.07483l-0.17431,-0.28949l-0.11227,-0.34409l-0.74293,-1.5565l-0.04147,-0.18305l-0.09393,-0.15599l-0.23114,-0.70841l-0.14321,-0.22729l-0.11344,-0.32619l-0.17431,-0.28948l-0.50809,-1.55721l-0.04078,-0.41956l-0.10204,-0.40589l-0.00591,-0.2018l-0.09634,-0.3832l-0.00944,-0.32307l-0.07814,-0.31083l-0.00289,-0.099l-0.03899,-0.11952l-0.0408,-0.41955l-0.10204,-0.40589l-0.09722,-3.32423l0.05981,-0.31603l-0.00944,-0.32308l0.07373,-0.38963l-0.02125,-0.72667l0.0598,-0.31603l-0.00944,-0.32308l0.12198,-0.64456l0.11945,-0.81896l0.05811,-0.15224l0.00636,-0.16577l0.23638,-0.90466l0.10491,-0.71933l0.05811,-0.15224l0.00636,-0.16577l0.22572,-0.86388l0.09946,-0.85133l0.12708,-0.36471l0.06368,-0.38554l0.34169,-0.84541l0.22009,-0.99959l0.10186,-0.21691l0.03991,-0.24162l1.22548,-3.03199l0.50791,-1.94387l0.12946,-0.24899l0.06599,-0.27928l0.34649,-0.70833l0.21941,-0.68859l0.10448,-0.1764l0.04852,-0.20536l0.43646,-0.89224l0.08291,-0.10066l0.04335,-0.12874l0.26637,-0.43268l0.46083,-1.44629l0.05476,-0.09244l0.01809,-0.10952l1.51303,-3.74347l0.32251,-1.23428l0.22773,-1.75159l0.07539,-0.2074l0.01393,-0.22384l0.46667,-1.62386l0.08051,-1.59016l0.0374,-0.13621l-0.01013,-0.14222l0.25077,-1.71945l0.22828,-1.95407l0.07918,-2.06354l-0.177,-6.05241l-0.15942,-1.2501l-0.29569,-1.17615l-0.33204,-1.17144l-0.00262,-0.04482l-0.01975,-0.03891l-0.13141,-0.52267l-0.27054,-0.7l-0.01167,-0.07784l-0.03924,-0.06517l-0.23115,-0.70841l-0.14321,-0.22732l-0.06054,-0.17409l-0.03712,-0.00699l-0.16768,-0.27848l-0.2318,-0.21094l-0.01566,-0.20001l-0.25746,-0.42757l-0.02239,-0.0686l-0.00209,-0.00368l-0.1754,-0.16941l-0.32338,-0.51326l-0.11343,-0.32619l-0.10638,-0.17667l-0.28573,-0.30371l-0.20164,-0.35454l-0.25106,-0.31119l-0.16424,-0.34411l-0.02285,-0.10088l-0.32193,-0.29297l-0.01022,-0.13049l-0.12751,-0.15805l-0.16425,-0.34411l-0.2969,-1.31064l0.33465,-0.61345l0.01416,-0.72153l0.87826,-0.91437l0.17033,-0.10491l0.01213,-0.02608l0.06384,-0.02072l0.05662,-0.03488l0.51435,-0.15038l0.5107,-0.16569l0.06437,-0.00243l0.06429,-0.01879l0.02207,0.01554l3.87968,-0.14642l1.21857,-0.20054l1.03742,-0.20852l0.16597,0.01322l0.15998,-0.05191l0.79369,-0.02996l0.33732,-0.10943l0.2844,-0.01074l0.27362,-0.08877l0.30803,-0.01164l0.27819,0.06795l0.2844,-0.01074l0.62117,0.15171l0.22846,0.12756l0.25019,0.05332l0.34931,0.18219l0.15846,-0.05558l0.25961,0.16389l0.29037,0.07092l0.09274,0.17094l0.39708,0.25068l0.17853,0.06021l0.26583,0.17837l0.29404,0.10693l0.47227,0.33248l0.16044,0.18758l0.20124,0.12703l0.15113,0.16064l0.27772,0.19552l0.16044,0.18758l0.20124,0.12703l0.31826,0.33829l0.12494,0.21967l0.1754,0.16941l0.05431,0.0862l0.07933,0.05584l0.16044,0.18758l0.20123,0.12703l0.31826,0.3383l0.12494,0.21968l0.17541,0.1694l0.60941,0.96724l1.40734,1.99039l0.12764,0.31474l0.18672,0.27404l0.21071,0.54517l0.29106,0.41164l0.12764,0.31474l0.18671,0.27404l0.29496,0.76317l0.24035,0.50355l0.43944,0.77266l0.08216,0.2737l0.14373,0.23868l0.11227,0.34409l0.25019,0.52416l0.06344,0.28006l0.12718,0.2505l0.84803,3.37317l0.13851,0.4245l0.00995,0.10234l0.04528,0.08918l0.32459,1.29109l0.13851,0.42451l0.04078,0.41955l0.10204,0.40589l0.01101,0.37675l0.09634,0.3832l0.00187,0.06399l0.02581,0.05691l0.1796,0.869l-0.00056,0.04347l0.01642,0.03927l0.13547,0.76567l0.23316,0.60328l0.03591,0.23947l0.09791,0.21598l0.17959,0.86898l-0.00054,0.04348l0.01641,0.03927l0.14898,0.84196l0.27569,0.84495l0.02013,0.20703l0.07865,0.18814l0.14897,0.84195l0.27569,0.84495l0.01603,0.16492l0.06687,0.14751l0.14671,0.70984l0.28871,0.88486l0.00995,0.10233l0.04528,0.0892l0.1314,0.52267l0.14764,0.38201l1.04929,1.48398l0.3608,0.28664l0.19233,0.25137l0.23897,0.19292l0.55839,0.74107l2.33265,2.4795l0.49678,0.39468l0.21559,0.28177l0.2618,0.22568l0.37964,0.53691l0.6757,0.71824l0.12495,0.21967l0.1754,0.16941l0.09294,0.1475l0.30693,0.24385l0.25674,0.33555l0.29817,0.28798l0.64675,1.02652l0.05367,0.15432l0.09868,0.12232l0.22915,0.48008l0.35199,0.4978l0.08792,0.21677l0.14195,0.17596l0.32849,0.68822l0.02445,0.1079l0.06003,0.08811l0.29496,0.76316l0.61115,1.28042l0.02445,0.1079l0.06004,0.08812l0.29496,0.76317l0.28266,0.5922l0.02445,0.1079l0.06003,0.08811l0.33361,0.86317l0.0267,0.17807l0.07944,0.15648l0.08002,0.31831l0.30096,0.52916l0.08217,0.27371l0.14373,0.23867l0.33872,1.03814l0.02013,0.20701l0.07865,0.18814l0.12985,0.73387l0.37975,0.92088l0.06236,0.36227l0.1273,0.33963l0.16697,1.19385l0.28921,1.02032l0.01063,0.18137l0.06527,0.16597l0.37497,2.40775l0.17942,1.01401l-0.00901,0.21924l0.05306,0.21104l0.11257,3.84912l-0.04839,0.25571l0.01858,0.26068l-0.12843,0.88061l-0.05811,0.15224l-0.00636,0.16578l-0.17059,0.65289l0.01313,0.44893l-0.01954,0.10327l0.03733,0.07822l-0.15874,0.56333l-0.10944,0.57827l-0.06667,0.04669l-0.02836,0.10061l-0.08177,0.1499l-0.04938,0.26098l-0.17446,0.4033l-0.1206,0.42797l-0.12962,0.23761l-0.05058,0.19357l-0.15702,0.30198l-0.09413,0.33402l-0.21687,0.39755l-0.08373,0.20717l-0.23231,0.32944l-0.18049,0.36895l-1.33258,1.61787l-0.38898,0.71304l-0.22751,0.5629l-0.11799,0.16731l-0.00257,0.13098l-0.16035,0.16693l-0.01177,0.07128l-0.02687,0.06649l-0.01396,0.07374l-0.0221,0.01548l-0.5122,1.26724l-0.11799,0.16731l-0.00257,0.13097l-0.3378,0.35167l-0.10816,0.15338l-0.00073,0.03726l-0.09609,0.10005l-0.08149,0.11555l-0.03268,0.0033l-0.12754,0.13279l-0.10816,0.15338l-0.00073,0.03725l-0.09609,0.10005l-0.08149,0.11556l-0.03268,0.0033l-0.12754,0.13279l-0.28647,0.40623l-0.11487,0.01159l-0.13914,0.14485l-0.30291,0.18657l-0.16112,0.04711l-0.13732,0.1067l-0.91385,0.3848l-0.3019,0.03788l-0.0106,0.00653l-0.51435,0.15036l-0.5107,0.16569l-0.06437,0.00243l-0.0643,0.0188l-0.02207,-0.01554l-0.08255,0.00311l-0.40203,0.10722l-0.32199,0.13558l-0.36933,0.04632l-0.35728,0.11592l-0.70321,0.02654l-0.1052,0.04429l-0.36933,0.04632l-0.35728,0.11592l-0.08715,0.00329l-0.1052,0.04429l-0.09009,0.0113l-0.07851,0.05144l-0.61094,0.19821l-0.2844,0.01074l-0.27362,0.08878l-0.54918,0.02073l-0.10521,0.04429l-0.09008,0.01129l-0.07851,0.05145l-0.61094,0.19822l-0.2844,0.01073l-0.27362,0.08877l-1.31137,0.04949l-0.54214,0.14459l-0.23019,-0.00376l-0.22138,0.07183l-18.94365,0.71493l-0.36326,-0.08872l-0.37122,-0.01839l-0.93432,-0.31505l-0.05691,-0.03818l-0.14109,0.00532l-0.02111,0.01716l-0.06525,-0.01391l-0.06437,0.00243l-0.51926,-0.12682l-0.522,-0.11126l-0.05853,-0.03052l-0.0649,-0.01586l-0.01363,-0.0251l-0.17609,-0.09184l-0.92975,-0.84613l-0.10067,-1.28574l-0.00213,-0.00393l0.00156,-0.00336l-0.06276,-0.80158c-0.57236,-0.16821 -1.06115,-0.58012 -1.37198,-1.13543z" fill="url(#color-1)" stroke="none" stroke-width="0.5"/><path d="M219.50333,71.47817l-0.03217,-0.0229l-0.01498,-0.08207c-0.1736,-0.40719 -0.26384,-0.86751 -0.24654,-1.35117l0.03381,-0.94589l0.0867,-0.33546l0.01249,-0.34933l0.10688,-0.41356l0.07498,-2.0975l-0.10122,-1.13114l0.02576,-0.20231l-0.03652,-0.20016l0.0009,-0.02524l-0.02282,-0.08308l-0.16769,-0.32804l-0.09694,-0.38131l-0.69207,-1.74616l-0.03188,-0.20117l-0.09037,-0.17676l-0.19959,-0.78504l-0.13851,-0.25815l-0.09946,-0.36212l-0.1677,-0.32804l-0.43872,-1.72565l-0.01454,-0.45624l-0.08157,-0.44703l0.0078,-0.21821l-0.07701,-0.42205l0.01249,-0.34933l-0.06246,-0.34235l0.00383,-0.10705l-0.03367,-0.13244l-0.01454,-0.45623l-0.08157,-0.44703l0.1285,-3.59439l0.0867,-0.33546l0.01249,-0.34933l0.10689,-0.41356l0.02809,-0.78573l0.08669,-0.33546l0.01249,-0.34933l0.17682,-0.6842l0.18632,-0.87253l0.07336,-0.15894l0.0185,-0.17822l0.31846,-0.95437l0.16365,-0.76637l0.07336,-0.15894l0.0185,-0.17822l0.3041,-0.91134l0.16704,-0.90926l0.16268,-0.38188l0.09574,-0.41006l0.42791,-0.88091l0.30755,-1.05824l0.1251,-0.22474l0.06,-0.25701l1.53466,-3.15934l0.6843,-2.05068l0.15711,-0.25684l0.09079,-0.29527l0.42345,-0.73263l0.28499,-0.72284l0.12508,-0.18081l0.06674,-0.21709l0.5334,-0.92284l0.09649,-0.10106l0.0558,-0.13494l0.31768,-0.44256l0.59859,-1.51825l0.06555,-0.09475l0.0272,-0.11649l1.89477,-3.90069l0.4345,-1.3021l0.3686,-1.86865l0.09588,-0.21689l0.03074,-0.24017l0.61735,-1.70924l0.19846,-1.70788l0.04991,-0.14352l-0.00095,-0.15431l0.39118,-1.83191l0.3834,-2.08701l0.23026,-2.21861l0.23395,-6.54427l-0.08419,-1.36282l-0.23637,-1.29541l-0.27591,-1.29362l0.00031,-0.04857l-0.01857,-0.04376l-0.10504,-0.57566l-0.24268,-0.77954l-0.00712,-0.08502l-0.03775,-0.07385l-0.19959,-0.78504l-0.13851,-0.25815l-0.05308,-0.19327l-0.03954,-0.01089l-0.16132,-0.31556l-0.23521,-0.24853l-0.00285,-0.21714l-0.24769,-0.4845l-0.01933,-0.07602l-0.002,-0.00414l-0.1773,-0.19862l-0.31277,-0.5829l-0.09946,-0.36212l-0.10234,-0.20019l-0.28687,-0.35348l-0.19261,-0.40068l-0.24894,-0.3584l-0.153,-0.38604l-0.01757,-0.11089l-0.32667,-0.34518l-0.00186,-0.14167l-0.12644,-0.18203l-0.15301,-0.38604l-0.22824,-1.44057l0.40403,-0.63137l0.06592,-0.77697l1.0115,-0.90669l0.19108,-0.09774l0.01491,-0.02703l0.07031,-0.01655l0.06352,-0.03249l0.56534,-0.11559l0.56248,-0.13244l0.0696,0.00321l0.07066,-0.01445l0.02271,0.01875l4.19496,0.19353l1.32845,-0.10592l1.13361,-0.13091l0.17809,0.02928l0.1762,-0.0415l0.85819,0.03959l0.37153,-0.08748l0.30751,0.01419l0.30136,-0.07097l0.33306,0.01537l0.2953,0.09849l0.30751,0.01419l0.65935,0.21991l0.23747,0.15827l0.26612,0.08018l0.36398,0.22817l0.17482,-0.04559l0.26852,0.20029l0.30822,0.1028l0.08803,0.19277l0.4107,0.30634l0.18834,0.08111l0.27421,0.21647l0.30965,0.14198l0.48606,0.40141l0.15989,0.21686l0.20814,0.15525l0.15174,0.18696l0.28583,0.23605l0.15988,0.21686l0.20815,0.15525l0.31953,0.39372l0.11934,0.24826l0.1773,0.19862l0.05253,0.0979l0.08163,0.06741l0.15989,0.21686l0.20814,0.15525l0.31953,0.39373l0.11934,0.24826l0.1773,0.19861l0.58942,1.0985l1.37826,2.27435l0.11558,0.35104l0.18215,0.3125l0.189,0.60713l0.28504,0.47037l0.11558,0.35104l0.18215,0.3125l0.26458,0.8499l0.2239,0.5649l0.41975,0.87321l0.06941,0.30267l0.13827,0.27047l0.09694,0.38131l0.23307,0.58803l0.04877,0.30782l0.1196,0.28172l0.6779,3.71518l0.1196,0.47043l0.00354,0.11128l0.04258,0.10031l0.25947,1.42199l0.1196,0.47043l0.01454,0.45623l0.08157,0.44703l-0.01456,0.40737l0.07701,0.42204l-0.00247,0.0692l0.02384,0.06373l0.13271,0.95357l-0.00365,0.04684l0.01495,0.04383l0.09237,0.83813l0.20914,0.67182l0.02193,0.26156l0.09045,0.24182l0.13271,0.95357l-0.00364,0.04684l0.01495,0.04383l0.10158,0.92166l0.23806,0.93635l0.00717,0.22512l0.07163,0.21005l0.10158,0.92166l0.23806,0.93635l0.00571,0.17934l0.06178,0.16517l0.10841,0.77893l0.24929,0.98057l0.00354,0.11128l0.04258,0.10031l0.10504,0.57566l0.13243,0.42541l1.0276,1.6957l0.36904,0.34187l0.1898,0.28856l0.24421,0.22975l0.55026,0.84992l2.34198,2.88574l0.50813,0.47071l0.21276,0.32345l0.26654,0.26714l0.37179,0.61351l0.6784,0.83591l0.11935,0.24826l0.1773,0.19862l0.08989,0.16752l0.31395,0.29083l0.25337,0.3852l0.30139,0.33763l0.62554,1.1658l0.04705,0.17131l0.09786,0.14089l0.21346,0.53857l0.34471,0.56883l0.07961,0.24179l0.14077,0.20266l0.306,0.77208l0.01879,0.11861l0.05857,0.10048l0.26458,0.84989l0.56932,1.43644l0.01879,0.11861l0.05857,0.10048l0.26458,0.8499l0.26332,0.66436l0.01879,0.11861l0.05857,0.10048l0.29925,0.96125l0.0163,0.19448l0.07471,0.17596l0.06397,0.35059l0.28748,0.59803l0.06941,0.30267l0.13827,0.27047l0.29248,1.15043l0.00717,0.22512l0.07163,0.21005l0.08854,0.80333l0.34496,1.02768l0.04184,0.39641l0.11347,0.37787l0.09629,1.30284l0.24032,1.12673l-0.00126,0.1966l0.05874,0.18494l0.23544,2.63101l0.12234,1.10999l-0.0251,0.23565l0.04241,0.23243l-0.14878,4.16193l-0.07014,0.27141l0.00174,0.28286l-0.20034,0.93821l-0.07336,0.15894l-0.0185,0.17822l-0.22983,0.68876l-0.01735,0.4854l-0.02833,0.10963l0.03477,0.08773l-0.21077,0.59324l-0.15864,0.61382l-0.07519,0.04432l-0.03765,0.10596l-0.09872,0.15427l-0.07159,0.27702l-0.21649,0.41921l-0.16013,0.45069l-0.15648,0.24453l-0.06815,0.20422l-0.19056,0.3115l-0.12498,0.35177l-0.26183,0.40915l-0.10486,0.21586l-0.27371,0.33429l-0.22058,0.38162l-1.55092,1.62434l-0.46961,0.73386l-0.28492,0.58654l-0.13901,0.16979l-0.01197,0.14103l-0.18466,0.16553l-0.0177,0.07582l-0.03366,0.06928l-0.02023,0.07827l-0.02493,0.01469l-0.64141,1.32046l-0.13901,0.16979l-0.01197,0.14103l-0.38904,0.34873l-0.12743,0.15564l-0.00341,0.04012l-0.11066,0.0992l-0.09601,0.11726l-0.03548,0.00061l-0.14689,0.13168l-0.12743,0.15564l-0.00341,0.04012l-0.11066,0.0992l-0.09601,0.11726l-0.03548,0.00061l-0.14689,0.13168l-0.33751,0.41222l-0.12471,0.00211l-0.16024,0.14364l-0.33982,0.17382l-0.17709,0.03622l-0.1556,0.10266l-1.0127,0.33226l-0.32829,0.0135l-0.01189,0.00608l-0.56534,0.11559l-0.56247,0.13244l-0.0696,-0.00321l-0.07067,0.01445l-0.02271,-0.01875l-0.08926,-0.00411l-0.44116,0.07923l-0.35682,0.11708l-0.40162,0.01651l-0.39351,0.09267l-0.76035,-0.03508l-0.11658,0.03825l-0.40162,0.01651l-0.39351,0.09267l-0.09423,-0.00435l-0.11658,0.03825l-0.09796,0.00403l-0.0883,0.04837l-0.67288,0.15845l-0.30751,-0.01419l-0.30136,0.07097l-0.59382,-0.0274l-0.11659,0.03825l-0.09796,0.00402l-0.0883,0.04837l-0.67288,0.15845l-0.30751,-0.01419l-0.30136,0.07097l-1.41795,-0.06541l-0.5949,0.10684l-0.24803,-0.02491l-0.24382,0.05742l-20.48312,-0.94497l-0.3856,-0.1286l-0.39911,-0.05345l-0.98565,-0.42446l-0.0587,-0.04633l-0.15255,-0.00704l-0.02398,0.0166l-0.0694,-0.02092l-0.0696,-0.00321l-0.55117,-0.18383l-0.55523,-0.1673l-0.06099,-0.03823l-0.0689,-0.02298l-0.01293,-0.02833l-0.18348,-0.11502l-0.94345,-0.99688l-0.01832,-1.39594l-0.00202,-0.00445l0.00192,-0.00348l-0.01142,-0.87029c-0.60556,-0.23329 -1.10385,-0.72186 -1.40014,-1.34899z" fill="url(#color-2)" stroke="none" stroke-width="0.5"/><path d="M220.01248,68.382l-0.02771,-0.02449l-0.00701,-0.07708c-0.12612,-0.39302 -0.17118,-0.82604 -0.1154,-1.26908l0.10908,-0.86646l0.1074,-0.29934l0.04028,-0.32001l0.13241,-0.36904l0.24187,-1.92138l0.00014,-1.05122l0.04037,-0.18335l-0.0171,-0.188l0.00291,-0.02312l-0.01414,-0.07885l-0.12721,-0.31958l-0.05774,-0.36105l-0.49266,-1.67981l-0.01274,-0.18846l-0.06855,-0.17221l-0.11887,-0.74334l-0.10613,-0.25218l-0.06164,-0.34368l-0.12721,-0.31957l-0.2613,-1.63398l0.02424,-0.42121l-0.03818,-0.41987l0.02516,-0.19988l-0.03604,-0.39641l0.04028,-0.32l-0.02924,-0.32155l0.01234,-0.09806l-0.02005,-0.1254l0.02423,-0.42121l-0.03818,-0.41987l0.41449,-3.29258l0.1074,-0.29934l0.04028,-0.32l0.13241,-0.36904l0.09061,-0.71976l0.10739,-0.29934l0.04028,-0.32l0.21905,-0.61053l0.24331,-0.78277l0.08058,-0.13839l0.03171,-0.16197l0.37161,-0.84399l0.21371,-0.68753l0.08058,-0.13839l0.03171,-0.16197l0.35484,-0.80594l0.2286,-0.8186l0.18112,-0.33396l0.12187,-0.36701l0.46622,-0.76478l0.37013,-0.94069l0.13359,-0.19342l0.07638,-0.23002l1.67206,-2.74283l0.79848,-1.81349l0.16569,-0.21954l0.10785,-0.26193l0.4499,-0.62884l0.32173,-0.63459l0.12996,-0.15299l0.07929,-0.19259l0.56672,-0.79212l0.09709,-0.0827l0.06245,-0.11819l0.32869,-0.37328l0.67576,-1.33286l0.06811,-0.08018l0.03462,-0.10425l2.06441,-3.38643l0.50701,-1.1515l0.49309,-1.67964l0.10607,-0.18929l0.04807,-0.21765l0.70876,-1.50656l0.32334,-1.54985l0.05773,-0.12671l0.01185,-0.14205l0.51083,-1.64344l0.5247,-1.87891l0.39469,-2.01625l0.75465,-5.99477l0.03489,-1.26253l-0.11064,-1.21671l-0.14716,-1.21927l0.00429,-0.04465l-0.01348,-0.04221l-0.04917,-0.5407l-0.15896,-0.74286l0.00046,-0.07896l-0.02864,-0.07194l-0.11888,-0.74333l-0.10613,-0.25219l-0.03289,-0.18342l-0.03547,-0.01423l-0.12237,-0.30741l-0.19587,-0.25364l0.01528,-0.20004l-0.18789,-0.47202l-0.01151,-0.07199l-0.00149,-0.00403l-0.14671,-0.20156l-0.23965,-0.56945l-0.06164,-0.34367l-0.07763,-0.19503l-0.23474,-0.35566l-0.14413,-0.38905l-0.19945,-0.35615l-0.10891,-0.37136l-0.00702,-0.10388l-0.27203,-0.35225l0.00996,-0.13052l-0.1013,-0.18089l-0.10892,-0.37137l-0.09119,-1.34937l0.42369,-0.53778l0.12468,-0.70768l1.00515,-0.7264l0.18383,-0.06959l0.01594,-0.02327l0.06604,-0.00774l0.06111,-0.02313l0.52955,-0.04619l0.52831,-0.06199l0.06376,0.01036l0.06619,-0.00578l0.01935,0.01966l3.84273,0.62427l1.23068,0.0439l1.05353,0.00017l0.1614,0.04587l0.16549,-0.01942l0.78614,0.12771l0.34895,-0.04095l0.28169,0.04576l0.28305,-0.03321l0.30509,0.04957l0.26351,0.12201l0.28169,0.04576l0.58837,0.27243l0.20539,0.17085l0.23818,0.10206l0.316,0.24859l0.16456,-0.02335l0.23048,0.2128l0.27504,0.12735l0.06509,0.18668l0.35252,0.32547l0.16656,0.09464l0.23439,0.22829l0.27312,0.16353l0.41401,0.42094l0.12919,0.21648l0.17866,0.16494l0.12416,0.18812l0.24346,0.24754l0.12919,0.21648l0.17866,0.16494l0.26147,0.39615l0.08931,0.24106l0.14671,0.20156l0.04025,0.09564l0.06954,0.07069l0.12919,0.21648l0.17865,0.16494l0.26147,0.39616l0.08931,0.24106l0.14672,0.20155l0.45162,1.07312l1.0803,2.23866l0.07738,0.33519l0.14179,0.30683l0.12381,0.57855l0.22342,0.46298l0.07738,0.33519l0.14179,0.30681l0.17331,0.8099l0.15938,0.54343l0.31412,0.84787l0.0389,0.28577l0.10489,0.26349l0.05774,0.36106l0.16591,0.56569l0.01948,0.28833l0.08679,0.27185l0.31731,3.48947l0.07123,0.44544l-0.00591,0.10275l0.0309,0.0968l0.12145,1.3356l0.07123,0.44544l-0.02424,0.42121l0.03818,0.41988l-0.04698,0.37317l0.03605,0.39641l-0.00798,0.06338l0.01668,0.06116l0.04347,0.89125l-0.00722,0.04269l0.01014,0.04192l0.01588,0.78078l0.137,0.64022l-0.00139,0.24292l0.06326,0.23205l0.04347,0.89124l-0.00721,0.04269l0.01013,0.04192l0.01746,0.85857l0.14179,0.88661l-0.01196,0.20785l0.04857,0.20085l0.01746,0.85857l0.14179,0.88661l-0.00953,0.16557l0.04321,0.1585l0.03551,0.72802l0.14848,0.92848l-0.00591,0.10275l0.0309,0.0968l0.04917,0.5407l0.08675,0.4054l0.80545,1.66909l0.31128,0.35371l0.1508,0.28561l0.2057,0.23731l0.4361,0.84031l1.91636,2.90354l0.4286,0.48704l0.16904,0.32016l0.22315,0.27407l0.29141,0.60388l0.55511,0.84106l0.08931,0.24106l0.14671,0.20156l0.06887,0.16366l0.26481,0.30091l0.20131,0.38127l0.2494,0.34262l0.4793,1.13889l0.02916,0.16259l0.0784,0.14l0.15195,0.51811l0.27019,0.55991l0.0533,0.23086l0.11277,0.20139l0.21783,0.74273l0.00751,0.11111l0.04559,0.09866l0.17331,0.80989l0.40527,1.38186l0.00751,0.11111l0.04559,0.09866l0.17331,0.8099l0.18744,0.63912l0.00751,0.11111l0.04559,0.09865l0.19602,0.91604l-0.00104,0.18063l0.05421,0.16981l0.02994,0.32929l0.21513,0.58067l0.0389,0.28578l0.10489,0.26348l0.1742,1.08932l-0.01196,0.20784l0.04857,0.20085l0.01522,0.74835l0.23259,0.98198l0.00581,0.36908l0.07322,0.35965l-0.01882,1.20864l0.12817,1.06198l-0.01736,0.1807l0.03879,0.17636l-0.00031,2.44514l0.02104,1.03401l-0.04252,0.21409l0.01985,0.21831l-0.47993,3.81246l-0.08689,0.2422l-0.02172,0.26038l-0.26162,0.84169l-0.08058,0.13839l-0.03171,0.16197l-0.26818,0.60909l-0.05597,0.44465l-0.0351,0.09783l0.02475,0.0844l-0.24277,0.52325l-0.19652,0.54774l-0.07282,0.03276l-0.04336,0.09345l-0.10352,0.13139l-0.08869,0.2472l-0.23369,0.36257l-0.18444,0.39754l-0.1641,0.2083l-0.07952,0.1806l-0.20096,0.26626l-0.14395,0.31027l-0.27457,0.3485l-0.11424,0.18741l-0.27932,0.27837l-0.23435,0.32755l-1.56049,1.32915l-0.49246,0.62507l-0.31042,0.50922l-0.14187,0.14139l-0.02263,0.12846l-0.18351,0.13262l-0.02253,0.06785l-0.03667,0.06015l-0.02506,0.06984l-0.02414,0.01086l-0.69884,1.14636l-0.14187,0.14139l-0.02263,0.12845l-0.3866,0.27938l-0.13005,0.12961l-0.00644,0.03653l-0.10997,0.07947l-0.09798,0.09765l-0.03268,-0.00322l-0.14597,0.10549l-0.13005,0.12961l-0.00644,0.03653l-0.10997,0.07947l-0.09798,0.09765l-0.03268,-0.00322l-0.14597,0.10549l-0.34444,0.34327l-0.11489,-0.01132l-0.15923,0.11507l-0.3269,0.12374l-0.16588,0.01447l-0.15159,0.07787l-0.95891,0.19789l-0.30309,-0.02251l-0.01144,0.00433l-0.52955,0.04619l-0.5283,0.06199l-0.06376,-0.01036l-0.0662,0.00578l-0.01935,-0.01966l-0.08177,-0.01329l-0.41233,0.02596l-0.33786,0.06973l-0.37078,-0.02754l-0.3696,0.04337l-0.69651,-0.11315l-0.11039,0.02278l-0.37078,-0.02754l-0.3696,0.04337l-0.08632,-0.01402l-0.11039,0.02278l-0.09044,-0.00672l-0.08521,0.03511l-0.632,0.07417l-0.28169,-0.04576l-0.28305,0.03321l-0.54395,-0.08837l-0.11039,0.02278l-0.09044,-0.00672l-0.08521,0.03511l-0.632,0.07417l-0.28169,-0.04576l-0.28305,0.03321l-1.29889,-0.21102l-0.55602,0.035l-0.22609,-0.04931l-0.22901,0.02688l-18.76321,-3.0482l-0.34409,-0.15931l-0.36271,-0.09162l-0.87165,-0.49529l-0.05017,-0.04887l-0.13974,-0.0227l-0.02342,0.01272l-0.06211,-0.02662l-0.06376,-0.01036l-0.49184,-0.22773l-0.49693,-0.21294l-0.05295,-0.04166l-0.06148,-0.02847l-0.00956,-0.02743l-0.15929,-0.12533l-0.78564,-1.01733l0.09822,-1.28598l-0.0015,-0.00429l0.00205,-0.00301l0.06123,-0.80174c-0.53778,-0.279 -0.95586,-0.78142 -1.17669,-1.38979z" fill="url(#color-3)" stroke="none" stroke-width="0.5"/><path d="M222.05611,69.00946l-0.02763,-0.0192l-0.01343,-0.06986c-0.15133,-0.34559 -0.23196,-0.73736 -0.22105,-1.15016l0.02134,-0.80729l0.0713,-0.28707l0.00788,-0.29814l0.0879,-0.35391l0.04731,-1.79013l-0.09533,-0.96393l0.02037,-0.17284l-0.03275,-0.17037l0.00057,-0.02154l-0.02013,-0.07065l-0.14566,-0.27813l-0.08573,-0.3243l-0.60427,-1.48256l-0.02879,-0.1713l-0.07849,-0.14988l-0.1765,-0.66768l-0.12021,-0.21879l-0.08773,-0.3079l-0.14566,-0.27811l-0.38797,-1.46765l-0.01602,-0.38907l-0.07313,-0.38051l0.00492,-0.18623l-0.06905,-0.35926l0.00788,-0.29813l-0.05601,-0.29141l0.00242,-0.09136l-0.02978,-0.11264l-0.01603,-0.38906l-0.07313,-0.38052l0.08108,-3.06768l0.0713,-0.28707l0.00788,-0.29814l0.0879,-0.35391l0.01773,-0.67058l0.07129,-0.28708l0.00788,-0.29814l0.14542,-0.58548l0.15202,-0.74626l0.06133,-0.13634l0.01436,-0.15224l0.26411,-0.81744l0.13353,-0.65546l0.06133,-0.13635l0.01437,-0.15222l0.25219,-0.78057l0.13528,-0.77739l0.13575,-0.32744l0.07842,-0.35081l0.35805,-0.75589l0.25397,-0.90593l0.10494,-0.19301l0.04915,-0.21986l1.28413,-2.71095l0.56749,-1.75644l0.13199,-0.22073l0.0751,-0.25282l0.35543,-0.62934l0.23739,-0.61957l0.10527,-0.15552l0.05522,-0.18588l0.44772,-0.79274l0.08151,-0.0872l0.04653,-0.11569l0.26749,-0.38081l0.4986,-1.30135l0.05517,-0.08149l0.02228,-0.09965l1.58545,-3.34709l0.36034,-1.11527l0.29961,-1.59791l0.08008,-0.186l0.02431,-0.20521l0.51309,-1.46448l0.15575,-1.45902l0.04143,-0.12295l-0.00203,-0.13164l0.31917,-1.56682l0.31051,-1.78436l0.17882,-1.89504l0.14763,-5.58529l-0.08265,-1.16175l-0.21193,-1.10269l-0.24565,-1.10077l-0.00012,-0.04144l-0.01619,-0.03714l-0.09418,-0.49003l-0.21321,-0.66254l-0.00675,-0.07245l-0.03279,-0.06262l-0.1765,-0.66767l-0.12021,-0.2188l-0.04681,-0.16434l-0.03382,-0.00889l-0.14013,-0.26755l-0.20263,-0.20961l-0.00416,-0.18521l-0.21515,-0.41081l-0.01709,-0.06465l-0.00174,-0.00353l-0.15283,-0.16763l-0.27145,-0.49407l-0.08773,-0.3079l-0.08889,-0.16973l-0.24753,-0.29861l-0.16749,-0.33985l-0.21522,-0.3032l-0.13359,-0.32776l-0.01587,-0.09443l-0.28142,-0.29113l-0.00271,-0.12084l-0.10931,-0.154l-0.1336,-0.32776l-0.20614,-1.2266l0.33967,-0.54276l0.05006,-0.66352l0.85571,-0.78386l0.16224,-0.08533l0.0125,-0.02321l0.05985,-0.01485l0.05393,-0.02837l0.48138,-0.10441l0.4788,-0.11875l0.0594,0.00202l0.06017,-0.01304l0.01952,0.01577l3.58025,0.12213l1.13245,-0.10397l0.96604,-0.1233l0.15216,0.02316l0.14998,-0.0372l0.73244,0.02498l0.31625,-0.07844l0.26245,0.00896l0.25652,-0.06363l0.28426,0.00969l0.2527,0.081l0.26245,0.00896l0.56424,0.18085l0.20384,0.13258l0.22766,0.06567l0.31232,0.19092l0.14878,-0.04069l0.23066,0.16811l0.26376,0.08454l0.07663,0.16355l0.3528,0.25713l0.16132,0.06726l0.23565,0.18186l0.26528,0.11795l0.41785,0.33746l0.13812,0.18336l0.1788,0.13032l0.13093,0.15794l0.24572,0.19845l0.13812,0.18336l0.1788,0.13031l0.27572,0.33261l0.10378,0.21057l0.15283,0.16763l0.04559,0.08299l0.07018,0.05667l0.13812,0.18336l0.17879,0.13031l0.27572,0.33261l0.10378,0.21057l0.15284,0.16761l0.51155,0.93109l1.19385,1.92613l0.10139,0.29828l0.15787,0.26473l0.16606,0.516l0.2469,0.39834l0.10139,0.2983l0.15787,0.26471l0.23245,0.72233l0.19549,0.47962l0.36502,0.74064l0.06161,0.25749l0.1201,0.22933l0.08573,0.3243l0.2035,0.49928l0.04405,0.2621l0.10426,0.2391l0.60782,3.16247l0.10576,0.4001l0.00391,0.0949l0.03712,0.08513l0.23264,1.21043l0.10577,0.40009l0.01602,0.38906l0.07314,0.38052l-0.00919,0.34768l0.06905,0.35926l-0.00156,0.05905l0.02084,0.05413l0.12079,0.81213l-0.00274,0.03998l0.0131,0.03725l0.08546,0.71406l0.18376,0.57099l0.02078,0.2229l0.07908,0.20537l0.12079,0.81212l-0.00273,0.03999l0.0131,0.03725l0.09398,0.78522l0.21052,0.79636l0.00791,0.19198l0.06277,0.17846l0.09398,0.78522l0.21052,0.79636l0.0063,0.15294l0.05401,0.14027l0.09867,0.6634l0.22046,0.83397l0.00391,0.0949l0.03712,0.08513l0.09418,0.49002l0.11636,0.36155l0.89011,1.43607l0.31754,0.28786l0.16421,0.24422l0.21016,0.1935l0.47618,0.71942l2.02084,2.43783l0.43722,0.39637l0.18408,0.27376l0.2295,0.22515l0.32205,0.51958l0.58538,0.70616l0.10379,0.21057l0.15283,0.16763l0.07801,0.14199l0.27014,0.24489l0.21921,0.32602l0.2598,0.28494l0.54291,0.98814l0.0415,0.14567l0.0846,0.1192l0.18638,0.45727l0.29859,0.48173l0.06984,0.20545l0.1217,0.17144l0.26718,0.65552l0.01697,0.10099l0.05076,0.08512l0.23246,0.72232l0.49709,1.21959l0.01697,0.10099l0.05076,0.08512l0.23246,0.72232l0.22991,0.56407l0.01697,0.10099l0.05076,0.08512l0.26292,0.81699l0.01545,0.16574l0.06513,0.14935l0.05735,0.29844l0.24999,0.50723l0.06161,0.25749l0.1201,0.22932l0.25865,0.97845l0.00791,0.19197l0.06277,0.17846l0.08191,0.68441l0.30244,0.87317l0.03884,0.33775l0.0998,0.32119l0.09249,1.11047l0.21396,0.95875l0.00049,0.16773l0.05158,0.15717l0.22174,2.2421l0.11318,0.94568l-0.01954,0.20129l0.03802,0.19785l-0.09389,3.55205l-0.05768,0.23226l0.00372,0.24129l-0.16346,0.80244l-0.06133,0.13635l-0.01437,0.15224l-0.1906,0.58993l-0.01095,0.41428l-0.0233,0.09381l0.03036,0.0745l-0.17509,0.50825l-0.13046,0.52528l-0.06379,0.03857l-0.03128,0.09078l-0.083,0.13262l-0.05888,0.23706l-0.18136,0.35985l-0.13302,0.38613l-0.13156,0.21022l-0.05651,0.17492l-0.16009,0.26769l-0.10382,0.30137l-0.22012,0.35173l-0.08774,0.18522l-0.23084,0.28799l-0.18514,0.32782l-1.31019,1.40162l-0.3948,0.63085l-0.2384,0.5033l-0.11725,0.14628l-0.00909,0.12044l-0.15623,0.14311l-0.0145,0.06487l-0.02816,0.05945l-0.01664,0.06698l-0.02114,0.01279l-0.53671,1.13304l-0.11724,0.14628l-0.00909,0.12043l-0.32912,0.30149l-0.10748,0.13409l-0.00259,0.03426l-0.09362,0.08575l-0.08098,0.10101l-0.03026,0.00088l-0.12426,0.11383l-0.10748,0.13409l-0.00259,0.03426l-0.09362,0.08575l-0.08098,0.10101l-0.03026,0.00088l-0.12426,0.11383l-0.28466,0.35513l-0.10638,0.00307l-0.13556,0.12418l-0.28852,0.15176l-0.15079,0.03271l-0.13193,0.08916l-0.8613,0.29383l-0.27996,0.01488l-0.0101,0.00532l-0.48137,0.1044l-0.47879,0.11876l-0.0594,-0.00203l-0.06018,0.01305l-0.01952,-0.01577l-0.07618,-0.00261l-0.37573,0.07213l-0.30347,0.10353l-0.34249,0.0182l-0.33497,0.08307l-0.64893,-0.02214l-0.09915,0.03383l-0.34248,0.0182l-0.33496,0.08308l-0.08042,-0.00275l-0.09915,0.03383l-0.08354,0.00445l-0.07494,0.04217l-0.57278,0.14207l-0.26245,-0.00896l-0.25652,0.06363l-0.5068,-0.01729l-0.09916,0.03383l-0.08354,0.00445l-0.07494,0.04217l-0.57277,0.14207l-0.26245,-0.00896l-0.25652,0.06363l-1.21017,-0.04128l-0.50666,0.09725l-0.21179,-0.01871l-0.20755,0.05148l-17.48159,-0.59631l-0.32997,-0.10576l-0.34091,-0.04151l-0.84423,-0.352l-0.05044,-0.03893l-0.1302,-0.00445l-0.02032,0.01442l-0.05937,-0.01713l-0.0594,-0.00202l-0.47167,-0.15118l-0.47499,-0.13703l-0.05233,-0.03199l-0.05896,-0.01889l-0.01126,-0.02403l-0.15744,-0.09625l-0.81276,-0.84077l-0.02671,-1.19068l-0.00176,-0.00376l0.00161,-0.003l-0.01666,-0.74233c-0.51845,-0.19281 -0.94742,-0.6045 -1.20516,-1.13646z" fill="url(#color-4)" stroke="none" stroke-width="0.5"/><path d="M205.37625,179.46951c0,0 9.42687,-30.462 11.80468,-48.45901c2.35457,-17.82105 2.39314,-59.00037 2.39314,-59.00037l41.66052,-0.34109c0,0 -1.12795,40.94869 1.42617,59.22261c2.46509,17.63697 13.64091,48.57786 13.64091,48.57786z" fill="url(#color-5)" stroke="none" stroke-width="0"/><path d="M179.86976,179.65803v-60.26043h46.61412v60.26043z" fill="url(#color-6)" stroke="url(#color-7)" stroke-width="0"/><path d="M267.87433,151.63824c0,14.98335 0.01372,26.93128 -17.8091,27.12975c-16.49564,0.18369 -17.8091,-12.1464 -17.8091,-27.12975c0,-14.98335 2.64508,-26.92288 17.8091,-27.12975c15.82517,-0.21589 17.8091,12.1464 17.8091,27.12975z" fill="url(#color-8)" stroke="url(#color-9)" stroke-width="0"/><path d="M304.69505,151.74275c0,14.98335 0.01372,26.93128 -17.8091,27.12975c-16.49563,0.18369 -17.8091,-12.1464 -17.8091,-27.12975c0,-14.98335 2.64508,-26.92288 17.8091,-27.12975c15.82517,-0.2159 17.8091,12.1464 17.8091,27.12975z" fill="url(#color-10)" stroke="url(#color-11)" stroke-width="0"/><path d="M248.30844,125.57587v-12.07868h4.07958v12.07868z" fill="#312d29" stroke="url(#color-12)" stroke-width="0"/><path d="M285.75928,125.85541v-12.07868h4.07958v12.07868z" fill="#312d29" stroke="url(#color-13)" stroke-width="0"/><path d="M246.70947,118.28278v-3.56521h44.12864v3.56521z" fill="#36322e" stroke="none" stroke-width="0"/><path d="M219.3546,82.45017v-7.24379h42.01397v7.24379z" fill="url(#color-14)" stroke="url(#color-15)" stroke-width="0"/><path d="M219.13907,94.98371v-7.24379h42.01397v7.24379z" fill="url(#color-16)" stroke="url(#color-17)" stroke-width="0"/><path d="M174.11977,179.65803v-31.51043h57.11412v31.51043z" fill="url(#color-18)" stroke="url(#color-19)" stroke-width="0"/><path d="M182.86977,140.2627v-14.86511h40.61412v14.86511z" fill="url(#color-20)" stroke="url(#color-21)" stroke-width="0"/><path d="M176.86977,171.42937v-14.86511h50.36412v14.86511z" fill="url(#color-22)" stroke="url(#color-23)" stroke-width="0"/><path d="M172.75034,180.33096v-1.31049h134.49932v1.31049z" fill="#312d29" stroke="url(#color-24)" stroke-width="0"/></g></g></svg>