<svg version="1.1" xmlns="http://www.w3.org/2000/svg" xmlns:xlink="http://www.w3.org/1999/xlink" width="142.20344" height="127.82694" viewBox="0,0,142.20344,127.82694"><defs><linearGradient x1="259.87539" y1="97.96372" x2="259.87539" y2="174.0427" gradientUnits="userSpaceOnUse" id="color-1"><stop offset="0" stop-color="#000000" stop-opacity="0"/><stop offset="1" stop-color="#000000" stop-opacity="0"/></linearGradient><linearGradient x1="190.86931" y1="52.98437" x2="191.52242" y2="65.3498" gradientUnits="userSpaceOnUse" id="color-2"><stop offset="0" stop-color="#4a4a4a" stop-opacity="0"/><stop offset="1" stop-color="#4a4a4a" stop-opacity="0.6549"/></linearGradient><linearGradient x1="192.58154" y1="52.43478" x2="191.71829" y2="65.8051" gradientUnits="userSpaceOnUse" id="color-3"><stop offset="0" stop-color="#292929" stop-opacity="0"/><stop offset="1" stop-color="#292929" stop-opacity="0.58824"/></linearGradient><linearGradient x1="194.01844" y1="53.36639" x2="191.23386" y2="65.61403" gradientUnits="userSpaceOnUse" id="color-4"><stop offset="0" stop-color="#383838" stop-opacity="0"/><stop offset="1" stop-color="#383838" stop-opacity="0.76078"/></linearGradient><linearGradient x1="192.0934" y1="53.84808" x2="191.54867" y2="65.25914" gradientUnits="userSpaceOnUse" id="color-5"><stop offset="0" stop-color="#4b4b4b" stop-opacity="0"/><stop offset="1" stop-color="#4b4b4b" stop-opacity="0.75294"/></linearGradient><linearGradient x1="263.55" y1="87.3135" x2="263.55" y2="175.64683" gradientUnits="userSpaceOnUse" id="color-6"><stop offset="0" stop-color="#5d5d5d"/><stop offset="1" stop-color="#474747"/></linearGradient><radialGradient cx="279.53333" cy="98.20194" r="11.83333" gradientUnits="userSpaceOnUse" id="color-7"><stop offset="0" stop-color="#939393"/><stop offset="1" stop-color="#393939"/></radialGradient><linearGradient x1="279.53333" y1="86.56259" x2="279.53333" y2="109.84128" gradientUnits="userSpaceOnUse" id="color-8"><stop offset="0" stop-color="#666666"/><stop offset="1" stop-color="#4f4f4f"/></linearGradient><linearGradient x1="240.37499" y1="173.13949" x2="240.37499" y2="180.21186" gradientUnits="userSpaceOnUse" id="color-9"><stop offset="0" stop-color="#348317"/><stop offset="1" stop-color="#3c5b0d"/></linearGradient><radialGradient cx="197.27832" cy="111.47475" r="37.63684" gradientUnits="userSpaceOnUse" id="color-10"><stop offset="0" stop-color="#939393"/><stop offset="1" stop-color="#535353"/></radialGradient><radialGradient cx="196.88931" cy="83.72848" r="37.63684" gradientUnits="userSpaceOnUse" id="color-11"><stop offset="0" stop-color="#393939"/><stop offset="1" stop-color="#1b1b1b"/></radialGradient><radialGradient cx="196.69481" cy="78.21429" r="32.09343" gradientUnits="userSpaceOnUse" id="color-12"><stop offset="0" stop-color="#373737"/><stop offset="1" stop-color="#1b1b1b"/></radialGradient><linearGradient x1="180.03919" y1="69.10837" x2="204.20995" y2="69.10837" gradientUnits="userSpaceOnUse" id="color-13"><stop offset="0" stop-color="#535353"/><stop offset="1" stop-color="#232323"/></linearGradient><radialGradient cx="218.50361" cy="90.86672" r="17.36636" gradientUnits="userSpaceOnUse" id="color-14"><stop offset="0" stop-color="#939393"/><stop offset="1" stop-color="#535353"/></radialGradient><radialGradient cx="236.16706" cy="98.76667" r="9.74286" gradientUnits="userSpaceOnUse" id="color-15"><stop offset="0" stop-color="#1d1d1d"/><stop offset="1" stop-color="#080808"/></radialGradient><linearGradient x1="236.16706" y1="89.02381" x2="236.16706" y2="108.50953" gradientUnits="userSpaceOnUse" id="color-16"><stop offset="0" stop-color="#ffffff"/><stop offset="1" stop-color="#a0a0a0"/></linearGradient><radialGradient cx="185.99995" cy="130.0595" r="50.77276" gradientUnits="userSpaceOnUse" id="color-17"><stop offset="0" stop-color="#adadad"/><stop offset="1" stop-color="#666666"/></radialGradient><radialGradient cx="192.42657" cy="144.99996" r="35.99484" gradientUnits="userSpaceOnUse" id="color-18"><stop offset="0" stop-color="#1e1e1e"/><stop offset="1" stop-color="#171717"/></radialGradient><linearGradient x1="275.86252" y1="96.55332" x2="283.53217" y2="100.04668" gradientUnits="userSpaceOnUse" id="color-19"><stop offset="0" stop-color="#644520"/><stop offset="1" stop-color="#5c401f"/></linearGradient><linearGradient x1="281.44533" y1="94.40235" x2="277.94934" y2="102.19767" gradientUnits="userSpaceOnUse" id="color-20"><stop offset="0" stop-color="#644520"/><stop offset="1" stop-color="#5c401f"/></linearGradient><linearGradient x1="278.18913" y1="94.33397" x2="281.20556" y2="102.26604" gradientUnits="userSpaceOnUse" id="color-21"><stop offset="0" stop-color="#644520"/><stop offset="1" stop-color="#5c401f"/></linearGradient><linearGradient x1="275.73886" y1="99.82499" x2="283.65582" y2="96.775" gradientUnits="userSpaceOnUse" id="color-22"><stop offset="0" stop-color="#644520"/><stop offset="1" stop-color="#5c401f"/></linearGradient><linearGradient x1="250.12591" y1="85.42502" x2="309.26877" y2="111.17497" gradientUnits="userSpaceOnUse" id="color-23"><stop offset="0" stop-color="#e08200"/><stop offset="1" stop-color="#82491d"/></linearGradient><linearGradient x1="273.292" y1="95.5112" x2="286.10268" y2="101.08879" gradientUnits="userSpaceOnUse" id="color-24"><stop offset="0" stop-color="#636363"/><stop offset="1" stop-color="#3a3a3a"/></linearGradient><linearGradient x1="273.292" y1="95.5112" x2="286.10268" y2="101.08879" gradientUnits="userSpaceOnUse" id="color-25"><stop offset="0" stop-color="#adadad"/><stop offset="1" stop-color="#7e7e7e"/></linearGradient><radialGradient cx="262.75046" cy="99.99388" r="20.5" gradientUnits="userSpaceOnUse" id="color-26"><stop offset="0" stop-color="#454545"/><stop offset="1" stop-color="#2f2f2f"/></radialGradient><radialGradient cx="297.4564" cy="104.12813" r="6.16667" gradientUnits="userSpaceOnUse" id="color-27"><stop offset="0" stop-color="#939393"/><stop offset="1" stop-color="#454545"/></radialGradient><radialGradient cx="298.39297" cy="107.03728" r="6.16667" gradientUnits="userSpaceOnUse" id="color-28"><stop offset="0" stop-color="#636363"/><stop offset="1" stop-color="#232323"/></radialGradient></defs><g transform="translate(-171.50034,-52.38492)"><g data-paper-data="{&quot;isPaintingLayer&quot;:true}" fill-rule="nonzero" stroke-linejoin="miter" stroke-miterlimit="10" stroke-dasharray="" stroke-dashoffset="0" style="mix-blend-mode: normal"><path d="M236.92521,174.0427v-76.07898h44.2092l14.54429,76.75546z" fill-opacity="0.00392" fill="#ffffff" stroke="url(#color-1)" stroke-width="2.5" stroke-linecap="butt"/><path d="M185.94807,64.69881l-0.00836,-0.00277l-0.00505,-0.0111c-0.04969,-0.05397 -0.07953,-0.11622 -0.08306,-0.18292l-0.00689,-0.13044l0.0161,-0.04712l-0.00254,-0.04817l0.01986,-0.0581l-0.01528,-0.28925l-0.04341,-0.15435l0.00313,-0.02811l-0.0123,-0.0271l-0.00018,-0.00348l-0.00701,-0.01116l-0.04694,-0.04316l-0.03023,-0.05132l-0.20007,-0.23208l-0.01117,-0.02729l-0.02529,-0.02325l-0.06225,-0.10562l-0.03857,-0.03389l-0.03055,-0.04864l-0.04694,-0.04316l-0.13682,-0.23219l-0.01098,-0.06256l-0.02748,-0.06052l-0.00159,-0.03009l-0.02594,-0.05714l-0.00254,-0.04817l-0.02104,-0.04634l-0.00078,-0.01476l-0.0105,-0.01782l-0.01098,-0.06256l-0.02748,-0.06052l-0.02618,-0.49566l0.0161,-0.04712l-0.00254,-0.04817l0.01986,-0.0581l-0.00572,-0.10835l0.0161,-0.04712l-0.00254,-0.04817l0.03285,-0.0961l0.03216,-0.12211l0.01565,-0.02269l0.00171,-0.02472l0.06366,-0.1349l0.02825,-0.10725l0.01565,-0.02269l0.00171,-0.02472l0.06078,-0.12881l0.02679,-0.12694l0.03422,-0.05438l0.01715,-0.05749l0.09201,-0.12606l0.05927,-0.14905l0.02743,-0.03234l0.01075,-0.03603l0.33002,-0.45208l0.13677,-0.28984l0.03486,-0.03714l0.01777,-0.04164l0.09331,-0.10562l0.05909,-0.10267l0.02814,-0.0263l0.01307,-0.03062l0.11753,-0.13303l0.02233,-0.01501l0.01168,-0.01919l0.07173,-0.06451l0.1241,-0.21565l0.01474,-0.01378l0.00487,-0.01634l0.40745,-0.55817l0.08685,-0.18403l0.06133,-0.26116l0.0203,-0.03092l0.00375,-0.03337l0.12567,-0.24212l0.02168,-0.23711l0.01007,-0.02031l-0.00273,-0.02121l0.06753,-0.25639l0.06147,-0.29137l0.02132,-0.30768l-0.04767,-0.90244l-0.04293,-0.1864l-0.07962,-0.17537l-0.08942,-0.17467l-0.00071,-0.00669l-0.00532,-0.0058l-0.03539,-0.07793l-0.07286,-0.10437l-0.00314,-0.01161l-0.01057,-0.00972l-0.06225,-0.10562l-0.03857,-0.03389l-0.0163,-0.02596l-0.01,-0.00104l-0.04515,-0.04153l-0.06242,-0.03145l-0.00422,-0.02982l-0.06933,-0.06375l-0.00603,-0.01023l-0.00056,-0.00055l-0.04723,-0.02526l-0.08708,-0.07652l-0.03055,-0.04864l-0.02865,-0.02634l-0.07695,-0.04528l-0.0543,-0.05286l-0.06761,-0.0464l-0.04423,-0.05132l-0.00615,-0.01504l-0.08669,-0.04369l-0.00275,-0.01945l-0.03433,-0.02356l-0.04423,-0.05132l-0.07995,-0.19541l0.09012,-0.09147l0.00381,-0.10759l0.23651,-0.13634l0.04587,-0.01564l0.00327,-0.00388l0.01719,-0.00308l0.01525,-0.00519l0.13851,-0.02242l0.13753,-0.02471l0.01733,-0.00037l0.01731,-0.0028l0.00595,0.00232l1.04477,-0.02184l0.32815,-0.0299l0.27937,-0.03109l0.04469,0.00198l0.04308,-0.00774l0.21374,-0.00446l0.09084,-0.01632l0.07659,-0.0016l0.07368,-0.01323l0.08295,-0.00174l0.07492,0.01013l0.07659,-0.0016l0.16727,0.02262l0.06152,0.01902l0.06737,0.00796l0.09407,0.02717l0.04267,-0.0083l0.06991,0.02443l0.07819,0.01058l0.02498,0.02548l0.10693,0.03738l0.04808,0.00898l0.07159,0.0266l0.07918,0.01594l0.12718,0.04957l0.04321,0.02797l0.05419,0.01894l0.0407,0.02396l0.07479,0.02915l0.04321,0.02797l0.05419,0.01894l0.08571,0.05045l0.03365,0.03275l0.04723,0.02526l0.01463,0.01285l0.02136,0.00832l0.04321,0.02797l0.05419,0.01894l0.08571,0.05045l0.03365,0.03277l0.04724,0.02526l0.16411,0.14421l0.37898,0.29678l0.03438,0.04694l0.05028,0.04086l0.05674,0.08129l0.07838,0.06138l0.03438,0.04694l0.05028,0.04086l0.07943,0.11379l0.06472,0.07508l0.11834,0.11521l0.02213,0.04082l0.03871,0.03559l0.03023,0.05132l0.06737,0.07816l0.01708,0.04176l0.03425,0.03735l0.22837,0.50296l0.0373,0.0633l0.00268,0.01526l0.01219,0.01329l0.08741,0.19251l0.0373,0.0633l0.01098,0.06256l0.02748,0.06052l0.00296,0.05618l0.02594,0.05714l0.0005,0.00954l0.00695,0.00848l0.04836,0.12957l-0.00015,0.00649l0.00442,0.00586l0.03648,0.11416l0.06279,0.08995l0.00967,0.03571l0.02637,0.03221l0.04836,0.12957l-0.00015,0.00649l0.00442,0.00586l0.04012,0.12554l0.07424,0.12598l0.00542,0.03086l0.02118,0.02805l0.04012,0.12554l0.07424,0.12598l0.00431,0.02459l0.01801,0.02199l0.03951,0.10584l0.07775,0.13194l0.00268,0.01526l0.01219,0.0133l0.03539,0.07793l0.03976,0.05696l0.28257,0.22127l0.09716,0.04274l0.05179,0.03748l0.06435,0.02876l0.15037,0.11049l0.62816,0.3697l0.13378,0.05884l0.05805,0.04202l0.0705,0.03365l0.10223,0.08005l0.18196,0.1071l0.03365,0.03275l0.04723,0.02526l0.02503,0.02199l0.08265,0.03636l0.06914,0.05003l0.08029,0.04294l0.17417,0.15306l0.01445,0.023l0.02658,0.01824l0.06171,0.07158l0.09479,0.07423l0.02368,0.03231l0.03823,0.02624l0.08846,0.10261l0.00658,0.01609l0.01617,0.01313l0.07943,0.11379l0.16458,0.19091l0.00658,0.01609l0.01617,0.01313l0.07943,0.11379l0.07612,0.0883l0.00658,0.01609l0.01617,0.01313l0.08984,0.12871l0.00719,0.02655l0.02139,0.02334l0.02155,0.04747l0.08105,0.0789l0.02213,0.04082l0.03871,0.03559l0.09121,0.15479l0.00542,0.03086l0.02118,0.02805l0.03497,0.10942l0.10226,0.13731l0.0168,0.05402l0.03428,0.05064l0.04497,0.178l0.07789,0.15214l0.00286,0.02704l0.01758,0.02474l0.10098,0.35901l0.04831,0.15119l-0.00242,0.0327l0.01429,0.03147l0.03032,0.57392l-0.01303,0.03812l0.00501,0.03887l-0.03459,0.13131l-0.01565,0.02269l-0.00171,0.02472l-0.04594,0.09735l0.00353,0.06694l-0.00526,0.01541l0.01005,0.01166l-0.04275,0.084l-0.02947,0.08623l-0.01795,0.00697l-0.00764,0.015l-0.02202,0.02235l-0.01329,0.03891l-0.04698,0.06013l-0.03248,0.06382l-0.03491,0.03542l-0.01362,0.02886l-0.04229,0.04503l-0.02535,0.04981l-0.0584,0.05927l-0.02254,0.03089l-0.06256,0.04912l-0.04861,0.05501l-0.35886,0.24123l-0.10475,0.10631l-0.06127,0.08393l-0.03177,0.02495l-0.00069,0.01953l-0.04318,0.0249l-0.00317,0.01062l-0.00723,0.00991l-0.00376,0.01099l-0.00595,0.00231l-0.13793,0.18895l-0.03177,0.02495l-0.00069,0.01953l-0.09097,0.05244l-0.02913,0.02287l-0.0002,0.00556l-0.02587,0.01492l-0.02194,0.01723l-0.0088,0.00049l-0.03435,0.0198l-0.02913,0.02287l-0.0002,0.00556l-0.02587,0.01492l-0.02194,0.01723l-0.0088,0.00049l-0.03435,0.0198l-0.07715,0.06058l-0.03093,0.00174l-0.03747,0.0216l-0.08157,0.02783l-0.04339,0.00702l-0.03698,0.01591l-0.24609,0.05738l-0.0813,0.00564l-0.00286,0.00097l-0.13851,0.02242l-0.13753,0.02471l-0.01733,0.00037l-0.01731,0.0028l-0.00595,-0.00232l-0.02223,0.00045l-0.10827,0.01599l-0.08671,0.02022l-0.09946,0.00691l-0.09621,0.01728l-0.18937,0.00395l-0.02833,0.0066l-0.09946,0.00691l-0.09621,0.01728l-0.02347,0.00049l-0.02833,0.0066l-0.02426,0.00168l-0.02114,0.00767l-0.16452,0.02955l-0.07659,0.0016l-0.07368,0.01323l-0.14789,0.00308l-0.02833,0.0066l-0.02426,0.00168l-0.02114,0.00767l-0.16452,0.02955l-0.07659,0.0016l-0.07368,0.01323l-0.35314,0.00738l-0.146,0.02156l-0.06199,-0.00056l-0.05962,0.01072l-5.10138,0.1066l-0.09782,-0.01323l-0.09997,-0.00274l-0.2516,-0.04697l-0.01532,-0.00569l-0.038,0.00079l-0.00569,0.00256l-0.01757,-0.00207l-0.01733,0.00037l-0.13984,-0.01891l-0.14057,-0.01659l-0.01576,-0.00455l-0.01748,-0.00236l-0.00367,-0.00375l-0.04742,-0.0137l-0.25038,-0.12616l-0.02711,-0.19171l-0.00058,-0.00058l0.00042,-0.0005l-0.0169,-0.11952c-0.15413,-0.02509 -0.28576,-0.0865 -0.36947,-0.1693z" fill="url(#color-2)" stroke="none" stroke-width="0.5" stroke-linecap="butt"/><path d="M185.78825,64.82334l-0.00866,-0.00341l-0.00404,-0.01223c-0.04675,-0.06072 -0.07105,-0.12934 -0.06639,-0.20147l0.0091,-0.14103l0.02335,-0.05002l0.00337,-0.05209l0.02878,-0.06167l0.02019,-0.31275l-0.02726,-0.16866l0.00694,-0.03016l-0.00983,-0.02984l0.00024,-0.00376l-0.00614,-0.01238l-0.04516,-0.04891l-0.02611,-0.05685l-0.18637,-0.26036l-0.00858,-0.02999l-0.02434,-0.02635l-0.05375,-0.11705l-0.0373,-0.03849l-0.02679,-0.05399l-0.04516,-0.04891l-0.11815,-0.2573l-0.00392,-0.06803l-0.02197,-0.06665l0.0021,-0.03254l-0.02074,-0.06293l0.00337,-0.05209l-0.01682,-0.05104l0.00104,-0.01597l-0.00907,-0.01975l-0.00392,-0.06803l-0.02197,-0.06665l0.0346,-0.53594l0.02335,-0.05002l0.00337,-0.05209l0.02879,-0.06167l0.00757,-0.11716l0.02335,-0.05002l0.00337,-0.05209l0.04762,-0.10203l0.05017,-0.13009l0.01975,-0.0237l0.00498,-0.02658l0.08576,-0.1423l0.04407,-0.11427l0.01975,-0.0237l0.00498,-0.02658l0.08189,-0.13589l0.04499,-0.13558l0.04381,-0.05694l0.02578,-0.06114l0.11523,-0.13135l0.08282,-0.15779l0.03369,-0.03349l0.01616,-0.03833l0.41327,-0.47107l0.18428,-0.30576l0.04231,-0.03829l0.02445,-0.04403l0.11403,-0.10923l0.07674,-0.10778l0.03368,-0.02696l0.01797,-0.03237l0.14364,-0.13761l0.02598,-0.01506l0.01503,-0.02012l0.08555,-0.066l0.16119,-0.22637l0.01765,-0.01413l0.00732,-0.01737l0.51025,-0.58161l0.117,-0.19415l0.09926,-0.27863l0.02582,-0.03234l0.00828,-0.03582l0.16625,-0.25485l0.05344,-0.25466l0.01344,-0.02141l-0.00026,-0.023l0.10534,-0.27315l0.10325,-0.31118l0.06201,-0.3308l0.063,-0.97578l-0.02268,-0.2032l-0.06365,-0.19314l-0.0743,-0.19289l0.00008,-0.00725l-0.005,-0.00654l-0.02829,-0.08584l-0.06535,-0.11623l-0.00192,-0.01268l-0.01017,-0.011l-0.05375,-0.11705l-0.0373,-0.03849l-0.01429,-0.02881l-0.01065,-0.00162l-0.04344,-0.04705l-0.06334,-0.03707l-0.00076,-0.03239l-0.0667,-0.07224l-0.00521,-0.01134l-0.00054,-0.00062l-0.04774,-0.02962l-0.08423,-0.08691l-0.02679,-0.05399l-0.02756,-0.02984l-0.07725,-0.05271l-0.05187,-0.05975l-0.06704,-0.05344l-0.0412,-0.05757l-0.00473,-0.01653l-0.08797,-0.05147l-0.0005,-0.02112l-0.03405,-0.02715l-0.0412,-0.05757l-0.06146,-0.21479l0.10881,-0.09415l0.01775,-0.11585l0.27239,-0.13519l0.05145,-0.01457l0.00402,-0.00404l0.01894,-0.00246l0.0171,-0.00485l0.15224,-0.01723l0.15147,-0.01975l0.01874,0.00048l0.01903,-0.00215l0.00611,0.0028l1.12967,0.02885l0.35774,-0.0158l0.30527,-0.01952l0.04796,0.00436l0.04745,-0.00619l0.23111,0.00589l0.10005,-0.01304l0.08281,0.00211l0.08115,-0.01058l0.08969,0.0023l0.07952,0.01468l0.08281,0.00211l0.17756,0.03279l0.06395,0.0236l0.07166,0.01195l0.09802,0.03402l0.04708,-0.0068l0.07231,0.02986l0.083,0.01532l0.02371,0.02874l0.1106,0.04569l0.05072,0.0121l0.07384,0.03227l0.08339,0.02117l0.13089,0.05985l0.04306,0.03233l0.05605,0.02315l0.04086,0.02788l0.07697,0.0352l0.04305,0.03233l0.05605,0.02315l0.08605,0.0587l0.03214,0.03702l0.04774,0.02962l0.01414,0.0146l0.02199,0.01005l0.04306,0.03233l0.05605,0.02315l0.08605,0.0587l0.03214,0.03702l0.04774,0.02962l0.15873,0.16379l0.37116,0.33912l0.03112,0.05234l0.04905,0.0466l0.0509,0.09053l0.07676,0.07013l0.03112,0.05234l0.04905,0.0466l0.07125,0.12671l0.06029,0.08423l0.11303,0.1302l0.01869,0.04513l0.03724,0.04032l0.02611,0.05685l0.06276,0.08768l0.01313,0.0459l0.03221,0.04201l0.18255,0.55396l0.03221,0.07014l0.00095,0.0166l0.01147,0.01495l0.06988,0.21201l0.03221,0.07014l0.00392,0.06803l0.02197,0.06665l-0.00392,0.06075l0.02074,0.06293l-0.00067,0.01031l0.00642,0.0095l0.03574,0.14218l-0.00099,0.00698l0.00402,0.00654l0.02487,0.12497l0.05632,0.10017l0.00591,0.03899l0.02436,0.03606l0.03574,0.14218l-0.00098,0.00698l0.00402,0.00654l0.02736,0.13743l0.06411,0.13962l0.00193,0.03356l0.01929,0.03131l0.02736,0.13743l0.06411,0.13962l0.00154,0.02674l0.01664,0.02462l0.02919,0.11615l0.06713,0.14621l0.00095,0.0166l0.01147,0.01495l0.02829,0.08584l0.03567,0.06343l0.27673,0.25284l0.09938,0.05097l0.05111,0.04303l0.06576,0.03426l0.14818,0.12672l0.63068,0.43027l0.13684,0.07019l0.0573,0.04822l0.07178,0.03983l0.10012,0.09148l0.18269,0.12463l0.03214,0.03702l0.04774,0.02962l0.02421,0.02497l0.08454,0.04336l0.06823,0.05744l0.08116,0.05034l0.16845,0.17382l0.01267,0.02554l0.02635,0.02101l0.05748,0.08031l0.09283,0.08482l0.02144,0.03605l0.03791,0.03022l0.0824,0.11512l0.00506,0.01768l0.01578,0.01498l0.07125,0.12671l0.15331,0.21418l0.00506,0.01768l0.01578,0.01498l0.07125,0.12671l0.07091,0.09906l0.00506,0.01768l0.01578,0.01498l0.08059,0.14333l0.00439,0.029l0.02012,0.02624l0.01723,0.05227l0.07741,0.08917l0.01869,0.04513l0.03724,0.04032l0.07876,0.17153l0.00193,0.03356l0.01929,0.03131l0.02384,0.11978l0.09289,0.15324l0.01127,0.05912l0.03056,0.05634l0.02593,0.19426l0.06472,0.168l-0.00034,0.02931l0.01582,0.02756l0.0634,0.39229l0.03295,0.1655l-0.00676,0.03514l0.01142,0.03466l-0.04006,0.62056l-0.01889,0.04047l0.00047,0.04217l-0.05395,0.13989l-0.01975,0.0237l-0.00498,0.02658l-0.06189,0.10271l-0.00467,0.07238l-0.00763,0.01635l0.00937,0.01307l-0.05676,0.08845l-0.04272,0.09153l-0.02025,0.00661l-0.01014,0.0158l-0.02658,0.023l-0.01928,0.0413l-0.0583,0.06251l-0.04312,0.0672l-0.04214,0.03646l-0.01835,0.03046l-0.05131,0.04645l-0.03366,0.05245l-0.07051,0.06101l-0.02824,0.03218l-0.07371,0.04985l-0.0594,0.0569l-0.41765,0.24219l-0.12646,0.10942l-0.07673,0.08745l-0.03744,0.02531l-0.00323,0.02104l-0.04973,0.02468l-0.00477,0.01131l-0.00906,0.01033l-0.00545,0.01167l-0.00671,0.00219l-0.17273,0.19688l-0.03744,0.02531l-0.00323,0.02104l-0.10477,0.05201l-0.03432,0.02321l-0.00092,0.00599l-0.0298,0.01479l-0.02585,0.01748l-0.00955,0.00009l-0.03955,0.01965l-0.03432,0.02321l-0.00092,0.00599l-0.0298,0.01479l-0.02585,0.01748l-0.00955,0.00009l-0.03955,0.01965l-0.09089,0.06146l-0.03358,0.00031l-0.04315,0.02142l-0.09151,0.02592l-0.04769,0.00541l-0.0419,0.0153l-0.27271,0.04954l-0.08841,0.00201l-0.0032,0.0009l-0.15224,0.01723l-0.15147,0.01975l-0.01874,-0.00048l-0.01903,0.00215l-0.00611,-0.0028l-0.02404,-0.00061l-0.1188,0.01181l-0.09609,0.01746l-0.10816,0.00246l-0.10597,0.01382l-0.20476,-0.00523l-0.0314,0.0057l-0.10816,0.00246l-0.10597,0.01382l-0.02538,-0.00064l-0.0314,0.0057l-0.02638,0.00061l-0.02378,0.00721l-0.1812,0.02362l-0.08281,-0.00211l-0.08115,0.01058l-0.15991,-0.0041l-0.0314,0.0057l-0.02638,0.00061l-0.02378,0.00721l-0.1812,0.02362l-0.08281,-0.00211l-0.08115,0.01058l-0.38184,-0.00975l-0.1602,0.01593l-0.06679,-0.00371l-0.06566,0.00856l-5.51595,-0.1409l-0.10384,-0.01917l-0.10748,-0.00797l-0.26543,-0.06328l-0.01581,-0.00691l-0.04108,-0.00105l-0.00646,0.00248l-0.01869,-0.00312l-0.01874,-0.00048l-0.14842,-0.02741l-0.14952,-0.02495l-0.01643,-0.00569l-0.01855,-0.00343l-0.00348,-0.00423l-0.04941,-0.01715l-0.25407,-0.14864l-0.00493,-0.20814l-0.00054,-0.00067l0.00052,-0.00052l-0.00307,-0.12977c-0.16307,-0.03478 -0.29726,-0.10764 -0.37705,-0.20114z" fill="url(#color-3)" stroke="none" stroke-width="0.5" stroke-linecap="butt"/><path d="M185.92536,64.36167l-0.00746,-0.00366l-0.00189,-0.01149c-0.03396,-0.0586 -0.0461,-0.12317 -0.03108,-0.18923l0.02937,-0.12919l0.02893,-0.04464l0.01085,-0.04771l0.03565,-0.05502l0.06513,-0.2865l0.00004,-0.15675l0.01087,-0.02734l-0.00461,-0.02804l0.00078,-0.00344l-0.00381,-0.01175l-0.03426,-0.04765l-0.01555,-0.05383l-0.13267,-0.25048l-0.00343,-0.0281l-0.01846,-0.02568l-0.03201,-0.11084l-0.02858,-0.0376l-0.0166,-0.05125l-0.03426,-0.04765l-0.07037,-0.24363l0.00653,-0.06281l-0.01029,-0.06261l0.00678,-0.0298l-0.00971,-0.05912l0.01085,-0.04771l-0.00787,-0.04795l0.00332,-0.01462l-0.0054,-0.01869l0.00653,-0.06281l-0.01029,-0.06261l0.11162,-0.49093l0.02893,-0.04464l0.01085,-0.04771l0.03565,-0.05502l0.0244,-0.10731l0.02892,-0.04464l0.01085,-0.04771l0.05899,-0.09103l0.06552,-0.11672l0.0217,-0.02063l0.00854,-0.02415l0.10007,-0.12584l0.05755,-0.10252l0.0217,-0.02063l0.00854,-0.02415l0.09556,-0.12017l0.06156,-0.12205l0.04877,-0.04979l0.03282,-0.05472l0.12555,-0.11403l0.09967,-0.14026l0.03597,-0.02884l0.02057,-0.0343l0.45027,-0.40897l0.21503,-0.27041l0.04462,-0.03274l0.02904,-0.03906l0.12115,-0.09376l0.08664,-0.09462l0.035,-0.02281l0.02135,-0.02872l0.15261,-0.11811l0.02614,-0.01233l0.01682,-0.01762l0.08851,-0.05566l0.18198,-0.19873l0.01834,-0.01195l0.00932,-0.01554l0.55593,-0.50494l0.13653,-0.17169l0.13278,-0.25044l0.02856,-0.02823l0.01294,-0.03245l0.19087,-0.22463l0.08707,-0.23108l0.01555,-0.0189l0.00319,-0.02118l0.13756,-0.24505l0.14129,-0.28015l0.10629,-0.30064l0.20322,-0.89384l0.00939,-0.18824l-0.02979,-0.18141l-0.03963,-0.1818l0.00115,-0.00666l-0.00363,-0.0063l-0.01324,-0.08062l-0.04281,-0.11077l0.00012,-0.01178l-0.00771,-0.01073l-0.03202,-0.11084l-0.02858,-0.03761l-0.00886,-0.02736l-0.00955,-0.00212l-0.03295,-0.04584l-0.05274,-0.03781l0.00411,-0.02982l-0.0506,-0.07038l-0.0031,-0.01074l-0.0004,-0.00061l-0.03951,-0.03005l-0.06453,-0.08491l-0.0166,-0.05125l-0.0209,-0.02908l-0.06321,-0.05303l-0.03881,-0.05801l-0.05371,-0.0531l-0.02933,-0.05538l-0.00189,-0.01549l-0.07325,-0.05253l0.00268,-0.01947l-0.02728,-0.02698l-0.02933,-0.05538l-0.02455,-0.2012l0.11409,-0.08019l0.03357,-0.10552l0.27068,-0.10831l0.0495,-0.01038l0.00429,-0.00347l0.01779,-0.00116l0.01645,-0.00344l0.1426,-0.00689l0.14227,-0.00924l0.01717,0.00155l0.01782,-0.00086l0.00521,0.00293l1.03482,0.09309l0.33141,0.00655l0.28371,0.00002l0.04347,0.00685l0.04456,-0.00289l0.2117,0.01904l0.09397,-0.0061l0.07586,0.00682l0.07622,-0.00495l0.08216,0.00739l0.07096,0.01819l0.07586,0.00682l0.15844,0.04062l0.05531,0.02548l0.06414,0.01522l0.0851,0.03707l0.04432,-0.00348l0.06206,0.03173l0.07406,0.01898l0.01753,0.02784l0.09493,0.04853l0.04485,0.01411l0.06312,0.03404l0.07355,0.02439l0.11149,0.06276l0.03479,0.03228l0.04811,0.02459l0.03343,0.02805l0.06557,0.03691l0.03479,0.03228l0.04811,0.02459l0.07041,0.05907l0.02405,0.03594l0.03951,0.03005l0.01084,0.01425l0.01873,0.01054l0.03479,0.03228l0.04811,0.02459l0.07041,0.05907l0.02405,0.03594l0.03951,0.03005l0.12162,0.16001l0.29092,0.33379l0.02084,0.04997l0.03818,0.04575l0.03334,0.08627l0.06017,0.06904l0.02084,0.04997l0.03818,0.04575l0.04667,0.12076l0.04292,0.08104l0.08459,0.12642l0.01048,0.0426l0.02824,0.03928l0.01555,0.05383l0.04468,0.08436l0.00524,0.043l0.02337,0.04053l0.08545,0.5203l0.01918,0.06642l-0.00159,0.01531l0.00832,0.01443l0.0327,0.19915l0.01918,0.06642l-0.00653,0.06281l0.01029,0.06261l-0.01265,0.05565l0.00971,0.05912l-0.00215,0.00944l0.00449,0.00912l0.0117,0.13289l-0.00194,0.00637l0.00273,0.00625l0.00428,0.11641l0.03689,0.09546l-0.00037,0.03623l0.01703,0.03459l0.0117,0.13289l-0.00194,0.00637l0.00273,0.00625l0.0047,0.12802l0.03818,0.1322l-0.00322,0.03099l0.01308,0.02996l0.0047,0.12802l0.03818,0.1322l-0.00257,0.02468l0.01163,0.02363l0.00956,0.10855l0.03998,0.13844l-0.00159,0.01531l0.00832,0.01443l0.01324,0.08062l0.02336,0.06045l0.2169,0.24887l0.08382,0.05274l0.04061,0.04259l0.05539,0.03539l0.11744,0.12528l0.51606,0.43294l0.11542,0.07262l0.04552,0.04773l0.06009,0.04086l0.07847,0.09004l0.14948,0.1254l0.02405,0.03594l0.03951,0.03005l0.01855,0.0244l0.07131,0.04486l0.05421,0.05684l0.06716,0.05109l0.12907,0.16982l0.00785,0.02424l0.02111,0.02088l0.04092,0.07725l0.07276,0.08349l0.01435,0.03442l0.03037,0.03003l0.05866,0.11074l0.00202,0.01656l0.01228,0.01472l0.04667,0.12076l0.10913,0.20604l0.00202,0.01656l0.01228,0.01472l0.04667,0.12076l0.05048,0.0953l0.00202,0.01656l0.01228,0.0147l0.05279,0.13659l-0.00028,0.02693l0.0146,0.02533l0.00806,0.0491l0.05793,0.08658l0.01048,0.0426l0.02824,0.03928l0.04691,0.16242l-0.00322,0.03099l0.01308,0.02996l0.0041,0.11159l0.06264,0.14643l0.00157,0.05503l0.01972,0.05363l-0.00507,0.18021l0.03452,0.15835l-0.00468,0.02694l0.01045,0.0263l-0.00008,0.36459l0.00567,0.15417l-0.01145,0.03192l0.00535,0.03255l-0.12924,0.56846l-0.0234,0.03611l-0.00585,0.03883l-0.07046,0.1255l-0.0217,0.02063l-0.00854,0.02415l-0.07222,0.09082l-0.01507,0.0663l-0.00945,0.0146l0.00667,0.01259l-0.06538,0.07802l-0.05292,0.08168l-0.01961,0.00488l-0.01168,0.01393l-0.02788,0.0196l-0.02388,0.03686l-0.06293,0.05407l-0.04967,0.05927l-0.04419,0.03105l-0.02141,0.02693l-0.05412,0.0397l-0.03876,0.04626l-0.07394,0.05196l-0.03076,0.02795l-0.07522,0.04151l-0.06311,0.04884l-0.42023,0.19819l-0.13262,0.09319l-0.08359,0.07593l-0.0382,0.02109l-0.00609,0.01915l-0.04942,0.01976l-0.00607,0.01012l-0.00988,0.00898l-0.00675,0.01041l-0.0065,0.00162l-0.18819,0.17092l-0.0382,0.02109l-0.00609,0.01915l-0.10411,0.04166l-0.03502,0.01933l-0.00173,0.00544l-0.02961,0.01185l-0.02639,0.01456l-0.0088,-0.00048l-0.03931,0.01573l-0.03502,0.01933l-0.00173,0.00544l-0.02961,0.01185l-0.02639,0.01456l-0.0088,-0.00048l-0.03931,0.01573l-0.09275,0.05119l-0.03094,-0.00168l-0.04288,0.01716l-0.08803,0.01845l-0.04467,0.00217l-0.04082,0.01162l-0.25823,0.02951l-0.08162,-0.00336l-0.00308,0.00064l-0.1426,0.00689l-0.14227,0.00924l-0.01717,-0.00155l-0.01783,0.00086l-0.00521,-0.00293l-0.02202,-0.00198l-0.11104,0.00387l-0.09098,0.0104l-0.09985,-0.00411l-0.09953,0.00647l-0.18757,-0.01687l-0.02973,0.0034l-0.09985,-0.00411l-0.09953,0.00647l-0.02325,-0.0021l-0.02973,0.0034l-0.02436,-0.001l-0.02295,0.00524l-0.17019,0.01106l-0.07586,-0.00682l-0.07622,0.00495l-0.14648,-0.01318l-0.02973,0.0034l-0.02436,-0.001l-0.02295,0.00524l-0.17019,0.01106l-0.07586,-0.00682l-0.07622,0.00495l-0.34978,-0.03146l-0.14973,0.00522l-0.06089,-0.00735l-0.06167,0.00401l-5.05279,-0.45451l-0.09266,-0.02375l-0.09768,-0.01367l-0.23473,-0.07384l-0.01351,-0.00729l-0.03763,-0.00339l-0.00631,0.00189l-0.01673,-0.00397l-0.01717,-0.00155l-0.13245,-0.03396l-0.13382,-0.03174l-0.01426,-0.00622l-0.01655,-0.00425l-0.00258,-0.0041l-0.04289,-0.01869l-0.21157,-0.15169l0.02645,-0.19175l-0.0004,-0.00064l0.00055,-0.00044l0.01649,-0.11954c-0.14482,-0.0416 -0.25741,-0.11652 -0.31687,-0.20723z" fill="url(#color-4)" stroke="none" stroke-width="0.5" stroke-linecap="butt"/><path d="M186.47569,64.45523l-0.00744,-0.00287l-0.00362,-0.01041c-0.04075,-0.05152 -0.06246,-0.10993 -0.05953,-0.17149l0.00575,-0.12038l0.0192,-0.0428l0.00212,-0.04446l0.02367,-0.05277l0.01274,-0.26692l-0.02567,-0.14373l0.00549,-0.02577l-0.00882,-0.02541l0.00016,-0.00321l-0.00542,-0.01054l-0.03922,-0.04147l-0.02309,-0.04835l-0.16273,-0.22106l-0.00775,-0.02554l-0.02114,-0.02235l-0.04753,-0.09956l-0.03237,-0.03262l-0.02363,-0.04591l-0.03922,-0.04147l-0.10447,-0.21883l-0.00431,-0.05801l-0.01969,-0.05673l0.00133,-0.02777l-0.0186,-0.05357l0.00212,-0.04446l-0.01509,-0.04345l0.00065,-0.01362l-0.00802,-0.0168l-0.00431,-0.05801l-0.01969,-0.05674l0.02183,-0.45741l0.0192,-0.0428l0.00212,-0.04446l0.02367,-0.05277l0.00478,-0.09998l0.0192,-0.0428l0.00212,-0.04446l0.03916,-0.0873l0.04094,-0.11128l0.01652,-0.02034l0.00387,-0.02269l0.07113,-0.12189l0.03596,-0.09773l0.01652,-0.02034l0.00387,-0.02269l0.06792,-0.11639l0.03643,-0.11591l0.03656,-0.04883l0.02112,-0.05231l0.09642,-0.1127l0.06839,-0.13508l0.02826,-0.02878l0.01324,-0.03279l0.34581,-0.40422l0.15282,-0.26189l0.03555,-0.03291l0.02023,-0.0377l0.09572,-0.09384l0.06393,-0.09238l0.02835,-0.02318l0.01487,-0.02772l0.12057,-0.11821l0.02195,-0.01301l0.01253,-0.01725l0.07203,-0.05677l0.13427,-0.19403l0.01486,-0.01215l0.006,-0.01486l0.42695,-0.49907l0.09704,-0.16629l0.08068,-0.23825l0.02156,-0.02773l0.00655,-0.0306l0.13818,-0.21837l0.04194,-0.21755l0.01116,-0.01832l-0.00055,-0.01963l0.08595,-0.23362l0.08362,-0.26605l0.04815,-0.28256l0.03975,-0.83279l-0.02226,-0.17322l-0.05707,-0.16442l-0.06615,-0.16413l-0.00003,-0.00618l-0.00436,-0.00554l-0.02536,-0.07306l-0.05742,-0.09879l-0.00182,-0.0108l-0.00883,-0.00933l-0.04753,-0.09956l-0.03237,-0.03262l-0.01261,-0.0245l-0.00911,-0.00132l-0.03774,-0.03989l-0.05457,-0.03126l-0.00112,-0.02761l-0.05794,-0.06126l-0.0046,-0.00964l-0.00047,-0.00052l-0.04116,-0.02499l-0.0731,-0.07367l-0.02363,-0.04591l-0.02394,-0.0253l-0.06666,-0.04452l-0.0451,-0.05067l-0.05796,-0.04521l-0.03597,-0.04887l-0.00427,-0.01408l-0.07579,-0.04341l-0.00073,-0.01801l-0.02944,-0.02297l-0.03598,-0.04887l-0.05551,-0.1829l0.09147,-0.08093l0.01348,-0.09893l0.23044,-0.11687l0.04369,-0.01273l0.00337,-0.00345l0.01612,-0.0022l0.01452,-0.00423l0.12963,-0.01556l0.12894,-0.01772l0.01599,0.0003l0.0162,-0.00194l0.00526,0.00236l0.96413,0.01821l0.30496,-0.0155l0.26015,-0.01838l0.04098,0.00344l0.04039,-0.00555l0.19724,0.00373l0.08516,-0.01169l0.07067,0.00133l0.06908,-0.00949l0.07655,0.00144l0.06805,0.01207l0.07067,0.00133l0.15195,0.02697l0.05489,0.01976l0.0613,0.00979l0.0841,0.02847l0.04006,-0.00606l0.06211,0.02506l0.07103,0.01261l0.02064,0.02439l0.09501,0.03834l0.04344,0.01004l0.06346,0.02712l0.07144,0.01759l0.11252,0.05032l0.03719,0.02734l0.04815,0.01944l0.03526,0.02355l0.06617,0.0296l0.03719,0.02734l0.04815,0.01943l0.07425,0.04959l0.02795,0.0314l0.04116,0.02499l0.01228,0.01237l0.0189,0.00845l0.03719,0.02734l0.04815,0.01943l0.07425,0.04959l0.02795,0.0314l0.04116,0.02499l0.13776,0.13883l0.32149,0.2872l0.0273,0.04448l0.04252,0.03947l0.04472,0.07694l0.06649,0.05939l0.0273,0.04448l0.04252,0.03946l0.0626,0.10771l0.05264,0.07151l0.0983,0.11043l0.01659,0.03839l0.03234,0.0342l0.02309,0.04835l0.0548,0.07444l0.01186,0.03908l0.02808,0.03565l0.16368,0.47154l0.02848,0.05966l0.00106,0.01416l0.01,0.01269l0.06265,0.18048l0.02848,0.05966l0.00431,0.05801l0.0197,0.05674l-0.00247,0.05184l0.0186,0.05357l-0.00042,0.00881l0.00561,0.00807l0.03253,0.12109l-0.00074,0.00597l0.00353,0.00556l0.02301,0.10647l0.04949,0.08513l0.0056,0.03323l0.02129,0.03062l0.03253,0.12109l-0.00074,0.00597l0.00353,0.00556l0.02531,0.11707l0.05669,0.11874l0.00213,0.02862l0.01691,0.02661l0.02531,0.11707l0.05669,0.11874l0.0017,0.02281l0.01454,0.02091l0.02658,0.09891l0.05937,0.12435l0.00106,0.01416l0.01,0.01269l0.02536,0.07306l0.03133,0.05391l0.2397,0.21412l0.08551,0.04292l0.04422,0.03641l0.05659,0.02885l0.12823,0.10727l0.5442,0.3635l0.11774,0.0591l0.04957,0.04083l0.06181,0.03358l0.08673,0.07746l0.15764,0.10529l0.02795,0.0314l0.04116,0.02499l0.02101,0.02118l0.07275,0.03652l0.05903,0.0486l0.06996,0.04248l0.14621,0.14733l0.01118,0.02172l0.02278,0.01777l0.05019,0.06818l0.08041,0.07183l0.01881,0.03064l0.03277,0.02556l0.07195,0.09774l0.00457,0.01506l0.01367,0.01269l0.0626,0.10771l0.13386,0.18185l0.00457,0.01506l0.01367,0.01269l0.0626,0.10771l0.06191,0.08411l0.00457,0.01506l0.01367,0.01269l0.0708,0.12181l0.00416,0.02472l0.01754,0.02228l0.01544,0.0445l0.06732,0.07563l0.01659,0.03839l0.03234,0.0342l0.06965,0.14589l0.00213,0.02862l0.01691,0.02661l0.02206,0.10204l0.08144,0.13019l0.01046,0.05035l0.02688,0.04789l0.02491,0.16557l0.05762,0.14295l0.00013,0.025l0.01389,0.02344l0.05971,0.3343l0.03048,0.14101l-0.00526,0.03001l0.01024,0.02951l-0.02528,0.52963l-0.01553,0.03464l0.001,0.03597l-0.04402,0.11965l-0.01652,0.02034l-0.00387,0.02269l-0.05133,0.08797l-0.00295,0.06177l-0.00628,0.01399l0.00818,0.0111l-0.04715,0.07578l-0.03514,0.07832l-0.01718,0.00575l-0.00842,0.01354l-0.02235,0.01976l-0.01585,0.03534l-0.04884,0.05365l-0.03583,0.05757l-0.03543,0.03135l-0.01522,0.02609l-0.04311,0.03992l-0.02796,0.04494l-0.05927,0.05245l-0.02363,0.02762l-0.06216,0.04294l-0.04986,0.04887l-0.35282,0.209l-0.10632,0.09406l-0.0642,0.07505l-0.03157,0.0218l-0.00245,0.01796l-0.04207,0.02134l-0.0039,0.00968l-0.00759,0.00886l-0.00448,0.00999l-0.00569,0.00191l-0.14453,0.16894l-0.03157,0.0218l-0.00245,0.01796l-0.08863,0.04496l-0.02894,0.02l-0.0007,0.00511l-0.02522,0.01279l-0.02181,0.01506l-0.00815,0.00012l-0.03346,0.01697l-0.02894,0.02l-0.0007,0.00511l-0.02522,0.01279l-0.02181,0.01506l-0.00815,0.00012l-0.03346,0.01697l-0.07665,0.05295l-0.02865,0.00045l-0.0365,0.01852l-0.0777,0.02263l-0.04061,0.00488l-0.03553,0.01329l-0.23194,0.04381l-0.07539,0.00222l-0.00272,0.00079l-0.12963,0.01556l-0.12893,0.01772l-0.01599,-0.0003l-0.01621,0.00195l-0.00526,-0.00236l-0.02051,-0.00039l-0.10118,0.01075l-0.08172,0.01544l-0.09223,0.00271l-0.09021,0.01238l-0.17475,-0.0033l-0.0267,0.00504l-0.09222,0.00271l-0.0902,0.01238l-0.02166,-0.00042l-0.0267,0.00504l-0.0225,0.00067l-0.02018,0.00629l-0.15424,0.02118l-0.07067,-0.00133l-0.06908,0.00949l-0.13648,-0.00257l-0.0267,0.00504l-0.0225,0.00067l-0.02018,0.00629l-0.15424,0.02118l-0.07067,-0.00133l-0.06908,0.00949l-0.32589,-0.00616l-0.13644,0.0145l-0.05703,-0.0028l-0.05589,0.00768l-4.70766,-0.08891l-0.08886,-0.01576l-0.0918,-0.00619l-0.22735,-0.05248l-0.01358,-0.0058l-0.03507,-0.00067l-0.00547,0.00215l-0.01599,-0.00255l-0.01599,-0.0003l-0.12701,-0.02254l-0.12791,-0.02043l-0.01409,-0.00477l-0.01588,-0.00281l-0.00303,-0.00358l-0.0424,-0.01435l-0.21887,-0.12535l-0.0072,-0.17754l-0.00047,-0.00056l0.00044,-0.00044l-0.00449,-0.11068c-0.13961,-0.02875 -0.25513,-0.09014 -0.32454,-0.16946z" fill="url(#color-5)" stroke="none" stroke-width="0.5" stroke-linecap="butt"/><path d="M284.07207,123.9526l-13.47354,-0.17578" fill="none" stroke="#666666" stroke-width="5" stroke-linecap="round"/><path d="M264.91692,136.60911l21.4278,0.17578" fill="none" stroke="#666666" stroke-width="5" stroke-linecap="round"/><path d="M259.88463,150.4961h28.73274" fill="none" stroke="#666666" stroke-width="5" stroke-linecap="round"/><path d="M291.05234,164.55889l-36.2,0.17578" fill="none" stroke="#666666" stroke-width="5" stroke-linecap="round"/><path d="M247.775,173.44683l32.56463,-77.13333l15.58537,79.33333" fill="none" stroke="url(#color-6)" stroke-width="5" stroke-linecap="round"/><path d="M291.36667,98.20194c0,6.42823 -5.29796,11.63934 -11.83333,11.63934c-6.53537,0 -11.83333,-5.21111 -11.83333,-11.63934c0,-6.42823 5.29796,-11.63934 11.83333,-11.63934c6.53537,0 11.83333,5.21111 11.83333,11.63934z" fill="url(#color-7)" stroke="url(#color-8)" stroke-width="2.5" stroke-linecap="butt"/><path d="M171.50034,180.21186v-7.07226h137.74932v7.07226z" fill="#312d29" stroke="url(#color-9)" stroke-width="0" stroke-linecap="butt"/><path d="M174.32666,171.83633v-75.27368c0,0 20.78146,0 31.31541,0c10.72844,0 32.48244,0 32.48244,0v75.27368c0,0 -9.62345,3.59201 -31.89343,4.0077c-23.38487,0.4365 -31.90442,-4.0077 -31.90442,-4.0077z" fill="url(#color-10)" stroke="none" stroke-width="0" stroke-linecap="butt"/><path d="M173.93765,97.126v-16.70732h63.79785v16.70732c0,0 -8.65642,3.97004 -30.9264,4.0623c-23.38487,0.09688 -32.87145,-4.0623 -32.87145,-4.0623z" fill="url(#color-11)" stroke="none" stroke-width="0" stroke-linecap="butt"/><path d="M238.31901,80.71044c0,3.06154 -14.36872,4.94341 -32.09343,4.94341c-17.72472,0 -32.09343,-1.88187 -32.09343,-4.94341c0,-3.06154 14.36872,-5.54341 32.09343,-5.54341c17.72472,0 32.09343,2.48187 32.09343,5.54341z" fill="url(#color-12)" stroke="none" stroke-width="0" stroke-linecap="butt"/><path d="M180.03919,80.62194c0,0 0.27112,-6.54174 1.08146,-10.38605c0.29678,-1.4079 3.60741,-2.65864 4.23461,-4.72813c0.29398,-0.96999 -0.66442,-1.54737 -0.67958,-2.5304c-0.03995,-2.59045 0.59052,-2.2484 0.59052,-2.2484l13.64254,0.0315c0,0 0.31754,-0.81958 0.46052,2.21683c0.03381,0.71821 -1.08238,1.87498 -0.87495,2.60522c0.49979,1.75943 3.90032,3.36172 4.17494,4.59322c0.84008,3.76741 1.54074,10.44624 1.54074,10.44624c0,0 -5.88996,1.71443 -12.02652,1.59251c-5.96994,-0.11861 -12.14423,-1.59251 -12.14423,-1.59251z" fill="url(#color-13)" stroke="none" stroke-width="0" stroke-linecap="butt"/><path d="M219.33427,89.42721c6.00707,0.00627 12.82367,-0.03542 12.82367,-0.03542c0,0 8.70302,-0.31469 8.77925,8.84478c-0.32504,8.96069 -8.8305,9.46415 -8.8305,9.46415c0,0 -7.78529,0.17075 -12.81027,0.1655c-7.24042,-0.00756 -13.00714,-1.3829 -13.09101,-9.23319c-0.08752,-8.19256 5.88844,-9.21338 13.12884,-9.20582z" fill="url(#color-14)" stroke="none" stroke-width="0" stroke-linecap="butt"/><path d="M231.40388,98.76667c0,-5.38083 2.13255,-9.74286 4.76318,-9.74286c2.63063,0 4.76318,4.36202 4.76318,9.74286c0,5.38083 -2.13255,9.74286 -4.76318,9.74286c-2.63063,0 -4.76318,-4.36202 -4.76318,-9.74286z" fill="url(#color-15)" stroke="url(#color-16)" stroke-width="1.5" stroke-linecap="butt"/><path d="M239.42434,145.16854c0,12.43105 0.17643,26.53718 0.17643,26.53718c0,0 0.11245,4.45869 -32.99656,4.65536c-32.39201,-0.63457 -33.18606,-4.68364 -33.18606,-4.68364c0,0 -0.6466,-16.11016 -0.6466,-26.50889c0,-14.98335 4.94977,-26.92288 33.3264,-27.12975c29.61384,-0.2159 33.3264,12.1464 33.3264,27.12975z" fill="url(#color-17)" stroke="none" stroke-width="0" stroke-linecap="butt"/><path d="M230.30126,155.57315c0,8.69916 0.12509,19.25116 0.12509,19.25116c0,0 -0.06314,1.69914 -23.53545,1.83676c-22.96399,-0.44407 -23.58558,-1.90333 -23.58558,-1.90333c0,0 -0.25689,-11.90764 -0.25689,-19.18459c0,-10.48524 3.50909,-18.84043 23.62642,-18.9852c20.99444,-0.15109 23.62642,8.49996 23.62642,18.9852z" fill="url(#color-18)" stroke="none" stroke-width="0" stroke-linecap="butt"/><g><path d="M267.02796,126.8757l25.33876,-57.15138" fill="none" stroke="url(#color-19)" stroke-width="3.5" stroke-linecap="round"/><path d="M251.44222,85.95251l56.51022,24.69498" fill="none" stroke="url(#color-20)" stroke-width="3.5" stroke-linecap="round"/><path d="M250.94132,110.0122l57.51205,-23.42441" fill="none" stroke="url(#color-21)" stroke-width="3.5" stroke-linecap="round"/><path d="M290.74724,127.31646l-22.0998,-58.03293" fill="none" stroke="url(#color-22)" stroke-width="3.5" stroke-linecap="round"/><path d="M309.26877,111.17497c-7.10455,16.31784 -26.10351,23.78174 -42.43535,16.67109c-16.33185,-7.11065 -23.81204,-26.1032 -16.70749,-42.42104c7.10455,-16.31784 26.10352,-23.78174 42.43535,-16.67109c16.33185,7.11065 23.81204,26.1032 16.70749,42.42104z" fill="none" stroke="url(#color-23)" stroke-width="3.5" stroke-linecap="butt"/><path d="M286.10268,101.08879c-1.52458,3.50168 -5.62826,5.09178 -9.16584,3.55157c-3.53757,-1.54021 -5.16942,-5.62747 -3.64483,-9.12915c1.52458,-3.50168 5.62826,-5.09178 9.16584,-3.55157c3.53757,1.54021 5.16942,5.62747 3.64483,9.12915z" fill="url(#color-24)" stroke="url(#color-25)" stroke-width="1" stroke-linecap="butt"/></g><path d="M238.05898,98.41671l54.89645,7.60082" fill="none" stroke="url(#color-26)" stroke-width="6" stroke-linecap="round"/><path d="M304.4993,107.89776c-0.91636,6.28292 -3.32693,3.82317 -6.69937,3.34794c-3.37244,-0.47523 -5.5898,-2.71089 -5.34827,-5.04565c0.46482,-4.49298 3.56397,-3.11651 6.93641,-2.64129c3.37244,0.47523 6.02703,-1.94008 5.11123,4.33899z" fill="url(#color-27)" stroke="url(#color-28)" stroke-width="0" stroke-linecap="butt"/></g></g></svg>