<svg version="1.1" xmlns="http://www.w3.org/2000/svg" xmlns:xlink="http://www.w3.org/1999/xlink" width="41.43835" height="104.8437" viewBox="0,0,41.43835,104.8437"><defs><linearGradient x1="239.74787" y1="156.06832" x2="239.74787" y2="162.91937" gradientUnits="userSpaceOnUse" id="color-1"><stop offset="0" stop-color="#c28b5f"/><stop offset="1" stop-color="#ffb87d"/></linearGradient><radialGradient cx="235.71182" cy="133.41612" r="13.11833" gradientUnits="userSpaceOnUse" id="color-2"><stop offset="0" stop-color="#ffd9ba"/><stop offset="1" stop-color="#ffb87d"/></radialGradient><radialGradient cx="229.21564" cy="134.03046" r="10.07074" gradientUnits="userSpaceOnUse" id="color-3"><stop offset="0" stop-color="#303030"/><stop offset="1" stop-color="#292929"/></radialGradient><radialGradient cx="245.64374" cy="130.85061" r="2.65078" gradientUnits="userSpaceOnUse" id="color-4"><stop offset="0" stop-color="#787878"/><stop offset="1" stop-color="#292929"/></radialGradient><radialGradient cx="234.49144" cy="133.01564" r="4.17314" gradientUnits="userSpaceOnUse" id="color-5"><stop offset="0" stop-color="#a7a7a7"/><stop offset="1" stop-color="#292929"/></radialGradient></defs><g transform="translate(-219.98057,-129.64767)"><g data-paper-data="{&quot;isPaintingLayer&quot;:true}" fill-rule="nonzero" stroke-linejoin="miter" stroke-miterlimit="10" stroke-dasharray="" stroke-dashoffset="0" style="mix-blend-mode: normal"><path d="M252.35942,194.62347c-0.21045,-0.07247 -0.83796,3.62773 -1.74672,3.38526c-0.44697,-0.11926 0.50761,-2.38568 0.07227,-3.33866c-0.23044,-0.50444 -0.58247,4.25583 -1.66004,3.51721c-0.36994,-0.25358 0.69125,-3.53089 0.44397,-4.4286c-0.13239,-0.48056 -1.09906,5.10567 -1.83196,4.65605c-0.43507,-0.2669 0.7134,-3.21086 0.70454,-4.65488c-0.00432,-0.70349 -1.24059,3.67349 -1.74034,3.22758c-0.30592,-0.27295 0.67588,-4.60616 0.64836,-4.66395c-0.15472,-0.32478 -1.50545,2.12814 -1.63625,1.43282c-0.2411,-1.28147 1.04409,-2.45001 2.10383,-3.58049c0.61916,-0.66049 0.91779,-1.80292 0.91779,-1.80292c0,0 1.19759,-2.78178 1.42304,-6.28924c0.05422,-0.84345 0.41921,-3.57937 0.46651,-4.44635c0.11196,-2.05192 0.15087,-4.09073 0.24994,-5.34706c0.21305,-2.70214 0.56112,-6.11839 0.56112,-6.11839l5.91052,0.35754c0,0 -0.4185,4.88696 -0.64501,7.75985c-0.09219,1.16919 -0.7588,1.99477 -0.9715,3.79984c-0.09534,0.80915 -0.98909,4.21436 -1.43813,6.31764c-0.74763,3.50189 -0.82901,5.69481 -0.82901,5.69481c0,0 -0.55711,4.67544 -1.00295,4.5219z" data-paper-data="{&quot;index&quot;:null}" fill="#ffb77d" stroke="#000000" stroke-width="0" stroke-linecap="butt"/><path d="M252.75411,159.7793c5.37153,-0.07014 5.32043,3.5252 5.11558,5.48873c-0.20485,1.96353 1.47492,1.74078 -3.44702,1.78081c-4.16014,0.03383 -3.53701,-0.26438 -3.33216,-2.22791c0.20485,-1.96353 -1.13382,-5.00509 1.66362,-5.04162z" data-paper-data="{&quot;index&quot;:null}" fill="#ffffff" stroke="#000000" stroke-width="0" stroke-linecap="butt"/><g><path d="M246.07885,227.39482c0,0 -2.0985,-25.71455 -3.07659,-30.0963c-0.31982,-1.43278 -3.41257,-1.49125 -3.41257,-1.49125c0,0 -3.06321,-4.21472 0.56534,-4.24972c3.06668,-0.02958 9.84259,2.08784 9.84259,2.08784l4.08397,33.67226z" data-paper-data="{&quot;index&quot;:null}" fill="#726f7c" stroke="#000000" stroke-width="0" stroke-linecap="butt"/><path d="M260.22511,234.392c-0.59273,0.00572 -2.64386,0.03915 -4.70479,-0.02153c-1.25299,-0.03689 -1.90802,-0.59942 -2.84274,-0.73325c-1.17675,-0.16848 -2.93628,0.2488 -3.78732,0.06549c-1.56818,-0.33777 -2.38203,-0.75488 -2.38203,-0.75488c0,0 -0.27899,-1.02276 -0.30088,-1.58297c-0.02949,-0.75476 0.13985,-2.53848 0.13985,-2.53848c0,0 5.93282,-0.1768 8.24954,0.0012c1.37087,0.10533 4.24662,0.60588 4.24662,0.60588c0,0 1.46563,0.60149 1.68335,1.02665c0.26665,0.52071 0.89221,1.98014 0.89221,1.98014c0,0 -0.36697,1.94378 -1.19382,1.95175z" data-paper-data="{&quot;index&quot;:null}" fill="#141415" stroke="#000000" stroke-width="0" stroke-linecap="butt"/><path d="M259.9294,231.81993c-0.24821,0.00239 0.71781,1.5948 -2.60513,1.3583c-3.13793,-0.22332 -2.78781,-1.1614 -3.89295,-1.23134c-2.31089,-0.14626 -2.58179,0.61996 -3.58289,0.47663c-0.34865,-0.04992 -0.51379,-0.10959 -1.79387,-0.9531c-0.88036,-0.5801 -0.68252,-1.74472 -1.2883,-2.36699c-0.88489,-0.90896 -0.82662,-1.87792 -0.82662,-1.87792l-0.10576,-3.04685c0,0 0.50761,2.20202 1.35447,3.01829c0.7577,0.73034 2.31661,-0.04109 2.80027,-0.0459c0.84692,-0.00841 -0.72033,-3.26124 0.08956,-3.25081c0.43549,0.00562 3.72032,-0.26998 3.72032,-0.26998c0,0 0.15754,3.57854 0.39068,3.59645c1.37087,0.10533 4.61036,0.60236 4.61036,0.60236c0,0 1.46563,0.60149 1.68336,1.02664c0.26665,0.52071 0.65905,2.95251 0.65905,2.95251c0,0 -0.38569,0.00372 -1.21254,0.0117z" data-paper-data="{&quot;index&quot;:null}" fill="#252527" stroke="#000000" stroke-width="0" stroke-linecap="butt"/><path d="M255.08836,227.8365l-2.65705,1.117" fill="none" stroke="#ffffff" stroke-width="0.5" stroke-linecap="round"/><path d="M254.37488,229.29856l2.53229,-1.4796" fill="none" stroke="#ffffff" stroke-width="0.5" stroke-linecap="round"/><path d="M256.55979,229.52002l1.44102,-1.46908" fill="none" stroke="#ffffff" stroke-width="0.5" stroke-linecap="round"/><path d="M251.18136,225.08508l2.18022,-0.26355" fill="none" stroke="#969696" stroke-width="0.5" stroke-linecap="round"/><path d="M253.61111,225.5467l-1.93655,0.38248" fill="none" stroke="#969696" stroke-width="0.5" stroke-linecap="round"/></g><g><path d="M225.63578,227.5112l3.71434,-33.71504c0,0 6.75228,-2.19163 9.8191,-2.19569c3.62872,-0.00482 0.61192,4.24326 0.61192,4.24326c0,0 -3.09192,0.09239 -3.396,1.52859c-0.92996,4.39222 -2.74624,30.12825 -2.74624,30.12825z" fill="#726f7c" stroke="#000000" stroke-width="0" stroke-linecap="butt"/><path d="M240.92719,232.54766c0,0 -0.38313,1.94066 -1.21003,1.94176c-0.59276,0.00079 -2.64409,0.01717 -4.70444,-0.06066c-1.25264,-0.0473 -1.90296,-0.61527 -2.83654,-0.75687c-1.17531,-0.17827 -2.93824,0.22436 -3.78773,0.03399c-1.56531,-0.35081 -2.37566,-0.77466 -2.37566,-0.77466c0,0 -0.27048,-1.02503 -0.2877,-1.58542c-0.02321,-0.75497 0.16097,-2.53723 0.16097,-2.53723c0,0 5.93408,-0.12744 8.24924,0.06981c1.36995,0.11673 4.24142,0.64117 4.24142,0.64117c0,0 1.46057,0.61367 1.67475,1.04061c0.26232,0.5229 0.8757,1.9875 0.8757,1.9875z" data-paper-data="{&quot;index&quot;:null}" fill="#141415" stroke="#000000" stroke-width="0" stroke-linecap="butt"/><path d="M240.65545,231.91338c0,0 -0.38569,0.00051 -1.21258,0.00161c-0.24822,0.00033 0.70451,1.60071 -2.61634,1.33658c-3.13596,-0.24943 -2.77805,-1.18455 -3.88258,-1.26368c-2.30959,-0.16548 -2.58687,0.59846 -3.58674,0.4468c-0.34822,-0.05282 -0.51286,-0.11386 -1.78587,-0.96798c-0.87549,-0.58741 -0.66798,-1.75033 -1.26857,-2.37762c-0.87731,-0.9163 -0.81097,-1.88472 -0.81097,-1.88472l-0.08041,-3.04763c0,0 0.48928,2.20617 1.3293,3.02947c0.7516,0.73661 2.31687,-0.02182 2.80056,-0.0226c0.84695,-0.00137 -0.69318,-3.26714 0.1166,-3.24996c0.43544,0.00923 3.72243,-0.23901 3.72243,-0.23901c0,0 0.12777,3.57972 0.36076,3.59957c1.36994,0.11673 4.60519,0.64069 4.60519,0.64069c0,0 1.46057,0.61367 1.67475,1.04061c0.26233,0.5229 0.63447,2.95789 0.63447,2.95789z" data-paper-data="{&quot;index&quot;:null}" fill="#252527" stroke="#000000" stroke-width="0" stroke-linecap="butt"/><path d="M234.63513,227.89142l-2.66626,1.09487" fill="none" stroke="#ffffff" stroke-width="0.5" stroke-linecap="round"/><path d="M236.45401,227.88901l-2.54451,1.45849" fill="none" stroke="#ffffff" stroke-width="0.5" stroke-linecap="round"/><path d="M237.54567,228.13007l-1.45319,1.45705" fill="none" stroke="#ffffff" stroke-width="0.5" stroke-linecap="round"/><path d="M230.75112,225.10761l2.18234,-0.24541" fill="none" stroke="#969696" stroke-width="0.5" stroke-linecap="round"/><path d="M231.2373,225.95578l1.93966,-0.36636" fill="none" stroke="#969696" stroke-width="0.5" stroke-linecap="round"/></g><path d="M235.91979,162.91937v-6.85104h7.65615v6.85104z" fill="url(#color-1)" stroke="#000000" stroke-width="0" stroke-linecap="butt"/><path d="M229.63979,193.59141c0,0 0.16709,-5.5597 -0.35268,-10.94382c-0.35317,-3.65847 -1.40473,-6.95919 -1.56162,-9.45339c-0.29447,-4.68133 -0.2105,-13.38223 -0.2105,-13.38223c0,0 3.69178,-0.58477 5.4694,-0.21857c2.26281,0.46615 7.00656,2.78867 7.00656,2.78867c0,0 3.67689,-2.17061 5.59031,-2.58687c2.01891,-0.43921 6.22369,0.01677 6.22369,0.01677c0,0 -0.06905,9.21711 -0.22689,12.65629c-0.13965,3.04285 -0.88957,6.36811 -1.18346,10.87293c-0.3029,4.64296 -0.14784,10.42155 -0.14784,10.42155c0,0 -2.75697,-0.76932 -5.57187,-0.83754c-1.27833,-0.03098 -1.79126,1.00612 -2.99851,1.16532c-0.96496,0.12724 -2.63623,-0.61291 -3.56107,-0.64966c-0.69915,-0.02778 -2.04377,-0.5306 -2.53801,-0.53471c-0.99795,-0.0083 -1.61572,0.86529 -2.77345,1.02464c-1.34484,0.1851 -3.1641,-0.33939 -3.1641,-0.33939z" fill="#ffffff" stroke="#292e32" stroke-width="0" stroke-linecap="butt"/><path d="M252.80944,143.64573c0,7.73092 -5.73774,13.99807 -12.8156,13.99807c-7.07786,0 -12.8156,-6.26715 -12.8156,-13.99807c0,-7.73092 5.73774,-13.99806 12.8156,-13.99806c7.07786,0 12.8156,6.26714 12.8156,13.99806z" fill="url(#color-2)" stroke="none" stroke-width="0" stroke-linecap="butt"/><path d="M238.36341,145.01429c-0.5265,0.91349 -1.43258,0.38383 -1.43258,0.38383c-0.91393,-0.55722 -2.45095,-1.17574 -2.30203,-2.6961c0.1217,-1.24248 2.13973,-2.33997 3.2068,-2.10706c1.93572,0.42253 3.60144,3.95074 0.5278,4.41932z" fill="#191412" stroke="none" stroke-width="0.5" stroke-linecap="butt"/><path d="M242.78052,149.52889c0.14423,-0.46863 0.47533,-0.57039 0.71965,-0.57602c0.0776,-0.00492 0.15695,0.00165 0.23587,0.02089c-0.28158,-1.08168 -0.10408,-2.4792 -0.44462,-3.52597c0,0 -0.2501,-0.78449 0.51677,-1.04033c0.76687,-0.25584 1.01697,0.52865 1.01697,0.52865c0.4101,1.30859 0.71193,2.9192 0.68474,4.31641c-0.01019,0.5236 0.25251,1.23107 -0.14241,1.56432c-0.4098,0.34581 -1.06036,-0.06797 -1.59055,-0.10196l-0.46926,-0.15113c-0.09725,-0.03132 -0.18459,-0.07973 -0.25988,-0.14099c-0.1971,-0.14779 -0.41151,-0.42524 -0.26729,-0.89386z" fill="#191412" stroke="none" stroke-width="0.5" stroke-linecap="butt"/><path d="M250.25235,145.49719c-0.42472,0.9868 -1.15568,0.41464 -1.15568,0.41464c-0.73728,-0.60194 -1.97722,-1.27009 -1.85707,-2.91248c0.09818,-1.3422 1.72614,-2.52778 2.58696,-2.27617c1.56156,0.45643 2.90532,4.26783 0.42578,4.77401z" fill="#191412" stroke="none" stroke-width="0.5" stroke-linecap="butt"/><g stroke-linecap="butt"><path d="M231.90604,134.03999c-0.16984,0.01553 -0.60661,0.06221 -1.07903,0.1438c-0.52185,0.20742 -1.13106,0.41772 -1.59752,0.64771c-0.28909,0.89276 0.78709,1.80702 -0.65422,2.4752c-2.45813,1.13958 -1.71655,-2.03888 -0.89769,-3.03685c1.27069,-1.10653 3.14359,-1.2394 4.75566,-1.549c2.22048,-0.42645 4.38435,-1.08334 6.57971,-1.21737c0.08249,-0.08622 0.19535,-0.14411 0.32353,-0.15569l0.58612,-0.0529c0.29539,-0.07774 0.61637,-0.15861 0.95355,-0.23507c0.87645,-0.27394 1.93099,-0.41625 2.91353,-0.50866c0.4818,-0.09462 0.9333,-0.1389 1.30669,-0.10536c0.27388,-0.02025 0.5286,-0.03932 0.7561,-0.05986l0.61787,-0.05577c0.28142,-0.0254 0.53014,0.18214 0.55554,0.46356c0.0226,0.25047 -0.13931,0.47504 -0.37361,0.53931l-0.32968,0.09745c0.145,0.12181 0.27656,0.26112 0.39244,0.4197l0.23414,-0.11908l0.29765,0.58522c0.03177,0.05903 0.05238,0.12532 0.05879,0.19629c0.0254,0.28142 -0.18214,0.53014 -0.46355,0.55553c-0.08558,0.00772 -0.16814,-0.00609 -0.24232,-0.03698l-0.50702,-0.19878l0.00585,-0.01492l-0.04787,-0.00377c-0.36209,-0.22374 -0.73047,-0.39249 -1.09838,-0.50678c-0.55947,-0.02006 -1.148,-0.08122 -1.74789,-0.1302c-1.01464,0.1745 -1.9334,0.80247 -2.5904,1.87097c0,0 -0.26893,0.43524 -0.70416,0.1663c-0.43523,-0.26893 -0.1663,-0.70417 -0.1663,-0.70417c0.0575,-0.09265 0.11686,-0.18277 0.17799,-0.27034l-0.28392,0.09053c-0.03801,0.01299 -0.07817,0.02169 -0.11996,0.02546c-0.28142,0.0254 -0.53014,-0.18214 -0.55553,-0.46356c-0.01286,-0.14243 0.03395,-0.27647 0.11981,-0.37743c-0.2451,0.00049 -0.4766,0.01384 -0.6735,0.06241c-1.37524,0.33924 -3.48763,0.45199 -5.48058,0.75785c0.01121,0.24126 -0.14794,0.45435 -0.37516,0.51668l-0.59763,0.17665l-0.00571,-0.01931l-0.00747,0.00194z" fill="url(#color-3)" stroke="none" stroke-width="0.5"/><path d="M247.00008,130.30896c2.70896,-0.28418 2.68558,-0.24349 2.90043,1.58673c0.21485,1.83022 -0.78194,3.36186 -2.22639,3.42102c-1.44446,0.05917 -2.7896,-1.37656 -3.00445,-3.20678c-0.21485,-1.83022 -0.20983,-1.53449 2.33041,-1.80097z" data-paper-data="{&quot;index&quot;:null}" fill="url(#color-4)" stroke="#000000" stroke-width="0"/><path d="M240.38006,132.98982c0.35755,1.99142 -1.17444,3.9329 -3.4218,4.33639c-2.24735,0.40349 -4.35904,-0.88377 -4.71659,-2.8752c-0.35755,-1.99142 -0.40888,-2.02662 3.87102,-2.60142c4.01334,-0.53901 3.90982,-0.85119 4.26737,1.14023z" fill="url(#color-5)" stroke="#000000" stroke-width="0"/></g><path d="M225.31791,190.54267c0,0 -0.0763,-2.20502 -0.9098,-5.68749c-0.50062,-2.09162 -1.50324,-5.46746 -1.60664,-6.27699c-0.2307,-1.80589 -0.99217,-2.59612 -1.08907,-3.76871c-0.23811,-2.88124 -0.68136,-7.78027 -0.68136,-7.78027l6.81283,-0.73116c0,0 0.37383,3.42121 0.59778,6.13119c0.10412,1.25996 0.13273,3.31233 0.24538,5.37332c0.04761,0.87081 0.44634,3.6053 0.50209,4.45196c0.23183,3.52082 1.58952,6.24929 1.58952,6.24929c0,0 0.33498,1.13265 1.0431,1.75949c1.212,1.07287 2.68346,2.16993 2.39547,3.47659c-0.15626,0.70898 -1.69299,-1.67843 -1.87385,-1.3414c-0.03218,0.05997 1.06451,4.36558 0.70985,4.65987c-0.57937,0.48076 -1.96891,-3.85301 -1.97948,-3.14373c-0.02171,1.45591 1.27809,4.3509 0.77468,4.64719c-0.84803,0.49914 -1.91731,-5.07028 -2.07366,-4.57764c-0.29207,0.92027 0.90451,4.15671 0.47625,4.4355c-1.24742,0.81203 -1.61511,-3.96351 -1.88464,-3.44064c-0.5092,0.98778 0.57261,3.21209 0.05667,3.36032c-1.049,0.30138 -1.74253,-3.38848 -1.98558,-3.30224c-0.51491,0.18272 -1.11955,-4.49445 -1.11955,-4.49445z" fill="#ffb77d" stroke="#000000" stroke-width="0" stroke-linecap="butt"/><path d="M227.93568,164.66563c0.22523,1.96554 0.94143,2.22523 -3.85094,2.46396c-5.66996,0.28245 -3.73607,0.39679 -3.9613,-1.56875c-0.22523,-1.96554 -0.26439,-5.58579 5.92333,-5.86738c3.22248,-0.14664 1.66367,3.00662 1.8889,4.97216z" fill="#ffffff" stroke="#000000" stroke-width="0" stroke-linecap="butt"/></g></g></svg>