<svg version="1.1" xmlns="http://www.w3.org/2000/svg" xmlns:xlink="http://www.w3.org/1999/xlink" width="10.57245" height="10.44749" viewBox="0,0,10.57245,10.44749"><defs><radialGradient cx="271.45099" cy="179.10882" r="5.22319" gradientUnits="userSpaceOnUse" id="color-1"><stop offset="0" stop-color="#797979"/><stop offset="1" stop-color="#727272"/></radialGradient><radialGradient cx="267.99498" cy="181.02333" r="4.2905" gradientUnits="userSpaceOnUse" id="color-2"><stop offset="0" stop-color="#6e6e6e" stop-opacity="0.74902"/><stop offset="1" stop-color="#424242" stop-opacity="0.77647"/></radialGradient><radialGradient cx="272.18601" cy="180.5942" r="2.60323" gradientUnits="userSpaceOnUse" id="color-3"><stop offset="0" stop-color="#595959" stop-opacity="0.74902"/><stop offset="1" stop-color="#4d4d4d" stop-opacity="0.74902"/></radialGradient><radialGradient cx="271.67923" cy="177.3056" r="3.12" gradientUnits="userSpaceOnUse" id="color-4"><stop offset="0" stop-color="#626262" stop-opacity="0.74902"/><stop offset="1" stop-color="#4a4a4a" stop-opacity="0.83137"/></radialGradient><radialGradient cx="267.7037" cy="178.83679" r="4.62696" gradientUnits="userSpaceOnUse" id="color-5"><stop offset="0" stop-color="#2d2d2d" stop-opacity="0.96078"/><stop offset="1" stop-color="#3b3b3b" stop-opacity="0.94902"/></radialGradient></defs><g transform="translate(-264.77627,-174.77628)"><g data-paper-data="{&quot;isPaintingLayer&quot;:true}" fill-rule="nonzero" stroke-linecap="butt" stroke-linejoin="miter" stroke-miterlimit="10" stroke-dasharray="" stroke-dashoffset="0" style="mix-blend-mode: normal"><path d="M264.81753,180.65086c-0.35944,-2.8622 1.66944,-5.47387 4.53165,-5.83331c2.8622,-0.35944 5.47387,1.66944 5.83332,4.53165c0.35944,2.8622 -1.66944,5.47387 -4.53165,5.83331c-2.8622,0.35944 -5.47387,-1.66944 -5.83332,-4.53165z" fill="url(#color-1)" stroke="none" stroke-width="0.5"/><path d="M270.65809,184.75851c0.03148,0.25063 -0.21917,0.28211 -0.21917,0.28211l-0.07785,0.00851c-0.71767,0.01812 -1.54224,-0.0679 -1.72494,-0.87314c-0.10584,0.15231 -0.58459,-0.54806 -0.58459,-0.54806c-0.50551,-0.19974 -0.33504,-0.67092 -0.7144,-0.76547c-0.72857,-0.18159 -0.85832,0.32127 -1.0505,0.1172c-0.20617,-0.21893 -0.36329,-0.2199 -0.43626,-0.56188c-0.08146,-0.38181 -0.26071,-0.69352 -0.44436,-1.11879c-0.08985,-0.20808 0.1601,-0.53042 0.02209,-0.77368c-0.07275,-0.13173 -0.24902,-0.58123 -0.2102,-0.87638c0.04152,-0.31569 0.30226,-0.48581 0.34409,-0.89032c0.02373,-0.2295 -0.11865,-0.51996 -0.08659,-0.7379c0.11642,-0.79134 0.50407,-1.34116 1.19205,-0.99326c0.67944,0.34358 -0.12622,1.40729 0.84769,1.98234c0.34159,0.46567 0.11492,0.69776 0.25238,1.14523c0.10444,0.33999 0.77686,-0.1427 1.05413,0.24072c0.37828,0.5231 -1.23302,2.5973 0.41362,1.79917c0.09371,-0.19661 0.1896,-0.38084 0.28117,-0.53674c-0.0389,-0.73826 -0.03602,-2.17925 0.89176,-0.79186c0.98649,1.4752 -1.8374,1.9454 -1.29796,3.11165c0.0276,0.61674 0.77974,0.57769 1.23806,0.56611l0.02767,-0.00473c0,0 0.25064,-0.03148 0.28212,0.21916z" fill="url(#color-2)" stroke="none" stroke-width="0.5"/><path d="M270.87844,179.51778c-0.78308,-0.83605 -1.03458,-1.81838 0.59568,-1.08322c0.58078,0.50115 1.49093,0.66301 1.96222,1.17197c0.49846,0.53832 0.95626,3.4207 -0.49401,3.51442c-0.5847,-0.09558 -0.79363,-0.92315 -0.97173,-1.4882c-0.26089,-0.82772 -2.23888,-0.6308 -1.09215,-2.11495z" fill="url(#color-3)" stroke="none" stroke-width="0.5"/><path d="M269.11982,175.11819l0.0741,-0.00931c0.01016,-0.00185 0.02092,-0.00328 0.03213,-0.00403l0.10264,-0.01289c1.33117,-0.16565 2.38976,0.19262 3.3179,0.96185c1.11175,0.28269 1.24905,2.57067 2.19628,2.84967l0.11049,0.06474c0,0 0.19743,0.15337 0.04405,0.3508c-0.13646,0.17564 -0.30777,0.07363 -0.34391,0.04898c-0.79205,-0.25616 -0.55132,-0.52406 -0.56638,-1.12768c-0.00876,-0.35067 -1.05686,-0.37798 -1.17275,-0.58352c-0.09431,-0.16723 -0.02318,-0.49385 -0.02664,-0.7609c-0.08761,-0.01499 -0.14904,-0.07855 -0.14904,-0.07855c-0.10959,-0.11504 -0.22136,-0.22281 -0.33562,-0.32308c-0.05141,0.0098 -0.10811,0.02428 -0.17059,0.0439c-0.20887,0.17365 -5.60001,0.15884 -3.30801,-1.29063c0.05712,-0.11199 0.19536,-0.12936 0.19536,-0.12936z" fill="url(#color-4)" stroke="none" stroke-width="0.5"/><path d="M271.44268,179.39746c-0.00018,0.00038 -0.00035,0.00076 -0.00052,0.00115l0.00077,0.00277c0.81782,0.25358 0.44189,1.70948 -0.30257,0.97164c-0.07565,0.19682 -0.19313,0.33675 -0.46089,0.40129l0.02463,0.08253l-0.30226,0.09023c-0.01437,0.00457 -0.02936,0.0079 -0.04487,0.00985c-0.137,0.0172 -0.262,-0.0799 -0.2792,-0.2169c-0.01295,-0.10313 0.03886,-0.19946 0.12372,-0.24812l0.1776,-0.10722c0.19547,-0.3073 -0.06358,-0.58744 0.35658,-0.92887c0,0 0.08596,-0.06294 0.18674,-0.05053c0.00068,-0.00146 0.00135,-0.00291 0.00203,-0.00433l-0.05618,-0.20553c-0.00364,-0.01254 -0.00635,-0.02555 -0.00803,-0.03891c-0.0172,-0.137 0.0799,-0.262 0.2169,-0.2792c0.12193,-0.01531 0.23435,0.05993 0.26974,0.17325l0.08355,0.25016l-0.01378,0.00461l0.02476,0.09057z" fill-opacity="0.74902" fill="#696969" stroke="none" stroke-width="0.5"/><path d="M271.17181,176.38849c0.70096,-0.96519 1.16118,1.42365 -0.17005,1.59629c-1.08359,0.14052 -0.73325,-1.45494 0.08047,-1.60125c0,0 0.03983,-0.00501 0.08958,0.00496z" fill-opacity="0.74902" fill="#696969" stroke="none" stroke-width="0.5"/><path d="M268.63858,175.87786c0.77245,0.28625 0.35204,0.45825 -0.17276,0.48046c-0.05057,0.02256 -0.12324,0.03884 -0.19821,0.00127c-0.63236,-0.01841 -1.2216,-0.25313 0.04061,-0.76327c0,0 0.23713,-0.07919 0.31633,0.15794c0.01578,0.04727 0.019,0.08827 0.01403,0.1236z" fill-opacity="0.74902" fill="#696969" stroke="none" stroke-width="0.5"/><path d="M268.70164,180.38454c-0.13487,0.21051 -0.34537,0.07564 -0.34537,0.07564l-0.09368,-0.07761c-0.27297,-0.0764 -1.33721,-1.79056 -1.30228,-1.9894c0,0 0.05548,-0.24377 0.29925,-0.18828c0.24376,0.05549 0.18827,0.29925 0.18827,0.29925c-0.16805,0.50581 0.25975,0.08967 0.5693,0.35382c0.45362,0.38709 -0.18354,0.96683 0.35645,1.03707l0.25244,0.14415c0,0 0.2105,0.13486 0.07563,0.34537z" fill="#6f6f6f" stroke="none" stroke-width="0.5"/><path d="M265.9574,180.93755c-0.00347,-0.00987 -0.00698,-0.01975 -0.01052,-0.0296l-0.1869,-0.19335c-0.0244,-0.00737 -0.04607,-0.01546 -0.06421,-0.02434c-0.44248,-0.21646 -0.38443,-0.67252 -0.36959,-1.06588c0,0 0.01004,-0.2498 0.25984,-0.23974c0.2498,0.01005 0.23975,0.25985 0.23975,0.25985c-0.01858,0.43114 0.75967,0.48546 0.96156,0.86686c0.29196,0.55156 -0.3657,0.65539 -0.3433,1.29243l-0.00039,0.00114l0.00043,-0.00001l0.00661,0.26162c0.0048,0.12811 -0.0891,0.24085 -0.21869,0.25713c-0.10521,0.01322 -0.20336,-0.041 -0.25102,-0.12892l-0.16702,-0.2919l0.09183,-0.05254c-0.23817,-0.46094 -0.0423,-0.78504 0.05165,-0.91274zM266.46714,180.78996c-0.02152,-0.00036 -0.05675,-0.00116 -0.10089,-0.0028c0.00208,0.00197 0.00413,0.00395 0.00618,0.00594c0.02177,-0.00212 0.0446,-0.00322 0.06853,-0.00321c0.01046,0 0.01915,0.00004 0.02617,0.00006z" fill-opacity="0.74902" fill="#797979" stroke="none" stroke-width="0.5"/><path d="M274.29228,181.47201c0.01196,0.12865 0.01216,0.26254 -0.01155,0.41024l0.06884,0.01157l-0.04461,0.26541c-0.01569,0.10862 -0.10216,0.19781 -0.21633,0.21215c-0.08218,0.01032 -0.16006,-0.0205 -0.21292,-0.0764l-0.18088,-0.18712l0.03422,-0.03308l-0.09324,-0.06655c0.08137,-0.83286 -0.75564,-1.45342 -0.0438,-2.17634c0,0 0.14878,-0.14382 0.30646,-0.03441c0.12615,-0.00238 0.23637,0.09081 0.25245,0.21883l0.03279,0.26111l-0.01471,0.00185l0.01666,0.02868c-0.00828,0.07082 -0.0125,0.13824 -0.01355,0.20291c0.12493,0.18296 0.17149,0.43394 0.2047,0.6706l-0.01916,0.16166c0,0 -0.01415,0.07095 -0.06539,0.1289z" fill="#6f6f6f" stroke="none" stroke-width="0.5"/><path d="M273.42086,183.22486c0.06281,-0.04326 0.17883,-0.09061 0.30412,0.02084c0.18679,0.16616 0.02062,0.35296 0.02062,0.35296c-0.28483,0.31978 -0.55922,0.56868 -0.94172,0.76616l-0.20299,0.14864c-0.03391,0.02584 -0.07486,0.04333 -0.12021,0.04902c-0.137,0.0172 -0.262,-0.0799 -0.2792,-0.2169c-0.00523,-0.04166 0.00011,-0.08221 0.01393,-0.11897l0.11564,-0.32827l0.09004,0.03172c0.11928,-0.28671 0.33961,-0.38388 0.8171,-0.54525l0.07605,-0.10012c0,0 0.04301,-0.03968 0.10663,-0.05984z" fill-opacity="0.74902" fill="#696969" stroke="none" stroke-width="0.5"/><path d="M272.67637,176.61341c0.47091,0.46239 -0.27404,0.87593 -0.11471,1.37503c0.15792,0.49465 1.12279,0.03442 1.5058,0.38423c0.32358,0.60924 1.6658,1.11757 0.94799,2.22093c-0.08873,0.1364 -2.52588,-0.57237 -1.65674,-0.06182c1.68784,0.54822 0.42066,2.34224 -0.35255,1.84103c-0.43333,-0.28089 -0.26588,-2.34706 -0.50061,-2.3728c-1.09776,-0.52902 -0.36141,-0.77418 -0.07341,-1.42658c0.00712,-0.01611 -0.18224,-0.10288 -0.40805,-0.20317c0.11195,0.53895 -0.47251,0.55014 -0.84093,0.26747c-0.00133,-0.00103 -0.00499,-0.0037 -0.01071,-0.00781c-0.02252,0.24072 -0.54787,0.25275 -0.59193,0.50596c-0.0059,0.03391 -0.35816,0.42592 -0.1901,0.88884c0.08308,0.22884 0.33711,0.39796 0.52732,0.61222c0.29536,0.3327 0.53227,0.68027 0.47336,0.80377c-0.03197,0.067 -0.55662,0.32086 -0.93822,0.25115c-0.23116,-0.04223 -0.33358,-0.33651 -0.46033,-0.4814c-0.1107,-0.26036 -1.17923,1.76951 -1.16584,0.38182c0.0009,-0.09276 0.16206,-0.22985 0.17401,-0.35346c-0.07227,0.07928 -0.27697,-0.45651 -0.65907,-0.3778c-0.18845,0.03883 -0.19097,0.98938 -0.26961,1.00699c-0.98989,0.2217 -0.60169,-0.54932 -0.4964,-0.71548c-0.23037,0.02992 -0.89322,0.03858 -0.94701,-0.19459c-0.09436,-0.51708 -0.59127,-1.02925 -0.78478,-1.53354c-0.08868,-0.23111 0.10784,-0.43207 0.05058,-0.65804c-0.06644,-0.26221 -0.13133,-0.41398 -0.16087,-0.66962c-0.08334,-0.72126 0.07277,-1.51537 0.94442,-2.1131c0.49527,-0.10256 0.9671,0.17975 1.13567,0.43939c0.08128,-0.05889 -0.01702,0.12866 0.09819,0.23574c0.09569,0.08893 0.40926,0.1005 0.44981,0.06898c0.32151,-0.24987 0.40616,-0.79443 0.73505,-1.07481c0.385,-0.3282 1.0212,-0.36771 1.50595,-0.25294c0.98604,0.65833 0.02299,0.91264 -0.22857,1.51178c-0.07696,0.18331 0.0114,0.56799 0.02143,0.79451c0.18919,-0.01735 0.48424,-0.00035 0.76864,0.05495c-0.14556,-0.49693 0.2782,-0.99996 0.7377,-1.30849c0.00233,-0.00498 0.00482,-0.01002 0.0075,-0.01511c0.06711,-0.12766 0.16903,-0.14264 0.24317,-0.13252c0.09983,-0.05076 0.19672,-0.09038 0.28502,-0.11677c0,0 0.23955,-0.06896 0.30858,0.17132c0.03681,0.12814 -0.01415,0.20756 -0.06973,0.25378z" fill="url(#color-5)" stroke-opacity="0.12941" stroke="#000000" stroke-width="0.25"/><path d="M273.65958,176.78031c0.05778,-0.03813 0.11898,-0.04581 0.11898,-0.04581l0.24638,0.08125c1.03948,1.24311 -0.83537,1.65754 -0.50793,0.14396c0,0 0.02996,-0.13162 0.14258,-0.17941z" fill-opacity="0.74902" fill="#818181" stroke="none" stroke-width="0.5"/><path d="M268.49591,178.57428c0.13509,-0.10601 0.25021,-0.04641 0.30906,0.00131c0.95217,-0.38755 1.19606,0.6755 0.53614,0.73934c0.01273,0.07536 0.00605,0.1984 -0.1455,0.26543c-0.22864,0.10111 -0.32975,-0.12753 -0.32975,-0.12753c-0.04026,-0.10054 -0.09395,-0.20385 -0.17668,-0.27356l-0.21838,-0.03671c-0.10862,-0.01569 -0.19781,-0.10215 -0.21215,-0.21632c-0.01481,-0.11798 0.05513,-0.22704 0.16233,-0.26605c0.01561,-0.02907 0.03961,-0.05817 0.07494,-0.08589z" fill-opacity="0.12941" fill="#b0b0b0" stroke="none" stroke-width="0.5"/><path d="M267.69211,178.53323c-0.24805,0.03115 -0.27921,-0.2169 -0.27921,-0.2169l-0.00514,-0.05095c-0.00149,-0.0623 -0.00417,-0.12461 -0.00803,-0.18685l-0.05226,-0.02982c0,0 -0.21713,-0.12391 -0.09322,-0.34104c0.04519,-0.07921 0.1028,-0.11303 0.15774,-0.12404c0.03125,-0.04651 0.08457,-0.08674 0.17506,-0.09811c0.24805,-0.03115 0.2792,0.2169 0.2792,0.2169c0.00344,0.02764 0.00668,0.05532 0.0097,0.08302c0.05509,0.05292 0.12351,0.15608 0.04111,0.30048c-0.00488,0.00854 -0.00989,0.01656 -0.01504,0.02408c0.00245,0.04757 0.0043,0.09516 0.00556,0.14276l0.00141,0.00127c0,0 0.03115,0.24805 -0.2169,0.2792z" fill-opacity="0.12941" fill="#b0b0b0" stroke="none" stroke-width="0.5"/><path d="M268.38061,179.85511c-0.06173,0.05966 -0.12275,0.07765 -0.17627,0.07554c-0.16273,0.16427 -0.33986,0.00669 -0.33986,0.00669c-0.04509,-0.04445 -0.09018,-0.0889 -0.13526,-0.13335l-0.23448,-0.03337c-0.11134,-0.01329 -0.20361,-0.10083 -0.21821,-0.21712c-0.01434,-0.11417 0.0507,-0.22001 0.15207,-0.26207l0.24614,-0.10886l0.05125,0.1159l0.00115,0.00016c0.14241,-0.04815 0.28984,-0.0646 0.42703,-0.0259l0.23244,0.22888c0,0 0.17376,0.17975 -0.00599,0.3535z" fill-opacity="0.12941" fill="#b0b0b0" stroke="none" stroke-width="0.5"/><path d="M273.17651,181.71978c-0.14769,-0.20171 0.05401,-0.3494 0.05401,-0.3494l0.13206,-0.04574c-0.03067,-0.07367 -0.03481,-0.18964 -0.02018,-0.30753c-0.08283,-0.02754 -0.13371,-0.09704 -0.13371,-0.09704c-0.74855,-1.21542 1.15614,-0.95231 1.12726,-0.26423c-0.01375,0.32743 -0.54669,0.51854 -0.5049,0.84358l-0.30514,0.27439c0,0 -0.20171,0.14769 -0.3494,-0.05401z" fill-opacity="0.12941" fill="#b0b0b0" stroke="none" stroke-width="0.5"/><path d="M271.84878,178.52035c0.01767,-0.14657 0.11147,-0.19615 0.18532,-0.21218c-0.32758,-0.21069 -0.66766,-0.55098 -0.29167,-0.8528c0.14874,-0.11939 0.61969,0.2081 0.83531,0.57572c0.05432,0.02327 0.20779,0.10815 0.14621,0.30602c-0.0102,0.03277 -0.0235,0.05965 -0.03885,0.08163c-0.01933,0.1769 -0.15954,0.32646 -0.49849,0.39388l-0.11956,-0.01414c0,0 -0.24819,-0.02994 -0.21825,-0.27813z" fill-opacity="0.12941" fill="#b0b0b0" stroke="none" stroke-width="0.5"/><path d="M270.28267,177.16054c-0.17973,-0.031 -0.15035,-0.21191 -0.15035,-0.21191c0.01571,-0.09179 0.03449,-0.19522 0.09101,-0.26809l-0.0885,-0.06285c-0.07446,-0.05092 -0.10241,-0.15002 -0.0618,-0.23358c0.04468,-0.09195 0.15544,-0.13026 0.24739,-0.08558l0.10109,0.04913c0.20453,-0.01143 0.42656,-0.00269 0.52223,0.11653c0.35928,0.44773 -0.24929,0.44522 -0.02915,0.83867l-0.00345,0.03039l0.00983,-0.00135l0.02815,0.20631c0.00542,0.03575 0.00043,0.07347 -0.01656,0.10845c-0.04468,0.09195 -0.15544,0.13025 -0.24739,0.08557c-0.00635,-0.00308 -0.01245,-0.00649 -0.01828,-0.01018l-0.16462,-0.10138l0.04123,-0.06694c-0.09604,-0.07207 -0.1774,-0.16076 -0.22832,-0.26444z" fill-opacity="0.12941" fill="#b0b0b0" stroke="none" stroke-width="0.5"/><path d="M269.60758,181.69838c-0.0657,0.17491 -0.26631,0.14637 -0.26631,0.14637c-0.63441,-0.23454 -0.46789,-1.37029 0.29483,-1.34166c0.79098,0.0297 0.66575,0.93211 0.09041,1.16464z" fill-opacity="0.12941" fill="#b0b0b0" stroke="none" stroke-width="0.5"/><path d="M270.24944,183.56467c-0.03972,0.01603 -0.07725,0.03027 -0.11285,0.04278l0.00668,0.19466c0.00588,0.12894 -0.08833,0.24281 -0.21862,0.25917c-0.12333,0.01549 -0.23696,-0.06168 -0.27094,-0.17718l-0.01859,-0.05906c-0.00839,-0.00391 -0.01693,-0.0083 -0.0256,-0.01326c-0.10846,-0.0619 -0.13183,-0.14704 -0.12805,-0.21678l-0.2756,-0.10831c-0.08463,-0.03137 -0.14932,-0.10763 -0.16135,-0.20338c-0.0172,-0.137 0.07991,-0.262 0.2169,-0.2792c0.01551,-0.00195 0.03084,-0.00242 0.04591,-0.00155l0.31518,0.01269l-0.00072,0.01793l0.04307,-0.01257c0.06957,0.0421 0.13259,0.10511 0.18322,0.17916c0.02765,-0.00626 0.05446,-0.0141 0.07949,-0.0252l-0.04134,-0.06719l0.26624,-0.16381c0.03056,-0.01974 0.06591,-0.0331 0.10443,-0.03793c0.137,-0.0172 0.262,0.0799 0.2792,0.2169c0.00941,0.07494 -0.01538,0.1463 -0.06221,0.19837l-0.18499,0.20795l-0.01845,-0.0164z" fill-opacity="0.03137" fill="#ffffff" stroke="none" stroke-width="0.5"/><g stroke="none" stroke-width="0.5"><path d="M268.85783,184.52506c-0.17928,-0.17423 -0.00505,-0.35352 -0.00505,-0.35352l0.11984,-0.12328c0.05717,-0.05704 0.11438,-0.1061 0.17112,-0.14796c-0.07849,-0.01 -0.15658,-0.03649 -0.22822,-0.08044c-0.07124,-0.00476 -0.14653,-0.00684 -0.226,-0.00407l-0.01179,-0.00626l-0.00042,0.00567l-0.26304,-0.0191c-0.11856,-0.00626 -0.21925,-0.09661 -0.23456,-0.21854c-0.0172,-0.137 0.0799,-0.262 0.2169,-0.27921c0.00682,-0.00086 0.01358,-0.00142 0.02032,-0.00172l0.36626,-0.01965l0.00196,0.03655c0.18367,-0.00839 0.32292,-0.03501 0.43636,-0.03936c-0.01364,-0.02635 -0.03145,-0.05767 -0.05356,-0.09481l-0.22251,-0.23709c-0.03601,-0.03746 -0.06068,-0.08643 -0.06766,-0.14195c-0.0172,-0.137 0.0799,-0.262 0.2169,-0.2792c0.08051,-0.01011 0.15686,0.01925 0.20965,0.07299l0.21046,0.21022l-0.00675,0.00675l0.00678,0.00722l0.01945,0.0079c0.03098,0.04994 0.05779,0.09835 0.08072,0.14522c0.00144,0.00046 0.00289,0.00093 0.00433,0.00142c0.0047,-0.17623 0.03533,-0.38814 0.04442,-0.51477l0.00453,-0.00806l-0.00347,-0.00049l0.0415,-0.29169c0.01329,-0.11135 0.10084,-0.20362 0.21712,-0.21822c0.137,-0.0172 0.262,0.0799 0.2792,0.2169l0.0328,0.26111l-0.06216,0.0078l-0.00047,0.0033c0.04633,0.19496 0.01807,0.34501 0.03102,0.65016c0.0342,0.02257 0.06277,0.05345 0.08255,0.09015c0.16042,-0.15102 0.38982,-0.26031 0.58824,-0.2951c0.0892,-0.06093 0.1735,-0.11478 0.24249,-0.14531l0.24596,-0.10877c0.02319,-0.01091 0.04847,-0.01839 0.07527,-0.02176c0.137,-0.0172 0.262,0.0799 0.2792,0.2169c0.01337,0.10647 -0.04231,0.20571 -0.1321,0.25271l-0.2429,0.13441l-0.01177,-0.02128l-0.01144,0.00507c-0.10807,0.04777 -0.21231,0.08235 -0.31221,0.10564c-0.24833,0.12557 -0.4519,0.18003 -0.4938,0.23901c0.14069,0.06259 0.28866,0.1506 0.43235,0.25018c0.0407,0.01484 0.08457,0.03057 0.13178,0.04731l0.00445,-0.01041l0.33191,0.14156c0.08117,0.03291 0.14265,0.10759 0.15434,0.20067c0.0172,0.137 -0.0799,0.262 -0.2169,0.2792c-0.04534,0.0057 -0.08935,-0.00112 -0.12859,-0.01777l-0.24344,-0.09785c-0.05887,-0.02086 -0.11434,-0.04202 -0.16654,-0.06345c-0.26623,0.07666 -0.42708,-0.14056 -0.51052,-0.29304c-0.02447,-0.02123 -0.04665,-0.04253 -0.06665,-0.06384c0.00642,0.0521 0.01786,0.13575 0.03356,0.26075l0.03279,0.2611c0.0172,0.137 -0.0799,0.262 -0.2169,0.2792c-0.11417,0.01433 -0.22,-0.05071 -0.26206,-0.15207l-0.05773,-0.13055c-0.16217,-0.09046 -0.32974,-0.12947 -0.43876,-0.01998l-0.11503,0.11839c0,0 -0.17423,0.17928 -0.35352,0.00504z" fill-opacity="0.09412" fill="#f5f5f5"/><path d="M269.40722,183.82351c-0.13216,-0.04666 -0.26272,-0.09803 -0.39117,-0.15396l-0.00401,0.00727l-0.31066,-0.17127c-0.06899,-0.03699 -0.11964,-0.10573 -0.13013,-0.18932c-0.0172,-0.137 0.0799,-0.262 0.2169,-0.2792c0.05401,-0.00679 0.10617,0.0042 0.15058,0.0284l0.27555,0.14549c0.00989,0.00436 0.01979,0.0087 0.02972,0.013c0.04496,-0.05047 0.0742,-0.10532 0.06452,-0.16683l-0.05683,-0.24875c-0.00218,-0.00906 -0.00389,-0.01834 -0.00509,-0.02781c-0.0172,-0.137 0.0799,-0.262 0.2169,-0.2792c0.10237,-0.01286 0.19804,0.03814 0.24704,0.12188l0.02502,0.04064c0.09822,0.01311 0.19077,-0.00331 0.24875,-0.06934l0.01738,-0.00637l-0.00467,-0.0054l0.21274,-0.18394c0.03647,-0.03248 0.08283,-0.05463 0.13495,-0.06117c0.137,-0.0172 0.262,0.07991 0.2792,0.2169c0.00712,0.05675 -0.00535,0.11142 -0.03216,0.15725l-0.1944,0.34065l-0.05647,-0.03223c-0.00838,0.04889 0.00176,0.08021 0.04255,0.09936c0.02353,0.00381 0.04686,0.00986 0.06971,0.01825c0.05343,0.00754 0.12832,0.00913 0.23022,0.00729l0,-0.00005l0.26162,-0.00662c0.12811,-0.0048 0.24085,0.0891 0.25712,0.2187c0.0172,0.137 -0.0799,0.262 -0.2169,0.2792l-0.33945,0.04263l-0.00292,-0.02323c-0.03846,0.04241 -0.04533,0.08652 0.00099,0.13187l0.00671,0.0491l0.01674,-0.0074l0.10877,0.24595c0.0109,0.02319 0.0184,0.04847 0.02176,0.07528c0.0172,0.137 -0.0799,0.262 -0.2169,0.27921c-0.05212,0.00654 -0.1025,-0.00346 -0.14587,-0.02591l-0.25162,-0.12562l0.0333,-0.0667c-0.17064,-0.05819 -0.31623,-0.10776 -0.34035,-0.09658l-0.09154,0.22774c-0.0318,0.08371 -0.10765,0.14751 -0.20268,0.15945c-0.137,0.0172 -0.262,-0.0799 -0.2792,-0.2169l-0.03279,-0.2611l0.10935,-0.01373l0.01779,-0.04426c0.00079,-0.04749 0.00413,-0.09517 0.00991,-0.14262z" fill-opacity="0.07059" fill="#ffffff"/><path d="M269.97198,184.22807c-0.17392,-0.03468 -0.19986,-0.16814 -0.20025,-0.24279c-0.27837,0.07644 -0.45515,-0.22808 -0.11295,-0.66845c-0.00021,-0.0015 -0.00042,-0.00298 -0.00061,-0.00448c-0.0172,-0.137 0.0799,-0.262 0.2169,-0.27921c0.09503,-0.01193 0.18429,0.03114 0.2358,0.10439l0.15444,0.21091c0.02583,0.03391 0.04332,0.07487 0.04902,0.1202c0.01085,0.08644 -0.0238,0.1681 -0.08526,0.22093c0.02945,0.0585 0.04873,0.12287 0.05611,0.18058l-0.01914,0.16165c0,0 -0.04889,0.24517 -0.29406,0.19628z" fill-opacity="0.16863" fill="#ffffff"/></g></g></g></svg>