<svg version="1.1" xmlns="http://www.w3.org/2000/svg" xmlns:xlink="http://www.w3.org/1999/xlink" width="51.4872" height="120.99689" viewBox="0,0,51.4872,120.99689"><defs><linearGradient x1="240.5031" y1="147.79764" x2="240.5031" y2="155.67084" gradientUnits="userSpaceOnUse" id="color-1"><stop offset="0" stop-color="#505050"/><stop offset="1" stop-color="#767676"/></linearGradient><radialGradient cx="235.45424" cy="124.47796" r="13.11833" gradientUnits="userSpaceOnUse" id="color-2"><stop offset="0" stop-color="#ccbe7a"/><stop offset="1" stop-color="#948f62"/></radialGradient><linearGradient x1="251.47542" y1="115.25813" x2="251.47542" y2="124.50059" gradientUnits="userSpaceOnUse" id="color-3"><stop offset="0" stop-color="#464646"/><stop offset="1" stop-color="#343434"/></linearGradient><linearGradient x1="251.47543" y1="115.25813" x2="251.47543" y2="124.50059" gradientUnits="userSpaceOnUse" id="color-4"><stop offset="0" stop-color="#131313"/><stop offset="1" stop-color="#202020"/></linearGradient><linearGradient x1="239.89382" y1="116.28508" x2="239.89382" y2="151.31515" gradientUnits="userSpaceOnUse" id="color-5"><stop offset="0" stop-color="#ffe8b5" stop-opacity="0.32941"/><stop offset="1" stop-color="#c2a53e" stop-opacity="0.63529"/></linearGradient><linearGradient x1="239.89382" y1="116.28508" x2="239.89382" y2="151.31515" gradientUnits="userSpaceOnUse" id="color-6"><stop offset="0" stop-color="#444444"/><stop offset="1" stop-color="#545454"/></linearGradient><linearGradient x1="228.57688" y1="113.8296" x2="228.57688" y2="125.73514" gradientUnits="userSpaceOnUse" id="color-7"><stop offset="0" stop-color="#464646"/><stop offset="1" stop-color="#343434"/></linearGradient><linearGradient x1="228.57688" y1="113.8296" x2="228.57688" y2="125.73514" gradientUnits="userSpaceOnUse" id="color-8"><stop offset="0" stop-color="#131313"/><stop offset="1" stop-color="#202020"/></linearGradient></defs><g transform="translate(-213.92176,-113.32959)"><g data-paper-data="{&quot;isPaintingLayer&quot;:true}" fill-rule="nonzero" stroke-linejoin="miter" stroke-miterlimit="10" stroke-dasharray="" stroke-dashoffset="0" style="mix-blend-mode: normal"><path d="M226.26473,195.96657v-45.53587h25.57697l0.29568,45.53587z" fill="#747474" stroke="none" stroke-width="NaN" stroke-linecap="butt"/><g><path d="M226.1234,227.23582l3.75904,-33.71008c0,0 6.75518,-2.18267 9.822,-2.18267c3.62872,0 0.6063,4.24407 0.6063,4.24407c0,0 -3.09204,0.08829 -3.39803,1.52409c-0.93579,4.39099 -2.78619,30.12458 -2.78619,30.12458z" fill="#ffefeb" stroke="#000000" stroke-width="0" stroke-linecap="butt"/><path d="M241.47427,232.29257c0,0 -0.3857,1.94015 -1.2126,1.94015c-0.59276,0 -2.64411,0.01366 -4.70436,-0.06689c-1.25258,-0.04897 -1.90215,-0.61779 -2.83553,-0.76063c-1.17507,-0.17983 -2.93853,0.22047 -3.78777,0.02896c-1.56485,-0.35288 -2.37463,-0.77781 -2.37463,-0.77781c0,0 -0.26912,-1.02539 -0.2856,-1.5858c-0.02221,-0.755 0.16433,-2.53701 0.16433,-2.53701c0,0 5.93424,-0.11957 8.24914,0.08075c1.36979,0.11854 4.24057,0.6468 4.24057,0.6468c0,0 1.45975,0.6156 1.67337,1.04283c0.26162,0.52325 0.87307,1.98866 0.87307,1.98866z" data-paper-data="{&quot;index&quot;:null}" fill="#141415" stroke="#000000" stroke-width="0" stroke-linecap="butt"/><path d="M241.20337,231.65792c0,0 -0.38569,0 -1.21259,0c-0.24822,0 0.70239,1.60165 -2.61811,1.33311c-3.13563,-0.25359 -2.77648,-1.18823 -3.8809,-1.26883c-2.30937,-0.16854 -2.58766,0.59503 -3.58733,0.44204c-0.34815,-0.05328 -0.51271,-0.11454 -1.78458,-0.97035c-0.87471,-0.58857 -0.66566,-1.75122 -1.26542,-2.3793c-0.87609,-0.91746 -0.80847,-1.8858 -0.80847,-1.8858l-0.07637,-3.04773c0,0 0.48635,2.20682 1.32529,3.03123c0.75062,0.73761 2.3169,-0.01875 2.80058,-0.01889c0.84695,-0.00024 -0.68885,-3.26805 0.12091,-3.24981c0.43542,0.00981 3.72275,-0.23408 3.72275,-0.23408c0,0 0.12302,3.57988 0.35598,3.60004c1.36978,0.11854 4.60434,0.6468 4.60434,0.6468c0,0 1.45975,0.6156 1.67337,1.04283c0.26163,0.52325 0.63055,2.95873 0.63055,2.95873z" data-paper-data="{&quot;index&quot;:null}" fill="#252527" stroke="#000000" stroke-width="0" stroke-linecap="butt"/><path d="M232.52068,228.71932l2.66771,-1.09134" data-paper-data="{&quot;index&quot;:null}" fill="none" stroke="#ffffff" stroke-width="0.5" stroke-linecap="round"/><path d="M234.46083,229.08311l2.54644,-1.45511" data-paper-data="{&quot;index&quot;:null}" fill="none" stroke="#ffffff" stroke-width="0.5" stroke-linecap="round"/><path d="M238.09861,227.8705l-1.45512,1.45512" data-paper-data="{&quot;index&quot;:null}" fill="none" stroke="#ffffff" stroke-width="0.5" stroke-linecap="round"/><path d="M233.49075,224.5965l-2.18267,0.24252" data-paper-data="{&quot;index&quot;:null}" fill="none" stroke="#969696" stroke-width="0.5" stroke-linecap="round"/><path d="M233.73327,225.32407l-1.94015,0.36378" data-paper-data="{&quot;index&quot;:null}" fill="none" stroke="#969696" stroke-width="0.5" stroke-linecap="round"/></g><path d="M265.02221,201.24859c-0.50416,0.05194 -1.12553,-3.7858 -2.50192,-4.08201c-0.47254,-0.1017 0.02919,5.14797 -0.88814,4.99578c-0.54454,-0.09034 -0.76566,-3.00189 -1.29007,-4.34772c-0.25549,-0.65566 -1.26247,-5.39857 -1.26247,-5.39857c0,0 0.24419,-3.03659 -0.77449,-6.39584c-0.24497,-0.80781 -0.84426,-3.49724 -1.10476,-4.32451c-0.61655,-1.95792 -1.30384,-3.87691 -1.64981,-5.08684c-0.74415,-2.60235 -3.49486,-15.26037 -3.49486,-15.26037c0,0 -2.82865,-6.53795 -0.68452,-6.88374c6.61295,-1.06649 5.78418,4.60174 5.78418,4.60174c0,0 1.04096,6.49622 2.69685,13.27935c1.24564,5.1026 3.10005,10.41943 3.66898,12.96668c0.67332,3.01469 1.05756,6.99064 1.05756,6.99064c0,0 0.44627,2.75364 0.68218,5.08909c0.21227,2.10142 0.24676,3.80631 -0.23872,3.85634z" data-paper-data="{&quot;index&quot;:null}" fill="#8c8c8c" stroke="#000000" stroke-width="0" stroke-linecap="butt"/><path d="M257.31427,207.8284c-0.50419,-0.0515 -0.61845,-3.8203 -1.04804,-4.67174c-0.22996,-0.4558 -1.0806,4.86826 -1.95335,4.53241c-0.51809,-0.19936 -0.2081,-3.10179 -0.47918,-4.52924c-0.13207,-0.69543 -0.2619,-5.55496 -0.2619,-5.55496c0,0 0.78928,-2.93056 0.39754,-6.43451c-0.09421,-0.84261 -0.19558,-3.60392 -0.30152,-4.46879c-0.25071,-2.0469 -0.57791,-4.06996 -0.69846,-5.32775c-0.25932,-2.70529 -0.66786,-15.68744 -0.66786,-15.68744c0,0 -3.63115,-9.52282 0.97373,-9.69103c4.05331,-0.14806 4.44428,8.48807 4.44428,8.48807c0,0 -0.15417,6.58719 0.24323,13.58098c0.29895,5.26107 1.15659,10.85614 1.25389,13.47173c0.11517,3.09558 -0.22737,7.07582 -0.22737,7.07582c0,0 -0.06043,2.79323 -0.25159,5.13326c-0.17202,2.10555 -0.93788,4.13278 -1.4234,4.08319z" data-paper-data="{&quot;index&quot;:null}" fill="#969696" stroke="#000000" stroke-width="0" stroke-linecap="butt"/><g><path d="M239.70443,191.34308c3.62872,0 10.54956,2.18267 10.54956,2.18267l3.03149,33.71008h-7.63934c0,0 -1.32697,-25.53818 -2.03751,-29.57011c-0.20138,-1.1427 -3.2979,-2.07857 -3.2979,-2.07857c0,0 -3.67312,-4.24407 -0.6063,-4.24407z" fill="#ffefeb" stroke="#000000" stroke-width="0" stroke-linecap="butt"/><path d="M259.69261,234.32562c-0.59276,0 -2.64411,0.01365 -4.70436,-0.0669c-1.25258,-0.04897 -1.90215,-0.61779 -2.83553,-0.76063c-1.17507,-0.17982 -2.93854,0.22047 -3.78778,0.02896c-1.56485,-0.35288 -2.37463,-0.77782 -2.37463,-0.77782c0,0 -0.26911,-1.0254 -0.2856,-1.5858c-0.02221,-0.75501 0.16433,-2.53701 0.16433,-2.53701c0,0 5.93425,-0.11957 8.24914,0.08076c1.36979,0.11854 4.24057,0.6468 4.24057,0.6468c0,0 1.45976,0.6156 1.67337,1.04283c0.26162,0.52325 0.87307,1.98865 0.87307,1.98865c0,0 -0.3857,1.94015 -1.21259,1.94015z" data-paper-data="{&quot;index&quot;:null}" fill="#141415" stroke="#000000" stroke-width="0" stroke-linecap="butt"/><path d="M259.4217,231.75082c-0.24822,0 0.7024,1.60165 -2.61811,1.33311c-3.13563,-0.25358 -2.77648,-1.18823 -3.8809,-1.26883c-2.30937,-0.16854 -2.58765,0.59503 -3.58732,0.44205c-0.34815,-0.05328 -0.51271,-0.11454 -1.78459,-0.97035c-0.87472,-0.58857 -0.66566,-1.75122 -1.26542,-2.3793c-0.87609,-0.91745 -0.80847,-1.8858 -0.80847,-1.8858l-0.07637,-3.04773c0,0 0.48635,2.20681 1.32529,3.03122c0.75062,0.73761 2.3169,-0.01875 2.80058,-0.01889c0.84696,-0.00024 -0.68885,-3.26804 0.12091,-3.2498c0.43542,0.00981 3.72275,-0.23409 3.72275,-0.23409c0,0 0.12302,3.57989 0.35598,3.60005c1.36979,0.11854 4.60434,0.6468 4.60434,0.6468c0,0 1.45976,0.6156 1.67338,1.04283c0.26162,0.52325 0.63055,2.95873 0.63055,2.95873c0,0 -0.3857,0 -1.2126,0z" data-paper-data="{&quot;index&quot;:null}" fill="#252527" stroke="#000000" stroke-width="0" stroke-linecap="butt"/><path d="M251.95162,228.8122l2.6677,-1.09133" fill="none" stroke="#ffffff" stroke-width="0.5" stroke-linecap="round"/><path d="M253.89177,229.17598l2.54645,-1.45511" fill="none" stroke="#ffffff" stroke-width="0.5" stroke-linecap="round"/><path d="M257.52956,227.96342l-1.45512,1.45511" fill="none" stroke="#ffffff" stroke-width="0.5" stroke-linecap="round"/><path d="M250.73903,224.93191l2.18266,-0.24252" fill="none" stroke="#969696" stroke-width="0.5" stroke-linecap="round"/><path d="M251.22407,225.78074l1.94015,-0.36378" fill="none" stroke="#969696" stroke-width="0.5" stroke-linecap="round"/></g><g><path d="M229.63981,193.59153c0,0 1.05415,-4.96832 0.53438,-10.35244c-0.16183,-1.6764 -0.21302,-5.68895 -0.71668,-7.54193c-0.59549,-2.19087 -2.53406,-2.77781 -2.61907,-4.12911c-0.1679,-2.66921 -1.07001,-6.79369 -0.41646,-11.37123c0.49266,-3.45066 3.45852,-6.29847 3.45852,-6.29847c0,0 3.98746,-0.28908 5.76508,0.07712c2.26281,0.46615 7.72658,0.47022 9.64,0.05396c2.01891,-0.43921 5.48447,0.01677 5.48447,0.01677c0,0 2.62113,3.52189 2.84787,7.84095c0.214,4.0764 -0.63262,8.46783 -0.70926,10.13771c-0.07768,1.69256 -1.49509,2.1313 -2.13228,4.27482c-0.50833,1.71005 -0.54704,5.19044 -0.67745,7.18949c-0.3029,4.64296 0.14784,10.27371 0.14784,10.27371c0,0 -2.75697,-0.76932 -5.57187,-0.83754c-1.27833,-0.03098 -1.79126,1.00612 -2.99851,1.16532c-0.96496,0.12724 -2.63623,-0.61291 -3.56107,-0.64966c-0.69915,-0.02778 -2.04377,-0.5306 -2.53801,-0.53471c-0.99795,-0.0083 -1.61572,0.86529 -2.77345,1.02464c-1.34484,0.1851 -3.1641,-0.33939 -3.1641,-0.33939z" fill="#9d9d9d" stroke="#292e32" stroke-width="0" stroke-linecap="butt"/><path d="M236.33968,160.00009l-2.23101,9.03889" fill="#ff0000" stroke="#ff0000" stroke-width="1" stroke-linecap="round"/><path d="M231.89035,159.47482l-3.98374,8.1094" fill="#ff0000" stroke="#ff0000" stroke-width="1" stroke-linecap="round"/><path d="M230.87411,168.5168l3.1604,-8.83095" fill="#ff0000" stroke="#ff0000" stroke-width="1" stroke-linecap="round"/><path d="M248.03362,169.1229l-1.60782,-9.03889" data-paper-data="{&quot;index&quot;:null}" fill="#ff0000" stroke="#ff0000" stroke-width="1" stroke-linecap="round"/><path d="M249.63229,159.55874l2.87096,8.1094" data-paper-data="{&quot;index&quot;:null}" fill="#ff0000" stroke="#ff0000" stroke-width="1" stroke-linecap="round"/><path d="M248.08706,159.76978l2.2776,8.83096" data-paper-data="{&quot;index&quot;:null}" fill="#ff0000" stroke="#ff0000" stroke-width="1" stroke-linecap="round"/><path d="M231.85508,190.20252c0.00046,-0.41422 0.33663,-0.74962 0.75084,-0.74916c0.41422,0.00046 0.74962,0.33663 0.74916,0.75084c-0.00046,0.41422 -0.33662,0.74962 -0.75084,0.74916c-0.41422,-0.00046 -0.74962,-0.33663 -0.74916,-0.75084z" fill="#002dff" stroke="none" stroke-width="0.5" stroke-linecap="butt"/><path d="M235.54213,190.20669c0.00046,-0.41422 0.33663,-0.74962 0.75084,-0.74916c0.41422,0.00046 0.74962,0.33663 0.74916,0.75084c-0.00046,0.41422 -0.33662,0.74962 -0.75084,0.74916c-0.41422,-0.00046 -0.74962,-0.33663 -0.74916,-0.75084z" fill="#002dff" stroke="none" stroke-width="0.5" stroke-linecap="butt"/><path d="M239.3316,190.21092c0.00046,-0.41422 0.33662,-0.74962 0.75084,-0.74916c0.41422,0.00046 0.74962,0.33663 0.74916,0.75084c-0.00046,0.41422 -0.33663,0.74962 -0.75084,0.74916c-0.41422,-0.00046 -0.74962,-0.33663 -0.74916,-0.75084z" fill="#002dff" stroke="none" stroke-width="0.5" stroke-linecap="butt"/><path d="M243.22348,190.21531c0.00046,-0.41422 0.33663,-0.74963 0.75084,-0.74916c0.41422,0.00046 0.74962,0.33663 0.74916,0.75084c-0.00046,0.41422 -0.33663,0.74962 -0.75084,0.74916c-0.41422,-0.00046 -0.74962,-0.33662 -0.74916,-0.75084z" fill="#002dff" stroke="none" stroke-width="0.5" stroke-linecap="butt"/><path d="M246.91053,190.21948c0.00046,-0.41422 0.33663,-0.74963 0.75084,-0.74916c0.41422,0.00046 0.74962,0.33663 0.74916,0.75085c-0.00046,0.41422 -0.33663,0.74962 -0.75084,0.74915c-0.41422,-0.00046 -0.74962,-0.33662 -0.74916,-0.75084z" fill="#002dff" stroke="none" stroke-width="0.5" stroke-linecap="butt"/><path d="M239.01545,177.6144c0,-1.38071 1.11929,-2.5 2.5,-2.5c1.38071,0 2.5,1.11929 2.5,2.5c0,1.38071 -1.11929,2.5 -2.5,2.5c-1.38071,0 -2.5,-1.11929 -2.5,-2.5z" fill="#797979" stroke="#00ff35" stroke-width="1" stroke-linecap="butt"/><path d="M231.78573,177.30718h5.73541" fill="none" stroke="#00ff35" stroke-width="1" stroke-linecap="round"/><path d="M245.40734,177.40959h3.58464" fill="none" stroke="#00ff35" stroke-width="1" stroke-linecap="round"/></g><path d="M214.00039,197.42242c0.1648,-2.34301 0.53714,-5.11204 0.53714,-5.11204c0,0 0.26211,-3.98815 0.8654,-7.02683c0.50976,-2.56752 2.28006,-7.95239 3.41344,-13.09969c1.50664,-6.84256 2.37249,-13.37464 2.37249,-13.37464c0,0 0.81129,-5.7283 5.97469,-4.71849c4.69666,0.91852 0.02452,7.05976 0.02452,7.05976c0,0 -2.96737,12.49821 -3.6607,15.12754c-0.32235,1.22248 -0.98033,3.16672 -1.56199,5.14714c-0.24576,0.83677 -0.78249,3.54755 -1.01251,4.36428c-0.9565,3.39633 -0.58729,6.42149 -0.58729,6.42149c0,0 -0.89371,4.77863 -1.14041,5.44372c-0.50636,1.36518 -0.63449,4.28334 -1.20792,4.39463c-0.96598,0.1875 -0.80918,-6.11344 -1.12098,-5.70122c-0.58247,0.77003 -1.96678,4.95136 -2.50261,4.9189c-0.51598,-0.03126 -0.54155,-1.73633 -0.39327,-3.84455z" data-paper-data="{&quot;index&quot;:null}" fill="#a1a1a1" stroke="#000000" stroke-width="0" stroke-linecap="butt"/><path d="M220.75646,203.27073c-0.26386,-2.33392 -0.40107,-5.12451 -0.40107,-5.12451c0,0 -0.46721,-3.96936 -0.42633,-7.06707c0.03455,-2.61741 0.79651,-8.23437 0.97534,-13.50194c0.23772,-7.00242 -0.09825,-13.58308 -0.09825,-13.58308c0,0 0.19774,-9.16359 6.51788,-7.91179c3.43535,0.68042 -0.74648,8.96386 -0.74648,8.96386c0,0 -0.09259,12.98905 -0.29641,15.7006c-0.09476,1.26071 -0.38836,3.29216 -0.60034,5.34532c-0.08955,0.8675 -0.12459,3.6307 -0.20231,4.47563c-0.32319,3.51361 0.58979,6.42126 0.58979,6.42126c0,0 -0.87992,9.85088 -1.34658,10.05905c-1.35933,0.60634 -1.00914,-5.73085 -1.35734,-5.25673c-0.6578,0.89569 -0.98953,5.12293 -1.52233,5.18841c-0.51307,0.06305 -0.84816,-1.60896 -1.08558,-3.70901z" data-paper-data="{&quot;index&quot;:null}" fill="#adadad" stroke="#000000" stroke-width="0" stroke-linecap="butt"/><g><path d="M230.86127,155.67084v-7.87321c0,0 6.36471,3.42314 9.45991,3.42314c3.31728,0 9.82375,-3.42314 9.82375,-3.42314v7.87321c0,0 -6.37741,0.68463 -9.58119,0.68463c-3.22398,0 -9.70247,-0.68463 -9.70247,-0.68463z" fill="url(#color-1)" stroke="none" stroke-width="0" stroke-linecap="butt"/><path d="M251.22503,117.79766c0,0 -0.26338,3.24445 -0.58861,4.57283c-0.26638,1.08795 -1.2217,2.82111 -1.2217,2.82111" data-paper-data="{&quot;index&quot;:null}" fill="none" stroke="#3b2c16" stroke-width="1.25" stroke-linecap="round"/><path d="M252.62928,121.93592c0,0 -0.18908,2.27851 -0.58872,3.23539c-0.42269,1.01206 -1.88216,2.68074 -1.88216,2.68074" data-paper-data="{&quot;index&quot;:null}" fill="none" stroke="#3b2c16" stroke-width="1.25" stroke-linecap="round"/><path d="M248.97181,116.03363c0,0 0.11659,3.27103 -0.03039,4.69304c-0.12038,1.16464 -0.78772,3.22209 -0.78772,3.22209" data-paper-data="{&quot;index&quot;:null}" fill="none" stroke="#3b2c16" stroke-width="1.25" stroke-linecap="round"/><path d="M252.55186,134.25849c0,7.39154 -8.18556,17.31455 -11.39879,17.3764c-6.69145,0.1288 -14.23242,-9.98486 -14.23242,-17.3764c0,-7.39154 5.73774,-13.38356 12.8156,-13.38356c7.07786,0 12.8156,5.99202 12.8156,13.38356z" fill="url(#color-2)" stroke="none" stroke-width="0" stroke-linecap="butt"/><path d="M241.64847,135.34167c0,2.06292 -0.85162,3.73524 -1.90215,3.73524c-1.05053,0 -1.90214,-1.67233 -1.90214,-3.73524c0,-2.06292 0.85162,-3.73523 1.90214,-3.73523c1.05053,0 1.90215,1.67232 1.90215,3.73523z" fill="none" stroke="#191412" stroke-width="1.5" stroke-linecap="butt"/><path d="M246.38251,129.77998c0,2.06292 -0.85162,3.73524 -1.90214,3.73524c-1.05053,0 -1.90215,-1.67233 -1.90215,-3.73524c0,-2.06292 0.85162,-3.73524 1.90215,-3.73524c1.05053,0 1.90214,1.67232 1.90214,3.73524z" fill="none" stroke="#191412" stroke-width="1.5" stroke-linecap="butt"/><path d="M251.07876,135.2952c0,2.06292 -0.85161,3.73524 -1.90214,3.73524c-1.05053,0 -1.90215,-1.67233 -1.90215,-3.73524c0,-2.06292 0.85162,-3.73523 1.90215,-3.73523c1.05053,0 1.90214,1.67232 1.90214,3.73523z" fill="none" stroke="#191412" stroke-width="1.5" stroke-linecap="butt"/><path d="M246.32529,140.42397c0,2.06292 -0.85162,3.73524 -1.90214,3.73524c-1.05053,0 -1.90215,-1.67233 -1.90215,-3.73524c0,-2.06292 0.85162,-3.73523 1.90215,-3.73523c1.05053,0 1.90214,1.67232 1.90214,3.73523z" fill="none" stroke="#191412" stroke-width="1.5" stroke-linecap="butt"/><path d="M232.27207,125.51301c0,0 -1.55639,-1.73224 -1.99089,-2.81993c-0.53052,-1.32806 -0.96207,-4.57226 -0.96207,-4.57226" fill="none" stroke="#47341a" stroke-width="1.5" stroke-linecap="round"/><path d="M231.06404,128.17423c0,0 -2.37686,-1.66727 -3.06571,-2.67893c-0.6513,-0.9565 -0.96105,-3.23482 -0.96105,-3.23482" fill="none" stroke="#47341a" stroke-width="1.5" stroke-linecap="round"/><path d="M234.32335,124.26897c0,0 -1.08798,-2.05681 -1.28494,-3.22133c-0.24048,-1.42187 -0.05363,-4.693 -0.05363,-4.693" fill="none" stroke="#47341a" stroke-width="1.5" stroke-linecap="round"/><path d="M248.22345,118.68126l-0.1141,-3.42313h6.73217v9.24246c0,0 -2.61174,-3.02641 -3.82969,-4.09736c-0.86469,-0.76032 -2.78838,-1.72198 -2.78838,-1.72198z" fill="url(#color-3)" stroke="url(#color-4)" stroke-width="1" stroke-linecap="butt"/><path d="M239.89381,151.31515c-9.01159,0 -16.31694,-7.84175 -16.31694,-17.51504c0,-9.67328 7.30535,-17.51503 16.31694,-17.51503c9.0116,0 16.31695,7.84174 16.31695,17.51503c0,9.67329 -7.30535,17.51504 -16.31695,17.51504z" fill="url(#color-5)" stroke="url(#color-6)" stroke-width="2.5" stroke-linecap="butt"/><path d="M229.17406,120.45719c-1.56888,1.37953 -4.93315,5.27795 -4.93315,5.27795v-11.90555h8.67195l-0.14699,4.40945c0,0 -2.47798,1.23874 -3.59181,2.21814z" data-paper-data="{&quot;index&quot;:null}" fill="url(#color-7)" stroke="url(#color-8)" stroke-width="1" stroke-linecap="butt"/></g></g></g></svg>