<svg version="1.1" xmlns="http://www.w3.org/2000/svg" xmlns:xlink="http://www.w3.org/1999/xlink" width="141.2279" height="134.98" viewBox="0,0,141.2279,134.98"><defs><linearGradient x1="240.25751" y1="48.58079" x2="240.25751" y2="179.45453" gradientUnits="userSpaceOnUse" id="color-1"><stop offset="0" stop-color="#000000" stop-opacity="0"/><stop offset="1" stop-color="#000000" stop-opacity="0"/></linearGradient><linearGradient x1="240.00007" y1="175.79954" x2="240.00007" y2="179.89954" gradientUnits="userSpaceOnUse" id="color-2"><stop offset="0" stop-color="#48423e"/><stop offset="1" stop-color="#272727"/></linearGradient><radialGradient cx="240.00007" cy="177.84954" r="27.4" gradientUnits="userSpaceOnUse" id="color-3"><stop offset="0" stop-color="#272727"/><stop offset="1" stop-color="#272727" stop-opacity="0"/></radialGradient><linearGradient x1="230.86227" y1="168.51669" x2="249.13788" y2="168.51669" gradientUnits="userSpaceOnUse" id="color-4"><stop offset="0" stop-color="#818391"/><stop offset="1" stop-color="#73717a"/></linearGradient><linearGradient x1="240.00007" y1="166.74738" x2="240.00007" y2="170.286" gradientUnits="userSpaceOnUse" id="color-5"><stop offset="0" stop-color="#1a1a1a"/><stop offset="1" stop-color="#000000"/></linearGradient><linearGradient x1="232.82036" y1="172.14377" x2="247.17978" y2="172.14377" gradientUnits="userSpaceOnUse" id="color-6"><stop offset="0" stop-color="#818391"/><stop offset="1" stop-color="#73717a"/></linearGradient><linearGradient x1="240.00007" y1="170.37446" x2="240.00007" y2="173.91308" gradientUnits="userSpaceOnUse" id="color-7"><stop offset="0" stop-color="#1a1a1a"/><stop offset="1" stop-color="#000000"/></linearGradient><linearGradient x1="236.14916" y1="175.68239" x2="243.85099" y2="175.68239" gradientUnits="userSpaceOnUse" id="color-8"><stop offset="0" stop-color="#818391"/><stop offset="1" stop-color="#73717a"/></linearGradient><linearGradient x1="240.00007" y1="173.91308" x2="240.00007" y2="177.4517" gradientUnits="userSpaceOnUse" id="color-9"><stop offset="0" stop-color="#1a1a1a"/><stop offset="1" stop-color="#000000"/></linearGradient><linearGradient x1="240.93506" y1="172.09954" x2="242.81508" y2="172.09954" gradientUnits="userSpaceOnUse" id="color-10"><stop offset="0" stop-color="#757784"/><stop offset="1" stop-color="#4d4c51"/></linearGradient><linearGradient x1="241.87507" y1="171.27601" x2="241.87507" y2="172.92307" gradientUnits="userSpaceOnUse" id="color-11"><stop offset="0" stop-color="#1a1a1a"/><stop offset="1" stop-color="#000000"/></linearGradient><linearGradient x1="237.32967" y1="172.09954" x2="239.28571" y2="172.09954" gradientUnits="userSpaceOnUse" id="color-12"><stop offset="0" stop-color="#757784"/><stop offset="1" stop-color="#4d4c51"/></linearGradient><linearGradient x1="238.30773" y1="171.27601" x2="238.30773" y2="172.92307" gradientUnits="userSpaceOnUse" id="color-13"><stop offset="0" stop-color="#1a1a1a"/><stop offset="1" stop-color="#000000"/></linearGradient><linearGradient x1="244.5024" y1="172.09954" x2="246.20843" y2="172.09954" gradientUnits="userSpaceOnUse" id="color-14"><stop offset="0" stop-color="#757784"/><stop offset="1" stop-color="#4d4c51"/></linearGradient><linearGradient x1="245.35546" y1="171.27601" x2="245.35546" y2="172.92307" gradientUnits="userSpaceOnUse" id="color-15"><stop offset="0" stop-color="#1a1a1a"/><stop offset="1" stop-color="#000000"/></linearGradient><linearGradient x1="233.71686" y1="172.09954" x2="235.48691" y2="172.09954" gradientUnits="userSpaceOnUse" id="color-16"><stop offset="0" stop-color="#757784"/><stop offset="1" stop-color="#4d4c51"/></linearGradient><linearGradient x1="234.60189" y1="171.27601" x2="234.60189" y2="172.92307" gradientUnits="userSpaceOnUse" id="color-17"><stop offset="0" stop-color="#1a1a1a"/><stop offset="1" stop-color="#000000"/></linearGradient><linearGradient x1="241.1916" y1="175.73112" x2="242.80854" y2="175.73112" gradientUnits="userSpaceOnUse" id="color-18"><stop offset="0" stop-color="#757784"/><stop offset="1" stop-color="#4d4c51"/></linearGradient><linearGradient x1="242.00007" y1="174.90759" x2="242.00007" y2="176.55465" gradientUnits="userSpaceOnUse" id="color-19"><stop offset="0" stop-color="#1a1a1a"/><stop offset="1" stop-color="#000000"/></linearGradient><linearGradient x1="237.20467" y1="175.73112" x2="238.96991" y2="175.73112" gradientUnits="userSpaceOnUse" id="color-20"><stop offset="0" stop-color="#757784"/><stop offset="1" stop-color="#4d4c51"/></linearGradient><linearGradient x1="238.08728" y1="174.90759" x2="238.08728" y2="176.55465" gradientUnits="userSpaceOnUse" id="color-21"><stop offset="0" stop-color="#1a1a1a"/><stop offset="1" stop-color="#000000"/></linearGradient><linearGradient x1="240.10779" y1="168.52656" x2="242.08379" y2="168.52656" gradientUnits="userSpaceOnUse" id="color-22"><stop offset="0" stop-color="#757784"/><stop offset="1" stop-color="#4d4c51"/></linearGradient><linearGradient x1="241.0958" y1="167.70303" x2="241.0958" y2="169.35009" gradientUnits="userSpaceOnUse" id="color-23"><stop offset="0" stop-color="#1a1a1a"/><stop offset="1" stop-color="#000000"/></linearGradient><linearGradient x1="236.78857" y1="168.52965" x2="238.65705" y2="168.52965" gradientUnits="userSpaceOnUse" id="color-24"><stop offset="0" stop-color="#757784"/><stop offset="1" stop-color="#4d4c51"/></linearGradient><linearGradient x1="237.72285" y1="167.70612" x2="237.72285" y2="169.35318" gradientUnits="userSpaceOnUse" id="color-25"><stop offset="0" stop-color="#1a1a1a"/><stop offset="1" stop-color="#000000"/></linearGradient><linearGradient x1="243.56848" y1="168.52965" x2="245.43703" y2="168.52965" gradientUnits="userSpaceOnUse" id="color-26"><stop offset="0" stop-color="#757784"/><stop offset="1" stop-color="#4d4c51"/></linearGradient><linearGradient x1="244.50282" y1="167.70612" x2="244.50282" y2="169.35318" gradientUnits="userSpaceOnUse" id="color-27"><stop offset="0" stop-color="#1a1a1a"/><stop offset="1" stop-color="#000000"/></linearGradient><linearGradient x1="246.68023" y1="168.52965" x2="248.48958" y2="168.52965" gradientUnits="userSpaceOnUse" id="color-28"><stop offset="0" stop-color="#757784"/><stop offset="1" stop-color="#4d4c51"/></linearGradient><linearGradient x1="247.58487" y1="167.70612" x2="247.58487" y2="169.35318" gradientUnits="userSpaceOnUse" id="color-29"><stop offset="0" stop-color="#1a1a1a"/><stop offset="1" stop-color="#000000"/></linearGradient><linearGradient x1="233.88964" y1="168.52965" x2="235.44041" y2="168.52965" gradientUnits="userSpaceOnUse" id="color-30"><stop offset="0" stop-color="#757784"/><stop offset="1" stop-color="#4d4c51"/></linearGradient><linearGradient x1="234.66499" y1="167.70612" x2="234.66499" y2="169.35318" gradientUnits="userSpaceOnUse" id="color-31"><stop offset="0" stop-color="#1a1a1a"/><stop offset="1" stop-color="#000000"/></linearGradient><linearGradient x1="227.32323" y1="52.93235" x2="227.32323" y2="62.80519" gradientUnits="userSpaceOnUse" id="color-32"><stop offset="0" stop-color="#1a1a1a"/><stop offset="1" stop-color="#000000"/></linearGradient><linearGradient x1="252.74203" y1="52.32277" x2="252.74203" y2="62.19562" gradientUnits="userSpaceOnUse" id="color-33"><stop offset="0" stop-color="#1a1a1a"/><stop offset="1" stop-color="#000000"/></linearGradient><linearGradient x1="236.6343" y1="126.49818" x2="243.36585" y2="126.49818" gradientUnits="userSpaceOnUse" id="color-34"><stop offset="0" stop-color="#9e9e9e"/><stop offset="1" stop-color="#696969"/></linearGradient><linearGradient x1="236.6343" y1="126.49818" x2="243.36585" y2="126.49818" gradientUnits="userSpaceOnUse" id="color-35"><stop offset="0" stop-color="#1a1a1a"/><stop offset="1" stop-color="#000000"/></linearGradient><linearGradient x1="231.24837" y1="74.70301" x2="248.75177" y2="74.70301" gradientUnits="userSpaceOnUse" id="color-36"><stop offset="0" stop-color="#b06612"/><stop offset="1" stop-color="#8c5119"/></linearGradient><linearGradient x1="231.24837" y1="74.70301" x2="248.75177" y2="74.70301" gradientUnits="userSpaceOnUse" id="color-37"><stop offset="0" stop-color="#1a1a1a"/><stop offset="1" stop-color="#000000"/></linearGradient><linearGradient x1="201.82985" y1="112.88588" x2="277.61495" y2="112.88588" gradientUnits="userSpaceOnUse" id="color-38"><stop offset="0" stop-color="#b1b1b1"/><stop offset="1" stop-color="#8c8c8c"/></linearGradient><linearGradient x1="239.7224" y1="46.63326" x2="239.7224" y2="179.13849" gradientUnits="userSpaceOnUse" id="color-39"><stop offset="0" stop-color="#1a1a1a"/><stop offset="1" stop-color="#000000"/></linearGradient><linearGradient x1="169.98046" y1="174.63113" x2="198.29763" y2="174.63113" gradientUnits="userSpaceOnUse" id="color-40"><stop offset="0" stop-color="#ff0000"/><stop offset="1" stop-color="#650000"/></linearGradient><linearGradient x1="169.98046" y1="174.63113" x2="198.29763" y2="174.63113" gradientUnits="userSpaceOnUse" id="color-41"><stop offset="0" stop-color="#1a1a1a"/><stop offset="1" stop-color="#000000"/></linearGradient><linearGradient x1="280.89117" y1="174.99982" x2="309.20834" y2="174.99982" gradientUnits="userSpaceOnUse" id="color-42"><stop offset="0" stop-color="#0005ff"/><stop offset="1" stop-color="#000a8e"/></linearGradient><linearGradient x1="280.89117" y1="174.99982" x2="309.20834" y2="174.99982" gradientUnits="userSpaceOnUse" id="color-43"><stop offset="0" stop-color="#1a1a1a"/><stop offset="1" stop-color="#000000"/></linearGradient><linearGradient x1="171.41268" y1="108.28607" x2="200.72063" y2="108.28607" gradientUnits="userSpaceOnUse" id="color-44"><stop offset="0" stop-color="#1a1a1a"/><stop offset="1" stop-color="#000000"/></linearGradient><linearGradient x1="172.12749" y1="108.74821" x2="200.36325" y2="108.74821" gradientUnits="userSpaceOnUse" id="color-45"><stop offset="0" stop-color="#1a1a1a"/><stop offset="1" stop-color="#000000"/></linearGradient><linearGradient x1="278.54179" y1="108.80846" x2="307.84979" y2="108.80846" gradientUnits="userSpaceOnUse" id="color-46"><stop offset="0" stop-color="#1a1a1a"/><stop offset="1" stop-color="#000000"/></linearGradient><linearGradient x1="279.12361" y1="109.27061" x2="307.35932" y2="109.27061" gradientUnits="userSpaceOnUse" id="color-47"><stop offset="0" stop-color="#1a1a1a"/><stop offset="1" stop-color="#000000"/></linearGradient><linearGradient x1="231.58648" y1="103.77865" x2="236.29851" y2="103.77865" gradientUnits="userSpaceOnUse" id="color-48"><stop offset="0" stop-color="#1a1a1a"/><stop offset="1" stop-color="#000000"/></linearGradient><linearGradient x1="243.70315" y1="103.77865" x2="248.63958" y2="103.77865" gradientUnits="userSpaceOnUse" id="color-49"><stop offset="0" stop-color="#1a1a1a"/><stop offset="1" stop-color="#000000"/></linearGradient><linearGradient x1="231.64531" y1="92.49231" x2="248.68202" y2="92.49231" gradientUnits="userSpaceOnUse" id="color-50"><stop offset="0" stop-color="#1a1a1a"/><stop offset="1" stop-color="#000000"/></linearGradient><linearGradient x1="231.64531" y1="89.39474" x2="248.37221" y2="89.39474" gradientUnits="userSpaceOnUse" id="color-51"><stop offset="0" stop-color="#1a1a1a"/><stop offset="1" stop-color="#000000"/></linearGradient><linearGradient x1="227.92826" y1="162.10982" x2="252.55397" y2="162.10982" gradientUnits="userSpaceOnUse" id="color-52"><stop offset="0" stop-color="#b06612"/><stop offset="1" stop-color="#8c5119"/></linearGradient><linearGradient x1="227.92826" y1="160.35883" x2="252.55397" y2="160.35883" gradientUnits="userSpaceOnUse" id="color-53"><stop offset="0" stop-color="#1a1a1a"/><stop offset="1" stop-color="#000000"/></linearGradient><linearGradient x1="228.21882" y1="163.66161" x2="251.81884" y2="163.66161" gradientUnits="userSpaceOnUse" id="color-54"><stop offset="0" stop-color="#1a1a1a"/><stop offset="1" stop-color="#000000"/></linearGradient><linearGradient x1="231.38963" y1="168.52965" x2="232.6904" y2="168.52965" gradientUnits="userSpaceOnUse" id="color-55"><stop offset="0" stop-color="#757784"/><stop offset="1" stop-color="#4d4c51"/></linearGradient><linearGradient x1="232.03998" y1="167.70612" x2="232.03998" y2="169.35318" gradientUnits="userSpaceOnUse" id="color-56"><stop offset="0" stop-color="#1a1a1a"/><stop offset="1" stop-color="#000000"/></linearGradient></defs><g transform="translate(-168.98045,-45.72453)"><g data-paper-data="{&quot;isPaintingLayer&quot;:true}" fill-rule="nonzero" stroke-linejoin="miter" stroke-miterlimit="10" stroke-dasharray="" stroke-dashoffset="0" style="mix-blend-mode: normal"><path d="M204.116,179.45453v-130.87374h72.28306v130.87374z" fill-opacity="0.00392" fill="#ffffff" stroke="url(#color-1)" stroke-width="2.5" stroke-linecap="butt"/><path d="M240.00007,179.89954c-15.1326,0 -27.4,-0.91782 -27.4,-2.05c0,-1.13218 12.2674,-2.05 27.4,-2.05c15.1326,0 27.4,0.91782 27.4,2.05c0,1.13218 -12.2674,2.05 -27.4,2.05z" fill="url(#color-2)" stroke="#181614" stroke-width="1" stroke-linecap="butt"/><path d="M240.00007,179.89954c-15.1326,0 -27.4,-0.91782 -27.4,-2.05c0,-1.13218 12.2674,-2.05 27.4,-2.05c15.1326,0 27.4,0.91781 27.4,2.05c0,1.13218 -12.2674,2.05 -27.4,2.05z" fill="url(#color-3)" stroke="#181614" stroke-width="0" stroke-linecap="butt"/><path d="M230.86227,170.286v-3.53862h18.27568v3.53862z" fill="url(#color-4)" stroke="url(#color-5)" stroke-width="0.5" stroke-linecap="butt"/><path d="M232.82036,173.91308v-3.53862h14.35946v3.53862z" fill="url(#color-6)" stroke="url(#color-7)" stroke-width="0.5" stroke-linecap="butt"/><path d="M236.14916,177.4517v-3.53862h7.70189v3.53862z" fill="url(#color-8)" stroke="url(#color-9)" stroke-width="0.5" stroke-linecap="butt"/><path d="M240.93506,172.92307v-1.64706h1.88008v1.64706z" fill="url(#color-10)" stroke="url(#color-11)" stroke-width="0.25" stroke-linecap="butt"/><path d="M237.32967,172.92307v-1.64706h1.95606v1.64706z" fill="url(#color-12)" stroke="url(#color-13)" stroke-width="0.25" stroke-linecap="butt"/><path d="M244.5024,172.92307v-1.64706h1.70606v1.64706z" fill="url(#color-14)" stroke="url(#color-15)" stroke-width="0.25" stroke-linecap="butt"/><path d="M233.71686,172.92307v-1.64706h1.77004v1.64706z" fill="url(#color-16)" stroke="url(#color-17)" stroke-width="0.25" stroke-linecap="butt"/><path d="M241.1916,176.55465v-1.64706h1.61692v1.64706z" fill="url(#color-18)" stroke="url(#color-19)" stroke-width="0.25" stroke-linecap="butt"/><path d="M237.20467,176.55465v-1.64706h1.76527v1.64706z" fill="url(#color-20)" stroke="url(#color-21)" stroke-width="0.25" stroke-linecap="butt"/><path d="M240.10779,169.35009v-1.64706h1.97604v1.64706z" fill="url(#color-22)" stroke="url(#color-23)" stroke-width="0.25" stroke-linecap="butt"/><path d="M236.78857,169.35318v-1.64706h1.86848v1.64706z" fill="url(#color-24)" stroke="url(#color-25)" stroke-width="0.25" stroke-linecap="butt"/><path d="M243.56848,169.35318v-1.64706h1.86847v1.64706z" fill="url(#color-26)" stroke="url(#color-27)" stroke-width="0.25" stroke-linecap="butt"/><path d="M246.68023,169.35318v-1.64706h1.80931v1.64706z" fill="url(#color-28)" stroke="url(#color-29)" stroke-width="0.25" stroke-linecap="butt"/><path d="M233.88964,169.35318v-1.64706h1.55078v1.64706z" fill="url(#color-30)" stroke="url(#color-31)" stroke-width="0.25" stroke-linecap="butt"/><path d="M231.1377,62.8052l-7.62902,-9.87285" fill="none" stroke="url(#color-32)" stroke-width="1.5" stroke-linecap="round"/><path d="M248.92754,62.19561l7.62902,-9.87284" data-paper-data="{&quot;index&quot;:null}" fill="none" stroke="url(#color-33)" stroke-width="1.5" stroke-linecap="round"/><path d="M236.6343,157.96108v-62.92579h6.73149v62.92579z" fill="url(#color-34)" stroke="url(#color-35)" stroke-width="1.5" stroke-linecap="butt"/><path d="M231.24837,100.34751v-51.28897h17.50338v51.28897z" fill="url(#color-36)" stroke="url(#color-37)" stroke-width="1.5" stroke-linecap="butt"/><path d="M201.82985,179.13849v-132.50523h75.78518v132.50523h-3.6925c0,0 -1.45608,-70.61852 -2.3093,-91.95546c-0.41087,-10.27487 -2.54131,-29.34702 -2.54131,-29.34702c0,0 -4.40768,-4.86445 -28.86806,-4.86142c-21.0928,0.00262 -28.97619,4.90224 -28.97619,4.90224c0,0 -2.37258,16.97147 -2.91888,29.72588c-0.95003,22.1803 -2.27501,91.53578 -2.27501,91.53578z" fill="url(#color-38)" stroke="url(#color-39)" stroke-width="1.5" stroke-linecap="butt"/><path d="M169.98046,178.97521v-8.68817h28.31719v8.68817z" fill="url(#color-40)" stroke="url(#color-41)" stroke-width="2" stroke-linecap="butt"/><path d="M280.89117,179.14038v-8.28112h28.31719v8.28112z" fill="url(#color-42)" stroke="url(#color-43)" stroke-width="2" stroke-linecap="butt"/><path d="M171.41268,169.75141l16.08365,-122.9307l13.22433,1.38644l-3.93156,121.54427z" fill="none" stroke="url(#color-44)" stroke-width="2" stroke-linecap="round"/><path d="M172.12749,168.82711l24.66159,-12.01578l-21.44486,-13.86436l22.15969,-11.55364l-19.30038,-14.32651l20.01521,-8.78076l-16.79848,-12.47793l17.51331,-9.24291l-15.01141,-12.01578l16.44106,-10.62935l-13.58175,-11.55364l8.57795,-4.62145l4.28897,6.93218l-13.93916,10.1672l13.58175,11.55364l-16.44106,10.62935l15.72623,10.62935l-18.58555,10.1672l17.51331,12.47793l-20.37262,10.1672l19.65779,14.32651l-22.51711,10.1672l22.51711,14.78866" fill="none" stroke="url(#color-45)" stroke-width="2" stroke-linecap="round"/><path d="M282.47338,170.27381l-3.93156,-121.54426l13.22433,-1.38644l16.08365,122.9307z" data-paper-data="{&quot;index&quot;:null}" fill="none" stroke="url(#color-46)" stroke-width="2" stroke-linecap="round"/><path d="M282.69776,170.27381l22.5171,-14.78866l-22.5171,-10.1672l19.65779,-14.32651l-20.37262,-10.16721l17.51331,-12.47792l-18.58555,-10.1672l15.72623,-10.62935l-16.44106,-10.62934l13.58175,-11.55364l-13.93916,-10.1672l4.28897,-6.93218l8.57795,4.62145l-13.58174,11.55364l16.44106,10.62935l-15.0114,12.01578l17.51331,9.24291l-16.79848,12.47793l20.01521,8.78076l-19.30038,14.32651l22.1597,11.55364l-21.44486,13.86436l24.66159,12.01578" data-paper-data="{&quot;index&quot;:null}" fill="none" stroke="url(#color-47)" stroke-width="2" stroke-linecap="round"/><path d="M231.58648,100.86168l4.71204,5.83395" fill="none" stroke="url(#color-48)" stroke-width="1.5" stroke-linecap="round"/><path d="M243.70316,106.69563l4.93642,-5.83395" fill="none" stroke="url(#color-49)" stroke-width="1.5" stroke-linecap="round"/><path d="M231.64536,92.49231h17.03665" fill="none" stroke="url(#color-50)" stroke-width="1.5" stroke-linecap="round"/><path d="M231.64531,89.39474h16.72689" fill="none" stroke="url(#color-51)" stroke-width="1.5" stroke-linecap="round"/><path d="M227.92826,166.32166v-8.42368c0,0 2.44803,-3.50198 12.4612,-3.50198c9.91427,0 12.1645,3.50198 12.1645,3.50198v8.42368z" fill="url(#color-52)" stroke="url(#color-53)" stroke-width="1" stroke-linecap="butt"/><path d="M228.21884,163.66161h23.6" fill="none" stroke="url(#color-54)" stroke-width="1.5" stroke-linecap="round"/><path d="M231.38963,169.35318v-1.64706h1.30078v1.64706z" fill="url(#color-55)" stroke="url(#color-56)" stroke-width="0.25" stroke-linecap="butt"/></g></g></svg>