<svg version="1.1" xmlns="http://www.w3.org/2000/svg" xmlns:xlink="http://www.w3.org/1999/xlink" width="59" height="59.70662" viewBox="0,0,59,59.70662"><defs><linearGradient x1="240" y1="151.64669" x2="240" y2="208.35331" gradientUnits="userSpaceOnUse" id="color-1"><stop offset="0" stop-color="#191919"/><stop offset="1" stop-color="#050505"/></linearGradient><linearGradient x1="240" y1="151.64669" x2="240" y2="208.35331" gradientUnits="userSpaceOnUse" id="color-2"><stop offset="0" stop-color="#cccccc"/><stop offset="1" stop-color="#898989"/></linearGradient><radialGradient cx="240" cy="180" r="26.8571" gradientUnits="userSpaceOnUse" id="color-3"><stop offset="0" stop-color="#ffffff" stop-opacity="0.35484"/><stop offset="1" stop-color="#ffffff" stop-opacity="0"/></radialGradient><linearGradient x1="240" y1="153.29211" x2="240" y2="206.70789" gradientUnits="userSpaceOnUse" id="color-4"><stop offset="0" stop-color="#cccccc"/><stop offset="1" stop-color="#898989"/></linearGradient><linearGradient x1="241.71712" y1="194.17462" x2="242.53188" y2="194.39396" gradientUnits="userSpaceOnUse" id="color-5"><stop offset="0" stop-color="#524c43"/><stop offset="1" stop-color="#36312c"/></linearGradient><linearGradient x1="241.71712" y1="194.17462" x2="242.53188" y2="194.39396" gradientUnits="userSpaceOnUse" id="color-6"><stop offset="0" stop-color="#1f1f1f"/><stop offset="1" stop-color="#000000"/></linearGradient><linearGradient x1="242.03645" y1="191.57969" x2="243.57832" y2="191.99475" gradientUnits="userSpaceOnUse" id="color-7"><stop offset="0" stop-color="#ab966a"/><stop offset="1" stop-color="#4f3f2d"/></linearGradient><linearGradient x1="242.03645" y1="191.57969" x2="243.57832" y2="191.99475" gradientUnits="userSpaceOnUse" id="color-8"><stop offset="0" stop-color="#1f1f1f"/><stop offset="1" stop-color="#000000"/></linearGradient><linearGradient x1="237.51132" y1="194.12848" x2="238.37896" y2="194.03068" gradientUnits="userSpaceOnUse" id="color-9"><stop offset="0" stop-color="#523f2b"/><stop offset="1" stop-color="#2e2316"/></linearGradient><linearGradient x1="237.51132" y1="194.12848" x2="238.37896" y2="194.03068" gradientUnits="userSpaceOnUse" id="color-10"><stop offset="0" stop-color="#1f1f1f"/><stop offset="1" stop-color="#000000"/></linearGradient><linearGradient x1="242.63487" y1="194.27123" x2="243.44963" y2="194.49056" gradientUnits="userSpaceOnUse" id="color-11"><stop offset="0" stop-color="#524c43"/><stop offset="1" stop-color="#36312c"/></linearGradient><linearGradient x1="242.63487" y1="194.27123" x2="243.44963" y2="194.49056" gradientUnits="userSpaceOnUse" id="color-12"><stop offset="0" stop-color="#1f1f1f"/><stop offset="1" stop-color="#000000"/></linearGradient><linearGradient x1="242.95421" y1="191.6763" x2="244.49607" y2="192.09135" gradientUnits="userSpaceOnUse" id="color-13"><stop offset="0" stop-color="#ab966a"/><stop offset="1" stop-color="#4f3f2d"/></linearGradient><linearGradient x1="242.95421" y1="191.6763" x2="244.49607" y2="192.09135" gradientUnits="userSpaceOnUse" id="color-14"><stop offset="0" stop-color="#1f1f1f"/><stop offset="1" stop-color="#000000"/></linearGradient><linearGradient x1="243.89393" y1="191.75444" x2="245.43579" y2="192.1695" gradientUnits="userSpaceOnUse" id="color-15"><stop offset="0" stop-color="#ab966a"/><stop offset="1" stop-color="#4f3f2d"/></linearGradient><linearGradient x1="243.89393" y1="191.75444" x2="245.43579" y2="192.1695" gradientUnits="userSpaceOnUse" id="color-16"><stop offset="0" stop-color="#1f1f1f"/><stop offset="1" stop-color="#000000"/></linearGradient><linearGradient x1="243.58524" y1="194.35098" x2="244.40001" y2="194.57032" gradientUnits="userSpaceOnUse" id="color-17"><stop offset="0" stop-color="#524c43"/><stop offset="1" stop-color="#36312c"/></linearGradient><linearGradient x1="243.58524" y1="194.35098" x2="244.40001" y2="194.57032" gradientUnits="userSpaceOnUse" id="color-18"><stop offset="0" stop-color="#1f1f1f"/><stop offset="1" stop-color="#000000"/></linearGradient><linearGradient x1="236.06224" y1="193.88696" x2="236.92987" y2="193.78917" gradientUnits="userSpaceOnUse" id="color-19"><stop offset="0" stop-color="#523f2b"/><stop offset="1" stop-color="#2e2316"/></linearGradient><linearGradient x1="236.06224" y1="193.88696" x2="236.92987" y2="193.78917" gradientUnits="userSpaceOnUse" id="color-20"><stop offset="0" stop-color="#1f1f1f"/><stop offset="1" stop-color="#000000"/></linearGradient><linearGradient x1="233.65133" y1="196.57793" x2="246.04948" y2="196.57793" gradientUnits="userSpaceOnUse" id="color-21"><stop offset="0" stop-color="#b8a687"/><stop offset="1" stop-color="#4a443b"/></linearGradient><linearGradient x1="233.65133" y1="196.57793" x2="246.04948" y2="196.57793" gradientUnits="userSpaceOnUse" id="color-22"><stop offset="0" stop-color="#1f1a11"/><stop offset="1" stop-color="#191100"/></linearGradient><linearGradient x1="237.89393" y1="192.59539" x2="241.83544" y2="192.59539" gradientUnits="userSpaceOnUse" id="color-23"><stop offset="0" stop-color="#5c503f"/><stop offset="1" stop-color="#241c12"/></linearGradient><linearGradient x1="236.61874" y1="195.55023" x2="242.95607" y2="195.55023" gradientUnits="userSpaceOnUse" id="color-24"><stop offset="0" stop-color="#5c503f"/><stop offset="1" stop-color="#241c12"/></linearGradient><linearGradient x1="235.54901" y1="198.81216" x2="244.0569" y2="198.81216" gradientUnits="userSpaceOnUse" id="color-25"><stop offset="0" stop-color="#5c503f"/><stop offset="1" stop-color="#241c12"/></linearGradient><linearGradient x1="234.41613" y1="202.06097" x2="245.23596" y2="202.06097" gradientUnits="userSpaceOnUse" id="color-26"><stop offset="0" stop-color="#5c503f"/><stop offset="1" stop-color="#241c12"/></linearGradient><linearGradient x1="233.75438" y1="190.11242" x2="246.11991" y2="190.11242" gradientUnits="userSpaceOnUse" id="color-27"><stop offset="0" stop-color="#a89d8a"/><stop offset="1" stop-color="#665a54"/></linearGradient><linearGradient x1="233.75438" y1="190.11242" x2="246.11991" y2="190.11242" gradientUnits="userSpaceOnUse" id="color-28"><stop offset="0" stop-color="#1f1f1f"/><stop offset="1" stop-color="#000000"/></linearGradient><linearGradient x1="246.10983" y1="184.03998" x2="252.25515" y2="184.03998" gradientUnits="userSpaceOnUse" id="color-29"><stop offset="0" stop-color="#353535"/><stop offset="1" stop-color="#1f1f1f"/></linearGradient><linearGradient x1="246.10983" y1="184.25109" x2="250.31314" y2="184.25109" gradientUnits="userSpaceOnUse" id="color-30"><stop offset="0" stop-color="#272727"/><stop offset="1" stop-color="#000000"/></linearGradient><linearGradient x1="233.89017" y1="183.97557" x2="227.74485" y2="183.97557" gradientUnits="userSpaceOnUse" id="color-31"><stop offset="0" stop-color="#6b6b6b"/><stop offset="1" stop-color="#838383"/></linearGradient><linearGradient x1="229.68686" y1="184.18669" x2="233.89017" y2="184.18669" gradientUnits="userSpaceOnUse" id="color-32"><stop offset="0" stop-color="#272727"/><stop offset="1" stop-color="#000000"/></linearGradient><linearGradient x1="233.87311" y1="179.06659" x2="246.12453" y2="179.06659" gradientUnits="userSpaceOnUse" id="color-33"><stop offset="0" stop-color="#646464"/><stop offset="1" stop-color="#222222"/></linearGradient><linearGradient x1="233.87311" y1="179.06659" x2="246.12453" y2="179.06659" gradientUnits="userSpaceOnUse" id="color-34"><stop offset="0" stop-color="#272727"/><stop offset="1" stop-color="#000000"/></linearGradient><linearGradient x1="240.43676" y1="179.5837" x2="245.24221" y2="179.5837" gradientUnits="userSpaceOnUse" id="color-35"><stop offset="0" stop-color="#4a382c"/><stop offset="1" stop-color="#301f1b"/></linearGradient><linearGradient x1="240.43676" y1="179.5837" x2="245.24221" y2="179.5837" gradientUnits="userSpaceOnUse" id="color-36"><stop offset="0" stop-color="#351c12"/><stop offset="1" stop-color="#1a1310"/></linearGradient><linearGradient x1="240.42384" y1="179.58551" x2="245.21817" y2="179.58551" gradientUnits="userSpaceOnUse" id="color-37"><stop offset="0" stop-color="#351c12"/><stop offset="1" stop-color="#1a1310"/></linearGradient><linearGradient x1="240.42384" y1="179.54901" x2="245.21817" y2="179.54901" gradientUnits="userSpaceOnUse" id="color-38"><stop offset="0" stop-color="#351c12"/><stop offset="1" stop-color="#1a1310"/></linearGradient><linearGradient x1="234.6933" y1="179.60804" x2="239.49874" y2="179.60804" gradientUnits="userSpaceOnUse" id="color-39"><stop offset="0" stop-color="#4a382c"/><stop offset="1" stop-color="#301f1b"/></linearGradient><linearGradient x1="234.6933" y1="179.60804" x2="239.49874" y2="179.60804" gradientUnits="userSpaceOnUse" id="color-40"><stop offset="0" stop-color="#351c12"/><stop offset="1" stop-color="#1a1310"/></linearGradient><linearGradient x1="234.68038" y1="179.60985" x2="239.47471" y2="179.60985" gradientUnits="userSpaceOnUse" id="color-41"><stop offset="0" stop-color="#351c12"/><stop offset="1" stop-color="#1a1310"/></linearGradient><linearGradient x1="234.68038" y1="179.57334" x2="239.47471" y2="179.57334" gradientUnits="userSpaceOnUse" id="color-42"><stop offset="0" stop-color="#351c12"/><stop offset="1" stop-color="#1a1310"/></linearGradient><linearGradient x1="240.43676" y1="185.38004" x2="245.24221" y2="185.38004" gradientUnits="userSpaceOnUse" id="color-43"><stop offset="0" stop-color="#4a382c"/><stop offset="1" stop-color="#301f1b"/></linearGradient><linearGradient x1="240.43676" y1="185.38004" x2="245.24221" y2="185.38004" gradientUnits="userSpaceOnUse" id="color-44"><stop offset="0" stop-color="#351c12"/><stop offset="1" stop-color="#1a1310"/></linearGradient><linearGradient x1="240.42384" y1="185.38185" x2="245.21817" y2="185.38185" gradientUnits="userSpaceOnUse" id="color-45"><stop offset="0" stop-color="#351c12"/><stop offset="1" stop-color="#1a1310"/></linearGradient><linearGradient x1="240.42384" y1="185.34535" x2="245.21817" y2="185.34535" gradientUnits="userSpaceOnUse" id="color-46"><stop offset="0" stop-color="#351c12"/><stop offset="1" stop-color="#1a1310"/></linearGradient><linearGradient x1="234.6933" y1="185.40438" x2="239.49874" y2="185.40438" gradientUnits="userSpaceOnUse" id="color-47"><stop offset="0" stop-color="#4a382c"/><stop offset="1" stop-color="#301f1b"/></linearGradient><linearGradient x1="234.6933" y1="185.40438" x2="239.49874" y2="185.40438" gradientUnits="userSpaceOnUse" id="color-48"><stop offset="0" stop-color="#351c12"/><stop offset="1" stop-color="#1a1310"/></linearGradient><linearGradient x1="234.68038" y1="185.40619" x2="239.47471" y2="185.40619" gradientUnits="userSpaceOnUse" id="color-49"><stop offset="0" stop-color="#351c12"/><stop offset="1" stop-color="#1a1310"/></linearGradient><linearGradient x1="234.68038" y1="185.36968" x2="239.47471" y2="185.36968" gradientUnits="userSpaceOnUse" id="color-50"><stop offset="0" stop-color="#351c12"/><stop offset="1" stop-color="#1a1310"/></linearGradient><linearGradient x1="234.49341" y1="172.98804" x2="245.42917" y2="172.98804" gradientUnits="userSpaceOnUse" id="color-51"><stop offset="0" stop-color="#515151"/><stop offset="1" stop-color="#131313"/></linearGradient><linearGradient x1="234.49341" y1="172.98804" x2="245.42917" y2="172.98804" gradientUnits="userSpaceOnUse" id="color-52"><stop offset="0" stop-color="#272727"/><stop offset="1" stop-color="#000000"/></linearGradient><linearGradient x1="235.06298" y1="170.60849" x2="244.78366" y2="170.60849" gradientUnits="userSpaceOnUse" id="color-53"><stop offset="0" stop-color="#272727"/><stop offset="1" stop-color="#000000"/></linearGradient><linearGradient x1="235.10095" y1="175.40285" x2="244.66975" y2="175.40285" gradientUnits="userSpaceOnUse" id="color-54"><stop offset="0" stop-color="#272727"/><stop offset="1" stop-color="#000000"/></linearGradient><linearGradient x1="233.76222" y1="162.78648" x2="246.16036" y2="162.78648" gradientUnits="userSpaceOnUse" id="color-55"><stop offset="0" stop-color="#c9c9c9"/><stop offset="1" stop-color="#3e3e3e"/></linearGradient><linearGradient x1="233.76222" y1="162.78648" x2="246.16036" y2="162.78648" gradientUnits="userSpaceOnUse" id="color-56"><stop offset="0" stop-color="#272727"/><stop offset="1" stop-color="#000000"/></linearGradient><linearGradient x1="237.31743" y1="158.6783" x2="242.58488" y2="158.6783" gradientUnits="userSpaceOnUse" id="color-57"><stop offset="0" stop-color="#8c8c8c"/><stop offset="1" stop-color="#222222"/></linearGradient><linearGradient x1="237.31743" y1="158.6783" x2="242.58488" y2="158.6783" gradientUnits="userSpaceOnUse" id="color-58"><stop offset="0" stop-color="#272727"/><stop offset="1" stop-color="#000000"/></linearGradient><linearGradient x1="237.43323" y1="158.02045" x2="242.42494" y2="158.02045" gradientUnits="userSpaceOnUse" id="color-59"><stop offset="0" stop-color="#ffffff"/><stop offset="1" stop-color="#606060"/></linearGradient><linearGradient x1="237.43323" y1="158.02046" x2="242.42495" y2="158.02046" gradientUnits="userSpaceOnUse" id="color-60"><stop offset="0" stop-color="#272727"/><stop offset="1" stop-color="#000000"/></linearGradient><radialGradient cx="239.3739" cy="162.81182" r="2.31277" gradientUnits="userSpaceOnUse" id="color-61"><stop offset="0" stop-color="#9cd7f7"/><stop offset="1" stop-color="#0087f6"/></radialGradient><linearGradient x1="237.64852" y1="164.04236" x2="242.27406" y2="164.04236" gradientUnits="userSpaceOnUse" id="color-62"><stop offset="0" stop-color="#272727"/><stop offset="1" stop-color="#000000"/></linearGradient><linearGradient x1="237.778" y1="167.52016" x2="242.14458" y2="167.52016" gradientUnits="userSpaceOnUse" id="color-63"><stop offset="0" stop-color="#272727"/><stop offset="1" stop-color="#000000"/></linearGradient><linearGradient x1="237.778" y1="166.94053" x2="242.14458" y2="166.94053" gradientUnits="userSpaceOnUse" id="color-64"><stop offset="0" stop-color="#272727"/><stop offset="1" stop-color="#000000"/></linearGradient><linearGradient x1="237.778" y1="168.09979" x2="242.14458" y2="168.09979" gradientUnits="userSpaceOnUse" id="color-65"><stop offset="0" stop-color="#272727"/><stop offset="1" stop-color="#000000"/></linearGradient></defs><g transform="translate(-210.5,-150.14669)"><g data-paper-data="{&quot;isPaintingLayer&quot;:true}" fill-rule="nonzero" stroke-linejoin="miter" stroke-miterlimit="10" stroke-dasharray="" stroke-dashoffset="0" style="mix-blend-mode: normal"><path d="M212,208.35331v-56.70662h56v56.70662z" fill="url(#color-1)" stroke="url(#color-2)" stroke-width="3" stroke-linecap="butt"/><path d="M266.8571,180c0,14.75036 -12.02433,26.70789 -26.8571,26.70789c-14.83277,0 -26.8571,-11.95753 -26.8571,-26.70789c0,-14.75036 12.02433,-26.70789 26.8571,-26.70789c14.83277,0 26.8571,11.95753 26.8571,26.70789z" fill="url(#color-3)" stroke="url(#color-4)" stroke-width="0" stroke-linecap="butt"/><g stroke-width="0.5"><path d="M241.37768,195.43557l0.67888,-2.52189l0.81476,0.21933l-0.67888,2.52189z" fill="url(#color-5)" stroke="url(#color-6)" stroke-linecap="butt"/><path d="M243.57832,191.99475c-0.30647,1.11549 -0.35691,1.23009 -1.10062,1.01719c-0.74395,-0.21297 -0.73626,-0.37323 -0.44124,-1.43225c0.32573,-1.16923 0.34548,-1.25128 1.10062,-1.01719c0.72352,0.22429 0.77778,0.20733 0.44124,1.43225z" fill="url(#color-7)" stroke="url(#color-8)" stroke-linecap="butt"/><path d="M238.16927,198.34562l-1.99609,-7.64818l1.23858,-0.16135l0.9972,7.76003z" fill="url(#color-9)" stroke="url(#color-10)" stroke-linecap="butt"/><path d="M242.29543,195.53217l0.67888,-2.52189l0.81476,0.21933l-0.67888,2.52189z" fill="url(#color-11)" stroke="url(#color-12)" stroke-linecap="butt"/><path d="M244.49607,192.09135c-0.30647,1.11549 -0.35691,1.23009 -1.10062,1.01719c-0.74395,-0.21297 -0.73626,-0.37323 -0.44124,-1.43225c0.32572,-1.16923 0.34548,-1.25128 1.10062,-1.01719c0.72352,0.22429 0.77778,0.20733 0.44124,1.43225z" fill="url(#color-13)" stroke="url(#color-14)" stroke-linecap="butt"/><path d="M245.43579,192.1695c-0.30647,1.11549 -0.35691,1.23009 -1.10062,1.01719c-0.74394,-0.21297 -0.73626,-0.37323 -0.44124,-1.43225c0.32572,-1.16923 0.34548,-1.25128 1.10062,-1.01719c0.72352,0.22429 0.77778,0.20733 0.44124,1.43225z" fill="url(#color-15)" stroke="url(#color-16)" stroke-linecap="butt"/><path d="M242.669,194.94561c0,0 0.74981,0.02364 0.8498,-0.34781c0.12192,-0.45292 0.40588,-1.50776 0.40588,-1.50776l0.81476,0.21933c0,0 -0.26633,0.98935 -0.38614,1.43445c-0.0448,0.16644 -0.29227,0.47674 -0.62693,0.66892c-0.44458,0.2553 -0.99822,0.37434 -0.99822,0.37434z" fill="url(#color-17)" stroke="url(#color-18)" stroke-linecap="butt"/><path d="M236.72018,198.1041l-1.99609,-7.64818l1.23858,-0.16135l0.9972,7.76003z" fill="url(#color-19)" stroke="url(#color-20)" stroke-linecap="butt"/><path d="M233.65133,203.83146c0,0 4.6294,-14.61287 6.19992,-14.5065c1.79665,0.12169 6.19823,14.5065 6.19823,14.5065z" fill="url(#color-21)" stroke="url(#color-22)" stroke-linecap="butt"/><path d="M237.89393,192.59539h3.94151" fill="none" stroke="url(#color-23)" stroke-linecap="round"/><path d="M242.95607,195.55023h-6.33733" fill="none" stroke="url(#color-24)" stroke-linecap="round"/><path d="M235.549,198.81216h8.5079" fill="none" stroke="url(#color-25)" stroke-linecap="round"/><path d="M245.23597,202.06097h-10.81984" fill="none" stroke="url(#color-26)" stroke-linecap="round"/><path d="M233.75438,189.20815h12.36553c0,0 -0.02791,0.89085 -0.19066,1.21158c-0.13959,0.27508 -0.72709,0.59696 -0.72709,0.59696h-10.62662c0,0 -0.44789,-0.34149 -0.56797,-0.60597c-0.14782,-0.32558 -0.25318,-1.20257 -0.25318,-1.20257z" fill="url(#color-27)" stroke="url(#color-28)" stroke-linecap="butt"/></g><path d="M246.10983,189.08135v-12.53009c0,0 1.57682,8.41118 2.12812,10.442c0.43617,1.60674 2.07519,4.95767 2.07519,4.95767z" fill="url(#color-29)" stroke="url(#color-30)" stroke-width="0.5" stroke-linecap="butt"/><path d="M229.68686,191.88652c0,0 1.63902,-3.35093 2.07519,-4.95766c0.5513,-2.03082 2.12812,-10.442 2.12812,-10.442v12.53009z" data-paper-data="{&quot;index&quot;:null}" fill="url(#color-31)" stroke="url(#color-32)" stroke-width="0.5" stroke-linecap="butt"/><path d="M233.87311,189.11716v-20.10114h12.25143v20.10114z" fill="url(#color-33)" stroke="url(#color-34)" stroke-width="0.5" stroke-linecap="butt"/><g stroke-width="0.5"><path d="M240.43676,182.08529v-5.00317h4.80544v5.00317z" fill="url(#color-35)" stroke="url(#color-36)" stroke-linecap="butt"/><path d="M240.42384,182.01918l4.79433,-4.86734" fill="none" stroke="url(#color-37)" stroke-linecap="round"/><path d="M240.47251,177.10317l4.74566,4.94035" fill="none" stroke="url(#color-38)" stroke-linecap="round"/></g><g stroke-width="0.5"><path d="M234.6933,182.10962v-5.00317h4.80544v5.00317z" fill="url(#color-39)" stroke="url(#color-40)" stroke-linecap="butt"/><path d="M239.47471,177.17618l-4.79433,4.86734" fill="none" stroke="url(#color-41)" stroke-linecap="round"/><path d="M234.72905,177.12751l4.74566,4.94035" fill="none" stroke="url(#color-42)" stroke-linecap="round"/></g><g stroke-width="0.5"><path d="M240.43676,187.88163v-5.00317h4.80544v5.00317z" fill="url(#color-43)" stroke="url(#color-44)" stroke-linecap="butt"/><path d="M240.42384,187.81552l4.79433,-4.86734" fill="none" stroke="url(#color-45)" stroke-linecap="round"/><path d="M245.21817,187.83986l-4.74566,-4.94035" fill="none" stroke="url(#color-46)" stroke-linecap="round"/></g><g stroke-width="0.5"><path d="M234.6933,187.90597v-5.00317h4.80544v5.00317z" fill="url(#color-47)" stroke="url(#color-48)" stroke-linecap="butt"/><path d="M234.68038,187.83986l4.79433,-4.86734" fill="none" stroke="url(#color-49)" stroke-linecap="round"/><path d="M234.72905,182.92385l4.74566,4.94035" fill="none" stroke="url(#color-50)" stroke-linecap="round"/></g><g stroke-width="0.5"><path d="M234.49341,176.00214v-6.02819h10.93576v6.02819z" fill="url(#color-51)" stroke="url(#color-52)" stroke-linecap="butt"/><path d="M244.78366,170.60849h-9.72068" fill="none" stroke="url(#color-53)" stroke-linecap="round"/><path d="M235.10096,175.40285h9.56879" fill="none" stroke="url(#color-54)" stroke-linecap="round"/></g><path d="M233.76222,168.98581c0,0 4.565,-12.48906 6.13552,-12.39815c1.79665,0.104 6.26263,12.39815 6.26263,12.39815z" fill="url(#color-55)" stroke="url(#color-56)" stroke-width="0.5" stroke-linecap="butt"/><path d="M237.36668,160.45247l0.21367,-0.4764l4.74468,-0.01327l0.2106,0.48968z" fill="url(#color-57)" stroke="url(#color-58)" stroke-width="0.5" stroke-linecap="butt"/><path d="M237.43323,159.87237c0,0 1.83795,-3.73085 2.47027,-3.70369c0.72336,0.03107 2.52144,3.70369 2.52144,3.70369z" fill="url(#color-59)" stroke="url(#color-60)" stroke-width="0.5" stroke-linecap="butt"/><path d="M242.27406,164.04236c0,1.25179 -1.03546,2.26656 -2.31277,2.26656c-1.27731,0 -2.31277,-1.01477 -2.31277,-2.26656c0,-1.25179 1.03546,-2.26656 2.31277,-2.26656c1.27731,0 2.31277,1.01477 2.31277,2.26656z" fill="url(#color-61)" stroke="url(#color-62)" stroke-width="0.5" stroke-linecap="butt"/><path d="M242.14458,167.52016h-4.36658" fill="none" stroke="url(#color-63)" stroke-width="0.5" stroke-linecap="round"/><path d="M242.14458,166.94053h-4.36658" fill="none" stroke="url(#color-64)" stroke-width="0.5" stroke-linecap="round"/><path d="M242.14458,168.09979h-4.36658" fill="none" stroke="url(#color-65)" stroke-width="0.5" stroke-linecap="round"/><path d="M215.27327,167.03273v-12.39235h25.93332v8.69862h-15.56684v3.69373z" fill-opacity="0.53453" fill="#000000" stroke="#a60000" stroke-width="0" stroke-linecap="butt"/><text transform="translate(215.70712,161.61518) scale(0.21839,0.21839)" font-size="40" xml:space="preserve" fill="#ffffff" fill-rule="nonzero" stroke="#000000" stroke-width="0" stroke-linecap="butt" stroke-linejoin="miter" stroke-miterlimit="10" stroke-dasharray="" stroke-dashoffset="0" font-family="Serif" font-weight="normal" text-anchor="start" style="mix-blend-mode: normal"><tspan x="0" dy="0">Rocket</tspan></text><text transform="translate(215.56527,166.16681) scale(0.11601,0.11601)" font-size="40" xml:space="preserve" fill="#ffffff" fill-rule="nonzero" stroke="#000000" stroke-width="0" stroke-linecap="butt" stroke-linejoin="miter" stroke-miterlimit="10" stroke-dasharray="" stroke-dashoffset="0" font-family="Serif" font-weight="normal" text-anchor="start" style="mix-blend-mode: normal"><tspan x="0" dy="0">1-4-1</tspan></text></g></g></svg>