<svg version="1.1" xmlns="http://www.w3.org/2000/svg" xmlns:xlink="http://www.w3.org/1999/xlink" width="44.2388" height="30.875" viewBox="0,0,44.2388,30.875"><defs><radialGradient cx="240" cy="180" r="22.1194" gradientUnits="userSpaceOnUse" id="color-1"><stop offset="0" stop-color="#01ff00" stop-opacity="0.21413"/><stop offset="1" stop-color="#01ff00" stop-opacity="0"/></radialGradient><radialGradient cx="247.78942" cy="180.20072" r="0.96706" gradientUnits="userSpaceOnUse" id="color-2"><stop offset="0" stop-color="#c6beb6"/><stop offset="1" stop-color="#a9a4a1"/></radialGradient><radialGradient cx="249.60828" cy="180.78952" r="3.98079" gradientUnits="userSpaceOnUse" id="color-3"><stop offset="0" stop-color="#d9d0c7"/><stop offset="1" stop-color="#b7b1ad"/></radialGradient></defs><g transform="translate(-217.8806,-164.5625)"><g data-paper-data="{&quot;isPaintingLayer&quot;:true}" fill-rule="nonzero" stroke-width="0" stroke-linecap="butt" stroke-linejoin="miter" stroke-miterlimit="10" stroke-dasharray="" stroke-dashoffset="0" style="mix-blend-mode: normal"><path d="M262.1194,180c0,8.52589 -9.90319,15.4375 -22.1194,15.4375c-12.21621,0 -22.1194,-6.91161 -22.1194,-15.4375c0,-8.52589 9.90319,-15.4375 22.1194,-15.4375c12.21621,0 22.1194,6.91161 22.1194,15.4375z" fill="url(#color-1)" stroke="#ff0000"/><path d="M247.27527,179.05384l-0.08597,1.58266l-19.76284,0.06315l0.08595,-1.58266z" fill="#8c7463" stroke="none"/><path d="M247.79383,181.0711c-0.5422,0.0017 -0.95001,-0.5815 -0.91086,-1.30265c0.03915,-0.72115 0.51042,-1.3072 1.05268,-1.30892c0.5422,-0.0017 0.95001,0.58145 0.91084,1.30261c-0.03915,0.72115 -0.51041,1.30726 -1.05266,1.30897z" fill="url(#color-2)" stroke="none"/><path d="M255.68975,179.7403l-8.21352,2.42919l1.45315,-2.4076l-1.19216,-2.39913z" fill="url(#color-3)" stroke="none"/><g stroke="none"><g><path d="M229.75702,179.37522l-1.69785,0.23216l-1.63009,-3.91807z" fill="#d7d7d7"/><path d="M228.74069,179.31797l-1.90361,0.26033l-1.82765,-4.39297z" fill="#e2e2e2"/></g><g><path d="M231.52613,179.35612l-1.28309,0.17541l-1.23192,-2.96098z" fill="#d7d7d7"/><path d="M230.75814,179.3129l-1.43865,0.1967l-1.38126,-3.31992z" fill="#e2e2e2"/></g><g><path d="M232.9389,179.1851l-1.0757,0.14708l-1.03285,-2.48246z" fill="#d7d7d7"/><path d="M232.29509,179.14886l-1.20615,0.16494l-1.15801,-2.7834z" fill="#e2e2e2"/></g></g><g data-paper-data="{&quot;index&quot;:null}" stroke="none"><g><path d="M225.78517,184.30145l2.05616,-3.92986l1.6732,0.22138z" fill="#d7d7d7"/><path d="M224.3103,184.81471l2.30538,-4.4062l1.87608,0.24824z" fill="#e2e2e2"/></g><g><path d="M228.46381,183.4034l1.55396,-2.96986l1.26451,0.1673z" fill="#d7d7d7"/><path d="M227.34914,183.79123l1.74235,-3.32989l1.41778,0.18765z" fill="#e2e2e2"/></g><g><path d="M230.31408,183.11255l1.30278,-2.48993l1.06013,0.1402z" fill="#d7d7d7"/><path d="M229.37953,183.43771l1.46073,-2.79173l1.18866,0.15727z" fill="#e2e2e2"/></g></g><path d="M233.13653,179.02372l-0.0931,1.7146l-6.61337,0.02116l0.09312,-1.7146z" fill="#7c6352" stroke="none"/></g></g></svg>