<svg version="1.1" xmlns="http://www.w3.org/2000/svg" xmlns:xlink="http://www.w3.org/1999/xlink" width="84.5" height="38.32609" viewBox="0,0,84.5,38.32609"><defs><linearGradient x1="240" y1="161.58694" x2="240" y2="198.41312" gradientUnits="userSpaceOnUse" id="color-1"><stop offset="0" stop-color="#2b4b31"/><stop offset="1" stop-color="#395a1b"/></linearGradient><linearGradient x1="240" y1="161.58694" x2="240" y2="198.41312" gradientUnits="userSpaceOnUse" id="color-2"><stop offset="0" stop-color="#12301b"/><stop offset="1" stop-color="#446d2c"/></linearGradient><radialGradient cx="267.80667" cy="176.93066" r="10.31933" gradientUnits="userSpaceOnUse" id="color-3"><stop offset="0" stop-color="#000000" stop-opacity="0.54998"/><stop offset="1" stop-color="#070707"/></radialGradient><linearGradient x1="267.70415" y1="166.83164" x2="267.70415" y2="178.18598" gradientUnits="userSpaceOnUse" id="color-4"><stop offset="0" stop-color="#000000" stop-opacity="0"/><stop offset="1" stop-color="#000000"/></linearGradient><radialGradient cx="263.52471" cy="181.21144" r="11.1846" gradientUnits="userSpaceOnUse" id="color-5"><stop offset="0" stop-color="#050505"/><stop offset="1" stop-color="#000000"/></radialGradient><linearGradient x1="256.37997" y1="186.60555" x2="278.74917" y2="186.60555" gradientUnits="userSpaceOnUse" id="color-6"><stop offset="0" stop-color="#0b0b0b"/><stop offset="1" stop-color="#000000"/></linearGradient><radialGradient cx="263.70313" cy="176.75033" r="10.88512" gradientUnits="userSpaceOnUse" id="color-7"><stop offset="0" stop-color="#0d0d0d"/><stop offset="1" stop-color="#000000"/></radialGradient><radialGradient cx="267.6538" cy="184.98747" r="5.02826" gradientUnits="userSpaceOnUse" id="color-8"><stop offset="0" stop-color="#121212"/><stop offset="1" stop-color="#121212" stop-opacity="0"/></radialGradient><radialGradient cx="267.6538" cy="184.98747" r="2.61528" gradientUnits="userSpaceOnUse" id="color-9"><stop offset="0" stop-color="#090909"/><stop offset="1" stop-color="#030303"/></radialGradient></defs><g transform="translate(-197.75,-160.83703)"><g data-paper-data="{&quot;isPaintingLayer&quot;:true}" fill-rule="nonzero" stroke-linecap="butt" stroke-linejoin="miter" stroke-miterlimit="10" stroke-dasharray="" stroke-dashoffset="0" style="mix-blend-mode: normal"><path d="M198.5,198.41312v-36.82609h83v36.82609z" fill="url(#color-1)" stroke="url(#color-2)" stroke-width="1.5"/><path d="M267.88206,178.03819c-8.90176,0 -11.0951,3.04562 -11.1639,-3.2167c-0.03493,-3.17927 3.27669,-7.98985 10.986,-7.98985c7.47283,0 10.65267,4.68649 10.65267,7.98985c0,6.75456 -1.03923,3.2167 -10.47474,3.2167z" fill="url(#color-3)" stroke="url(#color-4)" stroke-width="1"/><path d="M256.50338,183.4707c-0.04863,-2.87112 -0.04815,-4.61332 0.64237,-5.67204c1.06223,-1.62864 3.75741,-1.63987 10.41882,-1.65517c10.82248,-0.02487 11.30802,0.03937 11.1846,7.3272c-0.01596,0.94291 -0.24582,2.92494 -0.99796,4.36298c-1.24805,2.38618 -3.44288,6.53336 -3.44288,6.53336l-2.25267,-3.75721l-1.59904,6.21141l-3.72628,-4.64655l-2.37775,2.83749l-1.62948,-4.83481l-2.57455,2.48063l-2.7253,-3.68008c0,0 -1.04327,-4.78137 -1.04327,-5.50723z" fill="url(#color-5)" stroke="url(#color-6)" stroke-width="1"/><path d="M267.6538,179.66389c-6.01167,0 -10.88511,-1.21216 -10.88511,-1.96291c0,-1.08408 4.87343,-1.9629 10.88511,-1.9629c6.01167,0 10.80178,1.04549 10.80178,2.12957c0,0.91742 -4.7901,1.79624 -10.80178,1.79624z" fill="url(#color-7)" stroke="#000000" stroke-width="1"/><path d="M262.62554,184.98747c0,-2.77703 2.25123,-5.02826 5.02826,-5.02826c2.77702,0 5.02826,2.25123 5.02826,5.02826c0,2.77703 -2.25123,5.02826 -5.02826,5.02826c-2.77702,0 -5.02826,-2.25123 -5.02826,-5.02826z" fill="url(#color-8)" stroke="none" stroke-width="1"/><path d="M265.0385,184.98747c0,-1.44437 1.1709,-2.61529 2.61528,-2.61529c1.44437,0 2.61528,1.17091 2.61528,2.61529c0,1.44437 -1.1709,2.61528 -2.61528,2.61528c-1.44437,0 -2.61528,-1.17089 -2.61528,-2.61528z" fill="url(#color-9)" stroke="#000000" stroke-width="1"/><text transform="translate(201.08,170.56883) scale(0.21667,0.21667)" font-size="40" xml:space="preserve" fill="#ff0000" fill-rule="nonzero" stroke="none" stroke-width="1" stroke-linecap="butt" stroke-linejoin="miter" stroke-miterlimit="10" stroke-dasharray="" stroke-dashoffset="0" font-family="Serif" font-weight="normal" text-anchor="start" style="mix-blend-mode: normal"><tspan x="0" dy="0">Mysterious Object</tspan></text><text transform="translate(200.3,195.63118) scale(0.12749,0.12749)" font-size="40" xml:space="preserve" fill="#ff0000" fill-rule="nonzero" stroke="none" stroke-width="1" stroke-linecap="butt" stroke-linejoin="miter" stroke-miterlimit="10" stroke-dasharray="" stroke-dashoffset="0" font-family="Serif" font-weight="normal" text-anchor="start" style="mix-blend-mode: normal"><tspan x="0" dy="0">20k R</tspan></text></g></g></svg>