<svg version="1.1" xmlns="http://www.w3.org/2000/svg" xmlns:xlink="http://www.w3.org/1999/xlink" width="253.93783" height="185.31877" viewBox="0,0,253.93783,185.31877"><defs><linearGradient x1="310.06247" y1="200.34215" x2="310.06247" y2="275.57656" gradientUnits="userSpaceOnUse" id="color-1"><stop offset="0" stop-color="#636363"/><stop offset="1" stop-color="#424242"/></linearGradient><radialGradient cx="311.69909" cy="219.87595" r="13.35527" gradientUnits="userSpaceOnUse" id="color-2"><stop offset="0" stop-color="#ffe7d5"/><stop offset="1" stop-color="#ffe7d5" stop-opacity="0"/></radialGradient><linearGradient x1="310.663" y1="213.24666" x2="310.663" y2="235.2659" gradientUnits="userSpaceOnUse" id="color-3"><stop offset="0" stop-color="#9c9486" stop-opacity="0.68235"/><stop offset="1" stop-color="#ab926c" stop-opacity="0.7098"/></linearGradient><linearGradient x1="310.66592" y1="213.91592" x2="310.66592" y2="234.34806" gradientUnits="userSpaceOnUse" id="color-4"><stop offset="0" stop-color="#8f8572" stop-opacity="0.6902"/><stop offset="1" stop-color="#bda888" stop-opacity="0.76078"/></linearGradient><linearGradient x1="310.66288" y1="212.88712" x2="310.66288" y2="235.93624" gradientUnits="userSpaceOnUse" id="color-5"><stop offset="0" stop-color="#857558" stop-opacity="0.66275"/><stop offset="1" stop-color="#ccbba1" stop-opacity="0.73333"/></linearGradient><linearGradient x1="310.663" y1="212.46938" x2="310.663" y2="236.60269" gradientUnits="userSpaceOnUse" id="color-6"><stop offset="0" stop-color="#a39b8b" stop-opacity="0.72157"/><stop offset="1" stop-color="#d1c1a5" stop-opacity="0.66275"/></linearGradient><linearGradient x1="310.663" y1="210.78815" x2="310.663" y2="237.4596" gradientUnits="userSpaceOnUse" id="color-7"><stop offset="0" stop-color="#9c9486" stop-opacity="0.68235"/><stop offset="1" stop-color="#ab926c" stop-opacity="0.7098"/></linearGradient><linearGradient x1="310.66655" y1="211.6721" x2="310.66655" y2="236.42114" gradientUnits="userSpaceOnUse" id="color-8"><stop offset="0" stop-color="#8f8572" stop-opacity="0.6902"/><stop offset="1" stop-color="#bda888" stop-opacity="0.76078"/></linearGradient><radialGradient cx="293.51067" cy="221.03677" r="13.31394" gradientUnits="userSpaceOnUse" id="color-9"><stop offset="0" stop-color="#000000"/><stop offset="1" stop-color="#000000" stop-opacity="0.32157"/></radialGradient><radialGradient cx="311.95141" cy="220.03781" r="12.67322" gradientUnits="userSpaceOnUse" id="color-10"><stop offset="0" stop-color="#ffe3bf"/><stop offset="1" stop-color="#ffe3bf" stop-opacity="0"/></radialGradient><radialGradient cx="312.00007" cy="219.87595" r="12.15629" gradientUnits="userSpaceOnUse" id="color-11"><stop offset="0" stop-color="#ffe8c7"/><stop offset="1" stop-color="#ffe8c7" stop-opacity="0"/></radialGradient><radialGradient cx="313.6214" cy="218.14534" r="12.1964" gradientUnits="userSpaceOnUse" id="color-12"><stop offset="0" stop-color="#e0cfb3"/><stop offset="1" stop-color="#aba599"/></radialGradient><linearGradient x1="298.38016" y1="219.87595" x2="322.94585" y2="219.87595" gradientUnits="userSpaceOnUse" id="color-13"><stop offset="0" stop-color="#070400"/><stop offset="1" stop-color="#070400" stop-opacity="0"/></linearGradient><radialGradient cx="311.03727" cy="255.02682" r="15.41398" gradientUnits="userSpaceOnUse" id="color-14"><stop offset="0" stop-color="#ffccc4"/><stop offset="1" stop-color="#ffccc4" stop-opacity="0"/></radialGradient><radialGradient cx="311.3284" cy="255.21364" r="14.6268" gradientUnits="userSpaceOnUse" id="color-15"><stop offset="0" stop-color="#ffbaa1"/><stop offset="1" stop-color="#ffbaa1" stop-opacity="0"/></radialGradient><radialGradient cx="311.38457" cy="255.02682" r="14.03019" gradientUnits="userSpaceOnUse" id="color-16"><stop offset="0" stop-color="#ffbaac"/><stop offset="1" stop-color="#ffbaac" stop-opacity="0"/></radialGradient><radialGradient cx="313.2559" cy="253.02945" r="14.07649" gradientUnits="userSpaceOnUse" id="color-17"><stop offset="0" stop-color="#ffcabc"/><stop offset="1" stop-color="#d4a493"/></radialGradient><linearGradient x1="295.71426" y1="254.99933" x2="324.06678" y2="254.99933" gradientUnits="userSpaceOnUse" id="color-18"><stop offset="0" stop-color="#070400"/><stop offset="1" stop-color="#070400" stop-opacity="0"/></linearGradient></defs><g transform="translate(-269.7193,-160.0288)"><g data-paper-data="{&quot;isPaintingLayer&quot;:true}" fill-rule="nonzero" stroke-linecap="butt" stroke-linejoin="miter" stroke-miterlimit="10" stroke-dasharray="" stroke-dashoffset="0" style="mix-blend-mode: normal"><path d="M271.73214,275.57656v-75.23442h76.66066v75.23442z" fill="#0a0a0a" stroke="url(#color-1)" stroke-width="3.5"/><text transform="translate(270.03135,187.4892) scale(0.6241,0.6241)" font-size="40" xml:space="preserve" fill="#ffffff" fill-rule="nonzero" stroke="none" stroke-width="1" stroke-linecap="butt" stroke-linejoin="miter" stroke-miterlimit="10" stroke-dasharray="" stroke-dashoffset="0" font-family="Malgun Gothic" font-weight="normal" text-anchor="start" style="mix-blend-mode: normal"><tspan x="0" dy="0">Gas Giant</tspan></text><text transform="translate(354.45435,215.62294) scale(0.45565,0.45565)" font-size="40" xml:space="preserve" fill="#d8d8d8" fill-rule="nonzero" stroke="none" stroke-width="1" stroke-linecap="butt" stroke-linejoin="miter" stroke-miterlimit="10" stroke-dasharray="" stroke-dashoffset="0" font-family="Malgun Gothic" font-weight="normal" text-anchor="start" style="mix-blend-mode: normal"><tspan x="0" dy="0">Common Resources:</tspan></text><text transform="translate(354.45435,256.62748) scale(0.45566,0.45566)" font-size="40" xml:space="preserve" fill="#d8d8d8" fill-rule="nonzero" stroke="none" stroke-width="1" stroke-linecap="butt" stroke-linejoin="miter" stroke-miterlimit="10" stroke-dasharray="" stroke-dashoffset="0" font-family="Malgun Gothic" font-weight="normal" text-anchor="start" style="mix-blend-mode: normal"><tspan x="0" dy="0">Rare Resources:</tspan></text><text transform="translate(271.38373,318.32071) scale(0.45566,0.45566)" font-size="40" xml:space="preserve" fill="#d8d8d8" fill-rule="nonzero" stroke="none" stroke-width="1" stroke-linecap="butt" stroke-linejoin="miter" stroke-miterlimit="10" stroke-dasharray="" stroke-dashoffset="0" font-family="Malgun Gothic" font-weight="normal" text-anchor="start" style="mix-blend-mode: normal"><tspan x="0" dy="0">Has water:</tspan></text><text transform="translate(271.38373,296.92705) scale(0.45566,0.45566)" font-size="40" xml:space="preserve" fill="#d8d8d8" fill-rule="nonzero" stroke="none" stroke-width="1" stroke-linecap="butt" stroke-linejoin="miter" stroke-miterlimit="10" stroke-dasharray="" stroke-dashoffset="0" font-family="Malgun Gothic" font-weight="normal" text-anchor="start" style="mix-blend-mode: normal"><tspan x="0" dy="0">Has fossil fuels:</tspan></text><text transform="translate(355.17562,233.72207) scale(0.37382,0.37382)" font-size="40" xml:space="preserve" fill="#9f9f9f" fill-rule="nonzero" stroke="none" stroke-width="1" stroke-linecap="butt" stroke-linejoin="miter" stroke-miterlimit="10" stroke-dasharray="" stroke-dashoffset="0" font-family="Malgun Gothic" font-weight="normal" text-anchor="start" style="mix-blend-mode: normal"><tspan x="0" dy="0">Hydrogen, Helium</tspan></text><text transform="translate(355.17562,275.43973) scale(0.37383,0.37383)" font-size="40" xml:space="preserve" fill="#9f9f9f" fill-rule="nonzero" stroke="none" stroke-width="1" stroke-linecap="butt" stroke-linejoin="miter" stroke-miterlimit="10" stroke-dasharray="" stroke-dashoffset="0" font-family="Malgun Gothic" font-weight="normal" text-anchor="start" style="mix-blend-mode: normal"><tspan x="0" dy="0">Xenon</tspan></text><text transform="translate(401.89328,297.19811) scale(0.37383,0.37383)" font-size="40" xml:space="preserve" fill="#9f9f9f" fill-rule="nonzero" stroke="none" stroke-width="1" stroke-linecap="butt" stroke-linejoin="miter" stroke-miterlimit="10" stroke-dasharray="" stroke-dashoffset="0" font-family="Malgun Gothic" font-weight="normal" text-anchor="start" style="mix-blend-mode: normal"><tspan x="0" dy="0">False</tspan></text><text transform="translate(361.25344,318.59993) scale(0.37383,0.37383)" font-size="40" xml:space="preserve" fill="#9f9f9f" fill-rule="nonzero" stroke="none" stroke-width="1" stroke-linecap="butt" stroke-linejoin="miter" stroke-miterlimit="10" stroke-dasharray="" stroke-dashoffset="0" font-family="Malgun Gothic" font-weight="normal" text-anchor="start" style="mix-blend-mode: normal"><tspan x="0" dy="0">False</tspan></text><text transform="translate(271.38373,340.67705) scale(0.45566,0.45566)" font-size="40" xml:space="preserve" fill="#d8d8d8" fill-rule="nonzero" stroke="none" stroke-width="1" stroke-linecap="butt" stroke-linejoin="miter" stroke-miterlimit="10" stroke-dasharray="" stroke-dashoffset="0" font-family="Malgun Gothic" font-weight="normal" text-anchor="start" style="mix-blend-mode: normal"><tspan x="0" dy="0">Wind data:</tspan></text><text transform="translate(364.50344,340.84993) scale(0.37383,0.37383)" font-size="40" xml:space="preserve" fill="#9f9f9f" fill-rule="nonzero" stroke="none" stroke-width="1" stroke-linecap="butt" stroke-linejoin="miter" stroke-miterlimit="10" stroke-dasharray="" stroke-dashoffset="0" font-family="Malgun Gothic" font-weight="normal" text-anchor="start" style="mix-blend-mode: normal"><tspan x="0" dy="0">FRQ: 10/10, STR: 5/5</tspan></text><g><path d="M311.69909,233.53002c-7.37588,0 -12.94735,-6.05354 -12.94735,-13.59446c0,-7.54093 5.57145,-13.71365 12.94735,-13.71365c7.37588,0 13.35527,6.11315 13.35527,13.65406c0,7.54093 -5.97939,13.65406 -13.35527,13.65406z" data-paper-data="{&quot;index&quot;:null}" fill="url(#color-2)" stroke="none" stroke-width="0.5"/><path d="M286.91932,217.83338c3.31456,-4.93793 16.6319,-6.06534 29.74513,-2.51805c13.11326,3.54729 21.05665,10.4259 17.74207,15.36385c-3.31456,4.93793 -16.63192,6.06529 -29.74511,2.51799c-13.11322,-3.54727 -21.0566,-10.42588 -17.74203,-15.36381z" data-paper-data="{&quot;index&quot;:null}" fill="none" stroke="url(#color-3)" stroke-width="1.375"/><path d="M288.1183,218.1491c3.13399,-4.57291 15.76957,-5.60132 28.22226,-2.29706c12.45272,3.30426 20.00703,9.69001 16.87304,14.26287c-3.13399,4.57291 -15.76954,5.60132 -28.22224,2.29706c-12.45272,-3.30426 -20.00707,-9.68999 -16.87308,-14.26287z" data-paper-data="{&quot;index&quot;:null}" fill="none" stroke="url(#color-4)" stroke-width="1.375"/><path d="M285.85272,217.6945c3.46708,-5.17132 17.3857,-6.35612 31.08802,-2.64634c13.70232,3.70979 21.99964,10.90932 18.53251,16.08064c-3.46712,5.17132 -17.38574,6.35617 -31.08804,2.64636c-13.70232,-3.70979 -21.99961,-10.90932 -18.53247,-16.08064z" data-paper-data="{&quot;index&quot;:null}" fill="none" stroke="url(#color-5)" stroke-width="1.375"/><path d="M284.65972,217.50865c3.63728,-5.41687 18.22791,-6.66181 32.58906,-2.7807c14.36121,3.88111 23.05461,11.41858 19.41735,16.83545c-3.63728,5.41687 -18.22791,6.66181 -32.58906,2.78067c-14.36121,-3.88111 -23.05461,-11.41856 -19.41735,-16.83542z" data-paper-data="{&quot;index&quot;:null}" fill="none" stroke="url(#color-6)" stroke-width="1.375"/><path d="M282.01917,216.34394c3.9986,-5.98123 20.06437,-7.34678 35.88391,-3.05007c15.81956,4.29673 25.4023,12.62867 21.40368,18.6099c-3.9986,5.98123 -20.06437,7.34676 -35.88389,3.05002c-15.81951,-4.29673 -25.40224,-12.62864 -21.40362,-18.60987z" data-paper-data="{&quot;index&quot;:null}" fill="none" stroke="url(#color-7)" stroke-width="1.375"/><path d="M283.38284,216.79968c3.79224,-5.53906 19.08185,-6.78477 34.15018,-2.7824c15.06835,4.00241 24.20941,11.73731 20.41712,17.27635c-3.79226,5.53906 -19.08185,6.78477 -34.15018,2.7824c-15.06835,-4.00241 -24.20944,-11.73729 -20.41718,-17.27635z" data-paper-data="{&quot;index&quot;:null}" fill="none" stroke="url(#color-8)" stroke-width="1.375"/><path d="M281.46028,223.126c0,0 -2.92213,-3.55836 0.52389,-8.11922c3.50047,-3.04042 5.93425,-3.31656 5.93425,-3.31656l18.90625,3.29879c0,0 -14.34019,-1.55059 -18.12565,3.71141c-3.06134,5.88497 11.74919,11.68295 11.74919,11.68295z" fill="url(#color-9)" stroke="none" stroke-width="0"/><path d="M311.95141,232.99458c-6.99926,0 -12.67322,-5.80101 -12.67322,-12.95679c0,-7.15585 5.674,-12.95679 12.67322,-12.95679c6.99926,0 12.67322,5.80099 12.67322,12.95679c0,7.15585 -5.674,12.95679 -12.67322,12.95679z" data-paper-data="{&quot;index&quot;:null}" fill="url(#color-10)" stroke="none" stroke-width="0.5"/><path d="M312.00007,232.07258c-6.71373,0 -12.33443,-5.52022 -12.33443,-12.25623c0,-6.73603 5.62072,-12.13704 12.33443,-12.13704c6.71373,0 12.15629,5.46062 12.15629,12.19664c0,6.73603 -5.44255,12.19664 -12.15629,12.19664z" data-paper-data="{&quot;index&quot;:null}" fill="url(#color-11)" stroke="none" stroke-width="0.5"/><path d="M310.66303,232.07235c-6.73589,0 -12.1964,-5.46054 -12.1964,-12.1964c0,-6.73589 5.46054,-12.1964 12.1964,-12.1964c6.73589,0 12.1964,5.46054 12.1964,12.1964c0,6.73589 -5.46054,12.1964 -12.1964,12.1964z" data-paper-data="{&quot;index&quot;:null}" fill="url(#color-12)" stroke="none" stroke-width="0.5"/><path d="M306.53912,208.32396c0.24677,-0.08535 0.49637,-0.15998 0.74836,-0.2252c0.88384,-0.2859 1.87551,-0.31755 2.72666,-0.40478c0.68029,-0.06972 1.91847,-0.03654 2.05522,-0.03612l0.0298,0.02076l0.01786,0.00276l0.00299,-0.01658l0.49452,0.09084c0.92286,0.08901 3.85626,1.26326 3.85626,1.48339c0,0.31731 -0.31923,0.40172 -0.35885,0.39289l-1.26457,0.00232l0.00885,-0.04469c-1.64639,0.11108 -2.86219,-0.34304 -4.55549,-0.41094c-1.00234,-0.04016 -2.49638,0.30986 -3.46465,0.30003c-0.22721,0.07248 -1.95194,-0.4172 -1.95194,-0.4172c0,0 1.55866,-0.73411 1.65499,-0.73745z" fill-opacity="0.65098" fill="#686f98" stroke="none" stroke-width="0.5"/><path d="M302.32454,210.98044l0.11351,0.02858c0.01135,-0.08932 0.04862,-0.18688 0.12562,-0.29013c0.34823,-0.46701 0.81253,-0.11675 0.81253,-0.11675c2.98947,2.26119 9.06774,1.15149 12.66313,0.89195c0.54045,-0.00025 3.07386,-0.65393 3.56685,0.24086c0.11255,0.20429 0.56887,0.38866 0.3599,0.79419c-0.83574,1.62179 -10.56371,1.11433 -12.24773,0.87214c-1.87261,-0.1108 -3.44915,-0.76623 -5.24298,-1.17953l-0.43235,-0.1086c0,0 -0.24271,-0.29714 -0.20062,-0.46645c0.0503,-0.20234 0.48217,-0.66623 0.48217,-0.66623z" fill-opacity="0.52157" fill="#b59e69" stroke="none" stroke-width="0.5"/><path d="M320.54479,212.60312c0.05809,0.58087 -0.52277,0.63896 -0.52277,0.63896l-0.36427,0.01105c-1.08967,0.45048 -2.41818,0.94324 -3.56909,0.89402c-4.49429,0.28021 -10.13838,0.61452 -14.28583,-1.60878c0,0 -0.51399,-0.27675 -0.23722,-0.79075c0.27675,-0.51399 0.79075,-0.23724 0.79075,-0.23724c3.95348,2.13938 9.45269,1.73742 13.73475,1.46923c0.952,0.0948 2.20477,-0.42041 3.11761,-0.8042l0.69713,-0.09509c0,0 0.58087,-0.05809 0.63896,0.52277z" fill-opacity="0.45098" fill="#b39a6b" stroke="none" stroke-width="0.5"/><path d="M320.63264,212.83103c0.46701,0.35026 0.11675,0.81726 0.11675,0.81726l-0.52179,0.43637c-1.93998,0.35082 -3.60501,1.0705 -5.63104,1.06901c-4.05588,0.64662 -9.62848,0.22008 -13.38025,-1.82078c0,0 -0.51247,-0.27952 -0.23295,-0.79203c0.27952,-0.51247 0.79203,-0.23295 0.79203,-0.23295c3.58391,1.96071 8.85565,2.2883 12.72984,1.68179c1.98525,-0.00145 3.60704,-0.7054 5.51351,-1.05376l-0.20338,0.01179c0,0 0.35026,-0.46701 0.81726,-0.11675z" fill-opacity="0.45098" fill="#b9a784" stroke="none" stroke-width="0.5"/><path d="M321.20773,213.90949c0.18458,0.5538 -0.36922,0.73842 -0.36922,0.73842l-0.50862,0.16859c-2.0569,0.56014 -4.10938,0.76157 -6.16805,1.2768c-4.84065,1.19332 -8.79002,-1.01359 -13.34567,-1.74181c0,0 -0.57583,-0.09597 -0.47985,-0.67179c0.09597,-0.57583 0.67179,-0.47985 0.67179,-0.47985c4.35178,0.74943 8.25158,2.93436 12.87055,1.76077c2.05422,-0.51301 4.09481,-0.71086 6.14403,-1.27052l0.44663,-0.14982c0,0 0.5538,-0.18458 0.73842,0.36922z" fill-opacity="0.37647" fill="#d6d58d" stroke="none" stroke-width="0.5"/><path d="M321.51112,214.40712c0.32381,0.48571 -0.16191,0.80951 -0.16191,0.80951l-0.67015,0.40151c-1.90929,0.44037 -4.41252,0.70808 -6.13784,1.57076c-4.75304,1.21114 -9.60263,-1.31503 -14.10108,-2.53163c0,0 -0.56319,-0.1536 -0.40959,-0.71679c0.1536,-0.56319 0.71679,-0.40959 0.71679,-0.40959c4.19709,1.15311 8.94608,3.64667 13.38882,2.56302c1.75161,-0.87583 4.34167,-1.16577 6.28037,-1.61338l0.28506,-0.23533c0,0 0.48574,-0.32381 0.80954,0.16191z" fill-opacity="0.4" fill="#c8b68e" stroke="none" stroke-width="0.5"/><path d="M321.59166,215.7038c0.14157,0.56634 -0.42474,0.70791 -0.42474,0.70791l-0.24943,0.06108c-2.28848,0.40746 -4.60091,1.32939 -6.88403,1.59771c-5.05482,0.55096 -9.18169,-1.33004 -14.04868,-2.45236c0,0 -0.56882,-0.13128 -0.43755,-0.70007c0.13128,-0.56882 0.70007,-0.43755 0.70007,-0.43755c4.70146,1.08573 8.78739,3.03691 13.65347,2.43001c2.22056,-0.22972 4.58167,-1.17166 6.80784,-1.58645l0.17513,-0.04504c0,0 0.56632,-0.14157 0.70791,0.42474z" fill-opacity="0.74902" fill="#c7c1a9" stroke="none" stroke-width="0.5"/><path d="M322.54294,217.39119c0.36387,0.45583 -0.09098,0.82051 -0.09098,0.82051l-0.33513,0.26066c-2.78099,1.59932 -6.17363,2.8039 -9.37895,3.05098c-4.54765,0.00238 -9.16227,-3.52116 -13.48056,-3.18545c0,0 -0.58078,0.04476 -0.62544,-0.53728c-0.04467,-0.58205 0.53608,-0.6268 0.53608,-0.6268c4.39858,-0.33643 8.9459,3.18031 13.52521,3.18286c2.98018,-0.2298 6.2747,-1.36413 8.83669,-2.8928l0.1944,-0.16387c0,0 0.45484,-0.36466 0.81871,0.09117z" fill-opacity="0.63529" fill="#cbc3ad" stroke="none" stroke-width="0.5"/><path d="M321.97201,215.69046c0.26108,0.52211 -0.26106,0.7832 -0.26106,0.7832l-0.22561,0.09726c-2.49776,0.62323 -4.80226,2.09288 -7.35453,2.08429c-3.65185,0.74371 -11.29869,-0.91247 -14.47431,-2.78688c0,0 -0.50056,-0.30035 -0.20023,-0.80092c0.30033,-0.50056 0.80092,-0.20023 0.80092,-0.20023c2.94018,1.80121 10.28764,3.30903 13.75858,2.62618c2.4872,-0.00736 4.74021,-1.44231 7.18641,-2.05513l-0.01333,-0.00887c0,0 0.52211,-0.26106 0.7832,0.26108z" fill-opacity="0.67451" fill="#c7bdad" stroke="none" stroke-width="0.5"/><path d="M322.74174,218.45855c0.19861,0.54862 -0.3476,0.74812 -0.3476,0.74812l-0.58122,0.21228c-3.3745,1.21668 -5.87131,3.25664 -9.61325,2.79139c-4.48071,-0.40912 -8.71821,-2.5073 -13.13693,-3.2418c0,0 -0.5733,-0.09597 -0.47775,-0.67179c0.09555,-0.57583 0.66885,-0.47985 0.66885,-0.47985c4.39186,0.74084 8.61997,2.8263 13.07055,3.23266c3.48889,0.44252 5.93343,-1.56196 9.09128,-2.72783l0.58122,-0.21228c0,0 0.54621,-0.1995 0.74486,0.34911z" fill-opacity="0.67451" fill="#cfc5b9" stroke="none" stroke-width="0.5"/><path d="M320.50166,213.7781c0.14279,-0.09689 0.45722,-0.24257 0.77164,0.06239c0.42557,0.41277 0,0.82558 0,0.82558l-0.32193,0.20348c-1.52911,0.40086 -3.09599,0.57751 -4.63115,1.00281c-5.73241,1.85155 -9.93605,-1.0688 -15.47643,-1.3546c0,0 -0.60093,-0.03239 -0.56754,-0.61527c0.03339,-0.58288 0.63429,-0.55049 0.63429,-0.55049c5.36531,0.30022 9.52994,3.19255 15.05389,1.40498c1.50162,-0.41627 3.04236,-0.59297 4.53719,-0.97887z" fill-opacity="0.58039" fill="#b5a891" stroke="none" stroke-width="0.5"/><path d="M322.27142,216.15841c0.32039,0.48571 -0.16021,0.80951 -0.16021,0.80951l-0.28056,0.16903c-3.27026,1.19893 -6.46503,2.75391 -10.00447,2.4688c-3.37019,-0.86472 -8.9157,-2.45843 -12.30008,-2.43366c0,0 -0.57762,0 -0.57762,-0.58376c0,-0.58376 0.57762,-0.58376 0.57762,-0.58376c3.53421,0.02062 8.97086,1.57366 12.48516,2.44872c3.30209,0.24593 6.36946,-1.28789 9.42463,-2.41358l0.03453,-0.04325c0,0 0.4806,-0.32381 0.80103,0.16191z" fill-opacity="0.45098" fill="#d6c9b0" stroke="none" stroke-width="0.5"/><path d="M322.47922,217.52592c0.23598,0.53655 -0.31463,0.76652 -0.31463,0.76652l-0.4526,0.18393c-2.45005,0.67989 -4.82597,2.10726 -7.3897,2.30019c-5.16216,0.82743 -9.56177,-3.17366 -14.68638,-2.86249c0,0 -0.59801,0.03428 -0.63317,-0.54848c-0.03517,-0.58276 0.56284,-0.61703 0.56284,-0.61703c5.08128,-0.27612 9.56833,3.6997 14.61215,2.86901c2.4819,-0.18531 4.82944,-1.59995 7.20512,-2.26378l0.30982,-0.13447c0,0 0.55061,-0.22995 0.78658,0.30661z" fill-opacity="0.45098" fill="#d6c59b" stroke="none" stroke-width="0.5"/><path d="M321.51575,216.67714c0.08068,-0.07115 0.44055,-0.34811 0.80045,0.01548c0.40861,0.41277 0,0.82558 0,0.82558l-0.20271,0.1624c-2.64089,1.33399 -6.20152,2.8383 -9.15827,2.60853c-4.59213,-0.00427 -8.71158,-2.32303 -13.1743,-2.81581c0,0 -0.5743,-0.06447 -0.51049,-0.64466c0.06381,-0.58019 0.63813,-0.51572 0.63813,-0.51572c4.43592,0.50535 8.53224,2.81394 13.09098,2.80953c2.74275,0.21314 6.0505,-1.20517 8.51616,-2.44533z" fill-opacity="0.4" fill="#d6c59a" stroke="none" stroke-width="0.5"/><path d="M321.96235,215.54853c0.07343,0.57925 -0.51415,0.65166 -0.51415,0.65166l-0.31684,0.0276c-2.08684,0.67276 -3.76877,1.45221 -6.01823,1.72705c-5.16055,0.00688 -10.05909,-2.35408 -15.00232,-2.33393c0,0 -0.59216,0 -0.59216,-0.58376c0,-0.58376 0.59216,-0.58376 0.59216,-0.58376c4.95478,0.01768 9.77913,2.32863 14.92873,2.33617c2.15032,-0.2675 3.72499,-1.00418 5.71732,-1.66937l0.54447,-0.07853c0,0 0.5876,-0.07241 0.66105,0.50684z" fill-opacity="0.37647" fill="#d2c5b2" stroke="none" stroke-width="0.5"/><path d="M322.88274,219.34794c0,0.58376 -0.5825,0.58376 -0.5825,0.58376l0.00116,-0.02246c-3.35367,0.95228 -6.02225,3.31376 -9.55231,3.31245c-4.65221,-0.30961 -9.10629,-3.51116 -13.69574,-3.44919c0,0 -0.5825,0 -0.5825,-0.58376c0,-0.58376 0.5825,-0.58376 0.5825,-0.58376c4.66695,0.04651 9.03327,3.13438 13.7345,3.44982c3.32563,-0.00128 6.00631,-2.34875 9.19348,-3.26816l0.31888,-0.02246c0,0 0.5825,0 0.5825,0.58376z" fill-opacity="0.37647" fill="#bab5a7" stroke="none" stroke-width="0.5"/><path d="M322.40601,221.25845c0,0.58376 -0.5825,0.58376 -0.5825,0.58376l0.06538,-0.0258c-3.56928,1.10041 -5.88316,2.97693 -9.77078,2.67529c-4.14569,-0.65415 -8.73004,-2.99243 -12.87641,-2.39001c0,0 -0.57664,0.08257 -0.65902,-0.49533c-0.08238,-0.5779 0.49426,-0.66045 0.49426,-0.66045c0.17144,-0.02423 0.34337,-0.04381 0.5157,-0.05903c-0.19345,-0.02132 -0.38806,-0.03963 -0.58388,-0.05469c0,0 -0.58078,-0.04476 -0.5361,-0.62682c0.04467,-0.58205 0.62544,-0.53728 0.62544,-0.53728c4.67219,0.3613 8.63545,2.56162 13.23233,3.18372c3.61638,0.00103 6.28815,-2.26731 9.66953,-3.11493l0.19423,-0.01741c0,0 0.5825,0 0.5825,0.58376c0,0.43983 -0.33065,0.54827 -0.4937,0.575c0.07192,0.08565 0.12301,0.20733 0.12301,0.38024z" fill-opacity="0.54118" fill="#b9a580" stroke="none" stroke-width="0.5"/><path d="M299.05221,220.36567c0.56933,-0.10442 0.67287,0.46993 0.67287,0.46993l0.07078,0.40105c3.69468,-0.2159 8.08798,1.52148 11.85586,2.57759c3.19283,-0.25886 6.54834,-1.7365 9.03099,-1.80948c0.21548,-0.09604 0.42914,-0.19014 0.64081,-0.28105l0.34907,-0.4842c0.10485,-0.14909 0.27733,-0.24642 0.47233,-0.24642c0.3196,0 0.57867,0.26136 0.57867,0.58376c0,0.03965 -0.00392,0.07834 -0.01137,0.11577l-0.10319,0.57243l-0.21616,-0.03965l-0.18493,0.25653c-0.76001,1.62401 -3.48509,2.36081 -6.36394,2.61009c-0.98283,0.21966 -1.96973,0.32294 -2.94016,0.24607c-0.21443,-0.04983 -0.43222,-0.1037 -0.65307,-0.161c-1.49992,-0.05095 -2.80922,-0.20133 -3.61249,-0.3815c-2.05449,-0.61075 -9.7421,-1.2096 -9.95368,-3.21938l-0.09821,-0.53176c0,0 -0.10352,-0.57435 0.46582,-0.67877z" fill-opacity="0.45098" fill="#c5b487" stroke="none" stroke-width="0.5"/><path d="M319.22105,211.28143c0,0.58376 -0.58376,0.58376 -0.58376,0.58376h-0.47761c-0.61883,-0.00178 -1.13759,0.07484 -1.73379,0.23797c-3.89259,1.40469 -9.40535,0.24994 -13.33616,-0.45966c0,0 -0.57435,-0.10442 -0.46993,-0.67877c0.10442,-0.57435 0.67877,-0.46993 0.67877,-0.46993c3.73157,0.68286 9.08656,1.84757 12.77393,0.49559c0.71247,-0.19381 1.34832,-0.2909 2.08718,-0.29274h0.47761c0,0 0.58376,0 0.58376,0.58376z" fill-opacity="0.33725" fill="#b19b77" stroke="none" stroke-width="0.5"/><path d="M318.11859,210.26857c0.2137,0.54201 -0.32058,0.75879 -0.32058,0.75879l-0.32387,0.12733c-4.61747,1.23954 -8.7856,-0.01658 -13.42725,-0.35239c0,0 -0.57396,-0.04159 -0.53295,-0.62387c0.041,-0.58229 0.61496,-0.5407 0.61496,-0.5407c4.4725,0.32457 8.60571,1.66559 13.04246,0.39059l0.19925,-0.08495c0,0 0.53428,-0.21681 0.74799,0.3252z" fill-opacity="0.45098" fill="#ad9166" stroke="none" stroke-width="0.5"/><path d="M317.46977,209.71643c0.48613,0.32317 -0.58376,0.58376 -0.58376,0.58376l-0.10785,-0.00943c-4.01545,0.72553 -7.75334,-0.31198 -11.67354,-0.30899c0,0 -0.96893,-0.1451 -0.58376,-0.58376c0.42888,-0.48845 0.91734,-0.39315 0.91734,-0.39315c3.85064,0.00273 9.9348,-0.6823 12.03157,0.71158z" fill-opacity="0.29804" fill="#4b5873" stroke="none" stroke-width="0.5"/><path d="M316.45858,209.13248c0.18458,0.4134 -0.13095,0.50356 -0.13095,0.50356l-0.29094,0.06017c-3.13525,0.2127 -7.26794,0.34456 -10.2776,-0.20929c0,0 -0.56632,-0.10568 -0.42474,-0.52845c0.14157,-0.42276 0.70791,-0.31705 0.70791,-0.31705c2.88476,0.54715 9.18332,-0.1606 10.41633,0.49106z" fill-opacity="0.29804" fill="#7b8191" stroke="none" stroke-width="0.5"/><path d="M322.34954,222.82964c0.33931,0.47504 -0.13573,0.81432 -0.13573,0.81432l-0.35239,0.25111c-2.70985,2.10713 -5.96932,2.2988 -9.27402,2.2988c-4.48094,-0.00222 -8.6663,-2.16394 -13.09983,-2.49598c0,0 -0.58205,-0.04476 -0.53728,-0.6268c0.04479,-0.58205 0.62682,-0.53728 0.62682,-0.53728c4.40612,0.3469 8.56389,2.49486 13.01028,2.49254c3.03662,0 6.06225,-0.11181 8.55723,-2.05286l0.39059,-0.2796c0,0 0.47502,-0.33931 0.81432,0.13573z" fill-opacity="0.45098" fill="#d6bd94" stroke="none" stroke-width="0.5"/><path d="M321.53562,224.34327c0.36128,0.45583 -0.09032,0.82051 -0.09032,0.82051l-0.26909,0.21723c-1.84254,1.44163 -4.60303,1.76125 -6.87899,1.87422c-5.00678,-0.33118 -9.60417,-2.42997 -14.59016,-2.70742c0,0 -0.57743,-0.03239 -0.54535,-0.61523c0.03208,-0.58288 0.60949,-0.55049 0.60949,-0.55049c4.97505,0.28107 9.54914,2.36375 14.53561,2.70567c2.00578,-0.10305 4.53826,-0.35077 6.15927,-1.62834l0.25664,-0.20733c0,0 0.4516,-0.36466 0.81286,0.09117z" fill-opacity="0.45098" fill="#b9aa84" stroke="none" stroke-width="0.5"/><path d="M321.19272,225.65781c0.32381,0.48571 -0.16189,0.80954 -0.16189,0.80954l-0.23841,0.15045c-2.38605,1.10126 -4.44819,1.51255 -7.08069,1.32579c-4.5455,-0.35257 -9.12586,-1.73758 -13.64698,-2.55515c0,0 -0.57435,-0.10442 -0.46993,-0.67877c0.10442,-0.57435 0.67877,-0.46993 0.67877,-0.46993c4.4771,0.81809 9.02326,2.19598 13.52449,2.5395c2.44313,0.17575 4.29304,-0.20058 6.50505,-1.22154l0.08004,-0.06183c0,0 0.48571,-0.32383 0.80951,0.16189z" fill-opacity="0.45098" fill="#c2aa7a" stroke="none" stroke-width="0.5"/><path d="M320.60744,226.60077c0.22701,0.53657 -0.30269,0.76652 -0.30269,0.76652l-0.41152,0.17646c-3.47245,1.16113 -6.56403,0.86322 -10.05405,0.33083c-0.17445,0.09009 -0.36389,0.06611 -0.36389,0.06611l-0.5212,-0.07565c-2.52386,-0.80804 -5.58947,-1.7581 -8.20951,-1.51431c0,0 -0.57396,0.05285 -0.62612,-0.52851c-0.05219,-0.58136 0.52176,-0.63423 0.52176,-0.63423c2.77173,-0.25231 5.99021,0.71019 8.66095,1.56371l0.03325,0.0032c0.18696,-0.11052 0.40478,-0.07656 0.40478,-0.07656c3.41359,0.53498 6.41013,0.9116 9.78953,-0.24217l0.32198,-0.14197c0,0 0.52973,-0.22995 0.75674,0.30661z" fill-opacity="0.45098" fill="#d6c497" stroke="none" stroke-width="0.5"/><path d="M322.36904,222.55809c0.27227,0.52214 -0.27227,0.7832 -0.27227,0.7832l-0.11334,0.03983c-3.19519,2.40139 -4.8646,2.92393 -9.04131,2.19229c-4.13028,-0.35883 -8.84633,-2.49418 -12.98172,-1.75537c0,0 -0.59901,0.10442 -0.70791,-0.46993c-0.10891,-0.57435 0.49011,-0.67877 0.49011,-0.67877c4.31571,-0.73678 9.06776,1.37149 13.36374,1.7472c3.84216,0.66698 5.22381,0.30734 8.11645,-1.94711l0.32945,-0.17242c0,0 0.54456,-0.26106 0.81682,0.26106z" fill-opacity="0.45098" fill="#b7a38d" stroke="none" stroke-width="0.5"/><path d="M318.02885,229.16597c0.05198,0.58136 -0.51981,0.63423 -0.51981,0.63423l-0.56219,0.05184c-0.27643,0.0365 -0.55287,0.07299 -0.8293,0.10949c-4.52108,-0.31121 -9.37716,-0.61759 -13.78708,-1.33441c0,0 -0.56634,-0.09597 -0.47194,-0.67179c0.09438,-0.57583 0.66072,-0.47985 0.66072,-0.47985c1.85414,0.33038 3.81068,0.55778 5.79148,0.73694c-2.25486,-0.52478 -4.4832,-1.11636 -6.88225,-1.11636c0,0 -0.56945,0 -0.56945,-0.58376c0,-0.58376 0.56945,-0.58376 0.56945,-0.58376c4.31795,0 8.08261,1.91049 12.42449,1.91049c1.7335,0 3.47495,-0.20126 5.17855,-0.52128l-0.0587,-0.01751c0,0 0.4738,-0.32383 0.78969,0.16191c0.31589,0.48571 -0.15794,0.80954 -0.15794,0.80954l-0.36931,0.19477c-0.49094,0.09086 -0.98469,0.17284 -1.4803,0.24387c0.1298,0.0693 0.25125,0.20222 0.27392,0.45566z" fill-opacity="0.37647" fill="#cabba7" stroke="none" stroke-width="0.5"/><path d="M319.08602,228.34432c0.17926,0.5538 -0.35855,0.73842 -0.35855,0.73842l-0.2064,0.06806c-0.94156,0.22365 -1.77839,0.33349 -2.74093,0.33316c-4.57116,0.24775 -9.46654,-2.26205 -13.82832,-1.44208c0,0 -0.55775,0.10442 -0.65916,-0.46993c-0.10141,-0.57435 0.45633,-0.67877 0.45633,-0.67877c4.47097,-0.83392 9.34612,1.67596 14.00135,1.42366c0.89191,-0.00029 1.64259,-0.09608 2.51578,-0.30367l0.10281,-0.03806c0,0 0.5378,-0.1846 0.71707,0.3692z" fill-opacity="0.67451" fill="#c5bcaf" stroke="none" stroke-width="0.5"/><path d="M316.93371,229.64768c0.24931,0.52214 -0.24931,0.7832 -0.24931,0.7832l-0.452,0.16777c-0.38754,-0.00294 -0.77554,0.06419 -1.15319,0.15546c-4.11025,0.01102 -8.00389,-1.20198 -12.06013,-1.48347c0,0 -0.55623,-0.03884 -0.51915,-0.62131c0.03708,-0.58248 0.59332,-0.54364 0.59332,-0.54364c3.99307,0.28051 7.81735,1.47342 11.8598,1.4884c0.41858,-0.10116 0.84975,-0.16037 1.27935,-0.16296l-0.04659,-0.0445c0,0 0.49861,-0.26106 0.74791,0.26106z" fill-opacity="0.74902" fill="#cbc2ad" stroke="none" stroke-width="0.5"/><path d="M318.21159,228.67971c0.3646,0.44321 -0.06076,0.82313 -0.06076,0.82313l-0.5737,0.43838c-0.98362,0.27836 -1.90036,0.63328 -2.91376,0.80975c-4.40007,0.64662 -9.21066,-0.7676 -13.01749,-2.70823c0,0 -0.50108,-0.26106 -0.25053,-0.7832c0.25053,-0.52214 0.7516,-0.26106 0.7516,-0.26106c3.54229,1.87762 8.22397,3.22109 12.3451,2.5987c0.9711,-0.16819 1.8474,-0.51334 2.79026,-0.78234l0.13933,-0.19846c0,0 0.42535,-0.37991 0.78994,0.06333z" fill-opacity="0.37647" fill="#fff2f0" stroke="none" stroke-width="0.5"/><path d="M317.9473,229.21882c0,0.58376 -0.58376,0.58376 -0.58376,0.58376l-0.38885,-0.0068c-4.48964,0.68765 -9.31615,-0.23624 -13.62695,-1.50289c0,0 -0.56004,-0.16472 -0.39533,-0.72476c0.16472,-0.56004 0.72476,-0.39533 0.72476,-0.39533c4.14359,1.21995 8.80119,2.13659 13.11998,1.469l0.56638,-0.0068c0,0 0.58376,0 0.58376,0.58376z" fill-opacity="0.30196" fill="#e0d9cc" stroke="none" stroke-width="0.5"/><path d="M315.36953,230.49677c0.2464,0.52214 -0.2464,0.7832 -0.2464,0.7832l-0.2046,0.09499c-3.37828,0.95156 -7.4503,-0.74943 -10.8379,-1.25983c0,0 -0.5454,-0.08257 -0.4675,-0.66045c0.07792,-0.5779 0.62329,-0.49533 0.62329,-0.49533c3.20082,0.4869 7.21322,2.19044 10.39813,1.2875l-0.00427,-0.01117c0,0 0.49276,-0.26106 0.73916,0.26106z" fill-opacity="0.39216" fill="#c1b6a8" stroke="none" stroke-width="0.5"/><path d="M314.13176,230.98339c0.2429,0.40118 -0.28731,0.55838 -0.28731,0.55838c-0.17216,0.05105 -0.61927,0.18358 -0.90217,0.26746c-0.10183,0.08792 -0.23225,0.12656 -0.23225,0.12656l-0.26279,0.05971c-2.48253,0.17109 -4.86537,-0.27661 -7.1347,-1.12645c0,0 -0.53139,-0.1993 -0.29111,-0.58134c0.2403,-0.38203 0.77168,-0.18274 0.77168,-0.18274c2.00146,0.75179 4.11373,1.17528 6.30253,1.04433c0.09086,-0.06244 0.18516,-0.09041 0.18516,-0.09041c0.21557,-0.06391 0.43112,-0.12779 0.64669,-0.19171l0.43112,-0.12779c0,0 0.53022,-0.1572 0.77311,0.24402z" fill-opacity="0.50588" fill="#bea27b" stroke="none" stroke-width="0.5"/><path d="M310.66288,232.12049c-6.78364,0 -12.28282,-5.48209 -12.28282,-12.24458c0,-6.76247 5.49925,-12.24458 12.28284,-12.24458c2.40226,0 4.64341,0.68748 6.53632,1.87582c3.45249,2.1674 5.74653,6.00103 5.74653,10.36876c0,6.76247 -5.49927,12.24458 -12.28284,12.24458z" data-paper-data="{&quot;index&quot;:null}" fill="url(#color-13)" stroke="none" stroke-width="0.5"/></g><g stroke="none" stroke-width="0.5"><path d="M311.03727,270.78568c-8.51288,0 -14.9432,-6.9867 -14.9432,-15.69006c0,-8.70336 6.43029,-15.82762 14.9432,-15.82762c8.51288,0 15.41398,7.0555 15.41398,15.75884c0,8.70336 -6.90111,15.75884 -15.41398,15.75884z" data-paper-data="{&quot;index&quot;:null}" fill="url(#color-14)"/><path d="M311.3284,270.16769c-8.0782,0 -14.6268,-6.69523 -14.6268,-14.95408c0,-8.25893 6.54866,-14.95408 14.6268,-14.95408c8.0782,0 14.6268,6.69521 14.6268,14.95408c0,8.25893 -6.54866,14.95408 -14.6268,14.95408z" data-paper-data="{&quot;index&quot;:null}" fill="url(#color-15)"/><path d="M311.38457,269.10357c-7.74866,0 -14.23579,-6.37116 -14.23579,-14.14553c0,-7.77439 6.48716,-14.00798 14.23579,-14.00798c7.74866,0 14.03019,6.30239 14.03019,14.07676c0,7.77439 -6.28152,14.07676 -14.03019,14.07676z" data-paper-data="{&quot;index&quot;:null}" fill="url(#color-16)"/><path d="M309.84141,269.1033c-7.77424,0 -14.07649,-6.30228 -14.07649,-14.07649c0,-7.77424 6.30228,-14.07649 14.07649,-14.07649c7.77424,0 14.07649,6.30228 14.07649,14.07649c0,7.77424 -6.30228,14.07649 -14.07649,14.07649z" data-paper-data="{&quot;index&quot;:null}" fill="url(#color-17)"/><path d="M305.08189,241.6941c0.2848,-0.0985 0.57287,-0.18464 0.86372,-0.2599c1.02008,-0.32998 2.16462,-0.36649 3.14698,-0.46718c0.78516,-0.08048 2.21421,-0.04217 2.37203,-0.04169l0.03439,0.02396l0.02062,0.00318l0.00345,-0.01914l0.57075,0.10483c1.06512,0.10273 4.45071,1.45799 4.45071,1.71206c0,0.36622 -0.36843,0.46365 -0.41417,0.45346l-1.45951,0.00267l0.01021,-0.05158c-1.90019,0.1282 -3.3034,-0.39592 -5.25773,-0.4743c-1.15685,-0.04636 -2.88119,0.35763 -3.99873,0.34628c-0.26223,0.08366 -2.25283,-0.48152 -2.25283,-0.48152c0,0 1.79893,-0.84728 1.91011,-0.85114z" fill-opacity="0.65098" fill="#2e46ed"/><path d="M300.21755,244.76007l0.13101,0.03299c0.0131,-0.10308 0.05611,-0.21568 0.14499,-0.33486c0.40191,-0.539 0.93777,-0.13475 0.93777,-0.13475c3.4503,2.60976 10.46554,1.32898 14.61516,1.02943c0.62376,-0.00029 3.54769,-0.75474 4.11669,0.27799c0.1299,0.23579 0.65656,0.44858 0.41538,0.91662c-0.96457,1.87178 -12.19212,1.28611 -14.13572,1.00658c-2.16128,-0.12788 -3.98084,-0.88433 -6.05119,-1.36135l-0.49901,-0.12535c0,0 -0.28012,-0.34294 -0.23155,-0.53836c0.05805,-0.23352 0.55649,-0.76893 0.55649,-0.76893z" fill-opacity="0.52157" fill="#d6947c"/><path d="M321.24657,246.6329c0.06705,0.67041 -0.60336,0.73746 -0.60336,0.73746l-0.42042,0.01274c-1.25765,0.51992 -2.79094,1.08864 -4.11928,1.03183c-5.18709,0.3234 -11.70122,0.70924 -16.488,-1.85677c0,0 -0.59322,-0.31941 -0.27379,-0.91263c0.31941,-0.59322 0.91263,-0.27381 0.91263,-0.27381c4.5629,2.46916 10.90984,2.00524 15.85198,1.69572c1.09875,0.10941 2.54464,-0.48521 3.5982,-0.92816l0.80459,-0.10974c0,0 0.67041,-0.06705 0.73746,0.60336z" fill-opacity="0.45098" fill="#d67450"/><path d="M321.34793,246.89593c0.539,0.40425 0.13475,0.94325 0.13475,0.94325l-0.60223,0.50364c-2.23903,0.4049 -4.16073,1.23552 -6.49907,1.23379c-4.6811,0.74629 -11.11272,0.254 -15.44283,-2.10145c0,0 -0.59147,-0.32261 -0.26885,-0.91412c0.32261,-0.59147 0.91412,-0.26885 0.91412,-0.26885c4.13636,2.26297 10.22075,2.64104 14.69216,1.94104c2.29129,-0.00167 4.16307,-0.81413 6.36343,-1.2162l-0.23473,0.01361c0,0 0.40425,-0.539 0.94325,-0.13475z" fill-opacity="0.45098" fill="#d68574"/><path d="M322.01159,248.14064c0.21304,0.63917 -0.42613,0.85224 -0.42613,0.85224l-0.58703,0.19458c-2.37397,0.64647 -4.74285,0.87898 -7.11886,1.47362c-5.58684,1.37728 -10.145,-1.16985 -15.40291,-2.0103c0,0 -0.66458,-0.11076 -0.55382,-0.77535c0.11076,-0.66458 0.77535,-0.55382 0.77535,-0.55382c5.02261,0.86496 9.52356,3.3867 14.85456,2.03219c2.37087,-0.59209 4.72603,-0.82044 7.09114,-1.46637l0.51548,-0.17291c0,0 0.63917,-0.21304 0.85224,0.42613z" fill-opacity="0.37647" fill="#d69a8e"/><path d="M322.36175,248.71497c0.37371,0.56059 -0.18687,0.9343 -0.18687,0.9343l-0.77346,0.46341c-2.20361,0.50825 -5.09271,0.81723 -7.08399,1.8129c-5.48572,1.39784 -11.08288,-1.51774 -16.27477,-2.92189c0,0 -0.65001,-0.17727 -0.47273,-0.82728c0.17727,-0.65001 0.82728,-0.47273 0.82728,-0.47273c4.84407,1.33087 10.32513,4.2088 15.45271,2.95811c2.02162,-1.01084 5.01094,-1.34548 7.24849,-1.86208l0.32901,-0.2716c0,0 0.56061,-0.37371 0.93433,0.18687z" fill-opacity="0.4" fill="#d68d7e"/><path d="M322.45478,250.21153c0.1634,0.65364 -0.49022,0.81704 -0.49022,0.81704l-0.28788,0.07051c-2.64126,0.47028 -5.31014,1.53431 -7.9452,1.844c-5.83402,0.63589 -10.59705,-1.53507 -16.21429,-2.8304c0,0 -0.6565,-0.15151 -0.50499,-0.80799c0.15151,-0.6565 0.80799,-0.50499 0.80799,-0.50499c5.42619,1.2531 10.14197,3.50506 15.75816,2.8046c2.56286,-0.26513 5.28793,-1.35227 7.85727,-1.83101l0.20212,-0.05199c0,0 0.65362,-0.1634 0.81704,0.49022z" fill-opacity="0.74902" fill="#e8ccc5"/><path d="M323.55262,252.15904c0.41997,0.52609 -0.105,0.94699 -0.105,0.94699l-0.38679,0.30084c-3.20969,1.84586 -7.12531,3.23613 -10.82473,3.52128c-5.24867,0.00275 -10.57463,-4.06395 -15.5586,-3.67649c0,0 -0.6703,0.05166 -0.72185,-0.62009c-0.05156,-0.67178 0.61872,-0.72342 0.61872,-0.72342c5.07663,-0.3883 10.32492,3.67056 15.61013,3.6735c3.43957,-0.26522 7.24195,-1.57441 10.19887,-3.33873l0.22436,-0.18914c0,0 0.52495,-0.42088 0.94492,0.10521z" fill-opacity="0.63529" fill="#e9cdc7"/><path d="M322.89378,250.19614c0.30132,0.60261 -0.3013,0.90393 -0.3013,0.90393l-0.26039,0.11225c-2.88278,0.71929 -5.54253,2.4155 -8.48825,2.40558c-4.21479,0.85836 -13.0404,-1.05312 -16.70554,-3.21648c0,0 -0.57773,-0.34666 -0.2311,-0.92438c0.34663,-0.57773 0.92438,-0.2311 0.92438,-0.2311c3.3934,2.07887 11.87349,3.81911 15.87947,3.03101c2.87061,-0.00849 5.47093,-1.66465 8.2942,-2.37192l-0.01539,-0.01024c0,0 0.60261,-0.3013 0.90393,0.30132z" fill-opacity="0.67451" fill="#e8dcda"/><path d="M323.78207,253.39093c0.22924,0.63319 -0.40118,0.86345 -0.40118,0.86345l-0.67081,0.24501c-3.89467,1.40422 -6.77639,3.75866 -11.09515,3.22168c-5.1714,-0.47219 -10.06213,-2.89381 -15.162,-3.74152c0,0 -0.66168,-0.11076 -0.55139,-0.77535c0.11028,-0.66458 0.77196,-0.55382 0.77196,-0.55382c5.06886,0.85504 9.94875,3.26197 15.08538,3.73098c4.02671,0.51073 6.84807,-1.80274 10.4927,-3.14833l0.67081,-0.24501c0,0 0.63041,-0.23026 0.85967,0.40293z" fill-opacity="0.67451" fill="#e8dcda"/><path d="M321.19668,247.98899c0.1648,-0.11182 0.52771,-0.27996 0.89059,0.07201c0.49116,0.4764 0,0.95284 0,0.95284l-0.37156,0.23485c-1.76482,0.46265 -3.57324,0.66653 -5.34505,1.1574c-6.61605,2.13697 -11.4677,-1.23355 -17.86212,-1.56342c0,0 -0.69355,-0.03738 -0.65502,-0.71011c0.03854,-0.67272 0.73207,-0.63534 0.73207,-0.63534c6.19237,0.3465 10.99899,3.68468 17.37446,1.62156c1.7331,-0.48044 3.51134,-0.68437 5.23659,-1.12977z" fill-opacity="0.58039" fill="#d6947c"/><path d="M323.23936,250.73622c0.36978,0.56059 -0.1849,0.9343 -0.1849,0.9343l-0.32381,0.19509c-3.77437,1.38375 -7.46161,3.17843 -11.54667,2.84937c-3.88971,-0.99801 -10.29007,-2.8374 -14.19614,-2.8088c0,0 -0.66667,0 -0.66667,-0.67375c0,-0.67375 0.66667,-0.67375 0.66667,-0.67375c4.07902,0.0238 10.35372,1.81624 14.40975,2.82619c3.8111,0.28384 7.35131,-1.48643 10.87744,-2.78563l0.03986,-0.04992c0,0 0.55469,-0.37371 0.92452,0.18687z" fill-opacity="0.45098" fill="#d6947c"/><path d="M322.78794,252.31454c0.26541,0.61926 -0.35385,0.88469 -0.35385,0.88469l-0.50906,0.21229c-2.7556,0.7847 -5.4278,2.4321 -8.3113,2.65476c-5.80594,0.95497 -10.75426,-3.66288 -16.51796,-3.30374c0,0 -0.67259,0.03956 -0.71216,-0.63303c-0.03956,-0.67259 0.63303,-0.71216 0.63303,-0.71216c5.71496,-0.31868 10.76164,4.27001 16.4345,3.31127c2.79143,-0.21388 5.43174,-1.84659 8.10369,-2.61274l0.34844,-0.15521c0,0 0.61928,-0.26541 0.88469,0.35388z" fill-opacity="0.45098" fill="#d69982"/><path d="M322.36709,251.41191c0.09311,-0.08212 0.50847,-0.40177 0.92385,0.01787c0.4716,0.4764 0,0.95284 0,0.95284l-0.23396,0.18744c-3.04799,1.53963 -7.15749,3.27582 -10.57003,3.01063c-5.30001,-0.00493 -10.05447,-2.68112 -15.20512,-3.24987c0,0 -0.66284,-0.07441 -0.58918,-0.74403c0.07365,-0.66963 0.73649,-0.59522 0.73649,-0.59522c5.11971,0.58325 9.84749,3.24772 15.10897,3.24262c3.16555,0.246 6.9832,-1.39094 9.82892,-2.82228z" fill-opacity="0.4" fill="#d68d7e"/><path d="M322.95961,249.80138c0.08475,0.66855 -0.59341,0.75212 -0.59341,0.75212l-0.36569,0.03186c-2.40852,0.77646 -4.34973,1.67608 -6.94595,1.99327c-5.95605,0.00795 -11.6097,-2.71697 -17.31493,-2.69371c0,0 -0.68345,0 -0.68345,-0.67375c0,-0.67375 0.68345,-0.67375 0.68345,-0.67375c5.71857,0.0204 11.2866,2.68759 17.23001,2.69629c2.4818,-0.30874 4.2992,-1.15899 6.59865,-1.92671l0.62839,-0.09063c0,0 0.67817,-0.08357 0.76295,0.58498z" fill-opacity="0.37647" fill="#f4e8e6"/><path d="M323.9449,254.41743c0,0.67375 -0.67229,0.67375 -0.67229,0.67375l0.00135,-0.02593c-3.87064,1.09907 -6.95059,3.82458 -11.0248,3.82307c-5.36935,-0.35733 -10.51004,-4.05241 -15.80695,-3.98089c0,0 -0.67229,0 -0.67229,-0.67375c0,-0.67375 0.67229,-0.67375 0.67229,-0.67375c5.38636,0.05368 10.42576,3.61755 15.85168,3.98161c3.83827,-0.00149 6.93218,-2.71082 10.61066,-3.77195l0.36803,-0.02593c0,0 0.67229,0 0.67229,0.67375z" fill-opacity="0.37647" fill="#f4e8e6"/><path d="M323.39459,256.62245c0,0.67375 -0.67229,0.67375 -0.67229,0.67375l0.07546,-0.02978c-4.1195,1.27005 -6.79005,3.43583 -11.27695,3.08769c-4.78475,-0.75498 -10.07579,-3.45372 -14.86132,-2.75844c0,0 -0.66553,0.09529 -0.76061,-0.57169c-0.09508,-0.66698 0.57045,-0.76225 0.57045,-0.76225c0.19786,-0.02798 0.3963,-0.05055 0.59519,-0.06813c-0.22328,-0.02461 -0.44788,-0.04573 -0.67388,-0.06312c0,0 -0.6703,-0.05166 -0.61875,-0.72344c0.05156,-0.67178 0.72185,-0.62009 0.72185,-0.62009c5.39242,0.41699 9.96662,2.95649 15.27209,3.67449c4.17385,0.00118 7.25746,-2.61681 11.1601,-3.5951l0.22417,-0.02011c0,0 0.67229,0 0.67229,0.67375c0,0.50763 -0.38161,0.63279 -0.56981,0.66364c0.08301,0.09885 0.14197,0.23929 0.14197,0.43885z" fill-opacity="0.54118" fill="#d68b70"/><path d="M296.44086,255.59204c0.65709,-0.12052 0.77659,0.54236 0.77659,0.54236l0.08169,0.46286c4.26421,-0.24918 9.33475,1.75601 13.68345,2.97492c3.68501,-0.29877 7.55777,-2.00419 10.42312,-2.0884c0.2487,-0.11085 0.49528,-0.21946 0.73959,-0.32437l0.40287,-0.55883c0.12101,-0.17207 0.32008,-0.28441 0.54515,-0.28441c0.36887,0 0.66787,0.30165 0.66787,0.67375c0,0.04576 -0.00453,0.09042 -0.01312,0.13361l-0.11909,0.66068l-0.24947,-0.04576l-0.21344,0.29607c-0.87717,1.87435 -4.02231,2.72472 -7.34495,3.01244c-1.13433,0.25352 -2.27337,0.37272 -3.39338,0.284c-0.24748,-0.05751 -0.49884,-0.11969 -0.75373,-0.18582c-1.73113,-0.05881 -3.24227,-0.23237 -4.16935,-0.4403c-2.37119,-0.70491 -11.24386,-1.39606 -11.48805,-3.71565l-0.11335,-0.61373c0,0 -0.11947,-0.66289 0.53762,-0.78341z" fill-opacity="0.45098" fill="#d6947c"/><path d="M319.71866,245.10745c0,0.67375 -0.67375,0.67375 -0.67375,0.67375h-0.55124c-0.71423,-0.00205 -1.31295,0.08638 -2.00107,0.27465c-4.49264,1.62123 -10.85519,0.28848 -15.39194,-0.53051c0,0 -0.66289,-0.12052 -0.54236,-0.78341c0.12052,-0.66289 0.78341,-0.54236 0.78341,-0.54236c4.30679,0.78812 10.48726,2.13237 14.74304,0.57198c0.8223,-0.22368 1.55617,-0.33574 2.40893,-0.33787h0.55124c0,0 0.67375,0 0.67375,0.67375z" fill-opacity="0.33725" fill="#d67d5c"/><path d="M318.44632,243.93846c0.24665,0.62556 -0.37,0.87576 -0.37,0.87576l-0.3738,0.14696c-5.32925,1.43061 -10.1399,-0.01914 -15.49707,-0.4067c0,0 -0.66243,-0.048 -0.61511,-0.72005c0.04732,-0.67205 0.70975,-0.62405 0.70975,-0.62405c5.16195,0.3746 9.93228,1.92234 15.05296,0.45079l0.22996,-0.09804c0,0 0.61665,-0.25023 0.86329,0.37533z" fill-opacity="0.45098" fill="#d67d5d"/><path d="M317.69741,243.30121c0.56107,0.37299 -0.67375,0.67375 -0.67375,0.67375l-0.12448,-0.01089c-4.63443,0.83736 -8.94852,-0.36008 -13.47302,-0.35663c0,0 -1.11829,-0.16747 -0.67375,-0.67375c0.49499,-0.56374 1.05876,-0.45376 1.05876,-0.45376c4.44421,0.00315 11.46625,-0.78747 13.88625,0.82128z" fill-opacity="0.29804" fill="#5c9bd6"/><path d="M316.53035,242.62724c0.21304,0.47712 -0.15114,0.58118 -0.15114,0.58118l-0.3358,0.06945c-3.61854,0.24549 -8.38829,0.39767 -11.8619,-0.24155c0,0 -0.65362,-0.12198 -0.49022,-0.60991c0.1634,-0.48793 0.81704,-0.36593 0.81704,-0.36593c3.32946,0.63149 10.59894,-0.18536 12.02201,0.56676z" fill-opacity="0.29804" fill="#5c7ed6"/><path d="M323.32942,258.43583c0.39161,0.54827 -0.15666,0.93986 -0.15666,0.93986l-0.4067,0.28982c-3.12757,2.43194 -6.8895,2.65317 -10.70362,2.65317c-5.17168,-0.00256 -10.00222,-2.49751 -15.11918,-2.88073c0,0 -0.67178,-0.05166 -0.62009,-0.72342c0.05169,-0.67178 0.72344,-0.62009 0.72344,-0.62009c5.08533,0.40037 9.88402,2.87945 15.01583,2.87678c3.50471,0 6.99676,-0.12904 9.87633,-2.36931l0.45079,-0.3227c0,0 0.54824,-0.39161 0.93986,0.15666z" fill-opacity="0.45098" fill="#d67d5d"/><path d="M322.39005,260.18278c0.41697,0.52609 -0.10425,0.94699 -0.10425,0.94699l-0.31057,0.25072c-2.12657,1.66387 -5.31259,2.03276 -7.93938,2.16314c-5.77859,-0.38223 -11.08466,-2.80455 -16.83924,-3.12477c0,0 -0.66645,-0.03738 -0.62942,-0.71007c0.03703,-0.67272 0.70345,-0.63534 0.70345,-0.63534c5.74196,0.32439 11.02114,2.72812 16.77628,3.12275c2.31498,-0.11893 5.23784,-0.40484 7.10873,-1.87936l0.29621,-0.23929c0,0 0.52121,-0.42088 0.93815,0.10521z" fill-opacity="0.45098" fill="#d6947c"/><path d="M321.99426,261.69996c0.37371,0.56059 -0.18685,0.93433 -0.18685,0.93433l-0.27516,0.17364c-2.75386,1.27102 -5.13389,1.74571 -8.17218,1.53017c-5.24619,-0.40692 -10.53261,-2.00543 -15.75067,-2.94903c0,0 -0.66289,-0.12052 -0.54236,-0.78341c0.12052,-0.66289 0.78341,-0.54236 0.78341,-0.54236c5.16725,0.94419 10.4142,2.53448 15.60929,2.93097c2.81975,0.20285 4.9548,-0.2315 7.50781,-1.40983l0.09238,-0.07136c0,0 0.56059,-0.37374 0.9343,0.18685z" fill-opacity="0.45098" fill="#d67d5d"/><path d="M321.31876,262.78828c0.26201,0.61928 -0.34936,0.88469 -0.34936,0.88469l-0.47497,0.20366c-4.00773,1.34011 -7.57588,0.99629 -11.60388,0.38183c-0.20135,0.10397 -0.41999,0.07629 -0.41999,0.07629l-0.60155,-0.08732c-2.91291,-0.93261 -6.4511,-2.02911 -9.47502,-1.74773c0,0 -0.66243,0.06098 -0.72264,-0.60998c-0.06023,-0.67098 0.6022,-0.73199 0.6022,-0.73199c3.19899,-0.2912 6.91361,0.81966 9.99605,1.80476l0.03838,0.00369c0.21578,-0.12756 0.46718,-0.08837 0.46718,-0.08837c3.93979,0.61745 7.39826,1.05213 11.29859,-0.2795l0.37161,-0.16386c0,0 0.61138,-0.26541 0.87339,0.35388z" fill-opacity="0.45098" fill="#d67d5d"/><path d="M323.42889,258.50736c0.31423,0.60263 -0.31423,0.90393 -0.31423,0.90393l-0.13082,0.04598c-3.68773,2.77156 -5.61449,3.37465 -10.43503,2.53023c-4.76696,-0.41414 -10.21,-2.87866 -14.98286,-2.02597c0,0 -0.69135,0.12052 -0.81704,-0.54236c-0.12569,-0.66289 0.56565,-0.78341 0.56565,-0.78341c4.98098,-0.85035 10.46556,1.58291 15.42377,2.01653c4.43443,0.7698 6.02906,0.35471 9.3676,-2.24725l0.38024,-0.199c0,0 0.6285,-0.3013 0.94273,0.3013z" fill-opacity="0.45098" fill="#d67d5d"/><path d="M318.34276,265.74892c0.05999,0.67098 -0.59994,0.73199 -0.59994,0.73199l-0.64885,0.05983c-0.31904,0.04212 -0.63809,0.08424 -0.95713,0.12637c-5.218,-0.35919 -10.82265,-0.7128 -15.91237,-1.54011c0,0 -0.65364,-0.11076 -0.54469,-0.77535c0.10893,-0.66458 0.76257,-0.55382 0.76257,-0.55382c2.13996,0.38132 4.39811,0.64375 6.68424,0.85054c-2.60245,-0.60567 -5.17429,-1.28845 -7.94316,-1.28845c0,0 -0.65723,0 -0.65723,-0.67375c0,-0.67375 0.65723,-0.67375 0.65723,-0.67375c4.98356,0 9.32854,2.205 14.33974,2.205c2.00071,0 4.01062,-0.23228 5.97683,-0.60163l-0.06775,-0.02021c0,0 0.54684,-0.37374 0.91142,0.18687c0.36458,0.56059 -0.18229,0.93433 -0.18229,0.93433l-0.42624,0.22479c-0.56663,0.10486 -1.13648,0.19948 -1.7085,0.28147c0.14982,0.07998 0.28998,0.23339 0.31615,0.5259z" fill-opacity="0.37647" fill="#f4e8e6"/><path d="M319.56283,264.80061c0.20689,0.63917 -0.41381,0.85224 -0.41381,0.85224l-0.23822,0.07856c-1.08671,0.25813 -2.05254,0.3849 -3.16344,0.38452c-5.27581,0.28594 -10.92582,-2.61075 -15.95997,-1.66438c0,0 -0.64373,0.12052 -0.76077,-0.54236c-0.11704,-0.66289 0.52668,-0.78341 0.52668,-0.78341c5.16017,-0.96247 10.78684,1.93431 16.15967,1.64311c1.02941,-0.00032 1.89579,-0.1109 2.90359,-0.35049l0.11866,-0.04393c0,0 0.62072,-0.21306 0.82761,0.42611z" fill-opacity="0.67451" fill="#e8dcda"/><path d="M317.07883,266.30487c0.28774,0.60263 -0.28774,0.90393 -0.28774,0.90393l-0.52167,0.19364c-0.44729,-0.0034 -0.89509,0.07408 -1.33095,0.17943c-4.74384,0.01272 -9.2377,-1.38728 -13.91921,-1.71216c0,0 -0.64198,-0.04482 -0.59918,-0.71708c0.0428,-0.67226 0.68478,-0.62745 0.68478,-0.62745c4.60861,0.32375 9.0224,1.70055 13.688,1.71784c0.48311,-0.11675 0.98073,-0.18509 1.47656,-0.18808l-0.05377,-0.05137c0,0 0.57547,-0.3013 0.86321,0.3013z" fill-opacity="0.74902" fill="#e8ccc5"/><path d="M318.55361,265.18769c0.42079,0.51154 -0.07013,0.95002 -0.07013,0.95002l-0.66214,0.50596c-1.13524,0.32127 -2.1933,0.73091 -3.36293,0.93457c-5.07834,0.74629 -10.6305,-0.88592 -15.02416,-3.12572c0,0 -0.57832,-0.3013 -0.28915,-0.90393c0.28915,-0.60263 0.86747,-0.3013 0.86747,-0.3013c4.08834,2.16705 9.4917,3.71762 14.2481,2.99929c1.12079,-0.19412 2.13218,-0.59247 3.22039,-0.90294l0.16081,-0.22905c0,0 0.49092,-0.43847 0.91171,0.07309z" fill-opacity="0.37647" fill="#fff2f0"/><path d="M318.24865,265.80991c0,0.67375 -0.67375,0.67375 -0.67375,0.67375l-0.4488,-0.00785c-5.18173,0.79365 -10.75224,-0.27266 -15.72755,-1.73455c0,0 -0.64637,-0.19011 -0.45626,-0.83647c0.19011,-0.64637 0.83647,-0.45626 0.83647,-0.45626c4.78233,1.408 10.15791,2.46595 15.14243,1.69545l0.6537,-0.00785c0,0 0.67375,0 0.67375,0.67375z" fill-opacity="0.30196" fill="#fff2f0"/><path d="M315.27354,267.28485c0.28437,0.60263 -0.28437,0.90393 -0.28437,0.90393l-0.23613,0.10963c-3.89905,1.09823 -8.59877,-0.86496 -12.50856,-1.45404c0,0 -0.62947,-0.09529 -0.53957,-0.76225c0.08993,-0.66698 0.71937,-0.57169 0.71937,-0.57169c3.69423,0.56196 8.32515,2.5281 12.00101,1.48597l-0.00493,-0.01288c0,0 0.56873,-0.3013 0.8531,0.3013z" fill-opacity="0.39216" fill="#fff2f0"/><path d="M313.84489,267.84649c0.28034,0.46303 -0.33159,0.64445 -0.33159,0.64445c-0.1987,0.05891 -0.71474,0.21188 -1.04124,0.30869c-0.11753,0.10146 -0.26804,0.14607 -0.26804,0.14607l-0.30329,0.06891c-2.86522,0.19746 -5.61538,-0.31925 -8.23451,-1.30009c0,0 -0.6133,-0.23002 -0.33599,-0.67095c0.27734,-0.44093 0.89064,-0.21091 0.89064,-0.21091c2.30999,0.86768 4.74786,1.35644 7.27407,1.20531c0.10486,-0.07206 0.21371,-0.10435 0.21371,-0.10435c0.2488,-0.07376 0.49758,-0.1475 0.74638,-0.22126l0.49758,-0.1475c0,0 0.61195,-0.18143 0.89228,0.28162z" fill-opacity="0.50588" fill="#d68264"/><g data-paper-data="{&quot;index&quot;:null}"><path d="M320.36538,262.50137l0.11933,0.85914c-0.00315,0.01223 -0.00636,0.02442 -0.00965,0.03651c0.94306,-1.32219 -1.75536,-2.7379 -3.87783,-2.39639c0.06638,0.00617 0.13192,0.01399 0.19652,0.02345c0,0 0.79433,0.12774 0.66529,0.91398c-0.12904,0.78627 -0.92334,0.65855 -0.92334,0.65855c-0.8479,-0.1534 -1.45045,-0.22773 -1.85133,-0.24333c0.0622,0.24692 0.40179,0.62279 0.86512,0.96842c0.80381,0.27945 1.82255,0.54027 2.78725,0.65712c0.27303,-0.17652 0.48117,-0.4886 0.58088,-0.98136l-0.11791,-0.1271c0,0 -0.18642,-0.77489 0.59645,-0.95942c0.78282,-0.18452 0.96923,0.59042 0.96923,0.59042zM310.79859,260.11678c1.89251,-2.56547 8.16558,-1.53151 10.64955,-0.93497c0.99114,1.28999 0.73234,1.95584 0.3887,2.99592c0.10462,1.11366 -1.90879,2.3723 -3.71573,3.74931c0,0 -11.79207,0.24867 -7.32253,-5.81025z" fill-opacity="0.12941" fill="#c9552e"/><path d="M320.02026,262.51447c-2.27951,5.46217 -13.30625,-0.49642 -5.28591,-2.46035c0,0 0.36716,-0.08864 0.65068,0.12203c2.26679,-0.49884 5.52601,0.20374 4.63523,2.33832zM313.60239,262.55327c-0.04492,-0.07832 -0.0829,-0.15488 -0.11424,-0.22975c-0.02312,0.08403 0.01948,0.16135 0.11424,0.22975z" fill-opacity="0.25882" fill="#752800"/><path d="M312.38997,264.77101l-0.75175,-0.43196c-2.03181,-2.37386 -0.16566,-4.16827 2.23081,-5.0847c1.01442,-0.23846 1.90846,-0.28909 2.94561,-0.30392c10.90089,-0.15564 0.20347,10.85553 -4.23074,5.88461c-0.11658,-0.02606 -0.19393,-0.06409 -0.19393,-0.06409zM313.56259,263.50124c1.09878,3.30811 11.9275,-3.15361 3.27226,-2.95782c-0.8797,0.01992 -1.62977,0.0294 -2.49018,0.23285c-1.14745,0.43177 -2.65652,1.14486 -1.67033,2.32341c0.5763,-0.16367 0.88825,0.40153 0.88825,0.40153z" fill-opacity="0.16078" fill="#864d3a"/><path d="M311.53144,263.1569c-0.67642,-1.61994 1.00113,-2.70632 3.01778,-3.11472c1.99546,-0.93986 4.96769,-0.89423 5.91636,1.33281c2.08461,4.89382 -5.85003,4.24295 -8.01029,3.495c0,0 -0.75929,-0.26382 -0.49278,-1.01543c0.00277,-0.00785 0.00563,-0.01558 0.00849,-0.02323c-0.17919,-0.18541 -0.32865,-0.40878 -0.4396,-0.67448zM318.17338,261.71537c-0.25436,-0.30356 -0.73005,-0.48936 -1.29756,-0.58169c-0.513,0.05956 -1.03696,0.18471 -1.4846,0.34431c0.19485,0.03188 0.37555,0.06683 0.54272,0.10451l0.00429,-0.00005v0.00103c0.10621,0.02399 0.20701,0.04908 0.30243,0.07519c0.33537,-0.1237 0.68967,-0.20331 1.03458,-0.24614l-0.01574,-0.00121c0,0 0.78282,-0.18452 0.96923,0.59042c0.01687,0.0701 0.02579,0.13534 0.02811,0.19608c0.08492,-0.13825 0.07042,-0.29874 -0.08347,-0.48237z" fill-opacity="0.11373" fill="#b26f58"/><path d="M315.66571,260.84987c0.01122,-0.00315 0.02253,-0.00609 0.03398,-0.00876c0.03498,-0.00824 0.07001,-0.01409 0.10483,-0.01765l1.23164,-0.14283l0.00547,0.04619l0.13375,-0.05031c3.91955,0.983 1.51073,3.86632 -1.42864,3.61208c-3.51867,-0.30435 -4.45742,-3.63583 -0.19757,-3.4549c0,0 0.04649,0.00205 0.11656,0.01623zM315.77426,262.46852l-0.10683,-0.0598c-0.11028,0.01999 -0.18994,0.01649 -0.18994,0.01649c-2.5174,-0.11572 -1.14259,-0.00701 0.29677,0.04331z" fill-opacity="0.44314" fill="#c9552e"/><path d="M316.12464,261.12029l0.3686,0.08344c0.38139,-0.01086 0.75053,0.09101 1.10312,0.25626l0.10842,-0.22107l0.92929,0.44659c0.21234,0.10004 0.37872,0.2909 0.4374,0.53499c0.10295,0.42797 -0.1641,0.85752 -0.59645,0.95942l-0.78282,0.18452c-1.49866,0.34868 -2.26754,0.44799 -3.09547,-0.1167l-0.16132,0.20479l-0.73374,-0.56635c-0.14175,-0.1075 -0.24843,-0.26217 -0.29306,-0.44753c-0.10295,-0.42797 0.1641,-0.85752 0.59645,-0.95942v0l1.20984,-0.28513l0.04159,0.17294l0.18509,-0.07177c0.28101,-0.24374 0.68305,-0.17496 0.68305,-0.17496z" fill-opacity="0.44314" fill="#fb7c52"/><path d="M315.00233,261.56596l0.23586,-0.01954c1.06345,0.01727 2.97528,-0.15965 3.1618,1.16796c0.17833,1.26931 -5.74355,0.60349 -4.05831,-0.44349c-0.24521,-0.59697 0.66065,-0.70493 0.66065,-0.70493z" fill-opacity="0.45882" fill="#fa7c52"/></g><path d="M309.89049,269.13139c-7.82934,0 -14.17622,-6.32715 -14.17622,-14.13208c0,-7.8049 6.34696,-14.13208 14.17626,-14.13208c2.77256,0 5.35919,0.79346 7.54389,2.16497c3.98469,2.5015 6.63236,6.92609 6.63236,11.96711c0,7.8049 -6.34699,14.13208 -14.17626,14.13208z" data-paper-data="{&quot;index&quot;:null}" fill="url(#color-18)"/></g></g></g></svg>