<svg version="1.1" xmlns="http://www.w3.org/2000/svg" xmlns:xlink="http://www.w3.org/1999/xlink" width="84.5" height="38.32609" viewBox="0,0,84.5,38.32609"><defs><linearGradient x1="240" y1="161.58689" x2="240" y2="198.41305" gradientUnits="userSpaceOnUse" id="color-1"><stop offset="0" stop-color="#2b4b31"/><stop offset="1" stop-color="#395a1b"/></linearGradient><linearGradient x1="240" y1="161.58689" x2="240" y2="198.41305" gradientUnits="userSpaceOnUse" id="color-2"><stop offset="0" stop-color="#12301b"/><stop offset="1" stop-color="#446d2c"/></linearGradient><radialGradient cx="258.13576" cy="184.43671" r="8.75666" gradientUnits="userSpaceOnUse" id="color-3"><stop offset="0" stop-color="#93e2fc" stop-opacity="0.79998"/><stop offset="1" stop-color="#bbeeff"/></radialGradient><radialGradient cx="271.27076" cy="183.69633" r="9.4075" gradientUnits="userSpaceOnUse" id="color-4"><stop offset="0" stop-color="#81d6f0" stop-opacity="0.76999"/><stop offset="1" stop-color="#b2e4f5"/></radialGradient><radialGradient cx="263.34243" cy="173.66748" r="13.3125" gradientUnits="userSpaceOnUse" id="color-5"><stop offset="0" stop-color="#8fe3fa" stop-opacity="0.80805"/><stop offset="1" stop-color="#9ae6ff"/></radialGradient><linearGradient x1="262.09993" y1="170.97517" x2="262.09993" y2="173.12902" gradientUnits="userSpaceOnUse" id="color-6"><stop offset="0" stop-color="#12301b"/><stop offset="1" stop-color="#446d2c"/></linearGradient></defs><g transform="translate(-197.75,-160.83695)"><g data-paper-data="{&quot;isPaintingLayer&quot;:true}" fill-rule="nonzero" stroke-linecap="butt" stroke-linejoin="miter" stroke-miterlimit="10" stroke-dasharray="" stroke-dashoffset="0" style="mix-blend-mode: normal"><path d="M198.5,198.41305v-36.82609h83v36.82609z" fill="url(#color-1)" stroke="url(#color-2)" stroke-width="1.5"/><path d="M256.76164,196.48663c-0.40093,-0.07008 -1.33358,-0.44683 -2.25935,-0.95601c-1.1124,0.16651 -2.23951,0.28442 -3.28644,0.10148c-1.2976,-0.22674 -3.51917,-0.98808 -3.87944,-2.12151c-1.17696,-3.70281 4.47924,-2.35086 5.65781,-2.94022c1.27167,-0.63592 3.94141,-1.37092 5.50328,-1.18325c0.48217,0.05793 0.88639,0.16945 1.26387,0.29512c0.82279,0.27392 1.5185,0.61507 2.61729,0.61507l0.18647,-0.03667c3.54429,0 13.50079,-0.94748 16.06842,0.26421c1.37777,0.65018 1.94267,2.76664 0.23145,3.36772c-3.13223,1.1002 -7.57237,2.60539 -11.21161,2.60539c-1.42437,0 -2.81618,-0.16076 -4.19502,-0.38692c-1.60086,0.82345 -4.99746,0.67258 -6.69673,0.37558z" fill="#ecfaff" stroke="none" stroke-width="0.5"/><path d="M250.02993,192.64825v-18.17307l16.21166,1.07692v18.84615z" fill="url(#color-3)" stroke="none" stroke-width="0"/><path d="M266.08957,194.39825l-0.08464,-18.84615l10.53166,-2.55769v18.03846z" data-paper-data="{&quot;index&quot;:null}" fill="url(#color-4)" stroke="none" stroke-width="0"/><path d="M250.02993,174.47517l10.53167,-2.82692l16.09333,1.34615l-10.76833,2.69231z" fill="url(#color-5)" stroke="url(#color-6)" stroke-width="0"/><text transform="translate(201.08,170.56881) scale(0.21667,0.21667)" font-size="40" xml:space="preserve" fill="#ff0000" fill-rule="nonzero" stroke="none" stroke-width="1" stroke-linecap="butt" stroke-linejoin="miter" stroke-miterlimit="10" stroke-dasharray="" stroke-dashoffset="0" font-family="Serif" font-weight="normal" text-anchor="start" style="mix-blend-mode: normal"><tspan x="0" dy="0">Cold Regions B</tspan></text><text transform="translate(200.3,195.63119) scale(0.12749,0.12749)" font-size="40" xml:space="preserve" fill="#ff0000" fill-rule="nonzero" stroke="none" stroke-width="1" stroke-linecap="butt" stroke-linejoin="miter" stroke-miterlimit="10" stroke-dasharray="" stroke-dashoffset="0" font-family="Serif" font-weight="normal" text-anchor="start" style="mix-blend-mode: normal"><tspan x="0" dy="0">3k R</tspan></text><path d="M259.27993,175.52325c-0.25207,0 -0.48672,-0.07461 -0.68306,-0.20296c-0.03946,0.13825 -0.09031,0.27695 -0.14991,0.41495c0.47464,1.47602 -0.51512,4.17968 -2.49304,4.4107c-0.73304,0.08562 -1.17015,-0.65726 -1.63141,-1.37166l-0.32834,0.15957c-0.36215,0.14451 -0.72104,0.29727 -1.07712,0.45652c0.02295,0.17234 0.05253,0.34352 0.0886,0.51274l-0.60073,1.49515c0,0 -0.58229,0.77638 -1.40482,0.4479c-0.18103,0.23423 -0.47916,0.4271 -0.97018,0.4271c-1.25,0 -1.25,-1.25 -1.25,-1.25v-0.75c0.00136,-1.15314 0.06163,-1.96794 0.32122,-2.82259c-0.36579,-0.90662 -0.18809,-2.06793 0.20503,-2.96118c0.26396,-0.59978 1.17301,-0.58455 1.75952,-0.87682c0,0 0.40657,-0.16263 0.83468,-0.05474l0.37955,-0.28467l0.1875,0.25l0.04574,-0.04066c-0.01411,-0.14258 0.01813,-0.27595 0.12147,-0.39519c0.19233,-0.22193 0.46194,-0.30413 0.76462,-0.31268c0.23036,-0.1586 0.4525,-0.21414 0.4525,-0.21414l0.44398,-0.1096c0.81038,-0.24224 1.60993,-0.52343 2.39495,-0.83831c0,0 0.72492,-0.28997 1.25808,0.16135c0.04525,0.00156 0.08988,0.00552 0.13378,0.01177c0.53026,-0.18501 1.07158,-0.33958 1.61644,-0.46828l1.19392,-0.35818c0.12186,-0.03964 0.25193,-0.06107 0.38701,-0.06107c0.28664,0 0.55075,0.09648 0.76162,0.25875c0.18589,-0.0139 0.31887,0.00826 0.31887,0.00826c0.50662,0.08449 1.01324,0.16898 1.51985,0.25347l0.01823,0.01162l0.00157,-0.00783l0.56282,0.11256c0.37013,-0.38684 0.94203,-0.38684 0.94203,-0.38684c0.83333,0 1.66667,0 2.5,0h0.75c0,0 0.80149,0 1.12089,0.64179c0.18832,-0.00873 0.37708,-0.01402 0.56638,-0.01524l0.05984,0.02735l0.00227,-0.0227l0.33078,0.03308c0.46408,-0.76855 1.40402,-0.48656 1.40402,-0.48656c0.78606,0.23998 1.6012,0.3943 2.41875,0.47857l0.1308,0.09469l0.01844,-0.05072l1.34761,0.49004c0.34303,0.11572 0.61941,0.37624 0.75645,0.70885c0.19617,0.15725 0.3439,0.37243 0.41726,0.6196c0.35265,0.40709 0.29529,0.98063 0.29529,0.98063c-0.08889,0.87888 -0.2208,1.75437 -0.39307,2.62077l0.02427,0.00485c0,0 0,1.25 -1.25,1.25c-1.25,0 -1.25,-1.25 -1.25,-1.25l0.01326,-0.27046c-0.08093,0.01328 -0.1685,0.02046 -0.26326,0.02046c-0.1147,0 -0.21888,-0.01053 -0.3135,-0.02964c-0.17183,0.245 -0.39384,0.48491 -0.64445,0.71743l0.08295,0.06221l-0.74127,0.98836c-0.22746,0.31022 -0.59457,0.51164 -1.00873,0.51164c-0.65308,0 -1.18918,-0.50083 -1.24517,-1.13937l-0.12172,-1.21724c-0.0223,-0.13704 -0.05712,-0.27598 -0.0968,-0.41565l-0.08948,-0.01506c0,0 -0.57999,-0.145 -0.83748,-0.63554l-0.08082,-0.01347c-0.0114,0.0228 -0.02302,0.04576 -0.03489,0.06887c-0.05243,0.33598 -0.23957,0.56104 -0.43791,0.70887c-0.20614,0.25783 -0.43668,0.45379 -0.68493,0.59874c-0.19396,0.41336 -0.40668,0.81851 -0.63385,1.21641l0.19187,0.0726l-0.8744,2.31092c-0.17115,0.48633 -0.63458,0.83493 -1.17944,0.83493c-0.69036,0 -1.25,-0.55964 -1.25,-1.25c0,-0.04771 0.00267,-0.09479 0.00788,-0.14111l0.04991,-0.49911c-0.06309,-0.01423 -0.1275,-0.02946 -0.19326,-0.0457c-0.94407,-0.23322 -1.85698,-1.72902 -2.12254,-3.17735c-0.93008,0.09937 -1.87814,0.4342 -2.16997,-1.22395c-0.19913,0.13401 -0.43894,0.21222 -0.69702,0.21222z" fill="#d3f3ff" stroke="none" stroke-width="0.5"/></g></g></svg>