<svg version="1.1" xmlns="http://www.w3.org/2000/svg" xmlns:xlink="http://www.w3.org/1999/xlink" width="40.82215" height="104.30648" viewBox="0,0,40.82215,104.30648"><defs><radialGradient cx="235.52448" cy="177.50476" r="21.06357" gradientUnits="userSpaceOnUse" id="color-1"><stop offset="0" stop-color="#353535"/><stop offset="1" stop-color="#8c8c8c"/></radialGradient><linearGradient x1="239.74787" y1="156.56832" x2="239.74787" y2="163.41937" gradientUnits="userSpaceOnUse" id="color-2"><stop offset="0" stop-color="#696969"/><stop offset="1" stop-color="#a0a0a0"/></linearGradient><radialGradient cx="235.71182" cy="133.91612" r="13.11833" gradientUnits="userSpaceOnUse" id="color-3"><stop offset="0" stop-color="#dcdcdc"/><stop offset="1" stop-color="#a0a0a0"/></radialGradient><radialGradient cx="242.43512" cy="139.4174" r="8.83664" gradientUnits="userSpaceOnUse" id="color-4"><stop offset="0" stop-color="#ffc4c4"/><stop offset="1" stop-color="#ff2121"/></radialGradient></defs><g transform="translate(-221.55679,-130.14767)"><g data-paper-data="{&quot;isPaintingLayer&quot;:true}" fill-rule="nonzero" stroke-linejoin="miter" stroke-miterlimit="10" stroke-dasharray="" stroke-dashoffset="0" style="mix-blend-mode: normal"><path d="M221.55679,200.07636v-45.14319h27.93538v45.14319z" fill="url(#color-1)" stroke="#ed6b00" stroke-width="0" stroke-linecap="butt"/><g><path d="M246.78177,228.08317c0,0 -2.50017,-25.67861 -3.54663,-30.04454c-0.06711,-0.28001 -2.2323,-0.81847 -3.61373,-1.69308c-1.68673,-1.06791 -2.56997,-2.505 -1.59741,-2.93609c1.77404,-0.78634 12.14856,0.86714 12.14856,0.86714l4.6098,33.60431z" data-paper-data="{&quot;index&quot;:null}" fill="#494949" stroke="#000000" stroke-width="0" stroke-linecap="butt"/><path d="M261.21579,234.31016c-0.59257,0.01498 -2.64292,0.08047 -4.70455,0.05201c-1.25342,-0.01729 -1.91717,-0.56951 -2.85385,-0.68872c-1.17924,-0.15006 -2.93203,0.29467 -3.78584,0.12468c-1.57327,-0.31322 -2.39353,-0.71756 -2.39353,-0.71756c0,0 -0.29494,-1.01827 -0.32558,-1.57808c-0.04128,-0.75421 0.10016,-2.54036 0.10016,-2.54036c0,0 5.92933,-0.26951 8.24854,-0.12775c1.37234,0.08388 4.25556,0.53942 4.25556,0.53942c0,0 1.47485,0.57852 1.69919,1.00021c0.27475,0.51646 0.92305,1.96595 0.92305,1.96595c0,0 -0.33654,1.94928 -1.16317,1.97018z" data-paper-data="{&quot;index&quot;:null}" fill="#141415" stroke="#000000" stroke-width="0" stroke-linecap="butt"/><path d="M260.87991,231.74301c-0.24814,0.00628 0.74265,1.58339 -2.58357,1.39886c-3.14103,-0.17425 -2.80563,-1.11768 -3.91173,-1.17034c-2.31289,-0.11012 -2.57178,0.66024 -3.575,0.53257c-0.34939,-0.04446 -0.51544,-0.10155 -1.80855,-0.92494c-0.88932,-0.56628 -0.70971,-1.73383 -1.32514,-2.34655c-0.89899,-0.89502 -0.85587,-1.86477 -0.85587,-1.86477l-0.15337,-3.04483c0,0 0.54196,2.19381 1.40147,2.99676c0.76902,0.71841 2.31568,-0.0773 2.79921,-0.08967c0.84668,-0.02165 -0.77122,-3.24958 0.03874,-3.25182c0.43552,-0.0012 3.71565,-0.32809 3.71565,-0.32809c0,0 0.21346,3.57564 0.44685,3.5899c1.37234,0.08388 4.61921,0.53023 4.61921,0.53023c0,0 1.47485,0.57851 1.6992,1.0002c0.27475,0.51646 0.70512,2.94186 0.70512,2.94186c0,0 -0.38557,0.00975 -1.21221,0.03064z" data-paper-data="{&quot;index&quot;:null}" fill="#252527" stroke="#000000" stroke-width="0" stroke-linecap="butt"/><path d="M255.97719,227.83574l-2.63926,1.1584" fill="none" stroke="#ffffff" stroke-width="0.5" stroke-linecap="round"/><path d="M255.28666,229.30878l2.50886,-1.51901" fill="none" stroke="#ffffff" stroke-width="0.5" stroke-linecap="round"/><path d="M258.89263,228.00462l-1.41788,1.49142" fill="none" stroke="#ffffff" stroke-width="0.5" stroke-linecap="round"/><path d="M252.02766,225.14574l2.17583,-0.29761" fill="none" stroke="#969696" stroke-width="0.5" stroke-linecap="round"/><path d="M254.46434,225.56932l-1.93034,0.4127" fill="none" stroke="#969696" stroke-width="0.5" stroke-linecap="round"/></g><g><path d="M223.25296,225.84201l8.09107,-32.93986c0,0 10.49042,-0.56194 12.17272,0.40523c0.92227,0.53022 -0.1061,1.86731 -1.89506,2.75338c-1.46517,0.72569 -3.6747,1.03529 -3.77066,1.30676c-1.49631,4.23291 -6.66227,29.51046 -6.66227,29.51046z" fill="#494949" stroke="#000000" stroke-width="0" stroke-linecap="butt"/><path d="M236.48031,232.66841c0,0 -0.59637,1.87876 -1.3365,1.78214c-0.53056,-0.06926 -2.36841,-0.29541 -4.20203,-0.61601c-1.11478,-0.19492 -1.62255,-0.83485 -2.43949,-1.08555c-1.02848,-0.31561 -2.65869,-0.12474 -3.39402,-0.41387c-1.35496,-0.53275 -2.02476,-1.04873 -2.02476,-1.04873c0,0 -0.10814,-1.04821 -0.05036,-1.60583c0.07785,-0.75124 0.47549,-2.49647 0.47549,-2.49647c0,0 5.32696,0.57483 7.373,1.04395c1.21071,0.2776 3.71183,1.13685 3.71183,1.13685c0,0 1.22687,0.78099 1.36279,1.22958c0.16643,0.54941 0.52401,2.07394 0.52401,2.07394z" data-paper-data="{&quot;index&quot;:null}" fill="#141415" stroke="#000000" stroke-width="0" stroke-linecap="butt"/><path d="M236.32,232.00746c0,0 -0.34521,-0.04506 -1.08534,-0.14168c-0.22219,-0.02901 0.42136,1.67025 -2.51592,1.01598c-2.77376,-0.61784 -2.3313,-1.50265 -3.30939,-1.71162c-2.04519,-0.43696 -2.39311,0.28767 -3.26809,0.01915c-0.3047,-0.09351 -0.44408,-0.17348 -1.47169,-1.1707c-0.70674,-0.68582 -0.36912,-1.81427 -0.82464,-2.50714c-0.66541,-1.01211 -0.47952,-1.9644 -0.47952,-1.9644l0.32615,-3.03101c0,0 0.14965,2.24508 0.79384,3.16059c0.57635,0.81911 2.07618,0.25212 2.50912,0.3085c0.75811,0.09873 -0.19352,-3.32104 0.52891,-3.20834c0.38844,0.0606 3.36237,0.20287 3.36237,0.20287c0,0 -0.3533,3.56413 -0.14738,3.61134c1.21069,0.27759 4.03742,1.17935 4.03742,1.17935c0,0 1.22687,0.78099 1.36279,1.22958c0.16644,0.54942 0.18138,3.00752 0.18138,3.00752z" data-paper-data="{&quot;index&quot;:null}" fill="#252527" stroke="#000000" stroke-width="0" stroke-linecap="butt"/><path d="M228.92886,228.07904l2.52903,-0.77045" fill="none" stroke="#ffffff" stroke-width="0.5" stroke-linecap="round"/><path d="M233.08589,227.52112l-2.46758,1.14533" fill="none" stroke="#ffffff" stroke-width="0.5" stroke-linecap="round"/><path d="M234.03132,227.88911l-1.49078,1.27286" fill="none" stroke="#ffffff" stroke-width="0.5" stroke-linecap="round"/><path d="M228.34582,224.08971l1.98501,0.01456" fill="none" stroke="#969696" stroke-width="0.5" stroke-linecap="round"/><path d="M230.45371,224.85403l-1.78362,0.13403" fill="none" stroke="#969696" stroke-width="0.5" stroke-linecap="round"/></g><g stroke="#000000" stroke-width="0" stroke-linecap="butt"><path d="M241.1543,186.9408c0,0 1.64679,-2.53253 2.545,-5.92471c0.216,-0.81573 1.0901,-3.43243 1.30438,-4.27223c0.50717,-1.98758 0.94478,-3.97365 1.28328,-5.18585c0.72807,-2.60723 1.72076,-5.8913 1.72076,-5.8913c0,0 2.09302,-6.39072 3.10167,-6.24362c5.89895,0.86028 2.24903,7.50862 2.24903,7.50862c0,0 -1.3472,4.71018 -2.12127,7.48219c-0.31503,1.12813 -1.0892,1.83153 -1.64012,3.56229c-0.24697,0.77585 -1.73795,3.96459 -2.56442,5.95014c-1.37605,3.30585 -1.88297,5.43593 -1.88297,5.43593z" data-paper-data="{&quot;index&quot;:null}" fill="#bdbdbd"/><path d="M243.40313,193.5378c-0.17874,-0.10342 -1.48371,3.41481 -2.26943,3.03711c-0.38645,-0.18578 0.93588,-2.25239 0.72442,-3.25098c-0.11192,-0.52859 -1.37319,4.06811 -2.21592,3.17947c-0.28932,-0.30509 1.33006,-3.34291 1.28021,-4.25837c-0.02668,-0.49006 -2.01452,4.81845 -2.59811,4.26558c-0.34644,-0.32819 1.28728,-3.02678 1.56381,-4.4391c0.13472,-0.68804 -1.862,3.39716 -2.2325,2.88404c-0.22678,-0.3141 1.52791,-4.39594 1.51406,-4.45667c-0.07788,-0.3413 -1.80031,1.84617 -1.78323,1.14651c0.03148,-1.28947 1.44061,-2.23213 2.63545,-3.17254c0.6981,-0.54945 1.1972,-1.61944 1.1972,-1.61944c0,0 1.64438,0.19841 2.31891,0.60722c0.65677,0.39804 1.67643,1.81423 1.67643,1.81423c0,0 -1.43264,4.48204 -1.81129,4.26295z" data-paper-data="{&quot;index&quot;:null}" fill="#5c4747"/></g><g stroke-width="0" stroke-linecap="butt"><path d="M235.91979,163.41937v-6.85104h7.65615v6.85104z" fill="url(#color-2)" stroke="#000000"/><path d="M252.80944,144.14573c0,7.73092 -5.73774,13.99807 -12.8156,13.99807c-7.07786,0 -12.8156,-6.26715 -12.8156,-13.99807c0,-7.73092 5.73774,-13.99806 12.8156,-13.99806c7.07786,0 12.8156,6.26714 12.8156,13.99806z" fill="url(#color-3)" stroke="none"/><path d="M253.91261,142.97429c0,4.88691 0.03443,10.71868 -8.60517,11.34206c-9.65195,0.69642 -9.06107,-6.45514 -9.06107,-11.34206c0,-4.88691 3.95473,-8.84854 8.83313,-8.84854c4.8784,0 8.83313,3.96163 8.83313,8.84854z" data-paper-data="{&quot;index&quot;:null}" fill="url(#color-4)" stroke="#ed6b00"/></g><g stroke-width="0" stroke-linecap="butt"><path d="M229.63979,193.59141c0,0 0.16709,-5.5597 -0.35268,-10.94382c-0.35317,-3.65847 -1.40473,-6.95919 -1.56162,-9.45339c-0.29447,-4.68133 -0.2105,-13.38223 -0.2105,-13.38223c0,0 3.69178,-0.58477 5.4694,-0.21857c2.26281,0.46615 7.00656,2.78867 7.00656,2.78867c0,0 3.67689,-2.17061 5.59031,-2.58687c2.01891,-0.43921 6.22369,0.01677 6.22369,0.01677c0,0 -0.06905,9.21711 -0.22689,12.65629c-0.13965,3.04285 -0.88957,6.36811 -1.18346,10.87293c-0.3029,4.64296 -0.14784,10.42155 -0.14784,10.42155c0,0 -2.75697,-0.76932 -5.57187,-0.83754c-1.27833,-0.03098 -1.79126,1.00612 -2.99851,1.16532c-0.96496,0.12724 -2.63623,-0.61291 -3.56107,-0.64966c-0.69915,-0.02778 -2.04377,-0.5306 -2.53801,-0.53471c-0.99795,-0.0083 -1.61572,0.86529 -2.77345,1.02464c-1.34484,0.1851 -3.1641,-0.33939 -3.1641,-0.33939z" fill="#d0d0d0" stroke="#292e32"/><path d="M245.9343,170.5071l-0.06967,-5.82045l4.38934,0.36378v5.21415z" fill="#ff0000" stroke="none"/></g><g stroke="#000000" stroke-width="0" stroke-linecap="butt"><path d="M234.07924,189.92141c0,0 -0.50179,-2.14851 -1.9938,-5.40371c-0.89612,-1.9551 -2.5334,-5.07294 -2.79159,-5.84712c-0.57599,-1.72705 -1.47606,-2.35489 -1.79815,-3.48653c-0.79147,-2.78061 -2.17489,-7.50112 -2.17489,-7.50112c0,0 -4.09712,-6.80055 3.34336,-8.60549c1.18782,-0.28814 3.19899,6.56907 3.19899,6.56907c0,0 1.02918,3.2841 1.77358,5.89941c0.3461,1.21596 0.77155,3.22395 1.28112,5.22414c0.21531,0.84512 1.13596,3.45065 1.35459,4.2705c0.90915,3.4093 2.76943,5.82327 2.76943,5.82327z" fill="#bdbdbd"/><path d="M236.11291,194.21343c-0.46909,0.28011 -1.97893,-4.18778 -1.97893,-4.18778c0,0 1.30441,-1.61422 2.11895,-2.11884c0.83657,-0.51828 2.83613,-0.95095 2.83613,-0.95095c0,0 0.55052,1.04501 1.3678,1.52086c1.39881,0.81445 3.05679,1.60176 3.03053,2.93953c-0.01423,0.72586 -1.98919,-1.31397 -2.10045,-0.94803c-0.01979,0.06511 1.89968,4.07217 1.60961,4.43028c-0.47387,0.58502 -2.68604,-3.39226 -2.55737,-2.69467c0.26412,1.43191 2.10623,4.01592 1.67068,4.40515c-0.73371,0.6557 -2.87409,-4.59603 -2.93083,-4.08229c-0.106,0.95968 1.70184,3.89873 1.33655,4.25606c-1.06402,1.04081 -2.36077,-3.56999 -2.52258,-3.00443c-0.30566,1.06842 1.1912,3.03749 0.71433,3.28401c-0.96954,0.50118 -2.37299,-2.98113 -2.59442,-2.8489z" data-paper-data="{&quot;index&quot;:null}" fill="#5c4747"/></g></g></g></svg>