<svg version="1.1" xmlns="http://www.w3.org/2000/svg" xmlns:xlink="http://www.w3.org/1999/xlink" width="59" height="59.70662" viewBox="0,0,59,59.70662"><defs><linearGradient x1="270" y1="151.64669" x2="270" y2="208.35331" gradientUnits="userSpaceOnUse" id="color-1"><stop offset="0" stop-color="#191919"/><stop offset="1" stop-color="#050505"/></linearGradient><linearGradient x1="270" y1="151.64669" x2="270" y2="208.35331" gradientUnits="userSpaceOnUse" id="color-2"><stop offset="0" stop-color="#cccccc"/><stop offset="1" stop-color="#898989"/></linearGradient><radialGradient cx="270" cy="180" r="26.8571" gradientUnits="userSpaceOnUse" id="color-3"><stop offset="0" stop-color="#e4d2ff" stop-opacity="0.35294"/><stop offset="1" stop-color="#e4d2ff" stop-opacity="0"/></radialGradient><linearGradient x1="270" y1="153.2921" x2="270" y2="206.70789" gradientUnits="userSpaceOnUse" id="color-4"><stop offset="0" stop-color="#cccccc"/><stop offset="1" stop-color="#898989"/></linearGradient><linearGradient x1="249.98988" y1="199.66186" x2="249.98988" y2="202.95921" gradientUnits="userSpaceOnUse" id="color-5"><stop offset="0" stop-color="#000000"/><stop offset="1" stop-color="#2b2b2b"/></linearGradient><linearGradient x1="286.07282" y1="184.65822" x2="286.07282" y2="203.16031" gradientUnits="userSpaceOnUse" id="color-6"><stop offset="0" stop-color="#000000"/><stop offset="1" stop-color="#2b2b2b"/></linearGradient><radialGradient cx="256.51452" cy="193.73978" r="8.10282" gradientUnits="userSpaceOnUse" id="color-7"><stop offset="0" stop-color="#696969"/><stop offset="1" stop-color="#2e2e2e"/></radialGradient><radialGradient cx="256.51452" cy="193.73978" r="8.10282" gradientUnits="userSpaceOnUse" id="color-8"><stop offset="0" stop-color="#e0e0e0"/><stop offset="1" stop-color="#7d7d7d"/></radialGradient><radialGradient cx="267.9778" cy="185.02786" r="6.35146" gradientUnits="userSpaceOnUse" id="color-9"><stop offset="0" stop-color="#94c9e0"/><stop offset="1" stop-color="#41687d"/></radialGradient><radialGradient cx="264.78697" cy="187.53587" r="6.35146" gradientUnits="userSpaceOnUse" id="color-10"><stop offset="0" stop-color="#b6cee0"/><stop offset="1" stop-color="#4d697d"/></radialGradient><radialGradient cx="262.36154" cy="185.21533" r="8.1311" gradientUnits="userSpaceOnUse" id="color-11"><stop offset="0" stop-color="#e19641"/><stop offset="1" stop-color="#7d4800"/></radialGradient><radialGradient cx="263.12004" cy="184.10802" r="8.1311" gradientUnits="userSpaceOnUse" id="color-12"><stop offset="0" stop-color="#e0ccb5"/><stop offset="1" stop-color="#7d694d"/></radialGradient><linearGradient x1="256.90677" y1="184.60508" x2="254.5926" y2="186.34058" gradientUnits="userSpaceOnUse" id="color-13"><stop offset="0" stop-color="#191919"/><stop offset="1" stop-color="#000000"/></linearGradient><linearGradient x1="261.29526" y1="189.6307" x2="258.98109" y2="191.3662" gradientUnits="userSpaceOnUse" id="color-14"><stop offset="0" stop-color="#191919"/><stop offset="1" stop-color="#000000"/></linearGradient><linearGradient x1="256.21679" y1="185.39109" x2="259.96589" y2="190.39024" gradientUnits="userSpaceOnUse" id="color-15"><stop offset="0" stop-color="#303030"/><stop offset="1" stop-color="#212121"/></linearGradient><radialGradient cx="258.1988" cy="186.58907" r="3.23466" gradientUnits="userSpaceOnUse" id="color-16"><stop offset="0" stop-color="#626262"/><stop offset="1" stop-color="#2e2e2e"/></radialGradient><radialGradient cx="258.25993" cy="187.56233" r="0.89767" gradientUnits="userSpaceOnUse" id="color-17"><stop offset="0" stop-color="#fff67b"/><stop offset="1" stop-color="#ffd300"/></radialGradient><linearGradient x1="256.27851" y1="189.20425" x2="256.61924" y2="188.94872" gradientUnits="userSpaceOnUse" id="color-18"><stop offset="0" stop-color="#2b281f"/><stop offset="1" stop-color="#1f1c15"/></linearGradient><linearGradient x1="256.27851" y1="189.20425" x2="256.61924" y2="188.94872" gradientUnits="userSpaceOnUse" id="color-19"><stop offset="0" stop-color="#464646"/><stop offset="1" stop-color="#353535"/></linearGradient><radialGradient cx="255.53457" cy="187.44226" r="3.77672" gradientUnits="userSpaceOnUse" id="color-20"><stop offset="0" stop-color="#e8e46e"/><stop offset="1" stop-color="#b59317"/></radialGradient><linearGradient x1="256.48896" y1="189.04642" x2="257.01007" y2="188.65561" gradientUnits="userSpaceOnUse" id="color-21"><stop offset="0" stop-color="#464646"/><stop offset="1" stop-color="#353535"/></linearGradient><linearGradient x1="259.80451" y1="182.43192" x2="257.65782" y2="184.04183" gradientUnits="userSpaceOnUse" id="color-22"><stop offset="0" stop-color="#191919"/><stop offset="1" stop-color="#000000"/></linearGradient><linearGradient x1="263.79648" y1="187.75491" x2="261.64979" y2="189.36482" gradientUnits="userSpaceOnUse" id="color-23"><stop offset="0" stop-color="#191919"/><stop offset="1" stop-color="#000000"/></linearGradient><linearGradient x1="262.53647" y1="184.51111" x2="262.19574" y2="184.76663" gradientUnits="userSpaceOnUse" id="color-24"><stop offset="0" stop-color="#2b281f"/><stop offset="1" stop-color="#1f1c15"/></linearGradient><linearGradient x1="262.53647" y1="184.51111" x2="262.19574" y2="184.76663" gradientUnits="userSpaceOnUse" id="color-25"><stop offset="0" stop-color="#464646"/><stop offset="1" stop-color="#353535"/></linearGradient><linearGradient x1="258.91418" y1="183.36819" x2="262.66328" y2="188.36733" gradientUnits="userSpaceOnUse" id="color-26"><stop offset="0" stop-color="#303030"/><stop offset="1" stop-color="#212121"/></linearGradient><radialGradient cx="260.8962" cy="184.56617" r="3.23466" gradientUnits="userSpaceOnUse" id="color-27"><stop offset="0" stop-color="#626262"/><stop offset="1" stop-color="#2e2e2e"/></radialGradient><radialGradient cx="261.05334" cy="183.30347" r="3.77672" gradientUnits="userSpaceOnUse" id="color-28"><stop offset="0" stop-color="#e8e46e"/><stop offset="1" stop-color="#b59317"/></radialGradient><linearGradient x1="262.32602" y1="184.66893" x2="261.8049" y2="185.05974" gradientUnits="userSpaceOnUse" id="color-29"><stop offset="0" stop-color="#464646"/><stop offset="1" stop-color="#353535"/></linearGradient><radialGradient cx="260.95732" cy="185.53943" r="0.89767" gradientUnits="userSpaceOnUse" id="color-30"><stop offset="0" stop-color="#fff67b"/><stop offset="1" stop-color="#ffd300"/></radialGradient><radialGradient cx="258.23196" cy="185.41936" r="3.77672" gradientUnits="userSpaceOnUse" id="color-31"><stop offset="0" stop-color="#e8e46e"/><stop offset="1" stop-color="#b59317"/></radialGradient><linearGradient x1="259.18635" y1="187.02352" x2="259.70746" y2="186.63271" gradientUnits="userSpaceOnUse" id="color-32"><stop offset="0" stop-color="#464646"/><stop offset="1" stop-color="#353535"/></linearGradient><linearGradient x1="261.43071" y1="190.63742" x2="259.11655" y2="192.37292" gradientUnits="userSpaceOnUse" id="color-33"><stop offset="0" stop-color="#191919"/><stop offset="1" stop-color="#000000"/></linearGradient><linearGradient x1="265.8192" y1="195.66304" x2="263.50503" y2="197.39854" gradientUnits="userSpaceOnUse" id="color-34"><stop offset="0" stop-color="#191919"/><stop offset="1" stop-color="#000000"/></linearGradient><linearGradient x1="260.74073" y1="191.42344" x2="264.48983" y2="196.42258" gradientUnits="userSpaceOnUse" id="color-35"><stop offset="0" stop-color="#303030"/><stop offset="1" stop-color="#212121"/></linearGradient><radialGradient cx="262.72275" cy="192.62141" r="3.23466" gradientUnits="userSpaceOnUse" id="color-36"><stop offset="0" stop-color="#626262"/><stop offset="1" stop-color="#2e2e2e"/></radialGradient><radialGradient cx="262.78387" cy="193.59467" r="0.89767" gradientUnits="userSpaceOnUse" id="color-37"><stop offset="0" stop-color="#fff67b"/><stop offset="1" stop-color="#ffd300"/></radialGradient><linearGradient x1="260.80245" y1="195.23659" x2="261.14318" y2="194.98107" gradientUnits="userSpaceOnUse" id="color-38"><stop offset="0" stop-color="#2b281f"/><stop offset="1" stop-color="#1f1c15"/></linearGradient><linearGradient x1="260.80245" y1="195.23659" x2="261.14318" y2="194.98107" gradientUnits="userSpaceOnUse" id="color-39"><stop offset="0" stop-color="#464646"/><stop offset="1" stop-color="#353535"/></linearGradient><radialGradient cx="260.05852" cy="193.4746" r="3.77672" gradientUnits="userSpaceOnUse" id="color-40"><stop offset="0" stop-color="#e8e46e"/><stop offset="1" stop-color="#b59317"/></radialGradient><linearGradient x1="261.0129" y1="195.07877" x2="261.53401" y2="194.68796" gradientUnits="userSpaceOnUse" id="color-41"><stop offset="0" stop-color="#464646"/><stop offset="1" stop-color="#353535"/></linearGradient><linearGradient x1="264.32846" y1="188.46427" x2="262.18177" y2="190.07417" gradientUnits="userSpaceOnUse" id="color-42"><stop offset="0" stop-color="#191919"/><stop offset="1" stop-color="#000000"/></linearGradient><linearGradient x1="268.32042" y1="193.78726" x2="266.17373" y2="195.39716" gradientUnits="userSpaceOnUse" id="color-43"><stop offset="0" stop-color="#191919"/><stop offset="1" stop-color="#000000"/></linearGradient><linearGradient x1="267.06041" y1="190.54345" x2="266.71968" y2="190.79898" gradientUnits="userSpaceOnUse" id="color-44"><stop offset="0" stop-color="#2b281f"/><stop offset="1" stop-color="#1f1c15"/></linearGradient><linearGradient x1="267.06041" y1="190.54345" x2="266.71968" y2="190.79898" gradientUnits="userSpaceOnUse" id="color-45"><stop offset="0" stop-color="#464646"/><stop offset="1" stop-color="#353535"/></linearGradient><linearGradient x1="263.43813" y1="189.40054" x2="267.18722" y2="194.39968" gradientUnits="userSpaceOnUse" id="color-46"><stop offset="0" stop-color="#303030"/><stop offset="1" stop-color="#212121"/></linearGradient><radialGradient cx="265.42014" cy="190.59851" r="3.23466" gradientUnits="userSpaceOnUse" id="color-47"><stop offset="0" stop-color="#626262"/><stop offset="1" stop-color="#2e2e2e"/></radialGradient><radialGradient cx="265.57728" cy="189.33582" r="3.77672" gradientUnits="userSpaceOnUse" id="color-48"><stop offset="0" stop-color="#e8e46e"/><stop offset="1" stop-color="#b59317"/></radialGradient><linearGradient x1="266.84996" y1="190.70128" x2="266.32885" y2="191.09208" gradientUnits="userSpaceOnUse" id="color-49"><stop offset="0" stop-color="#464646"/><stop offset="1" stop-color="#353535"/></linearGradient><radialGradient cx="265.48126" cy="191.57177" r="0.89767" gradientUnits="userSpaceOnUse" id="color-50"><stop offset="0" stop-color="#fff67b"/><stop offset="1" stop-color="#ffd300"/></radialGradient><radialGradient cx="262.7559" cy="191.4517" r="3.77672" gradientUnits="userSpaceOnUse" id="color-51"><stop offset="0" stop-color="#e8e46e"/><stop offset="1" stop-color="#b59317"/></radialGradient><linearGradient x1="263.71029" y1="193.05586" x2="264.2314" y2="192.66506" gradientUnits="userSpaceOnUse" id="color-52"><stop offset="0" stop-color="#464646"/><stop offset="1" stop-color="#353535"/></linearGradient><radialGradient cx="263.13632" cy="183.97962" r="8.31752" gradientUnits="userSpaceOnUse" id="color-53"><stop offset="0" stop-color="#909090"/><stop offset="1" stop-color="#5d5d5d"/></radialGradient><radialGradient cx="262.92942" cy="183.1376" r="8.31752" gradientUnits="userSpaceOnUse" id="color-54"><stop offset="0" stop-color="#181818"/><stop offset="1" stop-color="#000000"/></radialGradient><linearGradient x1="271.13694" y1="173.35706" x2="280.18594" y2="185.40412" gradientUnits="userSpaceOnUse" id="color-55"><stop offset="0" stop-color="#656565" stop-opacity="0.58031"/><stop offset="1" stop-color="#4b4b4b" stop-opacity="0.63676"/></linearGradient><linearGradient x1="271.13694" y1="173.35706" x2="280.18594" y2="185.40412" gradientUnits="userSpaceOnUse" id="color-56"><stop offset="0" stop-color="#454545"/><stop offset="1" stop-color="#000000"/></linearGradient><linearGradient x1="264.99372" y1="178.03291" x2="273.99766" y2="190.01998" gradientUnits="userSpaceOnUse" id="color-57"><stop offset="0" stop-color="#454545"/><stop offset="1" stop-color="#000000"/></linearGradient><linearGradient x1="269.10359" y1="174.94759" x2="278.10753" y2="186.93466" gradientUnits="userSpaceOnUse" id="color-58"><stop offset="0" stop-color="#454545"/><stop offset="1" stop-color="#000000"/></linearGradient><linearGradient x1="273.21346" y1="171.86227" x2="282.21741" y2="183.84935" gradientUnits="userSpaceOnUse" id="color-59"><stop offset="0" stop-color="#454545"/><stop offset="1" stop-color="#000000"/></linearGradient><linearGradient x1="277.32333" y1="168.77696" x2="286.32728" y2="180.76403" gradientUnits="userSpaceOnUse" id="color-60"><stop offset="0" stop-color="#454545"/><stop offset="1" stop-color="#000000"/></linearGradient><radialGradient cx="283.44688" cy="168.28752" r="8.31752" gradientUnits="userSpaceOnUse" id="color-61"><stop offset="0" stop-color="#909090"/><stop offset="1" stop-color="#5d5d5d"/></radialGradient><radialGradient cx="284.02374" cy="167.93161" r="8.31751" gradientUnits="userSpaceOnUse" id="color-62"><stop offset="0" stop-color="#181818"/><stop offset="1" stop-color="#000000"/></radialGradient><radialGradient cx="255.84576" cy="189.44715" r="8.31752" gradientUnits="userSpaceOnUse" id="color-63"><stop offset="0" stop-color="#909090"/><stop offset="1" stop-color="#5d5d5d"/></radialGradient><radialGradient cx="255.63886" cy="188.60513" r="8.31752" gradientUnits="userSpaceOnUse" id="color-64"><stop offset="0" stop-color="#181818"/><stop offset="1" stop-color="#000000"/></radialGradient><radialGradient cx="260.89247" cy="203.19991" r="22" gradientUnits="userSpaceOnUse" id="color-65"><stop offset="0" stop-color="#696969"/><stop offset="1" stop-color="#2e2e2e"/></radialGradient><radialGradient cx="257.69893" cy="202.72415" r="22" gradientUnits="userSpaceOnUse" id="color-66"><stop offset="0" stop-color="#2d2d2d"/><stop offset="1" stop-color="#0c0c0c"/></radialGradient></defs><g transform="translate(-240.5,-150.14669)"><g data-paper-data="{&quot;isPaintingLayer&quot;:true}" fill-rule="nonzero" stroke-linejoin="miter" stroke-miterlimit="10" stroke-dasharray="" stroke-dashoffset="0" style="mix-blend-mode: normal"><path d="M242,208.35331v-56.70662h56v56.70662z" fill="url(#color-1)" stroke="url(#color-2)" stroke-width="3" stroke-linecap="butt"/><path d="M296.8571,180c0,14.75036 -12.02433,26.70789 -26.8571,26.70789c-14.83277,0 -26.8571,-11.95753 -26.8571,-26.70789c0,-14.75036 12.02433,-26.70789 26.8571,-26.70789c14.83277,0 26.8571,11.95753 26.8571,26.70789z" fill="url(#color-3)" stroke="url(#color-4)" stroke-width="0" stroke-linecap="butt"/><path d="M250.90585,199.66186l-1.83193,3.29735" data-paper-data="{&quot;index&quot;:null}" fill="none" stroke="url(#color-5)" stroke-width="0.5" stroke-linecap="round"/><path d="M281.32039,184.65822l9.50485,18.50209" fill="none" stroke="url(#color-6)" stroke-width="0.5" stroke-linecap="round"/><path d="M261.30091,200.12209c-3.51129,2.63329 -8.5007,1.91053 -11.14416,-1.61432c-2.64345,-3.52485 -1.93993,-8.51701 1.57137,-11.1503c3.51129,-2.63329 8.5007,-1.91053 11.14416,1.61432c2.64345,3.52485 1.93993,8.51701 -1.57137,11.1503z" fill="url(#color-7)" stroke="url(#color-8)" stroke-width="0.5" stroke-linecap="butt"/><path d="M268.59768,192.61717c-2.58941,1.94192 -6.39465,1.24119 -8.49925,-1.56514c-2.1046,-2.80633 -1.71158,-6.65554 0.87783,-8.59746c2.58941,-1.94192 6.39465,-1.24119 8.49925,1.56514c2.1046,2.80633 1.71158,6.65554 -0.87783,8.59746z" fill="url(#color-9)" stroke="url(#color-10)" stroke-width="0.5" stroke-linecap="butt"/><path d="M253.42803,185.89086l7.11873,-5.33867l9.75689,13.01009l-7.11873,5.33867z" fill="url(#color-11)" stroke="url(#color-12)" stroke-width="0.5" stroke-linecap="butt"/><path d="M257.30395,184.31727l-2.71616,2.01688" fill="none" stroke="url(#color-13)" stroke-width="0.5" stroke-linecap="round"/><path d="M261.30008,189.63713l-2.32381,1.72264" fill="none" stroke="url(#color-14)" stroke-width="0.5" stroke-linecap="round"/><path d="M255.13234,186.20437l2.1689,-1.62656l3.74909,4.99914l-2.1689,1.62656z" fill="url(#color-15)" stroke="none" stroke-width="0.5" stroke-linecap="butt"/><path d="M255.21972,185.97803l1.81404,-1.36044l3.88141,5.17558l-1.81404,1.36044z" fill="url(#color-16)" stroke="none" stroke-width="0.5" stroke-linecap="butt"/><path d="M258.88343,187.43315l-1.09388,0.24271l0.52623,0.37465l-1.09388,0.24271" fill="none" stroke="url(#color-17)" stroke-width="0.25" stroke-linecap="round"/><path d="M258.85135,191.92508l-0.34073,0.25553l-4.46422,-5.95271l0.34073,-0.25553z" data-paper-data="{&quot;index&quot;:null}" fill="url(#color-18)" stroke="url(#color-19)" stroke-width="0.5" stroke-linecap="butt"/><path d="M259.276,191.67707l-0.52111,0.39081l-4.53186,-6.0429l0.52111,-0.39081z" data-paper-data="{&quot;index&quot;:null}" fill="url(#color-20)" stroke="url(#color-21)" stroke-width="0.5" stroke-linecap="butt"/><path d="M259.80933,182.43835l-2.15634,1.59704" fill="none" stroke="url(#color-22)" stroke-width="0.5" stroke-linecap="round"/><path d="M263.8013,187.76135l-2.15634,1.59704" fill="none" stroke="url(#color-23)" stroke-width="0.5" stroke-linecap="round"/><path d="M259.96363,181.79028l0.34073,-0.25553l4.46422,5.95271l-0.34073,0.25553z" fill="url(#color-24)" stroke="url(#color-25)" stroke-width="0.5" stroke-linecap="butt"/><path d="M257.82973,184.18147l2.1689,-1.62656l3.74909,4.99914l-2.1689,1.62656z" fill="url(#color-26)" stroke="none" stroke-width="0.5" stroke-linecap="butt"/><path d="M257.91711,183.95513l1.81404,-1.36044l3.88142,5.17558l-1.81404,1.36044z" fill="url(#color-27)" stroke="none" stroke-width="0.5" stroke-linecap="butt"/><path d="M259.53897,182.03829l0.52111,-0.39081l4.53186,6.0429l-0.52111,0.39081z" fill="url(#color-28)" stroke="url(#color-29)" stroke-width="0.5" stroke-linecap="butt"/><path d="M261.58082,185.41025l-1.09388,0.24271l0.52623,0.37465l-1.09388,0.24271" fill="none" stroke="url(#color-30)" stroke-width="0.25" stroke-linecap="round"/><path d="M261.97339,189.65417l-0.52111,0.39081l-4.53186,-6.0429l0.52111,-0.39081z" data-paper-data="{&quot;index&quot;:null}" fill="url(#color-31)" stroke="url(#color-32)" stroke-width="0.5" stroke-linecap="butt"/><path d="M261.82788,190.34961l-2.71616,2.01688" fill="none" stroke="url(#color-33)" stroke-width="0.5" stroke-linecap="round"/><path d="M263.50021,197.39211l2.32381,-1.72264" fill="none" stroke="url(#color-34)" stroke-width="0.5" stroke-linecap="round"/><path d="M259.65629,192.23672l2.1689,-1.62656l3.74909,4.99914l-2.1689,1.62656z" fill="url(#color-35)" stroke="none" stroke-width="0.5" stroke-linecap="butt"/><path d="M259.74367,192.01038l1.81404,-1.36044l3.88141,5.17558l-1.81404,1.36044z" fill="url(#color-36)" stroke="none" stroke-width="0.5" stroke-linecap="butt"/><path d="M261.74584,194.32557l1.09388,-0.24271l-0.52623,-0.37465l1.09388,-0.24271" fill="none" stroke="url(#color-37)" stroke-width="0.25" stroke-linecap="round"/><path d="M263.37529,197.95742l-0.34073,0.25553l-4.46422,-5.95271l0.34073,-0.25553z" data-paper-data="{&quot;index&quot;:null}" fill="url(#color-38)" stroke="url(#color-39)" stroke-width="0.5" stroke-linecap="butt"/><path d="M263.79994,197.70941l-0.52111,0.39081l-4.53186,-6.0429l0.52111,-0.39081z" data-paper-data="{&quot;index&quot;:null}" fill="url(#color-40)" stroke="url(#color-41)" stroke-width="0.5" stroke-linecap="butt"/><path d="M262.17694,190.06774l2.15634,-1.59704" fill="none" stroke="url(#color-42)" stroke-width="0.5" stroke-linecap="round"/><path d="M266.16891,195.39073l2.15634,-1.59704" fill="none" stroke="url(#color-43)" stroke-width="0.5" stroke-linecap="round"/><path d="M264.48757,187.82262l0.34073,-0.25553l4.46422,5.95271l-0.34073,0.25553z" fill="url(#color-44)" stroke="url(#color-45)" stroke-width="0.5" stroke-linecap="butt"/><path d="M262.35368,190.21382l2.1689,-1.62656l3.74909,4.99914l-2.1689,1.62656z" fill="url(#color-46)" stroke="none" stroke-width="0.5" stroke-linecap="butt"/><path d="M262.44106,189.98748l1.81404,-1.36044l3.88142,5.17558l-1.81404,1.36044z" fill="url(#color-47)" stroke="none" stroke-width="0.5" stroke-linecap="butt"/><path d="M264.06292,188.07063l0.52111,-0.39081l4.53186,6.04291l-0.52111,0.39081z" fill="url(#color-48)" stroke="url(#color-49)" stroke-width="0.5" stroke-linecap="butt"/><path d="M264.44323,192.30267l1.09388,-0.24271l-0.52623,-0.37465l1.09388,-0.24271" fill="none" stroke="url(#color-50)" stroke-width="0.25" stroke-linecap="round"/><path d="M266.49733,195.68651l-0.52111,0.39081l-4.53186,-6.0429l0.52111,-0.39081z" data-paper-data="{&quot;index&quot;:null}" fill="url(#color-51)" stroke="url(#color-52)" stroke-width="0.5" stroke-linecap="butt"/><path d="M259.84997,180.84174l0.96315,-0.72231l9.98057,13.30836l-0.96315,0.72231z" fill="url(#color-53)" stroke="url(#color-54)" stroke-width="0.5" stroke-linecap="butt"/><path d="M270.53907,192.6461l-9.049,-12.04706l19.29374,-14.48396l9.049,12.04706z" fill="url(#color-55)" stroke="url(#color-56)" stroke-width="0.5" stroke-linecap="butt"/><path d="M264.99372,178.0329l9.00394,11.98707" fill="none" stroke="url(#color-57)" stroke-width="0.5" stroke-linecap="round"/><path d="M269.10359,174.94759l9.00394,11.98707" fill="none" stroke="url(#color-58)" stroke-width="0.5" stroke-linecap="round"/><path d="M273.21347,171.86227l9.00394,11.98707" fill="none" stroke="url(#color-59)" stroke-width="0.5" stroke-linecap="round"/><path d="M277.32334,168.77696l9.00394,11.98707" fill="none" stroke="url(#color-60)" stroke-width="0.5" stroke-linecap="round"/><path d="M266.07889,186.57429l19.16511,-14.3874" fill="none" stroke="#232323" stroke-width="0.5" stroke-linecap="round"/><path d="M280.51464,165.34432l0.96315,-0.72231l9.98057,13.30836l-0.96315,0.72231z" fill="url(#color-61)" stroke="url(#color-62)" stroke-width="0.5" stroke-linecap="butt"/><path d="M252.55941,186.30928l0.96315,-0.72231l9.98057,13.30836l-0.96315,0.72231z" fill="url(#color-63)" stroke="url(#color-64)" stroke-width="0.5" stroke-linecap="butt"/><path d="M248,203.94941v-1.09122h44v1.09122z" fill="url(#color-65)" stroke="url(#color-66)" stroke-width="0.5" stroke-linecap="butt"/><path d="M245.27327,163.339v-8.69862h44.68596v8.69862z" fill-opacity="0.53453" fill="#000000" stroke="#a60000" stroke-width="0" stroke-linecap="butt"/><text transform="translate(245.70712,161.61518) scale(0.21839,0.21839)" font-size="40" xml:space="preserve" fill="#ffffff" fill-rule="nonzero" stroke="none" stroke-width="1" stroke-linecap="butt" stroke-linejoin="miter" stroke-miterlimit="10" stroke-dasharray="" stroke-dashoffset="0" font-family="Serif" font-weight="normal" text-anchor="start" style="mix-blend-mode: normal"><tspan x="0" dy="0">Mass Driver</tspan></text></g></g></svg>