<svg version="1.1" xmlns="http://www.w3.org/2000/svg" xmlns:xlink="http://www.w3.org/1999/xlink" width="44.75301" height="104.89637" viewBox="0,0,44.75301,104.89637"><defs><linearGradient x1="239.74787" y1="156.20876" x2="239.74787" y2="163.05981" gradientUnits="userSpaceOnUse" id="color-1"><stop offset="0" stop-color="#c28b5f"/><stop offset="1" stop-color="#ffb87d"/></linearGradient><radialGradient cx="235.71182" cy="133.55656" r="13.11833" gradientUnits="userSpaceOnUse" id="color-2"><stop offset="0" stop-color="#ffd9ba"/><stop offset="1" stop-color="#ffb87d"/></radialGradient><radialGradient cx="229.21564" cy="134.1709" r="10.07074" gradientUnits="userSpaceOnUse" id="color-3"><stop offset="0" stop-color="#303030"/><stop offset="1" stop-color="#292929"/></radialGradient><radialGradient cx="245.64374" cy="130.99105" r="2.65078" gradientUnits="userSpaceOnUse" id="color-4"><stop offset="0" stop-color="#787878"/><stop offset="1" stop-color="#292929"/></radialGradient><radialGradient cx="234.49144" cy="133.15608" r="4.17314" gradientUnits="userSpaceOnUse" id="color-5"><stop offset="0" stop-color="#a7a7a7"/><stop offset="1" stop-color="#292929"/></radialGradient></defs><g transform="translate(-218.51943,-129.78811)"><g data-paper-data="{&quot;isPaintingLayer&quot;:true}" fill-rule="nonzero" stroke-linejoin="miter" stroke-miterlimit="10" stroke-dasharray="" stroke-dashoffset="0" style="mix-blend-mode: normal"><g><path d="M247.70918,227.25533c0,0 -3.3225,-25.5852 -4.50846,-29.91533c-0.38779,-1.4159 -3.47981,-1.3268 -3.47981,-1.3268c0,0 -3.26074,-4.06384 0.36202,-4.27185c3.06178,-0.1758 9.93097,1.61605 9.93097,1.61605l5.68524,33.43917z" data-paper-data="{&quot;index&quot;:null}" fill="#726f7c" stroke="#000000" stroke-width="0" stroke-linecap="butt"/><path d="M262.17307,233.56987c-0.59179,0.03398 -2.63898,0.1652 -4.70046,0.20288c-1.25333,0.02291 -1.93444,-0.50774 -2.87447,-0.59684c-1.18345,-0.11217 -2.92107,0.38856 -3.77989,0.24604c-1.58251,-0.2626 -2.41531,-0.64042 -2.41531,-0.64042c0,0 -0.32745,-1.00829 -0.37603,-1.56682c-0.06545,-0.7525 0.01863,-2.54226 0.01863,-2.54226c0,0 5.91764,-0.45955 8.2402,-0.39224c1.37433,0.03982 4.27067,0.40265 4.27067,0.40265c0,0 1.49265,0.53091 1.7304,0.94519c0.29118,0.50739 0.98563,1.93533 0.98563,1.93533c0,0 -0.27385,1.95907 -1.09938,2.00647z" data-paper-data="{&quot;index&quot;:null}" fill="#141415" stroke="#000000" stroke-width="0" stroke-linecap="butt"/><path d="M261.75503,231.01482c-0.24781,0.01423 0.79306,1.55875 -2.53739,1.481c-3.14501,-0.07342 -2.84003,-1.02712 -3.94725,-1.04428c-2.31523,-0.03588 -2.54929,0.74239 -3.55608,0.64696c-0.35063,-0.03324 -0.51843,-0.08496 -1.83728,-0.86646c-0.90702,-0.53746 -0.76495,-1.71018 -1.39973,-2.30285c-0.92724,-0.86572 -0.91524,-1.83635 -0.91524,-1.83635l-0.25095,-3.03834c0,0 0.61205,2.1753 1.49687,2.95027c0.79167,0.69337 2.31202,-0.15153 2.79489,-0.1794c0.84555,-0.04879 -0.87505,-3.22318 -0.06558,-3.25139c0.43527,-0.01517 3.70321,-0.44711 3.70321,-0.44711c0,0 0.32803,3.56695 0.56176,3.57372c1.37433,0.03982 4.63385,0.3818 4.63385,0.3818c0,0 1.49265,0.53091 1.73041,0.94519c0.29118,0.50739 0.79912,2.91772 0.79912,2.91772c0,0 -0.38507,0.02211 -1.21061,0.06951z" data-paper-data="{&quot;index&quot;:null}" fill="#252527" stroke="#000000" stroke-width="0" stroke-linecap="butt"/><path d="M256.72951,227.26681l-2.60075,1.24246" fill="none" stroke="#ffffff" stroke-width="0.5" stroke-linecap="round"/><path d="M256.08657,228.76123l2.45885,-1.59869" fill="none" stroke="#ffffff" stroke-width="0.5" stroke-linecap="round"/><path d="M258.27955,228.87824l1.36932,-1.53613" fill="none" stroke="#ffffff" stroke-width="0.5" stroke-linecap="round"/><path d="M252.69573,224.70487l2.16517,-0.36724" fill="none" stroke="#969696" stroke-width="0.5" stroke-linecap="round"/><path d="M253.22862,225.52448l1.91611,-0.4744" fill="none" stroke="#969696" stroke-width="0.5" stroke-linecap="round"/></g><g><path d="M224.25414,226.95999l5.51812,-33.46715c0,0 6.86015,-1.82614 9.92277,-1.66564c3.62375,0.18991 0.38335,4.26998 0.38335,4.26998c0,0 -3.09242,-0.07365 -3.47314,1.34416c-1.16431,4.336 -4.35896,29.93748 -4.35896,29.93748z" fill="#726f7c" stroke="#000000" stroke-width="0" stroke-linecap="butt"/><path d="M239.25327,232.80972c0,0 -0.48671,1.91731 -1.31248,1.87403c-0.59195,-0.03102 -2.6412,-0.12474 -4.69441,-0.313c-1.2483,-0.11446 -1.86721,-0.71649 -2.79184,-0.90799c-1.16405,-0.24108 -2.94604,0.06638 -3.78409,-0.16931c-1.54424,-0.43429 -2.33067,-0.90102 -2.33067,-0.90102c0,0 -0.21509,-1.03807 -0.20221,-1.59857c0.01733,-0.75513 0.29688,-2.52493 0.29688,-2.52493c0,0 5.93237,0.19117 8.23361,0.51236c1.36171,0.19007 4.20091,0.86785 4.20091,0.86785c0,0 1.42553,0.69115 1.6165,1.12898c0.23388,0.53622 0.7678,2.03163 0.7678,2.03163z" data-paper-data="{&quot;index&quot;:null}" fill="#141415" stroke="#000000" stroke-width="0" stroke-linecap="butt"/><path d="M239.01596,232.16177c0,0 -0.38516,-0.02019 -1.21093,-0.06346c-0.24788,-0.01299 0.6176,1.63621 -2.68429,1.19426c-3.11806,-0.41735 -2.71049,-1.33191 -3.80918,-1.4702c-2.29738,-0.28917 -2.61525,0.45879 -3.60555,0.25369c-0.34488,-0.07143 -0.50601,-0.14122 -1.73135,-1.06242c-0.84271,-0.63354 -0.5731,-1.78366 -1.13916,-2.44227c-0.82687,-0.96205 -0.70867,-1.92553 -0.70867,-1.92553l0.08324,-3.04755c0,0 0.37019,2.22925 1.16483,3.09644c0.71099,0.77588 2.31471,0.10253 2.79773,0.12771c0.8458,0.04409 -0.51687,-3.29962 0.29082,-3.23903c0.43431,0.03258 3.7299,-0.03893 3.7299,-0.03893c0,0 -0.0645,3.58141 0.16708,3.61374c1.3617,0.19007 4.56418,0.88688 4.56418,0.88688c0,0 1.42553,0.69115 1.6165,1.12898c0.23389,0.53623 0.47484,2.98768 0.47484,2.98768z" data-paper-data="{&quot;index&quot;:null}" fill="#252527" stroke="#000000" stroke-width="0" stroke-linecap="butt"/><path d="M230.49896,228.77278l2.72117,-0.95023" fill="none" stroke="#ffffff" stroke-width="0.5" stroke-linecap="round"/><path d="M235.03652,227.91775l-2.6191,1.31985" fill="none" stroke="#ffffff" stroke-width="0.5" stroke-linecap="round"/><path d="M234.58439,229.59402l1.52928,-1.37697" fill="none" stroke="#ffffff" stroke-width="0.5" stroke-linecap="round"/><path d="M229.4911,224.83434l2.19237,-0.12796" fill="none" stroke="#969696" stroke-width="0.5" stroke-linecap="round"/><path d="M229.93105,225.70737l1.95653,-0.26174" fill="none" stroke="#969696" stroke-width="0.5" stroke-linecap="round"/></g><path d="M258.80767,193.99811c-0.22182,-0.01839 0.08172,3.72235 -0.85876,3.71127c-0.46258,-0.00545 -0.09585,-2.4372 -0.75258,-3.25353c-0.34763,-0.43211 0.4841,4.26814 -0.74224,3.81779c-0.42102,-0.15462 -0.20004,-3.59236 -0.6609,-4.40146c-0.24671,-0.43313 0.19283,5.21906 -0.62826,4.96388c-0.48742,-0.15148 -0.09973,-3.28764 -0.46412,-4.68496c-0.17752,-0.68074 -0.29721,3.86592 -0.89143,3.55689c-0.36374,-0.18917 -0.47989,-4.63068 -0.5208,-4.6799c-0.22997,-0.27664 -0.93467,2.43346 -1.23276,1.79181c-0.54941,-1.18256 0.40824,-2.63173 1.15676,-3.98847c0.43733,-0.79269 0.44526,-1.97348 0.44526,-1.97348c0,0 0.47525,-2.9911 -0.17046,-6.44597c-0.15527,-0.83081 -0.47565,-3.57231 -0.64343,-4.42421c-0.39708,-2.01625 -0.86171,-4.00179 -1.07525,-5.24379c-0.45931,-2.67132 -0.96371,-6.06801 -0.96371,-6.06801l5.81639,-1.10981c0,0 0.79852,4.83941 1.28686,7.67955c0.19874,1.15586 -0.24391,2.12024 -0.00529,3.92206c0.10697,0.8077 0.0798,4.32813 0.16285,6.47721c0.13827,3.57814 0.59972,5.7235 0.59972,5.7235c0,0 0.61207,4.66857 0.14214,4.62961z" data-paper-data="{&quot;index&quot;:null}" fill="#ffb77d" stroke="#000000" stroke-width="0" stroke-linecap="butt"/><path d="M250.60478,160.13095c5.18864,-1.39149 6.02498,2.10559 6.31026,4.05906c0.28527,1.95347 1.85837,1.3237 -2.90197,2.57523c-4.02355,1.05782 -3.49311,0.61527 -3.77838,-1.3382c-0.28527,-1.95347 -2.33208,-4.57142 0.3701,-5.29609z" data-paper-data="{&quot;index&quot;:null}" fill="#ffffff" stroke="#000000" stroke-width="0" stroke-linecap="butt"/><path d="M235.91979,163.05981v-6.85104h7.65615v6.85104z" fill="url(#color-1)" stroke="#000000" stroke-width="0" stroke-linecap="butt"/><path d="M229.63979,193.59141c0,0 0.16709,-5.5597 -0.35268,-10.94382c-0.35317,-3.65847 -1.40473,-6.95919 -1.56162,-9.45339c-0.29447,-4.68133 -0.2105,-13.38223 -0.2105,-13.38223c0,0 3.69178,-0.58477 5.4694,-0.21857c2.26281,0.46615 7.00656,2.78867 7.00656,2.78867c0,0 3.67689,-2.17061 5.59031,-2.58687c2.01891,-0.43921 6.22369,0.01677 6.22369,0.01677c0,0 -0.06905,9.21711 -0.22689,12.65629c-0.13965,3.04285 -0.88957,6.36811 -1.18346,10.87293c-0.3029,4.64296 -0.14784,10.42155 -0.14784,10.42155c0,0 -2.75697,-0.76932 -5.57187,-0.83754c-1.27833,-0.03098 -1.79126,1.00612 -2.99851,1.16532c-0.96496,0.12724 -2.63623,-0.61291 -3.56107,-0.64966c-0.69915,-0.02778 -2.04377,-0.5306 -2.53801,-0.53471c-0.99795,-0.0083 -1.61572,0.86529 -2.77345,1.02464c-1.34484,0.1851 -3.1641,-0.33939 -3.1641,-0.33939z" fill="#ffffff" stroke="#292e32" stroke-width="0" stroke-linecap="butt"/><path d="M252.80944,143.78617c0,7.73092 -5.73774,13.99807 -12.8156,13.99807c-7.07786,0 -12.8156,-6.26715 -12.8156,-13.99807c0,-7.73092 5.73774,-13.99806 12.8156,-13.99806c7.07786,0 12.8156,6.26714 12.8156,13.99806z" fill="url(#color-2)" stroke="none" stroke-width="0" stroke-linecap="butt"/><path d="M238.36341,145.15473c-0.5265,0.91349 -1.43258,0.38383 -1.43258,0.38383c-0.91393,-0.55722 -2.45095,-1.17574 -2.30203,-2.6961c0.1217,-1.24248 2.13973,-2.33997 3.2068,-2.10706c1.93572,0.42253 3.60144,3.95074 0.5278,4.41932z" fill="#191412" stroke="none" stroke-width="0.5" stroke-linecap="butt"/><path d="M242.78052,149.66933c0.14423,-0.46863 0.47533,-0.57039 0.71965,-0.57602c0.0776,-0.00492 0.15695,0.00165 0.23587,0.02089c-0.28158,-1.08168 -0.10408,-2.4792 -0.44462,-3.52597c0,0 -0.2501,-0.78449 0.51677,-1.04033c0.76687,-0.25584 1.01697,0.52865 1.01697,0.52865c0.4101,1.30859 0.71193,2.9192 0.68474,4.31641c-0.01019,0.5236 0.25251,1.23107 -0.14241,1.56432c-0.4098,0.34581 -1.06036,-0.06797 -1.59055,-0.10196l-0.46926,-0.15113c-0.09725,-0.03132 -0.18459,-0.07973 -0.25988,-0.14099c-0.1971,-0.14779 -0.41151,-0.42524 -0.26729,-0.89386z" fill="#191412" stroke="none" stroke-width="0.5" stroke-linecap="butt"/><path d="M250.25235,145.63763c-0.42472,0.9868 -1.15568,0.41464 -1.15568,0.41464c-0.73728,-0.60194 -1.97722,-1.27009 -1.85707,-2.91248c0.09818,-1.3422 1.72614,-2.52778 2.58696,-2.27617c1.56156,0.45643 2.90532,4.26783 0.42578,4.77401z" fill="#191412" stroke="none" stroke-width="0.5" stroke-linecap="butt"/><g stroke-linecap="butt"><path d="M231.90604,134.18043c-0.16984,0.01553 -0.60661,0.06221 -1.07903,0.1438c-0.52185,0.20742 -1.13106,0.41772 -1.59752,0.64771c-0.28909,0.89276 0.78709,1.80702 -0.65422,2.4752c-2.45813,1.13958 -1.71655,-2.03888 -0.89769,-3.03685c1.27069,-1.10653 3.14359,-1.2394 4.75566,-1.549c2.22048,-0.42645 4.38435,-1.08334 6.57971,-1.21737c0.08249,-0.08622 0.19535,-0.14411 0.32353,-0.15569l0.58612,-0.0529c0.29539,-0.07774 0.61637,-0.15861 0.95355,-0.23507c0.87645,-0.27394 1.93099,-0.41625 2.91353,-0.50866c0.4818,-0.09462 0.9333,-0.1389 1.30669,-0.10536c0.27388,-0.02025 0.5286,-0.03932 0.7561,-0.05986l0.61787,-0.05577c0.28142,-0.0254 0.53014,0.18214 0.55554,0.46356c0.0226,0.25047 -0.13931,0.47504 -0.37361,0.53931l-0.32968,0.09745c0.145,0.12181 0.27656,0.26112 0.39244,0.4197l0.23414,-0.11908l0.29765,0.58522c0.03177,0.05903 0.05238,0.12532 0.05879,0.19629c0.0254,0.28142 -0.18214,0.53014 -0.46355,0.55553c-0.08558,0.00772 -0.16814,-0.00609 -0.24232,-0.03698l-0.50702,-0.19878l0.00585,-0.01492l-0.04787,-0.00377c-0.36209,-0.22374 -0.73047,-0.39249 -1.09838,-0.50678c-0.55947,-0.02006 -1.148,-0.08122 -1.74789,-0.1302c-1.01464,0.1745 -1.9334,0.80247 -2.5904,1.87097c0,0 -0.26893,0.43524 -0.70416,0.1663c-0.43523,-0.26893 -0.1663,-0.70417 -0.1663,-0.70417c0.0575,-0.09265 0.11686,-0.18277 0.17799,-0.27034l-0.28392,0.09053c-0.03801,0.01299 -0.07817,0.02169 -0.11996,0.02546c-0.28142,0.0254 -0.53014,-0.18214 -0.55553,-0.46356c-0.01286,-0.14243 0.03395,-0.27647 0.11981,-0.37743c-0.2451,0.00049 -0.4766,0.01384 -0.6735,0.06241c-1.37524,0.33924 -3.48763,0.45199 -5.48058,0.75785c0.01121,0.24126 -0.14794,0.45435 -0.37516,0.51668l-0.59763,0.17665l-0.00571,-0.01931l-0.00747,0.00194z" fill="url(#color-3)" stroke="none" stroke-width="0.5"/><path d="M247.00008,130.4494c2.70896,-0.28418 2.68558,-0.24349 2.90043,1.58673c0.21485,1.83022 -0.78194,3.36186 -2.22639,3.42102c-1.44446,0.05917 -2.7896,-1.37656 -3.00445,-3.20678c-0.21485,-1.83022 -0.20983,-1.53449 2.33041,-1.80097z" data-paper-data="{&quot;index&quot;:null}" fill="url(#color-4)" stroke="#000000" stroke-width="0"/><path d="M240.38006,133.13026c0.35755,1.99142 -1.17444,3.9329 -3.4218,4.33639c-2.24735,0.40349 -4.35904,-0.88377 -4.71659,-2.8752c-0.35755,-1.99142 -0.40888,-2.02662 3.87102,-2.60142c4.01334,-0.53901 3.90982,-0.85119 4.26737,1.14023z" fill="url(#color-5)" stroke="#000000" stroke-width="0"/></g><path d="M218.9636,189.31647c0,0 0.57633,-2.12973 0.80517,-5.70325c0.13743,-2.14629 0.17326,-5.6677 0.31279,-6.47179c0.31126,-1.79377 -0.18378,-2.77318 0.06888,-3.92231c0.6208,-2.82362 1.63969,-7.63599 1.63969,-7.63599l6.7261,1.30725c0,0 -0.65009,3.37962 -1.234,6.03539c-0.27149,1.23477 -0.84844,3.20457 -1.34764,5.20737c-0.21091,0.84623 -0.635,3.5769 -0.83101,4.40244c-0.81512,3.433 -0.321,6.44028 -0.321,6.44028c0,0 -0.01338,1.18107 0.47879,1.98862c0.84237,1.38217 1.92558,2.86386 1.26562,4.0278c-0.35808,0.63155 -1.12374,-2.10251 -1.39581,-1.83367c-0.04841,0.04784 -0.2681,4.48549 -0.69368,4.6623c-0.69524,0.28886 -0.74713,-4.26193 -0.96608,-3.58721c-0.44943,1.38498 -0.05966,4.53434 -0.62799,4.66928c-0.9574,0.22731 -0.33941,-5.41004 -0.63388,-4.98528c-0.55009,0.79348 -0.3595,4.23877 -0.85086,4.3791c-1.43122,0.40874 -0.37648,-4.26336 -0.78802,-3.84304c-0.77746,0.79406 -0.39855,3.23829 -0.93526,3.22804c-1.09123,-0.02084 -0.66757,-3.75134 -0.92524,-3.74048c-0.54588,0.02301 0.25344,-4.62485 0.25344,-4.62485z" fill="#ffb77d" stroke="#000000" stroke-width="0" stroke-linecap="butt"/><path d="M229.08461,165.35736c-0.36349,1.94472 0.2445,2.40378 -4.40572,1.22085c-5.50178,-1.39955 -3.68728,-0.72086 -3.32379,-2.66558c0.36349,-1.94472 1.39202,-5.41602 7.38835,-3.86319c3.12281,0.8087 0.70464,3.36319 0.34115,5.30791z" fill="#ffffff" stroke="#000000" stroke-width="0" stroke-linecap="butt"/></g></g></svg>