<svg version="1.1" xmlns="http://www.w3.org/2000/svg" xmlns:xlink="http://www.w3.org/1999/xlink" width="43.06261" height="104.02996" viewBox="0,0,43.06261,104.02996"><defs><linearGradient x1="239.74787" y1="156.06833" x2="239.74787" y2="162.91938" gradientUnits="userSpaceOnUse" id="color-1"><stop offset="0" stop-color="#4f6d73"/><stop offset="1" stop-color="#86b9c2"/></linearGradient><radialGradient cx="235.71182" cy="134.47972" r="13.11833" gradientUnits="userSpaceOnUse" id="color-2"><stop offset="0" stop-color="#7bccb1"/><stop offset="1" stop-color="#618c94"/></radialGradient></defs><g transform="translate(-217.9945,-130.87669)"><g data-paper-data="{&quot;isPaintingLayer&quot;:true}" fill-rule="nonzero" stroke-linejoin="miter" stroke-miterlimit="10" stroke-dasharray="" stroke-dashoffset="0" style="mix-blend-mode: normal"><g><path d="M239.87731,190.76344c3.6217,0.22563 10.39343,2.8344 10.39343,2.8344l0.92959,33.83335l-7.62456,-0.475c0,0 0.26351,-25.57127 -0.19495,-29.63958c-0.12994,-1.15301 -3.16228,-2.27961 -3.16228,-2.27961c0,0 -3.40212,-4.46425 -0.34124,-4.27356z" fill="#453d36" stroke="#000000" stroke-width="0" stroke-linecap="butt"/><path d="M257.15424,234.90563c-0.59161,-0.03686 -2.63984,-0.15078 -4.6911,-0.35928c-1.24711,-0.12676 -1.86006,-0.73487 -2.78275,-0.93547c-1.16162,-0.25254 -2.94656,0.03733 -3.78225,-0.20661c-1.53988,-0.4495 -2.32167,-0.92397 -2.32167,-0.92397c0,0 -0.20483,-1.04015 -0.18645,-1.60049c0.02478,-0.75493 0.32176,-2.52188 0.32176,-2.52188c0,0 5.9302,0.24964 8.22816,0.59352c1.35977,0.20348 4.19215,0.90922 4.19215,0.90922c0,0 1.41866,0.70517 1.60529,1.14486c0.22858,0.5385 0.74773,2.03909 0.74773,2.03909c0,0 -0.50559,1.91241 -1.33088,1.861z" data-paper-data="{&quot;index&quot;:null}" fill="#141415" stroke="#000000" stroke-width="0" stroke-linecap="butt"/><path d="M257.04397,232.31896c-0.24774,-0.01543 0.60145,1.64222 -2.69593,1.16774c-3.1138,-0.44806 -2.69723,-1.35857 -3.7945,-1.50768c-2.29442,-0.31181 -2.61964,0.43298 -3.60786,0.21814c-0.34416,-0.07482 -0.5046,-0.1462 -1.7208,-1.07943c-0.83643,-0.64182 -0.55548,-1.78922 -1.11503,-2.45338c-0.81735,-0.97015 -0.68965,-1.93242 -0.68965,-1.93242l0.11328,-3.04658c0,0 0.34819,2.23278 1.13425,3.10776c0.7033,0.78285 2.31358,0.12535 2.79634,0.15528c0.84534,0.05242 -0.48432,-3.30455 0.32274,-3.23599c0.43397,0.03686 3.7301,-0.00216 3.7301,-0.00216c0,0 -0.09981,3.58061 0.13145,3.61522c1.35977,0.20348 4.55521,0.93184 4.55521,0.93184c0,0 1.41866,0.70517 1.6053,1.14486c0.22858,0.5385 0.44536,2.99221 0.44536,2.99221c0,0 -0.38495,-0.02398 -1.21025,-0.0754z" data-paper-data="{&quot;index&quot;:null}" fill="#252527" stroke="#000000" stroke-width="0" stroke-linecap="butt"/><path d="M252.50143,227.99823l-2.7304,0.92335" fill="none" stroke="#ffffff" stroke-width="0.5" stroke-linecap="round"/><path d="M254.31681,228.11132l-2.632,1.29396" fill="none" stroke="#ffffff" stroke-width="0.5" stroke-linecap="round"/><path d="M253.84818,229.78305l1.54278,-1.36182" fill="none" stroke="#ffffff" stroke-width="0.5" stroke-linecap="round"/><path d="M248.80206,224.97339l2.19352,-0.10634" fill="none" stroke="#969696" stroke-width="0.5" stroke-linecap="round"/><path d="M251.1924,225.60828l-1.95902,0.24244" fill="none" stroke="#969696" stroke-width="0.5" stroke-linecap="round"/></g><g><path d="M229.55097,228.17786l0.66647,-33.91247c0,0 6.52776,-2.79014 9.58178,-3.07006c3.61357,-0.33121 0.99115,4.17101 0.99115,4.17101c0,0 -3.07107,0.37015 -3.24473,1.82788c-0.5311,4.45807 -0.02495,30.25314 -0.02495,30.25314z" fill="#453d36" stroke="#000000" stroke-width="0" stroke-linecap="butt"/><path d="M245.43305,231.6516c0,0 -0.207,1.96726 -1.03045,2.04273c-0.59029,0.0541 -2.63183,0.25494 -4.69083,0.36278c-1.25182,0.06556 -1.9506,-0.44159 -2.89312,-0.49864c-1.18658,-0.07183 -2.90614,0.48776 -3.76932,0.37457c-1.59053,-0.20858 -2.43571,-0.55782 -2.43571,-0.55782c0,0 -0.36159,-0.99655 -0.42915,-1.55311c-0.09103,-0.74982 -0.06792,-2.54142 -0.06792,-2.54142c0,0 5.89856,-0.66072 8.22208,-0.67253c1.37489,-0.00698 4.28191,0.25704 4.28191,0.25704c0,0 1.50985,0.47979 1.76157,0.88574c0.30829,0.49719 1.05094,1.90067 1.05094,1.90067z" data-paper-data="{&quot;index&quot;:null}" fill="#141415" stroke="#000000" stroke-width="0" stroke-linecap="butt"/><path d="M245.10536,231.04434c0,0 -0.38408,0.0352 -1.20753,0.11068c-0.24718,0.02266 0.84565,1.53085 -2.4855,1.56651c-3.14569,0.03367 -2.87335,-0.92985 -3.98051,-0.90931c-2.31511,0.04295 -2.52255,0.82873 -3.53201,0.76763c-0.35156,-0.02128 -0.52102,-0.06726 -1.8657,-0.80341c-0.92478,-0.50627 -0.82272,-1.68315 -1.47731,-2.25387c-0.95617,-0.83367 -0.97722,-1.80414 -0.97722,-1.80414l-0.35423,-3.02804c0,0 0.68575,2.15322 1.59643,2.89761c0.81481,0.66602 2.30552,-0.23015 2.78717,-0.27443c0.84339,-0.07754 -0.98427,-3.19153 -0.17622,-3.24728c0.4345,-0.02997 3.68584,-0.5729 3.68584,-0.5729c0,0 0.44926,3.55371 0.68309,3.55252c1.37488,-0.00698 4.64416,0.22384 4.64416,0.22384c0,0 1.50985,0.47979 1.76157,0.88574c0.3083,0.49719 0.89798,2.88883 0.89798,2.88883z" data-paper-data="{&quot;index&quot;:null}" fill="#252527" stroke="#000000" stroke-width="0" stroke-linecap="butt"/><path d="M236.19069,228.91051l2.55696,-1.33028" data-paper-data="{&quot;index&quot;:null}" fill="none" stroke="#ffffff" stroke-width="0.5" stroke-linecap="round"/><path d="M238.15594,229.09568l2.403,-1.68146" data-paper-data="{&quot;index&quot;:null}" fill="none" stroke="#ffffff" stroke-width="0.5" stroke-linecap="round"/><path d="M240.35163,229.13797l1.31623,-1.58186" data-paper-data="{&quot;index&quot;:null}" fill="none" stroke="#ffffff" stroke-width="0.5" stroke-linecap="round"/><path d="M236.7804,224.71636l-2.15142,0.44073" data-paper-data="{&quot;index&quot;:null}" fill="none" stroke="#969696" stroke-width="0.5" stroke-linecap="round"/><path d="M237.08832,225.41874l-1.89885,0.53935" data-paper-data="{&quot;index&quot;:null}" fill="none" stroke="#969696" stroke-width="0.5" stroke-linecap="round"/></g><path d="M218.09055,204.76181c-0.09653,-2.34681 -0.03414,-5.14007 -0.03414,-5.14007c0,0 -0.18259,-3.99258 0.07937,-7.07947c0.22135,-2.60826 1.38243,-8.15648 1.93693,-13.39783c0.73711,-6.96758 0.87188,-13.55542 0.87188,-13.55542l5.68155,1.46148c0,0 -1.01981,12.94928 -1.41673,15.63936c-0.18454,1.25072 -0.62244,3.25602 -0.98048,5.28881c-0.15127,0.85889 -0.38352,3.61253 -0.52137,4.44976c-0.57325,3.48157 0.12978,6.44698 0.12978,6.44698c0,0 -0.35728,4.84834 -0.52856,5.53672c-0.35156,1.41299 -0.15468,4.32732 -0.7122,4.50163c-0.93917,0.29366 -0.7166,-5.37312 -0.98067,-4.92881c-0.49331,0.82997 -0.57097,4.56664 -1.05131,4.74096c-1.39916,0.50773 -0.16493,-4.53976 -0.54609,-4.09171c-0.72008,0.84644 -0.57388,3.8774 -1.11,3.90467c-0.51626,0.02626 -0.73111,-1.66542 -0.81797,-3.77706z" data-paper-data="{&quot;index&quot;:null}" fill="#6b999c" stroke="#000000" stroke-width="0" stroke-linecap="butt"/><path d="M260.14309,208.86462c-0.53612,-0.02728 -0.38992,-3.05823 -1.11,-3.90467c-0.38116,-0.44805 0.85307,4.59944 -0.54609,4.09171c-0.48035,-0.17432 -0.55801,-3.91099 -1.05132,-4.74096c-0.26407,-0.44431 -0.0415,5.22247 -0.98067,4.92881c-0.55751,-0.17432 -0.36064,-3.08864 -0.7122,-4.50163c-0.17128,-0.68838 -0.52856,-5.53672 -0.52856,-5.53672c0,0 0.70303,-2.9654 0.12978,-6.44698c-0.13785,-0.83723 -0.37009,-3.59086 -0.52137,-4.44976c-0.35803,-2.03278 -0.79594,-4.03809 -0.98047,-5.28881c-0.39692,-2.69009 -1.41673,-15.63936 -1.41673,-15.63936l5.68155,-1.46148c0,0 0.13477,6.58784 0.87189,13.55542c0.55449,5.24135 1.71558,10.78958 1.93692,13.39783c0.26197,3.08689 0.07938,7.07947 0.07938,7.07947c0,0 0.06239,2.79326 -0.03414,5.14007c-0.08686,2.11164 -0.30171,3.80333 -0.81797,3.77707z" data-paper-data="{&quot;index&quot;:null}" fill="#6b999c" stroke="#000000" stroke-width="0" stroke-linecap="butt"/><path d="M227.93874,165.25252c-0.25412,1.96201 0.3786,2.38634 -4.33052,1.46542c-5.57146,-1.08955 -3.72183,-0.51344 -3.46771,-2.47545c0.25412,-1.96201 1.08683,-5.48542 7.16065,-4.27049c3.16316,0.63272 0.8917,3.3185 0.63758,5.28051z" fill="#374a50" stroke="#000000" stroke-width="0" stroke-linecap="butt"/><path d="M251.70669,160.16159c6.07382,-1.21493 6.90653,2.30848 7.16065,4.27049c0.25412,1.96201 2.10376,1.38589 -3.4677,2.47545c-4.70913,0.92092 -4.0764,0.49659 -4.33052,-1.46542c-0.25412,-1.96201 -2.5256,-4.64779 0.63757,-5.28051z" data-paper-data="{&quot;index&quot;:null}" fill="#374a50" stroke="#000000" stroke-width="0" stroke-linecap="butt"/><path d="M235.91979,162.91938v-6.85104h7.65615v6.85104z" fill="url(#color-1)" stroke="#000000" stroke-width="0" stroke-linecap="butt"/><path d="M229.63979,193.59142c0,0 0.16709,-5.5597 -0.35268,-10.94382c-0.35317,-3.65847 -1.40473,-6.95919 -1.56162,-9.45339c-0.29447,-4.68133 -0.2105,-13.38223 -0.2105,-13.38223c0,0 3.69178,-0.58477 5.4694,-0.21857c2.26281,0.46615 7.00656,2.78867 7.00656,2.78867c0,0 3.67689,-2.17061 5.59031,-2.58687c2.01891,-0.43921 6.22369,0.01677 6.22369,0.01677c0,0 -0.06905,9.21711 -0.22689,12.65629c-0.13965,3.04285 -0.88957,6.36811 -1.18346,10.87293c-0.3029,4.64296 -0.14784,10.42155 -0.14784,10.42155c0,0 -2.75697,-0.76932 -5.57187,-0.83754c-1.27833,-0.03098 -1.79126,1.00612 -2.99851,1.16532c-0.96496,0.12724 -2.63623,-0.61291 -3.56107,-0.64966c-0.69915,-0.02778 -2.04377,-0.5306 -2.53801,-0.53471c-0.99795,-0.0083 -1.61572,0.86529 -2.77345,1.02464c-1.34484,0.1851 -3.1641,-0.33939 -3.1641,-0.33939z" fill="#374a50" stroke="#292e32" stroke-width="0" stroke-linecap="butt"/><g stroke="none" stroke-linecap="butt"><path d="M252.80944,144.26025c0,7.39154 -5.73774,13.38356 -12.8156,13.38356c-7.07786,0 -12.8156,-5.99202 -12.8156,-13.38356c0,-7.39154 5.73774,-13.38356 12.8156,-13.38356c7.07786,0 12.8156,5.99202 12.8156,13.38356z" fill="url(#color-2)" stroke-width="0"/><path d="M245.74216,149.6655c-0.98899,0.14802 -1.137,-0.84096 -1.137,-0.84096l-0.04548,-0.30387c-0.18667,-1.25255 -0.2693,-2.49618 -0.35208,-3.75939c0,0 -0.06538,-0.99786 0.93248,-1.06324c0.99786,-0.06538 1.06325,0.93248 1.06325,0.93248c0.07914,1.20785 0.15427,2.39677 0.33431,3.59411l0.04548,0.30387c0,0 0.14803,0.98899 -0.84096,1.13701z" fill="#191412" stroke-width="0.5"/><path d="M248.53391,145.00054c-0.3603,-1.31071 1.73333,-4.12384 1.73333,-4.12384c0,0 2.02159,2.4544 2.0489,4.09576c0.02905,1.74635 -3.34136,1.63194 -3.78223,0.02808z" fill="#191412" stroke-width="0.5"/><path d="M235.95233,144.89559c-0.26739,-1.38612 2.62073,-4.03936 2.62073,-4.03936c0,0 2.33641,2.50751 2.12366,4.18209c-0.22636,1.78169 -4.4172,1.55341 -4.74439,-0.14273z" data-paper-data="{&quot;index&quot;:null}" fill="#191412" stroke-width="0.5"/><path d="M235.75964,153.85715c0,-0.41002 0.3231,-0.74242 0.72166,-0.74242c0.39855,0 0.72166,0.3324 0.72166,0.74242c0,0.41002 -0.32309,0.74242 -0.72166,0.74242c-0.39855,0 -0.72166,-0.3324 -0.72166,-0.74242z" fill="#00ffcc" stroke-width="0.5"/><path d="M235.02053,150.8917c0,-0.41002 0.32309,-0.74242 0.72165,-0.74242c0.39855,0 0.72166,0.33239 0.72166,0.74242c0,0.41002 -0.3231,0.74242 -0.72166,0.74242c-0.39855,0 -0.72165,-0.3324 -0.72165,-0.74242z" fill="#00ffcc" stroke-width="0.5"/><path d="M232.80321,152.10829c0,-0.41002 0.32309,-0.74242 0.72165,-0.74242c0.39855,0 0.72166,0.3324 0.72166,0.74242c0,0.41002 -0.3231,0.74242 -0.72166,0.74242c-0.39855,0 -0.72165,-0.33239 -0.72165,-0.74242z" fill="#00ffcc" stroke-width="0.5"/><path d="M232.0641,149.14284c0,-0.41002 0.3231,-0.74241 0.72166,-0.74241c0.39855,0 0.72166,0.33239 0.72166,0.74241c0,0.41002 -0.3231,0.74242 -0.72166,0.74242c-0.39855,0 -0.72166,-0.3324 -0.72166,-0.74242z" fill="#00ffcc" stroke-width="0.5"/><path d="M249.21594,153.71631c-0.21234,0 -0.38448,-0.33239 -0.38448,-0.74242c0,-0.41002 0.17214,-0.74242 0.38448,-0.74242c0.21234,0 0.38447,0.33239 0.38447,0.74242c0,0.41002 -0.17213,0.74242 -0.38447,0.74242z" fill="#00ffcc" stroke-width="0.5"/><path d="M249.60971,150.75086c-0.21234,0 -0.38448,-0.33239 -0.38448,-0.74242c0,-0.41002 0.17214,-0.74242 0.38448,-0.74242c0.21234,0 0.38448,0.33239 0.38448,0.74242c0,0.41002 -0.17214,0.74242 -0.38448,0.74242z" fill="#00ffcc" stroke-width="0.5"/><path d="M250.79102,151.96746c-0.21234,0 -0.38448,-0.3324 -0.38448,-0.74242c0,-0.41002 0.17214,-0.74241 0.38448,-0.74241c0.21234,0 0.38448,0.33239 0.38448,0.74241c0,0.41002 -0.17214,0.74242 -0.38448,0.74242z" fill="#00ffcc" stroke-width="0.5"/><path d="M251.18479,149.00201c-0.21234,0 -0.38448,-0.33239 -0.38448,-0.74241c0,-0.41002 0.17213,-0.74242 0.38448,-0.74242c0.21234,0 0.38448,0.3324 0.38448,0.74242c0,0.41002 -0.17214,0.74241 -0.38448,0.74241z" fill="#00ffcc" stroke-width="0.5"/><path d="M241.69141,137.42511c0,-0.39455 0.31984,-0.71439 0.71439,-0.71439c0.39455,0 0.71439,0.31984 0.71439,0.71439c0,0.39455 -0.31984,0.71439 -0.71439,0.71439c-0.39455,0 -0.71439,-0.31984 -0.71439,-0.71439z" fill="#00ffcc" stroke-width="0.5"/><path d="M243.66691,134.5716c0,-0.39455 0.31984,-0.7144 0.71439,-0.7144c0.39455,0 0.71439,0.31985 0.71439,0.7144c0,0.39455 -0.31984,0.71439 -0.71439,0.71439c-0.39455,0 -0.71439,-0.31984 -0.71439,-0.71439z" fill="#00ffcc" stroke-width="0.5"/><path d="M245.64242,137.49828c0,-0.39455 0.31984,-0.71439 0.71439,-0.71439c0.39455,0 0.71439,0.31984 0.71439,0.71439c0,0.39455 -0.31984,0.71439 -0.71439,0.71439c-0.39455,0 -0.71439,-0.31984 -0.71439,-0.71439z" fill="#00ffcc" stroke-width="0.5"/></g></g></g></svg>