<svg version="1.1" xmlns="http://www.w3.org/2000/svg" xmlns:xlink="http://www.w3.org/1999/xlink" width="108.41579" height="103.25975" viewBox="0,0,108.41579,103.25975"><defs><radialGradient cx="228.2418" cy="167.19014" r="20.58604" gradientUnits="userSpaceOnUse" id="color-1"><stop offset="0" stop-color="#ff8700"/><stop offset="1" stop-color="#a77426"/></radialGradient><radialGradient cx="243.08743" cy="167.17405" r="20.58605" gradientUnits="userSpaceOnUse" id="color-2"><stop offset="0" stop-color="#ff8700"/><stop offset="1" stop-color="#a77426"/></radialGradient><linearGradient x1="241.66258" y1="156.23861" x2="241.37787" y2="163.08375" gradientUnits="userSpaceOnUse" id="color-3"><stop offset="0" stop-color="#2b2b2b"/><stop offset="1" stop-color="#3f3f3f"/></linearGradient><radialGradient cx="238.61457" cy="134.53296" r="13.11833" gradientUnits="userSpaceOnUse" id="color-4"><stop offset="0" stop-color="#7bccb1"/><stop offset="1" stop-color="#618c94"/></radialGradient><radialGradient cx="238.61457" cy="134.53296" r="13.11833" gradientUnits="userSpaceOnUse" id="color-5"><stop offset="0" stop-color="#727272"/><stop offset="1" stop-color="#333333"/></radialGradient><radialGradient cx="241.47859" cy="140.35146" r="11.56644" gradientUnits="userSpaceOnUse" id="color-6"><stop offset="0" stop-color="#ffffff" stop-opacity="0.74902"/><stop offset="1" stop-color="#abffe7" stop-opacity="0.56471"/></radialGradient><radialGradient cx="255.27455" cy="165.78285" r="15.95934" gradientUnits="userSpaceOnUse" id="color-7"><stop offset="0" stop-color="#6f8281"/><stop offset="1" stop-color="#576766"/></radialGradient><radialGradient cx="237.17878" cy="168.36506" r="17.31619" gradientUnits="userSpaceOnUse" id="color-8"><stop offset="0" stop-color="#7a908e"/><stop offset="1" stop-color="#576766"/></radialGradient><linearGradient x1="269.96359" y1="186.70231" x2="280.02063" y2="180.22796" gradientUnits="userSpaceOnUse" id="color-9"><stop offset="0" stop-color="#242424"/><stop offset="1" stop-color="#373737"/></linearGradient><radialGradient cx="267.08628" cy="184.66452" r="3.52256" gradientUnits="userSpaceOnUse" id="color-10"><stop offset="0" stop-color="#bfbfbf"/><stop offset="1" stop-color="#9a9a9a"/></radialGradient><linearGradient x1="281.39835" y1="181.20872" x2="324.43276" y2="166.63059" gradientUnits="userSpaceOnUse" id="color-11"><stop offset="0" stop-color="#b2b2b2"/><stop offset="1" stop-color="#c4c4c4"/></linearGradient><linearGradient x1="281.79739" y1="181.45299" x2="309.96417" y2="171.9114" gradientUnits="userSpaceOnUse" id="color-12"><stop offset="0" stop-color="#cccccc"/><stop offset="1" stop-color="#d8d8d8"/></linearGradient><linearGradient x1="278.88134" y1="181.63755" x2="281.20611" y2="180.89556" gradientUnits="userSpaceOnUse" id="color-13"><stop offset="0" stop-color="#b5b5b5"/><stop offset="1" stop-color="#c5c5c5"/></linearGradient><radialGradient cx="231.53019" cy="167.85484" r="22.04569" gradientUnits="userSpaceOnUse" id="color-14"><stop offset="0" stop-color="#6f8281"/><stop offset="1" stop-color="#576766"/></radialGradient></defs><g transform="translate(-222.99267,-131.07617)"><g data-paper-data="{&quot;isPaintingLayer&quot;:true}" fill-rule="nonzero" stroke-linejoin="miter" stroke-miterlimit="10" stroke-dasharray="" stroke-dashoffset="0" style="mix-blend-mode: normal"><g stroke="none" stroke-width="0" stroke-linecap="butt"><path d="M238.50976,176.63276c-1.21672,21.45903 -1.00382,21.89974 -8.42772,21.48234c-7.83223,-0.44035 -7.56458,-1.07762 -6.61473,-22.10797c0.99438,-22.01627 1.50512,-21.60614 8.42772,-21.48234c7.33285,0.13113 7.86195,0.1112 6.61473,22.10797z" fill="url(#color-1)"/><path d="M253.35538,176.61666c-1.21672,21.45903 -1.00382,21.89974 -8.42772,21.48234c-7.83223,-0.44035 -7.56458,-1.07763 -6.61473,-22.10797c0.99438,-22.01627 1.50512,-21.60613 8.42772,-21.48233c7.33285,0.13113 7.86194,0.11119 6.61473,22.10796z" fill="url(#color-2)"/></g><g><path d="M239.70442,191.34299c3.62872,0 10.54956,2.18267 10.54956,2.18267l3.03149,33.71008h-7.63934c0,0 -1.32697,-25.53818 -2.03751,-29.57011c-0.20138,-1.1427 -3.2979,-2.07857 -3.2979,-2.07857c0,0 -3.67312,-4.24407 -0.6063,-4.24407z" fill="#343331" stroke="#000000" stroke-width="0" stroke-linecap="butt"/><path d="M259.6926,234.32553c-0.59276,0 -2.64411,0.01365 -4.70436,-0.0669c-1.25258,-0.04897 -1.90215,-0.61779 -2.83553,-0.76063c-1.17507,-0.17982 -2.93854,0.22047 -3.78778,0.02896c-1.56485,-0.35288 -2.37463,-0.77782 -2.37463,-0.77782c0,0 -0.26911,-1.0254 -0.2856,-1.5858c-0.02221,-0.75501 0.16433,-2.53701 0.16433,-2.53701c0,0 5.93425,-0.11957 8.24914,0.08076c1.36979,0.11854 4.24057,0.6468 4.24057,0.6468c0,0 1.45976,0.6156 1.67337,1.04283c0.26162,0.52325 0.87307,1.98865 0.87307,1.98865c0,0 -0.3857,1.94015 -1.21259,1.94015z" data-paper-data="{&quot;index&quot;:null}" fill="#141415" stroke="#000000" stroke-width="0" stroke-linecap="butt"/><path d="M259.4217,231.75072c-0.24822,0 0.7024,1.60165 -2.61811,1.33311c-3.13563,-0.25358 -2.77648,-1.18823 -3.8809,-1.26883c-2.30937,-0.16854 -2.58765,0.59503 -3.58732,0.44205c-0.34815,-0.05328 -0.51271,-0.11454 -1.78459,-0.97035c-0.87472,-0.58857 -0.66566,-1.75122 -1.26542,-2.3793c-0.87609,-0.91745 -0.80847,-1.8858 -0.80847,-1.8858l-0.07637,-3.04773c0,0 0.48635,2.20681 1.32529,3.03122c0.75062,0.73761 2.3169,-0.01875 2.80058,-0.01889c0.84696,-0.00024 -0.68885,-3.26804 0.12091,-3.2498c0.43542,0.00981 3.72275,-0.23409 3.72275,-0.23409c0,0 0.12302,3.57989 0.35598,3.60005c1.36979,0.11854 4.60434,0.6468 4.60434,0.6468c0,0 1.45976,0.6156 1.67338,1.04283c0.26162,0.52325 0.63055,2.95873 0.63055,2.95873c0,0 -0.3857,0 -1.2126,0z" data-paper-data="{&quot;index&quot;:null}" fill="#252527" stroke="#000000" stroke-width="0" stroke-linecap="butt"/><path d="M251.95161,228.81212l2.6677,-1.09133" fill="none" stroke="#ffffff" stroke-width="0.5" stroke-linecap="round"/><path d="M253.89176,229.1759l2.54645,-1.45511" fill="none" stroke="#ffffff" stroke-width="0.5" stroke-linecap="round"/><path d="M257.52955,227.96331l-1.45512,1.45511" fill="none" stroke="#ffffff" stroke-width="0.5" stroke-linecap="round"/><path d="M250.73902,224.93183l2.18266,-0.24252" fill="none" stroke="#969696" stroke-width="0.5" stroke-linecap="round"/><path d="M253.16421,225.41686l-1.94015,0.36378" fill="none" stroke="#969696" stroke-width="0.5" stroke-linecap="round"/></g><path d="M237.55311,162.92467l0.2847,-6.84513l7.64954,0.31815l-0.2847,6.84513z" fill="url(#color-3)" stroke="#000000" stroke-width="0" stroke-linecap="butt"/><g stroke="none" stroke-linecap="butt"><path d="M255.35463,144.9136c-0.2621,7.38689 -6.2087,13.17169 -13.28211,12.92071c-7.07341,-0.25098 -12.59507,-6.44268 -12.33297,-13.82957c0.2621,-7.38689 6.2087,-13.17169 13.28211,-12.92071c7.07341,0.25098 12.59507,6.44268 12.33297,13.82957z" fill="url(#color-4)" stroke-width="0"/><path d="M255.35463,144.9136c-0.2621,7.38689 -6.2087,13.17169 -13.28211,12.92071c-7.07341,-0.25098 -12.59507,-6.44268 -12.33297,-13.82957c0.2621,-7.38689 6.2087,-13.17169 13.28211,-12.92071c7.07341,0.25098 12.59507,6.44268 12.33297,13.82957zM255.10803,144.02465c0.19584,-5.51938 -4.11973,-10.15247 -9.63912,-10.3483c-0.6968,-0.02473 -1.37949,0.02247 -2.0409,0.13488c-0.0725,-0.00413 -0.14521,-0.00749 -0.21814,-0.01008c-5.51938,-0.19584 -10.15247,4.11973 -10.3483,9.63912c-0.05446,1.535 0.24,3.00141 0.81225,4.32292c1.17523,3.42922 4.16792,6.038 7.86525,6.63162c0.96138,0.35021 1.99327,0.55767 3.07109,0.59591c5.48295,0.19454 10.09128,-4.06299 10.34385,-9.53002c0.08451,-0.4677 0.13667,-0.94717 0.15402,-1.43608z" fill="url(#color-5)" stroke-width="0"/><path d="M247.62336,151.17657c-0.99362,0.11286 -1.10646,-0.88075 -1.10646,-0.88075l-0.03468,-0.30529c-0.14214,-1.25837 -0.18063,-2.50415 -0.21856,-3.76952c0,0 -0.02995,-0.99956 0.9696,-1.02951c0.99956,-0.02995 1.02952,0.9696 1.02952,0.9696c0.03627,1.20989 0.06919,2.40073 0.20665,3.6037l0.03468,0.30529c0,0 0.11287,0.99362 -0.88075,1.10647z" fill="#191412" stroke-width="0.5"/><path d="M251.22195,145.8165c-0.3136,-1.32266 1.87846,-4.05978 1.87846,-4.05978c0,0 1.93329,2.52454 1.90238,4.16583c-0.0329,1.74628 -3.39713,1.51244 -3.78085,-0.10606z" fill="#191412" stroke-width="0.5"/><path d="M238.14751,145.0426c-0.21807,-1.39472 2.7623,-3.94388 2.7623,-3.94388c0,0 2.24603,2.58878 1.97402,4.25476c-0.28939,1.77254 -4.4695,1.3958 -4.73635,-0.31087z" data-paper-data="{&quot;index&quot;:null}" fill="#191412" stroke-width="0.5"/><g fill="#00ffcc" stroke-width="0.5"><path d="M244.38706,138.09626c0.01399,-0.3943 0.34496,-0.7026 0.73928,-0.68862c0.3943,0.01399 0.7026,0.34496 0.68862,0.73928c-0.01399,0.3943 -0.34496,0.7026 -0.73928,0.68862c-0.3943,-0.01399 -0.7026,-0.34496 -0.68862,-0.73928z"/><path d="M246.46251,135.3146c0.01399,-0.3943 0.34496,-0.70261 0.73928,-0.68863c0.3943,0.01399 0.7026,0.34497 0.68862,0.73929c-0.01399,0.3943 -0.34496,0.7026 -0.73928,0.68862c-0.3943,-0.01399 -0.7026,-0.34496 -0.68862,-0.73928z"/><path d="M248.333,138.30949c0.01399,-0.3943 0.34496,-0.7026 0.73928,-0.68862c0.3943,0.01399 0.7026,0.34496 0.68862,0.73928c-0.01399,0.3943 -0.34496,0.7026 -0.73928,0.68862c-0.3943,-0.01399 -0.7026,-0.34496 -0.68862,-0.73928z"/></g><path d="M255.99282,144.62682c-0.21377,6.02502 -5.56228,10.72563 -11.94624,10.49913c-6.38396,-0.22651 -11.38586,-5.29437 -11.17209,-11.31939c0.21377,-6.02502 5.56228,-10.72563 11.94624,-10.49913c6.38396,0.22651 11.38586,5.29437 11.17209,11.31939z" fill="url(#color-6)" stroke-width="0"/></g><g><path d="M226.12338,227.23574l3.75904,-33.71008c0,0 6.75518,-2.18267 9.822,-2.18267c3.62872,0 0.6063,4.24407 0.6063,4.24407c0,0 -3.09204,0.08829 -3.39803,1.52409c-0.93579,4.39099 -2.78619,30.12458 -2.78619,30.12458z" fill="#343331" stroke="#000000" stroke-width="0" stroke-linecap="butt"/><path d="M241.75187,232.39489c0,0 -0.3857,1.94015 -1.2126,1.94015c-0.59276,0 -2.64411,0.01366 -4.70436,-0.06689c-1.25258,-0.04897 -1.90215,-0.61779 -2.83553,-0.76063c-1.17507,-0.17983 -2.93853,0.22047 -3.78777,0.02896c-1.56485,-0.35288 -2.37463,-0.77781 -2.37463,-0.77781c0,0 -0.26912,-1.02539 -0.2856,-1.5858c-0.02221,-0.755 0.16433,-2.53701 0.16433,-2.53701c0,0 5.93424,-0.11957 8.24914,0.08075c1.36979,0.11854 4.24057,0.6468 4.24057,0.6468c0,0 1.45975,0.6156 1.67337,1.04283c0.26162,0.52325 0.87307,1.98866 0.87307,1.98866z" data-paper-data="{&quot;index&quot;:null}" fill="#141415" stroke="#000000" stroke-width="0" stroke-linecap="butt"/><path d="M241.48097,231.76025c0,0 -0.38569,0 -1.21259,0c-0.24822,0 0.70239,1.60165 -2.61811,1.33311c-3.13563,-0.25359 -2.77648,-1.18823 -3.8809,-1.26883c-2.30937,-0.16854 -2.58766,0.59503 -3.58733,0.44204c-0.34815,-0.05328 -0.51271,-0.11454 -1.78458,-0.97035c-0.87471,-0.58857 -0.66566,-1.75122 -1.26542,-2.3793c-0.87609,-0.91746 -0.80847,-1.8858 -0.80847,-1.8858l-0.07637,-3.04773c0,0 0.48635,2.20682 1.32529,3.03123c0.75062,0.73761 2.3169,-0.01875 2.80058,-0.01889c0.84695,-0.00024 -0.68885,-3.26805 0.12091,-3.24981c0.43542,0.00981 3.72275,-0.23408 3.72275,-0.23408c0,0 0.12302,3.57988 0.35598,3.60004c1.36978,0.11854 4.60434,0.6468 4.60434,0.6468c0,0 1.45975,0.6156 1.67337,1.04283c0.26163,0.52325 0.63055,2.95873 0.63055,2.95873z" data-paper-data="{&quot;index&quot;:null}" fill="#252527" stroke="#000000" stroke-width="0" stroke-linecap="butt"/><path d="M232.79828,228.82164l2.66771,-1.09134" data-paper-data="{&quot;index&quot;:null}" fill="none" stroke="#ffffff" stroke-width="0.5" stroke-linecap="round"/><path d="M237.28487,227.73031l-2.54644,1.45511" data-paper-data="{&quot;index&quot;:null}" fill="none" stroke="#ffffff" stroke-width="0.5" stroke-linecap="round"/><path d="M236.92109,229.42794l1.45512,-1.45512" data-paper-data="{&quot;index&quot;:null}" fill="none" stroke="#ffffff" stroke-width="0.5" stroke-linecap="round"/><path d="M233.76835,224.69883l-2.18267,0.24252" data-paper-data="{&quot;index&quot;:null}" fill="none" stroke="#969696" stroke-width="0.5" stroke-linecap="round"/><path d="M232.07072,225.79016l1.94015,-0.36378" data-paper-data="{&quot;index&quot;:null}" fill="none" stroke="#969696" stroke-width="0.5" stroke-linecap="round"/></g><g><path d="M276.03528,181.68262c0,0 -1.45293,-2.03142 -3.89641,-3.58688c-0.58759,-0.37405 -2.40353,-1.73546 -3.01153,-2.11333c-1.43896,-0.89434 -2.90314,-1.72635 -3.76965,-2.29782c-1.86371,-1.22913 -10.9233,-7.29975 -10.9233,-7.29975c0,0 -4.87935,-3.36506 -4.43552,-4.05716c3.24628,-5.06206 7.09106,-0.48281 7.09106,-0.48281c0,0 4.12255,3.50666 8.7963,6.86281c3.51582,2.52465 7.54025,4.8566 9.26105,6.14531c2.03658,1.52521 4.39569,3.80716 4.39569,3.80716z" data-paper-data="{&quot;index&quot;:null}" fill="url(#color-7)" stroke="#000000" stroke-width="0" stroke-linecap="butt"/><path d="M284.57756,184.02027c-0.29951,0.30313 -2.08642,-1.4337 -2.98671,-1.46744c-0.47656,-0.01785 3.27851,1.99809 2.22838,2.55153c-0.36053,0.19 -2.69951,-1.79827 -3.47009,-1.95754c-0.41252,-0.08527 3.1899,2.86786 2.51401,3.26504c-0.40122,0.23576 -2.08968,-1.46763 -3.14405,-2.0284c-0.51367,-0.27318 -3.6838,-2.70085 -3.6838,-2.70085l3.50768,-3.02248c0,0 1.75073,1.48372 3.1431,2.81864c1.25284,1.20115 2.17991,2.24958 1.8915,2.5415z" data-paper-data="{&quot;index&quot;:null}" fill="#323a3a" stroke="#000000" stroke-width="0" stroke-linecap="butt"/><path d="M257.32953,162.34418l-2.72853,3.86477" fill="none" stroke="#00ffb0" stroke-width="1" stroke-linecap="round"/><path d="M258.49515,163.10299l-2.71724,4.01128" fill="none" stroke="#00ffb0" stroke-width="1" stroke-linecap="round"/><path d="M259.6833,164.15485l-2.72853,3.86477" fill="none" stroke="#00ffb0" stroke-width="1" stroke-linecap="round"/></g><g stroke-width="0" stroke-linecap="butt"><path d="M230.00394,193.30925c0,0 0.39798,-5.54795 0.1024,-10.94902c-0.20083,-3.66998 -1.11432,-7.01156 -1.16743,-9.51011c-0.09968,-4.68953 0.34579,-13.37942 0.34579,-13.37942c0,0 3.71289,-0.43085 5.47376,0.0089c2.24148,0.55978 6.88462,3.07742 6.88462,3.07742c0,0 3.76392,-2.01594 5.69297,-2.35233c2.03541,-0.35493 6.21761,0.27538 6.21761,0.27538c0,0 -0.45201,9.20628 -0.75263,12.63593c-0.26598,3.03442 -1.15343,6.32564 -1.63427,10.81436c-0.49558,4.62636 -0.58079,10.40641 -0.58079,10.40641c0,0 -2.72262,-0.88322 -5.53225,-1.06836c-1.27594,-0.08408 -1.83152,0.93082 -3.04435,1.03971c-0.96941,0.08703 -2.60849,-0.72193 -3.531,-0.79708c-0.69739,-0.05681 -2.01995,-0.61508 -2.51359,-0.63972c-0.99675,-0.04976 -1.65028,0.7974 -2.81363,0.9085c-1.35137,0.12905 -3.14726,-0.47058 -3.14726,-0.47058z" fill="url(#color-8)" stroke="#292e32"/><path d="M248.38493,167.08553c3.55738,0.11642 3.36115,1.02009 3.31607,2.10411c-0.04509,1.08402 0.71449,2.03488 -3.47933,1.82148c-4.03314,-0.20522 -3.37339,0.87682 -3.31607,-2.10411c0.04695,-2.44095 -0.55671,-1.95357 3.47933,-1.82148z" data-paper-data="{&quot;index&quot;:null}" fill="#c9ffe7" stroke="#000000"/></g><g stroke="none" stroke-width="0" stroke-linecap="butt"><path d="M270.55819,187.62593l-1.61639,-4.76556l10.4842,-3.55603l1.61638,4.76557z" fill="url(#color-9)"/><path d="M271.49999,183.6186c1.05306,1.63579 0.58068,3.81555 -1.05512,4.86862c-1.6358,1.05307 -3.81557,0.58068 -4.86863,-1.05512c-1.05307,-1.63579 -0.58068,-3.81557 1.05512,-4.86862c1.6358,-1.05307 3.81557,-0.58068 4.86863,1.05512z" fill="url(#color-10)"/><path d="M282.89058,185.6138l-2.9845,-8.81019l43.33605,-12.67526l8.16632,-0.26975l-6.45887,4.84289z" fill="url(#color-11)"/><path d="M282.77411,184.33622l-2.13666,-6.07369l36.22382,-10.48376l10.01338,-2.12737l-8.95503,4.32274z" fill="url(#color-12)"/><path d="M279.68796,168.93764c0,0 0.57539,7.98564 1.72608,11.76251c1.26339,4.14684 5.54774,12.1124 5.54774,12.1124c0,0 -6.67859,-7.45693 -7.90391,-11.47886c-1.19869,-3.93444 0.63009,-12.39605 0.63009,-12.39605z" fill="url(#color-13)"/></g><g><path d="M262.70405,185.014c0,0 -4.19644,-1.39171 -7.2814,-2.88416c-2.60661,-1.26105 -8.27327,-3.26846 -13.4679,-5.91585c-6.90546,-3.5193 -7.54357,-2.81587 -11.33612,-7.29032c-3.79256,-4.47446 -6.82202,-8.32287 -1.75682,-10.01092c4.9309,0.3361 6.5389,5.04403 9.6399,6.98553c3.101,1.9415 6.62388,4.42473 9.24551,5.89952c1.21889,0.68568 3.41511,1.05728 5.37319,2.23175c0.82733,0.49623 3.57979,1.82606 4.39005,2.29985c3.36942,1.97021 6.71085,2.41777 6.71085,2.41777z" data-paper-data="{&quot;index&quot;:null}" fill="url(#color-14)" stroke="#000000" stroke-width="0" stroke-linecap="butt"/><path d="M268.02705,187.01324c-2.46236,-0.82919 -5.323,-1.99926 -5.323,-1.99926l1.51727,-6.26689c0,0 4.86672,2.28811 5.50999,2.73752c1.32041,0.92244 4.40872,1.8726 4.3681,2.51749c-0.06841,1.08636 -5.83386,-1.38656 -5.47943,-0.93791c0.66207,0.83809 4.49115,2.39734 4.48109,2.96251c-0.02935,1.64625 -4.75468,-1.62656 -4.44273,-1.05549c0.58932,1.07885 3.77804,2.12753 3.594,2.69212c-0.17722,0.54367 -2.00969,0.096 -4.22532,-0.6501z" data-paper-data="{&quot;index&quot;:null}" fill="#323a3a" stroke="#000000" stroke-width="0" stroke-linecap="butt"/><path d="M234.40065,162.9736l-3.97189,5.65132" fill="none" stroke="#00ffb0" stroke-width="1" stroke-linecap="round"/><path d="M236.21697,164.36285l-4.09532,5.87453" fill="none" stroke="#00ffb0" stroke-width="1" stroke-linecap="round"/><path d="M237.91669,165.90504l-3.66384,5.7875" fill="none" stroke="#00ffb0" stroke-width="1" stroke-linecap="round"/></g></g></g></svg>