<svg version="1.1" xmlns="http://www.w3.org/2000/svg" xmlns:xlink="http://www.w3.org/1999/xlink" width="304.71709" height="232.54961" viewBox="0,0,304.71709,232.54961"><defs><linearGradient x1="134" y1="-37.25001" x2="134.5" y2="-37.25001" gradientUnits="userSpaceOnUse" id="color-1"><stop offset="0" stop-color="#1a1a1a"/><stop offset="1" stop-color="#000000"/></linearGradient><linearGradient x1="120.00001" y1="-37.83334" x2="148" y2="-37.83334" gradientUnits="userSpaceOnUse" id="color-2"><stop offset="0" stop-color="#1a1a1a"/><stop offset="1" stop-color="#000000"/></linearGradient><linearGradient x1="239.46282" y1="109.503" x2="239.46282" y2="177.0087" gradientUnits="userSpaceOnUse" id="color-3"><stop offset="0" stop-color="#989898"/><stop offset="1" stop-color="#5b5b5b"/></linearGradient><linearGradient x1="241.75006" y1="108.27318" x2="241.75006" y2="117.6203" gradientUnits="userSpaceOnUse" id="color-4"><stop offset="0" stop-color="#626975"/><stop offset="1" stop-color="#a8abc9"/></linearGradient><linearGradient x1="240.00006" y1="128.55242" x2="240.00006" y2="178.2035" gradientUnits="userSpaceOnUse" id="color-5"><stop offset="0" stop-color="#1b1b1b"/><stop offset="1" stop-color="#070707"/></linearGradient><linearGradient x1="117.68293" y1="90.58481" x2="150.6829" y2="90.58481" gradientUnits="userSpaceOnUse" id="color-6"><stop offset="0" stop-color="#1a1a1a"/><stop offset="1" stop-color="#000000"/></linearGradient><linearGradient x1="118.30793" y1="90.79018" x2="150.8079" y2="90.79018" gradientUnits="userSpaceOnUse" id="color-7"><stop offset="0" stop-color="#1a1a1a"/><stop offset="1" stop-color="#000000"/></linearGradient><linearGradient x1="118.05793" y1="90.79018" x2="150.5579" y2="90.79018" gradientUnits="userSpaceOnUse" id="color-8"><stop offset="0" stop-color="#1a1a1a"/><stop offset="1" stop-color="#000000"/></linearGradient><linearGradient x1="117.6829" y1="56.08481" x2="150.6829" y2="56.08481" gradientUnits="userSpaceOnUse" id="color-9"><stop offset="0" stop-color="#1a1a1a"/><stop offset="1" stop-color="#000000"/></linearGradient><linearGradient x1="118.3079" y1="56.29018" x2="150.8079" y2="56.29018" gradientUnits="userSpaceOnUse" id="color-10"><stop offset="0" stop-color="#1a1a1a"/><stop offset="1" stop-color="#000000"/></linearGradient><linearGradient x1="118.0579" y1="56.29018" x2="150.5579" y2="56.29018" gradientUnits="userSpaceOnUse" id="color-11"><stop offset="0" stop-color="#1a1a1a"/><stop offset="1" stop-color="#000000"/></linearGradient><linearGradient x1="117.68293" y1="21.58481" x2="150.68291" y2="21.58481" gradientUnits="userSpaceOnUse" id="color-12"><stop offset="0" stop-color="#1a1a1a"/><stop offset="1" stop-color="#000000"/></linearGradient><linearGradient x1="118.30793" y1="21.79018" x2="150.80791" y2="21.79018" gradientUnits="userSpaceOnUse" id="color-13"><stop offset="0" stop-color="#1a1a1a"/><stop offset="1" stop-color="#000000"/></linearGradient><linearGradient x1="118.05793" y1="21.79018" x2="150.55791" y2="21.79018" gradientUnits="userSpaceOnUse" id="color-14"><stop offset="0" stop-color="#1a1a1a"/><stop offset="1" stop-color="#000000"/></linearGradient><linearGradient x1="117.6829" y1="-12.91519" x2="150.6829" y2="-12.91519" gradientUnits="userSpaceOnUse" id="color-15"><stop offset="0" stop-color="#1a1a1a"/><stop offset="1" stop-color="#000000"/></linearGradient><linearGradient x1="118.3079" y1="-12.70983" x2="150.8079" y2="-12.70983" gradientUnits="userSpaceOnUse" id="color-16"><stop offset="0" stop-color="#1a1a1a"/><stop offset="1" stop-color="#000000"/></linearGradient><linearGradient x1="118.0579" y1="-12.70983" x2="150.5579" y2="-12.70983" gradientUnits="userSpaceOnUse" id="color-17"><stop offset="0" stop-color="#1a1a1a"/><stop offset="1" stop-color="#000000"/></linearGradient><linearGradient x1="323.87456" y1="144.66665" x2="342.37456" y2="144.66665" gradientUnits="userSpaceOnUse" id="color-18"><stop offset="0" stop-color="#684940"/><stop offset="1" stop-color="#3a2b24"/></linearGradient><linearGradient x1="342.37456" y1="144.41665" x2="361.87456" y2="144.41665" gradientUnits="userSpaceOnUse" id="color-19"><stop offset="0" stop-color="#684940"/><stop offset="1" stop-color="#3a2b24"/></linearGradient><linearGradient x1="324.74956" y1="120.12499" x2="346.99956" y2="120.12499" gradientUnits="userSpaceOnUse" id="color-20"><stop offset="0" stop-color="#684940"/><stop offset="1" stop-color="#3a2b24"/></linearGradient><linearGradient x1="327.24956" y1="129.24999" x2="349.49956" y2="129.24999" gradientUnits="userSpaceOnUse" id="color-21"><stop offset="0" stop-color="#684940"/><stop offset="1" stop-color="#3a2b24"/></linearGradient><linearGradient x1="322.99956" y1="110.49999" x2="344.49956" y2="110.49999" gradientUnits="userSpaceOnUse" id="color-22"><stop offset="0" stop-color="#684940"/><stop offset="1" stop-color="#3a2b24"/></linearGradient><linearGradient x1="329.49956" y1="138.87499" x2="351.74956" y2="138.87499" gradientUnits="userSpaceOnUse" id="color-23"><stop offset="0" stop-color="#684940"/><stop offset="1" stop-color="#3a2b24"/></linearGradient><linearGradient x1="332.49956" y1="149.49999" x2="354.99956" y2="149.49999" gradientUnits="userSpaceOnUse" id="color-24"><stop offset="0" stop-color="#684940"/><stop offset="1" stop-color="#3a2b24"/></linearGradient><linearGradient x1="335.49956" y1="159.87499" x2="357.99956" y2="159.87499" gradientUnits="userSpaceOnUse" id="color-25"><stop offset="0" stop-color="#684940"/><stop offset="1" stop-color="#3a2b24"/></linearGradient><linearGradient x1="337.99956" y1="170.49999" x2="360.99956" y2="170.49999" gradientUnits="userSpaceOnUse" id="color-26"><stop offset="0" stop-color="#684940"/><stop offset="1" stop-color="#3a2b24"/></linearGradient><linearGradient x1="340.24956" y1="179.37499" x2="363.24956" y2="179.37499" gradientUnits="userSpaceOnUse" id="color-27"><stop offset="0" stop-color="#684940"/><stop offset="1" stop-color="#3a2b24"/></linearGradient></defs><g transform="translate(-87.64147,46.88296)"><g data-paper-data="{&quot;isPaintingLayer&quot;:true}" fill-rule="nonzero" stroke-linejoin="miter" stroke-miterlimit="10" stroke-dasharray="" stroke-dashoffset="0" style="mix-blend-mode: normal"><path d="M134,-44.25001l0.5,14" fill="none" stroke="url(#color-1)" stroke-width="2.5" stroke-linecap="round"/><path d="M120.00001,-30.58334l14,-14.5l14,14.5" fill="none" stroke="url(#color-2)" stroke-width="2.5" stroke-linecap="round"/><path d="M89.47158,177.0087l27.38222,-68.50571h248.29623l24.30405,68.50571z" fill="url(#color-3)" stroke="#000000" stroke-width="2" stroke-linecap="butt"/><path d="M113.25399,117.1203l3.33714,-8.84712h248.8178l3.33713,9.34712z" fill="url(#color-4)" stroke="#000000" stroke-width="1.5" stroke-linecap="butt"/><path d="M180.03561,178.2035l22.14104,-49.65108h76.0778l21.71,49.65108z" fill="url(#color-5)" stroke="#000000" stroke-width="2" stroke-linecap="butt"/><path d="M289.0738,130.33923l13.16458,45.28296" fill="none" stroke="#000000" stroke-width="2.5" stroke-linecap="round"/><path d="M295.58296,130.49198l13.16459,45.28296" fill="none" stroke="#000000" stroke-width="2.5" stroke-linecap="round"/><path d="M176.61538,176.31402l14.50288,-45.28297" data-paper-data="{&quot;index&quot;:null}" fill="none" stroke="#000000" stroke-width="2.5" stroke-linecap="round"/><path d="M169.44454,176.46677l14.50288,-45.28297" data-paper-data="{&quot;index&quot;:null}" fill="none" stroke="#000000" stroke-width="2.5" stroke-linecap="round"/><path d="M88.14148,180.72682v-4.41449h303.71709v4.41449z" fill="#3e3e3e" stroke="#000000" stroke-width="1" stroke-linecap="butt"/><g fill="none" stroke-width="2.5"><path d="M117.68293,107.83629v-34.50296h33v34.50296z" stroke="url(#color-6)" stroke-linecap="butt"/><path d="M150.80792,74.0316l-32.5,33.51716" stroke="url(#color-7)" stroke-linecap="round"/><path d="M118.05793,73.5387l32.5,34.50296" stroke="url(#color-8)" stroke-linecap="round"/></g><g fill="none" stroke-width="2.5"><path d="M117.6829,73.33629v-34.50295h33v34.50296z" stroke="url(#color-9)" stroke-linecap="butt"/><path d="M118.3079,73.04876l32.5,-33.51716" stroke="url(#color-10)" stroke-linecap="round"/><path d="M150.5579,73.54166l-32.5,-34.50296" stroke="url(#color-11)" stroke-linecap="round"/></g><g fill="none" stroke-width="2.5"><path d="M117.68293,38.83628v-34.50296h33v34.50296z" stroke="url(#color-12)" stroke-linecap="butt"/><path d="M150.80793,5.0316l-32.5,33.51716" stroke="url(#color-13)" stroke-linecap="round"/><path d="M150.55792,39.04166l-32.5,-34.50296" stroke="url(#color-14)" stroke-linecap="round"/></g><g fill="none" stroke-width="2.5"><path d="M117.6829,4.33629v-34.50296h33v34.50296z" stroke="url(#color-15)" stroke-linecap="butt"/><path d="M150.8079,-29.4684l-32.5,33.51716" stroke="url(#color-16)" stroke-linecap="round"/><path d="M118.0579,-29.9613l32.5,34.50296" stroke="url(#color-17)" stroke-linecap="round"/></g><g fill="none" stroke-width="3" stroke-linecap="round"><path d="M323.87456,108.41665l19.75,75.75" stroke="url(#color-18)"/><path d="M341.62456,106.41665l21,75" stroke="url(#color-19)"/><path d="M324.74956,120.99999l22.25,-1.75" stroke="url(#color-20)"/><path d="M327.24956,130.99999l22.25,-3.5" stroke="url(#color-21)"/><path d="M322.99956,111.74999l21.5,-2.5" stroke="url(#color-22)"/><path d="M329.49956,140.24999l22.25,-2.75" stroke="url(#color-23)"/><path d="M332.49956,151.74999l22.5,-4.5" stroke="url(#color-24)"/><path d="M335.49956,161.99999l22.5,-4.25" stroke="url(#color-25)"/><path d="M337.99956,172.74999l23,-4.5" stroke="url(#color-26)"/><path d="M340.24956,181.74999l23,-4.75" stroke="url(#color-27)"/></g></g></g></svg>