<svg version="1.1" xmlns="http://www.w3.org/2000/svg" xmlns:xlink="http://www.w3.org/1999/xlink" width="75.35057" height="118.91779" viewBox="0,0,75.35057,118.91779"><defs><radialGradient cx="291.16665" cy="168.84148" r="0.65546" gradientUnits="userSpaceOnUse" id="color-1"><stop offset="0" stop-color="#c6beb6"/><stop offset="1" stop-color="#a9a4a1"/></radialGradient><radialGradient cx="292.28606" cy="169.24056" r="2.69811" gradientUnits="userSpaceOnUse" id="color-2"><stop offset="0" stop-color="#d9d0c7"/><stop offset="1" stop-color="#b7b1ad"/></radialGradient><linearGradient x1="239.7479" y1="149.41539" x2="239.7479" y2="156.26648" gradientUnits="userSpaceOnUse" id="color-3"><stop offset="0" stop-color="#736b4f"/><stop offset="1" stop-color="#bec286"/></linearGradient><radialGradient cx="235.45424" cy="124.47798" r="13.11833" gradientUnits="userSpaceOnUse" id="color-4"><stop offset="0" stop-color="#ccbe7a"/><stop offset="1" stop-color="#948f62"/></radialGradient><radialGradient cx="263.62334" cy="175.03056" r="0.76938" gradientUnits="userSpaceOnUse" id="color-5"><stop offset="0" stop-color="#c6beb6"/><stop offset="1" stop-color="#a9a4a1"/></radialGradient><radialGradient cx="264.93732" cy="175.49901" r="3.16706" gradientUnits="userSpaceOnUse" id="color-6"><stop offset="0" stop-color="#d9d0c7"/><stop offset="1" stop-color="#b7b1ad"/></radialGradient></defs><g transform="translate(-221.30996,-115.40866)"><g data-paper-data="{&quot;isPaintingLayer&quot;:true}" fill-rule="nonzero" stroke-linejoin="miter" stroke-miterlimit="10" stroke-dasharray="" stroke-dashoffset="0" style="mix-blend-mode: normal"><g><path d="M225.92438,227.14047l4.20132,-33.65782c0,0 6.78326,-2.09379 9.84981,-2.05352c3.6284,0.04764 0.55053,4.25166 0.55053,4.25166c0,0 -3.09293,0.04769 -3.41775,1.47935c-0.99336,4.37832 -3.18147,30.0854 -3.18147,30.0854z" fill="#a69b98" stroke="#000000" stroke-width="0" stroke-linecap="butt"/><path d="M241.20948,232.25043c0,0 -0.41114,1.93492 -1.23797,1.92406c-0.5927,-0.00778 -2.64406,-0.02105 -4.70308,-0.12865c-1.25183,-0.06541 -1.89387,-0.64271 -2.8253,-0.7978c-1.17261,-0.19524 -2.94117,0.18187 -3.78783,-0.02078c-1.56008,-0.3734 -2.36421,-0.80893 -2.36421,-0.80893c0,0 -0.25563,-1.02883 -0.26475,-1.58941c-0.01229,-0.75523 0.19763,-2.53463 0.19763,-2.53463c0,0 5.9353,-0.04164 8.24737,0.18905c1.36812,0.13652 4.23171,0.70242 4.23171,0.70242c0,0 1.45154,0.63472 1.65954,1.06472c0.25472,0.52664 0.84688,1.99995 0.84688,1.99995z" data-paper-data="{&quot;index&quot;:null}" fill="#141415" stroke="#000000" stroke-width="0" stroke-linecap="butt"/><path d="M240.94693,231.61228c0,0 -0.38566,-0.00506 -1.21248,-0.01592c-0.2482,-0.00326 0.6813,1.61073 -2.63539,1.29862c-3.13203,-0.29474 -2.76064,-1.22458 -3.8639,-1.31967c-2.30696,-0.19884 -2.59525,0.56101 -3.59282,0.39491c-0.34742,-0.05784 -0.51116,-0.12127 -1.77168,-0.9937c-0.86691,-0.60001 -0.6426,-1.75981 -1.23407,-2.39571c-0.86397,-0.92889 -0.78364,-1.89625 -0.78364,-1.89625l-0.03635,-3.04847c0,0 0.45734,2.21301 1.28538,3.04836c0.74087,0.7474 2.31695,0.01167 2.80058,0.01789c0.84688,0.01088 -0.64588,-3.27682 0.16356,-3.24794c0.43525,0.01552 3.7255,-0.18518 3.7255,-0.18518c0,0 0.07601,3.58119 0.30869,3.6044c1.36811,0.13652 4.59545,0.7072 4.59545,0.7072c0,0 1.45154,0.63472 1.65954,1.06472c0.25473,0.52664 0.59165,2.96675 0.59165,2.96675z" data-paper-data="{&quot;index&quot;:null}" fill="#252527" stroke="#000000" stroke-width="0" stroke-linecap="butt"/><path d="M232.30358,228.55996l2.6818,-1.05622" data-paper-data="{&quot;index&quot;:null}" fill="none" stroke="#ffffff" stroke-width="0.5" stroke-linecap="round"/><path d="M236.8041,227.52763l-2.56532,1.42155" data-paper-data="{&quot;index&quot;:null}" fill="none" stroke="#ffffff" stroke-width="0.5" stroke-linecap="round"/><path d="M236.41807,229.22032l1.4741,-1.43589" data-paper-data="{&quot;index&quot;:null}" fill="none" stroke="#ffffff" stroke-width="0.5" stroke-linecap="round"/><path d="M231.14203,224.66411l2.18566,-0.21384" data-paper-data="{&quot;index&quot;:null}" fill="none" stroke="#969696" stroke-width="0.5" stroke-linecap="round"/><path d="M231.61587,225.51921l1.94476,-0.33827" data-paper-data="{&quot;index&quot;:null}" fill="none" stroke="#969696" stroke-width="0.5" stroke-linecap="round"/></g><g stroke="#000000" stroke-width="0" stroke-linecap="butt"><path d="M296.64508,167.29822c-0.19368,0.4763 -3.87979,-0.76396 -4.79556,0.33124c-0.31439,0.37599 4.56238,2.38477 3.99201,3.13588c-0.33858,0.44587 -3.01617,-0.71945 -4.45448,-0.87962c-0.70071,-0.07802 -5.36984,-1.3965 -5.36984,-1.3965c0,0 -2.56695,-1.64104 -6.0191,-2.30103c-0.83014,-0.15871 -3.49118,-0.88098 -4.34591,-1.03488c-2.0229,-0.36422 -4.04503,-0.64679 -5.27847,-0.90328c-2.65293,-0.55162 -15.14408,-4.01374 -15.14408,-4.01374l0.40701,-5.64053c0,0 6.23441,2.10916 13.01453,3.80139c5.10033,1.27299 10.67923,2.10053 13.20021,2.78345c2.9836,0.80823 6.67915,2.32582 6.67915,2.32582c0,0 2.64505,0.88954 4.82066,1.7718c1.95759,0.79385 3.48034,1.56139 3.29385,2.02005z" data-paper-data="{&quot;index&quot;:null}" fill="#8b8560"/><path d="M248.22303,158.44374c0.7617,-5.9123 4.33447,-5.47312 6.25829,-5.03876c1.92383,0.43435 1.96201,-1.43591 1.23993,3.97895c-0.61032,4.57676 -0.81085,3.86002 -2.73467,3.42565c-1.92382,-0.43435 -5.16021,0.7132 -4.76353,-2.36585z" data-paper-data="{&quot;index&quot;:null}" fill="#42352d"/></g><path d="M280.02093,196.33949l0.26657,-53.2254l0.66092,0.00326l-0.26655,53.2254z" fill="#2e2c2a" stroke="none" stroke-width="0" stroke-linecap="butt"/><g stroke="none" stroke-width="0" stroke-linecap="butt"><path d="M281.07047,136.93916c0,0 -1.35218,3.51898 1.61865,8.71751c3.33641,5.83829 10.17451,14.3762 11.74174,20.26217c0.21272,0.79898 -1.37288,2.0591 -1.37633,2.74695c-0.00444,0.88769 1.56162,1.32538 1.32012,2.31974c-1.74678,7.19281 -9.0556,16.82618 -12.67545,23.8312c-2.32961,4.50824 -0.95679,7.6306 -0.95679,7.6306c0,0 -2.31226,-3.17068 -1.14966,-7.35081c2.24799,-8.08253 12.81473,-19.04732 12.85176,-26.44259c0.02948,-5.88596 -10.56286,-16.63531 -12.57763,-23.10068c-1.60619,-5.15424 1.20358,-8.61413 1.20358,-8.61413z" fill="#403c36"/><path d="M284.38497,188.02632l3.66656,-6.43785l1.85515,0.66125l-3.66656,6.43785z" fill="#7d6239"/><path d="M285.84882,148.99915l3.6019,6.47359l-1.86167,0.64296l-3.60192,-6.47359z" data-paper-data="{&quot;index&quot;:null}" fill="#7d6239"/></g><g stroke="none" stroke-width="0" stroke-linecap="butt"><path d="M290.70478,168.06414l-0.05827,1.0727l-13.39495,0.0428l0.05825,-1.0727z" fill="#8c7463"/><path d="M291.16963,169.43141c-0.3675,0.00116 -0.64391,-0.39413 -0.61737,-0.88292c0.02654,-0.48879 0.34596,-0.886 0.71348,-0.88717c0.3675,-0.00116 0.64391,0.39409 0.61736,0.88289c-0.02654,0.48879 -0.34595,0.88604 -0.71348,0.8872z" fill="url(#color-1)"/><path d="M296.40799,168.52942l-5.567,1.64647l0.98492,-1.63183l-0.80802,-1.62609z" fill="url(#color-2)"/><path d="M278.83118,168.28197l-1.15077,0.15735l-1.10486,-2.65561z" fill="#d7d7d7"/><path d="M278.14233,168.24316l-1.29023,0.17645l-1.23875,-2.97749z" fill="#e2e2e2"/><path d="M280.03025,168.26902l-0.86966,0.11888l-0.83498,-2.0069z" fill="#d7d7d7"/><path d="M279.50972,168.23973l-0.97509,0.13333l-0.9362,-2.2502z" fill="#e2e2e2"/><path d="M280.98781,168.15311l-0.72909,0.09968l-0.70006,-1.68257z" fill="#d7d7d7"/><path d="M280.55144,168.12854l-0.81752,0.11179l-0.78489,-1.88654z" fill="#e2e2e2"/><path d="M276.2525,171.62089l1.39363,-2.6636l1.13407,0.15005z" fill="#d7d7d7"/><path d="M275.25285,171.96877l1.56255,-2.98646l1.27159,0.16825z" fill="#e2e2e2"/><path d="M278.06804,171.01221l1.05325,-2.01293l0.85706,0.11339z" fill="#d7d7d7"/><path d="M277.31254,171.27508l1.18094,-2.25695l0.96095,0.12719z" fill="#e2e2e2"/><path d="M279.32212,170.81507l0.88301,-1.68763l0.71853,0.09502z" fill="#d7d7d7"/><path d="M278.6887,171.03546l0.99006,-1.89219l0.80566,0.1066z" fill="#e2e2e2"/><path d="M281.23514,168.04372l-0.06311,1.16213l-4.48244,0.01434l0.06311,-1.16213z" fill="#7c6352"/></g><g stroke="#000000" stroke-width="0" stroke-linecap="butt"><path d="M287.52282,170.48732c-0.16209,0.37625 -3.05298,-0.44153 -3.80457,-0.31506c-0.40234,0.0677 3.43473,2.00302 2.96676,2.59502c-0.2778,0.35142 -2.40709,-0.58512 -3.55759,-0.71928c-0.56051,-0.06535 -4.2838,-1.13329 -4.2838,-1.13329c0,0 -2.03376,-1.31275 -4.79115,-1.85298c-0.66308,-0.12991 -2.78549,-0.71546 -3.46834,-0.84168c-1.61611,-0.29873 -3.23276,-0.53278 -4.21766,-0.74217c-2.11838,-0.45034 -12.08015,-3.25576 -12.08015,-3.25576l0.40746,-4.4653c0,0 4.9665,1.70211 10.37638,3.07677c4.06958,1.0341 8.52914,1.71783 10.53986,2.27149c2.37971,0.65527 5.31983,1.87596 5.31983,1.87596c0,0 2.1072,0.71793 3.83822,1.42773c1.55758,0.63867 2.91083,1.71624 2.75475,2.07856z" data-paper-data="{&quot;index&quot;:null}" fill="#979068"/><path d="M248.69629,162.76686c0.69565,-4.67874 3.5529,-4.31278 5.08859,-3.959c1.53569,0.35378 1.59323,-1.12729 0.93649,3.15766c-0.55509,3.62177 -0.70551,3.05306 -2.24118,2.69928c-1.53569,-0.35378 -4.14616,0.53869 -3.78389,-1.89794z" data-paper-data="{&quot;index&quot;:null}" fill="#4a3c33"/></g><g><path d="M239.70444,191.34306c3.62872,0 10.54956,2.18267 10.54956,2.18267l3.03149,33.71008h-7.63934c0,0 -1.32697,-25.53818 -2.03751,-29.57011c-0.20138,-1.1427 -3.2979,-2.07857 -3.2979,-2.07857c0,0 -3.67312,-4.24407 -0.6063,-4.24407z" fill="#a69b98" stroke="#000000" stroke-width="0" stroke-linecap="butt"/><path d="M259.69262,234.32559c-0.59276,0 -2.64411,0.01365 -4.70436,-0.0669c-1.25258,-0.04897 -1.90215,-0.61779 -2.83553,-0.76063c-1.17507,-0.17982 -2.93854,0.22047 -3.78778,0.02896c-1.56485,-0.35288 -2.37463,-0.77782 -2.37463,-0.77782c0,0 -0.26911,-1.0254 -0.2856,-1.5858c-0.02221,-0.75501 0.16433,-2.53701 0.16433,-2.53701c0,0 5.93425,-0.11957 8.24914,0.08076c1.36979,0.11854 4.24057,0.6468 4.24057,0.6468c0,0 1.45976,0.6156 1.67337,1.04283c0.26162,0.52325 0.87307,1.98865 0.87307,1.98865c0,0 -0.3857,1.94015 -1.21259,1.94015z" data-paper-data="{&quot;index&quot;:null}" fill="#141415" stroke="#000000" stroke-width="0" stroke-linecap="butt"/><path d="M259.4217,231.75083c-0.24822,0 0.7024,1.60165 -2.61811,1.33311c-3.13563,-0.25358 -2.77648,-1.18823 -3.8809,-1.26883c-2.30937,-0.16854 -2.58765,0.59503 -3.58732,0.44205c-0.34815,-0.05328 -0.51271,-0.11454 -1.78459,-0.97035c-0.87472,-0.58857 -0.66566,-1.75122 -1.26542,-2.3793c-0.87609,-0.91745 -0.80847,-1.8858 -0.80847,-1.8858l-0.07637,-3.04773c0,0 0.48635,2.20681 1.32529,3.03122c0.75062,0.73761 2.3169,-0.01875 2.80058,-0.01889c0.84696,-0.00024 -0.68885,-3.26804 0.12091,-3.2498c0.43542,0.00981 3.72275,-0.23409 3.72275,-0.23409c0,0 0.12302,3.57989 0.35598,3.60005c1.36979,0.11854 4.60434,0.6468 4.60434,0.6468c0,0 1.45976,0.6156 1.67338,1.04283c0.26162,0.52325 0.63055,2.95873 0.63055,2.95873c0,0 -0.3857,0 -1.2126,0z" data-paper-data="{&quot;index&quot;:null}" fill="#252527" stroke="#000000" stroke-width="0" stroke-linecap="butt"/><path d="M251.95163,228.81218l2.6677,-1.09133" fill="none" stroke="#ffffff" stroke-width="0.5" stroke-linecap="round"/><path d="M253.89178,229.17596l2.54645,-1.45511" fill="none" stroke="#ffffff" stroke-width="0.5" stroke-linecap="round"/><path d="M257.52957,227.9634l-1.45512,1.45511" fill="none" stroke="#ffffff" stroke-width="0.5" stroke-linecap="round"/><path d="M252.9217,224.68937l-2.18266,0.24252" fill="none" stroke="#969696" stroke-width="0.5" stroke-linecap="round"/><path d="M251.22408,225.78074l1.94015,-0.36378" fill="none" stroke="#969696" stroke-width="0.5" stroke-linecap="round"/></g><path d="M235.91982,157.0652v-7.64977h7.65615l-0.1141,7.87798z" fill="url(#color-3)" stroke="#000000" stroke-width="0" stroke-linecap="butt"/><path d="M229.63982,193.59153c0,0 1.05415,-4.96832 0.53438,-10.35244c-0.16183,-1.6764 -0.21302,-5.68895 -0.71668,-7.54193c-0.59549,-2.19087 -2.53406,-2.77781 -2.61907,-4.12911c-0.1679,-2.66921 -1.07001,-6.79369 -0.41646,-11.37123c0.49266,-3.45066 3.45852,-6.29847 3.45852,-6.29847c0,0 3.98746,-0.28908 5.76508,0.07712c2.26281,0.46615 4.64106,2.49298 4.64106,2.49298c0,0 3.08552,-2.02276 4.99894,-2.43902c2.01891,-0.43921 5.48447,0.01677 5.48447,0.01677c0,0 2.62113,3.52189 2.84787,7.84095c0.214,4.0764 -0.63262,8.46783 -0.70926,10.13771c-0.07768,1.69256 -1.49509,2.1313 -2.13228,4.27482c-0.50833,1.71005 -0.54704,5.19044 -0.67745,7.18949c-0.3029,4.64296 0.14784,10.27371 0.14784,10.27371c0,0 -2.75697,-0.76932 -5.57187,-0.83754c-1.27833,-0.03098 -1.79126,1.00612 -2.99851,1.16532c-0.96496,0.12724 -2.63623,-0.61291 -3.56107,-0.64966c-0.69915,-0.02778 -2.04377,-0.5306 -2.53801,-0.53471c-0.99795,-0.0083 -1.61572,0.86529 -2.77345,1.02464c-1.34484,0.1851 -3.1641,-0.33939 -3.1641,-0.33939z" fill="#4f4037" stroke="#292e32" stroke-width="0" stroke-linecap="butt"/><g stroke="#000000" stroke-width="0" stroke-linecap="butt"><path d="M263.45089,175.06683c-2.27271,-0.59298 -4.92601,-1.4683 -4.92601,-1.4683c0,0 -3.87189,-0.99123 -6.74774,-2.14318c-2.42994,-0.97334 -7.39729,-3.70395 -12.24829,-5.7648c-6.44867,-2.73958 -12.71002,-4.79219 -12.71002,-4.79219l3.05685,-5.00715c0,0 12.0871,4.75667 14.54403,5.92182c1.14233,0.54172 2.93236,1.5461 4.772,2.48212c0.77729,0.39549 3.34309,1.42169 4.10357,1.79802c3.16244,1.56491 6.20389,1.75846 6.20389,1.75846c0,0 4.5327,1.75746 5.14106,2.12229c1.24875,0.74883 4.09354,1.41156 4.09746,1.99567c0.00662,0.98399 -6.15797,-0.32916 -5.81014,0.05315c0.64974,0.71417 4.5051,2.84399 4.37463,3.36471c-0.12563,0.50143 -1.80632,0.21292 -3.85129,-0.32062z" data-paper-data="{&quot;index&quot;:null}" fill="#a0986e"/><path d="M228.66256,154.14841c1.80229,0.81598 2.39287,0.33473 0.13699,4.56969c-2.66899,5.01047 -1.57787,3.40968 -3.38016,2.59372c-1.80229,-0.81598 -4.92897,-2.64125 -1.9934,-8.09558c1.52881,-2.84053 3.43425,0.1162 5.23654,0.93217z" fill="#615046"/></g><g><path d="M251.22503,117.79769c0,0 -0.26338,3.24445 -0.58861,4.57283c-0.26638,1.08795 -1.2217,2.82111 -1.2217,2.82111" data-paper-data="{&quot;index&quot;:null}" fill="none" stroke="#3b2c16" stroke-width="1.25" stroke-linecap="round"/><path d="M252.62928,121.93595c0,0 -0.18908,2.27851 -0.58872,3.23539c-0.42269,1.01206 -1.88216,2.68074 -1.88216,2.68074" data-paper-data="{&quot;index&quot;:null}" fill="none" stroke="#3b2c16" stroke-width="1.25" stroke-linecap="round"/><path d="M248.97181,116.03367c0,0 0.11659,3.27103 -0.03039,4.69304c-0.12038,1.16464 -0.78772,3.22209 -0.78772,3.22209" data-paper-data="{&quot;index&quot;:null}" fill="none" stroke="#3b2c16" stroke-width="1.25" stroke-linecap="round"/><path d="M252.55186,134.25851c0,7.39154 -8.18556,17.31455 -11.39879,17.3764c-6.69145,0.1288 -14.23242,-9.98486 -14.23242,-17.3764c0,-7.39154 5.73774,-13.38356 12.8156,-13.38356c7.07786,0 12.8156,5.99202 12.8156,13.38356z" fill="url(#color-4)" stroke="none" stroke-width="0" stroke-linecap="butt"/><path d="M241.64847,135.3417c0,2.06292 -0.85162,3.73524 -1.90215,3.73524c-1.05053,0 -1.90214,-1.67233 -1.90214,-3.73524c0,-2.06292 0.85162,-3.73523 1.90214,-3.73523c1.05053,0 1.90215,1.67232 1.90215,3.73523z" fill="none" stroke="#191412" stroke-width="1.5" stroke-linecap="butt"/><path d="M246.38251,129.78001c0,2.06292 -0.85162,3.73524 -1.90214,3.73524c-1.05053,0 -1.90215,-1.67233 -1.90215,-3.73524c0,-2.06292 0.85162,-3.73524 1.90215,-3.73524c1.05053,0 1.90214,1.67232 1.90214,3.73524z" fill="none" stroke="#191412" stroke-width="1.5" stroke-linecap="butt"/><path d="M251.07876,135.29523c0,2.06292 -0.85161,3.73524 -1.90214,3.73524c-1.05053,0 -1.90215,-1.67233 -1.90215,-3.73524c0,-2.06292 0.85162,-3.73523 1.90215,-3.73523c1.05053,0 1.90214,1.67232 1.90214,3.73523z" fill="none" stroke="#191412" stroke-width="1.5" stroke-linecap="butt"/><path d="M246.32529,140.42399c0,2.06292 -0.85162,3.73524 -1.90214,3.73524c-1.05053,0 -1.90215,-1.67233 -1.90215,-3.73524c0,-2.06292 0.85162,-3.73523 1.90215,-3.73523c1.05053,0 1.90214,1.67232 1.90214,3.73523z" fill="none" stroke="#191412" stroke-width="1.5" stroke-linecap="butt"/><path d="M232.27207,125.51305c0,0 -1.55639,-1.73224 -1.99089,-2.81993c-0.53052,-1.32806 -0.96207,-4.57226 -0.96207,-4.57226" fill="none" stroke="#47341a" stroke-width="1.5" stroke-linecap="round"/><path d="M231.06404,128.17426c0,0 -2.37686,-1.66727 -3.06571,-2.67893c-0.6513,-0.9565 -0.96105,-3.23482 -0.96105,-3.23482" fill="none" stroke="#47341a" stroke-width="1.5" stroke-linecap="round"/><path d="M234.32335,124.269c0,0 -1.08798,-2.05681 -1.28494,-3.22133c-0.24048,-1.42187 -0.05363,-4.693 -0.05363,-4.693" fill="none" stroke="#47341a" stroke-width="1.5" stroke-linecap="round"/></g><path d="M250.54048,207.3078l0.31291,-62.47611l0.77579,0.00382l-0.31287,62.47612z" fill="#2e2c2a" stroke="none" stroke-width="0" stroke-linecap="butt"/><g stroke="none" stroke-width="0" stroke-linecap="butt"><path d="M251.77243,137.58353c0,0 -1.58719,4.13058 1.89999,10.23262c3.91629,6.853 11.94287,16.87483 13.78248,23.78379c0.24969,0.93784 -1.61148,2.41698 -1.61553,3.22438c-0.00522,1.04197 1.83303,1.55572 1.54956,2.72292c-2.05038,8.44294 -10.62948,19.75062 -14.87847,27.97313c-2.73451,5.29178 -1.12309,8.95682 -1.12309,8.95682c0,0 -2.71413,-3.72176 -1.34948,-8.62841c2.6387,-9.48729 15.04197,-22.3578 15.08543,-31.03838c0.0346,-6.90896 -12.39871,-19.52658 -14.76365,-27.11564c-1.88535,-6.05006 1.41277,-10.11129 1.41277,-10.11129z" fill="#403c36"/><path d="M255.66299,197.54978l4.30381,-7.55676l2.17759,0.77618l-4.30381,7.55676z" fill="#7d6239"/><path d="M257.38127,151.73958l4.22792,7.59873l-2.18524,0.7547l-4.22794,-7.59873z" data-paper-data="{&quot;index&quot;:null}" fill="#7d6239"/></g><g stroke="none" stroke-width="0" stroke-linecap="butt"><path d="M263.0812,174.11813l-0.0684,1.25914l-15.72303,0.05023l0.06838,-1.25913z" fill="#8c7463"/><path d="M263.62685,175.72303c-0.43137,0.00135 -0.75582,-0.46264 -0.72467,-1.03637c0.03115,-0.57373 0.40608,-1.03999 0.83749,-1.04136c0.43137,-0.00135 0.75581,0.46258 0.72465,1.03633c-0.03115,0.57373 -0.40607,1.04004 -0.83748,1.04141z" fill="url(#color-5)"/><path d="M269.77565,174.66427l-6.53456,1.93263l1.1561,-1.91545l-0.94846,-1.90872z" fill="url(#color-6)"/><path d="M249.14394,174.37381l-1.35079,0.1847l-1.29688,-3.11716z" fill="#d7d7d7"/><path d="M248.33537,174.32826l-1.51448,0.20711l-1.45405,-3.49498z" fill="#e2e2e2"/><path d="M250.55141,174.35861l-1.02081,0.13955l-0.9801,-2.35571z" fill="#d7d7d7"/><path d="M249.94041,174.32423l-1.14457,0.1565l-1.09892,-2.64128z" fill="#e2e2e2"/><path d="M251.6754,174.22256l-0.85581,0.11702l-0.82173,-1.97501z" fill="#d7d7d7"/><path d="M251.16319,174.19372l-0.9596,0.13122l-0.9213,-2.21442z" fill="#e2e2e2"/><path d="M246.11707,178.29303l1.63585,-3.12654l1.33118,0.17613z" fill="#d7d7d7"/><path d="M244.94369,178.70139l1.83412,-3.50552l1.49259,0.1975z" fill="#e2e2e2"/><path d="M248.24816,177.57857l1.23631,-2.36278l1.00602,0.13311z" fill="#d7d7d7"/><path d="M247.36135,177.88713l1.38619,-2.64921l1.12796,0.14929z" fill="#e2e2e2"/><path d="M249.72021,177.34718l1.03647,-1.98095l0.84342,0.11154z" fill="#d7d7d7"/><path d="M248.9767,177.60587l1.16214,-2.22106l0.94568,0.12512z" fill="#e2e2e2"/><path d="M251.96572,174.09416l-0.07407,1.36411l-5.2615,0.01684l0.07408,-1.36411z" fill="#7c6352"/></g><g stroke="#000000" stroke-width="0" stroke-linecap="butt"><path d="M256.24354,177.45234c-1.92091,-0.50748 -4.16306,-1.25481 -4.16306,-1.25481c0,0 -3.27262,-0.84853 -5.70229,-1.83043c-2.05294,-0.82966 -6.24768,-3.15235 -10.34575,-4.9082c-5.44774,-2.33414 -10.73884,-4.08668 -10.73884,-4.08668l2.59877,-4.22756c0,0 10.21201,4.05502 12.28729,5.047c0.96487,0.4612 2.47644,1.31545 4.03013,2.11201c0.65647,0.33655 2.8242,1.21128 3.46651,1.53158c2.67101,1.33196 5.24325,1.50357 5.24325,1.50357c0,0 7.49655,3.71369 7.51761,4.14542c0.0613,1.25756 -4.8275,-0.96131 -4.56045,-0.54143c0.50449,0.7932 3.73549,2.35067 3.62378,2.79078c-0.10758,0.42382 -1.52851,0.17542 -3.25695,-0.2812z" data-paper-data="{&quot;index&quot;:null}" fill="#ada477"/><path d="M226.76661,159.63513c1.52242,0.6949 2.02326,0.28937 0.10402,3.86583c-2.27068,4.23137 -1.34357,2.88011 -2.86599,2.18522c-1.52242,-0.6949 -4.16251,-2.24702 -1.66516,-6.85315c1.3006,-2.39882 2.90471,0.10721 4.42712,0.80212z" fill="#615046"/></g></g></g></svg>