<svg version="1.1" xmlns="http://www.w3.org/2000/svg" xmlns:xlink="http://www.w3.org/1999/xlink" width="59" height="59.70662" viewBox="0,0,59,59.70662"><defs><linearGradient x1="270" y1="151.64669" x2="270" y2="208.35331" gradientUnits="userSpaceOnUse" id="color-1"><stop offset="0" stop-color="#191919"/><stop offset="1" stop-color="#050505"/></linearGradient><linearGradient x1="270" y1="151.64669" x2="270" y2="208.35331" gradientUnits="userSpaceOnUse" id="color-2"><stop offset="0" stop-color="#cccccc"/><stop offset="1" stop-color="#898989"/></linearGradient><radialGradient cx="270" cy="180.00001" r="26.8571" gradientUnits="userSpaceOnUse" id="color-3"><stop offset="0" stop-color="#ffffff" stop-opacity="0.35484"/><stop offset="1" stop-color="#ffffff" stop-opacity="0"/></radialGradient><linearGradient x1="270" y1="153.29212" x2="270" y2="206.7079" gradientUnits="userSpaceOnUse" id="color-4"><stop offset="0" stop-color="#cccccc"/><stop offset="1" stop-color="#898989"/></linearGradient><radialGradient cx="277.36379" cy="179.90207" r="17.37486" gradientUnits="userSpaceOnUse" id="color-5"><stop offset="0" stop-color="#b6b6b6"/><stop offset="1" stop-color="#9e9e9e"/></radialGradient><radialGradient cx="277.3638" cy="178.8946" r="17.37486" gradientUnits="userSpaceOnUse" id="color-6"><stop offset="0" stop-color="#dfdfdf"/><stop offset="1" stop-color="#bbbbbb"/></radialGradient><radialGradient cx="276.51431" cy="175.11384" r="23.41101" gradientUnits="userSpaceOnUse" id="color-7"><stop offset="0" stop-color="#ffffff"/><stop offset="1" stop-color="#d4d4d4"/></radialGradient></defs><g transform="translate(-240.5,-150.14669)"><g data-paper-data="{&quot;isPaintingLayer&quot;:true}" fill-rule="nonzero" stroke-linecap="butt" stroke-linejoin="miter" stroke-miterlimit="10" stroke-dasharray="" stroke-dashoffset="0" style="mix-blend-mode: normal"><path d="M242,208.35331v-56.70662h56v56.70662z" fill="url(#color-1)" stroke="url(#color-2)" stroke-width="3"/><path d="M296.8571,180.00001c0,14.75036 -12.02433,26.70789 -26.8571,26.70789c-14.83277,0 -26.8571,-11.95753 -26.8571,-26.70789c0,-14.75036 12.02433,-26.70789 26.8571,-26.70789c14.83277,0 26.8571,11.95753 26.8571,26.70789z" fill="url(#color-3)" stroke="url(#color-4)" stroke-width="0"/><path d="M246.58899,187.7503c0,0 4.72517,-3.44388 8.8872,-6.90378c2.81937,-2.34374 5.73011,-5.27792 8.98905,-7.92138c4.16681,-3.37988 8.1835,-4.42465 8.1835,-4.42465l20.76227,10.94081c0,0 -2.97004,1.83102 -7.39594,5.3091c-4.87562,3.8315 -7.00253,5.49432 -10.47213,8.11547c-4.50607,3.40416 -8.68347,5.11028 -8.68347,5.11028z" fill="url(#color-5)" stroke="none" stroke-width="0"/><path d="M245.27327,163.339v-8.69862h21.38697v8.69862z" fill-opacity="0.53453" fill="#000000" stroke="#a60000" stroke-width="0"/><text transform="translate(245.70712,161.61518) scale(0.21839,0.21839)" font-size="40" xml:space="preserve" fill="#ffffff" fill-rule="nonzero" stroke="none" stroke-width="1" stroke-linecap="butt" stroke-linejoin="miter" stroke-miterlimit="10" stroke-dasharray="" stroke-dashoffset="0" font-family="Serif" font-weight="normal" text-anchor="start" style="mix-blend-mode: normal"><tspan x="0" dy="0">Paper</tspan></text><path d="M246.58899,186.74283c0,0 5.01302,-3.29996 9.17505,-6.75986c2.81936,-2.34374 6.16189,-4.84614 9.42082,-7.4896c4.16681,-3.37988 7.46387,-5.00036 7.46387,-5.00036l20.76227,10.94082c0,0 -2.82612,1.54316 -7.25202,5.02125c-4.87562,3.8315 -7.00253,5.78218 -10.47213,8.40332c-4.50607,3.40416 -8.8274,5.11028 -8.8274,5.11028z" fill="url(#color-6)" stroke="none" stroke-width="0"/><path d="M246.58899,185.59142c0,0 4.72517,-3.29995 8.8872,-6.75985c2.81937,-2.34374 6.30581,-5.13399 9.56474,-7.77745c4.16681,-3.37988 7.6078,-4.7125 7.6078,-4.7125l20.76227,10.94081c0,0 -3.25789,1.68709 -7.68379,5.16518c-4.87562,3.8315 -6.85861,5.78217 -10.32821,8.40332c-4.50607,3.40416 -8.53954,4.96635 -8.53954,4.96635z" fill="url(#color-7)" stroke="none" stroke-width="0"/></g></g></svg>