<svg version="1.1" xmlns="http://www.w3.org/2000/svg" xmlns:xlink="http://www.w3.org/1999/xlink" width="84.5" height="38.32609" viewBox="0,0,84.5,38.32609"><defs><linearGradient x1="240" y1="161.58696" x2="240" y2="198.41312" gradientUnits="userSpaceOnUse" id="color-1"><stop offset="0" stop-color="#2b4b31"/><stop offset="1" stop-color="#395a1b"/></linearGradient><linearGradient x1="240" y1="161.58696" x2="240" y2="198.41312" gradientUnits="userSpaceOnUse" id="color-2"><stop offset="0" stop-color="#12301b"/><stop offset="1" stop-color="#446d2c"/></linearGradient><linearGradient x1="276.30954" y1="181.81174" x2="276.30954" y2="195.02106" gradientUnits="userSpaceOnUse" id="color-3"><stop offset="0" stop-color="#464646"/><stop offset="1" stop-color="#353535"/></linearGradient><linearGradient x1="267.89917" y1="176.48293" x2="267.89917" y2="195.36021" gradientUnits="userSpaceOnUse" id="color-4"><stop offset="0" stop-color="#171717"/><stop offset="1" stop-color="#191919"/></linearGradient><linearGradient x1="266.52693" y1="176.74356" x2="269.55928" y2="195.18167" gradientUnits="userSpaceOnUse" id="color-5"><stop offset="0" stop-color="#383838"/><stop offset="1" stop-color="#262626"/></linearGradient><linearGradient x1="250.09387" y1="186.73198" x2="255.79334" y2="186.73198" gradientUnits="userSpaceOnUse" id="color-6"><stop offset="0" stop-color="#636363"/><stop offset="1" stop-color="#494949"/></linearGradient><linearGradient x1="251.94108" y1="176.21318" x2="273.95875" y2="176.21318" gradientUnits="userSpaceOnUse" id="color-7"><stop offset="0" stop-color="#555555"/><stop offset="1" stop-color="#515151"/></linearGradient><linearGradient x1="271.97129" y1="174.84945" x2="278.37026" y2="174.84945" gradientUnits="userSpaceOnUse" id="color-8"><stop offset="0" stop-color="#464646"/><stop offset="1" stop-color="#292929"/></linearGradient><linearGradient x1="247.56746" y1="192.79671" x2="254.77008" y2="192.79671" gradientUnits="userSpaceOnUse" id="color-9"><stop offset="0" stop-color="#555555"/><stop offset="1" stop-color="#424242"/></linearGradient><linearGradient x1="266.9408" y1="179.58395" x2="266.9408" y2="180.08379" gradientUnits="userSpaceOnUse" id="color-10"><stop offset="0" stop-color="#171717"/><stop offset="1" stop-color="#191919"/></linearGradient><linearGradient x1="267.53507" y1="183.4569" x2="267.53507" y2="183.95674" gradientUnits="userSpaceOnUse" id="color-11"><stop offset="0" stop-color="#171717"/><stop offset="1" stop-color="#191919"/></linearGradient><linearGradient x1="268.10351" y1="187.22373" x2="268.10351" y2="187.72357" gradientUnits="userSpaceOnUse" id="color-12"><stop offset="0" stop-color="#171717"/><stop offset="1" stop-color="#191919"/></linearGradient><linearGradient x1="268.69778" y1="191.38848" x2="268.69778" y2="191.88831" gradientUnits="userSpaceOnUse" id="color-13"><stop offset="0" stop-color="#171717"/><stop offset="1" stop-color="#191919"/></linearGradient><linearGradient x1="276.38502" y1="194.49269" x2="276.38502" y2="195.39847" gradientUnits="userSpaceOnUse" id="color-14"><stop offset="0" stop-color="#464646"/><stop offset="1" stop-color="#353535"/></linearGradient><linearGradient x1="262.8213" y1="195.17116" x2="262.8213" y2="196.04575" gradientUnits="userSpaceOnUse" id="color-15"><stop offset="0" stop-color="#cacaca"/><stop offset="1" stop-color="#979797"/></linearGradient></defs><g transform="translate(-197.75,-160.83703)"><g data-paper-data="{&quot;isPaintingLayer&quot;:true}" fill-rule="nonzero" stroke-linejoin="miter" stroke-miterlimit="10" stroke-dasharray="" stroke-dashoffset="0" style="mix-blend-mode: normal"><path d="M198.5,198.41312v-36.82609h83v36.82609z" fill="url(#color-1)" stroke="url(#color-2)" stroke-width="1.5" stroke-linecap="butt"/><text transform="translate(201.08,170.56883) scale(0.21667,0.21667)" font-size="40" xml:space="preserve" fill="#ff0000" fill-rule="nonzero" stroke="none" stroke-width="1" stroke-linecap="butt" stroke-linejoin="miter" stroke-miterlimit="10" stroke-dasharray="" stroke-dashoffset="0" font-family="Serif" font-weight="normal" text-anchor="start" style="mix-blend-mode: normal"><tspan x="0" dy="0">Oil Rigs</tspan></text><text transform="translate(200.3,195.63118) scale(0.12749,0.12749)" font-size="40" xml:space="preserve" fill="#ff0000" fill-rule="nonzero" stroke="none" stroke-width="1" stroke-linecap="butt" stroke-linejoin="miter" stroke-miterlimit="10" stroke-dasharray="" stroke-dashoffset="0" font-family="Serif" font-weight="normal" text-anchor="start" style="mix-blend-mode: normal"><tspan x="0" dy="0">50 R</tspan></text><path d="M250.96899,195.23168l2.94463,-15.73052l7.98149,-4.10698l14.41318,-0.54243l0.15498,20.68989z" fill-opacity="0.01033" fill="#ffffff" stroke="#000000" stroke-width="0.5" stroke-linecap="butt"/><path d="M276.23406,181.81174l0.15096,13.20932" fill="none" stroke="url(#color-3)" stroke-width="0.5" stroke-linecap="round"/><path d="M268.11623,195.36021l-2.72368,-18.33522l1.92943,-0.54206l3.0838,18.79823z" fill="none" stroke="url(#color-4)" stroke-width="0.5" stroke-linecap="butt"/><path d="M269.00614,195.27264l-3.03235,-18.43811l0.69472,-0.28483l2.98091,18.74679z" fill="url(#color-5)" stroke="#160000" stroke-width="0.5" stroke-linecap="butt"/><path d="M250.09387,195.65627l3.62153,-18.26068l2.07794,0.41211l-3.62153,18.26068z" fill="url(#color-6)" stroke="none" stroke-width="0.5" stroke-linecap="butt"/><path d="M252.70916,180.41656l-0.76808,-3.04278l21.24959,-5.36397l0.76808,3.04278z" fill="url(#color-7)" stroke="none" stroke-width="0.5" stroke-linecap="butt"/><path d="M271.97129,167.80592c0,0 1.51948,0.18624 2.0633,0.55651c0.65078,0.4431 1.57843,1.92303 1.57843,1.92303l2.75292,8.13855c0,0 0.17035,2.52867 -1.62823,3.37487c-1.34633,0.63343 -1.86009,-2.14061 -2.01032,-2.0898c-0.06775,0.02292 -2.5031,-7.88821 -2.5031,-7.88821z" fill="url(#color-8)" stroke="#160000" stroke-width="0.5" stroke-linecap="butt"/><path d="M247.77325,195.31761l-0.20578,-3.90992c0,0 0.29265,-0.60133 0.46302,-0.77169c0.17036,-0.17036 0.72025,-0.36013 0.72025,-0.36013h4.57872c0,0 0.59794,-0.00971 1.02893,0.20578c0.43099,0.2155 0.41157,0.46302 0.41157,0.46302l-0.20578,4.37294z" fill="url(#color-9)" stroke="#160000" stroke-width="0.5" stroke-linecap="butt"/><path d="M266.08814,179.88693l1.70531,-0.10611" fill="none" stroke="url(#color-10)" stroke-width="0.5" stroke-linecap="round"/><path d="M266.65658,183.70682h1.75698" fill="none" stroke="url(#color-11)" stroke-width="0.5" stroke-linecap="round"/><path d="M267.17334,187.52671l1.86034,-0.10611" fill="none" stroke="url(#color-12)" stroke-width="0.5" stroke-linecap="round"/><path d="M267.84513,191.66492l1.70531,-0.05305" fill="none" stroke="url(#color-13)" stroke-width="0.5" stroke-linecap="round"/><path d="M275.40376,195.39847v-0.90578h1.96253v0.90578z" fill="#212121" stroke="url(#color-14)" stroke-width="0.5" stroke-linecap="butt"/><path d="M247.00155,196.04575v-0.87459h31.6395v0.87459z" fill="url(#color-15)" stroke="#160000" stroke-width="0.5" stroke-linecap="butt"/></g></g></svg>