<svg version="1.1" xmlns="http://www.w3.org/2000/svg" xmlns:xlink="http://www.w3.org/1999/xlink" width="84.5" height="38.32609" viewBox="0,0,84.5,38.32609"><defs><linearGradient x1="270" y1="161.58694" x2="270" y2="198.41312" gradientUnits="userSpaceOnUse" id="color-1"><stop offset="0" stop-color="#2b4b31"/><stop offset="1" stop-color="#395a1b"/></linearGradient><linearGradient x1="270" y1="161.58694" x2="270" y2="198.41312" gradientUnits="userSpaceOnUse" id="color-2"><stop offset="0" stop-color="#12301b"/><stop offset="1" stop-color="#446d2c"/></linearGradient><radialGradient cx="295.0394" cy="183.56662" r="14.88384" gradientUnits="userSpaceOnUse" id="color-3"><stop offset="0" stop-color="#ffffff" stop-opacity="0.40392"/><stop offset="1" stop-color="#ffffff" stop-opacity="0"/></radialGradient><linearGradient x1="296.17024" y1="182.44757" x2="295.87331" y2="182.44707" gradientUnits="userSpaceOnUse" id="color-4"><stop offset="0" stop-color="#464646"/><stop offset="1" stop-color="#353535"/></linearGradient><linearGradient x1="297.86335" y1="183.89464" x2="296.70688" y2="183.89268" gradientUnits="userSpaceOnUse" id="color-5"><stop offset="0" stop-color="#191919"/><stop offset="1" stop-color="#000000"/></linearGradient><linearGradient x1="298.27012" y1="182.45105" x2="298.08657" y2="182.45074" gradientUnits="userSpaceOnUse" id="color-6"><stop offset="0" stop-color="#2b281f"/><stop offset="1" stop-color="#1f1c15"/></linearGradient><linearGradient x1="298.27012" y1="182.45105" x2="298.08657" y2="182.45074" gradientUnits="userSpaceOnUse" id="color-7"><stop offset="0" stop-color="#464646"/><stop offset="1" stop-color="#353535"/></linearGradient><linearGradient x1="296.278" y1="182.44768" x2="295.97859" y2="182.44717" gradientUnits="userSpaceOnUse" id="color-8"><stop offset="0" stop-color="#2b281f"/><stop offset="1" stop-color="#1f1c15"/></linearGradient><linearGradient x1="296.278" y1="182.44768" x2="295.97859" y2="182.44717" gradientUnits="userSpaceOnUse" id="color-9"><stop offset="0" stop-color="#464646"/><stop offset="1" stop-color="#353535"/></linearGradient><linearGradient x1="297.82458" y1="181.11957" x2="297.82002" y2="183.8127" gradientUnits="userSpaceOnUse" id="color-10"><stop offset="0" stop-color="#303030"/><stop offset="1" stop-color="#212121"/></linearGradient><linearGradient x1="296.56924" y1="181.11745" x2="296.56473" y2="183.7789" gradientUnits="userSpaceOnUse" id="color-11"><stop offset="0" stop-color="#303030"/><stop offset="1" stop-color="#212121"/></linearGradient><linearGradient x1="296.84848" y1="182.44864" x2="296.28549" y2="182.44769" gradientUnits="userSpaceOnUse" id="color-12"><stop offset="0" stop-color="#464646"/><stop offset="1" stop-color="#353535"/></linearGradient><radialGradient cx="297.69102" cy="182.04491" r="1.39409" gradientUnits="userSpaceOnUse" id="color-13"><stop offset="0" stop-color="#626262"/><stop offset="1" stop-color="#2e2e2e"/></radialGradient><radialGradient cx="298.07237" cy="181.65082" r="1.62772" gradientUnits="userSpaceOnUse" id="color-14"><stop offset="0" stop-color="#e8e46e"/><stop offset="1" stop-color="#b59317"/></radialGradient><linearGradient x1="298.15675" y1="182.45086" x2="297.87602" y2="182.45039" gradientUnits="userSpaceOnUse" id="color-15"><stop offset="0" stop-color="#464646"/><stop offset="1" stop-color="#353535"/></linearGradient><radialGradient cx="296.59143" cy="181.58847" r="1.62772" gradientUnits="userSpaceOnUse" id="color-16"><stop offset="0" stop-color="#e8e46e"/><stop offset="1" stop-color="#b59317"/></radialGradient><linearGradient x1="296.7099" y1="182.44841" x2="296.18082" y2="182.44751" gradientUnits="userSpaceOnUse" id="color-17"><stop offset="0" stop-color="#464646"/><stop offset="1" stop-color="#353535"/></linearGradient><radialGradient cx="297.45982" cy="182.39591" r="0.38689" gradientUnits="userSpaceOnUse" id="color-18"><stop offset="0" stop-color="#fff67b"/><stop offset="1" stop-color="#ffd300"/></radialGradient><linearGradient x1="293.84997" y1="182.44757" x2="294.1469" y2="182.44707" gradientUnits="userSpaceOnUse" id="color-19"><stop offset="0" stop-color="#464646"/><stop offset="1" stop-color="#353535"/></linearGradient><linearGradient x1="292.15687" y1="183.89464" x2="293.31333" y2="183.89267" gradientUnits="userSpaceOnUse" id="color-20"><stop offset="0" stop-color="#191919"/><stop offset="1" stop-color="#000000"/></linearGradient><linearGradient x1="291.75009" y1="182.45105" x2="291.93365" y2="182.45074" gradientUnits="userSpaceOnUse" id="color-21"><stop offset="0" stop-color="#2b281f"/><stop offset="1" stop-color="#1f1c15"/></linearGradient><linearGradient x1="291.75009" y1="182.45105" x2="291.93365" y2="182.45074" gradientUnits="userSpaceOnUse" id="color-22"><stop offset="0" stop-color="#464646"/><stop offset="1" stop-color="#353535"/></linearGradient><linearGradient x1="293.74222" y1="182.44768" x2="294.04162" y2="182.44717" gradientUnits="userSpaceOnUse" id="color-23"><stop offset="0" stop-color="#2b281f"/><stop offset="1" stop-color="#1f1c15"/></linearGradient><linearGradient x1="293.74222" y1="182.44768" x2="294.04162" y2="182.44717" gradientUnits="userSpaceOnUse" id="color-24"><stop offset="0" stop-color="#464646"/><stop offset="1" stop-color="#353535"/></linearGradient><linearGradient x1="292.19563" y1="181.11957" x2="292.2002" y2="183.8127" gradientUnits="userSpaceOnUse" id="color-25"><stop offset="0" stop-color="#303030"/><stop offset="1" stop-color="#212121"/></linearGradient><linearGradient x1="293.45097" y1="181.11745" x2="293.45547" y2="183.77889" gradientUnits="userSpaceOnUse" id="color-26"><stop offset="0" stop-color="#303030"/><stop offset="1" stop-color="#212121"/></linearGradient><linearGradient x1="293.17172" y1="182.44864" x2="293.73472" y2="182.44769" gradientUnits="userSpaceOnUse" id="color-27"><stop offset="0" stop-color="#464646"/><stop offset="1" stop-color="#353535"/></linearGradient><radialGradient cx="292.3292" cy="182.04491" r="1.39409" gradientUnits="userSpaceOnUse" id="color-28"><stop offset="0" stop-color="#626262"/><stop offset="1" stop-color="#2e2e2e"/></radialGradient><radialGradient cx="291.94784" cy="181.65082" r="1.62772" gradientUnits="userSpaceOnUse" id="color-29"><stop offset="0" stop-color="#e8e46e"/><stop offset="1" stop-color="#b59317"/></radialGradient><linearGradient x1="291.86346" y1="182.45086" x2="292.14419" y2="182.45038" gradientUnits="userSpaceOnUse" id="color-30"><stop offset="0" stop-color="#464646"/><stop offset="1" stop-color="#353535"/></linearGradient><radialGradient cx="293.42879" cy="181.58847" r="1.62772" gradientUnits="userSpaceOnUse" id="color-31"><stop offset="0" stop-color="#e8e46e"/><stop offset="1" stop-color="#b59317"/></radialGradient><linearGradient x1="293.31032" y1="182.4484" x2="293.83939" y2="182.44751" gradientUnits="userSpaceOnUse" id="color-32"><stop offset="0" stop-color="#464646"/><stop offset="1" stop-color="#353535"/></linearGradient><radialGradient cx="292.56039" cy="182.39591" r="0.38689" gradientUnits="userSpaceOnUse" id="color-33"><stop offset="0" stop-color="#fff67b"/><stop offset="1" stop-color="#ffd300"/></radialGradient><radialGradient cx="296.10284" cy="188.06989" r="2.10821" gradientUnits="userSpaceOnUse" id="color-34"><stop offset="0" stop-color="#6f8b90"/><stop offset="1" stop-color="#488996"/></radialGradient><radialGradient cx="296.10284" cy="187.72046" r="2.10821" gradientUnits="userSpaceOnUse" id="color-35"><stop offset="0" stop-color="#83a5ab"/><stop offset="1" stop-color="#5099a8"/></radialGradient><radialGradient cx="296.10284" cy="187.37103" r="2.10821" gradientUnits="userSpaceOnUse" id="color-36"><stop offset="0" stop-color="#9bc3ca"/><stop offset="1" stop-color="#5fb4c5"/></radialGradient><radialGradient cx="296.12051" cy="187.02157" r="2.11986" gradientUnits="userSpaceOnUse" id="color-37"><stop offset="0" stop-color="#aedbe2"/><stop offset="1" stop-color="#6ed0e4"/></radialGradient><radialGradient cx="296.12051" cy="186.67215" r="2.11986" gradientUnits="userSpaceOnUse" id="color-38"><stop offset="0" stop-color="#c5f7ff"/><stop offset="1" stop-color="#7be8ff"/></radialGradient><radialGradient cx="296.05672" cy="185.84924" r="2.36703" gradientUnits="userSpaceOnUse" id="color-39"><stop offset="0" stop-color="#b06612"/><stop offset="1" stop-color="#8c5119"/></radialGradient><linearGradient x1="292.65861" y1="187.65932" x2="297.39268" y2="187.65932" gradientUnits="userSpaceOnUse" id="color-40"><stop offset="0" stop-color="#1a1a1a"/><stop offset="1" stop-color="#000000"/></linearGradient><radialGradient cx="295.55937" cy="182.37883" r="2.34897" gradientUnits="userSpaceOnUse" id="color-41"><stop offset="0" stop-color="#9e9e9e"/><stop offset="1" stop-color="#696969"/></radialGradient><linearGradient x1="294.09024" y1="183.16141" x2="295.96106" y2="183.16141" gradientUnits="userSpaceOnUse" id="color-42"><stop offset="0" stop-color="#1a1a1a"/><stop offset="1" stop-color="#000000"/></linearGradient><radialGradient cx="295.08853" cy="182.59307" r="1.87037" gradientUnits="userSpaceOnUse" id="color-43"><stop offset="0" stop-color="#e4dd67"/><stop offset="1" stop-color="#b59317"/></radialGradient><radialGradient cx="296.24273" cy="180.57977" r="3.21232" gradientUnits="userSpaceOnUse" id="color-44"><stop offset="0" stop-color="#393949"/><stop offset="1" stop-color="#2c2c33"/></radialGradient><radialGradient cx="284.84991" cy="195.27066" r="2.89186" gradientUnits="userSpaceOnUse" id="color-45"><stop offset="0" stop-color="#524949"/><stop offset="1" stop-color="#2b2626"/></radialGradient><linearGradient x1="286.35284" y1="195.64714" x2="280.57775" y2="195.64714" gradientUnits="userSpaceOnUse" id="color-46"><stop offset="0" stop-color="#1a1a1a"/><stop offset="1" stop-color="#000000"/></linearGradient><radialGradient cx="307.96199" cy="195.27066" r="2.89186" gradientUnits="userSpaceOnUse" id="color-47"><stop offset="0" stop-color="#494a52"/><stop offset="1" stop-color="#26272b"/></radialGradient><linearGradient x1="309.46492" y1="195.64714" x2="303.68983" y2="195.64714" gradientUnits="userSpaceOnUse" id="color-48"><stop offset="0" stop-color="#1a1a1a"/><stop offset="1" stop-color="#000000"/></linearGradient><radialGradient cx="285.21547" cy="194.76205" r="2.88506" gradientUnits="userSpaceOnUse" id="color-49"><stop offset="0" stop-color="#ff0000"/><stop offset="1" stop-color="#650000"/></radialGradient><radialGradient cx="308.3276" cy="194.77426" r="2.91692" gradientUnits="userSpaceOnUse" id="color-50"><stop offset="0" stop-color="#001aff"/><stop offset="1" stop-color="#000a66"/></radialGradient><radialGradient cx="296.39225" cy="176.49602" r="4.10341" gradientUnits="userSpaceOnUse" id="color-51"><stop offset="0" stop-color="#b06612"/><stop offset="1" stop-color="#8c5119"/></radialGradient><linearGradient x1="290.92223" y1="177.68667" x2="299.12905" y2="177.68667" gradientUnits="userSpaceOnUse" id="color-52"><stop offset="0" stop-color="#1a1a1a"/><stop offset="1" stop-color="#000000"/></linearGradient><linearGradient x1="288.51831" y1="173.00886" x2="292.43714" y2="173.00886" gradientUnits="userSpaceOnUse" id="color-53"><stop offset="0" stop-color="#e8e7b6"/><stop offset="1" stop-color="#ccbf83"/></linearGradient><linearGradient x1="297.58358" y1="173.00886" x2="301.50242" y2="173.00886" gradientUnits="userSpaceOnUse" id="color-54"><stop offset="0" stop-color="#e8e7b6"/><stop offset="1" stop-color="#ccbf83"/></linearGradient><linearGradient x1="293.02733" y1="173.00886" x2="296.94618" y2="173.00886" gradientUnits="userSpaceOnUse" id="color-55"><stop offset="0" stop-color="#e8e7b6"/><stop offset="1" stop-color="#ccbf83"/></linearGradient><linearGradient x1="295.02564" y1="194.87259" x2="295.02564" y2="195.53745" gradientUnits="userSpaceOnUse" id="color-56"><stop offset="0" stop-color="#48423e"/><stop offset="1" stop-color="#272727"/></linearGradient><radialGradient cx="284.18763" cy="193.93314" r="2.88754" gradientUnits="userSpaceOnUse" id="color-57"><stop offset="0" stop-color="#603232"/><stop offset="1" stop-color="#3b1f1f"/></radialGradient><linearGradient x1="286.35284" y1="194.10925" x2="280.57775" y2="194.10925" gradientUnits="userSpaceOnUse" id="color-58"><stop offset="0" stop-color="#1a1a1a"/><stop offset="1" stop-color="#000000"/></linearGradient><radialGradient cx="307.29971" cy="193.93314" r="2.88755" gradientUnits="userSpaceOnUse" id="color-59"><stop offset="0" stop-color="#323761"/><stop offset="1" stop-color="#1f223b"/></radialGradient><linearGradient x1="309.46492" y1="194.10925" x2="303.68983" y2="194.10925" gradientUnits="userSpaceOnUse" id="color-60"><stop offset="0" stop-color="#1a1a1a"/><stop offset="1" stop-color="#000000"/></linearGradient><linearGradient x1="282.05149" y1="184.78714" x2="287.04256" y2="184.78714" gradientUnits="userSpaceOnUse" id="color-61"><stop offset="0" stop-color="#1a1a1a"/><stop offset="1" stop-color="#000000"/></linearGradient><linearGradient x1="282.36344" y1="184.6057" x2="286.91778" y2="184.6057" gradientUnits="userSpaceOnUse" id="color-62"><stop offset="0" stop-color="#1a1a1a"/><stop offset="1" stop-color="#000000"/></linearGradient><radialGradient cx="286.8633" cy="180.1177" r="9.00507" gradientUnits="userSpaceOnUse" id="color-63"><stop offset="0" stop-color="#767676"/><stop offset="1" stop-color="#555555"/></radialGradient><linearGradient x1="284.77396" y1="184.65726" x2="287.70585" y2="184.65726" gradientUnits="userSpaceOnUse" id="color-64"><stop offset="0" stop-color="#1a1a1a"/><stop offset="1" stop-color="#000000"/></linearGradient><linearGradient x1="282.05149" y1="184.64604" x2="287.16734" y2="184.64604" gradientUnits="userSpaceOnUse" id="color-65"><stop offset="0" stop-color="#1a1a1a"/><stop offset="1" stop-color="#000000"/></linearGradient><radialGradient cx="283.5969" cy="180.1177" r="9.00507" gradientUnits="userSpaceOnUse" id="color-66"><stop offset="0" stop-color="#767676"/><stop offset="1" stop-color="#555555"/></radialGradient><linearGradient x1="281.54291" y1="184.65726" x2="284.47479" y2="184.65726" gradientUnits="userSpaceOnUse" id="color-67"><stop offset="0" stop-color="#1a1a1a"/><stop offset="1" stop-color="#000000"/></linearGradient><radialGradient cx="287.00561" cy="173.3733" r="2.4532" gradientUnits="userSpaceOnUse" id="color-68"><stop offset="0" stop-color="#4a4545"/><stop offset="1" stop-color="#332c2c"/></radialGradient><linearGradient x1="283.33555" y1="173.80916" x2="291.48146" y2="173.80916" gradientUnits="userSpaceOnUse" id="color-69"><stop offset="0" stop-color="#1a1a1a"/><stop offset="1" stop-color="#000000"/></linearGradient><linearGradient x1="288.21069" y1="175.19769" x2="301.8479" y2="175.19769" gradientUnits="userSpaceOnUse" id="color-70"><stop offset="0" stop-color="#998787"/><stop offset="1" stop-color="#6d6e7a"/></linearGradient><linearGradient x1="288.21069" y1="175.19769" x2="301.8479" y2="175.19769" gradientUnits="userSpaceOnUse" id="color-71"><stop offset="0" stop-color="#1a1a1a"/><stop offset="1" stop-color="#000000"/></linearGradient><radialGradient cx="289.25036" cy="178.13289" r="0.77983" gradientUnits="userSpaceOnUse" id="color-72"><stop offset="0" stop-color="#ff0100"/><stop offset="1" stop-color="#ff6300"/></radialGradient><radialGradient cx="300.82323" cy="178.13289" r="0.77983" gradientUnits="userSpaceOnUse" id="color-73"><stop offset="0" stop-color="#ff0100"/><stop offset="1" stop-color="#ff6300"/></radialGradient><linearGradient x1="307.99979" y1="184.78714" x2="303.00873" y2="184.78714" gradientUnits="userSpaceOnUse" id="color-74"><stop offset="0" stop-color="#1a1a1a"/><stop offset="1" stop-color="#000000"/></linearGradient><linearGradient x1="307.68785" y1="184.6057" x2="303.1335" y2="184.6057" gradientUnits="userSpaceOnUse" id="color-75"><stop offset="0" stop-color="#1a1a1a"/><stop offset="1" stop-color="#000000"/></linearGradient><radialGradient cx="303.18799" cy="180.1177" r="9.00507" gradientUnits="userSpaceOnUse" id="color-76"><stop offset="0" stop-color="#767676"/><stop offset="1" stop-color="#555555"/></radialGradient><linearGradient x1="305.27733" y1="184.65726" x2="302.34545" y2="184.65726" gradientUnits="userSpaceOnUse" id="color-77"><stop offset="0" stop-color="#1a1a1a"/><stop offset="1" stop-color="#000000"/></linearGradient><linearGradient x1="307.99979" y1="184.64604" x2="302.88395" y2="184.64604" gradientUnits="userSpaceOnUse" id="color-78"><stop offset="0" stop-color="#1a1a1a"/><stop offset="1" stop-color="#000000"/></linearGradient><radialGradient cx="306.45438" cy="180.1177" r="9.00507" gradientUnits="userSpaceOnUse" id="color-79"><stop offset="0" stop-color="#767676"/><stop offset="1" stop-color="#555555"/></radialGradient><linearGradient x1="308.50838" y1="184.65726" x2="305.5765" y2="184.65726" gradientUnits="userSpaceOnUse" id="color-80"><stop offset="0" stop-color="#1a1a1a"/><stop offset="1" stop-color="#000000"/></linearGradient><radialGradient cx="304.52165" cy="173.43312" r="2.4532" gradientUnits="userSpaceOnUse" id="color-81"><stop offset="0" stop-color="#45454a"/><stop offset="1" stop-color="#2c2d33"/></radialGradient><linearGradient x1="306.71573" y1="173.80916" x2="298.56982" y2="173.80916" gradientUnits="userSpaceOnUse" id="color-82"><stop offset="0" stop-color="#1a1a1a"/><stop offset="1" stop-color="#000000"/></linearGradient><radialGradient cx="296.59689" cy="179.70523" r="3.96606" gradientUnits="userSpaceOnUse" id="color-83"><stop offset="0" stop-color="#b0926f"/><stop offset="1" stop-color="#8c7c6d"/></radialGradient><linearGradient x1="291.05958" y1="179.80638" x2="298.99169" y2="179.80638" gradientUnits="userSpaceOnUse" id="color-84"><stop offset="0" stop-color="#1a1a1a"/><stop offset="1" stop-color="#000000"/></linearGradient><radialGradient cx="295.09646" cy="177.25656" r="0.27984" gradientUnits="userSpaceOnUse" id="color-85"><stop offset="0" stop-color="#2d2d2d"/><stop offset="1" stop-color="#191919"/></radialGradient><radialGradient cx="292.95984" cy="177.25656" r="0.23262" gradientUnits="userSpaceOnUse" id="color-86"><stop offset="0" stop-color="#2d2d2d"/><stop offset="1" stop-color="#191919"/></radialGradient><radialGradient cx="297.20918" cy="177.23294" r="0.23262" gradientUnits="userSpaceOnUse" id="color-87"><stop offset="0" stop-color="#2d2d2d"/><stop offset="1" stop-color="#191919"/></radialGradient><radialGradient cx="291.43985" cy="177.25656" r="0.15" gradientUnits="userSpaceOnUse" id="color-88"><stop offset="0" stop-color="#2d2d2d"/><stop offset="1" stop-color="#191919"/></radialGradient><radialGradient cx="298.69617" cy="177.25655" r="0.13819" gradientUnits="userSpaceOnUse" id="color-89"><stop offset="0" stop-color="#2d2d2d"/><stop offset="1" stop-color="#191919"/></radialGradient><radialGradient cx="296.4426" cy="178.42406" r="3.64454" gradientUnits="userSpaceOnUse" id="color-90"><stop offset="0" stop-color="#2d2d2d"/><stop offset="1" stop-color="#191919"/></radialGradient><radialGradient cx="296.44982" cy="178.78955" r="3.57813" gradientUnits="userSpaceOnUse" id="color-91"><stop offset="0" stop-color="#2d2d2d"/><stop offset="1" stop-color="#191919"/></radialGradient><radialGradient cx="295.07221" cy="195.17069" r="7.39206" gradientUnits="userSpaceOnUse" id="color-92"><stop offset="0" stop-color="#272727"/><stop offset="1" stop-color="#272727" stop-opacity="0"/></radialGradient><radialGradient cx="295.04177" cy="186.42907" r="0.37948" gradientUnits="userSpaceOnUse" id="color-93"><stop offset="0" stop-color="#807a7a"/><stop offset="1" stop-color="#312f2f"/></radialGradient><linearGradient x1="295.03838" y1="186.32727" x2="295.04514" y2="186.53087" gradientUnits="userSpaceOnUse" id="color-94"><stop offset="0" stop-color="#2d2d2d"/><stop offset="1" stop-color="#000000"/></linearGradient><radialGradient cx="294.74142" cy="185.80956" r="0.46801" gradientUnits="userSpaceOnUse" id="color-95"><stop offset="0" stop-color="#ffc4c4"/><stop offset="1" stop-color="#ff0000"/></radialGradient><linearGradient x1="294.85347" y1="185.81384" x2="294.8723" y2="186.38074" gradientUnits="userSpaceOnUse" id="color-96"><stop offset="0" stop-color="#590000" stop-opacity="0.50196"/><stop offset="1" stop-color="#360000" stop-opacity="0.50196"/></linearGradient><radialGradient cx="295.26815" cy="185.78408" r="0.49319" gradientUnits="userSpaceOnUse" id="color-97"><stop offset="0" stop-color="#f5bfbf"/><stop offset="1" stop-color="#c90000"/></radialGradient><linearGradient x1="295.33669" y1="185.80696" x2="295.20577" y2="186.3901" gradientUnits="userSpaceOnUse" id="color-98"><stop offset="0" stop-color="#590000" stop-opacity="0.50196"/><stop offset="1" stop-color="#360000" stop-opacity="0.50196"/></linearGradient><radialGradient cx="294.96767" cy="185.64218" r="0.60546" gradientUnits="userSpaceOnUse" id="color-99"><stop offset="0" stop-color="#ffe3e3"/><stop offset="1" stop-color="#ff2d2d"/></radialGradient><linearGradient x1="295.08825" y1="185.66187" x2="295.04955" y2="186.39768" gradientUnits="userSpaceOnUse" id="color-100"><stop offset="0" stop-color="#590000" stop-opacity="0.50196"/><stop offset="1" stop-color="#360000" stop-opacity="0.50196"/></linearGradient><radialGradient cx="296.43851" cy="186.20388" r="0.33642" gradientUnits="userSpaceOnUse" id="color-101"><stop offset="0" stop-color="#807a7a"/><stop offset="1" stop-color="#312f2f"/></radialGradient><linearGradient x1="296.43552" y1="186.11363" x2="296.44151" y2="186.29413" gradientUnits="userSpaceOnUse" id="color-102"><stop offset="0" stop-color="#2d2d2d"/><stop offset="1" stop-color="#000000"/></linearGradient><radialGradient cx="296.17225" cy="185.65467" r="0.4149" gradientUnits="userSpaceOnUse" id="color-103"><stop offset="0" stop-color="#ffc4c4"/><stop offset="1" stop-color="#ff0000"/></radialGradient><linearGradient x1="296.27159" y1="185.65846" x2="296.28828" y2="186.16104" gradientUnits="userSpaceOnUse" id="color-104"><stop offset="0" stop-color="#590000" stop-opacity="0.50196"/><stop offset="1" stop-color="#360000" stop-opacity="0.50196"/></linearGradient><radialGradient cx="296.63921" cy="185.63208" r="0.43723" gradientUnits="userSpaceOnUse" id="color-105"><stop offset="0" stop-color="#f5bfbf"/><stop offset="1" stop-color="#c90000"/></radialGradient><linearGradient x1="296.69998" y1="185.65237" x2="296.58392" y2="186.16933" gradientUnits="userSpaceOnUse" id="color-106"><stop offset="0" stop-color="#590000" stop-opacity="0.50196"/><stop offset="1" stop-color="#360000" stop-opacity="0.50196"/></linearGradient><radialGradient cx="296.37283" cy="185.50628" r="0.53676" gradientUnits="userSpaceOnUse" id="color-107"><stop offset="0" stop-color="#ffe3e3"/><stop offset="1" stop-color="#ff2d2d"/></radialGradient><linearGradient x1="296.47972" y1="185.52373" x2="296.44542" y2="186.17606" gradientUnits="userSpaceOnUse" id="color-108"><stop offset="0" stop-color="#590000" stop-opacity="0.50196"/><stop offset="1" stop-color="#360000" stop-opacity="0.50196"/></linearGradient><radialGradient cx="293.6431" cy="186.20388" r="0.33642" gradientUnits="userSpaceOnUse" id="color-109"><stop offset="0" stop-color="#807a7a"/><stop offset="1" stop-color="#312f2f"/></radialGradient><linearGradient x1="293.64011" y1="186.11363" x2="293.6461" y2="186.29413" gradientUnits="userSpaceOnUse" id="color-110"><stop offset="0" stop-color="#2d2d2d"/><stop offset="1" stop-color="#000000"/></linearGradient><radialGradient cx="293.37684" cy="185.65467" r="0.4149" gradientUnits="userSpaceOnUse" id="color-111"><stop offset="0" stop-color="#ffc4c4"/><stop offset="1" stop-color="#ff0000"/></radialGradient><linearGradient x1="293.47617" y1="185.65846" x2="293.49286" y2="186.16104" gradientUnits="userSpaceOnUse" id="color-112"><stop offset="0" stop-color="#590000" stop-opacity="0.50196"/><stop offset="1" stop-color="#360000" stop-opacity="0.50196"/></linearGradient><radialGradient cx="293.84379" cy="185.63208" r="0.43723" gradientUnits="userSpaceOnUse" id="color-113"><stop offset="0" stop-color="#f5bfbf"/><stop offset="1" stop-color="#c90000"/></radialGradient><linearGradient x1="293.90456" y1="185.65237" x2="293.7885" y2="186.16933" gradientUnits="userSpaceOnUse" id="color-114"><stop offset="0" stop-color="#590000" stop-opacity="0.50196"/><stop offset="1" stop-color="#360000" stop-opacity="0.50196"/></linearGradient><radialGradient cx="293.57742" cy="185.50628" r="0.53676" gradientUnits="userSpaceOnUse" id="color-115"><stop offset="0" stop-color="#ffe3e3"/><stop offset="1" stop-color="#ff2d2d"/></radialGradient><linearGradient x1="293.68431" y1="185.52373" x2="293.65" y2="186.17606" gradientUnits="userSpaceOnUse" id="color-116"><stop offset="0" stop-color="#590000" stop-opacity="0.50196"/><stop offset="1" stop-color="#360000" stop-opacity="0.50196"/></linearGradient></defs><g transform="translate(-227.75,-160.83703)"><g data-paper-data="{&quot;isPaintingLayer&quot;:true}" fill-rule="nonzero" stroke-linejoin="miter" stroke-miterlimit="10" stroke-dasharray="" stroke-dashoffset="0" style="mix-blend-mode: normal"><path d="M228.5,198.41312v-36.82609h83v36.82609z" fill="url(#color-1)" stroke="url(#color-2)" stroke-width="1.5" stroke-linecap="butt"/><text transform="translate(231.08,170.56885) scale(0.21667,0.21667)" font-size="40" xml:space="preserve" fill="#ff0000" fill-rule="nonzero" stroke="none" stroke-width="1" stroke-linecap="butt" stroke-linejoin="miter" stroke-miterlimit="10" stroke-dasharray="" stroke-dashoffset="0" font-family="Serif" font-weight="normal" text-anchor="start" style="mix-blend-mode: normal"><tspan x="0" dy="0">Laser Extraction</tspan></text><text transform="translate(230.3,195.63118) scale(0.12749,0.12749)" font-size="40" xml:space="preserve" fill="#ff0000" fill-rule="nonzero" stroke="none" stroke-width="1" stroke-linecap="butt" stroke-linejoin="miter" stroke-miterlimit="10" stroke-dasharray="" stroke-dashoffset="0" font-family="Serif" font-weight="normal" text-anchor="start" style="mix-blend-mode: normal"><tspan x="0" dy="0">75k R</tspan></text><g><path d="M309.92324,183.56662c0,7.53511 -6.66373,13.64352 -14.88384,13.64352c-8.22012,0 -14.88383,-6.10841 -14.88383,-13.64352c0,-7.53511 6.66372,-13.64352 14.88383,-13.64352c8.22012,0 14.88384,6.10841 14.88384,13.64352z" fill="url(#color-3)" stroke="none" stroke-width="0" stroke-linecap="butt"/><g stroke-width="0.15"><path d="M296.16754,184.04282l-0.29693,-0.0005l0.00972,-3.19603l0.29263,0.00049" fill="none" stroke="url(#color-4)" stroke-linecap="round"/><path d="M297.86334,183.89811l-1.15645,-0.00889" fill="none" stroke="url(#color-5)" stroke-linecap="round"/><path d="M298.08929,180.84732l0.18355,0.00031l-0.00543,3.20684l-0.18356,-0.00031z" fill="url(#color-6)" stroke="url(#color-7)" stroke-linecap="butt"/><path d="M295.9811,180.96253l0.29941,0.00051l-0.00503,2.9693l-0.29941,-0.0005z" fill="url(#color-8)" stroke="url(#color-9)" stroke-linecap="butt"/><path d="M297.74599,181.11944l0.15718,0.00026l-0.00456,2.69313l-0.15718,-0.00026z" fill="url(#color-10)" stroke="none" stroke-linecap="butt"/><path d="M296.28774,181.11697l0.56299,0.00095l-0.00451,2.66145l-0.56299,-0.00095z" fill="url(#color-11)" stroke="url(#color-12)" stroke-linecap="butt"/><path d="M296.8235,181.06243l0.97726,0.00166l-0.00472,2.78819l-0.97726,-0.00166z" fill="url(#color-13)" stroke="none" stroke-linecap="butt"/><path d="M297.87878,180.82267l0.28074,0.00047l-0.00552,3.25542l-0.28074,-0.00047z" fill="url(#color-14)" stroke="url(#color-15)" stroke-linecap="butt"/><path d="M296.18358,180.8198l0.52907,0.0009l-0.00552,3.25542l-0.52907,-0.0009z" fill="url(#color-16)" stroke="url(#color-17)" stroke-linecap="butt"/><path d="M296.91295,182.37858l0.43959,0.19991l-0.08411,-0.26539l0.43959,0.19991" fill="none" stroke="url(#color-18)" stroke-linecap="round"/></g><g data-paper-data="{&quot;index&quot;:null}" stroke-width="0.15"><path d="M293.84726,180.84678l0.29263,-0.00049l0.00972,3.19603l-0.29693,0.0005" fill="none" stroke="url(#color-19)" stroke-linecap="round"/><path d="M293.31333,183.88922l-1.15645,0.00889" fill="none" stroke="url(#color-20)" stroke-linecap="round"/><path d="M291.93636,184.05416l-0.18356,0.00031l-0.00543,-3.20684l0.18355,-0.00031z" fill="url(#color-21)" stroke="url(#color-22)" stroke-linecap="butt"/><path d="M294.04414,183.93181l-0.29941,0.00051l-0.00503,-2.9693l0.29941,-0.00051z" fill="url(#color-23)" stroke="url(#color-24)" stroke-linecap="butt"/><path d="M292.27878,183.81257l-0.15718,0.00027l-0.00456,-2.69313l0.15717,-0.00027z" fill="url(#color-25)" stroke="none" stroke-linecap="butt"/><path d="M293.73697,183.77841l-0.56299,0.00095l-0.00451,-2.66145l0.56299,-0.00095z" fill="url(#color-26)" stroke="url(#color-27)" stroke-linecap="butt"/><path d="M293.20144,183.85061l-0.97726,0.00166l-0.00472,-2.78819l0.97726,-0.00166z" fill="url(#color-28)" stroke="none" stroke-linecap="butt"/><path d="M292.14695,184.07809l-0.28074,0.00047l-0.00552,-3.25542l0.28074,-0.00048z" fill="url(#color-29)" stroke="url(#color-30)" stroke-linecap="butt"/><path d="M293.84215,184.07522l-0.52907,0.0009l-0.00552,-3.25542l0.52907,-0.0009z" fill="url(#color-31)" stroke="url(#color-32)" stroke-linecap="butt"/><path d="M292.3122,182.513l0.43959,-0.19991l-0.08411,0.26539l0.43959,-0.19991" fill="none" stroke="url(#color-33)" stroke-linecap="round"/></g><path d="M295.01399,188.7649c-1.16433,0 -2.1082,-0.1542 -2.1082,-0.34441c0,-0.19022 0.94387,-0.34441 2.1082,-0.34441c1.16433,0 2.10821,0.1542 2.10821,0.34441c0,0.19022 -0.94388,0.34441 -2.10821,0.34441z" fill="none" stroke="url(#color-34)" stroke-width="0.15" stroke-linecap="butt"/><path d="M295.01399,188.41547c-1.16433,0 -2.1082,-0.1542 -2.1082,-0.34441c0,-0.19022 0.94387,-0.34441 2.1082,-0.34441c1.16433,0 2.10821,0.1542 2.10821,0.34441c0,0.19022 -0.94388,0.34441 -2.10821,0.34441z" fill="none" stroke="url(#color-35)" stroke-width="0.15" stroke-linecap="butt"/><path d="M295.01399,188.06605c-1.16433,0 -2.10821,-0.1542 -2.10821,-0.34441c0,-0.19022 0.94388,-0.34441 2.10821,-0.34441c1.16433,0 2.10821,0.1542 2.10821,0.34441c0,0.19022 -0.94388,0.34441 -2.10821,0.34441z" fill="none" stroke="url(#color-36)" stroke-width="0.15" stroke-linecap="butt"/><path d="M295.02564,187.72042c-1.17077,0 -2.11986,-0.15505 -2.11986,-0.34631c0,-0.19127 0.9491,-0.34631 2.11986,-0.34631c1.17077,0 2.11986,0.15504 2.11986,0.34631c0,0.19127 -0.94909,0.34631 -2.11986,0.34631z" fill="none" stroke="url(#color-37)" stroke-width="0.15" stroke-linecap="butt"/><path d="M295.02564,187.371c-1.17077,0 -2.11986,-0.15505 -2.11986,-0.34631c0,-0.19127 0.9491,-0.34631 2.11986,-0.34631c1.17077,0 2.11986,0.15504 2.11986,0.34631c0,0.19127 -0.94909,0.34631 -2.11986,0.34631z" fill="none" stroke="url(#color-38)" stroke-width="0.15" stroke-linecap="butt"/><path d="M292.65861,186.66244c0,0 0.47061,-1.41866 2.39555,-1.41866c1.90593,0 2.33851,1.41866 2.33851,1.41866c0,0 -0.35137,0.42409 -2.35313,0.42512c-2.16321,0.00112 -2.38094,-0.42512 -2.38094,-0.42512z" fill="url(#color-39)" stroke="url(#color-40)" stroke-width="0.25" stroke-linecap="butt"/><path d="M294.09024,185.42738v-4.53191h1.87081v4.53191c0,0 -0.3004,0.14965 -0.90092,0.16513c-0.58171,0.015 -0.96989,-0.16513 -0.96989,-0.16513z" fill="url(#color-41)" stroke="url(#color-42)" stroke-width="0.25" stroke-linecap="butt"/><path d="M295.02564,181.70127v3.74075" fill="none" stroke="url(#color-43)" stroke-width="0.375" stroke-linecap="round"/><g stroke="#0d0d0f" stroke-width="0.25"><path d="M292.04149,181.45079c-0.04349,-0.2747 -0.22817,-1.44105 -0.22817,-1.44105h6.42463c0,0 -0.16839,1.19646 -0.20602,1.46378c-0.0142,0.10085 -0.14089,0.20834 -0.33288,0.20834c-1.09133,0 -4.78149,0 -5.35394,0c-0.14625,0 -0.28621,-0.12108 -0.30362,-0.23107z" fill="url(#color-44)" stroke-linecap="butt"/><path d="M295.02695,180.12356l-0.00262,1.44448" fill="none" stroke-linecap="round"/><path d="M296.26483,180.12355l-0.00226,1.44448" fill="none" stroke-linecap="round"/><path d="M293.78872,180.12355l-0.00226,1.44448" fill="none" stroke-linecap="round"/><path d="M292.85792,181.56803l0.00226,-1.44448" fill="none" stroke-linecap="round"/><path d="M297.19336,180.12355l-0.00226,1.44448" fill="none" stroke-linecap="round"/><path d="M297.82234,180.12355l-0.00256,1.44448" fill="none" stroke-linecap="round"/><path d="M292.23151,180.12355l-0.00256,1.44448" fill="none" stroke-linecap="round"/></g><path d="M286.35284,194.95929c0,0 -0.12661,1.13562 -2.80344,1.09739c-2.77552,-0.03964 -2.97165,-1.09739 -2.97165,-1.09739l0.00856,-1.15831l5.77516,-0.12442z" data-paper-data="{&quot;index&quot;:null}" fill="url(#color-45)" stroke="url(#color-46)" stroke-width="0.25" stroke-linecap="butt"/><path d="M309.46492,194.95929c0,0 -0.12661,1.13562 -2.80344,1.09739c-2.77552,-0.03964 -2.97165,-1.09739 -2.97165,-1.09739l0.00856,-1.15831l5.77516,-0.12442z" data-paper-data="{&quot;index&quot;:null}" fill="url(#color-47)" stroke="url(#color-48)" stroke-width="0.25" stroke-linecap="butt"/><path d="M286.13699,194.39935c0,0 -0.70098,0.46915 -2.66792,0.4548c-2.02818,0.01601 -2.65899,-0.49489 -2.65899,-0.49489" data-paper-data="{&quot;index&quot;:null}" fill="none" stroke="url(#color-49)" stroke-width="0.25" stroke-linecap="round"/><path d="M309.26191,194.38865c0,0 -0.68246,0.49363 -2.67118,0.46543c-2.05063,0.00173 -2.71436,-0.5136 -2.71436,-0.5136" data-paper-data="{&quot;index&quot;:null}" fill="none" stroke="url(#color-50)" stroke-width="0.25" stroke-linecap="round"/><path d="M291.39439,179.6851l-0.47215,-3.99688h8.20682l-0.47215,3.99688z" fill="url(#color-51)" stroke="url(#color-52)" stroke-width="0.25" stroke-linecap="butt"/><g stroke="#27200f" stroke-width="0.25"><path d="M292.43714,173.00886c0,0.64538 -0.87726,1.16857 -1.95942,1.16857c-1.08216,0 -1.95942,-0.52319 -1.95942,-1.16857c0,-0.64538 0.52315,-1.16856 1.95942,-1.16856c1.43627,0 1.95942,0.52318 1.95942,1.16856z" fill="url(#color-53)" stroke-linecap="butt"/><path d="M290.12361,171.93531v2.14713" fill="none" stroke-linecap="round"/><path d="M290.83184,171.93531v2.14713" fill="none" stroke-linecap="round"/><path d="M290.47772,174.08244v-2.14713" fill="none" stroke-linecap="round"/></g><g stroke="#27200f" stroke-width="0.25"><path d="M301.50242,173.00886c0,0.64538 -0.87726,1.16857 -1.95942,1.16857c-1.08216,0 -1.95943,-0.52319 -1.95943,-1.16857c0,-0.64538 0.52315,-1.16856 1.95943,-1.16856c1.43627,0 1.95942,0.52318 1.95942,1.16856z" fill="url(#color-54)" stroke-linecap="butt"/><path d="M299.18889,174.08244v-2.14713" fill="none" stroke-linecap="round"/><path d="M299.89711,171.93531v2.14713" fill="none" stroke-linecap="round"/><path d="M299.543,171.93531v2.14713" fill="none" stroke-linecap="round"/></g><g stroke="#27200f" stroke-width="0.25"><path d="M296.94618,173.00886c0,0.64538 -0.87726,1.16857 -1.95942,1.16857c-1.08216,0 -1.95942,-0.52319 -1.95942,-1.16857c0,-0.64538 0.52315,-1.16856 1.95942,-1.16856c1.43627,0 1.95942,0.52318 1.95942,1.16856z" fill="url(#color-55)" stroke-linecap="butt"/><path d="M294.63264,174.08244v-2.14713" fill="none" stroke-linecap="round"/><path d="M295.34086,174.08244v-2.14713" fill="none" stroke-linecap="round"/><path d="M294.98676,174.08244v-2.14713" fill="none" stroke-linecap="round"/></g><path d="M295.02564,195.53745c-4.08252,0 -7.39206,-0.14883 -7.39206,-0.33242c0,-0.18359 3.30954,-0.33242 7.39206,-0.33242c4.08252,0 7.39206,0.14883 7.39206,0.33242c0,0.18359 -3.30954,0.33242 -7.39206,0.33242z" fill="url(#color-56)" stroke="#181614" stroke-width="0.25" stroke-linecap="butt"/><path d="M283.54939,194.38326c-2.77552,-0.02651 -2.97165,-0.7342 -2.97165,-0.7342c0,0 0.12255,-0.58351 2.97165,-0.58351c2.69286,0 2.80344,0.58351 2.80344,0.58351c0,0 -0.12661,0.75977 -2.80344,0.7342z" data-paper-data="{&quot;index&quot;:null}" fill="url(#color-57)" stroke="url(#color-58)" stroke-width="0.25" stroke-linecap="butt"/><path d="M306.66147,194.38326c-2.77552,-0.02651 -2.97165,-0.7342 -2.97165,-0.7342c0,0 0.12255,-0.58351 2.97165,-0.58351c2.69286,0 2.80343,0.58351 2.80343,0.58351c0,0 -0.1266,0.75977 -2.80343,0.7342z" data-paper-data="{&quot;index&quot;:null}" fill="url(#color-59)" stroke="url(#color-60)" stroke-width="0.25" stroke-linecap="butt"/><g stroke-width="0.25"><path d="M282.13316,193.6146l2.88178,-2.17547l-2.34211,-2.36035l2.90361,-1.7518l-2.40195,-2.33828l2.93226,-1.57229l-2.46434,-2.13671l2.93096,-1.56974l-2.43186,-2.2602l2.90105,-1.61261" fill="none" stroke="url(#color-61)" stroke-linecap="round"/><path d="M284.76539,193.61616l-2.37459,-2.34995l2.96982,-1.97544l-2.40705,-2.29925l2.9348,-1.59965l-2.43187,-2.28885l2.89978,-1.46047l-2.43314,-2.29797l2.99463,-1.61261l-2.40577,-2.07687" fill="none" stroke="url(#color-62)" stroke-linecap="round"/><path d="M284.77396,193.64735l2.39338,-18.01013h0.50859l-2.36346,18.01013z" fill="url(#color-63)" stroke="url(#color-64)" stroke-linecap="butt"/><path d="M282.05149,193.65647l2.37076,-18.02091h2.74508l-2.37076,18.02091c0,0 -0.39381,0.24498 -1.38401,0.24498c-0.94554,0 -1.36107,-0.24498 -1.36107,-0.24498z" fill="none" stroke="url(#color-65)" stroke-linecap="butt"/><path d="M281.54291,193.64735l2.39338,-18.01013h0.50859l-2.36346,18.01013z" fill="url(#color-66)" stroke="url(#color-67)" stroke-linecap="butt"/></g><path d="M283.33555,175.2304c0,-0.34812 0.02753,-0.78043 0.04617,-1.03313c0.00953,-0.12923 0.13228,-0.26908 0.26808,-0.33677c0.49595,-0.24719 3.49697,-1.74296 4.36013,-2.17316c0.14704,-0.07329 0.23204,-0.01739 0.23204,0.09856c0,0.40444 -0.02051,2.81021 -0.02841,3.70977c-0.00188,0.21434 -0.08591,0.31032 -0.22979,0.30165c-0.8356,-0.05036 -3.72926,-0.22177 -4.40267,-0.22177c-0.13916,0 -0.24554,-0.17202 -0.24554,-0.34516z" fill="url(#color-68)" stroke="url(#color-69)" stroke-width="0.25" stroke-linecap="butt"/><path d="M288.21069,178.77031v-7.14524h0.65328c0,0 -0.06605,2.29399 1.62281,2.3005c1.57483,-0.0121 1.62041,-2.3005 1.62041,-2.3005h1.14251c0,0 0.04252,2.30948 1.81858,2.3005c1.66126,-0.00839 1.63765,-2.3005 1.63765,-2.3005h1.22823c0,0 0.00691,2.2937 1.63765,2.31999c1.64667,0.02829 1.62281,-2.31999 1.62281,-2.31999h0.65327v7.14524c0,0 -1.00586,1.07401 -1.36202,0.77215c-1.24648,-1.07273 -0.88417,-3.75273 -5.41575,-3.75273c-4.583,0 -4.23301,2.92093 -5.50682,3.74194c-0.36091,0.23262 -1.35262,-0.76136 -1.35262,-0.76136z" fill="url(#color-70)" stroke="url(#color-71)" stroke-width="0.25" stroke-linecap="butt"/><path d="M288.75072,176.35059l0.87006,-1.61811l0.83767,1.61811z" fill="#ffde00" stroke="#010101" stroke-width="0.25" stroke-linecap="butt"/><text transform="translate(289.41928,176.17151) scale(0.03413,0.03413)" font-size="40" xml:space="preserve" fill="#000000" fill-rule="nonzero" stroke="none" stroke-width="1" stroke-linecap="butt" stroke-linejoin="miter" stroke-miterlimit="10" stroke-dasharray="" stroke-dashoffset="0" font-family="Sans Serif" font-weight="normal" text-anchor="start" style="mix-blend-mode: normal"><tspan x="0" dy="0">!</tspan></text><path d="M290.60418,175.22872l-0.34395,0.00307l0.39132,-0.69235l0.39441,-0.00305l-0.30187,0.47763l0.32034,0.00002l-0.6394,0.79155z" fill="#ffde00" stroke-opacity="0.50196" stroke="#5e4d00" stroke-width="0.15" stroke-linecap="butt"/><path d="M290.02044,178.13289c0,0.42752 -0.34478,0.77409 -0.77008,0.77409c-0.4253,0 -0.77008,-0.34657 -0.77008,-0.77409c0,-0.42752 0.34478,-0.77409 0.77008,-0.77409c0.4253,0 0.77008,0.34657 0.77008,0.77409z" fill="url(#color-72)" stroke-opacity="0.50196" stroke="#5e1b00" stroke-width="0.125" stroke-linecap="butt"/><path d="M301.59332,178.13289c0,0.42752 -0.34478,0.77409 -0.77008,0.77409c-0.4253,0 -0.77008,-0.34657 -0.77008,-0.77409c0,-0.42752 0.34478,-0.77408 0.77008,-0.77408c0.4253,0 0.77008,0.34657 0.77008,0.77408z" fill="url(#color-73)" stroke-opacity="0.50196" stroke="#5e1b00" stroke-width="0.125" stroke-linecap="butt"/><g data-paper-data="{&quot;index&quot;:null}" stroke-width="0.25"><path d="M303.00873,175.83715l2.90105,1.61261l-2.43187,2.2602l2.93097,1.56974l-2.46434,2.1367l2.93225,1.57229l-2.40195,2.33828l2.9036,1.7518l-2.34211,2.36035l2.88178,2.17547" fill="none" stroke="url(#color-74)" stroke-linecap="round"/><path d="M305.53928,175.6551l-2.40577,2.07687l2.99463,1.61261l-2.43314,2.29797l2.89977,1.46047l-2.43186,2.28885l2.9348,1.59965l-2.40705,2.29925l2.96982,1.97544l-2.37459,2.34995" fill="none" stroke="url(#color-75)" stroke-linecap="round"/><path d="M304.73882,193.64735l-2.36346,-18.01013h0.50859l2.39337,18.01013z" fill="url(#color-76)" stroke="url(#color-77)" stroke-linecap="butt"/><path d="M305.2547,193.65647l-2.37076,-18.02091h2.74508l2.37076,18.02091c0,0 -0.32881,0.32664 -1.35497,0.32664c-0.99119,0 -1.39011,-0.32664 -1.39011,-0.32664z" fill="none" stroke="url(#color-78)" stroke-linecap="butt"/><path d="M307.96987,193.64735l-2.36346,-18.01014h0.50859l2.39338,18.01014z" fill="url(#color-79)" stroke="url(#color-80)" stroke-linecap="butt"/></g><path d="M306.71573,175.2304c0,0.17313 -0.10639,0.34516 -0.24555,0.34516c-0.67342,0 -3.56707,0.17141 -4.40267,0.22177c-0.14388,0.00867 -0.22791,-0.0873 -0.22979,-0.30165c-0.0079,-0.89956 -0.02841,-3.30533 -0.02841,-3.70977c0,-0.11595 0.085,-0.17184 0.23204,-0.09855c0.86315,0.4302 3.86416,1.92597 4.36012,2.17316c0.1358,0.06768 0.25856,0.20753 0.26809,0.33677c0.01864,0.2527 0.04617,0.685 0.04617,1.03313z" data-paper-data="{&quot;index&quot;:null}" fill="url(#color-81)" stroke="url(#color-82)" stroke-width="0.25" stroke-linecap="butt"/><path d="M291.05958,179.81598c0,-0.13927 0.12882,-0.42274 0.29129,-0.42274c0.54862,0 6.07986,0 7.37194,0c0.172,0 0.26889,0.26745 0.26889,0.40353c0,0.13927 -0.12231,0.42274 -0.3361,0.42274c-1.39478,0 -6.68323,0 -7.30472,0c-0.16247,0 -0.29129,-0.26745 -0.29129,-0.40353z" fill="url(#color-83)" stroke="url(#color-84)" stroke-width="0.25" stroke-linecap="butt"/><path d="M294.74581,177.39821c0,-0.15454 0.12529,-0.27984 0.27984,-0.27984c0.15454,0 0.27983,0.12529 0.27983,0.27984c0,0.15454 -0.12529,0.27983 -0.27983,0.27983c-0.15454,0 -0.27984,-0.12529 -0.27984,-0.27983z" fill="url(#color-85)" stroke="none" stroke-width="0.5" stroke-linecap="butt"/><path d="M292.66835,177.39821c0,-0.15454 0.10415,-0.27984 0.23262,-0.27984c0.12847,0 0.23262,0.12529 0.23262,0.27984c0,0.15454 -0.10415,0.27983 -0.23262,0.27983c-0.12847,0 -0.23262,-0.12529 -0.23262,-0.27983z" fill="url(#color-86)" stroke="none" stroke-width="0.5" stroke-linecap="butt"/><path d="M296.91769,177.37459c0,-0.15454 0.10415,-0.27983 0.23262,-0.27983c0.12847,0 0.23262,0.12529 0.23262,0.27983c0,0.15454 -0.10415,0.27984 -0.23262,0.27984c-0.12847,0 -0.23262,-0.12529 -0.23262,-0.27984z" fill="url(#color-87)" stroke="none" stroke-width="0.5" stroke-linecap="butt"/><path d="M291.25189,177.39821c0,-0.15454 0.06716,-0.27984 0.15,-0.27984c0.08284,0 0.15,0.12529 0.15,0.27984c0,0.15454 -0.06716,0.27983 -0.15,0.27983c-0.08284,0 -0.15,-0.12529 -0.15,-0.27983z" fill="url(#color-88)" stroke="none" stroke-width="0.5" stroke-linecap="butt"/><path d="M298.523,177.39821c0,-0.15454 0.06187,-0.27984 0.13819,-0.27984c0.07632,0 0.13819,0.12529 0.13819,0.27984c0,0.15454 -0.06187,0.27983 -0.13819,0.27983c-0.07632,0 -0.13819,-0.12529 -0.13819,-0.27983z" fill="url(#color-89)" stroke="none" stroke-width="0.5" stroke-linecap="butt"/><path d="M298.66311,178.44015l-7.28909,0.01609" fill="none" stroke="url(#color-90)" stroke-width="0.25" stroke-linecap="round"/><path d="M291.44044,178.83929l7.15626,0.01612" fill="none" stroke="url(#color-91)" stroke-width="0.25" stroke-linecap="round"/><path d="M295.02564,195.53745c-4.08252,0 -7.39206,-0.14883 -7.39206,-0.33242c0,-0.18359 3.30954,-0.33242 7.39206,-0.33242c4.08252,0 7.39206,0.14883 7.39206,0.33242c0,0.18359 -3.30954,0.33242 -7.39206,0.33242z" fill="url(#color-92)" stroke="#181614" stroke-width="0" stroke-linecap="butt"/><g stroke-width="0.1" stroke-linecap="butt"><path d="M295.42104,186.41648c0.00187,0.05622 -0.16643,0.10745 -0.3759,0.1144c-0.20947,0.00695 -0.38079,-0.03299 -0.38266,-0.08921c-0.00187,-0.05622 0.16643,-0.10744 0.3759,-0.1144c0.20947,-0.00695 0.38079,0.03299 0.38266,0.08921z" fill="url(#color-93)" stroke="url(#color-94)"/><path d="M294.74201,186.42903l-0.14352,-0.59075l0.14082,-0.34569l0.25788,0.31647l-0.0243,0.59233z" fill="url(#color-95)" stroke="url(#color-96)"/><path d="M295.07508,186.40543l0.02412,-0.63992l0.21787,-0.31594l0.15113,0.38993l-0.17663,0.59784z" fill="url(#color-97)" stroke="url(#color-98)"/><path d="M294.69152,185.8573c-0.02488,-0.00179 -0.02488,-0.03325 -0.02488,-0.03325c0.00002,-0.02982 -0.00605,-0.14861 0.0421,-0.14513c0.07695,0.00555 0.03444,0.10483 0.02344,0.14086l-0.01345,0.02427c0,0 -0.0111,0.01819 -0.0272,0.01325z" fill="#ffe3e3" stroke="none"/><path d="M295.21681,185.7679c-0.01019,-0.00679 -0.01414,-0.01483 -0.01505,-0.02229c-0.00719,-0.00612 -0.01177,-0.01523 -0.01177,-0.02542c0,-0.0036 0.00058,-0.00707 0.00163,-0.01031l0.01176,-0.03921l0.00268,0.00081l-0.00051,-0.00625c0.00901,-0.01231 0.01804,-0.02462 0.02705,-0.03693c0,0 0.01999,-0.02666 0.04666,-0.00666c0.0193,0.01448 0.01415,0.03245 0.00983,0.04127l0.00329,0.02965l-0.01192,0.00133c0.00139,0.01719 -0.00037,0.03408 -0.00737,0.04921l-0.01006,0.01556c0,0 -0.01848,0.02773 -0.04622,0.00925z" fill="#ffe3e3" stroke="none"/><path d="M294.89386,186.44331l-0.10282,-0.78278l0.19957,-0.429l0.2642,0.44273l-0.09123,0.76312z" fill="url(#color-99)" stroke="url(#color-100)"/><path d="M294.90655,185.50426c0.01381,-0.0223 0.03183,-0.03833 0.05182,-0.03706c0.00342,0.00021 0.00668,0.00052 0.0098,0.00091c0.00641,-0.00133 0.02147,-0.00286 0.0318,0.00876c0.07218,0.03626 -0.0239,0.15987 -0.05148,0.19635l-0.01465,0.02928c-0.00535,0.01127 -0.01682,0.01907 -0.03012,0.01907c-0.01673,0 -0.03058,-0.01233 -0.03296,-0.02839l-0.0079,-0.04739l0.0097,-0.00162c-0.0108,-0.05238 -0.00444,-0.10232 0.03398,-0.13992z" fill="#ffe3e3" stroke="none"/></g><g stroke-width="0.1" stroke-linecap="butt"><path d="M296.77475,186.19271c0.00166,0.04985 -0.14754,0.09525 -0.33323,0.10142c-0.1857,0.00616 -0.33758,-0.02924 -0.33923,-0.07909c-0.00166,-0.04985 0.14754,-0.09525 0.33323,-0.10142c0.1857,-0.00616 0.33758,0.02924 0.33923,0.07909z" fill="url(#color-101)" stroke="url(#color-102)"/><path d="M296.17277,186.20385l-0.12723,-0.52371l0.12484,-0.30647l0.22861,0.28055l-0.02153,0.52511z" fill="url(#color-103)" stroke="url(#color-104)"/><path d="M296.46805,186.18293l0.02139,-0.5673l0.19314,-0.28008l0.13397,0.34569l-0.15659,0.53z" fill="url(#color-105)" stroke="url(#color-106)"/><path d="M296.12802,185.697c-0.02205,-0.00159 -0.02205,-0.02947 -0.02205,-0.02947c0.00002,-0.02644 -0.00536,-0.13175 0.03732,-0.12867c0.06822,0.00492 0.03053,0.09293 0.02077,0.12487l-0.01192,0.02152c0,0 -0.00984,0.01613 -0.02412,0.01175z" fill="#ffe3e3" stroke="none"/><path d="M296.59369,185.61774c-0.00903,-0.00602 -0.01253,-0.01315 -0.01335,-0.01976c-0.00638,-0.00542 -0.01043,-0.0135 -0.01043,-0.02253c0,-0.0032 0.0005,-0.00627 0.00143,-0.00915l0.01043,-0.03476l0.00238,0.00071l-0.00045,-0.00554c0.00799,-0.01091 0.01599,-0.02182 0.02398,-0.03274c0,0 0.01772,-0.02363 0.04135,-0.00591c0.01711,0.01284 0.01254,0.02877 0.00872,0.03659l0.00292,0.02628l-0.01057,0.00117c0.00123,0.01525 -0.00033,0.03021 -0.00654,0.04363l-0.00893,0.0138c0,0 -0.01638,0.02458 -0.04097,0.0082z" fill="#ffe3e3" stroke="none"/><path d="M296.3074,186.2165l-0.09115,-0.69395l0.17693,-0.38032l0.23422,0.3925l-0.08088,0.67652z" fill="url(#color-107)" stroke="url(#color-108)"/><path d="M296.31866,185.38401c0.01224,-0.01978 0.02822,-0.03398 0.04595,-0.03285c0.00303,0.00019 0.00592,0.00046 0.00869,0.0008c0.00569,-0.00118 0.01903,-0.00253 0.0282,0.00777c0.064,0.03215 -0.02119,0.14173 -0.04564,0.17407l-0.01298,0.02596c-0.00474,0.01 -0.01492,0.0169 -0.02671,0.0169c-0.01483,0 -0.02711,-0.01092 -0.02923,-0.02517l-0.007,-0.04202l0.0086,-0.00143c-0.00957,-0.04644 -0.00393,-0.0907 0.03012,-0.12403z" fill="#ffe3e3" stroke="none"/></g><g stroke-width="0.1" stroke-linecap="butt"><path d="M293.97934,186.19271c0.00166,0.04985 -0.14754,0.09525 -0.33324,0.10142c-0.1857,0.00616 -0.33758,-0.02924 -0.33923,-0.07909c-0.00166,-0.04985 0.14754,-0.09525 0.33323,-0.10142c0.1857,-0.00616 0.33758,0.02924 0.33923,0.07909z" fill="url(#color-109)" stroke="url(#color-110)"/><path d="M293.37736,186.20384l-0.12723,-0.52371l0.12484,-0.30647l0.22861,0.28056l-0.02153,0.52511z" fill="url(#color-111)" stroke="url(#color-112)"/><path d="M293.67264,186.18293l0.02139,-0.5673l0.19314,-0.28008l0.13397,0.34568l-0.15659,0.53z" fill="url(#color-113)" stroke="url(#color-114)"/><path d="M293.3326,185.69699c-0.02205,-0.00159 -0.02205,-0.02947 -0.02205,-0.02947c0.00002,-0.02644 -0.00535,-0.13175 0.03732,-0.12867c0.06822,0.00492 0.03052,0.09293 0.02077,0.12487l-0.01192,0.02152c0,0 -0.00984,0.01613 -0.02412,0.01175z" fill="#ffe3e3" stroke="none"/><path d="M293.79828,185.61774c-0.00903,-0.00602 -0.01253,-0.01315 -0.01335,-0.01976c-0.00638,-0.00542 -0.01043,-0.0135 -0.01043,-0.02253c0,-0.0032 0.00051,-0.00627 0.00144,-0.00915l0.01043,-0.03476l0.00238,0.00071l-0.00045,-0.00554c0.00799,-0.01091 0.01599,-0.02182 0.02398,-0.03274c0,0 0.01773,-0.02363 0.04136,-0.00591c0.01711,0.01284 0.01254,0.02877 0.00872,0.03659l0.00292,0.02628l-0.01057,0.00117c0.00123,0.01525 -0.00032,0.03021 -0.00653,0.04363l-0.00893,0.0138c0,0 -0.01639,0.02458 -0.04097,0.0082z" fill="#ffe3e3" stroke="none"/><path d="M293.51199,186.2165l-0.09115,-0.69395l0.17693,-0.38032l0.23422,0.3925l-0.08088,0.67652z" fill="url(#color-115)" stroke="url(#color-116)"/><path d="M293.52324,185.38401c0.01224,-0.01978 0.02822,-0.03398 0.04595,-0.03285c0.00303,0.00019 0.00592,0.00046 0.00869,0.0008c0.00569,-0.00118 0.01903,-0.00253 0.0282,0.00777c0.064,0.03215 -0.02119,0.14173 -0.04564,0.17407l-0.01298,0.02596c-0.00474,0.01 -0.01492,0.0169 -0.02671,0.0169c-0.01483,0 -0.02711,-0.01092 -0.02923,-0.02517l-0.007,-0.04201l0.0086,-0.00143c-0.00957,-0.04644 -0.00393,-0.0907 0.03012,-0.12403z" fill="#ffe3e3" stroke="none"/></g></g></g></g></svg>